<?xml version="1.0" encoding="UTF-8" standalone="no"?>
<!-- Created with Inkscape (http://www.inkscape.org/) -->

<svg
   xmlns:dc="http://purl.org/dc/elements/1.1/"
   xmlns:cc="http://creativecommons.org/ns#"
   xmlns:rdf="http://www.w3.org/1999/02/22-rdf-syntax-ns#"
   xmlns:svg="http://www.w3.org/2000/svg"
   xmlns="http://www.w3.org/2000/svg"
   version="1.1"
   width="266.165535869"
   height="375.706042006" viewBox="0 0 300.0 423.46509"
   id="svg8029">
  <defs
     id="defs8031" />
  <metadata
     id="metadata8034">
    <rdf:RDF>
      <cc:Work
         rdf:about="">
        <dc:format>image/svg+xml</dc:format>
        <dc:type
           rdf:resource="http://purl.org/dc/dcmitype/StillImage" />
        <dc:title></dc:title>
      </cc:Work>
    </rdf:RDF>
  </metadata>
  <g
     transform="translate(-225.00004,-320.62961)"
     id="layer1">
    <g
       transform="matrix(10.004053,0,0,10.004053,-2371.1587,-3951.0828)"
       id="g7998"
       style="fill:#002562;fill-opacity:1">
      <path
         d="m 276.98853,437.18588 c 0,0 -1.998,0.60938 -4.153,-0.0498 0,0 -0.935,-0.32812 -2.193,-0.0967 0,0 0.481,-0.57125 1.221,-0.4355 0,0 -1.338,-0.80863 -3.139,-0.916 0.227,0.96 0.508,2.42962 0.549,3.95212 0.266,0.30575 0.494,0.752 0.521,1.38975 0,0 -0.021,0.88175 0.58,1.3875 0,0 -0.294,-1.33387 0.327,-1.994 0,0 -0.075,1.4805 0.584,2.07225 0,0 2.273,-3.71574 5.703,-5.30962 m -6.438,15.95412 c 0,0 -1.195,-0.0761 -2.297,0.78525 l -0.064,-0.1485 c -0.356,-1.70312 -0.242,-3.21875 -0.242,-3.21875 l -0.27,-0.0801 c -0.158,0.34575 -0.074,0.78712 -0.074,0.78712 -0.807,0.10938 -1.414,-0.36912 -1.414,-0.36912 -0.277,0.52537 -0.453,1.373 -0.453,1.373 -0.875,-0.79875 -0.947,-2.07025 -0.947,-2.07025 -0.348,-3.32325 3.496,-5.92488 3.496,-5.92488 0.429,-2.02637 0.556,-3.69824 0.539,-5.02437 -0.082,-1.5155 -0.391,-2.956 -0.602,-3.79 -0.006,-0.0176 -0.0125,-0.0303 -0.0125,-0.0303 -0.091,-0.6895 -2.623,-1.67588 -2.623,-1.67588 -2.748,-0.9795 -3.109,0.0264 -3.109,0.0264 0.004,0.51762 0.514,3.01762 0.514,3.01762 0.267,1.44825 0.002,2.794 0.002,2.794 -0.266,-0.72175 -1.557,-1.86537 -1.557,-1.86537 -0.582,-0.2705 -1.447,0.626 -1.447,0.626 -0.645,0.9435 -0.477,1.3595 -0.405,1.4375 0.01,0.01 0.018,0.0166 0.018,0.0166 0.914,0.53125 1.193,0.88388 1.406,1.126 1.01,1.15725 1.547,2.292 1.547,2.292 0,0 0.322,0.62113 0.203,1.53125 0,0 -1.457,6.76763 0.223,11.6035 0,0 0.877,2.72263 0.443,5.086 0,0 -0.599,2.38663 -0.677,3.73825 0,0.0156 -0.006,0.1875 -0.016,0.40438 0.432,0.12287 0.859,0.29675 1.262,0.5135 0.427,-0.46288 1.142,-0.7225 2.031,-0.7225 0.726,0 1.496,0.1815 2.219,0.5 0.101,-0.43363 0.228,-0.9785 0.238,-1.01963 0.127,-0.57037 0.705,-3.38087 0.191,-5.23437 0,0 -0.359,-1.64263 0.375,-2.65625 0,0 0.729,-0.9785 1.924,-0.90425 0,0 0.652,-0.25975 0.385,-1.70913 0,0 -0.293,-1.27725 -0.807,-1.21475"
         id="path7631"
         style="fill:#002562;fill-opacity:1;fill-rule:nonzero;stroke:none" />
      <path
         d="m 288.51153,467.23388 -0.002,0 c -0.463,-0.49225 -1.136,-0.9025 -1.879,-1.168 -0.279,0.32412 -0.646,0.58975 -1.146,0.70112 -0.068,0.01 -1.586,0.25975 -2.602,0.13863 -0.748,0.0743 -1.422,0.32825 -1.449,0.48437 l -0.021,0.13288 -0.106,0.084 c -0.115,0.0956 -0.303,0.15812 -0.545,-0.082 -0.299,-0.297 -0.445,-0.61537 -0.49,-0.924 -0.244,0.14075 -0.455,0.3205 -0.455,0.51375 0,0.004 0.045,1.01163 0.045,1.01163 l -0.672,-0.74213 c -0.229,-0.25188 -0.479,-0.68362 -0.512,-1.15625 -0.101,0.207 -0.252,0.51375 -0.252,0.51375 l -0.761,-0.31638 c -0.022,-0.0125 -0.323,-0.14074 -0.577,-0.4025 -0.113,-0.0389 -0.23,-0.0722 -0.347,-0.1055 -0.028,0.0391 -0.055,0.0782 -0.076,0.13101 l -0.19,0.44725 -0.373,-0.31063 c -0.027,-0.0215 -0.166,-0.164 -0.264,-0.42762 -0.113,-0.0112 -0.224,-0.0156 -0.334,-0.0156 l -0.351,0.62888 -0.096,-0.60938 c -0.631,0.0664 -1.113,0.28325 -1.394,0.6055 l 0.701,0.80062 -0.842,-0.60925 c -0.803,-0.49812 -1.82,-0.82025 -2.781,-0.82025 -0.83,0 -1.455,0.24213 -1.795,0.62888 l 0.705,0.80062 -0.844,-0.60925 0,-0.002 c 0,0 0,0 0,0.002 -0.801,-0.49812 -1.818,-0.82025 -2.781,-0.82025 -0.83,0 -1.453,0.24213 -1.793,0.62888 l 0.701,0.80062 -0.84,-0.60925 c -0.802,-0.49812 -1.822,-0.82025 -2.783,-0.82025 -1.643,0 -1.221,0.9375 -0.07,2.09363 0.812,0.86725 2.277,1.49612 3.625,1.49612 0.83,0 1.455,-0.23825 1.795,-0.627 l -0.703,-0.79875 0.839,0.60938 c 0.803,0.49612 1.823,0.81637 2.786,0.81637 0.83,0 1.453,-0.23825 1.791,-0.625 l -0.702,-0.80075 0.842,0.60938 -0.002,0 c 0.002,0 0.002,0 0.002,0 0.803,0.49612 1.82,0.81637 2.781,0.81637 0.83,0 1.455,-0.23825 1.795,-0.625 l -0.705,-0.80075 0.844,0.60938 c 0.801,0.49612 1.82,0.81637 2.783,0.81637 0.83,0 1.451,-0.23825 1.791,-0.625 l -0.703,-0.80075 0.842,0.60938 0.002,0 c 0.803,0.49612 1.82,0.81637 2.781,0.81637 0.832,0 1.455,-0.23825 1.793,-0.625 l -0.701,-0.80075 0.842,0.60938 -0.002,0 c 0.002,0 0.002,0 0.002,0 0.8,0.49612 1.82,0.81637 2.781,0.81637 1.644,0 1.139,-0.9355 0.072,-2.09362"
         id="path7633"
         style="fill:#002562;fill-opacity:1;fill-rule:nonzero;stroke:none" />
      <path
         d="m 265.63053,451.47201 c 0,0 -2.588,-3.39063 4.032,-7.66888 0,0 -0.295,0.51375 -0.289,1.13175 0,0 0.289,-1.08975 2.029,-2.0215 0,0 3.144,-5.05263 7.291,-5.79875 0,0 -0.315,-0.19725 -0.488,-0.50775 0,0 3.05,0.79787 5.148,-0.0157 0,0 -0.258,-0.11025 -0.459,-0.36613 0,0 0.824,-0.006 1.447,-0.32425 0,0 -0.617,1.26263 -0.863,2.37201 0,0 -0.189,0.8605 -0.094,2.14062 0,0 -0.345,-0.71863 -0.381,-1.372 0,0 -0.484,3.16112 1.125,5.19538 0,0 -0.882,-0.0781 -1.228,-0.58801 0,0 0.418,2.33013 3.31,4.69438 0,0 -0.88,0.26363 -1.31,-0.1025 0,0 1.963,3.16888 2.676,3.53225 0,0 -0.967,-0.13288 -1.399,-0.47263 0,0 1.115,4.03113 -0.304,7.73813 0,0 -0.791,1.75787 0.308,2.92975 0,0 1.518,1.12313 1.328,2.40425 0,0 -0.086,-0.33975 -0.402,-0.65038 0,0 -0.094,2.33213 -1.684,2.6895 0,0 -1.591,0.26763 -2.558,0.13488 0,0 -1.676,0.15413 -1.787,0.78312 0,0 -0.83,-0.70512 -0.325,-1.334 0,0 -1.33,0.37888 -1.296,1.14838 0,0 -0.833,-0.90613 -0.184,-1.67963 0,0 -0.627,0.007 -0.822,0.40625 0,0 -0.61,-1.44525 1.488,-2.31637 0,0 1.164,-0.293 1.734,-0.15625 0,0 1.112,-0.0112 0.928,-1.1445 0,0 -0.412,-1.67588 -1.217,-2.5235 0,0 -0.107,0.6855 0.237,1.0235 0,0 -1.286,-0.55863 -1.661,-1.26563 0,0 -0.336,0.5155 -0.164,0.79675 0,0 -1.861,-1.63275 -1.713,-4.22262 0,0 -0.601,2.877 1.834,5.21875 0,0 -0.029,-0.39838 0.194,-0.80075 0,0 0.181,1.25 0.781,1.61525 0,0 -0.004,-0.50975 0.336,-0.68363 0,0 -0.047,1.02338 0.324,1.36138 0,0 -1.502,0.58187 -2.931,-0.3165 0,0 -1.207,-1.46863 -1.538,-3.371 0,0 -0.419,0.828 -0.156,1.36513 0,0 -1.039,-1.55663 -0.914,-3.80276 0,0 -0.707,0.57425 -0.531,1.172 0,0 -0.641,-1.92975 0.4,-3.1915 0,0 1.541,0.55663 2.616,0.008 0,0 -0.77,-0.33588 -1.145,-0.98438 0,0 3.25,0.99612 5.418,-1.78125 0,0 -0.484,0.0312 -0.742,-0.19337 0,0 0.76,-1.08588 0.812,-1.6855 0,0 -0.927,1.68749 -1.974,2.17974 0,0 0.371,0.19526 0.597,0.13663 0,0 -1.632,1.94725 -5.201,0.2715 0,0 -0.109,0.6835 0.838,1.58587 0,0 -2.309,-0.46487 -3.271,-3.35737 0,0 -0.215,1.28125 0.044,1.87687 0,0 -1.751,-2.03312 -1.06,-4.42762 0,0 5.428,-0.47275 7.644,-4.04588 0,0 -1.019,0.4335 -1.789,0.46963 0,0 1.524,-1.60638 1.37,-3.16988 0,0 -1.153,1.77338 -1.721,1.86425 0,0 0.484,-0.0322 0.881,-0.23637 0,0 -0.586,1.22762 -2.059,2.208 0,0 0.77,0.1075 2.016,-0.38575 0,0 -2.114,2.20812 -7.516,2.4795 0,0 -3.896,0.0322 -2.851,2.52737 0,0 -0.454,0.37313 -1.284,-0.24612 0,0 -0.447,0.6875 -0.214,1.19737 0,0 -0.768,-0.0215 -1.004,-0.873 0,0 -0.567,0.37488 -0.657,1.42563"
         id="path7635"
         style="fill:#002562;fill-opacity:1;fill-rule:nonzero;stroke:none" />
      <path
         d="m 286.79453,453.099 c 0,0 0.381,1.88075 -0.045,3.57425 0,0 0.563,-0.1035 0.803,-0.498 0,0 0.153,0.63275 -0.09,0.88275 0,0 0.657,-0.3985 0.727,-0.88875 0,0 0.369,0.045 0.469,0.41213 0,0 0.98,-2.77338 -1.864,-3.48238"
         id="path7637"
         style="fill:#002562;fill-opacity:1;fill-rule:nonzero;stroke:none" />
      <path
         d="m 279.39453,463.43688 c 0,0 -2.049,0.7755 -1.592,2.65625 0,0 -0.687,-0.289 -0.717,-0.8515 0,0 -0.513,0.1015 -0.753,0.666 0,0 -0.321,-0.26562 -0.229,-0.92787 0,0 -0.561,-0.0429 -0.756,0.30087 0,0 -0.336,-2.19925 4.047,-1.84375"
         id="path7639"
         style="fill:#002562;fill-opacity:1;fill-rule:nonzero;stroke:none" />
      <path
         d="m 273.92153,431.98576 0.44,1.23825 c 0,0 -0.529,0.084 -0.813,-0.19338 l -0.23,-0.53025 c 0,0 -0.113,-0.17388 0.125,-0.27438"
         id="path7641"
         style="fill:#002562;fill-opacity:1;fill-rule:nonzero;stroke:none" />
      <path
         d="m 282.81653,428.21038 c 0,0 -0.609,-0.7735 -2.277,-0.36525 0,0 0.65,-1.14063 2.033,-0.7745 l -0.244,0.28613 c 0,0 0.529,0.40637 0.488,0.85362"
         id="path7643"
         style="fill:#002562;fill-opacity:1;fill-rule:nonzero;stroke:none" />
      <path
         d="m 274.97053,433.78451 c 0.057,0.28424 0.264,1.168 0.264,1.168 0.26,0.24412 0.711,0.51462 1.164,0.752 0.234,-0.19338 0.584,-0.58788 0.666,-1.25788 -1.229,-0.3095 -2.094,-0.66212 -2.094,-0.66212 m 1.102,-2.59375 c -1.201,0.51862 -1.848,0.66212 -1.848,0.66212 0.318,0.78225 0.59,1.57813 0.59,1.57813 0.746,0.10349 1.535,0.16799 2.262,0.20799 -0.032,-0.65625 -0.202,-1.92575 -1.004,-2.44824 m 6.834,2.7325 c 0.226,0.13962 0.625,0.13575 0.625,0.13575 -1.047,0.54975 -3.666,0.42962 -3.666,0.42962 0.429,0.336 0.685,0.42 0.685,0.42 -0.955,0.0185 -1.935,-0.11725 -2.801,-0.30187 -0.148,0.52837 -0.394,1.14462 -0.765,1.39075 0.445,0.21375 0.793,0.35737 0.793,0.35737 -0.199,-0.0556 -0.348,-0.56637 -0.348,-0.56637 1.856,0.69424 5.069,0.41212 5.069,0.41212 -0.374,-0.13975 -0.688,-0.422 -0.688,-0.422 1.082,0.16213 2.84,-0.50575 2.84,-0.50575 0.525,-1.24225 0.406,-2.39162 0.406,-2.39162 -0.535,0.54387 -2.15,1.042 -2.15,1.042 m 3.492,-4.17388 c 0,0 -0.879,-2.24025 -3.443,-1.09862 -1.713,-1.502 -4,0.19437 -4,0.19437 -0.112,-0.27837 -0.032,-0.626 -0.032,-0.626 -1.617,0.834 -1.892,1.65138 -1.892,1.65138 -0.139,0.332 -0.373,1.05862 -0.373,1.05862 -0.0125,0.004 -0.026,0.01 -0.037,0.0156 0.429,0.2265 1.148,0.88275 1.314,2.73237 1.035,0.0361 1.785,0.0235 1.785,0.0235 -0.418,0.24013 -0.679,0.29875 -0.679,0.29875 2.068,-0.11625 3.578,-0.75387 3.578,-0.75387 -0.002,-0.30475 -0.487,-1.73238 -0.487,-1.73238 0.057,0.19425 0.002,0.45987 0.002,0.45987 -1.031,-2.29787 -2.742,-2.70212 -2.742,-2.70212 l 0.205,-0.13963 c 2.029,0.18951 3.311,1.98538 3.311,1.98538 -0.434,-0.28713 -0.741,-0.32525 -0.741,-0.32525 0.799,0.95125 1.09,2.18563 1.09,2.18563 0.852,-0.30963 1.256,-0.59388 1.256,-0.59388 l 0.43,-0.3085 c 0,0 0.556,-0.50387 0.523,-1.12987 0,0 0.287,0.28212 0.317,0.53799 0,0 0.55,-0.4355 -0.071,-1.67774 0,0 0.457,-0.22363 0.686,-0.0556 m -6.678,1.25975 -0.955,-0.0224 0.684,0.67187 -1.166,-0.15337 0.629,0.834 -0.922,-0.8525 -0.08,-0.55375 0.615,-0.26175"
         id="path7645"
         style="fill:#002562;fill-opacity:1;fill-rule:nonzero;stroke:none" />
      <path
         d="m 274.54453,433.82363 0.207,0.74213 c 0,0 -0.642,-0.49025 -0.722,-0.63563 -0.08,-0.14562 -0.145,-0.33213 -0.145,-0.33213 0,0 0.317,0.17388 0.66,0.22563"
         id="path7647"
         style="fill:#002562;fill-opacity:1;fill-rule:nonzero;stroke:none" />
    </g>
  </g>
</svg>
