<?xml version="1.0" encoding="UTF-8" standalone="no"?>
<svg xmlns:rdf="http://www.w3.org/1999/02/22-rdf-syntax-ns#" xmlns="http://www.w3.org/2000/svg" xml:space="preserve" height="32.216" viewBox="0 0 192.13278 32.21563" width="192.13" version="1.1" xmlns:cc="http://creativecommons.org/ns#" xmlns:dc="http://purl.org/dc/elements/1.1/"><g transform="matrix(1.25 0 0 -1.25 -285.2 508.61)"><path d="m122.09 1.0352l-8.85 8.5527v-7.4961h-9.87v27.879h9.87v-10.246l8.51 11.414 8.18-5.537-8.18-11.342 6.86-7.4612-6.52-5.7636zm21.06 0.416l-0.03 28.52h9.94v-8.364l14.24 9.608v-29.123l-10.05-0.0002v8.9282l-14.1-9.5688zm-142.19 0.6035v27.953h9.9452v-7.949l7.348 9.304 7.045-5.047-5.01-7.572c2.787-1.395 3.992-3.806 4.295-4.408 0.191-0.384 1.996-3.995-1.545-8.2891-3.541-4.2965-10.625-3.9922-10.625-3.9922h-11.453zm57.383 0.0312c-3.441-0.0014-6.858 0.0059-6.858 0.0059v27.879h13.901c4.372-0.038 8.012-3.035 9.947-5.2 1.907-2.132 5.839-9.606 1.545-16.539-4.295-6.9319-11.117-5.9706-11.531-6.1031-0.099-0.0322-3.563-0.0415-7.004-0.043zm-31.274 0.0059v27.84h22.379v-8.664h-11.941v-3.016l5.8 2.525v-9.832l-5.8 2.787v-3.089h11.941v-8.5512h-22.379zm103.09 0v27.879h10.17c0.04 0 0-27.879 0-27.879l-10.17-0.0002zm-38.951 0.0371c-1.73 0.0294-5.468 0.2293-7.695 1.3555-2.079 1.0509-4.484 3.2053-4.032 7.3106 0.514 4.671 8.879 8.428 9.909 9.871 0.339 0.477-0.114 0.826-0.301 0.826h-9.57v8.479s9.815 0.019 10.021 0c0.735-0.169 5.914 0.679 9.455-2.639 3.544-3.314 2.414-6.922 2.414-6.922-0.59-4.56-8.781-8.854-9.082-9.305-0.31-0.465 0.038-0.83 0.264-0.83h7.195v-8.1461h-7.646s-0.355-0.0098-0.932 0zm89.521 0c-1.73 0.0294-5.47 0.2293-7.7 1.3555-2.08 1.0509-4.48 3.2053-4.03 7.3106 0.52 4.671 8.88 8.428 9.91 9.871 0.34 0.477-0.12 0.826-0.3 0.826h-9.57v8.479s9.81 0.019 10.02 0c0.73-0.169 5.91 0.679 9.46-2.639 3.54-3.314 2.41-6.922 2.41-6.922-0.59-4.56-8.78-8.854-9.09-9.305-0.31-0.465 0.04-0.83 0.27-0.83h7.2v-8.1461h-7.65s-0.35-0.0098-0.93 0zm-168.36 7.4766c1.314 0.0401 3.065 0.4865 3.065 2.5825 0 3.355-4.483 2.374-4.483 2.374v-4.8589s0.63-0.1217 1.418-0.0976zm50.934 1.0155c1.469-0.025 3.592 0.145 4.465 1.227 1.393 1.734 1.388 5.951-0.229 7.498-1.789 1.715-2.673 1.281-5.764 1.355v-9.98s0.646-0.085 1.528-0.1z" transform="matrix(.8 0 0 -.8 228.16 406.89)" fill="#5a1414"/></g></svg>
