<?xml version="1.0" encoding="utf-8"?>
<!-- Generator: Adobe Illustrator 24.0.2, SVG Export Plug-In . SVG Version: 6.00 Build 0)  -->
<svg version="1.1" id="Layer_1" xmlns="http://www.w3.org/2000/svg" xmlns:xlink="http://www.w3.org/1999/xlink" x="0px" y="0px"
	 viewBox="0 0 1080 648" enable-background="new 0 0 1080 648" xml:space="preserve">
<g>
	<polygon points="707.946,-49.832 622.691,-49.832 621.052,-49.832 591.743,-49.832 562.339,-49.832 533.029,-49.832 
		503.624,-49.832 487.608,-49.832 474.209,-49.832 457.309,-49.832 266.461,-49.832 45.313,-49.832 -81.778,-49.832 
		-81.778,113.245 -81.778,241.314 -81.778,397.002 -81.778,406.702 -81.778,680.752 -81.778,697.832 125.237,697.832 
		311.039,697.832 729.202,-49.832 	"/>
	<polygon fill="#FDFDFD" points="929.083,-49.832 729.202,-49.832 311.039,697.832 346.384,697.832 457.309,697.832 
		484.841,697.832 514.256,697.832 543.555,697.832 566.723,697.832 572.97,697.832 602.268,697.832 622.691,697.832 787.87,697.832 
		1008.198,697.832 1161.778,697.832 1161.778,500.779 1161.778,406.702 1161.778,241.314 1161.778,218.073 1161.778,-49.832 
		1149.422,-49.832 	"/>
</g>
</svg>
