<?xml version="1.0" encoding="utf-8"?>
<!-- Generator: Adobe Illustrator 24.0.2, SVG Export Plug-In . SVG Version: 6.00 Build 0)  -->
<svg version="1.1" id="Layer_1" xmlns="http://www.w3.org/2000/svg" xmlns:xlink="http://www.w3.org/1999/xlink" x="0px" y="0px"
	 viewBox="0 0 1080 648" enable-background="new 0 0 1080 648" xml:space="preserve">
<g>
	<polygon points="706.986,-47.695 622.218,-47.695 620.588,-47.695 591.447,-47.695 562.211,-47.695 533.069,-47.695 
		503.832,-47.695 487.908,-47.695 474.586,-47.695 457.782,-47.695 268.025,-47.695 48.141,-47.695 -78.222,-47.695 -78.222,114.45 
		-78.222,241.787 -78.222,396.584 -78.222,406.23 -78.222,678.712 -78.222,695.695 127.609,695.695 312.348,695.695 728.12,-47.695 
			"/>
	<polygon fill="#FDFDFD" points="926.858,-47.695 728.12,-47.695 312.348,695.695 347.492,695.695 457.782,695.695 485.156,695.695 
		514.403,695.695 543.535,695.695 566.57,695.695 572.781,695.695 601.912,695.695 622.218,695.695 786.453,695.695 
		1005.521,695.695 1158.222,695.695 1158.222,499.768 1158.222,406.23 1158.222,241.787 1158.222,218.679 1158.222,-47.695 
		1145.937,-47.695 	"/>
</g>
</svg>
