<?xml version="1.0" encoding="utf-8"?>
<!-- Generator: Adobe Illustrator 24.0.2, SVG Export Plug-In . SVG Version: 6.00 Build 0)  -->
<svg version="1.1" id="Layer_1" xmlns="http://www.w3.org/2000/svg" xmlns:xlink="http://www.w3.org/1999/xlink" x="0px" y="0px"
	 viewBox="0 0 1080 648" enable-background="new 0 0 1080 648" xml:space="preserve">
<g>
	<polygon points="-117.333,236.586 -117.333,401.176 -117.333,411.432 -117.333,701.153 -117.333,719.21 101.52,719.21 
		297.946,719.21 335.313,719.21 452.58,719.21 481.686,719.21 512.784,719.21 543.758,719.21 568.251,719.21 574.855,719.21 
		605.829,719.21 627.419,719.21 802.044,719.21 1034.972,719.21 1197.333,719.21 1197.333,510.888 1197.333,411.432 
		1197.333,236.586 1197.333,212.016 1197.333,104.89 -117.333,104.89 	"/>
	<polygon fill="#FFFFFF" points="951.332,-71.21 740.021,-71.21 717.55,-71.21 627.419,-71.21 625.687,-71.21 594.702,-71.21 
		563.616,-71.21 532.63,-71.21 501.544,-71.21 484.612,-71.21 470.447,-71.21 452.58,-71.21 250.819,-71.21 17.025,-71.21 
		-117.333,-71.21 -117.333,101.193 -117.333,104.89 1197.333,104.89 1197.333,-71.21 1184.271,-71.21 	"/>
</g>
</svg>
