<?xml version="1.0" encoding="utf-8"?>
<!-- Generator: Adobe Illustrator 24.0.2, SVG Export Plug-In . SVG Version: 6.00 Build 0)  -->
<svg version="1.1" id="Layer_1" xmlns="http://www.w3.org/2000/svg" xmlns:xlink="http://www.w3.org/1999/xlink" x="0px" y="0px"
	 viewBox="0 0 1080 648" enable-background="new 0 0 1080 648" xml:space="preserve">
<g>
	<path fill="#0071CE" d="M1092.512,205.814c-26.621-6.487-54.445-9.189-82.095-9.187c-34.193-0.003-68.102,4.129-99.033,10.14
		c-30.932,6.006-58.889,13.885-81.203,21.278c-14.873,4.926-27.248,9.641-36.274,13.402c-9.352,3.896-21.489,8.985-35.959,14.395
		c-14.477,5.411-31.308,11.15-50.183,16.397c-37.75,10.491-83.696,19.021-135.448,19.022c-31.655,0.001-65.479-3.196-100.859-11.078
		c-35.379-7.881-72.311-20.449-110.155-39.127c-30.922-15.261-63.753-25.513-97.085-31.942c-33.328-6.43-67.146-9.03-99.919-9.029
		c-32.517-0.001-64.002,2.557-92.943,6.418c-28.941,3.86-55.337,9.021-77.688,14.202c-12.121,2.809-23.039,5.622-32.543,8.236
		v82.286v12.047v340.329v21.211h199.577h179.126h34.076h106.939h26.542h28.358h28.246h22.336h6.023h28.245h19.689h159.244h212.412
		H1160V440.103V323.274v-90.365c-9.223-5.496-18.766-10.291-28.594-14.405C1118.838,213.244,1105.824,209.057,1092.512,205.814z"/>
	<path d="M164.299,170.355c34.341,0.001,70.015,2.714,105.55,9.568c35.53,6.854,70.934,17.855,104.611,34.474
		c35.711,17.622,70.342,29.388,103.462,36.768c33.12,7.378,64.737,10.366,94.394,10.367c72.712,0.004,133.673-18.002,175.221-33.537
		c13.859-5.18,25.547-10.078,34.934-13.99c9.775-4.072,22.783-9.02,38.359-14.181c15.572-5.158,33.702-10.524,53.662-15.396
		c39.921-9.735,87.152-17.522,135.923-17.53c22.183,0.001,44.687,1.617,66.96,5.443c22.27,3.827,44.314,9.867,65.508,18.738
		c5.775,2.417,11.482,5.057,17.115,7.907v-81.1V89.024V-36.814H-38.874v154.7v80.265c27.262-7.211,63.747-15.403,105.591-21.023
		C96.944,173.071,129.957,170.356,164.299,170.355z"/>
	<path fill="#FDFDFD" d="M1142.885,191.08c-21.194-8.871-43.238-14.911-65.508-18.738c-22.273-3.827-44.777-5.443-66.96-5.443
		c-48.77,0.008-96.001,7.795-135.923,17.53c-19.96,4.871-38.09,10.237-53.662,15.396c-15.576,5.16-28.584,10.108-38.359,14.181
		c-9.387,3.912-21.075,8.81-34.934,13.99c-41.548,15.536-102.509,33.541-175.221,33.537c-29.658-0.001-61.274-2.99-94.394-10.367
		c-33.121-7.38-67.751-19.146-103.462-36.768c-33.677-16.619-69.081-27.62-104.611-34.474c-35.535-6.853-71.209-9.567-105.55-9.568
		c-34.342,0.001-67.356,2.716-97.582,6.774c-41.844,5.62-78.33,13.812-105.591,21.023v30.79c9.504-2.614,20.422-5.427,32.543-8.236
		c22.351-5.182,48.747-10.343,77.688-14.202c28.941-3.861,60.426-6.419,92.943-6.418c32.774-0.001,66.591,2.599,99.919,9.029
		c33.332,6.429,66.163,16.681,97.085,31.942c37.844,18.678,74.775,31.247,110.155,39.127c35.38,7.882,69.204,11.079,100.859,11.078
		c51.751-0.001,97.698-8.531,135.448-19.022c18.875-5.247,35.707-10.986,50.183-16.397c14.47-5.409,26.607-10.499,35.959-14.395
		c9.025-3.762,21.401-8.476,36.274-13.402c22.314-7.393,50.271-15.272,81.203-21.278c30.931-6.01,64.84-10.143,99.033-10.14
		c27.65-0.002,55.474,2.7,82.095,9.187c13.312,3.243,26.326,7.429,38.894,12.69c9.828,4.114,19.371,8.909,28.594,14.405v-33.922
		C1154.367,196.137,1148.66,193.497,1142.885,191.08z"/>
</g>
</svg>
