<?xml version="1.0" encoding="UTF-8" standalone="no"?>
<!-- Created with Inkscape (http://www.inkscape.org/) -->

<svg
   xmlns:dc="http://purl.org/dc/elements/1.1/"
   xmlns:cc="http://creativecommons.org/ns#"
   xmlns:rdf="http://www.w3.org/1999/02/22-rdf-syntax-ns#"
   xmlns:svg="http://www.w3.org/2000/svg"
   xmlns="http://www.w3.org/2000/svg"
   version="1.1"
   width="278.18615185"
   height="359.471524139" viewBox="0 0 300.0 387.65933"
   id="svg8644">
  <defs
     id="defs8646" />
  <metadata
     id="metadata8649">
    <rdf:RDF>
      <cc:Work
         rdf:about="">
        <dc:format>image/svg+xml</dc:format>
        <dc:type
           rdf:resource="http://purl.org/dc/dcmitype/StillImage" />
        <dc:title></dc:title>
      </cc:Work>
    </rdf:RDF>
  </metadata>
  <g
     transform="translate(-126.2704,-252.00782)"
     id="layer1">
    <g
       transform="matrix(5.6232427,0,0,5.6232427,-1688.0282,-882.82121)"
       id="g8573">
      <g
         transform="matrix(1.25,0,0,-1.25,324.28114,206.17418)"
         id="g7693">
        <path
           d="m 0,0 c 11.889,-7.326 17.787,0.139 19.983,0 4.681,-0.299 10.096,-6.825 19.755,0 0.821,0.579 -0.248,-24.33 -0.248,-24.33 0,0 0.506,-8.307 -2.599,-13.571 -5.992,-10.153 -16.514,-12.404 -16.514,-12.404 0,0 -12.649,2.59 -17.99,14.952 -2.794,6.468 -1.038,18.765 -2.156,27.149 C -0.353,-3.824 0,-0.48 0,-0.48"
           id="path7695"
           style="fill:#ffffff;fill-opacity:1;fill-rule:evenodd;stroke:none" />
      </g>
      <g
         transform="matrix(1.25,0,0,-1.25,366.87452,214.72893)"
         id="g7697">
        <path
           d="M 0,0 C 0,0 2.128,0.222 1.733,-0.396 1.554,-0.618 0.626,-0.574 0.626,-0.707 c 0.09,-0.574 0.176,-2.21 -1.105,-3.976 -0.575,-0.843 -0.398,-3.626 -0.928,-4.553 -0.973,-1.681 -2.52,-1.371 -2.696,-1.328 -0.708,0.088 -1.679,0.486 -2.078,1.812 -1.414,-0.306 -2.52,0.619 -2.917,1.106 -0.708,0.797 -1.018,2.298 -0.265,3.668 0.752,1.372 2.253,1.548 3.668,1.768 2.61,0.399 2.829,2.609 5.481,2.122"
           id="path7699"
           style="fill:#231f20;fill-opacity:1;fill-rule:evenodd;stroke:none" />
      </g>
      <g
         transform="matrix(1.25,0,0,-1.25,343.34602,214.72893)"
         id="g7701">
        <path
           d="M 0,0 C 0,0 2.254,0.222 1.858,-0.396 1.681,-0.618 0.752,-0.574 0.752,-0.707 0.84,-1.281 0.929,-2.917 -0.351,-4.683 -0.928,-5.526 -0.752,-8.309 -1.28,-9.236 c -0.974,-1.681 -2.521,-1.371 -2.697,-1.328 -0.707,0.088 -1.68,0.486 -2.12,1.812 -1.415,-0.306 -2.522,0.619 -2.919,1.106 -0.707,0.797 -0.973,2.298 -0.22,3.668 0.75,1.372 2.253,1.548 3.668,1.768 2.607,0.399 2.784,2.609 5.481,2.122"
           id="path7703"
           style="fill:#231f20;fill-opacity:1;fill-rule:evenodd;stroke:none" />
      </g>
      <g
         transform="matrix(1.25,0,0,-1.25,354.5624,242.79568)"
         id="g7705">
        <path
           d="M 0,0 C 0,0 2.255,0.22 1.855,-0.355 1.681,-0.619 0.752,-0.528 0.752,-0.663 0.884,-1.28 0.928,-2.917 -0.353,-4.683 -0.926,-5.48 -0.706,-8.307 -1.282,-9.239 c -0.972,-1.679 -2.519,-1.324 -2.696,-1.324 -0.705,0.089 -1.68,0.528 -2.077,1.813 -1.414,-0.264 -2.52,0.661 -2.918,1.104 -0.707,0.795 -1.015,2.301 -0.265,3.668 0.752,1.372 2.255,1.548 3.668,1.768 2.609,0.396 2.83,2.651 5.481,2.166"
           id="path7707"
           style="fill:#231f20;fill-opacity:1;fill-rule:evenodd;stroke:none" />
      </g>
      <g
         transform="matrix(1.25,0,0,-1.25,325.2544,237.78468)"
         id="g7709">
        <path
           d="M 0,0 38.95,0"
           id="path7711"
           style="fill:#ffffff;fill-opacity:1;fill-rule:evenodd;stroke:none" />
      </g>
      <path
         d="m 373.66002,238.09343 -48.40625,0 0,-0.6175 48.40625,0 0,0.6175 z"
         id="path7713"
         style="fill:#918f90;fill-opacity:1;fill-rule:nonzero;stroke:none" />
      <g
         transform="matrix(1.25,0,0,-1.25,325.20115,236.08818)"
         id="g7715">
        <path
           d="M 0,0 38.949,0"
           id="path7717"
           style="fill:#ffffff;fill-opacity:1;fill-rule:evenodd;stroke:none" />
      </g>
      <path
         d="m 373.63127,236.39718 -48.43,0 0,-0.6175 48.43,0 0,0.6175 z"
         id="path7719"
         style="fill:#918f90;fill-opacity:1;fill-rule:nonzero;stroke:none" />
      <g
         transform="matrix(1.25,0,0,-1.25,325.20115,234.3333)"
         id="g7721">
        <path
           d="M 0,0 38.949,0"
           id="path7723"
           style="fill:#ffffff;fill-opacity:1;fill-rule:evenodd;stroke:none" />
      </g>
      <path
         d="m 373.71752,234.64218 -48.51625,0 0,-0.6175 48.51625,0 0,0.6175 z"
         id="path7725"
         style="fill:#918f90;fill-opacity:1;fill-rule:nonzero;stroke:none" />
      <g
         transform="matrix(1.25,0,0,-1.25,325.14702,232.6333)"
         id="g7727">
        <path
           d="M 0,0 38.95,0"
           id="path7729"
           style="fill:#ffffff;fill-opacity:1;fill-rule:evenodd;stroke:none" />
      </g>
      <path
         d="m 373.83377,232.94218 -48.6875,0 0,-0.6175 48.6875,0 0,0.6175 z"
         id="path7731"
         style="fill:#918f90;fill-opacity:1;fill-rule:nonzero;stroke:none" />
      <g
         transform="matrix(1.25,0,0,-1.25,325.09477,230.87918)"
         id="g7733">
        <path
           d="M 0,0 38.948,0"
           id="path7735"
           style="fill:#ffffff;fill-opacity:1;fill-rule:evenodd;stroke:none" />
      </g>
      <path
         d="m 373.78002,231.18843 -48.685,0 0,-0.6175 48.685,0 0,0.6175 z"
         id="path7737"
         style="fill:#918f90;fill-opacity:1;fill-rule:nonzero;stroke:none" />
      <g
         transform="matrix(1.25,0,0,-1.25,375.88527,204.21343)"
         id="g7739">
        <path
           d="m 0,0 -0.007,-0.104 c 0.03,0.023 0.062,0.043 0.093,0.067 L 0,0 Z"
           id="path7741"
           style="fill:#7e8385;fill-opacity:1;fill-rule:nonzero;stroke:none" />
      </g>
      <g
         transform="matrix(1.25,0,0,-1.25,375.87652,204.34293)"
         id="g7743">
        <path
           d="m 0,0 c -0.739,-0.557 -4.057,-3.022 -10.447,-3.083 -4.701,-0.044 -10.402,5.109 -10.402,5.109 0,0 -4.43,-4.548 -11.708,-4.548 -4.573,0 -10.03,3.626 -10.03,3.626 l 0.077,-1 2.011,-26.209 0.219,19.754 0.004,3.098 c 0.811,-0.454 1.651,-0.852 2.523,-1.185 1.968,-0.753 4.093,-1.175 6.233,-1.168 2.14,0 4.27,0.434 6.233,1.2 1.536,0.597 2.968,1.387 4.296,2.294 1.329,-0.91 2.761,-1.703 4.297,-2.304 1.962,-0.771 4.092,-1.214 6.237,-1.222 2.143,-0.015 4.277,0.4 6.252,1.151 0.838,0.316 1.647,0.695 2.429,1.124 L -1.808,-26.105 0,0 Z"
           id="path7745"
           style="fill:#116030;fill-opacity:1;fill-rule:nonzero;stroke:none" />
      </g>
      <g
         transform="matrix(1.25,0,0,-1.25,369.93465,253.45668)"
         id="g7747">
        <path
           d="m 0,0 c 1.233,1.932 1.734,3.12 2.481,6.188 0.56,3.84 0.293,4.774 0.486,7.308 C 3.175,10.853 3.44,7.901 2.881,5.281 2.327,2.666 1.65,0.104 0.202,-2.227 c -1.443,-2.334 -3.314,-4.437 -5.458,-6.235 -4.887,-3.699 -10.85,-5.372 -10.85,-5.372 0,0 -8.876,3.199 -14.197,8.999 -2.154,2.521 -3.752,5.45 -4.663,8.539 -0.92,3.092 -0.594,6.297 -0.818,9.979 0.254,-2.544 0.123,-5.1 0.686,-7.311 0.561,-2.208 1.443,-4.325 2.629,-6.258 6.987,-9.052 16.316,-11.449 16.316,-11.449 0,0 11.755,3.622 16.153,11.335"
           id="path7749"
           style="fill:#116030;fill-opacity:1;fill-rule:nonzero;stroke:none" />
      </g>
    </g>
  </g>
</svg>
