<?xml version="1.0" encoding="UTF-8" standalone="no"?>
<svg xmlns:rdf="http://www.w3.org/1999/02/22-rdf-syntax-ns#" xmlns="http://www.w3.org/2000/svg" xml:space="preserve" height="119.55" viewBox="0 0 191.00977 119.54691" width="191.01" version="1.1" xmlns:cc="http://creativecommons.org/ns#" xmlns:dc="http://purl.org/dc/elements/1.1/"><g transform="matrix(1.25 0 0 -1.25 -283.52 553.51)"><path d="m271.49 441.93c-6.6404-0.004-13.28-6.6906-13.28-20.078v-53.644c0-26.65 26.561-26.596 26.561 0v53.711c0 13.338-6.6408 20.015-13.281 20.011zm-33.041-0.70156c-4.3896-0.0473-10.742-3.7645-10.742-19.475v-51.017c0-29.719 26.722-29.274 26.722-3.1547v20.217c0 0.96438-0.43602 1.3797-1.5766 1.3797h-7.5266c-1.4025 0-1.8406-0.60082-1.8406-1.7391v-7.1031c-0.007-4.3767-3.6523-4.3837-3.7172 0v28.534c0 5.5845 3.7172 3.095 3.7172-0.69062v-6.15c0-1.3121 0.52643-1.8406 1.5766-1.8406h7.6266c1.3167 0 1.7406 0.71299 1.7406 2.1062v37.375c0 0.94118-0.5132 1.0844-1.2156 1.0844h-7.2297c-0.57027 0-1.1409-0.0346-1.4469-1.1172-0.23182-0.8183-1.1428-0.7113-2.3344 0.45938-0.61808 0.607-2.0354 1.1498-3.7531 1.1312zm122.58-0.17657c-4.7337 0-9.8324-5.2608-9.7953-19.2 0.0626-21.496 14.397-36.683 14.397-42.272 0-1.4906-0.0225-2.9594-1.775-2.9594-2.8049 0-2.7609 8.4848-2.7609 9.7969 0 1.3144-0.23892 1.7781-1.6438 1.7781h-7.0984c-1.3167 0-1.6438-0.26738-1.6438-1.8438v-36.553c-0.009-1.3584 0.64463-1.5766 1.6438-1.5766h6.5078c0.74413 0 0.97609 0.3148 1.2172 1.0172 0.2805 0.81598 1.1935 0.59186 2.1672 0.0656 1.7108-0.918 2.3577-1.4125 6.7391-1.4125 4.6456 0 9.9281 5.5874 9.9281 17.686 0 22.28-15.186 36.404-15.186 43.322 0 1.1405-0.023 3.2875 1.6438 3.2875 2.3646 0 2.3-7.5567 2.3-8.8734 0-1.3144 0.4608-1.5797 1.5109-1.5797h7.5609c0.98755 0 1.3156 0.48253 1.3156 1.4469v36.227c0 0.87397-0.32724 1.4469-1.3797 1.4469h-5.8531c-1.5114 0-1.1799-0.19667-1.8406-1.3812-0.74415-1.3399-1.8946-0.36033-2.8938 0.26094-1.0501 0.65838-2.3 1.3172-5.0609 1.3172zm-71.266-0.29687c-1.2286 0-1.5109-0.39422-1.5109-1.7109v-25.475c0-1.3144 0.72411-1.5787 1.7766-1.8406 1.2263-0.30834 2.2984-0.92044 2.2984-2.6313v-29.452c0-2.2996-1.5114-2.8262-2.8281-3.2203-1.3005-0.38945-1.5766-0.77855-1.5766-2.2344v-23.802c0-1.7526 0.61333-2.1672 2.1062-2.1672h26.361c1.7502 0 2.1526 0.45869 2.1688 2.1672v37.08c0.0139 1.4906-0.22968 2.1703-1.6438 2.1703h-7.6891c-1.333 0-1.5847-0.61409-1.5797-2.1047v-9.0734c0-2.9557-3.9453-2.9557-3.9453 0v30.636c0 1.6668 1.1412 2.1931 2.8938 2.6313 1.0524 0.26194 1.3156 0.52621 1.3156 1.8406v25.411c0 1.4697-0.37553 1.775-1.8406 1.775h-16.306zm28.009 0c-1.0548 0-2.37-1.0525-2.2703-2.2047v-38.623c0.0324-1.0177 0.62662-1.2141 1.4125-1.2141h6.3125c0.78817 0 1.0516 0.32665 1.0516 1.1844v9.4c0 1.0501 0.65693 2.6938 1.7094 2.6938 1.0524 0 0.92031-0.7898 0.92031-2.6281v-30.111c0-1.9705-2.629-3.0905-3.4844-3.2203-0.77893-0.12056-1.5797-0.46161-1.5797-1.5141v-24.586c0-1.4048 0.52853-1.7094 1.8406-1.7094h16.769c0.98522 0 1.6438 0.65693 1.6438 1.7094v24.586c0 0.96435-0.46251 1.2567-1.3828 1.5141-1.282 0.357-2.6234 0.85288-2.6953 2.9578v30.441c0 1.6413 0.00013 2.5609 0.79063 2.5609 0.78818 0 1.9703-1.2488 1.9703-2.5609v-9.5328c0-1.1429 0.70218-1.1844 1.1844-1.1844h6.4422c0.67921 0 1.05 0.50199 1.05 1.2484v38.689c0 1.5787-0.78537 2.1047-2.3641 2.1047h-29.32zm-46.075-27.445c1.013 0.0313 2.0266-1.1812 2.0266-3.6906v-29.402c0-5.0374-4.0516-5.081-4.0516 0.0422v29.281c0 2.4631 1.012 3.7375 2.025 3.7688z" fill="#002c5f"/></g></svg>
