<?xml version="1.0" encoding="UTF-8" standalone="no"?>
<!DOCTYPE svg PUBLIC "-//W3C//DTD SVG 1.1//EN" "http://www.w3.org/Graphics/SVG/1.1/DTD/svg11.dtd">
<svg xmlns="http://www.w3.org/2000/svg" xmlns:xlink="http://www.w3.org/1999/xlink" version="1.1" width="1200" height="1200" viewBox="0 0 1200 1200" xml:space="preserve">
<desc>Created with Fabric.js 3.2.0</desc>
<defs>
	<style type="text/css"><![CDATA[
		@font-face {
			font-family: 'ABeeZee Regular';
			src: url('ABeeZee Regular.ttf');
		}
]]></style>
</defs>
<g id="id_1579858355918" clip-path="url(#CLIPPATH_4)">
<g transform="matrix(0.9541135457692075 0 0 0.9541135457692075 588.8468089151515 300.1531910848486)">
<clipPath id="CLIPPATH_4">
	<rect transform="matrix(1 0 0 1 598.2777777777778 601.6111111111111)" x="-211.11111111111111" y="-550" rx="0" ry="0" width="422.22222222222223" height="1100"/>
</clipPath>
<g style="">
		<g transform="matrix(1 0 0 1 8.789146481219973 -80.8493740192124)" id="Layer_1">
<path style="stroke: none; stroke-width: 1; stroke-dasharray: none; stroke-linecap: butt; stroke-dashoffset: 0; stroke-linejoin: miter; stroke-miterlimit: 4; fill: rgb(35,31,32); fill-rule: nonzero; opacity: 1;" transform=" translate(-1008.64914648122, -919.2058418125667)" d="M 1006.63 916 s 3.34 0.39 3.6 3 s -2.1 4.06 -3.41 4.85 s -0.26 3 2.88 1.57 s 5.24 -5.57 3.93 -8.71 a 7.4 7.4 0 0 0 -7.93 -4.08 C 1001.93 913.43 1002.79 916.76 1006.63 916 Z" stroke-linecap="round"/>
</g>
		<g transform="matrix(1 0 0 1 -6.130811353268314 -55.70974482362294)" id="Layer_1">
<path style="stroke: none; stroke-width: 1; stroke-dasharray: none; stroke-linecap: butt; stroke-dashoffset: 0; stroke-linejoin: miter; stroke-miterlimit: 4; fill: rgb(35,31,32); fill-rule: nonzero; opacity: 1;" transform=" translate(-993.7291886467317, -944.3454710081562)" d="M 1010.88 904.74 s -13.63 -2.23 -16.25 3.14 c 0 0 -6.29 0.1 -8.45 2.16 s -2.36 3.54 -4 3.83 s -10.12 -0.2 -13.07 2.46 s -2.06 5.31 -2 6.68 s 2.06 6 5.11 6.09 c 0 0 0.59 -3.14 5.11 -3.14 s 7.47 0.39 8.45 1.57 s 1.57 6.09 -1.77 8.45 s -8.06 1.77 -8.65 0 s -4.59 -1.93 -4.45 1.56 s 3.84 6 7.82 5.59 s 2.4 1.57 -0.87 2.62 s -20.18 11.07 -20.77 30.33 c 0 0 4.52 -4.62 10 -5.11 c 0 0 -1.38 -14 9.83 -17.88 c 0 0 -19.88 22.6 9.61 30.07 c 0 0 -2.8 -7.93 -2.28 -15.39 s 8.78 -19.13 19.26 -20.44 c 0 0 -16.38 10.35 -15.07 20.57 s 10.09 16.51 10.09 16.51 s -0.79 -5.08 7.76 -17.16 s 8.84 -15.53 8.45 -27.61 c 0 0 2.52 1 2.91 4.72 s 1.44 12.81 -2.36 17.39 s -10.74 15.2 -10.74 15.2 s 16.18 1.11 20.7 -13.23 s 1.44 -31.38 -6.55 -37.21 c 0 0 5.11 0.26 7.4 3.6 s 1.57 8.06 2.95 8.12 S 1035.25 910 1010.88 904.74 Z M 990.4 917.6 c -1.12 0.48 -5.19 1.61 -5.52 -0.92 c -0.37 -2.9 3.08 -2.55 3.08 -2.55 a 7.9 7.9 0 0 0 4.72 -2 C 993.12 914 992.08 916.87 990.4 917.6 Z" stroke-linecap="round"/>
</g>
		<g transform="matrix(1 0 0 1 -6.141053527405347 39.483068000349476)" id="Layer_1">
<path style="stroke: none; stroke-width: 1; stroke-dasharray: none; stroke-linecap: butt; stroke-dashoffset: 0; stroke-linejoin: miter; stroke-miterlimit: 4; fill: rgb(35,31,32); fill-rule: nonzero; opacity: 1;" transform=" translate(-993.7189464725947, -1039.5382838321286)" d="M 991.49 982 s 0.58 4.52 2.26 6.09 c 0 0 -12 -1 -17.06 -4.59 s -6.42 -8.38 -9.69 -8.51 s -8.71 4.59 -14.61 9.43 s -11.79 10 -18.08 10.35 s -4.52 -7.33 -8.06 -7.86 s -10.22 5.5 -8.12 9.56 c 0 0 2.36 -2.88 4.19 -1.83 s 2.62 3.54 1.18 4.06 s -6.42 0.66 -5.24 5.9 s 4.72 5.76 6.42 5.63 c 0 0 -4.85 -6.16 1.31 -6.81 c 0 0 -1 10.51 8.91 6.83 c 0 0 -3 -1.19 -3.27 -3.82 s 1.57 -3.41 4.58 -3.41 s 4.46 1 4.46 2.62 a 4.08 4.08 0 0 1 -1.44 2.75 s 4.19 1 6 -0.79 s 5.5 -8.91 7.86 -8.65 s -1.44 5.37 -1.44 5.37 s 4.59 0.26 6.16 -1.83 s 3 -6 4.72 -5.76 s 0.26 6.16 0.26 6.16 a 6.24 6.24 0 0 0 5.24 -2.62 c 2.1 -2.88 1.57 -5.63 3.8 -5.5 s 14.94 17.88 23.19 23 s 24.37 10.81 24.56 18.67 s -12.9 15.07 -10.55 22.93 s 14.67 10.74 14.94 17 s -5.63 19.39 -9.56 19 s -0.26 -7.6 -2.62 -8.78 s -11.4 1 -12.31 8 c 0 0 4.72 -2.88 6.29 -1.31 s 2.23 5.37 0.26 5.76 s -10.61 5.18 -1.28 10.09 c 0 0 -0.49 -4.42 3.93 -4 s 2 6.29 5.9 7.66 s 5.7 -0.79 5.7 -0.79 s -2.46 -0.79 -2.36 -2.16 s 0.74 -2.75 2.21 -2.95 s 3 -2.46 3.34 -5.45 s 2.34 -7.09 5.16 -7.61 s 9.1 -1.77 11.27 -5.37 c 0 0 -4.09 0.56 -4 -1.31 s 4 -2 6 -3.54 s 5.21 -5.31 5.9 -7.47 c 0 0 -3.77 1.31 -4.95 -0.26 s 7.86 -8.65 6 -14.15 c 0 0 -1.44 2 -5.11 2.23 s -8.25 -3.28 -9.43 -5.24 s -2.75 -5.24 1.7 -8.78 s 8.12 -6.16 8.52 -7.86 s 0.92 -3.8 1.83 -3.41 s 4.65 4.46 11.33 3.67 s 12.38 -6.88 12 -15.33 s -5.7 -16.11 -12.58 -22 s -18.08 -14.28 -18.6 -18.21 s -0.46 -10.87 0.39 -12.18 s 2.95 -1.64 2.95 0.46 s 1.21 12.94 7.4 17.75 s 10.61 0 10.91 -1.87 c 0 0 -2.36 1.08 -3.44 -1 s 0.39 -18.67 -5.8 -22.3 s -16 -2.16 -17 7.17 s 0.39 18.11 8.52 25.71 s 19.52 17.82 19.78 26.2 s -6.68 8.91 -9.7 4.59 s -3 -8.65 -6.16 -12.32 s -25.94 -20 -28.43 -24.37 s -3.67 -15.07 -3.67 -15.07 s -4.76 0.8 -6.29 0.78 c -2 0 -5.58 -0.33 -5.58 -0.33 s -0.81 7.37 0.47 9.53 C 1002.89 989.54 992.67 986.29 991.49 982 Z" stroke-linecap="round"/>
</g>
		<g transform="matrix(1 0 0 1 -17.53924997945262 51.86978416822103)" id="Layer_1">
<path style="stroke: none; stroke-width: 1; stroke-dasharray: none; stroke-linecap: butt; stroke-dashoffset: 0; stroke-linejoin: miter; stroke-miterlimit: 4; fill: rgb(35,31,32); fill-rule: nonzero; opacity: 1;" transform=" translate(-982.3207500205474, -1051.9250000000002)" d="M 996.41 1022.45 s -14 10.22 -12.77 15.72 s 5.11 9 5.31 12.38 s -13.27 15.72 -19 13.17 s -1.87 -3.8 -1.08 -4.13 s 1.64 -7.14 -2.62 -7.6 s -8.84 0 -10 3.14 c 0 0 4.46 -0.39 5.11 0.92 s 1.44 5.11 -1.18 5.24 s -3.41 -2 -5 -1.7 s -6.94 5.5 -4.85 9.56 c 0 0 4.09 -3.08 6.25 -1.9 s 3.34 2.06 2.65 2.95 s -3.44 3 -2.06 6.09 a 14.92 14.92 0 0 0 4.13 5.11 s 0.29 -6.78 2.65 -6.19 s 1.28 2.46 1.28 2.46 s 3.34 0.59 4.91 -2.16 s 1.32 -3.73 3 -3.73 s 8.82 -1.37 9.8 0.29 s 5.14 2.33 9.73 0.75 c 0 0 -2.36 -1.57 -2 -2.62 s 13.89 1.44 15.2 -1.18 c 0 0 -7.21 -2.75 -5.37 -5.11 s 4.86 1.23 6.81 -1.31 c 0 0 -2.88 -0.13 -2.88 -5.11 s 0.92 -7.6 4.32 -10.61 s 6.42 -5.24 6 -10.74 S 996.41 1022.45 996.41 1022.45 Z" stroke-linecap="round"/>
</g>
		<g transform="matrix(1 0 0 1 -59.722487508024074 -52.835877477327585)" id="Layer_1">
<path style="stroke: none; stroke-width: 1; stroke-dasharray: none; stroke-linecap: butt; stroke-dashoffset: 0; stroke-linejoin: miter; stroke-miterlimit: 4; fill: rgb(35,31,32); fill-rule: nonzero; opacity: 1;" transform=" translate(-940.1375124919759, -947.2193383544516)" d="M 962.8 952 a 34.82 34.82 0 0 1 -10.22 -1.18 c -4.72 -1.44 -16.51 -10.87 -16.25 -14.54 s 0.43 -5.44 2.59 -5.63 s 0.81 -6 -2.59 -7 s -8.9 -0.29 -9.3 1.77 c 0 0 2.36 -0.69 2.85 0.44 s -0.49 3.78 -0.49 3.78 s -2.85 -3.73 -6 -3.78 s -8.35 6.14 -4.62 9.48 c 0 0 2.65 -4.23 4.13 -3.34 s 2.65 3.73 1.08 3.83 s -3.14 -0.29 -3.73 0.79 s -2.16 7.47 3.24 7.17 c 0 0 0.29 -2.16 2.06 -2.36 a 3.43 3.43 0 0 1 3.83 2.85 c 0.49 2.06 -1.87 5 -4.42 3.93 a 11.6 11.6 0 0 0 7.83 6.39 c 5.76 1.31 6.94 1.57 6.81 3.14 s -2.62 2.49 -3.41 1.7 s 2.36 4.33 7.21 5 s 4.32 1.31 4.19 2.09 s -4.06 0.79 -4.06 0.79 s 1.31 4.71 10.48 3.8 C 954 971.16 955.2 956.22 962.8 952 Z" stroke-linecap="round"/>
</g>
		<g transform="matrix(1 0 0 1 0 0)" id="Layer_1">
<path style="stroke: none; stroke-width: 1; stroke-dasharray: none; stroke-linecap: butt; stroke-dashoffset: 0; stroke-linejoin: miter; stroke-miterlimit: 4; fill: rgb(35,31,32); fill-rule: nonzero; opacity: 1;" transform=" translate(-999.86, -1000.0552158317792)" d="M 1120.36 871.77 c -99 0 -115.78 -37.57 -115.93 -37.92 a 5 5 0 0 0 -4.54 -3.13 h -0.1 a 5 5 0 0 0 -4.54 3 c -0.15 0.4 -17.27 38 -115.92 38 a 5 5 0 0 0 -4.93 5 v 168.41 c 0 68.93 118.44 121.62 123.44 123.84 a 4.85 4.85 0 0 0 2 0.42 a 4.67 4.67 0 0 0 2 -0.42 c 5.06 -2.21 123.48 -54.91 123.48 -123.84 V 876.72 a 5 5 0 0 0 -4.93 -5 M 1098 1035.34 c 0 54 -92.71 95.22 -96.66 96.94 a 3.48 3.48 0 0 1 -1.53 0.32 a 3.64 3.64 0 0 1 -1.59 -0.32 c -3.9 -1.71 -96.63 -43 -96.63 -96.94 V 903.5 a 3.88 3.88 0 0 1 3.87 -3.88 c 77.25 0 90.63 -29.42 90.74 -29.74 a 3.92 3.92 0 0 1 3.57 -2.38 h 0.07 a 3.85 3.85 0 0 1 3.56 2.44 c 0.11 0.27 13.23 29.67 90.76 29.67 a 3.87 3.87 0 0 1 3.85 3.88 Z" stroke-linecap="round"/>
</g>
</g>
</g>
</g>
<g style="" id="id_1579858441821" clip-path="url(#CLIPPATH_5)">
<g transform="matrix(2.2222222222222223 0 0 2.2222222222222223 553.2231573740642 524.1444444444444)">
<clipPath id="CLIPPATH_5">
	<rect transform="matrix(1 0 0 1 598.2777777777778 601.6111111111111)" x="-211.11111111111111" y="-550" rx="0" ry="0" width="422.22222222222223" height="1100"/>
</clipPath>
		<text xml:space="preserve" font-family="ABeeZee Regular" font-size="51" font-style="normal" font-weight="normal" style="stroke: none; stroke-width: 0; stroke-dasharray: none; stroke-linecap: butt; stroke-dashoffset: 0; stroke-linejoin: miter; stroke-miterlimit: 4; fill: rgb(17,255,0); fill-rule: nonzero; opacity: 1; white-space: pre;"><tspan x="-49.75042081832886" y="16.021140000000003">Lion</tspan></text>
</g>
</g>
<g id="id_1579858470953" clip-path="url(#CLIPPATH_6)">
<g transform="matrix(0.42168152036079537 0 0 0.42168152036079537 567.9941604173712 764.5613951381843)">
<clipPath id="CLIPPATH_6">
	<rect transform="matrix(1 0 0 1 598.2777777777778 601.6111111111111)" x="-211.11111111111111" y="-550" rx="0" ry="0" width="422.22222222222223" height="1100"/>
</clipPath>
<g style="">
		<g transform="matrix(0.096 0 0 0.096 0 2.842e-14)" id="Layer_x0020_1">
<path style="stroke: none; stroke-width: 1; stroke-dasharray: none; stroke-linecap: butt; stroke-dashoffset: 0; stroke-linejoin: miter; stroke-miterlimit: 4; fill: rgb(0,0,0); fill-rule: nonzero; opacity: 1;" transform=" translate(-4249.642566035305, -5500)" d="M 6579 5557 c -6 -212 -185 -408 -435 -476 c -195 -53 -451 -163 -657 -389 c 17 -15 33 -32 47 -52 c 23 -35 42 -75 53 -121 c 2 -6 3 -11 4 -17 c 1 -3 2 -6 2 -9 l 1 -11 c 1 -7 2 -14 2 -22 c 0 -4 1 -5 1 -7 l 1 -6 l 1 -6 l 1 -3 l 0 -1 l 0 0 c 1 5 -1 -8 -1 -7 l 0 -2 c 0 -5 0 -11 0 -16 c 0 -12 0 -22 -1 -33 c -2 -44 -9 -83 -16 -116 c -7 -33 -15 -60 -21 -81 c -4 -10 -7 -20 -9 -21 l 0 0 l 0 -1 l -1 -3 l -2 -6 l -2 -6 l 0 -1 c 0 2 -1 -6 1 5 l 0 -1 l 0 0 l -1 -1 c -1 -2 -2 -5 -4 -8 c -7 -13 -14 -26 -21 -39 c -8 -15 -16 -32 -24 -51 c -8 -20 -15 -41 -21 -63 c -2 -5 -3 -11 -5 -16 c -1 -6 -2 -11 -3 -17 c -2 -6 -3 -12 -4 -17 c -1 -6 -2 -11 -3 -17 c -2 -12 -3 -22 -4 -33 c -2 -11 -3 -21 -4 -30 c 0 -5 0 -9 -1 -14 c 0 -4 -1 -9 0 -13 c 0 -8 0 -15 0 -22 c 0 -5 0 -11 0 -14 c 0 -3 0 -5 0 -5 c 0 0 -2 0 -5 -1 c -3 0 -8 -2 -14 -3 c -6 -1 -13 -2 -21 -4 c -9 -1 -19 -1 -30 0 c -5 0 -12 0 -18 1 c -6 1 -12 2 -18 3 c -14 1 -27 5 -41 9 c -15 4 -29 11 -45 18 c -15 7 -30 16 -46 26 c -30 21 -61 48 -87 82 c -26 34 -49 75 -65 121 c -15 46 -24 97 -24 150 c 0 13 1 27 2 40 l 0 6 l 0 1 l 1 0 c 2 11 0 4 1 6 l 0 2 l 0 6 l 1 6 l 0 3 l 0 2 l 1 2 c 6 32 11 53 18 74 c 13 43 29 77 44 104 c 16 27 31 48 46 64 c 3 4 7 8 11 11 l 5 6 l 1 0 c 0 2 -3 -11 -1 -6 l 0 1 l 0 0 l 2 3 l 3 5 l 3 5 c 1 1 2 4 3 3 c 1 0 3 0 4 0 l 3 0 l 2 2 c 2 1 4 2 6 4 c 14 11 29 24 42 38 c 14 14 27 29 37 45 c 3 4 5 8 7 12 c 9 -17 16 -35 25 -53 c 8 -21 16 -42 22 -63 c 7 -21 12 -42 17 -63 c 2 -10 4 -20 6 -30 c 2 -11 3 -20 4 -30 c 1 -10 2 -19 3 -29 c 1 -9 1 -18 2 -26 c 0 -9 1 -17 1 -25 c 0 -8 0 -15 0 -22 c -1 -14 -1 -27 -2 -37 c -2 -20 -3 -31 -3 -31 c 0 0 3 11 8 31 c 3 9 6 21 9 35 c 1 8 2 15 4 23 c 1 8 2 16 3 25 c 1 9 3 18 4 27 c 0 10 1 20 1 30 c 1 10 1 21 1 31 c 0 11 1 22 0 33 c -1 23 -2 46 -6 69 c -2 24 -8 47 -12 71 c -6 24 -11 47 -19 70 c -7 23 -17 45 -25 67 c -2 3 -3 6 -5 10 c 2 0 3 1 5 1 c 4 1 8 1 12 2 c 5 0 10 1 15 1 c 3 0 5 -1 8 -1 c 231 271 527 400 750 461 c 215 58 331 220 336 349 c 3 97 -55 170 -162 207 c -168 58 -338 45 -475 13 c -44 -139 -122 -250 -269 -345 l 0 0 c -2 -1 -4 -2 -6 -3 c -35 -23 -74 -44 -117 -65 c -40 -19 -78 -37 -115 -54 c -28 -10 -55 -18 -82 -24 c -113 -28 -226 -28 -337 9 c 74 -42 155 -66 239 -75 c -146 -83 -264 -188 -346 -396 c -31 -78 -69 -146 -111 -205 c -5 -166 28 -415 10 -556 c -1 -9 -3 -17 -4 -25 l -320 -118 l 304 31 c -47 -215 -142 -381 -266 -501 l -356 -34 l 266 -41 c -189 -137 -426 -185 -659 -152 c 0 0 20 -173 -127 -282 c 0 0 -86 286 -622 463 c -75 25 -85 145 -85 145 l -48 12 l -224 162 c -21 7 -29 32 -17 50 l 45 64 l 25 -9 l -9 42 l 52 88 c 8 12 24 14 35 5 c 41 -33 136 -96 177 -1 c 25 57 19 131 -47 186 c -11 9 -23 17 -35 24 l 71 118 l 199 -62 c 56 -19 97 -19 132 -10 l 4 -1 l 23 -2 c 61 -5 122 -6 182 -6 l 90 1 l 45 0 l 21 -1 c 1 -2 1 -4 1 -7 c 0 -10 1 -21 1 -32 c 0 -21 0 -43 -2 -64 c -1 -11 -2 -22 -3 -33 c -1 -10 -2 -21 -4 -32 c -3 -22 -7 -43 -11 -66 c 6 10 11 20 16 30 c 5 10 9 20 14 31 c 8 21 15 42 21 64 c 6 22 10 45 14 68 c 1 11 2 22 3 34 c 1 10 1 20 1 29 c 1 2 1 4 1 5 l 0 22 l -25 4 c -26 3 -52 6 -78 8 c -35 2 -70 3 -104 4 l -90 1 l -22 0 c -33 27 -159 142 -222 352 c -1 3 -1 6 -2 9 c -2 18 -4 35 -6 53 c -1 8 -1 16 -2 24 c 0 10 -1 19 -1 28 c 0 17 -1 34 -1 50 c 0 16 0 31 1 45 c 1 14 1 26 2 38 c 1 11 1 22 3 30 c 1 17 2 27 2 27 c 0 0 -6 -8 -15 -23 c -4 -7 -9 -16 -14 -28 c -1 -3 -3 -6 -4 -9 c -1 -3 -2 -5 -4 -8 c -2 -7 -4 -13 -7 -20 c -2 -7 -5 -15 -7 -22 c -2 -8 -4 -16 -5 -25 c -3 -8 -4 -17 -5 -25 c -2 -9 -3 -17 -4 -25 l -138 76 c -44 31 -84 65 -117 106 c 16 -33 36 -64 58 -93 l -152 34 c -84 8 -173 23 -249 62 c 29 -21 60 -38 93 -53 l -142 9 l -81 -106 c -73 -96 -205 -124 -311 -66 l -9 5 l 26 7 c 25 7 45 26 53 51 l 15 51 c 55 -22 117 -2 148 47 l 30 48 l -22 10 l -14 -20 c -37 -55 -111 -71 -169 -37 c 53 46 94 103 120 167 l 34 82 c 9 22 23 41 43 55 c 32 23 74 31 114 18 l 24 -7 c 31 -10 63 -15 95 -15 l 178 9 c -23 -14 -45 -29 -66 -46 c 78 36 107 52 190 59 l 0 2 l 119 8 c 21 1 41 -2 60 -9 c 28 -10 75 -27 136 -44 c 25 101 64 211 122 331 c 0 0 10 -117 49 -244 c 27 43 57 83 89 121 c 1 -1 2 -2 2 -3 c 9 -17 20 -34 31 -50 c 11 -16 21 -31 33 -45 c 0 -1 1 -2 1 -2 c 12 -16 25 -30 37 -43 c 12 -14 25 -26 37 -38 c 13 -11 25 -21 36 -30 c 11 -10 23 -17 33 -24 c 9 -7 18 -12 25 -17 c 8 -4 14 -7 18 -9 c 4 -3 6 -4 6 -4 c 0 0 -1 2 -2 4 c -3 4 -7 10 -13 19 c -9 14 -23 33 -40 57 c -16 23 -35 49 -55 78 c -10 14 -21 29 -31 44 c -10 15 -21 31 -31 46 c -10 15 -20 31 -30 46 c -4 7 -8 13 -12 19 c -6 9 -12 18 -17 26 c -19 30 -37 58 -51 82 c -4 6 -8 11 -11 17 l -49 134 c -14 51 -22 103 -20 156 c -10 -35 -15 -72 -17 -108 l -93 124 c -58 62 -116 131 -148 210 c 8 -34 21 -68 36 -101 l -102 100 l -130 -27 c -118 -25 -236 40 -278 152 l -4 10 l 24 -11 c 23 -11 51 -10 73 4 l 46 28 c 26 -52 86 -77 142 -60 l 54 17 l -10 22 l -23 -7 c -65 -17 -131 19 -152 82 c 69 1 138 18 200 49 l 79 39 c 21 11 44 17 68 14 c 40 -3 77 -25 99 -61 l 13 -21 c 16 -27 37 -52 62 -73 l 140 -110 c -26 5 -53 8 -80 8 c 83 -23 116 -30 183 -79 l 1 2 l 96 -72 c 16 -13 29 -28 39 -46 c 25 -46 83 -145 172 -254 c 59 30 117 53 171 71 c 11 3 21 6 32 10 c -48 -53 -87 -113 -112 -180 c 58 89 137 153 234 197 c 15 7 31 14 48 21 c 161 29 326 46 445 100 l -126 216 l 1 0 c -50 83 -72 184 -51 279 c -21 -39 -33 -82 -39 -126 l -52 90 c -63 107 -54 241 21 339 l 147 189 c 3 5 7 11 10 17 c 31 49 49 107 44 165 c -7 -32 -20 -62 -39 -89 c -4 11 -10 22 -18 31 l -73 87 c -30 47 -57 99 -67 153 c -2 -24 -1 -50 2 -75 l -73 87 l -131 -26 c -119 -24 -238 42 -279 156 l -4 10 l 24 -11 c 24 -12 52 -10 74 3 l 46 28 c 26 -52 86 -79 143 -62 l 55 17 l -10 22 l -24 -6 c -65 -17 -132 20 -153 84 c 71 0 140 16 203 47 l 79 39 c 19 9 40 15 60 14 c 44 -1 85 -24 108 -63 l 13 -22 c 17 -27 38 -52 63 -74 l 59 -56 c -30 9 -60 15 -91 17 c 81 -25 153 -79 216 -136 l 201 -191 c 44 -42 48 -110 9 -156 l -49 -57 c -73 -86 -59 -214 29 -284 l 1 0 c 1 -2 2 -3 3 -4 c 14 -18 30 -37 49 -56 c 12 -11 25 -22 38 -33 c 9 -7 18 -14 27 -21 c 24 -17 50 -33 78 -48 c 11 -5 22 -11 33 -16 c 3 -2 7 -4 10 -5 c 8 -4 15 -7 22 -10 c 8 -3 15 -6 22 -9 c 30 -13 61 -24 91 -34 c 61 -21 121 -40 176 -62 c 13 -5 27 -10 39 -16 c 13 -5 27 -12 38 -17 c 24 -12 45 -25 64 -39 c 18 -14 33 -29 45 -43 c 12 -15 20 -29 26 -42 c 5 -13 7 -23 9 -31 c 1 -7 1 -11 1 -11 c 0 0 0 4 0 12 c 0 7 -2 18 -5 32 c -4 13 -10 30 -21 47 c -10 17 -25 34 -42 51 c -18 18 -39 34 -62 50 c -12 8 -23 15 -36 23 c -13 7 -26 14 -39 22 c -53 29 -111 56 -168 84 c -28 14 -56 28 -82 43 c -7 4 -13 8 -20 12 c -6 4 -12 7 -19 11 c -12 8 -23 16 -35 24 c -23 16 -44 33 -62 50 c -8 8 -16 15 -23 23 c 169 186 384 327 626 406 c 63 21 118 60 158 111 c 53 49 97 109 111 178 c -14 -25 -32 -47 -53 -67 c 4 13 7 26 9 40 l 11 227 c 9 63 32 128 80 170 c -28 -10 -53 -27 -74 -47 l 6 130 l -115 70 c -104 63 -146 192 -100 304 l 4 9 l 10 -24 c 10 -25 31 -42 57 -48 l 53 -10 c -17 -57 10 -117 63 -142 l 52 -26 l 7 24 l -21 11 c -60 32 -84 104 -56 165 c 52 -47 113 -82 181 -102 l 85 -25 c 22 -6 42 -17 57 -34 c 29 -30 42 -73 34 -116 l -5 -24 c -7 -32 -8 -64 -5 -97 l 16 -230 c -29 32 -64 59 -104 75 c 74 -59 105 -161 116 -253 l 16 -230 c -12 -76 -52 -145 -113 -193 l -19 -15 c -45 -35 -83 -77 -113 -124 c 4 62 19 123 54 171 c -98 -85 -123 -243 -126 -368 c -2 -12 -4 -25 -4 -37 l -11 -171 c -7 -114 -15 -215 -30 -305 c 144 25 313 28 485 -31 c 32 -11 61 -25 88 -41 c 108 -66 169 -173 164 -298 z m -3474 -1939 l 0 0 c -32 28 -80 25 -108 -7 l -14 -16 c -11 -13 -5 -31 10 -36 l 219 -73 l -107 132 z" stroke-linecap="round"/>
</g>
</g>
</g>
</g>
</svg>
