<?xml version="1.0" encoding="utf-8"?>
<!-- Generator: Adobe Illustrator 24.0.1, SVG Export Plug-In . SVG Version: 6.00 Build 0)  -->
<svg version="1.1" id="Layer_1" xmlns="http://www.w3.org/2000/svg" xmlns:xlink="http://www.w3.org/1999/xlink" x="0px" y="0px"
	 viewBox="0 0 208 195.43" style="enable-background:new 0 0 208 195.43;" xml:space="preserve">
<style type="text/css">
	.st0{fill:#EA0029;}
	.st1{fill:#FFFFFF;}
	.st2{fill:#E4032C;}
	.st3{fill:none;stroke:#EA0029;stroke-width:5;stroke-miterlimit:10;}
	.st4{fill:none;stroke:#EA0029;stroke-width:4;stroke-miterlimit:10;}
	.st5{fill:none;stroke:#EA0029;stroke-width:3;stroke-miterlimit:10;}
	.st6{fill:#020203;}
	.st7{fill:none;}
	.st8{fill:#B50E0B;}
	.st9{fill:#8E1913;}
</style>
<g>
	<polygon class="st8" points="116.13,136.65 116.16,135.74 116.03,136.65 	"/>
	<path class="st8" d="M86,110.79v0.14c-0.05,0.52,0.18,0.86,0.67,1.03c0.5,0.17,0.93,0.25,1.31,0.25c0.52,0,0.99-0.11,1.42-0.32
		c0.43-0.21,0.61-0.63,0.57-1.24v-0.14l-1.84-20.72L86,110.79z"/>
	<path class="st8" d="M105.37,130.42l7.08-61.73L72.4,72.73l-0.03,0.25l-6.46,57.79l-0.15-0.03l0,0.01l-13.65,4.6l-0.01,0.12
		l63.47,1.18l-9.43-6.27L105.37,130.42z M100.3,127.25c-0.26,0.24-0.58,0.35-0.96,0.35h-6.39c-0.76,0-1.22-0.39-1.38-1.17
		c-0.17-0.78-0.27-1.64-0.32-2.59c-0.05-0.95-0.17-1.81-0.35-2.59c-0.19-0.78-0.69-1.17-1.49-1.17h-2.84
		c-0.85,0-1.37,0.39-1.56,1.17c-0.19,0.78-0.3,1.64-0.32,2.59c-0.02,0.95-0.12,1.81-0.28,2.59c-0.17,0.78-0.63,1.17-1.38,1.17h-6.1
		c-0.43,0-0.73-0.14-0.92-0.43c-0.19-0.28-0.26-0.61-0.21-0.99v-0.28c0.24-3.88,0.66-7.73,1.28-11.56
		c0.61-3.83,1.14-7.66,1.56-11.49c0.33-2.93,0.71-5.84,1.14-8.73c0.43-2.88,0.95-5.77,1.56-8.66c0-0.14,0.06-0.48,0.18-1.03
		c0.12-0.54,0.27-1.11,0.46-1.7c0.19-0.59,0.38-1.12,0.57-1.6c0.19-0.47,0.35-0.71,0.5-0.71h9.93c0.14,0,0.31,0.25,0.5,0.74
		c0.19,0.5,0.37,1.05,0.53,1.67c0.17,0.62,0.31,1.21,0.43,1.77c0.12,0.57,0.2,0.92,0.25,1.06c0.61,2.84,1.15,5.7,1.6,8.58
		c0.45,2.89,0.86,5.79,1.24,8.73c0.52,3.88,1.11,7.73,1.77,11.56c0.66,3.83,1.11,7.71,1.35,11.63v0.14
		C100.66,126.71,100.56,127.02,100.3,127.25z"/>
	<polygon class="st9" points="65.77,130.74 52.55,128.32 51.82,135.44 52.11,135.35 65.77,130.75 	"/>
	<polygon class="st9" points="72.38,72.98 72.4,72.73 73.88,59.88 73.84,59.9 	"/>
	<path class="st8" d="M148.5,127.35l-10.89,7.14l60.62-12.94l-0.8-51.75l-38.78,0.51l-9.03,56.96L148.5,127.35z M166.25,77.62
		c0-0.45,0.13-0.82,0.4-1.13c0.26-0.3,0.62-0.46,1.07-0.46h13.54c0.37,0,0.68,0.11,0.95,0.34c0.26,0.22,0.4,0.52,0.4,0.88v4.33
		c0,0.33-0.1,0.61-0.3,0.85c-0.2,0.24-0.47,0.37-0.79,0.37h-5.98c-0.45,0-0.84,0.17-1.19,0.52c-0.35,0.35-0.52,0.74-0.52,1.19v5.98
		c0,1.14,0.57,1.71,1.71,1.71h5.12c0.81,0,1.22,0.45,1.22,1.34v3.9c0,0.45-0.11,0.8-0.34,1.07c-0.22,0.27-0.56,0.4-1.01,0.4h-5.49
		c-0.41,0-0.71,0.2-0.92,0.61c-0.2,0.41-0.3,0.77-0.3,1.1v7.69c0,1.14,0.53,1.71,1.59,1.71h6.34c0.37,0,0.66,0.14,0.88,0.43
		c0.22,0.28,0.34,0.59,0.34,0.91v4.03c0,0.33-0.1,0.61-0.31,0.85c-0.2,0.24-0.47,0.37-0.79,0.37h-14.39c-0.37,0-0.66-0.18-0.89-0.55
		c-0.22-0.37-0.33-0.71-0.33-1.04V77.62z"/>
	<polygon class="st9" points="137.61,134.49 148.5,127.35 137.48,128.13 136.75,135.05 	"/>
	<path class="st0" d="M65.77,130.74l0.15,0.03l6.46-57.79l1.46-13.09l0-0.01L9.78,65.52l2.49,55.44l40.28,7.37L65.77,130.74z
		 M48.87,110.16c-0.55,1.29-1.3,2.37-2.26,3.24c-0.96,0.87-2.12,1.53-3.47,1.96c-1.35,0.44-2.84,0.65-4.45,0.65
		c-1.4,0-2.75-0.21-4.05-0.62c-1.31-0.41-2.45-1.02-3.43-1.83c-0.98-0.81-1.77-1.79-2.35-2.94c-0.59-1.15-0.88-2.5-0.88-4.02v-3.01
		c0-0.3,0.13-0.64,0.39-1.01c0.26-0.37,0.57-0.56,0.92-0.56h5.36c0.7,0,1.09,0.37,1.18,1.11c0.09,0.74,0.15,1.57,0.2,2.49
		c0.04,0.92,0.23,1.74,0.56,2.49c0.33,0.74,1.08,1.11,2.26,1.11c0.7,0,1.33-0.26,1.9-0.78c0.57-0.52,0.85-1.13,0.85-1.83
		c0-1.05-0.32-2.17-0.95-3.37c-0.63-1.2-1.4-2.38-2.29-3.53c-0.89-1.15-1.81-2.27-2.75-3.34c-0.94-1.07-1.73-2.02-2.39-2.85
		c-0.74-0.92-1.41-1.79-1.99-2.62c-0.59-0.83-1.11-1.68-1.57-2.55c-0.46-0.87-0.81-1.8-1.05-2.78c-0.24-0.98-0.36-2.08-0.36-3.3
		c0-1.31,0.21-2.61,0.62-3.89c0.41-1.29,1.01-2.45,1.8-3.5c0.79-1.05,1.74-1.89,2.88-2.52c1.13-0.63,2.42-0.95,3.86-0.95h3.4
		c1.31,0,2.5,0.25,3.56,0.75c1.07,0.5,1.96,1.18,2.68,2.03c0.72,0.85,1.28,1.83,1.67,2.94c0.39,1.11,0.59,2.3,0.59,3.56v2.75
		c0,0.48-0.14,0.88-0.43,1.21c-0.28,0.33-0.67,0.49-1.14,0.49h-4.71c-0.79,0-1.25-0.36-1.41-1.08c-0.15-0.72-0.26-1.51-0.33-2.39
		c-0.07-0.87-0.23-1.67-0.49-2.39c-0.26-0.72-0.92-1.08-1.96-1.08c-0.79,0-1.44,0.26-1.96,0.79c-0.52,0.52-0.78,1.18-0.78,1.96
		c0,0.92,0.32,1.95,0.95,3.11c0.63,1.16,1.38,2.31,2.26,3.47c0.87,1.16,1.78,2.25,2.71,3.27c0.94,1.02,1.71,1.89,2.32,2.58
		c0.87,1,1.63,1.94,2.29,2.81c0.65,0.87,1.21,1.78,1.67,2.71c0.46,0.94,0.81,1.95,1.05,3.04c0.24,1.09,0.36,2.33,0.36,3.73
		C49.69,107.38,49.41,108.88,48.87,110.16z"/>
	<polygon class="st9" points="106.14,130.37 115.57,136.64 115.98,136.92 116.03,136.65 116.16,135.74 117.1,129.59 	"/>
	<path class="st0" d="M148.5,127.35l1.12-0.08l9.03-56.96l1.87-11.8l-47.59,6.07l-0.47,4.12l-7.08,61.73l0.77-0.05l10.96-0.78
		l20.38-1.45L148.5,127.35z M123.04,116.14c-0.24-0.35-0.35-0.75-0.35-1.17V71.33c0-0.47,0.17-0.9,0.5-1.28
		c0.33-0.38,0.73-0.57,1.21-0.57h5.53c0.47,0,0.85,0.17,1.14,0.5c0.28,0.33,0.43,0.71,0.43,1.14v35.9c0,1.33,0.61,1.99,1.84,1.99
		h6.67c0.47,0,0.83,0.15,1.06,0.46c0.24,0.31,0.35,0.67,0.35,1.1v4.54c0,0.43-0.13,0.79-0.39,1.1c-0.26,0.31-0.6,0.46-1.03,0.46
		H124.1C123.63,116.67,123.27,116.49,123.04,116.14z"/>
	<path class="st1" d="M48.28,98.91c-0.46-0.94-1.01-1.84-1.67-2.71c-0.65-0.87-1.42-1.81-2.29-2.81c-0.61-0.7-1.39-1.56-2.32-2.58
		c-0.94-1.02-1.84-2.11-2.71-3.27c-0.87-1.15-1.62-2.31-2.26-3.47c-0.63-1.15-0.95-2.19-0.95-3.11c0-0.79,0.26-1.44,0.78-1.96
		c0.52-0.52,1.18-0.79,1.96-0.79c1.05,0,1.7,0.36,1.96,1.08c0.26,0.72,0.43,1.52,0.49,2.39c0.07,0.87,0.17,1.67,0.33,2.39
		c0.15,0.72,0.62,1.08,1.41,1.08h4.71c0.48,0,0.86-0.16,1.14-0.49c0.28-0.33,0.43-0.73,0.43-1.21V80.7c0-1.26-0.2-2.45-0.59-3.56
		c-0.39-1.11-0.95-2.09-1.67-2.94c-0.72-0.85-1.61-1.53-2.68-2.03c-1.07-0.5-2.26-0.75-3.56-0.75h-3.4c-1.44,0-2.73,0.32-3.86,0.95
		c-1.13,0.63-2.09,1.47-2.88,2.52c-0.78,1.05-1.38,2.21-1.8,3.5c-0.41,1.29-0.62,2.58-0.62,3.89c0,1.22,0.12,2.32,0.36,3.3
		c0.24,0.98,0.59,1.91,1.05,2.78c0.46,0.87,0.98,1.72,1.57,2.55c0.59,0.83,1.25,1.7,1.99,2.62c0.65,0.83,1.45,1.78,2.39,2.85
		c0.94,1.07,1.85,2.18,2.75,3.34c0.89,1.16,1.66,2.33,2.29,3.53c0.63,1.2,0.95,2.32,0.95,3.37c0,0.7-0.28,1.31-0.85,1.83
		c-0.57,0.52-1.2,0.78-1.9,0.78c-1.18,0-1.93-0.37-2.26-1.11c-0.33-0.74-0.51-1.57-0.56-2.49c-0.04-0.92-0.11-1.74-0.2-2.49
		c-0.09-0.74-0.48-1.11-1.18-1.11h-5.36c-0.35,0-0.65,0.19-0.92,0.56c-0.26,0.37-0.39,0.71-0.39,1.01v3.01
		c0,1.53,0.29,2.87,0.88,4.02c0.59,1.16,1.37,2.14,2.35,2.94c0.98,0.81,2.13,1.42,3.43,1.83c1.31,0.41,2.66,0.62,4.05,0.62
		c1.61,0,3.1-0.22,4.45-0.65c1.35-0.44,2.51-1.09,3.47-1.96c0.96-0.87,1.71-1.95,2.26-3.24c0.54-1.29,0.82-2.78,0.82-4.48
		c0-1.4-0.12-2.64-0.36-3.73C49.09,100.86,48.74,99.85,48.28,98.91z"/>
	<path class="st1" d="M100.61,126.19c-0.24-3.93-0.69-7.8-1.35-11.63c-0.66-3.83-1.25-7.69-1.77-11.56
		c-0.38-2.93-0.79-5.84-1.24-8.73c-0.45-2.88-0.98-5.75-1.6-8.58c-0.05-0.14-0.13-0.5-0.25-1.06c-0.12-0.57-0.26-1.16-0.43-1.77
		c-0.17-0.61-0.34-1.17-0.53-1.67c-0.19-0.5-0.35-0.74-0.5-0.74h-9.93c-0.14,0-0.31,0.24-0.5,0.71c-0.19,0.47-0.38,1.01-0.57,1.6
		c-0.19,0.59-0.34,1.16-0.46,1.7c-0.12,0.54-0.18,0.89-0.18,1.03c-0.62,2.89-1.14,5.77-1.56,8.66c-0.43,2.89-0.8,5.79-1.14,8.73
		c-0.43,3.83-0.95,7.66-1.56,11.49c-0.62,3.83-1.04,7.69-1.28,11.56v0.28c-0.05,0.38,0.02,0.71,0.21,0.99
		c0.19,0.28,0.5,0.43,0.92,0.43h6.1c0.76,0,1.22-0.39,1.38-1.17c0.16-0.78,0.26-1.64,0.28-2.59c0.02-0.95,0.13-1.81,0.32-2.59
		c0.19-0.78,0.71-1.17,1.56-1.17h2.84c0.8,0,1.3,0.39,1.49,1.17c0.19,0.78,0.31,1.64,0.35,2.59c0.05,0.95,0.15,1.81,0.32,2.59
		c0.17,0.78,0.63,1.17,1.38,1.17h6.39c0.38,0,0.7-0.12,0.96-0.35c0.26-0.24,0.37-0.54,0.32-0.92V126.19z M89.97,110.65
		c0.05,0.62-0.14,1.03-0.57,1.24c-0.43,0.21-0.9,0.32-1.42,0.32c-0.38,0-0.82-0.08-1.31-0.25c-0.5-0.17-0.72-0.51-0.67-1.03v-0.14
		l2.13-21l1.84,20.72V110.65z"/>
	<path class="st1" d="M139.99,116.67c0.43,0,0.77-0.15,1.03-0.46c0.26-0.31,0.39-0.67,0.39-1.1v-4.54c0-0.43-0.12-0.79-0.35-1.1
		c-0.24-0.31-0.59-0.46-1.06-0.46h-6.67c-1.23,0-1.84-0.66-1.84-1.99v-35.9c0-0.43-0.14-0.8-0.43-1.14c-0.28-0.33-0.66-0.5-1.14-0.5
		h-5.53c-0.47,0-0.88,0.19-1.21,0.57c-0.33,0.38-0.5,0.8-0.5,1.28v43.63c0,0.43,0.12,0.82,0.35,1.17c0.24,0.35,0.59,0.53,1.06,0.53
		H139.99z"/>
	<path class="st1" d="M167.47,116.59h14.39c0.33,0,0.59-0.12,0.79-0.37c0.2-0.24,0.31-0.53,0.31-0.85v-4.03
		c0-0.33-0.11-0.63-0.34-0.91c-0.22-0.28-0.52-0.43-0.88-0.43h-6.34c-1.06,0-1.59-0.57-1.59-1.71v-7.69c0-0.32,0.1-0.69,0.3-1.1
		c0.2-0.41,0.51-0.61,0.92-0.61h5.49c0.45,0,0.78-0.13,1.01-0.4c0.22-0.26,0.34-0.62,0.34-1.07v-3.9c0-0.89-0.41-1.34-1.22-1.34
		h-5.12c-1.14,0-1.71-0.57-1.71-1.71v-5.98c0-0.45,0.17-0.84,0.52-1.19c0.35-0.35,0.74-0.52,1.19-0.52h5.98
		c0.33,0,0.59-0.12,0.79-0.37c0.2-0.24,0.3-0.53,0.3-0.85v-4.33c0-0.37-0.13-0.66-0.4-0.88c-0.27-0.22-0.58-0.34-0.95-0.34h-13.54
		c-0.45,0-0.8,0.15-1.07,0.46c-0.27,0.31-0.4,0.68-0.4,1.13V115c0,0.33,0.11,0.67,0.33,1.04
		C166.81,116.41,167.11,116.59,167.47,116.59z"/>
</g>
</svg>
