<?xml version="1.0" encoding="utf-8"?>
<!-- Generator: Adobe Illustrator 24.0.1, SVG Export Plug-In . SVG Version: 6.00 Build 0)  -->
<svg version="1.1" id="Layer_1" xmlns="http://www.w3.org/2000/svg" xmlns:xlink="http://www.w3.org/1999/xlink" x="0px" y="0px"
	 viewBox="0 0 230.71 216.76" style="enable-background:new 0 0 230.71 216.76;" xml:space="preserve">
<style type="text/css">
	.st0{fill:#EA0029;}
	.st1{fill:#FFFFFF;}
	.st2{fill:#E4032C;}
	.st3{fill:none;stroke:#EA0029;stroke-width:5;stroke-miterlimit:10;}
	.st4{fill:none;stroke:#EA0029;stroke-width:4;stroke-miterlimit:10;}
	.st5{fill:none;stroke:#EA0029;stroke-width:3;stroke-miterlimit:10;}
	.st6{fill:#020203;}
	.st7{fill:none;}
	.st8{fill:#B50E0B;}
	.st9{fill:#8E1913;}
</style>
<rect x="22.02" y="15.05" class="st4" width="186.67" height="186.67"/>
<g>
	<path class="st0" d="M48.25,57.72h5.01v18.22h11.36v4.56H48.25V57.72z"/>
	<path class="st0" d="M68.63,57.72h5.01V80.5h-5.01V57.72z"/>
	<path class="st0" d="M79.35,57.72h5.4l5.99,9.63l5.99-9.63h5.4V80.5h-4.98V65.63l-6.41,9.73h-0.13l-6.35-9.63V80.5h-4.91V57.72z"/>
	<path class="st0" d="M107.84,57.72h5.01V80.5h-5.01V57.72z"/>
	<path class="st0" d="M123.85,62.34h-6.93v-4.62h18.87v4.62h-6.93V80.5h-5.01V62.34z"/>
	<path class="st0" d="M139.65,57.72h17.18v4.46h-12.2v4.62h10.74v4.46h-10.74v4.78h12.37v4.46h-17.35V57.72z"/>
	<path class="st0" d="M161.46,57.72h8.88c7.16,0,12.11,4.91,12.11,11.33v0.06c0,6.41-4.95,11.39-12.11,11.39h-8.88V57.72z
		 M166.48,62.25v13.73h3.87c4.1,0,6.87-2.77,6.87-6.8v-0.06c0-4.04-2.77-6.87-6.87-6.87H166.48z"/>
	<path class="st0" d="M81.84,101.42H74.9v-4.62h18.87v4.62h-6.93v18.16h-5.01V101.42z"/>
	<path class="st0" d="M97.86,96.79h5.01v22.78h-5.01V96.79z"/>
	<path class="st0" d="M108.57,96.79h5.4l5.99,9.63l5.99-9.63h5.4v22.78h-4.98V104.7l-6.41,9.73h-0.13l-6.35-9.63v14.78h-4.91V96.79z
		"/>
	<path class="st0" d="M136.83,96.79h17.18v4.46h-12.2v4.62h10.74v4.46h-10.74v4.78h12.37v4.46h-17.35V96.79z"/>
	<path class="st0" d="M58.71,147.32v-0.06c0-6.48,5.11-11.78,12.14-11.78c7.03,0,12.07,5.24,12.07,11.71v0.07
		c0,6.48-5.11,11.78-12.14,11.78C63.75,159.04,58.71,153.8,58.71,147.32z M77.68,147.32v-0.06c0-3.91-2.86-7.16-6.9-7.16
		c-4.03,0-6.83,3.19-6.83,7.09v0.07c0,3.91,2.86,7.16,6.9,7.16C74.88,154.42,77.68,151.23,77.68,147.32z"/>
	<path class="st0" d="M87.39,135.86h17.35v4.56H92.4v4.85h10.87v4.55H92.4v8.82h-5.01V135.86z"/>
	<path class="st0" d="M108.75,135.86h17.35v4.56h-12.33v4.85h10.87v4.55h-10.87v8.82h-5.01V135.86z"/>
	<path class="st0" d="M130.11,135.86h17.18v4.46h-12.2v4.62h10.74v4.46h-10.74v4.79h12.37v4.46h-17.35V135.86z"/>
	<path class="st0" d="M151.92,135.86h10.41c2.9,0,5.14,0.81,6.64,2.31c1.27,1.27,1.95,3.06,1.95,5.21v0.07
		c0,3.68-1.99,5.99-4.88,7.06l5.57,8.13h-5.86l-4.88-7.29h-3.94v7.29h-5.01V135.86z M162.01,146.93c2.44,0,3.84-1.3,3.84-3.22v-0.06
		c0-2.15-1.5-3.26-3.94-3.26h-4.98v6.54H162.01z"/>
</g>
</svg>
