<?xml version="1.0" encoding="utf-8"?>
<!-- Generator: Adobe Illustrator 24.0.1, SVG Export Plug-In . SVG Version: 6.00 Build 0)  -->
<svg version="1.1" id="Layer_1" xmlns="http://www.w3.org/2000/svg" xmlns:xlink="http://www.w3.org/1999/xlink" x="0px" y="0px"
	 viewBox="0 0 208 195.43" style="enable-background:new 0 0 208 195.43;" xml:space="preserve">
<style type="text/css">
	.st0{fill:#EA0029;}
	.st1{fill:#FFFFFF;}
	.st2{fill:#E4032C;}
	.st3{fill:none;stroke:#EA0029;stroke-width:5;stroke-miterlimit:10;}
	.st4{fill:none;stroke:#EA0029;stroke-width:4;stroke-miterlimit:10;}
	.st5{fill:none;stroke:#EA0029;stroke-width:3;stroke-miterlimit:10;}
	.st6{fill:#020203;}
	.st7{fill:none;}
	.st8{fill:#B50E0B;}
	.st9{fill:#8E1913;}
</style>
<g>
	<polygon class="st0" points="194.67,132.48 17.8,186.13 17.8,56.94 194.67,3.29 	"/>
	<g>
		<path class="st1" d="M53.88,113.96V64.53l12.88-3.99v18.14l7.89-2.44V58.1l12.88-3.99v49.42l-12.88,3.99V87.17l-7.89,2.44v20.35
			L53.88,113.96z"/>
		<path class="st1" d="M92.16,77.39c0-9.32,1.32-16.34,3.95-21.05c2.63-4.71,7.2-8.08,13.71-10.09c6.51-2.02,11.08-1.48,13.71,1.6
			c2.63,3.09,3.95,9.29,3.95,18.61c0,9.32-1.32,16.34-3.95,21.05c-2.63,4.71-7.2,8.08-13.71,10.09c-6.51,2.02-11.08,1.48-13.71-1.6
			C93.48,92.91,92.16,86.71,92.16,77.39z M105.45,73.27c0,6.97,0.23,11.4,0.69,13.28c0.55,2.14,1.78,2.91,3.67,2.32
			c1.89-0.59,3.11-2.12,3.67-4.6c0.46-2.17,0.69-6.74,0.69-13.71c0-6.97-0.23-11.4-0.69-13.28c-0.55-2.14-1.78-2.91-3.67-2.32
			c-1.89,0.59-3.11,2.12-3.67,4.6C105.68,61.73,105.45,66.31,105.45,73.27z"/>
		<path class="st1" d="M138.61,87.72V49.23l-9.69,3V41.29l32.26-9.99v10.94l-9.69,3v38.49L138.61,87.72z"/>
		<path class="st1" d="M34.76,167.65v-35.74l13.51-4.18c4.84-1.5,8.07-0.7,9.71,2.4c1.07,2.07,1.6,6.06,1.6,11.97
			s-0.53,10.23-1.6,12.96c-1.64,4.11-4.87,6.91-9.71,8.41L34.76,167.65z M44.07,135.74v22.32l1.82-0.56c1.54-0.48,2.64-1.5,3.3-3.07
			c0.49-1.19,0.75-2.79,0.79-4.8c0,3.37,0,1.85,0-4.55s0-7.92,0-4.55c-0.03-1.99-0.3-3.43-0.79-4.31c-0.66-1.16-1.76-1.51-3.3-1.03
			L44.07,135.74z"/>
		<path class="st1" d="M63.49,158.75v-35.74l21.17-6.56v7.61l-11.86,3.67v6.11l11.11-3.44v7.31l-11.11,3.44v7.11l12.31-3.81v7.61
			L63.49,158.75z"/>
		<path class="st1" d="M85.66,151.89l8.71-38.43l11.71-3.63l8.71,33.04l-9.91,3.07l-0.95-5.96l-7.41,2.29l-0.95,6.55L85.66,151.89z
			 M102.83,133.31l-2.55-14.37l-0.1,0.03l-2.55,15.96L102.83,133.31z"/>
		<path class="st1" d="M116.34,142.39v-35.74l9.31-2.88v28.13l11.46-3.55v7.61L116.34,142.39z"/>
		<path class="st1" d="M162.14,102.78l-8.71,2.7v-0.85c0-2.57-0.88-3.58-2.65-3.03c-0.93,0.29-1.65,0.82-2.15,1.59
			c-0.5,0.77-0.75,1.59-0.75,2.46c0,1.84,1.31,2.95,3.94,3.33c4.32,0.63,6.75,1.06,7.28,1.3c2.63,1.16,3.94,3.6,3.94,7.34
			c0,7.34-4.21,12.32-12.64,14.92c-4,1.24-6.96,1.4-8.89,0.5c-2.06-1-3.1-3.28-3.1-6.85v-1.25l9.01-2.79V123
			c0,2.77,1.01,3.84,3.03,3.22c0.93-0.29,1.65-0.84,2.18-1.65c0.53-0.81,0.79-1.72,0.79-2.72c0-1.87-1.26-2.98-3.79-3.33
			c-4.22-0.66-6.55-1.09-6.98-1.29c-2.53-1.09-3.79-3.45-3.79-7.08c0-7.44,3.9-12.37,11.71-14.79c4.04-1.25,6.97-1.28,8.81-0.1
			C161.22,96.43,162.14,98.94,162.14,102.78z"/>
		<path class="st1" d="M168.64,115.83l-0.95-13.12V90.75l8.71-2.7v11.96l-1.05,13.74L168.64,115.83z M167.99,126.39v-7.91l8.41-2.6
			v7.91L167.99,126.39z"/>
	</g>
</g>
</svg>
