<?xml version="1.0" encoding="utf-8"?>
<!-- Generator: Adobe Illustrator 24.0.1, SVG Export Plug-In . SVG Version: 6.00 Build 0)  -->
<svg version="1.1" id="Layer_1" xmlns="http://www.w3.org/2000/svg" xmlns:xlink="http://www.w3.org/1999/xlink" x="0px" y="0px"
	 viewBox="0 0 216 200" style="enable-background:new 0 0 216 200;" xml:space="preserve">
<style type="text/css">
	.st0{fill:#EA0029;}
	.st1{fill:#FFFFFF;}
	.st2{fill:#E4032C;}
	.st3{fill:none;stroke:#EA0029;stroke-width:5;stroke-miterlimit:10;}
	.st4{fill:none;stroke:#EA0029;stroke-width:4;stroke-miterlimit:10;}
	.st5{fill:none;stroke:#EA0029;stroke-width:3;stroke-miterlimit:10;}
	.st6{fill:#020203;}
	.st7{fill:none;}
	.st8{fill:#B50E0B;}
	.st9{fill:#8E1913;}
</style>
<g>
	<path class="st0" d="M177.05,44.62c-47.94,3.23-70.01-24.23-70.01-24.23C83.43,49.5,31.88,44.25,31.88,44.25
		c-5.92,86.69,73.02,140.92,73.02,140.92C195.89,129.16,177.05,44.62,177.05,44.62z M104.93,161.25c0,0-56.19-36.69-51.98-98.23
		c0,0,45.49-4.58,53.51-18.71c0,0,15.69,19.48,49.7,17.2C156.15,61.5,169.52,121.49,104.93,161.25z"/>
	<g>
		<g>
			<path class="st0" d="M90.47,91.01c0,0.94-0.13,1.84-0.38,2.7c-0.25,0.86-0.62,1.62-1.1,2.28c-0.49,0.66-1.1,1.18-1.86,1.57
				c-0.75,0.39-1.64,0.59-2.68,0.59H76.1c-0.22,0-0.42-0.11-0.59-0.33c-0.17-0.22-0.26-0.42-0.26-0.61V67.94
				c0-0.22,0.12-0.45,0.35-0.68c0.24-0.24,0.46-0.35,0.68-0.35h5.92c1.32,0,2.46,0.22,3.43,0.66c0.97,0.44,1.78,1.05,2.44,1.83
				c0.66,0.78,1.14,1.71,1.46,2.77C89.85,73.24,90,74.4,90,75.65c0,1.22-0.22,2.33-0.66,3.34c-0.44,1-1.19,1.87-2.25,2.58
				c0.5,0.34,0.95,0.76,1.36,1.25c0.4,0.49,0.76,1.02,1.06,1.6c0.3,0.58,0.53,1.18,0.7,1.81c0.17,0.63,0.26,1.24,0.26,1.83V91.01z
				 M84.37,74.62c0-0.69-0.16-1.33-0.49-1.93c-0.33-0.59-0.88-0.89-1.67-0.89c-0.19,0-0.41,0.1-0.66,0.3
				c-0.25,0.21-0.38,0.42-0.38,0.64v5.45c0,0.25,0.14,0.48,0.42,0.7c0.28,0.22,0.55,0.33,0.8,0.33c0.78,0,1.31-0.27,1.57-0.8
				c0.27-0.53,0.4-1.14,0.4-1.83V74.62z M84.55,88.57c0-0.34-0.02-0.78-0.05-1.29c-0.03-0.52-0.12-1.01-0.26-1.48
				c-0.14-0.47-0.36-0.87-0.66-1.2c-0.3-0.33-0.7-0.49-1.2-0.49c-0.25,0-0.52,0.09-0.8,0.26c-0.28,0.17-0.42,0.4-0.42,0.68v7.38
				c0,0.13,0.07,0.31,0.21,0.57c0.14,0.25,0.29,0.37,0.45,0.37c0.57,0,1.03-0.16,1.39-0.49c0.36-0.33,0.64-0.75,0.85-1.24
				c0.2-0.5,0.34-1.03,0.4-1.57C84.52,89.5,84.55,89.01,84.55,88.57z"/>
			<path class="st0" d="M105.69,97.87c-0.16,0.19-0.36,0.28-0.61,0.28H94c-0.28,0-0.51-0.14-0.68-0.42
				c-0.17-0.28-0.26-0.55-0.26-0.8v-28.8c0-0.34,0.1-0.63,0.3-0.87c0.2-0.24,0.48-0.35,0.82-0.35h10.43c0.28,0,0.53,0.09,0.73,0.26
				c0.2,0.17,0.31,0.4,0.31,0.68v3.33c0,0.25-0.08,0.47-0.24,0.66c-0.16,0.19-0.36,0.28-0.61,0.28h-4.6c-0.35,0-0.65,0.13-0.92,0.4
				c-0.27,0.27-0.4,0.57-0.4,0.92v4.6c0,0.88,0.44,1.32,1.31,1.32h3.95c0.63,0,0.94,0.34,0.94,1.03v3.01c0,0.35-0.09,0.62-0.26,0.82
				c-0.17,0.2-0.43,0.3-0.78,0.3h-4.23c-0.31,0-0.55,0.16-0.7,0.47c-0.16,0.31-0.24,0.6-0.24,0.85v5.92c0,0.87,0.4,1.31,1.22,1.31
				h4.89c0.28,0,0.51,0.11,0.68,0.33c0.17,0.22,0.26,0.45,0.26,0.7v3.1C105.93,97.46,105.85,97.68,105.69,97.87z"/>
			<path class="st0" d="M123.59,91.2c0,1.22-0.19,2.29-0.59,3.22c-0.39,0.93-0.93,1.7-1.62,2.33c-0.69,0.63-1.52,1.1-2.49,1.41
				c-0.97,0.31-2.03,0.47-3.19,0.47c-1,0-1.97-0.15-2.91-0.45c-0.94-0.3-1.76-0.74-2.46-1.32c-0.71-0.58-1.27-1.28-1.69-2.11
				c-0.42-0.83-0.63-1.79-0.63-2.89V89.7c0-0.22,0.1-0.46,0.28-0.73c0.19-0.26,0.4-0.4,0.66-0.4h3.85c0.5,0,0.78,0.27,0.85,0.8
				c0.06,0.53,0.11,1.13,0.14,1.79c0.03,0.66,0.16,1.26,0.4,1.78c0.24,0.53,0.78,0.8,1.62,0.8c0.5,0,0.95-0.19,1.36-0.56
				c0.41-0.38,0.61-0.81,0.61-1.31c0-0.75-0.23-1.56-0.68-2.42c-0.46-0.86-1-1.71-1.64-2.54c-0.64-0.83-1.3-1.63-1.97-2.4
				c-0.67-0.77-1.25-1.45-1.72-2.04c-0.53-0.66-1.01-1.28-1.43-1.88c-0.43-0.59-0.8-1.2-1.13-1.83c-0.33-0.62-0.58-1.29-0.75-2
				c-0.17-0.7-0.26-1.5-0.26-2.37c0-0.94,0.15-1.87,0.45-2.79c0.3-0.92,0.73-1.76,1.29-2.51c0.56-0.75,1.25-1.35,2.07-1.81
				c0.81-0.45,1.74-0.68,2.77-0.68h2.44c0.94,0,1.79,0.18,2.56,0.54c0.77,0.36,1.41,0.84,1.93,1.46c0.52,0.61,0.92,1.32,1.2,2.11
				c0.28,0.8,0.42,1.65,0.42,2.56v1.97c0,0.35-0.1,0.63-0.31,0.87c-0.21,0.23-0.48,0.35-0.82,0.35h-3.38c-0.57,0-0.9-0.26-1.01-0.78
				c-0.11-0.52-0.19-1.09-0.23-1.72c-0.05-0.63-0.17-1.2-0.35-1.71c-0.19-0.52-0.66-0.78-1.41-0.78c-0.56,0-1.03,0.19-1.41,0.56
				c-0.37,0.37-0.56,0.84-0.56,1.41c0,0.66,0.23,1.4,0.68,2.23c0.45,0.83,0.99,1.66,1.62,2.49c0.63,0.83,1.28,1.61,1.95,2.35
				c0.67,0.74,1.23,1.35,1.67,1.86c0.63,0.72,1.18,1.39,1.64,2.02c0.47,0.63,0.87,1.28,1.2,1.95c0.33,0.67,0.58,1.4,0.75,2.18
				C123.51,89.31,123.59,90.2,123.59,91.2z"/>
			<path class="st0" d="M138.09,71.84c-0.17,0.16-0.38,0.26-0.61,0.3c-0.24,0.05-0.48,0.06-0.75,0.05
				c-0.27-0.02-0.51-0.03-0.73-0.03c-0.34,0-0.68,0.05-1.01,0.14c-0.33,0.09-0.49,0.36-0.49,0.8v24.1c0,0.34-0.13,0.59-0.4,0.73
				c-0.27,0.14-0.54,0.21-0.82,0.21h-3.48c-0.31,0-0.59-0.1-0.85-0.31c-0.25-0.2-0.38-0.48-0.38-0.82V73.11
				c0-0.44-0.21-0.71-0.61-0.8c-0.41-0.09-0.85-0.16-1.32-0.19c-0.47-0.03-0.91-0.1-1.32-0.21c-0.41-0.11-0.61-0.4-0.61-0.87v-3.01
				c0-0.38,0.12-0.66,0.35-0.85c0.23-0.19,0.52-0.28,0.87-0.28h11.27c0.34,0,0.62,0.09,0.82,0.26c0.2,0.17,0.31,0.43,0.31,0.77v3.19
				C138.34,71.45,138.26,71.69,138.09,71.84z"/>
		</g>
		<g>
			<path class="st0" d="M97.35,125.39c0,0.91-0.12,1.77-0.36,2.6c-0.24,0.83-0.6,1.56-1.06,2.2c-0.47,0.63-1.06,1.14-1.79,1.52
				c-0.72,0.38-1.58,0.57-2.58,0.57h-8.06c-0.21,0-0.4-0.1-0.57-0.32c-0.17-0.21-0.25-0.41-0.25-0.59v-28.22
				c0-0.21,0.11-0.43,0.34-0.66c0.23-0.23,0.44-0.34,0.66-0.34h5.71c1.27,0,2.37,0.21,3.31,0.63c0.94,0.42,1.72,1.01,2.36,1.77
				c0.63,0.75,1.1,1.65,1.4,2.67c0.3,1.03,0.45,2.14,0.45,3.35c0,1.18-0.21,2.25-0.63,3.22c-0.42,0.97-1.15,1.8-2.18,2.49
				c0.48,0.33,0.92,0.73,1.31,1.2c0.39,0.47,0.73,0.98,1.02,1.54c0.29,0.56,0.52,1.14,0.68,1.74c0.17,0.6,0.25,1.19,0.25,1.77
				V125.39z M91.47,109.58c0-0.66-0.16-1.28-0.48-1.86c-0.32-0.57-0.85-0.86-1.61-0.86c-0.18,0-0.39,0.1-0.63,0.3
				c-0.24,0.19-0.36,0.4-0.36,0.61v5.26c0,0.24,0.14,0.47,0.41,0.68c0.27,0.21,0.53,0.32,0.77,0.32c0.75,0,1.26-0.26,1.52-0.77
				c0.26-0.51,0.38-1.1,0.38-1.77V109.58z M91.65,123.03c0-0.33-0.01-0.75-0.04-1.24c-0.03-0.5-0.11-0.98-0.25-1.43
				c-0.14-0.45-0.35-0.84-0.63-1.15c-0.29-0.32-0.67-0.48-1.15-0.48c-0.24,0-0.5,0.08-0.77,0.25c-0.27,0.17-0.41,0.38-0.41,0.66
				v7.11c0,0.12,0.07,0.3,0.21,0.54c0.13,0.24,0.28,0.36,0.43,0.36c0.54,0,0.99-0.16,1.34-0.48c0.35-0.32,0.62-0.72,0.81-1.2
				c0.2-0.48,0.33-0.99,0.39-1.52C91.62,123.93,91.65,123.45,91.65,123.03z"/>
			<path class="st0" d="M113.98,128.62c-0.39,0.86-0.92,1.59-1.58,2.2c-0.67,0.6-1.44,1.07-2.33,1.4c-0.89,0.33-1.85,0.5-2.88,0.5
				c-1.03,0-1.99-0.17-2.87-0.52c-0.89-0.35-1.67-0.83-2.33-1.45c-0.67-0.62-1.19-1.36-1.56-2.22c-0.38-0.86-0.57-1.82-0.57-2.88
				v-22.33c0-0.79,0.39-1.18,1.18-1.18h3.35c0.3,0,0.56,0.07,0.77,0.2c0.21,0.13,0.32,0.37,0.32,0.7v21.51
				c0,0.33,0.01,0.69,0.02,1.09c0.01,0.39,0.08,0.75,0.18,1.07c0.1,0.32,0.29,0.58,0.54,0.79c0.26,0.21,0.61,0.32,1.07,0.32
				c0.42,0,0.75-0.11,0.97-0.32c0.23-0.21,0.39-0.48,0.48-0.79c0.09-0.32,0.14-0.66,0.16-1.04c0.01-0.38,0.02-0.72,0.02-1.02v-21.6
				c0-0.33,0.11-0.57,0.34-0.7c0.23-0.14,0.48-0.2,0.75-0.2h3.49c0.72,0,1.09,0.33,1.09,1v22.6
				C114.57,126.8,114.37,127.76,113.98,128.62z"/>
			<path class="st0" d="M130.58,104.39c-0.14,0.47-0.28,0.95-0.43,1.43c-0.45,1.81-0.98,3.62-1.58,5.44
				c-0.15,0.45-0.34,1.05-0.57,1.79c-0.23,0.74-0.45,1.51-0.68,2.31c-0.23,0.8-0.42,1.58-0.59,2.33c-0.16,0.75-0.25,1.36-0.25,1.81
				v11.96c0,0.36-0.12,0.59-0.36,0.68c-0.24,0.09-0.51,0.14-0.82,0.14h-3.35c-0.3,0-0.56-0.05-0.77-0.16
				c-0.21-0.11-0.32-0.32-0.32-0.66V119.5c0-0.42-0.08-1-0.25-1.74c-0.17-0.74-0.36-1.51-0.59-2.31c-0.23-0.8-0.46-1.57-0.7-2.31
				c-0.24-0.74-0.42-1.34-0.54-1.79c-0.06-0.24-0.22-0.8-0.48-1.68c-0.26-0.88-0.52-1.8-0.79-2.79c-0.27-0.98-0.52-1.88-0.75-2.69
				c-0.23-0.82-0.34-1.3-0.34-1.45c0-0.24,0.11-0.4,0.34-0.48c0.23-0.08,0.42-0.11,0.57-0.11h3.53c0.18,0,0.37,0.2,0.57,0.61
				c0.19,0.41,0.38,0.92,0.55,1.54c0.16,0.62,0.33,1.3,0.5,2.06c0.17,0.76,0.32,1.48,0.45,2.17c0.14,0.7,0.26,1.32,0.38,1.88
				c0.12,0.56,0.24,0.96,0.36,1.2c0.18-0.36,0.38-1.06,0.59-2.08c0.21-1.03,0.43-2.09,0.66-3.19c0.23-1.1,0.47-2.08,0.72-2.92
				c0.26-0.85,0.54-1.27,0.84-1.27h3.53c0.18,0,0.38,0.05,0.59,0.16c0.21,0.11,0.32,0.28,0.32,0.52v0.14
				C130.82,103.45,130.71,103.92,130.58,104.39z"/>
		</g>
	</g>
</g>
</svg>
