<?xml version="1.0" encoding="utf-8"?>
<!-- Generator: Adobe Illustrator 24.0.1, SVG Export Plug-In . SVG Version: 6.00 Build 0)  -->
<svg version="1.1" id="Layer_1" xmlns="http://www.w3.org/2000/svg" xmlns:xlink="http://www.w3.org/1999/xlink" x="0px" y="0px"
	 viewBox="0 0 242.06 227.43" style="enable-background:new 0 0 242.06 227.43;" xml:space="preserve">
<style type="text/css">
	.st0{fill:#EA0029;}
	.st1{fill:#FFFFFF;}
	.st2{fill:#E4032C;}
	.st3{fill:none;stroke:#EA0029;stroke-width:5;stroke-miterlimit:10;}
	.st4{fill:none;stroke:#EA0029;stroke-width:4;stroke-miterlimit:10;}
	.st5{fill:none;stroke:#EA0029;stroke-width:3;stroke-miterlimit:10;}
	.st6{fill:#020203;}
	.st7{fill:none;}
	.st8{fill:#B50E0B;}
	.st9{fill:#8E1913;}
</style>
<circle class="st4" cx="121.03" cy="113.71" r="104.44"/>
<g>
	<path class="st0" d="M53.93,63.06h5.01v18.22H70.3v4.56H53.93V63.06z"/>
	<path class="st0" d="M74.31,63.06h5.01v22.78h-5.01V63.06z"/>
	<path class="st0" d="M85.02,63.06h5.4l5.99,9.63l5.99-9.63h5.4v22.78h-4.98V70.96l-6.41,9.73h-0.13l-6.35-9.63v14.77h-4.91V63.06z"
		/>
	<path class="st0" d="M113.51,63.06h5.01v22.78h-5.01V63.06z"/>
	<path class="st0" d="M129.53,67.68h-6.93v-4.62h18.87v4.62h-6.93v18.16h-5.01V67.68z"/>
	<path class="st0" d="M145.32,63.06h17.18v4.46h-12.2v4.62h10.74v4.46H150.3v4.78h12.37v4.46h-17.35V63.06z"/>
	<path class="st0" d="M167.14,63.06h8.88c7.16,0,12.11,4.91,12.11,11.33v0.06c0,6.41-4.95,11.39-12.11,11.39h-8.88V63.06z
		 M172.15,67.58v13.73h3.87c4.1,0,6.87-2.77,6.87-6.8v-0.06c0-4.04-2.77-6.87-6.87-6.87H172.15z"/>
	<path class="st0" d="M87.51,106.75h-6.93v-4.62h18.87v4.62h-6.93v18.16h-5.01V106.75z"/>
	<path class="st0" d="M103.53,102.13h5.01v22.78h-5.01V102.13z"/>
	<path class="st0" d="M114.25,102.13h5.4l5.99,9.63l5.99-9.63h5.4v22.78h-4.98v-14.87l-6.41,9.73h-0.13l-6.35-9.63v14.78h-4.91
		V102.13z"/>
	<path class="st0" d="M142.51,102.13h17.18v4.46h-12.2v4.62h10.74v4.46h-10.74v4.78h12.37v4.46h-17.35V102.13z"/>
	<path class="st0" d="M64.38,152.65v-0.06c0-6.48,5.11-11.78,12.14-11.78c7.03,0,12.07,5.24,12.07,11.71v0.07
		c0,6.48-5.11,11.78-12.14,11.78C69.43,164.37,64.38,159.13,64.38,152.65z M83.35,152.65v-0.06c0-3.91-2.86-7.16-6.9-7.16
		c-4.03,0-6.83,3.19-6.83,7.09v0.07c0,3.91,2.86,7.16,6.9,7.16C80.56,159.75,83.35,156.56,83.35,152.65z"/>
	<path class="st0" d="M93.07,141.2h17.35v4.56H98.08v4.85h10.87v4.55H98.08v8.82h-5.01V141.2z"/>
	<path class="st0" d="M114.43,141.2h17.35v4.56h-12.33v4.85h10.87v4.55h-10.87v8.82h-5.01V141.2z"/>
	<path class="st0" d="M135.79,141.2h17.18v4.46h-12.2v4.62h10.74v4.46h-10.74v4.79h12.37v4.46h-17.35V141.2z"/>
	<path class="st0" d="M157.6,141.2h10.41c2.9,0,5.14,0.81,6.64,2.31c1.27,1.27,1.95,3.06,1.95,5.21v0.07c0,3.68-1.99,5.99-4.88,7.06
		l5.57,8.13h-5.86l-4.88-7.29h-3.94v7.29h-5.01V141.2z M167.69,152.26c2.44,0,3.84-1.3,3.84-3.22v-0.06c0-2.15-1.5-3.26-3.94-3.26
		h-4.98v6.54H167.69z"/>
</g>
</svg>
