<?xml version="1.0" encoding="utf-8"?>
<!-- Generator: Adobe Illustrator 24.0.1, SVG Export Plug-In . SVG Version: 6.00 Build 0)  -->
<svg version="1.1" id="Layer_1" xmlns="http://www.w3.org/2000/svg" xmlns:xlink="http://www.w3.org/1999/xlink" x="0px" y="0px"
	 viewBox="0 0 208 195.43" style="enable-background:new 0 0 208 195.43;" xml:space="preserve">
<style type="text/css">
	.st0{fill:#EA0029;}
	.st1{fill:#FFFFFF;}
	.st2{fill:#E4032C;}
	.st3{fill:none;stroke:#EA0029;stroke-width:5;stroke-miterlimit:10;}
	.st4{fill:none;stroke:#EA0029;stroke-width:4;stroke-miterlimit:10;}
	.st5{fill:none;stroke:#EA0029;stroke-width:3;stroke-miterlimit:10;}
	.st6{fill:#020203;}
	.st7{fill:none;}
	.st8{fill:#B50E0B;}
	.st9{fill:#8E1913;}
</style>
<g>
	<path class="st2" d="M140.96,66.2c9.59,10.94,15.42,25.26,15.42,40.95c0,17.17-6.95,32.69-18.2,43.94
		c-11.25,11.25-26.78,18.2-43.94,18.2c-17.17,0-32.69-6.95-43.94-18.2c-11.25-11.25-18.2-26.78-18.2-43.94
		c0-17.17,6.95-32.69,18.2-43.94c11.25-11.25,26.78-18.2,43.94-18.2c11.44,0,22.14,3.1,31.35,8.49c0.56-0.62,1.12-1.22,1.69-1.83
		c-9.67-5.77-20.96-9.09-33.03-9.09c-35.66,0-64.57,28.91-64.57,64.57c0,35.66,28.91,64.57,64.57,64.57
		c35.66,0,64.57-28.91,64.57-64.57c0-16.51-6.2-31.56-16.39-42.98C141.93,64.85,141.44,65.53,140.96,66.2z"/>
	<path class="st2" d="M165.67,25.53c-12.43,8.57-25,20.03-38.07,34.68c-14.23,15.98-29.2,36.5-41.64,57.11
		c-0.68,1.12-1.09,1.71-1.18,1.71l-0.01,0c-0.08-0.03-6.91-4.57-15.2-10.11c-8.29-5.54-15.13-10.1-15.21-10.15l-0.06-0.03
		c-0.03,0,0,0.06,0.08,0.18c0.95,1.35,35.74,49,35.79,49.01c0.03,0,0.33-0.64,0.66-1.43c11.82-28.16,23.37-50.5,37.03-71.67
		c11.08-17.15,23.94-33.74,37.62-48.52c0.88-0.94,1.57-1.71,1.55-1.71C167.03,24.61,166.41,25.02,165.67,25.53z"/>
</g>
</svg>
