<?xml version="1.0" encoding="utf-8"?>
<!-- Generator: Adobe Illustrator 24.0.1, SVG Export Plug-In . SVG Version: 6.00 Build 0)  -->
<svg version="1.1" id="Layer_1" xmlns="http://www.w3.org/2000/svg" xmlns:xlink="http://www.w3.org/1999/xlink" x="0px" y="0px"
	 viewBox="0 0 208 195.43" style="enable-background:new 0 0 208 195.43;" xml:space="preserve">
<style type="text/css">
	.st0{fill:#EA0029;}
	.st1{fill:#FFFFFF;}
	.st2{fill:#E4032C;}
	.st3{fill:none;stroke:#EA0029;stroke-width:5;stroke-miterlimit:10;}
	.st4{fill:none;stroke:#EA0029;stroke-width:4;stroke-miterlimit:10;}
	.st5{fill:none;stroke:#EA0029;stroke-width:3;stroke-miterlimit:10;}
	.st6{fill:#020203;}
	.st7{fill:none;}
	.st8{fill:#B50E0B;}
	.st9{fill:#8E1913;}
</style>
<g>
	<polygon class="st8" points="53.94,139.38 52.68,63.45 34.87,76.87 31.17,126.72 	"/>
	<path class="st0" d="M191.57,135.84l6.64-71.12L52.68,63.45l1.26,75.93L191.57,135.84z M77.51,118.07c-1.47,0-2.72-1.14-2.79-2.54
		l-0.88-18.91h8.85c-0.26,0.78-0.44,1.62-0.47,2.54c0,0,0.23-0.76,1.28-1.51c0,0,0.58,0.62,0.58,1.51c0,0,0.12-1.08,0.65-2.54h2
		l0.62,21.45H77.51z M85.6,94.71c0.93-1.66,2.41-3.44,4.76-4.64c2.41,1.2,3.98,2.98,4.99,4.64H85.6z M90.03,118.07L89.5,96.62h2.03
		L92,118.07H90.03z M107.19,115.53c0,1.4-1.2,2.54-2.67,2.54h-9.84L94.3,96.62h2.02c0.61,1.46,0.77,2.54,0.77,2.54
		c-0.04-0.89,0.51-1.51,0.51-1.51c1.08,0.75,1.34,1.51,1.34,1.51c-0.08-0.92-0.29-1.76-0.59-2.54h8.82V115.53z M167.56,90.33
		c0.04-0.33,0.16-0.6,0.38-0.82c0.22-0.22,0.49-0.33,0.82-0.33h9.91c0.27,0,0.49,0.08,0.66,0.25c0.17,0.16,0.24,0.38,0.2,0.64
		l-0.42,3.13c-0.03,0.23-0.13,0.44-0.3,0.61c-0.17,0.17-0.37,0.26-0.61,0.26h-4.33c-0.32,0-0.63,0.12-0.91,0.37
		c-0.28,0.25-0.44,0.53-0.48,0.85l-0.51,4.22c-0.1,0.79,0.26,1.19,1.07,1.19h3.65c0.58,0,0.83,0.31,0.75,0.93l-0.36,2.69
		c-0.04,0.31-0.15,0.55-0.33,0.73c-0.18,0.18-0.43,0.27-0.75,0.27h-3.88c-0.29,0-0.52,0.14-0.7,0.42c-0.18,0.28-0.28,0.52-0.31,0.74
		l-0.62,5.15c-0.09,0.75,0.23,1.13,0.96,1.13h4.4c0.25,0,0.45,0.09,0.58,0.28c0.13,0.19,0.18,0.39,0.15,0.6l-0.35,2.62
		c-0.03,0.21-0.12,0.39-0.29,0.55c-0.16,0.16-0.35,0.24-0.58,0.24h-9.89c-0.25,0-0.44-0.12-0.57-0.35
		c-0.13-0.24-0.18-0.46-0.16-0.67L167.56,90.33z M152.83,90.33c0.02-0.3,0.15-0.56,0.37-0.8c0.22-0.24,0.49-0.36,0.79-0.36h3.48
		c0.3,0,0.53,0.1,0.69,0.31c0.16,0.21,0.23,0.45,0.21,0.71l-1.9,21.42c-0.07,0.75,0.27,1.13,1,1.13h3.98c0.28,0,0.48,0.09,0.61,0.26
		c0.12,0.17,0.17,0.38,0.15,0.62l-0.26,2.54c-0.02,0.24-0.12,0.44-0.29,0.61c-0.17,0.17-0.38,0.26-0.63,0.26h-9.39
		c-0.28,0-0.48-0.1-0.61-0.3c-0.13-0.2-0.18-0.41-0.16-0.65L152.83,90.33z M133.63,116.09c0.22-2.17,0.56-4.35,1.01-6.54
		c0.46-2.21,0.86-4.44,1.21-6.7c0.27-1.74,0.58-3.48,0.91-5.22c0.34-1.75,0.74-3.52,1.2-5.3c0-0.09,0.05-0.3,0.14-0.64
		c0.09-0.34,0.2-0.69,0.34-1.06c0.14-0.37,0.27-0.7,0.4-1c0.13-0.3,0.24-0.45,0.33-0.45h6.25c0.09,0,0.18,0.16,0.28,0.47
		c0.1,0.31,0.19,0.66,0.27,1.04c0.08,0.38,0.15,0.75,0.2,1.1c0.05,0.35,0.09,0.57,0.11,0.66c0.27,1.75,0.49,3.51,0.65,5.26
		c0.16,1.74,0.3,3.48,0.42,5.22c0.16,2.28,0.37,4.53,0.62,6.74c0.25,2.19,0.36,4.38,0.34,6.58l-0.01,0.08
		c0.01,0.21-0.06,0.38-0.22,0.51c-0.16,0.13-0.36,0.2-0.58,0.2h-3.77c-0.45,0-0.71-0.22-0.78-0.65c-0.07-0.43-0.11-0.92-0.1-1.45
		c0-0.53-0.04-1.02-0.13-1.46c-0.09-0.44-0.37-0.66-0.85-0.66h-1.69c-0.51,0-0.83,0.22-0.96,0.66c-0.13,0.44-0.22,0.93-0.26,1.46
		c-0.04,0.53-0.12,1.01-0.24,1.45c-0.12,0.43-0.4,0.65-0.85,0.65h-3.6c-0.25,0-0.43-0.08-0.54-0.24c-0.11-0.16-0.14-0.34-0.11-0.55
		L133.63,116.09z M117.49,109.83c0-0.19,0.09-0.4,0.26-0.63c0.17-0.23,0.37-0.35,0.6-0.35h3.5c0.46,0,0.71,0.23,0.76,0.69
		c0.05,0.46,0.09,0.98,0.11,1.54c0.02,0.57,0.14,1.08,0.34,1.53c0.21,0.46,0.69,0.68,1.45,0.68c0.45,0,0.86-0.16,1.24-0.48
		c0.37-0.32,0.56-0.7,0.57-1.13c0.01-0.65-0.18-1.34-0.58-2.09c-0.4-0.75-0.89-1.48-1.46-2.21c-0.58-0.73-1.17-1.43-1.78-2.11
		c-0.61-0.68-1.13-1.28-1.56-1.81c-0.49-0.59-0.92-1.15-1.31-1.68c-0.39-0.53-0.73-1.09-1.04-1.65c-0.3-0.57-0.54-1.17-0.69-1.81
		c-0.16-0.64-0.24-1.37-0.24-2.17c0-0.87,0.14-1.73,0.42-2.59c0.28-0.86,0.69-1.65,1.23-2.35c0.54-0.71,1.19-1.28,1.97-1.71
		c0.78-0.43,1.66-0.65,2.64-0.65h2.32c0.89,0,1.7,0.17,2.42,0.51c0.72,0.34,1.32,0.8,1.79,1.38c0.47,0.57,0.83,1.24,1.07,1.98
		c0.24,0.75,0.35,1.54,0.32,2.38l-0.06,1.82c-0.01,0.32-0.11,0.58-0.31,0.8c-0.2,0.22-0.46,0.32-0.78,0.32h-3.15
		c-0.52,0-0.83-0.24-0.93-0.71c-0.09-0.47-0.15-1-0.19-1.58c-0.03-0.58-0.13-1.11-0.3-1.59c-0.17-0.48-0.61-0.72-1.31-0.72
		c-0.53,0-0.97,0.17-1.33,0.52c-0.36,0.35-0.54,0.78-0.54,1.31c-0.01,0.61,0.2,1.29,0.61,2.05c0.41,0.76,0.9,1.52,1.47,2.27
		c0.57,0.75,1.16,1.46,1.77,2.12c0.61,0.66,1.11,1.21,1.5,1.66c0.56,0.64,1.05,1.24,1.46,1.79c0.41,0.55,0.76,1.13,1.05,1.72
		c0.28,0.59,0.49,1.23,0.63,1.91c0.13,0.68,0.19,1.45,0.16,2.32c-0.03,1.05-0.24,1.97-0.62,2.75c-0.38,0.78-0.88,1.44-1.51,1.97
		c-0.63,0.53-1.38,0.92-2.25,1.18c-0.87,0.26-1.82,0.39-2.86,0.39c-0.89,0-1.76-0.12-2.59-0.37c-0.84-0.25-1.57-0.62-2.2-1.11
		c-0.63-0.49-1.13-1.08-1.51-1.79c-0.38-0.71-0.57-1.53-0.57-2.47V109.83z M107.19,92.34v2.38H97.4c-2.16-3.36-5.79-5-6-5.09l0-0.02
		h13.01C105.94,89.61,107.19,90.83,107.19,92.34z M91.29,89.61h-0.22c1.04-0.95,3.25-3.38,2.87-6.65c0,0,2.12-2.23,3.62-2.15
		C97.56,80.81,99.72,84.47,91.29,89.61z M86.24,78.65c2.31,0.87,3.44,2.74,3.96,4.68c0.43-1.95,1.47-3.81,3.75-4.68l3.6,1.41
		c0,0-6.1,1.49-7.17,9.55h-0.02c-0.01-0.01-0.01-0.02-0.01-0.04c0,0.03-0.01,0.03-0.01,0.04h-0.02c-1.45-8.06-7.62-9.55-7.62-9.55
		L86.24,78.65z M82.73,80.81c1.49-0.08,3.72,2.15,3.72,2.15c-0.22,3.28,2.09,5.7,3.18,6.65h-0.22
		C80.74,84.47,82.73,80.81,82.73,80.81z M76.29,89.61h13.06v0.01h-0.02c0,0-3.7,1.63-5.77,5.09h-9.81l-0.11-2.38
		C73.57,90.83,74.76,89.61,76.29,89.61z"/>
	<path class="st0" d="M140.49,108.18c0.29,0.1,0.56,0.14,0.78,0.14c0.31,0,0.6-0.06,0.87-0.19c0.26-0.12,0.39-0.36,0.38-0.72l0-0.08
		l-0.45-12.35l-1.96,12.51l0,0.08C140.07,107.89,140.19,108.08,140.49,108.18z"/>
	<polygon class="st9" points="16.34,56.06 16.33,56.12 16.4,56.13 	"/>
	<polygon class="st9" points="9.91,133.46 31.17,126.72 34.87,76.87 26.56,67.54 22.1,120.96 	"/>
	<polygon class="st0" points="22.1,120.96 26.56,67.54 27.38,57.75 16.4,56.13 16.33,56.12 15.82,56.05 9.79,133.57 9.91,133.46 	
		"/>
	<polygon class="st1" points="89.5,96.62 90.03,118.07 92,118.07 91.53,96.62 	"/>
	<path class="st1" d="M90.32,89.61h0.02c0-0.01,0.01-0.02,0.01-0.04c0.01,0.03,0.01,0.03,0.01,0.04h0.02
		c1.08-8.06,7.17-9.55,7.17-9.55l-3.6-1.41c-2.28,0.87-3.31,2.74-3.75,4.68c-0.52-1.95-1.65-3.81-3.96-4.68l-3.54,1.41
		C82.7,80.06,88.87,81.55,90.32,89.61z"/>
	<path class="st1" d="M93.95,82.95c0.37,3.28-1.83,5.7-2.87,6.65h0.22c8.43-5.14,6.27-8.8,6.27-8.8
		C96.07,80.72,93.95,82.95,93.95,82.95z"/>
	<path class="st1" d="M89.41,89.61h0.22c-1.09-0.95-3.41-3.38-3.18-6.65c0,0-2.23-2.23-3.72-2.15
		C82.73,80.81,80.74,84.47,89.41,89.61z"/>
	<path class="st1" d="M84.73,96.62c-0.53,1.46-0.65,2.54-0.65,2.54c-0.01-0.89-0.58-1.51-0.58-1.51c-1.05,0.75-1.28,1.51-1.28,1.51
		c0.03-0.92,0.21-1.76,0.47-2.54h-8.85l0.88,18.91c0.07,1.4,1.32,2.54,2.79,2.54h9.84l-0.62-21.45H84.73z"/>
	<path class="st1" d="M98.95,99.16c0,0-0.27-0.76-1.34-1.51c0,0-0.55,0.62-0.51,1.51c0,0-0.17-1.08-0.77-2.54H94.3l0.39,21.45h9.84
		c1.47,0,2.67-1.14,2.67-2.54V96.62h-8.82C98.66,97.4,98.87,98.24,98.95,99.16z"/>
	<path class="st1" d="M90.36,90.07c-2.35,1.2-3.83,2.98-4.76,4.64h9.75C94.35,93.05,92.77,91.28,90.36,90.07z"/>
	<path class="st1" d="M91.4,89.62c0.21,0.09,3.84,1.73,6,5.09h9.79v-2.38c0-1.5-1.24-2.73-2.78-2.73H91.4L91.4,89.62z"/>
	<path class="st1" d="M83.56,94.71c2.07-3.46,5.77-5.09,5.77-5.09h0.02v-0.01H76.29c-1.53,0-2.72,1.22-2.65,2.73l0.11,2.38H83.56z"
		/>
	<path class="st1" d="M119.57,115.95c0.63,0.49,1.36,0.86,2.2,1.11c0.84,0.25,1.7,0.37,2.59,0.37c1.03,0,1.98-0.13,2.86-0.39
		c0.87-0.26,1.62-0.66,2.25-1.18c0.63-0.53,1.13-1.18,1.51-1.97c0.38-0.79,0.58-1.7,0.62-2.75c0.03-0.86-0.03-1.64-0.16-2.32
		c-0.13-0.68-0.34-1.32-0.63-1.91c-0.28-0.59-0.63-1.16-1.05-1.72c-0.42-0.55-0.9-1.15-1.46-1.79c-0.39-0.45-0.89-1-1.5-1.66
		c-0.61-0.66-1.2-1.37-1.77-2.12c-0.57-0.75-1.06-1.51-1.47-2.27c-0.42-0.76-0.62-1.45-0.61-2.05c0.01-0.52,0.19-0.96,0.54-1.31
		c0.36-0.35,0.8-0.52,1.33-0.52c0.71,0,1.14,0.24,1.31,0.72c0.17,0.48,0.27,1.01,0.3,1.59c0.03,0.58,0.09,1.1,0.19,1.58
		c0.09,0.47,0.4,0.71,0.93,0.71h3.15c0.32,0,0.58-0.11,0.78-0.32c0.2-0.21,0.3-0.48,0.31-0.8l0.06-1.82
		c0.03-0.84-0.08-1.63-0.32-2.38c-0.24-0.75-0.6-1.41-1.07-1.98c-0.47-0.58-1.07-1.04-1.79-1.38c-0.72-0.34-1.53-0.51-2.42-0.51
		h-2.32c-0.98,0-1.86,0.22-2.64,0.65c-0.78,0.43-1.43,1-1.97,1.71c-0.54,0.71-0.94,1.49-1.23,2.35c-0.28,0.86-0.42,1.72-0.42,2.59
		c0,0.81,0.08,1.53,0.24,2.17c0.16,0.64,0.39,1.25,0.69,1.81c0.3,0.57,0.65,1.12,1.04,1.65c0.39,0.53,0.82,1.09,1.31,1.68
		c0.43,0.53,0.95,1.13,1.56,1.81c0.61,0.68,1.2,1.38,1.78,2.11c0.57,0.73,1.06,1.46,1.46,2.21c0.4,0.75,0.59,1.44,0.58,2.09
		c-0.01,0.43-0.2,0.81-0.57,1.13c-0.37,0.32-0.79,0.48-1.24,0.48c-0.76,0-1.24-0.23-1.45-0.68c-0.21-0.46-0.32-0.97-0.34-1.53
		c-0.02-0.57-0.06-1.08-0.11-1.54c-0.05-0.46-0.3-0.69-0.76-0.69h-3.5c-0.23,0-0.43,0.12-0.6,0.35c-0.17,0.23-0.26,0.44-0.26,0.63
		v1.86c0,0.94,0.19,1.76,0.57,2.47C118.44,114.87,118.95,115.46,119.57,115.95z"/>
	<path class="st1" d="M134.27,117.04h3.6c0.45,0,0.73-0.22,0.85-0.65c0.12-0.43,0.2-0.92,0.24-1.45c0.04-0.53,0.13-1.02,0.26-1.46
		c0.13-0.44,0.46-0.66,0.96-0.66h1.69c0.48,0,0.76,0.22,0.85,0.66c0.09,0.44,0.13,0.93,0.13,1.46c0,0.53,0.03,1.01,0.1,1.45
		c0.07,0.43,0.33,0.65,0.78,0.65h3.77c0.22,0,0.42-0.07,0.58-0.2c0.16-0.13,0.24-0.3,0.22-0.51l0.01-0.08
		c0.01-2.2-0.1-4.39-0.34-6.58c-0.25-2.21-0.45-4.46-0.62-6.74c-0.12-1.74-0.25-3.48-0.42-5.22c-0.17-1.75-0.38-3.51-0.65-5.26
		c-0.03-0.09-0.06-0.31-0.11-0.66c-0.05-0.35-0.12-0.72-0.2-1.1c-0.08-0.38-0.17-0.73-0.27-1.04c-0.1-0.31-0.2-0.47-0.28-0.47h-6.25
		c-0.09,0-0.2,0.15-0.33,0.45c-0.13,0.3-0.27,0.63-0.4,1c-0.14,0.37-0.25,0.72-0.34,1.06c-0.09,0.34-0.14,0.55-0.14,0.64
		c-0.46,1.78-0.86,3.55-1.2,5.3c-0.33,1.74-0.64,3.48-0.91,5.22c-0.35,2.26-0.76,4.49-1.21,6.7c-0.45,2.19-0.79,4.37-1.01,6.54
		l-0.01,0.16c-0.03,0.21,0,0.39,0.11,0.55C133.83,116.96,134.01,117.04,134.27,117.04z M140.11,107.58l0-0.08l1.96-12.51l0.45,12.35
		l0,0.08c0.01,0.36-0.12,0.6-0.38,0.72c-0.26,0.12-0.55,0.19-0.87,0.19c-0.23,0-0.49-0.05-0.78-0.14
		C140.19,108.08,140.07,107.89,140.11,107.58z"/>
	<path class="st1" d="M151.62,117.04h9.39c0.25,0,0.46-0.08,0.63-0.26c0.17-0.17,0.27-0.38,0.29-0.61l0.26-2.54
		c0.03-0.24-0.03-0.45-0.15-0.62c-0.13-0.17-0.33-0.26-0.61-0.26h-3.98c-0.73,0-1.07-0.38-1-1.13l1.9-21.42
		c0.02-0.27-0.04-0.5-0.21-0.71c-0.16-0.21-0.39-0.31-0.69-0.31h-3.48c-0.3,0-0.56,0.12-0.79,0.36c-0.23,0.24-0.35,0.5-0.37,0.8
		l-1.98,25.76c-0.02,0.24,0.04,0.45,0.16,0.65C151.14,116.94,151.34,117.04,151.62,117.04z"/>
	<path class="st1" d="M165.5,117.04h9.89c0.22,0,0.42-0.08,0.58-0.24c0.16-0.16,0.26-0.34,0.29-0.55l0.35-2.62
		c0.03-0.21-0.02-0.41-0.15-0.6c-0.13-0.19-0.32-0.28-0.58-0.28h-4.4c-0.73,0-1.05-0.38-0.96-1.13l0.62-5.15
		c0.03-0.22,0.13-0.47,0.31-0.74c0.17-0.28,0.41-0.42,0.7-0.42h3.88c0.32,0,0.56-0.09,0.75-0.27c0.18-0.18,0.29-0.42,0.33-0.73
		l0.36-2.69c0.08-0.62-0.17-0.93-0.75-0.93h-3.65c-0.81,0-1.17-0.4-1.07-1.19l0.51-4.22c0.04-0.32,0.2-0.6,0.48-0.85
		c0.28-0.25,0.58-0.37,0.91-0.37h4.33c0.23,0,0.44-0.09,0.61-0.26c0.17-0.18,0.27-0.38,0.3-0.61l0.42-3.13
		c0.04-0.27-0.03-0.48-0.2-0.64c-0.17-0.16-0.39-0.25-0.66-0.25h-9.91c-0.33,0-0.6,0.11-0.82,0.33c-0.22,0.22-0.34,0.5-0.38,0.82
		l-2.79,25.68c-0.02,0.21,0.03,0.43,0.16,0.67C165.06,116.92,165.25,117.04,165.5,117.04z"/>
</g>
</svg>
