<?xml version="1.0" encoding="utf-8"?>
<!-- Generator: Adobe Illustrator 24.0.1, SVG Export Plug-In . SVG Version: 6.00 Build 0)  -->
<svg version="1.1" id="Layer_1" xmlns="http://www.w3.org/2000/svg" xmlns:xlink="http://www.w3.org/1999/xlink" x="0px" y="0px"
	 viewBox="0 0 232 226.67" style="enable-background:new 0 0 232 226.67;" xml:space="preserve">
<style type="text/css">
	.st0{fill:#EA0029;}
	.st1{fill:#FFFFFF;}
	.st2{fill:#E4032C;}
	.st3{fill:none;stroke:#EA0029;stroke-width:5;stroke-miterlimit:10;}
	.st4{fill:none;stroke:#EA0029;stroke-width:4;stroke-miterlimit:10;}
	.st5{fill:none;stroke:#EA0029;stroke-width:3;stroke-miterlimit:10;}
	.st6{fill:#020203;}
	.st7{fill:none;}
	.st8{fill:#B50E0B;}
	.st9{fill:#8E1913;}
</style>
<rect x="20.64" y="15.66" class="st0" width="186.67" height="186.67"/>
<g>
	<path class="st1" d="M46.87,58.34h5.01v18.22h11.36v4.56H46.87V58.34z"/>
	<path class="st1" d="M67.25,58.34h5.01v22.78h-5.01V58.34z"/>
	<path class="st1" d="M77.97,58.34h5.4l5.99,9.63l5.99-9.63h5.4v22.78h-4.98V66.25l-6.41,9.73h-0.13l-6.35-9.63v14.77h-4.91V58.34z"
		/>
	<path class="st1" d="M106.46,58.34h5.01v22.78h-5.01V58.34z"/>
	<path class="st1" d="M122.47,62.96h-6.93v-4.62h18.87v4.62h-6.93v18.16h-5.01V62.96z"/>
	<path class="st1" d="M138.27,58.34h17.18v4.46h-12.2v4.62h10.74v4.46h-10.74v4.78h12.37v4.46h-17.35V58.34z"/>
	<path class="st1" d="M160.08,58.34h8.88c7.16,0,12.11,4.91,12.11,11.33v0.06c0,6.41-4.95,11.39-12.11,11.39h-8.88V58.34z
		 M165.1,62.86V76.6h3.87c4.1,0,6.87-2.77,6.87-6.8v-0.06c0-4.04-2.77-6.87-6.87-6.87H165.1z"/>
	<path class="st1" d="M80.46,102.03h-6.93v-4.62H92.4v4.62h-6.93v18.16h-5.01V102.03z"/>
	<path class="st1" d="M96.48,97.41h5.01v22.78h-5.01V97.41z"/>
	<path class="st1" d="M107.19,97.41h5.4l5.99,9.63l5.99-9.63h5.4v22.78h-4.98v-14.87l-6.41,9.73h-0.13l-6.35-9.63v14.78h-4.91V97.41
		z"/>
	<path class="st1" d="M135.45,97.41h17.18v4.46h-12.2v4.62h10.74v4.46h-10.74v4.78h12.37v4.46h-17.35V97.41z"/>
	<path class="st1" d="M57.33,147.94v-0.06c0-6.48,5.11-11.78,12.14-11.78c7.03,0,12.07,5.24,12.07,11.71v0.07
		c0,6.48-5.11,11.78-12.14,11.78C62.37,159.65,57.33,154.41,57.33,147.94z M76.3,147.94v-0.06c0-3.91-2.86-7.16-6.9-7.16
		c-4.03,0-6.83,3.19-6.83,7.09v0.07c0,3.91,2.86,7.16,6.9,7.16C73.5,155.03,76.3,151.84,76.3,147.94z"/>
	<path class="st1" d="M86.01,136.48h17.35v4.56H91.02v4.85h10.87v4.55H91.02v8.82h-5.01V136.48z"/>
	<path class="st1" d="M107.37,136.48h17.35v4.56h-12.33v4.85h10.87v4.55h-10.87v8.82h-5.01V136.48z"/>
	<path class="st1" d="M128.73,136.48h17.18v4.46h-12.2v4.62h10.74v4.46h-10.74v4.79h12.37v4.46h-17.35V136.48z"/>
	<path class="st1" d="M150.54,136.48h10.41c2.9,0,5.14,0.81,6.64,2.31c1.27,1.27,1.95,3.06,1.95,5.21v0.07
		c0,3.68-1.99,5.99-4.88,7.06l5.57,8.13h-5.86l-4.88-7.29h-3.94v7.29h-5.01V136.48z M160.63,147.55c2.44,0,3.84-1.3,3.84-3.22v-0.06
		c0-2.15-1.5-3.26-3.94-3.26h-4.98v6.54H160.63z"/>
</g>
</svg>
