<?xml version="1.0" encoding="UTF-8"?>
<!DOCTYPE svg PUBLIC "-//W3C//DTD SVG 1.1//EN" "http://www.w3.org/Graphics/SVG/1.1/DTD/svg11.dtd">
<!-- Creator: CorelDRAW X7 -->
<svg xmlns="http://www.w3.org/2000/svg" xml:space="preserve" width="8.5in" height="11in" version="1.1" style="shape-rendering:geometricPrecision; text-rendering:geometricPrecision; image-rendering:optimizeQuality; fill-rule:evenodd; clip-rule:evenodd"
viewBox="0 0 8500 11000"
 xmlns:xlink="http://www.w3.org/1999/xlink">
 <defs>
  <style type="text/css">
   <![CDATA[
    .fil0 {fill:black}
   ]]>
  </style>
 </defs>
 <g id="Layer_x0020_1">
  <metadata id="CorelCorpID_0Corel-Layer"/>
  <path class="fil0" d="M397 4113c180,341 486,591 755,821 750,489 1660,877 2932,867 -24,90 -52,225 -20,331 -91,54 -195,131 -271,179 -62,128 -153,283 -351,298 53,58 163,18 218,-14 -34,82 -154,137 -238,192 136,24 225,-52 298,-112 -9,125 -117,152 -192,212 170,6 232,-75 291,-192 34,44 -2,127 -13,172 73,-42 116,-114 106,-239 15,-59 59,-91 60,-165 300,-57 419,-295 503,-569 296,-16 504,172 807,112 33,-4 46,11 80,7 177,-63 372,-108 489,-232 34,1 55,-11 93,-6 62,92 57,252 113,350 79,73 161,144 278,179 58,36 84,106 139,146 -15,-12 1,-54 -14,-66 37,11 59,38 86,59 18,-35 -27,-65 -39,-93 47,25 80,26 126,47 7,-45 -66,-67 -93,-100 52,-15 111,7 165,-13 -31,-39 -92,-48 -159,-53 25,-20 55,-34 80,-53 -75,-27 -145,11 -212,-33 -41,-67 -105,-111 -165,-159 32,-74 22,-202 -7,-271 43,-27 44,-97 99,-113 34,-4 25,33 53,34 66,-12 105,-50 192,-40 62,-51 115,-110 166,-172 23,13 71,3 106,6 449,-153 560,-644 1131,-675 19,-12 42,-20 67,-26 8,-14 19,-25 33,-33 50,-147 -45,-286 -113,-378 -30,-5 -46,-24 -79,-26 -56,-7 -86,46 -119,40 -116,153 -366,264 -642,284 -222,16 -437,33 -583,139 -14,26 -40,40 -46,73 -57,-9 -124,-8 -172,-26 -46,24 -80,61 -146,66 -7,22 -7,50 -20,66 -165,-40 -215,-196 -404,-212 25,-44 46,-91 40,-165 24,-71 142,-83 159,-139 -39,4 -63,-16 -86,6 16,-37 91,-72 106,-132 -49,-2 -100,49 -146,73 -9,-49 41,-67 27,-133 -40,23 -52,72 -86,100 0,-40 7,-60 -7,-93 -26,16 -29,54 -40,86 -27,-8 -17,-53 -46,-60 29,231 -165,294 -152,530 22,64 69,102 119,139 -33,8 -60,-23 -53,-33 -181,-54 -414,-27 -602,-7 -34,24 -67,48 -133,40 -43,25 -75,61 -145,59 -31,59 -122,55 -179,87 35,-80 142,-145 132,-292 -63,-122 -207,-163 -357,-198 -22,-52 -52,-95 -80,-139 5,-122 -37,-197 -119,-232 27,40 35,98 33,165 -66,-93 -154,-198 -311,-178 78,54 172,93 205,192 -63,-22 -200,-149 -304,-66 113,23 184,89 251,158 -56,-23 -172,-59 -218,0 197,18 287,142 364,245 74,19 118,68 192,86 -138,78 -214,150 -265,325 -19,18 -49,25 -73,39 -361,-2 -681,32 -1039,14 -443,-22 -843,-145 -1204,-292 -366,-148 -708,-314 -974,-523 -4,-5 -8,-11 0,-13 -1,-7 -6,-3 -6,0 -105,-76 -185,-176 -291,-251 -32,2 -56,-2 -80,-7z"/>
 </g>
</svg>
