<?xml version="1.0" encoding="UTF-8" standalone="no"?>
<svg xmlns:rdf="http://www.w3.org/1999/02/22-rdf-syntax-ns#" xmlns="http://www.w3.org/2000/svg" xml:space="preserve" height="33.184" viewBox="0 0 191.42383 33.18359" width="191.42" version="1.1" xmlns:cc="http://creativecommons.org/ns#" xmlns:dc="http://purl.org/dc/elements/1.1/"><g transform="matrix(1.25 0 0 -1.25 -285.1 512.83)"><g transform="translate(.89870 .71896)"><path d="m155.69 15.971v8.5664l-10.592-8.5508h-6.7969l2.9863 2.459v13.775h6.5469v-8.5508l10.609 8.5508h3.793v-16.25h-6.5469zm-154.73 0.01563 2.9863 2.459v13.775h6.8223v-5.2031h12.721v-3.6348h-12.721v-3.7578h12.721v-3.6387h-22.529zm29.5 0 2.9727 2.4473-5.3555 13.787h5.1797l2.0195-5.2031h8.0234l2.0215 5.2031h7.0957l-6.3047-16.234h-15.652zm25.496 0 2.9824 2.459v13.775h19.543v-3.6367h-12.721v-12.598h-9.8047zm25.717 0 2.9824 2.459v13.775h19.543v-3.6367h-12.719v-8.959h12.719v-3.6387h-22.525zm27.631 0 2.9844 2.459v13.775h20.641v-16.234h-23.625zm58.004 0 2.9844 2.459v7.4785h13.543v2.6602h-13.543v3.6367h20.092v-9.9336h-13.543v-2.6621h13.543v-3.6387h-23.076zm-129.15 3.638h2.2832l1.459 3.7578h-5.2012l1.459-3.7578zm80.693 0h7.541v8.959h-7.541v-8.959z" transform="matrix(.8 0 0 -.8 227.31 409.49)" fill="#000"/><path d="m113.48 1.0371v4.2832l-5.293-4.2734h-3.4004l1.4941 1.2285v6.8887h3.2734v-4.2754l5.3047 4.2754h1.8965v-8.127h-3.2754zm-69.547 0.00977 1.4844 1.2227-2.6777 6.8945h2.5918l1.0098-2.6035h4.0117l1.0117 2.6035h3.5469l-3.1523-8.1172h-7.8262zm13.051 0 2.2734 1.8184h2.4707v6.2988h3.4121v-6.2988h3.5195v-1.8184h-11.676zm16.049 0 1.4922 1.2285v6.8887h9.7715v-1.8203h-6.3594v-6.2969h-4.9043zm16.84 0 1.4844 1.2227-2.6777 6.8945h2.5898l1.0098-2.6035h4.0137l1.0098 2.6035h3.5469l-3.1504-8.1172h-7.8262zm31.146 0 2.2734 1.8184h2.4727v6.2988h3.4082v-6.2988h3.5195v-1.8184h-11.674zm16.605 0 1.4844 1.2227-2.6758 6.8945h2.5898l1.0098-2.6035h4.0117l1.0098 2.6035h3.5488l-3.1524-8.1172h-7.8262zm-89.848 1.8184h1.1387l0.73047 1.877h-2.5996l0.73047-1.877zm45.939 0h1.1387l0.73047 1.877h-2.5996l0.73047-1.877zm47.752 0h1.1406l0.72851 1.877h-2.5976l0.72851-1.877z" transform="matrix(.8 0 0 -.8 227.31 409.49)" fill="#a51930"/></g></g></svg>
