<?xml version="1.0" encoding="UTF-8"?>
<!DOCTYPE svg PUBLIC "-//W3C//DTD SVG 1.1//EN" "http://www.w3.org/Graphics/SVG/1.1/DTD/svg11.dtd">
<!-- Creator: CorelDRAW X7 -->
<svg xmlns="http://www.w3.org/2000/svg" xml:space="preserve" width="8.5in" height="11in" version="1.1" style="shape-rendering:geometricPrecision; text-rendering:geometricPrecision; image-rendering:optimizeQuality; fill-rule:evenodd; clip-rule:evenodd"
viewBox="0 0 8500 11000"
 xmlns:xlink="http://www.w3.org/1999/xlink">
 <defs>
  <style type="text/css">
   <![CDATA[
    .fil1 {fill:black;fill-rule:nonzero}
    .fil5 {fill:#254615;fill-rule:nonzero}
    .fil0 {fill:#72A637;fill-rule:nonzero}
    .fil3 {fill:#A7A9AC;fill-rule:nonzero}
    .fil7 {fill:red;fill-rule:nonzero}
    .fil2 {fill:#FFD24E;fill-rule:nonzero}
    .fil6 {fill:#FFFC49;fill-rule:nonzero}
    .fil4 {fill:white;fill-rule:nonzero}
   ]]>
  </style>
 </defs>
 <g id="Layer_x0020_1">
  <metadata id="CorelCorpID_0Corel-Layer"/>
  <g id="_393610274208">
   <path class="fil0" d="M4007 5008c0,0 -592,-299 -610,-351 -18,-53 79,-240 7,-268 -45,-18 -184,-3 -206,145 -208,-206 -351,62 -269,183 47,69 129,148 238,170 0,0 375,428 496,490 121,63 391,-153 344,-369z"/>
   <path class="fil1" d="M3712 5416c-23,0 -44,-5 -62,-14 -117,-60 -447,-432 -498,-490 -132,-30 -215,-135 -246,-180 -51,-75 -29,-202 46,-265 85,-70 177,-24 230,16 19,-54 55,-85 84,-102 53,-30 114,-32 148,-18 67,27 43,121 24,196 -8,31 -18,73 -15,87 29,37 324,200 596,337 8,3 13,10 15,19 31,144 -63,277 -153,346 -58,44 -118,68 -169,68zm-661 -930l0 0c-23,0 -44,8 -63,24 -54,44 -71,139 -36,191 27,40 103,136 220,159 6,1 12,4 16,9 103,118 392,435 488,484 38,19 107,0 171,-49 75,-57 153,-163 135,-278 -39,-20 -163,-83 -287,-150 -310,-167 -319,-194 -324,-210 -10,-29 0,-69 13,-120 11,-43 31,-123 9,-132 -17,-7 -61,-7 -99,15 -38,22 -61,59 -69,109 -1,10 -9,19 -19,22 -9,4 -20,1 -28,-6 -45,-45 -89,-68 -127,-68z"/>
   <path class="fil2" d="M3021 4322c0,0 -115,-84 -115,-10 0,95 167,313 222,311 55,-2 166,-103 -107,-301z"/>
   <path class="fil1" d="M3127 4651c-15,0 -39,-6 -82,-47 -70,-68 -167,-211 -167,-292 0,-33 17,-47 28,-52 40,-21 105,20 131,39 182,132 200,224 184,278 -14,47 -57,73 -92,74 -1,0 -1,0 -2,0zm-193 -342l0 0c0,1 0,2 0,3 0,83 152,278 194,283 11,0 33,-11 40,-34 22,-75 -119,-185 -164,-217l0 0c-25,-18 -57,-34 -70,-35z"/>
   <path class="fil2" d="M2888 4448c0,0 -115,-84 -115,-10 0,95 167,313 222,311 55,-2 166,-103 -107,-301z"/>
   <path class="fil1" d="M2994 4777c-15,0 -39,-6 -82,-47 -70,-68 -167,-211 -167,-292 0,-33 17,-47 28,-52 41,-21 105,20 131,39 182,132 200,224 184,278 -14,47 -57,73 -92,74 -1,0 -1,0 -2,0zm-193 -342l0 0c0,1 0,2 0,3 0,83 152,278 194,283 11,0 33,-11 40,-34 22,-75 -119,-185 -164,-217l0 0c-25,-18 -57,-34 -70,-35z"/>
   <path class="fil3" d="M2320 8091c0,166 777,301 1736,301 958,0 1735,-135 1735,-301 0,-167 -777,-301 -1735,-301 -959,0 -1736,134 -1736,301z"/>
   <path class="fil4" d="M1716 3791c0,0 -31,266 46,334 0,0 138,-91 186,-225 0,0 -93,-164 -232,-109z"/>
   <path class="fil1" d="M1759 4160l-16 -14c-85,-76 -58,-330 -54,-359l2 -16 15 -6c128,-50 230,58 266,122l7 11 -5 12c-50,140 -191,234 -197,238l-18 12zm-17 -349l0 0c-8,89 -7,220 25,276 37,-29 114,-96 150,-184 -20,-31 -86,-115 -175,-92z"/>
   <path class="fil5" d="M1821 3371c-47,93 -137,142 -201,110 -64,-33 -78,-134 -31,-227 47,-92 136,-141 200,-109 64,33 78,134 32,226z"/>
   <path class="fil1" d="M1663 3518c-19,0 -38,-4 -55,-13 -79,-39 -98,-155 -44,-263 55,-108 159,-161 238,-121 79,39 98,155 43,263 -25,50 -62,90 -105,113 -26,14 -52,21 -77,21zm83 -355l0 0c-46,0 -101,41 -132,104 -39,77 -31,164 19,189 22,11 51,9 80,-8 33,-18 63,-49 83,-89 39,-77 30,-164 -19,-189 -10,-5 -20,-7 -31,-7z"/>
   <path class="fil0" d="M4947 6875c0,0 824,384 1089,-539 284,-987 123,-1287 903,-1223 0,0 -900,-478 -1161,370 -262,848 -425,804 -672,602 -246,-202 -424,705 -159,790z"/>
   <path class="fil1" d="M5326 6982c-203,0 -369,-72 -389,-81 -82,-27 -133,-121 -146,-265 -20,-218 58,-525 187,-593 33,-18 86,-29 146,21 104,84 183,133 256,111 117,-36 235,-258 371,-700 74,-239 204,-398 388,-474 150,-62 338,-66 545,-13 154,41 264,98 268,101 12,6 17,19 14,32 -4,13 -16,21 -29,20 -582,-48 -615,97 -735,640 -33,152 -75,342 -139,562 -83,289 -229,483 -434,576 -102,47 -207,63 -303,63zm-291 -898l0 0c-13,0 -23,4 -31,8 -97,51 -177,324 -158,539 6,70 29,191 110,217 1,1 2,1 3,2 3,1 345,157 648,19 189,-86 324,-268 403,-541 63,-219 104,-408 138,-559 61,-275 101,-456 207,-566 87,-91 213,-129 428,-126 -34,-12 -73,-24 -115,-35 -135,-35 -333,-62 -508,11 -168,69 -287,216 -356,438 -146,474 -268,695 -408,737 -107,32 -211,-42 -307,-121 -22,-18 -39,-23 -54,-23z"/>
   <path class="fil5" d="M5446 5738c-1,73 -122,201 -265,199 -143,-3 -254,-135 -253,-208 1,-73 117,-179 260,-177 143,3 259,113 258,186z"/>
   <path class="fil1" d="M5185 5965c-2,0 -3,0 -5,0 -156,-3 -281,-145 -280,-236 2,-94 135,-207 289,-205 71,2 142,27 199,73 54,42 86,95 86,141 -1,46 -35,103 -90,149 -34,29 -106,78 -199,78zm-1 -385l0 0c-131,0 -227,98 -228,150 -1,59 100,177 225,179 1,0 3,0 4,0 76,0 135,-40 163,-65 48,-40 70,-83 70,-107 1,-52 -96,-155 -230,-157 -2,0 -3,0 -4,0z"/>
   <path class="fil5" d="M5444 5178c-1,74 -122,202 -265,199 -143,-2 -254,-134 -252,-207 1,-74 117,-180 260,-177 143,2 259,112 257,185z"/>
   <path class="fil1" d="M5183 5405c-1,0 -3,0 -4,0 -157,-3 -282,-145 -280,-236 1,-93 132,-204 283,-204 2,0 4,0 5,0 72,1 143,27 200,72 54,43 86,96 85,142 -1,88 -134,226 -289,226zm-1 -385l0 0c-130,0 -227,98 -228,150 -1,59 101,177 226,180 128,2 236,-113 237,-172 0,-53 -96,-155 -231,-157 -1,-1 -2,-1 -4,-1z"/>
   <path class="fil5" d="M5474 4617c-2,73 -122,201 -265,199 -143,-3 -254,-135 -253,-208 1,-73 117,-179 260,-177 143,2 259,112 258,186z"/>
   <path class="fil1" d="M5212 4843c-1,0 -2,0 -4,0 -71,-1 -142,-31 -199,-84 -51,-48 -82,-106 -81,-152 1,-45 34,-97 88,-138 58,-44 129,-67 201,-66 71,1 142,27 199,72 54,43 86,96 85,142 -1,88 -133,226 -289,226zm-1 -384l0 0c-77,0 -134,34 -161,54 -45,34 -66,72 -66,95 -1,24 19,69 63,110 27,25 85,68 162,70 1,0 2,0 4,0 126,0 232,-113 233,-172 0,-23 -19,-62 -64,-97 -47,-37 -108,-59 -166,-60 -2,0 -3,0 -5,0z"/>
   <path class="fil5" d="M5592 3651c-1,74 -122,202 -265,199 -143,-2 -254,-134 -253,-207 1,-74 117,-180 260,-177 143,2 259,112 258,185z"/>
   <path class="fil1" d="M5331 3878c-2,0 -3,0 -5,0 -157,-3 -281,-145 -280,-236 1,-46 34,-98 88,-138 58,-44 129,-67 201,-66 71,1 142,27 199,72 54,43 86,96 86,142 -2,88 -134,226 -289,226zm-2 -385l0 0c-77,0 -134,34 -161,55 -45,34 -66,72 -66,95 -1,59 100,177 225,179 1,0 2,0 4,0 126,0 232,-112 233,-171 0,-23 -19,-62 -64,-97 -47,-38 -108,-60 -166,-61 -2,0 -3,0 -5,0z"/>
   <path class="fil5" d="M5211 5935c90,-20 190,89 223,242 34,153 -37,203 -119,246 -181,93 -202,-8 -235,-161 -33,-153 41,-308 131,-327z"/>
   <path class="fil1" d="M5201 6487c-18,0 -34,-4 -48,-11 -62,-29 -79,-107 -100,-207 -17,-78 -9,-162 21,-232 30,-70 78,-118 131,-129 54,-12 111,11 160,64 45,49 80,120 97,199 37,172 -50,233 -135,277 -50,26 -91,39 -126,39zm32 -527l0 0c-6,0 -11,1 -16,2l0 0c-35,8 -70,44 -92,97 -26,60 -32,131 -18,197 18,82 33,153 69,170 25,12 68,3 126,-28 77,-40 134,-81 105,-216 -15,-69 -44,-130 -83,-172 -30,-32 -62,-50 -91,-50z"/>
   <path class="fil5" d="M5511 5603c39,-30 206,2 273,128 36,69 -16,246 -89,320 -55,55 -111,36 -178,-91 -66,-127 -65,-313 -6,-357z"/>
   <path class="fil1" d="M5638 6108c-5,0 -9,0 -13,-1 -46,-7 -88,-49 -132,-134 -72,-136 -71,-338 1,-392 33,-25 91,-15 114,-10 87,20 162,75 200,147 44,84 -17,275 -93,352 -25,25 -51,38 -77,38zm-83 -488l0 0c-15,0 -25,3 -28,5 -41,31 -50,199 15,322 45,86 77,103 91,105 5,1 19,3 42,-21 71,-72 111,-235 84,-287 -45,-86 -136,-113 -163,-119 -16,-3 -30,-5 -41,-5z"/>
   <path class="fil5" d="M5784 5131c52,-41 188,18 232,136 23,63 -69,214 -129,280 -43,48 -96,52 -139,-66 -44,-118 -15,-311 36,-350z"/>
   <path class="fil1" d="M5832 5606c-5,0 -10,0 -14,-1 -39,-7 -71,-45 -96,-115 -45,-121 -20,-331 45,-381 25,-20 63,-24 105,-12 57,16 136,68 170,160 32,86 -87,257 -134,309 -29,32 -56,40 -76,40zm-31 -453l0 0c-36,27 -70,203 -27,318 25,69 48,78 55,80 13,2 29,-13 37,-22 68,-75 140,-209 124,-253 -25,-67 -85,-112 -133,-126 -24,-7 -45,-6 -56,3z"/>
   <path class="fil5" d="M6195 4752c64,-10 221,226 202,270 -15,37 -116,93 -183,118 -61,23 -119,45 -139,-79 -21,-124 57,-299 120,-309z"/>
   <path class="fil1" d="M6145 5186c-14,0 -28,-3 -41,-11 -30,-17 -48,-51 -57,-109 -10,-62 2,-141 31,-212 14,-36 54,-120 113,-130 36,-5 83,28 139,100 5,6 118,151 93,209 -23,52 -144,112 -200,133 -24,10 -51,20 -78,20zm54 -407l0 0c-13,3 -43,30 -70,96 -25,62 -35,130 -27,182 6,38 17,63 30,70 15,9 44,-2 72,-13 78,-29 155,-80 167,-102 1,-22 -49,-119 -114,-188 -34,-37 -53,-45 -58,-45l0 0z"/>
   <path class="fil0" d="M1780 3195c321,-266 899,205 899,205 266,-166 430,84 430,84 180,-162 430,84 430,84 256,-116 292,60 356,90 -236,-457 51,-680 282,-680 171,0 374,109 387,256 208,-378 763,-243 740,175 -4,87 -8,200 -65,305 351,-27 535,636 -118,586 0,0 19,271 29,715 171,-91 381,-207 392,-239 18,-52 -79,-239 -7,-268 45,-18 184,-3 206,146 208,-206 350,62 268,183 -47,69 -128,148 -237,170 0,0 -463,483 -584,545 -10,6 -21,8 -32,9 0,181 -2,376 -6,583 -3,135 -28,251 -69,348 18,7 37,15 56,25 121,58 292,292 465,438 0,0 173,-530 648,-230 -5,312 -175,652 -666,864 -139,60 -359,11 -336,-258 16,-188 -195,-407 -431,-520 -96,64 -192,94 -266,107 -415,72 -927,-58 -1098,-291 -302,-413 1260,-1567 653,-2526 -605,-2 -1791,-154 -2080,-185 -322,-34 -410,-217 -414,-311 -8,-178 86,-342 168,-410z"/>
   <path class="fil1" d="M5473 7640c-57,0 -111,-16 -154,-47 -52,-38 -111,-114 -99,-264 16,-179 -193,-382 -401,-486 -100,64 -198,91 -263,102 -435,76 -950,-62 -1125,-302 -134,-182 50,-471 282,-836 319,-502 715,-1126 378,-1679 -506,-3 -1378,-104 -1849,-159 -95,-11 -170,-20 -219,-25 -337,-36 -434,-229 -439,-337 -8,-181 84,-355 179,-433l17 21 -17 -21c308,-256 821,117 918,192 224,-128 381,18 432,79 148,-105 337,4 432,90 138,-57 218,-31 270,8 -67,-194 -30,-326 20,-407 68,-113 202,-186 341,-186 0,0 1,0 1,0 159,1 340,87 397,216 125,-171 321,-208 471,-165 185,53 298,213 287,409l0 12c-4,77 -9,171 -49,264 99,8 190,66 248,161 66,108 72,234 14,329 -66,108 -205,162 -394,154 4,80 17,309 26,639 286,-153 332,-194 339,-203 3,-15 -8,-56 -15,-87 -19,-75 -43,-170 24,-196 33,-14 95,-12 148,18 29,17 64,47 84,102 81,-63 165,-70 230,-16 75,63 97,189 45,265 -30,45 -114,150 -246,180 -57,60 -468,484 -585,545 -5,3 -11,5 -17,7 0,187 -2,376 -7,561 -2,122 -23,234 -60,332 11,5 21,10 32,15 75,35 159,126 258,230 59,64 121,130 183,186 32,-73 115,-227 270,-283 120,-43 256,-17 404,77 9,5 13,14 13,23 -6,521 -430,781 -682,889 -40,17 -81,26 -122,26zm-656 -857l0 0c4,0 8,1 12,3 311,149 460,388 447,547 -9,99 17,173 75,215 67,48 159,42 222,15 237,-102 634,-344 648,-823 -127,-77 -242,-98 -342,-62 -176,63 -250,283 -251,285 -3,9 -10,16 -19,18 -9,3 -18,1 -25,-5 -75,-63 -148,-141 -218,-216 -90,-96 -176,-187 -241,-218 -18,-9 -36,-17 -54,-24 -7,-2 -13,-8 -16,-15 -3,-7 -3,-14 0,-21 42,-98 64,-212 67,-339 4,-192 7,-388 6,-582 0,-15 12,-27 26,-28 8,0 15,-2 22,-5 92,-48 417,-374 576,-540 4,-4 9,-7 14,-8 118,-24 193,-119 220,-159 36,-52 18,-147 -35,-191 -51,-43 -119,-27 -190,44 -8,7 -19,9 -29,6 -10,-3 -17,-12 -18,-22 -8,-50 -31,-87 -69,-109 -39,-22 -82,-22 -100,-15 -21,9 -1,89 10,132 13,51 23,91 13,119 -6,17 -16,48 -405,254 -9,5 -19,4 -27,0 -8,-5 -14,-14 -14,-24 -10,-437 -29,-710 -29,-713 0,-8 3,-16 8,-21 6,-6 14,-9 22,-8 184,13 317,-31 374,-126 47,-75 41,-182 -13,-271 -56,-91 -147,-142 -243,-134 -10,1 -20,-4 -26,-13 -5,-8 -6,-19 -1,-28 52,-95 58,-199 62,-282l1 -12c9,-169 -88,-307 -247,-353 -144,-41 -337,3 -442,194 -6,10 -18,16 -30,13 -12,-2 -21,-12 -22,-24 -12,-132 -199,-231 -359,-231 0,0 -1,0 -1,0 -120,0 -235,62 -294,159 -52,85 -88,238 38,480 5,11 3,24 -5,32 -8,9 -21,11 -31,6 -22,-10 -38,-29 -56,-49 -49,-56 -104,-119 -278,-41 -10,5 -23,3 -31,-5 0,-1 -61,-60 -141,-98 -101,-49 -185,-44 -251,15 -6,5 -14,8 -22,7 -8,-2 -15,-6 -19,-13 -7,-9 -153,-225 -392,-75 -10,6 -23,5 -33,-2 -1,-2 -144,-117 -324,-199 -233,-107 -415,-109 -539,-7 -82,68 -165,227 -159,388 4,85 90,253 390,285 49,5 124,14 220,25 440,51 1357,158 1857,159 10,0 19,5 24,13 370,585 -40,1232 -371,1751 -211,333 -394,621 -283,773 161,221 661,352 1070,281 63,-11 159,-38 256,-103 4,-3 10,-5 15,-5z"/>
   <path class="fil0" d="M2560 6026c-132,225 -158,541 101,906 73,102 252,163 352,-39 92,-186 490,-240 726,-138 0,0 126,-353 -294,-396 -111,-11 -335,83 -522,112 0,0 106,-454 -363,-445z"/>
   <path class="fil1" d="M2834 7054c-73,0 -149,-40 -195,-106 -134,-188 -325,-559 -103,-936 5,-9 14,-14 24,-14 148,-2 257,39 325,123 85,105 81,247 72,316 67,-13 137,-33 205,-52 116,-32 216,-60 286,-53 141,14 240,64 293,148 80,126 27,278 25,284 -3,8 -8,14 -15,17 -7,3 -15,3 -22,0 -263,-113 -618,-24 -691,124 -57,115 -134,144 -189,149 -5,0 -10,0 -15,0zm-258 -1001l0 0c-193,346 -16,688 108,862 32,46 94,88 161,83 57,-4 107,-45 143,-117 97,-196 483,-253 733,-163 9,-45 20,-134 -27,-208 -44,-69 -128,-110 -252,-123 -59,-6 -159,22 -265,52 -83,23 -168,47 -249,59 -9,2 -19,-1 -25,-8 -6,-7 -9,-16 -7,-25 1,-2 43,-190 -54,-309 -55,-68 -144,-102 -266,-103z"/>
   <path class="fil2" d="M2527 5907c0,0 -64,95 -88,209 -16,73 113,119 315,180 0,0 139,-71 110,-180 -30,-109 -143,-278 -337,-209z"/>
   <path class="fil1" d="M2757 6326l-11 -3c-215,-65 -355,-115 -335,-213 25,-117 91,-214 93,-218l6 -8 8 -3c75,-27 145,-23 209,10 90,48 145,147 163,218 35,129 -117,209 -123,212l-10 5zm-212 -396l0 0c-15,25 -60,103 -79,192 -12,53 162,107 285,144 27,-17 105,-71 86,-143 -16,-60 -61,-144 -136,-183 -47,-24 -99,-28 -156,-10z"/>
   <path class="fil2" d="M2449 6078c0,0 -68,168 35,504 0,0 271,-53 308,-264 19,-111 -149,-309 -343,-240z"/>
   <path class="fil1" d="M2465 6614l-8 -23c-105,-342 -37,-516 -34,-523l5 -12 12 -4c94,-33 194,-13 276,56 73,62 115,148 103,215 -16,95 -79,175 -181,231 -76,41 -146,55 -149,56l-24 4zm6 -514l0 0c-12,42 -42,192 32,449 64,-19 235,-82 261,-235 8,-47 -27,-116 -84,-164 -62,-52 -138,-70 -209,-50z"/>
   <path class="fil4" d="M5226 3523c-36,185 -215,306 -400,270 -185,-36 -305,-215 -269,-400 36,-185 215,-305 400,-269 184,36 305,215 269,399z"/>
   <path class="fil1" d="M4891 3827c-23,0 -46,-3 -70,-7 -97,-19 -180,-74 -235,-156 -55,-82 -75,-180 -56,-276 39,-200 233,-330 432,-291 199,38 330,232 291,432 -34,175 -189,298 -362,298zm0 -682l0 0c-146,0 -278,104 -307,253 -16,82 1,166 48,235 47,69 117,116 199,132 170,33 334,-78 367,-247 34,-169 -77,-334 -247,-367 -20,-4 -40,-6 -60,-6z"/>
   <path class="fil6" d="M5119 3503c-24,126 -146,208 -272,183 -126,-24 -208,-146 -184,-272 25,-126 147,-208 273,-184 126,25 208,147 183,273z"/>
   <path class="fil1" d="M5038 3487c-16,80 -94,133 -175,117 -81,-15 -134,-94 -118,-174 16,-81 94,-134 175,-118 81,16 133,94 118,175z"/>
   <path class="fil4" d="M5123 3384c-13,67 -79,111 -146,98 -67,-13 -111,-78 -98,-146 13,-67 78,-111 146,-98 67,13 111,78 98,146z"/>
   <path class="fil4" d="M4519 3476c-34,171 -199,282 -369,249 -171,-34 -282,-199 -249,-369 33,-171 199,-282 369,-249 171,33 282,199 249,369z"/>
   <path class="fil1" d="M4210 3758c-22,0 -44,-2 -66,-6 -89,-18 -167,-69 -218,-145 -51,-76 -70,-167 -52,-257 36,-185 216,-306 401,-270 90,17 168,69 219,145 51,75 69,167 52,256 -32,164 -176,277 -336,277zm0 -629l0 0c-135,0 -255,95 -282,232 -14,75 1,152 44,215 43,64 108,107 183,121 155,31 306,-71 336,-226 15,-75 0,-152 -43,-215 -43,-64 -108,-107 -183,-122 -19,-3 -37,-5 -55,-5z"/>
   <path class="fil6" d="M4420 3457c-22,116 -135,192 -251,170 -117,-23 -192,-136 -170,-252 23,-116 136,-192 252,-170 116,23 192,136 169,252z"/>
   <path class="fil1" d="M4345 3442c-15,75 -87,123 -161,109 -75,-15 -124,-87 -109,-161 14,-75 87,-124 161,-109 75,14 123,87 109,161z"/>
   <path class="fil4" d="M4424 3347c-13,62 -73,103 -135,91 -62,-12 -103,-73 -91,-135 12,-62 73,-102 135,-90 62,12 103,72 91,134z"/>
   <path class="fil1" d="M4738 2977c47,-200 466,-408 551,98 149,-426 -461,-678 -551,-98z"/>
   <path class="fil1" d="M3976 2948c47,-200 466,-408 551,98 149,-427 -461,-678 -551,-98z"/>
   <path class="fil5" d="M2416 3609c-56,87 -148,127 -205,90 -57,-37 -56,-137 0,-224 57,-87 149,-127 206,-90 56,37 56,137 -1,224z"/>
   <path class="fil1" d="M2259 3741c-23,0 -44,-6 -63,-19 -36,-23 -55,-64 -55,-116 0,-48 17,-100 47,-146 30,-47 71,-83 115,-102 47,-21 93,-19 129,4 35,23 55,64 55,117 0,47 -17,99 -47,145 -31,47 -72,83 -115,102 -23,10 -45,15 -66,15zm109 -342l0 0c-16,0 -32,6 -43,10 -34,15 -66,44 -90,81 -25,38 -39,79 -39,116 0,19 4,53 30,70 26,17 59,7 77,-1 33,-15 66,-43 90,-81 25,-37 38,-79 38,-116 0,-18 -4,-53 -30,-70 -10,-7 -22,-9 -33,-9z"/>
   <path class="fil2" d="M2822 4478c-87,3 -135,288 148,290 283,3 815,-25 1017,-86 -186,561 -972,1288 -690,1759 333,557 1289,528 1333,13 44,-516 201,-2118 337,-2395 0,0 -420,52 -1037,42 -423,66 -325,351 -1108,377z"/>
   <path class="fil1" d="M4067 6877c-289,0 -620,-131 -794,-422 -191,-320 80,-742 343,-1151 126,-197 256,-400 327,-582 -230,52 -697,76 -974,74 -177,-2 -241,-109 -242,-201 -1,-80 40,-143 94,-145l0 0c462,-15 606,-118 746,-218 94,-67 183,-131 359,-158 2,-1 3,-1 5,-1 607,10 1028,-41 1032,-41 10,-1 20,3 26,11 6,9 7,20 3,29 -130,265 -286,1811 -334,2384 -17,200 -162,346 -399,400 -60,14 -125,21 -192,21zm-80 -2223l0 0c7,0 14,3 20,8 7,8 9,18 6,28 -67,202 -211,427 -351,644 -253,395 -514,802 -341,1093 201,336 627,444 926,375 211,-49 341,-177 355,-351 2,-20 165,-1921 321,-2359 -126,13 -497,45 -991,37 -161,25 -241,82 -333,148 -140,100 -298,213 -776,229 0,0 0,0 0,0 -17,0 -41,36 -41,88 1,34 15,145 188,146 289,3 814,-26 1009,-85 2,-1 5,-1 8,-1z"/>
   <path class="fil4" d="M2480 3984c0,0 23,311 109,366 0,0 157,-188 184,-328 0,0 -172,-37 -293,-38z"/>
   <path class="fil1" d="M2595 4387l-21 -13c-95,-61 -119,-355 -122,-388l-2 -30 30 0c123,1 292,38 299,39l26 6 -5 27c-28,144 -183,332 -189,340l-16 19zm-85 -374l0 0c11,101 37,241 76,296 38,-49 124,-167 153,-265 -47,-10 -145,-27 -229,-31z"/>
   <path class="fil4" d="M3615 4064c0,0 -45,-212 -118,-247 0,0 -82,118 -113,239 0,0 119,3 231,8z"/>
   <path class="fil1" d="M3650 4094l-36 -2c-111,-5 -229,-8 -231,-8l-34 -1 8 -34c32,-124 114,-243 117,-248l14 -19 21 10c14,7 87,51 133,267l8 35zm-229 -65l0 0c37,1 97,3 158,6 -17,-66 -45,-143 -75,-177 -21,34 -60,101 -83,171z"/>
   <path class="fil1" d="M4374 4970c-335,0 -436,-179 -441,-189 -8,-13 -3,-30 11,-37 13,-8 30,-2 37,11 2,3 167,285 796,89 15,-4 30,4 35,19 4,14 -4,30 -19,35 -169,52 -307,72 -419,72z"/>
   <path class="fil1" d="M4361 5314c-402,0 -551,-237 -559,-249 -8,-14 -3,-31 10,-39 13,-7 30,-3 38,10 9,15 232,364 902,156 15,-4 30,4 35,19 5,14 -4,30 -18,34 -159,50 -294,69 -408,69z"/>
   <path class="fil1" d="M4229 5756c-137,0 -276,-23 -405,-84 -179,-85 -251,-203 -254,-208 -8,-13 -4,-30 9,-38 13,-8 30,-4 38,9 2,2 70,111 234,188 277,130 610,72 841,0 15,-4 30,4 35,18 5,15 -4,31 -18,35 -136,42 -305,80 -480,80z"/>
   <path class="fil1" d="M4101 6308c-169,0 -345,-30 -509,-109 -218,-106 -311,-250 -315,-256 -9,-13 -5,-30 8,-39 13,-8 30,-4 39,9 0,1 90,138 296,237 190,92 521,168 1018,14 14,-5 30,3 35,18 4,15 -4,30 -19,35 -155,48 -350,91 -553,91z"/>
   <path class="fil2" d="M5918 4442c0,0 115,-84 115,-10 0,95 -167,313 -222,311 -55,-2 -167,-103 107,-301z"/>
   <path class="fil1" d="M5812 4771c-1,0 -2,0 -2,0 -35,-1 -78,-27 -92,-74 -17,-54 2,-146 184,-278 26,-19 90,-60 131,-39 10,5 28,19 28,52 0,81 -98,224 -168,292 -43,41 -67,47 -81,47zm193 -342l0 0c-13,1 -45,17 -71,35l0 0c-44,32 -186,142 -163,217 7,23 28,34 41,34 41,-5 193,-200 193,-283 0,-1 0,-2 0,-3z"/>
   <path class="fil2" d="M6051 4568c0,0 115,-84 115,-10 0,95 -167,313 -222,311 -55,-2 -167,-103 107,-301z"/>
   <path class="fil1" d="M5945 4897c-1,0 -2,0 -2,0 -35,-1 -78,-27 -92,-74 -17,-54 2,-146 184,-278 26,-19 90,-60 131,-39 10,5 28,19 28,52 0,81 -98,224 -168,292 -43,41 -67,47 -81,47zm193 -342l0 0c-13,1 -45,17 -71,35l0 0c-44,32 -186,142 -163,217 7,23 28,34 41,34 41,-5 193,-200 193,-283 0,-1 0,-2 0,-3z"/>
   <path class="fil2" d="M6357 6624c0,0 7,138 -39,269 -30,84 -191,51 -435,-12 0,0 -97,-158 0,-252 98,-94 319,-196 474,-5z"/>
   <path class="fil1" d="M6212 6971c-81,0 -196,-27 -336,-63l-10 -3 -6 -9c-5,-8 -108,-179 4,-287 62,-60 178,-127 298,-120 84,5 157,45 216,118l6 7 1 9c0,5 7,144 -41,279 -17,50 -63,69 -132,69zm-310 -114l0 0c194,50 368,88 390,27 37,-106 38,-218 37,-249 -48,-56 -105,-86 -170,-90 -103,-7 -202,52 -257,104 -68,65 -17,176 0,208z"/>
   <path class="fil2" d="M6331 6848c0,0 -35,214 -349,494 0,0 -244,-223 -151,-461 49,-126 345,-224 500,-33z"/>
   <path class="fil1" d="M5982 7379l-19 -17c-3,-2 -65,-59 -116,-148 -69,-119 -83,-238 -42,-344 29,-73 125,-135 235,-152 125,-20 238,21 312,112l8 10 -2 12c-1,9 -40,227 -358,510l-18 17zm117 -611l0 0c-16,0 -33,2 -50,4 -90,14 -171,64 -192,119 -71,180 74,357 126,412 244,-223 305,-401 318,-448 -51,-56 -122,-87 -202,-87z"/>
   <path class="fil1" d="M4172 4721c-94,0 -160,-10 -164,-10 -15,-2 -26,-17 -23,-32 2,-15 16,-25 31,-23 6,1 571,78 719,-237 7,-14 23,-20 37,-13 14,6 20,23 14,37 -69,147 -227,240 -456,268 -57,7 -111,10 -158,10z"/>
   <path class="fil5" d="M4595 4085c0,0 -128,608 -1676,487 0,0 922,-141 1093,-471 0,0 442,-16 583,-16z"/>
   <path class="fil1" d="M3308 4616c-123,0 -253,-5 -391,-16 -14,-1 -25,-12 -26,-27 -1,-14 10,-26 24,-28 9,-1 910,-143 1072,-457 5,-9 14,-14 24,-15 5,0 444,-15 584,-15 8,0 16,3 22,10 5,6 7,15 5,23 -1,7 -37,165 -270,307 -240,145 -590,218 -1044,218zm-167 -59l0 0c399,14 868,-19 1176,-203 153,-91 215,-190 238,-241 -148,2 -454,13 -526,15 -81,138 -289,259 -620,359 -96,29 -189,52 -268,70z"/>
   <path class="fil7" d="M4421 4317c0,0 -184,156 -315,135 -130,-20 -306,69 -335,-21 -30,-91 17,-267 202,-218 186,49 560,-56 448,104z"/>
   <path class="fil1" d="M3847 4500c-48,0 -88,-13 -103,-61 -20,-60 -10,-153 45,-211 32,-34 91,-68 191,-42 65,18 160,14 244,12 122,-4 211,-7 238,42 20,37 -9,79 -19,93l-2 2 -2 3c-8,6 -196,164 -337,142 -47,-8 -103,1 -156,9 -34,5 -68,11 -99,11zm66 -267l0 0c-35,0 -63,11 -84,33 -38,41 -46,112 -32,156 10,30 60,25 141,12 55,-8 117,-18 173,-9 94,15 238,-85 289,-127 15,-23 13,-31 13,-31 -10,-20 -126,-16 -188,-14 -87,3 -186,6 -259,-13 -19,-5 -37,-7 -53,-7z"/>
   <path class="fil7" d="M4177 4235c0,0 -201,8 -247,82l247 -82z"/>
   <path class="fil1" d="M3930 4344c-5,0 -10,-1 -14,-4 -13,-8 -17,-25 -9,-38 52,-84 247,-94 269,-95 15,-1 28,11 29,27 0,15 -12,28 -27,28 -72,3 -196,25 -224,69 -5,9 -14,13 -24,13z"/>
   <path class="fil4" d="M3417 4576c0,0 -46,-200 -108,-228 0,0 -83,139 -87,232 0,0 116,8 195,-4z"/>
   <path class="fil1" d="M3305 4611c-46,0 -82,-3 -85,-3l-27 -2 1 -27c4,-99 88,-239 91,-245l13 -21 22 10c72,32 116,212 124,247l7 30 -30 4c-36,5 -79,7 -116,7zm-52 -57l0 0c32,1 83,2 129,-2 -17,-63 -42,-129 -65,-160 -20,37 -53,105 -64,162z"/>
   <path class="fil4" d="M3113 4563c0,0 -45,-200 -107,-228 0,0 -84,139 -87,232 0,0 115,8 194,-4z"/>
   <path class="fil1" d="M3002 4597c-46,0 -82,-2 -85,-2l-27 -2 1 -27c4,-99 87,-239 91,-245l13 -21 22 10c71,31 115,211 123,247l7 29 -30 5c-36,5 -78,6 -115,6zm-52 -56l0 0c31,1 83,2 129,-2 -17,-64 -42,-129 -66,-161 -20,38 -53,106 -63,163z"/>
  </g>
 </g>
</svg>
