<?xml version="1.0" encoding="UTF-8"?>
<!DOCTYPE svg PUBLIC "-//W3C//DTD SVG 1.1//EN" "http://www.w3.org/Graphics/SVG/1.1/DTD/svg11.dtd">
<!-- Creator: CorelDRAW X8 -->
<svg xmlns="http://www.w3.org/2000/svg" xml:space="preserve" width="0.879094in" height="0.792244in" version="1.1" style="shape-rendering:geometricPrecision; text-rendering:geometricPrecision; image-rendering:optimizeQuality; fill-rule:evenodd; clip-rule:evenodd"
viewBox="0 0 107 97"
 xmlns:xlink="http://www.w3.org/1999/xlink">
 <defs>
  <style type="text/css">
   <![CDATA[
    .fil2 {fill:#FEFEFE}
    .fil0 {fill:#74CBF2}
    .fil1 {fill:#777876}
   ]]>
  </style>
 </defs>
 <g id="Layer_x0020_1">
  <metadata id="CorelCorpID_0Corel-Layer"/>
  <path class="fil0" d="M101 12c0,3 1,4 3,4 2,1 3,-1 3,-4 1,-3 -2,-7 -2,-7 0,0 -3,4 -4,7l0 0z"/>
  <path class="fil1" d="M102 0l-24 22c-1,-1 -3,-1 -4,0l-6 6c-2,-1 -5,0 -7,1l-46 43 -3 -3c-1,-1 -2,-1 -3,0 -1,0 -1,1 0,2l3 4 -7 6 -3 -3 -2 2 15 17 2 -2 -3 -3 8 -7 3 3c1,1 2,1 3,1 0,-1 0,-2 0,-3l-4 -4 47 -43c1,-1 2,-4 1,-6l6 -6c1,-1 2,-2 1,-4l24 -22c0,0 0,-1 0,-1 0,0 -1,0 -1,0l0 0z"/>
  <path class="fil2" d="M69 37l-24 22 -1 -1 -1 -2 -3 -3 23 -22c2,-1 4,-1 6,1 2,1 1,4 0,5l0 0z"/>
 </g>
</svg>
