<?xml version="1.0" encoding="UTF-8" standalone="no"?>
<svg xmlns:rdf="http://www.w3.org/1999/02/22-rdf-syntax-ns#" xmlns="http://www.w3.org/2000/svg" xml:space="preserve" height="62.54" viewBox="0 0 190.08513 62.540312" width="190.09" version="1.1" xmlns:cc="http://creativecommons.org/ns#" xmlns:dc="http://purl.org/dc/elements/1.1/"><g transform="matrix(1.25 0 0 -1.25 -285.13 524.9)"><g style="" transform="matrix(.25 0 0 .25 228.1 296.18)"><path d="m458.78 494.96c-7.5464 0.0151-16.084 0.0202-24.359-5.938-1.0419-0.7637-3.94-3.3533-8.7045-7.6828l-227.86-0.0101 4.719 13.646h-202.57l83.348-40.574-1.5882-6.5449-65.97-0.0152 56.213-34.565-24.718-91.83 71.301-26.584s72.712 62.525 182.72 62.525c110.03 0 183.79-62.54 183.79-62.54 0.0101-0.0152 78.225 30.382 78.225 30.382l-33.979 131.37 78.933 38.359h-149.49" fill="#a5acaf"/><path d="m190.61 476.21 4.7544 13.616h-173.04l67.057-32.638-3.6315-14.506-51.595-0.0961 43.821-26.948-24.5-91.011 64.032-23.883s70.385 61.782 183.81 61.782 184.81-61.782 184.81-61.782l71.078 27.621-33.888 131.02 62.611 30.433h-123.53c-7.1063 0.005-14.44 0.0101-21.395-4.9871-1.2543-0.9205-6.8179-5.953-9.7414-8.6185h-240.65" fill="#004c54"/><path d="m526.27 416.58c-2.5846 9.4683-9.8881 16.261-19.458 18.694l12.989 7.43-5.8267 21.86 43.402 21.157h-95.037c-6.7471 0.005-13.12 0.0152-18.987-4.2132-1.3657-0.9964-10.551-9.3873-10.551-9.3873h-248.01l4.7594 13.616h-136.55l48.176-22.078h-0.1416l-6.99-25.451h-32.517l35.481-20.773h-9.0839l-23.838-88.538s42.329 22.31 83.495 35.648c-41.15-16.97-65.734-33.21-73.498-38.7l44.558-17.6s30.312 24.718 83.267 41.692l-16.145 23.216 21.415-21.592c11.805 3.5658 24.667 6.7118 38.5 9.1092l-3.5203 24.364c1.6489-4.5116 4.6533-12.817 5.7559-15.993 1.5426-4.456 6.0188-6.7927 10.637-6.3982 12.513 1.0773 25.618 2.5694 39.431 2.8374l2.9134 22.922 2.9133-22.872c21.01-0.1113 40.559-2.2558 58.444-5.6648l13.201 23.509-7.3693-24.682c22.118-4.6532 41.535-11.193 57.857-18.016l29.68 26.367-23.843-28.885c33.731-14.941 52.688-30.408 52.688-30.408l54.706 22.128c-7.0354 4.4863-29.219 17.738-65.949 31.602 10.662-3.4849 24.172-8.0521 34.596-12.124 20.1-7.8346 41.889-18.411 41.889-18.411l-23.428 85.634"/><g fill="#a5acaf"><path d="m207.94 453.28h0.7233l1.5982-32.32h-12.968l10.647 32.32zm92.609-19.872h-31.172l10.596-8.8765-0.258-21.673s-14.036-0.8598-15.077 0.1264c-1.0166 0.956-0.9256 3.6316-0.7789 7.6677l2.2305 41.075-3.237 3.7125h17.768v-13.039l19.933-0.0152v17.905l-9.529 8.5478h-59.713l10.308-14.167-3.5506-46.633v-0.0455-0.1011c-0.0202-2.7313-0.0202-5.3209 0.44-7.7284l-7.9459-1.0217-3.3887 69.728h-37.914l-27.161-74.629-35.749-9.8679 5.3562 26.761h28.531l7.784 23.206-31.404 0.0151 5.0478 23.934h18.188l14.182-8.0319 11.38 32.542h-118.93l48.176-22.072h-11.375l-6.9849-25.446h-23.919l35.476-20.773h-17.672l-21.491-79.853s55.232 29.148 113.79 42.43c0.1062 0.0253 7.6576 23.413 7.6576 23.413l-6.4589 3.9704h27.404l1.1026-22.285 27.161 4.7392 0.6677 9.0991c0.3894-0.693 0.8547-1.3808 1.4364-2.0636 1.4061-1.5224 3.2016-2.6959 5.508-3.6366 4.805-1.9726 9.706-1.6236 14.895-1.2645-0.0101 0 38.935 2.4025 38.935 2.4025l-0.2428 41.95"/><path d="m368.99 412.59-15.659 0.1517 1.0116-10.455-18.8 0.961 5.685 5.1894-3.1764 46.998h7.3643l-0.698 13.398h-47.063l15.366-14.552 0.6424-50.847-10.186-12.073 2.6503 0.0151c14.187 0.1113 36.25-0.1618 64.017-3.8642l1.5376-0.2073-2.6908 25.284"/><path d="m442.15 412.63-22.047 0.0101 3.3988-20.332-25.638 4.026 4.8859 3.667-2.6149 20.783h16.918l-2.1243 13.514h-16.372l-2.4632 21.137h18.163l2.2103-13.236h20.737l-4.3194 26.635h-82.079l19.736-14.476 6.211-66.678 0.0961-0.9508 0.9458-0.1467 4.3245-0.6424c18.325-2.7565 67.472-14.106 67.472-14.106l-7.4401 40.797"/></g><g fill="#004c54"><path d="m155.2 396.07-17.106-4.3902 1.8612 9.4986h17.004l-1.7601-5.1084"/><path d="m156.83 446.86 13.858-7.3541-0.9104-1.75h-21.992l1.9675 9.1041h7.076"/><path d="m267.85 406.39 0.6474 16.772 5.5485-5.0326-0.2378-11.436-5.9581-0.3035"/><path d="m269.42 437.47 0.4198 8.1988h4.9466l-0.1922-8.1988h-5.1742"/><path d="m360.36 448.43 2.4834-31.546-15.437-0.081 0.5058-10.121-2.5845 0.1113-2.6301 38.88h8.4162l-0.875 10.434 10.121-7.6778"/><path d="m406.8 438.38h-6.1403l-1.1127 7.2935h6.034l1.219-7.2935"/><path d="m405.61 398.73-1.5477 12.296h7.2327l2.1294-13.403-7.8144 1.1076"/><path d="m432.15 432.44c1.3605-4.0767 3.7478-8.9322 8.7551-13.277l-20.287 0.0101-2.0839 13.267h13.616"/><path d="m479.67 437.16-4.4509 17.95 1.5173 2.271h-4.9668l3.5355-14.921c0.4248-2.6149 2.0686-5.1034 4.3649-5.3006"/><path d="m480.44 409.17c2.7717-0.8042 3.8642-2.8324 5.3006-7.7638l5.9936-25.102-3.9957 1.3555-7.2985 31.51"/></g><g fill="#fff"><path d="m440.11 410.18-17.202 0.0304 3.5556-20.838-34.677 5.4524 8.3606 6.2869-2.7767 22.113h16.817l-1.3454 8.6338h-16.453l-3.0449 26.012h22.973l2.2153-13.226h15.801l-3.5355 21.744h-72.535l14.607-10.712 6.2312-66.819c6.0391-0.9407 40.256-6.3678 67.386-13.646l-6.378 34.97"/><path d="m356.01 410.26 1.0268-10.561-27.469 1.4011 9.1345 8.3404-3.2725 48.429h7.4098l-0.4502 8.5174h-38.612l11.663-11.046 0.6676-52.789-7.3541-8.7147c14 0.0506 34.641-0.3996 60.163-3.7074l-2.1344 20.034-10.773 0.0961"/><path d="m276.1 430.95 6.3324-5.2956-0.3035-25.102s-9.2558-0.5665-9.2154-0.5665c-5.1135-0.4754-8.219-0.4299-9.9488 1.2089-1.8208 1.7196-1.7196 4.6583-1.5426 9.534l2.1799 40.134-6.1099 7.0051h25.572v-13.039l15.047-0.0102v14.374l-8.0218 7.1922h-53.982l8.0166-11.016s-3.6113-47.529-3.6113-47.503c-0.0202-3.2674-0.0455-6.3577 0.7587-8.8108 0.4502-1.0773 1.0166-2.3418 2.0029-3.4899 1.1279-1.2139 2.6352-2.185 4.6077-2.9943 4.284-1.75 8.9069-1.4313 13.808-1.0874l36.644 2.2659-0.2124 37.2h-22.022"/><path d="m210.98 455.72h-4.81l-12.255-37.216h18.901l-1.836 37.216zm26.706-58.125-0.6373-8.6085-22.563-3.9299-1.0773 21.84h-38.344l12.159-7.4857-6.641-20.262c-49.99-11-96.979-34.07-108.09-39.74l19.554 72.646h24.804l-35.481 20.773h16.782l6.9849 25.451h20.697l-48.176 22.072h104.31l-9.2811-26.544-12.2 6.9091h-20.813l-6.0796-28.815 31.015-0.0202-6.1301-18.31h-28.784l-6.5246-32.613 40.782 11.259 27.014 74.199h33.878l3.3989-70.031 9.438 1.2088"/></g><path d="m523.42 415.81c-2.9184 10.657-12.579 17.526-24.617 17.526l-14.046 0.0202c-8.3455 0.1011-10.591 0.1264-12.609 8.3859 0.0101-0.0506-3.0398 15.017-3.0398 15.017-0.9256 4.1676-0.9003 6.7927 0.0708 8.0268 1.1127 1.4111 3.935 1.4668 7.5008 1.5325l0.1568 0.0101h15.629l-8.9422-4.2637 4.1474-16.413h28.284l-5.4726 20.484 34.135 16.65h-82.311c-6.5196 0.005-12.164 0.0101-17.257-3.6569-8.9828-6.56-6.6865-16.286-5.5839-20.96-0.0101 0.0405 3.0246-15.027 3.0246-15.027 2.883-15.421 13.727-23.59 31.349-23.59h6.7117c10.9-0.1365 14.177-4.633 16.656-13.444-0.0102 0.0557 6.6713-28.466 6.6713-28.466 1.1734-4.5066 0.7789-6.0492 0.2377-6.55-1.3252-1.229-12.452 2.5441-12.452 2.5441-0.0606 0.0203-5.0679 1.3606-6.9697 1.8563l-8.2139 37.135h-28.815l8.8512-42.744c0.3187-0.0961 32.097-9.8881 52.339-17.783 20.242-7.8902 36.28-15.679 36.28-15.679l-21.713 79.388" fill="#a5acaf"/><path d="m498.8 430.89-14.071 0.0152c-8.568 0.1163-12.478 0.1568-14.966 10.303 0 0-3.0549 15.057-3.0448 15.032-1.1178 5.0578-0.956 8.1532 0.5412 10.05 1.8309 2.3165 5.1489 2.3823 9.3671 2.4784h0.1872 26.448l-16.888-8.0521 3.1966-12.624h23.2l-5.164 19.361 26.432 12.887h-71.736c-6.0998 0.0101-11.38 0.0101-15.826-3.1965-7.6677-5.589-5.7002-13.94-4.633-18.456 0 0 3.0448-15.062 3.0448-15.082 2.6756-14.334 12.422-21.602 28.946-21.602h6.7219c12.341-0.172 16.312-5.7103 19.012-15.285 0 0 6.6814-28.516 6.6713-28.491 1.2443-4.7797 1.1077-7.4553-0.4653-8.9221-2.3873-2.2305-7.0203-0.6575-14.693 1.9473 0 0-0.2125 0.0708-0.1265 0.0455l-8.3353 2.2305-8.1078 36.654h-23.903l7.3238-38.192c4.7443-1.4667 33.129-10.343 51.808-17.616 15.361-5.9986 26.857-11.213 31.622-13.429-3.6467 13.328-20.302 74.219-20.302 74.219-1.9877 7.2529-9.0131 15.725-22.26 15.725" fill="#fff"/></g></g></svg>
