<svg id="Layer_1" data-name="Layer 1" xmlns="http://www.w3.org/2000/svg" viewBox="0 0 170.08 170.08"><defs><style>.cls-1{fill:#1a3a67;}.cls-2{fill:#fff;}</style></defs><circle class="cls-1" cx="85.04" cy="85.04" r="85.04"/><path class="cls-2" d="M141.73,87.56a54.18,54.18,0,1,0,54.18,54.17,54.23,54.23,0,0,0-54.18-54.17Zm0,102.49a48.32,48.32,0,1,1,48.32-48.32,48.17,48.17,0,0,1-48.32,48.32Zm0,0" transform="translate(-56.69 -56.69)"/><path class="cls-2" d="M123.21,129.43a5.63,5.63,0,0,1,5.71,5.71h5.86a11.57,11.57,0,0,0-23.13,0h5.85a5.63,5.63,0,0,1,5.71-5.71Zm0,0" transform="translate(-56.69 -56.69)"/><path class="cls-2" d="M160.25,129.43a5.63,5.63,0,0,1,5.71,5.71h5.86a11.57,11.57,0,0,0-23.14,0h5.86a5.63,5.63,0,0,1,5.71-5.71Zm0,0" transform="translate(-56.69 -56.69)"/><path class="cls-2" d="M141.63,171.75A34,34,0,0,0,170,156.33l-4.92-3.18a27.82,27.82,0,0,1-46.77,0l-4.92,3.18a34,34,0,0,0,24.41,15.2,32.11,32.11,0,0,0,3.79.22Zm0,0" transform="translate(-56.69 -56.69)"/></svg>