<svg id="Layer_1" data-name="Layer 1" xmlns="http://www.w3.org/2000/svg" viewBox="0 0 170.08 170.08"><defs><style>.cls-1{fill:#1a3a67;}.cls-2{fill:none;stroke:#fff;stroke-miterlimit:10;stroke-width:4px;}</style></defs><circle class="cls-1" cx="85.04" cy="85.04" r="85.04"/><path class="cls-2" d="M184.78,134.57a4.32,4.32,0,0,0-.35-6.18L144,93a5.05,5.05,0,0,0-6.58.07L96.83,130.29a4.29,4.29,0,0,0-.2,6.16l1,1.06a4.44,4.44,0,0,0,6.09.47l3-2.72V175a4.41,4.41,0,0,0,4.41,4.42H127a4.42,4.42,0,0,0,4.42-4.42V147.2H151.6V175a4.17,4.17,0,0,0,4.15,4.41h16.76a4.41,4.41,0,0,0,4.42-4.41v-39.2l1.87,1.64c1,.9,3.2.18,4.84-1.62Zm0,0" transform="translate(-56.69 -56.69)"/></svg>