<svg id="Layer_1" data-name="Layer 1" xmlns="http://www.w3.org/2000/svg" viewBox="0 0 170.08 170.08"><defs><style>.cls-1{fill:#1a3a67;}.cls-2{fill:#fff;}</style></defs><circle class="cls-1" cx="85.04" cy="85.04" r="85.04"/><path class="cls-2" d="M201.85,166.74c0-3.2-3.18-5.59-.32-9.73a1.53,1.53,0,0,0,0-1.63,25.12,25.12,0,0,0-2-3.41c-5.46,3.86-13.26,18.67-15.1,18.66s-.39-6.19,2.9-11.49c.82-1.36.48-1.42.27-1.84a15,15,0,0,0-1.49-2.11c-.33-.27-.74-.82-1.49.06s-9.28,8.35-11.06,10.25c1-2.25,3-6,3.63-7.07.68-1.29.28-1.63-.13-2.11s-1.56-1.91-2-2.25-.75-.41-1.5.33c-3.28,3.19-5.8,4.75-7.78,5.49,1-6.66-11-14-17.57,5.19-4,4.61-8.59,6.65-6.88,1.95,1-2.67,4.59-10.63,7.49-16.6,5.65-.23,12.48-.41,16.51-.29.54.05.85,0,1-.22a.57.57,0,0,0,0-.56v0a9.63,9.63,0,0,0-.41-1.73v0a1.22,1.22,0,0,0-1.32-.89c-1.67,0-8.25.36-14.44.78.65-1.27,1.22-2.35,1.65-3.09a1.77,1.77,0,0,0-.19-1.91,14.68,14.68,0,0,0-2.45-2.52c-.54-.35-.95-.21-1.43.81-.68,1.49-1.84,4.11-3.23,7.12-1.65.13-3.12.26-4.23.37-.89.07-1.44,1-1.71,1.47l-.06.11h0a.72.72,0,0,0,0,.74.77.77,0,0,0,.76.25c.33,0,1.82-.14,4-.25-2.14,4.58-4.57,9.57-6.49,12.79-5.12,7.88-8.86,6.85-7.42,2.84s4.93-9.85,5.54-10.87c.48-.82.62-1.77-.94-1.77-1.37,0-2.59-1.24-2.17-3.82.21-1.43-.81-2-1.43-.89-1.71,3.26-6.42,8-8.66,8.75.34-2.38-1.76-5.52-8.29-5.53-1.51,0-4.67,0-8.5.12,3.24-6.88,6.2-12.79,6.5-13.26a1.13,1.13,0,0,0-.13-1.23A19.26,19.26,0,0,0,109,135.7a1,1,0,0,0-1.49.34c-2.79,5.11-5.44,10.83-7.82,16.41-3.45.11-7.05.24-10.29.41,2.9-6.64,5.65-12.85,6.6-15,.34-.67.55-1.15,0-1.77a29.86,29.86,0,0,0-2.86-2.45,1,1,0,0,0-1.63.47c-1.25,2.7-5.09,11.41-8.49,19.2-.59.05-1.14.1-1.64.16-2.18.27-1.84,2-.07,1.91.27,0,.54,0,.81,0-2.71,6.21-5,11.37-5.07,11.69a2.17,2.17,0,0,0,.27,2.52,23.21,23.21,0,0,0,2.78,2.6c.48.34.88.27,1.3-.61,1.14-2.92,3.63-8.7,6.25-14.71,3.71,2.12,6.09,6.46,5.66,12.64-.07.68-.28,1.49.2,1.9a13.66,13.66,0,0,0,1.69,1.3c.89.41,1.23-.27,1.5-1,1.24-3.87,4.32-10.87,7.36-17.41,3.36-.13,6.16-.18,7-.1-9.82,6.71-8.64,18.35,0,18.37,5.57,0,10.28-7.76,10.51-12.8a26.29,26.29,0,0,0,7.17-5.72,3.78,3.78,0,0,0,.74,1.7c-8.88,11.54-6.71,16-1.68,16.06s7.43-3.52,8.79-5.28c-1.85,6.18,5.29,7.63,11.57.78,1.94,9.11,13.92,6.37,17.3-5.79a24,24,0,0,0,6.61-3.4,75.62,75.62,0,0,0-5.34,10.12c-.34.61-.14,1,.34,1.5a23.45,23.45,0,0,0,2.17,2c.41.41,1,.34,1.7-.47,4.78-5.43,9.83-10.11,10.65-10.92-3.28,3.73-4.46,12.44,1.53,12.46,4.69,0,4-4.28,13.52-15.48-3.16,7.41.45,8.71.44,11.23,0,3.75-4.23,3.25-4.22-.76,0-.54-.2-1.23-.88-.07s-1,1.7-1.3,2.17-.21.89.33,1.23C195,173.93,201.83,173,201.85,166.74Zm-106.27-4.2c-1-3.06-3.25-6.67-5.42-7.36,2-.21,5.23-.43,8.63-.61C97.64,157.32,96.56,160,95.58,162.54Zm16.85,6c-3.81,0-4.74-6.14,1.74-10.81a3.86,3.86,0,0,0,4.88,2.94C118.86,163.19,116.21,168.59,112.43,168.58Zm45.21-9.8c.57,2.67,2.51,3.5,4.87,3.35C158.24,175.7,148,168,157.64,158.78Zm-22.07-51.55c-3.25,6.36-10,22.23-12.83,29.63-.36.93-1.18,1.51-2.44.53s-2-1.69-2.6-2.23-.73-.87-.36-1.82c3.42-8.32,8.9-20.53,12.68-27.17-2.27.08-10.67,1-12.61,1.11-.47.06-.64-.23-1-.77-.6-.86-1.45-2.58-.94-3.26a333.36,333.36,0,0,1,40.45-3c.89,0,1.06.65,1.17,1.18s.36,1.72.47,2.25,0,.9-1,.89c-.77,0-12.3.34-20,.84Zm-1,29.12c-1.4.28-2.09-.36-4-1.51-.86-.5-1.13-.91-.81-1.72a117.76,117.76,0,0,1,7.05-15.93c.49-.84,1.1-.67,1.5-.33.75.73,1.79,1.8,2.31,2.38a1.42,1.42,0,0,1,.17,2l-4.19,9.41c-2.09,4.72,3.25,1.76,7.9-4.52l5.07-7.92c.26-.43.71-.42,1.2-.14s2.52,1.65,2.81,1.91.4.58,0,1.24-3.87,8.33-4.39,9.79a77.39,77.39,0,0,1,10.66-11.92c.65-.53.92-.24,1.26,0s2.35,1.94,2.64,2.17a1,1,0,0,1,.06,1.37c-.89,1.31-2.76,7.33-3.12,8.63a106.82,106.82,0,0,1,9.48-10.78,1.38,1.38,0,0,1,2,0c.65.59,1.81,1.49,2.17,1.94s.28.58-.08,1.13C170,130.25,168.71,136,173,134.93c-2,4.73-9.14,2.69-7.5-2.39,1-3,1.8-5.81,2.88-7.21-3.71,2.85-8,9.29-9.31,11.23a.84.84,0,0,1-1.12.16c-1-.5-2.69-1.31-3.27-1.7s-.36-1.11,0-1.71,2.46-7.49,3.49-8.83a91.12,91.12,0,0,0-10.87,12.09c-.32.47-.7.54-1.36.35s-2.08-1.11-2.65-1.39-.85-.6-.46-1.35c1.14-2.61,2.84-6.39,3.34-7.2C146.07,127,140.94,135.07,134.61,136.35ZM145,113.88a3.43,3.43,0,1,1-1.46-4.82A3.56,3.56,0,0,1,145,113.88Z" transform="translate(-56.69 -56.69)"/><path class="cls-2" d="M206.69,172.79a2.42,2.42,0,1,1-2.41-2.36A2.37,2.37,0,0,1,206.69,172.79Zm-4.24,0a1.83,1.83,0,0,0,1.84,1.88,1.89,1.89,0,0,0,0-3.77A1.84,1.84,0,0,0,202.45,172.79ZM203.9,174h-.54v-2.36a5,5,0,0,1,.9-.07,1.46,1.46,0,0,1,.82.17.66.66,0,0,1,.23.52.61.61,0,0,1-.49.55v0a.68.68,0,0,1,.43.57,1.82,1.82,0,0,0,.18.59h-.59a1.66,1.66,0,0,1-.19-.57c0-.26-.19-.38-.49-.38h-.26Zm0-1.34h.25c.31,0,.55-.1.55-.34s-.16-.36-.5-.36a1.05,1.05,0,0,0-.3,0Z" transform="translate(-56.69 -56.69)"/></svg>