<?xml version="1.0" encoding="utf-8"?>
<!-- Generator: Adobe Illustrator 19.0.0, SVG Export Plug-In . SVG Version: 6.00 Build 0)  -->
<svg version="1.1" id="Capa_1" xmlns="http://www.w3.org/2000/svg" xmlns:xlink="http://www.w3.org/1999/xlink" x="0px" y="0px"
	 viewBox="-42 43.8 414.2 414.2" style="enable-background:new -42 43.8 414.2 414.2;" xml:space="preserve">
<style type="text/css">
	.st0{fill:#FFFFFF;}
</style>
<path class="st0" d="M366.2,214.7l-43.4-9l-50.3-76.3c-1.4-2.1-3.7-3.4-6.3-3.4H38.9c-4.1,0-7.5,3.4-7.5,7.5v64.8h-65.9
	c-4.1,0-7.5,3.4-7.5,7.5s3.4,7.5,7.5,7.5H68.8c4.1,0,7.5-3.4,7.5-7.5s-3.4-7.5-7.5-7.5H46.4v-57.3h215.8l49.8,75.5
	c1.1,1.7,2.8,2.8,4.7,3.2l40.4,8.4v57.3H212V165.9c0-4.1-3.4-7.5-7.5-7.5s-7.5,3.4-7.5,7.5v119.6H46.4v-28.8h22.4
	c4.1,0,7.5-3.4,7.5-7.5s-3.4-7.5-7.5-7.5H46.4v-7c0-4.1-3.4-7.5-7.5-7.5s-7.5,3.4-7.5,7.5v7H12.2c-4.1,0-7.5,3.4-7.5,7.5
	s3.4,7.5,7.5,7.5h19.3V293v49.4c0,4.1,3.4,7.5,7.5,7.5H86c3.4,14.8,16.7,25.8,32.5,25.8c18.4,0,33.3-14.9,33.3-33.3
	S136.8,309,118.5,309c-15.8,0-29,11-32.5,25.8H46.4v-34.4h310.8v34.4h-38.6c-3.4-14.8-16.7-25.8-32.5-25.8s-29,11-32.5,25.8h-82.6
	c-4.1,0-7.5,3.4-7.5,7.5s3.4,7.5,7.5,7.5h82.6c3.4,14.8,16.7,25.8,32.5,25.8s29-11,32.5-25.8h46.1c4.1,0,7.5-3.4,7.5-7.5V293v-70.9
	C372.2,218.5,369.7,215.5,366.2,214.7z M118.5,324c10.1,0,18.3,8.2,18.3,18.3s-8.2,18.3-18.3,18.3s-18.3-8.2-18.3-18.3
	S108.4,324,118.5,324z M286.1,360.7c-10.1,0-18.3-8.2-18.3-18.3S276,324,286.1,324s18.3,8.2,18.3,18.3S296.2,360.7,286.1,360.7z"/>
</svg>
