<?xml version="1.0" encoding="utf-8"?>
<!-- Generator: Adobe Illustrator 19.0.0, SVG Export Plug-In . SVG Version: 6.00 Build 0)  -->
<svg version="1.1" id="Layer_1" xmlns="http://www.w3.org/2000/svg" xmlns:xlink="http://www.w3.org/1999/xlink" x="0px" y="0px"
	 viewBox="0 0 19 19" style="enable-background:new 0 0 19 19;" xml:space="preserve">
<style type="text/css">
	.st0{fill:#002561;}
</style>
<g id="XMLID_1_">
	<path id="XMLID_8_" class="st0" d="M2.5,3.4c0.1,0,0.1,0,0.2,0.1l4.8,4.8l0.9-0.9L3.5,2.6c0,0-0.1-0.1-0.1-0.2L3.1,1.2l-2-1.2l-1,1
		l1.2,2L2.5,3.4z"/>
	<path class="st0" d="M6.8,14.4l7.7-7.7c0.1-0.1,0.2-0.1,0.3-0.1c1,0.3,2.1,0,2.9-0.6C18.5,5.4,19,4.4,19,3.4c0-0.1,0-0.1,0-0.2
		L17.2,5c-0.1,0.1-0.2,0.1-0.3,0.1l-2-0.7c-0.1,0-0.2-0.1-0.2-0.2l-0.7-2c0-0.1,0-0.3,0.1-0.3L15.8,0c-1.1-0.1-2.1,0.4-2.8,1.2
		c-0.7,0.8-0.9,1.9-0.7,3c0,0.1,0,0.2-0.1,0.3l-7.7,7.7c-0.1,0.1-0.2,0.1-0.3,0.1c-0.3-0.1-0.5-0.1-0.8-0.1c-1.5,0-2.8,0.9-3.2,2.3
		c-0.5,1.4,0,2.9,1.1,3.8c1.1,0.9,2.7,1,4,0.2c1.2-0.8,1.8-2.3,1.4-3.7C6.7,14.6,6.7,14.5,6.8,14.4 M4.3,16.9H2.6l-0.8-1.4l0.8-1.4
		h1.6l0.8,1.4L4.3,16.9z M5.6,13L13,5.5L13.5,6L6,13.4L5.6,13z"/>
	<path id="XMLID_4_" class="st0" d="M16.2,18.8c0.8,0.3,1.6,0.1,2.2-0.5c0.6-0.6,0.8-1.4,0.5-2.2L16.2,18.8z"/>
	<path class="st0" d="M18.4,15.4l-3.8-3.8c-0.4,0.4-1,0.3-1.4-0.1c-0.4-0.4-0.4-1-0.1-1.4l-0.5-0.5l-2.9,2.9l0.5,0.5
		c0.4-0.4,1-0.3,1.4,0.1c0.4,0.4,0.4,1,0.1,1.4l3.8,3.8c0,0,0.1,0.1,0.1,0.1l2.9-2.9C18.5,15.5,18.4,15.5,18.4,15.4 M16.4,16.8
		L13,13.4l0.5-0.5l3.4,3.4L16.4,16.8z"/>
</g>
</svg>
