<?xml version="1.0" encoding="utf-8"?>
<!-- Generator: Adobe Illustrator 19.0.0, SVG Export Plug-In . SVG Version: 6.00 Build 0)  -->
<svg version="1.1" id="Capa_1" xmlns="http://www.w3.org/2000/svg" xmlns:xlink="http://www.w3.org/1999/xlink" x="0px" y="0px"
	 viewBox="-73 76 351 351" style="enable-background:new -73 76 351 351;" xml:space="preserve">
<style type="text/css">
	.st0{fill:#FFFFFF;}
</style>
<g>
	<path class="st0" d="M239.4,123.6H43.2c-21.3,0-38.7,17.3-38.7,38.7v9.6c0,4.1,3.4,7.5,7.5,7.5s7.5-3.4,7.5-7.5v-9.6
		c0-13,10.6-23.7,23.7-23.7h196.2c13,0,23.7,10.6,23.7,23.7v28.1H161.9h-2.3H-34.3c-21.3,0-38.7,17.3-38.7,38.7v111.7
		c0,21.3,17.3,38.7,38.7,38.7h196.2c21.3,0,38.7-17.3,38.7-38.7v-88.9H263v22.1c0,13-10.6,23.7-23.7,23.7h-21.1
		c-4.1,0-7.5,3.4-7.5,7.5s3.4,7.5,7.5,7.5h21.1c21.3,0,38.7-17.3,38.7-38.7V162.3C278,140.9,260.7,123.6,239.4,123.6z M219.9,236.8
		h-16.6c0.7-0.4,1.4-0.8,2-1.4l30-30.1h15.8L221,235.5C220.6,235.9,220.2,236.4,219.9,236.8z M199.5,220c-1.3-5.4-3.7-10.4-7-14.7
		h21.7L199.5,220z M185.5,340.7c0,13-10.6,23.7-23.7,23.7H-34.3c-13,0-23.7-10.6-23.7-23.7V229c0-13,10.6-23.7,23.7-23.7h193.9h2.3
		c13,0,23.7,10.6,23.7,23.7V340.7z M240.9,236.8l19.8-19.8v19.8H240.9z"/>
	<path class="st0" d="M27.3,302c-4.1,0-7.5,3.4-7.5,7.5v23.4h-46.4v-36.7H5.5c4.1,0,7.5-3.4,7.5-7.5s-3.4-7.5-7.5-7.5h-39.6
		c-4.1,0-7.5,3.4-7.5,7.5v51.7c0,4.1,3.4,7.5,7.5,7.5h61.4c4.1,0,7.5-3.4,7.5-7.5v-30.9C34.8,305.3,31.5,302,27.3,302z"/>
	<path class="st0" d="M158.9,297.6H71.2c-4.1,0-7.5,3.4-7.5,7.5s3.4,7.5,7.5,7.5h87.7c4.1,0,7.5-3.4,7.5-7.5S163,297.6,158.9,297.6z
		"/>
	<path class="st0" d="M158.9,332.9H71.2c-4.1,0-7.5,3.4-7.5,7.5s3.4,7.5,7.5,7.5h87.7c4.1,0,7.5-3.4,7.5-7.5S163,332.9,158.9,332.9z
		"/>
</g>
</svg>
