<?xml version="1.0" encoding="utf-8"?>
<!-- Generator: Adobe Illustrator 19.0.0, SVG Export Plug-In . SVG Version: 6.00 Build 0)  -->
<svg version="1.1" id="Layer_1" xmlns="http://www.w3.org/2000/svg" xmlns:xlink="http://www.w3.org/1999/xlink" x="0px" y="0px"
	 viewBox="0 0 23.7 15.5" style="enable-background:new 0 0 23.7 15.5;" xml:space="preserve">
<style type="text/css">
	.st0{fill:#002561;}
</style>
<g id="XMLID_1_">
	<polygon id="XMLID_10_" class="st0" points="9.5,4.8 9.5,0 1,0 	"/>
	<polygon id="XMLID_9_" class="st0" points="7.6,5.4 0,1 0,5.4 	"/>
	<polygon id="XMLID_8_" class="st0" points="12.9,6.7 12.9,0 10.9,0 10.9,6.7 0,6.7 0,8.7 10.9,8.7 10.9,15.5 12.9,15.5 12.9,8.7 
		23.7,8.7 23.7,6.7 	"/>
	<polygon id="XMLID_7_" class="st0" points="16.2,10.1 23.7,14.5 23.7,10.1 	"/>
	<polygon id="XMLID_6_" class="st0" points="14.2,10.6 14.2,15.5 22.7,15.5 	"/>
	<polygon id="XMLID_5_" class="st0" points="14.2,0 14.2,4.8 22.7,0 	"/>
	<polygon id="XMLID_4_" class="st0" points="16.2,5.4 23.7,5.4 23.7,1 	"/>
	<polygon id="XMLID_3_" class="st0" points="9.5,10.6 1,15.5 9.5,15.5 	"/>
	<polygon id="XMLID_2_" class="st0" points="0,10.1 0,14.5 7.6,10.1 	"/>
</g>
</svg>
