<?xml version="1.0" encoding="utf-8"?>
<!-- Generator: Adobe Illustrator 26.0.2, SVG Export Plug-In . SVG Version: 6.00 Build 0)  -->
<svg version="1.1" xmlns="http://www.w3.org/2000/svg" xmlns:xlink="http://www.w3.org/1999/xlink" x="0px" y="0px"
	 viewBox="0 0 1971.63 5528.85" style="enable-background:new 0 0 1971.63 5528.85;" xml:space="preserve">
<style type="text/css">
	.st0{fill:none;stroke:#F32735;stroke-width:1.5;stroke-miterlimit:10;}
	.st1{fill:none;stroke:#00A887;stroke-miterlimit:10;}
	.st2{fill:none;stroke:#0082CB;stroke-miterlimit:10;}
	.st3{fill:#FFFFFF;}
	.st4{fill:none;stroke:#939598;stroke-width:1.5;stroke-miterlimit:10;}
</style>
<g id="Artwork_here">
</g>
<g id="Instructions">
	<g>
		<path id="bleed_x2F_cutter_guide_6_" class="st0" d="M59.42,5474.21l2.41-2441.92c-3.95-1702.37,72.87-1832.48,280.37-2228
			c52.1-90.62,119.81-171.47,199.46-250.13C830.4,269.02,1343.67,54.63,1911.79,54.63l1.96,4560.85
			c-654.07,0-1391.66,330.37-1771.82,858.49L59.42,5474.21z"/>
		<path class="st1" d="M132.69,3032.13c-1.93-830.78,15.13-1290.03,58.87-1585.14c41.97-283.16,107.84-408.67,207.55-598.65
			l5.19-9.89c44.88-77.79,104.38-152.14,187.15-233.87c68.59-67.73,150.48-131.14,243.41-188.46
			c95.05-58.63,200.1-109.9,312.21-152.4c116.22-44.05,238.84-78.19,364.47-101.47c108.47-20.1,218.97-32.03,329.41-35.62
			l1.9,4419.2c-652.49,22.55-1336.82,352.97-1712.47,825.96L132.69,3032.13z"/>
		<path class="st2" d="M203.56,3031.97c-1.92-827.02,14.91-1283.2,58.1-1574.58c18.93-127.74,43.09-226.31,78.32-319.63
			c32.65-86.46,72.02-161.49,121.87-256.48l4.51-8.6c41.55-71.71,97.16-140.92,174.87-217.67
			c64.78-63.98,142.44-124.05,230.82-178.56C963.3,420.18,1064.27,370.9,1172.19,330c112.27-42.56,230.79-75.55,352.26-98.05
			c80.84-14.98,163.19-25.31,245.67-30.83l1.84,4277.37c-581.04,38.64-1182.84,311.94-1570.52,706.44L203.56,3031.97z"/>
	</g>
</g>
<g id="mask_-_DO_NOT_REMOVE">
	<path class="st3" d="M0,0l1.55,5528.85h1970.08L1970.08,0H0z M141.93,5473.97l-82.51,0.24l2.41-2441.92
		c-3.95-1702.37,72.87-1832.48,280.37-2228c52.1-90.62,119.81-171.47,199.46-250.13C830.4,269.02,1343.67,54.63,1911.79,54.63
		l1.96,4560.85C1259.69,4615.48,522.09,4945.85,141.93,5473.97z"/>
	<path id="bleed_x2F_cutter_guide_2_" class="st4" d="M59.42,5474.21l2.41-2441.92c-3.95-1702.37,72.87-1832.48,280.37-2228
		c52.1-90.62,119.81-171.47,199.46-250.13C830.4,269.02,1343.67,54.63,1911.79,54.63l1.96,4560.85
		c-654.07,0-1391.66,330.37-1771.82,858.49L59.42,5474.21z"/>
</g>
</svg>
