<?xml version="1.0" encoding="UTF-8" standalone="no"?>
<!DOCTYPE svg PUBLIC "-//W3C//DTD SVG 1.1//EN" "http://www.w3.org/Graphics/SVG/1.1/DTD/svg11.dtd">
<svg xmlns="http://www.w3.org/2000/svg" xmlns:xlink="http://www.w3.org/1999/xlink" version="1.1" width="389" height="1200" viewBox="0 0 389 1200" xml:space="preserve">
<desc>Created with Fabric.js 3.2.0</desc>
<defs>
</defs>
<g id="id_1579843349898" clip-path="url(#CLIPPATH_5)">
<g transform="matrix(9.888600302907605 0 0 9.888600302907605 186.22222222222226 880.5805243445693)">
<clipPath id="CLIPPATH_5">
	<rect transform="matrix(1 0 0 1 182.72222222222223 701.6111111111111)" x="-160" y="-327.77777777777777" rx="0" ry="0" width="320" height="655.5555555555555"/>
</clipPath>
<g style="">
		<g transform="matrix(0.18180053333333335 0 0 0.18180053333333335 0 1.78e-15)" id="_145635440448">
<path style="stroke: none; stroke-width: 1; stroke-dasharray: none; stroke-linecap: butt; stroke-dashoffset: 0; stroke-linejoin: miter; stroke-miterlimit: 4; fill: rgb(0,0,0); fill-rule: nonzero; opacity: 1;" transform=" translate(-88.5, -67.5)" d="M 41 83 c 1 1 4 2 5 3 c 2 3 4 7 4 10 c 0 3 -1 6 -2 8 c -1 3 -2 6 -4 9 c 3 -1 5 -2 7 -3 c 3 -1 7 -2 10 -2 c -3 3 -5 6 -9 8 c 1 -1 6 7 7 8 c 1 3 3 8 3 11 c 3 -4 6 -5 10 -7 c 2 -1 3 -1 5 -2 c 3 0 5 1 7 2 c 2 1 5 2 7 3 c -1 -4 1 -7 3 -10 c 2 -1 3 -3 5 -4 c 1 0 3 -1 4 -1 c 2 -1 3 -1 5 -1 c 0 0 4 0 4 0 c -2 -1 -4 -12 -3 -15 c 0 -2 3 -5 5 -6 c 7 -1 12 6 11 12 c 0 2 0 3 0 4 c 2 -2 5 -3 8 -4 c 3 -1 6 -1 9 0 c 3 0 6 2 9 3 c 0 -2 0 -3 0 -5 c 0 -3 2 -5 4 -7 c 2 -2 5 -4 8 -4 c -2 -3 -3 -5 -4 -8 c -1 -3 -3 -8 -1 -11 c 1 -2 2 -3 3 -4 c 3 -3 6 -4 9 -6 c 2 0 3 0 4 0 c 1 0 3 0 3 0 c -2 -2 -4 -3 -6 -5 c -3 -2 -5 -5 -6 -9 c -1 -2 -1 -4 0 -6 c 0 0 1 -6 1 -6 c -4 0 -11 1 -14 -3 c -4 -4 0 -9 2 -13 c -5 0 -9 0 -12 -4 c -2 -2 -3 -4 -4 -6 c 0 0 -3 -5 -3 -6 c -3 3 -8 2 -11 0 c -1 -1 -3 -3 -4 -4 c -1 2 -2 6 -5 7 c -4 1 -7 -1 -10 -3 c -1 6 -1 11 -2 16 c -8 -3 -14 -10 -18 -14 c -1 1 -5 1 -6 1 c -2 -1 -4 -1 -7 -2 c -3 -1 -7 -3 -9 -7 c -2 3 -3 6 -7 7 c -4 2 -8 1 -12 0 c -1 -1 -2 -1 -3 -2 c -1 0 -3 -1 -4 -2 c 0 2 1 6 0 8 c -1 3 -3 4 -5 5 c -1 0 -7 1 -7 1 c 1 2 2 8 0 10 c -1 1 -3 2 -4 2 c -1 1 -6 2 -6 2 c 1 7 8 14 13 19 c 6 6 13 9 21 11 c -11 4 -21 10 -30 16 c -8 6 -14 13 -19 20 c 3 1 6 2 9 3 c 1 1 2 0 3 -2 c 2 -2 5 -5 8 -8 c 8 -7 33 -22 36 -22 c 0 0 -4 7 -15 15 z" stroke-linecap="round"/>
</g>
		<g transform="matrix(0.18180053333333335 0 0 0.18180053333333335 9.726328533333334 -4.1814122666666655)" id="_145635440448">
<path style="stroke: none; stroke-width: 1; stroke-dasharray: none; stroke-linecap: butt; stroke-dashoffset: 0; stroke-linejoin: miter; stroke-miterlimit: 4; fill: rgb(248,96,15); fill-rule: nonzero; opacity: 1;" transform=" translate(-142, -44.5)" d="M 162 41 c 0 1 0 2 0 3 c -6 1 -15 4 -23 7 c -6 -1 -11 -2 -17 -2 c 4 -2 6 -4 8 -6 c 8 -4 14 -4 20 -5 c 3 2 7 3 12 3 z" stroke-linecap="round"/>
</g>
		<g transform="matrix(0.18180053333333335 0 0 0.18180053333333335 12.453336533333331 -1.9998058666666654)" id="_145635440448">
<path style="stroke: none; stroke-width: 1; stroke-dasharray: none; stroke-linecap: butt; stroke-dashoffset: 0; stroke-linejoin: miter; stroke-miterlimit: 4; fill: rgb(248,96,15); fill-rule: nonzero; opacity: 1;" transform=" translate(-157, -56.5)" d="M 161 45 c -1 8 4 14 11 17 c -5 1 -10 3 -13 6 c -10 -4 -10 -9 -17 -15 c 2 0 5 0 8 0 c 4 4 10 7 11 8 c -2 -2 -6 -5 -9 -8 c 2 1 5 1 7 1 c -5 -1 -9 -2 -14 -3 c 5 -2 11 -4 16 -6 z" stroke-linecap="round"/>
</g>
		<g transform="matrix(0.18180053333333335 0 0 0.18180053333333335 8.181024 0.45450133333333387)" id="_145635440448">
<path style="stroke: none; stroke-width: 1; stroke-dasharray: none; stroke-linecap: butt; stroke-dashoffset: 0; stroke-linejoin: miter; stroke-miterlimit: 4; fill: rgb(248,96,15); fill-rule: nonzero; opacity: 1;" transform=" translate(-133.5, -70)" d="M 158 69 c -5 5 -4 12 -1 18 c -8 -3 -18 -7 -27 -12 c -6 -8 -13 -16 -21 -20 c 5 -1 11 -1 16 -2 c 6 6 9 17 19 19 c -9 -5 -12 -11 -14 -19 c 2 0 5 0 7 0 c 8 4 7 11 21 16 z" stroke-linecap="round"/>
</g>
		<g transform="matrix(0.18180053333333335 0 0 0.18180053333333335 10.635331200000001 4.363212800000001)" id="_145635440448">
<path style="stroke: none; stroke-width: 1; stroke-dasharray: none; stroke-linecap: butt; stroke-dashoffset: 0; stroke-linejoin: miter; stroke-miterlimit: 4; fill: rgb(248,96,15); fill-rule: nonzero; opacity: 1;" transform=" translate(-147, -91.5)" d="M 159 91 c -5 2 -9 6 -10 10 c -4 -5 -8 -12 -14 -19 c 12 2 18 7 24 9 z" stroke-linecap="round"/>
</g>
		<g transform="matrix(0.18180053333333335 0 0 0.18180053333333335 8.999126399999998 4.999514666666668)" id="_145635440448">
<path style="stroke: none; stroke-width: 1; stroke-dasharray: none; stroke-linecap: butt; stroke-dashoffset: 0; stroke-linejoin: miter; stroke-miterlimit: 4; fill: rgb(248,96,15); fill-rule: nonzero; opacity: 1;" transform=" translate(-138, -95)" d="M 148 102 c 0 1 0 2 0 2 c -5 -1 -13 -3 -20 1 c 2 -5 5 -11 8 -20 c 4 7 8 13 12 17 z" stroke-linecap="round"/>
</g>
		<g transform="matrix(0.18180053333333335 0 0 0.18180053333333335 9.726328533333334 -6.453918933333332)" id="_145635440448">
<path style="stroke: none; stroke-width: 1; stroke-dasharray: none; stroke-linecap: butt; stroke-dashoffset: 0; stroke-linejoin: miter; stroke-miterlimit: 4; fill: rgb(248,96,15); fill-rule: nonzero; opacity: 1;" transform=" translate(-142, -32)" d="M 147 25 c 1 0 2 0 2 0 c -2 4 -2 9 1 12 c -4 0 -9 1 -16 2 c 5 -6 8 -12 13 -14 z" stroke-linecap="round"/>
</g>
		<g transform="matrix(0.18180053333333335 0 0 0.18180053333333335 8.817325866666668 -7.453821866666667)" id="_145635440448">
<path style="stroke: none; stroke-width: 1; stroke-dasharray: none; stroke-linecap: butt; stroke-dashoffset: 0; stroke-linejoin: miter; stroke-miterlimit: 4; fill: rgb(248,96,15); fill-rule: nonzero; opacity: 1;" transform=" translate(-137, -26.5)" d="M 135 12 c 1 5 5 10 10 12 c -7 4 -10 11 -16 17 c 5 -8 5 -22 6 -29 z" stroke-linecap="round"/>
</g>
		<g transform="matrix(0.18180053333333335 0 0 0.18180053333333335 6.726619733333332 3.454210133333336)" id="_145635440448">
<path style="stroke: none; stroke-width: 1; stroke-dasharray: none; stroke-linecap: butt; stroke-dashoffset: 0; stroke-linejoin: miter; stroke-miterlimit: 4; fill: rgb(248,96,15); fill-rule: nonzero; opacity: 1;" transform=" translate(-125.5, -86.5)" d="M 133 81 c 0 8 -3 16 -5 23 c 0 -9 -6 -12 -10 -13 c 0 -6 3 -11 4 -22 c 4 4 8 8 11 12 z" stroke-linecap="round"/>
</g>
		<g transform="matrix(0.18180053333333335 0 0 0.18180053333333335 1.8193635207364984 -6.999320533333333)" id="_145635440448">
<path style="stroke: none; stroke-width: 1; stroke-dasharray: none; stroke-linecap: butt; stroke-dashoffset: 0; stroke-linejoin: miter; stroke-miterlimit: 4; fill: rgb(248,96,15); fill-rule: nonzero; opacity: 1;" transform=" translate(-98.50747075587878, -29)" d="M 134 11 c -2 8 -3 23 -8 33 c -3 2 -6 3 -10 5 c -6 0 -12 0 -18 1 c 3 -2 5 -5 8 -8 c 8 -6 16 -10 21 -12 c -4 1 -10 2 -17 6 c 2 -3 4 -5 5 -8 c 4 -3 10 -6 13 -7 c -3 0 -8 2 -11 3 c 3 -5 4 -9 5 -11 c -4 7 -10 17 -19 28 c 0 -4 -1 -9 -3 -12 c 0 3 0 10 0 15 c -3 3 -5 5 -8 7 l -1 0 c -2 -3 -4 -6 -5 -10 c 0 -11 4 -17 6 -20 c -2 2 -7 9 -9 12 c -2 -9 -1 -17 -4 -19 c 1 4 1 9 2 14 c -3 -3 -9 -9 -11 -10 c 1 2 8 10 11 16 c 0 6 2 13 6 18 c -1 0 -2 0 -3 1 c -6 -3 -13 -8 -20 -15 c -3 -14 2 -19 0 -33 c 6 5 13 6 20 5 c 6 8 16 14 21 17 c 1 -5 2 -11 2 -16 c 5 2 11 2 14 -4 c 2 4 8 5 13 4 z" stroke-linecap="round"/>
</g>
		<g transform="matrix(0.18180053333333335 0 0 0.18180053333333335 2.2872229656897423 1.272603733333335)" id="_145635440448">
<path style="stroke: none; stroke-width: 1; stroke-dasharray: none; stroke-linecap: butt; stroke-dashoffset: 0; stroke-linejoin: miter; stroke-miterlimit: 4; fill: rgb(248,96,15); fill-rule: nonzero; opacity: 1;" transform=" translate(-101.08094750193112, -74.5)" d="M 119 66 c 1 8 -3 18 -2 25 c -3 0 -6 1 -8 3 c -11 0 -21 -1 -26 -8 c 3 -7 6 -14 8 -26 c 1 4 3 7 6 10 c 0 5 -1 12 -1 20 c 1 -3 3 -10 4 -15 c 5 5 9 10 11 15 c -1 -8 -13 -18 -18 -33 c 3 0 7 -1 10 -2 c 2 1 4 2 6 3 c 0 4 -1 10 -1 14 c 2 -3 3 -8 3 -12 c 3 2 6 4 8 6 z" stroke-linecap="round"/>
</g>
		<g transform="matrix(0.18180053333333335 0 0 0.18180053333333335 -4.363212800000001 1.1513265432458946)" id="_145635440448">
<path style="stroke: none; stroke-width: 1; stroke-dasharray: none; stroke-linecap: butt; stroke-dashoffset: 0; stroke-linejoin: miter; stroke-miterlimit: 4; fill: rgb(184,120,42); fill-rule: nonzero; opacity: 1;" transform=" translate(-64.5, -73.8329107023846)" d="M 5 96 c 29 -41 106 -47 119 -45 c -52 5 -87 14 -115 46 l -4 -1 z" stroke-linecap="round"/>
</g>
		<g transform="matrix(0.18180053333333335 0 0 0.18180053333333335 1.545304533333332 6.090317866666668)" id="_145635440448">
<path style="stroke: none; stroke-width: 1; stroke-dasharray: none; stroke-linecap: butt; stroke-dashoffset: 0; stroke-linejoin: miter; stroke-miterlimit: 4; fill: rgb(248,96,15); fill-rule: nonzero; opacity: 1;" transform=" translate(-97, -101)" d="M 108 95 c -3 3 -3 9 -1 15 c -9 -5 -16 -10 -21 -18 c 8 5 17 3 22 3 z" stroke-linecap="round"/>
</g>
		<g transform="matrix(0.18180053333333335 0 0 0.18180053333333335 1.0908031999999999 7.2720213333333374)" id="_145635440448">
<path style="stroke: none; stroke-width: 1; stroke-dasharray: none; stroke-linecap: butt; stroke-dashoffset: 0; stroke-linejoin: miter; stroke-miterlimit: 4; fill: rgb(248,96,15); fill-rule: nonzero; opacity: 1;" transform=" translate(-94.5, -107.5)" d="M 94 104 c 5 4 10 7 13 9 c -6 0 -16 4 -18 12 c -5 -10 -6 -26 -7 -35 c 2 5 6 9 9 12 c 1 5 2 10 3 13 c -1 -4 -1 -7 0 -11 z" stroke-linecap="round"/>
</g>
		<g transform="matrix(0.18180053333333335 0 0 0.18180053333333335 -4.0223368000000015 0.5454016000000017)" id="_145635440448">
<path style="stroke: none; stroke-width: 1; stroke-dasharray: none; stroke-linecap: butt; stroke-dashoffset: 0; stroke-linejoin: miter; stroke-miterlimit: 4; fill: rgb(248,96,15); fill-rule: nonzero; opacity: 1;" transform=" translate(-66.375, -70.5)" d="M 86 58 c 1 4 1 8 0 12 c -3 3 -7 6 -11 8 c -4 -2 -10 -7 -16 -6 c 2 1 7 2 11 7 c -7 2 -17 3 -24 4 c 4 -3 13 -10 14 -18 c 8 -2 16 -4 26 -7 z" stroke-linecap="round"/>
</g>
		<g transform="matrix(0.18180053333333335 0 0 0.18180053333333335 -2.181606400000001 8.181024000000004)" id="_145635440448">
<path style="stroke: none; stroke-width: 1; stroke-dasharray: none; stroke-linecap: butt; stroke-dashoffset: 0; stroke-linejoin: miter; stroke-miterlimit: 4; fill: rgb(248,96,15); fill-rule: nonzero; opacity: 1;" transform=" translate(-76.5, -112.5)" d="M 81 95 c 0 9 2 23 7 32 c -9 -6 -16 -4 -23 3 c 2 -8 6 -20 12 -31 c 1 -1 3 -2 4 -4 z" stroke-linecap="round"/>
</g>
		<g transform="matrix(0.18180053333333335 0 0 0.18180053333333335 -3.9996117333333343 4.545013333333335)" id="_145635440448">
<path style="stroke: none; stroke-width: 1; stroke-dasharray: none; stroke-linecap: butt; stroke-dashoffset: 0; stroke-linejoin: miter; stroke-miterlimit: 4; fill: rgb(248,96,15); fill-rule: nonzero; opacity: 1;" transform=" translate(-66.5, -92.5)" d="M 84 76 c -3 9 -6 18 -8 21 c -8 8 -18 6 -27 12 c 2 -4 4 -9 4 -13 c 6 -2 14 -11 17 -15 c 6 -1 11 -3 14 -5 z" stroke-linecap="round"/>
</g>
		<g transform="matrix(0.18180053333333335 0 0 0.18180053333333335 -5.272215466666669 -2.817908266666665)" id="_145635440448">
<path style="stroke: none; stroke-width: 1; stroke-dasharray: none; stroke-linecap: butt; stroke-dashoffset: 0; stroke-linejoin: miter; stroke-miterlimit: 4; fill: rgb(248,96,15); fill-rule: nonzero; opacity: 1;" transform=" translate(-59.5, -52)" d="M 68 46 c 4 3 7 5 10 7 c -8 2 -16 4 -24 7 c -5 -1 -9 -3 -13 -5 c 3 -3 10 -9 15 -11 c 5 1 10 1 12 2 z" stroke-linecap="round"/>
</g>
		<g transform="matrix(0.18180053333333335 0 0 0.18180053333333335 -4.181412266666667 8.635525333333337)" id="_145635440448">
<path style="stroke: none; stroke-width: 1; stroke-dasharray: none; stroke-linecap: butt; stroke-dashoffset: 0; stroke-linejoin: miter; stroke-miterlimit: 4; fill: rgb(248,96,15); fill-rule: nonzero; opacity: 1;" transform=" translate(-65.5, -115)" d="M 74 101 c -5 11 -8 21 -10 28 c -1 -5 -4 -9 -7 -13 c 4 -3 7 -8 9 -11 c 3 -1 6 -2 8 -4 z" stroke-linecap="round"/>
</g>
		<g transform="matrix(0.18180053333333335 0 0 0.18180053333333335 -6.598067343390003 -8.635525333333334)" id="_145635440448">
<path style="stroke: none; stroke-width: 1; stroke-dasharray: none; stroke-linecap: butt; stroke-dashoffset: 0; stroke-linejoin: miter; stroke-miterlimit: 4; fill: rgb(248,96,15); fill-rule: nonzero; opacity: 1;" transform=" translate(-52.20710678118655, -20)" d="M 63 5 c 1 5 0 10 -1 15 c -2 -1 -6 -3 -9 -4 c 2 2 6 6 8 9 c 0 4 -1 7 0 10 c -9 -8 -17 -18 -20 -28 c 7 5 18 6 22 -2 z" stroke-linecap="round"/>
</g>
		<g transform="matrix(0.18180053333333335 0 0 0.18180053333333335 -5.908517333333336 3.7269109333333343)" id="_145635440448">
<path style="stroke: none; stroke-width: 1; stroke-dasharray: none; stroke-linecap: butt; stroke-dashoffset: 0; stroke-linejoin: miter; stroke-miterlimit: 4; fill: rgb(248,96,15); fill-rule: nonzero; opacity: 1;" transform=" translate(-56, -88)" d="M 66 82 c -2 4 -7 9 -13 12 c 0 -3 -2 -7 -7 -10 c 6 0 14 -1 20 -2 z" stroke-linecap="round"/>
</g>
		<g transform="matrix(0.18180053333333335 0 0 0.18180053333333335 -7.635622400000002 -7.453821866666667)" id="_145635440448">
<path style="stroke: none; stroke-width: 1; stroke-dasharray: none; stroke-linecap: butt; stroke-dashoffset: 0; stroke-linejoin: miter; stroke-miterlimit: 4; fill: rgb(248,96,15); fill-rule: nonzero; opacity: 1;" transform=" translate(-46.5, -26.5)" d="M 64 42 c -5 -1 -11 -1 -19 -2 c -4 -4 -4 -12 -16 -21 c 4 0 10 -2 11 -8 c 3 5 12 19 24 31 z" stroke-linecap="round"/>
</g>
		<g transform="matrix(0.18180053333333335 0 0 0.18180053333333335 -9.544528000000001 -4.1814122666666655)" id="_145635440448">
<path style="stroke: none; stroke-width: 1; stroke-dasharray: none; stroke-linecap: butt; stroke-dashoffset: 0; stroke-linejoin: miter; stroke-miterlimit: 4; fill: rgb(248,96,15); fill-rule: nonzero; opacity: 1;" transform=" translate(-36, -44.5)" d="M 52 43 c -2 2 -8 8 -13 11 c -9 -4 -15 -11 -19 -19 c 8 4 21 7 32 8 z" stroke-linecap="round"/>
</g>
		<g transform="matrix(0.18180053333333335 0 0 0.18180053333333335 -10.544430933333334 -6.726619733333331)" id="_145635440448">
<path style="stroke: none; stroke-width: 1; stroke-dasharray: none; stroke-linecap: butt; stroke-dashoffset: 0; stroke-linejoin: miter; stroke-miterlimit: 4; fill: rgb(248,96,15); fill-rule: nonzero; opacity: 1;" transform=" translate(-30.5, -30.5)" d="M 29 21 c 8 7 12 16 12 19 c -6 -2 -13 -3 -21 -7 c 5 -2 11 -4 9 -12 z" stroke-linecap="round"/>
</g>
</g>
</g>
</g>
<g id="id_1579843357378" clip-path="url(#CLIPPATH_6)">
<g transform="matrix(6.966051014304271 0 0 6.966051014304271 183.8126427117914 555.8910790764031)">
<clipPath id="CLIPPATH_6">
	<rect transform="matrix(1 0 0 1 182.72222222222223 701.6111111111111)" x="-160" y="-327.77777777777777" rx="0" ry="0" width="320" height="655.5555555555555"/>
</clipPath>
<g style="">
		<g transform="matrix(0.7557588292682926 0 0 0.7557588292682926 0 1.78e-15)" id="_145756836240">
<path style="stroke: none; stroke-width: 1; stroke-dasharray: none; stroke-linecap: butt; stroke-dashoffset: 0; stroke-linejoin: miter; stroke-miterlimit: 4; fill: rgb(0,0,0); fill-rule: nonzero; opacity: 1;" transform=" translate(-20.696152422706632, -20.5)" d="M 0 23 c 0 1 0 2 0 3 c 1 1 2 2 3 2 c 0 0 -1 2 -1 2 c 0 1 0 1 0 2 c 1 1 1 3 2 4 c 1 1 2 2 4 3 c 1 0 2 1 3 1 c 1 0 2 -1 3 -2 c -1 1 0 2 1 2 c 1 1 2 1 3 1 c 2 0 4 -1 5 -3 c 0 0 1 1 1 1 c 0 0 1 0 1 0 c 2 0 3 0 4 0 c 1 -1 1 -1 2 -2 c 1 -1 1 -1 1 -1 c 0 -1 0 -2 0 -2 c 1 1 2 0 2 0 c 1 0 1 0 2 0 c 1 -1 2 -3 3 -4 c 0 -1 0 -2 0 -2 c 0 -1 0 -1 0 -1 c 0 0 -1 -1 -1 -1 c 2 0 3 -2 3 -4 c 1 -2 0 -5 -2 -5 c 0 0 1 -1 1 -1 c 0 -1 0 -1 0 -1 c 1 -1 1 -2 0 -3 c 0 -1 -1 -3 -2 -4 c 0 -1 -1 -1 -2 -1 c 0 0 0 -1 -1 -1 c 0 0 -1 0 -1 1 c 1 -3 -4 -5 -6 -5 c 0 0 -1 0 -1 0 c 0 0 -1 1 -1 1 c 0 -1 -1 -2 -1 -2 c -1 -1 -2 -1 -2 -1 c -1 0 -2 0 -2 0 c -2 0 -5 1 -5 3 c 0 0 -1 -1 -1 -1 c -1 0 -1 0 -1 0 c -1 0 -2 0 -3 0 c -1 1 -1 1 -1 1 c -2 1 -4 3 -3 5 c 0 0 -1 0 -1 0 c 0 0 -1 0 -1 0 c -1 1 -2 2 -3 3 c 0 2 -1 3 0 4 c 0 1 0 2 1 2 c -3 1 -3 3 -3 6 z" stroke-linecap="round"/>
</g>
		<g transform="matrix(0.7557588292682926 0 0 0.7557588292682926 9.39321129416929 0.3778794146341471)" id="_145756836240">
<path style="stroke: none; stroke-width: 1; stroke-dasharray: none; stroke-linecap: butt; stroke-dashoffset: 0; stroke-linejoin: miter; stroke-miterlimit: 4; fill: rgb(246,173,53); fill-rule: nonzero; opacity: 1;" transform=" translate(-33.125, -21)" d="M 40 20 c 0 0 0 1 0 1 c -1 0 -1 0 -2 0 c 1 0 2 0 2 0 l 0 0 c 0 1 0 1 0 1 c 0 0 -1 0 -2 0 c 1 0 1 0 2 1 c 0 0 0 0 0 1 c -1 -1 -2 -1 -3 -1 c 1 0 2 1 3 1 c 0 0 0 0 -1 1 c -1 -1 -1 -1 -2 -1 c 0 0 1 1 2 1 c -1 0 -2 0 -3 0 c -2 -1 -7 -2 -9 -3 c -1 -1 -1 -3 0 -3 c 3 -1 8 -2 9 -2 c 2 0 4 0 4 1 c -1 0 -2 0 -3 1 c 1 0 2 0 3 0 c 0 0 0 0 0 1 c -1 0 -2 -1 -3 0 c 1 0 2 0 3 0 z" stroke-linecap="round"/>
</g>
		<g transform="matrix(0.7557588292682926 0 0 0.7557588292682926 8.815055789779045 -6.046070634146339)" id="_145756836240">
<path style="stroke: none; stroke-width: 1; stroke-dasharray: none; stroke-linecap: butt; stroke-dashoffset: 0; stroke-linejoin: miter; stroke-miterlimit: 4; fill: rgb(248,186,52); fill-rule: nonzero; opacity: 1;" transform=" translate(-32.36, -12.5)" d="M 40 13 c 0 0 0 1 0 1 c -1 0 -2 1 -2 1 c 0 0 1 -1 2 -1 c 0 1 -1 2 -3 2 c -2 1 -8 2 -11 2 c 0 0 -2 -1 -1 -3 c 2 -3 6 -6 7 -7 c 2 -1 3 -1 4 -1 c -1 1 -2 2 -2 3 c 1 -1 2 -2 2 -2 c 1 0 1 0 2 1 c -1 0 -2 1 -3 1 c 1 0 2 -1 3 -1 c 0 0 0 1 1 1 c -1 0 -2 1 -3 1 c 1 0 2 0 3 -1 c 0 0 0 1 0 1 c -1 1 -1 1 -2 1 c 1 0 1 0 2 -1 c 0 1 1 1 1 2 c -1 0 -2 0 -2 1 c 0 -1 1 -1 2 -1 z" stroke-linecap="round"/>
</g>
		<g transform="matrix(0.7557588292682926 0 0 0.7557588292682926 8.165103196608314 6.046070634146341)" id="_145756836240">
<path style="stroke: none; stroke-width: 1; stroke-dasharray: none; stroke-linecap: butt; stroke-dashoffset: 0; stroke-linejoin: miter; stroke-miterlimit: 4; fill: rgb(241,146,51); fill-rule: nonzero; opacity: 1;" transform=" translate(-31.499999999999996, -28.5)" d="M 36 26 c 1 0 3 1 2 2 c -1 0 -2 -1 -3 -1 c 1 1 2 1 3 2 c 0 0 0 0 0 1 c -1 -1 -2 -1 -2 -1 c 0 0 1 0 2 1 c 0 0 -1 1 -1 1 c -1 -1 -1 -1 -2 -1 c 1 0 1 1 2 1 c 0 0 -1 1 -1 1 c -1 0 -1 -1 -2 -1 c 1 0 1 1 2 1 c 0 1 0 1 -1 1 c 0 -1 -1 -1 -2 -2 c 1 1 1 1 2 2 c 0 0 0 0 -1 1 c 0 -1 -1 -1 -1 -2 c 0 1 1 1 1 2 c -1 0 -2 0 -3 -1 c -1 -2 -5 -5 -6 -7 c -1 -2 1 -3 2 -3 c 2 0 7 2 9 3 z" stroke-linecap="round"/>
</g>
		<g transform="matrix(0.7557588292682926 0 0 0.7557588292682926 5.265080373138998 -8.51609823453667)" id="_145756836240">
<path style="stroke: none; stroke-width: 1; stroke-dasharray: none; stroke-linecap: butt; stroke-dashoffset: 0; stroke-linejoin: miter; stroke-miterlimit: 4; fill: rgb(246,173,53); fill-rule: nonzero; opacity: 1;" transform=" translate(-27.662766862707976, -9.231725115561332)" d="M 33 5 c 1 1 1 2 -2 3 c -1 1 -5 5 -7 7 c -1 2 -3 0 -2 -1 c 0 -3 3 -7 3 -9 c 1 -2 2 -3 4 -2 c 0 1 -1 1 -1 2 c 0 -1 1 -2 1 -2 c 1 0 1 0 2 0 c -1 1 -2 2 -2 2 c 1 0 1 -1 2 -2 c 0 1 0 1 1 1 c -1 1 -2 2 -2 2 c 0 0 1 -1 2 -2 c 0 0 0 1 1 1 c -1 1 -2 2 -3 2 c 1 0 2 -1 3 -2 z" stroke-linecap="round"/>
</g>
		<g transform="matrix(0.7557588292682926 0 0 0.7557588292682926 4.164952414115774 9.446985365853656)" id="_145756836240">
<path style="stroke: none; stroke-width: 1; stroke-dasharray: none; stroke-linecap: butt; stroke-dashoffset: 0; stroke-linejoin: miter; stroke-miterlimit: 4; fill: rgb(238,142,40); fill-rule: nonzero; opacity: 1;" transform=" translate(-26.207106781186546, -33)" d="M 30 32 c 1 1 2 3 1 4 c -1 -1 -1 -2 -2 -2 c 1 1 1 1 2 2 c 0 0 -1 1 -1 1 c -1 -2 -2 -3 -3 -4 c 1 1 2 3 3 4 c -1 0 -1 0 -1 1 c -1 -2 -2 -3 -2 -3 c 0 1 1 2 1 3 c 0 0 -1 0 -1 0 c 0 -1 -1 -1 -1 -2 c 0 1 0 2 1 2 c -1 1 -1 1 -2 1 c 0 -1 0 -2 -1 -3 c 1 1 1 2 1 3 c -1 0 -1 -1 -2 -2 c -1 -2 -2 -6 -2 -9 c 1 0 2 -1 3 -1 c 2 1 5 4 6 5 z" stroke-linecap="round"/>
</g>
		<g transform="matrix(0.7557588292682926 0 0 0.7557588292682926 -0.9040027546111977 1.1336382439024408)" id="_145756836240">
<path style="stroke: none; stroke-width: 1; stroke-dasharray: none; stroke-linecap: butt; stroke-dashoffset: 0; stroke-linejoin: miter; stroke-miterlimit: 4; fill: rgb(238,142,40); fill-rule: nonzero; opacity: 1;" transform=" translate(-19.5, -22)" d="M 26 19 c -1 1 -1 2 0 3 c -2 1 -2 3 -2 4 c -1 0 -3 0 -3 2 c -2 -1 -3 -1 -4 0 c 0 -2 -1 -3 -3 -4 c 0 -1 0 -3 -1 -5 c 1 0 1 0 1 0 c 1 1 2 1 2 2 c 1 1 1 3 1 4 c 1 -1 2 -1 4 1 c 0 -3 2 -4 3 -4 c -1 -1 -2 -2 -2 -4 c -1 1 -3 1 -3 0 c 0 0 -1 0 -1 0 c 0 0 -1 0 -1 -1 c 0 0 1 -1 1 -1 c 1 1 2 0 3 0 c 1 1 2 1 3 1 c 0 1 1 2 2 2 z" stroke-linecap="round"/>
</g>
		<g transform="matrix(0.7557588292682926 0 0 0.7557588292682926 -0.01857621000689136 -9.10939132481962)" id="_145756836240">
<path style="stroke: none; stroke-width: 1; stroke-dasharray: none; stroke-linecap: butt; stroke-dashoffset: 0; stroke-linejoin: miter; stroke-miterlimit: 4; fill: rgb(241,146,51); fill-rule: nonzero; opacity: 1;" transform=" translate(-20.67157287525381, -8.446695464161348)" d="M 24 1 c 1 1 1 2 1 4 c -1 2 -3 7 -4 9 c 0 3 -3 2 -3 0 c -1 -2 -1 -7 -1 -9 c -1 -2 -1 -3 1 -3 c 0 1 0 2 0 3 c 0 -1 0 -2 0 -3 c 0 -1 1 -1 1 -1 c 0 1 0 2 0 3 c 0 -1 0 -2 0 -3 c 1 0 1 0 2 0 c 0 1 -1 2 -1 3 c 1 -1 1 -2 1 -3 c 0 0 1 0 1 0 c 0 1 0 3 0 4 c 0 -1 0 -2 1 -4 c 0 0 0 0 1 0 c 0 1 -1 2 -1 3 c 0 -1 1 -2 1 -3 z" stroke-linecap="round"/>
</g>
		<g transform="matrix(0.7557588292682926 0 0 0.7557588292682926 -2.7933998277819274 -1.511517658536584)" id="_145756836240">
<path style="stroke: none; stroke-width: 1; stroke-dasharray: none; stroke-linecap: butt; stroke-dashoffset: 0; stroke-linejoin: miter; stroke-miterlimit: 4; fill: rgb(180,128,64); fill-rule: nonzero; opacity: 1;" transform=" translate(-17, -18.5)" d="M 22 19 c 0 2 0 2 1 3 c -2 1 -2 1 -2 3 c -2 -1 -2 -1 -3 -1 c 0 -1 -1 -2 -2 -3 c 0 -2 -3 -5 -5 -6 c 1 -1 2 -2 2 -3 c 1 2 3 6 5 7 c 0 0 1 0 1 0 c 1 0 1 0 3 0 z" stroke-linecap="round"/>
</g>
		<g transform="matrix(0.7557588292682926 0 0 0.7557588292682926 -1.943171144855099 10.202744195121952)" id="_145756836240">
<path style="stroke: none; stroke-width: 1; stroke-dasharray: none; stroke-linecap: butt; stroke-dashoffset: 0; stroke-linejoin: miter; stroke-miterlimit: 4; fill: rgb(248,186,52); fill-rule: nonzero; opacity: 1;" transform=" translate(-18.125, -34)" d="M 22 36 c 0 1 0 3 -1 3 c 0 -1 -1 -2 -1 -3 c 0 1 0 2 1 3 c -1 1 -1 1 -2 1 c 0 -2 0 -3 0 -4 c 0 1 0 2 0 4 c 0 0 -1 0 -1 0 c 0 -1 0 -2 0 -3 c 0 1 0 2 0 3 c -1 0 -1 0 -1 0 c 0 -1 0 -2 0 -3 c 0 1 -1 2 -1 3 c 0 0 0 0 0 0 c 0 -1 0 -2 0 -3 c -1 1 -1 2 -1 3 c -1 -1 -1 -2 0 -3 c 0 -2 1 -7 2 -9 c 1 0 3 0 3 0 c 1 2 2 6 2 8 z" stroke-linecap="round"/>
</g>
		<g transform="matrix(0.7557588292682926 0 0 0.7557588292682926 -6.350837337972315 -8.313347121951217)" id="_145756836240">
<path style="stroke: none; stroke-width: 1; stroke-dasharray: none; stroke-linecap: butt; stroke-dashoffset: 0; stroke-linejoin: miter; stroke-miterlimit: 4; fill: rgb(246,173,53); fill-rule: nonzero; opacity: 1;" transform=" translate(-12.292893218813452, -9.5)" d="M 17 14 c 0 1 0 2 -1 2 c -1 -1 -2 -3 -2 -6 c -1 0 -2 1 -3 2 c -1 -1 -2 -2 -2 -2 c -1 -1 -2 -2 -1 -3 c 0 0 1 1 1 1 c 0 -1 -1 -1 -1 -2 c 0 0 0 0 1 -1 c 0 1 1 2 1 2 c 0 0 -1 -1 -1 -2 c 0 0 0 0 0 0 c 1 0 1 1 2 2 c -1 -1 -1 -2 -1 -3 c 0 0 0 0 0 0 c 1 1 1 1 2 2 c -1 -1 -1 -2 -1 -2 c 0 -1 0 -1 1 -1 c 0 1 0 2 1 3 c 0 -1 -1 -2 -1 -3 c 0 0 1 0 1 0 c 0 0 1 1 1 2 c 0 -1 0 -1 -1 -2 c 1 0 2 0 3 2 c 0 2 1 7 1 9 z" stroke-linecap="round"/>
</g>
		<g transform="matrix(0.7557588292682926 0 0 0.7557588292682926 -6.57219397412339 -6.046070634146339)" id="_145756836240">
<path style="stroke: none; stroke-width: 1; stroke-dasharray: none; stroke-linecap: butt; stroke-dashoffset: 0; stroke-linejoin: miter; stroke-miterlimit: 4; fill: rgb(113,73,28); fill-rule: nonzero; opacity: 1;" transform=" translate(-12, -12.5)" d="M 13 11 c 0 0 0 1 -1 2 c 0 1 -1 1 -1 1 c 0 0 0 -1 1 -2 c 0 0 1 -1 1 -1 z" stroke-linecap="round"/>
</g>
		<g transform="matrix(0.7557588292682926 0 0 0.7557588292682926 -9.595229291196562 -4.912432390243899)" id="_145756836240">
<path style="stroke: none; stroke-width: 1; stroke-dasharray: none; stroke-linecap: butt; stroke-dashoffset: 0; stroke-linejoin: miter; stroke-miterlimit: 4; fill: rgb(238,142,40); fill-rule: nonzero; opacity: 1;" transform=" translate(-8, -14)" d="M 10 15 c 0 0 0 -1 1 -2 c -1 -2 -3 -3 -3 -3 c -1 -1 -2 -1 -3 -1 c 1 1 2 1 2 2 c 0 -1 -1 -1 -2 -2 c 0 0 0 1 -1 1 c 1 1 2 1 3 2 c -1 -1 -2 -1 -3 -2 c 0 0 0 1 0 1 c 0 1 1 1 2 2 c -1 0 -1 0 -1 0 c 0 0 -2 -2 -2 -2 c 0 1 0 1 0 1 l 2 2 l -2 -1 c 0 0 0 0 0 1 l 2 0 l -3 0 c 0 0 0 0 0 1 c 0 1 1 2 2 2 c 3 1 6 2 8 2 c 1 0 2 0 2 -1 c -1 -1 -3 -2 -4 -3 z" stroke-linecap="round"/>
</g>
		<g transform="matrix(0.7557588292682926 0 0 0.7557588292682926 -8.533993388335986 8.691226536585365)" id="_145756836240">
<path style="stroke: none; stroke-width: 1; stroke-dasharray: none; stroke-linecap: butt; stroke-dashoffset: 0; stroke-linejoin: miter; stroke-miterlimit: 4; fill: rgb(241,146,51); fill-rule: nonzero; opacity: 1;" transform=" translate(-9.404199146291205, -32)" d="M 16 27 c 0 -1 -2 -2 -4 -2 c -1 0 -2 0 -2 0 c -5 1 -8 4 -7 7 l 2 -1 l -2 1 c 0 1 0 1 1 1 l 2 -1 l -2 1 c 0 1 0 1 0 1 l 2 -1 l -2 1 c 1 1 1 1 1 1 c 0 0 0 0 0 0 l 2 -1 l -2 1 c 1 1 1 1 1 1 l 2 -1 l -2 1 c 1 1 1 1 1 1 c 1 0 1 -1 1 -1 c 0 0 0 1 0 1 c 0 1 0 1 0 1 l 0 0 c 1 0 1 -1 2 -2 c -1 1 -1 2 -1 2 c 0 0 0 0 1 1 c 0 -1 0 -2 1 -2 c 0 0 -1 1 -1 2 c 0 0 1 0 1 0 c 0 -1 1 -2 1 -2 c 0 0 0 1 -1 2 c 1 0 2 -1 3 -2 c 0 -2 2 -8 2 -10 z" stroke-linecap="round"/>
</g>
		<g transform="matrix(0.7557588292682926 0 0 0.7557588292682926 -10.102776421166721 1.5281752000796471)" id="_145756836240">
<path style="stroke: none; stroke-width: 1; stroke-dasharray: none; stroke-linecap: butt; stroke-dashoffset: 0; stroke-linejoin: miter; stroke-miterlimit: 4; fill: rgb(246,173,53); fill-rule: nonzero; opacity: 1;" transform=" translate(-7.32842712474619, -22.522040816326534)" d="M 12 20 c -1 0 -5 -1 -8 -2 c 0 0 -2 -1 -3 2 l 2 0 l -2 0 c 0 0 0 0 0 0 c 0 0 0 1 0 1 l 2 0 l -2 0 c 0 0 0 1 0 1 l 2 0 l -2 0 c 0 0 0 1 0 1 l 2 0 l -2 1 c 0 0 0 0 0 1 l 3 -1 l -3 1 c 0 0 0 1 0 1 l 4 -1 l -3 1 c 0 0 0 1 0 1 c 2 1 3 -2 7 -2 c 2 -1 3 -1 4 -1 c 1 -1 1 -3 -1 -4 z" stroke-linecap="round"/>
</g>
</g>
</g>
</g>
</svg>
