<?xml version="1.0" encoding="UTF-8" standalone="no"?>
<!DOCTYPE svg PUBLIC "-//W3C//DTD SVG 1.1//EN" "http://www.w3.org/Graphics/SVG/1.1/DTD/svg11.dtd">
<svg xmlns="http://www.w3.org/2000/svg" xmlns:xlink="http://www.w3.org/1999/xlink" version="1.1" width="389" height="1200" viewBox="0 0 389 1200" xml:space="preserve">
<desc>Created with Fabric.js 3.2.0</desc>
<defs>
	<style type="text/css"><![CDATA[
		@font-face {
			font-family: 'ABeeZee Regular';
			src: url('ABeeZee Regular.ttf');
		}
]]></style>
</defs>
<g id="id_1579843245568" clip-path="url(#CLIPPATH_3)">
<g transform="matrix(6.429133545673604 0 0 6.429133545673604 201.37212323850332 624.6649318830245)">
<clipPath id="CLIPPATH_3">
	<rect transform="matrix(1 0 0 1 198.27777777777777 730.5)" x="-151.11111111111111" y="-350" rx="0" ry="0" width="302.22222222222223" height="700"/>
</clipPath>
<g style="">
		<g transform="matrix(0.5344176 0 0 0.5344176 0 -3.55e-15)" id="_145637317904">
<path style="stroke: none; stroke-width: 1; stroke-dasharray: none; stroke-linecap: butt; stroke-dashoffset: 0; stroke-linejoin: miter; stroke-miterlimit: 4; fill: rgb(0,0,0); fill-rule: nonzero; opacity: 1;" transform=" translate(-37.54175279993271, -49.954915028125264)" d="M 53 99 c 1 0 2 0 3 0 l 1 1 l 0 -1 c 10 -7 17 -17 18 -30 c 1 -15 -7 -35 -23 -41 c -2 0 -4 -1 -6 -1 l 0 0 c -2 -8 -9 -9 -15 -8 c -1 1 -2 1 -3 1 c -7 2 -12 3 -17 0 c -4 -2 -6 -5 -6 -7 c 0 -3 1 -6 3 -7 c 1 -1 3 -1 4 -1 c 1 1 2 2 2 3 c 0 1 0 1 0 2 c 0 0 0 0 -1 0 c 1 -1 0 -2 0 -3 c -1 -1 -3 -1 -5 0 c -1 1 -1 2 -1 3 c 0 2 1 3 2 4 c 2 2 6 2 8 0 c 1 -1 2 -2 2 -3 c 2 -3 1 -6 -1 -9 c -3 -2 -7 -3 -11 -1 c -1 1 -2 1 -3 2 c -2 2 -4 5 -4 8 c 0 4 1 8 5 12 c 3 3 8 7 19 4 c 1 -1 1 -1 2 -1 c 6 -2 12 -3 15 2 c -2 0 -4 1 -5 2 c -1 1 -3 3 -4 5 l 0 0 c -1 2 1 5 1 6 c 3 5 9 10 14 6 c 1 -2 2 -4 3 -6 c 7 5 11 17 11 25 c 0 6 -1 16 -8 22 c -2 1 -4 1 -5 2 l -1 0 l 0 1 c 0 1 0 5 0 5 l 1 1 l 5 2 z m -11 -58 l 0 0 c 0 0 -1 1 -2 1 c 0 -2 2 -4 3 -4 c 0 0 0 0 0 0 c 1 1 0 2 -1 3 z" stroke-linecap="round"/>
</g>
		<g transform="matrix(0.5344176 0 0 0.5344176 8.5506816 6.941833135798699)" id="_145637317904">
<path style="stroke: none; stroke-width: 1; stroke-dasharray: none; stroke-linecap: butt; stroke-dashoffset: 0; stroke-linejoin: miter; stroke-miterlimit: 4; fill: rgb(248,96,15); fill-rule: nonzero; opacity: 1;" transform=" translate(-53.54175279993271, -62.94444444444445)" d="M 51 29 c -5 -2 -13 -2 -18 6 c 0 1 0 2 0 3 c 1 -2 3 -4 4 -5 c -1 2 -3 4 -3 6 c 0 1 0 1 1 2 c 0 -2 2 -4 3 -6 c -1 2 -2 4 -3 7 c 1 0 1 1 1 1 c 0 -2 2 -5 3 -7 c -1 2 -2 5 -2 8 c 0 0 1 1 1 1 c 0 -4 2 -7 5 -8 c 7 -4 15 4 18 9 c 4 6 5 14 5 22 c -1 9 -5 22 -17 28 c 1 0 2 1 3 1 c 11 -5 15 -19 17 -24 c -3 13 -9 21 -16 24 c 1 0 2 1 3 1 c 12 -7 17 -19 18 -29 c 1 -15 -7 -34 -23 -40 z" stroke-linecap="round"/>
</g>
		<g transform="matrix(0.5344176 0 0 0.5344176 10.427657085076284 8.574775802465366)" id="_145637317904">
<path style="stroke: none; stroke-width: 1; stroke-dasharray: none; stroke-linecap: butt; stroke-dashoffset: 0; stroke-linejoin: miter; stroke-miterlimit: 4; fill: rgb(238,98,46); fill-rule: nonzero; opacity: 1;" transform=" translate(-57.05394155471227, -66)" d="M 65 68 c 1 -14 -5 -27 -16 -31 c 0 1 1 2 1 2 c 8 6 13 18 13 27 c 0 7 -2 20 -14 26 c 0 1 0 2 0 3 c 12 -6 15 -17 16 -27 z" stroke-linecap="round"/>
</g>
		<g transform="matrix(0.5344176 0 0 0.5344176 -7.733195945419032 -19.140714730867973)" id="_145637317904">
<path style="stroke: none; stroke-width: 1; stroke-dasharray: none; stroke-linecap: butt; stroke-dashoffset: 0; stroke-linejoin: miter; stroke-miterlimit: 4; fill: rgb(238,98,46); fill-rule: nonzero; opacity: 1;" transform=" translate(-23.07142857142857, -14.13888888888889)" d="M 5 22 c 4 3 9 6 19 3 c 5 -1 14 -5 18 2 c 1 0 2 0 3 0 c -3 -8 -10 -7 -14 -6 c -7 1 -15 5 -22 0 c -8 -5 -6 -13 -2 -16 c 4 -3 8 -1 9 3 c 0 3 -4 4 -5 3 c 3 -2 0 -5 -2 -3 c -1 1 -1 4 1 5 c 2 2 6 2 8 -2 c 2 -5 -3 -12 -10 -9 c -8 3 -9 13 -3 20 z" stroke-linecap="round"/>
</g>
		<g transform="matrix(0.5344176 0 0 0.5344176 3.278236910254188 -4.252302795927523)" id="_145637317904">
<path style="stroke: none; stroke-width: 1; stroke-dasharray: none; stroke-linecap: butt; stroke-dashoffset: 0; stroke-linejoin: miter; stroke-miterlimit: 4; fill: rgb(238,98,46); fill-rule: nonzero; opacity: 1;" transform=" translate(-43.67597613062801, -41.998023645941146)" d="M 39 43 c 0 1 0 2 0 3 c 4 3 11 -1 9 -9 c -1 0 -2 0 -4 0 c 1 4 -2 6 -5 6 z" stroke-linecap="round"/>
</g>
</g>
</g>
</g>
<g style="" id="id_1579843254267" clip-path="url(#CLIPPATH_4)">
<g transform="matrix(2.2222222222222223 0 0 2.2222222222222223 206.7083318922255 870.6888888888889)">
<clipPath id="CLIPPATH_4">
	<rect transform="matrix(1 0 0 1 198.27777777777777 730.5)" x="-151.11111111111111" y="-350" rx="0" ry="0" width="302.22222222222223" height="700"/>
</clipPath>
		<text xml:space="preserve" font-family="ABeeZee Regular" font-size="34" font-style="normal" font-weight="bold" text-decoration="underline" style="stroke: none; stroke-width: 0; stroke-dasharray: none; stroke-linecap: butt; stroke-dashoffset: 0; stroke-linejoin: miter; stroke-miterlimit: 4; fill: cmyk(0,0,0,100); fill-rule: nonzero; opacity: 1; white-space: pre;" x="-51.318749351501474" y="10.68076">Test 1</text>
</g>
</g>
</svg>
