<?xml version="1.0" encoding="UTF-8" standalone="no"?>
<!-- Created with Inkscape (http://www.inkscape.org/) -->

<svg
   xmlns:dc="http://purl.org/dc/elements/1.1/"
   xmlns:cc="http://creativecommons.org/ns#"
   xmlns:rdf="http://www.w3.org/1999/02/22-rdf-syntax-ns#"
   xmlns:svg="http://www.w3.org/2000/svg"
   xmlns="http://www.w3.org/2000/svg"
   version="1.1"
   width="300"
   height="253.15167"
   id="svg8599">
  <defs
     id="defs8601">
    <clipPath
       id="clipPath7857">
      <path
         d="m 538.777,67.109 -161.907,0 0,-33.633 161.907,0 0,33.633 z"
         id="path7859" />
    </clipPath>
  </defs>
  <metadata
     id="metadata8604">
    <rdf:RDF>
      <cc:Work
         rdf:about="">
        <dc:format>image/svg+xml</dc:format>
        <dc:type
           rdf:resource="http://purl.org/dc/dcmitype/StillImage" />
        <dc:title></dc:title>
      </cc:Work>
    </rdf:RDF>
  </metadata>
  <g
     transform="translate(-224.99996,-405.7863)"
     id="layer1">
    <g
       transform="matrix(6.0215824,0,0,6.0215824,-2481.2526,-5463.6095)"
       id="g8516">
      <g
         transform="matrix(1.25,0,0,-1.25,-174.22498,1058.6122)"
         id="g7853">
        <g
           clip-path="url(#clipPath7857)"
           id="g7855">
          <g
             transform="translate(516.504,46.077)"
             id="g7861">
            <path
               d="m 0,0 c 0,0 -0.052,-0.884 -3.9,-0.884 0,0 -3.797,-0.468 -5.461,1.196 0,0 -1.456,0 -2.756,-0.156 0,0 -3.431,-0.572 -4.628,4.576 0,0 -0.259,0.884 1.3,1.248 0,0 -2.287,2.236 -2.131,4.264 0,0 -0.156,1.04 1.872,1.196 0,0 -1.457,1.352 -0.572,3.9 0,0 1.144,1.04 2.496,0 0,0 -0.468,2.236 2.183,2.496 0,0 0.78,-0.156 0.936,-0.416 0,0 -0.052,1.56 1.976,1.612 0,0 0.988,-0.156 1.3,-0.468 0,0 0.442,1.092 1.924,1.131 0,0 0.781,0 1.17,-0.702 0,0 0.586,2.106 3.471,2.028 0,0 3.472,0.507 3.627,-5.499 0,0 0.273,-1.833 -0.702,-3.939 0,0 0.234,-0.507 0.585,0.312 0,0 0.43,0.702 0.546,1.677 0,0 0.508,2.535 1.639,3.744 0,0 0.779,0.897 1.13,1.794 0,0 0.313,0.858 1.093,0.234 0,0 1.208,-0.936 1.326,-1.872 0,0 0.428,1.482 0.897,2.34 0,0 0.818,1.56 3.041,0.39 0,0 0.975,-0.273 0.975,-1.911 0,0 -0.038,-0.702 -0.194,-1.014 0,0 0.156,-0.195 0.507,0.234 0,0 1.13,1.092 1.91,1.131 0,0 1.95,-0.585 1.794,-2.34 0,0 -0.039,-0.897 -0.702,-1.638 0,0 0.469,-1.092 -0.233,-2.028 0,0 0.156,-0.195 0.429,0.117 0,0 1.404,0.936 2.574,0.936 0,0 2.73,0.039 2.847,-3.003 0,0 0.156,-1.326 -1.405,-2.028 0,0 -3.938,-1.911 -6.123,-4.758 0,0 -2.652,-4.524 -4.914,-4.524 0,0 -3.353,-0.117 -5.108,0.195 L 3.08,-0.234 c 0,0 -0.117,-2.262 -0.428,-2.925 l 0.857,0 c 0,0 0,-1.092 -0.819,-1.911 0,0 -0.975,-1.404 -1.247,-2.379 0,0 1.755,0.078 2.261,0.39 0,0 -5.694,-4.787 -5.81,-5.494 0,0 -1.054,-0.278 -1.521,0.502 0,0 -0.897,0.117 -1.795,0 0,0 -0.975,0.234 -1.17,0.936 0,0 -0.273,0.351 0.313,0.468 0,0 3.705,1.716 4.602,4.29 l -0.624,1.404 c 0,0 -0.273,1.287 0,1.716 l 1.17,-1.131 c 0,0 0.429,-0.663 0.429,0.468 l 0.078,2.652 0.74,-0.546 c 0,0 0.157,1.326 -0.116,1.794"
               id="path7863"
               style="fill:#231f20;fill-opacity:1;fill-rule:evenodd;stroke:none" />
          </g>
        </g>
      </g>
      <g
         transform="matrix(1.25,0,0,-1.25,452.44002,994.33595)"
         id="g7865">
        <path
           d="m 0,0 c 0,0 -1.13,0.156 -1.052,-0.858 0,0 0.975,-2.379 2.145,-3.081 0,0 0.74,-0.663 1.52,-0.585 0,0 2.496,0.351 3.549,0.039 0,0 0.859,-1.014 3.939,-1.092 0,0 2.925,-0.156 3.94,0.156 0,0 1.053,0.234 1.053,1.209 0,0 -0.04,1.053 -2.301,1.56 0,0 -1.599,0.351 -2.028,0.546 0,0 -0.586,0.546 -1.483,0.234 0,0 -0.389,-0.351 -1.91,-0.351 0,0 -4.642,0.624 -5.928,1.482 0,0 -0.624,0.78 -1.444,0.741"
           id="path7867"
           style="fill:#ffffff;fill-opacity:1;fill-rule:evenodd;stroke:none" />
      </g>
      <g
         transform="matrix(1.25,0,0,-1.25,450.10002,988.48595)"
         id="g7869">
        <path
           d="m 0,0 c 0,0 0.118,0.897 1.248,0.858 0,0 0.507,0 1.053,-0.663 0,0 3.043,-3.081 6.357,-4.017 0,0 2.887,-1.053 4.33,-1.053 l 1.169,-0.117 1.639,-1.677 c 0,0 0.468,-0.507 -0.196,-0.429 0,0 -2.418,0.468 -3.315,1.17 0,0 -0.272,0.195 -1.326,-0.078 0,0 -0.896,-0.234 -1.833,-0.234 0,0 -7.995,0.156 -9.126,6.24"
           id="path7871"
           style="fill:#ffffff;fill-opacity:1;fill-rule:evenodd;stroke:none" />
      </g>
      <g
         transform="matrix(1.25,0,0,-1.25,451.41627,983.8072)"
         id="g7873">
        <path
           d="m 0,0 c 0,0 -0.311,1.482 0.937,1.404 0,0 1.131,0.039 1.95,-1.209 0,0 3.392,-4.992 7.176,-6.279 0,0 1.677,-0.546 2.652,-0.585 0,0 -0.391,-0.936 -0.351,-1.326 0,0 -10.219,0.975 -12.364,7.995"
           id="path7875"
           style="fill:#ffffff;fill-opacity:1;fill-rule:evenodd;stroke:none" />
      </g>
      <g
         transform="matrix(1.25,0,0,-1.25,454.97502,981.3197)"
         id="g7877">
        <path
           d="m 0,0 c 0,0 0.196,1.482 1.444,1.482 0,0 0.779,-0.039 0.975,-0.975 0,0 2.145,-6.045 7.02,-7.215 l 0.389,-0.039 c 0,0 0.507,-1.209 0.702,-1.404 0,0 -0.78,-0.234 -1.988,0.117 0,0 -6.592,2.418 -8.542,8.034"
           id="path7879"
           style="fill:#ffffff;fill-opacity:1;fill-rule:evenodd;stroke:none" />
      </g>
      <g
         transform="matrix(1.25,0,0,-1.25,458.58377,979.7597)"
         id="g7881">
        <path
           d="m 0,0 c 0,0 0.311,1.404 1.598,1.404 0,0 0.936,-0.039 1.014,-0.741 0,0 0.82,-5.733 4.096,-6.903 L 6.746,-7.254 C 6.746,-7.254 2.457,-7.293 0,0"
           id="path7883"
           style="fill:#ffffff;fill-opacity:1;fill-rule:evenodd;stroke:none" />
      </g>
      <g
         transform="matrix(1.25,0,0,-1.25,462.48252,978.93095)"
         id="g7885">
        <path
           d="m 0,0 c 0,0 0.04,1.131 1.677,1.404 0,0 0.897,-0.078 0.859,-1.014 0,0 0.195,-4.758 1.286,-6.552 0,0 -0.74,-0.351 -1.559,0.819 0,0 -1.482,1.794 -2.263,5.343"
           id="path7887"
           style="fill:#ffffff;fill-opacity:1;fill-rule:evenodd;stroke:none" />
      </g>
      <g
         transform="matrix(1.25,0,0,-1.25,469.11252,986.5847)"
         id="g7889">
        <path
           d="m 0,0 c 0,0 -0.507,-0.468 -0.896,-0.195 0,0 -1.248,2.34 -1.326,5.538 0,0 -0.235,3.549 3.041,3.51 0,0 3.12,0.546 3.276,-5.031 0,0 0.04,-2.613 -0.662,-3.627 0,0 -0.04,0.195 -0.429,0.234 0,0 0.389,6.201 -2.145,6.201 0,0 -2.652,0.195 -0.859,-6.63"
           id="path7891"
           style="fill:#ffffff;fill-opacity:1;fill-rule:evenodd;stroke:none" />
      </g>
      <g
         transform="matrix(1.25,0,0,-1.25,472.33002,985.8047)"
         id="g7893">
        <path
           d="m 0,0 c 0,0 -1.209,-0.195 -1.755,-0.546 0,0 -0.273,-0.195 -0.389,0.234 0,0 -1.561,5.538 0.389,5.733 0,0 1.561,0.468 1.755,-5.421"
           id="path7895"
           style="fill:#ffffff;fill-opacity:1;fill-rule:evenodd;stroke:none" />
      </g>
      <g
         transform="matrix(1.25,0,0,-1.25,467.55377,989.2172)"
         id="g7897">
        <path
           d="m 0,0 c 0,0 -0.195,1.17 0.116,1.443 0,0 1.131,-0.078 1.834,0.312 0,0 1.208,0.741 2.417,0.273 0,0 1.248,-0.78 1.248,-1.482 0,0 0.273,-0.741 -0.584,-0.975 0,0 -3.16,-1.326 -4.018,-1.092 0,0 -0.624,1.209 -1.013,1.521"
           id="path7899"
           style="fill:#e03b2a;fill-opacity:1;fill-rule:evenodd;stroke:none" />
      </g>
      <g
         transform="matrix(1.25,0,0,-1.25,467.69877,993.7022)"
         id="g7901">
        <path
           d="m 0,0 c 0,0 0,0.897 0.546,1.17 0,0 0.507,0.507 0.78,0.468 0,0 3.393,0.273 4.329,1.482 0,0 0.897,0.546 1.365,-0.156 0,0 -0.233,-0.585 0.624,-0.819 0,0 1.717,-0.507 2.068,-0.858 0,0 1.053,-1.131 1.053,-1.794 0,0 -0.664,-1.521 -5.304,-2.262 0,0 -0.195,-0.117 -0.469,0.312 0,0 0.039,0.663 -1.443,0.897 0,0 -0.389,-0.117 -0.624,0.312 0,0 -0.78,0.585 -1.17,-0.312 0,0 -0.818,0.273 -1.755,1.56"
           id="path7903"
           style="fill:#ffffff;fill-opacity:1;fill-rule:evenodd;stroke:none" />
      </g>
      <g
         transform="matrix(1.25,0,0,-1.25,474.62252,987.21845)"
         id="g7905">
        <path
           d="m 0,0 c 0,0 0.584,-0.624 0.467,-1.365 0,0 0.975,-0.312 1.365,0.195 0,0 2.847,3.003 3.432,6.708 0,0 0.195,1.755 -1.131,2.223 0,0 -0.702,-1.209 -0.897,-1.365 0,0 -1.091,-1.092 -1.833,-3.315 C 1.403,3.081 1.208,0.546 0,0"
           id="path7907"
           style="fill:#ffffff;fill-opacity:1;fill-rule:evenodd;stroke:none" />
      </g>
      <g
         transform="matrix(1.25,0,0,-1.25,477.35127,989.1197)"
         id="g7909">
        <path
           d="m 0,0 c 0,0 -0.702,-0.546 -0.078,-0.975 0,0 1.171,-0.351 1.482,-0.624 0,0 0.546,-0.39 0.897,0.273 0,0 2.028,2.925 2.457,3.549 0,0 2.301,3.159 2.847,5.031 0,0 1.404,3.237 -1.442,3.159 0,0 -0.742,0.273 -1.17,-0.78 C 4.993,9.633 3.043,3.042 0,0"
           id="path7911"
           style="fill:#ffffff;fill-opacity:1;fill-rule:evenodd;stroke:none" />
      </g>
      <g
         transform="matrix(1.25,0,0,-1.25,480.27752,991.55845)"
         id="g7913">
        <path
           d="m 0,0 c 0,0 1.013,-1.326 1.13,-1.716 0,0 1.326,1.911 2.535,2.34 0,0 0.897,0.39 1.288,0.858 0,0 1.052,0.975 1.208,1.131 0,0 1.834,1.014 2.263,2.067 0,0 0.429,0.78 0.584,1.053 0,0 0.234,0.975 0,1.287 0,0 0.858,1.326 0.624,1.911 0,0 -0.233,1.365 -1.365,1.443 0,0 -1.599,-0.741 -2.535,-2.106 L 1.95,2.418 0,0"
           id="path7915"
           style="fill:#ffffff;fill-opacity:1;fill-rule:evenodd;stroke:none" />
      </g>
      <g
         transform="matrix(1.25,0,0,-1.25,474.72002,997.65095)"
         id="g7917">
        <path
           d="m 0,0 c 0,0 0.155,-1.95 0.468,-2.262 0,0 2.261,-0.624 5.459,-0.508 0,0 2.106,-0.116 2.965,0.859 0,0 2.457,3.315 3.003,3.822 0,0 2.768,2.925 4.329,3.744 0,0 1.832,0.858 2.145,1.17 0,0 0.662,0.312 0.662,1.326 0,0 -0.117,2.223 -2.339,2.223 0,0 -1.521,-0.117 -3.16,-1.482 0,0 -3.587,-2.769 -4.211,-3.744 0,0 -1.521,0.039 -3.354,-2.496 C 5.967,2.652 4.484,0.234 0,0"
           id="path7919"
           style="fill:#ffffff;fill-opacity:1;fill-rule:evenodd;stroke:none" />
      </g>
      <g
         transform="matrix(1.25,0,0,-1.25,464.23752,1014.6159)"
         id="g7921">
        <path
           d="m 0,0 c 0,0 -0.234,-0.547 0.39,-0.624 0,0 1.444,0.312 1.99,-0.117 0,0 0.624,-0.781 1.364,0.117 0,0 2.301,2.457 3.549,3.315 L 6.24,2.729 c 0,0 0.624,1.288 0.742,2.068 0,0 1.248,1.404 1.521,2.105 L 7.761,6.981 c 0,0 0.469,1.95 0.469,3.627 0,0 0.116,2.574 -1.093,3.705 0,0 -0.468,0.273 -1.014,0.273 0,0 -0.585,0.039 -0.74,0.429 0,0 -0.664,0 -0.313,-0.78 0,0 1.248,-1.521 1.366,-3.744 0,0 0.195,-1.833 -0.118,-2.535 L 5.616,8.619 c 0,0 0.156,-2.068 -0.155,-2.496 0,0 -0.04,-0.975 -0.858,-0.351 0,0 -0.468,0.273 -0.586,0.702 0,0 0.118,-1.326 0.742,-1.911 0,0 -0.624,-1.834 -2.146,-2.847 C 2.613,1.716 1.132,0.156 0,0"
           id="path7923"
           style="fill:#00907e;fill-opacity:1;fill-rule:evenodd;stroke:none" />
      </g>
    </g>
  </g>
</svg>
