<?xml version="1.0" encoding="utf-8"?>
<!-- Generator: Adobe Illustrator 24.0.1, SVG Export Plug-In . SVG Version: 6.00 Build 0)  -->
<svg version="1.0" xmlns="http://www.w3.org/2000/svg" xmlns:xlink="http://www.w3.org/1999/xlink" x="0px" y="0px"
	 viewBox="0 0 242.222 255.333" enable-background="new 0 0 242.222 255.333" xml:space="preserve">
<g id="background">
	<g>
		<circle fill-rule="evenodd" clip-rule="evenodd" fill="#F6EEEF" cx="121.111" cy="127.667" r="103.634"/>
		<g>
			<defs>
				<circle id="SVGID_19_" cx="121.111" cy="127.667" r="103.634"/>
			</defs>
			<clipPath id="SVGID_2_">
				<use xlink:href="#SVGID_19_"  overflow="visible"/>
			</clipPath>
			<g clip-path="url(#SVGID_2_)">
				<path fill-rule="evenodd" clip-rule="evenodd" fill="#4A63B8" d="M31.035,76.39c14.954-26.214,41.019-45.268,71.783-50.747
					c-5.049,46.126-4.404,80.317,1.807,105.534c6.202,25.175,17.927,41.481,35.042,51.788c-3.131,4.116-6.297,8.016-9.452,11.654
					c-3.232,3.727-6.472,7.061-9.66,10.019c-8.932-4.14-18.166-9.382-27.146-15.775c-26.539-18.891-50.725-47.79-58.009-87.774
					c-1.422-7.809-2.203-16.042-2.233-24.7H31.035z"/>
				<path fill-rule="evenodd" clip-rule="evenodd" fill="#B93535" d="M85.706,225.093c-17.591-6.394-32.959-17.414-44.634-31.591
					c15.026,6.191,34.963,17.642,53.123,28.42c-3.468,1.237-6.301,1.694-8.271,1.443L85.706,225.093z"/>
				<path fill-rule="evenodd" clip-rule="evenodd" fill="#F6EEEF" d="M108.667,230.555c-5.422-0.649-10.719-1.712-15.85-3.164
					c2.012-0.537,4.225-1.32,6.594-2.365l5.3,3.166L108.667,230.555z"/>
				<path fill-rule="evenodd" clip-rule="evenodd" fill="#4A63B8" d="M165.268,221.443c-13.395,6.32-28.363,9.858-44.157,9.858
					c-1.631,0-3.252-0.043-4.865-0.117l0.782-1.324c-4.068-2.412-6.899-4.103-9.818-5.847l-2.617-1.564
					c1.385-0.764,2.807-1.606,4.257-2.53c3.996-2.544,8.249-5.71,12.615-9.547C138.521,217.869,154.363,221.466,165.268,221.443z"/>
				<path fill-rule="evenodd" clip-rule="evenodd" fill="#B93535" d="M188.685,49.095c22.079,19.006,36.061,47.154,36.061,78.572
					c0,6.48-0.601,12.819-1.738,18.97l-1.011-0.581c-9.071,15.75-22.422,29.119-37.416,35.57
					c-11.946,5.138-24.961,5.845-37.664-0.247c14.111-19.386,27.245-42.813,35.503-66.116
					C190.744,91.773,194.14,68.335,188.685,49.095z"/>
				<path fill-rule="evenodd" clip-rule="evenodd" fill="#4B4B4D" d="M187.513,45.41c7.047,19.889,3.77,44.842-5.093,69.853
					c-8.258,23.304-21.392,46.731-35.503,66.116c12.703,6.091,25.718,5.385,37.664,0.247c14.993-6.451,28.344-19.82,37.416-35.57
					l4.217,2.423c-9.572,16.62-23.736,30.76-39.706,37.631c-13.459,5.791-28.177,6.466-42.543-0.755
					c-3.333,4.406-6.705,8.575-10.067,12.451c-2.842,3.278-5.695,6.265-8.521,8.974c15.634,6.643,29.993,9.83,39.953,9.797
					c2.102-0.008,3.994-0.163,5.641-0.463l0.859,4.791c-1.916,0.349-4.098,0.53-6.499,0.538
					c-10.907,0.037-26.778-3.56-43.864-11.071c-4.365,3.836-8.618,7.003-12.615,9.547c-1.451,0.924-2.872,1.767-4.257,2.53
					l2.617,1.564c2.918,1.744,5.75,3.435,9.818,5.847l-2.481,4.199c-2.17-1.287-5.928-3.533-9.836-5.867l-5.3-3.166
					c-5.894,2.598-10.823,3.583-14.097,3.168l0.61-4.829c1.97,0.25,4.803-0.206,8.271-1.443
					c-19.862-11.788-41.849-24.384-57.214-30.019l1.68-4.579c16.508,6.053,40.228,19.814,61.052,32.213
					c2.049-1.026,4.234-2.262,6.525-3.721c3.294-2.097,6.778-4.646,10.362-7.673c-8.612-4.112-17.437-9.204-26.014-15.309
					c-27.423-19.521-52.424-49.429-59.976-90.885c-1.47-8.074-2.278-16.592-2.308-25.559h4.866c0.03,8.658,0.811,16.891,2.233,24.7
					c7.284,39.984,31.47,68.883,58.009,87.774c8.98,6.392,18.214,11.635,27.146,15.775c3.188-2.958,6.428-6.292,9.66-10.019
					c3.155-3.638,6.32-7.538,9.452-11.654c-17.115-10.307-28.84-26.614-35.042-51.788c-6.359-25.818-6.884-61.04-1.438-108.849
					l4.847,0.534c-5.381,47.236-4.894,81.905,1.325,107.151c5.912,23.999,17.029,39.413,33.234,49.03
					c13.996-19.125,27.05-42.326,35.228-65.403c8.522-24.047,11.728-47.882,5.093-66.608L187.513,45.41z"/>
			</g>
		</g>
		<path fill-rule="evenodd" clip-rule="evenodd" fill="#4B4B4D" d="M121.111,21.589c29.292,0,55.812,11.874,75.008,31.07
			c19.195,19.196,31.07,45.716,31.07,75.008c0,29.291-11.874,55.811-31.07,75.008c-19.196,19.196-45.716,31.07-75.008,31.07
			c-29.291,0-55.812-11.874-75.008-31.07c-19.195-19.196-31.07-45.717-31.07-75.008c0-29.292,11.874-55.812,31.07-75.008
			C65.299,33.463,91.82,21.589,121.111,21.589L121.111,21.589z M192.665,56.112c-18.311-18.31-43.61-29.637-71.554-29.637
			c-27.943,0-53.243,11.327-71.554,29.637c-18.31,18.311-29.637,43.61-29.637,71.554c0,27.943,11.327,53.243,29.637,71.554
			c18.311,18.31,43.611,29.637,71.554,29.637c27.944,0,53.243-11.327,71.554-29.637c18.31-18.311,29.637-43.611,29.637-71.554
			C222.302,99.722,210.975,74.423,192.665,56.112z"/>
		<path opacity="0.29" fill-rule="evenodd" clip-rule="evenodd" fill="#727376" d="M210.451,179.842
			c-17.89,31.088-51.443,52.019-89.886,52.019c-57.236,0-103.635-46.398-103.635-103.634c0-11.318,1.821-22.209,5.175-32.405
			c-0.051,1.391-0.086,2.789-0.086,4.193c0,61.375,49.754,111.129,111.129,111.129C163.194,211.144,190.45,199.215,210.451,179.842z
			"/>
	</g>
</g>
<g id="Vexels">
</g>
<g id="Layer_3">
</g>
</svg>
