<?xml version="1.0" encoding="utf-8"?>
<!-- Generator: Adobe Illustrator 24.0.1, SVG Export Plug-In . SVG Version: 6.00 Build 0)  -->
<svg version="1.0" xmlns="http://www.w3.org/2000/svg" xmlns:xlink="http://www.w3.org/1999/xlink" x="0px" y="0px"
	 viewBox="0 0 242.222 255.333" enable-background="new 0 0 242.222 255.333" xml:space="preserve">
<g id="background">
	<g>
		<circle fill-rule="evenodd" clip-rule="evenodd" fill="#EE613A" cx="121.111" cy="127.667" r="103.634"/>
		<g>
			<defs>
				<circle id="SVGID_9_" cx="121.111" cy="127.667" r="103.634"/>
			</defs>
			<clipPath id="SVGID_2_">
				<use xlink:href="#SVGID_9_"  overflow="visible"/>
			</clipPath>
			<g clip-path="url(#SVGID_2_)">
				<polygon fill-rule="evenodd" clip-rule="evenodd" fill="#A9ABAE" points="58.008,24.796 105.987,10.257 101.625,77.137 
					103.079,112.758 111.802,148.379 129.249,173.822 155.419,189.088 176.502,187.634 200.491,176.003 228.115,146.925 
					216.484,201.446 138.699,240.702 119.072,239.248 100.898,223.255 75.455,208.716 47.83,194.177 20.933,186.18 7.121,124.39 
					19.479,61.145 				"/>
				<path fill-rule="evenodd" clip-rule="evenodd" fill="#4B4B4D" d="M187.513,45.41c7.047,19.889,3.77,44.843-5.093,69.853
					c-10.766,30.381-29.818,60.971-48.522,82.543c-8.605,9.925-17.309,17.188-25.046,22.112
					c-10.015,6.377-18.632,8.897-23.538,8.275l0.61-4.828c3.934,0.499,11.307-1.816,20.313-7.549
					c7.376-4.696,15.703-11.653,23.978-21.196c18.352-21.167,37.044-51.178,47.605-80.979c8.522-24.047,11.727-47.882,5.093-66.609
					L187.513,45.41z"/>
				<path fill-rule="evenodd" clip-rule="evenodd" fill="#4B4B4D" d="M108.033,22.863c-5.381,47.236-4.894,81.905,1.325,107.151
					c6.112,24.813,17.789,40.45,34.901,49.99c13.536,7.546,27.54,7.121,40.321,1.623c14.993-6.451,28.345-19.82,37.416-35.57
					l4.217,2.423c-9.572,16.62-23.735,30.76-39.706,37.631c-14.107,6.069-29.596,6.521-44.614-1.852
					c-18.328-10.218-30.801-26.829-37.268-53.081c-6.359-25.818-6.884-61.04-1.438-108.849L108.033,22.863z"/>
				<path fill-rule="evenodd" clip-rule="evenodd" fill="#4B4B4D" d="M33.167,76.39c0.03,8.658,0.811,16.891,2.233,24.7
					c7.284,39.984,31.47,68.883,58.009,87.774c26.552,18.9,55.337,27.77,71.921,27.713c2.102-0.008,3.994-0.163,5.64-0.462
					l0.859,4.791c-1.917,0.349-4.098,0.53-6.499,0.538c-17.372,0.059-47.333-9.096-74.745-28.609
					c-27.423-19.521-52.424-49.429-59.976-90.885c-1.47-8.074-2.278-16.592-2.309-25.559H33.167z"/>
				<path fill-rule="evenodd" clip-rule="evenodd" fill="#4B4B4D" d="M38.661,187.323c18.529,6.794,46.145,23.299,68.55,36.69
					c2.919,1.744,5.75,3.436,9.818,5.847l-2.481,4.199c-2.17-1.287-5.928-3.533-9.836-5.867
					c-22.21-13.275-49.588-29.635-67.73-36.289L38.661,187.323z"/>
			</g>
		</g>
		<path fill-rule="evenodd" clip-rule="evenodd" fill="#4B4B4D" d="M121.111,21.589c29.292,0,55.812,11.874,75.008,31.07
			c19.195,19.196,31.07,45.716,31.07,75.008c0,29.291-11.874,55.812-31.07,75.008c-19.196,19.195-45.716,31.07-75.008,31.07
			c-29.291,0-55.811-11.874-75.008-31.07c-19.196-19.196-31.07-45.717-31.07-75.008c0-29.292,11.874-55.812,31.07-75.008
			C65.3,33.463,91.82,21.589,121.111,21.589L121.111,21.589z M192.665,56.113c-18.311-18.31-43.61-29.637-71.554-29.637
			c-27.943,0-53.243,11.327-71.554,29.637c-18.31,18.311-29.637,43.61-29.637,71.554c0,27.943,11.327,53.243,29.637,71.554
			c18.311,18.31,43.611,29.637,71.554,29.637c27.944,0,53.243-11.327,71.554-29.637c18.31-18.311,29.637-43.611,29.637-71.554
			C222.303,99.723,210.975,74.423,192.665,56.113z"/>
		<path opacity="0.29" fill-rule="evenodd" clip-rule="evenodd" fill="#727376" d="M212.996,178.024
			c-17.89,31.088-51.443,52.019-89.886,52.019c-57.236,0-103.634-46.399-103.634-103.635c0-11.318,1.821-22.209,5.175-32.405
			c-0.051,1.391-0.086,2.789-0.086,4.193c0,61.376,49.754,111.129,111.129,111.129C165.738,209.326,192.994,197.397,212.996,178.024
			z"/>
	</g>
</g>
<g id="Vexels">
</g>
<g id="Layer_3">
</g>
</svg>
