<?xml version="1.0" encoding="utf-8"?>
<!-- Generator: Adobe Illustrator 24.0.1, SVG Export Plug-In . SVG Version: 6.00 Build 0)  -->
<svg version="1.0" xmlns="http://www.w3.org/2000/svg" xmlns:xlink="http://www.w3.org/1999/xlink" x="0px" y="0px"
	 viewBox="0 0 996 1154" enable-background="new 0 0 996 1154" xml:space="preserve">
<g id="background">
	<g>
		<path fill-rule="evenodd" clip-rule="evenodd" d="M254.7,368.623c-69.674-86.263-37.133-46.877-147.097-173.938
			c113.368,119.566,80.973,87.035,154.13,159.092C259.145,358.795,256.794,363.756,254.7,368.623L254.7,368.623z M369.024,232.987
			c6.488-4.211,13.043-7.987,19.618-11.247c-127.27-30.059-66.098-14.747-235.174-60.714
			C313.188,212.339,265.349,195.745,369.024,232.987L369.024,232.987z M301.694,294.298c5.315-6.378,10.877-12.618,16.643-18.631
			c-113.841-53.94-58.457-26.138-193.377-98.851C252.622,257.855,204.37,225.149,301.694,294.298z"/>
		<path fill-rule="evenodd" clip-rule="evenodd" d="M309.868,552.741l5.162,22.024c-22.314,11.277-23.471,8.198-46.47,23.147
			c-5.214,3.389-10.69,6.566-15.82,10.053c53.677-1.475,155.138-16.973,260.656-39.322c142.478-30.176,289.766-72.77,332.973-110.06
			c-1.634-0.295-2.975-0.777-4.002-1.409c-3.478-0.299-7.688-0.475-12.428-0.538c-0.478-0.005-0.94-0.024-1.388-0.053
			c-33.643-0.346-83.627,3.289-91.099,7.329c-10.224,5.511-23.403,7.5-29.429,4.443c-6.026-3.056-2.625-10.005,7.6-15.516
			c5.324-2.88,15.38-5.729,28.029-8.315c-2.148,1.235-3.787,2.688-4.454,4.106c-1.422,3.017,2.093,4.736,7.849,3.837
			c52.746-8.228,83.04-8.17,99.326-4.193c6.823,1.665,11.09,4.038,13.477,6.752c2.331,2.651,2.875,5.609,2.281,8.531
			c-0.63,3.105-2.522,6.19-4.892,8.835c-35.367,39.44-156.705,79.127-285.84,108.734c-168.938,38.736-349.474,60.066-371.229,41.611
			c-0.136-0.116-0.237-0.235-0.299-0.353c-0.589-1.106,0.184-3.042,2.138-5.554c2.387-3.069,6.442-6.801,11.932-10.891
			c13.261-9.879,34.228-21.317,59.894-30.335c5.835-2.04,9.734-5.639,8.706-8.033c-1.028-2.395-6.594-2.68-12.43-0.639
			c-30.605,10.754-55.717,24.475-71.674,36.363c-7.161,5.336-12.606,10.403-16.007,14.775c-3.834,4.927-5.148,9.1-3.589,12.024
			c0.345,0.651,0.817,1.234,1.407,1.733c24.431,20.727,213.671-0.136,389.306-40.407c136.774-31.358,266.351-74.571,306.604-119.463
			c3.561-3.971,6.396-8.582,7.331-13.185c0.867-4.276,0.122-8.547-3.163-12.283c-3.23-3.673-8.918-6.862-17.951-9.067
			c-7.946-1.939-18.56-3.107-32.496-3.136c7.502-0.35,14.628-0.518,21.089-0.465c0.517-0.019,1.026-0.027,1.529-0.019
			c9.922,0.134,18.651,0.736,25.234,1.897c2.524,0.446,4.772,0.991,6.713,1.644c7.402,1.648,13.741,4.83,18.397,9.003
			c2.846,2.552,5.133,5.448,6.688,8.537c1.579,3.134,2.48,6.578,2.533,10.193c0.066,4.402-1.145,9.047-3.906,13.726
			c-5.113,103.425-516.477,206.413-615.548,206.413c-21.636,0-117.495,6.187-130.434-22.643l-0.082-0.074
			c-0.292-0.264-0.566-0.528-0.804-0.777c-3.341-3.513-9.462-13.42-10.776-23.896c-0.945-7.532,0.568-15.761,6.993-23.335
			c21.487-25.339,91.953-54.126,117.7-64.145c2.517-1.221,5.228-2.261,7.972-3.069c11.243-4.627,23.236-5.014,26.857-0.85
			C311.531,548.148,311.365,550.38,309.868,552.741z"/>
		<path fill-rule="evenodd" clip-rule="evenodd" d="M267.146,679.197l-0.097-0.198c0.848,36.386,312.765,100.777,250.292,220.753
			c-33.225,63.808,121.765,104.563,136.57,196.489l-0.06,1.759c-1.198-0.28-1.53-0.195-2.381-0.805
			c-20.909-14.974-35.508-57.514-104.398-97.407c-100.308-58.087-50.279-112.686-53.297-132.036
			c-12.636-81.009-264.597-94.553-274.618-188.555c0-13.253,10.743-23.996,23.995-23.996
			C256.403,655.201,267.146,665.944,267.146,679.197z"/>
		<path fill-rule="evenodd" clip-rule="evenodd" d="M809.488,521.617c97.654,48.408,92.025,169.152,25.85,243.495
			c-97.786,109.851-64.474,66.108-43.927,157.182c17.315,76.743-52.838,111.898-97.819,164.312
			c-1.834,2.137-2.657,1.535-4.616,0.588c0,0,1.455-1.685,1.512-1.899c14.771-56.081,104.858-90.76,71.693-165.91
			c-41.975-95.11-28.544-87.689,46.77-181.357c40.102-49.875,49.921-142.007-16.224-171.446
			c-12.417-4.628-18.73-18.445-14.102-30.862C783.254,523.302,797.071,516.987,809.488,521.617z"/>
		<path fill-rule="evenodd" clip-rule="evenodd" d="M821.587,553.552c-17.031,100.676-99.512,205.179-185.265,255.786
			c-39.283,23.182-80.49,45.219-120.275,68.448c44.658-36.688,66.851-48.137,113.95-78.851
			c76.611-49.958,155.575-151.827,169.54-245.383c0-6.089,4.936-11.024,11.026-11.024
			C816.65,542.528,821.587,547.463,821.587,553.552z"/>
		<path fill-rule="evenodd" clip-rule="evenodd" d="M761.308,561.252c-57.366,87.967-182.939,221.925-281.586,270.337
			C581.645,747.998,671.5,666.755,741.845,553.037c2.269-5.377,8.465-7.894,13.84-5.625
			C761.06,549.681,763.579,555.877,761.308,561.252z"/>
		<path fill-rule="evenodd" clip-rule="evenodd" d="M658.572,613.191c-25.959,40.703-152.849,185.371-201.149,201.965
			c-3.437,1.181-2.791,0.89-6.223,0.486c17.727-12.44,30.229-27.613,47.485-42.728c71.347-62.493,96.561-117.306,158.546-181.731
			c6.077-0.372,11.304,4.254,11.675,10.332C669.276,607.595,664.65,612.821,658.572,613.191z"/>
		<path fill-rule="evenodd" clip-rule="evenodd" d="M586.133,625.336c-43.732,83.627-86.374,106.68-155.197,164.64
			c51.987-69.862,93.909-85.771,133.916-170.405c1.591-5.878,7.645-9.35,13.523-7.76
			C584.252,613.404,587.724,619.458,586.133,625.336z"/>
		<path fill-rule="evenodd" clip-rule="evenodd" d="M500.108,638.446c-46.352,65.759-61.028,67.918-109.952,122.038l0.076-0.322
			c-0.995,2.941-2.721,7.113-6.578,5.501l-0.004-0.012c8.647-16.205-11.507,4.995,22.914-40.375
			c34.975-46.099,37.626-36.929,74.086-97.198c2.861-5.375,9.539-7.407,14.912-4.545
			C500.937,626.396,502.969,633.073,500.108,638.446z"/>
		<path fill-rule="evenodd" clip-rule="evenodd" d="M427.175,656.615c-6.69,7.239-76.131,87.358-82.701,88.776
			c0.216-2.853-0.134-1.548,0.926-3.945l-0.207,0.289c39.559-68.967,17.817-35.837,65.188-99.406
			c3.943-4.639,10.902-5.198,15.539-1.255C430.559,645.02,431.12,651.977,427.175,656.615z"/>
		<path fill-rule="evenodd" clip-rule="evenodd" d="M347.05,663.012c-15.5,26.508-29.388,40.909-51.211,62.115
			c7.557-35.311,16.689-36.748,29.848-67.575c1.508-5.899,7.511-9.46,13.412-7.952C344.997,651.108,348.556,657.113,347.05,663.012z
			"/>
		<path fill-rule="evenodd" clip-rule="evenodd" d="M868.869,622.452C851.18,740.319,666.209,841.447,567.313,883.18
			c-19.224,8.113-43.502,20.523-62.073,29.733c29.232-21.33,27.275-21.811,59.516-37.816
			c85.238-42.31,268.664-148.454,282.063-252.645c0-6.088,4.936-11.024,11.026-11.024
			C863.933,611.428,868.869,616.364,868.869,622.452z"/>
		<path fill-rule="evenodd" clip-rule="evenodd" d="M760.979,853.547c-94.982,33.005-135.559,68.393-238.846,72.719
			c-5.258,0.218-5.059,4.016-12.84,1.51c4.422-2.241,10.093-6.221,14.36-6.674c83.394-8.838,156.602-59.722,233.813-89.323
			c6.01-0.968,11.67,3.117,12.64,9.127C771.076,846.917,766.991,852.577,760.979,853.547z"/>
		<path fill-rule="evenodd" clip-rule="evenodd" d="M777.39,919.345c-95.793,43.235-146.081,55.046-257.289,51.675
			c121.057-21.093,144.088-19.263,250.1-71.888c5.582-1.984,11.716,0.931,13.702,6.513
			C785.887,911.225,782.973,917.361,777.39,919.345z"/>
		<path fill-rule="evenodd" clip-rule="evenodd" d="M285.543,660.16c53.846,50.536,389.646,47.916,462.577,41.449
			c32.25-2.858,65.891-11.237,98.919-11.609c-98.59,29.601-497.217,58.694-578.733-16.091c-3.798-4.761-3.017-11.697,1.743-15.495
			C274.809,654.617,281.745,655.399,285.543,660.16z"/>
		<path fill-rule="evenodd" clip-rule="evenodd" d="M399.314,636.871c111.044,28.401,326.551,13.166,455.764,22.512
			c1.543-0.476,0.757-0.315,2.766-0.455c-0.711,0.821-1.54,2.08-2.734,2.237c-86.306,11.274-384.34,15.212-465.506-4.497
			c-5.467-2.679-7.723-9.284-5.044-14.751C387.242,636.45,393.848,634.191,399.314,636.871z"/>
		<path fill-rule="evenodd" clip-rule="evenodd" d="M603.647,606.082c86.387,9.318,169.416,13.776,255.55,21.774
			c-97.572,7.676-160.662,6.14-257.821,0.159c-6.056-0.626-10.458-6.044-9.831-12.102
			C592.172,609.857,597.589,605.455,603.647,606.082z"/>
		<path fill-rule="evenodd" clip-rule="evenodd" d="M727.895,570.899c74.894,8.446,36.503,2.697,115.09,17.778
			c-79.493,5.66-41.295,4.476-114.575,4.265c-6.088,0.142-11.137-4.676-11.279-10.764
			C716.989,576.09,721.807,571.042,727.895,570.899z"/>
		<path fill-rule="evenodd" clip-rule="evenodd" d="M355.723,732.427c39.458,22.504,327.292,18.149,379.589,9.263
			c42.387-7.201,64.342-8.138,104.889-23.685l-0.059,0.037c1.789-0.881,0.844-0.534,2.843-1.021
			c-11.138,17.776-82.468,29.672-104.625,34.541c-45.966,10.099-392.84,36.083-403.489-13.024c-0.692-6.049,3.651-11.513,9.7-12.204
			C349.331,725.787,353.727,728.36,355.723,732.427z"/>
		<path fill-rule="evenodd" clip-rule="evenodd" d="M464.663,803.358c108.26-8.808,208.069,16.038,305.895-1.435
			c7.863-1.404,3.822-1.035,11.633-1.139c-55.661,32.465-235.409,16.156-306.627,21.741c-5.292,3.01-12.023,1.159-15.033-4.133
			C457.52,813.097,459.371,806.367,464.663,803.358z"/>
		<path fill-rule="evenodd" clip-rule="evenodd" d="M514.96,853.256c86.374,20.373,117.036,35.025,209.949,42.113l39.72,4.035
			c-115.602,13.654-139.324-1.274-250.195-24.105c-6.088-0.146-10.904-5.198-10.759-11.286
			C503.82,857.927,508.873,853.112,514.96,853.256z"/>
		<path fill-rule="evenodd" clip-rule="evenodd" d="M500.07,825.281c89.9,15.641,165.05,15.096,255.1,22.786
			c-98.931,8.941-161.839,11.346-260.97-1.535c-5.869-1.621-9.311-7.691-7.692-13.56C488.129,827.104,494.202,823.66,500.07,825.281
			z"/>
		<path fill-rule="evenodd" clip-rule="evenodd" d="M500.224,897.419c101.322,28.059,157.741,21.785,260.351,29.006
			c-111.006,10.849-158.965,16.904-269.232-8.826c-5.574-2.451-8.102-8.957-5.65-14.53
			C488.147,897.495,494.651,894.966,500.224,897.419z"/>
		<path fill-rule="evenodd" clip-rule="evenodd" d="M518.588,944.666c27.93,36.048,256.877,32.566,258.201,33.41
			c-1.86,0.754-1.05,0.598-2.365,0.742c-0.034,0.047-0.032,0.042-0.017,0.097c-7.5,12.534-233.746,24.795-273.955-22.725
			c-3.182-5.009-1.702-11.647,3.305-14.83C508.765,938.178,515.404,939.658,518.588,944.666z"/>
		<path fill-rule="evenodd" clip-rule="evenodd" d="M600.369,1014.302c46.454,8.853,61.606,16.656,111.062,15.119
			c21.508-0.671,7.314-1.982,28.881,1.688v0.011c-65.743,19.436-77.493,11.233-141.78,4c-5.748-0.508-9.998-5.579-9.49-11.327
			C589.55,1018.045,594.621,1013.793,600.369,1014.302z"/>
		<path fill-rule="evenodd" clip-rule="evenodd" d="M788.397,958.589c-31.547,35.736-107.938,104.986-157.515,106.987
			c5.568-5.132,12.025-10.272,18.382-14.343c68.062-43.571,69.03-38.546,121.318-105.635c3.587-4.92,10.483-6,15.403-2.412
			C790.905,946.774,791.985,953.669,788.397,958.589z"/>
		<path fill-rule="evenodd" clip-rule="evenodd" d="M697.995,262.593c32.076,10.679,77.108,95.781,63.043,138.952
			C765.862,373.478,712.965,270.079,697.995,262.593z"/>
		<path fill-rule="evenodd" clip-rule="evenodd" d="M750.955,262.998c29.724,18.022,33.327,60.469,26.388,90.889
			C777.525,341.993,760.411,271.759,750.955,262.998z"/>
		<path fill-rule="evenodd" clip-rule="evenodd" d="M460.916,330.367c29.209-8.267,100.436,38.699,95.604,70.632
			C557.46,378.966,478.983,327.297,460.916,330.367z"/>
		<path fill-rule="evenodd" clip-rule="evenodd" d="M422.674,397.876c15.877-5.83,27.578,42.04,28.486,49.169
			C450.065,444.345,428.06,397.209,422.674,397.876z"/>
		<path fill-rule="evenodd" clip-rule="evenodd" d="M341.117,392.415c-5.471-0.071-24.096,40.37-23.024,48.389
			C308.836,417.314,334.225,390.654,341.117,392.415z"/>
		<path fill-rule="evenodd" clip-rule="evenodd" d="M359.067,412.706c-12.435,15.53-12.672,47.121-12.486,65.558
			C339.581,450.106,335.454,432.354,359.067,412.706z"/>
		<path fill-rule="evenodd" clip-rule="evenodd" d="M218.794,405.948c-16.233,29.604,8.698,122.651,48.394,144.708
			C244.547,533.377,212.917,421.597,218.794,405.948z"/>
		<path fill-rule="evenodd" clip-rule="evenodd" d="M180.272,442.295c-9.502,33.439,16.737,66.979,42.532,84.546
			C214.573,518.249,179.311,455.155,180.272,442.295z"/>
		<path fill-rule="evenodd" clip-rule="evenodd" d="M372.712,182.385c-51.705,2.598-153.052,109.676-150.01,179.138
			C227.098,318.135,347.552,187.287,372.712,182.385z"/>
		<path fill-rule="evenodd" clip-rule="evenodd" d="M290.352,181.378c-34.515,4.118-55.346,41.277-61.604,71.846
			C233.5,242.318,278.12,185.445,290.352,181.378z"/>
		<path fill-rule="evenodd" clip-rule="evenodd" d="M389.31,330.34c-7.796-15.009-48.71,12.456-54.187,17.109
			C337.751,346.192,385.782,326.218,389.31,330.34z"/>
		<path fill-rule="evenodd" clip-rule="evenodd" d="M558.444,168.384C601.446,90.239,575.831,127.975,636.488,56
			C586.821,135.676,613.056,98.367,558.444,168.384z"/>
		<path fill-rule="evenodd" clip-rule="evenodd" d="M639.61,165.261c65.512-33.44,33.142-19.123,96.775-43.704
			C678.564,158.214,710.502,142.956,639.61,165.261z"/>
		<path fill-rule="evenodd" clip-rule="evenodd" d="M758.238,218.331c46.089-10.739,22.185-8.344,71.801-6.242
			C782.01,223.959,805.965,222.133,758.238,218.331z"/>
		<path fill-rule="evenodd" clip-rule="evenodd" d="M814.43,280.767c62.089-1.154,31.929-5.444,90.531,12.488
			C844.224,291.133,874.414,295.204,814.43,280.767z"/>
		<path fill-rule="evenodd" clip-rule="evenodd" d="M155.735,349.447c-12.64,29.972-51.247,15.621-71.8,9.366
			C100.287,360.372,144.996,365.954,155.735,349.447z"/>
		<path fill-rule="evenodd" clip-rule="evenodd" d="M133.883,421.247c-21.259,24.061-8.913,13.488-37.462,31.218
			C115.79,423.942,103.099,434.099,133.883,421.247z"/>
		<polygon fill-rule="evenodd" clip-rule="evenodd" points="133.883,511.778 127.639,518.521 121.396,511.778 127.639,505.035 		"/>
		<path fill-rule="evenodd" clip-rule="evenodd" d="M472.595,176.185c-9.343-43.999-9.061-21.629,0-67.117
			C477.822,154.816,478.055,132.445,472.595,176.185z"/>
		<path fill-rule="evenodd" clip-rule="evenodd" d="M198.659,193.26c-20.096,2.398-32.227,24.036-35.871,41.835
			C165.555,228.745,191.537,195.628,198.659,193.26z"/>
		<path fill-rule="evenodd" clip-rule="evenodd" d="M374.441,554.558c-2.389,13.522,0.591,31.401,0.327,34.294
			c-0.655,7.158,0.421,1.575-1.866,4.43c-4.806-3.575-6.884-21.877-8.16-27.85c-5.557-26.009-13.568-66.586-22.698-88.833
			l2.205,90.763c-6.252-10.474-8.734-24.933-15.567-33.658l-0.032,30.255c-8.722-10.005-7.116-66.913-14.187-73.75
			c-8.447,4.536-7.458,16.907-9.413,28.12c-5.973-11.576-14.332-44.507-10.189-58.542c5.64-19.105,12.739-35.931,22.208-51.204
			c7.269-11.724,14.889-19.78,24.879-29.032c16.964-15.717,43.573-22.922,70.373-21.954c-6.867,54.738-13.318,72.793-12.962,132.304
			c0.083,13.936,2.672,35.129,1.559,47.561l-10.816-30.418c-3.799,25.075-1.589,34.135,1.719,56.142
			c-2.462-3.414-2.568-3.554-4.277-7.256c-2.795,2.108-6.142-9.941-1.282,15.074c1.143,5.884,2.112,10.564,2.966,15.449
			C384.387,578.251,380.719,563.495,374.441,554.558L374.441,554.558z M606.544,540.995l2.491,3.722L606.544,540.995
			L606.544,540.995z M538.123,497.521c1.203,2.225,1.043-1.952,0.405-0.768C538.505,496.797,536.344,494.234,538.123,497.521
			L538.123,497.521z M565.665,557.813l-9.934,1.441c-7.896-6.446-13.801-20.129-22.088-23.992
			c-0.276,6.552,3.627,10.412,5.945,15.682c4.076,9.267,4.309,10.808-4.853,12.252l-15.969-24.039l2.841,26.763
			c-10.295,1.247-7.669-0.669-12.348-8.589c-5.01-8.481-21.001-38.306-25.055-41.691c-1.42,13.59,9.518,40.649,11.776,55.047
			c-7.159,0.037-6.097-1.282-13.497-13.53c-3.295-5.456-6.44-11.079-10.208-15.977c-0.338,11.249,3.356,22.162,4.979,32.26
			l-14.398,3.094c-1.713-2.382-2.8-3.152-4.867-5.355l-15.658-19.459l6.839,27.498l-14.794,2.554l-7.224-9.906l0.551,11.473
			l-6.683,0.87c-6.292-39.409-7.927-75.683-5.435-116.4c1.359-22.219,8.13-89.477,15.758-106.561
			c33.837,1.015,84.725,43.954,103.482,71.687c5.531,8.176,10.646,13.114,18.028,25.342c5.64,9.343,10.878,18.516,16.396,28.577
			c7.608,13.876,23.346,45.557,27.383,61.487l-12.403,4.432l-38.499-48.412c-1.214-1.591-0.996-1.373-2.711-3.222
			c-0.298-0.321-1.159-1.248-1.464-1.542c-2.2-2.14-0.84-0.853-2.534-2.196L565.665,557.813L565.665,557.813z M436.67,339.983
			c2.246-18.861,13.713-40.295,18.339-57.059c72.113,2.775,139.319,29.259,194.497,66.806l41.104,46.163
			c-2.92,0.875-5.136-1.035-10.309-3.474c0.451,3.935,6.386,12.059,9.382,14.376c-12.555-6.009-52.368-31.349-67.919-33.664
			c3.22,15.987,44.431,42.77,53.914,52.214l15.78,17.698c-14.513-6.044-30.825-16.996-46.297-23.056
			c-9.861-3.863-31.248-20.111-44.574-19.059c-5.938,0.469-6.704,1.979-4.892,4.003l46.641,40.966
			c-5.968-3.11-5.65-3.841-12.414-5.822c3.435,11.203,24.134,38.936,29.932,45.166l-16.746-2.034
			c3.437,7.297,33.199,30.986,37.25,41.667c-7.221-1.028-3.504,0.157-11.624-8.614c-14.687-15.864-55.402-52.818-73.559-57.802
			c4.478,10.166,38.289,67.239,42.366,77.893c-7.676,5.63-11.152,2.653-18.021-0.787c-28.597-14.325-12.774-0.522-33.548-43.028
			c-18.481-37.81-40.947-76.917-70.073-106.673C498.426,368.021,465.946,343.866,436.67,339.983L436.67,339.983z M481.356,235.732
			c-4.881,5.922-18.003,26.609-20.488,36.632c31.837,1.899,66.409,9.023,94.453,18.645c49.936,17.13,60.668,29.345,76.394,35.538
			c-2.927-6.86-8.93-13.274-11.495-21.167c17.541,6.365,66.004,45.978,71.126,54.781c-8.642-11.616-26.875-38.579-31.856-55.631
			c21.013,11.85,34.54,29.147,45.415,36.839c-9.741-16.56-17.919-21.435-32.028-49.614c-8.897-17.769-25.802-29.476-42.469-39.872
			c-13.975-8.713-15.742-5.628-34.238-5.936c-13.519-0.227-27.058-0.846-40.41-1.786
			C542.756,243.247,486.115,234.665,481.356,235.732L481.356,235.732z M291.407,438.181c1.58-13.331,30.272-56.077,43.73-68.432
			c27.212-24.99,47.028-30.529,82.385-33.012l16.829-54.286c-14.765-2.156-51.305,2.791-66.046,6.465
			c-29.885,7.447-30.935,10.176-44.222,32.293C308.997,346.319,286.718,401.228,291.407,438.181L291.407,438.181z M355.803,280.721
			c4.453-2.441,25.132-30.671,75.658-49.958c16.842-6.428,14.893-4.016,32.591,0.175c-4.577,7.842-19.48,25.903-23.618,40.265
			c-15.704,0.243-30.136,0.395-45.709,2.188C380.095,275.077,368.923,278.312,355.803,280.721L355.803,280.721z M551.064,220.422
			c9.815,1.963,19.413,4.391,28.491,7.38c7.487,2.466,18.307,8.039,23.594,9.556c-28.56,0.327-83.743-7.092-111.624-12.955
			c8.321-9.734,11.318-8.635,28.232-7.771C530.518,217.179,540.812,218.372,551.064,220.422L551.064,220.422z M467.621,220.94
			c4.543-1.322,4.2-1.867,7.127-0.771C470.739,222.101,473.544,221.597,467.621,220.94L467.621,220.94z M293.796,546.527
			c18.762,36.866,19.33,34.053,42.934,63.094c15.413,1.322,91.634-15.575,112.477-19.346c36.781-6.654,73.179-13.627,110.142-20.475
			c29.559-5.476,113.582-32.534,152.461-43.732c32.167-9.263,31.893-5.697,37.398-27.006
			c19.798-76.621-3.573-157.069-42.203-203.892c-20.055-24.31-38.401-42.21-70.129-60.28
			c-56.91-32.414-121.803-38.658-184.233-21.903c-56.99,15.293-101.492,48.751-135.236,92.507
			C267.41,370.324,256.182,472.619,293.796,546.527z"/>
	</g>
</g>
<g id="Vexels">
</g>
<g id="Layer_3">
</g>
</svg>
