<?xml version="1.0" encoding="UTF-8" standalone="no"?>
<!DOCTYPE svg PUBLIC "-//W3C//DTD SVG 1.1//EN" "http://www.w3.org/Graphics/SVG/1.1/DTD/svg11.dtd">
<svg xmlns="http://www.w3.org/2000/svg" xmlns:xlink="http://www.w3.org/1999/xlink" version="1.1" width="210" height="297" viewBox="0 0 210 297" xml:space="preserve">
<desc>Created with Fabric.js 3.2.0</desc>
<defs>
</defs>
<g id="id_1581056670769" clip-path="url(#CLIPPATH_1)">
<g transform="matrix(1.1049309195223105 0 0 0.506571364782425 104.97000856898028 155.77599042710588)">
<clipPath id="CLIPPATH_1">
	<rect transform="matrix(1 0 0 1 105.47000856898029 157.25)" x="-104.97000856898029" y="-140.25" rx="0" ry="0" width="209.94001713796058" height="280.5"/>
</clipPath>
<g style="">
		<g transform="matrix(0.3124927021788375 0 0 -0.3124927021788375 0 0)">
<path style="stroke: none; stroke-width: 1; stroke-dasharray: none; stroke-linecap: butt; stroke-dashoffset: 0; stroke-linejoin: miter; stroke-miterlimit: 4; fill: rgb(255,255,255); fill-rule: nonzero; opacity: 1;" transform=" translate(-303.5101499999999, -394.632345561115)" d="m 606.28 360.86 c -2.4582 14.963 -12.316 36.939 -45.385 56.712 c -2.2338 1.3362 -4.5798 2.6367 -6.9972 3.9168 c 6.1863 2.0808 12.582 4.2279 12.582 4.2279 l -36.649 14.29 c -3.1365 1.224 -6.426 2.3256 -9.7563 3.3966 c 2.4225 2.4582 4.9776 5.0541 4.9776 5.0541 l -28.101 3.9372 c -12.143 1.7034 -21.721 2.0961 -29.06 1.989 c -0.0714 1.1832 -0.1632 2.2746 -0.2856 3.2538 c 0 0.0102 -4.692 35.195 -4.692 35.195 s -10.873 -14.846 -11.954 -16.32 c -2.3103 3.8505 -4.9317 7.4715 -7.9407 10.873 c 0 0.005 -30.309 34.277 -30.309 34.277 s 1.2087 -10.083 2.1777 -18.13 c -9.8277 6.8544 -20.635 12.98 -32.589 18.105 c -48.766 20.915 -110.44 25.26 -169.2 11.939 c -49.16 -11.16 -120.13 -40.22 -179.08 -115.36 l -34.02 -43.37 l 51.209 20.4 c 0.408 0.1632 39.938 15.575 71.818 20.068 c 11.888 1.6779 20.992 1.8105 13.602 -14.474 c -5.8242 -12.852 -19.054 -31.61 -19.191 -31.798 l -25.643 -37.296 l 42.774 14.851 c 20.573 7.1553 39.04 10.679 48.379 11.011 c 3.3354 -0.0612 3.9474 -2.2644 2.8968 -4.6614 c -0.3009 -0.8313 -0.4743 -1.2648 -2.7846 -4.8144 l -26.821 -38.281 l 43.993 15.759 c 31.926 11.455 73.899 18.998 88.913 13.26 c 1.224 -0.4641 5.1918 -2.5704 1.2597 -8.3385 l -17.279 -27.489 s 25.51 3.8709 29.136 4.4319 c 2.0043 -25.102 14.596 -38.791 16.147 -40.372 l 18.533 -19.008 l 6.5076 25.74 c 4.6716 18.523 13.474 28.616 21.328 34.114 c 0 -0.0102 1.5096 -10.577 1.5096 -10.577 l 17.182 6.1965 c 14.443 5.2224 25.877 11.495 34.109 18.651 c 10.888 0.8619 37.49 2.448 63.041 -0.0816 c 44.038 -4.3554 73.578 1.4994 81.585 3.4017 c 10.71 2.5347 19.737 -2.04 19.834 -2.091 l 13.092 -7.1196 l 7.0635 13.26 c 0.8364 1.5912 4.8297 9.8685 4.8297 22.139 c 0 3.0396 -0.2448 6.1098 -0.7446 9.1239" stroke-linecap="round"/>
</g>
		<g transform="matrix(0.3124927021788375 0 0 -0.3124927021788375 3.0088984814694157 -1.0073206404971558)">
<path style="stroke: none; stroke-width: 1; stroke-dasharray: none; stroke-linecap: butt; stroke-dashoffset: 0; stroke-linejoin: miter; stroke-miterlimit: 4; fill: rgb(187,147,52); fill-rule: nonzero; opacity: 1;" transform=" translate(-313.13885000000005, -397.85584688922177)" d="m 600.14 358.31 c -2.1777 13.255 -11.149 32.849 -41.565 51.046 c -8.1345 4.845 -16.968 8.9913 -25.908 12.515 l 10.771 3.621 l -14.795 5.7732 c -7.3287 2.8611 -15.03 5.2173 -22.97 7.1298 c 1.5249 1.5453 3.1773 3.2334 3.1773 3.2334 l -11.337 1.5963 c -17.462 2.4429 -29.519 2.1624 -36.613 1.4994 c 0.0663 1.53 0.1173 3.1467 0.1173 4.7787 c 0 2.2848 -0.0867 4.5339 -0.3264 6.3546 l -1.9023 14.214 s -6.8952 -9.4197 -7.8897 -10.781 c -2.2797 6.3342 -6.018 14.183 -12.842 21.915 l -12.25 13.857 l 1.3872 -11.567 c -11.011 10.231 -26.25 20.986 -47.139 29.947 c -47.389 20.324 -107.48 24.521 -164.82 11.521 c -48.08 -10.89 -117.48 -39.33 -175.19 -112.88 l -14.54 -18.549 l 21.894 8.7312 c 0.408 0.1581 41.132 16.289 74.236 20.716 c 12.98 1.7238 21.94 0.1887 25.22 -4.3401 c 3.06 -4.2432 2.0757 -12.638 -2.6775 -22.476 c -6.5076 -13.5 -19.808 -32.88 -19.941 -33.084 l -10.965 -15.938 l 18.289 6.3444 c 24.098 8.3793 54.478 14.576 61.521 9.9705 c 1.6269 -1.0659 2.5041 -2.3205 2.8458 -4.0749 c 1.1271 -5.8548 -3.9117 -14.729 -5.7681 -17.391 l -11.48 -16.356 l 18.819 6.732 c 30.064 10.781 83.966 23.144 100.63 10.373 c 7.7061 -5.9109 0.5049 -17.59 0.1836 -18.08 l -7.395 -11.776 l 13.729 2.0961 s 3.3813 0.5253 6.7167 1.0404 c -0.0408 -1.0761 -0.1122 -2.1675 -0.1122 -3.1926 c 0 -26.576 13.444 -40.708 14.091 -41.381 l 7.9305 -8.1294 l 2.7846 11.021 c 7.803 30.937 26.27 41.647 36.562 45.278 c 0.2856 -2.0502 1.7187 -12.072 1.7187 -12.072 l 7.344 2.652 c 18.013 6.5025 28.101 13.637 33.64 18.992 c 8.2875 0.7242 38.648 3.0192 67.799 0.1428 c 42.932 -4.2534 71.466 1.3923 79.193 3.2283 c 14.234 3.366 25.801 -2.7897 25.923 -2.8509 l 5.6508 -3.0855 l 3.0345 5.6865 c 0.1938 0.357 3.8505 7.4715 3.8505 18.227 c 0 2.4174 -0.1887 5.0184 -0.6426 7.7826" stroke-linecap="round"/>
</g>
		<g transform="matrix(0.3124927021788375 0 0 -0.3124927021788375 8.7640743640805 -2.5424987471875653)">
<path style="stroke: none; stroke-width: 1; stroke-dasharray: none; stroke-linecap: butt; stroke-dashoffset: 0; stroke-linejoin: miter; stroke-miterlimit: 4; fill: rgb(0,0,0); fill-rule: nonzero; opacity: 1;" transform=" translate(-331.5558429169016, -402.7685315566923)" d="m 554.8 402.94 c -12.699 8.9811 -29.804 15.514 -46.4 20.186 c 6.9105 2.2338 13.831 2.0859 13.831 2.0859 c -10.634 4.0647 -21.736 6.6045 -32.064 8.2059 l 3.8658 3.468 c -18.916 3.2232 -32.12 2.9784 -39.953 2.1624 c 0.9843 3.876 1.785 9.7971 0.7752 17.702 c 0 0 -2.295 -6.8136 -7.8591 -11.047 c -0.7344 8.8434 -3.5598 21.634 -13.158 30.314 l 1.7799 -15.611 c -8.4558 12.735 -24.546 29.019 -54.968 43.248 c -82.696 38.653 -228.41 24.001 -308.4 -79.31 c 0 0 31.105 15.545 74.2 16.575 c 22.578 0.5304 28.065 -12.112 19.839 -33.42 c -8.2722 -21.415 -22.772 -40.203 -22.772 -40.203 s 97.522 34.558 66.734 -13.449 c 0 0 73.618 22.047 95.702 -3.8148 c 10.266 -12 -1.6881 -28.784 -1.6881 -28.784 l 20.884 4.5186 c -6.7728 -26.525 5.0847 -43.467 5.0847 -43.467 c 8.619 34.675 38.673 43.911 49.312 45.66 l 2.3001 -9.3942 c 17.83 6.4464 26.214 13.306 31.008 18.957 c 37.755 5.9364 63.393 0.8619 92.499 -0.7242 c 42.396 -2.3154 64.311 5.0694 71.313 5.0235 c 5.1408 -0.0459 11.235 -4.5288 11.235 -4.5288 s 17.62 29.743 -33.099 65.647" stroke-linecap="round"/>
</g>
		<g transform="matrix(0.3124927021788375 0 0 -0.3124927021788375 28.418146069198468 -12.83801018743077)">
<path style="stroke: none; stroke-width: 1; stroke-dasharray: none; stroke-linecap: butt; stroke-dashoffset: 0; stroke-linejoin: miter; stroke-miterlimit: 4; fill: rgb(198,12,48); fill-rule: nonzero; opacity: 1;" transform=" translate(-394.4503411502398, -435.71493756380335)" d="m 407.32 439.89 c 2.6316 -6.2322 -0.9945 -13.153 -8.1039 -15.463 c -7.1043 -2.3154 -15.004 0.8772 -17.636 7.1094 c -2.6316 6.2373 0.9996 13.168 8.1039 15.468 c 7.0992 2.3103 15.004 -0.8721 17.636 -7.1145" stroke-linecap="round"/>
</g>
		<g transform="matrix(0.3124927021788375 0 0 -0.3124927021788375 19.417797751704356 -9.335606005720901)">
<path style="stroke: none; stroke-width: 1; stroke-dasharray: none; stroke-linecap: butt; stroke-dashoffset: 0; stroke-linejoin: miter; stroke-miterlimit: 4; fill: rgb(255,255,255); fill-rule: nonzero; opacity: 1;" transform=" translate(-365.6485539253232, -424.50698244264515)" d="m 389.04 430.73 c -1.9788 4.6818 0.8823 9.945 6.375 11.735 c 2.1216 0.6885 4.3197 0.765 6.3291 0.3213 c -2.7438 1.734 -6.4617 2.2746 -9.945 1.1373 c -5.508 -1.785 -8.364 -7.038 -6.375 -11.75 c 1.2138 -2.8866 3.9882 -4.8909 7.2216 -5.5845 c -1.5912 1.0047 -2.8713 2.4123 -3.6057 4.1412 m -131.65 -36.83 c 0.5253 0.3468 2.5194 1.6116 2.9835 1.9074 c 0.5559 0.3468 1.1169 0.6987 1.6881 1.0455 c 0.4692 0.2856 0.9333 0.5559 1.3974 0.8313 c 0.6069 0.3621 1.224 0.7191 1.836 1.0761 c 0.459 0.2601 0.9129 0.5253 1.3719 0.7956 c 13.138 7.4205 29.146 14.214 47.185 18.498 c 0.6426 1.0404 1.2444 2.1216 1.7646 3.2385 c 6.0537 13.025 -3.519 26.071 -20.42 28.274 c 16.325 3.4782 33.686 14.249 37.225 22.195 c 4.3707 9.8328 7.2624 27.071 -35.236 31.411 c -42.503 4.335 -116.23 -12.908 -148.03 -37.587 c 0 0 49.169 10.409 99.746 12.821 c -7.5276 -2.5602 -16.917 -6.9513 -22.226 -13.428 c -8.9301 -8.8638 -22.267 -26.989 -37.041 -78.698 c 0 0 0.7803 0.0969 2.142 0.2601 c 6.3393 0.8058 25.398 3.0957 36.689 3.672 l 19.018 1.0965 c 2.0655 0 4.1871 0.0714 6.3393 0.1887 c 0.2397 0.1581 0.4794 0.3315 0.7191 0.4896 c 0.4947 0.3366 0.9945 0.6732 1.4892 1.0251 c 0.4488 0.3009 0.9129 0.6018 1.3617 0.8874 m 262.6 -47.38 c 21.114 0.1173 36.914 2.0196 49.342 4.9215 c -45.874 19.66 -135.69 28.07 -149.6 26.933 c 0 0 -7.6041 -2.142 1.1475 -10.547 c -12.24 4.8195 -24.46 14.005 -25.306 18.656 c -0.8925 4.9419 8.0478 6.324 29.218 3.8352 c 79.274 -9.3636 147.88 -22.634 157.16 -42.055 c 0 0 4.8399 24.312 -34.685 47.466 c -33.818 22.547 -85.777 26.234 -85.777 26.234 l 13.127 -10.582 l -24.424 2.1165 l 19.334 -13.979 c -20.747 6.783 -76.628 25.092 -122.93 13.515 c 0 0 50.811 0.5712 74.001 -13.27 c -85.828 14.01 -130.46 -15.8 -130.46 -15.8 c 48.277 13.785 86.807 9.9807 99.455 8.0937 c -20.303 -4.8501 3.6006 -19.712 18.207 -27.479 c 1.6575 -4.0749 5.661 -12.398 1.7442 -19.406 c 0 0 4.4013 5.5998 7.6092 13.836 l 11.878 -9.537 c 35.455 4.3758 61.608 -3.0957 90.964 -2.9529" stroke-linecap="round"/>
</g>
		<g transform="matrix(0.3124927021788375 0 0 -0.3124927021788375 29.997324692305366 -12.15237643844603)">
<path style="stroke: none; stroke-width: 1; stroke-dasharray: none; stroke-linecap: butt; stroke-dashoffset: 0; stroke-linejoin: miter; stroke-miterlimit: 4; fill: rgb(0,0,0); fill-rule: nonzero; opacity: 1;" transform=" translate(-399.5038307584648, -433.52085832865896)" d="m 406.67 436.09 c 1.4382 -3.7332 -0.6171 -7.9101 -4.5798 -9.333 c -3.9627 -1.4127 -8.3232 0.459 -9.7563 4.2024 c -1.4331 3.7332 0.6324 7.905 4.5849 9.3177 c 3.9627 1.428 8.3232 -0.4488 9.7512 -4.1871" stroke-linecap="round"/>
</g>
		<g transform="matrix(0.24999416174307001 0 0 0.24999416174307001 -16.60703859028504 -15.680505490726869)">
<path style="stroke: none; stroke-width: 1; stroke-dasharray: none; stroke-linecap: butt; stroke-dashoffset: 0; stroke-linejoin: miter; stroke-miterlimit: 4; fill: rgb(187,147,52); fill-rule: nonzero; opacity: 1;" transform=" translate(-312.95798180410117, -120.44858130237404)" d="m 350.43 54.551 c -7.8711 0.02073 -17.4 0.4713 -27.742 1.8555 c -10.914 1.4599 -63.967 6.859 -109.14 28.91 c 39.506 -9.6199 86.197 -13.146 115.76 -14.217 c 12.431 -0.43988 26.086 -0.05078 26.086 -0.05078 c 8.8421 0 17.041 2.6141 20.184 7.7715 c 3.2576 5.3359 4.1557 11.735 -1.9707 19.551 c -3.3724 4.3095 -7.3301 8.85 -18.824 13.529 l 13.246 -2.8242 c 19.801 -4.233 37.773 -15.357 41.904 -23.982 c 3.0154 -6.2985 3.1872 -11.349 0.75195 -15.346 c -4.9661 -8.1536 -17.091 -12.98 -38.619 -14.076 c 0 0 -8.5142 -1.1556 -21.633 -1.1211 z m -17.84 27.265 c -6.035 0.08246 -26.232 3.0591 -41.969 18.072 c -14.618 12.922 -30.408 46.488 -42.967 86.459 c 21.605 -2.2695 41.189 -3.2969 41.189 -3.2969 l 20.539 -0.88672 c 5.3996 0 11.079 -0.29167 16.811 -0.93554 c 15.746 -9.7155 35.452 -18.966 57.949 -25.232 c 1.4216 -1.8934 2.6457 -3.8952 3.6211 -6.0117 c 2.2631 -4.8514 2.525 -10.882 0.91211 -15.65 c -2.4289 -7.2356 -7.2686 -12.055 -22.518 -15.625 c -20.068 -4.6856 -49.381 -2.6211 -49.381 -2.6211 c 6.7448 -16.377 11.782 -25.952 16.824 -34.252 c -0.27094 -0.01753 -0.60939 -0.02503 -1.0117 -0.01953 z m -17.744 38.422 h 21.816 c 11.258 0 16.435 4.6152 18.807 8.5039 c 3.7166 6.0881 3.052 14.294 -1.5508 24.57 c -8.8804 19.82 -30.396 21.604 -36.854 21.604 l -24.754 0.94336 c 10.729 -34.042 22.535 -55.621 22.535 -55.621 z" stroke-linecap="round"/>
</g>
		<g transform="matrix(0.24999416174307001 0 0 0.24999416174307001 -8.9871546007568 -15.346671112545929)">
<path style="stroke: rgb(0,0,0); stroke-width: 0.6; stroke-dasharray: none; stroke-linecap: butt; stroke-dashoffset: 0; stroke-linejoin: miter; stroke-miterlimit: 4; fill: rgb(0,0,0); fill-rule: nonzero; opacity: 1;" transform=" translate(-343.4382295682851, -121.78395)" d="m 357.89 76.613 l -10.666 0.0332 s -1.8425 1.5172 -5.2148 6.6172 c 12.406 0.10838 17.449 6.2975 10.883 20.393 c -0.82237 1.785 -1.7022 3.3084 -2.6074 4.6152 c 7.6054 -2.2631 13.489 -6.4692 16.383 -11.486 c 6.3622 -11.112 1.4864 -19.082 -8.7773 -20.172 z m -37.146 49.139 c -1.173 2.3014 -2.3093 4.603 -3.3867 6.8789 h 5.3242 c 12.654 0 19.672 7.1157 11.793 24.086 c -2.0145 4.3286 -4.7106 7.6628 -7.7578 10.238 c 8.0452 -1.989 16.742 -6.8093 21.529 -17.111 c 7.8922 -16.977 0.86037 -24.092 -11.781 -24.092 h -15.721 z" stroke-linecap="round"/>
</g>
		<g transform="matrix(0.24999416174307001 0 0 0.24999416174307001 -9.234589375382953 -4.16073049524141)">
<path style="stroke: none; stroke-width: 1; stroke-dasharray: none; stroke-linecap: butt; stroke-dashoffset: 0; stroke-linejoin: miter; stroke-miterlimit: 4; fill: rgb(36,23,115); fill-rule: nonzero; opacity: 1;" transform=" translate(-342.4484673558361, -166.52875739594552)" d="m 348.24 37.008 c -82.992 0.54195 -159.96 31.187 -208.79 77.951 c 0 0 68.392 -21.521 88.906 -0.375 c 23.862 24.588 -12.291 82.402 -12.291 82.402 l 23.645 -3.7031 c -1.7021 0.204 -2.6777 0.32422 -2.6777 0.32422 c 18.468 -64.636 35.138 -87.291 46.301 -98.371 c 6.6364 -8.0962 18.374 -13.587 27.783 -16.787 c -63.23 3.005 -124.69 16.017 -124.69 16.017 c 39.75 -30.849 131.91 -52.404 185.04 -46.985 c 53.123 5.4251 49.508 26.973 44.045 39.264 c -4.4242 9.9322 -26.125 23.396 -46.531 27.744 c 21.127 2.754 33.093 19.062 25.525 35.344 c -0.65025 1.3961 -1.4038 2.7483 -2.207 4.0488 c -22.548 5.355 -42.558 13.845 -58.98 23.121 c -0.57375 0.33788 -1.1411 0.66902 -1.7148 0.99414 c -0.765 0.44625 -1.5363 0.89308 -2.2949 1.3457 c -0.58012 0.34425 -1.1615 0.68206 -1.748 1.0391 c -0.714 0.4335 -1.4145 0.87314 -2.1094 1.3066 c -0.58012 0.36975 -1.1723 0.72739 -1.7461 1.1035 c -0.66938 0.41438 -1.3258 0.84775 -1.9824 1.2812 c -0.561 0.357 -1.1421 0.73325 -1.7031 1.1094 c -0.61838 0.43987 -1.243 0.8605 -1.8613 1.2812 c -13.496 9.2756 -23.294 18.564 -28.375 25.768 c 0 0 138.16 -27.985 114.23 41.598 l 35.688 -9.7793 c -2.5181 4.3988 -6.5031 9.4213 -11.922 15.465 c -16.868 18.736 -15.707 36.549 -15.707 36.549 s 4.9534 -19.49 36.873 -32.852 c 29.108 -12.164 35.82 -32.844 35.82 -32.844 s 9.6966 14.332 1.7598 34.4 c 0 0 13.407 -3.3484 25.404 -19.809 c 4.8896 -8.7465 -0.11367 -19.151 -2.1856 -24.244 c -18.258 -9.7091 -48.139 -28.285 -22.76 -34.348 c -15.81 -2.3588 -63.973 -7.1144 -124.32 10.117 c 0 0 55.787 -37.262 163.07 -19.75 c -28.987 -17.302 -92.502 -16.588 -92.502 -16.588 c 22.102 -5.5271 45.938 -5.5971 68.41 -3.1172 c -9.0334 -2.5118 -21.311 -5.4379 -35.75 -7.6309 c -22.064 -2.6138 -43.126 -1.4466 -62.551 2.1426 c 21.828 -22.657 61.594 -19.68 61.594 -19.68 c -26.52 -17.869 -61.098 -12.15 -61.098 -12.15 c 38.766 -20.062 81.867 -13.273 81.867 -13.273 c -13.553 -17.895 -45.555 -21.834 -45.555 -21.834 c 63.444 -2.5691 85.668 30.771 85.668 30.771 c -15.816 -6.8914 -27.082 -5.8516 -27.082 -5.8516 s 15.249 2.4729 25.57 21.764 c 10.933 20.438 20.203 19.852 20.203 19.852 s 17.384 -65.854 -97.41 -100.11 c -32.994 -9.8452 -66.392 -14.241 -98.867 -14.029 z m -6.2324 46.256 c -3.2704 4.9342 -7.9801 13.222 -13.877 26.801 h 9.5234 c 4.539 0 8.7975 -0.65822 12.629 -1.793 c 0.90525 -1.3069 1.785 -2.8302 2.6074 -4.6152 c 6.5662 -14.095 1.5229 -20.284 -10.883 -20.393 z m -24.652 49.367 c -8.7656 18.558 -14.215 35.555 -14.215 35.555 h 13.578 c 2.9261 0 6.4006 -0.31885 9.9961 -1.2305 c 3.0472 -2.5755 5.7433 -5.9097 7.7578 -10.238 c 7.8795 -16.97 0.86141 -24.086 -11.793 -24.086 h -5.3242 z" stroke-linecap="round"/>
</g>
</g>
</g>
</g>
</svg>
