<?xml version="1.0" encoding="UTF-8" standalone="no"?>
<svg xmlns:rdf="http://www.w3.org/1999/02/22-rdf-syntax-ns#" xmlns="http://www.w3.org/2000/svg" xml:space="preserve" height="80.127" viewBox="0 0 193.05626 80.126633" width="193.06" version="1.1" xmlns:cc="http://creativecommons.org/ns#" xmlns:dc="http://purl.org/dc/elements/1.1/"><g transform="matrix(1.25 0 0 -1.25 -286.59 534.58)"><g><path d="m40.275 1.0957c-0.69-0.0062-1.385 0.0023-2.082 0.0273-17.772 0.6073-31.5 9.935-35.828 24.342-4.0003 13.385 0.4126 26.672 10.987 33.334l-6.5454 20.402h145.61s0.93 0.02 0.95 0.02h0.69c6.2 0 22.67-0.002 26.63-12.135 3.24-9.957 7.84-26.028 10.3-34.664l0.97-3.401h-28.38c-6.56 0-9.7 1.887-11.2 3.59-0.2-0.364-0.45-0.708-0.75-1.025-2.25-2.378-6.52-2.565-7.8-2.565h-41.05l-0.59 1.915c-0.95-1.004-2.656-1.915-5.7-1.915h-21.916c-0.465-7.007-3.272-13.232-8.148-18.05-6.259-6.2017-15.794-9.7817-26.151-9.8753zm89.715 18.115s-2.02 5.886-2.04 5.959c-0.05 0.063-0.99 1.465-0.99 1.465h2.42s1.09-3.169 1.65-4.791l2.38 4.787 0.01-0.008v0.01l1.75-0.002s2.03-5.88 2.05-5.953c0.05-0.065 0.99-1.465 0.99-1.465h-2.42s-1.11 3.225-1.67 4.834l-2.37-4.834-1.76-0.002zm-48.06 0.002s-1.902 5.522-1.94 5.623c-0.061 0.079-1.435 1.799-1.435 1.799h6.677l1.776-1.719h-5.104c0.247-0.708 1.967-5.703 1.967-5.703h-0.435-1.506zm10.822 0c-1.345 0-1.9 0.421-2.373 1.791l-1.274 3.705c-0.226 0.653-0.324 1.163-0.07 1.52 0.241 0.339 0.698 0.406 1.309 0.406h4.799c1.342 0 1.897-0.417 2.369-1.787l1.275-3.705c0.225-0.655 0.323-1.163 0.068-1.522-0.238-0.335-0.695-0.408-1.308-0.408h-4.795zm12.158 0c-1.06 0-2.11 0.22-2.65 1.791l-0.27 0.775c-0.23 0.655-0.33 1.167-0.07 1.524 0.24 0.339 0.7 0.408 1.31 0.408h3.77c-0.14 0.422-0.33 0.961-0.41 1.205h-4.43c-0.11-0.049-1.31-0.602-1.31-0.602l-0.13 0.395c-0.23 0.649-0.33 1.157-0.07 1.516 0.24 0.343 0.71 0.41 1.32 0.41h4.02c1.34 0 1.92-0.435 2.39-1.787l0.33-0.969c0.23-0.651 0.32-1.161 0.07-1.522-0.25-0.339-0.71-0.408-1.32-0.408h-3.78c0.14-0.402 0.3-0.876 0.38-1.111h4.1c0.09 0.033 1.34 0.482 1.34 0.482l0.11-0.299c0.17-0.479 0.29-1.017 0.03-1.392-0.26-0.365-0.78-0.416-1.31-0.416h-3.42zm14.8 0c-1.35 0-1.9 0.417-2.37 1.791 0 0-1.41 4.095-1.44 4.168-0.04 0.063-0.99 1.463-0.99 1.463h2.43s0.5-1.463 1-2.91h3.89c-0.5 1.451-1 2.908-1 2.908h2.72s-0.24-1.341-0.27-1.483c0.05-0.147 1.38-4.009 1.38-4.009 0.13-0.381 0.22-0.715 0.22-0.998 0-0.199-0.04-0.375-0.15-0.524-0.24-0.337-0.7-0.406-1.31-0.406h-4.11zm23.56 0c-1.06 0-2.11 0.22-2.65 1.791l-0.19 0.557v0.003l-0.08 0.215c-0.06 0.17-0.11 0.329-0.14 0.477l-0.78 2.447c-0.23 0.653-0.32 1.163-0.06 1.522 0.24 0.343 0.69 0.41 1.31 0.41h3.98c1.34 0 1.92-0.435 2.38-1.787l0.01-0.02c0 0.003 0-0.004 0.01-0.016l0.32-0.935c0.22-0.651 0.32-1.159 0.06-1.52-0.24-0.339-0.7-0.408-1.32-0.408h-2.72l-0.61 1.762h2.88c-0.14 0.422-0.33 0.959-0.41 1.203h-4.26l1.03-2.93 0.01-0.035c0.14-0.402 0.3-0.876 0.39-1.111h4.09c0.1 0.033 1.34 0.482 1.34 0.482l0.11-0.299c0.16-0.479 0.3-1.017 0.03-1.392-0.26-0.365-0.78-0.416-1.31-0.416h-3.42zm11.06 0c-1.06 0-2.11 0.22-2.66 1.791l-0.19 0.557v0.007l-0.07 0.213c-0.06 0.17-0.11 0.327-0.15 0.475l-0.77 2.449c-0.23 0.653-0.33 1.161-0.07 1.52 0.24 0.343 0.7 0.41 1.32 0.41h3.98c1.34 0 1.92-0.435 2.38-1.787l0.01-0.02c-0.01 0.02 0.09-0.365 0.09-0.365s-1.8 0.451-1.84 0.453h-4.31l0.43-1.211c0.06 0 0.11 0.006 0.17 0.006h3.77l0.46-1.76h-3.78c0.14-0.402 0.3-0.878 0.38-1.113h4.1c0.09 0.033 1.34 0.484 1.34 0.484l0.11-0.301c0.16-0.479 0.29-1.017 0.03-1.392-0.26-0.365-0.79-0.416-1.32-0.416h-3.41zm9.16 0s-1.9 5.522-1.94 5.623c-0.06 0.079-1.43 1.799-1.43 1.799h6.68l1.77-1.719h-5.1c0.25-0.708 1.96-5.703 1.96-5.703h-0.43-1.51zm11.26 0c-1.06 0-2.12 0.22-2.66 1.791l-0.19 0.557v0.007l-0.08 0.213c-0.05 0.17-0.1 0.327-0.14 0.475l-0.78 2.449c-0.22 0.653-0.32 1.161-0.06 1.52 0.24 0.343 0.7 0.41 1.31 0.41h3.98c1.34 0 1.92-0.435 2.39-1.787l0.01-0.02c-0.01 0.02 0.08-0.365 0.08-0.365s-1.8 0.451-1.83 0.453h-4.31l0.43-1.211c0.05 0 0.1 0.006 0.16 0.006h3.78l0.45-1.76h-3.77c0.14-0.402 0.3-0.878 0.38-1.113h4.09c0.1 0.033 1.35 0.484 1.35 0.484l0.1-0.301c0.17-0.479 0.3-1.017 0.03-1.392-0.26-0.364-0.78-0.416-1.31-0.416h-3.41zm10.58 0c-1.06 0-2.11 0.22-2.65 1.791l-0.27 0.775c-0.22 0.655-0.32 1.167-0.07 1.524 0.24 0.339 0.7 0.408 1.31 0.408h3.78c-0.14 0.422-0.33 0.961-0.42 1.205h-4.42c-0.11-0.049-1.32-0.602-1.32-0.602l-0.13 0.395c-0.22 0.649-0.33 1.157-0.07 1.516 0.24 0.343 0.71 0.41 1.32 0.41h4.03c1.34 0 1.92-0.435 2.38-1.787l0.33-0.969c0.23-0.651 0.32-1.161 0.07-1.522-0.24-0.339-0.71-0.408-1.32-0.408h-3.78c0.15-0.402 0.31-0.876 0.39-1.111h4.09c0.1 0.033 1.35 0.482 1.35 0.482l0.1-0.299c0.16-0.479 0.3-1.017 0.03-1.392-0.26-0.365-0.78-0.416-1.31-0.416h-3.42zm-92.961 1.65h4.572c-0.222 0.655-1.276 3.706-1.394 4.053h-4.574c0.224-0.651 1.276-3.704 1.396-4.053zm26.931 0.071h3.89c-0.05 0.159-0.18 0.534-0.35 1.021l-3.89-0.002c0.18-0.534 0.32-0.927 0.35-1.019z" transform="matrix(.8 0 0 -.8 229.27 427.67)" fill="#024"/><path d="m40.248 3.0684c-0.658-0.0067-1.319 0.0028-1.984 0.0254-16.903 0.5796-29.935 9.3682-34.01 22.939-3.8192 12.78 0.5089 25.43 10.773 31.477l0.68 0.4-6.1972 19.319 144.55 0.019c5.81 0 21.24 0 24.75-10.775 3.24-9.92 7.82-25.97 10.29-34.594l0.25-0.885h-25.77c-10.71-0.004-11.79 6.496-11.79 6.496s0.03-2.926-1.59-4.551c-1.4-1.395-4.27-1.945-6.35-1.945h-39.62l-1.76 5.295-0.4-1.57c-0.19-0.556-0.62-3.421-5.58-3.725h-23.804l-0.034-0.951c-0.246-6.883-2.879-12.993-7.615-17.67-5.898-5.8465-14.912-9.205-24.789-9.3046z" transform="matrix(.8 0 0 -.8 229.27 427.67)" fill="#fff"/><path d="m39.922 6.875c-0.505-0.0009-1.013 0.0078-1.522 0.0254-15.929 0.5481-27.077 8.8446-30.49 20.227-3.7618 12.536 1.4036 23.636 10.854 28.047-5.221-4.411-6.306-13.228-4.319-19.949 1.982-6.698 9.362-17.094 24.274-16.065 11.362 0.787 16.027 9.199 14.133 15.91-2.061 7.295-6.455 10.269-12.096 10.588-1.014 0.065-2.121-0.027-2.121-0.027l5.642-16.99h-19.279l-2.693 7.029s3.928-0.576 3.404 1.881c-0.17 0.794-2.512 8.316-5.014 16.273 3.679 4.839 9.039 6.713 9.039 6.713-4.877 0.836-8.629 0.274-11.027-0.408-2.277 7.218-4.228 13.363-4.228 13.363h15.789l6.148-19.822s2.011-0.006 3.916-0.006c3.604 0 4.231 3.054 2.51 9.166l-2.926 10.707s120.27-0.012 122.43-0.012c10.03 0 12.66-7.08 12.66-7.08-3.88 0-118-0.002-118-0.002l1.961-8.207c1.094-4.548-2.873-8.068-6.61-8.257 5.714-0.706 16.258-7.76 16.502-18.209 0.377-15.959-13.284-24.867-28.941-24.895zm39.855 26.891c-6.346 0-8.513 1.368-10.211 6.824l-0.839 2.607h9.847l0.905-2.791h9.021l-1.604 4.963h-11.984c-5.457 0-7.403 1.363-8.965 6.207l-0.965 2.975c-1.618 5.027-0.46 6.513 4.928 6.513h7.744l5.217-3.224s0.113 3.224 3.244 3.224h9.182l2.256-6.626h-2.821l4.561-13.848c1.747-5.395-0.231-6.824-6.439-6.824h-13.077zm26.063 0l-2.26 6.57h3.29l-6.84 20.728h10.65l5.73-17.892 0.99-3.098h3.38c1.68 0 1.56 2.406 1.56 2.406l-5.96 18.584h8.22l6.72-20.99h3.37c1.67 0 1.46 2.024 1.46 2.024l-6.04 18.966h13.29l2.16-6.9h-2.57l4.6-14.254c1.66-5.152-2.47-6.144-6.01-6.144h-4.81l-4.76 3.894c-0.46-2.999-2.2-3.894-6.64-3.894h-2.19l-4.75 3.166 1.06-3.166h-13.65zm56.56 0c-4.85 0-6.97 1.491-8.36 5.769l-2.44 7.106 18.1 3.451-1.52 4.336h-8.75l0.84-2.594h-10.2l-2.98 9.23h23.38c4.44 0 6.83-1.675 8.17-5.834l2.41-7.55-17.78-3.78 1.21-3.494h8.89l-0.7 2.028h9.24l2.84-8.668h-22.35zm-85.763 16.205h8.758l-1.444 4.521h-8.754l1.44-4.521z" transform="matrix(.8 0 0 -.8 229.27 427.67)" fill="#024"/></g></g></svg>
