<?xml version="1.0" encoding="UTF-8" standalone="no"?>
<svg xmlns:rdf="http://www.w3.org/1999/02/22-rdf-syntax-ns#" xmlns="http://www.w3.org/2000/svg" xml:space="preserve" height="101.71" viewBox="0 0 385.31378 101.70703" width="385.31" version="1.1" xmlns:cc="http://creativecommons.org/ns#" xmlns:dc="http://purl.org/dc/elements/1.1/"><g transform="matrix(1.25 0 0 -1.25 -190.66 544.52)"><g transform="matrix(.5 0 0 .5 154.07 198.22)"><path d="m0.19531 161.7c-0.54849 2.1722-0.72968 5.7156-0.57812 8.4004h73.34l1.7461-8.4004h-74.508zm90.328 0-1.7617 8.4004h33.717l1.7617-8.4004h-33.717zm97.328 0-3.1113 8.4004h33.242l3.002-8.4004h-33.133zm106.13 0-1.748 8.4004h33.74l1.7461-8.4004h-33.738zm95.834 0c-0.59175 2.9085-0.80942 5.7156-0.70117 8.4004h51.502l1.8398-8.4004h-52.641zm94.803 0-1.7539 8.4004h69.455l1.7461-8.4004h-69.447zm86.395 0-1.7402 8.4004h33.719l1.7598-8.4004h-33.738zm88.406 0 1.4941 8.4004h74.473c1.2846-2.5981 2.4115-5.4054 3.3496-8.4004h-79.316z" transform="matrix(.8 0 0 -.8 .34642 471.5)" fill="#eead1e"/><path d="m443.92 0c-6.1055 0-9.7865 3.1032-11.057 9.3242l-3.27 15.979c-0.83 4.0992-0.0958 6.7617 2.1992 8.0391 1.2485 0.70725 3.5151 1.0625 6.7988 1.0625l10.725-0.33984 3.5586-19.479h-0.0801l-10.133-0.01563-0.90235 4.3301h2.9531l-2.3379 11.354h-2.9375c-1.6021 0-2.555-0.34633-2.8438-1.0176-0.24538-0.54125-0.13682-1.8699 0.28906-3.9629l3.28-16.13c0.397-1.862 0.78128-3.0889 1.207-3.623 0.68563-0.85875 1.8978-1.2852 3.6875-1.2852h8.9062l0.75-3.6875-10.56-0.5483h-0.24zm-231.15 0.029297c-6.5241 0-10.495 3.3995-11.873 10.205-0.5485 2.6991 0.043 4.2422 1.8906 6.1836 0.931 0.9815 1.862 1.9716 2.793 2.9531 1.2269 1.2991 2.4475 2.5826 3.6816 3.8672l-0.41797 2.0508c-0.35362 1.7538-0.78659 2.9218-1.2773 3.5352-0.7145 0.91662-1.913 1.3867-3.5801 1.3867h-6.8125l-0.74414 3.8535 8.4512 0.31641c6.5025 0 10.385-3.16 11.67-9.4316l0.16602-0.7793c0.20925-1.0538 0.38977-2.1794 0.25977-3.2402-0.2165-1.6455-1.4496-2.764-2.5684-3.832-0.80825-0.765-1.4949-1.611-2.2383-2.4336-1.2124-1.2702-2.4036-2.5403-3.6016-3.8105l0.30274-1.4922c0.38975-1.9414 0.93937-3.2411 1.625-3.8906 0.77212-0.79388 2.1006-1.1914 4.0059-1.1914h5.123l0.79493-3.7461-7.6504-0.50391zm475.87 0c-6.5314 0-10.495 3.3995-11.873 10.205-0.5485 2.6991 0.0373 4.2422 1.8848 6.1836 0.93825 0.9815 1.8692 1.9716 2.793 2.9531 1.2341 1.2991 2.4534 2.5826 3.6875 3.8672l-0.42578 2.0508c-0.34638 1.7538-0.7866 2.9218-1.2774 3.5352-0.70737 0.91662-1.9051 1.3867-3.5723 1.3867h-6.8203l-0.74219 3.8535 8.457 0.31641c6.4952 0 10.385-3.16 11.67-9.4316l0.1582-0.7793c0.2165-1.0538 0.38964-2.1794 0.25977-3.2402-0.20925-1.6455-1.4497-2.764-2.5684-3.832-0.80825-0.765-1.4857-1.611-2.2363-2.4336-1.2052-1.2702-2.4036-2.5403-3.6016-3.8105l0.31055-1.4922c0.38962-1.9414 0.93686-3.2411 1.6152-3.8906 0.77225-0.79388 2.1005-1.1914 4.0059-1.1914h5.1309l0.79492-3.7461-7.6504-0.50391zm-534.89 0.20117c-6.5242 0-10.407 3.0314-11.648 9.1152l-3.2246 15.834c-1.2412 6.0839 1.4067 9.1152 7.9668 9.1152h1.5156c6.5241-0.18762 10.392-3.2117 11.611-9.1152l3.2266-15.834c1.2269-6.0839-1.3992-9.1152-7.916-9.1152h-1.5312zm228.23 0.20312-8.2637 0.056641-6.8555 33.559h5l4.6191-22.625 3.7031 22.625h7.8887l6.8555-33.615h-5.002l-4.53 22.191-3.42-22.191zm-290.04 0.02735-6.82 33.588h15.898l0.82226-4.1562h-8.5293l2.2793-11.086 0.8457-4.207 2.9219-14.139h-7.418zm404.74 0-0.83789 4.1289h2.3672l-6.0117 29.459h15.898l0.82421-4.1562h-8.5312l2.2812-11.086h6.668l0.86524-4.207h-6.6973l2.0566-10.01h8.5234l0.83789-4.1289h-18.244zm61.004 0-6.8184 33.588h15.891l0.82227-4.1562h-8.5293l2.2871-11.086 0.83789-4.207 2.9219-14.139h-7.4121zm57.043 0-0.84376 4.1289h2.375l-6.0117 29.459h15.891l0.82422-4.1562h-8.5312l2.2812-11.086h6.6758l0.85742-4.207h-6.6894l2.0488-10.01h8.5234l0.8457-4.1289h-18.246zm-300.84 0.058594-0.82226 3.7168h2.2168l-7.3125 18.166h-2.8926l-0.96093 4.1699h2.166l-3.002 7.4766h6.1328l2.6719-7.4766h7.627l-0.51172 7.4766h8.4648l-0.43165-33.529h-0.0371-13.309zm5.998 3.8398h1.125l-1.0312 18.057h-6.3945l6.3008-18.057zm-166.32 0.029297h0.2461c1.097 0 1.7742 0.32372 2.0918 0.98047 0.39688 0.7505 0.39688 2.0797 0 3.9922l-3.2266 15.818c-0.397 1.9125-0.91592 3.1984-1.5293 3.8984-0.64237 0.664-1.5014 1.0098-2.584 1.0098h-0.25977c-1.0826 0-1.8175-0.34577-2.1855-1.0098-0.36813-0.7-0.35516-1.9859 0.0273-3.8984l3.25-15.818c0.39-1.9122 0.91-3.2414 1.61-3.9919 0.6135-0.65675 1.4806-0.98047 2.5703-0.98047zm-90.621 44.859c-26.299 0-42.097 13.25-47.553 39.361l-13.445 64.686h33.711l14.629-70.35c0.77944-3.1249 3.6954-5.6445 6.8203-5.6445h35.16l5.8242-28.053h-35.146zm50.967 0-15.799 75.967h-15.797l-5.8457 28.088h60.816l-8.7676 42.111h33.709l30.412-146.17h-33.709l-15.791 75.967h-11.309l15.805-75.967h-33.725zm98.113 0-5.8457 28.053h12.76l-17.674 47.914h-15.668l-5.5859 28.088h65.941l-4.1934 42.111h33.119l11.707-146.17h-74.561zm91.729 0-5.8535 28.053h13.67l-15.783 75.994h39.953l7.7226 42.119h33.537l-10.451-50.129c13.705-4.7416 18.843-18.339 21.578-31.033l6.5391-31.379c4.092-18.714-7.7226-33.625-26.422-33.625h-64.49zm148.68 0c-26.306 0-42.053 13.25-47.43 39.361l-13.41 64.701h33.703l14.645-70.365c0.765-3.1249 3.6797-5.6445 6.8047-5.6445h34.996l5.8164-28.053h-35.125zm43.1 0-5.8457 28.045h12.514l-15.834 76.018h33.74l3.9043-18.729h32.217l5.8242-28.059h-32.238l6.0977-29.223h32.209l5.8379-28.053h-78.426zm86.438 0-5.8457 28.053h12.492l-15.791 75.994h39.961l7.7012 42.119h33.566l-10.465-50.129c13.727-4.7416 18.836-18.339 21.586-31.033l6.5449-31.379c4.0775-18.714-7.729-33.625-26.457-33.625h-63.293zm151.34 0c-35.825 0-46.332 13.344-52.842 39.225-1.299 5.1312-6.1426 22.632 6.3789 32.707 10.32 8.314 20.633 11.115 22.344 16.152 1.7176 5.0302-2.8867 16-2.8867 16h34.938s2.0633-6.5533 2.8789-11.887c0.79388-5.3261 3.4577-13.467-3.0664-19.725-10.255-9.8584-24.942-15.962-27.908-23.078-2.5115-6.0479 0.85914-13.143 3.0098-16.838 2.0135-3.4352 6.2416-4.5117 10.564-4.5117h29.619l5.8613-28.045h-28.891zm-482.24 28.053h2.252l-4.8438 47.914h-14.578l17.17-47.914zm94.217 0h11.123c3.1178 0 5.1224 2.4968 4.5234 5.6289l-7.6133 36.568c-0.82275 3.9982-3.1971 5.7168-7.2891 5.7168h-10.711l9.9668-47.914zm277.04 0h11.137c3.1178 0 5.1094 2.4968 4.5176 5.6289l-7.6289 36.568c-0.8155 3.9982-3.1748 5.7168-7.2812 5.7168h-10.711l9.9668-47.914zm-182.29 47.914-5.8398 28.088h10.082l-3.6504 16.795h-51.502c0.664 14.607 11.619 25.316 27.41 25.316h45.035l14.586-70.199h-36.121zm-440.42 44.88c0.85882 14.607 11.634 25.316 27.273 25.316h40.805l5.2617-25.316h-73.34zm89.145 0-5.2676 25.316h33.717l5.2676-25.316h-33.717zm95.979 0-9.3242 25.316h33.537l9.0293-25.316h-33.242zm107.5 0-5.2461 25.316h33.719l5.2676-25.316h-33.74zm190.63 0-5.2617 25.316h69.463l5.2539-25.316h-69.455zm86.408 0-5.2324 25.316h33.695l5.2559-25.316h-33.719zm91.641 0 4.5039 25.295h22.914c23.246 0 38.777-8.6166 47.055-25.295h-74.473z" transform="matrix(.8 0 0 -.8 .34642 471.5)" fill="#001532"/></g></g></svg>
