<?xml version="1.0" encoding="utf-8"?>
<!-- Generator: Adobe Illustrator 25.2.0, SVG Export Plug-In . SVG Version: 6.00 Build 0)  -->
<svg version="1.1" id="Layer_1" xmlns="http://www.w3.org/2000/svg" xmlns:xlink="http://www.w3.org/1999/xlink" x="0px" y="0px"
	 viewBox="0 0 141.732 141.732" enable-background="new 0 0 141.732 141.732" xml:space="preserve">
<circle fill="#ADDF27" cx="255.118" cy="-113.386" r="70.866"/>
<g>
	<g>
		<path fill="#FFFFFF" d="M296.117-124.403c-0.198-0.575-0.898-1.023-1.483-1.023h-7.598c-0.584,0-1.286,0.448-1.484,1.023
			c-0.193,0.564-0.337,1.066-0.434,1.538l-5.075-14.041c-0.838-2.315-3.055-3.87-5.516-3.87h-38.816
			c-2.463,0-4.679,1.555-5.516,3.871l-5.076,14.042c-0.096-0.473-0.241-0.976-0.434-1.54c-0.198-0.575-0.898-1.023-1.483-1.023
			h-7.599c-0.584,0-1.285,0.448-1.483,1.023c-0.77,2.241-0.77,3.523,0,5.763c0.198,0.576,0.898,1.024,1.484,1.024h7.598
			c0.007,0,0.014-0.002,0.022-0.002l-0.114,0.317c-1.549,0.514-2.668,1.973-2.668,3.695v25.739c0,1.034,0.838,1.872,1.873,1.872
			h9.424c1.034,0,1.872-0.838,1.872-1.872v-9.115h43.018v9.115c0,1.034,0.839,1.872,1.873,1.872h9.424
			c1.034,0,1.872-0.838,1.872-1.872v-25.739c0-1.721-1.118-3.18-2.667-3.695l-0.115-0.317c0.007,0,0.014,0.001,0.022,0.001h7.598
			c0.585,0,1.286-0.447,1.483-1.023C296.887-120.881,296.886-122.163,296.117-124.403L296.117-124.403z M236.428-133.886h37.377
			l5.923,16.384h-49.223L236.428-133.886z M237.47-105.96h-7.884c-1.691,0-3.063-1.37-3.063-3.062c0-1.691,1.37-3.062,3.063-3.062
			h7.884c1.691,0,3.063,1.37,3.063,3.062C240.533-107.331,239.161-105.96,237.47-105.96L237.47-105.96z M280.651-105.96h-7.885
			c-1.691,0-3.062-1.37-3.062-3.062c0-1.691,1.37-3.062,3.062-3.062h7.885c1.691,0,3.062,1.37,3.062,3.062
			C283.713-107.331,282.343-105.96,280.651-105.96L280.651-105.96z M280.651-105.96"/>
	</g>
</g>
</svg>
