<?xml version="1.0" encoding="utf-8"?>
<!-- Generator: Adobe Illustrator 22.1.0, SVG Export Plug-In . SVG Version: 6.00 Build 0)  -->
<svg version="1.1"
	 id="Layer_1" xmlns:cc="http://creativecommons.org/ns#" xmlns:dc="http://purl.org/dc/elements/1.1/" xmlns:rdf="http://www.w3.org/1999/02/22-rdf-syntax-ns#"
	 xmlns="http://www.w3.org/2000/svg" xmlns:xlink="http://www.w3.org/1999/xlink" x="0px" y="0px" viewBox="0 0 370.6 150"
	 style="enable-background:new 0 0 370.6 150;" xml:space="preserve">
<style type="text/css">
	.st0{fill:#0062B4;}
</style>
<g transform="scale(3.75)">
	<path class="st0" d="M9.7,3.9h10.8L27,26.2h0.1l4.5-22.3h8.1l-6.8,32.2H22.2l-6.7-22.3h-0.1l-4.5,22.3H2.8L9.7,3.9z"/>
	<path class="st0" d="M42.9,3.9h8.6L49,16.2h10.2l2.5-12.3h8.6l-6.7,32.2H55l2.9-13.8H47.7l-2.9,13.8h-8.6L42.9,3.9z"/>
	<path class="st0" d="M93.1,11.1c-2.2-1-4.6-1.5-7.1-1.5c-3.4,0-6.2,0.5-6.2,3.1c0,4.6,12.5,2.9,12.5,12.6c0,8.9-8.3,11.2-15.7,11.2
		c-3.4-0.1-6.8-0.6-10-1.7l2-6.5c1.7,1.1,5.1,1.9,7.9,1.9s6.9-0.5,6.9-3.8c0-5.2-12.5-3.2-12.5-12.3c0-8.3,7.3-10.8,14.3-10.8
		c4,0,7.7,0.4,9.9,1.4L93.1,11.1z"/>
</g>
</svg>
