<?xml version="1.0" encoding="UTF-8"?>
<!DOCTYPE svg PUBLIC "-//W3C//DTD SVG 1.1//EN" "http://www.w3.org/Graphics/SVG/1.1/DTD/svg11.dtd">
<!-- Creator: CorelDRAW X8 -->
<svg xmlns="http://www.w3.org/2000/svg" xml:space="preserve" width="7.5532in" height="10.7599in" version="1.1" style="shape-rendering:geometricPrecision; text-rendering:geometricPrecision; image-rendering:optimizeQuality; fill-rule:evenodd; clip-rule:evenodd"
viewBox="0 0 7553 10760"
 xmlns:xlink="http://www.w3.org/1999/xlink">
 <defs>
  <style type="text/css">
   <![CDATA[
    .fil0 {fill:#EBD1AD}
    .fil1 {fill:#976638}
    .fil3 {fill:#755233}
    .fil2 {fill:#976638;fill-rule:nonzero}
    .fil4 {fill:#755233;fill-rule:nonzero}
    .fil5 {fill:#543E2E;fill-rule:nonzero}
   ]]>
  </style>
 </defs>
 <g id="Layer_x0020_1">
  <metadata id="CorelCorpID_0Corel-Layer"/>
  <g id="_1006983213888">
   <path class="fil0" d="M6933 5674c0,1624 -517,3082 -1360,3928 -607,608 -1199,1158 -1794,1158 -501,0 -1149,-449 -1673,-1032 -1007,-1118 -1319,-1538 -1467,-4054 -165,-2804 736,-5086 3140,-5086 2574,0 3154,1476 3154,5086z"/>
   <path class="fil1" d="M7524 3907c5,-51 -200,-549 -411,-414 -223,183 576,1919 -165,2706 -171,181 -172,1005 -172,1005 -627,-799 277,-3671 -661,-3860 -1154,433 -2615,-381 -3665,0 -366,132 -617,-56 -617,-56 0,0 16,327 -228,568 -478,472 -676,1189 -853,3114l7 743c-663,-1237 -435,-3759 -753,-5582 -79,-449 619,-376 619,-376 0,0 -129,-294 -46,-486 169,-388 550,-806 1166,-1026 2854,-822 6154,451 5779,3664z"/>
   <path class="fil2" d="M3904 7809c0,0 0,0 0,0 0,0 0,0 0,0 -994,-685 -1128,1274 -1948,621 -15,1150 1619,462 1948,-44 329,506 1963,1194 1948,44 -820,653 -953,-1306 -1948,-621z"/>
   <path class="fil3" d="M66 1888c-52,56 -79,134 -60,244 318,1823 90,4345 753,5581l-6 -656c-608,-1152 -458,-3399 -687,-5169z"/>
   <path class="fil3" d="M6115 2700c-1154,433 -2719,-346 -3770,126 -355,160 -917,-144 -917,-144 0,0 92,382 -110,660 -448,618 -389,1059 -566,2984l6 589c175,-1882 374,-2591 847,-3058 245,-241 228,-569 228,-569 0,0 251,189 617,56 1050,-380 2511,434 3665,0 321,65 426,443 451,946 25,-797 26,-1763 -451,-1590z"/>
   <path class="fil3" d="M7524 3263c6,-50 -193,-426 -405,-290 -157,95 -107,541 21,507 202,-79 389,379 384,428 33,-284 37,-552 16,-805 -4,53 -10,106 -16,160z"/>
   <path class="fil3" d="M6902 5915c-238,255 -178,747 -178,747 -158,-201 -166,-635 -184,-1023 -19,648 -4,1259 237,1565 0,0 0,-823 171,-1004 321,-341 353,-861 304,-1355 -34,269 -169,877 -350,1070z"/>
   <path class="fil4" d="M3904 7849c-208,320 -940,714 -1445,667 0,0 -95,59 -197,49 -153,-11 -282,-116 -282,-116 148,903 1613,227 1924,-251 311,478 1781,1145 1931,246 0,0 -128,98 -236,115 -98,15 -250,-43 -250,-43 -505,47 -1237,-347 -1445,-667z"/>
   <path class="fil5" d="M3904 8118c-294,452 -1634,1051 -1901,347 -16,-11 -31,-22 -47,-35 -15,1150 1619,462 1948,-44 329,506 1963,1194 1948,44 -16,13 -31,24 -46,35 -267,704 -1607,105 -1902,-347z"/>
   <path class="fil5" d="M3902 3063c-544,-191 -907,-287 -1441,-82 -533,205 -807,-41 -807,-41 0,0 19,357 -273,780 -1025,1480 -625,3992 -625,3992l-6 -743c177,-1925 375,-2642 853,-3114 244,-241 227,-568 227,-568 0,0 252,188 617,56 1050,-381 2512,433 3665,0 -551,142 -1666,-88 -2210,-280z"/>
   <path class="fil5" d="M7251 3077c-274,99 -179,509 -179,509l0 0c5,-44 17,-76 38,-94 179,-115 354,226 400,363 12,-138 15,-877 -259,-778z"/>
  </g>
 </g>
</svg>
