<?xml version="1.0" encoding="UTF-8" standalone="no"?>
<svg id="svg4" height="333.00156" viewBox="0 0 290.00001 333.00154" width="290" xmlns="http://www.w3.org/2000/svg">
   <path id="path2" d="m53.54316 284.26296c11.253697 0 17.42091-3.20695 17.42091-13.12148 0-9.91453-6.167213-13.10974-17.42091-13.10974-11.253696 0-17.420909 3.19521-17.420909 13.10974 0 9.91453 6.237696 13.12148 17.420909 13.12148zm0-20.36943c7.800057 0 9.79706 1.89128 9.79706 7.24795 0 5.35666-1.997003 7.2127-9.79706 7.2127-7.800056 0-9.726576-1.89128-9.726576-7.2127 0-5.32143 2.032243-7.24795 9.726576-7.24795zm22.11974 10.21996v-15.34168h7.612103v15.60011c0 3.05424 1.538867 3.88828 7.365415 3.88828 5.826548 0 8.164216-.86928 8.164216-3.85304v-15.63535h7.283186v15.27119c0 9.29194-5.53287 10.19646-16.904039 10.19646-9.397659 0-13.48564-1.64459-13.48564-10.12597zm46.42443-9.13923h-12.15822v-6.1907h31.58788v6.1907h-12.14647v18.47815h-7.28319zm30.85957 18.47815h-7.28319v-24.66885h7.28319v8.99825h17.16247v-8.99825h7.29493v24.66885h-7.29493v-9.66784h-17.16247zm136.99436-24.66885v24.66885h-7.33017v-5.55637l-19.64111-12.4284v18.00826h-7.29493v-24.66885h9.62085l17.31519 10.86604v-10.88953zm-147.12034 31.65836l-22.84806 42.5479h14.01426l5.20395-9.93803h26.47791l5.1922 9.93803h13.88504l-22.8598-42.5479zm1.29218 23.18872l7.13047-13.63835h2.34941l7.14222 13.63835zm76.62616-23.18872h13.95552l-22.31944 42.5479h-15.18897l-22.93028-42.5479h14.63685l16.09349 32.4924zm69.19026 42.5479h-51.95731v-42.5479h52.02779v9.77356h-39.45842v6.47264h33.13849v8.91603h-33.13849v6.53137h39.39968zm-76.62616-49.52566h-30.20173v-24.66886h30.20173v5.68559h-22.8833v3.74731h19.21821v5.18046h-19.21821v3.78256h22.8833zm-105.72366 34.06651c5.08648-1.76206 9.39766-5.42715 9.39766-13.09799 0-8.49313-5.96752-13.96727-18.431162-13.96727h-37.026775v42.53616h12.592863v-13.86155h21.144732c1.703326 5.09823 5.309682 10.81905 9.738322 13.8498h15.79981c-7.14221-5.10998-11.41815-10.27869-13.21545-15.48264zm-33.479161-16.99802h24.339936c2.831045 0 5.227445 1.01025 5.227445 4.27594 0 4.78106-2.34941 5.03949-5.156963 5.03949h-24.398671zm171.389801-26.01976a7.4241504 7.4241504 0 0 0 5.47414-7.60036c0-4.93377-3.46539-8.11723-10.70159-8.11723h-21.50889v24.66886h7.30668v-8.035h12.26394a16.598615 16.598615 0 0 0 5.66209 8.04674h9.17447c-4.13497-2.96026-6.6136-5.96751-7.65909-8.98651zm-19.41791-9.86754h14.09648c1.6446 0 3.03075.5756 3.03075 2.47863 0 2.77231-1.38615 2.92502-2.98376 2.92502h-14.09648zm-175.360314 47.07052a10.572366 10.572366 0 0 0 5.29793-8.95127c0-7.29493-4.029246-12.32268-17.162474-12.32268h-38.835825v42.5479h38.835825c13.133228 0 17.162474-5.02775 17.162474-12.32268a10.572366 10.572366 0 0 0-5.29793-8.95127zm-38.283712-11.95852h24.351683c2.831044 0 5.227447.83404 5.227447 3.52412 0 3.97051-2.349414 4.18196-5.168712 4.18196h-24.410418zm0 16.05825h24.351683c2.831044 0 5.227447.84579 5.227447 3.60635 0 4.04099-2.349414 4.25244-5.168712 4.25244h-24.410418zm11.970267-39.78734c0-1.89128-2.983756-2.18496-5.427147-2.18496h-6.225949c-4.569612 0-12.064245-1.31567-12.064245-7.69433 0-4.95726 4.886783-8.11723 16.034755-8.11723 9.256694 0 14.319683 2.34942 15.553126 6.00276l-6.449144 2.26718c-.469883-1.86778-4.593105-2.96026-9.06874-2.96026-5.356666 0-8.222952.84579-8.222952 2.54912 0 2.16146 3.101228 2.1732 5.321425 2.1732h6.883784c6.672338 0 11.288938 1.65634 11.288938 7.16572 0 5.50938-4.698829 8.99826-15.952526 8.99826-8.222951 0-14.2492-2.34942-16.069996-6.70758l6.966015-1.8208c.7988 1.4214 3.782557 3.019 9.691335 3.019 4.957265 0 7.729574-.8223 7.729574-2.69008zm265.542589-152.51226a6.0145016 6.0145016 0 0 0-3.25393-5.35666l-13.69709-7.04824 14.09649-16.563378a12.12298 12.12298 0 0 0 2.87803-7.835298v-86.7051483c0 0-55.21125 37.6728643-98.33475 49.6901203-36.32195 10.666343-45.93106 4.781059-45.93106-7.847045v-22.049257c0-3.794305-.16446-8.845546-6.13197-13.8732933-27.78183-21.6028677-110.422491 21.8143153-133.458502 34.9005553a12.064244 12.064244 0 0 0-6.073237 10.478389v103.092315a5.6855835 5.6855835 0 0 0 5.685584 5.67384 5.4858833 5.4858833 0 0 0  2.901527-.7988c18.337181-11.00701 62.412201-35.89906 96.325998-42.46567v25.84356c-43.945798 9.0335-104.936603 49.49042-104.936603 49.49042v46.33046c0 0 55.211245-37.66112 98.334751-49.69012 36.321952-10.66635 45.931052-4.78106 45.931052 7.84704v22.061c0 3.78256.16446 8.8338 6.13198 13.8733 27.78183 21.60287 110.42249-21.81432 133.4585-34.90056a12.087738 12.087738 0 0 0 6.07323-10.49013zm-145.66371-65.595653v23.494147a15.77632 15.77632 0 0 0-4.51087-4.898529c-19.2652-15.001013-65.078788 2.701826-98.980841 19.511888v-27.370681c21.426662-10.360918 47.5639-21.050755 68.767371-23.740835 25.32669-4.569611 32.82132 4.851542 34.39543 10.572366a10.631101 10.631101 0 0 1  .32891 2.431644zm104.90137 39.070766c-33.92555 17.338677-79.69215 35.687607-98.96909 20.686597a13.920282 13.920282 0 0 1-3.8178-4.33467 7.048244 7.048244 0 0 1-.71657-3.38316v-22.671849a15.77632 15.77632 0 0 0 4.51087 4.898529c19.27695 15.00101 65.04355-4.064487 98.9691-21.978774zm-103.50346 83.486447v-23.57637a15.77632 15.77632 0 0 0 4.51087 4.89853c19.27695 15.00101 65.04355-2.70183 98.9691-19.51189v27.38243c-21.41492 10.38441-47.59915 21.0625-68.74388 23.76433-25.32669 4.55786-32.82132-4.86329-34.39543-10.57237a10.689837 10.689837 0 0 1-.32892-2.34941z" stroke-width="1.17470729"/>
</svg>
