<?xml version="1.0" encoding="UTF-8" standalone="no"?>
<!-- Created with Inkscape (http://www.inkscape.org/) -->

<svg
   xmlns:dc="http://purl.org/dc/elements/1.1/"
   xmlns:cc="http://creativecommons.org/ns#"
   xmlns:rdf="http://www.w3.org/1999/02/22-rdf-syntax-ns#"
   xmlns:svg="http://www.w3.org/2000/svg"
   xmlns="http://www.w3.org/2000/svg"
   xmlns:sodipodi="http://sodipodi.sourceforge.net/DTD/sodipodi-0.dtd"
   xmlns:inkscape="http://www.inkscape.org/namespaces/inkscape"
   width="302"
   height="248"
   viewBox="0 0 302 248"
   id="svg22844"
   version="1.1"
   inkscape:version="0.91 r13725"
   sodipodi:docname="middlesex cricket.svg">
  <defs
     id="defs22846">
    <clipPath
       id="clipPath15540"
       clipPathUnits="userSpaceOnUse">
      <path
         inkscape:connector-curvature="0"
         id="path15542"
         d="m 33.455,765.602 71.626,0 0,58.651 -71.626,0 0,-58.651 z" />
    </clipPath>
    <clipPath
       id="clipPath15552"
       clipPathUnits="userSpaceOnUse">
      <path
         inkscape:connector-curvature="0"
         id="path15554"
         d="m 0,841.89 595.28,0 L 595.28,0 0,0 0,841.89 Z" />
    </clipPath>
    <clipPath
       id="clipPath15568"
       clipPathUnits="userSpaceOnUse">
      <path
         inkscape:connector-curvature="0"
         id="path15570"
         d="m 33.455,765.602 71.626,0 0,58.651 -71.626,0 0,-58.651 z" />
    </clipPath>
    <clipPath
       id="clipPath15584"
       clipPathUnits="userSpaceOnUse">
      <path
         inkscape:connector-curvature="0"
         id="path15586"
         d="m 0,841.89 595.28,0 L 595.28,0 0,0 0,841.89 Z" />
    </clipPath>
    <clipPath
       id="clipPath15600"
       clipPathUnits="userSpaceOnUse">
      <path
         inkscape:connector-curvature="0"
         id="path15602"
         d="m 33.455,765.602 71.626,0 0,58.651 -71.626,0 0,-58.651 z" />
    </clipPath>
    <clipPath
       id="clipPath15624"
       clipPathUnits="userSpaceOnUse">
      <path
         inkscape:connector-curvature="0"
         id="path15626"
         d="m 0,841.89 595.28,0 L 595.28,0 0,0 0,841.89 Z" />
    </clipPath>
  </defs>
  <sodipodi:namedview
     id="base"
     pagecolor="#ffffff"
     bordercolor="#666666"
     borderopacity="1.0"
     inkscape:pageopacity="0.0"
     inkscape:pageshadow="2"
     inkscape:zoom="2.1895161"
     inkscape:cx="151"
     inkscape:cy="124"
     inkscape:document-units="px"
     inkscape:current-layer="layer1"
     showgrid="false"
     units="px"
     inkscape:window-width="1280"
     inkscape:window-height="744"
     inkscape:window-x="-4"
     inkscape:window-y="-4"
     inkscape:window-maximized="1" />
  <metadata
     id="metadata22849">
    <rdf:RDF>
      <cc:Work
         rdf:about="">
        <dc:format>image/svg+xml</dc:format>
        <dc:type
           rdf:resource="http://purl.org/dc/dcmitype/StillImage" />
        <dc:title></dc:title>
      </cc:Work>
    </rdf:RDF>
  </metadata>
  <g
     inkscape:label="Layer 1"
     inkscape:groupmode="layer"
     id="layer1"
     transform="translate(0,-804.36216)">
    <g
       id="g23245"
       transform="matrix(3.3507386,0,0,3.3507386,-2354.0002,-1934.0095)">
      <g
         transform="matrix(1.25,0,0,-1.25,661.01205,1847.9106)"
         id="g15538"
         clip-path="url(#clipPath15540)">
        <g
           id="g15544"
           transform="translate(46.3425,773.8507)">
          <path
             d="M 0,0 C 0,0 1.211,-0.986 2.94,-0.363 4.6,0.182 7.988,-1.298 7.652,-4.076 7.315,-6.855 7.337,-7.037 7.248,-7.401 7.158,-7.763 4.847,-8.725 0.763,-7.531 -3.321,-6.337 -3.591,-5.843 -3.007,-4.285 -2.423,-2.727 0,0 0,0"
             style="fill:#273c6a;fill-opacity:1;fill-rule:nonzero;stroke:none"
             id="path15546"
             inkscape:connector-curvature="0" />
        </g>
      </g>
      <g
         transform="matrix(1.25,0,0,-1.25,661.01205,1847.9106)"
         id="g15550"
         clip-path="url(#clipPath15552)">
        <g
           id="g15556"
           transform="translate(45.4525,770.1374)">
          <path
             d="m 0,0 c 0,0 -0.194,-0.554 -1.167,-0.45 -0.973,0.104 -0.988,-0.172 -1.048,-0.484 0.046,0.484 0.778,2.007 0.449,2.337 C -1.093,1.766 -0.03,1.663 0,0"
             style="fill:#e7b209;fill-opacity:1;fill-rule:nonzero;stroke:none"
             id="path15558"
             inkscape:connector-curvature="0" />
        </g>
        <g
           id="g15560"
           transform="translate(45.4525,770.1374)">
          <path
             d="m 0,0 1.585,6.095 c 0,0 0,2.042 -1.735,1.869 -1.735,-0.173 -3.231,-1.247 -4.547,-1.628 -1.317,-0.381 -4.728,-1.8 -5.027,3.29 -0.509,-1.006 -1.765,-3.394 0.299,-5.471 -0.687,-0.207 -1.615,-0.624 -2.573,0.139 0.06,-1.108 0.958,-4.744 4.787,-4.778 2.514,0 4.847,1.765 5.506,1.904 C -1.048,1.558 -0.03,1.317 0,0"
             style="fill:#273c6a;fill-opacity:1;fill-rule:nonzero;stroke:none"
             id="path15562"
             inkscape:connector-curvature="0" />
        </g>
      </g>
      <g
         transform="matrix(1.25,0,0,-1.25,661.01205,1847.9106)"
         id="g15566"
         clip-path="url(#clipPath15568)">
        <g
           id="g15572"
           transform="translate(47.9956,768.6495)">
          <path
             d="m 0,0 c 0,0 0.255,-1.126 2.767,-0.831 2.514,0.294 3.082,-0.434 2.798,-1.49 0.239,1.056 0.628,2.702 0.628,2.702 0,0 -2.618,1.591 -4.129,1.367 C 0.553,1.523 -0.046,1.402 0,0"
             style="fill:#e7b209;fill-opacity:1;fill-rule:nonzero;stroke:none"
             id="path15574"
             inkscape:connector-curvature="0" />
        </g>
        <g
           id="g15576"
           transform="translate(92.1939,773.8507)">
          <path
             d="m 0,0 c 0,0 -1.212,-0.986 -2.94,-0.363 -1.66,0.545 -5.049,-0.935 -4.711,-3.713 0.335,-2.779 0.313,-2.961 0.403,-3.325 0.09,-0.362 2.401,-1.324 6.485,-0.13 4.083,1.194 4.353,1.688 3.77,3.246 C 2.423,-2.727 0,0 0,0"
             style="fill:#273c6a;fill-opacity:1;fill-rule:nonzero;stroke:none"
             id="path15578"
             inkscape:connector-curvature="0" />
        </g>
      </g>
      <g
         transform="matrix(1.25,0,0,-1.25,661.01205,1847.9106)"
         id="g15582"
         clip-path="url(#clipPath15584)">
        <g
           id="g15588"
           transform="translate(93.0835,770.1374)">
          <path
             d="M 0,0 C 0,0 0.195,-0.554 1.167,-0.45 2.139,-0.346 2.155,-0.622 2.214,-0.934 2.169,-0.45 1.436,1.073 1.766,1.403 1.092,1.766 0.03,1.663 0,0"
             style="fill:#e7b209;fill-opacity:1;fill-rule:nonzero;stroke:none"
             id="path15590"
             inkscape:connector-curvature="0" />
        </g>
        <g
           id="g15592"
           transform="translate(93.0835,770.1374)">
          <path
             d="m 0,0 -1.585,6.095 c 0,0 0,2.042 1.735,1.869 C 1.885,7.791 3.381,6.717 4.697,6.336 6.014,5.955 9.424,4.536 9.723,9.626 10.233,8.62 11.489,6.232 9.424,4.155 10.112,3.948 11.04,3.531 11.997,4.294 11.938,3.186 11.04,-0.45 7.21,-0.484 4.697,-0.484 2.364,1.281 1.705,1.42 1.047,1.558 0.03,1.317 0,0"
             style="fill:#273c6a;fill-opacity:1;fill-rule:nonzero;stroke:none"
             id="path15594"
             inkscape:connector-curvature="0" />
        </g>
      </g>
      <g
         transform="matrix(1.25,0,0,-1.25,661.01205,1847.9106)"
         id="g15598"
         clip-path="url(#clipPath15600)">
        <g
           id="g15604"
           transform="translate(90.5415,768.8265)">
          <path
             d="m 0,0 c 0,0 0.365,-1.46 -2.769,-0.895 -2.497,0.45 -3.081,-0.465 -2.797,-1.603 -0.239,1.138 -0.628,2.908 -0.628,2.908 0,0 2.604,1.506 4.129,1.472 C -0.742,1.852 0.044,1.509 0,0"
             style="fill:#e7b209;fill-opacity:1;fill-rule:nonzero;stroke:none"
             id="path15606"
             inkscape:connector-curvature="0" />
        </g>
        <g
           id="g15608"
           transform="translate(89.2244,776.5777)">
          <path
             d="m 0,0 c -0.127,0.957 -1.598,1.286 -3.711,0.458 -0.286,-0.141 -0.523,-0.262 -0.675,-0.34 -0.748,-0.381 -11.28,-6.683 -27.617,-1.489 -2.729,0.993 -4.216,2.116 -5.619,2.416 -1.483,0.385 -2.32,-0.941 -2.32,-0.941 -0.24,-0.796 -0.046,-1.481 -0.06,-2.078 -0.03,-0.831 -0.659,-3.497 -0.898,-4.121 -0.239,-0.622 -0.448,-1.004 -0.329,-1.833 -0.03,1.35 1.137,1.523 2.752,1.488 1.617,-0.034 3.112,-1.351 6.253,-2.493 16.336,-5.193 26.868,1.108 27.616,1.489 0.748,0.381 3.441,1.8 4.757,1.454 C 1.466,-6.336 1.345,-7.895 1.226,-8.275 1.824,-7.34 1.076,-6.44 0.897,-5.297 0.717,-4.155 0.179,-1.35 0,0"
             style="fill:#273c6a;fill-opacity:1;fill-rule:nonzero;stroke:none"
             id="path15610"
             inkscape:connector-curvature="0" />
        </g>
      </g>
      <path
         d="m 725.7428,881.5786 0.065,0.004 0.0462,-0.0475 0.71625,-1.88625 -0.006,-0.06 -0.0512,-0.0375 0.0275,-0.0738 0.77375,0.29375 -0.0287,0.0737 -0.0475,-0.004 -0.0375,0.0288 -0.004,0.06 0.0113,0.0838 0.1825,1.30125 1,-0.8375 0.075,-0.0688 0.0362,-0.05 -0.0362,-0.0662 0.0275,-0.0738 0.765,0.29 -0.0275,0.075 -0.0638,-0.008 -0.0438,0.0425 -0.71625,1.88625 0.004,0.0637 0.05,0.0413 -0.0275,0.075 -0.65,-0.2475 0.0288,-0.0738 0.14,-0.0312 0.52125,-1.37375 -0.009,-0.004 -1.40875,1.20625 -0.0125,-0.004 -0.23625,-1.83625 -0.008,-0.003 -0.52375,1.3775 0.0875,0.1175 -0.0275,0.075 -0.62,-0.23625 0.0275,-0.0737 z"
         style="fill:#ffffff;fill-opacity:1;fill-rule:nonzero;stroke:none"
         id="path15614"
         inkscape:connector-curvature="0" />
      <path
         d="m 729.23643,883.08285 0.13875,-0.02 0.8925,-1.8 -0.0688,-0.1225 0.0362,-0.0712 0.6575,0.32625 -0.035,0.0712 -0.13875,0.02 -0.8925,1.8 0.0675,0.1225 -0.035,0.0713 -0.6575,-0.32625 0.035,-0.0712 z"
         style="fill:#ffffff;fill-opacity:1;fill-rule:nonzero;stroke:none"
         id="path15618"
         inkscape:connector-curvature="0" />
      <g
         transform="matrix(1.25,0,0,-1.25,661.01205,1847.9106)"
         id="g15622"
         clip-path="url(#clipPath15624)">
        <g
           id="g15628"
           transform="translate(56.6011,771.1735)">
          <path
             d="m 0,0 c 0.102,-0.044 0.195,-0.073 0.278,-0.089 l 0.228,0.012 0.189,0.129 C 0.751,0.115 0.804,0.203 0.852,0.316 0.901,0.428 0.928,0.527 0.935,0.611 L 0.899,0.837 0.75,1.011 C 0.682,1.06 0.597,1.107 0.495,1.151 L -0.009,1.368 -0.504,0.217 0,0 Z M 0.745,1.375 C 0.864,1.324 0.968,1.259 1.056,1.179 1.144,1.101 1.211,1.01 1.257,0.907 1.302,0.804 1.324,0.689 1.321,0.563 1.318,0.437 1.285,0.302 1.223,0.156 1.161,0.011 1.085,-0.106 0.995,-0.195 0.906,-0.283 0.808,-0.347 0.702,-0.385 0.596,-0.422 0.483,-0.437 0.366,-0.427 0.248,-0.417 0.129,-0.387 0.01,-0.336 l -1.08,0.464 0.025,0.059 0.1,0.026 0.635,1.477 -0.05,0.09 0.025,0.059 1.08,-0.464 z"
             style="fill:#ffffff;fill-opacity:1;fill-rule:nonzero;stroke:none"
             id="path15630"
             inkscape:connector-curvature="0" />
        </g>
        <g
           id="g15632"
           transform="translate(58.9298,770.3677)">
          <path
             d="m 0,0 c 0.107,-0.031 0.202,-0.048 0.287,-0.053 l 0.225,0.041 0.17,0.152 C 0.73,0.21 0.771,0.303 0.805,0.421 0.839,0.54 0.854,0.641 0.85,0.726 L 0.785,0.944 0.615,1.098 C 0.541,1.139 0.451,1.175 0.344,1.205 L -0.183,1.356 -0.528,0.151 0,0 Z M 0.564,1.459 C 0.689,1.423 0.8,1.371 0.897,1.305 0.995,1.237 1.073,1.156 1.131,1.059 1.189,0.963 1.225,0.852 1.238,0.727 1.252,0.601 1.237,0.463 1.193,0.311 1.15,0.159 1.089,0.033 1.012,-0.066 0.934,-0.166 0.845,-0.241 0.745,-0.292 0.644,-0.343 0.535,-0.372 0.417,-0.377 0.299,-0.382 0.177,-0.367 0.052,-0.332 l -1.13,0.323 0.018,0.062 0.096,0.039 0.441,1.545 -0.061,0.083 0.018,0.062 1.13,-0.323 z"
             style="fill:#ffffff;fill-opacity:1;fill-rule:nonzero;stroke:none"
             id="path15634"
             inkscape:connector-curvature="0" />
        </g>
        <g
           id="g15636"
           transform="translate(62.0181,769.2799)">
          <path
             d="M 0,0 -0.083,0.026 -1.726,0.4 -1.712,0.462 -1.594,0.5 -1.238,2.067 -1.327,2.153 -1.313,2.215 -0.719,2.08 -0.734,2.018 -0.844,1.978 -1.157,0.604 -0.011,0.344 0.079,0.349 0.127,0.407 0.189,0.393 0.082,-0.08 0.019,-0.066 0,0 Z"
             style="fill:#ffffff;fill-opacity:1;fill-rule:nonzero;stroke:none"
             id="path15638"
             inkscape:connector-curvature="0" />
        </g>
        <g
           id="g15640"
           transform="translate(64.4555,770.361)">
          <path
             d="m 0,0 -0.02,0.063 -0.1,0.036 -1.13,0.193 -0.074,-0.433 0.684,-0.116 0.112,0 0.055,0.093 0.063,-0.01 -0.093,-0.545 -0.063,0.011 -0.02,0.11 -0.105,0.041 -0.684,0.116 -0.082,-0.482 1.166,-0.198 0.09,0.01 0.044,0.061 0.063,-0.011 -0.081,-0.478 -0.063,0.011 -0.023,0.064 -0.085,0.022 -1.626,0.277 0.011,0.062 0.046,0.009 0.027,0.043 0.27,1.585 L -1.63,0.584 -1.671,0.608 -1.66,0.67 -0.068,0.4 0.038,0.405 0.078,0.461 0.141,0.45 0.063,-0.01 0,0 Z"
             style="fill:#ffffff;fill-opacity:1;fill-rule:nonzero;stroke:none"
             id="path15642"
             inkscape:connector-curvature="0" />
        </g>
        <g
           id="g15644"
           transform="translate(64.9859,769.387)">
          <path
             d="m 0,0 0.033,-0.021 0.008,-0.058 0.088,-0.093 0.158,-0.091 0.189,-0.072 0.181,-0.039 0.156,-0.008 0.19,0.016 0.167,0.061 0.081,0.122 L 1.203,-0.056 1.047,0.018 0.821,0.065 0.56,0.11 0.302,0.173 0.082,0.281 -0.062,0.457 c -0.034,0.072 -0.045,0.161 -0.033,0.269 l 0.074,0.209 0.177,0.17 C 0.232,1.151 0.326,1.185 0.438,1.207 0.55,1.23 0.678,1.233 0.824,1.217 0.948,1.204 1.055,1.183 1.144,1.154 L 1.375,1.068 1.538,0.99 1.649,0.949 1.722,0.963 1.761,0.929 1.47,0.516 1.436,0.534 1.417,0.618 1.333,0.711 1.188,0.8 1.003,0.872 0.801,0.913 0.64,0.918 0.486,0.898 0.368,0.845 0.313,0.749 0.361,0.616 0.516,0.535 0.742,0.482 1.002,0.436 1.26,0.37 1.479,0.261 1.624,0.086 C 1.658,0.016 1.669,-0.071 1.658,-0.177 1.644,-0.299 1.602,-0.395 1.528,-0.466 1.455,-0.536 1.369,-0.588 1.267,-0.622 1.166,-0.657 1.059,-0.675 0.946,-0.678 c -0.113,-0.003 -0.218,0 -0.314,0.011 -0.133,0.014 -0.245,0.034 -0.333,0.06 L 0.08,-0.527 -0.056,-0.451 -0.145,-0.415 -0.194,-0.438 -0.24,-0.405 0,0 Z"
             style="fill:#ffffff;fill-opacity:1;fill-rule:nonzero;stroke:none"
             id="path15646"
             inkscape:connector-curvature="0" />
        </g>
        <g
           id="g15648"
           transform="translate(68.9129,769.9843)">
          <path
             d="m 0,0 -0.027,0.059 -0.104,0.025 -1.145,0.053 -0.021,-0.439 0.693,-0.032 0.111,0.015 0.043,0.099 0.064,-0.003 -0.025,-0.552 -0.064,0.003 -0.034,0.106 -0.109,0.028 -0.693,0.032 -0.022,-0.488 1.181,-0.054 0.088,0.02 0.036,0.066 0.064,-0.003 -0.022,-0.484 -0.064,0.003 -0.031,0.061 -0.086,0.012 -1.648,0.075 0.003,0.064 0.045,0.014 0.022,0.047 0.074,1.605 -0.018,0.049 -0.043,0.017 0.003,0.064 1.612,-0.074 0.106,0.018 L 0.021,0.467 0.085,0.464 0.064,-0.003 0,0 Z"
             style="fill:#ffffff;fill-opacity:1;fill-rule:nonzero;stroke:none"
             id="path15650"
             inkscape:connector-curvature="0" />
        </g>
        <g
           id="g15652"
           transform="translate(70.0341,770.3071)">
          <path
             d="m 0,0 -0.055,-0.015 -0.025,-0.043 0.02,-0.06 0.053,-0.073 0.298,-0.359 0.286,0.378 0.065,0.086 L 0.67,-0.033 0.573,0.012 0.572,0.076 1.29,0.09 1.291,0.026 1.166,0.013 1.098,-0.035 0.501,-0.804 1.103,-1.543 1.138,-1.591 1.187,-1.645 1.25,-1.69 1.326,-1.708 1.328,-1.771 0.616,-1.786 0.615,-1.722 0.67,-1.664 0.646,-1.608 0.59,-1.539 0.256,-1.12 l -0.341,-0.446 -0.044,-0.059 -0.025,-0.063 0.068,-0.048 0.002,-0.064 -0.652,-0.013 -0.001,0.063 0.104,0.017 0.075,0.065 0.604,0.802 -0.588,0.717 -0.112,0.106 -0.118,0.028 -0.001,0.064 0.772,0.015 L 0,0 Z"
             style="fill:#ffffff;fill-opacity:1;fill-rule:nonzero;stroke:none"
             id="path15654"
             inkscape:connector-curvature="0" />
        </g>
        <g
           id="g15656"
           transform="translate(74.5892,769.1112)">
          <path
             d="m 0,0 -0.019,0 -0.02,-0.001 -0.095,-0.054 -0.189,-0.119 C -0.4,-0.218 -0.488,-0.26 -0.588,-0.298 c -0.1,-0.038 -0.207,-0.063 -0.319,-0.077 -0.148,-0.017 -0.292,-0.015 -0.432,0.006 -0.141,0.022 -0.268,0.065 -0.381,0.131 -0.113,0.067 -0.208,0.155 -0.283,0.265 -0.075,0.11 -0.121,0.243 -0.14,0.4 -0.018,0.155 -0.004,0.295 0.043,0.421 0.047,0.125 0.118,0.234 0.213,0.326 0.094,0.092 0.208,0.166 0.339,0.222 0.131,0.056 0.27,0.092 0.418,0.11 0.12,0.014 0.229,0.017 0.329,0.01 0.099,-0.007 0.186,-0.017 0.262,-0.029 L -0.36,1.447 -0.279,1.429 -0.252,1.45 -0.235,1.48 -0.178,1.444 -0.402,0.986 -0.44,1.007 -0.444,1.028 -0.452,1.052 -0.532,1.122 -0.697,1.176 -0.9,1.205 -1.094,1.204 C -1.192,1.192 -1.285,1.167 -1.372,1.128 L -1.593,0.977 -1.729,0.76 C -1.76,0.676 -1.769,0.584 -1.757,0.483 c 0.011,-0.1 0.042,-0.187 0.091,-0.261 l 0.184,-0.18 c 0.073,-0.046 0.156,-0.078 0.25,-0.095 0.093,-0.017 0.189,-0.02 0.288,-0.009 l 0.232,0.055 0.217,0.093 0.16,0.112 0.057,0.104 -0.019,0.041 0.046,0.034 L 0.025,0.032 0,0 Z"
             style="fill:#ffffff;fill-opacity:1;fill-rule:nonzero;stroke:none"
             id="path15658"
             inkscape:connector-curvature="0" />
        </g>
        <g
           id="g15660"
           transform="translate(75.9855,770.1606)">
          <path
             d="M 0,0 0.205,0.06 0.326,0.14 0.38,0.235 0.38,0.342 0.339,0.44 0.254,0.508 0.111,0.536 -0.101,0.514 -0.702,0.396 -0.601,-0.118 0,0 Z M -0.069,0.831 C 0.042,0.852 0.145,0.862 0.239,0.86 0.333,0.859 0.416,0.843 0.49,0.812 L 0.672,0.675 C 0.72,0.613 0.754,0.533 0.774,0.434 0.804,0.281 0.781,0.155 0.707,0.056 0.633,-0.043 0.522,-0.121 0.374,-0.179 l 0.592,-0.569 0.065,-0.03 0.063,0.004 0.012,-0.062 -0.65,-0.128 -0.012,0.063 0.052,0.021 0.017,0.032 -0.022,0.037 -0.053,0.053 -0.489,0.467 -0.496,-0.098 0.121,-0.619 0.032,-0.042 0.084,0.001 0.013,-0.063 -0.601,-0.118 -0.012,0.063 0.088,0.082 -0.31,1.577 -0.113,0.043 -0.012,0.062 1.188,0.234 z"
             style="fill:#ffffff;fill-opacity:1;fill-rule:nonzero;stroke:none"
             id="path15662"
             inkscape:connector-curvature="0" />
        </g>
        <g
           id="g15664"
           transform="translate(77.5163,769.5087)">
          <path
             d="M 0,0 0.073,0.084 -0.328,1.641 -0.433,1.679 -0.449,1.741 0.12,1.888 0.136,1.826 0.063,1.741 0.464,0.185 0.569,0.147 0.585,0.085 0.016,-0.062 0,0 Z"
             style="fill:#ffffff;fill-opacity:1;fill-rule:nonzero;stroke:none"
             id="path15666"
             inkscape:connector-curvature="0" />
        </g>
        <g
           id="g15668"
           transform="translate(80.4379,770.5819)">
          <path
             d="m 0,0 -0.019,-0.005 -0.019,-0.004 -0.083,-0.072 -0.162,-0.153 c -0.066,-0.059 -0.145,-0.117 -0.236,-0.173 -0.09,-0.057 -0.19,-0.103 -0.297,-0.138 -0.142,-0.046 -0.283,-0.073 -0.425,-0.079 -0.142,-0.007 -0.275,0.011 -0.399,0.054 -0.125,0.042 -0.234,0.11 -0.329,0.204 -0.095,0.092 -0.167,0.214 -0.216,0.364 -0.048,0.148 -0.062,0.289 -0.04,0.421 0.021,0.133 0.07,0.253 0.144,0.362 0.075,0.109 0.172,0.203 0.289,0.284 0.118,0.08 0.248,0.144 0.389,0.19 0.114,0.037 0.221,0.062 0.32,0.074 0.099,0.013 0.186,0.021 0.263,0.023 l 0.183,-0.003 0.083,-0.003 0.023,0.026 0.01,0.033 0.064,-0.024 -0.13,-0.493 -0.042,0.013 -0.008,0.019 -0.012,0.022 -0.092,0.054 -0.173,0.02 -0.205,-0.011 -0.19,-0.039 C -1.403,0.935 -1.489,0.892 -1.567,0.837 L -1.754,0.646 -1.845,0.406 c -0.013,-0.088 -0.005,-0.18 0.027,-0.277 0.031,-0.096 0.079,-0.176 0.141,-0.238 l 0.215,-0.14 c 0.081,-0.031 0.169,-0.046 0.264,-0.045 0.095,0.001 0.19,0.017 0.284,0.048 l 0.218,0.099 0.194,0.134 0.135,0.141 0.035,0.114 L -0.358,0.277 -0.32,0.32 0.018,0.035 0,0 Z"
             style="fill:#ffffff;fill-opacity:1;fill-rule:nonzero;stroke:none"
             id="path15670"
             inkscape:connector-curvature="0" />
        </g>
        <g
           id="g15672"
           transform="translate(81.34,770.8091)">
          <path
             d="m 0,0 0.038,-0.036 0.052,0.005 0.025,-0.058 -0.507,-0.218 -0.025,0.059 0.046,0.089 -0.634,1.477 -0.096,0.028 -0.025,0.058 0.507,0.217 L -0.594,1.563 -0.633,1.529 -0.634,1.476 -0.368,0.859 0.077,1.678 0.121,1.772 0.13,1.824 0.102,1.85 0.063,1.845 0.038,1.904 0.721,2.197 0.746,2.138 0.65,2.039 0.157,1.123 1.179,0.626 1.32,0.572 1.46,0.557 1.485,0.498 0.883,0.24 0.858,0.299 0.89,0.339 0.814,0.391 -0.017,0.794 -0.2,0.465 0,0 Z"
             style="fill:#ffffff;fill-opacity:1;fill-rule:nonzero;stroke:none"
             id="path15674"
             inkscape:connector-curvature="0" />
        </g>
        <g
           id="g15676"
           transform="translate(84.026,773.6276)">
          <path
             d="m 0,0 -0.054,0.038 -0.101,-0.03 -1.019,-0.527 0.201,-0.39 0.617,0.318 0.088,0.068 -0.011,0.108 0.056,0.029 0.254,-0.491 -0.057,-0.029 -0.083,0.075 -0.108,-0.03 -0.616,-0.319 0.225,-0.433 1.05,0.542 0.065,0.062 -0.001,0.075 0.057,0.03 0.222,-0.431 -0.056,-0.029 -0.057,0.037 -0.081,-0.033 -1.465,-0.757 -0.03,0.056 0.033,0.035 -0.005,0.051 -0.738,1.428 -0.039,0.033 -0.047,-0.006 -0.029,0.057 1.434,0.741 0.082,0.068 -0.002,0.069 0.057,0.029 L 0.057,0.029 0,0 Z"
             style="fill:#ffffff;fill-opacity:1;fill-rule:nonzero;stroke:none"
             id="path15678"
             inkscape:connector-curvature="0" />
        </g>
        <g
           id="g15680"
           transform="translate(86.388,773.0861)">
          <path
             d="m 0,0 0.023,-0.06 -0.509,-0.194 -0.023,0.059 0.035,0.031 0.002,0.051 -0.505,1.316 -0.545,-0.209 -0.051,-0.039 -0.004,-0.073 -0.06,-0.023 -0.177,0.463 0.059,0.023 0.053,-0.052 0.064,0.005 1.468,0.562 0.051,0.039 0.004,0.073 0.06,0.023 L 0.122,1.533 0.063,1.51 0.01,1.562 -0.054,1.556 -0.599,1.347 -0.095,0.032 0,0 Z"
             style="fill:#ffffff;fill-opacity:1;fill-rule:nonzero;stroke:none"
             id="path15682"
             inkscape:connector-curvature="0" />
        </g>
        <g
           id="g15684"
           transform="translate(94.8543,773.0947)">
          <path
             d="m 0,0 0.048,0.009 0.024,0.086 0.052,1.371 -0.046,0.008 -0.051,0 -0.046,-0.016 -0.03,-0.043 -0.033,0.01 0.019,0.516 L -0.03,1.932 -0.007,1.874 0.039,1.846 0.118,1.867 0.153,1.963 0.139,2.042 0.092,2.08 0.094,2.129 0.535,2.003 0.533,1.953 0.478,1.94 0.453,1.885 0.382,0.006 0.402,-0.093 0.45,-0.129 0.448,-0.178 -0.002,-0.05 0,0 Z"
             style="fill:#ffffff;fill-opacity:1;fill-rule:nonzero;stroke:none"
             id="path15686"
             inkscape:connector-curvature="0" />
        </g>
        <g
           id="g15688"
           transform="translate(96.5341,774.3834)">
          <path
             d="m 0,0 c -0.052,-0.026 -0.08,-0.087 -0.084,-0.183 -0.003,-0.096 0.019,-0.171 0.068,-0.227 0.05,-0.056 0.135,-0.101 0.255,-0.135 0.12,-0.035 0.206,-0.039 0.259,-0.012 0.052,0.026 0.08,0.088 0.084,0.183 0.003,0.096 -0.02,0.172 -0.069,0.227 C 0.464,-0.091 0.379,-0.046 0.259,-0.012 0.139,0.023 0.053,0.027 0,0 m -0.18,-1.109 c -0.008,-0.227 0.117,-0.378 0.378,-0.453 0.259,-0.074 0.394,0.002 0.403,0.229 0.008,0.227 -0.118,0.378 -0.377,0.452 -0.261,0.075 -0.395,-0.001 -0.404,-0.228 M 0.6,-0.831 C 0.693,-0.888 0.768,-0.964 0.824,-1.059 0.881,-1.154 0.906,-1.28 0.9,-1.436 0.895,-1.575 0.865,-1.68 0.812,-1.752 L 0.62,-1.901 0.384,-1.924 l -0.226,0.046 -0.221,0.088 -0.21,0.158 c -0.064,0.067 -0.116,0.146 -0.155,0.237 -0.04,0.092 -0.058,0.198 -0.053,0.318 l 0.031,0.213 0.073,0.131 0.108,0.074 0.138,0.037 0,0.009 -0.184,0.195 c -0.05,0.088 -0.074,0.194 -0.069,0.317 0.005,0.128 0.029,0.225 0.071,0.29 L -0.153,0.324 0.052,0.35 0.26,0.311 0.466,0.231 0.672,0.089 0.828,-0.133 C 0.868,-0.222 0.886,-0.329 0.882,-0.452 0.877,-0.583 0.849,-0.676 0.797,-0.73 L 0.6,-0.827 l 0,0.004 0,-0.008 z"
             style="fill:#ffffff;fill-opacity:1;fill-rule:nonzero;stroke:none"
             id="path15690"
             inkscape:connector-curvature="0" />
        </g>
        <g
           id="g15692"
           transform="translate(98.3759,773.0264)">
          <path
             d="m 0,0 c -0.066,-0.05 -0.102,-0.133 -0.107,-0.248 -0.004,-0.114 0.025,-0.215 0.086,-0.302 0.061,-0.086 0.144,-0.144 0.247,-0.174 0.104,-0.03 0.189,-0.02 0.255,0.031 0.066,0.049 0.101,0.132 0.105,0.247 C 0.59,-0.331 0.563,-0.231 0.501,-0.144 0.44,-0.057 0.359,0.001 0.254,0.031 0.151,0.06 0.066,0.05 0,0 M 0.773,0.342 0.741,0.368 0.735,0.409 0.722,0.452 0.647,0.577 0.541,0.674 0.432,0.741 0.346,0.776 C 0.208,0.815 0.097,0.794 0.014,0.711 -0.069,0.628 -0.117,0.481 -0.131,0.27 L 0.118,0.356 C 0.195,0.37 0.284,0.362 0.382,0.334 L 0.578,0.235 0.746,0.056 C 0.794,-0.016 0.834,-0.099 0.862,-0.191 0.891,-0.284 0.903,-0.386 0.899,-0.498 0.894,-0.627 0.869,-0.733 0.823,-0.816 L 0.656,-1.009 0.438,-1.086 0.208,-1.063 c -0.11,0.031 -0.206,0.082 -0.29,0.153 -0.084,0.071 -0.153,0.161 -0.21,0.27 -0.056,0.109 -0.098,0.233 -0.125,0.374 -0.027,0.14 -0.037,0.291 -0.031,0.453 0.006,0.164 0.031,0.31 0.074,0.441 0.044,0.129 0.101,0.235 0.173,0.317 0.073,0.081 0.157,0.138 0.252,0.168 0.096,0.031 0.199,0.03 0.308,-10e-4 L 0.575,1.021 0.721,0.913 0.818,0.819 0.875,0.773 0.907,0.768 0.928,0.775 0.948,0.74 0.773,0.342 Z"
             style="fill:#ffffff;fill-opacity:1;fill-rule:nonzero;stroke:none"
             id="path15694"
             inkscape:connector-curvature="0" />
        </g>
        <g
           id="g15696"
           transform="translate(100.669,773.1362)">
          <path
             d="M 0,0 -0.655,-0.841 -0.038,-1.017 0,0 Z m -0.918,-1.14 -0.026,-0.066 -0.033,0.01 0.018,0.459 0.744,0.944 0.058,0.077 0.027,0.06 -0.015,0.048 -0.029,0.031 0.002,0.049 L 0.357,0.321 0.355,0.272 0.313,0.263 0.295,0.21 0.246,-1.099 0.333,-1.124 0.389,-1.123 0.413,-1.047 0.446,-1.057 0.425,-1.61 0.392,-1.601 0.375,-1.509 0.319,-1.476 0.232,-1.451 0.225,-1.657 0.239,-1.754 0.274,-1.787 0.273,-1.836 l -0.412,0.118 0.001,0.049 0.054,0.008 0.024,0.086 0.008,0.205 -0.796,0.228 -0.07,0.002 z"
             style="fill:#ffffff;fill-opacity:1;fill-rule:nonzero;stroke:none"
             id="path15698"
             inkscape:connector-curvature="0" />
        </g>
        <g
           id="g15700"
           transform="translate(39.5253,773.5525)">
          <path
             d="m 0,0 -0.021,0.061 -0.08,-0.007 -0.883,-0.326 -0.019,-0.521 0.534,0.198 0.086,0.054 0.034,0.131 0.049,0.018 -0.024,-0.656 -0.049,-0.018 -0.025,0.113 -0.084,-0.004 -0.535,-0.198 -0.021,-0.579 0.911,0.336 0.068,0.054 0.029,0.089 0.049,0.018 -0.022,-0.575 -0.048,-0.019 -0.024,0.062 -0.066,-0.015 -1.271,-0.469 0.003,0.076 0.035,0.031 0.017,0.062 0.07,1.909 -0.013,0.051 -0.033,0.006 0.002,0.076 1.244,0.458 0.081,0.057 L 0.02,0.555 0.069,0.574 0.049,0.018 0,0 Z"
             style="fill:#ffffff;fill-opacity:1;fill-rule:nonzero;stroke:none"
             id="path15702"
             inkscape:connector-curvature="0" />
        </g>
        <g
           id="g15704"
           transform="translate(40.2114,772.7568)">
          <path
             d="M 0,0 0.026,-0.011 0.035,-0.074 0.107,-0.146 0.231,-0.184 0.38,-0.19 0.522,-0.16 0.642,-0.106 0.788,-0.008 0.914,0.129 0.972,0.304 0.93,0.43 0.806,0.451 0.63,0.412 0.428,0.357 0.226,0.323 0.052,0.357 -0.066,0.5 c -0.029,0.068 -0.041,0.167 -0.036,0.295 0.003,0.087 0.019,0.178 0.048,0.271 0.03,0.094 0.073,0.184 0.13,0.268 l 0.213,0.234 c 0.085,0.072 0.184,0.128 0.297,0.17 0.096,0.035 0.179,0.055 0.25,0.059 L 1.017,1.793 1.145,1.77 1.233,1.769 1.288,1.814 1.32,1.792 1.112,1.198 1.086,1.205 1.068,1.294 0.998,1.365 0.883,1.407 0.738,1.415 0.581,1.379 0.456,1.318 0.339,1.232 0.25,1.122 0.211,0.991 0.253,0.856 0.376,0.827 0.552,0.859 0.754,0.913 0.956,0.944 1.13,0.908 1.248,0.767 C 1.277,0.7 1.289,0.604 1.285,0.478 1.279,0.332 1.25,0.203 1.197,0.093 1.143,-0.019 1.078,-0.114 1.002,-0.195 L 0.757,-0.391 0.514,-0.507 C 0.41,-0.545 0.324,-0.568 0.255,-0.576 l -0.172,0.003 -0.109,0.031 -0.069,0.006 -0.037,-0.047 -0.036,0.019 L 0,0 Z"
             style="fill:#ffffff;fill-opacity:1;fill-rule:nonzero;stroke:none"
             id="path15706"
             inkscape:connector-curvature="0" />
        </g>
        <g
           id="g15708"
           transform="translate(42.8762,773.1298)">
          <path
             d="m 0,0 -0.003,-0.076 -0.42,-0.154 0.003,0.075 0.035,0.031 0.017,0.063 0.061,1.672 L -0.757,1.445 -0.805,1.407 -0.831,1.319 -0.88,1.301 -0.859,1.889 -0.809,1.908 -0.789,1.836 -0.743,1.833 0.469,2.279 0.517,2.318 0.543,2.406 0.592,2.424 0.571,1.836 0.522,1.817 0.501,1.889 0.454,1.892 0.004,1.726 -0.057,0.054 0,0 Z"
             style="fill:#ffffff;fill-opacity:1;fill-rule:nonzero;stroke:none"
             id="path15710"
             inkscape:connector-curvature="0" />
        </g>
        <g
           id="g15712"
           transform="translate(43.7674,773.8601)">
          <path
             d="M 0,0 0.14,0.139 0.273,0.101 0.322,-0.089 0.258,-0.313 0.118,-0.446 -0.015,-0.414 -0.065,-0.231 0,0 Z"
             style="fill:#ffffff;fill-opacity:1;fill-rule:nonzero;stroke:none"
             id="path15714"
             inkscape:connector-curvature="0" />
        </g>
        <g
           id="g15716"
           transform="translate(69.2679,824.2534)">
          <path
             d="m 0,0 c -13.79,0 -25.009,-11.219 -25.009,-25.008 0,-13.79 11.219,-25.009 25.009,-25.009 13.79,0 25.008,11.219 25.008,25.009 C 25.008,-11.219 13.79,0 0,0"
             style="fill:#273c6a;fill-opacity:1;fill-rule:nonzero;stroke:none"
             id="path15718"
             inkscape:connector-curvature="0" />
        </g>
        <g
           id="g15720"
           transform="translate(77.4448,807.8402)">
          <path
             d="m 0,0 c 0.149,-0.066 0.275,-0.165 0.379,-0.295 0.45,-0.569 0.32,-1.57 0.256,-1.925 L 7.302,-2.302 C 5.393,2.989 -3.365,4.416 -3.454,4.431 c -1.221,0.211 -2.505,0.318 -3.818,0.318 -3.951,0 -7.294,-0.967 -8.682,-1.435 0.082,-0.161 0.166,-0.3 0.23,-0.39 l 0.014,-0.02 0.012,-0.019 c 0.361,-0.582 0.606,-1.092 0.772,-1.537 1.798,0.414 3.528,0.624 5.153,0.624 2.782,0 4.78,-0.619 5.966,-1.139 1.095,-0.48 1.709,-0.956 1.887,-1.104 C -1.091,0.112 -0.445,0.2 0,0"
             style="fill:#ffffff;fill-opacity:1;fill-rule:nonzero;stroke:none"
             id="path15722"
             inkscape:connector-curvature="0" />
        </g>
        <g
           id="g15724"
           transform="translate(61.2097,810.3918)">
          <path
             d="m 0,0 c -0.007,0.01 -0.652,0.927 -0.651,1.746 0.301,0.078 0.525,0.349 0.525,0.675 0,0.386 -0.313,0.7 -0.7,0.7 l -0.018,-0.002 0,0.002 c -1.215,0 -0.927,-1.561 -0.927,-1.561 0.066,-0.398 0.311,-1.118 0.563,-1.635 -0.106,0.02 -0.212,0.032 -0.314,0.032 -0.445,0 -0.788,-0.186 -0.918,-0.498 -0.065,-0.156 -0.069,-0.329 -0.016,-0.505 -0.108,0.076 -0.229,0.145 -0.361,0.2 -0.223,0.092 -0.457,0.142 -0.679,0.142 -0.445,0 -0.789,-0.187 -0.918,-0.498 -0.078,-0.186 -0.069,-0.395 0.02,-0.605 l -0.146,0.069 c -0.222,0.092 -0.457,0.142 -0.679,0.142 -0.444,0 -0.788,-0.187 -0.918,-0.498 -0.045,-0.108 -0.059,-0.223 -0.048,-0.339 -0.194,0.114 -0.411,0.176 -0.623,0.176 -0.3,0 -0.563,-0.123 -0.722,-0.34 -0.306,-0.417 -0.147,-1.055 0.354,-1.424 0.223,-0.163 0.486,-0.253 0.742,-0.253 0.3,0 0.563,0.124 0.723,0.34 0.129,0.178 0.174,0.394 0.146,0.613 0.092,-0.06 0.192,-0.114 0.299,-0.159 0.223,-0.092 0.457,-0.141 0.68,-0.141 0.445,0 0.788,0.186 0.918,0.497 0.079,0.19 0.064,0.402 -0.023,0.607 l 0.148,-0.071 c 0.222,-0.092 0.457,-0.141 0.68,-0.141 0.444,0 0.788,0.186 0.917,0.497 0.067,0.16 0.067,0.335 0.013,0.508 0.111,-0.078 0.233,-0.147 0.364,-0.201 0.222,-0.093 0.458,-0.142 0.681,-0.142 0.237,0 0.444,0.054 0.607,0.152 0.1,-0.261 0.168,-0.545 0.136,-0.786 -0.31,-0.071 -0.542,-0.348 -0.542,-0.68 0,-0.367 0.284,-0.664 0.644,-0.694 l 0,-0.007 10e-4,0 0.153,0.012 0.077,0.015 C 0.459,-3.99 0.78,-3.785 0.919,-3.2 0.947,-3.035 1.284,-2.07 0,0"
             style="fill:#e7b209;fill-opacity:1;fill-rule:nonzero;stroke:none"
             id="path15726"
             inkscape:connector-curvature="0" />
        </g>
        <g
           id="g15728"
           transform="translate(84.7464,795.9554)">
          <path
             d="m 0,0 c -1.909,5.291 -10.666,6.719 -10.756,6.733 -1.221,0.212 -2.504,0.318 -3.818,0.318 -3.951,0 -7.294,-0.966 -8.682,-1.434 0.082,-0.161 0.167,-0.3 0.231,-0.39 l 0.013,-0.02 0.013,-0.02 c 0.361,-0.582 0.605,-1.091 0.771,-1.536 1.799,0.414 3.529,0.624 5.154,0.624 2.781,0 4.779,-0.62 5.966,-1.14 1.094,-0.479 1.709,-0.955 1.886,-1.102 1.107,0.509 1.885,0.496 2.299,-0.026 0.45,-0.569 0.32,-1.569 0.256,-1.924 L 0,0 Z"
             style="fill:#ffffff;fill-opacity:1;fill-rule:nonzero;stroke:none"
             id="path15730"
             inkscape:connector-curvature="0" />
        </g>
        <g
           id="g15732"
           transform="translate(61.2097,800.8102)">
          <path
             d="m 0,0 c -0.007,0.01 -0.652,0.926 -0.651,1.746 0.301,0.077 0.525,0.348 0.525,0.675 0,0.386 -0.313,0.699 -0.7,0.699 l -0.018,-0.002 0,0.002 c -1.215,0 -0.927,-1.56 -0.927,-1.56 0.066,-0.399 0.311,-1.119 0.563,-1.636 -0.106,0.021 -0.212,0.033 -0.314,0.033 -0.445,0 -0.788,-0.186 -0.918,-0.498 -0.065,-0.157 -0.069,-0.329 -0.016,-0.506 -0.108,0.078 -0.229,0.145 -0.361,0.201 -0.223,0.092 -0.457,0.14 -0.679,0.14 -0.445,0 -0.789,-0.185 -0.918,-0.497 -0.078,-0.185 -0.069,-0.395 0.02,-0.604 l -0.146,0.068 c -0.222,0.093 -0.457,0.142 -0.679,0.142 -0.444,0 -0.788,-0.186 -0.918,-0.498 -0.045,-0.108 -0.059,-0.222 -0.048,-0.339 -0.194,0.114 -0.411,0.177 -0.623,0.177 -0.3,0 -0.563,-0.124 -0.722,-0.341 -0.306,-0.416 -0.147,-1.055 0.354,-1.423 0.223,-0.163 0.486,-0.253 0.742,-0.253 0.3,0 0.563,0.123 0.723,0.34 0.129,0.177 0.174,0.394 0.146,0.613 0.092,-0.06 0.192,-0.114 0.299,-0.159 0.223,-0.093 0.457,-0.141 0.68,-0.141 0.445,0 0.788,0.186 0.918,0.497 0.079,0.19 0.064,0.402 -0.023,0.606 l 0.148,-0.07 c 0.222,-0.093 0.457,-0.142 0.68,-0.142 0.444,0 0.788,0.186 0.917,0.499 0.067,0.158 0.067,0.333 0.013,0.506 0.111,-0.078 0.233,-0.146 0.364,-0.201 0.222,-0.093 0.458,-0.142 0.681,-0.142 0.237,0 0.444,0.056 0.607,0.152 0.1,-0.261 0.168,-0.545 0.136,-0.785 -0.31,-0.071 -0.542,-0.349 -0.542,-0.68 0,-0.367 0.284,-0.665 0.644,-0.694 l 0,-0.008 10e-4,0 0.153,0.012 0.077,0.015 c 0.271,0.065 0.592,0.27 0.731,0.855 C 0.947,-3.035 1.284,-2.071 0,0"
             style="fill:#e7b209;fill-opacity:1;fill-rule:nonzero;stroke:none"
             id="path15734"
             inkscape:connector-curvature="0" />
        </g>
        <g
           id="g15736"
           transform="translate(84.7464,786.3735)">
          <path
             d="m 0,0 c -1.909,5.291 -10.666,6.719 -10.756,6.733 -1.221,0.211 -2.504,0.318 -3.818,0.318 -3.951,0 -7.294,-0.966 -8.682,-1.435 0.082,-0.16 0.167,-0.299 0.231,-0.39 l 0.013,-0.019 0.013,-0.02 c 0.361,-0.582 0.605,-1.092 0.771,-1.537 1.799,0.414 3.529,0.625 5.154,0.625 2.781,0 4.779,-0.62 5.966,-1.14 1.094,-0.48 1.709,-0.955 1.886,-1.103 1.107,0.51 1.885,0.496 2.299,-0.025 0.45,-0.569 0.32,-1.569 0.256,-1.925 L 0,0 Z"
             style="fill:#ffffff;fill-opacity:1;fill-rule:nonzero;stroke:none"
             id="path15738"
             inkscape:connector-curvature="0" />
        </g>
        <g
           id="g15740"
           transform="translate(61.2097,791.2277)">
          <path
             d="m 0,0 c -0.007,0.011 -0.652,0.927 -0.651,1.746 0.301,0.078 0.525,0.349 0.525,0.675 0,0.386 -0.313,0.7 -0.7,0.7 l -0.018,-0.002 0,0.002 c -1.215,0 -0.927,-1.561 -0.927,-1.561 0.066,-0.398 0.311,-1.118 0.563,-1.635 -0.106,0.02 -0.212,0.032 -0.314,0.032 -0.445,0 -0.788,-0.186 -0.918,-0.498 -0.065,-0.156 -0.069,-0.329 -0.016,-0.505 -0.108,0.077 -0.229,0.145 -0.361,0.2 -0.223,0.093 -0.457,0.141 -0.679,0.141 -0.445,0 -0.789,-0.186 -0.918,-0.497 -0.078,-0.186 -0.069,-0.395 0.02,-0.605 l -0.146,0.069 c -0.222,0.092 -0.457,0.141 -0.679,0.141 -0.444,0 -0.788,-0.186 -0.918,-0.497 -0.045,-0.108 -0.059,-0.223 -0.048,-0.339 -0.194,0.114 -0.411,0.176 -0.623,0.176 -0.3,0 -0.563,-0.124 -0.722,-0.34 -0.306,-0.417 -0.147,-1.055 0.354,-1.423 0.223,-0.164 0.486,-0.254 0.742,-0.254 0.3,0 0.563,0.124 0.723,0.34 0.129,0.177 0.174,0.394 0.146,0.613 0.092,-0.06 0.192,-0.114 0.299,-0.159 0.223,-0.093 0.457,-0.141 0.68,-0.141 0.445,0 0.788,0.186 0.918,0.497 0.079,0.19 0.064,0.402 -0.023,0.607 l 0.148,-0.071 c 0.222,-0.092 0.457,-0.141 0.68,-0.141 0.444,0 0.788,0.186 0.917,0.498 0.067,0.159 0.067,0.333 0.013,0.507 0.111,-0.079 0.233,-0.147 0.364,-0.201 0.222,-0.093 0.458,-0.142 0.681,-0.142 0.237,0 0.444,0.055 0.607,0.151 0.1,-0.26 0.168,-0.544 0.136,-0.784 -0.31,-0.072 -0.542,-0.349 -0.542,-0.681 0,-0.367 0.284,-0.665 0.644,-0.694 l 0,-0.007 10e-4,0 0.153,0.011 0.077,0.015 C 0.459,-3.99 0.78,-3.785 0.919,-3.2 0.947,-3.035 1.284,-2.071 0,0"
             style="fill:#e7b209;fill-opacity:1;fill-rule:nonzero;stroke:none"
             id="path15742"
             inkscape:connector-curvature="0" />
        </g>
      </g>
    </g>
  </g>
</svg>
