<?xml version="1.0" encoding="UTF-8"?>
<!DOCTYPE svg PUBLIC "-//W3C//DTD SVG 1.1//EN" "http://www.w3.org/Graphics/SVG/1.1/DTD/svg11.dtd">
<!-- Creator: CorelDRAW X7 -->
<svg xmlns="http://www.w3.org/2000/svg" xml:space="preserve" width="6.82064in" height="4.59779in" version="1.1" style="shape-rendering:geometricPrecision; text-rendering:geometricPrecision; image-rendering:optimizeQuality; fill-rule:evenodd; clip-rule:evenodd"
viewBox="0 0 12942 8724"
 xmlns:xlink="http://www.w3.org/1999/xlink">
 <defs>
  <style type="text/css">
   <![CDATA[
    .fil0 {fill:black}
   ]]>
  </style>
 </defs>
 <g id="elements">
  <metadata id="CorelCorpID_0Corel-Layer"/>
  <path class="fil0" d="M11601 8107c-227,344 -625,225 -1008,225 0,-203 30,-267 177,-404 -477,208 -446,-372 -11,-461 58,-441 -70,-749 -255,-1153 -145,-317 -394,-474 -593,-752 -205,-287 -337,-522 -486,-849 -104,94 -216,-135 -245,63 -30,-29 -163,-194 -162,-194 0,136 -480,455 -551,384 -34,119 -92,140 -172,62 -49,140 -179,196 -291,272 -183,126 -413,231 -644,279 -200,42 -378,-22 -570,18 -184,39 -351,171 -517,175 -499,12 -103,632 -478,632 19,92 38,184 57,277 -40,-28 -83,-39 -130,-32 -17,126 -11,392 -170,303 29,97 -14,279 -118,315 72,206 14,283 81,478 -64,-15 -127,-30 -191,-44 120,208 105,414 -105,226 97,337 -436,508 138,508 10,69 -768,284 -855,285 -172,0 -663,-59 -817,4 0,-586 893,-544 804,-1260 -72,-581 391,-1318 -118,-1826 -400,-59 -1037,-537 -1132,-968 -63,-287 -125,-553 -200,-823 -169,0 -219,18 -358,-89 -98,-75 -226,-245 -329,-277 0,-371 -304,-1123 -730,-1076 -394,44 -1622,179 -1622,-508 240,-207 498,-406 727,-622 207,-197 193,-526 345,-789 212,-74 358,-335 599,-392 289,-68 551,-159 831,-26 553,262 1044,748 1621,956 311,112 552,43 811,257 329,28 708,262 1054,325 498,92 922,184 1432,116 624,-82 1253,-270 1883,-297 659,-28 1148,105 1759,356 322,132 457,343 647,623 82,121 182,220 272,333 96,121 -12,226 -9,355 3,129 203,546 54,584 33,273 13,301 127,535 299,620 975,1122 740,1839 -59,182 -69,89 -149,278 -57,-226 -222,-59 -309,-211 -142,256 -91,-203 -178,51 -36,-85 -281,-179 -348,-179 -103,-103 -265,-102 -374,-266 -127,104 67,382 127,469 149,214 115,437 97,683 -28,405 -101,794 -158,1232 -37,56 13,-98 0,0z"/>
 </g>
</svg>
