<?xml version="1.0" encoding="UTF-8" standalone="no"?>
<!-- Created with Inkscape (http://www.inkscape.org/) -->

<svg
   xmlns:dc="http://purl.org/dc/elements/1.1/"
   xmlns:cc="http://creativecommons.org/ns#"
   xmlns:rdf="http://www.w3.org/1999/02/22-rdf-syntax-ns#"
   xmlns:svg="http://www.w3.org/2000/svg"
   xmlns="http://www.w3.org/2000/svg"
   xmlns:sodipodi="http://sodipodi.sourceforge.net/DTD/sodipodi-0.dtd"
   xmlns:inkscape="http://www.inkscape.org/namespaces/inkscape"
   width="28.75411mm"
   height="65.587486mm"
   viewBox="0 0 101.88464 232.3966"
   id="svg2"
   version="1.1"
   inkscape:version="0.91 r13725"
   sodipodi:docname="Fifa Club World Cup.svg">
  <defs
     id="defs4">
    <clipPath
       id="clipPath4802"
       clipPathUnits="userSpaceOnUse">
      <path
         inkscape:connector-curvature="0"
         id="path4804"
         d="m 374.701,552.646 -56.066,0 0,3.229 -6.711,7.514 0,-4.732 5.368,-6.011 -4.348,0 -1.02,1.142 0,-1.142 -49.223,0 0,76.502 112,-10e-4 0,-76.501 m -62.777,20.343 0,-4.733 6.711,-7.511 0,4.731 -6.711,7.513 m 62.777,62.869 -112,0.001 0,44.787 112,0 0,-44.788" />
    </clipPath>
    <clipPath
       id="clipPath4814"
       clipPathUnits="userSpaceOnUse">
      <path
         inkscape:connector-curvature="0"
         id="path4816"
         d="m 374.701,629.147 -112,10e-4 0,6.711 112,-0.001 0,-6.711" />
    </clipPath>
    <clipPath
       id="clipPath4826"
       clipPathUnits="userSpaceOnUse">
      <path
         inkscape:connector-curvature="0"
         id="path4828"
         d="m 312.944,552.646 -1.02,0 0,1.142 1.02,-1.142" />
    </clipPath>
    <clipPath
       id="clipPath4838"
       clipPathUnits="userSpaceOnUse">
      <path
         inkscape:connector-curvature="0"
         id="path4840"
         d="m 318.635,560.745 -6.711,7.511 0,4.733 6.711,-7.513 0,-4.731" />
    </clipPath>
    <clipPath
       id="clipPath4850"
       clipPathUnits="userSpaceOnUse">
      <path
         inkscape:connector-curvature="0"
         id="path4852"
         d="m 318.635,552.646 -1.343,0 -5.368,6.011 0,4.732 6.711,-7.514 0,-3.229" />
    </clipPath>
    <clipPath
       id="clipPath4914"
       clipPathUnits="userSpaceOnUse">
      <path
         inkscape:connector-curvature="0"
         id="path4916"
         d="m 189.701,552.646 -112,0 0,128 112,0 0,-44.787 -18.582,0 -28.912,-6.711 47.494,0 0,-76.502" />
    </clipPath>
    <clipPath
       id="clipPath4926"
       clipPathUnits="userSpaceOnUse">
      <path
         inkscape:connector-curvature="0"
         id="path4928"
         d="m 189.701,629.148 -47.494,0 28.912,6.711 18.582,0 0,-6.711" />
    </clipPath>
    <clipPath
       id="clipPath4970"
       clipPathUnits="userSpaceOnUse">
      <path
         inkscape:connector-curvature="0"
         id="path4972"
         d="m 374.701,191.645 -112,0 0,128 49.098,0 0,-0.935 6.711,-7.513 0,4.732 -3.319,3.716 59.51,0 0,-80.786 -53.765,0 -23.729,-6.711 77.494,0 0,-40.503 m -62.902,122.196 -0.002,-4.732 6.711,-7.514 0.002,4.733 -6.711,7.513" />
    </clipPath>
    <clipPath
       id="clipPath4982"
       clipPathUnits="userSpaceOnUse">
      <path
         inkscape:connector-curvature="0"
         id="path4984"
         d="m 374.701,232.148 -77.494,0 23.729,6.711 53.765,0 0,-6.711" />
    </clipPath>
    <clipPath
       id="clipPath4994"
       clipPathUnits="userSpaceOnUse">
      <path
         inkscape:connector-curvature="0"
         id="path4996"
         d="m 318.508,301.595 -6.711,7.514 0.002,4.732 6.711,-7.513 -0.002,-4.733" />
    </clipPath>
    <clipPath
       id="clipPath5006"
       clipPathUnits="userSpaceOnUse">
      <path
         inkscape:connector-curvature="0"
         id="path5008"
         d="m 318.51,311.197 -6.711,7.513 0,0.935 3.392,0 3.319,-3.716 0,-4.732" />
    </clipPath>
    <clipPath
       id="clipPath5050"
       clipPathUnits="userSpaceOnUse">
      <path
         inkscape:connector-curvature="0"
         id="path5052"
         d="m 783.701,552.645 -58.195,0 0,0.151 -6.711,7.514 0,-4.732 2.619,-2.933 -50.713,0 0,76.501 113,0 0,-76.501 m -64.906,17.265 0,-4.733 6.711,-7.511 0,4.731 -6.711,7.513 m 64.906,65.947 -113,0 0,44.788 113,0 0,-44.788" />
    </clipPath>
    <clipPath
       id="clipPath5062"
       clipPathUnits="userSpaceOnUse">
      <path
         inkscape:connector-curvature="0"
         id="path5064"
         d="m 783.701,629.146 -113,0 0,6.711 113,0 0,-6.711" />
    </clipPath>
    <clipPath
       id="clipPath5074"
       clipPathUnits="userSpaceOnUse">
      <path
         inkscape:connector-curvature="0"
         id="path5076"
         d="m 725.506,557.666 -6.711,7.511 0,4.733 6.711,-7.513 0,-4.731" />
    </clipPath>
    <clipPath
       id="clipPath5086"
       clipPathUnits="userSpaceOnUse">
      <path
         inkscape:connector-curvature="0"
         id="path5088"
         d="m 725.506,552.645 -4.092,0 -2.619,2.933 0,4.732 6.711,-7.514 0,-0.151" />
    </clipPath>
    <clipPath
       id="clipPath5130"
       clipPathUnits="userSpaceOnUse">
      <path
         inkscape:connector-curvature="0"
         id="path5132"
         d="m 1056.7,358.646 -54.94,0 0,75.732 -6.712,7.05 -0.002,-82.782 -51.345,0 0,128 51.343,0 0,-29.287 6.706,-6.222 0,35.509 54.95,0 0,-128 m -4.32,89.778 0,-39.601 2.81,2.808 0,33.984 -2.81,2.809" />
    </clipPath>
    <clipPath
       id="clipPath5142"
       clipPathUnits="userSpaceOnUse">
      <path
         inkscape:connector-curvature="0"
         id="path5144"
         d="m 1052.38,408.823 0,39.601 2.81,-2.809 0,-33.984 -2.81,-2.808" />
    </clipPath>
    <clipPath
       id="clipPath5154"
       clipPathUnits="userSpaceOnUse">
      <path
         inkscape:connector-curvature="0"
         id="path5156"
         d="m 1001.75,451.137 -6.706,6.222 0,29.287 6.706,0 0,-35.509" />
    </clipPath>
    <clipPath
       id="clipPath5166"
       clipPathUnits="userSpaceOnUse">
      <path
         inkscape:connector-curvature="0"
         id="path5168"
         d="m 1001.76,358.646 -6.714,0 0.002,82.782 6.712,-7.05 0,-75.732" />
    </clipPath>
    <clipPath
       id="clipPath5210"
       clipPathUnits="userSpaceOnUse">
      <path
         inkscape:connector-curvature="0"
         id="path5212"
         d="m 537.802,191.214 -113,0 0,40.934 113,-0.001 0,-40.933 m 0,47.644 -113,0.001 0,81.354 113,0 0,-47.66 -6.896,-6.16 4.732,0 2.164,1.933 0,-29.468 m -8.982,34.246 -7.514,-6.711 4.732,0 7.514,6.711 -4.732,0 m -9.601,0 -7.513,-6.711 4.731,0 7.513,6.711 -4.731,0 m -9.601,0 -7.514,-6.711 4.732,0 7.514,6.711 -4.732,0 m -9.6,0 -7.514,-6.711 4.732,0 7.514,6.711 -4.732,0 m -9.602,0.002 -7.512,-6.711 4.731,0 7.512,6.709 -4.731,0.002 m -9.601,0 -7.512,-6.711 4.731,0 7.514,6.711 -4.733,0 m -9.6,0 -7.513,-6.711 4.732,0 7.514,6.711 -4.733,0 m -9.601,0 -7.513,-6.711 4.733,0 7.512,6.711 -4.732,0" />
    </clipPath>
    <clipPath
       id="clipPath5222"
       clipPathUnits="userSpaceOnUse">
      <path
         inkscape:connector-curvature="0"
         id="path5224"
         d="m 537.802,232.147 -113,0.001 0,6.711 113,-0.001 0,-6.711" />
    </clipPath>
    <clipPath
       id="clipPath5234"
       clipPathUnits="userSpaceOnUse">
      <path
         inkscape:connector-curvature="0"
         id="path5236"
         d="m 487.635,266.395 -4.731,0 7.512,6.711 4.731,-0.002 -7.512,-6.709" />
    </clipPath>
    <clipPath
       id="clipPath5246"
       clipPathUnits="userSpaceOnUse">
      <path
         inkscape:connector-curvature="0"
         id="path5248"
         d="m 478.034,266.395 -4.731,0 7.512,6.711 4.733,0 -7.514,-6.711" />
    </clipPath>
    <clipPath
       id="clipPath5258"
       clipPathUnits="userSpaceOnUse">
      <path
         inkscape:connector-curvature="0"
         id="path5260"
         d="m 497.236,266.393 -4.732,0 7.514,6.711 4.732,0 -7.514,-6.711" />
    </clipPath>
    <clipPath
       id="clipPath5270"
       clipPathUnits="userSpaceOnUse">
      <path
         inkscape:connector-curvature="0"
         id="path5272"
         d="m 458.834,266.395 -4.733,0 7.513,6.711 4.732,0 -7.512,-6.711" />
    </clipPath>
    <clipPath
       id="clipPath5282"
       clipPathUnits="userSpaceOnUse">
      <path
         inkscape:connector-curvature="0"
         id="path5284"
         d="m 506.836,266.393 -4.732,0 7.514,6.711 4.732,0 -7.514,-6.711" />
    </clipPath>
    <clipPath
       id="clipPath5294"
       clipPathUnits="userSpaceOnUse">
      <path
         inkscape:connector-curvature="0"
         id="path5296"
         d="m 468.434,266.395 -4.732,0 7.513,6.711 4.733,0 -7.514,-6.711" />
    </clipPath>
    <clipPath
       id="clipPath5306"
       clipPathUnits="userSpaceOnUse">
      <path
         inkscape:connector-curvature="0"
         id="path5308"
         d="m 516.437,266.393 -4.731,0 7.513,6.711 4.731,0 -7.513,-6.711" />
    </clipPath>
    <clipPath
       id="clipPath5318"
       clipPathUnits="userSpaceOnUse">
      <path
         inkscape:connector-curvature="0"
         id="path5320"
         d="m 526.038,266.393 -4.732,0 7.514,6.711 4.732,0 -7.514,-6.711" />
    </clipPath>
    <clipPath
       id="clipPath5330"
       clipPathUnits="userSpaceOnUse">
      <path
         inkscape:connector-curvature="0"
         id="path5332"
         d="m 535.638,266.393 -4.732,0 6.896,6.16 0,-4.227 -2.164,-1.933" />
    </clipPath>
    <clipPath
       id="clipPath5374"
       clipPathUnits="userSpaceOnUse">
      <path
         inkscape:connector-curvature="0"
         id="path5376"
         d="m 1169.7,533.645 -1.26,0 0,57 1.26,0 0,-57" />
    </clipPath>
    <clipPath
       id="clipPath5386"
       clipPathUnits="userSpaceOnUse">
      <path
         inkscape:connector-curvature="0"
         id="path5388"
         d="m 1168.44,533.645 -111.74,0 0,57 111.74,0 0,-57" />
    </clipPath>
    <clipPath
       id="clipPath5410"
       clipPathUnits="userSpaceOnUse">
      <path
         inkscape:connector-curvature="0"
         id="path5412"
         d="m 663.701,358.646 -41.945,0 2.173,2.172 -39.598,0 2.171,-2.172 -34.801,0 0,64.232 4.493,0 7.515,6.711 -4.732,0 -7.276,-6.498 0,4.35 2.405,2.148 -2.405,0 0,57.057 112,0 0,-128 m -85.523,70.943 -7.514,-6.711 4.733,-0.002 7.513,6.712 -4.732,10e-4 m -9.602,0 -7.513,-6.711 4.732,0 7.514,6.711 -4.733,0" />
    </clipPath>
    <clipPath
       id="clipPath5422"
       clipPathUnits="userSpaceOnUse">
      <path
         inkscape:connector-curvature="0"
         id="path5424"
         d="m 551.701,427.441 0,2.148 2.405,0 -2.405,-2.148" />
    </clipPath>
    <clipPath
       id="clipPath5434"
       clipPathUnits="userSpaceOnUse">
      <path
         inkscape:connector-curvature="0"
         id="path5436"
         d="m 575.397,422.876 -4.733,0.002 7.514,6.711 4.732,-10e-4 -7.513,-6.712" />
    </clipPath>
    <clipPath
       id="clipPath5446"
       clipPathUnits="userSpaceOnUse">
      <path
         inkscape:connector-curvature="0"
         id="path5448"
         d="m 556.194,422.878 -4.493,0 0,0.213 7.276,6.498 4.732,0 -7.515,-6.711" />
    </clipPath>
    <clipPath
       id="clipPath5458"
       clipPathUnits="userSpaceOnUse">
      <path
         inkscape:connector-curvature="0"
         id="path5460"
         d="m 565.795,422.878 -4.732,0 7.513,6.711 4.733,0 -7.514,-6.711" />
    </clipPath>
    <clipPath
       id="clipPath5470"
       clipPathUnits="userSpaceOnUse">
      <path
         inkscape:connector-curvature="0"
         id="path5472"
         d="m 621.756,358.646 -35.254,0 -2.171,2.172 39.598,0 -2.173,-2.172" />
    </clipPath>
    <clipPath
       id="clipPath5514"
       clipPathUnits="userSpaceOnUse">
      <path
         inkscape:connector-curvature="0"
         id="path5516"
         d="m 663.701,282.645 -112,0 0,57 112,0 0,-57" />
    </clipPath>
    <clipPath
       id="clipPath5546"
       clipPathUnits="userSpaceOnUse">
      <path
         inkscape:connector-curvature="0"
         id="path5548"
         d="m 915.701,358.646 -41.338,0 2.171,2.171 -39.599,0 2.171,-2.171 -36.405,0 0,64.226 0.691,0 7.513,6.712 -4.732,0 -3.472,-3.101 0,60.163 113,0 0,-128 m -99.927,70.938 -7.513,-6.712 4.732,-0.001 7.514,6.711 -4.733,0.002" />
    </clipPath>
    <clipPath
       id="clipPath5558"
       clipPathUnits="userSpaceOnUse">
      <path
         inkscape:connector-curvature="0"
         id="path5560"
         d="m 812.993,422.871 -4.732,0.001 7.513,6.712 4.733,-0.002 -7.514,-6.711" />
    </clipPath>
    <clipPath
       id="clipPath5570"
       clipPathUnits="userSpaceOnUse">
      <path
         inkscape:connector-curvature="0"
         id="path5572"
         d="m 803.392,422.872 -0.691,0 0,3.611 3.472,3.101 4.732,0 -7.513,-6.712" />
    </clipPath>
    <clipPath
       id="clipPath5582"
       clipPathUnits="userSpaceOnUse">
      <path
         inkscape:connector-curvature="0"
         id="path5584"
         d="m 874.363,358.646 -35.257,0 -2.171,2.171 39.599,0 -2.171,-2.171" />
    </clipPath>
    <clipPath
       id="clipPath5626"
       clipPathUnits="userSpaceOnUse">
      <path
         inkscape:connector-curvature="0"
         id="path5628"
         d="m 914.701,282.645 -112,0 0,57 112,0 0,-57" />
    </clipPath>
    <linearGradient
       id="linearGradient5772"
       spreadMethod="pad"
       gradientTransform="matrix(-1e-6,-23.823,-23.823,1e-6,133.511,311.931)"
       gradientUnits="userSpaceOnUse"
       y2="0"
       x2="1"
       y1="0"
       x1="0">
      <stop
         id="stop5774"
         offset="0"
         style="stop-opacity:1;stop-color:#dcddde" />
      <stop
         id="stop5776"
         offset="1"
         style="stop-opacity:1;stop-color:#bcbec0" />
    </linearGradient>
  </defs>
  <sodipodi:namedview
     id="base"
     pagecolor="#ffffff"
     bordercolor="#666666"
     borderopacity="1.0"
     inkscape:pageopacity="0.0"
     inkscape:pageshadow="2"
     inkscape:zoom="0.35"
     inkscape:cx="-758.75453"
     inkscape:cy="135.5833"
     inkscape:document-units="px"
     inkscape:current-layer="layer1"
     showgrid="false"
     fit-margin-top="1"
     fit-margin-left="0.4"
     fit-margin-right="0.4"
     fit-margin-bottom="1"
     inkscape:window-width="1366"
     inkscape:window-height="705"
     inkscape:window-x="-8"
     inkscape:window-y="-8"
     inkscape:window-maximized="1" />
  <metadata
     id="metadata7">
    <rdf:RDF>
      <cc:Work
         rdf:about="">
        <dc:format>image/svg+xml</dc:format>
        <dc:type
           rdf:resource="http://purl.org/dc/dcmitype/StillImage" />
        <dc:title></dc:title>
      </cc:Work>
    </rdf:RDF>
  </metadata>
  <g
     inkscape:label="Layer 1"
     inkscape:groupmode="layer"
     id="layer1"
     transform="translate(-706.61168,-435.54889)">
    <g
       id="g3378"
       transform="matrix(1.25,0,0,-1.25,735.554,498.03845)">
      <path
         d="m 0,0 c 4.41,-11.722 7.41,-24.102 8.73,-36.097 0.49,-4.469 0.73,-9.39 0.73,-15.046 0,-14.605 -2.57,-29.928 -7.45,-44.471 1.49,0.158 3.1,0.287 4.81,0.389 2.08,16.06 3.2,37.297 3.25,61.54 0,0.177 -0.1,6.594 -0.22,10.713 0,0 -0.34,12.116 -0.34,18.397 l 0,1.048 C 9.15,-3.469 8.8,-3.407 8.47,-3.345 5.56,-2.853 5.18,-2.661 4.95,-2.546 4.61,-2.376 4.29,-2.113 4.01,-1.782 2.62,-1.304 1.28,-0.71 0,0 Z m 15.67,-133.091 c -10.83,0 -36.02,0.844 -36.02,8.673 0,0.534 0.12,1.081 0.35,1.577 9.86,23.001 9.86,23.018 9.87,23.034 0.48,1.068 1.46,1.71 2.33,2.12 5.89,15.652 8.74,30.882 8.74,46.544 0,26.01 -7.32,50.878 -21.19,71.95 l -0.44,0.153 -0.76,0.765 -0.57,1.412 0,0.29 c 0,0.936 0.47,1.789 1.3,2.339 l 3.94,2.377 1.56,0.07 c 1.14,0 2.1,-0.59 2.58,-1.54 l 0.05,-0.107 0.07,-0.226 c 2.03,11.81 12.23,20.817 24.48,20.817 9.43,0 18.1,-5.486 22.27,-14.03 l 2.52,-1.041 0.23,-0.189 0.97,1.305 2.18,-1.814 c 0.27,-0.169 2.33,-1.337 2.33,-1.337 l 0.52,-0.323 0.18,-0.26 c 0.76,-1.112 1.21,-1.774 1.48,-2.199 l 0.98,-0.449 0.36,-1.091 c 0.1,-0.278 0.14,-0.565 0.14,-0.853 0,-0.196 0,-0.523 -0.55,-2.044 L 45.22,21.9 44.19,21.848 43.83,21.212 C 41.79,17.616 38.37,11.625 33.67,-1.084 28.54,-14.953 26.5,-31.91 26.32,-42.218 c 0.32,-28.461 10.7,-50.56 13.32,-55.701 0.93,-0.518 1.55,-1.147 1.89,-1.913 1.62,-3.796 9.7,-22.653 9.9,-23.229 0.28,-0.79 0.27,-1.316 0.23,-1.564 0.02,-7.622 -25.17,-8.466 -35.99,-8.466"
         style="fill:#ffffff;fill-opacity:1;fill-rule:nonzero;stroke:none"
         id="path3380"
         inkscape:connector-curvature="0" />
    </g>
    <g
       id="g3382"
       transform="matrix(1.25,0,0,-1.25,745.7415,618.85845)">
      <path
         d="m 0,0 c -3.08,-0.158 -5.92,-0.407 -8.34,-0.737 5.32,15.023 8.15,30.961 8.15,46.25 0,5.593 -0.23,10.461 -0.72,14.882 -1.5,13.661 -5.12,27.459 -10.48,40.376 2.35,-2.053 5.12,-3.643 8.19,-4.624 0.18,-0.317 0.44,-0.575 0.68,-0.695 C -2.08,95.228 0.5,94.806 0.61,94.785 1.29,94.652 2.09,94.53 2.87,94.429 2.87,93.646 2.86,92.864 2.86,92.081 2.86,85.646 3.04,79.355 3.2,73.726 3.32,69.557 3.42,63.039 3.42,62.966 3.37,38.019 2.19,16.29 0,0 Z m 41.87,-26.909 c -0.2,0.558 -9.86,23.12 -9.86,23.12 -0.25,0.563 -0.79,1.014 -1.63,1.412 C 27.77,2.628 17,25.062 16.67,54.465 c 0.18,10.399 2.24,27.569 7.44,41.628 4.74,12.797 8.19,18.876 10.26,22.504 0,0 0.44,0.795 0.76,1.366 l 0.88,0.042 c 0,0 0.46,1.27 0.46,1.527 0,0.129 -0.02,0.257 -0.06,0.381 l -0.16,0.47 c 0,0 -0.65,0.298 -0.81,0.373 l -1.67,2.519 -0.21,0.128 c 0,0 -2.4,1.365 -2.53,1.484 l -0.97,0.799 -0.99,-1.337 c -0.5,0.474 -1.25,1.091 -1.25,1.091 l -2.85,1.176 c -3.82,8.345 -12.03,13.696 -21.16,13.696 -12.88,0 -23.35,-10.606 -23.35,-23.638 0,-0.485 0.03,-0.957 0.06,-1.437 -0.82,1.443 -1.67,2.869 -2.54,4.274 0.04,0.131 0.08,0.269 0.08,0.418 0,0.104 -0.2,0.73 -0.2,0.73 -0.22,0.438 -0.66,0.712 -1.16,0.712 l -1.18,-0.057 -3.56,-2.147 c -0.53,-0.347 -0.63,-0.782 -0.63,-1.084 l 0.34,-0.851 0.3,-0.304 c 0.02,-0.008 0.39,-0.136 0.61,-0.217 14.2,-21.401 21.72,-46.698 21.72,-73.198 0,-16.047 -2.97,-31.649 -9.07,-47.671 -1.16,-0.455 -1.85,-0.961 -2.14,-1.61 l -9.88,-23.042 c -0.13,-0.294 -0.21,-0.626 -0.21,-0.952 0,-7.092 33.11,-7.17 34.52,-7.17 1.41,0 34.51,0.078 34.51,7.17 0,0 0.04,0.29 -0.16,0.853"
         style="fill:#58595b;fill-opacity:1;fill-rule:nonzero;stroke:none"
         id="path3384"
         inkscape:connector-curvature="0" />
    </g>
    <g
       id="g3386"
       transform="matrix(1.25,0,0,-1.25,796.7415,652.98095)">
      <path
         d="m 0,0 0.01,0 -0.03,0.053 -0.01,0.029 -9.82,23.047 -0.01,0 c -0.07,0.157 -0.23,0.314 -0.44,0.462 0.07,-0.131 0.09,-0.255 0.09,-0.363 0,-0.149 -0.04,-0.261 -0.08,-0.335 -0.1,-0.178 -0.28,-0.265 -0.5,-0.307 -0.02,-0.302 -0.19,-0.576 -0.49,-0.748 -0.24,-0.137 -1.22,-0.555 -2.92,-1.255 l -0.07,-0.021 c -0.28,-0.108 -0.71,-0.079 -1.94,0.058 l -0.59,0.053 -0.1,-0.198 c -0.22,-0.34 -0.59,-0.368 -0.71,-0.377 l -2.21,-0.236 c -3.89,-0.422 -5.9,-0.555 -6.12,-0.555 0,0 -0.17,0.009 -0.33,0.088 -0.27,0.074 -0.55,0.201 -0.79,0.285 -0.34,0.117 -0.8,0.344 -0.97,0.385 -0.32,0.078 -0.77,0.377 -0.84,0.919 -0.01,0.074 -0.23,2.145 -0.57,5.365 -0.15,0.004 -0.3,0.009 -0.45,0.012 0.32,-3.924 0.55,-6.425 0.55,-6.433 0,-0.203 -0.07,-0.389 -0.21,-0.533 -0.3,-0.307 -0.76,-0.278 -0.91,-0.269 -0.64,0.041 -9.08,0.148 -9.91,0.148 -0.17,-0.008 -0.58,-0.008 -0.77,0.244 -0.2,0.248 -0.18,0.589 -0.18,0.589 0.34,1.979 0.64,4.036 0.93,6.127 -3.77,-0.183 -7.12,-0.502 -9.8,-0.92 -0.14,-0.396 -0.28,-0.795 -0.43,-1.192 2.11,-0.22 5.72,-0.757 5.72,-1.532 0,-0.425 -4.68,-0.667 -6.56,-0.728 l -0.02,0 -0.01,-0.017 -3.68,-0.07 c -0.49,0 -0.78,0.352 -0.8,0.691 l 0.04,0.265 c 0.17,0.431 0.33,0.86 0.49,1.291 -0.64,-0.285 -1.07,-0.583 -1.21,-0.893 l -0.01,0 -9.87,-23.026 c -0.07,-0.166 -0.11,-0.327 -0.11,-0.497 0,-3.324 14.93,-6.019 33.36,-6.019 18.42,0 33.36,2.695 33.36,6.019 C 0.08,-0.261 0.05,-0.129 0,0"
         style="fill:#ce8a14;fill-opacity:1;fill-rule:nonzero;stroke:none"
         id="path3388"
         inkscape:connector-curvature="0" />
    </g>
    <g
       id="g3390"
       transform="matrix(1.25,0,0,-1.25,743.1665,543.5247)">
      <path
         d="m 0,0 c -1.15,10.499 -3.5,20.699 -6.72,30.283 -1.52,4.533 -3.25,8.921 -5.13,13.146 -2.29,2.776 -3.94,6.096 -4.77,9.737 -1.52,2.821 -3.09,5.549 -4.74,8.151 l -0.04,-0.002 c 0.13,0.12 0.29,0.256 0.32,0.269 l 0.04,0.118 -0.07,0.18 -0.13,0.07 -0.83,-0.039 c 0,0 -3.18,-1.911 -3.27,-1.969 -0.09,-0.057 -0.12,-0.099 -0.12,-0.128 l 0.15,-0.21 0.04,-0.034 0.11,-0.046 c 0.04,0 0.29,-0.001 0.48,-0.001 l 0,-0.002 c 13.86,-20.712 22.19,-46.39 22.19,-74.277 0,-18.125 -3.82,-34.792 -10.03,-50.369 0,0 0.02,-0.134 0.21,-0.134 l 0.13,0.005 c 0.62,0.008 3.13,0.058 3.13,0.058 5.86,14.862 9.77,32.315 9.77,50.44 0,4.131 -0.13,8.25 -0.48,12.321 C 0.17,-1.619 0.09,-0.808 0,0"
         style="fill:#808285;fill-opacity:1;fill-rule:nonzero;stroke:none"
         id="path3392"
         inkscape:connector-curvature="0" />
    </g>
    <g
       id="g3394"
       transform="matrix(1.25,0,0,-1.25,739.8665,543.97845)">
      <path
         d="m 0,0 c 0.3,-1.706 1.24,-12.904 1.07,-17.612 0.59,-1.449 0.25,-3.192 -0.26,-4.161 0,-1.532 -0.55,-5.692 -0.76,-8.872 0.59,-0.041 0.63,-0.636 0.38,-2.972 -0.46,-4.226 -2.16,-8.615 -3.35,-9.89 -0.6,-4.115 -2.8,-10.399 -3.4,-12.138 -0.59,-1.739 -2.08,-6.876 -2.33,-7.554 -0.21,-0.564 -0.54,-1.276 -0.89,-1.69 0.62,0.008 3.13,0.058 3.13,0.058 5.86,14.862 9.77,32.315 9.77,50.44 0,4.131 -0.13,8.25 -0.48,12.321 C 1.53,1.156 0.27,0.905 0,0"
         style="fill:#a7a9ac;fill-opacity:1;fill-rule:nonzero;stroke:none"
         id="path3396"
         inkscape:connector-curvature="0" />
    </g>
    <g
       id="g3398"
       transform="matrix(1.25,0,0,-1.25,723.3415,480.3172)">
      <path
         d="M 0,0 C -2.64,5.032 -4.99,8.962 -6.07,10.72 L -8.4,9.225 c 0.75,-1.49 2.14,-3.531 4.1,-6.358 2.15,-3.099 7.4,-13.287 11.12,-24.645 1.38,-2.746 1.99,-1.407 2.24,0.695 C 7.4,-15.738 5.07,-10.293 2.72,-5.409 1.59,-3.751 0.68,-1.931 0,0"
         style="fill:#ffffff;fill-opacity:1;fill-rule:nonzero;stroke:none"
         id="path3400"
         inkscape:connector-curvature="0" />
    </g>
    <g
       id="g3402"
       transform="matrix(1.25,0,0,-1.25,715.579,466.13345)">
      <path
         d="m 0,0 c 0,0 -3.18,-1.911 -3.27,-1.969 -0.09,-0.057 -0.12,-0.099 -0.12,-0.128 l 0.15,-0.21 0.04,-0.034 c 0.81,0.486 3.21,1.905 3.3,1.938 C 0.06,-0.263 0.06,-0.107 0,0"
         style="fill:#ffeba8;fill-opacity:1;fill-rule:nonzero;stroke:none"
         id="path3404"
         inkscape:connector-curvature="0" />
    </g>
    <g
       id="g3406"
       transform="matrix(1.25,0,0,-1.25,750.154,480.00845)">
      <path
         d="m 0,0 c 0.39,-6.691 0.54,-10.549 0.5,-16.365 -0.11,-12.339 0.56,-24.847 0.54,-31.749 -0.05,-24.329 -1.17,-50.668 -4.51,-70.328 -0.02,-0.165 0.28,-0.128 0.39,-0.128 0.73,0 9.24,-0.107 9.91,-0.149 0.3,-0.02 0.5,0.038 0.49,0.224 -1.59,18.364 -3.62,46.552 -2.6,70.381 1.01,23.825 1.79,34.837 5.23,52.187 C 5.97,4.073 2.52,1.959 0,0"
         style="fill:#a7a9ac;fill-opacity:1;fill-rule:nonzero;stroke:none"
         id="path3408"
         inkscape:connector-curvature="0" />
    </g>
    <g
       id="g3410"
       transform="matrix(1.25,0,0,-1.25,753.104,609.65845)">
      <path
         d="m 0,0 c 0.4,3.812 -0.07,32.998 -0.79,32.998 -0.4,0 -0.69,-0.724 -0.97,-2.015 -0.6,-16.489 -1.84,-32.585 -4.07,-45.705 -0.02,-0.165 0.28,-0.128 0.39,-0.128 0.73,0 9.24,-0.107 9.91,-0.149 0.14,-0.008 0.26,0 0.34,0.03 l 0.15,0.194 C 4.01,-4.785 -0.41,-3.817 0,0"
         style="fill:#ffffff;fill-opacity:1;fill-rule:nonzero;stroke:none"
         id="path3412"
         inkscape:connector-curvature="0" />
    </g>
    <g
       id="g3414"
       transform="matrix(1.25,0,0,-1.25,762.9665,470.78345)">
      <path
         d="m 0,0 c -3.52,0 -5.72,-1.312 -7.23,-2.123 -1.44,-0.766 -2.37,-1.219 -3.48,-2.304 0,-0.159 -0.18,-1.397 -0.16,-2.577 0,0 0.27,-0.315 0.36,-0.36 0.06,-0.029 0.16,-0.067 0.26,-0.083 l 0,0.067 c 2.52,1.959 5.97,4.073 9.95,4.073 L -0.31,-3.328 C 0,-3.126 0.06,-2.786 0.06,-2.786 L 0,0"
         style="fill:#ffcf00;fill-opacity:1;fill-rule:nonzero;stroke:none"
         id="path3416"
         inkscape:connector-curvature="0" />
    </g>
    <g
       id="g3418"
       transform="matrix(1.25,0,0,-1.25,749.579,476.3172)">
      <path
         d="M 0,0 C 0,-0.159 -0.18,-1.397 -0.16,-2.577 0.11,-1.261 0.63,-0.023 1.5,1.199 1,0.875 0.51,0.503 0,0"
         style="fill:#808285;fill-opacity:1;fill-rule:nonzero;stroke:none"
         id="path3420"
         inkscape:connector-curvature="0" />
    </g>
    <g
       id="g3422"
       transform="matrix(1.25,0,0,-1.25,762.4665,470.79345)">
      <path
         d="m 0,0 c -0.17,-0.498 -1.11,-0.7 -1.63,-0.914 -0.16,0.066 -0.27,0.533 -0.31,0.716 -0.13,-0.025 -0.25,-0.05 -0.37,-0.075 -0.3,-0.124 -0.67,-0.29 -0.76,-0.377 -0.17,-0.14 0.12,-1.206 0.12,-1.45 0,-0.247 0.14,-0.882 -0.68,-1.183 -2.96,-1.093 -4.95,-2.185 -6.84,-3.63 l 0,-0.083 0.15,-0.166 c 4.38,3.299 8.09,4.165 10.78,4.384 L 0.4,0.008 C 0.26,0.008 0.13,0.004 0,0"
         style="fill:#ffeba8;fill-opacity:1;fill-rule:nonzero;stroke:none"
         id="path3424"
         inkscape:connector-curvature="0" />
    </g>
    <g
       id="g3426"
       transform="matrix(1.25,0,0,-1.25,763.8665,627.86845)">
      <path
         d="m 0,0 c -3.3,21.593 -3.97,45.241 -4.01,57.581 -0.04,10.279 1.07,32.142 3.75,45.728 0.66,3.349 1.66,8.408 4.88,20.211 0,0 -0.39,0.292 -0.89,0.667 l 0,-0.003 C 3.02,122.286 1.66,117.91 0.36,113.456 -2.57,102.887 -2.99,96.27 -3.77,89.288 -4.09,86.856 -4.23,82.465 -3.89,75.915 -4.15,75.711 -4.86,74.977 -5.47,74.022 -5.53,72.765 -5.58,71.482 -5.64,70.147 -5.71,68.299 -5.77,66.39 -5.82,64.44 -5.83,64 -5.84,63.563 -5.85,63.115 -5.89,60.95 -5.91,58.732 -5.91,56.443 c 0,-5.9 0.29,-15.239 0.73,-24.687 0.28,-3.385 0.61,-6.983 0.94,-10.494 l -0.01,0.037 0.01,-0.116 0.01,-0.078 c 0.23,-2.252 2.45,-19.138 2.57,-20 0.1,-0.649 0.21,-0.72 1.06,-1.121 L -0.61,-0.029 C -0.21,-0.173 0.16,-0.307 0.24,-0.291 0.08,-0.245 0.02,-0.145 0,0"
         style="fill:#808285;fill-opacity:1;fill-rule:nonzero;stroke:none"
         id="path3428"
         inkscape:connector-curvature="0" />
    </g>
    <g
       id="g3430"
       transform="matrix(1.25,0,0,-1.25,781.1915,468.35595)">
      <path
         d="M 0,0 C -0.12,0.092 -0.27,0.194 -0.43,0.277 -0.84,0.496 -2.13,1.416 -2.48,1.606 -2.89,1.615 -3.29,1.59 -3.7,1.545 -6.3,1.254 -9.2,-0.05 -12.26,-1.78 c 0.14,-0.162 3.02,-2.31 3.02,-2.31 2.95,1.656 6.88,3.039 8.71,3.171 0.34,0.033 0.48,0.116 0.64,0.116 0.14,0.274 0.22,0.543 0.22,0.543 0,0 -0.13,0.119 -0.33,0.26"
         style="fill:#ffffff;fill-opacity:1;fill-rule:nonzero;stroke:none"
         id="path3432"
         inkscape:connector-curvature="0" />
    </g>
    <g
       id="g3434"
       transform="matrix(1.25,0,0,-1.25,780.654,468.0097)">
      <path
         d="M 0,0 C -0.41,0.219 -1.7,1.139 -2.05,1.329 -2.46,1.338 -2.86,1.313 -3.27,1.268 -1.98,0.88 -0.22,-0.174 0.43,-0.277 0.31,-0.185 0.16,-0.083 0,0"
         style="fill:#ffcf00;fill-opacity:1;fill-rule:nonzero;stroke:none"
         id="path3436"
         inkscape:connector-curvature="0" />
    </g>
    <g
       id="g3438"
       transform="matrix(1.25,0,0,-1.25,769.6415,473.46845)">
      <path
         d="M 0,0 C 2.95,1.656 6.88,3.039 8.71,3.171 9.05,3.204 9.19,3.287 9.35,3.287 9.49,3.561 9.57,3.83 9.57,3.83 6.94,3.419 1.37,1.501 0,0"
         style="fill:#ce8a14;fill-opacity:1;fill-rule:nonzero;stroke:none"
         id="path3440"
         inkscape:connector-curvature="0" />
    </g>
    <g
       id="g3442"
       transform="matrix(1.25,0,0,-1.25,763.8665,627.86845)">
      <path
         d="m 0,0 c 0.03,-0.195 0.12,-0.319 0.47,-0.319 0.35,0 7.95,0.849 8.17,0.861 C 8.91,0.563 9,0.646 8.86,1.031 6.47,8.404 2.83,21.353 0.54,35.234 c -0.99,5.945 -1.79,17.081 -1.71,22.119 0.25,17.234 1.12,33.106 5.26,45.601 4.14,12.487 5.34,15.945 9.24,23.737 C 11.5,126.559 7.57,125.176 4.62,123.52 1.4,111.717 0.4,106.658 -0.26,103.309 -2.94,89.723 -4.05,67.86 -4.01,57.581 -3.97,45.241 -3.3,21.593 0,0"
         style="fill:#a7a9ac;fill-opacity:1;fill-rule:nonzero;stroke:none"
         id="path3444"
         inkscape:connector-curvature="0" />
    </g>
    <g
       id="g3446"
       transform="matrix(1.25,0,0,-1.25,764.5415,583.82595)">
      <path
         d="m 0,0 c -0.99,5.945 -1.79,17.081 -1.71,22.119 0.15,9.983 0.51,19.505 1.58,28.182 l 0,-0.01 c -0.55,0.873 -1.21,0.898 -1.73,-0.05 0.23,8.423 4.99,28.886 7.04,37.754 0.08,0.357 0.13,0.667 0.15,0.945 C 4.9,88.727 4.48,88.509 4.08,88.286 0.86,76.483 -0.14,71.424 -0.8,68.075 -3.48,54.489 -4.59,32.626 -4.55,22.347 c 0.04,-12.34 0.71,-35.988 4.01,-57.581 0.03,-0.195 0.12,-0.319 0.47,-0.319 0.35,0 7.95,0.849 8.17,0.861 0.27,0.021 0.36,0.104 0.22,0.489 C 5.93,-26.83 2.29,-13.881 0,0"
         style="fill:#ffffff;fill-opacity:1;fill-rule:nonzero;stroke:none"
         id="path3448"
         inkscape:connector-curvature="0" />
    </g>
    <g
       id="g3450"
       transform="matrix(1.25,0,0,-1.25,764.3165,486.04845)">
      <path
         d="m 0,0 c -0.35,-0.392 -1.2,-2.726 -2.17,-5.307 -0.19,-0.989 -0.39,-2.024 -0.6,-3.13 -1.28,-6.901 -2.37,-15.214 -3.01,-28.835 0.44,3.44 1.24,9.957 1.65,13.104 0.78,6.982 1.2,13.599 4.13,24.168"
         style="fill:#a7a9ac;fill-opacity:1;fill-rule:nonzero;stroke:none"
         id="path3452"
         inkscape:connector-curvature="0" />
    </g>
    <g
       id="g3454"
       transform="matrix(1.25,0,0,-1.25,789.8915,466.9222)">
      <path
         d="M 0,0 C -0.76,0.376 -3.09,1.379 -3.44,1.539 -4.49,1.808 -6.42,1.076 -7.34,0.728 -7.47,0.703 -7.66,0.57 -7.66,0.57 l 0.02,-0.409 0.72,-0.358 c 0.61,-0.205 2.1,-0.952 2.68,-1.231 0.01,-0.009 0.17,0.111 0.4,0.198 0.6,0.228 1.78,0.615 2.96,0.758 0.5,0.01 0.74,0.037 0.74,0.037 L 0,0"
         style="fill:#ffeba8;fill-opacity:1;fill-rule:nonzero;stroke:none"
         id="path3456"
         inkscape:connector-curvature="0" />
    </g>
    <g
       id="g3458"
       transform="matrix(1.25,0,0,-1.25,781.2415,467.16845)">
      <path
         d="m 0,0 c 0.61,-0.205 2.1,-0.952 2.68,-1.231 0.01,-0.009 0.17,0.111 0.4,0.198 0.6,0.228 1.78,0.615 2.96,0.758 0.5,0.01 0.74,0.037 0.74,0.037 L 6.92,0.197 C 5.43,0.445 3.07,-0.7 2.94,-0.815 2.8,-0.931 2.69,-0.95 2.61,-0.836 2.53,-0.72 -0.05,0.495 -0.74,0.767 L -0.72,0.358 0,0"
         style="fill:#ce8a14;fill-opacity:1;fill-rule:nonzero;stroke:none"
         id="path3460"
         inkscape:connector-curvature="0" />
    </g>
    <g
       id="g3462"
       transform="matrix(1.25,0,0,-1.25,778.3415,626.3322)">
      <path
         d="M 0,0 C -8.46,21.37 -11.3,41.705 -11.51,57.727 -11.92,90.109 4.98,126.093 5,126.1 c -0.3,0.145 -0.84,0.414 -1.38,0.667 0.35,-0.373 0.82,-0.907 0.82,-0.907 0,0 -0.46,-0.994 -0.69,-1.46 -0.23,-0.453 -11.4,-22.711 -14.52,-41.81 -0.88,-7.861 -1.24,-16.636 -1.38,-26.475 0,-0.206 -0.01,-0.429 -0.01,-0.662 0,-5.129 0.75,-15.544 1.71,-21.352 C -7.88,18.56 -3.79,5.059 -2.16,0.017 l 0.03,-0.112 C -1.18,-0.189 0.09,-0.372 0.26,-0.265 0.14,-0.252 0.03,-0.119 0,0"
         style="fill:#a7a9ac;fill-opacity:1;fill-rule:nonzero;stroke:none"
         id="path3464"
         inkscape:connector-curvature="0" />
    </g>
    <g
       id="g3466"
       transform="matrix(1.25,0,0,-1.25,784.9165,468.1872)">
      <path
         d="M 0,0 0.11,0.064 C -0.65,0.495 -2.36,1.326 -3.34,1.747 L -3.36,1.74 C -3.49,1.715 -3.68,1.582 -3.68,1.582 -2.99,1.31 -0.41,0.095 -0.33,-0.021 -0.25,-0.135 -0.14,-0.116 0,0"
         style="fill:#ffffff;fill-opacity:1;fill-rule:nonzero;stroke:none"
         id="path3468"
         inkscape:connector-curvature="0" />
    </g>
    <g
       id="g3470"
       transform="matrix(1.25,0,0,-1.25,775.0915,607.2522)">
      <path
         d="m 0,0 c -4.01,10.66 -7.71,24.524 -7.97,42.443 -0.15,10.46 1.81,29.319 7.52,44.767 5.72,15.449 9.62,21.229 11.41,24.582 C 9.78,111.649 8.6,111.262 8,111.034 7.77,110.947 7.61,110.827 7.6,110.836 7.58,110.827 -9.32,74.844 -8.91,42.463 -8.86,38.699 -8.66,34.688 -8.28,30.49 l 0,0.004 c -0.31,1.135 -0.55,1.73 -0.64,1.367 -0.17,-0.618 -0.03,-2.907 0.15,-5.481 0.26,-2.8 0.58,-5.465 0.92,-7.543 0.87,-5.267 1.92,-10.285 2.98,-14.834 -0.15,1.901 -0.48,5.337 -0.71,8.16 l 0,0.016 c 1.8,-8.759 4.44,-18 8.18,-27.443 0.03,-0.115 0.13,-0.244 0.25,-0.261 l 0.05,0.013 c 0.45,0.186 2.52,1.039 2.84,1.218 0.2,0.12 0.25,0.277 0.18,0.43 C 4.17,-9.931 2.03,-5.407 0,0"
         style="fill:#808285;fill-opacity:1;fill-rule:nonzero;stroke:none"
         id="path3472"
         inkscape:connector-curvature="0" />
    </g>
    <g
       id="g3474"
       transform="matrix(1.25,0,0,-1.25,765.1415,550.7897)">
      <path
         d="m 0,0 c -0.02,-0.957 -0.02,-1.875 -0.01,-2.727 0.26,-17.919 3.96,-31.783 7.97,-42.443 1.98,-5.257 4.05,-9.679 5.77,-13.529 0.22,0.004 0.49,0.029 0.57,0.029 0.1,0 0.25,0 0.13,0.195 C 14.32,-58.297 0.38,-33.691 0,0"
         style="fill:#a7a9ac;fill-opacity:1;fill-rule:nonzero;stroke:none"
         id="path3476"
         inkscape:connector-curvature="0" />
    </g>
    <g
       id="g3478"
       transform="matrix(1.25,0,0,-1.25,785.7665,464.2672)">
      <path
         d="m 0,0 0.06,-0.017 0.78,-0.34 c 0.4,-0.175 0.89,-0.393 1.36,-0.6 L 2.18,-0.94 c -0.34,0.211 -1.22,0.828 -2.3,1.366 -0.36,0.226 -1.46,1.116 -1.55,1.219 -0.09,0.105 -0.19,0.472 -0.1,0.726 0,0 -0.12,-0.148 -0.17,-0.239 C -1.88,1.438 -1.28,0.769 -0.6,0.07 -0.39,0.066 -0.18,0.047 0,0"
         style="fill:#ffcf00;fill-opacity:1;fill-rule:nonzero;stroke:none"
         id="path3480"
         inkscape:connector-curvature="0" />
    </g>
    <g
       id="g3482"
       transform="matrix(1.25,0,0,-1.25,785.0165,464.1797)">
      <path
         d="M 0,0 C -0.53,0.543 -1.01,1.068 -1.22,1.598 L -1.26,1.549 C -1.39,1.366 -1.88,0.488 -2.39,-0.453 -1.53,-0.172 -0.7,0.016 0,0"
         style="fill:#a7a9ac;fill-opacity:1;fill-rule:nonzero;stroke:none"
         id="path3484"
         inkscape:connector-curvature="0" />
    </g>
    <g
       id="g3486"
       transform="matrix(1.25,0,0,-1.25,785.7665,464.2672)">
      <path
         d="M 0,0 0.06,-0.017 0.82,-0.352 C 0.36,-0.054 -0.07,0.206 -0.19,0.273 -0.23,0.244 -0.3,0.157 -0.37,0.059 -0.24,0.047 -0.11,0.031 0,0"
         style="fill:#ce8a14;fill-opacity:1;fill-rule:evenodd;stroke:none"
         id="path3488"
         inkscape:connector-curvature="0" />
    </g>
    <g
       id="g3490"
       transform="matrix(1.25,0,0,-1.25,783.204,464.4097)">
      <path
         d="M 0,0 C 0.52,0.126 1.01,0.196 1.45,0.184 0.92,0.727 0.44,1.252 0.23,1.782 L 0.19,1.733 C 0.09,1.608 -0.16,1.156 -0.47,0.586 -0.25,0.449 -0.02,0.271 0.05,0.203 L 0,0"
         style="fill:#808285;fill-opacity:1;fill-rule:nonzero;stroke:none"
         id="path3492"
         inkscape:connector-curvature="0" />
    </g>
    <g
       id="g3494"
       transform="matrix(1.25,0,0,-1.25,780.3665,467.84095)">
      <path
         d="M 0,0 0.23,-0.135 0.29,-0.168 C 0.46,0.13 0.61,0.375 0.7,0.538 0.7,0.538 0.54,0.604 0.37,0.681 0.2,0.367 0.07,0.126 0,0"
         style="fill:#a7a9ac;fill-opacity:1;fill-rule:nonzero;stroke:none"
         id="path3496"
         inkscape:connector-curvature="0" />
    </g>
    <g
       id="g3498"
       transform="matrix(1.25,0,0,-1.25,783.679,462.21095)">
      <path
         d="m 0,0 c 0.09,-0.103 1.19,-0.993 1.55,-1.219 1.08,-0.538 1.96,-1.155 2.3,-1.366 L 3.96,-2.681 C 3.34,-1.911 2.62,-0.902 2.62,-0.902 1.19,-0.043 0.29,0.36 -0.1,0.726 -0.19,0.472 -0.09,0.105 0,0"
         style="fill:#a7a9ac;fill-opacity:1;fill-rule:nonzero;stroke:none"
         id="path3500"
         inkscape:connector-curvature="0" />
    </g>
    <g
       id="g3502"
       transform="matrix(1.25,0,0,-1.25,778.5415,463.7247)">
      <path
         d="M 0,0 C 0.29,0.625 0.57,1.196 0.84,1.652 L 0.69,1.768 C 0.64,1.813 -0.02,2.061 -0.67,2.306 -0.41,1.553 -0.19,0.787 0,0"
         style="fill:#ffffff;fill-opacity:1;fill-rule:nonzero;stroke:none"
         id="path3504"
         inkscape:connector-curvature="0" />
    </g>
    <g
       id="g3506"
       transform="matrix(1.25,0,0,-1.25,778.0665,461.84845)">
      <path
         d="M 0,0 C 0.09,0 0.15,0.043 0.19,0.106 0.24,0.18 0.21,0.325 0.08,0.4 0.04,0.425 -0.06,0.466 -0.19,0.513 -0.13,0.341 -0.06,0.176 0,0"
         style="fill:#808285;fill-opacity:1;fill-rule:nonzero;stroke:none"
         id="path3508"
         inkscape:connector-curvature="0" />
    </g>
    <g
       id="g3510"
       transform="matrix(1.25,0,0,-1.25,779.004,466.14595)">
      <path
         d="M 0,0 C 0.56,1.254 1.17,2.765 1.21,2.936 L 1.14,3.026 C 1,3.148 0.78,3.341 0.47,3.589 0.21,3.133 -0.08,2.562 -0.37,1.937 -0.22,1.3 -0.1,0.656 0,0"
         style="fill:#a7a9ac;fill-opacity:1;fill-rule:nonzero;stroke:none"
         id="path3512"
         inkscape:connector-curvature="0" />
    </g>
    <g
       id="g3514"
       transform="matrix(1.25,0,0,-1.25,780.654,462.5597)">
      <path
         d="M 0,0 C 0.06,-0.04 0.31,-0.058 0.41,-0.021 0.5,0.016 0.58,0.173 0.58,0.253 0.08,0.759 -0.71,1.399 -0.71,1.399 L -0.75,1.42 C -0.95,1.276 -1.19,1.055 -1.14,0.906 L -1,0.836 C -0.35,0.327 0,0 0,0"
         style="fill:#ce8a14;fill-opacity:1;fill-rule:nonzero;stroke:none"
         id="path3516"
         inkscape:connector-curvature="0" />
    </g>
    <g
       id="g3518"
       transform="matrix(1.25,0,0,-1.25,777.3165,459.78595)">
      <path
         d="m 0,0 c 0.11,-0.278 0.21,-0.559 0.31,-0.845 0.48,-0.182 0.98,-0.367 1.22,-0.468 -0.05,0.149 0.19,0.37 0.39,0.514 C 1.15,-0.502 0.49,-0.211 0,0"
         style="fill:#ffeba8;fill-opacity:1;fill-rule:nonzero;stroke:none"
         id="path3520"
         inkscape:connector-curvature="0" />
    </g>
    <g
       id="g3522"
       transform="matrix(1.25,0,0,-1.25,775.9665,459.5122)">
      <path
         d="m 0,0 c -0.81,1.314 -2.11,3.035 -2.61,3.188 -0.44,0.134 -1.09,0.07 -1.6,-0.021 -0.05,0.182 -0.13,0.356 -0.22,0.517 0.79,0.17 2,0.261 2.32,-0.474 0.24,-0.068 0.8,-0.753 1.35,-1.579 -1.09,2.105 -2.5,4.003 -4.16,5.651 -0.19,0.149 -0.36,0.257 -0.43,0.291 -0.09,0.048 -0.19,-0.013 -0.27,-0.1 l -0.01,0.156 c -0.01,0.113 0.06,0.162 0.16,0.177 -3.93,3.645 -9.15,5.876 -14.9,5.876 -12.26,0 -22.19,-10.064 -22.19,-22.485 0,-1.429 0.14,-2.82 0.39,-4.171 0.23,-0.284 0.59,-0.439 1.45,-0.308 0,2.647 0.22,4.604 0.5,5.562 0.14,-0.125 0.29,-0.208 0.47,-0.245 -0.52,-1.149 -0.75,-2.744 -0.75,-5.212 0.19,-0.305 0.39,-0.768 0.59,-1.379 0.25,-0.757 2.54,-5.055 3.92,-6.118 0.26,-0.356 0.74,-0.037 1.07,-0.427 -0.26,0.015 -0.59,0.032 -0.71,0.032 -0.2,0 -0.4,-0.255 -0.35,-0.508 0.05,-0.254 0.4,-1.809 0.6,-2.678 0.12,-0.468 0.32,-1.021 0.58,-1.594 2.45,-2.12 5.34,-3.726 8.54,-4.616 0.53,0.058 1.64,0.029 2.58,0.009 2.72,0.467 2,0.852 1.89,1.069 -0.67,1.253 -0.9,3.157 -0.94,3.654 -0.04,0.495 -0.14,0.547 -0.31,0.635 -2.72,1.344 -5.5,3.555 -5.84,3.836 -0.34,0.284 -0.74,0.69 -1.03,0.815 -0.15,0 -0.37,-0.25 -0.46,-0.5 l -0.08,-0.134 c -0.09,-0.618 -0.46,-1.737 -2.21,-1.638 0.26,0.02 0.56,0.089 0.91,0.226 1.17,0.448 1.14,1.79 1.1,2.005 -0.04,0.219 -0.22,0.728 0,0.946 0.22,0.222 0.29,0.843 -0.04,1.749 -0.13,0.369 -0.07,0.729 0.29,1.021 0.37,0.294 1.21,0.837 1.17,1.494 -0.04,0.656 -0.22,2.039 -0.51,2.587 -0.29,0.545 -0.59,0.909 -0.29,1.273 0.29,0.365 0.87,0.948 0.87,1.607 0,0.182 0.08,0.467 0.29,0.577 0.22,0.11 2.15,1.752 2.66,3.573 0.15,0.526 0.31,0.673 0.27,0.772 0.04,-0.096 0.09,-0.248 -0.05,-0.52 -0.14,-0.275 -0.1,-0.618 -0.3,-0.94 -0.21,-0.32 -0.26,-1.427 -2.47,-3.086 -0.1,-0.079 -0.15,-0.249 -0.18,-0.405 0.33,-0.72 1.02,-1.437 1.26,-1.764 0.34,-0.459 0.46,-0.36 0.72,-0.36 0.24,0 5.37,-0.101 6.6,-0.085 0.65,0.466 1.31,0.834 2.11,1.26 l 0.2,0.104 c 0.77,1.302 1.82,3.3 2.48,4.597 -0.52,0.528 -0.82,1.633 -0.87,1.853 -0.08,0.35 -0.32,0.94 -0.57,1.236 -0.24,0.296 -0.51,1.127 -0.56,1.241 -0.06,0.106 -0.49,0.106 -0.7,0.264 -0.21,0.163 -0.21,0.484 -0.35,0.859 -0.13,0.374 -0.86,0.829 -1.31,0.886 -0.46,0.054 -1.11,-0.296 -1.59,-0.268 -0.48,0.025 -1.1,0.832 -1.32,0.887 -0.21,0.053 -1.13,-0.245 -1.29,-0.245 -0.16,0 -1.1,1.13 -1.31,1.292 -0.2,0.147 -0.26,-0.218 -0.25,-0.484 -0.08,0.105 -0.15,0.185 -0.19,0.211 -0.13,0.066 -0.34,0.629 0.01,0.815 0.34,0.186 0.41,-0.066 0.57,-0.341 0.16,-0.278 0.44,-0.4 0.61,-0.53 0.17,-0.13 0.28,-0.528 0.58,-0.54 0.3,-0.011 0.5,0.223 0.95,0.223 0.82,0 1.16,-0.933 1.66,-0.933 0.52,0 0.49,0.244 1.2,0.244 0.7,0 1.48,-0.33 1.81,-0.785 0.31,-0.447 0.18,-0.766 0.54,-0.934 0.35,-0.163 0.56,-0.185 0.68,-0.535 0.12,-0.36 0.15,-0.687 0.31,-0.92 0.15,-0.233 0.51,-0.575 0.67,-0.96 0.21,-0.521 0.08,-0.768 0.36,-1.192 0.32,-0.518 0.65,-1.308 0.89,-1.308 0.26,0 0.66,0.494 0.88,0.638 0.1,-0.187 0.13,-0.384 0.12,-0.676 -0.01,-0.294 -0.11,-0.966 0.11,-1.008 0.12,-0.023 0.37,-0.08 0.59,0.015 -0.28,-0.534 -0.7,-0.389 -0.93,0 -0.15,0.269 -0.16,0.683 -0.11,0.998 -0.28,-0.253 -0.54,-0.31 -0.77,-0.253 -0.52,-1.043 -1.4,-2.672 -2.16,-3.95 1.5,0.804 3.69,1.876 6.92,1.876 l 0.59,0 0.07,-3.432 -0.01,-0.054 c -0.01,-0.053 -0.09,-0.426 -0.4,-0.745 -0.52,-2.658 -0.98,-5.169 -1.39,-7.605 0.17,0.017 0.32,0.041 0.39,0.095 0.25,0.182 1.17,4.231 1.47,4.641 l 0.02,0.02 c 0.62,2.385 1.17,4.2 1.68,5.78 -0.45,0.248 -0.66,0.368 -0.7,0.424 l -0.33,0.603 0.58,0.326 c -0.28,0.779 -0.34,1.665 -0.35,1.872 -0.01,0.336 -0.19,0.687 -0.26,0.968 -0.07,0.282 0.16,0.423 0.29,0.487 -0.15,-0.064 0.09,-0.455 0.1,-0.627 0.02,-0.17 0.19,-0.373 0.19,-0.75 0,-0.695 0.12,-1.291 0.3,-1.8 0.34,0.19 0.67,0.368 1,0.542 l -0.08,0.253 c -0.27,1.166 0.07,1.542 0.32,1.676 l -0.14,-0.174 c -0.19,-0.186 -0.02,-1.314 0.01,-1.532 l 0.03,-0.149 c 0.62,0.329 1.2,0.605 1.77,0.874 -0.55,1.101 -1.2,1.987 -1.85,2.12 -0.79,0.165 -1.46,-0.141 -1.66,0.372 -1.16,0.063 -4.38,0.124 -5.38,-0.066 0,0.149 -0.01,0.292 -0.01,0.431 1.57,0.05 5.36,0.031 5.59,0.031 0.04,0.312 -0.17,1.024 -0.34,1.322 0.08,0.15 0.14,0.324 0.23,0.338 0.19,0.035 0.37,-0.627 0.37,-0.921 -0.02,-0.293 0.15,-1.056 0.5,-1.067 0.34,-0.01 0.46,0.335 0.7,0.335 0.37,0 1.23,-1.489 1.47,-1.605 0.07,-0.035 0.15,0.01 0.26,0.122 0.2,-0.415 0.4,-0.833 0.57,-1.201 1.98,0.888 3.69,1.404 5.2,1.573 0.37,0.042 0.71,0.05 1.04,0.05 C 1.16,-3.18 0.66,-1.55 0,0"
         style="fill:#ffcf00;fill-opacity:1;fill-rule:nonzero;stroke:none"
         id="path3524"
         inkscape:connector-curvature="0" />
    </g>
    <g
       id="g3526"
       transform="matrix(1.25,0,0,-1.25,739.679,472.5997)">
      <path
         d="m 0,0 c -0.06,-0.181 -0.17,-0.391 -0.37,-0.565 -0.37,-0.318 -0.59,-0.594 -0.46,-0.961 0.14,-0.365 1.03,-2.373 0.78,-3.427 -0.25,-1.052 -1.48,-1.6 -1.48,-1.944 0,-0.343 0.36,-1.117 0.31,-1.481 -0.04,-0.37 -0.38,-0.851 -0.36,-1.054 0.01,-0.094 0.06,-0.213 0.1,-0.342 0.27,0.068 0.34,-0.041 0.54,-0.021 0,0.191 0.66,2.781 1.06,4.058 0.4,1.283 1.16,3.274 1.22,3.465 C 1.4,-2.086 1.5,-1.9 1.37,-1.714 1.27,-1.564 0.48,-0.588 0,0"
         style="fill:#ce8a14;fill-opacity:1;fill-rule:nonzero;stroke:none"
         id="path3528"
         inkscape:connector-curvature="0" />
    </g>
    <g
       id="g3530"
       transform="matrix(1.25,0,0,-1.25,759.554,465.23595)">
      <path
         d="m 0,0 c -0.28,0.033 -0.69,-0.054 -0.99,-0.067 0.01,-0.134 0.01,-0.263 0.01,-0.392 0.19,0.277 0.79,-0.099 1.02,-0.794 C 0.42,-0.629 0.67,-0.079 0,0"
         style="fill:#ce8a14;fill-opacity:1;fill-rule:nonzero;stroke:none"
         id="path3532"
         inkscape:connector-curvature="0" />
    </g>
    <g
       id="g3534"
       transform="matrix(1.25,0,0,-1.25,755.429,464.87845)">
      <path
         d="m 0,0 c -0.84,-0.94 -2.1,-2.935 -2.45,-3.277 -0.45,-0.455 -1,1.354 -1.4,1.354 -0.4,0 -1.26,-1.809 -2.22,-2.366 -0.74,-0.428 -3.47,-0.033 -4.85,0.426 -0.33,-0.378 -0.78,-0.802 -1.41,-1.279 -0.1,-0.079 -0.15,-0.249 -0.18,-0.405 0.33,-0.72 1.02,-1.437 1.26,-1.764 0.34,-0.459 0.46,-0.36 0.72,-0.36 0.24,0 5.37,-0.101 6.6,-0.085 0.65,0.466 1.31,0.834 2.11,1.26 l 0.2,0.104 c 0.77,1.302 1.82,3.3 2.48,4.597 C 0.37,-1.3 0.08,-0.304 0,0"
         style="fill:#ce8a14;fill-opacity:1;fill-rule:nonzero;stroke:none"
         id="path3536"
         inkscape:connector-curvature="0" />
    </g>
    <g
       id="g3538"
       transform="matrix(1.25,0,0,-1.25,747.8415,491.0447)">
      <path
         d="m 0,0 c 0.06,-0.209 0.38,-1.865 0.52,-2.465 0.13,-0.6 0.6,-1.712 0.79,-1.877 0.04,-0.04 0.23,-0.042 0.44,-0.023 C 1.74,-2.512 1.71,-0.793 1.65,0.971 1.2,0.756 0.18,0.173 0,0"
         style="fill:#ce8a14;fill-opacity:1;fill-rule:nonzero;stroke:none"
         id="path3540"
         inkscape:connector-curvature="0" />
    </g>
    <g
       id="g3542"
       transform="matrix(1.25,0,0,-1.25,748.8415,476.3047)">
      <path
         d="M 0,0 0.02,0.266 0.18,0.419 C 0.38,0.613 0.57,0.771 0.76,0.934 -0.78,1.12 -4.75,1.106 -5.14,1.091 -5.63,1.073 -5.67,0.867 -5.71,0.737 -5.74,0.606 -6.66,-2.37 -6.89,-3.026 c -0.23,-0.659 -0.94,-3.481 -0.99,-3.651 -0.06,-0.17 -0.06,-0.319 0.11,-0.356 0.09,-0.021 1.56,-1.28 3.12,-2.351 1.51,-1.035 3.09,-1.893 3.27,-1.994 0.36,-0.207 0.45,-0.095 0.54,-0.036 0.1,0.055 1.39,0.713 1.67,0.924 -0.08,2.14 -0.19,4.369 -0.34,7.03 -0.09,0.049 -0.22,0.153 -0.51,0.484 l -0.14,0.163 0,0.437 c 0,0.845 0.08,1.664 0.13,2.122 L 0,0"
         style="fill:#ce8a14;fill-opacity:1;fill-rule:nonzero;stroke:none"
         id="path3544"
         inkscape:connector-curvature="0" />
    </g>
    <g
       id="g3546"
       transform="matrix(1.25,0,0,-1.25,748.729,496.24595)">
      <path
         d="m 0,0 c -0.67,1.253 -0.9,3.157 -0.94,3.654 -0.04,0.495 -0.14,0.547 -0.31,0.635 -2.72,1.344 -5.5,3.555 -5.84,3.836 -0.34,0.284 -0.74,0.69 -1.03,0.815 -0.15,0 -0.37,-0.25 -0.46,-0.5 L -8.66,8.306 c -0.09,-0.618 -0.46,-1.737 -2.21,-1.638 0.26,0.02 0.56,0.089 0.91,0.226 1.17,0.448 1.14,1.79 1.1,2.005 -0.04,0.219 -0.22,0.728 0,0.946 0.22,0.222 0.29,0.843 -0.04,1.749 -0.13,0.369 -0.07,0.729 0.29,1.021 0.37,0.294 1.21,0.837 1.17,1.494 -0.04,0.656 -0.22,2.039 -0.51,2.587 -0.29,0.545 -0.59,0.909 -0.29,1.273 0.29,0.365 0.87,0.948 0.87,1.607 0,0.182 0.08,0.467 0.29,0.577 0.11,0.056 0.67,0.507 1.25,1.175 -0.25,0.098 -0.43,0.197 -0.51,0.288 l -13.15,6.517 c -0.83,-2.362 -1.28,-4.897 -1.28,-7.549 0,-1.429 0.14,-2.821 0.39,-4.174 0.23,-0.281 0.59,-0.436 1.45,-0.305 0,2.647 0.22,4.604 0.5,5.562 0.14,-0.125 0.29,-0.208 0.47,-0.245 -0.52,-1.149 -0.75,-2.744 -0.75,-5.212 0.19,-0.305 0.39,-0.768 0.59,-1.379 0.25,-0.757 2.54,-5.055 3.92,-6.118 0.26,-0.356 0.74,-0.037 1.07,-0.427 -0.26,0.015 -0.59,0.032 -0.71,0.032 -0.2,0 -0.4,-0.255 -0.35,-0.508 0.05,-0.254 0.4,-1.809 0.6,-2.678 0.11,-0.459 0.31,-1.006 0.57,-1.571 2.46,-2.135 5.38,-3.745 8.59,-4.632 0.56,0.046 1.63,0.022 2.54,0.002 2.72,0.467 2,0.852 1.89,1.069"
         style="fill:#ce8a14;fill-opacity:1;fill-rule:nonzero;stroke:none"
         id="path3548"
         inkscape:connector-curvature="0" />
    </g>
    <g
       id="g3550"
       transform="matrix(1.25,0,0,-1.25,730.579,485.44845)">
      <path
         d="M 0,0 C -1.7,1.84 -3.99,5.481 -4.1,7.063 L -4.17,7.129 -4.23,7.125 C -4.57,7.1 -5.32,7.1 -5.46,7.1 -5.53,7.1 -5.56,6.709 -5.48,6.065 -4.37,1.946 -2.15,-1.701 0.86,-4.517 0.24,-2.834 -0.24,-0.89 -0.17,-0.629 -0.1,-0.35 0.2,-0.207 0,0"
         style="fill:#ce8a14;fill-opacity:1;fill-rule:nonzero;stroke:none"
         id="path3552"
         inkscape:connector-curvature="0" />
    </g>
    <g
       id="g3554"
       transform="matrix(1.25,0,0,-1.25,758.129,468.36595)">
      <path
         d="M 0,0 C -0.15,0.269 -0.16,0.683 -0.11,0.998 -0.24,0.877 -0.37,0.803 -0.5,0.762 c 0.05,-0.427 -0.84,-2.085 -1.69,-3.536 0.61,0.296 1.3,0.596 2.11,0.847 0.13,0.596 0.3,1.19 0.44,1.616 C 0.22,-0.264 0.09,-0.162 0,0"
         style="fill:#ce8a14;fill-opacity:1;fill-rule:nonzero;stroke:none"
         id="path3556"
         inkscape:connector-curvature="0" />
    </g>
    <g
       id="g3558"
       transform="matrix(1.25,0,0,-1.25,773.329,455.4997)">
      <path
         d="M 0,0 C 0.25,-0.07 0.86,-0.821 1.43,-1.703 0.67,-0.2 -0.27,1.195 -1.34,2.482 -1.32,2.39 -1.31,2.302 -1.28,2.251 -1.36,2.109 -1.39,2.023 -1.34,1.855 -1.28,1.688 -1.31,1.316 -1.48,1.205 -1.65,1.09 -1.99,1.627 -2.1,1.882 -2.12,1.714 -2.24,1.625 -2.28,1.551 -2.33,1.477 -2.73,1.971 -3.13,2.395 -3.51,2.809 -3.92,2.978 -3.99,2.809 -4.04,2.647 -3.56,2.317 -3.57,2.107 -3.59,1.896 -3.31,1.414 -2.93,1.066 -2.67,0.935 -2.48,0.719 -2.33,0.469 l 0.01,0.005 C -1.53,0.644 -0.32,0.735 0,0"
         style="fill:#ce8a14;fill-opacity:1;fill-rule:nonzero;stroke:none"
         id="path3560"
         inkscape:connector-curvature="0" />
    </g>
    <g
       id="g3562"
       transform="matrix(1.25,0,0,-1.25,776.0415,459.62595)">
      <path
         d="m 0,0 c -0.81,1.327 -2.16,3.121 -2.67,3.279 -0.44,0.134 -1.09,0.07 -1.6,-0.021 0.03,-0.132 0.06,-0.269 0.07,-0.401 0.17,-0.283 0.25,-0.634 0.29,-0.957 0.99,-1.356 1.48,-4.901 1.65,-7.319 0.94,0.29 1.8,0.484 2.61,0.575 0.38,0.042 0.73,0.05 1.07,0.052 C 1.13,-3.119 0.63,-1.521 0,0"
         style="fill:#ce8a14;fill-opacity:1;fill-rule:nonzero;stroke:none"
         id="path3564"
         inkscape:connector-curvature="0" />
    </g>
    <g
       id="g3566"
       transform="matrix(1.25,0,0,-1.25,761.4915,485.23595)">
      <path
         d="m 0,0 c -0.5,-3.043 -0.94,-5.982 -1.3,-8.908 l 0.21,0.003 c 0.63,3.353 1.19,6.148 1.72,8.522 C 0.62,-0.118 0.35,-0.033 0,0"
         style="fill:#ce8a14;fill-opacity:1;fill-rule:nonzero;stroke:none"
         id="path3568"
         inkscape:connector-curvature="0" />
    </g>
    <g
       id="g3570"
       transform="matrix(1.25,0,0,-1.25,761.5665,484.8197)">
      <path
         d="m 0,0 c 0.16,0.015 0.31,0.044 0.38,0.093 0.25,0.182 1.17,4.231 1.47,4.641 l 0.02,0.02 C 2.05,5.454 2.23,6.097 2.4,6.707 1.91,6.343 1.43,5.955 1,5.611 0.63,3.674 0.3,1.824 0,0"
         style="fill:#ce8a14;fill-opacity:1;fill-rule:nonzero;stroke:none"
         id="path3572"
         inkscape:connector-curvature="0" />
    </g>
    <g
       id="g3574"
       transform="matrix(1.25,0,0,-1.25,771.729,452.68595)">
      <path
         d="m 0,0 c -0.03,0.064 -0.06,0.165 -0.07,0.287 -0.41,0.486 -0.84,0.946 -1.29,1.396 l 0,-0.003 c -0.28,0.257 -0.51,0.387 -0.6,0.432 -0.09,0.048 -0.19,-0.013 -0.27,-0.1 l -0.01,0.156 c -0.01,0.116 0.07,0.169 0.17,0.179 -3.36,3.096 -7.63,5.182 -12.39,5.729 -0.53,-0.124 -0.98,-0.261 -1.09,-0.355 -0.83,0.036 -2.44,0.226 -2.82,-0.377 -1.09,-0.112 -3.32,-0.941 -3.43,-0.828 -0.1,0.103 0.43,0.811 0.35,1.241 -9.67,-2.003 -17.05,-10.374 -17.67,-20.608 0.25,-0.353 0.42,-0.728 0.74,-0.691 0.32,0.037 0.76,0.414 1.1,0.996 0.29,-0.58 0.62,-0.909 1.17,-0.909 -0.08,-0.658 -0.05,-1.959 0.07,-2.368 0.22,-0.729 1.06,-1.784 1.24,-2.517 0.18,-0.724 0,-2.401 0.14,-3.022 0.15,-0.615 1.61,-3.163 2.05,-3.821 0.43,-0.657 1.31,-1.639 1.82,-2.227 0.51,-0.58 1.02,-1.087 2.43,-0.544 1.17,0.448 1.14,1.79 1.1,2.005 -0.04,0.219 -0.22,0.728 0,0.946 0.22,0.222 0.29,0.843 -0.04,1.749 -0.13,0.369 -0.07,0.729 0.29,1.021 0.37,0.294 1.21,0.837 1.17,1.494 -0.04,0.656 -0.22,2.039 -0.51,2.587 -0.29,0.545 -0.59,0.909 -0.29,1.273 0.29,0.365 0.87,0.948 0.87,1.607 0,0.182 0.08,0.467 0.29,0.577 0.22,0.11 2.15,1.752 2.66,3.573 0.15,0.526 0.31,0.673 0.27,0.772 -0.03,0.099 -0.22,0.422 -0.97,0.422 -0.75,0 -1.35,-0.662 -1.73,-0.662 -0.15,0 -0.3,0.24 -0.33,0.405 -0.04,0.166 -0.31,1.215 -1.18,1.779 -0.21,0.859 -0.73,2.665 -0.87,3.02 -0.14,0.354 -0.18,0.823 -0.03,1.183 0.15,0.386 0.32,0.667 0.56,-0.055 0.15,-0.466 0.45,-1.406 0.73,-1.613 0.06,-0.605 0.18,-1.088 0.64,-1.339 0.03,-0.565 0.2,-0.886 0.53,-1.066 0.01,-0.406 0.15,-1.167 0.42,-1.399 0.28,-0.232 2.34,0.141 3.73,1.399 0.34,0.058 0.52,0.089 1.1,0.596 0.59,0.514 1.33,1.116 1.47,1.238 0.14,0.12 0.22,0.625 -0.08,0.658 -0.29,0.033 -0.86,-0.033 -1.01,0.441 -0.1,0.296 -0.15,0.598 -0.45,0.608 -0.4,0.015 -0.6,-0.622 -1.26,-0.542 -0.27,0.031 -0.41,0.509 -0.61,0.706 -0.2,0.199 -0.47,0.687 -0.6,0.754 -0.13,0.066 -0.34,0.629 0.01,0.815 0.34,0.186 0.41,-0.066 0.57,-0.341 0.16,-0.278 0.44,-0.4 0.61,-0.53 0.17,-0.13 0.28,-0.528 0.58,-0.54 0.3,-0.011 0.5,0.223 0.95,0.223 0.82,0 1.16,-0.933 1.66,-0.933 0.52,0 0.49,0.244 1.2,0.244 0.7,0 1.48,-0.33 1.81,-0.785 0.31,-0.447 0.18,-0.766 0.54,-0.934 0.35,-0.163 0.56,-0.185 0.68,-0.535 0.12,-0.36 0.15,-0.687 0.31,-0.92 0.15,-0.233 0.51,-0.575 0.67,-0.96 0.21,-0.521 0.08,-0.768 0.36,-1.192 0.32,-0.518 0.65,-1.308 0.89,-1.308 0.26,0 0.66,0.494 0.88,0.638 0.1,-0.187 0.13,-0.384 0.12,-0.676 -0.01,-0.294 -0.11,-0.966 0.11,-1.008 0.22,-0.041 0.95,-0.217 0.93,0.777 -0.02,0.993 -0.88,1.622 -1.11,1.283 -0.01,0.817 -0.05,1.823 -0.06,1.978 0.58,0.638 1.21,1.243 1.64,1.729 0.43,0.483 0.96,1.074 1.3,1.252 0.38,-0.062 1.65,-1.097 1.68,-1.554 0.03,-0.466 0.16,-0.984 0.26,-1.05 0.37,-0.244 0.44,0.481 0.63,0.512 0.19,0.035 0.37,-0.627 0.37,-0.921 -0.02,-0.293 0.15,-1.056 0.5,-1.067 0.34,-0.01 0.46,0.335 0.7,0.335 0.37,0 1.23,-1.489 1.47,-1.605 0.23,-0.119 0.6,0.569 1.09,1.711 0.23,0.53 -0.06,1.025 -0.23,1.193 -0.17,0.166 -1.42,1.081 -1.39,1.444 0.03,0.367 0.32,0.715 0.62,0.715 0.3,0 0.77,0.006 0.88,0.085 0.25,0.178 0.1,0.672 0.31,0.79 0.2,0.108 0.37,0.245 0.46,0.452 0.09,0.211 0.1,1.187 -0.26,1.805 -0.04,0.588 -0.36,1.225 -0.9,1.51 -0.38,0.348 -0.66,0.83 -0.64,1.041 0.01,0.21 -0.47,0.54 -0.42,0.702 0.07,0.169 0.48,0 0.86,-0.414 0.4,-0.424 0.8,-0.918 0.85,-0.844 0.04,0.074 0.16,0.163 0.18,0.331 0.11,-0.255 0.45,-0.792 0.62,-0.677 0.17,0.111 0.2,0.483 0.14,0.65 C -0.11,-0.228 -0.08,-0.142 0,0"
         style="fill:#a7a9ac;fill-opacity:1;fill-rule:nonzero;stroke:none"
         id="path3576"
         inkscape:connector-curvature="0" />
    </g>
    <g
       id="g3578"
       transform="matrix(1.25,0,0,-1.25,765.4665,449.70595)">
      <path
         d="M 0,0 C -4.22,4.095 -9.4,4.603 -13.34,4.566 -17.29,4.527 -19.59,2.3 -19.9,1.949 c -0.31,-0.349 -0.74,-1.17 -1.24,-2.338 -0.15,-0.34 0.03,-0.195 -0.32,-0.783 -0.35,-0.587 -0.9,-0.819 -1.34,-0.984 -0.32,-0.121 -0.57,-0.655 -0.88,-1.085 -0.31,-0.431 -0.94,-0.855 -0.94,-0.855 0,0 -2.22,1.595 -3.24,-0.506 -3.08,-3.437 -4.29,-7.689 -4.29,-8.819 0,-1.133 0.63,-1.834 1.05,-2.418 -0.08,-0.658 -0.05,-1.959 0.07,-2.368 0.15,-0.497 0.58,-1.145 0.9,-1.741 l 0,0.002 c -0.2,1.064 -0.47,2.621 -0.29,3.134 0.22,0.681 0.59,0.137 0.81,-0.457 0.23,-0.586 3.64,-2.774 5.19,-2.23 1.55,0.549 3.69,3.049 2.67,8.709 -0.21,0.859 -0.73,2.665 -0.87,3.02 -0.14,0.354 -0.18,0.823 -0.03,1.183 0.15,0.386 0.32,0.667 0.56,-0.055 0.15,-0.466 0.45,-1.406 0.73,-1.613 0.06,-0.605 0.18,-1.088 0.64,-1.339 l 0.02,-0.123 c 0.71,0.872 1.55,1.955 2.11,2.094 0.18,0.045 0.49,-0.363 0.41,-0.773 -0.09,-0.405 -0.23,-0.952 -0.05,-0.952 0.18,0 1.46,0.364 1.96,0.228 0.43,-0.116 1.28,-0.493 2.4,-0.042 0.19,0.158 0.35,0.288 0.4,0.336 l 0.1,0.203 c -0.43,-0.17 -0.78,-0.271 -1.08,-0.271 -0.37,0 -1.91,0.409 -2.05,0.589 -0.13,0.182 -0.14,0.775 -0.41,1.003 -0.26,0.214 -1.17,1.461 -0.72,1.738 l 0.01,-0.002 0.15,0.18 c 0.34,0.186 0.41,-0.066 0.57,-0.341 0.16,-0.278 0.44,-0.4 0.61,-0.53 0.17,-0.13 0.28,-0.528 0.58,-0.54 0.3,-0.011 0.5,0.223 0.95,0.223 0.82,0 1.16,-0.933 1.66,-0.933 0.52,0 0.49,0.244 1.2,0.244 0.7,0 1.48,-0.33 1.81,-0.785 0.09,-0.133 0.14,-0.248 0.18,-0.357 l 0,10e-4 c 0.54,-0.464 1.29,-0.985 1.56,-1.06 0.32,-0.091 0.81,-0.286 1.59,-0.297 0.57,-0.011 1.52,-0.124 3.33,1.339 0.22,0.223 0.43,0.411 0.6,0.498 1.12,-0.244 1.93,0.273 2.25,0.273 0.32,0 0.7,-0.736 0.91,-0.91 0.22,-0.178 1.31,-0.071 1.77,0.244 -0.02,-0.234 0.06,-0.368 0.17,-0.457 l 0.01,-0.011 c 0.09,0.307 0.33,0.574 0.59,0.574 0.3,0 0.77,0.006 0.88,0.085 0.25,0.178 0.1,0.672 0.31,0.79 0.19,0.101 0.34,0.234 0.44,0.427 C 4.07,-5.4 2.96,-2.886 0,0"
         style="fill:#ffffff;fill-opacity:1;fill-rule:nonzero;stroke:none"
         id="path3580"
         inkscape:connector-curvature="0" />
    </g>
    <g
       id="g3582"
       transform="matrix(1.25,0,0,-1.25,741.7165,484.04095)">
      <path
         d="M 0,0 C -0.25,0.068 -0.91,1.35 -0.23,1.685 -0.14,1.954 -0.35,3.113 -0.11,3.188 0.13,3.259 0.58,3.713 0.7,3.885 0.83,4.057 1.33,4.2 1.73,4.08 2,4.488 2.31,4.683 2.53,4.367 2.74,4.057 2.4,3.494 2.34,3.259 2.24,2.896 1.66,1.979 1.52,1.589 1.38,1.209 1.04,0.22 0.92,0.123 0.66,0 0.27,-0.072 0,0"
         style="fill:#a7a9ac;fill-opacity:1;fill-rule:nonzero;stroke:none"
         id="path3584"
         inkscape:connector-curvature="0" />
    </g>
    <g
       id="g3586"
       transform="matrix(1.25,0,0,-1.25,746.379,449.9647)">
      <path
         d="m 0,0 c -0.08,0.244 -0.55,0.401 -0.77,0.277 -0.22,-0.124 -0.4,-0.523 -0.65,-0.645 -0.25,-0.124 -0.46,-0.222 -0.43,-0.468 0.03,-0.244 0.65,-0.712 0.68,-1.08 0.03,-0.371 -0.5,-0.527 -0.44,-0.709 0.07,-0.19 0.9,-0.465 1.18,-0.31 0.28,0.151 0.24,1.269 0.28,1.418 0.09,0.374 -0.65,0.59 -0.68,0.836 C -0.86,-0.431 0.03,-0.095 0,0"
         style="fill:#ffcf00;fill-opacity:1;fill-rule:nonzero;stroke:none"
         id="path3588"
         inkscape:connector-curvature="0" />
    </g>
    <g
       id="g3590"
       transform="matrix(1.25,0,0,-1.25,730.004,453.8972)">
      <path
         d="m 0,0 c 0.35,0.115 0.81,0.178 0.9,-0.009 0.09,-0.186 -0.56,-1.167 -0.43,-1.324 0.12,-0.154 0.43,-0.215 0.55,-0.28 0.12,-0.062 0.34,-0.249 0.53,-0.249 0.18,0 0.83,0.622 1.29,0.591 0.47,-0.031 0.72,-0.342 0.99,-0.373 0.28,-0.031 1.8,-0.079 2.14,-0.358 0.19,0.205 0.93,0.925 1.07,1.078 0.14,0.152 0.22,0.555 0.05,0.524 C 6.92,-0.435 6.66,-0.772 6.46,-0.534 6.25,-0.298 5.89,-0.021 5.71,-0.037 5.52,-0.053 5.18,-0.004 5.16,0.149 5.14,0.302 5.48,1.022 5.57,1.197 5.19,1.23 4.83,1.246 4.78,1.058 4.73,0.869 4.22,-0.124 4.04,-0.141 3.88,-0.157 3.82,0.323 3.9,0.567 3.98,0.809 3.88,1.194 3.88,1.354 3.88,1.515 3.94,1.999 4,2.181 4.06,2.363 3.84,2.244 3.74,2.262 3.64,2.283 3.46,2.041 3.46,1.919 3.46,1.796 3.36,1.395 3.46,1.374 3.56,1.354 3.58,1.01 3.5,0.931 3.42,0.848 3.32,0.341 3.09,0.18 2.87,0.021 2.31,-0.141 2.17,0 2.02,0.14 1.94,0.24 1.98,0.362 2.02,0.487 2.59,0.827 2.69,0.931 2.79,1.031 2.75,1.473 2.67,1.594 2.59,1.714 2.59,2.424 2.59,2.546 1.78,2.202 0.36,1.372 -0.3,0.323 -0.44,0.102 -0.29,-0.096 0,0"
         style="fill:#ffcf00;fill-opacity:1;fill-rule:nonzero;stroke:none"
         id="path3592"
         inkscape:connector-curvature="0" />
    </g>
    <g
       id="g3594"
       transform="matrix(1.25,0,0,-1.25,737.529,452.0622)">
      <path
         d="M 0,0 C 0.16,0.115 0.45,0.416 0.56,0.564 0.67,0.715 1.15,1.605 1.32,1.62 1.54,1.637 1.77,1.281 2.07,1.281 c 0.3,0 0.91,0.687 1.1,0.662 C 3.51,1.907 2.78,1.392 2.93,1.016 3.07,0.672 3.61,0.527 3.57,0.223 3.55,0.02 2.51,0.101 1.69,0.074 1.2,0.056 0.81,-0.106 0.67,-0.202 0.36,-0.415 -0.26,-0.189 0,0"
         style="fill:#ffcf00;fill-opacity:1;fill-rule:nonzero;stroke:none"
         id="path3596"
         inkscape:connector-curvature="0" />
    </g>
    <g
       id="g3598"
       transform="matrix(1.25,0,0,-1.25,748.8665,476.04095)">
      <path
         d="M 0,0 0,0.055 0.16,0.208 C 0.36,0.402 0.55,0.56 0.74,0.723 -0.8,0.909 -4.77,0.895 -5.16,0.88 -5.65,0.862 -5.69,0.656 -5.73,0.526 L -5.74,0.468 C -5.6,0.332 -5.3,0.241 -5.02,0.19 -4.67,0.124 -2.87,0.032 -2.08,-0.002 -1.65,-0.018 -0.78,-0.008 0,0"
         style="fill:#ffcf00;fill-opacity:1;fill-rule:nonzero;stroke:none"
         id="path3600"
         inkscape:connector-curvature="0" />
    </g>
    <g
       id="g3602"
       transform="matrix(1.25,0,0,-1.25,739.679,472.5997)">
      <path
         d="m 0,0 c -0.04,-0.115 -0.11,-0.244 -0.2,-0.368 0.49,-0.75 1.29,-1.726 1.57,-1.681 L 1.42,-2.02 C 1.44,-1.917 1.44,-1.813 1.37,-1.714 1.27,-1.564 0.48,-0.588 0,0"
         style="fill:#ffcf00;fill-opacity:1;fill-rule:nonzero;stroke:none"
         id="path3604"
         inkscape:connector-curvature="0" />
    </g>
    <g
       id="g3606"
       transform="matrix(1.25,0,0,-1.25,765.029,464.79595)">
      <path
         d="m 0,0 c -0.96,0.052 -3.32,0.099 -4.67,0.008 l 0.05,-0.136 c 0.07,-0.083 1.68,-0.278 2.27,-0.278 0.59,0 2.02,-0.128 2.3,0 0.09,0.046 0.17,0.131 0.19,0.219 L 0,0"
         style="fill:#ffeba8;fill-opacity:1;fill-rule:nonzero;stroke:none"
         id="path3608"
         inkscape:connector-curvature="0" />
    </g>
    <g
       id="g3610"
       transform="matrix(1.25,0,0,-1.25,742.329,465.09595)">
      <path
         d="m 0,0 c -0.44,0 -0.82,-0.227 -1.15,-0.416 0.26,-0.475 0.53,-1.379 0.47,-1.927 -0.09,-0.832 -0.7,-1.729 -1.09,-2.291 0.54,0.435 2.04,1.869 2.47,3.44 0.15,0.526 0.31,0.673 0.27,0.772 C 0.94,-0.323 0.75,0 0,0"
         style="fill:#ffffff;fill-opacity:1;fill-rule:nonzero;stroke:none"
         id="path3612"
         inkscape:connector-curvature="0" />
    </g>
    <g
       id="g3614"
       transform="matrix(1.25,0,0,-1.25,739.429,478.54095)">
      <path
         d="m 0,0 c -0.02,0.231 -0.05,0.533 -0.09,0.854 -0.58,-0.153 -1.28,-0.613 -1.64,-1.019 -0.5,-0.567 -2.39,-2.664 -2.26,-2.86 0.14,-0.195 1.63,1.296 1.8,1.465 0.16,0.166 0.99,1.027 1.32,0.994 C -0.72,-0.579 -0.33,-0.31 0,0"
         style="fill:#ffffff;fill-opacity:1;fill-rule:nonzero;stroke:none"
         id="path3616"
         inkscape:connector-curvature="0" />
    </g>
    <g
       id="g3618"
       transform="matrix(1.25,0,0,-1.25,764.354,462.86595)">
      <path
         d="M 0,0 C -0.1,0.066 -0.23,0.584 -0.26,1.05 -0.29,1.507 -1.56,2.542 -1.94,2.604 -2.28,2.426 -2.81,1.835 -3.24,1.352 -3.67,0.866 -4.3,0.261 -4.88,-0.377 c 0,-0.053 0.01,-0.21 0.02,-0.425 0.72,0.744 2.41,2.665 2.57,2.827 0.18,0.172 0.33,0.273 0.58,0.07 0.25,-0.199 1.05,-0.973 1.08,-1.279 0.02,-0.3 0.12,-0.925 0.32,-1.027 0.18,-0.086 0.63,0.042 0.87,0.679 C 0.42,0.309 0.32,-0.213 0,0"
         style="fill:#58595b;fill-opacity:1;fill-rule:nonzero;stroke:none"
         id="path3620"
         inkscape:connector-curvature="0" />
    </g>
    <g
       id="g3622"
       transform="matrix(1.25,0,0,-1.25,769.054,459.9697)">
      <path
         d="m 0,0 c -0.3,0 -0.59,-0.348 -0.62,-0.715 -0.02,-0.153 0.19,-0.396 0.46,-0.641 -0.09,0.408 -0.07,0.849 0.17,0.96 0.05,0.025 0.85,0.28 0.97,0.601 L 0.88,0.085 C 0.77,0.006 0.3,0 0,0"
         style="fill:#58595b;fill-opacity:1;fill-rule:nonzero;stroke:none"
         id="path3624"
         inkscape:connector-curvature="0" />
    </g>
    <g
       id="g3626"
       transform="matrix(1.25,0,0,-1.25,770.3915,450.9447)">
      <path
         d="M 0,0 C -0.09,0.101 -0.2,0.192 -0.3,0.292 -0.57,0.544 -0.8,0.674 -0.89,0.719 -0.98,0.765 -1.08,0.708 -1.15,0.62 -1.11,0.287 -0.97,-0.259 -0.75,-0.542 -0.5,-0.868 0.01,-1.551 0.14,-1.514 0.25,-1.48 0.18,-0.623 0,0"
         style="fill:#ce8a14;fill-opacity:1;fill-rule:nonzero;stroke:none"
         id="path3628"
         inkscape:connector-curvature="0" />
    </g>
    <g
       id="g3630"
       transform="matrix(1.25,0,0,-1.25,745.4165,449.61845)">
      <path
         d="M 0,0 C -0.22,-0.124 -0.4,-0.523 -0.65,-0.645 -0.9,-0.769 -1.11,-0.867 -1.08,-1.113 l 0.06,-0.141 c 0.27,0.07 0.53,0.288 0.75,0.544 0.29,0.244 0.46,0.458 0.88,0.3 0.1,0.059 0.17,0.106 0.16,0.133 C 0.69,-0.033 0.22,0.124 0,0"
         style="fill:#58595b;fill-opacity:1;fill-rule:nonzero;stroke:none"
         id="path3632"
         inkscape:connector-curvature="0" />
    </g>
    <g
       id="g3634"
       transform="matrix(1.25,0,0,-1.25,741.4915,449.63345)">
      <path
         d="m 0,0 c -0.19,0.025 -0.8,-0.662 -1.1,-0.662 -0.3,0 -0.53,0.356 -0.75,0.339 -0.17,-0.015 -0.65,-0.905 -0.76,-1.056 -0.11,-0.148 -0.4,-0.449 -0.56,-0.564 l -0.06,-0.114 c 0.21,-0.035 0.48,0.314 0.67,0.343 0.26,0.037 0.46,0.247 0.55,0.594 0.08,0.349 0.39,0.524 0.59,0.379 0.19,-0.137 0.42,-0.389 1.2,0.099 C -0.1,-0.331 0.26,-0.025 0,0"
         style="fill:#58595b;fill-opacity:1;fill-rule:nonzero;stroke:none"
         id="path3636"
         inkscape:connector-curvature="0" />
    </g>
    <g
       id="g3638"
       transform="matrix(1.25,0,0,-1.25,745.0915,478.79845)">
      <path
         d="m 0,0 -0.15,0.135 c 0.16,-0.319 -0.15,-0.845 -0.21,-1.07 -0.1,-0.363 -0.68,-1.28 -0.82,-1.67 -0.14,-0.38 -0.48,-1.369 -0.6,-1.466 -0.26,-0.123 -0.65,-0.195 -0.92,-0.123 l -0.02,0.012 c 0.08,-0.101 0.15,-0.169 0.2,-0.185 0.27,-0.071 0.65,0 0.91,0.119 0.12,0.096 0.46,1.09 0.6,1.47 0.15,0.39 0.73,1.304 0.82,1.671 C -0.12,-0.874 0.22,-0.314 0,0"
         style="fill:#58595b;fill-opacity:1;fill-rule:nonzero;stroke:none"
         id="path3640"
         inkscape:connector-curvature="0" />
    </g>
    <g
       id="g3642"
       transform="matrix(1.25,0,0,-1.25,737.154,457.9397)">
      <path
         d="M 0,0 C -0.12,-0.287 -0.12,-0.641 -0.04,-0.956 0.11,-0.349 0.32,-0.053 0.5,0.092 0.29,0.621 0.14,0.355 0,0"
         style="fill:#58595b;fill-opacity:1;fill-rule:nonzero;stroke:none"
         id="path3644"
         inkscape:connector-curvature="0" />
    </g>
    <g
       id="g3646"
       transform="matrix(1.25,0,0,-1.25,723.754,469.61345)">
      <path
         d="m 0,0 -0.21,0.041 c 0.2,-0.19 0.59,-0.243 0.9,0.02 0.2,0.163 0.44,0.403 0.64,0.556 C 1.25,0.729 1.17,0.855 1.1,0.996 0.76,0.414 0.32,0.037 0,0"
         style="fill:#58595b;fill-opacity:1;fill-rule:nonzero;stroke:none"
         id="path3648"
         inkscape:connector-curvature="0" />
    </g>
    <g
       id="g3650"
       transform="matrix(1.25,0,0,-1.25,745.3415,450.81595)">
      <path
         d="m 0,0 c -0.01,-0.401 0.18,-0.538 0.54,-0.783 l 0.12,-0.145 0.02,0.092 C 0.77,-0.462 0.03,-0.246 0,0"
         style="fill:#58595b;fill-opacity:1;fill-rule:nonzero;stroke:none"
         id="path3652"
         inkscape:connector-curvature="0" />
    </g>
    <g
       id="g3654"
       transform="matrix(1.25,0,0,-1.25,744.8915,452.24345)">
      <path
         d="m 0,0 0.02,-0.093 c 0.03,-0.371 -0.5,-0.527 -0.44,-0.709 0.02,-0.046 0.08,-0.097 0.17,-0.147 l 0.08,0.143 C 0.15,-0.501 0.06,-0.168 0,0"
         style="fill:#58595b;fill-opacity:1;fill-rule:nonzero;stroke:none"
         id="path3656"
         inkscape:connector-curvature="0" />
    </g>
    <g
       id="g3658"
       transform="matrix(1.25,0,0,-1.25,735.604,454.0172)">
      <path
         d="m 0,0 c 0.12,0.178 0.4,0.843 0.5,0.986 0.05,0.091 0.29,0.12 0.51,0.145 L 1.09,1.293 C 0.71,1.326 0.35,1.342 0.3,1.154 0.25,0.965 -0.26,-0.028 -0.44,-0.045 l -0.04,0.01 0,-0.006 C -0.45,-0.074 -0.13,-0.175 0,0"
         style="fill:#58595b;fill-opacity:1;fill-rule:nonzero;stroke:none"
         id="path3660"
         inkscape:connector-curvature="0" />
    </g>
    <g
       id="g3662"
       transform="matrix(1.25,0,0,-1.25,738.8665,454.3972)">
      <path
         d="M 0,0 C -0.17,-0.035 -0.43,-0.372 -0.63,-0.134 -0.84,0.102 -1.2,0.379 -1.38,0.363 -1.57,0.347 -1.91,0.396 -1.93,0.549 -1.94,0.11 -1.52,0.048 -1.27,0.048 c 0.25,0 0.58,-0.126 0.65,-0.203 0.09,-0.098 0.3,-0.418 0.66,-0.211 C 0.11,-0.192 0.13,0.023 0,0"
         style="fill:#58595b;fill-opacity:1;fill-rule:nonzero;stroke:none"
         id="path3664"
         inkscape:connector-curvature="0" />
    </g>
    <g
       id="g3666"
       transform="matrix(1.25,0,0,-1.25,733.879,454.00595)">
      <path
         d="M 0,0 C 0.29,0.138 0.68,0.902 0.68,1.105 0.68,1.252 0.62,1.457 0.51,1.602 0.45,1.854 0.52,2.055 0.56,2.13 0.62,2.235 0.69,2.204 0.88,2.207 L 0.9,2.268 C 0.96,2.45 0.74,2.331 0.64,2.349 0.54,2.37 0.36,2.128 0.36,2.006 0.36,1.883 0.26,1.482 0.36,1.461 0.46,1.441 0.48,1.097 0.4,1.018 0.32,0.935 0.22,0.428 -0.01,0.267 -0.23,0.108 -0.79,-0.054 -0.93,0.087 -0.76,-0.064 -0.22,-0.108 0,0"
         style="fill:#58595b;fill-opacity:1;fill-rule:nonzero;stroke:none"
         id="path3668"
         inkscape:connector-curvature="0" />
    </g>
    <g
       id="g3670"
       transform="matrix(1.25,0,0,-1.25,732.879,451.9497)">
      <path
         d="M 0,0 C 0.12,0.036 0.23,0.114 0.32,0.209 0.29,0.466 0.29,0.894 0.29,0.988 -0.52,0.644 -1.94,-0.186 -2.6,-1.235 c -0.14,-0.221 0.01,-0.419 0.3,-0.323 0.13,0.046 0.28,0.078 0.42,0.097 C -1.25,-0.815 -0.35,-0.11 0,0"
         style="fill:#58595b;fill-opacity:1;fill-rule:nonzero;stroke:none"
         id="path3672"
         inkscape:connector-curvature="0" />
    </g>
    <g
       id="g3674"
       transform="matrix(1.25,0,0,-1.25,731.229,454.87095)">
      <path
         d="M 0,0 C 0.16,0.386 0.05,0.666 -0.08,0.77 0.01,0.584 -0.64,-0.397 -0.51,-0.554 -0.46,-0.629 -0.36,-0.678 -0.26,-0.72 -0.27,-0.492 -0.1,-0.267 0,0"
         style="fill:#58595b;fill-opacity:1;fill-rule:nonzero;stroke:none"
         id="path3676"
         inkscape:connector-curvature="0" />
    </g>
    <g
       id="g3678"
       transform="matrix(1.25,0,0,-1.25,769.4165,452.50595)">
      <path
         d="M 0,0 C -0.38,0.414 -0.79,0.583 -0.86,0.414 -0.63,0.373 -0.55,0.203 -0.42,0.046 0,-0.347 0.42,-0.79 0.51,-0.902 0.63,-1.039 0.85,-0.834 0.85,-0.844 0.8,-0.918 0.4,-0.424 0,0"
         style="fill:#58595b;fill-opacity:1;fill-rule:nonzero;stroke:none"
         id="path3680"
         inkscape:connector-curvature="0" />
    </g>
    <g
       id="g3682"
       transform="matrix(1.25,0,0,-1.25,748.6665,459.9672)">
      <path
         d="m 0,0 c 0.17,-0.129 0.1,-0.514 -0.03,-0.617 -0.14,-0.122 -0.88,-0.724 -1.47,-1.238 -0.58,-0.507 -0.76,-0.538 -1.1,-0.596 -1.22,-1.103 -2.97,-1.528 -3.55,-1.457 0.1,-0.071 0.33,-0.199 0.56,-0.178 0.5,0.043 1.41,0.368 1.8,0.547 0.48,0.213 1.21,0.781 1.43,0.847 l 0.31,0.088 c 0.27,0.176 0.62,0.517 0.85,0.69 0.2,0.154 0.89,0.69 1.23,0.96 0.19,0.151 0.23,0.287 0.22,0.462 C 0.24,-0.348 0.07,-0.041 0,0"
         style="fill:#58595b;fill-opacity:1;fill-rule:nonzero;stroke:none"
         id="path3684"
         inkscape:connector-curvature="0" />
    </g>
    <g
       id="g3686"
       transform="matrix(1.25,0,0,-1.25,739.8165,464.7072)">
      <path
         d="m 0,0 c -0.03,0.306 -0.75,1.167 -1.01,1.279 -0.16,0.252 -0.32,0.823 -0.39,1.263 -0.06,0.432 -0.35,1.45 -0.49,1.747 -0.14,0.296 -0.19,0.72 -0.1,1.039 L -2.06,5.572 -2.13,5.414 c -0.15,-0.36 -0.11,-0.829 0.03,-1.183 0.14,-0.355 0.66,-2.161 0.87,-3.02 0.87,-0.564 1.14,-1.613 1.18,-1.779 0.03,-0.165 0.18,-0.405 0.33,-0.405 0.1,0 0.23,0.053 0.37,0.126 C 0.1,-0.72 0.03,-0.261 0,0"
         style="fill:#58595b;fill-opacity:1;fill-rule:nonzero;stroke:none"
         id="path3688"
         inkscape:connector-curvature="0" />
    </g>
    <g
       id="g3690"
       transform="matrix(1.25,0,0,-1.25,771.479,453.99345)">
      <path
         d="M 0,0 C -0.17,-0.115 -0.51,0.422 -0.62,0.677 L -0.68,0.522 c 0.19,-0.399 0.46,-0.726 0.58,-0.673 0.15,0.066 0.18,0.166 0.21,0.265 l 0,0.019 L 0,0"
         style="fill:#58595b;fill-opacity:1;fill-rule:nonzero;stroke:none"
         id="path3692"
         inkscape:connector-curvature="0" />
    </g>
    <g
       id="g3694"
       transform="matrix(1.25,0,0,-1.25,768.1665,468.1847)">
      <path
         d="m 0,0 c -0.06,1.432 -0.39,1.349 -0.51,1.349 -0.12,0 -0.12,-0.136 -0.3,-0.323 C -1,0.84 -0.83,-0.288 -0.8,-0.506 l 0.03,-0.144 c 0.27,0.142 0.52,0.269 0.78,0.4 L 0,0"
         style="fill:#a7a9ac;fill-opacity:1;fill-rule:nonzero;stroke:none"
         id="path3696"
         inkscape:connector-curvature="0" />
    </g>
    <g
       id="g3698"
       transform="matrix(1.25,0,0,-1.25,766.104,466.34845)">
      <path
         d="m 0,0 c -0.22,0.54 -0.7,0.505 -0.85,0.437 -0.15,-0.064 0.09,-0.455 0.1,-0.627 0.02,-0.17 0.19,-0.373 0.19,-0.75 0,-0.695 0.12,-1.291 0.3,-1.8 0.34,0.19 0.67,0.372 1,0.546 -0.16,0.513 -0.4,0.84 -0.57,1.068 C 0.17,-0.989 0.22,-0.547 0,0"
         style="fill:#a7a9ac;fill-opacity:1;fill-rule:nonzero;stroke:none"
         id="path3700"
         inkscape:connector-curvature="0" />
    </g>
    <g
       id="g3702"
       transform="matrix(1.25,0,0,-1.25,780.3915,627.1497)">
      <path
         d="m 0,0 c -1.23,-0.356 -2.77,-0.687 -4.59,-0.973 l 6.86,-24.536 c 2.35,0.39 4.4,0.837 6.06,1.329 l 0,0.004 C 8.35,-24.084 0.18,-0.496 0,0"
         style="fill:#ffcf00;fill-opacity:1;fill-rule:nonzero;stroke:none"
         id="path3704"
         inkscape:connector-curvature="0" />
    </g>
    <g
       id="g3706"
       transform="matrix(1.25,0,0,-1.25,783.2165,625.6422)">
      <path
         d="M 0,0 C -0.48,-0.237 -1.12,-0.464 -1.9,-0.676 -2.32,-0.85 -2.79,-1.049 -3.38,-1.292 l -0.07,-0.022 c -0.23,-0.087 -0.58,-0.082 -1.43,0.005 -0.42,-0.07 -0.85,-0.141 -1.31,-0.208 -0.21,-0.219 -0.5,-0.252 -0.6,-0.256 L -9,-2.009 c -3.89,-0.422 -5.9,-0.559 -6.12,-0.559 0,0 -0.17,0.009 -0.33,0.087 -0.12,0.033 -0.23,0.079 -0.35,0.124 -0.95,-0.041 -1.92,-0.078 -2.92,-0.103 l -0.01,-0.016 c -0.3,-0.307 -0.76,-0.282 -0.91,-0.269 -0.64,0.041 -9.08,0.148 -9.91,0.148 -0.17,-0.008 -0.58,-0.008 -0.77,0.244 l -0.03,0.059 c -6.95,0.373 -12.37,1.225 -14.52,2.294 -0.59,0.305 -0.96,0.624 -1.02,0.943 -0.01,-0.037 -0.04,-0.36 0.09,-0.558 0.29,-0.44 1.07,-0.875 2.24,-1.289 -0.07,-0.083 -0.14,-0.181 -0.21,-0.331 -0.13,-0.318 -8.28,-23.03 -8.4,-23.274 -0.06,-0.128 -0.09,-0.298 -0.06,-0.476 2.73,-0.977 6.88,-1.796 11.96,-2.372 l 4.47,24.719 c 0,0 5.26,-0.426 7.27,-0.451 1.92,-0.091 3.95,-0.145 6.1,-0.145 12.95,0 22.16,1.826 23.36,3.619 0.13,0.198 0.1,0.521 0.09,0.558 C 0.96,0.624 0.59,0.305 0,0"
         style="fill:#ffeba8;fill-opacity:1;fill-rule:nonzero;stroke:none"
         id="path3708"
         inkscape:connector-curvature="0" />
    </g>
    <g
       id="g3710"
       transform="matrix(1.25,0,0,-1.25,748.8915,648.60345)">
      <path
         d="M 0,0 1.01,9.384 3.36,9.815 3.84,9.298 3.43,-0.555 0.48,-0.518 0,0"
         style="fill:#58595b;fill-opacity:1;fill-rule:nonzero;stroke:none"
         id="path3712"
         inkscape:connector-curvature="0" />
    </g>
    <g
       id="g3714"
       transform="matrix(1.25,0,0,-1.25,755.404,648.5722)">
      <path
         d="M 0,0 0.31,9.211 6.87,9.856 7,9.215 6.36,7.323 l -3.24,0 0,-2.203 2.5,0.646 L 5.9,5.12 5.21,3.204 3.12,3.204 3.1,-0.58 0.29,-0.58 0,0"
         style="fill:#58595b;fill-opacity:1;fill-rule:nonzero;stroke:none"
         id="path3716"
         inkscape:connector-curvature="0" />
    </g>
    <g
       id="g3718"
       transform="matrix(1.25,0,0,-1.25,738.404,647.93095)">
      <path
         d="M 0,0 1.59,9.223 7.62,9.439 8.13,8.871 7.27,6.93 4.06,7.104 3.82,4.918 5.96,5.341 6.47,4.773 5.6,2.856 3.6,2.964 3.18,-0.712 0.5,-0.568 0,0"
         style="fill:#58595b;fill-opacity:1;fill-rule:nonzero;stroke:none"
         id="path3720"
         inkscape:connector-curvature="0" />
    </g>
    <g
       id="g3722"
       transform="matrix(1.25,0,0,-1.25,766.5665,644.97095)">
      <path
         d="M 0,0 0.97,4.161 2.45,0.223 0,0 Z M 6.58,-2.078 1.97,6.491 -0.27,7.016 -1,6.334 l -2.2,-9.597 3.08,0.174 0.25,0.535 -0.44,0.679 3.41,0.182 0.51,-1.081 2.56,0.174 0.41,0.522"
         style="fill:#58595b;fill-opacity:1;fill-rule:nonzero;stroke:none"
         id="path3724"
         inkscape:connector-curvature="0" />
    </g>
    <g
       id="g3726"
       transform="matrix(1.25,0,0,-1.25,749.5415,636.2247)">
      <path
         d="M 0,0 2.84,-0.088 2.42,-9.94 -0.52,-9.903 0,0"
         style="fill:#ffffff;fill-opacity:1;fill-rule:nonzero;stroke:none"
         id="path3728"
         inkscape:connector-curvature="0" />
    </g>
    <g
       id="g3730"
       transform="matrix(1.25,0,0,-1.25,755.429,636.2522)">
      <path
         d="m 0,0 6.85,0 -0.67,-1.942 -3.37,0 0,-2.148 2.79,0 -0.69,-1.916 -2.1,0 -0.02,-3.85 -2.81,0 L 0,0"
         style="fill:#ffffff;fill-opacity:1;fill-rule:nonzero;stroke:none"
         id="path3732"
         inkscape:connector-curvature="0" />
    </g>
    <g
       id="g3734"
       transform="matrix(1.25,0,0,-1.25,739.7665,635.6872)">
      <path
         d="M 0,0 6.53,-0.356 5.68,-2.298 2.46,-2.124 2.22,-4.31 4.87,-4.454 4,-6.368 2,-6.264 1.59,-9.94 -1.09,-9.795 0,0"
         style="fill:#ffffff;fill-opacity:1;fill-rule:nonzero;stroke:none"
         id="path3736"
         inkscape:connector-curvature="0" />
    </g>
    <g
       id="g3738"
       transform="matrix(1.25,0,0,-1.25,767.4665,644.1222)">
      <path
         d="M 0,0 0.75,4.06 2.23,0.128 0,0 Z M 1.97,6.491 -0.99,6.337 -3.24,-3.4 l 2.65,0.167 0.29,1.267 3.16,0.203 0.5,-1.156 2.5,0.162 -3.89,9.248"
         style="fill:#ffffff;fill-opacity:1;fill-rule:nonzero;stroke:none"
         id="path3740"
         inkscape:connector-curvature="0" />
    </g>
    <g
       id="g3742"
       transform="matrix(1.25,0,0,-1.25,773.204,635.8272)">
      <path
         d="M 0,0 C 0.62,0.075 1.18,-0.369 1.26,-0.985 1.33,-1.601 0.9,-2.17 0.28,-2.244 -0.34,-2.318 -0.91,-1.88 -0.98,-1.262 -1.06,-0.642 -0.62,-0.079 0,0"
         style="fill:#58595b;fill-opacity:1;fill-rule:nonzero;stroke:none"
         id="path3744"
         inkscape:connector-curvature="0" />
    </g>
    <g
       id="g3746"
       transform="matrix(1.25,0,0,-1.25,773.679,636.9147)">
      <path
         d="M 0,0 C 0.12,0.017 0.2,0.05 0.19,0.187 0.17,0.311 0.03,0.311 -0.07,0.299 L -0.25,0.278 -0.22,-0.024 0,0 Z m -0.54,0.447 0.46,0.054 C 0.23,0.538 0.42,0.473 0.45,0.195 0.48,-0.024 0.36,-0.128 0.17,-0.17 l 0.39,-0.484 -0.27,-0.036 -0.35,0.484 -0.13,-0.021 0.06,-0.509 -0.26,-0.033 -0.15,1.216 z m 0.62,-1.415 c 0.44,0.053 0.74,0.443 0.68,0.952 C 0.69,0.485 0.31,0.791 -0.13,0.737 -0.57,0.684 -0.86,0.294 -0.8,-0.211 c 0.06,-0.505 0.44,-0.811 0.88,-0.757 z m -0.24,1.95 C 0.45,1.056 1,0.621 1.07,0.022 1.15,-0.583 0.71,-1.138 0.11,-1.209 c -0.6,-0.074 -1.16,0.357 -1.23,0.961 -0.07,0.605 0.36,1.155 0.96,1.23"
         style="fill:#ffffff;fill-opacity:1;fill-rule:nonzero;stroke:none"
         id="path3748"
         inkscape:connector-curvature="0" />
    </g>
    <g
       id="g3750"
       transform="matrix(1.25,0,0,-1.25,740.529,653.55595)">
      <path
         d="m 0,0 c -0.19,-0.025 -0.38,-0.034 -0.57,-0.013 -0.78,0.091 -1.28,0.56 -1.18,1.396 0.1,0.843 0.66,1.258 1.48,1.163 C -0.12,2.525 0.09,2.467 0.26,2.377 L 0.18,1.963 C 0.01,2.091 -0.16,2.135 -0.33,2.157 -0.83,2.215 -1.18,1.863 -1.24,1.353 -1.3,0.852 -1.04,0.439 -0.52,0.377 -0.33,0.352 -0.1,0.369 0.02,0.418 L 0,0"
         style="fill:#58595b;fill-opacity:1;fill-rule:nonzero;stroke:none"
         id="path3752"
         inkscape:connector-curvature="0" />
    </g>
    <g
       id="g3754"
       transform="matrix(1.25,0,0,-1.25,741.279,650.5022)">
      <path
         d="M 0,0 0.48,-0.05 0.29,-2.137 1.23,-2.228 1.19,-2.621 -0.23,-2.48 0,0"
         style="fill:#58595b;fill-opacity:1;fill-rule:nonzero;stroke:none"
         id="path3756"
         inkscape:connector-curvature="0" />
    </g>
    <g
       id="g3758"
       transform="matrix(1.25,0,0,-1.25,743.354,650.72095)">
      <path
         d="M 0,0 0.49,-0.042 0.38,-1.473 C 0.34,-1.899 0.45,-2.185 0.83,-2.215 1.2,-2.248 1.35,-1.978 1.39,-1.556 L 1.5,-0.124 1.99,-0.165 1.86,-1.751 C 1.81,-2.413 1.42,-2.657 0.8,-2.611 0.17,-2.558 -0.17,-2.252 -0.12,-1.586 L 0,0"
         style="fill:#58595b;fill-opacity:1;fill-rule:nonzero;stroke:none"
         id="path3760"
         inkscape:connector-curvature="0" />
    </g>
    <g
       id="g3762"
       transform="matrix(1.25,0,0,-1.25,746.954,652.2572)">
      <path
         d="M 0,0 0.2,-0.008 C 0.4,-0.021 0.66,0.011 0.67,0.269 0.69,0.554 0.44,0.592 0.22,0.604 L 0.03,0.616 0,0 Z m -0.06,-1.088 0.23,-0.014 c 0.23,-0.012 0.51,0.033 0.52,0.32 0.02,0.327 -0.24,0.389 -0.48,0.401 l -0.23,0.013 -0.04,-0.72 z M -0.43,1.035 0.41,0.986 C 0.73,0.969 1.2,0.852 1.17,0.306 1.15,0.009 0.94,-0.187 0.65,-0.223 l 0,-0.009 C 0.98,-0.278 1.2,-0.522 1.18,-0.824 1.15,-1.453 0.59,-1.52 0.29,-1.498 l -0.86,0.045 0.14,2.488"
         style="fill:#58595b;fill-opacity:1;fill-rule:nonzero;stroke:none"
         id="path3764"
         inkscape:connector-curvature="0" />
    </g>
    <g
       id="g3766"
       transform="matrix(1.25,0,0,-1.25,749.8665,651.1397)">
      <path
         d="m 0,0 0.51,-0.008 0.42,-2 0.01,0 0.44,1.988 0.67,-0.013 0.4,-1.995 0.49,1.982 L 3.41,-0.053 2.74,-2.534 2.11,-2.521 1.7,-0.526 1.24,-2.508 0.61,-2.501 0,0"
         style="fill:#58595b;fill-opacity:1;fill-rule:nonzero;stroke:none"
         id="path3768"
         inkscape:connector-curvature="0" />
    </g>
    <g
       id="g3770"
       transform="matrix(1.25,0,0,-1.25,755.8415,653.8572)">
      <path
         d="M 0,0 C 0.5,0.005 0.68,0.46 0.68,0.912 0.67,1.354 0.47,1.797 -0.02,1.793 -0.5,1.789 -0.7,1.338 -0.7,0.904 -0.69,0.453 -0.5,-0.003 0,0 Z M -0.02,2.19 C 0.74,2.195 1.18,1.669 1.19,0.92 1.19,0.166 0.77,-0.38 0,-0.388 -0.78,-0.396 -1.19,0.129 -1.2,0.89 c -0.01,0.767 0.4,1.288 1.18,1.3"
         style="fill:#58595b;fill-opacity:1;fill-rule:nonzero;stroke:none"
         id="path3772"
         inkscape:connector-curvature="0" />
    </g>
    <g
       id="g3774"
       transform="matrix(1.25,0,0,-1.25,758.404,652.4697)">
      <path
         d="M 0,0 0.16,0.005 C 0.4,0.009 0.68,0.05 0.67,0.36 0.67,0.662 0.39,0.679 0.15,0.676 L -0.01,0.671 0,0 Z M -0.5,1.056 0.02,1.064 C 0.54,1.072 1.17,1.105 1.18,0.414 1.18,0.116 1,-0.129 0.69,-0.174 l 0,-0.008 C 0.82,-0.19 0.9,-0.327 0.95,-0.435 L 1.36,-1.399 0.82,-1.412 0.51,-0.638 C 0.43,-0.455 0.37,-0.385 0.17,-0.389 L 0.01,-0.393 0.03,-1.424 -0.46,-1.437 -0.5,1.056"
         style="fill:#58595b;fill-opacity:1;fill-rule:nonzero;stroke:none"
         id="path3776"
         inkscape:connector-curvature="0" />
    </g>
    <g
       id="g3778"
       transform="matrix(1.25,0,0,-1.25,760.454,651.09845)">
      <path
         d="M 0,0 0.49,0.016 0.55,-2.082 1.49,-2.053 1.5,-2.447 0.07,-2.488 0,0"
         style="fill:#58595b;fill-opacity:1;fill-rule:nonzero;stroke:none"
         id="path3780"
         inkscape:connector-curvature="0" />
    </g>
    <g
       id="g3782"
       transform="matrix(1.25,0,0,-1.25,763.304,653.62845)">
      <path
         d="M 0,0 0.27,0.017 C 0.68,0.028 1.06,0.356 1.04,0.899 1.02,1.441 0.61,1.734 0.2,1.718 L -0.07,1.705 0,0 Z m -0.57,2.078 0.67,0.03 c 0.74,0.028 1.41,-0.2 1.44,-1.189 0.05,-0.985 -0.6,-1.27 -1.35,-1.304 l -0.66,-0.025 -0.1,2.488"
         style="fill:#58595b;fill-opacity:1;fill-rule:nonzero;stroke:none"
         id="path3784"
         inkscape:connector-curvature="0" />
    </g>
    <g
       id="g3786"
       transform="matrix(1.25,0,0,-1.25,769.2915,653.7322)">
      <path
         d="m 0,0 c -0.18,-0.054 -0.36,-0.103 -0.55,-0.111 -0.78,-0.059 -1.36,0.302 -1.41,1.142 -0.06,0.853 0.41,1.367 1.24,1.424 0.16,0.008 0.37,-0.005 0.55,-0.062 l 0,-0.422 C -0.36,2.062 -0.53,2.074 -0.71,2.066 -1.21,2.028 -1.5,1.614 -1.46,1.101 c 0.03,-0.5 0.36,-0.861 0.88,-0.827 0.2,0.016 0.42,0.074 0.53,0.144 L 0,0"
         style="fill:#58595b;fill-opacity:1;fill-rule:nonzero;stroke:none"
         id="path3788"
         inkscape:connector-curvature="0" />
    </g>
    <g
       id="g3790"
       transform="matrix(1.25,0,0,-1.25,769.529,650.63595)">
      <path
         d="m 0,0 0.48,0.048 0.14,-1.427 c 0.04,-0.423 0.2,-0.693 0.57,-0.655 0.37,0.041 0.48,0.331 0.44,0.753 L 1.49,0.152 1.98,0.198 2.13,-1.384 C 2.19,-2.05 1.85,-2.361 1.23,-2.418 0.61,-2.485 0.21,-2.249 0.15,-1.582 L 0,0"
         style="fill:#58595b;fill-opacity:1;fill-rule:nonzero;stroke:none"
         id="path3792"
         inkscape:connector-curvature="0" />
    </g>
    <g
       id="g3794"
       transform="matrix(1.25,0,0,-1.25,773.304,651.6672)">
      <path
         d="M 0,0 0.17,0.029 C 0.42,0.058 0.62,0.174 0.58,0.459 0.55,0.746 0.32,0.811 0.07,0.778 L -0.09,0.753 0,0 Z m -0.63,1.076 0.61,0.088 C 0.5,1.238 1.01,1.147 1.09,0.555 1.16,-0.016 0.78,-0.286 0.26,-0.36 L 0.06,-0.389 0.18,-1.325 -0.3,-1.391 -0.63,1.076"
         style="fill:#58595b;fill-opacity:1;fill-rule:nonzero;stroke:none"
         id="path3796"
         inkscape:connector-curvature="0" />
    </g>
    <g
       id="g3798"
       transform="matrix(1.25,0,0,-1.25,740.179,653.11595)">
      <path
         d="m 0,0 c -0.19,-0.025 -0.38,-0.033 -0.57,-0.013 -0.8,0.091 -1.31,0.559 -1.22,1.395 0.11,0.845 0.68,1.259 1.52,1.163 C -0.11,2.525 0.1,2.467 0.27,2.376 L 0.19,1.962 C 0.01,2.091 -0.15,2.136 -0.33,2.156 -0.84,2.215 -1.2,1.863 -1.26,1.353 -1.32,0.853 -1.05,0.439 -0.53,0.376 -0.33,0.352 -0.1,0.368 0.03,0.414 L 0,0"
         style="fill:#ffffff;fill-opacity:1;fill-rule:nonzero;stroke:none"
         id="path3800"
         inkscape:connector-curvature="0" />
    </g>
    <g
       id="g3802"
       transform="matrix(1.25,0,0,-1.25,740.954,650.0622)">
      <path
         d="M 0,0 0.5,-0.05 0.3,-2.137 1.26,-2.228 1.22,-2.621 -0.24,-2.481 0,0"
         style="fill:#ffffff;fill-opacity:1;fill-rule:nonzero;stroke:none"
         id="path3804"
         inkscape:connector-curvature="0" />
    </g>
    <g
       id="g3806"
       transform="matrix(1.25,0,0,-1.25,743.079,650.28095)">
      <path
         d="M 0,0 0.5,-0.041 0.39,-1.474 c -0.04,-0.422 0.07,-0.712 0.45,-0.741 0.38,-0.033 0.54,0.232 0.58,0.659 L 1.53,-0.124 2.03,-0.165 1.9,-1.751 C 1.85,-2.417 1.45,-2.657 0.81,-2.612 0.18,-2.559 -0.18,-2.251 -0.12,-1.585 L 0,0"
         style="fill:#ffffff;fill-opacity:1;fill-rule:nonzero;stroke:none"
         id="path3808"
         inkscape:connector-curvature="0" />
    </g>
    <g
       id="g3810"
       transform="matrix(1.25,0,0,-1.25,746.754,651.81845)">
      <path
         d="M 0,0 0.21,-0.007 C 0.42,-0.019 0.68,0.014 0.7,0.27 0.71,0.559 0.46,0.592 0.23,0.605 L 0.04,0.618 0,0 Z M -0.05,-1.088 0.18,-1.1 c 0.23,-0.013 0.52,0.029 0.53,0.318 0.02,0.327 -0.24,0.39 -0.49,0.401 l -0.23,0.013 -0.04,-0.72 z M -0.44,1.036 0.43,0.987 C 0.75,0.97 1.23,0.853 1.2,0.308 1.18,0.009 0.97,-0.185 0.67,-0.222 l 0,-0.009 C 1.01,-0.277 1.23,-0.521 1.21,-0.827 1.18,-1.453 0.61,-1.514 0.29,-1.498 l -0.86,0.045 0.13,2.489"
         style="fill:#ffffff;fill-opacity:1;fill-rule:nonzero;stroke:none"
         id="path3812"
         inkscape:connector-curvature="0" />
    </g>
    <g
       id="g3814"
       transform="matrix(1.25,0,0,-1.25,749.729,650.6997)">
      <path
         d="m 0,0 0.53,-0.009 0.43,-1.999 0.01,0 0.45,1.987 0.68,-0.007 0.41,-2 0.01,0 0.49,1.983 0.49,-0.009 -0.69,-2.48 -0.64,0.013 -0.42,1.995 -0.01,0 L 1.27,-2.509 0.63,-2.501 0,0"
         style="fill:#ffffff;fill-opacity:1;fill-rule:nonzero;stroke:none"
         id="path3816"
         inkscape:connector-curvature="0" />
    </g>
    <g
       id="g3818"
       transform="matrix(1.25,0,0,-1.25,755.8415,653.4172)">
      <path
         d="M 0,0 C 0.52,0.009 0.7,0.46 0.7,0.911 0.69,1.355 0.48,1.797 -0.01,1.793 -0.51,1.789 -0.71,1.338 -0.7,0.898 -0.7,0.452 -0.51,-0.004 0,0 Z M -0.02,2.187 C 0.76,2.194 1.21,1.669 1.22,0.92 c 0,-0.754 -0.42,-1.3 -1.21,-1.309 -0.8,-0.007 -1.23,0.518 -1.23,1.28 -0.01,0.765 0.41,1.287 1.2,1.296"
         style="fill:#ffffff;fill-opacity:1;fill-rule:nonzero;stroke:none"
         id="path3820"
         inkscape:connector-curvature="0" />
    </g>
    <g
       id="g3822"
       transform="matrix(1.25,0,0,-1.25,758.4665,652.03095)">
      <path
         d="M 0,0 0.17,0.005 C 0.41,0.009 0.7,0.047 0.69,0.361 0.69,0.663 0.41,0.68 0.16,0.676 L -0.01,0.671 0,0 Z m -0.51,1.053 0.53,0.012 c 0.54,0.008 1.18,0.037 1.19,-0.65 0,-0.294 -0.19,-0.542 -0.5,-0.587 l 0,-0.009 C 0.84,-0.189 0.92,-0.326 0.98,-0.433 L 1.4,-1.398 0.84,-1.407 0.53,-0.636 c -0.08,0.182 -0.15,0.252 -0.36,0.249 l -0.16,-0.005 0.02,-1.031 -0.5,-0.013 -0.04,2.489"
         style="fill:#ffffff;fill-opacity:1;fill-rule:nonzero;stroke:none"
         id="path3824"
         inkscape:connector-curvature="0" />
    </g>
    <g
       id="g3826"
       transform="matrix(1.25,0,0,-1.25,760.5665,650.65345)">
      <path
         d="m 0,0 0.5,0.014 0.06,-2.1 0.97,0.028 L 1.54,-2.45 0.07,-2.492 0,0"
         style="fill:#ffffff;fill-opacity:1;fill-rule:nonzero;stroke:none"
         id="path3828"
         inkscape:connector-curvature="0" />
    </g>
    <g
       id="g3830"
       transform="matrix(1.25,0,0,-1.25,763.479,653.18845)">
      <path
         d="M 0,0 0.28,0.016 C 0.69,0.028 1.08,0.355 1.06,0.898 1.04,1.44 0.62,1.734 0.21,1.717 L -0.07,1.705 0,0 Z M -0.59,2.078 0.1,2.107 C 0.86,2.135 1.54,1.908 1.58,0.923 1.63,-0.066 0.96,-0.352 0.2,-0.385 l -0.68,-0.029 -0.11,2.492"
         style="fill:#ffffff;fill-opacity:1;fill-rule:nonzero;stroke:none"
         id="path3832"
         inkscape:connector-curvature="0" />
    </g>
    <g
       id="g3834"
       transform="matrix(1.25,0,0,-1.25,769.604,653.29095)">
      <path
         d="m 0,0 c -0.18,-0.055 -0.37,-0.105 -0.56,-0.113 -0.8,-0.057 -1.39,0.302 -1.45,1.143 -0.06,0.852 0.43,1.361 1.27,1.424 0.17,0.012 0.39,-0.008 0.57,-0.063 l 0,-0.422 C -0.37,2.061 -0.54,2.073 -0.72,2.064 -1.23,2.028 -1.53,1.613 -1.49,1.1 c 0.03,-0.501 0.37,-0.861 0.9,-0.828 0.2,0.017 0.43,0.074 0.54,0.141 L 0,0"
         style="fill:#ffffff;fill-opacity:1;fill-rule:nonzero;stroke:none"
         id="path3836"
         inkscape:connector-curvature="0" />
    </g>
    <g
       id="g3838"
       transform="matrix(1.25,0,0,-1.25,769.8415,650.1972)">
      <path
         d="M 0,0 0.5,0.05 0.64,-1.379 C 0.68,-1.805 0.85,-2.07 1.22,-2.033 1.6,-1.992 1.71,-1.702 1.67,-1.28 L 1.53,0.149 2.03,0.198 2.18,-1.384 C 2.25,-2.05 1.89,-2.36 1.26,-2.423 0.63,-2.484 0.22,-2.248 0.16,-1.582 L 0,0"
         style="fill:#ffffff;fill-opacity:1;fill-rule:nonzero;stroke:none"
         id="path3840"
         inkscape:connector-curvature="0" />
    </g>
    <g
       id="g3842"
       transform="matrix(1.25,0,0,-1.25,773.7165,651.2272)">
      <path
         d="M 0,0 0.17,0.028 C 0.42,0.058 0.63,0.174 0.59,0.459 0.56,0.74 0.33,0.815 0.07,0.778 L -0.1,0.753 0,0 Z m -0.65,1.076 0.62,0.087 C 0.51,1.237 1.02,1.146 1.11,0.555 1.19,-0.017 0.79,-0.286 0.26,-0.36 L 0.05,-0.39 0.18,-1.324 -0.31,-1.391 -0.65,1.076"
         style="fill:#ffffff;fill-opacity:1;fill-rule:nonzero;stroke:none"
         id="path3844"
         inkscape:connector-curvature="0" />
    </g>
    <g
       id="g3846"
       transform="matrix(1.25,0,0,-1.25,802.679,657.67595)">
      <path
         d="m 0,0 0,-1.142 -0.46,0 0,2.807 0.46,0 0,-1.143 3.21,0 L 3.21,0 0,0"
         style="fill:#231f20;fill-opacity:1;fill-rule:nonzero;stroke:none"
         id="path3848"
         inkscape:connector-curvature="0" />
    </g>
    <g
       id="g3850"
       transform="matrix(1.25,0,0,-1.25,802.104,654.9272)">
      <path
         d="M 0,0 0,0.869 3.05,2.021 0,3.147 l 0,0.869 3.67,0 0,-0.526 -3.18,0 0,-0.005 3.18,-1.216 0,-0.518 -3.18,-1.213 0,-0.013 3.18,0 L 3.67,0 0,0"
         style="fill:#231f20;fill-opacity:1;fill-rule:nonzero;stroke:none"
         id="path3852"
         inkscape:connector-curvature="0" />
    </g>
    <g
       id="g3854"
       transform="matrix(1.25,0,0,-1.25,804.8665,644.5622)">
      <path
         d="m 0,0 c 0.59,-0.092 0.93,-0.522 0.93,-1.026 0,-0.742 -0.56,-1.222 -1.3,-1.222 -0.75,0 -1.3,0.447 -1.3,1.205 0,0.521 0.31,0.968 0.89,1.043 l 0,-0.431 c -0.29,-0.062 -0.48,-0.298 -0.48,-0.608 0,-0.497 0.38,-0.754 0.87,-0.754 0.52,0 0.91,0.281 0.91,0.767 0,0.318 -0.19,0.554 -0.52,0.595 L 0,0 Z m 1.35,-1.081 c 0,0.898 -0.72,1.623 -1.72,1.623 -1.01,0 -1.73,-0.725 -1.73,-1.623 0,-0.898 0.72,-1.627 1.73,-1.627 1,0 1.72,0.729 1.72,1.627 z m -3.87,0 c 0,1.185 0.96,2.149 2.15,2.149 1.18,0 2.14,-0.964 2.14,-2.149 0,-1.184 -0.96,-2.148 -2.14,-2.148 -1.19,0 -2.15,0.964 -2.15,2.148"
         style="fill:#231f20;fill-opacity:1;fill-rule:nonzero;stroke:none"
         id="path3856"
         inkscape:connector-curvature="0" />
    </g>
  </g>
</svg>
