<?xml version="1.0" standalone="no"?>
<!DOCTYPE svg PUBLIC "-//W3C//DTD SVG 1.1//EN" "http://www.w3.org/Graphics/SVG/1.1/DTD/svg11.dtd">
<!--Generator: Xara Designer (www.xara.com), SVG filter version: 4.0.0.1-->
<svg stroke-width="0.501" stroke-linejoin="bevel" fill-rule="evenodd" xmlns:xlink="http://www.w3.org/1999/xlink" xmlns="http://www.w3.org/2000/svg" version="1.1" overflow="visible" width="262.5pt" height="169.5pt" viewBox="0 0 262.5 169.5">
 <defs>
  <marker id="DefaultArrow2" markerUnits="strokeWidth" viewBox="0 0 1 1" markerWidth="1" markerHeight="1" overflow="visible" orient="auto">
   <!-- REF_ARROW_STRAIGHT (-2) -->
   <g transform="scale(0.0092592592)">
    <!-- 1/108 -->
    <path d="M -9 54 L -9 -54 L 117 0 z"/>
   </g>
  </marker>
  <marker id="DefaultArrow3" markerUnits="strokeWidth" viewBox="0 0 1 1" markerWidth="1" markerHeight="1" overflow="visible" orient="auto">
   <!-- REF_ARROW_ANGLED -->
   <g transform="scale(0.0092592592)">
    <path d="M -27 54 L -9 0 L -27 -54 L 135 0 z"/>
   </g>
  </marker>
  <marker id="DefaultArrow4" markerUnits="strokeWidth" viewBox="0 0 1 1" markerWidth="1" markerHeight="1" overflow="visible" orient="auto">
   <!-- REF_ARROW_ROUNDED -->
   <g transform="scale(0.0092592592)">
    <path d="M -9,0 L -9,-45 C -9,-51.708 2.808,-56.580 9,-54 L 117,-9 C 120.916,-7.369 126.000,-4.242 126,0 C 126,4.242 120.916,7.369 117,9 L 9,54 C 2.808,56.580 -9,51.708 -9,45 z"/>
   </g>
  </marker>
  <marker id="DefaultArrow5" markerUnits="strokeWidth" viewBox="0 0 1 1" markerWidth="1" markerHeight="1" overflow="visible" orient="auto">
   <!-- REF_ARROW_SPOT -->
   <g transform="scale(0.0092592592)">
    <path d="M -54, 0 C -54,29.807 -29.807,54 0,54 C 29.807,54 54,29.807 54,0 C 54,-29.807 29.807,-54 0,-54 C -29.807,-54 -54,-29.807 -54,0 z"/>
   </g>
  </marker>
  <marker id="DefaultArrow6" markerUnits="strokeWidth" viewBox="0 0 1 1" markerWidth="1" markerHeight="1" overflow="visible" orient="auto">
   <!-- REF_ARROW_DIAMOND -->
   <g transform="scale(0.0092592592)">
    <path d="M -63,0 L 0,63 L 63,0 L 0,-63 z"/>
   </g>
  </marker>
  <marker id="DefaultArrow7" markerUnits="strokeWidth" viewBox="0 0 1 1" markerWidth="1" markerHeight="1" overflow="visible" orient="auto">
   <!-- REF_ARROW_FEATHER -->
   <g transform="scale(0.0092592592)">
    <path d="M 18,-54 L 108,-54 L 63,0 L 108,54 L 18, 54 L -36,0 z"/>
   </g>
  </marker>
  <marker id="DefaultArrow8" markerUnits="strokeWidth" viewBox="0 0 1 1" markerWidth="1" markerHeight="1" overflow="visible" orient="auto">
   <!-- REF_ARROW_FEATHER2 -->
   <g transform="scale(0.0092592592)">
    <path d="M -36,0 L 18,-54 L 54,-54 L 18,-18 L 27,-18 L 63,-54 L 99,-54 L 63,-18 L 72,-18 L 108,-54 L 144,-54 L 90,0 L 144,54 L 108,54 L 72,18 L 63,18 L 99,54 L 63,54 L 27,18 L 18,18 L 54,54 L 18,54 z"/>
   </g>
  </marker>
  <marker id="DefaultArrow9" markerUnits="strokeWidth" viewBox="0 0 1 1" markerWidth="1" markerHeight="1" overflow="visible" orient="auto">
   <!-- REF_ARROW_HOLLOWDIAMOND -->
   <g transform="scale(0.0092592592)">
    <path d="M 0,45 L -45,0 L 0, -45 L 45, 0 z M 0, 63 L-63, 0 L 0, -63 L 63, 0 z"/>
   </g>
  </marker>
  <filter id="StainedFilter">
   <feBlend mode="multiply" in2="BackgroundImage" in="SourceGraphic" result="blend"/>
   <feComposite in="blend" in2="SourceAlpha" operator="in" result="comp"/>
  </filter>
  <filter id="BleachFilter">
   <feBlend mode="screen" in2="BackgroundImage" in="SourceGraphic" result="blend"/>
   <feComposite in="blend" in2="SourceAlpha" operator="in" result="comp"/>
  </filter>
  <filter id="InvertTransparencyBitmapFilter">
   <feComponentTransfer>
    <feFuncR type="gamma" amplitude="1.055" exponent=".416666666" offset="-0.055"/>
    <feFuncG type="gamma" amplitude="1.055" exponent=".416666666" offset="-0.055"/>
    <feFuncB type="gamma" amplitude="1.055" exponent=".416666666" offset="-0.055"/>
   </feComponentTransfer>
   <feComponentTransfer>
    <feFuncR type="linear" slope="-1" intercept="1"/>
    <feFuncG type="linear" slope="-1" intercept="1"/>
    <feFuncB type="linear" slope="-1" intercept="1"/>
    <feFuncA type="linear" slope="1" intercept="0"/>
   </feComponentTransfer>
   <feComponentTransfer>
    <feFuncR type="gamma" amplitude="1" exponent="2.4" offset="0"/>
    <feFuncG type="gamma" amplitude="1" exponent="2.4" offset="0"/>
    <feFuncB type="gamma" amplitude="1" exponent="2.4" offset="0"/>
   </feComponentTransfer>
  </filter>
 </defs>
 <g id="Document" fill="none" stroke="black" font-family="Times New Roman" font-size="16" transform="scale(1 -1)">
  <g id="Spread" transform="translate(0 -169.5)">
   <g id="SVG Document">
    <path d="M 130.016,110.365 C 127.629,123.751 125.798,123.47 115.959,126.51 C 113.209,127.221 109.328,130.581 107.519,133.636 C 104.478,138.771 100.108,146.422 97.687,148.839 C 86.858,159.667 71.611,164.306 55.261,164.306 L 5.659,164.306 L 5.659,6.967 L 55.261,6.967 C 71.611,6.967 85.123,11.05 97.687,22.435 C 108.35,32.101 113.531,42.783 112.472,45.309 C 112.472,45.309 110.596,45.842 110.576,46.158 C 114.092,51.008 112.995,53.636 112.417,58.772 C 111.331,55.897 104.182,48.765 103.208,51.796 C 101.244,57.911 104.971,78.688 106.714,80.479 L 109.056,83.248 C 109.668,82.685 114.016,83.608 114.663,82.364 C 116.214,79.02 116.314,77.224 116.916,70.643 C 122.092,75.373 123.311,80.289 123.472,87.3 C 123.472,87.3 124.454,87.851 127.703,88.974 C 131.024,95.942 131.886,103.795 130.016,110.365" fill="#ffffff" stroke="#ffffff" stroke-opacity="0.498039" fill-rule="nonzero" stroke-linejoin="miter" stroke-width="0.25" stroke-miterlimit="79.8403193612775" fill-opacity="0.498039"/>
    <g id="Group" stroke="none" fill="#2350a9" fill-rule="nonzero" stroke-linejoin="miter" stroke-width="1" stroke-miterlimit="79.8403193612775">
     <path d="M 126.428,91.297 C 124.624,92.932 123.526,94.157 122.147,94.973 C 122.769,96.593 123.109,100.124 123.17,102.612 C 125.171,104.458 126.019,106.287 126.69,108.109 C 128.561,102.723 128.477,96.131 126.428,91.297 M 121.174,113.053 C 116.811,110.109 111.92,114.689 115.311,115.661 C 115.346,115.657 115.381,115.657 115.411,115.652 C 115.411,115.657 115.406,115.657 115.406,115.661 C 115.428,115.657 115.441,115.652 115.461,115.647 C 120.306,115.165 125.246,115.652 126.319,114.478 C 125.718,110.772 124.439,108.204 121.5,104.446 C 120.542,107.29 117.207,109.087 121.174,113.053 M 118.039,74.129 C 118.11,80.077 116.259,82.771 115.051,86.206 C 114.759,86.812 114.468,86.632 114.468,86.632 C 113.917,85.895 114.609,86.824 114.207,84.03 C 113.184,85.509 111.714,87.26 111.714,87.26 C 111.714,87.26 110.63,85.469 109.277,85.74 C 109.023,85.79 106.308,85.844 106.077,85.906 C 105.421,86.066 104.933,86.251 104.899,86.447 C 104.618,85.373 101.886,84.576 101.67,84.139 C 101.459,86.572 102.826,86.934 100.916,87.194 C 100.41,82.595 101.638,79.691 98.87,75.979 C 98.524,80.353 96.484,84.701 95.696,89.02 C 100.906,89.722 107.301,89.992 112.697,90.178 C 114.949,87.52 118.079,87.952 121.399,88.999 C 121.324,83.071 121.003,79.265 118.039,74.129 M 100.049,49.564 C 99.813,49.242 98.032,49.574 98.032,49.574 C 97.816,50.22 97.034,51.123 97.034,51.123 C 96.298,50.812 95.404,49.749 95.404,49.749 C 94.844,53.095 96.458,58.462 96.458,58.462 C 89.872,59.233 85.795,49.925 85.795,49.925 C 74.525,52.363 73.893,71.406 74.445,81.161 C 75.841,82.11 78.859,82.159 81.306,80.393 C 85.735,77.195 87.826,65.549 87.826,65.549 C 90.404,73.792 84.696,82.209 84.696,82.209 C 93.238,85.64 96.447,62.158 96.864,58.711 C 97.667,55.818 100.289,49.879 100.049,49.564 M 96.016,38.625 C 87.606,38.203 75.128,45.988 70.769,53.952 C 66.415,61.917 65.829,70.98 71.054,78.943 C 67.399,62.082 75.699,45.18 96.016,38.625 M 98.826,42.245 C 97.515,42.411 97.23,44.132 97.23,44.132 C 97.23,44.132 96.553,42.155 95.138,42.211 C 93.73,42.262 92.887,44.398 92.887,44.398 C 92.887,44.398 90.754,43.064 88.584,43.54 C 86.406,44.016 87.243,48.029 87.243,48.029 C 87.746,53.713 94.603,56.635 94.603,56.635 C 93.274,54.524 93.248,46.253 93.248,46.253 C 93.248,46.253 95.334,48.394 95.891,47.984 C 96.447,47.568 97.29,45.437 97.29,45.437 C 97.29,45.437 99.031,48.104 99.803,47.698 C 100.575,47.296 100.761,45.356 100.761,45.356 C 101.116,46.092 101.278,46.654 101.955,47.047 C 102.562,45.246 102.847,42.034 101.74,42.162 C 100.325,42.327 100.595,44.046 100.595,44.046 C 100.595,44.046 100.129,42.081 98.826,42.245 M 107.397,41.248 C 95.21,16.568 76.992,10.243 49.689,11.612 C 65.678,16.275 74.867,21.408 75.477,30.93 C 72.218,25.88 57.248,19.591 51.053,23.076 C 61.155,34.548 60.307,54.785 46.608,40.66 C 46.87,47.187 52.161,49.006 56.089,52.442 C 49.694,52.046 41.312,49.974 36.874,33.534 C 30.996,41.293 36.362,58.225 45.566,67.364 C 37.997,80.635 43.294,90.445 45.792,106.142 C 40.887,102.657 33.284,91.227 33.736,75.825 C 18.653,91.789 18.534,132.594 48.968,140.509 C 42.893,139.209 33.799,146.336 21.763,130.01 C 34.071,152.951 41.308,158.82 64.865,153.679 C 64.865,153.679 62.919,157.235 51.349,159.462 C 56.831,159.822 71.345,160.506 85.629,151.15 C 98.76,142.545 101.091,138.728 102.958,135.102 C 92.174,139.52 89.16,138.593 75.041,147.99 C 86.472,137.528 113.696,125.356 107.728,127.498 C 99.697,126.425 84.743,122.885 79.968,115.932 C 89.412,123.551 102.763,123.531 109.161,123.445 C 116.348,123.35 124.384,123.477 126.846,116.665 C 122.658,117.387 117.207,118.17 114.433,117.788 C 112.995,117.759 113.049,114.92 109.613,115.661 C 107.246,116.73 104.031,116.966 101.459,118.124 C 109.749,111.629 117.858,107.277 118.886,104.333 C 123.44,80.99 75.233,104.442 63.852,70.934 C 63.557,73.502 62.759,78.02 62.985,80.227 C 63.176,82.113 71.667,95.651 92.671,95.479 C 77.551,99.954 63.482,86.659 63.572,87.153 C 63.958,89.341 65.047,91.011 65.156,91.989 C 72.313,98.955 76.847,102.788 87.285,103.555 C 77.866,104.061 73.999,102.006 67.654,97.832 C 68.086,98.971 69.014,101.393 73.141,104.994 C 77.269,108.595 87.931,111.253 95.962,108.746 C 85.318,112.251 80.354,110.833 73.582,107.808 C 66.807,104.777 59.966,89.215 60.176,78.272 C 60.383,67.322 65.252,54.579 69.937,49.974 C 77.455,42.588 93.038,28.425 107.397,41.248 M 103.033,48.786 C 107.402,49.068 110.846,53.691 110.846,53.691 C 108.776,45.165 103.459,42.13 103.459,42.13 C 103.52,44.152 102.643,48.215 103.033,48.786 M 130.016,110.365 C 127.629,123.751 125.798,123.47 115.959,126.51 C 111.349,127.935 107.457,133.839 107.457,133.839 C 107.451,133.853 107.442,133.868 107.437,133.882 C 107.437,133.882 101.58,144.952 97.687,148.839 C 86.858,159.667 71.611,164.306 55.261,164.306 L 5.659,164.306 L 5.659,6.967 L 55.261,6.967 C 71.611,6.967 85.123,11.05 97.687,22.435 C 108.35,32.101 113.531,42.783 112.472,45.309 C 112.472,45.309 110.596,45.842 110.576,46.158 C 114.092,51.008 112.995,53.636 112.417,58.772 C 110.352,55.091 104.984,49.635 103.208,51.796 C 101.699,61.013 105.505,79.105 106.714,80.479 L 109.056,83.248 C 109.668,82.685 114.016,83.608 114.663,82.364 C 116.214,79.02 116.314,77.224 116.916,70.643 C 122.092,75.373 123.311,80.289 123.472,87.3 C 123.472,87.3 124.454,87.851 127.703,88.974 C 131.024,95.942 131.886,103.795 130.016,110.365"/>
     <path d="M 64.9,129.364 C 68.297,129.194 71.857,131.084 74.986,130.677 C 75.217,130.568 75.477,130.462 75.75,130.353 C 75.191,129.821 74.841,129.074 74.841,128.246 C 74.841,127.663 75.012,127.122 75.308,126.666 C 71.527,126.777 67.839,127.547 64.9,129.364 M 80.574,129.003 C 82.621,128.552 84.688,128.196 86.106,127.955 C 84.316,127.489 82.36,127.122 80.344,126.896 C 80.554,127.298 80.673,127.759 80.673,128.246 C 80.673,128.507 80.639,128.757 80.574,129.003 M 71.307,137.901 C 72.133,135.98 72.368,135.814 73.614,134.083 C 65.403,133.06 63.789,130.016 57.222,131.617 C 64.725,125.964 67.183,122.894 76.877,123.601 C 68.947,121.776 56.706,107.953 55.131,103.79 C 70.512,118.732 77.43,123.883 97.647,129.546 C 86.362,130.367 82.225,130.899 71.307,137.901"/>
    </g>
    <g id="Group_1" stroke-linejoin="miter" stroke="none" stroke-width="0.056" stroke-miterlimit="79.8403193612775">
     <path d="M 143.038,149.907 L 260.504,149.86 L 260.656,63.37 C 259.765,37.998 227.86,16.635 201.599,5.216 C 176.964,15.306 142.966,39.129 143.231,63.756 L 143.038,149.907 Z" fill="#2350a9" marker-start="none" marker-end="none"/>
     <path d="M 145.551,147.042 L 258.171,147.196 L 257.925,63.563 C 257.033,38.191 228.067,20.045 201.731,8.034 C 177.383,18.836 145.219,38.936 145.484,63.563 L 145.551,147.042 Z" fill="#ffef00" marker-start="none" marker-end="none"/>
     <path d="M 148.29,144.231 L 255.026,144.231 L 255.212,63.563 C 255.126,44.16 229.981,24.126 201.711,10.926 C 175.967,22.345 148.15,42.598 148.29,63.563 L 148.29,144.231 Z" fill="#2350a9" marker-start="none" marker-end="none"/>
     <path d="M 201.771,10.54 L 193.735,14.562 L 193.735,79.695 L 147.293,79.695 L 147.293,94.969 L 193.735,94.969 L 193.735,146.012 L 209.016,146.012 L 209.016,94.969 L 256.196,94.969 L 256.196,79.695 L 209.016,79.695 L 209.003,14.169 L 201.771,10.54 Z" fill="#ffef00" marker-start="none" marker-end="none"/>
     <g id="Group_2" fill="#ffffff">
      <path d="M 179.803,41.229 C 179.444,41.289 178.905,40.378 178.733,39.747 C 178.26,40.869 179.045,41.243 178.56,41.555 C 178.081,41.861 177.476,41.11 177.104,40.817 C 177.064,41.542 178.048,42.267 177.848,42.539 C 177.668,42.764 176.911,42.425 176.32,42.074 C 176.665,42.964 176.998,43.636 177.61,43.955 C 178.393,44.381 179.497,43.543 180.281,43.955 C 180.593,44.127 180.793,44.499 180.873,44.846 C 180.999,45.39 180.967,46.042 180.667,46.507 C 180.201,47.245 178.499,48.01 178.467,47.903 C 178.327,47.411 178.818,46.826 179.211,46.454 C 177.629,46.294 176.971,47.524 176.18,48.441 C 175.516,49.212 175.023,50.216 174.904,51.226 C 174.832,51.938 175.07,52.569 175.356,53.333 C 174.718,54.052 173.688,53.952 172.817,54.084 C 172.245,54.164 171.66,54.104 171.082,54.104 C 170.537,54.11 169.986,54.025 169.447,54.104 C 169.121,54.151 168.816,54.403 168.483,54.383 C 167.705,54.337 166.735,54.151 166.329,53.486 C 166.164,53.213 166.263,53.014 166.422,52.522 C 165.818,52.243 165.479,53.406 164.887,53.613 C 164.336,53.812 163.624,53.406 163.125,53.719 C 162.733,53.971 162.8,54.529 162.468,54.969 C 162.035,55.54 161.804,55.5 160.386,55.593 C 161.137,56.43 162.307,55.68 162.228,56.358 C 162.242,56.69 161.444,56.949 160.307,56.923 C 160.979,57.72 162.102,56.977 162.108,57.693 C 162.122,57.813 161.81,58.266 160.4,58.459 C 161.085,59.229 162.394,58.524 162.468,58.737 C 162.58,59.123 161.836,59.395 161.151,59.681 C 161.703,59.907 162.72,60.146 163.239,59.767 C 164.03,59.182 163.751,57.634 164.582,57.075 C 165.066,56.743 165.851,56.59 166.329,56.923 C 166.748,57.216 166.522,57.953 166.754,58.385 C 166.995,58.837 167.872,58.824 167.679,59.301 C 167.605,59.442 166.928,59.336 165.758,59.036 C 165.963,60.745 167.911,60.126 167.665,60.692 C 167.479,61.117 166.635,60.592 166.276,60.605 C 166.495,62.134 167.173,63.045 168.085,63.915 C 169.088,64.886 170.544,65.471 171.839,65.77 C 172.032,65.823 172.112,66.168 172.072,66.375 C 171.999,66.721 171.654,66.993 171.329,67.118 C 170.863,67.292 170.305,67.212 169.846,67.025 C 169.56,66.906 169.36,66.641 169.147,66.422 C 168.749,66.016 168.436,65.577 168.038,65.125 C 167.519,65.962 167.114,66.361 166.947,67.08 C 166.875,67.398 166.86,67.777 166.995,68.056 C 167.32,67.744 167.758,67.611 168.151,67.685 C 168.37,67.73 168.609,67.884 168.683,68.09 C 168.868,68.581 168.696,69.22 168.357,69.618 C 168.184,69.824 167.872,69.898 167.599,69.924 C 167.372,69.951 167.047,69.957 166.921,69.805 C 166.735,69.586 166.715,69.3 166.641,68.973 C 166.322,69.174 166.137,69.519 165.997,69.85 C 165.857,70.183 165.652,70.728 165.884,71.008 C 166.283,70.961 166.967,70.728 167.015,70.968 C 167.067,71.213 166.383,71.153 165.91,71.274 C 166.123,72.529 168.53,71.832 169.832,72.164 C 170.271,72.277 170.703,72.41 171.142,72.543 C 171.674,72.703 172.172,73.002 172.718,73.048 C 173.926,73.175 175.157,72.922 176.333,72.636 C 177.676,72.31 178.905,71.871 180.207,71.201 C 179.244,70.908 178.912,71.055 178.653,70.782 C 179.511,70.244 179.842,69.792 180.142,69.113 C 180.641,67.949 180.207,66.687 180.487,65.331 C 179.484,67.04 179.318,67.445 178.932,67.904 C 179.151,66.813 179.888,64.926 179.669,63.423 C 179.477,62.062 178.912,60.884 177.868,59.701 C 177.629,60.738 178.168,62.147 178.048,62.758 C 177.536,61.941 177.456,61.476 176.964,60.998 C 176.466,60.518 175.908,60.399 175.177,59.974 C 176.074,59.548 176.313,58.824 176.845,58.212 C 177.536,57.435 177.868,56.185 178.839,55.806 C 179.503,55.54 180.435,55.614 180.973,56.085 C 181.371,56.43 181.364,57.083 181.385,57.614 C 181.451,59.149 180.435,60.625 180.554,62.153 C 180.667,63.609 180.912,65.311 181.99,66.281 C 182.701,66.919 183.831,67.072 184.775,66.934 C 185.659,66.8 186.623,66.348 187.087,65.591 C 187.759,64.507 187.214,63.051 187.32,61.788 C 187.38,61.077 187.167,60.252 187.553,59.655 C 187.852,59.189 188.205,58.936 188.995,58.824 C 188.962,58.246 187.992,58.099 187.414,58.125 C 186.802,58.146 186.31,58.239 185.918,58.711 C 185.626,59.076 185.626,60.014 185.379,60.345 C 185.234,59.9 185.16,59.342 185.014,58.884 C 184.515,59.807 185.114,60.851 185.187,61.834 C 185.254,62.606 185.678,63.416 185.427,64.147 C 185.254,64.633 184.86,65.185 184.357,65.265 C 183.719,65.364 183.026,64.866 182.64,64.334 C 182.063,63.536 182.102,62.4 182.129,61.415 C 182.169,60 183.033,58.697 183.106,57.288 C 183.152,56.31 183.239,55.208 182.734,54.371 C 182.289,53.632 181.251,52.921 180.62,52.908 C 180.248,52.077 180.667,51.007 181.019,50.149 C 181.278,49.518 181.737,48.966 182.243,48.501 C 182.774,48.002 183.325,47.458 184.084,47.324 C 184.084,46.84 183.897,46.92 183.804,46.527 C 183.69,46.022 184.03,45.669 184.103,45.231 C 184.202,44.726 184.283,44.207 184.316,43.688 C 184.336,43.27 184.289,42.971 184.196,42.506 C 184.064,43.077 183.918,43.343 183.584,43.323 C 183.306,43.302 183.333,41.781 182.801,41.289 C 182.255,40.791 181.125,41.062 180.673,40.67 C 180.335,40.392 180.168,40.047 180.035,39.5 C 179.604,40.138 180.035,41.11 179.803,41.229 Z M 170.53,71.034 C 170.875,71.121 171.248,71.287 171.361,71.725 C 170.882,71.606 170.218,71.812 169.84,71.593 C 169.719,71.48 169.793,71.28 169.885,71.181 C 170.038,71.014 170.317,70.988 170.53,71.034 Z" marker-start="none" marker-end="none"/>
      <path d="M 161.417,67.392 C 161.968,67.159 162.654,66.361 162.554,66.182 C 162.414,66.009 161.012,66.834 160.725,66.328 C 161.224,66.168 161.611,65.836 161.769,65.404 C 162.035,64.699 161.417,63.808 161.769,63.144 C 162.149,62.439 163.85,62.606 163.763,61.814 C 163.717,61.363 162.161,61.628 162.488,61.317 C 163.245,60.579 165.272,61.018 166.123,60.951 C 166.263,61.875 166.754,63.025 167.619,63.776 C 166.934,63.989 165.432,63.689 164.974,64.407 C 164.415,65.278 165.951,66.402 165.738,67.418 C 165.565,68.223 164.668,69.154 164.023,69.286 C 164.123,68.807 164.614,68.063 164.308,67.87 C 164.07,67.671 163.371,69.067 162.641,68.654 C 163.066,68.276 163.451,67.572 163.292,67.345 C 163.119,67.118 161.683,67.917 161.417,67.392 Z" marker-start="none" marker-end="none"/>
      <path d="M 170.537,46.959 C 170.498,47.464 170.344,48.368 170.556,48.402 C 170.882,48.248 171.534,47.464 171.72,46.84 C 171.887,46.314 171.887,45.683 171.647,45.177 C 171.435,44.726 171.029,44.24 170.537,44.174 C 169.48,44.034 168.749,45.663 167.679,45.623 C 166.881,45.583 165.512,45.251 165.638,44.36 C 166.223,44.613 167.127,44.938 167.386,44.4 C 167.498,44.121 165.571,44.068 165.864,42.917 C 166.548,43.217 167.446,43.788 167.826,43.25 C 167.958,42.983 166.515,42.033 167.021,41.229 C 167.559,41.767 168.065,42.758 168.569,42.319 C 168.822,42.08 167.293,40.797 167.798,40.359 C 168.297,40.969 168.796,41.07 169.387,41.169 C 169.998,41.275 170.643,40.724 171.242,40.91 C 171.926,41.116 172.139,42.519 172.837,42.359 C 173.202,42.273 173.302,41.948 173.242,41.316 C 174.059,41.343 173.668,42.917 174.02,43.656 C 174.385,44.407 174.751,45.138 175.396,45.742 C 174.691,46.022 173.894,46.966 173.747,47.849 C 173.575,48.847 174.525,49.85 174.725,50.727 C 174.484,51.639 174.771,52.45 175.096,53.32 C 174.046,53.918 172.092,53.865 170.869,53.885 C 169.719,53.387 168.623,52.017 168.53,50.701 C 168.43,49.285 169.068,47.404 170.537,46.959 Z" marker-start="none" marker-end="none"/>
     </g>
     <g id="Group_3" fill="#ffffff">
      <path d="M 236.202,41.229 C 235.843,41.289 235.299,40.378 235.132,39.747 C 234.66,40.869 235.437,41.243 234.953,41.555 C 234.48,41.861 233.875,41.11 233.497,40.817 C 233.458,41.542 234.441,42.267 234.241,42.539 C 234.062,42.764 233.304,42.425 232.712,42.074 C 233.059,42.964 233.39,43.636 234.002,43.955 C 234.793,44.381 235.889,43.543 236.674,43.955 C 236.987,44.127 237.186,44.499 237.265,44.846 C 237.399,45.39 237.352,46.042 237.06,46.507 C 236.594,47.245 234.893,48.01 234.866,47.903 C 234.72,47.411 235.218,46.826 235.604,46.454 C 234.022,46.294 233.371,47.524 232.579,48.441 C 231.915,49.212 231.416,50.216 231.304,51.226 C 231.223,51.938 231.469,52.569 231.749,53.333 C 231.111,54.052 230.088,53.952 229.21,54.084 C 228.638,54.164 228.052,54.104 227.474,54.104 C 226.93,54.11 226.385,54.025 225.84,54.104 C 225.507,54.151 225.216,54.403 224.876,54.383 C 224.105,54.337 223.128,54.151 222.728,53.486 C 222.563,53.213 222.655,53.014 222.815,52.522 C 222.21,52.243 221.871,53.406 221.279,53.613 C 220.728,53.812 220.017,53.406 219.519,53.719 C 219.126,53.971 219.193,54.529 218.861,54.969 C 218.429,55.54 218.195,55.5 216.78,55.593 C 217.531,56.43 218.701,55.68 218.621,56.358 C 218.634,56.69 217.843,56.949 216.7,56.923 C 217.379,57.72 218.495,56.977 218.501,57.693 C 218.514,57.813 218.209,58.266 216.793,58.459 C 217.485,59.229 218.794,58.524 218.861,58.737 C 218.981,59.123 218.229,59.395 217.544,59.681 C 218.103,59.907 219.119,60.146 219.631,59.767 C 220.429,59.182 220.15,57.634 220.974,57.075 C 221.459,56.743 222.244,56.59 222.728,56.923 C 223.141,57.216 222.915,57.953 223.148,58.385 C 223.387,58.837 224.265,58.824 224.078,59.301 C 223.999,59.442 223.327,59.336 222.151,59.036 C 222.363,60.745 224.31,60.126 224.058,60.692 C 223.879,61.117 223.028,60.592 222.669,60.605 C 222.895,62.134 223.566,63.045 224.477,63.915 C 225.481,64.886 226.936,65.471 228.233,65.77 C 228.425,65.823 228.506,66.168 228.465,66.375 C 228.392,66.721 228.046,66.993 227.72,67.118 C 227.262,67.292 226.697,67.212 226.238,67.025 C 225.953,66.906 225.76,66.641 225.547,66.422 C 225.142,66.016 224.83,65.577 224.43,65.125 C 223.912,65.962 223.507,66.361 223.341,67.08 C 223.274,67.398 223.254,67.777 223.393,68.056 C 223.712,67.744 224.152,67.611 224.549,67.685 C 224.762,67.73 225.003,67.884 225.081,68.09 C 225.261,68.581 225.088,69.22 224.756,69.618 C 224.584,69.824 224.271,69.898 223.999,69.924 C 223.772,69.951 223.44,69.957 223.315,69.805 C 223.128,69.586 223.108,69.3 223.041,68.973 C 222.722,69.174 222.536,69.519 222.39,69.85 C 222.251,70.183 222.051,70.728 222.277,71.008 C 222.676,70.961 223.36,70.728 223.414,70.968 C 223.467,71.213 222.775,71.153 222.31,71.274 C 222.516,72.529 224.929,71.832 226.225,72.164 C 226.663,72.277 227.102,72.41 227.535,72.543 C 228.067,72.703 228.564,73.002 229.116,73.048 C 230.32,73.175 231.549,72.922 232.726,72.636 C 234.068,72.31 235.299,71.871 236.601,71.201 C 235.638,70.908 235.311,71.055 235.053,70.782 C 235.904,70.244 236.236,69.792 236.535,69.113 C 237.033,67.949 236.607,66.687 236.887,65.331 C 235.883,67.04 235.717,67.445 235.325,67.904 C 235.551,66.813 236.288,64.926 236.069,63.423 C 235.869,62.062 235.305,60.884 234.261,59.701 C 234.029,60.738 234.567,62.147 234.448,62.758 C 233.936,61.941 233.855,61.476 233.358,60.998 C 232.866,60.518 232.301,60.399 231.57,59.974 C 232.473,59.548 232.705,58.824 233.237,58.212 C 233.929,57.435 234.261,56.185 235.238,55.806 C 235.904,55.54 236.826,55.614 237.372,56.085 C 237.764,56.43 237.764,57.083 237.784,57.614 C 237.85,59.149 236.834,60.625 236.946,62.153 C 237.06,63.609 237.306,65.311 238.389,66.281 C 239.094,66.919 240.23,67.072 241.167,66.934 C 242.052,66.8 243.022,66.348 243.487,65.591 C 244.152,64.507 243.613,63.051 243.72,61.788 C 243.78,61.077 243.561,60.252 243.953,59.655 C 244.251,59.189 244.598,58.936 245.388,58.824 C 245.356,58.246 244.385,58.099 243.812,58.125 C 243.194,58.146 242.71,58.239 242.317,58.711 C 242.018,59.076 242.018,60.014 241.773,60.345 C 241.633,59.9 241.56,59.342 241.408,58.884 C 240.908,59.807 241.507,60.851 241.586,61.834 C 241.646,62.606 242.072,63.416 241.818,64.147 C 241.653,64.633 241.261,65.185 240.748,65.265 C 240.11,65.364 239.42,64.866 239.034,64.334 C 238.463,63.536 238.495,62.4 238.528,61.415 C 238.569,60 239.426,58.697 239.499,57.288 C 239.552,56.31 239.639,55.208 239.127,54.371 C 238.688,53.632 237.645,52.921 237.013,52.908 C 236.642,52.077 237.06,51.007 237.412,50.149 C 237.671,49.518 238.13,48.966 238.635,48.501 C 239.167,48.002 239.725,47.458 240.483,47.324 C 240.483,46.84 240.29,46.92 240.203,46.527 C 240.084,46.022 240.423,45.669 240.502,45.231 C 240.596,44.726 240.676,44.207 240.709,43.688 C 240.735,43.27 240.689,42.971 240.596,42.506 C 240.463,43.077 240.317,43.343 239.978,43.323 C 239.698,43.302 239.732,41.781 239.194,41.289 C 238.656,40.791 237.519,41.062 237.067,40.67 C 236.734,40.392 236.568,40.047 236.429,39.5 C 235.995,40.138 236.429,41.11 236.202,41.229 Z M 226.93,71.034 C 227.275,71.121 227.648,71.287 227.754,71.725 C 227.281,71.606 226.617,71.812 226.238,71.593 C 226.112,71.48 226.192,71.28 226.286,71.181 C 226.431,71.014 226.711,70.988 226.93,71.034 Z" marker-start="none" marker-end="none"/>
      <path d="M 217.817,67.392 C 218.368,67.159 219.046,66.361 218.946,66.182 C 218.814,66.009 217.405,66.834 217.125,66.328 C 217.624,66.168 218.003,65.836 218.162,65.404 C 218.435,64.699 217.811,63.808 218.162,63.144 C 218.542,62.439 220.243,62.606 220.157,61.814 C 220.11,61.363 218.561,61.628 218.88,61.317 C 219.645,60.579 221.672,61.018 222.516,60.951 C 222.663,61.875 223.148,63.025 224.011,63.776 C 223.334,63.989 221.825,63.689 221.366,64.407 C 220.815,65.278 222.344,66.402 222.131,67.418 C 221.958,68.223 221.066,69.154 220.416,69.286 C 220.516,68.807 221.008,68.063 220.701,67.87 C 220.462,67.671 219.764,69.067 219.039,68.654 C 219.458,68.276 219.844,67.572 219.684,67.345 C 219.512,67.118 218.083,67.917 217.817,67.392 Z" marker-start="none" marker-end="none"/>
      <path d="M 226.93,46.959 C 226.889,47.464 226.743,48.368 226.95,48.402 C 227.275,48.248 227.927,47.464 228.12,46.84 C 228.286,46.314 228.279,45.683 228.046,45.177 C 227.833,44.726 227.428,44.24 226.93,44.174 C 225.88,44.034 225.142,45.663 224.078,45.623 C 223.274,45.583 221.905,45.251 222.038,44.36 C 222.622,44.613 223.527,44.938 223.779,44.4 C 223.892,44.121 221.964,44.068 222.257,42.917 C 222.941,43.217 223.839,43.788 224.224,43.25 C 224.357,42.983 222.915,42.033 223.421,41.229 C 223.952,41.767 224.464,42.758 224.962,42.319 C 225.216,42.08 223.686,40.797 224.192,40.359 C 224.696,40.969 225.195,41.07 225.78,41.169 C 226.392,41.275 227.036,40.724 227.634,40.91 C 228.325,41.116 228.532,42.519 229.23,42.359 C 229.595,42.273 229.695,41.948 229.641,41.316 C 230.459,41.343 230.06,42.917 230.419,43.656 C 230.778,44.407 231.151,45.138 231.789,45.742 C 231.091,46.022 230.293,46.966 230.147,47.849 C 229.974,48.847 230.925,49.85 231.117,50.727 C 230.884,51.639 231.164,52.45 231.489,53.32 C 230.439,53.918 228.486,53.865 227.262,53.885 C 226.112,53.387 225.023,52.017 224.929,50.701 C 224.83,49.285 225.467,47.404 226.93,46.959 Z" marker-start="none" marker-end="none"/>
     </g>
     <g id="Group_4" fill="#ffffff">
      <path d="M 236.202,103.478 C 235.843,103.538 235.299,102.634 235.132,101.996 C 234.66,103.119 235.437,103.498 234.953,103.804 C 234.48,104.109 233.875,103.365 233.497,103.066 C 233.458,103.784 234.441,104.509 234.241,104.781 C 234.062,105.02 233.304,104.675 232.712,104.316 C 233.059,105.219 233.39,105.884 234.002,106.203 C 234.793,106.623 235.889,105.785 236.674,106.203 C 236.987,106.376 237.186,106.749 237.265,107.1 C 237.399,107.639 237.352,108.29 237.06,108.756 C 236.594,109.493 234.893,110.258 234.866,110.151 C 234.72,109.659 235.218,109.081 235.604,108.702 C 234.022,108.543 233.371,109.773 232.579,110.683 C 231.915,111.461 231.416,112.458 231.304,113.481 C 231.223,114.193 231.469,114.818 231.749,115.582 C 231.111,116.3 230.088,116.2 229.21,116.326 C 228.638,116.42 228.052,116.353 227.474,116.36 C 226.93,116.36 226.385,116.28 225.84,116.36 C 225.507,116.4 225.216,116.652 224.876,116.639 C 224.105,116.586 223.128,116.4 222.728,115.728 C 222.563,115.456 222.655,115.263 222.815,114.771 C 222.21,114.492 221.871,115.655 221.279,115.862 C 220.728,116.061 220.017,115.655 219.519,115.968 C 219.126,116.22 219.193,116.779 218.861,117.218 C 218.429,117.789 218.195,117.749 216.78,117.85 C 217.531,118.686 218.701,117.935 218.621,118.607 C 218.634,118.939 217.843,119.198 216.7,119.178 C 217.379,119.97 218.495,119.225 218.501,119.943 C 218.514,120.061 218.209,120.514 216.793,120.707 C 217.485,121.479 218.794,120.78 218.861,120.993 C 218.981,121.372 218.229,121.643 217.544,121.93 C 218.103,122.155 219.119,122.403 219.631,122.017 C 220.429,121.431 220.15,119.883 220.974,119.317 C 221.459,118.998 222.244,118.839 222.728,119.172 C 223.141,119.464 222.915,120.208 223.148,120.634 C 223.387,121.085 224.265,121.073 224.078,121.552 C 223.999,121.691 223.327,121.585 222.151,121.286 C 222.363,123 224.31,122.382 224.058,122.941 C 223.879,123.372 223.028,122.841 222.669,122.854 C 222.895,124.383 223.566,125.3 224.477,126.17 C 225.481,127.134 226.936,127.726 228.233,128.025 C 228.425,128.065 228.506,128.417 228.465,128.623 C 228.392,128.963 228.046,129.241 227.72,129.368 C 227.262,129.541 226.697,129.46 226.238,129.276 C 225.953,129.155 225.76,128.89 225.547,128.67 C 225.142,128.272 224.83,127.833 224.43,127.375 C 223.912,128.211 223.507,128.61 223.341,129.334 C 223.274,129.647 223.254,130.027 223.393,130.305 C 223.712,129.992 224.152,129.86 224.549,129.933 C 224.762,129.972 225.003,130.133 225.081,130.346 C 225.261,130.83 225.088,131.475 224.756,131.867 C 224.584,132.08 224.271,132.147 223.999,132.173 C 223.772,132.2 223.44,132.206 223.315,132.06 C 223.128,131.834 223.108,131.548 223.041,131.223 C 222.722,131.416 222.536,131.767 222.39,132.1 C 222.251,132.432 222.051,132.977 222.277,133.256 C 222.676,133.21 223.36,132.977 223.414,133.217 C 223.467,133.463 222.775,133.41 222.31,133.523 C 222.516,134.778 224.929,134.081 226.225,134.413 C 226.663,134.526 227.102,134.659 227.535,134.786 C 228.067,134.951 228.564,135.244 229.116,135.303 C 230.32,135.424 231.549,135.171 232.726,134.884 C 234.068,134.565 235.299,134.12 236.601,133.449 C 235.638,133.156 235.311,133.303 235.053,133.03 C 235.904,132.492 236.236,132.047 236.535,131.361 C 237.033,130.199 236.607,128.936 236.887,127.579 C 235.883,129.296 235.717,129.693 235.325,130.153 C 235.551,129.069 236.288,127.168 236.069,125.672 C 235.869,124.304 235.305,123.133 234.261,121.95 C 234.029,122.987 234.567,124.395 234.448,125.008 C 233.936,124.19 233.855,123.725 233.358,123.239 C 232.866,122.768 232.301,122.648 231.57,122.229 C 232.473,121.797 232.705,121.073 233.237,120.467 C 233.929,119.684 234.261,118.434 235.238,118.055 C 235.904,117.789 236.826,117.862 237.372,118.333 C 237.764,118.68 237.764,119.331 237.784,119.863 C 237.85,121.398 236.834,122.874 236.946,124.41 C 237.06,125.858 237.306,127.559 238.389,128.53 C 239.094,129.169 240.23,129.322 241.167,129.182 C 242.052,129.048 243.022,128.597 243.487,127.833 C 244.152,126.756 243.613,125.3 243.72,124.037 C 243.78,123.325 243.561,122.502 243.953,121.904 C 244.251,121.438 244.598,121.186 245.388,121.066 C 245.356,120.495 244.385,120.348 243.812,120.374 C 243.194,120.401 242.71,120.487 242.317,120.959 C 242.018,121.324 242.018,122.262 241.773,122.601 C 241.633,122.149 241.56,121.591 241.408,121.126 C 240.908,122.056 241.507,123.1 241.586,124.084 C 241.646,124.855 242.072,125.666 241.818,126.403 C 241.653,126.882 241.261,127.433 240.748,127.513 C 240.11,127.614 239.42,127.114 239.034,126.583 C 238.463,125.785 238.495,124.655 238.528,123.665 C 238.569,122.249 239.426,120.947 239.499,119.538 C 239.552,118.56 239.639,117.456 239.127,116.619 C 238.688,115.882 237.645,115.177 237.013,115.157 C 236.642,114.326 237.06,113.256 237.412,112.398 C 237.671,111.767 238.13,111.215 238.635,110.75 C 239.167,110.252 239.725,109.706 240.483,109.573 C 240.483,109.095 240.29,109.168 240.203,108.776 C 240.084,108.277 240.423,107.919 240.502,107.48 C 240.596,106.975 240.676,106.456 240.709,105.937 C 240.735,105.518 240.689,105.219 240.596,104.755 C 240.463,105.325 240.317,105.592 239.978,105.572 C 239.698,105.552 239.732,104.03 239.194,103.538 C 238.656,103.039 237.519,103.312 237.067,102.92 C 236.734,102.641 236.568,102.295 236.429,101.749 C 235.995,102.389 236.429,103.365 236.202,103.478 Z M 226.93,133.282 C 227.275,133.369 227.648,133.542 227.754,133.975 C 227.281,133.861 226.617,134.061 226.238,133.849 C 226.112,133.729 226.192,133.536 226.286,133.429 C 226.431,133.27 226.711,133.236 226.93,133.282 Z" marker-start="none" marker-end="none"/>
      <path d="M 217.817,129.647 C 218.368,129.402 219.046,128.61 218.946,128.437 C 218.814,128.252 217.405,129.076 217.125,128.577 C 217.624,128.417 218.003,128.085 218.162,127.646 C 218.435,126.949 217.811,126.058 218.162,125.393 C 218.542,124.688 220.243,124.862 220.157,124.064 C 220.11,123.612 218.561,123.878 218.88,123.565 C 219.645,122.834 221.672,123.273 222.516,123.199 C 222.663,124.123 223.148,125.273 224.011,126.024 C 223.334,126.237 221.825,125.938 221.366,126.65 C 220.815,127.527 222.344,128.65 222.131,129.667 C 221.958,130.472 221.066,131.396 220.416,131.528 C 220.516,131.056 221.008,130.311 220.701,130.118 C 220.462,129.92 219.764,131.316 219.039,130.897 C 219.458,130.524 219.844,129.82 219.684,129.595 C 219.512,129.374 218.083,130.159 217.817,129.647 Z" marker-start="none" marker-end="none"/>
      <path d="M 226.93,109.208 C 226.889,109.713 226.743,110.617 226.95,110.644 C 227.275,110.497 227.927,109.713 228.12,109.095 C 228.286,108.563 228.279,107.925 228.046,107.427 C 227.833,106.975 227.428,106.489 226.93,106.423 C 225.88,106.276 225.142,107.919 224.078,107.872 C 223.274,107.838 221.905,107.5 222.038,106.608 C 222.622,106.861 223.527,107.194 223.779,106.642 C 223.892,106.376 221.964,106.317 222.257,105.167 C 222.941,105.472 223.839,106.037 224.224,105.498 C 224.357,105.232 222.915,104.289 223.421,103.478 C 223.952,104.017 224.464,105.006 224.962,104.568 C 225.216,104.329 223.686,103.047 224.192,102.608 C 224.696,103.211 225.195,103.318 225.78,103.418 C 226.392,103.524 227.036,102.979 227.634,103.159 C 228.325,103.372 228.532,104.767 229.23,104.601 C 229.595,104.522 229.695,104.19 229.641,103.565 C 230.459,103.585 230.06,105.167 230.419,105.904 C 230.778,106.656 231.151,107.387 231.789,107.991 C 231.091,108.27 230.293,109.214 230.147,110.098 C 229.974,111.095 230.925,112.098 231.117,112.977 C 230.884,113.893 231.164,114.698 231.489,115.575 C 230.439,116.167 228.486,116.121 227.262,116.133 C 226.112,115.636 225.023,114.266 224.929,112.949 C 224.83,111.54 225.467,109.653 226.93,109.208 Z" marker-start="none" marker-end="none"/>
     </g>
     <g id="Group_5" fill="#ffffff">
      <path d="M 179.803,103.571 C 179.444,103.631 178.905,102.728 178.733,102.089 C 178.26,103.211 179.045,103.585 178.56,103.897 C 178.081,104.203 177.476,103.459 177.104,103.159 C 177.064,103.884 178.048,104.608 177.848,104.88 C 177.668,105.113 176.911,104.767 176.32,104.416 C 176.665,105.305 176.998,105.977 177.61,106.302 C 178.393,106.714 179.497,105.884 180.281,106.302 C 180.593,106.469 180.793,106.849 180.873,107.194 C 180.999,107.738 180.967,108.383 180.667,108.856 C 180.201,109.587 178.499,110.352 178.467,110.252 C 178.327,109.753 178.818,109.175 179.211,108.796 C 177.629,108.636 176.971,109.866 176.18,110.783 C 175.516,111.56 175.023,112.558 174.904,113.575 C 174.832,114.286 175.07,114.911 175.356,115.682 C 174.718,116.393 173.688,116.294 172.817,116.426 C 172.245,116.513 171.66,116.446 171.082,116.452 C 170.537,116.452 169.986,116.374 169.447,116.452 C 169.121,116.499 168.816,116.745 168.483,116.725 C 167.705,116.686 166.735,116.493 166.329,115.828 C 166.164,115.555 166.263,115.362 166.422,114.864 C 165.818,114.586 165.479,115.748 164.887,115.961 C 164.336,116.154 163.624,115.748 163.125,116.061 C 162.733,116.32 162.8,116.871 162.468,117.309 C 162.035,117.882 161.804,117.85 160.386,117.941 C 161.137,118.772 162.307,118.028 162.228,118.7 C 162.242,119.032 161.444,119.298 160.307,119.271 C 160.979,120.061 162.102,119.317 162.108,120.035 C 162.122,120.162 161.81,120.614 160.4,120.8 C 161.085,121.571 162.394,120.873 162.468,121.085 C 162.58,121.465 161.836,121.737 161.151,122.023 C 161.703,122.249 162.72,122.488 163.239,122.116 C 164.03,121.524 163.751,119.983 164.582,119.417 C 165.066,119.092 165.851,118.939 166.329,119.271 C 166.748,119.558 166.522,120.302 166.754,120.727 C 166.995,121.186 167.872,121.166 167.679,121.643 C 167.605,121.784 166.928,121.678 165.758,121.385 C 165.963,123.087 167.911,122.475 167.665,123.041 C 167.479,123.466 166.635,122.941 166.276,122.947 C 166.495,124.476 167.173,125.393 168.085,126.264 C 169.088,127.228 170.544,127.819 171.839,128.119 C 172.032,128.165 172.112,128.51 172.072,128.723 C 171.999,129.063 171.654,129.334 171.329,129.46 C 170.863,129.641 170.305,129.554 169.846,129.368 C 169.56,129.255 169.36,128.983 169.147,128.764 C 168.749,128.364 168.436,127.919 168.038,127.467 C 167.519,128.311 167.114,128.703 166.947,129.428 C 166.875,129.74 166.86,130.118 166.995,130.398 C 167.32,130.092 167.758,129.953 168.151,130.027 C 168.37,130.066 168.609,130.225 168.683,130.431 C 168.868,130.923 168.696,131.568 168.357,131.967 C 168.184,132.173 167.872,132.239 167.599,132.267 C 167.372,132.293 167.047,132.299 166.921,132.153 C 166.735,131.928 166.715,131.641 166.641,131.316 C 166.322,131.508 166.137,131.861 165.997,132.193 C 165.857,132.531 165.652,133.07 165.884,133.349 C 166.283,133.303 166.967,133.07 167.015,133.31 C 167.067,133.562 166.383,133.502 165.91,133.622 C 166.123,134.872 168.53,134.18 169.832,134.507 C 170.271,134.625 170.703,134.752 171.142,134.884 C 171.674,135.051 172.172,135.344 172.718,135.396 C 173.926,135.516 175.157,135.264 176.333,134.978 C 177.676,134.659 178.905,134.214 180.207,133.542 C 179.244,133.256 178.912,133.396 178.653,133.124 C 179.511,132.586 179.842,132.133 180.142,131.455 C 180.641,130.299 180.207,129.035 180.487,127.679 C 179.484,129.388 179.318,129.793 178.932,130.252 C 179.151,129.161 179.888,127.268 179.669,125.772 C 179.477,124.402 178.912,123.225 177.868,122.043 C 177.629,123.08 178.168,124.489 178.048,125.107 C 177.536,124.283 177.456,123.818 176.964,123.339 C 176.466,122.86 175.908,122.748 175.177,122.322 C 176.074,121.89 176.313,121.166 176.845,120.561 C 177.536,119.777 177.868,118.534 178.839,118.148 C 179.503,117.889 180.435,117.962 180.973,118.427 C 181.371,118.772 181.364,119.431 181.385,119.955 C 181.451,121.498 180.435,122.96 180.554,124.502 C 180.667,125.951 180.912,127.653 181.99,128.629 C 182.701,129.261 183.831,129.414 184.775,129.276 C 185.659,129.149 186.623,128.69 187.087,127.933 C 187.759,126.849 187.214,125.393 187.32,124.13 C 187.38,123.418 187.167,122.594 187.553,121.997 C 187.852,121.531 188.205,121.278 188.995,121.159 C 188.962,120.587 187.992,120.447 187.414,120.467 C 186.802,120.495 186.31,120.581 185.918,121.059 C 185.626,121.418 185.626,122.356 185.379,122.694 C 185.234,122.242 185.16,121.684 185.014,121.225 C 184.515,122.149 185.114,123.193 185.187,124.176 C 185.254,124.948 185.678,125.758 185.427,126.497 C 185.254,126.982 184.86,127.527 184.357,127.607 C 183.719,127.706 183.026,127.208 182.64,126.676 C 182.063,125.878 182.102,124.749 182.129,123.757 C 182.169,122.348 183.033,121.046 183.106,119.63 C 183.152,118.653 183.239,117.55 182.734,116.712 C 182.289,115.981 181.251,115.27 180.62,115.256 C 180.248,114.425 180.667,113.355 181.019,112.492 C 181.278,111.86 181.737,111.308 182.243,110.843 C 182.774,110.344 183.325,109.8 184.084,109.673 C 184.084,109.188 183.897,109.268 183.804,108.869 C 183.69,108.37 184.03,108.012 184.103,107.58 C 184.202,107.068 184.283,106.556 184.316,106.037 C 184.336,105.612 184.289,105.313 184.196,104.848 C 184.064,105.419 183.918,105.685 183.584,105.664 C 183.306,105.652 183.333,104.123 182.801,103.631 C 182.255,103.133 181.125,103.404 180.673,103.012 C 180.335,102.734 180.168,102.389 180.035,101.85 C 179.604,102.48 180.035,103.459 179.803,103.571 Z M 170.53,133.376 C 170.875,133.463 171.248,133.636 171.361,134.068 C 170.882,133.948 170.218,134.16 169.84,133.941 C 169.719,133.821 169.793,133.629 169.885,133.523 C 170.038,133.356 170.317,133.33 170.53,133.376 Z" marker-start="none" marker-end="none"/>
      <path d="M 161.417,129.74 C 161.968,129.501 162.654,128.703 162.554,128.53 C 162.414,128.351 161.012,129.176 160.725,128.67 C 161.224,128.51 161.611,128.178 161.769,127.746 C 162.035,127.041 161.417,126.15 161.769,125.486 C 162.149,124.781 163.85,124.954 163.763,124.157 C 163.717,123.699 162.161,123.97 162.488,123.658 C 163.245,122.927 165.272,123.366 166.123,123.293 C 166.263,124.217 166.754,125.374 167.619,126.118 C 166.934,126.331 165.432,126.038 164.974,126.749 C 164.415,127.62 165.951,128.75 165.738,129.76 C 165.565,130.571 164.668,131.495 164.023,131.622 C 164.123,131.149 164.614,130.405 164.308,130.212 C 164.07,130.012 163.371,131.409 162.641,130.996 C 163.066,130.617 163.451,129.914 163.292,129.687 C 163.119,129.46 161.683,130.259 161.417,129.74 Z" marker-start="none" marker-end="none"/>
      <path d="M 170.537,109.301 C 170.498,109.806 170.344,110.709 170.556,110.743 C 170.882,110.597 171.534,109.806 171.72,109.188 C 171.887,108.656 171.887,108.025 171.647,107.519 C 171.435,107.068 171.029,106.582 170.537,106.516 C 169.48,106.376 168.749,108.012 167.679,107.965 C 166.881,107.931 165.512,107.592 165.638,106.702 C 166.223,106.955 167.127,107.287 167.386,106.742 C 167.498,106.469 165.571,106.41 165.864,105.26 C 166.548,105.566 167.446,106.13 167.826,105.592 C 167.958,105.325 166.515,104.382 167.021,103.571 C 167.559,104.117 168.065,105.1 168.569,104.661 C 168.822,104.422 167.293,103.139 167.798,102.699 C 168.297,103.312 168.796,103.418 169.387,103.511 C 169.998,103.617 170.643,103.073 171.242,103.252 C 171.926,103.465 172.139,104.867 172.837,104.701 C 173.202,104.615 173.302,104.289 173.242,103.665 C 174.059,103.684 173.668,105.26 174.02,105.998 C 174.385,106.749 174.751,107.48 175.396,108.084 C 174.691,108.37 173.894,109.314 173.747,110.191 C 173.575,111.195 174.525,112.199 174.725,113.069 C 174.484,113.987 174.771,114.791 175.096,115.669 C 174.046,116.26 172.092,116.207 170.869,116.227 C 169.719,115.728 168.623,114.359 168.53,113.043 C 168.43,111.634 169.068,109.746 170.537,109.301 Z" marker-start="none" marker-end="none"/>
     </g>
    </g>
    <g id="Group_6" fill-rule="nonzero" stroke-linejoin="round" stroke-linecap="round" stroke="none" stroke-width="0.112" fill="#2350a9" stroke-miterlimit="79.8403193612775">
     <g id="Group_7">
      <path d="M 150.197,161.431 C 150.682,161.034 151.073,160.506 151.371,159.845 C 151.669,159.185 151.818,158.376 151.818,157.419 C 151.818,156.58 151.685,155.848 151.419,155.225 C 151.152,154.602 150.799,154.092 150.359,153.695 C 149.912,153.299 149.404,153.003 148.836,152.81 C 148.267,152.616 147.672,152.519 147.05,152.519 L 143.052,152.519 L 143.052,153.065 C 143.171,153.07 143.32,153.084 143.499,153.107 C 143.678,153.13 143.797,153.159 143.857,153.191 C 143.991,153.261 144.084,153.356 144.137,153.475 C 144.189,153.594 144.215,153.737 144.215,153.905 L 144.215,160.948 C 144.215,161.106 144.191,161.25 144.142,161.378 C 144.094,161.507 143.999,161.611 143.857,161.69 C 143.716,161.769 143.566,161.823 143.407,161.851 C 143.249,161.879 143.127,161.898 143.041,161.907 L 143.041,162.453 L 147.262,162.453 C 147.713,162.453 148.196,162.381 148.71,162.236 C 149.224,162.091 149.72,161.823 150.197,161.431 Z M 149.057,154.311 C 149.239,154.685 149.372,155.129 149.456,155.645 C 149.54,156.161 149.582,156.755 149.582,157.427 C 149.582,158.085 149.526,158.684 149.414,159.226 C 149.303,159.767 149.139,160.229 148.922,160.612 C 148.706,160.995 148.437,161.291 148.115,161.501 C 147.792,161.711 147.426,161.816 147.016,161.816 C 146.885,161.816 146.737,161.812 146.572,161.805 C 146.406,161.798 146.282,161.793 146.2,161.788 L 146.2,154.248 C 146.2,154.08 146.218,153.932 146.253,153.804 C 146.288,153.675 146.349,153.562 146.434,153.464 C 146.52,153.366 146.626,153.29 146.75,153.237 C 146.875,153.183 147.038,153.156 147.24,153.156 C 147.661,153.156 148.022,153.254 148.324,153.45 C 148.626,153.646 148.87,153.933 149.057,154.311 Z" marker-start="none" marker-end="none"/>
      <path d="M 161.736,161.907 C 161.628,161.893 161.473,161.861 161.27,161.812 C 161.067,161.763 160.896,161.678 160.758,161.557 C 160.616,161.44 160.517,161.23 160.459,160.927 C 160.401,160.623 160.372,160.168 160.372,159.562 L 160.372,155.865 C 160.372,154.778 160.078,153.903 159.489,153.24 C 158.9,152.577 158.121,152.246 157.152,152.246 C 156.023,152.246 155.149,152.566 154.53,153.205 C 153.911,153.845 153.602,154.736 153.602,155.879 L 153.602,160.962 C 153.602,161.125 153.577,161.265 153.526,161.382 C 153.476,161.499 153.38,161.604 153.238,161.697 C 153.142,161.757 153.022,161.806 152.881,161.844 C 152.739,161.881 152.623,161.907 152.534,161.921 L 152.534,162.453 L 156.693,162.453 L 156.693,161.921 C 156.574,161.912 156.453,161.894 156.33,161.868 C 156.207,161.843 156.082,161.804 155.956,161.753 C 155.814,161.697 155.719,161.604 155.67,161.473 C 155.622,161.342 155.598,161.195 155.598,161.032 L 155.598,156.019 C 155.598,155.034 155.771,154.318 156.118,153.87 C 156.464,153.422 156.967,153.198 157.627,153.198 C 158.276,153.198 158.785,153.445 159.153,153.94 C 159.522,154.435 159.707,155.163 159.707,156.124 L 159.707,159.492 C 159.707,160.089 159.674,160.536 159.609,160.832 C 159.544,161.129 159.444,161.342 159.31,161.473 C 159.213,161.575 159.045,161.669 158.804,161.753 C 158.564,161.837 158.395,161.888 158.298,161.907 L 158.298,162.453 L 161.736,162.453 L 161.736,161.907 Z" marker-start="none" marker-end="none"/>
      <path d="M 171.252,152.519 L 168.211,152.519 C 167.685,153.527 167.248,154.33 166.9,154.927 C 166.551,155.525 166.118,156.216 165.6,156.999 L 165.293,156.999 L 165.293,153.982 C 165.293,153.814 165.318,153.672 165.368,153.555 C 165.418,153.438 165.514,153.341 165.656,153.261 C 165.727,153.224 165.838,153.185 165.989,153.146 C 166.14,153.106 166.269,153.079 166.377,153.065 L 166.377,152.519 L 162.145,152.519 L 162.145,153.065 C 162.253,153.079 162.396,153.099 162.573,153.125 C 162.75,153.15 162.875,153.182 162.95,153.219 C 163.092,153.294 163.187,153.388 163.235,153.503 C 163.284,153.617 163.308,153.763 163.308,153.94 L 163.308,160.948 C 163.308,161.116 163.287,161.256 163.247,161.368 C 163.205,161.48 163.107,161.578 162.95,161.662 C 162.831,161.723 162.69,161.774 162.528,161.816 C 162.366,161.858 162.238,161.888 162.145,161.907 L 162.145,162.453 L 166.595,162.453 C 167.59,162.453 168.346,162.258 168.862,161.868 C 169.379,161.479 169.637,160.889 169.637,160.101 C 169.637,159.405 169.477,158.847 169.159,158.424 C 168.84,158.002 168.355,157.672 167.702,157.434 C 167.956,157.023 168.251,156.547 168.588,156.005 C 168.926,155.464 169.277,154.911 169.642,154.346 C 169.758,154.164 169.915,153.941 170.115,153.678 C 170.314,153.414 170.49,153.252 170.643,153.191 C 170.729,153.159 170.838,153.13 170.97,153.107 C 171.102,153.084 171.196,153.07 171.252,153.065 L 171.252,152.519 Z M 167.445,159.905 C 167.445,160.567 167.297,161.052 167.001,161.357 C 166.704,161.663 166.282,161.816 165.734,161.816 L 165.293,161.816 L 165.293,157.658 L 165.718,157.658 C 166.265,157.658 166.69,157.837 166.992,158.197 C 167.294,158.556 167.445,159.125 167.445,159.905 Z" marker-start="none" marker-end="none"/>
      <path d="M 180.958,152.519 L 176.67,152.519 L 176.67,153.065 C 176.763,153.074 176.899,153.088 177.078,153.107 C 177.257,153.126 177.38,153.154 177.447,153.191 C 177.585,153.261 177.68,153.353 177.732,153.468 C 177.785,153.582 177.811,153.728 177.811,153.905 L 177.811,157.328 L 174.423,157.328 L 174.423,153.982 C 174.423,153.824 174.45,153.681 174.504,153.555 C 174.558,153.429 174.65,153.331 174.781,153.261 C 174.851,153.224 174.972,153.184 175.144,153.142 C 175.315,153.1 175.455,153.074 175.563,153.065 L 175.563,152.519 L 171.275,152.519 L 171.275,153.065 C 171.368,153.07 171.505,153.085 171.686,153.111 C 171.867,153.136 171.998,153.168 172.08,153.205 C 172.214,153.266 172.307,153.358 172.36,153.482 C 172.412,153.605 172.438,153.751 172.438,153.919 L 172.438,160.948 C 172.438,161.111 172.415,161.249 172.368,161.361 C 172.321,161.473 172.225,161.571 172.08,161.655 C 171.972,161.716 171.83,161.77 171.655,161.819 C 171.48,161.868 171.353,161.898 171.275,161.907 L 171.275,162.453 L 175.563,162.453 L 175.563,161.907 C 175.448,161.898 175.31,161.874 175.149,161.837 C 174.989,161.8 174.866,161.765 174.781,161.732 C 174.635,161.671 174.539,161.574 174.493,161.441 C 174.446,161.308 174.423,161.167 174.423,161.018 L 174.423,158.049 L 177.811,158.049 L 177.811,160.948 C 177.811,161.111 177.786,161.249 177.738,161.361 C 177.689,161.473 177.593,161.571 177.447,161.655 C 177.35,161.711 177.221,161.763 177.059,161.812 C 176.897,161.861 176.767,161.893 176.67,161.907 L 176.67,162.453 L 180.958,162.453 L 180.958,161.907 C 180.839,161.898 180.705,161.878 180.556,161.847 C 180.407,161.817 180.273,161.779 180.153,161.732 C 180.012,161.671 179.916,161.575 179.868,161.445 C 179.82,161.314 179.795,161.172 179.795,161.018 L 179.795,153.982 C 179.795,153.814 179.82,153.672 179.868,153.555 C 179.916,153.438 180.012,153.341 180.153,153.261 C 180.243,153.214 180.372,153.172 180.542,153.135 C 180.711,153.098 180.85,153.074 180.958,153.065 L 180.958,152.519 Z" marker-start="none" marker-end="none"/>
      <path d="M 190.34,152.519 L 186.018,152.519 L 186.018,153.065 C 186.219,153.084 186.456,153.129 186.728,153.202 C 187,153.274 187.136,153.364 187.136,153.471 C 187.136,153.509 187.134,153.551 187.128,153.597 C 187.122,153.644 187.106,153.707 187.08,153.786 L 186.404,155.844 L 183.664,155.844 C 183.601,155.653 183.531,155.429 183.455,155.172 C 183.378,154.916 183.312,154.687 183.256,154.486 C 183.186,154.225 183.144,154.036 183.13,153.919 C 183.117,153.803 183.111,153.721 183.111,153.674 C 183.111,153.525 183.201,153.398 183.382,153.293 C 183.563,153.188 183.864,153.112 184.285,153.065 L 184.285,152.519 L 181.031,152.519 L 181.031,153.065 C 181.154,153.074 181.293,153.099 181.448,153.139 C 181.602,153.178 181.724,153.233 181.814,153.303 C 181.967,153.415 182.096,153.553 182.202,153.716 C 182.309,153.88 182.397,154.073 182.468,154.297 C 182.9,155.609 183.334,156.922 183.768,158.239 C 184.202,159.555 184.682,161.006 185.208,162.593 L 186.326,162.593 C 187.056,160.343 187.628,158.565 188.042,157.259 C 188.456,155.952 188.808,154.869 189.099,154.01 C 189.147,153.87 189.209,153.743 189.283,153.629 C 189.358,153.514 189.464,153.406 189.602,153.303 C 189.706,153.229 189.827,153.172 189.965,153.135 C 190.103,153.098 190.228,153.074 190.34,153.065 L 190.34,152.519 Z M 186.175,156.538 L 185.023,160.136 L 183.888,156.538 L 186.175,156.538 Z" marker-start="none" marker-end="none"/>
      <path d="M 201.315,152.519 L 197.016,152.519 L 197.016,153.065 C 197.142,153.079 197.298,153.102 197.483,153.135 C 197.667,153.168 197.793,153.203 197.86,153.24 C 197.998,153.31 198.097,153.406 198.156,153.527 C 198.216,153.649 198.246,153.802 198.246,153.989 L 198.246,161.41 L 195.517,152.68 L 194.813,152.68 C 194.779,152.834 194.697,153.14 194.564,153.597 C 194.432,154.055 194.325,154.421 194.243,154.696 L 192.236,161.522 L 192.236,155.48 C 192.236,154.902 192.266,154.462 192.328,154.161 C 192.389,153.86 192.489,153.639 192.627,153.499 C 192.72,153.401 192.887,153.308 193.127,153.219 C 193.368,153.13 193.537,153.079 193.633,153.065 L 193.633,152.519 L 190.223,152.519 L 190.223,153.065 C 190.316,153.079 190.468,153.111 190.679,153.16 C 190.889,153.209 191.062,153.294 191.196,153.415 C 191.345,153.546 191.445,153.766 191.498,154.077 C 191.55,154.387 191.576,154.829 191.576,155.403 L 191.576,160.325 C 191.576,160.623 191.546,160.872 191.487,161.07 C 191.427,161.269 191.337,161.426 191.218,161.543 C 191.069,161.688 190.916,161.781 190.76,161.823 C 190.603,161.865 190.445,161.893 190.284,161.907 L 190.284,162.453 L 193.935,162.453 L 195.892,155.893 L 197.541,161.221 C 197.597,161.417 197.651,161.65 197.704,161.921 C 197.756,162.192 197.784,162.369 197.787,162.453 L 201.304,162.453 L 201.304,161.907 C 201.185,161.898 201.06,161.879 200.929,161.851 C 200.799,161.823 200.674,161.786 200.555,161.739 C 200.409,161.678 200.313,161.583 200.267,161.452 C 200.22,161.321 200.197,161.177 200.197,161.018 L 200.197,153.982 C 200.197,153.814 200.22,153.673 200.267,153.559 C 200.313,153.444 200.409,153.345 200.555,153.261 C 200.629,153.219 200.751,153.179 200.921,153.142 C 201.09,153.105 201.222,153.079 201.315,153.065 L 201.315,152.519 Z" marker-start="none" marker-end="none"/>
      <path d="M 209.198,152.253 C 208.616,152.253 208.072,152.371 207.565,152.607 C 207.058,152.842 206.616,153.184 206.24,153.632 C 205.871,154.071 205.58,154.614 205.368,155.26 C 205.155,155.906 205.049,156.617 205.049,157.392 C 205.049,158.162 205.156,158.874 205.371,159.53 C 205.585,160.186 205.886,160.754 206.274,161.235 C 206.654,161.706 207.111,162.071 207.643,162.33 C 208.176,162.589 208.747,162.719 209.354,162.719 C 209.794,162.719 210.195,162.652 210.556,162.519 C 210.918,162.386 211.223,162.236 211.473,162.068 L 211.82,162.453 L 212.306,162.453 L 212.356,158.827 L 211.864,158.827 C 211.585,159.933 211.25,160.745 210.858,161.263 C 210.467,161.781 209.99,162.04 209.427,162.04 C 208.726,162.04 208.193,161.654 207.828,160.881 C 207.463,160.109 207.28,159.025 207.28,157.63 C 207.28,156.841 207.342,156.168 207.467,155.61 C 207.592,155.052 207.755,154.603 207.956,154.262 C 208.173,153.908 208.428,153.647 208.722,153.482 C 209.017,153.316 209.343,153.233 209.701,153.233 C 210.223,153.233 210.688,153.411 211.096,153.765 C 211.504,154.12 211.876,154.657 212.211,155.375 L 212.692,155.011 C 212.532,154.601 212.349,154.233 212.144,153.909 C 211.939,153.584 211.702,153.305 211.434,153.072 C 211.139,152.816 210.814,152.615 210.458,152.47 C 210.102,152.325 209.682,152.253 209.198,152.253 Z" marker-start="none" marker-end="none"/>
      <path d="M 222.336,152.519 L 219.295,152.519 C 218.769,153.527 218.332,154.33 217.984,154.927 C 217.635,155.525 217.202,156.216 216.684,156.999 L 216.377,156.999 L 216.377,153.982 C 216.377,153.814 216.402,153.672 216.452,153.555 C 216.502,153.438 216.598,153.341 216.74,153.261 C 216.811,153.224 216.922,153.185 217.073,153.146 C 217.224,153.106 217.353,153.079 217.461,153.065 L 217.461,152.519 L 213.229,152.519 L 213.229,153.065 C 213.337,153.079 213.48,153.099 213.657,153.125 C 213.834,153.15 213.959,153.182 214.034,153.219 C 214.176,153.294 214.271,153.388 214.319,153.503 C 214.368,153.617 214.392,153.763 214.392,153.94 L 214.392,160.948 C 214.392,161.116 214.371,161.256 214.331,161.368 C 214.289,161.48 214.191,161.578 214.034,161.662 C 213.915,161.723 213.774,161.774 213.612,161.816 C 213.45,161.858 213.322,161.888 213.229,161.907 L 213.229,162.453 L 217.679,162.453 C 218.674,162.453 219.43,162.258 219.946,161.868 C 220.463,161.479 220.721,160.889 220.721,160.101 C 220.721,159.405 220.561,158.847 220.243,158.424 C 219.924,158.002 219.439,157.672 218.786,157.434 C 219.04,157.023 219.335,156.547 219.672,156.005 C 220.01,155.464 220.361,154.911 220.726,154.346 C 220.842,154.164 220.999,153.941 221.199,153.678 C 221.398,153.414 221.574,153.252 221.727,153.191 C 221.813,153.159 221.922,153.13 222.054,153.107 C 222.186,153.084 222.28,153.07 222.336,153.065 L 222.336,152.519 Z M 218.529,159.905 C 218.529,160.567 218.381,161.052 218.085,161.357 C 217.788,161.663 217.366,161.816 216.818,161.816 L 216.377,161.816 L 216.377,157.658 L 216.802,157.658 C 217.349,157.658 217.774,157.837 218.076,158.197 C 218.378,158.556 218.529,159.125 218.529,159.905 Z" marker-start="none" marker-end="none"/>
      <path d="M 226.725,152.519 L 222.326,152.519 L 222.326,153.065 C 222.426,153.074 222.574,153.088 222.77,153.107 C 222.966,153.126 223.101,153.154 223.175,153.191 C 223.313,153.261 223.407,153.353 223.458,153.468 C 223.508,153.582 223.533,153.728 223.533,153.905 L 223.533,160.948 C 223.533,161.106 223.509,161.247 223.461,161.368 C 223.412,161.489 223.317,161.587 223.175,161.662 C 223.086,161.709 222.954,161.756 222.778,161.805 C 222.603,161.854 222.452,161.888 222.326,161.907 L 222.326,162.453 L 226.725,162.453 L 226.725,161.907 C 226.614,161.893 226.474,161.873 226.306,161.847 C 226.138,161.822 225.997,161.786 225.881,161.739 C 225.736,161.678 225.639,161.584 225.591,161.455 C 225.542,161.327 225.518,161.181 225.518,161.018 L 225.518,153.982 C 225.518,153.814 225.543,153.671 225.593,153.552 C 225.644,153.433 225.74,153.336 225.881,153.261 C 225.959,153.219 226.089,153.178 226.27,153.139 C 226.451,153.099 226.602,153.074 226.725,153.065 L 226.725,152.519 Z" marker-start="none" marker-end="none"/>
      <path d="M 231.623,152.253 C 231.041,152.253 230.497,152.371 229.99,152.607 C 229.483,152.842 229.041,153.184 228.665,153.632 C 228.296,154.071 228.005,154.614 227.793,155.26 C 227.58,155.906 227.474,156.617 227.474,157.392 C 227.474,158.162 227.581,158.874 227.796,159.53 C 228.01,160.186 228.311,160.754 228.699,161.235 C 229.079,161.706 229.536,162.071 230.068,162.33 C 230.601,162.589 231.172,162.719 231.779,162.719 C 232.219,162.719 232.62,162.652 232.981,162.519 C 233.343,162.386 233.648,162.236 233.898,162.068 L 234.245,162.453 L 234.731,162.453 L 234.781,158.827 L 234.289,158.827 C 234.01,159.933 233.675,160.745 233.283,161.263 C 232.892,161.781 232.415,162.04 231.852,162.04 C 231.151,162.04 230.618,161.654 230.253,160.881 C 229.888,160.109 229.705,159.025 229.705,157.63 C 229.705,156.841 229.767,156.168 229.892,155.61 C 230.017,155.052 230.18,154.603 230.381,154.262 C 230.598,153.908 230.853,153.647 231.147,153.482 C 231.442,153.316 231.768,153.233 232.126,153.233 C 232.648,153.233 233.113,153.411 233.521,153.765 C 233.929,154.12 234.301,154.657 234.636,155.375 L 235.117,155.011 C 234.957,154.601 234.774,154.233 234.569,153.909 C 234.364,153.584 234.127,153.305 233.859,153.072 C 233.564,152.816 233.239,152.615 232.883,152.47 C 232.527,152.325 232.107,152.253 231.623,152.253 Z" marker-start="none" marker-end="none"/>
      <path d="M 244.974,152.519 L 241.832,152.519 C 241.359,153.429 240.932,154.19 240.552,154.801 C 240.171,155.413 239.685,156.18 239.092,157.104 L 238.802,157.104 L 238.802,153.982 C 238.802,153.814 238.826,153.672 238.874,153.555 C 238.923,153.438 239.02,153.341 239.165,153.261 C 239.232,153.224 239.332,153.187 239.464,153.149 C 239.597,153.112 239.728,153.084 239.858,153.065 L 239.858,152.519 L 235.643,152.519 L 235.643,153.065 C 235.743,153.074 235.886,153.088 236.071,153.107 C 236.255,153.126 236.384,153.154 236.459,153.191 C 236.593,153.256 236.686,153.347 236.739,153.464 C 236.791,153.581 236.817,153.728 236.817,153.905 L 236.817,160.948 C 236.817,161.111 236.794,161.249 236.75,161.361 C 236.705,161.473 236.608,161.573 236.459,161.662 C 236.344,161.727 236.204,161.781 236.04,161.823 C 235.876,161.865 235.743,161.893 235.643,161.907 L 235.643,162.453 L 239.998,162.453 L 239.998,161.907 C 239.883,161.893 239.744,161.873 239.582,161.847 C 239.42,161.822 239.281,161.786 239.165,161.739 C 239.02,161.678 238.923,161.583 238.874,161.452 C 238.826,161.321 238.802,161.177 238.802,161.018 L 238.802,157.672 L 239.036,157.672 C 239.327,158.003 239.666,158.402 240.054,158.869 C 240.442,159.335 240.742,159.718 240.954,160.017 C 241.252,160.432 241.471,160.761 241.611,161.004 C 241.751,161.246 241.821,161.457 241.821,161.634 C 241.821,161.713 241.754,161.774 241.62,161.816 C 241.485,161.858 241.28,161.888 241.004,161.907 L 241.004,162.453 L 244.454,162.453 L 244.454,161.907 C 244.037,161.851 243.686,161.756 243.403,161.623 C 243.12,161.49 242.838,161.268 242.559,160.955 C 242.16,160.507 241.831,160.118 241.572,159.789 C 241.313,159.46 240.98,159.039 240.574,158.526 C 240.932,157.98 241.362,157.311 241.865,156.52 C 242.369,155.729 242.87,154.958 243.369,154.206 C 243.496,154.015 243.642,153.832 243.805,153.657 C 243.969,153.482 244.15,153.341 244.348,153.233 C 244.441,153.182 244.547,153.142 244.666,153.114 C 244.786,153.086 244.888,153.07 244.974,153.065 L 244.974,152.519 Z" marker-start="none" marker-end="none"/>
      <path d="M 252.04,159.919 L 251.615,159.919 C 251.507,160.297 251.321,160.68 251.056,161.067 C 250.792,161.454 250.529,161.683 250.268,161.753 C 250.156,161.786 250.001,161.805 249.801,161.812 C 249.602,161.819 249.437,161.823 249.306,161.823 L 248.155,161.823 L 248.155,157.987 L 248.971,157.987 C 249.176,157.987 249.362,158.017 249.53,158.078 C 249.698,158.138 249.851,158.255 249.988,158.428 C 250.074,158.535 250.161,158.724 250.248,158.995 C 250.336,159.265 250.393,159.501 250.419,159.702 L 250.844,159.702 L 250.844,155.557 L 250.419,155.557 C 250.397,155.753 250.34,155.999 250.248,156.296 C 250.157,156.592 250.071,156.797 249.988,156.908 C 249.866,157.077 249.72,157.192 249.552,157.255 C 249.385,157.318 249.191,157.35 248.971,157.35 L 248.155,157.35 L 248.155,154.486 C 248.155,154.188 248.173,153.951 248.208,153.776 C 248.243,153.601 248.309,153.467 248.406,153.373 C 248.499,153.285 248.627,153.226 248.789,153.198 C 248.951,153.17 249.172,153.156 249.452,153.156 C 249.582,153.156 249.739,153.159 249.921,153.163 C 250.104,153.168 250.264,153.182 250.402,153.205 C 250.559,153.228 250.705,153.263 250.841,153.31 C 250.977,153.357 251.079,153.425 251.146,153.513 C 251.325,153.742 251.526,154.091 251.75,154.56 C 251.973,155.029 252.12,155.38 252.191,155.613 L 252.599,155.613 L 252.448,152.519 L 245.007,152.519 L 245.007,153.065 C 245.111,153.074 245.253,153.093 245.432,153.121 C 245.611,153.149 245.737,153.182 245.812,153.219 C 245.954,153.294 246.049,153.388 246.097,153.503 C 246.146,153.617 246.17,153.763 246.17,153.94 L 246.17,160.948 C 246.17,161.116 246.149,161.255 246.109,161.364 C 246.067,161.474 245.969,161.573 245.812,161.662 C 245.715,161.718 245.579,161.769 245.404,161.816 C 245.229,161.863 245.097,161.893 245.007,161.907 L 245.007,162.453 L 252.04,162.453 L 252.04,159.919 Z" marker-start="none" marker-end="none"/>
      <path d="M 260.639,159.611 L 260.209,159.611 C 260.093,160.035 259.908,160.49 259.653,160.976 C 259.397,161.461 259.161,161.723 258.945,161.76 C 258.826,161.779 258.679,161.795 258.504,161.809 C 258.329,161.823 258.178,161.83 258.051,161.83 L 257.788,161.83 L 257.788,154.038 C 257.788,153.87 257.812,153.722 257.861,153.594 C 257.909,153.465 258.004,153.364 258.146,153.289 C 258.232,153.247 258.365,153.204 258.546,153.16 C 258.726,153.115 258.88,153.084 259.007,153.065 L 259.007,152.519 L 254.585,152.519 L 254.585,153.065 C 254.693,153.079 254.844,153.099 255.04,153.125 C 255.236,153.15 255.369,153.182 255.44,153.219 C 255.585,153.294 255.682,153.394 255.731,153.52 C 255.779,153.646 255.803,153.796 255.803,153.968 L 255.803,161.83 L 255.54,161.83 C 255.414,161.83 255.263,161.823 255.088,161.809 C 254.912,161.795 254.765,161.779 254.646,161.76 C 254.43,161.723 254.194,161.461 253.939,160.976 C 253.683,160.49 253.498,160.035 253.382,159.611 L 252.952,159.611 L 252.952,162.453 L 260.639,162.453 L 260.639,159.611 Z" marker-start="none" marker-end="none"/>
     </g>
    </g>
   </g>
  </g>
 </g>
</svg>
