<?xml version="1.0" encoding="utf-8"?>
<!-- Generator: Adobe Illustrator 24.0.2, SVG Export Plug-In . SVG Version: 6.00 Build 0)  -->
<svg version="1.1" id="Layer_1" xmlns="http://www.w3.org/2000/svg" xmlns:xlink="http://www.w3.org/1999/xlink" x="0px" y="0px"
	 viewBox="0 0 1080 648" enable-background="new 0 0 1080 648" xml:space="preserve">
<g>
	<polygon points="781.072,-69.606 743.857,-69.606 627.065,-69.606 598.077,-69.606 567.106,-69.606 536.257,-69.606 
		511.863,-69.606 505.286,-69.606 474.438,-69.606 452.935,-69.606 279.019,-69.606 47.036,-69.606 -114.667,-69.606 
		-114.667,137.87 -114.667,236.923 -114.667,411.059 -114.667,435.53 -114.667,542.221 1194.667,542.221 1194.667,411.059 
		1194.667,247.137 1194.667,236.923 1194.667,-51.623 1194.667,-69.606 976.701,-69.606 	"/>
	<polygon fill="#FFFFFF" points="-114.667,717.606 -101.657,717.606 130.336,717.606 340.79,717.606 363.17,717.606 
		452.935,717.606 454.661,717.606 485.52,717.606 516.48,717.606 547.34,717.606 578.3,717.606 595.163,717.606 609.271,717.606 
		627.065,717.606 828.008,717.606 1060.854,717.606 1194.667,717.606 1194.667,545.903 1194.667,542.221 -114.667,542.221 	"/>
</g>
</svg>
