<?xml version="1.0" encoding="utf-8"?>
<!-- Generator: Adobe Illustrator 24.0.2, SVG Export Plug-In . SVG Version: 6.00 Build 0)  -->
<svg version="1.1" id="Layer_1" xmlns="http://www.w3.org/2000/svg" xmlns:xlink="http://www.w3.org/1999/xlink" x="0px" y="0px"
	 viewBox="0 0 1080 648" enable-background="new 0 0 1080 648" xml:space="preserve">
<g>
	<polygon points="417.743,240.949 456.92,240.949 456.92,112.278 456.92,-51.565 265.176,-51.565 42.99,-51.565 -84.697,-51.565 
		-84.697,112.278 -84.697,240.949 -57.443,240.949 	"/>
	<polygon points="456.92,407.113 243.952,407.113 -84.697,407.113 -84.697,682.45 -84.697,699.611 123.289,699.611 345.475,699.611 
		456.92,699.611 456.92,682.45 	"/>
	<polygon points="930.91,-51.565 708.735,-51.565 623.079,-51.565 623.079,217.597 623.079,240.949 892.942,240.949 
		1164.697,240.949 1164.697,217.597 1164.697,-51.565 1152.283,-51.565 	"/>
	<polygon points="623.079,407.113 623.079,501.633 623.079,699.611 789.034,699.611 1010.397,699.611 1164.697,699.611 
		1164.697,501.633 1164.697,407.113 717.396,407.113 	"/>
	<polygon fill="#36A9E1" points="1165.333,225.376 638.625,225.376 638.625,-51.613 441.375,-51.613 441.375,225.376 
		-85.333,225.376 -85.333,422.625 441.375,422.625 441.375,699.613 638.625,699.613 638.625,422.625 1165.333,422.625 	"/>
	<polygon fill="#FDFDFD" points="623.079,240.949 623.079,217.597 623.079,-51.565 621.432,-51.565 591.986,-51.565 
		562.443,-51.565 532.996,-51.565 503.453,-51.565 487.361,-51.565 473.9,-51.565 456.92,-51.565 456.92,112.278 456.92,240.949 
		417.743,240.949 -57.443,240.949 -84.697,240.949 -84.697,397.367 -84.697,407.113 243.952,407.113 456.92,407.113 456.92,682.45 
		456.92,699.611 484.581,699.611 514.135,699.611 543.571,699.611 566.848,699.611 573.124,699.611 602.56,699.611 623.079,699.611 
		623.079,501.633 623.079,407.113 717.396,407.113 1164.697,407.113 1164.697,240.949 892.942,240.949 	"/>
</g>
</svg>
