<?xml version="1.0" encoding="utf-8"?>
<!-- Generator: Adobe Illustrator 24.0.2, SVG Export Plug-In . SVG Version: 6.00 Build 0)  -->
<svg version="1.1" id="Layer_1" xmlns="http://www.w3.org/2000/svg" xmlns:xlink="http://www.w3.org/1999/xlink" x="0px" y="0px"
	 viewBox="0 0 1080 648" enable-background="new 0 0 1080 648" xml:space="preserve">
<g>
	<polygon points="435.646,408.519 435.646,507.439 435.646,714.634 414.173,714.634 383.366,714.634 376.798,714.634 
		352.437,714.634 321.631,714.634 290.702,714.634 261.754,714.634 261.754,696.674 261.754,408.519 230.17,408.519 
		-113.778,408.519 -113.778,719.511 -48,719.511 1098.851,719.511 1193.403,719.511 1193.403,408.519 725.654,408.519 	"/>
	<polygon points="220.754,234.62 261.754,234.62 261.754,99.96 261.754,-71.511 194.392,-71.511 -113.778,-71.511 -113.778,234.62 
		-85.254,234.62 	"/>
	<polygon points="435.646,234.62 909.372,234.62 1193.403,234.62 1193.403,-71.511 730.632,-71.511 435.646,-71.511 
		435.646,210.181 	"/>
	<polygon fill="#FDFDFD" points="909.372,234.62 435.646,234.62 435.646,210.181 435.646,-71.511 433.924,-71.511 403.106,-71.511 
		372.188,-71.511 341.371,-71.511 310.453,-71.511 293.611,-71.511 279.523,-71.511 261.754,-71.511 261.754,99.96 261.754,234.62 
		220.754,234.62 -85.254,234.62 -113.778,234.62 -113.778,371.557 -113.778,398.32 -113.778,408.519 230.17,408.519 
		261.754,408.519 261.754,696.674 261.754,714.634 290.702,714.634 321.631,714.634 352.437,714.634 376.798,714.634 
		383.366,714.634 414.173,714.634 435.646,714.634 435.646,507.439 435.646,408.519 725.654,408.519 1193.403,408.519 
		1193.778,408.519 1193.778,234.62 1193.403,234.62 	"/>
</g>
</svg>
