<?xml version="1.0" encoding="utf-8"?>
<!-- Generator: Adobe Illustrator 24.0.2, SVG Export Plug-In . SVG Version: 6.00 Build 0)  -->
<svg version="1.1" id="Layer_1" xmlns="http://www.w3.org/2000/svg" xmlns:xlink="http://www.w3.org/1999/xlink" x="0px" y="0px"
	 viewBox="0 0 1080 648" enable-background="new 0 0 1080 648" xml:space="preserve">
<g>
	<path fill="#0071CE" d="M1082.309,567.986c-27.14-6.614-55.506-9.368-83.694-9.366c-34.859-0.003-69.428,4.21-100.962,10.337
		c-31.534,6.123-60.036,14.155-82.784,21.693c-15.163,5.023-27.779,9.829-36.98,13.663c-9.534,3.972-21.907,9.161-36.659,14.675
		c-14.759,5.517-31.918,11.368-51.161,16.716c-38.485,10.695-85.326,19.392-138.086,19.392
		c-32.271,0.001-66.754-3.258-102.823-11.293c-36.068-8.034-73.719-20.847-112.3-39.889c-31.524-15.558-64.994-26.01-98.976-32.565
		c-33.977-6.556-68.453-9.206-101.865-9.205c-33.15-0.001-65.248,2.607-94.753,6.543c-29.504,3.935-56.415,9.197-79.201,14.479
		c-12.357,2.864-23.488,5.732-33.177,8.397v78.653v21.624h203.464h182.614h34.739h109.022h27.059h28.911h28.797h22.771h6.14H601.2
		h20.072h162.346h216.548h150.945v-96.232c-9.402-5.602-19.131-10.491-29.151-14.685
		C1109.148,575.56,1095.881,571.292,1082.309,567.986z"/>
	<path d="M1121.96,462.235c-12.813-5.363-26.08-9.631-39.651-12.937c-27.14-6.614-55.506-9.368-83.694-9.366
		c-34.859-0.003-69.428,4.21-100.962,10.337c-31.534,6.123-60.036,14.155-82.784,21.693c-15.163,5.022-27.779,9.829-36.98,13.663
		c-9.534,3.972-21.907,9.16-36.659,14.675c-14.759,5.517-31.918,11.367-51.161,16.716c-38.485,10.696-85.326,19.392-138.086,19.393
		c-32.271,0.001-66.754-3.258-102.823-11.294c-36.068-8.034-73.719-20.847-112.3-39.889c-31.524-15.558-64.994-26.01-98.976-32.564
		c-33.977-6.556-68.453-9.207-101.865-9.205c-33.15-0.001-65.248,2.607-94.753,6.543c-29.504,3.935-56.415,9.197-79.201,14.479
		c-12.357,2.864-23.488,5.732-33.177,8.397v87.298c27.793-7.351,64.989-15.703,107.648-21.432
		c30.815-4.137,64.472-6.905,99.482-6.906c35.01,0.001,71.379,2.767,107.606,9.753c36.222,6.987,72.315,18.203,106.648,35.145
		c36.407,17.966,71.712,29.961,105.477,37.485c33.765,7.521,65.997,10.568,96.233,10.569c74.128,0.004,136.276-18.352,178.633-34.19
		c14.129-5.281,26.045-10.274,35.615-14.262c9.965-4.152,23.227-9.195,39.106-14.456c15.876-5.259,34.359-10.73,54.707-15.695
		c40.699-9.925,88.85-17.863,138.57-17.872c22.615,0.001,45.557,1.648,68.264,5.549c22.704,3.902,45.177,10.059,66.784,19.104
		c5.887,2.464,11.705,5.155,17.448,8.06v-84.104C1141.709,471.319,1131.98,466.43,1121.96,462.235z"/>
	<path fill="#0071CE" d="M136.019,413.148c35.01,0.002,71.379,2.767,107.606,9.753c36.222,6.988,72.315,18.203,106.648,35.146
		c36.407,17.965,71.712,29.961,105.477,37.484c33.765,7.521,65.997,10.568,96.233,10.569c74.128,0.005,136.276-18.352,178.633-34.19
		c14.129-5.281,26.045-10.274,35.615-14.262c9.965-4.152,23.227-9.196,39.106-14.457c15.876-5.259,34.359-10.729,54.707-15.696
		c40.699-9.925,88.85-17.863,138.57-17.872c22.615,0.001,45.557,1.649,68.264,5.55c22.704,3.902,45.177,10.059,66.784,19.103
		c5.887,2.464,11.705,5.156,17.448,8.061v-84.105c-9.402-5.602-19.131-10.491-29.151-14.685
		c-12.813-5.363-26.08-9.631-39.651-12.937c-27.14-6.614-55.506-9.368-83.694-9.366c-34.859-0.003-69.428,4.209-100.962,10.337
		c-31.534,6.124-60.036,14.156-82.784,21.693c-15.163,5.022-27.779,9.828-36.98,13.663c-9.534,3.972-21.907,9.161-36.659,14.675
		c-14.759,5.517-31.918,11.368-51.161,16.716c-38.485,10.695-85.326,19.392-138.086,19.393
		c-32.271,0.001-66.754-3.258-102.823-11.294c-36.068-8.034-73.719-20.847-112.3-39.889c-31.524-15.558-64.994-26.01-98.976-32.565
		c-33.977-6.555-68.453-9.206-101.865-9.205c-33.15-0.001-65.248,2.607-94.753,6.543c-29.504,3.935-56.415,9.197-79.201,14.479
		c-12.357,2.864-23.488,5.731-33.177,8.397v87.298c27.793-7.351,64.989-15.703,107.648-21.432
		C67.352,415.917,101.008,413.149,136.019,413.148z"/>
	<path d="M136.019,294.461c35.01,0.001,71.379,2.767,107.606,9.753c36.222,6.987,72.315,18.203,106.648,35.145
		c36.407,17.965,71.712,29.961,105.477,37.484c33.765,7.522,65.997,10.568,96.233,10.569c74.128,0.004,136.276-18.352,178.633-34.19
		c14.129-5.281,26.045-10.275,35.615-14.262c9.965-4.152,23.227-9.196,39.106-14.457c15.876-5.259,34.359-10.73,54.707-15.696
		c40.699-9.925,88.85-17.863,138.57-17.872c22.615,0.001,45.557,1.648,68.264,5.549c22.704,3.902,45.177,10.059,66.784,19.104
		c5.887,2.464,11.705,5.156,17.448,8.06v-0.39V113.873V84.448V-43.84H-71.111v157.713v197.106v11.821
		c27.793-7.352,64.989-15.703,107.648-21.432C67.352,297.229,101.008,294.461,136.019,294.461z"/>
	<path fill="#FDFDFD" d="M1066.879,533.861c-22.706-3.901-45.649-5.549-68.264-5.549c-49.72,0.009-97.871,7.947-138.57,17.872
		c-20.349,4.966-38.832,10.436-54.707,15.695c-15.879,5.261-29.141,10.305-39.106,14.456c-9.57,3.988-21.486,8.981-35.615,14.262
		c-42.357,15.838-104.506,34.195-178.633,34.19c-30.235-0.001-62.467-3.048-96.233-10.569
		c-33.766-7.524-69.071-19.519-105.477-37.485c-34.333-16.943-70.426-28.158-106.648-35.145
		c-36.227-6.986-72.596-9.752-107.606-9.753c-35.011,0.001-68.667,2.769-99.482,6.906c-42.659,5.729-79.855,14.081-107.648,21.432
		v31.39c9.689-2.665,20.82-5.534,33.177-8.397c22.786-5.282,49.697-10.544,79.201-14.479c29.504-3.936,61.602-6.544,94.753-6.543
		c33.412-0.001,67.888,2.649,101.865,9.205c33.981,6.555,67.452,17.006,98.976,32.565c38.581,19.042,76.232,31.855,112.3,39.889
		c36.069,8.036,70.552,11.294,102.823,11.293c52.759,0,99.601-8.697,138.086-19.392c19.243-5.348,36.402-11.199,51.161-16.716
		c14.752-5.514,27.125-10.703,36.659-14.675c9.201-3.834,21.817-8.64,36.98-13.663c22.748-7.537,51.25-15.569,82.784-21.693
		c31.534-6.128,66.103-10.34,100.962-10.337c28.188-0.002,56.554,2.752,83.694,9.366c13.572,3.306,26.839,7.574,39.651,12.937
		c10.019,4.195,19.749,9.083,29.151,14.685v-34.583c-5.743-2.905-11.561-5.596-17.448-8.06
		C1112.056,543.92,1089.583,537.763,1066.879,533.861z"/>
	<path fill="#FDFDFD" d="M41.266,450c29.504-3.936,61.602-6.543,94.753-6.543c33.412-0.002,67.888,2.649,101.865,9.205
		c33.981,6.554,67.452,17.006,98.976,32.564c38.581,19.042,76.232,31.855,112.3,39.889c36.069,8.036,70.552,11.295,102.823,11.294
		c52.759-0.001,99.601-8.697,138.086-19.393c19.243-5.348,36.402-11.199,51.161-16.716c14.752-5.515,27.125-10.703,36.659-14.675
		c9.201-3.834,21.817-8.641,36.98-13.663c22.748-7.537,51.25-15.569,82.784-21.693c31.534-6.128,66.103-10.34,100.962-10.337
		c28.188-0.002,56.554,2.752,83.694,9.366c13.572,3.306,26.839,7.574,39.651,12.937c10.019,4.195,19.749,9.083,29.151,14.686
		v-34.557v-0.026c-5.743-2.905-11.561-5.597-17.448-8.061c-21.607-9.044-44.08-15.202-66.784-19.103
		c-22.706-3.901-45.649-5.549-68.264-5.55c-49.72,0.009-97.871,7.947-138.57,17.872c-20.349,4.966-38.832,10.437-54.707,15.696
		c-15.879,5.261-29.141,10.305-39.106,14.457c-9.57,3.988-21.486,8.981-35.615,14.262c-42.357,15.838-104.506,34.195-178.633,34.19
		c-30.235-0.001-62.467-3.047-96.233-10.569c-33.766-7.523-69.071-19.519-105.477-37.484
		c-34.333-16.943-70.426-28.158-106.648-35.146c-36.227-6.986-72.596-9.752-107.606-9.753c-35.011,0.001-68.667,2.769-99.482,6.906
		c-42.659,5.73-79.855,14.081-107.648,21.432v31.389c9.689-2.665,20.82-5.534,33.177-8.397
		C-15.149,459.197,11.762,453.935,41.266,450z"/>
	<path fill="#FDFDFD" d="M41.266,331.313c29.504-3.936,61.602-6.544,94.753-6.543c33.412-0.001,67.888,2.65,101.865,9.205
		c33.981,6.555,67.452,17.006,98.976,32.565c38.581,19.042,76.232,31.855,112.3,39.889c36.069,8.036,70.552,11.294,102.823,11.294
		c52.759-0.001,99.601-8.697,138.086-19.393c19.243-5.348,36.402-11.199,51.161-16.716c14.752-5.514,27.125-10.703,36.659-14.675
		c9.201-3.834,21.817-8.64,36.98-13.663c22.748-7.537,51.25-15.569,82.784-21.693c31.534-6.127,66.103-10.34,100.962-10.337
		c28.188-0.002,56.554,2.752,83.694,9.366c13.572,3.306,26.839,7.574,39.651,12.937c10.019,4.194,19.749,9.083,29.151,14.685V323.65
		c-5.743-2.905-11.561-5.596-17.448-8.06c-21.607-9.044-44.08-15.202-66.784-19.104c-22.706-3.901-45.649-5.549-68.264-5.549
		c-49.72,0.009-97.871,7.947-138.57,17.872c-20.349,4.966-38.832,10.436-54.707,15.696c-15.879,5.261-29.141,10.305-39.106,14.457
		c-9.57,3.987-21.486,8.981-35.615,14.262c-42.357,15.838-104.506,34.194-178.633,34.19c-30.235-0.001-62.467-3.047-96.233-10.569
		c-33.766-7.523-69.071-19.519-105.477-37.484c-34.333-16.942-70.426-28.158-106.648-35.145
		c-36.227-6.986-72.596-9.752-107.606-9.753c-35.011,0.001-68.667,2.769-99.482,6.906c-42.659,5.729-79.855,14.081-107.648,21.432
		v0.461v30.928c9.689-2.665,20.82-5.533,33.177-8.397C-15.149,340.509,11.762,335.247,41.266,331.313z"/>
</g>
</svg>
