<?xml version="1.0" encoding="utf-8"?>
<!-- Generator: Adobe Illustrator 24.0.2, SVG Export Plug-In . SVG Version: 6.00 Build 0)  -->
<svg version="1.1" id="Layer_1" xmlns="http://www.w3.org/2000/svg" xmlns:xlink="http://www.w3.org/1999/xlink" x="0px" y="0px"
	 viewBox="0 0 1080 648" enable-background="new 0 0 1080 648" xml:space="preserve">
<g>
	<polygon points="419.707,242.26 458.254,242.26 458.254,115.655 458.254,-45.558 269.588,-45.558 50.97,-45.558 -74.667,-45.558 
		-74.667,115.655 -74.667,242.26 -47.85,242.26 	"/>
	<polygon points="458.254,405.756 248.705,405.756 -74.667,405.756 -74.667,676.672 -74.667,693.558 129.98,693.558 
		348.598,693.558 458.254,693.558 458.254,676.672 	"/>
	<polygon points="924.633,-45.558 706.025,-45.558 621.745,-45.558 621.745,219.283 621.745,242.26 887.275,242.26 1154.667,242.26 
		1154.667,219.283 1154.667,-45.558 1142.452,-45.558 	"/>
	<polygon points="621.745,405.756 621.745,498.758 621.745,693.558 785.035,693.558 1002.844,693.558 1154.667,693.558 
		1154.667,498.758 1154.667,405.756 714.547,405.756 	"/>
	<polygon fill="#FDFDFD" points="621.745,242.26 621.745,219.283 621.745,-45.558 620.124,-45.558 591.151,-45.558 562.083,-45.558 
		533.108,-45.558 504.04,-45.558 488.207,-45.558 474.961,-45.558 458.254,-45.558 458.254,115.655 458.254,242.26 419.707,242.26 
		-47.85,242.26 -74.667,242.26 -74.667,396.166 -74.667,405.756 248.705,405.756 458.254,405.756 458.254,676.672 458.254,693.558 
		485.471,693.558 514.551,693.558 543.514,693.558 566.417,693.558 572.592,693.558 601.556,693.558 621.745,693.558 
		621.745,498.758 621.745,405.756 714.547,405.756 1154.667,405.756 1154.667,242.26 887.275,242.26 	"/>
</g>
</svg>
