<?xml version="1.0" encoding="utf-8"?>
<!-- Generator: Adobe Illustrator 24.0.2, SVG Export Plug-In . SVG Version: 6.00 Build 0)  -->
<svg version="1.1" id="Layer_1" xmlns="http://www.w3.org/2000/svg" xmlns:xlink="http://www.w3.org/1999/xlink" x="0px" y="0px"
	 viewBox="0 0 1080 648" enable-background="new 0 0 1080 648" xml:space="preserve">
<g>
	<polygon points="783.69,-73.882 338.626,721.882 361.249,721.882 451.989,721.882 453.734,721.882 484.928,721.882 
		516.224,721.882 547.419,721.882 578.716,721.882 595.763,721.882 610.023,721.882 628.011,721.882 831.136,721.882 
		1066.511,721.882 1201.778,721.882 1201.778,548.313 1201.778,412.005 1201.778,246.302 1201.778,235.977 1201.778,-55.703 
		1201.778,-73.882 981.445,-73.882 	"/>
	<polygon fill="#FDFDFD" points="746.071,-73.882 628.011,-73.882 598.708,-73.882 567.4,-73.882 536.216,-73.882 511.558,-73.882 
		504.909,-73.882 473.726,-73.882 451.989,-73.882 276.184,-73.882 41.682,-73.882 -121.778,-73.882 -121.778,135.849 
		-121.778,235.977 -121.778,412.005 -121.778,436.741 -121.778,721.882 -108.627,721.882 125.886,721.882 338.626,721.882 
		783.69,-73.882 	"/>
</g>
</svg>
