<?xml version="1.0" encoding="utf-8"?>
<!-- Generator: Adobe Illustrator 24.0.2, SVG Export Plug-In . SVG Version: 6.00 Build 0)  -->
<svg version="1.1" id="Layer_1" xmlns="http://www.w3.org/2000/svg" xmlns:xlink="http://www.w3.org/1999/xlink" x="0px" y="0px"
	 viewBox="0 0 1080 648" enable-background="new 0 0 1080 648" xml:space="preserve">
<g>
	<polygon fill="#FDFDFD" points="77.79,235.299 231.742,235.299 231.742,-47.829 77.79,-47.829 77.649,-47.829 77.649,235.299 	"/>
	<polygon fill="#FDFDFD" points="385.977,235.299 539.93,235.299 539.93,-47.829 385.977,-47.829 385.835,-47.829 385.835,235.299 	
		"/>
	<polygon fill="#FDFDFD" points="694.165,235.299 848.116,235.299 848.116,-47.829 694.165,-47.829 694.023,-47.829 
		694.023,235.299 	"/>
	<polygon fill="#FDFDFD" points="1002.351,-47.829 1002.21,-47.829 1002.21,235.299 1002.351,235.299 1156.444,235.299 
		1156.444,-47.829 	"/>
	<polygon fill="#FDFDFD" points="-76.13,407.432 -76.13,324.079 -76.444,324.079 -76.444,695.829 77.649,695.829 77.649,407.432 	
		"/>
	<polygon fill="#FDFDFD" points="231.884,407.432 231.742,407.432 231.742,695.829 231.884,695.829 385.835,695.829 
		385.835,407.432 	"/>
	<polygon fill="#FDFDFD" points="540.07,407.432 539.93,407.432 539.93,695.829 540.07,695.829 694.023,695.829 694.023,407.432 	
		"/>
	<polygon fill="#FDFDFD" points="848.258,407.432 848.116,407.432 848.116,695.829 848.258,695.829 1002.21,695.829 
		1002.21,407.432 	"/>
	<polygon points="1002.21,235.299 1002.21,-47.829 848.258,-47.829 848.116,-47.829 848.116,235.299 694.165,235.299 
		694.023,235.299 694.023,-47.829 540.07,-47.829 539.93,-47.829 539.93,235.299 385.977,235.299 385.835,235.299 385.835,-47.829 
		231.884,-47.829 231.742,-47.829 231.742,235.299 77.79,235.299 77.649,235.299 77.649,-47.829 -76.444,-47.829 -76.444,323.921 
		-76.13,323.921 -76.13,324.079 -76.13,407.432 77.649,407.432 77.649,695.829 77.79,695.829 231.742,695.829 231.742,407.432 
		231.884,407.432 385.835,407.432 385.835,695.829 385.977,695.829 539.93,695.829 539.93,407.432 540.07,407.432 694.023,407.432 
		694.023,695.829 694.165,695.829 848.116,695.829 848.116,407.432 848.258,407.432 1002.21,407.432 1002.21,695.829 
		1002.351,695.829 1156.444,695.829 1156.444,407.432 1156.444,324.079 1156.444,323.921 1156.444,235.299 1002.351,235.299 	"/>
</g>
</svg>
