<?xml version="1.0" encoding="utf-8"?>
<!-- Generator: Adobe Illustrator 24.0.2, SVG Export Plug-In . SVG Version: 6.00 Build 0)  -->
<svg version="1.1" id="Layer_1" xmlns="http://www.w3.org/2000/svg" xmlns:xlink="http://www.w3.org/1999/xlink" x="0px" y="0px"
	 viewBox="0 0 1080 648" enable-background="new 0 0 1080 648" xml:space="preserve">
<g>
	<polygon points="770.27,-54.195 734.723,-54.195 623.164,-54.195 595.475,-54.195 565.891,-54.195 536.425,-54.195 
		513.124,-54.195 506.841,-54.195 477.376,-54.195 456.836,-54.195 290.712,-54.195 69.124,-54.195 -85.333,-54.195 
		-85.333,202.304 -85.333,324.761 -85.333,540.042 -85.333,570.295 -85.333,702.195 1165.333,702.195 1165.333,540.042 
		1165.333,337.388 1165.333,324.761 1165.333,-31.963 1165.333,-54.195 957.134,-54.195 	"/>
	<polygon fill="#FDFDFD" points="540,135.057 586.899,279.397 738.667,279.397 615.884,368.603 662.783,512.943 540,423.736 
		417.217,512.943 464.116,368.603 341.333,279.397 493.101,279.397 	"/>
</g>
</svg>
