<?xml version="1.0" encoding="utf-8"?>
<!-- Generator: Adobe Illustrator 24.0.2, SVG Export Plug-In . SVG Version: 6.00 Build 0)  -->
<svg version="1.1" id="Layer_1" xmlns="http://www.w3.org/2000/svg" xmlns:xlink="http://www.w3.org/1999/xlink" x="0px" y="0px"
	 viewBox="0 0 1080 648" enable-background="new 0 0 1080 648" xml:space="preserve">
<g>
	<polygon points="888.208,-59.088 765.034,-59.088 730.294,-59.088 621.272,-59.088 594.214,-59.088 565.304,-59.088 
		536.506,-59.088 513.735,-59.088 507.596,-59.088 478.8,-59.088 458.728,-59.088 296.382,-59.088 166.789,-59.088 527.499,165.646 
			"/>
	<polygon points="153.3,707.088 901.697,707.088 527.499,473.949 	"/>
	<polygon points="1151.111,554.174 1151.111,542.836 1151.111,337.561 1151.111,324.771 1151.111,85.421 774.922,319.798 	"/>
	<polygon points="-71.111,100.998 -71.111,200.73 -71.111,324.771 -71.111,538.597 280.075,319.798 	"/>
	<polygon fill="#FDFDFD" points="947.647,-59.088 888.208,-59.088 527.499,165.646 166.789,-59.088 79.834,-59.088 -71.111,-59.088 
		-71.111,100.998 280.075,319.798 -71.111,538.597 -71.111,542.836 -71.111,573.481 -71.111,707.088 153.3,707.088 527.499,473.949 
		901.697,707.088 1151.111,707.088 1151.111,554.174 774.922,319.798 1151.111,85.421 1151.111,-36.567 1151.111,-59.088 	"/>
</g>
</svg>
