<?xml version="1.0" encoding="utf-8"?>
<!-- Generator: Adobe Illustrator 24.0.2, SVG Export Plug-In . SVG Version: 6.00 Build 0)  -->
<svg version="1.1" id="Layer_1" xmlns="http://www.w3.org/2000/svg" xmlns:xlink="http://www.w3.org/1999/xlink" x="0px" y="0px"
	 viewBox="0 0 1080 648" enable-background="new 0 0 1080 648" xml:space="preserve">
<g>
	<polygon points="780.745,-69.072 341.061,717.072 363.41,717.072 453.053,717.072 454.777,717.072 485.594,717.072 
		516.512,717.072 547.33,717.072 578.248,717.072 595.088,717.072 609.177,717.072 626.947,717.072 827.617,717.072 
		1060.147,717.072 1193.778,717.072 1193.778,545.602 1193.778,410.941 1193.778,247.241 1193.778,237.041 1193.778,-51.113 
		1193.778,-69.072 976.109,-69.072 	"/>
	<polygon fill="#FDFDFD" points="743.58,-69.072 626.947,-69.072 597.998,-69.072 567.069,-69.072 536.262,-69.072 511.902,-69.072 
		505.333,-69.072 474.527,-69.072 453.053,-69.072 279.373,-69.072 47.706,-69.072 -113.778,-69.072 -113.778,138.123 
		-113.778,237.041 -113.778,410.941 -113.778,435.379 -113.778,717.072 -100.786,717.072 130.893,717.072 341.061,717.072 
		780.745,-69.072 	"/>
</g>
</svg>
