<?xml version="1.0" encoding="utf-8"?>
<!-- Generator: Adobe Illustrator 24.0.2, SVG Export Plug-In . SVG Version: 6.00 Build 0)  -->
<svg version="1.1" id="Layer_1" xmlns="http://www.w3.org/2000/svg" xmlns:xlink="http://www.w3.org/1999/xlink" x="0px" y="0px"
	 viewBox="0 0 1080 648" enable-background="new 0 0 1080 648" xml:space="preserve">
<g>
	<polygon points="647.19,415.81 160.584,415.81 -131.171,415.81 -131.171,730.266 344.185,730.266 647.19,730.266 647.19,440.914 	
		"/>
	<polygon points="-34.048,-82.266 -131.171,-82.266 -131.171,237.182 349.297,237.182 647.19,237.182 647.19,135.573 
		647.19,-77.256 669.248,-77.256 700.892,-77.256 707.639,-77.256 732.662,-77.256 764.306,-77.256 796.076,-77.256 
		825.812,-77.256 825.812,-58.808 825.812,237.182 858.255,237.182 1211.556,237.182 1211.556,-82.266 1143.989,-82.266 	"/>
	<polygon points="867.927,415.81 825.812,415.81 825.812,554.133 825.812,730.266 895.006,730.266 1211.556,730.266 
		1211.556,415.81 1182.256,415.81 	"/>
	<polygon fill="#FDFDFD" points="825.812,237.182 825.812,-58.808 825.812,-77.256 796.076,-77.256 764.306,-77.256 
		732.662,-77.256 707.639,-77.256 700.892,-77.256 669.248,-77.256 647.19,-77.256 647.19,135.573 647.19,237.182 349.297,237.182 
		-131.171,237.182 -131.556,237.182 -131.556,415.81 -131.171,415.81 160.584,415.81 647.19,415.81 647.19,440.914 647.19,730.266 
		648.961,730.266 680.615,730.266 712.374,730.266 744.03,730.266 775.789,730.266 793.088,730.266 807.559,730.266 
		825.812,730.266 825.812,554.133 825.812,415.81 867.927,415.81 1182.256,415.81 1211.556,415.81 1211.556,275.15 1211.556,247.66 
		1211.556,237.182 858.255,237.182 	"/>
</g>
</svg>
