<?xml version="1.0" encoding="utf-8"?>
<!-- Generator: Adobe Illustrator 24.0.2, SVG Export Plug-In . SVG Version: 6.00 Build 0)  -->
<svg version="1.1" id="Layer_1" xmlns="http://www.w3.org/2000/svg" xmlns:xlink="http://www.w3.org/1999/xlink" x="0px" y="0px"
	 viewBox="0 0 1080 648" enable-background="new 0 0 1080 648" xml:space="preserve">
<g>
	<rect x="334.847" y="632.393" width="102.8" height="102.788"/>
	<rect x="437.647" y="529.652" width="101.918" height="102.73"/>
	<polygon points="437.647,529.599 437.647,426.869 334.847,426.869 334.847,529.599 334.847,529.652 437.647,529.652 	"/>
	<rect x="437.647" y="324.07" width="101.918" height="102.782"/>
	<rect x="334.847" y="221.281" width="102.8" height="102.788"/>
	<rect x="437.647" y="118.482" width="101.918" height="102.788"/>
	<rect x="334.847" y="15.688" width="102.8" height="102.788"/>
	<rect x="334.847" y="-87.182" fill="#FDFDFD" width="102.8" height="102.8"/>
	<rect x="437.647" y="-87.182" width="101.918" height="102.8"/>
	<rect x="437.647" y="15.688" fill="#FDFDFD" width="101.918" height="102.788"/>
	<rect x="-76.444" y="632.393" width="102.8" height="102.788"/>
	<polygon fill="#FDFDFD" points="26.355,735.182 129.143,735.182 129.143,632.393 129.143,632.382 26.355,632.382 26.355,529.652 
		-76.444,529.652 -76.444,632.382 -76.444,632.393 26.355,632.393 	"/>
	<rect x="26.355" y="529.652" width="102.788" height="102.73"/>
	<polygon points="26.355,529.599 26.355,426.869 -76.444,426.869 -76.444,529.599 -76.444,529.652 26.355,529.652 	"/>
	<polygon fill="#FDFDFD" points="26.355,529.599 26.355,529.652 129.143,529.652 129.143,529.599 129.143,426.869 129.143,426.852 
		26.355,426.852 26.355,324.07 -76.444,324.07 -76.444,426.852 -76.444,426.869 26.355,426.869 	"/>
	<rect x="26.355" y="324.07" width="102.788" height="102.782"/>
	<rect x="-76.444" y="221.281" width="102.8" height="102.788"/>
	<polygon fill="#FDFDFD" points="26.355,324.07 129.143,324.07 129.143,221.281 129.143,221.27 26.355,221.27 26.355,118.482 
		-76.444,118.482 -76.444,221.27 -76.444,221.281 26.355,221.281 	"/>
	<rect x="26.355" y="118.482" width="102.788" height="102.788"/>
	<rect x="-76.444" y="15.688" width="102.8" height="102.788"/>
	<rect x="-76.444" y="-87.182" fill="#FDFDFD" width="102.8" height="102.8"/>
	<rect x="26.355" y="-87.182" width="102.788" height="102.8"/>
	<rect x="26.355" y="15.688" fill="#FDFDFD" width="102.788" height="102.788"/>
	<rect x="129.201" y="632.393" width="102.8" height="102.788"/>
	<polygon fill="#FDFDFD" points="232.001,735.182 334.789,735.182 334.789,632.393 334.789,632.382 232.001,632.382 
		232.001,529.652 129.201,529.652 129.201,632.382 129.201,632.393 232.001,632.393 	"/>
	<rect x="232.001" y="529.652" width="102.788" height="102.73"/>
	<polygon points="232.001,529.599 232.001,426.869 129.201,426.869 129.201,529.599 129.201,529.652 232.001,529.652 	"/>
	<polygon fill="#FDFDFD" points="232.001,529.599 232.001,529.652 334.789,529.652 334.789,529.599 334.789,426.869 
		334.789,426.852 232.001,426.852 232.001,324.07 129.201,324.07 129.201,426.852 129.201,426.869 232.001,426.869 	"/>
	<rect x="232.001" y="324.07" width="102.788" height="102.782"/>
	<rect x="129.201" y="221.281" width="102.8" height="102.788"/>
	<polygon fill="#FDFDFD" points="232.001,324.07 334.789,324.07 334.789,221.281 334.789,221.27 232.001,221.27 232.001,118.482 
		129.201,118.482 129.201,221.27 129.201,221.281 232.001,221.281 	"/>
	<rect x="232.001" y="118.482" width="102.788" height="102.788"/>
	<rect x="129.201" y="15.688" width="102.8" height="102.788"/>
	<rect x="129.201" y="-87.182" fill="#FDFDFD" width="102.8" height="102.8"/>
	<rect x="232.001" y="-87.182" width="102.788" height="102.8"/>
	<rect x="232.001" y="15.688" fill="#FDFDFD" width="102.788" height="102.788"/>
	<rect x="950.857" y="632.393" width="102.8" height="102.788"/>
	<polygon fill="#FDFDFD" points="1053.656,735.182 1156.444,735.182 1156.444,632.393 1156.444,632.382 1053.656,632.382 
		1053.656,529.652 950.857,529.652 950.857,632.382 950.857,632.393 1053.656,632.393 	"/>
	<rect x="1053.656" y="529.652" width="102.788" height="102.73"/>
	<polygon points="1053.656,529.599 1053.656,426.869 950.857,426.869 950.857,529.599 950.857,529.652 1053.656,529.652 	"/>
	<polygon fill="#FDFDFD" points="1053.656,529.599 1053.656,529.652 1156.444,529.652 1156.444,529.599 1156.444,426.869 
		1156.444,426.852 1053.656,426.852 1053.656,324.07 950.857,324.07 950.857,426.852 950.857,426.869 1053.656,426.869 	"/>
	<rect x="1053.656" y="324.07" width="102.788" height="102.782"/>
	<rect x="950.857" y="221.281" width="102.8" height="102.788"/>
	<polygon fill="#FDFDFD" points="1053.656,324.07 1156.444,324.07 1156.444,221.281 1156.444,221.27 1053.656,221.27 
		1053.656,118.482 950.857,118.482 950.857,221.27 950.857,221.281 1053.656,221.281 	"/>
	<rect x="1053.656" y="118.482" width="102.788" height="102.788"/>
	<rect x="950.857" y="15.688" width="102.8" height="102.788"/>
	<rect x="950.857" y="-87.182" fill="#FDFDFD" width="102.8" height="102.8"/>
	<rect x="1053.656" y="-87.182" width="102.788" height="102.8"/>
	<rect x="1053.656" y="15.688" fill="#FDFDFD" width="102.788" height="102.788"/>
	<polygon points="539.565,632.393 539.565,735.182 540.446,735.182 642.365,735.182 642.365,632.393 	"/>
	<polygon fill="#FDFDFD" points="437.647,735.182 539.565,735.182 539.565,632.393 642.365,632.393 642.365,735.182 
		745.153,735.182 745.153,632.393 745.153,632.382 642.365,632.382 642.365,529.652 540.446,529.652 539.565,529.652 
		539.565,632.382 437.647,632.382 437.647,529.652 334.847,529.652 334.847,632.382 334.847,632.393 437.647,632.393 	"/>
	<rect x="642.365" y="529.652" width="102.788" height="102.73"/>
	<polygon points="642.365,426.869 539.565,426.869 539.565,529.599 539.565,529.652 540.446,529.652 642.365,529.652 
		642.365,529.599 	"/>
	<polygon fill="#FDFDFD" points="437.647,529.599 437.647,529.652 539.565,529.652 539.565,529.599 539.565,426.869 
		642.365,426.869 642.365,529.599 642.365,529.652 745.153,529.652 745.153,529.599 745.153,426.869 745.153,426.852 
		642.365,426.852 642.365,324.07 540.446,324.07 539.565,324.07 539.565,426.852 437.647,426.852 437.647,324.07 334.847,324.07 
		334.847,426.852 334.847,426.869 437.647,426.869 	"/>
	<rect x="642.365" y="324.07" width="102.788" height="102.782"/>
	<polygon points="539.565,221.281 539.565,324.07 540.446,324.07 642.365,324.07 642.365,221.281 	"/>
	<polygon fill="#FDFDFD" points="437.647,324.07 539.565,324.07 539.565,221.281 642.365,221.281 642.365,324.07 745.153,324.07 
		745.153,221.281 745.153,221.27 642.365,221.27 642.365,118.482 540.446,118.482 539.565,118.482 539.565,221.27 437.647,221.27 
		437.647,118.482 334.847,118.482 334.847,221.27 334.847,221.281 437.647,221.281 	"/>
	<rect x="642.365" y="118.482" width="102.788" height="102.788"/>
	<polygon points="540.446,118.476 642.365,118.476 642.365,15.688 540.446,15.688 539.565,15.688 539.565,118.476 	"/>
	<polygon fill="#FDFDFD" points="540.446,15.618 642.365,15.618 642.365,-87.182 540.446,-87.182 539.565,-87.182 539.565,15.618 	
		"/>
	<rect x="642.365" y="-87.182" width="102.788" height="102.8"/>
	<rect x="642.365" y="15.688" fill="#FDFDFD" width="102.788" height="102.788"/>
	<rect x="745.211" y="632.393" width="102.8" height="102.788"/>
	<polygon fill="#FDFDFD" points="848.011,735.182 950.799,735.182 950.799,632.393 950.799,632.382 848.011,632.382 
		848.011,529.652 745.211,529.652 745.211,632.382 745.211,632.393 848.011,632.393 	"/>
	<rect x="848.011" y="529.652" width="102.788" height="102.73"/>
	<polygon points="848.011,529.599 848.011,426.869 745.211,426.869 745.211,529.599 745.211,529.652 848.011,529.652 	"/>
	<polygon fill="#FDFDFD" points="848.011,529.599 848.011,529.652 950.799,529.652 950.799,529.599 950.799,426.869 
		950.799,426.852 848.011,426.852 848.011,324.07 745.211,324.07 745.211,426.852 745.211,426.869 848.011,426.869 	"/>
	<rect x="848.011" y="324.07" width="102.788" height="102.782"/>
	<rect x="745.211" y="221.281" width="102.8" height="102.788"/>
	<polygon fill="#FDFDFD" points="848.011,324.07 950.799,324.07 950.799,221.281 950.799,221.27 848.011,221.27 848.011,118.482 
		745.211,118.482 745.211,221.27 745.211,221.281 848.011,221.281 	"/>
	<rect x="848.011" y="118.482" width="102.788" height="102.788"/>
	<rect x="745.211" y="15.688" width="102.8" height="102.788"/>
	<rect x="745.211" y="-87.182" fill="#FDFDFD" width="102.8" height="102.8"/>
	<rect x="848.011" y="-87.182" width="102.788" height="102.8"/>
	<rect x="848.011" y="15.688" fill="#FDFDFD" width="102.788" height="102.788"/>
</g>
</svg>
