<?xml version="1.0" encoding="utf-8"?>
<!-- Generator: Adobe Illustrator 24.0.2, SVG Export Plug-In . SVG Version: 6.00 Build 0)  -->
<svg version="1.1" id="Layer_1" xmlns="http://www.w3.org/2000/svg" xmlns:xlink="http://www.w3.org/1999/xlink" x="0px" y="0px"
	 viewBox="0 0 1080 648" enable-background="new 0 0 1080 648" xml:space="preserve">
<g>
	<polygon fill="#FDFDFD" points="1160,696.764 1160,500.275 1006.858,696.764 	"/>
	<polygon fill="#FDFDFD" points="-80,-48.764 -80,113.851 46.729,-48.764 	"/>
	<polygon points="1006.858,696.764 1160,500.275 1160,218.376 787.163,696.764 	"/>
	<polygon fill="#FDFDFD" points="1147.679,-48.764 566.647,696.764 787.163,696.764 1160,218.376 1160,-48.764 	"/>
	<polygon points="927.972,-48.764 346.94,696.764 566.647,696.764 1147.679,-48.764 	"/>
	<polygon fill="#FDFDFD" points="707.468,-48.764 126.424,696.764 346.94,696.764 927.972,-48.764 	"/>
	<polygon points="487.761,-48.764 -80,679.736 -80,696.764 126.424,696.764 707.468,-48.764 	"/>
	<polygon fill="#FDFDFD" points="267.245,-48.764 -80,396.793 -80,679.736 487.761,-48.764 	"/>
	<polygon points="46.729,-48.764 -80,113.851 -80,396.793 267.245,-48.764 	"/>
</g>
</svg>
