<?xml version="1.0" encoding="UTF-8" standalone="no"?>
<svg xmlns:rdf="http://www.w3.org/1999/02/22-rdf-syntax-ns#" xmlns="http://www.w3.org/2000/svg" height="88.93696" width="192.84378" version="1.1" xmlns:cc="http://creativecommons.org/ns#" xmlns:dc="http://purl.org/dc/elements/1.1/" viewBox="0 0 192.84378 88.93696"><path d="M83.57917,57.34881v2.19078l4.91176-.82753v-.53572c0-3.69986-1.45905-4.62539-5.34948-4.62539,0,0-19.54691-.00109-20.23072-.00109V69.276c0,3.84691,1.26525,4.86932,5.34951,4.86932H83.14145c4.08532,0,5.34948-1.02241,5.34948-4.86932v-7.108H75.40956V65.819h8.16961v4.38258H67.91941V57.34881Z"/><polygon points="123.892 74.145 146.213 74.145 146.213 70.299 128.95 70.299 128.95 65.236 138.87 65.236 138.87 61.681 128.95 61.681 128.95 57.203 145.97 57.203 145.97 53.552 123.892 53.552 123.892 74.145"/><path d="M172.44934,57.25139v2.19077l4.32812-.92442v-.4878c0-3.60191-1.605-4.47842-5.39846-4.47842,0,0-15.60094-.0011-17.60441-.0011v7.157c0,3.89478,1.36212,4.86932,5.39846,4.86932h13.32417V70.299h-15.124V67.86435l-4.47407.82753v.5847c0,3.8458,1.31314,4.86822,5.3985,4.86822h13.37315c4.08426,0,5.34951-1.02242,5.34951-4.86822V66.45212c0-3.89478-1.26525-4.86713-5.34951-4.86713H158.29764v-4.3336Z"/><path d="M2.45206,74.14892V53.55561H24.53054v3.65092H7.50972V61.686h9.92047V65.24H7.50972v5.06311H24.77334v3.84581ZM0,53.55561H2.4488v2.132Z"/><polygon points="60.462 53.55 62.911 53.55 62.911 55.681 60.462 53.55"/><path d="M38.6087,65.86806l4.62-8.567,4.81376,8.567Zm-9.72661,8.27737h5.00868l2.57836-4.52849h13.616l2.5773,4.52849h5.64129L45.904,53.55105H41.0891ZM38.6414,53.55h2.4488l-.83188,1.40352Z"/><polygon points="97.048 74.145 118.251 74.145 118.251 70.299 102.106 70.299 102.106 53.552 97.048 53.552 97.048 74.145"/><polygon points="94.67 53.55 97.119 53.55 97.119 55.681 94.67 53.55"/><polygon points="121.477 53.55 123.926 53.55 123.926 55.681 121.477 53.55"/><polygon points="151.365 53.55 153.815 53.55 153.815 55.681 151.365 53.55"/><path d="M118.38317,33.61836a14.77723,14.77723,0,1,1,14.77777,14.793,14.78537,14.78537,0,0,1-14.77777-14.793"/><path d="M121.89051,44.48523a14.76918,14.76918,0,0,1,23.23375.88415m4.30855-11.76823H115.8311m17.31263-15.87857V49.55273m11.0768-28.27184a14.76613,14.76613,0,0,1-22.0175.11434" fill="none" stroke="#fff" stroke-miterlimit="3.864" stroke-width="0.75"/><path d="M147.15517,19.61649a43.66587,43.66587,0,0,0,4.35863-5.37234h22.97566a7.23788,7.23788,0,0,0,3.43968-.52482l-5.96471,5.20251c-.92768.66092-1.96426.69465-3.66939.69465Z"/><path d="M154.88218,33.79344l-4.10061,3.5725a17.944,17.944,0,0,0,.37784-3.11191h.41267a7.68015,7.68015,0,0,0,3.3101-.46059"/><path d="M162.5512,27.11338,156.642,32.256c-.91572.66418-1.97954.68053-3.578.68053h-1.90547a17.9915,17.9915,0,0,0-1.02462-5.36148h9.10491a7.6716,7.6716,0,0,0,3.31229-.46168"/><path d="M170.26085,20.3983l-5.95271,5.19054c-.93749.66963-1.97735.66963-3.57686.66963H149.6055a18.01138,18.01138,0,0,0-3.652-5.32446h20.84914a7.17147,7.17147,0,0,0,3.45819-.53571"/><path d="M155.7959,6.306A39.11728,39.11728,0,0,0,157.58159.72681h35.26219L187.16112,5.68c-.93859.62607-1.90222.62607-3.55945.62607Z"/><path d="M152.3837,12.92729a41.43911,41.43911,0,0,0,2.85166-5.30373H182.1091a7.3971,7.3971,0,0,0,3.39283-.50089l-5.9048,5.13173c-.89286.67289-1.924.67289-3.616.67289Z"/><path d="M118.80966,19.61649a43.56349,43.56349,0,0,1-4.35756-5.37234H91.47641a7.24261,7.24261,0,0,1-3.44072-.52482l5.96468,5.20251c.92659.66092,1.96426.69465,3.6694.69465Z"/><path d="M111.08279,33.79344l4.10167,3.5725a18.04873,18.04873,0,0,1-.37894-3.11191h-.41267a7.67984,7.67984,0,0,1-3.31006-.46059"/><path d="M103.41407,27.11338l5.90912,5.14263c.91572.66418,1.97954.68053,3.578.68053h1.90548a17.99181,17.99181,0,0,1,1.02461-5.36148h-9.10491a7.66831,7.66831,0,0,1-3.31225-.46168"/><path d="M95.70418,20.3983l5.95159,5.19054c.93858.66963,1.97844.66963,3.578.66963H116.3595a18.03207,18.03207,0,0,1,3.652-5.32446H99.16234a7.17127,7.17127,0,0,1-3.45816-.53571"/><path d="M110.16926,6.306A39.11475,39.11475,0,0,1,108.38355.72681H73.12135L78.80405,5.68c.93858.62607,1.90219.62607,3.55941.62607Z"/><path d="M113.58127,12.92729a41.43418,41.43418,0,0,1-2.8517-5.30373H83.85583A7.3971,7.3971,0,0,1,80.463,7.12267l5.9048,5.13173c.89286.67289,1.924.67289,3.616.67289Z"/><path d="M125.17658,6.51345c0-4.106-4.00587-6.14215-4.37717-6.51345a16.008,16.008,0,0,0,3.73037.71213s10.36145.03156,12.98447,0c2.623-.03051,2.24847,1.79113,2.24847,1.79113H134.398s.27873.33754,1.72691,1.82054c5.4257-2.745,9.09836-1.54507,9.89867-1.32948,5.27326,1.54072,4.0396,5.89935,3.63783,7.65892a7.12314,7.12314,0,0,0-6.01259-2.03939c-5.63479.42682-4.33471,6.24888-3.64654,8.42218a18.106,18.106,0,0,0-14.82568.36369Z"/><polygon points="86.949 78.357 84.349 78.357 84.349 84.742 78.782 78.357 76.396 78.357 76.396 88.799 78.996 88.799 78.996 82.108 84.761 88.799 86.949 88.799 86.949 78.357"/><polygon points="96.118 86.885 91.026 86.885 91.026 84.374 95.782 84.374 95.782 82.461 91.026 82.461 91.026 80.27 96.012 80.27 96.012 78.357 88.426 78.357 88.426 88.799 96.118 88.799 96.118 86.885"/><polygon points="106.059 82.123 109.301 88.936 110.417 88.936 114.99 78.357 112.238 78.357 109.79 84.129 107.114 78.357 105.019 78.357 102.342 84.129 99.881 78.357 97.127 78.357 101.715 88.936 102.831 88.936 106.059 82.123"/><path d="M124.74723,85.61411A8.09887,8.09887,0,0,1,120.97,86.76286c-2.17223,0-3.71621-1.33274-3.71621-3.2001,0-1.85215,1.55923-3.16964,3.77719-3.16964a7.28234,7.28234,0,0,1,3.59426,1.07143V79.13767a7.35122,7.35122,0,0,0-3.77719-.91788c-3.99277,0-6.27065,2.60235-6.27065,5.38869,0,2.69489,2.01872,5.32771,6.07141,5.32771a8.08887,8.08887,0,0,0,4.09842-1.041Z"/><path d="M133.02862,84.91052h-3.211l1.52873-4.05811Zm-.21339-6.55376h-3.01286l-4.20618,10.442h2.75258l.78071-2.06663h4.6646l.85584,2.06663h2.7994Z"/><path d="M145.66173,79.03064a8.53181,8.53181,0,0,0-3.53332-.81118c-2.41614,0-3.97643,1.19338-3.97643,3.00086,0,3.75107,5.307,3.12282,5.307,4.83772,0,.61195-.53571.96474-1.52982.96474a6.05187,6.05187,0,0,1-3.5627-1.3469v2.24953a7.0585,7.0585,0,0,0,3.76194,1.01155c2.32469,0,4.007-1.164,4.007-3.16964,0-3.64434-5.30705-3.2001-5.30705-4.77674,0-.52156.59669-.85694,1.52982-.85694a8.06778,8.06778,0,0,1,3.30358.93316Z"/><polygon points="157.315 78.357 147.159 78.357 147.159 80.271 150.938 80.271 150.938 88.799 153.538 88.799 153.538 80.271 157.315 80.271 157.315 78.357"/><polygon points="166.843 86.885 161.49 86.885 161.49 78.357 158.89 78.357 158.89 88.799 166.843 88.799 166.843 86.885"/><polygon points="176.019 86.885 170.926 86.885 170.926 84.374 175.683 84.374 175.683 82.461 170.926 82.461 170.926 80.27 175.912 80.27 175.912 78.357 168.326 78.357 168.326 88.799 176.019 88.799 176.019 86.885"/><path d="M51.43228,47.70527a.63893.63893,0,0,1-.35172.6152,4.7915,4.7915,0,0,1-2.00238.37023,6.39124,6.39124,0,0,1-4.60252-1.88261,7.17942,7.17942,0,0,1-1.862-4.87042,5.02329,5.02329,0,0,1,5.49868-5.6293c2.26587,0,3.689.75675,4.12779,1.42529a2.70189,2.70189,0,0,1,.36914,1.16071c.01741.159.03482.26351.123.26351.123,0,.1579-.08823.1579-.36914a22.253,22.253,0,0,1,.123-2.49672c0-.07078-.03486-.14155-.21124-.15787a8.9187,8.9187,0,0,1-1.422-.17638,14.978,14.978,0,0,0-2.68838-.29946,8.61317,8.61317,0,0,0-4.67221,1.10845,6.66532,6.66532,0,0,0-2.93334,5.78505,6.866,6.866,0,0,0,2.0895,5.01194,9.55329,9.55329,0,0,0,9.50342,1.091c.21123-.123.22864-.15787.22864-.94948V45.73556c0-.73931,0-1.26632.03592-1.82925.03486-.6152.17532-.91462.65006-1.00281a2.61889,2.61889,0,0,1,.43879-.05227c.06971,0,.14049-.03486.14049-.10563,0-.1056-.08822-.14046-.28095-.14046-.527,0-1.63433.05227-1.72145.05227-.08819,0-1.19445-.05227-1.985-.05227-.19383,0-.282.03486-.282.14046,0,.07077.07078.10563.14156.10563a3.30512,3.30512,0,0,1,.59669.05227c.70229.19379.79051.38761.79051,1.81184Z"/><path d="M58.38429,36.78451a.2147.2147,0,0,1,.14156-.21234,5.33645,5.33645,0,0,1,1.177-.1045c1.87936,0,3.039,1.31859,3.039,3.51694a3.21854,3.21854,0,0,1-1.07144,2.709,2.2776,2.2776,0,0,1-1.31749.33319,4.84838,4.84838,0,0,1-1.84559-.28092.23064.23064,0,0,1-.123-.21124Zm-1.40458,7.31483c0,1.68773,0,3.07819-.08823,3.8164-.06968.51069-.159.89721-.50956.968a2.73176,2.73176,0,0,1-.527.06968c-.10454,0-.14046.05227-.14046.10673,0,.10451.08819.14046.28092.14046.5281,0,1.63436-.05337,1.65177-.05337.08819,0,1.19448.05337,2.16028.05337.19382,0,.28091-.05337.28091-.14046,0-.05446-.03482-.10673-.14046-.10673a7.72727,7.72727,0,0,1-.79048-.06968c-.527-.07078-.63154-.4573-.68491-.968-.08819-.73821-.08819-2.12867-.08819-3.8164V43.678c0-.08818.03595-.14045.123-.14045l2.16027.03485a.28.28,0,0,1,.22865.1056c.35169.45624,1.17813,1.63546,1.91528,2.60236a9.15518,9.15518,0,0,0,2.37151,2.5849,3.55775,3.55775,0,0,0,1.87932.33538h1.24781c.31577,0,.42141-.03595.42141-.14046,0-.05446-.07078-.10673-.1579-.10673a4.23919,4.23919,0,0,1-.68488-.05227,3.63394,3.63394,0,0,1-2.14393-1.26632c-1.01807-1.091-2.21254-2.65568-3.65308-4.50234A5.429,5.429,0,0,0,64.21722,39.07a3.07594,3.07594,0,0,0-1.21186-2.39109A5.40573,5.40573,0,0,0,59.79,35.90474c-.54442,0-1.87935.05223-2.07318.05223-.08709,0-1.19335-.05223-1.985-.05223-.19272,0-.28091.03592-.28091.14046,0,.06968.07077.1056.14046.1056a3.31692,3.31692,0,0,1,.59778.05336c.57928.123.71974.404.75566,1.00172.03486.56293.03486,1.05618.03486,3.799Z"/><path d="M68.90667,42.04264c0-3.85122,2.1951-5.78611,5.12844-5.78611,2.77548,0,5.33968,2.26917,5.33968,6.4895,0,5.11757-3.26653,6.0322-4.84752,6.0322-3.162,0-5.6206-2.63827-5.6206-6.73559m-1.66918.49215c0,3.16528,2.00237,6.912,6.81613,6.912a6.9006,6.9006,0,0,0,7.0089-7.194c0-4.09731-2.95185-6.594-6.90436-6.594a6.80349,6.80349,0,0,0-6.92067,6.876"/><path d="M83.66507,43.57256c0,2.5675.66743,3.79789,1.52872,4.62543a5.39164,5.39164,0,0,0,3.61823,1.2489,5.14846,5.14846,0,0,0,3.61932-1.30227c1.40458-1.24781,1.61582-3.35907,1.61582-5.258V41.004c0-2.74281,0-3.235.03595-3.7979.03482-.6152.17528-.91462.64893-1.00175A1.5118,1.5118,0,0,1,95.172,36.151c.06968,0,.14046-.03595.14046-.10563,0-.10451-.08819-.14046-.28091-.14046-.527,0-1.35345.05227-1.4754.05227-.1067,0-1.07249-.05227-1.863-.05227-.19273,0-.28091.03595-.28091.14046,0,.06968.06968.10563.14045.10563a3.20254,3.20254,0,0,1,.59669.05333c.58035.123.7208.4029.75676,1.00175.03482.56293.03482,1.05509.03482,3.7979v2.19835c0,1.81184-.21123,3.30684-1.01916,4.30965a3.69029,3.69029,0,0,1-2.758,1.26525,3.433,3.433,0,0,1-2.65242-.96689c-.75566-.71974-1.3175-1.81077-1.3175-4.34341V41.004c0-2.74281,0-3.235.03483-3.7979.03486-.6152.17641-.932.65-1.00175a2.54353,2.54353,0,0,1,.43989-.05333c.06968,0,.13936-.03595.13936-.10563,0-.10451-.08709-.14046-.27982-.14046-.52807,0-1.581.05227-1.74.05227-.15791,0-1.2293-.05227-2.01982-.05227-.19382,0-.28092.03595-.28092.14046,0,.06968.06969.10563.14046.10563a3.20231,3.20231,0,0,1,.59669.05333c.57928.123.7208.4029.75566,1.00175.03486.56293.03486,1.05509.03486,3.7979Z"/><path d="M98.32318,44.09934c0,1.68773,0,3.07819-.08713,3.8164-.07187.51069-.159.89721-.51066.968a2.73166,2.73166,0,0,1-.527.06968c-.10454,0-.14046.05227-.14046.10673,0,.10451.08819.14046.28092.14046.527,0,1.63436-.05337,1.68663-.05337.08819,0,1.19444.05337,2.16027.05337.1938,0,.282-.05337.282-.14046,0-.05446-.03482-.10673-.14152-.10673a7.73481,7.73481,0,0,1-.78941-.06968c-.527-.07078-.63262-.4573-.68488-.968-.08819-.73821-.08819-2.12867-.08819-3.8164V36.87163c0-.17531.03482-.29946.14045-.33318a2.14681,2.14681,0,0,1,.75457-.10564,3.04952,3.04952,0,0,1,2.40743.87871,3.73468,3.73468,0,0,1,.9843,2.70795,2.919,2.919,0,0,1-3.04,2.86692c-.368,0-.47364.01741-.47364.15787,0,.08822.1056.12414.19272.12414a2.62047,2.62047,0,0,0,.36911.01741,4.08067,4.08067,0,0,0,4.32161-4.1866,3.061,3.061,0,0,0-.87867-2.09275c-.281-.26351-1.07143-1.00172-3.26763-1.00172-.80792,0-1.82708.05223-2.21364.05223-.13936,0-1.19444-.05223-1.98495-.05223-.19273,0-.27982.03592-.27982.14046,0,.06968.06968.1056.14045.1056a3.30467,3.30467,0,0,1,.59669.05336c.57928.123.7208.404.75566,1.00172.03486.56293.03486,1.05618.03486,3.799Z"/><path d="M5.26521,38.21371h7.7177V35.88686H2.17941v13.261h10.8133V46.85152H5.26521c0-1.4852,0-.87216-.00219-3.24912h7.71989V41.29625H5.27717c-.012-1.80313-.012-2.37805-.012-3.08254"/><path d="M24.66937,38.21371,25.915,35.88686l-8.0019.00545c-3.15113,0-4.6439,1.02461-4.6439,3.90349,0,2.65678,1.37082,3.8066,4.39345,3.8066h2.65788c1.34474,0,1.98386.50089,1.98386,1.68228,0,1.14327-.711,1.56684-2.1853,1.56684H14.23823L12.99258,49.1479h7.599c3.13371,0,4.62433-1.34364,4.62433-4.13,0-2.76787-1.25436-3.72167-4.20292-3.72167H17.92178c-1.16178,0-1.74106-.50305-1.74106-1.4634,0-1.21733.70774-1.61914,2.16353-1.61914Z"/><polygon points="28.71 35.887 25.916 35.887 25.916 49.148 28.71 49.148 28.71 43.603 33.805 43.606 33.805 49.141 36.588 49.141 36.588 35.892 33.805 35.892 33.796 41.296 28.71 41.296 28.71 35.887"/></svg>