<?xml version="1.0" encoding="UTF-8" standalone="no"?>
<!DOCTYPE svg PUBLIC "-//W3C//DTD SVG 1.1//EN" "http://www.w3.org/Graphics/SVG/1.1/DTD/svg11.dtd">
<svg xmlns="http://www.w3.org/2000/svg" xmlns:xlink="http://www.w3.org/1999/xlink" version="1.1" width="1200" height="1200" viewBox="0 0 1200 1200" xml:space="preserve">
<desc>Created with Fabric.js 3.2.0</desc>
<defs>
</defs>
<g id="id_1581502967359" clip-path="url(#CLIPPATH_2)">
<g transform="matrix(0.44004832650358616 0 0 0.4400483265035862 599.6013761055134 596.475440214738)">
<clipPath id="CLIPPATH_2">
	<rect transform="matrix(1 0 0 1 600.5 597.1666666666667)" x="-180" y="-541.1111111111112" rx="0" ry="0" width="360" height="1082.2222222222224"/>
</clipPath>
<g style="">
		<g transform="matrix(0.096 0 0 0.096 -124.39755739870567 63.53458383896549)" id="_393610271520">
<path style="stroke: none; stroke-width: 1; stroke-dasharray: none; stroke-linecap: butt; stroke-dashoffset: 0; stroke-linejoin: miter; stroke-miterlimit: 4; fill: rgb(255,210,78); fill-rule: nonzero; opacity: 1;" transform=" translate(-2954.1280980710294, -6162.050793600794)" d="M 2818 6187 c 0 0 -56 94 42 150 c 0 0 254 -234 246 -288 c -7 -55 -120 -155 -288 138 z" stroke-linecap="round"/>
</g>
		<g transform="matrix(0.096 0 0 0.096 -124.39294296454443 63.82969077202425)" id="_393610271520">
<path style="stroke: none; stroke-width: 1; stroke-dasharray: none; stroke-linecap: butt; stroke-dashoffset: 0; stroke-linejoin: miter; stroke-miterlimit: 4; fill: rgb(0,0,0); fill-rule: nonzero; opacity: 1;" transform=" translate(-2954.1761650935423, -6165.12482415349)" d="M 2864 6371 l -18 -10 c -36 -20 -59 -48 -68 -82 c -14 -53 13 -101 16 -106 c 111 -194 201 -222 257 -212 c 48 10 78 49 83 84 c 9 60 -156 221 -255 312 l -15 14 z m -22 -170 l 0 0 c -1 1 -18 33 -10 65 c 4 13 12 25 25 35 c 107 -99 217 -218 222 -249 c -3 -13 -16 -32 -38 -36 c -77 -15 -172 138 -199 185 l 0 0 z" stroke-linecap="round"/>
</g>
		<g transform="matrix(0.096 0 0 0.096 -1.6258548135244837 183.00170765328912)" id="_393610271520">
<path style="stroke: none; stroke-width: 1; stroke-dasharray: none; stroke-linecap: butt; stroke-dashoffset: 0; stroke-linejoin: miter; stroke-miterlimit: 4; fill: rgb(167,169,172); fill-rule: nonzero; opacity: 1;" transform=" translate(-4233, -7406.5)" d="M 5968 7407 c 0 246 -777 445 -1735 445 c -958 0 -1735 -199 -1735 -445 c 0 -247 777 -446 1735 -446 c 958 0 1735 199 1735 446 z" stroke-linecap="round"/>
</g>
		<g transform="matrix(0.096 0 0 0.096 -92.71166189251181 138.38121040268797)" id="_393610271520">
<path style="stroke: none; stroke-width: 1; stroke-dasharray: none; stroke-linecap: butt; stroke-dashoffset: 0; stroke-linejoin: miter; stroke-miterlimit: 4; fill: rgb(114,166,55); fill-rule: nonzero; opacity: 1;" transform=" translate(-3284.1895095938817, -6941.703153639572)" d="M 2756 6477 c -142 219 -181 534 62 909 c 68 106 853 -241 1085 -129 c 0 0 141 -348 -277 -408 c -111 -16 -338 67 -526 88 c 0 0 125 -448 -344 -460 z" stroke-linecap="round"/>
</g>
		<g transform="matrix(0.096 0 0 0.096 -92.7255657742259 138.3617076532892)" id="_393610271520">
<path style="stroke: none; stroke-width: 1; stroke-dasharray: none; stroke-linecap: butt; stroke-dashoffset: 0; stroke-linejoin: miter; stroke-miterlimit: 4; fill: rgb(0,0,0); fill-rule: nonzero; opacity: 1;" transform=" translate(-3284.044677492693, -6941.5)" d="M 2882 7434 c -44 0 -72 -10 -87 -33 c -126 -193 -300 -572 -62 -939 c 5 -8 14 -13 24 -13 c 148 4 255 50 320 137 c 80 109 70 250 58 319 c 67 -10 138 -27 207 -43 c 117 -27 219 -51 288 -41 c 140 20 237 75 287 161 c 73 129 14 279 12 285 c -3 7 -9 13 -16 15 c -7 3 -15 3 -22 0 c -117 -57 -408 18 -642 79 c -171 44 -292 73 -367 73 z m -111 -929 l 0 0 c -208 337 -46 687 70 866 c 0 0 13 17 117 0 c 75 -12 173 -37 277 -64 c 238 -61 506 -130 650 -87 c 12 -43 27 -134 -17 -211 c -41 -70 -124 -115 -246 -133 c -59 -8 -160 15 -267 40 c -84 20 -171 40 -252 49 c -9 1 -18 -3 -24 -10 c -6 -7 -8 -16 -6 -25 c 1 -2 50 -188 -41 -311 c -52 -70 -139 -108 -261 -114 z" stroke-linecap="round"/>
</g>
		<g transform="matrix(0.096 0 0 0.096 -135.01416851690936 100.81068078414887)" id="_393610271520">
<path style="stroke: none; stroke-width: 1; stroke-dasharray: none; stroke-linecap: butt; stroke-dashoffset: 0; stroke-linejoin: miter; stroke-miterlimit: 4; fill: rgb(255,210,78); fill-rule: nonzero; opacity: 1;" transform=" translate(-2843.538398923074, -6550.343470113122)" d="M 2728 6357 c 0 0 -68 92 -97 205 c -19 72 108 124 307 194 c 0 0 142 -65 117 -176 c -24 -110 -130 -283 -327 -223 z" stroke-linecap="round"/>
</g>
		<g transform="matrix(0.096 0 0 0.096 -135.03335460386347 100.91912905244556)" id="_393610271520">
<path style="stroke: none; stroke-width: 1; stroke-dasharray: none; stroke-linecap: butt; stroke-dashoffset: 0; stroke-linejoin: miter; stroke-miterlimit: 4; fill: rgb(0,0,0); fill-rule: nonzero; opacity: 1;" transform=" translate(-2843.3385438506357, -6551.473139574546)" d="M 2940 6786 l -11 -4 c -213 -75 -350 -130 -325 -227 c 30 -116 99 -210 102 -214 l 6 -8 l 8 -2 c 76 -24 146 -17 208 19 c 89 51 139 153 154 224 c 29 131 -126 204 -132 207 l -10 5 z m -195 -405 l 0 0 c -16 24 -65 100 -87 188 c -14 53 157 114 278 156 c 28 -15 108 -66 92 -139 c -13 -60 -55 -146 -127 -188 c -46 -27 -98 -32 -156 -17 z" stroke-linecap="round"/>
</g>
		<g transform="matrix(0.096 0 0 0.096 -139.66624206814373 122.08436067957633)" id="_393610271520">
<path style="stroke: none; stroke-width: 1; stroke-dasharray: none; stroke-linecap: butt; stroke-dashoffset: 0; stroke-linejoin: miter; stroke-miterlimit: 4; fill: rgb(255,210,78); fill-rule: nonzero; opacity: 1;" transform=" translate(-2795.0792994310495, -6771.944302357158)" d="M 2643 6525 c 0 0 -76 165 13 505 c 0 0 273 -42 319 -251 c 24 -110 -136 -315 -332 -254 z" stroke-linecap="round"/>
</g>
		<g transform="matrix(0.096 0 0 0.096 -139.6840561904816 122.23446852117723)" id="_393610271520">
<path style="stroke: none; stroke-width: 1; stroke-dasharray: none; stroke-linecap: butt; stroke-dashoffset: 0; stroke-linejoin: miter; stroke-miterlimit: 4; fill: rgb(0,0,0); fill-rule: nonzero; opacity: 1;" transform=" translate(-2794.8937356566967, -6773.507925707168)" d="M 2635 7061 l -6 -24 c -90 -346 -15 -517 -12 -524 l 6 -11 l 11 -4 c 96 -29 196 -5 274 68 c 71 65 108 153 94 219 c -21 94 -87 171 -191 223 c -77 38 -148 49 -151 49 l -25 4 z m 29 -513 l 0 0 c -14 41 -51 190 12 449 c 65 -16 238 -71 272 -223 c 10 -47 -23 -117 -77 -167 c -61 -56 -135 -77 -207 -59 z" stroke-linecap="round"/>
</g>
		<g transform="matrix(0.096 0 0 0.096 -76.64985481352448 23.05049884092047)" id="_393610271520">
<path style="stroke: none; stroke-width: 1; stroke-dasharray: none; stroke-linecap: butt; stroke-dashoffset: 0; stroke-linejoin: miter; stroke-miterlimit: 4; fill: rgb(114,166,55); fill-rule: nonzero; opacity: 1;" transform=" translate(-3451.5, -5740.3415748711595)" d="M 3817 5225 c 0 0 -355 348 -863 792 c 23 305 257 263 406 172 c 150 -92 589 -375 589 -375 l -132 -589 z" stroke-linecap="round"/>
</g>
		<g transform="matrix(0.096 0 0 0.096 -76.63619390868325 23.010105239251992)" id="_393610271520">
<path style="stroke: none; stroke-width: 1; stroke-dasharray: none; stroke-linecap: butt; stroke-dashoffset: 0; stroke-linejoin: miter; stroke-miterlimit: 4; fill: rgb(0,0,0); fill-rule: nonzero; opacity: 1;" transform=" translate(-3451.642301092096, -5739.920808187113)" d="M 3153 6283 c -34 0 -69 -6 -101 -22 c -74 -38 -116 -120 -125 -242 c -1 -9 3 -17 9 -23 c 502 -438 858 -788 862 -791 c 7 -7 18 -10 27 -7 c 10 3 17 11 20 21 l 131 589 c 2 11 -3 23 -12 29 c -5 3 -441 285 -589 375 c -33 21 -126 71 -222 71 z m -170 -255 l 0 0 c 10 94 41 156 95 183 c 77 40 189 2 268 -46 c 132 -80 491 -312 571 -364 l -116 -522 c -102 98 -412 394 -818 749 z" stroke-linecap="round"/>
</g>
		<g transform="matrix(0.096 0 0 0.096 -117.5145065013231 77.21458383896544)" id="_393610271520">
<path style="stroke: none; stroke-width: 1; stroke-dasharray: none; stroke-linecap: butt; stroke-dashoffset: 0; stroke-linejoin: miter; stroke-miterlimit: 4; fill: rgb(255,210,78); fill-rule: nonzero; opacity: 1;" transform=" translate(-3025.8265449187647, -6304.550793600794)" d="M 2889 6330 c 0 0 -55 94 42 149 c 0 0 255 -233 247 -287 c -8 -55 -121 -155 -289 138 z" stroke-linecap="round"/>
</g>
		<g transform="matrix(0.096 0 0 0.096 -117.52935023965746 77.5448346357084)" id="_393610271520">
<path style="stroke: none; stroke-width: 1; stroke-dasharray: none; stroke-linecap: butt; stroke-dashoffset: 0; stroke-linejoin: miter; stroke-miterlimit: 4; fill: rgb(0,0,0); fill-rule: nonzero; opacity: 1;" transform=" translate(-3025.6719226444484, -6307.990906066867)" d="M 2935 6514 l -18 -10 c -35 -21 -58 -48 -67 -82 c -14 -53 13 -102 15 -106 c 112 -194 202 -223 257 -212 c 48 9 78 49 83 84 c 9 60 -156 221 -255 312 l -15 14 z m -22 -170 l 0 0 c 0 1 -18 33 -9 64 c 3 14 12 26 24 36 c 107 -99 217 -219 222 -250 c -2 -12 -15 -31 -38 -35 c -77 -15 -172 137 -199 185 l 0 0 z" stroke-linecap="round"/>
</g>
		<g transform="matrix(0.096 0 0 0.096 205.3962440848505 -9.075249639509025)" id="_393610271520">
<path style="stroke: none; stroke-width: 1; stroke-dasharray: none; stroke-linecap: butt; stroke-dashoffset: 0; stroke-linejoin: miter; stroke-miterlimit: 4; fill: rgb(37,70,21); fill-rule: nonzero; opacity: 1;" transform=" translate(-6389.480196858072, -5405.698361533352)" d="M 6373 5205 c 64 -4 201 245 178 287 c -19 35 -123 82 -193 102 c -62 18 -122 35 -132 -91 c -9 -125 83 -293 147 -298 z" stroke-linecap="round"/>
</g>
		<g transform="matrix(0.096 0 0 0.096 205.42719746546817 -9.05439234671087)" id="_393610271520">
<path style="stroke: none; stroke-width: 1; stroke-dasharray: none; stroke-linecap: butt; stroke-dashoffset: 0; stroke-linejoin: miter; stroke-miterlimit: 4; fill: rgb(0,0,0); fill-rule: nonzero; opacity: 1;" transform=" translate(-6389.802627906173, -5405.915625)" d="M 6296 5634 c -18 0 -35 -4 -50 -15 c -28 -19 -43 -55 -47 -114 c -10 -134 88 -321 172 -327 c 37 -3 81 34 131 111 c 4 7 103 161 74 216 c -27 50 -153 100 -210 116 c -23 6 -47 13 -70 13 z m 79 -401 l 0 0 c -41 4 -130 148 -121 268 c 3 38 11 64 24 73 c 14 10 44 1 72 -7 c 81 -22 162 -66 176 -87 c 2 -22 -39 -123 -97 -198 c -31 -39 -49 -49 -54 -49 z" stroke-linecap="round"/>
</g>
		<g transform="matrix(0.096 0 0 0.096 -266.1538548135245 -54.27757712678789)" id="_393610271520">
<path style="stroke: none; stroke-width: 1; stroke-dasharray: none; stroke-linecap: butt; stroke-dashoffset: 0; stroke-linejoin: miter; stroke-miterlimit: 4; fill: rgb(255,255,255); fill-rule: nonzero; opacity: 1;" transform=" translate(-1477.5, -4934.840783540864)" d="M 1353 4787 c 0 0 20 268 109 320 c 0 0 118 -116 140 -257 c 0 0 -123 -143 -249 -63 z" stroke-linecap="round"/>
</g>
		<g transform="matrix(0.096 0 0 0.096 -266.1538548135245 -53.97825987113011)" id="_393610271520">
<path style="stroke: none; stroke-width: 1; stroke-dasharray: none; stroke-linecap: butt; stroke-dashoffset: 0; stroke-linejoin: miter; stroke-miterlimit: 4; fill: rgb(0,0,0); fill-rule: nonzero; opacity: 1;" transform=" translate(-1477.5, -4937.958671620633)" d="M 1466 5141 l -18 -10 c -99 -58 -120 -313 -122 -342 l -2 -17 l 14 -9 c 116 -73 237 13 285 69 l 8 10 l -2 13 c -23 147 -143 266 -148 271 l -15 15 z m -83 -339 l 0 0 c 8 89 34 217 76 266 c 31 -35 94 -116 113 -209 c -26 -26 -106 -96 -189 -57 z" stroke-linecap="round"/>
</g>
		<g transform="matrix(0.096 0 0 0.096 -287.97311882161785 -113.25615693569894)" id="_393610271520">
<path style="stroke: none; stroke-width: 1; stroke-dasharray: none; stroke-linecap: butt; stroke-dashoffset: 0; stroke-linejoin: miter; stroke-miterlimit: 4; fill: rgb(37,70,21); fill-rule: nonzero; opacity: 1;" transform=" translate(-1250.2159999156938, -4320.480577198041)" d="M 1375 4356 c -28 99 -107 165 -176 145 c -69 -19 -102 -116 -73 -216 c 28 -100 106 -165 175 -145 c 69 19 102 116 74 216 z" stroke-linecap="round"/>
</g>
		<g transform="matrix(0.096 0 0 0.096 -287.9330612929337 -113.28059679163914)" id="_393610271520">
<path style="stroke: none; stroke-width: 1; stroke-dasharray: none; stroke-linecap: butt; stroke-dashoffset: 0; stroke-linejoin: miter; stroke-miterlimit: 4; fill: rgb(0,0,0); fill-rule: nonzero; opacity: 1;" transform=" translate(-1250.633265839487, -4320.22599536533)" d="M 1225 4532 c -11 0 -22 -1 -33 -4 c -43 -12 -75 -46 -92 -96 c -16 -46 -16 -101 -1 -154 c 15 -54 44 -101 81 -132 c 41 -33 86 -45 129 -33 c 85 24 126 134 93 250 c -29 101 -102 169 -177 169 z m 51 -368 l 0 0 c -19 0 -40 9 -60 25 c -29 24 -52 61 -64 104 c -12 43 -12 86 0 121 c 11 32 31 54 55 60 c 53 15 118 -42 142 -126 c 23 -83 -2 -166 -55 -182 c -6 -1 -12 -2 -18 -2 z" stroke-linecap="round"/>
</g>
		<g transform="matrix(0.096 0 0 0.096 164.2816922728246 85.12891458825328)" id="_393610271520">
<path style="stroke: none; stroke-width: 1; stroke-dasharray: none; stroke-linecap: butt; stroke-dashoffset: 0; stroke-linejoin: miter; stroke-miterlimit: 4; fill: rgb(114,166,55); fill-rule: nonzero; opacity: 1;" transform=" translate(-5961.203615482803, -6386.991738905877)" d="M 4947 7213 c 0 0 787 453 1132 -444 c 367 -958 232 -1271 1004 -1140 c 0 0 -855 -554 -1189 269 c -333 822 -492 764 -720 542 c -229 -223 -484 666 -227 773 z" stroke-linecap="round"/>
</g>
		<g transform="matrix(0.096 0 0 0.096 164.30705245641033 85.1944419445576)" id="_393610271520">
<path style="stroke: none; stroke-width: 1; stroke-dasharray: none; stroke-linecap: butt; stroke-dashoffset: 0; stroke-linejoin: miter; stroke-miterlimit: 4; fill: rgb(0,0,0); fill-rule: nonzero; opacity: 1;" transform=" translate(-5961.467784061821, -6387.674315534046)" d="M 5386 7356 c -236 0 -430 -106 -451 -118 c -79 -34 -123 -132 -123 -276 c -1 -220 103 -518 237 -575 c 35 -15 88 -21 144 33 c 96 93 170 148 246 133 c 119 -25 256 -237 430 -666 c 93 -231 237 -378 426 -438 c 155 -49 343 -37 544 34 c 151 53 255 120 259 123 c 11 7 16 21 11 33 c -5 13 -17 20 -30 18 c -576 -98 -621 44 -787 574 c -47 149 -105 334 -188 548 c -107 281 -269 462 -481 537 c -81 29 -161 40 -237 40 z m -289 -924 l 0 0 c -10 0 -19 3 -26 6 c -102 43 -204 307 -204 523 c 0 71 12 194 91 226 c 1 1 2 1 3 2 c 2 1 196 110 428 110 c 70 0 143 -10 216 -35 c 195 -70 346 -240 448 -505 c 81 -212 139 -397 186 -545 c 84 -268 140 -445 254 -546 c 95 -82 224 -110 438 -88 c -33 -15 -70 -31 -111 -45 c -132 -47 -328 -90 -508 -33 c -173 54 -305 191 -392 406 c -187 460 -327 669 -470 699 c -110 23 -206 -60 -296 -147 c -22 -22 -41 -28 -57 -28 z" stroke-linecap="round"/>
</g>
		<g transform="matrix(0.096 0 0 0.096 84.62961282495573 51.83009416191469)" id="_393610271520">
<path style="stroke: none; stroke-width: 1; stroke-dasharray: none; stroke-linecap: butt; stroke-dashoffset: 0; stroke-linejoin: miter; stroke-miterlimit: 4; fill: rgb(37,70,21); fill-rule: nonzero; opacity: 1;" transform=" translate(-5131.4944545675025, -6040.129026131515)" d="M 5386 5984 c 13 73 -81 221 -222 246 c -141 25 -275 -83 -287 -155 c -13 -72 80 -198 221 -224 c 141 -25 276 61 288 133 z" stroke-linecap="round"/>
</g>
		<g transform="matrix(0.096 0 0 0.096 84.63072539367936 51.88031634894142)" id="_393610271520">
<path style="stroke: none; stroke-width: 1; stroke-dasharray: none; stroke-linecap: butt; stroke-dashoffset: 0; stroke-linejoin: miter; stroke-miterlimit: 4; fill: rgb(0,0,0); fill-rule: nonzero; opacity: 1;" transform=" translate(-5131.50604382504, -6040.652173913044)" d="M 5122 6262 c -136 0 -258 -101 -273 -182 c -16 -93 93 -229 244 -256 c 71 -12 145 -1 210 33 c 61 32 103 77 111 123 c 8 45 -15 107 -59 162 c -29 36 -91 99 -186 116 c -16 3 -31 4 -47 4 z m 26 -387 l 0 0 c -15 0 -30 1 -45 4 c -130 23 -208 139 -199 191 c 10 59 132 155 255 133 c 77 -14 128 -66 152 -95 c 39 -49 52 -96 48 -119 c -4 -22 -31 -57 -81 -83 c -40 -20 -85 -31 -130 -31 z" stroke-linecap="round"/>
</g>
		<g transform="matrix(0.096 0 0 0.096 74.21414518647556 -0.7811131193927672)" id="_393610271520">
<path style="stroke: none; stroke-width: 1; stroke-dasharray: none; stroke-linecap: butt; stroke-dashoffset: 0; stroke-linejoin: miter; stroke-miterlimit: 4; fill: rgb(37,70,21); fill-rule: nonzero; opacity: 1;" transform=" translate(-5023, -5492.09561695123)" d="M 5278 5436 c 13 72 -81 221 -222 246 c -141 25 -275 -84 -288 -156 c -13 -72 81 -198 222 -223 c 140 -25 275 60 288 133 z" stroke-linecap="round"/>
</g>
		<g transform="matrix(0.096 0 0 0.096 74.21322212575207 -0.8236836510586585)" id="_393610271520">
<path style="stroke: none; stroke-width: 1; stroke-dasharray: none; stroke-linecap: butt; stroke-dashoffset: 0; stroke-linejoin: miter; stroke-miterlimit: 4; fill: rgb(0,0,0); fill-rule: nonzero; opacity: 1;" transform=" translate(-5022.990384784131, -5491.652173913043)" d="M 5014 5713 c -137 0 -259 -101 -273 -182 c -8 -45 14 -102 60 -153 c 48 -54 114 -90 184 -103 c 70 -12 145 -1 210 33 c 61 32 102 78 110 123 l 0 0 c 16 87 -90 250 -244 278 c -16 3 -32 4 -47 4 z m 27 -387 l 0 0 c -15 0 -30 1 -46 4 c -79 14 -130 59 -153 85 c -38 42 -51 84 -47 106 c 11 59 133 155 256 133 c 126 -22 210 -155 200 -214 c -9 -45 -98 -114 -210 -114 z" stroke-linecap="round"/>
</g>
		<g transform="matrix(0.096 0 0 0.096 66.6301451864756 -54.25311311939278)" id="_393610271520">
<path style="stroke: none; stroke-width: 1; stroke-dasharray: none; stroke-linecap: butt; stroke-dashoffset: 0; stroke-linejoin: miter; stroke-miterlimit: 4; fill: rgb(37,70,21); fill-rule: nonzero; opacity: 1;" transform=" translate(-4944.000000000001, -4935.09561695123)" d="M 5199 4879 c 13 72 -81 221 -222 246 c -141 25 -275 -84 -288 -156 c -13 -72 81 -198 222 -223 c 141 -25 275 60 288 133 z" stroke-linecap="round"/>
</g>
		<g transform="matrix(0.096 0 0 0.096 66.67861577199096 -54.295683651058695)" id="_393610271520">
<path style="stroke: none; stroke-width: 1; stroke-dasharray: none; stroke-linecap: butt; stroke-dashoffset: 0; stroke-linejoin: miter; stroke-miterlimit: 4; fill: rgb(0,0,0); fill-rule: nonzero; opacity: 1;" transform=" translate(-4944.504901932452, -4934.652173913043)" d="M 4935 5156 c -137 0 -259 -101 -273 -182 c -16 -93 93 -229 244 -256 c 70 -12 145 -1 210 33 c 61 32 102 78 111 123 c 8 45 -15 107 -60 163 c -28 35 -91 98 -185 115 c -16 3 -32 4 -47 4 z m 28 -387 l 0 0 c -16 0 -31 1 -47 4 c -131 23 -209 140 -199 191 c 10 59 132 155 255 133 c 77 -13 128 -65 152 -95 c 39 -48 52 -95 48 -119 c -8 -45 -98 -114 -209 -114 z" stroke-linecap="round"/>
</g>
		<g transform="matrix(0.096 0 0 0.096 60.0137735103272 -147.41985607375366)" id="_393610271520">
<path style="stroke: none; stroke-width: 1; stroke-dasharray: none; stroke-linecap: butt; stroke-dashoffset: 0; stroke-linejoin: miter; stroke-miterlimit: 4; fill: rgb(37,70,21); fill-rule: nonzero; opacity: 1;" transform=" translate(-4875.079461706789, -3964.6087111766374)" d="M 5130 3908 c 13 73 -81 221 -222 246 c -141 25 -275 -83 -288 -155 c -12 -72 81 -198 222 -223 c 141 -25 275 60 288 132 z" stroke-linecap="round"/>
</g>
		<g transform="matrix(0.096 0 0 0.096 60.05203585483568 -147.4156836510587)" id="_393610271520">
<path style="stroke: none; stroke-width: 1; stroke-dasharray: none; stroke-linecap: butt; stroke-dashoffset: 0; stroke-linejoin: miter; stroke-miterlimit: 4; fill: rgb(0,0,0); fill-rule: nonzero; opacity: 1;" transform=" translate(-4875.478027795418, -3964.652173913043)" d="M 4866 4186 c -56 0 -113 -17 -164 -49 c -59 -37 -101 -88 -109 -133 c -8 -45 14 -102 60 -153 c 49 -54 114 -90 184 -103 c 71 -12 145 -1 210 33 c 61 32 103 77 111 123 c 8 45 -15 107 -59 163 c -29 35 -91 98 -186 115 c -15 3 -31 4 -47 4 z m 28 -387 l 0 0 c -15 0 -31 1 -47 4 c -79 14 -129 59 -153 85 c -37 42 -50 84 -46 106 c 4 24 32 64 83 96 c 32 19 96 51 172 37 c 77 -13 128 -65 152 -95 c 39 -49 52 -95 48 -119 c -8 -45 -98 -114 -209 -114 z" stroke-linecap="round"/>
</g>
		<g transform="matrix(0.096 0 0 0.096 102.01146575489304 101.7085009248936)" id="_393610271520">
<path style="stroke: none; stroke-width: 1; stroke-dasharray: none; stroke-linecap: butt; stroke-dashoffset: 0; stroke-linejoin: miter; stroke-miterlimit: 4; fill: rgb(37,70,21); fill-rule: nonzero; opacity: 1;" transform=" translate(-5312.555422587682, -6559.69576324588)" d="M 5291 6299 c 92 -11 182 105 202 260 c 19 156 -55 200 -141 236 c -188 77 -201 -26 -220 -182 c -20 -155 67 -302 159 -314 z" stroke-linecap="round"/>
</g>
		<g transform="matrix(0.096 0 0 0.096 101.97092599831537 101.73501588565641)" id="_393610271520">
<path style="stroke: none; stroke-width: 1; stroke-dasharray: none; stroke-linecap: butt; stroke-dashoffset: 0; stroke-linejoin: miter; stroke-miterlimit: 4; fill: rgb(0,0,0); fill-rule: nonzero; opacity: 1;" transform=" translate(-5312.133133456665, -6559.9719607538245)" d="M 5246 6849 c -23 0 -43 -5 -60 -15 c -59 -35 -69 -115 -82 -216 c -10 -79 5 -161 41 -229 c 36 -67 88 -110 142 -117 c 55 -7 109 21 154 78 c 41 53 69 126 79 206 c 22 175 -70 228 -158 264 c -46 19 -84 29 -116 29 z m 58 -523 l 0 0 c -4 0 -7 0 -10 1 c -35 4 -73 38 -100 89 c -30 57 -43 128 -35 194 c 11 84 20 155 55 176 c 24 13 67 8 127 -17 c 81 -33 141 -70 124 -206 c -9 -70 -33 -134 -68 -179 c -29 -38 -62 -58 -93 -58 z" stroke-linecap="round"/>
</g>
		<g transform="matrix(0.096 0 0 0.096 141.44674485098724 70.42600430266228)" id="_393610271520">
<path style="stroke: none; stroke-width: 1; stroke-dasharray: none; stroke-linecap: butt; stroke-dashoffset: 0; stroke-linejoin: miter; stroke-miterlimit: 4; fill: rgb(37,70,21); fill-rule: nonzero; opacity: 1;" transform=" translate(-5723.339579838664, -6233.83642343097)" d="M 5618 5994 c 42 -26 205 20 261 152 c 30 71 -37 243 -116 310 c -59 51 -114 26 -169 -105 c -56 -132 -38 -318 24 -357 z" stroke-linecap="round"/>
</g>
		<g transform="matrix(0.096 0 0 0.096 141.3985008032872 70.46444696874705)" id="_393610271520">
<path style="stroke: none; stroke-width: 1; stroke-dasharray: none; stroke-linecap: butt; stroke-dashoffset: 0; stroke-linejoin: miter; stroke-miterlimit: 4; fill: rgb(0,0,0); fill-rule: nonzero; opacity: 1;" transform=" translate(-5722.837037675121, -6234.236867869354)" d="M 5708 6509 c -6 0 -13 -1 -20 -3 c -45 -10 -83 -56 -120 -145 c -60 -142 -42 -342 35 -390 l 0 0 c 35 -22 92 -7 115 0 c 85 27 155 88 186 164 c 37 87 -41 272 -123 342 c -24 21 -49 32 -73 32 z m -75 -491 l 0 0 c -45 28 -67 194 -14 322 c 38 90 68 109 82 112 c 5 1 19 5 44 -17 c 77 -65 131 -224 108 -278 c -38 -90 -126 -125 -152 -133 c -39 -12 -63 -9 -68 -6 z" stroke-linecap="round"/>
</g>
		<g transform="matrix(0.096 0 0 0.096 168.2649864496036 25.704931131720887)" id="_393610271520">
<path style="stroke: none; stroke-width: 1; stroke-dasharray: none; stroke-linecap: butt; stroke-dashoffset: 0; stroke-linejoin: miter; stroke-miterlimit: 4; fill: rgb(37,70,21); fill-rule: nonzero; opacity: 1;" transform=" translate(-6002.696263157583, -5767.991911233664)" d="M 5931 5547 c 55 -35 186 35 219 156 c 18 65 -87 207 -152 268 c -47 45 -100 43 -133 -78 c -34 -121 12 -311 66 -346 z" stroke-linecap="round"/>
</g>
		<g transform="matrix(0.096 0 0 0.096 168.29363886196927 25.727457653289175)" id="_393610271520">
<path style="stroke: none; stroke-width: 1; stroke-dasharray: none; stroke-linecap: butt; stroke-dashoffset: 0; stroke-linejoin: miter; stroke-miterlimit: 4; fill: rgb(0,0,0); fill-rule: nonzero; opacity: 1;" transform=" translate(-6002.994725786394, -5768.2265625)" d="M 5944 6026 c -8 0 -14 -1 -20 -3 c -39 -11 -67 -51 -86 -123 c -34 -124 9 -331 78 -376 c 27 -17 64 -18 106 -3 c 55 22 129 80 155 175 c 24 88 -109 248 -160 296 c -29 26 -54 34 -73 34 z m 2 -455 l 0 0 c -38 24 -87 196 -55 315 c 20 70 42 82 48 84 c 13 3 31 -10 40 -19 c 74 -69 156 -196 144 -241 c -19 -70 -74 -119 -121 -137 c -24 -9 -45 -10 -56 -2 z" stroke-linecap="round"/>
</g>
		<g transform="matrix(0.096 0 0 0.096 -101.2127515537696 -8.57758962078617)" id="_393610271520">
<path style="stroke: none; stroke-width: 1; stroke-dasharray: none; stroke-linecap: butt; stroke-dashoffset: 0; stroke-linejoin: miter; stroke-miterlimit: 4; fill: rgb(114,166,55); fill-rule: nonzero; opacity: 1;" transform=" translate(-3195.6364922891134, -5410.882320061715)" d="M 5153 6869 c 39 -120 49 -263 21 -429 c -181 -1057 -382 -1804 -382 -1804 c 650 -77 344 -692 4 -598 c 36 -115 18 -226 6 -313 c -58 -414 -629 -440 -761 -29 c -51 -93 -264 -130 -421 -63 c -143 61 -291 297 -102 587 c -69 -17 -189 -163 -419 0 c 0 0 -292 -194 -438 0 c 0 0 -208 -215 -438 0 c 0 0 -657 -352 -921 -30 c -67 82 -129 261 -87 435 c 22 91 143 237 466 226 c 323 -10 1513 -59 2010 -217 c 780 826 -465 2257 -90 2604 c 212 197 743 254 1133 76 c 213 -101 321 -169 419 -445 z" stroke-linecap="round"/>
</g>
		<g transform="matrix(0.096 0 0 0.096 -101.20110441612596 -8.64230417545113)" id="_393610271520">
<path style="stroke: none; stroke-width: 1; stroke-dasharray: none; stroke-linecap: butt; stroke-dashoffset: 0; stroke-linejoin: miter; stroke-miterlimit: 4; fill: rgb(0,0,0); fill-rule: nonzero; opacity: 1;" transform=" translate(-3195.7578166395674, -5410.208210117288)" d="M 4208 7447 c -252 0 -493 -65 -626 -188 c -166 -154 -52 -472 92 -875 c 198 -553 444 -1240 9 -1718 c -507 154 -1658 202 -2001 213 c -419 13 -488 -221 -494 -247 c -42 -176 15 -364 93 -459 c 115 -141 318 -181 587 -116 c 164 39 303 105 351 129 c 196 -169 377 -56 439 -6 c 125 -131 332 -60 441 6 c 162 -108 276 -70 351 -31 c -64 -136 -55 -248 -32 -322 c 31 -102 104 -188 191 -225 c 143 -61 334 -42 423 34 c 86 -203 277 -281 437 -267 c 192 16 333 152 360 346 l 2 12 c 11 77 24 170 3 269 c 99 -11 199 28 274 110 c 86 94 115 217 77 321 c -44 118 -171 197 -358 226 c 39 151 215 849 374 1776 c 28 163 21 312 -22 443 c 0 0 0 0 0 0 c -104 293 -226 363 -433 461 c -160 73 -352 108 -538 108 z m -517 -2841 l 0 0 c 8 0 15 3 21 9 c 475 503 220 1216 15 1788 c -132 368 -246 687 -107 815 c 196 181 709 250 1103 71 c 198 -95 307 -157 404 -429 c 39 -122 45 -262 19 -415 c -178 -1044 -379 -1795 -381 -1802 c -2 -8 0 -16 4 -23 c 5 -7 12 -11 20 -12 c 183 -21 305 -91 344 -195 c 31 -83 5 -186 -66 -263 c -72 -79 -171 -111 -264 -86 c -10 3 -20 0 -27 -7 c -7 -7 -10 -18 -7 -28 c 33 -103 19 -206 7 -288 l -2 -12 c -23 -167 -145 -285 -309 -299 c -150 -13 -330 67 -397 274 c -4 11 -13 18 -24 20 c -11 1 -21 -5 -27 -15 c -42 -76 -237 -114 -386 -50 c -57 24 -129 87 -160 190 c -24 77 -30 201 70 355 c 6 10 6 22 -1 32 c -6 9 -18 13 -29 11 c -18 -5 -37 -15 -58 -27 c -73 -40 -172 -95 -338 22 c -9 7 -21 7 -31 1 c -3 -2 -272 -177 -401 -7 c -4 7 -12 11 -20 11 c -8 1 -16 -2 -22 -8 c -7 -8 -192 -192 -399 1 c -8 8 -21 10 -32 4 c -6 -3 -640 -337 -887 -36 c -67 82 -118 254 -81 411 c 19 80 134 214 438 204 c 346 -11 1512 -59 2003 -215 c 3 -1 6 -2 8 -2 z" stroke-linecap="round"/>
</g>
		<g transform="matrix(0.096 0 0 0.096 -45.16185481352447 -148.05429234671084)" id="_393610271520">
<path style="stroke: none; stroke-width: 1; stroke-dasharray: none; stroke-linecap: butt; stroke-dashoffset: 0; stroke-linejoin: miter; stroke-miterlimit: 4; fill: rgb(255,255,255); fill-rule: nonzero; opacity: 1;" transform=" translate(-3779.5, -3958)" d="M 4041 3958 c 0 144 -117 262 -261 262 c -145 0 -262 -118 -262 -262 c 0 -145 117 -262 262 -262 c 144 0 261 117 261 262 z" stroke-linecap="round"/>
</g>
		<g transform="matrix(0.096 0 0 0.096 -45.16185481352446 -148.1022923467108)" id="_393610271520">
<path style="stroke: none; stroke-width: 1; stroke-dasharray: none; stroke-linecap: butt; stroke-dashoffset: 0; stroke-linejoin: miter; stroke-miterlimit: 4; fill: rgb(0,0,0); fill-rule: nonzero; opacity: 1;" transform=" translate(-3779.5, -3957.5)" d="M 3780 4247 c -160 0 -290 -130 -290 -289 c 0 -160 130 -290 290 -290 c 159 0 289 130 289 290 c 0 159 -130 289 -289 289 z m 0 -523 l 0 0 c -129 0 -234 105 -234 234 c 0 129 105 234 234 234 c 129 0 234 -105 234 -234 c 0 -129 -105 -234 -234 -234 z" stroke-linecap="round"/>
</g>
		<g transform="matrix(0.096 0 0 0.096 -45.16185481352451 -148.10229234671087)" id="_393610271520">
<path style="stroke: none; stroke-width: 1; stroke-dasharray: none; stroke-linecap: butt; stroke-dashoffset: 0; stroke-linejoin: miter; stroke-miterlimit: 4; fill: rgb(255,252,73); fill-rule: nonzero; opacity: 1;" transform=" translate(-3779.5, -3957.5)" d="M 3958 3958 c 0 98 -80 178 -178 178 c -99 0 -179 -80 -179 -178 c 0 -99 80 -179 179 -179 c 98 0 178 80 178 179 z" stroke-linecap="round"/>
</g>
		<g transform="matrix(0.096 0 0 0.096 -45.161854813524506 -148.10229234671087)" id="_393610271520">
<path style="stroke: none; stroke-width: 1; stroke-dasharray: none; stroke-linecap: butt; stroke-dashoffset: 0; stroke-linejoin: miter; stroke-miterlimit: 4; fill: rgb(0,0,0); fill-rule: nonzero; opacity: 1;" transform=" translate(-3779.5, -3957.5)" d="M 3894 3958 c 0 63 -51 114 -114 114 c -64 0 -115 -51 -115 -114 c 0 -64 51 -115 115 -115 c 63 0 114 51 114 115 z" stroke-linecap="round"/>
</g>
		<g transform="matrix(0.096 0 0 0.096 -38.63385481352447 -156.74229234671083)" id="_393610271520">
<path style="stroke: none; stroke-width: 1; stroke-dasharray: none; stroke-linecap: butt; stroke-dashoffset: 0; stroke-linejoin: miter; stroke-miterlimit: 4; fill: rgb(255,255,255); fill-rule: nonzero; opacity: 1;" transform=" translate(-3847.5, -3867.5)" d="M 3943 3868 c 0 52 -43 95 -95 95 c -53 0 -96 -43 -96 -95 c 0 -53 43 -96 96 -96 c 52 0 95 43 95 96 z" stroke-linecap="round"/>
</g>
		<g transform="matrix(0.096 0 0 0.096 12.678145186475554 -148.10229234671084)" id="_393610271520">
<path style="stroke: none; stroke-width: 1; stroke-dasharray: none; stroke-linecap: butt; stroke-dashoffset: 0; stroke-linejoin: miter; stroke-miterlimit: 4; fill: rgb(255,255,255); fill-rule: nonzero; opacity: 1;" transform=" translate(-4382, -3957.5)" d="M 4723 3958 c 0 188 -153 340 -341 340 c -188 0 -341 -152 -341 -340 c 0 -188 153 -341 341 -341 c 188 0 341 153 341 341 z" stroke-linecap="round"/>
</g>
		<g transform="matrix(0.096 0 0 0.096 12.72614518647557 -148.1022923467108)" id="_393610271520">
<path style="stroke: none; stroke-width: 1; stroke-dasharray: none; stroke-linecap: butt; stroke-dashoffset: 0; stroke-linejoin: miter; stroke-miterlimit: 4; fill: rgb(0,0,0); fill-rule: nonzero; opacity: 1;" transform=" translate(-4382.5, -3957.5)" d="M 4382 4326 c -203 0 -368 -165 -368 -368 c 0 -203 165 -369 368 -369 c 203 0 369 166 369 369 c 0 203 -166 368 -369 368 z m 0 -681 l 0 0 c -172 0 -313 140 -313 313 c 0 172 141 313 313 313 c 173 0 313 -141 313 -313 c 0 -173 -140 -313 -313 -313 z" stroke-linecap="round"/>
</g>
		<g transform="matrix(0.096 0 0 0.096 12.678145186475554 -148.10229234671084)" id="_393610271520">
<path style="stroke: none; stroke-width: 1; stroke-dasharray: none; stroke-linecap: butt; stroke-dashoffset: 0; stroke-linejoin: miter; stroke-miterlimit: 4; fill: rgb(255,252,73); fill-rule: nonzero; opacity: 1;" transform=" translate(-4382, -3957.5)" d="M 4614 3958 c 0 128 -104 232 -232 232 c -128 0 -232 -104 -232 -232 c 0 -129 104 -233 232 -233 c 128 0 232 104 232 233 z" stroke-linecap="round"/>
</g>
		<g transform="matrix(0.096 0 0 0.096 12.678145186475572 -148.0542923467108)" id="_393610271520">
<path style="stroke: none; stroke-width: 1; stroke-dasharray: none; stroke-linecap: butt; stroke-dashoffset: 0; stroke-linejoin: miter; stroke-miterlimit: 4; fill: rgb(0,0,0); fill-rule: nonzero; opacity: 1;" transform=" translate(-4382, -3958)" d="M 4531 3958 c 0 82 -67 149 -149 149 c -82 0 -149 -67 -149 -149 c 0 -83 67 -149 149 -149 c 82 0 149 66 149 149 z" stroke-linecap="round"/>
</g>
		<g transform="matrix(0.096 0 0 0.096 21.174145186475528 -159.33429234671087)" id="_393610271520">
<path style="stroke: none; stroke-width: 1; stroke-dasharray: none; stroke-linecap: butt; stroke-dashoffset: 0; stroke-linejoin: miter; stroke-miterlimit: 4; fill: rgb(255,255,255); fill-rule: nonzero; opacity: 1;" transform=" translate(-4470.5, -3840.5)" d="M 4595 3840 c 0 69 -56 125 -124 125 c -69 0 -125 -56 -125 -125 c 0 -68 56 -124 125 -124 c 68 0 124 56 124 124 z" stroke-linecap="round"/>
</g>
		<g transform="matrix(0.096 0 0 0.096 17.238145186475553 -215.23199999999989)" id="_393610271520">
<path style="stroke: none; stroke-width: 1; stroke-dasharray: none; stroke-linecap: butt; stroke-dashoffset: 0; stroke-linejoin: miter; stroke-miterlimit: 4; fill: rgb(0,0,0); fill-rule: nonzero; opacity: 1;" transform=" translate(-4429.5, -3258.2322119449054)" d="M 4150 3367 c 0 0 361 -306 559 14 c 0 0 -197 -543 -559 -14 z" stroke-linecap="round"/>
</g>
		<g transform="matrix(0.096 0 0 0.096 -50.633854813524465 -197.21731811073226)" id="_393610271520">
<path style="stroke: none; stroke-width: 1; stroke-dasharray: none; stroke-linecap: butt; stroke-dashoffset: 0; stroke-linejoin: miter; stroke-miterlimit: 4; fill: rgb(0,0,0); fill-rule: nonzero; opacity: 1;" transform=" translate(-3722.5, -3445.885148291444)" d="M 3472 3572 c 0 0 277 -325 501 -69 c 0 0 -255 -455 -501 69 z" stroke-linecap="round"/>
</g>
		<g transform="matrix(0.096 0 0 0.096 -226.31594235004812 -102.85458170446687)" id="_393610271520">
<path style="stroke: none; stroke-width: 1; stroke-dasharray: none; stroke-linecap: butt; stroke-dashoffset: 0; stroke-linejoin: miter; stroke-miterlimit: 4; fill: rgb(37,70,21); fill-rule: nonzero; opacity: 1;" transform=" translate(-1892.4782548278786, -4428.830319190041)" d="M 2006 4475 c -40 96 -122 153 -185 128 c -62 -26 -81 -124 -42 -220 c 39 -96 121 -154 184 -128 c 63 25 82 124 43 220 z" stroke-linecap="round"/>
</g>
		<g transform="matrix(0.096 0 0 0.096 -226.34498965099294 -102.85358628262065)" id="_393610271520">
<path style="stroke: none; stroke-width: 1; stroke-dasharray: none; stroke-linecap: butt; stroke-dashoffset: 0; stroke-linejoin: miter; stroke-miterlimit: 4; fill: rgb(0,0,0); fill-rule: nonzero; opacity: 1;" transform=" translate(-1892.1756787763702, -4428.8406881676065)" d="M 1853 4637 c -14 0 -28 -3 -42 -9 c -39 -16 -67 -53 -76 -104 c -10 -46 -3 -101 18 -152 c 45 -112 142 -175 220 -143 c 40 16 67 53 77 104 c 9 47 2 101 -19 152 c -37 93 -110 152 -178 152 z m 78 -360 l 0 0 c -45 0 -99 47 -127 116 c -17 42 -22 84 -15 121 c 4 18 14 51 43 63 c 47 19 115 -32 148 -112 c 17 -42 22 -85 15 -121 c -3 -19 -14 -52 -43 -63 c -6 -3 -14 -4 -21 -4 z" stroke-linecap="round"/>
</g>
		<g transform="matrix(0.096 0 0 0.096 -83.93675893712725 37.73324004807898)" id="_393610271520">
<path style="stroke: none; stroke-width: 1; stroke-dasharray: none; stroke-linecap: butt; stroke-dashoffset: 0; stroke-linejoin: miter; stroke-miterlimit: 4; fill: rgb(255,210,78); fill-rule: nonzero; opacity: 1;" transform=" translate(-3375.5947487124713, -5893.28679577906)" d="M 2026 4837 c 0 0 -15 288 263 236 c 278 -52 1186 -213 1325 -240 c 536 529 -682 1718 -202 2253 c 434 483 1366 272 1311 -243 c -56 -514 -208 -2117 -128 -2414 c 0 0 -1511 360 -2569 408 z" stroke-linecap="round"/>
</g>
		<g transform="matrix(0.096 0 0 0.096 -83.96603861370949 37.22570765328919)" id="_393610271520">
<path style="stroke: none; stroke-width: 1; stroke-dasharray: none; stroke-linecap: butt; stroke-dashoffset: 0; stroke-linejoin: miter; stroke-miterlimit: 4; fill: rgb(0,0,0); fill-rule: nonzero; opacity: 1;" transform=" translate(-3375.289752081406, -5888)" d="M 4060 7385 c -238 0 -491 -83 -669 -281 c -247 -275 -67 -711 107 -1133 c 173 -418 351 -850 106 -1108 c -93 18 -370 68 -662 120 c -255 46 -520 94 -648 117 c -90 17 -162 2 -214 -43 c -88 -78 -82 -216 -82 -222 l 1 -25 l 25 -1 c 1044 -47 2549 -404 2565 -407 l 45 -11 l -12 45 c -77 285 67 1832 128 2404 c 22 199 -93 370 -314 469 c -109 49 -240 76 -376 76 z m -437 -2582 l 0 0 l 10 10 c 287 283 99 738 -83 1179 c -175 425 -341 826 -117 1075 c 261 292 700 316 980 191 c 198 -88 301 -238 282 -412 c -2 -20 -207 -1927 -136 -2380 c -250 57 -1557 350 -2505 397 c 3 38 14 110 63 152 c 39 34 95 44 167 31 c 128 -24 393 -72 648 -118 c 296 -53 602 -108 677 -122 l 14 -3 z" stroke-linecap="round"/>
</g>
		<g transform="matrix(0.096 0 0 0.096 -188.39385481352448 -48.94707902725197)" id="_393610271520">
<path style="stroke: none; stroke-width: 1; stroke-dasharray: none; stroke-linecap: butt; stroke-dashoffset: 0; stroke-linejoin: miter; stroke-miterlimit: 4; fill: rgb(255,255,255); fill-rule: nonzero; opacity: 1;" transform=" translate(-2287.5, -4990.36680541103)" d="M 2140 4831 c 0 0 81 300 177 338 c 0 0 118 -215 118 -357 c 0 0 -176 -4 -295 19 z" stroke-linecap="round"/>
</g>
		<g transform="matrix(0.096 0 0 0.096 -188.77754888362202 -48.58474182098216)" id="_393610271520">
<path style="stroke: none; stroke-width: 1; stroke-dasharray: none; stroke-linecap: butt; stroke-dashoffset: 0; stroke-linejoin: miter; stroke-miterlimit: 4; fill: rgb(0,0,0); fill-rule: nonzero; opacity: 1;" transform=" translate(-2283.503186769817, -4994.141151309674)" d="M 2330 5204 l -23 -9 c -106 -42 -185 -325 -194 -357 l -8 -29 l 30 -6 c 120 -22 293 -19 300 -18 l 27 0 l 0 27 c 1 147 -116 362 -121 371 l -11 21 z m -155 -351 l 0 0 c 29 98 82 230 131 276 c 28 -55 89 -187 99 -289 c -47 0 -147 1 -230 13 z" stroke-linecap="round"/>
</g>
		<g transform="matrix(0.096 0 0 0.096 -105.1138548135245 -86.42229234671085)" id="_393610271520">
<path style="stroke: none; stroke-width: 1; stroke-dasharray: none; stroke-linecap: butt; stroke-dashoffset: 0; stroke-linejoin: miter; stroke-miterlimit: 4; fill: rgb(255,255,255); fill-rule: nonzero; opacity: 1;" transform=" translate(-3155, -4600)" d="M 3269 4692 c 0 0 -85 -200 -163 -220 c 0 0 -58 132 -65 256 c 0 0 117 -19 228 -36 z" stroke-linecap="round"/>
</g>
		<g transform="matrix(0.096 0 0 0.096 -104.63385481352444 -86.37429234671086)" id="_393610271520">
<path style="stroke: none; stroke-width: 1; stroke-dasharray: none; stroke-linecap: butt; stroke-dashoffset: 0; stroke-linejoin: miter; stroke-miterlimit: 4; fill: rgb(0,0,0); fill-rule: nonzero; opacity: 1;" transform=" translate(-3160, -4600.5)" d="M 3011 4762 l 2 -35 c 7 -128 65 -260 68 -266 l 9 -22 l 23 6 c 15 4 96 34 182 236 l 14 33 l -36 6 c -109 16 -226 36 -227 36 l -35 6 z m 110 -251 l 0 0 c -15 38 -39 110 -49 184 c 36 -6 96 -15 157 -25 c -30 -61 -73 -131 -108 -159 z" stroke-linecap="round"/>
</g>
		<g transform="matrix(0.096 0 0 0.096 -19.93795942737774 -60.07860815952395)" id="_393610271520">
<path style="stroke: none; stroke-width: 1; stroke-dasharray: none; stroke-linecap: butt; stroke-dashoffset: 0; stroke-linejoin: miter; stroke-miterlimit: 4; fill: rgb(0,0,0); fill-rule: nonzero; opacity: 1;" transform=" translate(-4042.2489102723616, -4874.413376949863)" d="M 3937 5014 c -142 0 -241 -71 -342 -160 c -11 -11 -12 -28 -2 -40 c 10 -11 28 -12 39 -2 c 153 136 311 276 823 -72 c 13 -9 30 -6 39 7 c 8 13 5 30 -8 39 c -245 166 -416 228 -549 228 z" stroke-linecap="round"/>
</g>
		<g transform="matrix(0.096 0 0 0.096 -7.829038889557545 -23.95568468486828)" id="_393610271520">
<path style="stroke: none; stroke-width: 1; stroke-dasharray: none; stroke-linecap: butt; stroke-dashoffset: 0; stroke-linejoin: miter; stroke-miterlimit: 4; fill: rgb(0,0,0); fill-rule: nonzero; opacity: 1;" transform=" translate(-4168.383499207989, -5250.69382981086)" d="M 4049 5360 c -220 0 -312 -108 -318 -116 c -10 -11 -8 -29 4 -39 c 11 -9 29 -8 39 4 c 2 3 218 247 798 -64 c 13 -8 30 -2 37 11 c 7 14 2 30 -11 38 c -236 126 -416 166 -549 166 z" stroke-linecap="round"/>
</g>
		<g transform="matrix(0.096 0 0 0.096 -10.582522460317591 17.804315315131532)" id="_393610271520">
<path style="stroke: none; stroke-width: 1; stroke-dasharray: none; stroke-linecap: butt; stroke-dashoffset: 0; stroke-linejoin: miter; stroke-miterlimit: 4; fill: rgb(0,0,0); fill-rule: nonzero; opacity: 1;" transform=" translate(-4139.701378679239, -5685.693829810859)" d="M 4068 5793 c -278 0 -415 -145 -423 -155 c -11 -11 -10 -29 1 -39 c 12 -10 29 -10 40 2 c 12 13 298 313 915 -19 c 14 -8 31 -2 38 11 c 7 14 2 30 -11 38 c -227 122 -413 162 -560 162 z" stroke-linecap="round"/>
</g>
		<g transform="matrix(0.096 0 0 0.096 -16.722830125872093 60.833558241757984)" id="_393610271520">
<path style="stroke: none; stroke-width: 1; stroke-dasharray: none; stroke-linecap: butt; stroke-dashoffset: 0; stroke-linejoin: miter; stroke-miterlimit: 4; fill: rgb(0,0,0); fill-rule: nonzero; opacity: 1;" transform=" translate(-4075.7398404963787, -6133.91511029655)" d="M 3991 6255 c -70 0 -140 -7 -209 -25 c -192 -49 -285 -151 -289 -155 c -11 -11 -10 -29 2 -39 c 11 -11 29 -10 39 2 c 1 1 88 95 265 139 c 297 74 613 -46 826 -161 c 13 -7 30 -2 38 11 c 7 14 2 31 -12 38 c -173 93 -413 190 -660 190 z" stroke-linecap="round"/>
</g>
		<g transform="matrix(0.096 0 0 0.096 -23.735887975439596 114.20570765328922)" id="_393610271520">
<path style="stroke: none; stroke-width: 1; stroke-dasharray: none; stroke-linecap: butt; stroke-dashoffset: 0; stroke-linejoin: miter; stroke-miterlimit: 4; fill: rgb(0,0,0); fill-rule: nonzero; opacity: 1;" transform=" translate(-4002.687154563384, -6689.875)" d="M 3927 6826 c -90 0 -181 -10 -272 -35 c -234 -62 -353 -185 -358 -190 c -11 -11 -10 -29 1 -39 c 11 -11 28 -11 39 0 c 1 2 115 119 336 177 c 204 53 543 65 1002 -182 c 13 -7 30 -2 38 11 c 7 14 2 31 -12 38 c -201 108 -480 220 -774 220 z" stroke-linecap="round"/>
</g>
		<g transform="matrix(0.096 0 0 0.096 42.05414518647554 164.06611921141683)" id="_393610271520">
<path style="stroke: none; stroke-width: 1; stroke-dasharray: none; stroke-linecap: butt; stroke-dashoffset: 0; stroke-linejoin: miter; stroke-miterlimit: 4; fill: rgb(114,166,55); fill-rule: nonzero; opacity: 1;" transform=" translate(-4688, -7209.25428706383)" d="M 5121 7182 c 0 362 -194 655 -433 655 c -239 0 -433 -293 -433 -655 c 0 -362 163 -950 418 -328 c 222 -599 448 -34 448 328 z" stroke-linecap="round"/>
</g>
		<g transform="matrix(0.096 0 0 0.096 42.05414518647555 164.08344210304818)" id="_393610271520">
<path style="stroke: none; stroke-width: 1; stroke-dasharray: none; stroke-linecap: butt; stroke-dashoffset: 0; stroke-linejoin: miter; stroke-miterlimit: 4; fill: rgb(0,0,0); fill-rule: nonzero; opacity: 1;" transform=" translate(-4688, -7209.434733851656)" d="M 4688 7865 c -254 0 -461 -307 -461 -683 c 0 -236 68 -597 215 -626 c 77 -16 153 58 230 226 c 68 -158 144 -231 225 -216 c 90 16 150 135 185 232 c 42 117 67 261 67 384 c 0 376 -207 683 -461 683 z m -228 -1255 l 0 0 c -3 0 -5 0 -7 0 c -79 16 -170 269 -170 572 c 0 346 182 627 405 627 c 224 0 405 -281 405 -627 c 0 -231 -96 -542 -205 -561 c -60 -11 -127 75 -189 243 c -4 10 -14 18 -25 18 c 0 0 -1 0 -1 0 c -11 0 -21 -7 -25 -17 c -92 -224 -158 -255 -188 -255 z" stroke-linecap="round"/>
</g>
		<g transform="matrix(0.096 0 0 0.096 41.76614518647553 127.60564123363261)" id="_393610271520">
<path style="stroke: none; stroke-width: 1; stroke-dasharray: none; stroke-linecap: butt; stroke-dashoffset: 0; stroke-linejoin: miter; stroke-miterlimit: 4; fill: rgb(255,210,78); fill-rule: nonzero; opacity: 1;" transform=" translate(-4685, -6829.4576414619105)" d="M 4270 6974 c 83 76 248 144 415 22 c 95 87 279 53 415 -23 c -84 -411 -278 -519 -427 -119 c -183 -448 -363 -250 -403 120 z" stroke-linecap="round"/>
</g>
		<g transform="matrix(0.096 0 0 0.096 41.91014518647549 127.60519775859407)" id="_393610271520">
<path style="stroke: none; stroke-width: 1; stroke-dasharray: none; stroke-linecap: butt; stroke-dashoffset: 0; stroke-linejoin: miter; stroke-miterlimit: 4; fill: rgb(0,0,0); fill-rule: nonzero; opacity: 1;" transform=" translate(-4686.5, -6829.45302193026)" d="M 4492 7091 c -96 0 -182 -43 -240 -97 l -11 -9 l 2 -14 c 25 -234 102 -387 201 -402 c 80 -11 156 61 228 214 c 78 -177 159 -211 215 -207 c 103 8 191 151 241 392 l 4 20 l -18 10 c -133 74 -320 113 -430 33 c -65 43 -131 60 -192 60 z m -192 -128 l 0 0 c 84 71 228 113 369 11 l 18 -14 l 17 16 c 79 72 240 47 365 -17 c -52 -234 -129 -323 -186 -327 c -60 -5 -127 80 -184 232 l -24 66 l -27 -65 c -66 -161 -138 -249 -196 -241 c -68 10 -130 148 -152 339 z" stroke-linecap="round"/>
</g>
		<g transform="matrix(0.096 0 0 0.096 42.294145186475546 182.7137076532891)" id="_393610271520">
<path style="stroke: none; stroke-width: 1; stroke-dasharray: none; stroke-linecap: butt; stroke-dashoffset: 0; stroke-linejoin: miter; stroke-miterlimit: 4; fill: rgb(255,210,78); fill-rule: nonzero; opacity: 1;" transform=" translate(-4690.5, -7403.5)" d="M 4857 7403 c 0 108 -74 195 -166 195 c -92 0 -167 -87 -167 -195 c 0 -107 75 -194 167 -194 c 92 0 166 87 166 194 z" stroke-linecap="round"/>
</g>
		<g transform="matrix(0.096 0 0 0.096 42.294145186475504 182.66570765328913)" id="_393610271520">
<path style="stroke: none; stroke-width: 1; stroke-dasharray: none; stroke-linecap: butt; stroke-dashoffset: 0; stroke-linejoin: miter; stroke-miterlimit: 4; fill: rgb(0,0,0); fill-rule: nonzero; opacity: 1;" transform=" translate(-4690.5, -7403)" d="M 4691 7625 c -108 0 -195 -99 -195 -222 c 0 -122 87 -222 195 -222 c 107 0 194 100 194 222 c 0 123 -87 222 -194 222 z m 0 -388 l 0 0 c -77 0 -139 75 -139 166 c 0 92 62 167 139 167 c 76 0 138 -75 138 -167 c 0 -91 -62 -166 -138 -166 z" stroke-linecap="round"/>
</g>
		<g transform="matrix(0.096 0 0 0.096 54.499935099217694 111.69766816577689)" id="_393610271520">
<path style="stroke: none; stroke-width: 1; stroke-dasharray: none; stroke-linecap: butt; stroke-dashoffset: 0; stroke-linejoin: miter; stroke-miterlimit: 4; fill: rgb(255,210,78); fill-rule: nonzero; opacity: 1;" transform=" translate(-4817.643644924397, -6663.749588671748)" d="M 4702 6681 c 0 0 121 276 192 189 c 60 -73 74 -358 30 -392 c -43 -34 -306 -124 -222 203 z" stroke-linecap="round"/>
</g>
		<g transform="matrix(0.096 0 0 0.096 54.49531145234444 111.71608971950651)" id="_393610271520">
<path style="stroke: none; stroke-width: 1; stroke-dasharray: none; stroke-linecap: butt; stroke-dashoffset: 0; stroke-linejoin: miter; stroke-miterlimit: 4; fill: rgb(0,0,0); fill-rule: nonzero; opacity: 1;" transform=" translate(-4817.595481936134, -6663.94147985643)" d="M 4863 6915 c -3 0 -6 -1 -9 -1 c -81 -11 -162 -187 -178 -222 l -1 -4 c -33 -128 -19 -213 42 -253 c 74 -49 191 -5 224 21 c 18 13 28 41 33 86 c 12 98 -6 281 -58 345 c -15 18 -33 28 -53 28 z m -135 -243 l 0 0 c 39 87 100 182 133 187 c 2 0 6 1 12 -7 c 51 -63 62 -321 34 -352 c -21 -17 -113 -50 -160 -19 c -47 32 -37 121 -19 191 z" stroke-linecap="round"/>
</g>
		<g transform="matrix(0.096 0 0 0.096 26.996056305420105 111.69766816577689)" id="_393610271520">
<path style="stroke: none; stroke-width: 1; stroke-dasharray: none; stroke-linecap: butt; stroke-dashoffset: 0; stroke-linejoin: miter; stroke-miterlimit: 4; fill: rgb(255,210,78); fill-rule: nonzero; opacity: 1;" transform=" translate(-4531.144907489006, -6663.749588671748)" d="M 4415 6681 c 0 0 122 276 193 189 c 60 -73 74 -358 30 -392 c -44 -34 -307 -124 -223 203 z" stroke-linecap="round"/>
</g>
		<g transform="matrix(0.096 0 0 0.096 26.972794652471528 111.71608971950651)" id="_393610271520">
<path style="stroke: none; stroke-width: 1; stroke-dasharray: none; stroke-linecap: butt; stroke-dashoffset: 0; stroke-linejoin: miter; stroke-miterlimit: 4; fill: rgb(0,0,0); fill-rule: nonzero; opacity: 1;" transform=" translate(-4530.902598604125, -6663.94147985643)" d="M 4576 6915 c -3 0 -6 -1 -9 -1 c -81 -11 -162 -187 -177 -222 l -2 -4 c -33 -128 -19 -213 42 -253 c 75 -49 191 -5 225 21 c 17 13 28 41 33 86 c 11 98 -6 281 -59 345 c -14 18 -33 28 -53 28 z m -135 -243 l 0 0 c 39 87 101 182 134 187 c 2 0 5 1 11 -7 c 52 -63 62 -321 34 -352 c -21 -17 -112 -50 -160 -19 c -47 32 -36 121 -19 191 z" stroke-linecap="round"/>
</g>
		<g transform="matrix(0.096 0 0 0.096 43.5834099691922 48.40721686231371)" id="_393610271520">
<path style="stroke: none; stroke-width: 1; stroke-dasharray: none; stroke-linecap: butt; stroke-dashoffset: 0; stroke-linejoin: miter; stroke-miterlimit: 4; fill: rgb(114,166,55); fill-rule: nonzero; opacity: 1;" transform=" translate(-4703.929841486632, -6004.474054260672)" d="M 4452 6517 c 51 113 380 152 494 -10 c 114 -163 -20 -747 -107 -969 c -86 -222 -241 -122 -241 -122 c 0 0 -274 812 -146 1101 z" stroke-linecap="round"/>
</g>
		<g transform="matrix(0.096 0 0 0.096 43.59639612342686 48.413575515971765)" id="_393610271520">
<path style="stroke: none; stroke-width: 1; stroke-dasharray: none; stroke-linecap: butt; stroke-dashoffset: 0; stroke-linejoin: miter; stroke-miterlimit: 4; fill: rgb(0,0,0); fill-rule: nonzero; opacity: 1;" transform=" translate(-4704.0651139265765, -6004.540290236277)" d="M 4691 6643 c -16 0 -31 -1 -46 -2 c -108 -11 -192 -54 -218 -113 c -132 -295 134 -1087 145 -1120 c 2 -6 6 -11 11 -15 c 3 -2 69 -44 145 -19 c 58 18 105 70 137 154 c 79 202 231 814 104 995 c -63 89 -178 120 -278 120 z m -213 -137 l 0 0 c 17 38 88 71 172 80 c 94 9 215 -12 274 -95 c 101 -145 -16 -700 -110 -943 c -27 -67 -61 -108 -103 -122 c -38 -12 -74 2 -90 10 c -30 94 -258 811 -143 1070 z" stroke-linecap="round"/>
</g>
		<g transform="matrix(0.096 0 0 0.096 288.82214518647555 -121.27972901967871)" id="_393610271520">
<path style="stroke: none; stroke-width: 1; stroke-dasharray: none; stroke-linecap: butt; stroke-dashoffset: 0; stroke-linejoin: miter; stroke-miterlimit: 4; fill: rgb(255,255,255); fill-rule: nonzero; opacity: 1;" transform=" translate(-7258.5, -4236.9017013232515)" d="M 7134 4089 c 0 0 20 268 109 320 c 0 0 118 -116 140 -256 c 0 0 -123 -144 -249 -64 z" stroke-linecap="round"/>
</g>
		<g transform="matrix(0.096 0 0 0.096 288.82214518647555 -120.91106664613173)" id="_393610271520">
<path style="stroke: none; stroke-width: 1; stroke-dasharray: none; stroke-linecap: butt; stroke-dashoffset: 0; stroke-linejoin: miter; stroke-miterlimit: 4; fill: rgb(0,0,0); fill-rule: nonzero; opacity: 1;" transform=" translate(-7258.5, -4240.7419343810325)" d="M 7247 4444 l -18 -11 c -98 -58 -120 -313 -122 -342 l -2 -17 l 15 -8 c 115 -74 236 13 284 69 l 8 9 l -2 13 c -23 147 -142 267 -147 272 l -16 15 z m -83 -339 l 0 0 c 8 88 34 216 77 265 c 30 -35 93 -116 112 -209 c -26 -26 -106 -96 -189 -56 z" stroke-linecap="round"/>
</g>
		<g transform="matrix(0.096 0 0 0.096 267.0501792309908 -180.26042775772268)" id="_393610271520">
<path style="stroke: none; stroke-width: 1; stroke-dasharray: none; stroke-linecap: butt; stroke-dashoffset: 0; stroke-linejoin: miter; stroke-miterlimit: 4; fill: rgb(37,70,21); fill-rule: nonzero; opacity: 1;" transform=" translate(-7031.7086879637, -3622.51942280196)" d="M 7156 3658 c -28 100 -106 165 -175 145 c -69 -19 -102 -116 -74 -216 c 28 -99 107 -165 175 -145 c 69 19 103 116 74 216 z" stroke-linecap="round"/>
</g>
		<g transform="matrix(0.096 0 0 0.096 267.0301451864755 -180.24059679163918)" id="_393610271520">
<path style="stroke: none; stroke-width: 1; stroke-dasharray: none; stroke-linecap: butt; stroke-dashoffset: 0; stroke-linejoin: miter; stroke-miterlimit: 4; fill: rgb(0,0,0); fill-rule: nonzero; opacity: 1;" transform=" translate(-7031.5, -3622.7259953653297)" d="M 7006 3835 c -11 0 -22 -2 -33 -5 c -85 -24 -126 -134 -93 -250 c 15 -54 44 -100 82 -132 c 40 -33 86 -45 128 -33 c 85 24 126 134 93 250 c -28 102 -102 170 -177 170 z m 51 -369 l 0 0 c -19 0 -40 9 -60 25 c -29 24 -52 61 -64 104 c -23 83 2 166 55 181 c 53 15 118 -42 142 -126 c 23 -83 -2 -166 -55 -181 c -6 -2 -12 -3 -18 -3 z" stroke-linecap="round"/>
</g>
</g>
</g>
</g>
</svg>
