<?xml version="1.0" encoding="utf-8"?>
<!-- Generator: Adobe Illustrator 24.0.1, SVG Export Plug-In . SVG Version: 6.00 Build 0)  -->
<svg version="1.0" xmlns="http://www.w3.org/2000/svg" xmlns:xlink="http://www.w3.org/1999/xlink" x="0px" y="0px"
	 viewBox="0 0 996 1154" enable-background="new 0 0 996 1154" xml:space="preserve">
<g id="background">
	<circle fill="#D7E6FF" cx="498" cy="577" r="415.974"/>
	<g>
		<path fill-rule="evenodd" clip-rule="evenodd" d="M741.3,368.623c-2.094-4.867-4.444-9.827-7.033-14.846
			c73.157-72.057,40.763-39.526,154.13-159.092C778.432,321.746,810.974,282.36,741.3,368.623L741.3,368.623z M626.976,232.987
			c103.674-37.243,55.836-20.649,215.556-71.961c-169.076,45.967-107.905,30.655-235.174,60.714
			C613.933,225,620.488,228.777,626.976,232.987L626.976,232.987z M871.04,176.815c-134.92,72.713-79.536,44.911-193.377,98.851
			c5.766,6.014,11.328,12.253,16.643,18.631C791.63,225.149,743.377,257.855,871.04,176.815z"/>
		<path fill-rule="evenodd" clip-rule="evenodd" d="M686.132,552.741l-5.162,22.024c22.314,11.277,23.471,8.198,46.47,23.147
			c5.214,3.389,10.69,6.566,15.82,10.053c-53.677-1.475-155.138-16.973-260.656-39.322
			c-142.478-30.176-289.766-72.77-332.973-110.06c1.634-0.295,2.975-0.777,4.001-1.409c3.478-0.299,7.688-0.475,12.428-0.538
			c0.478-0.005,0.94-0.024,1.388-0.053c33.643-0.346,83.627,3.289,91.099,7.329c10.224,5.511,23.403,7.5,29.429,4.443
			c6.026-3.056,2.625-10.005-7.6-15.516c-5.324-2.88-15.38-5.729-28.029-8.315c2.148,1.235,3.787,2.688,4.454,4.106
			c1.422,3.017-2.093,4.736-7.849,3.837c-52.746-8.228-83.04-8.17-99.326-4.193c-6.823,1.665-11.09,4.038-13.477,6.752
			c-2.331,2.651-2.874,5.609-2.281,8.531c0.63,3.105,2.522,6.19,4.892,8.835c35.367,39.44,156.705,79.127,285.84,108.734
			c168.938,38.736,349.474,60.066,371.229,41.611c0.136-0.116,0.237-0.235,0.299-0.353c0.589-1.106-0.184-3.042-2.138-5.554
			c-2.388-3.069-6.442-6.801-11.932-10.891c-13.261-9.879-34.228-21.317-59.894-30.335c-5.835-2.04-9.734-5.639-8.706-8.033
			c1.028-2.395,6.594-2.68,12.43-0.639c30.605,10.754,55.717,24.475,71.674,36.363c7.161,5.336,12.606,10.403,16.007,14.775
			c3.833,4.927,5.148,9.1,3.589,12.024c-0.345,0.651-0.817,1.234-1.407,1.733c-24.431,20.727-213.671-0.136-389.306-40.407
			c-136.774-31.358-266.351-74.571-306.604-119.463c-3.561-3.971-6.396-8.582-7.331-13.185c-0.867-4.276-0.122-8.547,3.163-12.283
			c3.23-3.673,8.918-6.862,17.951-9.067c7.946-1.939,18.56-3.107,32.496-3.136c-7.502-0.35-14.628-0.518-21.089-0.465
			c-0.517-0.019-1.026-0.027-1.529-0.019c-9.922,0.134-18.651,0.736-25.234,1.897c-2.524,0.446-4.772,0.991-6.713,1.644
			c-7.402,1.648-13.741,4.83-18.397,9.003c-2.846,2.552-5.133,5.448-6.688,8.537c-1.579,3.134-2.48,6.578-2.533,10.193
			c-0.066,4.402,1.145,9.047,3.906,13.726c5.113,103.425,516.477,206.413,615.548,206.413c21.636,0,117.495,6.187,130.434-22.643
			l0.082-0.074c0.292-0.264,0.566-0.528,0.803-0.777c3.341-3.513,9.462-13.42,10.776-23.896c0.945-7.532-0.568-15.761-6.993-23.335
			c-21.487-25.339-91.953-54.126-117.7-64.145c-2.517-1.221-5.228-2.261-7.972-3.069c-11.243-4.627-23.236-5.014-26.857-0.85
			C684.469,548.148,684.635,550.38,686.132,552.741z"/>
		<path fill-rule="evenodd" clip-rule="evenodd" d="M728.854,679.197l0.097-0.198c-0.848,36.386-312.765,100.777-250.292,220.753
			c33.225,63.808-121.765,104.563-136.57,196.489l0.06,1.759c1.198-0.28,1.53-0.195,2.381-0.805
			c20.909-14.974,35.508-57.514,104.398-97.407c100.308-58.087,50.279-112.686,53.297-132.036
			c12.636-81.009,264.597-94.553,274.618-188.555c0-13.253-10.743-23.996-23.995-23.996
			C739.597,655.201,728.854,665.944,728.854,679.197z"/>
		<path fill-rule="evenodd" clip-rule="evenodd" d="M186.512,521.617c-97.654,48.408-92.025,169.152-25.85,243.495
			c97.786,109.851,64.475,66.108,43.927,157.182c-17.315,76.743,52.838,111.898,97.819,164.312c1.834,2.137,2.657,1.535,4.616,0.588
			c0,0-1.455-1.685-1.512-1.899c-14.771-56.081-104.858-90.76-71.693-165.91c41.975-95.11,28.544-87.689-46.77-181.357
			c-40.102-49.875-49.921-142.007,16.225-171.446c12.417-4.628,18.73-18.445,14.102-30.862
			C212.746,523.302,198.929,516.987,186.512,521.617z"/>
		<path fill-rule="evenodd" clip-rule="evenodd" d="M174.413,553.552c17.031,100.676,99.512,205.179,185.265,255.786
			c39.283,23.182,80.49,45.219,120.275,68.448c-44.658-36.688-66.851-48.137-113.95-78.851
			c-76.611-49.958-155.575-151.827-169.54-245.383c0-6.089-4.936-11.024-11.026-11.024
			C179.35,542.528,174.413,547.463,174.413,553.552z"/>
		<path fill-rule="evenodd" clip-rule="evenodd" d="M234.692,561.252c57.366,87.967,182.939,221.925,281.586,270.337
			C414.355,747.998,324.5,666.755,254.155,553.037c-2.269-5.377-8.465-7.894-13.84-5.625
			C234.939,549.681,232.421,555.877,234.692,561.252z"/>
		<path fill-rule="evenodd" clip-rule="evenodd" d="M337.428,613.191c25.959,40.703,152.849,185.371,201.149,201.965
			c3.437,1.181,2.791,0.89,6.223,0.486c-17.727-12.44-30.229-27.613-47.485-42.728c-71.347-62.493-96.561-117.306-158.546-181.731
			c-6.077-0.372-11.304,4.254-11.675,10.332C326.724,607.595,331.35,612.821,337.428,613.191z"/>
		<path fill-rule="evenodd" clip-rule="evenodd" d="M409.867,625.336c43.732,83.627,86.374,106.68,155.197,164.64
			c-51.987-69.862-93.909-85.771-133.916-170.405c-1.591-5.878-7.645-9.35-13.523-7.76
			C411.748,613.404,408.276,619.458,409.867,625.336z"/>
		<path fill-rule="evenodd" clip-rule="evenodd" d="M495.892,638.446c46.352,65.759,61.027,67.918,109.952,122.038l-0.076-0.322
			c0.995,2.941,2.721,7.113,6.578,5.501l0.004-0.012c-8.647-16.205,11.507,4.995-22.914-40.375
			c-34.975-46.099-37.626-36.929-74.086-97.198c-2.861-5.375-9.539-7.407-14.912-4.545
			C495.063,626.396,493.031,633.073,495.892,638.446z"/>
		<path fill-rule="evenodd" clip-rule="evenodd" d="M568.825,656.615c6.69,7.239,76.131,87.358,82.701,88.776
			c-0.216-2.853,0.134-1.548-0.926-3.945l0.207,0.289c-39.559-68.967-17.817-35.837-65.188-99.406
			c-3.943-4.639-10.902-5.198-15.539-1.255C565.441,645.02,564.88,651.977,568.825,656.615z"/>
		<path fill-rule="evenodd" clip-rule="evenodd" d="M648.95,663.012c15.5,26.508,29.388,40.909,51.211,62.115
			c-7.557-35.311-16.689-36.748-29.848-67.575c-1.508-5.899-7.511-9.46-13.412-7.952
			C651.003,651.108,647.444,657.113,648.95,663.012z"/>
		<path fill-rule="evenodd" clip-rule="evenodd" d="M127.131,622.452c17.689,117.867,202.66,218.995,301.556,260.728
			c19.224,8.113,43.502,20.523,62.073,29.733c-29.232-21.33-27.275-21.811-59.516-37.816
			c-85.238-42.31-268.664-148.454-282.063-252.645c0-6.088-4.936-11.024-11.026-11.024
			C132.067,611.428,127.131,616.364,127.131,622.452z"/>
		<path fill-rule="evenodd" clip-rule="evenodd" d="M235.021,853.547c94.982,33.005,135.559,68.393,238.846,72.719
			c5.258,0.218,5.059,4.016,12.84,1.51c-4.422-2.241-10.093-6.221-14.36-6.674c-83.394-8.838-156.602-59.722-233.813-89.323
			c-6.01-0.968-11.67,3.117-12.64,9.127C224.924,846.917,229.009,852.577,235.021,853.547z"/>
		<path fill-rule="evenodd" clip-rule="evenodd" d="M218.61,919.345c95.793,43.235,146.081,55.046,257.289,51.675
			c-121.057-21.093-144.088-19.263-250.1-71.888c-5.582-1.984-11.716,0.931-13.702,6.513
			C210.113,911.225,213.027,917.361,218.61,919.345z"/>
		<path fill-rule="evenodd" clip-rule="evenodd" d="M710.457,660.16c-53.846,50.536-389.646,47.916-462.577,41.449
			c-32.25-2.858-65.89-11.237-98.919-11.609c98.59,29.601,497.217,58.694,578.733-16.091c3.798-4.761,3.017-11.697-1.743-15.495
			C721.191,654.617,714.255,655.399,710.457,660.16z"/>
		<path fill-rule="evenodd" clip-rule="evenodd" d="M596.686,636.871c-111.044,28.401-326.551,13.166-455.764,22.512
			c-1.543-0.476-0.757-0.315-2.766-0.455c0.711,0.821,1.54,2.08,2.734,2.237c86.306,11.274,384.34,15.212,465.506-4.497
			c5.467-2.679,7.723-9.284,5.044-14.751C608.757,636.45,602.152,634.191,596.686,636.871z"/>
		<path fill-rule="evenodd" clip-rule="evenodd" d="M392.353,606.082c-86.387,9.318-169.416,13.776-255.55,21.774
			c97.572,7.676,160.662,6.14,257.821,0.159c6.056-0.626,10.458-6.044,9.831-12.102
			C403.828,609.857,398.411,605.455,392.353,606.082z"/>
		<path fill-rule="evenodd" clip-rule="evenodd" d="M268.105,570.899c-74.894,8.446-36.503,2.697-115.09,17.778
			c79.493,5.66,41.295,4.476,114.575,4.265c6.088,0.142,11.137-4.676,11.279-10.764C279.011,576.09,274.193,571.042,268.105,570.899
			z"/>
		<path fill-rule="evenodd" clip-rule="evenodd" d="M640.277,732.427c-39.458,22.504-327.292,18.149-379.59,9.263
			c-42.387-7.201-64.342-8.138-104.889-23.685l0.059,0.037c-1.789-0.881-0.844-0.534-2.843-1.021
			c11.138,17.776,82.468,29.672,104.625,34.541c45.966,10.099,392.84,36.083,403.489-13.024c0.692-6.049-3.651-11.513-9.7-12.204
			C646.669,725.787,642.273,728.36,640.277,732.427z"/>
		<path fill-rule="evenodd" clip-rule="evenodd" d="M531.337,803.358c-108.26-8.808-208.069,16.038-305.895-1.435
			c-7.863-1.404-3.822-1.035-11.633-1.139c55.661,32.465,235.41,16.156,306.627,21.741c5.292,3.01,12.023,1.159,15.033-4.133
			C538.48,813.097,536.628,806.367,531.337,803.358z"/>
		<path fill-rule="evenodd" clip-rule="evenodd" d="M481.04,853.256c-86.374,20.373-117.036,35.025-209.949,42.113l-39.72,4.035
			c115.602,13.654,139.324-1.274,250.195-24.105c6.088-0.146,10.904-5.198,10.759-11.286
			C492.179,857.927,487.127,853.112,481.04,853.256z"/>
		<path fill-rule="evenodd" clip-rule="evenodd" d="M495.93,825.281c-89.9,15.641-165.05,15.096-255.1,22.786
			c98.931,8.941,161.839,11.346,260.97-1.535c5.869-1.621,9.311-7.691,7.692-13.56C507.871,827.104,501.798,823.66,495.93,825.281z"
			/>
		<path fill-rule="evenodd" clip-rule="evenodd" d="M495.776,897.419c-101.322,28.059-157.741,21.785-260.351,29.006
			c111.006,10.849,158.965,16.904,269.232-8.826c5.574-2.451,8.102-8.957,5.65-14.53
			C507.853,897.495,501.349,894.966,495.776,897.419z"/>
		<path fill-rule="evenodd" clip-rule="evenodd" d="M477.412,944.666c-27.93,36.048-256.877,32.566-258.201,33.41
			c1.86,0.754,1.05,0.598,2.365,0.742c0.034,0.047,0.032,0.042,0.018,0.097c7.5,12.534,233.746,24.795,273.954-22.725
			c3.182-5.009,1.702-11.647-3.305-14.83C487.235,938.178,480.596,939.658,477.412,944.666z"/>
		<path fill-rule="evenodd" clip-rule="evenodd" d="M395.631,1014.302c-46.454,8.853-61.606,16.656-111.062,15.119
			c-21.508-0.671-7.314-1.982-28.881,1.688v0.011c65.743,19.436,77.493,11.233,141.78,4c5.748-0.508,9.998-5.579,9.49-11.327
			C406.449,1018.045,401.379,1013.793,395.631,1014.302z"/>
		<path fill-rule="evenodd" clip-rule="evenodd" d="M207.603,958.589c31.547,35.736,107.938,104.986,157.514,106.987
			c-5.568-5.132-12.025-10.272-18.382-14.343c-68.062-43.571-69.03-38.546-121.318-105.635c-3.588-4.92-10.483-6-15.403-2.412
			C205.095,946.774,204.015,953.669,207.603,958.589z"/>
		<path fill-rule="evenodd" clip-rule="evenodd" d="M298.005,262.593c-32.076,10.679-77.108,95.781-63.043,138.952
			C230.138,373.478,283.035,270.079,298.005,262.593z"/>
		<path fill-rule="evenodd" clip-rule="evenodd" d="M245.045,262.998c-29.724,18.022-33.327,60.469-26.388,90.889
			C218.475,341.993,235.589,271.759,245.045,262.998z"/>
		<path fill-rule="evenodd" clip-rule="evenodd" d="M535.084,330.367c-29.209-8.267-100.436,38.699-95.604,70.632
			C438.54,378.966,517.017,327.297,535.084,330.367z"/>
		<path fill-rule="evenodd" clip-rule="evenodd" d="M573.326,397.876c-15.877-5.83-27.578,42.04-28.486,49.169
			C545.934,444.345,567.94,397.209,573.326,397.876z"/>
		<path fill-rule="evenodd" clip-rule="evenodd" d="M654.883,392.415c5.471-0.071,24.096,40.37,23.024,48.389
			C687.164,417.314,661.774,390.654,654.883,392.415z"/>
		<path fill-rule="evenodd" clip-rule="evenodd" d="M636.933,412.706c12.435,15.53,12.672,47.121,12.486,65.558
			C656.419,450.106,660.546,432.354,636.933,412.706z"/>
		<path fill-rule="evenodd" clip-rule="evenodd" d="M777.206,405.948c16.233,29.604-8.698,122.651-48.394,144.708
			C751.453,533.377,783.083,421.597,777.206,405.948z"/>
		<path fill-rule="evenodd" clip-rule="evenodd" d="M815.728,442.295c9.502,33.439-16.737,66.979-42.532,84.546
			C781.427,518.249,816.688,455.155,815.728,442.295z"/>
		<path fill-rule="evenodd" clip-rule="evenodd" d="M623.288,182.385c51.705,2.598,153.052,109.676,150.01,179.138
			C768.902,318.135,648.448,187.287,623.288,182.385z"/>
		<path fill-rule="evenodd" clip-rule="evenodd" d="M705.648,181.378c34.515,4.118,55.346,41.277,61.604,71.846
			C762.5,242.318,717.88,185.445,705.648,181.378z"/>
		<path fill-rule="evenodd" clip-rule="evenodd" d="M606.69,330.34c7.796-15.009,48.71,12.456,54.187,17.109
			C658.249,346.192,610.218,326.218,606.69,330.34z"/>
		<path fill-rule="evenodd" clip-rule="evenodd" d="M437.556,168.384C394.554,90.239,420.169,127.975,359.512,56
			C409.178,135.676,382.944,98.367,437.556,168.384z"/>
		<path fill-rule="evenodd" clip-rule="evenodd" d="M356.39,165.261c-65.512-33.44-33.142-19.123-96.775-43.704
			C317.436,158.214,285.498,142.956,356.39,165.261z"/>
		<path fill-rule="evenodd" clip-rule="evenodd" d="M237.762,218.331c-46.089-10.739-22.185-8.344-71.801-6.242
			C213.99,223.959,190.035,222.133,237.762,218.331z"/>
		<path fill-rule="evenodd" clip-rule="evenodd" d="M181.57,280.767c-62.089-1.154-31.929-5.444-90.531,12.488
			C151.776,291.133,121.586,295.204,181.57,280.767z"/>
		<path fill-rule="evenodd" clip-rule="evenodd" d="M840.265,349.447c12.64,29.972,51.247,15.621,71.799,9.366
			C895.713,360.372,851.004,365.954,840.265,349.447z"/>
		<path fill-rule="evenodd" clip-rule="evenodd" d="M862.116,421.247c21.259,24.061,8.913,13.488,37.462,31.218
			C880.21,423.942,892.901,434.099,862.116,421.247z"/>
		<polygon fill-rule="evenodd" clip-rule="evenodd" points="862.116,511.778 868.361,518.521 874.604,511.778 868.361,505.035 		"/>
		<path fill-rule="evenodd" clip-rule="evenodd" d="M523.405,176.185c9.343-43.999,9.061-21.629,0-67.117
			C518.178,154.816,517.945,132.445,523.405,176.185z"/>
		<path fill-rule="evenodd" clip-rule="evenodd" d="M797.341,193.26c20.096,2.398,32.227,24.036,35.871,41.835
			C830.445,228.745,804.463,195.628,797.341,193.26z"/>
		<path fill-rule="evenodd" clip-rule="evenodd" d="M621.559,554.558c-6.277,8.936-9.946,23.693-14.787,31.894
			c0.855-4.885,1.823-9.565,2.966-15.449c4.86-25.015,1.513-12.966-1.282-15.074c-1.71,3.703-1.816,3.842-4.277,7.256
			c3.308-22.007,5.518-31.067,1.719-56.142l-10.816,30.418c-1.113-12.432,1.476-33.625,1.559-47.561
			c0.356-59.512-6.095-77.566-12.962-132.304c26.8-0.968,53.41,6.237,70.373,21.954c9.989,9.253,17.61,17.309,24.879,29.032
			c9.468,15.274,16.567,32.099,22.208,51.204c4.143,14.035-4.216,46.966-10.189,58.542c-1.955-11.213-0.966-23.584-9.413-28.12
			c-7.071,6.837-5.466,63.745-14.187,73.75l-0.032-30.255c-6.833,8.725-9.315,23.185-15.567,33.658l2.205-90.763
			c-9.13,22.247-17.14,62.824-22.698,88.833c-1.276,5.973-3.354,24.275-8.16,27.85c-2.287-2.855-1.211,2.727-1.866-4.43
			C620.968,585.959,623.948,568.08,621.559,554.558L621.559,554.558z M389.456,540.995l-2.491,3.722L389.456,540.995
			L389.456,540.995z M457.877,497.521c1.779-3.287-0.382-0.724-0.405-0.768C456.834,495.569,456.674,499.746,457.877,497.521
			L457.877,497.521z M430.335,557.813l26.647-60.412c-1.694,1.343-0.335,0.056-2.534,2.196c-0.305,0.294-1.166,1.221-1.464,1.542
			c-1.715,1.849-1.497,1.632-2.711,3.222l-38.499,48.412l-12.403-4.432c4.037-15.93,19.775-47.611,27.383-61.487
			c5.518-10.061,10.755-19.234,16.396-28.577c7.382-12.227,12.497-17.165,18.027-25.342c18.756-27.733,69.644-70.673,103.482-71.687
			c7.628,17.084,14.399,84.341,15.758,106.561c2.492,40.717,0.857,76.991-5.435,116.4l-6.683-0.87l0.551-11.473l-7.224,9.906
			l-14.794-2.554l6.839-27.498l-15.657,19.459c-2.067,2.203-3.154,2.973-4.867,5.355l-14.398-3.094
			c1.623-10.098,5.316-21.011,4.979-32.26c-3.768,4.897-6.913,10.52-10.208,15.977c-7.4,12.249-6.338,13.567-13.497,13.53
			c2.258-14.398,13.196-41.456,11.776-55.047c-4.055,3.385-20.045,33.211-25.055,41.691c-4.679,7.92-2.053,9.837-12.348,8.589
			l2.841-26.763l-15.969,24.039c-9.162-1.444-8.929-2.986-4.853-12.252c2.318-5.27,6.221-9.131,5.945-15.682
			c-8.286,3.863-14.192,17.546-22.088,23.992L430.335,557.813L430.335,557.813z M559.33,339.983
			c-29.276,3.883-61.756,28.038-79.226,45.883c-29.125,29.756-51.592,68.862-70.073,106.673
			c-20.774,42.506-4.952,28.703-33.548,43.028c-6.869,3.44-10.345,6.417-18.021,0.787c4.078-10.654,37.888-67.727,42.366-77.893
			c-18.157,4.984-58.872,41.938-73.559,57.802c-8.12,8.772-4.404,7.586-11.624,8.614c4.051-10.681,33.813-34.37,37.25-41.667
			l-16.746,2.034c5.798-6.23,26.496-33.963,29.931-45.166c-6.764,1.98-6.446,2.712-12.414,5.822l46.641-40.966
			c1.813-2.025,1.046-3.534-4.892-4.003c-13.327-1.052-34.714,15.195-44.574,19.059c-15.472,6.06-31.785,17.012-46.297,23.056
			l15.78-17.698c9.483-9.444,50.694-36.227,53.914-52.214c-15.551,2.315-55.364,27.655-67.919,33.664
			c2.996-2.317,8.931-10.442,9.382-14.376c-5.173,2.439-7.389,4.349-10.309,3.474l41.104-46.163
			c55.178-37.547,122.383-64.031,194.497-66.806C545.617,299.688,557.084,321.122,559.33,339.983L559.33,339.983z M514.644,235.732
			c-4.759-1.067-61.4,7.515-74.405,8.43c-13.352,0.94-26.891,1.559-40.41,1.786c-18.495,0.308-20.263-2.777-34.238,5.936
			c-16.667,10.396-33.572,22.103-42.469,39.872c-14.109,28.179-22.288,33.053-32.028,49.614
			c10.875-7.692,24.402-24.988,45.415-36.839c-4.982,17.052-23.215,44.015-31.856,55.631c5.122-8.803,53.585-48.417,71.126-54.781
			c-2.565,7.894-8.568,14.307-11.495,21.167c15.726-6.193,26.458-18.408,76.394-35.538c28.045-9.622,62.616-16.746,94.453-18.645
			C532.646,262.341,519.525,241.654,514.644,235.732L514.644,235.732z M704.593,438.181c4.688-36.952-17.59-91.861-32.676-116.971
			c-13.287-22.117-14.337-24.846-44.222-32.293c-14.741-3.674-51.281-8.621-66.046-6.465l16.829,54.286
			c35.358,2.483,55.173,8.022,82.385,33.012C674.321,382.104,703.013,424.85,704.593,438.181L704.593,438.181z M640.197,280.721
			c-13.12-2.409-24.292-5.644-38.922-7.331c-15.573-1.793-30.005-1.945-45.709-2.188c-4.138-14.362-19.042-32.423-23.618-40.265
			c17.698-4.191,15.749-6.603,32.591-0.175C615.065,250.05,635.744,278.28,640.197,280.721L640.197,280.721z M444.936,220.422
			c10.253-2.05,20.546-3.242,31.308-3.791c16.914-0.863,19.911-1.963,28.232,7.771c-27.882,5.863-83.065,13.283-111.624,12.955
			c5.286-1.517,16.107-7.09,23.594-9.556C425.523,224.813,435.12,222.385,444.936,220.422L444.936,220.422z M528.379,220.94
			c-5.924,0.657-3.119,1.161-7.127-0.771C524.179,219.073,523.836,219.618,528.379,220.94L528.379,220.94z M678.593,305.494
			c-33.744-43.755-78.246-77.214-135.236-92.507c-62.43-16.755-127.323-10.511-184.233,21.903
			c-31.728,18.07-50.074,35.97-70.129,60.28c-38.63,46.823-62.001,127.271-42.203,203.892c5.506,21.309,5.231,17.743,37.398,27.006
			c38.879,11.198,122.901,38.257,152.461,43.732c36.963,6.848,73.361,13.821,110.142,20.475
			c20.843,3.772,97.064,20.668,112.477,19.346c23.604-29.041,24.172-26.228,42.934-63.094
			C739.818,472.619,728.59,370.324,678.593,305.494z"/>
	</g>
</g>
<g id="Vexels">
</g>
<g id="Layer_3">
</g>
</svg>
