<?xml version="1.0" encoding="utf-8"?>
<!-- Generator: Adobe Illustrator 24.0.1, SVG Export Plug-In . SVG Version: 6.00 Build 0)  -->
<svg version="1.0" xmlns="http://www.w3.org/2000/svg" xmlns:xlink="http://www.w3.org/1999/xlink" x="0px" y="0px"
	 viewBox="0 0 242.222 255.333" enable-background="new 0 0 242.222 255.333" xml:space="preserve">
<g id="background">
	<g>
		
			<ellipse transform="matrix(1 -0.005 0.005 1 -0.6363 0.6066)" fill-rule="evenodd" clip-rule="evenodd" fill="#EE613A" cx="121.111" cy="127.667" rx="103.634" ry="103.634"/>
		<g>
			<defs>
				
					<ellipse id="SVGID_7_" transform="matrix(1 -0.005 0.005 1 -0.6363 0.6066)" cx="121.111" cy="127.667" rx="103.634" ry="103.634"/>
			</defs>
			<clipPath id="SVGID_2_">
				<use xlink:href="#SVGID_7_"  overflow="visible"/>
			</clipPath>
			<g clip-path="url(#SVGID_2_)">
				<polygon fill-rule="evenodd" clip-rule="evenodd" fill="#A9ABAE" points="34.746,38.064 42.016,52.604 61.643,64.962 
					75.455,87.497 83.815,113.667 85.633,137.294 78.727,161.647 65.278,183.455 38.381,210.716 63.824,231.435 117.982,248.881 
					171.05,237.25 196.493,207.081 179.41,190.725 163.781,167.098 156.874,144.2 155.784,122.391 162.327,96.221 176.139,72.594 
					203.763,47.878 173.594,23.525 122.708,14.439 77.636,18.8 				"/>
				<polygon fill-rule="evenodd" clip-rule="evenodd" fill="#4B4B4D" points="123.874,16.057 123.604,238.608 118.73,238.61 
					118.999,16.059 				"/>
				<polygon fill-rule="evenodd" clip-rule="evenodd" fill="#4B4B4D" points="8.547,125.879 246.866,126.201 246.868,131.076 
					8.549,130.753 				"/>
				<path fill-rule="evenodd" clip-rule="evenodd" fill="#4B4B4D" d="M47.601,53.633c7.38,1.609,15.541,8.429,22.516,18.554
					c6.293,9.137,11.723,21.064,14.791,34.315c3.069,13.251,3.774,27.84,0.621,42.3c-4.311,19.765-15.791,39.249-38.228,54.703
					l-2.769-4.025c21.297-14.669,32.177-33.075,36.239-51.707c2.989-13.705,2.314-27.562-0.606-40.167
					c-2.919-12.608-8.086-23.956-14.073-32.65c-6.292-9.135-13.373-15.226-19.52-16.567L47.601,53.633z"/>
				<path fill-rule="evenodd" clip-rule="evenodd" fill="#4B4B4D" d="M194.035,203.364c-7.372-1.575-15.556-8.365-22.579-18.47
					c-6.338-9.119-11.819-21.025-14.94-34.251c-3.127-13.252-3.895-27.84-0.803-42.304c4.225-19.768,15.626-39.292,38.008-54.846
					l2.778,3.999c-21.225,14.75-32.024,33.207-36.014,51.868c-2.935,13.728-2.206,27.579,0.764,40.162
					c2.974,12.606,8.186,23.934,14.203,32.594c6.324,9.1,13.434,15.157,19.602,16.475L194.035,203.364z"/>
			</g>
		</g>
		<path fill-rule="evenodd" clip-rule="evenodd" fill="#4B4B4D" d="M74.973,32.155c26.372-12.739,55.414-13.583,81.048-4.649
			c25.634,8.934,47.861,27.649,60.602,54.022c12.739,26.372,13.583,55.415,4.649,81.048c-8.934,25.634-27.649,47.861-54.022,60.602
			c-26.372,12.739-55.414,13.583-81.048,4.649c-25.634-8.934-47.861-27.649-60.601-54.022
			c-12.739-26.372-13.583-55.414-4.649-81.048C29.885,67.123,48.6,44.896,74.973,32.155L74.973,32.155z M154.419,32.106
			c-24.454-8.523-52.162-7.717-77.327,4.439C51.928,48.702,34.073,69.906,25.55,94.359c-8.523,24.454-7.717,52.163,4.439,77.327
			c12.156,25.163,33.361,43.018,57.814,51.541c24.454,8.523,52.163,7.717,77.327-4.439c25.163-12.156,43.019-33.361,51.541-57.814
			c8.523-24.454,7.717-52.163-4.44-77.327C200.076,58.484,178.872,40.629,154.419,32.106z"/>
		<path opacity="0.29" fill-rule="evenodd" clip-rule="evenodd" fill="#727376" d="M211.724,178.388
			c-17.89,31.088-51.443,52.019-89.886,52.019c-57.236,0-103.634-46.398-103.634-103.634c0-11.318,1.821-22.209,5.175-32.405
			c-0.051,1.391-0.086,2.788-0.086,4.193c0,61.376,49.754,111.13,111.129,111.13C164.467,209.691,191.722,197.762,211.724,178.388z"
			/>
	</g>
</g>
<g id="Vexels">
</g>
<g id="Layer_3">
</g>
</svg>
