<?xml version="1.0" encoding="utf-8"?>
<!-- Generator: Adobe Illustrator 24.0.1, SVG Export Plug-In . SVG Version: 6.00 Build 0)  -->
<svg version="1.0" xmlns="http://www.w3.org/2000/svg" xmlns:xlink="http://www.w3.org/1999/xlink" x="0px" y="0px"
	 viewBox="0 0 242.222 255.333" enable-background="new 0 0 242.222 255.333" xml:space="preserve">
<g id="background">
	<g>
		
			<ellipse transform="matrix(0.7071 -0.7071 0.7071 0.7071 -54.8014 123.0313)" fill-rule="evenodd" clip-rule="evenodd" fill="#F6EEEF" cx="121.111" cy="127.667" rx="103.634" ry="103.634"/>
		<g>
			<defs>
				
					<ellipse id="SVGID_23_" transform="matrix(0.7071 -0.7071 0.7071 0.7071 -54.8014 123.0313)" cx="121.111" cy="127.667" rx="103.634" ry="103.634"/>
			</defs>
			<clipPath id="SVGID_2_">
				<use xlink:href="#SVGID_23_"  overflow="visible"/>
			</clipPath>
			<g clip-path="url(#SVGID_2_)">
				<path fill-rule="evenodd" clip-rule="evenodd" fill="#4A63B8" d="M23.536,162.648c7.587,21.158,21.859,39.128,40.269,51.372
					c17.711,4.072,36.71,6.004,55.258,6.147v-15.459c-6.715-0.276-13.322-1.033-19.754-2.198
					c-25.635-4.646-48.515-15.81-64.494-28.962C30.545,170.035,26.76,166.373,23.536,162.648z"/>
				<path fill-rule="evenodd" clip-rule="evenodd" fill="#B93535" d="M119.062,24.058c-25.481,0.495-48.705,10.187-66.498,25.891
					l0.793,0.495c-8.052,12.844-8.61,31.078-4.122,49.288c4.898,19.872,15.778,39.598,29.514,52.321
					c6.286,5.822,13.163,9.928,19.82,12.694c7.528,3.127,14.747,4.527,20.493,4.758V24.058z"/>
				<path fill-rule="evenodd" clip-rule="evenodd" fill="#4A63B8" d="M220.899,155.726c2.507-8.923,3.847-18.334,3.847-28.059
					c0-24.131-8.249-46.335-22.077-63.948c2.548,11.372,1.746,24.331-1.602,37.205c-5.394,20.748-17.426,41.386-32.641,54.745
					c-7.116,6.249-14.878,10.645-22.378,13.6c-8.014,3.157-15.75,4.675-22.099,5.057v25.626
					c17.916,0.105,36.509-3.407,54.474-11.962C193.243,180.934,207.645,170.443,220.899,155.726z"/>
				<path fill-rule="evenodd" clip-rule="evenodd" fill="#B93535" d="M123.948,231.261c14.492-0.39,28.238-3.759,40.658-9.51
					c-12.708,2.009-26.511,3.152-40.658,3.28V231.261z"/>
				<path fill-rule="evenodd" clip-rule="evenodd" fill="#4B4B4D" d="M123.948,241.569v-16.538
					c24.232-0.218,47.462-3.418,65.892-8.839l-1.373-4.675c-18.021,5.3-40.764,8.43-64.519,8.648v-15.34
					c18.598,0.111,37.908-3.538,56.572-12.426c17.209-8.194,33.864-20.845,48.897-39.109l-3.76-3.091
					c-14.533,17.657-30.621,29.882-47.235,37.792c-17.965,8.555-36.558,12.067-54.474,11.962v-25.626
					c6.349-0.382,14.085-1.9,22.099-5.057c7.5-2.954,15.262-7.351,22.378-13.6c15.215-13.359,27.247-33.997,32.641-54.745
					c5.051-19.424,4.312-39.041-4.994-53.114l-4.065,2.691c8.482,12.826,9.072,31.028,4.346,49.202
					c-5.162,19.857-16.639,39.575-31.134,52.302c-6.65,5.84-13.918,9.954-20.947,12.723c-7.38,2.906-14.481,4.325-20.324,4.704
					V2.896h-4.886v166.608c-5.746-0.231-12.965-1.63-20.493-4.758c-6.657-2.765-13.534-6.871-19.82-12.694
					c-13.736-12.723-24.617-32.449-29.514-52.321c-4.488-18.21-3.93-36.443,4.122-49.288l-4.121-2.577
					c-8.812,14.055-9.513,33.64-4.734,53.028c5.11,20.731,16.517,41.362,30.945,54.726c6.766,6.266,14.136,10.671,21.253,13.628
					c8.193,3.405,16.085,4.912,22.362,5.143v25.442c-6.423-0.272-12.742-0.999-18.895-2.114
					c-24.777-4.491-46.862-15.256-62.262-27.932c-8.757-7.208-15.316-15.01-18.922-22.583l-4.408,2.099
					c3.903,8.197,10.918,16.572,20.239,24.245c15.979,13.152,38.859,24.316,64.494,28.962c6.432,1.165,13.038,1.922,19.754,2.198
					v15.459c-21.129-0.163-42.843-2.648-62.572-7.972l-1.259,4.713c20.124,5.43,42.279,7.962,63.832,8.126v16.535H123.948z"/>
			</g>
		</g>
		<path fill-rule="evenodd" clip-rule="evenodd" fill="#4B4B4D" d="M121.111,228.858c27.944,0,53.243-11.327,71.554-29.637
			c18.31-18.311,29.637-43.611,29.637-71.554c0-27.944-11.327-53.243-29.637-71.554c-18.311-18.31-43.61-29.637-71.554-29.637
			c-27.944,0-53.243,11.327-71.554,29.637c-18.31,18.311-29.637,43.61-29.637,71.554c0,27.943,11.327,53.243,29.637,71.554
			C67.868,217.531,93.168,228.858,121.111,228.858L121.111,228.858z M196.119,202.674c-19.196,19.196-45.716,31.07-75.008,31.07
			c-29.291,0-55.812-11.874-75.008-31.07c-19.195-19.196-31.07-45.717-31.07-75.008c0-29.292,11.874-55.812,31.07-75.008
			c19.196-19.195,45.717-31.07,75.008-31.07c29.292,0,55.811,11.874,75.008,31.07c19.196,19.196,31.07,45.716,31.07,75.008
			C227.189,156.958,215.314,183.478,196.119,202.674z"/>
		<path opacity="0.29" fill-rule="evenodd" clip-rule="evenodd" fill="#727376" d="M210.997,180.119
			c-17.89,31.088-51.443,52.019-89.886,52.019c-57.236,0-103.634-46.398-103.634-103.634c0-11.318,1.82-22.209,5.175-32.405
			c-0.051,1.391-0.087,2.789-0.087,4.193c0,61.376,49.754,111.13,111.129,111.13C163.739,211.422,190.995,199.493,210.997,180.119z"
			/>
	</g>
</g>
<g id="Vexels">
</g>
<g id="Layer_3">
</g>
</svg>
