<?xml version="1.0" encoding="utf-8"?>
<!-- Generator: Adobe Illustrator 24.0.1, SVG Export Plug-In . SVG Version: 6.00 Build 0)  -->
<svg version="1.0" xmlns="http://www.w3.org/2000/svg" xmlns:xlink="http://www.w3.org/1999/xlink" x="0px" y="0px"
	 viewBox="0 0 242.222 255.333" enable-background="new 0 0 242.222 255.333" xml:space="preserve">
<g id="background">
	<g>
		
			<ellipse transform="matrix(0.7071 -0.7071 0.7071 0.7071 -54.8014 123.0313)" fill-rule="evenodd" clip-rule="evenodd" fill="#F6EEEF" cx="121.111" cy="127.667" rx="103.634" ry="103.634"/>
		<g>
			<defs>
				
					<ellipse id="SVGID_21_" transform="matrix(0.7071 -0.7071 0.7071 0.7071 -54.8014 123.0313)" cx="121.111" cy="127.667" rx="103.634" ry="103.634"/>
			</defs>
			<clipPath id="SVGID_2_">
				<use xlink:href="#SVGID_21_"  overflow="visible"/>
			</clipPath>
			<g clip-path="url(#SVGID_2_)">
				<path fill-rule="evenodd" clip-rule="evenodd" fill="#9C3032" d="M212.312,78.409c-10.149-18.751-25.915-34.015-45.038-43.545
					c-4.442,0.536-8.96,1.604-13.511,3.144c-1.003,0.34-2.007,0.701-3.012,1.085c3.415,2.357,7.064,4.838,10.915,7.414
					C176.24,56.255,193.686,67.344,212.312,78.409z"/>
				<path fill-rule="evenodd" clip-rule="evenodd" fill="#4A63B8" d="M126.817,231.142c28.622-1.553,54.151-14.723,71.963-34.873
					c2.156-3.965,3.188-9.181,3.193-15.298c0.009-14.684-5.892-34.206-16.383-54.164c-10.547-20.063-25.702-40.48-44.134-56.807
					c-6.036-5.346-12.422-10.253-19.113-14.564c-7.685,5.849-15.176,12.691-22.274,20.23c6.011,5.012,11.347,10.728,15.616,18
					c4.921,8.384,8.385,18.784,9.769,32.478c1.235,12.221,2.229,26.028,2.546,43.832
					C128.294,186.382,128.012,206.149,126.817,231.142z"/>
				<path fill-rule="evenodd" clip-rule="evenodd" fill="#9C3032" d="M19.803,105.769c-1.521,7.06-2.326,14.384-2.326,21.898
					c0,25.393,9.138,48.648,24.298,66.67c-0.171-1.845-0.269-3.726-0.297-5.64c-0.412-27.45,13.666-61.699,34.617-91.327
					c5.114-7.233,10.642-14.196,16.474-20.726c-17.708-8.951-32.077-7.398-43.604-0.951c-12.282,6.87-21.536,19.298-28.208,30.635
					L19.803,105.769z"/>
				<path fill-rule="evenodd" clip-rule="evenodd" fill="#4A63B8" d="M121.111,24.032c-15.065,0-29.378,3.218-42.293,8.998
					c15.359,2.435,29.903,8.317,43.299,16.516c6.167-4.486,12.448-8.348,18.75-11.445c-8.027-5.709-14.395-10.54-18.567-14.054
					C121.904,24.042,121.508,24.032,121.111,24.032z"/>
				<path fill-rule="evenodd" clip-rule="evenodd" fill="#4B4B4D" d="M172.924,29.606c-6.805,0.102-13.755,1.426-20.727,3.784
					c-2.073,0.702-4.149,1.495-6.226,2.376c-13.848-9.723-22.987-16.913-24.829-19.496l-3.969,2.824
					c1.963,2.756,10.634,9.718,23.695,19.008c-6.302,3.097-12.583,6.958-18.75,11.445C104.252,38.612,84.344,31.8,63.183,31.786
					v4.866c19.541,0.012,38.022,6.138,54.742,16.051c-7.586,5.913-14.963,12.741-21.949,20.212
					c-19.962-10.522-36.262-8.814-49.377-1.478c-13.221,7.395-23.024,20.505-30.041,32.429l4.199,2.461
					c6.672-11.338,15.926-23.765,28.208-30.635c11.527-6.447,25.897-8,43.604,0.951c-5.832,6.53-11.36,13.493-16.474,20.726
					c-20.951,29.628-35.029,63.877-34.617,91.327c0.101,6.78,1.079,13.156,3.041,18.957l4.618-1.564
					c-1.801-5.325-2.698-11.194-2.792-17.45c-0.397-26.401,13.324-59.595,33.739-88.464c5.176-7.32,10.778-14.354,16.685-20.921
					c5.696,4.725,10.735,10.085,14.72,16.872c4.582,7.807,7.814,17.561,9.122,30.494c1.226,12.133,2.213,25.823,2.526,43.431
					c0.315,17.631-0.043,39.242-1.503,67.228l4.867,0.247c1.462-28.046,1.82-49.773,1.503-67.552
					c-0.317-17.804-1.311-31.611-2.546-43.832c-1.384-13.694-4.848-24.094-9.769-32.478c-4.269-7.272-9.605-12.988-15.616-18
					c7.098-7.539,14.589-14.381,22.274-20.23c6.691,4.311,13.077,9.218,19.113,14.564c18.432,16.327,33.586,36.744,44.134,56.807
					c10.491,19.958,16.392,39.48,16.383,54.164c-0.005,7.922-1.733,14.336-5.398,18.473l3.645,3.224
					c4.495-5.074,6.614-12.594,6.62-21.697c0.01-15.461-6.091-35.803-16.937-56.435c-10.791-20.527-26.317-41.435-45.222-58.181
					c-5.748-5.091-11.809-9.799-18.147-13.996c6.234-4.409,12.571-8.139,18.906-11.036c4.161,2.906,8.686,5.998,13.515,9.229
					c18.759,12.547,42.144,27.245,66.58,41.216l2.423-4.237c-24.43-13.968-47.697-28.587-66.293-41.025
					c-3.851-2.576-7.5-5.056-10.915-7.414c1.005-0.384,2.009-0.745,3.012-1.085c6.516-2.204,12.966-3.442,19.22-3.535
					L172.924,29.606z"/>
			</g>
		</g>
		<path fill-rule="evenodd" clip-rule="evenodd" fill="#4B4B4D" d="M121.111,26.475c-27.944,0-53.243,11.327-71.554,29.637
			c-18.31,18.311-29.637,43.61-29.637,71.554c0,27.943,11.327,53.243,29.637,71.554c18.311,18.31,43.611,29.637,71.554,29.637
			c27.944,0,53.243-11.327,71.554-29.637c18.31-18.311,29.637-43.611,29.637-71.554c0-27.944-11.327-53.243-29.637-71.554
			C174.354,37.802,149.055,26.475,121.111,26.475L121.111,26.475z M46.103,52.659c19.196-19.195,45.717-31.07,75.008-31.07
			c29.292,0,55.811,11.874,75.008,31.07c19.196,19.196,31.07,45.716,31.07,75.008c0,29.291-11.874,55.811-31.07,75.008
			c-19.196,19.196-45.716,31.07-75.008,31.07c-29.291,0-55.812-11.874-75.008-31.07c-19.195-19.196-31.07-45.717-31.07-75.008
			C15.034,98.375,26.908,71.855,46.103,52.659z"/>
		<path opacity="0.29" fill-rule="evenodd" clip-rule="evenodd" fill="#727376" d="M212.061,179.646
			c-17.89,31.088-51.443,52.019-89.886,52.019c-57.236,0-103.634-46.398-103.634-103.634c0-11.318,1.821-22.209,5.175-32.405
			c-0.051,1.391-0.087,2.789-0.087,4.193c0,61.376,49.754,111.129,111.13,111.129C164.804,210.948,192.059,199.02,212.061,179.646z"
			/>
	</g>
</g>
<g id="Vexels">
</g>
<g id="Layer_3">
</g>
</svg>
