<?xml version="1.0" standalone="no"?>
<!DOCTYPE svg PUBLIC "-//W3C//DTD SVG 1.1//EN" "http://www.w3.org/Graphics/SVG/1.1/DTD/svg11.dtd">
<!--Generator: Xara Designer (www.xara.com), SVG filter version: 4.0.0.1-->
<svg stroke-width="0.501" stroke-linejoin="bevel" fill-rule="evenodd" xmlns:xlink="http://www.w3.org/1999/xlink" xmlns="http://www.w3.org/2000/svg" version="1.1" overflow="visible" width="180pt" height="187.5pt" viewBox="0 0 180 187.5">
 <defs>
  <marker id="DefaultArrow2" markerUnits="strokeWidth" viewBox="0 0 1 1" markerWidth="1" markerHeight="1" overflow="visible" orient="auto">
   <!-- REF_ARROW_STRAIGHT (-2) -->
   <g transform="scale(0.0092592592)">
    <!-- 1/108 -->
    <path d="M -9 54 L -9 -54 L 117 0 z"/>
   </g>
  </marker>
  <marker id="DefaultArrow3" markerUnits="strokeWidth" viewBox="0 0 1 1" markerWidth="1" markerHeight="1" overflow="visible" orient="auto">
   <!-- REF_ARROW_ANGLED -->
   <g transform="scale(0.0092592592)">
    <path d="M -27 54 L -9 0 L -27 -54 L 135 0 z"/>
   </g>
  </marker>
  <marker id="DefaultArrow4" markerUnits="strokeWidth" viewBox="0 0 1 1" markerWidth="1" markerHeight="1" overflow="visible" orient="auto">
   <!-- REF_ARROW_ROUNDED -->
   <g transform="scale(0.0092592592)">
    <path d="M -9,0 L -9,-45 C -9,-51.708 2.808,-56.580 9,-54 L 117,-9 C 120.916,-7.369 126.000,-4.242 126,0 C 126,4.242 120.916,7.369 117,9 L 9,54 C 2.808,56.580 -9,51.708 -9,45 z"/>
   </g>
  </marker>
  <marker id="DefaultArrow5" markerUnits="strokeWidth" viewBox="0 0 1 1" markerWidth="1" markerHeight="1" overflow="visible" orient="auto">
   <!-- REF_ARROW_SPOT -->
   <g transform="scale(0.0092592592)">
    <path d="M -54, 0 C -54,29.807 -29.807,54 0,54 C 29.807,54 54,29.807 54,0 C 54,-29.807 29.807,-54 0,-54 C -29.807,-54 -54,-29.807 -54,0 z"/>
   </g>
  </marker>
  <marker id="DefaultArrow6" markerUnits="strokeWidth" viewBox="0 0 1 1" markerWidth="1" markerHeight="1" overflow="visible" orient="auto">
   <!-- REF_ARROW_DIAMOND -->
   <g transform="scale(0.0092592592)">
    <path d="M -63,0 L 0,63 L 63,0 L 0,-63 z"/>
   </g>
  </marker>
  <marker id="DefaultArrow7" markerUnits="strokeWidth" viewBox="0 0 1 1" markerWidth="1" markerHeight="1" overflow="visible" orient="auto">
   <!-- REF_ARROW_FEATHER -->
   <g transform="scale(0.0092592592)">
    <path d="M 18,-54 L 108,-54 L 63,0 L 108,54 L 18, 54 L -36,0 z"/>
   </g>
  </marker>
  <marker id="DefaultArrow8" markerUnits="strokeWidth" viewBox="0 0 1 1" markerWidth="1" markerHeight="1" overflow="visible" orient="auto">
   <!-- REF_ARROW_FEATHER2 -->
   <g transform="scale(0.0092592592)">
    <path d="M -36,0 L 18,-54 L 54,-54 L 18,-18 L 27,-18 L 63,-54 L 99,-54 L 63,-18 L 72,-18 L 108,-54 L 144,-54 L 90,0 L 144,54 L 108,54 L 72,18 L 63,18 L 99,54 L 63,54 L 27,18 L 18,18 L 54,54 L 18,54 z"/>
   </g>
  </marker>
  <marker id="DefaultArrow9" markerUnits="strokeWidth" viewBox="0 0 1 1" markerWidth="1" markerHeight="1" overflow="visible" orient="auto">
   <!-- REF_ARROW_HOLLOWDIAMOND -->
   <g transform="scale(0.0092592592)">
    <path d="M 0,45 L -45,0 L 0, -45 L 45, 0 z M 0, 63 L-63, 0 L 0, -63 L 63, 0 z"/>
   </g>
  </marker>
  <filter id="StainedFilter">
   <feBlend mode="multiply" in2="BackgroundImage" in="SourceGraphic" result="blend"/>
   <feComposite in="blend" in2="SourceAlpha" operator="in" result="comp"/>
  </filter>
  <filter id="BleachFilter">
   <feBlend mode="screen" in2="BackgroundImage" in="SourceGraphic" result="blend"/>
   <feComposite in="blend" in2="SourceAlpha" operator="in" result="comp"/>
  </filter>
  <filter id="InvertTransparencyBitmapFilter">
   <feComponentTransfer>
    <feFuncR type="gamma" amplitude="1.055" exponent=".416666666" offset="-0.055"/>
    <feFuncG type="gamma" amplitude="1.055" exponent=".416666666" offset="-0.055"/>
    <feFuncB type="gamma" amplitude="1.055" exponent=".416666666" offset="-0.055"/>
   </feComponentTransfer>
   <feComponentTransfer>
    <feFuncR type="linear" slope="-1" intercept="1"/>
    <feFuncG type="linear" slope="-1" intercept="1"/>
    <feFuncB type="linear" slope="-1" intercept="1"/>
    <feFuncA type="linear" slope="1" intercept="0"/>
   </feComponentTransfer>
   <feComponentTransfer>
    <feFuncR type="gamma" amplitude="1" exponent="2.4" offset="0"/>
    <feFuncG type="gamma" amplitude="1" exponent="2.4" offset="0"/>
    <feFuncB type="gamma" amplitude="1" exponent="2.4" offset="0"/>
   </feComponentTransfer>
  </filter>
 </defs>
 <g id="Document" fill="none" stroke="black" font-family="Times New Roman" font-size="16" transform="scale(1 -1)">
  <g id="Spread" transform="translate(0 -187.5)">
   <g id="Club Logo">
    <g id="Group" fill-rule="nonzero" stroke-linejoin="miter" stroke="none" stroke-width="1" stroke-miterlimit="79.8403193612775">
     <g id="Group_1" fill="#851c48">
      <path d="M 168.371,51.054 L 168.692,49.825 L 168.692,32.125 L 168.371,30.869 L 175.937,30.869 L 176.403,33.702 L 175.09,33.411 L 171.496,33.411 L 171.205,33.702 L 171.205,39.426 L 171.496,39.719 L 172.49,39.719 L 173.747,39.399 L 173.747,42.552 L 172.49,42.232 L 171.496,42.232 L 171.205,42.524 L 171.205,48.25 L 171.496,48.542 L 175.09,48.542 L 176.403,48.25 L 175.937,51.054 Z M 157.768,51.054 L 158.089,49.798 L 158.089,32.095 L 157.768,30.869 L 160.923,30.869 L 160.602,32.095 L 160.602,39.399 L 160.893,39.691 L 161.682,39.691 L 161.886,39.457 L 162.968,32.066 L 162.734,30.869 L 165.888,30.869 L 165.48,32.153 L 164.399,39.691 L 165.655,40.947 L 165.655,49.798 L 164.399,51.054 Z M 160.602,42.494 L 160.602,48.221 L 160.893,48.512 L 162.851,48.512 L 163.143,48.221 L 163.143,42.494 L 162.851,42.203 L 160.893,42.203 Z M 151.984,51.054 L 152.305,49.798 L 152.305,32.095 L 151.984,30.869 L 155.139,30.869 L 154.817,32.095 L 154.817,49.798 L 155.139,51.054 Z M 146.201,51.054 L 146.492,49.798 L 146.492,42.494 L 146.201,42.203 L 144.272,42.203 L 143.981,42.494 L 143.981,49.798 L 144.302,51.054 L 141.146,51.054 L 141.468,49.798 L 141.468,32.095 L 141.146,30.869 L 144.302,30.869 L 143.981,32.095 L 143.981,39.399 L 144.272,39.691 L 146.201,39.691 L 146.492,39.399 L 146.492,32.095 L 146.201,30.869 L 149.355,30.869 L 149.034,32.095 L 149.034,49.798 L 149.355,51.054 Z M 132.033,51.054 L 130.748,49.798 L 130.748,40.947 L 132.033,39.691 L 135.509,39.691 L 135.802,39.399 L 135.802,33.673 L 135.509,33.381 L 133.582,33.381 L 133.29,33.673 L 133.29,34.667 L 133.61,35.894 L 130.456,35.894 L 130.748,34.667 L 130.748,32.125 L 132.033,30.869 L 137.088,30.869 L 138.344,32.125 L 138.344,40.947 L 137.088,42.203 L 133.582,42.203 L 133.29,42.494 L 133.29,48.221 L 133.582,48.512 L 135.509,48.512 L 135.802,48.221 L 135.802,47.227 L 135.509,46 L 138.665,46 L 138.344,47.227 L 138.344,49.798 L 137.088,51.054 Z M 124.819,51.054 L 125.139,49.798 L 125.139,40.421 L 125.256,38.638 L 124.819,40.421 L 122.013,51.054 L 119.181,51.054 L 119.502,49.798 L 119.502,32.095 L 119.181,30.869 L 122.335,30.869 L 122.013,32.095 L 122.013,41.502 L 121.896,43.282 L 122.335,41.502 L 125.139,30.869 L 127.972,30.869 L 127.652,32.095 L 127.652,49.798 L 127.972,51.054 Z M 110.241,51.054 L 108.986,49.798 L 108.986,32.125 L 110.241,30.869 L 115.296,30.869 L 116.551,32.125 L 116.551,49.798 L 115.296,51.054 Z M 111.499,33.673 L 111.499,48.221 L 111.789,48.512 L 113.717,48.512 L 114.01,48.221 L 114.01,33.673 L 113.717,33.381 L 111.789,33.381 Z M 98.44,51.054 L 97.972,48.221 L 99.287,48.512 L 100.952,48.512 L 101.244,48.221 L 101.244,32.095 L 100.924,30.869 L 104.079,30.869 L 103.757,32.095 L 103.757,48.221 L 104.049,48.512 L 105.685,48.512 L 107,48.221 L 106.532,51.054 Z M 88.391,51.054 L 88.714,49.798 L 88.714,32.095 L 88.391,30.869 L 91.547,30.869 L 91.224,32.095 L 91.224,39.399 L 91.517,39.691 L 95.023,39.691 L 96.279,40.947 L 96.279,49.798 L 95.023,51.054 Z M 91.224,42.494 L 91.224,48.221 L 91.517,48.512 L 93.446,48.512 L 93.737,48.221 L 93.737,42.494 L 93.446,42.203 L 91.517,42.203 Z M 82.928,51.054 L 79.688,41.383 L 76.416,51.054 L 73.58,51.054 L 73.902,49.798 L 73.902,32.095 L 73.58,30.869 L 76.738,30.869 L 76.416,32.095 L 76.416,43.693 L 79.045,35.981 L 80.331,35.981 L 82.928,43.693 L 82.928,32.095 L 82.608,30.869 L 85.761,30.869 L 85.442,32.095 L 85.442,49.798 L 85.761,51.054 Z M 64.876,51.054 L 65.14,49.915 L 62.16,32.592 L 61.575,30.869 L 64.731,30.869 L 64.527,31.715 L 65.17,35.601 L 65.519,35.921 L 67.71,35.921 L 68.061,35.572 L 68.733,31.715 L 68.529,30.869 L 71.683,30.869 L 71.069,32.622 L 68.061,49.915 L 68.325,51.054 Z M 65.665,38.669 L 66.366,42.758 L 66.601,45.007 L 66.834,42.758 L 67.535,38.609 L 67.273,38.463 L 65.927,38.463 Z M 56.523,51.054 L 56.814,49.798 L 56.814,42.494 L 56.523,42.203 L 54.596,42.203 L 54.303,42.494 L 54.303,49.798 L 54.624,51.054 L 51.47,51.054 L 51.79,49.798 L 51.79,32.095 L 51.47,30.869 L 54.624,30.869 L 54.303,32.095 L 54.303,39.399 L 54.596,39.691 L 56.523,39.691 L 56.814,39.399 L 56.814,32.095 L 56.523,30.869 L 59.676,30.869 L 59.356,32.095 L 59.356,49.798 L 59.676,51.054 Z M 40.925,51.054 L 40.455,48.221 L 41.771,48.512 L 43.436,48.512 L 43.729,48.221 L 43.729,32.095 L 43.407,30.869 L 46.563,30.869 L 46.24,32.095 L 46.24,48.221 L 46.533,48.512 L 48.168,48.512 L 49.483,48.221 L 49.015,51.054 Z M 30.495,51.054 L 30.816,49.798 L 30.816,32.095 L 30.495,30.869 L 33.65,30.869 L 33.331,32.095 L 33.331,39.399 L 33.622,39.691 L 34.409,39.691 L 34.614,39.457 L 35.696,32.066 L 35.461,30.869 L 38.616,30.869 L 38.207,32.153 L 37.126,39.691 L 38.383,40.947 L 38.383,49.798 L 37.126,51.054 Z M 33.331,42.494 L 33.331,48.221 L 33.622,48.512 L 35.578,48.512 L 35.87,48.221 L 35.87,42.494 L 35.578,42.203 L 33.622,42.203 Z M 21.557,51.054 L 20.3,49.798 L 20.3,32.125 L 21.557,30.869 L 26.611,30.869 L 27.868,32.125 L 27.868,49.798 L 26.611,51.054 Z M 22.813,33.673 L 22.813,48.221 L 23.106,48.512 L 25.033,48.512 L 25.326,48.221 L 25.326,33.673 L 25.033,33.381 L 23.106,33.381 Z M 14.517,51.054 L 14.84,49.798 L 14.84,40.421 L 14.955,38.638 L 14.517,40.421 L 11.713,51.054 L 8.88,51.054 L 9.201,49.798 L 9.201,32.095 L 8.88,30.869 L 12.034,30.869 L 11.713,32.095 L 11.713,41.502 L 11.596,43.282 L 12.034,41.502 L 14.84,30.869 L 17.671,30.869 L 17.35,32.095 L 17.35,49.798 L 17.671,51.054 Z" marker-start="none" marker-end="none"/>
     </g>
     <g id="Group_2" fill="#0a264a">
      <path d="M 72.345,25.857 L 70.299,22.965 L 68.255,25.857 L 67.141,25.857 L 66.865,25.326 L 69.552,21.529 L 69.552,17.89 L 70.994,17.89 L 70.994,21.527 L 73.712,25.323 L 73.438,25.857 Z" marker-start="none" marker-end="none"/>
     </g>
     <g id="Group_3" fill="#0a264a">
      <path d="M 91.987,23.443 C 91.987,24.866 90.919,25.858 89.388,25.858 L 86.431,25.858 L 86.431,17.892 L 87.875,17.892 L 87.875,20.954 L 88.93,20.954 L 91.019,17.892 L 92.158,17.892 L 92.434,18.421 L 90.493,21.196 C 91.415,21.539 91.987,22.377 91.987,23.443 M 87.875,24.524 L 89.356,24.524 C 89.947,24.524 90.546,24.187 90.546,23.433 C 90.546,22.485 89.858,22.286 89.279,22.286 L 87.875,22.286 Z" marker-start="none" marker-end="none"/>
     </g>
     <g id="Group_4" fill="#0a264a">
      <path d="M 81.456,24.653 C 82.185,24.653 82.752,24.367 83.237,23.754 L 83.458,23.476 L 84.532,24.425 L 84.322,24.677 C 83.586,25.554 82.617,25.997 81.434,25.997 C 78.929,25.997 77.808,23.921 77.808,21.863 C 77.808,19.816 78.929,17.751 81.434,17.751 C 82.617,17.751 83.586,18.193 84.322,19.071 L 84.532,19.321 L 83.458,20.275 L 83.237,19.995 C 82.752,19.38 82.186,19.093 81.456,19.093 C 79.947,19.093 79.273,20.49 79.273,21.875 C 79.273,23.258 79.947,24.653 81.456,24.653"/>
     </g>
     <g id="Group_5" fill="#0a264a">
      <path d="M 36.799,25.999 C 34.19,25.999 33.001,23.866 33.001,21.885 C 33.001,19.894 34.19,17.751 36.799,17.751 C 39.41,17.751 40.599,19.894 40.599,21.885 C 40.599,23.866 39.41,25.999 36.799,25.999 M 36.799,24.655 C 38.414,24.655 39.136,23.258 39.136,21.875 C 39.136,20.492 38.414,19.095 36.799,19.095 C 35.185,19.095 34.463,20.492 34.463,21.875 C 34.463,23.258 35.185,24.655 36.799,24.655"/>
     </g>
     <g id="Group_6" fill="#0a264a">
      <path d="M 56.428,20.609 L 52.398,25.956 L 51.331,25.956 L 51.331,17.892 L 52.752,17.892 L 52.752,23.111 L 56.771,17.794 L 57.849,17.794 L 57.849,25.858 L 56.428,25.858 Z" marker-start="none" marker-end="none"/>
     </g>
     <g id="Group_7" fill="#0a264a">
      <path d="M 29.16,24.653 C 29.89,24.653 30.456,24.367 30.94,23.754 L 31.161,23.476 L 32.237,24.425 L 32.026,24.677 C 31.291,25.554 30.321,25.997 29.137,25.997 C 26.632,25.997 25.513,23.921 25.513,21.863 C 25.513,19.816 26.632,17.751 29.137,17.751 C 30.321,17.751 31.291,18.193 32.026,19.071 L 32.237,19.321 L 31.161,20.275 L 30.94,19.995 C 30.456,19.38 29.89,19.093 29.16,19.093 C 27.652,19.093 26.976,20.49 26.976,21.875 C 26.976,23.258 27.652,24.653 29.16,24.653"/>
     </g>
     <g id="Group_8" fill="#0a264a">
      <path d="M 47.447,20.663 C 47.447,19.681 46.759,19.095 45.61,19.095 C 44.736,19.095 43.803,19.509 43.803,20.673 L 43.803,25.858 L 42.362,25.858 L 42.362,20.684 C 42.362,18.957 43.697,17.751 45.61,17.751 C 47.558,17.751 48.868,18.93 48.868,20.684 L 48.868,25.858 L 47.447,25.858 Z" marker-start="none" marker-end="none"/>
     </g>
     <g id="Group_9" fill="#0a264a">
      <path d="M 59.339,24.492 L 62.043,24.492 L 62.043,17.89 L 63.485,17.89 L 63.485,24.492 L 66.179,24.492 L 66.179,25.857 L 59.339,25.857 Z" marker-start="none" marker-end="none"/>
     </g>
     <path d="M 94.417,17.892 L 95.859,17.892 L 95.859,25.858 L 94.417,25.858 Z" fill="#0a264a" marker-start="none" marker-end="none"/>
     <g id="Group_10" fill="#0a264a">
      <path d="M 141.252,25.857 L 139.811,25.857 L 139.811,17.89 L 145.094,17.89 L 145.094,19.256 L 141.252,19.256 Z" marker-start="none" marker-end="none"/>
     </g>
     <g id="Group_11" fill="#0a264a">
      <path d="M 160.147,22.15 C 160.578,22.523 160.829,23.048 160.829,23.628 C 160.829,25.159 159.582,25.857 158.425,25.857 L 155.338,25.857 L 155.338,17.892 L 158.371,17.892 C 160.132,17.892 161.227,18.803 161.227,20.272 C 161.227,21.111 160.829,21.783 160.147,22.15 M 158.305,22.676 L 156.78,22.676 L 156.78,24.524 L 158.315,24.524 C 158.996,24.524 159.387,24.181 159.387,23.584 C 159.387,22.793 158.709,22.676 158.305,22.676 M 156.78,21.364 L 158.23,21.364 C 158.811,21.364 159.786,21.225 159.786,20.305 C 159.786,19.744 159.604,19.224 158.283,19.224 L 156.78,19.224 Z" marker-start="none" marker-end="none"/>
     </g>
     <g id="Group_12" fill="#0a264a">
      <path d="M 134.835,24.653 C 135.565,24.653 136.132,24.367 136.616,23.754 L 136.835,23.476 L 137.912,24.425 L 137.701,24.677 C 136.966,25.554 135.996,25.997 134.813,25.997 C 132.307,25.997 131.187,23.921 131.187,21.863 C 131.187,19.816 132.307,17.751 134.813,17.751 C 135.996,17.751 136.966,18.193 137.701,19.071 L 137.912,19.321 L 136.835,20.275 L 136.616,19.995 C 136.132,19.38 135.565,19.093 134.835,19.093 C 133.327,19.093 132.652,20.49 132.652,21.875 C 132.652,23.258 133.327,24.653 134.835,24.653"/>
     </g>
     <g id="Group_13" fill="#0a264a">
      <path d="M 151.455,20.663 C 151.455,19.681 150.767,19.095 149.617,19.095 C 148.743,19.095 147.811,19.509 147.811,20.673 L 147.811,25.858 L 146.369,25.858 L 146.369,20.684 C 146.369,18.957 147.704,17.751 149.617,17.751 C 151.566,17.751 152.876,18.93 152.876,20.684 L 152.876,25.858 L 151.455,25.858 Z" marker-start="none" marker-end="none"/>
     </g>
     <g id="Group_14" fill="#0a264a">
      <path d="M 120.313,24.492 L 123.017,24.492 L 123.017,17.89 L 124.459,17.89 L 124.459,24.492 L 127.155,24.492 L 127.155,25.857 L 120.313,25.857 Z" marker-start="none" marker-end="none"/>
     </g>
     <g id="Group_15" fill="#0a264a">
      <path d="M 101.268,24.653 C 101.997,24.653 102.564,24.367 103.049,23.754 L 103.271,23.476 L 104.345,24.425 L 104.134,24.677 C 103.398,25.554 102.429,25.997 101.246,25.997 C 98.742,25.997 97.62,23.921 97.62,21.863 C 97.62,19.816 98.742,17.751 101.246,17.751 C 102.429,17.751 103.398,18.193 104.134,19.071 L 104.345,19.321 L 103.271,20.275 L 103.049,19.995 C 102.564,19.38 101.998,19.093 101.268,19.093 C 99.76,19.093 99.085,20.49 99.085,21.875 C 99.085,23.258 99.76,24.653 101.268,24.653"/>
     </g>
     <g id="Group_16" fill="#0a264a">
      <path d="M 112.414,25.282 L 112.176,25.857 L 111.032,25.857 L 107.688,22.493 L 107.688,25.857 L 106.246,25.857 L 106.246,17.89 L 107.688,17.89 L 107.688,21.408 L 110.969,17.89 L 112.188,17.89 L 112.432,18.458 L 109.098,21.966 Z" marker-start="none" marker-end="none"/>
     </g>
     <g id="Group_17" fill="#0a264a">
      <path d="M 115.63,21.331 L 118.877,21.331 L 118.877,22.676 L 115.63,22.676 L 115.63,24.492 L 119.202,24.492 L 119.202,25.857 L 114.189,25.857 L 114.189,17.892 L 119.416,17.892 L 119.416,19.256 L 115.63,19.256 Z" marker-start="none" marker-end="none"/>
     </g>
     <g id="Group_18" fill="#0a264a">
      <path d="M 79.727,59.978 C 80.176,59.978 80.493,59.812 80.789,59.42 L 80.962,59.191 L 81.786,59.993 L 81.643,60.173 C 81.148,60.793 80.566,61.069 79.76,61.069 C 78.606,61.069 77.862,60.435 77.862,59.452 C 77.862,58.294 78.789,58.007 79.533,57.778 C 80.251,57.557 80.566,57.417 80.566,57.007 C 80.566,56.703 80.244,56.511 79.727,56.511 C 79.238,56.511 78.854,56.705 78.553,57.105 L 78.387,57.325 L 77.514,56.529 L 77.675,56.343 C 78.229,55.708 78.853,55.423 79.695,55.423 C 80.887,55.423 81.72,56.114 81.72,57.105 C 81.72,58.299 80.726,58.613 80.001,58.842 C 79.324,59.057 79.025,59.187 79.025,59.528 C 79.025,59.651 79.025,59.978 79.727,59.978"/>
     </g>
     <g id="Group_19" fill="#0a264a">
      <path d="M 74.153,61.068 C 72.625,61.068 71.639,59.953 71.639,58.229 C 71.639,56.877 72.469,55.423 74.293,55.423 C 75.154,55.423 75.843,55.714 76.405,56.315 L 76.566,56.487 L 75.794,57.301 L 75.609,57.099 C 75.266,56.718 74.854,56.534 74.349,56.534 C 73.535,56.534 72.991,57.06 72.877,57.922 L 76.655,57.922 L 76.655,58.176 C 76.655,58.322 76.645,58.47 76.633,58.606 C 76.503,60.193 75.621,61.068 74.153,61.068 M 75.385,58.99 L 72.928,58.99 C 73.087,59.669 73.49,60.001 74.153,60.001 C 74.95,60.001 75.302,59.515 75.385,58.99"/>
     </g>
     <g id="Group_20" fill="#0a264a">
      <path d="M 114,59.723 C 114.52,60.083 114.842,60.684 114.842,61.345 C 114.842,62.615 113.826,63.503 112.37,63.503 C 110.917,63.503 109.9,62.615 109.9,61.345 C 109.9,60.684 110.222,60.083 110.741,59.723 C 110.043,59.336 109.641,58.646 109.641,57.787 C 109.641,56.395 110.764,55.425 112.37,55.425 C 113.977,55.425 115.1,56.395 115.1,57.787 C 115.1,58.646 114.7,59.336 114,59.723 M 111.14,61.345 C 111.14,62.008 111.603,62.402 112.382,62.402 C 113.165,62.402 113.635,62.008 113.635,61.345 C 113.635,59.866 111.14,59.852 111.14,61.345 M 113.839,57.797 C 113.839,57 113.285,56.523 112.36,56.523 C 111.428,56.523 110.87,57 110.87,57.797 C 110.87,58.894 111.686,59.124 112.37,59.124 C 113.04,59.124 113.839,58.894 113.839,57.797"/>
     </g>
     <g id="Group_21" fill="#0a264a">
      <path d="M 101.763,59.723 C 102.283,60.083 102.605,60.684 102.605,61.345 C 102.605,62.615 101.589,63.503 100.134,63.503 C 98.68,63.503 97.664,62.615 97.664,61.345 C 97.664,60.684 97.986,60.083 98.503,59.723 C 97.806,59.336 97.405,58.646 97.405,57.787 C 97.405,56.395 98.527,55.425 100.134,55.425 C 101.742,55.425 102.864,56.395 102.864,57.787 C 102.864,58.646 102.461,59.336 101.763,59.723 M 98.903,61.345 C 98.903,62.008 99.368,62.402 100.146,62.402 C 100.928,62.402 101.397,62.008 101.397,61.345 C 101.397,59.866 98.903,59.852 98.903,61.345 M 101.603,57.797 C 101.603,57 101.049,56.523 100.123,56.523 C 99.191,56.523 98.632,57 98.632,57.797 C 98.632,58.894 99.45,59.124 100.134,59.124 C 100.804,59.124 101.603,58.894 101.603,57.797"/>
     </g>
     <g id="Group_22" fill="#0a264a">
      <path d="M 103.819,62.154 L 107.363,62.154 L 106.619,60.761 C 105.778,59.175 105.377,58.145 105.377,56.585 L 105.377,55.564 L 106.595,55.564 L 106.595,56.595 C 106.595,57.836 106.738,58.65 107.583,60.197 L 108.815,62.457 L 108.845,63.361 L 103.819,63.361 Z" marker-start="none" marker-end="none"/>
     </g>
     <g id="Group_23" fill="#0a264a">
      <path d="M 88.36,57.117 C 87.92,57.117 87.588,56.781 87.588,56.333 C 87.588,55.894 87.92,55.564 88.36,55.564 C 88.806,55.564 89.141,55.894 89.141,56.333 C 89.141,56.781 88.806,57.117 88.36,57.117"/>
     </g>
     <g id="Group_24" fill="#0a264a">
      <path d="M 85.889,56.583 C 85.794,56.565 85.67,56.544 85.538,56.544 C 85.085,56.544 84.62,56.687 84.62,57.732 L 84.62,59.839 L 86.082,59.839 L 86.082,60.927 L 84.62,60.927 L 84.62,62.67 L 83.434,62.67 L 83.434,60.927 L 82.558,60.927 L 82.558,59.839 L 83.434,59.839 L 83.434,57.709 C 83.434,56.237 84.129,55.423 85.386,55.423 C 85.634,55.423 85.908,55.449 86.067,55.47 L 86.323,55.502 L 86.145,56.633 Z" marker-start="none" marker-end="none"/>
     </g>
     <g id="Group_25" fill="#0a264a">
      <path d="M 92.909,61.467 L 94.188,61.921 L 94.188,55.565 L 95.418,55.565 L 95.418,63.575 L 92.542,62.55 Z" marker-start="none" marker-end="none"/>
     </g>
     <path d="M 8.88,59.191 L 62.081,59.191 L 62.081,59.809 L 8.88,59.809 Z" fill="#851c48" marker-start="none" marker-end="none"/>
     <path d="M 123.204,59.191 L 176.405,59.191 L 176.405,59.809 L 123.204,59.809 Z" fill="#851c48" marker-start="none" marker-end="none"/>
     <path d="M 8.88,10.751 L 176.405,10.751 L 176.405,11.37 L 8.88,11.37 Z" fill="#851c48" marker-start="none" marker-end="none"/>
     <g id="Group_26" fill="#851c48">
      <path d="M 127.779,80.953 L 121.127,83.605 L 121.658,76.277 L 122.477,75.025 L 129.66,71.891 L 128.792,79.652 Z M 56.895,79.974 L 56.075,72.408 L 63.112,75.494 L 63.932,76.939 L 64.414,83.927 L 58.004,81.373 Z M 46.965,137.273 L 42.386,142.721 L 40.939,143.155 L 33.419,141.516 L 38.673,135.635 L 40.119,135.539 Z M 96.459,177.63 C 96.484,177.775 96.484,178.811 96.484,178.907 C 96.484,179.004 92.7,185.415 92.604,185.391 C 92.508,185.367 88.795,178.715 88.771,178.643 C 88.747,178.571 88.78,177.324 88.78,177.324 C 88.78,177.324 92.628,171.243 92.7,171.339 C 92.772,171.435 96.436,177.486 96.459,177.63 M 104.364,123.557 C 104.364,130.255 98.932,135.687 92.232,135.687 C 85.533,135.687 80.102,130.255 80.102,123.557 C 80.102,116.857 85.533,111.425 92.232,111.425 C 98.932,111.425 104.364,116.857 104.364,123.557 M 133.335,151.481 C 133.335,151.481 128.476,153.429 127.133,154.026 C 125.788,154.624 121.72,156.055 120.89,156.455 C 120.061,156.853 118.598,157.608 117.215,158.681 C 115.833,159.756 112.829,164.371 112.158,165.365 C 111.486,166.36 108.127,170.179 108.127,170.179 C 108.127,170.179 109.828,169.542 110.498,169.144 C 111.17,168.746 112.672,167.553 113.58,166.559 C 114.488,165.565 116.188,163.494 117.018,162.54 C 117.846,161.587 119.943,160.075 121.088,159.318 C 122.234,158.561 124.408,157.688 126.461,156.733 C 128.516,155.778 130.729,154.546 131.637,153.668 C 132.545,152.795 133.335,151.481 133.335,151.481 M 111.854,147.662 L 109.547,146.726 L 110.11,149.156 L 112.421,150.093 Z M 108.251,141.341 C 108.894,141.792 111.336,142.498 112.847,140.957 C 114.356,139.415 114.871,137.068 115.289,135.429 C 115.707,133.791 117.281,128.681 118.051,126.625 C 118.823,124.57 119.884,122.254 119.595,121.132 C 119.307,120.005 118.405,118.687 117.537,118.238 C 116.671,117.789 116.124,117.338 114.742,117.981 C 113.361,118.624 110.855,119.942 109.28,120.005 C 107.704,120.07 106.58,119.491 106.388,118.462 C 106.196,117.434 106.516,116.247 107.447,115.508 C 108.379,114.767 111.399,114.253 112.138,114.093 C 112.879,113.933 114.485,113.482 115.16,111.876 C 115.836,110.27 115.836,109.241 115.514,108.727 C 115.191,108.213 114.55,106.993 112.493,105.932 C 110.437,104.871 109.536,104.454 108.67,103.907 C 107.8,103.36 104.139,100.63 102.661,99.536 C 101.183,98.445 99.608,96.933 98.322,96.774 C 97.038,96.612 95.912,97.03 95.27,97.802 C 94.623,98.577 94.123,99.598 94.049,100.341 C 93.984,100.983 94.113,101.818 94.177,102.171 C 94.24,102.524 94.756,105.899 93.921,107.378 C 93.084,108.856 92.346,108.823 91.799,108.856 C 91.252,108.888 90,108.47 89.742,106.894 C 89.484,105.322 89.613,104.228 89.678,103.457 C 89.742,102.685 90,101.432 89.711,100.341 C 89.421,99.247 89.133,97.608 87.365,97.286 C 85.598,96.966 84.183,97.673 83.669,97.994 C 83.155,98.316 81.388,100.373 80.166,101.401 C 78.946,102.428 76.278,104.421 74.737,105.352 C 73.193,106.284 71.008,107.344 70.044,108.438 C 69.079,109.529 68.502,111.041 69.079,112.743 C 69.659,114.447 70.398,115.057 71.618,115.345 C 72.84,115.634 75.154,115.634 76.567,116.503 C 77.982,117.371 78.577,118.546 78.367,119.491 C 78.108,120.648 77.274,121.066 76.631,121.162 C 75.99,121.258 74.96,121.291 73.323,120.552 C 71.683,119.813 70.43,118.785 69.016,118.817 C 67.602,118.848 65.785,120.571 65.673,120.776 C 65.257,121.548 65.031,122.737 65.545,124.311 C 66.059,125.886 67.698,130.03 68.373,132.022 C 69.049,134.016 69.948,137.423 70.398,138.61 C 70.848,139.799 71.907,141.953 74.06,142.273 C 76.215,142.594 76.774,141.807 77.146,141.407 C 77.564,140.957 78.303,139.221 78.655,138.45 C 79.009,137.678 80.102,135.911 81.002,135.494 C 81.902,135.076 83.059,134.852 83.861,135.365 C 84.441,135.737 85.147,136.586 84.795,137.774 C 84.441,138.964 83.508,140.281 82.543,141.214 C 81.581,142.145 79.941,143.302 80.198,145.198 C 80.455,147.093 82.287,148.442 83.508,148.925 C 84.73,149.408 87.717,149.085 89.293,148.861 C 90.096,148.745 91.634,148.545 93.245,148.571 C 94.789,148.598 96.4,148.847 97.485,148.989 C 99.704,149.279 101.504,149.15 102.307,148.829 C 103.111,148.507 104.974,146.902 104.974,145.487 C 104.974,144.073 104.974,143.238 104.46,142.563 C 103.945,141.888 102.466,140.698 101.727,139.831 C 100.989,138.964 99.928,137.615 100.444,136.36 C 100.958,135.109 102.499,134.497 103.59,135.14 C 104.684,135.783 105.682,136.811 106.196,137.774 C 106.709,138.739 107.609,140.893 108.251,141.341 M 76.281,148.651 L 76.524,146.173 L 74.355,147.405 L 74.113,149.886 Z M 77.766,169.401 C 77.766,169.401 74.481,165.323 73.517,164.212 C 72.553,163.102 69.995,159.63 69.371,158.953 C 68.749,158.275 67.598,157.098 66.167,156.09 C 64.734,155.081 59.443,153.558 58.296,153.207 C 57.148,152.855 52.513,150.761 52.513,150.761 C 52.513,150.761 53.621,152.199 54.197,152.725 C 54.774,153.252 56.355,154.339 57.572,154.916 C 58.789,155.495 61.264,156.514 62.419,157.028 C 63.574,157.544 65.633,159.105 66.69,159.979 C 67.748,160.853 69.22,162.676 70.733,164.36 C 72.247,166.047 74.074,167.802 75.176,168.415 C 76.28,169.029 77.766,169.401 77.766,169.401 M 65.636,114.868 L 63.737,113.252 L 61.322,113.873 L 63.224,115.489 Z M 91.824,89.708 L 90.676,91.925 L 91.824,94.136 L 92.971,91.923 Z M 77.303,76.551 C 77.303,76.551 82.392,77.789 83.832,78.083 C 85.271,78.377 89.418,79.573 90.322,79.731 C 91.231,79.889 92.86,80.124 94.609,80.051 C 96.358,79.982 101.483,77.967 102.607,77.548 C 103.731,77.128 108.683,75.971 108.683,75.971 C 108.683,75.971 106.93,75.501 106.153,75.436 C 105.375,75.369 103.458,75.469 102.141,75.751 C 100.825,76.032 98.239,76.73 97.01,77.026 C 95.78,77.321 93.197,77.335 91.826,77.285 C 90.454,77.236 88.177,76.686 85.949,76.269 C 83.722,75.854 81.204,75.573 79.956,75.758 C 78.709,75.943 77.303,76.551 77.303,76.551 M 119.391,113.964 L 121.854,114.351 L 123.59,112.56 L 121.124,112.176 Z M 53.323,94.121 C 53.323,94.121 52.335,95.642 52.032,96.36 C 51.728,97.081 51.232,98.933 51.092,100.274 C 50.952,101.612 50.817,104.286 50.719,105.548 C 50.619,106.809 49.835,109.268 49.363,110.559 C 48.892,111.848 47.666,113.843 46.581,115.833 C 45.497,117.824 44.454,120.13 44.243,121.375 C 44.034,122.619 44.178,124.144 44.178,124.144 C 44.178,124.144 46.926,119.687 47.651,118.408 C 48.375,117.13 50.796,113.557 51.226,112.743 C 51.656,111.93 52.381,110.453 52.855,108.766 C 53.327,107.08 52.996,101.587 52.945,100.386 C 52.894,99.187 53.323,94.121 53.323,94.121 M 131.754,93.03 C 131.754,93.03 132.197,98.247 132.376,99.706 C 132.553,101.167 132.732,105.477 132.872,106.386 C 133.008,107.296 133.305,108.916 133.927,110.551 C 134.549,112.188 138.083,116.409 138.839,117.341 C 139.593,118.274 142.264,122.604 142.264,122.604 C 142.264,122.604 142.153,120.792 141.969,120.034 C 141.784,119.275 141.081,117.491 140.396,116.331 C 139.711,115.172 138.229,112.942 137.559,111.869 C 136.889,110.797 136.056,108.351 135.669,107.035 C 135.279,105.717 135.077,103.384 134.765,101.139 C 134.453,98.896 133.921,96.419 133.35,95.294 C 132.779,94.17 131.754,93.03 131.754,93.03 M 141.204,144.402 C 142.096,148.162 141.399,151.175 140.314,152.5 C 139.229,153.826 138.215,155.079 136.579,156.355 C 134.939,157.632 131.132,159.85 129.517,160.718 C 127.9,161.585 124.045,164.092 122.166,165.66 C 120.286,167.225 115.971,171.42 113.755,173.081 C 111.537,174.746 107.778,176.913 103.752,176.746 C 99.728,176.576 97.413,173.956 96.932,173.493 C 96.208,172.793 94.644,170.672 94.258,168.455 C 93.873,166.237 94.041,163.731 94.33,161.947 C 94.618,160.164 95.102,158.693 94.979,157.367 C 94.859,156.042 94.644,155.127 94.402,154.765 C 94.161,154.404 93.51,153.786 92.98,153.802 C 92.449,153.817 90.979,154.018 90.641,156.235 C 90.306,158.452 90.737,160.816 90.997,162.517 C 91.252,164.221 91.637,167.178 90.514,170.39 C 89.388,173.604 86.626,175.66 84.536,176.142 C 82.449,176.624 79.043,177.075 75.122,175.113 C 71.201,173.154 68.051,170.006 66.155,168.141 C 64.261,166.278 62.911,165.122 62.911,165.122 C 61.673,164.043 59.069,162.021 57.529,160.96 C 55.986,159.898 52.5,157.955 50.571,156.766 C 48.643,155.577 44.98,153.231 44.532,148.798 C 44.081,144.363 45.623,141.953 46.683,140.635 C 47.744,139.317 49.8,138.127 52.596,137.356 C 55.391,136.586 56.838,136.618 58.476,136.233 C 60.115,135.846 62.01,135.173 62.557,134.595 C 63.103,134.016 63.392,133.599 63.263,132.859 C 63.136,132.12 62.88,131.645 62.349,131.414 C 61.907,131.219 61.408,131.071 60.468,131.243 C 59.473,131.429 57.368,132.185 56.42,132.682 C 55.472,133.181 53.978,134.514 51.52,134.996 C 49.061,135.477 47.053,135.543 45.415,135.14 C 43.775,134.739 40.753,133.085 39.373,130.915 C 37.991,128.746 37.204,127.091 37.186,124.44 C 37.173,121.79 37.862,119.523 38.25,118.27 C 38.634,117.016 40.529,112.165 41.348,109.788 C 42.17,107.411 43.793,103.136 44.305,101.432 C 44.82,99.73 45.881,96.355 46.266,94.747 C 46.651,93.142 47.486,90.57 47.937,89.381 C 48.386,88.193 49.672,86.04 51.376,84.883 C 53.077,83.726 56.034,83.372 58.444,83.759 C 60.853,84.144 62.716,84.755 63.972,86.04 C 65.224,87.326 66.349,88.997 67.088,90.474 C 67.829,91.952 69.506,95.39 70.374,96.419 C 71.24,97.447 72.301,97.988 73.169,97.865 C 74.038,97.744 74.688,97.408 74.855,96.804 C 75.025,96.203 75.107,95.258 74.664,94.347 C 73.868,92.708 72.301,91.407 70.951,89.912 C 69.602,88.418 68.229,86.563 67.554,85.285 C 66.879,84.008 65.963,82.199 65.795,80.273 C 65.625,78.345 65.865,76.514 66.807,75.067 C 67.746,73.621 68.734,72.512 70.591,71.548 C 72.445,70.584 74.422,70.03 77.05,69.79 C 79.677,69.548 82.135,69.886 83.556,70.102 C 84.979,70.319 89.87,70.849 93.678,70.777 C 97.485,70.705 99.897,70.584 101.631,70.319 C 103.367,70.054 105.994,69.187 108.863,69.283 C 111.729,69.379 114.718,70.512 116.599,72.152 C 118.222,73.567 119.755,75.043 119.899,78.007 C 120.043,80.97 118.454,83.984 117.756,85.141 C 117.056,86.298 116.02,87.792 115.539,88.418 C 115.056,89.045 113.321,90.756 112.526,91.695 C 111.729,92.636 110.428,93.865 110.115,94.948 C 109.803,96.033 110.382,96.974 111.248,97.142 C 112.116,97.312 113.079,97.216 114.189,96.131 C 115.298,95.046 115.755,94.371 116.284,93.527 C 116.815,92.684 117.345,91.454 117.828,90.612 C 118.309,89.768 120.043,87.334 120.984,86.418 C 121.924,85.502 123.732,84.177 126.046,83.524 C 128.36,82.876 130.842,82.755 133.154,83.84 C 135.469,84.922 137.156,87.261 137.88,89.381 C 138.601,91.502 139.566,95.865 140.192,98.613 C 140.819,101.36 142.048,105.746 142.796,108.156 C 143.542,110.566 144.699,112.758 145.351,113.867 C 146,114.976 147.592,118.881 148.048,121.075 C 148.506,123.266 149.157,127.485 147.952,130.087 C 146.612,132.983 143.301,134.523 141.204,135.1 C 139.109,135.678 137.35,135.438 135.853,135.149 C 134.36,134.858 132.433,133.872 131.493,133.388 C 130.552,132.907 128.77,131.871 127.78,131.366 C 126.791,130.858 125.733,130.426 124.841,130.545 C 123.949,130.666 122.961,131.606 122.768,132.52 C 122.575,133.438 122.937,134.569 124.189,135.1 C 125.442,135.63 128.528,136.353 130.336,136.666 C 132.142,136.981 134.456,137.558 136.168,138.33 C 137.88,139.1 140.314,140.642 141.204,144.402 M 153.319,142.121 C 153.247,142.171 145.824,143.64 145.68,143.64 C 145.534,143.64 144.209,143.206 144.209,143.206 L 139.413,137.591 C 139.413,137.591 146.571,135.928 146.667,135.904 C 146.763,135.88 147.896,136.072 148.042,136.122 C 148.186,136.17 153.391,142.075 153.319,142.121"/>
     </g>
    </g>
   </g>
  </g>
 </g>
</svg>
