<?xml version="1.0" standalone="no"?>
<!DOCTYPE svg PUBLIC "-//W3C//DTD SVG 1.1//EN" "http://www.w3.org/Graphics/SVG/1.1/DTD/svg11.dtd">
<!--Generator: Xara Designer (www.xara.com), SVG filter version: 4.0.0.1-->
<svg stroke-width="0.501" stroke-linejoin="bevel" fill-rule="evenodd" xmlns:xlink="http://www.w3.org/1999/xlink" xmlns="http://www.w3.org/2000/svg" version="1.1" overflow="visible" width="232.5pt" height="120pt" viewBox="0 0 232.5 120">
 <defs>
  <marker id="DefaultArrow2" markerUnits="strokeWidth" viewBox="0 0 1 1" markerWidth="1" markerHeight="1" overflow="visible" orient="auto">
   <!-- REF_ARROW_STRAIGHT (-2) -->
   <g transform="scale(0.0092592592)">
    <!-- 1/108 -->
    <path d="M -9 54 L -9 -54 L 117 0 z"/>
   </g>
  </marker>
  <marker id="DefaultArrow3" markerUnits="strokeWidth" viewBox="0 0 1 1" markerWidth="1" markerHeight="1" overflow="visible" orient="auto">
   <!-- REF_ARROW_ANGLED -->
   <g transform="scale(0.0092592592)">
    <path d="M -27 54 L -9 0 L -27 -54 L 135 0 z"/>
   </g>
  </marker>
  <marker id="DefaultArrow4" markerUnits="strokeWidth" viewBox="0 0 1 1" markerWidth="1" markerHeight="1" overflow="visible" orient="auto">
   <!-- REF_ARROW_ROUNDED -->
   <g transform="scale(0.0092592592)">
    <path d="M -9,0 L -9,-45 C -9,-51.708 2.808,-56.580 9,-54 L 117,-9 C 120.916,-7.369 126.000,-4.242 126,0 C 126,4.242 120.916,7.369 117,9 L 9,54 C 2.808,56.580 -9,51.708 -9,45 z"/>
   </g>
  </marker>
  <marker id="DefaultArrow5" markerUnits="strokeWidth" viewBox="0 0 1 1" markerWidth="1" markerHeight="1" overflow="visible" orient="auto">
   <!-- REF_ARROW_SPOT -->
   <g transform="scale(0.0092592592)">
    <path d="M -54, 0 C -54,29.807 -29.807,54 0,54 C 29.807,54 54,29.807 54,0 C 54,-29.807 29.807,-54 0,-54 C -29.807,-54 -54,-29.807 -54,0 z"/>
   </g>
  </marker>
  <marker id="DefaultArrow6" markerUnits="strokeWidth" viewBox="0 0 1 1" markerWidth="1" markerHeight="1" overflow="visible" orient="auto">
   <!-- REF_ARROW_DIAMOND -->
   <g transform="scale(0.0092592592)">
    <path d="M -63,0 L 0,63 L 63,0 L 0,-63 z"/>
   </g>
  </marker>
  <marker id="DefaultArrow7" markerUnits="strokeWidth" viewBox="0 0 1 1" markerWidth="1" markerHeight="1" overflow="visible" orient="auto">
   <!-- REF_ARROW_FEATHER -->
   <g transform="scale(0.0092592592)">
    <path d="M 18,-54 L 108,-54 L 63,0 L 108,54 L 18, 54 L -36,0 z"/>
   </g>
  </marker>
  <marker id="DefaultArrow8" markerUnits="strokeWidth" viewBox="0 0 1 1" markerWidth="1" markerHeight="1" overflow="visible" orient="auto">
   <!-- REF_ARROW_FEATHER2 -->
   <g transform="scale(0.0092592592)">
    <path d="M -36,0 L 18,-54 L 54,-54 L 18,-18 L 27,-18 L 63,-54 L 99,-54 L 63,-18 L 72,-18 L 108,-54 L 144,-54 L 90,0 L 144,54 L 108,54 L 72,18 L 63,18 L 99,54 L 63,54 L 27,18 L 18,18 L 54,54 L 18,54 z"/>
   </g>
  </marker>
  <marker id="DefaultArrow9" markerUnits="strokeWidth" viewBox="0 0 1 1" markerWidth="1" markerHeight="1" overflow="visible" orient="auto">
   <!-- REF_ARROW_HOLLOWDIAMOND -->
   <g transform="scale(0.0092592592)">
    <path d="M 0,45 L -45,0 L 0, -45 L 45, 0 z M 0, 63 L-63, 0 L 0, -63 L 63, 0 z"/>
   </g>
  </marker>
  <filter id="StainedFilter">
   <feBlend mode="multiply" in2="BackgroundImage" in="SourceGraphic" result="blend"/>
   <feComposite in="blend" in2="SourceAlpha" operator="in" result="comp"/>
  </filter>
  <filter id="BleachFilter">
   <feBlend mode="screen" in2="BackgroundImage" in="SourceGraphic" result="blend"/>
   <feComposite in="blend" in2="SourceAlpha" operator="in" result="comp"/>
  </filter>
  <filter id="InvertTransparencyBitmapFilter">
   <feComponentTransfer>
    <feFuncR type="gamma" amplitude="1.055" exponent=".416666666" offset="-0.055"/>
    <feFuncG type="gamma" amplitude="1.055" exponent=".416666666" offset="-0.055"/>
    <feFuncB type="gamma" amplitude="1.055" exponent=".416666666" offset="-0.055"/>
   </feComponentTransfer>
   <feComponentTransfer>
    <feFuncR type="linear" slope="-1" intercept="1"/>
    <feFuncG type="linear" slope="-1" intercept="1"/>
    <feFuncB type="linear" slope="-1" intercept="1"/>
    <feFuncA type="linear" slope="1" intercept="0"/>
   </feComponentTransfer>
   <feComponentTransfer>
    <feFuncR type="gamma" amplitude="1" exponent="2.4" offset="0"/>
    <feFuncG type="gamma" amplitude="1" exponent="2.4" offset="0"/>
    <feFuncB type="gamma" amplitude="1" exponent="2.4" offset="0"/>
   </feComponentTransfer>
  </filter>
 </defs>
 <g id="Document" fill="none" stroke="black" font-family="Times New Roman" font-size="16" transform="scale(1 -1)">
  <g id="Spread" transform="translate(0 -120)">
   <g id="SVG Document">
    <g id="Group" fill-rule="nonzero" stroke-linejoin="miter" stroke="none" stroke-width="1" fill="#005400" stroke-miterlimit="79.8403193612775">
     <path d="M 19.342,37.454 L 19.342,29.089 L 12.02,37.454 L 9.86,37.454 L 9.86,24.4 L 12.563,24.4 L 12.563,32.703 L 19.774,24.4 L 22.041,24.4 L 22.041,24.941 L 22.041,37.454 Z" marker-start="none" marker-end="none"/>
     <path d="M 58.713,34.827 L 58.713,35.372 L 58.713,37.458 L 48.903,37.458 L 48.903,34.827 L 51.764,34.827 L 51.764,24.4 L 54.571,24.4 L 54.571,34.827 Z" marker-start="none" marker-end="none"/>
     <path d="M 47.752,37.458 L 47.237,37.458 L 37.341,37.458 L 37.341,34.827 L 41.482,34.827 L 41.482,24.4 L 44.29,24.4 L 44.29,34.827 L 47.237,34.827 L 47.752,34.827 Z" marker-start="none" marker-end="none"/>
     <path d="M 59.993,37.454 L 59.993,24.4 L 62.797,24.4 L 62.797,24.941 L 62.797,37.454 Z" marker-start="none" marker-end="none"/>
     <path d="M 74.644,24.4 L 67.429,32.706 L 67.429,24.4 L 64.729,24.4 L 64.729,37.458 L 66.889,37.458 L 74.211,29.092 L 74.211,37.458 L 76.911,37.458 L 76.911,24.945 L 76.911,24.4 Z" marker-start="none" marker-end="none"/>
     <path d="M 84.966,24.243 C 83.006,24.239 81.271,24.928 80.029,26.115 C 78.788,27.291 78.049,28.963 78.049,30.857 C 78.056,34.685 81.097,37.61 85.018,37.615 C 86.488,37.622 87.6,37.357 89.494,36.557 L 89.826,36.417 L 89.826,33.401 L 89.023,33.841 C 87.689,34.575 86.32,34.951 84.983,34.951 C 82.669,34.942 80.92,33.218 80.911,30.911 C 80.933,28.539 82.609,26.937 85.213,26.907 C 85.924,26.907 86.595,27.044 87.268,27.24 L 87.268,28.754 L 84.966,28.754 L 84.966,31.385 L 90.073,31.385 L 90.073,25.767 L 90.073,25.415 L 89.747,25.269 C 88.116,24.55 86.716,24.243 85.007,24.243 Z" marker-start="none" marker-end="none"/>
     <path d="M 100.639,24.4 L 100.639,29.614 L 95.02,29.614 L 95.02,24.4 L 92.213,24.4 L 92.213,37.458 L 95.02,37.458 L 95.02,32.244 L 100.639,32.244 L 100.639,37.458 L 103.446,37.458 L 103.446,24.945 L 103.446,24.4 Z" marker-start="none" marker-end="none"/>
     <path d="M 112.138,30.559 L 110.064,30.559 L 111.062,32.974 Z M 117.863,24.4 L 117.524,25.166 L 112.026,37.527 L 110.105,37.527 L 104.496,24.4 L 107.432,24.4 L 108.941,27.929 L 113.323,27.929 L 114.922,24.4 Z" marker-start="none" marker-end="none"/>
     <path d="M 128.296,24.4 L 128.296,32.753 L 125.379,29.086 L 125.119,29.086 L 124.576,29.086 L 121.66,32.753 L 121.66,24.4 L 118.853,24.4 L 118.853,37.458 L 121.272,37.458 L 124.977,32.864 L 128.7,37.458 L 131.104,37.458 L 131.104,24.945 L 131.104,24.4 Z" marker-start="none" marker-end="none"/>
     <path d="M 133.348,25.456 L 133.133,25.621 L 133.133,29.642 L 134.104,28.399 C 134.91,27.375 135.855,26.873 136.836,26.873 C 137.929,26.888 138.23,27.499 138.242,27.837 C 138.3,28.622 137.272,29.294 135.913,30.091 C 134.629,30.876 133.073,31.894 133.064,33.879 C 133.058,34.985 133.485,35.96 134.24,36.617 C 134.996,37.274 136.042,37.615 137.24,37.615 C 138.264,37.615 139.286,37.3 140.206,36.683 L 140.449,36.522 L 140.449,34.281 L 140.449,33.019 L 139.532,33.888 C 138.6,34.768 137.778,34.979 137.098,34.985 C 136.153,34.96 135.748,34.552 135.745,34.107 C 135.748,33.755 135.915,33.496 136.346,33.152 C 136.769,32.817 137.401,32.491 138.066,32.105 C 139.371,31.359 140.93,30.23 140.924,28.034 C 140.921,25.864 139.223,24.245 137.029,24.243 L 136.993,24.243 C 135.612,24.243 134.417,24.644 133.348,25.456"/>
     <path d="M 150.88,24.4 L 150.88,29.614 L 145.258,29.614 L 145.258,24.4 L 142.454,24.4 L 142.454,37.458 L 145.258,37.458 L 145.258,32.244 L 150.88,32.244 L 150.88,37.458 L 153.686,37.458 L 153.686,24.945 L 153.686,24.4 Z" marker-start="none" marker-end="none"/>
     <path d="M 155.65,24.4 L 155.65,37.458 L 158.458,37.458 L 158.458,24.945 L 158.458,24.4 Z" marker-start="none" marker-end="none"/>
     <path d="M 171.734,24.4 L 171.734,37.458 L 179.612,37.458 L 179.612,35.372 L 179.612,34.827 L 174.541,34.827 L 174.541,32.298 L 179.438,32.298 L 179.438,29.668 L 174.541,29.668 L 174.541,27.031 L 179.769,27.031 L 179.769,24.4 Z" marker-start="none" marker-end="none"/>
     <path d="M 165.616,33.585 C 165.543,32.817 165.426,32.298 163.808,32.225 L 163.245,32.225 L 163.245,34.897 L 163.808,34.897 C 164.572,34.897 165.025,34.736 165.255,34.537 C 165.486,34.341 165.603,34.084 165.616,33.622 C 165.616,33.594 165.616,33.585 165.616,33.585 M 171.298,24.397 L 170.671,25.261 C 169.843,26.405 169.561,26.787 169.061,27.596 C 168.338,28.773 167.75,29.769 166.921,30.535 C 167.911,31.201 168.49,32.289 168.477,33.56 C 168.48,34.726 168.035,35.745 167.228,36.428 C 166.422,37.11 165.306,37.458 164.001,37.454 L 160.437,37.454 L 160.437,24.397 L 163.245,24.397 L 163.245,29.595 L 163.422,29.595 C 164.089,29.569 164.527,29.551 166.141,27.104 L 167.882,24.397 Z" marker-start="none" marker-end="none"/>
     <path d="M 34.539,30.93 C 34.524,28.603 32.826,26.927 30.413,26.907 C 28.017,26.924 26.317,28.603 26.304,30.93 C 26.319,33.275 28.013,34.932 30.413,34.951 C 32.828,34.932 34.524,33.275 34.539,30.93 M 37.397,30.93 C 37.397,32.731 36.72,34.414 35.497,35.637 C 34.322,36.819 32.633,37.559 30.625,37.607 L 30.625,37.615 L 30.43,37.615 C 30.423,37.615 30.42,37.615 30.413,37.615 C 30.407,37.615 30.4,37.615 30.398,37.615 L 30.36,37.615 L 30.36,37.613 C 26.231,37.581 23.451,34.515 23.445,30.93 C 23.451,27.405 26.177,24.249 30.379,24.243 L 30.391,24.243 C 32.541,24.243 34.312,25.03 35.526,26.265 C 36.74,27.506 37.397,29.181 37.397,30.93"/>
     <path d="M 55.504,18.223 C 54.41,18.681 53.575,18.88 52.754,18.88 C 50.206,18.88 48.362,17.094 48.362,14.651 C 48.362,12.968 49.674,10.657 52.684,10.657 C 53.942,10.657 54.798,10.948 55.586,11.358 L 55.586,12.618 C 54.682,12.03 53.695,11.713 52.788,11.713 C 50.863,11.713 49.545,12.959 49.545,14.754 C 49.545,16.519 50.91,17.824 52.741,17.824 C 53.671,17.824 54.517,17.565 55.504,16.989 Z" marker-start="none" marker-end="none"/>
     <path d="M 64.188,14.767 C 64.188,13.016 62.861,11.71 61.062,11.71 C 59.276,11.71 57.947,13.016 57.947,14.767 C 57.947,16.532 59.276,17.824 61.062,17.824 C 62.861,17.824 64.188,16.532 64.188,14.767 M 65.375,14.767 C 65.375,17 63.705,18.88 61.062,18.88 C 58.463,18.88 56.762,16.989 56.762,14.767 C 56.762,12.592 58.419,10.654 61.04,10.654 C 63.752,10.654 65.375,12.605 65.375,14.767"/>
     <path d="M 73.636,18.776 L 72.485,18.776 L 72.485,14.11 C 72.485,13.361 72.39,12.773 71.979,12.361 C 71.616,11.994 70.98,11.713 70.098,11.713 C 69.405,11.713 68.829,11.938 68.372,12.395 C 68.007,12.76 67.887,13.136 67.887,14.04 L 67.887,18.776 L 66.74,18.776 L 66.74,13.793 C 66.74,11.609 68.385,10.657 70.076,10.657 C 72.463,10.657 73.636,11.95 73.636,13.911 Z" marker-start="none" marker-end="none"/>
     <path d="M 82.753,18.776 L 81.675,18.776 L 81.675,12.573 L 76.244,18.776 L 75.327,18.776 L 75.327,10.765 L 76.409,10.765 L 76.409,16.933 L 81.767,10.765 L 82.753,10.765 Z" marker-start="none" marker-end="none"/>
     <path d="M 90.391,18.776 L 83.696,18.776 L 83.696,17.742 L 86.469,17.742 L 86.469,10.765 L 87.62,10.765 L 87.62,17.742 L 90.391,17.742 Z" marker-start="none" marker-end="none"/>
     <path d="M 94.483,16.013 L 92.334,18.773 L 90.945,18.773 L 93.92,15.001 L 93.92,10.761 L 95.071,10.761 L 95.071,14.992 L 98.043,18.773 L 96.655,18.773 Z" marker-start="none" marker-end="none"/>
     <path d="M 108.078,18.223 C 106.984,18.681 106.149,18.88 105.328,18.88 C 102.78,18.88 100.936,17.094 100.936,14.651 C 100.936,12.968 102.248,10.657 105.258,10.657 C 106.516,10.657 107.372,10.948 108.16,11.358 L 108.16,12.618 C 107.256,12.03 106.269,11.713 105.362,11.713 C 103.437,11.713 102.119,12.959 102.119,14.754 C 102.119,16.519 103.484,17.824 105.315,17.824 C 106.245,17.824 107.091,17.565 108.078,16.989 Z" marker-start="none" marker-end="none"/>
     <path d="M 111.84,15.274 L 111.101,15.274 L 111.101,17.79 L 111.84,17.79 C 112.956,17.79 113.405,17.331 113.415,16.579 C 113.428,15.909 113.074,15.274 111.84,15.274 M 113.263,14.568 C 114.119,14.909 114.6,15.602 114.6,16.532 C 114.6,17.919 113.591,18.776 111.97,18.776 L 109.95,18.776 L 109.95,10.761 L 111.101,10.761 L 111.101,14.239 L 111.581,14.239 C 112.17,14.239 112.653,14.052 113.709,12.408 L 114.765,10.761 L 116.14,10.761 C 115.587,11.526 115.388,11.796 115.046,12.348 C 114.436,13.348 113.99,14.087 113.263,14.568"/>
     <path d="M 118.537,18.776 L 117.386,18.776 L 117.386,10.765 L 118.537,10.765 Z" marker-start="none" marker-end="none"/>
     <path d="M 127.256,18.223 C 126.162,18.681 125.331,18.88 124.505,18.88 C 121.957,18.88 120.115,17.094 120.115,14.651 C 120.115,12.968 121.426,10.657 124.436,10.657 C 125.694,10.657 126.551,10.948 127.339,11.358 L 127.339,12.618 C 126.435,12.03 125.448,11.713 124.54,11.713 C 122.614,11.713 121.3,12.959 121.3,14.754 C 121.3,16.519 122.663,17.824 124.496,17.824 C 125.422,17.824 126.27,17.565 127.256,16.989 Z" marker-start="none" marker-end="none"/>
     <path d="M 131.568,14.979 L 135.059,18.773 L 133.624,18.773 L 130.254,15.109 L 130.254,18.773 L 129.103,18.773 L 129.103,10.761 L 130.254,10.761 L 130.254,14.72 L 134.329,10.761 L 135.915,10.761 Z" marker-start="none" marker-end="none"/>
     <path d="M 141.473,18.776 L 136.928,18.776 L 136.928,10.765 L 141.581,10.765 L 141.581,11.796 L 138.079,11.796 L 138.079,14.29 L 141.357,14.29 L 141.357,15.321 L 138.079,15.321 L 138.079,17.742 L 141.473,17.742 Z" marker-start="none" marker-end="none"/>
     <path d="M 149.172,18.776 L 142.476,18.776 L 142.476,17.742 L 145.249,17.742 L 145.249,10.765 L 146.4,10.765 L 146.4,17.742 L 149.172,17.742 Z" marker-start="none" marker-end="none"/>
     <path d="M 159.169,18.223 C 158.076,18.681 157.243,18.88 156.419,18.88 C 153.871,18.88 152.027,17.094 152.027,14.651 C 152.027,12.968 153.339,10.657 156.35,10.657 C 157.608,10.657 158.464,10.948 159.251,11.358 L 159.251,12.618 C 158.347,12.03 157.361,11.713 156.453,11.713 C 154.528,11.713 153.213,12.959 153.213,14.754 C 153.213,16.519 154.575,17.824 156.408,17.824 C 157.335,17.824 158.183,17.565 159.169,16.989 Z" marker-start="none" marker-end="none"/>
     <path d="M 161.919,18.776 L 160.768,18.776 L 160.768,10.765 L 165.54,10.765 L 165.54,11.796 L 161.919,11.796 Z" marker-start="none" marker-end="none"/>
     <path d="M 172.983,18.776 L 171.831,18.776 L 171.831,14.11 C 171.831,13.361 171.736,12.773 171.326,12.361 C 170.961,11.994 170.326,11.713 169.445,11.713 C 168.752,11.713 168.177,11.938 167.718,12.395 C 167.354,12.76 167.234,13.136 167.234,14.04 L 167.234,18.776 L 166.087,18.776 L 166.087,13.793 C 166.087,11.609 167.73,10.657 169.422,10.657 C 171.809,10.657 172.983,11.95 172.983,13.911 Z" marker-start="none" marker-end="none"/>
     <path d="M 178.764,13.063 C 178.764,12.462 178.401,11.792 177.047,11.792 L 175.603,11.792 L 175.603,14.308 L 176.991,14.308 C 178.202,14.308 178.764,13.793 178.764,13.063 M 176.365,15.343 L 175.603,15.343 L 175.603,17.739 L 176.659,17.739 C 177.719,17.739 178.06,17.223 178.06,16.624 C 178.06,15.766 177.506,15.343 176.365,15.343 M 178.025,14.992 L 178.025,15.014 C 178.857,15.355 179.245,15.896 179.245,16.731 C 179.245,17.739 178.505,18.773 176.779,18.773 L 174.452,18.773 L 174.452,10.761 L 177.2,10.761 C 179.211,10.761 179.95,11.912 179.95,12.899 C 179.95,13.98 179.224,14.767 178.025,14.992"/>
     <path d="M 216.859,13.964 C 216.859,15.371 215.721,16.5 214.314,16.5 C 212.91,16.5 211.777,15.371 211.777,13.964 C 211.777,12.558 212.91,11.419 214.314,11.419 C 215.721,11.419 216.859,12.558 216.859,13.964 M 216.438,13.964 C 216.438,12.792 215.487,11.839 214.314,11.839 C 213.144,11.839 212.198,12.792 212.198,13.964 C 212.198,15.137 213.144,16.083 214.314,16.083 C 215.487,16.083 216.438,15.137 216.438,13.964 M 213.647,14.093 L 213.647,14.916 L 214.355,14.916 C 214.645,14.916 214.845,14.758 214.845,14.508 C 214.845,14.226 214.617,14.093 214.282,14.093 Z M 213.207,12.558 L 213.647,12.558 L 213.647,13.717 L 213.909,13.717 C 214.248,13.717 214.377,13.597 214.722,12.984 L 214.961,12.558 L 215.499,12.558 L 215.171,13.088 C 214.943,13.455 214.769,13.689 214.535,13.771 L 214.535,13.784 C 214.997,13.812 215.313,14.129 215.313,14.572 C 215.313,14.868 215.088,15.289 214.411,15.289 L 213.207,15.289 Z" marker-start="none" marker-end="none"/>
     <path d="M 154.143,105.199 C 155.9,104.967 156.981,106.934 158.012,108.015 C 157.456,105.167 155.594,103.63 153.615,102.207 C 154.203,99.864 155.176,97.645 156.254,95.347 C 156.595,94.616 156.38,93.637 157.662,93.763 C 157.408,96.642 158.325,99.748 160.3,100.974 C 160.313,99.909 159.469,99.062 159.596,97.984 C 159.729,96.861 160.955,95.685 161.708,95.698 C 163.156,95.723 162.988,97.26 163.466,98.688 C 163.962,100.168 164.926,101.594 165.577,102.558 C 165.995,100.953 164.437,98.913 165.049,97.104 C 169.486,96.307 171.388,99.561 171.032,104.143 C 172.191,103.327 172.024,100.481 171.56,99.04 C 175.422,100.311 174.765,105.268 172.442,107.838 C 171.648,108.714 170.25,109.093 170.33,110.124 C 172.571,109.081 173.972,107.2 175.783,105.726 C 176.255,107.219 175.796,109.081 175.433,110.302 C 180.737,102.716 172.603,94.221 165.577,92.707 C 166.318,91.919 167.333,92.173 167.513,91.123 C 167.803,89.459 164.06,86.428 161.18,87.955 C 162.043,68.685 174.402,58.58 193.905,57.696 C 199.539,57.439 204.219,58.53 209.211,59.28 C 208.282,55.646 206.599,52.848 206.574,48.722 C 206.514,39.779 213.482,33.645 219.065,29.895 C 219.192,21.755 220.89,15.184 225.398,11.422 C 223.22,11.789 221.794,13.009 220.472,14.059 C 217.715,16.257 215.436,19.048 213.786,23.035 C 212.995,24.945 212.612,27.325 211.5,28.489 C 210.618,29.408 208.557,29.904 206.748,30.6 C 203.448,31.866 200.494,32.899 197.424,34.644 C 195.979,35.469 194.281,36.458 193.729,37.638 C 192.926,39.343 193.463,42.443 193.905,44.499 C 192.799,44.255 192.287,41.894 191.793,40.451 C 188.002,41.436 184.282,43.139 179.83,43.443 C 175.413,43.744 170.576,42.991 166.105,43.266 C 160.804,43.598 157.851,45.463 155.198,48.018 C 152.707,50.418 150.342,53.368 146.048,54.351 C 146.722,52.396 148.236,50.645 149.745,48.722 C 151.623,46.32 154.338,44.439 154.493,40.629 C 154.547,39.339 154.431,37.736 153.437,37.11 C 153.95,40.889 150.383,43.289 147.984,45.204 C 143.272,48.963 138.201,53.095 139.539,62.444 C 143.079,62.052 147.379,60.905 151.151,60.158 C 151.198,66.392 155.852,69.058 155.372,74.234 C 155.062,77.592 152.398,80.123 149.393,80.917 C 146.719,81.626 143.914,81.995 143.937,85.846 C 145.878,86.228 147.604,86.795 149.393,87.781 C 150.775,88.543 153.077,90 153.087,91.473 C 153.1,92.877 151.028,93.706 149.918,94.641 C 147.813,96.425 146.419,98.388 146.402,102.207 C 147.967,100.019 148.176,96.475 151.503,96.048 C 152.078,96.924 150.781,97.434 150.801,98.338 C 151.992,97.655 152.355,96.14 153.965,95.874 C 152.681,98.897 148.622,99.965 149.745,105.021 C 149.959,103.188 150.64,101.812 152.031,101.151 C 151.919,106.188 153.813,109.222 157.484,110.478 C 156.226,108.862 154.399,107.819 154.143,105.199"/>
    </g>
   </g>
  </g>
 </g>
</svg>
