<?xml version="1.0" encoding="UTF-8"?>
<svg xmlns="http://www.w3.org/2000/svg" xmlns:xlink="http://www.w3.org/1999/xlink" width="3600" height="5400" type="image">
  <g>
    <path fill-rule="evenodd" style="fill:#000000;stroke:#000000;stroke-width:0;stroke-antialiasing:false" d=" M 1989 663 C 2044.89 661.961 2093.44 665.195 2137 677 C 2151.51 680.933 2164.66 680.481 2178 686 C 2197.8 694.19 2219.91 700.286 2239 710 C 2270.88 726.219 2300.67 745.203 2331 763 C 2334 766.333 2337 769.667 2340 773 C 2342.77 775.006 2346.08 775.034 2349 777 C 2357.68 782.838 2364.66 792.781 2373 799 C 2437.01 846.724 2482.45 915.723 2525 985 C 2532.08 996.528 2534.83 1008.89 2541 1021 C 2554.62 1047.75 2567.38 1078.12 2578 1108 C 2582.76 1121.4 2583.16 1133.42 2588 1147 C 2598.36 1176.08 2601.28 1211.5 2609 1244 C 2611.97 1256.5 2610.5 1268.79 2613 1280 C 2613.67 1296.66 2614.33 1313.33 2615 1330 C 2617.83 1343.43 2617.92 1376.59 2615 1390 C 2611.22 1407.33 2616.8 1428.98 2613 1446 C 2610.3 1458.09 2612 1471.12 2609 1484 C 2600.77 1519.36 2599.58 1555.35 2590 1589 C 2581.91 1617.41 2574.78 1647.57 2565 1674 C 2559.88 1687.84 2558.76 1700.61 2553 1714 C 2532.55 1761.52 2513.4 1808.7 2493 1855 C 2482.81 1878.13 2468.91 1901.84 2456 1923 C 2446.54 1938.52 2440.42 1954.65 2431 1970 C 2405.61 2011.41 2380.25 2052.96 2353 2093 C 2306.76 2160.96 2253.71 2223.52 2205 2289 C 2200.27 2295.36 2192.78 2300.6 2188 2307 C 2147.87 2360.66 2098.21 2405.78 2058 2459 C 2053 2463.67 2048 2468.33 2043 2473 C 2030.48 2489.55 2013.36 2502.67 2001 2519 C 1984.36 2541 1963.33 2560.51 1944 2580 C 1931.48 2592.63 1918.74 2606.79 1908 2621 C 1902.96 2627.67 1894.93 2633.06 1889 2639 C 1876.12 2651.9 1863.02 2666.42 1852 2681 C 1845.38 2689.76 1834.65 2696.21 1828 2705 C 1806.49 2733.44 1778.44 2756.65 1757 2785 C 1740.3 2807.09 1721.35 2827.73 1705 2850 C 1698.97 2858.21 1697.33 2869.89 1683 2870 C 1679.75 2865.12 1675.69 2862.52 1671 2859 C 1663.48 2853.37 1654.7 2840.82 1647 2836 C 1640.58 2831.98 1636.85 2826.91 1631 2823 C 1628.66 2821.44 1626.19 2821.63 1624 2820 C 1614.17 2812.68 1605.39 2799.32 1593 2795 C 1582.98 2810.84 1566.12 2822.08 1555 2837 C 1549.81 2843.96 1547.05 2853.81 1535 2854 C 1527.53 2842.73 1512.06 2834.53 1506 2823 C 1501.22 2824.71 1501.39 2826.87 1494 2827 C 1487.36 2817.05 1476.18 2809.38 1469 2800 C 1461.36 2790.02 1453.23 2779.39 1444 2771 C 1437.37 2764.98 1429.01 2759.52 1424 2752 C 1414.35 2756.93 1407.47 2766.12 1399 2772 C 1380.67 2784.72 1364.67 2797.92 1347 2811 C 1337.26 2818.21 1330.88 2833.64 1315 2834 C 1292.76 2793.19 1254.6 2758.53 1227 2722 C 1219.18 2711.65 1204.41 2701.22 1197 2691 C 1196.67 2689.67 1196.33 2688.33 1196 2687 C 1193.67 2685.33 1191.33 2683.67 1189 2682 C 1187.5 2680.42 1187.51 2677.63 1186 2676 C 1179.94 2669.46 1171.4 2664.13 1166 2657 C 1162.41 2652.26 1159.16 2647.18 1155 2643 C 1153.32 2641.31 1150.47 2640.93 1149 2639 C 1135.59 2621.37 1118.78 2607.34 1105 2590 C 1102 2587.67 1099 2585.33 1096 2583 C 1085.57 2568.78 1072.71 2557.87 1062 2544 C 1059 2541.67 1056 2539.33 1053 2537 C 1025.12 2500.35 987.953 2471.73 960 2435 C 957.667 2433.33 955.333 2431.67 953 2430 C 950.747 2427.13 949.841 2423.21 947 2421 C 944.97 2419.42 942.445 2419.05 941 2417 C 931.536 2403.6 919.914 2393.04 910 2380 C 907.667 2378.33 905.333 2376.67 903 2375 C 869.448 2329.35 827.67 2290.79 795 2244 C 790.55 2237.63 782.472 2232.4 778 2226 C 755.623 2193.98 731.808 2164.09 709 2132 C 706.109 2127.93 700.801 2124.12 698 2120 C 649.48 2048.65 601.303 1974.75 561 1896 C 526.984 1829.53 498.999 1757.62 474 1683 C 461.087 1644.46 457.124 1602.36 445 1563 C 444.667 1558.33 444.333 1553.67 444 1549 C 440.735 1535.09 441.478 1520.39 438 1505 C 434.265 1488.47 435.926 1467.86 432 1450 C 432 1442.33 432 1434.67 432 1427 C 428.749 1411.68 431.004 1390.15 431 1373 C 430.991 1333.84 431.763 1293 440 1260 C 441.333 1249.67 442.667 1239.33 444 1229 C 453.134 1193.71 458.737 1158.46 471 1126 C 534.044 959.13 632.357 836.297 785 759 C 816.856 742.868 852.978 731.001 890 719 C 898.353 716.292 908.394 716.033 916 714 C 919.333 714 922.667 714 926 714 C 939.729 709.248 969.866 705.555 986 708 C 988.561 708.388 996.671 707.001 1001 707 C 1019.25 706.993 1038.8 706.513 1054 710 C 1059 710 1064 710 1069 710 C 1077.64 712.023 1088.29 713.817 1097 716 C 1101.33 716.333 1105.67 716.666 1110 717 C 1151.56 730.232 1192.76 741.245 1229 760 C 1290.86 792.014 1344.44 837.282 1387 889 C 1388.96 891.384 1393.29 892.297 1395 895 C 1404.06 909.343 1415.77 921.14 1425 935 C 1428.74 940.616 1430.21 946.396 1434 952 C 1447.99 972.707 1463.16 995.407 1474 1019 C 1479.44 1030.84 1485.39 1042.6 1490 1054 C 1492.75 1060.81 1493.73 1068.63 1498 1074 C 1498 1073.67 1498 1073.33 1498 1073 C 1504.37 1065.29 1504.88 1051.72 1509 1042 C 1520.42 1015.05 1532.19 987.371 1546 962 C 1580.86 897.972 1633.51 828.314 1690 786 C 1697.31 780.526 1703.56 772.369 1711 767 C 1719.17 761.103 1727.67 756.906 1736 751 C 1737 749.667 1738 748.333 1739 747 C 1782.79 721.287 1828.08 696.902 1882 681 C 1905.85 673.965 1931.31 672.575 1956 666 C 1966.55 663.19 1980.8 668.199 1989 663 Z "/>
  </g>
  <g>
    <path fill-rule="evenodd" style="fill:#000000;stroke:#000000;stroke-width:0;stroke-antialiasing:false" d=" M 2471 1888 C 2482.34 1888.15 2486.86 1894.05 2494 1898 C 2509.62 1906.64 2523.22 1914.75 2537 1925 C 2539 1927.33 2541 1929.67 2543 1932 C 2589.28 1966.47 2622.55 2018.9 2646 2076 C 2652.76 2092.46 2656.85 2110.84 2662 2128 C 2664.63 2136.78 2664.11 2145.97 2667 2154 C 2667.8 2152.98 2667.35 2153.73 2668 2152 C 2674.83 2145.23 2678.55 2135.14 2684 2127 C 2694.1 2111.9 2707.06 2098.48 2718 2084 C 2721.33 2081 2724.67 2078 2728 2075 C 2735.96 2067.04 2742.88 2058.88 2752 2052 C 2765.52 2041.81 2777.63 2028.58 2792 2019 C 2824.75 1997.17 2862.57 1980.99 2905 1969 C 2964.65 1952.14 3049.57 1962.5 3098 1981 C 3202.93 2021.09 3269.95 2104.61 3313 2207 C 3321.58 2227.4 3325.87 2250.09 3332 2272 C 3332.33 2276 3332.67 2280 3333 2284 C 3340.5 2311.26 3341.99 2344.57 3342 2379 C 3342 2392.63 3342.52 2406.67 3340 2418 C 3337.14 2430.86 3339.92 2441.67 3337 2454 C 3324.86 2505.23 3317.57 2555.41 3297 2598 C 3274.79 2643.99 3253.19 2688.25 3226 2729 C 3201.16 2766.23 3170.63 2798.75 3144 2834 C 3134.01 2847.22 3117.86 2857.97 3108 2871 C 3097.47 2884.93 3083.93 2898.47 3070 2909 C 3064.33 2915 3058.67 2921 3053 2927 C 3037.77 2938.52 3025.32 2952.45 3010 2964 C 3005.33 2967.52 3001.68 2973.47 2997 2977 C 2978.28 2991.13 2961.68 3008.15 2943 3022 C 2884.79 3065.17 2827.84 3108.95 2768 3151 C 2713.86 3189.04 2660.15 3228.67 2607 3268 C 2594.99 3276.89 2584.12 3287.84 2572 3297 C 2564.49 3302.68 2564.93 3309.88 2551 3310 C 2542.01 3294.51 2529.64 3281.2 2519 3267 C 2515.05 3261.73 2509.27 3258.21 2506 3252 C 2493.03 3258.61 2475.36 3280.71 2460 3281 C 2457.92 3277.2 2448.95 3260.43 2446 3259 C 2443.81 3257.94 2438.54 3258.49 2437 3258 C 2431.12 3244.69 2422.42 3232.72 2415 3221 C 2411.39 3215.3 2409.24 3205.85 2402 3204 C 2394.28 3210.99 2381.6 3213.02 2372 3218 C 2360.8 3223.81 2339.69 3240.49 2326 3241 C 2316.19 3223.94 2310.32 3203.96 2300 3187 C 2282.78 3158.7 2267.74 3129.12 2250 3101 C 2174.99 2982.08 2099.83 2864.39 2039 2731 C 2024.57 2699.36 2010.65 2665.18 1997 2632 C 1991.63 2618.95 1989.83 2606.23 1985 2593 C 1981.21 2582.63 1977.41 2570.48 1974 2560 C 1972.62 2555.74 1970.71 2547.86 1973 2544 C 1975.51 2536.87 1983.76 2532.65 1988 2527 C 1997.62 2514.17 2008.5 2503.57 2018 2491 C 2023.33 2486 2028.67 2481 2034 2476 C 2040.52 2467.39 2049.7 2461.37 2056 2453 C 2079.15 2422.22 2107.02 2396.41 2130 2366 C 2138.33 2354.97 2150.65 2346.09 2159 2335 C 2167.11 2324.24 2174.86 2313.84 2183 2303 C 2188.67 2297.67 2194.33 2292.33 2200 2287 C 2248.33 2222.2 2299.44 2160.3 2346 2094 C 2375.04 2052.66 2401.53 2008.11 2428 1965 C 2435.94 1952.06 2439.66 1936.86 2448 1924 C 2455.5 1912.44 2463.46 1899.8 2471 1888 Z "/>
  </g>
</svg>