<?xml version="1.0" encoding="utf-8"?>
<!-- Generator: Adobe Illustrator 24.0.1, SVG Export Plug-In . SVG Version: 6.00 Build 0)  -->
<svg version="1.1"
	 id="svg4691" xmlns:cc="http://creativecommons.org/ns#" xmlns:dc="http://purl.org/dc/elements/1.1/" xmlns:rdf="http://www.w3.org/1999/02/22-rdf-syntax-ns#" xmlns:svg="http://www.w3.org/2000/svg"
	 xmlns="http://www.w3.org/2000/svg" xmlns:xlink="http://www.w3.org/1999/xlink" x="0px" y="0px" viewBox="0 0 286.654 348.853"
	 enable-background="new 0 0 286.654 348.853" xml:space="preserve">
<g id="g482" transform="matrix(8.1884616,0,0,-8.3778511,81.286744,855.24594)">
	<path id="path484" fill="#572700" d="M-2.351,78.401c-0.044,0.547-0.335,0.706-0.582,0.706c-0.353,0-0.548-0.23-0.548-0.627
		c0-1.085,2.225-1.607,2.225-3.337c0-1.05-0.706-1.633-1.73-1.633c-1.014,0-1.597,0.813-1.642,1.765l1.042,0.15
		c0.044-0.644,0.3-0.962,0.653-0.962c0.38,0,0.635,0.203,0.635,0.582c0,1.262-2.225,1.598-2.225,3.425
		c0,1.015,0.618,1.589,1.695,1.589c0.892,0,1.422-0.644,1.518-1.545L-2.351,78.401z"/>
</g>
<g id="g486" transform="matrix(8.1884616,0,0,-8.3778511,101.92821,837.99762)">
	<path id="path488" fill="#572700" d="M-2.948,77.914h1.094v-4.811c0-0.468,0.185-0.698,0.582-0.698c0.398,0,0.583,0.23,0.583,0.698
		v4.811h1.094v-4.766c0-1.095-0.636-1.695-1.678-1.695s-1.677,0.6-1.677,1.695V77.914z"/>
</g>
<g id="g490" transform="matrix(8.1884616,0,0,-8.3778511,161.02025,869.39362)">
	<path id="path492" fill="#572700" d="M-4.656,78.801h0.388c0.591,0,0.812,0.221,0.812,0.98c0,0.759-0.221,0.979-0.812,0.979h-0.388
		V78.801z M-4.656,75.288h-1.094v6.373h1.536c1.226,0,1.854-0.521,1.854-1.88c0-1.024-0.398-1.439-0.769-1.607l0.927-2.886h-1.113
		l-0.776,2.639c-0.141-0.018-0.371-0.027-0.565-0.027V75.288z"/>
</g>
<g id="g494" transform="matrix(8.1884616,0,0,-8.3778511,208.36429,869.39362)">
	<path id="path496" fill="#572700" d="M-6.025,78.801h0.388c0.591,0,0.812,0.221,0.812,0.98c0,0.759-0.221,0.979-0.812,0.979h-0.388
		V78.801z M-6.025,75.288H-7.12v6.373h1.536c1.227,0,1.855-0.521,1.855-1.88c0-1.024-0.398-1.439-0.769-1.607l0.927-2.886h-1.113
		l-0.776,2.639c-0.142-0.018-0.371-0.027-0.566-0.027V75.288z"/>
</g>
<g id="g498" transform="matrix(8.1884616,0,0,-8.3778511,243.96854,907.95939)">
	<path id="path500" fill="#572700" d="M-7.055,79.891v6.374h2.931v-0.953h-1.836V83.67h1.412v-0.953h-1.412v-1.872h1.96v-0.953
		H-7.055z"/>
</g>
<g id="g502" transform="matrix(8.1884616,0,0,-8.3778511,308.40273,907.95939)">
	<path id="path504" fill="#572700" d="M-8.918,79.891h-1.095v2.648l-1.323,3.725h1.112l0.768-2.428h0.018l0.733,2.428h1.111
		l-1.323-3.725V79.891z"/>
</g>
<g id="g506" transform="matrix(8.1884616,0,0,-8.3778511,64.575734,942.16616)">
	<path id="path508" fill="#572700" d="M-1.867,80.858v0.17c0,0.185-0.085,0.265-0.183,0.265c-0.152,0-0.201-0.079-0.201-0.243
		v-1.113c0-0.164,0.049-0.243,0.201-0.243c0.137,0,0.183,0.079,0.183,0.222v0.265h0.376v-0.253c0-0.311-0.183-0.562-0.559-0.562
		c-0.395,0-0.578,0.252-0.578,0.562v1.132c0,0.31,0.182,0.562,0.578,0.562c0.376,0,0.559-0.274,0.559-0.603v-0.161H-1.867z"/>
</g>
<g id="g510" transform="matrix(8.1884616,0,0,-8.3778511,76.178784,952.27906)">
	<path id="path512" fill="#572700" d="M-2.203,81.144c0-0.164,0.049-0.243,0.201-0.243s0.201,0.079,0.201,0.243v1.113
		c0,0.165-0.049,0.243-0.201,0.243s-0.201-0.079-0.201-0.243V81.144z M-2.581,82.266c0,0.31,0.182,0.562,0.579,0.562
		s0.578-0.253,0.578-0.562v-1.132c0-0.311-0.182-0.562-0.578-0.562s-0.579,0.252-0.579,0.562
		C-2.581,81.135-2.581,82.266-2.581,82.266z"/>
</g>
<g id="g514" transform="matrix(8.1884616,0,0,-8.3778511,88.442634,934.11839)">
	<path id="path516" fill="#572700" d="M-2.558,80.631h0.377v-1.658c0-0.161,0.064-0.24,0.201-0.24s0.201,0.079,0.201,0.24v1.658
		h0.376v-1.642c0-0.377-0.219-0.584-0.578-0.584s-0.578,0.207-0.578,0.584V80.631z"/>
</g>
<g id="g518" transform="matrix(8.1884616,0,0,-8.3778511,104.75077,958.2198)">
	<path id="path520" fill="#572700" d="M-3.029,81.312v2.196h0.35l0.46-1.256h0.005v1.256h0.34v-2.196h-0.328l-0.48,1.371h-0.006
		v-1.371H-3.029z"/>
</g>
<g id="g522" transform="matrix(8.1884616,0,0,-8.3778511,123.7087,937.72338)">
	<path id="path524" fill="#572700" d="M-3.577,80.732h-0.366v0.328h1.107v-0.328H-3.2v-1.868h-0.377V80.732z"/>
</g>
<g id="g526" transform="matrix(8.1884616,0,0,-8.3778511,142.53397,958.2198)">
	<path id="path528" fill="#572700" d="M-4.122,81.312H-4.5v0.912l-0.456,1.284h0.382l0.266-0.836h0.005l0.253,0.836h0.383
		l-0.456-1.284V81.312z"/>
</g>
<g id="g530" transform="matrix(8.1884616,0,0,-8.3778511,163.92715,942.16616)">
	<path id="path532" fill="#572700" d="M-4.74,80.858v0.17c0,0.185-0.085,0.265-0.183,0.265c-0.152,0-0.2-0.079-0.2-0.243v-1.113
		c0-0.164,0.048-0.243,0.2-0.243c0.137,0,0.183,0.079,0.183,0.222v0.265h0.377v-0.253c0-0.311-0.182-0.562-0.56-0.562
		c-0.395,0-0.577,0.252-0.577,0.562v1.132c0,0.31,0.182,0.562,0.577,0.562c0.378,0,0.56-0.274,0.56-0.603v-0.161H-4.74z"/>
</g>
<g id="g534" transform="matrix(8.1884616,0,0,-8.3778511,175.82826,944.93085)">
	<path id="path536" fill="#572700" d="M-5.085,80.936h0.134c0.204,0,0.28,0.076,0.28,0.337c0,0.262-0.076,0.337-0.28,0.337h-0.134
		V80.936z M-5.085,79.726h-0.378v2.196h0.53c0.423,0,0.639-0.179,0.639-0.648c0-0.353-0.137-0.495-0.265-0.553l0.32-0.994h-0.383
		l-0.267,0.909c-0.05-0.006-0.129-0.009-0.195-0.009V79.726z"/>
</g>
<path id="path538" fill="#572700" d="M143.981,258.611h3.094v18.396h-3.094V258.611z"/>
<g id="g540" transform="matrix(8.1884616,0,0,-8.3778511,205.31737,942.16616)">
	<path id="path542" fill="#572700" d="M-5.937,80.858v0.17c0,0.185-0.085,0.265-0.182,0.265c-0.153,0-0.201-0.079-0.201-0.243
		v-1.113c0-0.164,0.048-0.243,0.201-0.243c0.137,0,0.182,0.079,0.182,0.222v0.265h0.376v-0.253c0-0.311-0.182-0.562-0.559-0.562
		c-0.395,0-0.578,0.252-0.578,0.562v1.132c0,0.31,0.182,0.562,0.578,0.562c0.377,0,0.559-0.274,0.559-0.603l0-0.161H-5.937z"/>
</g>
<g id="g544" transform="matrix(8.1884616,0,0,-8.3778511,213.27573,958.2198)">
	<path id="path546" fill="#572700" d="M-6.167,81.312v2.196h0.377v-0.812h0.005l0.396,0.812h0.377l-0.407-0.818l0.459-1.378h-0.384
		l-0.307,1.022h-0.005L-5.79,82.09v-0.778H-6.167z"/>
</g>
<g id="g548" transform="matrix(8.1884616,0,0,-8.3778511,228.53657,958.2198)">
	<path id="path550" fill="#572700" d="M-6.609,81.312v2.196h1.01v-0.328h-0.633v-0.566h0.486v-0.328h-0.486V81.64h0.675v-0.328
		H-6.609z"/>
</g>
<g id="g552" transform="matrix(8.1884616,0,0,-8.3778511,245.66519,937.72338)">
	<path id="path554" fill="#572700" d="M-7.104,80.732h-0.365v0.328h1.107v-0.328h-0.365v-1.868h-0.377V80.732z"/>
</g>
<g id="g556" transform="matrix(8.1884616,0,0,-8.3778511,270.52782,942.16616)">
	<path id="path558" fill="#572700" d="M-7.823,80.858v0.17c0,0.185-0.085,0.265-0.183,0.265c-0.153,0-0.201-0.079-0.201-0.243
		v-1.113c0-0.164,0.048-0.243,0.201-0.243c0.137,0,0.183,0.079,0.183,0.222v0.265h0.377v-0.253c0-0.311-0.183-0.562-0.56-0.562
		c-0.395,0-0.578,0.252-0.578,0.562v1.132c0,0.31,0.182,0.562,0.578,0.562c0.377,0,0.56-0.274,0.56-0.603v-0.161H-7.823z"/>
</g>
<g id="g560" transform="matrix(8.1884616,0,0,-8.3778511,278.47881,958.2198)">
	<path id="path562" fill="#572700" d="M-8.053,81.312v2.196h0.376V81.64h0.594v-0.328H-8.053z"/>
</g>
<g id="g564" transform="matrix(8.1884616,0,0,-8.3778511,291.36172,934.11839)">
	<path id="path566" fill="#572700" d="M-8.425,80.631h0.376v-1.658c0-0.161,0.065-0.24,0.201-0.24s0.201,0.079,0.201,0.24v1.658
		h0.377v-1.642c0-0.377-0.219-0.584-0.578-0.584c-0.359,0-0.578,0.207-0.578,0.584V80.631z"/>
</g>
<g id="g568" transform="matrix(8.1884616,0,0,-8.3778511,312.01548,954.81504)">
	<path id="path570" fill="#572700" d="M-9.023,81.215h0.158c0.201,0,0.273,0.115,0.273,0.337c0,0.225-0.085,0.338-0.31,0.338h-0.121
		V81.215z M-9.023,82.201h0.137c0.143,0,0.253,0.098,0.253,0.279c0,0.204-0.079,0.311-0.247,0.311h-0.143V82.201z M-9.4,83.101
		h0.559c0.404,0,0.584-0.206,0.584-0.581c0-0.189-0.079-0.386-0.262-0.459c0.192-0.085,0.305-0.237,0.305-0.521
		c0-0.362-0.162-0.635-0.591-0.635H-9.4C-9.4,80.906-9.4,83.101-9.4,83.101z"/>
</g>
<g id="g572" transform="matrix(8.1884616,0,0,-8.3778511,163.66594,780.67218)">
	<path id="path574" fill="#572700" d="M-4.733,76.294c-0.225-0.471-0.573-0.959-1.091-1.22l-0.036-0.105l0.099-0.021
		c0.639,0.323,1.021,0.949,1.247,1.491c0.111,0.267,0.184,0.514,0.23,0.696h-0.145C-4.486,76.915-4.582,76.609-4.733,76.294"/>
</g>
<g id="g576" transform="matrix(8.1884616,0,0,-8.3778511,164.43811,727.92691)">
	<path id="path578" fill="#572700" d="M-4.755,74.803c-0.163,0.351-0.36,0.649-0.584,0.876c-0.024-0.046-0.049-0.088-0.074-0.126
		c0.198-0.209,0.379-0.483,0.53-0.81c0.272-0.585,0.452-1.333,0.495-2.159h0.14C-4.29,73.429-4.474,74.197-4.755,74.803"/>
</g>
<g id="g580" transform="matrix(8.1884616,0,0,-8.3778511,159.20732,779.81848)">
	<path id="path582" fill="#572700" d="M-4.604,76.269l0.024-0.478c0.095,0.137,0.184,0.292,0.265,0.461
		c0.139,0.29,0.23,0.571,0.285,0.781h-0.28C-4.43,76.547-4.604,76.269-4.604,76.269"/>
</g>
<g id="g584" transform="matrix(8.1884616,0,0,-8.3778511,161.69989,729.23051)">
	<path id="path586" fill="#572700" d="M-4.676,74.84c-0.14,0.303-0.308,0.558-0.488,0.753c-0.047-0.058-0.089-0.101-0.118-0.127
		c-0.033-0.114-0.083-0.216-0.144-0.306c-0.042-0.063-0.088-0.118-0.137-0.169c0.24-0.261,0.666-0.896,0.943-2.069
		c0.015-0.062,0.027-0.122,0.039-0.182h0.388C-4.236,73.518-4.403,74.253-4.676,74.84"/>
</g>
<g id="g588" transform="matrix(8.1884616,0,0,-8.3778511,177.39962,749.76545)">
	<path id="path590" fill="#572700" d="M-5.13,75.42c0,0.311-0.015,0.614-0.046,0.91c-0.204-0.488-0.343-0.575-0.343-0.575
		c0.223,0.5,0.259,0.791,0.259,0.791c0.016,0.089,0.023,0.177,0.022,0.264c-0.161,1.019-0.496,1.916-0.947,2.595
		c-0.099-0.74-0.276-0.942-0.276-0.942c0.131,0.531,0.116,0.824,0.116,0.824c0,0.781-0.633,1.414-1.414,1.414
		c-0.589,0-1.094-0.361-1.307-0.874c-0.398,0.049-0.714-0.027-0.913-0.39c-0.124-0.227-0.05-0.413,0.025-0.521
		c0.103,0.184,0.299,0.312,0.568,0.3c-0.389-0.062-0.633-0.495-0.452-0.907c0.12-0.271,0.375-0.337,0.536-0.35
		c-0.066,0.619,0.401,0.671,0.401,0.671s-0.326-0.194-0.259-0.671c0.066-0.477,0.387-0.477,0.468-0.501
		c0.08-0.024,0.486-0.081,0.354-0.359c0,0,1.063,0.288,1.039,1.149c0,0.385-0.257,0.698-0.575,0.698
		c-0.092,0-0.18-0.027-0.257-0.074c0.273,0.343,0.624,0.096,0.624,0.096c0.208-0.147,0.349-0.415,0.349-0.72
		c0,0,0-0.032-0.002-0.074c0.166,0.22,0.367,0.633,0.145,1.189c-0.34,0.85-1.177,0.435-1.281,0.265c0,0,0.141,0.36,0.608,0.393
		c0.147,0,0.307-0.037,0.45-0.135c0.144-0.097,0.267-0.253,0.354-0.471c0.077-0.192,0.108-0.372,0.108-0.537
		c0-0.172-0.034-0.325-0.085-0.455c0.247-0.239,0.468-0.561,0.65-0.952c0.298-0.641,0.479-1.439,0.521-2.278h0.556
		C-5.132,75.267-5.13,75.343-5.13,75.42"/>
</g>
<g id="g592" transform="matrix(8.1884616,0,0,-8.3778511,167.41216,779.66684)">
	<path id="path594" fill="#572700" d="M-4.841,76.265c-0.1-0.24-0.214-0.458-0.339-0.651l0.495,0.147
		c0.269,0.303,0.468,0.956,0.548,1.254h-0.459C-4.643,76.823-4.721,76.555-4.841,76.265"/>
</g>
<g id="g596" transform="matrix(8.1884616,0,0,-8.3778511,214.03562,728.57787)">
	<path id="path598" fill="#572700" d="M-6.189,74.821c0.152,0.327,0.332,0.601,0.53,0.81c-0.025,0.038-0.05,0.08-0.075,0.126
		c-0.223-0.227-0.42-0.525-0.583-0.876c-0.282-0.607-0.466-1.374-0.508-2.219h0.141C-6.641,73.488-6.461,74.236-6.189,74.821"/>
</g>
<g id="g600" transform="matrix(8.1884616,0,0,-8.3778511,211.08696,779.07285)">
	<path id="path602" fill="#572700" d="M-6.104,76.248c0.226-0.541,0.608-1.168,1.248-1.491l0.098,0.021l-0.035,0.105
		c-0.519,0.26-0.866,0.749-1.092,1.22c-0.151,0.315-0.247,0.621-0.304,0.842h-0.145C-6.288,76.762-6.216,76.515-6.104,76.248"/>
</g>
<g id="g604" transform="matrix(8.1884616,0,0,-8.3778511,214.80124,780.0053)">
	<path id="path606" fill="#572700" d="M-6.212,76.275c0.081-0.169,0.169-0.323,0.265-0.461l0.024,0.478c0,0-0.174,0.278-0.294,0.765
		h-0.28C-6.441,76.846-6.35,76.565-6.212,76.275"/>
</g>
<g id="g608" transform="matrix(8.1884616,0,0,-8.3778511,214.81352,750.28823)">
	<path id="path610" fill="#572700" d="M-6.212,75.435c0.278,1.173,0.703,1.809,0.943,2.069c-0.05,0.052-0.095,0.107-0.137,0.169
		c-0.061,0.09-0.111,0.193-0.144,0.307c-0.028,0.027-0.071,0.069-0.118,0.127c-0.181-0.195-0.347-0.45-0.488-0.753
		c-0.273-0.587-0.44-1.321-0.481-2.1h0.387C-6.239,75.313-6.226,75.374-6.212,75.435"/>
</g>
<g id="g612" transform="matrix(8.1884616,0,0,-8.3778511,251.45771,711.39238)">
	<path id="path614" fill="#572700" d="M-7.272,74.335c0.075,0.108,0.15,0.295,0.025,0.521c-0.199,0.363-0.514,0.439-0.913,0.39
		c-0.212,0.513-0.717,0.873-1.307,0.873c-0.782,0-1.414-0.633-1.414-1.414c0,0-0.015-0.293,0.116-0.824c0,0-0.177,0.202-0.277,0.942
		c-0.45-0.678-0.785-1.576-0.946-2.596c-0.001-0.087,0.006-0.175,0.022-0.263c0,0,0.036-0.291,0.259-0.791
		c0,0-0.139,0.087-0.343,0.575c-0.03-0.295-0.045-0.6-0.045-0.91c0-0.077,0.002-0.153,0.003-0.23h0.556
		c0.042,0.84,0.223,1.638,0.521,2.278c0.182,0.392,0.404,0.714,0.65,0.952c-0.05,0.131-0.085,0.283-0.085,0.456
		c0,0.164,0.031,0.345,0.108,0.537c0.087,0.218,0.21,0.373,0.353,0.471c0.143,0.098,0.303,0.135,0.45,0.135
		c0.466-0.033,0.608-0.393,0.608-0.393c-0.104,0.169-0.94,0.585-1.281-0.265c-0.222-0.556-0.021-0.969,0.144-1.189
		c-0.002,0.042-0.002,0.074-0.002,0.074c0,0.305,0.14,0.573,0.349,0.72c0,0,0.351,0.247,0.624-0.096
		c-0.078,0.047-0.165,0.074-0.257,0.074c-0.317,0-0.575-0.313-0.575-0.698c-0.024-0.86,1.039-1.149,1.039-1.149
		c-0.132,0.279,0.274,0.335,0.354,0.359C-8.451,72.9-8.13,72.9-8.065,73.378c0.066,0.477-0.259,0.671-0.259,0.671
		s0.466-0.052,0.401-0.671c0.16,0.013,0.416,0.079,0.536,0.35c0.181,0.411-0.063,0.846-0.452,0.907
		C-7.571,74.648-7.375,74.519-7.272,74.335"/>
</g>
<g id="g616" transform="matrix(8.1884616,0,0,-8.3778511,208.01874,785.19454)">
	<path id="path618" fill="#572700" d="M-6.015,76.421l0.495-0.147c-0.126,0.193-0.239,0.411-0.34,0.651
		c-0.12,0.289-0.198,0.558-0.244,0.75h-0.459C-6.482,77.377-6.283,76.724-6.015,76.421"/>
</g>
<g id="g620" transform="matrix(8.1884616,0,0,-8.3778511,186.28656,698.34808)">
	<path id="path622" fill="#572700" d="M-5.387,73.967c-0.139,0.174-0.458,0.258-0.458,0.258c-0.178,0.053-0.315,0.108-0.426,0.179
		c-0.04,0.025-0.076,0.053-0.108,0.084c-0.13,0.018-0.268,0.072-0.395,0.147c0.051-0.188,0.131-0.492,0.221-0.884l0.916-0.698
		l-0.862,0.417c0.088-0.405,0.198-0.911,0.282-1.427l0.579-0.488l-0.539,0.234c0.064-0.421,0.121-0.865,0.163-1.322
		c0.045-0.492,0.078-0.968,0.102-1.413h0.524V73.967z"/>
</g>
<g id="g624" transform="matrix(8.1884616,0,0,-8.3778511,181.15649,783.9697)">
	<path id="path626" fill="#572700" d="M-5.239,76.387l0.479-0.721v1.864h-0.469C-5.223,76.823-5.239,76.387-5.239,76.387"/>
</g>
<g id="g628" transform="matrix(8.1884616,0,0,-8.3778511,189.30729,700.21131)">
	<path id="path630" fill="#572700" d="M-5.474,74.019l-0.07-0.078l-0.07,0.078v-4.743h0.14V74.019z"/>
</g>
<g id="g632" transform="matrix(8.1884616,0,0,-8.3778511,187.79651,808.95999)">
	<path id="path634" fill="#572700" d="M-5.431,77.093l0.07-0.176l0.07,0.176v3.419h-0.14V77.093z"/>
</g>
<g id="g636" transform="matrix(8.1884616,0,0,-8.3778511,174.30848,690.71837)">
	<path id="path638" fill="#572700" d="M-5.041,73.751L-5.041,73.751C-5.078,73.827-5.099,73.919-5.108,74
		c-0.002,0.021-0.004,0.044-0.004,0.068c0.001,0.135,0.034,0.301,0.168,0.434c0.133,0.133,0.383,0.21,0.576,0.091
		c-0.504,0.022-0.624-0.356-0.601-0.578c0.03-0.282,0.163-0.433,0.645-0.571c0,0,0.459-0.114,0.611-0.464
		c0.151,0.35,0.61,0.464,0.61,0.464c0.482,0.138,0.615,0.289,0.645,0.571c0.023,0.221-0.097,0.6-0.601,0.578
		c0.193,0.119,0.443,0.042,0.576-0.091c0.133-0.133,0.167-0.298,0.168-0.434c0-0.024-0.002-0.047-0.004-0.068
		c-0.008-0.081-0.031-0.172-0.067-0.249l0,0c0.454,0.158,0.988,0.756,0.715,1.419c-0.322,0.783-1.168,0.431-1.168,0.431
		c0.041,0.084,0.721,0.404,1.102-0.062c-0.131,0.562-0.527,0.733-1.001,0.733c-0.43,0-0.801-0.25-0.975-0.612
		c-0.176,0.362-0.546,0.612-0.976,0.612c-0.473,0-0.87-0.171-1.001-0.733c0.381,0.466,1.061,0.146,1.102,0.062
		c0,0-0.846,0.352-1.168-0.431C-6.029,74.507-5.495,73.909-5.041,73.751"/>
</g>
<g id="g640" transform="matrix(8.1884616,0,0,-8.3778511,190.81724,791.88761)">
	<path id="path642" fill="#572700" d="M-5.518,76.61l0.479,0.721c0,0-0.015,0.437-0.009,1.143h-0.469V76.61z"/>
</g>
<g id="g644" transform="matrix(8.1884616,0,0,-8.3778511,197.52604,736.77475)">
	<path id="path646" fill="#572700" d="M-5.712,75.053c0.042,0.456,0.099,0.901,0.163,1.322l-0.54-0.234l0.58,0.488
		c0.084,0.515,0.194,1.022,0.282,1.426l-0.862-0.417l0.917,0.698c0.09,0.391,0.169,0.696,0.22,0.884
		c-0.126-0.076-0.264-0.13-0.394-0.147l0,0c-0.032-0.031-0.069-0.059-0.108-0.085c-0.11-0.07-0.247-0.125-0.425-0.178
		c0,0-0.319-0.085-0.458-0.258V73.64h0.524C-5.791,74.084-5.758,74.56-5.712,75.053"/>
</g>
<g id="g648" transform="matrix(8.1884616,0,0,-8.3778511,183.03984,760.87532)">
	<path id="path650" fill="#572700" d="M-5.293,75.734c0.062,0,0.111,0.048,0.111,0.11s-0.046,0.112-0.111,0.112
		s-0.111-0.05-0.111-0.112S-5.355,75.734-5.293,75.734 M-3.825,75.211c-0.213,0-0.28,0.127-0.28,0.256h0.156
		c-0.003-0.079,0.045-0.122,0.122-0.122c0.102,0,0.133,0.066,0.133,0.186c0,0.105-0.036,0.164-0.124,0.164
		c-0.053,0-0.096-0.026-0.125-0.066h-0.129v0.447h0.493v-0.134h-0.359v-0.178c0.045,0.032,0.092,0.052,0.155,0.052
		c0.182,0,0.245-0.113,0.245-0.288C-3.538,75.33-3.62,75.211-3.825,75.211 M-4.231,75.448h-0.119v-0.225h-0.149v0.225h-0.375v0.137
		l0.363,0.492h0.162v-0.508h0.119C-4.231,75.568-4.231,75.448-4.231,75.448z M-5.293,75.211c-0.162,0-0.286,0.085-0.286,0.254
		c0,0.095,0.033,0.17,0.124,0.206c-0.068,0.034-0.103,0.111-0.103,0.185c0,0.159,0.117,0.232,0.265,0.232s0.265-0.073,0.265-0.232
		c0-0.075-0.035-0.151-0.103-0.185c0.092-0.036,0.124-0.111,0.124-0.206C-5.007,75.296-5.131,75.211-5.293,75.211 M-5.748,75.223
		h-0.141v0.641H-6.02v0.094c0.125,0.024,0.147,0.067,0.187,0.119h0.085V75.223z M-1.945,75.715v0.661h-5.669v-0.661h1.294v-0.14
		h-1.294v-0.661h5.669v0.661h-1.294v0.14C-3.239,75.715-1.945,75.715-1.945,75.715z M-4.744,75.568h0.245v0.334h-0.003
		L-4.744,75.568z M-5.293,75.603c-0.081,0-0.133-0.053-0.133-0.134c0-0.075,0.035-0.127,0.133-0.127s0.133,0.052,0.133,0.127
		C-5.16,75.551-5.212,75.603-5.293,75.603"/>
</g>
</svg>
