<?xml version="1.0" encoding="UTF-8" standalone="no"?>
<!-- Created with Inkscape (http://www.inkscape.org/) -->

<svg
   xmlns:dc="http://purl.org/dc/elements/1.1/"
   xmlns:cc="http://creativecommons.org/ns#"
   xmlns:rdf="http://www.w3.org/1999/02/22-rdf-syntax-ns#"
   xmlns:svg="http://www.w3.org/2000/svg"
   xmlns="http://www.w3.org/2000/svg"
   version="1.1"
   width="286.654047813"
   height="348.852565533" viewBox="0 0 375.59055 457.08661"
   id="svg4691">
  <defs
     id="defs3">
    <clipPath
       id="clipPath464">
      <path
         d="m 481.655,20.547 80.79,0 0,53.312 -80.79,0 0,-53.312 z"
         id="path466" />
    </clipPath>
  </defs>
  <metadata
     id="metadata4">
    <rdf:RDF>
      <cc:Work
         rdf:about="">
        <dc:format>image/svg+xml</dc:format>
        <dc:type
           rdf:resource="http://purl.org/dc/dcmitype/StillImage" />
        <dc:title></dc:title>
      </cc:Work>
    </rdf:RDF>
  </metadata>
  <g
     transform="translate(0,-595.2756)"
     id="layer1">
    <g
       transform="matrix(8.1884616,0,0,-8.3778511,-4114.6635,1210.679)"
       id="g460">
      <g
         transform="translate(22.331074,-1.3641411)"
         clip-path="url(#clipPath464)"
         id="g462">
        <g
           transform="translate(524.7313,46.934)"
           id="g470">
          <path
             d="m 0,0 c 0,-13.026 -9.25,-23.892 -21.541,-26.387 -12.29,2.495 -21.54,13.361 -21.54,26.387 l 0,26.926 L 0,26.926 0,0 z"
             id="path472"
             style="fill:#572700;fill-opacity:1;fill-rule:nonzero;stroke:none" />
        </g>
      </g>
    </g>
    <g
       transform="matrix(8.1884616,0,0,-8.3778511,81.286744,855.24594)"
       id="g482">
      <path
         d="m 0,0 c -0.058,0.717 -0.439,0.925 -0.763,0.925 -0.463,0 -0.718,-0.301 -0.718,-0.821 0,-1.422 2.915,-2.105 2.915,-4.372 0,-1.376 -0.925,-2.14 -2.267,-2.14 -1.329,0 -2.093,1.065 -2.151,2.313 l 1.365,0.197 c 0.058,-0.844 0.393,-1.26 0.856,-1.26 0.498,0 0.832,0.266 0.832,0.763 0,1.654 -2.915,2.094 -2.915,4.487 0,1.33 0.81,2.082 2.221,2.082 1.169,0 1.863,-0.844 1.989,-2.024 L 0,0 z"
         id="path484"
         style="fill:#ffffff;fill-opacity:1;fill-rule:nonzero;stroke:none" />
    </g>
    <g
       transform="matrix(8.1884616,0,0,-8.3778511,101.92821,837.99762)"
       id="g486">
      <path
         d="m 0,0 1.434,0 0,-6.303 c 0,-0.613 0.243,-0.914 0.763,-0.914 0.521,0 0.764,0.301 0.764,0.914 l 0,6.303 1.434,0 0,-6.245 C 4.395,-7.68 3.562,-8.466 2.197,-8.466 0.832,-8.466 0,-7.68 0,-6.245 L 0,0 z"
         id="path488"
         style="fill:#ffffff;fill-opacity:1;fill-rule:nonzero;stroke:none" />
    </g>
    <g
       transform="matrix(8.1884616,0,0,-8.3778511,161.02025,869.39362)"
       id="g490">
      <path
         d="m 0,0 0.509,0 c 0.774,0 1.064,0.289 1.064,1.284 0,0.994 -0.29,1.283 -1.064,1.283 L 0,2.567 0,0 z m 0,-4.603 -1.434,0 0,8.35 2.012,0 c 1.607,0 2.429,-0.682 2.429,-2.463 0,-1.342 -0.521,-1.886 -1.007,-2.105 l 1.215,-3.782 -1.458,0 -1.017,3.458 C 0.555,-1.168 0.254,-1.18 0,-1.18 l 0,-3.423 z"
         id="path492"
         style="fill:#ffffff;fill-opacity:1;fill-rule:nonzero;stroke:none" />
    </g>
    <g
       transform="matrix(8.1884616,0,0,-8.3778511,208.36429,869.39362)"
       id="g494">
      <path
         d="m 0,0 0.509,0 c 0.774,0 1.064,0.289 1.064,1.284 0,0.994 -0.29,1.283 -1.064,1.283 L 0,2.567 0,0 z m 0,-4.603 -1.434,0 0,8.35 2.012,0 c 1.608,0 2.43,-0.682 2.43,-2.463 0,-1.342 -0.521,-1.886 -1.007,-2.105 l 1.215,-3.782 -1.458,0 -1.017,3.458 C 0.555,-1.168 0.255,-1.18 0,-1.18 l 0,-3.423 z"
         id="path496"
         style="fill:#ffffff;fill-opacity:1;fill-rule:nonzero;stroke:none" />
    </g>
    <g
       transform="matrix(8.1884616,0,0,-8.3778511,243.96854,907.95939)"
       id="g498">
      <path
         d="m 0,0 0,8.351 3.84,0 0,-1.249 -2.406,0 0,-2.151 1.85,0 0,-1.249 -1.85,0 0,-2.453 2.568,0 L 4.002,0 0,0 z"
         id="path500"
         style="fill:#ffffff;fill-opacity:1;fill-rule:nonzero;stroke:none" />
    </g>
    <g
       transform="matrix(8.1884616,0,0,-8.3778511,308.40273,907.95939)"
       id="g502">
      <path
         d="m 0,0 -1.435,0 0,3.47 -1.734,4.881 1.457,0 1.006,-3.181 0.023,0 0.961,3.181 1.456,0 L 0,3.47 0,0 z"
         id="path504"
         style="fill:#ffffff;fill-opacity:1;fill-rule:nonzero;stroke:none" />
    </g>
    <g
       transform="matrix(8.1884616,0,0,-8.3778511,64.575734,942.16616)"
       id="g506">
      <path
         d="M 0,0 0,0.223 C 0,0.466 -0.112,0.57 -0.24,0.57 -0.439,0.57 -0.503,0.466 -0.503,0.251 l 0,-1.458 c 0,-0.215 0.064,-0.319 0.263,-0.319 0.179,0 0.24,0.104 0.24,0.291 l 0,0.347 0.493,0 0,-0.331 c 0,-0.407 -0.24,-0.737 -0.733,-0.737 -0.518,0 -0.757,0.33 -0.757,0.737 l 0,1.483 c 0,0.406 0.239,0.737 0.757,0.737 0.493,0 0.733,-0.359 0.733,-0.79 L 0.493,0 0,0 z"
         id="path508"
         style="fill:#ffffff;fill-opacity:1;fill-rule:nonzero;stroke:none" />
    </g>
    <g
       transform="matrix(8.1884616,0,0,-8.3778511,76.178784,952.27906)"
       id="g510">
      <path
         d="m 0,0 c 0,-0.215 0.064,-0.319 0.263,-0.319 0.199,0 0.263,0.104 0.263,0.319 l 0,1.458 C 0.526,1.674 0.462,1.777 0.263,1.777 0.064,1.777 0,1.674 0,1.458 L 0,0 z m -0.495,1.471 c 0,0.406 0.239,0.737 0.758,0.737 0.519,0 0.757,-0.331 0.757,-0.737 l 0,-1.483 c 0,-0.407 -0.238,-0.737 -0.757,-0.737 -0.519,0 -0.758,0.33 -0.758,0.737 l 0,1.483 z"
         id="path512"
         style="fill:#ffffff;fill-opacity:1;fill-rule:nonzero;stroke:none" />
    </g>
    <g
       transform="matrix(8.1884616,0,0,-8.3778511,88.442634,934.11839)"
       id="g514">
      <path
         d="m 0,0 0.494,0 0,-2.172 c 0,-0.211 0.084,-0.315 0.263,-0.315 0.179,0 0.264,0.104 0.264,0.315 l 0,2.172 0.493,0 0,-2.152 C 1.514,-2.646 1.227,-2.917 0.757,-2.917 0.287,-2.917 0,-2.646 0,-2.152 L 0,0 z"
         id="path516"
         style="fill:#ffffff;fill-opacity:1;fill-rule:nonzero;stroke:none" />
    </g>
    <g
       transform="matrix(8.1884616,0,0,-8.3778511,104.75077,958.2198)"
       id="g518">
      <path
         d="m 0,0 0,2.877 0.458,0 0.603,-1.646 0.007,0 0,1.646 0.446,0 0,-2.877 -0.43,0 -0.629,1.797 -0.008,0 L 0.447,0 0,0 z"
         id="path520"
         style="fill:#ffffff;fill-opacity:1;fill-rule:nonzero;stroke:none" />
    </g>
    <g
       transform="matrix(8.1884616,0,0,-8.3778511,123.7087,937.72338)"
       id="g522">
      <path
         d="m 0,0 -0.479,0 0,0.43 1.451,0 0,-0.43 -0.478,0 0,-2.447 L 0,-2.447 0,0 z"
         id="path524"
         style="fill:#ffffff;fill-opacity:1;fill-rule:nonzero;stroke:none" />
    </g>
    <g
       transform="matrix(8.1884616,0,0,-8.3778511,142.53397,958.2198)"
       id="g526">
      <path
         d="m 0,0 -0.495,0 0,1.195 -0.597,1.682 0.501,0 0.348,-1.096 0.007,0 0.331,1.096 0.502,0 L 0,1.195 0,0 z"
         id="path528"
         style="fill:#ffffff;fill-opacity:1;fill-rule:nonzero;stroke:none" />
    </g>
    <g
       transform="matrix(8.1884616,0,0,-8.3778511,163.92715,942.16616)"
       id="g530">
      <path
         d="M 0,0 0,0.223 C 0,0.466 -0.112,0.57 -0.24,0.57 -0.439,0.57 -0.502,0.466 -0.502,0.251 l 0,-1.458 c 0,-0.215 0.063,-0.319 0.262,-0.319 0.18,0 0.24,0.104 0.24,0.291 l 0,0.347 0.494,0 0,-0.331 c 0,-0.407 -0.239,-0.737 -0.734,-0.737 -0.518,0 -0.756,0.33 -0.756,0.737 l 0,1.483 c 0,0.406 0.238,0.737 0.756,0.737 0.495,0 0.734,-0.359 0.734,-0.79 L 0.494,0 0,0 z"
         id="path532"
         style="fill:#ffffff;fill-opacity:1;fill-rule:nonzero;stroke:none" />
    </g>
    <g
       transform="matrix(8.1884616,0,0,-8.3778511,175.82826,944.93085)"
       id="g534">
      <path
         d="m 0,0 0.175,0 c 0.267,0 0.367,0.1 0.367,0.442 0,0.343 -0.1,0.442 -0.367,0.442 L 0,0.884 0,0 z m 0,-1.586 -0.495,0 0,2.877 0.694,0 c 0.554,0 0.837,-0.235 0.837,-0.849 0,-0.462 -0.179,-0.649 -0.347,-0.725 l 0.419,-1.303 -0.502,0 -0.35,1.191 C 0.191,-0.403 0.087,-0.407 0,-0.407 l 0,-1.179 z"
         id="path536"
         style="fill:#ffffff;fill-opacity:1;fill-rule:nonzero;stroke:none" />
    </g>
    <path
       d="m 188.65218,934.12174 4.05328,0 0,24.10308 -4.05328,0 0,-24.10308 z"
       id="path538"
       style="fill:#ffffff;fill-opacity:1;fill-rule:nonzero;stroke:none" />
    <g
       transform="matrix(8.1884616,0,0,-8.3778511,205.31737,942.16616)"
       id="g540">
      <path
         d="m 0,0 0,0.223 c 0,0.243 -0.112,0.347 -0.239,0.347 -0.2,0 -0.263,-0.104 -0.263,-0.319 l 0,-1.458 c 0,-0.215 0.063,-0.319 0.263,-0.319 0.179,0 0.239,0.104 0.239,0.291 l 0,0.347 0.493,0 0,-0.331 c 0,-0.407 -0.238,-0.737 -0.732,-0.737 -0.518,0 -0.757,0.33 -0.757,0.737 l 0,1.483 c 0,0.406 0.239,0.737 0.757,0.737 0.494,0 0.732,-0.359 0.732,-0.79 L 0.493,0 0,0 z"
         id="path542"
         style="fill:#ffffff;fill-opacity:1;fill-rule:nonzero;stroke:none" />
    </g>
    <g
       transform="matrix(8.1884616,0,0,-8.3778511,213.27573,958.2198)"
       id="g544">
      <path
         d="m 0,0 0,2.877 0.494,0 0,-1.064 0.007,0 0.519,1.064 0.494,0 L 0.981,1.805 1.582,0 1.079,0 0.677,1.339 0.67,1.339 0.494,1.02 0.494,0 0,0 z"
         id="path546"
         style="fill:#ffffff;fill-opacity:1;fill-rule:nonzero;stroke:none" />
    </g>
    <g
       transform="matrix(8.1884616,0,0,-8.3778511,228.53657,958.2198)"
       id="g548">
      <path
         d="m 0,0 0,2.877 1.324,0 0,-0.43 -0.829,0 0,-0.742 0.637,0 0,-0.43 -0.637,0 0,-0.845 0.884,0 L 1.379,0 0,0 z"
         id="path550"
         style="fill:#ffffff;fill-opacity:1;fill-rule:nonzero;stroke:none" />
    </g>
    <g
       transform="matrix(8.1884616,0,0,-8.3778511,245.66519,937.72338)"
       id="g552">
      <path
         d="m 0,0 -0.478,0 0,0.43 1.45,0 0,-0.43 -0.478,0 0,-2.447 L 0,-2.447 0,0 z"
         id="path554"
         style="fill:#ffffff;fill-opacity:1;fill-rule:nonzero;stroke:none" />
    </g>
    <g
       transform="matrix(8.1884616,0,0,-8.3778511,270.52782,942.16616)"
       id="g556">
      <path
         d="m 0,0 0,0.223 c 0,0.243 -0.112,0.347 -0.24,0.347 -0.2,0 -0.263,-0.104 -0.263,-0.319 l 0,-1.458 c 0,-0.215 0.063,-0.319 0.263,-0.319 0.18,0 0.24,0.104 0.24,0.291 l 0,0.347 0.494,0 0,-0.331 c 0,-0.407 -0.24,-0.737 -0.734,-0.737 -0.518,0 -0.757,0.33 -0.757,0.737 l 0,1.483 c 0,0.406 0.239,0.737 0.757,0.737 0.494,0 0.734,-0.359 0.734,-0.79 L 0.494,0 0,0 z"
         id="path558"
         style="fill:#ffffff;fill-opacity:1;fill-rule:nonzero;stroke:none" />
    </g>
    <g
       transform="matrix(8.1884616,0,0,-8.3778511,278.47881,958.2198)"
       id="g560">
      <path
         d="m 0,0 0,2.877 0.493,0 0,-2.447 0.778,0 L 1.271,0 0,0 z"
         id="path562"
         style="fill:#ffffff;fill-opacity:1;fill-rule:nonzero;stroke:none" />
    </g>
    <g
       transform="matrix(8.1884616,0,0,-8.3778511,291.36172,934.11839)"
       id="g564">
      <path
         d="m 0,0 0.493,0 0,-2.172 c 0,-0.211 0.085,-0.315 0.264,-0.315 0.179,0 0.263,0.104 0.263,0.315 l 0,2.172 0.494,0 0,-2.152 C 1.514,-2.646 1.227,-2.917 0.757,-2.917 0.287,-2.917 0,-2.646 0,-2.152 L 0,0 z"
         id="path566"
         style="fill:#ffffff;fill-opacity:1;fill-rule:nonzero;stroke:none" />
    </g>
    <g
       transform="matrix(8.1884616,0,0,-8.3778511,312.01548,954.81504)"
       id="g568">
      <path
         d="m 0,0 0.207,0 c 0.263,0 0.358,0.151 0.358,0.442 0,0.295 -0.112,0.443 -0.406,0.443 L 0,0.885 0,0 z m 0,1.291 0.179,0 c 0.187,0 0.331,0.128 0.331,0.366 0,0.267 -0.104,0.407 -0.323,0.407 L 0,2.064 0,1.291 z m -0.494,1.179 0.733,0 C 0.768,2.47 1.004,2.2 1.004,1.709 1.004,1.462 0.9,1.203 0.661,1.108 0.913,0.996 1.06,0.797 1.06,0.426 1.06,-0.048 0.848,-0.406 0.286,-0.406 l -0.78,0 0,2.876 z"
         id="path570"
         style="fill:#ffffff;fill-opacity:1;fill-rule:nonzero;stroke:none" />
    </g>
    <g
       transform="matrix(8.1884616,0,0,-8.3778511,163.66594,780.67218)"
       id="g572">
      <path
         d="m 0,0 c -0.295,-0.617 -0.751,-1.257 -1.43,-1.598 l -0.047,-0.137 0.13,-0.028 c 0.837,0.423 1.338,1.244 1.634,1.954 0.146,0.35 0.241,0.673 0.301,0.912 l -0.19,0 C 0.323,0.814 0.198,0.413 0,0"
         id="path574"
         style="fill:#ffffff;fill-opacity:1;fill-rule:nonzero;stroke:none" />
    </g>
    <g
       transform="matrix(8.1884616,0,0,-8.3778511,164.43811,727.92691)"
       id="g576">
      <path
         d="M 0,0 C -0.214,0.46 -0.472,0.851 -0.765,1.148 -0.796,1.088 -0.829,1.033 -0.862,0.983 -0.602,0.709 -0.366,0.35 -0.167,-0.078 0.189,-0.844 0.425,-1.825 0.481,-2.907 l 0.184,0 C 0.609,-1.8 0.369,-0.794 0,0"
         id="path578"
         style="fill:#ffffff;fill-opacity:1;fill-rule:nonzero;stroke:none" />
    </g>
    <g
       transform="matrix(8.1884616,0,0,-8.3778511,159.20732,779.81848)"
       id="g580">
      <path
         d="m 0,0 0.031,-0.626 c 0.125,0.18 0.241,0.382 0.347,0.604 0.182,0.38 0.301,0.748 0.374,1.023 l -0.367,0 C 0.228,0.364 0,0 0,0"
         id="path582"
         style="fill:#ffffff;fill-opacity:1;fill-rule:nonzero;stroke:none" />
    </g>
    <g
       transform="matrix(8.1884616,0,0,-8.3778511,161.69989,729.23051)"
       id="g584">
      <path
         d="M 0,0 C -0.184,0.397 -0.403,0.731 -0.64,0.987 -0.702,0.911 -0.757,0.855 -0.795,0.82 -0.838,0.671 -0.904,0.537 -0.984,0.419 -1.039,0.337 -1.099,0.265 -1.164,0.198 c 0.315,-0.342 0.872,-1.174 1.236,-2.711 0.019,-0.081 0.036,-0.16 0.051,-0.239 l 0.508,0 C 0.577,-1.732 0.358,-0.769 0,0"
         id="path586"
         style="fill:#ffffff;fill-opacity:1;fill-rule:nonzero;stroke:none" />
    </g>
    <g
       transform="matrix(8.1884616,0,0,-8.3778511,177.39962,749.76545)"
       id="g588">
      <path
         d="m 0,0 c 0,0.407 -0.02,0.805 -0.06,1.192 -0.267,-0.64 -0.449,-0.754 -0.449,-0.754 0.292,0.655 0.339,1.036 0.339,1.036 0.021,0.116 0.03,0.232 0.029,0.346 -0.211,1.335 -0.65,2.511 -1.241,3.4 -0.13,-0.969 -0.362,-1.234 -0.362,-1.234 0.172,0.696 0.152,1.08 0.152,1.08 0,1.023 -0.829,1.853 -1.853,1.853 -0.772,0 -1.434,-0.473 -1.712,-1.145 C -5.679,5.838 -6.092,5.739 -6.353,5.263 -6.516,4.966 -6.418,4.722 -6.32,4.58 c 0.135,0.241 0.392,0.409 0.744,0.393 -0.51,-0.081 -0.829,-0.649 -0.592,-1.189 0.157,-0.355 0.492,-0.441 0.702,-0.459 -0.087,0.811 0.525,0.879 0.525,0.879 0,0 -0.427,-0.254 -0.34,-0.879 0.086,-0.625 0.507,-0.625 0.613,-0.656 0.105,-0.031 0.637,-0.106 0.464,-0.471 0,0 1.393,0.378 1.362,1.505 0,0.505 -0.337,0.915 -0.753,0.915 -0.121,0 -0.236,-0.035 -0.337,-0.097 0.358,0.45 0.818,0.126 0.818,0.126 0.273,-0.192 0.457,-0.544 0.457,-0.944 0,0 0,-0.042 -0.003,-0.097 0.217,0.288 0.481,0.83 0.19,1.558 -0.446,1.114 -1.542,0.57 -1.678,0.347 0,0 0.185,0.472 0.796,0.515 0.193,0 0.402,-0.048 0.589,-0.177 0.189,-0.127 0.35,-0.331 0.464,-0.617 0.101,-0.251 0.142,-0.488 0.142,-0.703 0,-0.226 -0.045,-0.426 -0.111,-0.596 C -1.945,3.62 -1.655,3.198 -1.416,2.685 -1.025,1.845 -0.788,0.8 -0.733,-0.3 l 0.729,0 C -0.002,-0.201 0,-0.101 0,0"
         id="path590"
         style="fill:#ffffff;fill-opacity:1;fill-rule:nonzero;stroke:none" />
    </g>
    <g
       transform="matrix(8.1884616,0,0,-8.3778511,167.41216,779.66684)"
       id="g592">
      <path
         d="m 0,0 c -0.131,-0.315 -0.28,-0.6 -0.444,-0.853 l 0.648,0.193 c 0.352,0.397 0.613,1.252 0.718,1.643 l -0.602,0 C 0.259,0.731 0.158,0.38 0,0"
         id="path594"
         style="fill:#ffffff;fill-opacity:1;fill-rule:nonzero;stroke:none" />
    </g>
    <g
       transform="matrix(8.1884616,0,0,-8.3778511,214.03562,728.57787)"
       id="g596">
      <path
         d="M 0,0 C 0.199,0.428 0.435,0.787 0.695,1.061 0.662,1.111 0.629,1.166 0.597,1.226 0.305,0.929 0.047,0.538 -0.167,0.078 c -0.37,-0.795 -0.61,-1.8 -0.666,-2.907 l 0.185,0 C -0.592,-1.747 -0.356,-0.766 0,0"
         id="path598"
         style="fill:#ffffff;fill-opacity:1;fill-rule:nonzero;stroke:none" />
    </g>
    <g
       transform="matrix(8.1884616,0,0,-8.3778511,211.08696,779.07285)"
       id="g600">
      <path
         d="m 0,0 c 0.296,-0.709 0.797,-1.531 1.635,-1.954 l 0.129,0.028 -0.046,0.137 c -0.68,0.341 -1.135,0.981 -1.431,1.598 -0.198,0.413 -0.323,0.814 -0.398,1.103 l -0.19,0 C -0.241,0.673 -0.146,0.35 0,0"
         id="path602"
         style="fill:#ffffff;fill-opacity:1;fill-rule:nonzero;stroke:none" />
    </g>
    <g
       transform="matrix(8.1884616,0,0,-8.3778511,214.80124,780.0053)"
       id="g604">
      <path
         d="m 0,0 c 0.106,-0.222 0.222,-0.423 0.347,-0.604 l 0.031,0.626 c 0,0 -0.228,0.364 -0.385,1.002 l -0.367,0 C -0.3,0.749 -0.182,0.38 0,0"
         id="path606"
         style="fill:#ffffff;fill-opacity:1;fill-rule:nonzero;stroke:none" />
    </g>
    <g
       transform="matrix(8.1884616,0,0,-8.3778511,214.81352,750.28823)"
       id="g608">
      <path
         d="M 0,0 C 0.364,1.537 0.921,2.37 1.236,2.711 1.171,2.779 1.112,2.851 1.056,2.932 0.976,3.05 0.91,3.185 0.867,3.334 0.83,3.369 0.774,3.424 0.712,3.5 0.475,3.245 0.257,2.911 0.072,2.513 -0.286,1.744 -0.504,0.782 -0.558,-0.238 l 0.507,0 C -0.036,-0.16 -0.019,-0.08 0,0"
         id="path610"
         style="fill:#ffffff;fill-opacity:1;fill-rule:nonzero;stroke:none" />
    </g>
    <g
       transform="matrix(8.1884616,0,0,-8.3778511,251.45771,711.39238)"
       id="g612">
      <path
         d="m 0,0 c 0.098,0.142 0.196,0.386 0.033,0.683 -0.261,0.476 -0.674,0.575 -1.196,0.511 -0.278,0.672 -0.94,1.144 -1.712,1.144 -1.024,0 -1.853,-0.829 -1.853,-1.853 0,0 -0.02,-0.384 0.152,-1.079 0,0 -0.232,0.265 -0.363,1.234 -0.59,-0.889 -1.029,-2.065 -1.24,-3.401 -10e-4,-0.114 0.008,-0.229 0.029,-0.345 0,0 0.047,-0.381 0.339,-1.036 0,0 -0.182,0.114 -0.45,0.754 C -6.3,-3.775 -6.32,-4.174 -6.32,-4.58 c 0,-0.101 0.002,-0.201 0.004,-0.301 l 0.729,0 c 0.055,1.101 0.292,2.146 0.683,2.985 0.239,0.514 0.529,0.936 0.852,1.248 -0.066,0.171 -0.111,0.371 -0.111,0.597 0,0.215 0.041,0.452 0.142,0.703 0.114,0.286 0.275,0.489 0.463,0.617 0.188,0.128 0.397,0.177 0.59,0.177 0.611,-0.043 0.796,-0.515 0.796,-0.515 -0.136,0.222 -1.232,0.767 -1.678,-0.347 -0.291,-0.728 -0.027,-1.27 0.189,-1.558 -0.002,0.055 -0.002,0.097 -0.002,0.097 0,0.4 0.184,0.751 0.457,0.944 0,0 0.46,0.324 0.818,-0.126 -0.102,0.062 -0.216,0.097 -0.337,0.097 -0.416,0 -0.753,-0.41 -0.753,-0.915 -0.031,-1.127 1.362,-1.505 1.362,-1.505 -0.173,0.365 0.359,0.439 0.464,0.47 0.106,0.031 0.527,0.031 0.613,0.657 0.087,0.625 -0.34,0.879 -0.34,0.879 0,0 0.611,-0.068 0.525,-0.879 0.21,0.017 0.545,0.103 0.702,0.459 0.237,0.539 -0.082,1.108 -0.592,1.189 C -0.392,0.409 -0.136,0.24 0,0"
         id="path614"
         style="fill:#ffffff;fill-opacity:1;fill-rule:nonzero;stroke:none" />
    </g>
    <g
       transform="matrix(8.1884616,0,0,-8.3778511,208.01874,785.19454)"
       id="g616">
      <path
         d="M 0,0 0.649,-0.193 C 0.484,0.06 0.336,0.345 0.204,0.66 0.047,1.039 -0.055,1.391 -0.116,1.643 l -0.602,0 C -0.612,1.252 -0.351,0.397 0,0"
         id="path618"
         style="fill:#ffffff;fill-opacity:1;fill-rule:nonzero;stroke:none" />
    </g>
    <g
       transform="matrix(8.1884616,0,0,-8.3778511,186.28656,698.34808)"
       id="g620">
      <path
         d="m 0,0 c -0.182,0.228 -0.6,0.338 -0.6,0.338 -0.233,0.069 -0.413,0.141 -0.558,0.234 -0.052,0.033 -0.099,0.07 -0.141,0.11 -0.17,0.023 -0.351,0.094 -0.517,0.193 0.067,-0.246 0.171,-0.645 0.289,-1.158 l 1.2,-0.914 -1.129,0.546 c 0.115,-0.531 0.26,-1.194 0.37,-1.87 l 0.759,-0.64 -0.706,0.306 c 0.084,-0.551 0.159,-1.134 0.214,-1.732 0.059,-0.645 0.102,-1.268 0.133,-1.851 L 0,-6.438 0,0 z"
         id="path622"
         style="fill:#ffffff;fill-opacity:1;fill-rule:nonzero;stroke:none" />
    </g>
    <g
       transform="matrix(8.1884616,0,0,-8.3778511,181.15649,783.9697)"
       id="g624">
      <path
         d="m 0,0 0.627,-0.945 0,2.442 -0.615,0 C 0.02,0.572 0,0 0,0"
         id="path626"
         style="fill:#ffffff;fill-opacity:1;fill-rule:nonzero;stroke:none" />
    </g>
    <g
       transform="matrix(8.1884616,0,0,-8.3778511,189.30729,700.21131)"
       id="g628">
      <path
         d="M 0,0 -0.092,-0.102 -0.184,0 l 0,-6.215 0.184,0 L 0,0 z"
         id="path630"
         style="fill:#ffffff;fill-opacity:1;fill-rule:nonzero;stroke:none" />
    </g>
    <g
       transform="matrix(8.1884616,0,0,-8.3778511,187.79651,808.95999)"
       id="g632">
      <path
         d="M 0,0 0.092,-0.23 0.184,0 0.184,4.48 0,4.48 0,0 z"
         id="path634"
         style="fill:#ffffff;fill-opacity:1;fill-rule:nonzero;stroke:none" />
    </g>
    <g
       transform="matrix(8.1884616,0,0,-8.3778511,174.30848,690.71837)"
       id="g636">
      <path
         d="m 0,0 0,0 c -0.049,0.1 -0.077,0.22 -0.088,0.326 -0.003,0.028 -0.005,0.058 -0.005,0.089 0.001,0.177 0.045,0.394 0.22,0.568 C 0.301,1.157 0.629,1.258 0.882,1.102 0.222,1.131 0.065,0.635 0.095,0.345 0.134,-0.024 0.308,-0.222 0.94,-0.403 c 0,0 0.601,-0.149 0.8,-0.608 0.198,0.459 0.799,0.608 0.799,0.608 0.632,0.181 0.806,0.379 0.845,0.748 C 3.414,0.635 3.257,1.131 2.597,1.102 2.85,1.258 3.178,1.157 3.352,0.983 3.526,0.809 3.571,0.592 3.572,0.415 3.572,0.384 3.57,0.354 3.567,0.326 3.556,0.22 3.527,0.1 3.479,0 l 0,0 C 4.074,0.207 4.774,0.991 4.416,1.859 3.994,2.885 2.885,2.424 2.885,2.424 2.939,2.534 3.83,2.953 4.329,2.343 4.158,3.079 3.638,3.303 3.018,3.303 2.455,3.303 1.969,2.975 1.74,2.501 1.51,2.975 1.024,3.303 0.461,3.303 c -0.62,0 -1.14,-0.224 -1.311,-0.96 0.499,0.61 1.39,0.191 1.444,0.081 0,0 -1.109,0.461 -1.531,-0.565 C -1.295,0.991 -0.595,0.207 0,0"
         id="path638"
         style="fill:#ffffff;fill-opacity:1;fill-rule:nonzero;stroke:none" />
    </g>
    <g
       transform="matrix(8.1884616,0,0,-8.3778511,190.81724,791.88761)"
       id="g640">
      <path
         d="m 0,0 0.627,0.945 c 0,0 -0.02,0.572 -0.012,1.497 L 0,2.442 0,0 z"
         id="path642"
         style="fill:#ffffff;fill-opacity:1;fill-rule:nonzero;stroke:none" />
    </g>
    <g
       transform="matrix(8.1884616,0,0,-8.3778511,197.52604,736.77475)"
       id="g644">
      <path
         d="m 0,0 c 0.055,0.598 0.13,1.181 0.214,1.732 l -0.707,-0.306 0.76,0.64 c 0.11,0.675 0.254,1.339 0.37,1.869 L -0.493,3.389 0.708,4.304 C 0.826,4.816 0.929,5.216 0.996,5.462 0.831,5.363 0.65,5.292 0.48,5.269 l 0,0 C 0.438,5.228 0.39,5.192 0.338,5.158 0.194,5.066 0.014,4.994 -0.219,4.925 c 0,0 -0.418,-0.111 -0.6,-0.338 l 0,-6.438 0.686,0 C -0.103,-1.269 -0.06,-0.646 0,0"
         id="path646"
         style="fill:#ffffff;fill-opacity:1;fill-rule:nonzero;stroke:none" />
    </g>
    <g
       transform="matrix(8.1884616,0,0,-8.3778511,183.03984,760.87532)"
       id="g648">
      <path
         d="M 0,0 C 0.081,0 0.145,0.063 0.145,0.144 0.145,0.225 0.085,0.291 0,0.291 -0.085,0.291 -0.145,0.225 -0.145,0.144 -0.145,0.063 -0.081,0 0,0 m 1.924,-0.685 c -0.279,0 -0.367,0.167 -0.367,0.336 l 0.204,0 c -0.004,-0.104 0.059,-0.16 0.16,-0.16 0.133,0 0.174,0.087 0.174,0.244 0,0.138 -0.047,0.215 -0.163,0.215 -0.07,0 -0.126,-0.034 -0.164,-0.087 l -0.169,0 0,0.586 0.646,0 0,-0.176 -0.47,0 0,-0.233 c 0.059,0.042 0.121,0.068 0.203,0.068 0.239,0 0.321,-0.148 0.321,-0.378 0,-0.259 -0.107,-0.415 -0.375,-0.415 m -0.533,0.31 -0.156,0 0,-0.295 -0.195,0 0,0.295 -0.492,0 0,0.179 0.475,0.645 0.212,0 0,-0.666 0.156,0 0,-0.158 z M 0,-0.685 c -0.212,0 -0.375,0.111 -0.375,0.333 0,0.125 0.043,0.223 0.163,0.27 -0.089,0.045 -0.135,0.145 -0.135,0.243 0,0.208 0.153,0.304 0.347,0.304 0.194,0 0.347,-0.096 0.347,-0.304 0,-0.098 -0.046,-0.198 -0.135,-0.243 0.12,-0.047 0.163,-0.145 0.163,-0.27 0,-0.222 -0.163,-0.333 -0.375,-0.333 m -0.596,0.015 -0.185,0 0,0.84 -0.172,0 0,0.123 c 0.164,0.032 0.192,0.088 0.245,0.156 l 0.112,0 0,-1.119 z m 4.983,0.645 0,0.866 -7.428,0 0,-0.866 1.696,0 0,-0.184 -1.696,0 0,-0.866 7.428,0 0,0.866 -1.696,0 0,0.184 1.696,0 z m -3.668,-0.192 0.321,0 0,0.437 -0.004,0 -0.317,-0.437 z M 0,-0.171 c -0.106,0 -0.174,-0.069 -0.174,-0.175 0,-0.098 0.046,-0.166 0.174,-0.166 0.128,0 0.174,0.068 0.174,0.166 0,0.106 -0.068,0.175 -0.174,0.175"
         id="path650"
         style="fill:#ffffff;fill-opacity:1;fill-rule:nonzero;stroke:none" />
    </g>
  </g>
</svg>
