<?xml version="1.0" encoding="UTF-8" standalone="no"?>
<!-- Created with Inkscape (http://www.inkscape.org/) -->

<svg
   xmlns:dc="http://purl.org/dc/elements/1.1/"
   xmlns:cc="http://creativecommons.org/ns#"
   xmlns:rdf="http://www.w3.org/1999/02/22-rdf-syntax-ns#"
   xmlns:svg="http://www.w3.org/2000/svg"
   xmlns="http://www.w3.org/2000/svg"
   xmlns:sodipodi="http://sodipodi.sourceforge.net/DTD/sodipodi-0.dtd"
   xmlns:inkscape="http://www.inkscape.org/namespaces/inkscape"
   width="231.27788"
   height="231.27788"
   viewBox="0 0 61.19227 61.192274"
   version="1.1"
   id="svg8"
   inkscape:version="0.92.3 (2405546, 2018-03-11)"
   sodipodi:docname="Egypt_FA_logo.svg">
  <defs
     id="defs2" />
  <sodipodi:namedview
     id="base"
     pagecolor="#00ffff"
     bordercolor="#666666"
     borderopacity="1.0"
     inkscape:pageopacity="0"
     inkscape:pageshadow="2"
     inkscape:zoom="1.979899"
     inkscape:cx="99.240671"
     inkscape:cy="82.280299"
     inkscape:document-units="px"
     inkscape:current-layer="layer1"
     showgrid="false"
     units="px"
     fit-margin-top="0.5"
     fit-margin-left="0.5"
     fit-margin-right="0.5"
     fit-margin-bottom="0.5"
     inkscape:window-width="1920"
     inkscape:window-height="1001"
     inkscape:window-x="-9"
     inkscape:window-y="-9"
     inkscape:window-maximized="1" />
  <metadata
     id="metadata5">
    <rdf:RDF>
      <cc:Work
         rdf:about="">
        <dc:format>image/svg+xml</dc:format>
        <dc:type
           rdf:resource="http://purl.org/dc/dcmitype/StillImage" />
        <dc:title></dc:title>
      </cc:Work>
    </rdf:RDF>
  </metadata>
  <g
     inkscape:label="Layer 1"
     inkscape:groupmode="layer"
     id="layer1"
     transform="translate(-43.487211,-212.73123)">
    <path
       d="m 72.617838,222.94626 21.846965,25.31044 h 8.875887 c 0.20426,-1.22051 0.33796,-2.4649 0.39053,-3.73035 h -1.27388 L 72.617838,222.94626"
       style="fill:#231f20;fill-opacity:1;fill-rule:evenodd;stroke:none;stroke-width:0.03527778"
       id="path16"
       inkscape:connector-curvature="0" />
    <path
       d="m 103.63949,240.71004 -32.087006,-18.56282 26.908233,6.3941 c 0,0 3.186643,3.18805 4.685593,8.7757 0.22825,1.10913 0.39264,2.2419 0.49318,3.39302"
       style="fill:#ed1c24;fill-opacity:1;fill-rule:evenodd;stroke:none;stroke-width:0.03527778"
       id="path18"
       inkscape:connector-curvature="0" />
    <path
       d="m 60.362796,241.06282 -14.093191,-8.09026 c -0.688199,1.8475 -1.197928,3.78213 -1.507843,5.78238 l 20.130242,4.70564 -4.529208,-2.39776"
       style="fill:#231f20;fill-opacity:1;fill-rule:evenodd;stroke:none;stroke-width:0.03527778"
       id="path20"
       inkscape:connector-curvature="0" />
    <path
       d="m 44.459008,241.65019 20.432996,1.81039 -20.153137,4.243 c -0.212902,-1.42851 -0.328084,-2.88813 -0.328084,-4.37625 0,-0.56307 0.01722,-1.12187 0.04822,-1.67714"
       style="fill:#ed1c24;fill-opacity:1;fill-rule:evenodd;stroke:none;stroke-width:0.03527778"
       id="path22"
       inkscape:connector-curvature="0" />
    <path
       d="m 60.226518,267.21646 -2.078497,-1.18417 1.889443,-3.31474 2.049145,1.1672 -0.345898,0.60745 -1.346906,-0.76743 -0.39617,0.69536 1.284888,0.73258 -0.346322,0.60688 -1.28517,-0.73201 -0.454307,0.79692 1.37608,0.78437 z m 28.601954,-0.0127 -0.794103,0.35514 -0.551745,-0.58071 -1.323622,0.59242 0.08678,0.78811 -0.781402,0.34974 -0.364773,-4.01659 0.855839,-0.38213 z m -2.917473,-1.87579 0.17145,1.54823 0.911578,-0.40859 z m -1.348316,0.35694 -1.351139,0.459 0.273402,0.80479 1.351139,-0.45861 0.224367,0.66227 -1.350081,0.45903 0.503414,1.48304 -0.765527,0.25947 -1.227314,-3.61294 2.116666,-0.71878 z m -2.724856,4.13191 -0.668867,0.12499 -2.212269,-2.07314 0.450144,2.40344 -0.795161,0.14813 -0.701322,-3.7502 0.729191,-0.1367 2.130425,1.97541 -0.428977,-2.29291 0.795161,-0.14909 z m -3.554236,0.65648 -0.869245,0.0537 -0.312914,-0.73657 -1.447094,0.0908 -0.194734,0.76867 -0.854921,0.0529 1.067646,-3.88924 0.935214,-0.0588 z m -2.074687,-2.77992 -0.382411,1.50936 0.996597,-0.0617 z m -1.778106,-0.8581 -0.808108,-0.0129 -0.06269,3.8148 0.808496,0.0136 z m -0.929922,0.72528 -1.170234,-0.10545 -0.281376,3.10335 -0.804933,-0.0733 0.28127,-3.10349 -1.160322,-0.10527 c 0.02053,0.14316 0.01588,0.28829 -0.01019,0.42249 -0.103082,0.5267 -0.537986,1.06895 -1.271094,0.92618 l -0.629743,-0.12319 -0.293547,1.50481 -0.793468,-0.15448 0.701287,-3.59682 -1.698025,1.47285 -0.517984,1.70769 -0.773359,-0.23414 0.517454,-1.70878 -0.635,-2.31398 0.937331,0.28441 0.32646,1.35022 1.025243,-0.94078 0.842822,0.2552 0.004,-0.0211 1.418978,0.2763 c 0.520065,0.10156 0.775265,0.46841 0.842822,0.85591 l 0.06008,-0.65966 3.14452,0.28497 z m -4.912854,0.2552 0.368794,0.0719 c 0.363784,0.0711 0.524616,-0.0569 0.57919,-0.33747 0.06198,-0.31835 -0.06946,-0.4633 -0.498722,-0.54765 l -0.280282,-0.0549 z m -3.968856,-1.60638 c -0.286244,-0.38089 -0.605931,-0.64742 -0.972221,-0.80617 -0.806838,-0.35055 -1.344542,0.11134 -1.569437,0.6295 -0.269417,0.62163 -0.03295,1.21186 0.582083,1.47863 0.182986,0.0797 0.283598,0.0991 0.546241,0.0914 l 0.178329,-0.41081 -0.43187,-0.18711 0.278059,-0.64191 1.173551,0.50934 -0.621066,1.43217 c -0.340959,0.1749 -0.977335,0.13645 -1.457007,-0.072 -1.038366,-0.45021 -1.452316,-1.51419 -0.998397,-2.56152 0.463445,-1.06715 1.514722,-1.48304 2.574714,-1.0232 0.444712,0.19336 0.825747,0.49873 1.048985,0.79693 l -0.331964,0.76482"
       style="fill:#231f20;fill-opacity:1;fill-rule:evenodd;stroke:none;stroke-width:0.03527778"
       id="path24"
       inkscape:connector-curvature="0" />
    <path
       d="m 56.679584,255.52491 h -4.595883 v -3.32218 h 0.8745 v 2.4978 h 2.847164 v -0.77402 h -1.773273 v -2.54812 h 2.647492 v 0.82434 h -1.773273 v 0.84956 h 1.773273 z m 36.013921,5.12021 c -3.203222,0 -6.406797,0 -9.61002,0 v 2.52265 h -2.672644 v -0.87422 h 1.798461 v -4.12119 h 0.874183 v 1.59854 h 5.965473 v -0.74965 H 84.92816 v -2.54744 h 4.120798 v 0.87436 h -3.296709 v 0.79939 h 4.170892 v 1.62334 c 0.631825,0 1.264003,0 1.896181,0 v -3.9715 h 0.874183 z m -13.109576,0 h -2.647597 v -2.47276 h 1.773414 c 0.01729,-0.18962 0.01729,-0.38957 0,-0.59958 h 0.874183 z m -1.199091,-3.62175 h -0.674159 v -0.69949 h 0.674159 z m 0.324908,2.74753 v -0.72414 h -0.899231 v 0.72414 z m 0.874183,-2.74753 h -0.699558 v -0.69949 h 0.699558 z m -5.972951,3.62175 h -0.824195 v -4.84572 h 0.824195 z m -1.906764,0 c -3.194438,0 -6.389159,0 -9.583597,0 v -0.87422 h 1.573601 v -0.72291 c -0.166617,-0.0288 -0.33334,-0.0288 -0.499675,0 v -0.87563 h 1.373752 v 1.59854 c 0.568431,0 1.137285,0 1.705893,0 v -1.57346 h 2.647491 v 1.57346 c 0.636094,0 1.272329,0 1.908422,0 v -3.9715 h 0.874113 z m -4.406018,-3.24721 h -0.699347 v -0.69935 h 0.699347 z m 0.749229,1.67379 h -0.89916 v 0.6992 h 0.89916 z m 0.424709,-1.67379 h -0.699346 v -0.69935 h 0.699346 z m -7.355417,2.87239 c 0,0.41839 -0.142875,0.77269 -0.427743,1.06383 -0.284692,0.28942 -0.639939,0.43494 -1.065354,0.43494 -0.705414,0 -1.183604,-0.37472 -1.434959,-1.12395 h -0.319016 v 3.34656 H 56.995708 V 259.7709 H 58.2063 c 0.287761,-0.66572 0.753393,-0.9992 1.397353,-0.9992 0.451309,0 0.816469,0.13821 1.095128,0.41437 0.278624,0.27559 0.417936,0.63694 0.417936,1.08423 z m -1.024008,-0.0514 c 0,-0.12954 -0.04823,-0.24144 -0.144709,-0.3332 -0.09673,-0.0938 -0.212337,-0.1396 -0.347098,-0.1396 -0.338314,0 -0.50726,0.16659 -0.50726,0.50091 0,0.31532 0.163971,0.4728 0.49209,0.4728 0.338032,0 0.506977,-0.16701 0.506977,-0.50091 z m 37.003816,-5.96773 h -0.824442 v -4.84587 h 0.824442 z m -1.880306,0 h -3.796594 v -0.82448 h 1.099255 v -3.97108 h 0.823736 v 3.97108 h 0.99942 v -3.97108 h 0.874183 z m -4.425597,0 c -2.854678,0 -5.709709,0 -8.564387,0 v -4.87067 h 0.874184 v 3.99631 c 1.239308,0 2.478969,0 3.71863,0 v -0.67441 h -1.998133 v -0.87422 h 2.872317 v 1.62359 h 2.2733 v -1.62359 h 0.824089 z m -1.923345,-3.24736 h -0.674158 v -0.67454 h 0.674158 z m 1.173692,0 h -0.649111 v -0.67454 h 0.649111 z m -8.657873,3.24736 h -2.398183 v -0.87436 h 1.598789 v -0.69921 c -0.165453,-0.0194 -0.340431,-0.0194 -0.524934,0 v -0.87425 h 1.324328 z m -5.82295,0 h -0.824407 v -4.84587 h 0.824407 z m -1.790136,0 h -2.068442 c -0.105269,0.20009 -0.206269,0.39715 -0.301766,0.58924 -0.268323,0.37278 -0.641773,0.55937 -1.120352,0.55937 -0.479143,0 -0.842962,-0.18165 -1.091812,-0.54529 -0.0962,-0.20147 -0.196532,-0.40323 -0.30166,-0.60332 -2.947494,0 -5.895129,0 -8.842481,0 v 2.5225 h -2.672398 v -0.87408 h 1.798179 v -4.12133 h 0.874219 v 1.59855 h 1.769568 v -2.19813 h 0.874219 v 0.57478 h 4.488392 v 1.62335 c 0.570794,0 1.14173,0 1.712348,0 0.115076,-0.0763 0.230011,-0.20821 0.345087,-0.39578 0.115182,-0.18659 0.225566,-0.31846 0.3314,-0.39494 0.162736,-0.10611 0.402378,-0.15861 0.719349,-0.15861 0.335562,0 0.589915,0.0558 0.762459,0.1681 0.105269,0.0739 0.215794,0.20422 0.33087,0.38986 0.115358,0.18672 0.225707,0.31721 0.331011,0.39137 h 1.237474 v -3.9212 h 0.824336 z m -2.997235,-0.39811 c 0,-0.31006 -0.171274,-0.46525 -0.513856,-0.46525 -0.323709,0 -0.485211,0.15988 -0.485211,0.47999 0,0.1451 0.04713,0.2661 0.142487,0.36298 0.09507,0.0959 0.214418,0.14481 0.356905,0.14481 0.133244,0 0.249979,-0.0539 0.349603,-0.15984 0.100189,-0.10598 0.150072,-0.22694 0.150072,-0.36269 z m -4.471318,-1.22591 h -3.614173 v 0.74966 c 1.204525,0 2.409508,0 3.614173,0 z m -12.044751,4.04633 H 53.5575 v -0.64904 h 0.699206 z m 1.173974,0 h -0.699241 v -0.64904 h 0.699241 v 0.64904"
       style="fill:#00a650;fill-opacity:1;fill-rule:evenodd;stroke:none;stroke-width:0.03527778"
       id="path26"
       inkscape:connector-curvature="0" />
    <path
       d="m 68.117698,244.353 -1.193235,0.0604 -0.01792,8.1e-4 -0.01817,-8.1e-4 -1.202761,-0.0604 -0.01034,-4.3e-4 -0.02702,-0.004 -1.168577,-0.17156 -0.01873,-0.003 -0.01845,-0.005 -1.125714,-0.28554 -0.01559,-0.004 -0.02191,-0.008 -1.081052,-0.39493 -0.03143,-0.012 -1.039601,-0.48412 -0.0091,-0.004 -0.02519,-0.0153 -0.968234,-0.58194 -0.01817,-0.011 -0.01161,-0.009 -0.903569,-0.66184 -0.02688,-0.0198 -0.0031,-0.003 -0.840599,-0.75424 -0.02233,-0.024 -0.769091,-0.81774 -0.01407,-0.0152 -0.01143,-0.0148 -0.677581,-0.89041 -0.0091,-0.012 -0.01034,-0.0162 -0.596265,-0.94791 -0.01461,-0.0229 -0.0062,-0.0131 -0.496499,-1.01317 -0.0043,-0.009 -0.0091,-0.024 -0.395076,-1.04811 -0.0073,-0.0194 -0.0048,-0.018 -0.291994,-1.1049 -0.003,-0.012 -0.0043,-0.0268 -0.177905,-1.14088 -0.0058,-0.0388 h -2.82e-4 l -0.06244,-1.18251 -8.11e-4,-0.0197 8.11e-4,-0.019 0.06244,-1.16488 0.0061,-0.0388 0.177905,-1.14618 0.0043,-0.0268 0.003,-0.012 0.291994,-1.0989 0.0036,-0.0123 0.0085,-0.0236 0.395076,-1.0541 0.0091,-0.0243 0.0056,-0.0116 0.496499,-1.00753 0.0095,-0.019 0.0084,-0.0138 0.596406,-0.95638 0.0091,-0.0141 0.01171,-0.0155 0.677581,-0.88582 0.01132,-0.0145 0.01266,-0.0138 0.768949,-0.82304 0.0088,-0.01 0.01806,-0.0159 0.84074,-0.74577 0.01475,-0.0127 0.01073,-0.008 0.903605,-0.66781 0.01542,-0.0116 0.01584,-0.01 0.968234,-0.58208 0.01789,-0.0106 0.01503,-0.007 1.03946,-0.48966 0.02342,-0.0109 0.01104,-0.004 1.081052,-0.38911 0.0164,-0.006 0.01806,-0.005 1.125573,-0.28787 0.01792,-0.005 0.0194,-0.003 1.168577,-0.17533 0.02536,-0.004 0.01199,-0.001 1.202902,-0.0656 0.02039,-0.001 0.01983,0.001 1.193376,0.0656 0.0074,7.1e-4 0.02702,0.004 1.171046,0.17533 0.02332,0.004 0.01556,0.004 1.125431,0.28787 0.01806,0.005 0.01626,0.006 1.08204,0.38911 0.01887,0.007 0.01708,0.008 1.023902,0.48966 0.0072,0.003 0.02424,0.0145 0.977336,0.58208 0.01542,0.01 0.01598,0.012 0.903182,0.66781 0.02533,0.0208 0.843386,0.74577 0.01976,0.0173 0.0088,0.01 0.760589,0.82303 0.01094,0.0116 0.01164,0.0152 0.679097,0.88582 0.01164,0.0155 0.0092,0.0141 0.595489,0.95638 0.01164,0.0187 0.0063,0.0127 0.505178,1.00718 0.0081,0.0166 0.0085,0.0226 0.386645,1.0541 0.01058,0.0314 0.29845,1.0989 0.0021,0.008 0.0053,0.0328 0.18415,1.14618 0.0056,0.0363 3.52e-4,0.004 0.05927,1.16488 7.06e-4,0.0183 -7.06e-4,0.019 -0.05927,1.18216 -3.52e-4,0.006 -0.0056,0.0356 -0.18415,1.14088 -0.0046,0.0293 -0.0028,0.01 -0.29845,1.10455 -0.0046,0.0162 -0.006,0.0166 -0.386645,1.04845 -0.0088,0.0229 -0.0078,0.0159 -0.505178,1.01353 -0.0049,0.01 -0.01446,0.0229 -0.595489,0.94791 -0.01023,0.0162 -0.0092,0.012 -0.679097,0.89041 -0.01058,0.0141 -0.01341,0.0145 -0.760589,0.81739 -0.02293,0.0247 -0.0011,10e-4 -0.843527,0.75424 -0.0033,0.003 -0.0266,0.0198 -0.903182,0.66184 -0.02272,0.0168 -0.0072,0.004 -0.977336,0.58208 -0.0067,0.004 -0.02618,0.0124 -1.023902,0.48422 -0.01432,0.007 -0.01859,0.007 -1.081899,0.39493 -0.02191,0.008 -0.01559,0.004 -1.12529,0.28554 -0.01873,0.005 -0.01877,0.003 -1.171046,0.17156 -0.02688,0.004 -0.01048,5.7e-4"
       style="fill:#231f20;fill-opacity:1;fill-rule:nonzero;stroke:none;stroke-width:0.03527778"
       id="path28"
       inkscape:connector-curvature="0" />
    <path
       d="m 63.338688,221.49035 -0.452155,2.64936 -4.012565,2.58163 -1.803012,-0.58773 0.320675,-0.43709 0.373979,-0.45191 0.392607,-0.43921 0.35059,-0.35066 0.427602,-0.41592 0.451309,-0.39441 0.757767,-0.57679 0.561128,-0.37747 0.514421,-0.30516 0.69469,-0.33866 0.787682,-0.33302 z m 0.712435,16.04328 4.613804,0.1397 2.04269,2.78624 -1.647755,2.91352 -5.124909,-0.26145 -2.233119,-3.11809 z m 5.008739,-0.32985 1.318931,-3.25014 3.810705,-1.38959 1.71002,2.51601 -1.186921,3.18346 -3.547498,1.73003 z m 7.363531,-1.85032 -1.116894,3.04447 -0.01799,0.0885 0.935214,1.02305 0.195439,-0.23212 0.182386,-0.24695 0.222603,-0.33831 0.351719,-0.54434 0.312914,-0.56374 0.291747,-0.65087 0.225073,-0.58773 0.205316,-0.60607 0.12947,-0.43921 0.08819,-0.39829 -1.417814,0.3175 z m -19.125884,3.04447 -0.226553,0.44627 -0.5588,-0.94827 -0.249838,-0.5648 -0.287196,-0.56444 -0.184221,-0.51929 -0.169509,-0.44274 -0.145803,-0.52564 -0.109397,-0.53481 -0.05775,-0.3944 0.999208,0.20461 0.930452,3.58175 z m 5.185693,-5.21864 -3.346979,-1.41146 -2.299406,2.64936 0.913906,3.84633 3.490701,1.33139 2.260283,-2.42359 z m 4.93903,-3.20287 0.516749,-3.37996 4.082169,-1.1938 2.952714,2.78341 -0.987354,3.71581 -3.504495,1.27388 -3.059783,-2.79753 z m 4.925096,-5.11175 3.034665,3.01801 2.118784,-0.43956 -0.146403,-0.27058 -0.248709,-0.43039 -0.617361,-0.93521 -0.470253,-0.62724 -0.636058,-0.69779 -0.681108,-0.64806 -0.573969,-0.4512 -1.045916,-0.70732 -0.845997,-0.48401 z m -13.015702,6.10411 -0.06904,-3.84668 3.948218,-2.52201 4.010202,1.99637 -0.591714,3.57928 -3.813599,2.31951 -2.031753,-0.92921 -1.452316,-0.59726"
       style="fill:#ffffff;fill-opacity:1;fill-rule:evenodd;stroke:none;stroke-width:0.03527778"
       id="path30"
       inkscape:connector-curvature="0" />
    <path
       d="m 104.54719,243.32733 c 0,8.41238 -3.40995,16.02835 -8.922454,21.54121 -5.512859,5.51272 -13.128979,8.92267 -21.541212,8.92267 -8.412375,0 -16.028671,-3.40995 -21.541495,-8.92267 -5.512576,-5.51271 -8.922526,-13.12883 -8.922526,-21.54121 0,-8.41237 3.40995,-16.02849 8.922526,-21.541 5.512824,-5.51286 13.12912,-8.92281 21.541495,-8.92281 8.412233,0 16.028353,3.4096 21.541212,8.92281 5.512854,5.51286 8.922454,13.12863 8.922454,21.541 z m -25.546402,-12.13559 9.492898,16.66505 H 102.6115 c 0.23213,-1.47574 0.35313,-2.98814 0.35313,-4.52946 0,-7.97528 -3.232502,-15.19594 -8.458905,-20.42234 -0.774347,-0.774 -1.592439,-1.50389 -2.450042,-2.18687 l -19.403273,1.28693 -1.009685,-0.4826 -0.01708,-0.008 -0.01887,-0.007 -0.552874,-0.19896 20.033758,-1.32856 c -2.059517,-1.50248 -4.325409,-2.73932 -6.747581,-3.65937 l -14.301365,4.67184 -0.673735,-0.17251 -0.01556,-0.004 -0.02332,-0.004 -0.907274,-0.13582 14.687586,-4.79213 c -1.833034,-0.6022 -3.746853,-1.02624 -5.720998,-1.2506 l -9.309876,5.99616 -1.148327,-0.0631 -0.01983,-10e-4 -0.02039,10e-4 -0.203835,0.0113 9.411441,-6.06178 c -0.66428,-0.0459 -1.335158,-0.0699 -2.01108,-0.0699 -1.075443,0 -2.136775,0.0593 -3.181491,0.17392 l -5.9454,6.12034 -0.478473,0.0716 -0.0194,0.003 -0.01792,0.005 -0.895033,0.22895 6.081678,-6.26039 c -1.654458,0.25647 -3.262489,0.65264 -4.811678,1.17722 l -2.330944,5.43913 -0.285115,0.10265 -0.01104,0.004 -0.02342,0.0109 -0.749794,0.35313 2.374653,-5.54072 c -0.961461,0.36653 -1.898121,0.78352 -2.806947,1.24671 l -0.856157,5.02885 -0.0024,0.001 -0.01584,0.01 -0.01542,0.0116 -0.891611,0.65899 0.891611,-5.23699 c -0.674441,0.3743 -1.332442,0.7747 -1.972416,1.1998 l 0.132291,4.88456 -0.725522,0.77647 -0.01266,0.0138 -0.01132,0.0145 -0.02769,0.0363 -0.140265,-5.18548 c -0.637364,0.45438 -1.255395,0.93416 -1.852648,1.43757 l 0.651404,5.73088 -0.440019,0.89288 -0.0056,0.0116 -0.0091,0.0243 -0.186302,0.49671 -0.740975,-6.51968 c -0.372639,0.33584 -0.736988,0.68086 -1.09153,1.0354 -0.239783,0.23989 -0.475156,0.48436 -0.706402,0.73237 l 2.188069,5.83459 -0.162066,0.6096 -0.003,0.012 -0.0043,0.0268 -0.128164,0.82621 -2.491493,-6.64351 c -0.705555,0.80504 -1.366732,1.64959 -1.98053,2.53012 l 4.367284,5.92737 0.04893,0.93098 h 2.82e-4 l 0.0058,0.0388 0.08901,0.57009 -4.984891,-6.76593 c -0.608436,0.92992 -1.164872,1.89689 -1.664829,2.89666 l 7.428583,6.62552 0.01655,0.0438 0.0091,0.024 0.0043,0.009 0.496499,1.01317 0.0062,0.0131 0.01461,0.0229 0.596265,0.94791 0.01034,0.0162 0.0091,0.012 0.0109,0.0145 -8.96292,-7.99395 c -1.714676,3.69288 -2.67215,7.80874 -2.67215,12.14794 0,1.54132 0.121285,3.05386 0.354012,4.52946 h 15.043081 l 6.469909,-3.45088 1.048667,-0.0529 0.01048,-5.7e-4 0.02688,-0.004 0.98365,-0.14387 -6.848017,3.65221 h 4.383511 l 3.11838,-3.79621 0.696312,-0.17667 0.01559,-0.004 0.02191,-0.008 0.644913,-0.23537 -3.466712,4.22025 h 2.530193 l 2.732087,-5.05422 0.708484,-0.42181 0.0072,-0.004 0.02272,-0.0168 0.675393,-0.49498 -3.239241,5.99211 h 1.994324 l 2.085093,-6.70261 0.26102,-0.23318 0.0011,-10e-4 0.02293,-0.0247 0.760589,-0.81739 0.01341,-0.0145 0.01058,-0.0141 0.162983,-0.21378 -2.48218,8.02129 h 2.391869 l 1.35502,-9.93617 0.390878,-0.78422 0.0078,-0.0159 0.0088,-0.0229 0.386645,-1.04845 0.006,-0.0166 0.0046,-0.0162 0.29845,-1.10455 0.0028,-0.01 0.0046,-0.0293 0.18415,-1.14088 0.0056,-0.0356 3.52e-4,-0.006 0.05927,-1.18216 7.06e-4,-0.019 -7.06e-4,-0.0183 -0.05927,-1.16488 -3.52e-4,-0.004 -0.0056,-0.0363 z m 23.472772,17.46458 H 45.693448 c 1.089202,5.8389 3.934425,11.06015 7.967557,15.09325 5.226333,5.22637 12.446989,8.45908 20.422519,8.45908 7.975495,0 15.195798,-3.23286 20.422201,-8.45908 4.033308,-4.03324 6.878815,-9.25435 7.967835,-15.09325 z m -14.897097,-0.79953 -8.139289,-14.28874 4.225572,14.28874 z m -4.745214,0 -3.925006,-13.26709 0.970139,13.26709 z m -3.758495,0 -0.6604,-9.12725 -1.2446,9.12725 h 1.905"
       style="fill:#231f20;fill-opacity:1;fill-rule:nonzero;stroke:none;stroke-width:0.03527778"
       id="path32"
       inkscape:connector-curvature="0" />
  </g>
</svg>
