<?xml version="1.0" encoding="UTF-8" standalone="no"?>
<!DOCTYPE svg PUBLIC "-//W3C//DTD SVG 1.1//EN" "http://www.w3.org/Graphics/SVG/1.1/DTD/svg11.dtd">
<svg xmlns="http://www.w3.org/2000/svg" xmlns:xlink="http://www.w3.org/1999/xlink" version="1.1" width="2480" height="3508" viewBox="0 0 2480 3508" xml:space="preserve">
<desc>Created with Fabric.js 3.2.0</desc>
<defs>
</defs>
<g id="id_1581502594641" clip-path="url(#CLIPPATH_1)">
<g transform="matrix(11.433623531192998 0 0 5.242762054485331 1239.009267504024 1850.7820550882566)">
<clipPath id="CLIPPATH_1">
	<rect transform="matrix(1 0 0 1 1240.1458154812908 1851.9444444444446)" x="-1239.6458154812908" y="-1656.5555555555557" rx="0" ry="0" width="2479.2916309625816" height="3313.1111111111113"/>
</clipPath>
<g style="">
		<g transform="matrix(1.098932093023256 0 0 1.098932093023256 -1.421e-14 0)" id="__x0023_Layer_x0020_1">
<path style="stroke: none; stroke-width: 1; stroke-dasharray: none; stroke-linecap: butt; stroke-dashoffset: 0; stroke-linejoin: miter; stroke-miterlimit: 4; fill: rgb(55,52,53); fill-rule: nonzero; opacity: 1;" transform=" translate(-69.29903810567666, -64.22222222222223)" d="M 96 11 c 0 0 -1 -2 -1 -3 c 0 -1 0 -2 3 -4 c 2 -1 6 -4 8 -4 c 2 0 5 0 5 1 c 0 1 -1 2 1 2 c 1 0 4 1 5 1 c 1 -1 2 -4 4 -3 c 3 0 3 2 4 2 c 1 1 3 3 3 4 c 0 2 1 3 0 3 c 0 0 6 3 8 9 c 3 7 3 12 2 14 c -1 2 -2 4 -3 6 c -1 1 -3 3 -5 3 c -2 1 -5 1 -6 1 c -2 0 -7 0 -8 -2 c -2 -3 -5 -6 -6 -7 c -1 0 -1 -1 -2 0 c 0 1 -5 9 -6 10 c 0 1 0 4 0 7 c 1 3 2 14 1 16 c -1 2 -2 6 -2 8 c 0 1 0 5 0 7 c 0 3 2 5 2 9 c -1 5 -2 6 -1 10 c 0 4 0 6 0 9 c 0 2 -1 6 -1 9 c 0 3 1 5 0 6 c 0 1 -3 2 -5 2 c -2 0 -4 -1 -6 -2 c -2 -1 -2 -3 -3 -4 c -2 0 -1 3 -2 4 c -1 1 -4 3 -6 3 c -3 0 -9 1 -9 0 c -1 -2 -3 -4 -2 -6 c 0 -2 0 -7 -1 -10 c -1 -2 -1 -4 -2 -7 c 0 -2 1 -4 0 -7 c -1 -3 0 -7 0 -8 c 0 -1 0 -1 -2 -2 c -2 -1 -6 -4 -6 -3 c 0 1 2 2 0 4 c -1 2 -3 4 -4 5 c -1 2 -2 3 -5 5 c -3 2 -4 2 -4 4 c 0 2 -1 5 -2 6 c 0 2 1 4 0 5 c -1 1 -4 2 -6 1 c -2 0 -4 -1 -5 -4 c -1 -2 -1 -5 -1 -8 c 0 -3 -1 -6 1 -9 c 2 -2 2 0 4 -3 c 2 -3 4 -6 4 -8 c 0 -2 0 -4 -1 -6 c -1 -2 -1 -4 -2 -3 c -1 1 -4 4 -4 7 c -1 2 -2 4 -4 7 c -3 3 -6 8 -8 10 c -2 3 -7 8 -7 10 c -1 1 -1 3 0 5 c 0 2 -1 4 -5 4 c -4 1 -7 -4 -8 -6 c 0 -2 0 -9 1 -10 c 1 -1 4 -4 4 -6 c 0 -1 2 -9 3 -12 c 2 -2 5 -9 6 -11 c 1 -2 3 -7 3 -9 c 1 -2 3 -6 5 -8 c 1 -1 4 -6 5 -7 c 1 -1 4 -2 4 -3 c 0 -1 -2 -8 -1 -10 c 0 -1 0 -5 1 -7 c 0 -2 2 -5 3 -7 c 0 -1 2 -7 3 -7 c 2 1 3 5 2 6 c 0 2 -2 5 -2 7 c -1 2 -2 3 -1 5 c 0 3 0 5 1 6 c 1 2 1 3 4 4 c 2 0 9 -1 13 -1 c 4 0 16 -5 19 -6 c 2 -2 8 -8 10 -10 c 2 -1 6 -6 7 -8 c 1 -1 6 -6 6 -6 z" stroke-linecap="round"/>
</g>
</g>
</g>
</g>
</svg>
