<?xml version="1.0" encoding="utf-8"?>
<!-- Generator: Adobe Illustrator 25.2.0, SVG Export Plug-In . SVG Version: 6.00 Build 0)  -->
<svg version="1.1" id="Layer_1" xmlns="http://www.w3.org/2000/svg" xmlns:xlink="http://www.w3.org/1999/xlink" x="0px" y="0px"
	 viewBox="0 0 184.25 184.25" enable-background="new 0 0 184.25 184.25" xml:space="preserve">
<path fill="#6C6C6C" d="M92.12,0.01c-50.882,0-92.13,41.248-92.13,92.13s41.248,92.13,92.13,92.13s92.13-41.248,92.13-92.13
	c0-0.003,0-0.007,0-0.01C184.189,41.275,142.975,0.065,92.12,0.01z M130.86,153.67l-4-6.84c-0.465-0.785-1.308-1.267-2.22-1.27
	c-0.454-0.005-0.901,0.116-1.29,0.35c-0.588,0.341-1.016,0.903-1.19,1.56c-0.185,0.675-0.091,1.395,0.26,2l4,6.84
	c-9.103,4.89-19.149,7.768-29.46,8.44v-9.74c-0.002-2.679-2.175-4.848-4.854-4.846c-2.676,0.002-4.844,2.171-4.846,4.846v9.64
	c-10.139-0.662-20.024-3.457-29.01-8.2l3.94-6.86c0.693-1.232,0.257-2.793-0.976-3.486c-0.008-0.005-0.016-0.009-0.024-0.014
	c-0.385-0.225-0.824-0.342-1.27-0.34c-0.923,0-1.777,0.492-2.24,1.29l-3.92,6.85c-8.751-5.468-16.248-12.723-22-21.29l8.33-4.81
	c2.275-1.414,2.973-4.404,1.559-6.679c-1.348-2.168-4.146-2.921-6.399-1.721l-8.35,4.82c-4.506-9.132-7.031-19.114-7.41-29.29h7.92
	c0.679,0,1.33-0.27,1.81-0.75c0.482-0.482,0.749-1.138,0.74-1.82c0-1.414-1.146-2.56-2.56-2.56h-7.93
	c0.304-10.341,2.824-20.497,7.39-29.78l8.39,4.86c0.732,0.425,1.563,0.65,2.41,0.65c2.679,0.003,4.852-2.167,4.855-4.845
	c0.002-1.734-0.923-3.337-2.425-4.205l-8.33-4.81c5.68-8.447,13.057-15.619,21.66-21.06l4,6.83c0.223,0.392,0.548,0.717,0.94,0.94
	c1.232,0.705,2.802,0.279,3.507-0.953c0.456-0.796,0.453-1.774-0.007-2.567l-4-6.83c9.081-4.885,19.102-7.77,29.39-8.46v9.65
	c0.002,2.679,2.175,4.848,4.854,4.846c2.676-0.002,4.844-2.171,4.846-4.846v-9.65c10.163,0.67,20.07,3.481,29.07,8.25l-3.94,6.86
	c-0.691,1.24-0.247,2.805,0.993,3.496c0.002,0.001,0.005,0.003,0.007,0.004c1.232,0.693,2.793,0.257,3.486-0.976
	c0.005-0.008,0.009-0.016,0.014-0.024l3.94-6.85c8.752,5.467,16.249,12.722,22,21.29l-8.33,4.81
	c-2.331,1.319-3.152,4.278-1.834,6.609c1.319,2.331,4.278,3.152,6.609,1.834c0.025-0.014,0.05-0.028,0.075-0.043l8.34-4.82
	c4.511,9.13,7.037,19.113,7.41,29.29h-7.91c-1.417,0.011-2.56,1.163-2.56,2.58c-0.006,1.403,1.127,2.545,2.53,2.55
	c0.013,0,0.027,0,0.04,0l0,0h7.92c-0.321,10.329-2.851,20.47-7.42,29.74l-8.35-4.82c-2.332-1.319-5.291-0.497-6.609,1.834
	c-1.302,2.302-0.519,5.223,1.759,6.566l8.33,4.81c-5.683,8.445-13.059,15.616-21.66,21.06L130.86,153.67z"/>
<path fill="#6C6C6C" d="M127.96,65.84l-31.1,17.25c-2.968-1.559-6.512-1.559-9.48,0L56.25,65.84
	c-2.876-1.744-6.621-0.826-8.365,2.05s-0.826,6.621,2.05,8.365c0.132,0.08,0.267,0.155,0.405,0.225l31.74,17.61
	c1.11,5.523,6.487,9.1,12.01,7.99c4.03-0.81,7.18-3.96,7.99-7.99l31.73-17.61c2.938-1.629,3.999-5.332,2.37-8.27
	c-1.629-2.938-5.332-3.999-8.27-2.37H127.96z"/>
</svg>
