<?xml version="1.0" encoding="utf-8"?>
<!-- Generator: Adobe Illustrator 25.2.0, SVG Export Plug-In . SVG Version: 6.00 Build 0)  -->
<svg version="1.1" id="Layer_1" xmlns="http://www.w3.org/2000/svg" xmlns:xlink="http://www.w3.org/1999/xlink" x="0px" y="0px"
	 viewBox="0 0 850.394 566.929" enable-background="new 0 0 850.394 566.929" xml:space="preserve">
<path fill="#FFFFFF" d="M421.639,278.731c-6.301,0-11.428,5.127-11.428,11.428c0,6.301,5.127,11.428,11.428,11.428
	c6.301,0,11.428-5.127,11.428-11.428C433.067,283.857,427.94,278.731,421.639,278.731z M424.809,285.509
	c0,0.095-0.077,0.173-0.173,0.173h-1.374c-0.337,0-0.611,0.273-0.611,0.611v1.439h1.955c0.101,0,0.18,0.086,0.172,0.187
	l-0.172,2.028c-0.008,0.089-0.082,0.158-0.172,0.158h-1.783v6.731c0,0.095-0.077,0.172-0.173,0.172h-2.46
	c-0.095,0-0.173-0.077-0.173-0.172v-6.623v-0.108h-1.23c-0.095,0-0.173-0.077-0.173-0.172v-2.028c0-0.095,0.077-0.173,0.173-0.173
	h1.23v-1.955c0-1.363,1.105-2.467,2.467-2.467h2.322c0.095,0,0.173,0.077,0.173,0.172V285.509z"/>
</svg>
