<?xml version="1.0" encoding="utf-8"?>
<!-- Generator: Adobe Illustrator 25.2.0, SVG Export Plug-In . SVG Version: 6.00 Build 0)  -->
<svg version="1.1" id="Layer_1" xmlns="http://www.w3.org/2000/svg" xmlns:xlink="http://www.w3.org/1999/xlink" x="0px" y="0px"
	 viewBox="0 0 850.394 566.929" enable-background="new 0 0 850.394 566.929" xml:space="preserve">
<path fill="#FFFFFF" d="M455.667,301.724c-6.26,0-11.353-5.093-11.353-11.353s5.093-11.353,11.353-11.353
	s11.353,5.093,11.353,11.353S461.927,301.724,455.667,301.724z M459.495,285.764c-0.464,0-0.84,0.376-0.84,0.84
	s0.376,0.84,0.84,0.84s0.84-0.376,0.84-0.84S459.959,285.764,459.495,285.764z M455.76,286.841c-1.946,0-3.529,1.583-3.529,3.529
	c0,1.946,1.583,3.529,3.529,3.529c1.946,0,3.529-1.583,3.529-3.529C459.289,288.424,457.706,286.841,455.76,286.841z
	 M455.76,292.631c-1.247,0-2.261-1.014-2.261-2.261s1.014-2.261,2.261-2.261c1.246,0,2.261,1.014,2.261,2.261
	S457.006,292.631,455.76,292.631z M462.881,287.437c0-2.377-1.927-4.304-4.305-4.304h-5.681c-2.377,0-4.305,1.927-4.305,4.304v5.682
	c0,2.377,1.927,4.304,4.305,4.304h5.681c2.377,0,4.305-1.927,4.305-4.304V287.437z M461.533,293.119
	c0,1.633-1.324,2.956-2.956,2.956h-5.681c-1.633,0-2.956-1.324-2.956-2.956v-5.682c0-1.633,1.324-2.956,2.956-2.956h5.681
	c1.633,0,2.956,1.324,2.956,2.956V293.119z"/>
</svg>
