<?xml version="1.0" encoding="utf-8"?>
<!-- Generator: Adobe Illustrator 25.2.0, SVG Export Plug-In . SVG Version: 6.00 Build 0)  -->
<svg version="1.1" id="Layer_1" xmlns="http://www.w3.org/2000/svg" xmlns:xlink="http://www.w3.org/1999/xlink" x="0px" y="0px"
	 viewBox="0 0 184.177 25.547" enable-background="new 0 0 184.177 25.547" xml:space="preserve">
<g>
	<path fill="#FFFFFF" d="M81.605,0c-2.925,0-5.585,0.997-7.712,2.726c1.596,1.529,2.859,3.457,3.457,5.651h-0.997
		c-0.665-1.928-1.729-3.657-3.191-5.053c-1.463,1.396-2.526,3.125-3.191,5.053h-0.997c0.665-2.194,1.862-4.122,3.457-5.651
		C70.303,0.997,67.71,0,64.784,0c-6.715,0-12.167,5.518-12.167,12.233s5.452,12.233,12.233,12.233c2.925,0,5.585-1.064,7.646-2.726
		c-1.596-1.529-2.792-3.457-3.457-5.651h0.997c0.665,1.928,1.729,3.657,3.191,5.053c1.463-1.396,2.593-3.125,3.191-5.053h0.997
		c-0.665,2.194-1.862,4.122-3.457,5.651c2.127,1.729,4.787,2.726,7.712,2.726c6.715,0,12.167-5.518,12.167-12.233S88.386,0,81.605,0
		z M58.136,15.092l0.731-3.856l-1.729,3.856h-1.13l-0.332-3.923l-0.798,3.923h-1.197l1.064-5.452h1.928l0.266,3.324l1.463-3.324
		h2.061l-1.064,5.452H58.136z M63.521,15.158h-1.13l-0.133-0.266c-0.199,0.133-0.399,0.266-0.997,0.266s-1.396-0.465-1.263-1.396
		c0.332-1.928,2.526-1.596,2.859-1.596c0.199-0.665-0.332-0.598-0.731-0.598c-0.399,0-1.197,0.133-1.529,0.133l0.199-0.997
		c0.798-0.133,1.197-0.133,1.463-0.066c2.061,0,1.862,1.463,1.729,2.061L63.521,15.158z M67.51,13.762
		c-0.199,1.33-1.662,1.263-1.995,1.263c-0.465,0-0.864,0-1.463-0.133l0.199-0.931c0.598,0.199,1.396,0.133,1.596,0.133
		c0.399,0,0.465-0.532,0.133-0.665c-0.266-0.133-0.532-0.332-0.997-0.532c-0.266-0.133-0.598-0.465-0.399-1.33
		c0.199-1.064,1.662-1.064,1.862-1.064c0.133,0,0.598,0,1.197,0.199l-0.266,0.931c-0.332-0.066-0.931-0.066-1.13-0.133
		c-0.465,0.133-0.266,0.532,0,0.665c0.266,0.066,0.598,0.332,0.864,0.465C67.311,12.832,67.643,13.097,67.51,13.762z M69.571,14.893
		c-0.266,0.199-0.598,0.199-0.931,0.199c-0.266,0-1.197-0.199-0.997-1.396l0.931-4.255h1.197l-0.266,1.197h0.665l-0.199,0.931
		h-0.598l-0.332,1.795c-0.066,0.332,0,0.665,0.665,0.532L69.571,14.893z M73.627,14.893c-0.332,0.133-1.064,0.199-1.596,0.199
		c-2.127,0-2.127-1.995-2.061-2.26c0-0.266,0.266-2.26,2.26-2.26c2.127,0,1.795,1.795,1.662,2.526H71.3
		c-0.133,0.997,0.665,0.997,1.13,0.997c0.532,0,1.197-0.066,1.396-0.133L73.627,14.893z M75.555,13.097l-0.399,2.061h-1.263v-0.066
		l0.864-4.454h1.064l0.133,0.465c0.199-0.199,0.532-0.465,1.197-0.465l-0.332,1.197C76.552,11.834,75.954,11.768,75.555,13.097z
		 M80.209,13.696l0.332,1.13c-0.399,0.199-0.798,0.266-1.463,0.266c-1.263,0-2.659-1.13-2.061-3.457
		c0.465-1.662,1.928-2.327,2.792-2.26c0.997,0.066,1.396,0.399,1.662,0.731l-0.798,0.798c-0.332-0.199-0.532-0.199-0.931-0.199
		c-0.399,0-1.33,0.399-1.463,1.463C78.081,13.496,78.946,14.095,80.209,13.696z M84.73,12.699l-0.465,2.46h-1.13l-0.133-0.266
		c-0.199,0.133-0.399,0.266-0.997,0.266c-0.598,0-1.396-0.465-1.263-1.396c0.332-1.928,2.526-1.596,2.859-1.596
		c0.133-0.665-0.332-0.598-0.731-0.598s-1.197,0.133-1.529,0.133l0.199-0.997c0.798-0.133,1.263-0.133,1.463-0.066
		C85.062,10.638,84.863,12.1,84.73,12.699z M86.525,13.031l-0.399,2.061h-1.263l0.864-4.521h1.064l0.133,0.465
		c0.199-0.199,0.532-0.465,1.197-0.465l-0.332,1.197C87.456,11.768,86.924,11.701,86.525,13.031z M90.314,15.092l-0.133-0.332
		c-0.266,0.133-0.665,0.332-1.064,0.332c-0.864,0-1.662-1.197-1.263-2.593c0.598-2.061,1.662-1.928,2.327-1.928
		c0.532,0,0.665,0.332,0.931,0.532l0.332-1.729h1.263l-1.064,5.718H90.314z"/>
	<path fill="#FFFFFF" d="M72.297,11.435c-0.532,0-0.864,0.266-0.997,0.798h1.529C72.895,11.768,72.763,11.435,72.297,11.435z"/>
	<path fill="#FFFFFF" d="M61.593,13.23c-0.399,0.266-0.532,0.731-0.066,0.864c0.399,0.133,0.931-0.133,1.064-0.532l0.066-0.465
		C62.457,13.097,61.992,12.964,61.593,13.23z"/>
	<path fill="#FFFFFF" d="M89.118,12.699c-0.199,0.665,0.199,1.13,0.598,1.13c0.465,0,0.731-0.332,0.997-0.864
		c0.133-0.399,0.066-0.931-0.066-1.13C90.248,11.302,89.384,11.701,89.118,12.699z"/>
	<path fill="#FFFFFF" d="M82.403,13.23c-0.399,0.266-0.532,0.731-0.066,0.864c0.399,0.133,0.997-0.133,1.064-0.532l0.066-0.465
		C83.267,13.097,82.802,12.964,82.403,13.23z"/>
</g>
</svg>
