<?xml version="1.0" encoding="utf-8"?>
<!-- Generator: Adobe Illustrator 25.2.0, SVG Export Plug-In . SVG Version: 6.00 Build 0)  -->
<svg version="1.1" id="Layer_1" xmlns="http://www.w3.org/2000/svg" xmlns:xlink="http://www.w3.org/1999/xlink" x="0px" y="0px"
	 viewBox="0 0 184.25 184.25" enable-background="new 0 0 184.25 184.25" xml:space="preserve">
<path fill="#6C6C6C" d="M180.12,145.73l-28.46-28.52c-5.884-5.66-15.241-5.485-20.91,0.39l-14.36,14.37l-2.81-1.58
	c-9.05-5-21.44-11.92-34.48-25s-20-25.55-25-34.63l-1.54-2.77l9.63-9.6l4.73-4.75c5.87-5.89,6-15.3,0.38-21L38.84,4.13
	c-5.65-5.66-15-5.49-20.91,0.4l-8,8.08l0.22,0.22c-2.756,3.554-4.983,7.488-6.61,11.68c-1.482,3.82-2.476,7.811-2.96,11.88
	c-3.76,31.22,10.47,59.75,49.1,98.47c53.4,53.52,96.43,49.47,98.29,49.28c4.064-0.495,8.049-1.503,11.86-3
	c4.167-1.626,8.078-3.846,11.61-6.59l0.17,0.15l8.13-8c5.86-5.89,6-15.3,0.38-21V145.73z"/>
</svg>
