<?xml version="1.0" encoding="utf-8"?>
<!-- Generator: Adobe Illustrator 25.2.0, SVG Export Plug-In . SVG Version: 6.00 Build 0)  -->
<svg version="1.1" id="Layer_1" xmlns="http://www.w3.org/2000/svg" xmlns:xlink="http://www.w3.org/1999/xlink" x="0px" y="0px"
	 viewBox="0 0 850.394 566.929" enable-background="new 0 0 850.394 566.929" xml:space="preserve">
<path fill="#FFFFFF" d="M387.766,278.731c-6.301,0-11.428,5.127-11.428,11.428c0,6.301,5.127,11.428,11.428,11.428
	c6.301,0,11.428-5.127,11.428-11.428C399.194,283.857,394.067,278.731,387.766,278.731z M394.384,286
	c0,0.034,0.004,0.118-0.066,0.212c-0.311,0.419-0.643,0.794-1.061,1.108c-0.061,0.045-0.162,0.093-0.162,0.179
	c0,2.201-0.562,4.399-2.167,5.994c-2.043,2.03-5.108,2.582-7.829,1.831c-0.527-0.146-1.031-0.349-1.514-0.606
	c-0.16-0.087-0.317-0.178-0.472-0.28c-0.039-0.032-0.068-0.061-0.035-0.081c0.033-0.017,0.059-0.018,0.18,0
	c0.761,0.075,1.545-0.038,2.265-0.29c0.396-0.138,1.246-0.417,1.491-0.79c0.006-0.009,0.012-0.009,0.018-0.018
	c-0.099-0.023-0.198-0.023-0.297-0.041c-0.739-0.211-1.727-0.582-2.184-1.829c-0.029-0.073,0-0.111,0.076-0.096
	c0.609,0.048,0.827,0.014,1.039-0.032c-0.119-0.02-0.242-0.061-0.352-0.108c-0.931-0.354-1.612-1.263-1.736-2.245
	c-0.014-0.114-0.023-0.21-0.017-0.315c0.006-0.073,0.038-0.096,0.102-0.055c0.479,0.248,1.016,0.306,1.06,0.297
	c-0.119-0.093-0.23-0.195-0.338-0.297c-0.807-0.765-1.121-2.322-0.475-3.29c0.053-0.079,0.087-0.079,0.151-0.006
	c1.477,1.683,3.297,2.469,5.492,2.795c0.058,0.009,0.064,0,0.055-0.064c-0.057-0.387-0.065-0.765,0.029-1.148
	c0.097-0.396,0.286-0.77,0.543-1.087c0.248-0.306,0.56-0.56,0.909-0.742c0.349-0.182,0.734-0.293,1.127-0.318
	c0.403-0.026,0.813,0.038,1.187,0.191c0.285,0.116,0.538,0.274,0.774,0.474c0.049,0.041,0.093,0.09,0.14,0.143
	c0.029,0.029,0.064,0.041,0.11,0.029c0.561-0.14,1.088-0.338,1.598-0.612c0.023-0.012,0.042-0.018,0.071-0.006
	c0.023,0.018,0.014,0.047,0.003,0.07c-0.091,0.298-0.253,0.574-0.448,0.816c-0.128,0.159-0.447,0.551-0.664,0.588
	c0.457-0.077,0.922-0.193,1.346-0.384c0.054-0.025,0.05-0.035,0.05,0C394.384,285.988,394.384,285.994,394.384,286z"/>
<path fill-rule="evenodd" clip-rule="evenodd" fill="#121740" d="M385.02,295.597C386.148,295.597,385.074,295.597,385.02,295.597
	C385.168,295.597,385.014,295.597,385.02,295.597z"/>
<path fill-rule="evenodd" clip-rule="evenodd" fill="#121740" d="M385.02,295.597C385.002,295.599,384.8,295.597,385.02,295.597
	C385.02,295.597,384.984,295.597,385.02,295.597z"/>
<path fill-rule="evenodd" clip-rule="evenodd" fill="#121740" d="M385.468,295.609C385.468,295.586,385.704,295.609,385.468,295.609
	C385.468,295.597,385.497,295.609,385.468,295.609z"/>
<path fill-rule="evenodd" clip-rule="evenodd" fill="#121740" d="M390.179,284.689c-0.015,0.012-0.035,0.012-0.055,0
	C390.144,284.689,390.165,284.689,390.179,284.689z"/>
</svg>
