<?xml version="1.0" encoding="UTF-8"?>
<!DOCTYPE svg PUBLIC "-//W3C//DTD SVG 1.1//EN" "http://www.w3.org/Graphics/SVG/1.1/DTD/svg11.dtd">
<!-- Creator: CorelDRAW X7 -->
<svg xmlns="http://www.w3.org/2000/svg" xml:space="preserve" width="8.5in" height="11in" version="1.1" style="shape-rendering:geometricPrecision; text-rendering:geometricPrecision; image-rendering:optimizeQuality; fill-rule:evenodd; clip-rule:evenodd"
viewBox="0 0 8500 11000"
 xmlns:xlink="http://www.w3.org/1999/xlink">
 <defs>
  <style type="text/css">
   <![CDATA[
    .fil0 {fill:black}
   ]]>
  </style>
 </defs>
 <g id="Layer_x0020_1">
  <metadata id="CorelCorpID_0Corel-Layer"/>
  <path class="fil0" d="M6794 5005c-30,23 -38,69 -71,89 -7,-4 -10,-12 -9,-23 -22,15 -41,35 -62,52 -2,27 -9,50 -23,66 -9,-11 -19,-20 -24,-33 -26,21 -27,67 -42,99 -17,-2 -15,-24 -24,-33 -33,19 -8,73 -33,94 -12,-7 -17,-21 -24,-33 -26,15 -33,49 -28,95 -15,-22 -21,-52 -33,-76 -53,10 -67,59 -80,109 -20,-19 -22,-54 -33,-81 -52,17 -76,59 -99,104 -20,-23 -26,-60 -38,-90 -68,12 -99,60 -137,100 -21,-22 -36,-50 -52,-76 -54,15 -87,52 -123,85 -12,-37 -22,-75 -38,-109 -79,8 -128,45 -174,85 -16,-31 -26,-68 -38,-103 -78,10 -128,48 -180,85 -11,-38 -21,-77 -28,-118 -71,5 -133,20 -184,47 -18,-34 -38,-66 -57,-99 -59,15 -117,30 -174,47 -42,-24 -66,-67 -104,-95 -53,12 -103,58 -165,43 -40,-10 -52,-53 -85,-71 -60,22 -112,65 -194,38 -26,-28 -44,-63 -71,-90 -49,0 -88,38 -137,38 -19,0 -93,-25 -113,-38 -26,-16 -33,-48 -57,-61 -65,17 -112,8 -174,-10 -65,-18 -100,-26 -128,-75 -76,17 -134,34 -227,19 -23,-21 -34,-54 -66,-66 -50,20 -90,61 -160,47 -21,-20 -36,-46 -52,-71 -55,19 -72,76 -151,71 -15,-20 -26,-44 -43,-62 -44,13 -67,71 -132,48 -16,-15 -24,-39 -33,-62 -26,16 -49,36 -71,57 -14,3 -14,-8 -28,-5 -21,-17 -22,-54 -38,-75 -38,22 -47,72 -108,70 -19,-17 -29,-44 -43,-66 -30,27 -70,44 -99,71 -20,-9 -52,-5 -71,-14 -15,-15 -24,-35 -38,-52 -22,11 -38,27 -61,38 -89,-10 -175,-24 -203,-95 -66,-29 -138,2 -189,-23 -18,-10 -27,-31 -42,-43 -35,-26 -76,-35 -109,-61 -52,3 -135,12 -189,28 -44,78 -112,77 -226,52 -138,-29 -295,-72 -444,-80 -36,-19 -68,-64 -114,-80 -20,-8 -54,-9 -80,-15 -64,-14 -99,-22 -146,24 -7,7 -48,62 -52,76 -16,47 -16,131 -5,174 9,34 38,52 47,81 19,4 2,-27 19,-24 18,19 -2,40 10,66 16,-15 24,-38 33,-61 11,-2 10,8 23,4 14,1 9,20 10,33 13,-2 9,-22 14,-33 55,-9 67,25 99,38 -7,11 -7,46 0,57 17,-3 12,-26 19,-38 48,3 24,52 33,90 13,-11 21,-27 24,-47 35,0 32,40 33,75 22,-1 13,-34 19,-52 11,0 13,8 28,5 0,33 -11,64 0,94 22,-16 26,-49 33,-80 26,-6 8,33 19,43 12,-9 10,-31 19,-43 34,9 77,8 108,19 13,6 0,25 0,33 24,0 18,-38 43,-24 15,17 30,39 33,71 12,11 18,-9 23,-19 46,14 78,39 109,66 5,-1 3,-9 10,-9 60,15 129,21 193,33 17,16 14,52 38,61 3,-17 6,-34 5,-56 24,-3 35,9 56,9 4,17 -7,18 -4,33 20,0 18,-22 33,-28 85,9 133,55 188,94 -25,22 -60,34 -89,52 -17,1 -18,-14 -33,-14 28,36 -35,33 -48,57 -10,-4 -11,-17 -18,-24 -11,3 -5,29 0,33 -23,8 -42,19 -62,29 -13,-9 0,-44 -23,-43 1,22 -9,33 -5,57 -7,15 -34,10 -47,19 -11,-11 -4,-41 -15,-52 -23,12 -1,71 -47,61 -15,-9 -14,-33 -19,-52 -22,7 -22,37 -23,66 -8,15 -29,15 -38,29 -20,-17 -16,-57 -47,-62 -10,23 9,53 5,85 -6,15 -25,17 -34,28 -10,-3 -14,-14 -18,-23 -17,2 -3,18 0,28 -5,13 -25,10 -33,19 -17,1 -15,-17 -24,-24 -12,9 4,46 -19,43 -19,3 -4,-28 -24,-24 0,8 0,16 0,24 -6,9 -19,-7 -14,19 -23,6 -41,18 -71,19 -20,-2 -4,-40 -28,-38 1,21 8,32 -5,47 -33,-9 -35,-49 -56,-71 -23,27 -24,74 0,95 -6,24 -32,28 -38,52 -20,-7 -26,-48 -47,-38 9,19 13,44 23,61 -5,11 -23,9 -28,19 -21,-1 -15,-29 -38,-28 5,10 10,19 14,28 -4,10 -26,2 -28,14 -29,-13 -41,-44 -80,-47 -4,36 12,51 23,71 -43,27 -52,-27 -89,-33 11,21 4,62 28,71 -23,17 -70,-12 -99,-19 -8,32 38,50 61,66 1,15 -8,20 -4,38 37,94 187,7 278,-14 27,-7 56,-7 80,-15 63,-18 129,-46 194,-56 54,-8 117,-12 170,-10 30,2 57,13 85,14 21,2 41,-4 61,-4 86,0 172,18 251,4 36,-6 81,-32 122,-47 32,-11 61,-19 95,-33 13,-5 26,-11 33,-14 131,52 268,113 406,170 67,28 112,50 198,57 115,8 228,15 349,33 -85,39 -225,23 -292,80 -2,19 22,13 23,28 -54,23 -117,37 -146,85 17,8 44,6 66,10 -32,21 -80,52 -90,80 51,-5 98,-13 156,-9 29,26 -15,68 -9,85 57,2 115,-36 170,-52 21,9 19,40 42,47 25,-3 42,-35 62,-57 20,-22 40,-45 61,-61 85,2 161,35 241,33 79,-2 167,-49 255,-52 16,-41 40,-73 56,-113 167,-15 382,-43 557,-66 88,-12 154,-41 208,0 37,27 67,66 95,103 0,48 5,90 19,123 -22,34 -30,85 -15,132 16,-7 17,-33 33,-42 14,-8 59,-16 71,-14 60,7 91,110 142,122 -2,-35 8,-58 9,-89 84,-25 132,28 203,42 -9,-36 -25,-66 -42,-94 18,-8 41,-9 66,-10 4,-23 -25,-31 -38,-42 -108,-90 -208,-213 -297,-331 19,-13 41,-7 61,-9 159,-15 334,-14 501,-5 84,5 169,22 255,29 86,6 173,-14 259,-19 86,-5 179,1 260,-5 80,-6 174,-2 250,-19 28,-6 59,-23 90,-33 63,-20 117,-38 175,-66 126,-63 235,-155 325,-260 24,-62 39,-128 66,-184 14,-27 36,-52 52,-80 46,-77 95,-162 151,-232 57,-69 126,-128 199,-184 72,-54 142,-111 217,-160 152,-101 312,-196 463,-298 -4,-20 -22,-25 -24,-47 -77,-4 -127,18 -194,24 -19,2 5,-13 -14,-14 -49,6 -92,68 -132,28 -17,22 -48,31 -66,52 -15,-4 -26,-12 -33,-24 -25,21 -52,40 -71,66 -20,1 -14,-23 -38,-19 -13,28 -39,43 -56,67 -14,-4 -19,-31 -33,-19 -9,25 -29,40 -38,66 -20,-1 -20,-21 -43,-19 -16,32 -40,57 -56,90 -18,-3 -30,-12 -48,-15 -15,29 -37,51 -51,81 -12,-6 -16,-19 -34,-19 -12,32 -35,53 -47,85 -17,1 -17,-14 -33,-14 -13,35 -31,79 -71,75 -10,45 -50,60 -80,85 -15,13 -2,-13 -14,-23z"/>
 </g>
</svg>
