<?xml version="1.0" encoding="UTF-8"?>
<!DOCTYPE svg PUBLIC "-//W3C//DTD SVG 1.1//EN" "http://www.w3.org/Graphics/SVG/1.1/DTD/svg11.dtd">
<!-- Creator: CorelDRAW X7 -->
<svg xmlns="http://www.w3.org/2000/svg" xml:space="preserve" width="8.5in" height="11in" version="1.1" style="shape-rendering:geometricPrecision; text-rendering:geometricPrecision; image-rendering:optimizeQuality; fill-rule:evenodd; clip-rule:evenodd"
viewBox="0 0 8500 11000"
 xmlns:xlink="http://www.w3.org/1999/xlink">
 <defs>
  <style type="text/css">
   <![CDATA[
    .fil0 {fill:black}
   ]]>
  </style>
 </defs>
 <g id="Layer_x0020_1">
  <metadata id="CorelCorpID_0Corel-Layer"/>
  <path class="fil0" d="M7701 5101c1,31 -15,22 -27,-18 -25,-2 -27,20 -52,18 -16,-8 -17,-31 -27,-44 -27,-7 -17,24 -44,18 -13,-8 -13,-29 -17,-44 -32,-5 -22,31 -53,26 -14,-64 -60,9 -71,-53 -36,0 -43,30 -70,0 5,-51 67,9 62,-53 16,4 22,19 44,18 25,-18 27,-34 70,-18 7,-7 9,-20 9,-35 17,4 22,19 44,18 -4,-21 16,-19 9,-44 31,-5 21,31 52,26 -3,-21 16,-19 9,-44 26,7 23,42 62,35 -4,-21 16,-19 9,-44 32,-3 23,36 61,27 -7,-25 13,-23 9,-44 31,-5 22,31 53,26 9,-12 14,-26 26,-35 18,9 14,39 44,35 0,-23 -3,-50 9,-61 21,13 23,47 53,52 6,-28 16,-54 26,-79 36,5 35,47 79,44 1,-23 -3,-50 9,-61 30,7 38,38 79,35 -5,-38 7,-59 9,-88 35,6 21,61 62,61 6,-29 14,-56 17,-88 35,7 31,52 71,53 69,-185 1,-317 -185,-308 -71,3 -229,47 -299,53 -73,6 -168,5 -229,-9 -93,-21 -143,-114 -264,-106 -30,3 -50,26 -79,36 -105,32 -236,30 -335,70 -58,23 -115,89 -185,106 -79,18 -167,32 -255,61 -127,43 -188,82 -299,71 -134,-14 -227,56 -299,-27 -80,48 -160,14 -220,-26 -40,-2 -40,37 -71,44 -39,-11 -59,-41 -97,-53 -68,31 -114,37 -202,18 -37,1 -45,31 -70,44 -52,4 -74,-21 -115,-27 -44,40 -125,47 -167,0 -38,7 -39,50 -62,71 -63,13 -76,-24 -123,-27 -40,4 -40,48 -70,62 -173,-51 -289,33 -449,44 -21,20 -45,37 -71,53 -64,-3 -107,15 -176,9 -7,10 -11,23 -8,44 -56,0 -112,0 -168,0 0,17 0,35 0,52 -41,-3 -60,16 -105,9 0,15 0,29 0,44 -71,-9 -152,-22 -176,35 -34,-4 -55,-21 -97,-17 -7,31 -53,51 -18,53 -25,36 -109,-21 -149,0 -13,19 -6,58 -27,70 -51,-4 -79,-32 -141,-26 -4,40 16,54 9,96 -60,-1 -84,-39 -149,-35 -18,14 0,65 -18,79 -49,2 -47,-47 -97,-44 -15,21 -3,68 -26,80 -52,-4 -83,-29 -141,-27 -12,18 -17,42 -26,62 -26,6 -83,-19 -71,26 -37,2 -57,-13 -88,-17 -12,20 -14,50 -26,70 -55,-5 -101,-1 -115,35 -22,-7 -47,-11 -79,-9 -10,14 -11,36 -26,44 -40,5 -55,-15 -97,-8 -13,13 -19,34 -26,52 -22,-10 -52,-12 -80,-17 -32,-9 -9,38 -26,44 -31,-4 -51,-20 -88,-18 1,22 1,43 -9,53 -21,-8 -38,-20 -70,-18 7,25 -13,23 -9,44 -32,-9 -55,-27 -88,-35 0,12 0,24 0,35 -35,3 -27,-37 -62,-35 -9,12 -8,33 -26,35 -17,-12 -46,-12 -53,-35 -11,4 -18,11 -18,27 -49,-13 -54,-69 -114,-71 6,27 -15,26 -9,53 -29,-27 -66,-45 -114,-53 -3,26 -14,45 -27,62 -41,-35 -78,-75 -123,-106 -28,4 -30,34 -44,53 -57,-22 -74,-84 -132,-106 -6,20 -8,45 -17,62 -37,-28 -57,-73 -88,-106 -27,12 -26,51 -53,62 -28,-21 -69,-111 -97,-53 -26,-26 -40,-65 -70,-88 -29,-8 -13,29 -36,27 -28,-16 -30,-58 -44,-88 -34,-5 -36,22 -61,26 -33,-23 -35,-77 -53,-114 -27,-7 -26,15 -53,8 -32,-32 -30,-99 -53,-140 -34,7 -29,52 -53,70 -30,-31 -33,-89 -52,-132 -38,-9 -26,33 -53,35 -10,-72 -30,-134 -88,-158 -28,102 5,168 35,264 17,55 28,115 44,149 18,39 59,66 79,106 20,39 35,86 53,123 57,115 118,208 211,273 47,33 110,53 168,88 142,86 330,116 528,150 146,24 239,59 404,70 251,17 505,-21 766,-35 104,-6 197,9 299,0 161,-15 332,-52 493,-44 183,8 377,-18 546,-44 99,-15 182,26 273,17 84,-7 157,-38 237,-44 -30,58 -110,104 -114,194 -9,216 166,227 334,317 144,77 227,134 397,132 38,-11 36,42 61,18 0,-56 -31,-80 -70,-97 29,-16 111,32 141,17 -10,-48 -43,-75 -88,-88 45,-16 94,-15 132,0 -14,-74 -98,-78 -141,-123 45,-42 152,-42 202,-53 -36,-81 -190,-51 -273,-61 -19,-67 48,-46 53,-88 -123,-32 -152,89 -299,61 32,-88 108,-132 167,-193 145,13 297,5 414,-9 62,-7 126,20 193,17 200,-6 426,-57 643,-70 23,-21 35,-53 44,-88 144,275 294,545 660,599 36,5 42,40 79,44 26,-97 -101,-115 -132,-185 88,12 167,32 247,53 -7,-97 -92,-114 -168,-141 50,-27 140,-13 194,-35 -8,-77 -114,-79 -176,-53 46,-40 108,-62 150,-106 -61,-89 -175,8 -220,44 -29,-22 12,-81 -9,-97 -65,-3 -63,61 -79,106 -21,-6 -24,-29 -44,-35 44,-76 16,-145 26,-220 7,-51 45,-117 70,-168 28,-54 53,-113 80,-149 122,-165 497,-178 783,-159 123,9 310,27 458,18 150,-10 245,-51 228,-220 -25,7 -23,41 -52,44 -21,-3 -20,-27 -36,-35 -6,10 -76,24 -35,26 -13,29 -25,-15 -35,-17 -21,-19 -39,19 -53,35 -20,-7 -26,-27 -35,-44 -20,6 -24,29 -44,35 -15,-8 -16,-31 -26,-44 -28,-4 -24,24 -44,26 -19,2 -4,-31 -9,-44 -24,6 -34,26 -53,36 -8,-8 -30,-46 -9,-53 -7,-13 -45,18 -53,35 -20,-3 -8,-38 -26,-44 -16,-8 -29,26 -35,0z"/>
 </g>
</svg>
