<?xml version="1.0" encoding="UTF-8"?>
<!DOCTYPE svg PUBLIC "-//W3C//DTD SVG 1.1//EN" "http://www.w3.org/Graphics/SVG/1.1/DTD/svg11.dtd">
<!-- Creator: CorelDRAW X7 -->
<svg xmlns="http://www.w3.org/2000/svg" xml:space="preserve" width="8.5in" height="11in" version="1.1" style="shape-rendering:geometricPrecision; text-rendering:geometricPrecision; image-rendering:optimizeQuality; fill-rule:evenodd; clip-rule:evenodd"
viewBox="0 0 8500 11000"
 xmlns:xlink="http://www.w3.org/1999/xlink">
 <defs>
  <style type="text/css">
   <![CDATA[
    .fil0 {fill:#373435;fill-rule:nonzero}
   ]]>
  </style>
 </defs>
 <g id="Layer_x0020_1">
  <metadata id="CorelCorpID_0Corel-Layer"/>
  <path class="fil0" d="M1036 4605c-21,-19 -39,-39 -36,-50 3,-12 25,-8 49,0 5,-16 11,-31 18,-44 -19,-31 -33,-61 -24,-70 10,-10 36,0 59,13 7,-9 15,-17 23,-25 -15,-37 -27,-79 -10,-86 15,-5 32,23 46,54 13,-10 27,-19 42,-28 -4,-29 -3,-58 14,-65 17,-8 29,14 37,40 15,-7 32,-13 49,-19 -1,-27 3,-54 19,-58 15,-4 27,17 36,41 18,-4 37,-8 56,-12 0,-26 6,-51 22,-53 18,-3 31,19 39,42 23,-3 46,-6 69,-8 9,-25 20,-48 30,-48 11,0 21,20 30,42 7,-1 15,-1 22,-2 5,-25 13,-51 24,-51 11,0 20,24 25,48 1,0 1,0 2,0 24,-2 46,-3 67,-3 10,-23 21,-45 31,-45 11,0 18,22 23,44 20,0 38,1 54,2 6,-22 15,-46 28,-46 16,0 17,29 16,49 98,12 116,36 116,36 -110,0 -291,150 -388,201 -85,43 -174,94 -62,123 15,-24 37,-53 53,-53 13,0 28,34 39,67 20,2 40,3 60,3 25,-37 56,-77 73,-77 18,0 34,38 45,72 6,0 13,-1 19,-1 5,-44 12,-96 24,-96 12,0 29,46 42,87 4,0 9,-1 13,-2 -1,-40 1,-85 20,-85 18,0 39,37 55,71 8,-2 15,-3 21,-5 2,-29 7,-57 23,-57 16,0 30,19 40,38 13,-5 22,-9 26,-14 28,-28 426,-106 460,-106 35,0 357,-31 404,-49 47,-18 294,40 325,8 31,-31 225,37 244,18 20,-19 204,36 232,7 28,-28 272,35 316,19 44,-15 169,47 203,47l129 0c34,0 125,16 169,16 43,0 118,37 147,37 28,0 75,32 106,32 31,0 119,31 150,31 32,0 94,50 135,50 41,0 172,94 269,131 97,38 241,169 341,138 100,-31 188,19 260,19 72,0 147,34 238,34 90,0 118,50 250,13 131,-38 185,9 369,97 185,87 313,-35 423,-69 109,-34 159,41 178,106 0,0 13,42 -18,87 10,31 22,76 9,82 -12,5 -29,-24 -42,-49 -3,2 -6,4 -10,6 3,27 4,57 -6,57 -9,0 -23,-21 -35,-40 -3,1 -7,3 -11,4 4,26 6,56 -6,56 -11,0 -24,-22 -35,-44 -2,1 -5,1 -8,2 6,38 11,86 -9,86 -20,0 -31,-41 -36,-75 -2,0 -4,0 -6,1 -1,34 -4,74 -15,74 -10,0 -25,-33 -36,-63 -3,1 -6,2 -9,3 4,34 6,75 -7,75 -15,0 -36,-35 -48,-59 -18,8 -43,21 -70,36 10,23 18,48 10,56 -9,9 -32,-12 -50,-33 -5,3 -9,5 -14,8 6,19 10,38 6,43 -5,5 -19,-11 -32,-28 -2,1 -3,1 -5,2 6,15 8,30 0,38 -11,11 -32,2 -51,-10 -3,2 -7,4 -11,6 10,16 16,33 7,43 -10,10 -31,-7 -47,-25 -13,6 -24,9 -31,9 -47,0 -25,59 -4,122 22,62 110,166 219,166 110,0 157,78 241,78 85,0 130,17 176,62 45,46 22,129 -82,173 -103,43 -256,31 -463,12 -206,-19 -479,125 -729,95 -182,-23 -720,-29 -1051,-31 10,29 24,64 37,93 28,59 107,140 204,162 97,22 109,13 190,13 82,0 144,125 144,125 -29,-30 -84,9 -84,9 26,27 37,63 37,63 -26,-27 -100,-3 -100,-3 69,25 44,119 44,119 -44,-94 -178,-94 -178,-94 42,42 15,116 15,116 -15,-50 -97,-91 -97,-91 36,36 0,91 0,91 0,0 -72,-82 -153,-104 -81,-22 -160,-90 -460,-237 -152,-75 -222,-159 -247,-231 -114,0 -267,-8 -479,-32 -488,-56 -738,-419 -976,-608 -55,122 -140,182 -404,160 -307,-25 -438,-47 -485,47 -47,94 -119,147 -119,147 0,0 -19,-87 -75,-59 -56,28 -100,97 -100,97 0,0 -53,-88 -35,-107 0,0 -125,-43 -209,-3 0,0 -2,-23 34,-59 0,0 25,-44 -34,-28 0,0 28,-91 141,-91 97,0 250,-128 290,-212 -135,6 -284,8 -453,-1 -582,-31 -617,-576 -567,-854 1,-1 1,-1 1,-2z"/>
 </g>
</svg>
