<?xml version="1.0" encoding="UTF-8"?>
<!DOCTYPE svg PUBLIC "-//W3C//DTD SVG 1.1//EN" "http://www.w3.org/Graphics/SVG/1.1/DTD/svg11.dtd">
<!-- Creator: CorelDRAW X7 -->
<svg xmlns="http://www.w3.org/2000/svg" xml:space="preserve" width="8.5in" height="11in" version="1.1" style="shape-rendering:geometricPrecision; text-rendering:geometricPrecision; image-rendering:optimizeQuality; fill-rule:evenodd; clip-rule:evenodd"
viewBox="0 0 8500 11000"
 xmlns:xlink="http://www.w3.org/1999/xlink">
 <defs>
  <style type="text/css">
   <![CDATA[
    .fil0 {fill:black}
   ]]>
  </style>
 </defs>
 <g id="Layer_x0020_1">
  <metadata id="CorelCorpID_0Corel-Layer"/>
  <path class="fil0" d="M2690 4760c-42,-15 -114,-4 -131,29 -47,-17 -104,4 -116,44 -34,-15 -92,4 -102,36 -22,-23 -94,-6 -102,30 -127,7 -298,1 -429,14 -24,6 -45,13 -65,22 -145,-17 -264,-19 -350,-87 -26,2 -47,-2 -65,-8 -270,167 -603,-15 -785,-152 -66,4 -112,-10 -153,-29 -133,7 -205,76 -284,138 -6,30 -19,53 -22,87 17,37 10,97 22,138 23,4 21,-18 29,-29 14,1 5,25 15,29 20,-8 22,-36 29,-58 26,0 2,52 36,44 -1,-23 20,-25 15,-51 25,6 -1,28 22,43 26,5 9,-34 29,-36 5,60 59,72 65,131 22,-5 31,-23 29,-51 17,17 0,68 15,87 46,-5 29,-73 58,-94 16,3 0,38 15,43 25,-36 36,-43 72,-65 11,6 11,23 15,36 12,3 14,-5 14,-14 14,1 5,24 15,29 12,2 14,-6 14,-15 16,11 -5,18 8,37 19,2 19,-16 22,-29 13,1 4,24 14,29 9,-4 15,-10 15,-22 24,0 7,41 21,51 19,-11 26,-47 37,-8 13,-1 16,-12 14,-29 17,3 3,36 8,51 10,-6 23,-11 21,-29 6,5 24,31 22,0 10,2 6,18 8,29 15,2 23,-6 21,-22 16,1 3,31 8,44 22,-8 23,-7 21,22 28,1 24,-30 37,-44 19,6 -14,32 7,44 21,-3 17,-31 36,-36 19,6 -14,31 8,43 25,6 12,-27 29,-29 16,3 0,39 14,44 20,-2 13,-31 29,-37 17,1 4,31 8,44 23,3 20,-18 29,-29 16,-1 3,26 7,36 27,8 14,-24 29,-29 16,-1 3,26 7,37 24,6 16,-19 30,-22 4,18 14,33 7,58 -142,99 -299,74 -386,138 -8,-1 -6,-13 -7,-22 -54,23 -73,8 -102,29 -17,3 4,-33 -22,-21 -9,28 -47,-12 -58,21 -20,-6 13,-25 -7,-36 -10,5 -14,16 -15,29 -6,-12 -24,-23 -29,0 -9,-2 -6,-18 -7,-29 -19,-2 -19,15 -22,29 -10,-2 -6,-18 -7,-29 -23,-6 -10,24 -29,22 -11,-3 3,-10 0,-22 -23,-6 -15,19 -29,22 -10,-2 -6,-18 -7,-29 -20,-3 -19,15 -22,29 -16,1 -4,-26 -8,-37 -24,-5 -12,27 -29,30 -9,-3 -6,-19 -7,-30 -25,11 -81,57 -116,0 -8,7 -3,14 -7,37 -10,-2 -7,-18 -8,-29 -23,-4 -23,15 -22,36 -18,-13 -1,-61 -36,-58 -11,35 -5,87 -29,109 48,87 147,83 225,131 493,0 943,98 1397,160 130,77 377,124 531,36 138,6 289,17 407,-14 97,44 171,110 284,138 -22,66 2,140 14,196 -30,75 -101,107 -167,146 21,11 50,23 80,43 -10,22 -36,28 -37,58 88,8 118,-35 175,-72 6,17 -10,40 7,72 29,4 22,4 51,0 14,-20 18,-49 29,-72 30,9 22,55 73,43 10,-9 10,-34 0,-43 46,11 57,-5 87,0 -13,-47 -57,-64 -58,-124 69,-118 45,-340 -51,-414 69,15 167,3 247,7 311,0 464,-157 757,-175 -15,326 258,363 560,371 123,46 225,114 342,167 37,-35 73,-22 131,-14 -3,-10 -13,-11 -15,-22 117,47 207,-2 305,-29 -5,-24 -29,-28 -58,-29 7,-29 43,-30 80,-29 -32,-44 -115,-35 -182,-44 -22,-16 37,-11 30,-36 -366,32 -517,-210 -837,-247 34,-41 95,-56 109,-117 1314,-35 2623,12 3760,211 10,-12 35,-9 37,-29 0,-27 -12,-42 -30,-51 -6,-24 41,-31 22,-43 -22,4 -62,-10 -72,7 -18,-11 28,-19 14,-51 -22,-11 -43,-1 -65,7 -17,-1 9,-18 0,-36 -21,1 -48,-4 -59,7 -18,-2 10,-12 0,-29 -28,-5 -70,-4 -94,15 -17,-10 38,-33 15,-51 -35,-1 -69,-1 -88,14 -18,-12 29,-19 22,-43 -19,-14 -67,-8 -87,0 -18,-8 30,-30 7,-44 -31,-18 -78,2 -102,14 -15,-5 28,-37 8,-50 -25,-10 -66,-1 -88,14 -18,-9 28,-37 7,-51 -66,-6 -104,16 -145,37 2,-30 34,-29 29,-66 -41,-11 -97,11 -131,29 1,-24 21,-28 15,-58 -58,-21 -120,15 -160,36 5,-26 32,-31 22,-72 -59,-6 -91,15 -131,29 -14,-10 16,-33 0,-51 -42,-7 -106,4 -139,29 -12,-8 22,-31 15,-58 -47,-16 -115,-2 -145,22 -17,-16 9,-30 -8,-51 -54,-4 -96,5 -131,21 -15,-4 11,-27 8,-43 -55,-19 -120,3 -160,22 -13,-4 8,-35 7,-51 -48,-15 -109,9 -145,29 -18,-7 10,-28 0,-51 -38,-6 -112,1 -139,29 -17,-5 1,-45 -14,-51 -71,-3 -117,19 -160,44 -10,-13 3,-34 -7,-58 -51,-12 -113,8 -146,36 -11,-6 -10,-24 -14,-36 -44,-5 -70,8 -95,21 -39,-37 -119,-33 -160,0 -18,-6 -22,-27 -36,-36 -35,-3 -60,4 -80,15 -21,-2 -20,-24 -37,-30 -268,4 -543,-77 -778,-87 -34,-10 -96,-59 -131,-22 -23,-22 -110,-35 -138,-7 -121,-36 -278,-59 -407,-44 -22,-26 -116,-57 -138,-14 -18,-19 -47,-26 -73,-36 -287,-27 -486,-155 -786,-131 -44,-16 -116,-32 -152,0 -35,-28 -86,-20 -139,-15 -6,13 -32,12 -14,29 -36,-23 -132,-22 -153,15 6,-34 -131,-3 -138,43z"/>
 </g>
</svg>
