<?xml version="1.0" encoding="UTF-8"?>
<!DOCTYPE svg PUBLIC "-//W3C//DTD SVG 1.1//EN" "http://www.w3.org/Graphics/SVG/1.1/DTD/svg11.dtd">
<!-- Creator: CorelDRAW X7 -->
<svg xmlns="http://www.w3.org/2000/svg" xml:space="preserve" width="8.5in" height="11in" version="1.1" style="shape-rendering:geometricPrecision; text-rendering:geometricPrecision; image-rendering:optimizeQuality; fill-rule:evenodd; clip-rule:evenodd"
viewBox="0 0 8500 11000"
 xmlns:xlink="http://www.w3.org/1999/xlink">
 <defs>
  <style type="text/css">
   <![CDATA[
    .fil0 {fill:black}
   ]]>
  </style>
 </defs>
 <g id="Layer_x0020_1">
  <metadata id="CorelCorpID_0Corel-Layer"/>
  <path class="fil0" d="M1876 6646c63,-44 159,-31 243,-35 111,-6 130,-93 208,-126 66,-27 135,-26 197,-35 134,-22 210,-105 286,-185 38,-39 73,-86 122,-114 42,-23 103,-36 145,-62 41,-26 66,-69 102,-98 25,-21 61,-47 86,-55 51,-17 100,9 153,0 64,-12 123,-57 193,-75 93,-24 196,5 302,-20 -1,-14 0,-25 4,-35 15,-37 30,-73 46,-109 -58,24 -164,30 -144,31 -11,24 -44,43 -71,62 -27,20 -55,50 -90,44 -5,-31 6,-67 4,-83 -86,25 -93,130 -189,145 -7,-101 48,-141 79,-204 -38,23 -71,55 -106,87 -45,40 -99,96 -177,82 27,-92 80,-158 157,-200 -63,19 -173,46 -235,8 16,-39 61,-63 106,-79 60,-20 142,-29 210,-23 -2,8 -2,9 2,0 -1,0 -1,0 -2,0 4,-15 16,-53 29,-91 28,-79 64,-157 122,-215 19,-20 49,-50 85,-80 -149,-161 -348,-344 -325,-666 6,-78 27,-141 51,-208 -5,-11 -17,-14 -15,-31 6,-19 24,0 31,-16 -14,-20 -51,-17 -51,-51 10,-23 53,-2 67,-8 -8,-25 -44,-15 -63,-23 -22,-10 -34,-28 -35,-55 33,-29 83,30 109,-4 -16,-38 -89,-38 -74,-95 35,-5 62,33 90,8 -4,-42 -41,-50 -43,-94 55,-11 64,58 106,35 -1,-26 -32,-23 -28,-54 36,-27 77,48 110,11 1,-25 -22,-27 -19,-55 38,-17 56,30 94,12 0,-18 -3,-40 8,-47 42,-16 65,18 102,20 13,-28 11,-70 35,-87 58,-14 104,13 157,16 27,-24 5,-97 67,-86 17,8 7,43 23,51 31,-18 65,-33 118,-28 19,14 35,31 39,59 27,-34 133,-60 142,8 35,-32 149,-47 153,23 50,-28 149,-21 137,59 33,-22 115,-62 133,0 28,-16 65,-55 102,-47 33,7 34,45 48,79 46,-19 54,-94 121,-79 13,12 13,37 20,55 43,25 73,-29 110,-27 44,1 49,49 82,74 25,-19 34,-58 67,-59 34,0 39,34 67,51 23,-14 34,-41 54,-58 37,5 41,42 75,51 21,1 29,-46 51,-55 50,-21 89,35 114,43 21,6 48,5 67,0 17,-6 51,-29 70,-47 33,-32 56,-84 59,-130 3,-47 -23,-91 -8,-145 34,12 44,51 59,82 15,33 32,67 31,110 -1,69 -44,133 -82,173 -36,39 -89,72 -141,102 -159,91 -351,132 -561,173 -279,53 -553,120 -722,255 -23,35 -67,69 -51,129 19,-14 35,-27 54,-23 28,5 36,37 59,51 26,-1 32,-21 59,-20 29,19 5,67 39,75 19,4 38,-24 63,-24 58,1 37,59 75,86 34,-6 35,-46 78,-43 26,12 16,58 43,67 25,7 47,-20 75,-24 25,13 26,50 51,63 14,2 65,7 85,15l82 74c53,37 105,75 155,115 36,-44 107,-74 176,-66 75,7 165,51 232,94 197,124 364,324 455,522 6,9 1,30 8,39 76,6 123,82 192,106 24,8 55,6 83,12 56,11 100,44 141,78 -48,42 -163,54 -216,8 40,45 73,98 87,169 -75,4 -124,-27 -169,-75 -42,-43 -26,-6 -8,32 20,41 47,89 23,125 -91,-49 -170,-130 -239,-188 38,53 60,123 67,208 -140,-16 -172,-155 -244,-236 -17,-19 -61,-48 -86,-64 4,19 7,37 8,57 14,187 -116,400 -90,592 0,0 252,183 302,310 21,53 43,113 47,161 2,23 2,147 1,173 0,0 -1,0 -1,0 1,6 1,6 1,0 66,0 130,11 183,27 55,16 108,37 130,86 -63,44 -173,0 -232,-7 75,40 125,105 146,200 -54,9 -82,-15 -114,-39 -61,-47 -111,-108 -165,-142 31,61 89,115 75,208 -18,4 -36,-7 -48,-15 -47,-36 -74,-103 -125,-142 -19,-14 -39,-25 -63,-35 37,44 66,129 47,204 -100,-35 -134,-142 -188,-243 -45,-84 -85,-170 -94,-248 -23,-178 -322,76 -499,126 -192,55 -408,60 -616,102 -170,35 -480,130 -761,35 16,-19 -85,38 -185,44 -69,4 -128,-54 -208,-36 -110,26 -231,55 -349,67 -61,6 -123,4 -184,8 -110,7 -224,40 -342,35 -63,-3 -125,-13 -184,-16 -88,-4 -169,16 -251,20 -109,5 -175,-11 -244,-51 -27,-33 -50,-70 -43,-137 33,-31 -7,-136 47,-146 14,30 1,86 32,99 34,-8 25,-59 62,-63 18,41 3,115 63,114 16,-27 -4,-89 36,-91 32,41 32,115 98,122 28,-10 12,-64 47,-67 16,16 10,53 51,43 8,-24 -1,-66 27,-70 23,16 6,72 43,74 24,-14 14,-62 51,-62 18,16 10,58 48,55 18,-9 11,-44 39,-44 5,26 8,55 31,63 23,-6 11,-47 39,-47 16,21 19,46 44,43 30,-3 16,-49 47,-59 20,22 18,66 59,67 11,-19 -6,-45 7,-59 26,-7 24,47 59,43 19,-23 -2,-63 20,-82 12,14 12,40 31,47 33,-28 -17,-119 32,-133 11,21 9,56 43,55 12,-34 -10,-102 27,-110 22,19 6,75 43,78 23,-6 10,-48 24,-63 27,5 11,52 39,55 1,-20 4,-37 12,-51 25,-3 13,29 35,28 15,-13 7,-48 20,-63 20,3 10,37 35,35 28,-5 21,-44 36,-62 19,4 4,42 35,35 17,-6 -1,-22 4,-39 10,-10 13,23 31,19 6,-5 4,-17 4,-27 17,-1 20,12 35,4 99,-56 151,-159 223,-241 18,-21 -101,80 -109,107 -13,12 -19,-26 -35,-12 -6,13 -4,33 -4,51 -26,3 -14,-32 -35,-35 -24,9 -20,46 -20,79 -31,0 -20,-43 -55,-40 -9,17 -8,42 -8,67 -24,-2 -18,-34 -39,-39 -23,4 -34,12 -43,31 -6,13 3,39 -16,43 -31,-7 -15,-52 -47,-51 -26,1 -24,29 -23,71 -43,-2 -25,-65 -63,-71 -28,-3 -5,43 -28,44 -24,-17 -12,-61 -43,-59 -32,2 -18,49 -27,86 -21,9 -23,-32 -43,-35 -35,18 -43,62 -40,117 -34,3 -24,-38 -51,-43 -22,31 -21,84 -27,130 -42,-3 -28,-61 -51,-83 -24,-8 -67,5 -79,32 -2,26 3,59 0,74 -52,-3 -25,-121 -90,-125 -18,20 -1,57 0,82 -46,0 -40,-86 -78,-106 -27,11 -5,72 -24,90 -35,-20 -22,-87 -55,-109 -12,21 -7,58 -12,86 -39,-9 -24,-73 -47,-98 -41,15 -18,69 -19,114 -42,0 -23,-62 -55,-71 -31,21 -6,68 -8,106 -42,6 -28,-45 -51,-59 -23,14 -10,63 -20,90 -48,-28 -16,-152 -110,-121 -4,12 -9,25 -12,43 -2,14 8,38 -7,43 -36,-13 -10,-88 -51,-94 -31,7 -19,57 -44,70 -30,-17 -12,-87 -62,-78 -8,1 -14,6 -20,16 -2,20 3,33 4,51 -32,-12 -36,-60 -47,-98 -11,-39 -29,-77 -32,-114 -5,-66 32,-131 75,-161z"/>
 </g>
</svg>
