<?xml version="1.0" encoding="UTF-8"?>
<!DOCTYPE svg PUBLIC "-//W3C//DTD SVG 1.1//EN" "http://www.w3.org/Graphics/SVG/1.1/DTD/svg11.dtd">
<!-- Creator: CorelDRAW X7 -->
<svg xmlns="http://www.w3.org/2000/svg" xml:space="preserve" width="8.5in" height="11in" version="1.1" style="shape-rendering:geometricPrecision; text-rendering:geometricPrecision; image-rendering:optimizeQuality; fill-rule:evenodd; clip-rule:evenodd"
viewBox="0 0 8500 11000"
 xmlns:xlink="http://www.w3.org/1999/xlink">
 <defs>
  <style type="text/css">
   <![CDATA[
    .fil0 {fill:black}
   ]]>
  </style>
 </defs>
 <g id="Layer_x0020_1">
  <metadata id="CorelCorpID_0Corel-Layer"/>
  <path class="fil0" d="M3249 3605c33,-13 81,-13 116,-25 -73,-39 -147,-78 -243,-94 32,-13 61,-29 98,-37 -14,-15 -43,-25 -66,-33 -66,-25 -156,-39 -251,-46 22,-19 47,-35 70,-53 -145,-26 -296,7 -424,24 -3,-21 31,-40 37,-65 -183,-13 -276,64 -404,107 -3,-14 13,-45 21,-62 -71,9 -136,47 -198,78 -62,31 -123,66 -185,95 3,-21 7,-42 12,-62 -81,30 -158,75 -235,115 -75,40 -153,80 -214,132 -120,104 -210,268 -214,478 -1,11 -1,19 0,29 36,542 425,770 898,890 -55,55 -129,99 -190,157 -25,23 -42,53 -74,70 -59,30 -127,27 -181,61 -53,34 -88,101 -103,165 55,-24 140,-32 202,-8 -26,55 -66,114 -46,202 56,-29 111,-60 194,-62 -27,50 -17,117 -8,181 37,-49 98,-75 169,-90 16,61 41,112 74,156 27,-37 44,-74 74,-111 33,-41 92,-71 107,-128 19,-71 2,-150 58,-189 24,-17 70,-23 115,-21 83,5 209,13 260,37 33,16 59,51 90,79 31,27 64,49 91,74 59,54 112,121 157,177 48,61 97,129 136,198 40,73 64,156 119,214 67,70 160,114 255,140 -32,32 -77,41 -111,74 -100,98 -170,289 -181,445 -4,63 -1,123 29,165 35,48 121,76 119,161 0,32 -26,54 -37,70 135,-1 220,-53 239,-169 61,38 140,94 140,206 80,-26 117,-113 99,-223 71,19 147,84 128,194 33,-26 89,-60 99,-111 12,-63 -25,-100 -54,-140 77,21 157,41 177,119 40,-58 43,-148 -4,-198 -34,-36 -99,-58 -148,-99 -53,-44 -92,-85 -124,-119 79,10 187,21 268,4 38,23 69,52 103,82 32,28 59,72 95,91 47,26 129,26 194,29 31,1 65,-9 94,-4 20,3 40,18 62,29 138,64 357,65 519,111 191,53 353,125 511,210 76,41 149,91 227,136 75,43 157,81 239,119 165,78 348,154 552,165 82,5 147,-12 230,-29 101,-20 175,-29 161,-156 -6,-53 -39,-99 -66,-140 -20,-32 -39,-63 -62,-70 6,45 13,89 17,136 -25,-10 -46,-59 -66,-87 -10,9 -10,29 -12,45 -30,-37 -44,-85 -66,-131 -6,-13 -13,-31 -25,-37 -13,40 -33,73 -49,111 -60,0 -52,-67 -62,-116 -26,12 -32,43 -54,58 -3,-55 7,-98 4,-152 -7,-14 -19,10 -24,16 -23,28 -48,75 -75,99 -47,-3 -36,-65 -37,-115 -28,25 -68,102 -123,45 -8,-48 2,-88 0,-140 -39,17 -51,61 -74,95 -18,-8 -32,-18 -50,-25 -7,-28 -3,-69 -4,-103 -6,-12 -23,11 -33,21 -13,11 -26,26 -37,32 3,-12 -5,-35 4,-41 -12,-9 -26,15 -41,17 -7,-36 -3,-82 -4,-124 -6,-11 -24,11 -33,21 -12,13 -20,32 -33,37 -63,-10 -69,-77 -87,-132 -13,14 -14,41 -33,49 -50,-18 -76,-60 -115,-90 10,-29 7,-70 16,-99 42,5 43,51 58,82 19,-16 13,-56 29,-74 61,8 43,95 58,148 14,-35 23,-75 41,-107 22,26 34,62 45,99 13,-19 19,-44 25,-70 64,5 59,78 78,128 26,-32 27,-89 58,-115 35,0 34,37 41,65 18,-15 18,-48 29,-70 15,26 15,68 25,99 20,-35 33,-76 53,-111 25,21 32,59 46,91 11,-26 11,-63 16,-95 14,-5 33,-9 45,-4 28,35 42,85 62,128 16,-43 19,-97 33,-141 65,0 75,54 103,91 12,-14 -3,-55 8,-70 68,15 74,91 103,144 16,-37 12,-92 25,-132 55,-1 54,54 70,91 19,-39 3,-113 37,-136 23,6 26,32 37,50 15,-32 3,-89 37,-99 25,6 40,45 58,45 -2,-20 7,-28 4,-49 29,16 52,39 50,86 27,-16 22,-59 33,-86 7,-21 27,-36 37,-58 28,-67 34,-216 -33,-231 -13,-3 -33,-1 -46,0 -61,5 -117,27 -181,33 -244,23 -463,-64 -659,-132 -54,-19 -114,-31 -144,-57 -38,-33 -55,-103 -107,-128 -2,-1 -9,-4 -9,-4 -77,-20 -186,-37 -268,-62 -41,-65 -75,-154 -131,-206 -70,-65 -259,-38 -375,-29 -20,-22 -29,-53 -41,-82 -21,-4 -34,32 -54,41 -93,-32 -102,-148 -132,-243 -19,18 -25,49 -45,66 -28,-15 -57,-32 -74,-58 -33,-47 -40,-118 -87,-152 -12,18 -15,45 -20,70 -31,-15 -62,-21 -87,-37 -37,-26 -56,-79 -82,-120 -29,-44 -56,-81 -79,-119 -27,12 -33,45 -57,61 -102,-34 -124,-148 -202,-206 -4,24 -14,42 -17,66 -115,-27 -150,-135 -239,-189 0,-7 -11,-14 -8,0 9,24 18,48 17,82 -113,-4 -164,-131 -252,-181 5,28 7,71 0,99 -37,4 -55,-11 -82,-17 -20,-48 -43,-92 -66,-136 -20,-38 -40,-89 -78,-119 -62,-49 -194,-49 -297,-41 -108,7 -195,52 -260,94 -49,-17 -84,-47 -136,-61 8,21 3,55 5,82 -72,-11 -136,-8 -190,-29 -68,-26 -112,-82 -161,-123 -23,17 -28,54 -53,70 -48,-16 -91,-16 -128,-33 -65,-31 -95,-105 -148,-132 -4,24 -7,48 -9,74 -48,-12 -91,-15 -127,-33 -52,-25 -95,-96 -136,-136 -5,-5 -7,-20 -17,-12 -1,29 -15,45 -16,74 -33,-16 -65,-16 -91,-33 -30,-20 -44,-59 -66,-91 -21,-31 -44,-60 -66,-86 -22,12 -21,47 -28,74 -38,-19 -83,-66 -120,-99 -14,-58 -24,-122 -37,-181 -29,12 -42,40 -70,53 -9,-49 -19,-145 4,-193 22,-46 101,-91 169,-124 196,-95 480,-152 737,-165 435,-21 856,46 1129,177 -17,-21 -47,-29 -74,-45 -75,-43 -159,-96 -239,-136z"/>
 </g>
</svg>
