<?xml version="1.0" encoding="UTF-8"?>
<!DOCTYPE svg PUBLIC "-//W3C//DTD SVG 1.1//EN" "http://www.w3.org/Graphics/SVG/1.1/DTD/svg11.dtd">
<!-- Creator: CorelDRAW X7 -->
<svg xmlns="http://www.w3.org/2000/svg" xml:space="preserve" width="8.5in" height="11in" version="1.1" style="shape-rendering:geometricPrecision; text-rendering:geometricPrecision; image-rendering:optimizeQuality; fill-rule:evenodd; clip-rule:evenodd"
viewBox="0 0 8500 11000"
 xmlns:xlink="http://www.w3.org/1999/xlink">
 <defs>
  <style type="text/css">
   <![CDATA[
    .fil0 {fill:#373435;fill-rule:nonzero}
   ]]>
  </style>
 </defs>
 <g id="Layer_x0020_1">
  <metadata id="CorelCorpID_0Corel-Layer"/>
  <path class="fil0" d="M1199 3859c0,-13 7,-24 19,-30 4,-2 8,-11 11,-19 2,-3 4,-6 6,-9 4,-4 8,-7 11,-9 2,-2 3,-4 5,-6 4,-6 10,-9 16,-11 1,-2 3,-4 4,-6 7,-8 17,-12 27,-12 1,1 2,1 2,1 6,-10 17,-17 29,-17l157 0c11,0 21,6 27,14 11,1 23,2 34,4 2,0 4,-1 6,-1 14,-2 27,4 34,15 4,0 11,0 16,0l5 1c6,0 12,1 17,4 12,8 25,12 41,12l4 0c8,0 16,2 22,7 5,4 16,8 39,9 13,-3 26,0 35,9 2,1 3,3 4,4 19,1 39,3 56,15 14,0 43,0 64,16 36,0 72,2 101,16l14 0c15,0 31,1 45,3 12,-1 23,3 31,11 1,1 2,2 2,2l4 0c1,0 3,0 4,1 11,1 21,6 28,16 9,0 22,3 33,14 0,0 0,1 0,1 2,0 4,1 5,1 15,4 25,10 31,16 17,2 29,9 37,16l39 0c5,0 10,1 14,3 7,3 13,7 18,10 8,5 10,7 14,7 11,1 22,7 27,17 5,2 12,6 19,13 7,2 15,7 22,16 0,1 1,2 1,3 4,3 6,6 7,7 13,11 19,20 26,28l4 6c8,10 16,19 24,25 4,3 10,8 14,16 3,1 6,3 9,6 2,2 4,4 6,6 3,1 5,3 8,4 5,4 9,9 11,14 4,3 9,6 12,11 4,1 7,3 10,4 5,-2 10,-3 15,-3 1,0 1,0 2,0l7 0 35 1c12,0 26,-1 38,-2 3,-4 6,-8 11,-10 9,-6 20,-7 33,-6 1,-1 2,-2 2,-3 6,-7 16,-12 25,-12 8,0 12,-1 14,-1 6,-10 17,-15 29,-15 5,0 10,0 15,0 31,0 44,-3 47,-5 6,-7 15,-11 25,-11 52,-1 102,-5 151,-9 54,-5 110,-9 170,-9 24,0 46,0 68,2 7,0 14,3 20,8 8,7 28,10 52,8 7,-1 14,1 19,4 3,2 5,3 7,4 12,8 17,10 29,8 11,-1 23,3 30,13 5,5 10,11 16,17 7,7 14,14 21,23 2,3 4,6 5,9 6,18 0,30 -4,36 -2,4 -6,8 -12,11 -2,5 -4,10 -9,14 -4,3 -7,5 -11,7 -6,9 -17,14 -29,14 0,0 0,0 0,0 -2,4 -5,8 -9,11 -7,7 -17,10 -26,9 -7,-1 -10,0 -19,5 -3,1 -6,3 -9,4l4 0c3,0 7,1 10,2 12,4 21,9 28,14l43 0c2,0 4,0 7,0 2,0 20,1 31,17 13,2 23,8 30,15 15,2 28,8 39,17l21 0c10,0 20,4 26,12 2,2 8,5 21,5 3,0 7,-1 11,-1 10,-1 20,3 27,11 2,1 3,3 4,5 1,0 1,0 1,1 9,3 20,7 29,15 4,1 6,1 10,0 13,-1 26,5 33,16 1,0 3,0 6,0 10,1 19,6 25,15 1,1 2,2 2,4 4,2 8,4 11,8 4,4 6,8 8,12 7,3 15,7 20,16 3,3 6,5 9,9 2,2 4,5 6,9 10,7 18,15 23,23 10,3 18,7 25,10 0,0 0,0 0,0 1,-4 2,-7 4,-10l5 -11c7,-16 15,-32 24,-47 0,-2 1,-3 2,-4 9,-12 21,-16 31,-18 0,-1 2,-3 3,-4 6,-7 15,-12 25,-12 4,0 6,0 8,0 6,-9 16,-15 27,-16l23 -1c22,-1 44,-2 66,-2 21,0 41,1 59,3 6,0 22,2 32,16l7 0c10,0 21,4 29,14 14,4 23,10 29,15 7,4 7,4 9,4 0,0 1,0 2,0 10,-2 21,2 28,10 7,8 19,15 31,22 10,5 20,11 28,18 4,1 13,5 19,13 6,1 11,2 15,4 21,-6 48,-10 69,-7 17,3 29,12 37,18 1,0 2,1 3,2 7,0 14,3 20,7 6,5 10,11 13,16 8,4 15,11 18,21 2,4 3,9 4,14 0,0 0,0 0,1 7,5 13,13 14,23 0,4 1,8 2,11 2,12 4,25 1,40 -2,14 -10,23 -15,29 -1,1 -1,1 -1,2 13,7 26,11 45,10 14,-4 28,-1 37,9 2,1 3,2 4,3 15,3 27,9 36,13 12,5 17,8 28,7 12,-1 25,5 31,15 3,1 7,1 13,1l10 0c13,-4 27,0 36,9 1,1 1,2 2,3 21,1 37,7 51,12 14,4 25,8 40,8 13,-3 27,0 36,10 1,0 1,1 2,2 13,1 31,5 45,16 13,1 33,3 48,16 13,1 33,4 48,17 13,0 34,3 49,16l0 0 12 0c24,0 56,0 80,16 3,0 6,0 9,0 5,0 11,0 17,0 24,0 58,0 81,16l50 0c3,-1 5,-1 8,-1 5,0 21,2 31,16 18,2 29,11 35,16 1,1 1,2 2,2 0,0 1,0 1,0 11,-2 21,0 30,7 6,6 14,10 24,12 12,-2 24,1 32,10 1,1 2,1 2,2 16,2 26,8 34,17 3,0 7,0 12,0 1,-1 3,-1 4,-1 4,0 21,1 31,16 13,2 23,7 31,14 15,3 27,8 37,12 14,6 23,10 39,7 12,-2 23,3 31,12 0,0 5,4 30,4 3,0 5,0 9,0 11,0 24,5 32,18 21,7 39,17 55,26 16,8 31,17 48,22 8,2 14,8 18,14 11,4 18,10 22,16 21,6 35,18 44,29 18,3 29,14 35,20 0,0 0,0 1,0 9,0 18,4 24,11 14,16 31,27 52,36 9,3 16,11 19,19 4,3 10,7 15,14 9,3 15,9 19,13 7,0 13,2 19,6 5,4 9,10 11,16 4,2 10,6 15,12 10,4 16,10 20,14 8,1 15,4 20,8 4,4 8,8 9,13 8,5 13,10 16,15 6,3 11,6 15,11 2,3 4,6 5,10 9,4 18,12 24,23 7,2 13,6 17,11 2,2 4,5 5,7 4,3 8,6 11,10 1,1 3,2 4,4 14,6 21,18 24,25 5,7 18,20 24,22 15,5 24,18 23,34 6,5 11,11 15,17 8,1 16,5 21,12 2,1 3,3 4,4 0,1 1,1 2,2 5,3 9,7 11,12 4,1 8,3 12,6 7,6 11,15 12,24 4,4 11,10 15,20 6,4 11,9 15,16 4,2 8,5 11,10 3,3 4,6 6,10 5,4 9,8 12,12 5,4 11,9 15,16 7,4 13,10 16,18 2,4 6,8 11,13 6,5 12,11 18,19 10,7 17,15 22,22 1,2 3,4 4,6 8,1 15,5 20,12 6,6 8,14 8,22 1,1 1,2 2,4 10,7 17,17 21,23 1,2 3,4 4,5 1,1 3,3 5,4 7,5 18,13 25,25 6,3 11,8 16,15 2,0 4,1 6,2 9,5 15,13 17,22 2,10 6,11 9,12 15,4 25,18 24,33 2,2 4,4 6,6 2,3 4,5 6,8 5,3 10,8 14,16 1,1 2,1 3,2 8,5 13,14 15,23 0,1 1,2 1,3 0,1 1,2 1,3 4,4 9,9 12,15 3,1 6,3 9,5 8,6 14,16 14,27l0 2c5,4 9,10 12,18 8,5 14,14 16,24 0,1 0,2 0,3 1,1 1,2 1,2 5,4 10,10 14,18 1,1 2,2 3,2 8,6 14,16 14,26 0,1 0,2 0,3 12,5 20,17 20,31l0 4c4,3 7,8 9,13 3,2 6,4 9,6 7,7 11,16 10,26 0,1 1,1 1,2 0,2 1,3 1,5 7,5 12,12 15,24 1,1 3,2 4,4 9,7 13,18 12,28 -1,4 -1,4 4,10 3,5 9,13 12,23 1,0 2,1 3,2 7,6 12,14 13,24 0,2 0,4 0,6 2,1 3,2 4,3 7,6 12,15 12,24 0,4 0,8 0,12 0,1 0,2 0,3 5,7 8,14 10,19 4,2 8,4 12,7 6,7 10,16 10,25l0 9c11,12 15,27 17,34 0,0 0,1 0,1 9,6 16,17 16,29l0 7c8,10 12,23 14,30 0,0 0,1 0,2 5,3 9,7 12,11 4,7 6,15 5,23 6,5 15,15 17,31 9,10 12,23 14,29 0,1 1,2 1,2 10,6 17,17 17,30l0 4c1,0 2,2 4,3 8,8 11,19 12,28 2,1 3,3 5,4 8,7 12,18 11,29 11,6 18,19 16,32 10,6 17,17 17,29l0 8c7,8 12,19 15,33 8,7 13,17 13,28 0,1 0,1 0,2 2,4 3,9 4,16 3,2 6,6 9,11 4,10 5,20 5,28 0,0 0,1 0,2 4,4 10,10 13,19 3,10 3,19 3,27 0,0 0,1 0,1 2,2 4,4 6,6 6,7 9,17 8,27 -1,21 2,26 2,26 10,7 16,19 14,32 -1,10 0,18 2,28 0,2 0,3 1,5 4,3 7,7 9,11 29,52 34,92 16,122 -16,27 -47,41 -93,41 -1,0 -1,0 -1,0 -13,0 -24,-8 -30,-19 -5,-2 -9,-6 -14,-12 -5,-2 -9,-5 -13,-9 -3,-3 -5,-7 -6,-11 -6,-4 -11,-10 -13,-18 -1,-4 -2,-8 -2,-11 -4,-2 -7,-4 -9,-6 -8,-8 -11,-18 -10,-28 -4,-2 -7,-5 -9,-8 -6,-7 -9,-17 -7,-27 1,-4 1,-4 -3,-10 -6,-8 -13,-20 -15,-38 -1,-1 -2,-2 -3,-3 -6,-8 -10,-17 -11,-25 -2,-1 -3,-2 -4,-4 -6,-7 -10,-16 -9,-25 0,-5 0,-6 -5,-14 -6,-9 -15,-23 -16,-46 -4,-5 -9,-12 -12,-22 -2,-1 -4,-2 -5,-4 -8,-7 -11,-18 -10,-28 0,-1 -1,-2 -1,-3 -1,-5 -4,-11 -4,-20 -11,-17 -17,-35 -24,-53 -1,-1 -1,-2 -2,-3 -2,-2 -5,-4 -7,-6 -8,-7 -11,-17 -11,-27 1,-7 1,-13 -1,-19 -13,-19 -22,-39 -29,-57 -4,-3 -8,-6 -11,-10 -5,-6 -8,-15 -7,-24 -2,-1 -3,-2 -5,-3 -7,-7 -11,-16 -11,-25l0 -4c-2,-1 -3,-2 -4,-3 -8,-6 -12,-16 -12,-26l0 -3c-10,-6 -16,-17 -16,-29l0 -7c-2,-1 -4,-3 -5,-4 -9,-8 -13,-21 -11,-33 -4,-5 -13,-14 -16,-29 -7,-5 -12,-14 -15,-26 -2,-1 -4,-3 -6,-4 -8,-7 -12,-16 -12,-26l0 -4c-1,-1 -2,-2 -3,-3 -9,-8 -12,-19 -13,-28 -3,-3 -5,-6 -8,-10 -4,-2 -8,-5 -11,-8 -7,-8 -11,-19 -9,-29 0,0 0,0 0,-1 -6,-5 -14,-14 -19,-28 -5,-3 -9,-9 -12,-17 -3,-1 -5,-3 -7,-5 -7,-7 -11,-16 -11,-25 -5,-4 -10,-9 -13,-17 -3,-2 -6,-4 -9,-6 -6,-7 -10,-15 -10,-24 -1,-2 -1,-3 -2,-5 -10,-8 -18,-18 -23,-29 -7,-4 -11,-10 -14,-15 -6,-1 -11,-4 -16,-8 -6,-7 -9,-15 -9,-23 -6,-4 -14,-12 -18,-24 -8,-5 -16,-12 -22,-23 -6,-2 -12,-6 -16,-12 -2,-2 -3,-3 -4,-6 -5,-2 -9,-6 -12,-10 -2,-2 -3,-4 -4,-6 -5,-2 -9,-6 -13,-10 -1,-2 -2,-4 -3,-6 -5,-3 -9,-6 -13,-10 -1,-2 -2,-4 -4,-6 -4,-3 -8,-6 -12,-10 -1,-2 -3,-4 -4,-6 -4,-3 -9,-6 -12,-10 -1,-2 -3,-4 -4,-6 -5,-3 -9,-6 -12,-11 -1,-1 -3,-3 -4,-6 -5,-2 -9,-7 -13,-13 -3,-1 -6,-2 -8,-4 -9,-5 -14,-15 -15,-25 0,0 -2,-1 -6,-3 -11,-3 -19,-12 -22,-23 -1,-5 -9,-12 -18,-18 -6,-5 -12,-10 -17,-15 -5,-5 -10,-11 -15,-16 -8,-10 -15,-18 -23,-21 -9,-4 -15,-11 -18,-19 -7,-4 -11,-8 -15,-13 -7,-2 -13,-6 -17,-12 -2,-3 -4,-6 -5,-9 -5,-3 -10,-8 -14,-14 -6,-4 -11,-8 -14,-12 -11,-1 -21,-7 -26,-16 0,0 0,0 0,0 -4,-3 -11,-7 -18,-15 -10,-1 -23,-5 -33,-17 -13,-2 -22,-8 -29,-16 -15,-2 -25,-8 -33,-16l-3 0c-13,0 -24,-7 -29,-17 -14,-3 -24,-8 -31,-15l-5 0c-10,0 -21,-4 -29,-15 -13,-3 -22,-9 -29,-14 -6,-4 -7,-4 -9,-4 -1,0 -2,0 -3,0 -9,1 -18,-1 -26,-6 -3,-2 -5,-5 -8,-8 0,0 0,0 0,0 -7,-1 -24,-4 -36,-16 -23,-4 -39,-12 -53,-20 -14,-7 -23,-12 -37,-14 -12,3 -25,-1 -34,-10 -1,-1 -1,-1 -2,-2 -13,-1 -31,-5 -44,-16 -23,-1 -39,-8 -50,-16l-10 0c-42,0 -78,-2 -107,-17 -20,-1 -41,0 -61,0 -15,1 -29,1 -43,1 -37,0 -77,-2 -110,-16 -16,0 -31,1 -47,1 -59,0 -114,-5 -167,-10 -54,-5 -105,-10 -162,-10 -21,0 -42,1 -63,2 -8,1 -15,-2 -22,-6 -1,-1 -3,-3 -5,-4 -4,2 -9,2 -14,2 -7,-1 -14,-1 -21,-2 -23,-3 -49,-5 -82,-6l-9 0c-12,0 -24,0 -37,1 -14,0 -27,0 -41,0 -34,0 -69,-2 -94,-16 -7,1 -13,1 -20,1 -29,0 -53,-6 -74,-11 -25,-6 -50,-11 -79,-7 -11,1 -21,-3 -28,-11 -2,-1 -9,-6 -42,-6 -6,0 -13,0 -20,0l-10 1c-10,0 -20,-5 -27,-13 -2,-1 -11,-4 -35,-4 -5,0 -11,0 -17,1 -5,0 -11,-1 -15,-3 -11,-4 -17,-10 -21,-15 0,0 0,0 -1,0 -3,0 -8,1 -12,1 -13,1 -25,2 -35,0 -6,-1 -11,-3 -16,-7 -6,-5 -18,-11 -40,-9 -14,4 -28,0 -38,-9 -1,-1 -2,-2 -3,-4 -26,0 -49,2 -69,6 -2,3 -3,6 -5,9 -4,4 -8,7 -12,10 -2,3 -4,6 -7,8 -5,4 -9,8 -14,12 -13,10 -22,17 -25,27 -5,13 -18,21 -31,22 -2,3 -5,6 -8,9 -8,6 -18,8 -28,6 0,0 0,0 0,0 -1,1 -2,1 -2,2 -6,4 -14,11 -27,14 -2,5 -5,10 -7,14 6,10 13,24 13,44 4,5 10,13 13,24 2,2 4,4 6,6 5,6 8,14 8,22 7,37 10,86 -13,118 -5,7 -12,13 -19,18 -6,13 -16,23 -23,28 -1,2 -3,3 -4,5 -3,4 -6,8 -9,14 -5,7 -9,15 -16,23 -10,11 -20,19 -30,28 -6,4 -11,9 -17,14l-1 2c-13,12 -26,25 -35,38 -5,7 -12,12 -20,13 -16,4 -29,12 -45,22 -17,10 -36,22 -60,28 -2,2 -3,4 -4,5 -7,7 -17,11 -26,11 -2,0 -4,0 -5,0 -11,-2 -18,0 -28,1 -5,1 -9,1 -14,2 -3,4 -7,7 -11,9 -10,5 -23,6 -39,5 0,0 -1,0 -1,0 -3,4 -7,8 -11,10 -10,6 -21,7 -34,6 -3,3 -7,7 -13,11 -2,5 -6,9 -10,13 -7,5 -15,8 -23,7 -5,6 -10,10 -15,12 -2,4 -4,7 -6,10 -9,9 -21,12 -33,10 0,0 -1,-1 -1,-1 -6,6 -17,16 -37,16 -7,0 -14,-1 -21,-4 -9,-3 -23,-11 -27,-32 -3,-5 -4,-11 -4,-17 0,-18 9,-29 16,-35 -1,-8 1,-17 6,-24 3,-4 7,-7 11,-10 2,-5 4,-11 9,-17l-2 0c-5,5 -12,9 -20,11 -4,1 -9,1 -13,0 -14,-3 -21,0 -34,5 -7,3 -15,7 -25,9 -12,16 -29,25 -42,33 -7,4 -13,8 -18,11 -9,8 -22,9 -33,5 -40,-17 -33,-63 -30,-85 1,-3 1,-7 2,-10 0,-11 6,-20 15,-25 0,-2 1,-4 1,-6 1,-9 7,-17 14,-22 8,-5 13,-10 17,-15 -20,-5 -37,-16 -47,-32 -1,-3 -3,-6 -3,-9 -8,-26 -1,-47 20,-62 3,-6 9,-15 20,-21 1,0 2,-1 3,-2 3,-3 8,-8 14,-11 3,-5 7,-8 11,-12 4,-9 11,-17 21,-21 7,-3 15,-5 24,-7 -1,-1 -1,-2 -1,-2 -4,-16 0,-28 3,-35 0,-11 5,-21 14,-28 8,-6 17,-9 23,-11 6,-9 16,-15 27,-16 20,-1 42,-2 66,-2 24,0 48,1 72,1 22,1 45,2 68,2 -3,-18 -3,-37 -3,-55 0,-19 1,-49 -5,-56 -12,-14 -10,-34 3,-46 3,-6 2,-26 2,-39 0,-14 -1,-29 1,-43 -60,-9 -126,-13 -195,-13l-12 0c-2,0 -4,1 -7,1 -6,0 -18,-2 -29,-13 -44,-1 -77,-11 -110,-21 -18,-6 -35,-11 -53,-15 -12,2 -24,-2 -32,-10 -1,-1 -2,-2 -3,-3 -4,-1 -7,-2 -9,-2 -3,-1 -5,-2 -6,-2 -11,0 -21,-5 -27,-14 -7,-1 -20,-4 -31,-14 -6,0 -16,0 -26,-5 -8,-2 -15,-6 -20,-12 -11,-2 -23,-6 -32,-16 0,0 0,0 0,0 -10,-2 -22,-5 -31,-15l-2 0c-10,0 -19,-5 -26,-12 -2,-2 -5,-4 -7,-6 -13,-4 -22,-10 -28,-15 -1,-1 -4,-3 -4,-3 -11,-1 -21,-6 -27,-15 -1,0 -2,0 -2,0 -10,-4 -16,-9 -21,-14 -2,0 -4,0 -6,0 -4,0 -20,-3 -28,-18 -7,-2 -14,-5 -20,-11 -1,-1 -2,-3 -3,-4 -9,-3 -15,-7 -20,-12 -14,-3 -24,-10 -31,-15 -5,-4 -6,-4 -7,-4 -2,0 -3,0 -5,0 -3,-1 -16,-4 -25,-16 0,0 -1,0 -1,0 -10,0 -20,-4 -26,-11 -9,-10 -23,-17 -44,-22 -3,-1 -7,-3 -10,-5 0,0 0,0 0,1l0 249c0,8 -3,15 -7,21 -8,9 -13,22 -19,36 -3,8 -7,15 -10,22 -3,7 -8,12 -15,15 -1,1 -5,6 -7,10 0,0 0,1 1,1 4,8 11,19 13,36 2,3 4,5 6,8 4,5 9,16 5,31 -3,27 -13,50 -29,68l0 3c0,2 0,6 0,8 5,5 10,11 12,18 5,16 4,27 3,37 12,9 18,21 18,36 1,14 -4,24 -8,30 -1,6 -4,13 -9,18 -6,7 -15,11 -24,11l-33 0c-7,0 -13,-3 -19,-7 -3,-2 -5,-3 -7,-5 -6,-5 -6,-5 -8,-5 -1,0 -1,0 -2,0 -9,1 -17,-1 -24,-6 -8,-7 -13,-14 -17,-19 -1,-1 -2,-2 -2,-3 -15,-1 -26,-12 -30,-25 -4,-3 -8,-7 -12,-13 -5,-3 -10,-6 -14,-11 -6,-7 -8,-17 -6,-27 -9,-6 -13,-17 -13,-27 1,-18 0,-33 -2,-44 -11,-21 -20,-44 -28,-66 -2,-1 -4,-2 -5,-3 -8,-6 -13,-15 -13,-24 -1,-6 -1,-13 -1,-20 0,-6 0,-15 -1,-20 -9,-6 -15,-17 -15,-29 2,-32 -2,-61 -10,-84 -3,-9 -2,-18 2,-26 3,-7 5,-21 7,-34 1,-5 1,-9 2,-13 1,-8 5,-15 12,-21 6,-5 9,-11 14,-20 2,-4 4,-8 6,-12 0,0 -1,-1 -1,-1 -12,-10 -27,-22 -37,-41 -15,-3 -26,-16 -27,-32 0,-1 0,-3 0,-4 -1,-1 -2,-2 -3,-3 -8,-6 -13,-16 -13,-26l0 -2c0,-6 0,-16 0,-22 -10,-6 -16,-17 -16,-28l0 -190c-2,-13 2,-22 5,-28 3,-5 7,-9 11,-11l0 -2c-39,0 -74,-5 -108,-9 -32,-5 -63,-9 -98,-9 -14,4 -27,0 -37,-9 -1,-1 -1,-2 -2,-3 -5,-1 -9,-2 -13,-3 -5,-1 -7,-1 -10,-1l-2 0c-7,1 -14,-1 -20,-5 -3,-2 -6,-3 -9,-5 -7,-6 -8,-6 -13,-6 -9,0 -17,-3 -24,-9 -2,-2 -4,-4 -5,-6 -12,-5 -19,-11 -23,-18 -4,-1 -8,-2 -11,-5 -6,-3 -10,-8 -13,-12 -6,-2 -11,-6 -15,-11 -5,-5 -7,-11 -8,-17 0,-1 0,-1 0,-1 -5,-4 -9,-10 -13,-17 -8,-4 -15,-11 -18,-21 -3,-9 -3,-19 -4,-28 0,-2 0,-5 0,-7 -8,-6 -13,-16 -13,-27l0 -52c0,-4 0,-7 1,-11 -1,-1 -1,-3 -2,-4 -3,-2 -5,-4 -7,-6 -6,-1 -13,-2 -20,-5 -6,-2 -12,-6 -17,-12 -6,-1 -12,-2 -18,-5 -7,-4 -11,-8 -15,-12 -9,-1 -18,-5 -24,-13 -6,-7 -9,-11 -12,-15 -1,-1 -2,-2 -3,-3 -7,-2 -18,-7 -25,-19 -4,-3 -8,-7 -12,-12 -3,-1 -6,-3 -9,-5 -8,-5 -14,-14 -15,-24 -2,-2 -7,-4 -9,-5 -9,-5 -16,-13 -18,-23 -1,-4 -4,-7 -10,-15 -7,-7 -15,-16 -21,-28 -21,-11 -36,-27 -50,-41 -11,-11 -20,-21 -31,-27 -11,-6 -17,-17 -18,-28 -14,-9 -20,-23 -23,-30 -6,-1 -12,-4 -16,-9 -7,-7 -10,-16 -9,-26 -1,-2 -2,-3 -3,-4 -4,-5 -9,-11 -13,-20 -10,-6 -17,-17 -17,-29l0 -101c0,-12 7,-23 17,-29zm2159 280l0 0 0 19c0,0 0,0 0,1l1 -20c0,0 -1,0 -1,0zm1 67l0 0 0 -33 -2 33c1,0 1,0 2,0z"/>
 </g>
</svg>
