<?xml version="1.0" encoding="UTF-8"?>
<!DOCTYPE svg PUBLIC "-//W3C//DTD SVG 1.1//EN" "http://www.w3.org/Graphics/SVG/1.1/DTD/svg11.dtd">
<!-- Creator: CorelDRAW X7 -->
<svg xmlns="http://www.w3.org/2000/svg" xml:space="preserve" width="8.5in" height="11in" version="1.1" style="shape-rendering:geometricPrecision; text-rendering:geometricPrecision; image-rendering:optimizeQuality; fill-rule:evenodd; clip-rule:evenodd"
viewBox="0 0 8500 11000"
 xmlns:xlink="http://www.w3.org/1999/xlink">
 <defs>
  <style type="text/css">
   <![CDATA[
    .fil1 {fill:black;fill-rule:nonzero}
    .fil4 {fill:#254615;fill-rule:nonzero}
    .fil3 {fill:#72A637;fill-rule:nonzero}
    .fil2 {fill:#A7A9AC;fill-rule:nonzero}
    .fil0 {fill:#FFD24E;fill-rule:nonzero}
    .fil6 {fill:#FFFC49;fill-rule:nonzero}
    .fil5 {fill:white;fill-rule:nonzero}
   ]]>
  </style>
 </defs>
 <g id="Layer_x0020_1">
  <metadata id="CorelCorpID_0Corel-Layer"/>
  <g id="_393610271520">
   <path class="fil0" d="M2818 6187c0,0 -56,94 42,150 0,0 254,-234 246,-288 -7,-55 -120,-155 -288,138z"/>
   <path class="fil1" d="M2864 6371l-18 -10c-36,-20 -59,-48 -68,-82 -14,-53 13,-101 16,-106 111,-194 201,-222 257,-212 48,10 78,49 83,84 9,60 -156,221 -255,312l-15 14zm-22 -170l0 0c-1,1 -18,33 -10,65 4,13 12,25 25,35 107,-99 217,-218 222,-249 -3,-13 -16,-32 -38,-36 -77,-15 -172,138 -199,185l0 0z"/>
   <path class="fil2" d="M5968 7407c0,246 -777,445 -1735,445 -958,0 -1735,-199 -1735,-445 0,-247 777,-446 1735,-446 958,0 1735,199 1735,446z"/>
   <path class="fil3" d="M2756 6477c-142,219 -181,534 62,909 68,106 853,-241 1085,-129 0,0 141,-348 -277,-408 -111,-16 -338,67 -526,88 0,0 125,-448 -344,-460z"/>
   <path class="fil1" d="M2882 7434c-44,0 -72,-10 -87,-33 -126,-193 -300,-572 -62,-939 5,-8 14,-13 24,-13 148,4 255,50 320,137 80,109 70,250 58,319 67,-10 138,-27 207,-43 117,-27 219,-51 288,-41 140,20 237,75 287,161 73,129 14,279 12,285 -3,7 -9,13 -16,15 -7,3 -15,3 -22,0 -117,-57 -408,18 -642,79 -171,44 -292,73 -367,73zm-111 -929l0 0c-208,337 -46,687 70,866 0,0 13,17 117,0 75,-12 173,-37 277,-64 238,-61 506,-130 650,-87 12,-43 27,-134 -17,-211 -41,-70 -124,-115 -246,-133 -59,-8 -160,15 -267,40 -84,20 -171,40 -252,49 -9,1 -18,-3 -24,-10 -6,-7 -8,-16 -6,-25 1,-2 50,-188 -41,-311 -52,-70 -139,-108 -261,-114z"/>
   <path class="fil0" d="M2728 6357c0,0 -68,92 -97,205 -19,72 108,124 307,194 0,0 142,-65 117,-176 -24,-110 -130,-283 -327,-223z"/>
   <path class="fil1" d="M2940 6786l-11 -4c-213,-75 -350,-130 -325,-227 30,-116 99,-210 102,-214l6 -8 8 -2c76,-24 146,-17 208,19 89,51 139,153 154,224 29,131 -126,204 -132,207l-10 5zm-195 -405l0 0c-16,24 -65,100 -87,188 -14,53 157,114 278,156 28,-15 108,-66 92,-139 -13,-60 -55,-146 -127,-188 -46,-27 -98,-32 -156,-17z"/>
   <path class="fil0" d="M2643 6525c0,0 -76,165 13,505 0,0 273,-42 319,-251 24,-110 -136,-315 -332,-254z"/>
   <path class="fil1" d="M2635 7061l-6 -24c-90,-346 -15,-517 -12,-524l6 -11 11 -4c96,-29 196,-5 274,68 71,65 108,153 94,219 -21,94 -87,171 -191,223 -77,38 -148,49 -151,49l-25 4zm29 -513l0 0c-14,41 -51,190 12,449 65,-16 238,-71 272,-223 10,-47 -23,-117 -77,-167 -61,-56 -135,-77 -207,-59z"/>
   <path class="fil3" d="M3817 5225c0,0 -355,348 -863,792 23,305 257,263 406,172 150,-92 589,-375 589,-375l-132 -589z"/>
   <path class="fil1" d="M3153 6283c-34,0 -69,-6 -101,-22 -74,-38 -116,-120 -125,-242 -1,-9 3,-17 9,-23 502,-438 858,-788 862,-791 7,-7 18,-10 27,-7 10,3 17,11 20,21l131 589c2,11 -3,23 -12,29 -5,3 -441,285 -589,375 -33,21 -126,71 -222,71zm-170 -255l0 0c10,94 41,156 95,183 77,40 189,2 268,-46 132,-80 491,-312 571,-364l-116 -522c-102,98 -412,394 -818,749z"/>
   <path class="fil0" d="M2889 6330c0,0 -55,94 42,149 0,0 255,-233 247,-287 -8,-55 -121,-155 -289,138z"/>
   <path class="fil1" d="M2935 6514l-18 -10c-35,-21 -58,-48 -67,-82 -14,-53 13,-102 15,-106 112,-194 202,-223 257,-212 48,9 78,49 83,84 9,60 -156,221 -255,312l-15 14zm-22 -170l0 0c0,1 -18,33 -9,64 3,14 12,26 24,36 107,-99 217,-219 222,-250 -2,-12 -15,-31 -38,-35 -77,-15 -172,137 -199,185l0 0z"/>
   <path class="fil4" d="M6373 5205c64,-4 201,245 178,287 -19,35 -123,82 -193,102 -62,18 -122,35 -132,-91 -9,-125 83,-293 147,-298z"/>
   <path class="fil1" d="M6296 5634c-18,0 -35,-4 -50,-15 -28,-19 -43,-55 -47,-114 -10,-134 88,-321 172,-327 37,-3 81,34 131,111 4,7 103,161 74,216 -27,50 -153,100 -210,116 -23,6 -47,13 -70,13zm79 -401l0 0c-41,4 -130,148 -121,268 3,38 11,64 24,73 14,10 44,1 72,-7 81,-22 162,-66 176,-87 2,-22 -39,-123 -97,-198 -31,-39 -49,-49 -54,-49z"/>
   <path class="fil5" d="M1353 4787c0,0 20,268 109,320 0,0 118,-116 140,-257 0,0 -123,-143 -249,-63z"/>
   <path class="fil1" d="M1466 5141l-18 -10c-99,-58 -120,-313 -122,-342l-2 -17 14 -9c116,-73 237,13 285,69l8 10 -2 13c-23,147 -143,266 -148,271l-15 15zm-83 -339l0 0c8,89 34,217 76,266 31,-35 94,-116 113,-209 -26,-26 -106,-96 -189,-57z"/>
   <path class="fil4" d="M1375 4356c-28,99 -107,165 -176,145 -69,-19 -102,-116 -73,-216 28,-100 106,-165 175,-145 69,19 102,116 74,216z"/>
   <path class="fil1" d="M1225 4532c-11,0 -22,-1 -33,-4 -43,-12 -75,-46 -92,-96 -16,-46 -16,-101 -1,-154 15,-54 44,-101 81,-132 41,-33 86,-45 129,-33 85,24 126,134 93,250 -29,101 -102,169 -177,169zm51 -368l0 0c-19,0 -40,9 -60,25 -29,24 -52,61 -64,104 -12,43 -12,86 0,121 11,32 31,54 55,60 53,15 118,-42 142,-126 23,-83 -2,-166 -55,-182 -6,-1 -12,-2 -18,-2z"/>
   <path class="fil3" d="M4947 7213c0,0 787,453 1132,-444 367,-958 232,-1271 1004,-1140 0,0 -855,-554 -1189,269 -333,822 -492,764 -720,542 -229,-223 -484,666 -227,773z"/>
   <path class="fil1" d="M5386 7356c-236,0 -430,-106 -451,-118 -79,-34 -123,-132 -123,-276 -1,-220 103,-518 237,-575 35,-15 88,-21 144,33 96,93 170,148 246,133 119,-25 256,-237 430,-666 93,-231 237,-378 426,-438 155,-49 343,-37 544,34 151,53 255,120 259,123 11,7 16,21 11,33 -5,13 -17,20 -30,18 -576,-98 -621,44 -787,574 -47,149 -105,334 -188,548 -107,281 -269,462 -481,537 -81,29 -161,40 -237,40zm-289 -924l0 0c-10,0 -19,3 -26,6 -102,43 -204,307 -204,523 0,71 12,194 91,226 1,1 2,1 3,2 2,1 196,110 428,110 70,0 143,-10 216,-35 195,-70 346,-240 448,-505 81,-212 139,-397 186,-545 84,-268 140,-445 254,-546 95,-82 224,-110 438,-88 -33,-15 -70,-31 -111,-45 -132,-47 -328,-90 -508,-33 -173,54 -305,191 -392,406 -187,460 -327,669 -470,699 -110,23 -206,-60 -296,-147 -22,-22 -41,-28 -57,-28z"/>
   <path class="fil4" d="M5386 5984c13,73 -81,221 -222,246 -141,25 -275,-83 -287,-155 -13,-72 80,-198 221,-224 141,-25 276,61 288,133z"/>
   <path class="fil1" d="M5122 6262c-136,0 -258,-101 -273,-182 -16,-93 93,-229 244,-256 71,-12 145,-1 210,33 61,32 103,77 111,123 8,45 -15,107 -59,162 -29,36 -91,99 -186,116 -16,3 -31,4 -47,4zm26 -387l0 0c-15,0 -30,1 -45,4 -130,23 -208,139 -199,191 10,59 132,155 255,133 77,-14 128,-66 152,-95 39,-49 52,-96 48,-119 -4,-22 -31,-57 -81,-83 -40,-20 -85,-31 -130,-31z"/>
   <path class="fil4" d="M5278 5436c13,72 -81,221 -222,246 -141,25 -275,-84 -288,-156 -13,-72 81,-198 222,-223 140,-25 275,60 288,133z"/>
   <path class="fil1" d="M5014 5713c-137,0 -259,-101 -273,-182 -8,-45 14,-102 60,-153 48,-54 114,-90 184,-103 70,-12 145,-1 210,33 61,32 102,78 110,123l0 0c16,87 -90,250 -244,278 -16,3 -32,4 -47,4zm27 -387l0 0c-15,0 -30,1 -46,4 -79,14 -130,59 -153,85 -38,42 -51,84 -47,106 11,59 133,155 256,133 126,-22 210,-155 200,-214 -9,-45 -98,-114 -210,-114z"/>
   <path class="fil4" d="M5199 4879c13,72 -81,221 -222,246 -141,25 -275,-84 -288,-156 -13,-72 81,-198 222,-223 141,-25 275,60 288,133z"/>
   <path class="fil1" d="M4935 5156c-137,0 -259,-101 -273,-182 -16,-93 93,-229 244,-256 70,-12 145,-1 210,33 61,32 102,78 111,123 8,45 -15,107 -60,163 -28,35 -91,98 -185,115 -16,3 -32,4 -47,4zm28 -387l0 0c-16,0 -31,1 -47,4 -131,23 -209,140 -199,191 10,59 132,155 255,133 77,-13 128,-65 152,-95 39,-48 52,-95 48,-119 -8,-45 -98,-114 -209,-114z"/>
   <path class="fil4" d="M5130 3908c13,73 -81,221 -222,246 -141,25 -275,-83 -288,-155 -12,-72 81,-198 222,-223 141,-25 275,60 288,132z"/>
   <path class="fil1" d="M4866 4186c-56,0 -113,-17 -164,-49 -59,-37 -101,-88 -109,-133 -8,-45 14,-102 60,-153 49,-54 114,-90 184,-103 71,-12 145,-1 210,33 61,32 103,77 111,123 8,45 -15,107 -59,163 -29,35 -91,98 -186,115 -15,3 -31,4 -47,4zm28 -387l0 0c-15,0 -31,1 -47,4 -79,14 -129,59 -153,85 -37,42 -50,84 -46,106 4,24 32,64 83,96 32,19 96,51 172,37 77,-13 128,-65 152,-95 39,-49 52,-95 48,-119 -8,-45 -98,-114 -209,-114z"/>
   <path class="fil4" d="M5291 6299c92,-11 182,105 202,260 19,156 -55,200 -141,236 -188,77 -201,-26 -220,-182 -20,-155 67,-302 159,-314z"/>
   <path class="fil1" d="M5246 6849c-23,0 -43,-5 -60,-15 -59,-35 -69,-115 -82,-216 -10,-79 5,-161 41,-229 36,-67 88,-110 142,-117 55,-7 109,21 154,78 41,53 69,126 79,206 22,175 -70,228 -158,264 -46,19 -84,29 -116,29zm58 -523l0 0c-4,0 -7,0 -10,1 -35,4 -73,38 -100,89 -30,57 -43,128 -35,194 11,84 20,155 55,176 24,13 67,8 127,-17 81,-33 141,-70 124,-206 -9,-70 -33,-134 -68,-179 -29,-38 -62,-58 -93,-58z"/>
   <path class="fil4" d="M5618 5994c42,-26 205,20 261,152 30,71 -37,243 -116,310 -59,51 -114,26 -169,-105 -56,-132 -38,-318 24,-357z"/>
   <path class="fil1" d="M5708 6509c-6,0 -13,-1 -20,-3 -45,-10 -83,-56 -120,-145 -60,-142 -42,-342 35,-390l0 0c35,-22 92,-7 115,0 85,27 155,88 186,164 37,87 -41,272 -123,342 -24,21 -49,32 -73,32zm-75 -491l0 0c-45,28 -67,194 -14,322 38,90 68,109 82,112 5,1 19,5 44,-17 77,-65 131,-224 108,-278 -38,-90 -126,-125 -152,-133 -39,-12 -63,-9 -68,-6z"/>
   <path class="fil4" d="M5931 5547c55,-35 186,35 219,156 18,65 -87,207 -152,268 -47,45 -100,43 -133,-78 -34,-121 12,-311 66,-346z"/>
   <path class="fil1" d="M5944 6026c-8,0 -14,-1 -20,-3 -39,-11 -67,-51 -86,-123 -34,-124 9,-331 78,-376 27,-17 64,-18 106,-3 55,22 129,80 155,175 24,88 -109,248 -160,296 -29,26 -54,34 -73,34zm2 -455l0 0c-38,24 -87,196 -55,315 20,70 42,82 48,84 13,3 31,-10 40,-19 74,-69 156,-196 144,-241 -19,-70 -74,-119 -121,-137 -24,-9 -45,-10 -56,-2z"/>
   <path class="fil3" d="M5153 6869c39,-120 49,-263 21,-429 -181,-1057 -382,-1804 -382,-1804 650,-77 344,-692 4,-598 36,-115 18,-226 6,-313 -58,-414 -629,-440 -761,-29 -51,-93 -264,-130 -421,-63 -143,61 -291,297 -102,587 -69,-17 -189,-163 -419,0 0,0 -292,-194 -438,0 0,0 -208,-215 -438,0 0,0 -657,-352 -921,-30 -67,82 -129,261 -87,435 22,91 143,237 466,226 323,-10 1513,-59 2010,-217 780,826 -465,2257 -90,2604 212,197 743,254 1133,76 213,-101 321,-169 419,-445z"/>
   <path class="fil1" d="M4208 7447c-252,0 -493,-65 -626,-188 -166,-154 -52,-472 92,-875 198,-553 444,-1240 9,-1718 -507,154 -1658,202 -2001,213 -419,13 -488,-221 -494,-247 -42,-176 15,-364 93,-459 115,-141 318,-181 587,-116 164,39 303,105 351,129 196,-169 377,-56 439,-6 125,-131 332,-60 441,6 162,-108 276,-70 351,-31 -64,-136 -55,-248 -32,-322 31,-102 104,-188 191,-225 143,-61 334,-42 423,34 86,-203 277,-281 437,-267 192,16 333,152 360,346l2 12c11,77 24,170 3,269 99,-11 199,28 274,110 86,94 115,217 77,321 -44,118 -171,197 -358,226 39,151 215,849 374,1776 28,163 21,312 -22,443 0,0 0,0 0,0 -104,293 -226,363 -433,461 -160,73 -352,108 -538,108zm-517 -2841l0 0c8,0 15,3 21,9 475,503 220,1216 15,1788 -132,368 -246,687 -107,815 196,181 709,250 1103,71 198,-95 307,-157 404,-429 39,-122 45,-262 19,-415 -178,-1044 -379,-1795 -381,-1802 -2,-8 0,-16 4,-23 5,-7 12,-11 20,-12 183,-21 305,-91 344,-195 31,-83 5,-186 -66,-263 -72,-79 -171,-111 -264,-86 -10,3 -20,0 -27,-7 -7,-7 -10,-18 -7,-28 33,-103 19,-206 7,-288l-2 -12c-23,-167 -145,-285 -309,-299 -150,-13 -330,67 -397,274 -4,11 -13,18 -24,20 -11,1 -21,-5 -27,-15 -42,-76 -237,-114 -386,-50 -57,24 -129,87 -160,190 -24,77 -30,201 70,355 6,10 6,22 -1,32 -6,9 -18,13 -29,11 -18,-5 -37,-15 -58,-27 -73,-40 -172,-95 -338,22 -9,7 -21,7 -31,1 -3,-2 -272,-177 -401,-7 -4,7 -12,11 -20,11 -8,1 -16,-2 -22,-8 -7,-8 -192,-192 -399,1 -8,8 -21,10 -32,4 -6,-3 -640,-337 -887,-36 -67,82 -118,254 -81,411 19,80 134,214 438,204 346,-11 1512,-59 2003,-215 3,-1 6,-2 8,-2z"/>
   <path class="fil5" d="M4041 3958c0,144 -117,262 -261,262 -145,0 -262,-118 -262,-262 0,-145 117,-262 262,-262 144,0 261,117 261,262z"/>
   <path class="fil1" d="M3780 4247c-160,0 -290,-130 -290,-289 0,-160 130,-290 290,-290 159,0 289,130 289,290 0,159 -130,289 -289,289zm0 -523l0 0c-129,0 -234,105 -234,234 0,129 105,234 234,234 129,0 234,-105 234,-234 0,-129 -105,-234 -234,-234z"/>
   <path class="fil6" d="M3958 3958c0,98 -80,178 -178,178 -99,0 -179,-80 -179,-178 0,-99 80,-179 179,-179 98,0 178,80 178,179z"/>
   <path class="fil1" d="M3894 3958c0,63 -51,114 -114,114 -64,0 -115,-51 -115,-114 0,-64 51,-115 115,-115 63,0 114,51 114,115z"/>
   <path class="fil5" d="M3943 3868c0,52 -43,95 -95,95 -53,0 -96,-43 -96,-95 0,-53 43,-96 96,-96 52,0 95,43 95,96z"/>
   <path class="fil5" d="M4723 3958c0,188 -153,340 -341,340 -188,0 -341,-152 -341,-340 0,-188 153,-341 341,-341 188,0 341,153 341,341z"/>
   <path class="fil1" d="M4382 4326c-203,0 -368,-165 -368,-368 0,-203 165,-369 368,-369 203,0 369,166 369,369 0,203 -166,368 -369,368zm0 -681l0 0c-172,0 -313,140 -313,313 0,172 141,313 313,313 173,0 313,-141 313,-313 0,-173 -140,-313 -313,-313z"/>
   <path class="fil6" d="M4614 3958c0,128 -104,232 -232,232 -128,0 -232,-104 -232,-232 0,-129 104,-233 232,-233 128,0 232,104 232,233z"/>
   <path class="fil1" d="M4531 3958c0,82 -67,149 -149,149 -82,0 -149,-67 -149,-149 0,-83 67,-149 149,-149 82,0 149,66 149,149z"/>
   <path class="fil5" d="M4595 3840c0,69 -56,125 -124,125 -69,0 -125,-56 -125,-125 0,-68 56,-124 125,-124 68,0 124,56 124,124z"/>
   <path class="fil1" d="M4150 3367c0,0 361,-306 559,14 0,0 -197,-543 -559,-14z"/>
   <path class="fil1" d="M3472 3572c0,0 277,-325 501,-69 0,0 -255,-455 -501,69z"/>
   <path class="fil4" d="M2006 4475c-40,96 -122,153 -185,128 -62,-26 -81,-124 -42,-220 39,-96 121,-154 184,-128 63,25 82,124 43,220z"/>
   <path class="fil1" d="M1853 4637c-14,0 -28,-3 -42,-9 -39,-16 -67,-53 -76,-104 -10,-46 -3,-101 18,-152 45,-112 142,-175 220,-143 40,16 67,53 77,104 9,47 2,101 -19,152 -37,93 -110,152 -178,152zm78 -360l0 0c-45,0 -99,47 -127,116 -17,42 -22,84 -15,121 4,18 14,51 43,63 47,19 115,-32 148,-112 17,-42 22,-85 15,-121 -3,-19 -14,-52 -43,-63 -6,-3 -14,-4 -21,-4z"/>
   <path class="fil0" d="M2026 4837c0,0 -15,288 263,236 278,-52 1186,-213 1325,-240 536,529 -682,1718 -202,2253 434,483 1366,272 1311,-243 -56,-514 -208,-2117 -128,-2414 0,0 -1511,360 -2569,408z"/>
   <path class="fil1" d="M4060 7385c-238,0 -491,-83 -669,-281 -247,-275 -67,-711 107,-1133 173,-418 351,-850 106,-1108 -93,18 -370,68 -662,120 -255,46 -520,94 -648,117 -90,17 -162,2 -214,-43 -88,-78 -82,-216 -82,-222l1 -25 25 -1c1044,-47 2549,-404 2565,-407l45 -11 -12 45c-77,285 67,1832 128,2404 22,199 -93,370 -314,469 -109,49 -240,76 -376,76zm-437 -2582l0 0 10 10c287,283 99,738 -83,1179 -175,425 -341,826 -117,1075 261,292 700,316 980,191 198,-88 301,-238 282,-412 -2,-20 -207,-1927 -136,-2380 -250,57 -1557,350 -2505,397 3,38 14,110 63,152 39,34 95,44 167,31 128,-24 393,-72 648,-118 296,-53 602,-108 677,-122l14 -3z"/>
   <path class="fil5" d="M2140 4831c0,0 81,300 177,338 0,0 118,-215 118,-357 0,0 -176,-4 -295,19z"/>
   <path class="fil1" d="M2330 5204l-23 -9c-106,-42 -185,-325 -194,-357l-8 -29 30 -6c120,-22 293,-19 300,-18l27 0 0 27c1,147 -116,362 -121,371l-11 21zm-155 -351l0 0c29,98 82,230 131,276 28,-55 89,-187 99,-289 -47,0 -147,1 -230,13z"/>
   <path class="fil5" d="M3269 4692c0,0 -85,-200 -163,-220 0,0 -58,132 -65,256 0,0 117,-19 228,-36z"/>
   <path class="fil1" d="M3011 4762l2 -35c7,-128 65,-260 68,-266l9 -22 23 6c15,4 96,34 182,236l14 33 -36 6c-109,16 -226,36 -227,36l-35 6zm110 -251l0 0c-15,38 -39,110 -49,184 36,-6 96,-15 157,-25 -30,-61 -73,-131 -108,-159z"/>
   <path class="fil1" d="M3937 5014c-142,0 -241,-71 -342,-160 -11,-11 -12,-28 -2,-40 10,-11 28,-12 39,-2 153,136 311,276 823,-72 13,-9 30,-6 39,7 8,13 5,30 -8,39 -245,166 -416,228 -549,228z"/>
   <path class="fil1" d="M4049 5360c-220,0 -312,-108 -318,-116 -10,-11 -8,-29 4,-39 11,-9 29,-8 39,4 2,3 218,247 798,-64 13,-8 30,-2 37,11 7,14 2,30 -11,38 -236,126 -416,166 -549,166z"/>
   <path class="fil1" d="M4068 5793c-278,0 -415,-145 -423,-155 -11,-11 -10,-29 1,-39 12,-10 29,-10 40,2 12,13 298,313 915,-19 14,-8 31,-2 38,11 7,14 2,30 -11,38 -227,122 -413,162 -560,162z"/>
   <path class="fil1" d="M3991 6255c-70,0 -140,-7 -209,-25 -192,-49 -285,-151 -289,-155 -11,-11 -10,-29 2,-39 11,-11 29,-10 39,2 1,1 88,95 265,139 297,74 613,-46 826,-161 13,-7 30,-2 38,11 7,14 2,31 -12,38 -173,93 -413,190 -660,190z"/>
   <path class="fil1" d="M3927 6826c-90,0 -181,-10 -272,-35 -234,-62 -353,-185 -358,-190 -11,-11 -10,-29 1,-39 11,-11 28,-11 39,0 1,2 115,119 336,177 204,53 543,65 1002,-182 13,-7 30,-2 38,11 7,14 2,31 -12,38 -201,108 -480,220 -774,220z"/>
   <path class="fil3" d="M5121 7182c0,362 -194,655 -433,655 -239,0 -433,-293 -433,-655 0,-362 163,-950 418,-328 222,-599 448,-34 448,328z"/>
   <path class="fil1" d="M4688 7865c-254,0 -461,-307 -461,-683 0,-236 68,-597 215,-626 77,-16 153,58 230,226 68,-158 144,-231 225,-216 90,16 150,135 185,232 42,117 67,261 67,384 0,376 -207,683 -461,683zm-228 -1255l0 0c-3,0 -5,0 -7,0 -79,16 -170,269 -170,572 0,346 182,627 405,627 224,0 405,-281 405,-627 0,-231 -96,-542 -205,-561 -60,-11 -127,75 -189,243 -4,10 -14,18 -25,18 0,0 -1,0 -1,0 -11,0 -21,-7 -25,-17 -92,-224 -158,-255 -188,-255z"/>
   <path class="fil0" d="M4270 6974c83,76 248,144 415,22 95,87 279,53 415,-23 -84,-411 -278,-519 -427,-119 -183,-448 -363,-250 -403,120z"/>
   <path class="fil1" d="M4492 7091c-96,0 -182,-43 -240,-97l-11 -9 2 -14c25,-234 102,-387 201,-402 80,-11 156,61 228,214 78,-177 159,-211 215,-207 103,8 191,151 241,392l4 20 -18 10c-133,74 -320,113 -430,33 -65,43 -131,60 -192,60zm-192 -128l0 0c84,71 228,113 369,11l18 -14 17 16c79,72 240,47 365,-17 -52,-234 -129,-323 -186,-327 -60,-5 -127,80 -184,232l-24 66 -27 -65c-66,-161 -138,-249 -196,-241 -68,10 -130,148 -152,339z"/>
   <path class="fil0" d="M4857 7403c0,108 -74,195 -166,195 -92,0 -167,-87 -167,-195 0,-107 75,-194 167,-194 92,0 166,87 166,194z"/>
   <path class="fil1" d="M4691 7625c-108,0 -195,-99 -195,-222 0,-122 87,-222 195,-222 107,0 194,100 194,222 0,123 -87,222 -194,222zm0 -388l0 0c-77,0 -139,75 -139,166 0,92 62,167 139,167 76,0 138,-75 138,-167 0,-91 -62,-166 -138,-166z"/>
   <path class="fil0" d="M4702 6681c0,0 121,276 192,189 60,-73 74,-358 30,-392 -43,-34 -306,-124 -222,203z"/>
   <path class="fil1" d="M4863 6915c-3,0 -6,-1 -9,-1 -81,-11 -162,-187 -178,-222l-1 -4c-33,-128 -19,-213 42,-253 74,-49 191,-5 224,21 18,13 28,41 33,86 12,98 -6,281 -58,345 -15,18 -33,28 -53,28zm-135 -243l0 0c39,87 100,182 133,187 2,0 6,1 12,-7 51,-63 62,-321 34,-352 -21,-17 -113,-50 -160,-19 -47,32 -37,121 -19,191z"/>
   <path class="fil0" d="M4415 6681c0,0 122,276 193,189 60,-73 74,-358 30,-392 -44,-34 -307,-124 -223,203z"/>
   <path class="fil1" d="M4576 6915c-3,0 -6,-1 -9,-1 -81,-11 -162,-187 -177,-222l-2 -4c-33,-128 -19,-213 42,-253 75,-49 191,-5 225,21 17,13 28,41 33,86 11,98 -6,281 -59,345 -14,18 -33,28 -53,28zm-135 -243l0 0c39,87 101,182 134,187 2,0 5,1 11,-7 52,-63 62,-321 34,-352 -21,-17 -112,-50 -160,-19 -47,32 -36,121 -19,191z"/>
   <path class="fil3" d="M4452 6517c51,113 380,152 494,-10 114,-163 -20,-747 -107,-969 -86,-222 -241,-122 -241,-122 0,0 -274,812 -146,1101z"/>
   <path class="fil1" d="M4691 6643c-16,0 -31,-1 -46,-2 -108,-11 -192,-54 -218,-113 -132,-295 134,-1087 145,-1120 2,-6 6,-11 11,-15 3,-2 69,-44 145,-19 58,18 105,70 137,154 79,202 231,814 104,995 -63,89 -178,120 -278,120zm-213 -137l0 0c17,38 88,71 172,80 94,9 215,-12 274,-95 101,-145 -16,-700 -110,-943 -27,-67 -61,-108 -103,-122 -38,-12 -74,2 -90,10 -30,94 -258,811 -143,1070z"/>
   <path class="fil5" d="M7134 4089c0,0 20,268 109,320 0,0 118,-116 140,-256 0,0 -123,-144 -249,-64z"/>
   <path class="fil1" d="M7247 4444l-18 -11c-98,-58 -120,-313 -122,-342l-2 -17 15 -8c115,-74 236,13 284,69l8 9 -2 13c-23,147 -142,267 -147,272l-16 15zm-83 -339l0 0c8,88 34,216 77,265 30,-35 93,-116 112,-209 -26,-26 -106,-96 -189,-56z"/>
   <path class="fil4" d="M7156 3658c-28,100 -106,165 -175,145 -69,-19 -102,-116 -74,-216 28,-99 107,-165 175,-145 69,19 103,116 74,216z"/>
   <path class="fil1" d="M7006 3835c-11,0 -22,-2 -33,-5 -85,-24 -126,-134 -93,-250 15,-54 44,-100 82,-132 40,-33 86,-45 128,-33 85,24 126,134 93,250 -28,102 -102,170 -177,170zm51 -369l0 0c-19,0 -40,9 -60,25 -29,24 -52,61 -64,104 -23,83 2,166 55,181 53,15 118,-42 142,-126 23,-83 -2,-166 -55,-181 -6,-2 -12,-3 -18,-3z"/>
  </g>
 </g>
</svg>
