<?xml version="1.0" encoding="UTF-8"?>
<!DOCTYPE svg PUBLIC "-//W3C//DTD SVG 1.1//EN" "http://www.w3.org/Graphics/SVG/1.1/DTD/svg11.dtd">
<!-- Creator: CorelDRAW X7 -->
<svg xmlns="http://www.w3.org/2000/svg" xml:space="preserve" width="8.5in" height="11in" version="1.1" style="shape-rendering:geometricPrecision; text-rendering:geometricPrecision; image-rendering:optimizeQuality; fill-rule:evenodd; clip-rule:evenodd"
viewBox="0 0 8500 11000"
 xmlns:xlink="http://www.w3.org/1999/xlink">
 <defs>
  <style type="text/css">
   <![CDATA[
    .fil1 {fill:black;fill-rule:nonzero}
    .fil0 {fill:#254615;fill-rule:nonzero}
    .fil2 {fill:#72A637;fill-rule:nonzero}
    .fil4 {fill:#A7A9AC;fill-rule:nonzero}
    .fil5 {fill:#FFD24E;fill-rule:nonzero}
    .fil6 {fill:#FFFC49;fill-rule:nonzero}
    .fil3 {fill:white;fill-rule:nonzero}
   ]]>
  </style>
 </defs>
 <g id="Layer_x0020_1">
  <metadata id="CorelCorpID_0Corel-Layer"/>
  <g id="_393832306656">
   <path class="fil0" d="M7312 3664c-28,100 -107,165 -176,146 -69,-20 -102,-116 -74,-216 28,-100 107,-165 176,-146 69,20 102,117 74,216z"/>
   <path class="fil1" d="M7161 3841c-11,0 -22,-1 -33,-5 -85,-23 -126,-133 -93,-250 15,-53 44,-100 82,-131 40,-33 86,-45 128,-33 85,24 126,134 93,250 -28,101 -102,169 -177,169zm52 -368l0 0c-20,0 -41,8 -61,25 -29,24 -51,61 -63,103 -24,84 1,167 54,182 54,15 118,-43 142,-126 23,-84 -2,-167 -55,-182 -5,-1 -11,-2 -17,-2z"/>
   <path class="fil2" d="M4576 4698c0,0 474,187 469,242 -11,114 146,236 131,80 261,131 433,-232 317,-322 -66,-51 -156,-92 -266,-79 0,0 -470,-326 -602,-355 -385,-86 -584,354 -458,484 117,120 381,-97 409,-50z"/>
   <path class="fil1" d="M5145 5122c-12,0 -26,-3 -43,-14 -46,-28 -89,-97 -86,-165 -27,-36 -252,-141 -451,-219 -3,-1 -5,-3 -8,-5 -14,2 -52,18 -79,31 -97,42 -244,107 -331,17 -63,-65 -60,-194 7,-315 78,-138 243,-267 477,-215 128,28 537,308 603,354 97,-9 192,20 276,85 64,49 64,163 0,265 -56,89 -167,168 -307,121 -3,24 -13,42 -29,52 -6,4 -16,8 -29,8zm-552 -447l0 0c486,192 481,247 479,268 -4,41 21,84 45,107 13,12 24,16 28,16 1,-2 6,-13 3,-43 -1,-10 3,-20 12,-26 8,-5 19,-6 28,-2 125,63 224,-2 275,-83 47,-75 53,-161 13,-192 -76,-59 -159,-84 -246,-73 -6,1 -13,-1 -19,-5 -129,-90 -488,-328 -592,-351 -204,-45 -349,68 -416,188 -55,98 -61,203 -16,250 60,61 180,8 268,-30 64,-29 112,-50 138,-24z"/>
   <path class="fil0" d="M5193 3332c13,72 -81,221 -222,246 -141,25 -275,-84 -288,-156 -13,-72 81,-198 222,-223 141,-25 275,60 288,133z"/>
   <path class="fil1" d="M4929 3609c-137,0 -259,-101 -273,-182 -17,-93 93,-229 244,-256 70,-12 145,-1 210,33 61,32 102,78 110,123 16,87 -90,250 -244,278 -16,3 -32,4 -47,4zm28 -387l0 0c-16,0 -31,1 -47,4 -131,23 -209,140 -199,191 10,59 132,155 255,133 126,-22 210,-155 200,-214 -8,-45 -98,-114 -209,-114z"/>
   <path class="fil0" d="M5449 5407c13,73 -81,221 -222,246 -141,25 -275,-83 -288,-155 -12,-72 81,-198 222,-223 141,-25 275,60 288,132z"/>
   <path class="fil1" d="M5185 5685c-56,0 -113,-17 -165,-49 -58,-37 -100,-88 -108,-133 -8,-45 14,-102 60,-153 48,-54 114,-90 184,-103 70,-12 145,-1 210,33 61,32 103,77 111,123 15,87 -90,250 -245,278 -16,3 -31,4 -47,4zm28 -387l0 0c-15,0 -31,1 -47,4 -79,14 -129,59 -153,85 -38,42 -50,84 -46,106 4,24 32,64 83,96 32,19 96,51 172,37 126,-22 210,-155 200,-214 -8,-45 -98,-114 -209,-114z"/>
   <path class="fil0" d="M5341 4859c13,72 -82,221 -222,246 -141,25 -275,-84 -288,-156 -13,-72 81,-198 221,-223 141,-25 276,60 289,133z"/>
   <path class="fil1" d="M5076 5136c-136,0 -258,-101 -273,-182 -8,-45 15,-102 60,-153 49,-54 114,-90 185,-103 70,-12 144,-1 209,33 62,32 103,78 111,123 8,45 -15,107 -59,163 -29,36 -91,98 -186,115 -15,3 -31,4 -47,4zm27 -387l0 0c-16,0 -31,1 -46,4 -78,14 -129,59 -152,85 -38,42 -51,84 -47,106 11,59 133,155 256,133 76,-13 128,-65 152,-95 38,-48 51,-95 47,-119 -4,-22 -30,-56 -81,-83 -40,-20 -85,-31 -129,-31z"/>
   <path class="fil0" d="M5262 4302c13,72 -81,221 -222,246 -141,25 -275,-84 -288,-156 -13,-72 81,-198 222,-223 141,-25 275,60 288,133z"/>
   <path class="fil1" d="M4998 4579c-137,0 -259,-101 -273,-182 -17,-93 93,-229 244,-256 70,-12 145,-1 210,33 61,32 102,78 110,123 16,88 -90,250 -244,278 -16,3 -32,4 -47,4zm26 -387l0 0c-15,0 -31,1 -45,4 -131,23 -209,140 -200,191 11,59 133,155 256,133 126,-22 210,-155 200,-214 -4,-22 -31,-56 -82,-83 -40,-20 -85,-31 -129,-31z"/>
   <path class="fil0" d="M6436 4628c64,-4 201,245 178,287 -19,35 -123,82 -193,102 -62,18 -123,35 -132,-91 -9,-125 83,-293 147,-298z"/>
   <path class="fil1" d="M6358 5057c-17,0 -34,-4 -50,-15 -27,-19 -42,-55 -47,-113 -10,-135 89,-322 173,-328 37,-3 81,34 130,111 5,7 104,161 75,216 -27,50 -154,100 -211,116 -22,6 -46,13 -70,13zm80 -401l0 0c-41,4 -130,148 -121,268 3,38 11,64 23,73 15,10 44,2 73,-7 80,-22 162,-66 176,-87 2,-22 -39,-123 -97,-198 -31,-39 -49,-48 -54,-49z"/>
   <path class="fil2" d="M5010 6636c0,0 787,453 1131,-443 368,-959 233,-1272 1005,-1141 0,0 -855,-554 -1189,269 -334,822 -492,764 -721,542 -228,-223 -483,666 -226,773z"/>
   <path class="fil1" d="M5449 6779c-236,0 -430,-106 -451,-118 -79,-34 -123,-132 -124,-276 0,-220 104,-518 238,-575 35,-15 88,-21 144,33 96,94 170,148 245,133 120,-25 256,-237 430,-666 94,-231 238,-378 427,-438 155,-49 343,-37 544,34 151,54 255,120 259,123 11,7 16,21 11,34 -5,12 -18,19 -31,17 -576,-98 -620,44 -787,574 -46,149 -104,334 -187,548 -108,281 -270,462 -482,537 -80,29 -160,40 -236,40zm-289 -924l0 0c-10,0 -19,3 -26,6 -102,43 -205,307 -204,523 0,71 12,194 91,226 1,1 2,1 3,2 3,2 330,186 643,75 196,-70 347,-239 448,-504 82,-213 140,-397 186,-546 85,-268 140,-445 255,-545 95,-83 223,-111 438,-89 -33,-15 -71,-30 -112,-45 -132,-46 -327,-90 -507,-33 -173,54 -305,191 -392,406 -187,460 -327,669 -470,699 -110,23 -207,-60 -296,-147 -22,-22 -41,-28 -57,-28z"/>
   <path class="fil0" d="M5354 5722c91,-11 182,105 201,260 20,156 -55,200 -140,236 -188,77 -201,-26 -220,-182 -20,-155 67,-302 159,-314z"/>
   <path class="fil1" d="M5309 6272c-23,0 -43,-5 -60,-15 -59,-34 -69,-114 -82,-216 -21,-164 68,-332 183,-346 109,-14 211,111 233,284 22,175 -70,228 -158,264 -46,19 -84,29 -116,29zm48 -522l0 0c-76,10 -153,142 -135,283 11,84 20,155 55,176 24,13 66,8 127,-17 81,-33 141,-70 124,-206 -18,-138 -96,-246 -171,-236z"/>
   <path class="fil0" d="M5681 5417c42,-26 205,20 261,152 30,71 -37,243 -116,310 -60,51 -114,27 -169,-105 -56,-132 -39,-318 24,-357z"/>
   <path class="fil1" d="M5771 5932c-7,0 -13,-1 -20,-3 -45,-10 -83,-56 -120,-145 -60,-142 -42,-342 35,-390 35,-22 92,-7 115,0 85,27 154,89 186,164 37,87 -41,272 -123,343 -24,20 -49,31 -73,31zm-76 -491l0 0c-44,28 -67,194 -13,322 38,90 68,109 82,112 5,1 19,5 44,-17 77,-65 131,-224 108,-278 -38,-90 -126,-125 -152,-133 -39,-12 -63,-9 -69,-6z"/>
   <path class="fil0" d="M5993 4970c56,-35 187,35 220,156 18,65 -87,207 -153,269 -47,44 -100,42 -133,-79 -33,-121 12,-311 66,-346z"/>
   <path class="fil1" d="M6007 5449c-8,0 -14,-1 -20,-3 -39,-11 -67,-51 -86,-123 -34,-124 8,-331 77,-376 27,-17 65,-18 107,-2 55,21 129,79 155,174 24,88 -109,248 -161,296 -28,26 -53,34 -72,34zm22 -460l0 0c-8,0 -15,1 -20,5 -38,24 -87,196 -55,315 19,70 42,82 48,84 13,3 30,-10 39,-19 74,-69 157,-196 145,-241 -19,-69 -75,-119 -121,-137 -13,-5 -26,-7 -36,-7z"/>
   <path class="fil3" d="M1416 4210c0,0 20,268 109,320 0,0 118,-116 140,-257 0,0 -123,-143 -249,-63z"/>
   <path class="fil1" d="M1529 4564l-18 -10c-99,-58 -120,-313 -123,-342l-1 -17 14 -8c116,-74 237,13 285,68l8 10 -2 13c-23,147 -143,267 -148,272l-15 14zm-84 -339l0 0c9,89 35,217 77,266 31,-35 94,-116 113,-209 -26,-26 -107,-96 -190,-57z"/>
   <path class="fil0" d="M1438 3779c-28,99 -107,165 -176,145 -69,-19 -102,-116 -74,-216 28,-100 107,-165 176,-145 69,19 102,116 74,216z"/>
   <path class="fil1" d="M1288 3955c-11,0 -22,-1 -33,-4 -85,-24 -126,-134 -93,-250 32,-117 125,-189 210,-165 85,24 126,134 93,250 -29,102 -103,169 -177,169zm51 -368l0 0c-49,0 -103,54 -124,129 -23,83 2,166 55,181 53,15 118,-42 141,-126 24,-83 -1,-166 -54,-181 -6,-2 -12,-3 -18,-3z"/>
   <path class="fil2" d="M6071 6119c-45,-118 -201,-222 -350,-53 -70,80 -267,87 -471,54 6,-78 2,-164 -14,-257 -180,-1057 -381,-1804 -381,-1804 650,-77 343,-692 4,-598 36,-115 18,-226 6,-313 -59,-414 -629,-440 -761,-29 -51,-93 -264,-130 -421,-63 -143,61 -291,297 -102,587 -69,-17 -189,-163 -419,0 0,0 -292,-194 -438,0 0,0 -209,-215 -438,0 0,0 -657,-352 -921,-30 -68,82 -129,261 -87,435 22,91 142,237 466,226 323,-10 1513,-59 2010,-217 780,826 -466,2257 -90,2604 212,197 567,231 1133,76 103,-28 714,-260 902,-240 0,0 -219,411 236,524 186,-184 292,-483 136,-902z"/>
   <path class="fil1" d="M5935 7048c-2,0 -4,0 -7,0 -143,-36 -238,-104 -283,-203 -54,-122 -15,-256 11,-321 -165,8 -518,128 -716,195 -65,22 -112,38 -136,45 -564,154 -932,128 -1159,-82 -166,-154 -52,-472 92,-875 198,-553 444,-1240 9,-1718 -507,154 -1658,202 -2001,213 -150,5 -271,-22 -362,-79 -98,-62 -125,-138 -132,-168 -42,-176 14,-364 92,-459 254,-310 829,-42 939,13 195,-169 377,-56 439,-6 125,-131 332,-60 440,6 163,-108 276,-70 351,-31 -64,-136 -54,-248 -31,-322 31,-102 104,-188 191,-225 143,-61 334,-42 423,34 86,-203 277,-281 437,-267 192,16 333,152 360,346l2 12c11,77 24,170 3,269 99,-11 199,28 274,110 86,94 115,217 77,321 -44,118 -171,197 -358,226 39,151 215,849 374,1776 14,83 19,163 15,238 208,31 368,12 421,-48 85,-96 167,-105 220,-95 77,14 146,76 177,157 80,215 169,623 -142,930 -6,6 -13,8 -20,8zm-262 -580l0 0c10,0 20,0 28,1 10,1 18,7 22,15 4,8 4,18 0,26 -1,2 -90,172 -27,313 36,79 113,135 231,167 276,-284 193,-660 118,-861 -20,-52 -69,-109 -135,-121 -56,-11 -115,16 -168,77 -99,112 -381,81 -497,62 -14,-2 -24,-15 -23,-29 6,-78 2,-162 -13,-250 -179,-1044 -379,-1795 -381,-1802 -2,-8 0,-16 4,-23 5,-7 12,-11 20,-12 183,-21 305,-91 343,-195 31,-83 6,-186 -65,-263 -73,-79 -171,-111 -264,-85 -10,2 -20,-1 -27,-8 -8,-7 -10,-18 -7,-28 33,-103 18,-206 7,-288l-2 -12c-23,-167 -145,-285 -310,-299 -149,-13 -330,67 -396,274 -4,11 -13,19 -24,20 -11,1 -22,-5 -27,-15 -42,-75 -237,-114 -387,-50 -56,24 -128,87 -159,190 -24,77 -31,202 70,355 6,10 6,22 -1,32 -6,9 -18,13 -29,11 -18,-5 -37,-15 -58,-27 -73,-40 -172,-95 -338,22 -9,7 -22,7 -31,1 -1,-1 -72,-47 -157,-69 -109,-29 -191,-8 -244,62 -5,7 -12,11 -20,11 -8,1 -16,-2 -22,-8 -8,-8 -193,-192 -399,1 -9,8 -22,10 -32,4 -2,-1 -164,-87 -356,-133 -250,-61 -429,-28 -531,97 -67,82 -119,254 -81,411 19,80 133,214 438,204 345,-11 1512,-59 2003,-215 10,-3 21,-1 28,7 475,503 220,1216 16,1788 -132,368 -246,687 -107,815 211,196 563,218 1107,69 22,-6 71,-22 132,-43 285,-97 598,-199 751,-199z"/>
   <path class="fil4" d="M6093 8065c0,208 -777,377 -1735,377 -958,0 -1735,-169 -1735,-377 0,-207 777,-376 1735,-376 958,0 1735,169 1735,376z"/>
   <path class="fil2" d="M2746 5929c-160,206 -226,516 -16,911 60,111 229,194 354,7 116,-173 708,-13 1054,-13 0,0 -146,-366 -557,-461 -109,-26 -343,39 -532,44 0,0 163,-437 -303,-488z"/>
   <path class="fil1" d="M2911 6985c-4,0 -7,0 -10,0 -78,-4 -154,-56 -195,-132 -109,-203 -250,-596 18,-941 6,-8 15,-12 25,-11 147,16 250,71 307,163 71,116 49,256 31,323 68,-4 140,-15 210,-25 119,-17 222,-32 290,-16 421,97 571,462 577,478 4,8 3,18 -3,26 -5,7 -13,12 -23,12 -112,0 -253,-17 -389,-34 -269,-32 -573,-69 -642,34 -67,101 -142,123 -196,123zm-153 -1027l0 0c-236,318 -104,680 -3,869 26,49 82,99 149,103 58,2 112,-32 157,-99 88,-131 383,-96 695,-58 116,14 236,29 338,32 -51,-94 -206,-332 -520,-405 -57,-14 -160,1 -269,17 -85,12 -173,25 -255,27 -9,1 -18,-4 -23,-11 -6,-8 -7,-17 -4,-26 1,-2 66,-183 -14,-314 -46,-73 -130,-119 -251,-135z"/>
   <path class="fil5" d="M2729 5807c0,0 -77,86 -115,196 -25,70 97,133 290,219 0,0 146,-53 131,-165 -15,-112 -106,-294 -306,-250z"/>
   <path class="fil1" d="M2903 6252l-11 -5c-205,-92 -337,-159 -305,-253 40,-114 117,-202 121,-205l6 -7 9 -2c77,-17 147,-5 206,36 83,59 124,165 134,237 17,133 -143,192 -150,195l-10 4zm-160 -420l0 0c-18,22 -73,94 -103,180 -18,51 147,127 264,179 29,-13 113,-57 104,-130 -8,-62 -42,-151 -111,-199 -44,-30 -95,-40 -154,-30z"/>
   <path class="fil5" d="M2629 5967c0,0 -89,157 -30,504 0,0 276,-18 339,-222 33,-108 -108,-326 -309,-282z"/>
   <path class="fil1" d="M2576 6500l-4 -24c-61,-353 29,-516 33,-523l6 -11 12 -3c97,-21 195,12 267,91 65,71 95,162 75,227 -29,92 -101,163 -210,205 -80,32 -151,37 -154,37l-25 1zm72 -509l0 0c-17,40 -66,185 -26,449 66,-10 244,-51 290,-200 14,-45 -13,-118 -63,-172 -55,-61 -128,-88 -201,-77z"/>
   <path class="fil3" d="M4104 3381c0,144 -117,262 -262,262 -144,0 -261,-118 -261,-262 0,-145 117,-262 261,-262 145,0 262,117 262,262z"/>
   <path class="fil1" d="M3842 3670c-159,0 -289,-130 -289,-289 0,-160 130,-290 289,-290 160,0 290,130 290,290 0,159 -130,289 -290,289zm0 -523l0 0c-129,0 -234,105 -234,234 0,129 105,234 234,234 129,0 234,-105 234,-234 0,-129 -105,-234 -234,-234z"/>
   <path class="fil6" d="M3994 3381c0,98 -80,178 -179,178 -99,0 -179,-80 -179,-178 0,-99 80,-179 179,-179 99,0 179,80 179,179z"/>
   <path class="fil1" d="M3900 3381c0,63 -52,114 -115,114 -63,0 -114,-51 -114,-114 0,-63 51,-115 114,-115 63,0 115,52 115,115z"/>
   <path class="fil3" d="M3771 3298c0,36 -29,65 -66,65 -36,0 -65,-29 -65,-65 0,-37 29,-66 65,-66 37,0 66,29 66,66z"/>
   <path class="fil3" d="M4786 3381c0,188 -153,340 -341,340 -188,0 -341,-152 -341,-340 0,-188 153,-341 341,-341 188,0 341,153 341,341z"/>
   <path class="fil1" d="M4445 3749c-203,0 -369,-165 -369,-368 0,-203 166,-369 369,-369 203,0 368,166 368,369 0,203 -165,368 -368,368zm0 -681l0 0c-173,0 -313,140 -313,313 0,172 140,313 313,313 172,0 313,-141 313,-313 0,-173 -141,-313 -313,-313z"/>
   <path class="fil6" d="M4615 3388c0,128 -104,232 -233,232 -128,0 -232,-104 -232,-232 0,-129 104,-233 232,-233 129,0 233,104 233,233z"/>
   <path class="fil1" d="M4476 3381c0,82 -67,149 -149,149 -83,0 -149,-67 -149,-149 0,-82 66,-149 149,-149 82,0 149,67 149,149z"/>
   <path class="fil1" d="M4212 2790c0,0 361,-306 560,14 0,0 -198,-543 -560,-14z"/>
   <path class="fil1" d="M3535 2995c0,0 277,-325 501,-69 0,0 -255,-455 -501,69z"/>
   <path class="fil0" d="M2068 3898c-39,96 -121,153 -184,128 -63,-26 -82,-124 -43,-220 40,-96 122,-154 185,-128 62,25 82,124 42,220z"/>
   <path class="fil1" d="M1916 4060c-15,0 -29,-3 -42,-9 -78,-31 -104,-144 -58,-256 45,-112 142,-174 220,-143 39,16 67,53 76,104 10,47 3,101 -18,153l0 0c-21,51 -54,94 -93,121 -28,20 -57,30 -85,30zm78 -360l0 0c-45,0 -99,47 -127,116 -33,80 -20,165 28,184 28,12 59,-5 74,-15 31,-21 57,-56 74,-97l0 0c17,-42 22,-85 15,-121 -4,-19 -14,-52 -43,-63 -7,-3 -14,-4 -21,-4z"/>
   <path class="fil5" d="M2088 4260c0,0 -14,288 264,236 278,-51 1186,-213 1325,-240 535,529 -682,1718 -202,2253 433,483 1366,272 1311,-243 -56,-514 -208,-2117 -128,-2414 0,0 -1512,360 -2570,408z"/>
   <path class="fil1" d="M4123 6808c-238,0 -491,-83 -669,-281 -247,-275 -67,-711 107,-1133 173,-418 351,-850 106,-1108 -93,18 -370,68 -661,120 -256,46 -521,94 -649,117 -90,17 -162,2 -214,-43 -88,-78 -83,-216 -82,-221l1 -26 25 -1c1043,-47 2549,-404 2564,-407l46 -11 -12 45c-77,286 66,1832 128,2404 22,199 -93,370 -314,469 -109,49 -240,76 -376,76zm-437 -2582l0 0 10 10c286,283 98,738 -83,1179 -176,425 -341,826 -117,1075 261,292 700,316 980,191 198,-88 301,-238 282,-412 -2,-20 -207,-1927 -136,-2380 -250,57 -1557,350 -2505,397 2,38 14,110 63,152 39,34 95,44 167,31 128,-24 393,-72 649,-118 295,-53 601,-108 675,-122l15 -3z"/>
   <path class="fil3" d="M2203 4254c0,0 81,301 177,338 0,0 118,-215 117,-357 0,0 -175,-4 -294,19z"/>
   <path class="fil1" d="M2393 4627l-23 -9c-106,-42 -185,-325 -194,-357l-8 -29 29 -6c121,-22 294,-19 301,-18l27 0 0 27c0,147 -116,362 -121,371l-11 21zm-155 -351l0 0c29,98 82,230 131,276 28,-55 89,-187 99,-289 -48,0 -148,1 -230,13z"/>
   <path class="fil3" d="M3332 4115c0,0 -85,-200 -163,-220 0,0 -58,132 -65,256 0,0 117,-19 228,-36z"/>
   <path class="fil1" d="M3074 4185l2 -35c7,-128 65,-260 68,-266l9 -21 23 5c15,4 95,34 182,236l14 33 -36 6c-109,16 -226,36 -228,36l-34 6zm109 -251l0 0c-14,38 -39,110 -48,184 36,-6 95,-15 156,-25 -29,-61 -72,-131 -108,-159z"/>
   <path class="fil1" d="M4000 4437c-142,0 -241,-71 -342,-160 -11,-10 -12,-28 -2,-40 10,-11 28,-12 39,-2 153,136 310,276 823,-72 13,-9 30,-6 38,7 9,13 6,30 -7,39 -245,166 -416,228 -549,228z"/>
   <path class="fil1" d="M4112 4783c-220,0 -312,-108 -318,-115 -10,-12 -8,-30 3,-40 12,-9 30,-8 39,4 3,4 219,247 798,-64 14,-7 31,-2 38,11 7,14 2,31 -11,38 -236,126 -416,166 -549,166z"/>
   <path class="fil1" d="M4131 5216c-278,0 -415,-145 -424,-155 -10,-11 -9,-29 2,-39 12,-10 29,-9 39,2 13,13 299,313 916,-19 14,-7 30,-2 38,11 7,14 2,30 -12,38 -227,122 -413,162 -559,162z"/>
   <path class="fil1" d="M4054 5678c-70,0 -140,-7 -210,-25 -191,-49 -285,-151 -288,-155 -11,-11 -10,-29 1,-39 12,-10 29,-10 40,2 1,1 88,95 265,139 297,74 613,-46 826,-161 13,-7 30,-2 37,11 8,14 3,31 -11,38 -174,93 -413,190 -660,190z"/>
   <path class="fil1" d="M3990 6249c-90,0 -181,-10 -272,-35 -234,-62 -354,-185 -359,-190 -10,-11 -10,-29 1,-39 12,-11 29,-11 40,0 1,2 115,119 336,177 204,53 543,65 1002,-182 13,-7 30,-2 37,12 8,13 3,30 -11,37 -201,108 -480,220 -774,220z"/>
   <path class="fil2" d="M4319 4845c0,0 -474,-186 -469,-242 11,-114 -146,-236 -131,-80 -261,-130 -433,233 -317,322 66,51 156,92 266,79 0,0 470,326 602,356 385,85 584,-354 458,-484 -117,-121 -381,97 -409,49z"/>
   <path class="fil1" d="M4368 5318c-33,0 -68,-3 -104,-11 -128,-29 -537,-308 -603,-354 -97,9 -192,-21 -276,-86 -64,-49 -64,-163 0,-265 56,-89 167,-168 307,-120 3,-25 13,-42 29,-52 12,-8 36,-17 71,5 46,28 90,97 86,165 28,37 253,141 451,219 3,1 6,3 9,5 14,-1 52,-18 79,-30 97,-43 244,-107 331,-18 63,65 60,195 -8,315 -65,117 -193,227 -372,227zm-700 -422l0 0c6,0 11,2 16,5 129,90 488,328 592,351 204,46 349,-67 416,-188 55,-97 61,-202 16,-249 -60,-62 -180,-9 -268,30 -64,28 -112,49 -138,23 -486,-192 -481,-247 -479,-267 4,-41 -21,-84 -45,-107 -13,-13 -24,-17 -28,-17 -1,3 -6,13 -3,43 1,10 -4,20 -12,26 -8,6 -19,7 -28,2 -125,-62 -224,3 -275,84 -47,75 -53,161 -13,191 76,59 159,84 246,74 1,-1 2,-1 3,-1z"/>
   <path class="fil5" d="M5936 7144c0,0 87,-76 140,-179 34,-67 -80,-145 -259,-256 0,0 -152,33 -152,146 0,113 66,305 271,289z"/>
   <path class="fil1" d="M5911 7172c-67,0 -125,-21 -172,-64 -75,-69 -102,-179 -102,-253 0,-134 167,-171 174,-173l11 -2 10 6c191,118 314,202 269,291 -55,108 -143,184 -147,188l-6 5 -9 1c-10,1 -19,1 -28,1zm-98 -433l0 0c-31,9 -120,42 -120,116 0,62 22,155 84,212 39,36 88,52 148,49 20,-19 85,-83 126,-164 25,-48 -129,-145 -238,-213z"/>
   <path class="fil5" d="M6056 6998c0,0 109,-144 96,-496 0,0 -276,-18 -365,176 -48,103 64,337 269,320z"/>
   <path class="fil1" d="M6036 7027c-91,0 -174,-45 -230,-126 -55,-78 -73,-173 -45,-234 41,-88 122,-149 235,-176 84,-21 155,-17 158,-16l25 1 1 25c13,358 -97,508 -102,514l-7 10 -13 1c-7,1 -15,1 -22,1zm89 -497l0 0c-67,1 -248,18 -313,160 -20,43 -4,118 39,179 47,67 116,104 189,102 22,-37 90,-174 85,-441z"/>
   <path class="fil3" d="M4278 3298c0,36 -29,65 -66,65 -36,0 -65,-29 -65,-65 0,-37 29,-66 65,-66 37,0 66,29 66,66z"/>
  </g>
 </g>
</svg>
