<?xml version="1.0" encoding="UTF-8"?>
<!DOCTYPE svg PUBLIC "-//W3C//DTD SVG 1.1//EN" "http://www.w3.org/Graphics/SVG/1.1/DTD/svg11.dtd">
<!-- Creator: CorelDRAW X7 -->
<svg xmlns="http://www.w3.org/2000/svg" xml:space="preserve" width="8.5in" height="11in" version="1.1" style="shape-rendering:geometricPrecision; text-rendering:geometricPrecision; image-rendering:optimizeQuality; fill-rule:evenodd; clip-rule:evenodd"
viewBox="0 0 8500 11000"
 xmlns:xlink="http://www.w3.org/1999/xlink">
 <defs>
  <style type="text/css">
   <![CDATA[
    .fil1 {fill:black;fill-rule:nonzero}
    .fil3 {fill:#254615;fill-rule:nonzero}
    .fil2 {fill:#72A637;fill-rule:nonzero}
    .fil5 {fill:#A7A9AC;fill-rule:nonzero}
    .fil0 {fill:#FFD24E;fill-rule:nonzero}
    .fil6 {fill:#FFFC49;fill-rule:nonzero}
    .fil4 {fill:white;fill-rule:nonzero}
   ]]>
  </style>
 </defs>
 <g id="Layer_x0020_1">
  <metadata id="CorelCorpID_0Corel-Layer"/>
  <g id="_394034429648">
   <path class="fil0" d="M3821 5874c0,0 -211,-79 -256,-167 0,0 24,472 256,167z"/>
   <path class="fil1" d="M3686 6005c-9,0 -18,-2 -27,-4 -47,-15 -82,-71 -104,-165 -14,-65 -17,-125 -17,-127l-7 -131 59 117c33,64 185,132 241,153l35 13 -23 30c-58,76 -110,114 -157,114zm-84 -216l0 0c13,74 38,147 74,158 24,8 59,-14 100,-61 -44,-19 -118,-54 -174,-97z"/>
   <path class="fil0" d="M3765 5951c0,0 -212,-79 -257,-167 0,0 24,472 257,167z"/>
   <path class="fil1" d="M3629 6081c-9,0 -18,-1 -27,-4 -47,-15 -82,-70 -103,-164 -15,-65 -18,-125 -18,-128l-7 -130 59 117c33,64 185,132 241,153l35 13 -22 30c-59,76 -110,113 -158,113zm-83 -215l0 0c12,74 37,147 73,158 24,8 59,-14 100,-61 -44,-19 -118,-54 -173,-97z"/>
   <path class="fil2" d="M4114 4906c71,130 -86,342 -340,485 0,0 589,419 289,714 -272,268 -437,14 -441,-93 -2,-73 21,-153 143,-187 -72,-53 -384,-426 -384,-426 0,0 457,-1002 733,-493z"/>
   <path class="fil1" d="M3834 6252c-30,0 -56,-6 -78,-15 -107,-42 -159,-159 -162,-224 -3,-95 37,-162 118,-198 -107,-106 -341,-385 -352,-398 -7,-8 -9,-20 -4,-29 12,-27 296,-644 567,-654 85,-3 157,51 216,159l0 0c73,135 -61,346 -315,501 91,71 334,281 351,497 7,88 -24,167 -93,234 -99,98 -183,127 -248,127zm-420 -857l0 0c94,111 313,367 368,408 8,6 13,17 11,27 -2,11 -10,19 -20,22 -88,24 -126,73 -123,159 2,52 48,143 126,174 77,31 170,-3 267,-99 57,-56 82,-119 77,-191 -19,-235 -359,-479 -362,-482 -8,-5 -13,-14 -12,-24 0,-9 6,-18 14,-22 242,-136 390,-337 330,-448l0 0c-48,-88 -103,-131 -165,-129 -190,6 -427,424 -511,605z"/>
   <path class="fil3" d="M6524 4851c64,-4 201,245 178,287 -19,35 -123,82 -193,102 -62,18 -123,35 -132,-91 -9,-125 83,-293 147,-298z"/>
   <path class="fil1" d="M6446 5280c-17,0 -34,-4 -50,-15 -27,-19 -42,-55 -47,-114 -10,-134 89,-321 173,-327 37,-3 81,34 130,111 5,6 104,161 75,216 -27,50 -154,100 -211,116 -22,6 -46,13 -70,13zm80 -401l0 0c-41,4 -130,148 -121,268 3,38 11,64 23,73 15,10 44,1 73,-7 80,-22 162,-66 176,-87 2,-22 -39,-123 -98,-198 -30,-39 -48,-49 -53,-49z"/>
   <path class="fil4" d="M1504 4433c0,0 20,268 109,320 0,0 118,-116 140,-257 0,0 -123,-143 -249,-63z"/>
   <path class="fil1" d="M1617 4787l-18 -10c-99,-58 -120,-313 -123,-342l-1 -17 14 -9c116,-73 237,13 285,69l8 10 -2 13c-23,147 -143,266 -148,271l-15 15zm-84 -339l0 0c9,89 35,217 77,266 31,-35 94,-116 113,-209 -26,-26 -107,-96 -190,-57z"/>
   <path class="fil3" d="M1526 4002c-28,99 -107,165 -176,145 -69,-19 -102,-116 -74,-216 28,-100 107,-165 176,-145 69,19 102,116 74,216z"/>
   <path class="fil1" d="M1376 4178c-11,0 -22,-1 -33,-4 -85,-24 -126,-134 -93,-250 15,-54 44,-101 81,-132 41,-33 86,-45 129,-33 85,24 126,134 93,250 -29,101 -103,169 -177,169zm51 -368l0 0c-20,0 -40,9 -60,25 -29,24 -52,61 -64,104 -24,83 2,166 55,181 53,15 118,-42 141,-126 24,-83 -1,-167 -54,-182 -6,-1 -12,-2 -18,-2z"/>
   <path class="fil5" d="M6181 7664c0,306 -777,555 -1735,555 -958,0 -1735,-249 -1735,-555 0,-306 777,-554 1735,-554 958,0 1735,248 1735,554z"/>
   <path class="fil2" d="M5098 6859c0,0 787,453 1131,-444 368,-958 233,-1271 1005,-1140 0,0 -855,-554 -1189,269 -334,822 -492,764 -721,542 -228,-223 -483,666 -226,773z"/>
   <path class="fil1" d="M5537 7002c-236,0 -430,-106 -452,-118 -79,-34 -122,-132 -123,-276 0,-220 104,-518 238,-575 35,-15 88,-21 144,33 96,93 170,148 245,133 120,-25 256,-237 430,-666 94,-231 238,-379 427,-438 155,-49 343,-37 544,34 151,53 255,120 259,123 11,7 16,21 11,33 -5,13 -18,20 -31,18 -576,-98 -620,44 -787,574 -46,149 -104,334 -187,548 -108,281 -270,462 -482,537 -80,29 -160,40 -236,40zm-289 -924l0 0c-10,0 -19,3 -26,6 -102,43 -205,307 -204,523 0,71 12,194 91,226 1,1 2,1 3,2 2,1 196,110 428,110 69,0 143,-10 215,-35 196,-70 347,-240 448,-505 82,-212 140,-397 186,-545 85,-268 140,-445 255,-546 95,-82 223,-110 438,-88 -33,-15 -71,-31 -112,-45 -132,-47 -327,-90 -507,-33 -173,54 -305,191 -392,406 -187,460 -327,669 -470,699 -110,23 -207,-60 -296,-147 -22,-22 -41,-28 -57,-28z"/>
   <path class="fil3" d="M5537 5630c13,73 -81,221 -222,246 -141,25 -275,-83 -288,-155 -13,-72 81,-199 222,-224 141,-25 275,61 288,133z"/>
   <path class="fil1" d="M5273 5908c-137,0 -259,-101 -273,-182 -8,-45 14,-103 60,-153 48,-54 114,-90 184,-103 70,-12 145,-1 210,33 61,31 103,77 111,123 8,45 -15,107 -60,162 -28,36 -91,99 -185,116 -16,3 -32,4 -47,4zm26 -387l0 0c-15,0 -30,1 -45,4 -79,14 -130,59 -153,85 -38,42 -50,83 -46,106 10,59 132,155 255,133 77,-14 128,-66 152,-95 39,-49 52,-96 48,-119l0 0c-4,-22 -31,-57 -82,-83 -39,-20 -85,-31 -129,-31z"/>
   <path class="fil3" d="M5429 5082c12,72 -82,221 -223,246 -140,25 -274,-84 -287,-156 -13,-72 81,-198 221,-223 141,-25 276,60 289,133z"/>
   <path class="fil1" d="M5164 5359c-136,0 -258,-101 -273,-182 -8,-45 15,-102 60,-153 49,-54 114,-90 185,-103 70,-12 144,-1 209,33 62,32 103,78 111,123 16,87 -90,250 -245,278 -15,3 -31,4 -47,4zm27 -387l0 0c-16,0 -31,1 -46,4 -78,14 -129,59 -152,85 -38,42 -51,84 -47,106 11,59 133,155 256,133 126,-22 210,-155 199,-214 -4,-22 -30,-56 -81,-83 -40,-20 -85,-31 -129,-31z"/>
   <path class="fil3" d="M5350 4525c13,72 -81,221 -222,246 -141,25 -275,-84 -288,-156 -13,-72 81,-198 222,-223 141,-25 275,60 288,133z"/>
   <path class="fil1" d="M5086 4802c-137,0 -259,-101 -273,-182 -8,-45 14,-102 60,-153 48,-54 114,-90 184,-103 70,-12 145,-1 210,33 61,32 102,77 110,123 8,45 -14,107 -59,163 -29,35 -91,98 -185,115 -16,3 -32,4 -47,4zm28 -387l0 0c-16,0 -31,1 -47,4 -79,14 -130,59 -153,85 -38,42 -51,84 -47,106 11,59 133,155 256,133 76,-13 128,-65 152,-95 38,-48 52,-95 48,-119 -9,-45 -98,-114 -209,-114z"/>
   <path class="fil3" d="M5281 3554c13,73 -81,221 -222,246 -141,25 -275,-83 -288,-155 -13,-72 81,-198 222,-223 141,-25 275,60 288,132z"/>
   <path class="fil1" d="M5017 3832c-137,0 -259,-101 -273,-182 -8,-45 14,-102 60,-153 48,-54 114,-90 184,-103 70,-12 145,-1 210,33 61,32 102,77 110,123l0 0c16,87 -90,250 -244,278 -16,3 -32,4 -47,4zm28 -387l0 0c-16,0 -31,1 -47,4 -79,14 -130,59 -153,85 -38,42 -50,84 -46,106 10,59 132,155 255,133 126,-22 210,-155 200,-214 -8,-45 -98,-114 -209,-114z"/>
   <path class="fil3" d="M5442 5945c91,-11 182,105 201,260 20,156 -55,200 -140,236 -188,77 -201,-26 -221,-182 -19,-155 68,-302 160,-314z"/>
   <path class="fil1" d="M5397 6495c-23,0 -43,-5 -60,-15 -59,-35 -69,-115 -82,-216 -10,-79 5,-162 41,-229 36,-67 88,-110 142,-117 55,-7 109,20 153,78 42,53 70,126 80,206 22,175 -70,228 -158,264 -46,19 -84,29 -116,29zm57 -523l0 0c-3,0 -6,0 -9,1 -35,4 -73,38 -100,89 -31,57 -43,128 -35,194 11,84 20,155 55,176 24,13 66,8 127,-17 81,-33 141,-70 124,-206 -9,-70 -33,-134 -68,-179 -29,-38 -62,-58 -94,-58z"/>
   <path class="fil3" d="M5769 5640c42,-26 205,20 261,152 29,71 -37,243 -116,310 -60,51 -114,26 -169,-105 -56,-132 -39,-318 24,-357z"/>
   <path class="fil1" d="M5859 6155c-7,0 -13,-1 -20,-3 -45,-10 -83,-56 -120,-145 -60,-142 -42,-342 35,-390 35,-22 92,-7 115,0 85,27 154,88 186,164 37,87 -41,272 -123,342 -24,21 -49,32 -73,32zm-76 -491l0 0c-44,27 -67,194 -13,322 38,90 68,109 82,112 5,1 19,5 44,-17 77,-65 131,-224 108,-278 -38,-91 -126,-125 -152,-133 -39,-12 -63,-9 -69,-6z"/>
   <path class="fil3" d="M6081 5193c56,-35 187,35 220,156 18,65 -87,207 -153,268 -47,44 -100,43 -133,-78 -33,-121 12,-311 66,-346z"/>
   <path class="fil1" d="M6095 5672c-8,0 -15,-1 -20,-3 -39,-11 -67,-51 -87,-123 -33,-124 9,-331 78,-376 27,-17 65,-18 107,-3 55,22 129,80 155,175 24,88 -109,248 -161,296 -28,26 -53,34 -72,34zm22 -460l0 0c-8,0 -15,1 -21,5 -37,24 -86,196 -54,315 19,70 42,82 48,84 13,3 30,-10 39,-19 74,-69 157,-196 145,-241 -19,-70 -75,-119 -121,-137 -13,-5 -26,-7 -36,-7z"/>
   <path class="fil2" d="M5513 7330c-218,-91 -307,-539 -209,-815 39,-120 49,-263 20,-429 -180,-1057 -381,-1804 -381,-1804 650,-77 343,-692 4,-598 36,-115 18,-226 6,-313 -59,-414 -629,-440 -761,-29 -51,-93 -264,-130 -422,-63 -142,61 -291,297 -101,587 -69,-17 -190,-163 -419,0 0,0 -292,-194 -438,0 0,0 -209,-215 -438,0 0,0 -657,-352 -921,-30 -68,82 -129,261 -87,435 22,91 142,237 466,226 323,-10 1513,-59 2010,-217 779,826 -466,2257 -90,2604 212,197 743,254 1133,76 29,135 117,331 155,502 0,0 -522,-86 -478,445 264,135 625,141 1021,-180 111,-91 167,-298 -70,-397z"/>
   <path class="fil1" d="M4918 8022c-117,0 -242,-25 -369,-90 -9,-4 -14,-13 -15,-22 -14,-167 25,-293 114,-376 115,-105 280,-108 356,-103 -19,-77 -47,-157 -75,-235 -24,-70 -48,-138 -63,-197 -377,156 -908,114 -1133,-94 -166,-154 -52,-472 92,-875 198,-553 444,-1240 9,-1718 -507,154 -1658,202 -2001,213 -150,5 -271,-22 -362,-79 -98,-62 -125,-138 -132,-168 -42,-176 14,-364 92,-459 254,-311 829,-42 939,13 195,-169 377,-56 439,-6 125,-131 332,-60 440,6 163,-108 276,-70 351,-31 -64,-136 -54,-248 -31,-322 30,-102 104,-188 191,-225 143,-61 334,-42 423,34 86,-203 277,-281 437,-267 192,16 333,152 360,346l2 12c11,77 24,170 3,269 99,-11 199,28 274,110 86,94 115,217 77,321 -44,118 -171,197 -358,226 39,151 215,849 374,1776 28,163 20,312 -22,443 -46,130 -51,302 -13,462 39,164 114,280 207,319 133,55 171,139 180,200 12,86 -28,182 -104,243 -144,118 -392,274 -682,274zm-330 -132l0 0c183,87 540,170 977,-185 50,-40 95,-115 84,-192 -10,-67 -60,-121 -147,-157 -236,-99 -327,-563 -224,-850 39,-122 45,-262 19,-415 -179,-1044 -379,-1795 -381,-1802 -2,-8 0,-16 4,-23 5,-7 12,-11 20,-12 183,-22 305,-91 343,-195 31,-83 6,-186 -65,-263 -73,-79 -171,-111 -264,-86 -10,3 -20,0 -28,-7 -7,-7 -9,-18 -6,-28 33,-103 18,-206 7,-288l-2 -12c-23,-167 -145,-285 -310,-299 -149,-13 -330,67 -396,274 -4,11 -13,18 -24,20 -11,1 -22,-5 -27,-15 -42,-76 -238,-114 -387,-50 -56,24 -128,86 -159,190 -24,77 -31,201 70,355 6,10 6,22 -1,32 -6,9 -18,13 -29,11 -18,-5 -37,-15 -59,-27 -72,-40 -171,-95 -337,22 -9,7 -22,7 -31,1 -1,-1 -72,-47 -158,-70 -108,-28 -190,-7 -243,63 -5,7 -12,11 -20,11 -8,1 -16,-2 -22,-8 -8,-8 -193,-192 -399,1 -9,8 -22,10 -32,4 -2,-1 -164,-87 -356,-133 -250,-61 -429,-28 -531,97 -67,82 -119,254 -81,411 19,80 133,214 438,204 345,-11 1511,-59 2003,-215 10,-4 21,-1 28,7 475,503 220,1216 16,1788 -132,368 -246,686 -107,815 195,181 709,250 1103,71 7,-4 16,-4 24,0 7,4 12,11 14,19 14,63 41,142 70,224 32,92 65,188 86,278 2,9 -1,19 -7,26 -7,6 -16,9 -25,8 -2,0 -220,-35 -350,85 -74,68 -107,174 -98,315z"/>
   <path class="fil2" d="M3340 7679c232,118 550,123 897,-159 98,-79 147,-261 -61,-348 -192,-81 -270,-474 -184,-717 0,0 -361,-102 -376,320 -4,112 103,329 144,513 0,0 -459,-76 -420,391z"/>
   <path class="fil1" d="M3653 7783c-104,0 -213,-22 -326,-79 -9,-5 -14,-13 -15,-23 -12,-147 22,-259 102,-332 99,-92 241,-97 310,-93 -17,-65 -41,-134 -64,-201 -40,-113 -74,-212 -72,-281 5,-142 49,-244 130,-303 119,-87 275,-44 281,-42 8,2 14,7 18,14 3,6 4,14 1,22 -96,269 16,617 169,681 118,50 152,125 160,179 11,77 -25,162 -92,217 -128,103 -346,241 -602,241zm-287 -122l0 0c357,171 687,-27 854,-162 42,-35 81,-100 72,-166 -8,-58 -52,-104 -127,-136 -201,-84 -283,-466 -209,-721 -45,-6 -135,-11 -206,40 -66,48 -102,136 -106,260 -2,59 32,157 68,261 28,81 58,165 76,245 2,9 -1,18 -7,25 -7,7 -16,10 -25,8 -2,0 -192,-30 -305,75 -64,58 -92,150 -85,271z"/>
   <path class="fil0" d="M3223 7719c0,0 99,59 215,76 73,10 111,-122 159,-327 0,0 -80,-134 -187,-98 -107,37 -268,161 -187,349z"/>
   <path class="fil1" d="M3447 7823c-4,0 -9,0 -13,-1 -120,-17 -221,-76 -225,-79l-8 -4 -3 -9c-32,-73 -33,-143 -4,-209 42,-93 138,-154 207,-177 127,-43 216,104 220,110l6 10 -3 10c-49,210 -88,349 -177,349zm-202 -123l0 0c25,13 106,54 197,67 53,8 96,-169 125,-293 -18,-27 -78,-101 -148,-77 -59,20 -139,70 -174,147 -21,48 -21,101 0,156z"/>
   <path class="fil0" d="M3399 7787c0,0 172,57 501,-68 0,0 -71,-267 -283,-290 -113,-12 -299,169 -218,358z"/>
   <path class="fil1" d="M3516 7828c-80,0 -122,-14 -126,-15l-11 -4 -5 -11c-40,-92 -26,-194 37,-280 57,-77 141,-124 209,-116 95,10 179,67 241,166 46,72 65,141 66,144l6 24 -23 9c-175,67 -307,83 -394,83zm-96 -65l0 0c42,9 194,30 445,-60 -22,-63 -96,-229 -251,-246 -47,-5 -114,34 -158,94 -48,66 -61,142 -36,212z"/>
   <path class="fil4" d="M4192 3604c0,144 -117,262 -262,262 -144,0 -261,-118 -261,-262 0,-145 117,-262 261,-262 145,0 262,117 262,262z"/>
   <path class="fil1" d="M3930 3893c-159,0 -289,-130 -289,-289 0,-160 130,-290 289,-290 160,0 290,130 290,290 0,159 -130,289 -290,289zm0 -523l0 0c-129,0 -234,105 -234,234 0,129 105,234 234,234 129,0 234,-105 234,-234 0,-129 -105,-234 -234,-234z"/>
   <path class="fil6" d="M4109 3604c0,98 -80,178 -179,178 -98,0 -178,-80 -178,-178 0,-99 80,-179 178,-179 99,0 179,80 179,179z"/>
   <path class="fil1" d="M4045 3604c0,63 -51,114 -115,114 -63,0 -114,-51 -114,-114 0,-64 51,-115 114,-115 64,0 115,51 115,115z"/>
   <path class="fil4" d="M4094 3514c0,52 -43,95 -96,95 -52,0 -95,-43 -95,-95 0,-53 43,-96 95,-96 53,0 96,43 96,96z"/>
   <path class="fil4" d="M4874 3604c0,188 -153,340 -341,340 -188,0 -341,-152 -341,-340 0,-188 153,-341 341,-341 188,0 341,153 341,341z"/>
   <path class="fil1" d="M4533 3972c-203,0 -369,-165 -369,-368 0,-203 166,-369 369,-369 203,0 368,166 368,369 0,203 -165,368 -368,368zm0 -681l0 0c-173,0 -313,140 -313,313 0,172 140,313 313,313 172,0 313,-141 313,-313 0,-173 -141,-313 -313,-313z"/>
   <path class="fil6" d="M4765 3604c0,128 -104,232 -232,232 -129,0 -233,-104 -233,-232 0,-129 104,-233 233,-233 128,0 232,104 232,233z"/>
   <path class="fil1" d="M4300 3013c0,0 361,-306 560,14 0,0 -198,-543 -560,-14z"/>
   <path class="fil1" d="M3623 3218c0,0 277,-325 501,-69 0,0 -255,-455 -501,69z"/>
   <path class="fil3" d="M2156 4121c-39,96 -121,153 -184,128 -63,-26 -82,-124 -43,-220 39,-96 122,-154 185,-128 62,25 81,124 42,220z"/>
   <path class="fil1" d="M2004 4283c-15,0 -29,-3 -42,-9 -78,-31 -104,-144 -58,-256 21,-51 54,-95 93,-122 43,-29 88,-37 127,-21 78,32 104,145 58,256 -21,52 -54,95 -93,122 -28,20 -57,30 -85,30zm78 -360l0 0c-22,0 -42,11 -54,19 -30,21 -56,56 -73,97 -33,80 -20,165 28,184 28,12 59,-5 74,-15 31,-22 57,-56 74,-98 32,-80 20,-164 -28,-183 -7,-3 -14,-4 -21,-4z"/>
   <path class="fil0" d="M2176 4483c0,0 -14,288 264,236 278,-52 1186,-213 1325,-240 535,529 -682,1718 -202,2253 433,483 1366,272 1311,-243 -56,-514 -208,-2117 -128,-2414 0,0 -1512,360 -2570,408z"/>
   <path class="fil1" d="M4211 7031c-238,0 -491,-83 -669,-281 -247,-275 -67,-711 107,-1133 173,-418 351,-850 106,-1108 -93,18 -369,67 -661,120 -256,46 -521,94 -649,117 -90,17 -162,2 -214,-43 -89,-78 -83,-216 -82,-222l1 -25 25 -1c1043,-48 2549,-404 2564,-407l46 -11 -12 45c-77,285 66,1832 128,2404 22,199 -93,370 -314,469 -109,48 -240,76 -376,76zm-437 -2582l0 0 10 10c286,283 98,738 -83,1179 -176,425 -341,826 -117,1075 261,292 700,316 980,191 198,-88 301,-238 282,-412 -2,-20 -207,-1927 -136,-2380 -250,57 -1557,350 -2505,397 2,38 14,110 63,152 39,34 95,44 167,31 128,-24 393,-72 649,-118 295,-53 601,-108 675,-122l15 -3z"/>
   <path class="fil4" d="M2291 4477c0,0 81,300 177,338 0,0 117,-215 117,-357 0,0 -175,-4 -294,19z"/>
   <path class="fil1" d="M2480 4850l-22 -9c-106,-42 -186,-325 -194,-357l-8 -29 29 -6c121,-22 294,-19 301,-19l27 1 0 27c0,147 -116,362 -121,371l-12 21zm-154 -351l0 0c29,98 82,230 131,276 28,-55 89,-187 99,-289 -48,0 -148,1 -230,13z"/>
   <path class="fil4" d="M3420 4338c0,0 -85,-200 -163,-220 0,0 -58,132 -65,256 0,0 117,-19 228,-36z"/>
   <path class="fil1" d="M3162 4407l2 -34c7,-128 65,-260 68,-266l9 -22 23 6c15,4 95,34 182,236l14 33 -36 6c-109,16 -226,36 -228,36l-34 5zm109 -250l0 0c-14,38 -39,110 -48,184 36,-6 95,-16 156,-25 -29,-61 -72,-131 -108,-159z"/>
   <path class="fil1" d="M4088 4660c-142,0 -241,-71 -342,-160 -11,-11 -12,-28 -2,-40 10,-11 28,-12 39,-2 153,136 310,276 823,-72 13,-9 30,-6 38,7 9,13 6,30 -7,39 -245,166 -416,228 -549,228z"/>
   <path class="fil1" d="M4200 5006c-220,0 -313,-108 -319,-116 -9,-11 -7,-29 4,-39 12,-9 30,-8 39,4 3,4 219,247 798,-64 14,-8 31,-2 38,11 7,14 2,30 -11,38 -236,126 -416,166 -549,166z"/>
   <path class="fil1" d="M4219 5439c-278,0 -415,-145 -424,-155 -10,-11 -9,-29 2,-39 12,-10 29,-10 39,2 12,13 298,313 916,-19 14,-8 30,-2 38,11 7,14 2,30 -12,38 -227,122 -413,162 -559,162z"/>
   <path class="fil1" d="M4142 5901c-70,0 -140,-7 -210,-25 -191,-49 -285,-151 -289,-155 -10,-11 -9,-29 2,-39 12,-11 29,-10 40,2 1,1 88,95 265,139 297,74 613,-46 826,-161 13,-7 30,-2 37,11 8,14 2,31 -11,38 -174,93 -413,190 -660,190z"/>
   <path class="fil1" d="M4078 6472c-90,0 -181,-11 -272,-35 -234,-62 -354,-185 -359,-190 -10,-11 -10,-29 1,-40 11,-10 29,-10 40,1l0 0c1,2 115,119 336,177 204,53 543,65 1002,-182 13,-7 30,-2 37,11 8,14 3,31 -11,38 -201,108 -480,220 -774,220z"/>
   <path class="fil0" d="M4429 7953c0,0 113,67 244,86 84,12 127,-138 181,-371 0,0 -90,-153 -212,-112 -122,41 -305,183 -213,397z"/>
   <path class="fil1" d="M4683 8068c-4,0 -9,-1 -14,-1 -135,-20 -249,-87 -254,-90l-8 -4 -3 -9c-36,-82 -37,-161 -4,-235 47,-105 155,-173 233,-199 142,-48 241,116 245,123l6 10 -3 11c-55,236 -99,394 -198,394zm-232 -134l0 0c27,15 121,62 226,78 60,8 104,-154 148,-339 -21,-29 -91,-118 -174,-90 -68,23 -161,80 -200,169 -26,56 -25,118 0,182z"/>
   <path class="fil0" d="M4629 8030c0,0 196,65 570,-77 0,0 -80,-304 -322,-330 -128,-14 -340,192 -248,407z"/>
   <path class="fil1" d="M4762 8073c-90,0 -138,-15 -142,-17l-11 -4 -5 -11c-45,-103 -29,-217 42,-314 63,-85 159,-139 234,-131 107,11 202,76 272,187 52,82 73,160 74,163l6 25 -23 8c-198,76 -348,94 -447,94zm-112 -66l0 0c45,10 221,36 515,-70 -25,-70 -110,-267 -291,-286 -55,-6 -132,40 -183,109 -56,76 -71,166 -41,247z"/>
   <path class="fil0" d="M4969 5735c0,0 212,-78 256,-166 0,0 -23,471 -256,166z"/>
   <path class="fil1" d="M5105 5866c-48,0 -100,-38 -158,-114l-23 -30 36 -13c56,-21 208,-89 241,-153l59 -116 -7 130c0,3 -3,63 -18,128 -21,94 -56,149 -104,164 -8,3 -17,4 -26,4zm-90 -119l0 0c41,48 76,69 100,62 36,-11 61,-85 73,-159 -55,44 -129,78 -173,97z"/>
   <path class="fil0" d="M5026 5812c0,0 212,-79 256,-167 0,0 -23,472 -256,167z"/>
   <path class="fil1" d="M5162 5943c-48,0 -100,-38 -158,-114l-23 -30 35 -13c56,-21 209,-89 241,-153l59 -116 -6 130c0,2 -3,63 -18,127 -21,95 -56,150 -104,165 -9,2 -17,4 -26,4zm-91 -119l0 0c42,47 77,69 101,62 36,-12 60,-85 73,-159 -55,43 -129,78 -174,97z"/>
   <path class="fil2" d="M4676 4767c-70,131 87,342 341,485 0,0 -589,420 -289,715 272,267 437,14 441,-93 2,-74 -21,-154 -144,-187 73,-54 385,-427 385,-427 0,0 -457,-1001 -734,-493z"/>
   <path class="fil1" d="M4957 6113c-66,0 -150,-29 -249,-126 -68,-68 -99,-146 -92,-235 17,-215 260,-425 351,-497 -254,-154 -389,-365 -315,-501 59,-108 131,-161 216,-158 270,9 555,627 567,653 4,10 3,21 -4,29 -11,14 -245,293 -352,398 81,37 121,103 117,199 -2,65 -55,181 -161,223 -22,9 -48,15 -78,15zm-96 -1462l0 0c-59,0 -113,44 -160,130 -60,110 88,311 330,447 8,5 13,13 14,23 0,9 -4,18 -12,24 -3,2 -343,247 -362,482 -6,72 19,134 76,190 98,96 190,130 267,100 79,-32 125,-123 127,-174 3,-86 -35,-136 -123,-160 -10,-2 -18,-11 -20,-21 -2,-11 2,-21 11,-28 55,-40 274,-296 368,-408 -85,-180 -321,-598 -511,-605 -2,0 -3,0 -5,0z"/>
   <path class="fil1" d="M4640 3760c-5,0 -10,-1 -14,-3l-214 -125c-9,-5 -14,-14 -14,-24 0,-9 4,-18 12,-24l215 -139c13,-9 30,-5 38,8 9,12 5,30 -8,38l-176 115 175 103c13,7 18,24 10,38 -5,8 -14,13 -24,13z"/>
  </g>
 </g>
</svg>
