<?xml version="1.0" encoding="UTF-8"?>
<!DOCTYPE svg PUBLIC "-//W3C//DTD SVG 1.1//EN" "http://www.w3.org/Graphics/SVG/1.1/DTD/svg11.dtd">
<!-- Creator: CorelDRAW X7 -->
<svg xmlns="http://www.w3.org/2000/svg" xml:space="preserve" width="8.5in" height="11in" version="1.1" style="shape-rendering:geometricPrecision; text-rendering:geometricPrecision; image-rendering:optimizeQuality; fill-rule:evenodd; clip-rule:evenodd"
viewBox="0 0 8500 11000"
 xmlns:xlink="http://www.w3.org/1999/xlink">
 <defs>
  <style type="text/css">
   <![CDATA[
    .fil0 {fill:black}
   ]]>
  </style>
 </defs>
 <g id="Layer_x0020_1">
  <metadata id="CorelCorpID_0Corel-Layer"/>
  <path class="fil0" d="M7822 5537c-49,-41 -99,-97 -151,-129 -24,-15 -46,-22 -81,-45 -23,-16 -60,-36 -87,-45 -37,-12 -86,-8 -127,-17 -47,-11 -80,-27 -125,-27 -85,0 -159,45 -240,46 -38,28 -77,51 -116,73 -30,3 -65,-21 -97,-17 -37,4 -80,38 -124,55 -87,32 -163,54 -252,84 -43,13 -83,35 -123,44 -55,14 -114,12 -168,15 -55,3 -113,8 -172,-5 -42,12 -87,4 -131,-4 -71,21 -172,-16 -254,-40 -30,-9 -59,-19 -89,-28 -14,-4 -30,-13 -45,-18 -14,-4 -31,0 -43,-4 -34,-12 -62,-30 -97,-41 -15,-4 -32,-9 -48,-13 -14,-4 -31,-13 -47,-8 -98,-63 -186,-40 -282,-79 -18,-32 -39,-57 -57,-92 -15,-29 -34,-70 -59,-104 -4,-6 -14,-8 -18,-14 -48,-62 -90,-131 -136,-193 48,-34 20,-82 63,-126 -27,-54 -49,-114 -74,-174 -7,-18 -11,-41 -20,-57 -12,-20 -37,-39 -57,-62 -44,-51 -96,-110 -138,-160 -20,-23 -35,-37 -64,-67 -33,-35 -74,-101 -115,-107 -10,29 -1,61 5,91 4,21 0,48 22,70 -42,-16 -76,-69 -111,-98 -16,-13 -37,-29 -52,-23 -1,67 35,129 60,192 -41,-15 -86,-70 -119,-87 -31,72 36,132 89,193 -17,6 -38,-9 -56,-3 -23,-15 -66,-45 -73,-11 15,13 4,-5 8,-11 10,8 20,15 29,23 7,10 -16,5 -23,0 31,40 89,60 127,99 61,61 64,141 79,206 -35,20 -68,-13 -92,-24 -16,-8 -31,-18 -46,-24 -14,-6 -27,-6 -44,-11 -58,-17 -114,-30 -175,-37 -28,-4 -57,-6 -86,-9 -79,-9 -159,-22 -240,-29 -16,-2 -19,-2 -37,-6 -15,-3 -46,-11 -67,-18 -19,-5 -48,-12 -72,-20 -2,-1 -8,-9 -11,-9 -35,7 -99,-31 -146,-37 -16,-15 17,-35 17,-52 13,-37 -5,-91 -10,-136 -5,-36 -12,-74 -44,-109 -28,-32 -102,-98 -148,-116 -4,-2 -8,4 -13,1 -25,-11 -80,-15 -111,-16 -30,-1 -64,3 -97,6 -69,5 -136,22 -205,39 -5,-5 -10,-9 -14,-5 -20,-17 -39,-28 -52,-46 -25,-38 -33,-93 -78,-102 -13,22 12,40 4,62 -51,-13 -58,-76 -86,-91 -22,46 8,86 9,130 -23,-3 -52,-9 -78,-26 -23,-15 -40,-57 -71,-44 -8,23 29,29 20,57 39,35 48,74 89,110 -49,16 -100,-22 -148,25 24,24 71,28 111,51 58,34 108,87 151,129 -55,26 -118,13 -176,9 -30,-2 -61,-6 -89,-5 -29,0 -56,11 -85,4 -53,28 -114,54 -173,57 -16,1 -31,-6 -47,-7 -9,0 -18,10 -25,10 -9,0 -17,-7 -24,-7 -8,-1 -15,1 -23,0 -96,-13 -200,-17 -301,-19 -64,-1 -124,-5 -185,-16 -47,-8 -93,-18 -142,-28 -28,-6 -45,-11 -73,-11 -55,0 -121,10 -181,-7 -81,6 -162,4 -239,36 -50,57 -88,141 -81,194 1,6 2,16 3,19 3,14 18,26 21,40 3,15 1,33 3,49 1,11 5,34 16,48 18,21 47,29 74,46 69,44 162,119 232,175 25,19 38,45 71,43 65,53 141,72 218,117 41,25 77,50 125,80 14,9 30,10 45,17 38,19 80,40 122,61 67,32 145,66 182,95 17,13 36,35 45,47 41,52 34,115 66,156 10,12 26,19 36,28 72,69 122,125 204,158 13,6 30,6 44,11 52,20 90,33 147,28 38,-4 108,-37 140,-8 32,29 -2,75 -8,116 -29,20 -43,-7 -79,-26 -13,-8 -41,-13 -61,-19 -32,-9 -55,-15 -84,-12 -20,1 -49,3 -71,8 -35,-12 -68,-3 -104,-16 -46,7 -92,12 -141,24 -50,12 -87,35 -134,59 -34,18 -91,30 -106,92 12,9 22,1 31,-10 36,21 65,-6 100,7 -15,24 -54,34 -82,59 -6,6 -7,18 -13,25 -15,17 -46,25 -40,51 18,6 32,-11 47,-22 60,9 115,-24 176,-9 4,9 1,28 -2,39 -8,34 -38,80 -44,117 -2,10 -14,30 1,36 14,11 20,-13 27,-19 30,-27 79,-83 119,-100 15,28 -62,94 -39,132 -6,12 -27,26 -22,36 32,16 52,-37 77,-62 47,-47 87,-88 137,-86 59,51 121,83 179,122 49,32 81,56 135,52 21,-1 53,-13 79,-20 49,-13 78,-16 122,-51 27,-22 77,-37 95,-54 32,-31 51,-74 68,-111 10,-21 16,-47 29,-59 30,-28 88,-8 122,-22 94,41 210,39 312,86 15,7 25,19 39,25 41,16 103,29 155,56 18,9 28,25 46,30 34,11 92,35 131,50 45,16 88,31 137,42 47,10 90,10 132,9 54,-1 114,-16 173,-34 3,-1 5,-11 8,-11 43,-3 102,-42 150,-58 -44,71 -62,139 -40,202 -34,44 -89,53 -113,93 26,25 74,-3 109,9 -64,32 -168,57 -196,139 78,10 151,-18 228,-15 -48,41 -107,56 -160,85 -25,14 -58,28 -62,51 101,20 193,-30 289,-49 -20,43 -69,56 -77,98 30,12 59,-12 86,-21 35,-11 70,-16 105,-29 54,-63 143,-103 208,-171 64,-66 146,-157 160,-249 -32,-36 -73,-72 -90,-110 35,-57 77,-54 115,-80 61,1 119,6 176,14 45,7 87,18 133,16 38,-1 86,-11 129,-16 137,-13 288,-16 427,-46 56,-12 112,-27 169,-44 109,-33 222,-64 330,-110 47,16 118,31 134,-36 41,-9 120,-1 109,-67 38,-6 78,5 113,-17 5,-18 4,-35 0,-52 34,-13 120,-14 89,-77 43,-14 107,-15 115,-80 16,-11 39,-7 57,-14 37,-14 65,-47 104,-59 36,-10 87,-7 130,-9 88,-4 172,-10 261,-13 45,-2 87,2 128,1 130,-5 253,-41 383,-58 42,-5 95,-3 123,-45 -10,-27 -37,-38 -60,-58z"/>
 </g>
</svg>
