<?xml version="1.0" encoding="UTF-8"?>
<!DOCTYPE svg PUBLIC "-//W3C//DTD SVG 1.1//EN" "http://www.w3.org/Graphics/SVG/1.1/DTD/svg11.dtd">
<!-- Creator: CorelDRAW X8 -->
<svg xmlns="http://www.w3.org/2000/svg" xml:space="preserve" width="8.5in" height="11in" version="1.1" style="shape-rendering:geometricPrecision; text-rendering:geometricPrecision; image-rendering:optimizeQuality; fill-rule:evenodd; clip-rule:evenodd"
viewBox="0 0 8500 11000"
 xmlns:xlink="http://www.w3.org/1999/xlink">
 <defs>
  <style type="text/css">
   <![CDATA[
    .fil0 {fill:#7B7D7F}
   ]]>
  </style>
 </defs>
 <g id="Layer_x0020_1">
  <metadata id="CorelCorpID_0Corel-Layer"/>
  <path class="fil0" d="M2765 1654l2972 0c667,0 1241,271 1667,696 423,454 698,1034 698,1696l0 2937c0,667 -275,1242 -698,1667 -426,455 -1000,696 -1667,696l-2972 0c-637,0 -1244,-241 -1666,-696 -426,-425 -701,-1000 -701,-1667l0 -2937c0,-662 275,-1242 701,-1696 422,-425 1029,-696 1666,-696l0 0zm2972 396l-2972 0c-546,0 -1031,208 -1396,575 -362,363 -606,845 -606,1421l0 2937c0,547 244,1059 606,1426 365,362 850,575 1396,575l2972 0c546,0 1060,-213 1423,-575 365,-367 577,-879 577,-1426l0 -2937c0,-576 -212,-1058 -577,-1421 -363,-367 -877,-575 -1423,-575l0 0zm-2791 3025c-181,0 -302,-150 -302,-299 0,-155 121,-305 302,-305 153,0 274,150 274,305 0,149 -121,299 -274,299l0 0zm848 -817l-968 -666 -182 241 1001 667 149 -242zm2064 -425l-153 -241 -1000 666 181 242 972 -667zm-1607 2696c-1031,0 -1305,909 -1305,909 0,0 425,-300 1305,-300 879,0 1334,300 1334,300 0,0 -305,-909 -1334,-909l0 0zm1334 -2058c-153,0 -305,150 -305,305 0,149 152,299 305,299 152,0 304,-150 304,-299 0,-155 -152,-305 -304,-305l0 0z"/>
 </g>
</svg>
