<?xml version="1.0" encoding="UTF-8"?>
<!DOCTYPE svg PUBLIC "-//W3C//DTD SVG 1.1//EN" "http://www.w3.org/Graphics/SVG/1.1/DTD/svg11.dtd">
<!-- Creator: CorelDRAW X8 -->
<svg xmlns="http://www.w3.org/2000/svg" xml:space="preserve" width="8.5in" height="11in" version="1.1" style="shape-rendering:geometricPrecision; text-rendering:geometricPrecision; image-rendering:optimizeQuality; fill-rule:evenodd; clip-rule:evenodd"
viewBox="0 0 8500 11000"
 xmlns:xlink="http://www.w3.org/1999/xlink">
 <defs>
  <style type="text/css">
   <![CDATA[
    .fil0 {fill:#7B7D7F}
   ]]>
  </style>
 </defs>
 <g id="Layer_x0020_1">
  <metadata id="CorelCorpID_0Corel-Layer"/>
  <path class="fil0" d="M2804 1761l2892 0c648,0 1207,263 1620,676 414,442 677,1006 677,1649l0 2856c0,649 -263,1208 -677,1621 -413,442 -972,677 -1620,677l-2892 0c-617,0 -1207,-235 -1620,-677 -414,-413 -677,-972 -677,-1621l0 -2856c0,-643 263,-1207 677,-1649 413,-413 1003,-676 1620,-676l0 0zm2892 385l-2892 0c-528,0 -1000,202 -1355,559 -355,352 -590,822 -590,1381l0 2856c0,531 235,1029 590,1386 355,353 827,559 1355,559l2892 0c528,0 1031,-206 1385,-559 353,-357 560,-855 560,-1386l0 -2856c0,-559 -207,-1029 -560,-1381 -354,-357 -857,-559 -1385,-559l0 0zm-2330 2650l-942 -621 145 -235 945 620 -148 236zm-679 2297l0 291c0,0 561,-587 1562,-587 1003,0 1592,587 1592,587l0 -291c0,0 -589,-592 -1592,-592 -1001,0 -1562,592 -1562,592l0 0zm2300 -2533l178 236 942 -621 -176 -235 -944 620z"/>
 </g>
</svg>
