<?xml version="1.0" encoding="UTF-8"?>
<!DOCTYPE svg PUBLIC "-//W3C//DTD SVG 1.1//EN" "http://www.w3.org/Graphics/SVG/1.1/DTD/svg11.dtd">
<!-- Creator: CorelDRAW X8 -->
<svg xmlns="http://www.w3.org/2000/svg" xml:space="preserve" width="8.5in" height="11in" version="1.1" style="shape-rendering:geometricPrecision; text-rendering:geometricPrecision; image-rendering:optimizeQuality; fill-rule:evenodd; clip-rule:evenodd"
viewBox="0 0 8500 11000"
 xmlns:xlink="http://www.w3.org/1999/xlink">
 <defs>
  <style type="text/css">
   <![CDATA[
    .fil0 {fill:#7B7D7F}
   ]]>
  </style>
 </defs>
 <g id="Layer_x0020_1">
  <metadata id="CorelCorpID_0Corel-Layer"/>
  <path class="fil0" d="M2755 1631l2958 0c673,0 1254,272 1711,700 425,457 700,1040 700,1706l0 2955c0,671 -275,1249 -700,1677 -457,457 -1038,700 -1711,700l-2958 0c-671,0 -1251,-243 -1677,-700 -457,-428 -702,-1006 -702,-1677l0 -2955c0,-666 245,-1249 702,-1706 426,-428 1006,-700 1677,-700l0 0zm2958 398l-2958 0c-549,0 -1067,210 -1431,579 -367,364 -581,850 -581,1429l0 2955c0,579 214,1065 581,1434 364,365 882,579 1431,579l2958 0c581,0 1069,-214 1434,-579 367,-369 612,-855 612,-1434l0 -2955c0,-579 -245,-1065 -612,-1429 -365,-369 -853,-579 -1434,-579l0 0zm-2134 2528l-853 851 -216 -210 671 -641 -671 -642 216 -179 853 821zm673 1857c-1037,0 -1344,884 -1344,884 0,0 428,-277 1344,-277 883,0 1310,277 1310,277 0,0 -274,-884 -1310,-884l0 0zm1495 -2678l-856 821 856 851 211 -210 -639 -641 639 -642 -211 -179z"/>
 </g>
</svg>
