<?xml version="1.0" encoding="UTF-8"?>
<!DOCTYPE svg PUBLIC "-//W3C//DTD SVG 1.1//EN" "http://www.w3.org/Graphics/SVG/1.1/DTD/svg11.dtd">
<!-- Creator: CorelDRAW X8 -->
<svg xmlns="http://www.w3.org/2000/svg" xml:space="preserve" width="8.5in" height="11in" version="1.1" style="shape-rendering:geometricPrecision; text-rendering:geometricPrecision; image-rendering:optimizeQuality; fill-rule:evenodd; clip-rule:evenodd"
viewBox="0 0 8500 11000"
 xmlns:xlink="http://www.w3.org/1999/xlink">
 <defs>
  <style type="text/css">
   <![CDATA[
    .fil0 {fill:#7B7D7F}
   ]]>
  </style>
 </defs>
 <g id="Layer_x0020_1">
  <metadata id="CorelCorpID_0Corel-Layer"/>
  <path class="fil0" d="M2797 1740l2906 0c652,0 1214,264 1629,680 416,444 683,1011 683,1658l0 2872c0,652 -267,1214 -683,1630 -415,444 -977,680 -1629,680l-2906 0c-623,0 -1216,-236 -1630,-680 -415,-416 -682,-978 -682,-1630l0 -2872c0,-647 267,-1214 682,-1658 414,-416 1007,-680 1630,-680l0 0zm2906 387l-2906 0c-533,0 -1008,203 -1365,562 -354,354 -590,827 -590,1389l0 2872c0,534 236,1035 590,1394 357,354 832,562 1365,562l2906 0c533,0 1037,-208 1393,-562 357,-359 562,-860 562,-1394l0 -2872c0,-562 -205,-1035 -562,-1389 -356,-359 -860,-562 -1393,-562l0 0zm-3114 3227l622 -652 -622 -591 178 -208 859 799 -859 826 -178 -174zm90 1747c0,619 355,-297 1571,-297 1214,0 1602,916 1602,297 0,0 -593,-595 -1602,-595 -1009,0 -1571,595 -1571,595l0 0zm3054 -3198l-859 799 859 826 206 -174 -652 -652 652 -591 -206 -208z"/>
 </g>
</svg>
