<?xml version="1.0" encoding="UTF-8"?>
<!DOCTYPE svg PUBLIC "-//W3C//DTD SVG 1.1//EN" "http://www.w3.org/Graphics/SVG/1.1/DTD/svg11.dtd">
<!-- Creator: CorelDRAW X8 -->
<svg xmlns="http://www.w3.org/2000/svg" xml:space="preserve" width="8.5in" height="11in" version="1.1" style="shape-rendering:geometricPrecision; text-rendering:geometricPrecision; image-rendering:optimizeQuality; fill-rule:evenodd; clip-rule:evenodd"
viewBox="0 0 8500 11000"
 xmlns:xlink="http://www.w3.org/1999/xlink">
 <defs>
  <style type="text/css">
   <![CDATA[
    .fil0 {fill:#7B7D7F}
   ]]>
  </style>
 </defs>
 <g id="Layer_x0020_1">
  <metadata id="CorelCorpID_0Corel-Layer"/>
  <path class="fil0" d="M2795 1740l2905 0c624,0 1217,264 1632,680 416,444 683,1011 683,1658l0 2872c0,652 -267,1215 -683,1630 -415,444 -1008,680 -1632,680l-2905 0c-621,0 -1214,-236 -1630,-680 -413,-415 -680,-978 -680,-1630l0 -2872c0,-647 267,-1214 680,-1658 416,-416 1009,-680 1630,-680l0 0zm2905 387l-2905 0c-531,0 -1037,203 -1391,562 -357,355 -564,827 -564,1389l0 2872c0,562 207,1035 564,1394 354,354 860,562 1391,562l2905 0c534,0 1009,-208 1365,-562 355,-359 593,-832 593,-1394l0 -2872c0,-562 -238,-1034 -593,-1389 -356,-359 -831,-562 -1365,-562l0 0zm121 2514c0,179 -121,297 -267,297 -180,0 -298,-118 -298,-297 0,-147 118,-265 298,-265 146,0 267,118 267,265l0 0zm0 -917l-180 -236 -947 652 177 236 950 -652zm-2017 416l-978 -652 -149 236 949 652 178 -236zm-860 798c149,0 297,-118 297,-297 0,-147 -148,-265 -297,-265 -149,0 -295,118 -295,265 0,179 146,297 295,297l0 0zm3172 1866c0,415 -326,742 -711,742l-2312 0c-416,0 -711,-327 -711,-742 0,-383 295,-709 711,-709l2312 0c385,0 711,326 711,709l0 0z"/>
 </g>
</svg>
