<?xml version="1.0" encoding="UTF-8"?>
<!DOCTYPE svg PUBLIC "-//W3C//DTD SVG 1.1//EN" "http://www.w3.org/Graphics/SVG/1.1/DTD/svg11.dtd">
<!-- Creator: CorelDRAW X8 -->
<svg xmlns="http://www.w3.org/2000/svg" xml:space="preserve" width="8.5in" height="11in" version="1.1" style="shape-rendering:geometricPrecision; text-rendering:geometricPrecision; image-rendering:optimizeQuality; fill-rule:evenodd; clip-rule:evenodd"
viewBox="0 0 8500 11000"
 xmlns:xlink="http://www.w3.org/1999/xlink">
 <defs>
  <style type="text/css">
   <![CDATA[
    .fil0 {fill:#7B7D7F;fill-rule:nonzero}
   ]]>
  </style>
 </defs>
 <g id="Layer_x0020_1">
  <metadata id="CorelCorpID_0Corel-Layer"/>
  <path class="fil0" d="M6112 5058l0 0 123 -472 -915 -216 792 -478 -254 -407 -1166 694 126 537 1294 342zm-3628 0l0 0 1293 -342 126 -537 -1166 -694 -253 407 786 478 -912 216 126 472zm5454 472l0 0c0,-2045 -1638,-3683 -3688,-3683 -2020,0 -3691,1638 -3691,3683 0,2020 1671,3654 3691,3654 2050,0 3688,-1634 3688,-3654l0 0zm317 0l0 0c0,2206 -1797,3970 -4005,3970 -2206,0 -4005,-1764 -4005,-3970 0,-2231 1799,-4030 4005,-4030 2208,0 4005,1799 4005,4030l0 0zm-1862 2020c-472,-693 -1229,-1135 -2113,-1135 -882,0 -1671,442 -2110,1135 251,-914 1100,-1608 2110,-1608 1010,0 1862,659 2113,1608l0 0z"/>
 </g>
</svg>
