<?xml version="1.0" encoding="UTF-8"?>
<!DOCTYPE svg PUBLIC "-//W3C//DTD SVG 1.1//EN" "http://www.w3.org/Graphics/SVG/1.1/DTD/svg11.dtd">
<!-- Creator: CorelDRAW X8 -->
<svg xmlns="http://www.w3.org/2000/svg" xml:space="preserve" width="8.5in" height="11in" version="1.1" style="shape-rendering:geometricPrecision; text-rendering:geometricPrecision; image-rendering:optimizeQuality; fill-rule:evenodd; clip-rule:evenodd"
viewBox="0 0 8500 11000"
 xmlns:xlink="http://www.w3.org/1999/xlink">
 <defs>
  <style type="text/css">
   <![CDATA[
    .fil0 {fill:#7B7D7F}
   ]]>
  </style>
 </defs>
 <g id="Layer_x0020_1">
  <metadata id="CorelCorpID_0Corel-Layer"/>
  <path class="fil0" d="M2753 1626l2993 0c641,0 1253,273 1682,701 426,458 701,1041 701,1708l0 2959c0,672 -275,1251 -701,1679 -429,458 -1041,701 -1682,701l-2993 0c-640,0 -1253,-243 -1679,-701 -428,-428 -703,-1007 -703,-1679l0 -2959c0,-667 275,-1250 703,-1708 426,-428 1039,-701 1679,-701l0 0zm2993 399l-2993 0c-549,0 -1039,209 -1435,579 -365,365 -580,852 -580,1431l0 2959c0,550 215,1066 580,1436 396,365 886,579 1435,579l2993 0c551,0 1040,-214 1436,-579 336,-370 582,-886 582,-1436l0 -2959c0,-579 -246,-1066 -582,-1431 -396,-370 -885,-579 -1436,-579l0 0zm-2839 3047c-154,0 -307,-151 -307,-302 0,-156 153,-307 307,-307 151,0 304,151 304,307 0,151 -153,302 -304,302l0 0zm1985 -579l-185 -243 979 -673 182 244 -976 672zm-1282 0l-978 -672 153 -244 1008 673 -183 243zm-703 2350l2686 0 0 307 -2686 0 0 -307zm2961 -2073c0,151 -122,302 -275,302 -182,0 -304,-151 -304,-302 0,-156 122,-307 304,-307 153,0 275,151 275,307l0 0z"/>
 </g>
</svg>
