<?xml version="1.0" encoding="UTF-8"?>
<!DOCTYPE svg PUBLIC "-//W3C//DTD SVG 1.1//EN" "http://www.w3.org/Graphics/SVG/1.1/DTD/svg11.dtd">
<!-- Creator: CorelDRAW X8 -->
<svg xmlns="http://www.w3.org/2000/svg" xml:space="preserve" width="8.5in" height="11in" version="1.1" style="shape-rendering:geometricPrecision; text-rendering:geometricPrecision; image-rendering:optimizeQuality; fill-rule:evenodd; clip-rule:evenodd"
viewBox="0 0 8500 11000"
 xmlns:xlink="http://www.w3.org/1999/xlink">
 <defs>
  <style type="text/css">
   <![CDATA[
    .fil0 {fill:#7B7D7F}
   ]]>
  </style>
 </defs>
 <g id="Layer_x0020_1">
  <metadata id="CorelCorpID_0Corel-Layer"/>
  <path class="fil0" d="M2738 1587l3026 0c678,0 1263,276 1696,708 430,462 708,1052 708,1725l0 2989c0,678 -278,1263 -708,1696 -433,462 -1018,708 -1696,708l-3026 0c-646,0 -1265,-246 -1695,-708 -433,-433 -711,-1018 -711,-1696l0 -2989c0,-673 278,-1263 711,-1725 430,-432 1049,-708 1695,-708l0 0zm3026 403l-3026 0c-555,0 -1049,212 -1418,585 -368,369 -617,860 -617,1445l0 2989c0,585 249,1076 617,1450 369,369 863,585 1418,585l3026 0c553,0 1076,-216 1447,-585 372,-374 588,-865 588,-1450l0 -2989c0,-585 -216,-1076 -588,-1445 -371,-373 -894,-585 -1447,-585l0 0zm-2128 2340l-1021 -678 185 -246 988 678 -152 246zm-711 0c-187,0 -310,123 -310,275 0,187 123,310 310,310 152,0 278,-123 278,-310 0,-152 -126,-275 -278,-275l0 0zm2097 2527c0,432 -340,771 -772,771 -401,0 -740,-339 -740,-771 0,-399 339,-738 740,-738 432,0 772,339 772,738l0 0zm587 -2527c-155,0 -310,123 -310,275 0,187 155,310 310,310 155,0 307,-123 307,-310 0,-152 -152,-275 -307,-275l0 0zm275 -678l-154 -246 -1018 678 187 246 985 -678z"/>
 </g>
</svg>
