<?xml version="1.0" encoding="UTF-8"?>
<!DOCTYPE svg PUBLIC "-//W3C//DTD SVG 1.1//EN" "http://www.w3.org/Graphics/SVG/1.1/DTD/svg11.dtd">
<!-- Creator: CorelDRAW X8 -->
<svg xmlns="http://www.w3.org/2000/svg" xml:space="preserve" width="8.5in" height="11in" version="1.1" style="shape-rendering:geometricPrecision; text-rendering:geometricPrecision; image-rendering:optimizeQuality; fill-rule:evenodd; clip-rule:evenodd"
viewBox="0 0 8500 11000"
 xmlns:xlink="http://www.w3.org/1999/xlink">
 <defs>
  <style type="text/css">
   <![CDATA[
    .fil0 {fill:#7B7D7F;fill-rule:nonzero}
   ]]>
  </style>
 </defs>
 <g id="Layer_x0020_1">
  <metadata id="CorelCorpID_0Corel-Layer"/>
  <path class="fil0" d="M6121 5867l0 0 216 494 -3435 1501 -218 -460 3437 -1535zm-1134 -1315l0 0c0,-338 276,-582 614,-582 308,0 582,244 582,582 0,337 -274,611 -582,611 -338,0 -614,-274 -614,-611l0 0zm-1965 611l0 0c-338,0 -612,-274 -612,-611 0,-338 274,-582 612,-582 339,0 586,244 586,582 0,337 -247,611 -586,611l0 0zm1229 3921l0 0c-1995,0 -3591,-1589 -3591,-3555 0,-1990 1596,-3584 3591,-3584 1963,0 3589,1594 3589,3584 0,1966 -1626,3555 -3589,3555l0 0zm0 -7476c-2149,0 -3897,1750 -3897,3921 0,2147 1748,3863 3897,3863 2149,0 3895,-1716 3895,-3863 0,-2171 -1746,-3921 -3895,-3921l0 0z"/>
 </g>
</svg>
