<?xml version="1.0" encoding="UTF-8"?>
<!DOCTYPE svg PUBLIC "-//W3C//DTD SVG 1.1//EN" "http://www.w3.org/Graphics/SVG/1.1/DTD/svg11.dtd">
<!-- Creator: CorelDRAW X8 -->
<svg xmlns="http://www.w3.org/2000/svg" xml:space="preserve" width="8.5in" height="11in" version="1.1" style="shape-rendering:geometricPrecision; text-rendering:geometricPrecision; image-rendering:optimizeQuality; fill-rule:evenodd; clip-rule:evenodd"
viewBox="0 0 8500 11000"
 xmlns:xlink="http://www.w3.org/1999/xlink">
 <defs>
  <style type="text/css">
   <![CDATA[
    .fil0 {fill:#7B7D7F}
   ]]>
  </style>
 </defs>
 <g id="Layer_x0020_1">
  <metadata id="CorelCorpID_0Corel-Layer"/>
  <path class="fil0" d="M2722 1542l3056 0c656,0 1280,279 1717,716 438,468 716,1064 716,1745l0 3023c0,686 -278,1278 -716,1716 -437,467 -1061,716 -1717,716l-3056 0c-656,0 -1280,-249 -1717,-716 -438,-438 -716,-1030 -716,-1716l0 -3023c0,-681 278,-1277 716,-1745 437,-437 1061,-716 1717,-716l0 0zm3056 408l-3056 0c-561,0 -1093,214 -1466,592 -376,372 -594,870 -594,1461l0 3023c0,592 218,1089 594,1467 373,373 905,592 1466,592l3056 0c561,0 1061,-219 1437,-592 375,-378 623,-905 623,-1467l0 -3023c0,-591 -248,-1089 -623,-1461 -376,-378 -876,-592 -1437,-592l0 0zm-2464 2804l-1029 -656 1186 408 -157 248zm937 1805c-1061,0 -1374,935 -1374,935 0,0 469,-309 1374,-309 903,0 1372,309 1372,309 0,0 -313,-935 -1372,-935l0 0zm778 -2053l157 248 999 -656 -156 -249 -1000 657z"/>
 </g>
</svg>
