<?xml version="1.0" encoding="UTF-8"?>
<!DOCTYPE svg PUBLIC "-//W3C//DTD SVG 1.1//EN" "http://www.w3.org/Graphics/SVG/1.1/DTD/svg11.dtd">
<!-- Creator: CorelDRAW X7 -->
<svg xmlns="http://www.w3.org/2000/svg" xml:space="preserve" width="0.233366in" height="0.202665in" version="1.1" style="shape-rendering:geometricPrecision; text-rendering:geometricPrecision; image-rendering:optimizeQuality; fill-rule:evenodd; clip-rule:evenodd"
viewBox="0 0 18 15"
 xmlns:xlink="http://www.w3.org/1999/xlink">
 <defs>
  <style type="text/css">
   <![CDATA[
    .fil0 {fill:black;fill-rule:nonzero}
    .fil2 {fill:#B8782A;fill-rule:nonzero}
    .fil1 {fill:#F9AD24;fill-rule:nonzero}
   ]]>
  </style>
 </defs>
 <g id="__x0023_Layer_x0020_1">
  <metadata id="CorelCorpID_0Corel-Layer"/>
  <g id="_145842441744">
   <path class="fil0" d="M18 9c0,0 -1,0 -2,0 -1,-1 -2,-1 -3,-2 0,0 -1,0 -1,-1 0,0 -1,0 -1,0 0,-1 0,-1 0,-1 1,0 3,-2 4,-3l1 -2 -1 0c-1,1 -2,1 -3,0 -2,0 -4,0 -6,1 -1,1 -1,2 -1,3l0 1c-1,1 -2,1 -2,2l-1 0c-1,0 -1,0 -2,1 0,0 0,2 0,2 0,1 1,2 2,3 1,1 3,2 4,2 4,1 6,-1 6,-1 0,0 -1,1 -3,-1 0,0 -1,-1 -2,-2 8,1 11,-2 11,-2z"/>
   <g>
    <path class="fil1" d="M3 7c1,-1 3,-2 6,-2 2,1 3,2 4,2 1,1 2,1 3,2 -1,0 -1,0 -2,0 -1,0 -1,0 -2,0 -2,0 -3,0 -4,-1 0,0 -1,0 -2,0 -1,-1 -2,-1 -3,-1z"/>
    <path class="fil1" d="M2 8c0,0 -1,0 -1,0 1,0 3,-1 5,2 1,1 2,2 3,4 0,0 2,1 2,1 -2,0 -5,-1 -6,-2 -2,-2 -2,-3 -3,-5z"/>
    <path class="fil1" d="M5 4c1,-4 4,-3 7,-3 1,0 2,0 3,0 -1,0 -2,1 -3,1 -1,1 -2,1 -3,1 -1,0 -3,1 -4,1z"/>
    <path class="fil2" d="M7 11c-1,-2 -2,-3 -3,-3 1,0 1,0 2,0 1,0 2,1 3,1 2,0 6,1 8,0 -2,2 -7,2 -10,2z"/>
    <path class="fil2" d="M15 1c-1,1 -2,2 -3,3 0,0 0,1 -1,1 -1,0 -1,0 -2,0 -1,0 -2,0 -4,0 0,0 0,0 1,-1 1,0 2,-1 4,-1 1,0 2,0 2,-1 1,0 2,0 3,-1z"/>
    <path class="fil2" d="M8 15c-1,0 -1,0 -2,0 -2,-1 -5,-3 -5,-5 -1,-1 -1,-2 0,-2 1,1 1,2 2,3 1,2 3,3 4,4 0,0 1,0 1,0z"/>
   </g>
  </g>
 </g>
</svg>
