<?xml version="1.0" encoding="UTF-8"?>
<!DOCTYPE svg PUBLIC "-//W3C//DTD SVG 1.1//EN" "http://www.w3.org/Graphics/SVG/1.1/DTD/svg11.dtd">
<!-- Creator: CorelDRAW X7 -->
<svg xmlns="http://www.w3.org/2000/svg" xml:space="preserve" width="0.228358in" height="0.262059in" version="1.1" style="shape-rendering:geometricPrecision; text-rendering:geometricPrecision; image-rendering:optimizeQuality; fill-rule:evenodd; clip-rule:evenodd"
viewBox="0 0 13 15"
 xmlns:xlink="http://www.w3.org/1999/xlink">
 <defs>
  <style type="text/css">
   <![CDATA[
    .fil0 {fill:#020200;fill-rule:nonzero}
    .fil3 {fill:#525E26;fill-rule:nonzero}
    .fil2 {fill:#756B3D;fill-rule:nonzero}
    .fil4 {fill:#B3573B;fill-rule:nonzero}
    .fil1 {fill:#F9AD24;fill-rule:nonzero}
   ]]>
  </style>
 </defs>
 <g id="__x0023_Layer_x0020_1">
  <metadata id="CorelCorpID_0Corel-Layer"/>
  <g id="_145756832336">
   <path class="fil0" d="M5 6c0,-1 0,-1 -1,-2 0,0 -1,-1 -1,-2 0,0 0,0 1,0 0,0 0,0 0,0 0,1 1,1 1,2 0,0 1,1 1,1 0,0 0,0 0,0 0,-1 0,-1 1,-1 0,0 1,-1 1,-1 1,-1 3,-1 4,-2 0,0 1,0 1,-1 0,0 0,0 0,0 0,0 0,0 0,0 0,1 0,2 0,2 0,1 0,2 0,2 0,1 0,2 -1,2 0,0 0,1 0,1 1,1 1,2 0,2 0,2 0,3 -1,4 0,1 0,1 -1,1 0,1 -1,1 -2,1 0,0 0,0 -1,0 0,0 0,0 -1,0 -1,1 -2,0 -3,0 0,0 0,-1 0,-1 -1,0 -1,-1 -2,-1 0,-1 -1,-2 -1,-3 0,0 0,-1 0,-2 0,0 0,-1 1,-2 0,0 1,-1 2,-1 0,0 1,1 1,1 0,0 1,0 1,0 0,0 0,0 0,0zm2 8l0 0c0,0 1,1 2,1 0,0 1,0 1,-1 1,0 1,-1 1,-2 0,0 1,-1 1,-1 0,-2 0,-3 0,-4 0,-1 -1,-1 -1,-2 -1,0 -2,0 -2,0 -1,0 -1,0 -1,1 -1,0 -1,0 -1,0 -1,1 -2,1 -3,0 0,0 -1,0 -2,0 0,0 0,0 0,0 -1,0 -1,1 -1,1 -1,1 -1,2 0,3 0,1 0,2 1,2 1,2 2,3 3,3 0,0 1,0 1,0 0,-1 0,-1 0,-1 0,0 1,0 1,0zm3 -9l0 0c0,-1 2,-3 2,-4 0,0 0,0 0,0 -1,1 -2,1 -3,2 0,0 -1,0 -1,0 -1,1 -1,1 -1,2 -1,0 -1,1 -1,1 1,0 1,0 1,0 0,0 0,0 1,-1 0,0 1,0 2,0zm3 -4l0 0c0,0 0,0 0,0 0,1 -1,1 -1,1 0,1 -1,2 -2,2 0,1 0,1 0,1 0,0 1,0 1,0 0,0 1,1 1,1 0,0 0,0 0,0 0,-1 0,-1 0,-1 1,-1 1,-2 1,-3 0,0 0,0 0,-1zm-10 1l0 0c1,1 1,1 1,1 0,1 0,1 1,1 0,1 0,1 0,1 0,1 0,1 1,1 0,0 0,-1 0,-1 -1,-1 -1,-2 -2,-3 0,0 0,0 0,0 0,0 0,0 -1,0z"/>
   <path class="fil1" d="M7 14c0,0 -1,0 -1,0 0,0 0,0 0,1 0,0 -1,0 -1,0 -1,0 -2,-1 -3,-3 -1,0 -1,-1 -1,-2 -1,-1 -1,-2 0,-3 0,0 0,-1 1,-1 0,0 0,0 0,0 1,0 2,0 2,0 1,1 2,1 3,0 0,0 0,0 1,0 0,-1 0,-1 1,-1 0,0 1,0 2,0 0,1 1,1 1,2 0,1 0,2 0,4 0,0 -1,1 -1,1 0,1 0,2 -1,2 0,1 -1,1 -1,1 -1,0 -2,-1 -2,-1zm0 -7l0 0c0,0 -1,0 -1,0 0,0 -1,0 -1,0 1,0 1,0 2,0 0,0 0,0 0,0z"/>
   <path class="fil2" d="M10 5c-1,0 -2,0 -2,0 -1,1 -1,1 -1,1 0,0 0,0 -1,0 0,0 0,-1 1,-1 0,-1 0,-1 1,-2 0,0 1,0 1,0 1,-1 2,-1 3,-2 0,0 0,0 0,0 0,1 -2,3 -2,4z"/>
   <path class="fil3" d="M13 1c0,1 0,1 0,1 0,1 0,2 -1,3 0,0 0,0 0,1 0,0 0,0 0,0 0,0 -1,-1 -1,-1 0,0 -1,0 -1,0 0,0 0,0 0,-1 1,0 2,-1 2,-2 0,0 1,0 1,-1 0,0 0,0 0,0z"/>
   <path class="fil4" d="M3 2c1,0 1,0 1,0 0,0 0,0 0,0 1,1 1,2 2,3 0,0 0,1 0,1 -1,0 -1,0 -1,-1 0,0 0,0 0,-1 -1,0 -1,0 -1,-1 0,0 0,0 -1,-1z"/>
   <path class="fil0" d="M7 7c0,0 0,0 0,0 -1,0 -1,0 -2,0 0,0 1,0 1,0 0,0 1,0 1,0z"/>
  </g>
 </g>
</svg>
