<?xml version="1.0" encoding="UTF-8"?>
<!DOCTYPE svg PUBLIC "-//W3C//DTD SVG 1.1//EN" "http://www.w3.org/Graphics/SVG/1.1/DTD/svg11.dtd">
<!-- Creator: CorelDRAW X7 -->
<svg xmlns="http://www.w3.org/2000/svg" xml:space="preserve" width="0.564858in" height="0.490713in" version="1.1" style="shape-rendering:geometricPrecision; text-rendering:geometricPrecision; image-rendering:optimizeQuality; fill-rule:evenodd; clip-rule:evenodd"
viewBox="0 0 91 79"
 xmlns:xlink="http://www.w3.org/1999/xlink">
 <defs>
  <style type="text/css">
   <![CDATA[
    .fil0 {fill:#020200;fill-rule:nonzero}
    .fil4 {fill:#976B58;fill-rule:nonzero}
    .fil2 {fill:#E55E2D;fill-rule:nonzero}
    .fil5 {fill:#EC1B23;fill-rule:nonzero}
    .fil1 {fill:#EE8628;fill-rule:nonzero}
    .fil3 {fill:#EF9D1E;fill-rule:nonzero}
    .fil6 {fill:#F1DE4E;fill-rule:nonzero}
   ]]>
  </style>
 </defs>
 <g id="__x0023_Layer_x0020_1">
  <metadata id="CorelCorpID_0Corel-Layer"/>
  <g id="_145842408080">
   <path class="fil0" d="M19 23c0,-1 0,-1 1,-2 0,0 1,-1 1,-1 1,-1 1,-1 1,-2 0,0 0,-1 1,-1 -2,-2 -4,-4 -6,-5 -2,-1 -3,-2 -4,-3 -1,-1 -2,-2 -4,-3 0,0 0,0 0,0 0,0 -1,0 -2,0 0,1 0,1 0,2 1,1 2,2 3,3 1,0 1,1 2,2 1,1 1,1 0,2 0,1 -1,2 -3,2 -1,0 -2,0 -3,-1 -1,-1 -2,-2 -3,-3 -2,-1 -3,-3 -3,-5 0,-2 0,-3 1,-5 1,-1 2,-1 3,-2 1,-1 2,-1 4,-1 1,0 2,1 4,1 1,1 2,2 2,3 2,1 4,3 6,4 1,1 2,2 3,3 1,0 2,1 3,2 1,0 1,0 2,0 0,-2 0,-3 1,-4 1,0 2,-1 3,-1 1,3 3,5 4,7 1,3 2,5 3,7 1,1 1,1 2,2 1,1 2,2 4,2 2,1 4,2 7,3 2,1 4,2 6,3 1,0 2,1 3,2 2,2 5,3 7,6 1,1 2,3 3,4 3,5 5,9 7,14 2,3 3,7 6,10 2,3 4,6 6,9 0,0 0,1 1,1 0,0 0,1 0,1 -1,0 -1,0 -1,0 -3,-3 -6,-4 -10,-6 -2,-2 -5,-3 -7,-5 -3,-1 -5,-3 -8,-4 -2,-1 -4,-2 -7,-4 -1,-1 -3,-2 -4,-3 -1,-1 -2,-1 -3,-2 -2,-3 -4,-5 -6,-8 -1,-2 -3,-4 -4,-5 -1,-3 -3,-6 -5,-9 0,-1 -1,-2 -2,-3 -1,-1 -1,-1 -1,-1 -4,-2 -8,-3 -12,-5 -1,0 -2,0 -2,-1zm62 45l0 0c0,0 0,0 0,0 0,0 0,-1 -1,-1 -2,-3 -4,-6 -6,-8 -1,-2 -2,-4 -4,-6 0,-1 -1,-2 -2,-3 -1,-2 -2,-3 -4,-5 -1,-2 -3,-3 -4,-5 -2,-1 -3,-2 -4,-3 -1,-1 -3,-1 -4,-2 -1,-1 -3,-2 -4,-3 -3,-2 -5,-3 -8,-4 0,0 0,0 0,0 -1,0 0,1 0,1 1,1 1,1 2,2 2,2 3,3 4,4 1,1 2,2 3,3 1,1 3,3 4,4 2,2 4,4 6,6 2,2 4,4 6,6 2,1 4,3 6,5 1,0 1,0 1,1 2,1 3,2 4,3 0,1 1,1 2,2 1,1 2,2 2,3 1,0 1,0 1,0zm3 5l0 0c0,0 0,0 0,0 -2,-2 -3,-4 -6,-6 0,0 0,-1 0,-1 -1,-1 -3,-3 -4,-4 -3,-3 -6,-5 -9,-8 -2,-1 -4,-3 -6,-5 -2,-2 -4,-4 -6,-5 0,-1 0,-1 0,-1 -2,-1 -3,-3 -4,-4 -2,-2 -3,-3 -5,-4 0,-1 -1,-2 -2,-2 -1,-2 -2,-3 -3,-4 0,0 0,0 0,0 0,0 -1,0 -1,1 0,0 0,0 0,0 2,2 3,4 4,6 2,3 4,6 6,8 2,2 4,4 6,6 3,3 6,5 9,7 2,2 4,4 6,5 1,1 2,2 4,3 1,1 3,2 5,4 2,1 4,2 6,4 0,0 0,0 0,0zm0 -2l0 0c0,0 0,0 0,0 0,-1 0,-1 0,-1 -2,-3 -3,-5 -4,-7 -1,-2 -2,-3 -3,-5 -1,-1 -2,-3 -2,-5 -2,-3 -4,-7 -6,-10 -2,-2 -3,-4 -5,-5 -1,-1 -2,-2 -3,-2 -1,-2 -3,-3 -5,-4 -3,-1 -6,-2 -10,-4 -1,0 -2,-1 -4,-1 0,-1 -1,-1 -1,0 0,0 0,0 0,0 3,2 5,3 8,5 1,1 3,1 4,2 2,1 3,3 5,4 0,0 0,0 0,0 1,1 2,2 3,3 2,1 3,2 4,3 1,2 3,3 4,5 2,3 4,7 7,10 2,4 4,7 7,10 0,1 1,1 1,2zm-59 -57l0 0c0,-1 0,-1 0,-1 -3,-2 -5,-4 -8,-6 -1,-1 -2,-2 -4,-3 -1,-1 -2,-2 -4,-2 -2,-1 -3,-1 -5,0 -3,1 -5,5 -2,9 2,2 4,3 6,5 0,0 0,0 0,0 1,0 3,0 3,-1 1,-1 0,-1 -1,-2 0,-1 -1,-1 -2,-2 -1,-1 -1,-1 -2,-2 -1,-1 -1,-3 1,-4 1,0 2,0 3,0 1,1 2,2 3,2 1,2 3,3 5,4 0,1 0,1 0,1 1,1 3,1 4,2 1,1 2,2 3,2 0,-1 0,-1 0,-2zm13 17l0 0c0,0 -1,0 -1,0 0,1 0,1 1,1 0,1 0,2 1,3 2,4 4,8 7,12 1,1 2,2 3,3 1,2 3,4 5,5 0,1 1,1 1,1 2,2 4,3 6,4 2,2 5,3 7,4 3,2 5,3 8,5 1,0 2,1 3,1 0,0 -1,0 -1,-1 -1,-1 -3,-2 -5,-3 -2,-2 -4,-3 -6,-5 -3,-2 -5,-3 -7,-5 -4,-4 -9,-7 -12,-11 -2,-2 -4,-4 -5,-6 -2,-2 -3,-5 -5,-7 0,-1 0,-1 0,-1zm-1 -5l0 0c-3,-2 -4,-4 -6,-5 -2,-1 -3,-2 -4,-3 -1,0 -1,-1 -2,-1 -1,1 -2,1 -2,2 0,0 0,1 0,1 4,2 8,4 12,7 1,-1 1,-1 2,-1zm-12 -11l0 0c1,1 1,2 2,2 1,1 2,2 3,3 1,1 3,2 4,3 1,0 1,1 2,1 0,0 1,1 1,1 1,0 1,-1 0,-1 0,-1 -1,-1 -1,-2 -2,-3 -4,-5 -7,-8 0,-1 -2,-1 -3,0 0,0 0,1 -1,1zm4 -4l0 0c0,1 0,2 1,3 1,2 3,3 4,5 1,1 2,3 4,4 0,0 0,1 0,1 -1,-3 -6,-13 -7,-14 -1,0 -1,0 -2,1zm6 16l0 0c-1,0 -1,-1 -1,-1 -4,-2 -7,-3 -11,-5 -2,0 -2,0 -3,2 0,0 0,0 0,0 2,1 5,2 7,2 2,1 5,2 7,3 0,0 0,0 0,0 1,0 1,0 1,-1zm6 -1l0 0c0,-1 -1,-2 -2,-2 -1,2 -3,3 -4,5 0,1 1,1 1,2 1,-1 2,-2 3,-3 0,-1 1,-1 2,-2z"/>
   <path class="fil1" d="M81 68c0,0 0,0 -1,0 0,-1 -1,-2 -2,-3 -1,-1 -2,-1 -2,-2 -1,-1 -2,-2 -4,-3 0,-1 0,-1 -1,-1 -2,-2 -4,-4 -6,-5 -2,-2 -4,-4 -6,-6 -2,-2 -4,-4 -6,-6 -1,-1 -3,-3 -4,-4 -1,-1 -2,-2 -3,-3 -1,-1 -2,-2 -4,-4 -1,-1 -1,-1 -2,-2 0,0 -1,-1 0,-1 0,0 0,0 0,0 3,1 5,2 8,4 1,1 3,2 4,3 1,1 3,1 4,2 1,1 2,2 4,3 1,2 3,3 4,5 2,2 3,3 4,5 1,1 2,2 2,3 2,2 3,4 4,6 2,2 4,5 6,8 1,0 1,1 1,1 0,0 0,0 0,0z"/>
   <path class="fil2" d="M84 73c0,0 0,0 0,0 -2,-2 -4,-3 -6,-4 -2,-2 -4,-3 -5,-4 -2,-1 -3,-2 -4,-3 -2,-1 -4,-3 -6,-5 -3,-2 -6,-4 -9,-7 -2,-2 -4,-4 -6,-6 -2,-2 -4,-5 -6,-8 -1,-2 -2,-4 -4,-6 0,0 0,0 0,0 0,-1 1,-1 1,-1 0,0 0,0 0,0 1,1 2,2 3,4 1,0 2,1 2,2 2,1 3,2 5,4 1,1 2,3 4,4 0,0 0,0 0,1 2,1 4,3 6,5 2,2 4,4 6,5 3,3 6,5 9,8 1,1 3,3 4,4 0,0 0,1 0,1 3,2 4,4 6,6 0,0 0,0 0,0z"/>
   <path class="fil3" d="M84 71c0,-1 -1,-1 -1,-2 -3,-3 -5,-6 -7,-10 -3,-3 -5,-7 -7,-10 -1,-2 -3,-3 -4,-5 -1,-1 -2,-2 -4,-3 -1,-1 -2,-2 -3,-3 0,0 0,0 0,0 -2,-1 -3,-3 -5,-4 -1,-1 -3,-1 -4,-2 -3,-2 -5,-3 -8,-5 0,0 0,0 0,0 0,-1 1,-1 1,0 2,0 3,1 4,1 4,2 7,3 10,4 2,1 4,2 5,4 1,0 2,1 3,2 2,1 3,3 5,5 2,3 4,7 6,10 0,2 1,4 2,5 1,2 2,3 3,5 1,2 2,4 4,7 0,0 0,0 0,1 0,0 0,0 0,0z"/>
   <path class="fil4" d="M25 14c0,1 0,1 0,2 -1,0 -2,-1 -3,-2 -1,-1 -3,-1 -4,-2 0,0 0,0 0,-1 -2,-1 -4,-2 -5,-4 -1,0 -2,-1 -3,-2 -1,0 -2,0 -3,0 -2,1 -2,3 -1,4 1,1 1,1 2,2 1,1 2,1 2,2 1,1 2,1 1,2 0,1 -2,1 -3,1 0,0 0,0 0,0 -2,-2 -4,-3 -6,-5 -3,-4 -1,-8 2,-9 2,-1 3,-1 5,0 2,0 3,1 4,2 2,1 3,2 4,3 3,2 5,4 8,6 0,0 0,0 0,1z"/>
   <path class="fil5" d="M38 31c0,0 0,0 0,1 2,2 3,5 5,7 1,2 3,4 5,6 3,4 8,7 12,11 2,2 4,3 7,5 2,2 4,3 6,5 2,1 4,2 5,3 0,1 1,1 1,1 -1,0 -2,-1 -3,-1 -3,-2 -5,-3 -8,-5 -2,-1 -5,-2 -7,-4 -2,-1 -4,-2 -6,-4 0,0 -1,0 -1,-1 -2,-1 -4,-3 -5,-5 -1,-1 -2,-2 -3,-3 -3,-4 -5,-8 -7,-12 -1,-1 -1,-2 -1,-3 -1,0 -1,0 -1,-1 0,0 1,0 1,0z"/>
   <path class="fil2" d="M37 26c-1,0 -1,0 -2,1 -4,-3 -8,-5 -12,-7 0,0 0,-1 0,-1 0,-1 1,-1 2,-2 1,0 1,1 2,1 1,1 2,2 4,3 2,1 3,3 6,5z"/>
   <path class="fil1" d="M25 15c1,0 1,-1 1,-1 1,-1 3,-1 3,0 3,3 5,5 7,8 0,1 1,1 1,2 1,0 1,1 0,1 0,0 -1,-1 -1,-1 -1,0 -1,-1 -2,-1 -1,-1 -3,-2 -4,-3 -1,-1 -2,-2 -3,-3 -1,0 -1,-1 -2,-2z"/>
   <path class="fil3" d="M29 11c1,-1 1,-1 2,-1 1,1 6,11 7,14 0,0 0,-1 0,-1 -2,-1 -3,-3 -4,-4 -1,-2 -3,-3 -4,-5 -1,-1 -1,-2 -1,-3z"/>
   <path class="fil5" d="M35 27c0,1 0,1 -1,1 0,0 0,0 0,0 -2,-1 -5,-2 -7,-3 -2,0 -5,-1 -7,-2 0,0 0,0 0,0 1,-2 1,-2 3,-2 4,2 7,3 11,5 0,0 0,1 1,1z"/>
   <path class="fil6" d="M41 26c-1,1 -2,1 -2,2 -1,1 -2,2 -3,3 0,-1 -1,-1 -1,-2 1,-2 3,-3 4,-5 1,0 2,1 2,2z"/>
  </g>
 </g>
</svg>
