<?xml version="1.0" encoding="UTF-8"?>
<!DOCTYPE svg PUBLIC "-//W3C//DTD SVG 1.1//EN" "http://www.w3.org/Graphics/SVG/1.1/DTD/svg11.dtd">
<!-- Creator: CorelDRAW X7 -->
<svg xmlns="http://www.w3.org/2000/svg" xml:space="preserve" width="0.388811in" height="0.282035in" version="1.1" style="shape-rendering:geometricPrecision; text-rendering:geometricPrecision; image-rendering:optimizeQuality; fill-rule:evenodd; clip-rule:evenodd"
viewBox="0 0 766 556"
 xmlns:xlink="http://www.w3.org/1999/xlink">
 <defs>
  <style type="text/css">
   <![CDATA[
    .fil4 {fill:#F9C943}
    .fil0 {fill:black;fill-rule:nonzero}
    .fil2 {fill:#F19200;fill-rule:nonzero}
    .fil1 {fill:#F1B138;fill-rule:nonzero}
    .fil3 {fill:#F9C943;fill-rule:nonzero}
   ]]>
  </style>
 </defs>
 <g id="__x0023_Layer_x0020_1">
  <metadata id="CorelCorpID_0Corel-Layer"/>
  <g id="_145756849712">
   <path class="fil0" d="M762 161c1,-37 -11,-81 -30,-105 -36,-49 -80,-57 -111,-56 -30,2 -53,12 -65,18 -20,10 -45,34 -55,67 -7,26 -3,52 11,77 13,21 42,43 77,51 -33,-2 -80,-19 -135,-79 -48,-53 -122,-122 -209,-118 -64,3 -106,37 -130,64 -41,48 -41,112 -51,124 -32,39 -64,98 -64,98l30 -13c24,-11 72,-20 105,-19 9,0 33,19 33,19 41,36 56,68 74,105l3 6c3,6 6,13 9,20 20,46 50,117 154,133 13,2 26,3 37,2 54,-2 97,-31 129,-85 0,0 28,-51 30,-56 11,-25 14,-52 13,-77 8,2 17,2 27,2 34,-2 67,-18 90,-45 25,-30 36,-69 31,-110l-3 -23z"/>
   <g>
    <path class="fil1" d="M587 279c-53,-70 -145,-55 -173,8 -16,38 -5,92 34,114 29,16 66,20 97,-19 19,-26 16,-72 -12,-97 -31,-29 -68,-13 -81,12 -10,18 -10,51 20,64 19,8 36,-7 37,-22 1,-13 -9,-25 -19,-23 -10,1 -13,13 -5,19 5,3 1,8 -5,5 -13,-8 -11,-30 6,-34 20,-3 35,16 32,36 -4,27 -29,37 -53,26 -21,-9 -36,-41 -22,-74 20,-43 74,-46 108,-3 39,49 7,137 -79,133 -61,-3 -116,-53 -153,-119 -16,-28 -105,-188 -235,-95 -24,18 -44,40 -59,68 31,-13 96,-21 125,-20 70,2 105,77 144,123 78,89 143,108 201,101 122,-15 127,-156 92,-203z"/>
    <path class="fil2" d="M723 62c-52,-70 -126,-52 -162,-34 -35,19 -72,73 -39,128 17,29 76,66 135,37 33,-16 51,-75 16,-108 -30,-29 -70,-32 -96,-4 -18,19 -14,49 5,61 16,9 31,5 34,-8 3,-9 -9,-18 -18,-13 -5,2 -10,-6 -3,-10 15,-10 35,4 32,23 -4,29 -36,30 -54,14 -22,-19 -25,-54 1,-79 19,-19 76,-33 112,15 33,43 21,118 -65,138 -36,8 -101,2 -175,-80 -47,-51 -118,-119 -201,-115 -57,3 -96,32 -121,61 -28,32 -45,99 -43,97 27,-26 60,-46 96,-59 18,-6 40,-11 74,-13 97,-4 170,52 220,111 36,-9 77,-2 112,30 86,16 133,-10 156,-52 4,-9 8,-19 11,-30 4,-37 -9,-85 -27,-110z"/>
    <path class="fil3" d="M313 421c-41,-45 -82,-128 -138,-141 45,40 61,75 80,115 23,47 42,129 155,147 71,11 120,-20 154,-78 -84,57 -193,21 -251,-43z"/>
    <path class="fil2" d="M391 306c-26,-62 -85,-145 -198,-129 74,18 116,90 127,109 23,45 57,83 94,104 -12,-18 -23,-57 -23,-84z"/>
    <path class="fil3" d="M245 123c-77,4 -122,30 -167,80 50,-36 104,-42 146,-40 78,4 145,65 174,115 13,-23 35,-41 62,-51 -19,-24 -97,-109 -215,-104z"/>
    <path class="fil4" d="M594 266c94,9 132,-15 159,-81 12,95 -65,156 -138,140 -3,-24 -11,-45 -21,-59z"/>
   </g>
  </g>
 </g>
</svg>
