<?xml version="1.0" encoding="UTF-8"?>
<!DOCTYPE svg PUBLIC "-//W3C//DTD SVG 1.1//EN" "http://www.w3.org/Graphics/SVG/1.1/DTD/svg11.dtd">
<!-- Creator: CorelDRAW X7 -->
<svg xmlns="http://www.w3.org/2000/svg" xml:space="preserve" width="0.330539in" height="0.321827in" version="1.1" style="shape-rendering:geometricPrecision; text-rendering:geometricPrecision; image-rendering:optimizeQuality; fill-rule:evenodd; clip-rule:evenodd"
viewBox="0 0 39 38"
 xmlns:xlink="http://www.w3.org/1999/xlink">
 <defs>
  <style type="text/css">
   <![CDATA[
    .fil0 {fill:#020002;fill-rule:nonzero}
    .fil1 {fill:#CE793C;fill-rule:nonzero}
    .fil3 {fill:#D0452A;fill-rule:nonzero}
    .fil2 {fill:#EE622E;fill-rule:nonzero}
    .fil4 {fill:#F1C744;fill-rule:nonzero}
    .fil5 {fill:#FE9F24;fill-rule:nonzero}
   ]]>
  </style>
 </defs>
 <g id="__x0023_Layer_x0020_1">
  <metadata id="CorelCorpID_0Corel-Layer"/>
  <g id="_145637520416">
   <path class="fil0" d="M38 26c0,0 -1,-1 -1,-1 0,-1 -1,-2 -2,-3 -1,-1 -2,-3 -3,-3 -1,-1 -1,-1 -2,-1 0,0 -2,-1 -2,-1 3,-1 3,-4 3,-7 1,-2 1,-4 2,-6 -1,1 -2,1 -3,2 -1,0 -2,1 -3,1 0,1 -2,1 -3,2 1,-2 0,-4 0,-6 -1,1 -2,2 -3,3 0,0 -1,2 -1,2 -1,-1 -2,-2 -3,-3 -1,-1 -1,-1 -2,-2 0,-1 -1,-1 -1,-2 -1,0 -1,-1 -2,-1 1,2 0,5 0,7 0,2 0,4 0,6 -1,0 -2,0 -3,-1 -1,0 -2,0 -2,0 0,0 -2,0 -2,0 1,1 2,2 2,3 1,1 2,2 3,3 -1,0 -2,0 -3,1 -1,0 -1,1 -2,1 -2,1 -3,1 -5,2 2,0 4,2 5,2 2,1 4,2 6,2 -1,1 -2,2 -3,3 0,1 -1,2 -2,2 2,0 3,1 5,0 1,0 2,0 3,0 0,0 0,1 0,2 0,2 0,4 -1,5 1,0 2,-1 4,-1 2,-1 3,-2 4,-4 0,0 2,-3 2,-3 2,2 4,3 6,5 1,1 2,2 2,3 0,-2 -1,-4 -1,-6 0,-1 -1,-2 -1,-4 -1,-1 -2,-2 -2,-3 1,1 2,1 4,1 1,0 2,0 3,0 1,1 2,1 3,1 1,0 2,0 2,0 0,0 -1,0 -1,-1z"/>
   <path class="fil1" d="M34 21c1,2 2,4 3,5 -2,0 -5,-1 -7,-1 -2,0 -4,0 -5,-1 -1,0 -2,-1 -1,-2 0,0 1,-2 1,-2 1,0 3,0 4,1 -1,-1 -3,-1 -4,-1 0,-1 0,-1 0,-1 3,-1 6,0 9,2z"/>
   <path class="fil2" d="M27 15c-1,0 -2,1 -3,2 0,0 0,0 0,-1 1,-1 3,-3 3,-5 0,1 -2,3 -4,5 0,0 0,0 0,0 0,-2 1,-3 2,-4 -1,1 -2,2 -3,3 0,0 0,0 0,0 0,-6 8,-8 10,-10 -1,1 -1,3 -1,5 -1,2 -1,4 -3,6 0,0 -2,2 -3,2 -1,0 -1,0 -1,-1 0,0 2,-2 3,-2z"/>
   <path class="fil3" d="M28 28c1,3 1,5 2,8 -1,-3 -5,-4 -6,-7 -1,-1 -1,-1 0,-2 0,-1 0,-2 -1,-3 1,1 2,1 3,1 0,1 1,2 2,3z"/>
   <path class="fil4" d="M24 19c0,2 -1,4 -3,4 -3,0 -4,-1 -4,-3 -1,-2 1,-4 3,-4 2,0 4,1 4,3zm-3 3l0 0c1,0 2,-1 2,-2 0,-1 -1,-2 -2,-2 -2,0 -3,1 -2,2 0,1 1,2 2,2z"/>
   <path class="fil1" d="M24 4c0,1 0,3 -1,6 0,1 -1,1 -1,2 0,-2 0,-4 0,-5 0,1 0,3 -1,4 0,-1 0,-1 -1,-2 1,-3 3,-4 4,-5z"/>
   <path class="fil2" d="M23 25c0,0 0,1 0,2 0,2 -1,3 -2,5 0,1 -1,2 -2,3 -1,0 -5,2 -5,2 2,-4 -1,-10 4,-14 0,0 0,0 1,0 -1,2 -2,4 -2,5 0,0 1,-2 2,-4 0,0 1,0 1,0 -1,2 -2,6 -3,8 2,-2 3,-6 4,-8 0,0 1,-1 1,0 0,0 1,0 1,1z"/>
   <path class="fil5" d="M22 20c1,1 0,2 -1,2 -1,0 -2,-1 -2,-2 0,-1 1,-2 2,-2 1,0 1,1 1,2zm-1 1l0 0c0,0 1,0 1,-1 0,0 -1,-1 -1,-1 -1,0 -1,1 -1,1 0,1 1,1 1,1z"/>
   <path class="fil1" d="M21 20c0,0 0,1 0,1 0,0 0,-1 0,-1 -1,0 0,0 0,0 0,0 0,0 0,0z"/>
   <path class="fil3" d="M13 2c4,5 8,6 8,13 0,0 -1,0 -1,0 0,-1 -1,-3 -1,-4 0,1 0,3 1,4 -1,0 -1,1 -1,1 -2,-3 -3,-7 -3,-8 0,2 1,6 2,8 0,0 0,0 0,0 -2,-2 -3,-4 -4,-5 1,2 2,4 3,6 0,0 0,0 0,1 -7,-2 -3,-13 -4,-16z"/>
   <path class="fil1" d="M17 22c0,0 0,1 0,1 -6,5 -13,0 -15,-1 4,-1 9,-6 14,-4 0,0 0,1 0,1 -2,0 -4,1 -5,1 1,0 3,0 5,0 0,0 0,0 0,1 -3,0 -7,1 -8,1 2,0 6,-1 8,-1 0,0 0,1 1,1 -3,1 -5,1 -6,1 1,0 4,0 6,-1z"/>
   <path class="fil3" d="M14 26c0,1 0,2 0,3 -2,2 -5,2 -6,2 2,-2 3,-4 4,-5 1,0 1,0 2,-1 0,1 -2,4 -2,4 0,0 1,-1 2,-3z"/>
   <path class="fil2" d="M12 15c1,0 1,1 1,1 -1,0 -3,-1 -3,-1 0,0 1,1 2,2 0,0 -1,0 -1,0 -2,-1 -3,-3 -4,-4 1,0 4,1 5,2z"/>
  </g>
 </g>
</svg>
