<?xml version="1.0" encoding="UTF-8"?>
<!DOCTYPE svg PUBLIC "-//W3C//DTD SVG 1.1//EN" "http://www.w3.org/Graphics/SVG/1.1/DTD/svg11.dtd">
<!-- Creator: CorelDRAW X7 -->
<svg xmlns="http://www.w3.org/2000/svg" xml:space="preserve" width="0.270965in" height="0.27911in" version="1.1" style="shape-rendering:geometricPrecision; text-rendering:geometricPrecision; image-rendering:optimizeQuality; fill-rule:evenodd; clip-rule:evenodd"
viewBox="0 0 278 286"
 xmlns:xlink="http://www.w3.org/1999/xlink">
 <defs>
  <style type="text/css">
   <![CDATA[
    .fil0 {fill:black;fill-rule:nonzero}
    .fil3 {fill:#714223;fill-rule:nonzero}
    .fil4 {fill:#7C4524;fill-rule:nonzero}
    .fil1 {fill:#A0603F;fill-rule:nonzero}
    .fil5 {fill:#B37149;fill-rule:nonzero}
    .fil2 {fill:#B57253;fill-rule:nonzero}
   ]]>
  </style>
 </defs>
 <g id="__x0023_Layer_x0020_1">
  <metadata id="CorelCorpID_0Corel-Layer"/>
  <g id="_145750409152">
   <path class="fil0" d="M276 128c-2,-6 -4,-11 -6,-16 -4,-10 -8,-21 -15,-29 -7,-9 -16,-17 -26,-22 -11,-5 -22,-7 -34,-7 -18,0 -35,2 -51,13 0,0 -5,3 -4,4 -4,-4 -23,-34 -86,-27 -2,0 -5,0 -7,1 -3,0 -2,-1 -3,-4 -2,-5 -3,-9 -5,-13 -4,-8 -8,-17 -13,-24 -1,-2 -1,-5 -3,-4 -3,1 -6,2 -8,4 -6,2 -10,6 -15,10 1,-1 27,20 29,38 -13,7 -22,23 -24,30 -7,21 -6,41 -1,60 2,8 5,16 9,24 2,2 4,3 7,3 4,1 4,6 6,10 7,15 18,27 31,38 12,9 25,17 40,22 3,1 14,2 16,5 4,5 6,12 11,17 15,15 15,25 15,25 3,-3 6,-8 25,-13 16,-5 28,-16 39,-27 13,-13 23,-28 31,-44 3,-7 6,-14 8,-21 1,-3 0,-5 4,-5 9,0 21,-6 27,-14 6,-10 6,-22 3,-34z"/>
   <g>
    <path class="fil1" d="M149 271c-10,2 -21,-16 -28,-27 9,1 17,2 29,8 -2,-18 22,-37 18,-90 30,9 52,13 69,14 -8,31 -41,85 -88,95z"/>
    <path class="fil2" d="M141 235c-25,12 -93,-15 -112,-66 30,-4 90,-34 118,-59 25,42 15,115 -6,125z"/>
    <path class="fil3" d="M238 170c-7,0 -15,-1 -24,-3 6,-3 13,-6 20,-10 1,4 3,9 4,13z"/>
    <path class="fil3" d="M260 165c-5,2 -11,4 -18,5 -1,-5 -2,-10 -4,-16 6,-4 12,-8 18,-13 2,8 4,16 4,24z"/>
    <path class="fil3" d="M264 162c0,-7 -1,-15 -4,-24 3,-3 6,-6 9,-9 3,15 2,28 -5,33z"/>
    <path class="fil3" d="M233 153c-8,4 -15,8 -23,12 -1,-7 -4,-14 -6,-21 6,-3 13,-7 20,-12 4,7 6,14 9,21z"/>
    <path class="fil3" d="M206 166c-9,-2 -18,-5 -28,-9 6,-3 14,-6 22,-11 2,7 4,13 6,20z"/>
    <path class="fil4" d="M30 163c-5,1 -9,0 -11,-1 -3,-6 -6,-12 -8,-19 6,1 12,2 18,3 0,5 0,11 1,17z"/>
    <path class="fil3" d="M175 154l-2 1c-2,-1 -4,-1 -6,-2 0,-6 -1,-12 -3,-18 5,6 8,13 11,19z"/>
    <path class="fil4" d="M33 162c0,-5 0,-10 -1,-16 8,2 15,4 22,6 0,1 0,2 1,4 -8,2 -16,5 -22,6z"/>
    <path class="fil3" d="M199 143c-8,4 -15,7 -21,10 -4,-7 -8,-15 -13,-22 7,-3 14,-6 23,-11 4,8 8,15 11,23z"/>
    <path class="fil3" d="M255 137c-6,5 -12,9 -18,13 -2,-6 -5,-13 -9,-20 7,-5 13,-10 19,-15 4,8 6,15 8,22z"/>
    <path class="fil3" d="M66 151c-2,-1 -5,-2 -8,-2 0,-6 0,-12 0,-18 7,1 15,3 22,5 0,3 0,6 0,9 -5,2 -9,4 -14,6z"/>
    <path class="fil3" d="M84 143c0,-2 0,-4 0,-6 2,1 5,2 8,2 -3,2 -6,3 -8,4z"/>
    <path class="fil3" d="M54 148c-7,-2 -14,-4 -22,-5 0,-6 0,-12 0,-18 7,2 15,3 22,5 0,6 0,12 0,18z"/>
    <path class="fil3" d="M223 129c-7,4 -14,8 -21,12 -3,-7 -7,-15 -12,-22 7,-4 14,-8 20,-13 5,8 9,15 13,23z"/>
    <path class="fil3" d="M29 142c-6,-1 -13,-2 -19,-3 -1,-6 -2,-12 -3,-17 7,0 14,1 21,3 0,5 0,11 1,17z"/>
    <path class="fil3" d="M268 124c-3,3 -6,7 -9,10 -2,-7 -5,-14 -9,-21 4,-3 7,-6 10,-10 3,7 6,14 8,21z"/>
    <path class="fil4" d="M103 133c-2,1 -4,3 -7,4 -4,-1 -8,-3 -12,-4 0,-6 0,-12 0,-18 7,2 13,3 19,5 0,5 0,9 0,13z"/>
    <path class="fil4" d="M107 131c0,-3 0,-6 0,-10 3,2 7,3 10,4 -3,2 -7,4 -10,6z"/>
    <path class="fil4" d="M80 132c-7,-2 -14,-4 -22,-5 0,-6 0,-12 0,-18 8,1 15,3 23,5 -1,6 -1,12 -1,18z"/>
    <path class="fil3" d="M185 117c-7,4 -15,8 -22,11 -2,-6 -5,-13 -8,-19 5,-3 12,-6 18,-10 4,6 9,12 12,18z"/>
    <path class="fil3" d="M246 111c-6,6 -13,11 -19,15 -4,-7 -8,-15 -13,-22 6,-5 13,-10 19,-15 5,7 9,15 13,22z"/>
    <path class="fil3" d="M126 119c-2,1 -3,2 -5,3 -4,-1 -9,-3 -14,-5 0,-6 0,-12 1,-18 6,2 12,4 18,6 0,4 0,9 0,14z"/>
    <path class="fil4" d="M54 126c-7,-2 -14,-3 -22,-4 1,-6 1,-12 1,-18 7,1 14,2 21,4 0,6 0,12 0,18z"/>
    <path class="fil4" d="M29 121c-8,-1 -15,-2 -22,-3 0,-6 0,-11 0,-17 8,1 15,2 22,3 0,5 0,11 0,17z"/>
    <path class="fil3" d="M129 116c1,-3 1,-7 1,-10 3,1 6,2 8,3 -2,2 -5,5 -9,7z"/>
    <path class="fil3" d="M103 116c-6,-2 -12,-3 -18,-5 0,-6 0,-12 1,-17 6,1 12,3 18,4 0,6 -1,12 -1,18z"/>
    <path class="fil3" d="M208 102c-7,5 -13,9 -20,13 -4,-6 -8,-12 -13,-18 7,-3 13,-8 19,-12 5,5 9,11 14,17z"/>
    <path class="fil3" d="M257 99c-2,3 -6,7 -9,10 -4,-8 -8,-15 -13,-22 2,-3 5,-5 7,-8 6,6 11,13 15,20z"/>
    <path class="fil4" d="M142 105c-4,-1 -7,-2 -12,-3 1,-5 1,-10 1,-14 6,2 11,4 16,6 1,1 1,2 1,3 -1,3 -3,5 -6,8z"/>
    <path class="fil3" d="M81 110c-7,-2 -15,-4 -22,-5 0,-6 0,-11 1,-17 7,2 15,3 22,5 0,5 -1,11 -1,17z"/>
    <path class="fil3" d="M55 104c-7,-2 -14,-3 -21,-4 0,-6 0,-11 1,-16 7,1 14,2 21,3 0,6 -1,11 -1,17z"/>
    <path class="fil4" d="M127 100c-6,-1 -12,-3 -19,-5 1,-5 1,-10 2,-15 6,2 12,4 18,6 -1,5 -1,10 -1,14z"/>
    <path class="fil3" d="M230 85c-6,5 -12,10 -19,15 -4,-6 -9,-12 -13,-18 6,-4 12,-9 17,-15 5,6 10,12 15,18z"/>
    <path class="fil3" d="M30 99c-8,-1 -15,-1 -22,-2 1,-6 2,-11 4,-17 6,1 12,2 19,3 0,5 -1,11 -1,16z"/>
    <path class="fil4" d="M105 94c-6,-1 -12,-3 -19,-4 1,-6 2,-11 2,-16 6,1 12,3 18,5 0,5 -1,10 -1,15z"/>
    <path class="fil3" d="M238 76c-2,2 -4,4 -6,6 -5,-6 -10,-12 -15,-17 1,-1 1,-1 1,-1 8,3 14,7 20,12z"/>
    <path class="fil4" d="M83 89c-8,-2 -15,-3 -23,-5 1,-5 2,-11 2,-17 8,2 15,4 23,6 -1,5 -2,10 -2,16z"/>
    <path class="fil4" d="M56 84c-7,-2 -14,-3 -20,-4 0,-6 1,-12 2,-17 7,1 14,2 21,3 -1,6 -2,12 -3,18z"/>
    <path class="fil4" d="M32 79c-7,-1 -13,-2 -18,-2 3,-6 7,-12 12,-16 2,0 5,1 8,1 -1,5 -2,11 -2,17z"/>
    <path class="fil3" d="M59 62c-7,-1 -14,-2 -21,-3 1,-2 1,-4 1,-5 7,-3 14,-4 22,-4 0,4 -1,8 -2,12z"/>
    <path class="fil5" d="M10 14c14,12 22,29 24,36l5 -2c-2,-8 -10,-27 -18,-40 -4,1 -7,4 -11,6z"/>
    <path class="fil3" d="M85 69c0,-2 2,-12 3,-18 -8,-1 -16,-2 -23,-2 -1,5 -1,9 -2,14 8,2 15,4 22,6z"/>
    <path class="fil3" d="M109 56c-5,-2 -11,-3 -17,-4 -1,7 -3,16 -3,18 6,1 12,3 18,5 0,-4 1,-12 2,-19z"/>
    <path class="fil3" d="M110 76c7,2 13,4 18,6 0,-1 1,-7 2,-12 -6,-5 -12,-10 -17,-12 -1,6 -2,14 -3,18z"/>
    <path class="fil3" d="M133 73c0,4 -1,7 -1,11 4,2 9,3 13,5 -3,-5 -7,-10 -12,-16z"/>
    <g>
     <path class="fil3" d="M207 60c-2,0 -7,-1 -13,-1 -3,3 -7,6 -11,10 6,4 11,9 12,10 6,-4 12,-9 17,-15 -2,-1 -3,-3 -5,-4z"/>
     <path class="fil3" d="M189 58c-5,0 -10,1 -16,2 2,2 4,4 7,6 4,-3 6,-5 9,-8z"/>
    </g>
    <g>
     <path class="fil3" d="M176 69c-3,-3 -6,-5 -9,-7 -5,1 -10,4 -15,8 2,3 5,6 8,10 6,-3 12,-7 16,-11z"/>
     <path class="fil3" d="M179 72c-5,4 -10,7 -16,11 5,5 9,10 10,11 6,-3 13,-7 18,-12 -1,-1 -6,-5 -12,-10 0,0 0,0 0,0z"/>
    </g>
    <g>
     <path class="fil3" d="M158 82c-3,-4 -6,-7 -9,-10 -2,1 -3,2 -4,4 -1,0 -1,1 -1,1 3,3 4,6 6,9 3,-2 5,-3 8,-4z"/>
     <path class="fil3" d="M152 89c3,4 4,8 5,10 -2,1 -3,3 -5,5 1,1 1,1 1,1 6,-2 12,-6 17,-9 -1,-1 -5,-6 -10,-12 -3,2 -5,4 -8,5z"/>
    </g>
   </g>
  </g>
 </g>
</svg>
