<?xml version="1.0" encoding="UTF-8"?>
<!DOCTYPE svg PUBLIC "-//W3C//DTD SVG 1.1//EN" "http://www.w3.org/Graphics/SVG/1.1/DTD/svg11.dtd">
<!-- Creator: CorelDRAW X7 -->
<svg xmlns="http://www.w3.org/2000/svg" xml:space="preserve" width="0.537724in" height="0.428453in" version="1.1" style="shape-rendering:geometricPrecision; text-rendering:geometricPrecision; image-rendering:optimizeQuality; fill-rule:evenodd; clip-rule:evenodd"
viewBox="0 0 73 58"
 xmlns:xlink="http://www.w3.org/1999/xlink">
 <defs>
  <style type="text/css">
   <![CDATA[
    .fil2 {fill:#C03620}
    .fil5 {fill:#D05A2F}
    .fil6 {fill:#E5CA9C}
    .fil3 {fill:#F79521}
    .fil4 {fill:#F8DCB2}
    .fil1 {fill:#FBD17A}
    .fil0 {fill:black;fill-rule:nonzero}
   ]]>
  </style>
 </defs>
 <g id="__x0023_Layer_x0020_1">
  <metadata id="CorelCorpID_0Corel-Layer"/>
  <g id="_145753389296">
   <path class="fil0" d="M73 23c0,-4 -4,-7 -7,-7 1,-5 -1,-10 -4,-13 -3,-2 -6,-3 -9,-3 -9,1 -11,6 -11,8 0,1 1,2 2,3 0,1 2,2 3,2l3 -1 -2 -1c-2,-1 -2,-3 -2,-4 1,-2 3,-2 4,-2 0,0 0,0 0,0 2,1 3,2 3,3 1,2 1,4 0,5 -2,4 -7,4 -9,4 -1,0 -3,0 -4,0 0,0 -1,0 -2,0 -2,-1 -4,-1 -7,-1 -3,0 -6,0 -8,2 -3,2 -5,5 -5,9 -1,2 0,4 0,6 0,0 0,0 -1,0 -3,0 -7,0 -10,1 0,2 0,5 0,5 0,0 -3,-1 -5,1 -1,1 -2,2 -2,4 0,4 3,9 7,10 1,0 2,-1 3,-1 0,0 2,-1 2,-1 1,1 2,3 3,4 3,1 7,2 11,2 3,0 6,0 8,-2 2,-1 3,-3 4,-5 2,-3 3,-7 4,-10 1,-1 2,-7 1,-7 -1,0 -4,-1 -5,-1 1,-1 2,-1 3,-1 0,0 1,0 1,0 2,0 4,0 6,1 3,0 6,1 10,1 2,0 4,-1 6,-1 6,-1 10,-7 9,-10zm-64 25l0 0c-3,1 -4,0 -4,-2 -1,-2 0,-4 2,-4 0,0 0,0 0,0 0,0 2,4 2,6zm46 -19l0 0c2,-1 4,-2 5,-4 1,1 1,1 2,1 1,0 1,0 2,-1l1 -1 -1 -1c-1,0 -1,0 -1,-1 0,0 1,0 1,-1 1,0 2,1 3,2 0,1 1,1 0,2 -1,2 -7,4 -12,4z"/>
   <g>
    <path class="fil1" d="M42 36c0,0 0,1 0,2 -8,2 -27,2 -35,0 0,-1 0,-2 0,-3 8,2 27,3 35,1z"/>
    <path class="fil2" d="M41 43c-1,0 -1,1 -1,1 -8,3 -22,2 -31,1 0,-1 0,-1 -1,-2 1,0 2,0 3,-1 1,2 3,2 3,1 1,1 3,1 4,0 0,2 3,1 3,0 1,2 3,1 4,0 1,2 2,1 3,0 1,2 3,2 4,0 1,1 3,1 4,0 0,1 2,0 3,-1 0,1 1,1 2,1z"/>
    <path class="fil3" d="M42 39c-1,1 -1,2 -1,3 -1,0 -2,0 -2,-1 -1,2 -2,2 -3,0 -1,2 -3,2 -4,1 -1,2 -2,2 -4,0 -1,3 -3,2 -3,0 -1,2 -3,2 -4,0 -1,2 -2,2 -3,0 -1,1 -3,2 -3,0 -1,1 -3,2 -4,0 -1,0 -2,0 -3,0 0,-1 0,-2 0,-3 7,1 25,2 34,0z"/>
    <path class="fil1" d="M40 45c-2,4 -4,9 -6,10 -6,4 -15,2 -18,0 -3,-2 -5,-6 -6,-9 8,1 22,1 30,-1z"/>
    <path class="fil4" d="M68 26c2,-3 -1,-6 -4,-6 -1,1 -3,3 -1,4 -2,2 -4,0 -4,-2 1,-3 3,-5 6,-5 3,0 7,2 7,6 0,3 -2,8 -8,9 -10,2 -17,-2 -23,-1 -3,0 -5,2 -5,5 -1,0 -2,0 -3,0 -2,-3 -1,-5 1,-7 5,-3 15,1 20,1 3,0 12,-1 14,-4z"/>
    <path class="fil4" d="M54 14c2,-3 1,-8 -4,-10 0,0 -3,0 -5,3 0,1 0,3 2,5 -2,0 -4,-2 -4,-4 1,-3 3,-5 6,-5 3,0 9,1 9,7 0,3 -1,9 -8,10 -9,2 -14,-2 -20,-1 -7,2 -11,9 -7,17 -1,0 -1,0 -2,0 -4,-6 -2,-14 2,-17 7,-5 13,-1 17,-1 4,1 11,1 14,-4z"/>
    <path class="fil1" d="M11 51c0,-1 -1,-2 -1,-2 0,0 -2,1 -3,1 0,0 -1,-1 -1,-1 -2,-1 -2,-3 -2,-5 0,-2 1,-3 3,-3 0,0 -1,-2 -1,-2 -1,0 -3,1 -4,2 -1,1 -1,2 -1,3 0,2 1,5 3,7 0,0 1,0 2,1 1,0 1,1 3,0 0,0 2,-1 2,-1z"/>
    <path class="fil5" d="M37 34c2,0 3,0 5,1 -2,0 -4,0 -5,0 0,0 0,-1 0,-1z"/>
    <path class="fil4" d="M59 11c1,4 -2,10 -8,12 -10,3 -14,-1 -20,0 -6,2 -8,8 -5,13 -1,0 -1,0 -2,0 -2,-2 -2,-5 -2,-7 0,-4 4,-8 8,-9 7,-1 11,3 20,1 6,-1 8,-5 9,-10z"/>
    <path class="fil6" d="M49 2c3,-2 8,-1 12,2 3,3 5,8 4,12 -3,1 -6,2 -7,6 0,1 1,2 1,3 -1,1 -5,3 -8,3 -6,0 -12,-3 -18,1 -2,1 -3,4 -2,7 -2,0 -3,0 -4,0 -3,-4 -2,-11 4,-12 7,-1 12,3 20,0 8,-3 12,-12 6,-18 -2,-3 -5,-4 -8,-4z"/>
    <path class="fil5" d="M8 35c3,-1 7,-1 10,-1 1,1 1,1 1,2 -4,0 -8,-1 -11,-1z"/>
   </g>
  </g>
 </g>
</svg>
