<?xml version="1.0" encoding="UTF-8"?>
<!DOCTYPE svg PUBLIC "-//W3C//DTD SVG 1.1//EN" "http://www.w3.org/Graphics/SVG/1.1/DTD/svg11.dtd">
<!-- Creator: CorelDRAW X7 -->
<svg xmlns="http://www.w3.org/2000/svg" xml:space="preserve" width="0.176055in" height="0.248177in" version="1.1" style="shape-rendering:geometricPrecision; text-rendering:geometricPrecision; image-rendering:optimizeQuality; fill-rule:evenodd; clip-rule:evenodd"
viewBox="0 0 23 33"
 xmlns:xlink="http://www.w3.org/1999/xlink">
 <defs>
  <style type="text/css">
   <![CDATA[
    .fil1 {fill:#231F20;fill-rule:nonzero}
    .fil4 {fill:#A97C4F;fill-rule:nonzero}
    .fil2 {fill:#B4583B;fill-rule:nonzero}
    .fil5 {fill:#B7722A;fill-rule:nonzero}
    .fil3 {fill:#C5852A;fill-rule:nonzero}
    .fil0 {fill:#F8AD23;fill-rule:nonzero}
   ]]>
  </style>
 </defs>
 <g id="__x0023_Layer_x0020_1">
  <metadata id="CorelCorpID_0Corel-Layer"/>
  <g id="_145640948704">
   <path class="fil0" d="M19 20c0,1 -1,1 -1,1 -1,1 -2,1 -3,1 0,-1 1,-1 1,-1 1,0 1,-1 2,-1 0,0 0,0 1,0z"/>
   <path class="fil0" d="M5 11c-1,0 -1,0 -1,1 0,-1 0,-2 0,-3 1,0 1,0 2,0 0,1 -1,1 -1,2z"/>
   <path class="fil0" d="M3 10c1,1 1,2 -1,3 0,0 0,0 0,0 0,-1 0,-1 0,-2 1,-1 1,-1 1,-1z"/>
   <g>
    <path class="fil1" d="M20 19c-1,0 -1,0 -1,1 1,0 1,0 1,-1zm-16 -12l0 0c0,0 -1,1 -1,2 1,0 1,0 1,0 0,-1 0,-1 0,-2zm-2 23l0 0c-1,0 -1,1 -1,2 1,-1 1,-1 1,-2 0,0 0,0 0,0zm19 -16l0 0c0,0 0,1 1,1 0,-1 0,-1 0,-2 -1,0 -1,0 -1,1zm-15 -9l0 0c0,1 0,1 0,1 1,0 1,0 1,0 1,0 2,-1 2,-2 -1,1 -2,1 -3,1zm-3 5l0 0c0,0 0,0 -1,1 0,1 0,1 0,2 0,0 0,0 0,0 2,-1 2,-2 1,-3zm4 -1l0 0c-1,1 -1,1 -1,2 1,0 1,0 2,0 0,0 1,-1 0,-2 0,0 -1,0 -1,0zm-2 2l0 0c0,-1 1,-1 1,-2 -1,0 -1,0 -2,0 0,1 0,2 0,3 0,-1 0,-1 1,-1zm14 9l0 0c-1,0 -1,0 -1,0 -1,0 -1,1 -2,1 0,0 -1,0 -1,1 1,0 2,0 3,-1 0,0 1,0 1,-1zm-8 -14l0 0c1,0 1,-1 1,-2 0,0 -1,0 -2,0 0,1 0,1 -1,2 1,0 1,0 2,0zm1 8l0 0c1,-1 1,-1 1,-1 0,0 1,-1 1,-1 -1,0 -1,-1 -2,-1 0,0 -1,1 -1,2 0,0 1,0 1,0 0,0 0,0 0,1zm-4 -3l0 0c1,1 2,1 3,1 0,0 0,-1 0,-1 0,-1 -1,-1 -2,-1 0,0 -1,1 -1,1zm13 2l0 0c1,-1 1,-1 0,-2 0,0 0,-1 -1,-1 0,0 0,0 0,0 0,0 -1,1 -1,1 0,1 1,2 2,2zm-1 -4l0 0c-1,-1 -1,-1 -2,-1 0,0 -1,0 -1,0 0,1 0,1 0,1 0,1 1,1 2,2 0,-1 0,-1 1,-2zm-2 -2l0 0c-1,0 -1,-1 -2,-1 -1,1 -1,1 -1,2 0,0 1,0 1,1 1,-1 1,-1 2,-2zm-5 7l0 0c0,1 1,1 1,1 1,0 1,-1 2,-1 0,-1 -1,-1 -2,-2 0,1 -1,1 -1,2zm-9 -5l0 0c1,0 2,-1 2,-1 1,0 1,-1 2,-2 -1,0 -2,0 -3,0 0,1 0,2 -1,3zm14 8l0 0c-1,0 -1,1 -2,1 0,1 0,2 0,2 1,0 2,0 3,-1 -1,-1 -1,-1 -1,-2zm-11 -8l0 0c1,0 1,0 2,0 1,-1 1,-2 2,-2 -1,-1 -2,-1 -2,-1 -1,1 -2,2 -2,3zm9 -3l0 0c-1,-1 -2,-1 -2,-1 -1,0 -2,1 -2,1 0,1 1,1 2,1 1,0 1,-1 2,-1zm5 9l0 0c-1,0 -1,-1 -1,-1 0,1 -1,2 -2,2 1,1 1,2 1,3 1,-1 1,-1 1,-1 1,-2 2,-2 1,-3 0,0 0,0 0,0zm-5 3l0 0c0,-1 1,-1 2,-1 -1,-1 -1,-2 -2,-3 0,1 -1,1 -1,2 0,1 0,1 1,2zm0 -5l0 0c1,0 2,-1 2,-2 0,0 -1,-1 -1,-1 -1,0 -1,1 -2,1 0,1 0,1 0,1 0,0 1,1 1,1zm5 -12l0 0c0,1 0,1 0,2 -1,1 -1,2 -1,2 -1,1 -1,1 -2,1 1,0 2,0 3,-1 1,-1 2,-3 1,-4 0,0 -1,0 -1,0zm-7 11l0 0c1,-1 2,-2 2,-3 0,0 -1,-1 -2,-1 -1,1 -1,1 -2,2 1,1 2,1 2,2zm-2 -2l0 0c0,-1 1,-1 2,-2 -1,-1 -2,-1 -3,-1 0,0 -1,1 -2,2 1,0 2,1 3,1zm8 4l0 0c0,-1 -1,-2 -1,-2 -1,0 -2,1 -2,2 0,1 1,1 1,2 1,-1 2,-1 2,-2zm-5 6l0 0c0,-1 0,-2 0,-3 -1,-1 -2,-2 -3,-3 -1,-1 -3,-2 -4,-2 -2,-1 -4,0 -5,2 -1,1 -1,2 -2,4 0,2 0,3 0,4 0,2 0,3 0,5 0,0 0,1 0,1 1,1 2,2 3,2 2,-1 3,-1 3,-1 2,-1 3,-2 4,-3 2,-2 3,-3 4,-5 0,-1 0,-1 0,-1zm0 3l0 0c-1,1 -1,2 -2,2 -2,2 -3,3 -6,5 -1,0 -2,1 -3,0 -1,0 -1,0 -1,0 -1,1 -1,2 -2,3 0,-1 -1,-1 -1,-1 0,-1 1,-1 1,-2 0,0 0,-1 0,-1 -1,-1 -1,-2 -1,-3 0,-1 0,-2 0,-3 0,-2 0,-4 1,-7 0,0 1,0 1,-1 -1,-2 -1,-3 0,-5 0,-2 1,-4 3,-5 2,-1 3,-1 4,-2 3,0 6,1 8,3 0,0 0,0 0,0 1,0 2,-1 2,-2 0,0 1,-1 1,-2 0,-1 0,-1 0,-2 1,0 2,1 3,1 0,2 -1,3 -2,5 0,0 -1,0 -1,1 -1,0 -1,0 -1,0 0,0 0,0 0,1 1,0 2,1 3,2 1,2 1,4 1,5 -1,3 -3,5 -5,7 -1,1 -2,1 -3,1z"/>
    <path class="fil2" d="M15 20c0,0 0,0 0,1 -1,2 -2,3 -4,5 -1,1 -2,2 -4,3 0,0 -1,0 -3,1 -1,0 -2,-1 -3,-2 0,0 0,-1 0,-1 0,-2 0,-3 0,-5 0,-1 0,-2 0,-4 1,-2 1,-3 2,-4 1,-2 3,-3 5,-2 1,0 3,1 4,2 1,1 2,2 3,3 0,1 0,2 0,3z"/>
    <path class="fil3" d="M20 14c0,1 -1,1 -2,2 0,-1 -1,-1 -1,-2 0,-1 1,-2 2,-2 0,0 1,1 1,2z"/>
    <path class="fil3" d="M12 10c-1,0 -2,-1 -3,-1 1,-1 2,-2 2,-2 1,0 2,0 3,1 -1,1 -2,1 -2,2z"/>
    <path class="fil3" d="M14 12c0,-1 -1,-1 -2,-2 1,-1 1,-1 2,-2 1,0 2,1 2,1 0,1 -1,2 -2,3z"/>
    <path class="fil4" d="M21 1c0,0 1,0 1,0 1,1 0,3 -1,4 -1,1 -2,1 -3,1 1,0 1,0 2,-1 0,0 0,-1 1,-2 0,-1 0,-1 0,-2z"/>
    <path class="fil3" d="M16 13c0,0 -1,-1 -1,-1 0,0 0,0 0,-1 1,0 1,-1 2,-1 0,0 1,1 1,1 0,1 -1,2 -2,2z"/>
    <path class="fil0" d="M16 18c-1,-1 -1,-1 -1,-2 0,-1 1,-1 1,-2 1,1 1,2 2,3 -1,0 -2,0 -2,1z"/>
    <path class="fil3" d="M21 15c0,0 0,0 0,0 1,1 0,1 -1,3 0,0 0,0 -1,1 0,-1 0,-2 -1,-3 1,0 2,-1 2,-2 0,0 0,1 1,1z"/>
    <path class="fil5" d="M16 6c-1,0 -1,1 -2,1 -1,0 -2,0 -2,-1 0,0 1,-1 2,-1 0,0 1,0 2,1z"/>
    <path class="fil3" d="M7 9c0,-1 1,-2 2,-3 0,0 1,0 2,1 -1,0 -1,1 -2,2 -1,0 -1,0 -2,0z"/>
    <path class="fil0" d="M18 17c0,1 0,1 1,2 -1,1 -2,1 -3,1 0,0 0,-1 0,-2 1,0 1,-1 2,-1z"/>
    <path class="fil3" d="M4 9c1,-1 1,-2 1,-3 1,0 2,0 3,0 -1,1 -1,2 -2,2 0,0 -1,1 -2,1z"/>
    <path class="fil0" d="M13 14c0,-1 1,-1 1,-2 1,1 2,1 2,2 -1,0 -1,1 -2,1 0,0 -1,0 -1,-1z"/>
    <path class="fil5" d="M18 7c-1,1 -1,1 -2,2 0,-1 -1,-1 -1,-1 0,-1 0,-1 1,-2 1,0 1,1 2,1z"/>
    <path class="fil5" d="M20 9c-1,1 -1,1 -1,2 -1,-1 -2,-1 -2,-2 0,0 0,0 0,-1 0,0 1,0 1,0 1,0 1,0 2,1z"/>
    <path class="fil5" d="M21 13c-1,0 -2,-1 -2,-2 0,0 1,-1 1,-1 0,0 0,0 0,0 1,0 1,1 1,1 1,1 1,1 0,2z"/>
    <path class="fil0" d="M8 11c0,0 1,-1 1,-1 1,0 2,0 2,1 0,0 0,1 0,1 -1,0 -2,0 -3,-1z"/>
    <path class="fil0" d="M12 14c0,-1 0,-1 0,-1 0,0 -1,0 -1,0 0,-1 1,-2 1,-2 1,0 1,1 2,1 0,0 -1,1 -1,1 0,0 0,0 -1,1z"/>
    <path class="fil5" d="M11 6c-1,0 -1,0 -2,0 1,-1 1,-1 1,-2 1,0 2,0 2,0 0,1 0,2 -1,2z"/>
    <path class="fil0" d="M7 9c0,0 1,0 1,0 1,1 0,2 0,2 -1,0 -1,0 -2,0 0,-1 0,-1 1,-2z"/>
    <path class="fil5" d="M6 5c1,0 2,0 3,-1 0,1 -1,2 -2,2 0,0 0,0 -1,0 0,0 0,0 0,-1z"/>
    <path class="fil5" d="M21 14c0,-1 0,-1 1,-1 0,1 0,1 0,2 -1,0 -1,-1 -1,-1z"/>
   </g>
   <path class="fil3" d="M4 7c0,1 0,1 0,2 0,0 0,0 -1,0 0,-1 1,-2 1,-2z"/>
   <path class="fil3" d="M20 19c0,1 0,1 -1,1 0,-1 0,-1 1,-1z"/>
  </g>
 </g>
</svg>
