<?xml version="1.0" encoding="UTF-8"?>
<!DOCTYPE svg PUBLIC "-//W3C//DTD SVG 1.1//EN" "http://www.w3.org/Graphics/SVG/1.1/DTD/svg11.dtd">
<!-- Creator: CorelDRAW X7 -->
<svg xmlns="http://www.w3.org/2000/svg" xml:space="preserve" width="0.455441in" height="0.423268in" version="1.1" style="shape-rendering:geometricPrecision; text-rendering:geometricPrecision; image-rendering:optimizeQuality; fill-rule:evenodd; clip-rule:evenodd"
viewBox="0 0 85 79"
 xmlns:xlink="http://www.w3.org/1999/xlink">
 <defs>
  <style type="text/css">
   <![CDATA[
    .fil0 {fill:black;fill-rule:nonzero}
    .fil5 {fill:#744E34;fill-rule:nonzero}
    .fil6 {fill:#936D4C;fill-rule:nonzero}
    .fil9 {fill:#D87E2D;fill-rule:nonzero}
    .fil8 {fill:#E5D46B;fill-rule:nonzero}
    .fil3 {fill:#F19233;fill-rule:nonzero}
    .fil4 {fill:#F8BA34;fill-rule:nonzero}
    .fil2 {fill:#FBA63A;fill-rule:nonzero}
    .fil1 {fill:#FBA63B;fill-rule:nonzero}
    .fil7 {fill:#FE9F24;fill-rule:nonzero}
   ]]>
  </style>
 </defs>
 <g id="__x0023_Layer_x0020_1">
  <metadata id="CorelCorpID_0Corel-Layer"/>
  <g id="_145640942208">
   <path class="fil0" d="M80 45c-2,-1 -3,-2 -5,-3 -2,-2 -5,-3 -8,-4 6,-2 9,-8 11,-13 1,-2 2,-3 3,-5 1,0 1,-1 1,-2 -1,1 -2,1 -3,1 -2,1 -4,1 -6,2 -1,0 -2,0 -3,0 0,0 -1,0 -1,1 0,0 -2,0 -2,0 2,-3 2,-6 4,-9 0,-1 1,-2 1,-4 -1,1 -2,2 -3,3 -3,2 -5,3 -8,6 0,-4 -1,-7 -2,-11 0,-2 0,-3 -1,-5 0,1 -1,3 -1,4 -2,3 -3,5 -5,7 0,-3 0,-7 -3,-9 -3,-2 -7,-1 -8,2 -1,2 -1,5 1,6 2,0 3,0 3,0 1,-1 1,-2 1,-3 0,0 -1,0 -1,0 -1,0 -1,-1 -1,-1 0,-1 0,-2 1,-2 1,0 2,1 2,2 1,4 1,8 0,12 -2,-2 -4,-4 -6,-6 -1,-1 -2,-1 -3,-2 -1,0 -1,-1 -2,-2 -1,0 -2,-1 -2,-2 -1,-1 -2,-1 -2,-2 -1,1 -1,3 -1,4 0,1 0,2 0,3 0,0 0,0 0,1 0,0 0,1 0,1 -3,-4 -7,-6 -11,-4 -2,1 -3,2 -5,3 -1,1 -4,1 -4,-1 4,2 9,-1 8,-6 0,-2 -2,-3 -4,-3 -2,-1 -4,0 -6,2 0,-2 -1,-4 -2,-5 -1,-1 -3,-1 -4,-1 -1,0 -2,1 -3,2 0,1 0,3 1,4 1,0 2,0 3,-1 -1,0 -1,-1 0,-2 2,0 2,3 2,4 0,1 1,1 1,2 0,1 0,2 0,3 0,3 2,6 5,6 1,0 2,1 2,0 1,0 2,0 3,-1 1,0 2,-1 3,-2 2,-1 4,-1 6,0 1,1 2,3 3,5 0,-1 -2,-1 -2,-1 0,-1 -1,-1 -1,-1 -2,0 -4,-1 -5,-1 0,0 0,1 0,1 0,1 1,3 1,4 0,1 1,2 2,4 -3,-1 -6,-1 -8,-1 -3,0 -5,0 -8,-1 0,0 1,0 1,1 1,1 2,3 3,4 2,3 4,5 6,7 1,2 4,4 6,5 -4,3 -10,4 -14,1 -1,-1 -1,-2 -1,-3 0,-1 0,-2 1,-2 1,1 1,1 1,1 1,0 1,1 1,2 0,0 0,0 0,1 0,0 1,-1 1,-1 1,0 1,0 2,0 0,-1 1,-2 0,-4 -2,-3 -7,-3 -9,0 -1,3 0,6 1,8 3,3 8,4 11,3 -1,1 -2,2 -3,3 -2,1 -4,2 -5,2 1,0 4,1 4,2 3,1 7,2 10,2 -1,1 -3,8 -4,9 0,0 5,-2 6,-2 1,-1 3,-1 4,-2 0,2 0,4 0,6 0,1 0,3 0,4 0,0 0,1 -1,2 1,-1 5,-4 7,-6 2,-1 4,-3 6,-4 1,4 4,7 6,10 1,1 2,2 2,2 2,1 2,2 3,4 0,0 1,-2 1,-2 0,-1 0,-2 1,-4 0,-2 0,-4 0,-6 0,1 1,1 1,1 0,1 1,1 1,1 0,1 1,1 1,2 2,1 3,2 4,3 1,0 2,1 3,1 -1,0 -1,-1 -1,-1 0,-1 0,-1 0,-1 0,-1 -1,-2 -1,-3 0,-1 0,-3 -1,-4 2,1 5,2 6,4 1,0 2,1 3,2 0,-3 0,-7 -1,-10 0,-4 -2,-7 -4,-10 0,1 2,1 2,1 1,0 1,0 2,0 3,-1 5,-2 8,-3 1,0 2,-1 3,-2 1,0 3,-1 4,-1 -2,-1 -4,-1 -5,-2zm-69 -36l0 0c0,0 0,0 0,0 0,0 0,0 0,0 0,-1 1,-2 2,-2 1,0 2,0 3,1 0,2 -2,3 -3,3 0,0 -3,-1 -2,-2zm11 6l0 0c0,0 0,0 0,0z"/>
   <g>
    <path class="fil1" d="M80 20c-2,2 -7,18 -17,18 0,0 0,-1 0,-1 3,-1 5,-3 6,-4 -2,2 -4,3 -7,3 0,0 0,0 0,-1 2,-1 4,-2 5,-3 -1,1 -3,2 -5,3 -1,-1 -1,-1 -1,-1 3,-2 7,-5 8,-6 -2,1 -6,4 -8,5 -1,0 -1,-1 -1,-1 2,-2 4,-4 7,-5 -2,1 -5,2 -8,5 0,-1 0,-1 0,-1 1,-9 16,-9 21,-11z"/>
    <path class="fil2" d="M82 47c-3,1 -14,9 -21,1 0,0 0,0 1,0 2,1 4,2 5,2 -2,-1 -3,-2 -5,-3 0,0 0,0 0,-1 3,1 5,2 6,2 -2,-1 -4,-1 -5,-2 0,-1 0,-1 0,-1 3,1 5,1 7,1 -2,0 -5,-1 -7,-2 0,0 0,-1 0,-1 4,1 6,1 8,1 -3,0 -5,-1 -8,-2 0,0 0,0 0,-1 3,0 5,1 7,1 -1,0 -4,-1 -7,-2 0,0 0,-1 0,-1 7,-1 15,8 19,8z"/>
    <path class="fil3" d="M70 69c-5,-4 -16,-7 -17,-14 0,-1 1,-1 1,-1 2,3 4,5 6,5 -3,-1 -4,-3 -5,-5 1,-1 1,-1 1,-1 2,2 4,4 5,5 -2,-2 -3,-3 -4,-5 0,-1 1,-1 2,-2 2,3 4,5 6,8 -1,-2 -3,-5 -6,-8 1,-1 1,-1 1,-1 11,5 10,18 10,19z"/>
    <path class="fil4" d="M70 13c-1,2 -2,6 -4,10 -2,1 -3,1 -4,2 1,-2 3,-6 3,-6 0,0 -2,2 -3,4 0,-1 0,-2 0,-4 2,-3 6,-5 8,-6z"/>
    <path class="fil4" d="M60 64c2,4 2,8 3,9 -2,-1 -5,-3 -8,-8 0,-1 0,-2 0,-4 2,4 4,6 5,7 0,-1 -2,-3 -3,-6 1,1 2,1 3,2z"/>
    <path class="fil5" d="M62 39c0,1 0,2 0,3 0,0 0,0 0,0 -1,-1 -1,-1 -2,-2 1,0 1,-1 2,-1l0 0z"/>
    <path class="fil6" d="M62 43c0,0 0,1 0,1 0,1 0,1 -1,2l0 0c0,-1 -1,-1 -1,-2 0,0 1,-1 2,-1z"/>
    <path class="fil6" d="M61 36c0,0 1,1 1,2 -1,-1 -1,-2 -1,-2l0 0z"/>
    <path class="fil5" d="M61 47l0 0c0,1 -1,2 -2,3 0,-1 0,-1 0,-2 0,0 1,-1 2,-1z"/>
    <path class="fil5" d="M60 36c1,1 1,2 2,2 -1,1 -1,1 -2,1 0,0 -1,-1 -1,-2 0,0 1,-1 1,-1z"/>
    <path class="fil5" d="M61 35l-1 0c0,-1 -1,-2 -2,-3l1 0c0,1 1,2 2,3z"/>
    <path class="fil6" d="M60 40c0,1 1,2 1,2 0,1 -1,1 -1,2 -1,-1 -1,-2 -2,-3 1,0 1,0 2,-1z"/>
    <path class="fil5" d="M59 44c1,1 1,2 2,2 -1,1 -2,1 -3,2 0,-1 0,-1 -1,-2 1,-1 2,-1 2,-2z"/>
    <path class="fil5" d="M60 36c-1,0 -1,0 -2,1 0,-1 -1,-2 -1,-3 0,-1 1,-1 1,-1 1,1 1,2 2,3z"/>
    <path class="fil6" d="M58 37c1,1 1,2 2,3 -1,0 -2,0 -2,1 -1,-1 -1,-2 -1,-2 0,-1 1,-1 1,-2z"/>
    <path class="fil6" d="M58 49c0,0 1,1 1,1 -1,0 -1,1 -2,1 0,0 0,-1 0,-1 0,-1 1,-1 1,-1z"/>
    <path class="fil5" d="M58 42c0,0 1,1 1,2 -1,0 -1,1 -2,1 0,0 -1,-1 -1,-2 0,0 1,-1 2,-1z"/>
    <path class="fil2" d="M58 6c1,6 6,15 0,24 -1,0 -1,-1 -2,-1 1,-2 2,-5 2,-6 -1,2 -1,4 -2,6 -1,-1 -1,-1 -2,-1 1,-3 2,-6 3,-8 -1,3 -2,5 -4,8 0,-1 -1,-1 -1,-1 1,-3 2,-7 3,-9 -1,1 -3,5 -4,9 0,0 -1,0 -1,0 0,-3 1,-6 1,-9 0,2 -2,5 -2,9 0,0 -1,0 -1,0 -2,-11 5,-10 10,-21z"/>
    <path class="fil6" d="M57 46c0,1 1,2 1,2 -1,1 -1,1 -2,1 0,0 0,-1 -1,-2 1,0 1,0 2,-1z"/>
    <path class="fil6" d="M58 37c-1,0 -1,1 -2,1 0,-1 -1,-2 -1,-3 0,0 1,0 1,-1 1,1 1,2 2,3z"/>
    <path class="fil5" d="M56 30c1,1 1,1 2,2 -1,1 -1,1 -2,1 0,0 -1,-1 -1,-2 0,0 1,-1 1,-1 0,0 0,0 0,0z"/>
    <path class="fil5" d="M56 39c1,1 1,1 1,2 0,0 -1,1 -2,1 0,0 -1,-1 -1,-2 1,0 1,-1 2,-1z"/>
    <path class="fil5" d="M56 50c0,1 1,1 1,2 -1,0 -1,0 -2,1 0,-1 0,-1 -1,-2 1,0 2,-1 2,-1z"/>
    <path class="fil6" d="M55 43c1,1 1,2 2,3 -1,0 -2,0 -2,1 -1,-1 -1,-2 -2,-3 1,0 2,0 2,-1z"/>
    <path class="fil5" d="M56 50c-1,0 -1,0 -2,1 0,-1 -1,-2 -1,-2 1,-1 1,-1 2,-1 0,0 0,1 1,2z"/>
    <path class="fil6" d="M54 31c1,1 1,2 2,3 -1,0 -1,1 -2,1 0,-1 -1,-2 -1,-2 0,-1 1,-1 1,-2z"/>
    <path class="fil5" d="M56 30c-1,0 -1,0 -2,1 0,-1 -1,-2 -1,-2l0 -1c1,1 2,1 3,2z"/>
    <path class="fil5" d="M54 36c1,1 1,1 2,2 -1,1 -2,1 -2,2 -1,-1 -1,-2 -2,-3 1,0 1,-1 2,-1z"/>
    <path class="fil6" d="M54 51c0,1 0,1 1,2 -1,0 -2,1 -2,1 -1,-1 -1,-1 -1,-1 1,-1 1,-1 2,-2z"/>
    <path class="fil5" d="M54 47c0,0 -1,1 -1,1 -1,-1 -1,-1 -2,-2 1,-1 1,-1 2,-1 0,1 1,1 1,2z"/>
    <path class="fil6" d="M53 40c1,1 1,2 2,3 -1,0 -1,0 -2,1 0,-1 -1,-2 -1,-2 0,-1 1,-1 1,-2z"/>
    <path class="fil7" d="M54 60c1,7 -1,14 -1,17 -1,-3 -14,-11 -9,-22 0,0 1,0 1,0 0,3 0,6 1,8 0,-3 -1,-5 0,-8 0,0 1,0 1,0 0,4 1,7 2,9 -1,-3 -1,-6 -1,-9 0,0 1,0 1,0 1,3 2,6 2,8 0,-1 0,-4 -1,-8 0,0 1,0 2,0 0,2 1,3 2,5z"/>
    <path class="fil6" d="M53 29c0,0 0,1 1,2 -1,0 -1,1 -2,1 0,-1 -1,-1 -1,-2 0,0 1,-1 2,-1z"/>
    <path class="fil6" d="M52 37c0,1 1,2 1,3 0,0 -1,1 -2,1 0,-1 -1,-2 -1,-2 1,-1 1,-1 2,-2z"/>
    <path class="fil6" d="M52 49c1,1 1,1 2,2 -1,0 -2,1 -2,1 -1,-1 -1,-1 -2,-2 1,0 2,-1 2,-1z"/>
    <path class="fil5" d="M52 33c1,1 1,1 2,2 -1,1 -1,1 -2,2 -1,-1 -1,-2 -2,-3 1,0 2,-1 2,-1z"/>
    <path class="fil5" d="M51 42c1,1 1,1 2,2 -1,0 -1,1 -2,1 0,-1 -1,-1 -1,-2 0,0 1,-1 1,-1z"/>
    <path class="fil6" d="M52 28l0 0c0,1 -1,1 -1,2 -1,-1 -1,-2 -2,-2 1,0 2,0 3,0z"/>
    <path class="fil5" d="M51 53c1,0 1,1 1,1 -1,0 -2,0 -2,0l-1 0c1,0 2,-1 2,-1z"/>
    <path class="fil6" d="M51 46c0,1 1,2 1,2 0,1 -1,1 -2,2 0,-1 -1,-2 -1,-3 1,0 1,0 2,-1z"/>
    <path class="fil5" d="M51 52c-1,1 -1,1 -2,1 0,0 -1,-1 -1,-2 1,0 1,0 2,-1 0,1 1,2 1,2z"/>
    <path class="fil5" d="M52 32c-1,1 -1,1 -2,2 0,-1 -1,-2 -1,-3 0,0 1,0 1,-1 1,1 1,2 2,2z"/>
    <path class="fil5" d="M49 39c1,1 1,2 2,2 -1,1 -1,1 -2,1 0,0 -1,-1 -1,-2 0,0 1,-1 1,-1z"/>
    <path class="fil6" d="M50 35c0,0 1,1 1,2 0,0 -1,1 -1,1 -1,-1 -1,-2 -2,-2 1,-1 1,-1 2,-1z"/>
    <path class="fil6" d="M50 45c0,1 -1,1 -2,2 0,-1 0,-2 -1,-3 1,0 1,0 2,-1 1,1 1,2 1,2z"/>
    <path class="fil8" d="M50 7c1,2 1,5 0,8 0,1 -1,2 -2,3 1,-3 1,-5 1,-7 -1,-3 -2,-5 -4,-6 -1,0 -2,1 -2,3 0,2 2,2 2,2 1,2 -1,2 -3,1 -2,-1 -1,-5 1,-6 2,-1 6,-1 7,2z"/>
    <path class="fil6" d="M50 34c-1,0 -2,1 -2,1 -1,-1 -1,-1 -2,-2 1,0 2,-1 2,-1 1,1 1,1 2,2z"/>
    <path class="fil5" d="M50 30c0,0 -1,1 -2,1 0,-1 -1,-1 -1,-2 1,0 1,-1 2,-1 0,0 1,1 1,2z"/>
    <path class="fil5" d="M48 36c0,1 1,2 1,2 0,1 -1,1 -1,1 -1,0 -1,-1 -2,-2 1,0 1,-1 2,-1z"/>
    <path class="fil5" d="M48 48c1,0 1,1 2,2 -1,0 -2,1 -2,1 -1,-1 -1,-1 -2,-2 1,-1 2,-1 2,-1z"/>
    <path class="fil6" d="M49 54c-1,0 -1,0 -1,0 -1,0 -1,0 -2,0 0,0 0,-1 0,-1 0,0 1,-1 1,-1 1,0 1,1 2,2z"/>
    <path class="fil6" d="M47 40c1,1 1,2 2,3 -1,0 -2,1 -2,1 -1,-1 -1,-2 -2,-2 1,-1 2,-1 2,-2z"/>
    <path class="fil5" d="M48 47c-1,0 -1,1 -2,1 0,-1 -1,-1 -1,-2 0,0 1,-1 2,-1 0,1 0,1 1,2z"/>
    <path class="fil5" d="M48 28c0,0 -1,0 -1,1 0,-1 -1,-1 -1,-1 1,0 1,0 2,0z"/>
    <path class="fil5" d="M47 36c0,0 -1,0 -1,1 -1,-1 -1,-2 -2,-3 1,0 1,0 2,-1 0,1 1,2 1,3z"/>
    <path class="fil6" d="M46 29c1,1 1,2 2,2 -1,1 -1,1 -2,2 0,-1 -1,-2 -1,-3 0,0 1,0 1,-1z"/>
    <path class="fil6" d="M47 40c-1,0 -1,1 -2,1 0,-1 -1,-1 -1,-2 0,-1 1,-1 2,-2 0,1 1,2 1,3z"/>
    <path class="fil6" d="M46 49c0,1 1,2 1,2 0,1 -1,1 -2,1 0,0 -1,-1 -1,-2 1,0 1,0 2,-1z"/>
    <path class="fil3" d="M46 22c0,1 0,3 0,5 0,0 -1,0 -1,0 -1,-3 -2,-6 -3,-7 1,2 2,5 2,7 0,0 -1,0 -1,1 -1,-4 -2,-7 -3,-8 1,2 2,5 2,8 0,0 0,0 -1,0 -1,-4 -4,-7 -5,-9 2,3 3,6 4,10 0,0 0,0 -1,1 -1,-3 -3,-5 -4,-7 1,1 2,4 4,7 -1,0 -1,1 -1,1 -9,-4 -6,-19 -6,-23 1,4 12,7 14,14z"/>
    <path class="fil5" d="M45 42c0,1 1,2 1,2 0,1 -1,1 -2,1 0,0 -1,-1 -1,-2 1,0 1,-1 2,-1z"/>
    <path class="fil6" d="M45 28c1,0 1,1 1,1 0,0 -1,1 -1,1 -1,-1 -1,-1 -1,-2 0,0 1,0 1,0z"/>
    <path class="fil5" d="M46 33c-1,0 -1,1 -2,1 0,-1 -1,-2 -1,-2 0,-1 1,-1 1,-1 1,0 1,1 2,2z"/>
    <path class="fil6" d="M45 37c0,0 -1,1 -2,1 0,0 -1,-1 -1,-2 1,0 1,-1 2,-1 0,0 1,1 1,2z"/>
    <path class="fil5" d="M45 53c0,1 0,1 1,1 -1,0 -2,0 -2,0 0,0 1,-1 1,-1z"/>
    <path class="fil6" d="M44 46c1,1 1,2 2,3 -1,0 -2,0 -2,1 -1,-1 -1,-2 -2,-3 1,0 1,0 2,-1z"/>
    <path class="fil5" d="M43 51c1,0 1,1 2,2 -1,0 -1,0 -2,1 0,0 0,-1 0,-1 -1,0 -1,-1 -1,-1 0,-1 1,-1 1,-1z"/>
    <path class="fil6" d="M42 43c1,1 1,2 2,3 -1,0 -2,1 -2,1 -1,-1 -1,-2 -2,-2 1,-1 2,-1 2,-2z"/>
    <path class="fil5" d="M43 39c1,1 1,2 2,2 -1,1 -2,1 -2,2 -1,-1 -1,-2 -2,-3 1,0 1,0 2,-1z"/>
    <path class="fil6" d="M44 34c-1,1 -2,1 -2,2 -1,-1 -1,-2 -2,-2 1,-1 2,-1 2,-2 1,1 1,2 2,2z"/>
    <path class="fil5" d="M43 29c0,0 1,1 1,1 0,1 -1,1 -1,1 -1,0 -1,-1 -2,-2 1,0 1,0 2,0z"/>
    <path class="fil5" d="M42 48c0,1 0,1 1,2 -1,0 -1,1 -2,1 0,-1 -1,-1 -1,-2 0,-1 1,-1 2,-1z"/>
    <path class="fil5" d="M43 39c-1,0 -1,1 -2,1 0,-1 -1,-2 -1,-2 0,-1 1,-1 1,-2 1,1 1,2 2,3z"/>
    <path class="fil2" d="M42 54c0,0 1,0 1,0 -1,3 -1,5 -1,7 -4,4 -9,7 -11,9 1,-3 -3,-14 6,-20 0,0 0,1 1,1 -3,3 -4,6 -4,8 1,-3 2,-5 4,-7 1,0 1,0 1,1 -2,2 -3,5 -3,7 1,-3 2,-5 4,-7 0,0 1,0 1,1 -1,3 -2,5 -3,7 1,-1 3,-4 4,-7z"/>
    <path class="fil6" d="M41 41c0,0 1,1 1,2 -1,0 -1,1 -2,1 0,-1 -1,-1 -1,-2 0,0 1,-1 2,-1z"/>
    <path class="fil6" d="M42 32c-1,0 -1,1 -2,1 0,-1 -1,-1 -1,-2 0,0 1,-1 2,-1 0,0 1,1 1,2z"/>
    <path class="fil6" d="M41 52l1 1c-1,0 -1,0 -1,-1l0 0z"/>
    <path class="fil5" d="M40 45c0,1 1,2 1,2 0,1 -1,1 -2,1 0,0 -1,-1 -1,-2 1,0 1,-1 2,-1z"/>
    <path class="fil5" d="M41 36c0,0 -1,1 -2,1 0,0 0,-1 -1,-2 1,0 1,-1 2,-1 0,1 1,1 1,2z"/>
    <path class="fil6" d="M41 51c-1,1 -1,1 -1,1 -1,-1 -2,-1 -2,-2 0,0 1,-1 1,-1 1,1 1,2 2,2z"/>
    <path class="fil6" d="M41 40c-1,1 -2,1 -2,2 -1,-1 -1,-2 -2,-3 1,0 1,0 2,-1 1,1 1,2 2,2z"/>
    <path class="fil5" d="M40 34c-1,0 -2,0 -2,1 -1,-1 -1,-1 -1,-2 0,0 1,-1 1,-1 1,0 1,1 2,2z"/>
    <path class="fil5" d="M38 42c1,1 1,2 2,2 -1,1 -2,1 -2,2 -1,-1 -1,-2 -2,-2 1,-1 2,-1 2,-2z"/>
    <path class="fil6" d="M39 38c-1,0 -1,1 -2,1 0,-1 -1,-1 -1,-2 0,-1 1,-1 2,-1 0,0 0,1 1,2z"/>
    <path class="fil6" d="M37 46c1,1 1,2 2,3 -1,0 -1,0 -2,0 0,0 -1,-1 -1,-2 0,0 1,0 1,-1z"/>
    <path class="fil5" d="M37 40c0,1 1,1 1,2 -1,0 -1,1 -2,1 0,-1 -1,-1 -1,-2 0,0 1,-1 2,-1z"/>
    <path class="fil6" d="M37 35c0,1 -1,1 -2,1l0 0c1,-1 1,-1 1,-2 1,0 1,1 1,1z"/>
    <path class="fil6" d="M36 44c0,1 1,1 1,2 0,0 -1,0 -1,1 -1,-1 -1,-2 -1,-2 0,-1 1,-1 1,-1z"/>
    <path class="fil2" d="M36 33c0,0 0,0 0,0 -4,-1 -7,-2 -9,-3 3,1 6,3 8,4 0,1 0,1 -1,2 -3,-2 -9,-4 -11,-5 2,1 8,4 11,6 0,0 0,0 0,1 -3,-1 -6,-2 -9,-3 2,1 6,2 9,3 0,1 -1,1 -1,2 -3,-1 -6,-2 -9,-3 2,1 6,3 9,4 0,0 0,0 0,0 -13,2 -16,-9 -22,-15 2,1 18,-2 25,7z"/>
    <path class="fil5" d="M35 37c1,1 1,2 1,2 0,1 -1,1 -1,2l-1 -1c0,-1 1,-2 1,-2l0 -1z"/>
    <path class="fil9" d="M35 48c1,1 1,1 1,1 -9,10 -21,4 -23,3 3,-1 13,-12 20,-10 0,1 0,1 1,2 -3,0 -5,1 -6,2 2,-1 4,-1 6,-1 0,0 0,0 0,1 -3,1 -6,3 -10,3 3,0 6,-1 11,-2 0,0 0,0 0,1 -2,1 -5,2 -7,3 2,0 4,-1 7,-3z"/>
    <path class="fil6" d="M36 43c-1,1 -1,1 -1,1 0,-1 -1,-2 -1,-3l0 0c1,1 1,2 2,2z"/>
    <path class="fil4" d="M32 24c0,2 0,3 1,5 0,-1 -1,-1 -2,-1 -1,-2 -3,-4 -5,-6 1,1 2,3 3,5 -2,-1 -3,-1 -4,-1 -3,-4 -2,-6 -3,-8 2,1 6,1 10,6z"/>
    <path class="fil8" d="M31 17c0,2 0,3 0,5 0,-1 -1,-1 -1,-1 0,-6 -5,-8 -8,-7 -6,1 -6,4 -11,3 -3,-1 -4,-6 -2,-8 2,-5 5,-5 7,-4 2,1 2,4 0,7 0,0 -4,2 -6,0 0,-1 0,-1 0,-2 2,2 5,2 6,1 1,-2 1,-4 -1,-5 -2,0 -5,1 -5,3 -1,2 -1,6 2,7 4,1 4,-3 9,-4 5,-2 9,2 10,5z"/>
    <path class="fil4" d="M31 55c0,1 0,2 -1,4 -2,3 -7,4 -9,5 1,-1 2,-6 4,-9 2,0 3,0 5,-1 -1,2 -3,4 -4,5 1,-1 3,-2 5,-4z"/>
    <path class="fil8" d="M25 42c1,0 1,0 2,0 -2,1 -4,2 -6,3 -4,1 -7,2 -10,1 -3,-1 -5,-5 -4,-8 0,-2 3,-5 6,-2 2,0 2,3 0,4 0,-1 0,-4 -3,-4 -1,0 -3,2 -2,5 1,2 4,4 8,4 3,0 7,-2 9,-3z"/>
    <path class="fil8" d="M6 2c2,1 2,3 3,5 -1,0 -1,1 -2,2l0 0c0,-1 0,-2 -1,-4 0,-1 0,-2 -2,-2 -2,0 -2,2 -1,2 -2,1 -3,-1 -2,-2 1,-2 4,-3 5,-1z"/>
   </g>
  </g>
 </g>
</svg>
