<?xml version="1.0" encoding="UTF-8"?>
<!DOCTYPE svg PUBLIC "-//W3C//DTD SVG 1.1//EN" "http://www.w3.org/Graphics/SVG/1.1/DTD/svg11.dtd">
<!-- Creator: CorelDRAW X7 -->
<svg xmlns="http://www.w3.org/2000/svg" xml:space="preserve" width="0.337657in" height="0.250323in" version="1.1" style="shape-rendering:geometricPrecision; text-rendering:geometricPrecision; image-rendering:optimizeQuality; fill-rule:evenodd; clip-rule:evenodd"
viewBox="0 0 35 26"
 xmlns:xlink="http://www.w3.org/1999/xlink">
 <defs>
  <style type="text/css">
   <![CDATA[
    .fil0 {fill:black;fill-rule:nonzero}
    .fil1 {fill:#EFA91B;fill-rule:nonzero}
   ]]>
  </style>
 </defs>
 <g id="__x0023_Layer_x0020_1">
  <metadata id="CorelCorpID_0Corel-Layer"/>
  <g id="_145752023424">
   <path class="fil0" d="M7 20c0,0 0,0 0,0 1,0 1,0 1,0 1,0 1,0 1,0 1,0 2,0 3,0 1,1 2,1 3,1 1,1 2,1 3,0 0,0 1,0 1,0 0,-1 0,-1 -1,-1 0,0 0,-1 0,-1 -1,0 0,-1 0,-1 0,0 1,0 1,0 1,0 2,0 2,0 2,0 3,0 4,0 1,0 1,-1 2,-2 -1,0 -1,0 -1,0 0,0 -1,-1 -1,-1 0,0 -1,0 -1,-1 0,0 1,-1 1,-1 0,0 1,0 1,0 1,0 3,0 4,0 2,0 3,-1 3,-2 1,0 1,-1 0,-1 0,-1 -1,-1 -1,-1 -1,0 -1,0 -2,0 0,0 -1,0 -1,-1 1,-1 2,-1 3,-2 1,0 1,-1 2,-1 0,-1 1,-1 1,-2 0,-1 -1,-2 -1,-2 -1,0 -1,0 -2,0 -1,0 -1,0 -2,1 -1,0 -2,1 -2,1 -1,0 -1,1 -1,1 -1,0 -1,0 -1,-1 0,0 0,0 0,0 0,-1 0,-1 0,-1 0,0 -1,-1 -1,-1 -1,-1 -2,0 -2,1 -1,0 -1,0 -1,0 0,1 0,2 0,3 -1,1 -1,2 -2,2 0,0 -1,1 -1,0 -1,0 -1,-1 -1,-1 0,-1 -1,-1 -1,-1 -1,0 -1,0 -1,1 -1,1 -1,1 -1,2 0,0 0,1 -1,1 0,1 0,1 0,2 -1,1 -2,0 -2,0 0,-1 0,-1 0,-1 -1,0 -1,-1 -2,0 0,0 0,0 0,0 -1,1 -1,2 -2,3 0,2 0,3 -1,4 0,1 -1,1 -1,2 0,0 0,0 0,0 0,0 0,0 0,0 2,-1 3,-2 5,-3 2,-1 3,-2 5,-3 1,-1 2,-1 3,-2 1,-1 1,-1 2,-2 1,0 2,-1 3,-1 1,-1 1,-1 2,-1 1,-1 2,-2 3,-2 1,0 2,-1 2,-1 0,0 1,0 1,0 0,0 0,0 0,0 -1,0 -1,0 -1,0 -1,1 -1,1 -2,1 -1,1 -2,2 -3,2 -1,1 -2,2 -3,2 -2,1 -3,2 -5,3 -1,1 -3,2 -4,4 -2,1 -4,2 -6,4 0,0 -1,0 -1,0zm-4 3l0 0c0,0 0,0 0,0 0,0 0,0 0,0 0,0 0,0 0,0 1,-1 2,-2 3,-3 1,0 1,0 2,-1 1,-1 2,-2 3,-2 1,-1 3,-2 4,-3 2,-1 4,-2 6,-4 0,0 0,0 0,0 0,0 0,0 0,0 0,0 -1,1 -2,1 -1,1 -3,2 -4,3 -2,1 -3,1 -4,2 -1,1 -2,2 -3,2 -2,1 -3,3 -4,4 -1,0 -1,1 -1,1zm27 -15l0 0c0,1 0,1 1,1 0,0 0,0 0,0 1,0 2,0 3,0 0,0 0,1 0,1 0,1 0,1 0,1 0,1 0,1 0,1 -1,1 -2,1 -3,1 -2,1 -3,1 -5,1 0,0 0,0 -1,0 0,0 0,1 1,1 0,0 0,0 1,1 0,0 0,1 -1,2 0,0 -1,0 -2,0 -1,0 -2,0 -3,0 -1,0 -2,0 -2,0 0,0 -1,0 -1,1 0,0 0,0 0,0 0,0 0,0 1,0 0,1 0,1 0,2 0,0 0,1 -1,1 -1,0 -3,0 -4,0 -1,-1 -2,-1 -3,-1 -1,-1 -2,-1 -3,0 -2,0 -3,0 -4,1 0,1 -1,2 -2,2 -1,1 -1,2 -2,2 0,0 0,0 0,0 0,0 0,0 0,-1 1,-1 2,-2 2,-3 1,0 2,-1 3,-2 1,-1 1,-2 1,-3 1,-1 1,-2 2,-4 0,-1 0,-2 1,-2 0,-1 1,-2 2,-2 0,0 1,0 1,1 0,0 0,0 0,0 0,0 1,1 1,1 1,-1 1,-1 1,-2 0,0 0,-1 0,-2 1,0 1,-1 1,-1 0,-1 1,-1 2,-2 0,0 1,0 1,1 0,0 0,0 1,1 0,0 0,0 0,0 0,1 1,1 1,1 0,-1 1,-1 1,-2 0,0 0,0 0,-1 1,-1 1,-1 1,-2 0,-1 0,-1 1,-1 0,-1 1,-1 1,-1 1,0 2,0 2,1 0,0 0,0 0,1 0,0 0,0 0,1 1,0 1,0 1,0 0,0 0,0 1,-1 0,0 1,-1 2,-1 1,-1 2,-1 3,-1 1,1 2,1 2,2 0,0 0,1 0,2 0,0 0,1 -1,1 0,1 -1,1 -2,2 0,0 -1,0 -1,1 -1,0 -1,0 -1,0z"/>
   <path class="fil1" d="M7 20c0,0 1,0 1,0 2,-2 4,-3 6,-4 1,-2 3,-3 4,-4 2,-1 3,-2 5,-3 1,0 2,-1 3,-2 1,0 2,-1 3,-2 1,0 1,0 2,-1 0,0 0,0 1,0 0,0 0,0 0,0 0,0 -1,0 -1,0 0,0 -1,1 -2,1 -1,0 -2,1 -3,2 -1,0 -1,0 -2,1 -1,0 -2,1 -3,1 -1,1 -1,1 -2,2 -1,1 -2,1 -3,2 -2,1 -3,2 -5,3 -2,1 -3,2 -5,3 0,0 0,0 0,0 0,0 0,0 0,0 0,-1 1,-1 1,-2 1,-1 1,-2 1,-4 1,-1 1,-2 2,-3 0,0 0,0 0,0 1,-1 1,0 2,0 0,0 0,0 0,1 0,0 1,1 2,0 0,-1 0,-1 0,-2 1,0 1,-1 1,-1 0,-1 0,-1 1,-2 0,-1 0,-1 1,-1 0,0 1,0 1,1 0,0 0,1 1,1 0,1 1,0 1,0 1,0 1,-1 2,-2 0,-1 0,-2 0,-3 0,0 0,0 1,0 0,-1 1,-2 2,-1 0,0 1,1 1,1 0,0 0,0 0,1 0,0 0,0 0,0 0,1 0,1 1,1 0,0 0,-1 1,-1 0,0 1,-1 2,-1 1,-1 1,-1 2,-1 1,0 1,0 2,0 0,0 1,1 1,2 0,1 -1,1 -1,2 -1,0 -1,1 -2,1 -1,1 -2,1 -3,2 0,1 1,1 1,1 1,0 1,0 2,0 0,0 1,0 1,1 1,0 1,1 0,1 0,1 -1,2 -3,2 -1,0 -3,0 -4,0 0,0 -1,0 -1,0 0,0 -1,1 -1,1 0,1 1,1 1,1 0,0 1,1 1,1 0,0 0,0 1,0 -1,1 -1,2 -2,2 -1,0 -2,0 -4,0 0,0 -1,0 -2,0 0,0 -1,0 -1,0 0,0 -1,1 0,1 0,0 0,1 0,1 1,0 1,0 1,1 0,0 -1,0 -1,0 -1,1 -2,1 -3,0 -1,0 -2,0 -3,-1 -1,0 -2,0 -3,0 0,0 0,0 -1,0 0,0 0,0 -1,0 0,0 0,0 0,0z"/>
   <path class="fil0" d="M27 13c0,0 0,0 0,0 0,0 0,0 0,0 0,0 0,0 0,0z"/>
  </g>
 </g>
</svg>
