<?xml version="1.0" encoding="UTF-8"?>
<!DOCTYPE svg PUBLIC "-//W3C//DTD SVG 1.1//EN" "http://www.w3.org/Graphics/SVG/1.1/DTD/svg11.dtd">
<!-- Creator: CorelDRAW X7 -->
<svg xmlns="http://www.w3.org/2000/svg" xml:space="preserve" width="0.284862in" height="0.37048in" version="1.1" style="shape-rendering:geometricPrecision; text-rendering:geometricPrecision; image-rendering:optimizeQuality; fill-rule:evenodd; clip-rule:evenodd"
viewBox="0 0 130 169"
 xmlns:xlink="http://www.w3.org/1999/xlink">
 <defs>
  <style type="text/css">
   <![CDATA[
    .fil0 {fill:#020200;fill-rule:nonzero}
    .fil3 {fill:#914E39;fill-rule:nonzero}
    .fil1 {fill:#C12531;fill-rule:nonzero}
    .fil2 {fill:#E55E2D;fill-rule:nonzero}
    .fil6 {fill:#EF9D1E;fill-rule:nonzero}
    .fil4 {fill:#F1DE4E;fill-rule:nonzero}
    .fil5 {fill:#F9AD24;fill-rule:nonzero}
   ]]>
  </style>
 </defs>
 <g id="__x0023_Layer_x0020_1">
  <metadata id="CorelCorpID_0Corel-Layer"/>
  <g id="_145842439088">
   <path class="fil0" d="M83 0c0,1 1,2 1,3 -1,7 -2,15 -3,22 0,4 -1,7 -1,11 -1,4 -1,9 -1,13 -1,13 -2,25 -2,37 0,4 -1,8 0,12 0,5 0,9 1,14 1,9 5,16 13,21 3,3 7,4 11,6 3,1 7,2 10,3 7,2 12,6 16,12 2,3 2,6 2,9 0,0 0,1 -1,2 -7,3 -15,4 -23,4 -4,0 -8,0 -12,0 -9,0 -17,-1 -26,-4 -6,-3 -12,-5 -18,-7 -1,0 -2,0 -3,0 0,2 0,5 0,7 -2,1 -4,1 -5,2 -2,0 -4,0 -6,0 -5,1 -10,1 -15,1 -3,0 -7,-1 -10,-1 -1,0 -1,-1 -2,-1 0,-3 0,-6 0,-9 0,-7 1,-13 2,-20 0,-4 0,-9 0,-13 0,-4 0,-7 0,-10 -1,-6 -1,-12 -2,-17 -1,-8 -2,-15 -2,-23 -1,-4 -2,-9 -2,-14 -1,-4 -1,-8 -2,-13 0,-5 -1,-11 -1,-17 0,-5 -1,-11 -1,-17 0,-1 -1,-1 -1,-2 0,-1 0,-2 0,-3 1,-1 3,-1 4,-1 4,0 8,0 13,-1 4,0 7,0 11,-1 4,0 9,-1 13,-1 4,-1 9,-2 14,-2 5,-1 11,-1 16,-2 3,0 5,0 7,0 1,0 3,0 5,0zm42 163l0 0c1,-1 1,-2 1,-3 0,-2 -1,-5 -3,-7 -3,-4 -7,-6 -12,-8 -3,-1 -6,-2 -9,-3 -5,-2 -8,-4 -12,-6 -3,-1 -6,-4 -8,-6 -5,-6 -7,-13 -8,-20 0,-3 0,-5 0,-7 -8,-5 -9,-9 -9,-15 1,-5 3,-8 8,-10 1,0 1,0 2,0 0,-4 0,-9 0,-13 1,-4 1,-8 1,-12 0,-4 0,-8 1,-12 0,-5 0,-9 1,-13 0,-4 1,-8 1,-12 0,-4 1,-8 1,-13 -5,0 -11,0 -16,0 -6,1 -13,2 -20,3 -6,1 -12,2 -18,2 0,1 -1,1 -2,1 -5,0 -10,1 -15,1 -2,0 -4,1 -6,1 0,1 0,1 0,2 1,3 1,6 1,10 1,5 1,10 1,15 1,3 1,5 1,7 1,6 2,12 2,18 0,3 1,5 1,8 1,3 1,7 1,11 2,1 4,2 5,3 6,3 9,7 10,13 1,1 1,2 1,3 0,5 -1,10 -4,14 -2,3 -5,6 -8,9 0,4 0,9 0,14 0,5 -1,9 -1,14 1,1 2,1 2,1 5,1 9,1 14,1 7,0 14,0 20,2 6,1 13,3 19,6 4,1 8,2 12,3 5,1 11,1 17,1 9,0 19,-2 28,-3zm-111 -44l0 0c2,0 3,-2 4,-3 4,-5 6,-11 5,-17 0,-2 -1,-4 -2,-6 -2,-3 -4,-5 -8,-6 0,-1 -1,-1 -2,-1 1,11 2,22 3,33zm-2 44l0 0c6,3 25,3 33,-1 0,-1 0,-3 0,-4 -5,-2 -6,-2 -12,-1 -6,1 -13,1 -19,-1 0,0 -1,0 -2,0 0,3 -1,5 0,7zm62 -83l0 0c-4,1 -6,4 -7,9 0,5 2,9 7,11 0,-7 0,-13 0,-20z"/>
   <path class="fil1" d="M125 163c-9,1 -19,3 -28,3 -6,0 -12,0 -17,-1 -4,-1 -8,-2 -12,-3 -6,-3 -13,-5 -19,-6 -6,-2 -13,-2 -20,-2 -5,0 -9,0 -14,-1 0,0 -1,0 -2,-1 0,-5 1,-9 1,-14 0,-5 0,-10 0,-14 3,-3 6,-6 8,-9 3,-4 4,-9 4,-14 0,-1 0,-2 -1,-3 -1,-6 -4,-10 -10,-13 -1,-1 -3,-2 -5,-3 0,-4 0,-8 -1,-11 0,-3 -1,-5 -1,-8 0,-6 -1,-12 -2,-18 0,-2 0,-4 -1,-7 0,-5 0,-10 -1,-15 0,-4 0,-7 -1,-10 0,-1 0,-1 0,-2 2,0 4,-1 6,-1 5,0 10,-1 15,-1 1,0 2,0 2,-1 6,0 12,-1 18,-2 7,-1 14,-2 20,-3 5,0 11,0 16,0 0,5 -1,9 -1,13 0,4 -1,8 -1,12 -1,4 -1,8 -1,13 -1,4 -1,8 -1,12 0,4 0,8 -1,12 0,4 0,9 0,13 -1,0 -1,0 -2,0 -5,2 -7,5 -8,10 0,6 1,10 9,15 0,2 0,4 0,7 1,7 3,14 8,20 2,2 5,5 8,6 4,2 7,4 12,6 3,1 6,2 9,3 5,2 9,4 12,8 2,2 3,5 3,7 0,1 0,2 -1,3zm-88 -100l0 0c0,1 0,1 0,2 0,3 1,6 4,8 4,2 8,3 12,1 4,-2 7,-6 7,-10 -1,-1 -1,-3 -1,-4 0,-4 -3,-6 -7,-7 -3,-1 -6,0 -9,1 -4,1 -6,5 -6,9zm2 51l0 0c0,1 1,1 1,2 3,4 7,5 11,3 5,-2 8,-6 7,-11 0,-3 -1,-6 -5,-7 -3,-1 -6,-1 -9,0 -3,1 -5,3 -5,6 -1,2 0,5 0,7zm20 -101l0 0c0,0 0,0 -1,0 -6,1 -10,5 -10,10 1,4 2,6 5,8 1,1 3,1 5,1 3,1 5,-1 7,-3 2,-2 3,-5 3,-8 0,-3 -3,-8 -9,-8zm-25 24l0 0c0,-5 -2,-8 -6,-8 -2,-1 -4,0 -6,1 -5,2 -6,4 -6,9 1,3 2,6 5,7 4,2 7,1 10,-1 2,-2 3,-5 3,-8zm-2 107l0 0c4,1 6,-2 6,-7 1,-4 -2,-6 -7,-7 -3,0 -6,3 -7,7 0,4 3,7 8,7zm39 -12l0 0c-2,0 -4,-1 -5,-1 -4,0 -7,2 -7,6 0,1 0,2 0,2 0,3 2,5 5,6 5,0 10,-3 9,-8 0,-1 -1,-3 -2,-5zm14 22l0 0c4,2 7,2 8,-1 1,-3 0,-6 -3,-7 -3,0 -6,1 -6,5 0,1 1,2 1,3zm-66 -88l0 0c-2,2 -2,5 -1,7 2,1 5,2 6,0 2,-1 4,-3 1,-6 -2,-2 -4,-1 -6,-1z"/>
   <path class="fil2" d="M14 119c-1,-11 -2,-22 -3,-33 1,0 2,0 2,1 4,1 6,3 8,6 1,2 2,4 2,6 1,6 -1,12 -5,17 -1,1 -2,3 -4,3z"/>
   <path class="fil3" d="M12 163c-1,-2 0,-4 0,-7 1,0 2,0 2,0 6,2 13,2 19,1 6,-1 7,-1 12,1 0,1 0,3 0,4 -8,4 -27,4 -33,1z"/>
   <path class="fil2" d="M74 80c0,7 0,13 0,20 -5,-2 -7,-6 -7,-11 1,-5 3,-8 7,-9z"/>
   <path class="fil0" d="M37 63c0,-4 2,-8 6,-9 3,-1 6,-2 9,-1 4,1 7,3 7,7 0,1 0,3 1,4 0,4 -3,8 -7,10 -4,2 -8,1 -12,-1 -3,-2 -4,-5 -4,-8 0,-1 0,-1 0,-2zm11 10l0 0c3,0 6,-1 7,-4 2,-3 3,-6 1,-9 0,-3 -2,-4 -4,-5 -3,0 -6,0 -8,1 -1,0 -2,1 -3,2 -2,3 -2,7 -1,10 2,3 5,5 8,5z"/>
   <path class="fil0" d="M39 114c0,-2 -1,-5 0,-7 0,-3 2,-5 5,-6 3,-1 6,-1 9,0 4,1 5,4 5,7 1,5 -2,9 -7,11 -4,2 -8,1 -11,-3 0,-1 -1,-1 -1,-2zm2 -5l0 0c2,5 5,7 9,7 4,0 6,-2 6,-6 0,-1 0,-2 0,-2 -1,-2 -1,-3 -2,-4 -2,-2 -5,-2 -8,-2 -3,1 -4,3 -4,6 0,0 -1,1 -1,1z"/>
   <path class="fil0" d="M59 13c6,0 9,5 9,8 0,3 -1,6 -3,8 -2,2 -4,4 -7,3 -2,0 -4,0 -5,-1 -3,-2 -4,-4 -5,-8 0,-5 4,-9 10,-10 1,0 1,0 1,0zm0 17l0 0c2,0 6,-3 6,-7 1,-4 -2,-8 -6,-8 -4,0 -8,3 -8,7 0,4 4,8 8,8z"/>
   <path class="fil0" d="M34 37c0,3 -1,6 -3,8 -3,2 -6,3 -10,1 -3,-1 -4,-4 -5,-7 0,-5 1,-7 6,-9 2,-1 4,-2 6,-1 4,0 6,3 6,8zm-2 0l0 0c0,-3 -1,-5 -4,-6 -3,-1 -8,1 -8,5 -1,1 -1,2 -1,3 1,4 4,6 7,5 4,0 6,-3 6,-7z"/>
   <path class="fil0" d="M32 144c-5,0 -8,-3 -8,-7 1,-4 4,-7 7,-7 5,1 8,3 7,7 0,5 -2,8 -6,7zm4 -9l0 0c-4,-3 -5,-3 -8,-1 -1,2 -1,4 1,6 1,2 3,2 5,1 2,-2 2,-4 2,-6z"/>
   <path class="fil0" d="M71 132c1,2 2,4 2,5 1,5 -4,8 -9,8 -3,-1 -5,-3 -5,-6 0,0 0,-1 0,-2 0,-4 3,-6 7,-6 1,0 3,1 5,1zm-5 1l0 0c-2,0 -4,2 -4,5 -1,2 2,4 4,4 2,1 5,-2 5,-4 0,-3 -2,-5 -5,-5z"/>
   <path class="fil0" d="M85 154c0,-1 -1,-2 -1,-3 0,-4 3,-5 6,-5 3,1 4,4 3,7 -1,3 -4,3 -8,1zm6 -1l0 0c0,-2 1,-3 0,-5 -2,-1 -3,0 -4,1 -1,4 0,5 4,4z"/>
   <path class="fil0" d="M19 66c2,0 4,-1 6,1 3,3 1,5 -1,6 -1,2 -4,1 -6,0 -1,-2 -1,-5 1,-7zm4 6l0 0c1,-1 1,-2 1,-3 -1,-2 -3,-2 -4,-1 0,1 0,3 0,4 1,0 2,0 3,0z"/>
   <path class="fil2" d="M48 73c-3,0 -6,-2 -8,-5 -1,-3 -1,-7 1,-10 1,-1 2,-2 3,-2 2,-1 5,-1 8,-1 2,1 4,2 4,5 2,3 1,6 -1,9 -1,3 -4,4 -7,4z"/>
   <path class="fil4" d="M41 109c0,0 1,-1 1,-1 0,-3 1,-5 4,-6 3,0 6,0 8,2 1,1 1,2 2,4 0,0 0,1 0,2 0,4 -2,6 -6,6 -4,0 -7,-2 -9,-7z"/>
   <path class="fil4" d="M59 30c-4,0 -8,-4 -8,-8 0,-4 4,-7 8,-7 4,0 7,4 6,8 0,4 -4,7 -6,7z"/>
   <path class="fil5" d="M32 37c0,4 -2,7 -6,7 -3,1 -6,-1 -7,-5 0,-1 0,-2 1,-3 0,-4 5,-6 8,-5 3,1 4,3 4,6z"/>
   <path class="fil6" d="M36 135c0,2 0,4 -2,6 -2,1 -4,1 -5,-1 -2,-2 -2,-4 -1,-6 3,-2 4,-2 8,1z"/>
   <path class="fil5" d="M66 133c3,0 5,2 5,5 0,2 -3,5 -5,4 -2,0 -5,-2 -4,-4 0,-3 2,-5 4,-5z"/>
   <path class="fil2" d="M91 153c-4,1 -5,0 -4,-4 1,-1 2,-2 4,-1 1,2 0,3 0,5z"/>
   <path class="fil6" d="M23 72c-1,0 -2,0 -3,0 0,-1 0,-3 0,-4 1,-1 3,-1 4,1 0,1 0,2 -1,3z"/>
  </g>
 </g>
</svg>
