<?xml version="1.0" encoding="UTF-8"?>
<!DOCTYPE svg PUBLIC "-//W3C//DTD SVG 1.1//EN" "http://www.w3.org/Graphics/SVG/1.1/DTD/svg11.dtd">
<!-- Creator: CorelDRAW X7 -->
<svg xmlns="http://www.w3.org/2000/svg" xml:space="preserve" width="0.199878in" height="0.577327in" version="1.1" style="shape-rendering:geometricPrecision; text-rendering:geometricPrecision; image-rendering:optimizeQuality; fill-rule:evenodd; clip-rule:evenodd"
viewBox="0 0 29 82"
 xmlns:xlink="http://www.w3.org/1999/xlink">
 <defs>
  <style type="text/css">
   <![CDATA[
    .fil0 {fill:#020200;fill-rule:nonzero}
    .fil3 {fill:#706756;fill-rule:nonzero}
    .fil1 {fill:#B3573B;fill-rule:nonzero}
    .fil2 {fill:#E55E2D;fill-rule:nonzero}
   ]]>
  </style>
 </defs>
 <g id="__x0023_Layer_x0020_1">
  <metadata id="CorelCorpID_0Corel-Layer"/>
  <g id="_145756727136">
   <path class="fil0" d="M25 11c-1,1 -1,1 -2,1 0,0 0,0 0,0 -2,0 -2,-1 -2,-3 0,0 0,-1 0,-2 0,-1 0,-1 0,-2 -1,0 -1,0 -1,0 -1,0 -1,0 -1,0 -1,1 -1,2 -1,3 -1,3 -1,7 -1,10 0,0 0,1 0,1 1,0 1,-1 2,-1 0,1 1,1 2,2 1,0 1,0 2,1 1,0 2,0 3,0 1,0 2,0 2,-1 1,1 1,1 0,1 0,2 -1,4 -2,7 0,1 0,2 -1,3 -1,3 -1,5 -2,8 -2,4 -3,8 -4,11 -1,3 -1,5 -2,8 -1,2 -1,3 -2,5 0,2 -1,4 -2,5 -1,4 -2,7 -3,10 -1,1 -1,3 -1,4 -1,0 -1,1 -2,0 0,-2 0,-4 -1,-7 0,-1 0,-3 0,-5 -1,-2 -1,-4 -1,-6 -1,-3 -1,-5 -1,-7 0,-1 0,-2 -1,-4 0,0 0,-1 0,-1 0,-3 0,-5 -1,-7 0,-2 0,-5 0,-7 -1,-1 -1,-2 -1,-4 0,-1 0,-2 0,-3 -1,-3 -1,-6 -1,-9 0,-2 0,-3 0,-4 0,0 0,0 0,0 0,-1 1,-1 1,-1 2,1 3,1 5,1 1,0 1,0 2,0 0,-1 0,-1 1,-1 0,0 0,1 0,1 1,1 2,2 4,2 0,0 0,-1 0,-2 0,-1 0,-2 0,-3 0,-2 0,-4 0,-6 1,-2 1,-4 2,-6 0,-2 1,-3 3,-3 1,0 2,0 3,0 2,1 4,2 4,4 0,2 0,3 0,5 0,1 0,1 0,2zm-17 65l0 0c0,0 0,0 0,0 0,-1 0,-2 0,-3 1,-2 1,-5 2,-8 1,-5 1,-9 2,-13 1,-4 2,-7 2,-10 1,-3 1,-5 2,-7 0,-2 0,-4 1,-5 0,-3 1,-6 1,-9 0,0 0,0 0,-1 -3,2 -6,2 -9,0 0,0 0,1 0,1 0,1 0,2 0,3 0,1 0,3 -1,4 0,3 0,5 0,7 0,2 0,4 0,5 0,5 0,10 0,15 0,0 0,1 0,2 0,2 0,4 0,6 0,1 0,2 0,3 0,2 0,4 0,6 0,1 0,2 0,4zm1 1l0 0c0,0 0,0 0,0 0,-1 0,-1 1,-2 0,-2 1,-4 2,-6 1,-4 3,-8 4,-12 1,-3 2,-7 3,-10 1,-2 1,-4 2,-6 1,-3 2,-5 3,-8 1,-3 2,-7 3,-10 0,-1 0,-1 0,-1 -1,0 -2,0 -3,0 0,0 -1,0 -2,-1 -1,0 -2,0 -3,-1 0,1 0,2 0,3 -1,3 -1,6 -2,9 0,3 -1,5 -1,8 -1,3 -1,6 -2,8 0,1 0,1 0,2 -1,2 -1,4 -1,6 -1,3 -2,6 -2,10 -1,2 -1,4 -2,7 0,1 0,2 0,4zm-8 -58l0 0c0,1 0,2 0,3 0,3 1,5 1,7 0,2 0,3 0,5 0,2 0,4 1,6 0,1 0,2 0,3 0,3 1,5 1,7 0,2 0,4 1,6 0,1 0,3 0,4 1,2 1,4 1,5 0,2 0,4 1,6 0,1 0,1 0,1 0,0 0,0 0,-1 0,-1 0,-3 0,-5 0,-1 0,-3 0,-4 0,-1 0,-2 0,-3 0,-2 0,-3 0,-5 0,-3 0,-6 0,-10 0,0 0,-1 0,-2 0,-1 0,-1 0,-2 0,-4 0,-8 1,-12 0,-3 0,-6 0,-8 0,-1 0,-1 0,-1 -2,0 -4,0 -7,0zm22 -8l0 0c1,0 1,0 1,-1 0,-2 1,-4 0,-7 0,-1 -1,-1 -2,-2 0,0 0,0 -1,0 -2,-1 -5,0 -5,3 -1,2 -1,4 -2,6 0,2 0,4 0,6 0,0 0,0 0,1 0,1 0,2 0,3 1,0 1,0 2,0 0,0 0,-1 0,-1 0,-4 0,-7 1,-11 0,-1 0,-1 0,-2 0,-1 1,-1 1,-2 2,-1 3,0 4,1 0,1 0,1 0,2 -1,1 0,2 0,3 0,1 0,1 1,1z"/>
   <path class="fil1" d="M8 76c0,-2 0,-3 0,-4 0,-2 0,-4 0,-6 0,-1 0,-2 0,-3 0,-2 0,-4 0,-6 0,-1 0,-2 0,-2 0,-5 0,-10 0,-15 0,-1 0,-3 0,-5 0,-2 0,-4 0,-7 1,-1 1,-3 1,-4 0,-1 0,-2 0,-3 0,0 0,-1 0,-1 3,2 6,2 9,0 0,1 0,1 0,1 0,3 -1,6 -1,9 -1,1 -1,3 -1,5 -1,2 -1,4 -2,7 0,3 -1,6 -2,10 -1,4 -1,8 -2,13 -1,3 -1,6 -2,8 0,1 0,2 0,3 0,0 0,0 0,0z"/>
   <path class="fil2" d="M9 77c0,-2 0,-3 0,-4 1,-3 1,-5 2,-7 0,-4 1,-7 2,-10 0,-2 0,-4 1,-6 0,-1 0,-1 0,-2 1,-2 1,-5 2,-8 0,-3 1,-5 1,-8 1,-3 1,-6 2,-9 0,-1 0,-2 0,-3 1,1 2,1 3,1 1,1 2,1 2,1 1,0 2,0 3,0 0,0 0,0 0,1 -1,3 -2,7 -3,10 -1,3 -2,5 -3,8 -1,2 -1,4 -2,6 -1,3 -2,7 -3,10 -1,4 -3,8 -4,12 -1,2 -2,4 -2,6 -1,1 -1,1 -1,2 0,0 0,0 0,0z"/>
   <path class="fil2" d="M1 19c3,0 5,0 7,0 0,0 0,0 0,1 0,2 0,5 0,8 -1,4 -1,8 -1,12 0,1 0,1 0,2 0,1 0,2 0,2 0,4 0,7 0,10 0,2 0,3 0,5 0,1 0,2 0,3 0,1 0,3 0,4 0,2 0,4 0,5 0,1 0,1 0,1 0,0 0,0 0,-1 -1,-2 -1,-4 -1,-6 0,-1 0,-3 -1,-5 0,-1 0,-3 0,-4 -1,-2 -1,-4 -1,-6 0,-2 -1,-4 -1,-7 0,-1 0,-2 0,-3 -1,-2 -1,-4 -1,-6 0,-2 0,-3 0,-5 0,-2 -1,-4 -1,-7 0,-1 0,-2 0,-3z"/>
   <path class="fil3" d="M23 11c-1,0 -1,0 -1,-1 0,-1 -1,-2 0,-3 0,-1 0,-1 0,-2 -1,-1 -2,-2 -4,-1 0,1 -1,1 -1,2 0,1 0,1 0,2 -1,4 -1,7 -1,11 0,0 0,1 0,1 -1,0 -1,0 -2,0 0,-1 0,-2 0,-3 0,-1 0,-1 0,-1 0,-2 0,-4 0,-6 1,-2 1,-4 2,-6 0,-3 3,-4 5,-3 1,0 1,0 1,0 1,1 2,1 2,2 1,3 0,5 0,7 0,1 0,1 -1,1z"/>
  </g>
 </g>
</svg>
