<?xml version="1.0" encoding="UTF-8"?>
<!DOCTYPE svg PUBLIC "-//W3C//DTD SVG 1.1//EN" "http://www.w3.org/Graphics/SVG/1.1/DTD/svg11.dtd">
<!-- Creator: CorelDRAW X7 -->
<svg xmlns="http://www.w3.org/2000/svg" xml:space="preserve" width="0.209295in" height="0.388181in" version="1.1" style="shape-rendering:geometricPrecision; text-rendering:geometricPrecision; image-rendering:optimizeQuality; fill-rule:evenodd; clip-rule:evenodd"
viewBox="0 0 12 22"
 xmlns:xlink="http://www.w3.org/1999/xlink">
 <defs>
  <style type="text/css">
   <![CDATA[
    .fil0 {fill:black;fill-rule:nonzero}
    .fil3 {fill:#756B3D;fill-rule:nonzero}
    .fil2 {fill:#837735;fill-rule:nonzero}
    .fil1 {fill:#DC3029;fill-rule:nonzero}
    .fil4 {fill:#EB4637;fill-rule:nonzero}
   ]]>
  </style>
 </defs>
 <g id="__x0023_Layer_x0020_1">
  <metadata id="CorelCorpID_0Corel-Layer"/>
  <g id="_145842396592">
   <path class="fil0" d="M3 0c-1,1 -1,3 -1,4 0,0 -1,-1 -1,-1 -1,0 -1,1 -1,2 0,2 0,3 1,4 -1,1 -1,2 -1,3 1,1 2,2 3,1 0,1 0,1 0,1 0,1 0,1 0,1 0,0 0,0 0,0 0,1 0,1 0,2 0,2 1,4 3,5 1,-1 1,-2 1,-3 1,0 3,0 4,0 0,0 0,-3 -2,-4 0,0 0,-2 0,-2 2,1 3,-1 3,-3 0,-2 -2,-2 -4,-2 1,-1 1,-5 0,-7 -1,0 -3,2 -3,2 0,-1 -2,-3 -2,-3z"/>
   <g>
    <path class="fil1" d="M11 9c1,1 1,2 0,3 0,1 -1,1 -2,1 0,-1 -1,-1 -2,-2 1,0 1,-1 1,-2 1,-1 2,-1 3,0zm-1 2l0 0c0,0 0,0 0,0 0,0 0,0 0,0 0,1 0,1 0,1 0,0 0,-1 0,-1z"/>
    <path class="fil2" d="M11 18c0,0 0,1 0,1 0,0 -1,0 -1,-1 0,0 0,0 1,0z"/>
    <path class="fil2" d="M10 18c0,0 1,0 1,0 -1,0 -1,0 -1,0 0,0 0,0 0,0 0,0 0,0 0,0z"/>
    <path class="fil3" d="M10 19c-1,0 -2,0 -3,-1 0,0 0,-1 0,-2 0,0 0,0 0,0 1,1 3,2 3,3z"/>
    <path class="fil2" d="M10 17c0,0 0,0 0,1 0,0 0,0 -1,0 0,-1 0,-1 0,-1 0,0 1,0 1,0z"/>
    <path class="fil2" d="M10 16c0,1 0,1 0,1 0,0 -1,0 -1,0 0,0 -1,0 -1,-1 1,0 1,0 2,0z"/>
    <path class="fil2" d="M9 16c0,0 0,0 0,0 0,0 0,0 -1,0 0,0 0,0 0,0 0,0 1,0 1,0z"/>
    <path class="fil2" d="M8 15c1,0 1,0 1,1 0,0 -1,0 -1,0 0,0 0,-1 0,-1z"/>
    <path class="fil3" d="M8 5c0,0 0,0 0,1 0,0 -1,1 -2,1 0,0 0,-1 0,-1 1,0 2,-1 2,-1z"/>
    <path class="fil3" d="M8 4c0,0 0,0 0,1 0,0 -1,0 -2,1 0,-1 1,-1 1,-1 0,0 1,-1 1,-1z"/>
    <path class="fil3" d="M8 6c0,0 0,1 0,1 0,0 -1,0 -1,0 0,0 0,0 -1,0 1,0 2,-1 2,-1z"/>
    <path class="fil4" d="M7 11c1,1 2,2 1,4 -1,1 -2,2 -3,1 -1,0 -2,-1 -2,-3 1,0 1,-1 1,-1 1,-1 2,-1 3,-1zm0 3l0 0c0,0 0,0 0,0 0,-1 0,0 -1,0 0,0 0,1 0,1 1,0 1,0 1,-1z"/>
    <path class="fil3" d="M8 3c0,0 0,0 0,1 0,0 -1,0 -1,1 0,-1 0,-1 0,-1 0,-1 1,-1 1,-1z"/>
    <path class="fil3" d="M8 7c0,1 0,1 0,1 0,0 -1,0 -1,0 0,-1 1,-1 1,-1z"/>
    <path class="fil3" d="M8 2c0,0 0,0 0,1 0,0 -1,0 -1,0 0,0 0,-1 1,-1z"/>
    <path class="fil4" d="M7 8c1,1 1,2 0,3 -1,0 -2,0 -3,0 0,0 0,-1 -1,-1 0,-1 1,-2 1,-2 1,-1 3,-1 3,0zm-2 0l0 0c0,0 0,0 0,0 0,0 0,0 0,0 0,0 0,0 0,0 0,0 0,0 0,0z"/>
    <path class="fil2" d="M7 16c1,3 -1,5 -1,6 -1,-2 -1,-4 -1,-6 1,1 1,1 2,0z"/>
    <path class="fil2" d="M7 2c0,1 -1,3 -1,5 -1,0 -1,0 -2,0 0,0 0,0 0,-1 0,-2 3,-4 3,-4z"/>
    <path class="fil3" d="M5 21c1,0 1,0 1,1 -1,0 -1,-1 -1,-1 0,0 0,0 0,0z"/>
    <path class="fil3" d="M5 20c0,0 0,0 0,1 0,0 0,0 0,0 0,0 0,0 0,0 0,0 0,-1 0,-1z"/>
    <path class="fil3" d="M5 21c0,-1 0,-1 0,-1 0,0 0,-1 0,-1 0,1 0,1 -1,1 0,0 0,1 1,1z"/>
    <path class="fil3" d="M4 20c0,0 1,-1 1,-1 0,0 0,0 0,-1 0,1 -1,1 -1,2 0,0 0,0 0,0z"/>
    <path class="fil3" d="M4 20c0,-1 1,-2 1,-2 0,0 0,0 0,-1 0,1 -1,2 -2,2 1,0 1,0 1,1z"/>
    <path class="fil3" d="M3 18l0 0c0,1 0,1 0,1 1,-1 2,-1 2,-2 0,0 0,0 0,-1 0,1 -1,2 -2,2 0,0 0,0 0,0l0 0z"/>
    <path class="fil3" d="M4 16c0,0 0,1 -1,1 0,1 0,1 0,1 1,-1 1,-1 2,-2 0,0 -1,0 -1,0z"/>
    <path class="fil3" d="M4 15c-1,1 -1,2 -1,2 0,0 1,-1 1,-1 0,0 0,-1 0,-1z"/>
    <path class="fil3" d="M3 1c1,0 1,1 2,3 -1,0 -1,1 -1,1 0,-1 0,-2 0,-2 0,0 -1,1 0,3 -1,-1 -1,-1 -1,-1 0,-2 0,-4 0,-4z"/>
    <path class="fil2" d="M4 7c0,0 0,0 0,0 0,1 -1,1 -1,1 0,0 0,0 0,0 0,0 0,-1 1,-1z"/>
    <path class="fil1" d="M4 10c0,1 0,2 0,2 -1,1 -2,1 -3,1 0,0 -1,-2 0,-2 0,-1 0,-1 0,-1 1,-1 2,0 3,0zm-1 1l0 0c0,0 0,-1 -1,-1 0,0 0,0 0,0 0,1 0,1 0,1 0,0 1,0 1,0z"/>
    <path class="fil2" d="M3 6c0,0 0,0 1,0 -1,1 -1,1 -1,2 0,0 0,0 0,-1 0,0 0,0 0,-1z"/>
    <path class="fil2" d="M3 5c0,1 0,1 0,1 0,0 0,1 0,1 0,0 -1,0 -1,0 1,-1 1,-1 1,-2z"/>
    <path class="fil3" d="M3 9c0,0 0,0 0,0 0,0 -1,0 -1,0 -2,-1 -1,-5 -1,-6 0,1 1,4 2,6z"/>
    <path class="fil2" d="M2 5c1,0 1,0 1,0 0,1 -1,1 -1,1 0,0 0,0 0,0 0,-1 0,-1 0,-1z"/>
    <path class="fil2" d="M2 4c0,0 0,1 0,1 0,0 0,0 0,1 0,-1 0,-1 0,-1 0,0 0,0 0,-1z"/>
    <path class="fil2" d="M2 4c0,0 0,1 0,1 -1,-1 -1,-1 -1,-2 0,1 1,1 1,1z"/>
   </g>
  </g>
 </g>
</svg>
