<?xml version="1.0" encoding="UTF-8"?>
<!DOCTYPE svg PUBLIC "-//W3C//DTD SVG 1.1//EN" "http://www.w3.org/Graphics/SVG/1.1/DTD/svg11.dtd">
<!-- Creator: CorelDRAW X7 -->
<svg xmlns="http://www.w3.org/2000/svg" xml:space="preserve" width="0.170756in" height="0.256906in" version="1.1" style="shape-rendering:geometricPrecision; text-rendering:geometricPrecision; image-rendering:optimizeQuality; fill-rule:evenodd; clip-rule:evenodd"
viewBox="0 0 14 21"
 xmlns:xlink="http://www.w3.org/1999/xlink">
 <defs>
  <style type="text/css">
   <![CDATA[
    .fil0 {fill:#020200;fill-rule:nonzero}
    .fil2 {fill:#BD9870;fill-rule:nonzero}
    .fil1 {fill:#C12531;fill-rule:nonzero}
    .fil3 {fill:#E0B272;fill-rule:nonzero}
    .fil4 {fill:#EFA91B;fill-rule:nonzero}
   ]]>
  </style>
 </defs>
 <g id="__x0023_Layer_x0020_1">
  <metadata id="CorelCorpID_0Corel-Layer"/>
  <g id="_145763652000">
   <path class="fil0" d="M10 11c0,0 0,1 0,1 0,1 1,1 1,1 0,1 1,1 1,2 1,0 1,0 1,1 0,1 0,2 0,2 0,1 -1,2 -2,2 0,0 0,0 0,0 -1,1 -2,1 -3,0 0,-1 -1,-1 -1,-2 0,-1 0,-3 0,-4 0,0 0,-1 -1,-2 0,0 -1,0 -1,0 -2,1 -3,1 -4,0 0,0 -1,0 -1,0 0,-1 0,-2 0,-3 0,-1 0,-2 1,-3 0,-1 0,-2 0,-3 1,0 1,-1 2,-2 0,-1 1,-1 2,-1 1,0 2,0 2,1 1,0 1,0 2,0 0,1 0,1 0,1 1,1 2,1 3,2 0,1 1,2 2,3 0,1 0,1 -1,2 -1,0 -2,1 -3,1 0,1 0,1 0,1zm-3 0l0 0c1,0 2,-1 3,-1 1,-1 1,-1 2,-1 1,-1 1,-1 1,-2 0,0 0,-1 -1,-1 0,0 0,-1 -1,-1 -1,-1 -2,-3 -3,-3 -1,-1 -1,-1 -2,-1 -2,-1 -3,0 -3,1 -1,1 -1,2 -2,3 0,1 0,2 0,3 0,1 0,2 -1,2 0,1 1,1 1,1 0,1 1,1 1,1 1,0 1,0 2,0 1,0 2,0 3,-1zm0 1l0 0c0,1 0,1 0,2 0,1 0,2 0,3 1,1 1,2 2,2 0,1 1,1 2,1 1,0 2,-1 2,-2 0,-2 -1,-3 -2,-4 -1,-1 -1,-1 -2,-2 0,0 0,-1 0,-1 -1,0 -1,1 -2,1z"/>
   <path class="fil1" d="M7 11c-1,1 -2,1 -3,1 -1,0 -1,0 -2,0 0,0 -1,0 -1,-1 0,0 -1,0 -1,-1 1,0 1,-1 1,-2 0,-1 0,-2 0,-3 1,-1 1,-2 2,-3 0,-1 1,-2 3,-1 1,0 1,0 2,1 1,0 2,2 3,3 1,0 1,1 1,1 1,0 1,1 1,1 0,1 0,1 -1,2 -1,0 -1,0 -2,1 -1,0 -2,1 -3,1zm-2 -4l0 0c0,1 0,1 0,1 1,1 2,1 2,1 1,0 1,0 1,-1 0,0 0,-1 0,-1 -1,0 -1,0 -1,0 -1,0 -1,0 -2,0zm-2 3l0 0c1,0 1,0 1,-1 0,0 0,-1 -1,-1 0,0 -1,0 -1,1 0,1 1,2 1,1zm8 -2l0 0c0,-1 0,-1 0,-1 0,-1 0,-1 -1,-1 -1,0 -1,0 -1,1 0,1 1,1 2,1zm-5 -4l0 0c1,0 1,1 1,1 0,0 1,0 1,0 1,0 1,-1 0,-2 -1,0 -1,0 -2,1zm-2 0l0 0c-1,0 -1,1 -1,1 0,1 1,1 1,1 1,0 1,-1 1,-1 0,-1 -1,-1 -1,-1zm1 -1l0 0c0,0 0,0 0,0 1,0 1,-1 1,-1 -1,0 -1,0 -1,0 0,0 0,0 0,0 0,0 0,0 0,1zm0 0l0 0c0,0 0,0 0,0 0,0 0,0 0,0 0,0 0,0 0,0 0,0 0,0 0,0z"/>
   <path class="fil2" d="M7 12c1,0 1,-1 2,-1 0,0 0,1 0,1 1,1 1,1 2,2 1,1 2,2 2,4 0,1 -1,2 -2,2 -1,0 -2,0 -2,-1 -1,0 -1,-1 -2,-2 0,-1 0,-2 0,-3 0,-1 0,-1 0,-2z"/>
   <path class="fil0" d="M5 7c1,0 1,0 2,0 0,0 0,0 1,0 0,0 0,1 0,1 0,1 0,1 -1,1 0,0 -1,0 -2,-1 0,0 0,0 0,-1zm1 1l0 0c0,1 1,1 1,1 0,0 1,-1 0,-1 0,-1 0,-1 -1,-1 0,0 0,0 0,1z"/>
   <path class="fil0" d="M3 10c0,1 -1,0 -1,-1 0,-1 1,-1 1,-1 1,0 1,1 1,1 0,1 0,1 -1,1zm0 -1l0 0c0,0 0,0 0,0 0,0 -1,0 -1,0 0,1 1,1 1,1 1,0 1,-1 0,-1z"/>
   <path class="fil0" d="M11 8c-1,0 -2,0 -2,-1 0,-1 0,-1 1,-1 1,0 1,0 1,1 0,0 0,0 0,1zm-1 -1l0 0c1,0 1,0 1,0 -1,-1 -1,-1 -1,-1 0,1 0,1 0,1z"/>
   <path class="fil0" d="M6 4c1,-1 1,-1 2,-1 1,1 1,2 0,2 0,0 -1,0 -1,0 0,0 0,-1 -1,-1zm2 0l0 0c0,0 0,0 0,-1 -1,0 -1,0 -1,1 0,0 0,0 0,0 0,1 1,1 1,1 0,0 0,-1 0,-1z"/>
   <path class="fil0" d="M4 4c0,0 1,0 1,1 0,0 0,1 -1,1 0,0 -1,0 -1,-1 0,0 0,-1 1,-1zm0 2l0 0c1,0 1,-1 1,-1 0,0 0,-1 -1,-1 0,0 0,0 0,0 -1,1 -1,1 0,2z"/>
   <path class="fil0" d="M5 3c0,-1 0,-1 0,-1 0,0 0,0 0,0 0,0 0,0 1,0 0,0 0,1 -1,1 0,0 0,0 0,0zm0 -1l0 0c0,0 0,0 0,0 0,1 0,1 0,0 0,0 0,0 0,0z"/>
   <path class="fil0" d="M5 3c0,0 0,0 0,0 0,0 0,0 0,0 0,0 0,0 0,0 0,0 0,0 0,0z"/>
   <path class="fil3" d="M6 8c0,-1 0,-1 0,-1 1,0 1,0 1,1 1,0 0,1 0,1 0,0 -1,0 -1,-1z"/>
   <path class="fil3" d="M3 9c1,0 1,1 0,1 0,0 -1,0 -1,-1 0,0 1,0 1,0 0,0 0,0 0,0z"/>
   <path class="fil3" d="M10 7c0,0 0,0 0,-1 0,0 0,0 1,1 0,0 0,0 -1,0z"/>
   <path class="fil3" d="M8 4c0,0 0,1 0,1 0,0 -1,0 -1,-1 0,0 0,0 0,0 0,-1 0,-1 1,-1 0,1 0,1 0,1z"/>
   <path class="fil3" d="M4 6c-1,-1 -1,-1 0,-2 0,0 0,0 0,0 1,0 1,1 1,1 0,0 0,1 -1,1z"/>
   <path class="fil4" d="M5 2c0,0 0,0 0,0 0,1 0,1 0,0 0,0 0,0 0,0z"/>
  </g>
 </g>
</svg>
