<?xml version="1.0" encoding="UTF-8"?>
<!DOCTYPE svg PUBLIC "-//W3C//DTD SVG 1.1//EN" "http://www.w3.org/Graphics/SVG/1.1/DTD/svg11.dtd">
<!-- Creator: CorelDRAW X7 -->
<svg xmlns="http://www.w3.org/2000/svg" xml:space="preserve" width="0.440094in" height="0.430228in" version="1.1" style="shape-rendering:geometricPrecision; text-rendering:geometricPrecision; image-rendering:optimizeQuality; fill-rule:evenodd; clip-rule:evenodd"
viewBox="0 0 109 106"
 xmlns:xlink="http://www.w3.org/1999/xlink">
 <defs>
  <style type="text/css">
   <![CDATA[
    .fil0 {fill:#020200;fill-rule:nonzero}
    .fil2 {fill:#C12531;fill-rule:nonzero}
    .fil3 {fill:#E55E2D;fill-rule:nonzero}
    .fil1 {fill:#EDA51F;fill-rule:nonzero}
    .fil4 {fill:#EF9D1E;fill-rule:nonzero}
    .fil5 {fill:#EFA91B;fill-rule:nonzero}
   ]]>
  </style>
 </defs>
 <g id="__x0023_Layer_x0020_1">
  <metadata id="CorelCorpID_0Corel-Layer"/>
  <g id="_145752695360">
   <path class="fil0" d="M88 13c0,1 0,2 0,2 1,6 2,11 5,16 1,3 3,6 5,8 3,3 5,6 8,9 1,0 2,1 3,2 -1,0 -1,1 -1,2 -2,2 -3,4 -5,7 -2,5 -4,10 -6,15 0,2 -1,3 -1,4 -1,4 -2,8 -1,11 0,1 0,1 0,1 -2,1 -4,1 -6,1 -6,1 -12,2 -17,4 -4,2 -8,5 -11,8 -2,1 -3,2 -4,3 -1,0 -1,0 -2,-1 -3,-3 -8,-5 -12,-8 -5,-2 -10,-3 -15,-5 -3,-1 -6,-1 -10,0 0,0 0,0 -1,0 0,0 0,0 0,-1 -1,-7 -3,-13 -5,-20 -3,-6 -7,-12 -12,-17 3,-3 5,-7 7,-11 2,-4 4,-8 5,-12 1,-4 1,-9 2,-13 1,0 2,0 3,0 3,-1 5,-2 8,-3 2,0 4,-1 5,-2 5,-3 11,-5 15,-10 1,-1 2,-2 4,-3 0,0 1,1 1,1 2,3 6,5 9,6 5,2 9,4 14,6 3,0 6,1 9,1 1,0 2,0 3,0 1,-1 2,-1 3,-1zm9 39l0 0c-1,0 -1,0 -2,0 -4,0 -8,0 -12,0 -1,0 -2,0 -3,0 -4,1 -9,1 -13,1 -4,0 -7,1 -11,1 4,5 10,9 15,14 6,6 15,13 16,14 0,-4 1,-7 2,-11 1,-3 2,-6 3,-9 2,-4 3,-7 5,-10zm0 -2l0 0c-1,0 -1,-1 -1,-1 -4,-3 -6,-7 -8,-10 -1,-3 -3,-6 -4,-8 -1,-3 -2,-5 -2,-8 0,0 -1,-1 -1,-1 -9,10 -17,19 -26,28 1,2 2,1 2,1 5,0 10,0 15,0 6,0 12,0 18,0 2,0 4,-1 7,-1zm-12 33l0 0c0,-1 0,-1 0,-1 -10,-9 -20,-17 -30,-26 0,0 0,0 0,0 0,0 -1,0 -1,1 1,4 1,8 1,13 0,4 1,7 1,11 0,1 0,1 0,1 0,3 0,7 1,10 0,1 -1,2 0,3 9,-6 18,-10 28,-12zm-29 13l0 0c0,-1 0,-1 0,-2 -1,-4 -1,-8 -1,-11 0,-2 0,-3 -1,-4 0,-4 0,-7 -1,-11 0,-2 0,-4 0,-6 0,-1 0,-3 0,-4 -1,0 -1,-1 -1,-2 -1,0 -1,0 -1,1 -1,1 -2,2 -3,3 -6,6 -11,11 -16,17 -2,2 -3,3 -5,5 0,0 0,1 -1,1 1,0 1,1 1,1 5,1 9,2 13,4 4,1 8,2 11,5 1,1 2,1 3,2 1,0 1,1 2,1zm-7 -86l0 0c-8,7 -17,12 -27,15 0,0 1,1 1,1 3,2 6,5 9,7 6,6 12,11 17,16 1,0 1,1 2,0 1,-1 1,-2 1,-3 0,0 -1,-1 -1,-2 0,-4 0,-9 0,-14 -1,-4 -1,-9 -1,-13 0,-2 -1,-4 -1,-5 0,-1 0,-1 0,-2zm1 0l0 0c1,4 1,7 1,9 0,2 1,4 1,6 0,2 0,4 0,6 1,5 1,9 1,14 1,1 1,2 1,4 1,-1 2,-1 2,-2 2,-2 3,-4 5,-6 6,-6 12,-13 18,-19 0,0 1,-1 1,-1 -11,-1 -20,-5 -30,-11zm0 44l0 0c-1,0 -1,0 -1,0 -3,0 -5,0 -7,0 -8,0 -16,0 -24,1 -2,0 -4,0 -6,0 6,8 11,17 13,27 2,-1 3,-3 5,-5 7,-7 13,-15 20,-22 0,0 0,-1 0,-1zm-38 0l0 0c1,0 2,-1 3,-1 6,0 12,0 19,0 4,-1 8,-1 12,-1 1,0 2,0 3,0 0,0 0,0 1,0 -1,-1 -2,-2 -2,-3 -5,-4 -10,-8 -15,-13 -1,0 -1,-1 -2,-2 -3,-2 -5,-4 -8,-7 0,0 -1,0 -1,0 -2,9 -4,18 -10,27zm12 30l0 0c0,-1 0,-2 -1,-3 0,-2 -1,-5 -2,-7 -2,-5 -4,-10 -7,-15 -1,-1 -3,-3 -4,-4 -2,0 -4,0 -6,0 0,0 0,1 0,1 0,0 0,0 0,0 3,4 6,8 8,12 3,6 5,12 6,19 0,1 0,1 1,2 2,-1 3,-3 5,-5zm-8 -62l0 0c0,2 -1,3 -1,5 -1,4 -2,9 -4,12 -2,3 -3,6 -5,9 -1,2 -2,3 -3,5 0,0 0,1 0,1 2,0 3,0 5,0 1,0 2,-1 3,-2 1,-1 2,-1 2,-2 3,-6 6,-13 7,-19 1,-2 1,-4 0,-6 -1,-1 -2,-2 -4,-3zm77 65l0 0c1,-13 5,-25 13,-35 -2,0 -3,-1 -5,0 -1,0 -2,0 -2,1 -2,2 -3,4 -5,6 -3,8 -5,15 -6,23 1,2 3,4 5,5zm-1 2l0 0c0,0 0,-1 0,-1 -1,-1 -2,-1 -3,-2 -1,-2 -2,-2 -4,-2 -1,0 -2,1 -2,1 -4,0 -7,2 -10,3 -4,1 -8,3 -12,6 -2,1 -3,2 -4,2 0,3 0,5 1,7 9,-9 21,-13 34,-14zm-36 10l0 0c-4,-4 -10,-7 -15,-10 -5,-2 -11,-4 -16,-4 -3,3 -4,3 -4,4 1,0 3,1 4,1 4,1 8,2 12,3 6,2 12,5 18,10 0,0 0,1 1,1 0,-2 0,-3 0,-5zm49 -49l0 0c0,0 0,0 0,-1 -10,-8 -16,-19 -20,-32 -1,1 -1,1 -3,4 0,0 0,0 0,0 1,4 2,8 4,12 2,4 5,8 7,11 2,2 3,4 6,6 0,0 1,0 1,0 2,0 4,0 5,0zm-57 -47l0 0c-9,8 -20,14 -32,17 1,1 3,2 4,3 10,-1 24,-9 29,-15 0,-1 -1,-3 -1,-5zm37 13l0 0c0,0 -1,-1 -1,-1 -1,0 -2,0 -4,0 -4,0 -8,-1 -12,-3 -6,-1 -11,-3 -17,-7 0,0 0,0 -1,0 0,1 0,3 0,4 10,6 20,10 31,11 1,-2 3,-3 4,-4zm-32 38l0 0c1,0 1,-1 1,-2 0,-1 -1,-1 -2,-1 0,0 -1,1 0,2 0,1 0,1 1,1z"/>
   <path class="fil1" d="M97 52c-2,3 -3,6 -5,10 -1,3 -2,6 -3,9 -1,4 -2,7 -2,11 -1,-1 -10,-8 -16,-14 -5,-5 -11,-9 -15,-14 4,0 7,-1 11,-1 4,0 9,0 13,-1 1,0 2,0 3,0 4,0 8,0 12,0 1,0 1,0 2,0z"/>
   <path class="fil2" d="M97 50c-3,0 -5,1 -7,1 -6,0 -12,0 -18,0 -5,0 -10,0 -15,0 0,0 -1,1 -2,-1 9,-9 17,-18 26,-28 0,0 1,1 1,1 0,3 1,5 2,8 1,2 3,5 4,8 2,3 4,7 8,10 0,0 0,1 1,1z"/>
   <path class="fil2" d="M85 83c-10,2 -19,6 -28,12 -1,-1 0,-2 0,-3 -1,-3 -1,-7 -1,-10 0,0 0,0 0,-1 0,-4 -1,-7 -1,-11 0,-5 0,-9 -1,-13 0,-1 1,-1 1,-1 0,0 0,0 0,0 10,9 20,17 30,26 0,0 0,0 0,1z"/>
   <path class="fil1" d="M56 96c-1,0 -1,-1 -2,-1 -1,-1 -2,-1 -3,-2 -3,-3 -7,-4 -11,-5 -4,-2 -8,-3 -13,-4 0,0 0,-1 -1,-1 1,0 1,-1 1,-1 2,-2 3,-3 5,-5 5,-6 10,-11 16,-17 1,-1 2,-2 3,-3 0,-1 0,-1 1,-1 0,1 0,2 1,2 0,1 0,3 0,4 0,2 0,4 0,6 1,4 1,7 1,11 1,1 1,2 1,4 0,3 0,7 1,11 0,1 0,1 0,2z"/>
   <path class="fil2" d="M49 10c0,1 0,1 0,2 0,1 1,3 1,5 0,4 0,9 1,13 0,5 0,10 0,14 0,1 1,2 1,2 0,1 0,2 -1,3 -1,1 -1,0 -2,0 -5,-5 -11,-10 -17,-16 -3,-2 -6,-5 -9,-7 0,0 -1,-1 -1,-1 10,-3 19,-8 27,-15z"/>
   <path class="fil1" d="M50 10c10,6 19,10 30,11 0,0 -1,1 -1,1 -6,6 -12,13 -18,19 -2,2 -3,4 -5,6 0,1 -1,1 -2,2 0,-2 0,-3 -1,-4 0,-5 0,-9 -1,-14 0,-2 0,-4 0,-6 0,-2 -1,-4 -1,-6 0,-2 0,-5 -1,-9z"/>
   <path class="fil2" d="M50 54c0,0 0,1 0,1 -7,7 -13,15 -20,22 -2,2 -3,4 -5,5 -2,-10 -7,-19 -13,-27 2,0 4,0 6,0 8,-1 16,-1 24,-1 2,0 4,0 7,0 0,0 0,0 1,0z"/>
   <path class="fil1" d="M12 54c6,-9 8,-18 10,-27 0,0 1,0 1,0 3,3 5,5 8,7 1,1 1,2 2,2 5,5 10,9 15,13 0,1 1,2 2,3 -1,0 -1,0 -1,0 -1,0 -2,0 -3,0 -4,0 -8,0 -12,1 -7,0 -13,0 -19,0 -1,0 -2,1 -3,1z"/>
   <path class="fil3" d="M24 84c-2,2 -3,4 -5,5 -1,-1 -1,-1 -1,-2 -1,-7 -3,-13 -6,-19 -2,-4 -5,-8 -8,-12 0,0 0,0 0,0 0,0 0,-1 0,-1 2,0 4,0 6,0 1,1 3,3 4,4 3,5 5,10 7,15 1,2 2,5 2,7 1,1 1,2 1,3z"/>
   <path class="fil4" d="M16 22c2,1 3,2 4,3 1,2 1,4 0,6 -1,6 -4,13 -7,19 0,1 -1,1 -2,2 -1,1 -2,2 -3,2 -2,0 -3,0 -5,0 0,0 0,-1 0,-1 1,-2 2,-3 3,-5 2,-3 3,-6 5,-9 2,-3 3,-8 4,-12 0,-2 1,-3 1,-5z"/>
   <path class="fil4" d="M93 87c-2,-1 -4,-3 -5,-5 1,-8 3,-15 6,-23 2,-2 3,-4 5,-6 0,-1 1,-1 2,-1 2,-1 3,0 5,0 -8,10 -12,22 -13,35z"/>
   <path class="fil3" d="M92 89c-13,1 -25,5 -34,14 -1,-2 -1,-4 -1,-7 1,0 2,-1 4,-2 4,-3 8,-5 12,-6 3,-1 6,-3 10,-3 0,0 1,-1 2,-1 2,0 3,0 4,2 1,1 2,1 3,2 0,0 0,1 0,1z"/>
   <path class="fil4" d="M56 99c0,2 0,3 0,5 -1,0 -1,-1 -1,-1 -6,-5 -12,-8 -18,-10 -4,-1 -8,-2 -12,-3 -1,0 -3,-1 -4,-1 0,-1 1,-1 4,-4 5,0 11,2 16,4 5,3 11,6 15,10z"/>
   <path class="fil3" d="M105 50c-1,0 -3,0 -5,0 0,0 -1,0 -1,0 -3,-2 -4,-4 -6,-6 -2,-3 -5,-7 -7,-11 -2,-4 -3,-8 -4,-12 0,0 0,0 0,0 2,-3 2,-3 3,-4 4,13 10,24 20,32 0,1 0,1 0,1z"/>
   <path class="fil3" d="M48 3c0,2 1,4 1,5 -5,6 -19,14 -29,15 -1,-1 -3,-2 -4,-3 12,-3 23,-9 32,-17z"/>
   <path class="fil4" d="M85 16c-1,1 -3,2 -4,4 -11,-1 -21,-5 -31,-11 0,-1 0,-3 0,-4 1,0 1,0 1,0 6,4 11,6 17,7 4,2 8,3 12,3 2,0 3,0 4,0 0,0 1,1 1,1z"/>
   <path class="fil5" d="M53 54c-1,0 -1,0 -1,-1 -1,-1 0,-2 0,-2 1,0 2,0 2,1 0,1 0,2 -1,2z"/>
  </g>
 </g>
</svg>
