<?xml version="1.0" encoding="UTF-8"?>
<!DOCTYPE svg PUBLIC "-//W3C//DTD SVG 1.1//EN" "http://www.w3.org/Graphics/SVG/1.1/DTD/svg11.dtd">
<!-- Creator: CorelDRAW X7 -->
<svg xmlns="http://www.w3.org/2000/svg" xml:space="preserve" width="0.37515in" height="0.194965in" version="1.1" style="shape-rendering:geometricPrecision; text-rendering:geometricPrecision; image-rendering:optimizeQuality; fill-rule:evenodd; clip-rule:evenodd"
viewBox="0 0 45 23"
 xmlns:xlink="http://www.w3.org/1999/xlink">
 <defs>
  <style type="text/css">
   <![CDATA[
    .fil0 {fill:#020200;fill-rule:nonzero}
    .fil1 {fill:#F8DCB2;fill-rule:nonzero}
   ]]>
  </style>
 </defs>
 <g id="__x0023_Layer_x0020_1">
  <metadata id="CorelCorpID_0Corel-Layer"/>
  <g id="_145756831568">
   <path class="fil0" d="M32 4c1,0 1,0 2,0 1,0 3,0 4,1 1,0 3,0 4,1 2,0 2,1 3,3 0,0 0,0 0,0 -1,2 -2,3 -4,3 0,0 0,0 0,1 0,0 0,0 0,0 1,0 1,1 2,1 0,1 0,3 0,4 -1,1 -3,2 -4,2 -3,1 -6,0 -9,-1 0,0 0,0 0,0 -1,1 -2,2 -3,3 -2,1 -5,1 -8,1 -2,0 -3,0 -4,-1 -1,0 -2,-1 -3,-1 -1,-1 -1,-1 -1,-2 0,0 -1,0 -1,-1 0,0 -1,0 -2,1 -1,0 -3,-1 -4,-1 -1,0 -2,-1 -2,-2 0,-1 0,-1 0,-2 1,0 1,-1 2,-1 -1,-1 -1,-1 -2,-1 -1,-1 -2,-2 -2,-3 0,0 0,-1 0,-1 1,-1 2,-2 3,-2 1,-1 2,-1 3,-1 0,0 0,0 0,0 1,0 0,-1 0,-1 1,-2 2,-3 3,-3 1,0 2,0 2,0 2,0 4,0 6,1 0,0 1,1 1,1 0,0 0,-1 0,-1 1,-1 1,-1 2,-2 2,0 3,0 5,0 1,0 3,0 4,1 1,0 1,0 1,0 1,1 2,2 2,3 0,0 0,0 0,0zm-3 14l0 0c0,0 0,0 0,0 2,1 4,1 5,1 2,0 3,0 4,0 1,0 2,0 3,-1 2,0 2,-3 1,-4 -1,0 -2,-1 -3,-1 -1,0 -2,0 -3,-1 0,0 0,0 0,0 1,0 1,0 1,0 2,0 3,-1 5,-1 0,0 1,0 1,-1 0,0 1,0 1,0 0,-1 0,-2 -1,-3 -2,-1 -5,-2 -8,-2 -1,0 -3,0 -4,0 -1,0 -1,0 -1,0 0,-1 1,0 1,-1 0,-2 0,-2 -1,-2 -1,0 -1,0 -1,-1 -2,0 -5,0 -7,0 -1,0 -2,0 -3,1 0,1 0,1 0,2 -1,0 -1,0 -1,0 -1,-1 -2,-1 -3,-2 -2,0 -3,0 -5,0 -1,0 -1,0 -2,1 -1,0 -1,1 -1,2 1,0 1,1 1,1 0,0 0,0 1,0 -1,0 -1,0 -1,0 -1,0 -2,0 -3,0 -1,0 -2,0 -3,1 -1,1 -2,2 0,4 0,0 0,0 0,0 1,0 2,1 3,1 1,0 1,0 1,1 0,0 0,0 0,0 -1,0 -2,0 -2,1 -1,0 -2,2 0,3 0,0 1,1 1,1 2,0 4,0 5,-1 1,0 1,0 1,0 1,0 1,0 0,1 0,0 0,1 1,1 0,1 1,2 2,2 1,1 3,1 5,1 1,0 1,0 2,0 2,1 4,0 6,-1 1,-1 2,-2 2,-3z"/>
   <path class="fil1" d="M29 18c0,1 -1,2 -2,3 -2,1 -4,2 -6,1 -1,0 -1,0 -2,0 -2,0 -4,0 -5,-1 -1,0 -2,-1 -2,-2 -1,0 -1,-1 -1,-1 1,-1 1,-1 0,-1 0,0 0,0 -1,0 -1,1 -3,1 -5,1 0,0 -1,-1 -1,-1 -2,-1 -1,-3 0,-3 0,-1 1,-1 2,-1 0,0 0,0 0,0 0,-1 0,-1 -1,-1 -1,0 -2,-1 -3,-1 0,0 0,0 0,0 -2,-2 -1,-3 0,-4 1,-1 2,-1 3,-1 1,0 2,0 3,0 0,0 0,0 1,0 -1,0 -1,0 -1,0 0,0 0,-1 -1,-1 0,-1 0,-2 1,-2 1,-1 1,-1 2,-1 2,0 3,0 5,0 1,1 2,1 3,2 0,0 0,0 1,0 0,-1 0,-1 0,-2 1,-1 2,-1 3,-1 2,0 5,0 7,0 0,1 0,1 1,1 1,0 1,0 1,2 0,1 -1,0 -1,1 0,0 0,0 1,0 1,0 3,0 4,0 3,0 6,1 8,2 1,1 1,2 1,3 0,0 -1,0 -1,0 0,1 -1,1 -1,1 -2,0 -3,1 -5,1 0,0 0,0 -1,0 0,0 0,0 0,0 1,1 2,1 3,1 1,0 2,1 3,1 1,1 1,4 -1,4 -1,1 -2,1 -3,1 -1,0 -2,0 -4,0 -1,0 -3,0 -5,-1 0,0 0,0 0,0z"/>
  </g>
 </g>
</svg>
