<?xml version="1.0" encoding="UTF-8"?>
<!DOCTYPE svg PUBLIC "-//W3C//DTD SVG 1.1//EN" "http://www.w3.org/Graphics/SVG/1.1/DTD/svg11.dtd">
<!-- Creator: CorelDRAW X7 -->
<svg xmlns="http://www.w3.org/2000/svg" xml:space="preserve" width="0.229752in" height="0.283484in" version="1.1" style="shape-rendering:geometricPrecision; text-rendering:geometricPrecision; image-rendering:optimizeQuality; fill-rule:evenodd; clip-rule:evenodd"
viewBox="0 0 26 32"
 xmlns:xlink="http://www.w3.org/1999/xlink">
 <defs>
  <style type="text/css">
   <![CDATA[
    .fil0 {fill:black;fill-rule:nonzero}
    .fil3 {fill:#38692F;fill-rule:nonzero}
    .fil2 {fill:#756B3D;fill-rule:nonzero}
    .fil4 {fill:#834C30;fill-rule:nonzero}
    .fil1 {fill:#8CAF52;fill-rule:nonzero}
    .fil5 {fill:#A57350;fill-rule:nonzero}
    .fil6 {fill:#D0312A;fill-rule:nonzero}
   ]]>
  </style>
 </defs>
 <g id="__x0023_Layer_x0020_1">
  <metadata id="CorelCorpID_0Corel-Layer"/>
  <g id="_145842384752">
   <path class="fil0" d="M1 27c0,1 1,1 1,2 0,0 1,1 1,1 1,1 1,1 2,2 1,0 1,0 1,0 3,1 5,0 7,0 2,0 5,0 6,-1 1,-1 2,-2 2,-3 1,0 1,-1 1,-2 0,-1 0,-1 1,-2 0,-1 0,-2 0,-2 0,-2 0,-4 -1,-6 0,0 0,-1 -1,-1 0,-1 0,-1 0,-1 -1,-1 -1,-1 -1,-1 0,0 1,-1 1,-1 0,0 1,-1 1,-1 0,0 1,0 1,0 0,-1 2,-2 2,-2 0,-1 1,-2 1,-3 0,0 -1,0 -2,0 -2,1 -4,1 -6,2 1,-1 1,-1 1,-2 0,-1 0,-4 -1,-6 -1,0 -4,2 -4,3 -1,1 -1,2 -2,2 0,1 -1,2 -1,3 0,0 0,-1 -1,-1 0,-1 -2,-2 -3,-1 0,0 0,1 0,1 0,0 0,0 0,1 1,1 1,1 1,2 1,1 1,1 1,2 0,0 0,1 0,1 -1,0 -2,0 -2,0 -1,0 -2,0 -3,0 -1,1 -2,2 -3,3 0,1 0,2 0,2 -1,2 -1,4 -1,6 0,1 1,2 1,3z"/>
   <g>
    <path class="fil1" d="M16 2c0,0 1,-1 1,-1 0,1 0,2 -1,3 0,-1 0,-1 0,-2z"/>
    <path class="fil1" d="M15 3c0,0 0,0 1,-1 0,1 0,2 0,2 0,1 0,2 0,2 -1,0 -1,-2 -1,-3z"/>
    <path class="fil1" d="M14 4c0,0 0,0 0,-1 1,1 1,3 2,4 -1,0 -1,1 -1,1 -1,-1 -1,-2 -1,-4z"/>
    <path class="fil2" d="M13 12c2,-2 4,-8 5,-11 0,2 1,7 -2,11 -1,0 -2,0 -3,0z"/>
    <path class="fil1" d="M18 9c2,-1 5,-2 6,-2 0,1 -4,3 -7,4 1,-1 1,-1 1,-2z"/>
    <path class="fil1" d="M13 6c0,0 0,-1 0,-1 1,1 1,2 2,3 -1,1 -1,1 -1,2 -1,-1 -1,-3 -1,-4z"/>
    <path class="fil3" d="M21 10c0,0 1,0 1,0 0,0 0,1 0,1 -1,0 -1,-1 -2,-1 0,0 1,0 1,0z"/>
    <path class="fil1" d="M12 8c0,-1 0,-1 0,-2 1,2 1,3 2,4 0,0 -1,1 -1,1 0,-1 -1,-2 -1,-3z"/>
    <path class="fil4" d="M8 6c1,0 1,0 1,0 0,1 0,1 -1,1 0,0 -1,0 -1,0 0,0 1,0 1,-1z"/>
    <path class="fil3" d="M20 10c0,1 1,1 2,1 -1,0 -1,0 -1,0 -1,0 -2,0 -2,0 0,0 0,-1 1,-1z"/>
    <path class="fil1" d="M11 9c0,0 1,-1 1,-1 0,1 0,2 1,3 0,1 -1,1 -1,2 0,-2 0,-3 -1,-4z"/>
    <path class="fil3" d="M19 11c0,0 1,0 2,1 -1,0 -1,0 -1,0 -1,0 -1,0 -2,-1 0,0 0,0 1,0z"/>
    <path class="fil5" d="M8 7c0,0 1,0 2,0 1,1 2,6 1,9 0,0 -1,0 -1,-1 0,-2 -1,-6 -2,-8z"/>
    <path class="fil3" d="M17 11c0,0 0,0 1,0 0,1 1,1 2,1 -1,0 -1,0 -1,0 -1,0 -1,0 -2,0 0,0 0,0 0,-1z"/>
    <path class="fil6" d="M19 24c1,0 3,-1 3,-2 0,-1 0,-1 0,-2 -1,1 -2,2 -2,2 1,0 2,-1 2,-2 0,-1 0,-1 0,-2 -1,1 -1,2 -2,2 1,-1 1,-1 2,-2 0,0 0,-1 0,-1 -1,0 -1,1 -2,1 1,-1 1,-1 2,-2 -1,0 -1,-1 -1,-1 -1,1 -1,1 -1,1 0,0 0,-1 1,-1 -1,-1 -1,-1 -1,-1 0,0 -1,1 -1,1 0,-1 1,-1 1,-1 -1,-1 -1,-1 -1,-1 0,0 0,1 -1,1 1,-1 1,-1 1,-1 -2,-1 -5,0 -7,0 0,1 -1,2 -1,2 1,0 1,0 1,0 0,1 -2,2 -4,0 1,0 1,0 1,0 0,0 0,-1 0,-1 0,0 -3,0 -4,0 -1,0 -1,0 -2,1 0,0 0,1 1,2 0,-1 -1,-1 -1,-2 -1,1 -1,1 -1,1 0,0 0,1 0,1 0,0 1,1 1,1 0,0 -1,-1 -1,-1 0,0 -1,1 -1,1 1,1 1,2 2,2 0,0 -1,-1 -2,-2 0,1 0,1 0,2 0,1 1,1 2,2 0,0 -2,-1 -2,-2 0,1 0,2 0,2 0,1 1,2 2,2 0,0 -1,0 -2,-1 0,0 0,1 0,1 0,0 1,1 2,1 -1,0 -2,0 -2,0 0,0 0,1 0,1 1,0 2,1 2,0 0,1 -1,1 -2,0 1,1 1,1 1,1 0,0 0,0 0,1 1,0 2,0 2,0 0,0 -1,0 -2,0 1,0 1,1 1,1 1,0 1,0 3,0 -1,0 -2,1 -3,1 1,0 1,1 2,1 1,0 1,0 2,0 0,0 -1,0 -2,0 2,1 4,1 6,0 3,0 7,1 9,-1 -1,0 -2,0 -2,0 0,0 1,0 2,-1 0,0 1,0 1,-1 -1,1 -2,1 -2,1 0,0 1,-1 2,-1 0,-1 0,-1 0,-2 0,1 -1,1 -2,1 1,0 2,0 3,-1 0,0 0,-1 0,-2 -1,1 -2,1 -2,1 0,0 1,0 2,-1 0,0 0,-1 0,-2 -1,1 -2,2 -3,2z"/>
   </g>
  </g>
 </g>
</svg>
