<?xml version="1.0" encoding="UTF-8"?>
<!DOCTYPE svg PUBLIC "-//W3C//DTD SVG 1.1//EN" "http://www.w3.org/Graphics/SVG/1.1/DTD/svg11.dtd">
<!-- Creator: CorelDRAW X7 -->
<svg xmlns="http://www.w3.org/2000/svg" xml:space="preserve" width="0.233673in" height="0.202669in" version="1.1" style="shape-rendering:geometricPrecision; text-rendering:geometricPrecision; image-rendering:optimizeQuality; fill-rule:evenodd; clip-rule:evenodd"
viewBox="0 0 106 92"
 xmlns:xlink="http://www.w3.org/1999/xlink">
 <defs>
  <style type="text/css">
   <![CDATA[
    .fil0 {fill:black;fill-rule:nonzero}
    .fil3 {fill:#6A4226;fill-rule:nonzero}
    .fil4 {fill:#9E5F3E;fill-rule:nonzero}
    .fil2 {fill:#B72211;fill-rule:nonzero}
    .fil1 {fill:#C5916F;fill-rule:nonzero}
   ]]>
  </style>
 </defs>
 <g id="__x0023_Layer_x0020_1">
  <metadata id="CorelCorpID_0Corel-Layer"/>
  <g id="_145842443024">
   <path class="fil0" d="M13 51c0,0 0,0 1,0 0,0 -1,8 -1,8 0,4 1,8 2,12 2,8 7,17 16,20 2,0 4,1 6,1 9,0 16,-6 19,-14 2,-4 2,-8 3,-12 0,-3 0,-8 -1,-12 1,0 1,0 1,0 0,2 1,4 1,5 0,2 0,3 1,5 1,3 2,7 5,9 4,5 12,6 17,2 4,-3 6,-8 6,-13 1,-4 1,-7 1,-11 -1,-2 -1,-4 -1,-6 0,-1 -1,-4 0,-5 0,-1 4,-1 5,-1 1,-1 3,-1 5,-2 3,-1 6,-3 7,-7 1,-8 -7,-15 -13,-19 -7,-5 -15,-7 -24,-5 -2,0 -4,1 -7,1 0,1 -4,3 -5,2 -3,-2 -6,-5 -9,-6 -8,-3 -18,-4 -26,-1 -6,3 -12,8 -15,14 -3,4 -5,10 -7,15 -1,7 1,15 8,18 1,1 3,2 5,2z"/>
   <g>
    <path class="fil1" d="M55 73c-4,17 -21,20 -31,9 -6,-6 -9,-23 -7,-31 9,0 24,1 38,-1 2,6 2,16 0,23z"/>
    <path class="fil1" d="M77 74c-5,1 -9,-2 -11,-6 -4,-6 -5,-19 -4,-28 7,1 16,1 24,0 2,25 0,33 -9,34z"/>
    <path class="fil2" d="M60 46c-17,3 -40,4 -47,2 -10,-2 -12,-8 -9,-19 2,-7 9,-25 27,-26 11,0 19,3 24,8 -5,4 -9,9 -11,13 -4,9 1,14 6,15 3,0 6,1 10,1 0,2 0,4 0,6zm-20 -2l0 0c1,1 2,1 3,0 2,-1 2,-2 1,-3 -1,-1 -2,-2 -3,-1 -2,1 -2,3 -1,4zm-26 -4l0 0c2,1 4,0 5,-2 1,-2 0,-4 -2,-6 -2,-1 -5,0 -5,3 -1,2 0,4 2,5zm14 -4l0 0c2,2 5,3 6,1 2,-1 3,-4 2,-6 -2,-2 -5,-2 -7,-1 -2,2 -2,4 -1,6zm-8 -11l0 0c2,2 5,2 7,-1 1,-2 1,-5 -1,-7 -3,-2 -6,-1 -7,1 -2,2 -1,6 1,7zm15 -9l0 0c1,2 4,2 6,1 1,-2 2,-4 1,-6 -2,-2 -4,-2 -6,-1 -2,1 -2,4 -1,6z"/>
    <path class="fil3" d="M43 43c-1,0 -2,0 -2,0 0,-1 0,-1 0,-2 1,0 2,0 2,1 0,0 0,1 0,1z"/>
    <path class="fil4" d="M98 35c-16,4 -39,3 -46,2 -5,0 -10,-4 -6,-12 3,-8 13,-15 27,-17 13,-1 24,7 28,15 3,5 4,11 -3,12z"/>
    <path class="fil3" d="M18 38c-1,1 -2,2 -4,1 -1,-1 -2,-2 -1,-4 0,-1 2,-1 3,-1 2,1 3,2 2,4z"/>
    <path class="fil3" d="M33 36c-1,1 -2,1 -3,0 -1,-1 0,-3 1,-4 1,-1 2,-1 3,0 1,1 1,3 -1,4z"/>
    <path class="fil3" d="M26 24c-1,1 -4,1 -5,0 -2,-1 -2,-3 -1,-4 1,-2 3,-2 5,-1 1,1 2,3 1,5z"/>
    <path class="fil3" d="M40 16c-1,1 -3,0 -4,-1 -1,-1 0,-3 1,-3 1,-1 2,-1 3,0 1,1 1,3 0,4z"/>
   </g>
  </g>
 </g>
</svg>
