<?xml version="1.0" encoding="UTF-8"?>
<!DOCTYPE svg PUBLIC "-//W3C//DTD SVG 1.1//EN" "http://www.w3.org/Graphics/SVG/1.1/DTD/svg11.dtd">
<!-- Creator: CorelDRAW X7 -->
<svg xmlns="http://www.w3.org/2000/svg" xml:space="preserve" width="0.327138in" height="0.322772in" version="1.1" style="shape-rendering:geometricPrecision; text-rendering:geometricPrecision; image-rendering:optimizeQuality; fill-rule:evenodd; clip-rule:evenodd"
viewBox="0 0 41 41"
 xmlns:xlink="http://www.w3.org/1999/xlink">
 <defs>
  <style type="text/css">
   <![CDATA[
    .fil0 {fill:black;fill-rule:nonzero}
    .fil6 {fill:#71491C;fill-rule:nonzero}
    .fil5 {fill:#B48040;fill-rule:nonzero}
    .fil4 {fill:#EE8E28;fill-rule:nonzero}
    .fil3 {fill:#F19233;fill-rule:nonzero}
    .fil1 {fill:#F6AD35;fill-rule:nonzero}
    .fil2 {fill:#F8BA34;fill-rule:nonzero}
   ]]>
  </style>
 </defs>
 <g id="__x0023_Layer_x0020_1">
  <metadata id="CorelCorpID_0Corel-Layer"/>
  <g id="_145756836240">
   <path class="fil0" d="M0 23c0,1 0,2 0,3 1,1 2,2 3,2 0,0 -1,2 -1,2 0,1 0,1 0,2 1,1 1,3 2,4 1,1 2,2 4,3 1,0 2,1 3,1 1,0 2,-1 3,-2 -1,1 0,2 1,2 1,1 2,1 3,1 2,0 4,-1 5,-3 0,0 1,1 1,1 0,0 1,0 1,0 2,0 3,0 4,0 1,-1 1,-1 2,-2 1,-1 1,-1 1,-1 0,-1 0,-2 0,-2 1,1 2,0 2,0 1,0 1,0 2,0 1,-1 2,-3 3,-4 0,-1 0,-2 0,-2 0,-1 0,-1 0,-1 0,0 -1,-1 -1,-1 2,0 3,-2 3,-4 1,-2 0,-5 -2,-5 0,0 1,-1 1,-1 0,-1 0,-1 0,-1 1,-1 1,-2 0,-3 0,-1 -1,-3 -2,-4 0,-1 -1,-1 -2,-1 0,0 0,-1 -1,-1 0,0 -1,0 -1,1 1,-3 -4,-5 -6,-5 0,0 -1,0 -1,0 0,0 -1,1 -1,1 0,-1 -1,-2 -1,-2 -1,-1 -2,-1 -2,-1 -1,0 -2,0 -2,0 -2,0 -5,1 -5,3 0,0 -1,-1 -1,-1 -1,0 -1,0 -1,0 -1,0 -2,0 -3,0 -1,1 -1,1 -1,1 -2,1 -4,3 -3,5 0,0 -1,0 -1,0 0,0 -1,0 -1,0 -1,1 -2,2 -3,3 0,2 -1,3 0,4 0,1 0,2 1,2 -3,1 -3,3 -3,6z"/>
   <g>
    <path class="fil1" d="M40 20c0,0 0,1 0,1 -1,0 -1,0 -2,0 1,0 2,0 2,0l0 0c0,1 0,1 0,1 0,0 -1,0 -2,0 1,0 1,0 2,1 0,0 0,0 0,1 -1,-1 -2,-1 -3,-1 1,0 2,1 3,1 0,0 0,0 -1,1 -1,-1 -1,-1 -2,-1 0,0 1,1 2,1 -1,0 -2,0 -3,0 -2,-1 -7,-2 -9,-3 -1,-1 -1,-3 0,-3 3,-1 8,-2 9,-2 2,0 4,0 4,1 -1,0 -2,0 -3,1 1,0 2,0 3,0 0,0 0,0 0,1 -1,0 -2,-1 -3,0 1,0 2,0 3,0z"/>
    <path class="fil2" d="M40 13c0,0 0,1 0,1 -1,0 -2,1 -2,1 0,0 1,-1 2,-1 0,1 -1,2 -3,2 -2,1 -8,2 -11,2 0,0 -2,-1 -1,-3 2,-3 6,-6 7,-7 2,-1 3,-1 4,-1 -1,1 -2,2 -2,3 1,-1 2,-2 2,-2 1,0 1,0 2,1 -1,0 -2,1 -3,1 1,0 2,-1 3,-1 0,0 0,1 1,1 -1,0 -2,1 -3,1 1,0 2,0 3,-1 0,0 0,1 0,1 -1,1 -1,1 -2,1 1,0 1,0 2,-1 0,1 1,1 1,2 -1,0 -2,0 -2,1 0,-1 1,-1 2,-1z"/>
    <path class="fil3" d="M36 26c1,0 3,1 2,2 -1,0 -2,-1 -3,-1 1,1 2,1 3,2 0,0 0,0 0,1 -1,-1 -2,-1 -2,-1 0,0 1,0 2,1 0,0 -1,1 -1,1 -1,-1 -1,-1 -2,-1 1,0 1,1 2,1 0,0 -1,1 -1,1 -1,0 -1,-1 -2,-1 1,0 1,1 2,1 0,1 0,1 -1,1 0,-1 -1,-1 -2,-2 1,1 1,1 2,2 0,0 0,0 -1,1 0,-1 -1,-1 -1,-2 0,1 1,1 1,2 -1,0 -2,0 -3,-1 -1,-2 -5,-5 -6,-7 -1,-2 1,-3 2,-3 2,0 7,2 9,3z"/>
    <path class="fil1" d="M33 5c1,1 1,2 -2,3 -1,1 -5,5 -7,7 -1,2 -3,0 -2,-1 0,-3 3,-7 3,-9 1,-2 2,-3 4,-2 0,1 -1,1 -1,2 0,-1 1,-2 1,-2 1,0 1,0 2,0 -1,1 -2,2 -2,2 1,0 1,-1 2,-2 0,1 0,1 1,1 -1,1 -2,2 -2,2 0,0 1,-1 2,-2 0,0 0,1 1,1 -1,1 -2,2 -3,2 1,0 2,-1 3,-2z"/>
    <path class="fil4" d="M30 32c1,1 2,3 1,4 -1,-1 -1,-2 -2,-2 1,1 1,1 2,2 0,0 -1,1 -1,1 -1,-2 -2,-3 -3,-4 1,1 2,3 3,4 -1,0 -1,0 -1,1 -1,-2 -2,-3 -2,-3 0,1 1,2 1,3 0,0 -1,0 -1,0 0,-1 -1,-1 -1,-2 0,1 0,2 1,2 -1,1 -1,1 -2,1 0,-1 0,-2 -1,-3 1,1 1,2 1,3 -1,0 -1,-1 -2,-2 -1,-2 -2,-6 -2,-9 1,0 2,-1 3,-1 2,1 5,4 6,5z"/>
    <path class="fil4" d="M26 19c-1,1 -1,2 0,3 -2,1 -2,3 -2,4 -1,0 -3,0 -3,2 -2,-1 -3,-1 -4,0 0,-2 -1,-3 -3,-4 0,-1 0,-3 -1,-5 1,0 1,0 1,0 1,1 2,1 2,2 1,1 1,3 1,4 1,-1 2,-1 4,1 0,-3 2,-4 3,-4 -1,-1 -2,-2 -2,-4 -1,1 -3,1 -3,0 0,0 -1,0 -1,0 0,0 -1,0 -1,-1 0,0 1,-1 1,-1 1,1 2,0 3,0 1,1 2,1 3,1 0,1 1,2 2,2z"/>
    <path class="fil3" d="M24 1c1,1 1,2 1,4 -1,2 -3,7 -4,9 0,3 -3,2 -3,0 -1,-2 -1,-7 -1,-9 -1,-2 -1,-3 1,-3 0,1 0,2 0,3 0,-1 0,-2 0,-3 0,-1 1,-1 1,-1 0,1 0,2 0,3 0,-1 0,-2 0,-3 1,0 1,0 2,0 0,1 -1,2 -1,3 1,-1 1,-2 1,-3 0,0 1,0 1,0 0,1 0,3 0,4 0,-1 0,-2 1,-4 0,0 0,0 1,0 0,1 -1,2 -1,3 0,-1 1,-2 1,-3z"/>
    <path class="fil5" d="M22 19c0,2 0,2 1,3 -2,1 -2,1 -2,3 -2,-1 -2,-1 -3,-1 0,-1 -1,-2 -2,-3 0,-2 -3,-5 -5,-6 1,-1 2,-2 2,-3 1,2 3,6 5,7 0,0 1,0 1,0 1,0 1,0 3,0z"/>
    <path class="fil2" d="M22 36c0,1 0,3 -1,3 0,-1 -1,-2 -1,-3 0,1 0,2 1,3 -1,1 -1,1 -2,1 0,-2 0,-3 0,-4 0,1 0,2 0,4 0,0 -1,0 -1,0 0,-1 0,-2 0,-3 0,1 0,2 0,3 -1,0 -1,0 -1,0 0,-1 0,-2 0,-3 0,1 -1,2 -1,3 0,0 0,0 0,0 0,-1 0,-2 0,-3 -1,1 -1,2 -1,3 -1,-1 -1,-2 0,-3 0,-2 1,-7 2,-9 1,0 3,0 3,0 1,2 2,6 2,8z"/>
    <path class="fil1" d="M17 14c0,1 0,2 -1,2 -1,-1 -2,-3 -2,-6 -1,0 -2,1 -3,2 -1,-1 -2,-2 -2,-2 -1,-1 -2,-2 -1,-3 0,0 1,1 1,1 0,-1 -1,-1 -1,-2 0,0 0,0 1,-1 0,1 1,2 1,2 0,0 -1,-1 -1,-2 0,0 0,0 0,0 1,0 1,1 2,2 -1,-1 -1,-2 -1,-3 0,0 0,0 0,0 1,1 1,1 2,2 -1,-1 -1,-2 -1,-2 0,-1 0,-1 1,-1 0,1 0,2 1,3 0,-1 -1,-2 -1,-3 0,0 1,0 1,0 0,0 1,1 1,2 0,-1 0,-1 -1,-2 1,0 2,0 3,2 0,2 1,7 1,9z"/>
    <path class="fil6" d="M13 11c0,0 0,1 -1,2 0,1 -1,1 -1,1 0,0 0,-1 1,-2 0,0 1,-1 1,-1z"/>
    <path class="fil4" d="M10 15c0,0 0,-1 1,-2 -1,-2 -3,-3 -3,-3 -1,-1 -2,-1 -3,-1 1,1 2,1 2,2 0,-1 -1,-1 -2,-2 0,0 0,1 -1,1 1,1 2,1 3,2 -1,-1 -2,-1 -3,-2 0,0 0,1 0,1 0,1 1,1 2,2 -1,0 -1,0 -1,0 0,0 -2,-2 -2,-2 0,1 0,1 0,1l2 2 -2 -1c0,0 0,0 0,1l2 0 -3 0c0,0 0,0 0,1 0,1 1,2 2,2 3,1 6,2 8,2 1,0 2,0 2,-1 -1,-1 -3,-2 -4,-3z"/>
    <path class="fil3" d="M16 27c0,-1 -2,-2 -4,-2 -1,0 -2,0 -2,0 -5,1 -8,4 -7,7l2 -1 -2 1c0,1 0,1 1,1l2 -1 -2 1c0,1 0,1 0,1l2 -1 -2 1c1,1 1,1 1,1 0,0 0,0 0,0l2 -1 -2 1c1,1 1,1 1,1l2 -1 -2 1c1,1 1,1 1,1 1,0 1,-1 1,-1 0,0 0,1 0,1 0,1 0,1 0,1l0 0c1,0 1,-1 2,-2 -1,1 -1,2 -1,2 0,0 0,0 1,1 0,-1 0,-2 1,-2 0,0 -1,1 -1,2 0,0 1,0 1,0 0,-1 1,-2 1,-2 0,0 0,1 -1,2 1,0 2,-1 3,-2 0,-2 2,-8 2,-10z"/>
    <path class="fil1" d="M12 20c-1,0 -5,-1 -8,-2 0,0 -2,-1 -3,2l2 0 -2 0c0,0 0,0 0,0 0,0 0,1 0,1l2 0 -2 0c0,0 0,1 0,1l2 0 -2 0c0,0 0,1 0,1l2 0 -2 1c0,0 0,0 0,1l3 -1 -3 1c0,0 0,1 0,1l4 -1 -3 1c0,0 0,1 0,1 2,1 3,-2 7,-2 2,-1 3,-1 4,-1 1,-1 1,-3 -1,-4z"/>
   </g>
  </g>
 </g>
</svg>
