<?xml version="1.0" encoding="UTF-8"?>
<!DOCTYPE svg PUBLIC "-//W3C//DTD SVG 1.1//EN" "http://www.w3.org/Graphics/SVG/1.1/DTD/svg11.dtd">
<!-- Creator: CorelDRAW X7 -->
<svg xmlns="http://www.w3.org/2000/svg" xml:space="preserve" width="0.156453in" height="0.178571in" version="1.1" style="shape-rendering:geometricPrecision; text-rendering:geometricPrecision; image-rendering:optimizeQuality; fill-rule:evenodd; clip-rule:evenodd"
viewBox="0 0 8 9"
 xmlns:xlink="http://www.w3.org/1999/xlink">
 <defs>
  <style type="text/css">
   <![CDATA[
    .fil2 {fill:#F1DE4E;fill-rule:nonzero}
    .fil1 {fill:#F9AD24;fill-rule:nonzero}
    .fil0 {fill:black;fill-rule:nonzero}
   ]]>
  </style>
 </defs>
 <g id="__x0023_Layer_x0020_1">
  <metadata id="CorelCorpID_0Corel-Layer"/>
  <g id="_145757186944">
   <path class="fil0" d="M0 0c-1,3 3,9 7,9 1,-2 1,-7 1,-9 -2,0 -6,0 -8,0z"/>
   <path class="fil1" d="M7 1c-1,1 -2,3 -3,5 0,-1 -1,-1 -1,-2 1,-1 2,-2 4,-3z"/>
   <path class="fil1" d="M2 4c0,0 0,-1 -1,-2 2,0 4,-1 5,-1 -1,1 -2,2 -4,3z"/>
   <path class="fil1" d="M7 1c0,2 -1,4 -1,6 -1,-1 -1,-1 -2,-1 1,-2 2,-4 3,-5z"/>
   <path class="fil1" d="M7 0c-2,1 -4,2 -6,2 0,-1 0,-1 0,-2 2,1 4,0 6,0z"/>
   <path class="fil2" d="M0 0l1 0c0,4 3,7 6,8 0,0 0,0 0,0 -3,0 -7,-3 -7,-8z"/>
   <path class="fil1" d="M7 7c0,0 -1,0 -1,0 0,-2 1,-5 1,-6 0,1 0,5 0,6z"/>
  </g>
 </g>
</svg>
