<?xml version="1.0" encoding="UTF-8"?>
<!DOCTYPE svg PUBLIC "-//W3C//DTD SVG 1.1//EN" "http://www.w3.org/Graphics/SVG/1.1/DTD/svg11.dtd">
<!-- Creator: CorelDRAW X7 -->
<svg xmlns="http://www.w3.org/2000/svg" xml:space="preserve" width="0.432252in" height="0.457039in" version="1.1" style="shape-rendering:geometricPrecision; text-rendering:geometricPrecision; image-rendering:optimizeQuality; fill-rule:evenodd; clip-rule:evenodd"
viewBox="0 0 127 134"
 xmlns:xlink="http://www.w3.org/1999/xlink">
 <defs>
  <style type="text/css">
   <![CDATA[
    .fil0 {fill:#020200;fill-rule:nonzero}
    .fil3 {fill:#976B58;fill-rule:nonzero}
    .fil2 {fill:#B3573B;fill-rule:nonzero}
    .fil1 {fill:#F9AD24;fill-rule:nonzero}
   ]]>
  </style>
 </defs>
 <g id="__x0023_Layer_x0020_1">
  <metadata id="CorelCorpID_0Corel-Layer"/>
  <g id="_145763687456">
   <path class="fil0" d="M70 13c2,-5 2,-9 4,-13 2,0 3,0 3,2 0,4 0,8 0,12 1,0 1,1 2,1 3,0 6,1 8,3 3,1 6,2 9,4 8,4 14,10 19,17 2,3 4,6 5,10 4,7 6,15 7,23 0,2 0,5 0,7 -1,1 -2,1 -2,0 -5,-2 -10,-2 -14,2 -1,1 -1,1 -2,2 -1,-1 -2,-1 -2,-1 -5,-4 -10,-3 -14,-1 0,0 -1,0 -1,1 -1,1 -2,1 -3,2 0,0 -1,-1 -2,-2 -2,-2 -5,-4 -8,-4 -3,0 -5,1 -8,2 0,1 -1,2 -1,2 0,4 -1,8 -1,12 -1,3 -1,6 -2,9 -1,6 -2,12 -2,19 -1,3 -2,6 -4,8 -2,3 -5,4 -8,4 -3,0 -6,0 -8,-1 -5,-2 -7,-6 -8,-11 -1,-5 0,-10 2,-15 1,-4 4,-5 7,-3 0,0 1,1 1,1 1,1 1,2 1,2 0,4 0,7 0,11 0,2 0,3 2,4 2,1 3,-1 4,-2 0,-2 1,-3 1,-4 1,-7 2,-13 3,-20 1,-7 1,-13 2,-20 -1,0 -2,0 -3,0 -2,1 -5,1 -7,2 0,1 -1,1 -2,1 -1,-4 -4,-5 -7,-7 0,0 -1,0 -1,0 -2,-1 -5,-1 -7,-1 -2,0 -3,1 -4,2 0,0 -1,0 -2,1 -2,-4 -4,-6 -7,-7 -4,-1 -7,-1 -10,1 -5,-6 -4,-5 -10,-7 0,-1 0,-2 0,-2 2,-6 5,-11 8,-16 6,-9 13,-16 22,-21 5,-3 10,-5 15,-7 4,-2 10,-3 15,-3 3,0 6,1 9,1 0,0 1,0 1,0zm0 2l0 0c-1,0 -1,0 -1,0 -1,0 -1,0 -2,1 -6,2 -10,6 -14,11 -2,2 -4,4 -5,7 -5,6 -9,13 -12,20 -2,4 -4,9 -6,14 0,0 0,1 0,2 1,0 3,-1 4,-1 5,0 9,1 13,4 1,1 1,2 2,2 1,-11 5,-21 8,-31 3,-10 7,-19 13,-29zm0 62l0 0c0,-1 0,-2 0,-2 1,-3 1,-5 1,-8 1,-8 2,-16 2,-24 0,-7 0,-13 0,-19 0,-3 0,-5 0,-7 0,-1 0,-1 -1,-2 0,1 0,1 0,1 -2,2 -3,4 -5,6 -3,6 -6,13 -8,19 0,2 -1,4 -2,7 -1,4 -2,9 -4,14 0,4 -1,8 -1,12 -1,0 0,1 -1,1 4,0 7,-2 10,-1 3,0 6,1 9,3zm9 -60l0 0c1,1 1,1 1,2 1,3 2,6 3,10 2,3 3,7 4,10 2,5 2,11 3,16 1,7 2,15 1,23 0,0 1,1 1,1 5,-4 11,-2 16,1 0,-2 0,-4 0,-6 0,-8 -2,-16 -5,-23 -2,-5 -4,-10 -6,-14 -2,-5 -4,-8 -7,-12 -1,0 -1,0 -1,-1 -1,-2 -3,-3 -5,-5 -1,-1 -3,-2 -5,-2zm-15 -2l0 0c-1,0 -1,0 -1,0 -6,0 -11,2 -15,5 -3,2 -6,5 -10,8 -6,5 -10,10 -15,16 -2,3 -4,7 -6,10 -2,3 -4,7 -5,10 0,0 0,0 0,1 0,0 1,0 1,0 4,-1 8,-1 11,2 1,0 2,1 3,2 0,0 0,0 1,0 1,-2 2,-5 3,-8 2,-5 4,-10 6,-15 2,-4 5,-8 8,-12 3,-4 6,-8 9,-12 3,-2 5,-5 8,-6 1,0 1,-1 2,-1zm26 65l0 0c0,-3 0,-6 0,-8 0,-5 -1,-9 -2,-13 0,-5 -1,-9 -2,-14 -1,-6 -3,-12 -5,-19 -1,-2 -3,-5 -4,-8 0,-1 -1,-2 -2,-2 0,4 0,8 0,12 0,4 0,8 0,12 0,4 0,8 -1,12 0,4 0,8 -1,12 0,4 0,8 -1,12 7,0 9,-1 18,4zm34 -3l0 0c0,-2 0,-4 0,-5 -1,-6 -2,-11 -4,-16 -1,-4 -2,-7 -4,-10 -1,-3 -3,-6 -5,-9 -2,-3 -5,-6 -8,-8 -4,-3 -8,-6 -12,-7 0,0 0,0 0,0 0,1 0,1 0,1 4,6 8,12 10,18 2,5 4,9 5,14 2,7 3,14 4,21 0,1 0,2 1,2 4,-3 8,-3 13,-1zm-82 29l0 0c0,1 0,1 0,1 -1,0 -1,1 -1,1 -2,3 -2,7 -2,10 0,2 1,4 1,7 1,3 3,5 5,6 2,0 3,0 4,1 3,0 6,0 8,-2 3,-2 5,-5 5,-9 2,-4 2,-8 3,-12 1,-7 1,-14 2,-20 1,-3 1,-7 2,-10 -2,-2 -4,-3 -7,-3 0,3 -1,6 -1,9 -1,5 -1,11 -2,17 -1,5 -1,9 -2,14 -1,3 -1,6 -4,8 -3,1 -4,1 -7,-2 -1,-4 -1,-8 -1,-12 0,-1 0,-2 -1,-4 -1,0 -1,0 -2,0zm11 -91l0 0c-1,0 -1,0 -1,0 -1,0 -2,0 -2,0 -6,2 -11,4 -16,7 -5,2 -10,5 -13,9 -3,3 -6,7 -8,10 -4,5 -7,10 -9,16 -1,1 -1,1 -1,2 3,1 5,3 7,4 0,0 0,0 1,-1 1,-3 2,-5 4,-8 0,-1 1,-2 2,-3 3,-7 8,-12 13,-18 3,-3 6,-5 9,-8 2,-2 5,-4 8,-6 2,-1 4,-2 6,-4zm22 -11l0 0c-1,3 -2,6 -3,9 1,0 2,0 3,1 0,-4 1,-7 0,-10z"/>
   <path class="fil1" d="M70 15c-6,10 -10,19 -13,29 -3,10 -7,20 -8,31 -1,0 -1,-1 -2,-2 -4,-3 -8,-4 -13,-4 -1,0 -3,1 -4,1 0,-1 0,-2 0,-2 2,-5 4,-10 6,-14 3,-7 7,-14 12,-20 1,-3 3,-5 5,-7 4,-5 8,-9 14,-11 1,-1 1,-1 2,-1 0,0 0,0 1,0z"/>
   <path class="fil2" d="M70 77c-3,-2 -6,-3 -9,-3 -3,-1 -6,1 -10,1 1,0 0,-1 1,-1 0,-4 1,-8 1,-12 2,-5 3,-10 4,-14 1,-3 2,-5 2,-7 2,-6 5,-13 8,-19 2,-2 3,-4 5,-6 0,0 0,0 0,-1 1,1 1,1 1,2 0,2 0,4 0,7 0,6 0,12 0,19 0,8 -1,16 -2,24 0,3 0,5 -1,8 0,0 0,1 0,2z"/>
   <path class="fil2" d="M79 17c2,0 4,1 5,2 2,2 4,3 5,5 0,1 0,1 1,1 3,4 5,7 7,12 2,4 4,9 6,14 3,7 5,15 5,23 0,2 0,4 0,6 -5,-3 -11,-5 -16,-1 0,0 -1,-1 -1,-1 1,-8 0,-16 -1,-23 -1,-5 -1,-11 -3,-16 -1,-3 -2,-7 -4,-10 -1,-4 -2,-7 -3,-10 0,-1 0,-1 -1,-2z"/>
   <path class="fil2" d="M64 15c-1,0 -1,1 -2,1 -3,1 -5,4 -8,6 -3,4 -6,8 -9,12 -3,4 -6,8 -8,12 -2,5 -4,10 -6,15 -1,3 -2,6 -3,8 -1,0 -1,0 -1,0 -1,-1 -2,-2 -3,-2 -3,-3 -7,-3 -11,-2 0,0 -1,0 -1,0 0,-1 0,-1 0,-1 1,-3 3,-7 5,-10 2,-3 4,-7 6,-10 5,-6 9,-11 15,-16 4,-3 7,-6 10,-8 4,-3 9,-5 15,-5 0,0 0,0 1,0z"/>
   <path class="fil1" d="M90 80c-9,-5 -11,-4 -18,-4 1,-4 1,-8 1,-12 1,-4 1,-8 1,-12 1,-4 1,-8 1,-12 0,-4 0,-8 0,-12 0,-4 0,-8 0,-12 1,0 2,1 2,2 1,3 3,6 4,8 2,7 4,13 5,19 1,5 2,9 2,14 1,4 2,8 2,13 0,2 0,5 0,8z"/>
   <path class="fil1" d="M124 77c-5,-2 -9,-2 -13,1 -1,0 -1,-1 -1,-2 -1,-7 -2,-14 -4,-21 -1,-5 -3,-9 -5,-14 -2,-6 -6,-12 -10,-18 0,0 0,0 0,-1 0,0 0,0 0,0 4,1 8,4 12,7 3,2 6,5 8,8 2,3 4,6 5,9 2,3 3,6 4,10 2,5 3,10 4,16 0,1 0,3 0,5z"/>
   <path class="fil3" d="M42 106c1,0 1,0 2,0 1,2 1,3 1,4 0,4 0,8 1,12 3,3 4,3 7,2 3,-2 3,-5 4,-8 1,-5 1,-9 2,-14 1,-6 1,-12 2,-17 0,-3 1,-6 1,-9 3,0 5,1 7,3 -1,3 -1,7 -2,10 -1,6 -1,13 -2,20 -1,4 -1,8 -3,12 0,4 -2,7 -5,9 -2,2 -5,2 -8,2 -1,-1 -2,-1 -4,-1 -2,-1 -4,-3 -5,-6 0,-3 -1,-5 -1,-7 0,-3 0,-7 2,-10 0,0 0,-1 1,-1 0,0 0,0 0,-1z"/>
   <path class="fil1" d="M53 15c-2,2 -4,3 -6,4 -3,2 -6,4 -8,6 -3,3 -6,5 -9,8 -5,6 -10,11 -13,18 -1,1 -2,2 -2,3 -2,3 -3,5 -4,8 -1,1 -1,1 -1,1 -2,-1 -4,-3 -7,-4 0,-1 0,-1 1,-2 2,-6 5,-11 9,-16 2,-3 5,-7 8,-10 3,-4 8,-7 13,-9 5,-3 10,-5 16,-7 0,0 1,0 2,0 0,0 0,0 1,0z"/>
   <path class="fil3" d="M75 4c1,3 0,6 0,10 -1,-1 -2,-1 -3,-1 1,-3 2,-6 3,-9z"/>
  </g>
 </g>
</svg>
