<?xml version="1.0" encoding="UTF-8"?>
<!DOCTYPE svg PUBLIC "-//W3C//DTD SVG 1.1//EN" "http://www.w3.org/Graphics/SVG/1.1/DTD/svg11.dtd">
<!-- Creator: CorelDRAW X7 -->
<svg xmlns="http://www.w3.org/2000/svg" xml:space="preserve" width="0.226476in" height="0.290059in" version="1.1" style="shape-rendering:geometricPrecision; text-rendering:geometricPrecision; image-rendering:optimizeQuality; fill-rule:evenodd; clip-rule:evenodd"
viewBox="0 0 13 17"
 xmlns:xlink="http://www.w3.org/1999/xlink">
 <defs>
  <style type="text/css">
   <![CDATA[
    .fil0 {fill:black;fill-rule:nonzero}
    .fil2 {fill:#B8782A;fill-rule:nonzero}
    .fil1 {fill:#DB943A;fill-rule:nonzero}
   ]]>
  </style>
 </defs>
 <g id="__x0023_Layer_x0020_1">
  <metadata id="CorelCorpID_0Corel-Layer"/>
  <g id="_145752590976">
   <path class="fil0" d="M6 17c0,-1 0,-1 0,-1 1,0 2,-1 2,-1 0,0 0,-1 0,-1 1,0 1,1 1,1 0,0 0,0 1,0 0,0 0,0 0,-1 1,0 1,0 1,-1 1,0 1,-1 2,-1 0,-1 0,-2 -1,-2 0,0 1,0 1,-1 0,0 -1,-1 -1,-1 0,-1 1,-1 1,-2 -1,-1 -1,-1 -2,-1 1,0 1,-1 1,-2 -1,-1 -1,-1 -2,-1 0,-1 -1,-2 -2,-2 -1,0 -2,2 -2,3 0,0 -1,0 -1,0 0,1 0,1 0,1 0,0 0,0 0,0 0,1 -1,1 -1,1 0,-1 0,-2 -1,-2 -1,0 -2,1 -1,2 -1,0 -2,1 -2,1 0,1 1,2 1,2 0,0 -1,1 -1,2 0,0 1,1 1,1 0,0 -1,1 0,2 0,0 1,1 1,1 0,0 0,1 0,1 0,1 1,1 1,1 1,0 1,0 2,0 0,0 1,1 1,1z"/>
   <g>
    <path class="fil1" d="M1 5c0,0 0,0 1,0 0,0 0,1 0,1 0,-1 0,-1 0,-1 0,0 0,0 0,0 0,-1 0,-1 0,-1 0,-1 1,-1 1,-1 1,0 1,1 1,1 0,0 0,1 0,1 0,0 0,1 0,1 0,-1 1,-1 1,-1 1,0 1,0 0,3 1,-1 1,-1 1,-1 1,0 1,2 0,3 0,0 1,0 1,0 0,0 0,0 0,0 1,0 0,1 0,1 0,1 0,1 0,1 0,0 0,1 0,1 0,0 0,0 0,0 0,0 1,-1 1,-1 0,0 0,1 0,1 1,0 0,1 0,1 0,1 -1,2 -2,2 0,0 0,-2 0,-2 0,0 -1,-1 -1,-1 1,0 1,-1 1,-1 0,0 -1,0 -1,1 0,-1 0,-2 -1,-2 1,-1 1,-2 1,-2 0,0 -1,1 -1,1 0,0 0,-1 0,-2 0,0 0,-1 0,-2 0,1 0,1 0,2 -1,-1 -1,-2 -1,-3 0,1 0,1 0,2 0,0 -1,0 -1,0 0,0 1,0 1,1 0,1 1,1 1,2 -1,0 -1,0 -2,0 1,0 2,0 2,1 0,1 0,1 1,2 -1,0 -1,0 -2,0 1,0 1,0 2,1 0,0 1,2 1,2 0,0 -1,0 -1,0 -1,0 -3,0 -3,-2 0,0 1,0 1,0 0,0 0,0 0,0 0,0 -1,-1 -1,-1 -1,0 -1,-1 -1,-1 0,0 0,0 1,0 0,-1 0,-1 0,-1 0,0 1,1 1,1 -1,-1 -1,-1 -2,-1 -1,-1 0,-2 0,-2 0,-1 1,0 1,0 0,0 0,-1 0,-1 0,0 -1,0 -1,0 0,-1 -1,-1 -1,-2 0,0 0,0 1,-1 0,0 0,0 0,0z"/>
    <path class="fil2" d="M12 11c0,-1 0,0 -1,0 0,0 0,0 0,0 0,-1 1,-1 1,-1 0,0 1,-1 0,-2 0,0 -1,1 -1,1 1,-1 1,-3 1,-3 -1,-1 -1,0 -2,0 2,-2 1,-3 0,-3 0,0 0,0 -1,1 1,-2 0,-4 -1,-4 -1,0 -2,2 -1,4 0,0 0,-1 -1,-1 0,0 -1,1 -1,2 1,0 2,0 1,2 1,-1 2,1 1,3 1,0 1,1 0,2 0,0 1,0 1,0 1,0 1,1 1,1 0,0 0,1 0,1 0,0 0,0 0,0l0 -2c0,0 -1,0 -1,-1 0,0 1,1 1,1 0,0 0,-1 0,-1 0,-1 -1,-1 -1,-1 0,0 0,0 1,0 0,0 0,-1 0,-1 -1,-1 -1,-1 -1,-2 0,1 0,1 1,1 -1,0 -1,-1 -1,-1 0,-1 -1,-2 -1,-2 0,0 1,1 1,1 0,-1 0,-2 0,-3 0,0 0,1 1,3 0,-1 0,-1 0,-2 0,1 0,1 0,2 0,1 0,2 0,3 0,-1 1,-2 1,-2 0,1 -1,2 -1,2 0,1 0,1 0,2 1,-1 1,-1 1,-1 0,0 0,1 -1,2 0,0 1,2 1,2 0,0 1,-1 1,-1 1,0 2,-2 1,-2z"/>
   </g>
  </g>
 </g>
</svg>
