<?xml version="1.0" encoding="UTF-8"?>
<!DOCTYPE svg PUBLIC "-//W3C//DTD SVG 1.1//EN" "http://www.w3.org/Graphics/SVG/1.1/DTD/svg11.dtd">
<!-- Creator: CorelDRAW X7 -->
<svg xmlns="http://www.w3.org/2000/svg" xml:space="preserve" width="0.236866in" height="0.166181in" version="1.1" style="shape-rendering:geometricPrecision; text-rendering:geometricPrecision; image-rendering:optimizeQuality; fill-rule:evenodd; clip-rule:evenodd"
viewBox="0 0 223 156"
 xmlns:xlink="http://www.w3.org/1999/xlink">
 <defs>
  <style type="text/css">
   <![CDATA[
    .fil0 {fill:black;fill-rule:nonzero}
    .fil4 {fill:#008A8C;fill-rule:nonzero}
    .fil3 {fill:#8F303B;fill-rule:nonzero}
    .fil2 {fill:#908257;fill-rule:nonzero}
    .fil1 {fill:#D09B50;fill-rule:nonzero}
   ]]>
  </style>
 </defs>
 <g id="__x0023_Layer_x0020_1">
  <metadata id="CorelCorpID_0Corel-Layer"/>
  <g id="_145756836560">
   <path class="fil0" d="M0 111c10,-3 19,-6 30,-10 -4,-4 -8,-8 -12,-13 25,-10 48,-18 73,-25 -1,-5 -1,-9 -2,-14 -1,-11 4,-20 12,-28 8,-9 17,-16 29,-20 14,-4 32,2 41,13 4,4 7,9 11,14 4,-1 9,-3 13,-4 4,-2 8,-4 12,-6 4,3 3,6 1,8 -2,4 -4,8 -6,13 7,3 14,5 21,7 -6,6 -11,7 -17,10 -5,2 -11,5 -16,7 -1,8 -1,16 -2,24 0,3 -1,6 -2,10 -6,17 -17,29 -32,39 -20,13 -41,19 -64,20 -14,1 -28,-3 -40,-9 -15,-7 -28,-15 -40,-25 -3,-3 -7,-6 -10,-9 0,-1 0,-1 0,-2zm10 5l0 0c4,2 6,4 8,6 13,9 27,17 42,23 12,4 25,6 38,4 16,-2 32,-6 46,-14 11,-7 20,-15 27,-26 10,-16 13,-34 11,-53 -1,-17 -7,-32 -21,-43 -10,-9 -22,-10 -34,-5 -7,2 -11,6 -16,11 -10,9 -15,21 -14,35 0,2 1,4 2,7 9,-3 17,-9 27,-8 3,9 4,17 2,26 -3,14 -9,27 -22,35 -11,7 -24,10 -37,9 -10,-2 -19,-7 -27,-13 -2,-1 -5,-3 -7,-3 -8,3 -16,5 -25,9zm20 -25l0 0c1,2 2,5 4,6 4,3 7,6 11,9 11,8 23,12 37,11 15,-2 27,-7 34,-21 5,-9 7,-20 6,-31 0,-2 -1,-3 -1,-5 -31,10 -61,18 -91,31zm182 -43l0 0c-6,-3 -10,-5 -15,-7 2,-6 3,-10 5,-15 0,0 -1,0 -1,-1 -6,3 -11,5 -17,7 2,9 4,17 6,26 8,-3 14,-7 22,-10z"/>
   <path class="fil1" d="M10 116c9,-4 17,-6 25,-9 2,0 5,2 7,3 8,6 17,11 27,13 13,1 26,-2 37,-9 13,-8 19,-21 22,-35 2,-9 1,-17 -2,-26 -10,-1 -18,5 -27,8 -1,-3 -2,-5 -2,-7 -1,-14 4,-26 14,-35 5,-5 9,-9 16,-11 12,-5 24,-4 34,5 14,11 20,26 21,43 2,19 -1,37 -11,53 -7,11 -16,19 -27,26 -14,8 -30,12 -46,14 -13,2 -26,0 -38,-4 -15,-6 -29,-14 -42,-23 -2,-2 -4,-4 -8,-6zm157 -70l0 0c0,-9 -4,-12 -13,-13 -6,-1 -13,4 -14,10 -1,5 2,11 7,13 6,2 16,-1 20,-10z"/>
   <path class="fil2" d="M30 91c30,-13 60,-21 91,-31 0,2 1,3 1,5 1,11 -1,22 -6,31 -7,14 -19,19 -34,21 -14,1 -26,-3 -37,-11 -4,-3 -7,-6 -11,-9 -2,-1 -3,-4 -4,-6zm85 -26l0 0c0,0 0,1 1,1 0,-1 0,-1 0,-1 0,0 -1,0 -1,0z"/>
   <path class="fil3" d="M212 48c-8,3 -14,7 -22,10 -2,-9 -4,-17 -6,-26 6,-2 11,-4 17,-7 0,1 1,1 1,1 -2,5 -3,9 -5,15 5,2 9,4 15,7z"/>
   <path class="fil0" d="M167 46c-4,9 -14,12 -20,10 -5,-2 -8,-8 -7,-13 1,-6 8,-11 14,-10 9,1 13,4 13,13zm-6 -3l0 0c-4,-5 -9,-7 -13,-4 -3,3 -3,8 1,12 8,1 10,0 12,-8z"/>
   <path class="fil0" d="M115 65c0,0 1,0 1,0 0,0 0,0 0,1 -1,0 -1,-1 -1,-1z"/>
   <path class="fil4" d="M161 43c-2,8 -4,9 -12,8 -4,-4 -4,-9 -1,-12 4,-3 9,-1 13,4z"/>
  </g>
 </g>
</svg>
