<?xml version="1.0" encoding="UTF-8"?>
<!DOCTYPE svg PUBLIC "-//W3C//DTD SVG 1.1//EN" "http://www.w3.org/Graphics/SVG/1.1/DTD/svg11.dtd">
<!-- Creator: CorelDRAW X7 -->
<svg xmlns="http://www.w3.org/2000/svg" xml:space="preserve" width="0.229394in" height="0.397035in" version="1.1" style="shape-rendering:geometricPrecision; text-rendering:geometricPrecision; image-rendering:optimizeQuality; fill-rule:evenodd; clip-rule:evenodd"
viewBox="0 0 28 48"
 xmlns:xlink="http://www.w3.org/1999/xlink">
 <defs>
  <style type="text/css">
   <![CDATA[
    .fil0 {fill:#020200;fill-rule:nonzero}
    .fil2 {fill:#935E27;fill-rule:nonzero}
    .fil1 {fill:#EFA91B;fill-rule:nonzero}
   ]]>
  </style>
 </defs>
 <g id="__x0023_Layer_x0020_1">
  <metadata id="CorelCorpID_0Corel-Layer"/>
  <g id="_145756846128">
   <path class="fil0" d="M22 11c0,0 0,0 0,0 1,0 1,0 1,-1 1,0 2,0 3,-1 0,0 1,1 1,1 0,0 1,1 1,1 0,1 0,1 0,1 -1,2 -2,3 -3,4 -1,1 -3,2 -4,3 0,0 -1,0 -1,1 0,0 0,0 1,0 0,0 1,0 1,1 1,0 2,1 1,2 0,1 -1,1 -1,2 -2,1 -3,1 -5,2 0,0 -1,1 -1,1 -1,0 -1,1 -1,1 0,0 0,0 1,0 0,1 0,1 0,1 1,0 1,0 2,0 0,1 0,2 -1,3 -1,1 -3,1 -4,1 -2,1 -3,1 -5,2 -1,0 -2,1 -3,1 -1,1 -2,3 -2,4 -1,2 -1,3 -2,4 0,1 0,2 0,3 0,0 -1,0 -1,0 0,0 0,-1 0,-1 0,-1 0,-3 1,-4 0,-2 0,-3 1,-5 0,-1 0,-2 0,-3 0,-2 -1,-4 -1,-5 0,-2 -1,-3 -1,-4 0,-1 0,-2 1,-3 1,0 2,0 2,0 1,0 1,0 1,0 0,1 1,1 1,0 0,0 0,-1 0,-1 0,-1 -1,-2 -1,-3 0,-1 0,-1 0,-2 0,-1 0,-2 1,-2 0,-1 1,-1 2,-1 0,0 0,1 1,1 0,0 0,0 0,0 1,1 1,1 2,0 0,-1 0,-1 0,-2 0,0 0,-1 0,-1 -1,-1 -1,-2 -1,-4 0,0 0,-1 0,-1 0,-1 1,-1 2,-2 0,0 1,0 2,0 0,0 0,1 0,1 1,0 1,1 1,1 0,0 1,0 1,0 0,-1 0,-1 0,-1 1,-1 1,-2 2,-3 1,-1 2,-2 3,-3 1,0 2,0 3,1 1,0 1,1 1,2 1,1 0,1 0,2 0,1 -1,2 -1,3 -1,1 -1,1 -1,2 0,0 0,0 0,1zm-21 32l0 0c0,0 0,0 0,0 0,0 0,0 0,0 0,0 1,-1 1,-1 0,-1 1,-3 1,-4 1,-1 1,-1 1,-2 1,-2 2,-3 2,-5 1,-2 2,-3 3,-5 1,-3 3,-5 4,-7 0,-1 0,-1 0,-1 0,0 0,0 0,0 0,1 -1,1 -1,2 -2,2 -3,4 -4,6 0,2 -1,3 -2,5 -1,1 -1,3 -2,4 -1,2 -2,4 -2,6 -1,1 -1,1 -1,2zm3 -6l0 0c0,0 0,0 0,0 1,0 1,0 1,-1 1,0 1,0 1,0 1,-1 2,-1 3,-1 2,-1 3,-1 5,-2 1,0 2,0 3,-1 0,0 0,-1 0,-1 0,-1 -1,-1 -1,-1 0,0 -1,0 -1,0 -1,0 -1,-1 -1,-2 1,0 1,-1 2,-1 0,0 1,-1 2,-1 2,0 3,-1 4,-2 1,-1 1,-2 1,-3 -1,0 -1,0 -1,0 -1,0 -1,0 -1,0 -1,0 -2,0 -2,0 0,-1 0,-2 1,-2 0,0 0,0 0,0 2,-1 3,-2 5,-4 1,-1 2,-2 2,-3 0,-1 -1,-2 -2,-2 0,0 -1,0 -1,1 -1,0 -1,0 -2,0 0,1 -1,1 -1,0 0,-1 1,-3 1,-4 1,-1 1,-1 1,-2 1,-1 1,-2 0,-3 0,-1 -1,-2 -2,-1 -1,0 -1,0 -2,0 0,1 -1,2 -2,3 0,1 -1,2 -1,3 0,0 -1,0 -1,1 0,0 -1,0 -1,0 0,0 0,0 -1,-1 0,0 0,0 0,0 0,-1 -1,-1 -1,-1 -2,-1 -3,1 -3,2 1,0 1,1 1,1 0,1 0,2 1,3 0,1 0,2 -1,3 0,1 0,2 -1,2 -1,-1 -1,-1 -2,-2 -1,0 -1,0 -2,0 0,0 -1,1 0,2 0,1 0,2 0,2 0,1 0,2 1,2 0,1 0,2 0,2 0,1 -1,2 -2,1 -1,0 -1,0 -1,0 -1,-1 -1,0 -2,0 0,0 0,1 0,1 0,2 0,3 0,4 1,2 1,4 1,5 0,1 0,2 0,2 0,0 0,1 0,1 0,0 1,-1 1,-1 1,-2 2,-4 3,-6 1,-2 2,-4 3,-6 1,-1 1,-2 2,-4 1,-1 1,-2 2,-3 0,-1 1,-2 2,-3 0,-1 1,-2 1,-2 1,-2 2,-3 3,-5 0,0 1,-1 1,-2 0,0 0,0 0,0 1,0 1,0 1,0 -1,0 -1,1 -1,1 -1,1 -1,1 -1,2 -1,2 -2,3 -3,4 0,2 -1,3 -2,4 -1,2 -2,4 -3,6 -1,2 -2,4 -3,6 -1,3 -2,6 -3,8 -1,1 -1,1 -1,1z"/>
   <path class="fil1" d="M4 37c0,0 0,0 1,-1 1,-2 2,-5 3,-8 1,-2 2,-4 3,-6 1,-2 2,-4 3,-6 1,-1 2,-2 2,-4 1,-1 2,-2 3,-4 0,-1 0,-1 1,-2 0,0 0,-1 1,-1 0,0 0,0 -1,0 0,0 0,0 0,0 0,1 -1,2 -1,2 -1,2 -2,3 -3,5 0,0 -1,1 -1,2 -1,1 -2,2 -2,3 -1,1 -1,2 -2,3 -1,2 -1,3 -2,4 -1,2 -2,4 -3,6 -1,2 -2,4 -3,6 0,0 -1,1 -1,1 0,0 0,-1 0,-1 0,0 0,-1 0,-2 0,-1 0,-3 -1,-5 0,-1 0,-2 0,-4 0,0 0,-1 0,-1 1,0 1,-1 2,0 0,0 0,0 1,0 1,1 2,0 2,-1 0,0 0,-1 0,-2 -1,0 -1,-1 -1,-2 0,0 0,-1 0,-2 -1,-1 0,-2 0,-2 1,0 1,0 2,0 1,1 1,1 2,2 1,0 1,-1 1,-2 1,-1 1,-2 1,-3 -1,-1 -1,-2 -1,-3 0,0 0,-1 -1,-1 0,-1 1,-3 3,-2 0,0 1,0 1,1 0,0 0,0 0,0 1,1 1,1 1,1 0,0 1,0 1,0 0,-1 1,-1 1,-1 0,-1 1,-2 1,-3 1,-1 2,-2 2,-3 1,0 1,0 2,0 1,-1 2,0 2,1 1,1 1,2 0,3 0,1 0,1 -1,2 0,1 -1,3 -1,4 0,1 1,1 1,0 1,0 1,0 2,0 0,-1 1,-1 1,-1 1,0 2,1 2,2 0,1 -1,2 -2,3 -2,2 -3,3 -5,4 0,0 0,0 0,0 -1,0 -1,1 -1,2 0,0 1,0 2,0 0,0 0,0 1,0 0,0 0,0 1,0 0,1 0,2 -1,3 -1,1 -2,2 -4,2 -1,0 -2,1 -2,1 -1,0 -1,1 -2,1 0,1 0,2 1,2 0,0 1,0 1,0 0,0 1,0 1,1 0,0 0,1 0,1 -1,1 -2,1 -3,1 -2,1 -3,1 -5,2 -1,0 -2,0 -3,1 0,0 0,0 -1,0 0,1 0,1 -1,1 0,0 0,0 0,0z"/>
   <path class="fil2" d="M1 43c0,-1 0,-1 1,-2 0,-2 1,-4 2,-6 1,-1 1,-3 2,-4 1,-2 2,-3 2,-5 1,-2 2,-4 4,-6 0,-1 1,-1 1,-2 0,0 0,0 0,0 0,0 0,0 0,1 -1,2 -3,4 -4,7 -1,2 -2,3 -3,5 0,2 -1,3 -2,5 0,1 0,1 -1,2 0,1 -1,3 -1,4 0,0 -1,1 -1,1l0 0z"/>
  </g>
 </g>
</svg>
