<?xml version="1.0" encoding="UTF-8"?>
<!DOCTYPE svg PUBLIC "-//W3C//DTD SVG 1.1//EN" "http://www.w3.org/Graphics/SVG/1.1/DTD/svg11.dtd">
<!-- Creator: CorelDRAW X7 -->
<svg xmlns="http://www.w3.org/2000/svg" xml:space="preserve" width="0.476256in" height="0.651717in" version="1.1" style="shape-rendering:geometricPrecision; text-rendering:geometricPrecision; image-rendering:optimizeQuality; fill-rule:evenodd; clip-rule:evenodd"
viewBox="0 0 580 793"
 xmlns:xlink="http://www.w3.org/1999/xlink">
 <defs>
  <style type="text/css">
   <![CDATA[
    .fil3 {fill:#AE6C39;fill-rule:nonzero}
    .fil7 {fill:#CB451D;fill-rule:nonzero}
    .fil6 {fill:#E2B676;fill-rule:nonzero}
    .fil4 {fill:#E55E2D;fill-rule:nonzero}
    .fil1 {fill:#E5CA9C;fill-rule:nonzero}
    .fil2 {fill:#EFA91B;fill-rule:nonzero}
    .fil5 {fill:white;fill-rule:nonzero}
    .fil0 {fill:black;fill-rule:nonzero}
   ]]>
  </style>
 </defs>
 <g id="__x0023_Layer_x0020_1">
  <metadata id="CorelCorpID_0Corel-Layer"/>
  <g id="_145750403424">
   <g>
    <path class="fil0" d="M470 546c-3,0 -6,0 -6,1 8,-24 1,-55 1,-80 0,-14 0,-27 -1,-40 -1,-8 0,-33 -4,-40 -5,-9 -26,-9 -35,-10 -27,-1 -54,5 -81,8 -28,4 -57,7 -85,13 0,0 -1,0 -2,0 -90,-53 -257,5 -257,117 0,25 15,45 40,49 14,2 16,2 22,16 4,9 6,18 10,28 -11,2 -15,5 -17,15 -1,11 -3,22 -5,33 -3,11 -7,18 -3,29 13,37 31,69 46,105 2,6 16,2 20,1 30,-11 59,-24 89,-36 7,-3 11,-3 12,-11 1,-6 -2,-14 -4,-19 -5,-12 -13,-24 -14,-37 22,6 40,9 63,8 37,-1 78,1 115,-6 42,-9 85,-18 124,-36 18,-8 40,-18 55,-31 13,-11 8,-32 -1,-45 -17,-24 -54,-31 -82,-32zm-394 -29l0 0c1,-3 3,-7 5,-10 8,-11 22,-10 23,5 1,7 -3,14 -9,18 -2,2 -23,8 -23,6 0,-6 1,-12 4,-19zm127 -28l0 0c3,0 6,2 8,6 5,11 5,30 6,42 -9,-3 -19,-5 -25,-14 -9,-13 2,-33 11,-34zm-76 40l0 0c0,-2 1,-4 2,-5 8,-20 1,-44 -21,-50 -19,-6 -35,6 -47,19 -8,9 -19,30 -12,42 -17,-1 -17,-27 -15,-38 6,-29 28,-48 51,-65 22,-17 51,-27 79,-29 18,-2 36,1 52,9 -17,7 -10,37 -8,52 -23,0 -46,11 -56,31 -14,38 14,66 46,81 -10,3 -20,8 -27,11 -10,4 -20,9 -28,15 -5,-5 -15,-18 -22,-18 -8,0 -20,11 -28,13 -2,-9 -8,-27 -14,-34 21,1 39,-16 48,-34z"/>
    <path class="fil0" d="M316 384c3,2 12,1 14,-1 5,-5 0,-10 -2,-15 -6,-12 -12,-23 -12,-37 2,-43 44,-67 81,-78 45,-12 89,-18 130,-42 31,-18 51,-51 53,-88 2,-45 -12,-89 -55,-111 -25,-13 -52,-15 -79,-8 -63,17 -126,92 -70,153 17,19 46,22 67,7 18,-13 24,-46 7,-64 -4,14 -15,32 -31,30 -15,-1 -26,-16 -26,-30 -1,-25 22,-48 44,-57 24,-10 53,-4 73,11 27,20 31,63 23,93 -9,38 -47,59 -83,66 -52,12 -106,8 -151,43 -47,38 -32,102 17,128z"/>
   </g>
   <path class="fil1" d="M551 45c31,39 30,108 -19,151 -64,58 -156,37 -209,89 -20,21 -27,55 3,96 -48,-22 -53,-69 -41,-94 30,-63 105,-56 158,-67 69,-14 120,-55 99,-134 -13,-47 -67,-62 -105,-49 -26,10 -65,37 -50,79 5,15 44,40 63,1 4,20 -6,33 -15,40 -18,15 -52,7 -64,-18 -26,-53 13,-98 41,-116 35,-22 98,-29 139,22z"/>
   <path class="fil2" d="M550 591c12,38 -68,73 -192,89 -112,15 -220,5 -225,-34 -5,-32 25,-50 74,-63 10,4 22,7 36,9 0,1 1,2 2,3 -46,8 -73,21 -70,45 5,32 92,34 178,19 93,-16 168,-40 161,-67 -4,-13 -28,-18 -63,-18 3,-5 5,-10 7,-16 49,2 85,12 92,33z"/>
   <path class="fil3" d="M505 593c7,16 -63,45 -153,59 -85,13 -162,13 -168,-13 -3,-16 25,-28 69,-37 5,3 11,6 17,7 4,1 8,2 12,3 0,11 3,20 9,23 35,0 91,-7 132,-20 0,-7 0,-13 0,-18l1 0c9,-3 17,-8 23,-16 32,0 54,3 58,12z"/>
   <path class="fil2" d="M455 440c2,25 3,51 1,74 -55,20 -155,39 -227,26 -6,-21 -8,-45 -10,-66 59,9 175,-4 236,-34zm-12 56l0 0c4,-4 5,-11 2,-17 -3,-5 -9,-7 -13,-4 -5,4 -6,11 -3,17 3,6 9,8 14,4zm-33 14l0 0c7,-5 9,-16 4,-23 -4,-8 -14,-11 -21,-6 -7,5 -8,15 -4,23 5,8 14,10 21,6zm-49 11l0 0c8,-4 12,-15 9,-24 -4,-9 -13,-13 -22,-9 -8,4 -12,15 -9,24 4,10 13,14 22,9zm-45 5l0 0c7,-6 9,-17 4,-26 -5,-8 -15,-11 -22,-6 -8,6 -10,17 -5,26 5,9 15,11 23,6zm-51 0l0 0c7,-5 9,-16 4,-24 -5,-9 -15,-11 -22,-6 -7,5 -9,16 -5,24 5,9 15,11 23,6z"/>
   <path class="fil4" d="M451 406c1,9 2,18 3,28 -52,21 -159,44 -236,32 -1,-11 -2,-22 -3,-30 73,3 174,-12 236,-30z"/>
   <path class="fil3" d="M448 393c3,8 -48,15 -113,27 -20,3 -41,6 -59,8 -6,-9 -12,-16 -19,-22 19,-4 43,-8 69,-11 65,-7 119,-8 122,-2z"/>
   <path class="fil4" d="M456 520c-4,35 -14,64 -38,72 -41,13 -95,25 -144,11 -23,-6 -36,-28 -43,-55 55,9 161,-2 225,-28z"/>
   <path class="fil5" d="M441 483c1,2 1,6 -1,7 -3,2 -5,1 -7,-1 -1,-3 -1,-6 2,-8 2,-2 4,-1 6,2z"/>
   <path class="fil2" d="M415 599c1,4 1,7 0,11 -36,11 -89,16 -119,17 -4,-3 -6,-8 -7,-14 44,6 89,-3 126,-14z"/>
   <path class="fil5" d="M409 491c2,4 1,9 -2,12 -4,3 -8,1 -11,-3 -2,-4 -1,-10 3,-12 3,-3 7,-2 10,3z"/>
   <path class="fil5" d="M362 502c2,4 0,10 -4,12 -5,2 -9,0 -11,-4 -2,-5 0,-11 4,-13 5,-2 10,0 11,5z"/>
   <path class="fil5" d="M314 506c2,5 1,11 -3,14 -3,3 -9,1 -11,-3 -3,-5 -2,-11 2,-14 4,-3 9,-1 12,3z"/>
   <path class="fil5" d="M263 507c3,5 2,11 -2,13 -4,3 -10,2 -12,-3 -3,-4 -2,-10 2,-13 4,-2 9,-1 12,3z"/>
   <path class="fil6" d="M267 428c-5,0 -9,0 -14,0 -56,-65 -204,-20 -228,66 -11,40 18,57 46,53 23,-3 38,-13 42,-32 4,-19 -12,-30 -28,-21 -20,10 -19,26 -19,32 0,18 -10,17 -11,3 -1,-19 10,-33 20,-40 17,-13 38,-9 44,0 19,33 -16,68 -45,71 -64,5 -67,-36 -63,-66 12,-90 185,-152 256,-66z"/>
   <path class="fil3" d="M224 415c7,4 14,9 20,15 -18,0 -30,-2 -31,-7 0,-3 4,-5 11,-8z"/>
   <path class="fil3" d="M223 554c3,11 8,21 13,29 -70,-16 -85,-63 -74,-89 8,-19 29,-27 48,-21 0,5 0,9 1,14 -13,-3 -26,1 -30,15 -7,24 9,40 42,52z"/>
   <path class="fil7" d="M187 690c7,21 14,40 21,55 -28,11 -77,32 -105,43 -15,-38 -34,-83 -48,-114 13,-8 43,-22 68,-33 -1,9 1,17 7,24 10,12 30,20 57,25z"/>
   <path class="fil4" d="M137 608c-6,6 -11,14 -13,22 -24,12 -50,27 -70,35 4,-14 9,-32 11,-45 11,-6 48,-23 55,-26 5,4 11,9 17,14z"/>
   <path class="fil6" d="M88 600c-3,1 -5,3 -8,4 -7,-12 -12,-24 -16,-36 3,0 6,0 9,-1 4,12 9,23 15,33z"/>
  </g>
 </g>
</svg>
