<?xml version="1.0" encoding="UTF-8"?>
<!DOCTYPE svg PUBLIC "-//W3C//DTD SVG 1.1//EN" "http://www.w3.org/Graphics/SVG/1.1/DTD/svg11.dtd">
<!-- Creator: CorelDRAW X7 -->
<svg xmlns="http://www.w3.org/2000/svg" xml:space="preserve" width="0.304268in" height="0.479012in" version="1.1" style="shape-rendering:geometricPrecision; text-rendering:geometricPrecision; image-rendering:optimizeQuality; fill-rule:evenodd; clip-rule:evenodd"
viewBox="0 0 43 68"
 xmlns:xlink="http://www.w3.org/1999/xlink">
 <defs>
  <style type="text/css">
   <![CDATA[
    .fil0 {fill:black;fill-rule:nonzero}
    .fil2 {fill:#756B3D;fill-rule:nonzero}
    .fil3 {fill:#838330;fill-rule:nonzero}
    .fil4 {fill:#879B40;fill-rule:nonzero}
    .fil1 {fill:#A1A351;fill-rule:nonzero}
    .fil5 {fill:#E4A335;fill-rule:nonzero}
    .fil7 {fill:#EEB841;fill-rule:nonzero}
    .fil6 {fill:#FFCF55;fill-rule:nonzero}
    .fil8 {fill:#FFD562;fill-rule:nonzero}
   ]]>
  </style>
 </defs>
 <g id="__x0023_Layer_x0020_1">
  <metadata id="CorelCorpID_0Corel-Layer"/>
  <g id="_145842446096">
   <path class="fil0" d="M1 36c-1,6 -1,11 0,16 1,3 2,5 3,8 1,1 2,2 3,3 1,2 4,3 6,4 4,2 9,0 12,-2 1,0 2,-1 3,-2 5,-2 9,-6 12,-10 1,-2 3,-4 3,-6 -1,0 -2,0 -3,1 -1,0 -3,0 -4,1 -1,0 -2,1 -3,1 -1,0 -1,1 -2,1 0,0 -2,0 -2,0 4,-5 3,-12 7,-18 0,1 2,6 2,6 0,-2 2,-8 2,-10 -1,-1 -5,-3 -6,-3 0,0 -1,0 -1,-1 0,0 -1,-1 0,-1 0,-1 0,-1 0,-2 0,0 0,0 0,-1 0,0 0,-1 0,-1 0,0 0,-1 0,-1 0,0 0,-1 0,-1 0,-1 0,-1 -1,-2 0,0 0,0 0,-1 0,0 0,-1 0,-1 -1,-1 -2,-1 -3,-1 0,0 -1,-1 -1,0 -1,0 -1,0 -2,1 1,-5 0,-9 -1,-14 -1,2 -1,3 -2,5 -1,3 -3,6 -6,9 -2,3 -5,6 -7,9 -2,3 -4,7 -5,10 0,0 0,-1 0,-2 -1,0 -1,-1 -1,-1 -1,-1 -1,-2 -2,-3 0,1 0,2 0,4 -1,2 -1,5 -2,7 1,-1 1,-1 1,-2 0,0 0,0 0,0z"/>
   <g>
    <path class="fil1" d="M41 50c-2,4 -20,24 -32,15 4,-7 22,-8 32,-15z"/>
    <path class="fil2" d="M9 39c-1,0 -1,2 -2,3 1,-6 3,-12 4,-14 -1,2 -3,6 -4,11 0,-2 -1,-3 -1,-4 0,-2 1,-5 2,-7 4,-9 14,-14 17,-24 1,3 1,7 0,10 0,0 -1,1 -1,1 -1,0 -2,2 -2,2 -1,1 -2,2 -2,2 -1,0 -1,2 -1,2 -1,1 -2,2 -2,3 -1,0 -1,1 -2,2 0,1 -1,2 -1,3 -1,0 -2,1 -1,2 -1,1 -2,2 -2,3 0,0 -1,1 -1,2 -1,0 -1,2 -1,3z"/>
    <path class="fil3" d="M10 63c0,0 -1,1 -1,1 -3,-3 -6,-7 -7,-11 -2,-9 0,-16 0,-22 1,7 0,14 2,22 1,4 4,8 6,10z"/>
    <path class="fil1" d="M12 61c0,0 -1,1 -1,1 -3,-3 -5,-6 -6,-10 -1,-4 -1,-13 -2,-22 5,9 3,22 11,30 0,0 -1,0 -1,1 -3,-2 -4,-5 -5,-8 0,2 1,6 4,8z"/>
    <path class="fil4" d="M40 48c-4,4 -11,7 -16,9l1 -3c3,-1 12,-4 15,-6z"/>
    <path class="fil5" d="M22 57c-1,0 -2,0 -2,1 0,-1 0,-1 0,-2 1,0 2,1 2,1z"/>
    <path class="fil6" d="M19 58c-2,0 -3,1 -3,1 0,-1 0,-1 0,-2 1,0 2,1 3,1z"/>
    <path class="fil6" d="M19 58c-1,-1 -2,-1 -3,-2 1,0 1,-1 1,-2 1,1 2,1 3,2 -1,0 -1,1 -1,2z"/>
    <path class="fil5" d="M23 55c0,0 0,1 -1,1 0,0 -1,0 -2,-1 1,0 1,-1 1,-1 1,0 2,0 2,1z"/>
    <path class="fil7" d="M16 57c-1,0 -1,1 -1,2 -1,-1 -2,-3 -3,-4 0,0 0,0 0,0 1,0 3,1 4,2z"/>
    <path class="fil5" d="M25 52c0,1 -1,2 -1,2 -1,0 -2,-1 -3,-1 0,-1 1,-1 1,-2 1,1 2,1 3,1z"/>
    <path class="fil1" d="M28 52c-1,0 -2,0 -2,0 0,0 0,-1 0,-2 1,0 1,-2 1,-2 1,-1 2,-3 1,-4 1,-1 2,-2 1,-3 1,-1 1,-2 1,-3 1,0 1,-2 0,-3 1,0 1,-2 1,-2 1,-1 1,-2 0,-3 1,0 1,-2 1,-3 0,0 0,0 0,-1 3,1 5,2 7,3 -9,6 -6,16 -11,23z"/>
    <path class="fil6" d="M20 53c0,1 0,2 0,2 -1,0 -2,-1 -3,-1 0,-1 1,-1 1,-2 1,0 2,1 2,1z"/>
    <path class="fil7" d="M17 54c-1,1 -1,2 -1,2 -1,0 -3,-1 -4,-2 1,0 1,-1 1,-2 1,1 2,2 4,2z"/>
    <path class="fil5" d="M25 50c1,0 0,1 0,2 -1,-1 -2,-1 -3,-1 0,-1 1,-2 1,-2 1,0 2,0 2,1z"/>
    <path class="fil6" d="M21 51c0,1 0,1 0,2 -1,-1 -2,-1 -3,-1 0,-1 0,-2 1,-2 1,0 1,0 2,1z"/>
    <path class="fil7" d="M17 52c0,0 0,1 0,2 -1,-1 -3,-2 -4,-2 0,-1 1,-1 1,-2 1,1 2,1 3,2z"/>
    <path class="fil6" d="M12 54c0,0 -1,0 -1,0 0,-1 -1,-2 -1,-3 1,0 2,1 3,1 -1,1 -1,1 -1,2z"/>
    <path class="fil5" d="M27 47c0,1 0,1 -1,2 -1,0 -2,-1 -3,-1 0,-1 1,-1 1,-2 1,0 2,1 3,1z"/>
    <path class="fil6" d="M22 48c0,1 0,2 -1,2 0,0 -1,0 -2,-1 0,-1 0,-1 1,-2 0,1 1,1 2,1z"/>
    <path class="fil7" d="M18 49c0,1 0,2 0,2 -2,0 -3,-1 -4,-2 0,0 0,-1 1,-1 1,0 2,1 3,1z"/>
    <path class="fil6" d="M13 50c0,0 0,1 0,2 -1,-1 -2,-1 -3,-2 0,-1 0,-1 0,-2 1,0 2,1 3,2z"/>
    <path class="fil6" d="M23 45c0,1 0,2 -1,3 0,-1 -1,-1 -2,-1 0,-1 0,-2 1,-3 0,1 1,1 2,1z"/>
    <path class="fil7" d="M19 47c0,1 0,1 -1,2 -1,-1 -2,-1 -3,-2 0,-1 0,-1 1,-2 1,1 2,1 3,2z"/>
    <path class="fil5" d="M27 46c-1,0 -2,0 -3,-1 0,-1 1,-2 1,-2 1,0 2,0 3,0 0,1 0,3 -1,3z"/>
    <path class="fil6" d="M14 47c0,1 0,2 0,2 -2,0 -3,-1 -4,-2 1,0 1,-1 1,-1 1,0 2,1 3,1z"/>
    <path class="fil6" d="M24 42l-1 3c0,0 -1,-1 -2,-1 0,-1 0,-2 1,-3 1,1 1,1 2,1z"/>
    <path class="fil5" d="M29 41c0,1 -1,2 -1,2 -1,0 -2,0 -3,-1 0,-1 1,-1 1,-2 1,0 2,1 3,1z"/>
    <path class="fil7" d="M20 44c0,1 0,2 -1,2 -1,0 -2,-1 -3,-1 0,-1 0,-2 1,-3 1,1 2,2 3,2z"/>
    <path class="fil5" d="M9 47c0,1 0,1 0,2 0,-1 0,-1 0,-2l0 0z"/>
    <path class="fil6" d="M15 45c0,1 0,1 -1,2 -1,-1 -2,-1 -3,-2 1,0 1,-1 1,-2 1,1 2,1 3,2z"/>
    <path class="fil6" d="M25 40l-1 2c0,0 -1,-1 -2,-1 0,-1 0,-1 1,-2 0,0 1,1 2,1z"/>
    <path class="fil4" d="M38 37c-1,-1 -1,-3 -2,-5 1,-1 2,-1 3,-2 0,3 -1,6 -1,7z"/>
    <path class="fil5" d="M10 47c-1,0 -1,-1 -1,-1 -1,0 -1,-1 -1,-1 0,0 0,-1 1,-1 0,1 1,1 1,1 0,1 0,1 0,2z"/>
    <path class="fil7" d="M21 41c0,1 0,2 -1,3 -1,-1 -2,-1 -3,-2 0,-1 0,-2 1,-2 1,0 2,1 3,1z"/>
    <path class="fil5" d="M29 40c-1,0 -2,0 -3,0 0,-1 0,-2 1,-3 1,1 1,1 2,1 0,1 0,2 0,2z"/>
    <path class="fil6" d="M16 42c0,1 0,2 -1,2 -1,0 -2,-1 -3,-1 0,-1 1,-2 1,-2 1,0 2,1 3,1z"/>
    <path class="fil7" d="M22 39c0,0 0,1 -1,2 -1,-1 -2,-1 -3,-2 0,0 0,-1 1,-2 1,1 2,1 3,2z"/>
    <path class="fil6" d="M26 37l-1 2c-1,0 -1,0 -2,-1 0,0 0,-1 1,-2 0,1 1,1 2,1z"/>
    <path class="fil5" d="M11 43c0,0 0,1 0,2 -1,-1 -2,-1 -2,-2 -1,0 -1,-1 0,-2 1,1 1,1 2,2z"/>
    <path class="fil5" d="M29 37c-1,0 -1,0 -2,0l0 -1c1,0 1,0 2,0l0 0c0,0 -1,-1 -1,-1 0,-1 0,-1 0,-2 1,0 1,0 2,0l0 0c-1,0 -1,0 -2,-1 1,0 1,-1 1,-2 1,0 1,1 2,1 0,0 0,1 -1,1 1,1 0,2 -1,3 1,1 1,2 0,2z"/>
    <path class="fil6" d="M17 39c0,1 0,2 -1,3 -1,-1 -2,-1 -3,-2 1,0 1,-1 1,-2 1,0 2,1 3,1z"/>
    <path class="fil7" d="M23 36c0,1 0,1 -1,2 -1,0 -2,-1 -3,-1 0,-1 0,-2 1,-3 1,1 2,1 3,2z"/>
    <path class="fil6" d="M27 35l-1 2c-1,-1 -1,-1 -2,-1 0,-1 0,-1 0,-2 1,1 2,1 3,1z"/>
    <path class="fil5" d="M12 40c0,1 0,2 -1,2 0,0 -1,-1 -2,-1 0,-1 0,-2 1,-2 0,1 1,1 2,1z"/>
    <path class="fil6" d="M18 37c0,1 0,1 -1,2 -1,0 -2,-1 -3,-1 1,-1 1,-2 1,-3 1,1 2,1 3,2z"/>
    <path class="fil8" d="M28 33l-1 2c-1,0 -2,-1 -3,-1 1,-1 1,-2 1,-2 1,0 2,0 3,1z"/>
    <path class="fil7" d="M24 34c0,1 -1,1 -1,1 -1,0 -2,-1 -3,-1 0,-1 0,-1 1,-2 1,1 2,2 3,2z"/>
    <path class="fil5" d="M14 38c-1,0 -1,1 -1,2 -1,-1 -2,-1 -3,-2 0,0 0,-2 1,-2 1,1 2,1 3,2z"/>
    <path class="fil6" d="M19 34c0,1 0,2 -1,2 -1,0 -2,-1 -3,-1 1,-1 1,-2 2,-2 0,0 1,1 2,1z"/>
    <path class="fil8" d="M29 30l-1 2c-1,0 -2,0 -3,-1 1,-1 1,-1 1,-2 1,0 2,1 3,1z"/>
    <path class="fil5" d="M15 35c-1,1 -1,2 -1,2 -1,0 -2,-1 -3,-1 0,-1 1,-2 1,-2 1,0 2,1 3,1z"/>
    <path class="fil7" d="M25 31c0,1 -1,2 -1,3 -1,-1 -2,-1 -3,-2 0,-1 0,-2 1,-2 1,0 2,1 3,1z"/>
    <path class="fil5" d="M30 30c0,0 0,0 -1,0 1,-1 1,-2 1,-2 0,0 1,0 1,0 0,1 0,2 -1,2z"/>
    <path class="fil6" d="M20 32c0,1 0,1 -1,2 0,-1 -1,-1 -2,-2 0,0 0,-1 0,-1 1,0 2,1 3,1z"/>
    <path class="fil7" d="M26 29l-1 2c-1,-1 -2,-1 -3,-2 0,0 0,-1 1,-2 1,1 2,1 3,2z"/>
    <path class="fil8" d="M29 28l0 1c-1,0 -2,0 -3,-1 1,0 1,-1 1,-1 1,0 2,0 2,1z"/>
    <path class="fil5" d="M16 32c0,1 -1,2 -1,3 -1,-1 -2,-1 -3,-2 0,-1 1,-2 2,-2 0,1 1,1 2,1z"/>
    <path class="fil6" d="M21 29c0,1 0,2 -1,3 -1,-1 -2,-1 -2,-2 0,0 0,-1 1,-2 1,1 1,1 2,1z"/>
    <path class="fil5" d="M31 28c0,0 -1,0 -1,-1 0,0 0,-1 1,-1 0,0 0,0 0,0 1,1 1,2 0,2z"/>
    <path class="fil5" d="M17 31c0,0 -1,0 -1,1 -1,-1 -1,-1 -2,-2 0,0 0,-1 1,-1 0,1 1,1 2,2z"/>
    <path class="fil6" d="M30 25l0 2c-1,0 -2,0 -3,-1 1,0 1,-1 1,-2 1,1 1,1 2,1z"/>
    <path class="fil7" d="M27 26l-1 2c-1,0 -2,-1 -3,-1 0,-1 0,-2 1,-2 1,0 2,1 3,1z"/>
    <path class="fil5" d="M31 26c0,-1 0,-1 0,-1 0,0 0,-1 0,-1 1,0 1,1 0,2z"/>
    <path class="fil6" d="M22 27c0,1 0,1 -1,2 0,0 -1,-1 -2,-1 0,-1 1,-2 1,-2 1,0 2,0 2,1z"/>
    <path class="fil5" d="M18 28c0,1 0,1 -1,2 -1,0 -2,-1 -2,-1 0,-1 1,-2 1,-2 1,0 2,0 2,1z"/>
    <path class="fil6" d="M31 23c0,1 0,1 -1,2 0,0 -1,-1 -2,-1 1,-1 1,-1 1,-2 1,0 1,1 2,1z"/>
    <path class="fil5" d="M32 22c0,1 0,2 -1,2 1,-1 1,-1 1,-2z"/>
    <path class="fil7" d="M28 24c-1,1 -1,1 -1,2 -1,-1 -2,-1 -3,-2 0,0 1,-1 1,-1 1,0 2,1 3,1z"/>
    <path class="fil6" d="M23 25c0,0 0,1 -1,1 0,0 -1,0 -2,-1 1,0 1,-1 1,-1 1,0 2,0 2,1z"/>
    <path class="fil6" d="M32 21l-1 2c0,-1 -1,-1 -2,-1 0,-1 1,-1 1,-2 0,0 1,1 2,1 0,0 0,0 0,0z"/>
    <path class="fil5" d="M20 25c-1,1 -1,2 -1,2 -1,0 -2,0 -2,-1 -1,-1 0,-1 1,-2 0,1 1,1 2,1z"/>
    <path class="fil7" d="M28 22c0,0 0,1 0,2 -1,-1 -2,-1 -3,-2 0,0 1,-1 1,-2 1,1 2,1 2,2z"/>
    <path class="fil6" d="M24 22c0,1 0,1 0,2 -1,0 -2,-1 -2,-1 0,-1 0,-1 1,-2 0,1 1,1 1,1z"/>
    <path class="fil5" d="M21 23c-1,1 -1,1 -1,2 -1,0 -1,-1 -2,-1 0,-1 0,-2 1,-2 1,1 1,1 2,1z"/>
    <path class="fil6" d="M32 20c-1,0 -1,0 -2,0 0,-1 0,-1 1,-2 0,1 0,1 1,1 0,1 0,1 0,1z"/>
    <path class="fil7" d="M29 20c0,0 0,1 0,1 -1,0 -2,-1 -3,-1 0,-1 1,-1 1,-2 1,1 1,1 2,2z"/>
    <path class="fil6" d="M25 20c0,1 0,1 0,2 -1,0 -2,-1 -2,-1 0,-1 1,-1 1,-2 0,0 1,1 1,1z"/>
    <path class="fil6" d="M32 19c-1,-1 -1,-1 -1,-1 0,0 0,-1 0,-1 1,0 1,1 1,2z"/>
    <path class="fil5" d="M22 21c0,0 -1,1 -1,2 0,-1 -1,-1 -1,-1 0,-1 0,-2 1,-2 0,0 1,1 1,1z"/>
    <path class="fil7" d="M30 18c0,0 0,1 -1,1 0,0 -1,-1 -2,-1 0,0 0,-1 1,-1 0,0 1,1 2,1z"/>
    <path class="fil6" d="M26 18c0,1 0,1 0,2 -1,-1 -1,-1 -2,-1 0,-1 1,-1 1,-2 0,0 1,1 1,1z"/>
    <path class="fil5" d="M22 20c0,0 0,0 -1,0 0,-1 1,-2 2,-2 0,0 0,1 0,1 0,0 0,1 -1,1z"/>
    <path class="fil7" d="M31 16c-1,1 -1,1 -1,2 -1,-1 -1,-1 -2,-2 0,0 0,0 1,-1 0,1 1,1 2,1z"/>
    <path class="fil5" d="M24 18c-1,0 -1,0 -1,0 0,-1 0,-1 1,-2 0,1 0,1 1,1 -1,0 -1,1 -1,1z"/>
    <path class="fil6" d="M27 17c0,0 0,0 0,1 -1,-1 -1,-1 -2,-1 1,-1 1,-1 1,-1 0,0 1,0 1,1z"/>
    <path class="fil7" d="M31 15c0,0 0,1 0,1 -1,0 -1,-1 -2,-1 0,-1 0,-1 0,-1 1,0 2,0 2,1z"/>
    <path class="fil6" d="M28 15c0,0 0,1 -1,1 0,0 0,0 -1,-1 0,0 1,0 1,-1 0,1 1,1 1,1z"/>
    <path class="fil5" d="M25 16c0,0 0,0 0,0 0,0 0,-1 0,-1 0,1 0,1 0,1z"/>
    <path class="fil6" d="M28 14c0,0 0,0 0,0 0,-1 0,-1 1,0 0,0 -1,0 -1,0z"/>
   </g>
  </g>
 </g>
</svg>
