<?xml version="1.0" encoding="UTF-8"?>
<!DOCTYPE svg PUBLIC "-//W3C//DTD SVG 1.1//EN" "http://www.w3.org/Graphics/SVG/1.1/DTD/svg11.dtd">
<!-- Creator: CorelDRAW X7 -->
<svg xmlns="http://www.w3.org/2000/svg" xml:space="preserve" width="0.343693in" height="0.374394in" version="1.1" style="shape-rendering:geometricPrecision; text-rendering:geometricPrecision; image-rendering:optimizeQuality; fill-rule:evenodd; clip-rule:evenodd"
viewBox="0 0 65 70"
 xmlns:xlink="http://www.w3.org/1999/xlink">
 <defs>
  <style type="text/css">
   <![CDATA[
    .fil0 {fill:black;fill-rule:nonzero}
    .fil2 {fill:#CF7A47;fill-rule:nonzero}
    .fil1 {fill:#F8600F;fill-rule:nonzero}
   ]]>
  </style>
 </defs>
 <g id="__x0023_Layer_x0020_1">
  <metadata id="CorelCorpID_0Corel-Layer"/>
  <g id="_145756886352">
   <path class="fil0" d="M54 33c1,0 1,-2 2,-2 0,-1 0,-2 0,-2 1,-2 1,-3 2,-5 0,0 0,-2 0,-3 -1,1 -1,1 -1,1 -2,2 -3,3 -5,3 -1,0 -3,0 -3,-2 0,0 0,-2 0,-2 -1,0 -2,0 -3,-1 -1,-1 -1,-2 -1,-3 1,-1 1,-1 0,-2 -1,0 -1,-1 -2,-1 0,-2 0,-4 0,-5 -1,1 -3,-1 -4,-3 -1,-1 -2,-2 -2,-4 0,-1 -1,-1 -1,-2 0,0 0,1 0,1 -1,1 -2,2 -4,3 0,0 -1,1 -1,1 -1,0 -2,0 -2,0 1,1 2,3 1,4 0,2 -2,1 -3,1 1,2 2,6 0,7 -2,1 -3,0 -3,-2 0,-1 0,-2 0,-3 0,0 -1,0 -1,0 -1,0 -1,0 -2,0 -1,0 -2,-2 -3,-3 0,0 0,-1 0,-1 -1,0 -1,0 -1,0 -1,0 -2,0 -3,0 -4,-1 -6,-4 -8,-6 0,0 0,1 0,1 0,1 0,2 0,2 0,1 0,2 0,3 0,3 -1,5 -3,7 1,0 1,1 2,1 1,0 1,1 2,1 0,1 1,2 1,3 0,2 -2,3 -3,3 1,1 2,1 2,2 2,1 1,4 0,5 2,0 5,2 4,4 0,1 0,1 -1,2 0,0 -1,0 -1,0 -2,0 -3,-1 -5,-2 0,0 -3,-1 -3,-2 0,1 0,1 0,1 1,1 1,2 2,3 0,1 0,3 -1,4 0,0 0,1 -1,1 0,0 -1,1 -1,1 1,0 2,1 3,1 0,1 0,3 0,4 2,0 3,2 4,4 1,0 1,1 1,1 0,0 2,-1 2,-1 1,-1 1,-1 2,-1 1,0 3,1 3,3 0,1 0,2 -1,2 -1,1 -3,1 -4,1 0,1 0,2 0,3 0,1 0,1 -1,2 2,0 3,0 4,0 1,0 1,1 2,1 1,0 1,1 1,2 1,-1 2,-2 3,-2 1,-1 2,-1 3,-1 1,0 2,1 2,2 1,0 2,-1 4,-1 2,0 2,2 3,3 0,0 1,-2 1,-2 1,-1 2,-3 2,-4 1,-1 1,-1 1,-2 0,-1 0,-2 0,-3 1,-2 1,-4 0,-6 3,5 5,9 7,14 1,3 2,5 3,7 0,2 3,1 4,1 0,-1 1,-2 1,-2 0,-1 0,-2 0,-2 -1,-2 -2,-4 -3,-6 -1,-2 -3,-4 -4,-6 -1,-1 -1,-2 -2,-3 0,-1 -1,-1 -1,-2 0,0 -1,-1 -1,-1 0,0 1,0 1,1 0,0 1,0 1,0 3,2 6,2 9,2 1,0 2,0 3,0 0,-1 0,-1 0,-2 0,0 0,-1 0,-2 0,0 0,-1 0,-1 1,0 2,-1 2,-1 -1,-1 -1,-2 0,-3 0,-1 1,-1 1,-1 1,0 2,-1 2,-1 0,-2 1,-3 3,-4 1,-1 2,-1 4,-2 -4,-1 -7,-2 -11,-1z"/>
   <g>
    <path class="fil1" d="M61 34c-2,1 -4,3 -4,5 -3,-3 -8,-1 -12,-1 3,-1 6,-3 9,-4 3,-1 5,0 7,0z"/>
    <path class="fil1" d="M57 23c-2,6 -3,9 -5,11 -2,1 -4,2 -6,3 1,-2 3,-6 5,-10 -1,1 -2,3 -3,5 -2,-1 -2,-3 -3,-5 0,2 1,4 1,7 0,2 -1,3 -2,4 -3,1 -6,2 -10,2 1,-1 2,-3 4,-4 2,-2 5,-2 6,-3 -1,0 -3,0 -5,1 3,-5 6,-10 9,-11 0,5 7,4 9,0z"/>
    <path class="fil1" d="M56 40c-1,1 -4,2 -3,4 -1,0 -4,0 -8,0 -1,-2 -3,-3 -5,-4 1,0 2,-1 3,-1 5,0 10,-3 13,1z"/>
    <path class="fil1" d="M54 45c-1,1 -3,2 -2,5 -9,0 -13,-2 -17,-9 1,0 2,0 3,-1 1,0 2,1 3,1 1,2 1,4 1,5 0,-1 1,-2 0,-4 3,2 7,7 8,7 0,-1 -2,-2 -4,-4 3,-1 5,-1 8,0z"/>
    <path class="fil2" d="M49 67c0,1 -2,2 -3,2 -5,-17 -17,-33 -21,-40 3,3 20,29 24,38z"/>
    <path class="fil1" d="M48 22c-2,1 -4,4 -7,7 0,-2 0,-6 1,-9 -1,2 -2,7 -2,11 -2,3 -5,6 -7,8 -1,-1 -2,-3 -3,-4 1,-1 1,-1 1,-2 3,-1 6,-3 7,-4 -2,1 -4,2 -6,3 0,-2 1,-5 2,-8 2,-3 6,-5 9,-8 -1,1 -2,2 -3,2 -1,-1 0,-2 0,-3 -1,1 -1,2 -2,4 -1,1 -3,2 -4,3 1,-1 1,-2 1,-4 1,-4 5,-6 7,-8 0,3 0,5 2,6 -1,4 1,5 4,6z"/>
    <path class="fil1" d="M42 10c-2,1 -5,3 -7,5 0,-4 1,-8 0,-11 0,1 0,3 0,5 -1,-1 -2,-2 -2,-3 0,1 1,3 2,6 0,2 0,5 -1,7 -1,-3 -3,-5 -4,-7 1,3 3,7 4,10 -1,2 -1,3 -1,4 -1,-1 -2,-3 -3,-4 0,2 2,4 2,6 -1,2 -1,4 -2,6 -1,-1 -2,-2 -3,-3 0,-4 0,-8 0,-11 -1,2 -1,5 -1,9 -2,-2 -3,-4 -5,-6 0,-3 0,-5 0,-8 -1,1 -1,4 -1,6 -1,-1 -2,-2 -4,-4 0,-2 0,-5 0,-6 0,0 -1,3 -1,5 -2,-3 -4,-6 -7,-8 1,1 4,4 6,8 -2,-1 -6,-2 -8,-2 3,1 7,2 10,4 1,2 3,4 5,7 -1,-1 -2,-1 -3,-1 -3,-3 -5,-5 -7,-5 2,1 3,2 4,4 -2,0 -4,0 -6,0 3,0 5,0 7,1 -2,2 -4,4 -6,5 2,0 5,-2 8,-4 1,0 3,1 4,2 1,1 2,3 4,4 -2,0 -4,-1 -5,-1 -1,-1 -3,-2 -4,-2 1,0 2,1 3,2 -3,0 -5,1 -7,1 3,0 6,0 9,0 -2,3 -3,4 -6,5 3,0 5,-2 7,-4 1,0 2,0 3,1 2,2 3,4 4,6 -1,0 -2,0 -3,1 -2,-1 -4,-3 -6,-3 2,1 4,2 5,3 -2,1 -4,1 -5,1 -3,-1 -7,-4 -8,-5 1,1 4,4 6,6 -3,0 -5,0 -8,0 -1,-1 -4,-4 -6,-6 1,2 2,4 5,6 -2,0 -4,0 -6,0 2,0 4,0 5,0 -1,2 -3,3 -5,4 0,-2 -1,-4 -2,-4 1,-1 2,-2 2,-4 0,0 0,-1 -1,-2 0,0 0,-1 -1,-2 1,0 2,1 3,2 0,0 1,0 2,1 1,0 2,0 3,0 2,-1 3,-3 2,-5 0,0 -1,-1 -1,-1 0,0 -2,-1 -2,-1 0,-3 1,-5 -2,-7 4,-2 2,-7 -2,-8 3,-4 2,-9 2,-10 4,4 8,5 10,4 1,3 4,5 6,4 -1,9 9,7 6,-2 1,1 3,-2 2,-5 1,0 4,-2 5,-3 1,3 3,6 6,7z"/>
    <path class="fil1" d="M33 53c0,-2 -1,-4 -3,-6 0,-1 0,-2 0,-3 1,-1 1,-2 2,-3 4,5 4,16 -1,22 -1,-2 -4,-3 -7,-1 -1,-4 -5,-2 -7,0 -2,-1 -4,-2 -6,-2 0,-1 0,-2 0,-3 9,0 4,-12 -3,-6 0,-2 -2,-4 -4,-4 2,-1 4,-3 6,-5 1,1 2,1 3,1 -2,2 -4,4 -4,6 1,-2 4,-5 6,-6 2,0 4,-1 6,-1 0,1 -1,2 -1,3 -2,1 -5,1 -7,2 3,-1 5,-1 6,-1 -1,2 -2,3 -3,4 4,-2 4,-5 7,-8 1,0 2,0 3,-1 -1,3 -2,6 -3,8 1,-2 3,-5 4,-8 1,0 2,-1 3,-1l1 0c-2,4 -5,8 -8,12 -2,0 -4,0 -5,1 1,0 3,0 4,0 -2,3 -5,5 -7,6 2,-1 4,-2 5,-3 -1,1 -2,3 -2,4 1,-1 2,-4 4,-6 1,-1 2,-2 3,-4 0,2 0,5 0,6 0,-1 1,-4 1,-7 1,-1 2,-2 3,-3 0,1 0,3 1,5 -2,3 -4,6 -4,9 1,-3 2,-5 4,-7 0,3 1,6 1,8 0,-2 0,-7 -1,-12 1,1 2,2 3,4z"/>
   </g>
  </g>
 </g>
</svg>
