<?xml version="1.0" encoding="UTF-8"?>
<!DOCTYPE svg PUBLIC "-//W3C//DTD SVG 1.1//EN" "http://www.w3.org/Graphics/SVG/1.1/DTD/svg11.dtd">
<!-- Creator: CorelDRAW X7 -->
<svg xmlns="http://www.w3.org/2000/svg" xml:space="preserve" width="0.37548in" height="0.451752in" version="1.1" style="shape-rendering:geometricPrecision; text-rendering:geometricPrecision; image-rendering:optimizeQuality; fill-rule:evenodd; clip-rule:evenodd"
viewBox="0 0 96 115"
 xmlns:xlink="http://www.w3.org/1999/xlink">
 <defs>
  <style type="text/css">
   <![CDATA[
    .fil0 {fill:black;fill-rule:nonzero}
    .fil2 {fill:#838330;fill-rule:nonzero}
    .fil3 {fill:#879B40;fill-rule:nonzero}
    .fil7 {fill:#94AE48;fill-rule:nonzero}
    .fil1 {fill:#A1A351;fill-rule:nonzero}
    .fil4 {fill:#E4A335;fill-rule:nonzero}
    .fil6 {fill:#EEB841;fill-rule:nonzero}
    .fil5 {fill:#FFCF55;fill-rule:nonzero}
    .fil8 {fill:#FFD562;fill-rule:nonzero}
   ]]>
  </style>
 </defs>
 <g id="__x0023_Layer_x0020_1">
  <metadata id="CorelCorpID_0Corel-Layer"/>
  <g id="_145756851600">
   <path class="fil0" d="M68 1c-2,1 -4,3 -5,5 -3,5 -4,11 -4,17 -1,-1 -2,-1 -2,-2 0,-2 -3,-2 -4,-4 -1,-2 -1,-4 -3,-6 -1,0 -1,0 -2,-1 -1,-1 -3,-1 -4,1 0,0 0,0 -1,1 -1,1 -1,2 -2,3 0,2 -1,3 -2,4 0,1 0,1 0,2 0,1 0,1 0,2 -1,0 -1,1 -1,1 0,1 0,1 0,1 0,1 0,1 -1,2 0,1 0,2 0,3 0,0 0,0 0,1 1,0 0,0 0,1 0,1 -1,2 -1,3 0,0 0,0 1,1 -1,0 -1,0 -1,1 -1,1 -1,1 -1,2 1,1 1,1 1,2 0,0 0,2 0,2 -1,0 -2,-1 -3,-1 -1,-1 -2,-1 -2,-1 -1,0 -2,0 -2,0 -1,-1 -2,-1 -4,-1 -1,0 -2,2 -3,3 -1,0 -1,1 -1,2 0,1 0,2 0,3 -6,-5 -13,-7 -21,-9 2,2 3,3 4,4 4,4 7,8 9,13 -4,-2 -9,-1 -13,-1 2,1 3,2 5,3 3,4 5,8 7,12 4,8 7,16 13,23 -1,0 -3,0 -4,-1 4,4 14,11 20,14 7,5 16,9 25,9 8,0 16,-1 22,-6 9,-8 9,-21 7,-32 -1,-5 -3,-11 -5,-16 -1,-3 -2,-6 -4,-9 -1,-1 -3,-2 -4,-5 -4,-12 -14,-24 -13,-38 5,4 7,4 11,8 -1,-2 -1,-7 -5,-12 0,-1 -1,-3 -2,-4 -1,-1 -2,-2 -5,0z"/>
   <g>
    <path class="fil1" d="M85 53c4,7 20,47 -2,58 -7,-11 5,-37 2,-58z"/>
    <path class="fil2" d="M80 108c1,1 1,2 1,3 -6,3 -15,3 -21,2 -14,-3 -24,-12 -31,-16 10,3 20,10 32,13 7,2 16,0 19,-2z"/>
    <path class="fil1" d="M80 105c0,0 0,1 0,2 -7,3 -12,3 -19,2 -6,-2 -21,-10 -34,-15 17,0 34,12 52,7 0,1 0,2 0,2 -4,2 -10,2 -15,2 3,1 10,2 16,0z"/>
    <path class="fil3" d="M83 54c1,9 0,21 -1,30l-3 -4c1,-5 3,-20 4,-26z"/>
    <path class="fil4" d="M81 87c0,1 0,3 -1,4 0,-1 -1,-1 -2,-2 1,-1 2,-2 3,-2z"/>
    <path class="fil5" d="M80 93c0,2 -1,3 -1,5 -1,-1 -1,-2 -2,-3 1,-1 2,-1 3,-2z"/>
    <path class="fil5" d="M80 92c-2,1 -3,2 -4,3 -1,-1 -2,-2 -2,-3 1,-1 2,-2 3,-3 1,1 2,2 3,3z"/>
    <path class="fil4" d="M79 83c0,1 1,2 1,3 0,0 -1,1 -3,2 0,-1 -1,-1 -2,-2 2,-1 3,-2 4,-3z"/>
    <path class="fil6" d="M76 96c1,1 2,2 2,3 -2,0 -5,1 -7,1 0,0 0,0 -1,-1 2,-1 4,-2 6,-3z"/>
    <path class="fil4" d="M76 80c1,0 2,1 2,2 -1,1 -2,2 -3,3 -1,-1 -2,-2 -3,-2 2,-1 3,-2 4,-3z"/>
    <path class="fil7" d="M82 52c-1,5 -3,13 -4,19 0,-1 -1,-3 -1,-3 0,-1 -1,-3 -2,-4 1,-1 0,-3 0,-4 0,-2 -1,-4 -2,-5 0,-1 -1,-4 -3,-6 1,-3 -1,-4 -2,-4 1,-1 -1,-4 -2,-5 0,-1 -1,-6 -4,-8 1,-2 0,-4 -2,-6 0,-13 5,-23 10,-24 -8,20 7,31 12,50z"/>
    <path class="fil1" d="M78 74c-1,2 -1,3 -1,4 -1,-1 -2,-2 -3,-2 0,-2 -1,-4 -2,-4 -1,-2 -3,-4 -5,-4 -1,-1 -2,-3 -4,-4 0,-1 -1,-3 -4,-3 0,-1 -1,-2 -4,-3 0,-1 -1,-2 -3,-3 0,-1 -1,-2 -3,-2 0,-1 -2,-3 -4,-3 0,-1 0,-1 -1,-1 3,-3 6,-6 9,-8 2,18 19,21 25,33z"/>
    <path class="fil5" d="M75 86c0,1 1,2 2,3 -1,1 -3,2 -4,3 -1,-1 -2,-2 -2,-3 1,-1 2,-2 4,-3z"/>
    <path class="fil6" d="M73 93c1,1 1,2 2,2 -2,2 -3,3 -5,4 -1,-1 -2,-2 -2,-2 1,-2 3,-3 5,-4z"/>
    <path class="fil4" d="M73 76c1,1 2,1 2,3 -1,1 -2,2 -3,3 -1,-1 -2,-2 -2,-3 1,-1 2,-2 3,-3z"/>
    <path class="fil5" d="M72 83c0,1 1,2 2,3 -1,1 -3,2 -4,3 -1,-1 -1,-2 -2,-3 1,-1 2,-2 4,-3z"/>
    <path class="fil5" d="M74 65c1,0 2,2 1,3 -1,-1 -2,-2 -3,-3 1,0 1,0 2,0z"/>
    <path class="fil6" d="M70 90c1,1 1,1 2,2 -2,1 -3,3 -5,4 -1,-1 -2,-2 -2,-3 1,-1 3,-2 5,-3z"/>
    <path class="fil5" d="M73 61c1,1 2,2 1,3 -1,0 -2,0 -3,0 -1,-1 -2,-1 -3,-2 2,0 4,0 5,-1z"/>
    <path class="fil5" d="M69 99c0,1 -1,1 -1,1 -2,0 -4,0 -5,0 1,-1 2,-2 4,-3 1,1 1,2 2,2z"/>
    <path class="fil4" d="M70 72c1,1 2,2 3,3 -1,1 -3,2 -4,4 -1,-1 -2,-2 -3,-3 2,-1 3,-3 4,-4z"/>
    <path class="fil5" d="M73 58c1,1 1,2 0,3 -2,0 -3,0 -5,0 0,-1 -1,-2 -1,-2 2,-1 4,-1 6,-1z"/>
    <path class="fil5" d="M69 80c0,1 1,2 2,3 -1,1 -2,2 -4,3 0,-1 -1,-2 -2,-3 1,-1 2,-2 4,-3z"/>
    <path class="fil6" d="M67 87c1,1 2,1 2,2 -1,1 -3,3 -5,4 -1,-1 -1,-2 -2,-3 2,-1 3,-2 5,-3z"/>
    <path class="fil5" d="M71 55c1,0 2,2 1,2 -1,1 -3,1 -5,1 0,-1 -1,-2 -1,-3 2,0 3,0 5,0z"/>
    <path class="fil5" d="M69 50c2,1 3,3 2,4 -1,0 -3,0 -5,0 -1,-1 -1,-2 -1,-3 2,0 4,1 5,1 0,0 -1,-1 -2,-2 0,0 1,0 1,0z"/>
    <path class="fil5" d="M64 94c1,1 1,2 2,2 -1,2 -3,3 -5,4 0,-1 -1,-2 -2,-3 2,-1 3,-2 5,-3z"/>
    <path class="fil5" d="M65 76c1,1 2,2 3,3 -1,1 -2,2 -4,3 -1,-1 -2,-2 -2,-3 1,-1 2,-2 3,-3z"/>
    <path class="fil6" d="M64 84c1,0 2,1 3,2 -2,1 -4,3 -6,4 0,-1 -1,-2 -2,-3 2,-1 3,-2 5,-3z"/>
    <path class="fil4" d="M69 71c-1,1 -2,2 -4,4 -1,-1 -2,-2 -3,-3 2,-1 3,-2 4,-3 1,0 3,1 3,2z"/>
    <path class="fil5" d="M68 47c1,0 2,1 1,2 -1,0 -1,0 -2,0 -1,0 -2,-1 -3,-2 2,0 3,0 4,0z"/>
    <path class="fil3" d="M78 14c-1,-1 -6,-5 -9,-7 1,-2 1,-4 2,-6 3,4 5,8 7,13z"/>
    <path class="fil5" d="M61 91c1,1 2,2 2,2 -1,1 -3,3 -5,3 0,0 -1,-1 -2,-2 2,-1 3,-2 5,-3z"/>
    <path class="fil5" d="M62 73l2 3c-1,1 -2,2 -3,3 -1,-1 -2,-2 -3,-3 1,-1 2,-2 4,-3z"/>
    <path class="fil6" d="M67 60c-1,0 -2,-1 -2,-1 0,0 1,0 1,0 0,0 0,1 1,1z"/>
    <path class="fil4" d="M63 65c1,0 2,2 2,3 -1,1 -2,2 -3,3 -1,-1 -2,-2 -3,-2 2,-2 3,-3 4,-4z"/>
    <path class="fil6" d="M61 80c1,1 2,2 3,3 -2,1 -4,2 -6,4 0,-1 -1,-2 -2,-3 2,-1 3,-3 5,-4z"/>
    <path class="fil6" d="M65 55c0,1 1,2 1,3 -1,0 -1,0 -2,0 -1,-1 -2,-2 -3,-3 1,0 3,0 4,0z"/>
    <path class="fil5" d="M66 44c1,0 1,1 1,2 -1,0 -2,0 -3,0 0,0 -1,-1 -1,-2 1,0 2,0 3,0z"/>
    <path class="fil4" d="M58 98c0,0 1,1 1,1 -1,0 -2,0 -2,0l1 -1z"/>
    <path class="fil5" d="M58 88c1,1 2,2 3,2 -2,2 -4,3 -5,4 -1,-1 -2,-2 -3,-3 2,-1 4,-2 5,-3z"/>
    <path class="fil6" d="M64 50c0,2 1,3 1,4 -2,0 -3,0 -5,0 0,0 0,0 0,0 0,-2 -1,-3 -1,-5 2,1 3,1 5,1z"/>
    <path class="fil5" d="M58 69l3 3c-1,1 -2,2 -3,3 -1,-1 -2,-2 -3,-3 1,-1 2,-2 3,-3z"/>
    <path class="fil5" d="M64 40c1,1 2,2 2,3 -1,0 -2,0 -3,0 0,-1 0,-2 -1,-3 1,0 1,0 2,0z"/>
    <path class="fil3" d="M64 49c-1,0 -6,-1 -8,-2 -1,-1 -1,-3 -2,-5 4,2 9,6 10,7z"/>
    <path class="fil4" d="M57 97c-1,1 -1,1 -2,1 -1,0 -1,0 -2,0 0,-1 -1,-1 -1,-1 1,-1 2,-1 3,-2 1,1 1,2 2,2z"/>
    <path class="fil6" d="M57 76c1,1 2,2 3,3 -1,2 -3,3 -5,4 -1,-1 -2,-2 -3,-3 2,-1 4,-3 5,-4z"/>
    <path class="fil4" d="M62 65c-1,1 -2,2 -3,3 -1,-1 -2,-2 -3,-3 1,-1 3,-2 3,-3 2,1 2,2 3,3z"/>
    <path class="fil6" d="M62 44c0,1 1,1 1,2 -1,-1 -2,-1 -3,-2 1,0 1,0 2,0z"/>
    <path class="fil5" d="M64 37c0,0 0,2 0,2 -1,0 -1,0 -2,1 0,-1 0,-2 0,-3 0,0 1,0 2,0z"/>
    <path class="fil5" d="M55 84c1,1 2,2 3,3 -2,1 -3,2 -5,3 -1,0 -2,-1 -2,-2 1,-1 3,-2 4,-4z"/>
    <path class="fil5" d="M60 32c2,1 4,3 3,4 0,0 -1,0 -2,0 0,-1 0,-3 -1,-4z"/>
    <path class="fil6" d="M61 40c1,1 1,2 1,3 -1,0 -2,0 -3,0l-1 0c0,-1 0,-2 0,-2 1,0 2,0 3,-1z"/>
    <path class="fil6" d="M54 73c1,1 2,2 3,3 -2,1 -3,2 -5,4 -1,-1 -2,-2 -2,-3 1,-2 3,-3 4,-4z"/>
    <path class="fil5" d="M55 66l3 3c-1,1 -2,2 -3,3 -1,-1 -2,-2 -3,-3 1,-1 2,-2 3,-3z"/>
    <path class="fil4" d="M52 92c1,1 2,1 3,2 -2,1 -3,2 -4,2 -1,0 -3,-1 -3,-2 2,-1 3,-1 4,-2z"/>
    <path class="fil6" d="M61 37c0,1 0,2 0,3 -1,0 -2,0 -3,0 -1,-1 -1,-2 -1,-3 1,0 2,0 4,0z"/>
    <path class="fil5" d="M58 49c0,1 0,2 1,3 -1,-1 -2,-2 -2,-3 0,0 1,0 1,0z"/>
    <path class="fil4" d="M58 62c-1,1 -2,2 -2,2l-2 -1c1,-1 1,-1 2,-2l-1 -1c0,1 -1,2 -2,2 -1,-1 -1,-2 -2,-3 0,0 1,-1 2,-1l-1 -1c-1,1 -1,1 -2,2 -1,-1 -2,-2 -2,-3 0,0 1,-1 1,-1 2,-1 2,1 2,2 2,-1 3,1 3,2 2,0 4,1 4,3z"/>
    <path class="fil6" d="M59 32c1,2 1,3 1,4 -1,0 -2,0 -3,0 0,-1 0,-2 -1,-3 1,0 2,0 3,-1z"/>
    <path class="fil5" d="M52 81c1,1 2,2 3,3 -2,1 -3,2 -5,3 -1,-1 -2,-2 -3,-3 2,-1 3,-2 5,-3z"/>
    <path class="fil5" d="M60 28c2,1 2,3 0,4 0,-2 0,-3 0,-4z"/>
    <path class="fil6" d="M51 69c1,1 2,2 3,3 -2,2 -3,3 -5,4 -1,-1 -2,-2 -3,-3 2,-1 4,-2 5,-4z"/>
    <path class="fil5" d="M53 64l2 1c-1,1 -2,2 -4,3 0,0 -1,-1 -1,-2 1,-1 2,-1 3,-2z"/>
    <path class="fil4" d="M50 89c0,0 1,1 2,2 -2,1 -3,2 -4,3 -1,0 -2,-2 -2,-3 1,0 2,-1 4,-2z"/>
    <path class="fil6" d="M58 28c1,1 1,2 1,4 -1,0 -2,0 -3,0 0,-1 0,-3 -1,-4 1,0 2,0 3,0z"/>
    <path class="fil5" d="M57 41c0,0 0,1 0,1 -1,0 -2,-1 -2,-1 1,0 1,0 2,0z"/>
    <path class="fil5" d="M56 37c1,1 1,2 1,3 -2,0 -3,0 -5,0 0,-1 0,-2 0,-3 1,0 3,0 4,0z"/>
    <path class="fil5" d="M49 77c1,1 2,2 2,3 -1,1 -3,2 -4,3 -1,-1 -2,-2 -2,-3 1,-1 2,-2 4,-3z"/>
    <path class="fil8" d="M50 60l3 3c-1,1 -3,2 -4,3 -1,-1 -2,-2 -2,-3 1,-1 2,-2 3,-3z"/>
    <path class="fil6" d="M56 23c2,1 2,2 2,3 -1,1 -2,1 -3,1 0,-1 0,-2 -1,-4 1,0 2,0 2,0z"/>
    <path class="fil6" d="M49 67c1,1 1,1 2,2 -2,1 -3,2 -5,3 -1,0 -1,-1 -2,-1 2,-2 4,-3 5,-4z"/>
    <path class="fil5" d="M55 33c1,1 1,2 1,3 -1,0 -3,1 -4,1 0,-2 -1,-3 -1,-4 2,0 3,0 4,0z"/>
    <path class="fil4" d="M46 84c1,2 2,3 3,4 -1,1 -3,2 -4,2 -2,0 -3,-1 -3,-3 2,-1 3,-2 4,-3z"/>
    <path class="fil3" d="M44 93c1,0 2,2 3,3 -7,-4 -14,-12 -17,-15 2,3 7,9 13,14 -2,-1 -4,-1 -6,-1 -3,-3 -6,-6 -9,-10 -10,-12 -10,-30 -23,-42 7,1 12,4 16,7 -1,1 0,3 1,4 -1,0 0,3 2,3 -1,3 0,4 1,5 -1,1 1,3 2,4 0,1 1,3 2,4 0,1 1,3 2,4 0,2 1,4 3,4 0,1 1,3 3,4 -1,1 1,4 2,4 0,1 1,2 2,3 0,1 2,4 3,5z"/>
    <path class="fil5" d="M46 74c1,1 1,2 2,3 -1,1 -3,2 -4,3 -1,-1 -2,-2 -2,-4 1,0 2,-1 4,-2z"/>
    <path class="fil5" d="M54 28c1,1 1,3 1,4 -1,0 -2,0 -4,0 0,-1 0,-2 0,-4 1,0 2,0 3,0z"/>
    <path class="fil6" d="M53 20c2,0 3,1 2,2 0,0 0,0 -1,1 0,-1 0,-2 -1,-3z"/>
    <path class="fil8" d="M47 57l2 3c-1,1 -2,1 -3,2 -1,-1 -2,-2 -3,-3 2,0 3,-1 4,-2z"/>
    <path class="fil5" d="M53 24c1,1 1,2 1,3 -1,0 -2,0 -3,0 -1,-1 -1,-2 -1,-3 1,0 2,0 3,0z"/>
    <path class="fil4" d="M44 81c0,1 1,2 2,3 -1,1 -3,2 -4,2 -1,0 -2,-1 -2,-2 1,-1 2,-2 4,-3z"/>
    <path class="fil6" d="M46 63c1,1 2,2 2,3 -1,1 -3,3 -4,4 -1,-1 -2,-2 -3,-3 2,-1 3,-3 5,-4z"/>
    <path class="fil6" d="M51 37c0,1 0,2 0,3 -1,0 -2,0 -3,0l-1 -3c1,0 3,0 4,0z"/>
    <path class="fil4" d="M48 54c0,1 -1,1 -1,2 -1,-1 -2,-2 -2,-3 0,0 1,-1 1,-1 1,0 2,1 2,2z"/>
    <path class="fil5" d="M52 20c1,1 1,2 1,3 -1,0 -2,0 -3,0 0,-1 0,-2 -1,-3 1,0 2,0 3,0z"/>
    <path class="fil6" d="M50 33c1,1 1,2 1,4 -1,0 -3,-1 -4,-1 0,-1 0,-2 0,-3 1,0 2,0 3,0z"/>
    <path class="fil6" d="M48 41c1,0 2,0 3,0 -1,0 -2,1 -3,2l0 -2z"/>
    <path class="fil5" d="M44 71c0,1 1,1 1,2 -1,1 -3,2 -4,3 0,-1 -1,-2 -1,-2 1,-1 2,-2 4,-3z"/>
    <path class="fil6" d="M43 60l2 3c-1,1 -3,2 -4,3 -1,-1 -2,-2 -3,-3 2,-1 3,-2 5,-3z"/>
    <path class="fil8" d="M44 54l2 2c-1,1 -2,2 -3,3 -1,-1 -1,-2 -2,-3 1,0 2,-1 3,-2z"/>
    <path class="fil6" d="M50 28c0,2 0,3 0,4 -1,0 -2,0 -3,0 0,-1 0,-3 -1,-4 2,0 3,0 4,0z"/>
    <path class="fil5" d="M51 16c0,1 1,2 1,3 -1,0 -2,0 -3,0 0,-1 0,-2 0,-3 0,0 1,0 2,0z"/>
    <path class="fil4" d="M41 77c1,1 1,2 2,3 -1,1 -3,2 -4,3 -1,-1 -2,-2 -2,-4 1,0 2,-1 4,-2z"/>
    <path class="fil6" d="M49 24c0,1 1,2 1,4 -1,0 -3,0 -4,0 0,-2 0,-3 0,-4 1,0 2,0 3,0z"/>
    <path class="fil5" d="M40 67c1,1 2,2 3,3 -1,1 -3,2 -4,3 -1,-1 -2,-2 -2,-3 1,-1 2,-2 3,-3z"/>
    <path class="fil5" d="M47 41l0 3c-1,0 -3,0 -4,0 0,-1 0,-2 0,-3 1,0 2,0 4,0z"/>
    <path class="fil5" d="M43 45l3 -1c-1,1 -2,2 -3,3 0,-1 0,-2 0,-2z"/>
    <path class="fil4" d="M45 52c0,0 0,0 -1,1 -1,-1 -1,-2 -2,-2 0,-1 1,-1 1,-1 1,0 2,1 2,2z"/>
    <path class="fil5" d="M46 37l1 3c-2,0 -3,0 -4,0 0,-1 0,-2 0,-3 1,0 2,0 3,0z"/>
    <path class="fil6" d="M49 20c0,1 0,2 0,3 -1,0 -2,0 -3,0 0,-1 0,-2 0,-3 1,0 2,0 3,0z"/>
    <path class="fil4" d="M39 74c0,1 1,2 1,2 -1,1 -3,2 -4,3 -1,-1 -1,-2 -1,-2 1,-1 2,-2 4,-3z"/>
    <path class="fil5" d="M51 15c-1,0 -2,0 -2,0 -1,-1 -1,-2 -1,-3 1,0 2,1 3,3z"/>
    <path class="fil5" d="M41 51l2 2c-1,1 -2,2 -3,3 0,-1 -1,-2 -2,-3 1,0 2,-1 3,-2z"/>
    <path class="fil6" d="M40 57l2 2c-1,1 -3,3 -4,4 -1,-1 -2,-2 -2,-3 1,-1 3,-2 4,-3z"/>
    <path class="fil6" d="M48 16c0,1 0,2 0,3 0,0 -1,0 -2,0 0,-1 0,-2 0,-3 0,0 1,0 2,0z"/>
    <path class="fil5" d="M46 33c0,1 0,2 0,3 -1,0 -2,0 -3,0 0,-1 0,-2 0,-4 1,1 2,1 3,1z"/>
    <path class="fil5" d="M46 28c0,1 0,3 0,4 -1,0 -2,0 -3,-1 0,-1 0,-2 0,-3 1,0 2,0 3,0z"/>
    <path class="fil4" d="M42 49c0,1 0,1 0,1 -1,-1 -2,-1 -2,-2 1,0 2,0 2,1z"/>
    <path class="fil6" d="M47 13c0,1 1,1 1,2 -1,0 -2,0 -2,0 0,0 -1,-1 -1,-2 1,0 2,0 2,0z"/>
    <path class="fil5" d="M45 24c0,1 0,2 0,3 -1,0 -1,0 -2,0 0,-1 0,-2 0,-3 0,0 1,0 2,0z"/>
    <path class="fil4" d="M42 47c0,0 0,0 -1,0 0,0 -2,-2 -3,-2 2,0 3,0 4,0 0,1 0,1 0,2z"/>
    <path class="fil6" d="M47 12l0 0c0,0 -1,0 -2,0l0 0c1,-1 2,-1 2,0z"/>
    <path class="fil5" d="M37 64c1,1 2,2 3,3 -1,1 -3,1 -4,2 -1,-1 -1,-2 -2,-3 1,-1 2,-2 3,-2z"/>
    <path class="fil5" d="M45 20c0,1 0,2 0,3 -1,0 -2,0 -2,0 0,-1 0,-2 0,-3 0,0 1,0 2,0z"/>
    <path class="fil4" d="M42 41c0,1 0,2 0,3 -2,0 -3,0 -4,0 -1,-1 -1,-2 0,-3 1,0 3,0 4,0z"/>
    <path class="fil4" d="M36 70c1,1 1,2 2,4 -1,1 -2,1 -3,2 -2,0 -3,-3 -2,-4 1,-1 2,-1 3,-2z"/>
    <path class="fil5" d="M45 16c0,1 0,2 0,3 -1,0 -2,0 -2,0 0,-1 0,-2 0,-3 0,0 1,0 2,0z"/>
    <path class="fil4" d="M42 37c0,1 0,2 0,3 -2,0 -3,0 -5,-1 0,-1 0,-2 1,-2 1,0 3,0 4,0z"/>
    <path class="fil5" d="M38 48c1,1 2,2 3,3 -1,0 -2,1 -3,2 -1,-1 -2,-2 -2,-3 1,-1 2,-1 2,-2z"/>
    <path class="fil4" d="M42 32c0,2 0,3 0,4 -1,0 -3,0 -4,0 -1,-1 0,-3 1,-4 1,0 2,0 3,0z"/>
    <path class="fil4" d="M38 46c1,0 2,1 2,2 -1,-1 -2,-1 -2,-2z"/>
    <path class="fil6" d="M37 54c1,1 2,2 3,2 -2,1 -3,2 -5,3 -1,-1 -1,-1 -2,-2 2,-1 3,-2 4,-3z"/>
    <path class="fil5" d="M45 13c0,1 0,2 0,2 -1,0 -1,0 -2,0 0,-1 1,-2 2,-2z"/>
    <path class="fil5" d="M35 61c1,0 1,1 2,2 -1,1 -2,2 -3,2 -1,-1 -2,-2 -2,-2 1,-1 2,-2 3,-2z"/>
    <path class="fil4" d="M42 28c0,1 0,2 0,3 -1,0 -2,0 -3,0 -1,-1 -1,-3 0,-3 1,0 2,0 3,0z"/>
    <path class="fil4" d="M42 24c0,1 0,2 0,3 -1,0 -1,0 -2,0 0,-1 -1,-2 0,-3 1,0 1,0 2,0z"/>
    <path class="fil4" d="M42 20c0,1 0,2 0,3 -1,0 -1,0 -2,0 0,0 0,-2 1,-3 0,0 0,0 1,0z"/>
    <path class="fil5" d="M36 46l2 2c-1,0 -2,1 -3,2 0,-1 -1,-2 -2,-3 1,0 2,-1 3,-1 0,0 0,0 0,0z"/>
    <path class="fil4" d="M33 66c1,1 2,2 2,4 -1,0 -2,1 -3,1 -1,0 -2,-2 -2,-3 1,0 2,-1 3,-2z"/>
    <path class="fil4" d="M42 17c0,1 0,2 0,2 -1,0 -1,0 -1,0 0,-1 0,-1 1,-2z"/>
    <path class="fil6" d="M35 51c0,1 1,1 2,2 -1,1 -3,2 -4,3 -1,-1 -2,-2 -2,-3 1,0 2,-1 4,-2z"/>
    <path class="fil7" d="M33 93c-2,0 -4,0 -6,-1 -9,-9 -11,-19 -16,-28 -2,-4 -4,-6 -6,-8 3,0 7,1 9,2 4,8 8,25 19,35z"/>
    <path class="fil5" d="M32 57c1,1 2,2 2,3 -1,0 -2,1 -3,2 0,-1 -1,-2 -2,-3 1,-1 2,-1 3,-2z"/>
    <path class="fil4" d="M31 63c1,1 1,2 2,3 -1,0 -2,1 -3,1 -1,0 -2,-1 -2,-2 1,-1 2,-1 3,-2z"/>
    <path class="fil5" d="M35 45c-1,1 -1,1 -2,2 -1,-1 -1,-1 -1,-2 0,0 1,-1 1,-1 1,0 2,1 2,1z"/>
    <path class="fil6" d="M32 48c1,1 2,2 2,2 -1,1 -2,2 -4,3 0,-1 -1,-2 -2,-2 2,-1 3,-2 4,-3z"/>
    <path class="fil5" d="M30 54c1,1 1,2 2,3 -1,0 -2,1 -3,1 0,-1 -1,-2 -2,-3 1,0 2,0 3,-1z"/>
    <path class="fil5" d="M32 44c0,0 0,0 -1,1 -1,-1 -1,-2 -2,-2 2,-1 3,-1 3,1z"/>
    <path class="fil4" d="M29 59c0,1 1,2 1,3 0,1 -1,1 -2,2 -1,-1 -2,-2 -2,-3 1,-1 2,-1 3,-2z"/>
    <path class="fil6" d="M31 46c0,0 0,1 1,1 -1,1 -3,2 -4,3 0,-1 -1,-1 -1,-2 1,-1 2,-1 4,-2z"/>
    <path class="fil5" d="M28 51c0,1 1,2 1,2 0,1 -1,1 -2,2 -1,-1 -1,-2 -1,-3 0,0 1,-1 2,-1z"/>
    <path class="fil4" d="M28 59c-1,0 -1,0 -2,1 -1,-1 -1,-2 -1,-3 1,0 1,-1 1,-1 1,1 2,2 2,3z"/>
    <path class="fil6" d="M29 44c0,0 1,1 1,1 -1,1 -2,2 -4,3 0,-1 0,-2 -1,-2 1,-1 3,-2 4,-2z"/>
    <path class="fil4" d="M26 55c0,1 -1,1 -1,1 -1,0 -2,-2 -1,-3 0,0 0,0 1,0 0,1 1,1 1,2z"/>
    <path class="fil5" d="M26 49c0,0 1,1 1,1 0,1 -1,1 -2,2 0,-1 -1,-2 -1,-2 1,-1 1,-1 2,-1z"/>
    <path class="fil6" d="M27 42c1,0 1,0 1,1 -1,1 -2,1 -3,2 -1,-1 -1,-1 -1,-2 0,-1 1,-2 3,-1z"/>
    <path class="fil5" d="M24 46c1,1 1,1 2,2 -1,0 -2,1 -2,1 -1,0 -1,-1 -1,-2 0,0 1,0 1,-1z"/>
    <path class="fil4" d="M24 52c0,0 0,0 0,0 -1,0 -1,-1 -1,-2 0,1 1,1 1,2z"/>
    <path class="fil5" d="M24 46c0,0 -1,0 -1,0 -1,0 -1,-2 0,-2 0,1 1,1 1,2z"/>
   </g>
  </g>
 </g>
</svg>
