<?xml version="1.0" encoding="UTF-8"?>
<!DOCTYPE svg PUBLIC "-//W3C//DTD SVG 1.1//EN" "http://www.w3.org/Graphics/SVG/1.1/DTD/svg11.dtd">
<!-- Creator: CorelDRAW X7 -->
<svg xmlns="http://www.w3.org/2000/svg" xml:space="preserve" width="0.271697in" height="0.441118in" version="1.1" style="shape-rendering:geometricPrecision; text-rendering:geometricPrecision; image-rendering:optimizeQuality; fill-rule:evenodd; clip-rule:evenodd"
viewBox="0 0 281 457"
 xmlns:xlink="http://www.w3.org/1999/xlink">
 <defs>
  <style type="text/css">
   <![CDATA[
    .fil0 {fill:black;fill-rule:nonzero}
    .fil1 {fill:#6A4226;fill-rule:nonzero}
    .fil2 {fill:#EB8521;fill-rule:nonzero}
   ]]>
  </style>
 </defs>
 <g id="__x0023_Layer_x0020_1">
  <metadata id="CorelCorpID_0Corel-Layer"/>
  <g id="_145842431920">
   <path class="fil0" d="M41 333c7,14 23,20 37,15 -6,23 -12,46 -18,70 -2,7 -4,15 -6,23 -1,5 14,12 17,13 9,3 19,4 29,2 4,-1 7,-3 11,-5 2,-1 2,-6 3,-8 6,-22 8,-46 11,-69 12,10 29,9 42,-1 6,-4 10,-9 14,-16 2,-3 3,-7 5,-10 1,-4 1,-9 4,-9 29,1 45,-27 42,-53 0,-2 0,-3 0,-5 2,0 3,-1 5,-2 3,-1 6,-2 9,-4 6,-3 11,-7 16,-12 9,-10 17,-23 19,-37 4,-29 -16,-62 -46,-65 31,-22 19,-85 -22,-85 7,-16 9,-35 -1,-51 -12,-16 -32,-23 -51,-24 -21,-1 -40,5 -53,22 -13,19 -15,40 -12,63 -30,-11 -68,1 -80,31 -12,30 -4,60 22,77 -49,11 -53,99 3,102 -4,12 -6,26 0,38 4,8 -5,-11 0,0z"/>
   <g>
    <path class="fil1" d="M127 207c1,31 -5,187 -21,239 -13,8 -37,4 -45,-6 13,-52 45,-167 66,-233z"/>
    <path class="fil2" d="M256 176c-24,-19 -42,1 -70,-17 -20,-12 -19,-52 3,-60 18,-7 31,8 24,22 -4,7 -12,10 -17,7 -1,0 -2,-5 2,-5 4,0 11,-1 10,-12 -1,-5 -13,-10 -21,-5 -17,11 -8,40 3,47 19,12 44,9 52,-13 15,-44 -19,-69 -46,-54 8,-5 15,-24 16,-33 4,-40 -47,-53 -77,-43 -21,7 -31,30 -34,50 -1,10 1,20 2,29 19,11 24,30 24,39 0,17 -24,34 -40,19 -11,-11 -10,-24 -2,-30 7,-4 14,0 16,7 1,1 0,3 -4,1 -3,-2 -9,-1 -11,3 -1,4 -1,13 7,18 14,8 29,-8 28,-20 -5,-46 -71,-50 -94,-16 -11,16 -10,39 -8,49 2,6 7,22 37,37 -12,5 -26,3 -36,15 -12,16 -18,36 -10,56 7,16 21,23 39,21 18,-2 36,-19 35,-43 -1,-12 -18,-25 -31,-15 -7,5 -6,15 -4,18 2,4 8,4 11,2 4,-3 5,-1 4,0 0,7 -7,12 -14,9 -9,-4 -12,-17 -3,-30 13,-16 40,-4 43,13 1,11 -2,43 -41,52 -17,39 13,59 33,45 17,-60 38,-129 52,-170 3,23 0,111 -9,194 14,23 51,9 57,-28 -8,-2 -15,-7 -17,-12 -5,-9 -5,-22 4,-31 9,-10 22,-7 28,4 4,8 0,16 -6,18 -3,2 -4,-2 -2,-5 3,-2 5,-9 -1,-14 -5,-4 -13,-4 -17,4 -2,5 -3,16 1,22 9,14 30,11 39,4 10,-8 18,-23 14,-45 -17,-1 -28,-9 -31,-16 -4,-7 -1,-18 4,-24 6,-6 18,-8 24,2 4,7 0,13 -4,14 -1,0 -4,-1 -2,-3 2,-3 4,-7 -2,-11 -4,-1 -9,-2 -13,6 -2,4 -3,12 1,17 4,5 17,12 31,7 15,-4 26,-15 34,-29 13,-22 9,-50 -11,-67z"/>
   </g>
  </g>
 </g>
</svg>
