<?xml version="1.0" encoding="UTF-8"?>
<!DOCTYPE svg PUBLIC "-//W3C//DTD SVG 1.1//EN" "http://www.w3.org/Graphics/SVG/1.1/DTD/svg11.dtd">
<!-- Creator: CorelDRAW X7 -->
<svg xmlns="http://www.w3.org/2000/svg" xml:space="preserve" width="0.184728in" height="0.27672in" version="1.1" style="shape-rendering:geometricPrecision; text-rendering:geometricPrecision; image-rendering:optimizeQuality; fill-rule:evenodd; clip-rule:evenodd"
viewBox="0 0 15 22"
 xmlns:xlink="http://www.w3.org/1999/xlink">
 <defs>
  <style type="text/css">
   <![CDATA[
    .fil0 {fill:black;fill-rule:nonzero}
    .fil1 {fill:#F6CE6B;fill-rule:nonzero}
    .fil2 {fill:#FFE186;fill-rule:nonzero}
   ]]>
  </style>
 </defs>
 <g id="__x0023_Layer_x0020_1">
  <metadata id="CorelCorpID_0Corel-Layer"/>
  <g id="_145756886384">
   <path class="fil0" d="M11 8c1,0 1,-1 1,-2 1,1 1,3 1,4 0,-1 0,-3 0,-4 1,-1 1,-2 1,-3 0,0 0,-1 1,-2 0,0 0,-1 0,-1 0,0 -1,0 -1,0 -1,0 -1,0 -2,0 -1,0 -1,0 -2,1 -1,0 -1,0 -1,1 -1,0 -3,0 -3,1 1,-1 2,-1 3,-1 0,0 -1,1 -1,1 0,0 0,0 0,1 0,0 0,0 0,0 -1,0 -3,0 -3,1 0,0 1,-1 2,-1 0,1 -1,1 -1,2 -1,0 -2,1 -3,1 1,0 2,0 3,-1 0,0 0,1 0,1 -1,0 -1,0 -1,0 0,0 0,1 0,1 -2,0 -3,1 -3,1 0,0 1,0 2,0 0,0 0,0 0,0 0,0 0,0 0,0 -1,0 -1,1 -1,1 0,0 0,0 0,0 -1,1 -2,1 -2,2 0,0 1,-1 2,-1 0,0 0,0 -1,0 0,1 0,1 0,1 0,0 0,0 0,0 0,0 1,0 0,1 0,0 0,0 0,0 -1,0 -1,1 -1,1 0,0 0,0 1,-1 0,0 0,1 0,1 0,0 0,0 0,0 0,1 0,1 0,1 -1,0 -2,1 -2,2 0,-1 1,-1 1,-2 0,1 0,1 0,1 0,1 0,1 0,1 0,0 0,0 0,0 0,1 0,2 1,2 0,1 0,1 0,2 0,0 0,1 1,1 0,0 0,0 0,0 1,-1 1,-2 1,-2 1,-1 1,-1 1,-2 0,0 0,0 0,0 1,1 1,2 1,3 0,-1 0,-2 -1,-3 1,-1 1,-1 1,-2 1,-1 1,-1 1,-1 0,1 0,2 0,3 0,-1 0,-3 0,-4 1,-1 1,-1 1,-2 0,1 1,3 1,3 0,0 0,-2 -1,-3 1,-1 1,-1 1,-2 1,1 1,3 1,3 0,0 0,-2 0,-3 0,-1 1,-1 1,-2 0,1 0,3 0,3 1,0 0,-2 0,-3z"/>
   <g>
    <path class="fil1" d="M14 1c0,2 0,4 -1,5 0,-1 -1,-2 0,-4 0,0 1,-1 1,-1z"/>
    <path class="fil1" d="M12 2c0,3 1,4 -1,6 0,-2 -1,-3 0,-4 1,-1 1,-1 1,-2z"/>
    <path class="fil2" d="M14 1c-1,0 -1,0 -2,1 -1,0 -2,0 -2,0 -1,0 0,-1 0,-1 1,0 2,0 4,0z"/>
    <path class="fil1" d="M11 4c-1,3 0,4 -2,5 0,-1 0,-1 0,-4 1,0 1,0 2,-1z"/>
    <path class="fil1" d="M9 6c0,3 1,4 -1,6 0,-2 -1,-2 0,-4 0,-1 0,-1 1,-2z"/>
    <path class="fil1" d="M7 8c0,3 2,3 0,6 0,-2 -1,-2 -1,-4 0,-1 1,-1 1,-2z"/>
    <path class="fil2" d="M12 2c0,0 -1,1 -1,1 -2,1 -3,1 -3,1 0,-1 2,-2 4,-2z"/>
    <path class="fil1" d="M6 11c0,2 2,3 0,5 0,-1 -1,-2 -1,-4 0,0 1,-1 1,-1z"/>
    <path class="fil1" d="M5 13c1,2 1,4 0,5 0,-1 -1,-2 -1,-3 0,-1 0,-1 1,-2z"/>
    <path class="fil1" d="M4 16c1,2 1,3 0,3 0,-1 -1,-2 0,-3z"/>
    <path class="fil2" d="M10 4c0,0 -1,1 -1,2 -1,0 -2,0 -3,0 0,-1 2,-2 4,-2z"/>
    <path class="fil1" d="M3 18c1,1 1,3 -1,3 0,0 -1,-1 1,-3 0,1 0,2 0,3 0,-1 0,-2 0,-3z"/>
    <path class="fil2" d="M8 6c0,1 0,1 -1,2 -1,0 -2,0 -2,0 0,-1 2,-2 3,-2z"/>
    <path class="fil2" d="M7 8c0,1 -1,1 -1,1 -1,1 -2,2 -2,1 0,-1 1,-2 3,-2z"/>
    <path class="fil2" d="M6 10c0,0 -1,1 -1,1 -1,1 -2,2 -2,1 0,-1 1,-2 3,-2z"/>
    <path class="fil2" d="M3 16c0,0 0,1 0,1 -1,1 -1,2 -1,2 -1,0 -1,0 -1,-1 0,-1 1,-2 2,-2z"/>
    <path class="fil2" d="M5 12c0,0 0,1 -1,1 -1,1 -2,1 -2,2 0,-2 1,-3 3,-3z"/>
    <path class="fil2" d="M4 14c0,0 0,1 0,1 -1,0 -2,1 -2,1 -1,-1 0,-2 2,-2z"/>
   </g>
  </g>
 </g>
</svg>
