<?xml version="1.0" encoding="UTF-8"?>
<!DOCTYPE svg PUBLIC "-//W3C//DTD SVG 1.1//EN" "http://www.w3.org/Graphics/SVG/1.1/DTD/svg11.dtd">
<!-- Creator: CorelDRAW X7 -->
<svg xmlns="http://www.w3.org/2000/svg" xml:space="preserve" width="0.288193in" height="0.165583in" version="1.1" style="shape-rendering:geometricPrecision; text-rendering:geometricPrecision; image-rendering:optimizeQuality; fill-rule:evenodd; clip-rule:evenodd"
viewBox="0 0 43 25"
 xmlns:xlink="http://www.w3.org/1999/xlink">
 <defs>
  <style type="text/css">
   <![CDATA[
    .fil0 {fill:black;fill-rule:nonzero}
    .fil3 {fill:#756B3D;fill-rule:nonzero}
    .fil4 {fill:#837735;fill-rule:nonzero}
    .fil5 {fill:#DC3029;fill-rule:nonzero}
    .fil1 {fill:#EB4637;fill-rule:nonzero}
    .fil2 {fill:#EC4E4E;fill-rule:nonzero}
   ]]>
  </style>
 </defs>
 <g id="__x0023_Layer_x0020_1">
  <metadata id="CorelCorpID_0Corel-Layer"/>
  <g id="_145842386800">
   <path class="fil0" d="M0 25c0,0 1,0 1,-1 0,1 5,0 6,-1 4,-1 8,-2 10,-5 2,5 11,4 13,-1 0,1 4,6 13,8 -1,-8 -4,-13 -6,-16 -1,0 -1,0 -1,0 0,-1 1,-1 1,-2 0,-1 -1,-2 -1,-3 -1,-1 -2,-3 -4,-3 -3,-2 -8,0 -9,4 -2,-1 -4,-1 -6,0 -1,0 -1,1 -2,2 0,0 -1,0 -1,0 -3,1 -5,4 -7,6 -3,3 -7,11 -7,12z"/>
   <g>
    <path class="fil1" d="M26 2c1,-1 2,-1 3,-1 3,0 6,2 7,5 0,2 -1,4 -3,5 -2,3 -6,3 -8,0 0,-2 0,-4 -1,-5 0,-2 1,-3 2,-4zm6 6l0 0c0,0 -1,0 -2,0 0,1 -1,2 0,2 0,0 0,0 1,-1 0,0 1,0 1,-1z"/>
    <path class="fil2" d="M18 5c2,0 4,0 5,1 1,2 1,5 0,6 -3,2 -7,1 -7,-3 0,-1 0,-3 2,-4zm4 5l0 0c0,0 -1,0 -1,0 -1,0 -1,1 -1,1 0,0 1,0 1,0 0,0 1,0 1,-1z"/>
    <path class="fil3" d="M10 11c2,0 4,1 5,2 0,0 -1,1 -1,1 -1,0 -4,-1 -6,-1 1,-1 1,-1 2,-2z"/>
    <path class="fil3" d="M8 13c2,0 4,1 5,2 0,0 -1,1 -2,1 -1,0 -3,-1 -4,-1 0,-1 1,-1 1,-2z"/>
    <path class="fil4" d="M17 13c0,0 0,0 1,0 -1,1 -1,3 -1,4 -3,3 -9,5 -14,6 3,-3 10,-7 14,-10z"/>
    <path class="fil5" d="M19 14c2,0 4,0 5,-2 1,1 3,2 5,2 0,2 0,4 -2,5 -3,2 -6,2 -8,0 -1,-1 -1,-4 0,-5zm6 4l0 0c0,0 -1,-1 -1,-1 -1,0 -2,1 -2,1 1,1 1,1 2,1 0,-1 1,-1 1,-1z"/>
    <path class="fil3" d="M33 13c1,-1 2,-2 3,-3 4,3 5,7 6,13 -2,-2 -6,-6 -9,-10z"/>
    <path class="fil3" d="M5 17c1,0 1,-1 1,-2 2,1 4,1 5,1 -1,1 -1,1 -2,2 -1,-1 -2,-1 -4,-1z"/>
    <path class="fil4" d="M32 13c1,1 1,1 2,2 -1,1 -1,3 -1,5 0,-1 -1,-1 -1,-2 0,-1 0,-3 0,-5z"/>
    <path class="fil4" d="M30 14c0,0 1,0 2,0 -1,1 -1,2 -1,4 0,-1 -1,-1 -1,-2 0,-1 0,-1 0,-2z"/>
    <path class="fil3" d="M4 19c0,0 1,-1 1,-1 1,0 2,0 4,0 -1,1 -2,1 -2,2 -1,-1 -2,-1 -3,-1z"/>
    <path class="fil4" d="M34 15c1,1 1,1 1,2 0,1 0,3 0,4 0,0 -1,-1 -1,-1 0,-1 0,-3 0,-5z"/>
    <path class="fil3" d="M4 20c1,0 2,0 2,0 -1,1 -2,2 -3,3 0,-1 0,-2 1,-3z"/>
    <path class="fil4" d="M36 17c0,1 1,1 1,2 0,1 0,2 0,3 0,0 -1,0 -1,-1 0,-1 0,-2 0,-4z"/>
    <path class="fil4" d="M38 19c0,1 1,1 1,2 0,0 0,1 0,2 0,0 -1,-1 -1,-1 0,-1 0,-2 0,-3z"/>
    <path class="fil4" d="M40 23c-1,-1 -1,-1 -1,-2 1,1 2,2 3,3 -1,-1 -2,-1 -2,-1z"/>
    <path class="fil3" d="M16 12c0,0 0,0 0,0 0,-1 -1,-1 -1,-2 0,-1 0,-2 0,-2 0,0 -3,0 -5,3 2,0 4,1 6,1z"/>
   </g>
  </g>
 </g>
</svg>
