<?xml version="1.0" encoding="UTF-8"?>
<!DOCTYPE svg PUBLIC "-//W3C//DTD SVG 1.1//EN" "http://www.w3.org/Graphics/SVG/1.1/DTD/svg11.dtd">
<!-- Creator: CorelDRAW X7 -->
<svg xmlns="http://www.w3.org/2000/svg" xml:space="preserve" width="0.232063in" height="0.244587in" version="1.1" style="shape-rendering:geometricPrecision; text-rendering:geometricPrecision; image-rendering:optimizeQuality; fill-rule:evenodd; clip-rule:evenodd"
viewBox="0 0 14 14"
 xmlns:xlink="http://www.w3.org/1999/xlink">
 <defs>
  <style type="text/css">
   <![CDATA[
    .fil0 {fill:black;fill-rule:nonzero}
    .fil1 {fill:#756B3D;fill-rule:nonzero}
    .fil2 {fill:#837735;fill-rule:nonzero}
    .fil3 {fill:#DC3029;fill-rule:nonzero}
    .fil4 {fill:#EB4637;fill-rule:nonzero}
   ]]>
  </style>
 </defs>
 <g id="__x0023_Layer_x0020_1">
  <metadata id="CorelCorpID_0Corel-Layer"/>
  <g id="_145756850224">
   <path class="fil0" d="M10 0c-1,1 -3,4 -3,5 0,0 0,0 -1,0 0,0 0,-2 -2,-5 0,1 -1,1 -1,2 0,1 -1,3 -1,4 -2,0 -3,4 -1,5 -1,0 -1,2 0,3 1,1 3,0 3,-1 1,2 3,1 4,0 0,0 1,0 2,-1 0,0 0,0 0,-1 0,0 0,-1 0,-1 2,-1 3,-4 4,-5 -1,0 -2,0 -3,0 0,-2 0,-3 -1,-5z"/>
   <g>
    <path class="fil1" d="M9 7c1,-1 3,-2 4,-2 -1,1 -3,3 -4,4 0,-1 0,-2 0,-2z"/>
    <path class="fil2" d="M13 6c0,0 0,0 0,1 -1,0 -1,0 -1,0 0,0 1,-1 1,-1z"/>
    <path class="fil2" d="M12 7c0,0 0,0 0,1 0,0 -1,0 -1,0 0,-1 0,-1 1,-1 0,0 0,0 0,0z"/>
    <path class="fil2" d="M11 3c0,1 0,1 0,1 -1,0 -1,0 -2,1 0,-1 0,-1 1,-1 0,0 0,0 1,-1z"/>
    <path class="fil2" d="M11 4c0,0 0,1 0,1 -1,0 -1,0 -2,0 0,0 0,0 0,0 1,0 1,-1 2,-1z"/>
    <path class="fil2" d="M10 3c0,0 1,0 1,0 -1,0 -1,1 -1,1 0,0 0,-1 0,-1 0,0 0,0 0,0z"/>
    <path class="fil2" d="M11 5c0,0 0,0 0,0 -1,1 -1,1 -2,1 0,0 0,0 0,0 1,0 1,-1 2,-1z"/>
    <path class="fil2" d="M10 1c0,1 0,1 0,1 0,1 0,1 0,1 0,-1 0,-2 0,-2z"/>
    <path class="fil1" d="M10 1c0,2 -1,4 -1,5 0,0 -1,0 -1,-1 0,-2 1,-4 2,-4z"/>
    <path class="fil3" d="M9 10c0,0 1,0 1,0 0,1 0,2 0,2 -1,1 -2,1 -3,0 0,-1 0,-2 0,-2 1,-1 2,-1 2,0zm-1 0l0 0c1,0 0,0 0,0 0,0 0,0 0,0 0,0 0,0 0,0 0,0 0,0 0,0z"/>
    <path class="fil4" d="M8 6c1,1 1,2 0,3 0,0 -1,0 -2,-1 0,0 0,-2 0,-2 1,-1 2,0 2,0zm-1 1l0 0c0,0 0,-1 0,-1 0,0 0,0 0,0 0,0 0,1 0,1 0,0 0,0 0,0z"/>
    <path class="fil4" d="M7 12c0,1 0,1 0,1 0,1 -2,2 -2,0 0,-1 1,-2 2,-2 0,1 0,1 0,1z"/>
    <path class="fil2" d="M6 5c0,0 0,0 0,1 0,0 0,0 0,0 -1,1 -1,1 -2,1 0,0 0,-1 0,-1 1,0 1,-1 2,-1z"/>
    <path class="fil2" d="M6 4c0,0 0,1 0,1 -1,0 -1,1 -2,1 0,0 0,-1 0,-1 1,0 1,-1 2,-1z"/>
    <path class="fil2" d="M5 3c0,0 1,1 1,1 -1,0 -1,1 -2,1 0,0 0,-1 0,-1 1,0 1,-1 1,-1z"/>
    <path class="fil3" d="M6 8c0,1 1,2 0,2 -1,1 -1,2 -2,1 -1,-1 -1,-2 -1,-2 1,-1 2,-1 3,-1zm-2 1l0 0c1,0 1,0 1,0 -1,0 -1,0 -1,0 0,0 0,0 0,0 0,0 0,0 0,0z"/>
    <path class="fil2" d="M5 2c0,0 0,1 0,1 0,0 0,1 -1,1 0,0 0,-1 0,-1 0,0 1,0 1,-1z"/>
    <path class="fil2" d="M5 7c0,0 0,0 0,1 0,0 0,-1 0,-1 0,0 0,0 -1,0 1,0 1,0 1,0z"/>
    <path class="fil2" d="M4 1c0,0 1,1 1,1 0,0 -1,1 -1,1 0,-1 0,-1 0,-2z"/>
    <path class="fil1" d="M4 1c0,2 0,5 0,7 0,0 0,0 0,0 0,-1 -1,-2 -2,-2 0,-2 2,-4 2,-5z"/>
    <path class="fil3" d="M4 11c0,0 0,1 0,2 0,1 -1,1 -2,1 -1,-1 -1,-2 -1,-3 1,-1 2,-1 3,0zm-1 1l0 0c0,0 0,-1 -1,-1 0,0 0,0 0,1 0,0 0,0 0,0 0,0 1,0 1,0z"/>
    <path class="fil4" d="M3 8c0,0 0,1 0,2 -1,1 -2,0 -3,-1 0,-1 0,-2 1,-2 1,-1 2,0 2,1zm-1 0l0 0c0,0 0,-1 0,-1 0,0 -1,1 -1,1 0,0 0,0 1,0 0,0 0,0 0,0z"/>
    <path class="fil2" d="M11 8c-1,0 -1,0 -1,0 0,0 1,0 2,0 0,0 0,0 0,0 0,0 0,0 0,0 0,0 -1,0 -1,0z"/>
    <path class="fil2" d="M9 9c1,0 1,0 2,0 0,0 0,0 1,0 -1,0 -2,-1 -2,-1 0,0 -1,1 -1,1z"/>
    <path class="fil2" d="M9 9c0,0 1,1 1,1 0,0 0,0 0,0 0,0 1,0 1,-1 -1,0 -2,0 -2,0 0,0 0,0 0,0z"/>
   </g>
  </g>
 </g>
</svg>
