<svg id="Layer_1" data-name="Layer 1" xmlns="http://www.w3.org/2000/svg" viewBox="0 0 505.1 435.24"><title>Bull12</title><path d="M90.2,471.26a8.8,8.8,0,0,0-.3-3.34c-.27-1,.79-.63.91-1.21,1.24-12.47,2.1-24.17,3.33-34.57.25-2.06,2.68-5.64,4.25-8.49,1.39-2.54,2.61-5.46,3.94-7.28,1.59-2.16,4.32-4,6.37-6.06s4.15-5.07,6.06-6.37c3.08-2.09,7.78-3.32,11.83-5.16,11.66-5.3,26-8.2,40.33-10.61,20.82-3.51,34.19-15.64,51.54-20.31a6.48,6.48,0,0,0,1.52-2.43c-11.65,2.89-26.23,3.86-37.9.91-5.48-1.39-10.39-1.23-14.55-3.94-2.46-1.6-3.45-3.92-6.37-5.15-1.47-4.64-4.73-7.78-5.46-13.34-.48-3.63,1.72-8.27.3-11.52-.9-2.08-2.67-5.25-3.94-7.58-.74-1.35-2-2.38-2.12-3.34-.9-5,3-7.8,4.85-10.31-3.6-1.55-5.24-5.07-7.28-8.19.16-6.93,3.48-14.47-1.52-18.8-3.19-2.76-6.93-2.79-9.4-4.55-3.22-2.29-8.14-7.43-6.67-13.34.86-3.46,3.7-6.68,5.76-9.7s4.36-6.23,6.37-9.1c4.33-6.18,10.09-12.28,10.31-20.62.12-4.31-1.13-10.62-4.55-13-25-1.89-45.8,1-73.68-.3-7.3-.33-14.26-1.23-20.32-1.52-7.76-.36-20.58,1.83-17.28-8.19.68-2.07,4.7-6.12,6.67-8.79,7-9.55,13.87-19.84,21.22-28.2,6.71-7.62,15.15-14.44,23.65-20.62a173.1,173.1,0,0,1,80-31.53c5.14-12.2,9.13-24.79,13.64-37.29,4.25-11.76,9.7-24.68,19.71-30.93,14.48-9,38.11-11.67,60.34-10a357,357,0,0,1,80.38,15.14c18.21,5.71,33.79,12.93,44.87,24.56,8.15,8.55,11.23,19.47,12.13,33.66,1.44,22.86-.61,43-.61,65.49,0,2.92-.61,6.61,0,8.49.5,1.53,4,3.46,5.76,4.85,6.14,4.74,11.62,9.56,17.89,13.65,3.6,5.17,9.32,8.12,13.95,12.43,4.83,4.51,9.43,9.54,14.25,14.25s58.46,48,57.24,54.49c-18.14,14.52-49.63,6.77-55.56,5l-74.54-15.91c12.56,19.72-18.43,62.81-18.43,62.81L361.6,358s84.21,3.22,114.74,25.13c17.91,12.85,41,26.8,44.39,47.74,2,12.56,20.37,40.37,20.37,40.37Z" transform="translate(-36 -36.02)"/></svg>