<?xml version="1.0" encoding="UTF-8"?>
<!DOCTYPE svg PUBLIC "-//W3C//DTD SVG 1.1//EN" "http://www.w3.org/Graphics/SVG/1.1/DTD/svg11.dtd">
<!-- Creator: CorelDRAW X7 -->
<svg xmlns="http://www.w3.org/2000/svg" xml:space="preserve" width="8.5in" height="11in" version="1.1" style="shape-rendering:geometricPrecision; text-rendering:geometricPrecision; image-rendering:optimizeQuality; fill-rule:evenodd; clip-rule:evenodd"
viewBox="0 0 8500 11000"
 xmlns:xlink="http://www.w3.org/1999/xlink">
 <defs>
  <style type="text/css">
   <![CDATA[
    .fil2 {fill:#FEFEFE}
    .fil1 {fill:#E83338}
    .fil0 {fill:#282828}
   ]]>
  </style>
 </defs>
 <g id="Layer_x0020_1">
  <metadata id="CorelCorpID_0Corel-Layer"/>
  <g id="_953331472400">
   <path class="fil0" d="M2309 3833c12,-30 18,-62 18,-97 0,-53 -10,-95 -32,-127 -16,-23 -53,-62 -127,-62 -6,0 -13,0 -19,1 -27,2 -54,4 -81,6 -44,4 -78,41 -78,85l0 238c-1,25 11,49 30,65 15,13 35,20 55,20 5,0 10,0 14,-1 26,-4 51,-9 77,-13 20,-3 40,-12 76,-33 30,-16 52,-44 67,-82z"/>
   <path class="fil0" d="M3571 3942c-12,36 -27,67 -47,91 -17,23 -34,38 -52,46 -33,16 -62,25 -85,29 -58,9 -116,18 -174,29l4 -647 186 0c38,0 68,5 87,17 21,11 37,28 51,51 17,26 28,57 36,93 8,40 12,83 12,128 0,71 -6,126 -18,163zm-630 252c-109,26 -219,56 -327,89l3 -793 319 0 0 16c-76,4 -152,9 -227,13 -45,3 -80,40 -80,85l-1 149c0,25 10,48 28,64 18,17 42,25 67,22 62,-7 126,-13 189,-19l0 8c-71,10 -143,21 -214,33 -41,7 -71,42 -71,84l-1 185c0,26 11,51 32,67 20,17 47,23 72,17 70,-15 140,-30 211,-43l0 23zm-623 188c-23,-72 -46,-145 -68,-219 -17,-57 -31,-89 -50,-111 -1,0 -1,-1 -2,-1 -34,-37 -80,-53 -128,-41l-16 4c-38,10 -65,44 -65,83l0 417c-4,2 -8,3 -11,5l0 -1029 219 0c55,0 79,10 86,14 8,4 22,17 36,52 14,35 21,80 20,134 0,48 -6,90 -17,126 -11,33 -26,62 -44,85 -9,12 -24,24 -42,36 -28,17 -43,48 -40,80 3,32 23,60 53,72 9,3 14,6 16,7 2,4 7,13 16,30 14,28 18,40 20,46 20,66 41,130 61,194 -14,5 -29,11 -44,16zm1369 -914c-29,-47 -67,-84 -112,-110 -46,-26 -104,-39 -172,-39l-271 0c-21,0 -40,7 -55,19 -16,-12 -35,-19 -55,-19l-490 0c-47,0 -85,38 -85,85l-1 28c-21,-33 -47,-58 -77,-76 -44,-25 -100,-37 -172,-37l-305 0c-47,0 -85,38 -85,85l0 1247c0,29 15,56 39,72 14,9 30,14 46,14 13,0 25,-3 36,-8 59,-28 120,-55 179,-80 32,-13 52,-44 52,-79l1 -122c7,24 15,48 23,72 7,22 23,41 44,51 21,10 46,11 68,3 67,-26 135,-51 202,-74 10,-3 19,-8 27,-15 1,0 2,1 3,1 9,0 18,-2 27,-5 162,-53 327,-99 491,-135 18,-4 34,-15 46,-28 11,5 23,8 36,8 6,0 11,0 17,-2 89,-18 179,-34 268,-47 41,-6 84,-20 133,-43 42,-20 80,-52 114,-95 32,-41 57,-89 75,-144 17,-55 26,-125 26,-216 0,-57 -5,-112 -16,-163 -11,-55 -30,-105 -57,-148z"/>
   <path class="fil0" d="M3366 3498c-3,0 -6,1 -10,1l-46 1c-45,2 -82,40 -82,85l-2 439c0,25 10,48 29,64 15,14 35,22 56,22 4,0 7,0 11,-1 15,-2 30,-4 44,-5 56,-7 96,-21 125,-45 30,-23 52,-58 67,-102 12,-38 18,-90 18,-162 1,-103 -14,-171 -45,-217 -25,-36 -74,-80 -165,-80z"/>
   <path class="fil0" d="M6291 4519c-98,-43 -196,-83 -293,-119l-4 -910 12 0 2 762c0,38 24,71 60,82 75,22 149,46 223,71l0 114zm-844 -295l-4 -734 12 0 3 620c1,40 29,74 68,83 72,15 145,33 217,51l1 67c-99,-32 -198,-61 -297,-87zm-306 -189c-8,31 -20,56 -35,75 -16,20 -27,26 -33,27 -20,7 -50,8 -87,1 -24,-4 -52,-11 -84,-21 -23,-7 -43,-17 -57,-28 -15,-13 -30,-30 -44,-53 -15,-23 -24,-45 -29,-66 -10,-43 -15,-81 -15,-112l-2 -368 12 0 1 394c1,60 15,111 43,152 32,46 78,74 134,82 9,1 17,1 26,1 0,0 0,0 0,0 50,0 95,-21 126,-59 30,-38 45,-91 45,-156l-2 -414 11 0 3 426c0,43 -5,83 -13,119zm-643 -23c-7,16 -16,27 -27,34 -1,0 -8,4 -32,7 -12,1 -22,2 -31,3 18,-8 34,-18 47,-32 20,-21 43,-57 43,-115 0,-14 -1,-27 -4,-40 11,19 17,44 17,76 0,26 -4,49 -13,67zm-41 -499c17,20 25,46 25,79 0,20 -3,36 -9,50 1,-6 1,-13 1,-19 0,-54 -21,-89 -39,-109 -9,-9 -19,-17 -30,-24 31,3 44,14 52,23zm-322 539c-1,0 -1,0 -2,0l0 -562 42 0c-1,0 -2,1 -3,2 -16,16 -25,38 -25,61l0 139c0,29 14,55 36,70 -3,3 -7,6 -10,9 -17,16 -26,38 -26,61l0 149c0,30 16,56 39,72 -17,0 -34,-1 -51,-1zm2269 211c-74,-26 -150,-51 -225,-74l-2 -785c-1,-47 -39,-85 -86,-85l-183 0c-22,0 -44,9 -60,25 -16,16 -25,38 -25,60l2 684c-65,-16 -131,-33 -196,-47l-4 -637c0,-47 -38,-85 -85,-85l-183 0c-23,0 -44,9 -60,25 -16,-16 -37,-25 -61,-25l-182 0c-23,0 -45,9 -61,25 -16,16 -25,38 -25,61l3 500c0,24 -3,37 -5,43 -7,-1 -10,-3 -14,-9 -8,-12 -12,-31 -13,-56l-2 -479c0,-47 -38,-85 -85,-85l-183 0c-22,0 -44,9 -60,25 -15,15 -24,34 -25,55 -33,-37 -93,-80 -194,-80l-342 0c-47,0 -86,38 -86,85l0 735c0,23 9,45 25,61 17,16 39,25 62,24 104,-2 208,0 312,5 3,0 6,0 9,0 17,0 43,-2 86,-6 45,-5 81,-16 108,-33 32,-22 59,-50 79,-86 4,8 8,15 13,23 24,38 51,70 81,95 32,25 70,45 115,59 39,12 73,20 105,26 27,4 53,7 77,7 33,0 64,-5 92,-14 42,-13 80,-41 114,-83 13,-17 26,-36 36,-57l1 131c0,39 27,73 65,83 153,38 307,84 460,137 9,3 18,4 28,4 5,0 11,0 16,-2 10,12 22,21 37,27 152,55 306,119 457,189 12,5 24,8 36,8 16,0 32,-5 46,-14 25,-16 40,-43 40,-72l0 -307c0,-36 -23,-69 -58,-81z"/>
   <path class="fil1" d="M2075 3877c26,-5 51,-9 77,-13 8,-2 24,-9 48,-23 12,-7 22,-20 30,-39 8,-20 11,-42 11,-66 1,-35 -5,-62 -17,-80 -12,-18 -35,-26 -68,-23 -27,2 -54,4 -81,7 0,79 0,158 0,237zm-183 774c0,-416 0,-831 0,-1247 102,0 203,0 305,0 56,0 100,9 129,26 30,17 54,49 72,94 18,46 27,101 27,166 0,58 -8,108 -22,152 -14,44 -33,81 -58,112 -15,20 -37,38 -64,55 22,9 38,19 47,30 7,7 17,24 29,49 13,25 21,45 26,59 29,94 58,184 87,272 -69,24 -137,48 -206,75 -32,-99 -64,-201 -96,-307 -12,-41 -23,-67 -33,-78 -13,-15 -28,-20 -44,-16 -6,1 -11,3 -16,4 -1,158 -1,316 -1,474 -61,25 -121,52 -182,80z"/>
   <path class="fil1" d="M2532 3404c163,0 327,0 490,0 0,61 -1,122 -1,184 -102,5 -205,10 -307,17 0,49 0,99 -1,149 95,-10 190,-20 285,-28 0,59 -1,118 -1,177 -95,12 -190,27 -285,43 0,61 0,123 -1,185 105,-24 211,-45 316,-63 0,65 -1,129 -1,194 -167,38 -333,84 -499,138 2,-332 4,-664 5,-996z"/>
   <path class="fil1" d="M3313 3586c0,146 -1,292 -2,438 15,-2 30,-4 45,-5 38,-5 66,-14 82,-27 16,-13 29,-33 38,-62 10,-29 14,-74 15,-136 0,-82 -10,-138 -30,-168 -21,-29 -55,-44 -102,-42 -15,1 -30,1 -46,2zm-181 -182c90,0 181,0 271,0 54,0 97,10 130,28 33,19 60,46 81,81 22,34 37,74 47,120 9,46 14,95 14,146 -1,81 -8,144 -23,189 -14,46 -34,85 -60,118 -26,33 -54,57 -83,70 -41,19 -77,32 -110,37 -91,13 -181,29 -272,48 1,-279 3,-558 5,-837z"/>
   <path class="fil1" d="M4233 3981c31,1 62,1 93,2 32,1 54,-5 67,-18 13,-14 20,-32 20,-56 0,-22 -7,-40 -20,-54 -13,-13 -35,-21 -67,-21 -31,-1 -62,-1 -93,-2 0,50 0,99 0,149zm0 -289c26,0 53,1 79,1 29,1 49,-5 60,-17 11,-12 17,-30 16,-53 0,-22 -5,-39 -16,-51 -12,-12 -31,-18 -59,-19 -27,0 -54,0 -81,0 0,46 0,93 1,139zm-185 -288c114,0 228,0 342,0 57,0 101,18 132,54 30,36 46,80 46,134 0,44 -11,82 -33,113 -14,21 -35,37 -63,48 42,14 74,38 94,70 20,33 30,74 31,122 0,39 -7,74 -22,104 -14,30 -33,53 -58,69 -16,10 -39,17 -70,20 -41,4 -69,6 -82,5 -106,-5 -212,-6 -318,-4 1,-245 1,-490 1,-735z"/>
   <path class="fil1" d="M5054 3404c61,0 121,0 182,0 1,170 2,341 3,511 0,51 -5,98 -15,141 -11,43 -28,79 -51,108 -23,28 -48,46 -73,55 -36,11 -78,12 -128,4 -29,-5 -61,-13 -95,-24 -34,-10 -63,-25 -86,-44 -23,-18 -44,-43 -63,-74 -19,-30 -32,-61 -39,-92 -12,-49 -18,-93 -18,-130 -1,-152 -1,-303 -2,-455 61,0 122,0 183,0 0,160 1,320 2,480 0,43 9,77 27,103 18,26 43,42 75,46 32,4 56,-5 74,-27 18,-22 27,-56 27,-102 -1,-166 -2,-333 -3,-500z"/>
   <path class="fil1" d="M5357 3404c61,0 122,0 183,0 1,235 3,470 4,705 95,21 190,43 284,68 1,84 1,169 2,253 -156,-54 -312,-100 -468,-139 -1,-296 -3,-591 -5,-887z"/>
   <path class="fil1" d="M5908 3404c61,0 122,0 183,0 1,283 1,565 2,848 95,28 189,59 283,92 0,102 0,205 0,307 -154,-71 -309,-135 -464,-192 -1,-352 -2,-703 -4,-1055z"/>
   <path class="fil1" d="M4701 7142c-40,-4 -105,47 -105,47 9,101 -69,120 -69,120 -52,8 -85,36 -85,36 -99,66 -139,-23 -139,-23 -25,-64 27,-107 27,-107 325,-143 371,-73 371,-73zm-754 151c0,0 -63,-20 -122,-24 0,0 -49,4 -94,-84 0,0 -40,-67 -24,-110 0,0 -13,-18 -115,-66 0,0 330,29 430,194 0,0 76,144 -75,90zm542 -385c0,0 -141,36 -201,65 0,0 111,-96 181,-115 0,0 -29,-505 77,-783 0,0 -100,-52 -139,-95 -38,-43 -133,-72 -352,72 0,0 -61,134 5,797 0,0 82,95 96,156 0,0 -265,-208 -364,-250 0,0 -54,-81 -257,70 0,0 -68,52 -79,178 0,0 -5,36 28,71 0,0 185,198 219,243 0,0 63,91 189,97 0,0 326,30 398,59 0,0 75,43 154,-15 0,0 90,-80 151,-95 0,0 88,-35 92,-89 0,0 15,-80 46,-114 0,0 52,-65 7,-138 0,0 -71,-182 -251,-114z"/>
   <path class="fil1" d="M4970 4946c0,0 -105,89 -97,185 0,0 2,80 -74,114 0,0 -34,35 -26,-67 0,0 3,-149 -164,-135 0,0 -170,4 -156,105 0,0 -144,-124 -285,-131 0,0 -65,7 -109,-57 0,0 -151,-162 -158,-19 0,0 -1,100 -92,139 0,0 82,-249 60,-334 0,0 -14,-103 94,-6 0,0 441,302 871,142 0,0 277,-120 136,64zm131 365c0,0 -132,-177 -4,-301 0,0 164,-192 10,-455 0,0 -79,-201 -383,-101 0,0 -250,61 -469,29 0,0 116,61 191,73 0,0 -270,-13 -411,-101 -141,-88 -507,-236 -682,-193 0,0 475,274 164,693 0,0 -196,194 -452,122 0,0 105,138 214,181 0,0 177,-106 202,-138 0,0 54,-139 146,-43 0,0 165,112 -43,256 0,0 220,28 568,-60 0,0 -65,191 -349,342 0,0 161,195 217,309 0,0 118,-76 175,-90 0,0 48,-170 -42,-418 0,0 153,262 155,396 0,0 118,-205 134,-483 0,0 93,294 -6,510 0,0 191,-75 338,-254 0,0 -38,221 -238,340l76 73c0,0 362,-231 473,-371 0,0 121,-93 16,-316z"/>
   <path class="fil2" d="M4016 5381c0,0 -685,231 -1052,-255 0,0 -265,-421 171,-378 0,0 -196,8 -156,180 0,0 35,102 245,70 0,0 277,-26 322,-300 0,0 19,-253 -337,-380 0,0 -749,-25 -600,539 0,0 228,512 760,646 0,0 -670,-30 -898,-680 0,0 -159,346 407,722 0,0 420,306 1138,-164z"/>
   <path class="fil2" d="M3653 5692c-15,10 -62,36 -62,36 35,84 116,231 116,231 100,79 274,113 274,113 -32,-68 -77,-132 -77,-132 -129,10 -150,-24 -150,-24 28,-43 48,-113 48,-113 -38,-51 -149,-111 -149,-111z"/>
   <path class="fil1" d="M2152 5573c168,-22 381,-127 381,-127 -34,-31 -60,-105 -60,-105 -136,103 -531,207 -531,207 587,444 900,226 900,226l-91 -23c-364,28 -599,-178 -599,-178z"/>
   <path class="fil1" d="M3282 6084c0,0 167,81 338,544 0,0 143,-98 330,132 0,0 -21,-336 -126,-483 0,0 -182,-15 -273,-51 0,0 -103,-84 -186,-295 0,0 108,126 155,151 0,0 92,86 268,28 0,0 -79,-13 -171,-62 0,0 -101,-4 -99,-281 0,0 -369,148 -591,40 0,0 -117,57 33,160 0,0 377,287 543,684 0,0 -68,-315 -221,-567z"/>
   <path class="fil1" d="M5967 5633c0,0 -93,14 -144,12 0,0 101,88 153,95 0,0 -452,184 -788,-26l-57 36c0,0 359,334 1088,5 0,0 -187,-42 -252,-122z"/>
   <path class="fil2" d="M5730 5067c-397,-353 -236,-472 -526,-556 0,0 153,205 53,409 0,0 273,441 879,482 0,0 -501,129 -966,-300 0,0 -19,64 34,123 0,0 622,709 1428,-64 0,0 -506,258 -902,-94z"/>
   <path class="fil0" d="M3592 7009c102,48 115,66 115,66 -16,43 24,110 24,110 45,88 94,84 94,84 59,4 122,24 122,24 151,54 75,-90 75,-90 -100,-165 -430,-194 -430,-194z"/>
   <path class="fil0" d="M4330 7215c0,0 -52,43 -27,107 0,0 40,89 139,23 0,0 33,-28 85,-36 0,0 78,-19 69,-120 0,0 65,-51 105,-47 0,0 -46,-70 -371,73z"/>
   <path class="fil0" d="M4834 4882c-430,160 -871,-142 -871,-142 -108,-97 -94,6 -94,6 22,85 -60,334 -60,334 91,-39 92,-139 92,-139 7,-143 158,19 158,19 44,64 109,57 109,57 141,7 285,131 285,131 -14,-101 156,-105 156,-105 167,-14 164,135 164,135 -8,102 26,67 26,67 76,-34 74,-114 74,-114 -8,-96 97,-185 97,-185 141,-184 -136,-64 -136,-64z"/>
   <path class="fil0" d="M5204 5225c-53,-59 -34,-123 -34,-123 465,429 966,300 966,300 -606,-41 -879,-482 -879,-482 100,-204 -53,-409 -53,-409 290,84 129,203 526,556 396,352 902,94 902,94 -806,773 -1428,64 -1428,64zm1015 530c-729,329 -1088,-5 -1088,-5l57 -36c336,210 788,26 788,26 -52,-7 -153,-95 -153,-95 51,2 144,-12 144,-12 65,80 252,122 252,122zm-1134 -128c-111,140 -473,371 -473,371l-76 -73c200,-119 238,-340 238,-340 -147,179 -338,254 -338,254 99,-216 6,-510 6,-510 -16,278 -134,483 -134,483 -2,-134 -155,-396 -155,-396 90,248 42,418 42,418 -57,14 -175,90 -175,90 -56,-114 -217,-309 -217,-309 284,-151 349,-342 349,-342 -348,88 -568,60 -568,60 208,-144 43,-256 43,-256 -92,-96 -146,43 -146,43 -25,32 -202,138 -202,138 -109,-43 -214,-181 -214,-181 256,72 452,-122 452,-122 311,-419 -164,-693 -164,-693 175,-43 541,105 682,193 141,88 411,101 411,101 -75,-12 -191,-73 -191,-73 219,32 469,-29 469,-29 304,-100 383,101 383,101 154,263 -10,455 -10,455 -128,124 4,301 4,301 105,223 -16,316 -16,316zm-345 1395c45,73 -7,138 -7,138 -31,34 -46,114 -46,114 -4,54 -92,89 -92,89 -61,15 -151,95 -151,95 -79,58 -154,15 -154,15 -72,-29 -398,-59 -398,-59 -126,-6 -189,-97 -189,-97 -34,-45 -219,-243 -219,-243 -33,-35 -28,-71 -28,-71 11,-126 79,-178 79,-178 203,-151 257,-70 257,-70 99,42 364,250 364,250 -14,-61 -96,-156 -96,-156 -66,-663 -5,-797 -5,-797 219,-144 314,-115 352,-72 39,43 139,95 139,95 -106,278 -77,783 -77,783 -70,19 -181,115 -181,115 60,-29 201,-65 201,-65 180,-68 251,114 251,114zm-1780 -1055c-150,-103 -33,-160 -33,-160 222,108 591,-40 591,-40 -2,277 99,281 99,281 92,49 171,62 171,62 -176,58 -268,-28 -268,-28 -47,-25 -155,-151 -155,-151 83,211 186,295 186,295 91,36 273,51 273,51 105,147 126,483 126,483 -187,-230 -330,-132 -330,-132 -171,-463 -338,-544 -338,-544 153,252 221,567 221,567 -166,-397 -543,-684 -543,-684zm944 -27c0,0 45,64 77,132 0,0 -174,-34 -274,-113 0,0 -81,-147 -116,-231 0,0 47,-26 62,-36 0,0 111,60 149,111 0,0 -20,70 -48,113 0,0 21,34 150,24zm-1433 -1117c228,650 898,680 898,680 -532,-134 -760,-646 -760,-646 -149,-564 600,-539 600,-539 356,127 337,380 337,380 -45,274 -322,300 -322,300 -210,32 -245,-70 -245,-70 -40,-172 156,-180 156,-180 -436,-43 -171,378 -171,378 367,486 1052,255 1052,255 -718,470 -1138,164 -1138,164 -566,-376 -407,-722 -407,-722zm-529 725c0,0 395,-104 531,-207 0,0 26,74 60,105 0,0 -213,105 -381,127 0,0 235,206 599,178l91 23c0,0 -313,218 -900,-226zm3586 -893c-165,-302 -400,-252 -400,-252 -133,-104 -326,-74 -439,-43l-3 3 -161 33 -1 0c0,0 0,0 0,0l-412 37 -131 -81c0,-1 0,-1 -1,-1 -100,-41 -280,-132 -280,-132 -351,-235 -542,-34 -542,-34 -707,53 -791,655 -800,748 13,168 59,297 59,297 -96,92 -316,153 -316,153l-2 -2c-1,3 -2,4 -2,4 -175,79 -321,73 -321,73 73,161 198,271 222,291 328,172 759,221 759,221 22,46 87,72 87,72 259,116 410,396 437,449 6,-3 9,-5 9,-5 72,71 171,269 171,269l-70 224c-39,96 14,126 14,126l262 306c0,0 55,141 253,238 157,5 306,20 306,20 165,49 237,-64 237,-64 38,-164 169,-196 169,-196 100,-34 128,-109 128,-109l65 -154c57,-99 -57,-220 -57,-220 -36,-38 -60,-135 -60,-135 76,-438 314,-600 314,-600 229,-149 140,-261 140,-261l-39 -102c601,401 1247,-109 1247,-109 -121,0 -290,-114 -290,-114 601,-118 644,-535 644,-535 -838,327 -1196,-415 -1196,-415z"/>
  </g>
 </g>
</svg>
