<svg id="Layer_1" data-name="Layer 1" xmlns="http://www.w3.org/2000/svg" viewBox="0 0 498.03 496.29"><defs><style>.cls-1{fill:#010101;}</style></defs><title>Bull10</title><path class="cls-1" d="M304,210.2c-7,5-13.39,9.13-18.56,16-1.43,1.9-9.68,14.91-9.2,11.58s-1.59-10.8-1.91-15.8,3.33-14.59.79-25.38-11.42-31.73-16-44.1a225.45,225.45,0,0,0-12.85-28.24c-1.75-2.86-10.31-12.85-15.71-18.09s-9.77-9.22-12.7-13.26c-1.37-1.89-2-4.49-2.82-6.52-3.25-7.9-.89-2.89-6.85-10.43-1.63-2.07-3.78-4.12-5.78-6.32a10.36,10.36,0,0,0-.76-.73c-2.28-2.83-5.33-5.23-6.41-8.56-1.69-5.21-4.28-8.69-5-11a119.62,119.62,0,0,0-4.07-11.55c-1.79-3.52-3.12-1.19-2.56,1.13.63,2.62,2.14,7.22,1.9,8-.15.52-1.11.37-1.54-.21s-3.65-7.19-4.75-9.14c-2.38-4.24-3.1,1-2,2.86a67.28,67.28,0,0,1,3.67,6.92c.18.49-.61,1.35-1.67.08s-2.88-3.42-3.78-4.44-3.46-4.45-4.21-5.21a1.25,1.25,0,0,0-2.18.46c-.43,1,.58,2.2,1.13,3s2.86,4,4,5.58,3,3.08,3,3.63-.64.85-1.35.25-2.18-2.29-3.47-3.51a41.42,41.42,0,0,1-3.65-3.6c-.55-.79-1.9-1.59-2.83-.68s0,2.26.59,3.12,3.26,3.74,4.2,4.69,2.93,3,4,4.31a13.78,13.78,0,0,1,1.8,4.3c.17.58,1,1.14.52,1.86s-2,0-3.77-1a8,8,0,0,0-4.93-1.18c-1.39.21-2,.58-2.31,1.34s-.42,1.36.79,1.82,4.45,2.1,6.08,2.88,1.72,1.8,3.3,2.43,4.88.81,6.2,1.22,1.47.71,2.69.44a3.66,3.66,0,0,1,3.12,1.17c1.69,1.58,3.06,4.52,4.24,6.56,1.73,3,3.65,9.84,3.65,9.84-4.35-3.9-8.16-10.32-12.91-13.29-3-1.89-6.93-1.37-9.78.12-3.65,1.9-23.16,13-23.16,17s4.35,16.31,4.35,16.31c-3.61,4.17-8.3,7.11-10.26,12.46-2.71,7.38-1.27,16.9,8.68,11.39,4.1-2.27,12-11.49,12-11.49a5.68,5.68,0,0,1,.87,1c.4.55,1.82-.08,2.69.32a5.55,5.55,0,0,1,3.17,4.6c.24,2.85.24,3.72,2.06,3.72s1.82-1,1.82-1l1,1a9.52,9.52,0,0,0,1.35,2.61c.87,1.11,3.17,1.11,3.17,1.11.07,1.74,1.42,2.06,2.85,1.5a6.09,6.09,0,0,0,3.41,2.54,8.49,8.49,0,0,0,3.62.78l-.79,1.75s-1.27,2.54-1.43,11.9.79,7.77,4.28,17.93-1,7.93,8.73,21.57,8.49,18.64,8.49,18.64.64,8.89.64,21-.87,16.41-5.32,23.07S201.13,277,201.13,277s-2.38-2.06-5.87.79-6-2.22-9-2.38-24.91-7.45-34.9-3.17-13,7.77-18.72,14.59-8.73,7.3-21.1,6.66-12.85.32-18.72,3.17-7.93,1.43-19.67,0-22.37-10.15-28.08-12.22-9.36-1.11-8.88,2.22,6.19,8.72,15.87,15.39a51.29,51.29,0,0,0,19.51,8.09s-.32,0-3.33,2.38c-2.74,2.17-11.42,6.71-14.38,12.29-.28,0-.55-.06-.81-.06a6.26,6.26,0,0,0-3.42.86,6,6,0,0,0-2.34,2.62,8.28,8.28,0,0,0-.74,3.35,14.44,14.44,0,0,0,2.42,7.9,15.49,15.49,0,0,0,6.2,5.69,10.42,10.42,0,0,0,2,.7,25,25,0,0,0,3.6,2.19,4.72,4.72,0,0,0-.08,3.8c.87,2,2.06,3.65,8.71,5.63s9.67,7.39,13.64,11a70.16,70.16,0,0,0,15.39,11.42c7.3,4,9.52,6,16.34,11.74a128.85,128.85,0,0,0,25.06,15.71c7.3,3.33,7.61,4.44,10.15,8.57s12.06,9,12.06,9-10.63,9.83-14.91,17.61-1.11,9.2-2.22,21.58c-.64,7.16-1.82,10.12-3.46,13-5.91,7.24-13.53,13-18.5,15.29-6.84,3.18-6.69,4.18-9.61,8.66s-10.54,10.49-10.89,13.93,9.85,1.3,15.21.88,15.52-1.71,19.18-2.23,4.34-1.64,4.44-3.35.14-4.94.14-4.94,3.76,2.28,6.82,2.43,5.62-5,7-8.28-1.25-7.44,1.36-14.09c.71-1.8,1.45-3.74,2.15-5.61.59-1.31,1.21-2.58,1.84-3.78,5.08-9.68,4.92-12.06,8.57-16.66s3.65-3.33,6.35-5.71,7.93-1.9,14.91-7.3,17.45-10,17.45-10,1.27,9.2.48,16.34c-.67,6.07-4.42,11.48-2.06,23,1.64,8,4.7,6.47,4.47,14.11-.14,4.86-.31,7.9-1.12,10.32-1.12,3.37,2.61,12.65-1.06,14.89s-9.37,7.27-8.62,8.13.9,1.7,2.52,2.23,2.52,1.23,2.32,1.83,4.37,4.8,11.74,5.1,13.94-1.39,18.21-5.85,6.87-7.46,5.11-10.59-4.81-3.19-5.62-5.2.51-7.17,1.43-7.54,4.77,2.11,6.29,2.35-.53-3.24-2.46-6.68-3.42-7.4-5.24-14.41c-2.47-9.51,4-15.74,5.33-25.37.64-4.44,3.17-18.72,4.92-20.31s14.59-7.3,23.8-15.23c1.87-1.61,4.06-4,7.22-5.7,11.26-6.08,18.18-13.07,21.24-15.08,9.54-6.26,13.36-9.21,18.5-12.85,13.64-9.68,71.39-70.12,82-84.4a155.85,155.85,0,0,0,16-26.33,99.5,99.5,0,0,0,45.69-14.6c9.68-5.87,10.72-10.52,14.68-15a31.61,31.61,0,0,0,6.73-11.73c1-3.25,6.18-7,8.4-6.65s1.74,12.68,2.3,15.69-.71.55,11.33,10.14,14.34,5.23,14.34,5.23,2.22-.55,2.69-6,.87-5.78-1-10.22-8.79-9.59-10.46-11.73-1-3.49-1-3.49,8.64,6.73,13.47,8.56,12.91,2.46,13.63.08-1.11-9.43-3.8-13.86S523,219,521.56,218s-1.59-2.85-1.27-4.28-.79-1.59-4.92-2.06-4.44-2.7-8.41-8.09-3.33-7.46-8.09-12.69S485.53,169.8,485,169.17s-4.91-11.81-13.63-14.74-12.12,8.08-12.12,8.08-8.9-17.27-19.85-24.09a86.69,86.69,0,0,0-29.19-11.1c-5.87-1-7.3-1.43-10.15-7.93s2.57-14.58,8.61-28.23c5.88-13.31,15.2-32.85,26.15-29.56C505.8,83,486.47,72,486.47,72c4.62-2.86,9.89-5.21,12.55-8.59,1.77-2.25,9.06-7,9.06-7s-28.71-6-18.24-6.35l10.63-.32A56.52,56.52,0,0,0,471.6,46.4a77.59,77.59,0,0,0-7.93,1.71c-13.81,3.77-28.82,4.41-41,12.56-21,14-31.46,34.91-36.38,48.87s-3.65,28.24-15.07,41.56-20.78,15.87-28.4,20.62-10.63,9.68-18.72,18.4-14.44,16.18-20,20.15ZM52.32,339.61A14.93,14.93,0,0,1,51,337.9a11.79,11.79,0,0,1-2-6.42,5.65,5.65,0,0,1,.49-2.28,3.35,3.35,0,0,1,1.3-1.48,3.63,3.63,0,0,1,1.92-.48c-1.4,5.07-1.47,9-.44,12.37Z" transform="translate(-36.15 -36)"/></svg>