<svg id="Layer_1" data-name="Layer 1" xmlns="http://www.w3.org/2000/svg" viewBox="0 0 367.35 444.92"><defs><style>.cls-1{fill:#5c4a39;}.cls-2{fill:#b08e72;}</style></defs><title>17</title><path class="cls-1" d="M1173.41,923c-5.09-13.72-11.88-22.23-20.73-26a35.3,35.3,0,0,0-6-1.78c-2.61-.61-5.07-1.19-6.94-2.52-1.16-.83-.78-2.48-.64-3,.62-2.11,2.53-4,4.43-5.86,4.1-3.91,8.88-6.87,13.94-10,5.29-3.28,10.76-6.66,15.41-11.24a33.59,33.59,0,0,0,9.43-15.69c1.73-7.12,0-14.45-1.47-20.92l-.05-.23a26.21,26.21,0,0,0-4.11-9.82c-2.11-2.85-4.91-4.63-7.61-6.36l-.64-.41c-2-1.26-3.64-2.45-4.31-4.21-.41-1.08-.41-2.11-.14-2.27a4.41,4.41,0,0,0,1.93-5,4.31,4.31,0,0,0-4.13-3.24,4.44,4.44,0,0,0-1.37.22,19.83,19.83,0,0,0-12.77,13,19.49,19.49,0,0,0,4.21,18.38,25.15,25.15,0,0,0,7.51,5.4,23.48,23.48,0,0,1,5.44,3.6c2.7,2.68,1.53,7.32-.94,10.34-2.7,3.29-6.85,5.5-10.86,7.63-1.15.61-2.34,1.24-3.48,1.89a153,153,0,0,0-17.06,11.33l-.61.46c-4.65,3.54-9.93,7.56-13,13.2a18.48,18.48,0,0,0-2,9.73,5.5,5.5,0,0,1-.07,1.37,7.38,7.38,0,0,1-1.62.42l-.56.11c-9.12,1.87-16.13,7.57-22.92,13.09l-2.7,2.18-18.29,14.59c0-1.21,0-2.47,0-3.81a94.32,94.32,0,0,0-.92-10.87c-1-7.26-3.37-14.13-5.75-20.48-1.74-4.64-3.55-9.32-5.31-13.85l-2.32-6-.33-.86a42.72,42.72,0,0,0-4.37-9.14,25.71,25.71,0,0,0-7.7-7.16c-5.15-3.23-10.83-4.61-17.09-5.68a28.89,28.89,0,0,0,.53-5.47c1.07.11,2.12.26,3.14.45.84.16,1.7.38,2.6.62a25.71,25.71,0,0,0,5.35,1h.47a9.3,9.3,0,0,0,7.61-4c2-2.8,1.49-6.57-1.14-9.37a21.09,21.09,0,0,0-6.71-4.24l-.07,0a37.09,37.09,0,0,0-12-3.24q-.07-.83-.17-1.64a48,48,0,0,0-.82-4.77,7.3,7.3,0,0,0-3.17-4.94,9.3,9.3,0,0,0-4.66-1.09l-.76,0c-1.47-.12-3-.2-4.81-.23h-1.47a81.18,81.18,0,0,0-8.15.43,27.82,27.82,0,0,0-8.59,1.84q-.47.21-.91.45c-.51-2.19-1-4.38-1.62-6.52a4.47,4.47,0,0,0-2.25-2.79,40.78,40.78,0,0,0-4.33-9.86c-2.2-3.71-4.93-8.34-9.82-10.3a21.6,21.6,0,0,0-7.07-1.42h-.26a7.87,7.87,0,0,0-7,4.27,13.29,13.29,0,0,0-1.08,6.87c0,.61.07,1.23.12,1.85a8.38,8.38,0,0,0-3.42,1.14c-3.15,1.89-3.87,5.78-1.8,9.7,2,3.7,5.7,5.53,9.07,6.67,1.85,3,2.42,6.64,3,10.49l.13.83a53.17,53.17,0,0,0,2.79,10.69,11.36,11.36,0,0,0-1,1,8.92,8.92,0,0,0-.58,11.36,13,13,0,0,0,7.87,4.7l.05.08q1.62,2.53,3.26,5.06a29.34,29.34,0,0,0,6,6.66,54,54,0,0,1,9.52,10.9,34.5,34.5,0,0,0-.07,5.67,91.33,91.33,0,0,0,2.88,15.8c.32,1.31.64,2.61.94,3.91s.6,2.52.91,3.79c1.36,5.55,2.65,10.79,2.56,16.17a73.64,73.64,0,0,1-.79,8.48c-.08.57-.15,1.15-.22,1.73-.37,2.9-.53,7.22,2.32,11.11,2.31,3.16,5.48,5,9,6.34l-1.43,1.56a4.57,4.57,0,0,0-.67.95,11.68,11.68,0,0,0-1.61,1,54.19,54.19,0,0,0-6.39,5.69l-1.25,1.23c-8.56,6.5-17.41,13.23-25.9,20.62-4.35,3.8-8.43,7.65-12.1,11.45-1.89,2-3.79,4-5.65,6.18a7.7,7.7,0,0,0-1.89,3.36L945,997.13a3.94,3.94,0,0,0-1,.27,34.53,34.53,0,0,0-8.1-1,28.9,28.9,0,0,0-4.34.33c-8.61,1.31-16.74,6.49-24.21,15.4a27.29,27.29,0,0,0-6.75-1.44c-.63-.05-1.28-.08-1.92-.08a24.91,24.91,0,0,0-7.33,1.13l-1.06.35a10.73,10.73,0,0,1-2.75.68h-.07a8.18,8.18,0,0,1-2-.44c-.58-.17-1.18-.35-1.83-.48a20.65,20.65,0,0,0-4-.39,22.75,22.75,0,0,0-13.8,4.84q-.6.46-1.17,1h-.32a26.49,26.49,0,0,1-7.67-1.62l-1.58-.49a70.61,70.61,0,0,0-11.6-2.14l-1.63-.21c-3.68-.48-7.21-1.06-10-2.87-1.63-1.06-2.94-3.32-2.22-4.86a4.44,4.44,0,0,0-.81-5.13,4.55,4.55,0,0,0-3.2-1.3,4.13,4.13,0,0,0-3.28,1.54c-4.56,5.78-6.73,11.18-6.64,16.52.1,5.73,3.36,11,8.94,14.45,5.41,3.34,11.23,3.79,16.21,3.79,1.68,0,3.38-.06,5-.11s3.25-.11,4.85-.11a35.82,35.82,0,0,1,7.31.62,21.34,21.34,0,0,0,.9,4.23l-2.46,3.07-1.37,1.69c-1,1.29-2.13,2.61-3.15,4a4.12,4.12,0,0,0-.6.85c-.43.61-.78,1.15-1.1,1.66-3.49,5.65-3.77,13.75-.73,20.65a15.89,15.89,0,0,0,6.63,7.53,19.16,19.16,0,0,0,8.15,2.2,4.41,4.41,0,0,0,1.75.84A38.57,38.57,0,0,1,881,1089.1c4,3.15,7.15,7.2,10.45,11.48l.74,1c4.24,5.49,8.14,9.78,13.42,12.83a60.21,60.21,0,0,0,12.13,4.94,108,108,0,0,0-4.4,16.69c-1.48,7.6-.35,15.16.8,20.89.43,2.15.92,4.3,1.4,6.38.26,1.15.53,2.31.78,3.47q.26,1.19.5,2.38a5.18,5.18,0,0,0,.57,1.49h0q.58,2.61,1.19,5.21c.46,2,1,3.92,1.44,5.83a117.44,117.44,0,0,1,3,14,69.12,69.12,0,0,1,.35,8.89c0,1.38,0,2.8,0,4.22a23.62,23.62,0,0,0,1.06,7.18,18.21,18.21,0,0,0,3.42,5.85,4.13,4.13,0,0,0,3.2,1.45,5,5,0,0,0,2.07-.46,35.91,35.91,0,0,0,14.05-11.58,28.89,28.89,0,0,0,4.33-8.73,25.47,25.47,0,0,0,.47-10.92,52.51,52.51,0,0,0-1.72-7.14c-.3-1-.58-2-.84-3-.87-3.36-1.58-6.66-2.09-9.8a57,57,0,0,1-.2-19,55.52,55.52,0,0,1,5.86-16.49c5,3.16,10.22,6.25,16.13,8a20.8,20.8,0,0,0-.39,7.23c.19,2.05.47,4.1.75,6.07.18,1.28.36,2.6.51,3.88.44,3.73.72,7,.85,10.09a57.33,57.33,0,0,1-2.14,19.32c-.52,1.71-1.12,3.45-1.7,5.14-.52,1.51-1.06,3.07-1.55,4.64a28,28,0,0,0-1.59,9.21,11.57,11.57,0,0,0,3.89,8.76,10.26,10.26,0,0,0,6.67,2.33,14.12,14.12,0,0,0,4-.62,30.28,30.28,0,0,0,8.23-4.38l.73-.49,1.2-.79c2.35-1.53,5-3.27,6.84-6,2.11-3.14,2.34-7,2.31-9.93,0-1.9-.13-3.8-.24-5.64-.09-1.44-.17-2.92-.21-4.36-.22-7.82.37-14,1.86-19.38a32.81,32.81,0,0,1,7.52-13.91c3.13-3.3,7.21-5.48,11.53-7.78,1.06-.56,2.15-1.15,3.21-1.74a41.35,41.35,0,0,0,10.33-7.71,22.56,22.56,0,0,0,5.28-9.28l.32-.24a39.08,39.08,0,0,1,12.79-6.89h.29c2.93,0,6.09-1.16,9.39-3.44a55.76,55.76,0,0,0,7.5-6.5,68.71,68.71,0,0,0,12-15.66,16.41,16.41,0,0,0,1.49-3.77c10.16-11.44,18.42-21.31,25.69-32.22q1.34-2,2.67-4c3.19-4.85,6.47-9.83,10.05-14.48a14.8,14.8,0,0,0,1.59,3.24,6.6,6.6,0,0,0,5.44,3,6.53,6.53,0,0,0,2.62-.55,15.65,15.65,0,0,0,5.08-4.16l.12-.13a31.21,31.21,0,0,0,3.52-4.71c-.41,5.68,1.21,12.69,7.15,16.17a8.59,8.59,0,0,0,4.4,1.18h0a9.85,9.85,0,0,0,1.48-.12c2.35-.36,3.88-2,5-3.22l.23-.25c2-2.17,4.37-4.72,6.47-7.46a37.92,37.92,0,0,0,7.87-18.77,32.91,32.91,0,0,0,.12-6.24l.09,0c5.46-2.87,9-8.16,10.53-15.73a125.58,125.58,0,0,0,2-20.22,160.12,160.12,0,0,0-.64-20.64A156.7,156.7,0,0,0,1173.41,923Zm-31,100q0-.39,0-.78l.36-.14Z" transform="translate(-815.77 -778.34)"/><path class="cls-2" d="M980.26,794.11q-1.3-2.29-2.82-4.44c-.93-1.32-1.89-2.9-3.33-3.7a15,15,0,0,0-4.82-1.42c-1.25-.21-2.83-.34-3.29,1.15a12.35,12.35,0,0,0-.22,4.48,49.75,49.75,0,0,0,.63,5.21,1.66,1.66,0,0,1-1.14,2,7.85,7.85,0,0,1-3.08.11,5.45,5.45,0,0,0-2.12-.07c-.74.21-.79.38-.51,1.12a4.71,4.71,0,0,0,.86,1.48c2,2.18,4.91,3.06,7.65,3.81a1.56,1.56,0,0,1,.85.55,126.79,126.79,0,0,1,14.73-2A32.39,32.39,0,0,0,980.26,794.11Z" transform="translate(-815.77 -778.34)"/><path class="cls-2" d="M1175.79,831.1q-.22-1-.44-2.06a27.36,27.36,0,0,0-2.72-8.28c-3-5-9.22-6.27-12.61-10.84a11.18,11.18,0,0,1-2.2-7,13.27,13.27,0,0,0,.31,20.67,41,41,0,0,0,4.83,2.93c2.84,1.55,6,3.33,7.74,6.13A14.6,14.6,0,0,1,1175.79,831.1Z" transform="translate(-815.77 -778.34)"/><path class="cls-2" d="M1060.14,933.14a69.85,69.85,0,0,1-9.24,3.48,1.45,1.45,0,0,1-1.58-.43c-.76.57-1.51,1.16-2.21,1.8-4.7,4.3-8.64,9.34-13.52,13.47-1.82,1.54-3.7,3-5.59,4.47a1.54,1.54,0,0,1,.58,1.72c-1.07,2.62-1.79,5.42-2.64,8.11-2.19,7-4.35,14-6.55,20.93-.61,1.92-1.17,3.88-1.89,5.77-1,2.63-2.31,5.3-2.3,8.17,0,3.41,1.3,6.8,2.28,10a92.7,92.7,0,0,0,7.87,18.91c3.31,5.83,7,11.43,10.1,17.39a137.26,137.26,0,0,1,12.68,36.19,15.22,15.22,0,0,0,5.28-.72c2.12-.6,4.23-1.28,6.33-2q4.53-1.51,9-3.21a1.65,1.65,0,0,1,.61-2.19,1.67,1.67,0,0,1,2.23.59c-.11-.15,0,0,.29-.1a1.17,1.17,0,0,0,.58-.38,3.23,3.23,0,0,0,.17-2.25,169.36,169.36,0,0,0-5-19q-2.92-9.45-6.6-18.65t-8.09-18q-2.21-4.43-4.58-8.77c-.82-1.5-1.67-3-2.5-4.47a13.5,13.5,0,0,1-1.75-4.16,6.63,6.63,0,0,1,.71-4.7,43.55,43.55,0,0,1,2.88-3.82l6.61-8.47c4.25-5.44,8.79-10.77,12.65-16.5,3.47-5.16,6.66-11.56,5.64-18a25.23,25.23,0,0,0-3.69-9q-2.43-4.06-4.88-8.11C1062.77,932,1061.37,932.58,1060.14,933.14Z" transform="translate(-815.77 -778.34)"/><path class="cls-2" d="M1020.7,824.77a39.79,39.79,0,0,0-.27-6.84,34.49,34.49,0,0,0-.75-4c-.12-.46-.09-.79-.55-.87-.62-.1-1.26-.14-1.88-.19a72.24,72.24,0,0,0-16.7.43c-2.34.36-4.82.89-6.44,2.76a12.76,12.76,0,0,0-2.53,5.93,30.77,30.77,0,0,0-.55,4.09c0,.22,0,.44,0,.67a1.76,1.76,0,0,1-.06,2c0,.39,0,.78-.09,1.17,9.75-1.33,20.42.19,29.22-4.88A1.68,1.68,0,0,1,1020.7,824.77Z" transform="translate(-815.77 -778.34)"/><path class="cls-2" d="M929.44,1209.15a13.92,13.92,0,0,0,2.16,7.65A29,29,0,0,0,943,1206.53a19.49,19.49,0,0,0,3.16-8.34,25.5,25.5,0,0,0-1-9.36c-6.09,1.72-11.13,5.77-15.86,9.86C929.56,1202.18,929.3,1205.67,929.44,1209.15Z" transform="translate(-815.77 -778.34)"/><path class="cls-2" d="M925,1118.74l-.5-.17a75.14,75.14,0,0,0-3.36,10.16,73.54,73.54,0,0,0-2.27,11.1c-.64,6.61.53,13.09,2,19.52.38,1.7.78,3.41,1.16,5.11.18.8.35,1.6.52,2.4a14.84,14.84,0,0,0,.56,1.53c1,3.25,1.52,6.67,2.33,10a161.21,161.21,0,0,1,3.51,16.4c4.6-3.86,9.55-7.45,15.37-9.07a108.53,108.53,0,0,1-3.48-17.22,58.62,58.62,0,0,1,1-19.83,65.17,65.17,0,0,1,7.3-17.89,1.82,1.82,0,0,1,.19-.26l-.16-.1A125.27,125.27,0,0,0,925,1118.74Z" transform="translate(-815.77 -778.34)"/><path class="cls-2" d="M874.06,1056.94c-4.79-4.53-11.58-5.5-17.83-4.13a19.33,19.33,0,0,0-1.43,2.45,15.62,15.62,0,0,0-.94,9.34c.45,2.59,1.25,5.38,3.1,7.35a11.05,11.05,0,0,0,7.47,3.19,64.8,64.8,0,0,0,14.73-.86C879.19,1068.19,878.77,1061.4,874.06,1056.94Z" transform="translate(-815.77 -778.34)"/><path class="cls-2" d="M852.33,1020.65c-4.73-1.28-9.63-1.5-14.44-2.35-4.09-.72-8.71-2-11.55-5.24a11.7,11.7,0,0,1-2.42-4.32,15,15,0,0,0-2,9c.58,4.35,4.06,7.58,7.9,9.28,4.82,2.13,10.33,2,15.48,1.81s10.63-.39,15.77,1a19.51,19.51,0,0,1,2.33-6.51C859.61,1023.1,856,1021.64,852.33,1020.65Z" transform="translate(-815.77 -778.34)"/><path class="cls-2" d="M982,1192.84c-3,.69-6.21,1.59-8.46,3.8a1.69,1.69,0,0,1-.54.36c-.33,1-.66,1.9-1,2.86-.92,2.75-2,5.65-2.11,8.58-.08,2.15.25,4.77,2.4,5.87,2.47,1.26,5.49-.14,7.67-1.4a84,84,0,0,0,8.19-5.43,8.77,8.77,0,0,0,3.51-7.12c.11-2.75-.15-5.52-.3-8.27A33.57,33.57,0,0,0,982,1192.84Z" transform="translate(-815.77 -778.34)"/><path class="cls-2" d="M1046.67,1103.37c.67-3.33,1.5-6.61,2.31-9.91.56-2.3,1.12-4.86,0-7a13.66,13.66,0,0,1-2.68-.23,1.59,1.59,0,0,1-1.14-1.14,131.87,131.87,0,0,0-16.84-44.09c-3.47-5.8-7.16-11.5-9.82-17.73-1.36-3.18-2.54-6.42-3.58-9.72a67,67,0,0,1-2.75-10,18.77,18.77,0,0,1,1.35-9.92c.41-1,.85-2.07,1.2-3.13l.66-2c-11.08,1.3-21.38,6-32.16,8.64-6,1.46-12.14,2.23-18.24,3.14l-14.17,2.1a27.32,27.32,0,0,0,10.34,1.59c2.1-.17,2.08,3.1,0,3.27-9.58.78-18-5.88-27.59-4.71-9.26,1.13-16.79,7.41-22.42,14.49a21.84,21.84,0,0,1,3.82,3.08,28.09,28.09,0,0,1,14.16-4c5.74,0,11.14,2.07,16.81,2.65,10.11,1,21.39-1.38,27.63-10.1a1.68,1.68,0,0,1,1.84-.75,1.62,1.62,0,0,1,1.2,1.57c-.77,6.13-1.57,12.78-5.47,17.83a16.54,16.54,0,0,1-6.33,5.24,18,18,0,0,1-9.58,1.06c-3.34-.42-6.62-1.26-10-1.56a40.63,40.63,0,0,0-10.12.28,70.33,70.33,0,0,0-9.77,2.67c-2.81.88-6.09,1.54-8.94.4a7.87,7.87,0,0,1-5.1-5.86,12.68,12.68,0,0,1,1-7.43l-.26-.25a19.71,19.71,0,0,0-14.61-5.15c-3,.21-5.65,1.57-8.59,2s-5.77-1.13-8.77-1.18c-5.19-.1-10.6,2.3-13.47,6.75a16.23,16.23,0,0,0-2.09,12.84l.82-1a1.64,1.64,0,0,1,2.31,0,1.67,1.67,0,0,1,0,2.31l-7.19,9c-.46.58-.94,1.15-1.41,1.73,6.25-.54,12.69,1,17.28,5.55,5.16,5.08,6,12.19,6.06,19.09l1.47-.28a99,99,0,0,0,19.27-5.9,1.67,1.67,0,0,1,2.23.59,1.64,1.64,0,0,1-.59,2.23,101.14,101.14,0,0,1-18.87,6A106.83,106.83,0,0,1,874,1078.2a43.53,43.53,0,0,1,14.46,9.46c5.51,5.48,9.32,12.45,15.05,17.72,4.66,4.29,10.44,6.35,16.38,8.24a142.43,142.43,0,0,1,18.56,7.22,164.89,164.89,0,0,1,17.07,9.77c5.24,3.33,10.6,6.59,16.69,8.08a.92.92,0,0,1,.28,0,6.85,6.85,0,0,1,2.27,1.35c1.39-1.31,3-2.39,4.46-3.63,8.45-7.27,15.4-17.4,15.14-29,0-2.11,3.22-2.1,3.27,0a35.18,35.18,0,0,1-5.85,19.59,51.15,51.15,0,0,1-6.47,8.14c-1.21,1.23-2.46,2.42-3.78,3.54s-2.81,2.15-4.14,3.31c-2.33,2-2.9,4.62-2.73,7.63.18,3.23.77,6.44,1.16,9.65a104.91,104.91,0,0,1,1,20.56,55.81,55.81,0,0,1-1.6,10.12c-.16.62-.34,1.24-.53,1.85a26.4,26.4,0,0,1,6.46-2.19,38.56,38.56,0,0,1,10.13-.87c-.3-12,1-25,8.58-34.78,3.84-5,8.81-8.26,14.29-11.2,5.07-2.72,10.49-5.42,14.17-10,4.09-5.09,3.77-11.36,3.67-17.53a37.64,37.64,0,0,1,.79-9.66,27.22,27.22,0,0,1,3.8-8.62c1.17-1.74,4-.11,2.82,1.65a24.3,24.3,0,0,0-4.11,12.72c-.14,3.73.18,7.47,0,11.19a46.26,46.26,0,0,1,10.5-5.77,6.09,6.09,0,0,1-.68-3.51A90.79,90.79,0,0,1,1046.67,1103.37ZM902.16,1039.8a3.53,3.53,0,0,1-1.2-4.47,3.42,3.42,0,0,1,3.23-2.11,3.38,3.38,0,0,1,.53-.16,3.21,3.21,0,0,1,3.81,2.57A4.17,4.17,0,0,1,902.16,1039.8Zm50.9,2.87c-.68.93-1.38,1.85-2.12,2.73-3.18,3.79-7.07,6.52-12.12,6.89a29.14,29.14,0,0,1-15.42-2.79c-1.87-1-.22-3.78,1.65-2.82a22,22,0,0,0,7.93,2.27c2.78.26,5.86.44,8.55-.44a14,14,0,0,0,5.76-3.9,33.21,33.21,0,0,0,2.34-2.77c.23-.31.49-.62.75-.95-1.11-.18-2.25-.28-3.31-.44-1.81-.27-3.62-.51-5.43-.72s-3.64-.4-5.47-.55c-1.38-.12-3.06-.51-4.26.38a1.64,1.64,0,0,1-2.23-.59,1.67,1.67,0,0,1,.59-2.23c2.12-1.57,5.17-.9,7.59-.67q4.43.42,8.83,1c1.53.22,3.07.45,4.59.71,1.23.21,2.81.27,3.21,1.72C954.82,1040.71,953.69,1041.82,953.06,1042.67Z" transform="translate(-815.77 -778.34)"/><path class="cls-2" d="M1071.63,1079.63q-5.85,2.3-11.82,4.25a63.71,63.71,0,0,1-7.41,2.18,13.27,13.27,0,0,1,0,6.93c-1.42,6.56-3.31,13-4.06,19.72-.09.84-.41,2.53.75,2.77l.33.05.14,0a1.51,1.51,0,0,1,1.15.09,8.45,8.45,0,0,0,2.4-.55c2.84-1.09,5.23-3.2,7.44-5.23a71.52,71.52,0,0,0,12.18-14.46c1.64-2.59,3.1-5.32,2.36-8.48A22.4,22.4,0,0,0,1071.63,1079.63Z" transform="translate(-815.77 -778.34)"/><path class="cls-2" d="M1122.82,971.28c-10.45-19.14-29.72-37.6-52.88-36.53l1,1.61a47.16,47.16,0,0,1,3.71,7c5.27,13.42-5.28,25.5-13,35.34q-6.61,8.47-13.23,16.95a4,4,0,0,0-1,4,22.41,22.41,0,0,0,2,4q2.43,4.31,4.71,8.71a249.62,249.62,0,0,1,15.31,36.5c2.05,6.27,3.86,12.62,5.38,19,.67,2.81,2,6.34.32,9a3.9,3.9,0,0,1-.79.92,24.24,24.24,0,0,1,3.81,7.76c0,.15.06.3.09.45,5.66-6.37,11.28-12.78,16.39-19.6,8-10.69,14.39-22.56,23.09-32.73q1-1.2,2.11-2.37a1.52,1.52,0,0,1,1.13-1.27l.09,0a62.58,62.58,0,0,1,12.28-10C1135,1003.27,1130.88,986,1122.82,971.28Z" transform="translate(-815.77 -778.34)"/><path class="cls-2" d="M920.77,1032.67c3.28-.28,6.34-1.88,9.51-2.69a46.88,46.88,0,0,1,20.21-.46c3.22.59,6.56,1.32,9.85.9a11.67,11.67,0,0,0,7.19-3.86c3-3.37,4.33-7.69,5.1-12.09-6.47,5.83-15.51,8.22-24.25,7.71a56.5,56.5,0,0,1-8.94-1.26,50,50,0,0,0-8.84-1.56,25.38,25.38,0,0,0-14.92,4.13,1.68,1.68,0,0,1-.51.23,8.2,8.2,0,0,0-.48,5.79C915.59,1032.06,918.28,1032.88,920.77,1032.67Z" transform="translate(-815.77 -778.34)"/><path class="cls-2" d="M1024.41,954.63c2.53-1.93,5-3.88,7.45-6,4.82-4.19,8.7-9.31,13.52-13.49,2.2-1.91,5-3.35,6.9-5.55,2.08-2.36,2.16-5.65,2.25-8.63a115.06,115.06,0,0,0-1.63-21.23c-1.11-7.12-2.41-14.2-3.64-21.3-.54-3.11-1.06-6.35-2.49-9.2a20.86,20.86,0,0,0-5.38-6.76,1.32,1.32,0,0,1-.51-1.41,12.91,12.91,0,0,0-12.72-.05c-8.37,4.77-17.74,21.41-6.09,27.67a11,11,0,0,1,3.79,3,27.27,27.27,0,0,1,2.36,3.92,63.21,63.21,0,0,1,3.73,8.81,145,145,0,0,1,4.42,17.57,1.57,1.57,0,0,1,.53,1.61c-.57,2.56-2.33,4.51-4,6.39l-5.8,6.34L1016.41,948a7.34,7.34,0,0,1,2.08.89C1020.9,950.37,1022.43,952.7,1024.41,954.63Z" transform="translate(-815.77 -778.34)"/><path class="cls-2" d="M964.55,997.06c6.09-.9,12.23-1.66,18.21-3.17,11.28-2.84,22.06-7.67,33.74-8.78,1.38-4.35,2.71-8.71,4.07-13.06q1.56-5,3.14-10c.39-1.22.75-2.48,1.16-3.7-2.06,1.57-4.11,3.14-6.1,4.79a83.74,83.74,0,0,0-6.81,6.3c-1.93,2-4.1,4-6.95,4.48a7.74,7.74,0,0,1-7-2.87,7.4,7.4,0,0,1-1.64-6c-5,3.88-10,7.82-14.84,11.94-3.77,3.22-7.46,6.53-11,10-1.77,1.73-3.5,3.5-5.19,5.31q-1.2,1.29-2.37,2.6c-.37.42-1,.94-1.39,1.49a1.83,1.83,0,0,1,.56,1Z" transform="translate(-815.77 -778.34)"/><path class="cls-2" d="M1001.28,859.61a7.45,7.45,0,0,1-.59-.48c-1.84-1.69-2.51-4-3.53-6.19a6,6,0,0,0-2-2.73c-1-.63-2.35-1.25-2.85-2.41a5.65,5.65,0,0,1-.3-3.55,9.34,9.34,0,0,0,.38-1.79,37.34,37.34,0,0,1-10.86,3c.93,1.46,1.87,2.92,2.83,4.37a27.09,27.09,0,0,0,5.53,5.88,52.5,52.5,0,0,1,8.77,10,18.33,18.33,0,0,1,1.36-2.95C1000.57,861.82,1001.42,860.73,1001.28,859.61Z" transform="translate(-815.77 -778.34)"/><path class="cls-2" d="M1007.53,833.89a59.64,59.64,0,0,1,19.71-1.93,46,46,0,0,1,5.12.73c1.59.33,3.14.84,4.73,1.17,1.34.28,3,.48,4.1-.62.84-.88.59-1.74-.3-2.5a23.78,23.78,0,0,0-8.17-4.11,32.27,32.27,0,0,0-8.77-1.49c0,.48-.05,1-.09,1.43a1.76,1.76,0,0,1-2.48,1.42c-9.71,5.38-21.05,3.4-31.58,5.32a1.84,1.84,0,0,1-.39,0,4.41,4.41,0,0,1-2.94,1.43c-2.1.18-2.08-3.08,0-3.27.66-.06,1-.77,1.09-1.49q-4.17,1.31-8.3,2.75c-1,.36-2.11.69-3.14,1.13a1.84,1.84,0,0,1-.77.36c-.27.13-.53.28-.78.43-1,.65-2.32,1.76-2.3,3.13,0,2.5,2.85,3.79,5.19,4.25a1.64,1.64,0,0,1,2,.21,24.1,24.1,0,0,0,9.08-1.81C994.81,838.11,1001,835.51,1007.53,833.89Z" transform="translate(-815.77 -778.34)"/><path class="cls-2" d="M979.19,829.35q4.25-1.47,8.56-2.79c0-.73.09-1.45.18-2.18a30.16,30.16,0,0,1,1.17-5.77,1.54,1.54,0,0,1-.32-.71q-1.19-6.22-2.79-12.34a121.21,121.21,0,0,0-16.17,2,38.78,38.78,0,0,1,2.78,10.6A48.54,48.54,0,0,0,976,830.45C977,830.05,978.14,829.71,979.19,829.35Z" transform="translate(-815.77 -778.34)"/><path class="cls-2" d="M995.12,845.49c0,1,.63,1.24,1.45,1.75a8,8,0,0,1,2.45,2.31c1.21,1.78,1.67,3.92,2.77,5.75a5.71,5.71,0,0,0,5.56,2.75c4.85-.39,9-5,11.16-9a22.67,22.67,0,0,0,2.75-13.84c0-.05,0-.1,0-.15-1.68.06-3.36.21-5,.43a88.2,88.2,0,0,0-19.35,5.18l-1.38.53a3.47,3.47,0,0,1,.14,1.34C995.52,843.54,995.16,844.52,995.12,845.49Z" transform="translate(-815.77 -778.34)"/><path class="cls-2" d="M1003.68,970.72c2.72.07,4.7-2.3,6.43-4.09a77.07,77.07,0,0,1,6.93-6.29c1.56-1.27,3.16-2.49,4.76-3.71-1.14-1.19-2.13-2.52-3.32-3.65s-2.94-2.41-4.68-1.88c-1.9.58-3.38,2.24-4.8,3.55q-2.44,2.26-4.81,4.59c-1.83,1.81-4.83,4.23-4.73,7.1A4.73,4.73,0,0,0,1003.68,970.72Z" transform="translate(-815.77 -778.34)"/><path class="cls-2" d="M1018.86,940.47l5.3-5.79,5.8-6.34a16.72,16.72,0,0,0,3.45-4.53c-1.63-8-3.25-16.27-6.67-23.77-.69-1.5-1.42-3-2.25-4.42a8.53,8.53,0,0,0-2.79-3.36,26.27,26.27,0,0,1-4-2.46,11.47,11.47,0,0,1-2.49-3c-3-5.44-1.95-11.79.87-17.08,2.67-5,6.57-9.85,11.88-12.19a16.19,16.19,0,0,1,16.55,2.22,1.49,1.49,0,0,1,.4,1.61,22.06,22.06,0,0,1,4.93,6.92,44.6,44.6,0,0,1,2.74,10.63c1.4,8.07,2.93,16.13,4,24.25.94,6.9,1.67,14.08.94,21a13.05,13.05,0,0,1-3,7.77c1.2-.45,2.39-.94,3.56-1.47s2.61-1.23,3.88-1.92c1-.56,2.25-1,2.45-2.31a31.12,31.12,0,0,0,.19-4.32c0-1.57,0-3.15,0-4.72a82,82,0,0,0-.76-9.25,97.3,97.3,0,0,0-5.6-19.89c-2.49-6.63-5.08-13.22-7.62-19.83-1.14-3-2.21-6-4.07-8.65a19.75,19.75,0,0,0-6.29-5.55c-5.5-3.16-11.83-4.18-18-5.14-.24.52-.5,1-.77,1.53-2.57,4.67-7.18,9.83-12.73,10.7a11.59,11.59,0,0,1-4.33-.11,8.67,8.67,0,0,1-.87,2.12,21.94,21.94,0,0,0-2.1,4.47c-1.71,5.86-.51,12.09.81,17.9,1.55,6.82,3.28,13.61,4.72,20.46a43.51,43.51,0,0,1,1,10.4c-.12,3.54-.68,7-1.08,10.51a10.69,10.69,0,0,0,.28,5.1,8.22,8.22,0,0,0,2.24,3.11c2.34,2.09,5.38,3.06,8.31,4A1.57,1.57,0,0,1,1018.86,940.47Z" transform="translate(-815.77 -778.34)"/><path class="cls-2" d="M1123.21,1032.6a36,36,0,0,0,.83,3.78,20.16,20.16,0,0,0,1.64,4.66c.32.55.5.89,1.09.49a11.38,11.38,0,0,0,1.53-1.3,24.61,24.61,0,0,0,2.72-3,26.8,26.8,0,0,0,5.32-15.1,51.31,51.31,0,0,0-8.65,6.18C1126.13,1029.65,1124.64,1031.1,1123.21,1032.6Z" transform="translate(-815.77 -778.34)"/><path class="cls-2" d="M1164.24,1018.88a36.93,36.93,0,0,1-10.83,1,22.33,22.33,0,0,1-3-.32c-1.32,3.12-2.66,6.23-3.95,9.36a33.48,33.48,0,0,0-2.72,9,13.91,13.91,0,0,0,1.06,7.67c.78,1.54,3.26,5.2,5.38,3.58a27.28,27.28,0,0,0,3.2-3.39c1-1.13,2.05-2.28,3-3.46a39.34,39.34,0,0,0,5-7.57,29.16,29.16,0,0,0,2.67-8.64,28.07,28.07,0,0,0,.28-4.49c0-.76,0-1.52-.11-2.28Z" transform="translate(-815.77 -778.34)"/><path class="cls-2" d="M1171.25,936.06a104.26,104.26,0,0,0-6.09-17c-2.28-4.72-5.12-9.31-9.11-12.77a21.36,21.36,0,0,0-6.31-3.91,71.6,71.6,0,0,0-7-1.94c-4.58-1.22-9.78-3.69-9.83-9.2-.05-6.12,5.38-11,9.83-14.52,9.38-7.34,21.1-11.93,28.74-21.36a23.33,23.33,0,0,0,5.56-16.07,42.55,42.55,0,0,0-.58-4.93,11.28,11.28,0,0,0-4.41,1.36c1.3,4.8-.38,10-3.61,13.79-4,4.71-9.79,7.3-15.07,10.29a149.76,149.76,0,0,0-16.81,11,92.59,92.59,0,0,0-7.37,6,22,22,0,0,0-5.22,6.64,10.21,10.21,0,0,0-1,4,37.14,37.14,0,0,1-.09,4.27c-.41,3-2.7,4.74-5.52,5.41a35.44,35.44,0,0,0-8.39,2.7,53.63,53.63,0,0,0-7.86,5.11c-5.59,4.26-11,8.75-16.51,13.13l-16.65,13.28.15.26.2,0c21.29-1.85,40.09,12.46,51.8,29.06s18.18,37.27,16.74,57.51a43.2,43.2,0,0,1,6.58-2.68,6.35,6.35,0,0,1-.64-3.65,37.78,37.78,0,0,1,1.18-5.32l1.24-5,2.57-10.46c.5-2,3.65-1.18,3.15.87-1.57,6.39-3.35,12.76-4.71,19.19-.23,1.08-.44,2.47.39,3.38l.15.15a1.62,1.62,0,0,1,1.69,1.13l.34.13a20.09,20.09,0,0,0,6.62.79,34.8,34.8,0,0,0,7.73-.79,1.34,1.34,0,0,1,1.15-1.09,2.39,2.39,0,0,1,1.67.21,14,14,0,0,0,4.07-2.45c4.59-4,5.34-10.43,6-16.16a154.64,154.64,0,0,0-4.72-60.3Z" transform="translate(-815.77 -778.34)"/><path class="cls-1" d="M951.28,1037.83c-1.53-.26-3.06-.49-4.59-.71q-4.4-.63-8.83-1c-2.42-.23-5.47-.89-7.59.67a1.67,1.67,0,0,0-.59,2.23,1.64,1.64,0,0,0,2.23.59c1.2-.88,2.87-.5,4.26-.38,1.83.15,3.65.34,5.47.55s3.62.45,5.43.72c1.06.16,2.2.25,3.31.44-.26.32-.52.64-.75.95a33.21,33.21,0,0,1-2.34,2.77,14,14,0,0,1-5.76,3.9c-2.69.88-5.78.7-8.55.44a22,22,0,0,1-7.93-2.27c-1.87-1-3.52,1.86-1.65,2.82a29.14,29.14,0,0,0,15.42,2.79c5.05-.37,8.94-3.1,12.12-6.89.74-.88,1.44-1.81,2.12-2.73s1.75-2,1.44-3.12C954.1,1038.1,952.51,1038,951.28,1037.83Z" transform="translate(-815.77 -778.34)"/><path class="cls-1" d="M904.72,1033.06a3.38,3.38,0,0,0-.53.16,3.42,3.42,0,0,0-3.23,2.11,3.53,3.53,0,0,0,1.2,4.47,4.17,4.17,0,0,0,6.36-4.17A3.21,3.21,0,0,0,904.72,1033.06Z" transform="translate(-815.77 -778.34)"/><path class="cls-1" d="M1170.79,924c-3.6-9.7-9.23-20.15-19.21-24.43-4.3-1.84-9.54-1.83-13.41-4.59a5.31,5.31,0,0,1-1.7-6c.83-2.83,3.11-5.12,5.18-7.1,8.8-8.37,20.63-12.66,29.33-21.21a30.76,30.76,0,0,0,8.67-14.36c1.6-6.55,0-13.44-1.53-19.86a23.36,23.36,0,0,0-3.63-8.78c-2-2.64-4.79-4.33-7.51-6.09-2.23-1.44-4.43-3-5.41-5.57-.71-1.87-.93-4.47,1-5.66,1.55-.94.55-3.57-1.26-3a17,17,0,0,0-11,11.13,16.81,16.81,0,0,0,3.65,15.71c3.5,4,9.08,5.16,12.81,8.85,4,3.92,2.45,10.21-.74,14.1-3.88,4.74-9.92,7.22-15.11,10.18a149.75,149.75,0,0,0-16.75,11.12c-4.73,3.61-9.93,7.43-12.83,12.77a16,16,0,0,0-1.71,8.33c0,1.26,0,2.53-.93,3.45s-2.43,1-3.56,1.25c-9.61,2-17,8.77-24.44,14.72l-23.21,18.52a15.84,15.84,0,0,0,.35-4.27c.06-1.86.05-3.72,0-5.58a91.12,91.12,0,0,0-.89-10.55,95.39,95.39,0,0,0-5.6-19.89c-2.48-6.63-5.08-13.22-7.62-19.83a44.85,44.85,0,0,0-4.4-9.43,23,23,0,0,0-6.87-6.37c-5.71-3.58-12.5-4.75-19.06-5.77a26.42,26.42,0,0,0,1-10.73,42.69,42.69,0,0,1,6.61.7c2.54.48,5,1.45,7.58,1.58a6.44,6.44,0,0,0,5.64-2.81c1.34-1.92.58-4.3-.88-5.86s-3.91-2.72-5.92-3.65a34.74,34.74,0,0,0-13.53-3.14q-.05-2-.29-3.94a45.16,45.16,0,0,0-.78-4.49,4.58,4.58,0,0,0-1.94-3.19c-1.12-.71-2.89-.6-4.16-.71-1.54-.13-3.09-.19-4.64-.22a76.46,76.46,0,0,0-9.28.4,25.33,25.33,0,0,0-7.74,1.61,10.13,10.13,0,0,0-3.8,2.94q-1.13-5.46-2.57-10.85a1.64,1.64,0,0,0-1.58-1.2h-.28a36.79,36.79,0,0,0-4.43-10.76c-2.11-3.56-4.47-7.53-8.46-9.13a18.79,18.79,0,0,0-6.12-1.22,5.07,5.07,0,0,0-4.71,2.76,10.79,10.79,0,0,0-.77,5.46c.08,1.67.25,3.33.49,5-.73-.06-1.47-.21-2.2-.24a5.48,5.48,0,0,0-3,.78c-2.24,1.34-1.8,4-.77,6,1.68,3.16,5.31,4.69,8.66,5.71a1.45,1.45,0,0,0,.21.64c2.37,3.76,3,8.21,3.65,12.52A48.1,48.1,0,0,0,973,831.82a9.54,9.54,0,0,0-2.31,1.87,6.1,6.1,0,0,0-.45,7.83,11,11,0,0,0,7.34,3.85c1.32,2,2.63,4.1,4,6.14a26.75,26.75,0,0,0,5.43,6,59,59,0,0,1,10.46,12.07,1.86,1.86,0,0,0,.18.22,30.26,30.26,0,0,0-.19,6.25c.41,6.51,2.29,12.93,3.75,19.26,1.57,6.79,3.66,13.6,3.55,20.63a95,95,0,0,1-1,10.52c-.41,3.26-.19,6.39,1.8,9.11,2.72,3.73,7.15,5.3,11.37,6.67l.28.07-4.3,4.7a1.58,1.58,0,0,0-.44,1.13,8.62,8.62,0,0,0-2.26,1.17,67.55,67.55,0,0,0-7.38,6.71l-.07.07c-8.78,6.67-17.57,13.36-25.88,20.61-4.13,3.6-8.12,7.35-11.93,11.29q-2.86,3-5.54,6.06a4,4,0,0,0-1.32,3.45,1.8,1.8,0,0,0,.15.48L945.4,999.9a1.28,1.28,0,0,0-.83.52,30,30,0,0,0-12.56-1c-9.87,1.51-17.76,8.4-23.76,16a24.32,24.32,0,0,0-7.86-2,21.71,21.71,0,0,0-8.19.93,18,18,0,0,1-4.52,1.14c-1.54.06-3.08-.67-4.57-1a19.42,19.42,0,0,0-15.53,3.92,15.82,15.82,0,0,0-1.66,1.49c-4,.45-7.8-1-11.58-2.14a79.67,79.67,0,0,0-12.78-2.26c-3.84-.5-7.86-1.15-11.16-3.3-2.58-1.69-4.65-5.32-3.23-8.37a1.68,1.68,0,0,0-.26-2,1.63,1.63,0,0,0-2.31,0c-3.33,4.21-6.13,9.21-6,14.74.09,5.19,3.34,9.48,7.62,12.12,10.38,6.41,23.09,1.1,34.22,4.25a1.8,1.8,0,0,0,.38.07,18.5,18.5,0,0,0,1.38,7l-3.43,4.29c-1.52,1.9-3.13,3.77-4.56,5.75a1.35,1.35,0,0,0-.33.47c-.39.56-.77,1.12-1.13,1.7-3.26,5.29-3,12.48-.55,18.05a13.07,13.07,0,0,0,5.46,6.22,17.58,17.58,0,0,0,8.1,1.9,1.43,1.43,0,0,0,1.05.84,41.15,41.15,0,0,1,15.93,7.57c4.64,3.62,8.12,8.32,11.68,12.94S901.81,1109,907,1112c4.48,2.59,9.5,4,14.42,5.59a96.56,96.56,0,0,0-5.35,19c-1.28,6.58-.5,13.3.8,19.81.66,3.28,1.45,6.53,2.17,9.79q.27,1.2.51,2.41c.12.56.43.84.53,1.29q.6,2.68,1.22,5.35c1.56,6.68,3.61,13.32,4.47,20.14.57,4.46.29,8.93.4,13.4a20.78,20.78,0,0,0,.91,6.33A15.36,15.36,0,0,0,930,1220a1.66,1.66,0,0,0,2,.26,33,33,0,0,0,13-10.68,26,26,0,0,0,3.91-7.88,22.9,22.9,0,0,0,.39-9.74,92.18,92.18,0,0,0-2.49-9.81c-.86-3.32-1.59-6.67-2.15-10.05a55.36,55.36,0,0,1,7.32-39.7l.1-.19c6.09,3.88,12.21,7.86,19.3,9.61a.86.86,0,0,0,.28.25c.33.19.72.43,1.12.61-1.4,2.53-1.42,5.62-1.16,8.42.3,3.3.86,6.59,1.25,9.88s.72,6.86.87,10.3a60.4,60.4,0,0,1-2.26,20.25c-1,3.3-2.24,6.52-3.27,9.8a25.44,25.44,0,0,0-1.47,8.3,8.91,8.91,0,0,0,2.89,6.7c2.32,1.93,5.34,2,8.12,1.17,3-.91,5.62-2.79,8.2-4.52s5.49-3.36,7.28-6c1.61-2.41,1.87-5.54,1.84-8.35,0-3.32-.37-6.63-.46-10a68.79,68.79,0,0,1,2-20.2,35.5,35.5,0,0,1,8.19-15.09c4.28-4.51,10.07-7.06,15.41-10a39.17,39.17,0,0,0,9.66-7.18,19.91,19.91,0,0,0,4.94-9.34,2.05,2.05,0,0,0,.94-.44,42.14,42.14,0,0,1,14.19-7.54c3,.24,6-1.24,8.44-2.92a53.29,53.29,0,0,0,7.12-6.18,66.48,66.48,0,0,0,11.55-15,13.33,13.33,0,0,0,1.39-3.82,1.81,1.81,0,0,0,.25-.23c9.15-10.29,18-20.68,25.67-32.16,5.18-7.79,10.16-15.81,16.26-22.89q.27,1.21.62,2.41a18.74,18.74,0,0,0,2.08,5.19,3.67,3.67,0,0,0,4.63,1.44,13.83,13.83,0,0,0,4.24-3.61,29.62,29.62,0,0,0,7.57-19.83,1.65,1.65,0,0,0-.16-.73,39.88,39.88,0,0,1,6.58-2.38,10.49,10.49,0,0,0,1.2.58q-1.83,4.32-3.65,8.64a41.42,41.42,0,0,0-3,9.39c-.88,5.47.43,12.23,5.58,15.25a6,6,0,0,0,4.05.72c1.5-.23,2.63-1.57,3.6-2.61,2.19-2.34,4.35-4.71,6.3-7.26a35,35,0,0,0,7.31-17.4,30.51,30.51,0,0,0,0-6.45c0-.36-.08-.75-.14-1.14q.91-.38,1.78-.83c5.33-2.8,7.94-8.12,9.09-13.81a122.6,122.6,0,0,0,2-19.77,156.81,156.81,0,0,0-.63-20.28A154.28,154.28,0,0,0,1170.79,924ZM1163,826.53a41,41,0,0,1-4.83-2.93,13.27,13.27,0,0,1-.31-20.67,11.18,11.18,0,0,0,2.2,7c3.38,4.57,9.64,5.85,12.61,10.84a27.36,27.36,0,0,1,2.72,8.28q.22,1,.44,2.06a14.6,14.6,0,0,0-5.09,1.56C1168.93,829.86,1165.81,828.08,1163,826.53Zm-94.05,112.85a25.23,25.23,0,0,1,3.69,9c1,6.43-2.17,12.83-5.64,18-3.86,5.73-8.4,11.05-12.65,16.5l-6.61,8.47a43.55,43.55,0,0,0-2.88,3.82,6.63,6.63,0,0,0-.71,4.7,13.5,13.5,0,0,0,1.75,4.16c.83,1.49,1.68,3,2.5,4.47q2.38,4.34,4.58,8.77,4.41,8.85,8.09,18t6.6,18.65a169.36,169.36,0,0,1,5,19,3.23,3.23,0,0,1-.17,2.25,1.17,1.17,0,0,1-.58.38c-.25.08-.4,0-.29.1a1.67,1.67,0,0,0-2.23-.59,1.65,1.65,0,0,0-.61,2.19q-4.46,1.7-9,3.21c-2.1.7-4.2,1.37-6.33,2a15.22,15.22,0,0,1-5.28.72,137.26,137.26,0,0,0-12.68-36.19c-3.08-6-6.79-11.56-10.1-17.39a92.7,92.7,0,0,1-7.87-18.91c-1-3.23-2.27-6.62-2.28-10,0-2.88,1.31-5.55,2.3-8.17.72-1.89,1.28-3.84,1.89-5.77,2.21-7,4.36-14,6.55-20.93.85-2.69,1.57-5.49,2.64-8.11a1.54,1.54,0,0,0-.58-1.72c1.89-1.45,3.77-2.93,5.59-4.47,4.88-4.13,8.81-9.17,13.52-13.47.7-.64,1.45-1.23,2.21-1.8a1.45,1.45,0,0,0,1.58.43,69.85,69.85,0,0,0,9.24-3.48c1.24-.56,2.63-1.13,3.9-1.87Q1066.48,935.32,1068.92,939.38Zm-78-110.68a1.76,1.76,0,0,0,.06-2c0-.22,0-.44,0-.67a30.77,30.77,0,0,1,.55-4.09,12.76,12.76,0,0,1,2.53-5.93c1.62-1.88,4.1-2.41,6.44-2.76a72.24,72.24,0,0,1,16.7-.43c.63.05,1.26.09,1.88.19.46.08.43.41.55.87a34.49,34.49,0,0,1,.75,4,39.79,39.79,0,0,1,.27,6.84,1.68,1.68,0,0,0-.62.22c-8.81,5.06-19.47,3.54-29.22,4.88C990.9,829.48,990.92,829.09,990.94,828.7Zm-22-24.29a1.56,1.56,0,0,0-.85-.55c-2.74-.76-5.69-1.63-7.65-3.81a4.71,4.71,0,0,1-.86-1.48c-.27-.73-.22-.91.51-1.12a5.45,5.45,0,0,1,2.12.07,7.85,7.85,0,0,0,3.08-.11,1.66,1.66,0,0,0,1.14-2,49.75,49.75,0,0,1-.63-5.21,12.35,12.35,0,0,1,.22-4.48c.45-1.49,2-1.36,3.29-1.15a15,15,0,0,1,4.82,1.42c1.44.8,2.4,2.39,3.33,3.7s2,2.92,2.82,4.44a32.39,32.39,0,0,1,3.38,8.33A126.79,126.79,0,0,0,968.91,804.4Zm3.69,13.74a38.78,38.78,0,0,0-2.78-10.6,121.21,121.21,0,0,1,16.17-2q1.59,6.12,2.79,12.34a1.54,1.54,0,0,0,.32.71,30.16,30.16,0,0,0-1.17,5.77c-.09.73-.14,1.45-.18,2.18q-4.3,1.33-8.56,2.79c-1,.36-2.14.71-3.21,1.11A48.54,48.54,0,0,1,972.6,818.14Zm4.86,23.92c-2.33-.46-5.16-1.75-5.19-4.25,0-1.37,1.26-2.48,2.3-3.13.25-.16.52-.3.78-.43a1.84,1.84,0,0,0,.77-.36c1-.43,2.11-.76,3.14-1.13q4.13-1.45,8.3-2.75c-.13.71-.43,1.43-1.09,1.49-2.08.18-2.1,3.45,0,3.27a4.41,4.41,0,0,0,2.94-1.43,1.84,1.84,0,0,0,.39,0c10.53-1.92,21.87.06,31.58-5.32a1.76,1.76,0,0,0,2.48-1.42c0-.48.07-1,.09-1.43a32.27,32.27,0,0,1,8.77,1.49,23.78,23.78,0,0,1,8.17,4.11c.89.76,1.14,1.62.3,2.5-1.05,1.1-2.76.9-4.1.62-1.59-.33-3.14-.84-4.73-1.17a46,46,0,0,0-5.12-.73,59.64,59.64,0,0,0-19.71,1.93c-6.55,1.63-12.71,4.23-19,6.57a24.1,24.1,0,0,1-9.08,1.81A1.64,1.64,0,0,0,977.45,842.07Zm18-.84,1.38-.53a88.2,88.2,0,0,1,19.35-5.18c1.67-.22,3.35-.36,5-.43,0,.05,0,.1,0,.15a22.67,22.67,0,0,1-2.75,13.84c-2.2,4-6.31,8.58-11.16,9a5.71,5.71,0,0,1-5.56-2.75c-1.09-1.84-1.56-4-2.77-5.75a8,8,0,0,0-2.45-2.31c-.81-.51-1.49-.71-1.45-1.75s.4-1.95.5-2.92A3.47,3.47,0,0,0,995.48,841.22Zm3.19,24.48a52.5,52.5,0,0,0-8.77-10,27.09,27.09,0,0,1-5.53-5.88c-1-1.45-1.89-2.91-2.83-4.37a37.34,37.34,0,0,0,10.86-3,9.34,9.34,0,0,1-.38,1.79,5.65,5.65,0,0,0,.3,3.55c.51,1.15,1.85,1.78,2.85,2.41a6,6,0,0,1,2,2.73c1,2.2,1.69,4.5,3.53,6.19a7.45,7.45,0,0,0,.59.48c.14,1.12-.71,2.21-1.26,3.15A18.33,18.33,0,0,0,998.67,865.71Zm10.77,69.41a8.22,8.22,0,0,1-2.24-3.11,10.69,10.69,0,0,1-.28-5.1c.41-3.51,1-7,1.08-10.51a43.51,43.51,0,0,0-1-10.4c-1.44-6.85-3.16-13.64-4.72-20.46-1.32-5.81-2.52-12-.81-17.9a21.94,21.94,0,0,1,2.1-4.47,8.67,8.67,0,0,0,.87-2.12,11.59,11.59,0,0,0,4.33.11c5.55-.87,10.15-6,12.73-10.7.28-.5.53-1,.77-1.53,6.19,1,12.51,2,18,5.14a19.75,19.75,0,0,1,6.29,5.55c1.86,2.61,2.93,5.69,4.07,8.65,2.55,6.61,5.13,13.2,7.62,19.83a97.3,97.3,0,0,1,5.6,19.89,82,82,0,0,1,.76,9.25c.05,1.57.06,3.15,0,4.72a31.12,31.12,0,0,1-.19,4.32c-.2,1.29-1.42,1.75-2.45,2.31-1.27.69-2.57,1.32-3.88,1.92s-2.35,1-3.56,1.47a13.05,13.05,0,0,0,3-7.77c.73-7,0-14.14-.94-21-1.1-8.12-2.63-16.18-4-24.25a44.6,44.6,0,0,0-2.74-10.63,22.06,22.06,0,0,0-4.93-6.92,1.49,1.49,0,0,0-.4-1.61,16.19,16.19,0,0,0-16.55-2.22c-5.31,2.34-9.21,7.18-11.88,12.19-2.82,5.29-3.91,11.64-.87,17.08a11.47,11.47,0,0,0,2.49,3,26.27,26.27,0,0,0,4,2.46,8.53,8.53,0,0,1,2.79,3.36c.83,1.43,1.57,2.91,2.25,4.42,3.42,7.5,5,15.74,6.67,23.77a16.72,16.72,0,0,1-3.45,4.53l-5.8,6.34-5.3,5.79a1.57,1.57,0,0,0-1.12-1.35C1014.81,938.17,1011.78,937.2,1009.44,935.12Zm17.62,1.24,5.8-6.34c1.72-1.88,3.48-3.83,4-6.39a1.57,1.57,0,0,0-.53-1.61,145,145,0,0,0-4.42-17.57,63.21,63.21,0,0,0-3.73-8.81,27.27,27.27,0,0,0-2.36-3.92,11,11,0,0,0-3.79-3c-11.65-6.26-2.28-22.91,6.09-27.67a12.91,12.91,0,0,1,12.72.05,1.32,1.32,0,0,0,.51,1.41,20.86,20.86,0,0,1,5.38,6.76c1.43,2.85,2,6.08,2.49,9.2,1.23,7.1,2.53,14.18,3.64,21.3a115.06,115.06,0,0,1,1.63,21.23c-.09,3-.17,6.27-2.25,8.63-1.93,2.19-4.69,3.64-6.9,5.55-4.82,4.18-8.7,9.3-13.52,13.49-2.4,2.09-4.92,4-7.45,6-2-1.93-3.51-4.27-5.92-5.76a7.34,7.34,0,0,0-2.08-.89Zm-22.87,22.87q2.36-2.34,4.81-4.59c1.42-1.31,2.9-3,4.8-3.55,1.74-.53,3.5.75,4.68,1.88s2.18,2.46,3.32,3.65c-1.6,1.22-3.19,2.45-4.76,3.71a77.07,77.07,0,0,0-6.93,6.29c-1.73,1.79-3.7,4.16-6.43,4.09a4.73,4.73,0,0,1-4.23-4.39C999.35,963.47,1002.36,961,1004.18,959.23Zm-41.25,35.68q1.17-1.32,2.37-2.6c1.69-1.81,3.42-3.58,5.19-5.31,3.54-3.47,7.23-6.79,11-10,4.83-4.12,9.81-8.06,14.84-11.94a7.4,7.4,0,0,0,1.64,6,7.74,7.74,0,0,0,7,2.87c2.85-.43,5-2.49,6.95-4.48a83.74,83.74,0,0,1,6.81-6.3c2-1.65,4-3.22,6.1-4.79-.42,1.22-.77,2.48-1.16,3.7q-1.59,5-3.14,10c-1.36,4.35-2.69,8.72-4.07,13.06-11.67,1.11-22.45,5.94-33.74,8.78-6,1.51-12.12,2.27-18.21,3.17l-2.45.36a1.83,1.83,0,0,0-.56-1C961.95,995.85,962.56,995.33,962.93,994.91Zm-101.86,34.9c-5.14-1.41-10.49-1.2-15.77-1s-10.66.32-15.48-1.81c-3.84-1.7-7.33-4.93-7.9-9.28a15,15,0,0,1,2-9,11.7,11.7,0,0,0,2.42,4.32c2.85,3.27,7.46,4.52,11.55,5.24,4.81.85,9.7,1.07,14.44,2.35,3.66,1,7.28,2.45,11.07,2.65A19.51,19.51,0,0,0,861.07,1029.81Zm3.37,45.33A11.05,11.05,0,0,1,857,1072c-1.85-2-2.65-4.76-3.1-7.35a15.62,15.62,0,0,1,.94-9.34,19.33,19.33,0,0,1,1.43-2.45c6.26-1.37,13-.4,17.83,4.13s5.13,11.24,5.11,17.35A64.8,64.8,0,0,1,864.44,1075.15Zm80.74,113.69a25.5,25.5,0,0,1,1,9.36,19.49,19.49,0,0,1-3.16,8.34,29,29,0,0,1-11.42,10.27,13.92,13.92,0,0,1-2.16-7.65c-.14-3.49.12-7-.12-10.46C934,1194.61,939.09,1190.55,945.18,1188.84Zm3.89-58.09a65.17,65.17,0,0,0-7.3,17.89,58.62,58.62,0,0,0-1,19.83,108.53,108.53,0,0,0,3.48,17.22c-5.82,1.62-10.77,5.21-15.37,9.07a161.21,161.21,0,0,0-3.51-16.4c-.8-3.3-1.36-6.72-2.33-10a14.84,14.84,0,0,1-.56-1.53c-.17-.8-.34-1.6-.52-2.4-.38-1.71-.78-3.41-1.16-5.11-1.45-6.43-2.61-12.9-2-19.52a73.54,73.54,0,0,1,2.27-11.1,75.14,75.14,0,0,1,3.36-10.16l.5.17a125.27,125.27,0,0,1,24.11,11.64l.16.1A1.82,1.82,0,0,0,949.07,1130.75Zm42.63,69.61a8.77,8.77,0,0,1-3.51,7.12,84,84,0,0,1-8.19,5.43c-2.18,1.26-5.2,2.65-7.67,1.4-2.15-1.09-2.47-3.72-2.4-5.87.11-2.93,1.19-5.83,2.11-8.58.32-1,.65-1.91,1-2.86a1.69,1.69,0,0,0,.54-.36c2.25-2.21,5.47-3.11,8.46-3.8a33.57,33.57,0,0,1,9.38-.75C991.55,1194.84,991.81,1197.6,991.7,1200.36Zm54-83.55a46.26,46.26,0,0,0-10.5,5.77c.22-3.72-.1-7.46,0-11.19a24.3,24.3,0,0,1,4.11-12.72c1.18-1.76-1.65-3.39-2.82-1.65a27.22,27.22,0,0,0-3.8,8.62,37.64,37.64,0,0,0-.79,9.66c.1,6.17.42,12.44-3.67,17.53-3.68,4.59-9.09,7.28-14.17,10-5.48,2.94-10.45,6.22-14.29,11.2-7.57,9.82-8.88,22.74-8.58,34.78a38.56,38.56,0,0,0-10.13.87,26.4,26.4,0,0,0-6.46,2.19c.18-.62.36-1.23.53-1.85a55.81,55.81,0,0,0,1.6-10.12,104.91,104.91,0,0,0-1-20.56c-.4-3.21-1-6.42-1.16-9.65-.17-3,.4-5.59,2.73-7.63,1.33-1.16,2.79-2.17,4.14-3.31s2.57-2.31,3.78-3.54a51.15,51.15,0,0,0,6.47-8.14,35.18,35.18,0,0,0,5.85-19.59c0-2.1-3.31-2.11-3.27,0,.25,11.55-6.69,21.68-15.14,29-1.44,1.24-3.07,2.32-4.46,3.63a6.85,6.85,0,0,0-2.27-1.35.92.92,0,0,0-.28,0c-6.09-1.49-11.45-4.74-16.69-8.08a164.89,164.89,0,0,0-17.07-9.77,142.43,142.43,0,0,0-18.56-7.22c-5.94-1.89-11.71-4-16.38-8.24-5.73-5.27-9.54-12.24-15.05-17.72A43.53,43.53,0,0,0,874,1078.2a106.83,106.83,0,0,0,11.93-1.86,101.14,101.14,0,0,0,18.87-6,1.64,1.64,0,0,0,.59-2.23,1.67,1.67,0,0,0-2.23-.59,99,99,0,0,1-19.27,5.9l-1.47.28c0-6.9-.91-14-6.06-19.09-4.59-4.52-11-6.08-17.28-5.55.48-.58,1-1.15,1.41-1.73l7.19-9a1.67,1.67,0,0,0,0-2.31,1.64,1.64,0,0,0-2.31,0l-.82,1a16.23,16.23,0,0,1,2.09-12.84c2.87-4.46,8.28-6.85,13.47-6.75,3,.05,5.75,1.62,8.77,1.18s5.59-1.79,8.59-2a19.71,19.71,0,0,1,14.61,5.15l.26.25a12.68,12.68,0,0,0-1,7.43,7.87,7.87,0,0,0,5.1,5.86c2.85,1.13,6.13.48,8.94-.4a70.33,70.33,0,0,1,9.77-2.67,40.63,40.63,0,0,1,10.12-.28c3.35.3,6.64,1.14,10,1.56a18,18,0,0,0,9.58-1.06,16.54,16.54,0,0,0,6.33-5.24c3.9-5.05,4.7-11.71,5.47-17.83a1.62,1.62,0,0,0-1.2-1.57,1.68,1.68,0,0,0-1.84.75c-6.24,8.73-17.52,11.13-27.63,10.1-5.66-.58-11.07-2.68-16.81-2.65a28.09,28.09,0,0,0-14.16,4,21.84,21.84,0,0,0-3.82-3.08c5.63-7.08,13.16-13.36,22.42-14.49,9.62-1.17,18,5.49,27.59,4.71,2.08-.17,2.1-3.44,0-3.27a27.32,27.32,0,0,1-10.34-1.59l14.17-2.1c6.1-.9,12.24-1.68,18.24-3.14,10.78-2.62,21.09-7.35,32.16-8.64l-.66,2c-.36,1.06-.79,2.09-1.2,3.13a18.77,18.77,0,0,0-1.35,9.92,67,67,0,0,0,2.75,10c1,3.3,2.22,6.54,3.58,9.72,2.66,6.23,6.35,11.94,9.82,17.73a131.87,131.87,0,0,1,16.84,44.09,1.59,1.59,0,0,0,1.14,1.14,13.66,13.66,0,0,0,2.68.23c1.09,2.17.53,4.73,0,7-.81,3.3-1.64,6.58-2.31,9.91a90.79,90.79,0,0,0-1.61,9.93A6.09,6.09,0,0,0,1045.73,1116.81Zm-130.56-93.08a1.68,1.68,0,0,0,.51-.23,25.38,25.38,0,0,1,14.92-4.13,50,50,0,0,1,8.84,1.56,56.5,56.5,0,0,0,8.94,1.26c8.74.51,17.78-1.89,24.25-7.71-.77,4.4-2.06,8.71-5.1,12.09a11.67,11.67,0,0,1-7.19,3.86c-3.29.42-6.63-.31-9.85-.9a46.88,46.88,0,0,0-20.21.46c-3.17.81-6.23,2.41-9.51,2.69-2.49.21-5.18-.61-6.07-3.16A8.2,8.2,0,0,1,915.18,1023.72Zm157.59,71.61a71.52,71.52,0,0,1-12.18,14.46c-2.21,2-4.6,4.15-7.44,5.23a8.45,8.45,0,0,1-2.4.55,1.51,1.51,0,0,0-1.15-.09l-.14,0-.33-.05c-1.15-.24-.84-1.93-.75-2.77.74-6.7,2.64-13.16,4.06-19.72a13.27,13.27,0,0,0,0-6.93,63.71,63.71,0,0,0,7.41-2.18q6-1.95,11.82-4.25a22.4,22.4,0,0,1,3.49,7.22C1075.87,1090,1074.4,1092.74,1072.76,1095.33Zm48.32-65.24-.09,0a1.52,1.52,0,0,0-1.13,1.27q-1.08,1.17-2.11,2.37c-8.7,10.17-15.09,22-23.09,32.73-5.1,6.82-10.73,13.23-16.39,19.6,0-.15-.06-.3-.09-.45a24.24,24.24,0,0,0-3.81-7.76,3.9,3.9,0,0,0,.79-.92c1.66-2.69.34-6.22-.32-9-1.52-6.42-3.33-12.77-5.38-19a249.62,249.62,0,0,0-15.31-36.5q-2.26-4.4-4.71-8.71a22.41,22.41,0,0,1-2-4,4,4,0,0,1,1-4q6.6-8.49,13.23-16.95c7.68-9.84,18.24-21.92,13-35.34a47.16,47.16,0,0,0-3.71-7l-1-1.61c23.16-1.07,42.43,17.39,52.88,36.53,8.05,14.75,12.16,32,10.55,48.78A62.58,62.58,0,0,0,1121.09,1030.09Zm9.94,7.11a24.61,24.61,0,0,1-2.72,3,11.38,11.38,0,0,1-1.53,1.3c-.6.4-.78.06-1.09-.49a20.16,20.16,0,0,1-1.64-4.66,36,36,0,0,1-.83-3.78c1.43-1.5,2.92-2.95,4.49-4.33a51.31,51.31,0,0,1,8.65-6.18A26.8,26.8,0,0,1,1131,1037.19Zm33.09-11.08a29.16,29.16,0,0,1-2.67,8.64,39.34,39.34,0,0,1-5,7.57c-1,1.19-2,2.33-3,3.46a27.28,27.28,0,0,1-3.2,3.39c-2.12,1.63-4.6-2-5.38-3.58a13.91,13.91,0,0,1-1.06-7.67,33.48,33.48,0,0,1,2.72-9c1.29-3.13,2.63-6.24,3.95-9.36a22.33,22.33,0,0,0,3,.32,36.93,36.93,0,0,0,10.83-1l0,.47c.07.76.1,1.52.11,2.28A28.07,28.07,0,0,1,1164.12,1026.12ZM1176,996.36c-.67,5.73-1.42,12.12-6,16.16a14,14,0,0,1-4.07,2.45,2.39,2.39,0,0,0-1.67-.21,1.34,1.34,0,0,0-1.15,1.09,34.8,34.8,0,0,1-7.73.79,20.09,20.09,0,0,1-6.62-.79l-.34-.13a1.62,1.62,0,0,0-1.69-1.13l-.15-.15c-.83-.91-.62-2.3-.39-3.38,1.36-6.43,3.14-12.81,4.71-19.19.5-2-2.65-2.91-3.15-.87l-2.57,10.46-1.24,5a37.78,37.78,0,0,0-1.18,5.32,6.35,6.35,0,0,0,.64,3.65,43.2,43.2,0,0,0-6.58,2.68c1.44-20.23-5.13-41-16.74-57.51s-30.51-30.91-51.8-29.06l-.2,0-.15-.26,16.65-13.28c5.49-4.38,10.92-8.87,16.51-13.13a53.63,53.63,0,0,1,7.86-5.11,35.44,35.44,0,0,1,8.39-2.7c2.83-.67,5.11-2.39,5.52-5.41a37.14,37.14,0,0,0,.09-4.27,10.21,10.21,0,0,1,1-4,22,22,0,0,1,5.22-6.64,92.59,92.59,0,0,1,7.37-6,149.76,149.76,0,0,1,16.81-11c5.29-3,11-5.58,15.07-10.29,3.23-3.77,4.9-9,3.61-13.79a11.28,11.28,0,0,1,4.41-1.36,42.55,42.55,0,0,1,.58,4.93,23.33,23.33,0,0,1-5.56,16.07c-7.64,9.44-19.36,14-28.74,21.36-4.44,3.47-9.88,8.39-9.83,14.52,0,5.51,5.26,8,9.83,9.2a71.6,71.6,0,0,1,7,1.94,21.36,21.36,0,0,1,6.31,3.91c4,3.47,6.83,8.06,9.11,12.77a104.26,104.26,0,0,1,6.09,17,154.64,154.64,0,0,1,4.72,60.3Z" transform="translate(-815.77 -778.34)"/></svg>