<svg id="Layer_1" data-name="Layer 1" xmlns="http://www.w3.org/2000/svg" viewBox="0 0 363.12 147.97"><defs><style>.cls-1{fill:#808184;}.cls-1,.cls-2{fill-rule:evenodd;}.cls-2{fill:#231f20;}</style></defs><title>3</title><path class="cls-1" d="M1129.7,982.07c1.14-.78,1.61-2.33,10.13-1.79,9.59.61,14.66,7.14,23.86,11s18.75-1.17,18.75-1.17-6.67,5.92-12.71,7.45-16.84-4.9-22.35-6.63a17.2,17.2,0,0,0-8.3-.6,8.88,8.88,0,0,0-.77-2.31c-.66-1.1-2-1.81-3.34-3s-2.32-2.35-3.62-2.76A7.1,7.1,0,0,0,1129.7,982.07Z" transform="translate(-819.32 -926.35)"/><path class="cls-2" d="M1035.32,1020.65c-1.43.2-15.92-2.25-21.84-3.47s-20.21-7.76-25.72-8.16-7.35,1.84-12.66,1.63-11.23-2-12.25-1.63a6.66,6.66,0,0,0-1.62.85c0-.23,0-.47.09-.72,3-16.79,2.49-24.18-8.49-37.68,8.53,15.24,10,19.74,6.88,37.4a29.74,29.74,0,0,0-.14,4.35c-.23,3-1.42,10.7-1.42,10.7-1,4.18-6.27,11.7-8,13.88,0,0,.82,4.9,1.33,6.94s9.7,11.33,15.41,15.31,6.84,4.8,10.21,7.14,5,2.76,3.88,3.67a7,7,0,0,1-3.37,1,3.26,3.26,0,0,1-1.94,1.74c-1.63.71-6.84,1.12-10.21,0a8.26,8.26,0,0,1-5.2-5.41,3.49,3.49,0,0,0-2-2.55c-1.33-.82-4-2.14-4.59-3.67a18.74,18.74,0,0,0-3.88-5.72c-2-2.14-11.12-11-15.51-13.17s-5.2-.31-5.82-3.57,4.49-13.47,3.67-15.51-14.29-6.43-22.66-17.66-10.82-17-11.33-23.27-.61-9.08-.61-9.08a22,22,0,0,1-.41-5.72c.2-3.06.41-4.49.41-4.49s-.82-2-4.18.92c-9.21,8.09-24.18,21-36.94,20.31-5.43-.3-7.18-.35-10.78,4.35s-4.61,6.37-10.85,9.82-16.57,4-15.37,4.3,11.72-4.91,14.73-9.68,2.66-9,7-12.87,12.22.48,16.16,1.05c12,1.74,31.37-16.34,38.08-24.88,4.49-5.72,5.31-8.16,13.06-11.23s11.84-2.76,11.84-2.76,4.49-3.78,22.35-7.65,34.29-.71,42.76-.92,27.25-7,36.84-8,26.94.41,42.86,8,14.7,7.35,30.62,20.82,23.88,21.23,27.15,24.09c2.05,1.8,3.38,2.7,4.49,3h0a2.88,2.88,0,0,0,1.42,0c1.22.06,2.65,0,3.63,1.1a50.13,50.13,0,0,0,4.55,4.12c2.53,2.11.5,10.25.2,13a48.12,48.12,0,0,1-3.67,12.66c-1.53,3.78-5.51,7.14-7.45,9.19a107.08,107.08,0,0,0-6.49,9.23,17.54,17.54,0,0,1-2.56-8,9.25,9.25,0,0,1,1.13-4.95,29.87,29.87,0,0,1,2.68-4.1,22.13,22.13,0,0,1,5.59-4.73l.12-.07.08-.11c.64-.9.27-2.77,0-3.73a7.74,7.74,0,0,0-3-4.2,5.26,5.26,0,0,0-4.19-.84,13.87,13.87,0,0,0-2.8,1.21c-1.24.58-3.17,3-4,4.09a33.43,33.43,0,0,0-4.46,8c-.27.72-.51,1.45-.71,2.2a21.43,21.43,0,0,0,2.67,17.73,23.25,23.25,0,0,0,4.4,4.94,23.28,23.28,0,0,1-3.71,4.3c-1.53.92-3.06.31-4.34-.56s-1.84.15-4.39-1-3.67-2.14-4.08-4.59a17.21,17.21,0,0,0-1.17-4.08,14.53,14.53,0,0,1-4.75-5.72c-1.84-3.88-1.63-5.51-4.18-6.12a7.57,7.57,0,0,0-4.17.38h0c-7.1-5.75-3.76-8.44-16.7-16.22,11.27,7.71,7.84,8.9,15.67,16.66l.52.41c1.63,1.32,6.69,5.55,9.07,9.28,2.86,4.49,2.14,6.23,4,8.27s8.16,7.14,11.12,10.61,2.35,4.29,4.9,6.12,5,3.47,4.59,4.59-2.14,1.43-2.14,1.43.2,1.84-4.08,2.45-9.49.71-11.12-2.25a24.61,24.61,0,0,1-2.25-5.51s-1.43,2.45-1.84,1.12.2-5.2-.1-5.72-6.94-11-10-12.86c-2.82-1.7-6-4.26-11.36-5.53-1.68-.68-3.43-1.36-3.43-1.36-41.13-8-20.74-31.15-38.07-43,10.54,10.51,5.83,20,11.63,30.92,2.87,5.42,11.1,9.11,16.93,10.7a7.42,7.42,0,0,1-1.22,4.45c-1.1,1.44-.71,3.88-1.84,7.86s-6.63,10.51-8.47,11.94-.92,3.37-5.31,6.43-4.49,3.57-5.2,2.35.2-13.88,1.53-14.9a8.65,8.65,0,0,1,2.25-1.33,3.1,3.1,0,0,1,.71-3.37c1.53-1.84,2.14-1.43,3.16-2.35s.1-2.76.92-3.47,2-.71,2.65-2.35a20.49,20.49,0,0,0,.51-5.41s-2.55-2.45-5-4.69c-2-1.82-7.55-4.94-9.59-6.06a2.13,2.13,0,0,0,.48-.23,10.35,10.35,0,0,0,2.07-1.91,11.71,11.71,0,0,1-3.31,1.73Zm-76.08,5c-.29.23-.54.46-.76.68a123.85,123.85,0,0,1-7.32,12.36c2.33,2.21,8.35,7.75,11.6,9.29,4.08,1.94,11.94,8.78,12.86,10s1.43,2.55,2.25,3.16,1.84-.61,3.47,1.74,5.61,4.9,8.06,5.1,6.84-1.33,6.84-1.33,2.86-1.12,3.37-2.45-4.18-3.67-7.65-5.1-2.14-.92-5.72-3.16-7-6.94-14.39-14.08C966.3,1036.49,961.35,1029,959.24,1025.67Z" transform="translate(-819.32 -926.35)"/><path class="cls-1" d="M1126,1009.38c.64-.89,0-5.11-2.89-6.95s-4.8-.31-6.33.41-6.94,7-8.78,13.88c-5.17,19.25,15.6,33.19,33.37,26.23,4.69-1.84,6.43-3.67,6.43-3.67-7.23,4.71-24,1.16-28.78-7-3.88-6.63-3-11.33-1.53-13.78A21.8,21.8,0,0,1,1126,1009.38Z" transform="translate(-819.32 -926.35)"/></svg>