<svg id="Layer_1" data-name="Layer 1" xmlns="http://www.w3.org/2000/svg" viewBox="0 0 319.66 143.33"><defs><style>.cls-1{fill:#808184;}.cls-1,.cls-2{fill-rule:evenodd;}.cls-2{fill:#231f20;}</style></defs><title>1</title><path class="cls-1" d="M1112.18,975.12a4.55,4.55,0,0,0-4.34,1.89c-.48.58-.13,2,.86,3.9a3.26,3.26,0,0,1,.9-.64c2-.89,7.11,2.47,11.56,5.89-1.33-1.78-2.56-3.6-3.68-5.38-2.76-4.39-5.31-5.66-5.31-5.66Zm21.08,27.46c5.21,1.92,10.64,2.25,15.69-.25.3-.15.94-.52.38-.52-7.93,1.22-14.87-2.17-20.65-7.31a6.14,6.14,0,0,0,.06,1C1128.87,996.32,1131.71,1000.4,1133.26,1002.57Z" transform="translate(-840.51 -929.26)"/><path class="cls-2" d="M1092.3,949.89c-6.89-6.49-25.88-16.2-36.09-19-11.23-3.06-39.8-1.63-49.4,2.45s-12.25,3.47-24.9,7.65-14.9,5.21-20.21,5.31-15,2.15-22.55,3.58S928,953.56,928,953.56c-4.69,1.63-7.35,3.88-9,9.59s-10,13.06-9.39,24.7,2.45,13.68,2.65,16.43-1.84,6.84-4.08,8.57-3.88,1.43-5.61,3.78-1.84,4-2.86,6.23a201.3,201.3,0,0,1-10.82,17.35c-3.16,4.39-4.18,5.92-6,6.33s-2.35,0-2.45,1.84.31,2.35-.41,3.06a5.82,5.82,0,0,0-1.43,2c-.71,1.33-.51,1.94-2.14,2.86s-3.16,1-3.67,2.35.71,3.67,2.45,5.72,2.76,4.08,5.61,3.88,3.47-6.63,4.49-7.65,1-.41,2.45-2,4.9-12.86,9.59-17.55c3.87-3.87,11.9-9.68,14.6-11.6-.42-1.44-1.36-4.35-1.86-6.52-.56-2.45-1.12-5.46-.05-6.74s7.73-5.89,8.55-7.09,1.28-2.42-.31-6.3a36.87,36.87,0,0,1-2.5-14.19c.1-5.2,3.21-13,3.21-13s-3.47,9.19-2,17.76,5.51,12,3.06,16.13-9.08,6.33-9.39,8.06,1.63,9.7,2.24,11.26c0,0,2.45,1.94,3.67,6.84a91.35,91.35,0,0,0,7.65,18.68c3,5.2,4,5.61,3.78,7.25s-.92,2.45.31,2.86,2.25.82,2.55,2.25.51,4.29,2.35,5.1,9.08.71,11.74.82,3.06-.1,2.35-1.33-3-6.33-4.49-7.65-.92-.31-1.84-2-3.27-2.76-5.61-6.43-5.72-8-6.53-13-.1-5.72.2-6.53,3.27-3.78,6.23-4.59,4,.2,7.55-3.37a47.56,47.56,0,0,1,7.76-6.63c1.53-.92,9.39-10.41,13.57-11.94a24.61,24.61,0,0,0,7.65-4.59c.28-.24.46-.57.83-.74,3.69-9.38,1.68-23.19-5.13-27.44,9.68,5.67,9.82,17.43,7,27.63a16.35,16.35,0,0,1,2.31,1.17c4.18,2.45,4.8,4.18,7.25,3.67a25,25,0,0,1,10.21-.31c4.29.82,13.17,4,22.76,4.39s12.05.74,15.31,2.25,1.42.66,2.1.95c-4.1-6.19-10.23-13-11.56-20.76-.77-4.53,3.9-11,6.15-15a104.09,104.09,0,0,0-4.72,10.79c-2.32,7,8.26,20.92,12.74,25.94,4.87,10.8,14.67,12.28,24.6,16.52a26.12,26.12,0,0,1,.8,9.35c-.61,4.49-1.43,3.27-3.67,4.69s-3.47,2.86-2.45,5.92,1.84,13.27,5.51,10,9.59-12,9.8-15.1-2-16.13-2.45-19.19c-.47-3.23-7.54-11.82-10.15-13.39-1.24.06-7.28-8.32-5.72-13.06,0,0-.11,5.6,5.92,11.89.77.81,1.48,1.48,2.11,2a12.08,12.08,0,0,0,6.5.67c4.29-.71,7.14-1.73,8.88-1.73s2.25,2.65,4.9,3.47,4.29,1.33,4.9,2.76-.71,1.43,1.63,4.29.92,3.06,3.37,6.12,3.47,2.25,5.51,3.57,1.53,2.14,3.78,2.76,6.53.2,7-1.74.2-4.08.51-4.69,2.76-7.35,6.53-11.63,6.84-5.2,9.19-10a32.17,32.17,0,0,0,1.62-4,57.37,57.37,0,0,1-4.25-5c-1.17-1.57-5.35-7.29-3.66-9.33,1.22-1.47,3.23-2.64,5.19-2.17l.1,0,.09,0a9.51,9.51,0,0,1,1.81,1.32,20.06,20.06,0,0,1,3.06,3.5,9.93,9.93,0,0,0-.81-4.58c-2-4.08-8.78-8.16-10.21-10.82s-4.9-3.47-6.94-8.16-11.43-13.27-16.13-19.6a14.38,14.38,0,0,0-1.68-1.83ZM1037,1017l0-.05S1037.11,1017,1037,1017Z" transform="translate(-840.51 -929.26)"/><path class="cls-2" d="M1054.39,1032.47a54.51,54.51,0,0,1,.72,7.72c-.2,3.06-6.12,11.84-9.8,15.1s-4.49-6.94-5.51-10,.2-4.49,2.45-5.92,3.06-.2,3.67-4.69a22.09,22.09,0,0,0-.1-5.84C1048,1029.89,1051.76,1031.41,1054.39,1032.47Z" transform="translate(-840.51 -929.26)"/><path class="cls-1" d="M1122.8,990.83a4.55,4.55,0,0,0-4.34,1.89c-2.76,3.33,21.91,34.84,41.11,25.32.3-.15.94-.52.38-.52-14,2.16-25-10.13-31.84-21C1125.35,992.11,1122.8,990.83,1122.8,990.83Z" transform="translate(-840.51 -929.26)"/><path class="cls-2" d="M931.83,966.94c-20.65-1.69-24.81,4.39-28.26,9.9-4.58,7.3-7.09,11.3-29.17-5.91a10.72,10.72,0,0,0-6.67-2.56,41.16,41.16,0,0,0-4.1,5.84c-7.7,13.4-23.56,18.92-23.09,17.76,3.14-7.86,9.52-21.18,16.45-25.89,2.47-1.68,6.09-1.18,8.77-.43,3-.54,6.55.11,10.37,3.09C895.75,984,897.68,981,901.2,975.36c3.83-6.1,9.26-15.41,31.59-13.59Z" transform="translate(-840.51 -929.26)"/></svg>