<svg id="Layer_1" data-name="Layer 1" xmlns="http://www.w3.org/2000/svg" viewBox="0 0 106.82 97.03"><defs><style>.cls-1{fill:#010101;}</style></defs><title>Bull8</title><path class="cls-1" d="M306.59,222.51s.07-.51,1.39-6.28,1.42-7.28,1.28-10.45-.28-3.59-.14-3.88,3.83-2.79,5.25-5.2a24.4,24.4,0,0,0,1.8-3.88c.19-.24,2.11-1,2.23-1.9a1.82,1.82,0,0,0-.09-1.18s.54-.38.09-2.08-1-2.67-2.67-2.93a19,19,0,0,0-5.43.43c-1.58.26-1.46.05-5.76.66s-6.05.52-8.42,1.18-1.94,1.18-3.73,1.75-3.07,2.13-3.45,2.22-1-.65-.83-2.11-.66-1.56-1.13-1.39-1.27,2-1.42,4a6.91,6.91,0,0,0,.35,3.12s-5.48,1.6-7.56,3.06-3.17,3-3.17,3.31-.18,1.68-.37,4-3.22,1.7-6.06.09-4.26-3.6-6.15-3.6h-2s-4.11-4.09-4.63-4.8,0-.71-.19-1.14-1-.33-1.37-1.09a4.8,4.8,0,0,0-1.23-1.8,2.91,2.91,0,0,1-1.32-1.47,8.9,8.9,0,0,0-1.28-2.32,12.12,12.12,0,0,1-1.32-1.42c-.24-.33-.57-.85-.57-.85a2.07,2.07,0,0,1,.37-.74c.22-.19.07-.8.07-.8s.22,0,.43-.33a1.32,1.32,0,0,0,.17-.76.63.63,0,0,0,.54-.19c.17-.24,0-.8,0-.8a3.43,3.43,0,0,0,1.87.47c4.54.23,2.87-2.48-.12-4-2.24-1.13-1.87-1-1.87-1,.26-3.14-4.44-4.69-6.85-3.73a3.9,3.9,0,0,0-2.29,1.94s-4.09,1.08-4.8,3.45c-.44,1.49-1.44,3.29.77,2.62a7.89,7.89,0,0,1,2.27-.24c.44,0,.65,0,.62.09s-1.81.37-2.45.51c-1,.22-1.14.87-1.45,1.66a7,7,0,0,0-.77,2.35,56.62,56.62,0,0,0,.09,6.15,6.23,6.23,0,0,0,.74,3.28c.85,1.61.76,2.56,1.23,3.5a12.93,12.93,0,0,0,1.32,2,10.74,10.74,0,0,1-4.67,1.3c-2.27,0-3.21-.62-5.49-1.18-4.44-1.1-8.73-1.32-11.53-5.33a19.38,19.38,0,0,1-2.88-12.11,16.79,16.79,0,0,0,2.62-6.59c.31-3.57-.56-4.44-.56-4.44l-.25,1.44a7.62,7.62,0,0,1-.25-2.75,3.33,3.33,0,0,1,1.13-1.44s-2.25.88-2.5,2.69-.39,1.62-.39,1.62l-.44-.78a9.87,9.87,0,0,1,0,1.22c-.22,3.53-2.87,4.41-1.07,8-.22,4.88-.5,10.74,2.87,14.49,2.61,2.92,6.74,4.85,9.69,6.38,2.33,1.21,3,1.51,3,2a25.13,25.13,0,0,1-2.84,6.53c-1.52,2.37-1.32,4.54,0,7.85.26.66.51,1.32.75,2-.51,0-.83.6-.16,1.06.42.29.7.41.44.58s-2.54.2-3.79.9a6.86,6.86,0,0,0-2.69,3.07,3.42,3.42,0,0,0-.54,2.57,1.72,1.72,0,0,0,1.2-.29,8.85,8.85,0,0,0,.8-.5,5.77,5.77,0,0,0-.61,1.17c-.07.35,2.87.3,5.29-.9.88-.44,2-1,3-1.68a13.87,13.87,0,0,0,1.08,1.27l.59.6-4,3A4.11,4.11,0,0,0,225,237.3c0,1.66,0,1.85,1.69,1.31a18.31,18.31,0,0,0,4.24-2.09,27.48,27.48,0,0,0,3-2.15c.32.42.66.88,1,1.47,1.61,2.46,1.89,1.7,4.63,3.41s4,.95,5.21-.19,1.42-2.37,3.12-1.32,3.22,3.69,4.73,5.29,5,.66,5,.66,1.89,1.61,7,2.27,4.16.95,9.46,1,6.25.38,8,.38,3.41,1.7,6.53,5.49a19,19,0,0,0,7.19,5.29s.53.08,1.22,1.51c.12,1.26-.43,2-.24,2.7s.63,2.06,1.34,2.13a4.22,4.22,0,0,0,1.64-.34s-.09.74-.13,1.14.09.67.91.91,3.11.86,4.33,1.14,3.49,1.1,3.53.29-1.52-2.43-2-3.55a3.71,3.71,0,0,0-1.92-2.3,11.19,11.19,0,0,1-2.07-1.85,19.85,19.85,0,0,1-1.8-3.11,24.12,24.12,0,0,0-1.47-3.78,10,10,0,0,0-3-2.51c-.71-.43-2.79-4.54-2.51-4.44a3.56,3.56,0,0,0,2.93-.8,9.83,9.83,0,0,0,1.56-1.37s2.46-.33,3.12.24a14.48,14.48,0,0,1,3.21,3.92c1.46,2.41,2.18,4.49,1.94,6.29a7.94,7.94,0,0,0-.09,3c.14.57.52.52.57.8a4.23,4.23,0,0,0,.47,2.36,5.14,5.14,0,0,0,4.44,3.07c2.74.24,2.65-.9,2.65-.9a48.49,48.49,0,0,0-1.84-5.91c-.57-.95-.28-.19-.62-1s-.57-3.17-1.66-5.06a36.67,36.67,0,0,1-2.41-6.1c-.52-1.51-.24-2.46-1.09-3.21a14.78,14.78,0,0,1-2.7-3c-.62-1-2.84-4.49-3.21-5-.11-.16,5.09-9.46,5.6-10.93Z" transform="translate(-211.75 -170.95)"/></svg>