<svg id="Layer_1" data-name="Layer 1" xmlns="http://www.w3.org/2000/svg" viewBox="0 0 307.66 173.4"><defs><style>.cls-1{fill:#231f20;}.cls-1,.cls-2{fill-rule:evenodd;}.cls-2{fill:#808184;}</style></defs><title>6</title><path class="cls-1" d="M915.43,935.07c-2.16,1.43-1.51.65-8.11,1.21s-8.23.84-12.76,4-5.06,10-4.8,17.38.35,8-.08,13a15.35,15.35,0,0,0,1.79,8.32,31,31,0,0,0,8.84-4.89,23.7,23.7,0,0,0,5.38-6.59,19.54,19.54,0,0,0,2.16-5.5,8.29,8.29,0,0,0,.06-2.18c-.08-1-.27-1.95-.44-2.91a8.17,8.17,0,0,1-.23-2.36,8.18,8.18,0,0,0,0-.93,7.39,7.39,0,0,1,.16-1.42,5.43,5.43,0,0,1,2.34-3.27,7.1,7.1,0,0,1,4-1.37,9.15,9.15,0,0,1,2.82.46l.12,0,.11.07c4.07,2.61,3.81,9.7,2.69,13.8a33.44,33.44,0,0,1-12.46,18.5A43.1,43.1,0,0,1,894.52,987a59.71,59.71,0,0,1,1.44,13.09,30,30,0,0,0,.46,7.82,3.52,3.52,0,0,0,3.24,3c1.14,0,1.22.1,2.86,1.41s3.5,2.39,5.51,1.91,2.17-1.51,3.36-2.38a17.5,17.5,0,0,1,2.88-1.58c.77-.41,1.29-2.09,1.81-3.15s.27-1.19,3.19-2.41,1.45-2,5.9-4,7.39-1.67,9.74-4.39l1.2-1.38c.48-1.11.83-2,.84-2l.07-.12c5-7.62,4.51-16.4,2.26-24.75,4.54,5.22,3.85,20-.72,25.89,9,7.07,25.9,19,36.55,21.54-11.57-1.82-21.38-9.25-25.57-12.17a12.26,12.26,0,0,0-.65,5.69,20.58,20.58,0,0,1-.43,10.76c-1.33,4.63-5.51,11.73-4.19,14.57s3.67,3.56,5,10.64.18,17-.24,19.76-2.3,7.48-1.92,8.41,3.48.27,4,0,.54.52,1.79.37,3.41-2.11,5.43-3.82,4.84-6.29,4.66-7.37-1.54-3.14-1.9-4.78-3.69-12.54-3.42-14.87a55.42,55.42,0,0,1,1.71-8.18c.74-2.52,1.06-6.26,3.28-6.44s3.75.23,5.94-1.46,11-7.8,11-7.83c.15-1.38,1.88-11.13,1-13.42-1.63-4.26-14.48-9.15-13.78-21,3.39,14,13.34,16,15.08,20.55,1.57,4.09-2.07,19.88-3.78,24.87-2.38,6.92,1.39,10.3,2.63,13.19,8,18.66,2.59,24.24,4.14,29.52.2.69,1.31.58,2.33,1,.65.23,1,1.12,2,1.06,2.56-.16,6.6-2.61,8.28-4.45s.66-2.42,1.54-3.35,2.09-.88,1.9-3.11-1-4.07-2.14-7.26c-3-8.22-13.18-13.48-5.29-20.72,7.4-6.8,6.76-13.22,7.71-15.74l2.93-10s1.56,0,5.24-6.5c3.79-6.65,3.84-8.07,3.84-8.07-.68,5.83-5.78,14.53-8.49,15.79l-2.61,8.37a47.7,47.7,0,0,0,11.61,3.05c15.39,2.11,31.15,2.19,42.53-9.62-6.28,8.05-13.86,11.32-29.1,12.26a35.27,35.27,0,0,0,5,10.25c3.25,4.63,3.16,5.77,7,7.24s7.86,4.91,8.92,7.19-4.39,15.86-6.18,18.93a11.75,11.75,0,0,1-6.1,5.3c-2.36,1-4.64,3.86-5.67,5.37s-2.13,2.4-.58,3.17,4.61.36,5.16.8a7,7,0,0,0,3.51,1.77,10.65,10.65,0,0,0,6.17-.1c2.68-.82,2.72-3.36,3.39-4.84s.15-3.23,1.1-5.37,6.14-16.38,10.09-21.41,5.71-9.73,6.13-13.48c.17-1.47-.08-7.25-.6-8.43-2.62-6.53-6.59-19-5.2-28.53,2.62,17.94,2.7,24.17,13.8,34.15,4,3.61,12.22,12,12.52,14.08s2.29,1.26,3.68,4.2c2,4.17,5.21,7.12,6.35,10.55s1.32,7.95.35,9.12-2,4-2.48,6.92-.13,3.15,1.58,3.41,3.35-.63,5.16.18,2.56,1.63,4.72,1.35,4.32.51,4.67-1.74.79-8-1.58-12.56-8.26-19.32-8.26-19.32-.91-11.74-1.17-12.94c-.51-2.37.48-18.58-1.13-26s-5-15.92-8.84-24.42a88.9,88.9,0,0,0-7.54-13.84c-.42-.69.28-2.15-.05-4.63,59.88,17.55-16,40.37,41.11,59.17a6.83,6.83,0,0,0,.54,1.08c1.83,3,7.18,6,15.67,6.8a89.12,89.12,0,0,0,15.08,0c.6.13,0,0-2.87-1.41s-11.92-8.12-18.88-9.55-8.68-.5-9.13-.26a1.83,1.83,0,0,0-.32.39c-55.53-21.14,30.68-38-43.5-62-.15-.24,1.89,2.73-.49-.75s-1.73-14.44-16.37-15.15c-13.74-.66-48.42-16.15-49.36-16.89-9.73-7.66-41.44-18.62-47.17-19.15-8.76-.82-11.76,2.9-18,3.92-9.93,1.63-13.15,7.3-18.54,9.72C923,929.92,924.36,933,915.43,935.07Z" transform="translate(-846.03 -913.53)"/><path class="cls-2" d="M890.81,942.72a13.81,13.81,0,0,0-2.09,10.37c-18.76,12.33-42.37-4.31-42.69-8.87,0-.34.44,0,.64.12C867.08,954.08,871.76,953,890.81,942.72Z" transform="translate(-846.03 -913.53)"/><path class="cls-2" d="M916.39,948.89a6.46,6.46,0,0,0-6.08.78c-2.57,1.8-2,3.83-2.19,5s1.11,4.75.6,7.48a24.14,24.14,0,0,1-7.85,12.6c-5,4.16-13.5,7.06-20.1,7.63S868.5,981,868,981.31s-.44.28-.19.67,5.15,4.23,14.77,5.19,16.72-2.25,24-7.46,10.7-12.86,12.11-18C919.68,958.12,920.1,951.28,916.39,948.89Z" transform="translate(-846.03 -913.53)"/></svg>