<svg id="Layer_1" data-name="Layer 1" xmlns="http://www.w3.org/2000/svg" viewBox="0 0 517.05 362.14"><defs><style>.cls-1{fill:#010101;}</style></defs><title>20</title><path class="cls-1" d="M827.2,1147.56s-7.57,4.26-7.57,12.4c0,0-1.23,11.36,5.11,16.56,0,0-.47-14.29,1.52-20C826.26,1156.55,831.74,1146.24,827.2,1147.56Z" transform="translate(-744.38 -829.3)"/><path class="cls-1" d="M918.87,1128.7c3-11.95,3.69-16.07-3.55-12.8,0,0-17,23.85-9.23,35.21,0,0,11.78-9.23,19.73-11.36C925.82,1139.75,915.88,1140.65,918.87,1128.7Z" transform="translate(-744.38 -829.3)"/><path class="cls-1" d="M1061.17,1114c4.31,4.49,4.64,5.73,4.64,5.73-1.71,1.88-1,6.14-1,6.14.57,5.43,3.12,6.2,3.12,6.2a33.77,33.77,0,0,1,5.82,3.7c6.67,5.82,5.68-3.12,5.68-3.12C1077.59,1122.15,1061.17,1114,1061.17,1114Z" transform="translate(-744.38 -829.3)"/><path class="cls-1" d="M1091.49,1144.44s.29,5.4,6.68,4a10.26,10.26,0,0,1,5.11-.19s4.4.61,6-4.78c0,0,4.37-1.31,6.39-.29,0,0-1-4.54-20.59-3.69A5.3,5.3,0,0,0,1091.49,1144.44Z" transform="translate(-744.38 -829.3)"/><path class="cls-1" d="M1173.6,1035.5c11-6.62-5.68-6.06-5.68-6.06-25.37-.38-42-24.8-42-24.8-3.6-7.19-4.92-1.61-4.92-1.61-.57,4.83-9.84,16-9.84,16,5.49-.19,7.57-5.3,7.57-5.3,3.22-7.19,7.76,4.16,7.76,4.16a6.79,6.79,0,0,0,4.45,5.11c7.09,3.22,12,12.49,12,12.49,1.32-5.49,10.17-2.27,10.17-2.27,8.85,2.65,5.73,10.22,5.73,10.22-2.46,5.11,0,4,0,4a7,7,0,0,0,6.06-4.35C1166.41,1038,1173.6,1035.5,1173.6,1035.5Z" transform="translate(-744.38 -829.3)"/><path class="cls-1" d="M979.95,1005.51c1.67-.61,2.66-1.08,2.66-1.08A9.76,9.76,0,0,0,979.95,1005.51Z" transform="translate(-744.38 -829.3)"/><path class="cls-1" d="M972.58,1031.91s-5.68-1.51-6.62-14.39c0,0,8.2-8.79,14-12-9.61,3.54-41.8,11.95-37.28-36.45,0,0-14.76,15.33-.95,46.38,0,0,6.62,12.87,16.85,8.52,0,0,2.46,7.95,4.73,11.17,0,0,3,7.38,9.09,3.6,0,0,12.3-3.41,20.25,0C992.64,1038.72,984.5,1030.58,972.58,1031.91Z" transform="translate(-744.38 -829.3)"/><path class="cls-1" d="M1005.89,1030.3s9.62,25.55-17.19,28.11a10.71,10.71,0,0,1-5.52-.85s-9.8-4.12-8.09,2.56c0,0,11,17.6,32,1.56C1007.13,1061.67,1022.64,1048.47,1005.89,1030.3Z" transform="translate(-744.38 -829.3)"/><path class="cls-1" d="M1208.2,1031.72c-2.41-18.88-15.48-21-15.48-21-4.94-8.3-16.14-10.55-22.49-11.15a86.63,86.63,0,0,0-6.39-19.09c-.77-21.68-9.67-84.21-82.43-139.25,0,0-47.42-32.82-91.44,10.49-42.66,13.34-66.4,32.11-79.33,47-23.43,6.63-40.79,16.88-53.59,28.91-23-19.77-51.25-6.49-60.72,20.47-9.84,28-24.34,27.74-29.54,24.72s-7.75-15.83,23.63-37,16.9-53.76-17.56-47.51-28,40.89-28,40.89c14.57-14.58,27.26-11,29-7.76s-.38,9.84-4.92,15.14-30.66,36.34-12.49,54.14,43.35-1.14,54.14-25.37c8-18.06,18.5-10.46,23.31-5.41-18.08,39-9.42,80-9.42,80,.23,1,.46,2.1.7,3.2-24.16-.93-15.15,28.41-15.15,28.41,3,9.09-.95,24.42-.95,24.42-6.31,33.69.24,53,3.68,60.17a109,109,0,0,0-.08,14.79c.38,10.6,14,20.25,14,20.25a2.65,2.65,0,0,0,2.3.14c5.13-.23,10-10.17,10-10.17,9.28-15,25.55-6.25,25.55-6.25,16.09,5.49,14.2-1.89,14.2-1.89l-2.84-9.47a23.7,23.7,0,0,0-10.79-17.6l-8.32-5.4c2.89-6.1-5.16-14.2-5.16-14.2a24.52,24.52,0,0,1,.5-17.05c31.94,11.08,46.87-19.39,46.87-19.39,5.3,6.44,11.92,5.49,11.92,5.49l-6.81,12.87c-4.16,8,.95,8.9.95,8.9-8.52,11.93-10.6,29-10.6,29-1.14,28,20.82,17.73,20.82,17.73,40.7,24.74,76.33-20.05,76.33-20.05,7.81,7.52,12.63,9.23,12.63,9.23,11.64,2.7,11.36,3.6,11.36,3.6,5.39,3.22,7.38,1.51,7.38,1.51,2.75-1.33,2.08-5.49,2.08-5.49a20.73,20.73,0,0,1,.47-6.34,15.51,15.51,0,0,1,7.48,1.42c3,2,4.92,1.23,4.92,1.23,4.92-1,2.84-7,2.84-7a20.24,20.24,0,0,1,9.09,2.65,25.23,25.23,0,0,0,8.33,6.25,226.76,226.76,0,0,1,22.43,10c7.52,5.82,13.49,1.42,13.49,1.42,5.25-7.67,12.64-6.67,12.64-6.67a11.41,11.41,0,0,0,8.8-3l6.44-6.62c4.92-4,1.51-12.49,1.51-12.49-1.13-2.65-.38-8.14-.38-8.14,12.68-21,28.21-24.61,28.21-24.61,14.76-3,12.49-10.6,12.49-10.6V1084c22.9,32.75,66.44,19.5,66.44,19.5-6.25-2.46-12.68-11.73-12.68-11.73,33.32,6.06,43.92-14.58,43.92-14.58C1211.75,1077.15,1208.2,1031.72,1208.2,1031.72Zm-416.58-50c-15.71,14.76-25.93,8.33-25.93,8.33C739,976.44,767,944.45,767,944.45s15.9-19.31,11.6-26.54c-7.3-12.26-27.12.6-27.12.6,3.79-13.63,26.69-12.49,26.69-12.49-5.68-5.49-16.66-1.7-16.66-1.7,14.39-7,24.8,1.14,24.8,1.14C785,896.75,771,896.94,771,896.94c21.08-5.26,26.5,10.22,26.5,10.22,1.7-7.19-4.16-11.36-4.16-11.36,11.74,4,8.75,16.09,8.75,16.09-3.83,13.63-16.89,22.9-16.89,22.9-28.44,22.53-29.51,34.42-21.58,39.94,6.53,4.54,17.6,9.47,38.47-25.93,18.39-31.2,39.39-21,48.35-14.38a103.64,103.64,0,0,0-13.91,20.09C815.78,930.85,806.5,967.76,791.62,981.74ZM856,1144.53c11.93,7.19,13.25,20.44,13.25,20.44-13.06-11-20.63-17.23-30.29-14-7.81,2.61-10.54,23.19-11.3,30.94-4.18-2.85-8.39-9-8.39-9a32.08,32.08,0,0,1,4.35-28.77C833.26,1125.79,856,1144.53,856,1144.53Zm94.27,18.74c-24.8,6.25-6.25-16.85,3.22-18.36s20.07-6.25,20.07-6.25c21.77-7.38-26.88-25.55-26.88-25.55,14,18.74-1.51,25-1.51,25a152.88,152.88,0,0,0-20.07,10.79c-22.15,16.66-24.23,4.64-24.23,4.64-3.74-11.92,11.64-41.46,11.64-41.46,31.14-13.53,68.43,14.86,68.43,14.86C1009.49,1140.18,950.24,1163.27,950.24,1163.27Zm20.16-60.57,3-4.4c8.19,6.58,7.71,21.82,7.71,21.82-3.79-2.65-11.55-4.21-11.55-4.21C977.78,1106.25,970.4,1102.7,970.4,1102.7Zm-1.23-39c1.33,4.35,7,7.76,7,7.76L965,1087.93c-3.41,5.68-8.33,3.79-8.33,3.79a45.82,45.82,0,0,0-12.11.57c31.8,11.17,18.36,20.07,18.36,20.07-27.45-19.69-50.16-9.28-50.16-9.28,5.87-16.28,19.88-14.77,19.88-14.77a15.28,15.28,0,0,0-5.49-1.7c3.41-7,10.41-10.41,10.41-10.41,3.22-.95,3.79-2.46,3.79-2.46,10.22-18,42.59-32.18,42.59-32.18-8.14-1.89-17.79,2.84-17.79,2.84-7.38-4.16-9.65-15-9.65-15-14.58,8.71-20.63-14-20.63-14-9.84-33.31,1.52-53.95,1.52-53.95-10.6,10.41-10,35.59-10,35.59-15.52-1.89-19.12-34.36-19.12-34.36-7.38,24.14,5.68,28.68,15,52s-8,32.94-8,32.94c-34.45,13.91-56.69-37.76-56.69-37.76,6.25,45.15,27.16,54.8,27.16,54.8-3.6,8.9-14.76,17.6-14.76,17.6-14.39,9.47-34.83,4-34.83,4,10.22,14.77,27.64,12.87,27.64,12.87,14,1.14,42.64-24.23,42.64-24.23-10.08,12.35-26.69,23.85-26.69,23.85-8.8,6.53-13.2,5.39-13.2,5.39-25-1-36.63-18-36.63-18-4.92,27.12,9.09,40.08,9.09,40.08C838.75,1112,841,1104,841,1104c1.74,1,3.44,1.93,5.11,2.73-5.62,14.07-1.65,21.36-1.65,21.36a24.69,24.69,0,0,1,3.72,6.82l-3.58-2.32c-7.87-5.53-14.44-3.31-19.07.34-4.4-9.71-5.92-30.81-5.92-30.81a106.46,106.46,0,0,0-1.16,39.12c-.23.4-.35.63-.35.63a4.63,4.63,0,0,0-1.86,1.39c-6.24-24.09,1.24-55.06,1.24-55.06,2.84-10.36-.71-17.6-.71-17.6-2-5.4-1.84-12.5-1.84-12.5.52-9.3,7.79-8.67,11.72-7.64,2.14,10.59,4,21,4,21,3.41-7.67.47-30.29.47-30.29-5.39-37.48,4.64-62.84,4.64-62.84,20.59-57.2,58.78-67.17,66.54-68.63-4.89,7.69-6.29,12.75-6.29,12.75,34-44.91,84.14-59.76,84.15-59.76a148.72,148.72,0,0,0-10.67,15.69s60.2-66.73,108.75-30.1c0,0,56.64,43.74,71.46,109.38A121.23,121.23,0,0,0,1135.37,942c16.39,20.66,24.23,47.87,26.36,56.22l-22-6.39-5.11-6.82c-.85-6.53,3.41-22.57,3.41-22.57-2.41,2.84-6.39,11.92-6.39,11.92-12.78-33.79-37.19-37.76-37.19-37.76,23.57,15.33,28.39,35.92,28.39,35.92-13.35-19.17-27.26-12.64-27.26-12.64-40.6-12.49-56.5,23-56.5,23A67.17,67.17,0,0,0,1029,952c6.06,37.48-12.12,48.27-12.12,48.27a43.2,43.2,0,0,1-18-2.65,49.37,49.37,0,0,0,5.68,19.69c-11.74-3-14.39.76-14.39.76,51.3,14.76,18,49,18,49C987.34,1079.8,969.17,1063.71,969.17,1063.71Zm97.56-59.28c9.11,32.4,49,34.29,49,34.29-46.44,9.77-61.91-14.47-61.91-14.47-21.59-30.75-6.43-45.35-6.43-45.35-1.33,38,32.56,53.1,32.56,53.1-24.7-17.6-26.14-48.55-26.14-48.55,3.68-32.08,41.75-15.71,41.75-15.71,15.76,13.67,9.65,26.36,9.65,26.36-7.81,13.2-22.57,8.94-22.57,8.94-11.5-2.56-11.21-8.52-11.21-8.52,1.42-9.65,11.64-6.15,11.64-6.15C1061.54,977.39,1066.73,1004.43,1066.73,1004.43Zm8.07,68.44c4,3.67,13.06,8.11,13.06,8.11,2.46,9.7-3.22,27.43-3.22,27.43-5-15.62-14.31-13.47-14.31-13.47.45-27.26-6.51-34.83-6.51-34.83,2.84,16.09,0,33.69,0,33.69-.57-23.81-14.2-46.19-14.2-46.19-5.68-8.33,1.51-8.9,1.51-8.9,9.28,10,31.23,9.84,31.23,9.84-5.68,14.2-.57,16.47-.57,16.47a35.43,35.43,0,0,0,7.57,6.63c-10.22-.57-13.25-6.81-13.25-6.81-1.89-2.27-4.92-10.93-4.92-10.93C1071.2,1066.46,1074.79,1072.87,1074.79,1072.87Zm-25.17,42.32a11.84,11.84,0,0,0-6.11-3.55l-.14-11.64c.85-6.1-2.55-7.81-2.55-7.81-13.06-7.81-28.68-3.12-28.68-3.12,0-2.55-2.27-5.54-2.27-5.54,15.9,4.26,46.28-2.55,46.28-2.55,2.27,5.11,3.41,17.32,3.41,17.32l-8.09,10.11C1047.49,1112.56,1049.62,1115.19,1049.62,1115.19Zm-11.55-103s-13.06,1.14-22.15-1.13a47.71,47.71,0,0,0,27.26,21.2l4.25,3s-20.53,4.92-41.83-29.72c0,0,22.43,2.56,31.52,0C1037.13,1005.59,1036.94,1009.95,1038.07,1012.22Zm50.16,50s-1.23-9.18-1.33-14.24c0,0,2.94-.38,3.88-.57,0,0,4.54,5.3,5.49,8.71a27.6,27.6,0,0,1-4.79,4.83s.43,2.18,7.25,4.26a55.68,55.68,0,0,1,1.33,8.35S1091.78,1068.34,1088.23,1062.24Zm-69.85,51.53s-1.32,1.23-1.8-2c0,0-3.41-7.76-7.86-11.17,0,0-3-2.17-.76-4.45,0,0,6.72-7.1,25.36-.76,0,0,4.54.19,4.35,6.53v8.9s-4.93-.95-8.71,1.14c0,0-3.5,1.85-3.88-2.77,0,0-1.89-8.87-10.88-10.29C1014.22,1098.91,1019.61,1107.53,1018.39,1113.77Zm16.33,22.6s-7.52,2.24-13.35-1.45c0,0-7-1,1.7-9.51,0,0,8.38-8.24,16.75-6.81,0,0-11.64,3.26-13.77,9.94,0,0,.14,2.84,5.11-.43,0,0,6.25-4.4,9.23-3.83,0,0-5.82,1.56-7.24,5.39,0,0-.71,1.7,3.12.85,0,0,8.52-3.55,22.57,15.19C1058.85,1145.72,1045.08,1133.43,1034.71,1136.38Zm74.67-12.52c-4-.43-11.64,2.27-11.64,2.27,3.69-.29,11.64.71,11.64.71,10.65.14,10.65,10.93,10.65,10.93a6.79,6.79,0,0,1-3.12,7c-2.27,1.14-4.68,5-4.68,5-1.28,2.7-6.53,2.7-6.53,2.7-3.41-.43-9.65,1.85-9.65,1.85a8,8,0,0,1-8.23-2.27c-3.12-3-19.31-11.07-19.31-11.07a14.07,14.07,0,0,1-7.81-8.81c-.85-3-6.39-16.88-6.39-16.88a5.17,5.17,0,0,1,0-4.26c3.12-6.25,7.67-7.54,7.67-7.54,13.49-3.71,14.62,1.58,14.62,1.58,4.26,4.12,13.72,20.16,13.72,20.16.47-3.41-1.8-9.94-1.8-9.94,9.94-35.49,15.76-41.17,15.76-41.17,14.2-3,18.46.43,19.59,3.41s5.25,7.67,5.25,7.67C1118,1097.3,1109.39,1123.85,1109.39,1123.85Zm24.66-41.41-2.46-5.3c12.68-2.08,19.12-12.68,19.12-12.68a51.24,51.24,0,0,1-22.53,6.25c9.46-9.09,10.6-26.12,10.6-26.12a66,66,0,0,1-16.66,22.15c2.63-6.92,0-23.47,0-23.47-.38,14.58-6.25,22.34-6.25,22.34-3.22-.38-10.79,1.14-10.79,1.14-.6-7-5-20.25-5-20.25,17.7-2.08,24.89-10.6,24.89-10.6-19.69-2.46-30.48-8.33-30.48-8.33,13.63-3.22,7.38-12.3,7.38-12.3-2.84-6.81-8.38-.76-8.38-.76-1.94,1.13-13.2,3-13.2,3-4.73-4.35-7.38-13.63-7.38-13.63,11.74,8.9,25.74,2.84,25.74,2.84,24.42-15.33,5.49-39,5.49-39,9.84,1.32,25.74,16.28,31.23,23.66s19.12,13.44,19.12,13.44c-3.6-2.08-8.33-7.57-8.33-7.57,10.6,6.06,24.7,8,24.7,8,17.7.95,17.7,12.87,17.7,12.87,2.65,16.66-9.65,23.28-9.65,23.28-9.09,3.79-5.87,15.52-5.87,15.52.95,13.63-7.19,16-7.19,16C1157.33,1077.87,1134,1082.45,1134,1082.45Zm87.64,19.83c-44.15,2.27-55.94-22.15-55.94-22.15l3.69-.71c13.06,17.6,40,17.18,40,17.18-2.56-1.42-6-8-6-8a55,55,0,0,0,7.67,2.28C1212.88,1096.32,1221.68,1102.27,1221.68,1102.27ZM1254.9,1080c-57.07,23.57-74.82-25.41-74.82-25.41a7.52,7.52,0,0,1,.71-7c15.33,31.43,43.73,34.91,43.73,34.91-30.38-14.29-35.59-42.5-35.59-42.5,9.27-8.52,5.49-22.15,5.49-22.15,13.23,10.12,2.56,13.06,15.9,39.18S1254.9,1080,1254.9,1080Z" transform="translate(-744.38 -829.3)"/></svg>