<svg id="Layer_1" data-name="Layer 1" xmlns="http://www.w3.org/2000/svg" viewBox="0 0 610.02 498.66"><defs><style>.cls-1{fill:#010101;}.cls-2{fill:#fff;}</style></defs><title>19</title><path class="cls-1" d="M1155.7,750.33c-2.59.09-3,.51-3.32,3.09,157.44,135.5,30,162.54-30.28,162.54,0,.52,0,1-.07,1.55-16.53-11.87-44.79-7.51-66.6-9.36-32.88-2.78-38.07-27.76-53.61-28h-.76c-15.53.26-20.73,25.24-53.61,28-22.6,1.92-52.13-2.83-68.35,10.71,0-1-.05-1.92-.12-2.9-60.26,0-187.72-27-30.28-162.54-.28-2.58-.73-3-3.32-3.09-251.92,123.6-141.29,259.57,5.17,259.57-.5-20.68,8.68-36.41,16.77-52,1.93,49.16,8.43,33-3.69,69.93-7.71,23.5-21,45.88,18.12,81s39.33,30.11,48.7,44.17c5.66,8.5-26.33,20.39,8.5,50.69s38.8,10.19,39.64,4.53-9.91,5.81-22.65-6.08-21.88-36,7-45.87c28.17-9.67,14.23,27.64,37,29.3v.15a9.16,9.16,0,0,1,1-.06l.38,0,.38,0a9.13,9.13,0,0,1,1,.06v-.15c22.79-1.66,9-39,37.13-29.3,28.88,9.91,19.75,34,7,45.87s-23.5.42-22.65,6.08,4.81,25.77,39.64-4.53,2.83-42.19,8.5-50.69c9.38-14.06,9.63-9.06,48.7-44.17s25.84-57.5,18.13-81c-11.85-36.09-5.9-21.47-3.83-66.73,7.63,14.6,15.58,29.58,15.11,48.84C1297,1009.9,1407.61,873.94,1155.7,750.33Zm-207,315.27c-5-.42-10-6-12-8.63-6.65-8.64-24.07,3.25-36.69-16.35-5.63-8.74-1.43-23.54-5.22-30.1-1.17-2-1.41-3.85,2-2.26,13.31,6.23,22.23,3.54,32.76,13.56,18.62,17.71,7.21,35.81,20.48,41.1C952.94,1064.08,951.3,1065.82,948.72,1065.6Zm158.37-55.08c-3.8,6.55.41,21.36-5.23,30.1-12.62,19.6-30,7.71-36.69,16.35-2,2.59-7.08,8.21-12,8.63-2.58.22-4.22-1.52-1.28-2.69,13.27-5.29,1.86-23.39,20.48-41.1,10.53-10,19.45-7.33,32.76-13.56C1108.5,1006.66,1108.26,1008.5,1107.09,1010.52ZM979.73,1198c-28.17,3-30.16-22.44-15.29-30,12.13-6.19,18.12,15,32.56,19a13.81,13.81,0,0,0,8.86,0c14.45-4,20.44-25.16,32.57-19,14.87,7.57,12.87,33.06-15.29,30-10.14-1.1-7.36,18.15-22.05,17.27C986.4,1216.13,989.87,1196.88,979.73,1198Zm58.74,50.85c-12.37,1.52-13.49-8.5-36.1-7.46h-1.86c-22.6-1-23.72,9-36.1,7.46-12.71-1.56-6.11-27.32-2.64-24.56s6.22,4.61,14.52,4.89c8.69.28,8.25-15.23,12-15.23,3.5,0,4.13,3.88,12.82,3.88s9.88-3.88,13.38-3.88c3.8,0,1.65,14.17,11.55,14.17s11.55-1.06,15-3.82S1051.17,1247.27,1038.46,1248.83Z" transform="translate(-695.52 -750.33)"/><path class="cls-2" d="M757.19,960.36c21.39,13.39,50.5,22.09,86.53,25.88l-1.61,5.84c-92.47-9.41-117.2-51.33-123.71-75.6a79.73,79.73,0,0,1-2.47-26.31,76.94,76.94,0,0,0,3.46,24C725.22,932.78,737.94,948.32,757.19,960.36Zm530.64-70.19a77,77,0,0,1-3.46,24c-5.83,18.59-18.55,34.13-37.8,46.17-21.39,13.39-50.5,22.09-86.54,25.88l1.61,5.84c92.46-9.41,117.2-51.33,123.71-75.6A79.75,79.75,0,0,0,1287.83,890.17Zm-167,69c-4.81,12.83-67.75,3.61-83.38,8s-36.88,38.48-36.88,38.48-20.83-34.07-36.46-38.48-78.57,4.81-83.38-8c4.81,12.83,67.75,6.18,83.38,10.59s36.46,38.48,36.46,38.48,21.25-34.07,36.88-38.48S1116,972,1120.79,959.22ZM880.69,1059c0,32.17,68.65,63.11,68.65,83.28C949.34,1117.92,880.69,1086.05,880.69,1059Zm171.45,83.28c0-20.17,68.65-51.11,68.65-83.28C1120.79,1086.05,1052.14,1117.92,1052.14,1142.27Zm46-158.52c7,14.26-68.58,32.54-51.94,66.55C1031.08,1020.7,1106.54,1001,1098.1,983.75Zm-142.8,66.55c16.63-34-58.93-52.29-51.94-66.55C894.91,1001,970.37,1020.7,955.29,1050.3Zm-1.6,99.33c35-14.49-9.58-78.2,5.1-84.27C941.06,1072.69,984.58,1137.41,953.69,1149.63Zm89.41-84.27c14.68,6.06-29.88,69.78,5.1,84.27C1017.3,1137.41,1060.82,1072.69,1043.1,1065.36Z" transform="translate(-695.52 -750.33)"/></svg>