<?xml version="1.0" encoding="UTF-8"?>
<!DOCTYPE svg PUBLIC "-//W3C//DTD SVG 1.1//EN" "http://www.w3.org/Graphics/SVG/1.1/DTD/svg11.dtd">
<!-- Creator: CorelDRAW X7 -->
<svg xmlns="http://www.w3.org/2000/svg" xml:space="preserve" width="0.509252in" height="0.900606in" version="1.1" style="shape-rendering:geometricPrecision; text-rendering:geometricPrecision; image-rendering:optimizeQuality; fill-rule:evenodd; clip-rule:evenodd"
viewBox="0 0 146 257"
 xmlns:xlink="http://www.w3.org/1999/xlink">
 <defs>
  <style type="text/css">
   <![CDATA[
    .fil1 {fill:white;fill-rule:nonzero}
    .fil0 {fill:#454545;fill-rule:nonzero}
   ]]>
  </style>
 </defs>
 <g id="__x0023_Layer_x0020_1">
  <metadata id="CorelCorpID_0Corel-Layer"/>
  <path class="fil0" d="M74 0c-28,-1 -53,18 -62,45l0 0c0,0 0,1 0,1 0,2 1,4 4,4 1,0 3,-1 4,-2l0 0c7,-24 29,-41 54,-40 25,1 45,18 50,42l0 0c0,1 2,3 4,3 2,0 4,-2 4,-4 0,-1 0,-1 0,-1l0 0c-6,-27 -29,-47 -58,-48z"/>
  <path class="fil0" d="M50 59l0 0c0,0 0,0 0,1 0,2 2,4 4,4 2,0 3,-1 4,-3l0 0c0,-7 7,-12 14,-12 7,0 12,5 13,12 0,0 0,0 0,0 0,0 0,0 0,0l0 0c0,2 1,3 3,3 2,0 4,-1 4,-3 0,-1 0,-1 0,-2l0 0c-1,-10 -9,-18 -20,-18 -10,0 -20,7 -22,18z"/>
  <path class="fil0" d="M73 20c-19,0 -37,13 -42,32l0 0c0,0 0,1 0,1 0,2 1,4 3,4 2,0 4,-1 4,-3 5,-15 19,-26 35,-26 16,1 28,12 31,27 0,0 0,0 1,0 0,0 0,1 0,1l0 0c0,1 1,2 3,2 2,0 4,-1 4,-4 0,0 0,0 0,-1l0 0c-3,-18 -19,-32 -39,-33z"/>
  <path class="fil0" d="M146 246c0,6 -6,11 -12,11l-122 0c-7,0 -12,-5 -12,-11l0 -167c0,-7 5,-12 12,-12l122 0c6,0 12,5 12,12l0 167z"/>
  <path class="fil1" d="M130 131c0,30 -25,55 -55,55 -31,0 -56,-25 -56,-55 0,-31 25,-55 56,-55 30,0 55,24 55,55z"/>
  <path class="fil0" d="M93 131c0,10 -8,19 -18,19 -11,0 -19,-9 -19,-19 0,-11 8,-19 19,-19 10,0 18,8 18,19z"/>
  <path class="fil1" d="M44 231c0,5 -4,9 -9,9 -4,0 -8,-4 -8,-9 0,-4 4,-8 8,-8 5,0 9,4 9,8z"/>
  <path class="fil1" d="M81 231c0,5 -4,9 -8,9 -5,0 -8,-4 -8,-9 0,-4 3,-8 8,-8 4,0 8,4 8,8z"/>
  <path class="fil1" d="M121 231c0,5 -3,9 -8,9 -4,0 -8,-4 -8,-9 0,-4 4,-8 8,-8 5,0 8,4 8,8z"/>
 </g>
</svg>
