<?xml version="1.0" encoding="UTF-8"?>
<!DOCTYPE svg PUBLIC "-//W3C//DTD SVG 1.1//EN" "http://www.w3.org/Graphics/SVG/1.1/DTD/svg11.dtd">
<!-- Creator: CorelDRAW X7 -->
<svg xmlns="http://www.w3.org/2000/svg" xml:space="preserve" width="15.0848in" height="8.40799in" version="1.1" style="shape-rendering:geometricPrecision; text-rendering:geometricPrecision; image-rendering:optimizeQuality; fill-rule:evenodd; clip-rule:evenodd"
viewBox="0 0 127892 71284"
 xmlns:xlink="http://www.w3.org/1999/xlink">
 <defs>
  <style type="text/css">
   <![CDATA[
    .fil1 {fill:#FEFEFE}
    .fil2 {fill:#F1F1F2}
    .fil0 {fill:#373435}
   ]]>
  </style>
 </defs>
 <g id="Layer_x0020_1">
  <metadata id="CorelCorpID_0Corel-Layer"/>
  <path class="fil0" d="M29042 2345c0,-1295 -1050,-2345 -2345,-2345l-6494 0c-1295,0 -2345,1050 -2345,2345l0 902 11184 0 0 -902z"/>
  <path class="fil0" d="M113100 4424l-84058 0 -11184 0 -3066 0c-8170,0 -14792,6623 -14792,14792l0 37277c0,8168 6622,14791 14791,14791l98309 0c8169,0 14792,-6623 14792,-14791l0 -37277c0,-8169 -6623,-14792 -14792,-14792z"/>
  <path class="fil0" d="M95441 37854c0,14506 -11759,26264 -26264,26264 -14505,0 -26264,-11758 -26264,-26264 0,-14505 11759,-26264 26264,-26264 14506,0 26264,11759 26264,26264z"/>
  <path class="fil1" d="M69177 67315c-16245,0 -29461,-13216 -29461,-29461 0,-16244 13216,-29460 29461,-29460 16245,0 29461,13216 29461,29460 0,16245 -13216,29461 -29461,29461zm0 -52528c-12719,0 -23067,10348 -23067,23067 0,12720 10348,23068 23067,23068 12720,0 23068,-10348 23068,-23068 0,-12719 -10348,-23067 -23068,-23067z"/>
  <path class="fil1" d="M81315 37854c0,-6703 -5434,-12138 -12138,-12138 -6704,0 -12138,5435 -12138,12138 0,6704 5434,12138 12138,12138 6704,0 12138,-5434 12138,-12138z"/>
  <path class="fil2" d="M115085 13697c0,1395 -1131,2526 -2526,2526l-12987 0c-1395,0 -2526,-1131 -2526,-2526l0 -2959c0,-1395 1131,-2525 2526,-2525l12987 0c1395,0 2526,1130 2526,2525l0 2959z"/>
  <path class="fil0" d="M77596 37854c0,4650 -3769,8419 -8419,8419 -4650,0 -8419,-3769 -8419,-8419 0,-4649 3769,-8419 8419,-8419 4650,0 8419,3770 8419,8419z"/>
  <path class="fil1" d="M93722 9310c0,1130 -916,2045 -2045,2045 -1130,1 -2046,-915 -2046,-2045 0,-1130 916,-2046 2046,-2046 1129,1 2045,916 2045,2046z"/>
 </g>
</svg>
