<?xml version="1.0" encoding="UTF-8"?>
<!DOCTYPE svg PUBLIC "-//W3C//DTD SVG 1.1//EN" "http://www.w3.org/Graphics/SVG/1.1/DTD/svg11.dtd">
<!-- Creator: CorelDRAW X7 -->
<svg xmlns="http://www.w3.org/2000/svg" xml:space="preserve" width="2.76138in" height="2.09852in" version="1.1" style="shape-rendering:geometricPrecision; text-rendering:geometricPrecision; image-rendering:optimizeQuality; fill-rule:evenodd; clip-rule:evenodd"
viewBox="0 0 2911 2212"
 xmlns:xlink="http://www.w3.org/1999/xlink">
 <defs>
  <style type="text/css">
   <![CDATA[
    .fil2 {fill:#032D4F;fill-rule:nonzero}
    .fil0 {fill:#23A8BF;fill-rule:nonzero}
    .fil3 {fill:#F9F9F9;fill-rule:nonzero}
    .fil1 {fill:#FF704D;fill-rule:nonzero}
    .fil4 {fill:#FFD359;fill-rule:nonzero}
   ]]>
  </style>
 </defs>
 <g id="Objects">
  <metadata id="CorelCorpID_0Corel-Layer"/>
  <path class="fil0" d="M1726 1847l-271 0 -270 0c0,0 49,296 -172,327l442 0 442 0c-221,-31 -171,-327 -171,-327z"/>
  <polygon class="fil1" points="1924,2212 987,2212 987,2155 1924,2155 "/>
  <path class="fil2" d="M2911 1800c0,36 -29,64 -65,64l-2782 0c-35,0 -64,-28 -64,-64l0 -1736c0,-35 29,-64 64,-64l2782 0c36,0 65,29 65,64l0 1736z"/>
  <polygon class="fil3" points="2837,1575 64,1575 64,68 2837,68 "/>
  <path class="fil4" d="M0 1652l0 148c0,36 29,64 64,64l2782 0c36,0 65,-28 65,-64l0 -148 -2911 0z"/>
 </g>
</svg>
