<?xml version="1.0" encoding="UTF-8"?>
<!DOCTYPE svg PUBLIC "-//W3C//DTD SVG 1.1//EN" "http://www.w3.org/Graphics/SVG/1.1/DTD/svg11.dtd">
<!-- Creator: CorelDRAW X7 -->
<svg xmlns="http://www.w3.org/2000/svg" xml:space="preserve" width="1.60563in" height="1.23029in" version="1.1" style="shape-rendering:geometricPrecision; text-rendering:geometricPrecision; image-rendering:optimizeQuality; fill-rule:evenodd; clip-rule:evenodd"
viewBox="0 0 577 442"
 xmlns:xlink="http://www.w3.org/1999/xlink">
 <defs>
  <style type="text/css">
   <![CDATA[
    .fil0 {fill:#B7E4F9;fill-rule:nonzero}
    .fil1 {fill:#B7E4F9;fill-rule:nonzero;fill-opacity:0.200000}
   ]]>
  </style>
 </defs>
 <g id="__x0023_Layer_x0020_2">
  <metadata id="CorelCorpID_0Corel-Layer"/>
  <path class="fil0" d="M284 254c-93,-1 -128,72 -128,72l43 34c0,0 30,-48 87,-47 57,2 95,43 95,43l39 -39c0,0 -46,-62 -136,-63z"/>
  <path class="fil0" d="M282 135c-150,0 -218,119 -218,119l49 34c0,0 64,-95 171,-93 122,2 187,88 187,88l42 -36c0,0 -72,-113 -231,-112z"/>
  <path class="fil0" d="M281 0c-194,1 -281,154 -281,154l63 44c0,0 83,-122 219,-120 158,2 241,112 241,112l54 -45c0,0 -92,-146 -296,-145z"/>
  <path class="fil0" d="M291 343c-28,0 -50,22 -50,49 0,28 22,50 50,50 27,0 50,-22 50,-50 0,-27 -23,-49 -50,-49z"/>
  <path class="fil1" d="M321 369c9,15 6,33 -7,41 -13,8 -32,3 -41,-12 -9,-15 -6,-34 7,-42 14,-8 32,-2 41,13z"/>
 </g>
</svg>
