<?xml version="1.0" encoding="UTF-8"?>
<!DOCTYPE svg PUBLIC "-//W3C//DTD SVG 1.1//EN" "http://www.w3.org/Graphics/SVG/1.1/DTD/svg11.dtd">
<!-- Creator: CorelDRAW X7 -->
<svg xmlns="http://www.w3.org/2000/svg" xml:space="preserve" width="0.541996in" height="0.671886in" version="1.1" style="shape-rendering:geometricPrecision; text-rendering:geometricPrecision; image-rendering:optimizeQuality; fill-rule:evenodd; clip-rule:evenodd"
viewBox="0 0 182 225"
 xmlns:xlink="http://www.w3.org/1999/xlink">
 <defs>
  <style type="text/css">
   <![CDATA[
    .fil0 {fill:#454545;fill-rule:nonzero}
   ]]>
  </style>
 </defs>
 <g id="__x0023_Layer_x0020_1">
  <metadata id="CorelCorpID_0Corel-Layer"/>
  <path class="fil0" d="M40 53l0 140c0,18 16,32 36,32l69 0c20,0 37,-14 37,-32l0 -140 -142 0zm41 143l0 0c0,5 -3,8 -7,8 -4,0 -8,-3 -8,-8l0 -111c0,-4 4,-8 8,-8 4,0 7,4 7,8l0 111zm37 0l0 0c0,5 -3,8 -7,8 -4,0 -7,-3 -7,-8l0 -111c0,-4 3,-8 7,-8 4,0 7,4 7,8l0 111zm37 0l0 0c0,5 -3,8 -7,8 -4,0 -7,-3 -7,-8l0 -111c0,-4 3,-8 7,-8 4,0 7,4 7,8l0 111z"/>
  <path class="fil0" d="M147 0l-43 12c-3,-8 -16,-11 -30,-7 -14,4 -23,13 -22,21l-46 13c-5,1 -7,7 -5,14 1,7 7,11 12,10l141 -39c5,-1 8,-7 6,-14 -2,-7 -8,-11 -13,-10z"/>
 </g>
</svg>
