<?xml version="1.0" encoding="UTF-8"?>
<!DOCTYPE svg PUBLIC "-//W3C//DTD SVG 1.1//EN" "http://www.w3.org/Graphics/SVG/1.1/DTD/svg11.dtd">
<!-- Creator: CorelDRAW X7 -->
<svg xmlns="http://www.w3.org/2000/svg" xml:space="preserve" width="2.35127in" height="2.12429in" version="1.1" style="shape-rendering:geometricPrecision; text-rendering:geometricPrecision; image-rendering:optimizeQuality; fill-rule:evenodd; clip-rule:evenodd"
viewBox="0 0 1236 1117"
 xmlns:xlink="http://www.w3.org/1999/xlink">
 <defs>
  <style type="text/css">
   <![CDATA[
    .fil2 {fill:#032D4F;fill-rule:nonzero}
    .fil3 {fill:#23A8BF;fill-rule:nonzero}
    .fil4 {fill:#F9F9F9;fill-rule:nonzero}
    .fil0 {fill:#FF704D;fill-rule:nonzero}
    .fil6 {fill:#FFD359;fill-rule:nonzero}
    .fil1 {fill:#909090;fill-rule:nonzero}
    .fil5 {fill:#A8A8A8;fill-rule:nonzero}
   ]]>
  </style>
 </defs>
 <g id="Objects">
  <metadata id="CorelCorpID_0Corel-Layer"/>
  <path class="fil0" d="M349 1070c0,26 -21,47 -47,47l-255 0c-26,0 -47,-21 -47,-47l0 -567c0,-26 21,-47 47,-47l255 0c26,0 47,21 47,47l0 567z"/>
  <path class="fil1" d="M203 1057c0,16 -13,29 -29,29 -15,0 -28,-13 -28,-29 0,-16 13,-29 28,-29 16,0 29,13 29,29z"/>
  <path class="fil0" d="M186 1057c0,6 -5,12 -12,12 -6,0 -11,-6 -11,-12 0,-6 5,-11 11,-11 7,0 12,5 12,11z"/>
  <path class="fil2" d="M182 483c0,4 -3,8 -7,8 -5,0 -8,-4 -8,-8 0,-4 3,-8 8,-8 4,0 7,4 7,8z"/>
  <polygon class="fil2" points="308,1006 41,1006 41,538 308,538 "/>
  <path class="fil3" d="M1236 1088c0,15 -12,28 -27,28l-722 1c-15,0 -28,-12 -28,-27l-2 -1061c0,-15 12,-28 27,-28l723 -1c15,0 27,12 27,27l2 1061z"/>
  <polygon class="fil4" points="1183,960 511,960 511,74 1183,74 "/>
  <path class="fil5" d="M900 1031c0,29 -23,52 -52,52 -29,0 -52,-23 -52,-52 0,-28 23,-52 52,-52 28,0 52,23 52,52z"/>
  <path class="fil6" d="M868 1031c0,11 -9,21 -20,21 -12,0 -21,-9 -21,-21 0,-11 9,-20 21,-20 11,0 20,9 20,20z"/>
  <path class="fil2" d="M860 40c0,8 -6,14 -14,14 -8,0 -15,-6 -15,-14 0,-8 7,-14 15,-14 8,0 14,6 14,14z"/>
 </g>
</svg>
