<?xml version="1.0" encoding="UTF-8"?>
<!DOCTYPE svg PUBLIC "-//W3C//DTD SVG 1.1//EN" "http://www.w3.org/Graphics/SVG/1.1/DTD/svg11.dtd">
<!-- Creator: CorelDRAW X7 -->
<svg xmlns="http://www.w3.org/2000/svg" xml:space="preserve" width="0.360835in" height="0.795902in" version="1.1" style="shape-rendering:geometricPrecision; text-rendering:geometricPrecision; image-rendering:optimizeQuality; fill-rule:evenodd; clip-rule:evenodd"
viewBox="0 0 20 43"
 xmlns:xlink="http://www.w3.org/1999/xlink">
 <defs>
  <style type="text/css">
   <![CDATA[
    .fil0 {fill:#454545;fill-rule:nonzero}
   ]]>
  </style>
 </defs>
 <g id="__x0023_Layer_x0020_1">
  <metadata id="CorelCorpID_0Corel-Layer"/>
  <path class="fil0" d="M20 39c0,2 -2,4 -5,4l-11 0c-2,0 -4,-2 -4,-4l0 -29 3 0 0 -8c0,-1 1,-2 2,-2l4 0 1 0 5 0c1,0 2,1 2,2l0 8 3 0 0 29zm-8 -33l0 0c0,1 0,1 1,1l1 0c1,0 1,0 1,-1l0 -1c0,-1 0,-1 -1,-1l-1 0c-1,0 -1,0 -1,1l0 1zm-8 0l0 0c0,1 1,1 1,1l2 0c0,0 1,0 1,-1l0 -1c0,-1 -1,-1 -1,-1l-2 0c0,0 -1,0 -1,1l0 1zm12 14l0 0 -3 0 0 3 1 0c-1,3 -2,4 -3,5l0 -9 2 0 -3 -3 -2 3 2 0 0 10c-2,0 -3,-2 -4,-5 1,0 1,-1 1,-2 0,-1 -1,-1 -1,-1 -1,0 -2,0 -2,1 0,1 0,2 1,2 1,3 3,6 5,6l0 2c-1,0 -1,0 -1,1 0,1 0,2 1,2 1,0 2,-1 2,-2 0,-1 0,-1 -1,-1l0 -3c2,-1 3,-3 4,-6l1 0 0 -3z"/>
 </g>
</svg>
