<?xml version="1.0" encoding="UTF-8"?>
<!DOCTYPE svg PUBLIC "-//W3C//DTD SVG 1.1//EN" "http://www.w3.org/Graphics/SVG/1.1/DTD/svg11.dtd">
<!-- Creator: CorelDRAW X7 -->
<svg xmlns="http://www.w3.org/2000/svg" xml:space="preserve" width="0.710028in" height="0.555433in" version="1.1" style="shape-rendering:geometricPrecision; text-rendering:geometricPrecision; image-rendering:optimizeQuality; fill-rule:evenodd; clip-rule:evenodd"
viewBox="0 0 143 112"
 xmlns:xlink="http://www.w3.org/1999/xlink">
 <defs>
  <style type="text/css">
   <![CDATA[
    .fil0 {fill:#454545;fill-rule:nonzero}
   ]]>
  </style>
 </defs>
 <g id="__x0023_Layer_x0020_1">
  <metadata id="CorelCorpID_0Corel-Layer"/>
  <path class="fil0" d="M122 28c3,0 5,1 7,2 0,0 0,0 0,1 3,1 4,4 4,7 0,0 0,1 0,1l0 54c0,1 0,2 1,3 1,0 3,0 4,-1 2,-1 3,-3 4,-4 1,-2 1,-4 1,-6l0 -53c0,-1 0,-2 0,-2 0,-4 -2,-7 -6,-8 0,0 0,0 0,-1 0,0 -1,0 -1,0 -2,0 -3,0 -5,0l-48 0c-5,-1 -10,-3 -12,-6 -3,-2 -6,-5 -9,-9 -4,-4 -9,-6 -14,-6l-19 0c-7,0 -12,4 -12,12l0 16 105 0zm-122 19l0 0 0 53c0,8 4,12 12,12l101 0c6,0 10,-2 11,-6 1,-1 1,-3 1,-5l0 -54c0,0 0,-1 0,-1 0,-7 -4,-10 -12,-10l-101 0c-3,0 -5,1 -7,1 -3,2 -5,5 -5,10z"/>
 </g>
</svg>
