<?xml version="1.0" encoding="UTF-8"?>
<!DOCTYPE svg PUBLIC "-//W3C//DTD SVG 1.1//EN" "http://www.w3.org/Graphics/SVG/1.1/DTD/svg11.dtd">
<!-- Creator: CorelDRAW X7 -->
<svg xmlns="http://www.w3.org/2000/svg" xml:space="preserve" width="4.13889in" height="2.56944in" version="1.1" style="shape-rendering:geometricPrecision; text-rendering:geometricPrecision; image-rendering:optimizeQuality; fill-rule:evenodd; clip-rule:evenodd"
viewBox="0 0 12334 7657"
 xmlns:xlink="http://www.w3.org/1999/xlink">
 <defs>
  <style type="text/css">
   <![CDATA[
    .fil3 {fill:#008077;fill-rule:nonzero}
    .fil5 {fill:#00A89C;fill-rule:nonzero}
    .fil4 {fill:#21C6BA;fill-rule:nonzero}
    .fil0 {fill:#4D4D4D;fill-rule:nonzero}
    .fil2 {fill:#B3B3B3;fill-rule:nonzero}
    .fil1 {fill:#F2F2F2;fill-rule:nonzero}
   ]]>
  </style>
 </defs>
 <g id="objects">
  <metadata id="CorelCorpID_0Corel-Layer"/>
  <path class="fil0" d="M3187 6405c0,208 -208,383 -417,383l-2387 0c-209,0 -383,-175 -383,-383l0 -5153c0,-208 174,-383 383,-383l2387 0c209,0 417,175 417,383l0 5153z"/>
  <path class="fil0" d="M3187 6405c0,208 -208,383 -417,383l-2387 0c-209,0 -383,-175 -383,-383l0 -5153c0,-208 174,-383 383,-383l2387 0c209,0 417,175 417,383l0 5153z"/>
  <polygon class="fil1" points="2939,5919 248,5919 248,1614 2939,1614 "/>
  <path class="fil2" d="M1805 6357c0,126 -102,228 -229,228 -126,0 -228,-102 -228,-228 0,-126 102,-229 228,-229 127,0 229,103 229,229z"/>
  <path class="fil2" d="M2111 1304c0,34 -28,62 -62,62l-1118 0c-34,0 -62,-28 -62,-62 0,-35 28,-62 62,-62l1118 0c34,0 62,27 62,62z"/>
  <polygon class="fil3" points="2442,2773 745,2773 745,2359 2442,2359 "/>
  <polygon class="fil3" points="2069,2152 1076,2152 1076,1987 2069,1987 "/>
  <polygon class="fil4" points="2442,5546 745,5546 745,4801 2442,4801 "/>
  <polygon class="fil5" points="2442,4180 745,4180 745,2980 2442,2980 "/>
  <polygon class="fil3" points="2276,4387 911,4387 911,4304 2276,4304 "/>
  <polygon class="fil3" points="2442,4636 745,4636 745,4511 2442,4511 "/>
  <path class="fil0" d="M12334 6405c0,208 -209,383 -417,383l-2388 0c-208,0 -382,-175 -382,-383l0 -5153c0,-208 174,-383 382,-383l2388 0c208,0 417,175 417,383l0 5153z"/>
  <path class="fil0" d="M12334 6405c0,208 -209,383 -417,383l-2388 0c-208,0 -382,-175 -382,-383l0 -5153c0,-208 174,-383 382,-383l2388 0c208,0 417,175 417,383l0 5153z"/>
  <polygon class="fil1" points="12086,5919 9395,5919 9395,1614 12086,1614 "/>
  <path class="fil2" d="M10952 6357c0,126 -103,228 -229,228 -126,0 -228,-102 -228,-228 0,-126 102,-229 228,-229 126,0 229,103 229,229z"/>
  <path class="fil2" d="M11258 1304c0,34 -28,62 -62,62l-1118 0c-34,0 -62,-28 -62,-62 0,-35 28,-62 62,-62l1118 0c34,0 62,27 62,62z"/>
  <polygon class="fil3" points="11589,2773 9892,2773 9892,2359 11589,2359 "/>
  <polygon class="fil3" points="11216,2152 10223,2152 10223,1987 11216,1987 "/>
  <polygon class="fil4" points="11589,5546 9892,5546 9892,4801 11589,4801 "/>
  <polygon class="fil5" points="11589,4180 9892,4180 9892,2980 11589,2980 "/>
  <polygon class="fil3" points="11423,4387 10057,4387 10057,4304 11423,4304 "/>
  <polygon class="fil3" points="11589,4636 9892,4636 9892,4511 11589,4511 "/>
  <path class="fil0" d="M8278 7148c0,269 -259,509 -528,509l-3077 0c-268,0 -493,-240 -493,-509l0 -6639c0,-269 225,-509 493,-509l3077 0c269,0 528,240 528,509l0 6639z"/>
  <path class="fil0" d="M8278 7148c0,269 -259,509 -528,509l-3077 0c-268,0 -493,-240 -493,-509l0 -6639c0,-269 225,-509 493,-509l3077 0c269,0 528,240 528,509l0 6639z"/>
  <polygon class="fil1" points="7988,6539 4470,6539 4470,952 7988,952 "/>
  <path class="fil2" d="M6506 7086c0,163 -132,295 -294,295 -163,0 -294,-132 -294,-295 0,-162 131,-294 294,-294 162,0 294,132 294,294z"/>
  <path class="fil2" d="M6912 585c0,43 -35,77 -77,77l-1460 0c-43,0 -77,-34 -77,-77l0 -11c0,-43 34,-77 77,-77l1460 0c42,0 77,34 77,77l0 11z"/>
  <polygon class="fil3" points="7326,2483 5132,2483 5132,1945 7326,1945 "/>
  <polygon class="fil3" points="6829,1656 5546,1656 5546,1449 6829,1449 "/>
  <polygon class="fil4" points="7326,6043 5132,6043 5132,5091 7326,5091 "/>
  <polygon class="fil5" points="7326,4263 5132,4263 5132,2732 7326,2732 "/>
  <polygon class="fil3" points="7077,4553 5381,4553 5381,4429 7077,4429 "/>
  <polygon class="fil3" points="7326,4884 5132,4884 5132,4677 7326,4677 "/>
 </g>
</svg>
