<?xml version="1.0" encoding="UTF-8"?>
<!DOCTYPE svg PUBLIC "-//W3C//DTD SVG 1.1//EN" "http://www.w3.org/Graphics/SVG/1.1/DTD/svg11.dtd">
<!-- Creator: CorelDRAW X7 -->
<svg xmlns="http://www.w3.org/2000/svg" xml:space="preserve" width="1.79123in" height="1.51156in" version="1.1" style="shape-rendering:geometricPrecision; text-rendering:geometricPrecision; image-rendering:optimizeQuality; fill-rule:evenodd; clip-rule:evenodd"
viewBox="0 0 638 538"
 xmlns:xlink="http://www.w3.org/1999/xlink">
 <defs>
  <style type="text/css">
   <![CDATA[
    .fil0 {fill:#032D4F;fill-rule:nonzero}
    .fil1 {fill:#23A8BF;fill-rule:nonzero}
    .fil3 {fill:#FF704C;fill-rule:nonzero}
    .fil2 {fill:#FFD359;fill-rule:nonzero}
   ]]>
  </style>
 </defs>
 <g id="Objects">
  <metadata id="CorelCorpID_0Corel-Layer"/>
  <path class="fil0" d="M340 509l0 -112 24 -18 -2 -36 -22 0 0 -36 39 -37 0 -122c0,-8 7,-15 15,-15l228 0c9,0 16,7 16,15l0 375c0,8 -7,15 -16,15l-219 0 -9 0 -25 0c-30,0 -29,-29 -29,-29z"/>
  <path class="fil1" d="M622 538l-219 0 -9 0 -25 0c-30,0 -29,-29 -29,-29l0 -14c128,-26 250,-9 298,0l0 28c0,8 -7,15 -16,15z"/>
  <polygon class="fil2" points="422,245 401,245 401,171 422,171 "/>
  <polygon class="fil2" points="449,245 429,245 429,171 449,171 "/>
  <polygon class="fil2" points="477,245 456,245 456,171 477,171 "/>
  <polygon class="fil2" points="505,245 484,245 484,161 505,161 "/>
  <polygon class="fil2" points="532,245 511,245 511,171 532,171 "/>
  <polygon class="fil2" points="560,245 539,245 539,161 560,161 "/>
  <polygon class="fil2" points="587,245 567,245 567,171 587,171 "/>
  <polygon class="fil2" points="615,245 594,245 594,171 615,171 "/>
  <path class="fil0" d="M298 376l0 -112 -24 -18 2 -36 22 0 0 -36 -39 -37 0 -122c0,-8 -7,-15 -15,-15l-229 0c-8,0 -15,7 -15,15l0 375c0,9 7,16 15,16l220 0 9 0 25 0c30,0 29,-30 29,-30z"/>
  <path class="fil1" d="M15 406l220 0 9 0 25 0c30,0 29,-30 29,-30l0 -13c-128,-27 -250,-9 -298,0l0 27c0,9 7,16 15,16z"/>
  <path class="fil3" d="M87 227l-9 0 0 -57c-3,2 -5,4 -9,6 -3,2 -7,4 -9,5l0 -9c5,-2 9,-5 13,-8 4,-4 6,-7 8,-10l6 0 0 73zm69 -55l-9 1c0,-4 -2,-6 -3,-8 -2,-2 -5,-4 -9,-4 -3,0 -5,1 -8,3 -2,2 -5,5 -6,9 -2,4 -3,9 -3,17 2,-4 5,-6 8,-8 3,-1 6,-2 10,-2 6,0 11,2 15,7 4,4 6,10 6,17 0,4 0,8 -2,12 -2,4 -5,7 -9,9 -3,2 -7,4 -11,4 -8,0 -14,-3 -19,-9 -4,-5 -7,-14 -7,-27 0,-14 3,-24 8,-31 5,-5 11,-8 19,-8 5,0 10,2 14,5 3,3 6,7 6,13zm-36 32c0,3 0,6 2,9 1,2 3,4 5,6 2,1 5,2 7,2 4,0 8,-1 10,-4 3,-3 4,-8 4,-13 0,-5 -1,-9 -4,-12 -2,-3 -6,-4 -10,-4 -4,0 -7,1 -10,4 -3,3 -4,7 -4,12z"/>
  <path class="fil3" d="M165 197l0 -5 20 0 0 17c-3,2 -6,4 -10,5 -3,1 -6,2 -9,2 -5,0 -9,-1 -13,-3 -3,-2 -6,-5 -8,-8 -2,-4 -3,-8 -3,-13 0,-4 1,-8 3,-12 2,-4 4,-7 8,-9 3,-2 8,-3 12,-3 3,0 7,1 9,2 3,1 5,2 7,4 1,2 2,5 3,8l-5 1c-1,-2 -2,-4 -3,-5 -1,-1 -3,-2 -4,-3 -2,-1 -4,-2 -7,-2 -3,0 -5,1 -7,2 -2,1 -4,2 -5,3 -1,2 -2,3 -3,5 -1,3 -2,6 -2,9 0,4 1,8 2,10 2,3 4,5 7,7 2,1 5,2 8,2 3,0 6,-1 8,-2 3,-1 4,-2 6,-3l0 -9 -14 0zm29 18l0 -46 17 0c3,0 6,0 8,1 3,1 4,3 5,5 2,2 2,4 2,6 0,2 0,4 -1,5 -1,2 -3,4 -5,5 3,0 5,2 6,4 2,2 3,4 3,7 0,2 -1,4 -2,6 -1,2 -2,3 -3,4 -2,1 -3,2 -5,3 -2,0 -5,0 -8,0l-17 0zm6 -27l10 0c2,0 4,0 6,0 1,-1 2,-1 3,-2 1,-1 1,-3 1,-4 0,-2 0,-3 -1,-4 -1,-2 -2,-2 -3,-3 -1,0 -4,-1 -7,-1l-9 0 0 14zm0 22l11 0c2,0 4,0 4,0 2,-1 3,-1 4,-2 1,0 2,-1 2,-2 1,-1 1,-3 1,-4 0,-2 0,-3 -1,-5 -1,-1 -2,-2 -4,-2 -1,-1 -4,-1 -7,-1l-10 0 0 16z"/>
  <polygon class="fil2" points="206,122 52,122 52,112 206,112 "/>
  <polygon class="fil2" points="206,266 52,266 52,257 206,257 "/>
 </g>
</svg>
