<?xml version="1.0" encoding="UTF-8"?>
<!DOCTYPE svg PUBLIC "-//W3C//DTD SVG 1.1//EN" "http://www.w3.org/Graphics/SVG/1.1/DTD/svg11.dtd">
<!-- Creator: CorelDRAW X7 -->
<svg xmlns="http://www.w3.org/2000/svg" xml:space="preserve" width="12.4006in" height="17.0763in" version="1.1" style="shape-rendering:geometricPrecision; text-rendering:geometricPrecision; image-rendering:optimizeQuality; fill-rule:evenodd; clip-rule:evenodd"
viewBox="0 0 1856 2556"
 xmlns:xlink="http://www.w3.org/1999/xlink">
 <defs>
  <style type="text/css">
   <![CDATA[
    .fil1 {fill:#FEFEFE}
    .fil0 {fill:#373435}
   ]]>
  </style>
 </defs>
 <g id="Layer_x0020_1">
  <metadata id="CorelCorpID_0Corel-Layer"/>
  <path class="fil0" d="M1761 0c52,0 95,43 95,95l0 2366c0,52 -43,95 -95,95l-1666 0c-52,0 -95,-43 -95,-95l0 -2366c0,-52 43,-95 95,-95l1666 0z"/>
  <polygon class="fil1" points="1659,2332 197,2332 197,171 1659,171 "/>
  <polygon class="fil1" points="1080,95 794,95 794,82 1080,82 "/>
  <path class="fil1" d="M677 88c0,9 -7,17 -16,17 -9,0 -16,-8 -16,-17 0,-9 7,-16 16,-16 9,0 16,7 16,16z"/>
  <path class="fil1" d="M1211 88c0,9 -7,17 -16,17 -9,0 -16,-8 -16,-17 0,-9 7,-16 16,-16 9,0 16,7 16,16z"/>
  <path class="fil1" d="M981 2433c0,29 -24,53 -53,53 -29,0 -53,-24 -53,-53 0,-29 24,-53 53,-53 29,0 53,24 53,53z"/>
  <path class="fil0" d="M928 2462c-7,0 -15,-3 -20,-9 -12,-11 -12,-29 0,-40 1,-2 4,-2 6,0 2,1 2,4 0,6 -8,8 -8,20 0,28 8,8 20,8 28,0 4,-4 6,-9 6,-14 0,-5 -2,-10 -6,-14 -2,-2 -2,-5 0,-6 2,-2 5,-2 6,0 6,5 9,12 9,20 0,8 -3,15 -9,20 -5,6 -13,9 -20,9z"/>
  <path class="fil0" d="M932 2433c0,2 -2,4 -4,4l0 0c-2,0 -4,-2 -4,-4l0 -32c0,-2 2,-4 4,-4l0 0c2,0 4,2 4,4l0 32z"/>
 </g>
</svg>
