<?xml version="1.0" encoding="UTF-8"?>
<!DOCTYPE svg PUBLIC "-//W3C//DTD SVG 1.1//EN" "http://www.w3.org/Graphics/SVG/1.1/DTD/svg11.dtd">
<!-- Creator: CorelDRAW X8 -->
<svg xmlns="http://www.w3.org/2000/svg" xml:space="preserve" width="1.87191in" height="1.87191in" version="1.1" style="shape-rendering:geometricPrecision; text-rendering:geometricPrecision; image-rendering:optimizeQuality; fill-rule:evenodd; clip-rule:evenodd"
viewBox="0 0 625 625"
 xmlns:xlink="http://www.w3.org/1999/xlink">
 <defs>
  <style type="text/css">
   <![CDATA[
    .fil2 {fill:#89311F}
    .fil1 {fill:#C6364D}
    .fil0 {fill:#F24660}
    .fil3 {fill:white}
   ]]>
  </style>
 </defs>
 <g id="Objects">
  <metadata id="CorelCorpID_0Corel-Layer"/>
  <path class="fil0" d="M313 625c172,0 312,-140 312,-312 0,-173 -140,-313 -312,-313 -173,0 -313,140 -313,313 0,172 140,312 313,312z"/>
  <path class="fil1" d="M493 228l129 128c-21,152 -151,269 -308,269l-229 -226 408 -171z"/>
  <path class="fil2" d="M212 448c77,0 139,-38 139,-84 0,-47 -62,-85 -139,-85 -77,0 -140,38 -140,85 0,46 63,84 140,84z"/>
  <path class="fil3" d="M212 421c77,0 139,-38 139,-84 0,-47 -62,-85 -139,-85 -77,0 -140,38 -140,85 0,46 63,84 140,84z"/>
  <path class="fil2" d="M212 388c77,0 139,-38 139,-85 0,-47 -62,-85 -139,-85 -77,0 -140,38 -140,85 0,47 63,85 140,85z"/>
  <path class="fil2" d="M452 273c56,52 76,123 44,157 -31,34 -103,19 -159,-33 -57,-53 -77,-123 -45,-157 32,-34 103,-20 160,33z"/>
  <path class="fil3" d="M470 253c56,53 76,123 45,157 -32,34 -104,20 -160,-33 -57,-52 -77,-123 -45,-157 32,-34 104,-19 160,33z"/>
  <path class="fil2" d="M493 228c57,53 76,123 45,157 -32,35 -104,20 -160,-33 -56,-52 -76,-122 -45,-157 32,-34 104,-19 160,33z"/>
 </g>
</svg>
