<?xml version="1.0" encoding="UTF-8"?>
<!DOCTYPE svg PUBLIC "-//W3C//DTD SVG 1.1//EN" "http://www.w3.org/Graphics/SVG/1.1/DTD/svg11.dtd">
<!-- Creator: CorelDRAW X8 -->
<svg xmlns="http://www.w3.org/2000/svg" xml:space="preserve" width="0.273138in" height="0.300079in" version="1.1" style="shape-rendering:geometricPrecision; text-rendering:geometricPrecision; image-rendering:optimizeQuality; fill-rule:evenodd; clip-rule:evenodd"
viewBox="0 0 33 37"
 xmlns:xlink="http://www.w3.org/1999/xlink">
 <defs>
  <style type="text/css">
   <![CDATA[
    .fil0 {fill:black;fill-rule:nonzero}
   ]]>
  </style>
 </defs>
 <g id="Icons">
  <metadata id="CorelCorpID_0Corel-Layer"/>
  <path class="fil0" d="M21 26c1,-1 1,-1 2,-1 1,0 1,1 1,1l-2 8c0,1 0,1 -1,1 -1,0 -1,-1 -1,-1l1 -8z"/>
  <path class="fil0" d="M9 26c0,0 0,-1 1,-1 1,0 1,0 2,1l1 8c0,1 0,2 -1,2 -1,0 -1,-1 -2,-1l-1 -9z"/>
  <path class="fil0" d="M15 25c0,0 1,-1 1,-1 1,0 2,1 2,1l0 9c0,1 -1,1 -2,1 0,0 -1,0 -1,-1l0 -9z"/>
  <path class="fil0" d="M27 20c0,0 1,-1 2,-1 0,1 1,1 1,2l-3 11c0,0 -1,1 -2,1 0,-1 -1,-1 0,-2l2 -11z"/>
  <path class="fil0" d="M24 31c0,0 1,-1 2,-1 0,0 1,1 1,1 0,2 -1,3 -3,3l0 1c-1,0 -1,0 -1,0 -1,1 -2,1 -3,1 -1,1 -1,0 -2,0 -1,0 -1,0 -2,0 0,0 0,0 -1,0 -1,0 -1,1 -2,0l0 0c-1,0 -2,0 -3,-1 0,0 0,0 -1,0l0 -1c-2,0 -3,-1 -3,-3 0,0 0,-1 1,-1 1,0 1,1 1,1 0,0 1,1 2,1 0,0 0,0 0,0 1,1 1,1 2,1 0,0 1,1 1,1l0 0c1,0 1,0 2,0 0,0 1,-1 1,-1 1,0 2,1 2,1 1,0 1,0 2,0 0,0 1,-1 1,-1l0 0c1,0 1,0 1,-1l1 0c1,0 1,-1 1,-1z"/>
  <path class="fil0" d="M8 31c1,1 0,2 -1,2 0,0 -1,-1 -1,-1l-2 -11c0,-1 0,-1 1,-2 0,0 1,1 1,1l2 11z"/>
  <path class="fil0" d="M17 0c1,0 2,1 3,2l0 0c1,1 2,2 2,3 0,2 -1,3 -2,4 -1,1 -2,2 -3,2 -2,0 -3,-1 -4,-2l0 0c-1,-1 -2,-2 -2,-4 0,-1 1,-2 2,-3l0 0c1,-1 2,-2 4,-2zm2 3c-1,0 -2,0 -2,0 -1,0 -2,0 -2,0l0 0c-1,1 -1,2 -1,2 0,1 0,2 1,2 0,1 1,1 2,1 0,0 1,0 2,-1l0 0c0,0 0,-1 0,-2 0,0 0,-1 0,-2l0 0z"/>
  <path class="fil0" d="M12 4c1,-1 2,0 2,0 0,1 -1,2 -1,2 -3,1 -6,2 -8,4 -1,1 -2,3 -2,6l0 0c0,0 -1,3 6,3l0 0c0,0 2,1 5,0 1,-1 2,-1 4,-1 1,0 3,1 4,1 1,1 9,2 9,-3 0,-3 -2,-5 -4,-7 -2,-1 -4,-2 -7,-3 0,0 -1,-1 0,-2 0,0 0,-1 1,0 3,0 6,1 8,3 2,2 4,5 4,9 0,8 -11,6 -11,6 0,0 -1,0 -1,0 -1,-1 -2,-1 -3,-1 -1,0 -3,0 -4,0 -2,1 -5,1 -5,1 -9,0 -9,-6 -9,-6 0,-4 1,-6 3,-8 3,-2 6,-4 9,-4z"/>
 </g>
</svg>
