<?xml version="1.0" encoding="UTF-8"?>
<!DOCTYPE svg PUBLIC "-//W3C//DTD SVG 1.1//EN" "http://www.w3.org/Graphics/SVG/1.1/DTD/svg11.dtd">
<!-- Creator: CorelDRAW X8 -->
<svg xmlns="http://www.w3.org/2000/svg" xml:space="preserve" width="1.92928in" height="2.09767in" version="1.1" style="shape-rendering:geometricPrecision; text-rendering:geometricPrecision; image-rendering:optimizeQuality; fill-rule:evenodd; clip-rule:evenodd"
viewBox="0 0 5563 6049"
 xmlns:xlink="http://www.w3.org/1999/xlink">
 <defs>
  <style type="text/css">
   <![CDATA[
    .fil4 {fill:#3A2119;fill-rule:nonzero}
    .fil3 {fill:#743F30;fill-rule:nonzero}
    .fil0 {fill:#BA8876;fill-rule:nonzero}
    .fil1 {fill:#D8AFA4;fill-rule:nonzero}
    .fil2 {fill:#FFDAAE;fill-rule:nonzero}
   ]]>
  </style>
 </defs>
 <g id="Layer_x0020_1">
  <metadata id="CorelCorpID_0Corel-Layer"/>
  <path class="fil0" d="M5011 3212c0,-11 -6,-18 -22,-20 -82,63 -296,81 -219,247 121,-4 193,-94 241,-227z"/>
  <path class="fil0" d="M2823 5584c65,62 143,115 266,143 67,-38 135,-167 128,-272 -158,-4 -334,-40 -394,129z"/>
  <path class="fil0" d="M4273 5592c37,221 322,161 350,-16 32,-202 -265,-96 -350,16z"/>
  <path class="fil0" d="M3734 5848c80,86 239,44 270,-79 -84,-30 -221,-12 -270,79z"/>
  <path class="fil0" d="M4713 2935c38,-102 -50,-402 -185,-442 -22,-6 -202,34 -216,81 -32,115 324,303 401,361z"/>
  <path class="fil0" d="M4526 3986c-9,61 -35,130 13,157 55,-10 34,-135 -13,-157z"/>
  <path class="fil0" d="M1525 1781c184,-291 -489,-531 -490,-79 107,96 420,190 490,79z"/>
  <path class="fil0" d="M286 3506c105,-191 -12,-343 -65,-479 -170,118 -89,388 65,479z"/>
  <path class="fil0" d="M574 2231c-11,87 -2,162 5,239 283,91 232,-404 -5,-239z"/>
  <path class="fil0" d="M1752 991c99,47 269,-116 226,-273 -160,-57 -380,201 -226,273z"/>
  <path class="fil0" d="M109 4057c93,10 153,-37 197,-113 -84,-100 -254,-25 -197,113z"/>
  <path class="fil0" d="M868 4629c-451,-58 -61,385 0,0l0 0z"/>
  <path class="fil0" d="M1654 4998c0,-100 -159,-216 -307,-196 -449,62 304,646 307,196z"/>
  <path class="fil0" d="M2191 5467c-421,-121 -24,427 0,0l0 0z"/>
  <path class="fil0" d="M2839 704c25,-157 42,-277 103,-433 -154,-2 -319,140 -396,338 42,81 208,162 293,95z"/>
  <path class="fil1" d="M2560 2456c-284,-62 -354,256 -504,433 331,199 654,-114 504,-433z"/>
  <path class="fil0" d="M1911 2403c61,18 89,-22 105,-83 -50,-73 -129,25 -105,83z"/>
  <path class="fil0" d="M3004 2298c-163,-49 -163,269 -52,293 74,-61 64,-214 52,-293z"/>
  <path class="fil0" d="M3262 1392c-71,-87 -265,-27 -258,83 107,9 193,-18 258,-83z"/>
  <path class="fil0" d="M3812 4223c161,130 409,52 357,-195 -186,-138 -371,-20 -357,195z"/>
  <path class="fil0" d="M2468 3310c25,33 51,65 119,74 52,-28 74,-111 94,-197 -82,-52 -184,16 -213,123z"/>
  <path class="fil0" d="M4000 2502c-48,-41 -132,-46 -184,-37 -21,53 3,79 -6,124 84,8 153,-11 190,-87z"/>
  <path class="fil0" d="M4376 1824c-27,-46 -94,-38 -154,-43 -24,87 -1,147 28,203 53,-34 109,-62 126,-160z"/>
  <path class="fil0" d="M5264 4175c-178,-51 -312,-25 -444,4 -108,325 503,346 444,-4z"/>
  <path class="fil0" d="M4767 1861c60,126 383,290 441,108 80,-249 -310,-270 -441,-108z"/>
  <path class="fil0" d="M5035 1279c-271,-5 40,276 0,0l0 0z"/>
  <path class="fil0" d="M4931 3665c355,190 791,-57 454,-350 -157,107 -317,208 -454,350z"/>
  <path class="fil0" d="M5169 2781c64,-40 125,-86 150,-196 -36,-59 -172,-111 -232,-64 -10,108 18,195 82,260z"/>
  <path class="fil0" d="M3887 405c23,-70 71,-234 75,-328 -195,-50 -335,98 -346,310 91,6 195,37 271,18z"/>
  <path class="fil0" d="M2378 3592c-74,-117 -308,-91 -419,-87 -26,38 -62,134 -49,182 137,22 440,74 468,-95z"/>
  <path class="fil2" d="M3233 3603c-174,-108 -428,121 -304,308 167,26 342,-96 304,-308z"/>
  <path class="fil0" d="M3593 3856c-26,30 -51,63 -60,123 61,18 88,-22 105,-83 -26,-7 -7,-40 -45,-40z"/>
  <path class="fil1" d="M3085 4819c177,65 228,-276 163,-402 -335,-162 -296,353 -163,402z"/>
  <path class="fil0" d="M2315 5110c-59,153 210,164 218,-38 -88,-14 -171,-20 -218,38z"/>
  <path class="fil0" d="M2119 4246c-189,-37 -432,243 -218,345 203,97 372,-205 218,-345z"/>
  <path class="fil0" d="M2616 4606c-63,-11 -128,17 -118,80 68,23 106,-6 118,-80z"/>
  <path class="fil0" d="M2624 4064c-78,-23 -149,-33 -194,3 -6,65 13,117 22,173 83,-14 130,-90 172,-176z"/>
  <path class="fil0" d="M1948 4981c72,12 105,-45 148,-85 -46,-44 -172,6 -148,85z"/>
  <path class="fil3" d="M5023 4709c72,-14 148,-19 171,-121 -78,-115 -310,-68 -415,-155 -64,-53 -81,-216 -33,-289 76,-115 344,-16 496,-45 21,-48 80,-103 68,-149 -87,-24 -54,-119 -136,-162 -104,-56 -329,38 -369,-116 218,-215 510,-302 666,-626 -114,-48 -180,-123 -219,-214 -213,183 -387,-507 -47,-390 134,-135 -100,-190 -94,-319 -145,-1 -482,-171 -447,-290 31,-105 423,-125 506,-182 40,-104 45,-187 -71,-201 -115,108 -295,-13 -269,-130 25,-113 327,-131 187,-283 -82,-30 -149,-33 -222,-47 -51,-30 5,-120 -59,-142 -104,110 -166,295 -227,482 -112,50 -481,-133 -488,-190 -10,-86 140,-162 212,-221 144,-118 261,-264 484,-104 49,-170 -174,-208 -337,-288 -47,160 -335,186 -308,13 17,-107 154,-162 275,-148 25,-141 -228,-213 -339,-177 -36,94 -24,160 -54,251 -122,41 -301,-20 -440,-10 -14,-82 61,-157 70,-260 -38,-36 -78,-71 -157,-84 0,256 -362,126 -458,264 -66,96 1,249 -53,349 -104,194 -611,-40 -399,-263 -149,-110 -173,60 -277,105 -181,78 -177,60 -206,251 -54,349 -379,186 -619,192 -30,178 -144,206 -211,320 323,33 567,398 310,545 -118,68 -279,-67 -436,-78 -81,-5 -154,70 -254,70 -45,125 -54,229 20,285 -88,90 25,139 5,238 -39,198 -278,126 -419,220 -14,173 -106,208 -155,320 94,71 246,710 -8,696 -81,-4 -68,-132 -163,-114 -36,127 80,166 13,310 132,16 288,25 288,163 -30,56 -108,27 -125,105 187,145 28,459 291,513 108,22 272,-141 392,-18 -34,87 -82,150 -118,233 113,33 184,-7 306,42 83,-230 415,-98 576,19 38,240 -229,363 -141,575 136,16 160,-166 273,-190 -36,91 -88,152 -131,229 79,24 104,79 179,105 -63,-223 203,-252 366,-179 -37,85 -54,158 -60,221 261,-55 460,258 682,89 -433,-226 176,-433 441,-353 -45,171 -89,342 -184,424 109,153 351,175 506,125 -50,-205 209,-253 374,-260 53,49 18,172 -24,245 157,54 271,32 300,-141 -314,-206 124,-367 307,-419 37,126 106,307 268,186 37,-100 14,-227 90,-283 -236,-45 -15,-377 50,-544zm115 -1657c-18,150 -213,551 -392,478 -56,-22 -100,-150 -60,-240 57,-126 351,-189 452,-238zm-585 1193c-151,9 -143,-378 14,-359 61,7 122,351 -14,359zm484 -1947c-40,51 -128,18 -198,16 21,-66 194,-102 198,-16zm-294 729c-156,-94 -582,-344 -514,-504 42,-98 267,-87 397,-86 74,164 263,370 117,590zm-466 1421c-42,99 -144,92 -235,103 58,-69 119,-134 235,-103zm-562 -224c-11,-75 80,-275 139,-311 110,-65 290,27 390,94 -29,140 6,284 -133,340 -96,38 -379,-8 -396,-123zm485 -1234c-104,17 -162,-129 -112,-199 81,0 93,127 112,199zm401 -1384c-43,-23 -52,-65 -37,-121 89,-36 122,115 37,121zm66 577c-82,59 -214,31 -309,68 51,-93 239,-134 309,-68zm-263 -463c145,93 -98,408 -186,381 -90,-27 -86,-263 -60,-393 112,37 192,-23 246,12zm-648 659c109,31 322,8 370,116 -115,189 -518,296 -370,-116zm-1096 1039c-115,108 -274,-39 -272,-117 4,-176 274,-232 408,-181 -117,3 -19,188 -136,298zm-703 -263c-72,117 -176,176 -293,213 86,-81 181,-243 293,-213zm-84 -665c-148,-82 89,-421 232,-243 -36,116 -132,299 -232,243zm92 430c116,-156 229,-454 393,-534 365,-178 383,483 143,598 -183,87 -378,17 -536,-64zm250 -825c42,-56 169,-55 227,-21 -22,94 -175,45 -227,21zm715 -599c-101,-224 500,-320 430,-7 -96,-73 -357,170 -430,7zm36 736c240,18 83,459 -47,433 -139,-27 -168,-449 47,-433zm7 1105c-28,84 -104,85 -177,90 -17,-82 118,-141 177,-90zm70 -568c128,42 239,-83 324,-22 47,33 55,270 19,340 -41,78 -244,146 -298,128 -129,-46 -92,-308 -45,-446zm159 -179c75,-43 193,-104 279,-63 -43,99 -212,70 -279,63zm8 -389c23,-365 220,-627 580,-510 210,374 -255,701 -580,510zm443 1127c-22,83 -276,67 -239,-38 101,50 184,-47 239,38zm-116 -339c94,-21 218,-86 333,-6 15,182 -441,329 -333,6zm435 -2281c84,43 105,122 158,183 -93,83 -227,-104 -158,-183zm-275 608c46,-61 263,-34 307,43 8,353 -471,173 -307,-43zm35 -590c145,57 -12,435 -124,510 -118,-96 -368,-130 -353,-279 0,0 373,-272 477,-231zm-530 -341c124,-74 236,150 162,268 -34,54 -164,61 -221,50 -52,-90 -14,-276 59,-318zm-339 1358c-65,106 -51,379 -218,345 -256,-52 -34,-511 218,-345zm-281 -803c136,6 305,14 308,140 6,294 -540,159 -308,-140zm-292 -303c13,3 26,7 39,10 -13,72 -46,262 -129,272 -7,-87 57,-203 90,-282zm150 571c216,119 -52,704 -284,592 -108,-52 -56,-506 -42,-612 140,38 242,-26 326,20zm-482 608c112,43 7,306 -139,310 -82,3 -217,-71 -203,-167 15,-109 254,-178 342,-143zm-239 939c-57,97 -209,130 -303,98 101,-33 181,-102 303,-98zm-260 -1551c106,-55 272,-9 352,83 -21,250 -477,194 -352,-83zm-205 1018c96,-81 209,39 339,24 115,209 -193,487 -363,374 -53,-34 -61,-326 24,-398zm-54 1381c-16,91 -187,80 -224,9 38,-68 150,-6 224,-9zm-136 -1600c63,19 30,139 10,170 -62,-19 -47,-129 -10,-170zm-316 764c49,-56 227,22 281,36 -50,42 -261,56 -281,-36zm382 273c29,222 -117,453 -290,409 -88,-23 -172,-210 -135,-317 46,-137 292,-124 425,-92zm-548 701c-24,-51 9,-174 56,-208 38,0 19,33 45,40 -23,75 -47,148 -101,168zm412 573c-129,105 -515,27 -498,-151 22,-242 391,-410 619,-346 9,157 16,386 -121,497zm639 -1290c23,126 -59,289 -158,278 -217,-24 -86,-374 158,-278zm-455 1327c20,-127 237,-144 336,-117 78,257 -372,346 -336,117zm290 -716c126,-42 279,54 284,176 -140,276 -428,183 -284,-176zm421 -178c64,-59 279,-16 398,12 94,22 177,29 176,118 -2,201 -520,273 -622,150 -37,-44 -32,-206 48,-280zm196 557c-54,84 -152,91 -248,99 61,-60 156,-156 248,-99zm-321 316c69,-131 308,-78 422,-177 149,254 -24,616 -296,533 -90,-27 -194,-225 -126,-356zm189 736c-230,-68 92,-453 238,-214 -44,115 -142,243 -238,214zm417 -1085c86,-82 223,20 349,39 -68,130 -156,375 -295,324 -71,-25 -128,-291 -54,-363zm348 556c-16,106 -85,247 -176,244 -283,-8 -44,-411 176,-244zm-496 505c140,0 375,-169 424,19 -73,271 -470,373 -424,-19zm676 -1070c-101,-53 -100,-290 8,-389 98,-89 289,-36 412,-40 18,275 -196,546 -420,429zm-366 1616c-18,-55 31,-129 58,-165 31,4 49,15 61,30 -27,67 -55,134 -119,135zm315 -402c31,-53 210,-180 278,-105 -65,85 -182,77 -278,105zm191 -296c-87,-36 -177,-372 -103,-489 74,-119 313,-84 417,-11 -3,171 -38,612 -314,500zm470 -820c-134,-58 36,-356 134,-396 134,115 31,466 -134,396zm302 -657c26,-212 451,-186 592,-298 43,195 64,466 -30,675 -197,-54 -584,-209 -562,-377zm-1 1130c57,157 -33,435 -217,345 -172,-83 -34,-460 217,-345zm-339 591c114,-18 328,-37 439,65 -20,573 -683,442 -439,-65zm609 307c-50,-51 16,-143 8,-235 13,3 25,7 38,10 24,45 20,199 -46,225zm245 -296c-64,-16 -231,-300 -202,-377 53,-143 355,-56 478,-133 132,157 -101,554 -276,510zm259 15c53,-26 149,33 186,79 -14,79 -223,5 -186,-79z"/>
  <path class="fil2" d="M4118 1139c120,31 186,147 325,131 62,-128 115,-270 167,-415 -228,-90 -363,138 -492,284z"/>
  <path class="fil0" d="M5134 4809c-104,-39 -179,230 -192,352 56,21 101,24 136,10 36,-92 132,-300 56,-362z"/>
  <path class="fil0" d="M4133 571c95,36 202,2 180,-104 -92,-22 -157,3 -180,104z"/>
  <path class="fil0" d="M3635 4830c96,35 196,-212 59,-221 -113,-7 -152,188 -59,221z"/>
  <path class="fil1" d="M3900 3437c97,116 233,210 425,271 72,-172 51,-380 1,-517 -118,125 -332,80 -426,246z"/>
  <path class="fil0" d="M3537 5194c-180,373 282,427 294,39 -100,-51 -208,-63 -294,-39z"/>
  <path class="fil0" d="M4508 4721c-71,-22 -279,22 -300,85 -17,52 95,234 128,245 130,41 326,-282 172,-330z"/>
  <path class="fil0" d="M2663 2023c89,14 132,-193 72,-217 -149,-60 -157,204 -72,217z"/>
  <path class="fil0" d="M3239 451c-26,38 -62,134 -49,182 128,36 169,-143 49,-182z"/>
  <path class="fil0" d="M3607 1138c62,-85 85,-170 106,-292 -120,-31 -267,51 -365,123 58,73 119,144 259,169z"/>
  <path class="fil2" d="M2180 1249c-31,175 0,315 14,464 285,53 363,-595 -14,-464z"/>
  <path class="fil0" d="M1954 1884c-86,-17 -244,11 -245,86 -1,124 240,95 245,-86z"/>
  <path class="fil0" d="M2619 1160c77,63 245,4 187,-130 -143,-147 -286,48 -187,130z"/>
  <path class="fil0" d="M3756 1458c347,83 -31,-287 0,0l0 0z"/>
  <path class="fil1" d="M3752 1778c-287,-122 -439,93 -451,392 245,51 540,-94 451,-392z"/>
  <path class="fil0" d="M3333 2821c-98,-25 -170,-5 -240,18 -24,112 -13,205 4,294 172,25 297,-135 236,-312z"/>
  <path class="fil0" d="M3580 3084c47,71 177,25 208,-54 -64,-45 -178,-24 -208,54z"/>
  <path class="fil1" d="M576 4172c7,109 293,164 384,63 82,-90 54,-204 91,-338 -183,-106 -483,137 -475,275z"/>
  <path class="fil0" d="M1573 3091c-90,-26 -180,64 -119,135 62,3 133,-63 119,-135z"/>
  <path class="fil0" d="M1546 3908c59,-18 101,-66 123,-148 -105,-174 -245,63 -123,148z"/>
  <path class="fil0" d="M1261 4402c102,42 193,-26 193,-101 -80,1 -201,3 -193,101z"/>
  <path class="fil0" d="M1556 2333c-46,-64 -182,-69 -248,-54 -31,95 -42,178 -41,254 149,26 258,-18 289,-200z"/>
  <path class="fil0" d="M1588 1239c-241,24 97,251 128,91 11,-59 -47,-98 -128,-91z"/>
  <path class="fil0" d="M861 3371c96,28 236,-132 197,-267 -268,-154 -371,215 -197,267z"/>
  <path class="fil4" d="M5197 4729c22,-57 73,-63 90,-129 -6,-55 -79,-71 -91,-123 144,-181 254,-554 114,-680 307,53 302,-395 157,-529 50,-70 34,-134 92,-240 -102,-84 -229,-153 -240,-289 27,-49 81,-130 65,-192 -9,-45 -95,-47 -98,-97 20,-47 53,-72 64,-136 -85,-56 -138,-132 -177,-216 193,-81 48,-217 53,-348 2,-66 75,-161 72,-217 -4,-109 -166,-123 -196,-194 -28,-66 42,-56 47,-126 13,-151 -90,-276 -295,-291 -48,-103 -48,-279 -154,-349 -73,-49 -151,-26 -203,-70 -128,-110 -77,-419 -461,-392 -2,-32 6,-69 -1,-98 -121,-26 -213,-5 -318,-3 -35,21 -37,99 -82,103 -280,-240 -317,199 -582,105 -39,-28 -29,-85 -82,-106 -185,87 -309,369 -597,213 -47,150 -196,122 -295,170 -36,18 -52,89 -103,125 -159,115 -360,99 -359,306 -87,6 -170,19 -265,11 11,174 -180,219 -227,329 -29,68 7,153 -18,218 -37,99 -177,136 -125,259 -59,36 -141,32 -208,54 -80,198 -42,418 -280,370 -25,129 14,219 7,337 -138,-14 -121,101 -190,241 -75,152 -276,308 -296,379 -25,89 83,171 69,257 -9,58 -75,89 -84,158 -4,33 48,112 52,168 14,190 -68,360 49,432 60,37 140,-12 186,79 30,58 -19,167 5,239 29,86 188,149 267,240 46,54 52,154 133,176 41,12 81,-41 120,-36 8,1 62,57 80,63 74,26 148,0 187,24 52,32 57,141 103,182 88,77 176,67 311,127 19,73 -2,170 2,252 152,34 271,168 413,211 147,44 342,-22 504,27 139,41 214,143 334,147 101,3 192,-98 283,-76 117,29 215,236 416,254 91,8 270,-81 396,-86 166,-8 297,113 414,57 47,-23 64,-140 133,-186 35,-24 101,-15 133,-34 61,-35 91,-114 149,-140 92,-43 221,12 287,-89 49,-76 55,-206 42,-309 220,54 289,-419 198,-532zm-377 -550c132,-29 266,-55 444,-4 59,350 -552,329 -444,4zm111 -514c137,-142 297,-243 454,-350 337,293 -99,540 -454,350zm388 -1080c-25,110 -86,156 -150,196 -64,-65 -92,-152 -82,-260 60,-47 196,5 232,64zm-111 -616c-58,182 -381,18 -441,-108 131,-162 521,-141 441,108zm-173 -690c40,276 -271,-5 0,0l0 0zm-1073 -1202c-4,94 -52,258 -75,328 -76,19 -180,-12 -271,-18 11,-212 151,-360 346,-310zm-1020 194c-61,156 -78,276 -103,433 -85,67 -251,-14 -293,-95 77,-198 242,-340 396,-338zm-964 447c43,157 -127,320 -226,273 -154,-72 66,-330 226,-273zm-453 1063c-70,111 -383,17 -490,-79 1,-452 674,-212 490,79zm-946 689c-7,-77 -16,-152 -5,-239 237,-165 288,330 5,239zm-358 557c53,136 170,288 65,479 -154,-91 -235,-361 -65,-479zm-112 1030c-57,-138 113,-213 197,-113 -44,76 -104,123 -197,113zm759 572c-61,385 -451,-58 0,0l0 0zm479 173c148,-20 307,96 307,196 -3,450 -756,-134 -307,-196zm844 665c-24,427 -421,-121 0,0l0 0zm898 260c-123,-28 -201,-81 -266,-143 60,-169 236,-133 394,-129 7,105 -61,234 -128,272zm645 121c49,-91 186,-109 270,-79 -31,123 -190,165 -270,79zm539 -256c85,-112 382,-218 350,-16 -28,177 -313,237 -350,16zm610 -56c-162,121 -231,-60 -268,-186 -183,52 -621,213 -307,419 -29,173 -143,195 -300,141 42,-73 77,-196 24,-245 -165,7 -424,55 -374,260 -155,50 -397,28 -506,-125 95,-82 139,-253 184,-424 -265,-80 -874,127 -441,353 -222,169 -421,-144 -682,-89 6,-63 23,-136 60,-221 -163,-73 -429,-44 -366,179 -75,-26 -100,-81 -179,-105 43,-77 95,-138 131,-229 -113,24 -137,206 -273,190 -88,-212 179,-335 141,-575 -161,-117 -493,-249 -576,-19 -122,-49 -193,-9 -306,-42 36,-83 84,-146 118,-233 -120,-123 -284,40 -392,18 -263,-54 -104,-368 -291,-513 17,-78 95,-49 125,-105 0,-138 -156,-147 -288,-163 67,-144 -49,-183 -13,-310 95,-18 82,110 163,114 254,14 102,-625 8,-696 49,-112 141,-147 155,-320 141,-94 380,-22 419,-220 20,-99 -93,-148 -5,-238 -74,-56 -65,-160 -20,-285 100,0 173,-75 254,-70 157,11 318,146 436,78 257,-147 13,-512 -310,-545 67,-114 181,-142 211,-320 240,-6 565,157 619,-192 29,-191 25,-173 206,-251 104,-45 128,-215 277,-105 -212,223 295,457 399,263 54,-100 -13,-253 53,-349 96,-138 458,-8 458,-264 79,13 119,48 157,84 -9,103 -84,178 -70,260 139,-10 318,51 440,10 30,-91 18,-157 54,-251 111,-36 364,36 339,177 -121,-14 -258,41 -275,148 -27,173 261,147 308,-13 163,80 386,118 337,288 -223,-160 -340,-14 -484,104 -72,59 -222,135 -212,221 7,57 376,240 488,190 61,-187 123,-372 227,-482 64,22 8,112 59,142 73,14 140,17 222,47 140,152 -162,170 -187,283 -26,117 154,238 269,130 116,14 111,97 71,201 -83,57 -475,77 -506,182 -35,119 302,289 447,290 -6,129 228,184 94,319 -340,-117 -166,573 47,390 39,91 105,166 219,214 -156,324 -448,411 -666,626 40,154 265,60 369,116 82,43 49,138 136,162 12,46 -47,101 -68,149 -152,29 -420,-70 -496,45 -48,73 -31,236 33,289 105,87 337,40 415,155 -23,102 -99,107 -171,121 -65,167 -286,499 -50,544 -76,56 -53,183 -90,283zm-750 -4965c23,-101 88,-126 180,-104 22,106 -85,140 -180,104zm477 284c-52,145 -105,287 -167,415 -139,16 -205,-100 -325,-131 129,-146 264,-374 492,-284zm468 4316c-35,14 -80,11 -136,-10 13,-122 88,-391 192,-352 76,62 -20,270 -56,362z"/>
  <path class="fil4" d="M3364 653c74,-118 -38,-342 -162,-268 -73,42 -111,228 -59,318 57,11 187,4 221,-50zm-125 -202c120,39 79,218 -49,182 -13,-48 23,-144 49,-182z"/>
  <path class="fil4" d="M4130 891c-53,-61 -74,-140 -158,-183 -69,79 65,266 158,183z"/>
  <path class="fil4" d="M3608 1236c112,-75 269,-453 124,-510 -104,-41 -477,231 -477,231 -15,149 235,183 353,279zm105 -390c-21,122 -44,207 -106,292 -140,-25 -201,-96 -259,-169 98,-72 245,-154 365,-123z"/>
  <path class="fil4" d="M2329 647c-13,-3 -26,-7 -39,-10 -33,79 -97,195 -90,282 83,-10 116,-200 129,-272z"/>
  <path class="fil4" d="M2890 1080c-3,-126 -172,-134 -308,-140 -232,299 314,434 308,140zm-84 -50c58,134 -110,193 -187,130 -99,-82 44,-277 187,-130z"/>
  <path class="fil4" d="M4004 1359c-44,-77 -261,-104 -307,-43 -164,216 315,396 307,43zm-248 99c-31,-287 347,83 0,0l0 0z"/>
  <path class="fil4" d="M4601 1606c85,-6 52,-157 -37,-121 -15,56 -6,98 37,121z"/>
  <path class="fil4" d="M3360 1489c70,-313 -531,-217 -430,7 73,163 334,-80 430,-7zm-98 -97c-65,65 -151,92 -258,83 -7,-110 187,-170 258,-83z"/>
  <path class="fil4" d="M4218 2101c88,27 331,-288 186,-381 -54,-35 -134,25 -246,-12 -26,130 -30,366 60,393zm158 -277c-17,98 -73,126 -126,160 -29,-56 -52,-116 -28,-203 60,5 127,-3 154,43z"/>
  <path class="fil4" d="M2156 1800c232,112 500,-473 284,-592 -84,-46 -186,18 -326,-20 -14,106 -66,560 42,612zm38 -87c-14,-149 -45,-289 -14,-464 377,-131 299,517 14,464z"/>
  <path class="fil4" d="M3790 1691c-360,-117 -557,145 -580,510 325,191 790,-136 580,-510zm-489 479c12,-299 164,-514 451,-392 89,298 -206,443 -451,392z"/>
  <path class="fil4" d="M1811 1287c-80,-92 -246,-138 -352,-83 -125,277 331,333 352,83zm-223 -48c81,-7 139,32 128,91 -31,160 -369,-67 -128,-91z"/>
  <path class="fil4" d="M4358 2251c95,-37 227,-9 309,-68 -70,-66 -258,-25 -309,68z"/>
  <path class="fil4" d="M5037 2298c-4,-86 -177,-50 -198,16 70,2 158,35 198,-16z"/>
  <path class="fil4" d="M2645 2088c167,34 153,-239 218,-345 -252,-166 -474,293 -218,345zm90 -282c60,24 17,231 -72,217 -85,-13 -77,-277 72,-217z"/>
  <path class="fil4" d="M4229 2523c-68,160 358,410 514,504 146,-220 -43,-426 -117,-590 -130,-1 -355,-12 -397,86zm299 -30c135,40 223,340 185,442 -77,-58 -433,-246 -401,-361 14,-47 194,-87 216,-81z"/>
  <path class="fil4" d="M1819 2126c146,-4 251,-267 139,-310 -88,-35 -327,34 -342,143 -14,96 121,170 203,167zm135 -242c-5,181 -246,210 -245,86 1,-75 159,-103 245,-86z"/>
  <path class="fil4" d="M4126 2495c-48,-108 -261,-85 -370,-116 -148,412 255,305 370,116zm-310 -30c52,-9 136,-4 184,37 -37,76 -106,95 -190,87 9,-45 -15,-71 6,-124z"/>
  <path class="fil4" d="M2442 2074c-58,-34 -185,-35 -227,21 52,24 205,73 227,-21z"/>
  <path class="fil4" d="M2966 2232c-215,-16 -186,406 -47,433 130,26 287,-415 47,-433zm38 66c12,79 22,232 -52,293 -111,-24 -111,-342 52,-293z"/>
  <path class="fil4" d="M3481 2527c-86,-41 -204,20 -279,63 67,7 236,36 279,-63z"/>
  <path class="fil4" d="M1873 2490c100,56 196,-127 232,-243 -143,-178 -380,161 -232,243zm38 -87c-24,-58 55,-156 105,-83 -16,61 -44,101 -105,83z"/>
  <path class="fil4" d="M4686 3290c-40,90 4,218 60,240 179,73 374,-328 392,-478 -101,49 -395,112 -452,238zm303 -98c16,2 22,9 22,20 -48,133 -120,223 -241,227 -77,-166 137,-184 219,-247z"/>
  <path class="fil4" d="M4088 2791c-50,70 8,216 112,199 -19,-72 -31,-199 -112,-199z"/>
  <path class="fil4" d="M2501 2984c240,-115 222,-776 -143,-598 -164,80 -277,378 -393,534 158,81 353,151 536,64zm59 -528c150,319 -173,632 -504,433 150,-177 220,-495 504,-433z"/>
  <path class="fil4" d="M1074 2173c20,-31 53,-151 -10,-170 -37,41 -52,151 10,170z"/>
  <path class="fil4" d="M1230 2620c170,113 478,-165 363,-374 -130,15 -243,-105 -339,-24 -85,72 -77,364 -24,398zm78 -341c66,-15 202,-10 248,54 -31,182 -140,226 -289,200 -1,-76 10,-159 41,-254z"/>
  <path class="fil4" d="M3088 3215c54,18 257,-50 298,-128 36,-70 28,-307 -19,-340 -85,-61 -196,64 -324,22 -47,138 -84,400 45,446zm245 -394c61,177 -64,337 -236,312 -17,-89 -28,-182 -4,-294 70,-23 142,-43 240,-18z"/>
  <path class="fil4" d="M3870 2983c-115,-80 -239,-15 -333,6 -108,323 348,176 333,-6zm-290 101c30,-78 144,-99 208,-54 -31,79 -161,125 -208,54z"/>
  <path class="fil4" d="M4402 3115c-141,112 -566,86 -592,298 -22,168 365,323 562,377 94,-209 73,-480 30,-675zm-77 593c-192,-61 -328,-155 -425,-271 94,-166 308,-121 426,-246 50,137 71,345 -1,517z"/>
  <path class="fil4" d="M1719 2755c-122,-4 -202,65 -303,98 94,32 246,-1 303,-98z"/>
  <path class="fil4" d="M3653 3328c-55,-85 -138,12 -239,-38 -37,105 217,121 239,38z"/>
  <path class="fil4" d="M2796 3120c-134,-51 -404,5 -408,181 -2,78 157,225 272,117 117,-110 19,-295 136,-298zm-209 264c-68,-9 -94,-41 -119,-74 29,-107 131,-175 213,-123 -20,86 -42,169 -94,197z"/>
  <path class="fil4" d="M1029 2803c-54,-14 -232,-92 -281,-36 20,92 231,78 281,36z"/>
  <path class="fil4" d="M2973 3337c-59,-51 -194,8 -177,90 73,-5 149,-6 177,-90z"/>
  <path class="fil4" d="M1633 3024c-244,-96 -375,254 -158,278 99,11 181,-152 158,-278zm-179 202c-61,-71 29,-161 119,-135 14,72 -57,138 -119,135z"/>
  <path class="fil4" d="M1957 3155c-112,-30 -207,132 -293,213 117,-37 221,-96 293,-213z"/>
  <path class="fil4" d="M4567 3886c-157,-19 -165,368 -14,359 136,-8 75,-352 14,-359zm-28 257c-48,-27 -22,-96 -13,-157 47,22 68,147 13,157z"/>
  <path class="fil4" d="M3318 3543c-123,4 -314,-49 -412,40 -108,99 -109,336 -8,389 224,117 438,-154 420,-429zm-389 368c-124,-187 130,-416 304,-308 38,212 -137,334 -304,308z"/>
  <path class="fil4" d="M3642 3674c-98,40 -268,338 -134,396 165,70 268,-281 134,-396zm-109 305c9,-60 34,-93 60,-123 38,0 19,33 45,40 -17,61 -44,101 -105,83z"/>
  <path class="fil4" d="M840 3449c173,44 319,-187 290,-409 -133,-32 -379,-45 -425,92 -37,107 47,294 135,317zm218 -345c39,135 -101,295 -197,267 -174,-52 -71,-421 197,-267z"/>
  <path class="fil4" d="M4244 4007c-100,-67 -280,-159 -390,-94 -59,36 -150,236 -139,311 17,115 300,161 396,123 139,-56 104,-200 133,-340zm-432 216c-14,-215 171,-333 357,-195 52,247 -196,325 -357,195z"/>
  <path class="fil4" d="M2463 3587c1,-89 -82,-96 -176,-118 -119,-28 -334,-71 -398,-12 -80,74 -85,236 -48,280 102,123 620,51 622,-150zm-504 -82c111,-4 345,-30 419,87 -28,169 -331,117 -468,95 -13,-48 23,-144 49,-182z"/>
  <path class="fil4" d="M1468 3635c-144,359 144,452 284,176 -5,-122 -158,-218 -284,-176zm78 273c-122,-85 18,-322 123,-148 -22,82 -64,130 -123,148z"/>
  <path class="fil4" d="M2719 4020c-126,-19 -263,-121 -349,-39 -74,72 -17,338 54,363 139,51 227,-194 295,-324zm-289 47c45,-36 116,-26 194,-3 -42,86 -89,162 -172,176 -9,-56 -28,-108 -22,-173z"/>
  <path class="fil4" d="M976 3612c37,71 208,82 224,-9 -74,3 -186,-59 -224,9z"/>
  <path class="fil4" d="M4277 4448c-116,-31 -177,34 -235,103 91,-11 193,-4 235,-103z"/>
  <path class="fil4" d="M638 3533c-47,34 -80,157 -56,208 54,-20 78,-93 101,-168 -26,-7 -7,-40 -45,-40z"/>
  <path class="fil4" d="M4600 4635c-123,77 -425,-10 -478,133 -29,77 138,361 202,377 175,44 408,-353 276,-510zm-264 416c-33,-11 -145,-193 -128,-245 21,-63 229,-107 300,-85 154,48 -42,371 -172,330z"/>
  <path class="fil4" d="M1837 4113c96,-8 194,-15 248,-99 -92,-57 -187,39 -248,99z"/>
  <path class="fil4" d="M2935 4401c-74,117 16,453 103,489 276,112 311,-329 314,-500 -104,-73 -343,-108 -417,11zm150 418c-133,-49 -172,-564 163,-402 65,126 14,467 -163,402z"/>
  <path class="fil4" d="M3592 4888c184,90 274,-188 217,-345 -251,-115 -389,262 -217,345zm102 -279c137,9 37,256 -59,221 -93,-33 -54,-228 59,-221z"/>
  <path class="fil4" d="M496 4163c-17,178 369,256 498,151 137,-111 130,-340 121,-497 -228,-64 -597,104 -619,346zm464 72c-91,101 -377,46 -384,-63 -8,-138 292,-381 475,-275 -37,134 -9,248 -91,338z"/>
  <path class="fil4" d="M2186 4153c-114,99 -353,46 -422,177 -68,131 36,329 126,356 272,83 445,-279 296,-533zm-285 438c-214,-102 29,-382 218,-345 154,140 -15,442 -218,345z"/>
  <path class="fil4" d="M2542 4781c91,3 160,-138 176,-244 -220,-167 -459,236 -176,244zm74 -175c-12,74 -50,103 -118,80 -10,-63 55,-91 118,-80z"/>
  <path class="fil4" d="M1178 4351c-36,229 414,140 336,-117 -99,-27 -316,-10 -336,117zm83 51c-8,-98 113,-100 193,-101 0,75 -91,143 -193,101z"/>
  <path class="fil4" d="M4583 5160c-37,84 172,158 186,79 -37,-46 -133,-105 -186,-79z"/>
  <path class="fil4" d="M4087 5206c8,92 -58,184 -8,235 66,-26 70,-180 46,-225 -13,-3 -25,-7 -38,-10z"/>
  <path class="fil4" d="M3470 5134c-244,507 419,638 439,65 -111,-102 -325,-83 -439,-65zm67 60c86,-24 194,-12 294,39 -12,388 -474,334 -294,-39z"/>
  <path class="fil4" d="M2847 5186c96,-28 213,-20 278,-105 -68,-75 -247,52 -278,105z"/>
  <path class="fil4" d="M1953 5066c96,29 194,-99 238,-214 -146,-239 -468,146 -238,214zm143 -170c-43,40 -76,97 -148,85 -24,-79 102,-129 148,-85z"/>
  <path class="fil4" d="M2222 5042c-46,392 351,290 424,19 -49,-188 -284,-19 -424,-19zm93 68c47,-58 130,-52 218,-38 -8,202 -277,191 -218,38z"/>
  <path class="fil4" d="M2590 5423c-27,36 -76,110 -58,165 64,-1 92,-68 119,-135 -12,-15 -30,-26 -61,-30z"/>
 </g>
</svg>
