<?xml version="1.0" encoding="UTF-8"?>
<!DOCTYPE svg PUBLIC "-//W3C//DTD SVG 1.1//EN" "http://www.w3.org/Graphics/SVG/1.1/DTD/svg11.dtd">
<!-- Creator: CorelDRAW X8 -->
<svg xmlns="http://www.w3.org/2000/svg" xml:space="preserve" width="1.87191in" height="1.87191in" version="1.1" style="shape-rendering:geometricPrecision; text-rendering:geometricPrecision; image-rendering:optimizeQuality; fill-rule:evenodd; clip-rule:evenodd"
viewBox="0 0 625 625"
 xmlns:xlink="http://www.w3.org/1999/xlink">
 <defs>
  <style type="text/css">
   <![CDATA[
    .fil1 {fill:#6E2616}
    .fil0 {fill:#89311F}
    .fil2 {fill:#F24660}
    .fil3 {fill:#FFD493;fill-rule:nonzero}
   ]]>
  </style>
 </defs>
 <g id="Objects">
  <metadata id="CorelCorpID_0Corel-Layer"/>
  <path class="fil0" d="M313 625c172,0 312,-140 312,-312 0,-173 -140,-313 -312,-313 -173,0 -313,140 -313,313 0,172 140,312 313,312z"/>
  <path class="fil1" d="M170 420l291 -201 158 157c-25,123 -123,220 -247,244l-202 -200z"/>
  <path class="fil2" d="M205 170c-79,59 -94,171 -35,250 59,79 171,95 250,35 79,-59 95,-171 35,-250 -59,-79 -171,-94 -250,-35z"/>
  <path class="fil3" d="M172 250c-2,3 -7,5 -11,3 -4,-1 -5,-6 -4,-10 10,-22 44,-50 83,-69 34,-17 72,-28 101,-23 43,7 43,18 27,30 -9,6 -29,11 -44,15 -15,4 -46,16 -75,31 -24,11 -46,24 -58,35 -11,10 -21,24 -24,34 2,-2 5,-4 9,-6 23,-18 75,-50 121,-75 35,-18 67,-32 84,-33 16,-2 32,2 41,8 5,3 8,7 9,11 1,5 1,9 -3,14 -5,7 -16,13 -35,18 -31,9 -77,27 -117,46 -36,18 -68,36 -83,51 -13,12 -21,26 -23,36 0,2 0,3 1,4 0,0 0,0 0,0 6,0 17,-6 34,-19 34,-27 78,-58 118,-80 33,-18 64,-31 88,-33 21,-3 38,1 47,8l0 0c5,3 8,7 9,12 1,5 0,10 -4,15 -6,9 -20,17 -44,23 -37,9 -83,23 -122,40 -30,13 -57,28 -72,43 -11,11 -16,19 -16,25 0,1 0,2 0,3 1,0 2,1 4,1 7,1 18,-3 33,-12 26,-17 71,-43 111,-64 30,-15 58,-27 76,-30 15,-4 30,-1 38,5 5,3 8,7 10,13 1,5 0,10 -3,16 -7,11 -24,24 -58,36 -42,15 -77,29 -106,40 -30,12 -52,22 -63,29 -4,2 -6,4 -6,7 0,0 0,1 1,1 1,1 2,2 4,3 10,3 28,0 58,-16 41,-24 94,-50 124,-60 8,-3 14,-5 19,-5 10,-1 15,3 14,12 -1,3 -3,7 -6,11 -15,18 -35,36 -59,51 -21,13 -44,23 -68,29 -4,1 -9,-2 -10,-6 -1,-4 2,-8 6,-9 23,-5 44,-15 64,-28 20,-12 38,-28 51,-43 -2,1 -4,2 -6,2 -29,10 -81,36 -122,60 -33,18 -57,21 -70,17 -5,-2 -8,-4 -11,-8 -3,-3 -4,-7 -4,-12 0,-7 4,-15 13,-20 12,-6 35,-17 65,-29 29,-12 65,-25 107,-41 29,-10 44,-21 49,-29 1,-2 2,-4 1,-5 0,-1 -1,-2 -2,-3 -6,-4 -16,-5 -27,-3 -16,3 -43,15 -72,29 -40,21 -84,46 -110,63 -18,11 -33,16 -43,14 -6,0 -10,-2 -13,-6 -4,-4 -5,-8 -5,-14 1,-9 7,-21 21,-35 17,-17 45,-33 77,-46 40,-18 86,-32 124,-41 20,-5 31,-11 35,-17 1,-1 2,-2 1,-3 0,0 -1,-1 -2,-3l0 0 0 0c-6,-4 -19,-7 -37,-5 -21,2 -50,14 -81,31 -40,23 -83,53 -117,79 -20,16 -34,22 -43,22 -6,0 -11,-2 -14,-7 -2,-4 -3,-9 -2,-15 2,-12 12,-30 27,-45 16,-15 50,-35 87,-53 41,-20 88,-38 120,-47 16,-4 24,-8 27,-12 0,0 0,-1 0,-1 0,0 -1,-1 -2,-2 -7,-4 -19,-7 -32,-6 -15,1 -45,15 -77,32 -46,24 -97,56 -120,73 -11,8 -18,11 -23,11 -7,1 -11,-3 -12,-8 -1,-4 0,-8 1,-12 4,-12 16,-30 30,-42 13,-12 36,-26 61,-38 30,-15 62,-28 78,-32 14,-4 32,-9 39,-13 1,-1 -7,0 -21,-2 -25,-4 -60,6 -91,22 -36,18 -67,43 -75,62z"/>
 </g>
</svg>
