<?xml version="1.0" encoding="UTF-8"?>
<!DOCTYPE svg PUBLIC "-//W3C//DTD SVG 1.1//EN" "http://www.w3.org/Graphics/SVG/1.1/DTD/svg11.dtd">
<!-- Creator: CorelDRAW X8 -->
<svg xmlns="http://www.w3.org/2000/svg" xml:space="preserve" width="1.5715in" height="0.690138in" version="1.1" style="shape-rendering:geometricPrecision; text-rendering:geometricPrecision; image-rendering:optimizeQuality; fill-rule:evenodd; clip-rule:evenodd"
viewBox="0 0 6326 2778"
 xmlns:xlink="http://www.w3.org/1999/xlink">
 <defs>
  <style type="text/css">
   <![CDATA[
    .fil0 {fill:#700F08;fill-rule:nonzero}
    .fil1 {fill:#8C2408;fill-rule:nonzero}
    .fil4 {fill:#9B3214;fill-rule:nonzero}
    .fil6 {fill:#A14533;fill-rule:nonzero}
    .fil2 {fill:#AD4221;fill-rule:nonzero}
    .fil3 {fill:#C25C33;fill-rule:nonzero}
    .fil5 {fill:white;fill-rule:nonzero}
   ]]>
  </style>
 </defs>
 <g id="Layer_x0020_1">
  <metadata id="CorelCorpID_0Corel-Layer"/>
  <path class="fil0" d="M5810 6c-266,56 -592,560 -758,865 -282,-404 -865,-799 -1749,-771 -934,30 -1642,376 -1913,918 -187,-335 -569,-953 -862,-1000 -79,-12 -151,11 -208,67 -84,82 -116,158 -118,226 -2,122 92,218 152,280 68,69 93,101 92,130 0,8 -3,16 -7,26 -31,64 -77,88 -157,125 -117,53 -275,126 -282,415 0,16 0,33 0,51 9,269 183,339 286,381 22,9 53,22 64,31 0,0 0,0 0,0 -1,13 -7,56 -68,160 -62,108 -95,200 -96,277 -2,70 21,127 70,170 150,134 480,18 660,-117l290 -228c70,-56 133,-107 188,-148 345,515 1365,1008 2219,899 675,-87 1215,-450 1455,-800 539,437 730,414 795,406 69,-8 127,-41 166,-95 61,-85 85,-153 87,-210 1,-70 -31,-125 -68,-178 -36,-51 -70,-99 -68,-207 1,-14 2,-29 4,-45 15,-150 70,-187 146,-237 81,-54 191,-127 196,-326 6,-249 -192,-298 -298,-325 -30,-7 -87,-21 -96,-33 0,0 -1,-3 -1,-9 0,-2 -1,-4 -1,-6 1,-43 43,-98 83,-151 47,-61 117,-153 119,-260 2,-71 -26,-147 -111,-225 -57,-53 -132,-73 -211,-56z"/>
  <path class="fil1" d="M6149 995c7,-298 -380,-145 -395,-356 -16,-212 359,-357 125,-572 -234,-215 -764,666 -889,954 -202,-417 -770,-918 -1754,-886 -1064,33 -1736,483 -1892,1038l-23 0c0,0 -707,-1369 -995,-1085 -289,283 262,375 140,631 -121,256 -443,106 -428,542 15,435 549,145 268,630 -282,484 233,373 476,190 244,-182 445,-365 576,-444 249,521 1314,1056 2172,946 686,-88 1256,-487 1441,-856 273,232 762,602 901,411 196,-271 -104,-207 -65,-588 39,-382 334,-255 342,-555z"/>
  <path class="fil2" d="M1509 1358c-21,-512 567,-1117 1553,-1097 986,21 1189,587 1163,903 -26,316 -290,798 -1185,973 -894,175 -1509,-266 -1531,-779z"/>
  <path class="fil3" d="M1881 1692c-65,-563 526,-1277 1602,-1356 -177,-70 -388,-108 -634,-94 -922,52 -1429,666 -1375,1148 27,239 240,460 531,609 -68,-97 -112,-200 -124,-307z"/>
  <path class="fil4" d="M4615 909c56,135 79,261 71,359 -32,405 -717,1022 -1589,1094 -182,15 -369,2 -551,-34 272,106 578,162 869,139 787,-63 1403,-605 1432,-962 13,-153 -61,-382 -232,-596z"/>
  <path class="fil5" d="M2389 720c132,-318 -246,-239 -463,-172 -109,78 -199,168 -270,262 -115,291 92,462 345,347 86,-158 217,-308 388,-437z"/>
  <path class="fil6" d="M1341 1491c-10,-38 -16,-71 -19,-101 -3,-12 -3,-21 -2,-25 0,-1 0,-2 0,-3 -52,4 -804,79 -1166,134 142,94 340,57 163,374 228,-68 892,-324 1024,-379z"/>
  <path class="fil6" d="M1327 1263c-43,-37 -652,-562 -907,-757 53,61 87,128 46,213 -46,97 -119,136 -193,170 102,81 568,431 1049,495 -5,-52 -1,-93 5,-121z"/>
  <path class="fil0" d="M1373 1496c0,0 -524,59 -484,285 39,226 484,-285 484,-285z"/>
  <path class="fil0" d="M1386 1399c0,0 -658,-329 -655,-122 3,207 466,159 655,122z"/>
  <path class="fil0" d="M1332 1310c0,0 -178,-510 -312,-373 -134,137 175,313 312,373z"/>
  <path class="fil6" d="M5807 1550c10,-97 36,-161 70,-208 -231,-40 -545,-69 -837,-12 3,48 3,99 -3,153 116,39 472,156 782,254 -14,-48 -20,-108 -12,-187z"/>
  <path class="fil6" d="M5009 1143c13,46 26,109 31,181 181,-83 721,-331 1038,-492 -36,-25 -81,-38 -127,-50 -22,-3 -42,-7 -60,-15 -72,-20 -131,-48 -137,-128 -4,-46 11,-89 34,-129 -197,147 -585,469 -779,633z"/>
  <path class="fil0" d="M4932 1475c0,0 755,100 617,338 -139,238 -439,-192 -617,-338z"/>
  <path class="fil0" d="M4949 1306c0,0 670,-308 696,-107 25,201 -202,265 -696,107z"/>
  <path class="fil0" d="M4944 1212c0,0 245,-564 413,-433 167,130 -413,433 -413,433z"/>
  <path class="fil0" d="M4990 1021c-51,-105 -125,-214 -222,-320 109,181 157,236 160,661 3,425 -183,601 -441,867 227,-151 398,-329 484,-502 25,22 53,45 82,69 13,-224 -61,-779 -63,-775z"/>
  <path class="fil0" d="M1588 1937c-76,-173 -235,-595 -167,-955 -32,62 -58,126 -77,191l-23 0c0,0 -6,-12 -16,-32 -11,148 -10,336 26,512 9,-6 18,-11 27,-16 48,101 127,203 230,300z"/>
 </g>
</svg>
