<?xml version="1.0" encoding="UTF-8"?>
<!DOCTYPE svg PUBLIC "-//W3C//DTD SVG 1.1//EN" "http://www.w3.org/Graphics/SVG/1.1/DTD/svg11.dtd">
<!-- Creator: CorelDRAW X8 -->
<svg xmlns="http://www.w3.org/2000/svg" xml:space="preserve" width="2.01864in" height="4.63412in" version="1.1" style="shape-rendering:geometricPrecision; text-rendering:geometricPrecision; image-rendering:optimizeQuality; fill-rule:evenodd; clip-rule:evenodd"
viewBox="0 0 1128 2590"
 xmlns:xlink="http://www.w3.org/1999/xlink">
 <defs>
  <style type="text/css">
   <![CDATA[
    .fil0 {fill:#704121;fill-rule:nonzero}
    .fil7 {fill:#9B5E35;fill-rule:nonzero}
    .fil3 {fill:#E08A44;fill-rule:nonzero}
    .fil8 {fill:#E59D6C;fill-rule:nonzero}
    .fil1 {fill:#E8954B;fill-rule:nonzero}
    .fil4 {fill:#EF9E62;fill-rule:nonzero}
    .fil5 {fill:#F4BB90;fill-rule:nonzero}
    .fil2 {fill:#F9AD6E;fill-rule:nonzero}
    .fil6 {fill:url(#id0)}
   ]]>
  </style>
  <linearGradient id="id0" gradientUnits="userSpaceOnUse" x1="-157.681" y1="72.0121" x2="533.916" y2="-0.50429">
   <stop offset="0" style="stop-opacity:1; stop-color:#9A6546"/>
   <stop offset="1" style="stop-opacity:1; stop-color:#895A3D"/>
  </linearGradient>
 </defs>
 <g id="Layer_x0020_1">
  <metadata id="CorelCorpID_0Corel-Layer"/>
  <path class="fil0" d="M729 1700c-133,64 -316,69 -465,37 -106,-22 -154,-81 -234,-142 -4,168 79,336 264,331 47,-2 95,-15 142,-22 110,-18 222,-16 334,-14 151,3 274,-17 331,-178 63,-180 4,-367 -41,-545 -34,-137 -94,-260 -118,-400 -27,-153 -43,-309 -96,-456 -53,-145 -212,-348 -391,-296 36,-11 97,95 109,119 31,61 72,117 99,179 68,157 67,320 114,480 53,184 90,373 122,562 31,177 -48,286 -170,345z"/>
  <path class="fil1" d="M718 1858c-42,-4 -85,-2 -127,0 26,101 43,205 52,308 8,90 43,207 -44,271 -53,39 -231,30 -249,-55 36,166 249,297 384,134 93,-113 35,-297 14,-426 -12,-77 -22,-154 -30,-232z"/>
  <path class="fil2" d="M660 1860c-1,-1 -1,-3 -1,-4 -35,0 -70,2 -105,3 -66,2 -132,7 -195,24 3,75 3,151 -4,222 -10,105 -55,279 21,368 64,75 214,101 290,40 83,-67 64,-191 47,-280 -24,-123 -30,-250 -53,-373z"/>
  <path class="fil1" d="M728 1949c-17,0 -36,-2 -54,-4 13,96 21,193 39,288 17,89 36,213 -47,280 -63,50 -177,41 -250,-6 83,91 220,126 318,9 93,-113 35,-297 14,-426 -7,-47 -14,-94 -20,-141z"/>
  <path class="fil2" d="M713 2233c-18,-95 -26,-192 -39,-288 -25,-2 -47,-4 -60,-3 -1,1 -2,1 -3,1 -49,6 -101,17 -145,37 -39,18 -73,57 -108,94 -1,10 -2,21 -3,31 -10,105 -55,279 21,368 11,13 25,24 40,34 73,47 187,56 250,6 83,-67 64,-191 47,-280z"/>
  <path class="fil3" d="M659 1856c0,1 0,3 1,4 5,28 10,57 14,85 18,2 37,4 54,4 -3,-30 -7,-61 -10,-91 -19,-1 -39,-2 -59,-2z"/>
  <path class="fil4" d="M659 1856c-35,0 -70,2 -105,3 -66,2 -132,7 -195,24 2,64 3,129 -1,191 35,-37 69,-76 108,-94 44,-20 96,-31 145,-37 1,0 2,0 3,-1 13,-1 35,1 60,3 -4,-28 -9,-57 -14,-85 -1,-1 -1,-3 -1,-4z"/>
  <path class="fil5" d="M376 2473c11,13 25,24 40,34 73,47 187,56 250,6 29,-23 45,-52 53,-84 -27,27 -46,61 -86,76 -93,36 -214,-4 -256,-95 -22,-47 -23,-100 -28,-151 -2,-23 -1,-53 -3,-81 -14,101 -30,225 30,295z"/>
  <path class="fil6" d="M504 1834c114,-2 229,-1 343,-6 398,-15 90,-792 51,-999 -47,-250 -119,-872 -493,-827 -345,42 -267,628 -309,862 -47,263 -153,593 -58,856 53,147 203,128 328,120 46,-3 92,-5 138,-6z"/>
  <path class="fil7" d="M898 829c-47,-250 -119,-872 -493,-827 -9,1 -18,3 -27,5 238,18 348,338 394,537 58,248 119,485 198,728 39,117 61,273 11,392 -44,102 -161,146 -274,168 47,-1 93,-2 140,-4 398,-15 90,-792 51,-999z"/>
  <path class="fil7" d="M242 1690c-45,-111 -80,-231 -84,-351 -4,-93 29,-204 53,-294 26,-96 77,-161 83,-263 6,-110 -13,-220 -24,-330 0,-3 0,-7 -1,-12 -9,-97 -22,-286 64,-348 -226,162 -140,447 -175,681 -22,143 -75,280 -104,422 -18,93 -26,194 -22,288 4,83 14,167 45,245 10,23 20,58 36,87 63,38 150,32 229,27 -46,-39 -77,-95 -100,-152z"/>
  <path class="fil8" d="M197 461c-1,-29 0,-57 4,-85 9,-65 24,-128 37,-193 -51,102 -66,200 -66,312 0,183 -24,392 -84,566 36,-75 76,-155 92,-237 16,-89 22,-179 20,-269 0,-32 -2,-63 -3,-94z"/>
  <path class="fil8" d="M278 1845c-122,3 -208,-136 -231,-239 -12,-53 -20,-106 -21,-161 -16,72 -12,158 7,229 15,57 43,113 92,148 40,28 104,34 153,23 2,0 2,0 0,0z"/>
  <path class="fil8" d="M278 1845c-122,3 -208,-136 -231,-239 -12,-53 -20,-106 -21,-161 -16,72 -12,158 7,229 15,57 43,113 92,148 40,28 104,34 153,23 2,0 2,0 0,0z"/>
  <path class="fil8" d="M278 1845c-122,3 -208,-136 -231,-239 -12,-53 -20,-106 -21,-161 -16,72 -12,158 7,229 15,57 43,113 92,148 40,28 104,34 153,23 2,0 2,0 0,0z"/>
  <path class="fil8" d="M278 1845c-122,3 -208,-136 -231,-239 -12,-53 -20,-106 -21,-161 -16,72 -12,158 7,229 15,57 43,113 92,148 40,28 104,34 153,23 2,0 2,0 0,0z"/>
 </g>
</svg>
