<?xml version="1.0" encoding="UTF-8"?>
<!DOCTYPE svg PUBLIC "-//W3C//DTD SVG 1.1//EN" "http://www.w3.org/Graphics/SVG/1.1/DTD/svg11.dtd">
<!-- Creator: CorelDRAW X8 -->
<svg xmlns="http://www.w3.org/2000/svg" xml:space="preserve" width="2.04861in" height="1.56857in" version="1.1" style="shape-rendering:geometricPrecision; text-rendering:geometricPrecision; image-rendering:optimizeQuality; fill-rule:evenodd; clip-rule:evenodd"
viewBox="0 0 2129 1630"
 xmlns:xlink="http://www.w3.org/1999/xlink">
 <defs>
  <style type="text/css">
   <![CDATA[
    .fil5 {fill:#662408;fill-rule:nonzero}
    .fil4 {fill:#6B1208;fill-rule:nonzero}
    .fil0 {fill:#8C2408;fill-rule:nonzero}
    .fil3 {fill:#A14533;fill-rule:nonzero}
    .fil6 {fill:#FF8F94;fill-rule:nonzero}
    .fil1 {fill:#FFCFD4;fill-rule:nonzero}
    .fil2 {fill:#FFE3F0;fill-rule:nonzero}
   ]]>
  </style>
 </defs>
 <g id="Layer_x0020_1">
  <metadata id="CorelCorpID_0Corel-Layer"/>
  <path class="fil0" d="M2110 526c36,-91 14,-189 -11,-256l-7 -18 0 0c-22,-53 -52,-102 -85,-144 -30,-38 -64,-62 -100,-77l0 -1 -14 -5c-86,-30 -144,-28 -277,-20 -120,6 -304,49 -436,83 -91,23 -177,56 -277,105 -91,45 -152,89 -186,134 -75,68 -127,161 -140,268 -32,243 145,466 393,498 67,9 135,3 198,-17 53,-6 130,-38 231,-94l7 -4c0,0 0,0 0,0 71,-35 149,-75 229,-118 48,-26 98,-54 146,-83 27,-15 56,-30 87,-45 94,-46 191,-93 236,-192 2,-4 4,-8 5,-12 1,-1 1,-1 1,-2z"/>
  <path class="fil1" d="M1185 109c134,-27 292,-73 427,-75 142,-1 279,-38 379,86 86,107 156,279 95,412 -57,123 -206,164 -315,228 -123,72 -247,136 -374,200 -148,74 -257,89 -406,3 -176,-102 -256,-240 -220,-450 20,-114 275,-375 414,-404z"/>
  <path class="fil1" d="M1988 116c-100,-119 -235,-83 -376,-82 -135,2 -293,48 -427,75 -83,17 -257,110 -268,121 -14,12 -27,24 -39,37 109,-29 256,-42 375,42 191,135 674,-61 735,-193z"/>
  <path class="fil2" d="M1965 92c-97,-90 -223,-59 -353,-58 -135,2 -293,48 -427,75 -83,17 -256,109 -267,120 -10,9 -21,18 -30,27 96,-29 211,-44 302,4 189,99 733,106 775,-168z"/>
  <path class="fil3" d="M1754 74c56,-13 104,74 142,70 29,-2 -12,-63 -10,-100 -82,-28 -138,-26 -269,-19 -131,7 -336,58 -432,82 -96,25 -182,60 -273,104 -90,45 -169,97 -197,157 -28,59 464,14 554,-24 90,-38 -92,-121 -25,-146 66,-25 81,84 141,78 60,-5 -16,-90 69,-69 49,12 81,111 127,43 32,-46 -49,-105 -5,-139 50,-7 123,74 160,59 37,-14 -37,-83 18,-96z"/>
  <path class="fil4" d="M2041 420c-50,25 -59,-101 -101,-78 -41,23 5,110 -43,137 -49,26 -53,-67 -90,-50 -37,18 -22,112 -63,138 -54,5 -46,-91 -113,-97 -68,-5 -9,67 -37,107 -48,70 -41,-24 -98,-4 -57,20 -306,351 -336,447 76,6 150,-17 237,-60 127,-64 251,-128 374,-200 24,-14 50,-27 76,-40 15,-7 29,-14 44,-22 80,-40 158,-85 195,-166 35,-77 26,-166 -3,-249 -20,37 -9,121 -42,137z"/>
  <path class="fil0" d="M2086 532c36,-79 26,-171 -6,-255 0,0 -1,0 -1,1 -40,17 -18,132 -56,151 -50,25 -58,-105 -88,-84 -30,22 -8,116 -56,143 -49,26 -40,-71 -77,-58 -36,13 -35,120 -76,146 -54,5 -33,-90 -87,-103 -77,-18 -36,73 -63,113 -48,70 -48,-39 -95,-5 -47,35 -412,476 -330,476 82,-1 235,-91 246,-97 127,-64 251,-128 374,-200 109,-64 258,-105 315,-228z"/>
  <path class="fil5" d="M1457 708c-13,107 -66,199 -143,264 -90,77 -213,118 -341,101 -238,-30 -406,-244 -376,-476 30,-232 247,-395 484,-365 238,31 406,244 376,476z"/>
  <path class="fil6" d="M679 592c-15,27 -40,69 -26,99 11,23 46,33 63,54 36,45 8,99 42,144 42,53 92,-21 141,38 35,42 56,107 128,85 55,-16 82,-60 145,-57 61,2 125,9 141,-55 15,-54 -23,-83 42,-119 46,-27 92,-77 52,-127 -19,-23 -52,-32 -66,-58 -13,-25 -3,-52 7,-76 17,-39 43,-119 -26,-135 -30,-7 -52,15 -83,-1 -28,-15 -28,-41 -42,-65 -12,-22 -40,-54 -71,-50 -30,4 -38,37 -60,51 -56,39 -102,-10 -158,-21 -85,-17 -67,53 -110,94 -16,15 -45,30 -66,35 -23,5 -63,-7 -73,38 -9,45 46,78 20,126z"/>
  <path class="fil1" d="M713 615c-14,24 -37,63 -24,91 11,22 43,31 59,50 33,42 7,92 39,133 39,49 84,-19 130,35 32,39 52,99 118,79 51,-15 76,-55 134,-53 57,2 116,9 131,-50 13,-51 -22,-77 38,-111 43,-24 85,-71 48,-118 -17,-21 -47,-29 -60,-53 -13,-23 -3,-48 6,-70 16,-36 39,-110 -24,-125 -28,-7 -48,14 -77,-1 -26,-14 -26,-38 -38,-60 -12,-20 -38,-50 -66,-47 -28,4 -36,35 -56,48 -52,36 -94,-9 -146,-20 -78,-15 -62,49 -102,88 -14,13 -41,27 -61,31 -21,5 -58,-6 -67,36 -8,41 43,72 18,117z"/>
  <path class="fil0" d="M1063 818c72,-43 95,-150 35,-217 -31,-33 -90,-40 -124,-9 -10,13 -42,68 -7,61 12,3 26,-23 46,-28 42,-8 70,46 61,83 -31,99 -154,90 -203,18 -64,-99 -2,-218 106,-251 104,-30 200,31 239,124 62,143 -47,280 -114,316 -42,23 -75,37 -97,46 65,3 130,-16 186,-55 36,-35 63,-75 77,-120 22,-71 25,-109 7,-170 -18,-61 -29,-79 -52,-109 -60,-81 -170,-115 -266,-87 -69,22 -128,76 -155,143 -25,74 -15,158 42,222 56,63 151,71 219,33z"/>
  <path class="fil0" d="M2 1172c22,-176 245,-199 520,-161 274,37 522,117 500,292 -23,176 -309,245 -564,214 -254,-31 -479,-170 -456,-345z"/>
  <path class="fil0" d="M1014 1319c8,-66 -116,-187 -466,-231 -351,-43 -530,35 -538,101 -4,31 -1,240 49,279 50,39 64,105 369,146 304,41 426,-7 465,-41 38,-33 117,-223 121,-254z"/>
  <path class="fil1" d="M698 1386l4 1c0,0 -2,-1 -4,-1zm0 0l-390 -96c0,0 -148,64 -131,165 9,57 101,111 177,147 24,4 50,8 78,12 88,12 161,17 222,16 8,-7 14,-17 16,-29 15,-85 -125,-14 -106,-131 17,-105 113,-89 134,-84z"/>
  <path class="fil0" d="M149 1386c0,0 146,143 548,87 402,-56 -830,-334 -548,-87z"/>
  <path class="fil6" d="M932 1298c15,-15 43,-39 23,-58 -15,-15 -58,-24 -80,-38 -48,-30 -18,-60 -63,-90 -55,-35 -109,5 -172,-34 -46,-28 -76,-69 -162,-62 -65,6 -94,30 -170,24 -74,-7 -151,-16 -166,21 -13,32 35,52 -40,69 -55,12 -106,39 -53,73 24,15 64,23 83,40 18,16 8,31 -2,45 -17,23 -42,69 42,84 37,7 62,-5 101,8 34,11 37,26 55,42 17,14 53,36 89,36 37,0 44,-19 69,-27 65,-18 123,15 192,26 104,17 77,-27 125,-48 18,-8 52,-15 78,-16 27,-1 76,9 84,-17 8,-27 -62,-51 -33,-78z"/>
  <path class="fil1" d="M889 1281c14,-13 39,-35 21,-53 -14,-14 -54,-22 -74,-35 -44,-28 -16,-56 -58,-83 -51,-33 -101,5 -159,-32 -43,-26 -71,-64 -150,-57 -60,5 -87,28 -158,22 -67,-6 -139,-15 -153,20 -12,29 32,48 -37,64 -51,11 -98,36 -49,67 22,14 60,21 77,37 17,15 7,29 -2,42 -16,20 -39,63 39,77 34,6 57,-4 93,7 32,11 34,25 51,39 15,13 49,34 83,34 33,0 40,-18 63,-25 60,-17 114,13 178,24 96,15 71,-25 116,-45 16,-7 48,-13 71,-14 26,-2 71,8 78,-16 7,-25 -57,-47 -30,-73z"/>
  <path class="fil0" d="M343 1275c102,31 233,17 257,-34 12,-26 -28,-62 -87,-73 -23,-3 -106,-7 -71,11 7,8 44,9 66,19 42,22 7,52 -40,56 -130,7 -218,-66 -180,-113 56,-61 230,-55 351,-1 113,52 125,122 57,168 -103,72 -335,44 -426,14 -57,-18 -98,-34 -125,-44 48,38 120,71 205,93 66,12 129,17 189,14 92,-5 135,-13 185,-39 51,-25 61,-36 74,-57 39,-55 -11,-126 -117,-175 -78,-34 -182,-54 -273,-53 -100,4 -180,31 -203,80 -23,48 44,105 138,134z"/>
 </g>
</svg>
