<?xml version="1.0" encoding="UTF-8"?>
<!DOCTYPE svg PUBLIC "-//W3C//DTD SVG 1.1//EN" "http://www.w3.org/Graphics/SVG/1.1/DTD/svg11.dtd">
<!-- Creator: CorelDRAW X8 -->
<svg xmlns="http://www.w3.org/2000/svg" xml:space="preserve" width="3.88743in" height="4.29281in" version="1.1" style="shape-rendering:geometricPrecision; text-rendering:geometricPrecision; image-rendering:optimizeQuality; fill-rule:evenodd; clip-rule:evenodd"
viewBox="0 0 876 967"
 xmlns:xlink="http://www.w3.org/1999/xlink">
 <defs>
  <style type="text/css">
   <![CDATA[
    .fil9 {fill:#3A2119;fill-rule:nonzero}
    .fil1 {fill:#743F30;fill-rule:nonzero}
    .fil3 {fill:#791454;fill-rule:nonzero}
    .fil6 {fill:#BFAA8E;fill-rule:nonzero}
    .fil2 {fill:#E53E72;fill-rule:nonzero}
    .fil4 {fill:#EC8BA5;fill-rule:nonzero}
    .fil5 {fill:#F9739C;fill-rule:nonzero}
    .fil8 {fill:#FFB6D4;fill-rule:nonzero}
    .fil0 {fill:#FFF9D9;fill-rule:nonzero}
    .fil7 {fill:white;fill-rule:nonzero}
   ]]>
  </style>
 </defs>
 <g id="Layer_x0020_1">
  <metadata id="CorelCorpID_0Corel-Layer"/>
  <path class="fil0" d="M266 186c-2,7 -6,22 -3,30 4,8 21,16 30,14 4,-1 6,-7 11,-7 7,1 13,9 21,9 5,-4 6,-16 11,-19 5,1 11,3 15,2 4,-5 5,-15 8,-23 6,1 12,1 17,-1 4,-12 1,-20 3,-30 1,-4 7,2 9,-3 1,-11 -2,-19 -1,-30 2,-3 7,1 8,-4 -5,-11 0,-28 -8,-38 -24,45 -103,44 -121,100z"/>
  <path class="fil0" d="M214 175c-3,5 -9,5 -9,11 -1,8 6,3 12,12 2,4 -1,11 2,14 7,9 32,12 37,4 5,-7 1,-23 4,-32 21,-63 98,-51 123,-103 0,-1 0,-1 -2,-2 -12,5 -30,19 -41,2 -16,11 -24,19 -40,0 -10,4 -5,11 -13,15 -14,8 -37,-13 -38,17 -8,-2 -13,1 -20,1 -3,8 -3,14 -3,20 -23,2 -23,25 -12,41z"/>
  <path class="fil1" d="M141 354c9,6 22,11 30,18 12,10 18,25 25,35 18,25 37,49 55,72 14,18 34,26 55,45 12,9 19,23 30,33 13,10 28,17 43,27 27,19 42,48 63,66 9,8 20,11 27,17 10,9 17,24 29,30 0,-17 8,-36 0,-51 -3,-7 -11,-12 -14,-18 -6,-9 -7,-27 -13,-32 -12,-11 -31,-8 -39,-23 -33,25 -49,-20 -42,-49 -55,-16 -81,-47 -86,-88 -36,-2 -24,-35 -43,-48 -8,8 -13,19 -23,18 -24,-4 -18,-31 -30,-42 -3,-3 -10,-4 -14,-7 -20,-18 -11,-56 -28,-71 -3,-3 -8,-4 -11,-6 -14,-11 -15,-28 -23,-39 -26,1 -34,-21 -49,-31 -2,10 -2,33 -9,53 -3,9 -11,20 -10,28 1,20 33,27 53,42 8,7 14,15 24,21z"/>
  <path class="fil2" d="M394 264c-25,60 0,87 58,101 32,8 67,16 95,13 16,-1 32,-7 47,-8 18,-1 36,3 54,2 53,-4 123,-26 147,-86 13,-34 6,-82 -5,-106 -9,-18 -34,-53 -48,-68 -8,-10 -19,-19 -30,-29 -17,-15 -30,-30 -59,-36 -30,-7 -64,7 -82,20 -17,13 -31,33 -46,46 -15,12 -32,24 -49,39 -34,30 -63,67 -82,112zm10 40c-14,-14 18,-45 22,-24 3,13 -15,18 -22,24zm10 25c6,-11 37,-6 32,7 -4,9 -28,2 -32,-7zm148 25c2,-12 28,-21 28,-8 0,12 -19,13 -28,8zm61 -15c-2,-20 40,-25 38,-9 -2,14 -29,11 -38,9zm75 0c-1,-15 32,-36 38,-21 6,17 -28,22 -38,21zm80 -79c-1,14 -22,14 -33,14 -1,-18 36,-34 33,-14zm-1 -63c-4,10 -21,4 -32,5 3,-18 42,-27 32,-5zm-25 -55c14,8 -14,30 -25,24 1,-10 17,-27 25,-24zm-38 147c-1,13 -24,13 -36,13 -1,-16 39,-33 36,-13zm-11 -61c-4,18 -29,12 -43,15 7,-7 14,-20 24,-25 10,-5 22,0 19,10zm-2 -84c-1,16 -33,16 -44,14 -1,-13 46,-40 44,-14zm-19 -65c20,1 -6,32 -16,26 -10,-6 10,-26 16,-26zm-71 190c0,17 -31,13 -43,15 2,-18 43,-34 43,-15zm9 -78c-4,12 -25,13 -34,14 2,-19 41,-36 34,-14zm5 -112c8,-2 14,5 12,12 -3,10 -21,15 -31,17 3,-7 10,-28 19,-29zm-70 247c1,16 -28,17 -38,14 1,-18 37,-29 38,-14zm-80 28c5,-5 23,-11 27,-2 5,14 -23,14 -27,2zm56 -89c-2,16 -27,11 -36,13 2,-19 39,-31 36,-13zm35 -152c5,1 9,11 5,19 -5,9 -20,6 -27,14 -7,-9 14,-35 22,-33zm-17 72c2,14 -21,22 -32,21 -3,-15 31,-38 32,-21zm-67 138c-6,3 -33,1 -33,-9 1,-10 47,-19 33,9zm-39 -65c-9,-19 29,-43 31,-24 2,16 -24,18 -31,24zm47 -91c4,3 4,12 -1,19 -6,7 -20,6 -29,11 0,-13 19,-40 30,-30z"/>
  <path class="fil3" d="M487 173c-10,-3 -13,6 -17,15 8,-1 15,-3 17,-15z"/>
  <path class="fil4" d="M343 794c-20,-21 -53,-26 -72,-47 -18,-20 -22,-54 -38,-73 -14,-18 -44,-27 -64,-44 -8,-8 -17,-18 -25,-26 -9,-9 -16,-21 -24,-28 -14,-10 -28,-15 -39,-24 -11,-8 -21,-18 -29,-29 -5,-6 -5,-13 -9,-21 -8,-15 -17,-25 -20,-40 -4,11 -10,30 -10,45 0,6 4,13 3,20 0,16 -8,35 -4,47 6,16 38,25 47,41 5,7 4,18 8,25 20,38 72,56 105,90 17,19 29,46 53,67 23,21 40,46 60,65 10,9 21,19 34,24 26,9 53,15 75,30 16,11 22,24 39,32 8,-20 23,-36 29,-58 -32,-20 -70,-29 -94,-57 -10,-12 -14,-28 -25,-39z"/>
  <path class="fil3" d="M542 185c-6,-1 -13,6 -13,13 6,-1 13,-6 13,-13z"/>
  <path class="fil3" d="M509 271c7,1 12,-1 16,-7 -6,-4 -13,1 -16,7z"/>
  <path class="fil3" d="M452 245c7,0 15,-4 15,-11 -7,-2 -12,3 -15,11z"/>
  <path class="fil3" d="M459 316c29,11 14,-18 0,0l0 0z"/>
  <path class="fil3" d="M564 119c-5,4 -10,9 -13,16 7,2 21,-8 13,-16z"/>
  <path class="fil5" d="M330 589c-7,-7 -60,-27 -73,-29 -23,-4 -31,16 -27,38 4,23 45,74 68,79 17,3 37,-9 43,-24 9,-19 0,-54 -11,-64zm-85 -7c4,-4 15,2 12,9 -4,0 -11,-4 -12,-9zm-4 16c7,0 11,8 11,14 -7,1 -10,-8 -11,-14zm28 -20c2,-6 15,-2 11,5 -2,0 -8,-3 -11,-5zm5 55c-5,-1 -8,-3 -8,-7 3,-5 12,1 8,7zm15 -31c4,2 10,3 8,9 -4,1 -12,-3 -8,-9zm23 -3c-4,-1 -8,-2 -9,-5 2,-3 13,-2 9,5zm-19 39c2,0 9,1 9,4 -2,6 -12,1 -9,-4zm-6 24c3,-6 12,-1 10,5 -4,1 -7,-3 -10,-5zm39 -40c-3,-3 -8,-4 -7,-9 5,-1 11,3 7,9zm-1 22c4,1 5,4 3,8 -4,-1 -6,-3 -5,-7 1,1 2,0 2,-1z"/>
  <path class="fil5" d="M129 401c-21,-4 -31,3 -49,11 -10,4 -30,8 -34,20 -7,18 15,31 31,42 28,20 61,44 89,30 18,-10 26,-47 18,-66 -6,-14 -28,-33 -55,-37zm-65 53c-3,0 -5,-1 -4,-5 3,-2 7,1 4,5zm4 -23c2,-3 10,-3 13,-1 -2,5 -12,6 -13,1zm14 31c0,-2 1,-3 1,-4 4,-1 9,4 10,8 -3,5 -8,-1 -11,-4zm27 -18c-3,-1 -8,-1 -9,-4 1,-5 10,-2 11,2 -1,0 -1,1 -2,2zm-4 -25c0,-1 0,-2 0,-2 3,-5 14,-5 18,-2 -5,4 -11,5 -18,4zm70 27c-5,-2 -6,-7 -4,-12 5,2 5,6 4,12zm-5 23c-2,1 -5,1 -10,-1 1,-1 0,-2 1,-4 4,0 11,-1 9,5zm-43 -8c3,-2 8,1 9,4 -2,4 -9,3 -11,0 1,-2 1,-3 2,-4zm-6 22c0,-1 0,-2 1,-3 5,-1 10,5 13,8 -4,7 -12,-3 -14,-5zm19 -50c6,-1 12,4 16,5 -2,5 -19,2 -16,-5zm11 60c2,-5 13,-5 14,-1 -2,4 -11,3 -14,1z"/>
  <path class="fil3" d="M409 293c5,-1 9,-4 11,-12 -1,0 -1,-1 -3,-2 -3,3 -7,6 -8,14z"/>
  <path class="fil3" d="M576 349c3,1 5,2 6,-2 -3,-1 -5,1 -6,2z"/>
  <path class="fil3" d="M426 331c4,1 11,4 13,0 -3,-3 -10,-2 -13,0z"/>
  <path class="fil3" d="M711 331c8,1 15,-1 18,-9 -7,-4 -14,3 -18,9z"/>
  <path class="fil3" d="M771 258c-6,-5 -12,4 -16,10 7,-2 13,-3 16,-10z"/>
  <path class="fil3" d="M631 334c10,2 18,2 23,-6 -10,-3 -17,1 -23,6z"/>
  <path class="fil6" d="M702 61c17,-18 22,-36 3,-50 -13,14 -17,39 -3,50z"/>
  <path class="fil6" d="M807 217c1,7 -3,15 0,22 4,12 37,30 42,16 2,-4 -9,-24 -17,-28 -8,-6 -16,-4 -25,-10z"/>
  <path class="fil6" d="M733 94c4,-17 22,-22 26,-36 4,-14 -6,-28 -7,-43 -4,22 -50,32 -43,57 2,9 16,13 24,22z"/>
  <path class="fil6" d="M804 203c18,20 53,-5 57,-27 -24,-3 -49,-9 -69,-5 8,8 5,25 12,32z"/>
  <path class="fil6" d="M819 80c-34,-8 -56,8 -78,23 24,32 71,15 78,-23z"/>
  <path class="fil6" d="M836 143c-24,-11 -46,-5 -69,-8 9,27 55,33 69,8z"/>
  <path class="fil3" d="M603 268c-10,-5 -15,2 -20,9 8,0 17,0 20,-9z"/>
  <path class="fil3" d="M684 86c-7,-3 -10,4 -13,10 6,0 11,-3 13,-10z"/>
  <path class="fil3" d="M600 198c5,-3 12,-4 15,-12 -5,-3 -15,5 -15,12z"/>
  <path class="fil3" d="M546 327c-5,-4 -14,0 -17,8 7,0 15,1 17,-8z"/>
  <path class="fil3" d="M631 86c-9,-5 -11,6 -15,13 6,-2 15,-5 15,-13z"/>
  <path class="fil3" d="M749 151c0,-1 0,-2 -2,-2 -2,3 -10,5 -8,10 3,-2 8,-2 10,-8z"/>
  <path class="fil3" d="M773 193c-2,-8 -13,-3 -15,4 6,1 12,1 15,-4z"/>
  <path class="fil3" d="M694 143c-10,-9 -20,3 -22,10 7,-4 18,1 22,-10z"/>
  <path class="fil3" d="M698 224c-9,-6 -17,5 -23,11 10,0 19,0 23,-11z"/>
  <path class="fil3" d="M707 287c-7,-2 -12,1 -15,8 6,-1 13,-1 15,-8z"/>
  <path class="fil0" d="M659 539c0,-11 3,-24 -5,-31 -4,0 -7,5 -13,3 0,-14 -9,-23 -25,-19 -3,-9 3,-23 -4,-28 -8,-5 -29,7 -23,-14 -9,-4 -13,3 -21,-1 -4,-3 -4,-12 -8,-13 -4,-2 -9,5 -14,4 -10,-2 -11,-15 -22,-21 1,17 -16,22 -19,28 -4,7 3,18 -1,27 -1,4 -7,7 -7,9 -4,16 21,25 14,43 8,6 22,9 27,16 -1,3 -4,8 -3,11 22,-3 19,18 26,21 9,3 16,-13 28,-6 1,3 -1,8 -1,11 18,0 36,-2 57,4 -10,-38 -71,-57 -91,-91 -5,-9 -16,-30 -4,-38 -1,58 77,76 103,120 6,-8 15,-17 15,-30 -1,-4 -6,-2 -9,-5z"/>
  <path class="fil1" d="M719 652c5,-16 36,-57 8,-62 1,24 -18,36 -25,51 -6,14 -4,24 -13,35 -11,12 -29,9 -39,20 -9,10 -7,27 -12,37 -5,10 -15,17 -21,20 -12,5 -26,-1 -36,6 -23,17 -28,114 -68,97 -10,-4 -14,-24 -13,-35 3,-22 26,-55 15,-73 -11,19 -14,42 -22,60 -11,28 -8,58 -18,83 -7,20 -21,37 -24,58 14,4 24,-9 34,-15 13,-8 29,-11 42,-18 14,-7 28,-15 40,-25 25,-18 46,-43 72,-63 7,-5 17,-8 24,-13 17,-13 28,-51 37,-77 5,-14 11,-39 16,-59 2,-9 1,-19 3,-27z"/>
  <path class="fil7" d="M504 740c0,-6 -4,-8 -5,-15 -2,-7 1,-14 -1,-18 -2,-3 -11,-10 -16,-15 -12,-14 -28,-22 -42,-35 -16,-13 -27,-34 -43,-49 -15,-15 -35,-24 -53,-37 -16,-13 -28,-30 -43,-43 -10,-9 -24,-14 -34,-23 -13,-11 -25,-29 -37,-46 -11,-17 -27,-30 -37,-44 -10,-13 -13,-28 -24,-37 -8,-7 -21,-12 -32,-19 -21,-15 -40,-33 -67,-45 -3,8 -11,19 -12,26 -1,7 2,15 0,23 -5,26 -29,47 -31,72 -1,18 16,35 27,54 4,8 5,20 10,27 17,23 47,35 67,56 7,7 11,18 18,26 8,8 15,17 23,23 22,19 49,28 67,48 15,16 18,49 35,66 14,16 40,21 60,36 15,12 26,34 40,48 12,12 31,19 43,28 16,12 27,30 49,32 12,-29 17,-70 25,-100 4,-14 12,-28 13,-39zm-384 -232c-26,-11 -75,-46 -80,-60 -9,-24 16,-33 33,-41 23,-9 36,-19 64,-11 39,12 52,33 54,62 4,41 -27,68 -71,50zm228 145c-10,25 -44,41 -73,19 -21,-17 -49,-59 -51,-76 -4,-28 9,-45 31,-41 14,2 62,17 75,27 15,10 28,48 18,71zm15 109c-6,-10 -11,-32 -1,-50 7,-13 30,-25 54,-19 40,10 56,59 57,96 4,83 -98,-2 -110,-27z"/>
  <path class="fil5" d="M414 698c-22,-5 -44,3 -51,27 -10,38 34,75 68,89 25,10 36,2 36,-23 0,-34 -16,-85 -53,-93zm-27 28c6,-2 11,7 5,11 -4,-2 -6,-6 -5,-11zm-4 32c6,1 9,4 8,8 -4,1 -11,-2 -8,-8zm30 -35c5,2 8,5 5,11 -4,-1 -5,-4 -8,-6 1,-3 2,-4 3,-5zm4 45c-5,0 -8,-4 -11,-7 3,-7 15,0 11,7zm22 -10c5,3 6,10 1,13 -4,-2 -7,-11 -1,-13zm-11 33c6,-1 11,5 10,10 -5,1 -12,-4 -10,-10zm29 0c-3,-2 -6,-5 -4,-9 4,-2 9,6 4,9z"/>
  <path class="fil8" d="M810 446c2,-8 -4,-13 -4,-20 1,-5 4,-10 5,-14 1,-9 -4,-20 -9,-26 -4,-5 -16,-13 -15,-20 1,-14 18,-34 -1,-42 -17,21 -37,28 -60,37 -33,14 -63,23 -100,24 -7,1 -16,-3 -24,-2 -13,1 -33,10 -48,12 -12,1 -26,0 -41,-4 -45,-10 -104,-23 -125,-45 -18,-18 -15,-49 -1,-81 25,-60 71,-110 111,-139 -17,-17 -37,-2 -54,-3 -13,0 -28,-13 -41,-8 5,14 -7,13 -10,21 -3,8 5,20 1,28 -1,2 -8,3 -9,6 -4,7 2,18 -4,25 -3,4 -14,2 -18,8 -5,6 -1,10 -7,17 -5,3 -13,0 -19,2 -2,20 -16,17 -33,9 -9,9 -28,4 -39,-4 -5,3 3,15 -6,16 -5,-4 0,-13 -2,-18 -13,1 -28,4 -42,-6 -5,-4 -2,-13 -5,-18 -4,-6 -15,-8 -13,-15 0,-4 8,-6 9,-11 3,-12 -13,-21 -5,-34 5,-9 20,-2 19,-14 0,-6 -15,-11 -21,-12 -16,-1 -39,-5 -53,1 -19,7 -28,22 -46,24 -19,2 -51,-10 -45,21 3,22 34,23 46,34 7,7 7,21 19,28 6,4 14,4 25,9 2,8 2,15 5,22 6,15 21,15 32,26 10,11 2,40 11,53 8,12 33,16 37,25 5,11 -5,36 12,35 6,0 8,-13 13,-15 22,-11 25,26 35,35 6,5 25,7 31,13 4,5 2,20 3,28 2,9 3,19 8,25 13,18 42,17 63,31 15,11 -3,47 15,54 17,6 16,-23 25,-23 4,0 7,18 8,20 7,15 25,12 39,23 8,6 6,24 11,32 8,14 23,20 25,36 2,20 -15,49 -5,67 3,6 13,7 19,14 14,15 -4,37 -13,61 -5,15 -8,44 0,48 12,7 18,-17 23,-29 4,-11 9,-15 13,-23 5,-12 9,-34 18,-42 15,-12 42,2 54,-13 9,-11 4,-41 17,-54 6,-6 20,-5 25,-8 12,-8 11,-24 18,-39 3,-6 13,-8 18,-15 10,-15 0,-41 9,-53 5,-6 7,0 15,-4 7,-4 6,-11 13,-10 19,3 2,35 14,38 7,2 12,-16 14,-24 3,-13 0,-33 5,-45 6,-14 17,-21 20,-34 2,-8 0,-16 3,-23 4,-7 10,-11 12,-18zm-685 -282c-6,-1 -12,4 -16,-3 23,-13 55,17 50,36 -8,-11 -16,-29 -34,-33zm222 122c-13,-10 -36,-11 -46,-7 6,-15 41,-7 46,7zm-19 96c-29,-25 -88,-44 -78,-85 1,1 2,1 2,1 0,40 56,52 85,81 24,23 33,56 60,70 -33,-6 -42,-44 -69,-67zm95 27c6,-16 36,-22 42,-3 -16,-11 -29,-1 -42,3zm252 -5c-14,-18 -32,-4 -44,5 1,-21 46,-30 44,-5zm-228 100c0,-1 0,-2 1,-3 11,2 23,29 34,41 17,18 35,32 53,44 -45,-13 -66,-52 -88,-82zm119 186c4,-10 6,-28 11,-38 1,1 1,1 2,1 2,9 -5,29 -13,37zm-4 -82c12,4 27,17 41,12 -8,12 -40,4 -41,-12zm94 -24c-2,8 5,13 -2,19 -21,-24 -66,2 -81,-22 -17,14 -16,-7 -28,-15 -11,-6 -17,-2 -27,-10 0,-3 1,-7 1,-10 -8,-4 -17,-9 -22,-15 6,-17 -25,-27 -14,-51 2,-4 5,-3 8,-9 5,-8 4,-19 10,-33 3,-1 5,-1 8,-1 5,-11 10,-22 17,-29 9,12 21,33 39,19 8,5 1,11 8,15 9,6 29,-6 24,15 8,3 16,-3 21,0 6,7 2,20 5,28 13,-5 22,7 23,17 20,-8 22,15 20,31 1,2 5,2 8,3 9,20 -14,32 -18,48zm71 -135c23,-15 15,-48 -9,-57 1,-1 1,-2 1,-3 33,0 39,55 8,60zm8 66c11,-6 29,-16 20,-33 0,-1 1,-2 2,-2 19,11 -5,38 -22,35zm43 -80c11,-9 6,-23 9,-32 1,0 2,1 3,1 5,9 1,30 -12,31z"/>
  <path class="fil9" d="M818 442c1,-5 -3,-11 -3,-17 0,-14 3,-23 0,-31 -3,-9 -20,-19 -20,-28 0,-16 12,-25 5,-38 -2,-5 -11,-7 -11,-13 0,-8 12,-23 15,-35 3,-11 2,-19 4,-27 12,14 37,16 49,7 -4,-18 -11,-34 -29,-44 22,-4 38,-29 48,-50 -13,0 -36,5 -53,-4 7,-8 22,-12 26,-22 -28,-16 -60,-7 -86,-13 37,9 55,-31 74,-53 -35,-8 -72,3 -95,17 4,-13 20,-17 25,-32 4,-14 -5,-31 -5,-41 0,-7 3,-11 -1,-13 -11,-9 -24,30 -35,30 -6,-12 -12,-30 -27,-35 -6,17 -17,35 -12,52 -49,-24 -94,-10 -123,14 -12,10 -46,56 -61,55 -7,-1 -12,-8 -20,-9 -12,-2 -29,8 -44,5 -16,-4 -25,-12 -41,-9 5,-17 -7,-25 -3,-41 -16,2 -40,30 -50,6 -11,-3 -17,15 -27,14 -10,-1 -11,-13 -21,-11 -6,1 -7,13 -14,15 -12,6 -37,-12 -38,15 -9,3 -20,1 -26,9 -26,-8 -61,-12 -82,-1 -10,6 -16,14 -26,18 -15,5 -47,-5 -56,4 -10,10 -11,38 -7,49 5,12 17,17 28,24 7,27 -14,53 -18,78 -1,9 6,17 5,25 0,10 -8,18 -10,27 -2,6 2,14 0,22 -4,25 -28,46 -31,72 -1,4 4,12 2,18 -1,3 -5,7 -7,10 -5,12 -10,33 -10,46 0,10 5,17 3,25 -2,11 -11,26 -10,38 2,23 39,29 53,51 4,6 4,15 8,22 15,32 54,53 90,83 13,11 23,30 35,46 12,15 27,29 40,43 34,35 60,74 119,92 38,11 74,66 118,60 16,-2 30,-20 44,-28 16,-9 38,-12 54,-24 27,-20 49,-53 75,-74 11,-9 30,-13 38,-21 19,-22 27,-77 39,-110 13,-38 15,-68 32,-106 40,-3 29,-56 37,-80 5,-14 19,-23 22,-37 1,-7 -1,-13 1,-18 4,-11 12,-16 13,-27zm14 -215c8,4 19,24 17,28 -5,14 -38,-4 -42,-16 -3,-7 1,-15 0,-22 9,6 17,4 25,10zm29 -51c-4,22 -39,47 -57,27 -7,-7 -4,-24 -12,-32 20,-4 45,2 69,5zm-25 -33c-14,25 -60,19 -69,-8 23,3 45,-3 69,8zm-17 -63c-7,38 -54,55 -78,23 22,-15 44,-31 78,-23zm-67 -65c1,15 11,29 7,43 -4,14 -22,19 -26,36 -8,-9 -22,-13 -24,-22 -7,-25 39,-35 43,-57zm-47 -4c19,14 14,32 -3,50 -14,-11 -10,-36 3,-50zm-180 102c15,-13 29,-33 46,-46 18,-13 52,-27 82,-20 29,6 42,21 59,36 11,10 22,19 30,29 14,15 39,50 48,68 11,24 18,72 5,106 -24,60 -94,82 -147,86 -18,1 -36,-3 -54,-2 -15,1 -31,7 -47,8 -28,3 -63,-5 -95,-13 -58,-14 -83,-41 -58,-101 19,-45 48,-82 82,-112 17,-15 34,-27 49,-39zm-130 11c-1,5 -6,1 -8,4 -1,11 2,19 1,30 -2,5 -8,-1 -9,3 -2,10 1,18 -3,30 -5,2 -11,2 -17,1 -3,8 -4,18 -8,23 -4,1 -10,-1 -15,-2 -5,3 -6,15 -11,19 -8,0 -14,-8 -21,-9 -5,0 -7,6 -11,7 -9,2 -26,-6 -30,-14 -3,-8 1,-23 3,-30 18,-56 97,-55 121,-100 8,10 3,27 8,38zm-166 -10c7,0 12,-3 20,-1 1,-30 24,-9 38,-17 8,-4 3,-11 13,-15 16,19 24,11 40,0 11,17 29,3 41,-2 2,1 2,1 2,2 -25,52 -102,40 -123,103 -3,9 1,25 -4,32 -5,8 -30,5 -37,-4 -3,-3 0,-10 -2,-14 -6,-9 -13,-4 -12,-12 0,-6 6,-6 9,-11 -11,-16 -11,-39 12,-41 0,-6 0,-12 3,-20zm-165 177c-1,-8 7,-19 10,-28 7,-20 7,-43 9,-53 15,10 23,32 49,31 8,11 9,28 23,39 3,2 8,3 11,6 17,15 8,53 28,71 4,3 11,4 14,7 12,11 6,38 30,42 10,1 15,-10 23,-18 19,13 7,46 43,48 5,41 31,72 86,88 -7,29 9,74 42,49 8,15 27,12 39,23 6,5 7,23 13,32 3,6 11,11 14,18 8,15 0,34 0,51 -12,-6 -19,-21 -29,-30 -7,-6 -18,-9 -27,-17 -21,-18 -36,-47 -63,-66 -15,-10 -30,-17 -43,-27 -11,-10 -18,-24 -30,-33 -21,-19 -41,-27 -55,-45 -18,-23 -37,-47 -55,-72 -7,-10 -13,-25 -25,-35 -8,-7 -21,-12 -30,-18 -10,-6 -16,-14 -24,-21 -20,-15 -52,-22 -53,-42zm369 657c-17,-8 -23,-21 -39,-32 -22,-15 -49,-21 -75,-30 -13,-5 -24,-15 -34,-24 -20,-19 -37,-44 -60,-65 -24,-21 -36,-48 -53,-67 -33,-34 -85,-52 -105,-90 -4,-7 -3,-18 -8,-25 -9,-16 -41,-25 -47,-41 -4,-12 4,-31 4,-47 1,-7 -3,-14 -3,-20 0,-15 6,-34 10,-45 3,15 12,25 20,40 4,8 4,15 9,21 8,11 18,21 29,29 11,9 25,14 39,24 8,7 15,19 24,28 8,8 17,18 25,26 20,17 50,26 64,44 16,19 20,53 38,73 19,21 52,26 72,47 11,11 15,27 25,39 24,28 62,37 94,57 -6,22 -21,38 -29,58zm33 -69c-22,-2 -33,-20 -49,-32 -12,-9 -31,-16 -43,-28 -14,-14 -25,-36 -40,-48 -20,-15 -46,-20 -60,-36 -17,-17 -20,-50 -35,-66 -18,-20 -45,-29 -67,-48 -8,-6 -15,-15 -23,-23 -7,-8 -11,-19 -18,-26 -20,-21 -50,-33 -67,-56 -5,-7 -6,-19 -10,-27 -11,-19 -28,-36 -27,-54 2,-25 26,-46 31,-72 2,-8 -1,-16 0,-23 1,-7 9,-18 12,-26 27,12 46,30 67,45 11,7 24,12 32,19 11,9 14,24 24,37 10,14 26,27 37,44 12,17 24,35 37,46 10,9 24,14 34,23 15,13 27,30 43,43 18,13 38,22 53,37 16,15 27,36 43,49 14,13 30,21 42,35 5,5 14,12 16,15 2,4 -1,11 1,18 1,7 5,9 5,15 -1,11 -9,25 -13,39 -8,30 -13,71 -25,100zm234 -141c-9,26 -20,64 -37,77 -7,5 -17,8 -24,13 -26,20 -47,45 -72,63 -12,10 -26,18 -40,25 -13,7 -29,10 -42,18 -10,6 -20,19 -34,15 3,-21 17,-38 24,-58 10,-25 7,-55 18,-83 8,-18 11,-41 22,-60 11,18 -12,51 -15,73 -1,11 3,31 13,35 40,17 45,-80 68,-97 10,-7 24,-1 36,-6 6,-3 16,-10 21,-20 5,-10 3,-27 12,-37 10,-11 28,-8 39,-20 9,-11 7,-21 13,-35 7,-15 26,-27 25,-51 28,5 -3,46 -8,62 -2,8 -1,18 -3,27 -5,20 -11,45 -16,59zm95 -251c-3,13 -14,20 -20,34 -5,12 -2,32 -5,45 -2,8 -7,26 -14,24 -12,-3 5,-35 -14,-38 -7,-1 -6,6 -13,10 -8,4 -10,-2 -15,4 -9,12 1,38 -9,53 -5,7 -15,9 -18,15 -7,15 -6,31 -18,39 -5,3 -19,2 -25,8 -13,13 -8,43 -17,54 -12,15 -39,1 -54,13 -9,8 -13,30 -18,42 -4,8 -9,12 -13,23 -5,12 -11,36 -23,29 -8,-4 -5,-33 0,-48 9,-24 27,-46 13,-61 -6,-7 -16,-8 -19,-14 -10,-18 7,-47 5,-67 -2,-16 -17,-22 -25,-36 -5,-8 -3,-26 -11,-32 -14,-11 -32,-8 -39,-23 -1,-2 -4,-20 -8,-20 -9,0 -8,29 -25,23 -18,-7 0,-43 -15,-54 -21,-14 -50,-13 -63,-31 -5,-6 -6,-16 -8,-25 -1,-8 1,-23 -3,-28 -6,-6 -25,-8 -31,-13 -10,-9 -13,-46 -35,-35 -5,2 -7,15 -13,15 -17,1 -7,-24 -12,-35 -4,-9 -29,-13 -37,-25 -9,-13 -1,-42 -11,-53 -11,-11 -26,-11 -32,-26 -3,-7 -3,-14 -5,-22 -11,-5 -19,-5 -25,-9 -12,-7 -12,-21 -19,-28 -12,-11 -43,-12 -46,-34 -6,-31 26,-19 45,-21 18,-2 27,-17 46,-24 14,-6 37,-2 53,-1 6,1 21,6 21,12 1,12 -14,5 -19,14 -8,13 8,22 5,34 -1,5 -9,7 -9,11 -2,7 9,9 13,15 3,5 0,14 5,18 14,10 29,7 42,6 2,5 -3,14 2,18 9,-1 1,-13 6,-16 11,8 30,13 39,4 17,8 31,11 33,-9 6,-2 14,1 19,-2 6,-7 2,-11 7,-17 4,-6 15,-4 18,-8 6,-7 0,-18 4,-25 1,-3 8,-4 9,-6 4,-8 -4,-20 -1,-28 3,-8 15,-7 10,-21 13,-5 28,8 41,8 17,1 37,-14 54,3 -40,29 -86,79 -111,139 -14,32 -17,63 1,81 21,22 80,35 125,45 15,4 29,5 41,4 15,-2 35,-11 48,-12 8,-1 17,3 24,2 37,-1 67,-10 100,-24 23,-9 43,-16 60,-37 19,8 2,28 1,42 -1,7 11,15 15,20 5,6 10,17 9,26 -1,4 -4,9 -5,14 0,7 6,12 4,20 -2,7 -8,11 -12,18 -3,7 -1,15 -3,23z"/>
  <path class="fil9" d="M666 105c10,6 36,-25 16,-26 -6,0 -26,20 -16,26zm18 -19c-2,7 -7,10 -13,10 3,-6 6,-13 13,-10z"/>
  <path class="fil9" d="M637 91c2,-7 -4,-14 -12,-12 -9,1 -16,22 -19,29 10,-2 28,-7 31,-17zm-21 8c4,-7 6,-18 15,-13 0,8 -9,11 -15,13z"/>
  <path class="fil9" d="M752 142c-8,-3 -24,14 -25,24 11,6 39,-16 25,-24zm-5 7c2,0 2,1 2,2 -2,6 -7,6 -10,8 -2,-5 6,-7 8,-10z"/>
  <path class="fil9" d="M657 158c11,2 43,2 44,-14 2,-26 -45,1 -44,14zm37 -15c-4,11 -15,6 -22,10 2,-7 12,-19 22,-10z"/>
  <path class="fil9" d="M544 146c7,-8 22,-5 27,-14 4,-8 0,-18 -5,-19 -8,-2 -29,24 -22,33zm20 -27c8,8 -6,18 -13,16 3,-7 8,-12 13,-16z"/>
  <path class="fil9" d="M777 197c10,-22 -29,-13 -32,5 11,-1 28,5 32,-5zm-4 -4c-3,5 -9,5 -15,4 2,-7 13,-12 15,-4z"/>
  <path class="fil9" d="M586 205c9,-1 30,-2 34,-14 7,-22 -32,-5 -34,14zm29 -19c-3,8 -10,9 -15,12 0,-7 10,-15 15,-12z"/>
  <path class="fil9" d="M703 228c3,-10 -9,-15 -19,-10 -10,5 -17,18 -24,25 14,-3 39,3 43,-15zm-5 -4c-4,11 -13,11 -23,11 6,-6 14,-17 23,-11z"/>
  <path class="fil9" d="M745 274c11,0 32,0 33,-14 3,-20 -34,-4 -33,14zm26 -16c-3,7 -9,8 -16,10 4,-6 10,-15 16,-10z"/>
  <path class="fil9" d="M549 185c-1,-17 -35,6 -32,21 11,1 34,-7 32,-21zm-7 0c0,7 -7,12 -13,13 0,-7 7,-14 13,-13z"/>
  <path class="fil9" d="M460 197c9,-5 23,-4 29,-11 5,-7 5,-16 1,-19 -11,-10 -30,17 -30,30zm27 -24c-2,12 -9,14 -17,15 4,-9 7,-18 17,-15z"/>
  <path class="fil9" d="M678 302c12,0 35,0 36,-13 3,-20 -37,-3 -36,13zm29 -15c-2,7 -9,7 -15,8 3,-7 8,-10 15,-8z"/>
  <path class="fil9" d="M568 284c12,-2 43,2 43,-15 0,-19 -41,-3 -43,15zm35 -16c-3,9 -12,9 -20,9 5,-7 10,-14 20,-9z"/>
  <path class="fil9" d="M443 258c7,-6 33,-8 31,-24 -2,-19 -40,5 -31,24zm9 -13c3,-8 8,-13 15,-11 0,7 -8,11 -15,11z"/>
  <path class="fil9" d="M698 339c10,1 44,-4 38,-21 -6,-15 -39,6 -38,21zm13 -8c4,-6 11,-13 18,-9 -3,8 -10,10 -18,9z"/>
  <path class="fil9" d="M495 278c9,-2 34,3 36,-13 3,-18 -34,-6 -36,13zm14 -7c3,-6 10,-11 16,-7 -4,6 -9,8 -16,7z"/>
  <path class="fil9" d="M623 339c9,2 36,5 38,-9 2,-16 -40,-11 -38,9zm8 -5c6,-5 13,-9 23,-6 -5,8 -13,8 -23,6z"/>
  <path class="fil9" d="M109 161c4,7 10,2 16,3 18,4 26,22 34,33 5,-19 -27,-49 -50,-36z"/>
  <path class="fil9" d="M404 304c7,-6 25,-11 22,-24 -4,-21 -36,10 -22,24zm5 -11c1,-8 5,-11 8,-14 2,1 2,2 3,2 -2,8 -6,11 -11,12z"/>
  <path class="fil9" d="M555 326c-1,-15 -37,-4 -38,14 10,3 39,2 38,-14zm-9 1c-2,9 -10,8 -17,8 3,-8 12,-12 17,-8z"/>
  <path class="fil9" d="M790 404c-1,0 -2,-1 -3,-1 -3,9 2,23 -9,32 13,-1 17,-22 12,-31z"/>
  <path class="fil9" d="M449 314c0,10 27,12 33,9 14,-28 -32,-19 -33,-9zm10 2c14,-18 29,11 0,0l0 0z"/>
  <path class="fil9" d="M562 354c9,5 28,4 28,-8 0,-13 -26,-4 -28,8zm14 -5c1,-1 3,-3 6,-2 -1,4 -3,3 -6,2z"/>
  <path class="fil9" d="M719 389c0,1 0,2 -1,3 24,9 32,42 9,57 31,-5 25,-60 -8,-60z"/>
  <path class="fil9" d="M347 286c-5,-14 -40,-22 -46,-7 10,-4 33,-3 46,7z"/>
  <path class="fil9" d="M675 404c2,-25 -43,-16 -44,5 12,-9 30,-23 44,-5z"/>
  <path class="fil9" d="M414 329c4,9 28,16 32,7 5,-13 -26,-18 -32,-7zm12 2c3,-2 10,-3 13,0 -2,4 -9,1 -13,0z"/>
  <path class="fil9" d="M252 298c0,0 -1,0 -2,-1 -10,41 49,60 78,85 27,23 36,61 69,67 -27,-14 -36,-47 -60,-70 -29,-29 -85,-41 -85,-81z"/>
  <path class="fil9" d="M757 480c-1,0 -2,1 -2,2 9,17 -9,27 -20,33 17,3 41,-24 22,-35z"/>
  <path class="fil9" d="M674 536c-3,-1 -7,-1 -8,-3 2,-16 0,-39 -20,-31 -1,-10 -10,-22 -23,-17 -3,-8 1,-21 -5,-28 -5,-3 -13,3 -21,0 5,-21 -15,-9 -24,-15 -7,-4 0,-10 -8,-15 -18,14 -30,-7 -39,-19 -7,7 -12,18 -17,29 -3,0 -5,0 -8,1 -6,14 -5,25 -10,33 -3,6 -6,5 -8,9 -11,24 20,34 14,51 5,6 14,11 22,15 0,3 -1,7 -1,10 10,8 16,4 27,10 12,8 11,29 28,15 15,24 60,-2 81,22 7,-6 0,-11 2,-19 4,-16 27,-28 18,-48zm-21 38c-26,-44 -104,-62 -103,-120 -12,8 -1,29 4,38 20,34 81,53 91,91 -21,-6 -39,-4 -57,-4 0,-3 2,-8 1,-11 -12,-7 -19,9 -28,6 -7,-3 -4,-24 -26,-21 -1,-3 2,-8 3,-11 -5,-7 -19,-10 -27,-16 7,-18 -18,-27 -14,-43 0,-2 6,-5 7,-9 4,-9 -3,-20 1,-27 3,-6 20,-11 19,-28 11,6 12,19 22,21 5,1 10,-6 14,-4 4,1 4,10 8,13 8,4 12,-3 21,1 -6,21 15,9 23,14 7,5 1,19 4,28 16,-4 25,5 25,19 6,2 9,-3 13,-3 8,7 5,20 5,31 3,3 8,1 9,5 0,13 -9,22 -15,30z"/>
  <path class="fil9" d="M423 409c13,-4 26,-14 42,-3 -6,-19 -36,-13 -42,3z"/>
  <path class="fil9" d="M137 396c-28,-8 -41,2 -64,11 -17,8 -42,17 -33,41 5,14 54,49 80,60 44,18 75,-9 71,-50 -2,-29 -15,-50 -54,-62zm29 108c-28,14 -61,-10 -89,-30 -16,-11 -38,-24 -31,-42 4,-12 24,-16 34,-20 18,-8 28,-15 49,-11 27,4 49,23 55,37 8,19 0,56 -18,66z"/>
  <path class="fil9" d="M448 501c-1,1 -1,2 -1,3 22,30 43,69 88,82 -18,-12 -36,-26 -53,-44 -11,-12 -23,-39 -34,-41z"/>
  <path class="fil9" d="M105 417c0,0 0,1 0,2 7,1 13,0 18,-4 -4,-3 -15,-3 -18,2z"/>
  <path class="fil9" d="M175 446c1,-6 1,-10 -4,-12 -2,5 -1,10 4,12z"/>
  <path class="fil9" d="M140 433c-3,7 14,10 16,5 -4,-1 -10,-6 -16,-5z"/>
  <path class="fil9" d="M68 431c1,5 11,4 13,-1 -3,-2 -11,-2 -13,1z"/>
  <path class="fil9" d="M100 440c1,3 6,3 9,4 1,-1 1,-2 2,-2 -1,-4 -10,-7 -11,-2z"/>
  <path class="fil9" d="M170 469c2,-6 -5,-5 -9,-5 -1,2 0,3 -1,4 5,2 8,2 10,1z"/>
  <path class="fil9" d="M136 465c-1,-3 -6,-6 -9,-4 -1,1 -1,2 -2,4 2,3 9,4 11,0z"/>
  <path class="fil9" d="M562 608c1,16 33,24 41,12 -14,5 -29,-8 -41,-12z"/>
  <path class="fil9" d="M60 449c-1,4 1,5 4,5 3,-4 -1,-7 -4,-5z"/>
  <path class="fil9" d="M83 458c0,1 -1,2 -1,4 3,3 8,9 11,4 -1,-4 -6,-9 -10,-8z"/>
  <path class="fil9" d="M151 493c3,2 12,3 14,-1 -1,-4 -12,-4 -14,1z"/>
  <path class="fil9" d="M122 480c-1,1 -1,2 -1,3 2,2 10,12 14,5 -3,-3 -8,-9 -13,-8z"/>
  <path class="fil9" d="M577 652c-5,10 -7,28 -11,38 8,-8 15,-28 13,-37 -1,0 -1,0 -2,-1z"/>
  <path class="fil9" d="M330 582c-13,-10 -61,-25 -75,-27 -22,-4 -35,13 -31,41 2,17 30,59 51,76 29,22 63,6 73,-19 10,-23 -3,-61 -18,-71zm11 71c-6,15 -26,27 -43,24 -23,-5 -64,-56 -68,-79 -4,-22 4,-42 27,-38 13,2 66,22 73,29 11,10 20,45 11,64z"/>
  <path class="fil9" d="M269 578c3,2 9,5 11,5 4,-7 -9,-11 -11,-5z"/>
  <path class="fil9" d="M312 599c4,-7 -7,-8 -9,-5 1,3 5,4 9,5z"/>
  <path class="fil9" d="M257 591c3,-7 -8,-13 -12,-9 1,5 8,9 12,9z"/>
  <path class="fil9" d="M289 602c-4,6 4,10 8,9 2,-6 -4,-7 -8,-9z"/>
  <path class="fil9" d="M319 613c-1,5 4,6 7,9 4,-6 -2,-10 -7,-9z"/>
  <path class="fil9" d="M241 598c1,6 4,15 11,14 0,-6 -4,-14 -11,-14z"/>
  <path class="fil9" d="M266 626c0,4 3,6 8,7 4,-6 -5,-12 -8,-7z"/>
  <path class="fil9" d="M328 652c2,-4 1,-7 -3,-8 0,1 -1,2 -2,1 -1,4 1,6 5,7z"/>
  <path class="fil9" d="M302 642c0,-3 -7,-4 -9,-4 -3,5 7,10 9,4z"/>
  <path class="fil9" d="M416 693c-24,-6 -47,6 -54,19 -10,18 -5,40 1,50 12,25 114,110 110,27 -1,-37 -17,-86 -57,-96zm15 121c-34,-14 -78,-51 -68,-89 7,-24 29,-32 51,-27 37,8 53,59 53,93 0,25 -11,33 -36,23z"/>
  <path class="fil9" d="M287 662c3,2 6,6 10,5 2,-6 -7,-11 -10,-5z"/>
  <path class="fil9" d="M418 734c3,-6 0,-9 -5,-11 -1,1 -2,2 -3,5 3,2 4,5 8,6z"/>
  <path class="fil9" d="M387 726c-1,5 1,9 5,11 6,-4 1,-13 -5,-11z"/>
  <path class="fil9" d="M440 771c5,-3 4,-10 -1,-13 -6,2 -3,11 1,13z"/>
  <path class="fil9" d="M406 761c3,3 6,7 11,7 4,-7 -8,-14 -11,-7z"/>
  <path class="fil9" d="M383 758c-3,6 4,9 8,8 1,-4 -2,-7 -8,-8z"/>
  <path class="fil9" d="M453 782c-2,4 1,7 4,9 5,-3 0,-11 -4,-9z"/>
  <path class="fil9" d="M428 791c-2,6 5,11 10,10 1,-5 -4,-11 -10,-10z"/>
  <path class="fil9" d="M475 354c4,12 32,12 27,-2 -4,-9 -22,-3 -27,2z"/>
 </g>
</svg>
