<?xml version="1.0" encoding="UTF-8"?>
<!DOCTYPE svg PUBLIC "-//W3C//DTD SVG 1.1//EN" "http://www.w3.org/Graphics/SVG/1.1/DTD/svg11.dtd">
<!-- Creator: CorelDRAW X8 -->
<svg xmlns="http://www.w3.org/2000/svg" xml:space="preserve" width="3.53578in" height="5.41186in" version="1.1" style="shape-rendering:geometricPrecision; text-rendering:geometricPrecision; image-rendering:optimizeQuality; fill-rule:evenodd; clip-rule:evenodd"
viewBox="0 0 968 1481"
 xmlns:xlink="http://www.w3.org/1999/xlink">
 <defs>
  <style type="text/css">
   <![CDATA[
    .fil9 {fill:#F685C7}
    .fil10 {fill:#FFE3BD}
    .fil8 {fill:#3A2119;fill-rule:nonzero}
    .fil0 {fill:#743F30;fill-rule:nonzero}
    .fil5 {fill:#C1AC97;fill-rule:nonzero}
    .fil6 {fill:#CEBBA5;fill-rule:nonzero}
    .fil3 {fill:#EB5290;fill-rule:nonzero}
    .fil1 {fill:#EF8E7D;fill-rule:nonzero}
    .fil2 {fill:#FFB6D4;fill-rule:nonzero}
    .fil7 {fill:#FFD9E8;fill-rule:nonzero}
    .fil4 {fill:white;fill-rule:nonzero}
   ]]>
  </style>
 </defs>
 <g id="Layer_x0020_1">
  <metadata id="CorelCorpID_0Corel-Layer"/>
  <path class="fil0" d="M757 597c33,-13 -16,-46 -17,-18 0,9 13,11 17,18z"/>
  <path class="fil0" d="M875 511c12,-5 8,-31 -2,-33 -13,-3 -31,18 -33,26 11,2 23,12 35,7z"/>
  <path class="fil0" d="M797 481c0,-11 -21,-44 -29,-47 -32,-14 -35,64 -45,82 18,-9 73,-10 74,-35z"/>
  <path class="fil0" d="M843 601c-23,5 -41,-18 -66,-14 -5,7 -9,14 -16,19 -12,-8 -13,2 -22,8 -8,5 -16,6 -18,9 -7,9 -3,20 -7,28 -5,10 -17,23 -30,28 -10,4 -24,-1 -33,1 -14,4 -18,27 -31,33 -6,3 -12,1 -16,3 -14,5 -19,18 -33,20 -7,0 -19,-7 -31,-4 -22,4 -8,23 -6,39 4,28 -14,57 -5,81 35,-4 57,-41 95,-49 15,-3 33,-1 49,-8 39,-15 74,-50 109,-59 26,-7 50,-6 66,-18 22,-15 42,-57 42,-90 0,-15 -12,-28 -9,-45 1,-7 12,-12 12,-23 -31,-6 -31,36 -50,41z"/>
  <path class="fil1" d="M605 883c10,-12 -14,-18 -14,-4 3,3 7,5 14,4z"/>
  <path class="fil0" d="M819 1089c-37,17 -70,37 -106,54 -19,10 -35,24 -51,30 -41,13 -84,12 -117,35 -6,65 -1,128 -3,191 30,-3 47,-27 75,-38 11,-5 23,-4 34,-7 72,-16 117,-70 169,-99 20,-11 47,-14 62,-28 7,-7 18,-26 21,-39 6,-26 -3,-108 -8,-127 -19,13 -51,17 -76,28zm-237 227c-10,-10 1,-24 9,-26 31,-7 12,47 -9,26zm19 -100c11,-5 30,-15 33,-2 7,22 -40,37 -33,2zm177 -55c-47,21 -10,-53 0,0l0 0zm-95 160c-16,3 -21,-21 -8,-27 19,-9 22,24 8,27zm15 -80c0,-10 8,-17 16,-18 9,-2 16,5 17,9 8,24 -32,34 -33,9zm63 30c-15,-6 0,-27 10,-28 17,-3 9,34 -10,28zm33 -98c7,-3 10,-8 20,-7 23,23 -19,43 -20,7zm63 26c1,-6 7,-10 17,-9 28,23 -22,37 -17,9zm0 -109c8,-7 19,-4 28,0 12,31 -35,31 -28,0z"/>
  <path class="fil2" d="M844 791c7,-28 -25,-28 -33,-9 8,5 20,13 33,9z"/>
  <path class="fil1" d="M865 1096c-3,13 18,14 14,0 -5,-2 -10,-3 -14,0z"/>
  <path class="fil1" d="M809 856c11,7 28,7 24,-8 -3,-14 -26,-11 -24,8z"/>
  <path class="fil3" d="M609 1098c-11,-15 -28,18 -29,36 10,7 28,1 33,-5 -3,-11 1,-23 -4,-31z"/>
  <path class="fil3" d="M744 902c10,-21 -12,-47 -23,-59 -14,21 -32,38 -40,66 18,8 55,11 63,-7z"/>
  <path class="fil2" d="M692 1073c13,-4 27,-15 25,-31 -22,-19 -34,11 -25,31z"/>
  <path class="fil1" d="M768 969c0,-7 -10,-12 -13,-11 -18,8 13,33 13,11z"/>
  <path class="fil3" d="M574 986c-1,9 25,39 33,38 12,-1 19,-38 14,-53 -20,-5 -46,-3 -47,15z"/>
  <path class="fil1" d="M649 847c5,8 22,7 22,-5 -9,-9 -21,-13 -22,5z"/>
  <path class="fil1" d="M364 1155c-26,-4 4,27 0,0l0 0z"/>
  <path class="fil1" d="M382 1286c-1,9 8,11 15,8 0,-1 0,-3 0,-5 -4,-3 -10,-7 -15,-3z"/>
  <path class="fil1" d="M317 1255c5,0 7,-3 8,-8 -6,-8 -16,2 -8,8z"/>
  <path class="fil1" d="M506 1241c4,1 5,-1 5,-5 -4,-4 -10,2 -5,5z"/>
  <path class="fil1" d="M487 1294c-24,4 7,24 0,0l0 0z"/>
  <path class="fil1" d="M456 1227c3,-1 4,-5 4,-9 -7,-10 -18,9 -4,9z"/>
  <path class="fil1" d="M184 1149c2,3 10,3 12,0 0,-11 -11,-11 -12,0z"/>
  <path class="fil1" d="M250 1191c-1,3 -3,5 -3,9 3,3 6,6 11,3 -1,-6 -2,-12 -8,-12z"/>
  <path class="fil1" d="M868 1198c-3,3 -3,6 0,10 3,0 6,1 7,-1 0,-5 -1,-10 -7,-9z"/>
  <path class="fil1" d="M264 1117c-1,2 -3,3 -2,8 2,4 13,4 13,-3 -2,-3 -8,-3 -11,-5z"/>
  <path class="fil0" d="M423 1163c-24,-15 -46,-36 -71,-46 -35,-15 -69,-19 -100,-33 -15,-8 -27,-22 -42,-31 -48,-27 -99,-44 -139,-76 -8,39 8,64 13,98 6,35 6,58 24,75 28,26 73,40 106,60 26,14 40,46 67,65 39,25 88,39 127,60 41,22 67,68 125,65 8,-58 1,-131 4,-189 -51,-3 -78,-24 -114,-48zm-323 -88c0,-2 6,-14 11,-15 3,-1 19,6 21,15 3,21 -32,18 -32,0zm104 78c-7,21 -47,-9 -20,-20 9,-4 24,7 20,20zm-16 -98c3,0 19,7 18,17 -2,34 -55,-17 -18,-17zm77 152c-38,25 -24,-53 -3,-16 2,5 5,11 3,16zm-2 -98c4,-1 18,4 20,12 7,36 -57,-4 -20,-12zm47 127c11,2 21,2 22,11 5,27 -44,15 -22,-11zm53 -61c-14,3 -28,-22 -10,-28 19,-6 26,25 10,28zm42 121c-7,24 -51,-11 -21,-19 8,-2 24,5 21,19zm56 -63c-14,8 -33,-21 -9,-25 13,-2 23,18 9,25zm7 69c-1,-10 14,-15 20,-17 26,22 -19,45 -20,17zm39 -74c6,0 10,1 12,7 9,34 -49,-4 -12,-7z"/>
  <path class="fil1" d="M708 1245c3,3 12,2 14,-1 0,-12 -17,-14 -14,1z"/>
  <path class="fil1" d="M677 1313c8,1 10,-7 7,-12 -7,-1 -10,7 -7,12z"/>
  <path class="fil1" d="M803 1177c0,6 3,9 8,9 3,-4 3,-8 0,-12 -4,-1 -5,2 -8,3z"/>
  <path class="fil1" d="M764 1261c4,3 9,-4 10,-8 -4,-3 -13,5 -10,8z"/>
  <path class="fil1" d="M587 1309c4,2 11,1 14,-1 4,-16 -17,-12 -14,1z"/>
  <path class="fil1" d="M772 1155c0,-5 -6,-5 -9,-6 0,2 -4,1 -3,5 2,3 9,4 12,1z"/>
  <path class="fil1" d="M609 1227c6,5 19,1 17,-9 -6,-3 -19,-2 -17,9z"/>
  <path class="fil1" d="M184 1063c-4,11 12,16 15,8 -4,-5 -8,-11 -15,-8z"/>
  <path class="fil1" d="M769 1075c17,-29 -34,-7 0,0l0 0z"/>
  <path class="fil1" d="M885 1023c-4,-27 -24,5 0,0l0 0z"/>
  <path class="fil4" d="M883 687c-8,10 -15,33 -27,41 -19,12 -53,9 -79,20 -28,11 -61,39 -90,51 -24,10 -52,12 -74,20 -14,5 -27,18 -41,25 -15,8 -29,15 -42,24 -3,22 8,42 10,65 4,85 -13,177 4,259 35,-15 67,-19 105,-29 27,-7 52,-27 76,-42 25,-16 52,-35 76,-44 27,-10 86,-13 98,-37 7,-14 10,-47 8,-70 -2,-25 -9,-57 -12,-90 -3,-32 -11,-66 -10,-93 1,-37 20,-74 -2,-100zm-42 70c3,14 23,33 6,42 -12,7 -46,-7 -45,-18 1,-12 27,-19 39,-24zm-8 111c-43,4 -30,-19 -18,-42 17,4 35,25 18,42zm-234 -7c6,-1 13,5 15,11 8,23 -33,24 -32,5 0,-5 11,-15 17,-16zm22 268c-3,10 -38,24 -47,10 -11,-16 19,-35 18,-51 22,-3 35,18 29,41zm-13 -95c-10,1 -42,-35 -42,-47 0,-10 10,-21 26,-24 21,-3 37,-3 39,14 4,21 -13,55 -23,57zm33 -184c-3,-10 10,-14 9,-26 13,3 25,6 27,14 8,24 -32,29 -36,12zm32 60c-3,-13 13,-28 20,-38 8,-12 14,-34 25,-37 15,-4 43,45 34,70 -4,13 -72,32 -79,5zm17 171c-16,-5 -10,-46 2,-51 13,-6 31,3 34,13 5,18 -25,42 -36,38zm65 -132c17,-5 27,34 8,37 -22,3 -28,-31 -8,-37zm-8 122c-1,-8 11,-20 16,-22 10,-3 19,7 19,15 3,23 -33,23 -35,7zm55 -33c-5,-3 -8,-26 -7,-32 2,-6 15,-12 21,-12 37,-2 5,56 -14,44zm51 -79c-14,3 -34,-18 -33,-34 2,-21 38,-18 44,-36 25,13 9,67 -11,70zm38 71c-22,10 -34,-14 -21,-31 13,3 25,14 21,31z"/>
  <path class="fil3" d="M868 902c-12,5 -37,9 -40,22 -2,11 13,29 23,27 14,-1 22,-31 17,-49z"/>
  <path class="fil1" d="M805 1006c-1,8 0,16 2,22 27,3 20,-43 -2,-22z"/>
  <path class="fil0" d="M416 378c-3,5 -11,9 -6,17 8,2 12,-13 6,-17z"/>
  <path class="fil0" d="M521 452c-6,4 -14,5 -14,15 9,4 19,-6 14,-15z"/>
  <path class="fil0" d="M486 286c16,2 11,-35 -1,-22 -1,9 2,13 1,22z"/>
  <path class="fil0" d="M471 180c-6,-1 -8,3 -13,5 0,7 4,9 7,13 8,-2 10,-11 6,-18z"/>
  <path class="fil0" d="M542 340c-7,-2 -20,7 -15,16 6,1 16,-5 15,-16z"/>
  <path class="fil0" d="M411 483c2,0 2,1 3,2 7,1 8,-5 8,-13 -7,1 -10,5 -11,11z"/>
  <path class="fil0" d="M550 198c-5,0 -16,4 -14,15 8,-1 18,-7 14,-15z"/>
  <path class="fil0" d="M427 238c-1,3 -3,9 0,12 11,1 9,-13 0,-12z"/>
  <path class="fil0" d="M600 405c-12,-1 -24,6 -18,18 8,-3 20,-4 18,-18z"/>
  <path class="fil0" d="M469 512c6,1 6,-4 6,-9 -4,-4 -10,4 -6,9z"/>
  <path class="fil0" d="M470 413c8,5 18,-4 13,-12 -8,0 -12,4 -13,12z"/>
  <path class="fil0" d="M612 315c26,0 0,-28 0,0l0 0z"/>
  <path class="fil0" d="M422 527c-4,18 -24,40 -11,59 17,-15 46,-47 11,-59z"/>
  <path class="fil0" d="M584 523c22,-10 35,-28 40,-55 -40,-14 -55,25 -40,55z"/>
  <path class="fil0" d="M508 550c16,3 36,-2 33,-23 -18,-12 -45,1 -33,23z"/>
  <path class="fil0" d="M305 397c15,3 15,-28 14,-44 -30,-14 -29,40 -14,44z"/>
  <path class="fil3" d="M363 542c8,10 14,17 38,18 13,-9 5,-42 22,-43 11,0 31,23 24,40 17,-3 40,1 49,-12 9,-12 2,-24 13,-28 28,-10 43,20 62,-2 2,-17 -2,-32 4,-43 10,-19 30,-5 51,-12 10,-3 30,-28 38,-37 26,-26 64,-63 63,-108 0,-46 -31,-84 -52,-109 -12,-13 -29,-26 -50,-28 -13,-1 -27,4 -39,0 -24,-7 -44,-22 -71,-25 -78,-9 -105,40 -121,103 -7,30 -21,54 -31,80 -6,14 -9,33 -15,50 -5,17 -12,36 -13,52 -2,38 11,86 28,104zm331 -280c5,0 14,6 10,21 -5,15 -36,13 -34,-3 0,-8 17,-18 24,-18zm-23 74c6,-1 10,0 12,5 7,23 -31,39 -34,16 -2,-12 14,-20 22,-21zm-30 -115c9,14 -16,35 -31,34 -19,-23 18,-52 31,-34zm-19 67c20,13 4,48 -19,31 3,-14 8,-25 19,-31zm-14 109c2,24 -11,34 -33,34 -13,-21 13,-38 33,-34zm-142 123c-13,-5 -5,-26 8,-27 14,0 9,33 -8,27zm-5 -106c-3,-10 15,-23 21,-23 6,0 11,8 10,16 -1,16 -28,20 -31,7zm89 -230c19,13 5,40 -13,38 -25,-3 3,-34 13,-38zm-1 149c5,17 -10,36 -24,32 -19,-5 2,-43 24,-32zm-34 114c25,-6 14,41 -12,28 -15,-7 5,-26 12,-28zm-19 -200c13,13 8,53 -11,48 -6,-2 -11,-19 -10,-28 3,-10 18,-14 21,-20zm-14 -54c-4,22 -32,16 -33,-8 14,-19 38,-17 33,8zm-71 302c-21,-6 8,-43 21,-37 -4,10 -1,42 -21,37zm12 -269c12,2 22,12 17,28 -6,1 -13,8 -21,4 -3,-10 1,-23 4,-32zm1 69c7,-1 15,12 13,21 -2,17 -26,15 -27,0 -1,-7 7,-20 14,-21zm-8 73c15,-4 16,44 -9,35 -15,-5 2,-33 9,-35zm-40 159c-13,-1 -11,-25 -2,-28 14,-5 18,29 2,28zm-20 -108c21,-3 31,32 11,33 -17,2 -15,-16 -11,-33z"/>
  <path class="fil0" d="M374 516c4,1 4,-3 6,-5 -2,0 -2,-2 -4,-2 -1,2 -2,4 -2,7z"/>
  <path class="fil0" d="M220 411c-7,-3 -12,-8 -24,-6 -3,13 0,30 8,37 8,-8 17,-14 16,-31z"/>
  <path class="fil0" d="M427 305c-8,-1 -10,10 -7,15 11,1 10,-8 7,-15z"/>
  <path class="fil0" d="M368 444c2,-3 1,-11 -1,-13 -2,0 -3,0 -4,0 -4,5 -5,15 5,13z"/>
  <path class="fil5" d="M713 239c13,0 32,-6 39,-17 -7,-18 -34,-23 -54,-12 4,11 7,22 15,29z"/>
  <path class="fil0" d="M696 271c-9,1 -15,4 -17,11 6,7 20,3 17,-11z"/>
  <path class="fil0" d="M670 360c2,-5 4,-10 5,-16 -7,-2 -16,4 -19,10 2,5 7,6 14,6z"/>
  <path class="fil5" d="M529 147c1,-6 4,-11 1,-15 -7,-3 -19,-3 -30,-3 -5,16 16,16 29,18z"/>
  <path class="fil0" d="M633 226c-11,-4 -22,7 -17,19 11,-1 16,-8 17,-19z"/>
  <path class="fil6" d="M689 198c22,0 38,-38 34,-61 -33,-2 -62,17 -71,39 16,2 23,22 37,22z"/>
  <path class="fil5" d="M652 149c4,-13 -4,-47 -11,-44 -19,10 -41,37 -33,65 22,3 39,-1 44,-21z"/>
  <path class="fil5" d="M592 165c-16,-22 -4,-67 -29,-82 -19,11 -26,34 -25,66 21,3 32,15 54,16z"/>
  <path class="fil3" d="M369 993c1,18 28,28 39,39 22,-20 8,-75 -22,-66 -5,1 -17,17 -17,27z"/>
  <path class="fil0" d="M153 438c-2,-9 -19,-17 -29,-13 -13,4 -7,31 -7,47 14,-6 41,-14 36,-34z"/>
  <path class="fil2" d="M405 889c-5,-16 -8,-36 -21,-38 -15,-3 -30,29 -24,38 6,10 36,6 45,0z"/>
  <path class="fil1" d="M317 855c28,-15 -11,-35 -10,-9 1,3 5,7 10,9z"/>
  <path class="fil1" d="M346 1068c9,-1 15,-23 2,-29 -12,4 -21,30 -2,29z"/>
  <path class="fil1" d="M487 1036c-11,0 -14,7 -22,9 2,9 6,15 9,22 15,-2 21,-17 13,-31z"/>
  <path class="fil0" d="M386 803c9,4 19,5 28,8 35,13 62,49 106,44 -6,-33 17,-77 -1,-107 -28,28 -43,-22 -58,-35 -11,-9 -34,-14 -49,-12 -8,2 -14,9 -25,8 -17,-1 -23,-17 -36,-26 -15,13 -56,2 -46,-20 -15,-3 -17,-19 -34,-20 -25,-1 -90,39 -75,-12 -14,-2 -18,-26 -34,-30 -17,-5 -44,7 -60,2 -7,-2 -13,-11 -18,-13 -13,-6 -41,-12 -52,-8 -11,4 0,23 1,29 5,20 4,34 7,53 115,24 174,118 307,129 20,1 25,5 39,10z"/>
  <path class="fil1" d="M112 1072c-10,6 14,17 12,4 -1,-5 -9,-6 -12,-4z"/>
  <path class="fil1" d="M491 913c-9,4 -15,10 -21,17 9,20 26,-1 21,-17z"/>
  <path class="fil4" d="M130 999c22,12 46,14 66,24 24,12 45,31 71,45 25,14 52,21 82,34 25,11 47,33 71,48 33,20 67,53 114,45 -14,-101 13,-232 -14,-330 -31,5 -47,-7 -72,-18 -16,-7 -32,-14 -45,-19 -43,-17 -101,-23 -143,-39 -76,-30 -128,-98 -216,-112 -2,0 -2,1 -3,2 3,25 22,52 21,78 0,25 -17,47 -17,70 0,18 9,43 15,64 6,22 5,44 13,64 5,15 39,34 57,44zm370 -85c6,30 -31,46 -40,16 9,-10 35,-39 40,-16zm-2 145c-2,4 -16,17 -23,17 -12,-1 -13,-21 -19,-32 16,-21 52,-18 42,15zm-42 47c3,9 -3,30 -9,32 -12,3 -23,-18 -29,-24 4,-7 7,-16 10,-25 8,4 24,8 28,17zm-34 -129c11,22 -2,63 -12,65 -12,2 -48,-36 -49,-48 -1,-13 13,-33 25,-36 14,-4 31,11 36,19zm-59 -126c28,-21 48,13 49,42 -12,9 -55,16 -60,-2 -4,-16 11,-24 11,-40zm-16 181c18,-6 20,44 -1,45 -8,1 -21,-12 -20,-20 0,-6 19,-24 21,-25zm-29 -206c23,-5 15,36 -1,37 -22,1 -17,-34 1,-37zm-16 147c6,38 -42,25 -64,14 -29,-14 3,-42 14,-58 1,-1 1,-1 3,-1 17,-7 45,31 47,45zm-77 -151c33,-3 60,8 50,46 -14,5 -47,11 -53,-5 -4,-12 6,-30 3,-41zm-116 111c-4,-16 14,-29 10,-46 28,5 61,12 52,51 -18,3 -56,15 -62,-5zm83 37c5,6 4,16 0,26 -11,3 -25,-5 -26,-14 -2,-15 17,-23 26,-12zm-10 -140c-12,6 -26,-6 -37,-8 -16,-3 -37,3 -40,-12 -2,-16 20,-25 20,-43 30,4 76,21 57,63zm-96 -127c18,-1 31,28 14,34 -21,8 -35,-24 -14,-34z"/>
  <path class="fil3" d="M130 777c-12,4 -10,21 -17,31 18,9 42,7 62,15 18,-21 -27,-52 -45,-46z"/>
  <path class="fil0" d="M201 644c6,19 37,-6 23,-26 -8,4 -26,15 -23,26z"/>
  <path class="fil1" d="M187 989c6,-28 -28,-5 0,0l0 0z"/>
  <path class="fil1" d="M83 722c4,3 7,7 15,7 9,-12 -15,-25 -15,-7z"/>
  <path class="fil3" d="M256 937c-8,3 -27,24 -23,36 2,9 47,22 55,18 22,-11 -18,-59 -32,-54z"/>
  <path class="fil3" d="M125 897c-2,12 -9,20 -8,35 11,7 35,3 46,0 5,-30 -18,-31 -38,-35z"/>
  <path class="fil1" d="M268 863c4,-12 -2,-23 -6,-31 -9,-2 -22,-2 -29,2 -2,7 -3,16 -3,26 7,7 28,7 38,3z"/>
  <path class="fil2" d="M445 1128c18,-21 -23,-39 -19,-15 0,7 12,12 19,15z"/>
  <path class="fil0" d="M258 601c20,4 41,-26 32,-52 -11,0 -67,44 -32,52z"/>
  <path class="fil0" d="M460 651c21,2 40,-26 25,-49 -26,0 -52,26 -25,49z"/>
  <path class="fil0" d="M667 554c-19,-14 -34,20 -30,37 25,10 50,-21 30,-37z"/>
  <path class="fil0" d="M702 463c-4,-14 -27,4 -25,18 11,3 29,-8 25,-18z"/>
  <path class="fil0" d="M311 672c2,8 15,9 28,9 6,-16 15,-41 10,-59 -7,6 -39,42 -38,50z"/>
  <path class="fil0" d="M569 672c5,-8 3,-24 0,-34 -30,-9 -31,43 0,34z"/>
  <path class="fil0" d="M284 464c3,-13 -11,-33 -22,-31 -15,2 -15,35 -16,51 11,-8 35,-7 38,-20z"/>
  <path class="fil0" d="M119 512c-17,-10 -27,6 -25,22 11,0 27,-4 25,-22z"/>
  <path class="fil7" d="M104 594c22,7 45,-7 66,0 13,5 18,30 34,32 9,-30 37,-15 29,18 22,5 26,-12 42,-10 12,1 25,25 38,22 11,-2 23,-43 33,-45 27,-5 2,53 5,61 1,5 12,9 17,12 17,12 17,9 35,7 19,-2 43,2 55,8 14,7 17,29 33,37 14,7 21,-3 33,-8 17,-8 36,-1 55,-7 9,-3 18,-17 31,-25 8,-5 19,-9 23,-12 6,-5 11,-18 18,-20 8,-2 15,3 20,3 39,-5 29,-70 69,-73 -17,-16 2,-30 17,-38 8,2 9,20 20,23 9,3 21,-4 34,-2 7,1 14,7 19,6 11,-1 21,-20 31,-26 11,-6 31,-7 37,-13 9,-11 7,-44 -7,-48 -3,12 -7,21 -18,23 -4,0 -26,-2 -34,-6 -12,-5 -20,-25 -36,-22 -4,1 -9,9 -14,12 -8,5 -26,8 -43,14 -5,2 -25,14 -29,3 -4,-11 20,-54 18,-69 -3,-18 -23,-23 -51,-24 -17,18 -32,38 -55,51 -8,24 -23,42 -43,54 -13,-7 -22,7 -37,6 -5,19 -27,20 -45,20 -14,1 -34,15 -51,19 -10,2 -20,0 -24,1 -8,3 -9,18 -18,17 -8,0 -10,-13 -13,-17 -13,-2 -27,-4 -37,-12 -18,-15 -33,-71 -35,-100 -4,-45 8,-83 14,-113 -7,0 -9,5 -14,7 9,36 -31,63 -36,22 -11,4 -9,16 -15,20 -13,9 -21,-4 -36,-3 -13,2 -11,13 -13,24 -2,14 -16,26 -30,29 -2,-7 -5,-15 -7,-23 -10,-1 -23,-9 -30,0 -3,5 2,13 0,21 -4,17 -28,26 -46,31 -3,-18 -1,-39 -19,-41 -11,0 -23,16 -32,16 -6,1 -12,-6 -18,-6 -10,-1 -24,5 -28,12 -3,5 -9,30 -8,38 2,9 16,14 17,25 3,15 -7,23 -6,41 18,17 42,5 65,13 8,3 15,13 20,15zm607 -130c2,17 -22,29 -40,25 -15,-26 38,-56 40,-25zm-32 86c-7,10 7,24 0,36 -7,11 -47,23 -51,7 -9,-27 22,-62 51,-43zm-135 74c6,-1 5,6 7,8 31,-15 29,26 25,44 -36,15 -43,-22 -32,-52zm-104 -5c4,-14 38,-21 46,-26 9,14 17,36 4,51 -6,7 -24,17 -33,15 -7,-2 -20,-28 -17,-40zm-182 -10c-8,-1 -20,-15 -20,-23 0,-12 39,-36 48,-49 2,-2 3,-3 7,-3 15,33 -5,79 -35,75zm6 -186c16,1 36,32 25,49 -4,6 -17,9 -26,13 -10,5 -17,13 -26,7 2,-18 6,-70 27,-69zm-139 84c10,23 -21,42 -39,31 -3,-26 14,-44 39,-31z"/>
  <path class="fil8" d="M893 785c0,-20 8,-39 9,-57 0,-26 -13,-46 -9,-76 0,-5 3,-10 3,-16 2,-19 -8,-36 -6,-53 2,-18 39,-62 13,-90 -2,-1 -11,-2 -16,-8 -7,-7 -2,-11 -9,-14 -19,-9 -31,24 -46,24 -10,0 -13,-14 -27,-14 -7,-26 -44,-84 -66,-41 -8,-18 -33,-18 -54,-23 38,-33 74,-114 34,-169 16,-8 39,-9 45,-27 -14,-14 -26,-30 -54,-25 16,-16 22,-41 26,-68 -27,0 -63,9 -77,23 5,-22 -6,-40 -9,-57 -29,9 -44,32 -54,60 -8,-27 -7,-64 -30,-80 -15,8 -35,23 -36,50 -16,1 -28,-2 -40,-5 -1,9 4,19 2,25 -21,0 -45,8 -59,17 -33,22 -41,64 -55,105 -6,17 -20,72 -35,80 -11,6 -19,-2 -30,-2 -20,0 -17,13 -24,26 -4,9 -20,27 -26,28 -16,2 -34,-15 -45,5 -6,-5 -17,-6 -27,-6 -5,6 -4,16 -7,21 -14,-7 -26,5 -34,5 -11,1 -22,-11 -33,-5 -6,4 -4,14 -8,22 -15,-20 -31,6 -46,7 -6,0 -12,-5 -18,-5 -13,0 -30,7 -35,18 -4,7 -12,28 -9,43 1,8 15,12 17,24 2,15 -7,25 -7,45 14,4 8,10 9,23 2,21 23,61 7,69 2,4 5,8 6,12 10,29 25,60 21,90 -2,22 -16,42 -15,65 0,33 22,68 26,106 3,27 -4,57 -2,85 3,25 18,60 20,91 1,6 -1,13 0,19 3,12 32,35 43,42 27,17 65,28 92,46 16,11 26,27 38,40 40,40 100,56 152,83 31,16 54,49 84,60 62,23 90,-21 128,-36 8,-3 19,-3 31,-5 33,-7 69,-24 96,-45 26,-21 54,-45 83,-58 19,-10 47,-15 59,-27 5,-5 20,-25 22,-34 1,-10 -3,-25 -3,-36 0,-27 3,-57 2,-78 -1,-11 -6,-19 -6,-28 0,-19 8,-41 10,-62 5,-71 -24,-143 -21,-209zm-12 -202c-3,17 9,30 9,45 0,33 -20,75 -42,90 -16,12 -40,11 -66,18 -35,9 -70,44 -109,59 -16,7 -34,5 -49,8 -38,8 -60,45 -95,49 -9,-24 9,-53 5,-81 -2,-16 -16,-35 6,-39 12,-3 24,4 31,4 14,-2 19,-15 33,-20 4,-2 10,0 16,-3 13,-6 17,-29 31,-33 9,-2 23,3 33,-1 13,-5 25,-18 30,-28 4,-8 0,-19 7,-28 2,-3 10,-4 18,-9 9,-6 10,-16 22,-8 7,-5 11,-12 16,-19 25,-4 43,19 66,14 19,-5 19,-47 50,-41 0,11 -11,16 -12,23zm-141 -4c1,-28 50,5 17,18 -4,-7 -17,-9 -17,-18zm133 -101c10,2 14,28 2,33 -12,5 -24,-5 -35,-7 2,-8 20,-29 33,-26zm-105 -44c8,3 29,36 29,47 -1,25 -56,26 -74,35 10,-18 13,-96 45,-82zm-16 -212c-7,11 -26,17 -39,17 -8,-7 -11,-18 -15,-29 20,-11 47,-6 54,12zm-29 -85c4,23 -12,61 -34,61 -14,0 -21,-20 -37,-22 9,-22 38,-41 71,-39zm-82 -32c7,-3 15,31 11,44 -5,20 -22,24 -44,21 -8,-28 14,-55 33,-65zm-78 -22c25,15 13,60 29,82 -22,-1 -33,-13 -54,-16 -1,-32 6,-55 25,-66zm-63 46c11,0 23,0 30,3 3,4 0,9 -1,15 -13,-2 -34,-2 -29,-18zm-152 257c6,-17 9,-36 15,-50 10,-26 24,-50 31,-80 16,-63 43,-112 121,-103 27,3 47,18 71,25 12,4 26,-1 39,0 21,2 38,15 50,28 21,25 52,63 52,109 1,45 -37,82 -63,108 -8,9 -28,34 -38,37 -21,7 -41,-7 -51,12 -6,11 -2,26 -4,43 -19,22 -34,-8 -62,2 -11,4 -4,16 -13,28 -9,13 -32,9 -49,12 7,-17 -13,-40 -24,-40 -17,1 -9,34 -22,43 -24,-1 -30,-8 -38,-18 -17,-18 -30,-66 -28,-104 1,-16 8,-35 13,-52zm276 82c-5,27 -18,45 -40,55 -15,-30 0,-69 40,-55zm-116 82c-12,-22 15,-35 33,-23 3,21 -17,26 -33,23zm-97 36c-13,-19 7,-41 11,-59 35,12 6,44 -11,59zm-92 -233c1,16 1,47 -14,44 -15,-4 -16,-58 14,-44zm-123 52c12,-2 17,3 24,6 1,17 -8,23 -16,31 -8,-7 -11,-24 -8,-37zm-72 20c10,-4 27,4 29,13 5,20 -22,28 -36,34 0,-16 -6,-43 7,-47zm-105 141c-1,-18 9,-26 6,-41 -1,-11 -15,-16 -17,-25 -1,-8 5,-33 8,-38 4,-7 18,-13 28,-12 6,0 12,7 18,6 9,0 21,-16 32,-16 18,2 16,23 19,41 18,-5 42,-14 46,-31 2,-8 -3,-16 0,-21 7,-9 20,-1 30,0 2,8 5,16 7,23 14,-3 28,-15 30,-29 2,-11 0,-22 13,-24 15,-1 23,12 36,3 6,-4 4,-16 15,-20 5,41 45,14 36,-22 5,-2 7,-7 14,-7 -6,30 -18,68 -14,113 2,29 17,85 35,100 10,8 24,10 37,12 3,4 5,17 13,17 9,1 10,-14 18,-17 4,-1 14,1 24,-1 17,-4 37,-18 51,-19 18,0 40,-1 45,-20 15,1 24,-13 37,-6 20,-12 35,-30 43,-54 23,-13 38,-33 55,-51 28,1 48,6 51,24 2,15 -22,58 -18,69 4,11 24,-1 29,-3 17,-6 35,-9 43,-14 5,-3 10,-11 14,-12 16,-3 24,17 36,22 8,4 30,6 34,6 11,-2 15,-11 18,-23 14,4 16,37 7,48 -6,6 -26,7 -37,13 -10,6 -20,25 -31,26 -5,1 -12,-5 -19,-6 -13,-2 -25,5 -34,2 -11,-3 -12,-21 -20,-23 -15,8 -34,22 -17,38 -40,3 -30,68 -69,73 -5,0 -12,-5 -20,-3 -7,2 -12,15 -18,20 -4,3 -15,7 -23,12 -13,8 -22,22 -31,25 -19,6 -38,-1 -55,7 -12,5 -19,15 -33,8 -16,-8 -19,-30 -33,-37 -12,-6 -36,-10 -55,-8 -18,2 -18,5 -35,-7 -5,-3 -16,-7 -17,-12 -3,-8 22,-66 -5,-61 -10,2 -22,43 -33,45 -13,3 -26,-21 -38,-22 -16,-2 -20,15 -42,10 8,-33 -20,-48 -29,-18 -16,-2 -21,-27 -34,-32 -21,-7 -44,7 -66,0 -5,-2 -12,-12 -20,-15 -23,-8 -47,4 -65,-13zm320 115c-13,0 -26,-1 -28,-9 -1,-8 31,-44 38,-50 5,18 -4,43 -10,59zm-138 -37c-3,-11 15,-22 23,-26 14,20 -17,45 -23,26zm-168 -33c-1,-6 -12,-25 -1,-29 11,-4 39,2 52,8 5,2 11,11 18,13 16,5 43,-7 60,-2 16,4 20,28 34,30 -15,51 50,11 75,12 17,1 19,17 34,20 -10,22 31,33 46,20 13,9 19,25 36,26 11,1 17,-6 25,-8 15,-2 38,3 49,12 15,13 30,63 58,35 18,30 -5,74 1,107 -44,5 -71,-31 -106,-44 -9,-3 -19,-4 -28,-8 -14,-5 -19,-9 -39,-10 -133,-11 -192,-105 -307,-129 -3,-19 -2,-33 -7,-53zm27 280c-6,-21 -15,-46 -15,-64 0,-23 17,-45 17,-70 1,-26 -18,-53 -21,-78 1,-1 1,-2 3,-2 88,14 140,82 216,112 42,16 100,22 143,39 13,5 29,12 45,19 25,11 41,23 72,18 27,98 0,229 14,330 -47,8 -81,-25 -114,-45 -24,-15 -46,-37 -71,-48 -30,-13 -57,-20 -82,-34 -26,-14 -47,-33 -71,-45 -20,-10 -44,-12 -66,-24 -18,-10 -52,-29 -57,-44 -8,-20 -7,-42 -13,-64zm473 509c-58,3 -84,-43 -125,-65 -39,-21 -88,-35 -127,-60 -27,-19 -41,-51 -67,-65 -33,-20 -78,-34 -106,-60 -18,-17 -18,-40 -24,-75 -5,-34 -21,-59 -13,-98 40,32 91,49 139,76 15,9 27,23 42,31 31,14 65,18 100,33 25,10 47,31 71,46 36,24 63,45 114,48 -3,58 4,131 -4,189zm370 -212c-3,13 -14,32 -21,39 -15,14 -42,17 -62,28 -52,29 -97,83 -169,99 -11,3 -23,2 -34,7 -28,11 -45,35 -75,38 2,-63 -3,-126 3,-191 33,-23 76,-22 117,-35 16,-6 32,-20 51,-30 36,-17 69,-37 106,-54 25,-11 57,-15 76,-28 5,19 14,101 8,127zm-8 -308c3,33 10,65 12,90 2,23 -1,56 -8,70 -12,24 -71,27 -98,37 -24,9 -51,28 -76,44 -24,15 -49,35 -76,42 -38,10 -70,14 -105,29 -17,-82 0,-174 -4,-259 -2,-23 -13,-43 -10,-65 13,-9 27,-16 42,-24 14,-7 27,-20 41,-25 22,-8 50,-10 74,-20 29,-12 62,-40 90,-51 26,-11 60,-8 79,-20 12,-8 19,-31 27,-41 22,26 3,63 2,100 -1,27 7,61 10,93z"/>
  <path class="fil8" d="M482 193c5,-25 -19,-27 -33,-8 1,24 29,30 33,8zm-11 -13c4,7 2,16 -6,18 -3,-4 -7,-6 -7,-13 5,-2 7,-6 13,-5z"/>
  <path class="fil8" d="M537 222c18,2 32,-25 13,-38 -10,4 -38,35 -13,38zm13 -24c4,8 -6,14 -14,15 -2,-11 9,-15 14,-15z"/>
  <path class="fil8" d="M641 221c-13,-18 -50,11 -31,34 15,1 40,-20 31,-34zm-8 5c-1,11 -6,18 -17,19 -5,-12 6,-23 17,-19z"/>
  <path class="fil8" d="M440 254c5,-16 -5,-26 -17,-28 -3,9 -7,22 -4,32 8,4 15,-3 21,-4zm-13 -16c9,-1 11,13 0,12 -3,-3 -1,-9 0,-12z"/>
  <path class="fil8" d="M475 267c-1,9 4,26 10,28 19,5 24,-35 11,-48 -3,6 -18,10 -21,20zm10 -3c12,-13 17,24 1,22 1,-9 -2,-13 -1,-22z"/>
  <path class="fil8" d="M704 283c4,-15 -5,-21 -10,-21 -7,0 -24,10 -24,18 -2,16 29,18 34,3zm-8 -12c3,14 -11,18 -17,11 2,-7 8,-10 17,-11z"/>
  <path class="fil8" d="M622 288c-11,6 -16,17 -19,31 23,17 39,-18 19,-31zm-10 27c0,-28 26,0 0,0l0 0z"/>
  <path class="fil8" d="M437 316c2,-9 -6,-22 -13,-21 -7,1 -15,14 -14,21 1,15 25,17 27,0zm-10 -11c3,7 4,16 -7,15 -3,-5 -1,-16 7,-15z"/>
  <path class="fil8" d="M525 365c14,4 29,-15 24,-32 -22,-11 -43,27 -24,32zm17 -25c1,11 -9,17 -15,16 -5,-9 8,-18 15,-16z"/>
  <path class="fil8" d="M683 341c-2,-5 -6,-6 -12,-5 -8,1 -24,9 -22,21 3,23 41,7 34,-16zm-8 3c-1,6 -3,11 -5,16 -7,0 -12,-1 -14,-6 3,-6 12,-12 19,-10z"/>
  <path class="fil8" d="M407 403c25,9 24,-39 9,-35 -7,2 -24,30 -9,35zm9 -25c6,4 2,19 -6,17 -5,-8 3,-12 6,-17z"/>
  <path class="fil8" d="M482 391c-6,0 -24,13 -21,23 3,13 30,9 31,-7 1,-8 -4,-16 -10,-16zm-12 22c1,-8 5,-12 13,-12 5,8 -5,17 -13,12z"/>
  <path class="fil8" d="M608 397c-20,-4 -46,13 -33,34 22,0 35,-10 33,-34zm-8 8c2,14 -10,15 -18,18 -6,-12 6,-19 18,-18z"/>
  <path class="fil8" d="M367 452c20,-1 10,-36 -11,-33 -4,17 -6,35 11,33zm-4 -21c1,0 2,0 4,0 2,2 3,10 1,13 -10,2 -9,-8 -5,-13z"/>
  <path class="fil8" d="M263 485c9,-4 22,-7 26,-13 11,-17 -9,-48 -25,-49 -21,-1 -25,51 -27,69 9,6 16,-2 26,-7zm-1 -52c11,-2 25,18 22,31 -3,13 -27,12 -38,20 1,-16 1,-49 16,-51z"/>
  <path class="fil8" d="M503 475c26,13 37,-34 12,-28 -7,2 -27,21 -12,28zm18 -23c5,9 -5,19 -14,15 0,-10 8,-11 14,-15z"/>
  <path class="fil8" d="M711 464c-2,-31 -55,-1 -40,25 18,4 42,-8 40,-25zm-9 -1c4,10 -14,21 -25,18 -2,-14 21,-32 25,-18z"/>
  <path class="fil8" d="M411 495c20,5 17,-27 21,-37 -13,-6 -42,31 -21,37zm3 -10c-1,-1 -1,-2 -3,-2 1,-6 4,-10 11,-11 0,8 -1,14 -8,13z"/>
  <path class="fil8" d="M474 493c-13,1 -21,22 -8,27 17,6 22,-27 8,-27zm-5 19c-4,-5 2,-13 6,-9 0,5 0,10 -6,9z"/>
  <path class="fil8" d="M374 499c-9,3 -11,27 2,28 16,1 12,-33 -2,-28zm0 17c0,-3 1,-5 2,-7 2,0 2,2 4,2 -2,2 -2,6 -6,5z"/>
  <path class="fil8" d="M125 507c-25,-13 -42,5 -39,31 18,11 49,-8 39,-31zm-6 5c2,18 -14,22 -25,22 -2,-16 8,-32 25,-22z"/>
  <path class="fil8" d="M286 537c-9,13 -48,37 -48,49 0,8 12,22 20,23 30,4 50,-42 35,-75 -4,0 -5,1 -7,3zm-28 64c-35,-8 21,-52 32,-52 9,26 -12,56 -32,52z"/>
  <path class="fil8" d="M679 586c7,-12 -7,-26 0,-36 -29,-19 -60,16 -51,43 4,16 44,4 51,-7zm-12 -32c20,16 -5,47 -30,37 -4,-17 11,-51 30,-37z"/>
  <path class="fil8" d="M457 659c9,2 27,-8 33,-15 13,-15 5,-37 -4,-51 -8,5 -42,12 -46,26 -3,12 10,38 17,40zm28 -57c15,23 -4,51 -25,49 -27,-23 -1,-49 25,-49z"/>
  <path class="fil8" d="M576 676c4,-18 6,-59 -25,-44 -2,-2 -1,-9 -7,-8 -11,30 -4,67 32,52zm-7 -38c3,10 5,26 0,34 -31,9 -30,-43 0,-34z"/>
  <path class="fil8" d="M100 737c17,-6 4,-35 -14,-34 -21,10 -7,42 14,34zm-2 -8c-8,0 -11,-4 -15,-7 0,-18 24,-5 15,7z"/>
  <path class="fil8" d="M847 799c17,-9 -3,-28 -6,-42 -12,5 -38,12 -39,24 -1,11 33,25 45,18zm-3 -8c-13,4 -25,-4 -33,-9 8,-19 40,-19 33,9z"/>
  <path class="fil8" d="M105 810c3,15 24,9 40,12 11,2 25,14 37,8 19,-42 -27,-59 -57,-63 0,18 -22,27 -20,43zm25 -33c18,-6 63,25 45,46 -20,-8 -44,-6 -62,-15 7,-10 5,-27 17,-31z"/>
  <path class="fil8" d="M222 863c6,16 39,10 53,5 10,-38 -17,-49 -50,-46 3,11 -7,29 -3,41zm11 -29c7,-4 20,-4 29,-2 4,8 10,19 6,31 -10,4 -31,4 -38,-3 0,-10 1,-19 3,-26z"/>
  <path class="fil8" d="M317 863c16,-1 24,-42 1,-37 -18,3 -23,38 -1,37zm0 -8c-5,-2 -9,-6 -10,-9 -1,-26 38,-6 10,9z"/>
  <path class="fil8" d="M677 838c-2,-8 -14,-11 -27,-14 1,12 -12,16 -9,26 4,17 44,12 36,-12zm-28 9c1,-18 13,-14 22,-5 0,12 -17,13 -22,5z"/>
  <path class="fil8" d="M815 826c-12,23 -25,46 18,42 17,-17 -1,-38 -18,-42zm-6 30c-2,-19 21,-22 24,-8 4,15 -13,15 -24,8z"/>
  <path class="fil8" d="M752 905c9,-25 -19,-74 -34,-70 -11,3 -17,25 -25,37 -7,10 -23,25 -20,38 7,27 75,8 79,-5zm-31 -62c11,12 33,38 23,59 -8,18 -45,15 -63,7 8,-28 26,-45 40,-66z"/>
  <path class="fil8" d="M412 893c-1,-29 -21,-63 -49,-42 0,16 -15,24 -11,40 5,18 48,11 60,2zm-28 -42c13,2 16,22 21,38 -9,6 -39,10 -45,0 -6,-9 9,-41 24,-38z"/>
  <path class="fil8" d="M614 872c-2,-6 -9,-12 -15,-11 -6,1 -17,11 -17,16 -1,19 40,18 32,-5zm-9 11c-7,1 -11,-1 -14,-4 0,-14 24,-8 14,4z"/>
  <path class="fil8" d="M119 887c4,17 -14,30 -10,46 6,20 44,8 62,5 9,-39 -24,-46 -52,-51zm44 45c-11,3 -35,7 -46,0 -1,-15 6,-23 8,-35 20,4 43,5 38,35z"/>
  <path class="fil8" d="M864 889c-6,18 -42,15 -44,36 -1,16 19,37 33,34 20,-3 36,-57 11,-70zm-13 62c-10,2 -25,-16 -23,-27 3,-13 28,-17 40,-22 5,18 -3,48 -17,49z"/>
  <path class="fil8" d="M500 914c-5,-23 -31,6 -40,16 9,30 46,14 40,-16zm-9 -1c5,16 -12,37 -21,17 6,-7 12,-13 21,-17z"/>
  <path class="fil8" d="M255 928c-2,0 -2,0 -3,1 -11,16 -43,44 -14,58 22,11 70,24 64,-14 -2,-14 -30,-52 -47,-45zm33 63c-8,4 -53,-9 -55,-18 -4,-12 15,-33 23,-36 14,-5 54,43 32,54z"/>
  <path class="fil8" d="M763 986c19,-3 9,-42 -8,-37 -20,6 -14,40 8,37zm-8 -28c3,-1 13,4 13,11 0,22 -31,-3 -13,-11z"/>
  <path class="fil8" d="M386 958c-12,3 -26,23 -25,36 1,12 37,50 49,48 10,-2 23,-43 12,-65 -5,-8 -22,-23 -36,-19zm22 74c-11,-11 -38,-21 -39,-39 0,-10 12,-26 17,-27 30,-9 44,46 22,66z"/>
  <path class="fil8" d="M592 963c-16,3 -26,14 -26,24 0,12 32,48 42,47 10,-2 27,-36 23,-57 -2,-17 -18,-17 -39,-14zm15 61c-8,1 -34,-29 -33,-38 1,-18 27,-20 47,-15 5,15 -2,52 -14,53z"/>
  <path class="fil8" d="M166 982c1,9 15,17 26,14 4,-10 5,-20 0,-26 -9,-11 -28,-3 -26,12zm21 7c-28,-5 6,-28 0,0l0 0z"/>
  <path class="fil8" d="M816 994c-6,0 -19,6 -21,12 -1,6 2,29 7,32 19,12 51,-46 14,-44zm-9 34c-2,-6 -3,-14 -2,-22 22,-21 29,25 2,22z"/>
  <path class="fil8" d="M891 1030c4,-17 -8,-28 -21,-31 -13,17 -1,41 21,31zm-6 -7c-24,5 -4,-27 0,0l0 0z"/>
  <path class="fil8" d="M475 1076c7,0 21,-13 23,-17 10,-33 -26,-36 -42,-15 6,11 7,31 19,32zm12 -40c8,14 2,29 -13,31 -3,-7 -7,-13 -9,-22 8,-2 11,-9 22,-9z"/>
  <path class="fil8" d="M692 1030c-12,5 -18,46 -2,51 11,4 41,-20 36,-38 -3,-10 -21,-19 -34,-13zm0 43c-9,-20 3,-50 25,-31 2,16 -12,27 -25,31z"/>
  <path class="fil8" d="M346 1077c21,-1 19,-51 1,-45 -2,1 -21,19 -21,25 -1,8 12,21 20,20zm2 -38c13,6 7,28 -2,29 -19,1 -10,-25 2,-29z"/>
  <path class="fil8" d="M763 1049c-5,2 -17,14 -16,22 2,16 38,16 35,-7 0,-8 -9,-18 -19,-15zm6 26c-34,-7 17,-29 0,0l0 0z"/>
  <path class="fil8" d="M188 1055c-37,0 16,51 18,17 1,-10 -15,-17 -18,-17zm-4 8c7,-3 11,3 15,8 -3,8 -19,3 -15,-8z"/>
  <path class="fil8" d="M111 1060c-5,1 -11,13 -11,15 0,18 35,21 32,0 -2,-9 -18,-16 -21,-15zm1 12c3,-2 11,-1 12,4 2,13 -22,2 -12,-4z"/>
  <path class="fil8" d="M857 1090c-7,31 40,31 28,0 -9,-4 -20,-7 -28,0zm8 6c4,-3 9,-2 14,0 4,14 -17,13 -14,0z"/>
  <path class="fil8" d="M592 1088c1,16 -29,35 -18,51 9,14 44,0 47,-10 6,-23 -7,-44 -29,-41zm-12 46c1,-18 18,-51 29,-36 5,8 1,20 4,31 -5,6 -23,12 -33,5z"/>
  <path class="fil8" d="M447 1138c6,-2 12,-23 9,-32 -4,-9 -20,-13 -28,-17 -3,9 -6,18 -10,25 6,6 17,27 29,24zm-2 -10c-7,-3 -19,-8 -19,-15 -4,-24 37,-6 19,15z"/>
  <path class="fil8" d="M263 1109c-37,8 27,48 20,12 -2,-8 -16,-13 -20,-12zm-1 16c-1,-5 1,-6 2,-8 3,2 9,2 11,5 0,7 -11,7 -13,3z"/>
  <path class="fil8" d="M184 1133c-27,11 13,41 20,20 4,-13 -11,-24 -20,-20zm0 16c1,-11 12,-11 12,0 -2,3 -10,3 -12,0z"/>
  <path class="fil8" d="M778 1161c-10,-53 -47,21 0,0l0 0zm-15 -12c3,1 9,1 9,6 -3,3 -10,2 -12,-1 -1,-4 3,-3 3,-5z"/>
  <path class="fil8" d="M353 1147c-18,6 -4,31 10,28 16,-3 9,-34 -10,-28zm11 8c4,27 -26,-4 0,0l0 0z"/>
  <path class="fil8" d="M794 1173c1,36 43,16 20,-7 -10,-1 -13,4 -20,7zm17 13c-5,0 -8,-3 -8,-9 3,-1 4,-4 8,-3 3,4 3,8 0,12z"/>
  <path class="fil8" d="M265 1207c2,-5 -1,-11 -3,-16 -21,-37 -35,41 3,16zm-18 -7c0,-4 2,-6 3,-9 6,0 7,6 8,12 -5,3 -8,0 -11,-3z"/>
  <path class="fil8" d="M874 1190c-10,-1 -16,3 -17,9 -5,28 45,14 17,-9zm-6 18c-3,-4 -3,-7 0,-10 6,-1 7,4 7,9 -1,2 -4,1 -7,1z"/>
  <path class="fil8" d="M452 1208c-24,4 -5,33 9,25 14,-7 4,-27 -9,-25zm4 19c-14,0 -3,-19 4,-9 0,4 -1,8 -4,9z"/>
  <path class="fil8" d="M601 1216c-7,35 40,20 33,-2 -3,-13 -22,-3 -33,2zm8 11c-2,-11 11,-12 17,-9 2,10 -11,14 -17,9z"/>
  <path class="fil8" d="M714 1223c-8,1 -16,8 -16,18 1,25 41,15 33,-9 -1,-4 -8,-11 -17,-9zm-6 22c-3,-15 14,-13 14,-1 -2,3 -11,4 -14,1z"/>
  <path class="fil8" d="M507 1228c-37,3 21,41 12,7 -2,-6 -6,-7 -12,-7zm-1 13c-5,-3 1,-9 5,-5 0,4 -1,6 -5,5z"/>
  <path class="fil8" d="M310 1236c-22,26 27,38 22,11 -1,-9 -11,-9 -22,-11zm7 19c-8,-6 2,-16 8,-8 -1,5 -3,8 -8,8z"/>
  <path class="fil8" d="M771 1243c-10,1 -25,22 -10,28 19,6 27,-31 10,-28zm-7 18c-3,-3 6,-11 10,-8 -1,4 -6,11 -10,8z"/>
  <path class="fil8" d="M384 1277c-30,8 14,43 21,19 3,-14 -13,-21 -21,-19zm13 17c-7,3 -16,1 -15,-8 5,-4 11,0 15,3 0,2 0,4 0,5z"/>
  <path class="fil8" d="M488 1285c-6,2 -21,7 -20,17 1,28 46,5 20,-17zm-1 9c7,24 -24,4 0,0l0 0z"/>
  <path class="fil8" d="M591 1290c-8,2 -19,16 -9,26 21,21 40,-33 9,-26zm10 18c-3,2 -10,3 -14,1 -3,-13 18,-17 14,-1z"/>
  <path class="fil8" d="M675 1294c-13,6 -8,30 8,27 14,-3 11,-36 -8,-27zm2 19c-3,-5 0,-13 7,-12 3,5 1,13 -7,12z"/>
  <path class="fil9" d="M137 1410c12,-2 62,16 64,30 3,13 -7,29 -16,34 -12,8 -44,10 -59,4 -23,-10 -15,-64 11,-68zm0 43c9,13 59,2 59,-10 0,-13 -48,-30 -61,-26 1,16 -5,27 2,36zm-11 13c12,1 2,-31 0,-40 -10,2 -9,39 0,40zm11 -5c-1,4 -5,7 -6,11 24,5 59,3 60,-16 -14,5 -36,10 -54,5z"/>
  <path class="fil9" d="M115 110c12,-2 61,16 63,30 3,13 -7,29 -16,34 -12,8 -44,10 -59,3 -22,-9 -15,-63 12,-67zm-1 43c9,13 59,2 59,-10 0,-13 -48,-30 -61,-26 1,16 -5,27 2,36zm-11 13c12,1 2,-31 0,-40 -10,2 -9,39 0,40zm12 -5c-2,4 -5,7 -7,11 24,5 59,3 60,-16 -14,5 -36,10 -53,5z"/>
  <path class="fil10" d="M937 1c38,-8 34,48 24,78 -7,23 -13,43 -39,29 -9,-5 -17,-13 -30,-22 -16,-11 -37,-19 -30,-46 1,-5 12,-14 19,-18 16,-9 39,-13 54,-20 1,-1 1,-1 2,-1zm-38 18c-7,3 -32,11 -31,23 1,8 15,10 21,14 5,3 10,9 18,14 10,6 34,21 44,17 7,-2 10,-26 11,-40 2,-29 -3,-43 -24,-41 -15,2 -24,9 -39,13zm-23 49c12,12 41,31 52,36 14,6 20,-1 22,-11 -34,-3 -52,-29 -82,-40 0,7 4,11 8,15z"/>
 </g>
</svg>
