<?xml version="1.0" encoding="UTF-8"?>
<!DOCTYPE svg PUBLIC "-//W3C//DTD SVG 1.1//EN" "http://www.w3.org/Graphics/SVG/1.1/DTD/svg11.dtd">
<!-- Creator: CorelDRAW X8 -->
<svg xmlns="http://www.w3.org/2000/svg" xml:space="preserve" width="2.54331in" height="2.58936in" version="1.1" style="shape-rendering:geometricPrecision; text-rendering:geometricPrecision; image-rendering:optimizeQuality; fill-rule:evenodd; clip-rule:evenodd"
viewBox="0 0 929 946"
 xmlns:xlink="http://www.w3.org/1999/xlink">
 <defs>
  <style type="text/css">
   <![CDATA[
    .fil6 {fill:#EB5290}
    .fil7 {fill:#F7C4E4}
    .fil5 {fill:#3A2119;fill-rule:nonzero}
    .fil3 {fill:#743F30;fill-rule:nonzero}
    .fil0 {fill:#BA8876;fill-rule:nonzero}
    .fil1 {fill:#D8AFA4;fill-rule:nonzero}
    .fil4 {fill:#FEEFD8;fill-rule:nonzero}
    .fil2 {fill:#FFDAAE;fill-rule:nonzero}
   ]]>
  </style>
 </defs>
 <g id="Layer_x0020_1">
  <metadata id="CorelCorpID_0Corel-Layer"/>
  <path class="fil0" d="M315 264c-4,-3 -10,-4 -18,-3 -5,28 18,25 18,3z"/>
  <path class="fil0" d="M258 331c4,-9 19,-13 15,-26 -8,-27 -42,14 -15,26z"/>
  <path class="fil0" d="M430 114c-46,-8 1,53 0,0l0 0z"/>
  <path class="fil0" d="M211 350c49,15 17,-39 0,0l0 0z"/>
  <path class="fil0" d="M374 179c6,-4 7,-20 4,-31 -37,-16 -28,48 -4,31z"/>
  <path class="fil1" d="M361 201c-10,-5 -21,0 -36,-1 -6,13 -14,25 -15,44 23,-9 38,-24 51,-43z"/>
  <path class="fil0" d="M467 73c-12,-2 -30,3 -27,23 18,1 22,-12 27,-23z"/>
  <path class="fil0" d="M134 597c-4,29 41,23 31,-3 -9,-4 -25,-3 -31,3z"/>
  <path class="fil0" d="M177 621c7,7 17,12 32,12 -2,-14 -24,-29 -32,-12z"/>
  <path class="fil0" d="M224 385c-11,-6 -17,8 -17,19 11,-1 15,-9 17,-19z"/>
  <path class="fil0" d="M143 556c5,-5 10,-17 7,-26 -9,1 -16,23 -7,26z"/>
  <path class="fil0" d="M192 459c-16,-14 -23,18 -15,27 7,-6 12,-16 15,-27z"/>
  <path class="fil0" d="M177 435c35,9 3,-36 0,0l0 0z"/>
  <path class="fil0" d="M839 136c15,-2 7,-25 5,-35 -29,1 -16,23 -5,35z"/>
  <path class="fil0" d="M543 31c-13,4 -25,8 -27,24 13,2 27,-9 27,-24z"/>
  <path class="fil0" d="M876 309c11,0 17,-26 12,-41 -29,-7 -28,40 -12,41z"/>
  <path class="fil0" d="M892 232c-7,1 -16,0 -16,8 2,5 12,5 16,2l0 -10z"/>
  <path class="fil0" d="M905 304c0,-8 1,-15 -5,-16 -3,6 -5,12 -7,19 5,0 8,-2 12,-3z"/>
  <path class="fil0" d="M890 334c34,11 5,-46 0,0l0 0z"/>
  <path class="fil1" d="M888 402c15,-5 20,-31 12,-46 -35,-1 -17,27 -12,46z"/>
  <path class="fil2" d="M717 49c13,-36 -33,-39 -37,-10 9,8 24,13 37,10z"/>
  <path class="fil0" d="M788 73c8,-18 -18,-23 -32,-15 1,14 18,20 32,15z"/>
  <path class="fil0" d="M631 31c3,-23 -28,-29 -35,-11 7,8 24,14 35,11z"/>
  <path class="fil0" d="M205 658c1,17 11,26 33,22l0 -17c-13,3 -19,-18 -33,-5z"/>
  <path class="fil0" d="M812 89c2,-3 7,-3 9,-5 -2,-7 -3,-14 -9,-17l-3 0c-2,6 -5,20 3,22z"/>
  <path class="fil0" d="M864 213c11,-5 11,-33 -3,-34 0,10 -1,25 3,34z"/>
  <path class="fil0" d="M903 425c6,0 8,-2 7,-7 -5,-1 -5,4 -7,7z"/>
  <path class="fil0" d="M851 617c8,2 11,-2 12,-8 -7,0 -14,0 -12,8z"/>
  <path class="fil2" d="M638 377c-5,-13 -28,-50 -37,-56 -14,-10 -44,-10 -61,-7 -44,7 -103,61 -123,92 -36,53 -45,118 -2,160 28,28 101,58 150,50 55,-10 57,-69 68,-127 7,-40 21,-71 5,-112zm-133 123c-12,-2 -20,-16 -17,-31 4,-25 48,-32 50,-58 3,0 5,0 7,0 4,31 -8,94 -40,89z"/>
  <path class="fil0" d="M704 229c-14,-11 -23,-29 -36,-36 -16,-9 -55,-19 -69,-19 -69,-1 -101,62 -145,87 -9,5 -22,6 -29,10 -41,26 -64,86 -91,131 -23,38 -64,65 -63,110 2,40 45,68 70,93 45,46 88,64 155,86 40,13 79,52 130,41 33,-8 73,-77 86,-116 10,-29 9,-69 14,-109 9,-80 51,-166 22,-238 -8,-20 -28,-28 -44,-40zm17 40c7,0 10,3 13,6 0,6 -6,7 -13,6 -3,-2 -3,-9 0,-12zm-47 -18c12,-3 22,4 20,20 -5,39 -60,-11 -20,-20zm3 203c7,-1 9,3 8,10 -8,6 -15,-5 -8,-10zm-3 -65c-3,-3 -6,-8 -2,-12 5,-1 6,2 10,3 0,6 -3,9 -8,9zm-21 -75c19,-5 23,27 7,29 -13,1 -26,-24 -7,-29zm-25 -109c4,-1 5,2 8,3 1,4 1,8 -1,10 -11,2 -12,-8 -7,-13zm12 88c-2,3 -4,7 -9,7 -2,-2 -2,-8 0,-10 6,-2 6,3 9,3zm-49 -25c4,0 8,0 10,1 0,3 0,5 0,7 -2,2 -6,2 -10,2 -2,-5 -2,-5 0,-10zm-36 -39c2,-12 14,-17 29,-12 19,29 -32,40 -29,12zm-22 -12c3,2 7,3 7,8 -1,1 -3,2 -3,4 -7,0 -9,-10 -4,-12zm10 52c-3,2 -4,5 -10,4 -2,-2 -2,-10 0,-12 3,0 5,0 7,0 1,3 4,4 3,8zm-60 -5c10,0 10,12 0,12 -4,-3 -4,-8 0,-12zm-21 55c-14,1 -23,-5 -23,-14 -3,-29 47,-14 23,14zm-67 19c4,-1 8,-1 10,1 1,6 1,4 0,9 -3,0 -6,0 -9,0 -2,-2 -2,-6 -1,-10zm-12 66c-8,-22 25,-2 0,0l0 0zm-86 75c2,-2 6,-2 10,-1 0,2 0,5 0,8 -2,0 -3,0 -4,2 -5,0 -5,-5 -6,-9zm22 55c-28,0 -14,-53 15,-29 2,17 -5,29 -15,29zm22 -85c-2,1 -6,1 -10,1 0,-4 -4,-3 -2,-8 2,-2 6,-2 10,-2 -1,4 3,4 2,9zm6 104c-2,-12 7,-12 12,-7 2,10 -7,11 -12,7zm14 -104c-1,-4 2,-5 3,-6 18,-11 1,25 -3,6zm32 156c-15,3 -14,-18 0,-17 4,6 4,12 0,17zm39 40c-12,-11 1,-28 12,-29 32,-5 8,46 -12,29zm105 6c0,13 15,15 15,24 -1,35 -65,-18 -15,-24zm42 -11c2,-2 6,-2 10,-2 0,2 0,3 2,3 0,6 -4,8 -10,7 -2,-2 -3,-4 -2,-8zm8 52c-2,-2 -2,-6 -1,-10 11,-7 17,13 1,10zm39 -20c-16,-2 -16,-28 0,-32 24,-7 25,35 0,32zm15 -165c-5,26 -9,56 -20,76 -37,73 -159,37 -211,-8 -17,-15 -40,-52 -37,-89 5,-59 73,-134 116,-162 13,-8 27,-15 48,-19 75,-15 119,52 120,120 0,25 -11,57 -16,82zm16 34c3,-2 8,-3 8,3 1,13 -19,3 -8,-3zm10 41c4,-3 9,-3 10,3 1,13 -21,4 -10,-3zm13 63c-6,4 -17,-3 -12,-11 9,-1 13,2 12,11zm10 -154c14,-1 16,27 2,29 -13,2 -23,-27 -2,-29zm11 70c-3,0 -5,0 -7,0 -4,-4 -1,-9 2,-12 1,0 2,0 3,0 2,3 5,8 2,12zm6 -128c-11,1 -22,-26 -1,-29 16,-2 16,29 1,29zm0 -94c-6,-13 12,-29 27,-18 6,19 -20,32 -27,18z"/>
  <path class="fil0" d="M690 501c0,4 -4,3 -3,9 2,0 5,0 7,0 0,-4 0,-8 -4,-9z"/>
  <path class="fil3" d="M508 489c18,4 26,-31 27,-51 -14,0 -57,46 -27,51z"/>
  <path class="fil0" d="M315 510c-8,11 10,20 12,7 -3,-3 -4,-9 -12,-7z"/>
  <path class="fil4" d="M751 102c-7,-3 -17,-3 -25,-6 -10,-5 -17,-17 -27,-19 -10,-3 -25,1 -41,-2 -22,-3 -45,-18 -69,-12 -20,5 -51,18 -69,29 -18,11 -37,32 -58,48 -49,39 -81,78 -111,135 -18,33 -44,50 -64,76 -12,15 -20,41 -34,63 -22,36 -47,65 -61,108 -21,63 23,69 61,95 27,19 49,48 79,69 29,19 67,26 100,47 34,22 63,51 100,65 14,6 32,10 50,16 46,14 64,11 93,-12 11,-9 28,-15 37,-28 12,-16 23,-47 34,-71 12,-26 19,-55 31,-77 8,-17 27,-33 32,-50 2,-10 1,-25 3,-40 6,-34 24,-71 25,-99 2,-26 -2,-56 -3,-86 -2,-119 -4,-210 -83,-249zm2 329c-9,41 -18,77 -22,118 -4,42 -12,76 -30,109 -18,30 -45,79 -80,84 -50,7 -95,-31 -132,-44 -49,-18 -85,-29 -123,-55 -16,-11 -30,-27 -46,-44 -37,-40 -80,-73 -42,-139 8,-14 24,-29 37,-47 33,-44 56,-112 100,-144 9,-6 22,-8 34,-15 42,-24 72,-78 133,-87 54,-8 91,19 122,46 30,26 57,41 62,92 4,39 -5,91 -13,126z"/>
  <path class="fil3" d="M839 585c-4,-21 5,-40 10,-56 12,-1 26,1 36,-2 -3,-9 -8,-16 -2,-26 -3,-4 -14,0 -20,-1 -10,-19 3,-41 5,-60 8,-2 19,-2 29,-3 -1,-7 -5,-11 -4,-19 -22,-12 -40,-66 -3,-70 -3,-8 -11,-11 -9,-26 -37,0 -31,-66 4,-64 -4,-12 -20,-7 -21,-18 -1,-16 59,-20 19,-44 1,45 -45,28 -34,-17 3,-9 26,-27 5,-37 -19,16 -46,-20 -39,-38 3,-7 12,-8 20,-10 -1,-1 -1,-1 -1,-1 -2,-2 -4,-3 -6,-3 -1,0 -2,0 -2,0 -4,6 -11,10 -24,7 -2,-5 -1,-13 -3,-19 -23,10 -47,8 -53,-13 -3,-12 2,-25 -15,-22 -5,1 -3,10 -7,13 -21,1 -43,5 -50,-8 -3,-4 2,-12 0,-16 -6,-9 -18,-10 -31,-6 -3,4 0,13 -5,15 -24,-4 -40,-5 -49,-12 -12,-9 -3,-14 -17,-14 -31,1 -20,56 -57,50 -11,-2 -22,-21 -36,-4 2,23 -15,38 -34,45 0,15 -12,32 -23,42 -11,-6 -24,3 -34,7 -2,28 -10,42 -24,60 -10,14 -29,21 -35,31 -10,15 -2,37 -20,49 -16,-7 -21,-7 -26,15 -5,26 -43,47 -62,58 0,2 1,2 1,4 8,6 16,-7 22,-2 -7,17 -18,44 -42,50 6,10 3,23 -10,23 0,8 11,6 12,12 -4,22 -18,35 -32,46 -8,2 -6,-5 -12,-5 -8,4 -14,10 -14,22 3,7 10,0 14,6 5,35 -17,43 -31,59 13,5 31,-6 44,0 4,8 -3,11 0,19 29,3 49,16 54,43 10,2 10,-6 17,-2 6,12 1,27 5,41 25,-25 64,1 43,34 15,4 27,-11 42,-14 3,17 7,35 7,50 17,-23 49,-27 71,-5l0 12c23,0 35,15 32,39 5,-4 7,-12 10,-19 17,7 31,18 34,39 8,2 2,-10 8,-10 18,9 43,34 25,56 10,13 28,9 48,9 -10,-9 -32,-4 -36,-15 -12,-37 57,-35 59,-6 1,6 -3,10 -6,17 2,4 11,1 17,2 4,-12 19,-21 35,-15 3,6 -1,9 0,17 8,0 14,-2 20,-4 -2,-9 -9,-14 -6,-29 15,-3 33,-5 52,-5 -5,-30 19,-43 46,-47 2,-11 4,-22 16,-23 -12,-14 -6,-39 4,-52 11,-2 17,2 29,1 -4,-21 -13,-34 -11,-65 10,-7 19,-10 34,-8 6,-1 5,-9 7,-14 5,1 7,-3 14,-1 0,-9 -6,-12 -4,-23 24,-6 56,-12 46,-46 -12,11 -24,36 -46,26zm-22 -10c-4,17 -18,29 -27,44 -13,23 -23,54 -35,82 -12,28 -21,61 -36,80 -10,13 -27,17 -39,26 -13,9 -22,22 -37,25 -35,7 -86,-15 -118,-27 -37,-14 -71,-49 -105,-70 -33,-20 -67,-27 -95,-46 -28,-19 -51,-43 -77,-63 -39,-29 -92,-40 -66,-108 15,-41 43,-73 64,-109 12,-20 20,-42 32,-59 13,-18 32,-28 44,-43 27,-34 45,-85 71,-118 15,-18 39,-35 61,-53 21,-17 42,-41 61,-52 18,-11 49,-24 69,-29 27,-7 53,7 76,10 17,2 29,-1 41,3 10,4 18,12 28,17 32,16 67,31 86,63 25,41 26,103 26,168 0,39 8,85 5,121 -2,22 -10,43 -17,66 -7,24 -7,51 -12,72z"/>
  <path class="fil0" d="M439 636c6,3 13,-1 11,-10 -6,-4 -13,1 -11,10z"/>
  <path class="fil0" d="M704 416c0,3 0,5 2,7 4,0 7,-3 6,-9 -4,0 -6,1 -8,2z"/>
  <path class="fil0" d="M655 322c-2,3 -2,8 0,11 10,1 10,-12 0,-11z"/>
  <path class="fil0" d="M626 662c8,1 10,-3 12,-7 -3,-10 -19,-3 -12,7z"/>
  <path class="fil0" d="M685 275c0,-4 0,-8 0,-12 -7,-9 -20,1 -13,12 7,-1 8,2 13,0z"/>
  <path class="fil0" d="M459 297c-27,4 10,28 0,0l0 0z"/>
  <path class="fil0" d="M564 234c27,15 9,-29 0,0l0 0z"/>
  <path class="fil0" d="M530 665c-1,6 1,8 2,12 5,-1 5,3 8,0 0,-7 -5,-10 -10,-12z"/>
  <path class="fil0" d="M837 638c2,11 2,23 12,25 7,-4 9,-12 10,-22 -5,-3 -13,-4 -22,-3z"/>
  <path class="fil0" d="M799 655l0 25c16,0 18,-15 22,-29 -8,-5 -17,2 -22,4z"/>
  <path class="fil0" d="M848 576c20,-2 27,-19 32,-37 -25,-13 -34,19 -32,37z"/>
  <path class="fil2" d="M827 696c-7,-4 -17,-1 -23,2 -6,34 31,22 23,-2z"/>
  <path class="fil0" d="M903 409c2,-4 10,-2 9,-8 -5,-6 -11,7 -9,8z"/>
  <path class="fil0" d="M773 756c14,-1 16,-13 17,-26 -15,-16 -29,14 -17,26z"/>
  <path class="fil0" d="M263 692c7,6 10,15 24,14 11,-20 -19,-34 -24,-14z"/>
  <path class="fil0" d="M878 447c-3,12 -14,30 -7,42 23,-2 25,-24 32,-42 -7,-5 -17,0 -25,0z"/>
  <path class="fil0" d="M890 507l0 8c8,1 10,-4 10,-10 -4,0 -8,0 -10,2z"/>
  <path class="fil0" d="M898 481c0,6 -6,7 -6,14 7,-2 13,-4 11,-14l-5 0z"/>
  <path class="fil1" d="M481 841c5,8 31,25 37,12 9,-20 -30,-40 -37,-12z"/>
  <path class="fil0" d="M452 812c6,3 16,11 24,7 2,-18 -24,-33 -24,-7z"/>
  <path class="fil0" d="M410 764c-7,0 -8,5 -17,3 -1,6 1,8 2,12 9,-1 18,-6 15,-15z"/>
  <path class="fil0" d="M401 788c7,21 40,30 33,-9 -13,-7 -25,2 -33,9z"/>
  <path class="fil1" d="M297 728c4,14 13,22 32,21 4,-8 0,-19 0,-28 -13,1 -25,2 -32,7z"/>
  <path class="fil0" d="M398 754c-9,-10 -30,-21 -37,-2 9,2 31,13 37,2z"/>
  <path class="fil0" d="M619 873c4,0 8,-2 9,-5 -3,-3 -10,-1 -9,5z"/>
  <path class="fil0" d="M694 846c0,6 -1,14 2,17 13,1 19,-4 21,-14 -4,-4 -14,-3 -23,-3z"/>
  <path class="fil0" d="M716 827c16,0 25,-8 25,-24 -14,3 -27,5 -25,24z"/>
  <path class="fil0" d="M662 851c-2,5 2,5 3,9 7,-1 12,-3 10,-11 -5,1 -11,-1 -13,2z"/>
  <path class="fil0" d="M765 803c7,2 15,-10 13,-24 -19,-10 -23,16 -13,24z"/>
  <path class="fil0" d="M543 856c13,1 29,11 39,4 -4,-19 -37,-32 -39,-4z"/>
  <path class="fil5" d="M905 346c24,-26 7,-71 -10,-94 43,-32 -10,-63 -22,-92 -11,-25 -19,-46 -25,-73 -2,2 -5,4 -8,5 1,-1 0,-2 0,-3 -3,-4 -7,-6 -12,-6 1,-6 1,-14 1,-22 -9,-8 -26,-2 -30,0 -1,-5 4,-9 0,-13 -29,0 -54,-2 -71,-16 -16,-12 -10,-24 -26,-23 -9,0 -14,12 -23,11 -4,0 -9,-5 -14,-6 -20,-4 -36,9 -37,-14 -23,9 -37,2 -61,5 -25,4 -45,37 -62,43 -8,2 -16,-2 -22,0 -9,2 -15,14 -24,19 -19,8 -38,11 -27,39 -9,1 -12,-3 -20,-2 -11,8 -15,24 -12,36 -41,-16 -72,16 -46,51 -47,-9 -49,26 -54,60 -2,3 -11,0 -13,3 10,34 -15,36 -38,33 -8,9 -7,28 -13,40 -6,-2 -14,-1 -22,-1 -4,11 -16,13 -15,24 1,10 14,10 13,20 0,6 -9,7 -12,12 -4,9 2,21 -6,29 -6,0 -5,-5 -12,-3 -16,5 -11,25 -10,37 0,3 -5,31 -7,34 -4,7 -16,7 -24,17 -12,17 -7,47 -12,65 -3,13 -12,18 -10,33 2,14 14,30 22,32 8,2 16,-3 22,-2 10,2 20,16 32,19 7,2 13,-5 19,5 -11,2 -17,4 -19,12 -5,31 31,25 51,32 19,8 28,29 42,29 0,48 57,39 93,46 4,29 29,59 59,45 6,12 22,13 31,22 -5,21 23,26 34,32 15,10 20,18 37,21 15,2 30,-5 55,-4 21,1 62,5 80,-1 5,-2 7,-8 12,-9 21,-6 49,-9 37,-36 14,-3 18,-17 27,-27 3,3 4,7 10,7 21,-4 22,-27 31,-43 -3,-4 -12,-3 -16,-7 16,-3 18,-22 24,-35 22,9 41,-21 35,-45 -3,-4 -17,2 -20,-3 7,-7 7,-20 14,-26 13,33 36,5 42,-17 0,-9 -12,-5 -12,-13 8,-7 9,-21 22,-23 16,-15 9,-38 14,-59 3,-17 14,-32 17,-50 1,-12 -8,-23 -7,-34 0,-8 10,-9 13,-22 3,-13 -4,-25 9,-29 -20,-13 -12,-44 -24,-65zm-15 -12c5,-46 34,11 0,0l0 0zm-2 68c-5,-19 -23,-47 12,-46 8,15 3,41 -12,46zm0 -134c5,15 -1,41 -12,41 -16,-1 -17,-48 12,-41zm-12 -28c0,-8 9,-7 16,-8l0 10c-4,3 -14,3 -16,-2zm24 48c6,1 5,8 5,16 -4,1 -7,3 -12,3 2,-7 4,-13 7,-19zm-36 -75c-4,-9 -3,-24 -3,-34 14,1 14,29 3,34zm-20 -112c2,10 10,33 -5,35 -11,-12 -24,-34 5,-35zm-35 -34l3 0c6,3 7,10 9,17 -2,2 -7,2 -9,5 -8,-2 -5,-16 -3,-22zm-21 6c-14,5 -31,-1 -32,-15 14,-8 40,-3 32,15zm-71 -24c-13,3 -28,-2 -37,-10 4,-29 50,-26 37,10zm-86 -18c-11,3 -28,-3 -35,-11 7,-18 38,-12 35,11zm-88 0c0,15 -14,26 -27,24 2,-16 14,-20 27,-24zm-76 42c-5,11 -9,24 -27,23 -3,-20 15,-25 27,-23zm-37 41c1,53 -46,-8 0,0l0 0zm-52 34c3,11 2,27 -4,31 -24,17 -33,-47 4,-31zm-53 52c15,1 26,-4 36,1 -13,19 -28,34 -51,43 1,-19 9,-31 15,-44zm-28 61c8,-1 14,0 18,3 0,22 -23,25 -18,-3zm-24 44c4,13 -11,17 -15,26 -27,-12 7,-53 15,-26zm-62 45c17,-39 49,15 0,0l0 0zm13 35c-2,10 -6,18 -17,19 0,-11 6,-25 17,-19zm-47 50c3,-36 35,9 0,0l0 0zm15 24c-3,11 -8,21 -15,27 -8,-9 -1,-41 15,-27zm-42 71c3,9 -2,21 -7,26 -9,-3 -2,-25 7,-26zm-16 67c6,-6 22,-7 31,-3 10,26 -35,32 -31,3zm43 24c8,-17 30,-2 32,12 -15,0 -25,-5 -32,-12zm61 59c-22,4 -32,-5 -33,-22 14,-13 20,8 33,5l0 17zm49 26c-14,1 -17,-8 -24,-14 5,-20 35,-6 24,14zm42 43c-19,1 -28,-7 -32,-21 7,-5 19,-6 32,-7 0,9 4,20 0,28zm32 3c7,-19 28,-8 37,2 -6,11 -28,0 -37,-2zm34 27c-1,-4 -3,-6 -2,-12 9,2 10,-3 17,-3 3,9 -6,14 -15,15zm6 9c8,-7 20,-16 33,-9 7,39 -26,30 -33,9zm75 31c-8,4 -18,-4 -24,-7 0,-26 26,-11 24,7zm42 34c-6,13 -32,-4 -37,-12 7,-28 46,-8 37,12zm25 3c2,-28 35,-15 39,4 -10,7 -26,-3 -39,-4zm76 17c-1,-6 6,-8 9,-5 -1,3 -5,5 -9,5zm46 -13c-1,-4 -5,-4 -3,-9 2,-3 8,-1 13,-2 2,8 -3,10 -10,11zm31 3c-3,-3 -2,-11 -2,-17 9,0 19,-1 23,3 -2,10 -8,15 -21,14zm20 -36c-2,-19 11,-21 25,-24 0,16 -9,24 -25,24zm49 -24c-10,-8 -6,-34 13,-24 2,14 -6,26 -13,24zm8 -47c-12,-12 2,-42 17,-26 -1,13 -3,25 -17,26zm54 -60c8,24 -29,36 -23,2 6,-3 16,-6 23,-2zm-28 -16l0 -25c5,-2 14,-9 22,-4 -4,14 -6,29 -22,29zm50 -17c-10,-2 -10,-14 -12,-25 9,-1 17,0 22,3 -1,10 -3,18 -10,22zm2 -46c-2,-8 5,-8 12,-8 -1,6 -4,10 -12,8zm-12 -12c-2,11 4,14 4,23 -7,-2 -9,2 -14,1 -2,5 -1,13 -7,14 -15,-2 -24,1 -34,8 -2,31 7,44 11,65 -12,1 -18,-3 -29,-1 -10,13 -16,38 -4,52 -12,1 -14,12 -16,23 -27,4 -51,17 -46,47 -19,0 -37,2 -52,5 -3,15 4,20 6,29 -6,2 -12,4 -20,4 -1,-8 3,-11 0,-17 -16,-6 -31,3 -35,15 -6,-1 -15,2 -17,-2 3,-7 7,-11 6,-17 -2,-29 -71,-31 -59,6 4,11 26,6 36,15 -20,0 -38,4 -48,-9 18,-22 -7,-47 -25,-56 -6,0 0,12 -8,10 -3,-21 -17,-32 -34,-39 -3,7 -5,15 -10,19 3,-24 -9,-39 -32,-39l0 -12c-22,-22 -54,-18 -71,5 0,-15 -4,-33 -7,-50 -15,3 -27,18 -42,14 21,-33 -18,-59 -43,-34 -4,-14 1,-29 -5,-41 -7,-4 -7,4 -17,2 -5,-27 -25,-40 -54,-43 -3,-8 4,-11 0,-19 -13,-6 -31,5 -44,0 14,-16 36,-24 31,-59 -4,-6 -11,1 -14,-6 0,-12 6,-18 14,-22 6,0 4,7 12,5 14,-11 28,-24 32,-46 -1,-6 -12,-4 -12,-12 13,0 16,-13 10,-23 24,-6 35,-33 42,-50 -6,-5 -14,8 -22,2 0,-2 -1,-2 -1,-4 19,-11 57,-32 62,-58 5,-22 10,-22 26,-15 18,-12 10,-34 20,-49 6,-10 25,-17 35,-31 14,-18 22,-32 24,-60 10,-4 23,-13 34,-7 11,-10 23,-27 23,-42 19,-7 36,-22 34,-45 14,-17 25,2 36,4 37,6 26,-49 57,-50 14,0 5,5 17,14 9,7 25,8 49,12 5,-2 2,-11 5,-15 13,-4 25,-3 31,6 2,4 -3,12 0,16 7,13 29,9 50,8 4,-3 2,-12 7,-13 17,-3 12,10 15,22 6,21 30,23 53,13 2,6 1,14 3,19 13,3 20,-1 24,-7 0,0 1,0 2,0 2,0 4,1 6,3 0,0 0,0 1,1 -8,2 -17,3 -20,10 -7,18 20,54 39,38 21,10 -2,28 -5,37 -11,45 35,62 34,17 40,24 -20,28 -19,44 1,11 17,6 21,18 -35,-2 -41,64 -4,64 -2,15 6,18 9,26 -37,4 -19,58 3,70 -1,8 3,12 4,19 -10,1 -21,1 -29,3 -2,19 -15,41 -5,60 6,1 17,-3 20,1 -6,10 -1,17 2,26 -10,3 -24,1 -36,2 -5,16 -14,35 -10,56 22,10 34,-15 46,-26 10,34 -22,40 -46,46zm41 -66c-5,18 -12,35 -32,37 -2,-18 7,-50 32,-37zm-9 -50c-7,-12 4,-30 7,-42 8,0 18,-5 25,0 -7,18 -9,40 -32,42zm19 26l0 -8c2,-2 6,-2 10,-2 0,6 -2,11 -10,10zm2 -20c0,-7 6,-8 6,-14l5 0c2,10 -4,12 -11,14zm11 -70c2,-3 2,-8 7,-7 1,5 -1,7 -7,7zm0 -16c-2,-1 4,-14 9,-8 1,6 -7,4 -9,8z"/>
  <path class="fil5" d="M841 316c0,-65 -1,-127 -26,-168 -19,-32 -54,-47 -86,-63 -10,-5 -18,-13 -28,-17 -12,-4 -24,-1 -41,-3 -23,-3 -49,-17 -76,-10 -20,5 -51,18 -69,29 -19,11 -40,35 -61,52 -22,18 -46,35 -61,53 -26,33 -44,84 -71,118 -12,15 -31,25 -44,43 -12,17 -20,39 -32,59 -21,36 -49,68 -64,109 -26,68 27,79 66,108 26,20 49,44 77,63 28,19 62,26 95,46 34,21 68,56 105,70 32,12 83,34 118,27 15,-3 24,-16 37,-25 12,-9 29,-13 39,-26 15,-19 24,-52 36,-80 12,-28 22,-59 35,-82 9,-15 23,-27 27,-44 5,-21 5,-48 12,-72 7,-23 15,-44 17,-66 3,-36 -5,-82 -5,-121zm-4 121c-1,28 -19,65 -25,99 -2,15 -1,30 -3,40 -5,17 -24,33 -32,50 -12,22 -19,51 -31,77 -11,24 -22,55 -34,71 -9,13 -26,19 -37,28 -29,23 -47,26 -93,12 -18,-6 -36,-10 -50,-16 -37,-14 -66,-43 -100,-65 -33,-21 -71,-28 -100,-47 -30,-21 -52,-50 -79,-69 -38,-26 -82,-32 -61,-95 14,-43 39,-72 61,-108 14,-22 22,-48 34,-63 20,-26 46,-43 64,-76 30,-57 62,-96 111,-135 21,-16 40,-37 58,-48 18,-11 49,-24 69,-29 24,-6 47,9 69,12 16,3 31,-1 41,2 10,2 17,14 27,19 8,3 18,3 25,6 79,39 81,130 83,249 1,30 5,60 3,86z"/>
  <path class="fil5" d="M704 213c-31,-27 -68,-54 -122,-46 -61,9 -91,63 -133,87 -12,7 -25,9 -34,15 -44,32 -67,100 -100,144 -13,18 -29,33 -37,47 -38,66 5,99 42,139 16,17 30,33 46,44 38,26 74,37 123,55 37,13 82,51 132,44 35,-5 62,-54 80,-84 18,-33 26,-67 30,-109 4,-41 13,-77 22,-118 8,-35 17,-87 13,-126 -5,-51 -32,-66 -62,-92zm22 294c-5,40 -4,80 -14,109 -13,39 -53,108 -86,116 -51,11 -90,-28 -130,-41 -67,-22 -110,-40 -155,-86 -25,-25 -68,-53 -70,-93 -1,-45 40,-72 63,-110 27,-45 50,-105 91,-131 7,-4 20,-5 29,-10 44,-25 76,-88 145,-87 14,0 53,10 69,19 13,7 22,25 36,36 16,12 36,20 44,40 29,72 -13,158 -22,238z"/>
  <path class="fil5" d="M635 218c2,-2 2,-6 1,-10 -3,-1 -4,-4 -8,-3 -5,5 -4,15 7,13z"/>
  <path class="fil5" d="M584 217c-15,-5 -27,0 -29,12 -3,28 48,17 29,-12zm-20 17c9,-29 27,15 0,0l0 0z"/>
  <path class="fil5" d="M537 229c0,-2 2,-3 3,-4 0,-5 -4,-6 -7,-8 -5,2 -3,12 4,12z"/>
  <path class="fil5" d="M694 271c2,-16 -8,-23 -20,-20 -40,9 15,59 20,20zm-9 -8c0,4 0,8 0,12 -5,2 -6,-1 -13,0 -7,-11 6,-21 13,-12z"/>
  <path class="fil5" d="M533 261c-2,2 -2,10 0,12 6,1 7,-2 10,-4 1,-4 -2,-5 -3,-8 -2,0 -4,0 -7,0z"/>
  <path class="fil5" d="M483 264c-4,4 -4,9 0,12 10,0 10,-12 0,-12z"/>
  <path class="fil5" d="M601 276c0,-2 0,-4 0,-7 -2,-1 -6,-1 -10,-1 -2,5 -2,5 0,10 4,0 8,0 10,-2z"/>
  <path class="fil5" d="M734 275c-3,-3 -6,-6 -13,-6 -3,3 -3,10 0,12 7,1 13,0 13,-6z"/>
  <path class="fil5" d="M462 319c24,-28 -26,-43 -23,-14 0,9 9,15 23,14zm-3 -22c10,28 -27,4 0,0l0 0z"/>
  <path class="fil5" d="M631 290c-2,2 -2,8 0,10 5,0 7,-4 9,-7 -3,0 -3,-5 -9,-3z"/>
  <path class="fil5" d="M537 305c-21,4 -35,11 -48,19 -43,28 -111,103 -116,162 -3,37 20,74 37,89 52,45 174,81 211,8 11,-20 15,-50 20,-76 5,-25 16,-57 16,-82 -1,-68 -45,-135 -120,-120zm96 184c-11,58 -13,117 -68,127 -49,8 -122,-22 -150,-50 -43,-42 -34,-107 2,-160 20,-31 79,-85 123,-92 17,-3 47,-3 61,7 9,6 32,43 37,56 16,41 2,72 -5,112z"/>
  <path class="fil5" d="M660 343c16,-2 12,-34 -7,-29 -19,5 -6,30 7,29zm-5 -21c10,-1 10,12 0,11 -2,-3 -2,-8 0,-11z"/>
  <path class="fil5" d="M405 348c1,-5 1,-3 0,-9 -2,-2 -6,-2 -10,-1 -1,4 -1,8 1,10 3,0 6,0 9,0z"/>
  <path class="fil5" d="M682 380c-4,-1 -5,-4 -10,-3 -4,4 -1,9 2,12 5,0 8,-3 8,-9z"/>
  <path class="fil5" d="M383 404c25,-2 -8,-22 0,0l0 0z"/>
  <path class="fil5" d="M706 404c-21,3 -10,30 1,29 15,0 15,-31 -1,-29zm0 19c-2,-2 -2,-4 -2,-7 2,-1 4,-2 8,-2 1,6 -2,9 -6,9z"/>
  <path class="fil5" d="M538 411c-2,26 -46,33 -50,58 -3,15 5,29 17,31 32,5 44,-58 40,-89 -2,0 -4,0 -7,0zm-30 78c-30,-5 13,-51 27,-51 -1,20 -9,55 -27,51z"/>
  <path class="fil5" d="M339 440c-4,0 -8,0 -10,2 -2,5 2,4 2,8 4,0 8,0 10,-1 1,-5 -3,-5 -2,-9z"/>
  <path class="fil5" d="M364 443c-1,1 -4,2 -3,6 4,19 21,-17 3,-6z"/>
  <path class="fil5" d="M685 464c1,-7 -1,-11 -8,-10 -7,5 0,16 8,10z"/>
  <path class="fil5" d="M307 486c0,-3 0,-6 0,-8 -4,-1 -8,-1 -10,1 1,4 1,9 6,9 1,-2 2,-2 4,-2z"/>
  <path class="fil5" d="M690 491c-21,2 -11,31 2,29 14,-2 12,-30 -2,-29zm-3 19c-1,-6 3,-5 3,-9 4,1 4,5 4,9 -2,0 -5,0 -7,0z"/>
  <path class="fil5" d="M319 534c10,0 17,-12 15,-29 -29,-24 -43,29 -15,29zm-4 -24c8,-2 9,4 12,7 -2,13 -20,4 -12,-7z"/>
  <path class="fil5" d="M665 544c0,-6 -5,-5 -8,-3 -11,6 9,16 8,3z"/>
  <path class="fil5" d="M347 553c5,4 14,3 12,-7 -5,-5 -14,-5 -12,7z"/>
  <path class="fil5" d="M696 549c-3,3 -6,8 -2,12 2,0 4,0 7,0 3,-4 0,-9 -2,-12 -1,0 -2,0 -3,0z"/>
  <path class="fil5" d="M677 585c-1,-6 -6,-6 -10,-3 -11,7 11,16 10,3z"/>
  <path class="fil5" d="M393 605c4,-5 4,-11 0,-17 -14,-1 -15,20 0,17z"/>
  <path class="fil5" d="M444 616c-11,1 -24,18 -12,29 20,17 44,-34 12,-29zm-5 20c-2,-9 5,-14 11,-10 2,9 -5,13 -11,10z"/>
  <path class="fil5" d="M668 634c-5,8 6,15 12,11 1,-9 -3,-12 -12,-11z"/>
  <path class="fil5" d="M591 641c-2,0 -2,-1 -2,-3 -4,0 -8,0 -10,2 -1,4 0,6 2,8 6,1 10,-1 10,-7z"/>
  <path class="fil5" d="M626 640c-16,4 -16,30 0,32 25,3 24,-39 0,-32zm0 22c-7,-10 9,-17 12,-7 -2,4 -4,8 -12,7z"/>
  <path class="fil5" d="M537 651c-50,6 14,59 15,24 0,-9 -15,-11 -15,-24zm-5 26c-1,-4 -3,-6 -2,-12 5,2 10,5 10,12 -3,3 -3,-1 -8,0z"/>
  <path class="fil5" d="M586 682c-1,4 -1,8 1,10 16,3 10,-17 -1,-10z"/>
  <path class="fil5" d="M707 339c7,14 33,1 27,-18 -15,-11 -33,5 -27,18z"/>
  <path class="fil6" d="M94 845c22,-3 19,16 32,18 10,1 16,-10 31,-7 11,2 21,16 22,28 4,36 -42,67 -77,61 -37,-6 -71,-93 -8,-100zm13 91c29,4 67,-21 65,-48 0,-7 -5,-20 -14,-23 -12,-4 -23,8 -35,6 -15,-3 -8,-22 -30,-19 -54,8 -16,81 14,84z"/>
  <path class="fil7" d="M95 69c3,16 -20,83 -38,86 -18,4 -39,-8 -46,-20 -11,-16 -15,-59 -7,-79 13,-30 84,-22 91,13zm-58 1c-17,12 0,79 16,78 17,0 37,-64 32,-82 -21,2 -36,-5 -48,4zm-17 -14c-2,16 41,2 53,-1 -3,-14 -52,-12 -53,1zm6 15c-5,-2 -8,-6 -14,-8 -6,31 -3,79 23,79 -7,-18 -14,-47 -9,-71z"/>
 </g>
</svg>
