<?xml version="1.0" encoding="UTF-8"?>
<!DOCTYPE svg PUBLIC "-//W3C//DTD SVG 1.1//EN" "http://www.w3.org/Graphics/SVG/1.1/DTD/svg11.dtd">
<!-- Creator: CorelDRAW X8 -->
<svg xmlns="http://www.w3.org/2000/svg" xml:space="preserve" width="2.39543in" height="2.11918in" version="1.1" style="shape-rendering:geometricPrecision; text-rendering:geometricPrecision; image-rendering:optimizeQuality; fill-rule:evenodd; clip-rule:evenodd"
viewBox="0 0 375 332"
 xmlns:xlink="http://www.w3.org/1999/xlink">
 <defs>
  <style type="text/css">
   <![CDATA[
    .fil8 {fill:#8C2408;fill-rule:nonzero}
    .fil9 {fill:#A14533;fill-rule:nonzero}
    .fil10 {fill:#C20000;fill-rule:nonzero}
    .fil12 {fill:#D61400;fill-rule:nonzero}
    .fil6 {fill:#E37012;fill-rule:nonzero}
    .fil11 {fill:#EB1400;fill-rule:nonzero}
    .fil5 {fill:#F79136;fill-rule:nonzero}
    .fil13 {fill:#F8AA93;fill-rule:nonzero}
    .fil0 {fill:#FF7D82;fill-rule:nonzero}
    .fil4 {fill:#FF8F94;fill-rule:nonzero}
    .fil7 {fill:#FFAD61;fill-rule:nonzero}
    .fil2 {fill:#FFB3BD;fill-rule:nonzero}
    .fil1 {fill:#FFCFD4;fill-rule:nonzero}
    .fil3 {fill:white;fill-rule:nonzero}
   ]]>
  </style>
 </defs>
 <g id="Layer_x0020_1">
  <metadata id="CorelCorpID_0Corel-Layer"/>
  <path class="fil0" d="M95 327c-25,10 -62,-29 -82,-85 -20,-56 -16,-109 9,-118 25,-9 62,29 82,85 21,56 16,109 -9,118z"/>
  <path class="fil1" d="M97 327c-23,8 -58,-30 -78,-86 -20,-56 -17,-108 6,-116 23,-9 58,30 78,86 20,56 18,108 -6,116z"/>
  <path class="fil1" d="M99 326c-23,8 -58,-30 -78,-86 -20,-56 -18,-108 5,-117 24,-8 59,31 79,86 20,56 17,108 -6,117z"/>
  <path class="fil2" d="M83 232c1,10 -1,18 -6,20 -7,3 -18,-10 -24,-27 -2,-4 -3,-8 -4,-12 1,5 2,11 4,17 7,17 18,30 25,27 6,-2 7,-12 5,-25z"/>
  <path class="fil3" d="M33 141c18,-7 45,22 62,64 0,0 0,0 0,0 0,-2 -1,-4 -2,-6 -16,-46 -45,-78 -64,-71 -20,7 -22,50 -5,96 1,2 1,4 2,6 -14,-43 -11,-83 7,-89z"/>
  <path class="fil2" d="M91 301c-19,7 -46,-22 -63,-64 0,0 0,0 0,0 1,2 2,4 2,6 17,46 46,78 65,71 19,-7 22,-50 5,-96 -1,-2 -2,-4 -2,-6 14,43 11,83 -7,89z"/>
  <path class="fil1" d="M85 239c-13,5 -27,0 -31,-11l0 0c-4,-11 3,-24 16,-29l64 -23c14,-5 28,0 32,12l0 0c4,11 -4,24 -17,28l-64 23z"/>
  <path class="fil3" d="M66 214l90 -33c1,0 2,0 3,-1 -6,-2 -14,-3 -21,0l-64 23c-8,2 -14,8 -17,15 3,-2 6,-3 9,-4z"/>
  <path class="fil2" d="M155 203l-90 32c-1,1 -2,1 -3,1 6,3 14,4 21,1l64 -23c8,-3 14,-8 17,-15 -3,2 -6,3 -9,4z"/>
  <path class="fil4" d="M268 329c-47,17 -112,-42 -144,-132 -32,-90 -20,-177 27,-194 48,-17 112,42 145,132 32,90 20,177 -28,194z"/>
  <path class="fil1" d="M270 323c-44,16 -105,-42 -136,-129 -31,-88 -21,-172 23,-187 44,-16 105,42 136,130 31,87 21,171 -23,186z"/>
  <path class="fil3" d="M160 225c-4,-8 -7,-18 -11,-27 -31,-88 -22,-170 19,-185 11,-3 23,-2 35,3 -15,-9 -30,-12 -43,-7 -42,14 -51,97 -20,185 17,47 43,87 69,110 -18,-19 -35,-47 -49,-79z"/>
  <path class="fil5" d="M183 41c-6,4 -12,7 -18,10 -8,4 -9,5 -11,15 -5,30 -3,61 2,92 5,30 14,66 28,93 6,12 13,27 24,35 13,9 24,9 37,5 16,-5 36,-8 51,-18 -3,-7 -8,-12 -10,-19 -4,-11 -4,-18 -4,-29 0,-25 -9,-50 -18,-73 -5,-12 -11,-25 -15,-38 -4,-13 -6,-26 -12,-38 -9,-17 -26,-51 -27,-52 0,0 -18,12 -27,17z"/>
  <path class="fil6" d="M208 286c13,9 24,9 37,5 5,-2 11,-3 17,-5 -53,-21 -104,-144 -110,-159 0,3 1,6 1,9l4 29c5,28 15,61 27,86 6,12 13,27 24,35z"/>
  <path class="fil7" d="M206 32l-47 28c0,0 -21,52 26,126 0,0 -30,-95 22,-154l-1 0z"/>
  <path class="fil6" d="M282 267c-3,-6 -9,-11 -13,-18 -5,-7 -9,-15 -13,-23 -3,-7 -8,-15 -10,-23 -2,-8 -3,-15 -4,-23 -1,-8 -2,-15 -2,-23 0,-10 0,-20 -1,-30 -1,-13 -2,-25 -6,-37 -3,-8 -7,-16 -7,-25 0,-6 0,-11 -3,-16 -2,-7 -9,-12 -10,-19l-2 -5c0,0 0,0 -1,-1l0 -1c-7,5 -16,7 -22,16 -5,8 5,9 11,11 10,4 1,11 -4,14 -8,3 -5,13 2,15 7,3 16,1 14,11 -2,7 -15,7 -7,16 2,2 5,4 5,8 -1,4 -6,5 -9,7 -5,3 -16,6 -15,15 0,9 13,9 17,9 5,0 15,2 16,7 2,6 -13,2 -14,11 -1,8 9,4 10,10 2,6 -12,3 -11,11 1,8 17,10 9,16 -4,3 -18,1 -15,10 3,8 21,3 22,7 0,4 -8,-2 -6,5 2,7 7,3 11,5 9,5 -1,11 -6,14 -2,1 -10,-1 -9,5 1,7 5,8 9,9 3,1 5,1 10,1 3,0 8,2 6,6 -1,3 -9,1 -8,5 1,5 7,6 10,6 2,-1 9,-3 10,2 1,4 -6,1 -9,7 -4,5 -1,8 5,10 1,0 2,-1 3,-1 13,-4 27,-7 40,-12 0,-3 -1,-7 -3,-12z"/>
  <path class="fil8" d="M303 273c21,-16 27,-49 29,-76 15,2 20,5 33,-5 13,-11 12,-24 6,-40 -13,-38 -51,-53 -80,-72 -27,-17 -57,-29 -78,-55 -1,-1 -2,-3 -3,-5 0,0 -16,11 -21,17 -9,10 4,8 10,10 10,4 1,11 -4,14 -8,5 -7,13 2,15 6,1 16,1 14,11 -2,8 -15,7 -7,16 2,3 5,4 5,8 -1,4 -6,6 -9,7 -4,3 -17,10 -15,18 1,9 12,6 17,6 6,0 15,2 16,8 2,5 -12,7 -14,11 -3,7 9,4 11,9 1,6 -14,4 -12,14 2,6 18,8 9,13 -4,3 -21,5 -14,13 5,7 13,3 20,3 -2,4 -8,3 -4,9 2,3 7,1 10,3 9,5 -1,11 -6,13 -2,2 -8,3 -9,6 -2,4 4,7 7,8 5,2 7,1 12,1 3,0 8,2 6,7 -1,3 -7,2 -8,6 0,5 7,4 10,4 2,0 9,-2 10,2 1,4 -6,7 -8,8 -9,7 4,10 10,11 8,1 14,1 24,-1 10,-2 18,-4 31,-17z"/>
  <path class="fil9" d="M287 86c29,20 66,35 78,72 3,10 5,19 2,27 7,-10 5,-21 1,-33 -13,-36 -50,-50 -79,-68 -21,-13 -43,-22 -62,-38 10,9 20,16 31,23 10,6 20,11 29,17z"/>
  <path class="fil5" d="M237 62c1,1 2,3 3,4 15,17 36,25 55,36 21,12 47,22 57,48 4,11 5,20 -4,28 -8,7 -12,5 -22,4 -1,20 -4,45 -21,56 -11,7 -28,13 -44,-26 -16,-39 -17,-87 -18,-107 -1,-20 -3,-25 -5,-37 -1,-4 -1,-6 -1,-6z"/>
  <path class="fil10" d="M244 76c0,1 1,2 2,3 13,15 36,26 47,31 10,6 41,19 51,41 4,10 5,18 -3,25 -7,7 -10,5 -19,4 0,18 -3,40 -17,49 -9,6 -24,12 -39,-22 -14,-34 -16,-76 -17,-94 -1,-17 -3,-22 -5,-32 0,-3 0,-5 0,-5z"/>
  <path class="fil11" d="M244 77c1,1 2,2 3,2 13,15 36,25 47,30 11,5 42,17 51,39 4,9 6,17 -2,25 -7,6 -10,5 -18,4 -1,17 -3,39 -17,49 -9,6 -24,13 -39,-21 -15,-33 -17,-75 -19,-92 -1,-17 -3,-21 -5,-32 -1,-3 -1,-4 -1,-4z"/>
  <path class="fil12" d="M298 112c60,36 48,63 20,60 0,0 4,34 -25,37 -12,1 -20,-2 -25,-6 1,1 2,3 2,4 15,33 30,27 39,21 14,-10 16,-32 17,-49 8,0 11,2 18,-5 8,-7 7,-15 2,-24 -8,-21 -35,-32 -48,-38z"/>
  <path class="fil13" d="M341 152c2,6 4,12 2,18 5,-7 3,-15 -1,-23 -11,-21 -43,-30 -54,-35 0,0 -1,0 -2,0 1,0 5,2 10,5 15,6 37,17 45,35z"/>
  <path class="fil9" d="M302 271c1,-1 2,-2 3,-2 -14,6 -34,6 -52,-38 -21,-48 -24,-109 -26,-137 0,-4 -1,-7 -1,-10 -2,-17 -3,-26 -5,-34 2,11 3,19 4,41 1,26 0,91 20,143 19,53 43,45 57,37z"/>
  <path class="fil3" d="M305 220c3,-2 6,-4 7,-7 0,1 -1,2 -3,3 -8,6 -21,11 -35,-18 -13,-30 -16,-68 -17,-84 -1,-9 -2,-14 -3,-18 1,5 2,10 2,21 1,15 2,53 15,84 12,30 26,25 34,19z"/>
  <path class="fil3" d="M208 116c0,0 -22,11 -21,18 0,7 8,5 8,5 0,0 -10,-6 13,-23z"/>
  <path class="fil3" d="M196 66c1,-3 7,-9 7,-9 0,0 -5,4 -9,7 -4,3 -2,8 2,8 0,0 -2,-2 0,-6z"/>
  <path class="fil3" d="M206 26c0,0 -16,11 -17,14 0,4 9,4 9,4 0,0 -10,-1 8,-18z"/>
  <path class="fil3" d="M212 199c0,0 -14,4 -13,8 0,4 5,3 5,3 0,0 -3,-4 8,-11z"/>
  <path class="fil3" d="M225 237c0,0 -8,4 -11,5 -2,2 -8,6 5,8 0,0 -9,-2 6,-13z"/>
 </g>
</svg>
