<?xml version="1.0" encoding="UTF-8"?>
<!DOCTYPE svg PUBLIC "-//W3C//DTD SVG 1.1//EN" "http://www.w3.org/Graphics/SVG/1.1/DTD/svg11.dtd">
<!-- Creator: CorelDRAW X8 -->
<svg xmlns="http://www.w3.org/2000/svg" xml:space="preserve" width="4.10658in" height="2.33128in" version="1.1" style="shape-rendering:geometricPrecision; text-rendering:geometricPrecision; image-rendering:optimizeQuality; fill-rule:evenodd; clip-rule:evenodd"
viewBox="0 0 12127 6884"
 xmlns:xlink="http://www.w3.org/1999/xlink">
 <defs>
  <style type="text/css">
   <![CDATA[
    .fil2 {fill:#3A2119;fill-rule:nonzero}
    .fil1 {fill:#B68674;fill-rule:nonzero}
    .fil0 {fill:#FFDAAE;fill-rule:nonzero}
   ]]>
  </style>
 </defs>
 <g id="Layer_x0020_1">
  <metadata id="CorelCorpID_0Corel-Layer"/>
  <path class="fil0" d="M1600 3676c165,95 459,134 708,239 427,180 836,364 1271,533 210,82 519,141 655,258 59,51 94,178 169,192 212,41 479,-170 671,-159 -548,-126 -1056,-320 -1571,-519 -589,-227 -1186,-482 -1877,-560 -14,1 -15,12 -26,16z"/>
  <path class="fil0" d="M6768 2726c441,208 886,339 1336,499 429,153 847,633 1371,427 -15,-246 -298,-329 -477,-413 -193,-90 -411,-181 -601,-263 -393,-168 -802,-407 -1215,-524 -304,-86 -524,-155 -797,-300 -499,-266 -1048,-378 -1595,-628 -262,-120 -599,-169 -798,-314 -107,-78 -120,-248 -254,-226 -275,47 -728,92 -942,199 902,261 1755,701 2648,1028 454,167 891,310 1324,515z"/>
  <path class="fil0" d="M7852 1836c294,137 589,310 888,402 285,88 572,116 842,199 489,150 896,586 1546,536 -470,-519 -1196,-696 -1925,-930 -786,-251 -1409,-598 -2180,-864 -356,-124 -980,-211 -1046,-624 -297,73 -644,102 -901,208 656,158 1245,456 1851,715 299,128 623,217 925,358z"/>
  <path class="fil0" d="M9645 603c-382,-147 -733,-294 -1204,-262 637,304 1371,492 2046,752 -164,-343 -476,-350 -842,-490z"/>
  <path class="fil0" d="M9595 1092c-237,-107 -503,-182 -797,-300 -166,-66 -678,-251 -699,-434 -9,-79 92,-104 42,-142 -384,71 -776,135 -1191,180 1460,517 2882,1080 4384,1546 -352,-456 -1084,-553 -1739,-850z"/>
  <path class="fil0" d="M4805 3462c-169,-62 -355,-83 -521,-146 -252,-95 -482,-232 -730,-320 -779,-276 -1558,-589 -2440,-716 340,223 766,376 1165,585 914,477 1934,907 2942,1237 210,68 463,101 635,190 66,34 132,164 209,175 196,27 423,-176 602,-167 -340,-214 -725,-319 -1100,-466 -261,-102 -499,-276 -762,-372z"/>
  <path class="fil0" d="M640 3391c54,126 8,270 105,392 255,-37 367,148 539,338 111,122 254,259 338,384 58,87 94,191 148,263 225,306 490,324 878,445 55,-223 -6,-535 220,-588 316,-75 730,308 1076,205 -705,-249 -1333,-591 -2065,-806 209,229 424,453 664,645 -319,-81 -530,-480 -817,-672 -97,-65 -204,-68 -262,-156 -38,-59 -37,-149 -75,-215 -98,-171 -369,-365 -527,-505 -90,-79 -178,-169 -246,-282 -41,-69 -181,-242 -18,-345 48,505 533,722 811,1047 296,-282 885,43 1221,150 863,274 1607,617 2506,821 170,38 349,116 528,75 -382,-248 -851,-332 -1294,-489 -1079,-382 -2157,-859 -3096,-1417 -190,-113 -427,-198 -580,-334 -164,-146 -194,-416 51,-489 185,-56 429,66 531,103 414,148 825,197 1200,359 528,228 1140,389 1636,624 463,220 1041,365 1551,591 538,238 1150,676 1808,552 -365,-279 -818,-464 -1255,-659 -1098,-488 -2230,-939 -3255,-1499 -340,-186 -757,-244 -881,-625 -555,325 -1372,372 -1753,786 -130,141 -280,610 -105,938 84,157 338,175 418,363z"/>
  <path class="fil0" d="M2734 1548c671,434 1527,774 2368,1125 392,163 798,364 1202,525 359,144 888,348 1191,555 78,53 187,258 286,278 239,47 534,-216 720,-233 -712,-305 -1430,-614 -2171,-907 -729,-289 -1421,-684 -2146,-951 -217,-79 -461,-116 -720,-210 -224,-82 -500,-255 -720,-224 -14,1 -16,13 -26,16 4,11 2,27 16,26z"/>
  <path class="fil1" d="M11445 3733c-160,80 -204,247 -386,271 -148,19 -300,-74 -469,-26 -408,116 -826,406 -1270,520 -347,88 -724,86 -1070,154 -155,31 -393,114 -433,207 -45,101 -10,227 -54,309 -166,309 -421,-11 -635,-38 -70,-8 -132,33 -203,33 -161,-1 -336,-153 -483,-177 -467,-75 -836,429 -1238,558 -281,90 -562,-13 -848,37 -396,70 -785,254 -1214,224 -32,36 30,152 -40,156 -37,-32 -8,-144 -44,-176 -342,4 -393,-327 -567,-488 -124,-115 -463,-98 -639,-232 -387,-294 -502,-971 -900,-1121 -71,-27 -193,-17 -251,-46 -280,-143 -102,-576 -441,-610 -23,241 22,720 119,986 80,219 356,438 536,601 199,181 430,341 598,527 359,397 635,977 1061,1231 85,51 318,163 400,171 275,27 708,-149 999,-176 950,-90 2041,-312 2865,-626 560,-213 1090,-511 1650,-707 583,-204 1278,-317 1888,-507 700,-219 1716,-352 1574,-1240 -108,120 -309,87 -505,185zm-11115 19c-9,-87 58,-205 124,-150 -18,70 -59,119 -124,150zm174 538c-47,-65 9,-232 96,-147 -40,42 -25,130 -96,147zm551 171c19,-105 -97,-45 -95,-130 119,-98 252,102 95,130zm186 384c-57,-59 -38,-199 79,-187 -17,70 -13,158 -79,187zm318 317c-183,-58 100,-293 165,-140 -67,36 -165,47 -165,140zm588 416c-13,64 59,64 23,109 -237,-1 8,-337 84,-133 -41,21 -60,-3 -107,24zm224 492c-13,-67 123,-111 159,-56 -13,56 -126,93 -159,56zm290 319c-1,43 38,63 9,96 -159,-19 -32,-278 90,-216 -4,65 -68,79 -99,120zm99 -411c26,-97 -36,-99 -45,-189 125,-17 180,168 45,189zm427 612c1,-46 36,-64 61,-89 -10,-36 -58,-65 -24,-108 151,-13 85,258 -37,197zm435 -497c-179,58 -110,-193 6,-84 13,41 -10,51 -6,84zm432 223c-2,-48 43,-57 46,-102 -15,-48 -71,-47 -103,-73 149,-162 254,234 57,175zm759 -403c-41,3 -50,-32 -86,-34 -47,27 8,66 -18,99 -255,-57 132,-299 104,-65zm276 320c-171,-2 -75,-241 56,-143 -25,42 -54,81 -56,143zm508 -296c4,52 63,36 51,106 -219,31 -111,-341 22,-210 7,61 -66,55 -73,104zm589 -165c-31,-55 -98,-64 -109,-143 119,-44 214,92 109,143zm288 153c-4,-60 48,-122 102,-93 7,66 -38,87 -102,93zm85 -714c-35,-30 -66,8 -109,10 -21,-18 -28,-88 -10,-110 94,-30 138,39 119,100zm259 419c-41,-35 19,-59 3,-111 -31,-33 -119,2 -104,-87 165,-52 253,155 101,198zm623 -85c-67,4 -89,-45 -105,-102 79,-24 138,39 105,102zm540 -244c5,-63 68,-133 127,-109 3,73 -46,104 -127,109zm469 -418c64,4 90,119 96,144 -102,42 -122,-81 -96,-144zm666 -76c-92,32 -109,-151 -13,-137 23,23 31,111 13,137zm413 18c10,-71 -42,-122 -15,-165 107,-19 152,171 15,165zm513 -242c18,-2 36,-3 54,-5 19,38 33,83 40,135 -87,22 -119,-61 -94,-130zm275 -136c-38,-42 7,-98 -15,-165 136,-24 120,158 15,165zm706 -93c-86,-57 2,-191 97,-134 -8,65 -27,121 -97,134zm676 -396c-9,-75 -90,-63 -107,-128 69,-96 259,90 107,128z"/>
  <path class="fil0" d="M8816 98c225,28 477,103 695,88 -147,-122 -436,-153 -695,-88z"/>
  <path class="fil0" d="M11947 2633c-14,-58 -105,-130 -140,-180 -82,-120 -145,-306 -267,-363 -263,137 -668,-87 -935,-163 -574,-164 -1157,-401 -1714,-575 -908,-285 -1614,-777 -2649,-752 1,24 7,42 18,54 1801,708 3793,1185 5387,2146 33,-20 38,-128 102,-79 -31,275 -7,677 -297,789 -374,146 -622,-232 -818,-242 -227,-12 -475,177 -672,159 172,-93 427,-115 584,-220 -489,-157 -943,-430 -1425,-561 -269,-73 -524,-83 -759,-193 -1102,-517 -2207,-1119 -3499,-1324 1097,607 2408,1070 3605,1578 435,184 1048,421 1320,764 47,9 89,-51 122,-12 -41,12 -87,20 -120,39 82,409 -94,653 -473,668 -335,13 -455,-297 -701,-309 -289,-15 -530,245 -830,229 -28,330 -151,528 -448,498 -203,-19 -331,-226 -516,-243 -283,-25 -485,171 -751,195 -5,224 -110,434 -359,421 -146,-8 -219,-190 -334,-205 -155,-19 -427,76 -621,113 -75,15 -309,59 -361,103 -109,90 -57,242 -277,275 -461,69 -707,-393 -1238,-328 131,216 -161,613 182,634 -41,-171 -60,-396 67,-464 37,111 -85,383 35,524 39,45 198,62 307,54 235,-17 511,-156 859,-204 298,-41 581,-38 805,-61 349,-36 543,-369 833,-479 80,-30 223,-60 352,-60 204,0 406,149 549,157 145,8 308,-107 447,-70 77,21 205,243 269,239 165,-12 40,-385 121,-469 187,-189 834,-190 1225,-266 514,-99 934,-318 1289,-451 183,-69 214,-228 446,-222 87,3 143,74 214,91 322,76 364,-188 522,-298 128,-88 488,-75 522,-284 9,-50 -32,-158 -34,-218 -2,-154 82,-329 56,-435z"/>
  <path class="fil2" d="M330 3752c65,-31 106,-80 124,-150 -66,-55 -133,63 -124,150z"/>
  <path class="fil2" d="M504 4290c71,-17 56,-105 96,-147 -87,-85 -143,82 -96,147z"/>
  <path class="fil2" d="M960 4331c-2,85 114,25 95,130 157,-28 24,-228 -95,-130z"/>
  <path class="fil2" d="M1241 4845c66,-29 62,-117 79,-187 -117,-12 -136,128 -79,187z"/>
  <path class="fil2" d="M11592 3830c17,65 98,53 107,128 152,-38 -38,-224 -107,-128z"/>
  <path class="fil2" d="M1559 5162c0,-93 98,-104 165,-140 -65,-153 -348,82 -165,140z"/>
  <path class="fil2" d="M10302 4282c22,67 -23,123 15,165 105,-7 121,-189 -15,-165z"/>
  <path class="fil2" d="M11023 4354c70,-13 89,-69 97,-134 -95,-57 -183,77 -97,134z"/>
  <path class="fil2" d="M9116 4807c18,-26 10,-114 -13,-137 -96,-14 -79,169 13,137z"/>
  <path class="fil2" d="M10042 4583c-25,69 7,152 94,130 -7,-52 -21,-97 -40,-135 -18,2 -36,3 -54,5z"/>
  <path class="fil2" d="M9514 4660c-27,43 25,94 15,165 137,6 92,-184 -15,-165z"/>
  <path class="fil2" d="M8450 4883c-26,63 -6,186 96,144 -6,-25 -32,-140 -96,-144z"/>
  <path class="fil2" d="M2170 5687c36,-45 -36,-45 -23,-109 47,-27 66,-3 107,-24 -76,-204 -321,132 -84,133z"/>
  <path class="fil2" d="M6440 5111c-18,22 -11,92 10,110 43,-2 74,-40 109,-10 19,-61 -25,-130 -119,-100z"/>
  <path class="fil2" d="M7981 5301c81,-5 130,-36 127,-109 -59,-24 -122,46 -127,109z"/>
  <path class="fil2" d="M2715 5789c9,90 71,92 45,189 135,-21 80,-206 -45,-189z"/>
  <path class="fil2" d="M6717 5432c-15,89 73,54 104,87 16,52 -44,76 -3,111 152,-43 64,-250 -101,-198z"/>
  <path class="fil2" d="M7336 5443c16,57 38,106 105,102 33,-63 -26,-126 -105,-102z"/>
  <path class="fil2" d="M6077 5629c11,79 78,88 109,143 105,-51 10,-187 -109,-143z"/>
  <path class="fil2" d="M2371 6070c33,37 146,0 159,-56 -36,-55 -172,-11 -159,56z"/>
  <path class="fil2" d="M4709 5978c26,-33 -29,-72 18,-99 36,2 45,37 86,34 28,-234 -359,8 -104,65z"/>
  <path class="fil2" d="M3622 6093c-4,-33 19,-43 6,-84 -116,-109 -185,142 -6,84z"/>
  <path class="fil2" d="M5648 6043c12,-70 -47,-54 -51,-106 7,-49 80,-43 73,-104 -133,-131 -241,241 -22,210z"/>
  <path class="fil2" d="M6474 5925c64,-6 109,-27 102,-93 -54,-29 -106,33 -102,93z"/>
  <path class="fil2" d="M3997 6141c32,26 88,25 103,73 -3,45 -48,54 -46,102 197,59 92,-337 -57,-175z"/>
  <path class="fil2" d="M2670 6485c29,-33 -10,-53 -9,-96 31,-41 95,-55 99,-120 -122,-62 -249,197 -90,216z"/>
  <path class="fil2" d="M5089 6233c2,-62 31,-101 56,-143 -131,-98 -227,141 -56,143z"/>
  <path class="fil2" d="M3224 6393c-34,43 14,72 24,108 -25,25 -60,43 -61,89 122,61 188,-210 37,-197z"/>
  <path class="fil2" d="M11553 1936c-57,-97 -37,-153 -75,-215 -159,-262 -597,-335 -802,-660 -83,-132 -164,-443 -256,-544 -68,-74 -342,-190 -530,-241 -58,-16 -135,-5 -195,-24 -97,-31 -275,-206 -364,-229 -223,-60 -704,14 -807,33 -565,102 -1178,303 -1781,331 -170,8 -362,-63 -523,-21 -84,22 -148,113 -234,147 -136,54 -358,76 -552,106 -193,30 -396,90 -555,93 -242,5 -612,-116 -866,-16 -116,45 -141,196 -224,242 -134,74 -406,66 -581,96 -211,35 -404,109 -581,109 -107,0 -223,-51 -331,-25 -103,25 -126,102 -206,144 -503,258 -1294,365 -1707,685 -76,58 -239,155 -282,220 -127,193 -122,532 -52,766 25,86 101,160 119,252 27,137 -13,275 -3,416 74,952 627,1211 1144,1681 415,376 633,850 948,1186 148,159 486,369 682,408 177,35 411,-47 636,-100 182,-43 364,-72 554,-93 1154,-127 2336,-449 3178,-808 665,-283 1243,-556 1909,-731 696,-182 1441,-313 2115,-570 202,-77 574,-285 645,-447 63,-144 24,-442 60,-685 27,-183 124,-573 80,-769 -45,-199 -464,-569 -563,-737zm-2042 -1750c-218,15 -470,-60 -695,-88 259,-65 548,-34 695,88zm134 417c366,140 678,147 842,490 -675,-260 -1409,-448 -2046,-752 471,-32 822,115 1204,262zm-1504 -387c50,38 -51,63 -42,142 21,183 533,368 699,434 294,118 560,193 797,300 655,297 1387,394 1739,850 -1502,-466 -2924,-1029 -4384,-1546 415,-45 807,-109 1191,-180zm-2164 339c66,413 690,500 1046,624 771,266 1394,613 2180,864 729,234 1455,411 1925,930 -650,50 -1057,-386 -1546,-536 -270,-83 -557,-111 -842,-199 -299,-92 -594,-265 -888,-402 -302,-141 -626,-230 -925,-358 -606,-259 -1195,-557 -1851,-715 257,-106 604,-135 901,-208zm-2239 429c134,-22 147,148 254,226 199,145 536,194 798,314 547,250 1096,362 1595,628 273,145 493,214 797,300 413,117 822,356 1215,524 190,82 408,173 601,263 179,84 462,167 477,413 -524,206 -942,-274 -1371,-427 -450,-160 -895,-291 -1336,-499 -433,-205 -870,-348 -1324,-515 -893,-327 -1746,-767 -2648,-1028 214,-107 667,-152 942,-199zm-994 522c220,-31 496,142 720,224 259,94 503,131 720,210 725,267 1417,662 2146,951 741,293 1459,602 2171,907 -186,17 -481,280 -720,233 -99,-20 -208,-225 -286,-278 -303,-207 -832,-411 -1191,-555 -404,-161 -810,-362 -1202,-525 -841,-351 -1697,-691 -2368,-1125 -14,1 -12,-15 -16,-26 10,-3 12,-15 26,-16zm-2417 584c381,-414 1198,-461 1753,-786 124,381 541,439 881,625 1025,560 2157,1011 3255,1499 437,195 890,380 1255,659 -658,124 -1270,-314 -1808,-552 -510,-226 -1088,-371 -1551,-591 -496,-235 -1108,-396 -1636,-624 -375,-162 -786,-211 -1200,-359 -102,-37 -346,-159 -531,-103 -245,73 -215,343 -51,489 153,136 390,221 580,334 939,558 2017,1035 3096,1417 443,157 912,241 1294,489 -179,41 -358,-37 -528,-75 -899,-204 -1643,-547 -2506,-821 -336,-107 -925,-432 -1221,-150 -278,-325 -763,-542 -811,-1047 -163,103 -23,276 18,345 68,113 156,203 246,282 158,140 429,334 527,505 38,66 37,156 75,215 58,88 165,91 262,156 287,192 498,591 817,672 -240,-192 -455,-416 -664,-645 732,215 1360,557 2065,806 -346,103 -760,-280 -1076,-205 -226,53 -165,365 -220,588 -388,-121 -653,-139 -878,-445 -54,-72 -90,-176 -148,-263 -84,-125 -227,-262 -338,-384 -172,-190 -284,-375 -539,-338 -97,-122 -51,-266 -105,-392 -80,-188 -334,-206 -418,-363 -175,-328 -25,-797 105,-938zm6340 2210c-179,-9 -406,194 -602,167 -77,-11 -143,-141 -209,-175 -172,-89 -425,-122 -635,-190 -1008,-330 -2028,-760 -2942,-1237 -399,-209 -825,-362 -1165,-585 882,127 1661,440 2440,716 248,88 478,225 730,320 166,63 352,84 521,146 263,96 501,270 762,372 375,147 760,252 1100,466zm-1593 439c-192,-11 -459,200 -671,159 -75,-14 -110,-141 -169,-192 -136,-117 -445,-176 -655,-258 -435,-169 -844,-353 -1271,-533 -249,-105 -543,-144 -708,-239 11,-4 12,-15 26,-16 691,78 1288,333 1877,560 515,199 1023,393 1571,519zm5302 49c-610,190 -1305,303 -1888,507 -560,196 -1090,494 -1650,707 -824,314 -1915,536 -2865,626 -291,27 -724,203 -999,176 -82,-8 -315,-120 -400,-171 -426,-254 -702,-834 -1061,-1231 -168,-186 -399,-346 -598,-527 -180,-163 -456,-382 -536,-601 -97,-266 -142,-745 -119,-986 339,34 161,467 441,610 58,29 180,19 251,46 398,150 513,827 900,1121 176,134 515,117 639,232 174,161 225,492 567,488 36,32 7,144 44,176 70,-4 8,-120 40,-156 429,30 818,-154 1214,-224 286,-50 567,53 848,-37 402,-129 771,-633 1238,-558 147,24 322,176 483,177 71,0 133,-41 203,-33 214,27 469,347 635,38 44,-82 9,-208 54,-309 40,-93 278,-176 433,-207 346,-68 723,-66 1070,-154 444,-114 862,-404 1270,-520 169,-48 321,45 469,26 182,-24 226,-191 386,-271 196,-98 397,-65 505,-185 142,888 -874,1021 -1574,1240zm1549 -1502c-34,209 -394,196 -522,284 -158,110 -200,374 -522,298 -71,-17 -127,-88 -214,-91 -232,-6 -263,153 -446,222 -355,133 -775,352 -1289,451 -391,76 -1038,77 -1225,266 -81,84 44,457 -121,469 -64,4 -192,-218 -269,-239 -139,-37 -302,78 -447,70 -143,-8 -345,-157 -549,-157 -129,0 -272,30 -352,60 -290,110 -484,443 -833,479 -224,23 -507,20 -805,61 -348,48 -624,187 -859,204 -109,8 -268,-9 -307,-54 -120,-141 2,-413 -35,-524 -127,68 -108,293 -67,464 -343,-21 -51,-418 -182,-634 531,-65 777,397 1238,328 220,-33 168,-185 277,-275 52,-44 286,-88 361,-103 194,-37 466,-132 621,-113 115,15 188,197 334,205 249,13 354,-197 359,-421 266,-24 468,-220 751,-195 185,17 313,224 516,243 297,30 420,-168 448,-498 300,16 541,-244 830,-229 246,12 366,322 701,309 379,-15 555,-259 473,-668 33,-19 79,-27 120,-39 -33,-39 -75,21 -122,12 -272,-343 -885,-580 -1320,-764 -1197,-508 -2508,-971 -3605,-1578 1292,205 2397,807 3499,1324 235,110 490,120 759,193 482,131 936,404 1425,561 -157,105 -412,127 -584,220 197,18 445,-171 672,-159 196,10 444,388 818,242 290,-112 266,-514 297,-789 -64,-49 -69,59 -102,79 -1594,-961 -3586,-1438 -5387,-2146 -11,-12 -17,-30 -18,-54 1035,-25 1741,467 2649,752 557,174 1140,411 1714,575 267,76 672,300 935,163 122,57 185,243 267,363 35,50 126,122 140,180 26,106 -58,281 -56,435 2,60 43,168 34,218z"/>
 </g>
</svg>
