<?xml version="1.0" encoding="UTF-8"?>
<!DOCTYPE svg PUBLIC "-//W3C//DTD SVG 1.1//EN" "http://www.w3.org/Graphics/SVG/1.1/DTD/svg11.dtd">
<!-- Creator: CorelDRAW X8 -->
<svg xmlns="http://www.w3.org/2000/svg" xml:space="preserve" width="1.36345in" height="0.963559in" version="1.1" style="shape-rendering:geometricPrecision; text-rendering:geometricPrecision; image-rendering:optimizeQuality; fill-rule:evenodd; clip-rule:evenodd"
viewBox="0 0 91 64"
 xmlns:xlink="http://www.w3.org/1999/xlink">
 <defs>
  <style type="text/css">
   <![CDATA[
    .fil5 {fill:#2A0F01;fill-rule:nonzero}
    .fil7 {fill:#822F08;fill-rule:nonzero}
    .fil0 {fill:#8C2B05;fill-rule:nonzero}
    .fil4 {fill:#A33307;fill-rule:nonzero}
    .fil3 {fill:#E4BC9C;fill-rule:nonzero}
    .fil6 {fill:#F7F2E2;fill-rule:nonzero}
    .fil2 {fill:#FDE1C1;fill-rule:nonzero}
    .fil1 {fill:url(#id0);fill-rule:nonzero}
   ]]>
  </style>
  <linearGradient id="id0" gradientUnits="userSpaceOnUse" x1="103.056" y1="15.013" x2="7.07012" y2="44.1749">
   <stop offset="0" style="stop-opacity:1; stop-color:#B56056"/>
   <stop offset="0.290196" style="stop-opacity:1; stop-color:#722105"/>
   <stop offset="0.74902" style="stop-opacity:1; stop-color:#2A0F01"/>
   <stop offset="1" style="stop-opacity:1; stop-color:#2A0F01"/>
  </linearGradient>
 </defs>
 <g id="__x0023_Layer_x0020_1">
  <metadata id="CorelCorpID_0Corel-Layer"/>
  <path class="fil0" d="M9 26c37,-10 77,-26 77,-26 0,0 4,28 5,36 0,0 -38,16 -78,28 0,0 -5,0 -7,-17 0,0 -2,-19 3,-21z"/>
  <path class="fil1" d="M6 6c0,0 31,-5 79,-6 0,0 3,0 0,1 0,0 -39,18 -76,26 0,0 -1,-1 1,17 1,6 1,16 9,13 24,-7 48,-13 72,-21 0,0 -2,6 -77,28 0,0 -7,1 -9,-19 0,0 -6,-38 1,-39z"/>
  <path class="fil2" d="M38 14c2,-1 21,-5 20,-7 -1,-4 -21,-2 -24,-2 -4,1 -11,2 -13,6 -3,5 9,4 11,4 2,0 4,-1 6,-1z"/>
  <path class="fil3" d="M25 12c0,1 6,0 5,-1 -2,-3 -8,-2 -5,1z"/>
  <path class="fil3" d="M34 11c-1,1 -1,2 1,2 0,0 1,0 1,0 3,-1 1,-3 -1,-3 0,1 -1,1 -1,1z"/>
  <path class="fil3" d="M31 8c0,1 3,1 3,0 1,-1 -3,-2 -3,0z"/>
  <path class="fil3" d="M43 7c0,0 0,0 0,0 0,-2 -2,0 -2,0 -1,0 -2,-1 -2,-1 -3,0 -3,2 -1,3 1,0 4,-1 5,-2z"/>
  <path class="fil3" d="M49 8c1,1 3,1 1,-1 -1,-1 -3,-1 -4,-1 -1,1 -2,2 -1,2 0,2 1,0 2,0 0,0 1,0 2,0z"/>
  <path class="fil3" d="M42 13c0,-1 0,-1 0,-1 3,-1 1,-2 -1,-1 -2,0 -2,2 1,2z"/>
  <path class="fil3" d="M47 10c-1,-2 -2,1 -2,0 1,1 2,1 2,0l0 0z"/>
  <path class="fil3" d="M52 8c1,0 2,0 2,-2 -1,0 -1,0 -2,1 0,0 -1,1 0,1z"/>
  <path class="fil4" d="M14 6c1,0 1,-1 2,-2 0,-3 -2,-4 -5,-4 -5,0 -10,3 -8,8 0,1 1,3 0,6 0,0 -4,3 -1,6 0,0 2,2 1,5 0,4 2,7 4,10 1,3 2,6 2,9 0,-7 11,-7 13,-13 1,-4 -2,-5 -5,-6 -6,-3 -1,-4 -2,-9 -1,-2 -2,0 -2,-2 0,-1 2,-2 2,-3 0,-1 -2,-2 -2,-3 0,-1 0,-1 1,-2z"/>
  <path class="fil5" d="M13 6c0,0 1,-1 1,-2 1,-3 -2,-4 -4,-4 -5,0 -11,4 -8,9 0,0 1,2 0,5 0,0 -4,3 -1,6 0,0 2,2 1,5 -1,4 2,7 4,10 1,4 1,7 3,10 1,-8 9,-7 12,-14 1,-3 -2,-4 -5,-6 -6,-3 -1,-4 -3,-9 0,-2 -1,1 -1,-2 0,-1 2,-2 2,-3 0,-1 -2,-2 -2,-3 0,-1 0,-1 1,-2z"/>
  <path class="fil6" d="M5 3c-1,2 -1,3 1,3 1,0 1,-1 2,-2 0,0 0,-1 1,-1 0,0 1,1 1,0 2,-1 -1,-1 -2,-1 -2,0 -3,0 -3,1z"/>
  <path class="fil6" d="M6 12c2,2 5,0 2,-2 0,0 0,0 0,0 -1,1 -2,1 -3,2 0,0 0,0 1,0z"/>
  <path class="fil6" d="M10 17c4,3 -1,8 -3,4 0,-1 0,-2 0,-3 -1,0 -2,-1 -1,-2 1,-1 3,0 4,1z"/>
  <path class="fil6" d="M9 27c1,1 3,2 4,2 4,0 5,-1 5,-2 -1,-1 -4,-1 -4,-1 -2,0 -2,-2 -4,-1 -2,1 -2,2 -1,2z"/>
  <path class="fil3" d="M7 31c1,1 1,3 2,3 2,1 2,-1 1,-2 0,-1 -1,-1 -1,-2 -1,0 0,-2 -1,-2 -1,0 -1,2 -1,3z"/>
  <path class="fil3" d="M12 32c-1,-1 -1,-1 -1,-2 1,0 4,0 4,0 2,1 2,4 0,4 0,0 -2,-1 -3,-2z"/>
  <path class="fil6" d="M6 27c1,-1 1,-2 1,-3 1,0 2,0 1,-1 -2,-1 -5,4 -2,4z"/>
  <path class="fil3" d="M12 5c0,0 0,-1 0,-1 -1,0 -5,1 -5,3 0,1 1,2 2,2 1,0 2,-2 3,-4zm-5 10l0 0c1,1 3,1 4,0 0,0 -1,-1 0,-2 0,0 0,-1 1,-1 -1,-1 -2,1 -2,2 0,0 -3,0 -3,0 0,1 0,1 0,1z"/>
  <path class="fil7" d="M0 18c0,0 0,0 0,1 0,0 0,0 0,0 0,0 0,0 0,0 0,0 0,0 0,0 1,0 1,1 1,1 0,0 0,0 0,0 0,0 2,2 1,5 0,0 0,0 0,1 0,1 0,1 0,2 0,0 0,0 0,0 0,0 5,-6 0,-8 0,0 -1,-1 -2,-2zm4 -12l0 0c0,0 -2,-2 1,-5 -1,0 -1,0 -1,1 0,0 0,0 0,0 -1,0 -1,0 -2,1 0,0 0,0 0,0 0,0 0,0 0,0 0,0 0,0 0,1 0,0 -1,0 -1,0 0,0 0,0 0,0 0,1 0,1 0,1 0,1 0,1 0,1 0,0 0,0 0,1 0,0 0,0 0,0 1,1 1,1 1,2 0,0 1,2 0,4 2,-2 3,-4 2,-7z"/>
 </g>
</svg>
