<?xml version="1.0" encoding="UTF-8"?>
<!DOCTYPE svg PUBLIC "-//W3C//DTD SVG 1.1//EN" "http://www.w3.org/Graphics/SVG/1.1/DTD/svg11.dtd">
<!-- Creator: CorelDRAW X8 -->
<svg xmlns="http://www.w3.org/2000/svg" xml:space="preserve" width="2.25919in" height="3.01675in" version="1.1" style="shape-rendering:geometricPrecision; text-rendering:geometricPrecision; image-rendering:optimizeQuality; fill-rule:evenodd; clip-rule:evenodd"
viewBox="0 0 302 404"
 xmlns:xlink="http://www.w3.org/1999/xlink">
 <defs>
  <style type="text/css">
   <![CDATA[
    .fil6 {fill:#3A2119;fill-rule:nonzero}
    .fil1 {fill:#743F30;fill-rule:nonzero}
    .fil0 {fill:#EB5290;fill-rule:nonzero}
    .fil4 {fill:#F685C7;fill-rule:nonzero}
    .fil3 {fill:#FAB6DD;fill-rule:nonzero}
    .fil2 {fill:#FEEFD8;fill-rule:nonzero}
    .fil5 {fill:white;fill-rule:nonzero}
   ]]>
  </style>
 </defs>
 <g id="Layer_x0020_1">
  <metadata id="CorelCorpID_0Corel-Layer"/>
  <path class="fil0" d="M42 135c-3,0 -4,1 -4,4 -1,17 22,-8 4,-4z"/>
  <path class="fil0" d="M237 167c2,-6 -4,-10 -7,-9 -14,2 3,22 7,9z"/>
  <path class="fil0" d="M106 146c0,-2 -2,-4 -6,-3 -15,3 11,18 6,3z"/>
  <path class="fil1" d="M279 200c-5,4 -11,0 -16,1 -5,2 -7,10 -13,9 0,21 -20,28 -37,18 -7,20 -41,22 -54,5 -7,8 -27,11 -38,3 -13,6 -28,4 -38,-4 -5,-5 -11,-18 -15,-20 -1,0 -5,1 -7,1 -5,0 -10,-3 -14,-3 -3,0 -5,4 -8,5 -13,1 -18,-9 -26,-18 4,11 6,25 10,37 10,1 16,5 18,11 1,4 -1,9 1,11 4,6 19,1 25,4 6,3 3,8 7,13 7,0 11,-4 17,-3 10,1 11,10 18,13 9,4 19,-7 28,-4 3,1 6,9 11,9 2,0 5,-3 7,-4 9,-4 12,0 19,2 12,4 16,-8 25,-9 7,-1 18,3 24,0 7,-3 10,-11 16,-13 3,0 8,1 10,0 3,-1 4,-5 8,-8 2,-2 6,-3 7,-4 4,-6 2,-16 5,-23 4,-8 14,-17 11,-29 0,0 -1,0 -1,0zm-214 23c-4,15 -12,-9 0,0l0 0zm32 37c-14,-3 6,-12 0,0l0 0zm46 -6c-4,1 -5,-7 0,-6 1,2 2,5 0,6zm38 6c0,13 -14,-5 0,0l0 0zm41 -14c-1,-5 5,-7 7,-4 1,5 -4,7 -7,4zm28 5c-3,1 -6,-4 -1,-5 4,-2 4,5 1,5zm5 -25c-3,-17 17,-2 0,0l0 0z"/>
  <path class="fil2" d="M267 253c2,0 3,2 6,2 3,-9 12,-18 -1,-21 -3,5 -3,13 -5,19z"/>
  <path class="fil2" d="M263 257c-9,19 -16,40 -23,62 -7,22 -17,42 -22,62 21,-38 39,-81 57,-123 -3,0 -8,-1 -12,-1z"/>
  <path class="fil0" d="M68 181c12,9 7,-12 0,0l0 0z"/>
  <path class="fil3" d="M221 117c25,-9 16,-56 -2,-63 12,13 12,44 2,63z"/>
  <path class="fil0" d="M266 176c0,-3 -3,-4 -6,-3 -7,3 6,10 6,3z"/>
  <path class="fil0" d="M199 152c4,-3 -2,-8 -3,-3 1,1 0,3 3,3z"/>
  <path class="fil0" d="M246 125c0,0 0,-1 0,-1 0,-8 -10,1 0,1z"/>
  <path class="fil0" d="M276 137c4,-1 2,-8 -2,-7 -6,1 -2,9 2,7z"/>
  <path class="fil4" d="M181 35c-24,17 -61,17 -68,55 -2,12 3,25 -2,36 20,1 23,-20 29,-35 11,-27 47,-33 51,-65 0,0 0,-1 -1,-1 -2,4 -6,8 -9,10z"/>
  <path class="fil3" d="M105 121c9,-2 1,-20 1,-24 -2,-14 5,-26 11,-34 17,-22 54,-22 70,-44 0,0 0,0 -1,0 -31,10 -75,14 -92,45 -4,9 -9,31 -4,42 2,6 10,17 15,15z"/>
  <path class="fil3" d="M185 128c7,-9 7,-23 14,-37 2,-6 7,-12 8,-17 3,-14 -3,-24 -4,-34 0,0 0,-1 -1,-1 -6,48 -39,65 -50,102 13,2 26,-5 33,-13z"/>
  <path class="fil3" d="M212 53c4,31 -14,50 -21,76 33,1 42,-57 21,-76z"/>
  <path class="fil0" d="M135 194c4,-9 -8,-8 -6,-1 1,1 4,1 6,1z"/>
  <path class="fil3" d="M151 83c-7,11 -10,30 -17,39 -3,3 -10,6 -11,10 0,12 21,5 24,2 7,-7 7,-16 11,-24 5,-8 13,-15 20,-23 10,-15 21,-34 18,-58 0,0 0,-1 -1,-1 -4,10 -7,20 -12,27 -9,10 -24,17 -32,28z"/>
  <path class="fil0" d="M167 172c10,11 10,-11 0,0l0 0z"/>
  <path class="fil0" d="M191 203c0,9 16,2 10,-6 -5,1 -10,2 -10,6z"/>
  <path class="fil2" d="M223 286c-7,0 -11,-2 -16,-3 -3,38 -15,72 -20,107 12,-1 12,-17 15,-29 7,-24 14,-53 21,-75z"/>
  <path class="fil2" d="M175 292c-8,31 -12,67 -19,99 3,1 7,3 9,3 7,-33 15,-70 21,-102 -2,2 -7,0 -11,0z"/>
  <path class="fil2" d="M202 282c-12,2 -14,19 -18,33 -7,26 -10,58 -16,80 16,3 16,-10 20,-25 6,-29 15,-61 14,-88z"/>
  <path class="fil2" d="M150 293c-2,5 -2,18 -3,24 -3,26 -6,57 -8,77 16,7 16,-13 19,-26 5,-26 9,-55 14,-77 -6,-8 -19,-4 -22,2z"/>
  <path class="fil2" d="M130 287c-3,23 1,61 0,85 0,7 -1,17 5,20 6,-33 10,-65 12,-99 -3,0 -16,-17 -17,-6z"/>
  <path class="fil2" d="M253 269c-2,1 -5,3 -9,2 -9,42 -29,76 -37,118 6,-1 6,-9 8,-13 12,-33 29,-71 39,-107 0,0 0,0 -1,0z"/>
  <path class="fil5" d="M294 156c11,-19 -5,-39 -23,-43 -2,-14 -7,-25 -26,-26 -1,-1 -2,-4 -4,-4 0,20 -5,42 -27,40 -7,7 -15,14 -28,14 -6,6 -12,13 -20,13 -9,1 -14,-5 -19,-6 -3,0 -6,3 -9,3 -11,1 -14,-7 -22,-13 -4,-3 -8,-3 -11,-4 -18,-8 -27,-30 -20,-54 -10,-6 -11,3 -15,8 -2,4 -7,3 -11,4 -7,3 -14,10 -11,20 -4,4 -8,1 -12,1 -14,1 -29,12 -27,26 0,3 5,7 5,11 -1,8 -14,13 -11,26 2,5 8,6 10,9 7,8 6,28 23,26 5,0 7,-8 12,-9 6,0 15,13 25,7 6,11 14,28 32,27 8,0 11,-7 19,-9 3,9 10,12 17,11 8,0 15,-10 21,-9 3,0 6,6 9,7 12,8 27,3 32,-4 3,-4 4,-10 8,-11 4,-1 8,6 12,7 13,3 22,-9 23,-21 8,1 12,-5 15,-10 8,7 20,1 22,-6 3,-7 -1,-13 0,-18 1,-4 8,-8 11,-13zm-252 -8c-9,-1 -9,-15 0,-17 13,-3 12,18 0,17zm23 33c0,-4 4,-7 7,-7 4,-1 7,2 8,4 2,10 -15,11 -15,3zm41 -26c-11,7 -20,-15 -6,-15 9,-1 13,11 6,15zm32 41c-4,5 -14,2 -13,-5 0,-3 3,-7 6,-7 6,-2 11,6 7,12zm33 -30c3,0 9,3 8,8 -2,14 -26,-7 -8,-8zm29 -24c2,1 2,6 5,7 -1,9 -14,7 -13,-1 1,-1 6,-6 8,-6zm-6 69c-3,0 -9,-4 -6,-11 1,-2 7,-5 10,-6 13,0 6,18 -4,17zm46 -44c-3,13 -24,7 -18,-8 1,-1 4,-4 7,-5 5,0 13,5 11,13zm6 -38c-6,1 -12,-8 -6,-12 9,-4 13,11 6,12zm9 47c0,-1 1,-6 4,-7 4,-2 10,2 10,6 1,10 -14,9 -14,1zm15 -49c1,0 3,-1 5,-1 3,0 7,4 7,8 -1,16 -23,1 -12,-7z"/>
  <path class="fil2" d="M236 272c-13,13 -18,39 -24,64 -4,14 -8,27 -11,40 -1,3 -4,10 1,12 11,-31 24,-68 35,-103 1,-2 6,-20 -1,-13z"/>
  <path class="fil2" d="M16 235c10,38 20,77 31,115 -4,-39 -15,-71 -20,-108 -4,-2 -6,-6 -11,-7z"/>
  <path class="fil2" d="M32 243c-1,0 -1,0 -1,0 0,10 3,21 6,33 5,22 9,42 13,63 2,10 -1,26 10,29 0,-36 -6,-71 -11,-105 -16,2 -13,-12 -17,-20z"/>
  <path class="fil2" d="M83 277c1,36 5,74 9,109 6,-3 12,-1 18,2 -2,-25 -3,-67 -6,-96 -1,-11 -9,-23 -21,-15z"/>
  <path class="fil2" d="M70 277c1,14 2,32 2,51 0,24 -2,52 16,59 -2,-37 -7,-71 -9,-108 -2,-1 -7,-2 -9,-2z"/>
  <path class="fil2" d="M125 285c-5,1 -10,5 -18,3 3,33 3,69 7,101 11,2 12,-9 12,-20 0,-21 -1,-64 -1,-84z"/>
  <path class="fil2" d="M53 264c2,16 4,31 8,45 -2,12 1,25 2,39 1,11 -3,27 8,28 -3,-21 -2,-58 -3,-85 0,-12 0,-32 -15,-27z"/>
  <path class="fil6" d="M0 171c1,5 9,7 10,13 0,2 -2,6 -2,9 0,9 9,17 8,24 0,5 -5,9 -5,14 0,9 6,22 9,32 10,35 20,73 29,106 8,0 10,10 16,12 3,1 6,-1 8,0 6,3 6,9 11,10 4,2 11,-3 17,-1 3,0 5,4 9,5 5,1 11,-3 16,-2 4,1 7,6 11,7 8,2 15,-4 20,-4 3,1 5,6 9,7 10,3 12,-7 20,-8 1,0 3,2 5,2 1,-1 4,-3 6,-3 5,-1 11,3 15,1 4,-2 5,-7 8,-8 7,-24 23,-44 33,-72 4,-12 10,-23 15,-35 5,-12 12,-23 16,-34 3,-11 -10,-12 -10,-18 0,-2 6,-8 7,-10 2,-7 0,-15 3,-22 1,-2 4,-4 5,-6 3,-7 -1,-13 1,-19 1,-7 9,-12 11,-18 6,-20 -8,-37 -27,-44 -2,-10 -7,-20 -17,-24 -3,0 -6,0 -9,-1 -9,-4 -11,-15 -17,-23 -12,-18 -36,-34 -31,-61 -1,0 -1,0 -2,0 -15,17 -45,21 -68,31 -20,9 -34,20 -44,41 -14,-6 -14,7 -20,11 -3,3 -9,2 -14,6 -6,3 -9,9 -9,17 -18,2 -39,9 -37,29 0,4 4,7 4,11 -1,8 -11,13 -10,25zm16 64c5,1 7,5 11,7 5,37 16,69 20,108 -11,-38 -21,-77 -31,-115zm34 104c-4,-21 -8,-41 -13,-63 -3,-12 -6,-23 -6,-33 0,0 0,0 1,0 4,8 1,22 17,20 5,34 11,69 11,105 -11,-3 -8,-19 -10,-29zm13 9c-1,-14 -4,-27 -2,-39 -4,-14 -6,-29 -8,-45 15,-5 15,15 15,27 1,27 0,64 3,85 -11,-1 -7,-17 -8,-28zm9 -20c0,-19 -1,-37 -2,-51 2,0 7,1 9,2 2,37 7,71 9,108 -18,-7 -16,-35 -16,-59zm20 58c-4,-35 -8,-73 -9,-109 12,-8 20,4 21,15 3,29 4,71 6,96 -6,-3 -12,-5 -18,-2zm22 3c-4,-32 -4,-68 -7,-101 8,2 13,-2 18,-3 0,20 1,63 1,84 0,11 -1,22 -12,20zm21 3c-6,-3 -5,-13 -5,-20 1,-24 -3,-62 0,-85 1,-11 14,6 17,6 -2,34 -6,66 -12,99zm4 2c2,-20 5,-51 8,-77 1,-6 1,-19 3,-24 3,-6 16,-10 22,-2 -5,22 -9,51 -14,77 -3,13 -3,33 -19,26zm26 0c-2,0 -6,-2 -9,-3 7,-32 11,-68 19,-99 4,0 9,2 11,0 -6,32 -14,69 -21,102zm23 -24c-4,15 -4,28 -20,25 6,-22 9,-54 16,-80 4,-14 6,-31 18,-33 1,27 -8,59 -14,88zm-1 20c5,-35 17,-69 20,-107 5,1 9,3 16,3 -7,22 -14,51 -21,75 -3,12 -3,28 -15,29zm14 -14c3,-13 7,-26 11,-40 6,-25 11,-51 24,-64 7,-7 2,11 1,13 -11,35 -24,72 -35,103 -5,-2 -2,-9 -1,-12zm14 0c-2,4 -2,12 -8,13 8,-42 28,-76 37,-118 4,1 7,-1 9,-2 1,0 1,0 1,0 -10,36 -27,74 -39,107zm3 5c5,-20 15,-40 22,-62 7,-22 14,-43 23,-62 4,0 9,1 12,1 -18,42 -36,85 -57,123zm55 -126c-3,0 -4,-2 -6,-2 2,-6 2,-14 5,-19 13,3 4,12 1,21zm-4 -26c-3,7 -1,17 -5,23 -1,1 -5,2 -7,4 -4,3 -5,7 -8,8 -2,1 -7,0 -10,0 -6,2 -9,10 -16,13 -6,3 -17,-1 -24,0 -9,1 -13,13 -25,9 -7,-2 -10,-6 -19,-2 -2,1 -5,4 -7,4 -5,0 -8,-8 -11,-9 -9,-3 -19,8 -28,4 -7,-3 -8,-12 -18,-13 -6,-1 -10,3 -17,3 -4,-5 -1,-10 -7,-13 -6,-3 -21,2 -25,-4 -2,-2 0,-7 -1,-11 -2,-6 -8,-10 -18,-11 -4,-12 -6,-26 -10,-37 8,9 13,19 26,18 3,-1 5,-5 8,-5 4,0 9,3 14,3 2,0 6,-1 7,-1 4,2 10,15 15,20 10,8 25,10 38,4 11,8 31,5 38,-3 13,17 47,15 54,-5 17,10 37,3 37,-18 6,1 8,-7 13,-9 5,-1 11,3 16,-1 0,0 1,0 1,0 3,12 -7,21 -11,29zm-48 -112c10,-19 10,-50 -2,-63 18,7 27,54 2,63zm-9 -64c21,19 12,77 -21,76 7,-26 25,-45 21,-76zm-9 -13c1,10 7,20 4,34 -1,5 -6,11 -8,17 -7,14 -7,28 -14,37 -7,8 -20,15 -33,13 11,-37 44,-54 50,-102 1,0 1,1 1,1zm-7 -11c3,24 -8,43 -18,58 -7,8 -15,15 -20,23 -4,8 -4,17 -11,24 -3,3 -24,10 -24,-2 1,-4 8,-7 11,-10 7,-9 10,-28 17,-39 8,-11 23,-18 32,-28 5,-7 8,-17 12,-27 1,0 1,1 1,1zm-6 -4c1,0 1,1 1,1 -4,32 -40,38 -51,65 -6,15 -9,36 -29,35 5,-11 0,-24 2,-36 7,-38 44,-38 68,-55 3,-2 7,-6 9,-10zm-96 39c17,-31 61,-35 92,-45 1,0 1,0 1,0 -16,22 -53,22 -70,44 -6,8 -13,20 -11,34 0,4 8,22 -1,24 -5,2 -13,-9 -15,-15 -5,-11 0,-33 4,-42zm-80 82c0,-4 -5,-8 -5,-11 -2,-14 13,-25 27,-26 4,0 8,3 12,-1 -3,-10 4,-17 11,-20 4,-1 9,0 11,-4 4,-5 5,-14 15,-8 -7,24 2,46 20,54 3,1 7,1 11,4 8,6 11,14 22,13 3,0 6,-3 9,-3 5,1 10,7 19,6 8,0 14,-7 20,-13 13,0 21,-7 28,-14 22,2 27,-20 27,-40 2,0 3,3 4,4 19,1 24,12 26,26 18,4 34,24 23,43 -3,5 -10,9 -11,13 -1,5 3,11 0,18 -2,7 -14,13 -22,6 -3,5 -7,11 -15,10 -1,12 -10,24 -23,21 -4,-1 -8,-8 -12,-7 -4,1 -5,7 -8,11 -5,7 -20,12 -32,4 -3,-1 -6,-7 -9,-7 -6,-1 -13,9 -21,9 -7,1 -14,-2 -17,-11 -8,2 -11,9 -19,9 -18,1 -26,-16 -32,-27 -10,6 -19,-7 -25,-7 -5,1 -7,9 -12,9 -17,2 -16,-18 -23,-26 -2,-3 -8,-4 -10,-9 -3,-13 10,-18 11,-26z"/>
  <path class="fil6" d="M246 129c7,-1 3,-16 -6,-12 -6,4 0,13 6,12zm0 -5c0,0 0,1 0,1 -10,0 0,-9 0,-1z"/>
  <path class="fil6" d="M282 134c0,-4 -4,-8 -7,-8 -2,0 -4,1 -5,1 -11,8 11,23 12,7zm-8 -4c4,-1 6,6 2,7 -4,2 -8,-6 -2,-7z"/>
  <path class="fil6" d="M205 149c-3,-1 -3,-6 -5,-7 -2,0 -7,5 -8,6 -1,8 12,10 13,1zm-6 3c-3,0 -2,-2 -3,-3 1,-5 7,0 3,3z"/>
  <path class="fil6" d="M42 148c12,1 13,-20 0,-17 -9,2 -9,16 0,17zm0 -13c18,-4 -5,21 -4,4 0,-3 1,-4 4,-4z"/>
  <path class="fil6" d="M106 155c7,-4 3,-16 -6,-15 -14,0 -5,22 6,15zm-6 -12c4,-1 6,1 6,3 5,15 -21,0 -6,-3z"/>
  <path class="fil6" d="M240 167c2,-8 -6,-13 -11,-13 -3,1 -6,4 -7,5 -6,15 15,21 18,8zm-10 -9c3,-1 9,3 7,9 -4,13 -21,-7 -7,-9z"/>
  <path class="fil6" d="M269 175c0,-4 -6,-8 -10,-6 -3,1 -4,6 -4,7 0,8 15,9 14,-1zm-9 -2c3,-1 6,0 6,3 0,7 -13,0 -6,-3z"/>
  <path class="fil6" d="M179 174c1,-5 -5,-8 -8,-8 -18,1 6,22 8,8zm-12 -2c10,-11 10,11 0,0l0 0z"/>
  <path class="fil6" d="M65 181c0,8 17,7 15,-3 -1,-2 -4,-5 -8,-4 -3,0 -7,3 -7,7zm3 0c7,-12 12,9 0,0l0 0z"/>
  <path class="fil6" d="M138 196c4,-6 -1,-14 -7,-12 -3,0 -6,4 -6,7 -1,7 9,10 13,5zm-3 -2c-2,0 -5,0 -6,-1 -2,-7 10,-8 6,1z"/>
  <path class="fil6" d="M188 200c-3,7 3,11 6,11 10,1 17,-17 4,-17 -3,1 -9,4 -10,6zm13 -3c6,8 -10,15 -10,6 0,-4 5,-5 10,-6z"/>
  <path class="fil6" d="M255 226c17,-2 -3,-17 0,0l0 0z"/>
  <path class="fil6" d="M65 223c-12,-9 -4,15 0,0l0 0z"/>
  <path class="fil6" d="M222 246c3,3 8,1 7,-4 -2,-3 -8,-1 -7,4z"/>
  <path class="fil6" d="M249 246c-5,1 -2,6 1,5 3,0 3,-7 -1,-5z"/>
  <path class="fil6" d="M143 254c2,-1 1,-4 0,-6 -5,-1 -4,7 0,6z"/>
  <path class="fil6" d="M181 260c-14,-5 0,13 0,0l0 0z"/>
  <path class="fil6" d="M97 260c6,-12 -14,-3 0,0l0 0z"/>
 </g>
</svg>
