<?xml version="1.0" encoding="UTF-8"?>
<!DOCTYPE svg PUBLIC "-//W3C//DTD SVG 1.1//EN" "http://www.w3.org/Graphics/SVG/1.1/DTD/svg11.dtd">
<!-- Creator: CorelDRAW X8 -->
<svg xmlns="http://www.w3.org/2000/svg" xml:space="preserve" width="0.341433in" height="0.381307in" version="1.1" style="shape-rendering:geometricPrecision; text-rendering:geometricPrecision; image-rendering:optimizeQuality; fill-rule:evenodd; clip-rule:evenodd"
viewBox="0 0 330 369"
 xmlns:xlink="http://www.w3.org/1999/xlink">
 <defs>
  <style type="text/css">
   <![CDATA[
    .fil0 {fill:black;fill-rule:nonzero}
   ]]>
  </style>
 </defs>
 <g id="Icons">
  <metadata id="CorelCorpID_0Corel-Layer"/>
  <path class="fil0" d="M155 263c4,4 4,11 0,15 -4,4 -10,4 -14,0l-75 -75 -33 21 15 5c4,1 6,4 7,7l7 27 29 7c3,1 6,4 7,7l8 30 27 8c3,1 5,3 6,6l6 17 34 -41 1 -1 78 -76c4,-4 10,-4 14,0 4,4 4,10 0,14l-78 76 -44 55c-1,1 -3,3 -5,3 -5,2 -11,-1 -13,-6l-10 -29 -26 -8c-4,-1 -7,-4 -8,-7l-8 -30 -28 -7c-4,-1 -7,-4 -8,-7l-7 -28 -30 -9c-2,-1 -4,-3 -5,-5 -3,-4 -2,-11 3,-14l57 -36c3,-3 9,-3 13,1l80 80z"/>
  <path class="fil0" d="M232 164c-4,4 -10,4 -14,0 -4,-4 -4,-10 0,-14l36 -37c4,-4 10,-4 14,0 4,4 4,11 0,15l-36 36z"/>
  <path class="fil0" d="M268 128c-4,4 -10,4 -14,0 -4,-4 -4,-11 0,-15l1 0c6,-6 14,-9 22,-9 8,0 16,3 23,9l0 0c4,4 4,11 0,15 -4,4 -10,4 -14,0l0 0c-3,-3 -6,-4 -9,-4 -3,0 -6,1 -8,3l-1 1z"/>
  <path class="fil0" d="M286 128c-4,-4 -4,-11 0,-15 4,-4 10,-4 14,0l19 19c4,4 4,11 0,15 -4,4 -11,4 -14,0l-19 -19z"/>
  <path class="fil0" d="M305 147c-4,-4 -4,-11 0,-15 3,-4 10,-4 14,0 6,7 9,15 9,23 0,9 -3,17 -9,23 -4,4 -10,4 -14,0 -4,-4 -4,-10 0,-14 2,-2 3,-6 3,-9 0,-3 -1,-6 -3,-8z"/>
  <path class="fil0" d="M305 164c4,-4 10,-4 14,0 4,4 4,10 0,14l-47 45c-4,4 -11,4 -15,0 -3,-4 -3,-10 1,-14l47 -45z"/>
  <path class="fil0" d="M185 104c-4,4 -10,4 -14,0 -4,-4 -3,-10 1,-14l84 -81c4,-3 11,-3 14,1 4,4 4,10 0,14l-85 80z"/>
  <path class="fil0" d="M270 24c-4,4 -10,4 -14,0 -4,-4 -4,-11 0,-15 6,-6 15,-9 23,-9 8,0 16,3 23,9 4,4 4,11 0,15 -4,4 -11,4 -14,0 -3,-3 -6,-4 -9,-4 -3,0 -6,1 -9,4z"/>
  <path class="fil0" d="M288 24c-4,-4 -4,-11 0,-15 4,-3 10,-3 14,1l19 18c4,4 4,11 0,15 -4,4 -11,4 -15,0l-18 -19z"/>
  <path class="fil0" d="M306 43c-3,-4 -3,-11 0,-15 4,-4 11,-4 15,0l0 1c6,6 9,14 9,22 0,9 -3,17 -9,23l0 0c-4,4 -11,4 -15,0 -3,-4 -3,-10 0,-14 3,-2 4,-5 4,-9 0,-3 -1,-6 -3,-8l-1 0z"/>
  <path class="fil0" d="M306 60c4,-4 11,-4 15,0 4,4 4,10 0,14l-89 89c-4,4 -10,4 -14,0 -4,-4 -4,-10 0,-14l88 -89z"/>
  <path class="fil0" d="M75 197c-4,4 -11,4 -15,0 -3,-4 -4,-10 0,-14l88 -89c3,-4 10,-4 14,0 4,4 4,10 0,14l-87 89z"/>
  <path class="fil0" d="M164 104c-1,6 -7,9 -12,7 -6,-2 -8,-7 -7,-13 3,-8 8,-19 13,-25 4,-4 8,-6 12,-6 6,0 10,2 14,9 3,6 5,17 5,37 3,10 17,33 17,33 3,5 1,11 -4,14 -4,3 -11,1 -14,-4 0,0 -15,-26 -19,-39 0,-1 -1,-2 -1,-3 0,-8 0,-14 0,-19 -2,3 -3,7 -4,9z"/>
  <path class="fil0" d="M194 161c-6,-2 -8,-8 -6,-13 2,-6 7,-8 13,-6l30 11c1,0 1,0 2,1l31 17c3,2 5,5 5,8l6 47c0,5 -4,10 -9,11 -6,1 -11,-3 -11,-9l-5 -42 -27 -15 -29 -10z"/>
 </g>
</svg>
