<?xml version="1.0" encoding="UTF-8"?>
<!DOCTYPE svg PUBLIC "-//W3C//DTD SVG 1.1//EN" "http://www.w3.org/Graphics/SVG/1.1/DTD/svg11.dtd">
<!-- Creator: CorelDRAW X8 -->
<svg xmlns="http://www.w3.org/2000/svg" xml:space="preserve" width="0.363807in" height="0.226181in" version="1.1" style="shape-rendering:geometricPrecision; text-rendering:geometricPrecision; image-rendering:optimizeQuality; fill-rule:evenodd; clip-rule:evenodd"
viewBox="0 0 57 35"
 xmlns:xlink="http://www.w3.org/1999/xlink">
 <defs>
  <style type="text/css">
   <![CDATA[
    .fil0 {fill:black;fill-rule:nonzero}
   ]]>
  </style>
 </defs>
 <g id="Icons">
  <metadata id="CorelCorpID_0Corel-Layer"/>
  <path class="fil0" d="M53 18c0,-1 0,-2 1,-2 1,0 2,1 2,2l0 2c0,1 -1,2 -2,2 -1,0 -1,-1 -1,-2l0 -2z"/>
  <path class="fil0" d="M53 20c0,-1 0,-1 1,-1 1,0 2,0 2,1 0,5 -3,8 -9,11 -5,3 -11,4 -19,4 -7,0 -14,-1 -19,-4 -5,-3 -8,-6 -8,-11 0,-1 1,-1 1,-1 1,0 2,0 2,1 0,3 3,6 7,8 4,3 10,4 17,4 7,0 13,-1 18,-4 4,-2 7,-5 7,-8z"/>
  <path class="fil0" d="M4 20c0,1 -1,2 -2,2 0,0 -1,-1 -1,-2l0 -2c0,-1 1,-2 1,-2 1,0 2,1 2,2l0 2z"/>
  <path class="fil0" d="M30 23c1,0 3,-1 4,-2 3,-1 6,-3 12,-2l0 0c7,2 7,-5 7,-5 0,-3 -2,-6 -6,-8 -5,-2 -11,-3 -19,-3 -7,0 -13,1 -17,3 -4,2 -7,5 -8,8 0,1 0,7 9,4 6,-1 9,1 12,3 1,1 3,2 6,2zm6 1c-2,1 -4,2 -6,2 -4,0 -6,-1 -8,-3 -3,-1 -5,-3 -9,-1 -14,4 -13,-8 -13,-8l0 -1c1,-4 4,-7 9,-10 5,-2 12,-3 19,-3 8,0 15,1 20,4 6,2 9,5 9,10l0 0c0,0 -1,11 -11,8l0 0c-5,-1 -8,1 -10,2z"/>
  <path class="fil0" d="M28 6c3,0 5,0 7,0 3,1 4,2 4,4 0,1 -1,2 -4,3 -2,1 -4,1 -7,1 -3,0 -6,0 -8,-1 -2,-1 -4,-2 -4,-3 0,-2 2,-3 4,-4 2,0 5,0 8,0zm6 3c-1,0 -4,0 -6,0 -3,0 -5,0 -7,0 -1,1 -2,1 -2,1 0,0 1,0 2,0 2,0 4,1 7,1 2,0 5,-1 6,-1 1,0 2,0 2,0 0,0 -1,0 -2,-1z"/>
  <path class="fil0" d="M47 10c1,-1 2,-1 2,-1 1,1 1,2 1,3l-2 1c0,1 -1,1 -2,1 -1,-1 -1,-2 0,-3l1 -1z"/>
  <path class="fil0" d="M7 12c-1,0 0,-1 0,-2 1,0 2,0 3,1l1 1c0,1 0,2 -1,3 -1,0 -2,0 -2,-1l-1 -2z"/>
  <path class="fil0" d="M29 15c0,0 1,0 2,0 1,1 1,2 0,3l-2 1c0,1 -1,1 -2,0 0,-1 0,-2 0,-2l2 -2z"/>
  <path class="fil0" d="M16 6c0,1 0,2 -1,2 -1,0 -2,-1 -2,-1l-1 -2c0,-1 1,-2 2,-2 1,-1 1,0 2,1l0 2z"/>
  <path class="fil0" d="M43 5c1,0 2,0 2,1 1,1 0,2 -1,2l-2 1c0,0 -1,0 -2,-1 0,-1 0,-2 1,-2l2 -1z"/>
  <path class="fil0" d="M41 14c1,1 2,1 2,2 0,1 -1,2 -2,2l-2 0c-1,0 -1,-1 -1,-2 0,-1 0,-2 1,-2l2 0z"/>
  <path class="fil0" d="M16 17c-1,0 -2,-1 -2,-2 0,-1 1,-1 2,-1l2 0c1,0 1,0 1,1 0,1 0,2 -1,2l-2 0z"/>
 </g>
</svg>
