<?xml version="1.0" encoding="UTF-8"?>
<!DOCTYPE svg PUBLIC "-//W3C//DTD SVG 1.1//EN" "http://www.w3.org/Graphics/SVG/1.1/DTD/svg11.dtd">
<!-- Creator: CorelDRAW X8 -->
<svg xmlns="http://www.w3.org/2000/svg" xml:space="preserve" width="2.74861in" height="5.249in" version="1.1" style="shape-rendering:geometricPrecision; text-rendering:geometricPrecision; image-rendering:optimizeQuality; fill-rule:evenodd; clip-rule:evenodd"
viewBox="0 0 2622 5007"
 xmlns:xlink="http://www.w3.org/1999/xlink">
 <defs>
  <style type="text/css">
   <![CDATA[
    .fil9 {fill:#3E7005;fill-rule:nonzero}
    .fil7 {fill:#5A9E6F;fill-rule:nonzero}
    .fil10 {fill:#5B932B;fill-rule:nonzero}
    .fil11 {fill:#6FAD34;fill-rule:nonzero}
    .fil5 {fill:#80C196;fill-rule:nonzero}
    .fil4 {fill:#9ED8B3;fill-rule:nonzero}
    .fil6 {fill:#B5EACA;fill-rule:nonzero}
    .fil1 {fill:#CC753A;fill-rule:nonzero}
    .fil0 {fill:#D88648;fill-rule:nonzero}
    .fil8 {fill:white;fill-rule:nonzero}
    .fil3 {fill:url(#id0)}
    .fil2 {fill:url(#id1)}
   ]]>
  </style>
  <linearGradient id="id0" gradientUnits="userSpaceOnUse" x1="357.414" y1="1925.01" x2="1937.29" y2="1914.51">
   <stop offset="0" style="stop-opacity:1; stop-color:#FAB683"/>
   <stop offset="1" style="stop-opacity:1; stop-color:#E4975D"/>
  </linearGradient>
  <linearGradient id="id1" gradientUnits="userSpaceOnUse" xlink:href="#id0" x1="1147.68" y1="1310.74" x2="2538.84" y2="2878.46">
  </linearGradient>
 </defs>
 <g id="Layer_x0020_1">
  <metadata id="CorelCorpID_0Corel-Layer"/>
  <path class="fil0" d="M495 2477c0,0 476,2530 888,2530 358,0 795,-2544 795,-2544l-1683 14z"/>
  <path class="fil1" d="M2022 2830c-61,-50 -119,-105 -175,-162 27,-40 53,-80 78,-122 20,-34 2,-66 -25,-80l-59 0c-7,5 -14,11 -19,20 -18,31 -37,60 -56,90 -29,-35 -55,-71 -80,-109l-138 1c43,76 93,144 149,210 -39,57 -78,113 -116,170 -4,5 -7,10 -10,15 -43,-52 -81,-106 -116,-163 29,-41 58,-83 85,-127 41,-65 -62,-125 -103,-60 -16,26 -33,51 -50,76 -23,-40 -45,-79 -68,-119l-138 1c12,20 23,39 34,57 31,56 63,111 96,165 -41,54 -84,106 -128,157 -27,-50 -53,-101 -76,-152 -12,-25 -22,-50 -33,-76 37,-49 71,-99 103,-151l-142 1c-4,5 -7,10 -10,14 -1,-4 -3,-9 -4,-13l-124 0c13,43 27,86 43,128 -39,48 -80,95 -123,141 -13,14 -26,29 -39,43 -29,-62 -55,-126 -77,-191 -13,-39 -24,-79 -34,-119l-122 1c12,50 26,101 41,150 27,85 64,167 102,248 -5,5 -11,10 -16,15 -26,22 -52,43 -78,65 34,156 76,337 123,527 37,62 74,123 112,183 -17,15 -35,31 -54,43 11,39 21,78 32,116 26,-12 50,-28 73,-48 5,-4 10,-8 15,-12 40,60 82,118 126,176 -30,23 -67,53 -104,73 -4,-6 -8,-12 -13,-18 -27,-39 -54,-77 -82,-116 39,137 79,271 122,396 20,33 41,66 63,98 -9,3 -19,4 -28,5 14,39 28,76 42,113 20,-5 40,-11 60,-18 1,1 2,3 3,4 54,66 116,129 182,187 -37,25 -76,48 -114,70 -6,4 -12,8 -19,12 20,39 40,74 60,106 36,-22 70,-45 103,-65 22,-15 44,-29 67,-44 57,43 117,84 179,121 18,-32 37,-67 55,-107 -45,-28 -90,-57 -132,-88 42,-32 82,-66 121,-101 27,-24 53,-48 80,-73 10,6 19,12 28,18 34,-96 67,-202 99,-313 -46,48 -93,94 -141,140 -30,-22 -59,-45 -87,-69 -22,-18 -44,-37 -66,-55 48,-39 95,-80 142,-122 51,34 102,65 155,95 11,-39 22,-79 33,-120 -32,-18 -63,-37 -94,-57 49,-43 98,-88 144,-134 22,-86 43,-172 63,-258 -10,15 -21,30 -32,44 -6,9 -13,17 -19,25 -75,-55 -147,-115 -215,-179 59,-67 116,-136 170,-207 21,18 42,37 64,55 25,23 51,45 77,66 10,-44 19,-88 29,-131 -18,-16 -36,-31 -54,-47 -15,-13 -30,-26 -45,-39 34,-49 68,-99 99,-149 12,-19 24,-37 35,-55 7,5 15,10 22,14 30,-150 55,-281 73,-377 -39,65 -81,128 -124,191zm-643 -30c39,58 80,115 125,169 -41,65 -82,130 -129,193 -45,-65 -89,-132 -130,-200 46,-53 91,-107 134,-162zm133 715c-53,57 -107,112 -164,166 -50,-54 -98,-110 -144,-165 58,-51 114,-105 167,-163 45,56 92,110 141,162zm-349 -459c42,67 85,132 131,196 1,2 2,3 3,5 -52,59 -109,113 -168,165 -46,-61 -87,-126 -125,-193 33,-32 64,-66 95,-101 22,-24 43,-48 64,-72zm-293 -196c41,-43 82,-87 120,-133 33,75 70,148 110,220 -18,20 -36,40 -53,61 -34,38 -67,76 -103,113 -35,-67 -69,-135 -102,-202 -3,-7 -7,-14 -10,-21 13,-12 25,-25 38,-38zm-243 229c14,-14 29,-30 45,-45 22,-22 45,-42 68,-62 37,75 74,152 115,226 -7,7 -14,13 -22,19 -28,24 -57,46 -87,68 -39,-67 -80,-135 -119,-206zm179 310c17,-13 33,-26 49,-38 20,-16 40,-32 59,-48 39,64 80,127 125,187 -38,32 -77,63 -117,92 -40,-63 -78,-128 -116,-193zm180 293c24,-17 47,-34 69,-52 20,-15 39,-31 58,-47 47,57 96,113 147,167 -46,39 -93,75 -142,111 -47,-58 -90,-117 -132,-179zm133 636c-51,-69 -95,-144 -140,-218 18,-11 35,-24 52,-37 21,-16 43,-31 65,-46 46,50 96,96 151,138 20,16 40,31 59,47 -14,10 -29,20 -45,29 -41,27 -91,60 -142,87zm446 94c-4,5 -9,9 -14,14 -58,57 -120,106 -184,154 -63,-53 -121,-110 -174,-170 32,-17 63,-36 91,-53 41,-24 80,-50 118,-78 31,26 63,53 95,79 22,19 45,37 68,54zm-159 -284c-17,-14 -34,-27 -52,-40 -58,-43 -109,-89 -157,-139 19,-13 38,-27 57,-42 30,-23 60,-48 89,-73 63,62 129,121 197,176 1,0 2,1 3,2 -45,39 -90,79 -137,116zm405 -360c-56,57 -118,110 -178,164 -1,-1 -2,-2 -3,-3 -70,-51 -136,-110 -200,-173 58,-54 113,-110 166,-168 68,64 140,124 215,180zm-180 -399c-13,15 -26,31 -39,46 -50,-52 -98,-107 -143,-165 50,-63 94,-130 138,-199 54,57 110,110 168,161 -40,53 -80,106 -124,157zm321 -442c-42,63 -84,126 -127,188 -59,-54 -117,-110 -173,-168 2,-3 4,-6 5,-8 39,-62 80,-121 121,-181 56,58 115,112 178,162 -2,3 -3,5 -4,7z"/>
  <path class="fil2" d="M2037 2915c27,-39 53,-79 80,-120 32,-166 52,-284 59,-320 -9,5 -17,13 -23,25 -61,120 -135,232 -210,344 -62,-51 -120,-106 -175,-163 27,-40 53,-80 77,-121 39,-67 -64,-127 -103,-60 -18,30 -36,59 -56,89 -31,-39 -60,-79 -87,-121l-137 1c45,80 96,152 155,222 -38,57 -78,113 -116,170 -3,5 -7,11 -10,16 -42,-52 -80,-107 -116,-164 30,-41 59,-83 86,-127 41,-65 -62,-125 -103,-60 -16,26 -33,51 -50,76 -24,-40 -47,-81 -70,-121 -2,-3 -4,-7 -6,-10l-268 2c-6,9 -12,18 -18,27 -3,-9 -6,-18 -9,-27l-123 1c14,47 29,94 46,140 -39,49 -80,96 -122,141 -13,15 -27,29 -40,43 -28,-62 -55,-126 -76,-190 -15,-44 -27,-88 -38,-132l-89 1c0,0 21,111 58,287 18,42 37,82 56,123 -6,5 -11,10 -17,15 -2,3 -5,5 -8,7 9,41 18,84 29,129 15,-14 31,-29 47,-43 37,76 75,152 115,226 -7,7 -14,13 -21,19 -26,22 -53,43 -80,63 37,156 79,322 124,487 1,0 1,-1 2,-1 5,-5 10,-8 15,-12 41,59 83,118 127,175 -24,18 -52,41 -81,59 54,185 113,361 173,513 47,53 98,104 153,152 -22,15 -45,29 -67,42 19,39 38,74 57,106 13,-9 26,-17 39,-25 23,-14 45,-29 67,-44 73,56 151,106 231,151 20,-29 40,-64 60,-104 -65,-36 -128,-77 -189,-121 42,-32 83,-66 121,-100 27,-25 54,-49 81,-74 29,19 59,38 89,56 13,-37 26,-75 40,-115 -14,-8 -27,-16 -40,-25 24,-23 47,-46 70,-70 27,-85 53,-176 79,-269 -8,9 -15,19 -23,28 -49,-28 -99,-57 -147,-88 60,-53 120,-106 175,-164 15,10 31,20 46,30 45,-177 87,-359 125,-530 -40,-33 -79,-68 -119,-102 -15,-13 -30,-26 -45,-39 35,-49 68,-98 100,-149 11,-19 23,-37 35,-55 29,20 59,40 90,58 8,-43 17,-84 25,-124 -17,-11 -34,-22 -50,-34zm-530 160c54,56 111,109 168,160 -39,54 -80,106 -123,157 -13,16 -26,31 -40,46 -50,-52 -97,-107 -142,-164 49,-64 94,-131 137,-199zm-383 455c59,-52 115,-106 167,-164 45,56 92,110 142,162 -53,57 -108,113 -165,166 -50,-54 -98,-109 -144,-164zm337 503c1,1 1,1 2,2 -45,40 -90,79 -136,116 -17,-14 -35,-27 -52,-40 -58,-43 -110,-89 -158,-139 19,-13 38,-27 57,-41 31,-24 60,-48 89,-73 64,62 130,121 198,175zm-411 -597c-46,-62 -87,-127 -126,-193 33,-33 65,-67 96,-102 21,-24 43,-48 64,-72 41,67 85,133 130,196 2,2 3,3 4,5 -53,59 -110,113 -168,166zm250 -622c38,58 79,114 124,168 -41,65 -82,131 -128,193 -46,-65 -89,-131 -130,-200 46,-53 91,-106 134,-161zm-200 -333c12,21 24,41 35,60 32,56 64,111 96,165 -41,54 -84,106 -128,158 -27,-51 -52,-101 -76,-153 -11,-25 -22,-50 -32,-76 37,-49 72,-101 105,-154zm-337 451c-4,-7 -7,-14 -11,-21 13,-12 26,-24 38,-37 42,-44 82,-88 121,-134 33,75 69,148 109,220 -17,20 -35,40 -53,61 -33,38 -67,77 -102,113 -35,-67 -69,-134 -102,-202zm-36 480c16,-13 32,-26 48,-38 21,-15 41,-32 60,-48 38,65 80,127 125,187 -39,32 -78,63 -117,93 -40,-64 -78,-129 -116,-194zm180 294c23,-18 46,-35 69,-53 19,-15 39,-31 58,-46 47,56 96,112 147,166 -46,39 -94,76 -142,111 -47,-57 -91,-117 -132,-178zm132 636c-51,-70 -94,-145 -139,-219 17,-11 34,-24 51,-37 21,-16 43,-31 65,-46 47,50 97,96 152,139 20,15 39,30 59,46 -15,10 -30,20 -45,30 -42,26 -91,59 -143,87zm433 107c-58,57 -121,106 -185,154 -62,-53 -121,-110 -173,-170 31,-17 62,-35 91,-53 41,-24 80,-50 117,-77 32,26 64,52 95,78 23,19 46,37 69,54 -5,5 -10,10 -14,14zm249 -245c-48,51 -98,100 -148,148 -30,-22 -59,-45 -88,-69 -22,-18 -44,-37 -66,-55 48,-39 95,-80 143,-122 52,35 105,67 159,98zm-168 -249c-1,-1 -2,-2 -3,-2 -69,-52 -136,-111 -199,-174 57,-54 112,-110 166,-168 68,64 140,124 215,180 -57,57 -118,110 -179,164zm410 -474c-42,67 -85,132 -132,196 -6,8 -13,16 -20,24 -75,-55 -147,-115 -214,-179 58,-67 115,-136 170,-207 21,19 42,37 63,55 44,39 88,76 133,111zm-91 -531c-41,64 -83,126 -126,188 -60,-54 -118,-109 -173,-168 2,-3 3,-5 5,-8 38,-62 80,-121 121,-181 56,58 115,113 177,163 -1,2 -2,4 -4,6z"/>
  <path class="fil1" d="M373 2470l162 166c0,0 619,159 1613,0l99 -176c-623,106 -1258,101 -1874,10z"/>
  <path class="fil0" d="M128 2036l248 434c0,0 818,305 1865,0l258 -447c0,0 -1245,278 -2371,13z"/>
  <path class="fil1" d="M2484 2029c-36,-37 -150,27 -184,37 -141,42 -305,21 -450,36 -60,7 -119,13 -179,18 -116,11 -232,18 -348,14 -226,-9 -448,-20 -673,-46 -53,-7 -106,-14 -159,-19 -54,-5 -112,-4 -164,-18 -46,-13 -256,-90 -179,35 54,86 209,91 298,98 60,5 120,13 180,20 242,29 486,61 730,52 242,-9 480,-39 722,-55 89,-6 181,7 268,-16 42,-11 183,-93 141,-152 -1,-2 -2,-3 -3,-4z"/>
  <path class="fil3" d="M2508 1967c-29,-19 -82,4 -110,16 -40,17 -76,31 -119,38 -91,15 -183,9 -274,16 -229,20 -451,55 -682,47 -226,-8 -448,-20 -673,-46 -53,-6 -106,-14 -159,-19 -54,-5 -112,-3 -164,-18 -54,-15 -219,-113 -213,2 4,72 128,95 181,113 47,15 102,15 151,19 60,5 120,12 180,19 249,30 495,41 745,51 237,9 471,-38 707,-54 98,-7 453,7 443,-157 -1,-13 -5,-22 -13,-27z"/>
  <path class="fil4" d="M2619 2048c-12,-187 -168,-263 -321,-270 55,-29 99,-74 114,-147 18,-91 -12,-202 -94,-245 -89,-47 -190,-6 -279,23 -22,7 -44,13 -65,17 50,-37 91,-86 114,-154 80,-236 -140,-223 -291,-186 -13,3 -26,6 -39,9 86,-77 106,-191 -11,-359 -5,-8 -11,-16 -17,-24 -112,-149 -327,-251 -503,-264 -195,-14 -441,-41 -563,161 93,-153 454,81 186,247 -88,55 -391,123 -401,276 -106,-21 -214,-13 -250,96 -30,94 25,156 108,199 -102,-1 -194,31 -247,158 -40,97 -33,165 3,211 -32,43 -56,89 -59,141 -6,98 66,176 153,189 81,13 165,28 247,34 181,12 358,-33 538,-43 400,-25 785,-34 1156,144 131,64 239,94 378,38 88,-35 150,-146 143,-251z"/>
  <path class="fil5" d="M256 1336c-21,-16 -71,-67 -60,-100 -10,31 -12,62 2,92 14,30 39,52 62,73 35,32 77,53 119,71 81,33 167,50 252,63 123,18 229,-3 346,53 92,43 167,117 256,165 175,95 368,164 565,162 210,-2 472,-8 593,-226 -70,56 -168,82 -253,97 -94,17 -188,19 -282,19 -162,0 -327,-32 -478,-94 -153,-63 -276,-186 -431,-241 -101,-36 -207,-23 -313,-32 -91,-8 -194,-19 -281,-49 -35,-11 -68,-31 -97,-53z"/>
  <path class="fil5" d="M897 1206c-28,-6 -57,-12 -86,-17 -55,-8 -110,-21 -164,-34 -26,-7 -214,-41 -162,-110 -13,18 -35,39 -34,63 0,47 53,66 85,82 36,18 75,29 114,39 65,16 131,23 196,34 244,38 463,180 707,205 120,12 254,31 368,-16 43,-18 91,-41 122,-80 30,-38 47,-98 55,-146 -32,54 -69,103 -122,134 -45,26 -95,39 -146,44 -102,12 -206,-3 -307,-23 -213,-42 -414,-129 -626,-175z"/>
  <path class="fil5" d="M903 1784c228,-30 435,12 635,83 -76,4 -150,-28 -226,-35 -119,-12 -216,-5 -333,33 -238,78 -524,103 -764,39 -60,-16 -120,-53 -155,-109 -43,-69 -25,-130 -2,-202 -27,84 57,163 120,193 72,35 154,47 233,50 166,7 328,-30 492,-52z"/>
  <path class="fil5" d="M1484 1159c89,6 202,-3 276,-63 42,-35 58,-71 67,-126 7,-44 2,-112 -29,-147 12,104 -21,177 -114,214 -70,27 -151,34 -225,24 -146,-21 -309,-57 -451,-99 151,45 306,184 476,197z"/>
  <path class="fil6" d="M223 1465c9,1 18,6 26,15 38,47 -51,103 -60,141 -11,44 11,137 64,148 -71,-15 -169,-47 -167,-143 2,-57 78,-168 137,-161z"/>
  <path class="fil6" d="M148 1988c-23,-28 -40,-63 -56,-101 -10,-27 -26,-60 -53,-29 -50,56 -5,130 44,165 49,36 119,46 176,41 -48,-14 -83,-40 -111,-76z"/>
  <path class="fil6" d="M381 1222c-26,48 -58,115 2,149 -81,-45 -259,-138 -80,-211 17,-7 68,-23 86,-11 47,32 8,42 -8,73z"/>
  <path class="fil6" d="M2372 1480c8,19 14,43 14,72 0,58 -49,111 -92,138 -32,20 -116,14 -135,32 50,-46 123,-97 62,-159 -37,-37 -126,-8 -155,-58 -44,-72 238,-173 306,-25z"/>
  <path class="fil6" d="M2032 1143c-58,-48 -212,-71 -248,-9 -68,115 124,74 89,158 -23,53 -105,40 -148,49 19,-4 75,26 103,25 41,-1 84,-13 122,-32 59,-29 141,-91 100,-170 -4,-7 -10,-14 -18,-21z"/>
  <path class="fil6" d="M907 1368c-131,-12 -229,-24 -358,13 207,49 397,10 590,141 111,75 380,283 523,201 -173,-11 -276,-145 -418,-228 -106,-63 -216,-116 -337,-127z"/>
  <path class="fil6" d="M874 895c45,1 75,17 73,57 -5,66 -96,59 -110,114 -19,72 84,105 137,124 -72,-27 -447,-19 -413,-141 19,-68 207,-155 313,-154z"/>
  <path class="fil7" d="M1774 1071c-39,40 -92,62 -143,74 -137,31 -279,-13 -400,-81 -66,-37 -128,-67 -200,-90 33,10 61,23 91,39 21,12 44,19 64,32 42,26 82,54 126,73 47,20 96,34 145,41 60,8 126,8 184,-6 46,-10 92,-28 131,-58 22,-17 25,-48 39,-72 -10,18 -23,34 -37,48z"/>
  <path class="fil7" d="M2072 1302c-17,42 -51,83 -84,110 -43,35 -105,42 -156,54 -45,10 -95,19 -141,14 -39,-5 -83,-3 -122,-14 -135,-35 -272,-77 -405,-123 -74,-25 -147,-53 -223,-67 -96,-18 -192,-43 -289,-59 -58,-10 -119,-30 -166,-69 -11,-9 -40,-35 -33,-54 -16,47 29,71 60,87 112,60 221,71 343,88 65,10 132,26 196,45 57,17 113,37 168,59 50,20 99,35 150,53 41,14 82,27 124,37 51,11 99,19 150,24 68,7 133,2 199,-13 92,-21 207,-56 229,-172z"/>
  <path class="fil7" d="M2348 1749c-56,52 -134,97 -205,119 -81,26 -165,36 -249,41 -90,6 -173,5 -262,-11 -33,-6 -66,-14 -99,-22 -37,-9 -72,-27 -108,-38 -46,-15 -90,-45 -135,-66 -50,-23 -98,-51 -144,-84 -61,-45 -125,-86 -195,-115 -89,-37 -178,-40 -273,-46 -55,-4 -116,-15 -171,-28 -54,-14 -109,-28 -161,-50 -23,-9 -45,-18 -65,-34 -14,-12 -48,-38 -55,-56 20,56 69,79 118,100 67,30 141,46 212,61 107,23 215,14 322,38 37,9 70,25 105,39 68,29 128,77 187,123 48,37 94,66 150,88 79,32 157,70 240,90 97,24 197,36 297,36 87,0 166,-17 250,-37 92,-23 184,-67 241,-149 0,0 0,0 0,1z"/>
  <path class="fil7" d="M1144 1839c33,-5 71,-4 104,-3 65,2 129,11 193,18 -21,-2 -34,-14 -52,-22 -22,-9 -50,-9 -72,-11 -51,-6 -102,-6 -152,-1 -98,7 -197,31 -290,60 -58,17 -116,22 -175,28 -80,8 -161,12 -241,16 -76,4 -151,-14 -224,-34 -40,-11 -79,-27 -114,-50 -43,-30 -77,-74 -87,-128 10,50 31,100 67,135 25,23 55,35 86,45 129,45 260,60 395,45 92,-9 181,-6 271,-31 95,-26 194,-52 291,-67z"/>
  <path class="fil5" d="M464 2111c-83,4 -167,4 -249,-13 -92,-20 -170,-59 -215,-151 0,123 117,179 208,212 64,23 132,33 199,35 136,3 271,-25 405,-43 326,-44 701,-64 1018,41 181,60 334,171 531,155 73,-6 149,-30 203,-86 58,-62 65,-142 53,-225 11,78 -46,146 -107,177 -74,37 -162,24 -238,0 -161,-52 -309,-116 -475,-144 -302,-50 -614,-32 -917,-4 -137,12 -277,39 -416,46z"/>
  <path class="fil6" d="M2345 2072c-49,77 -242,1 -311,1 149,11 323,206 473,104 158,-107 22,-337 -134,-331 -144,5 -9,128 -17,196 -2,12 -6,22 -11,30z"/>
  <path class="fil6" d="M644 2048c0,0 682,-279 1158,-21 0,0 -342,-155 -1158,21z"/>
  <path class="fil8" d="M2374 1841c-27,1 -53,11 -69,36 24,-37 101,-15 129,0 37,20 81,52 99,95 15,36 19,81 3,118 -34,77 -130,91 -199,82 -26,-4 -54,2 -78,-11 57,31 102,47 166,46 55,-2 109,-38 134,-91 56,-112 -34,-247 -139,-272 -14,-3 -30,-5 -46,-3z"/>
  <path class="fil8" d="M1493 1720c-12,-5 -23,-10 -34,-14 -33,-13 -66,-26 -97,-44 -54,-33 -101,-77 -150,-118 -95,-80 -205,-123 -324,-134 -41,-3 -81,-11 -122,-17 -41,-5 -87,-7 -129,-6 -18,1 -37,3 -55,3 90,17 182,25 273,37 88,12 167,26 247,70 70,39 131,89 194,140 54,43 117,69 181,86 20,5 40,9 60,13 -14,-3 -30,-9 -44,-16z"/>
  <path class="fil8" d="M2339 1435c-51,-43 -125,-39 -186,-23 -32,9 -91,33 -91,77 1,26 18,38 39,46 -13,-5 -23,-33 -22,-48 3,-17 16,-25 30,-33 28,-16 61,-27 93,-30 38,-4 76,1 110,23 43,27 67,99 49,150 -17,48 -76,94 -121,107 48,-14 105,-30 132,-78 30,-52 18,-140 -23,-182 -3,-3 -6,-6 -10,-9z"/>
  <path class="fil8" d="M2009 1123c-11,-8 -23,-15 -34,-20 -45,-21 -96,-22 -142,-10 -55,15 -96,88 -38,129 -14,-10 -8,-56 -2,-69 12,-23 35,-37 58,-43 47,-13 95,0 137,24 31,18 49,52 44,90 -5,46 -25,63 -57,89 -13,11 -34,30 -48,33 52,-16 125,-51 136,-114 9,-48 -19,-85 -54,-109z"/>
  <path class="fil8" d="M630 976c-18,9 -36,20 -50,37 -25,31 -39,68 -3,97 25,19 62,28 92,28 -46,0 -96,-55 -70,-103 17,-32 63,-72 94,-88 -21,11 -43,19 -63,29z"/>
  <path class="fil8" d="M311 1326c-29,-7 -44,-51 -47,-79 -4,-26 14,-85 46,-87 -40,3 -91,44 -88,90 2,45 55,67 89,76z"/>
  <path class="fil8" d="M144 1501c-63,61 -90,198 12,237 -17,-7 -31,-36 -39,-52 -11,-21 -14,-45 -11,-69 7,-50 35,-96 63,-135 -9,5 -17,12 -25,19z"/>
  <path class="fil8" d="M93 2016c-22,-20 -42,-50 -50,-73 -7,-22 -15,-71 0,-90 -60,78 4,159 78,180 -9,-3 -19,-9 -28,-17z"/>
  <path class="fil5" d="M1682 697c-97,-31 -260,16 -329,-85 -18,-26 -12,-77 -48,-81 -55,-6 -69,98 -54,137 18,48 66,91 109,113 80,40 167,58 257,49 55,-5 102,-27 153,-46 0,-44 -54,-76 -88,-87z"/>
  <path class="fil9" d="M1941 277c-2,2 -6,3 -8,6 7,-18 20,-69 7,-83 -2,3 -6,8 -8,11 4,-12 20,-89 -2,-65 -12,-21 13,-49 4,-71 -2,2 -7,5 -10,9 3,-15 8,-27 6,-42 -2,-13 -12,-26 -11,-39 -18,84 -50,167 -65,253 -19,114 -34,231 -102,325 -58,82 -150,105 -238,130 -31,9 -69,21 -104,39 65,29 137,38 208,58 23,1 56,-13 75,-19 33,-10 66,-25 90,-51 -5,-5 -13,-7 -19,-6 26,-11 42,-23 62,-44 5,-5 47,-70 44,-70 -7,-1 -15,0 -23,0 24,-25 48,-59 62,-92 10,-23 26,-63 17,-87 -4,4 -9,8 -13,13 9,-26 24,-54 23,-82 -5,3 -10,10 -14,14 6,-28 32,-79 19,-107z"/>
  <path class="fil10" d="M1935 293c-9,10 -15,24 -25,33 14,-34 28,-71 26,-109 -3,8 -8,15 -13,20 4,-28 15,-59 10,-87 -3,4 -7,6 -10,9 1,-22 6,-47 8,-70 -4,7 -7,14 -12,19 -2,-37 5,-72 -2,-108 7,39 -55,86 -79,105 -49,39 -100,70 -154,101 -92,52 -189,94 -276,157 -63,45 -118,104 -140,184 -4,16 -7,32 -9,49 9,27 22,52 37,70 81,97 189,109 298,135 21,-6 45,-10 65,-16 36,-10 67,-29 102,-44 -13,6 -32,-1 -47,1 48,-14 122,-61 138,-114 -15,7 -31,7 -47,9 50,-39 102,-101 107,-172 -10,12 -17,24 -32,32 28,-28 32,-65 42,-102 -7,5 -14,9 -22,11 23,-6 34,-92 35,-113z"/>
  <path class="fil9" d="M1331 701c1,-14 3,-29 6,-43 12,-62 36,-118 51,-178 -34,43 -46,113 -59,167 -3,15 -6,31 -7,46 2,3 6,6 9,8z"/>
  <path class="fil9" d="M1806 277c18,-3 34,-12 51,-19 27,-11 56,-35 60,-68 -15,28 -40,49 -68,61 -13,5 -33,15 -48,16 15,-19 30,-38 42,-60 10,-17 19,-34 27,-51 12,-25 20,-43 18,-71 -5,31 -22,56 -36,84 -7,15 -15,29 -24,44 4,-9 7,-18 9,-27 5,-22 -4,-45 2,-68 -13,19 -8,35 -10,56 -1,24 -10,47 -21,68 -7,14 -20,26 -31,37 -9,10 -27,22 -33,34 8,-17 14,-33 20,-51 10,-31 1,-62 6,-93 -10,25 -8,49 -11,74 -4,32 -18,71 -39,94 -12,14 -28,27 -42,40 -11,11 -34,25 -42,39 18,-33 25,-76 31,-113 4,-22 -2,-42 4,-64 -9,24 -10,46 -13,71 -4,25 -12,50 -21,73 -8,19 -13,41 -27,56 -18,20 -41,37 -61,55 -5,4 -10,8 -15,13 13,-23 27,-45 38,-69 9,-17 15,-35 21,-53 9,-27 9,-56 15,-83 -20,43 -24,88 -44,132 -15,32 -36,60 -51,92 -18,18 -35,36 -52,55 -15,16 -29,32 -42,49 3,-14 5,-28 10,-42 7,-21 17,-40 28,-60 9,-18 19,-37 27,-56 9,-20 25,-57 22,-80 -14,22 -18,44 -27,68 -8,19 -17,38 -27,56 -10,20 -20,39 -29,59 -8,21 -10,42 -16,63 -1,2 0,4 1,5 -6,8 -12,15 -18,23 -13,15 -26,33 -33,52 -1,1 -1,2 -1,3 3,2 6,4 9,6 44,-27 88,-45 140,-38 21,3 41,9 62,8 24,-1 24,-12 41,-25 -43,32 -91,3 -138,5 -36,1 -68,16 -98,34 16,-29 38,-55 59,-80 12,-14 24,-28 36,-42 35,-24 87,-25 125,-13 19,6 40,10 60,7 19,-2 36,-11 43,-32 -42,40 -96,9 -145,7 -20,-1 -44,3 -65,11 13,-5 26,-25 36,-35 23,-24 44,-42 75,-51 29,-8 59,-3 89,-3 30,-1 71,5 83,-34 -20,44 -90,22 -124,20 -18,-1 -41,3 -60,10 5,-4 10,-8 15,-12 30,-26 55,-56 88,-77 29,-18 58,-17 91,-17 32,0 72,-4 84,-44 -5,6 -10,11 -17,15 -18,12 -42,19 -60,19 -18,1 -66,-8 -80,6 21,-22 43,-43 64,-65 14,-14 18,-21 37,-24z"/>
  <path class="fil11" d="M1372 731c6,-6 13,-12 21,-16 17,-11 35,-19 54,-23 18,-3 38,-1 55,3 28,7 73,17 94,-12 -5,3 -10,7 -15,9 -13,3 -25,3 -37,2 -21,-1 -42,-7 -63,-10 -20,-4 -41,2 -60,9 -17,7 -38,16 -52,29 -1,1 -3,3 -4,5 2,1 5,3 7,4z"/>
  <path class="fil11" d="M1435 627c11,-13 23,-26 36,-35 15,-11 31,-17 49,-20 16,-3 33,0 49,3 5,1 9,2 14,3 19,5 39,12 58,12 24,0 41,-13 52,-35 -3,5 -6,10 -9,13 -27,25 -76,9 -105,2 -34,-10 -76,-4 -107,13 -17,10 -32,33 -45,48 -22,25 -41,53 -57,82 11,-20 24,-38 39,-55 9,-10 17,-20 26,-31z"/>
  <path class="fil11" d="M1758 465c-8,6 -18,9 -27,12 -12,3 -26,1 -38,-1 -32,-4 -60,-6 -92,4 -23,8 -44,21 -63,36 -18,16 -36,34 -51,54 4,-5 10,-9 14,-13 11,-9 20,-20 31,-29 10,-7 19,-15 29,-22 20,-11 42,-19 65,-24 24,-5 48,2 72,4 13,1 24,0 36,-4 10,-4 17,-8 24,-17z"/>
  <path class="fil11" d="M1850 347c-23,25 -68,19 -98,20 -19,1 -39,3 -57,13 -16,10 -29,25 -43,35 -25,19 -47,43 -70,65 10,-9 23,-14 34,-24 10,-11 21,-22 32,-33 22,-19 47,-37 75,-44 41,-11 110,17 132,-39 -1,2 -3,5 -5,7z"/>
  <path class="fil11" d="M1733 339c14,-17 30,-30 48,-41 26,-16 56,-31 85,-41 20,-7 38,-25 45,-46 -2,3 -5,7 -8,11 -9,12 -24,24 -37,30 -21,10 -43,15 -64,24 -18,8 -33,20 -48,34 -17,16 -30,36 -47,53 10,-5 19,-16 26,-24z"/>
  <path class="fil11" d="M1887 109c1,-2 1,-5 2,-7 -10,34 -22,60 -39,91 -14,26 -34,47 -48,73 12,-10 22,-26 31,-38 10,-14 20,-28 27,-42 13,-24 23,-50 27,-77z"/>
  <path class="fil11" d="M1322 694c0,-12 2,-23 4,-34 4,-25 13,-49 20,-73 5,-19 10,-37 16,-54 3,-9 5,-18 9,-26 4,-8 9,-15 13,-23 -3,7 -9,13 -13,19 -4,7 -7,13 -10,21 -4,10 -9,21 -12,32 -6,17 -11,34 -16,51 -3,14 -6,28 -10,42 -3,13 -5,27 -5,41 1,1 2,2 4,4z"/>
  <path class="fil11" d="M1446 529c13,-24 27,-48 37,-73 4,-10 8,-20 12,-31 3,-9 4,-19 7,-28 -6,16 -14,31 -21,46 -7,16 -17,32 -23,48 -7,19 -19,35 -25,54 -4,9 -8,18 -12,28 -6,14 -8,29 -11,44 -1,8 -3,15 -5,22 -2,6 -6,12 -8,18 18,-15 17,-45 22,-66 6,-22 17,-43 27,-62z"/>
  <path class="fil11" d="M1602 316c-4,6 -6,14 -9,20 -9,21 -14,44 -21,66 -5,17 -12,34 -19,49 -4,8 -9,15 -13,23 -4,8 -8,16 -12,23 -8,12 -13,25 -21,36 18,-23 33,-49 46,-76 9,-17 18,-37 24,-55 6,-19 10,-39 16,-59 3,-9 6,-18 9,-27z"/>
  <path class="fil11" d="M1654 336c4,-15 4,-31 7,-47 2,-14 4,-28 6,-43 -4,9 -5,17 -7,26 -2,6 -3,12 -4,18 -5,26 -8,51 -16,76 -5,14 -9,28 -14,41 -3,10 -9,18 -12,27 16,-19 22,-43 30,-65 4,-11 7,-22 10,-33z"/>
  <path class="fil11" d="M1755 267c3,-14 4,-27 5,-41 1,-13 -1,-28 4,-41 -5,15 -6,33 -9,49 -3,18 -7,35 -11,53 -2,10 -8,20 -10,31 0,-1 1,-2 1,-2 10,-15 16,-32 20,-49z"/>
  <path class="fil11" d="M1826 197c1,-3 2,-7 2,-10 2,-14 1,-28 3,-42 1,-5 3,-11 3,-17 0,4 -4,10 -5,14 -3,12 -3,23 -4,36 -1,13 -4,25 -8,37 -2,6 -4,11 -6,17 -3,6 -7,11 -9,17 6,-7 10,-15 14,-23 5,-9 8,-19 10,-29z"/>
  <path class="fil6" d="M749 528c0,0 171,-147 522,-52 0,0 -262,-43 -522,52z"/>
 </g>
</svg>
