<?xml version="1.0" encoding="UTF-8"?>
<!DOCTYPE svg PUBLIC "-//W3C//DTD SVG 1.1//EN" "http://www.w3.org/Graphics/SVG/1.1/DTD/svg11.dtd">
<!-- Creator: CorelDRAW X8 -->
<svg xmlns="http://www.w3.org/2000/svg" xml:space="preserve" width="0.191031in" height="0.388618in" version="1.1" style="shape-rendering:geometricPrecision; text-rendering:geometricPrecision; image-rendering:optimizeQuality; fill-rule:evenodd; clip-rule:evenodd"
viewBox="0 0 72 147"
 xmlns:xlink="http://www.w3.org/1999/xlink">
 <defs>
  <style type="text/css">
   <![CDATA[
    .fil0 {fill:black;fill-rule:nonzero}
   ]]>
  </style>
 </defs>
 <g id="Icons">
  <metadata id="CorelCorpID_0Corel-Layer"/>
  <path class="fil0" d="M40 111c0,-2 2,-4 4,-4 2,0 4,2 4,4l0 25c0,2 -2,4 -4,4 -2,0 -4,-2 -4,-4l0 -25z"/>
  <path class="fil0" d="M40 136c0,-2 2,-4 4,-4 2,0 4,2 4,4 0,3 -1,6 -4,8l0 0c-2,2 -5,3 -8,3 -2,0 -4,-1 -4,-3 0,-3 2,-4 4,-4 1,0 2,-1 3,-1l0 -1c1,0 1,-1 1,-2z"/>
  <path class="fil0" d="M36 140c2,0 4,1 4,4 0,2 -2,3 -4,3 -3,0 -6,-1 -8,-3 -2,-2 -3,-5 -3,-8 0,-2 1,-4 4,-4 2,0 4,2 4,4 0,1 0,2 1,2 0,1 1,2 2,2z"/>
  <path class="fil0" d="M33 136c0,2 -2,4 -4,4 -3,0 -4,-2 -4,-4l0 -25c0,-2 1,-4 4,-4 2,0 4,2 4,4l0 25z"/>
  <path class="fil0" d="M65 30c2,-2 5,-2 6,0 2,1 2,4 0,5 -2,2 -4,3 -6,4 -2,1 -5,1 -7,1l0 0c-5,0 -9,-3 -12,-6 -2,-3 -4,-7 -3,-12 0,-2 2,-4 4,-4 2,1 4,2 3,5 0,2 1,4 2,6 2,2 4,3 6,3l1 0c1,0 2,0 3,0 1,-1 3,-2 3,-2z"/>
  <path class="fil0" d="M45 18c2,-1 5,0 5,2 1,2 0,5 -2,5 -5,2 -9,1 -13,-1 -4,-2 -7,-5 -8,-10l0 0c-1,-2 -1,-4 -1,-6 0,-2 0,-4 1,-6 1,-2 4,-3 6,-2 2,1 2,4 2,6 -1,1 -1,2 -1,3 0,1 0,2 0,3l0 0c1,2 2,4 4,5 2,1 5,2 7,1z"/>
  <path class="fil0" d="M65 32c0,-2 1,-3 4,-3 2,0 3,1 3,3l0 55c0,2 -1,4 -3,4 -3,0 -4,-2 -4,-4l0 -55z"/>
  <path class="fil0" d="M65 87c0,-2 1,-4 4,-4 2,0 3,2 3,4 0,28 -4,28 -30,28l-3 0c-2,0 -4,-2 -4,-4 0,-2 2,-4 4,-4l3 0c19,0 23,0 23,-20z"/>
  <path class="fil0" d="M39 107c2,0 4,2 4,4 0,2 -2,4 -4,4l-6 0c-2,0 -4,-2 -4,-4 0,-2 2,-4 4,-4l6 0z"/>
  <path class="fil0" d="M33 107c2,0 4,2 4,4 0,2 -2,4 -4,4l-2 0c-26,0 -31,0 -31,-28 0,-2 2,-4 4,-4 2,0 4,2 4,4 0,20 3,20 23,20l2 0z"/>
  <path class="fil0" d="M8 87c0,2 -2,4 -4,4 -2,0 -4,-2 -4,-4l0 -49c0,-2 2,-4 4,-4 2,0 4,2 4,4l0 49z"/>
  <path class="fil0" d="M8 38c0,2 -2,4 -4,4 -2,0 -4,-2 -4,-4 0,-12 2,-21 6,-28 5,-6 12,-9 24,-10 2,0 4,2 4,4 0,2 -2,4 -4,4 -9,0 -14,3 -17,7 -4,5 -5,12 -5,23z"/>
  <path class="fil0" d="M22 36c0,-2 2,-4 4,-4 2,0 4,2 4,4l0 54c0,2 -2,4 -4,4 -2,0 -4,-2 -4,-4l0 -54z"/>
  <path class="fil0" d="M43 47c0,-3 2,-4 4,-4 2,0 4,1 4,4l0 43c0,2 -2,4 -4,4 -2,0 -4,-2 -4,-4l0 -43z"/>
 </g>
</svg>
