<?xml version="1.0" encoding="UTF-8"?>
<!DOCTYPE svg PUBLIC "-//W3C//DTD SVG 1.1//EN" "http://www.w3.org/Graphics/SVG/1.1/DTD/svg11.dtd">
<!-- Creator: CorelDRAW X8 -->
<svg xmlns="http://www.w3.org/2000/svg" xml:space="preserve" width="0.343291in" height="0.343236in" version="1.1" style="shape-rendering:geometricPrecision; text-rendering:geometricPrecision; image-rendering:optimizeQuality; fill-rule:evenodd; clip-rule:evenodd"
viewBox="0 0 32 32"
 xmlns:xlink="http://www.w3.org/1999/xlink">
 <defs>
  <style type="text/css">
   <![CDATA[
    .fil0 {fill:black;fill-rule:nonzero}
   ]]>
  </style>
 </defs>
 <g id="Icons">
  <metadata id="CorelCorpID_0Corel-Layer"/>
  <path class="fil0" d="M22 13c0,1 0,1 -1,1 0,0 -1,0 -1,-1l2 -12c0,-1 1,-1 1,-1 1,0 1,1 1,1l-2 12z"/>
  <path class="fil0" d="M22 2c0,-1 0,-1 0,-2 1,0 1,0 2,0 0,1 1,1 1,2 0,0 0,0 0,1 1,0 1,0 1,0 1,0 1,1 2,1 0,1 1,1 1,2l0 0c0,0 0,0 0,1l0 0c1,0 1,0 1,0 1,0 1,1 2,1 0,1 0,1 0,2 -1,0 -1,0 -2,0 0,-1 0,-1 -1,-1 0,0 0,0 -1,-1l0 0c-1,-1 -1,-1 -1,-1l0 0c0,-1 0,-1 -1,-1 0,-1 0,-1 -1,-1 0,0 0,0 -1,-1 -1,-1 -1,-1 -1,-1 0,-1 0,-1 -1,-1z"/>
  <path class="fil0" d="M31 8c0,0 1,0 1,1 0,0 0,1 -1,1l-13 2c-1,0 -1,-1 -2,-1 0,-1 1,-1 1,-1l14 -2z"/>
  <path class="fil0" d="M10 18c0,0 0,0 1,0 0,0 1,0 1,1l-2 12c0,1 -1,1 -1,1 -1,0 -1,-1 -1,-1l2 -13z"/>
  <path class="fil0" d="M10 30c0,1 0,1 0,2 -1,0 -1,0 -2,0 0,-1 -1,-1 -1,-2 0,0 0,0 0,-1 -1,0 -1,0 -1,0 -1,0 -1,-1 -2,-1 0,-1 -1,-1 -1,-2 0,0 0,0 0,-1l0 0c-1,0 -1,0 -1,0 -1,0 -1,-1 -2,-1 0,-1 0,-1 0,-2 1,0 1,0 2,0 0,1 0,1 1,1l0 0c0,0 0,0 1,1l0 0c1,1 1,1 1,1 0,1 0,1 1,1l0 0c0,1 0,1 1,1 0,0 0,0 1,1 1,1 1,1 1,1 0,1 0,1 1,1z"/>
  <path class="fil0" d="M1 24c0,0 -1,0 -1,-1 0,0 0,-1 1,-1l13 -2c1,0 1,1 2,1 0,1 -1,1 -1,1l-14 2z"/>
  <path class="fil0" d="M23 11c-1,-1 -1,-1 0,-2 0,0 1,0 1,0 1,2 2,3 2,5 0,2 -1,5 -4,7 0,1 -1,1 -1,0 0,0 0,-1 0,-1 2,-2 3,-4 3,-6 0,-1 -1,-2 -1,-3z"/>
  <path class="fil0" d="M21 20c0,0 1,0 1,0 1,0 1,1 0,1l-2 2c0,1 -1,1 -1,0 0,0 0,-1 0,-1l2 -2z"/>
  <path class="fil0" d="M19 22c0,0 1,0 1,0 1,0 1,1 0,1 -1,1 -2,2 -3,2 -1,1 -2,1 -4,1l0 0c0,0 -2,-1 -4,-3 -1,0 -1,-1 0,-1 0,0 1,-1 1,0 2,1 3,2 4,2 1,0 2,0 2,0 1,-1 2,-1 3,-2z"/>
  <path class="fil0" d="M10 22c0,0 0,1 0,1 0,1 -1,1 -1,0 -2,-1 -3,-3 -3,-6 0,-2 1,-4 3,-5 0,-1 1,-1 1,0 0,0 0,1 0,1 -1,1 -2,3 -2,4 0,2 1,4 2,5z"/>
  <path class="fil0" d="M10 13c0,0 -1,0 -1,0 -1,0 -1,-1 0,-1l2 -2c0,-1 1,-1 1,0 0,0 0,1 0,1l-2 2z"/>
  <path class="fil0" d="M12 11c0,0 -1,0 -1,0 -1,0 -1,-1 0,-1 1,-2 3,-3 4,-3 1,-1 3,-1 4,-1 0,0 0,0 0,0 1,0 2,1 4,3 0,0 0,1 0,1 -1,0 -1,0 -2,0 -2,-2 -2,-2 -2,-2 0,0 0,0 0,0 -1,0 -2,0 -3,0 -1,1 -3,2 -4,3z"/>
 </g>
</svg>
