<?xml version="1.0" encoding="UTF-8"?>
<!DOCTYPE svg PUBLIC "-//W3C//DTD SVG 1.1//EN" "http://www.w3.org/Graphics/SVG/1.1/DTD/svg11.dtd">
<!-- Creator: CorelDRAW X8 -->
<svg xmlns="http://www.w3.org/2000/svg" xml:space="preserve" width="0.336165in" height="0.329118in" version="1.1" style="shape-rendering:geometricPrecision; text-rendering:geometricPrecision; image-rendering:optimizeQuality; fill-rule:evenodd; clip-rule:evenodd"
viewBox="0 0 67 66"
 xmlns:xlink="http://www.w3.org/1999/xlink">
 <defs>
  <style type="text/css">
   <![CDATA[
    .fil0 {fill:black;fill-rule:nonzero}
   ]]>
  </style>
 </defs>
 <g id="Icons">
  <metadata id="CorelCorpID_0Corel-Layer"/>
  <path class="fil0" d="M67 47c0,5 -2,10 -5,13l0 0c-4,4 -8,6 -13,6 -5,0 -10,-2 -13,-6l-1 0c-3,-3 -5,-8 -5,-13 0,-3 1,-6 2,-9 1,-3 3,-5 7,-6 2,-1 4,0 6,0 1,0 3,0 4,0 0,0 1,0 2,0 3,0 7,-1 9,1 3,1 5,3 6,6 1,2 1,5 1,8zm-8 10c2,-2 4,-6 4,-10 0,-2 0,-5 -1,-7 -1,-1 -2,-3 -4,-4 -1,0 -5,0 -7,0 -1,0 -2,0 -2,0 -2,0 -3,0 -4,0 -2,0 -4,0 -5,0 -2,1 -4,2 -4,4 -1,2 -2,4 -2,7 0,4 2,8 4,10l1 0c2,3 6,4 10,4 4,0 7,-1 10,-4z"/>
  <path class="fil0" d="M31 51c0,-1 2,-1 3,-1 1,1 1,2 0,3l0 0c-2,5 -6,7 -11,9 -5,1 -10,0 -14,-2l0 0c-4,-3 -7,-7 -8,-12 -2,-4 -1,-9 2,-14l0 0c1,-1 2,-3 3,-5l1 0c1,-2 3,-3 6,-3 4,-1 6,1 8,4 1,1 2,2 3,2 1,1 2,1 4,1 3,1 6,2 8,4 0,1 0,2 -1,3 -1,1 -2,0 -3,-1 0,0 -3,-1 -5,-1 -2,-1 -4,-1 -5,-2 -2,-1 -3,-2 -4,-4 -1,-1 -2,-3 -5,-2 -1,0 -2,1 -4,2l0 0c-1,1 -2,3 -3,4l0 1c-2,3 -2,7 -1,10 1,4 3,7 6,9l0 0c4,2 7,2 11,2 4,-1 7,-4 9,-7l0 0z"/>
  <path class="fil0" d="M51 35c-1,1 -2,1 -3,1 -1,0 -2,-1 -1,-2 0,-1 3,-13 -4,-26 -1,8 -5,19 -19,28 -1,1 -2,0 -3,-1 0,-1 0,-2 1,-3 18,-11 17,-28 17,-30 0,0 0,-1 1,-2 1,0 2,0 3,1 13,16 8,34 8,34z"/>
  <path class="fil0" d="M55 48c0,-1 1,-2 2,-1 1,0 2,1 2,2 0,0 -2,7 -10,9 -1,0 -2,-1 -2,-2 -1,-1 0,-2 1,-2 6,-1 7,-6 7,-6z"/>
  <path class="fil0" d="M24 48c0,-1 2,-1 2,0 1,1 1,2 0,3 0,0 -4,4 -11,3 -1,0 -2,-1 -2,-2 0,-1 1,-2 3,-2 4,1 7,-2 8,-2z"/>
 </g>
</svg>
