<?xml version="1.0" encoding="UTF-8"?>
<!DOCTYPE svg PUBLIC "-//W3C//DTD SVG 1.1//EN" "http://www.w3.org/Graphics/SVG/1.1/DTD/svg11.dtd">
<!-- Creator: CorelDRAW X8 -->
<svg xmlns="http://www.w3.org/2000/svg" xml:space="preserve" width="2.71698in" height="1.84287in" version="1.1" style="shape-rendering:geometricPrecision; text-rendering:geometricPrecision; image-rendering:optimizeQuality; fill-rule:evenodd; clip-rule:evenodd"
viewBox="0 0 313 212"
 xmlns:xlink="http://www.w3.org/1999/xlink">
 <defs>
  <style type="text/css">
   <![CDATA[
    .fil5 {fill:#3A2119;fill-rule:nonzero}
    .fil3 {fill:#DD956D;fill-rule:nonzero}
    .fil0 {fill:#F685C7;fill-rule:nonzero}
    .fil4 {fill:#F89DD2;fill-rule:nonzero}
    .fil2 {fill:#FFE3BD;fill-rule:nonzero}
    .fil1 {fill:white;fill-rule:nonzero}
   ]]>
  </style>
 </defs>
 <g id="Layer_x0020_1">
  <metadata id="CorelCorpID_0Corel-Layer"/>
  <path class="fil0" d="M34 165c8,-4 14,-1 19,4 7,5 12,5 22,4 8,5 15,9 25,5 4,-1 7,-4 12,-6 7,-3 12,0 17,2 5,2 11,4 18,2 6,-1 11,-8 18,-9 6,-1 6,9 10,9 8,0 4,-11 5,-15 0,-4 5,-8 9,-9 2,0 7,2 10,1 7,0 13,-5 17,-4 4,0 6,5 10,5 12,0 7,-9 10,-14 2,-4 7,-3 10,-5 5,-1 11,-5 13,-8 7,-10 5,-28 14,-34 6,-4 12,-6 14,-11 2,-3 0,-8 3,-9 1,-1 6,0 6,-1 6,-4 -3,-15 -2,-21 0,-3 3,-4 4,-7 2,-5 -1,-15 -7,-19 -2,-1 -4,-1 -6,-3 -6,-4 -18,-14 -24,-12 -3,1 -12,12 -15,5 -2,-2 1,-4 0,-8 -19,-3 -42,-9 -65,-2 -12,3 -20,2 -31,4 -9,2 -18,3 -27,7 -3,1 -6,4 -8,5 -3,1 -7,2 -10,3 -11,4 -19,9 -29,14 -21,10 -37,19 -47,33 -10,13 -15,27 -22,42 -3,6 -6,19 -4,25 1,5 5,6 6,10 2,3 0,6 1,10 2,5 5,12 9,13 5,2 10,-4 15,-6zm252 -116c0,-7 -1,-15 -4,-21 7,3 7,16 4,21zm-21 -23c3,-4 12,-8 14,-2 4,8 -11,15 -14,2zm-28 88c-12,9 -26,15 -42,21 22,-9 39,-22 55,-34 -2,5 -8,9 -13,13zm8 -51c13,-6 8,15 -2,14 -7,-2 -2,-12 2,-14zm-39 12c2,-3 7,-8 11,-8 3,9 -7,21 -11,8zm-10 -61c3,4 -6,12 -11,11 -5,-9 8,-18 11,-11zm-54 19c-1,-5 10,-7 11,-13 6,3 5,16 0,18 -3,1 -10,-1 -11,-5zm-40 70c-6,-21 13,-40 36,-47 18,-5 49,-8 55,10 6,16 -11,33 -27,40 -17,8 -42,9 -56,5 -4,-1 -8,-7 -8,-8zm-22 -20c4,5 4,15 -3,16 -8,0 -5,-16 3,-16zm13 73c0,0 0,0 0,-1 12,0 26,0 40,-3 10,-2 20,-8 29,-7 -24,10 -48,14 -69,12 0,0 -1,-1 0,-1zm-59 -66c1,6 4,16 -1,19 -3,1 -7,-3 -8,-5 -1,-5 5,-14 9,-14zm6 55c6,2 13,0 18,5 -17,0 -30,-8 -42,-21 9,5 15,12 24,16z"/>
  <path class="fil1" d="M32 106c2,-3 2,-7 1,-11 -6,-1 -8,11 -1,11z"/>
  <path class="fil2" d="M62 198c4,1 8,-1 12,0 3,1 6,4 9,5 20,7 44,0 69,-4 9,-1 18,-1 26,-3 16,-3 33,-10 46,-17 22,-12 36,-29 53,-43 9,-7 17,-15 23,-25 3,-5 6,-12 7,-16 1,-7 -2,-16 -2,-24 0,-6 3,-14 -3,-21 0,-1 0,-1 0,-1 -3,10 10,26 -8,30 0,5 0,7 -2,9 -3,6 -13,7 -16,11 -1,1 -1,6 -1,7 -2,11 -4,23 -15,29 -5,3 -14,3 -17,6 -4,3 -1,8 -2,11 -1,4 -6,7 -10,8 -8,2 -14,-7 -21,-5 -2,0 -6,4 -10,5 -4,0 -9,-4 -12,-2 -3,2 -1,11 -2,15 0,2 -2,5 -4,6 -9,8 -12,-5 -18,-5 -4,1 -12,9 -17,10 -3,1 -7,1 -9,0 -7,-1 -16,-8 -22,-7 -6,2 -8,6 -13,8 -7,3 -16,0 -20,-2 -4,-2 -8,-6 -12,-6 -4,0 -5,2 -9,2 -3,0 -8,-3 -11,-5 -3,-2 -7,-7 -10,-7 -4,0 -7,6 -12,8 -5,2 -8,-1 -12,0 11,14 28,20 45,23z"/>
  <path class="fil1" d="M258 9c-4,-10 -12,-3 -9,5 3,1 7,-3 9,-5z"/>
  <path class="fil3" d="M275 24c-1,-1 -4,1 -6,2 1,8 10,4 6,-2z"/>
  <path class="fil4" d="M128 75c18,-9 52,-13 62,3 5,-9 -3,-19 -11,-21 -26,-8 -81,11 -75,41 2,-5 8,-11 14,-16 3,-2 7,-6 10,-7z"/>
  <path class="fil3" d="M78 87c-3,2 -4,6 -1,8 4,0 4,-6 1,-8z"/>
  <path class="fil3" d="M212 79c2,-2 2,-6 2,-8 -4,1 -7,5 -2,8z"/>
  <path class="fil1" d="M250 64c-5,-1 -9,4 -6,9 4,0 8,-5 6,-9z"/>
  <path class="fil1" d="M154 25c-3,1 -9,5 -9,8 2,7 14,-1 9,-8z"/>
  <path class="fil3" d="M194 16c-3,-4 -8,1 -6,5 2,0 4,-3 6,-5z"/>
  <path class="fil5" d="M48 199c6,2 14,1 21,4 3,1 6,4 9,5 17,7 36,3 60,-1 12,-1 25,-1 34,-4 36,-9 67,-24 93,-46 23,-20 53,-49 47,-80 -2,-10 0,-17 -3,-25 -1,-3 -4,-5 -5,-8 -1,-3 1,-7 0,-10 -2,-3 -6,-7 -9,-10 -11,-10 -21,-16 -35,-17 -3,-5 -12,-11 -13,-3 -21,-4 -43,-6 -68,0 -4,1 -9,0 -14,1 -13,1 -30,3 -43,9 -36,15 -77,31 -96,57 -5,7 -9,15 -13,23 -4,10 -11,20 -12,30 0,4 -2,15 -1,18 1,4 5,5 6,9 1,3 0,6 0,9 2,14 15,25 23,30 6,3 13,7 19,9zm210 -190c-2,2 -6,6 -9,5 -3,-8 5,-15 9,-5zm-248 149c-1,-4 1,-7 -1,-10 -1,-4 -5,-5 -6,-10 -2,-6 1,-19 4,-25 7,-15 12,-29 22,-42 10,-14 26,-23 47,-33 10,-5 18,-10 29,-14 3,-1 7,-2 10,-3 2,-1 5,-4 8,-5 9,-4 18,-5 27,-7 11,-2 19,-1 31,-4 23,-7 46,-1 65,2 1,4 -2,6 0,8 3,7 12,-4 15,-5 6,-2 18,8 24,12 2,2 4,2 6,3 6,4 9,14 7,19 -1,3 -4,4 -4,7 -1,6 8,17 2,21 0,1 -5,0 -6,1 -3,1 -1,6 -3,9 -2,5 -8,7 -14,11 -9,6 -7,24 -14,34 -2,3 -8,7 -13,8 -3,2 -8,1 -10,5 -3,5 2,14 -10,14 -4,0 -6,-5 -10,-5 -4,-1 -10,4 -17,4 -3,1 -8,-1 -10,-1 -4,1 -9,5 -9,9 -1,4 3,15 -5,15 -4,0 -4,-10 -10,-9 -7,1 -12,8 -18,9 -7,2 -13,0 -18,-2 -5,-2 -10,-5 -17,-2 -5,2 -8,5 -12,6 -10,4 -17,0 -25,-5 -10,1 -15,1 -22,-4 -5,-5 -11,-8 -19,-4 -5,2 -10,8 -15,6 -4,-1 -7,-8 -9,-13zm19 17c5,-2 8,-8 12,-8 3,0 7,5 10,7 3,2 8,5 11,5 4,0 5,-2 9,-2 4,0 8,4 12,6 4,2 13,5 20,2 5,-2 7,-6 13,-8 6,-1 15,6 22,7 2,1 6,1 9,0 5,-1 13,-9 17,-10 6,0 9,13 18,5 2,-1 4,-4 4,-6 1,-4 -1,-13 2,-15 3,-2 8,2 12,2 4,-1 8,-5 10,-5 7,-2 13,7 21,5 4,-1 9,-4 10,-8 1,-3 -2,-8 2,-11 3,-3 12,-3 17,-6 11,-6 13,-18 15,-29 0,-1 0,-6 1,-7 3,-4 13,-5 16,-11 2,-2 2,-4 2,-9 18,-4 5,-20 8,-30 0,0 0,0 0,1 6,7 3,15 3,21 0,8 3,17 2,24 -1,4 -4,11 -7,16 -6,10 -14,18 -23,25 -17,14 -31,31 -53,43 -13,7 -30,14 -46,17 -8,2 -17,2 -26,3 -25,4 -49,11 -69,4 -3,-1 -6,-4 -9,-5 -4,-1 -8,1 -12,0 -17,-3 -34,-9 -45,-23 4,-1 7,2 12,0z"/>
  <path class="fil5" d="M153 38c5,-2 6,-15 0,-18 -1,6 -12,8 -11,13 1,4 8,6 11,5zm1 -13c5,7 -7,15 -9,8 0,-3 6,-7 9,-8z"/>
  <path class="fil5" d="M196 14c-3,-7 -16,2 -11,11 5,1 14,-7 11,-11zm-2 2c-2,2 -4,5 -6,5 -2,-4 3,-9 6,-5z"/>
  <path class="fil5" d="M33 109c5,-3 2,-13 1,-19 -4,0 -10,9 -9,14 1,2 5,6 8,5zm0 -14c1,4 1,8 -1,11 -7,0 -5,-12 1,-11z"/>
  <path class="fil5" d="M110 111c14,4 39,3 56,-5 16,-7 33,-24 27,-40 -6,-18 -37,-15 -55,-10 -23,7 -42,26 -36,47 0,1 4,7 8,8zm4 -2c-11,-2 -7,-11 -1,-18 14,-16 55,-27 70,-16 3,2 3,4 7,5 -7,25 -54,35 -76,29zm65 -52c8,2 16,12 11,21 -10,-16 -44,-12 -62,-3 -3,1 -7,5 -10,7 -6,5 -12,11 -14,16 -6,-30 49,-49 75,-41z"/>
  <path class="fil5" d="M77 99c7,-1 7,-11 3,-16 -8,0 -11,16 -3,16zm1 -12c3,2 3,8 -1,8 -3,-2 -2,-6 1,-8z"/>
  <path class="fil5" d="M279 24c-2,-6 -11,-2 -14,2 3,13 18,6 14,-2zm-10 2c2,-1 5,-3 6,-2 4,6 -5,10 -6,2z"/>
  <path class="fil5" d="M286 49c3,-5 3,-18 -4,-21 3,6 4,14 4,21z"/>
  <path class="fil5" d="M58 150c-5,-5 -12,-3 -18,-5 -9,-4 -15,-11 -24,-16 12,13 25,21 42,21z"/>
  <path class="fil5" d="M206 75c4,13 14,1 11,-8 -4,0 -9,5 -11,8zm6 4c-5,-3 -2,-7 2,-8 0,2 0,6 -2,8z"/>
  <path class="fil5" d="M243 77c10,1 15,-20 2,-14 -4,2 -9,12 -2,14zm7 -13c2,4 -2,9 -6,9 -3,-5 1,-10 6,-9z"/>
  <path class="fil5" d="M162 145c-9,-1 -19,5 -29,7 -14,3 -28,3 -40,3 0,1 0,1 0,1 -1,0 0,1 0,1 21,2 45,-2 69,-12z"/>
  <path class="fil5" d="M237 114c5,-4 11,-8 13,-13 -16,12 -33,25 -55,34 16,-6 30,-12 42,-21z"/>
 </g>
</svg>
