<?xml version="1.0" encoding="UTF-8"?>
<!DOCTYPE svg PUBLIC "-//W3C//DTD SVG 1.1//EN" "http://www.w3.org/Graphics/SVG/1.1/DTD/svg11.dtd">
<!-- Creator: CorelDRAW X8 -->
<svg xmlns="http://www.w3.org/2000/svg" xml:space="preserve" width="0.293079in" height="0.272516in" version="1.1" style="shape-rendering:geometricPrecision; text-rendering:geometricPrecision; image-rendering:optimizeQuality; fill-rule:evenodd; clip-rule:evenodd"
viewBox="0 0 50 46"
 xmlns:xlink="http://www.w3.org/1999/xlink">
 <defs>
  <style type="text/css">
   <![CDATA[
    .fil0 {fill:black;fill-rule:nonzero}
   ]]>
  </style>
 </defs>
 <g id="Icons">
  <metadata id="CorelCorpID_0Corel-Layer"/>
  <path class="fil0" d="M24 0c1,0 7,0 9,1 2,0 3,1 4,3 1,0 1,1 1,2 0,1 0,2 -1,2 -1,1 -2,1 -4,1 1,5 -4,6 -7,6 0,1 0,2 0,2 0,4 0,8 0,11l0 0c0,2 0,4 -1,5 -1,2 -2,3 -5,3 -3,0 -4,-1 -5,-4 0,-1 0,-3 0,-4 1,-3 1,-5 1,-6 0,-1 0,-1 0,-2 0,-1 0,-2 0,-4l1 -2c-3,-1 -10,-3 -10,-7l0 0c0,0 0,0 0,0 0,-1 0,-1 0,-1 0,-1 0,-1 1,-2 1,-2 5,-4 15,-4l1 0zm8 4c-2,0 -8,0 -9,0l0 0c-8,0 -11,1 -13,2 0,1 0,1 0,1 0,0 0,0 0,0l0 0c0,2 9,4 9,4 1,1 1,1 1,2l0 3c0,3 0,4 0,4 0,1 0,2 -1,3 0,1 0,2 0,5 0,1 0,3 0,4 0,0 0,1 1,1 1,0 2,-1 2,-1 0,-1 0,-3 0,-4l0 0c0,-3 0,-7 0,-11 0,-1 3,-2 2,-2 -1,0 -2,-1 -2,-2 0,-1 1,-2 2,-2l0 0c0,0 6,0 4,-2 0,0 0,-1 0,-1 0,-1 1,-2 2,-2 2,0 4,0 4,0 0,-1 -1,-1 -2,-2zm-22 3l0 0c0,0 0,0 0,0z"/>
  <path class="fil0" d="M35 7c0,-1 -1,-2 -1,-3 0,-1 1,-1 2,-1 2,1 4,2 5,3 1,1 2,2 2,4 0,1 0,2 -1,2 -1,0 -2,-1 -2,-2 0,-1 -1,-1 -1,-2 -1,0 -2,-1 -4,-1z"/>
  <path class="fil0" d="M40 10c0,-1 0,-2 1,-2 1,0 2,1 2,2l7 27c0,1 -1,2 -2,2 -1,0 -2,0 -2,-1l-6 -28z"/>
  <path class="fil0" d="M46 37c0,-1 1,-2 2,-2 1,0 2,1 2,2 0,3 -3,5 -8,7 -5,1 -11,2 -17,2 -7,0 -13,-1 -17,-2 -5,-2 -8,-4 -8,-7 0,-1 1,-2 2,-2 1,0 2,1 2,2 0,1 2,3 5,4 4,1 10,2 16,2 6,0 12,-1 16,-2 3,-1 5,-3 5,-4z"/>
  <path class="fil0" d="M3 38c0,1 -1,1 -2,1 -1,0 -1,-1 -1,-2l7 -29c0,-1 1,-1 2,-1 1,0 1,1 1,2l-7 29z"/>
 </g>
</svg>
