<?xml version="1.0" encoding="UTF-8"?>
<!DOCTYPE svg PUBLIC "-//W3C//DTD SVG 1.1//EN" "http://www.w3.org/Graphics/SVG/1.1/DTD/svg11.dtd">
<!-- Creator: CorelDRAW X8 -->
<svg xmlns="http://www.w3.org/2000/svg" xml:space="preserve" width="2.14386in" height="2.37057in" version="1.1" style="shape-rendering:geometricPrecision; text-rendering:geometricPrecision; image-rendering:optimizeQuality; fill-rule:evenodd; clip-rule:evenodd"
viewBox="0 0 329035 363831"
 xmlns:xlink="http://www.w3.org/1999/xlink">
 <defs>
  <style type="text/css">
   <![CDATA[
    .fil3 {fill:#662408;fill-rule:nonzero}
    .fil7 {fill:#C20000;fill-rule:nonzero}
    .fil9 {fill:#EB1400;fill-rule:nonzero}
    .fil8 {fill:#F53217;fill-rule:nonzero}
    .fil5 {fill:#FF6173;fill-rule:nonzero}
    .fil4 {fill:#FF7D82;fill-rule:nonzero}
    .fil0 {fill:#FF8F94;fill-rule:nonzero}
    .fil6 {fill:#FF99A6;fill-rule:nonzero}
    .fil1 {fill:#FFCFD4;fill-rule:nonzero}
    .fil2 {fill:white;fill-rule:nonzero}
   ]]>
  </style>
 </defs>
 <g id="Layer_x0020_1">
  <metadata id="CorelCorpID_0Corel-Layer"/>
  <path class="fil0" d="M329035 308099c0,30777 -73652,55732 -164515,55732 -90861,0 -164520,-24955 -164520,-55732 0,-30781 73659,-55736 164520,-55736 90863,0 164515,24955 164515,55736z"/>
  <path class="fil1" d="M324621 305835c0,28498 -71527,51592 -159760,51592 -88235,0 -159762,-23094 -159762,-51592 0,-28489 71527,-51590 159762,-51590 88233,0 159760,23101 159760,51590z"/>
  <path class="fil2" d="M201719 348816c-9123,488 -18498,746 -28078,735 -88244,-85 -159427,-22071 -158984,-49113 113,-6881 4858,-13418 13314,-19355 -12643,6972 -19901,14988 -20044,23520 -441,27044 70737,49032 158985,49117 48351,47 91796,-6495 121268,-16867 -23642,6422 -53521,10724 -86461,11963z"/>
  <path class="fil3" d="M74618 162143c-17853,3769 -39135,10459 -39135,20938l0 120250c0,16814 57716,32603 126039,34492 57811,1594 113723,-12274 129671,-26230 3169,-2769 4768,-5546 4768,-8262l0 -120250c0,-10479 -21282,-17169 -39137,-20938 -24360,-5134 -56716,-7963 -91100,-7963 -34394,0 -66746,2829 -91106,7963z"/>
  <path class="fil1" d="M290666 180235c0,13039 -55640,23612 -124281,23612 -68639,0 -124277,-10573 -124277,-23612 0,-13037 55638,-23610 124277,-23610 68641,0 124281,10573 124281,23610z"/>
  <path class="fil4" d="M35534 278254c12901,1168 21805,-12988 28396,-22851 4350,-6508 8799,-12756 12052,-19995 4106,-9125 5641,-19568 7864,-29334 1136,-4996 -5924,-7831 -7065,-2794 -3455,15254 -6410,28905 -15170,41840 -6451,9513 -13971,25822 -26320,26607 -3534,224 -3136,6224 243,6527l0 0z"/>
  <path class="fil4" d="M77988 205459c797,17562 1045,34496 5981,51643 4494,15631 15116,37491 33499,39757 18769,2315 33573,-11234 41661,-27072 4804,-9400 7759,-19232 9844,-29551 1880,-9313 4866,-18935 5209,-28438 182,-5107 -7166,-5817 -7891,-748 -3549,24953 -14128,89064 -52070,76477 -17112,-5677 -23705,-33071 -26634,-48344 -2162,-11276 -3503,-23197 -4748,-34579 -353,-3225 -4992,-2223 -4851,855l0 0z"/>
  <path class="fil1" d="M36786 273748c12361,-541 20203,-16704 26837,-26081 9019,-12760 12242,-26349 16002,-41529 533,-2159 -1400,-4343 -2132,-1085 -3457,15257 -6412,28904 -15179,41841 -6442,9511 -13962,25824 -26315,26606l787 248z"/>
  <path class="fil4" d="M166479 214401c271,30340 6857,86348 49818,83449 22240,-1503 37227,-16761 44400,-36621 6694,-18518 9727,-39894 12549,-59341 810,-5587 -7763,-6220 -8765,-812 -2373,12817 -5086,25556 -7559,38355 -4176,21601 -11877,43766 -36183,49306 -21154,4828 -35095,-12871 -40396,-30437 -4351,-14419 -3707,-29758 -7700,-44144 -856,-3091 -6200,-3451 -6164,245l0 0z"/>
  <path class="fil1" d="M38676 193638l0 72553c3492,-2993 6804,-7597 8555,-9929 4009,-5331 8415,-12404 11470,-19106 3052,-6700 11573,-23165 10705,-38097 -18270,-1607 -30619,-14885 -30619,-14885 0,0 -111,7467 -111,9464z"/>
  <path class="fil1" d="M266248 203027c-2454,12819 -5270,25558 -7830,38358 -4322,21600 -12291,43767 -37450,49305 -21909,4826 -36338,-12871 -41827,-30438 -470,-1498 -848,-3011 -1218,-4525 452,2151 960,4289 1586,6406 5487,18621 19914,37380 41823,32264 25164,-5873 33132,-29368 37455,-52264 2503,-13276 5246,-26494 7668,-39787 -79,214 -158,435 -207,681z"/>
  <path class="fil4" d="M293081 265745c-2664,-3730 -6975,-17586 -9364,-26856 -2147,-8341 -4125,-16727 -6156,-25098 -774,-3202 -1542,-6401 -2313,-9605 -282,-1168 -2183,-5259 -1618,-3737 -1350,-3628 -6415,-1451 -6099,1949l0 0c-349,-3769 -226,1766 34,3142 860,4600 2028,9161 3051,13729 2133,9506 4261,19044 6814,28449 3124,11526 8440,23223 16879,31804 944,966 3082,493 3766,-1317 684,-1810 -2330,-8733 -4994,-12460z"/>
  <path class="fil1" d="M280378 246429c-2606,-9878 -4796,-19895 -6991,-29879 -1051,-4797 -2249,-9593 -3138,-14425 -168,-917 -2234,620 -1974,1997 861,4600 2028,9162 3051,13728 2131,9507 4263,19042 6814,28448 3123,11526 8440,23223 16877,31807 349,358 858,511 1398,479 -7881,-8857 -12977,-20566 -16037,-32155z"/>
  <path class="fil1" d="M167666 212133c-3679,25087 -14615,88834 -53568,76281 -17618,-5677 -24405,-33071 -27422,-48344 -2225,-11274 -3604,-23194 -4887,-34579 -58,-533 -269,-915 -533,-1228 1268,11771 2649,24034 4839,35658 3061,16247 9946,45393 27824,51432 38621,13046 50093,-51362 54084,-79220l-337 0z"/>
  <path class="fil1" d="M89369 205531c-832,10863 2786,24970 3523,29898 740,4931 6120,21794 11366,31293 4523,8170 11473,16188 22491,14391 12545,-2047 19507,-18053 23064,-28238 4782,-13660 5507,-28172 6843,-42501 -25217,-467 -48309,-2202 -67287,-4843z"/>
  <path class="fil1" d="M182442 210313c657,11966 4741,23008 7709,34707 2438,9618 5280,20939 11845,28608 20828,24314 38981,-11770 44635,-29674 4090,-12965 4640,-26437 5495,-39883 -18701,3348 -42859,5606 -69684,6242z"/>
  <path class="fil1" d="M292094 185999c-825,1445 -1462,2660 -4366,4941 -2903,2285 -4218,4067 -8149,4150 1886,9119 3553,18608 5050,27822 1130,6924 3189,18047 8296,25222l0 -59048c0,-1077 -294,-2104 -831,-3087z"/>
  <path class="fil2" d="M166466 200202c-61142,0 -112090,-8448 -123439,-19650 -13,141 -25,278 -25,420 0,14144 55275,25606 123464,25606 68187,0 123467,-11462 123467,-25606 0,-142 -17,-279 -26,-420 -11353,11202 -62299,19650 -123441,19650z"/>
  <path class="fil5" d="M179780 215458c0,4999 -4059,9053 -9053,9053 -5001,0 -9051,-4054 -9051,-9053 0,-4997 4050,-9051 9051,-9051 4994,0 9053,4054 9053,9051z"/>
  <path class="fil6" d="M177233 215032c0,3988 -3229,7217 -7214,7217 -3982,0 -7215,-3229 -7215,-7217 0,-3982 3233,-7214 7215,-7214 3985,0 7214,3232 7214,7214z"/>
  <path class="fil1" d="M174547 213902c0,2969 -2409,5374 -5376,5374 -2969,0 -5376,-2405 -5376,-5374 0,-2969 2407,-5376 5376,-5376 2967,0 5376,2407 5376,5376z"/>
  <path class="fil2" d="M169878 212555c0,1370 -1108,2477 -2474,2477 -1367,0 -2477,-1107 -2477,-2477 0,-1364 1110,-2471 2477,-2471 1366,0 2474,1107 2474,2471z"/>
  <path class="fil5" d="M230368 231833c0,3455 -2796,6259 -6252,6259 -3455,0 -6256,-2804 -6256,-6259 0,-3455 2801,-6254 6256,-6254 3456,0 6252,2799 6252,6254z"/>
  <path class="fil6" d="M228612 231542c0,2754 -2234,4981 -4988,4981 -2752,0 -4984,-2227 -4984,-4981 0,-2753 2232,-4987 4984,-4987 2754,0 4988,2234 4988,4987z"/>
  <path class="fil1" d="M226753 230761c0,2051 -1661,3714 -3713,3714 -2049,0 -3714,-1663 -3714,-3714 0,-2055 1665,-3715 3714,-3715 2052,0 3713,1660 3713,3715z"/>
  <path class="fil2" d="M223532 229830c0,946 -770,1712 -1714,1712 -946,0 -1712,-766 -1712,-1712 0,-945 766,-1710 1712,-1710 944,0 1714,765 1714,1710z"/>
  <path class="fil5" d="M220249 241954c0,3454 -2797,6254 -6250,6254 -3455,0 -6258,-2800 -6258,-6254 0,-3457 2803,-6258 6258,-6258 3453,0 6250,2801 6250,6258z"/>
  <path class="fil6" d="M218493 241658c0,2754 -2230,4986 -4982,4986 -2754,0 -4988,-2232 -4988,-4986 0,-2752 2234,-4982 4988,-4982 2752,0 4982,2230 4982,4982z"/>
  <path class="fil1" d="M216638 240878c0,2053 -1662,3713 -3715,3713 -2055,0 -3716,-1660 -3716,-3713 0,-2050 1661,-3716 3716,-3716 2053,0 3715,1666 3715,3716z"/>
  <path class="fil2" d="M213411 239948c0,945 -767,1710 -1710,1710 -944,0 -1711,-765 -1711,-1710 0,-942 767,-1711 1711,-1711 943,0 1710,769 1710,1711z"/>
  <path class="fil5" d="M233885 245024c0,3458 -2803,6261 -6256,6261 -3456,0 -6256,-2803 -6256,-6261 0,-3453 2800,-6255 6256,-6255 3453,0 6256,2802 6256,6255z"/>
  <path class="fil6" d="M232127 244730c0,2756 -2230,4986 -4986,4986 -2752,0 -4986,-2230 -4986,-4986 0,-2752 2234,-4982 4986,-4982 2756,0 4986,2230 4986,4982z"/>
  <path class="fil1" d="M230268 243951c0,2051 -1667,3714 -3713,3714 -2053,0 -3713,-1663 -3713,-3714 0,-2054 1660,-3715 3713,-3715 2046,0 3713,1661 3713,3715z"/>
  <path class="fil2" d="M227045 243020c0,947 -769,1710 -1711,1710 -945,0 -1712,-763 -1712,-1710 0,-944 767,-1710 1712,-1710 942,0 1711,766 1711,1710z"/>
  <path class="fil5" d="M120450 243694c0,3458 -2801,6254 -6256,6254 -3455,0 -6254,-2796 -6254,-6254 0,-3456 2799,-6257 6254,-6257 3455,0 6256,2801 6256,6257z"/>
  <path class="fil6" d="M118693 243402c0,2752 -2233,4983 -4989,4983 -2753,0 -4982,-2231 -4982,-4983 0,-2755 2229,-4986 4982,-4986 2756,0 4989,2231 4989,4986z"/>
  <path class="fil1" d="M116835 242622c0,2048 -1667,3711 -3716,3711 -2050,0 -3713,-1663 -3713,-3711 0,-2057 1663,-3718 3713,-3718 2049,0 3716,1661 3716,3718z"/>
  <path class="fil2" d="M113610 241688c0,946 -766,1714 -1712,1714 -947,0 -1712,-768 -1712,-1714 0,-944 765,-1705 1712,-1705 946,0 1712,761 1712,1705z"/>
  <path class="fil5" d="M130569 234374c0,3456 -2801,6255 -6256,6255 -3458,0 -6256,-2799 -6256,-6255 0,-3453 2798,-6256 6256,-6256 3455,0 6256,2803 6256,6256z"/>
  <path class="fil6" d="M128810 234080c0,2754 -2231,4988 -4985,4988 -2750,0 -4984,-2234 -4984,-4988 0,-2754 2234,-4984 4984,-4984 2754,0 4985,2230 4985,4984z"/>
  <path class="fil1" d="M126954 233300c0,2051 -1665,3713 -3715,3713 -2054,0 -3716,-1662 -3716,-3713 0,-2051 1662,-3713 3716,-3713 2050,0 3715,1662 3715,3713z"/>
  <path class="fil2" d="M123726 232368c0,949 -767,1712 -1709,1712 -942,0 -1710,-763 -1710,-1712 0,-939 768,-1711 1710,-1711 942,0 1709,772 1709,1711z"/>
  <path class="fil5" d="M133498 247689c0,3453 -2799,6256 -6256,6256 -3456,0 -6255,-2803 -6255,-6256 0,-3456 2799,-6259 6255,-6259 3457,0 6256,2803 6256,6259z"/>
  <path class="fil6" d="M131737 247394c0,2756 -2229,4986 -4983,4986 -2752,0 -4987,-2230 -4987,-4986 0,-2752 2235,-4982 4987,-4982 2754,0 4983,2230 4983,4982z"/>
  <path class="fil1" d="M129883 246616c0,2049 -1667,3713 -3714,3713 -2054,0 -3715,-1664 -3715,-3713 0,-2057 1661,-3715 3715,-3715 2047,0 3714,1658 3714,3715z"/>
  <path class="fil2" d="M126657 245684c0,945 -767,1710 -1709,1710 -946,0 -1714,-765 -1714,-1710 0,-946 768,-1709 1714,-1709 942,0 1709,763 1709,1709z"/>
  <path class="fil5" d="M52018 221859c0,2718 -2208,4922 -4928,4922 -2716,0 -4922,-2204 -4922,-4922 0,-2720 2206,-4924 4922,-4924 2720,0 4928,2204 4928,4924z"/>
  <path class="fil6" d="M50633 221629c0,2168 -1757,3923 -3923,3923 -2168,0 -3926,-1755 -3926,-3923 0,-2168 1758,-3924 3926,-3924 2166,0 3923,1756 3923,3924z"/>
  <path class="fil1" d="M49170 221015c0,1612 -1313,2921 -2922,2921 -1616,0 -2927,-1309 -2927,-2921 0,-1620 1311,-2925 2927,-2925 1609,0 2922,1305 2922,2925z"/>
  <path class="fil2" d="M46631 220282c0,742 -603,1347 -1345,1347 -744,0 -1349,-605 -1349,-1347 0,-742 605,-1349 1349,-1349 742,0 1345,607 1345,1349z"/>
  <path class="fil5" d="M294484 214492c0,2725 -2203,4927 -4920,4927 -2722,0 -4926,-2202 -4926,-4927 0,-2720 2204,-4921 4926,-4921 2717,0 4920,2201 4920,4921z"/>
  <path class="fil6" d="M293103 214264c0,2168 -1759,3923 -3927,3923 -2164,0 -3918,-1755 -3918,-3923 0,-2169 1754,-3924 3918,-3924 2168,0 3927,1755 3927,3924z"/>
  <path class="fil1" d="M291640 213648c0,1614 -1311,2925 -2918,2925 -1620,0 -2931,-1311 -2931,-2925 0,-1618 1311,-2920 2931,-2920 1607,0 2918,1302 2918,2920z"/>
  <path class="fil2" d="M289104 212915c0,748 -604,1349 -1350,1349 -742,0 -1350,-601 -1350,-1349 0,-744 608,-1347 1350,-1347 746,0 1350,603 1350,1347z"/>
  <path class="fil5" d="M49087 210673c0,2724 -2202,4928 -4922,4928 -2722,0 -4928,-2204 -4928,-4928 0,-2718 2206,-4920 4928,-4920 2720,0 4922,2202 4922,4920z"/>
  <path class="fil6" d="M47704 210444c0,2168 -1759,3925 -3925,3925 -2165,0 -3924,-1757 -3924,-3925 0,-2169 1759,-3924 3924,-3924 2166,0 3925,1755 3925,3924z"/>
  <path class="fil1" d="M46239 209829c0,1615 -1306,2926 -2920,2926 -1616,0 -2926,-1311 -2926,-2926 0,-1616 1310,-2923 2926,-2923 1614,0 2920,1307 2920,2923z"/>
  <path class="fil2" d="M43703 209097c0,744 -603,1347 -1347,1347 -742,0 -1350,-603 -1350,-1347 0,-742 608,-1347 1350,-1347 744,0 1347,605 1347,1347z"/>
  <path class="fil5" d="M86986 205544c0,4020 -3255,7277 -7274,7277 -4022,0 -7281,-3257 -7281,-7277 0,-4018 3259,-7275 7281,-7275 4019,0 7274,3257 7274,7275z"/>
  <path class="fil6" d="M84939 205205c0,3202 -2596,5798 -5798,5798 -3201,0 -5798,-2596 -5798,-5798 0,-3204 2597,-5803 5798,-5803 3202,0 5798,2599 5798,5803z"/>
  <path class="fil1" d="M82780 204295c0,2381 -1936,4318 -4319,4318 -2387,0 -4323,-1937 -4323,-4318 0,-2383 1936,-4321 4323,-4321 2383,0 4319,1938 4319,4321z"/>
  <path class="fil2" d="M79028 203212c0,1100 -893,1993 -1990,1993 -1098,0 -1990,-893 -1990,-1993 0,-1098 892,-1985 1990,-1985 1097,0 1990,887 1990,1985z"/>
  <path class="fil5" d="M278703 201724c0,4312 -3498,7808 -7808,7808 -4315,0 -7813,-3496 -7813,-7808 0,-4314 3498,-7812 7813,-7812 4310,0 7808,3498 7808,7812z"/>
  <path class="fil6" d="M276508 201355c0,3441 -2788,6225 -6225,6225 -3434,0 -6222,-2784 -6222,-6225 0,-3438 2788,-6222 6222,-6222 3437,0 6225,2784 6225,6222z"/>
  <path class="fil1" d="M274186 200383c0,2558 -2076,4632 -4636,4632 -2560,0 -4634,-2074 -4634,-4632 0,-2564 2074,-4638 4634,-4638 2560,0 4636,2074 4636,4638z"/>
  <path class="fil2" d="M270162 199219c0,1181 -957,2136 -2136,2136 -1177,0 -2132,-955 -2132,-2136 0,-1176 955,-2136 2132,-2136 1179,0 2136,960 2136,2136z"/>
  <path class="fil3" d="M112408 84130c-10430,2198 -22864,6105 -22864,12223l0 75451c0,9823 33722,19048 73631,20149 33767,933 66426,-7169 75743,-15320 1853,-1614 2791,-8444 2791,-10032l0 -70248c0,-6118 -12435,-10025 -22864,-12223 -14231,-3001 -33131,-4656 -53221,-4656 -20089,0 -38986,1655 -53216,4656z"/>
  <path class="fil1" d="M238614 94694c0,7621 -32501,13794 -72600,13794 -40096,0 -72595,-6173 -72595,-13794 0,-7616 32499,-13787 72595,-13787 40099,0 72600,6171 72600,13787z"/>
  <path class="fil4" d="M89577 151955c7536,681 12735,-7591 16589,-13351 2539,-3798 5139,-7450 7039,-11681 2398,-5330 3295,-11430 4595,-17132 661,-2923 -3461,-4577 -4131,-1636 -2016,8913 -3742,16887 -8861,24444 -3766,5553 -8160,15084 -15375,15544 -2064,130 -1829,3635 144,3812l0 0z"/>
  <path class="fil4" d="M114377 109428c465,10262 610,20150 3492,30169 2624,9130 8833,21901 19571,23224 10965,1352 19610,-6565 24334,-15812 2808,-5493 4534,-11236 5751,-17262 1098,-5442 2844,-11066 3042,-16616 107,-2982 -4188,-3398 -4608,-437 -2075,14578 -8254,52027 -30417,44673 -9995,-3315 -13847,-19315 -15558,-28240 -1265,-6585 -2047,-13547 -2772,-20196 -207,-1886 -2918,-1298 -2835,497l0 0z"/>
  <path class="fil1" d="M90309 149318c7220,-311 11803,-9755 15678,-15233 5265,-7452 7149,-15393 9345,-24260 314,-1260 -814,-2537 -1243,-633 -2022,8912 -3747,16887 -8867,24439 -3765,5561 -8158,15087 -15371,15548l458 139z"/>
  <path class="fil4" d="M166065 114650c164,17725 4007,50444 29108,48749 12988,-874 21742,-9790 25933,-21391 3910,-10818 5681,-23303 7331,-34665 473,-3263 -4534,-3634 -5120,-475 -1388,7489 -2970,14930 -4417,22408 -2439,12617 -6937,25567 -21135,28803 -12359,2818 -20500,-7521 -23599,-17783 -2540,-8422 -2160,-17383 -4492,-25788 -503,-1801 -3622,-2015 -3609,142l0 0z"/>
  <path class="fil1" d="M91411 102526l0 42383c2040,-1748 3973,-4442 5001,-5802 2340,-3116 4913,-7245 6693,-11163 1789,-3910 6766,-13530 6258,-22254 -10672,-939 -17886,-8698 -17886,-8698 0,0 -66,4364 -66,5534z"/>
  <path class="fil1" d="M224349 108009c-1435,7486 -3077,14929 -4571,22405 -2526,12620 -7181,25567 -21881,28805 -12796,2818 -21225,-7522 -24433,-17782 -273,-874 -499,-1759 -714,-2641 266,1255 567,2505 927,3743 3212,10871 11637,21834 24433,18844 14700,-3430 19357,-17152 21883,-30527 1461,-7758 3064,-15479 4477,-23246 -47,128 -89,258 -121,399z"/>
  <path class="fil4" d="M240025 144645c-1555,-2176 -4076,-10273 -5474,-15689 -1252,-4873 -2409,-9769 -3594,-14659 -452,-1870 -902,-3739 -1350,-5613 -164,-680 -1275,-3069 -947,-2181 -786,-2120 -3745,-848 -3559,1141l0 0c-203,-2204 -132,1032 19,1834 501,2687 1183,5352 1780,8021 1249,5550 2494,11122 3982,16618 1825,6734 4929,13566 9859,18579 552,561 1801,286 2201,-771 402,-1058 -1363,-5099 -2917,-7280z"/>
  <path class="fil1" d="M232604 133365c-1524,-5771 -2805,-11624 -4084,-17456 -616,-2802 -1311,-5602 -1831,-8425 -100,-537 -1305,360 -1155,1162 503,2688 1185,5354 1781,8023 1250,5553 2492,11126 3981,16616 1824,6736 4930,13569 9858,18580 203,207 501,298 817,281 -4603,-5171 -7582,-12012 -9367,-18781z"/>
  <path class="fil1" d="M166764 113331c-2149,14653 -8541,51889 -31292,44558 -10294,-3317 -14259,-19321 -16021,-28242 -1295,-6585 -2104,-13549 -2852,-20195 -37,-318 -163,-539 -312,-721 738,6877 1545,14037 2822,20829 1789,9492 5811,26521 16254,30047 22566,7621 29263,-30003 31598,-46276l-197 0z"/>
  <path class="fil1" d="M121026 109473c-484,6342 1624,14587 2059,17465 429,2877 3572,12729 6640,18281 2639,4774 6698,9453 13135,8402 7329,-1196 11394,-10543 13474,-16492 2791,-7983 3219,-16458 3997,-24827 -14729,-273 -28221,-1288 -39305,-2829z"/>
  <path class="fil1" d="M175393 112266c386,6991 2769,13439 4500,20271 1424,5619 3087,12236 6926,16714 12165,14204 22766,-6874 26072,-17336 2385,-7574 2711,-15440 3208,-23297 -10925,1957 -25034,3274 -40706,3648z"/>
  <path class="fil1" d="M239447 98065c-480,839 -855,1551 -2548,2884 -1696,1336 -2466,2374 -4762,2423 1102,5329 2076,10869 2948,16254 661,4043 1861,10539 4850,14734l0 -34497c0,-624 -173,-1229 -488,-1798z"/>
  <path class="fil2" d="M166061 106361c-35716,0 -65480,-4937 -72109,-11481 -5,81 -13,160 -13,245 0,8262 32290,14960 72122,14960 39832,0 72122,-6698 72122,-14960 0,-85 -9,-164 -11,-245 -6633,6544 -36400,11481 -72111,11481z"/>
  <path class="fil5" d="M173837 115271c0,2920 -2364,5287 -5286,5287 -2920,0 -5289,-2367 -5289,-5287 0,-2920 2369,-5286 5289,-5286 2922,0 5286,2366 5286,5286z"/>
  <path class="fil6" d="M172352 115020c0,2330 -1889,4218 -4213,4218 -2328,0 -4218,-1888 -4218,-4218 0,-2326 1890,-4212 4218,-4212 2324,0 4213,1886 4213,4212z"/>
  <path class="fil1" d="M170781 114361c0,1737 -1408,3142 -3141,3142 -1734,0 -3138,-1405 -3138,-3142 0,-1735 1404,-3138 3138,-3138 1733,0 3141,1403 3141,3138z"/>
  <path class="fil2" d="M168054 113576c0,800 -646,1444 -1448,1444 -795,0 -1443,-644 -1443,-1444 0,-797 648,-1445 1443,-1445 802,0 1448,648 1448,1445z"/>
  <path class="fil5" d="M203392 124834c0,2018 -1637,3657 -3655,3657 -2019,0 -3654,-1639 -3654,-3657 0,-2015 1635,-3652 3654,-3652 2018,0 3655,1637 3655,3652z"/>
  <path class="fil6" d="M202365 124665c0,1609 -1303,2912 -2914,2912 -1608,0 -2916,-1303 -2916,-2912 0,-1607 1308,-2909 2916,-2909 1611,0 2914,1302 2914,2909z"/>
  <path class="fil1" d="M201280 124209c0,1198 -972,2170 -2172,2170 -1198,0 -2168,-972 -2168,-2170 0,-1200 970,-2170 2168,-2170 1200,0 2172,970 2172,2170z"/>
  <path class="fil2" d="M199393 123663c0,554 -445,1002 -1000,1002 -550,0 -997,-448 -997,-1002 0,-549 447,-1000 997,-1000 555,0 1000,451 1000,1000z"/>
  <path class="fil5" d="M197483 130749c0,2016 -1639,3651 -3655,3651 -2017,0 -3656,-1635 -3656,-3651 0,-2019 1639,-3656 3656,-3656 2016,0 3655,1637 3655,3656z"/>
  <path class="fil6" d="M196454 130574c0,1613 -1302,2914 -2910,2914 -1611,0 -2918,-1301 -2918,-2914 0,-1607 1307,-2909 2918,-2909 1608,0 2910,1302 2910,2909z"/>
  <path class="fil1" d="M195367 130120c0,1198 -968,2166 -2168,2166 -1200,0 -2170,-968 -2170,-2166 0,-1200 970,-2170 2170,-2170 1200,0 2168,970 2168,2170z"/>
  <path class="fil2" d="M193482 129577c0,552 -447,997 -998,997 -551,0 -999,-445 -999,-997 0,-555 448,-1000 999,-1000 551,0 998,445 998,1000z"/>
  <path class="fil5" d="M205445 132542c0,2018 -1639,3653 -3656,3653 -2019,0 -3656,-1635 -3656,-3653 0,-2017 1637,-3654 3656,-3654 2017,0 3656,1637 3656,3654z"/>
  <path class="fil6" d="M204419 132371c0,1609 -1306,2912 -2916,2912 -1606,0 -2911,-1303 -2911,-2912 0,-1610 1305,-2912 2911,-2912 1610,0 2916,1302 2916,2912z"/>
  <path class="fil1" d="M203332 131915c0,1198 -971,2170 -2169,2170 -1200,0 -2173,-972 -2173,-2170 0,-1198 973,-2168 2173,-2168 1198,0 2169,970 2169,2168z"/>
  <path class="fil2" d="M201450 131371c0,552 -452,1000 -999,1000 -554,0 -1000,-448 -1000,-1000 0,-550 446,-995 1000,-995 547,0 999,445 999,995z"/>
  <path class="fil5" d="M139183 131763c0,2019 -1637,3657 -3658,3657 -2018,0 -3654,-1638 -3654,-3657 0,-2016 1636,-3653 3654,-3653 2021,0 3658,1637 3658,3653z"/>
  <path class="fil6" d="M138151 131593c0,1610 -1300,2912 -2911,2912 -1605,0 -2912,-1302 -2912,-2912 0,-1609 1307,-2912 2912,-2912 1611,0 2911,1303 2911,2912z"/>
  <path class="fil1" d="M137069 131137c0,1198 -973,2170 -2170,2170 -1197,0 -2171,-972 -2171,-2170 0,-1200 974,-2170 2171,-2170 1197,0 2170,970 2170,2170z"/>
  <path class="fil2" d="M135186 130593c0,555 -447,1000 -1000,1000 -551,0 -997,-445 -997,-1000 0,-549 446,-997 997,-997 553,0 1000,448 1000,997z"/>
  <path class="fil5" d="M145092 126319c0,2019 -1635,3654 -3652,3654 -2020,0 -3657,-1635 -3657,-3654 0,-2016 1637,-3656 3657,-3656 2017,0 3652,1640 3652,3656z"/>
  <path class="fil6" d="M144067 126151c0,1605 -1305,2908 -2916,2908 -1607,0 -2912,-1303 -2912,-2908 0,-1614 1305,-2914 2912,-2914 1611,0 2916,1300 2916,2914z"/>
  <path class="fil1" d="M142979 125691c0,1200 -970,2169 -2167,2169 -1201,0 -2172,-969 -2172,-2169 0,-1199 971,-2168 2172,-2168 1197,0 2167,969 2167,2168z"/>
  <path class="fil2" d="M141095 125149c0,550 -450,1002 -997,1002 -554,0 -1000,-452 -1000,-1002 0,-550 446,-997 1000,-997 547,0 997,447 997,997z"/>
  <path class="fil5" d="M146804 134097c0,2019 -1637,3654 -3658,3654 -2017,0 -3654,-1635 -3654,-3654 0,-2016 1637,-3655 3654,-3655 2021,0 3658,1639 3658,3655z"/>
  <path class="fil6" d="M145776 133927c0,1606 -1307,2912 -2914,2912 -1607,0 -2914,-1306 -2914,-2912 0,-1609 1307,-2912 2914,-2912 1607,0 2914,1303 2914,2912z"/>
  <path class="fil1" d="M144689 133471c0,1196 -970,2168 -2170,2168 -1198,0 -2168,-972 -2168,-2168 0,-1198 970,-2170 2168,-2170 1200,0 2170,972 2170,2170z"/>
  <path class="fil2" d="M142809 132928c0,551 -450,999 -1004,999 -550,0 -996,-448 -996,-999 0,-553 446,-1000 996,-1000 554,0 1004,447 1004,1000z"/>
  <path class="fil5" d="M99208 119010c0,1590 -1291,2878 -2878,2878 -1592,0 -2879,-1288 -2879,-2878 0,-1588 1287,-2878 2879,-2878 1587,0 2878,1290 2878,2878z"/>
  <path class="fil6" d="M98396 118875c0,1267 -1023,2292 -2293,2292 -1264,0 -2290,-1025 -2290,-2292 0,-1266 1026,-2293 2290,-2293 1270,0 2293,1027 2293,2293z"/>
  <path class="fil1" d="M97544 118518c0,942 -766,1705 -1708,1705 -946,0 -1709,-763 -1709,-1705 0,-945 763,-1712 1709,-1712 942,0 1708,767 1708,1712z"/>
  <path class="fil2" d="M96060 118087c0,435 -352,788 -789,788 -432,0 -787,-353 -787,-788 0,-433 355,-784 787,-784 437,0 789,351 789,784z"/>
  <path class="fil5" d="M240847 114709c0,1585 -1290,2875 -2878,2875 -1590,0 -2881,-1290 -2881,-2875 0,-1591 1291,-2876 2881,-2876 1588,0 2878,1285 2878,2876z"/>
  <path class="fil6" d="M240033 114574c0,1266 -1023,2292 -2290,2292 -1264,0 -2291,-1026 -2291,-2292 0,-1266 1027,-2293 2291,-2293 1267,0 2290,1027 2290,2293z"/>
  <path class="fil1" d="M239182 114214c0,942 -767,1705 -1707,1705 -944,0 -1710,-763 -1710,-1705 0,-942 766,-1708 1710,-1708 940,0 1707,766 1707,1708z"/>
  <path class="fil2" d="M237701 113788c0,432 -354,786 -789,786 -433,0 -788,-354 -788,-786 0,-438 355,-791 788,-791 435,0 789,353 789,791z"/>
  <path class="fil5" d="M97495 112476c0,1588 -1290,2876 -2878,2876 -1588,0 -2876,-1288 -2876,-2876 0,-1588 1288,-2875 2876,-2875 1588,0 2878,1287 2878,2875z"/>
  <path class="fil6" d="M96687 112344c0,1264 -1028,2290 -2294,2290 -1264,0 -2294,-1026 -2294,-2290 0,-1268 1030,-2295 2294,-2295 1266,0 2294,1027 2294,2295z"/>
  <path class="fil1" d="M95829 111984c0,942 -763,1703 -1705,1703 -944,0 -1707,-761 -1707,-1703 0,-946 763,-1709 1707,-1709 942,0 1705,763 1705,1709z"/>
  <path class="fil2" d="M94350 111556c0,435 -353,788 -788,788 -433,0 -787,-353 -787,-788 0,-433 354,-787 787,-787 435,0 788,354 788,787z"/>
  <path class="fil5" d="M119632 109479c0,2347 -1902,4251 -4249,4251 -2346,0 -4255,-1904 -4255,-4251 0,-2347 1909,-4250 4255,-4250 2347,0 4249,1903 4249,4250z"/>
  <path class="fil6" d="M118440 109279c0,1874 -1520,3387 -3389,3387 -1872,0 -3390,-1513 -3390,-3387 0,-1869 1518,-3387 3390,-3387 1869,0 3389,1518 3389,3387z"/>
  <path class="fil1" d="M117176 108751c0,1394 -1132,2523 -2524,2523 -1394,0 -2526,-1129 -2526,-2523 0,-1395 1132,-2529 2526,-2529 1392,0 2524,1134 2524,2529z"/>
  <path class="fil2" d="M114985 108119c0,640 -521,1160 -1162,1160 -644,0 -1164,-520 -1164,-1160 0,-643 520,-1164 1164,-1164 641,0 1162,521 1162,1164z"/>
  <path class="fil5" d="M231621 107247c0,2520 -2041,4562 -4559,4562 -2518,0 -4562,-2042 -4562,-4562 0,-2519 2044,-4564 4562,-4564 2518,0 4559,2045 4559,4564z"/>
  <path class="fil6" d="M230345 107030c0,2013 -1631,3639 -3639,3639 -2008,0 -3637,-1626 -3637,-3639 0,-2006 1629,-3628 3637,-3628 2008,0 3639,1622 3639,3628z"/>
  <path class="fil1" d="M228989 106463c0,1494 -1215,2708 -2709,2708 -1501,0 -2711,-1214 -2711,-2708 0,-1496 1210,-2709 2711,-2709 1494,0 2709,1213 2709,2709z"/>
  <path class="fil2" d="M226633 105785c0,691 -556,1245 -1246,1245 -689,0 -1243,-554 -1243,-1245 0,-688 554,-1247 1243,-1247 690,0 1246,559 1246,1247z"/>
  <path class="fil3" d="M135001 28400c-5988,1452 -13131,4029 -13131,8063l0 49745c0,6478 19368,12558 42293,13287 19397,614 38157,-4730 43510,-10104 1061,-1066 1599,-5566 1599,-6613l0 -46315c0,-4034 -7141,-6611 -13131,-8063 -8178,-1978 -19030,-3067 -30568,-3067 -11543,0 -22400,1089 -30572,3067z"/>
  <path class="fil1" d="M207498 35369c0,5022 -18674,9093 -41704,9093 -23032,0 -41701,-4071 -41701,-9093 0,-5024 18669,-9092 41701,-9092 23030,0 41704,4068 41704,9092z"/>
  <path class="fil4" d="M121887 73120c4329,450 7316,-5003 9526,-8801 1463,-2507 2955,-4914 4046,-7702 1375,-3513 1893,-7538 2639,-11298 380,-1925 -1991,-3014 -2373,-1076 -1157,5874 -2150,11131 -5090,16115 -2161,3662 -4685,9946 -8831,10249 -1185,87 -1051,2396 83,2513l0 0z"/>
  <path class="fil4" d="M136131 45083c266,6764 353,13284 2009,19890 1507,6017 5069,14440 11241,15314 6295,888 11263,-4330 13977,-10426 1613,-3622 2607,-7408 3304,-11383 633,-3585 1635,-7295 1746,-10955 64,-1967 -2400,-2240 -2646,-287 -1191,9611 -4745,34302 -17470,29455 -5747,-2188 -7954,-12739 -8938,-18620 -725,-4342 -1179,-8934 -1593,-13316 -119,-1243 -1675,-855 -1630,328l0 0z"/>
  <path class="fil1" d="M122307 71383c4144,-207 6778,-6433 9004,-10044 3029,-4916 4107,-10149 5370,-15994 177,-834 -467,-1674 -715,-420 -1163,5879 -2155,11133 -5090,16115 -2166,3667 -4689,9948 -8833,10251l264 92z"/>
  <path class="fil4" d="M165822 48525c92,11686 2302,33258 16721,32141 7460,-578 12487,-6455 14896,-14101 2249,-7136 3261,-15367 4212,-22858 270,-2150 -2608,-2395 -2942,-313 -797,4937 -1710,9844 -2539,14772 -1398,8320 -3986,16858 -12137,18991 -7101,1857 -11777,-4958 -13555,-11723 -1462,-5552 -1243,-11462 -2582,-17000 -290,-1192 -2085,-1333 -2074,91l0 0z"/>
  <path class="fil1" d="M199301 44147c-824,4937 -1769,9843 -2626,14770 -1451,8320 -4124,16859 -12565,18993 -7350,1859 -12196,-4958 -14038,-11722 -155,-580 -285,-1162 -409,-1744 152,827 324,1650 533,2466 1842,7172 6683,14398 14035,12428 8446,-2264 11116,-11310 12568,-20129 840,-5116 1765,-10207 2573,-15325 -28,84 -51,167 -71,263z"/>
  <path class="fil4" d="M208304 68303c-892,-1439 -2339,-6773 -3140,-10345 -723,-3213 -1384,-6442 -2066,-9665 -262,-1232 -522,-2468 -776,-3701 -94,-450 -735,-2025 -546,-1439 -452,-1395 -2146,-560 -2046,751l0 0c-115,-1450 -73,682 13,1208 290,1774 682,3530 1025,5289 717,3662 1428,7335 2288,10959 1044,4438 2831,8944 5661,12250 318,371 1039,186 1264,-512 233,-692 -780,-3361 -1677,-4795z"/>
  <path class="fil1" d="M204041 60863c-871,-3805 -1608,-7663 -2343,-11508 -352,-1847 -755,-3695 -1053,-5553 -56,-359 -748,236 -661,765 287,1769 680,3530 1023,5289 712,3661 1431,7335 2285,10956 1046,4440 2831,8942 5664,12250 117,135 288,197 469,186 -2644,-3411 -4355,-7919 -5384,-12385z"/>
  <path class="fil1" d="M166225 47653c-1239,9663 -4903,34213 -17976,29381 -5911,-2187 -8190,-12739 -9198,-18622 -749,-4342 -1215,-8932 -1643,-13314 -20,-209 -90,-354 -180,-476 427,4532 889,9255 1625,13734 1025,6256 3334,17482 9336,19810 12960,5024 16806,-19784 18145,-30513l-109 0z"/>
  <path class="fil2" d="M165820 43060c-20515,0 -37608,-3255 -41422,-7570 -2,52 -6,107 -6,162 0,5446 18549,9861 41428,9861 22881,0 41430,-4415 41430,-9861 0,-55 -6,-110 -6,-162 -3811,4315 -20909,7570 -41424,7570z"/>
  <path class="fil5" d="M170286 48935c0,1924 -1358,3487 -3034,3487 -1677,0 -3039,-1563 -3039,-3487 0,-1925 1362,-3486 3039,-3486 1676,0 3034,1561 3034,3486z"/>
  <path class="fil6" d="M169431 48770c0,1535 -1083,2780 -2417,2780 -1337,0 -2422,-1245 -2422,-2780 0,-1534 1085,-2779 2422,-2779 1334,0 2417,1245 2417,2779z"/>
  <path class="fil1" d="M168527 48335c0,1145 -802,2070 -1797,2070 -1000,0 -1805,-925 -1805,-2070 0,-1144 805,-2069 1805,-2069 995,0 1797,925 1797,2069z"/>
  <path class="fil2" d="M166965 47815c0,529 -371,955 -829,955 -459,0 -832,-426 -832,-955 0,-524 373,-950 832,-950 458,0 829,426 829,950z"/>
  <path class="fil5" d="M187264 55240c0,1332 -944,2413 -2101,2413 -1158,0 -2100,-1081 -2100,-2413 0,-1328 942,-2411 2100,-2411 1157,0 2101,1083 2101,2411z"/>
  <path class="fil6" d="M186672 55129c0,1060 -744,1918 -1672,1918 -922,0 -1671,-858 -1671,-1918 0,-1059 749,-1920 1671,-1920 928,0 1672,861 1672,1920z"/>
  <path class="fil1" d="M186049 54826c0,793 -556,1433 -1245,1433 -690,0 -1249,-640 -1249,-1433 0,-788 559,-1430 1249,-1430 689,0 1245,642 1245,1430z"/>
  <path class="fil2" d="M184971 54468c0,367 -263,661 -576,661 -317,0 -577,-294 -577,-661 0,-362 260,-658 577,-658 313,0 576,296 576,658z"/>
  <path class="fil5" d="M183868 59139c0,1330 -937,2408 -2099,2408 -1160,0 -2098,-1078 -2098,-2408 0,-1333 938,-2411 2098,-2411 1162,0 2099,1078 2099,2411z"/>
  <path class="fil6" d="M183278 59024c0,1063 -748,1920 -1675,1920 -923,0 -1669,-857 -1669,-1920 0,-1060 746,-1919 1669,-1919 927,0 1675,859 1675,1919z"/>
  <path class="fil1" d="M182653 58723c0,791 -556,1430 -1244,1430 -689,0 -1249,-639 -1249,-1430 0,-789 560,-1428 1249,-1428 688,0 1244,639 1244,1428z"/>
  <path class="fil2" d="M181573 58367c0,363 -256,657 -573,657 -320,0 -574,-294 -574,-657 0,-364 254,-661 574,-661 317,0 573,297 573,661z"/>
  <path class="fil5" d="M188443 60322c0,1332 -940,2411 -2100,2411 -1162,0 -2097,-1079 -2097,-2411 0,-1330 935,-2411 2097,-2411 1160,0 2100,1081 2100,2411z"/>
  <path class="fil6" d="M187853 60209c0,1061 -746,1918 -1674,1918 -927,0 -1671,-857 -1671,-1918 0,-1060 744,-1919 1671,-1919 928,0 1674,859 1674,1919z"/>
  <path class="fil1" d="M187228 59906c0,791 -558,1433 -1247,1433 -687,0 -1245,-642 -1245,-1433 0,-789 558,-1428 1245,-1428 689,0 1247,639 1247,1428z"/>
  <path class="fil2" d="M186143 59548c0,365 -253,661 -569,661 -322,0 -578,-296 -578,-661 0,-360 256,-657 578,-657 316,0 569,297 569,657z"/>
  <path class="fil5" d="M150381 59810c0,1328 -938,2409 -2100,2409 -1162,0 -2100,-1081 -2100,-2409 0,-1332 938,-2411 2100,-2411 1162,0 2100,1079 2100,2411z"/>
  <path class="fil6" d="M149790 59695c0,1062 -748,1920 -1673,1920 -926,0 -1674,-858 -1674,-1920 0,-1060 748,-1921 1674,-1921 925,0 1673,861 1673,1921z"/>
  <path class="fil1" d="M149167 59397c0,786 -560,1426 -1249,1426 -688,0 -1244,-640 -1244,-1426 0,-793 556,-1433 1244,-1433 689,0 1249,640 1249,1433z"/>
  <path class="fil2" d="M148087 59036c0,362 -258,659 -576,659 -320,0 -573,-297 -573,-659 0,-364 253,-656 573,-656 318,0 576,292 576,656z"/>
  <path class="fil5" d="M153778 56218c0,1330 -942,2411 -2101,2411 -1162,0 -2100,-1081 -2100,-2411 0,-1328 938,-2408 2100,-2408 1159,0 2101,1080 2101,2408z"/>
  <path class="fil6" d="M153184 56108c0,1059 -746,1920 -1669,1920 -925,0 -1674,-861 -1674,-1920 0,-1062 749,-1919 1674,-1919 923,0 1669,857 1669,1919z"/>
  <path class="fil1" d="M152563 55805c0,790 -561,1430 -1249,1430 -689,0 -1245,-640 -1245,-1430 0,-791 556,-1431 1245,-1431 688,0 1249,640 1249,1431z"/>
  <path class="fil2" d="M151479 55448c0,363 -258,660 -572,660 -317,0 -575,-297 -575,-660 0,-364 258,-660 575,-660 314,0 572,296 572,660z"/>
  <path class="fil5" d="M154759 61347c0,1330 -942,2409 -2100,2409 -1162,0 -2099,-1079 -2099,-2409 0,-1330 937,-2411 2099,-2411 1158,0 2100,1081 2100,2411z"/>
  <path class="fil6" d="M154164 61234c0,1059 -744,1920 -1673,1920 -921,0 -1669,-861 -1669,-1920 0,-1062 748,-1921 1669,-1921 929,0 1673,859 1673,1921z"/>
  <path class="fil1" d="M153541 60933c0,789 -551,1429 -1244,1429 -689,0 -1245,-640 -1245,-1429 0,-790 556,-1430 1245,-1430 693,0 1244,640 1244,1430z"/>
  <path class="fil2" d="M152463 60575c0,365 -258,659 -574,659 -319,0 -575,-294 -575,-659 0,-364 256,-658 575,-658 316,0 574,294 574,658z"/>
  <path class="fil5" d="M127416 51399c0,1048 -737,1895 -1647,1895 -917,0 -1657,-847 -1657,-1895 0,-1047 740,-1898 1657,-1898 910,0 1647,851 1647,1898z"/>
  <path class="fil6" d="M126954 51311c0,833 -591,1510 -1318,1510 -727,0 -1317,-677 -1317,-1510 0,-835 590,-1513 1317,-1513 727,0 1318,678 1318,1513z"/>
  <path class="fil1" d="M126463 51074c0,621 -443,1128 -982,1128 -541,0 -983,-507 -983,-1128 0,-624 442,-1129 983,-1129 539,0 982,505 982,1129z"/>
  <path class="fil2" d="M125608 50793c0,284 -202,518 -449,518 -250,0 -454,-234 -454,-518 0,-287 204,-520 454,-520 247,0 449,233 449,520z"/>
  <path class="fil5" d="M208777 48564c0,1046 -740,1895 -1652,1895 -913,0 -1652,-849 -1652,-1895 0,-1047 739,-1898 1652,-1898 912,0 1652,851 1652,1898z"/>
  <path class="fil6" d="M208314 48474c0,835 -590,1511 -1317,1511 -727,0 -1318,-676 -1318,-1511 0,-834 591,-1512 1318,-1512 727,0 1317,678 1317,1512z"/>
  <path class="fil1" d="M207822 48237c0,621 -439,1126 -983,1126 -543,0 -980,-505 -980,-1126 0,-622 437,-1127 980,-1127 544,0 983,505 983,1127z"/>
  <path class="fil2" d="M206969 47956c0,284 -202,518 -450,518 -249,0 -452,-234 -452,-518 0,-288 203,-520 452,-520 248,0 450,232 450,520z"/>
  <path class="fil5" d="M126436 47091c0,1049 -742,1897 -1657,1897 -910,0 -1647,-848 -1647,-1897 0,-1045 737,-1898 1647,-1898 915,0 1657,853 1657,1898z"/>
  <path class="fil6" d="M125971 47001c0,838 -590,1514 -1321,1514 -723,0 -1313,-676 -1313,-1514 0,-833 590,-1509 1313,-1509 731,0 1321,676 1321,1509z"/>
  <path class="fil1" d="M125481 46767c0,622 -441,1125 -983,1125 -542,0 -983,-503 -983,-1125 0,-625 441,-1128 983,-1128 542,0 983,503 983,1128z"/>
  <path class="fil2" d="M124628 46485c0,286 -204,516 -452,516 -249,0 -454,-230 -454,-516 0,-286 205,-518 454,-518 248,0 452,232 452,518z"/>
  <path class="fil5" d="M139149 45116c0,1548 -1091,2804 -2441,2804 -1345,0 -2443,-1256 -2443,-2804 0,-1547 1098,-2803 2443,-2803 1350,0 2441,1256 2441,2803z"/>
  <path class="fil6" d="M138465 44985c0,1234 -872,2231 -1946,2231 -1077,0 -1945,-997 -1945,-2231 0,-1235 868,-2235 1945,-2235 1074,0 1946,1000 1946,2235z"/>
  <path class="fil1" d="M137738 44635c0,919 -648,1663 -1448,1663 -803,0 -1451,-744 -1451,-1663 0,-919 648,-1665 1451,-1665 800,0 1448,746 1448,1665z"/>
  <path class="fil2" d="M136480 44217c0,425 -296,768 -667,768 -371,0 -670,-343 -670,-768 0,-424 299,-765 670,-765 371,0 667,341 667,765z"/>
  <path class="fil5" d="M203480 43644c0,1662 -1175,3007 -2620,3007 -1447,0 -2622,-1345 -2622,-3007 0,-1663 1175,-3008 2622,-3008 1445,0 2620,1345 2620,3008z"/>
  <path class="fil6" d="M202744 43501c0,1326 -938,2398 -2091,2398 -1149,0 -2084,-1072 -2084,-2398 0,-1322 935,-2394 2084,-2394 1153,0 2091,1072 2091,2394z"/>
  <path class="fil1" d="M201966 43128c0,985 -695,1784 -1556,1784 -859,0 -1554,-799 -1554,-1784 0,-989 695,-1789 1554,-1789 861,0 1556,800 1556,1789z"/>
  <path class="fil2" d="M200617 42680c0,454 -324,821 -720,821 -393,0 -713,-367 -713,-821 0,-454 320,-823 713,-823 396,0 720,369 720,823z"/>
  <path class="fil0" d="M65356 182693c-12618,-2940 -11240,-16331 -7137,-19878 4103,-3545 14934,-7780 11059,-12979 0,0 11780,7245 13545,17068 1760,9827 -4848,18722 -17467,15789z"/>
  <path class="fil1" d="M78615 158232c-6024,3971 -15397,5466 -21600,6026 -1328,2113 -2055,5397 -1512,8646 1437,-439 3013,-952 4758,-1556 10304,-3551 16470,-7237 20103,-10607 -534,-880 -1127,-1718 -1749,-2509z"/>
  <path class="fil1" d="M63689 182217c10854,-4077 16531,-8277 19406,-11920 19,-1106 -68,-2242 -272,-3393 -7,-21 -16,-45 -16,-67 -5232,6794 -18683,8815 -26238,9412 1241,2521 3492,4732 7120,5968z"/>
  <path class="fil1" d="M64207 181314c0,0 -8585,-5600 -6406,-12584 2179,-6983 7921,-8332 10488,-10735 2564,-2402 2716,-4755 2716,-4755 0,0 198,3764 -1599,6503 -1793,2739 -5826,3833 -6817,9751 -995,5921 1618,11820 1618,11820z"/>
  <path class="fil0" d="M105900 192443c-12903,-1162 -13393,-14615 -9821,-18697 3577,-4082 13717,-9771 9158,-14384 0,0 12672,5544 15774,15030 3101,9488 -2209,19217 -15111,18051z"/>
  <path class="fil1" d="M115646 166386c-5417,4768 -14496,7541 -20558,8955 -1021,2276 -1288,5631 -303,8773 1362,-635 2855,-1360 4500,-2200 9707,-4942 15307,-9447 18445,-13286 -654,-795 -1360,-1543 -2084,-2242z"/>
  <path class="fil1" d="M104180 192204c10184,-5540 15232,-10481 17570,-14487 -132,-1099 -377,-2212 -739,-3325 -9,-19 -17,-40 -24,-64 -4239,7452 -17285,11315 -24680,12952 1578,2323 4110,4201 7873,4924z"/>
  <path class="fil1" d="M104569 191238c0,0 -9278,-4359 -8085,-11576 1194,-7218 6694,-9348 8902,-12083 2206,-2732 2031,-5084 2031,-5084 0,0 712,3703 -684,6662 -1398,2961 -5238,4600 -5404,10600 -162,6001 3240,11481 3240,11481z"/>
  <path class="fil2" d="M104569 191238c0,0 -1404,-2268 -2366,-5480 -1217,360 -2398,682 -3502,957 2422,2901 5868,4523 5868,4523z"/>
  <path class="fil2" d="M98450 174486c-896,1385 -1614,3063 -1966,5176 -211,1270 -90,2446 239,3530 812,-395 1662,-817 2562,-1278 710,-360 1390,-716 2057,-1076 -17,-358 -21,-716 -13,-1081 94,-3406 1376,-5405 2722,-7042 -1920,696 -3817,1283 -5601,1771z"/>
  <path class="fil0" d="M160184 194063c-13562,-1226 -14084,-15365 -10321,-19656 3755,-4291 14416,-10270 9628,-15122 0,0 13314,5828 16580,15802 3261,9974 -2321,20199 -15887,18976z"/>
  <path class="fil1" d="M170431 166667c-5696,5016 -15237,7932 -21613,9418 -1074,2389 -1352,5917 -315,9221 1432,-670 2997,-1426 4727,-2311 10207,-5194 16094,-9933 19397,-13973 -695,-831 -1436,-1617 -2196,-2355z"/>
  <path class="fil1" d="M158381 193811c10703,-5823 16006,-11020 18468,-15233 -138,-1157 -396,-2325 -778,-3491 -9,-24 -17,-47 -26,-68 -4457,7831 -18170,11892 -25948,13615 1658,2443 4323,4417 8284,5177z"/>
  <path class="fil1" d="M158788 192797c0,0 -9757,-4585 -8501,-12170 1255,-7591 7038,-9831 9356,-12705 2325,-2873 2140,-5346 2140,-5346 0,0 746,3893 -719,7007 -1470,3110 -5508,4837 -5681,11140 -170,6312 3405,12074 3405,12074z"/>
  <path class="fil2" d="M158788 192797c0,0 -1480,-2386 -2492,-5762 -1277,377 -2515,712 -3680,1004 2546,3050 6172,4758 6172,4758z"/>
  <path class="fil2" d="M152357 175185c-947,1454 -1701,3214 -2070,5442 -222,1333 -96,2569 251,3709 853,-416 1748,-857 2692,-1341 745,-379 1461,-756 2164,-1131 -17,-376 -19,-759 -11,-1141 101,-3577 1444,-5683 2855,-7403 -2012,733 -4012,1351 -5881,1865z"/>
  <path class="fil0" d="M217101 193485c-13197,-3361 -11460,-17407 -7066,-21043 4393,-3641 15867,-7849 11909,-13400 0,0 12223,7872 13860,18237 1633,10365 -5502,19572 -18703,16206z"/>
  <path class="fil1" d="M231575 168072c-6421,4042 -16308,5408 -22835,5861 -1443,2190 -2276,5624 -1779,9051 1520,-430 3188,-933 5034,-1530 10906,-3508 17472,-7245 21368,-10709 -548,-934 -1149,-1829 -1788,-2673z"/>
  <path class="fil1" d="M215362 192952c11493,-4052 17555,-8337 20655,-12103 42,-1164 -26,-2358 -213,-3570 -3,-24 -11,-50 -15,-73 -5644,7024 -19829,8855 -27782,9315 1249,2679 3567,5054 7355,6431z"/>
  <path class="fil1" d="M215926 192014c0,0 -8902,-6071 -6459,-13365 2446,-7293 8510,-8589 11257,-11057 2753,-2466 2959,-4934 2959,-4934 0,0 120,3960 -1820,6797 -1948,2842 -6209,3903 -7380,10098 -1176,6205 1443,12461 1443,12461z"/>
  <path class="fil2" d="M215926 192014c0,0 -1080,-2589 -1543,-6083 -1322,173 -2603,304 -3798,405 2029,3417 5341,5678 5341,5678z"/>
  <path class="fil2" d="M212375 173608c-1166,1285 -2194,2903 -2908,5041 -430,1279 -502,2524 -343,3700 911,-272 1861,-569 2871,-895 796,-256 1563,-514 2315,-772 47,-370 101,-750 173,-1129 667,-3516 2326,-5380 3993,-6853 -2100,403 -4172,695 -6101,908z"/>
  <path class="fil0" d="M261281 183247c-12173,1635 -15458,-10701 -13007,-15228 2443,-4526 10628,-11919 5442,-15231 0,0 12881,2466 17750,10586 4863,8121 1997,18236 -10185,19873z"/>
  <path class="fil1" d="M264818 157094c-4004,5550 -11820,10027 -17130,12609 -463,2319 -5,5480 1571,8176 1121,-871 2349,-1856 3694,-2979 7938,-6613 12172,-11957 14265,-16169 -776,-599 -1580,-1145 -2400,-1637z"/>
  <path class="fil1" d="M259646 183386c8254,-7268 11880,-12897 13202,-17099 -354,-986 -815,-1963 -1382,-2913 -11,-20 -27,-37 -38,-56 -2351,7783 -13607,14099 -20102,17166 1949,1821 4686,3027 8320,2902z"/>
  <path class="fil1" d="M259802 182413c0,0 -9497,-2082 -9912,-9006 -418,-6927 4221,-10059 5691,-13051 1467,-2989 812,-5129 812,-5129 0,0 1431,3272 765,6305 -668,3033 -3875,5359 -2766,10943 1114,5584 5410,9938 5410,9938z"/>
  <path class="fil2" d="M259802 182413c0,0 -1778,-1805 -3340,-4576 -1052,593 -2072,1132 -3042,1624 2852,2172 6382,2952 6382,2952z"/>
  <path class="fil2" d="M250619 168204c-537,1471 -849,3174 -729,5203 72,1215 430,2277 961,3211 669,-538 1367,-1103 2102,-1718 582,-484 1134,-956 1673,-1427 -89,-328 -166,-660 -234,-998 -629,-3171 132,-5290 1032,-7087 -1623,1047 -3260,1989 -4805,2816z"/>
  <path class="fil5" d="M222579 86696c0,3061 -2483,5547 -5542,5547 -3063,0 -5551,-2486 -5551,-5547 0,-3063 2488,-5548 5551,-5548 3059,0 5542,2485 5542,5548z"/>
  <path class="fil6" d="M221019 86434c0,2443 -1976,4421 -4419,4421 -2437,0 -4419,-1978 -4419,-4421 0,-2440 1982,-4419 4419,-4419 2443,0 4419,1979 4419,4419z"/>
  <path class="fil1" d="M219373 85742c0,1818 -1475,3293 -3295,3293 -1814,0 -3289,-1475 -3289,-3293 0,-1821 1475,-3292 3289,-3292 1820,0 3295,1471 3295,3292z"/>
  <path class="fil2" d="M216517 84916c0,838 -680,1518 -1520,1518 -834,0 -1516,-680 -1516,-1518 0,-835 682,-1515 1516,-1515 840,0 1520,680 1520,1515z"/>
  <path class="fil5" d="M119977 87406c0,3063 -2485,5545 -5546,5545 -3066,0 -5549,-2482 -5549,-5545 0,-3063 2483,-5548 5549,-5548 3061,0 5546,2485 5546,5548z"/>
  <path class="fil6" d="M118414 87147c0,2440 -1978,4418 -4419,4418 -2438,0 -4418,-1978 -4418,-4418 0,-2442 1980,-4420 4418,-4420 2441,0 4419,1978 4419,4420z"/>
  <path class="fil1" d="M116767 86451c0,1819 -1471,3296 -3292,3296 -1820,0 -3293,-1477 -3293,-3296 0,-1818 1473,-3291 3293,-3291 1821,0 3292,1473 3292,3291z"/>
  <path class="fil2" d="M113913 85629c0,840 -682,1518 -1521,1518 -835,0 -1515,-678 -1515,-1518 0,-838 680,-1518 1515,-1518 839,0 1521,680 1521,1518z"/>
  <path class="fil5" d="M169079 94910c0,3845 -3120,6966 -6966,6966 -3848,0 -6966,-3121 -6966,-6966 0,-3848 3118,-6969 6966,-6969 3846,0 6966,3121 6966,6969z"/>
  <path class="fil6" d="M167118 94581c0,3068 -2485,5551 -5550,5551 -3064,0 -5552,-2483 -5552,-5551 0,-3065 2488,-5548 5552,-5548 3065,0 5550,2483 5550,5548z"/>
  <path class="fil1" d="M165052 93714c0,2283 -1854,4133 -4137,4133 -2287,0 -4135,-1850 -4135,-4133 0,-2288 1848,-4135 4135,-4135 2283,0 4137,1847 4137,4135z"/>
  <path class="fil2" d="M161463 92678c0,1053 -859,1903 -1908,1903 -1051,0 -1908,-850 -1908,-1903 0,-1051 857,-1906 1908,-1906 1049,0 1908,855 1908,1906z"/>
  <path class="fil5" d="M203520 92957c0,3552 -2886,6433 -6437,6433 -3554,0 -6431,-2881 -6431,-6433 0,-3554 2877,-6435 6431,-6435 3551,0 6437,2881 6437,6435z"/>
  <path class="fil6" d="M201706 92657c0,2832 -2293,5124 -5127,5124 -2831,0 -5122,-2292 -5122,-5124 0,-2834 2291,-5127 5122,-5127 2834,0 5127,2293 5127,5127z"/>
  <path class="fil1" d="M199798 91851c0,2108 -1709,3820 -3822,3820 -2108,0 -3817,-1712 -3817,-3820 0,-2110 1709,-3820 3817,-3820 2113,0 3822,1710 3822,3820z"/>
  <path class="fil2" d="M196481 90893c0,975 -790,1764 -1756,1764 -977,0 -1763,-789 -1763,-1764 0,-967 786,-1756 1763,-1756 966,0 1756,789 1756,1756z"/>
  <path class="fil5" d="M139255 93311c0,3554 -2881,6433 -6433,6433 -3551,0 -6435,-2879 -6435,-6433 0,-3551 2884,-6436 6435,-6436 3552,0 6433,2885 6433,6436z"/>
  <path class="fil6" d="M137448 93010c0,2833 -2296,5125 -5129,5125 -2831,0 -5126,-2292 -5126,-5125 0,-2830 2295,-5126 5126,-5126 2833,0 5129,2296 5129,5126z"/>
  <path class="fil1" d="M135538 92205c0,2110 -1714,3821 -3822,3821 -2112,0 -3820,-1711 -3820,-3821 0,-2111 1708,-3818 3820,-3818 2108,0 3822,1707 3822,3818z"/>
  <path class="fil2" d="M132221 91249c0,973 -791,1761 -1760,1761 -973,0 -1761,-788 -1761,-1761 0,-969 788,-1758 1761,-1758 969,0 1760,789 1760,1758z"/>
  <path class="fil7" d="M180183 15877c-3969,-3118 -7766,-3074 -11481,-1808 544,-3883 -124,-7625 -3931,-10939 -3880,-3377 -9857,-5476 -15341,1543 -5485,7015 522,18744 1398,22928 845,4040 -712,8749 -944,9217l-32 41c0,0 17,-15 19,-18 -2,3 -13,24 -13,24l32 -38c420,-318 4749,-2731 8881,-2661 4272,75 16918,3773 22780,-2931 5863,-6708 2680,-12182 -1368,-15358z"/>
  <path class="fil8" d="M177510 16152c-3231,-2524 -6446,-2319 -9637,-1079 622,-3372 217,-6563 -2871,-9257 -3138,-2752 -8103,-4306 -13038,1967 -4928,6278 -343,16137 222,19701 548,3447 -776,7339 -996,7752l-27 35c0,0 17,-9 19,-15 -2,6 -9,21 -9,21l28 -36c365,-290 3939,-2319 7427,-2431 3609,-114 14156,2542 19393,-3482 5236,-6024 2778,-10610 -511,-13176z"/>
  <path class="fil9" d="M176472 16548c-3046,-2378 -6082,-2186 -9098,-1012 586,-3185 202,-6199 -2710,-8746 -2696,-2364 -6827,-3773 -11063,466 -1716,4635 -1479,10857 6559,17056 5982,4613 10740,6390 14468,6591 851,-501 1642,-1122 2328,-1912 4945,-5685 2624,-10012 -484,-12443z"/>
  <path class="fil2" d="M150730 9455c0,0 3690,-6696 7580,-6619 3882,70 4750,3267 4750,3267 0,0 -7421,-2496 -12330,3352z"/>
  <path class="fil2" d="M168634 18156c0,0 3136,-3462 5438,-2873 2297,586 2365,2613 2365,2613 0,0 -4064,-2526 -7803,260z"/>
  <path class="fil3" d="M155128 36464c0,0 17852,-8931 27342,-3076 9499,5858 -24560,3752 -27342,3076z"/>
  <path class="fil1" d="M155058 36748c0,0 18248,-8077 27457,-1778 9209,6299 -24714,2588 -27457,1778z"/>
 </g>
</svg>
