<?xml version="1.0" encoding="UTF-8"?>
<!DOCTYPE svg PUBLIC "-//W3C//DTD SVG 1.1//EN" "http://www.w3.org/Graphics/SVG/1.1/DTD/svg11.dtd">
<!-- Creator: CorelDRAW X8 -->
<svg xmlns="http://www.w3.org/2000/svg" xml:space="preserve" width="0.32924in" height="0.329236in" version="1.1" style="shape-rendering:geometricPrecision; text-rendering:geometricPrecision; image-rendering:optimizeQuality; fill-rule:evenodd; clip-rule:evenodd"
viewBox="0 0 36 36"
 xmlns:xlink="http://www.w3.org/1999/xlink">
 <defs>
  <style type="text/css">
   <![CDATA[
    .fil0 {fill:black;fill-rule:nonzero}
   ]]>
  </style>
 </defs>
 <g id="Icons">
  <metadata id="CorelCorpID_0Corel-Layer"/>
  <path class="fil0" d="M36 18c0,1 -1,2 -1,3 0,1 0,1 0,1l0 0c0,1 -1,1 -1,2l0 0c0,1 0,2 -1,3 0,1 -1,2 -2,2l0 0c0,1 -1,1 -1,1 0,0 0,1 -1,1 0,1 -1,2 -2,2 -1,1 -2,1 -3,1l0 0c-1,0 -1,1 -2,1 0,0 0,0 -1,0 -1,0 -2,1 -3,1 -1,0 -2,-1 -3,-1 -1,0 -1,0 -2,0 0,0 0,-1 -1,-1 -1,0 -2,0 -3,-1 -1,0 -2,-1 -2,-2 -1,0 -1,-1 -1,-1l0 0c-1,0 -1,0 -1,-1 -1,0 -2,-1 -3,-2 0,-1 0,-2 -1,-3 0,-1 0,-1 0,-2l0 0c0,0 0,0 0,-1 -1,-1 -1,-2 -1,-3 0,-1 0,-2 1,-3 0,-1 0,-1 0,-2 0,0 0,0 0,-1 1,-1 1,-2 1,-3 1,-1 2,-2 3,-2 0,-1 0,-1 1,-1l0 0c0,-1 0,-1 1,-1 0,-1 1,-2 2,-3 1,0 2,0 3,-1 1,0 1,0 1,0 1,0 1,0 2,0 1,-1 2,-1 3,-1 1,0 2,0 3,1 1,0 1,0 1,0 1,0 1,0 2,0l0 0c1,1 2,1 3,1 1,1 2,2 2,3 1,0 1,0 1,1 0,0 1,0 1,1 1,0 2,1 2,2 1,1 1,2 1,3l0 0c0,1 1,1 1,1l0 0c0,1 0,1 0,2 0,1 1,2 1,3zm-3 2c0,0 1,-1 1,-2 0,-1 -1,-2 -1,-2 0,-1 0,-1 -1,-2l0 0c0,0 0,-1 0,-2l0 0c0,0 0,-1 -1,-2 0,-1 -1,-1 -1,-2 -1,0 -1,0 -1,-1l0 0c-1,0 -1,-1 -1,-1 -1,-1 -2,-1 -2,-2 -1,0 -2,0 -3,0l0 0c0,0 -1,0 -1,-1 -1,0 -1,0 -2,0 0,0 -1,-1 -2,-1 -1,0 -2,1 -2,1 -1,0 -1,0 -2,0 -1,1 -1,1 -2,1 0,0 -1,0 -2,0 -1,1 -1,1 -2,2 0,0 0,1 -1,1l0 0c0,1 -1,1 -1,1 -1,1 -1,1 -2,2 0,1 0,2 0,2 0,1 0,1 -1,2 0,1 0,1 0,2 0,0 -1,1 -1,2 0,1 1,2 1,2 0,1 0,1 0,2l0 0c1,0 1,1 1,1 0,1 0,2 0,3 1,0 1,1 2,1 0,1 1,1 1,1l0 1c1,0 1,0 1,1l0 0c1,0 1,1 2,1 1,1 2,1 2,1 1,0 1,0 2,0 1,1 1,1 2,1 0,0 1,1 2,1 1,0 2,-1 2,-1 1,0 1,0 2,-1 0,0 1,0 1,0l0 0c1,0 2,0 3,-1 0,0 1,-1 2,-1 0,-1 0,-1 1,-1l0 0c0,-1 0,-1 1,-1l0 0c0,-1 1,-2 1,-2 1,-1 1,-2 1,-3l0 0c0,0 0,-1 0,-1l0 0c1,-1 1,-1 1,-2z"/>
  <path class="fil0" d="M18 10c2,0 4,1 5,3l0 0c2,1 3,3 3,5 0,2 -1,4 -3,5l0 0c-1,2 -3,3 -5,3 -2,0 -4,-1 -5,-3l0 0c-2,-1 -3,-3 -3,-5 0,-2 1,-4 3,-5l0 0c1,-2 3,-3 5,-3zm4 4c-1,-1 -3,-1 -4,-1 -1,0 -3,0 -4,1 -1,1 -1,3 -1,4 0,1 0,3 1,4 1,1 3,1 4,1 1,0 3,0 4,-1l0 0c1,-1 1,-3 1,-4 0,-1 0,-3 -1,-4z"/>
  <path class="fil0" d="M11 21c-1,-1 -1,-1 0,-2 0,0 1,0 1,0 0,1 5,6 -3,13 0,0 -1,0 -1,0 -1,-1 -1,-2 0,-2 6,-5 3,-9 3,-9z"/>
  <path class="fil0" d="M10 17c0,-1 1,-1 1,-1 1,-1 1,0 1,1 0,0 1,7 -8,8 -1,1 -2,0 -2,0 0,-1 1,-2 1,-2 8,-1 7,-6 7,-6z"/>
  <path class="fil0" d="M12 13c0,-1 1,-1 1,-1 1,1 1,1 1,2 0,0 -3,7 -12,3 -1,0 -1,-1 -1,-1 0,-1 1,-1 2,-1 7,3 9,-2 9,-2z"/>
  <path class="fil0" d="M15 11c1,-1 1,-1 2,0 0,0 0,1 0,2 0,0 -6,4 -13,-4 0,0 0,-1 0,-1 1,-1 2,-1 2,0 5,6 9,3 9,3z"/>
  <path class="fil0" d="M19 10c1,0 1,1 2,1 0,1 -1,2 -2,2 0,0 -7,0 -8,-9 -1,-1 0,-2 0,-2 1,0 2,1 2,1 1,8 6,7 6,7z"/>
  <path class="fil0" d="M23 12c1,0 1,1 1,2 -1,0 -1,0 -2,0 0,0 -7,-3 -3,-12 0,-1 1,-1 1,-1 1,0 1,1 1,2 -3,7 2,9 2,9z"/>
  <path class="fil0" d="M25 15c1,1 1,2 0,2 0,0 -1,0 -2,0 0,0 -4,-6 4,-13 0,0 1,0 1,1 1,0 1,1 0,1 -6,5 -3,9 -3,9z"/>
  <path class="fil0" d="M26 19c0,1 -1,2 -1,2 -1,0 -1,-1 -2,-1 0,0 0,-8 9,-9 1,0 2,0 2,1 0,0 -1,1 -1,1 -8,1 -7,6 -7,6z"/>
  <path class="fil0" d="M24 23c0,1 -1,1 -1,1 -1,-1 -1,-1 -1,-2 0,0 3,-6 12,-3 1,0 1,1 1,1 0,1 -1,1 -2,1 -7,-3 -9,2 -9,2z"/>
  <path class="fil0" d="M21 25c-1,1 -2,1 -2,0 0,0 0,-1 0,-1 0,0 6,-5 13,3 0,0 0,1 -1,1 0,1 -1,1 -1,0 -5,-6 -9,-3 -9,-3z"/>
  <path class="fil0" d="M17 26c-1,0 -2,-1 -2,-1 0,-1 1,-1 1,-1 0,0 8,-1 9,8 0,1 0,2 -1,2 0,0 -1,-1 -1,-1 -1,-8 -6,-7 -6,-7z"/>
  <path class="fil0" d="M13 24c-1,0 -1,-1 -1,-1 1,-1 1,-1 2,-1 0,0 6,3 3,12 0,1 -1,1 -1,1 -1,0 -1,-1 -1,-2 3,-7 -2,-9 -2,-9z"/>
 </g>
</svg>
