<?xml version="1.0" encoding="UTF-8"?>
<!DOCTYPE svg PUBLIC "-//W3C//DTD SVG 1.1//EN" "http://www.w3.org/Graphics/SVG/1.1/DTD/svg11.dtd">
<!-- Creator: CorelDRAW X8 -->
<svg xmlns="http://www.w3.org/2000/svg" xml:space="preserve" width="0.39985in" height="0.317531in" version="1.1" style="shape-rendering:geometricPrecision; text-rendering:geometricPrecision; image-rendering:optimizeQuality; fill-rule:evenodd; clip-rule:evenodd"
viewBox="0 0 150 119"
 xmlns:xlink="http://www.w3.org/1999/xlink">
 <defs>
  <style type="text/css">
   <![CDATA[
    .fil0 {fill:black;fill-rule:nonzero}
   ]]>
  </style>
 </defs>
 <g id="Icons">
  <metadata id="CorelCorpID_0Corel-Layer"/>
  <path class="fil0" d="M71 31c0,-2 2,-4 4,-4 2,0 4,2 4,4l0 57c0,2 -2,4 -4,4 -2,0 -4,-2 -4,-4l0 -57z"/>
  <path class="fil0" d="M86 32c0,-2 1,-4 4,-5 2,0 4,1 4,4l9 57c0,2 -1,4 -3,4 -3,0 -5,-1 -5,-3l-9 -57z"/>
  <path class="fil0" d="M56 31c0,-3 2,-4 4,-4 2,1 4,3 3,5l-9 57c0,2 -2,3 -4,3 -2,0 -4,-2 -3,-4l9 -57z"/>
  <path class="fil0" d="M101 101c-2,0 -3,-2 -3,-4 0,-2 2,-4 4,-4 0,0 19,2 16,-7 -1,-2 1,-5 3,-5 2,-1 4,0 4,2 6,20 -23,18 -24,18z"/>
  <path class="fil0" d="M125 84c1,2 0,4 -2,4 -2,1 -5,0 -5,-3l-15 -63c-1,-2 0,-4 2,-5 2,0 5,1 5,3l15 64z"/>
  <path class="fil0" d="M110 20c1,2 0,4 -2,5 -2,1 -5,0 -5,-2 0,0 -4,-9 -13,-5 -1,1 -3,1 -4,0 0,0 -11,-7 -23,0 -1,1 -2,1 -3,1 0,0 -11,-4 -14,7 -1,2 -3,3 -5,3 -2,-1 -3,-3 -2,-5 4,-16 17,-14 22,-13 11,-6 23,-2 27,0 16,-7 22,9 22,9z"/>
  <path class="fil0" d="M38 24c1,-2 3,-4 5,-3 2,0 4,3 3,5l-14 59c0,2 -3,4 -5,3 -2,0 -3,-2 -3,-4l14 -60z"/>
  <path class="fil0" d="M25 83c0,-2 2,-3 4,-2 2,0 4,3 3,5 -3,10 17,7 17,7 1,0 2,1 2,1 0,0 13,8 21,2 2,-1 4,-1 5,0 1,0 12,6 22,-2 2,-1 4,-1 6,1 1,2 1,4 -1,5 -12,10 -24,6 -29,3 -10,6 -23,0 -26,-2 -6,1 -31,1 -24,-18z"/>
  <path class="fil0" d="M45 0c2,0 4,1 5,3 0,2 -1,4 -3,5 0,0 -5,0 -7,4 -1,2 -4,2 -5,1 -2,-1 -3,-3 -2,-5 4,-7 12,-8 12,-8z"/>
  <path class="fil0" d="M123 15c1,2 -1,4 -3,5 -2,0 -4,-1 -4,-3 0,0 -1,-5 -5,-6 -2,-1 -3,-4 -2,-6 1,-2 4,-2 6,-1 6,3 8,11 8,11z"/>
  <path class="fil0" d="M121 84c-3,0 -4,-3 -3,-5 0,-2 2,-3 4,-2 8,1 15,4 20,7 5,3 8,7 8,11 0,8 -9,14 -24,18 -13,4 -31,6 -51,6 -20,0 -38,-2 -51,-6 -15,-4 -24,-10 -24,-18 0,-4 3,-8 8,-11 4,-3 11,-5 19,-7 2,-1 4,0 4,3 1,2 0,4 -2,4 -7,2 -13,4 -17,6 -3,2 -4,4 -4,5 0,4 7,7 18,10 12,4 30,6 49,6 19,0 37,-2 49,-6 11,-3 18,-6 18,-10 0,-1 -2,-3 -4,-5 -4,-2 -10,-4 -17,-6z"/>
 </g>
</svg>
