<?xml version="1.0" encoding="UTF-8"?>
<!DOCTYPE svg PUBLIC "-//W3C//DTD SVG 1.1//EN" "http://www.w3.org/Graphics/SVG/1.1/DTD/svg11.dtd">
<!-- Creator: CorelDRAW X8 -->
<svg xmlns="http://www.w3.org/2000/svg" xml:space="preserve" width="0.388886in" height="0.308673in" version="1.1" style="shape-rendering:geometricPrecision; text-rendering:geometricPrecision; image-rendering:optimizeQuality; fill-rule:evenodd; clip-rule:evenodd"
viewBox="0 0 41 32"
 xmlns:xlink="http://www.w3.org/1999/xlink">
 <defs>
  <style type="text/css">
   <![CDATA[
    .fil0 {fill:black;fill-rule:nonzero}
   ]]>
  </style>
 </defs>
 <g id="Icons">
  <metadata id="CorelCorpID_0Corel-Layer"/>
  <path class="fil0" d="M24 6c0,-1 1,0 1,0 1,1 0,1 0,2l-12 6c0,1 -1,1 -1,0l-11 -6c-1,-1 -1,-1 -1,-2 0,0 1,-1 2,0l11 6 11 -6z"/>
  <path class="fil0" d="M23 10c1,0 1,0 2,1 0,0 0,1 -1,1l-11 7c0,0 -1,0 -1,0l-11 -7c-1,0 -1,-1 -1,-1 0,-1 1,-1 2,-1l11 7 10 -7z"/>
  <path class="fil0" d="M35 24c0,4 -3,7 -5,8 -1,0 -3,0 -4,0 -1,0 -2,0 -3,0 -3,-1 -5,-4 -5,-8 0,-4 2,-6 5,-7 1,0 2,-1 3,-1 1,0 3,1 4,1 3,1 5,3 5,7zm-6 6c2,-1 4,-3 4,-6 0,-3 -2,-4 -4,-5 -1,0 -2,-1 -3,-1 -1,0 -1,1 -2,1 -2,1 -4,3 -4,5 0,3 2,5 4,6 0,0 1,0 2,0 1,0 2,0 3,0z"/>
  <path class="fil0" d="M21 21c0,1 -1,1 -2,1 0,-1 0,-1 0,-2l1 -2c1,-1 2,-3 4,-5l0 0c0,-1 1,-1 1,-2 3,-5 6,-10 12,-7 5,2 3,7 2,10l0 1c-1,2 -2,5 -3,7l-1 2 -1 3c0,1 -1,1 -1,1 -1,0 -1,-1 -1,-1 1,-2 1,-4 2,-6 1,-2 2,-5 3,-7l0 0c1,-3 3,-7 -1,-9 -4,-2 -7,3 -9,7 -1,1 -1,1 -1,2l0 0c-1,2 -3,4 -4,5l-1 2z"/>
  <path class="fil0" d="M26 21c1,0 2,0 3,1 0,0 1,1 1,2 0,1 -1,2 -1,2 -1,1 -2,1 -3,1 -1,0 -2,0 -2,-1 -1,0 -1,-1 -1,-2 0,-1 0,-2 1,-2 0,-1 1,-1 2,-1zm1 2c0,0 0,0 -1,0 0,0 -1,0 -1,0 0,1 0,1 0,1 0,0 0,1 0,1 0,0 1,0 1,0 1,0 1,0 1,0 1,0 1,-1 1,-1 0,0 0,0 -1,-1z"/>
  <path class="fil0" d="M25 12c0,0 0,1 -1,1 0,0 -1,-1 -1,-1l0 -5 -10 -5 -11 5 0 8 11 7 9 -6c1,0 1,0 2,0 0,1 0,2 -1,2l-10 6 0 0c0,0 -1,0 -1,0l-11 -7c-1,0 -1,-1 -1,-1l0 -9c0,-1 0,-1 1,-1l11 -6c1,0 1,0 1,0l12 6c0,0 0,0 0,1l0 5z"/>
 </g>
</svg>
