<?xml version="1.0" encoding="UTF-8"?>
<!DOCTYPE svg PUBLIC "-//W3C//DTD SVG 1.1//EN" "http://www.w3.org/Graphics/SVG/1.1/DTD/svg11.dtd">
<!-- Creator: CorelDRAW X8 -->
<svg xmlns="http://www.w3.org/2000/svg" xml:space="preserve" width="0.244185in" height="0.340756in" version="1.1" style="shape-rendering:geometricPrecision; text-rendering:geometricPrecision; image-rendering:optimizeQuality; fill-rule:evenodd; clip-rule:evenodd"
viewBox="0 0 65 91"
 xmlns:xlink="http://www.w3.org/1999/xlink">
 <defs>
  <style type="text/css">
   <![CDATA[
    .fil0 {fill:black;fill-rule:nonzero}
   ]]>
  </style>
 </defs>
 <g id="Icons">
  <metadata id="CorelCorpID_0Corel-Layer"/>
  <path class="fil0" d="M28 24c-1,1 -3,1 -4,0 -1,-1 -1,-3 0,-4 5,-4 8,-7 12,-8 4,-1 8,1 12,5l0 0c2,2 11,11 -2,24 -1,1 -3,1 -4,0 -1,-1 -1,-3 0,-4 9,-9 4,-14 3,-16l-1 0c-3,-3 -5,-4 -7,-3 -3,0 -5,2 -9,6z"/>
  <path class="fil0" d="M42 37c1,-1 3,-1 4,0 1,1 1,3 0,4l-41 41c-1,1 -3,1 -4,0 -1,-1 -1,-3 0,-4l41 -41z"/>
  <path class="fil0" d="M0 80c1,-2 2,-3 4,-3 1,1 2,2 2,4 0,0 -1,5 5,5 2,0 3,1 3,2 0,2 -1,3 -3,3 -13,0 -11,-11 -11,-11z"/>
  <path class="fil0" d="M13 90c-1,2 -3,2 -4,0 -1,-1 -1,-2 0,-4l41 -40c1,-2 3,-2 4,0 1,1 1,2 0,4l-41 40z"/>
  <path class="fil0" d="M54 50c-1,1 -3,1 -4,0 -1,-2 -1,-3 0,-4 6,-6 9,-12 10,-17 0,-5 -2,-11 -7,-16l0 0c-6,-6 -11,-8 -16,-7 -6,0 -11,3 -17,9 0,1 -1,2 1,4l0 0c2,2 3,1 3,1 2,-1 3,-1 4,0 1,1 1,3 0,4 0,0 -5,5 -11,-1l0 0c-4,-5 -2,-10 -1,-11 0,0 0,0 0,-1 7,-6 14,-10 20,-11 7,-1 14,2 21,9l0 0c6,7 9,14 8,21 0,6 -4,13 -11,20z"/>
  <path class="fil0" d="M41 55c1,0 3,0 3,2 1,1 1,3 -1,3 0,0 -12,7 -21,2 -1,-1 -2,-3 -1,-4 1,-1 3,-2 4,-1 6,4 16,-2 16,-2z"/>
  <path class="fil0" d="M53 42c1,0 3,0 3,2 1,1 1,3 -1,3 0,0 -12,7 -20,2 -1,-1 -2,-3 -1,-4 1,-1 3,-2 4,-1 5,3 15,-2 15,-2z"/>
  <path class="fil0" d="M60 25c1,-1 3,-1 4,0 1,0 2,2 1,3 0,0 -8,12 -19,11 -1,0 -2,-1 -2,-3 0,-1 1,-2 3,-2 7,0 13,-9 13,-9z"/>
  <path class="fil0" d="M48 9c-1,-2 0,-3 1,-4 2,-1 3,0 4,2 0,0 4,11 -2,18 -1,1 -2,1 -4,0 -1,-1 -1,-3 0,-4 4,-4 1,-12 1,-12z"/>
  <path class="fil0" d="M28 9c-2,-1 -3,-2 -2,-4 0,-1 1,-2 3,-2 0,0 12,2 15,11 1,1 0,3 -2,4 -1,0 -3,-1 -3,-2 -2,-6 -11,-7 -11,-7z"/>
  <path class="fil0" d="M28 68c1,0 3,0 3,2 1,1 0,3 -1,3 0,0 -12,7 -21,2 -1,-1 -2,-3 -1,-4 1,-1 3,-2 4,-1 6,4 15,-2 16,-2z"/>
 </g>
</svg>
