<?xml version="1.0" encoding="UTF-8"?>
<!DOCTYPE svg PUBLIC "-//W3C//DTD SVG 1.1//EN" "http://www.w3.org/Graphics/SVG/1.1/DTD/svg11.dtd">
<!-- Creator: CorelDRAW X8 -->
<svg xmlns="http://www.w3.org/2000/svg" xml:space="preserve" width="5.19362in" height="5.11812in" version="1.1" style="shape-rendering:geometricPrecision; text-rendering:geometricPrecision; image-rendering:optimizeQuality; fill-rule:evenodd; clip-rule:evenodd"
viewBox="0 0 5196 5121"
 xmlns:xlink="http://www.w3.org/1999/xlink">
 <defs>
  <style type="text/css">
   <![CDATA[
    .fil13 {fill:#D2D3D5;fill-rule:nonzero}
    .fil16 {fill:#B1B3B5;fill-rule:nonzero}
    .fil15 {fill:#CCC2B2;fill-rule:nonzero}
    .fil23 {fill:#B8B0A2;fill-rule:nonzero}
    .fil34 {fill:#E77B37;fill-rule:nonzero}
    .fil35 {fill:#D57335;fill-rule:nonzero}
    .fil32 {fill:#D9503A;fill-rule:nonzero}
    .fil33 {fill:#BA4835;fill-rule:nonzero}
    .fil24 {fill:#C0333D;fill-rule:nonzero}
    .fil31 {fill:#942D33;fill-rule:nonzero}
    .fil27 {fill:#953632;fill-rule:nonzero}
    .fil28 {fill:#762E2B;fill-rule:nonzero}
    .fil25 {fill:#C53E3D;fill-rule:nonzero}
    .fil26 {fill:#943432;fill-rule:nonzero}
    .fil18 {fill:#C0834D;fill-rule:nonzero}
    .fil19 {fill:#A16F42;fill-rule:nonzero}
    .fil20 {fill:#9D6340;fill-rule:nonzero}
    .fil37 {fill:#87584B;fill-rule:nonzero}
    .fil2 {fill:#774E3E;fill-rule:nonzero}
    .fil21 {fill:#573733;fill-rule:nonzero}
    .fil22 {fill:#49302D;fill-rule:nonzero}
    .fil36 {fill:#3F2B28;fill-rule:nonzero}
    .fil1 {fill:#51413B;fill-rule:nonzero}
    .fil10 {fill:#4C3C36;fill-rule:nonzero}
    .fil14 {fill:#483331;fill-rule:nonzero}
    .fil17 {fill:#412E2D;fill-rule:nonzero}
    .fil38 {fill:#4A3A34;fill-rule:nonzero}
    .fil7 {fill:#453732;fill-rule:nonzero}
    .fil12 {fill:#413633;fill-rule:nonzero}
    .fil11 {fill:#3E3636;fill-rule:nonzero}
    .fil4 {fill:#3F3432;fill-rule:nonzero}
    .fil29 {fill:#61834B;fill-rule:nonzero}
    .fil30 {fill:#4C673D;fill-rule:nonzero}
    .fil6 {fill:#3C3535;fill-rule:nonzero}
    .fil5 {fill:#3E3431;fill-rule:nonzero}
    .fil0 {fill:#3A373A;fill-rule:nonzero}
    .fil9 {fill:#383231;fill-rule:nonzero}
    .fil3 {fill:#332F31;fill-rule:nonzero}
    .fil8 {fill:#302E31;fill-rule:nonzero}
   ]]>
  </style>
 </defs>
 <g id="Layer_x0020_1">
  <metadata id="CorelCorpID_0Corel-Layer"/>
  <path class="fil0" d="M1889 4066c0,44 36,80 80,80 44,0 80,-36 80,-80 0,-44 -36,-80 -80,-80 -44,0 -80,36 -80,80z"/>
  <path class="fil1" d="M615 3781c0,0 184,30 226,88 42,59 2,174 78,184 77,10 98,-76 69,-123 -28,-46 -51,-87 0,-109 52,-22 117,-41 180,-17 63,25 114,142 115,171 1,30 314,143 402,106 88,-37 595,-72 620,-63 24,10 14,-132 14,-132 0,0 -346,8 -473,-105 -126,-114 -216,-180 -309,-84 -93,97 -335,83 -261,-37 75,-119 -41,-189 -98,-112 -56,77 -172,123 -239,112 -67,-10 -211,-27 -211,-27l-161 88 48 60z"/>
  <path class="fil1" d="M686 2986c0,0 -141,94 -228,55 -88,-38 -219,67 -92,110 -50,145 -102,178 -211,154 -109,-24 -228,208 -98,243 130,35 130,-53 130,-53 0,0 220,216 341,151 121,-65 -102,-45 -162,-123 123,-21 123,-85 74,-113 -49,-27 -67,-81 -25,-105 43,-24 249,-130 249,-130l22 -189z"/>
  <path class="fil1" d="M2659 3986c0,0 822,-187 1002,-113 180,74 198,224 410,187 212,-36 40,-222 40,-222 0,0 -60,-134 141,-190 201,-56 212,-134 175,-211 -36,-77 -165,-75 -282,84 -117,159 -256,198 -403,167 -147,-30 -88,-180 -171,-205 -83,-25 -29,196 -172,208 -143,13 -185,-83 -185,-83l-555 378z"/>
  <path class="fil1" d="M1276 2736c0,66 54,120 120,120 66,0 120,-54 120,-120 0,-66 -54,-120 -120,-120 -66,0 -120,54 -120,120z"/>
  <path class="fil1" d="M1041 2986c0,46 37,82 82,82 45,0 82,-36 82,-82 0,-45 -37,-82 -82,-82 -45,0 -82,37 -82,82z"/>
  <path class="fil1" d="M936 2807c0,30 23,53 52,53 30,0 53,-23 53,-53 0,-29 -23,-52 -53,-52 -29,0 -52,23 -52,52z"/>
  <path class="fil1" d="M292 3216c0,82 66,148 148,148 82,0 148,-66 148,-148 0,-81 -66,-148 -148,-148 -82,0 -148,67 -148,148z"/>
  <path class="fil2" d="M208 3597c0,27 22,49 49,49 27,0 49,-22 49,-49 0,-27 -22,-49 -49,-49 -27,0 -49,22 -49,49z"/>
  <path class="fil1" d="M342 3597c0,27 22,49 49,49 27,0 49,-22 49,-49 0,-27 -22,-49 -49,-49 -27,0 -49,22 -49,49z"/>
  <path class="fil1" d="M697 3536c0,44 36,80 80,80 44,0 79,-36 79,-80 0,-44 -35,-80 -79,-80 -44,0 -80,36 -80,80z"/>
  <path class="fil1" d="M988 3713c0,38 31,68 68,68 37,0 67,-30 67,-68 0,-37 -30,-67 -67,-67 -37,0 -68,30 -68,67z"/>
  <path class="fil1" d="M939 3839c0,32 26,58 59,58 32,0 58,-26 58,-58 0,-32 -26,-58 -58,-58 -33,0 -59,26 -59,58z"/>
  <path class="fil1" d="M1205 3975c0,43 35,78 78,78 43,0 78,-35 78,-78 0,-43 -35,-78 -78,-78 -43,0 -78,35 -78,78z"/>
  <path class="fil1" d="M1395 3878c0,54 44,97 97,97 54,0 98,-43 98,-97 0,-54 -44,-97 -98,-97 -53,0 -97,43 -97,97z"/>
  <path class="fil1" d="M1606 3821c0,60 48,108 108,108 60,0 108,-48 108,-108 0,-59 -48,-108 -108,-108 -60,0 -108,49 -108,108z"/>
  <path class="fil1" d="M1713 3876c0,30 24,54 54,54 30,0 55,-24 55,-54 0,-30 -25,-55 -55,-55 -30,0 -54,25 -54,55z"/>
  <path class="fil1" d="M3364 3531c0,32 26,57 57,57 32,0 57,-25 57,-57 0,-31 -25,-57 -57,-57 -31,0 -57,26 -57,57z"/>
  <path class="fil1" d="M3518 3402c0,30 24,54 54,54 30,0 54,-24 54,-54 0,-29 -24,-53 -54,-53 -30,0 -54,24 -54,53z"/>
  <path class="fil1" d="M3626 4088c0,60 48,108 108,108 59,0 107,-48 107,-108 0,-59 -48,-107 -107,-107 -60,0 -108,48 -108,107z"/>
  <path class="fil1" d="M3772 3517c0,33 27,60 60,60 33,0 60,-27 60,-60 0,-34 -27,-61 -60,-61 -33,0 -60,27 -60,61z"/>
  <path class="fil1" d="M774 4218c0,-18 -15,-33 -33,-33 -19,0 -34,15 -34,33 0,19 15,34 34,34 18,0 33,-15 33,-34z"/>
  <path class="fil1" d="M772 4088c0,-38 -31,-69 -70,-69 -38,0 -69,31 -69,69 0,39 31,70 69,70 39,0 70,-31 70,-70z"/>
  <path class="fil1" d="M1283 4151c0,21 18,39 39,39 22,0 39,-18 39,-39 0,-22 -17,-39 -39,-39 -21,0 -39,17 -39,39z"/>
  <path class="fil1" d="M1446 4218c0,16 12,29 28,29 16,0 28,-13 28,-29 0,-15 -12,-28 -28,-28 -16,0 -28,13 -28,28z"/>
  <path class="fil3" d="M841 4151c0,43 35,78 78,78 43,0 79,-35 79,-78 0,-43 -36,-79 -79,-79 -43,0 -78,36 -78,79z"/>
  <path class="fil1" d="M583 4006c0,18 15,33 33,33 18,0 33,-15 33,-33 0,-18 -15,-33 -33,-33 -18,0 -33,15 -33,33z"/>
  <path class="fil1" d="M489 4072c0,26 21,47 47,47 26,0 47,-21 47,-47 0,-25 -21,-46 -47,-46 -26,0 -47,21 -47,46z"/>
  <path class="fil1" d="M1027 3928c0,23 18,41 40,41 23,0 41,-18 41,-41 0,-22 -18,-40 -41,-40 -22,0 -40,18 -40,40z"/>
  <path class="fil3" d="M696 3869c0,23 18,41 40,41 23,0 41,-18 41,-41 0,-22 -18,-40 -41,-40 -22,0 -40,18 -40,40z"/>
  <path class="fil1" d="M616 3845c0,14 11,24 24,24 13,0 24,-10 24,-24 0,-13 -11,-24 -24,-24 -13,0 -24,11 -24,24z"/>
  <path class="fil1" d="M292 3855c0,40 33,73 74,73 41,0 74,-33 74,-73 0,-41 -33,-74 -74,-74 -41,0 -74,33 -74,74z"/>
  <path class="fil1" d="M664 3305c0,21 17,38 38,38 22,0 39,-17 39,-38 0,-21 -17,-38 -39,-38 -21,0 -38,17 -38,38z"/>
  <path class="fil3" d="M950 3597c0,21 17,38 38,38 22,0 39,-17 39,-38 0,-21 -17,-38 -39,-38 -21,0 -38,17 -38,38z"/>
  <path class="fil1" d="M567 2904c0,27 22,49 48,49 27,0 49,-22 49,-49 0,-26 -22,-48 -49,-48 -26,0 -48,22 -48,48z"/>
  <path class="fil4" d="M1713 2686c0,0 -23,258 -267,267 -244,10 -426,-46 -510,0 -85,46 -141,159 -195,229 -55,70 -163,64 -125,0 38,-63 -24,-97 -49,-114 -25,-16 17,-142 161,-164 144,-21 246,53 348,-24 102,-78 334,-222 637,-194z"/>
  <path class="fil5" d="M455 3620c0,0 101,70 90,161 -10,90 -4,175 95,171 99,-3 -24,-231 -24,-231 0,0 61,-39 161,-8 99,32 173,-49 120,-116 -53,-67 -241,17 -330,0 -89,-18 -155,-109 -155,-109l-70 28 113 104z"/>
  <path class="fil1" d="M2350 3888c36,73 6,162 -67,198 -73,36 -162,6 -198,-67 -36,-73 -6,-162 67,-198 73,-36 161,-6 198,67z"/>
  <path class="fil6" d="M2164 4022c0,0 243,-115 360,-23 117,91 476,345 518,225 42,-120 -329,-166 -315,-238 15,-73 455,-268 554,-134 99,133 112,249 201,194 89,-55 -106,-280 21,-249 66,17 112,-13 124,-43 10,-27 -8,-54 -66,-46 -122,16 -210,98 -289,-1 -79,-100 -184,-338 -313,-159 -129,178 -348,491 -439,386 -91,-104 -15,-186 -119,-184 -104,2 -66,167 -237,272z"/>
  <path class="fil7" d="M2227 4129c0,0 97,-85 184,-197 75,-96 125,-220 309,-222 396,-4 340,-191 211,-208 -129,-16 -494,360 -655,366 -49,2 -86,-2 -115,-7 -68,-10 -89,-21 -99,51 -13,102 203,57 165,217z"/>
  <path class="fil8" d="M2917 1600c29,-11 419,-330 502,-244 137,141 153,28 142,-39 -12,-66 114,-170 211,-157 96,13 338,30 318,-45 -21,-75 -23,-104 -55,-103 -33,2 -294,103 -349,66 -55,-37 -115,-160 -167,-77 -52,83 -99,171 -163,137 -33,-18 -165,28 -286,73 -119,45 -227,89 -224,75 5,-27 71,314 71,314z"/>
  <path class="fil7" d="M2940 1473c0,0 417,-175 521,-190 105,-14 131,-8 150,-70 20,-62 141,-112 229,-119 88,-7 312,-7 376,-82 127,1 257,25 264,-31 7,-56 -7,-54 84,-73 92,-18 164,12 222,66 59,54 130,-3 133,-60 2,-58 -46,-113 -133,-126 -87,-14 -150,58 -276,68 -53,-44 67,-68 23,-110 -53,-50 -54,54 -80,87 -36,50 -110,104 -195,81 -85,-23 -42,-59 -24,-110 17,-51 -47,-113 -99,-30 -52,82 51,193 -89,174 -139,-20 -81,-6 -131,33 -50,39 -40,70 -117,60 -78,-11 -130,-74 -167,0 -37,73 -23,186 -104,179 -81,-7 -610,158 -610,158l23 95z"/>
  <path class="fil1" d="M4635 832c0,67 54,121 121,121 67,0 121,-54 121,-121 0,-67 -54,-122 -121,-122 -67,0 -121,55 -121,122z"/>
  <path class="fil7" d="M4494 659c0,34 27,61 61,61 34,0 61,-27 61,-61 0,-34 -27,-61 -61,-61 -34,0 -61,27 -61,61z"/>
  <path class="fil1" d="M4320 870c0,21 17,38 39,38 21,0 38,-17 38,-38 0,-21 -17,-39 -38,-39 -22,0 -39,18 -39,39z"/>
  <path class="fil1" d="M3969 1012c0,36 29,66 66,66 36,0 65,-30 65,-66 0,-36 -29,-66 -65,-66 -37,0 -66,30 -66,66z"/>
  <path class="fil1" d="M3815 880c0,43 35,77 77,77 42,0 77,-34 77,-77 0,-42 -35,-76 -77,-76 -42,0 -77,34 -77,76z"/>
  <path class="fil1" d="M3432 973c0,20 16,36 36,36 21,0 37,-16 37,-36 0,-21 -16,-37 -37,-37 -20,0 -36,16 -36,37z"/>
  <path class="fil1" d="M3631 1170c0,51 41,92 92,92 51,0 92,-41 92,-92 0,-51 -41,-92 -92,-92 -51,0 -92,41 -92,92z"/>
  <path class="fil7" d="M4503 1041c0,29 23,52 52,52 29,0 52,-23 52,-52 0,-29 -23,-52 -52,-52 -29,0 -52,23 -52,52z"/>
  <path class="fil1" d="M4083 856c0,29 23,52 52,52 29,0 52,-23 52,-52 0,-29 -23,-52 -52,-52 -29,0 -52,23 -52,52z"/>
  <path class="fil1" d="M4113 1078c0,20 17,37 37,37 21,0 37,-17 37,-37 0,-21 -16,-37 -37,-37 -20,0 -37,16 -37,37z"/>
  <path class="fil8" d="M2874 1103c0,23 19,42 43,42 23,0 42,-19 42,-42 0,-23 -19,-42 -42,-42 -24,0 -43,19 -43,42z"/>
  <path class="fil1" d="M4533 908c0,0 109,-83 169,67 60,150 86,223 154,185 67,-37 28,-201 -19,-252 -47,-51 -165,-143 -304,0z"/>
  <path class="fil1" d="M4376 4600c0,0 -296,285 -456,288 -160,3 -314,-237 -441,-173 -126,63 -314,175 -372,83 -57,-92 45,-105 54,-154 10,-48 -99,-153 89,-190 188,-37 227,66 405,99 179,32 249,64 348,32 99,-32 242,-110 242,-110l131 125z"/>
  <path class="fil9" d="M4253 3417c-18,11 -37,25 -55,43 19,-12 39,-26 55,-43z"/>
  <path class="fil1" d="M4158 3577c0,16 13,29 29,29 16,0 29,-13 29,-29 0,-16 -13,-29 -29,-29 -16,0 -29,13 -29,29z"/>
  <path class="fil1" d="M4009 3502c0,25 20,46 45,46 26,0 46,-21 46,-46 0,-25 -20,-46 -46,-46 -25,0 -45,21 -45,46z"/>
  <path class="fil1" d="M4347 3548c0,53 44,97 97,97 53,0 97,-44 97,-97 0,-54 -44,-97 -97,-97 -53,0 -97,43 -97,97z"/>
  <path class="fil1" d="M4480 3764c0,28 22,50 50,50 28,0 51,-22 51,-50 0,-28 -23,-51 -51,-51 -28,0 -50,23 -50,51z"/>
  <path class="fil1" d="M4650 3674c0,38 30,69 68,69 38,0 68,-31 68,-69 0,-38 -30,-68 -68,-68 -38,0 -68,30 -68,68z"/>
  <path class="fil1" d="M4697 3611c0,35 28,63 63,63 35,0 63,-28 63,-63 0,-35 -28,-63 -63,-63 -35,0 -63,28 -63,63z"/>
  <path class="fil1" d="M4860 3857c0,46 38,84 84,84 47,0 84,-38 84,-84 0,-47 -37,-84 -84,-84 -46,0 -84,37 -84,84z"/>
  <path class="fil1" d="M4860 4112c0,32 26,59 59,59 32,0 59,-27 59,-59 0,-33 -27,-59 -59,-59 -33,0 -59,26 -59,59z"/>
  <path class="fil1" d="M4594 4225c0,30 24,54 54,54 30,0 54,-24 54,-54 0,-30 -24,-54 -54,-54 -30,0 -54,24 -54,54z"/>
  <path class="fil1" d="M4480 4475c0,28 22,51 50,51 28,0 51,-23 51,-51 0,-28 -23,-50 -51,-50 -28,0 -50,22 -50,50z"/>
  <path class="fil1" d="M4090 4661c0,75 60,136 135,136 76,0 136,-61 136,-136 0,-75 -60,-135 -136,-135 -75,0 -135,60 -135,135z"/>
  <path class="fil1" d="M3892 4868c0,40 32,72 71,72 40,0 72,-32 72,-72 0,-39 -32,-71 -72,-71 -39,0 -71,32 -71,71z"/>
  <path class="fil1" d="M3784 4560c0,74 61,135 135,135 75,0 135,-61 135,-135 0,-75 -60,-135 -135,-135 -74,0 -135,60 -135,135z"/>
  <path class="fil10" d="M3600 4765c0,57 46,103 103,103 57,0 104,-46 104,-103 0,-57 -47,-104 -104,-104 -57,0 -103,47 -103,104z"/>
  <path class="fil1" d="M3715 4446c0,20 15,36 35,36 20,0 36,-16 36,-36 0,-19 -16,-35 -36,-35 -20,0 -35,16 -35,35z"/>
  <path class="fil10" d="M4819 4406c0,33 26,59 58,59 33,0 59,-26 59,-59 0,-32 -26,-59 -59,-59 -32,0 -58,27 -58,59z"/>
  <path class="fil1" d="M4082 4359c-3,26 16,50 42,52 27,2 50,-17 52,-43 3,-26 -16,-49 -43,-52 -26,-2 -49,17 -51,43z"/>
  <path class="fil1" d="M4279 4762c0,55 45,100 101,100 55,0 100,-45 100,-100 0,-56 -45,-101 -100,-101 -56,0 -101,45 -101,101z"/>
  <path class="fil1" d="M4650 4586c0,14 12,26 26,26 14,0 26,-12 26,-26 0,-15 -12,-26 -26,-26 -14,0 -26,11 -26,26z"/>
  <path class="fil1" d="M4760 3804c0,0 122,42 100,166 -22,125 -139,265 -261,231 -122,-33 -206,-19 -185,62 21,82 91,40 167,16 76,-24 88,69 41,121 -47,53 -121,75 -121,75 0,0 76,55 175,-9 99,-63 121,-190 184,-279 63,-90 122,-186 168,-195 47,-10 43,-111 43,-111l-311 -77z"/>
  <path class="fil11" d="M4741 4318c0,0 -36,237 -173,268 -137,31 -204,11 -264,75 -60,65 -65,115 -117,207 -52,93 -164,51 -133,-40 32,-92 132,-65 133,-133 1,-68 -164,-85 -224,-54 -60,32 -134,9 -122,-55 13,-64 206,21 284,-60 77,-82 234,-54 236,-127 3,-74 38,-109 101,-134 64,-25 282,-39 279,53z"/>
  <path class="fil1" d="M4480 3725c0,0 83,132 217,132 134,0 179,65 247,113 69,48 105,19 169,32 63,13 121,-89 52,-163 -68,-74 -208,-99 -295,-121 -87,-23 -289,-44 -289,-44l-101 51z"/>
  <path class="fil12" d="M4100 3775c0,0 201,-108 280,-32 79,75 84,159 163,133 79,-27 -61,-100 0,-147 61,-46 125,-23 175,-16 50,8 68,29 82,62 15,32 112,6 70,-57 -42,-64 -166,-192 -276,-93 -111,100 -165,60 -150,21 15,-39 107,-52 97,-98 -11,-47 -83,21 -134,6 -51,-16 -191,57 -191,57l-116 164z"/>
  <path class="fil1" d="M4032 3743c0,53 44,96 97,96 53,0 96,-43 96,-96 0,-54 -43,-97 -96,-97 -53,0 -97,43 -97,97z"/>
  <path class="fil1" d="M5022 4379l1 0c9,5 19,13 29,14 11,0 22,-35 22,-40 1,-17 0,-34 6,-52 6,-20 15,-38 12,-60 -2,-14 -5,-29 -4,-44 1,-33 28,-67 25,-100l-1 -3c0,-1 0,-3 0,-4l0 -1c-1,-1 -1,-3 -1,-5l-1 -2c-2,-9 -7,-16 -15,-20 -1,-1 -3,-2 -5,-3 -24,5 -45,18 -57,37 -35,55 -48,187 -29,253 4,12 10,22 18,30z"/>
  <path class="fil13" d="M3781 2078c-2,13 -5,26 -9,38 -38,113 -169,143 -264,169 -157,42 -314,66 -474,90 -170,25 -331,45 -503,23 -91,-12 -181,-24 -273,-31 -78,-5 -161,-7 -237,-29 -85,-24 -228,-40 -273,-137 -8,-18 -12,-37 -12,-58 -18,25 -25,53 -14,95 172,625 260,680 331,692 321,58 1315,-42 1420,-42 80,-1 160,-37 319,-649 25,-96 29,-131 -11,-161z"/>
  <path class="fil14" d="M2211 2717c8,-91 -49,-177 -59,-272 -3,-27 -3,-55 0,-82 -78,-4 -123,-17 -155,-24 20,58 18,124 -4,183 -11,28 -29,136 -18,155 47,85 192,102 236,40z"/>
  <path class="fil14" d="M2828 2401c1,112 -54,316 44,392 83,64 160,4 182,-110 21,-113 -50,-221 -73,-300l-153 18z"/>
  <path class="fil14" d="M3347 2323c21,12 -79,317 40,339 119,22 164,-52 180,-131 16,-79 5,-259 -1,-262 -7,-2 -172,47 -219,54z"/>
  <path class="fil15" d="M1769 2403c-1,-6 -3,-12 -5,-18l0 0c2,6 4,12 5,18z"/>
  <path class="fil16" d="M3095 2587c-14,0 -29,-1 -43,-2 -6,-30 -15,-59 -26,-86 7,0 14,0 21,0 5,0 10,0 15,0 77,-3 141,-37 209,-67 23,-9 46,-18 70,-25 -5,31 -10,66 -12,101 -16,8 -32,16 -47,25 -56,30 -106,51 -171,54 -5,0 -11,0 -16,0zm-608 -14c-107,0 -213,-19 -312,-59 -4,-1 -7,-3 -10,-4 -6,-21 -11,-43 -13,-65 -1,-7 -1,-14 -2,-21 100,55 195,108 306,108 19,0 39,-2 60,-5 55,-10 108,-35 161,-52 27,-9 54,-12 81,-12 22,0 44,2 66,6 -2,22 -4,46 -6,70 -4,0 -8,-1 -12,-1 -6,0 -13,0 -19,0 -95,0 -188,33 -283,35 -6,0 -12,0 -17,0zm1145 -79c-19,0 -39,-2 -59,-4 2,-23 2,-49 2,-75 6,1 11,2 16,2 21,3 44,5 66,5 29,0 59,-3 88,-10 -6,23 -13,44 -19,64 -4,2 -8,4 -13,6 -26,9 -53,12 -81,12zm-1836 -6c-9,-27 -18,-55 -27,-85 -1,-6 -3,-12 -5,-18 23,-3 48,-8 77,-15 33,-9 67,-12 98,-12 24,0 46,2 65,5 7,30 9,61 5,92 -24,-5 -48,-9 -74,-9 -1,0 -2,0 -2,0 -49,0 -97,15 -137,42z"/>
  <path class="fil17" d="M2165 2510c-51,-21 -102,-43 -156,-55 4,-31 2,-62 -5,-92 23,3 40,7 46,10 34,14 66,32 98,50 1,0 2,1 2,1 1,7 1,14 2,21 2,22 7,44 13,65z"/>
  <path class="fil17" d="M3052 2585c-78,-9 -155,-40 -234,-46 2,-24 4,-48 6,-70 16,2 31,5 47,8 51,9 103,19 155,22 11,27 20,56 26,86z"/>
  <path class="fil17" d="M3329 2508c2,-35 7,-70 12,-101 22,-6 45,-10 68,-11 6,-1 12,-1 17,-1 51,0 100,12 149,20 0,26 0,52 -2,75 -11,-1 -21,-2 -32,-3 -30,-4 -61,-8 -91,-8 -15,0 -31,1 -46,4 -27,4 -51,14 -75,25z"/>
  <path class="fil18" d="M3128 2866c-296,46 -560,56 -811,21 -251,-36 -395,-89 -403,-74 257,716 784,2182 807,2245 30,84 86,83 119,-1 26,-65 568,-1650 803,-2334 -21,12 -218,97 -515,143z"/>
  <path class="fil15" d="M2499 4441c0,0 0,0 0,0 -2,-6 -4,-11 -6,-17 2,6 4,11 6,17zm-570 -1586c-5,-14 -10,-28 -15,-42l0 0c5,14 10,28 15,42z"/>
  <path class="fil19" d="M2779 5121c-22,0 -43,-21 -58,-63l0 0c-5,-12 -30,-81 -68,-188 15,7 36,10 60,10 60,0 134,-19 159,-38 35,-26 119,-273 138,-318 8,-20 9,-41 -16,-41 -10,0 -24,3 -42,11 -40,16 -78,21 -117,21 -41,0 -82,-5 -126,-7 -31,-1 -63,-29 -94,-31 -11,-4 -22,-8 -32,-11 -27,-11 -56,-17 -84,-25 -2,-6 -4,-11 -6,-17 -5,-13 -9,-26 -14,-39 18,5 36,9 54,12 64,11 128,21 192,21 54,0 108,-7 160,-28 84,-33 145,-100 183,-181 41,-85 65,-173 86,-263 17,-70 40,-123 -40,-131 -21,-2 -44,-3 -67,-3 -113,0 -243,20 -347,23 -11,0 -22,1 -33,1 -121,0 -248,-21 -361,-63 -16,-6 -32,-13 -47,-19 -3,-1 -5,-2 -8,-2l-12 -35c13,0 25,1 38,1 41,0 79,-2 106,-3 184,-5 380,-1 560,-34 118,-21 236,-49 309,-147 41,-56 46,-177 66,-242 20,-65 34,-134 39,-202 8,-105 -85,-123 -167,-123 -12,0 -23,1 -34,1 -175,8 -378,33 -553,35 -6,0 -12,0 -18,0 -242,0 -506,-55 -654,-142 -1,-2 -1,-4 -2,-6 -5,-14 -10,-28 -15,-42 1,-2 4,-3 8,-3 35,0 173,45 395,77 102,14 206,21 313,21 158,0 322,-15 498,-42 297,-46 494,-131 515,-143 -69,200 -163,476 -264,769 -5,15 -10,30 -15,44 -22,65 -45,131 -67,196 -12,34 -23,68 -35,101 -208,606 -407,1185 -422,1224 -17,43 -39,64 -61,64z"/>
  <path class="fil20" d="M3654 2688c-55,15 -325,110 -409,128 -171,38 -318,51 -493,62 -158,10 -379,-20 -534,-45 -115,-18 -230,-10 -325,-83 -11,-25 -37,-13 -42,18 -1,5 -3,16 0,22 72,138 671,179 830,177 180,-3 447,-47 622,-85 85,-18 298,-119 367,-138 37,-10 21,-67 -16,-56z"/>
  <path class="fil20" d="M3314 3618c-56,60 -138,80 -216,95 -92,17 -187,28 -280,40 -110,14 -220,16 -331,2 -74,-10 -182,-4 -240,-58 -27,-25 -67,15 -40,40 59,55 148,60 225,68 131,14 255,19 386,4 98,-11 197,-25 295,-42 88,-15 179,-43 241,-109 25,-27 -15,-67 -40,-40z"/>
  <path class="fil20" d="M3059 4357c-46,78 -174,87 -255,92 -105,7 -222,2 -313,-57 -31,-20 -59,29 -28,49 106,69 244,73 368,63 96,-7 224,-28 277,-119 18,-32 -31,-60 -49,-28z"/>
  <path class="fil20" d="M2881 4848c-26,53 -181,67 -207,9 -15,-33 -64,-4 -49,29 44,98 261,79 305,-10 16,-33 -33,-61 -49,-28z"/>
  <path class="fil21" d="M3767 1271c-198,-520 -751,-637 -1111,-626 -361,10 -780,218 -958,623 -177,405 -79,846 189,1011 95,59 478,187 824,177 345,-10 679,-176 783,-216 338,-129 430,-554 273,-969z"/>
  <path class="fil22" d="M2238 1952c-10,-3 -20,-6 -30,-10 -2,-1 -3,-1 -5,-2 2,-1 4,-2 6,-4 21,-14 27,-38 27,-63 0,-29 -8,-61 -12,-83 -14,-68 -36,-135 -52,-203 -6,-23 -8,-48 -8,-72 0,-111 50,-229 88,-327 42,-105 80,-221 175,-292l0 0c2,-1 4,-3 7,-5 0,0 0,0 0,0 0,0 0,0 0,0 17,-12 39,-23 61,-30 0,0 0,0 0,0 20,-7 41,-11 61,-11 14,0 27,2 39,6 0,0 -1,0 -1,0l3 1c22,9 41,16 60,16 17,0 34,-6 52,-21l0 0c19,-17 28,-39 57,-40l0 0c1,0 2,0 3,0 24,0 49,8 72,14 3,1 6,2 9,3 -5,0 -9,0 -14,0 -19,0 -39,2 -58,5 -19,4 -57,55 -105,55 -11,0 -22,-3 -34,-9 -24,-13 -62,-22 -95,-22 -22,0 -41,4 -52,14 -37,30 -72,62 -100,101 -66,93 -100,203 -136,310 -20,60 -39,117 -42,181 -3,68 12,136 29,201 15,60 38,119 44,181 3,25 2,53 -10,77 -7,15 -22,23 -39,29zm905 -420c-31,0 -50,-42 -58,-66 -2,-4 -4,-8 -7,-12 1,-5 2,-10 4,-15 1,-4 2,-7 3,-11 8,13 18,22 30,28 0,0 0,0 0,0 0,0 0,0 0,0 0,0 0,0 0,0 0,0 0,0 1,0 0,0 0,0 0,0 0,0 0,0 0,0 0,0 0,0 0,0 0,0 0,0 0,0 2,1 4,1 6,2 3,1 6,1 8,1 28,0 45,-38 53,-59 6,-18 9,-36 9,-53 0,-40 -14,-78 -30,-116 -30,-71 -53,-145 -69,-220 -7,-35 -13,-72 -13,-108 0,-6 0,-13 0,-19l0 0c0,0 0,0 0,0 1,-13 4,-22 9,-27 0,0 0,0 0,0 3,-3 8,-5 14,-5 3,0 6,1 10,1l0 0c5,2 10,3 16,6 59,22 107,66 167,84 8,2 14,3 20,3 32,0 43,-29 43,-59 14,0 28,2 42,2 16,0 31,-2 46,-9 0,0 0,0 0,0 6,-3 11,-8 14,-12 17,13 35,26 51,40 -51,30 -130,14 -165,73 -9,14 -6,23 -20,23 -2,0 -5,0 -9,-1 -23,-3 -44,-17 -63,-30 -33,-21 -61,-49 -94,-69 -5,-4 -11,-5 -17,-5 -19,0 -37,17 -36,37 3,70 25,136 42,203 18,68 59,126 78,193 15,54 9,108 -19,157 -13,22 -37,40 -62,43 -2,0 -3,0 -4,0zm-1127 -565c-21,0 -34,-20 -43,-44l0 -17c3,-3 7,-6 10,-9 0,5 -1,9 0,14l0 0c1,21 16,29 33,29 7,0 13,-1 19,-3 42,-15 117,-100 174,-107 -1,0 -1,0 -1,0 3,0 5,0 8,0 10,0 20,3 29,10 5,5 10,10 13,15 -6,-2 -13,-3 -20,-3 -52,0 -94,56 -133,83 -22,16 -58,29 -84,32 -2,0 -3,0 -5,0z"/>
  <path class="fil22" d="M1704 2083c-104,-186 -128,-447 -47,-705 -3,43 15,277 49,345 28,126 96,249 232,346 -29,-5 -59,-7 -88,-7 -1,0 -2,0 -3,0 -43,0 -94,7 -143,21z"/>
  <path class="fil23" d="M3767 1271c0,0 0,0 -1,0 1,0 1,0 1,0zm-1 -1c0,0 0,0 0,0 0,0 0,0 0,0z"/>
  <path class="fil22" d="M3647 2072c-40,0 -77,-5 -120,-16 62,-39 121,-82 158,-125 220,-256 47,-684 49,-735 12,24 22,48 32,74 0,0 0,0 0,0 0,0 0,0 0,1 1,0 1,0 1,0l0 0c49,131 74,264 74,387 0,158 -40,301 -121,410 -8,1 -16,1 -24,2 -17,1 -33,2 -49,2z"/>
  <path class="fil21" d="M3875 2112c-41,-49 -121,-47 -179,-42 -63,5 -111,2 -173,-16 -70,-19 -140,-33 -212,-23 -120,16 -224,95 -346,95 -57,0 -115,-23 -168,-40 -64,-20 -129,-35 -197,-34 -125,1 -235,76 -359,80 -62,2 -127,-22 -187,-38 -67,-19 -136,-32 -207,-32 -85,0 -198,27 -266,82 -78,64 -69,169 20,220 40,23 100,41 240,6 91,-23 191,-5 209,3 34,14 66,32 98,50 118,65 229,128 368,104 55,-10 108,-35 161,-52 65,-20 128,-11 194,2 63,12 126,24 191,22 77,-3 141,-37 209,-67 45,-19 90,-34 138,-36 62,-4 122,13 182,21 125,18 277,-10 321,-147 20,-59 3,-112 -37,-158z"/>
  <path class="fil23" d="M1706 2390c-50,0 -81,-12 -105,-26 -12,-7 -23,-15 -32,-24 9,9 20,17 32,24 24,14 55,26 105,26 17,0 36,-2 58,-5l0 0c-22,3 -41,5 -58,5z"/>
  <path class="fil23" d="M3913 2270c0,0 0,0 0,0 0,0 0,0 0,0zm0 0c0,0 0,-1 0,-1 0,0 0,1 0,1zm0 -1c0,0 0,0 0,0 0,0 0,0 0,0z"/>
  <path class="fil22" d="M2456 2532c-111,0 -206,-53 -306,-108 0,0 -1,-1 -2,-1 -32,-18 -64,-36 -98,-50 -6,-3 -23,-7 -46,-10 -19,-3 -41,-5 -65,-5 -31,0 -65,3 -98,12 -29,7 -54,12 -77,15l0 0c-22,3 -41,5 -58,5 -50,0 -81,-12 -105,-26 -12,-7 -23,-15 -32,-24 -56,-54 -55,-136 6,-191 12,50 52,84 107,98 31,8 63,10 96,10 40,0 80,-3 118,-4 3,0 6,0 8,0 129,0 251,74 365,126 79,35 152,53 229,53 40,0 80,-5 123,-14 71,-15 136,-36 209,-37 1,0 3,0 4,0 31,0 61,3 92,5 30,3 61,5 92,5 11,0 21,0 32,-1 67,-4 134,-23 199,-37 49,-11 96,-16 143,-16 27,0 54,1 82,5 48,6 95,11 142,11 71,0 139,-13 202,-60 41,-30 72,-70 96,-113 9,28 9,57 -1,89 0,0 0,0 0,0 0,0 0,0 0,0 0,0 0,1 0,1 0,0 0,0 0,0 0,0 0,0 0,0 -1,0 -1,0 -1,0l0 0c-37,114 -147,152 -255,152 -22,0 -45,-2 -66,-5 -5,0 -10,-1 -16,-2 -49,-8 -98,-20 -149,-20 -5,0 -11,0 -17,1 -23,1 -46,5 -68,11 -24,7 -47,16 -70,25 -68,30 -132,64 -209,67 -5,0 -10,0 -15,0 -7,0 -14,0 -21,0 -52,-3 -104,-13 -155,-22 -16,-3 -31,-6 -47,-8 -22,-4 -44,-6 -66,-6 -27,0 -54,3 -81,12 -53,17 -106,42 -161,52 -21,3 -41,5 -60,5z"/>
  <path class="fil24" d="M3441 785c-32,-38 -103,-47 -147,-59 -75,-20 -145,-59 -217,-86 -141,-54 -302,-60 -452,-57 -95,2 -193,16 -279,57 -2,0 -4,1 -5,2l-1 1c-22,11 -44,24 -64,39 -37,22 -76,43 -116,58 -48,18 -96,35 -132,73 -22,22 -47,66 -45,98 1,28 30,33 52,26 52,-19 155,-144 210,-97 57,49 -6,136 -34,182 -34,57 -57,122 -77,185 -37,114 -52,234 -63,353 -10,93 -18,192 12,283 13,38 74,128 126,93 44,-29 23,-104 15,-146 -14,-68 -36,-135 -52,-203 -31,-130 33,-280 80,-399 42,-105 80,-221 175,-292 42,-31 118,-60 170,-39 43,17 74,27 112,-5 19,-17 28,-39 57,-40 25,0 51,8 75,14 59,17 104,44 136,96 59,94 59,220 70,327 6,52 9,193 75,209 33,8 53,-35 61,-58 20,-59 2,-114 -21,-169 -30,-71 -53,-145 -69,-220 -9,-41 -15,-84 -13,-127 2,-36 19,-37 49,-25 59,22 107,66 167,84 47,14 63,-20 63,-56 30,1 60,6 88,-7 38,-19 12,-74 -6,-95z"/>
  <path class="fil25" d="M3016 182c0,-1 -139,-136 -311,-119 -123,11 -292,393 -325,503 -13,40 -10,75 3,104 7,2 13,5 17,7 30,17 63,21 97,23 38,2 75,2 113,5 38,2 77,6 115,2 38,-3 74,-16 112,-22 18,-3 36,-6 55,-4 14,1 28,4 41,4 102,-58 184,-140 198,-243 20,-141 -115,-260 -115,-260z"/>
  <path class="fil26" d="M2973 581c0,-1 25,-28 37,-40 11,-10 27,4 26,17 -1,13 -10,22 -22,27 -7,2 -37,6 -40,2l0 0c-3,0 -3,-4 -1,-6z"/>
  <path class="fil26" d="M2912 451c16,-4 32,5 28,23 -4,15 -20,20 -34,24 -9,3 -31,7 -38,-3 -2,-2 -1,-5 1,-7 0,0 26,-33 43,-37z"/>
  <path class="fil26" d="M2472 655c10,-2 20,4 17,15 -2,10 -12,13 -21,15 -6,2 -20,5 -24,-2 -1,-1 -1,-3 0,-4 1,0 17,-21 28,-24z"/>
  <path class="fil26" d="M2791 369c7,-8 16,-16 25,-24 7,-6 20,-19 31,-15 14,6 7,26 0,34 -14,14 -56,16 -56,16 -3,-3 -4,-7 0,-11z"/>
  <path class="fil26" d="M2753 242c8,-7 18,-16 29,-12 17,5 7,30 -1,38 -11,12 -36,21 -51,11 -3,-2 16,-30 23,-37z"/>
  <path class="fil26" d="M2677 185c2,-6 24,-22 30,-26 10,-7 25,-12 36,-2 4,3 5,9 2,14 -9,14 -70,24 -68,17l0 -3z"/>
  <path class="fil26" d="M2703 102c2,-1 3,-2 5,-2l1 -1c14,-5 31,-15 46,-5 3,2 3,7 1,10 -6,9 -15,11 -26,11 -4,0 -27,-7 -27,-8 -2,-1 -1,-4 0,-5z"/>
  <path class="fil26" d="M3103 488c9,6 -1,23 -4,29 -5,9 -12,22 -21,27 -5,3 -1,-12 1,-17 2,-6 10,-47 24,-39z"/>
  <path class="fil26" d="M2865 583c5,-3 11,-4 17,-5 11,-1 24,2 27,14 2,14 -12,23 -23,26 -7,2 -14,1 -21,1 -3,0 -18,-2 -21,-5l0 -1c-3,-4 14,-25 21,-30z"/>
  <path class="fil26" d="M2749 473c5,-7 8,-16 13,-23 5,-5 11,-8 17,-10 11,-3 26,-2 27,12 2,13 -9,20 -19,25 -7,3 -46,6 -38,-4z"/>
  <path class="fil26" d="M2686 373l0 -3c3,-4 16,-21 21,-26 9,-9 21,-10 32,-3 4,3 4,9 1,13 -9,16 -44,29 -46,29 -4,0 -7,-2 -8,-5 -2,-1 -2,-3 0,-5z"/>
  <path class="fil26" d="M2654 260c5,-8 15,-19 25,-12 10,6 6,20 0,28 -6,8 -30,26 -31,25 -2,0 -5,-2 -5,-6 -1,-12 4,-25 11,-35z"/>
  <path class="fil26" d="M2628 160c10,6 7,22 3,30 -4,7 -25,26 -26,27 -2,1 -2,-33 0,-42 3,-9 13,-21 23,-15z"/>
  <path class="fil26" d="M2857 251c8,-3 21,-3 26,6 7,16 -54,21 -52,16 5,-11 15,-18 26,-22z"/>
  <path class="fil26" d="M2385 618c2,-9 9,-20 19,-18 17,3 -12,56 -15,52 -6,-11 -7,-23 -4,-34z"/>
  <path class="fil26" d="M2943 351c3,-3 8,-7 12,-7 5,1 9,5 8,10 -2,13 -3,18 -14,24 -3,1 -34,2 -34,-2 0,-1 24,-21 28,-25z"/>
  <path class="fil26" d="M2908 683c2,0 4,0 6,1 15,-1 38,-6 38,-23 3,-4 -3,-11 -8,-7 -4,2 -32,23 -35,23 -2,1 -3,4 -1,6z"/>
  <path class="fil26" d="M2696 605c-3,-6 23,-19 32,-25 11,-8 23,-6 34,1 4,2 4,6 3,9 -4,15 -18,20 -31,21 -6,1 -36,0 -38,-6z"/>
  <path class="fil26" d="M2633 491c-2,2 0,-1 1,-1 1,-2 2,-4 4,-6 3,-5 6,-10 10,-15 5,-7 14,-19 25,-16 11,3 9,23 4,31 -5,6 -11,11 -19,14 -4,1 -33,0 -25,-7z"/>
  <path class="fil26" d="M2577 388c2,-7 6,-12 11,-17 8,-8 25,-17 33,-4 6,12 -3,23 -11,31 -10,11 -23,19 -35,28 -3,2 -1,-30 2,-38z"/>
  <path class="fil26" d="M2552 327c2,-8 7,-16 10,-24 4,-12 14,-18 25,-11 3,2 5,7 3,10 -6,13 -33,33 -35,35 -2,2 -6,0 -5,-3 0,-2 1,-3 1,-5l1 -2z"/>
  <path class="fil26" d="M2526 248c5,-7 14,0 12,7l0 0c-3,8 -7,19 -12,26 -4,5 -12,2 -12,-5 0,-9 6,-21 12,-28z"/>
  <path class="fil26" d="M2720 708c4,-5 6,-10 3,-17 -2,-4 -8,-7 -12,-7 -4,-1 -6,0 -8,1 -5,0 -10,2 -15,4 -9,2 -17,7 -26,10 -3,1 -4,6 -3,9 20,1 41,1 61,0z"/>
  <path class="fil26" d="M2566 595c1,-9 12,-15 18,-20 7,-6 17,-14 27,-8 11,6 3,22 -5,27 -8,7 -23,11 -34,8l-5 -3c-1,-1 -1,-3 -1,-4z"/>
  <path class="fil26" d="M2527 523c4,-5 9,-13 16,-14 10,-2 12,10 10,17 -1,5 -6,9 -10,12 -3,2 -26,13 -27,8 0,-7 7,-17 11,-23z"/>
  <path class="fil26" d="M2513 402c13,12 -16,49 -17,50 -2,3 -7,5 -10,2 -4,-3 -3,-8 -1,-12 1,-7 13,-54 28,-40z"/>
  <path class="fil26" d="M2486 335c4,-3 9,1 7,5 -2,9 -11,38 -14,43 -2,4 -8,2 -8,-1 0,-3 1,-23 4,-30 2,-7 5,-13 11,-17z"/>
  <path class="fil26" d="M2598 704c3,-3 6,-6 6,-12 0,-25 -35,-7 -45,0 -2,2 -10,7 -10,7 -1,0 -2,2 -2,3 17,1 34,1 51,2z"/>
  <path class="fil26" d="M2481 530c9,-1 13,10 12,18 -2,11 -23,26 -24,26 -7,4 -6,-4 -5,-6 0,-7 3,-14 5,-20 2,-6 4,-17 12,-18z"/>
  <path class="fil26" d="M2428 486c2,-3 5,-3 6,0 5,9 -15,35 -15,32 -1,-11 5,-22 9,-32z"/>
  <path class="fil27" d="M3033 523c-2,-2 -4,-4 -7,-5 -19,-18 -37,-37 -48,-62 -14,-31 -13,-60 -7,-93 2,-10 0,-19 -3,-26 5,-21 13,-46 20,-54 -4,-1 -10,-2 -16,-2 -6,0 -12,1 -19,1 -7,0 -14,0 -22,0 -15,0 -32,-1 -47,-4 -5,-2 -10,-4 -15,-7 10,-3 16,-8 14,-14 -3,-6 -9,-8 -16,-8 -3,0 -7,1 -10,2 -3,1 -5,2 -7,3 -15,-14 -30,-31 -42,-40 -5,-5 -46,-23 -71,-31 4,-7 13,-12 24,-16 0,0 0,1 0,1l0 0c0,0 0,0 0,0 2,-1 4,-1 6,-1 0,0 0,0 0,0 1,0 1,0 1,0 1,0 1,0 2,0 19,1 50,27 86,53l0 0c1,0 1,0 2,1 37,26 79,52 119,52 0,0 0,0 0,0l0 0c0,0 0,0 0,0 9,0 17,-1 25,-4 0,0 0,0 1,0 -24,45 -24,87 -13,123 0,0 0,0 0,0 0,0 0,0 0,1 0,0 0,0 0,0 0,0 0,0 0,0 9,27 25,51 42,72 1,1 2,2 3,3 -3,8 -5,17 -7,25 -1,7 2,18 5,30z"/>
  <path class="fil28" d="M2869 271c-6,-5 -13,-11 -19,-17 2,-1 4,-2 7,-3 3,-1 7,-2 10,-2 7,0 13,2 16,8 2,6 -4,11 -14,14z"/>
  <path class="fil27" d="M3090 397c14,-18 25,-36 13,-62 1,1 1,1 1,1 0,0 0,0 0,-1 0,0 0,0 0,0 0,0 0,0 0,0 6,1 12,4 17,8 3,9 6,19 8,29 -2,7 -5,14 -7,21 -10,3 -22,3 -32,4zm14 -62c-1,0 -1,0 -1,0l0 0c0,0 0,0 1,0z"/>
  <path class="fil23" d="M2851 82c-16,-5 -33,-10 -50,-14 0,0 0,0 0,0 17,4 34,9 50,14 0,0 0,0 0,0z"/>
  <path class="fil27" d="M2908 136c-5,0 -13,0 -23,-1 -9,0 -21,-1 -34,-1 -7,0 -15,0 -22,1 -30,-28 -13,-49 -28,-67 17,4 34,9 50,14 19,26 44,46 59,51 5,2 4,3 -2,3z"/>
  <path class="fil29" d="M3271 449c-76,-29 -41,-208 -193,-226 0,0 24,-100 -17,-142 -41,-42 -124,-19 -143,-62 3,31 5,59 47,74 41,16 41,61 41,61 0,0 -162,-112 -181,-154 -10,58 56,122 85,133 9,4 -3,3 -25,2 -42,-2 -121,-4 -124,33 18,-8 53,22 95,52 46,32 99,64 147,49 -47,89 -3,165 45,212 1,-70 80,-89 55,-146 55,9 74,137 168,114z"/>
  <path class="fil23" d="M3249 452l0 0 0 0 0 0zm0 0c-62,0 -87,-73 -121,-104 34,31 59,104 121,104zm22 -3c-3,-1 -6,-3 -9,-4 0,0 0,0 0,0 3,2 6,3 9,4zm-265 -295l0 0 0 0zm0 0c-1,0 -69,-48 -122,-92l0 0c53,44 121,92 122,92z"/>
  <path class="fil28" d="M3032 465c-17,-21 -33,-45 -42,-72 9,27 25,51 42,72zm-42 -72c0,0 0,0 0,0 0,0 0,0 0,0zm0 -1c0,0 0,0 0,0 0,0 0,0 0,0zm114 -56c0,0 0,0 -1,-1l0 0c0,0 0,0 1,0 0,0 0,0 0,0 0,1 0,1 0,1zm0 -1c0,0 0,0 0,0 0,0 0,0 0,0zm-127 -62l0 0c0,0 0,0 0,0 0,0 0,0 0,0zm0 0c-40,0 -82,-26 -119,-52 37,26 79,52 119,52zm25 -4c0,0 0,0 1,0l0 0c-1,0 -1,0 -1,0zm-241 -101l0 0c0,0 0,0 0,0 0,0 0,0 0,0zm9 -1c-1,0 -1,0 -2,0 1,0 1,0 2,0zm-3 0c0,0 0,0 0,0l0 0c0,0 0,0 0,0z"/>
  <path class="fil30" d="M3039 473c-2,-3 -4,-6 -7,-8 -17,-21 -33,-45 -42,-72 0,0 0,0 0,0 0,0 0,0 0,0 0,-1 0,-1 0,-1 0,0 0,0 0,0 -11,-36 -11,-78 13,-123l0 0c-1,0 -1,0 -1,0 -8,3 -16,4 -25,4 0,0 0,0 0,0 0,0 0,0 0,0 -40,0 -82,-26 -119,-52 -1,-1 -1,-1 -2,-1l0 0c-36,-26 -67,-52 -86,-53 -1,0 -1,0 -2,0 0,0 0,0 -1,0l0 0c0,0 0,0 0,0 -2,0 -4,0 -6,1 0,0 0,0 0,0 0,-3 1,-5 2,-8 2,0 14,-5 37,-5 15,0 33,2 56,8 29,7 58,25 78,48 19,21 52,31 76,31 25,0 40,-11 21,-32 -6,-51 -69,-59 -117,-75l-28 -16c-29,-24 -66,-70 -61,-113l0 2c2,4 4,9 6,13 1,3 2,5 2,8l0 -2c6,20 22,35 43,35 2,0 5,0 7,0l1 0c53,44 121,92 122,92 0,0 0,0 0,0l0 0 0 0c0,0 0,0 0,0 0,-3 -1,-45 -41,-61l0 0c-35,-13 -42,-34 -45,-58 7,11 28,35 55,45 48,19 106,79 91,153 6,30 56,36 79,64 25,30 23,75 51,102 22,22 42,38 66,46 3,1 6,3 9,4l0 0c-8,2 -15,3 -22,3l0 0c0,0 0,0 0,0 -62,0 -87,-73 -121,-104 -8,-7 -15,-11 -24,-13 0,0 0,0 0,0 0,0 0,0 0,0 -2,-9 -20,-57 -48,-78 -25,103 -19,209 -17,216zm65 -138c0,0 0,0 0,0 0,0 0,0 0,0l0 0zm-1 0l0 0z"/>
  <path class="fil23" d="M3024 622l0 0c57,-50 97,-110 107,-180 0,-1 0,-1 0,-1 0,0 0,0 0,1 -10,70 -50,130 -107,180zm107 -181c0,0 0,0 0,0 0,0 0,0 0,0z"/>
  <path class="fil31" d="M2386 671c-1,-1 -2,-1 -2,-1 0,0 0,0 0,0 0,0 1,0 2,1z"/>
  <path class="fil27" d="M2692 709c-27,0 -55,-3 -82,-4 -4,-1 -8,-1 -12,-1 3,-3 6,-7 6,-12 0,-10 -5,-13 -12,-13 -11,0 -27,9 -33,13 -2,2 -10,7 -10,7 -1,0 -2,2 -2,3 4,0 9,0 13,0 -21,0 -42,-1 -63,-2 -34,-2 -67,-6 -97,-23l0 0c-3,-2 -9,-4 -14,-6 -1,-1 -2,-1 -2,-1 -11,-23 -15,-50 -10,-81 14,-1 28,-3 41,-7 13,11 28,16 44,16 8,0 16,-1 25,-3 14,11 31,17 49,17 11,0 22,-2 34,-7 46,44 122,60 193,60 41,0 81,-6 111,-15 45,-13 85,-35 118,-61 10,-1 21,-3 25,-4 12,-5 21,-14 22,-27 0,-4 -1,-8 -3,-11 39,-44 68,-97 89,-154 3,-1 7,-2 9,-4 0,-6 -1,-11 -2,-17 0,0 0,0 0,0 4,22 6,45 2,69 0,0 0,0 0,0 0,0 0,0 0,0 0,0 0,0 0,1 -10,70 -50,130 -107,180 -27,23 -58,45 -91,63 -6,0 -12,-1 -19,-1 15,-1 38,-6 38,-23 3,-4 -1,-9 -5,-9 -1,0 -2,1 -3,2 -4,2 -32,23 -35,23 -2,1 -3,4 -1,6 0,0 0,0 1,0 -6,-1 -12,-2 -17,-2 -4,-1 -8,-1 -12,-1 -15,0 -29,2 -43,5 -38,6 -74,19 -112,22 -11,1 -22,2 -33,2zm17 -25c-2,0 -4,0 -6,1 -5,0 -10,2 -15,4 -9,2 -17,7 -26,10 -3,1 -4,6 -3,9 11,0 22,1 33,1 9,0 18,-1 28,-1 4,-5 6,-10 3,-17 -2,-4 -8,-7 -12,-7 -1,0 -1,0 -2,0zm-233 -29c-1,0 -3,0 -4,0 -11,3 -27,24 -28,24 -1,1 -1,3 0,4 2,3 6,4 10,4 5,0 11,-1 14,-2 9,-2 19,-5 21,-15 3,-10 -5,-15 -13,-15zm-74 -56c-9,0 -16,11 -17,19 -3,11 -2,23 4,34 0,0 0,0 0,0 5,0 32,-50 15,-52 -1,0 -1,-1 -2,-1zm697 -112c-11,0 -18,34 -20,40 -2,5 -6,17 -2,17 0,0 0,0 1,0 9,-5 16,-18 21,-27 3,-6 13,-23 4,-29 -1,-1 -3,-1 -4,-1z"/>
  <path class="fil28" d="M2989 589c16,-13 30,-27 44,-42 2,3 3,7 3,11 -1,13 -10,22 -22,27 -4,1 -15,3 -25,4z"/>
  <path class="fil28" d="M2454 687c-4,0 -8,-1 -10,-4 -1,-1 -1,-3 0,-4 1,0 17,-21 28,-24 1,0 3,0 4,0 8,0 16,5 13,15 -2,10 -12,13 -21,15 -3,1 -9,2 -14,2z"/>
  <path class="fil28" d="M3077 544c-4,0 0,-12 2,-17 2,-6 9,-40 20,-40 1,0 3,0 4,1 9,6 -1,23 -4,29 -5,9 -12,22 -21,27 -1,0 -1,0 -1,0z"/>
  <path class="fil28" d="M2389 652c0,0 0,0 0,0 -6,-11 -7,-23 -4,-34 1,-8 8,-19 17,-19 1,0 1,1 2,1 17,2 -10,52 -15,52z"/>
  <path class="fil28" d="M2914 684c-1,-1 -3,-1 -5,-1l0 0c-1,0 -1,0 -1,0 -2,-2 -1,-5 1,-6 3,0 31,-21 35,-23 1,-1 2,-2 3,-2 4,0 8,5 5,9 0,17 -23,22 -38,23l0 0z"/>
  <path class="fil28" d="M2692 709c-11,0 -22,-1 -33,-1 -1,-3 0,-8 3,-9 9,-3 17,-8 26,-10 5,-2 10,-4 15,-4 2,-1 4,-1 6,-1 1,0 1,0 2,0 4,0 10,3 12,7 3,7 1,12 -3,17 -10,0 -19,1 -28,1z"/>
  <path class="fil28" d="M2598 704c-13,-1 -26,-1 -38,-2l0 0c-4,0 -9,0 -13,0 0,-1 1,-3 2,-3 0,0 8,-5 10,-7 6,-4 22,-13 33,-13 7,0 12,3 12,13 0,5 -3,9 -6,12l0 0z"/>
  <path class="fil28" d="M3122 393c2,-7 5,-14 7,-21 1,6 2,11 2,17 -2,2 -6,3 -9,4z"/>
  <path class="fil32" d="M2413 567c-2,0 -3,-2 -4,-8 -1,-7 3,-24 10,-47 0,2 0,4 0,6 0,0 0,0 0,0 3,0 20,-24 15,-32 0,-1 -1,-2 -3,-2 -1,0 -2,1 -3,2 -1,3 -2,5 -3,8 11,-32 27,-72 46,-115 0,2 0,2 0,3 0,2 2,3 4,3 2,0 3,0 4,-2 3,-5 12,-34 14,-43 1,-2 0,-4 -1,-5 8,-17 18,-35 27,-52 0,0 1,0 2,0 2,0 4,-1 5,-2 5,-7 9,-18 12,-26l0 0c0,-2 0,-4 0,-5 47,-80 100,-146 148,-154 10,-2 21,-3 32,-3 2,0 5,0 7,0 -6,2 -11,4 -16,6l-1 1c-2,0 -3,1 -5,2 -1,1 -2,4 0,5 0,1 23,8 27,8 1,0 1,0 2,0 9,0 19,-2 24,-11 2,-2 2,-5 1,-8 42,8 63,28 -11,43 -44,8 -110,69 -169,150 -7,1 -13,6 -15,14 -3,7 -7,15 -10,22 -5,9 -11,18 -16,27 -9,15 -18,31 -27,47 -1,0 -1,0 -2,0 -12,0 -21,37 -22,43 -1,2 -2,4 -2,6 -33,65 -59,119 -70,119zm272 -458c-2,0 -6,1 -11,4 -76,33 -121,135 -153,185 -27,43 -85,199 -85,199 0,0 2,-5 6,-14 21,-56 107,-207 161,-280 0,8 1,14 2,14 0,0 0,0 0,0 1,-1 22,-20 26,-27 3,-6 5,-16 3,-23 0,0 0,0 0,0 35,-31 62,-58 51,-58z"/>
  <path class="fil33" d="M2732 115c-1,0 -1,0 -2,0 -4,0 -27,-7 -27,-8 -2,-1 -1,-4 0,-5 2,-1 3,-2 5,-2l1 -1c5,-2 10,-4 16,-6 11,0 22,2 32,3 1,3 1,6 -1,8 -5,9 -15,11 -24,11z"/>
  <path class="fil33" d="M2605 217c-1,0 -2,-6 -2,-14 12,-16 23,-29 31,-36 2,7 0,17 -3,23 -4,7 -25,26 -26,27 0,0 0,0 0,0z"/>
  <path class="fil33" d="M2552 325c3,-7 7,-15 10,-22 2,-8 8,-13 15,-14 -8,12 -16,24 -25,36z"/>
  <path class="fil33" d="M2521 283c-1,0 -2,0 -2,0 6,-11 12,-22 19,-33 0,1 0,3 0,5l0 0c-3,8 -7,19 -12,26 -1,1 -3,2 -5,2z"/>
  <path class="fil33" d="M2483 448c0,-2 1,-4 2,-6 1,-6 10,-43 22,-43 1,0 1,0 2,0 -9,17 -18,33 -26,49z"/>
  <path class="fil33" d="M2475 385c-2,0 -4,-1 -4,-3 0,-1 0,-1 0,-3 6,-14 13,-29 21,-44 1,1 2,3 1,5 -2,9 -11,38 -14,43 -1,2 -2,2 -4,2z"/>
  <path class="fil33" d="M2419 518c0,0 0,0 0,0 0,-2 0,-4 0,-6 2,-6 4,-12 6,-18 1,-3 2,-5 3,-8 1,-1 2,-2 3,-2 2,0 3,1 3,2 5,8 -12,32 -15,32z"/>
  <path class="fil34" d="M2436 497c0,0 58,-156 85,-199 32,-50 77,-152 153,-185 5,-3 9,-4 11,-4 11,0 -16,27 -51,58 0,0 0,0 0,0 -1,-3 -3,-5 -6,-7 -2,-1 -4,-1 -6,-1 -8,0 -14,9 -17,16 -1,5 -2,18 -2,28 -54,73 -140,224 -161,280 -4,9 -6,14 -6,14z"/>
  <path class="fil35" d="M2603 203c0,-10 1,-23 2,-28 3,-7 9,-16 17,-16 2,0 4,0 6,1 3,2 5,4 6,7 -8,7 -19,20 -31,36z"/>
  <path class="fil36" d="M2016 940c-17,0 -32,-8 -33,-29l0 0c1,21 16,29 33,29 7,0 13,-1 19,-3 42,-15 117,-100 173,-107 0,0 0,0 1,0 -57,7 -132,92 -174,107 -6,2 -12,3 -19,3z"/>
  <path class="fil31" d="M2016 940c-17,0 -32,-8 -33,-29l0 0c-1,-11 2,-23 6,-36 9,7 20,10 32,10 25,0 53,-13 70,-26 23,-18 58,-32 91,-32 9,0 18,1 26,3 -56,7 -131,92 -173,107 -6,2 -12,3 -19,3z"/>
  <path class="fil22" d="M2184 1944c-4,0 -8,0 -12,-1 4,1 8,1 12,1 6,0 13,-1 19,-4 0,0 0,0 0,0 -6,3 -13,4 -19,4z"/>
  <path class="fil36" d="M2203 1940c0,0 0,0 0,0 2,-1 4,-2 6,-4 21,-14 27,-38 27,-63 0,25 -6,49 -27,63 -2,2 -4,3 -6,4zm231 -1049c0,0 0,0 0,0 0,0 0,0 0,0zm0 0c17,-12 38,-23 61,-30 0,0 0,0 0,0 -22,7 -44,18 -61,30z"/>
  <path class="fil31" d="M2184 1944c-4,0 -8,0 -12,-1 -30,-8 -59,-43 -76,-73 8,5 17,8 25,8 19,0 36,-12 45,-34 26,-70 -7,-148 -33,-215 -1,-8 -2,-17 -3,-26 -6,-93 2,-186 28,-276 20,-69 62,-130 90,-197 4,-8 8,-18 12,-29l2 -2c16,-29 30,-62 45,-94 6,-10 12,-21 17,-31 18,-33 39,-62 69,-84 29,-21 65,-27 102,-29 -23,7 -44,18 -61,30 0,0 0,0 0,0 0,0 0,0 0,0 -3,2 -5,4 -7,5l0 0c-95,71 -133,187 -175,292 -38,98 -88,216 -88,327 0,24 2,49 8,72 16,68 38,135 52,203 4,22 12,54 12,83 0,25 -6,49 -27,63 -2,2 -4,3 -6,4 -6,3 -13,4 -19,4z"/>
  <path class="fil22" d="M3001 970c-7,-17 -14,-33 -24,-48 -31,-49 -73,-76 -127,-93l0 0c54,17 96,44 127,93 10,15 18,31 24,48 0,0 0,0 0,0z"/>
  <path class="fil36" d="M2657 873c-19,0 -38,-7 -60,-16l-3 -1c0,0 1,0 1,0 0,0 1,1 2,1 22,9 41,16 60,16 17,0 34,-6 52,-21l0 0c-18,15 -35,21 -52,21z"/>
  <path class="fil31" d="M3001 970c-6,-17 -14,-33 -24,-48 -31,-49 -73,-76 -127,-93 -3,-1 -6,-2 -9,-3 -23,-6 -48,-14 -72,-14 -1,0 -2,0 -3,0l0 0c-29,1 -38,23 -57,40l0 0c-18,15 -35,21 -52,21 -19,0 -38,-7 -60,-16 -1,0 -2,-1 -2,-1 3,0 6,-1 10,-1 60,-10 98,-81 156,-81 6,0 13,1 20,3 18,5 35,17 52,24 21,8 43,14 64,19 41,11 82,26 93,71 2,8 6,14 11,18 -2,20 -1,40 0,61z"/>
  <path class="fil36" d="M3130 1459c-2,0 -5,0 -8,-1 -2,-1 -4,-1 -6,-2 2,1 4,1 6,2 3,1 6,1 8,1 28,0 45,-38 53,-59 6,-18 9,-36 9,-53 0,17 -3,35 -9,53 -8,21 -25,59 -53,59zm-14 -3c0,0 0,0 0,0 0,0 0,0 0,0zm0 0c0,0 0,0 0,0 0,0 0,0 0,0zm-1 0c0,0 0,0 0,0 0,0 0,0 0,0zm0 0c0,0 0,0 0,0 0,0 0,0 0,0zm-35 -572c1,-13 4,-22 9,-27 0,0 0,0 0,0 -5,5 -8,14 -9,27z"/>
  <path class="fil31" d="M3130 1459c-2,0 -5,0 -8,-1 -2,-1 -4,-1 -6,-2 0,0 0,0 0,0 0,0 0,0 0,0 0,0 0,0 0,0 0,0 0,0 0,0 -1,0 -1,0 -1,0 0,0 0,0 0,0 0,0 0,0 0,0 0,0 0,0 0,0 -30,-13 -45,-52 -54,-94 6,10 12,19 20,27 7,9 15,12 24,12 18,0 37,-14 42,-31 14,-46 2,-90 -16,-133 -13,-30 -27,-63 -44,-93 -5,-24 -9,-47 -12,-72 -3,-33 -8,-64 -15,-96 0,-10 -1,-20 -1,-29 0,-4 1,-29 0,-51 4,-6 6,-14 4,-24 2,-1 3,-3 4,-5 1,-2 3,-6 5,-10l2 0c2,0 4,1 6,1 3,0 6,-1 9,-1 -5,5 -8,14 -9,27 0,0 0,0 0,0l0 0c0,6 0,13 0,19 0,36 6,73 13,108 16,75 39,149 69,220 16,38 30,76 30,116 0,17 -3,35 -9,53 -8,21 -25,59 -53,59z"/>
  <path class="fil36" d="M3316 946c-6,0 -12,-1 -20,-3 -60,-18 -108,-62 -167,-84 -6,-3 -11,-4 -16,-6l0 0c5,2 10,3 16,6 59,22 107,66 167,84 8,2 14,3 20,3 32,0 43,-29 43,-59 14,0 28,2 42,2 16,0 31,-2 46,-9 0,0 0,0 0,0 0,0 0,0 0,0 -15,7 -30,9 -46,9 -14,0 -28,-2 -42,-2 0,30 -11,59 -43,59z"/>
  <path class="fil31" d="M3316 946c-6,0 -12,-1 -20,-3 -60,-18 -108,-62 -167,-84 -6,-3 -11,-4 -16,-6l1 0c2,-1 4,-2 5,-2 26,9 56,14 77,21 23,8 50,20 76,20 16,0 32,-5 45,-19 26,-29 68,-16 104,-28 15,-5 28,-16 39,-28 9,23 11,50 -13,63 0,0 0,0 0,0 -15,7 -30,9 -46,9 -14,0 -28,-2 -42,-2 0,30 -11,59 -43,59z"/>
  <path class="fil37" d="M2803 2260c-36,0 -72,-4 -108,-12 -65,-14 -132,-37 -199,-38 -2,0 -5,0 -7,0 -46,0 -96,7 -146,13 -50,7 -101,13 -149,13 -79,0 -153,-17 -211,-79 -16,-2 -204,-42 -125,-65 10,-3 21,-4 34,-4 48,0 117,16 183,32 67,16 131,32 167,32 3,0 5,0 7,-1 102,-7 200,-47 302,-51 4,0 8,0 12,0 58,0 116,17 173,34 57,17 115,34 172,34 12,0 25,-1 37,-2 125,-18 239,-82 366,-97 2,0 5,0 9,0 58,0 258,30 242,47 -14,15 -55,19 -104,19 -37,0 -79,-3 -115,-5 -36,-3 -66,-6 -79,-6 -1,0 -1,0 -1,0 -62,1 -128,40 -183,65 -61,27 -122,51 -188,63 -29,6 -59,8 -89,8z"/>
  <path class="fil37" d="M1803 1693c-43,0 -72,-94 -84,-179 -20,-143 120,-400 208,-478 60,-53 124,-79 160,-79 32,0 40,22 -1,65 -85,91 -79,210 -178,506 -40,121 -76,165 -105,165z"/>
  <path class="fil7" d="M4854 893c0,-13 53,150 65,162 12,12 38,89 -20,165 -58,77 -206,37 -240,137 -34,101 -13,217 -105,201 -93,-16 -87,-116 -148,-153 -61,-37 -66,-127 0,-143 66,-15 197,19 241,-60 44,-79 44,-132 91,-161 48,-29 117,-26 116,-148z"/>
  <path class="fil1" d="M3668 2043c0,82 66,148 147,148 82,0 148,-66 148,-148 0,-82 -66,-148 -148,-148 -81,0 -147,66 -147,148z"/>
  <path class="fil7" d="M4055 1934c0,32 26,58 58,58 33,0 58,-26 58,-58 0,-32 -25,-58 -58,-58 -32,0 -58,26 -58,58z"/>
  <path class="fil1" d="M3875 1649c0,35 28,63 63,63 35,0 63,-28 63,-63 0,-35 -28,-63 -63,-63 -35,0 -63,28 -63,63z"/>
  <path class="fil1" d="M4658 1427c0,61 49,110 110,110 60,0 109,-49 109,-110 0,-61 -49,-110 -109,-110 -61,0 -110,49 -110,110z"/>
  <path class="fil1" d="M4786 1078c0,20 17,37 37,37 21,0 37,-17 37,-37 0,-21 -16,-37 -37,-37 -20,0 -37,16 -37,37z"/>
  <path class="fil1" d="M3561 2008c0,19 15,35 35,35 19,0 35,-16 35,-35 0,-20 -16,-35 -35,-35 -20,0 -35,15 -35,35z"/>
  <path class="fil1" d="M1551 2380c0,37 30,67 67,67 37,0 67,-30 67,-67 0,-36 -30,-66 -67,-66 -37,0 -67,30 -67,66z"/>
  <path class="fil38" d="M1822 2453c0,90 73,163 163,163 91,0 164,-73 164,-163 0,-91 -73,-164 -164,-164 -90,0 -163,73 -163,164z"/>
  <path class="fil1" d="M1446 2544c0,40 32,72 72,72 39,0 72,-32 72,-72 0,-39 -33,-72 -72,-72 -40,0 -72,33 -72,72z"/>
  <path class="fil1" d="M1685 2755c0,38 30,68 68,68 38,0 69,-30 69,-68 0,-38 -31,-69 -69,-69 -38,0 -68,31 -68,69z"/>
  <path class="fil1" d="M1724 2904c0,27 22,49 49,49 27,0 49,-22 49,-49 0,-26 -22,-48 -49,-48 -27,0 -49,22 -49,48z"/>
  <path class="fil1" d="M2159 2632c0,0 -255,124 -392,123 -136,-2 -339,-83 -508,37 -169,119 -63,250 -271,316 -207,67 -274,-162 -147,-285 126,-123 124,-213 364,-246 241,-33 346,155 480,67 133,-88 137,-157 68,-172 -68,-14 -79,-141 37,-106 116,36 305,143 386,97 81,-45 -17,169 -17,169z"/>
  <path class="fil7" d="M4325 1421c0,-26 -21,-47 -46,-47 -26,0 -46,21 -46,47 0,25 20,46 46,46 25,0 46,-21 46,-46z"/>
  <path class="fil1" d="M2183 2263c0,-32 -26,-58 -58,-58 -32,0 -58,26 -58,58 0,32 26,58 58,58 32,0 58,-26 58,-58z"/>
  <path class="fil1" d="M4584 1695c0,17 15,32 32,32 18,0 32,-15 32,-32 0,-18 -14,-32 -32,-32 -17,0 -32,14 -32,32z"/>
  <path class="fil1" d="M4856 1632c0,17 14,31 31,31 18,0 32,-14 32,-31 0,-18 -14,-32 -32,-32 -17,0 -31,14 -31,32z"/>
  <path class="fil1" d="M4899 732c0,41 32,74 73,74 41,0 74,-33 74,-74 0,-40 -33,-73 -74,-73 -41,0 -73,33 -73,73z"/>
  <path class="fil1" d="M3892 1138c0,12 10,22 23,22 13,0 23,-10 23,-22 0,-13 -10,-23 -23,-23 -13,0 -23,10 -23,23z"/>
  <path class="fil7" d="M3223 1473c0,24 19,43 42,43 23,0 42,-19 42,-43 0,-23 -19,-42 -42,-42 -23,0 -42,19 -42,42z"/>
  <path class="fil8" d="M3015 1201c0,45 36,82 81,82 45,0 82,-37 82,-82 0,-45 -37,-81 -82,-81 -45,0 -81,36 -81,81z"/>
  <path class="fil1" d="M4434 1600c0,-13 -11,-23 -23,-23 -13,0 -23,10 -23,23 0,13 10,23 23,23 12,0 23,-10 23,-23z"/>
  <path class="fil1" d="M4444 1899c0,-48 -38,-86 -85,-86 -48,0 -86,38 -86,86 0,47 38,85 86,85 47,0 85,-38 85,-85z"/>
  <path class="fil1" d="M4533 1405c0,0 -143,163 -204,307 -60,145 -167,197 -295,183 -127,-14 -264,19 -311,108 -47,89 -4,295 -127,295 -87,0 -76,-107 -11,-151 41,-28 -12,-69 -54,-41 -43,28 -102,130 -190,113 -88,-18 -147,-95 -123,-176 24,-81 225,14 323,-106 99,-119 95,-225 197,-242 102,-18 197,105 246,32 49,-74 162,-204 285,-233 123,-28 119,-130 186,-168 67,-39 107,43 78,79z"/>
  <path class="fil6" d="M1872 2196c-1,40 31,73 71,74 41,1 74,-30 75,-71 1,-40 -31,-73 -71,-74 -40,-1 -74,30 -75,71z"/>
  <path class="fil6" d="M3117 2263c0,41 33,74 74,74 41,0 74,-33 74,-74 0,-41 -33,-74 -74,-74 -41,0 -74,33 -74,74z"/>
  <path class="fil6" d="M3146 1790c0,36 30,65 66,65 37,0 66,-29 66,-65 0,-37 -29,-66 -66,-66 -36,0 -66,29 -66,66z"/>
  <path class="fil6" d="M3065 1855c0,18 14,32 31,32 18,0 32,-14 32,-32 0,-17 -14,-31 -32,-31 -17,0 -31,14 -31,31z"/>
  <path class="fil7" d="M3392 1855c0,18 14,32 31,32 18,0 32,-14 32,-32 0,-17 -14,-31 -32,-31 -17,0 -31,14 -31,31z"/>
  <path class="fil1" d="M3151 2043c0,82 66,148 148,148 81,0 147,-66 147,-148 0,-82 -66,-148 -147,-148 -82,0 -148,66 -148,148z"/>
  <path class="fil6" d="M3377 2081c0,0 -269,5 -333,139 -65,134 -274,520 -365,431 -91,-89 221,-295 176,-353 -44,-58 -525,-39 -555,125 -30,164 10,273 -94,263 -104,-10 -29,-298 -129,-214 -99,85 -208,-14 -92,-54 117,-40 232,-5 259,-129 26,-124 15,-384 210,-281 195,103 529,286 565,152 35,-134 -69,-173 25,-218 94,-45 133,121 333,139z"/>
  <path class="fil7" d="M3367 2205c0,0 -124,-34 -251,-95 -110,-53 -210,-143 -376,-63 -357,173 -389,-21 -281,-92 108,-72 602,103 749,38 148,-66 154,-142 211,-56 57,86 -156,141 -52,268z"/>
 </g>
</svg>
