<?xml version="1.0" encoding="UTF-8"?>
<!DOCTYPE svg PUBLIC "-//W3C//DTD SVG 1.1//EN" "http://www.w3.org/Graphics/SVG/1.1/DTD/svg11.dtd">
<!-- Creator: CorelDRAW X8 -->
<svg xmlns="http://www.w3.org/2000/svg" xml:space="preserve" width="4.14337in" height="6.28269in" version="1.1" style="shape-rendering:geometricPrecision; text-rendering:geometricPrecision; image-rendering:optimizeQuality; fill-rule:evenodd; clip-rule:evenodd"
viewBox="0 0 1128 1710"
 xmlns:xlink="http://www.w3.org/1999/xlink">
 <defs>
  <style type="text/css">
   <![CDATA[
    .fil10 {fill:#3A2119;fill-rule:nonzero}
    .fil9 {fill:#743F30;fill-rule:nonzero}
    .fil4 {fill:#C8E6E1;fill-rule:nonzero}
    .fil8 {fill:#DA9C8A;fill-rule:nonzero}
    .fil5 {fill:#EC2D7B;fill-rule:nonzero}
    .fil2 {fill:#F685C7;fill-rule:nonzero}
    .fil1 {fill:#F7C4E4;fill-rule:nonzero}
    .fil3 {fill:#FEEFD8;fill-rule:nonzero}
    .fil7 {fill:#FFE3BD;fill-rule:nonzero}
    .fil0 {fill:#FFEBF8;fill-rule:nonzero}
    .fil6 {fill:white;fill-rule:nonzero}
   ]]>
  </style>
 </defs>
 <g id="Layer_x0020_1">
  <metadata id="CorelCorpID_0Corel-Layer"/>
  <path class="fil0" d="M472 655c5,-11 16,-38 9,-53 -13,-27 -56,-16 -71,-44 -3,6 -25,11 -25,20 -1,8 19,19 24,26 33,45 -7,80 -37,104 40,11 87,-22 100,-53z"/>
  <path class="fil1" d="M586 580c15,-41 -33,-106 -71,-87 -13,6 -14,28 -25,40 21,6 45,-3 59,13 18,22 3,49 2,67 14,-10 30,-19 35,-33z"/>
  <path class="fil2" d="M549 560c-10,-22 -33,-15 -54,-17 -6,0 -13,-5 -17,-4 -3,1 -11,8 -22,10 -15,4 -31,-5 -36,4 14,29 68,16 72,60 1,9 -8,17 -6,26 41,-12 78,-42 63,-79z"/>
  <path class="fil2" d="M344 712c37,-24 76,-44 68,-84 -4,-25 -25,-28 -36,-47 -28,10 -44,-1 -62,-8 39,67 33,140 -52,155 27,17 56,1 82,-16z"/>
  <path class="fil0" d="M268 718c73,-16 77,-86 35,-148 -19,8 -34,18 -55,24 26,48 2,89 -41,102 3,8 9,10 13,16 17,4 29,10 48,6z"/>
  <path class="fil1" d="M477 281c2,-5 0,-17 -4,-23 -2,0 -3,-2 -4,-1 -2,9 -4,17 -3,26 4,-2 6,1 11,-2z"/>
  <path class="fil1" d="M144 682c12,7 28,0 41,1 6,0 10,5 15,5 47,-2 65,-55 40,-94 -14,3 -22,-4 -33,-6 2,44 -20,74 -63,94z"/>
  <path class="fil1" d="M553 311c-7,-22 -30,-35 -48,-19 7,7 9,24 8,33 14,0 28,-12 40,-14z"/>
  <path class="fil2" d="M608 492c-4,-10 -19,-26 -30,-26 -14,1 -31,13 -45,15 24,6 51,24 62,61 8,-11 19,-31 13,-50z"/>
  <path class="fil1" d="M494 386c-8,-2 -12,-18 -17,-8 -9,18 -32,33 2,38 40,6 94,-21 101,35 22,-14 32,-55 17,-78 -14,-23 -82,21 -103,13z"/>
  <path class="fil0" d="M597 362c-7,-67 -93,-36 -113,-1 17,45 81,-16 113,1z"/>
  <path class="fil0" d="M169 522c2,30 29,34 42,41 11,6 17,17 30,16 24,-1 37,-19 63,-31 -25,-16 -78,-4 -75,-54 -16,0 -34,2 -46,-4 -6,11 -14,20 -14,32z"/>
  <path class="fil1" d="M483 343c3,-6 13,-8 9,-18 -10,3 -18,4 -27,6 3,9 11,10 18,12z"/>
  <path class="fil1" d="M404 411c21,-8 40,-12 46,-29 -10,-4 -20,-8 -24,-22 -9,6 -13,9 -26,10 6,13 -4,28 4,41z"/>
  <path class="fil0" d="M456 534c9,-4 27,-40 26,-48 -5,-26 -65,-12 -82,-29 -4,-3 -3,-9 -10,-11 -11,15 -35,24 -58,25 4,45 58,51 92,57 9,2 26,8 32,6z"/>
  <path class="fil2" d="M403 450c11,19 43,8 59,10 14,2 17,12 26,22 15,-8 24,-17 43,-21 17,-3 56,10 37,-25 -15,-29 -58,-5 -95,-13 -11,-2 -18,-11 -25,-13 -2,0 -44,17 -44,17 -4,5 -5,15 -1,23z"/>
  <path class="fil0" d="M331 364c-4,18 -30,32 -49,52 -15,16 -36,44 -33,54 8,29 64,-2 79,-17 -20,-30 23,-48 27,-69 4,-15 -5,-31 -24,-20z"/>
  <path class="fil1" d="M298 357c-25,37 -105,52 -112,98 -1,2 0,19 2,22 6,9 38,4 49,-7 9,-8 14,-28 22,-39 18,-26 45,-40 62,-63 -6,-7 -16,-6 -23,-11z"/>
  <path class="fil1" d="M323 481c-19,24 -67,30 -85,16 -3,44 44,24 67,37 9,5 15,17 25,22 28,14 58,-1 88,-19 -36,-12 -77,-13 -95,-56z"/>
  <path class="fil1" d="M457 373c8,-3 6,-18 14,-24 -5,-6 -13,-8 -17,-17 -33,-2 -21,51 3,41z"/>
  <path class="fil2" d="M197 581c-7,6 -26,-5 -30,0 -14,16 -24,40 -53,47 -12,3 -17,-1 -30,-6 1,108 143,28 113,-41z"/>
  <path class="fil3" d="M909 1301c4,-9 -6,-21 -12,-24 -3,9 -3,30 12,24z"/>
  <path class="fil4" d="M163 1081c8,12 5,31 15,39 2,-12 11,-32 -3,-43 -4,2 -8,3 -12,4z"/>
  <path class="fil1" d="M184 1281c16,-2 5,-34 5,-49 -10,7 -24,52 -5,49z"/>
  <path class="fil4" d="M855 1161c-12,-15 1,-43 -12,-54 -12,-10 -27,16 -24,26 4,13 26,20 36,28z"/>
  <path class="fil3" d="M751 1051c6,-17 6,-37 9,-56 -14,9 -31,40 -9,56z"/>
  <path class="fil3" d="M755 736c-9,11 -32,29 -16,43 8,-12 16,-25 16,-43z"/>
  <path class="fil2" d="M683 837c-10,-9 -36,15 -35,23 1,12 38,28 43,32 -7,-12 4,-46 -8,-55z"/>
  <path class="fil3" d="M648 562c-9,12 -31,31 -14,47 18,-8 13,-29 14,-47z"/>
  <path class="fil4" d="M608 717c-26,-13 -25,53 -25,68 15,-12 38,-26 37,-44 0,-11 -7,-22 -12,-24z"/>
  <path class="fil2" d="M219 267c1,-9 -8,-10 -5,-20 -30,-10 -63,22 -61,49 20,-12 65,-10 66,-29z"/>
  <path class="fil0" d="M452 322c12,-3 45,0 45,-15 0,-6 -9,-15 -11,-16 -20,-11 -34,22 -34,31z"/>
  <path class="fil5" d="M256 266c14,14 4,27 7,45 8,1 15,2 22,2 15,14 13,33 26,41 11,6 23,-4 35,-3 7,1 14,10 21,10 17,0 45,-18 58,-31 16,-17 26,-48 26,-65 0,-26 -16,-64 -38,-72 -20,-8 -45,14 -62,10 -6,-1 -13,-11 -19,-16 -29,-18 -66,2 -84,28 -8,11 -23,30 -19,41 4,9 20,4 27,10zm36 -70c16,-8 28,34 5,39 -24,4 -15,-33 -5,-39z"/>
  <path class="fil0" d="M160 349c29,-18 79,-19 91,-41 9,-18 -7,-54 -26,-34 -16,18 -43,17 -70,30 -30,14 -57,47 -32,79 15,-10 18,-23 37,-34z"/>
  <path class="fil6" d="M299 207c-9,3 -13,14 -6,19 10,-1 12,-14 6,-19z"/>
  <path class="fil1" d="M122 558c-6,-10 -17,-20 -17,-36 -12,6 -10,19 -6,34 7,1 12,7 23,2z"/>
  <path class="fil1" d="M112 482c-8,-15 6,-25 4,-36 -1,-9 -14,-19 -12,-35 -20,13 -16,61 8,71z"/>
  <path class="fil1" d="M158 578c-9,-3 -18,-14 -29,-14 -4,0 -7,4 -11,5 -4,0 -12,-6 -17,-3 -11,4 -18,37 -16,43 12,31 76,-7 73,-31z"/>
  <path class="fil1" d="M123 520c4,27 32,37 56,37 -35,-20 -2,-56 -5,-71 -5,-19 -39,-19 -53,-29 -6,15 4,31 4,48 0,5 -3,10 -2,15z"/>
  <path class="fil2" d="M177 462c2,-13 6,-27 15,-38 25,-29 102,-49 101,-78 -1,-27 -25,-25 -39,-29 -16,18 -49,21 -77,32 -20,8 -46,30 -50,45 -2,9 -4,31 3,44 8,17 32,15 47,24z"/>
  <path class="fil7" d="M776 684c17,15 42,36 53,60 15,29 22,51 47,65 -10,-38 -22,-70 -41,-95 -11,-14 -29,-22 -36,-34 -12,-22 -13,-38 -25,-51 -8,-11 -25,-25 -40,-32 0,7 -12,15 -12,23 -1,18 38,50 54,64z"/>
  <path class="fil7" d="M818 855c-6,-15 -7,-30 -23,-34 -5,-1 -5,22 -5,24 5,50 17,104 40,148 22,42 57,76 76,120 22,46 5,97 33,141 25,-14 39,-36 45,-58 8,-28 -1,-51 2,-81 0,-7 6,-13 7,-20 8,-35 -1,-80 -24,-113 -7,-10 -22,-12 -28,-22 -9,-17 -7,-40 -14,-56 -8,-15 -18,-23 -30,-33 -14,50 -61,29 -79,-16z"/>
  <path class="fil1" d="M608 428c-4,13 -11,24 -19,35 17,6 29,25 28,49 23,-15 21,-73 -9,-84z"/>
  <path class="fil2" d="M675 688c1,14 -3,29 2,42 23,-6 25,-44 -2,-42z"/>
  <path class="fil1" d="M364 373c9,30 -44,42 -31,71 12,24 57,-9 65,-25 -13,-23 6,-57 -34,-46z"/>
  <path class="fil0" d="M1016 1307c8,-25 13,-49 24,-76 14,-35 49,-67 42,-109 -4,-25 -22,-28 -28,-48 -3,-8 0,-17 -3,-24 -7,-17 -25,-29 -44,-26 14,35 2,64 -4,94 -4,21 0,43 -3,61 -5,35 -27,75 -51,97 11,42 19,98 -21,104 -26,5 -50,-18 -64,-40 -34,10 -47,44 -83,59 -19,9 -48,9 -67,16 -21,8 -35,24 -54,33 -36,17 -72,21 -97,10 4,25 10,56 10,75 41,-21 75,-16 112,-22 50,-7 116,-20 147,-52 16,-16 22,-34 49,-45 49,-18 77,-33 103,-63 9,-11 32,-44 32,-44 0,0 0,0 0,0z"/>
  <path class="fil8" d="M1116 1152c-5,-38 -28,-79 -55,-88 3,27 27,31 29,62 2,41 -28,72 -43,110 -12,28 -19,52 -31,71 -1,1 -2,7 -1,7 -18,28 -33,55 -62,76 -26,19 -70,24 -95,45 -8,7 -11,19 -20,29 -54,57 -156,47 -225,63 -14,3 -33,9 -42,16 -9,6 -13,19 -24,26 -35,19 -69,10 -91,-23 -51,31 -93,16 -123,-4 -16,-10 -31,-29 -48,-35 -19,-6 -41,-5 -60,-10 -19,-5 -38,-13 -56,-21 -59,-24 -122,-48 -160,-109 -4,24 -3,46 8,68 5,11 16,18 21,28 15,33 16,66 34,89 38,48 99,76 158,84 15,2 32,-1 48,3 25,6 45,23 68,34 24,12 47,17 76,22 63,11 145,14 230,-18 42,-16 71,-47 115,-63 76,-28 165,-37 220,-81 54,-43 82,-104 106,-162 10,-24 32,-62 29,-87 -2,-16 -11,-31 -13,-46 -5,-31 10,-59 7,-86zm-1050 328c-5,-8 1,-20 5,-23 8,-5 19,0 22,6 7,15 -20,28 -27,17zm58 83c-3,6 -16,9 -21,5 -9,-19 1,-26 16,-22 2,7 7,11 5,17zm45 -48c1,26 -46,2 -20,-13 7,-4 20,2 20,13zm46 92c-1,-4 -1,-7 -1,-10 -22,-10 9,-17 20,-13 6,16 -5,30 -19,23zm70 -69c-2,11 -32,4 -41,5 -3,-22 43,-24 41,-5zm31 81c-6,-9 4,-26 15,-26 10,0 10,9 19,16 -6,9 -27,21 -34,10zm75 48c-19,-3 -4,-43 17,-25 2,7 -2,27 -17,25zm55 -19c-11,-28 28,-35 40,-20 -14,6 -21,26 -40,20zm96 25c-10,5 -25,-10 -18,-18 13,-16 38,9 18,18zm68 -6c-20,-1 -6,-41 13,-37 11,10 0,37 -13,37zm16 -120c25,49 -54,11 0,0l0 0zm108 36c-23,7 -18,-39 11,-31 -1,11 0,27 -11,31zm92 -19c-11,19 -38,2 -32,-15 12,3 29,-4 32,15zm50 -16c-28,-17 12,-53 21,-37 7,12 -9,31 -21,37zm35 -98c-1,-9 17,-14 24,-21 25,19 -21,42 -24,21zm60 32c-3,-11 15,-24 23,-27 23,24 -15,46 -23,27zm46 -76c-19,-17 5,-40 23,-33 7,19 -5,32 -23,33zm54 -102c-19,-22 12,-48 23,-29 9,14 -7,28 -23,29z"/>
  <path class="fil3" d="M609 1659c10,-3 13,-10 12,-19 -8,0 -17,8 -12,19z"/>
  <path class="fil3" d="M623 1556c-4,1 -8,1 -9,4 1,10 14,5 9,-4z"/>
  <path class="fil7" d="M609 1448c46,-1 65,-41 95,-54 20,-8 38,-8 55,-14 36,-15 56,-47 91,-64 -8,-21 -9,-46 -24,-63 -14,-16 -37,-19 -50,-37 -15,-21 -13,-50 -27,-72 -5,-7 -14,-9 -20,-15 -9,-8 -19,-21 -24,-32 -6,-14 -9,-53 -28,-31 -29,33 6,114 3,166 -1,12 -10,44 -26,54 -31,20 -42,-7 -53,-27 -4,-6 -12,-11 -16,-18 -10,-18 -14,-45 -18,-66 -3,-17 -3,-56 -20,-58 -36,-4 -25,54 -19,86 4,20 4,45 5,61 0,17 -9,36 -9,51 -1,40 28,91 33,124 18,2 33,10 52,9z"/>
  <path class="fil9" d="M60 835c14,-27 30,-61 65,-65 11,14 -3,27 3,38 22,-2 41,-18 51,2 12,28 -7,50 -10,73 -2,21 9,40 10,62 3,41 -38,71 -48,110 -3,8 -5,21 -5,31 1,12 8,23 9,35 1,15 -10,27 -12,43 -3,15 -4,37 1,57 6,21 16,62 27,84 11,22 41,38 67,18 35,-27 17,-74 9,-126 -8,-44 20,-84 32,-137 12,-50 -16,-114 -4,-160 5,-18 31,-67 66,-65 18,1 21,36 21,56 -1,46 -38,81 -29,129 25,4 35,12 40,44 5,28 3,60 2,89 0,31 -5,61 7,92 8,19 25,37 34,49 29,41 37,143 48,197 10,44 36,82 66,79 78,-8 22,-108 11,-163 -10,-49 -11,-95 -10,-147 0,-33 -11,-64 -14,-97 -1,-19 18,-76 38,-79 16,-3 35,28 40,53 4,21 3,55 13,83 4,10 14,22 20,33 4,7 5,16 9,20 18,19 42,1 46,-20 10,-45 -23,-122 -12,-173 2,-11 7,-25 14,-36 31,-47 44,17 56,49 8,21 23,22 31,33 15,22 17,54 31,73 17,22 46,24 58,42 18,25 24,70 46,98 11,14 29,28 44,10 22,-25 -3,-74 -13,-117 -7,-35 -6,-72 -16,-101 -12,-39 -53,-68 -73,-105 -21,-39 -44,-91 -58,-137 -9,-35 -15,-71 5,-85 57,-37 53,96 99,76 8,-4 11,-21 5,-36 -8,-27 -33,-41 -47,-64 -15,-27 -20,-54 -46,-70 -17,-11 -32,-21 -49,-34 -20,-14 -48,-31 -52,-63 -3,-20 12,-26 26,-34 -5,-38 -47,-38 -56,-64 -3,-11 6,-19 -5,-28 -1,1 -2,0 -3,0 -7,11 -9,27 -15,36 -4,5 -11,7 -14,13 -6,12 -6,28 -11,40 -5,13 -9,26 -17,37 -10,14 -23,21 -41,29 -9,5 -16,13 -27,18 -8,3 -20,3 -30,8 -12,7 -16,24 -29,34 -15,11 -31,20 -48,25 -25,7 -44,-5 -61,0 -8,3 -14,12 -23,16 -12,5 -33,11 -47,9 -9,-2 -16,-9 -24,-12 -7,-2 -15,-1 -22,-4 -22,-7 -37,-35 -58,-39 -8,-2 -22,3 -33,2 -9,-1 -30,-8 -37,-10 -7,-3 -15,-13 -19,-12 -12,2 -40,45 -37,54 3,9 11,4 14,13 3,9 -18,42 -23,52 -10,19 -23,35 -24,52 -4,52 32,-3 38,-13zm137 447c-7,11 -25,12 -30,-2 -7,-22 18,-54 24,-71 9,9 12,62 6,73zm-15 -140c-10,5 -33,-43 -33,-52 -1,-7 7,-13 12,-16 43,-25 30,63 21,68zm585 -137c-2,13 -4,55 -19,55 -6,0 -15,-19 -16,-26 -2,-21 26,-44 31,-61 6,4 5,22 4,32zm132 260c5,16 30,33 14,43 -5,3 -19,2 -22,-3 -11,-15 7,-42 -1,-60 10,0 6,12 9,20zm-51 -164c1,1 16,51 17,60 1,4 -4,6 -3,11 -12,-1 -20,-9 -27,-16 -5,-4 -21,-15 -23,-21 -5,-14 20,-48 36,-34zm-83 -380c3,15 -2,24 -7,38 -3,7 -10,30 -22,29 -4,0 -12,-11 -12,-15 -2,-11 30,-48 41,-52zm-60 -10c-2,12 -23,25 -33,31 -4,-22 -15,-73 16,-60 7,2 18,16 17,29zm-88 -109c0,-3 25,-54 31,-58 1,-1 4,-1 6,-2 8,18 -1,92 -29,72 -3,-2 -8,-8 -8,-12zm74 231c13,20 2,53 8,74 -10,-2 -20,-10 -30,-17 -8,-7 -33,-20 -30,-34 2,-14 41,-41 52,-23zm-110 -87c2,-17 -4,-40 23,-40 11,0 24,20 24,35 1,23 -35,49 -51,59 -1,-18 1,-33 4,-54zm44 444c-11,15 -34,-43 -29,-61 4,-11 15,-12 25,-15 18,27 2,51 4,76zm-36 -224c18,24 -18,65 -36,71 -1,-22 3,-41 -2,-65 9,-11 28,-20 38,-6zm-139 -237c0,-11 20,-29 34,-25 16,5 17,44 20,61 -15,-3 -54,-16 -54,-36zm51 730c-2,10 -24,16 -30,6 -11,-19 10,-45 0,-65 1,0 2,-1 3,-1 2,9 28,46 27,60zm-84 -215c-3,-24 4,-51 3,-78 54,-20 24,70 -3,78zm40 -378c24,5 22,61 17,78 -10,-4 -42,-29 -46,-49 -2,-13 15,-32 29,-29zm-79 -111c26,6 23,57 11,75 -10,-3 -12,-14 -18,-25 -5,-10 -19,-24 -20,-30 -3,-12 15,-22 27,-20zm37 273c-19,-13 -40,-27 -52,-54 27,-42 58,24 52,54zm-179 -259c2,-7 29,1 31,4 23,22 -23,52 -47,53 4,-13 10,-41 16,-57zm-98 -60c12,5 31,29 36,38 -20,-2 -53,3 -61,-14 -7,-14 11,-30 25,-24z"/>
  <path class="fil4" d="M157 740c0,-21 -44,-34 -36,-11 4,11 24,9 36,11z"/>
  <path class="fil2" d="M261 778c-18,-15 -30,24 -32,39 17,-4 46,-26 32,-39z"/>
  <path class="fil3" d="M731 1576c4,-3 7,-8 5,-14 -5,-1 -13,5 -8,13 1,0 3,-1 3,1z"/>
  <path class="fil3" d="M1075 1295c34,-5 -6,-36 0,0l0 0z"/>
  <path class="fil3" d="M407 1012c-4,-17 -12,-60 -35,-38 9,19 21,30 35,38z"/>
  <path class="fil0" d="M79 1426c8,3 17,3 25,7 14,7 26,19 43,26 32,14 61,28 94,36 18,4 41,1 54,7 14,5 24,24 36,32 31,21 72,31 120,4 -16,-28 -15,-57 -22,-87 -53,23 -76,-7 -106,-24 -13,-6 -34,-10 -49,-13 -30,-6 -54,-1 -84,4 -28,6 -69,-7 -94,-22 -27,-17 -42,-44 -55,-77 -6,-16 -9,-37 -21,-37 -5,20 -10,43 -6,66 7,38 40,66 65,78z"/>
  <path class="fil2" d="M429 1170c-4,19 -8,36 -6,58 11,-13 36,-51 6,-58z"/>
  <path class="fil3" d="M584 973c-2,-5 -10,-8 -16,-6 -17,6 -6,41 -9,58 11,-10 36,-34 25,-52z"/>
  <path class="fil3" d="M375 762c-33,0 3,47 12,54 7,-12 7,-53 -12,-54z"/>
  <path class="fil1" d="M495 753c-2,-14 -4,-33 -14,-40 -42,8 -6,40 14,40z"/>
  <path class="fil1" d="M619 1180c0,-18 11,-40 -2,-58 -26,5 -6,45 2,58z"/>
  <path class="fil6" d="M490 1459c0,-10 -6,-27 -12,-34 -1,10 -9,44 12,34z"/>
  <path class="fil4" d="M455 874c-9,-2 -20,9 -18,19 2,15 23,32 31,38 3,-11 3,-53 -13,-57z"/>
  <path class="fil3" d="M1037 1380c-11,-3 -25,9 -16,20 10,-5 16,-10 16,-20z"/>
  <path class="fil7" d="M48 1276c3,6 1,13 2,19 14,60 68,102 116,100 27,-1 41,-14 66,-15 9,0 30,3 41,6 8,3 16,13 25,17 7,2 15,4 23,6 9,3 19,1 26,3 7,3 11,12 19,16 16,8 33,9 58,0 -20,-40 -17,-87 -35,-126 -4,-8 -12,-13 -16,-19 -54,-78 -12,-158 -39,-244 -49,5 -39,-64 -28,-94 8,-18 21,-37 20,-55 -3,-43 -33,-25 -44,-7 -26,45 -6,106 -9,162 -2,48 -32,85 -37,132 -4,41 19,81 11,115 -4,19 -20,48 -53,51 -51,5 -60,-67 -77,-111 -17,-45 7,-75 7,-105 -1,-22 -8,-40 -6,-59 4,-29 26,-72 37,-98 3,-7 13,-23 13,-33 -1,-5 -5,-11 -7,-18 -2,-11 -2,-36 1,-56 2,-12 10,-46 -9,-50 -10,-3 -21,10 -31,1 -7,-6 -3,-12 -10,-21 -9,-1 -11,2 -14,7 -13,23 -21,51 -39,69 -5,5 -17,9 -21,15 -6,10 -4,32 -2,46 2,17 12,37 11,54 0,11 -14,27 -19,38 -14,31 -23,69 0,117 2,5 8,10 9,15 3,13 -9,31 -11,45 -2,17 0,36 9,58 4,10 10,11 13,19z"/>
  <path class="fil3" d="M323 1615c10,4 22,-6 11,-14 -9,2 -15,6 -11,14z"/>
  <path class="fil3" d="M400 1654c0,-4 -3,-3 -4,-7 -15,3 2,20 4,7z"/>
  <path class="fil3" d="M258 1536c4,2 10,2 16,1 -2,-6 -16,-8 -16,-1z"/>
  <path class="fil3" d="M453 1641c8,1 15,-7 18,-12 -8,-2 -21,0 -18,12z"/>
  <path class="fil3" d="M529 1660c1,7 6,8 12,7 0,-2 0,-2 1,-3 0,-8 -6,-7 -13,-4z"/>
  <path class="fil3" d="M220 1591c-1,2 1,7 2,10 6,-1 8,-4 6,-10 -3,0 -4,-2 -8,0z"/>
  <path class="fil3" d="M932 1441c-4,2 -8,4 -9,8 4,2 12,-2 9,-8z"/>
  <path class="fil3" d="M890 1519c-11,-5 -22,9 -13,19 9,-4 12,-11 13,-19z"/>
  <path class="fil3" d="M992 1480c1,-4 1,-7 -1,-12 -7,2 -10,6 -11,12 3,1 7,2 12,0z"/>
  <path class="fil3" d="M818 1559c-3,-3 -9,-2 -15,-1 1,5 3,6 4,9 4,-1 12,-1 11,-8z"/>
  <path class="fil3" d="M107 1554c0,3 0,8 3,10 2,-1 4,-1 6,-2 1,-2 0,-6 -1,-9 -3,1 -5,-1 -8,1z"/>
  <path class="fil3" d="M73 1475c29,0 -5,-27 0,0l0 0z"/>
  <path class="fil3" d="M150 1512c2,7 6,9 11,5 -1,-9 -7,-10 -11,-5z"/>
  <path class="fil10" d="M1093 1078c-10,-13 -27,-20 -36,-31 -6,-7 -7,-14 -12,-18 -13,-12 -35,-8 -46,-17 -3,-3 -5,-12 -9,-19 -9,-15 -27,-31 -34,-47 -11,-24 -13,-46 -26,-61 -9,-12 -25,-17 -32,-29 -8,-16 -9,-38 -14,-54 -11,-37 -26,-70 -45,-93 -9,-11 -23,-21 -30,-33 -19,-31 -25,-52 -47,-70 -8,-7 -23,-14 -26,-20 -3,-6 -2,-14 -4,-19 -13,-31 -40,-34 -64,-56 13,-28 -20,-28 -27,-42 -3,-4 -1,-13 -3,-19 -6,-17 -24,-24 -28,-34 -6,-13 -1,-38 -5,-57 -7,-36 -27,-31 -41,-47 -13,-16 -27,-51 -60,-31 1,-25 -27,-25 -36,-38 -10,-15 -9,-32 -17,-43 -16,-21 -48,-26 -79,-20 38,-98 188,-176 317,-166 4,1 53,18 54,-2 1,-11 -24,-11 -35,-11 -153,-10 -314,73 -359,184 -31,-30 -81,-14 -109,16 -6,6 -14,25 -22,29 -20,10 -38,4 -54,18 -12,12 -18,35 -29,50 -10,14 -28,26 -35,45 -7,16 4,27 5,46 0,10 -17,22 -20,35 -8,28 6,54 24,71 0,17 -19,24 -21,40 -1,9 5,17 5,27 0,9 -11,19 -14,30 -4,16 -3,41 1,57 1,5 7,12 6,18 -1,12 -26,28 -33,43 -4,6 -11,20 -8,27 2,7 11,6 13,13 1,6 -11,21 -16,29 -13,23 -28,47 -29,73 0,13 9,26 10,37 2,23 -9,48 1,77 2,7 11,17 11,24 0,8 -14,20 -17,28 -12,23 -19,57 -11,91 4,17 13,24 16,42 4,25 -13,44 -13,67 -1,16 5,32 5,47 0,10 -6,24 -8,39 -2,14 -1,30 -2,44 -2,17 -7,35 -4,56 4,24 16,38 26,57 7,14 9,31 15,50 13,40 42,69 70,87 26,16 63,37 93,42 23,5 45,2 68,7 24,6 47,22 69,32 86,39 223,48 345,-11 28,-14 50,-35 78,-45 62,-24 126,-27 184,-58 85,-45 115,-115 149,-189 13,-26 24,-55 29,-79 4,-20 -10,-48 -11,-69 -1,-26 10,-48 7,-78 -3,-27 -17,-55 -30,-72zm-86 -54c19,-3 37,9 44,26 3,7 0,16 3,24 6,20 24,23 28,48 7,42 -28,74 -42,109 -10,25 -23,69 -33,85 -7,10 -18,26 -26,36 -25,29 -51,44 -100,62 -27,11 -33,29 -49,45 -31,32 -97,45 -147,52 -37,6 -71,1 -112,22 0,-19 -6,-50 -10,-75 25,11 61,7 97,-10 19,-9 33,-25 54,-33 19,-7 48,-7 67,-16 36,-15 49,-49 83,-59 14,22 38,45 64,40 40,-6 32,-62 21,-104 24,-22 46,-62 51,-97 3,-18 -1,-40 3,-61 6,-30 18,-59 4,-94zm-422 217c4,7 12,12 16,18 11,20 22,47 53,27 16,-10 25,-42 26,-54 3,-52 -32,-133 -3,-166 19,-22 22,17 28,31 5,11 15,24 24,32 6,6 15,8 20,15 14,22 12,51 27,72 13,18 36,21 50,37 15,17 16,42 24,63 -35,17 -55,49 -91,64 -17,6 -35,6 -55,14 -30,13 -49,53 -95,54 -19,1 -34,-7 -52,-9 -5,-33 -34,-84 -33,-124 0,-15 9,-34 9,-51 -1,-16 -1,-41 -5,-61 -6,-32 -17,-90 19,-86 17,2 17,41 20,58 4,21 8,48 18,66zm342 -337c7,16 5,39 14,56 6,10 21,12 28,22 23,33 32,78 24,113 -1,7 -7,13 -7,20 -3,30 6,53 -2,81 -6,22 -20,44 -45,58 -28,-44 -11,-95 -33,-141 -19,-44 -54,-78 -76,-120 -23,-44 -35,-98 -40,-148 0,-2 0,-25 5,-24 16,4 17,19 23,34 18,45 65,66 79,16 12,10 22,18 30,33zm-193 -307c15,7 32,21 40,32 12,13 13,29 25,51 7,12 25,20 36,34 19,25 31,57 41,95 -25,-14 -32,-36 -47,-65 -11,-24 -36,-45 -53,-60 -16,-14 -55,-46 -54,-64 0,-8 12,-16 12,-23zm-117 -85c1,-24 -11,-43 -28,-49 8,-11 15,-22 19,-35 30,11 32,69 9,84zm-217 -142c13,-1 17,-4 26,-10 4,14 14,18 24,22 -6,17 -25,21 -46,29 -8,-13 2,-28 -4,-41zm71 -21c-8,6 -6,21 -14,24 -24,10 -36,-43 -3,-41 4,9 12,11 17,17zm-6 -18c9,-2 17,-3 27,-6 4,10 -6,12 -9,18 -7,-2 -15,-3 -18,-12zm-17 79c7,2 14,11 25,13 37,8 80,-16 95,13 19,35 -20,22 -37,25 -19,4 -28,13 -43,21 -9,-10 -12,-20 -26,-22 -16,-2 -48,9 -59,-10 -4,-8 -3,-18 1,-23 0,0 42,-17 44,-17zm-116 61c23,-1 47,-10 58,-25 7,2 6,8 10,11 17,17 77,3 82,29 1,8 -17,44 -26,48 -6,2 -23,-4 -32,-6 -34,-6 -88,-12 -92,-57zm86 66c-30,18 -60,33 -88,19 -10,-5 -16,-17 -25,-22 -23,-13 -70,7 -67,-37 18,14 66,8 85,-16 18,43 59,44 95,56zm-20 -118c-8,16 -53,49 -65,25 -13,-29 40,-41 31,-71 40,-11 21,23 34,46zm-43 -35c-4,21 -47,39 -27,69 -15,15 -71,46 -79,17 -3,-10 18,-38 33,-54 19,-20 45,-34 49,-52 19,-11 28,5 24,20zm-96 47c-8,11 -13,31 -22,39 -11,11 -43,16 -49,7 -2,-3 -3,-20 -2,-22 7,-46 87,-61 112,-98 7,5 17,4 23,11 -17,23 -44,37 -62,63zm-30 63c-3,50 50,38 75,54 -26,12 -39,30 -63,31 -13,1 -19,-10 -30,-16 -13,-7 -40,-11 -42,-41 0,-12 8,-21 14,-32 12,6 30,4 46,4zm-22 94c11,2 19,9 33,6 25,39 7,92 -40,94 -5,0 -9,-5 -15,-5 -13,-1 -29,6 -41,-1 43,-20 65,-50 63,-94zm41 6c21,-6 36,-16 55,-24 42,62 38,132 -35,148 -19,4 -31,-2 -48,-6 -4,-6 -10,-8 -13,-16 43,-13 67,-54 41,-102zm66 -21c18,7 34,18 62,8 11,19 32,22 36,47 8,40 -31,60 -68,84 -26,17 -55,33 -82,16 85,-15 91,-88 52,-155zm95 31c-5,-7 -25,-18 -24,-26 0,-9 22,-14 25,-20 15,28 58,17 71,44 7,15 -4,42 -9,53 -13,31 -60,64 -100,53 30,-24 70,-59 37,-104zm83 9c-4,-44 -58,-31 -72,-60 5,-9 21,0 36,-4 11,-2 19,-9 22,-10 4,-1 11,4 17,4 21,2 44,-5 54,17 15,37 -22,67 -63,79 -2,-9 7,-17 6,-26zm57 -67c-14,-16 -38,-7 -59,-13 11,-12 12,-34 25,-40 38,-19 86,46 71,87 -5,14 -21,23 -35,33 1,-18 16,-45 -2,-67zm-16 -65c14,-2 31,-14 45,-15 11,0 26,16 30,26 6,19 -5,39 -13,50 -11,-37 -38,-55 -62,-61zm47 -30c-7,-56 -61,-29 -101,-35 -34,-5 -11,-20 -2,-38 5,-10 9,6 17,8 21,8 89,-36 103,-13 15,23 5,64 -17,78zm-75 -159c18,-16 41,-3 48,19 -12,2 -26,14 -40,14 1,-9 -1,-26 -8,-33zm92 70c-32,-17 -96,44 -113,-1 20,-35 106,-66 113,1zm-128 -105c1,-1 2,1 4,1 4,6 6,18 4,23 -5,3 -7,0 -11,2 -1,-9 1,-17 3,-26zm17 34c2,1 11,10 11,16 0,15 -33,12 -45,15 0,-9 14,-42 34,-31zm-238 -76c18,-26 55,-46 84,-28 6,5 13,15 19,16 17,4 42,-18 62,-10 22,8 38,46 38,72 0,17 -10,48 -26,65 -13,13 -41,31 -58,31 -7,0 -14,-9 -21,-10 -12,-1 -24,9 -35,3 -13,-8 -11,-27 -26,-41 -7,0 -14,-1 -22,-2 -3,-18 7,-31 -7,-45 -7,-6 -23,-1 -27,-10 -4,-11 11,-30 19,-41zm-34 32c-3,10 6,11 5,20 -1,19 -46,17 -66,29 -2,-27 31,-59 61,-49zm-59 57c27,-13 54,-12 70,-30 19,-20 35,16 26,34 -12,22 -62,23 -91,41 -19,11 -22,24 -37,34 -25,-32 2,-65 32,-79zm-28 90c4,-15 30,-37 50,-45 28,-11 61,-14 77,-32 14,4 38,2 39,29 1,29 -76,49 -101,78 -9,11 -13,25 -15,38 -15,-9 -39,-7 -47,-24 -7,-13 -5,-35 -3,-44zm-6 63c14,10 48,10 53,29 3,15 -30,51 5,71 -24,0 -52,-10 -56,-37 -1,-5 2,-10 2,-15 0,-17 -10,-33 -4,-48zm-17 -46c-2,16 11,26 12,35 2,11 -12,21 -4,36 -24,-10 -28,-58 -8,-71zm1 111c0,16 11,26 17,36 -11,5 -16,-1 -23,-2 -4,-15 -6,-28 6,-34zm-4 44c5,-3 13,3 17,3 4,-1 7,-5 11,-5 11,0 20,11 29,14 3,24 -61,62 -73,31 -2,-6 5,-39 16,-43zm-17 56c13,5 18,9 30,6 29,-7 39,-31 53,-47 4,-5 23,6 30,0 30,69 -112,149 -113,41zm-62 226c1,-17 14,-33 24,-52 5,-10 26,-43 23,-52 -3,-9 -11,-4 -14,-13 -3,-9 25,-52 37,-54 4,-1 12,9 19,12 7,2 28,9 37,10 11,1 25,-4 33,-2 21,4 36,32 58,39 7,3 15,2 22,4 8,3 15,10 24,12 14,2 35,-4 47,-9 9,-4 15,-13 23,-16 17,-5 36,7 61,0 17,-5 33,-14 48,-25 13,-10 17,-27 29,-34 10,-5 22,-5 30,-8 11,-5 18,-13 27,-18 18,-8 31,-15 41,-29 8,-11 12,-24 17,-37 5,-12 5,-28 11,-40 3,-6 10,-8 14,-13 6,-9 8,-25 15,-36 1,0 2,1 3,0 11,9 2,17 5,28 9,26 51,26 56,64 -14,8 -29,14 -26,34 4,32 32,49 52,63 17,13 32,23 49,34 26,16 31,43 46,70 14,23 39,37 47,64 6,15 3,32 -5,36 -46,20 -42,-113 -99,-76 -20,14 -14,50 -5,85 14,46 37,98 58,137 20,37 61,66 73,105 10,29 9,66 16,101 10,43 35,92 13,117 -15,18 -33,4 -44,-10 -22,-28 -28,-73 -46,-98 -12,-18 -41,-20 -58,-42 -14,-19 -16,-51 -31,-73 -8,-11 -23,-12 -31,-33 -12,-32 -25,-96 -56,-49 -7,11 -12,25 -14,36 -11,51 22,128 12,173 -4,21 -28,39 -46,20 -4,-4 -5,-13 -9,-20 -6,-11 -16,-23 -20,-33 -10,-28 -9,-62 -13,-83 -5,-25 -24,-56 -40,-53 -20,3 -39,60 -38,79 3,33 14,64 14,97 -1,52 0,98 10,147 11,55 67,155 -11,163 -30,3 -56,-35 -66,-79 -11,-54 -19,-156 -48,-197 -9,-12 -26,-30 -34,-49 -12,-31 -7,-61 -7,-92 1,-29 3,-61 -2,-89 -5,-32 -15,-40 -40,-44 -9,-48 28,-83 29,-129 0,-20 -3,-55 -21,-56 -35,-2 -61,47 -66,65 -12,46 16,110 4,160 -12,53 -40,93 -32,137 8,52 26,99 -9,126 -26,20 -56,4 -67,-18 -11,-22 -21,-63 -27,-84 -5,-20 -4,-42 -1,-57 2,-16 13,-28 12,-43 -1,-12 -8,-23 -9,-35 0,-10 2,-23 5,-31 10,-39 51,-69 48,-110 -1,-22 -12,-41 -10,-62 3,-23 22,-45 10,-73 -10,-20 -29,-4 -51,-2 -6,-11 8,-24 -3,-38 -35,4 -51,38 -65,65 -6,10 -42,65 -38,13zm4 351c2,-14 14,-32 11,-45 -1,-5 -7,-10 -9,-15 -23,-48 -14,-86 0,-117 5,-11 19,-27 19,-38 1,-17 -9,-37 -11,-54 -2,-14 -4,-36 2,-46 4,-6 16,-10 21,-15 18,-18 26,-46 39,-69 3,-5 5,-8 14,-7 7,9 3,15 10,21 10,9 21,-4 31,-1 19,4 11,38 9,50 -3,20 -3,45 -1,56 2,7 6,13 7,18 0,10 -10,26 -13,33 -11,26 -33,69 -37,98 -2,19 5,37 6,59 0,30 -24,60 -7,105 17,44 26,116 77,111 33,-3 49,-32 53,-51 8,-34 -15,-74 -11,-115 5,-47 35,-84 37,-132 3,-56 -17,-117 9,-162 11,-18 41,-36 44,7 1,18 -12,37 -20,55 -11,30 -21,99 28,94 27,86 -15,166 39,244 4,6 12,11 16,19 18,39 15,86 35,126 -25,9 -42,8 -58,0 -8,-4 -12,-13 -19,-16 -7,-2 -17,0 -26,-3 -8,-2 -16,-4 -23,-6 -9,-4 -17,-14 -25,-17 -11,-3 -32,-6 -41,-6 -25,1 -39,14 -66,15 -48,2 -102,-40 -116,-100 -1,-6 1,-13 -2,-19 -3,-8 -9,-9 -13,-19 -9,-22 -11,-41 -9,-58zm-12 149c-4,-23 1,-46 6,-66 12,0 15,21 21,37 13,33 28,60 55,77 25,15 66,28 94,22 30,-5 54,-10 84,-4 15,3 36,7 49,13 30,17 53,47 106,24 7,30 6,59 22,87 -48,27 -89,17 -120,-4 -12,-8 -22,-27 -36,-32 -13,-6 -36,-3 -54,-7 -33,-8 -62,-22 -94,-36 -17,-7 -29,-19 -43,-26 -8,-4 -17,-4 -25,-7 -25,-12 -58,-40 -65,-78zm1102 -196c3,27 -12,55 -7,86 2,15 11,30 13,46 3,25 -19,63 -29,87 -24,58 -52,119 -106,162 -55,44 -144,53 -220,81 -44,16 -73,47 -115,63 -85,32 -167,29 -230,18 -29,-5 -52,-10 -76,-22 -23,-11 -43,-28 -68,-34 -16,-4 -33,-1 -48,-3 -59,-8 -120,-36 -158,-84 -18,-23 -19,-56 -34,-89 -5,-10 -16,-17 -21,-28 -11,-22 -12,-44 -8,-68 38,61 101,85 160,109 18,8 37,16 56,21 19,5 41,4 60,10 17,6 32,25 48,35 30,20 72,35 123,4 22,33 56,42 91,23 11,-7 15,-20 24,-26 9,-7 28,-13 42,-16 69,-16 171,-6 225,-63 9,-10 12,-22 20,-29 25,-21 69,-26 95,-45 27,-19 58,-68 58,-69 8,-6 11,-15 14,-24 10,-16 13,-39 22,-61 15,-38 45,-69 43,-110 -2,-31 -26,-35 -29,-62 27,9 50,50 55,88z"/>
  <path class="fil10" d="M297 235c23,-5 11,-47 -5,-39 -10,6 -19,43 5,39zm2 -28c6,5 4,18 -6,19 -7,-5 -3,-16 6,-19z"/>
  <path class="fil10" d="M654 542c-2,1 -5,1 -6,2 -6,4 -31,55 -31,58 0,4 5,10 8,12 28,20 37,-54 29,-72zm-6 20c-1,18 4,39 -14,47 -17,-16 5,-35 14,-47z"/>
  <path class="fil10" d="M174 747c-5,-9 -24,-33 -36,-38 -14,-6 -32,10 -25,24 8,17 41,12 61,14zm-17 -7c-12,-2 -32,0 -36,-11 -8,-23 36,-10 36,11z"/>
  <path class="fil10" d="M267 773c-2,-3 -29,-11 -31,-4 -6,16 -12,44 -16,57 24,-1 70,-31 47,-53zm-6 5c14,13 -15,35 -32,39 2,-15 14,-54 32,-39z"/>
  <path class="fil10" d="M504 765c-3,-17 -4,-56 -20,-61 -14,-4 -34,14 -34,25 0,20 39,33 54,36zm-23 -52c10,7 12,26 14,40 -20,0 -56,-32 -14,-40z"/>
  <path class="fil10" d="M389 830c12,-18 15,-69 -11,-75 -12,-2 -30,8 -27,20 1,6 15,20 20,30 6,11 8,22 18,25zm-14 -68c19,1 19,42 12,54 -9,-7 -45,-54 -12,-54z"/>
  <path class="fil10" d="M672 742c10,-6 31,-19 33,-31 1,-13 -10,-27 -17,-29 -31,-13 -20,38 -16,60zm5 -12c-5,-13 -1,-28 -2,-42 27,-2 25,36 2,42z"/>
  <path class="fil10" d="M628 741c0,-15 -13,-35 -24,-35 -27,0 -21,23 -23,40 -3,21 -5,36 -4,54 16,-10 52,-36 51,-59zm-45 44c0,-15 -1,-81 25,-68 5,2 12,13 12,24 1,18 -22,32 -37,44z"/>
  <path class="fil10" d="M736 788c12,1 19,-22 22,-29 5,-14 10,-23 7,-38 -11,4 -43,41 -41,52 0,4 8,15 12,15zm19 -52c0,18 -8,31 -16,43 -16,-14 7,-32 16,-43z"/>
  <path class="fil10" d="M474 944c5,-17 7,-73 -17,-78 -14,-3 -31,16 -29,29 4,20 36,45 46,49zm-37 -51c-2,-10 9,-21 18,-19 16,4 16,46 13,57 -8,-6 -29,-23 -31,-38z"/>
  <path class="fil10" d="M639 856c-3,14 22,27 30,34 10,7 20,15 30,17 -6,-21 5,-54 -8,-74 -11,-18 -50,9 -52,23zm44 -19c12,9 1,43 8,55 -5,-4 -42,-20 -43,-32 -1,-8 25,-32 35,-23z"/>
  <path class="fil10" d="M415 1028c6,-30 -25,-96 -52,-54 12,27 33,41 52,54zm-8 -16c-14,-8 -26,-19 -35,-38 23,-22 31,21 35,38z"/>
  <path class="fil10" d="M161 1074c-5,3 -13,9 -12,16 0,9 23,57 33,52 9,-5 22,-93 -21,-68zm17 46c-10,-8 -7,-27 -15,-39 4,-1 8,-2 12,-4 14,11 5,31 3,43z"/>
  <path class="fil10" d="M553 1037c18,-6 54,-47 36,-71 -10,-14 -29,-5 -38,6 5,24 1,43 2,65zm15 -70c6,-2 14,1 16,6 11,18 -14,42 -25,52 3,-17 -8,-52 9,-58z"/>
  <path class="fil10" d="M732 1034c1,7 10,26 16,26 15,0 17,-42 19,-55 1,-10 2,-28 -4,-32 -5,17 -33,40 -31,61zm19 17c-22,-16 -5,-47 9,-56 -3,19 -3,39 -9,56z"/>
  <path class="fil10" d="M167 1280c5,14 23,13 30,2 6,-11 3,-64 -6,-73 -6,17 -31,49 -24,71zm17 1c-19,3 -5,-42 5,-49 0,15 11,47 -5,49z"/>
  <path class="fil10" d="M420 1166c1,27 -6,54 -3,78 27,-8 57,-98 3,-78zm3 62c-2,-22 2,-39 6,-58 30,7 5,45 -6,58z"/>
  <path class="fil10" d="M596 1129c-5,18 18,76 29,61 -2,-25 14,-49 -4,-76 -10,3 -21,4 -25,15zm23 51c-8,-13 -28,-53 -2,-58 13,18 2,40 2,58z"/>
  <path class="fil10" d="M812 1135c2,6 18,17 23,21 7,7 15,15 27,16 -1,-5 4,-7 3,-11 -1,-9 -16,-59 -17,-60 -16,-14 -41,20 -36,34zm31 -28c13,11 0,39 12,54 -10,-8 -32,-15 -36,-28 -3,-10 12,-36 24,-26z"/>
  <path class="fil10" d="M93 1463c-3,-6 -14,-11 -22,-6 -4,3 -10,15 -5,23 7,11 34,-2 27,-17zm-20 12c-5,-27 29,0 0,0l0 0z"/>
  <path class="fil10" d="M891 1305c3,5 17,6 22,3 16,-10 -9,-27 -14,-43 -3,-8 1,-20 -9,-20 8,18 -10,45 1,60zm18 -4c-15,6 -15,-15 -12,-24 6,3 16,15 12,24z"/>
  <path class="fil10" d="M471 1400c10,20 -11,46 0,65 6,10 28,4 30,-6 1,-14 -25,-51 -27,-60 -1,0 -2,1 -3,1zm19 59c-21,10 -13,-24 -12,-34 6,7 12,24 12,34z"/>
  <path class="fil10" d="M149 1502c-26,15 21,39 20,13 0,-11 -13,-17 -20,-13zm12 15c-5,4 -9,2 -11,-5 4,-5 10,-4 11,5z"/>
  <path class="fil10" d="M119 1546c-15,-4 -25,3 -16,22 5,4 18,1 21,-5 2,-6 -3,-10 -5,-17zm-3 16c-2,1 -4,1 -6,2 -3,-2 -3,-7 -3,-10 3,-2 5,0 8,-1 1,3 2,7 1,9z"/>
  <path class="fil10" d="M1094 1275c-11,-19 -42,7 -23,29 16,-1 32,-15 23,-29zm-19 20c-6,-36 34,-5 0,0l0 0z"/>
  <path class="fil10" d="M244 1543c9,-1 39,6 41,-5 2,-19 -44,-17 -41,5zm14 -7c0,-7 14,-5 16,1 -6,1 -12,1 -16,-1z"/>
  <path class="fil10" d="M214 1597c0,3 0,6 1,10 14,7 25,-7 19,-23 -11,-4 -42,3 -20,13zm8 4c-1,-3 -3,-8 -2,-10 4,-2 5,0 8,0 2,6 0,9 -6,10z"/>
  <path class="fil10" d="M1040 1373c-18,-7 -42,16 -23,33 18,-1 30,-14 23,-33zm-3 7c0,10 -6,15 -16,20 -9,-11 5,-23 16,-20z"/>
  <path class="fil10" d="M331 1593c-11,0 -21,17 -15,26 7,11 28,-1 34,-10 -9,-7 -9,-16 -19,-16zm-8 22c-4,-8 2,-12 11,-14 11,8 -1,18 -11,14z"/>
  <path class="fil10" d="M935 1429c-7,7 -25,12 -24,21 3,21 49,-2 24,-21zm-3 12c3,6 -5,10 -9,8 1,-4 5,-6 9,-8z"/>
  <path class="fil10" d="M626 1547c-54,11 25,49 0,0l0 0zm-12 13c1,-3 5,-3 9,-4 5,9 -8,14 -9,4z"/>
  <path class="fil10" d="M994 1455c-8,3 -26,16 -23,27 8,19 46,-3 23,-27zm-3 13c2,5 2,8 1,12 -5,2 -9,1 -12,0 1,-6 4,-10 11,-12z"/>
  <path class="fil10" d="M391 1667c15,2 19,-18 17,-25 -21,-18 -36,22 -17,25zm5 -20c1,4 4,3 4,7 -2,13 -19,-4 -4,-7z"/>
  <path class="fil10" d="M446 1648c19,6 26,-14 40,-20 -12,-15 -51,-8 -40,20zm7 -7c-3,-12 10,-14 18,-12 -3,5 -10,13 -18,12z"/>
  <path class="fil10" d="M897 1511c-9,-16 -49,20 -21,37 12,-6 28,-25 21,-37zm-7 8c-1,8 -4,15 -13,19 -9,-10 2,-24 13,-19z"/>
  <path class="fil10" d="M734 1583c11,-4 10,-20 11,-31 -29,-8 -34,38 -11,31zm2 -21c2,6 -1,11 -5,14 0,-2 -2,-1 -3,-1 -5,-8 3,-14 8,-13z"/>
  <path class="fil10" d="M826 1564c-3,-19 -20,-12 -32,-15 -6,17 21,34 32,15zm-23 -6c6,-1 12,-2 15,1 1,7 -7,7 -11,8 -1,-3 -3,-4 -4,-9z"/>
  <path class="fil10" d="M524 1655c-7,8 8,23 18,18 20,-9 -5,-34 -18,-18zm18 9c-1,1 -1,1 -1,3 -6,1 -11,0 -12,-7 7,-3 13,-4 13,4z"/>
  <path class="fil10" d="M623 1630c-19,-4 -33,36 -13,37 13,0 24,-27 13,-37zm-14 29c-5,-11 4,-19 12,-19 1,9 -2,16 -12,19z"/>
 </g>
</svg>
