<?xml version="1.0" encoding="UTF-8"?>
<!DOCTYPE svg PUBLIC "-//W3C//DTD SVG 1.1//EN" "http://www.w3.org/Graphics/SVG/1.1/DTD/svg11.dtd">
<!-- Creator: CorelDRAW X8 -->
<svg xmlns="http://www.w3.org/2000/svg" xml:space="preserve" width="1.87191in" height="1.87191in" version="1.1" style="shape-rendering:geometricPrecision; text-rendering:geometricPrecision; image-rendering:optimizeQuality; fill-rule:evenodd; clip-rule:evenodd"
viewBox="0 0 803 803"
 xmlns:xlink="http://www.w3.org/1999/xlink">
 <defs>
  <style type="text/css">
   <![CDATA[
    .fil4 {fill:#89311F}
    .fil1 {fill:#C6364D}
    .fil0 {fill:#F24660}
    .fil2 {fill:#FBCF93}
    .fil3 {fill:white}
   ]]>
  </style>
 </defs>
 <g id="Objects">
  <metadata id="CorelCorpID_0Corel-Layer"/>
  <path class="fil0" d="M401 803c222,0 402,-180 402,-402 0,-221 -180,-401 -402,-401 -221,0 -401,180 -401,401 0,222 180,402 401,402z"/>
  <path class="fil1" d="M387 716l115 -593 300 297c-8,190 -149,346 -333,377l-82 -81z"/>
  <polygon class="fil2" points="277,313 526,315 413,716 387,716 "/>
  <path class="fil3" d="M258 285c3,23 11,46 17,70 8,30 48,71 69,-9 8,-32 43,26 70,25 32,-1 35,-78 60,-25 25,49 52,12 52,11 9,-32 16,-34 21,-80l0 -1c10,-52 -8,-108 -52,-144 -64,-52 -158,-42 -209,22 -31,38 -40,87 -28,131l0 0z"/>
  <path class="fil4" d="M276 147c56,-69 157,-80 226,-24 42,33 62,84 59,134 -1,12 -24,12 -48,-18 -22,-29 -39,-69 -53,-52 -55,69 -97,-10 -121,-5 -34,8 -50,53 -68,67 -18,12 -33,1 -29,-26 4,-27 15,-53 34,-76z"/>
 </g>
</svg>
