<?xml version="1.0" encoding="UTF-8"?>
<!DOCTYPE svg PUBLIC "-//W3C//DTD SVG 1.1//EN" "http://www.w3.org/Graphics/SVG/1.1/DTD/svg11.dtd">
<!-- Creator: CorelDRAW X7 -->
<svg xmlns="http://www.w3.org/2000/svg" xml:space="preserve" width="2.375in" height="3.50511in" version="1.1" style="shape-rendering:geometricPrecision; text-rendering:geometricPrecision; image-rendering:optimizeQuality; fill-rule:evenodd; clip-rule:evenodd"
viewBox="0 0 2415 3564"
 xmlns:xlink="http://www.w3.org/1999/xlink">
 <defs>
  <style type="text/css">
   <![CDATA[
    .fil0 {fill:#3A3B3C}
   ]]>
  </style>
 </defs>
 <g id="Layer_x0020_1">
  <metadata id="CorelCorpID_0Corel-Layer"/>
  <path class="fil0" d="M2203 3289c0,34 -29,64 -63,64l-1865 0c-34,0 -63,-30 -63,-64l0 -3014c0,-34 29,-63 63,-63l1865 0c34,0 63,29 63,63l0 3014zm-63 -3289l-1865 0c-151,0 -275,124 -275,275l0 3014c0,152 124,275 275,275l1865 0c152,0 275,-123 275,-275l0 -3014c0,-151 -123,-275 -275,-275z"/>
  <path class="fil0" d="M1962 404l-1508 0c-35,0 -62,28 -62,62l0 1569c0,34 27,62 62,62l1508 0c34,0 61,-28 61,-62l0 -1569c0,-34 -27,-62 -61,-62z"/>
  <path class="fil0" d="M1387 2730l-333 181c-18,10 -39,-3 -39,-23l0 -363c0,-21 21,-33 39,-24l333 182c18,10 18,37 0,47zm-179 -490c-258,0 -466,209 -466,466 0,258 208,466 466,466 257,0 466,-208 466,-466 0,-257 -209,-466 -466,-466z"/>
 </g>
</svg>
