<?xml version="1.0" encoding="UTF-8"?>
<!DOCTYPE svg PUBLIC "-//W3C//DTD SVG 1.1//EN" "http://www.w3.org/Graphics/SVG/1.1/DTD/svg11.dtd">
<!-- Creator: CorelDRAW X7 -->
<svg xmlns="http://www.w3.org/2000/svg" xml:space="preserve" width="3.24617in" height="2.13631in" version="1.1" style="shape-rendering:geometricPrecision; text-rendering:geometricPrecision; image-rendering:optimizeQuality; fill-rule:evenodd; clip-rule:evenodd"
viewBox="0 0 1046 689"
 xmlns:xlink="http://www.w3.org/1999/xlink">
 <defs>
  <style type="text/css">
   <![CDATA[
    .fil3 {fill:#231F1F;fill-rule:nonzero}
    .fil0 {fill:#CC3148;fill-rule:nonzero}
    .fil2 {fill:#F0DFC8;fill-rule:nonzero}
    .fil1 {fill:#FD7987;fill-rule:nonzero}
   ]]>
  </style>
 </defs>
 <g id="OBJECTS">
  <metadata id="CorelCorpID_0Corel-Layer"/>
  <path class="fil0" d="M1 74c0,-72 79,-74 79,-74l55 0 95 0 654 0 95 0 23 0c24,0 44,20 44,44l0 49 0 537c0,0 0,47 -82,57l-963 -613z"/>
  <path class="fil1" d="M834 38l95 0 23 0c24,0 44,20 44,44l0 49 0 514c0,24 -19,43 -43,43l-24 1 -514 0 -348 0 -23 -1c-24,0 -44,-19 -44,-43l0 -514 0 -49c0,-24 20,-44 44,-44l24 0 94 0 672 0z"/>
  <path class="fil2" d="M620 335c16,-50 70,-77 120,-60 12,4 23,10 32,18l0 0c23,20 37,50 32,82 -10,58 -54,90 -106,84 -13,-2 -25,-6 -35,-12l0 1c-39,-22 -58,-69 -43,-113z"/>
  <path class="fil3" d="M652 346c10,-32 45,-50 77,-39 8,2 15,6 21,12l0 -1c14,13 23,33 20,53 -6,38 -34,58 -68,54 -8,-1 -16,-4 -23,-7l1 0c-25,-14 -38,-44 -28,-72z"/>
  <path class="fil2" d="M891 365c0,-101 -81,-182 -182,-182 -100,0 -181,81 -181,182 0,100 81,181 181,181 101,0 182,-81 182,-181zm-352 0l0 0c0,-94 77,-170 170,-170 94,0 171,76 171,170 0,93 -77,170 -171,170 -93,0 -170,-77 -170,-170z"/>
  <path class="fil3" d="M308 689l0 -58c0,-13 11,-24 24,-24 14,0 24,11 24,24l0 58 -48 0z"/>
  <path class="fil3" d="M198 689l0 -58c0,-13 10,-24 24,-24 13,0 24,11 24,24l0 58 -48 0z"/>
  <polygon class="fil3" points="340,87 254,87 254,137 340,137 "/>
  <polygon class="fil2" points="274,120 274,104 315,113 "/>
  <polygon class="fil3" points="446,87 361,87 361,137 446,137 "/>
  <polygon class="fil2" points="416,99 392,99 392,122 416,122 "/>
  <polygon class="fil3" points="552,87 466,87 466,137 552,137 "/>
  <path class="fil2" d="M522 112c0,-7 -6,-13 -13,-13 -7,0 -13,6 -13,13 0,7 6,13 13,13 7,0 13,-6 13,-13z"/>
  <polygon class="fil3" points="657,87 571,87 571,137 657,137 "/>
  <polygon class="fil2" points="607,99 599,99 599,126 607,126 "/>
  <polygon class="fil2" points="626,99 619,99 619,126 626,126 "/>
  <polygon class="fil3" points="762,87 677,87 677,137 762,137 "/>
  <path class="fil2" d="M729 114c0,6 -5,11 -12,11 -6,0 -12,-5 -12,-11 0,-6 4,-11 10,-12l0 -3 5 0 0 3c5,1 9,6 9,12z"/>
  <path class="fil2" d="M491 675c-17,0 -31,-14 -31,-31 0,-17 14,-31 31,-31 17,0 31,14 31,31 0,17 -14,31 -31,31zm0 -57l0 0c-14,0 -26,12 -26,26 0,14 12,26 26,26 14,0 26,-12 26,-26 0,-14 -12,-26 -26,-26z"/>
  <path class="fil2" d="M473 248l-63 0c-1,0 -2,-1 -2,-2 0,-1 1,-3 2,-3l63 0c1,0 2,2 2,3 0,1 -1,2 -2,2z"/>
  <path class="fil2" d="M473 329l-63 0c-1,0 -2,-1 -2,-2 0,-2 1,-3 2,-3l63 0c1,0 2,1 2,3 0,1 -1,2 -2,2z"/>
  <path class="fil2" d="M473 410l-63 0c-1,0 -2,-1 -2,-3 0,-1 1,-2 2,-2l63 0c1,0 2,1 2,2 0,2 -1,3 -2,3z"/>
  <path class="fil2" d="M88 248l-62 0c-2,0 -3,-1 -3,-2 0,-1 1,-3 3,-3l62 0c1,0 2,2 2,3 0,1 -1,2 -2,2z"/>
  <path class="fil2" d="M88 329l-62 0c-2,0 -3,-1 -3,-2 0,-2 1,-3 3,-3l62 0c1,0 2,1 2,3 0,1 -1,2 -2,2z"/>
  <path class="fil2" d="M88 410l-62 0c-2,0 -3,-1 -3,-3 0,-1 1,-2 3,-2l62 0c1,0 2,1 2,2 0,2 -1,3 -2,3z"/>
  <path class="fil2" d="M88 481l-62 0c-2,0 -3,-1 -3,-3 0,-1 1,-2 3,-2l62 0c1,0 2,1 2,2 0,2 -1,3 -2,3z"/>
  <path class="fil2" d="M516 490l-106 0c-1,0 -2,-1 -2,-2 0,-1 1,-3 2,-3l106 0c1,0 2,2 2,3 0,1 -1,2 -2,2z"/>
  <path class="fil2" d="M995 248l-63 0c-1,0 -2,-1 -2,-2 0,-1 1,-3 2,-3l63 0c1,0 2,2 2,3 0,1 -1,2 -2,2z"/>
  <path class="fil2" d="M995 329l-63 0c-1,0 -2,-1 -2,-2 0,-2 1,-3 2,-3l63 0c1,0 2,1 2,3 0,1 -1,2 -2,2z"/>
  <path class="fil2" d="M995 410l-63 0c-1,0 -2,-1 -2,-3 0,-1 1,-2 2,-2l63 0c1,0 2,1 2,2 0,2 -1,3 -2,3z"/>
  <path class="fil2" d="M995 490l-106 0c-1,0 -2,-1 -2,-2 0,-1 1,-3 2,-3l106 0c1,0 2,2 2,3 0,1 -1,2 -2,2z"/>
  <path class="fil3" d="M501 645c0,5 -4,10 -10,10 -5,0 -10,-5 -10,-10 0,-6 5,-10 10,-10 6,0 10,4 10,10z"/>
  <path class="fil2" d="M571 675c-17,0 -30,-14 -30,-31 0,-17 13,-31 30,-31 17,0 31,14 31,31 0,17 -14,31 -31,31zm0 -57l0 0c-14,0 -25,12 -25,26 0,14 11,26 25,26 15,0 26,-12 26,-26 0,-14 -11,-26 -26,-26z"/>
  <path class="fil0" d="M581 645c0,5 -4,10 -10,10 -5,0 -10,-5 -10,-10 0,-6 5,-10 10,-10 6,0 10,4 10,10z"/>
  <path class="fil2" d="M651 675c-17,0 -30,-14 -30,-31 0,-17 13,-31 30,-31 17,0 31,14 31,31 0,17 -14,31 -31,31zm0 -57l0 0c-14,0 -25,12 -25,26 0,14 11,26 25,26 15,0 26,-12 26,-26 0,-14 -11,-26 -26,-26z"/>
  <path class="fil3" d="M661 645c0,5 -4,10 -10,10 -5,0 -10,-5 -10,-10 0,-6 5,-10 10,-10 6,0 10,4 10,10z"/>
  <path class="fil2" d="M732 675c-17,0 -31,-14 -31,-31 0,-17 14,-31 31,-31 17,0 30,14 30,31 0,17 -13,31 -30,31zm0 -57l0 0c-15,0 -26,12 -26,26 0,14 11,26 26,26 14,0 25,-12 25,-26 0,-14 -11,-26 -25,-26z"/>
  <path class="fil3" d="M742 645c0,5 -5,10 -10,10 -6,0 -10,-5 -10,-10 0,-6 4,-10 10,-10 5,0 10,4 10,10z"/>
  <path class="fil2" d="M812 675c-17,0 -31,-14 -31,-31 0,-17 14,-31 31,-31 17,0 30,14 30,31 0,17 -13,31 -30,31zm0 -57l0 0c-15,0 -26,12 -26,26 0,14 11,26 26,26 14,0 25,-12 25,-26 0,-14 -11,-26 -25,-26z"/>
  <path class="fil3" d="M822 645c0,5 -5,10 -10,10 -6,0 -10,-5 -10,-10 0,-6 4,-10 10,-10 5,0 10,4 10,10z"/>
  <path class="fil2" d="M124 605c0,22 -18,41 -41,41 -22,0 -40,-19 -40,-41 0,-22 18,-41 40,-41 23,0 41,19 41,41z"/>
  <path class="fil0" d="M83 632c-15,0 -27,-12 -27,-27 0,-15 12,-27 27,-27 15,0 27,12 27,27 0,15 -12,27 -27,27z"/>
  <path class="fil2" d="M124 111c0,22 -18,40 -41,40 -22,0 -40,-18 -40,-40 0,-23 18,-41 40,-41 23,0 41,18 41,41z"/>
  <path class="fil0" d="M83 138c-15,0 -27,-12 -27,-27 0,-15 12,-27 27,-27 15,0 27,12 27,27 0,15 -12,27 -27,27z"/>
  <path class="fil2" d="M956 111c0,22 -18,40 -40,40 -23,0 -41,-18 -41,-40 0,-23 18,-41 41,-41 22,0 40,18 40,41z"/>
  <path class="fil0" d="M916 138c-15,0 -27,-12 -27,-27 0,-15 12,-27 27,-27 15,0 27,12 27,27 0,15 -12,27 -27,27z"/>
  <path class="fil2" d="M956 607c0,22 -18,40 -40,40 -23,0 -41,-18 -41,-40 0,-23 18,-41 41,-41 22,0 40,18 40,41z"/>
  <path class="fil0" d="M916 634c-15,0 -27,-12 -27,-27 0,-15 12,-27 27,-27 15,0 27,12 27,27 0,15 -12,27 -27,27z"/>
  <path class="fil2" d="M260 255c-60,0 -109,49 -109,110 0,60 49,109 109,109 60,0 109,-49 109,-109 0,-61 -49,-110 -109,-110z"/>
  <path class="fil0" d="M338 362c0,43 -34,78 -77,78 -43,0 -78,-35 -78,-78 0,-43 35,-78 78,-78 43,0 77,35 77,78z"/>
  <polygon class="fil2" points="776,416 643,331 651,318 785,403 "/>
  <path class="fil2" d="M240 633c0,10 -8,18 -18,18 -10,0 -18,-8 -18,-18 0,-10 8,-18 18,-18 10,0 18,8 18,18z"/>
  <path class="fil2" d="M350 633c0,10 -8,18 -18,18 -10,0 -18,-8 -18,-18 0,-10 8,-18 18,-18 10,0 18,8 18,18z"/>
 </g>
</svg>
