<?xml version="1.0" encoding="UTF-8"?>
<!DOCTYPE svg PUBLIC "-//W3C//DTD SVG 1.1//EN" "http://www.w3.org/Graphics/SVG/1.1/DTD/svg11.dtd">
<!-- Creator: CorelDRAW X7 -->
<svg xmlns="http://www.w3.org/2000/svg" xml:space="preserve" width="0.877512in" height="0.718193in" version="1.1" style="shape-rendering:geometricPrecision; text-rendering:geometricPrecision; image-rendering:optimizeQuality; fill-rule:evenodd; clip-rule:evenodd"
viewBox="0 0 172 141"
 xmlns:xlink="http://www.w3.org/1999/xlink">
 <defs>
  <style type="text/css">
   <![CDATA[
    .fil2 {fill:#FEFEFE}
    .fil1 {fill:#74CBF2}
    .fil0 {fill:#777876}
   ]]>
  </style>
 </defs>
 <g id="Layer_x0020_1">
  <metadata id="CorelCorpID_0Corel-Layer"/>
  <path class="fil0" d="M9 31c-5,0 -9,5 -9,11l0 88c0,6 4,11 10,11l152 0c5,0 10,-5 10,-11l0 -88c0,-6 -4,-11 -11,-11 0,-3 -1,-8 -3,-10 -1,-1 -2,-1 -3,-1l-30 0c-5,0 -5,6 -6,11l-4 0 -7 -26c-1,-3 -3,-5 -6,-5l-30 1c-4,0 -6,1 -7,4l-7 26 -49 0z"/>
  <path class="fil1" d="M44 104c-4,-12 -4,-24 0,-36 5,-11 14,-20 24,-25 6,-2 12,-3 18,-3 6,0 12,1 18,3 10,5 19,14 23,25 5,12 5,24 0,36 -4,11 -13,20 -23,24 -12,5 -24,5 -36,0 -10,-4 -19,-13 -24,-24l0 0z"/>
  <polygon class="fil2" points="102,31 70,31 75,13 98,12 103,31 "/>
  <path class="fil0" d="M106 65c-20,-21 -55,-2 -50,28 5,26 39,33 54,11 8,-12 6,-29 -4,-39l0 0z"/>
 </g>
</svg>
