<?xml version="1.0" encoding="UTF-8"?>
<!DOCTYPE svg PUBLIC "-//W3C//DTD SVG 1.1//EN" "http://www.w3.org/Graphics/SVG/1.1/DTD/svg11.dtd">
<!-- Creator: CorelDRAW X7 -->
<svg xmlns="http://www.w3.org/2000/svg" xml:space="preserve" width="0.877516in" height="0.634531in" version="1.1" style="shape-rendering:geometricPrecision; text-rendering:geometricPrecision; image-rendering:optimizeQuality; fill-rule:evenodd; clip-rule:evenodd"
viewBox="0 0 101 73"
 xmlns:xlink="http://www.w3.org/1999/xlink">
 <defs>
  <style type="text/css">
   <![CDATA[
    .fil1 {fill:#FEFEFE}
    .fil2 {fill:#74CBF2}
    .fil0 {fill:#777876}
   ]]>
  </style>
 </defs>
 <g id="Layer_x0020_1">
  <metadata id="CorelCorpID_0Corel-Layer"/>
  <path class="fil0" d="M6 10c-3,0 -6,3 -6,6l0 3 14 0 0 0 2 0 0 1 0 1 0 41 0 1 0 1 -2 0 0 0 -14 0 0 3c0,3 3,6 6,6l89 0c4,0 6,-3 6,-6l0 -51c0,-3 -2,-6 -6,-6l-2 0 -1 -7c-1,-2 -2,-3 -4,-3l-12 0 -12 0c-2,0 -4,1 -4,3l-2 7 -52 0z"/>
  <polygon class="fil0" points="0,23 0,61 12,61 12,23 "/>
  <path class="fil1" d="M51 19c3,0 6,0 8,1l0 0c3,2 6,3 8,5l0 0c2,2 4,5 5,8l0 0c1,3 2,5 2,9 0,3 -1,6 -2,8l0 0c-1,3 -3,6 -5,8l0 0c-2,2 -5,4 -8,5 -2,1 -5,2 -8,2 -4,0 -6,-1 -9,-2 -3,-1 -6,-3 -8,-5l0 0c-2,-2 -4,-5 -5,-8l0 0c-1,-2 -1,-5 -1,-8 0,-4 0,-6 1,-9l0 0c1,-3 3,-6 5,-8l0 0c2,-2 5,-3 8,-5l0 0c3,-1 5,-1 9,-1z"/>
  <path class="fil2" d="M62 31c-2,-2 -4,-3 -5,-4 -2,-1 -4,-1 -6,-1 -2,0 -4,0 -6,1 -2,1 -4,2 -5,4 -2,1 -3,3 -4,5 0,2 -1,4 -1,6 0,2 1,4 1,6 1,1 2,3 4,5 1,1 3,2 5,3 2,1 4,1 6,1 2,0 4,0 6,-1 1,-1 3,-2 5,-3 1,-2 2,-4 3,-5 1,-2 1,-4 1,-6 0,-2 0,-4 -1,-6 -1,-2 -2,-4 -3,-5l0 0z"/>
  <path class="fil1" d="M59 32c-2,-2 -4,-2 -7,-2 -7,0 -12,5 -12,12 0,6 3,10 8,12 -3,-2 -6,-6 -6,-10 0,-7 6,-13 13,-13 2,0 3,0 4,1l0 0z"/>
 </g>
</svg>
