<?xml version="1.0" encoding="UTF-8"?>
<!DOCTYPE svg PUBLIC "-//W3C//DTD SVG 1.1//EN" "http://www.w3.org/Graphics/SVG/1.1/DTD/svg11.dtd">
<!-- Creator: CorelDRAW X7 -->
<svg xmlns="http://www.w3.org/2000/svg" xml:space="preserve" width="0.877516in" height="0.832346in" version="1.1" style="shape-rendering:geometricPrecision; text-rendering:geometricPrecision; image-rendering:optimizeQuality; fill-rule:evenodd; clip-rule:evenodd"
viewBox="0 0 571 541"
 xmlns:xlink="http://www.w3.org/1999/xlink">
 <defs>
  <style type="text/css">
   <![CDATA[
    .fil1 {fill:#FEFEFE}
    .fil2 {fill:#74CBF2}
    .fil0 {fill:#777876}
   ]]>
  </style>
 </defs>
 <g id="Layer_x0020_1">
  <metadata id="CorelCorpID_0Corel-Layer"/>
  <path class="fil0" d="M499 78l-72 0 0 -36c0,-39 -33,-42 -73,-42l-142 0c-40,0 -70,3 -70,42l0 36 -71 0c-39,0 -71,32 -71,71l0 322c0,38 32,70 71,70l428 0c40,0 72,-32 72,-70l0 -322c0,-39 -32,-71 -72,-71l0 0z"/>
  <path class="fil0" d="M123 59c0,-13 -10,-23 -23,-23l-24 0c-12,0 -22,10 -22,23l0 8 69 0 0 -8z"/>
  <path class="fil1" d="M499 185c-20,0 -35,-16 -35,-36 0,-19 15,-35 35,-35 20,0 36,16 36,35 0,20 -16,36 -36,36l0 0z"/>
  <path class="fil1" d="M285 128c22,0 42,4 61,12l0 1c20,8 37,20 52,33l0 1c15,15 27,32 36,52l0 0c7,19 12,40 12,61 0,22 -5,43 -12,61l0 0c-9,20 -21,37 -36,53l0 0c-15,14 -32,26 -52,34l0 0c-19,8 -39,12 -61,12 -22,0 -42,-4 -61,-12l0 0c-20,-8 -37,-20 -52,-34l0 0c-15,-16 -27,-33 -35,-53l0 0c-7,-18 -12,-39 -12,-61 0,-21 5,-42 12,-61l0 0c8,-20 20,-37 35,-52l0 0 0 -1c15,-13 32,-25 52,-33l0 -1c19,-8 39,-12 61,-12l0 0z"/>
  <path class="fil2" d="M362 212c-11,-10 -23,-19 -36,-24 -12,-5 -26,-8 -41,-8 -15,0 -29,3 -41,8 -13,5 -25,14 -35,24 -10,10 -18,22 -23,35 -6,12 -9,27 -9,41 0,15 3,29 9,42 5,13 13,24 23,34 10,11 22,19 35,24 12,5 26,8 41,8 15,0 29,-3 41,-8 13,-5 25,-13 36,-24 9,-10 18,-21 23,-34 5,-13 8,-27 8,-42 0,-14 -3,-29 -8,-41 -5,-13 -14,-25 -23,-35z"/>
 </g>
</svg>
