<?xml version="1.0" encoding="UTF-8"?>
<!DOCTYPE svg PUBLIC "-//W3C//DTD SVG 1.1//EN" "http://www.w3.org/Graphics/SVG/1.1/DTD/svg11.dtd">
<!-- Creator: CorelDRAW X7 -->
<svg xmlns="http://www.w3.org/2000/svg" xml:space="preserve" width="0.877559in" height="0.597413in" version="1.1" style="shape-rendering:geometricPrecision; text-rendering:geometricPrecision; image-rendering:optimizeQuality; fill-rule:evenodd; clip-rule:evenodd"
viewBox="0 0 434 295"
 xmlns:xlink="http://www.w3.org/1999/xlink">
 <defs>
  <style type="text/css">
   <![CDATA[
    .fil1 {fill:#74CBF2}
    .fil0 {fill:#777876}
   ]]>
  </style>
 </defs>
 <g id="Layer_x0020_1">
  <metadata id="CorelCorpID_0Corel-Layer"/>
  <path class="fil0" d="M265 62c-1,-2 -1,-6 -1,-10l0 -27c0,-13 -9,-25 -22,-25l-163 0c-12,0 -23,11 -23,23 0,12 11,24 23,24l125 0c9,0 16,5 16,11 0,2 -1,3 -2,4l-201 0c-9,0 -17,8 -17,17l0 180c0,9 7,17 16,17l284 0 0 -44 50 0 0 21 84 42 0 -252 -84 42 0 21 -50 0 0 -44 -35 0z"/>
  <path class="fil1" d="M244 85c12,0 22,9 22,21 0,12 -10,22 -22,22 -12,0 -22,-10 -22,-22 0,-12 10,-21 22,-21l0 0z"/>
 </g>
</svg>
