<?xml version="1.0" encoding="UTF-8"?>
<!DOCTYPE svg PUBLIC "-//W3C//DTD SVG 1.1//EN" "http://www.w3.org/Graphics/SVG/1.1/DTD/svg11.dtd">
<!-- Creator: CorelDRAW X7 -->
<svg xmlns="http://www.w3.org/2000/svg" xml:space="preserve" width="0.877543in" height="0.577528in" version="1.1" style="shape-rendering:geometricPrecision; text-rendering:geometricPrecision; image-rendering:optimizeQuality; fill-rule:evenodd; clip-rule:evenodd"
viewBox="0 0 96 63"
 xmlns:xlink="http://www.w3.org/1999/xlink">
 <defs>
  <style type="text/css">
   <![CDATA[
    .fil1 {fill:#FEFEFE}
    .fil2 {fill:#74CBF2}
    .fil0 {fill:#777876}
   ]]>
  </style>
 </defs>
 <g id="Layer_x0020_1">
  <metadata id="CorelCorpID_0Corel-Layer"/>
  <path class="fil0" d="M48 15l-12 0c0,-3 -3,-6 -6,-6l-12 0c-3,0 -6,3 -6,6 -7,0 -12,5 -12,12l0 24c0,7 5,12 12,12l72 0c7,0 12,-5 12,-12l0 -24c0,-6 -5,-11 -10,-12l-2 0 0 -9c0,-3 -3,-6 -6,-6l-22 0c-3,0 -6,3 -6,6l0 9 -2 0 0 0z"/>
  <path class="fil1" d="M78 15l-23 0 0 -8c0,-1 1,-2 3,-2l18 0c1,0 2,1 2,2l0 8z"/>
  <path class="fil2" d="M27 21l-6 0c-2,0 -3,-1 -3,-3 0,-2 1,-3 3,-3l6 0c2,0 3,1 3,3 0,2 -1,3 -3,3l0 0z"/>
  <path class="fil2" d="M69 60c-12,0 -21,-9 -21,-21 0,-12 9,-21 21,-21 12,0 21,9 21,21 0,12 -9,21 -21,21l0 0z"/>
  <path class="fil2" d="M12 27l0 0c0,0 1,0 1,0l0 0c0,0 0,1 0,1l0 24c0,1 0,1 0,1l0 0c0,1 -1,1 -1,1l0 0c-1,0 -1,0 -1,-1l0 0c0,0 -1,0 -1,-1l0 -24c0,0 1,-1 1,-1l0 0c0,0 0,0 1,0l0 0z"/>
  <path class="fil0" d="M69 24c-8,0 -15,7 -15,15 0,8 7,15 15,15 8,0 15,-7 15,-15 0,-8 -7,-15 -15,-15l0 0z"/>
 </g>
</svg>
