<?xml version="1.0" encoding="UTF-8"?>
<!DOCTYPE svg PUBLIC "-//W3C//DTD SVG 1.1//EN" "http://www.w3.org/Graphics/SVG/1.1/DTD/svg11.dtd">
<!-- Creator: CorelDRAW X7 -->
<svg xmlns="http://www.w3.org/2000/svg" xml:space="preserve" width="0.813839in" height="0.877543in" version="1.1" style="shape-rendering:geometricPrecision; text-rendering:geometricPrecision; image-rendering:optimizeQuality; fill-rule:evenodd; clip-rule:evenodd"
viewBox="0 0 59 64"
 xmlns:xlink="http://www.w3.org/1999/xlink">
 <defs>
  <style type="text/css">
   <![CDATA[
    .fil1 {fill:#FEFEFE}
    .fil2 {fill:#74CBF2}
    .fil0 {fill:#777876}
   ]]>
  </style>
 </defs>
 <g id="Layer_x0020_1">
  <metadata id="CorelCorpID_0Corel-Layer"/>
  <path class="fil0" d="M52 32c0,-2 -2,-4 -4,-4l-1 0c5,0 8,-4 8,-9l0 -10c0,-5 -3,-9 -8,-9l-9 0c-5,0 -9,4 -9,9l0 10c0,5 4,9 9,9l-1 0c-2,0 -4,2 -4,4l-11 0c0,-2 -2,-4 -4,-4l-7 0c-2,0 -4,2 -4,4 -4,0 -7,3 -7,8l0 16c0,4 3,8 7,8l45 0c4,0 7,-4 7,-8l0 -16c0,-5 -3,-8 -7,-8l0 0z"/>
  <path class="fil1" d="M33 19l0 -10c0,-3 2,-5 5,-5l9 0c2,0 5,2 5,5l0 10c0,3 -3,5 -5,5l-9 0c-3,0 -5,-2 -5,-5l0 0z"/>
  <path class="fil1" d="M42 62c-7,0 -13,-7 -13,-14 0,-8 6,-14 13,-14 7,0 13,6 13,14 0,7 -6,14 -13,14l0 0z"/>
  <path class="fil2" d="M14 30c2,0 4,2 4,4 0,2 -2,4 -4,4 -2,0 -3,-2 -3,-4 0,-2 1,-4 3,-4l0 0z"/>
 </g>
</svg>
