<?xml version="1.0" encoding="UTF-8"?>
<!DOCTYPE svg PUBLIC "-//W3C//DTD SVG 1.1//EN" "http://www.w3.org/Graphics/SVG/1.1/DTD/svg11.dtd">
<!-- Creator: CorelDRAW X7 -->
<svg xmlns="http://www.w3.org/2000/svg" xml:space="preserve" width="3.95752in" height="4.47292in" version="1.1" style="shape-rendering:geometricPrecision; text-rendering:geometricPrecision; image-rendering:optimizeQuality; fill-rule:evenodd; clip-rule:evenodd"
viewBox="0 0 1023 1156"
 xmlns:xlink="http://www.w3.org/1999/xlink">
 <defs>
  <style type="text/css">
   <![CDATA[
    .fil0 {fill:#606062}
   ]]>
  </style>
 </defs>
 <g id="Layer_x0020_1">
  <metadata id="CorelCorpID_0Corel-Layer"/>
  <path class="fil0" d="M744 937c-139,206 -145,112 -145,112 0,0 57,-7 129,-119 71,-113 95,-164 83,-199 0,0 73,0 -67,206zm-533 -206c-12,35 11,86 83,199 72,112 129,119 129,119 0,0 -6,94 -146,-112 -139,-206 -66,-206 -66,-206zm774 -316l38 -4c0,-4 -46,-411 -505,-411 -456,0 -517,405 -518,409l33 5c-6,89 13,209 56,276 22,36 34,75 41,106 -3,7 -6,14 -9,21 -10,27 -124,2 9,206 132,205 159,117 179,100 27,-25 129,-6 160,-80 16,-47 -174,-348 -226,-348 -32,0 -59,18 -82,48 -8,-25 -19,-51 -35,-76 -36,-58 -54,-167 -49,-247l32 4c2,-13 51,-314 409,-314 357,0 394,299 395,312l28 -3c4,81 -13,190 -50,248 -15,25 -27,51 -35,76 -23,-30 -50,-48 -81,-48 -53,0 -243,301 -226,348 30,74 132,55 160,80 19,17 47,105 179,-100 132,-204 19,-179 8,-206 -3,-8 -5,-14 -8,-21 6,-31 18,-70 41,-106 42,-67 61,-185 56,-275z"/>
 </g>
</svg>
