<?xml version="1.0" encoding="UTF-8"?>
<!DOCTYPE svg PUBLIC "-//W3C//DTD SVG 1.1//EN" "http://www.w3.org/Graphics/SVG/1.1/DTD/svg11.dtd">
<!-- Creator: CorelDRAW X7 -->
<svg xmlns="http://www.w3.org/2000/svg" xml:space="preserve" width="0.877555in" height="0.781406in" version="1.1" style="shape-rendering:geometricPrecision; text-rendering:geometricPrecision; image-rendering:optimizeQuality; fill-rule:evenodd; clip-rule:evenodd"
viewBox="0 0 157 140"
 xmlns:xlink="http://www.w3.org/1999/xlink">
 <defs>
  <style type="text/css">
   <![CDATA[
    .fil1 {fill:#74CBF2}
    .fil0 {fill:#777876}
   ]]>
  </style>
 </defs>
 <g id="Layer_x0020_1">
  <metadata id="CorelCorpID_0Corel-Layer"/>
  <path class="fil0" d="M41 62l72 0 0 62c0,5 -4,10 -10,10l-93 0c-5,0 -10,-5 -10,-10l0 -72c0,-6 5,-11 10,-11l93 0c6,0 10,5 10,11l-72 0 0 10z"/>
  <path class="fil0" d="M149 37c4,-3 8,-2 8,4l0 93c0,6 -4,8 -8,4l-25 -19c-4,-3 -8,-10 -8,-16l0 -31c0,-5 4,-13 8,-16l25 -19z"/>
  <path class="fil1" d="M19 18c0,10 8,18 18,18 10,0 18,-8 18,-18 0,-10 -8,-18 -18,-18 -10,0 -18,8 -18,18l0 0z"/>
  <path class="fil1" d="M62 18c0,10 8,18 18,18 10,0 18,-8 18,-18 0,-10 -8,-18 -18,-18 -10,0 -18,8 -18,18l0 0z"/>
 </g>
</svg>
