<?xml version="1.0" encoding="UTF-8"?>
<!DOCTYPE svg PUBLIC "-//W3C//DTD SVG 1.1//EN" "http://www.w3.org/Graphics/SVG/1.1/DTD/svg11.dtd">
<!-- Creator: CorelDRAW X7 -->
<svg xmlns="http://www.w3.org/2000/svg" xml:space="preserve" width="3.24601in" height="1.71597in" version="1.1" style="shape-rendering:geometricPrecision; text-rendering:geometricPrecision; image-rendering:optimizeQuality; fill-rule:evenodd; clip-rule:evenodd"
viewBox="0 0 3116 1647"
 xmlns:xlink="http://www.w3.org/1999/xlink">
 <defs>
  <style type="text/css">
   <![CDATA[
    .fil3 {fill:#571D1C;fill-rule:nonzero}
    .fil1 {fill:#591C1C;fill-rule:nonzero}
    .fil0 {fill:#CC3148;fill-rule:nonzero}
    .fil2 {fill:#F0DFC8;fill-rule:nonzero}
   ]]>
  </style>
 </defs>
 <g id="OBJECTS">
  <metadata id="CorelCorpID_0Corel-Layer"/>
  <polygon class="fil0" points="2703,264 2703,1647 0,1647 0,264 2706,264 "/>
  <polygon class="fil1" points="2703,264 2702,1647 3115,1383 3116,0 497,9 0,264 "/>
  <path class="fil1" d="M922 429l-922 0 0 -65 922 0 0 65zm-122 72l0 0 -800 0 0 65 800 0 0 -65zm-92 138l0 0 -708 0 0 65 708 0 0 -65zm-42 138l0 0 -666 0 0 65 666 0 0 -65zm-18 137l0 0 -648 0 0 66 648 0 0 -66zm17 138l0 0 -665 0 0 65 665 0 0 -65zm44 138l0 0 -709 0 0 65 709 0 0 -65zm45 138l0 0 -754 0 0 65 754 0 0 -65zm168 137l0 0 -922 0 0 66 922 0 0 -66zm866 -1036l0 0 922 0 0 -65 -922 0 0 65zm122 137l0 0 800 0 0 -65 -800 0 0 65zm92 138l0 0 708 0 0 -65 -708 0 0 65zm42 138l0 0 666 0 0 -65 -666 0 0 65zm18 138l0 0 648 0 0 -66 -648 0 0 66zm-17 137l0 0 665 0 0 -65 -665 0 0 65zm-44 138l0 0 709 0 0 -65 -709 0 0 65zm-45 138l0 0 754 0 0 -65 -754 0 0 65zm-168 138l0 0 922 0 0 -66 -922 0 0 66z"/>
  <path class="fil2" d="M1369 429c-286,0 -519,233 -519,520 0,286 233,519 519,519 287,0 520,-233 520,-519 0,-287 -233,-520 -520,-520z"/>
  <path class="fil3" d="M1731 1144l45 -80 2 3c-10,32 -24,61 -40,89l-7 -12zm-359 222l0 0c-10,0 -19,-1 -29,-2l-26 -46 39 -69 45 80 -21 36c-2,0 -5,1 -8,1zm-312 -137l0 0 -3 -7 44 -78 45 80 -31 54c-20,-15 -38,-31 -55,-49zm-108 -348l0 0 43 78 -39 69c-6,-28 -9,-58 -9,-87 0,-21 2,-40 5,-60zm90 -186l0 0 -39 69 -9 -16c11,-23 25,-45 41,-65l7 12zm430 -167l0 0 34 60 -45 80 -45 -80 37 -64c6,1 13,3 19,4zm325 413l0 0c0,24 -2,48 -6,71l-15 26 -45 -79 45 -80 20 35c0,9 1,18 1,27zm-743 -60l0 0 44 78 -44 77 -44 -77 44 -78zm-51 64l0 0 -44 -77 44 -78 44 78 -44 77zm260 -415l0 0 39 69 -45 79 -44 -77 38 -67c4,-2 8,-3 12,-4zm93 323l0 0 -45 -80 45 -79 45 79 -45 80zm52 -67l0 0 45 80 -45 79 -45 -79 45 -80zm-60 80l0 0 -44 79 -45 -79 44 -80 45 80zm-97 -13l0 0 -39 -69 45 -80 39 69 -45 80zm-7 13l0 0 -45 79 -40 -68 46 -80 39 69zm-53 93l0 0 -39 68 -39 -68 39 -69 39 69zm8 12l0 0 45 80 -39 69 -46 -80 40 -69zm7 -12l0 0 45 -80 45 80 -45 79 -45 -79zm98 12l0 0 44 80 -45 79 -44 -79 45 -80zm7 -12l0 0 45 -80 45 80 -45 79 -45 -79zm97 12l0 0 45 80 -45 79 -45 -79 45 -80zm8 -12l0 0 45 -80 45 80 -45 79 -45 -79zm52 -93l0 0 45 -80 45 80 -45 79 -45 -79zm45 105l0 0 45 80 -45 79 -45 -79 45 -80zm8 -12l0 0 45 -80 45 80 -45 79 -45 -79zm52 -93l0 0 45 -80 45 80 -45 79 -45 -79zm-7 -13l0 0 -45 -80 45 -79 45 79 -45 80zm-53 -93l0 0 -45 -79 45 -80 45 80 -45 79zm-7 13l0 0 -45 80 -45 -80 45 -79 45 79zm-98 -13l0 0 -45 -79 45 -80 45 80 -45 79zm-52 -92l0 0 -39 -69 45 -80 39 69 -45 80zm-8 13l0 0 -45 79 -39 -69 45 -79 39 69zm-98 10l0 0 -45 80 -44 -78 45 -79 44 77zm-53 93l0 0 -45 79 -44 -77 45 -80 44 78zm-52 93l0 0 -39 68 -44 -77 39 -69 44 78zm-52 254l0 0 -44 78 -39 -69 44 -78 39 69zm-31 -82l0 0 44 -78 39 69 -44 78 -39 -69zm90 4l0 0 45 80 -44 78 -45 -80 44 -78zm53 93l0 0 45 79 -44 78 -45 -79 44 -78zm7 -13l0 0 39 -69 45 80 -39 68 -45 -79zm91 24l0 0 45 79 -39 69 -45 -80 39 -68zm8 -13l0 0 45 -80 45 80 -45 79 -45 -79zm97 13l0 0 45 79 -45 80 -45 -80 45 -79zm8 -13l0 0 45 -80 45 80 -45 79 -45 -79zm97 13l0 0 45 79 -45 80 -45 -80 45 -79zm8 -13l0 0 45 -80 45 80 -45 79 -45 -79zm52 -93l0 0 45 -80 45 80 -45 79 -45 -79zm53 -92l0 0 45 -80 45 80 -45 79 -45 -79zm52 -93l0 0 45 -80 45 80 -45 79 -45 -79zm53 -93l0 0 17 -30c16,30 28,62 36,95l-8 15 -45 -80zm-8 -13l0 0 -45 -79 12 -21c19,21 36,45 51,70l-18 30zm-7 13l0 0 -45 80 -45 -80 45 -79 45 79zm-98 -13l0 0 -45 -79 45 -80 45 80 -45 79zm-52 -92l0 0 -45 -80 21 -37c24,11 47,24 69,38l-45 79zm-53 -93l0 0 -24 -42c14,4 28,8 41,13l-17 29zm-105 0l0 0 -33 -59c22,0 43,2 64,6l-31 53zm-99 11l0 0 -33 -59c24,-5 48,-9 72,-10l-39 69zm-103 2l0 0 -17 -30c14,-7 29,-13 44,-18l-27 48zm-8 13l0 0 -45 79 -42 -74c21,-16 43,-30 66,-42l21 37zm-52 92l0 0 -45 80 -44 -78 45 -80 44 78zm-53 93l0 0 -39 69 -44 -78 39 -69 44 78zm-98 -9l0 0 -35 63c6,-27 15,-53 27,-78l8 15zm-34 269l0 0 42 -75 44 78 -44 78 -39 -68c-1,-4 -2,-9 -3,-13zm192 191l0 0 45 79 -5 9c-24,-11 -47,-24 -68,-39l28 -49zm53 92l0 0 1 3c-1,0 -2,-1 -2,-1l1 -2zm7 -13l0 0 44 -77 45 79 -21 37c-19,-4 -37,-9 -55,-16l-13 -23zm96 15l0 0 19 32c-12,-1 -23,-3 -34,-5l15 -27zm99 11l0 0 12 21c-8,1 -16,1 -24,1l12 -22zm8 -13l0 0 45 -80 45 80 -10 18c-20,6 -41,11 -62,14l-18 -32zm105 0l0 0 45 -80 30 52c-23,14 -46,26 -71,36l-4 -8zm52 -93l0 0 45 -79 45 79 -15 27c-13,12 -27,22 -41,32l-34 -59zm98 -13l0 0 -45 -79 45 -80 45 80 -45 79zm7 -172l0 0 45 -80 45 80 -45 79 -45 -79zm105 -185l0 0 6 -9c1,8 2,17 4,25l-10 -16zm-102 -216l0 0 -10 18 -33 -58c15,12 30,25 43,40zm-607 -11l0 0 -25 43 -6 -10c10,-12 20,-23 31,-33zm607 593l0 0 42 -75 7 12c-14,22 -31,43 -49,63z"/>
 </g>
</svg>
