<?xml version="1.0" encoding="UTF-8"?>
<!DOCTYPE svg PUBLIC "-//W3C//DTD SVG 1.1//EN" "http://www.w3.org/Graphics/SVG/1.1/DTD/svg11.dtd">
<!-- Creator: CorelDRAW X7 -->
<svg xmlns="http://www.w3.org/2000/svg" xml:space="preserve" width="0.759362in" height="0.877543in" version="1.1" style="shape-rendering:geometricPrecision; text-rendering:geometricPrecision; image-rendering:optimizeQuality; fill-rule:evenodd; clip-rule:evenodd"
viewBox="0 0 304 352"
 xmlns:xlink="http://www.w3.org/1999/xlink">
 <defs>
  <style type="text/css">
   <![CDATA[
    .fil1 {fill:#74CBF2}
    .fil0 {fill:#777876}
   ]]>
  </style>
 </defs>
 <g id="Layer_x0020_1">
  <metadata id="CorelCorpID_0Corel-Layer"/>
  <polygon class="fil0" points="111,217 111,217 34,352 0,352 94,189 94,176 149,176 157,176 157,189 251,352 218,352 140,217 140,352 111,352 "/>
  <path class="fil0" d="M230 80l-12 0 0 -42 -23 0c0,-1 -1,-3 -1,-6l0 -17c0,-8 -5,-15 -13,-15l-100 0c-8,0 -14,7 -14,14 0,8 6,15 14,15l77 0c5,0 10,3 10,7 0,1 -1,2 -2,2l-123 0c-6,0 -11,5 -11,11l0 111c0,5 4,10 10,10l176 0 0 -48 12 0 0 5c0,3 2,6 6,6l18 0 0 2c0,5 4,9 9,9l32 0c6,0 9,-4 9,-9l0 -6 -7 0c-6,0 -10,-5 -10,-10l0 -36c0,-5 4,-10 10,-10l7 0 0 -6c0,-5 -3,-9 -9,-9l-32 0c-5,0 -9,4 -9,9l0 2 -18 0c-4,0 -6,3 -6,7l0 4z"/>
  <polygon class="fil1" points="51,133 198,133 198,152 51,152 "/>
  <path class="fil1" d="M150 57l12 0c1,0 1,1 1,2l0 12c0,1 0,1 -1,1l-12 0c-1,0 -2,0 -2,-1l0 -12c0,-1 1,-2 2,-2l0 0z"/>
  <path class="fil1" d="M166 74l13 0c0,0 1,1 1,2l0 11c0,1 -1,2 -1,2l-13 0c0,0 -1,-1 -1,-2l0 -11c0,-1 1,-2 1,-2l0 0z"/>
  <path class="fil1" d="M149 74l13 0c1,0 1,1 1,2l0 11c0,1 0,2 -1,2l-13 0c0,0 -1,-1 -1,-2l0 -11c0,-1 1,-2 1,-2l0 0z"/>
  <path class="fil1" d="M167 57l12 0c0,0 1,1 1,2l0 12c0,1 -1,1 -1,1l-12 0c-1,0 -2,0 -2,-1l0 -12c0,-1 1,-2 2,-2l0 0z"/>
 </g>
</svg>
