<?xml version="1.0" encoding="UTF-8"?>
<!DOCTYPE svg PUBLIC "-//W3C//DTD SVG 1.1//EN" "http://www.w3.org/Graphics/SVG/1.1/DTD/svg11.dtd">
<!-- Creator: CorelDRAW X7 -->
<svg xmlns="http://www.w3.org/2000/svg" xml:space="preserve" width="2.81187in" height="2.26188in" version="1.1" style="shape-rendering:geometricPrecision; text-rendering:geometricPrecision; image-rendering:optimizeQuality; fill-rule:evenodd; clip-rule:evenodd"
viewBox="0 0 1940 1561"
 xmlns:xlink="http://www.w3.org/1999/xlink">
 <defs>
  <style type="text/css">
   <![CDATA[
    .fil3 {fill:#00A79C;fill-rule:nonzero}
    .fil5 {fill:#2F2148;fill-rule:nonzero}
    .fil1 {fill:#413F42;fill-rule:nonzero}
    .fil6 {fill:#AA4B26;fill-rule:nonzero}
    .fil4 {fill:#DA1C5B;fill-rule:nonzero}
    .fil0 {fill:#E1A754;fill-rule:nonzero}
    .fil2 {fill:white;fill-rule:nonzero}
   ]]>
  </style>
 </defs>
 <g id="OBJECTS">
  <metadata id="CorelCorpID_0Corel-Layer"/>
  <polygon class="fil0" points="0,272 0,1560 508,1560 1594,1560 1594,272 "/>
  <path class="fil1" d="M813 506c-193,0 -351,158 -351,351 0,194 158,352 351,352 194,0 352,-158 352,-352 0,-193 -158,-351 -352,-351z"/>
  <path class="fil2" d="M815 584c-148,0 -268,120 -268,268 0,147 120,268 268,268 148,0 268,-121 268,-268 0,-148 -120,-268 -268,-268zm205 384l0 0 25 -46 1 2c-5,18 -13,35 -22,51l-4 -7zm-205 126l0 0c-5,0 -11,0 -16,-1l-15 -26 22 -39 26 45 -12 21c-2,0 -3,0 -5,0zm-178 -78l0 0 -2 -4 25 -44 26 45 -18 31c-11,-8 -21,-18 -31,-28zm-62 -198l0 0 25 44 -22 40c-3,-17 -5,-33 -5,-50 0,-12 1,-23 2,-34zm52 -106l0 0 -23 39 -5 -9c7,-13 15,-25 24,-37l4 7zm245 -95l0 0 20 34 -26 45 -26 -45 21 -37c4,1 7,2 11,3zm185 235l0 0c0,14 -1,27 -3,41l-9 14 -25 -45 25 -45 12 20c0,5 0,10 0,15zm-423 -34l0 0 25 44 -25 44 -25 -44 25 -44zm-30 37l0 0 -25 -45 25 -44 26 44 -26 45zm149 -237l0 0 22 39 -26 45 -25 -44 22 -38c2,-1 5,-1 7,-2zm53 184l0 0 -26 -46 26 -45 26 45 -26 46zm30 -38l0 0 26 45 -26 46 -26 -46 26 -45zm-34 45l0 0 -26 46 -26 -46 26 -45 26 45zm-56 -7l0 0 -22 -39 25 -46 23 39 -26 46zm-4 7l0 0 -26 46 -22 -40 26 -45 22 39zm-30 53l0 0 -22 39 -23 -39 23 -39 22 39zm4 7l0 0 26 46 -22 39 -26 -45 22 -40zm4 -7l0 0 26 -45 26 45 -26 45 -26 -45zm56 7l0 0 26 46 -26 45 -26 -45 26 -46zm4 -7l0 0 26 -45 26 45 -26 45 -26 -45zm56 7l0 0 26 46 -26 45 -26 -45 26 -46zm4 -7l0 0 26 -45 26 45 -26 45 -26 -45zm30 -53l0 0 26 -45 25 45 -25 46 -26 -46zm26 60l0 0 25 46 -25 45 -26 -45 26 -46zm4 -7l0 0 26 -45 25 45 -25 45 -26 -45zm30 -53l0 0 26 -45 25 45 -25 46 -26 -46zm-4 -7l0 0 -26 -46 26 -45 25 45 -25 46zm-30 -53l0 0 -26 -45 26 -46 25 46 -25 45zm-4 7l0 0 -26 46 -26 -46 26 -45 26 45zm-56 -7l0 0 -26 -45 26 -46 26 46 -26 45zm-30 -53l0 0 -22 -39 25 -45 23 39 -26 45zm-4 8l0 0 -26 45 -22 -39 25 -46 23 40zm-57 6l0 0 -25 45 -26 -44 26 -46 25 45zm-30 53l0 0 -25 45 -25 -44 25 -46 25 45zm-30 52l0 0 -22 40 -25 -45 22 -39 25 44zm-29 146l0 0 -25 44 -22 -39 25 -45 22 40zm-18 -47l0 0 25 -45 22 40 -25 44 -22 -39zm52 2l0 0 25 46 -25 44 -25 -45 25 -45zm30 53l0 0 25 45 -25 45 -26 -46 26 -44zm4 -7l0 0 22 -40 26 46 -23 39 -25 -45zm52 13l0 0 26 45 -23 40 -25 -46 22 -39zm4 -7l0 0 26 -46 26 46 -26 45 -26 -45zm56 7l0 0 26 45 -26 46 -26 -46 26 -45zm4 -7l0 0 26 -46 26 46 -26 45 -26 -45zm56 7l0 0 25 45 -25 46 -26 -46 26 -45zm4 -7l0 0 26 -46 25 46 -25 45 -26 -45zm30 -53l0 0 26 -46 25 46 -25 45 -26 -45zm30 -53l0 0 26 -45 25 45 -25 45 -26 -45zm30 -53l0 0 25 -45 26 45 -26 46 -25 -46zm30 -53l0 0 9 -17c9,17 16,35 21,55l-5 8 -25 -46zm-5 -7l0 0 -25 -45 7 -12c10,12 20,25 28,40l-10 17zm-4 7l0 0 -25 46 -26 -46 26 -45 25 45zm-55 -7l0 0 -26 -45 26 -46 25 46 -25 45zm-30 -53l0 0 -26 -45 12 -21c14,6 27,13 39,21l-25 45zm-30 -53l0 0 -14 -24c8,2 16,5 23,8l-9 16zm-60 0l0 0 -19 -33c12,0 24,1 36,3l-17 30zm-57 6l0 0 -19 -33c14,-3 28,-5 42,-6l-23 39zm-59 2l0 0 -9 -17c8,-4 16,-8 25,-11l-16 28zm-4 7l0 0 -26 45 -24 -42c12,-9 25,-17 38,-24l12 21zm-30 53l0 0 -26 45 -25 -44 26 -46 25 45zm-30 53l0 0 -22 39 -25 -45 22 -39 25 45zm-56 -6l0 0 -20 36c4,-15 9,-30 15,-44l5 8zm-19 154l0 0 23 -43 26 45 -26 44 -22 -39c0,-2 -1,-5 -1,-7zm109 109l0 0 26 45 -3 5c-14,-6 -27,-14 -39,-22l16 -28zm30 53l0 0 1 1c0,0 -1,0 -1,0l0 -1zm4 -8l0 0 25 -44 26 45 -12 21c-11,-2 -21,-5 -31,-9l-8 -13zm55 9l0 0 11 18c-7,-1 -13,-2 -19,-3l8 -15zm57 6l0 0 7 12c-5,0 -10,0 -14,1l7 -13zm4 -8l0 0 26 -45 26 45 -6 11c-12,3 -24,6 -36,7l-10 -18zm60 0l0 0 26 -45 17 30c-13,7 -26,14 -41,20l-2 -5zm30 -53l0 0 26 -45 25 45 -9 16c-7,6 -15,12 -23,18l-19 -34zm56 -7l0 0 -26 -45 26 -46 25 46 -25 45zm4 -98l0 0 25 -46 26 46 -26 45 -25 -45zm60 -106l0 0 3 -5c1,5 1,10 2,15l-5 -10zm-59 -123l0 0 -5 10 -19 -33c8,7 17,15 24,23zm-346 -6l0 0 -14 24 -3 -5c5,-7 11,-13 17,-19zm346 338l0 0 24 -43 4 7c-8,13 -17,25 -28,36z"/>
  <path class="fil1" d="M1127 1357c0,-45 -35,-80 -80,-80l-511 0c-45,0 -80,35 -80,80 0,44 35,80 80,80l511 0c45,0 80,-36 80,-80zm-537 47l0 0c-25,0 -46,-20 -46,-46 0,-25 21,-46 46,-46l407 0c26,0 46,21 46,46 0,26 -20,46 -46,46l-407 0z"/>
  <path class="fil1" d="M864 1330l106 0c15,0 28,13 28,28 0,15 -13,27 -28,27l-106 0 0 -55z"/>
  <path class="fil1" d="M702 1385l-90 0c-15,0 -27,-12 -27,-27 0,-15 12,-28 27,-28l90 0 0 55z"/>
  <path class="fil1" d="M735 1389l95 0 0 -62 -95 0 0 62zm47 -6l0 0c-14,0 -25,-11 -25,-25 0,-14 11,-26 25,-26 15,0 26,12 26,26 0,14 -11,25 -26,25z"/>
  <polygon class="fil3" points="347,583 89,583 89,731 347,731 "/>
  <polygon class="fil2" points="151,680 151,632 274,661 "/>
  <polygon class="fil4" points="347,801 89,801 89,950 347,950 "/>
  <polygon class="fil2" points="255,836 185,836 185,906 255,906 "/>
  <polygon class="fil5" points="341,1025 84,1025 84,1173 341,1173 "/>
  <path class="fil2" d="M253 1099c0,-22 -18,-39 -39,-39 -22,0 -39,17 -39,39 0,21 17,39 39,39 21,0 39,-18 39,-39z"/>
  <path class="fil1" d="M1340 568c-42,0 -76,34 -76,76l0 488c0,43 34,77 76,77 43,0 77,-34 77,-77l0 -488c0,-42 -34,-76 -77,-76z"/>
  <path class="fil4" d="M1304 843l0 -145c0,-21 17,-37 37,-37 21,0 38,16 38,37l0 145 -75 0z"/>
  <path class="fil3" d="M1379 875l0 197c0,21 -17,37 -38,37 -20,0 -37,-16 -37,-37l0 -197 75 0z"/>
  <polygon class="fil6" points="317,0 1,271 1594,272 1594,1561 1939,1265 1940,0 "/>
 </g>
</svg>
