<?xml version="1.0" encoding="UTF-8"?>
<!DOCTYPE svg PUBLIC "-//W3C//DTD SVG 1.1//EN" "http://www.w3.org/Graphics/SVG/1.1/DTD/svg11.dtd">
<!-- Creator: CorelDRAW X7 -->
<svg xmlns="http://www.w3.org/2000/svg" xml:space="preserve" width="3.04574in" height="4.11171in" version="1.1" style="shape-rendering:geometricPrecision; text-rendering:geometricPrecision; image-rendering:optimizeQuality; fill-rule:evenodd; clip-rule:evenodd"
viewBox="0 0 1703 2299"
 xmlns:xlink="http://www.w3.org/1999/xlink">
 <defs>
  <style type="text/css">
   <![CDATA[
    .fil0 {fill:#3A3B3C}
   ]]>
  </style>
 </defs>
 <g id="Layer_x0020_1">
  <metadata id="CorelCorpID_0Corel-Layer"/>
  <path class="fil0" d="M404 1603l895 0 0 78 -895 0 0 -78zm0 -175l895 0 0 78 -895 0 0 -78zm0 -939l895 0 0 555 -895 0 0 -555zm895 841l-713 0 0 -77 713 0 0 77zm-1076 583l1269 0 0 -1592 -1269 0 0 1592z"/>
  <path class="fil0" d="M1587 2154c0,16 -14,29 -30,29l-1411 0c-16,0 -29,-13 -29,-29l0 -2008c0,-16 13,-29 29,-29l1411 0c16,0 30,13 30,29l0 2008zm-30 -2154l-1411 0c-81,0 -146,65 -146,146l0 2008c0,80 65,145 146,145l1411 0c81,0 146,-65 146,-145l0 -2008c0,-81 -65,-146 -146,-146z"/>
  <polygon class="fil0" points="730,2115 893,2115 893,1999 730,1999 "/>
  <polygon class="fil0" points="1017,177 730,177 730,255 1017,255 "/>
 </g>
</svg>
