<?xml version="1.0" encoding="UTF-8"?>
<!DOCTYPE svg PUBLIC "-//W3C//DTD SVG 1.1//EN" "http://www.w3.org/Graphics/SVG/1.1/DTD/svg11.dtd">
<!-- Creator: CorelDRAW X7 -->
<svg xmlns="http://www.w3.org/2000/svg" xml:space="preserve" width="2.43373in" height="2.0508in" version="1.1" style="shape-rendering:geometricPrecision; text-rendering:geometricPrecision; image-rendering:optimizeQuality; fill-rule:evenodd; clip-rule:evenodd"
viewBox="0 0 668 563"
 xmlns:xlink="http://www.w3.org/1999/xlink">
 <defs>
  <style type="text/css">
   <![CDATA[
    .fil0 {fill:#BCD81C;fill-rule:nonzero}
    .fil1 {fill:#C4E854;fill-rule:nonzero}
   ]]>
  </style>
 </defs>
 <g id="OBJECTS">
  <metadata id="CorelCorpID_0Corel-Layer"/>
  <path class="fil0" d="M124 290c1,-117 83,-235 209,-236 125,-1 207,121 208,236 1,35 55,35 54,0 -1,-147 -107,-288 -262,-290 -155,-2 -261,146 -263,290 0,35 54,35 54,0z"/>
  <path class="fil1" d="M126 267c-69,0 -126,56 -126,126 0,70 57,126 126,126l0 -252z"/>
  <path class="fil0" d="M195 513c0,27 -16,50 -34,50 -19,0 -35,-23 -35,-50l0 -235c0,-27 16,-49 35,-49 18,0 34,22 34,49l0 235z"/>
  <path class="fil1" d="M541 267c70,0 127,56 127,126 0,70 -57,126 -127,126l0 -252z"/>
  <path class="fil0" d="M473 513c0,27 15,50 34,50 19,0 34,-23 34,-50l0 -235c0,-27 -15,-49 -34,-49 -19,0 -34,22 -34,49l0 235z"/>
 </g>
</svg>
