<?xml version="1.0" encoding="UTF-8"?>
<!DOCTYPE svg PUBLIC "-//W3C//DTD SVG 1.1//EN" "http://www.w3.org/Graphics/SVG/1.1/DTD/svg11.dtd">
<!-- Creator: CorelDRAW X7 -->
<svg xmlns="http://www.w3.org/2000/svg" xml:space="preserve" width="0.815138in" height="0.877484in" version="1.1" style="shape-rendering:geometricPrecision; text-rendering:geometricPrecision; image-rendering:optimizeQuality; fill-rule:evenodd; clip-rule:evenodd"
viewBox="0 0 150 162"
 xmlns:xlink="http://www.w3.org/1999/xlink">
 <defs>
  <style type="text/css">
   <![CDATA[
    .fil1 {fill:#FEFEFE}
    .fil2 {fill:#74CBF2}
    .fil0 {fill:#777876}
   ]]>
  </style>
 </defs>
 <g id="Layer_x0020_1">
  <metadata id="CorelCorpID_0Corel-Layer"/>
  <path class="fil0" d="M132 81c0,-6 -5,-10 -10,-10l-2 0c12,0 21,-10 21,-23l0 -25c0,-13 -9,-23 -21,-23l-23 0c-12,0 -22,10 -22,23l0 25c0,13 10,23 22,23l-3 0c-5,0 -9,4 -9,10l-28 0c0,-6 -5,-10 -10,-10l-19 0c-5,0 -9,4 -9,10 -10,0 -19,9 -19,20l0 41c0,11 9,20 19,20l113 0c10,0 18,-9 18,-20l0 -41c0,-11 -8,-20 -18,-20l0 0z"/>
  <path class="fil1" d="M85 48l0 -25c0,-7 5,-13 12,-13l23 0c6,0 12,6 12,13l0 25c0,7 -6,13 -12,13l-23 0c-7,0 -12,-6 -12,-13l0 0z"/>
  <path class="fil2" d="M108 157c-18,0 -33,-16 -33,-35 0,-20 15,-36 33,-36 18,0 33,16 33,36 0,19 -15,35 -33,35l0 0z"/>
  <path class="fil2" d="M36 77c5,0 9,5 9,10 0,5 -4,10 -9,10 -5,0 -9,-5 -9,-10 0,-5 4,-10 9,-10l0 0z"/>
  <path class="fil0" d="M81 122c0,15 12,28 27,28 15,0 27,-13 27,-28 0,-16 -12,-29 -27,-29 -15,0 -27,13 -27,29l0 0z"/>
  <path class="fil2" d="M90 122c0,11 8,20 18,20 10,0 19,-9 19,-20 0,-11 -9,-21 -19,-21 -10,0 -18,10 -18,21l0 0z"/>
  <path class="fil0" d="M95 122c0,7 6,13 13,13 7,0 13,-6 13,-13 0,-8 -6,-14 -13,-14 -7,0 -13,6 -13,14l0 0z"/>
  <path class="fil2" d="M102 115c0,2 2,4 4,4 2,0 4,-2 4,-4 0,-3 -2,-4 -4,-4 -2,0 -4,1 -4,4l0 0z"/>
 </g>
</svg>
