<?xml version="1.0" encoding="UTF-8"?>
<!DOCTYPE svg PUBLIC "-//W3C//DTD SVG 1.1//EN" "http://www.w3.org/Graphics/SVG/1.1/DTD/svg11.dtd">
<!-- Creator: CorelDRAW X7 -->
<svg xmlns="http://www.w3.org/2000/svg" xml:space="preserve" width="0.877543in" height="0.604055in" version="1.1" style="shape-rendering:geometricPrecision; text-rendering:geometricPrecision; image-rendering:optimizeQuality; fill-rule:evenodd; clip-rule:evenodd"
viewBox="0 0 96 66"
 xmlns:xlink="http://www.w3.org/1999/xlink">
 <defs>
  <style type="text/css">
   <![CDATA[
    .fil1 {fill:#FEFEFE}
    .fil2 {fill:#74CBF2}
    .fil0 {fill:#777876}
   ]]>
  </style>
 </defs>
 <g id="Layer_x0020_1">
  <metadata id="CorelCorpID_0Corel-Layer"/>
  <path class="fil0" d="M96 12l0 48c0,3 -3,6 -6,6l-84 0c-3,0 -6,-3 -6,-6l0 -48c0,-3 3,-6 6,-6l6 0c0,-3 3,-6 6,-6l6 0c3,0 6,3 6,6l60 0c3,0 6,3 6,6l0 0z"/>
  <polygon class="fil1" points="84,12 72,12 72,18 84,18 "/>
  <path class="fil1" d="M69 36c0,-11 -10,-21 -21,-21 -12,0 -21,10 -21,21 0,12 9,21 21,21 11,0 21,-9 21,-21l0 0z"/>
  <path class="fil2" d="M63 36c0,8 -7,15 -15,15 -8,0 -15,-7 -15,-15 0,-8 7,-15 15,-15 8,0 15,7 15,15l0 0z"/>
 </g>
</svg>
