<?xml version="1.0" encoding="UTF-8"?>
<!DOCTYPE svg PUBLIC "-//W3C//DTD SVG 1.1//EN" "http://www.w3.org/Graphics/SVG/1.1/DTD/svg11.dtd">
<!-- Creator: CorelDRAW X7 -->
<svg xmlns="http://www.w3.org/2000/svg" xml:space="preserve" width="0.877543in" height="0.527071in" version="1.1" style="shape-rendering:geometricPrecision; text-rendering:geometricPrecision; image-rendering:optimizeQuality; fill-rule:evenodd; clip-rule:evenodd"
viewBox="0 0 96 58"
 xmlns:xlink="http://www.w3.org/1999/xlink">
 <defs>
  <style type="text/css">
   <![CDATA[
    .fil1 {fill:#74CBF2}
    .fil0 {fill:#777876}
   ]]>
  </style>
 </defs>
 <g id="Layer_x0020_1">
  <metadata id="CorelCorpID_0Corel-Layer"/>
  <path class="fil0" d="M82 6l-47 0c0,-4 -3,-6 -6,-6l-5 0c-3,0 -6,2 -7,6l-3 0c-8,0 -14,6 -14,13l0 25c0,7 6,14 14,14l68 0c8,0 14,-7 14,-14l0 -25c0,-7 -6,-13 -14,-13l0 0z"/>
  <path class="fil1" d="M77 31c0,8 -6,15 -14,15 -8,0 -14,-7 -14,-15 0,-8 6,-14 14,-14 8,0 14,6 14,14l0 0z"/>
  <polygon class="fil1" points="11,12 20,12 20,20 11,20 "/>
 </g>
</svg>
