<?xml version="1.0" encoding="UTF-8"?>
<!DOCTYPE svg PUBLIC "-//W3C//DTD SVG 1.1//EN" "http://www.w3.org/Graphics/SVG/1.1/DTD/svg11.dtd">
<!-- Creator: CorelDRAW X7 -->
<svg xmlns="http://www.w3.org/2000/svg" xml:space="preserve" width="0.877543in" height="0.586791in" version="1.1" style="shape-rendering:geometricPrecision; text-rendering:geometricPrecision; image-rendering:optimizeQuality; fill-rule:evenodd; clip-rule:evenodd"
viewBox="0 0 96 64"
 xmlns:xlink="http://www.w3.org/1999/xlink">
 <defs>
  <style type="text/css">
   <![CDATA[
    .fil1 {fill:#FEFEFE}
    .fil2 {fill:#74CBF2}
    .fil0 {fill:#777876}
   ]]>
  </style>
 </defs>
 <g id="Layer_x0020_1">
  <metadata id="CorelCorpID_0Corel-Layer"/>
  <path class="fil0" d="M82 12l-15 0 -1 -8c-1,-3 -2,-4 -4,-4l-14 0 -14 0c-2,0 -4,1 -4,4l-2 8 -11 0 -3 0c-8,0 -14,6 -14,14l0 24c0,8 6,14 14,14l68 0c8,0 14,-6 14,-14l0 -24c0,-8 -6,-14 -14,-14l0 0z"/>
  <path class="fil1" d="M48 16l0 0c6,0 12,3 16,7 4,4 6,9 6,16 0,6 -2,11 -6,16 -4,4 -10,6 -16,6 -6,0 -12,-2 -16,-6 -4,-5 -7,-10 -7,-16 0,-7 3,-12 7,-16 4,-4 10,-7 16,-7l0 0z"/>
  <path class="fil2" d="M61 26l0 0c-3,-4 -8,-6 -13,-6 -5,0 -10,2 -13,6 -4,3 -6,8 -6,13 0,5 2,9 6,13 3,3 8,5 13,5 5,0 10,-2 13,-5 3,-4 5,-8 5,-13 0,-5 -2,-10 -5,-13l0 0z"/>
 </g>
</svg>
