<?xml version="1.0" encoding="UTF-8"?>
<!DOCTYPE svg PUBLIC "-//W3C//DTD SVG 1.1//EN" "http://www.w3.org/Graphics/SVG/1.1/DTD/svg11.dtd">
<!-- Creator: CorelDRAW X7 -->
<svg xmlns="http://www.w3.org/2000/svg" xml:space="preserve" width="0.877555in" height="0.528386in" version="1.1" style="shape-rendering:geometricPrecision; text-rendering:geometricPrecision; image-rendering:optimizeQuality; fill-rule:evenodd; clip-rule:evenodd"
viewBox="0 0 157 95"
 xmlns:xlink="http://www.w3.org/1999/xlink">
 <defs>
  <style type="text/css">
   <![CDATA[
    .fil1 {fill:#FEFEFE}
    .fil2 {fill:#74CBF2}
    .fil0 {fill:#777876}
   ]]>
  </style>
 </defs>
 <g id="Layer_x0020_1">
  <metadata id="CorelCorpID_0Corel-Layer"/>
  <path class="fil0" d="M135 9l-77 0c-1,-5 -6,-9 -11,-9l-8 0c-5,0 -10,4 -11,9l-5 0c-13,0 -23,10 -23,23l0 40c0,13 10,23 23,23l112 0c12,0 22,-10 22,-23l0 -40c0,-13 -10,-23 -22,-23l0 0z"/>
  <path class="fil1" d="M103 82c-17,0 -30,-14 -30,-31 0,-17 13,-31 30,-31 17,0 31,14 31,31 0,17 -14,31 -31,31l0 0z"/>
  <polygon class="fil2" points="54,41 22,41 22,25 54,25 "/>
  <path class="fil2" d="M127 52c0,12 -11,23 -24,23 -13,0 -23,-11 -23,-23 0,-14 10,-24 23,-24 13,0 24,10 24,24l0 0z"/>
  <polygon class="fil0" points="51,28 25,28 25,39 51,39 "/>
 </g>
</svg>
