<?xml version="1.0" encoding="UTF-8"?>
<!DOCTYPE svg PUBLIC "-//W3C//DTD SVG 1.1//EN" "http://www.w3.org/Graphics/SVG/1.1/DTD/svg11.dtd">
<!-- Creator: CorelDRAW X7 -->
<svg xmlns="http://www.w3.org/2000/svg" xml:space="preserve" width="0.877504in" height="0.546961in" version="1.1" style="shape-rendering:geometricPrecision; text-rendering:geometricPrecision; image-rendering:optimizeQuality; fill-rule:evenodd; clip-rule:evenodd"
viewBox="0 0 69 43"
 xmlns:xlink="http://www.w3.org/1999/xlink">
 <defs>
  <style type="text/css">
   <![CDATA[
    .fil1 {fill:#74CBF2}
    .fil0 {fill:#777876}
   ]]>
  </style>
 </defs>
 <g id="Layer_x0020_1">
  <metadata id="CorelCorpID_0Corel-Layer"/>
  <path class="fil0" d="M41 10c0,-1 0,-1 0,-2l0 -4c0,-2 -1,-4 -3,-4l-26 0c-2,0 -3,2 -3,4 0,2 1,3 3,3l20 0c1,0 2,1 2,2 0,0 0,0 0,1l-31 0c-2,0 -3,1 -3,2l0 29c0,1 1,2 3,2l44 0 0 -12 3 0 0 1c0,1 1,2 2,2l4 0 0 0c0,1 1,2 2,2l9 0c1,0 2,-1 2,-2l0 -1 -2 0c-1,0 -2,-2 -2,-3l0 -9c0,-1 1,-3 2,-3l2 0 0 -1c0,-1 -1,-2 -2,-2l-9 0c-1,0 -2,1 -2,2l0 0 -4 0c-1,0 -2,1 -2,2l0 1 -3 0 0 -10 -6 0z"/>
  <polygon class="fil1" points="5,15 42,15 42,38 5,38 "/>
  <path class="fil1" d="M13 2l22 0c1,0 1,0 1,1l0 1c0,0 0,1 -1,1l-22 0c0,0 -1,-1 -1,-1l0 -1c0,-1 1,-1 1,-1l0 0z"/>
 </g>
</svg>
