<?xml version="1.0" encoding="UTF-8"?>
<!DOCTYPE svg PUBLIC "-//W3C//DTD SVG 1.1//EN" "http://www.w3.org/Graphics/SVG/1.1/DTD/svg11.dtd">
<!-- Creator: CorelDRAW X7 -->
<svg xmlns="http://www.w3.org/2000/svg" xml:space="preserve" width="17.575in" height="12.1206in" version="1.1" style="shape-rendering:geometricPrecision; text-rendering:geometricPrecision; image-rendering:optimizeQuality; fill-rule:evenodd; clip-rule:evenodd"
viewBox="0 0 8416 5804"
 xmlns:xlink="http://www.w3.org/1999/xlink">
 <defs>
  <style type="text/css">
   <![CDATA[
    .fil0 {fill:#373435}
   ]]>
  </style>
 </defs>
 <g id="Layer_x0020_1">
  <metadata id="CorelCorpID_0Corel-Layer"/>
  <path class="fil0" d="M2169 2823c-3,-39 -43,-52 -64,-51 -6,1 -57,1 -130,0 -34,-92 -134,-158 -252,-158l-219 0c-120,0 -221,68 -253,162 -712,86 -1251,697 -1251,1432 0,0 0,1 0,1 0,0 0,0 0,1 0,735 539,1346 1251,1432 32,94 133,162 253,162l219 0c118,0 218,-67 252,-159 73,0 124,0 130,1 21,0 61,-12 64,-51 0,-291 0,-845 0,-1386 0,-541 0,-1096 0,-1386z"/>
  <path class="fil0" d="M6247 2823c2,-39 42,-52 63,-51 7,1 57,1 131,0 34,-92 134,-158 252,-158l219 0c119,0 220,68 253,162 712,86 1251,697 1251,1432 0,0 0,1 0,1 0,0 0,0 0,1 0,735 -539,1346 -1251,1432 -33,94 -134,162 -253,162l-219 0c-118,0 -218,-67 -252,-159 -74,0 -124,0 -131,1 -21,0 -61,-12 -63,-51 0,-291 0,-784 0,-1325 0,-541 0,-1157 0,-1447z"/>
  <path class="fil0" d="M5205 531c-317,-186 -654,-281 -1001,-282l0 0c-1,0 -1,0 -2,0 -1,0 -1,0 -2,0l0 0c-347,1 -684,96 -1001,282 -104,61 -204,131 -301,209 25,45 74,98 162,70 252,-80 690,-237 1142,-251 452,14 890,171 1142,251 88,28 137,-25 162,-70 -97,-78 -197,-148 -301,-209z"/>
  <path class="fil0" d="M6659 2624c25,-6 51,-10 79,-10l152 0c-391,-1523 -1439,-2614 -2671,-2614 -1233,0 -2281,1091 -2671,2614l179 0c18,0 36,2 53,5 12,-43 24,-86 37,-128 133,-437 324,-830 567,-1166 240,-334 520,-595 830,-777 318,-187 656,-282 1005,-282 348,0 686,95 1004,282 311,182 590,443 831,777 242,336 433,729 566,1166 14,44 27,89 39,133z"/>
 </g>
</svg>
