<?xml version="1.0" encoding="UTF-8"?>
<!DOCTYPE svg PUBLIC "-//W3C//DTD SVG 1.1//EN" "http://www.w3.org/Graphics/SVG/1.1/DTD/svg11.dtd">
<!-- Creator: CorelDRAW X7 -->
<svg xmlns="http://www.w3.org/2000/svg" xml:space="preserve" width="0.877516in" height="0.485894in" version="1.1" style="shape-rendering:geometricPrecision; text-rendering:geometricPrecision; image-rendering:optimizeQuality; fill-rule:evenodd; clip-rule:evenodd"
viewBox="0 0 101 56"
 xmlns:xlink="http://www.w3.org/1999/xlink">
 <defs>
  <style type="text/css">
   <![CDATA[
    .fil2 {fill:#FEFEFE}
    .fil1 {fill:#74CBF2}
    .fil0 {fill:#777876}
   ]]>
  </style>
 </defs>
 <g id="Layer_x0020_1">
  <metadata id="CorelCorpID_0Corel-Layer"/>
  <path class="fil0" d="M78 29l0 -8c0,-4 -3,-6 -6,-6l-7 0c-1,6 -5,10 -12,10l-33 0c-5,0 -9,-3 -11,-7l-3 3 0 29c0,3 3,6 6,6l60 0c3,0 6,-3 6,-6l0 -9 23 15 0 -41 -23 14z"/>
  <polygon class="fil1" points="0,20 7,13 7,7 0,0 "/>
  <path class="fil1" d="M53 20c4,0 7,-3 7,-7l0 -6c0,-4 -3,-7 -7,-7l-33 0c-4,0 -7,3 -7,7l0 6c0,4 3,7 7,7l33 0z"/>
  <path class="fil2" d="M12 41l53 0c1,0 2,1 2,2l0 6c0,1 -1,1 -2,1l-53 0c-1,0 -2,0 -2,-1l0 -6c0,-1 1,-2 2,-2l0 0z"/>
 </g>
</svg>
