<?xml version="1.0" encoding="UTF-8"?>
<!DOCTYPE svg PUBLIC "-//W3C//DTD SVG 1.1//EN" "http://www.w3.org/Graphics/SVG/1.1/DTD/svg11.dtd">
<!-- Creator: CorelDRAW X7 -->
<svg xmlns="http://www.w3.org/2000/svg" xml:space="preserve" width="2.97441in" height="1.98675in" version="1.1" style="shape-rendering:geometricPrecision; text-rendering:geometricPrecision; image-rendering:optimizeQuality; fill-rule:evenodd; clip-rule:evenodd"
viewBox="0 0 2116 1414"
 xmlns:xlink="http://www.w3.org/1999/xlink">
 <defs>
  <style type="text/css">
   <![CDATA[
    .fil2 {fill:#2AA3AF;fill-rule:nonzero}
    .fil0 {fill:#2F2148;fill-rule:nonzero}
    .fil1 {fill:#C1DDDF;fill-rule:nonzero}
   ]]>
  </style>
 </defs>
 <g id="OBJECTS">
  <metadata id="CorelCorpID_0Corel-Layer"/>
  <path class="fil0" d="M1846 1412c171,-13 270,-59 270,-261l0 -71 -4 -947c0,-74 -60,-133 -133,-133l-21 0 -13 0 -1648 0c-73,0 -290,88 -290,223l1839 1189z"/>
  <path class="fil1" d="M1840 1413c73,0 132,-60 132,-133l1 -71 -4 -947c0,-74 -60,-133 -133,-133l-21 0 -13 0 -1669 0c-74,0 -133,59 -133,133l0 948 1 71c0,73 59,133 133,133l1557 0 149 -1z"/>
  <polygon class="fil2" points="1719,129 1494,374 470,374 251,129 "/>
  <path class="fil1" d="M1460 308c-21,0 -38,-17 -38,-38 0,-21 17,-38 38,-38 21,0 38,17 38,38 0,21 -17,38 -38,38z"/>
  <path class="fil1" d="M507 308c-21,0 -37,-17 -37,-38 0,-21 16,-38 37,-38 21,0 38,17 38,38 0,21 -17,38 -38,38z"/>
  <path class="fil1" d="M635 299c-15,0 -26,-12 -26,-26 0,-15 11,-26 26,-26l690 0c14,0 26,11 26,26 0,14 -12,26 -26,26l-690 0z"/>
  <path class="fil2" d="M0 468l174 0c41,0 73,-32 73,-73 0,-40 -32,-72 -73,-72l-174 0 0 145z"/>
  <path class="fil2" d="M0 804l174 0c41,0 73,-33 73,-73 0,-40 -32,-73 -73,-73l-174 0 0 146z"/>
  <path class="fil2" d="M1970 468l-175 0c-40,0 -72,-32 -72,-73 0,-40 32,-72 72,-72l175 0 0 145z"/>
  <path class="fil2" d="M1971 804l-174 0c-41,0 -73,-33 -73,-73 0,-40 32,-73 73,-73l174 0 0 146z"/>
  <polygon class="fil0" points="630,1278 1423,1278 1423,980 529,980 529,1042 529,1278 "/>
  <path class="fil2" d="M1400 1230c0,15 -12,28 -27,28 -15,0 -27,-13 -27,-28 0,-15 12,-27 27,-27 15,0 27,12 27,27z"/>
  <path class="fil2" d="M1400 1030c0,15 -12,27 -27,27 -15,0 -27,-12 -27,-27 0,-15 12,-28 27,-28 15,0 27,13 27,28z"/>
  <path class="fil2" d="M610 1030c0,15 -12,27 -27,27 -15,0 -27,-12 -27,-27 0,-15 12,-28 27,-28 15,0 27,13 27,28z"/>
  <path class="fil2" d="M610 1225c0,15 -12,27 -27,27 -15,0 -27,-12 -27,-27 0,-15 12,-27 27,-27 15,0 27,12 27,27z"/>
  <path class="fil1" d="M1261 1123c0,-37 -30,-68 -68,-68l-433 0c-37,0 -67,31 -67,68 0,38 30,68 67,68l433 0c38,0 68,-30 68,-68zm-455 41l0 0c-21,0 -39,-18 -39,-39 0,-22 18,-39 39,-39l345 0c21,0 39,17 39,39 0,21 -18,39 -39,39l-345 0z"/>
  <path class="fil1" d="M1038 1101l90 0c13,0 23,10 23,23 0,13 -10,23 -23,23l-90 0 0 -46z"/>
  <path class="fil1" d="M901 1147l-76 0c-13,0 -23,-10 -23,-23 0,-13 10,-23 23,-23l76 0 0 46z"/>
  <path class="fil1" d="M929 1150l80 0 0 -52 -80 0 0 52zm40 -4l0 0c-12,0 -21,-10 -21,-22 0,-12 9,-21 21,-21 12,0 22,9 22,21 0,12 -10,22 -22,22z"/>
  <path class="fil0" d="M694 658c0,94 -77,171 -171,171 -94,0 -170,-77 -170,-171 0,-94 76,-170 170,-170 94,0 171,76 171,170z"/>
  <path class="fil2" d="M519 850c-106,0 -192,-86 -192,-192 0,-105 86,-191 192,-191 106,0 192,86 192,191 0,106 -86,192 -192,192zm0 -350l0 0c-88,0 -159,71 -159,158 0,88 71,159 159,159 88,0 159,-71 159,-159 0,-87 -71,-158 -159,-158z"/>
  <path class="fil2" d="M519 602c-31,0 -56,25 -56,56 0,31 25,56 56,56 31,0 56,-25 56,-56 0,-31 -25,-56 -56,-56zm4 -27l0 0 0 -55c0,-2 -2,-3 -3,-3 -2,0 -4,1 -4,3l0 55c0,2 2,3 4,3 1,0 3,-1 3,-3zm3 225l0 0 0 -62c0,-2 -2,-4 -3,-4 -2,0 -4,2 -4,4l0 62c0,2 2,3 4,3 1,0 3,-1 3,-3zm-96 -132l0 0c0,-2 -2,-4 -4,-4l-39 0c-2,0 -3,2 -3,4 0,1 1,3 3,3l39 0c2,0 4,-2 4,-3zm236 -3l0 0c0,-2 -2,-4 -4,-4l-63 0c-2,0 -3,2 -3,4 0,1 1,3 3,3l63 0c2,0 4,-2 4,-3z"/>
  <path class="fil0" d="M1158 658c0,94 -76,171 -171,171 -94,0 -170,-77 -170,-171 0,-94 76,-170 170,-170 95,0 171,76 171,170z"/>
  <path class="fil2" d="M983 850c-106,0 -192,-86 -192,-192 0,-105 86,-191 192,-191 106,0 192,86 192,191 0,106 -86,192 -192,192zm0 -350l0 0c-87,0 -159,71 -159,158 0,88 72,159 159,159 88,0 159,-71 159,-159 0,-87 -71,-158 -159,-158z"/>
  <path class="fil2" d="M983 602c-31,0 -56,25 -56,56 0,31 25,56 56,56 31,0 56,-25 56,-56 0,-31 -25,-56 -56,-56zm4 -27l0 0 0 -55c0,-2 -1,-3 -3,-3 -2,0 -4,1 -4,3l0 55c0,2 2,3 4,3 2,0 3,-1 3,-3zm3 225l0 0 0 -62c0,-2 -1,-4 -3,-4 -2,0 -4,2 -4,4l0 62c0,2 2,3 4,3 2,0 3,-1 3,-3zm-96 -132l0 0c0,-2 -2,-4 -4,-4l-39 0c-2,0 -3,2 -3,4 0,1 1,3 3,3l39 0c2,0 4,-2 4,-3zm236 -3l0 0c0,-2 -1,-4 -3,-4l-64 0c-2,0 -3,2 -3,4 0,1 1,3 3,3l64 0c2,0 3,-2 3,-3z"/>
  <path class="fil0" d="M1622 658c0,94 -76,171 -170,171 -95,0 -171,-77 -171,-171 0,-94 76,-170 171,-170 94,0 170,76 170,170z"/>
  <path class="fil2" d="M1447 850c-105,0 -191,-86 -191,-192 0,-105 86,-191 191,-191 106,0 192,86 192,191 0,106 -86,192 -192,192zm0 -350l0 0c-87,0 -158,71 -158,158 0,88 71,159 158,159 88,0 159,-71 159,-159 0,-87 -71,-158 -159,-158z"/>
  <path class="fil2" d="M1447 602c-31,0 -56,25 -56,56 0,31 25,56 56,56 31,0 56,-25 56,-56 0,-31 -25,-56 -56,-56zm4 -27l0 0 0 -55c0,-2 -1,-3 -3,-3 -2,0 -4,1 -4,3l0 55c0,2 2,3 4,3 2,0 3,-1 3,-3zm3 225l0 0 0 -62c0,-2 -1,-4 -3,-4 -2,0 -4,2 -4,4l0 62c0,2 2,3 4,3 2,0 3,-1 3,-3zm-96 -132l0 0c0,-2 -1,-4 -3,-4l-39 0c-2,0 -4,2 -4,4 0,1 2,3 4,3l39 0c2,0 3,-2 3,-3zm236 -3l0 0c0,-2 -1,-4 -3,-4l-63 0c-2,0 -4,2 -4,4 0,1 2,3 4,3l63 0c2,0 3,-2 3,-3z"/>
 </g>
</svg>
