<?xml version="1.0" encoding="UTF-8"?>
<!DOCTYPE svg PUBLIC "-//W3C//DTD SVG 1.1//EN" "http://www.w3.org/Graphics/SVG/1.1/DTD/svg11.dtd">
<!-- Creator: CorelDRAW X7 -->
<svg xmlns="http://www.w3.org/2000/svg" xml:space="preserve" width="0.877559in" height="0.700972in" version="1.1" style="shape-rendering:geometricPrecision; text-rendering:geometricPrecision; image-rendering:optimizeQuality; fill-rule:evenodd; clip-rule:evenodd"
viewBox="0 0 434 346"
 xmlns:xlink="http://www.w3.org/1999/xlink">
 <defs>
  <style type="text/css">
   <![CDATA[
    .fil1 {fill:#FEFEFE}
    .fil2 {fill:#74CBF2}
    .fil0 {fill:#777876}
   ]]>
  </style>
 </defs>
 <g id="Layer_x0020_1">
  <metadata id="CorelCorpID_0Corel-Layer"/>
  <path class="fil0" d="M25 75c-14,2 -25,13 -25,27l0 217c0,15 12,27 28,27l379 0c15,0 27,-12 27,-27l0 -217c0,-14 -11,-25 -25,-27l-2 0 -4 -16c0,-7 -5,-10 -11,-10l-39 0 -39 0c-6,0 -11,3 -12,10l-4 16 -6 0 -18 -63c-2,-7 -8,-12 -16,-12l-77 1c-7,0 -14,4 -17,11l-18 63 -9 0 -3 -16c-1,-7 -6,-10 -13,-10l-38 0 -38 0c-6,0 -12,3 -13,10l-3 16 -4 0z"/>
  <polygon class="fil1" points="258,75 179,75 192,33 246,32 "/>
  <path class="fil2" d="M217 100c15,0 30,3 43,9l0 0c14,5 26,14 36,24l0 0 0 0c10,10 19,22 24,36l0 0c5,13 9,28 9,43 0,15 -4,29 -9,43l0 0c-5,13 -14,25 -24,36l0 0c-10,10 -22,18 -36,24l0 0c-13,5 -28,8 -43,8 -15,0 -29,-3 -43,-8l0 0c-13,-6 -26,-14 -36,-24l0 0c-10,-11 -19,-23 -24,-36l0 0c-6,-14 -8,-28 -8,-43 0,-15 2,-30 8,-43l0 0c5,-14 14,-26 24,-36l0 0c10,-10 23,-19 36,-24l0 0c14,-6 28,-9 43,-9l0 0z"/>
  <path class="fil0" d="M270 159c-6,-7 -15,-13 -24,-17 -9,-4 -18,-6 -29,-6 -10,0 -20,2 -29,6 -9,4 -17,10 -24,17 -7,6 -12,15 -16,24 -4,9 -6,18 -6,29 0,10 2,20 6,29 4,8 9,17 16,24 7,7 15,12 24,16 9,4 19,6 29,6 11,0 20,-2 29,-6 9,-4 18,-9 24,-16 7,-7 13,-16 17,-24 4,-9 5,-19 5,-29 0,-11 -1,-20 -5,-29 -4,-9 -10,-18 -17,-24l0 0z"/>
  <path class="fil2" d="M217 159c7,0 14,1 20,4l0 0c7,2 13,6 18,11l0 0c5,5 9,11 11,18l0 0c3,5 4,13 4,20 0,7 -1,14 -4,20l0 0c-2,7 -6,13 -11,17l0 0c-5,5 -11,9 -18,11l0 0c-6,4 -13,5 -20,5 -7,0 -14,-1 -20,-5l0 0c-7,-2 -13,-6 -17,-11l0 0c-6,-4 -9,-10 -12,-17l0 0c-3,-6 -4,-13 -4,-20 0,-7 1,-15 4,-20l0 0c3,-7 6,-13 12,-18l0 0c4,-5 10,-9 17,-11l0 0c6,-3 13,-4 20,-4l0 0z"/>
  <path class="fil0" d="M242 186c-3,-3 -6,-6 -11,-8 -4,-2 -9,-2 -14,-2 -5,0 -9,0 -14,2 -4,2 -8,5 -11,8 -4,4 -6,8 -8,11 -2,5 -3,10 -3,15 0,4 1,9 3,13 2,5 4,9 8,12 3,3 7,6 11,8 5,2 9,3 14,3 5,0 10,-1 14,-3 5,-2 8,-5 11,-8 4,-3 7,-7 8,-12 2,-4 3,-9 3,-13 0,-5 -1,-10 -3,-15 -1,-3 -4,-7 -8,-11l0 0z"/>
 </g>
</svg>
