<?xml version="1.0" encoding="UTF-8"?>
<!DOCTYPE svg PUBLIC "-//W3C//DTD SVG 1.1//EN" "http://www.w3.org/Graphics/SVG/1.1/DTD/svg11.dtd">
<!-- Creator: CorelDRAW X7 -->
<svg xmlns="http://www.w3.org/2000/svg" xml:space="preserve" width="0.877555in" height="0.604055in" version="1.1" style="shape-rendering:geometricPrecision; text-rendering:geometricPrecision; image-rendering:optimizeQuality; fill-rule:evenodd; clip-rule:evenodd"
viewBox="0 0 157 108"
 xmlns:xlink="http://www.w3.org/1999/xlink">
 <defs>
  <style type="text/css">
   <![CDATA[
    .fil1 {fill:#FEFEFE}
    .fil2 {fill:#74CBF2}
    .fil0 {fill:#777876}
   ]]>
  </style>
 </defs>
 <g id="Layer_x0020_1">
  <metadata id="CorelCorpID_0Corel-Layer"/>
  <path class="fil0" d="M147 10l-108 0 0 -10 -19 10 -10 0c-5,0 -10,4 -10,10l0 78c0,6 5,10 10,10l137 0c6,0 10,-4 10,-10l0 -78c0,-6 -4,-10 -10,-10l0 0z"/>
  <polygon class="fil1" points="147,30 137,30 137,20 147,20 "/>
  <path class="fil1" d="M98 98c-21,0 -39,-17 -39,-39 0,-21 18,-39 39,-39 22,0 39,18 39,39 0,22 -17,39 -39,39l0 0z"/>
  <path class="fil2" d="M98 30c-16,0 -29,13 -29,29 0,16 13,29 29,29 17,0 30,-13 30,-29 0,-16 -13,-29 -30,-29l0 0z"/>
  <polygon class="fil1" points="118,69 79,69 79,49 118,49 "/>
 </g>
</svg>
