<?xml version="1.0" encoding="UTF-8"?>
<!DOCTYPE svg PUBLIC "-//W3C//DTD SVG 1.1//EN" "http://www.w3.org/Graphics/SVG/1.1/DTD/svg11.dtd">
<!-- Creator: CorelDRAW X7 -->
<svg xmlns="http://www.w3.org/2000/svg" xml:space="preserve" width="1.06224in" height="1.51325in" version="1.1" style="shape-rendering:geometricPrecision; text-rendering:geometricPrecision; image-rendering:optimizeQuality; fill-rule:evenodd; clip-rule:evenodd"
viewBox="0 0 123 175"
 xmlns:xlink="http://www.w3.org/1999/xlink">
 <defs>
  <style type="text/css">
   <![CDATA[
    .fil0 {fill:#231F1F;fill-rule:nonzero;fill-opacity:0.800000}
   ]]>
  </style>
 </defs>
 <g id="objects">
  <metadata id="CorelCorpID_0Corel-Layer"/>
  <path class="fil0" d="M0 10l0 49 123 0 0 -49c0,-5 -5,-10 -11,-10l-102 0c-5,0 -10,5 -10,10zm107 38l0 0 -91 0 0 -33 91 0 0 33z"/>
  <path class="fil0" d="M10 175l102 0c6,0 11,-5 11,-10l0 -103 -123 0 0 103c0,5 5,10 10,10zm85 -103l0 0 9 0c2,0 3,2 3,3l0 9c0,2 -1,3 -3,3l-9 0c-2,0 -3,-1 -3,-3l0 -9c0,-1 1,-3 3,-3zm0 24l0 0 9 0c2,0 3,2 3,3l0 9c0,2 -1,3 -3,3l-9 0c-2,0 -3,-1 -3,-3l0 -9c0,-1 1,-3 3,-3zm0 24l0 0 9 0c2,0 3,2 3,3l0 33c0,2 -1,3 -3,3l-9 0c-2,0 -3,-1 -3,-3l0 -33c0,-1 1,-3 3,-3zm-30 -48l0 0 9 0c2,0 3,2 3,3l0 9c0,2 -1,3 -3,3l-9 0c-2,0 -3,-1 -3,-3l0 -9c0,-1 1,-3 3,-3zm0 24l0 0 9 0c2,0 3,2 3,3l0 9c0,2 -1,3 -3,3l-9 0c-2,0 -3,-1 -3,-3l0 -9c0,-1 1,-3 3,-3zm0 24l0 0 9 0c2,0 3,2 3,3l0 9c0,2 -1,3 -3,3l-9 0c-2,0 -3,-1 -3,-3l0 -9c0,-1 1,-3 3,-3zm0 24l0 0 9 0c2,0 3,2 3,3l0 9c0,2 -1,3 -3,3l-9 0c-2,0 -3,-1 -3,-3l0 -9c0,-1 1,-3 3,-3zm-23 -72l0 0 9 0c2,0 3,2 3,3l0 9c0,2 -1,3 -3,3l-9 0c-2,0 -3,-1 -3,-3l0 -9c0,-1 1,-3 3,-3zm0 24l0 0 9 0c2,0 3,2 3,3l0 9c0,2 -1,3 -3,3l-9 0c-2,0 -3,-1 -3,-3l0 -9c0,-1 1,-3 3,-3zm0 24l0 0 9 0c2,0 3,2 3,3l0 9c0,2 -1,3 -3,3l-9 0c-2,0 -3,-1 -3,-3l0 -9c0,-1 1,-3 3,-3zm0 24l0 0 9 0c2,0 3,2 3,3l0 9c0,2 -1,3 -3,3l-9 0c-2,0 -3,-1 -3,-3l0 -9c0,-1 1,-3 3,-3zm-23 -72l0 0 9 0c1,0 3,2 3,3l0 9c0,2 -2,3 -3,3l-9 0c-2,0 -3,-1 -3,-3l0 -9c0,-1 1,-3 3,-3zm0 24l0 0 9 0c1,0 3,2 3,3l0 9c0,2 -2,3 -3,3l-9 0c-2,0 -3,-1 -3,-3l0 -9c0,-1 1,-3 3,-3zm0 24l0 0 9 0c1,0 3,2 3,3l0 9c0,2 -2,3 -3,3l-9 0c-2,0 -3,-1 -3,-3l0 -9c0,-1 1,-3 3,-3zm0 24l0 0 9 0c1,0 3,2 3,3l0 9c0,2 -2,3 -3,3l-9 0c-2,0 -3,-1 -3,-3l0 -9c0,-1 1,-3 3,-3z"/>
 </g>
</svg>
