<?xml version="1.0" encoding="UTF-8"?>
<!DOCTYPE svg PUBLIC "-//W3C//DTD SVG 1.1//EN" "http://www.w3.org/Graphics/SVG/1.1/DTD/svg11.dtd">
<!-- Creator: CorelDRAW X7 -->
<svg xmlns="http://www.w3.org/2000/svg" xml:space="preserve" width="2.58168in" height="3.9425in" version="1.1" style="shape-rendering:geometricPrecision; text-rendering:geometricPrecision; image-rendering:optimizeQuality; fill-rule:evenodd; clip-rule:evenodd"
viewBox="0 0 301 459"
 xmlns:xlink="http://www.w3.org/1999/xlink">
 <defs>
  <style type="text/css">
   <![CDATA[
    .fil0 {fill:#3A3B3C}
   ]]>
  </style>
 </defs>
 <g id="Layer_x0020_1">
  <metadata id="CorelCorpID_0Corel-Layer"/>
  <path class="fil0" d="M276 428c0,3 -3,7 -7,7l-237 0c-4,0 -8,-4 -8,-7l0 -396c0,-4 4,-8 8,-8l237 0c4,0 7,4 7,8l0 396zm-7 -428l-237 0c-18,0 -32,14 -32,32l0 396c0,17 14,31 32,31l237 0c17,0 32,-14 32,-31l0 -396c0,-18 -15,-32 -32,-32z"/>
  <path class="fil0" d="M86 192c0,-1 0,-2 0,-3l64 49 64 -49c1,1 1,2 1,3l0 75c0,6 -5,11 -11,11l-107 0c-6,0 -11,-5 -11,-11l0 -75zm116 -11l-52 40 -52 -40 104 0zm-158 234l212 0 0 -356 -212 0 0 356z"/>
  <polygon class="fil0" points="166,35 135,35 135,51 166,51 "/>
  <path class="fil0" d="M242 55c7,0 12,-5 12,-12 0,-7 -5,-12 -12,-12 -7,0 -12,5 -12,12 0,7 5,12 12,12z"/>
 </g>
</svg>
