<?xml version="1.0" encoding="UTF-8"?>
<!DOCTYPE svg PUBLIC "-//W3C//DTD SVG 1.1//EN" "http://www.w3.org/Graphics/SVG/1.1/DTD/svg11.dtd">
<!-- Creator: CorelDRAW X7 -->
<svg xmlns="http://www.w3.org/2000/svg" xml:space="preserve" width="2.375in" height="3.50511in" version="1.1" style="shape-rendering:geometricPrecision; text-rendering:geometricPrecision; image-rendering:optimizeQuality; fill-rule:evenodd; clip-rule:evenodd"
viewBox="0 0 369 545"
 xmlns:xlink="http://www.w3.org/1999/xlink">
 <defs>
  <style type="text/css">
   <![CDATA[
    .fil0 {fill:#3A3B3C}
   ]]>
  </style>
 </defs>
 <g id="Layer_x0020_1">
  <metadata id="CorelCorpID_0Corel-Layer"/>
  <path class="fil0" d="M337 503c0,5 -4,10 -10,10l-285 0c-5,0 -10,-5 -10,-10l0 -461c0,-5 5,-10 10,-10l285 0c6,0 10,5 10,10l0 461zm-10 -503l-285 0c-23,0 -42,19 -42,42l0 461c0,23 19,42 42,42l285 0c24,0 42,-19 42,-42l0 -461c0,-23 -18,-42 -42,-42z"/>
  <path class="fil0" d="M299 251c0,2 -2,3 -4,3l-221 0c-2,0 -3,-1 -3,-3l0 -175c0,-2 1,-3 3,-3l221 0c2,0 4,1 4,3l0 175zm-4 -200l-221 0c-14,0 -25,11 -25,25l0 175c0,13 11,25 25,25l221 0c14,0 25,-12 25,-25l0 -175c0,-14 -11,-25 -25,-25z"/>
  <path class="fil0" d="M185 433c-23,0 -41,-18 -41,-41 0,-22 18,-41 41,-41 22,0 40,19 40,41 0,23 -18,41 -40,41zm0 -132c-51,0 -91,41 -91,91 0,50 40,91 91,91 50,0 91,-41 91,-91 0,-50 -41,-91 -91,-91z"/>
  <path class="fil0" d="M252 98l-17 2 -58 6 -19 2c-5,0 -8,4 -8,9l0 19 0 56c-3,0 -5,0 -8,0 -19,2 -34,13 -34,25 0,12 15,19 34,17 19,-2 35,-13 35,-24l0 -73c0,-2 2,-4 4,-4l49 -5c2,0 5,2 5,4l0 51c-3,0 -5,0 -8,0 -19,2 -34,13 -34,25 0,12 15,20 34,18 19,-2 35,-14 35,-25l0 -76 0 -18c0,-5 -5,-10 -10,-9z"/>
 </g>
</svg>
