<?xml version="1.0" encoding="UTF-8"?>
<!DOCTYPE svg PUBLIC "-//W3C//DTD SVG 1.1//EN" "http://www.w3.org/Graphics/SVG/1.1/DTD/svg11.dtd">
<!-- Creator: CorelDRAW X7 -->
<svg xmlns="http://www.w3.org/2000/svg" xml:space="preserve" width="3.0318in" height="2.07359in" version="1.1" style="shape-rendering:geometricPrecision; text-rendering:geometricPrecision; image-rendering:optimizeQuality; fill-rule:evenodd; clip-rule:evenodd"
viewBox="0 0 922 630"
 xmlns:xlink="http://www.w3.org/1999/xlink">
 <defs>
  <style type="text/css">
   <![CDATA[
    .fil0 {fill:#2AA3AF;fill-rule:nonzero}
    .fil2 {fill:#2F2148;fill-rule:nonzero}
    .fil5 {fill:#413F42;fill-rule:nonzero}
    .fil1 {fill:#A3D1CF;fill-rule:nonzero}
    .fil4 {fill:#DA1C5B;fill-rule:nonzero}
    .fil3 {fill:#FBAF3F;fill-rule:nonzero}
    .fil6 {fill:white;fill-rule:nonzero}
   ]]>
  </style>
 </defs>
 <g id="OBJECTS">
  <metadata id="CorelCorpID_0Corel-Layer"/>
  <path class="fil0" d="M799 618c85,-35 118,-89 122,-142l1 -36 0 -343c0,-53 -43,-96 -96,-96l-47 -1 -603 0c-53,0 -111,33 -153,115l776 503z"/>
  <path class="fil1" d="M754 630c53,0 96,-45 96,-98l0 -355c0,-53 -43,-96 -96,-96l-260 0 -398 0c-53,0 -96,43 -96,96l0 355c0,53 43,98 96,98l395 0 263 0z"/>
  <path class="fil2" d="M753 431c-25,0 -45,20 -45,45l0 154 46 0c16,0 32,-4 45,-12l0 -142c0,-25 -20,-45 -46,-45z"/>
  <path class="fil2" d="M94 431c-25,0 -45,20 -45,45l0 141c14,8 30,13 47,13l44 0 0 -154c0,-25 -21,-45 -46,-45z"/>
  <path class="fil2" d="M556 431c0,77 -62,139 -138,139 -77,0 -139,-62 -139,-139 0,-76 62,-138 139,-138 76,0 138,62 138,138z"/>
  <path class="fil3" d="M175 198c0,38 -30,68 -67,68 -37,0 -68,-30 -68,-68 0,-37 31,-67 68,-67 37,0 67,30 67,67z"/>
  <path class="fil3" d="M801 198c0,38 -30,68 -67,68 -37,0 -68,-30 -68,-68 0,-37 31,-67 68,-67 37,0 67,30 67,67z"/>
  <path class="fil2" d="M107 127c-40,0 -73,32 -73,72 0,40 33,72 73,72 40,0 72,-32 72,-72 0,-40 -32,-72 -72,-72zm55 103l0 0 7 -12 0 1c-1,4 -3,9 -6,13l-1 -2zm-55 34l0 0c-2,0 -3,0 -5,0l-4 -7 6 -10 7 12 -3 5c0,0 -1,0 -1,0zm-48 -21l0 0 -1 -1 7 -12 7 13 -5 8c-3,-2 -6,-5 -8,-8zm-17 -53l0 0 7 12 -6 10c-1,-4 -2,-8 -2,-13 0,-3 1,-6 1,-9zm14 -29l0 0 -6 11 -1 -3c1,-3 3,-7 6,-10l1 2zm66 -25l0 0 5 9 -7 12 -6 -12 5 -10c1,0 2,0 3,1zm50 63l0 0c0,4 0,7 -1,11l-2 4 -7 -12 7 -12 3 5c0,1 0,3 0,4zm-114 -9l0 0 7 12 -7 12 -7 -12 7 -12zm-8 10l0 0 -7 -12 7 -12 7 12 -7 12zm40 -64l0 0 6 10 -7 13 -7 -12 6 -11c1,0 1,0 2,0zm14 50l0 0 -7 -13 7 -12 7 12 -7 13zm8 -11l0 0 7 13 -7 12 -7 -12 7 -13zm-9 13l0 0 -7 12 -7 -12 7 -13 7 13zm-15 -2l0 0 -6 -11 7 -12 6 10 -7 13zm-1 2l0 0 -7 12 -6 -11 7 -12 6 11zm-8 14l0 0 -6 10 -6 -10 6 -11 6 11zm1 2l0 0 7 12 -6 11 -7 -13 6 -10zm1 -2l0 0 7 -12 7 12 -7 12 -7 -12zm15 2l0 0 7 12 -7 12 -7 -12 7 -12zm1 -2l0 0 7 -12 7 12 -7 12 -7 -12zm15 2l0 0 7 12 -7 12 -7 -12 7 -12zm2 -2l0 0 6 -12 7 12 -7 12 -6 -12zm8 -14l0 0 7 -13 6 13 -6 12 -7 -12zm7 16l0 0 6 12 -6 12 -7 -12 7 -12zm1 -2l0 0 7 -12 7 12 -7 12 -7 -12zm8 -14l0 0 7 -13 7 13 -7 12 -7 -12zm-1 -2l0 0 -7 -13 7 -12 7 12 -7 13zm-8 -15l0 0 -7 -12 7 -12 6 12 -6 12zm-2 2l0 0 -7 13 -6 -13 6 -12 7 12zm-15 -2l0 0 -7 -12 7 -12 7 12 -7 12zm-8 -14l0 0 -6 -11 7 -12 6 11 -7 12zm-1 2l0 0 -7 12 -6 -10 7 -13 6 11zm-15 2l0 0 -7 12 -7 -12 7 -12 7 12zm-8 14l0 0 -7 12 -7 -12 7 -12 7 12zm-8 14l0 0 -6 11 -7 -12 6 -11 7 12zm-8 39l0 0 -7 12 -6 -10 7 -12 6 10zm-5 -12l0 0 7 -12 6 10 -7 12 -6 -10zm14 0l0 0 7 13 -7 12 -7 -13 7 -12zm8 15l0 0 7 12 -7 12 -7 -12 7 -12zm1 -2l0 0 6 -11 7 12 -6 11 -7 -12zm14 3l0 0 7 13 -6 10 -7 -12 6 -11zm1 -2l0 0 7 -12 7 12 -7 13 -7 -13zm15 2l0 0 7 13 -7 12 -7 -12 7 -13zm2 -2l0 0 6 -12 7 12 -7 13 -6 -13zm15 2l0 0 6 13 -6 12 -7 -12 7 -13zm1 -2l0 0 7 -12 7 12 -7 13 -7 -13zm8 -14l0 0 7 -12 7 12 -7 12 -7 -12zm8 -14l0 0 7 -12 7 12 -7 12 -7 -12zm8 -14l0 0 7 -13 7 13 -7 12 -7 -12zm8 -15l0 0 3 -4c2,4 4,9 5,14l-1 3 -7 -13zm-1 -2l0 0 -7 -12 2 -3c3,3 5,7 8,11l-3 4zm-1 2l0 0 -7 13 -7 -13 7 -12 7 12zm-15 -2l0 0 -7 -12 7 -12 7 12 -7 12zm-8 -14l0 0 -7 -12 3 -6c4,2 7,4 10,6l-6 12zm-8 -14l0 0 -4 -7c2,1 4,2 6,2l-2 5zm-17 0l0 0 -5 -9c4,0 7,0 10,0l-5 9zm-15 1l0 0 -5 -9c4,0 7,-1 11,-1l-6 10zm-16 1l0 0 -2 -5c2,-1 4,-2 6,-3l-4 8zm-1 2l0 0 -7 12 -6 -11c3,-3 6,-5 10,-7l3 6zm-8 14l0 0 -7 12 -7 -12 7 -12 7 12zm-8 14l0 0 -6 11 -7 -12 6 -11 7 12zm-15 -1l0 0 -6 10c1,-5 3,-9 4,-12l2 2zm-6 41l0 0 7 -11 7 12 -7 12 -6 -11c0,0 0,-1 -1,-2zm30 30l0 0 7 12 -1 1c-3,-1 -7,-3 -10,-6l4 -7zm8 14l0 0 0 0c0,0 0,0 0,0l0 0zm1 -2l0 0 7 -12 7 12 -3 6c-3,-1 -6,-2 -9,-3l-2 -3zm15 2l0 0 3 5c-2,0 -4,0 -5,-1l2 -4zm15 2l0 0 2 3c-1,0 -2,0 -4,0l2 -3zm2 -2l0 0 6 -12 7 12 -1 3c-3,1 -6,1 -10,2l-2 -5zm16 0l0 0 7 -12 4 8c-3,2 -7,4 -11,5l0 -1zm8 -14l0 0 7 -13 7 13 -3 4c-2,1 -4,3 -6,5l-5 -9zm15 -2l0 0 -7 -13 7 -12 7 12 -7 13zm1 -27l0 0 7 -12 7 12 -7 12 -7 -12zm16 -28l0 0 1 -2c0,1 0,3 1,4l-2 -2zm-16 -34l0 0 -1 3 -5 -9c2,2 4,4 6,6zm-93 -1l0 0 -4 6 -1 -1c2,-2 3,-4 5,-5zm93 91l0 0 7 -12 1 2c-2,4 -5,7 -8,10z"/>
  <path class="fil2" d="M734 127c-40,0 -72,32 -72,72 0,40 32,72 72,72 40,0 72,-32 72,-72 0,-40 -32,-72 -72,-72zm55 103l0 0 7 -12 0 1c-1,4 -3,9 -6,13l-1 -2zm-55 34l0 0c-2,0 -3,0 -5,0l-4 -7 6 -10 7 12 -3 5c0,0 -1,0 -1,0zm-48 -21l0 0 -1 -1 7 -12 7 13 -5 8c-3,-2 -6,-5 -8,-8zm-17 -53l0 0 7 12 -6 10c-1,-4 -2,-8 -2,-13 0,-3 1,-6 1,-9zm14 -29l0 0 -6 11 -1 -3c1,-3 4,-6 6,-10l1 2zm66 -25l0 0 5 9 -6 12 -7 -12 5 -10c1,0 2,0 3,1zm50 63l0 0c0,4 0,7 -1,11l-2 4 -7 -12 7 -12 3 5c0,1 0,3 0,4zm-114 -9l0 0 7 12 -7 12 -7 -12 7 -12zm-8 10l0 0 -7 -12 7 -12 7 12 -7 12zm40 -64l0 0 6 10 -7 13 -7 -12 6 -11c1,0 1,0 2,0zm14 50l0 0 -7 -13 7 -12 7 12 -7 13zm8 -11l0 0 7 13 -7 12 -6 -12 6 -13zm-9 13l0 0 -7 12 -7 -12 7 -13 7 13zm-15 -2l0 0 -6 -11 7 -12 6 10 -7 13zm-1 2l0 0 -7 12 -6 -11 7 -12 6 11zm-8 14l0 0 -6 10 -6 -10 6 -11 6 11zm1 2l0 0 7 12 -6 11 -7 -13 6 -10zm1 -2l0 0 7 -12 7 12 -7 12 -7 -12zm15 2l0 0 7 12 -7 12 -7 -12 7 -12zm1 -2l0 0 7 -12 7 12 -7 12 -7 -12zm15 2l0 0 7 12 -7 12 -6 -12 6 -12zm2 -2l0 0 7 -12 6 12 -6 12 -7 -12zm8 -14l0 0 7 -13 7 13 -7 12 -7 -12zm7 16l0 0 7 12 -7 12 -7 -12 7 -12zm1 -2l0 0 7 -12 7 12 -7 12 -7 -12zm8 -14l0 0 7 -13 7 13 -7 12 -7 -12zm-1 -2l0 0 -7 -13 7 -12 7 12 -7 13zm-8 -15l0 0 -7 -12 7 -12 7 12 -7 12zm-2 2l0 0 -6 13 -7 -13 7 -12 6 12zm-15 -2l0 0 -6 -12 6 -12 7 12 -7 12zm-8 -14l0 0 -6 -11 7 -12 6 11 -7 12zm-1 2l0 0 -7 12 -6 -10 7 -13 6 11zm-15 2l0 0 -7 12 -7 -12 7 -12 7 12zm-8 14l0 0 -7 12 -7 -12 7 -12 7 12zm-8 14l0 0 -6 11 -7 -12 6 -11 7 12zm-8 39l0 0 -7 12 -6 -10 7 -12 6 10zm-5 -12l0 0 7 -12 6 10 -7 12 -6 -10zm14 0l0 0 7 13 -7 12 -7 -13 7 -12zm8 15l0 0 7 12 -7 12 -7 -12 7 -12zm1 -2l0 0 6 -11 7 12 -6 11 -7 -12zm14 3l0 0 7 13 -6 10 -7 -12 6 -11zm1 -2l0 0 7 -12 7 12 -7 13 -7 -13zm15 2l0 0 7 13 -7 12 -6 -12 6 -13zm2 -2l0 0 7 -12 6 12 -6 13 -7 -13zm15 2l0 0 7 13 -7 12 -7 -12 7 -13zm1 -2l0 0 7 -12 7 12 -7 13 -7 -13zm8 -14l0 0 7 -12 7 12 -7 12 -7 -12zm8 -14l0 0 7 -12 7 12 -7 12 -7 -12zm8 -14l0 0 7 -13 7 13 -7 12 -7 -12zm8 -15l0 0 3 -4c2,4 4,9 5,14l-1 3 -7 -13zm-1 -2l0 0 -7 -12 2 -3c3,3 5,7 8,11l-3 4zm-1 2l0 0 -7 13 -7 -13 7 -12 7 12zm-15 -2l0 0 -7 -12 7 -12 7 12 -7 12zm-8 -14l0 0 -7 -12 3 -6c4,2 7,4 11,6l-7 12zm-8 -14l0 0 -4 -7c2,1 4,2 6,2l-2 5zm-17 0l0 0 -5 -9c4,0 7,0 10,1l-5 8zm-15 1l0 0 -5 -9c4,0 7,-1 11,-1l-6 10zm-16 1l0 0 -2 -5c2,-1 4,-2 6,-3l-4 8zm-1 2l0 0 -7 12 -6 -11c3,-3 6,-5 10,-7l3 6zm-8 14l0 0 -7 12 -7 -12 7 -12 7 12zm-8 14l0 0 -6 11 -7 -12 6 -11 7 12zm-15 -1l0 0 -6 10c1,-5 3,-9 5,-12l1 2zm-6 41l0 0 7 -11 7 12 -7 12 -6 -11c0,0 0,-1 -1,-2zm30 30l0 0 7 12 -1 1c-3,-1 -7,-3 -10,-6l4 -7zm8 14l0 0 0 0c0,0 0,0 0,0l0 0zm1 -2l0 0 7 -12 7 12 -3 6c-3,-1 -6,-2 -9,-3l-2 -3zm15 2l0 0 3 5c-2,0 -3,0 -5,-1l2 -4zm15 2l0 0 2 3c-1,0 -2,0 -4,0l2 -3zm2 -2l0 0 7 -12 6 12 -1 3c-3,1 -6,1 -10,2l-2 -5zm16 0l0 0 7 -12 4 8c-3,2 -7,4 -11,5l0 -1zm8 -14l0 0 7 -13 7 13 -3 4c-2,1 -4,3 -6,5l-5 -9zm15 -2l0 0 -7 -13 7 -12 7 12 -7 13zm1 -27l0 0 7 -12 7 12 -7 12 -7 -12zm16 -28l0 0 1 -2c0,1 0,3 1,4l-2 -2zm-16 -34l0 0 -1 3 -5 -9c2,2 4,4 6,6zm-93 -1l0 0 -4 6 -1 -1c2,-2 3,-4 5,-5zm93 91l0 0 7 -12 1 2c-2,4 -5,7 -8,10z"/>
  <path class="fil0" d="M414 587c-85,0 -155,-70 -155,-156 0,-85 70,-155 155,-155 86,0 156,70 156,155 0,86 -70,156 -156,156zm0 -284l0 0c-71,0 -128,57 -128,128 0,71 57,129 128,129 71,0 129,-58 129,-129 0,-71 -58,-128 -129,-128z"/>
  <path class="fil0" d="M414 386c-25,0 -45,20 -45,45 0,26 20,46 45,46 25,0 46,-20 46,-46 0,-25 -21,-45 -46,-45zm4 -22l0 0 0 -45c0,-1 -2,-2 -3,-2 -2,0 -3,1 -3,2l0 45c0,1 1,2 3,2 1,0 3,-1 3,-2zm2 182l0 0 0 -50c0,-2 -1,-3 -3,-3 -1,0 -3,1 -3,3l0 50c0,2 2,3 3,3 2,0 3,-1 3,-3zm-78 -107l0 0c0,-2 -1,-3 -3,-3l-32 0c-1,0 -2,1 -2,3 0,1 1,3 2,3l32 0c2,0 3,-2 3,-3zm191 -3l0 0c0,-1 -1,-2 -2,-2l-52 0c-1,0 -2,1 -2,2 0,2 1,3 2,3l52 0c1,0 2,-1 2,-3z"/>
  <path class="fil4" d="M125 476c0,18 -14,32 -32,32 -17,0 -32,-14 -32,-32 0,-18 15,-32 32,-32 18,0 32,14 32,32z"/>
  <path class="fil4" d="M785 476c0,18 -15,32 -32,32 -18,0 -32,-14 -32,-32 0,-18 14,-32 32,-32 17,0 32,14 32,32z"/>
  <polygon class="fil3" points="317,232 237,232 237,186 317,186 "/>
  <polygon class="fil4" points="416,232 336,232 336,186 416,186 "/>
  <polygon class="fil0" points="514,232 434,232 434,186 514,186 "/>
  <polygon class="fil5" points="613,232 533,232 533,186 613,186 "/>
  <polygon class="fil6" points="288,222 267,222 267,200 288,200 "/>
  <path class="fil6" d="M388 209c0,7 -5,12 -12,12 -7,0 -12,-5 -12,-12 0,-6 5,-12 12,-12 7,0 12,6 12,12z"/>
  <polygon class="fil6" points="468,222 461,222 461,196 468,196 "/>
  <polygon class="fil6" points="486,222 479,222 479,196 486,196 "/>
  <path class="fil6" d="M582 208c0,-6 -5,-11 -11,-11 -6,0 -11,5 -11,11 0,5 4,10 9,11l0 3 5 0 0 -3c5,-2 8,-6 8,-11z"/>
 </g>
</svg>
