<?xml version="1.0" encoding="UTF-8"?>
<!DOCTYPE svg PUBLIC "-//W3C//DTD SVG 1.1//EN" "http://www.w3.org/Graphics/SVG/1.1/DTD/svg11.dtd">
<!-- Creator: CorelDRAW X7 -->
<svg xmlns="http://www.w3.org/2000/svg" xml:space="preserve" width="4.59935in" height="2.9453in" version="1.1" style="shape-rendering:geometricPrecision; text-rendering:geometricPrecision; image-rendering:optimizeQuality; fill-rule:evenodd; clip-rule:evenodd"
viewBox="0 0 8009 5128"
 xmlns:xlink="http://www.w3.org/1999/xlink">
 <defs>
  <style type="text/css">
   <![CDATA[
    .fil0 {fill:#606062}
   ]]>
  </style>
 </defs>
 <g id="Layer_x0020_1">
  <metadata id="CorelCorpID_0Corel-Layer"/>
  <path class="fil0" d="M5647 3701c-390,0 -706,-316 -706,-706 0,-390 316,-706 706,-706 91,0 176,18 256,49l0 -1066 -1289 387 -12 1816c0,390 -316,706 -706,706 -390,0 -706,-316 -706,-706 0,-390 316,-706 706,-706 97,0 189,19 272,54l0 -1496 2181 -654 0 2275c1,16 4,31 4,47 0,390 -316,706 -706,706zm-4532 -115l-465 0 0 -2768 465 0 0 2768zm0 -3363l0 223 -465 0 0 -446 -650 0 0 446 204 0 0 4552 446 0 0 -1040 465 0 0 557 1635 0 0 613 4032 0 0 -613 1227 0 0 -4292 -6894 0z"/>
 </g>
</svg>
