<?xml version="1.0" encoding="UTF-8"?>
<!DOCTYPE svg PUBLIC "-//W3C//DTD SVG 1.1//EN" "http://www.w3.org/Graphics/SVG/1.1/DTD/svg11.dtd">
<!-- Creator: CorelDRAW X7 -->
<svg xmlns="http://www.w3.org/2000/svg" xml:space="preserve" width="0.877555in" height="0.719531in" version="1.1" style="shape-rendering:geometricPrecision; text-rendering:geometricPrecision; image-rendering:optimizeQuality; fill-rule:evenodd; clip-rule:evenodd"
viewBox="0 0 157 129"
 xmlns:xlink="http://www.w3.org/1999/xlink">
 <defs>
  <style type="text/css">
   <![CDATA[
    .fil1 {fill:#FEFEFE}
    .fil2 {fill:#74CBF2}
    .fil0 {fill:#777876}
   ]]>
  </style>
 </defs>
 <g id="Layer_x0020_1">
  <metadata id="CorelCorpID_0Corel-Layer"/>
  <path class="fil0" d="M157 30l0 79c0,11 -9,20 -20,20l-117 0c-11,0 -20,-9 -20,-20l0 -79c0,-10 8,-18 18,-19l0 -4c0,-1 0,-2 1,-2 0,0 1,-1 2,-1l21 0c1,0 1,1 2,1l0 0c0,0 1,1 1,2l0 4 14 0 11 0 14 0 1 -5c1,-4 3,-6 7,-6l21 0 21 0c3,0 6,2 7,6l1 5c8,2 15,10 15,19l0 0z"/>
  <path class="fil1" d="M108 89c0,-38 -59,-38 -59,0 0,16 13,30 30,30 16,0 29,-14 29,-30z"/>
  <path class="fil1" d="M16 45l0 0c0,-3 3,-6 6,-6l113 0c3,0 6,3 6,6l0 0c0,3 -3,6 -6,6l-113 0c-3,0 -6,-3 -6,-6l0 0z"/>
  <path class="fil2" d="M79 70c-11,0 -20,9 -20,19 0,11 9,20 20,20 10,0 19,-9 19,-20 0,-10 -9,-19 -19,-19l0 0z"/>
 </g>
</svg>
