<?xml version="1.0" encoding="UTF-8"?>
<!DOCTYPE svg PUBLIC "-//W3C//DTD SVG 1.1//EN" "http://www.w3.org/Graphics/SVG/1.1/DTD/svg11.dtd">
<!-- Creator: CorelDRAW X7 -->
<svg xmlns="http://www.w3.org/2000/svg" xml:space="preserve" width="2.94089in" height="2.48551in" version="1.1" style="shape-rendering:geometricPrecision; text-rendering:geometricPrecision; image-rendering:optimizeQuality; fill-rule:evenodd; clip-rule:evenodd"
viewBox="0 0 3127 2643"
 xmlns:xlink="http://www.w3.org/1999/xlink">
 <defs>
  <style type="text/css">
   <![CDATA[
    .fil3 {fill:#2AA3AF;fill-rule:nonzero}
    .fil2 {fill:#792633;fill-rule:nonzero}
    .fil6 {fill:#DA1C5B;fill-rule:nonzero}
    .fil4 {fill:#F0DFC8;fill-rule:nonzero}
    .fil5 {fill:#FBAF3F;fill-rule:nonzero}
    .fil0 {fill:#FD5924;fill-rule:nonzero}
    .fil1 {fill:white;fill-rule:nonzero}
   ]]>
  </style>
 </defs>
 <g id="OBJECTS">
  <metadata id="CorelCorpID_0Corel-Layer"/>
  <polygon class="fil0" points="2767,2643 0,2643 0,315 2767,315 "/>
  <path class="fil1" d="M2605 487c0,41 -32,73 -73,73 -40,0 -73,-32 -73,-73 0,-40 33,-73 73,-73 41,0 73,33 73,73z"/>
  <path class="fil1" d="M2605 2340c0,41 -32,73 -73,73 -40,0 -73,-32 -73,-73 0,-40 33,-73 73,-73 41,0 73,33 73,73z"/>
  <path class="fil1" d="M339 487c0,41 -33,73 -73,73 -41,0 -73,-32 -73,-73 0,-40 32,-73 73,-73 40,0 73,33 73,73z"/>
  <path class="fil1" d="M339 2340c0,41 -33,73 -73,73 -41,0 -73,-32 -73,-73 0,-40 32,-73 73,-73 40,0 73,33 73,73z"/>
  <path class="fil2" d="M414 873c-69,0 -125,56 -125,125l0 799c0,69 56,125 125,125 69,0 125,-56 125,-125l0 -799c0,-69 -56,-125 -125,-125zm75 839l0 0c0,40 -32,72 -72,72 -40,0 -72,-32 -72,-72l0 -636c0,-39 32,-72 72,-72 40,0 72,33 72,72l0 636z"/>
  <path class="fil1" d="M439 1703c0,12 -9,21 -21,21 -11,0 -21,-9 -21,-21l0 -602c0,-11 10,-21 21,-21 12,0 21,10 21,21l0 602z"/>
  <path class="fil2" d="M2332 873c-69,0 -125,56 -125,125l0 799c0,69 56,125 125,125 69,0 125,-56 125,-125l0 -799c0,-69 -56,-125 -125,-125zm75 839l0 0c0,40 -32,72 -72,72 -40,0 -72,-32 -72,-72l0 -636c0,-39 32,-72 72,-72 40,0 72,33 72,72l0 636z"/>
  <path class="fil1" d="M2357 1703c0,12 -9,21 -21,21 -11,0 -21,-9 -21,-21l0 -602c0,-11 10,-21 21,-21 12,0 21,10 21,21l0 602z"/>
  <path class="fil2" d="M1395 576c-366,0 -664,298 -664,664 0,366 298,664 664,664 366,0 664,-298 664,-664 0,-366 -298,-664 -664,-664z"/>
  <path class="fil1" d="M1839 1479l55 -98 2 4c-12,39 -29,75 -49,109l-8 -15zm-441 272l0 0c-12,0 -24,-1 -35,-1l-33 -57 48 -85 56 98 -26 45c-3,0 -7,0 -10,0zm-383 -168l0 0 -4 -8 54 -95 55 97 -38 67c-24,-18 -46,-39 -67,-61zm-133 -426l0 0 53 94 -48 85c-7,-34 -11,-70 -11,-107 0,-24 2,-49 6,-72zm110 -229l0 0 -48 84 -11 -19c15,-28 32,-55 51,-80l8 15zm529 -205l0 0 42 74 -56 97 -55 -97 45 -80c8,2 16,4 24,6zm399 506l0 0c0,30 -3,59 -8,88l-18 32 -55 -98 55 -97 24 43c1,11 2,21 2,32zm-912 -73l0 0 54 95 -54 96 -54 -96 54 -95zm-64 79l0 0 -54 -95 54 -96 55 96 -55 95zm320 -509l0 0 48 84 -55 97 -54 -95 46 -83c5,-1 10,-2 15,-3zm114 395l0 0 -55 -97 55 -98 56 98 -56 97zm65 -81l0 0 55 98 -55 97 -55 -97 55 -98zm-74 98l0 0 -55 97 -55 -97 55 -98 55 98zm-120 -17l0 0 -48 -84 56 -98 48 85 -56 97zm-9 17l0 0 -55 97 -48 -84 55 -98 48 85zm-64 113l0 0 -48 85 -48 -85 48 -84 48 84zm9 16l0 0 55 98 -48 85 -55 -98 48 -85zm9 -16l0 0 55 -97 56 97 -56 98 -55 -98zm120 16l0 0 55 98 -55 98 -55 -98 55 -98zm9 -16l0 0 55 -97 56 97 -56 98 -55 -98zm120 16l0 0 55 98 -55 98 -55 -98 55 -98zm9 -16l0 0 55 -97 56 97 -56 98 -55 -98zm64 -113l0 0 56 -98 55 98 -55 97 -56 -97zm56 129l0 0 55 98 -55 98 -56 -98 56 -98zm9 -16l0 0 55 -97 56 97 -56 98 -55 -98zm64 -113l0 0 56 -98 55 98 -55 97 -56 -97zm-9 -17l0 0 -55 -97 55 -98 56 98 -56 97zm-64 -113l0 0 -56 -98 56 -97 55 97 -55 98zm-9 16l0 0 -56 97 -55 -97 55 -98 56 98zm-120 -16l0 0 -55 -98 55 -97 55 97 -55 98zm-65 -114l0 0 -48 -84 56 -98 48 85 -56 97zm-9 16l0 0 -55 98 -48 -85 55 -97 48 84zm-121 13l0 0 -56 98 -54 -96 56 -97 54 95zm-65 114l0 0 -55 98 -54 -96 55 -97 54 95zm-64 114l0 0 -48 84 -54 -95 48 -85 54 96zm-63 313l0 0 -55 95 -47 -85 54 -95 48 85zm-39 -101l0 0 54 -96 48 85 -54 95 -48 -84zm111 5l0 0 55 98 -54 95 -55 -97 54 -96zm64 114l0 0 56 97 -54 96 -56 -98 54 -95zm9 -16l0 0 48 -85 56 98 -48 84 -56 -97zm113 29l0 0 55 98 -48 84 -55 -98 48 -84zm9 -16l0 0 55 -98 56 98 -56 97 -55 -97zm120 16l0 0 55 97 -55 98 -55 -97 55 -98zm9 -16l0 0 55 -98 56 98 -56 97 -55 -97zm120 16l0 0 55 98 -55 97 -56 -98 56 -97zm9 -16l0 0 55 -98 56 98 -56 97 -55 -97zm64 -114l0 0 56 -98 55 98 -55 98 -56 -98zm65 -114l0 0 55 -97 55 97 -55 98 -55 -98zm64 -113l0 0 56 -98 55 98 -55 97 -56 -97zm65 -114l0 0 21 -37c19,36 34,76 44,117l-10 17 -55 -97zm-9 -16l0 0 -56 -98 15 -25c23,26 44,55 62,85l-21 38zm-10 16l0 0 -55 97 -55 -97 55 -98 55 98zm-119 -16l0 0 -56 -98 56 -97 55 97 -55 98zm-65 -114l0 0 -55 -97 25 -46c30,13 58,29 85,47l-55 96zm-64 -113l0 0 -30 -53c17,5 34,11 50,17l-20 36zm-129 0l0 0 -42 -73c27,0 53,3 79,7l-37 66zm-122 13l0 0 -41 -73c29,-6 59,-10 89,-12l-48 85zm-127 2l0 0 -21 -37c17,-8 35,-16 54,-22l-33 59zm-10 16l0 0 -55 97 -51 -91c25,-19 52,-37 81,-52l25 46zm-64 113l0 0 -55 98 -54 -95 55 -98 54 95zm-64 114l0 0 -48 85 -54 -96 47 -84 55 95zm-121 -11l0 0 -44 78c9,-33 20,-65 34,-96l10 18zm-42 330l0 0 51 -91 55 96 -55 95 -47 -83c-2,-6 -3,-11 -4,-17zm236 235l0 0 55 98 -6 11c-29,-14 -57,-30 -83,-48l34 -61zm65 114l0 0 2 4c-1,-1 -3,-1 -4,-2l2 -2zm9 -16l0 0 54 -95 55 97 -26 46c-23,-5 -46,-12 -67,-20l-16 -28zm118 18l0 0 23 40c-14,-2 -28,-4 -42,-7l19 -33zm122 13l0 0 14 26c-10,1 -20,1 -30,2l16 -28zm9 -16l0 0 55 -98 56 98 -13 23c-25,7 -50,12 -76,16l-22 -39zm129 0l0 0 55 -98 37 65c-28,17 -57,31 -87,43l-5 -10zm64 -113l0 0 56 -98 55 97 -19 34c-16,14 -33,27 -51,38l-41 -71zm120 -17l0 0 -55 -97 55 -98 55 98 -55 97zm9 -211l0 0 56 -98 55 98 -55 98 -56 -98zm129 -227l0 0 7 -12c2,11 3,21 5,32l-12 -20zm-125 -266l0 0 -13 22 -41 -71c19,15 37,32 54,49zm-747 -14l0 0 -30 53 -7 -12c12,-14 24,-28 37,-41zm746 729l0 0 53 -92 8 15c-18,27 -38,53 -61,77z"/>
  <polygon class="fil3" points="966,2271 684,2271 684,2434 966,2434 "/>
  <polygon class="fil4" points="751,2378 751,2325 886,2356 "/>
  <polygon class="fil5" points="1317,2271 1035,2271 1035,2434 1317,2434 "/>
  <polygon class="fil4" points="1216,2309 1139,2309 1139,2386 1216,2386 "/>
  <polygon class="fil6" points="1665,2271 1383,2271 1383,2434 1665,2434 "/>
  <path class="fil4" d="M1568 2352c0,-23 -19,-42 -43,-42 -23,0 -43,19 -43,42 0,24 20,43 43,43 24,0 43,-19 43,-43z"/>
  <polygon class="fil3" points="2013,2271 1730,2271 1730,2434 2013,2434 "/>
  <polygon class="fil4" points="1848,2309 1823,2309 1823,2400 1848,2400 "/>
  <polygon class="fil4" points="1912,2309 1886,2309 1886,2400 1912,2400 "/>
  <polygon class="fil2" points="3127,0 388,0 0,315 2764,315 2767,2643 3127,2350 "/>
 </g>
</svg>
