<?xml version="1.0" encoding="UTF-8"?>
<!DOCTYPE svg PUBLIC "-//W3C//DTD SVG 1.1//EN" "http://www.w3.org/Graphics/SVG/1.1/DTD/svg11.dtd">
<!-- Creator: CorelDRAW X7 -->
<svg xmlns="http://www.w3.org/2000/svg" xml:space="preserve" width="0.307689in" height="0.755201in" version="1.1" style="shape-rendering:geometricPrecision; text-rendering:geometricPrecision; image-rendering:optimizeQuality; fill-rule:evenodd; clip-rule:evenodd"
viewBox="0 0 188 461"
 xmlns:xlink="http://www.w3.org/1999/xlink">
 <defs>
  <style type="text/css">
   <![CDATA[
    .fil0 {fill:#282929;fill-rule:nonzero}
   ]]>
  </style>
 </defs>
 <g id="__x0023_Layer_x0020_2">
  <metadata id="CorelCorpID_0Corel-Layer"/>
  <path class="fil0" d="M92 37c-1,-3 6,-14 8,-16 5,-7 11,-13 20,-16 16,-7 43,2 55,13 19,16 11,40 0,58 -8,12 -16,22 -25,33 0,0 0,243 0,244 0,3 11,11 13,13 6,6 12,12 16,19 10,15 12,35 3,51 -11,17 -32,31 -53,22 -14,-5 -28,-20 -37,-32 0,0 -55,70 -86,6 0,0 -21,-51 31,-81 0,0 -1,-236 -1,-236 0,-2 -10,-9 -11,-11 -7,-8 -14,-17 -19,-27 -10,-20 -8,-45 8,-62 8,-8 22,-15 33,-15 21,0 36,20 45,37z"/>
 </g>
</svg>
