<?xml version="1.0" encoding="UTF-8"?>
<!DOCTYPE svg PUBLIC "-//W3C//DTD SVG 1.1//EN" "http://www.w3.org/Graphics/SVG/1.1/DTD/svg11.dtd">
<!-- Creator: CorelDRAW X7 -->
<svg xmlns="http://www.w3.org/2000/svg" xml:space="preserve" width="2.77892in" height="2.31965in" version="1.1" style="shape-rendering:geometricPrecision; text-rendering:geometricPrecision; image-rendering:optimizeQuality; fill-rule:evenodd; clip-rule:evenodd"
viewBox="0 0 986 823"
 xmlns:xlink="http://www.w3.org/1999/xlink">
 <defs>
  <style type="text/css">
   <![CDATA[
    .fil3 {fill:#FEFEFE}
    .fil0 {fill:#7F543A}
    .fil1 {fill:#454645}
    .fil2 {fill:#363435}
    .fil4 {fill:#353535}
   ]]>
  </style>
 </defs>
 <g id="Layer_x0020_1">
  <metadata id="CorelCorpID_0Corel-Layer"/>
  <path class="fil0" d="M771 107c26,-21 57,-46 93,-39 24,6 76,35 91,54 28,36 -9,61 -31,88 -27,34 -48,61 -91,25 -38,-32 -28,-86 -62,-118l0 -10z"/>
  <path class="fil0" d="M146 244c-9,-20 -37,-14 -55,-25 -17,-10 -28,-30 -37,-48 -10,-19 -16,-40 -25,-60 -8,-17 -24,-39 -21,-60 46,-15 114,-22 161,-9 33,9 128,52 135,82l-158 120z"/>
  <path class="fil1" d="M643 633c-57,-91 -192,-98 -265,-23 -44,46 -42,124 -6,176 91,32 193,36 284,6 20,-51 16,-112 -13,-159z"/>
  <path class="fil2" d="M651 628c-40,-63 -115,-90 -188,-76 -79,16 -135,82 -127,164 1,19 7,37 15,55 4,7 8,16 14,22 7,7 23,9 32,12 54,15 110,20 165,16 26,-2 51,-6 76,-13 8,-2 23,-3 27,-11 6,-10 8,-23 10,-34 10,-46 0,-95 -24,-135 -6,-11 -24,-1 -17,11 27,46 31,100 12,150 3,-2 5,-5 8,-7 -72,23 -148,26 -222,10 -17,-4 -34,-8 -50,-14 -11,-4 -17,-27 -20,-37 -10,-29 -9,-61 2,-90 19,-52 80,-79 132,-82 55,-3 108,23 138,70 7,11 25,0 17,-11z"/>
  <path class="fil3" d="M813 584c-88,-67 -176,-134 -207,-238 -28,-95 -9,-189 -37,-284 -9,-35 -50,-41 -82,-35 -35,10 -47,44 -54,73 -32,126 -4,255 -58,375 -22,47 -85,62 -114,110 -22,36 -29,78 -28,122 16,11 32,23 49,34 28,18 58,33 90,45 -36,-52 -38,-130 6,-176 73,-75 208,-68 265,23 29,47 33,108 13,159 21,-7 41,-15 60,-26 70,-37 130,-97 167,-168 -26,1 -52,-2 -70,-14z"/>
  <path class="fil2" d="M818 575c-90,-68 -182,-140 -208,-255 -16,-66 -10,-136 -19,-203 -6,-46 -14,-92 -66,-101 -114,-19 -115,143 -120,218 -4,63 -5,126 -22,188 -7,28 -17,55 -37,75 -18,17 -39,29 -58,44 -47,37 -63,93 -65,151 -1,15 -1,19 11,28 14,10 28,20 43,30 29,19 60,34 92,46 9,3 17,-8 12,-16 -29,-43 -35,-100 -8,-147 24,-41 77,-62 123,-64 47,-2 92,16 124,50 41,46 47,114 26,170 -2,7 6,15 13,13 100,-34 183,-106 232,-199 4,-7 0,-16 -8,-16 -23,1 -45,0 -65,-12 -11,-8 -21,10 -10,17 22,15 48,17 75,16 -3,-5 -6,-10 -9,-15 -47,88 -125,156 -220,189 4,4 8,8 12,13 23,-63 13,-134 -28,-186 -34,-42 -89,-62 -142,-61 -53,2 -107,27 -138,70 -36,50 -28,124 5,173 4,-5 8,-10 12,-15 -50,-19 -94,-47 -137,-78 2,3 4,6 5,9 0,-62 15,-119 67,-157 17,-13 34,-24 50,-38 19,-18 28,-40 36,-63 42,-116 17,-244 51,-361 7,-25 22,-48 50,-52 24,-3 53,3 62,29 21,65 16,135 22,202 5,57 20,111 51,159 28,43 66,79 106,112 23,19 46,37 70,54 10,8 21,-9 10,-17z"/>
  <path class="fil0" d="M657 37c-195,-82 -410,30 -514,203 -38,62 -61,131 -63,203 -3,114 58,190 139,253 5,4 9,7 14,11 -1,-44 6,-86 28,-122 29,-48 92,-63 114,-110 54,-120 26,-249 58,-375 7,-29 19,-63 54,-73 32,-6 73,0 82,35 28,95 9,189 37,284 31,104 119,171 207,238 18,12 44,15 70,14 10,-20 18,-40 25,-61 64,-193 -71,-423 -251,-500z"/>
  <path class="fil2" d="M660 27c-185,-76 -385,17 -500,168 -63,85 -102,195 -87,302 13,94 82,164 155,219 6,4 16,-2 15,-9 0,-62 15,-119 67,-157 17,-13 34,-24 50,-38 19,-18 28,-40 36,-63 42,-116 17,-244 51,-361 7,-25 22,-48 50,-52 24,-3 53,3 62,29 21,65 16,135 22,202 5,57 20,111 51,159 28,43 66,79 106,112 21,18 43,34 65,50 23,18 51,21 80,20 3,0 7,-2 8,-5 55,-107 54,-223 7,-333 -45,-105 -131,-196 -235,-242 -13,-5 -23,13 -11,18 98,43 174,123 221,218 51,105 54,224 1,329 3,-2 6,-4 9,-6 -33,1 -55,-5 -81,-24 -23,-18 -47,-37 -69,-56 -41,-36 -78,-76 -102,-124 -30,-60 -31,-129 -34,-195 -1,-30 -4,-59 -9,-89 -4,-24 -8,-51 -28,-68 -28,-25 -77,-21 -104,2 -36,29 -40,92 -45,134 -8,61 -7,124 -14,185 -4,31 -11,62 -21,92 -10,30 -24,50 -49,69 -28,20 -56,37 -75,66 -24,37 -29,85 -29,128 5,-3 10,-6 15,-9 -70,-52 -130,-117 -145,-207 -17,-103 29,-213 91,-293 109,-141 299,-222 471,-151 12,5 17,-15 5,-20z"/>
  <path class="fil2" d="M278 84c-29,-14 -56,-28 -86,-38 -26,-9 -53,-10 -80,-13 -26,-3 -95,-20 -109,14 -7,16 1,37 7,52 9,21 19,40 29,60 19,38 46,89 94,92 13,1 13,-20 0,-21 -38,-3 -62,-52 -76,-82 -7,-14 -15,-29 -22,-43 -5,-12 -19,-37 -13,-50 4,-10 36,-6 44,-6 18,1 35,4 53,6 23,2 45,3 68,11 28,9 54,23 80,36 12,5 23,-13 11,-18l0 0z"/>
  <path class="fil2" d="M770 120c29,-10 48,-39 80,-40 7,0 13,-9 9,-16 -1,0 -1,-1 -1,-1 -4,-6 -12,-7 -16,-2 -3,3 -4,5 -5,9 -4,13 16,18 19,5 0,0 0,1 0,1 -5,-1 -11,-2 -16,-3 0,1 0,1 1,2 3,-5 6,-11 9,-16 -17,1 -31,6 -45,15 -14,9 -25,21 -40,26 -13,5 -7,25 5,20l0 0z"/>
  <path class="fil2" d="M836 65c-11,12 -1,31 4,43 9,20 19,40 28,60 9,20 30,14 47,11 25,-5 51,-17 66,-38 4,-4 1,-11 -3,-14 -31,-19 -61,-40 -93,-57 -11,-5 -38,-23 -48,-10 -2,3 -2,8 0,11 0,0 0,0 1,1 7,10 25,0 17,-11 0,0 0,0 0,-1 0,4 0,7 0,11 0,0 0,0 0,0 -3,1 -6,3 -9,5 12,0 30,13 42,19 27,15 53,34 79,50 -1,-5 -2,-9 -4,-14 -11,15 -31,22 -48,27 -9,2 -18,4 -26,4 -3,0 -7,-15 -8,-17 -5,-11 -10,-20 -15,-30 -4,-8 -7,-15 -10,-23 -1,-3 -2,-5 -3,-8 -1,-3 1,-7 -2,-4 9,-10 -6,-24 -15,-15l0 0z"/>
  <path class="fil2" d="M967 137c-10,21 -21,40 -34,58 -13,19 -30,42 -52,51 -12,5 -7,25 5,20 47,-19 78,-75 98,-118 6,-12 -12,-23 -17,-11l0 0z"/>
  <path class="fil4" d="M601 658c-3,51 -82,79 -126,66 -27,-8 -47,-26 -58,-51 -43,-95 192,-90 184,-15z"/>
  <path class="fil2" d="M591 658c-6,53 -87,70 -127,51 -30,-15 -61,-62 -23,-84 26,-16 64,-15 93,-10 22,4 59,15 57,43 -1,14 20,14 21,0 3,-41 -46,-59 -79,-64 -38,-6 -90,-5 -119,25 -40,43 19,102 58,115 53,17 133,-17 140,-76 1,-13 -19,-13 -21,0z"/>
  <path class="fil2" d="M737 306c0,18 -5,41 17,48 6,1 12,-2 13,-8 3,-13 1,-34 -12,-42 -18,-12 -26,20 -25,31 1,9 4,16 11,21 7,4 18,2 23,-3 10,-10 9,-27 6,-40 -4,-14 -19,-25 -33,-15 -13,11 -12,36 -8,50 4,11 13,23 25,23 11,1 17,-9 20,-18 6,-17 6,-46 -9,-59 -22,-17 -51,9 -48,33 1,19 19,50 42,45 29,-5 15,-60 7,-76 -6,-11 -19,-15 -29,-6 -7,6 -11,17 -13,26 -2,11 -3,22 2,32 6,12 20,10 30,5 12,-7 1,-25 -10,-18 -3,1 -3,1 -5,2 1,-1 2,0 2,0 2,1 0,0 1,1 -1,-2 -1,-4 -1,-4 -1,-8 2,-17 4,-23 1,-2 2,-3 3,-5 0,1 2,-2 1,-1 1,-1 -2,1 -3,0 -2,0 -2,-1 -1,1 7,11 10,30 8,42 0,3 -1,4 -2,5 1,0 1,-1 3,-1 0,0 -2,0 -2,0 -2,-1 -3,-2 -4,-4 -7,-6 -12,-15 -13,-24 0,-8 7,-15 14,-15 -2,0 1,1 0,0 2,2 1,2 2,4 2,2 3,7 3,10 1,6 1,13 0,17 0,3 -1,6 -2,9 0,-1 -3,3 -2,2 0,1 2,0 3,0 1,0 -1,-1 -2,-3 -6,-8 -7,-18 -5,-27 1,-2 1,-4 2,-5 1,-3 1,-1 0,-1 -3,0 -3,-2 -2,0 1,1 2,2 2,4 2,5 2,15 0,18 0,0 1,0 1,0 -2,0 -2,1 1,1 1,1 -1,-2 -1,-3 -1,-4 0,-9 1,-13 2,-3 -9,-4 -7,1 1,2 1,4 2,6 0,4 1,8 0,12 4,-3 9,-5 13,-7 -7,-2 -2,-23 -2,-28 1,-14 -20,-14 -21,0l0 0z"/>
  <path class="fil2" d="M236 322c-17,14 -15,65 15,62 31,-3 37,-48 20,-69 -10,-12 -25,-8 -35,0 -12,10 -12,33 -5,45 8,16 31,13 39,-1 8,-13 3,-33 -7,-44 -4,-4 -13,-3 -16,3 -6,13 -7,50 18,40 24,-10 7,-48 -17,-43 -21,5 -22,42 -3,49 11,4 21,-6 23,-15 2,-11 -1,-22 -8,-30 -4,-4 -11,-4 -15,0 -13,14 -13,32 0,46 9,10 24,-5 15,-15 -5,-5 -5,-11 0,-17 -5,0 -10,0 -15,0 2,2 2,5 3,7 0,2 -2,6 0,4 2,-1 6,3 5,2 0,-1 0,-2 0,-4 0,-1 0,-3 0,-4 0,-2 2,-4 0,-3 1,0 0,0 1,0 0,1 1,2 1,3 1,0 0,1 1,2 -1,-2 6,0 8,2 -1,-1 -1,-5 -1,-7 0,-2 2,-7 2,-7 -6,1 -11,1 -17,2 5,5 6,12 4,18 -1,6 -5,-1 -5,-3 -1,-7 1,-14 7,-17 1,0 0,0 1,0 1,2 2,5 3,7 2,7 2,13 0,19 -1,3 -2,4 -3,6 -1,1 -6,4 -5,4 -2,-1 -1,-1 0,0 -1,-1 -2,-2 -2,-3 -2,-2 -2,-5 -2,-8 -1,-6 0,-13 4,-17 11,-8 -4,-23 -14,-14l0 0z"/>
 </g>
</svg>
