<?xml version="1.0" encoding="UTF-8"?>
<!DOCTYPE svg PUBLIC "-//W3C//DTD SVG 1.1//EN" "http://www.w3.org/Graphics/SVG/1.1/DTD/svg11.dtd">
<!-- Creator: CorelDRAW X7 -->
<svg xmlns="http://www.w3.org/2000/svg" xml:space="preserve" width="1.77109in" height="1.54857in" version="1.1" style="shape-rendering:geometricPrecision; text-rendering:geometricPrecision; image-rendering:optimizeQuality; fill-rule:evenodd; clip-rule:evenodd"
viewBox="0 0 279 244"
 xmlns:xlink="http://www.w3.org/1999/xlink">
 <defs>
  <style type="text/css">
   <![CDATA[
    .fil3 {fill:#C5A47A}
    .fil1 {fill:#BC915E}
    .fil2 {fill:#B28147}
    .fil0 {fill:#9D7C52}
    .fil5 {fill:#494240}
    .fil4 {fill:#363230}
   ]]>
  </style>
 </defs>
 <g id="Layer_x0020_1">
  <metadata id="CorelCorpID_0Corel-Layer"/>
  <path class="fil0" d="M19 203l2 30 30 0c0,0 -1,-12 -11,-13 0,0 -7,-13 -7,-22l-14 5z"/>
  <path class="fil0" d="M165 121c0,0 -7,16 0,42l3 -9c0,0 -1,16 5,30l4 -8c0,0 2,8 11,22l0 33 30 0c0,0 1,-14 -11,-16 0,0 3,-20 5,-31l2 8c0,0 8,-8 9,-21 1,-13 1,-33 -9,-50 -10,-17 -49,0 -49,0z"/>
  <path class="fil1" d="M199 52c0,0 -10,21 -22,28 -12,6 -120,-4 -147,11 -28,15 -34,46 -28,74l2 -6c0,0 1,33 5,45 4,12 8,10 8,10l2 30 29 0c0,0 0,-12 -11,-13 0,0 -7,-13 -7,-22 0,0 13,-6 18,-12l-2 7c0,0 15,-8 17,-34l4 13c0,0 8,-6 9,-13 0,0 6,9 7,13 0,0 13,-2 16,-8 0,0 2,5 0,10 0,0 16,0 23,-9 0,0 6,6 7,12 0,0 13,-6 16,-14 0,0 2,8 3,12 0,0 9,1 17,-5 0,0 38,16 53,0 14,-16 37,-45 38,-77 0,0 14,-2 16,-21 2,-20 -73,-31 -73,-31z"/>
  <path class="fil1" d="M51 85c0,0 -16,5 -24,-4 -8,-9 -4,-26 -4,-32 -1,-6 -12,-7 -14,3 -1,10 -6,32 12,45l30 -12z"/>
  <path class="fil2" d="M170 141c4,-11 4,-26 -4,-31 -23,-17 -55,-9 -79,3 -14,8 -24,22 -28,36 -3,8 3,15 4,23 0,-1 0,-1 0,-2l4 13c0,0 8,-6 9,-13 0,0 6,9 7,13 0,0 13,-2 16,-8 0,0 2,5 0,10 0,0 16,0 23,-9 0,0 6,6 7,12 0,0 13,-6 16,-14 0,0 2,8 3,12 0,0 9,1 17,-5 0,0 0,0 1,1 -2,-14 -1,-27 4,-41z"/>
  <path class="fil1" d="M158 113c0,0 -11,37 -4,63l3 -8c0,0 -1,15 5,30l4 -8c0,0 3,7 12,21l0 33 29 0c0,0 1,-14 -11,-15 0,0 3,-21 6,-31l1 8c0,0 9,-8 10,-21 1,-14 0,-34 -10,-51 -10,-17 -45,-21 -45,-21z"/>
  <path class="fil3" d="M190 67c-4,5 -8,10 -13,13 -9,4 -67,1 -109,4 -19,6 -35,12 -42,20 -24,24 -21,40 -21,40 0,0 18,-40 43,-40 0,0 -33,14 -32,57 0,0 11,-20 19,-25 0,0 -6,20 -3,36 0,0 19,-39 36,-49 0,0 -14,25 -14,49 0,0 15,-39 33,-52 0,0 -7,28 0,52 0,0 12,-40 26,-53 0,0 10,22 4,44 0,0 16,-20 18,-36 0,0 8,19 4,43 0,0 13,-27 16,-49 0,0 7,23 7,48 0,0 17,-11 20,-31 0,0 4,19 16,32 11,12 16,22 16,22 0,0 7,-24 3,-39 0,0 10,9 11,23 0,0 14,-20 20,-40 5,-15 -38,-52 -58,-69z"/>
  <path class="fil0" d="M257 19c0,0 2,-14 0,-17 -2,-2 -8,3 -10,18 0,0 5,-2 10,-1z"/>
  <path class="fil1" d="M244 18c0,0 6,-25 13,-16 0,0 -4,4 -6,12 -2,7 -2,7 -2,7l-5 -3z"/>
  <path class="fil1" d="M243 8c-12,-1 -33,-1 -46,30 -14,31 -4,53 -4,53 0,0 1,-12 4,-17 0,0 -4,15 10,33 0,0 0,-15 4,-22 0,0 3,28 17,42 0,0 -3,-30 11,-38 0,0 18,6 31,-1 13,-7 9,-21 9,-21l-9 -7c0,0 7,-27 2,-39 -5,-11 -29,-13 -29,-13z"/>
  <path class="fil0" d="M228 20c0,0 -2,-17 -4,-18 -3,-1 -9,12 -8,29 0,0 5,-7 12,-11z"/>
  <path class="fil1" d="M211 33c0,0 2,-33 13,-31 0,0 -5,9 -5,19 -1,10 -1,10 -1,10l-7 2z"/>
  <path class="fil4" d="M245 52c-2,0 -3,1 -4,2 -2,1 -5,3 -7,5l13 -2c0,0 0,-1 1,-2 0,-1 -1,-3 -3,-3z"/>
  <path class="fil2" d="M279 69c0,0 -7,-12 -36,-11 -29,0 -32,27 -32,27 0,0 4,-7 12,-9 0,0 -7,6 -5,20 0,0 6,-12 14,-15 0,0 -9,13 -4,29 0,0 3,-17 14,-22 7,-2 11,-1 21,-1 11,0 16,-18 16,-18z"/>
  <path class="fil5" d="M263 87c3,-1 5,-2 5,-2l0 1c0,0 0,-13 0,-16 0,-3 9,-3 11,-1 1,2 0,9 -6,14 -5,4 -10,4 -10,4z"/>
  <path class="fil4" d="M279 69c-2,-2 -11,-2 -11,1 0,2 0,12 0,15 0,0 -2,1 -5,2 0,0 4,0 8,-2 2,-4 3,-9 3,-9 0,0 -4,0 -3,-3 1,-2 6,-2 6,1 -1,3 -3,7 -4,9 0,0 0,0 0,0 6,-5 7,-12 6,-14z"/>
  <path class="fil3" d="M266 37c0,0 -5,-11 -21,-9 -11,2 -25,13 -27,25 0,0 -1,-11 4,-20 0,0 -8,4 -11,20 0,0 2,-26 14,-37 12,-10 28,-3 28,-3 0,0 1,-5 10,-2 8,2 11,12 11,12 0,0 3,5 3,12 0,8 -5,13 -5,13l2 -17c-4,-1 -8,6 -8,6z"/>
 </g>
</svg>
