<?xml version="1.0" encoding="UTF-8"?>
<!DOCTYPE svg PUBLIC "-//W3C//DTD SVG 1.1//EN" "http://www.w3.org/Graphics/SVG/1.1/DTD/svg11.dtd">
<!-- Creator: CorelDRAW X7 -->
<svg xmlns="http://www.w3.org/2000/svg" xml:space="preserve" width="3.11021in" height="2.6905in" version="1.1" style="shape-rendering:geometricPrecision; text-rendering:geometricPrecision; image-rendering:optimizeQuality; fill-rule:evenodd; clip-rule:evenodd"
viewBox="0 0 1315 1138"
 xmlns:xlink="http://www.w3.org/1999/xlink">
 <defs>
  <style type="text/css">
   <![CDATA[
    .fil0 {fill:#373435;fill-rule:nonzero}
   ]]>
  </style>
 </defs>
 <g id="__x0023_Layer_x0020_1">
  <metadata id="CorelCorpID_0Corel-Layer"/>
  <path class="fil0" d="M4 162c-4,-16 -8,-23 7,-37 15,-13 36,-31 41,-50 5,-19 10,-39 25,-46 15,-6 24,-21 44,-26 21,-5 41,7 60,0 19,-8 105,3 123,6 18,2 59,30 65,57 5,27 -7,33 11,48 18,15 29,29 27,48 -3,19 -3,10 22,34 26,25 14,42 49,32 34,-10 164,-49 199,-56 34,-6 141,37 171,49 29,11 88,27 119,10 30,-17 43,-40 67,-52 24,-13 38,-24 56,-60 17,-35 85,-105 112,-87 28,17 66,67 85,97 19,31 41,84 18,121 -23,36 -53,85 -77,123 -24,38 -67,92 -88,106 -20,14 -41,22 -57,29 -15,8 -21,24 -24,56 -2,32 -15,71 -16,98 -1,27 -8,31 -17,57 -9,25 38,114 48,117 11,4 31,18 39,49 7,30 19,93 29,115 10,22 20,58 -3,67 -23,9 -78,17 -85,6 -6,-10 -7,-21 0,-38 8,-16 9,-34 -4,-58 -12,-24 -35,-75 -63,-91 -28,-17 -58,-51 -92,-72 -35,-22 -56,-61 -73,-74 -16,-12 -42,-16 -34,12 8,27 -11,34 4,58 15,24 49,77 43,103 -6,25 -18,106 -23,120 -5,14 3,51 -24,56 -27,5 -104,12 -100,-5 4,-18 -1,-43 11,-45 13,-1 23,2 30,-23 6,-24 13,-77 -6,-103 -19,-27 -50,-46 -73,-90 -23,-45 -28,-101 -50,-98 -21,3 -112,4 -122,27 -11,22 -11,98 -19,124 -9,25 -9,62 -14,90 -4,28 -16,117 -21,129 -5,11 -34,42 -52,42 -17,0 -63,5 -68,-13 -5,-18 -30,-1 -41,-15 -10,-14 -16,-38 -5,-49 12,-12 17,-50 17,-60 0,-10 -24,-101 -29,-133 -5,-32 -19,-70 -33,-112 -14,-41 10,-33 -37,-64 -47,-32 -63,-91 -72,-117 -9,-25 -42,-85 -47,-129 -5,-44 0,-74 -4,-110 -4,-37 14,-56 8,-61 -7,-5 -4,-20 -9,-32 -5,-11 -55,-54 -52,-62 4,-8 4,-18 4,-18z"/>
 </g>
</svg>
