<?xml version="1.0" encoding="UTF-8"?>
<!DOCTYPE svg PUBLIC "-//W3C//DTD SVG 1.1//EN" "http://www.w3.org/Graphics/SVG/1.1/DTD/svg11.dtd">
<!-- Creator: CorelDRAW X7 -->
<svg xmlns="http://www.w3.org/2000/svg" xml:space="preserve" width="0.527878in" height="0.970957in" version="1.1" style="shape-rendering:geometricPrecision; text-rendering:geometricPrecision; image-rendering:optimizeQuality; fill-rule:evenodd; clip-rule:evenodd"
viewBox="0 0 33 60"
 xmlns:xlink="http://www.w3.org/1999/xlink">
 <defs>
  <style type="text/css">
   <![CDATA[
    .fil0 {fill:#373435;fill-rule:nonzero}
   ]]>
  </style>
 </defs>
 <g id="__x0023_Layer_x0020_1">
  <metadata id="CorelCorpID_0Corel-Layer"/>
  <path class="fil0" d="M32 13c-1,-1 -3,-2 -6,-2 -2,1 -5,3 -5,2 -1,-1 -3,-2 -4,-3 0,0 0,-7 -1,-8 0,-1 -2,-2 -4,-2 -1,1 -1,3 -2,3 -1,1 -7,11 -5,9 1,-2 3,-2 2,-1 0,1 -6,7 -5,7 2,-1 3,-1 2,0 0,1 -4,8 -4,10 0,1 1,9 2,11 2,1 3,1 3,4 0,2 0,10 0,11 0,0 -2,3 -2,3 -1,1 -2,3 -1,3 1,0 3,0 3,0 1,0 1,-2 2,-2 1,0 3,0 4,-1 0,-1 1,-4 1,-5 0,0 0,-1 2,-1 3,0 5,-1 5,0 1,0 2,2 1,2 -1,1 -1,5 0,5 1,0 3,-1 3,-2 0,-1 0,-2 2,-3 2,-1 4,-4 4,-6 0,-2 -1,-8 -1,-10 -1,-1 -1,-3 -2,-5 -1,-1 -3,-1 -2,-4 1,-2 1,-3 1,-5 0,-2 0,4 1,2 1,-2 1,-2 1,-2 0,0 1,2 2,1 0,-2 1,-3 1,-4 1,-1 0,-2 1,-3 1,-1 3,-3 1,-4z"/>
 </g>
</svg>
