<?xml version="1.0" encoding="UTF-8"?>
<!DOCTYPE svg PUBLIC "-//W3C//DTD SVG 1.1//EN" "http://www.w3.org/Graphics/SVG/1.1/DTD/svg11.dtd">
<!-- Creator: CorelDRAW X7 -->
<svg xmlns="http://www.w3.org/2000/svg" xml:space="preserve" width="1.02273in" height="1.00139in" version="1.1" style="shape-rendering:geometricPrecision; text-rendering:geometricPrecision; image-rendering:optimizeQuality; fill-rule:evenodd; clip-rule:evenodd"
viewBox="0 0 811 794"
 xmlns:xlink="http://www.w3.org/1999/xlink">
 <defs>
  <style type="text/css">
   <![CDATA[
    .fil0 {fill:#373435;fill-rule:nonzero}
   ]]>
  </style>
 </defs>
 <g id="__x0023_Layer_x0020_1">
  <metadata id="CorelCorpID_0Corel-Layer"/>
  <path class="fil0" d="M10 117c10,-8 27,2 42,-6 15,-8 29,-10 35,-5 6,5 14,12 40,11 25,-1 46,8 57,6 11,-3 11,-8 30,-4 20,4 59,16 65,20 6,4 25,15 13,30 -12,15 -18,21 -20,36 -2,16 3,36 -3,32 -5,-4 -30,-32 -26,-24 4,8 -2,30 20,39 21,8 27,18 51,20 23,2 54,22 90,14 37,-8 98,-39 143,-37 46,2 60,17 84,-3 24,-21 74,-85 74,-111 0,-25 -15,-56 -28,-65 -12,-9 -61,-53 -52,-64 9,-11 35,-7 61,6 27,13 106,44 82,117 -24,74 -76,129 -71,150 5,21 35,57 38,76 3,19 7,80 14,108 7,29 0,53 16,73 16,21 27,51 27,61 0,11 16,51 18,65 2,15 -2,35 -8,46 -5,11 -30,13 -41,14 -11,0 -25,-14 -17,-20 8,-6 12,-9 13,-19 1,-10 -2,-30 -9,-48 -7,-18 -8,-38 -30,-54 -23,-16 -33,-38 -36,-28 -3,10 -2,27 -4,41 -2,15 4,29 4,42 0,13 -2,28 -14,29 -11,1 -42,9 -49,-1 -7,-9 -12,-13 -2,-21 10,-8 20,-22 16,-39 -4,-16 -4,-34 -20,-47 -15,-13 -41,-38 -46,-45 -5,-7 -8,-4 -26,2 -17,6 -70,15 -95,23 -26,8 -52,20 -63,20 -11,0 -13,2 -13,9 0,7 -8,88 -10,97 -2,10 0,48 3,59 3,10 11,37 8,50 -3,13 -31,19 -43,20 -13,1 -37,6 -39,-9 -2,-16 -1,-21 5,-29 6,-8 6,-32 5,-58 -1,-27 2,-45 -2,-68 -4,-23 5,-46 -14,-47 -18,-1 -45,4 -56,0 -11,-4 -20,12 -21,30 -1,18 1,65 1,82 0,17 -3,45 -4,55 -1,10 -13,27 -25,28 -12,1 -50,2 -51,-6 -1,-8 -14,-20 -6,-28 8,-8 16,-6 16,-20 1,-15 0,-62 0,-82 0,-21 -3,-71 -4,-85 -1,-14 -17,-45 -17,-81 0,-35 -5,-66 -7,-82 -2,-15 2,-41 -8,-44 -10,-3 -33,-4 -45,-13 -12,-9 -21,-22 -20,-41 1,-19 13,-35 14,-42 1,-8 -5,-27 -7,-34 -2,-7 7,-38 1,-42 -6,-4 -16,2 -19,10 -3,7 -17,31 -19,25 -2,-6 6,-11 5,-20 -1,-10 -6,-15 -9,-30 -4,-15 0,-37 8,-44z"/>
 </g>
</svg>
