<?xml version="1.0" encoding="UTF-8"?>
<!DOCTYPE svg PUBLIC "-//W3C//DTD SVG 1.1//EN" "http://www.w3.org/Graphics/SVG/1.1/DTD/svg11.dtd">
<!-- Creator: CorelDRAW X7 -->
<svg xmlns="http://www.w3.org/2000/svg" xml:space="preserve" width="1.89613in" height="3.57611in" version="1.1" style="shape-rendering:geometricPrecision; text-rendering:geometricPrecision; image-rendering:optimizeQuality; fill-rule:evenodd; clip-rule:evenodd"
viewBox="0 0 759 1432"
 xmlns:xlink="http://www.w3.org/1999/xlink">
 <defs>
   <clipPath id="id0">
    <path d="M396 1432c-4,0 -8,-1 -12,-1 -5,0 -9,-17 -13,-17 0,0 0,0 0,0 -2,0 -5,2 -7,4 -2,2 -4,4 -6,4 0,0 0,0 0,0 -4,0 -9,-1 -13,-1 0,0 0,0 0,0 -2,0 -4,0 -6,1 -3,1 -5,1 -7,1 0,0 0,0 0,0 0,0 0,0 0,0 -2,0 -4,1 -6,2 -3,1 -5,2 -7,2 0,0 0,0 0,0 -4,0 -8,-16 -13,-16 0,0 0,0 -1,0 -1,0 -3,0 -5,1 -2,0 -3,0 -5,0 -1,0 -1,0 -1,0 -5,0 -9,-1 -13,-1 0,0 0,0 0,0 -2,0 -5,4 -7,9 -2,4 -4,8 -6,8 0,0 0,0 0,0 -5,0 -9,-14 -13,-14 0,0 0,0 0,0 -2,0 -4,2 -7,4 -2,2 -4,4 -6,4 0,0 0,0 0,0 -4,-1 -9,-6 -13,-6 0,0 0,0 -1,0 -2,0 -3,0 -5,0 -2,1 -4,1 -6,1 0,0 0,0 -1,0 0,0 0,0 0,0 -2,0 -4,2 -6,4 -3,2 -5,4 -7,4 0,0 0,0 0,0 -4,-1 -8,-8 -13,-8 -4,0 -8,-13 -12,-14 0,0 0,0 -1,0 -2,0 -3,1 -5,1 -2,1 -4,1 -6,1 0,0 -1,0 -1,0 0,0 0,0 0,0 -2,0 -4,2 -6,3 -3,2 -5,4 -7,4 0,0 0,0 0,0 -4,-1 -8,-8 -13,-8 0,0 0,0 0,0 -2,0 -4,3 -6,7 -3,3 -5,6 -7,6 0,0 0,0 0,0 -5,0 -8,-16 -12,-17 0,0 0,0 0,0 -3,0 -5,2 -7,4 -2,3 -4,5 -6,5 0,0 -1,0 -1,0 -4,-1 -8,-10 -12,-10 -4,-1 -8,-8 -12,-9 -4,-1 -8,-3 -12,-3 -1,-1 -1,-1 -1,-1 -2,0 -4,3 -7,5 -2,3 -4,5 -6,5 0,0 0,0 -1,0 -4,-1 -8,-3 -12,-4 -1,-1 -1,-1 -2,-1 -2,0 -4,1 -5,2 -2,1 -4,2 -6,2 0,0 -1,0 -1,-1 -5,-2 -9,-6 -12,-8 -6,-4 -11,-14 -11,-18 0,-4 6,-11 12,-15 0,0 1,-1 2,-1 1,0 3,1 4,2 2,0 4,1 5,1 1,0 2,0 3,-1 3,-1 6,-12 10,-13 1,-1 3,-1 4,-1 1,0 2,0 3,0 1,0 2,1 3,1 1,0 3,-1 4,-1 4,-1 8,-5 12,-6 0,0 0,0 1,0 2,0 4,1 6,3 2,2 4,3 6,3 0,0 0,0 1,0 3,-1 7,-4 11,-5 1,3 1,6 1,8 -1,7 4,13 3,20 3,4 4,9 8,12 2,1 4,2 5,2 1,0 2,-1 2,-1 3,-2 7,-2 11,-2 0,0 0,0 0,0 0,0 0,0 0,0 2,0 3,0 5,-1 3,0 7,1 9,-1 4,-2 9,0 12,-2 2,-2 4,-2 7,-2 0,0 0,0 0,0 1,0 1,0 1,0 1,0 3,0 4,-1 4,-1 7,-2 10,-2 1,0 1,0 1,0 1,0 1,0 2,0 1,0 3,0 4,-1 4,-4 9,-1 14,-4 1,-1 3,-1 5,-1 1,0 1,0 2,0 0,0 1,0 1,0 3,0 5,-1 7,-3 5,0 10,0 15,0 1,0 2,0 2,-1 1,0 1,-1 2,-2 0,-1 0,-3 -1,-4 -4,-6 -8,-14 -14,-18 -7,-6 -15,-11 -22,-16 -1,0 -2,0 -3,0 3,-1 7,-1 10,-2 0,0 0,0 0,0 2,0 5,3 7,6 2,3 4,6 6,6 1,0 1,0 1,0 4,0 8,0 12,0 2,1 3,3 5,5 3,6 7,12 12,17 3,4 8,6 14,6 1,0 2,0 3,0 0,0 0,0 0,0 2,0 4,0 6,0 2,1 4,2 6,3 1,0 1,0 1,0 3,0 5,-3 4,-6l0 -1c-4,-6 -7,-12 -6,-19l0 -2c-5,-5 -5,-12 -7,-19 0,0 0,0 1,0 0,0 0,0 0,0 2,0 4,3 6,6 2,3 5,6 7,6 0,0 0,0 0,0 0,0 1,0 1,0 1,2 1,4 2,7 0,2 1,5 3,6 0,0 1,0 1,0 2,0 1,-3 3,-5 3,-2 5,-5 8,-8 0,0 1,1 1,1 2,1 4,3 6,3 0,0 1,0 1,0 0,0 1,0 1,0 2,0 4,0 5,0 0,0 0,0 0,0 -1,1 -3,2 -4,3 -6,6 -10,13 -14,21 -1,3 1,9 5,9 5,1 9,4 14,4 1,0 2,0 2,0 3,0 5,-1 8,-1 2,0 5,1 7,1 3,1 6,3 10,3 0,0 0,0 1,0 0,0 1,0 1,0 4,0 8,2 11,2 1,1 1,1 2,1 3,0 7,-4 6,-8 0,-2 -2,-5 -2,-8 0,-7 -4,-12 -7,-18 -4,-6 -9,-12 -17,-15 -1,0 -2,-1 -3,-1 -1,0 -2,1 -4,1 0,1 -2,1 -3,1 2,-1 4,-3 6,-3 3,0 6,-6 9,-10 1,0 2,2 4,2 0,0 0,0 0,0 1,0 3,-1 3,-3 0,0 0,-1 0,-2 1,1 2,2 3,3 3,1 5,3 7,3 0,0 0,0 0,0 0,0 0,0 0,0 1,0 2,0 4,1 1,3 1,6 2,8 0,6 4,10 4,15 1,6 5,10 4,16 2,5 3,12 7,17 4,0 9,1 14,1 1,0 1,0 1,0 1,0 2,0 3,0 1,0 2,0 3,0 0,0 0,0 0,0 0,0 0,0 0,0 2,0 3,-2 3,-3 1,-2 0,-4 1,-6 2,-4 1,-9 3,-12 2,-5 2,-10 3,-14 0,-1 0,-2 1,-3 3,-3 0,-8 2,-11 3,-4 2,-8 2,-11 3,1 5,2 7,2 0,0 0,0 0,0 3,0 5,-1 7,-2 2,-1 4,-2 6,-2 0,0 0,0 0,0 1,0 2,1 2,1 -6,7 -12,18 -12,25 -1,5 -4,9 -4,14 -1,2 -2,5 -3,8 0,3 -2,6 -2,9 -1,3 1,5 4,5 1,0 2,0 3,0 2,0 4,0 5,0l0 -1 15 0c3,-2 6,-2 9,-2 1,0 2,0 3,0 1,0 2,0 3,0 0,0 1,0 2,0 0,0 1,0 2,0 0,0 1,0 1,0 1,0 1,0 2,0 2,0 3,0 5,-1 4,-2 7,-2 11,-2 5,0 8,-3 8,-8 0,-4 0,-7 0,-11 -1,-3 -2,-6 -3,-9 -1,-4 -1,-7 -2,-10 1,1 2,1 3,1 0,0 0,0 0,0 2,0 4,-1 6,-1 2,-1 4,-2 6,-2 0,0 0,0 0,0 1,0 1,0 1,0 1,0 3,-2 5,-5 0,1 -1,3 -1,4 0,7 -7,13 -1,20 1,0 0,2 0,2 -4,5 -2,11 -2,16 0,1 0,2 1,2 1,0 1,0 2,-1 1,-1 3,-1 5,-1 0,0 0,0 0,0 1,0 1,0 1,0 0,0 0,0 1,0 6,0 12,0 19,0 6,-1 11,-4 15,-9 7,-10 13,-22 23,-30 1,-1 2,-2 3,-3 2,3 4,7 6,7 0,0 1,0 1,0 1,0 2,0 4,0 -3,2 -5,4 -7,6 -6,7 -12,15 -17,23 -1,3 1,3 2,3 0,0 0,0 1,0 5,0 10,-1 15,-1 0,-1 1,-1 2,-1 1,0 1,0 2,0 0,1 1,1 2,1 0,0 1,0 1,-1 1,0 2,-1 3,-1 2,0 3,2 5,2 1,1 2,1 3,1 0,0 1,0 1,0 1,0 1,0 2,0 0,0 0,0 0,0 2,0 3,0 5,0 3,0 5,0 8,0l0 0c3,0 5,0 8,0 3,0 5,0 8,0 1,0 2,0 3,0 1,0 1,0 1,0 4,-3 8,-3 12,-3 3,0 6,0 8,0 0,0 1,0 1,0 2,0 3,-1 5,-1 2,-1 3,-2 5,-2 0,0 0,0 0,0 1,0 2,0 3,0 4,0 7,0 11,0l1 -1c3,-3 9,-1 12,-3 3,-2 5,-2 7,-2 1,0 1,0 2,0 0,0 1,0 1,0 1,0 2,0 3,0 2,0 5,-3 5,-5 0,-4 0,-9 0,-13 4,1 7,19 11,20 4,1 8,2 12,3 1,0 1,0 1,0 2,0 5,-3 7,-7 3,-3 5,-7 7,-7 0,0 0,0 1,1 4,1 6,15 10,17 1,0 2,0 3,0 1,0 3,0 4,0 2,-1 3,-1 5,-1 0,0 1,0 2,0 6,4 2,12 2,16 0,4 4,11 -2,15 -4,2 -8,6 -12,8 -1,0 -1,0 -1,0 -2,0 -4,-2 -6,-4 -3,-2 -5,-4 -7,-4 0,0 -1,0 -1,0 -4,2 -8,5 -12,6 -4,1 -7,14 -11,15 -1,0 -1,0 -1,0 -2,0 -4,-2 -6,-5 -3,-2 -5,-5 -7,-5 0,0 0,0 -1,0 0,0 0,0 -1,0 -1,0 -3,-1 -5,-1 -2,-1 -4,-2 -6,-2 0,0 0,0 -1,0 -4,1 -7,20 -11,21 -4,0 -8,3 -13,4 0,0 0,0 -1,0 -2,0 -3,-1 -5,-1 -2,-1 -4,-2 -6,-2 0,0 0,0 -1,1 0,0 0,0 0,0 -2,0 -4,-4 -7,-7 -2,-4 -4,-7 -6,-7 0,0 0,0 -1,0 -4,0 -8,9 -12,9 -4,1 -8,3 -13,3 -4,1 -8,4 -12,4 -5,1 -9,4 -13,4 0,0 0,0 0,0 -2,0 -5,-4 -7,-8 -2,-3 -4,-7 -6,-7 0,0 -1,0 -1,0 -4,0 -8,15 -12,15 0,0 0,0 0,0 -2,0 -4,-3 -6,-5 -3,-3 -5,-5 -7,-5 0,0 0,0 0,0 -4,0 -8,10 -13,10 0,0 0,0 0,0 -2,0 -4,-1 -6,-2 -2,-1 -4,-2 -6,-2 0,0 -1,0 -1,0 -4,0 -8,9 -12,9 0,0 0,0 -1,0 -2,0 -4,-2 -6,-3 -2,-2 -4,-3 -6,-3 0,0 0,0 0,0 -5,0 -9,3 -13,3 0,0 0,0 0,0 -2,0 -5,-3 -7,-5 -2,-3 -4,-5 -6,-5 0,0 0,0 0,0 -4,0 -9,1 -13,2 0,0 0,0 0,0 -2,0 -4,-1 -6,-2 -3,-1 -5,-1 -7,-1 0,0 0,0 0,0 -4,0 -8,20 -13,20 0,0 0,0 0,0 -2,0 -4,-2 -6,-5 -2,-2 -4,-4 -7,-4 0,0 0,0 0,0 -4,0 -8,10 -12,10 -1,0 -1,0 -1,0l0 0z"/>
   </clipPath>
   <clipPath id="id1">
    <path d="M604 1002l-1 -1c0,-2 0,-5 0,-7 -1,-7 1,-14 -3,-20 -1,-1 0,-2 0,-3 0,-7 1,-14 -1,-20 -1,-7 -2,-13 -2,-19 -1,-5 -4,-11 -3,-17 0,-5 0,-10 0,-16 0,-5 -4,-9 -3,-14 0,-2 0,-5 2,-6 5,-4 7,-9 10,-15 3,-6 7,-13 11,-20 3,-4 5,-8 8,-12 2,-4 3,-9 6,-13 2,-2 1,-6 3,-9 2,-3 1,-6 4,-9 -1,-4 3,-7 3,-11 0,-4 4,-6 5,-9 2,-5 3,-11 5,-16 2,-6 3,-12 7,-17 0,-6 4,-11 5,-16 1,-6 5,-10 4,-15 0,-5 4,-9 4,-14 0,-6 4,-11 2,-17 4,-5 2,-11 5,-17 2,-3 1,-8 1,-13 1,-1 2,-3 3,-5l1 0 1 0c0,1 1,2 1,3 0,6 -2,13 2,19 1,1 1,4 1,5 0,13 0,25 0,37l0 0c0,9 0,18 0,27 -1,6 1,13 -3,20 -1,1 0,2 0,4 -1,5 1,11 -3,15 0,1 0,2 0,3 -1,7 1,13 -2,19 -2,5 1,12 -4,17 0,1 0,3 0,4 1,8 -3,15 -4,22 -2,7 -3,15 -6,21 -3,6 -6,13 -8,20 -2,7 -5,13 -7,20 -3,6 -5,13 -7,20 -1,1 -1,3 -1,4 -6,12 -11,23 -16,34 -5,12 -11,23 -16,34 -1,1 -2,2 -3,3l-1 0z"/>
   </clipPath>
   <clipPath id="id2">
    <path d="M328 815c-2,0 -5,-1 -8,-2 -2,-1 -5,-2 -8,-2 0,0 0,0 -1,0 0,0 0,0 0,0 -1,0 -2,-1 -3,-2 -3,-1 -5,-3 -8,-3 -2,-1 -4,-2 -5,-3 -6,-9 -11,-19 -16,-29 0,-6 -5,-11 -6,-16 -1,-6 -4,-10 -6,-15 -3,-7 -6,-15 -10,-22 -3,-7 -6,-14 -8,-21 0,-3 -1,-5 -3,-7 -4,-6 -5,-14 -9,-21 -3,-6 -4,-14 -7,-20 -1,-1 -1,-3 0,-4 3,-3 1,-6 -1,-9 -7,-6 -11,-14 -12,-24 -1,-4 -3,-9 -5,-13 -2,-4 -4,-9 -6,-13 -2,-4 -3,-9 -6,-13 -5,-10 -6,-21 -12,-31 0,-5 -2,-9 -3,-14 -1,-8 -5,-16 -7,-24 0,-2 -2,-3 -2,-4 0,-4 0,-8 0,-12 -1,-4 -3,-7 -3,-11 0,-5 -2,-9 -3,-14 -1,-5 -4,-9 -3,-14 -3,-4 -3,-10 -6,-15 2,-5 -3,-8 -3,-13 -5,-12 -5,-25 -11,-36 0,-7 -4,-13 -6,-20 -1,-7 -4,-13 -5,-19 -2,-9 -5,-17 -7,-25 -3,-8 -6,-16 -9,-24 -1,-6 -3,-11 -3,-17 0,-4 -3,-8 -3,-13 0,-5 -3,-9 -3,-14 0,-4 -3,-8 -4,-12 -1,-3 -2,-7 -3,-11 -1,-3 -1,-6 -3,-9 -2,-4 0,-8 -2,-12 -2,-5 -2,-11 -3,-17 0,-4 -4,-6 -3,-11 -3,-3 -1,-7 -4,-10 0,-1 -1,-2 -1,-3 19,-25 39,-50 60,-74 -1,0 -2,-1 -3,-2 -2,-7 -6,-11 -10,-16 -9,-9 -18,-20 -27,-29l0 -1c-9,-14 -21,-23 -31,-33l-2 -1c0,0 -1,0 -2,0 0,0 1,0 1,0 1,0 2,0 3,0l1 1c10,10 23,19 31,33l1 1c9,9 17,20 26,29 4,5 9,9 10,16 1,2 3,2 4,2 1,0 1,0 1,0 6,0 12,-3 18,-4 1,0 3,-1 4,-2 1,0 2,0 4,0 0,0 0,0 1,0 0,0 1,0 1,0 4,0 8,0 11,-3 5,0 11,1 15,-3 1,1 2,1 3,1 3,0 6,-1 9,-2 4,-1 7,-2 10,-2 1,0 1,0 1,0 0,0 0,0 0,0 2,0 4,-1 6,-1 2,-1 4,-2 6,-2 0,0 0,0 1,0 0,0 1,0 2,0 3,0 6,0 9,-2 1,-1 2,-1 3,-1 1,0 1,0 2,0 1,0 2,0 3,0 0,0 0,0 0,0 5,0 10,1 15,-2 1,0 3,-1 4,-1 1,0 2,0 3,1 0,0 1,0 2,0 1,0 2,0 2,-1 1,0 2,0 4,0 1,0 2,0 4,0 1,0 2,1 3,1 4,0 7,-1 11,-3 0,-1 1,-1 2,-1 1,0 2,0 2,1 1,0 2,0 3,0 0,0 0,0 0,0 20,0 40,0 60,-1 0,0 0,0 1,0 0,0 1,0 2,0 1,1 2,1 3,1 3,0 6,-1 8,-3 1,0 2,0 3,0 0,0 1,0 2,0 0,0 1,0 1,0 0,0 0,0 0,0 3,0 6,0 9,1 0,0 0,1 0,1 2,0 4,-2 6,-2 0,0 0,0 1,0 1,0 2,0 3,1 0,0 1,0 2,0 1,0 2,0 3,-1 3,2 5,3 8,3 1,0 2,-1 3,-1 1,0 1,0 2,0 1,0 2,0 3,0 1,1 2,1 3,1 1,0 2,0 3,0 1,0 2,0 3,0 4,0 7,0 11,2 0,1 1,1 2,1 1,0 2,0 3,0 0,-1 1,-1 2,-1 0,0 0,0 0,0 2,0 3,0 5,0 1,0 2,0 3,0 1,0 2,0 3,0 5,0 10,0 15,1 1,0 1,0 2,0 1,0 2,0 4,0 1,-1 2,-1 3,-1 4,0 8,1 11,3 6,0 11,1 16,1 1,1 2,1 3,1 3,0 4,-1 6,-2 3,-2 5,-5 8,-7 12,-12 25,-25 37,-37 5,-5 9,-9 15,-13 5,-3 10,-9 14,-14 2,-1 4,-3 6,-5 0,0 1,0 1,0 1,0 2,1 3,1 1,4 -1,9 3,13 0,0 0,3 0,4 -4,5 -3,11 -3,17 0,13 0,26 0,40 0,5 2,10 -2,15 -1,1 -1,2 -1,3 -1,6 1,11 -2,17 -2,5 1,11 -3,16 -1,1 0,4 -1,7 0,4 1,9 -2,12 -1,1 0,3 -1,5 0,4 1,9 -2,14 -1,0 0,2 -1,3 0,5 1,11 -2,17 -2,4 1,10 -3,15 -1,1 0,2 0,3 -1,5 0,9 -3,14 -1,4 0,9 -2,13 -2,4 0,10 -4,13 0,6 -3,11 -3,16 0,5 -3,9 -3,14 -1,5 -3,10 -4,15 0,5 -1,10 -3,15 -1,5 -1,11 -3,16 -3,5 -1,11 -3,15 -2,5 -3,10 -5,15 0,1 0,3 0,5 0,4 0,9 -2,14 -2,4 0,9 -3,14 -1,1 -1,3 -1,4 1,5 -1,9 -3,14 -3,8 -4,18 -8,26l0 1c1,10 -5,18 -7,28 -4,3 -1,9 -3,12 -2,4 -2,8 -2,11 -1,5 -2,9 -4,13 -2,4 -4,10 -5,15 0,5 -4,9 -3,15 -3,5 -3,10 -4,15 -2,5 -3,10 -5,15 -3,5 -1,12 -5,16 0,6 -5,10 -4,16 0,1 -1,2 -1,4 -2,4 -5,8 -5,13 0,3 -1,6 -3,8 -1,3 -3,5 -2,8 0,1 0,2 -1,3 -5,8 -6,17 -10,25 -4,9 -5,19 -10,27 1,7 -5,11 -6,17 -1,6 -4,11 -6,16 -3,8 -6,16 -9,23 -4,7 -7,15 -10,22 -2,5 -5,11 -7,16 -4,10 -11,18 -16,27 -1,1 -2,3 -4,3 -7,0 -12,7 -18,10 -4,2 -8,5 -13,5 -1,0 -1,0 -2,0 -1,0 -2,0 -3,0 -6,0 -12,2 -18,4 0,0 0,0 -1,0 0,0 -1,0 -2,0 0,-8 1,-16 1,-24 6,-6 10,-14 17,-20 6,-5 11,-11 14,-19 8,-12 14,-26 17,-41 1,-1 1,-3 1,-4 0,-3 1,-6 1,-9 0,-3 -1,-5 -2,-6 -1,-2 -3,-4 -6,-4 -3,0 -6,0 -9,0 -32,0 -62,5 -93,16l-1 0c-3,1 -7,4 -6,9 3,29 18,55 42,72 2,3 4,6 6,10 1,7 1,14 2,21 0,0 0,0 -1,1 -1,0 -2,0 -4,0 -1,0 -3,0 -5,0 -2,0 -3,0 -4,0zm149 -612c-2,0 -4,0 -5,1 -10,4 -21,4 -29,12 -1,2 -4,2 -5,3 -8,4 -13,10 -18,16 -9,13 -15,26 -20,43 -1,5 -2,9 -3,14 -1,6 -1,11 -3,17 -2,6 -1,12 -3,18 -2,7 0,14 -1,21 0,8 0,16 0,23 0,5 0,9 0,14 0,5 1,9 1,14 0,5 0,9 0,14 -1,5 3,9 3,14 -1,3 1,5 2,8 1,3 1,6 2,9 2,8 6,14 10,21 3,4 5,8 9,11 6,5 12,11 20,13 2,1 4,2 6,2 1,0 3,0 5,0 7,0 14,-2 19,-6 9,-7 18,-14 23,-24 5,-10 10,-19 14,-29 2,-6 4,-12 7,-18 1,-4 1,-7 3,-10 1,-3 0,-7 2,-10 1,-3 1,-6 1,-10 1,-1 1,-3 1,-4 4,-4 0,-11 5,-15 0,-5 1,-10 3,-15 1,-5 0,-11 0,-16 1,-8 -2,-17 3,-25 0,0 -1,-1 -1,-2 0,-2 -2,-4 -2,-6 0,-6 0,-13 0,-19 1,-7 -3,-13 -3,-20 1,-5 -4,-10 -3,-15 0,-2 -2,-5 -3,-7 -4,-7 -7,-15 -13,-20 -3,-8 -10,-11 -17,-15 -3,-2 -7,-2 -10,-2l0 0zm-233 120c-2,0 -3,0 -5,1 -2,1 -4,2 -6,3 -8,2 -16,12 -16,20 0,5 0,9 0,13 0,5 0,10 0,15 0,2 0,4 1,6 2,3 1,8 2,11 2,4 2,8 3,11 3,4 2,9 5,13 2,2 3,4 5,5 3,2 6,3 8,3 2,0 4,0 6,-1 4,-1 9,-3 12,-7 5,-7 7,-15 10,-22 2,-6 1,-12 1,-18 -4,-5 -3,-12 -3,-18 0,-5 -4,-8 -3,-13 0,-1 -1,-2 -1,-4 -2,-6 -7,-10 -12,-14 -2,-3 -4,-4 -7,-4l0 0z"/>
   </clipPath>
   <clipPath id="id3">
    <path d="M87 172c-1,-3 0,-7 -1,-10 -2,-5 -2,-11 -3,-17 0,-4 -4,-9 -3,-14 -3,-3 -2,-8 -2,-12 0,-3 -1,-6 -2,-8 -1,-2 -1,-5 -1,-8 -1,-4 0,-9 -3,-14 -1,-2 0,-6 0,-10 0,-3 0,-7 -2,-10 -1,-1 -1,-2 -1,-4 0,-15 0,-31 0,-47 0,-1 1,-3 2,-3 0,0 1,0 1,0 1,0 1,0 1,0 1,0 2,0 2,0l2 1c10,10 22,19 31,33l0 1c9,9 18,20 27,29 4,5 8,9 10,16 1,1 2,2 3,2 -21,24 -41,49 -60,74 0,0 -1,0 -1,1z"/>
   </clipPath>
   <clipPath id="id4">
    <path d="M104 1377c-1,0 -3,-1 -5,-2 -4,-3 -5,-8 -8,-12 1,-7 -4,-13 -3,-20 0,-2 0,-5 -1,-8 0,-1 0,-2 -1,-3 -1,-3 1,-7 3,-11 2,-4 4,-8 9,-10 4,-1 7,-4 11,-5 6,0 12,-3 18,-3 1,0 2,0 3,0 1,0 3,0 5,0 0,0 1,0 1,0 1,0 2,0 2,0 3,0 5,0 8,1 4,3 10,0 13,4 1,0 1,0 2,0 7,0 12,5 19,7 1,0 2,0 3,0 7,5 15,10 22,16 6,4 10,12 14,18 1,1 1,3 1,4 -1,1 -1,2 -2,2 0,1 -1,1 -2,1 -5,0 -10,0 -15,0 -2,2 -4,3 -7,3 0,0 -1,0 -1,0 -1,0 -1,0 -2,0 -2,0 -4,0 -5,1 -5,3 -10,0 -14,4 -1,1 -3,1 -4,1 -1,0 -1,0 -2,0 0,0 0,0 -1,0 -3,0 -6,1 -10,2 -1,1 -3,1 -4,1 0,0 0,0 -1,0 0,0 0,0 0,0 -3,0 -5,0 -7,2 -3,2 -8,0 -12,2 -2,2 -6,1 -9,1 -2,1 -3,1 -5,1 0,0 0,0 0,0 0,0 0,0 0,0 -4,0 -8,0 -11,2 0,0 -1,1 -2,1z"/>
   </clipPath>
   <clipPath id="id5">
    <path d="M343 1368c-1,0 -1,0 -2,-1 -3,0 -7,-2 -11,-2 0,0 -1,0 -1,0 -1,0 -1,0 -1,0 -4,0 -7,-2 -10,-3 -2,0 -5,-1 -7,-1 -3,0 -5,1 -8,1 0,0 -1,0 -2,0 -5,0 -9,-3 -14,-4 -4,0 -6,-6 -5,-9 4,-8 8,-15 14,-21 1,-1 3,-2 4,-3 4,-3 8,-4 12,-4 1,0 1,0 1,-1 1,0 3,0 3,-1 2,0 3,-1 4,-1 1,0 2,1 3,1 8,3 13,9 17,15 3,6 7,11 7,18 0,3 2,6 2,8 1,4 -3,8 -6,8l0 0z"/>
   </clipPath>
   <clipPath id="id6">
    <path d="M410 1368c-1,0 -2,0 -3,0 -3,0 -5,-2 -4,-5 0,-3 2,-6 2,-9 1,-3 2,-6 3,-8 0,-5 3,-9 4,-14 0,-7 6,-18 12,-25 2,-2 3,-4 4,-5 5,-4 11,-5 16,-5 2,0 4,0 6,0 1,0 2,1 3,2 10,8 15,15 18,25 1,3 1,6 2,10 1,3 2,6 3,9 0,4 0,7 0,11 0,5 -3,8 -8,8 -4,0 -7,0 -11,2 -2,1 -3,1 -5,1 -1,0 -1,0 -2,0 0,0 -1,0 -1,0 -1,0 -2,0 -2,0 -1,0 -2,0 -2,0 -1,0 -2,0 -3,0 -1,0 -2,0 -3,0 -3,0 -6,0 -9,2l-15 0 0 1c-1,0 -3,0 -5,0l0 0z"/>
   </clipPath>
   <clipPath id="id7">
    <path d="M381 1368c0,0 0,0 -1,0 -5,0 -10,-1 -14,-1 -4,-5 -5,-12 -7,-17 1,-6 -3,-10 -4,-16 0,-5 -4,-9 -4,-15 -1,-2 -1,-5 -2,-8 -2,-3 -3,-7 -3,-11 1,-5 -4,-10 -2,-16 -5,-3 -2,-8 -4,-12 -3,-4 -1,-8 -2,-13 -3,-7 -4,-14 -6,-22 -1,-3 -3,-6 -3,-9 -1,-5 -3,-10 -3,-14 1,-5 -2,-8 -3,-13 -1,-4 -4,-8 -3,-14 0,-1 -1,-3 -2,-5 -1,-5 -3,-9 -3,-14 -1,-5 -4,-8 -4,-14 0,-5 -2,-10 -3,-15 -1,-5 -3,-10 -3,-15 -3,-6 -2,-12 -3,-17 0,-4 -2,-7 -2,-10 -1,-3 0,-7 -2,-10 -1,-1 -2,-4 -1,-5 1,-5 -3,-9 -3,-13 0,-4 0,-8 -2,-11 -1,-2 -1,-5 -1,-7 -1,-5 1,-10 -2,-14 -2,-2 -1,-5 -1,-8 -1,-6 2,-13 -3,-19 -1,-1 0,-3 0,-5 -1,-6 1,-13 -3,-20 -1,-2 0,-5 0,-7 -1,-6 1,-13 -3,-18 -1,-2 0,-5 0,-8 0,-4 1,-8 -2,-12 -1,-2 -1,-4 -1,-6 0,-10 1,-19 -2,-29 -2,-6 -1,-13 -1,-19 0,-3 -2,-4 -4,-6 0,0 -1,0 -2,0 -1,0 -2,0 -3,2 0,3 1,7 0,10 -3,3 0,6 0,9 0,6 0,12 0,17 0,6 -1,11 2,16 2,3 1,7 1,10 1,7 -1,14 3,20 1,2 0,6 0,9 0,5 -1,10 2,14 1,1 1,3 1,4 0,7 -2,14 3,20 0,1 0,3 0,5 0,7 -1,15 2,22 2,3 1,7 1,11 0,4 3,7 3,12 -1,4 -1,8 2,11 1,2 1,4 1,6 -2,8 3,15 3,23 3,3 2,8 3,12 0,7 4,13 3,20 5,5 0,14 5,19 -1,7 5,12 3,19 4,4 2,9 4,13 3,4 1,9 4,13 3,4 -1,10 4,13 -1,6 3,11 3,17 1,5 3,10 3,16 1,5 3,10 4,15 2,7 5,13 5,21 3,4 2,10 4,15 2,3 2,7 2,10 0,1 0,2 0,2 0,2 -2,3 -3,3 0,0 0,0 0,0 -2,0 -3,-2 -4,-2 0,0 0,0 0,0 -1,0 -1,0 -1,0 -1,1 -2,1 -2,1 -1,0 -2,-1 -3,-1 -2,-1 -4,-1 -5,-1 -3,0 -6,1 -9,1 -2,1 -5,2 -8,2 0,0 -1,0 -1,0 0,0 0,0 0,0 -1,0 -3,2 -4,3 -3,3 -6,6 -9,9 -3,3 -5,6 -8,8 -2,2 -1,5 -3,5 0,0 -1,0 -1,0 -2,-1 -3,-4 -3,-6 -1,-3 -1,-5 -2,-7 -1,-3 -2,-6 -3,-9 -2,-5 -2,-11 -5,-16 0,-1 0,-3 -1,-5 -5,-7 -5,-15 -7,-22 -1,-3 -2,-6 -3,-9 -1,-6 -5,-11 -4,-17 -3,-6 -4,-12 -5,-18 -2,-5 -3,-11 -6,-16 1,-9 -6,-17 -6,-26 -4,-8 -3,-18 -9,-26 1,-7 -4,-13 -3,-20 1,-4 -3,-7 -3,-11 1,-3 0,-7 -1,-10 0,-4 -2,-7 -3,-11l-1 -1c1,-8 -2,-15 -3,-23 -1,-7 1,-15 -3,-22 -1,-3 0,-7 -1,-11 0,-4 1,-8 -2,-11l0 -1c0,-5 1,-10 -1,-13 -2,-4 -2,-8 -2,-11 -1,-7 1,-14 -3,-20 0,-8 0,-15 0,-22 -1,-6 1,-11 -3,-16 -1,-1 0,-4 0,-6 0,-8 0,-15 0,-23 0,-4 0,-8 -2,-12 -1,-1 -1,-4 -1,-7 0,-7 0,-15 0,-23 0,-2 -1,-4 -1,-6 0,-2 -1,-3 -1,-4l-1 0c0,1 -1,2 -1,2 -1,24 -2,49 -3,73l0 1c1,2 1,5 1,8 0,4 -1,8 2,12 1,1 0,3 0,5 1,7 1,13 1,19 0,5 0,10 2,15 2,3 -1,9 1,12 3,7 3,13 2,19 0,6 4,10 4,15 -1,6 -1,11 0,17 0,2 2,4 2,6 -3,3 0,6 0,9 0,4 1,7 3,10 1,1 0,3 0,4 1,6 -1,12 3,17 1,1 0,2 0,3 -1,8 3,14 5,21 0,1 1,2 1,3 -1,5 3,9 3,13 0,5 2,10 3,14 1,5 4,8 3,13 0,4 3,8 3,12 0,4 3,8 4,13 2,4 3,9 5,13 1,5 2,9 3,14 2,7 4,15 6,22 1,1 2,2 2,4 1,16 9,31 14,46 0,1 0,1 0,1 2,7 2,14 7,19l0 2c-1,7 2,13 6,19l0 1c1,3 -1,6 -4,6 0,0 0,0 -1,0 -2,-1 -4,-2 -6,-3 -2,0 -4,0 -6,0 0,0 0,0 0,0 -1,0 -2,0 -3,0 -6,0 -11,-2 -14,-6 -5,-5 -9,-11 -12,-17 -2,-2 -3,-4 -5,-5 -2,-2 -3,-3 -5,-5 -7,-6 -16,-10 -23,-15 -3,-2 -8,-4 -12,-5 -5,0 -9,-2 -14,-3 -4,-1 -9,-3 -14,-3 0,0 -1,0 -1,0 0,0 0,0 -1,0 -2,0 -3,-2 -5,-4 4,-4 -1,-7 -1,-11 0,-3 -3,-7 -5,-10 0,-1 0,-2 0,-3 0,-4 0,-8 -3,-12 -1,-4 1,-8 0,-12 -1,-4 -3,-8 -3,-13 0,-3 -1,-7 -2,-11 -2,-3 -1,-6 -1,-10 0,-4 0,-8 -2,-13 -2,-4 -1,-9 -1,-14 0,-4 1,-8 -2,-11 -1,-2 -1,-5 -1,-7 0,-47 0,-94 0,-140 0,-4 0,-7 2,-10 2,-2 1,-5 1,-7 0,-7 0,-14 0,-21 1,-5 -1,-11 3,-17 0,-4 0,-8 0,-13 1,-7 -2,-15 3,-23 0,0 0,-2 0,-3 0,-5 -1,-11 3,-17 1,-1 0,-4 0,-7 0,-4 0,-8 2,-13 2,-3 0,-9 1,-12 3,-7 3,-13 3,-19 0,-4 4,-8 3,-12 -1,-5 -1,-9 3,-13 -2,-8 4,-16 3,-24 -1,-5 3,-8 3,-13 -1,-4 -1,-9 2,-12l0 -2c-1,-9 5,-18 4,-28 -1,-6 3,-10 3,-16 0,-4 2,-9 3,-14 1,-1 2,-3 2,-5 1,-4 -1,-8 1,-11 3,-5 1,-9 3,-13 3,-3 1,-8 3,-11 3,-6 2,-12 5,-18 -1,-6 4,-11 3,-18 0,-1 1,-3 2,-4 1,-6 3,-11 4,-16 2,-10 7,-19 11,-28 0,-1 1,-2 2,-2 0,0 0,0 0,0 0,0 1,1 1,1 4,7 4,14 9,20 0,7 7,13 6,20 2,2 2,4 2,6 3,7 5,13 7,20l0 0c1,0 2,1 2,1 2,4 3,8 4,11 2,8 4,16 9,23 2,4 2,8 4,12 2,4 5,7 5,12 0,1 1,3 2,5 5,8 8,17 12,26 3,8 7,16 10,25 1,7 5,13 8,18 3,5 8,7 9,12 1,2 4,3 6,4 3,1 6,3 9,4 6,0 10,5 17,6 5,0 11,0 17,0 0,0 0,0 1,0 0,0 1,0 1,0 1,0 2,0 2,0 3,0 5,0 7,2 0,0 1,0 1,0 1,0 2,0 3,-1 5,-3 11,-4 16,-4 1,0 1,0 2,0 1,0 2,0 3,0 2,0 3,0 4,-1 3,-1 5,-2 7,-2 1,0 1,0 1,0 1,0 1,0 1,0 2,0 4,-2 6,-3 2,-1 5,-1 7,-1 9,-3 16,-8 23,-14 8,-7 14,-15 18,-25 2,-5 5,-9 7,-14 2,-5 5,-10 7,-16 1,-5 4,-9 5,-14 1,-3 3,-5 4,-8 3,-7 7,-13 8,-20 1,-4 3,-8 5,-12 2,-3 3,-7 4,-11 1,-2 2,-5 2,-8 1,-6 6,-21 9,-27l1 0c2,-7 5,-13 8,-19 0,-2 1,-4 1,-7 3,-10 9,-20 12,-30 1,-3 1,-6 1,-9 1,-2 2,-4 3,-4 0,0 0,1 1,1 1,1 2,2 2,3 0,5 5,9 6,14 1,5 3,11 5,15 3,5 3,11 5,17 1,5 3,9 5,14 2,6 5,11 5,17 1,6 5,12 4,19 2,4 1,9 3,13 2,4 3,8 2,12 0,6 5,11 3,17 5,4 1,11 5,15l1 1c0,6 0,11 0,17 0,4 5,8 3,14 -1,5 3,9 3,13 0,5 -1,10 1,14 2,5 1,11 2,17 1,6 3,13 3,20 0,6 -1,12 0,19 1,6 3,13 3,19 -1,7 0,14 0,21 0,5 4,10 3,16 -1,5 -2,11 0,16 3,7 1,15 3,22 2,9 3,17 3,25 4,8 3,18 3,27 -1,5 3,8 3,12 -1,5 -2,10 0,14 4,11 1,24 3,36 0,2 0,5 0,7l0 0c0,9 0,18 -1,26 0,6 4,12 1,18 4,10 2,20 2,30 1,11 0,22 0,33 1,10 0,20 1,31 0,20 0,40 0,60 0,4 -1,8 2,11 1,2 0,4 -2,5 -4,2 -7,4 -11,8 -2,3 -5,6 -9,7 0,0 0,2 -1,2 -3,4 -6,9 -10,11 -5,2 -8,5 -11,9 -1,1 -2,2 -3,3 -10,8 -16,20 -23,30 -4,5 -9,8 -15,9 -7,0 -13,0 -19,0 -1,0 -1,0 -1,0 0,0 0,0 -1,0 0,0 0,0 0,0 -2,0 -4,0 -5,1 -1,1 -1,1 -2,1 -1,0 -1,-1 -1,-2 0,-5 -2,-11 2,-16 0,0 1,-2 0,-2 -6,-7 1,-13 1,-20 0,-1 1,-3 1,-4 1,-4 1,-7 2,-11 1,-5 2,-10 3,-14 3,-7 3,-14 3,-21 -1,-5 3,-8 3,-13 -1,-4 -1,-9 0,-13 0,-3 2,-5 2,-8 1,-3 0,-6 1,-9 3,-4 2,-9 2,-14 1,-2 1,-5 1,-7 0,-3 -1,-6 2,-8 -2,-2 -1,-4 0,-7 1,-3 0,-7 0,-11 1,-3 0,-6 1,-9 1,-2 0,-5 0,-6 2,-3 2,-6 3,-8 2,-3 2,-6 2,-10 1,-6 -1,-13 3,-18 1,-1 0,-3 0,-5 1,-5 -1,-10 3,-15 1,-2 0,-6 0,-9 0,-4 0,-8 2,-11 1,-2 1,-5 1,-7 1,-9 -2,-19 3,-28 0,-7 0,-14 0,-22 0,-3 -1,-7 2,-11 1,-1 1,-3 1,-4 0,-8 -1,-16 2,-24 2,-5 1,-10 1,-15 1,-7 -1,-14 3,-20 1,-1 0,-4 0,-6 1,-7 -1,-15 2,-22 -2,-20 -2,-39 -7,-58 -1,0 -2,1 -2,2 -1,0 -2,1 -2,2 0,6 0,12 0,18l0 0c0,14 0,28 0,41 0,6 1,11 -3,16 -1,2 0,5 0,7 0,8 1,16 -3,23 -1,3 0,7 0,10 0,6 1,11 -3,16 0,6 0,12 0,17 0,4 0,8 -2,12 -1,2 -1,5 -1,7 0,6 2,12 -2,17 -1,1 -1,4 -1,6 0,6 0,12 0,19 0,4 1,8 -2,13 -1,1 0,4 -1,7 0,5 2,12 -2,17 -1,5 -1,10 -1,16 0,4 1,9 -2,13 -1,1 0,3 -1,5 0,5 2,11 -2,16 -1,1 0,3 -1,4 0,4 0,9 -2,13 -1,3 0,7 -1,11 0,7 2,13 -2,19 -1,1 0,3 0,4 -1,7 1,14 -3,20 -1,2 0,4 0,6 -1,5 1,11 -2,16 -3,4 0,10 -4,15 0,1 0,3 0,4 1,10 -4,18 -3,27 0,1 -1,2 -2,3 0,1 -1,1 -2,2 0,0 0,0 0,0 -1,0 -2,-1 -2,-2 -1,-10 -8,-16 -13,-23 -4,-5 -9,-7 -15,-7 0,0 0,0 -1,0 -7,0 -15,0 -22,3 -4,1 -6,4 -9,5 0,0 0,0 0,0 0,0 -1,0 -2,-1 0,-1 0,-2 1,-3 3,-5 2,-11 2,-17 1,-4 4,-8 3,-12 -1,-5 2,-10 3,-14 0,-5 1,-9 3,-13 1,-4 -1,-9 2,-14 2,-3 0,-9 4,-12 1,-1 0,-4 0,-6 0,-4 0,-8 2,-11 1,-2 1,-5 1,-7 0,-6 -1,-12 2,-18 2,-3 1,-7 1,-11 0,-3 -1,-7 1,-9 2,-2 -2,-5 1,-7 1,-2 1,-4 1,-6 0,-5 -1,-11 2,-17 1,-1 1,-3 1,-4 0,-8 -2,-16 2,-23 1,-1 1,-3 1,-4 0,-6 -2,-13 2,-19 1,-2 0,-5 1,-7 0,-4 -1,-8 1,-12 1,-2 -3,-6 1,-10 2,-2 -4,-6 0,-9 0,-3 0,-6 1,-10 0,-4 -1,-9 2,-13 1,-1 0,-3 0,-5 0,-7 0,-13 1,-19 0,-6 -2,-12 2,-17 1,-2 0,-5 0,-8 0,-15 0,-31 0,-47 0,-3 1,-7 -2,-9 0,-1 -1,-3 0,-3 4,-6 2,-13 2,-20 1,-7 0,-14 0,-21 0,0 -1,-2 -2,-2 0,0 0,0 0,0 -1,0 -3,1 -3,2 -2,4 -4,7 -4,12 1,6 0,12 0,18 0,3 -4,4 -2,8 3,6 4,12 0,18 -1,1 0,3 -1,4 -1,3 5,7 1,10 0,4 0,8 0,12 0,4 0,8 0,12 0,4 0,8 -1,12 0,4 1,8 0,11 0,4 1,8 -2,12 0,1 0,2 0,4 -1,5 -1,11 -1,16 1,6 -2,10 -2,16 -1,7 0,15 -1,23 0,4 1,8 -2,11l0 2c0,4 0,9 -1,14 0,4 -2,9 -2,13 -1,5 1,11 -3,17 -1,2 0,6 0,8 -1,6 1,12 -3,18 -1,1 0,3 0,5 -1,6 1,13 -3,19 -1,2 0,6 0,8 -1,7 1,14 -3,21 -2,5 1,12 -3,18 0,5 0,10 -3,15 2,10 -4,18 -3,27 0,4 -3,7 -3,11 0,4 0,7 -2,10 -2,5 -1,11 -3,17 -2,4 0,8 -3,13 -2,3 1,8 -3,12 -1,1 0,3 -1,4 0,1 0,1 0,2 0,3 1,7 -2,11 -2,3 1,8 -2,11 -1,1 -1,2 -1,3 -1,4 -1,9 -3,14 -2,3 -1,8 -3,12 -1,2 0,4 -1,6 0,1 -1,3 -3,3 0,0 0,0 0,0 0,0 0,0 0,0 -1,0 -2,0 -3,0 -1,0 -2,0 -3,0l0 0z"/>
   </clipPath>
   <clipPath id="id8">
    <path d="M616 1356c-1,0 -2,0 -3,0 -3,0 -5,0 -8,0 -3,0 -5,0 -8,0l0 0c-3,0 -5,0 -8,0 -2,0 -3,0 -5,0 0,0 0,0 0,0 -1,0 -1,0 -2,0 0,0 -1,0 -1,0 -1,0 -2,0 -3,-1 -2,0 -3,-2 -5,-2 -1,0 -2,1 -3,1 0,1 -1,1 -1,1 -1,0 -2,0 -2,-1 -1,0 -1,0 -2,0 -1,0 -2,0 -2,1 -5,0 -10,1 -15,1 -1,0 -1,0 -1,0 -1,0 -3,0 -2,-3 5,-8 11,-16 17,-23 2,-2 4,-4 7,-6 7,-8 15,-15 22,-23 3,-3 7,-6 11,-8 3,-1 5,-5 9,-5 0,0 1,0 1,0 0,0 0,0 0,0 1,0 3,-2 4,-3 10,-6 21,-11 33,-11 0,0 1,0 1,0 1,0 2,0 3,0 1,0 2,0 3,0 1,0 2,0 3,0 1,0 2,0 3,0 9,0 16,4 20,13 2,4 4,8 6,11 2,3 3,6 3,10 0,4 -1,8 2,11 0,2 0,4 0,7 0,4 0,9 0,13 0,2 -3,5 -5,5 -1,0 -2,0 -3,0 0,0 -1,0 -1,0 -1,0 -1,0 -2,0 -2,0 -5,0 -7,2 -3,2 -9,0 -12,3l-1 1c-4,0 -7,0 -11,0 -1,0 -2,0 -3,0 0,0 0,0 0,0 -2,0 -3,1 -5,2 -2,0 -3,1 -5,1 0,0 -1,0 -1,0 -2,0 -5,0 -8,0 -4,0 -8,0 -12,3 0,0 0,0 -1,0l0 0z"/>
   </clipPath>
   <clipPath id="id9">
    <path d="M448 491c-2,0 -4,0 -5,0 -2,0 -4,-1 -6,-2 -8,-2 -14,-8 -20,-13 -4,-3 -6,-7 -9,-11 -4,-7 -8,-13 -10,-21 -1,-3 -1,-6 -2,-9 -1,-3 -3,-5 -2,-8 0,-5 -4,-9 -3,-14 0,-5 0,-9 0,-14 0,-5 -1,-9 -1,-14 0,-5 0,-9 0,-14 0,-7 0,-15 0,-23 1,-7 -1,-14 1,-21 2,-6 1,-12 3,-18 2,-6 2,-11 3,-17 1,-5 2,-9 3,-14 5,-17 11,-30 20,-43 5,-6 10,-12 18,-16 1,-1 4,-1 5,-3 8,-8 19,-8 29,-12 1,-1 3,-1 5,-1 3,0 7,0 10,2 7,4 14,7 17,15 6,5 9,13 13,20 1,2 3,5 3,7 -1,5 4,10 3,15 0,7 4,13 3,20 0,6 0,13 0,19 0,2 2,4 2,6 0,1 1,2 1,2 -5,8 -2,17 -3,25 0,5 1,11 0,16 -2,5 -3,10 -3,15 -5,4 -1,11 -5,15 0,1 0,3 -1,4 0,4 0,7 -1,10 -2,3 -1,7 -2,10 -2,3 -2,6 -3,10 -3,6 -5,12 -7,18 -4,10 -9,19 -14,29 -5,10 -14,17 -23,24 -5,4 -12,6 -19,6zm31 -277c-1,0 -3,1 -5,2 -2,1 -5,1 -7,2 -9,0 -18,4 -25,9 -2,1 -5,2 -6,4 -3,6 -9,9 -12,14 -5,8 -7,17 -11,25 -1,3 -1,6 -2,8 0,3 -2,6 -2,9 -1,2 0,6 -1,8 -4,5 -1,11 -3,16 -4,5 -2,11 -2,17 -1,2 0,5 -1,7 -4,9 -2,18 -2,27 -1,9 0,17 0,25 -1,10 4,19 3,29 4,4 2,10 3,15 6,15 12,29 25,40 5,5 12,6 18,8 0,0 1,0 2,0 1,0 2,0 4,-1 3,-1 6,-3 8,-5 11,-10 21,-20 26,-35 1,-2 1,-5 3,-8 5,-8 5,-18 10,-26 1,-10 8,-18 7,-28l0 -1c4,-4 1,-9 3,-13 3,-4 2,-8 2,-12 0,-2 0,-4 1,-5 3,-4 2,-8 2,-12 0,-8 0,-16 0,-28 -1,-9 2,-23 -3,-36 1,-7 -2,-13 -4,-18 -4,-15 -5,-14 -15,-25 -2,-2 -5,-5 -8,-8 -2,-2 -5,-4 -8,-4l0 0z"/>
   </clipPath>
   <clipPath id="id10">
    <path d="M451 479c-1,0 -2,0 -2,0 -6,-2 -13,-3 -18,-8 -13,-11 -19,-25 -25,-40 -1,-5 1,-11 -3,-15 1,-10 -4,-19 -3,-29 0,-8 -1,-16 0,-25 0,-9 -2,-18 2,-27 1,-2 0,-5 1,-7 0,-6 -2,-12 2,-17 2,-5 -1,-11 3,-16 1,-2 0,-6 1,-8 0,-3 2,-6 2,-9 1,-2 1,-5 2,-8 4,-8 6,-17 11,-25 3,-5 9,-8 12,-14 1,-2 4,-3 6,-4 7,-5 16,-9 25,-9 2,-1 5,-1 7,-2 2,-1 4,-2 5,-2 3,0 6,2 8,4 3,3 6,6 8,8 10,11 11,10 15,25 2,5 5,11 4,18 5,13 2,27 3,36 0,12 0,20 0,28 0,4 1,8 -2,12 -1,1 -1,3 -1,5 0,4 1,8 -2,12 -2,4 1,9 -3,13l0 1c1,10 -6,18 -7,28 -5,8 -5,18 -10,26 -2,3 -2,6 -3,8 -5,15 -15,25 -26,35 -2,2 -5,4 -8,5 -2,1 -3,1 -4,1l0 0zm14 -188c-8,4 -18,5 -23,14 -4,9 -7,18 -10,27 -1,4 -1,7 -1,11 -1,5 0,10 -3,16 -2,6 -2,14 1,21 3,6 6,13 9,20 2,5 6,5 10,7 1,1 4,2 6,2 2,0 3,-1 5,-1 13,-6 24,-15 29,-29 0,-10 7,-18 4,-27 0,-6 1,-10 0,-14 -1,-5 -3,-9 -3,-14 0,-10 -6,-17 -10,-25 -3,-5 -9,-6 -14,-8z"/>
   </clipPath>
   <clipPath id="id11">
    <path d="M241 424c-2,0 -5,-1 -8,-3 -2,-2 -3,-3 -5,-5 -3,-4 -2,-9 -5,-13 -1,-3 -1,-7 -3,-11 -1,-3 0,-8 -2,-11 -1,-2 -1,-4 -1,-6 0,-5 0,-10 0,-15 0,-4 0,-8 0,-13 0,-8 8,-18 16,-20 2,-1 4,-2 6,-3 2,-1 3,-1 5,-1 3,0 5,1 7,4 5,4 10,8 12,14 0,2 1,3 1,4 -1,5 3,8 3,13 0,6 -1,13 3,18 0,6 1,12 -1,18 -3,7 -5,15 -10,22 -3,4 -8,6 -12,7 -2,1 -4,1 -6,1l0 0zm8 -87c-17,0 -17,26 1,26 16,0 16,-26 -1,-26z"/>
   </clipPath>
   <clipPath id="id12">
    <path d="M454 409c-2,0 -5,-1 -6,-2 -4,-2 -8,-2 -10,-7 -3,-7 -6,-14 -9,-20 -3,-7 -3,-15 -1,-21 3,-6 2,-11 3,-16 0,-4 0,-7 1,-11 3,-9 6,-18 10,-27 5,-9 15,-10 23,-14 5,2 11,3 14,8 4,8 10,15 10,25 0,5 2,9 3,14 1,4 0,8 0,14 3,9 -4,17 -4,27 -5,14 -16,23 -29,29 -2,0 -3,1 -5,1l0 0zm13 -109c-1,0 -2,0 -3,0 -2,0 -4,1 -7,1 -8,1 -17,10 -18,18 -1,5 -2,9 -3,13 0,5 -1,10 -2,15 0,2 -1,4 0,5 2,4 0,8 1,12 1,4 0,8 1,11 1,5 0,10 2,14 2,2 3,4 4,6 4,3 8,4 11,4 1,0 2,0 3,0 4,0 9,-2 13,-6 6,-5 9,-13 13,-20 3,-5 3,-11 4,-17 -3,-6 -1,-12 0,-18 1,-5 -3,-9 -1,-13 1,-1 0,-3 0,-4 -1,-7 -6,-11 -9,-17 -3,-3 -6,-4 -9,-4l0 0z"/>
   </clipPath>
   <clipPath id="id13">
    <path d="M453 399c-3,0 -7,-1 -11,-4 -1,-2 -2,-4 -4,-6 -2,-4 -1,-9 -2,-14 -1,-3 0,-7 -1,-11 -1,-4 1,-8 -1,-12 -1,-1 0,-3 0,-5 1,-5 2,-10 2,-15 1,-4 2,-8 3,-13 1,-8 10,-17 18,-18 3,0 5,-1 7,-1 1,0 2,0 3,0 3,0 6,1 9,4 3,6 8,10 9,17 0,1 1,3 0,4 -2,4 2,8 1,13 -1,6 -3,12 0,18 -1,6 -1,12 -4,17 -4,7 -7,15 -13,20 -4,4 -9,6 -13,6 -1,0 -2,0 -3,0l0 0zm15 -82c-17,0 -17,26 0,26 17,0 17,-26 0,-26l0 0z"/>
   </clipPath>
   <clipPath id="id14">
    <path d="M250 363c-18,0 -18,-26 -1,-26 17,0 17,26 1,26z"/>
   </clipPath>
   <clipPath id="id15">
    <path d="M468 343c-17,0 -17,-26 0,-26 17,0 17,26 0,26l0 0z"/>
   </clipPath>
   <clipPath id="id16">
    <path d="M349 822c-3,0 -6,-3 -7,-7 0,0 0,-1 0,-1 -1,-7 -1,-14 -2,-21 0,-2 0,-4 -1,-6 -1,-2 -3,-3 -5,-4 -24,-17 -39,-43 -42,-72 -1,-5 3,-8 6,-9l1 0c31,-11 61,-16 93,-16 3,0 6,0 9,0 3,0 5,2 6,4 1,1 2,3 2,6 0,3 -1,6 -1,9 -1,1 -1,3 -1,4 -3,15 -9,29 -17,41 -8,13 -19,24 -31,34 0,2 0,3 0,5 0,8 -1,16 -1,24 0,0 0,0 0,0 0,5 -5,9 -9,9l0 0zm3 -113c0,0 -1,0 -1,0 -11,2 -23,4 -34,6 -6,1 -7,10 -1,10 0,0 1,0 1,0 12,-2 23,-4 34,-5 6,-1 7,-11 1,-11l0 0z"/>
   </clipPath>
   <clipPath id="id17">
    <path d="M316 725c-6,0 -5,-9 1,-10 11,-2 23,-4 34,-6 0,0 1,0 1,0 6,0 5,10 -1,11 -11,1 -22,3 -34,5 0,0 -1,0 -1,0l0 0z"/>
   </clipPath>
 </defs>
 <g id="Layer_x0020_1">
  <metadata id="CorelCorpID_0Corel-Layer"/>
  <g style="clip-path:url(#id0)">
   <image transform="matrix(0 -1 -1 0 764.025 1432.96)" x="0" y="0" width="132" height="767" xlink:href="Dog19_Images\Dog19_ImgID1.png"/>
  </g>
  <g style="clip-path:url(#id1)">
   <image transform="matrix(0 -1 -1 0 688.168 1003.84)" x="0" y="0" width="355.067" height="99.675" xlink:href="Dog19_Images\Dog19_ImgID2.png"/>
  </g>
  <g style="clip-path:url(#id2)">
   <image transform="matrix(0 -1 -1 0 622.119 816.299)" x="0" y="0" width="818" height="551" xlink:href="Dog19_Images\Dog19_ImgID3.png"/>
  </g>
  <g style="clip-path:url(#id3)">
   <image transform="matrix(0 -1 -1 0 149.163 173.616)" x="0" y="0" width="161.722" height="81.6614" xlink:href="Dog19_Images\Dog19_ImgID4.png"/>
  </g>
  <g style="clip-path:url(#id4)">
   <image transform="matrix(0 -1 -1 0 223.018 1379.12)" x="0" y="0" width="77.6584" height="139.705" xlink:href="Dog19_Images\Dog19_ImgID5.png"/>
  </g>
  <g style="clip-path:url(#id5)">
   <image transform="matrix(0 -1 -1 0 350.714 1369.32)" x="0" y="0" width="52.0392" height="71.6539" xlink:href="Dog19_Images\Dog19_ImgID6.png"/>
  </g>
  <g style="clip-path:url(#id6)">
   <image transform="matrix(0 -1 -1 0 478.41 1369.12)" x="0" y="0" width="73.6554" height="77.6584" xlink:href="Dog19_Images\Dog19_ImgID7.png"/>
  </g>
  <g style="clip-path:url(#id7)">
   <image transform="matrix(0 -1 -1 0 604.505 1369.11)" x="0" y="0" width="792" height="487" xlink:href="Dog19_Images\Dog19_ImgID8.png"/>
  </g>
  <g style="clip-path:url(#id8)">
   <image transform="matrix(0 -1 -1 0 696.174 1357.11)" x="0" y="0" width="85.6645" height="153.716" xlink:href="Dog19_Images\Dog19_ImgID9.png"/>
  </g>
  <g style="clip-path:url(#id9)">
   <image transform="matrix(0 -1 -1 0 530.45 493.056)" x="0" y="0" width="293" height="144" xlink:href="Dog19_Images\Dog19_ImgID10.png"/>
  </g>
  <g style="clip-path:url(#id10)">
   <image transform="matrix(0 -1 -1 0 520.442 481.047)" x="0" y="0" width="269" height="124" xlink:href="Dog19_Images\Dog19_ImgID11.png"/>
  </g>
  <g style="clip-path:url(#id11)">
   <image transform="matrix(0 -1 -1 0 273.056 425.005)" x="0" y="0" width="103.678" height="58.0437" xlink:href="Dog19_Images\Dog19_ImgID12.png"/>
  </g>
  <g style="clip-path:url(#id12)">
   <image transform="matrix(0 -1 -1 0 496.424 410.994)" x="0" y="0" width="121.692" height="71.6539" xlink:href="Dog19_Images\Dog19_ImgID13.png"/>
  </g>
  <g style="clip-path:url(#id13)">
   <image transform="matrix(0 -1 -1 0 488.618 401.187)" x="0" y="0" width="103.678" height="58.0437" xlink:href="Dog19_Images\Dog19_ImgID14.png"/>
  </g>
  <g style="clip-path:url(#id14)">
   <image transform="matrix(0 -1 -1 0 269.053 365.36)" x="0" y="0" width="30.0226" height="38.0286" xlink:href="Dog19_Images\Dog19_ImgID15.png"/>
  </g>
  <g style="clip-path:url(#id15)">
   <image transform="matrix(0 -1 -1 0 486.617 345.345)" x="0" y="0" width="30.0226" height="38.0286" xlink:href="Dog19_Images\Dog19_ImgID16.png"/>
  </g>
  <g style="clip-path:url(#id16)">
   <image transform="matrix(0 -1 -1 0 410.759 824.505)" x="0" y="0" width="140" height="122" xlink:href="Dog19_Images\Dog19_ImgID17.png"/>
  </g>
  <g style="clip-path:url(#id17)">
   <image transform="matrix(0 -1 -1 0 358.92 726.432)" x="0" y="0" width="20.0151" height="50.0377" xlink:href="Dog19_Images\Dog19_ImgID18.png"/>
  </g>
 </g>
</svg>
