<?xml version="1.0" encoding="UTF-8"?>
<!DOCTYPE svg PUBLIC "-//W3C//DTD SVG 1.1//EN" "http://www.w3.org/Graphics/SVG/1.1/DTD/svg11.dtd">
<!-- Creator: CorelDRAW X7 -->
<svg xmlns="http://www.w3.org/2000/svg" xml:space="preserve" width="0.807213in" height="1.44004in" version="1.1" style="shape-rendering:geometricPrecision; text-rendering:geometricPrecision; image-rendering:optimizeQuality; fill-rule:evenodd; clip-rule:evenodd"
viewBox="0 0 207 369"
 xmlns:xlink="http://www.w3.org/1999/xlink">
 <defs>
  <style type="text/css">
   <![CDATA[
    .fil0 {fill:#3B210F;fill-rule:nonzero}
   ]]>
  </style>
 </defs>
 <g id="_2">
  <metadata id="CorelCorpID_0Corel-Layer"/>
  <path class="fil0" d="M196 164l0 -24 -38 0 0 -28 18 0 0 -32 -16 0c0,-6 0,-17 0,-27 0,-15 -22,-33 -47,-38l0 -15 -3 0 -14 0 -3 0 0 15c-24,5 -46,23 -46,38 0,10 0,21 0,27l-16 0 0 32 18 0 0 28 -39 0 0 24 -10 0 0 45 10 0 0 27 39 0 0 77 -18 0 0 35 -12 0 0 21 30 0 36 0 18 0 1 0 18 0 36 0 30 0 0 -21 -12 0 0 -35 -18 0 0 -77 38 0 0 -27 11 0 0 -45 -11 0zm-76 47l0 0 -16 0 -1 0 -16 0 -17 -29 17 -30 16 0 1 0 16 0 17 30 -17 29z"/>
 </g>
</svg>
