<?xml version="1.0" encoding="UTF-8"?>
<!DOCTYPE svg PUBLIC "-//W3C//DTD SVG 1.1//EN" "http://www.w3.org/Graphics/SVG/1.1/DTD/svg11.dtd">
<!-- Creator: CorelDRAW X7 -->
<svg xmlns="http://www.w3.org/2000/svg" xml:space="preserve" width="1.76087in" height="1.87407in" version="1.1" style="shape-rendering:geometricPrecision; text-rendering:geometricPrecision; image-rendering:optimizeQuality; fill-rule:evenodd; clip-rule:evenodd"
viewBox="0 0 811 863"
 xmlns:xlink="http://www.w3.org/1999/xlink">
 <defs>
  <style type="text/css">
   <![CDATA[
    .fil0 {fill:#373435;fill-rule:nonzero}
   ]]>
  </style>
 </defs>
 <g id="__x0023_Layer_x0020_1">
  <metadata id="CorelCorpID_0Corel-Layer"/>
  <path class="fil0" d="M806 220c-11,-4 -52,-22 -62,-28 -9,-6 -25,-15 -25,-22 1,-7 0,-21 -16,-32 -17,-11 -51,-29 -53,-37 -2,-8 5,-24 7,-35 1,-10 12,-29 12,-40 0,-11 1,-32 -14,-24 -14,7 -17,26 -28,41 -10,15 -35,47 -39,58 -4,10 -36,38 -45,47 -10,9 -49,68 -54,89 -5,20 -51,103 -76,128 -26,25 -92,101 -103,117 -11,15 -72,105 -78,123 -6,17 -21,72 -23,85 -1,13 -8,77 -8,85 0,8 -38,32 -59,23 -21,-9 -87,-37 -97,-50 -9,-13 -51,-31 -44,-21 7,9 33,48 48,60 15,12 83,39 109,32 25,-7 55,-17 72,-10 16,6 16,30 51,35 36,4 115,21 132,17 16,-5 18,-24 12,-26 -6,-2 46,-21 55,-21 10,0 20,-13 21,-18 0,-5 -8,-13 -17,-13 -9,0 -22,-2 -28,-5 -6,-3 -9,-15 -1,-23 7,-8 27,-34 30,-47 2,-14 -8,-19 3,-27 10,-9 21,-24 24,-16 3,8 23,65 29,81 7,16 16,70 16,78 0,8 -3,37 5,37 8,1 49,4 52,0 3,-3 16,-6 19,-6 4,0 29,8 32,-1 3,-9 5,-25 -2,-28 -7,-2 -14,-18 -14,-20 0,-2 -14,-89 -14,-101 -1,-11 -4,-65 -4,-72 0,-8 3,-71 4,-83 0,-11 3,-46 8,-59 5,-12 6,-33 9,-49 2,-15 -10,-28 -14,-44 -3,-16 -15,-37 -12,-51 3,-14 13,-60 22,-65 9,-5 29,-7 46,-5 18,2 43,7 51,5 9,-2 25,-8 32,-13 7,-5 10,-12 16,-17 6,-4 28,-26 13,-32z"/>
 </g>
</svg>
