<?xml version="1.0" encoding="UTF-8"?>
<!DOCTYPE svg PUBLIC "-//W3C//DTD SVG 1.1//EN" "http://www.w3.org/Graphics/SVG/1.1/DTD/svg11.dtd">
<!-- Creator: CorelDRAW X7 -->
<svg xmlns="http://www.w3.org/2000/svg" xml:space="preserve" width="1.27788in" height="1.57162in" version="1.1" style="shape-rendering:geometricPrecision; text-rendering:geometricPrecision; image-rendering:optimizeQuality; fill-rule:evenodd; clip-rule:evenodd"
viewBox="0 0 123 151"
 xmlns:xlink="http://www.w3.org/1999/xlink">
 <defs>
  <style type="text/css">
   <![CDATA[
    .fil0 {fill:#373435;fill-rule:nonzero}
   ]]>
  </style>
 </defs>
 <g id="__x0023_Layer_x0020_1">
  <metadata id="CorelCorpID_0Corel-Layer"/>
  <path class="fil0" d="M6 38c1,-1 1,-2 2,-4 1,-1 2,-4 4,-5 1,-1 8,-5 15,-4 8,0 11,2 12,3 1,1 5,1 5,2 1,1 2,3 3,4 1,2 6,7 7,9 0,2 1,5 0,6 0,1 -1,2 0,2 0,0 5,2 8,3 2,1 13,1 16,2 2,0 5,2 6,1 1,-2 6,-14 7,-19 1,-5 2,-15 3,-19 0,-4 0,-9 0,-10 0,-1 2,-6 3,-7 0,-1 0,-3 1,-1 0,1 0,4 1,6 1,2 2,15 2,18 -1,2 -2,8 -2,12 1,5 -1,9 -2,12 0,3 -3,11 -3,13 0,1 0,0 1,2 2,3 6,11 8,14 1,3 1,5 2,8 0,4 0,7 1,8 1,2 3,4 3,7 0,2 0,3 1,5 2,2 0,4 2,6 2,3 4,4 5,7 0,3 0,9 2,12 2,3 3,9 4,10 0,1 0,3 -1,4 0,1 -4,1 -6,1 -1,0 -4,0 -3,-5 0,-4 0,-10 -2,-13 -1,-3 -3,-8 -5,-10 -2,-3 -8,-12 -10,-14 -1,-2 -5,-8 -7,-10 -1,-1 -3,-3 -4,-1 -1,2 -4,6 -4,8 -1,1 -2,6 -2,7 0,0 2,6 3,8 1,1 2,5 1,7 0,1 0,9 0,11 0,1 1,9 -2,10 -2,0 -9,1 -9,-1 0,-2 2,-3 3,-7 2,-3 1,-11 1,-13 0,-2 -1,-4 -3,-7 -2,-2 -5,-4 -6,-7 0,-4 1,-9 0,-8 -2,1 -3,1 -4,4 -1,2 -4,22 -5,26 -1,4 -2,6 -2,10 0,3 0,9 -2,10 -2,0 -8,0 -10,0 -1,0 -3,-2 -3,-3 1,-1 4,-5 5,-7 1,-1 2,-5 2,-8 0,-2 0,-4 0,-6 1,-2 1,-4 1,-6 1,-3 2,-6 2,-7 0,-2 1,-6 0,-6 -1,0 -3,-1 -6,-1 -3,0 -6,-2 -6,-2 0,1 -2,15 -2,16 0,2 0,10 0,11 0,1 1,7 1,8 1,1 2,8 0,8 -2,1 -11,2 -11,-1 0,-2 0,-4 1,-6 1,-1 1,-2 1,-8 0,-5 0,-12 0,-14 0,-2 -2,-7 -3,-9 0,-2 0,-6 0,-8 -1,-2 -2,-4 -4,-8 -1,-4 -4,-6 -4,-8 0,-3 1,-5 1,-7 1,-2 0,-8 0,-9 0,-1 0,-2 -1,-3 -1,-1 -1,-5 -1,-6 -1,-1 0,-2 -1,-4 -1,-3 0,-1 -2,-4 -2,-4 -3,-7 -3,-6 -1,2 0,6 0,8 0,1 -2,10 -4,11 -2,0 -2,0 -2,-1 0,-2 1,-4 0,-5 -1,0 -3,-4 -4,-7 -1,-2 -1,-5 -1,-6 0,-1 1,-4 3,-5 1,-1 2,-3 3,-4z"/>
 </g>
</svg>
