<?xml version="1.0" encoding="UTF-8"?>
<!DOCTYPE svg PUBLIC "-//W3C//DTD SVG 1.1//EN" "http://www.w3.org/Graphics/SVG/1.1/DTD/svg11.dtd">
<!-- Creator: CorelDRAW X7 -->
<svg xmlns="http://www.w3.org/2000/svg" xml:space="preserve" width="1.23437in" height="0.931429in" version="1.1" style="shape-rendering:geometricPrecision; text-rendering:geometricPrecision; image-rendering:optimizeQuality; fill-rule:evenodd; clip-rule:evenodd"
viewBox="0 0 145 109"
 xmlns:xlink="http://www.w3.org/1999/xlink">
 <defs>
  <style type="text/css">
   <![CDATA[
    .fil0 {fill:#373435;fill-rule:nonzero}
   ]]>
  </style>
 </defs>
 <g id="__x0023_Layer_x0020_1">
  <metadata id="CorelCorpID_0Corel-Layer"/>
  <path class="fil0" d="M16 3c1,-1 4,-4 8,-3 3,1 3,0 7,0 4,0 6,0 8,2 2,1 3,-1 6,1 4,3 8,6 8,10 1,3 2,3 4,7 2,4 -2,11 2,12 4,2 15,7 23,10 7,3 7,5 11,6 5,1 17,9 20,11 3,2 6,4 6,7 1,4 3,15 6,15 4,0 0,-7 8,-5 8,1 14,9 11,10 -4,1 2,6 1,8 -1,3 2,6 -2,6 -3,0 -8,0 -9,-2 -1,-2 -5,-4 -6,-3 -2,1 -6,0 -9,2 -4,2 -4,3 -9,6 -5,2 -11,6 -15,6 -5,0 -8,-1 -7,-5 1,-3 6,-6 5,-7 -2,-1 3,-3 -1,-3 -3,-1 -8,1 -14,2 -5,1 -13,1 -15,1 -2,0 -4,4 -6,6 -1,2 -3,4 -6,5 -2,1 -5,2 -10,1 -4,-1 -6,-4 -5,-6 1,-2 4,-1 4,-3 1,-1 2,-6 0,-6 -2,1 -2,3 -5,3 -3,-1 -9,1 -10,-1 -2,-3 -3,-3 -1,-6 2,-3 3,-4 2,-8 0,-3 1,-3 -3,-7 -4,-4 -8,-6 -8,-11 1,-4 2,-5 -2,-6 -4,-1 -6,1 -9,-3 -4,-5 -5,-11 -4,-16 1,-6 6,-16 7,-19 0,-4 1,-8 4,-11 2,-3 5,-6 5,-6z"/>
 </g>
</svg>
