<?xml version="1.0" encoding="UTF-8"?>
<!DOCTYPE svg PUBLIC "-//W3C//DTD SVG 1.1//EN" "http://www.w3.org/Graphics/SVG/1.1/DTD/svg11.dtd">
<!-- Creator: CorelDRAW X7 -->
<svg xmlns="http://www.w3.org/2000/svg" xml:space="preserve" width="1.89115in" height="1.03672in" version="1.1" style="shape-rendering:geometricPrecision; text-rendering:geometricPrecision; image-rendering:optimizeQuality; fill-rule:evenodd; clip-rule:evenodd"
viewBox="0 0 34672 19007"
 xmlns:xlink="http://www.w3.org/1999/xlink">
 <defs>
  <style type="text/css">
   <![CDATA[
    .fil0 {fill:#E65B24;fill-rule:nonzero}
   ]]>
  </style>
 </defs>
 <g id="Vector_x0020_Graphics">
  <metadata id="CorelCorpID_0Corel-Layer"/>
  <path class="fil0" d="M191 19007c267,-67 455,-294 656,-455 1338,-535 1043,-1981 2061,-2771l1687 -1552c1325,-1205 2704,-2249 4136,-3173 241,-602 897,-749 1298,-1231 416,-375 790,94 1232,-67 281,241 763,-201 1097,134 683,93 415,-883 1098,-776 215,294 723,-81 897,321 348,54 615,-80 910,-134 214,241 469,-201 642,134 242,-255 469,67 723,-134 375,361 857,442 1285,656l-67 67c108,187 188,-107 335,0 576,-54 950,388 1553,321 616,-80 1164,-348 1807,-388 133,334 549,174 776,120 402,-147 817,281 1232,134l2516 254c389,-40 576,295 710,589 53,737 -697,964 -509,1740 -174,242 40,483 54,710l455 388c723,-709 696,-1834 1164,-2704 54,683 415,1312 978,1741l388 66c589,-896 -335,-1659 -388,-2530 -14,-722 -402,-1445 -1045,-1740 -495,-147 -1030,-201 -1485,-455 53,-120 174,-40 268,-67l120 134c201,-200 348,-683 776,-589 94,281 375,361 643,335 709,-281 1218,495 1887,321 442,147 1004,174 1285,576 857,-121 1352,1030 2209,522 120,53 334,-94 508,-134 228,-214 522,-495 589,-844 -334,-736 -1727,-1298 -1097,-2194 -40,-670 -174,-1286 -388,-1875 106,-107 374,-93 320,-321 -829,80 -1364,-522 -2141,-589 -1097,-160 -2276,-121 -3172,-776 -1111,-188 -2129,-656 -3360,-576 -710,-107 -1459,-321 -2128,-321 -228,-54 -522,80 -777,120 -1432,-93 -2730,107 -3949,522 -134,-214 -254,148 -388,-66l-133 133c-469,161 -1112,-67 -1554,188 -106,13 -388,-14 -508,133 -1446,134 -2811,483 -4203,710 -134,-174 227,-308 187,-508 107,-389 67,-710 67,-1045 -40,-134 -187,-321 -67,-455 -375,-562 -736,-1071 -1419,-1218l0 -201c-227,-80 -321,-254 -588,-67 -68,0 -148,14 -188,-66l0 -54 -134 120c-281,14 -575,-187 -843,67 -214,-227 -388,214 -575,67 -242,-13 -188,455 -456,188 -40,80 -121,67 -188,67l54 66c-495,94 -629,549 -896,911 214,241 -201,562 120,776 -228,13 -228,321 -120,455 642,442 66,1165 575,1673 13,215 161,576 388,710 -147,227 281,375 201,656 -709,669 -1914,1070 -2075,2195 -67,428 -669,750 -455,1352 -228,348 -348,736 -388,1164 -388,817 -121,2236 -1419,2329 -468,871 -950,1727 -1419,2597 -508,509 -1794,549 -1298,1606 107,27 254,-53 321,67 -147,201 -214,549 -455,589 27,456 -335,978 67,1352zm7898 -16812l0 0c321,-308 816,-214 1231,-321 375,134 977,308 963,843 -66,0 -147,-27 -187,54l-67 -54c-67,107 -214,40 -321,54 -334,267 -455,616 -388,1044 -321,-94 -536,187 -776,-67 -429,-402 -509,-950 -455,-1553z"/>
 </g>
</svg>
