<?xml version="1.0" encoding="UTF-8"?>
<!DOCTYPE svg PUBLIC "-//W3C//DTD SVG 1.1//EN" "http://www.w3.org/Graphics/SVG/1.1/DTD/svg11.dtd">
<!-- Creator: CorelDRAW X7 -->
<svg xmlns="http://www.w3.org/2000/svg" xml:space="preserve" width="2.96447in" height="2.63843in" version="1.1" style="shape-rendering:geometricPrecision; text-rendering:geometricPrecision; image-rendering:optimizeQuality; fill-rule:evenodd; clip-rule:evenodd"
viewBox="0 0 9918 8827"
 xmlns:xlink="http://www.w3.org/1999/xlink">
 <defs>
  <style type="text/css">
   <![CDATA[
    .fil2 {fill:#FEE8D8}
    .fil1 {fill:#D59F71}
    .fil0 {fill:#BA8658}
    .fil4 {fill:#6D422F}
    .fil3 {fill:#363435}
   ]]>
  </style>
 </defs>
 <g id="Layer_x0020_1">
  <metadata id="CorelCorpID_0Corel-Layer"/>
  <path class="fil0" d="M7423 1080c-334,-928 1167,-1193 1679,-655 136,142 260,329 355,500 108,196 108,396 135,612 26,205 85,399 -50,581 -96,131 -231,210 -392,203 -432,-17 -925,-168 -1264,-435 -279,-220 -388,-501 -475,-830l12 24z"/>
  <path class="fil0" d="M1396 3631c-475,4 -1067,-14 -1281,-523 -92,-217 -84,-469 -27,-714 19,-81 44,-162 72,-241 197,-462 440,-1120 1028,-1085 693,69 1143,900 767,1506 -44,95 -95,189 -148,282 -161,280 -346,550 -480,810l69 -35z"/>
  <path class="fil1" d="M1639 7025c-541,-1351 -783,-2676 -301,-4095 477,-1409 1694,-2238 3132,-2472 1265,-205 2904,231 3892,1066 233,196 517,514 756,873 79,119 153,243 220,372 301,516 405,1139 370,1762 0,208 -207,312 -381,277 -484,-69 -1004,-242 -1482,-118 -112,14 -224,27 -336,39 -900,99 -1808,154 -2696,339 -1057,219 -2082,577 -3142,775 -149,28 -298,52 -448,74l416 1108z"/>
  <path class="fil2" d="M1708 7025c-336,-469 -733,-1093 -264,-1579 447,-464 1032,-597 1656,-640 343,-23 665,58 998,128 149,-671 757,-750 1338,-818 664,-78 935,111 1425,515 577,-426 1321,-637 2037,-619 1579,42 991,2197 320,2938 -498,310 -874,764 -1364,1077 -508,324 -1132,420 -1718,513 -1279,202 -2318,126 -3441,-537 -542,-319 -903,-684 -1229,-1220l242 242z"/>
  <path class="fil3" d="M7444 989c-207,-448 455,-688 777,-765 165,-40 356,-72 520,-16 163,56 295,193 401,323 334,412 781,1710 -110,1766 -111,7 -112,180 0,173 1115,-70 642,-1578 193,-2109 -129,-151 -294,-278 -485,-335 -219,-66 -498,7 -708,69 -430,127 -976,465 -737,982 47,101 196,13 149,-88l0 0z"/>
  <path class="fil3" d="M2042 1417c-174,-65 -317,-210 -472,-309 -182,-115 -380,-168 -594,-137 -457,66 -703,530 -826,924 -125,396 -224,942 -75,1342 154,414 623,478 1009,480 112,1 112,-172 0,-173 -350,-2 -749,-45 -869,-430 -109,-354 0,-830 102,-1173 112,-381 358,-807 807,-809 344,-2 570,340 872,452 105,39 150,-128 46,-167l0 0z"/>
  <path class="fil3" d="M4383 4564c445,-457 1080,-544 1670,-347 521,172 1016,588 1150,1136 163,660 -389,1196 -924,1472 -637,328 -1586,474 -2132,-98 -569,-597 -261,-1628 236,-2163 76,-82 -47,-205 -123,-123 -480,517 -765,1365 -471,2042 303,697 1055,873 1747,765 657,-101 1349,-460 1696,-1044 277,-468 189,-1024 -128,-1447 -655,-871 -2046,-1133 -2844,-316 -78,80 45,203 123,123z"/>
  <path class="fil3" d="M3911 4787c-347,72 -613,-246 -513,-578 146,-488 884,-327 910,150 7,111 180,112 174,0 -36,-643 -913,-857 -1218,-276 -108,206 -69,464 62,649 146,206 391,272 631,222 109,-23 63,-189 -46,-167l0 0z"/>
  <path class="fil3" d="M6469 4150c0,-216 -20,-548 233,-624 159,-48 306,39 394,168 201,296 82,700 -298,733 -110,10 -111,183 0,173 253,-22 458,-144 540,-392 71,-212 8,-469 -123,-644 -141,-188 -363,-264 -588,-196 -326,98 -331,503 -331,782 0,112 173,112 173,0l0 0z"/>
  <path class="fil3" d="M1108 3201c-418,-63 -411,-558 -323,-877 84,-305 667,-920 874,-402 41,103 208,58 167,-46 -251,-630 -963,-188 -1156,257 -180,416 -179,1149 392,1235 109,17 156,-150 46,-167l0 0z"/>
  <path class="fil3" d="M7795 1198c161,-132 188,-337 382,-445 203,-113 474,-74 640,81 155,146 225,371 235,578 5,99 -10,213 -59,301 -37,70 -176,273 -280,215 -97,-54 -185,95 -87,150 224,125 437,-130 534,-308 138,-256 56,-615 -69,-856 -146,-278 -420,-418 -729,-392 -132,12 -268,63 -372,145 -145,112 -182,297 -317,409 -86,71 37,193 122,122l0 0z"/>
  <path class="fil3" d="M3824 4089c-20,-19 -40,-33 -64,-48 -55,-35 -131,10 -130,75 2,128 25,279 87,393 82,151 252,47 270,-88 17,-128 -3,-394 -181,-392 -175,2 -163,305 -126,416 25,76 74,141 150,170 99,37 160,-77 178,-153 36,-154 -30,-426 -222,-440 -287,-21 -219,588 -21,673 217,93 276,-227 276,-373 -1,-81 -31,-151 -79,-216 -53,-71 -162,-126 -216,-22 -52,98 97,186 149,87 -48,92 -112,-17 -71,38 13,18 26,39 35,60 14,33 9,75 7,110 -3,45 -12,95 -31,136 -14,33 -19,15 6,26 -12,-6 -18,-16 -25,-27 -46,-70 -48,-170 -42,-251 1,-20 5,-56 19,-73 -8,10 -32,-2 -9,11 26,14 39,57 47,82 18,54 16,108 3,162 42,12 53,8 32,-11 -7,-11 -14,-23 -19,-35 -10,-22 -10,-42 -10,-65 -2,-47 -4,-95 6,-141 -53,-19 -69,-15 -49,12 4,10 8,21 10,32 8,27 12,55 14,83 2,26 9,74 -9,97 12,-16 72,31 51,-7 -9,-17 -14,-36 -19,-54 -22,-77 -36,-160 -38,-240 -43,25 -87,50 -130,75 10,7 19,14 29,21 82,75 204,-47 122,-123l0 0z"/>
  <path class="fil3" d="M6839 3818c-4,-8 -7,-15 -11,-23 -14,-27 -46,-43 -75,-43 -4,0 -8,0 -12,0 -36,0 -75,26 -83,64 -24,114 -64,268 15,369 90,116 215,23 247,-83 31,-105 26,-243 -12,-346 -43,-114 -170,-154 -249,-46 -73,100 -51,262 -25,374 23,101 112,274 243,199 104,-59 111,-227 109,-331 -1,-118 -36,-268 -175,-281 -47,-4 -87,43 -87,87 0,11 0,23 0,35 0,111 173,111 173,0 0,-12 0,-24 0,-35 -29,29 -57,58 -86,86 -15,-1 -30,-22 -17,-1 5,9 7,21 10,32 9,31 9,63 10,95 0,55 -3,121 -30,170 12,-22 42,-18 58,-6 -9,-6 -11,-14 -17,-23 -15,-27 -21,-61 -28,-91 -15,-64 -19,-136 -2,-199 10,-37 -16,21 -51,-15 -1,0 9,34 12,45 12,52 12,113 5,165 -3,21 -7,43 -16,61 24,-46 62,33 57,-28 -5,-63 10,-126 23,-187 -28,21 -56,42 -84,63 4,0 8,0 12,0 -25,-14 -50,-28 -75,-43 4,8 8,16 12,23 50,100 199,13 149,-87l0 0z"/>
  <path class="fil3" d="M2140 7482c-1062,-1054 -1227,-2788 -879,-4178 174,-696 508,-1357 1035,-1851 480,-450 1075,-759 1714,-912 2432,-579 5306,1222 5698,3720 105,672 -1,1380 -273,2001 -347,789 -1007,1399 -1753,1807 -1565,857 -3710,805 -5161,-261 -135,-98 -261,-209 -381,-326 -80,-78 -203,45 -123,123 2389,2317 7392,1226 7867,-2314 346,-2579 -2012,-4704 -4419,-4995 -1260,-153 -2548,257 -3436,1177 -992,1028 -1249,2660 -1028,4023 126,778 451,1547 1016,2109 80,78 202,-44 123,-123z"/>
  <path class="fil1" d="M4906 6716c524,168 749,-515 756,-915 -49,21 -99,41 -148,61 304,297 662,486 1052,222 92,-62 5,-213 -88,-150 -323,220 -593,48 -841,-194 -55,-53 -147,-14 -148,61 -5,283 -144,874 -537,748 -107,-34 -152,133 -46,167l0 0z"/>
  <path class="fil4" d="M5970 5228c-106,372 -662,741 -919,316 -259,-429 145,-953 612,-837 278,69 387,237 307,521z"/>
  <path class="fil3" d="M5886 5205c-65,200 -231,367 -432,430 -268,82 -424,-222 -392,-448 32,-231 241,-400 468,-410 270,-12 419,177 356,428 -27,108 140,154 167,46 84,-333 -84,-598 -435,-640 -346,-42 -650,195 -723,530 -68,313 139,668 473,679 313,11 596,-294 685,-569 34,-107 -133,-152 -167,-46z"/>
 </g>
</svg>
