<?xml version="1.0" encoding="UTF-8"?>
<!DOCTYPE svg PUBLIC "-//W3C//DTD SVG 1.1//EN" "http://www.w3.org/Graphics/SVG/1.1/DTD/svg11.dtd">
<!-- Creator: CorelDRAW X7 -->
<svg xmlns="http://www.w3.org/2000/svg" xml:space="preserve" width="2.79816in" height="2.60596in" version="1.1" style="shape-rendering:geometricPrecision; text-rendering:geometricPrecision; image-rendering:optimizeQuality; fill-rule:evenodd; clip-rule:evenodd"
viewBox="0 0 2046 1906"
 xmlns:xlink="http://www.w3.org/1999/xlink">
 <defs>
  <style type="text/css">
   <![CDATA[
    .fil5 {fill:#FAF6F1}
    .fil1 {fill:#EAD4BF}
    .fil2 {fill:#B9774C}
    .fil0 {fill:#A59688}
    .fil3 {fill:#715039}
    .fil6 {fill:#7D7468}
    .fil4 {fill:#372E2B}
   ]]>
  </style>
 </defs>
 <g id="Layer_x0020_1">
  <metadata id="CorelCorpID_0Corel-Layer"/>
  <path class="fil0" d="M1887 353c0,7 -29,109 -21,209 0,0 -12,-7 -15,-33 0,0 -2,95 8,166 10,70 -62,153 -62,153 0,0 22,-46 28,-80 0,0 -18,61 -71,80 -53,18 0,-527 0,-527l133 32z"/>
  <path class="fil0" d="M1762 1025c0,0 -18,339 -49,422l0 -46 -58 233 0 -58 -57 174c0,0 88,15 109,86 21,70 21,70 21,70l-205 0c0,0 -94,-165 -97,-285 -4,-119 238,-580 336,-596z"/>
  <path class="fil0" d="M808 1086c9,-1 1,239 -76,337 -77,97 -145,113 -145,113l0 58c0,0 98,-9 132,55 34,64 13,83 13,83l-310 0c0,0 -101,-560 386,-646z"/>
  <path class="fil1" d="M1882 196c9,-49 -6,-50 12,-104 -10,-49 -86,-86 -190,-86 -104,0 -151,-1 -181,155 -30,156 -88,312 -188,335 -99,23 -182,100 -333,96 -152,-5 -354,-147 -560,-12 -206,136 -182,521 -139,636 43,115 -79,312 -79,312l45 338 288 0c0,0 7,-116 -96,-144l7 -130c8,14 16,28 24,42 13,-57 30,-113 52,-167 3,15 7,30 10,45 34,-65 62,-132 83,-202 7,19 15,38 22,57 41,-75 66,-159 75,-244 0,0 71,8 107,45 37,37 224,169 328,193 104,25 149,7 149,7 0,0 10,159 0,232 -9,73 -64,236 -64,236l40 -25 -15 95 319 0c0,0 -7,-113 -90,-147l11 -74c3,-64 14,-128 32,-190 3,12 7,25 10,38 16,-77 37,-153 63,-228 8,13 8,31 -1,43 0,0 41,-2 87,-94 46,-91 83,-266 73,-335 -9,-68 -3,-322 -3,-383 0,-62 13,-141 13,-141 0,0 113,37 146,21 34,-15 31,-33 31,-33l76 -65 -164 -122z"/>
  <path class="fil1" d="M533 537c0,0 -152,41 -309,-20 -157,-61 -157,-171 -132,-223 14,-31 43,-32 67,-16 11,8 23,-6 15,-16 -17,-19 -45,-32 -94,-22 -120,26 -101,237 30,305 132,67 209,91 332,95l91 -103z"/>
  <path class="fil2" d="M2046 318l-164 -122c9,-49 -6,-50 12,-104 -10,-49 -86,-86 -190,-86 -104,0 -151,-1 -181,155 -30,156 -88,312 -188,335 -99,23 -182,100 -333,96 -130,-4 -298,-109 -473,-54 -88,53 -153,142 -160,247 23,-60 78,-101 137,-124 -27,55 -36,119 -50,179 41,-41 73,-101 128,-129 -27,51 -23,106 -23,161 14,-55 55,-96 88,-138 0,46 -19,92 -14,143 18,-60 69,-88 110,-129 -14,60 -37,115 -37,174 19,-50 46,-96 92,-123 -18,59 -5,123 -9,188 14,-92 78,-175 160,-211 -13,78 -32,151 -18,229 9,-92 73,-161 124,-234 -5,73 -9,151 18,225 19,-106 83,-193 138,-285 -9,97 -14,202 23,294 9,-119 55,-225 101,-330 -5,96 37,188 55,284 14,-115 69,-220 87,-335 5,37 32,69 37,106 41,-120 101,-234 119,-363 32,9 83,-27 83,-27 41,98 196,88 221,76 34,-15 31,-33 31,-33l76 -65z"/>
  <path class="fil0" d="M1814 87c0,0 -67,-41 -128,-1 -62,40 -68,165 -49,260 18,95 0,311 -39,411 0,0 2,-99 0,-130 0,0 -47,117 -62,210 -16,93 -13,188 -13,188 0,0 -24,-93 -24,-147 0,0 -34,156 -32,237 1,81 0,152 0,152 0,0 -67,-331 -75,-612 -9,-282 95,-546 144,-612 49,-66 195,-37 195,-37 0,0 56,-6 95,9 40,16 68,77 68,77 0,0 -19,-63 -80,-5z"/>
  <path class="fil3" d="M1614 274c1,-5 55,-139 101,-161 45,-21 82,69 82,69 0,0 -22,25 -60,26 -39,2 -90,42 -123,87l0 -21z"/>
  <path class="fil4" d="M1754 177c0,9 -8,17 -17,17 -10,0 -18,-8 -18,-17 0,-10 8,-17 18,-17 9,0 17,7 17,17z"/>
  <path class="fil3" d="M1887 116c0,0 -16,-18 -35,-13 -18,4 0,81 0,81l30 12 5 -80z"/>
  <path class="fil4" d="M2046 318c0,0 -39,-26 -73,-23 -34,3 -37,23 -37,23l34 65c0,0 -24,21 -58,18 -34,-3 -74,-28 -104,-35 -31,-8 -33,24 -15,29 17,5 24,-9 39,-6 16,3 78,47 137,1 59,-46 77,-72 77,-72z"/>
  <path class="fil5" d="M1392 1739c-14,28 -28,55 -46,78 37,-174 78,-349 69,-527 -19,36 -28,73 -41,110 -14,-74 -10,-147 -37,-216 -9,60 3,124 -18,185 0,17 8,162 -1,231 -9,73 -64,236 -64,236l40 -25 -15 95 45 0c46,-44 76,-102 68,-167z"/>
  <path class="fil5" d="M359 1464c5,-14 10,-28 5,-41 -23,23 -46,45 -69,68 46,-101 101,-206 87,-321 -13,51 -41,97 -45,147 4,-46 4,-92 -10,-138 -22,-73 -42,-147 -52,-221 -6,108 9,208 28,258 43,115 -79,312 -79,312l45 338 15 0c-26,-136 -8,-282 75,-402z"/>
  <path class="fil6" d="M1617 317c-5,142 -74,271 -106,408 5,-27 -4,-55 -4,-82 -40,113 -65,232 -85,350 21,156 45,274 45,274 0,0 1,-71 0,-152 -2,-81 32,-237 32,-237 0,54 24,147 24,147 0,0 -3,-95 13,-188 15,-93 62,-210 62,-210 2,31 0,130 0,130 28,-72 45,-204 46,-308 -5,20 -11,40 -18,61 -9,-65 -5,-129 -9,-193z"/>
  <path class="fil0" d="M1885 76c6,10 9,16 9,16 0,0 -3,-8 -9,-16z"/>
  <path class="fil6" d="M1603 92c-64,87 -83,197 -87,303 13,-37 36,-69 55,-101 0,60 -19,115 -28,170 40,-68 59,-146 85,-223 1,-67 18,-129 58,-155 61,-40 128,1 128,1 2,-2 5,-4 7,-6 -61,-62 -169,-55 -218,11z"/>
  <path class="fil4" d="M1884 171c-3,-3 -7,-5 -12,-5 -9,0 -17,8 -17,17l0 2 27 11 2 -25z"/>
 </g>
</svg>
