<?xml version="1.0" encoding="UTF-8"?>
<!DOCTYPE svg PUBLIC "-//W3C//DTD SVG 1.1//EN" "http://www.w3.org/Graphics/SVG/1.1/DTD/svg11.dtd">
<!-- Creator: CorelDRAW X7 -->
<svg xmlns="http://www.w3.org/2000/svg" xml:space="preserve" width="2.75557in" height="2.03684in" version="1.1" style="shape-rendering:geometricPrecision; text-rendering:geometricPrecision; image-rendering:optimizeQuality; fill-rule:evenodd; clip-rule:evenodd"
viewBox="0 0 1617 1195"
 xmlns:xlink="http://www.w3.org/1999/xlink">
 <defs>
  <style type="text/css">
   <![CDATA[
    .fil2 {fill:#997155}
    .fil1 {fill:#714E36}
    .fil0 {fill:#5B4231}
    .fil6 {fill:#45372D}
    .fil5 {fill:#372C2B}
    .fil4 {fill:#423C39}
    .fil3 {fill:#363230}
   ]]>
  </style>
 </defs>
 <g id="Layer_x0020_1">
  <metadata id="CorelCorpID_0Corel-Layer"/>
  <path class="fil0" d="M484 541c0,0 -54,135 -135,160 -82,25 -209,19 -255,8 -19,-5 -43,-13 -64,-20 -20,-8 -38,15 -26,33 26,40 75,92 162,110 151,29 252,-35 335,-159 83,-124 -17,-132 -17,-132z"/>
  <path class="fil0" d="M597 736c0,0 8,57 -8,97 -16,40 -55,83 -55,83l49 192 108 0c0,0 -13,-53 -55,-61 0,0 -39,-95 -3,-125 36,-30 144,-100 149,-232l-185 46z"/>
  <path class="fil1" d="M1251 130c0,0 -18,123 -72,165 -55,42 -214,101 -356,98 -142,-2 -264,7 -348,145 0,0 -42,224 -65,285 -23,60 -103,108 -103,108l-55 264 118 0c0,0 16,-46 -21,-61 0,0 -2,-134 88,-180 90,-46 233,-215 233,-215 0,0 78,-57 172,-25 94,31 255,86 371,69 115,-17 192,-90 236,-209 0,0 -23,-72 15,-223 37,-151 46,-207 46,-207l-259 -14z"/>
  <path class="fil0" d="M1449 574c0,0 23,94 -34,209 -57,115 -80,212 -80,254 0,43 0,102 0,102 0,0 34,0 39,55l-96 1c0,0 -48,-263 -34,-382 14,-120 205,-239 205,-239z"/>
  <path class="fil2" d="M465 592c-14,70 -39,189 -55,231 -23,60 -103,108 -103,108l-48 230c34,-61 46,-132 49,-201 148,-46 188,-229 157,-368z"/>
  <path class="fil0" d="M1209 734c-100,32 -198,7 -292,-28 -27,-10 -58,-4 -86,5 3,1 7,2 11,3 93,31 252,84 367,69 2,-16 3,-32 0,-49z"/>
  <path class="fil0" d="M1351 489c3,3 9,10 12,6 13,-21 29,-73 54,-65 25,7 10,61 25,78 0,-36 5,-88 22,-157 37,-151 46,-207 46,-207l-197 -11c-1,121 -6,241 38,356z"/>
  <path class="fil1" d="M1248 147c0,0 44,-107 81,-127 36,-21 73,-21 105,-10 31,11 64,-19 83,-7 19,12 55,68 35,144l57 56c0,0 15,55 -28,73 0,0 -15,21 -103,17 -88,-3 -139,-24 -161,-88l-69 -58z"/>
  <path class="fil2" d="M1299 210c-30,17 -72,-24 -78,-93 -7,-69 43,-53 65,-77 22,-24 52,-46 77,-34 0,0 -24,7 -46,56 -21,49 12,130 -18,148z"/>
  <path class="fil3" d="M1599 194c0,0 -38,-20 -59,-15 -21,4 -10,40 -9,49 2,9 33,34 33,34 0,0 -15,28 -53,32 0,0 45,-4 69,-28 0,0 19,-6 29,-22 17,-27 -1,-41 -1,-41l-9 -9z"/>
  <path class="fil4" d="M1571 210c-9,-6 -39,11 -31,18 7,7 22,-4 22,-4 0,0 8,16 -4,33 2,2 5,4 6,5 4,-3 7,-9 10,-17 6,-19 6,-30 -3,-35z"/>
  <path class="fil4" d="M1611 214c1,-13 -24,-13 -21,0 2,7 8,32 -10,52 29,-21 23,-41 23,-41 0,0 8,1 8,-11z"/>
  <path class="fil4" d="M1533 219c19,-17 53,-32 73,-18l-6 -7c0,0 -38,-20 -59,-16 -21,4 -11,40 -10,49 0,1 1,3 2,4 -2,-4 -2,-9 0,-12z"/>
  <path class="fil0" d="M1360 119c0,0 18,-33 47,-45 30,-12 40,-1 46,11 7,12 16,48 16,48 0,0 -49,-12 -76,-13 -26,-1 -33,-1 -33,-1z"/>
  <path class="fil0" d="M1525 72c0,0 -4,5 -6,13 -1,8 33,62 33,62 0,0 7,-43 5,-59 -2,-16 -22,-19 -32,-16z"/>
  <path class="fil5" d="M1422 98c0,6 -5,10 -10,10 -6,0 -10,-4 -10,-10 0,-5 4,-9 10,-9 5,0 10,4 10,9z"/>
  <path class="fil5" d="M1551 98c0,6 -5,10 -10,10 -5,0 -10,-4 -10,-10 0,-5 5,-9 10,-9 5,0 10,4 10,9z"/>
  <path class="fil6" d="M1375 98c0,0 32,-43 55,-42 22,1 23,29 23,29 0,0 -27,-22 -78,13z"/>
  <path class="fil6" d="M1563 96c0,0 -17,-36 -32,-35 -14,1 -12,24 -12,24 0,0 22,-24 44,11z"/>
  <path class="fil1" d="M1095 609c-41,36 -11,80 28,171 39,91 74,415 74,415l114 -1c0,0 11,-31 -19,-45 0,0 -42,-184 -17,-247 33,-81 164,-113 174,-328l-354 35z"/>
 </g>
</svg>
