<?xml version="1.0" encoding="UTF-8"?>
<!DOCTYPE svg PUBLIC "-//W3C//DTD SVG 1.1//EN" "http://www.w3.org/Graphics/SVG/1.1/DTD/svg11.dtd">
<!-- Creator: CorelDRAW X7 -->
<svg xmlns="http://www.w3.org/2000/svg" xml:space="preserve" width="2.93in" height="3.15228in" version="1.1" style="shape-rendering:geometricPrecision; text-rendering:geometricPrecision; image-rendering:optimizeQuality; fill-rule:evenodd; clip-rule:evenodd"
viewBox="0 0 621 668"
 xmlns:xlink="http://www.w3.org/1999/xlink">
 <defs>
  <style type="text/css">
   <![CDATA[
    .fil0 {fill:#373435;fill-rule:nonzero}
   ]]>
  </style>
 </defs>
 <g id="__x0023_Layer_x0020_1">
  <metadata id="CorelCorpID_0Corel-Layer"/>
  <path class="fil0" d="M471 5c8,1 7,2 14,0 7,-3 13,-2 21,-4 8,-2 29,-1 36,3 7,3 27,14 28,19 1,5 3,19 3,19 0,0 45,9 47,18 3,8 -2,16 -2,20 -1,4 5,31 -3,44 -8,14 -17,23 -23,26 -6,4 -12,7 -16,8 -5,1 -14,1 -20,0 -6,-1 -18,-13 -20,-10 -2,3 -5,25 -3,35 2,9 0,31 2,34 3,2 15,33 14,45 0,11 -4,26 -3,29 0,3 5,37 0,52 -5,14 -16,39 -16,48 0,10 -4,58 -9,75 -4,17 -21,105 -21,112 0,6 2,37 9,42 7,4 14,11 16,16 2,5 4,12 1,14 -3,1 -24,7 -32,4 -9,-2 -22,-22 -23,-30 -2,-9 2,-25 0,-31 -3,-6 -5,-8 -6,-18 -1,-11 4,-17 5,-39 1,-21 2,-75 2,-90 0,-15 -7,-24 -7,-18 0,7 -12,80 -12,84 -1,3 5,52 2,59 -2,8 -1,24 -2,32 -1,7 2,27 6,35 3,7 10,19 -10,22 -20,2 -43,6 -38,-19 4,-24 7,-30 6,-40 -1,-10 -4,-9 -2,-21 2,-12 0,-39 2,-63 1,-24 -8,-77 -7,-92 1,-14 5,-9 -9,-18 -14,-9 -59,-22 -72,-22 -14,0 -56,5 -58,12 -3,8 -17,43 -22,54 -5,12 -45,70 -51,78 -7,9 -24,49 -25,61 -1,12 -7,37 0,41 7,4 13,9 17,15 4,7 5,17 2,19 -3,2 -34,6 -40,0 -6,-6 -9,-10 -10,-22 -1,-11 6,-28 6,-41 0,-13 0,-29 -2,-40 -2,-12 -4,-15 -1,-23 3,-8 24,-31 29,-46 5,-14 4,-35 6,-51 2,-16 0,-26 -1,-24 -2,1 -26,35 -28,42 -3,6 -15,10 -21,17 -6,6 -32,35 -36,44 -5,8 -10,10 -11,17 -2,7 -3,19 -7,26 -5,7 -17,22 -20,32 -3,9 -14,38 -16,43 -2,5 -2,13 -13,14 -10,1 -28,-5 -27,-14 1,-8 8,-16 13,-22 5,-6 15,-32 19,-39 4,-8 16,-37 22,-42 6,-4 13,-9 15,-14 2,-4 20,-47 14,-54 -7,-6 -21,-21 -25,-27 -4,-6 -6,-11 1,-9 6,3 16,16 22,19 7,3 12,-5 14,-9 2,-5 21,-61 25,-70 3,-9 19,-70 47,-92 27,-21 68,-43 108,-52 40,-9 73,-13 82,-17 9,-4 27,-19 35,-21 7,-3 21,-15 25,-20 5,-4 4,-30 6,-42 2,-11 15,-58 15,-58l-2 -6c0,0 -9,0 -10,-8 -1,-9 5,-15 8,-22 3,-7 32,-30 37,-29z"/>
 </g>
</svg>
