<?xml version="1.0" encoding="UTF-8"?>
<!DOCTYPE svg PUBLIC "-//W3C//DTD SVG 1.1//EN" "http://www.w3.org/Graphics/SVG/1.1/DTD/svg11.dtd">
<!-- Creator: CorelDRAW X7 -->
<svg xmlns="http://www.w3.org/2000/svg" xml:space="preserve" width="1.27727in" height="1.13152in" version="1.1" style="shape-rendering:geometricPrecision; text-rendering:geometricPrecision; image-rendering:optimizeQuality; fill-rule:evenodd; clip-rule:evenodd"
viewBox="0 0 254 225"
 xmlns:xlink="http://www.w3.org/1999/xlink">
 <defs>
  <style type="text/css">
   <![CDATA[
    .fil0 {fill:#563315;fill-rule:nonzero}
   ]]>
  </style>
 </defs>
 <g id="FreeVector_x0020_Graphics">
  <metadata id="CorelCorpID_0Corel-Layer"/>
  <path class="fil0" d="M89 81c23,3 39,-33 33,-57 -9,-33 -53,-33 -59,7 -3,21 11,48 26,50z"/>
  <path class="fil0" d="M196 38c-3,-52 -59,-31 -60,13 0,11 4,24 9,33 25,44 52,-13 51,-46z"/>
  <path class="fil0" d="M38 142c17,-8 24,-32 21,-52 -2,-15 -10,-25 -21,-28 -15,-5 -32,4 -37,27 -4,24 4,53 22,56 6,0 11,-1 15,-3z"/>
  <path class="fil0" d="M208 169c-57,-81 -117,-77 -170,-12 -2,3 -4,6 -7,9 -11,15 -25,50 -1,56 3,0 6,0 8,0 28,-2 55,-17 80,-14 21,2 57,20 80,17 4,-1 7,-2 10,-4 13,-8 15,-27 7,-41 -2,-4 -5,-8 -7,-11z"/>
  <path class="fil0" d="M224 65c-6,1 -11,6 -16,13 -7,10 -12,24 -11,36 0,14 4,26 11,33 11,12 29,10 41,-16 12,-25 2,-71 -25,-66z"/>
 </g>
</svg>
