<?xml version="1.0" encoding="UTF-8"?>
<!DOCTYPE svg PUBLIC "-//W3C//DTD SVG 1.1//EN" "http://www.w3.org/Graphics/SVG/1.1/DTD/svg11.dtd">
<!-- Creator: CorelDRAW X7 -->
<svg xmlns="http://www.w3.org/2000/svg" xml:space="preserve" width="1.0894in" height="1.46915in" version="1.1" style="shape-rendering:geometricPrecision; text-rendering:geometricPrecision; image-rendering:optimizeQuality; fill-rule:evenodd; clip-rule:evenodd"
viewBox="0 0 208 281"
 xmlns:xlink="http://www.w3.org/1999/xlink">
 <defs>
  <style type="text/css">
   <![CDATA[
    .fil0 {fill:#A84497;fill-rule:nonzero}
   ]]>
  </style>
 </defs>
 <g id="Vector_x0020_Graphics">
  <metadata id="CorelCorpID_0Corel-Layer"/>
  <path class="fil0" d="M136 0c-3,6 1,12 -1,18l-2 -2 1 1 -1 1c1,0 2,0 3,1l-1 1c-2,-1 2,1 2,3 -5,0 -5,5 -8,7l1 -1 2 1c-4,9 -5,20 -13,27 -1,6 -1,12 -4,18 1,-1 1,0 2,1 -1,4 -8,4 -10,9 2,2 1,4 2,5l-4 4c5,6 -6,11 -4,19l1 1 -6 7 1 1 -4 4c1,3 -3,7 -5,10l1 1c-7,2 -3,11 -7,16l1 1c-5,1 -3,7 -6,9 -1,-2 -4,0 -5,0 0,1 -1,2 -2,2 -5,-1 -10,5 -13,10l0 2c0,-1 1,-2 2,-1 5,5 -4,5 -4,9 1,0 2,0 3,1 0,3 -4,5 -1,8 -2,1 -2,3 -3,5l1 -1 1 1 1 -1c-1,2 0,7 2,10 0,2 1,4 -1,5l-3 0c0,0 1,1 1,2l-1 1c-4,-3 -9,5 -12,0l1 -1c-1,0 -2,0 -3,-1 1,-1 1,-2 2,-1 -1,-3 -5,-8 -8,-10 1,0 1,1 2,1 -1,1 -2,1 -3,1l-1 -1 -3 2c-1,-1 -1,-3 -3,-4l-1 1 -1 -1c-2,1 -4,-2 -7,-1 0,1 1,1 1,2l-1 1 -1 -1c0,2 4,4 1,5 -4,-2 -7,2 -11,3 0,2 1,3 -1,4 1,-1 2,0 2,1l-8 9c7,1 11,7 18,7 2,-1 6,-1 8,0 1,-1 1,-2 2,-2l1 2c3,-3 6,2 8,-2l7 4c0,-1 1,-2 1,-2l1 1c2,-3 4,-1 6,0l-1 -1c2,-2 6,1 9,-2 2,4 4,-2 6,2l-1 1c1,1 6,1 5,5l-1 1c1,2 5,1 5,4 -1,1 -2,3 -4,2l2 1 -2 1c1,0 2,1 3,1 -1,2 -1,3 -3,5 3,3 4,4 8,5l-1 1c7,0 14,-4 19,-9 2,-1 0,-3 1,-5l-1 -1 5 -4c4,7 20,7 13,19 2,5 -6,11 0,17 4,3 8,5 14,5 17,-1 -3,-33 18,-23l5 0c0,-1 -1,-3 0,-3l2 0c-1,-8 -5,-13 -12,-16 11,2 13,-8 17,-14 7,3 7,12 11,18 6,5 11,0 17,3l1 -1 1 1 1 -1c2,2 3,0 5,-1 0,-1 2,-2 2,-3l-1 -1 1 -1c-7,-7 -18,-8 -18,-18 -2,-9 -1,-19 -4,-27 2,-2 -3,-7 2,-8 -2,-7 2,-3 1,-10 -1,-4 2,-11 -2,-15l1 -1 -1 -1c0,-1 1,-1 2,-1l-1 -1c2,-1 -1,-3 0,-4 2,-2 -1,-8 3,-8 -1,0 -2,-1 -1,-2l1 -1 -1 -1c-1,-4 1,-7 -1,-12l-1 -1c3,-1 -1,-3 -1,-5 0,0 1,-1 2,-1 -3,-1 -1,-5 -3,-6 2,-1 -1,-3 -1,-5l-1 -1 1 -1 -3 -2c1,0 2,-1 2,-2l-2 -1 2 -1 -2 -1 2 -1c-2,0 -3,-1 -4,-2 1,-1 2,-1 4,-1 -1,0 -2,-1 -3,-1 0,-1 1,-2 1,-2l2 1c-1,-1 0,-2 1,-2l-1 -1 4 -5 -1 -1c0,0 1,-1 1,-2l-1 -1c0,0 1,-1 2,-1l1 1c-1,0 1,-5 2,-7 1,2 3,3 2,5 1,0 2,1 3,2l-1 1 4 3c3,-1 -1,-6 4,-6l1 1c-3,-2 4,-8 2,-13 5,-4 10,-8 13,-14 -3,-5 -5,-7 -7,-12 -5,4 -5,-6 -11,-1l-1 -1c1,-1 2,-2 4,-2 -1,-1 -2,-1 -3,-1 -1,2 -3,0 -4,-1 1,-2 3,-1 4,-1 0,-2 2,-2 3,-3 1,-1 1,0 2,1l1 -1c-2,-1 -3,-1 -4,-2l1 -2c1,0 -4,1 -5,-1l1 -1c-1,1 -2,3 -4,2 -1,-1 -3,-2 -3,-4l2 -2 -4 4c-1,0 -1,-1 -1,-2l1 -1c-1,1 -2,0 -2,-1l1 0 0 -1 -1 0c0,1 0,3 -1,3l-3 -3c-2,-1 -7,2 -8,-2 2,-2 4,-1 7,-1 -3,1 -5,-3 -7,0 -3,-2 1,-4 1,-6 -1,-3 -2,-7 -3,-10 -1,4 -4,11 -10,13 -2,-5 -5,-6 -6,-11l-1 1c-2,-3 -6,-7 -11,-7z"/>
 </g>
</svg>
