<?xml version="1.0" encoding="UTF-8"?>
<!DOCTYPE svg PUBLIC "-//W3C//DTD SVG 1.1//EN" "http://www.w3.org/Graphics/SVG/1.1/DTD/svg11.dtd">
<!-- Creator: CorelDRAW X7 -->
<svg xmlns="http://www.w3.org/2000/svg" xml:space="preserve" width="4.27702in" height="5.21808in" version="1.1" style="shape-rendering:geometricPrecision; text-rendering:geometricPrecision; image-rendering:optimizeQuality; fill-rule:evenodd; clip-rule:evenodd"
viewBox="0 0 8636 10536"
 xmlns:xlink="http://www.w3.org/1999/xlink">
 <defs>
  <style type="text/css">
   <![CDATA[
    .fil0 {fill:#563315;fill-rule:nonzero}
   ]]>
  </style>
 </defs>
 <g id="FreeVector_x0020_Graphics">
  <metadata id="CorelCorpID_0Corel-Layer"/>
  <path class="fil0" d="M2602 1467c48,126 562,295 507,-222 -30,-292 -249,-711 -265,-1095 -280,254 -621,720 -738,1095 -136,437 289,407 496,222z"/>
  <path class="fil0" d="M8223 3957c136,152 407,157 413,-128 7,-380 -406,-963 -591,-1251 -16,344 -146,635 -244,927 -236,703 390,518 422,452z"/>
  <path class="fil0" d="M5080 1476c118,28 253,-58 320,-62 186,-13 597,42 544,-254 -74,-407 -498,-905 -809,-1160 61,372 -120,703 -172,932 -38,165 -127,486 117,544z"/>
  <path class="fil0" d="M1884 3606c52,327 181,657 384,906 586,721 1382,674 1562,-333 100,-561 -35,-1273 -361,-1761 -429,-639 -1268,-715 -1650,-140 -58,87 -106,189 -140,306 -77,268 49,506 140,772 27,80 51,163 65,250z"/>
  <path class="fil0" d="M6208 4146c109,-271 189,-571 215,-868 13,-142 14,-282 0,-419 -25,-257 -101,-500 -245,-705 -336,-481 -783,-574 -1302,-161 -527,421 -549,1638 -267,2227 443,924 1168,998 1599,-74z"/>
  <path class="fil0" d="M6537 7959c-38,-41 -75,-89 -114,-140 -424,-570 -948,-1713 -1777,-1832 -739,-106 -1027,396 -1367,898 -450,670 -740,867 -1362,1375 -33,27 -66,55 -98,84 -416,373 -762,914 -614,1406 108,360 333,568 614,678 567,223 1364,50 1889,-62 439,-94 590,-103 1064,-13 393,75 1068,180 1651,107 196,-25 381,-70 542,-142 283,-129 490,-344 543,-690 62,-411 -230,-836 -543,-1198 -151,-174 -306,-334 -428,-471z"/>
  <path class="fil0" d="M6965 4825c-161,199 -302,432 -406,683 -69,167 -116,356 -136,550 -13,128 -13,259 0,386 40,381 205,736 542,930 47,27 97,50 150,71 1287,487 1504,-1410 1485,-2304 -33,-1359 -988,-1117 -1635,-316z"/>
  <path class="fil0" d="M964 4245c-19,-671 -424,-776 -426,-1422 -368,349 -431,1203 -345,1698 205,-121 490,-197 771,-276z"/>
  <path class="fil0" d="M1819 7701c941,-1 714,-1149 223,-1956 -72,-120 -147,-229 -223,-328 -913,-1184 -2001,-879 -1793,462 159,797 665,1636 1512,1794 103,19 197,28 281,28z"/>
 </g>
</svg>
