<?xml version="1.0" encoding="UTF-8"?>
<!DOCTYPE svg PUBLIC "-//W3C//DTD SVG 1.1//EN" "http://www.w3.org/Graphics/SVG/1.1/DTD/svg11.dtd">
<!-- Creator: CorelDRAW X7 -->
<svg xmlns="http://www.w3.org/2000/svg" xml:space="preserve" width="2.10457in" height="2.95987in" version="1.1" style="shape-rendering:geometricPrecision; text-rendering:geometricPrecision; image-rendering:optimizeQuality; fill-rule:evenodd; clip-rule:evenodd"
viewBox="0 0 601 846"
 xmlns:xlink="http://www.w3.org/1999/xlink">
 <defs>
  <style type="text/css">
   <![CDATA[
    .fil0 {fill:#FEFEFE}
    .fil2 {fill:#4F4F4F}
    .fil1 {fill:#363435}
    .fil3 {fill:#373737}
   ]]>
  </style>
 </defs>
 <g id="Layer_x0020_1">
  <metadata id="CorelCorpID_0Corel-Layer"/>
  <path class="fil0" d="M227 180c-14,-17 -20,-42 -37,-62 -17,-23 -36,-43 -50,-65 -9,-14 -17,-40 -34,-45 -49,-17 -57,82 -63,110 -5,45 -5,85 9,127 8,26 22,80 54,85l121 -150z"/>
  <path class="fil1" d="M231 177c-8,-9 -13,-20 -18,-31 -6,-12 -12,-22 -21,-33 -16,-22 -36,-41 -49,-64 -10,-16 -16,-36 -33,-45 -11,-5 -24,-4 -34,4 -22,16 -27,52 -32,78 -7,39 -12,79 -6,119 3,27 12,55 23,81 8,20 20,44 43,49 6,1 9,-8 3,-9 -19,-4 -29,-24 -36,-40 -8,-17 -13,-36 -19,-55 -12,-44 -8,-90 0,-135 2,-15 5,-30 10,-45 3,-12 9,-28 20,-36 15,-12 31,0 39,13 5,8 9,17 13,25 7,12 15,22 23,32 14,16 29,32 40,50 10,16 15,34 27,48 4,5 10,-1 7,-6l0 0z"/>
  <path class="fil0" d="M400 211c0,-25 6,-42 20,-65 31,-48 82,-110 130,-141 51,79 65,192 17,274 -23,43 -57,80 -108,80l-59 -148z"/>
  <path class="fil1" d="M405 211c0,-22 6,-41 17,-60 11,-18 24,-35 37,-51 26,-34 57,-67 93,-91 -2,-1 -4,-1 -6,-2 38,61 55,137 41,207 -7,34 -22,65 -43,92 -20,28 -49,47 -85,48 -6,0 -6,9 0,9 74,-1 120,-77 135,-141 18,-74 0,-156 -40,-220 -1,-2 -4,-3 -6,-1 -38,25 -70,59 -98,95 -13,17 -26,35 -38,53 -11,20 -17,40 -17,62 0,6 10,6 10,0l0 0z"/>
  <path class="fil2" d="M400 240c-51,39 -68,110 -26,161 36,43 94,42 143,23 -1,-5 -3,-10 -4,-15 -14,-59 -14,-126 -36,-183 -26,-6 -54,-4 -77,14z"/>
  <path class="fil1" d="M397 236c-46,37 -67,101 -36,154 33,56 102,59 157,39 3,-1 4,-3 4,-6 -14,-50 -17,-102 -27,-152 -3,-13 -6,-25 -10,-37 -2,-3 -3,-10 -6,-12 -4,-2 -10,-2 -14,-3 -24,-3 -48,2 -67,17 -5,3 -1,11 4,8 22,-16 48,-19 73,-13 -1,-1 -2,-2 -3,-3 25,63 23,133 41,198 1,-2 2,-4 3,-6 -53,19 -115,17 -147,-35 -30,-48 -8,-109 34,-142 5,-4 -2,-10 -6,-7z"/>
  <path class="fil0" d="M517 424c-49,19 -107,20 -143,-23 -42,-51 -25,-122 26,-161 23,-18 51,-20 77,-14 0,0 -1,0 -1,-1 -34,-75 -126,-96 -201,-90 -91,7 -148,36 -178,124 -25,77 -54,153 -76,230 -23,76 -26,155 19,226 40,65 108,111 184,122 128,17 320,-17 337,-170 8,-83 -21,-163 -44,-243z"/>
  <path class="fil1" d="M516 420c-30,11 -63,16 -94,7 -33,-9 -56,-37 -64,-70 -8,-30 2,-63 20,-88 10,-14 24,-27 40,-35 18,-8 39,-8 57,-3 4,1 8,-2 6,-6 -13,-36 -47,-63 -82,-77 -38,-16 -79,-20 -119,-18 -38,2 -77,9 -111,27 -32,18 -54,47 -69,80 -10,25 -18,51 -26,77 -10,29 -20,58 -30,87 -18,53 -38,106 -43,163 -5,51 5,103 32,148 23,40 56,73 96,96 68,40 152,43 228,32 68,-10 139,-36 180,-94 27,-38 32,-85 29,-131 -4,-66 -27,-129 -44,-192 -2,-6 -11,-3 -9,3 16,56 35,113 42,172 6,45 4,92 -19,132 -36,63 -111,90 -179,101 -80,12 -166,7 -235,-38 -41,-27 -75,-67 -95,-112 -22,-50 -21,-107 -10,-160 6,-28 16,-56 24,-83 10,-29 20,-58 30,-87 10,-29 20,-58 29,-87 7,-20 16,-39 28,-57 21,-31 54,-49 89,-58 40,-11 84,-13 125,-7 51,7 111,34 130,86 2,-2 4,-4 6,-6 -19,-5 -39,-5 -58,1 -18,7 -33,20 -45,34 -22,27 -33,61 -28,95 5,35 30,67 62,80 36,15 75,9 109,-3 6,-2 4,-11 -2,-9z"/>
  <path class="fil3" d="M329 664c48,6 23,57 -3,77 -28,19 -68,31 -102,17 -26,-11 -76,-50 -41,-81 23,-21 117,-15 146,-13z"/>
  <path class="fil1" d="M328 669c17,2 27,12 22,29 -4,16 -15,31 -28,40 -22,15 -48,23 -74,21 -21,-2 -41,-14 -56,-28 -14,-14 -23,-33 -8,-49 11,-11 30,-12 44,-14 33,-3 68,-2 101,1 6,0 6,-9 0,-9 -33,-3 -68,-5 -101,-1 -28,2 -68,13 -61,49 4,17 19,31 32,40 16,12 35,19 55,21 39,2 82,-20 100,-55 5,-10 9,-23 6,-35 -4,-12 -18,-18 -30,-19 -5,-1 -8,8 -2,9z"/>
  <path class="fil1" d="M405 316c-5,6 -6,13 -4,21 1,2 3,4 5,4 13,-1 16,-16 13,-26 -2,-4 -7,-5 -9,-1 -8,12 -5,31 11,35 3,1 6,-2 6,-5 0,-12 2,-24 -7,-34 -1,-2 -4,-2 -5,-1 -11,6 -13,20 -10,31 3,10 13,17 21,8 4,-5 -3,-12 -7,-7 -4,4 -5,-3 -6,-7 -1,-6 0,-13 6,-17 -2,0 -3,0 -5,0 7,7 4,18 4,27 2,-1 4,-3 6,-4 -10,-3 -11,-14 -6,-22 -3,0 -6,0 -8,-1 1,4 2,14 -4,14 1,1 3,2 4,4 -1,-5 -2,-9 2,-13 4,-4 -3,-11 -7,-6l0 0z"/>
  <path class="fil1" d="M162 317c-3,0 -5,0 -8,0 -3,0 -5,2 -5,5 0,5 0,11 0,17 0,1 1,3 2,4 7,3 13,5 20,2 6,-3 9,-9 10,-15 1,-3 1,-7 1,-11 0,-2 0,-8 -3,-10 -8,-3 -16,-3 -24,2 -7,4 -9,11 -9,19 0,5 1,12 7,13 5,2 9,-3 12,-6 4,-6 6,-14 5,-21 -1,-4 -5,-7 -8,-3 -7,6 -7,14 -7,23 3,0 6,0 9,0 0,-3 0,-6 0,-9 0,-6 -9,-6 -9,0 0,3 0,6 0,9 0,6 9,6 9,0 0,-3 0,-6 0,-9 0,-6 -9,-6 -9,0 0,3 0,6 0,9 0,6 9,6 9,0 0,-6 0,-12 4,-17 -2,-1 -5,-2 -8,-3 1,5 0,10 -2,14 -1,2 -2,3 -3,4 -1,1 0,0 1,1 -2,-4 -1,-11 2,-14 4,-5 11,-6 16,-4 -1,-1 -1,-2 -2,-3 1,6 1,13 -2,19 -3,6 -9,5 -14,2 1,1 2,2 2,4 0,-6 0,-12 0,-17 -1,1 -3,3 -4,4 3,0 5,0 8,0 6,0 6,-9 0,-9l0 0z"/>
 </g>
</svg>
