<?xml version="1.0" encoding="UTF-8"?>
<!DOCTYPE svg PUBLIC "-//W3C//DTD SVG 1.1//EN" "http://www.w3.org/Graphics/SVG/1.1/DTD/svg11.dtd">
<!-- Creator: CorelDRAW X7 -->
<svg xmlns="http://www.w3.org/2000/svg" xml:space="preserve" width="2.01713in" height="2.28525in" version="1.1" style="shape-rendering:geometricPrecision; text-rendering:geometricPrecision; image-rendering:optimizeQuality; fill-rule:evenodd; clip-rule:evenodd"
viewBox="0 0 278 315"
 xmlns:xlink="http://www.w3.org/1999/xlink">
 <defs>
  <style type="text/css">
   <![CDATA[
    .fil0 {fill:#373435;fill-rule:nonzero}
   ]]>
  </style>
 </defs>
 <g id="__x0023_Layer_x0020_1">
  <metadata id="CorelCorpID_0Corel-Layer"/>
  <path class="fil0" d="M191 12c2,-1 9,5 14,9 4,3 10,10 12,11 2,1 9,0 12,0 2,0 8,-7 8,-10 1,-2 7,-23 12,-22 5,1 11,22 11,24 -1,3 2,9 2,11 -1,3 -2,4 -2,8 0,3 2,7 2,10 0,2 5,9 4,12 0,4 7,16 8,18 1,3 1,10 0,14 0,5 -4,7 -2,12 3,5 7,17 6,26 -1,8 1,25 -1,32 -2,8 -8,26 -12,31 -3,5 -5,14 -8,23 -3,9 -7,29 -8,35 -1,6 -3,18 0,25 2,7 3,11 6,12 4,0 8,0 10,2 2,3 9,11 4,12 -6,1 -10,0 -14,0 -3,0 2,1 0,3 -1,3 -3,3 -9,4 -7,2 -17,1 -20,-1 -3,-2 -6,-10 -10,-17 -4,-7 -10,-19 -12,-26 -1,-7 -7,-36 -8,-41 -2,-5 2,-7 -5,-7 -6,0 -20,0 -27,-5 -6,-4 -7,-3 -8,-1 0,3 -4,17 -12,22 -8,5 -25,13 -28,15 -3,2 -11,13 -10,18 2,4 10,16 15,17 4,0 8,-2 11,2 3,3 10,8 4,9 -7,1 -11,1 -16,0 -6,-1 -9,0 -14,-5 -5,-5 -18,-21 -20,-24 -2,-3 -8,-7 -5,-11 3,-5 12,-9 15,-14 4,-6 7,-15 5,-19 -2,-3 -4,-8 -8,-6 -3,2 -8,5 -9,7 -1,3 0,6 -4,11 -3,5 -9,15 -14,21 -5,5 -11,11 -19,13 -8,1 -19,0 -22,-1 -3,0 -6,11 -7,16 -1,5 4,8 4,10 -1,3 2,7 -6,9 -8,1 -16,-3 -15,-9 0,-5 4,-18 6,-21 1,-4 -9,-3 -6,-7 2,-4 10,-15 12,-17 3,-2 2,-5 7,-7 5,-2 15,-12 16,-17 0,-5 7,-31 9,-36 1,-5 10,-20 12,-22 1,-2 12,-23 32,-34 21,-11 48,-14 58,-15 9,-2 39,-4 44,-10 5,-6 11,-17 11,-23 0,-5 1,-18 1,-22 0,-3 -4,-13 -6,-16 -2,-3 -1,-8 -3,-12 -2,-3 -4,-10 -5,-14 0,-5 0,-11 2,-12z"/>
 </g>
</svg>
