<?xml version="1.0" encoding="UTF-8"?>
<!DOCTYPE svg PUBLIC "-//W3C//DTD SVG 1.1//EN" "http://www.w3.org/Graphics/SVG/1.1/DTD/svg11.dtd">
<!-- Creator: CorelDRAW X7 -->
<svg xmlns="http://www.w3.org/2000/svg" xml:space="preserve" width="2.61174in" height="2.41359in" version="1.1" style="shape-rendering:geometricPrecision; text-rendering:geometricPrecision; image-rendering:optimizeQuality; fill-rule:evenodd; clip-rule:evenodd"
viewBox="0 0 1874 1732"
 xmlns:xlink="http://www.w3.org/1999/xlink">
 <defs>
  <style type="text/css">
   <![CDATA[
    .fil3 {fill:#685336}
    .fil4 {fill:#3A3A3A}
    .fil0 {fill:#2C2A2A}
    .fil1 {fill:#312F30}
    .fil2 {fill:#282828}
   ]]>
  </style>
 </defs>
 <g id="Layer_x0020_1">
  <metadata id="CorelCorpID_0Corel-Layer"/>
  <path class="fil0" d="M453 895l-2 0c28,100 55,197 55,272 0,48 -11,88 -38,114l-1 1 9 400 175 0 -1 -3c0,0 -3,-16 -15,-33 -13,-18 -34,-38 -69,-46l-1 3 3 -1c0,0 -2,-5 -4,-13 -5,-24 -17,-80 -17,-143 0,-80 19,-171 90,-222l0 0c67,-48 87,-110 87,-172 0,-75 -29,-149 -44,-199l0 -3 -230 43 1 2 2 0 0 2 226 -41 -1 -3 -2 1c14,51 43,125 43,198 0,61 -19,121 -84,168l1 2 -1 -2c-74,53 -93,145 -93,226 0,85 21,157 21,157l0 2 2 0c34,8 54,26 66,43 5,9 9,17 11,22 2,3 2,6 3,7l0 2 1 1 2 -1 0 -2 -167 0 -9 -394 -3 0 2 2c29,-28 40,-69 40,-118 0,-77 -27,-173 -56,-273l-2 1 0 2 0 -2z"/>
  <path class="fil0" d="M1355 908l-3 0 20 571 0 1c0,0 1,2 2,7 5,15 14,49 22,90 3,19 4,34 4,47 0,12 -1,22 -2,28 -1,3 -1,6 -2,7l0 2 0 1 -1 3 161 0 0 -3c0,0 -1,-15 -9,-33 -9,-18 -24,-38 -52,-47l-1 2 2 -1c0,0 -1,-2 -2,-7 -11,-33 -56,-176 -58,-301 0,-8 0,-16 0,-24 0,-132 20,-234 103,-380l2 -4 -189 39 0 2 3 0 0 3 182 -39 0 -2 -2 -1c-84,146 -104,250 -104,382 0,8 0,16 1,24 2,144 60,310 60,310l0 1 1 0c27,9 41,28 49,45 4,8 6,16 8,22 0,3 1,5 1,7 0,2 0,3 0,3l3 -1 0 -2 -156 0 0 2 2 1c0,0 5,-14 5,-39 0,-13 -1,-29 -5,-47 -9,-56 -24,-99 -24,-99l-2 1 2 0 -19 -571 -2 0 0 3 0 -3z"/>
  <path class="fil1" d="M355 682c0,0 -83,157 -119,325 -36,167 -156,146 -209,182 -12,8 -20,20 -25,33 -9,20 18,36 32,19 16,-21 39,-38 70,-40 86,-7 160,-24 213,-218 53,-194 38,-301 38,-301z"/>
  <path class="fil1" d="M1216 978l19 570c0,0 14,43 24,99 10,55 0,85 0,85l156 0c0,0 -5,-62 -60,-78 0,0 -58,-166 -60,-309 -2,-144 43,-293 158,-405l-237 38z"/>
  <path class="fil2" d="M453 895c47,163 89,318 16,388l10 396 169 0c0,0 -13,-60 -83,-76 0,0 -78,-275 71,-381 145,-105 68,-276 42,-369l-225 42z"/>
  <path class="fil2" d="M1355 908l19 571c0,0 14,43 24,98 10,55 0,85 0,85l156 0c0,0 -5,-61 -60,-78 0,0 -58,-165 -60,-309 -2,-144 15,-250 103,-405l-182 38z"/>
  <path class="fil3" d="M1355 1654c0,0 -58,-166 -60,-309 0,-25 1,-49 3,-74 -11,17 -16,35 -20,52 -9,67 34,134 5,196 -10,20 -28,26 -48,23l0 6c0,0 14,43 24,99 10,55 0,85 0,85l156 0c0,0 -5,-62 -60,-78z"/>
  <path class="fil3" d="M569 1270c-77,91 -89,224 -51,334 19,-5 33,-3 47,-1 -11,-47 -62,-286 71,-381 23,-16 40,-34 53,-54 -37,39 -89,60 -120,102z"/>
  <path class="fil3" d="M1554 1662c0,0 -5,-61 -60,-78 0,0 -19,-55 -36,-129 -39,-43 -27,-101 -46,-151 -12,-44 -20,-88 -48,-127l10 302c0,0 14,43 24,98 10,55 0,85 0,85l156 0z"/>
  <path class="fil1" d="M1727 182c0,0 10,-128 -185,-124 -71,1 -134,92 -163,223 -29,131 -26,243 -150,275 -125,32 -687,3 -786,45 -99,41 -189,239 -167,402 23,163 29,262 -59,333l-52 396 169 0c0,0 -3,-61 -70,-77 0,0 0,0 -1,-1 -2,-22 -26,-272 132,-375 2,-1 4,-3 6,-4 173,-105 214,-252 205,-345 0,0 166,-42 268,16 102,57 173,137 367,134 195,-3 326,-144 333,-422 6,-278 6,-278 6,-278l88 -25c0,0 110,32 165,-26l41 -22 -147 -125z"/>
  <path class="fil0" d="M200 1658l0 3c20,-4 43,-5 64,-5l2 0 0 -3c-1,-5 -3,-26 -3,-56 0,-85 17,-241 133,-316l-2 -4c-127,55 -199,201 -199,339 0,14 1,29 2,43l1 2 2 0 0 -3 2 0c-1,-14 -2,-28 -2,-42 0,-136 71,-280 196,-335l-1 -2 -1 -2c-119,77 -136,235 -136,320 0,30 2,51 3,57l2 0 0 -3c-20,0 -44,1 -64,5l1 2 2 0 -2 0z"/>
  <path class="fil3" d="M200 1658c20,-3 43,-4 63,-4 -2,-22 -26,-272 132,-375 -139,61 -212,231 -195,379z"/>
  <path class="fil1" d="M1509 65c0,0 -20,-30 -34,-36 -13,-7 -143,105 -140,121 2,12 82,63 120,87 9,5 21,-1 21,-11l5 -144 28 -17z"/>
  <path class="fil1" d="M1542 58c0,0 13,-55 35,-58 22,-3 101,128 101,128l-136 -70z"/>
  <path class="fil3" d="M1610 169c0,8 -7,14 -14,14 -8,0 -14,-6 -14,-14 0,-7 6,-14 14,-14 7,0 14,7 14,14z"/>
  <path class="fil3" d="M1668 355c0,0 110,32 165,-26l27 -15c-17,-18 -32,-31 -32,-31l-150 -72c0,0 -61,43 -151,29 0,0 9,82 141,88l-88 52 88 -25z"/>
  <path class="fil3" d="M1534 157c0,0 10,-30 44,-36 33,-5 46,18 46,18l-90 18z"/>
  <path class="fil3" d="M1476 226l5 -144 16 -10c0,0 -12,-27 -22,-22 -10,4 1,176 1,176z"/>
  <path class="fil2" d="M1750 363c0,0 41,-10 60,-40 0,0 -24,-34 -11,-51 13,-18 75,35 75,35 0,0 -54,62 -124,56z"/>
  <path class="fil4" d="M1859 322c-12,-28 -53,-25 -47,-15 6,11 17,9 17,9 -1,10 -17,27 -32,41 27,-8 48,-24 62,-35z"/>
 </g>
</svg>
