<?xml version="1.0" encoding="UTF-8"?>
<!DOCTYPE svg PUBLIC "-//W3C//DTD SVG 1.1//EN" "http://www.w3.org/Graphics/SVG/1.1/DTD/svg11.dtd">
<!-- Creator: CorelDRAW X7 -->
<svg xmlns="http://www.w3.org/2000/svg" xml:space="preserve" width="1.17282in" height="1.05057in" version="1.1" style="shape-rendering:geometricPrecision; text-rendering:geometricPrecision; image-rendering:optimizeQuality; fill-rule:evenodd; clip-rule:evenodd"
viewBox="0 0 170 152"
 xmlns:xlink="http://www.w3.org/1999/xlink">
 <defs>
  <style type="text/css">
   <![CDATA[
    .fil0 {fill:#3B210F;fill-rule:nonzero}
   ]]>
  </style>
 </defs>
 <g id="_2">
  <metadata id="CorelCorpID_0Corel-Layer"/>
  <path class="fil0" d="M66 62c10,-3 14,-18 10,-34 -5,-16 -19,-31 -29,-28 -10,3 -12,23 -8,38 5,16 17,26 27,24z"/>
  <path class="fil0" d="M35 93c9,-5 10,-20 3,-34 -8,-13 -23,-25 -32,-20 -9,5 -8,24 0,38 7,13 20,21 29,16z"/>
  <path class="fil0" d="M85 58c-14,0 -24,14 -35,30 -17,25 -28,56 -10,62 24,9 24,-16 44,-15 0,0 0,0 1,0 0,0 1,0 1,0 20,-1 20,24 44,15 19,-6 6,-39 -13,-64 -10,-14 -20,-28 -32,-28z"/>
  <path class="fil0" d="M104 62c10,2 22,-8 26,-24 5,-15 3,-35 -8,-38 -10,-3 -24,12 -28,28 -5,16 0,31 10,34z"/>
  <path class="fil0" d="M164 39c-9,-5 -25,7 -32,20 -7,14 -6,29 3,34 8,5 21,-3 29,-16 7,-14 8,-33 0,-38z"/>
 </g>
</svg>
