<?xml version="1.0" encoding="UTF-8"?>
<!DOCTYPE svg PUBLIC "-//W3C//DTD SVG 1.1//EN" "http://www.w3.org/Graphics/SVG/1.1/DTD/svg11.dtd">
<!-- Creator: CorelDRAW X7 -->
<svg xmlns="http://www.w3.org/2000/svg" xml:space="preserve" width="1.13935in" height="0.997in" version="1.1" style="shape-rendering:geometricPrecision; text-rendering:geometricPrecision; image-rendering:optimizeQuality; fill-rule:evenodd; clip-rule:evenodd"
viewBox="0 0 202 176"
 xmlns:xlink="http://www.w3.org/1999/xlink">
 <defs>
  <style type="text/css">
   <![CDATA[
    .fil0 {fill:#373435;fill-rule:nonzero}
   ]]>
  </style>
 </defs>
 <g id="__x0023_Layer_x0020_1">
  <metadata id="CorelCorpID_0Corel-Layer"/>
  <path class="fil0" d="M26 14c5,-2 20,1 24,0 4,-1 12,-12 15,-10 4,1 10,16 9,19 -1,3 8,14 8,18 0,4 16,3 21,5 5,2 18,2 21,0 4,-2 14,-2 16,-4 2,-2 4,-10 2,-12 -2,-2 -3,-11 3,-10 6,1 15,11 16,19 1,9 2,12 5,16 2,3 22,31 23,37 2,6 11,32 12,35 1,3 1,16 0,20 -1,4 -3,12 -7,13 -4,2 -21,1 -16,-7 6,-9 6,-6 0,-7 -7,-1 -16,-8 -17,-9 -2,0 -5,4 -11,4 -6,1 -14,-1 -12,-4 3,-3 7,-5 7,-6 0,-2 -7,-2 -10,-2 -4,1 -10,7 -16,9 -6,2 -13,0 -13,3 -1,2 -2,19 -4,23 -1,4 -9,10 -14,11 -5,2 -18,3 -18,-1 0,-4 2,-4 2,-7 1,-2 1,-10 1,-14 1,-4 6,-3 1,-4 -5,-1 -13,-2 -15,-3 -2,-2 0,3 0,6 0,3 -2,7 -5,9 -4,2 -13,4 -16,3 -2,-1 -7,-4 -4,-7 3,-4 6,-5 6,-8 0,-3 -2,-9 -6,-15 -5,-5 -11,-11 -11,-20 0,-10 3,-13 3,-16 1,-2 -5,-6 -9,-8 -4,-2 -15,-11 -16,-18 0,-7 0,-16 0,-20 0,-4 -3,-19 0,-22 3,-4 6,-5 6,-8 0,-4 -3,-21 3,-22 6,-1 16,14 16,14z"/>
 </g>
</svg>
