<?xml version="1.0" encoding="UTF-8"?>
<!DOCTYPE svg PUBLIC "-//W3C//DTD SVG 1.1//EN" "http://www.w3.org/Graphics/SVG/1.1/DTD/svg11.dtd">
<!-- Creator: CorelDRAW X7 -->
<svg xmlns="http://www.w3.org/2000/svg" xml:space="preserve" width="1.8699in" height="2.38143in" version="1.1" style="shape-rendering:geometricPrecision; text-rendering:geometricPrecision; image-rendering:optimizeQuality; fill-rule:evenodd; clip-rule:evenodd"
viewBox="0 0 193 245"
 xmlns:xlink="http://www.w3.org/1999/xlink">
 <defs>
  <style type="text/css">
   <![CDATA[
    .fil1 {fill:#EDE7E3}
    .fil0 {fill:#B5B0B0}
    .fil4 {fill:#7FBAE5}
    .fil2 {fill:#4E4E4A}
    .fil3 {fill:#373734}
    .fil5 {fill:#2A2B2A}
   ]]>
  </style>
 </defs>
 <g id="Layer_x0020_1">
  <metadata id="CorelCorpID_0Corel-Layer"/>
  <path class="fil0" d="M43 158c0,0 11,16 10,23 -1,7 -3,11 -3,11l9 37 18 0c0,0 0,-9 -8,-9l-4 -30c0,0 14,-13 14,-36 0,-24 -38,-29 -36,4z"/>
  <path class="fil0" d="M133 149c0,0 3,70 13,89l20 0c0,0 1,-13 -8,-13 0,0 -2,-22 -3,-37 0,-15 14,-57 14,-57 0,0 -28,14 -36,18z"/>
  <path class="fil1" d="M158 24c11,-1 30,9 31,16 1,7 -3,12 -3,12 0,0 1,10 -1,18 -1,7 -11,49 -15,59 -5,9 -20,32 -35,41 -16,8 -84,-23 -84,-23 0,0 -2,19 -17,34 -14,15 -14,15 -14,15 0,0 -4,33 -4,35 0,0 10,3 9,14l-25 0c0,0 11,-64 9,-79 -3,-16 -6,-38 -6,-38 0,0 18,-39 21,-43 3,-3 57,-9 64,-11 6,-2 32,-40 41,-43 9,-3 29,-7 29,-7z"/>
  <path class="fil1" d="M21 91l-4 -11 2 2 0 -6 2 2 -2 -7 2 2 -1 -7 3 3 -3 -8 4 3 0 -7 2 4 0 -4 2 2 0 -7 1 5 2 -8 0 4 4 -7 0 4 2 -2 3 -4 0 4 3 -4 0 2 4 -4 -1 4 5 -1 -1 3 4 -3 -1 4 4 -3 0 4 4 -2 -1 2 5 0 -2 2 6 1 -3 2 5 0 -3 2 5 2 -2 2 5 3 -4 0 6 3 -3 0 4 4 -4 0 4 2 -5 0 3 3c0,0 -45,5 -53,9l-3 6z"/>
  <path class="fil1" d="M95 157c0,0 4,69 15,88l26 0c0,0 2,-12 -11,-12 0,0 -6,-23 -7,-38 -1,-15 5,-32 5,-32 0,0 -18,-11 -28,-6z"/>
  <path class="fil2" d="M187 36c0,0 0,-18 -2,-27 -2,-9 -2,-9 -4,-9 -2,0 -7,10 -12,18 -4,8 -10,7 -10,7l28 11z"/>
  <path class="fil3" d="M181 36c0,0 3,-15 3,-23 0,-7 -3,-10 -3,-11 0,0 -8,9 -10,16 -1,8 -7,11 -7,11l17 7z"/>
  <path class="fil2" d="M111 111c10,6 17,16 24,25 4,-9 5,-20 1,-29 -4,-9 -14,-14 -17,-24 5,5 16,8 21,2 -4,0 -7,-3 -9,-7 -2,-6 -1,-13 1,-20 2,-9 -2,-19 0,-28 10,-3 26,-6 26,-6 11,-1 30,9 31,16 1,7 -3,12 -3,12 0,0 1,10 -1,18 -1,7 -11,49 -15,59 -5,9 -20,32 -35,41 -2,1 -6,1 -10,1 8,-20 -3,-43 -14,-60z"/>
  <polygon class="fil4" points="94,111 95,111 94,111 94,111 94,111 95,111 94,111 95,111 94,111 94,111 94,111 95,111 "/>
  <path class="fil2" d="M88 93c0,1 -1,3 1,5 1,0 1,0 1,-2 0,6 0,12 3,18 0,-1 2,-2 1,-3 4,9 1,19 -1,28 2,-12 -4,-23 -7,-34 -4,-12 3,-21 4,-32 1,0 1,-1 2,-1 0,6 -2,13 -4,21z"/>
  <path class="fil2" d="M7 119c5,-11 15,-31 17,-34 3,-3 45,-7 59,-10 -8,19 -14,40 0,60 3,4 2,11 -2,16 2,0 3,0 4,0 0,1 -1,2 -2,2 0,3 2,1 3,2 -2,2 -2,4 -1,6 -16,-6 -31,-13 -34,-14 -2,-10 -6,-19 -13,-27 -3,-4 -11,-7 -15,-1 -3,4 -2,10 -1,15 -1,-1 -2,-2 -3,-3 -1,2 -1,4 -1,6 -1,-1 -2,-2 -2,-4 -1,3 -3,7 -4,10 -5,-7 -6,-16 -5,-24z"/>
  <path class="fil2" d="M29 69l1 2c0,0 3,-2 5,-4 1,1 3,3 3,3 0,0 3,-2 6,-3 0,2 -1,7 -1,7 0,0 4,-1 6,-1 -1,1 -3,4 -3,4 0,0 3,0 4,3 -1,0 -6,2 -7,3 -10,1 -15,1 -19,2l-2 4c0,-8 7,-20 7,-20z"/>
  <path class="fil3" d="M158 24c0,0 7,4 8,8 0,0 -4,0 -5,2 -2,2 6,1 8,6 2,4 3,14 0,19 -3,4 -11,13 -11,13 0,0 -7,-5 -10,-1 -3,5 7,16 16,13 0,0 8,6 15,5 7,-1 5,-6 5,-6 0,0 7,-4 9,-10 0,0 -12,-20 -16,-20 -4,-1 -5,-11 -5,-15 1,-4 7,-6 5,-7 -2,-1 -7,1 -7,1 0,0 -3,-8 -12,-8z"/>
  <path class="fil5" d="M158 54c0,1 1,3 2,3 2,0 3,-2 3,-3 0,-1 -1,-2 -3,-2 -1,0 -2,1 -2,2z"/>
  <path class="fil5" d="M181 52c0,1 1,2 2,2 1,0 2,-1 2,-2 0,-1 -1,-2 -2,-2 -1,0 -2,1 -2,2z"/>
  <path class="fil5" d="M183 67c3,0 7,3 8,5 1,1 -3,5 -7,8 0,0 -5,-2 -6,-4 -2,-2 -4,-9 5,-9z"/>
  <path class="fil3" d="M187 73c2,0 4,0 3,1l0 0c-1,1 -3,2 -4,5 0,0 0,0 0,0 0,-2 0,-5 1,-6z"/>
  <path class="fil3" d="M183 73c2,1 1,5 1,7 0,0 0,0 -1,0 0,-1 0,-3 -1,-3 0,0 -2,0 -3,-1 0,-1 2,-3 4,-3z"/>
  <path class="fil5" d="M184 83c0,0 -1,2 -6,2 -5,0 -14,-3 -17,-5 -2,-2 -6,-1 -6,0 0,2 4,2 6,2 3,0 9,5 17,4 7,0 6,-3 6,-3z"/>
  <path class="fil2" d="M152 28c0,0 -6,-7 -8,-11 -3,-3 -9,-9 -13,-8 -3,1 -2,14 -3,18 -1,4 0,18 4,22l19 -19 1 -2z"/>
  <path class="fil3" d="M152 31c0,0 -6,-5 -8,-9 -3,-4 -9,-10 -11,-11 -3,-1 -2,7 -2,12 -1,6 0,18 7,22 0,0 5,-13 14,-14z"/>
 </g>
</svg>
