<?xml version="1.0" encoding="UTF-8"?>
<!DOCTYPE svg PUBLIC "-//W3C//DTD SVG 1.1//EN" "http://www.w3.org/Graphics/SVG/1.1/DTD/svg11.dtd">
<!-- Creator: CorelDRAW X7 -->
<svg xmlns="http://www.w3.org/2000/svg" xml:space="preserve" width="2.85224in" height="1.89352in" version="1.1" style="shape-rendering:geometricPrecision; text-rendering:geometricPrecision; image-rendering:optimizeQuality; fill-rule:evenodd; clip-rule:evenodd"
viewBox="0 0 2596 1724"
 xmlns:xlink="http://www.w3.org/1999/xlink">
 <defs>
  <style type="text/css">
   <![CDATA[
    .fil2 {fill:#ECEBEC}
    .fil3 {fill:#D4A8C2}
    .fil1 {fill:#D4D3D6}
    .fil0 {fill:#C0C0C2}
    .fil5 {fill:#494240}
    .fil4 {fill:#363230}
   ]]>
  </style>
 </defs>
 <g id="Layer_x0020_1">
  <metadata id="CorelCorpID_0Corel-Layer"/>
  <path class="fil0" d="M457 924c-35,114 -122,240 -122,240l-107 411 175 0c0,0 15,-53 -45,-80 0,0 57,-186 198,-365 140,-179 312,-287 312,-287l-411 81z"/>
  <path class="fil0" d="M1696 1027l-61 535 44 116 131 0c0,0 15,-53 -45,-80 0,0 -17,-139 60,-353 75,-207 163,-298 163,-298l-292 80z"/>
  <path class="fil1" d="M2180 210c0,0 -19,-97 -119,-167 -100,-69 -71,18 -62,57 8,39 14,155 14,155 0,0 81,32 167,-45z"/>
  <path class="fil2" d="M2376 251c0,0 -107,-75 -236,-82 -130,-6 -236,101 -476,215 -240,114 -371,131 -371,131 0,0 -558,-95 -741,-83 -183,12 -289,310 -289,310 0,0 0,216 -34,331 -35,114 -123,239 -123,239l-106 412 175 0c0,0 15,-54 -46,-80 0,0 58,-187 198,-366 141,-179 313,-286 313,-286 0,0 277,205 415,219 137,14 609,33 791,-81 183,-115 210,-459 210,-459 0,0 99,8 202,-25 0,0 159,73 190,42 30,-30 0,-42 0,-42 60,-3 108,-30 148,-72 0,0 -25,-115 -121,-180 -95,-65 -99,-143 -99,-143z"/>
  <path class="fil2" d="M82 1148c-6,13 -25,5 -21,-8 67,-204 161,-475 214,-560 89,-143 277,-148 277,-148l-174 202c0,0 -53,-4 -115,108 -34,61 -115,249 -181,406z"/>
  <path class="fil2" d="M1948 319c0,0 -85,-86 -88,-235 -3,-150 65,-60 100,-25 34,35 148,120 148,120 0,0 -23,105 -160,140z"/>
  <path class="fil3" d="M1956 286c0,0 -68,-68 -71,-187 -2,-118 53,-47 80,-19 31,80 21,147 -9,206z"/>
  <path class="fil4" d="M2239 340c0,0 15,-17 41,-21 27,-4 42,21 42,21l-83 0z"/>
  <path class="fil1" d="M2453 648c-91,11 -142,-80 -216,-108 -17,-12 -57,-23 -52,-18 35,101 163,157 275,134 -2,-3 -5,-6 -7,-8z"/>
  <path class="fil1" d="M2317 437c-52,28 -126,17 -166,-29 0,40 23,69 57,86 69,34 166,46 211,-23 23,-33 26,-74 14,-113 -21,-21 -34,-41 -43,-59 -6,56 -22,110 -73,138z"/>
  <path class="fil3" d="M2478 395c15,23 24,53 10,76 -29,46 -114,103 -51,160 7,6 15,10 23,14 55,-6 99,-32 136,-71 0,0 -25,-113 -118,-179z"/>
  <path class="fil4" d="M2596 574c0,0 -43,39 -82,57 -39,19 -119,28 -184,-19 -65,-48 -143,-95 -143,-95 0,0 72,1 103,38 30,37 93,84 143,85 50,2 78,-20 78,-20 0,0 -14,-43 -4,-74 9,-30 89,28 89,28z"/>
  <path class="fil5" d="M2558 605c4,-7 6,-13 5,-18 -3,-14 -42,-25 -46,-11 -4,13 20,20 20,20 -3,12 -11,24 -18,33 14,-7 27,-16 39,-24z"/>
  <path class="fil1" d="M864 956c-81,-11 -156,1 -222,38 29,21 283,204 413,217 137,14 609,33 791,-81 76,-47 124,-133 156,-218 -154,93 -328,145 -510,159 -217,11 -411,-80 -628,-115z"/>
  <path class="fil1" d="M1875 408c0,124 89,203 187,264 22,1 107,2 194,-26 -147,-40 -314,-97 -381,-238z"/>
  <path class="fil2" d="M1460 1073l-61 534 44 117 131 0c0,0 15,-54 -45,-80 0,0 10,-178 122,-376 126,-222 277,-324 277,-324l-468 129z"/>
 </g>
</svg>
