<?xml version="1.0" encoding="UTF-8"?>
<!DOCTYPE svg PUBLIC "-//W3C//DTD SVG 1.1//EN" "http://www.w3.org/Graphics/SVG/1.1/DTD/svg11.dtd">
<!-- Creator: CorelDRAW X7 -->
<svg xmlns="http://www.w3.org/2000/svg" xml:space="preserve" width="2.66107in" height="2.19708in" version="1.1" style="shape-rendering:geometricPrecision; text-rendering:geometricPrecision; image-rendering:optimizeQuality; fill-rule:evenodd; clip-rule:evenodd"
viewBox="0 0 997 823"
 xmlns:xlink="http://www.w3.org/1999/xlink">
 <defs>
  <style type="text/css">
   <![CDATA[
    .fil0 {fill:#FEFEFE}
    .fil1 {fill:#363435}
   ]]>
  </style>
 </defs>
 <g id="Layer_x0020_1">
  <metadata id="CorelCorpID_0Corel-Layer"/>
  <path class="fil0" d="M296 153c-45,-15 -80,-41 -120,-65 -36,-22 -77,-27 -117,-34 -14,-2 -35,-8 -47,3 -13,11 -7,34 -4,48 8,41 21,85 41,122 20,38 50,66 88,85 8,-15 12,-31 21,-46 10,-15 20,-29 31,-44 19,-25 47,-40 75,-53 8,-4 27,-17 36,-13l-4 -3z"/>
  <path class="fil1" d="M32 53c-7,0 -14,1 -19,5 -11,10 -6,31 -4,45l1 2c10,48 23,89 41,121 19,36 48,65 85,84 3,-6 5,-12 7,-17 4,-9 8,-19 13,-28 10,-15 20,-28 30,-41l2 -3c20,-26 49,-41 75,-54 2,-1 4,-2 6,-3 7,-4 16,-9 23,-10 -33,-12 -61,-29 -90,-47 -9,-6 -18,-12 -27,-18 -34,-20 -73,-26 -112,-32l-5 -1c-1,0 -3,-1 -5,-1 -6,-1 -14,-2 -21,-2zm106 262l-2 -1c-39,-19 -69,-48 -89,-86 -17,-32 -31,-74 -41,-122l0 -2c-3,-15 -8,-37 5,-49 11,-9 29,-6 43,-4 2,1 4,1 5,1l5 1c39,6 78,12 113,33 9,6 19,12 27,17 30,19 58,37 93,48l-1 2c2,0 3,1 5,1l-2 4c-6,-3 -19,4 -28,9 -2,2 -5,3 -6,4 -26,12 -55,27 -74,53l-2 2c-10,14 -20,26 -29,41 -6,9 -9,18 -13,27 -3,6 -5,13 -8,19l-1 2z"/>
  <path class="fil0" d="M864 314c109,-29 138,-153 123,-251 -2,-16 -6,-39 -24,-43 -15,-3 -34,6 -49,9 -43,9 -76,13 -114,38 -37,25 -75,50 -86,95 25,8 59,24 78,44 21,22 30,51 46,76 7,10 14,21 18,33l8 -1z"/>
  <path class="fil1" d="M854 316c-4,-12 -11,-24 -17,-33 -6,-9 -11,-19 -16,-28 -9,-17 -17,-34 -31,-48 -23,-24 -64,-39 -77,-43l-1 -1 0 -1c11,-46 49,-71 86,-96l1 -1c33,-22 63,-28 97,-34 6,-1 12,-2 18,-4 4,-1 9,-2 14,-4 11,-3 24,-7 35,-5 20,5 24,29 26,44 15,103 -17,225 -125,254l-1 -4c106,-28 137,-149 122,-249 -2,-16 -5,-37 -22,-41 -11,-2 -23,2 -34,5 -5,2 -10,3 -15,4 -6,1 -11,2 -17,4 -34,6 -64,12 -96,34l-1 0c-36,24 -73,49 -84,92 14,5 54,19 77,43 14,14 23,32 31,49 5,9 10,19 16,28 6,9 13,21 18,33l-4 2z"/>
  <path class="fil0" d="M832 739c-83,62 -199,73 -299,74 -105,0 -213,-4 -303,-62 -67,-43 -107,-109 -120,-186 -31,-198 51,-400 264,-431 151,-23 380,-8 466,140 42,81 54,182 58,271 4,74 0,144 -66,194z"/>
  <path class="fil1" d="M827 731c-86,62 -198,72 -301,72 -110,1 -229,-7 -318,-80 -77,-63 -97,-162 -94,-257 3,-83 29,-167 84,-230 58,-67 140,-91 226,-98 83,-8 169,-3 248,23 40,12 78,32 110,58 37,31 58,71 73,117 18,53 26,109 31,165 3,48 8,98 -4,145 -8,35 -29,64 -57,86 -10,8 4,22 14,14 79,-62 73,-161 65,-252 -7,-94 -24,-201 -92,-272 -55,-58 -136,-86 -213,-98 -78,-13 -160,-11 -239,2 -80,14 -150,58 -198,124 -47,65 -66,147 -68,226 -1,90 20,180 84,246 73,75 182,95 283,100 125,5 270,2 376,-75 10,-7 0,-24 -10,-16z"/>
  <path class="fil1" d="M433 715c-12,-23 15,-34 33,-35 18,-2 50,12 26,29 -16,11 -43,17 -59,4 -3,-3 3,-5 7,-6 8,-3 16,-1 18,7 3,-4 6,-8 9,-12 -10,0 -20,0 -31,0 1,7 2,13 3,19 14,-5 27,0 41,4 10,3 17,-9 10,-16 -7,-7 -14,-14 -17,-23 -4,4 -8,8 -12,12 9,4 13,12 16,20 5,12 23,7 19,-5 -6,-15 -14,-27 -30,-34 -7,-2 -14,6 -12,12 5,13 12,22 22,32 3,-6 6,-11 9,-17 -17,-4 -33,-10 -51,-3 -10,3 -9,19 2,19 11,0 21,0 31,0 7,0 11,-7 10,-13 -5,-15 -17,-23 -33,-23 -12,1 -29,8 -31,22 -3,17 16,26 29,30 18,5 39,-1 55,-9 13,-7 27,-21 24,-37 -4,-19 -24,-29 -42,-31 -36,-4 -86,22 -63,64 6,11 23,1 17,-10l0 0z"/>
  <path class="fil1" d="M445 692c-4,-2 -4,-2 -1,1 3,-3 7,-5 10,-7 3,0 6,5 7,7 6,9 12,17 21,23 4,3 10,1 13,-3 10,-17 4,-31 -14,-38 1,6 2,12 3,18 10,-5 10,5 9,12 -3,13 16,18 19,6 5,-26 -12,-48 -38,-35 -8,5 -5,15 2,18 6,2 5,4 2,9 5,-1 9,-2 14,-3 -15,-10 -18,-33 -38,-33 -20,1 -45,30 -19,42 12,5 21,-12 10,-17l0 0z"/>
  <path class="fil1" d="M660 486c61,-55 121,81 48,87 -20,2 -41,-8 -55,-23 -19,-20 -10,-46 7,-64 9,-9 -5,-23 -13,-14 -26,27 -32,60 -9,90 18,24 54,36 84,29 38,-10 47,-56 33,-88 -18,-44 -71,-65 -108,-31 -10,9 4,22 13,14z"/>
  <path class="fil1" d="M268 486c60,-55 120,81 47,87 -20,2 -41,-8 -54,-23 -19,-20 -11,-46 7,-64 8,-9 -5,-23 -14,-14 -25,27 -32,60 -9,90 19,24 55,36 84,29 38,-10 47,-56 34,-88 -18,-44 -72,-65 -109,-31 -9,9 5,22 14,14z"/>
  <path class="fil1" d="M684 476c-5,-5 -8,-6 -15,-7 -4,0 -8,3 -9,8 -4,16 -5,32 -5,49 0,4 3,8 8,9 28,8 60,-1 60,-35 0,-29 -27,-49 -54,-38 -33,15 -50,81 -16,103 11,8 29,1 33,-13 4,-18 -10,-30 -26,-36 -5,-1 -11,2 -12,7 -8,29 22,49 48,51 4,1 9,-3 10,-7 3,-16 -1,-29 -9,-42 -6,-9 -22,-3 -18,7 5,14 12,25 24,33 7,5 14,-2 15,-8 0,-7 3,-13 3,-20 -6,1 -12,2 -19,3 1,5 3,9 5,14 4,9 18,4 18,-5 0,-6 0,-13 0,-19 0,-9 -10,-13 -16,-7 -5,5 -11,10 -16,15 -5,6 -2,17 7,17 34,-3 33,-38 33,-64 -5,3 -10,5 -15,8 26,19 5,60 -21,68 -12,4 -7,21 6,19 5,-1 10,-3 15,-4 12,-2 7,-21 -5,-19 -5,1 -10,3 -16,4 2,6 4,12 6,19 43,-14 64,-74 25,-104 -6,-4 -14,2 -14,9 0,13 5,43 -14,44 2,6 5,11 7,17 5,-5 10,-10 15,-16 -5,-2 -11,-4 -16,-6 0,6 0,13 0,19 6,-2 12,-3 18,-5 -2,-3 -2,-6 -3,-9 -2,-12 -18,-8 -19,2 -1,7 -3,13 -4,20 5,-3 10,-6 15,-9 -8,-5 -12,-13 -15,-21 -6,3 -12,5 -18,7 6,10 9,17 7,28 3,-2 6,-5 9,-7 -12,-1 -34,-11 -29,-27 -4,3 -8,5 -12,7 4,2 12,4 12,10 1,3 -2,4 -4,3 -12,-5 -8,-27 -6,-36 3,-15 15,-42 35,-33 10,5 13,18 11,27 -4,17 -23,14 -35,10 2,3 4,7 7,10 0,-15 0,-30 3,-44 -3,2 -6,4 -9,7 -2,0 -4,-5 1,1 8,10 21,-4 14,-14l0 0z"/>
  <path class="fil1" d="M307 470c-28,-5 -38,20 -38,44 0,17 15,26 30,23 36,-7 56,-51 18,-70 -11,-6 -20,10 -10,17 20,13 39,40 10,55 -32,17 -39,-32 -38,-52 0,-8 -11,-14 -16,-7 -22,28 -22,61 7,84 29,22 48,6 62,-22 3,-6 0,-15 -8,-14 -13,0 -26,3 -39,4 1,6 2,12 3,19 16,-4 33,-5 48,-13 -4,-2 -9,-4 -14,-6 5,13 1,23 -13,27 -8,3 -9,17 0,19 18,3 35,-4 42,-20 6,-11 -9,-21 -16,-10 -4,6 -10,9 -16,12 -11,6 -2,22 10,17 9,-5 17,-10 22,-19 -5,-3 -11,-7 -16,-10 -4,8 -11,13 -20,11 0,6 0,13 0,19 22,-7 35,-28 26,-51 -3,-6 -8,-9 -14,-6 -14,8 -30,8 -45,11 -10,2 -8,19 3,19 13,-1 26,-3 39,-4 -3,-5 -6,-10 -9,-15 -2,6 -5,12 -9,17 -7,12 -18,4 -27,-3 -18,-14 -16,-35 -3,-52 -5,-3 -11,-5 -16,-7 -1,22 1,48 19,64 13,12 31,13 46,6 16,-7 25,-21 27,-38 2,-23 -18,-41 -35,-52 -3,5 -7,11 -10,17 19,9 13,22 -3,31 -4,2 -10,5 -15,2 -2,-1 0,-7 0,-9 1,-7 2,-21 13,-19 12,2 17,-17 5,-19l0 0z"/>
  <path class="fil1" d="M701 472c-21,-14 -40,19 -45,35 -3,11 0,22 10,29 10,7 24,6 35,11 12,4 17,-15 6,-19 -7,-2 -34,-3 -32,-14 1,-5 12,-28 16,-25 11,7 20,-10 10,-17l0 0z"/>
  <path class="fil1" d="M332 530c0,4 2,9 3,14 0,7 8,12 14,8 18,-12 6,-40 -14,-41 -5,0 -9,5 -9,10 -1,2 -1,4 -2,6 0,5 5,10 10,10 6,0 9,-5 10,-10 0,-2 1,-4 1,-6 -3,3 -6,6 -10,9 -2,0 2,1 0,0 0,0 2,2 1,1 1,1 1,1 2,3 0,-1 1,2 1,2 -1,-2 0,0 0,1 0,-3 -1,1 0,-1 -1,2 0,0 1,-1 4,3 9,6 14,9 0,-5 -2,-10 -2,-14 -1,-13 -20,-13 -20,0l0 0z"/>
  <path class="fil1" d="M687 538c-3,2 -6,3 -9,5 -3,3 -4,7 -4,11 -1,5 4,10 9,10 6,0 10,-5 10,-10 0,-1 0,-1 0,1 0,-1 0,0 -1,1 1,-1 -2,2 0,1 -2,2 -1,1 0,0 1,0 0,0 -1,1 0,-1 1,-1 1,-1 5,-2 9,-7 7,-12 -1,-5 -7,-8 -12,-7l0 0z"/>
  <path class="fil1" d="M383 811c52,-3 89,-45 89,-96 0,-13 -20,-13 -20,0 0,40 -27,74 -69,76 -12,1 -12,21 0,20l0 0z"/>
  <path class="fil1" d="M528 803c-19,-1 -33,-21 -42,-36 -5,-8 -14,-34 -5,-42 9,-8 -5,-22 -14,-13 -16,14 -8,45 0,61 11,24 34,47 61,50 13,0 12,-19 0,-20l0 0z"/>
  <path class="fil1" d="M372 791c-18,-3 -25,-23 -29,-38 -7,-23 2,-46 14,-65 25,-44 68,-68 118,-64 45,3 88,22 112,62 20,32 29,90 -2,117 -10,9 4,22 13,14 38,-33 29,-96 8,-136 -27,-54 -87,-75 -143,-77 -58,-3 -108,39 -132,90 -15,33 -14,108 35,115 13,2 18,-17 6,-18l0 0z"/>
  <path class="fil1" d="M284 144c-16,3 -42,-23 -53,-32 -18,-14 -36,-28 -56,-40 -26,-15 -55,-24 -85,-30 -24,-4 -52,-13 -75,-1 -21,10 -15,41 -12,59 6,35 10,70 23,103 17,44 55,102 103,115 12,3 17,-16 5,-19 -45,-12 -79,-72 -94,-113 -10,-27 -13,-56 -17,-84 -2,-12 -8,-33 0,-43 9,-11 35,-3 46,-1 51,10 95,25 136,58 21,17 54,52 84,47 13,-3 8,-21 -5,-19l0 0z"/>
  <path class="fil1" d="M730 164c-7,-10 23,-36 30,-42 11,-12 24,-23 37,-33 26,-21 60,-38 92,-47 30,-8 60,-7 88,-24 -5,-1 -9,-2 -14,-3 14,18 11,46 12,68 3,34 5,68 -6,101 -17,47 -56,104 -107,115 -12,3 -7,21 6,19 57,-13 97,-73 118,-125 14,-34 13,-73 9,-110 -3,-25 1,-56 -15,-78 -3,-4 -8,-7 -13,-4 -34,21 -76,18 -112,33 -27,11 -54,27 -78,46 -18,15 -35,31 -50,49 -10,11 -24,29 -14,45 7,10 24,0 17,-10l0 0z"/>
  <path class="fil1" d="M783 200c-3,-39 42,-66 68,-88 40,-32 73,-71 125,-83 12,-3 7,-22 -5,-19 -55,13 -91,54 -133,88 -31,26 -78,56 -74,102 1,12 21,12 19,0l0 0z"/>
  <path class="fil1" d="M216 193c-5,-6 -7,-13 -10,-19 -6,-10 -13,-20 -20,-28 -15,-19 -33,-35 -51,-50 -34,-29 -77,-48 -122,-47 -12,0 -12,19 0,19 43,-1 81,19 113,45 15,13 29,27 42,41 8,9 15,19 21,29 4,7 6,14 10,20 7,10 24,0 17,-10l0 0z"/>
 </g>
</svg>
