<?xml version="1.0" encoding="UTF-8"?>
<!DOCTYPE svg PUBLIC "-//W3C//DTD SVG 1.1//EN" "http://www.w3.org/Graphics/SVG/1.1/DTD/svg11.dtd">
<!-- Creator: CorelDRAW X7 -->
<svg xmlns="http://www.w3.org/2000/svg" xml:space="preserve" width="1.70513in" height="1.51609in" version="1.1" style="shape-rendering:geometricPrecision; text-rendering:geometricPrecision; image-rendering:optimizeQuality; fill-rule:evenodd; clip-rule:evenodd"
viewBox="0 0 320 285"
 xmlns:xlink="http://www.w3.org/1999/xlink">
 <defs>
  <style type="text/css">
   <![CDATA[
    .fil0 {fill:#373435;fill-rule:nonzero}
   ]]>
  </style>
 </defs>
 <g id="__x0023_Layer_x0020_1">
  <metadata id="CorelCorpID_0Corel-Layer"/>
  <path class="fil0" d="M262 4c-2,0 -2,2 -3,0 -1,-2 -2,-5 -4,-3 -3,1 -7,11 -8,14 -1,3 -3,14 -5,16 -2,1 -8,8 -12,10 -4,1 -27,14 -32,16 -5,2 -14,7 -19,10 -5,4 -21,9 -26,7 -6,-2 -53,-20 -66,-19 -13,1 -30,7 -32,10 -3,3 -10,12 -13,11 -3,-1 -8,-8 -11,-12 -3,-3 -9,-9 -9,-5 -1,3 1,17 5,21 4,4 11,8 10,10 0,3 -9,19 -10,24 -1,5 -4,12 -5,18 -2,6 -5,22 -6,30 -2,7 -5,19 -8,21 -3,2 -4,12 -4,14 0,2 -2,22 -4,26 -1,3 1,15 0,18 0,3 5,8 8,8 2,1 14,-1 13,-6 -1,-4 -4,-5 -5,-7 0,-2 -1,-16 0,-20 1,-3 2,-13 5,-17 2,-4 9,-17 12,-21 2,-4 18,-24 21,-27 2,-4 16,-15 19,-12 3,2 14,15 21,19 6,4 5,15 3,23 -2,8 -6,17 -5,20 1,2 9,23 10,27 2,5 7,10 10,12 3,1 14,1 15,-2 0,-3 0,-5 -3,-7 -4,-2 -11,-12 -11,-17 -1,-6 -1,-16 1,-22 2,-5 8,-13 9,-16 1,-3 2,0 6,3 3,2 4,0 4,4 0,5 -1,32 -2,38 -1,7 -5,26 -5,28 0,3 1,6 1,9 0,3 0,17 1,20 1,2 9,7 13,7 4,-1 12,-4 11,-8 -1,-5 -4,-4 -6,-10 -1,-6 0,-20 2,-31 1,-11 3,-36 7,-40 4,-4 6,-4 15,-5 10,0 32,-12 35,-12 4,0 8,-2 8,4 0,7 1,37 3,45 1,8 4,30 7,38 3,9 8,12 13,10 5,-1 13,-6 11,-9 -2,-4 -3,-2 -6,-6 -3,-4 -8,-15 -7,-21 0,-7 -1,-20 2,-32 3,-12 1,-23 1,-29 0,-6 4,-22 4,-27 0,-5 0,-13 0,-21 0,-8 -2,-11 1,-16 4,-5 11,-11 17,-12 6,-2 7,-4 13,0 6,5 11,11 21,12 11,1 17,-2 22,-5 4,-3 6,-7 5,-13 -2,-7 -8,-38 -28,-51 -20,-13 -23,-13 -24,-15 -2,-2 -5,-9 -5,-15 1,-5 0,-13 -1,-12z"/>
 </g>
</svg>
