<?xml version="1.0" encoding="UTF-8"?>
<!DOCTYPE svg PUBLIC "-//W3C//DTD SVG 1.1//EN" "http://www.w3.org/Graphics/SVG/1.1/DTD/svg11.dtd">
<!-- Creator: CorelDRAW X7 -->
<svg xmlns="http://www.w3.org/2000/svg" xml:space="preserve" width="1.42392in" height="1.37795in" version="1.1" style="shape-rendering:geometricPrecision; text-rendering:geometricPrecision; image-rendering:optimizeQuality; fill-rule:evenodd; clip-rule:evenodd"
viewBox="0 0 553 535"
 xmlns:xlink="http://www.w3.org/1999/xlink">
 <defs>
  <style type="text/css">
   <![CDATA[
    .fil0 {fill:#3B210F;fill-rule:nonzero}
   ]]>
  </style>
 </defs>
 <g id="_2">
  <metadata id="CorelCorpID_0Corel-Layer"/>
  <path class="fil0" d="M552 423c-2,-18 -68,-65 -68,-78 0,-11 5,-88 0,-122 14,-11 33,-24 42,-23 -1,-16 0,-7 0,-22 -14,-16 -47,9 -66,24 -57,-12 -214,-20 -237,-46 -28,-31 -98,-148 -104,-155 -7,-8 -15,41 -15,41 0,0 -57,26 -57,31 0,5 -3,19 -3,19 0,0 -49,32 -44,36 6,4 30,28 42,28 12,0 52,-30 55,-26 3,5 33,53 33,64 -1,11 -7,70 2,90 10,21 36,47 36,61 0,15 0,190 0,190l40 0c0,0 2,-170 7,-178 5,-7 39,14 92,-33 40,-36 114,11 119,44 6,33 93,65 93,75 0,10 3,92 3,92l30 0c0,0 1,-95 0,-112z"/>
 </g>
</svg>
