<?xml version="1.0" encoding="UTF-8"?>
<!DOCTYPE svg PUBLIC "-//W3C//DTD SVG 1.1//EN" "http://www.w3.org/Graphics/SVG/1.1/DTD/svg11.dtd">
<!-- Creator: CorelDRAW X7 -->
<svg xmlns="http://www.w3.org/2000/svg" xml:space="preserve" width="0.793173in" height="0.804984in" version="1.1" style="shape-rendering:geometricPrecision; text-rendering:geometricPrecision; image-rendering:optimizeQuality; fill-rule:evenodd; clip-rule:evenodd"
viewBox="0 0 225 228"
 xmlns:xlink="http://www.w3.org/1999/xlink">
 <defs>
  <style type="text/css">
   <![CDATA[
    .fil0 {fill:#282929;fill-rule:nonzero}
   ]]>
  </style>
 </defs>
 <g id="__x0023_Layer_x0020_2">
  <metadata id="CorelCorpID_0Corel-Layer"/>
  <path class="fil0" d="M56 94c11,21 8,44 -6,51 -14,6 -34,-5 -44,-26 -10,-21 -7,-43 7,-50 13,-7 33,4 43,25z"/>
  <path class="fil0" d="M184 57c-6,26 -25,43 -42,39 -17,-4 -26,-28 -20,-53 6,-26 25,-43 42,-39 17,4 26,28 20,53z"/>
  <path class="fil0" d="M111 40c6,26 -1,50 -17,54 -17,4 -35,-13 -42,-39 -6,-26 2,-50 18,-54 16,-5 34,13 41,39z"/>
  <path class="fil0" d="M223 128c-5,22 -22,37 -38,33 -16,-4 -25,-25 -19,-46 5,-22 22,-37 38,-33 16,4 24,25 19,46z"/>
  <path class="fil0" d="M38 185c0,0 30,-68 73,-68 0,0 56,-2 71,85 2,13 -6,25 -19,26 -16,1 -30,-8 -46,-9 -22,-2 -65,23 -80,-5 -3,-8 -2,-22 1,-29z"/>
 </g>
</svg>
