<?xml version="1.0" encoding="UTF-8"?>
<!DOCTYPE svg PUBLIC "-//W3C//DTD SVG 1.1//EN" "http://www.w3.org/Graphics/SVG/1.1/DTD/svg11.dtd">
<!-- Creator: CorelDRAW X7 -->
<svg xmlns="http://www.w3.org/2000/svg" xml:space="preserve" width="1.14676in" height="1.0061in" version="1.1" style="shape-rendering:geometricPrecision; text-rendering:geometricPrecision; image-rendering:optimizeQuality; fill-rule:evenodd; clip-rule:evenodd"
viewBox="0 0 331 290"
 xmlns:xlink="http://www.w3.org/1999/xlink">
 <defs>
  <style type="text/css">
   <![CDATA[
    .fil0 {fill:#373435;fill-rule:nonzero}
   ]]>
  </style>
 </defs>
 <g id="__x0023_Layer_x0020_1">
  <metadata id="CorelCorpID_0Corel-Layer"/>
  <path class="fil0" d="M106 89c4,2 8,7 23,6 15,0 29,4 42,4 14,0 35,-7 57,-5 22,2 31,11 38,5 7,-7 21,-31 22,-38 1,-8 0,-37 2,-40 3,-3 8,-5 12,0 3,6 8,33 5,43 -3,10 -22,49 -24,54 -3,4 -4,19 5,24 9,6 28,25 30,34 1,10 -9,27 -7,35 2,7 15,18 18,29 4,11 1,24 -3,31 -3,7 -13,10 -19,12 -6,1 -15,-3 -12,-7 2,-4 6,-6 4,-11 -3,-5 -9,-10 -9,-6 -1,4 -11,10 -14,15 -2,5 -6,12 -15,12 -8,0 -33,-3 -32,-7 1,-4 7,-3 4,-9 -3,-6 -6,2 -9,-10 -3,-12 1,-11 -6,-16 -6,-4 -8,-10 -18,-4 -10,6 -13,8 -21,5 -8,-4 -10,-1 -16,-2 -7,-1 -18,1 -20,7 -2,5 -1,9 -8,11 -7,2 -8,9 -9,13 -2,4 0,10 -4,12 -5,2 -5,4 -16,3 -11,0 -20,4 -22,-4 -1,-7 2,-6 -2,-11 -4,-5 1,-7 -5,-16 -7,-9 -9,-11 -7,-17 2,-7 4,-12 -1,-19 -5,-7 -16,-18 -16,-31 0,-12 2,-15 0,-22 -2,-6 -1,-15 -4,-24 -2,-8 -6,-21 -9,-22 -3,0 -15,-4 -18,-10 -4,-6 -6,-10 -11,-14 -6,-3 -6,-11 -6,-17 0,-5 4,-2 0,-12 -3,-10 -6,-12 -5,-20 2,-7 4,-9 2,-16 -1,-6 -2,-6 2,-13 4,-7 6,-21 9,-21 4,0 22,8 25,13 3,4 0,11 6,12 6,1 8,1 12,-1 5,-2 10,1 13,-4 4,-4 20,-23 24,-20 4,4 4,13 7,19 3,6 11,14 8,19 -4,5 -3,9 -2,14 2,6 5,18 3,22 -3,4 -3,15 -3,15z"/>
 </g>
</svg>
