<?xml version="1.0" encoding="UTF-8"?>
<!DOCTYPE svg PUBLIC "-//W3C//DTD SVG 1.1//EN" "http://www.w3.org/Graphics/SVG/1.1/DTD/svg11.dtd">
<!-- Creator: CorelDRAW X7 -->
<svg xmlns="http://www.w3.org/2000/svg" xml:space="preserve" width="3.03409in" height="2.73624in" version="1.1" style="shape-rendering:geometricPrecision; text-rendering:geometricPrecision; image-rendering:optimizeQuality; fill-rule:evenodd; clip-rule:evenodd"
viewBox="0 0 2773 2501"
 xmlns:xlink="http://www.w3.org/1999/xlink">
 <defs>
  <style type="text/css">
   <![CDATA[
    .fil0 {fill:#373435;fill-rule:nonzero}
   ]]>
  </style>
 </defs>
 <g id="__x0023_Layer_x0020_1">
  <metadata id="CorelCorpID_0Corel-Layer"/>
  <path class="fil0" d="M2712 154c-20,-5 -108,-104 -139,-130 -30,-25 -95,-25 -111,-18 0,0 -95,-10 -143,-4 -49,5 -70,31 -107,41 -37,9 -97,65 -127,99 -31,35 -61,51 -98,81 -37,30 -7,86 -37,98 -30,11 -65,92 -109,104 -44,12 -37,32 -74,28 -37,-5 -183,67 -208,72 -26,4 -338,-31 -542,-65 -204,-35 -267,2 -480,55 -213,54 -252,301 -250,387 2,86 42,267 25,364 -16,97 -60,181 -95,269 -34,88 -83,106 -132,134 -48,28 -16,120 -27,181 -12,60 -40,208 -44,264 -5,55 -19,97 -12,132 7,35 69,30 104,25 35,-4 121,-7 128,-14 7,-7 -7,-62 -17,-90 -9,-28 -39,-19 -51,-37 -11,-19 12,-174 26,-209 14,-34 90,-108 106,-145 11,-24 55,-65 104,-109 -13,66 -32,147 -50,171 -30,39 -49,137 32,35 57,-72 163,-266 184,-365 67,-66 77,-92 90,-112 13,-24 16,-7 18,23 2,30 -28,81 -62,118 -35,37 -93,83 -98,132 -4,49 12,53 33,100 20,46 9,55 27,95 19,39 35,95 63,143 28,49 16,51 30,72 14,21 74,14 107,14 32,0 102,0 125,-7 23,-7 -33,-79 -49,-93 -16,-14 -76,-7 -90,-25 -14,-19 -58,-139 -58,-174 0,-35 93,-162 178,-236 86,-74 111,-158 123,-186 12,-27 171,75 246,100 74,25 363,107 426,118 62,12 11,14 28,123 16,109 18,246 25,322 7,76 2,113 0,155 -2,42 30,35 51,88 21,54 23,130 35,167 11,37 113,51 153,51 39,0 125,12 153,0 27,-12 -19,-81 -44,-111 -26,-30 -58,-28 -95,-40 -37,-11 -61,-162 -54,-208 7,-46 17,-253 14,-299 -2,-46 23,-222 37,-250 14,-28 17,118 25,206 9,88 3,162 3,192 0,30 -11,54 12,61 23,7 14,39 18,71 5,33 23,91 35,109 12,19 21,58 39,72 19,14 112,0 144,0 32,0 67,0 97,-14 30,-14 -32,-67 -64,-95 -33,-28 -54,-11 -79,-23 -26,-12 -49,-134 -42,-167 7,-32 39,-259 44,-289 5,-30 44,-260 81,-302 37,-41 116,-259 141,-319 26,-60 42,-72 49,-109 7,-37 14,-125 30,-121 16,5 33,-6 65,-20 33,-14 42,-65 40,-79 -2,-14 11,7 37,0 25,-7 16,-81 13,-123 -2,-42 3,-127 14,-148 12,-21 0,0 28,16 28,16 23,-9 37,-25 14,-17 -25,-82 -35,-102 -9,-21 33,-63 56,-112 23,-48 -35,-109 -56,-113z"/>
 </g>
</svg>
