<?xml version="1.0" encoding="UTF-8"?>
<!DOCTYPE svg PUBLIC "-//W3C//DTD SVG 1.1//EN" "http://www.w3.org/Graphics/SVG/1.1/DTD/svg11.dtd">
<!-- Creator: CorelDRAW X7 -->
<svg xmlns="http://www.w3.org/2000/svg" xml:space="preserve" width="2.46357in" height="2.33567in" version="1.1" style="shape-rendering:geometricPrecision; text-rendering:geometricPrecision; image-rendering:optimizeQuality; fill-rule:evenodd; clip-rule:evenodd"
viewBox="0 0 1101 1044"
 xmlns:xlink="http://www.w3.org/1999/xlink">
 <defs>
  <style type="text/css">
   <![CDATA[
    .fil0 {fill:#373435;fill-rule:nonzero}
   ]]>
  </style>
 </defs>
 <g id="__x0023_Layer_x0020_1">
  <metadata id="CorelCorpID_0Corel-Layer"/>
  <path class="fil0" d="M523 6c8,17 22,45 33,59 11,14 43,86 46,100 2,14 11,41 5,55 -5,14 -8,16 -10,33 -2,18 1,46 -5,64 -6,19 -13,18 -11,34 1,16 -6,43 -5,63 1,19 -1,46 10,55 12,10 36,50 53,64 16,14 40,23 76,19 36,-5 135,-18 187,1 52,18 81,11 141,83 0,0 45,39 48,55 4,16 -5,14 7,29 13,15 -21,75 -21,75 -10,28 -9,26 -12,49 -4,23 14,36 -33,42 -46,6 -37,-5 -88,0 -51,5 -27,13 -67,15 -41,2 -46,1 -71,0 -26,-1 -30,28 -62,35 -31,7 -46,-6 -66,0 -20,6 -14,25 -64,32 -50,7 -66,13 -67,26 -1,13 -31,39 -56,42 -24,2 -48,-12 -48,-21 0,-10 4,-30 19,-41 15,-10 30,-9 22,-24 -8,-15 -15,-27 -41,-41 -27,-14 -49,-18 -62,-13 -13,6 -31,13 -55,29 -23,17 -82,43 -128,60 -47,16 -73,30 -96,40 -22,11 -24,11 -38,11 -14,0 -30,5 -42,8 -11,2 -19,-11 -22,-21 -2,-11 7,-19 34,-30 27,-12 45,-18 67,-33 22,-15 24,-39 55,-47 31,-9 38,-4 56,-21 17,-18 29,-18 36,-35 7,-18 33,-96 51,-112 17,-15 26,-20 33,-61 7,-41 1,-56 18,-90 16,-33 25,-36 30,-69 5,-33 17,-76 16,-109 -1,-34 -7,-90 -6,-107 1,-17 11,-21 0,-42 -10,-21 -21,-32 -21,-50 0,-17 10,-52 18,-75 8,-23 31,-59 47,-81 17,-22 25,-65 39,-61 14,5 14,19 9,32 -5,12 -18,61 -20,83 -2,22 -10,40 0,41 11,1 62,3 61,-7 -2,-11 -2,-44 -4,-59 -2,-15 0,-26 -6,-44 -5,-19 1,-57 10,-40z"/>
 </g>
</svg>
