<?xml version="1.0" encoding="UTF-8"?>
<!DOCTYPE svg PUBLIC "-//W3C//DTD SVG 1.1//EN" "http://www.w3.org/Graphics/SVG/1.1/DTD/svg11.dtd">
<!-- Creator: CorelDRAW X7 -->
<svg xmlns="http://www.w3.org/2000/svg" xml:space="preserve" width="2.6639in" height="3.5681in" version="1.1" style="shape-rendering:geometricPrecision; text-rendering:geometricPrecision; image-rendering:optimizeQuality; fill-rule:evenodd; clip-rule:evenodd"
viewBox="0 0 1035 1386"
 xmlns:xlink="http://www.w3.org/1999/xlink">
 <defs>
   <clipPath id="id0">
    <path d="M540 1386c-6,0 -11,0 -17,0 -6,0 -12,-17 -17,-17 0,0 0,0 0,0 -3,0 -6,2 -9,4 -3,2 -6,4 -9,4 0,0 0,0 0,0 -6,0 -12,-1 -18,-1 0,0 0,0 0,0 -3,0 -5,0 -8,1 -3,1 -6,1 -9,1 0,0 0,0 0,0 0,0 0,0 0,0 -3,0 -6,1 -9,2 -3,1 -6,2 -9,2 0,0 0,0 0,0 -6,0 -11,-15 -17,-15 -1,0 -1,0 -1,0 -3,0 -5,0 -8,0 -2,0 -5,0 -7,0 -1,0 -1,0 -2,0 -6,0 -11,0 -17,0 0,0 0,0 0,0 -3,0 -6,4 -9,8 -3,4 -6,8 -9,8 0,0 0,0 0,0 -6,0 -11,-14 -17,-14 0,0 0,0 -1,0 -2,0 -5,2 -8,4 -3,2 -6,4 -9,4 0,0 0,0 0,0 -6,-1 -12,-6 -17,-6 -1,0 -1,0 -2,0 -2,0 -5,0 -7,1 -3,0 -5,0 -8,0 0,0 -1,0 -1,0 0,0 0,0 0,0 -3,0 -6,2 -9,4 -3,2 -6,4 -9,4 0,0 0,0 0,0 -6,-1 -12,-7 -17,-8 -6,0 -11,-13 -17,-13 0,0 -1,0 -1,0 -3,0 -5,0 -8,1 -2,0 -5,1 -7,1 -1,0 -1,0 -2,0 0,0 0,0 0,0 -3,0 -6,1 -9,3 -3,2 -6,3 -8,3 -1,0 -1,0 -1,0 -6,0 -11,-7 -17,-8 0,0 0,0 0,0 -3,0 -6,4 -9,7 -3,3 -7,7 -9,7 0,0 -1,0 -1,0 -6,-1 -10,-17 -16,-17 0,0 0,0 0,0 -3,0 -6,2 -9,4 -3,2 -6,4 -9,4 0,0 0,0 0,0 -6,0 -11,-9 -17,-9 -6,-1 -11,-8 -16,-9 -6,-1 -12,-2 -17,-3 0,0 -1,0 -1,0 -3,0 -6,2 -9,4 -3,3 -6,5 -9,5 0,0 0,0 -1,0 -6,-1 -11,-3 -17,-4 0,-1 -1,-1 -2,-1 -2,0 -5,1 -8,2 -2,1 -5,2 -7,2 -1,0 -1,0 -2,-1 -6,-2 -12,-6 -17,-8 -8,-4 -14,-14 -14,-18 0,-4 8,-10 16,-14 1,0 2,0 3,0 1,0 4,0 6,1 2,0 4,1 7,1 1,0 2,0 3,-1 5,-1 8,-12 15,-13 1,0 3,0 4,0 1,0 3,0 4,0 2,0 4,0 5,0 2,0 3,0 5,0 5,-1 10,-5 17,-6 0,0 0,0 0,0 3,0 6,1 9,3 3,1 5,3 8,3 1,0 1,0 1,0 6,-1 11,-5 17,-6 2,0 4,0 5,0 2,0 3,0 4,0 1,0 2,0 4,0 1,0 3,0 5,0 1,0 1,0 2,0 -1,10 3,19 13,24 7,4 14,9 22,9 1,0 1,0 1,0 7,4 15,5 22,5 1,0 3,0 4,0 0,0 0,0 0,0 1,0 2,0 2,1 3,2 5,2 8,2 0,0 1,0 2,0 1,0 1,0 2,0 0,0 0,0 1,0 2,0 5,0 8,0 5,0 9,0 13,0l0 0c5,0 9,0 14,0 5,0 10,0 14,0 2,0 3,-3 3,-4 0,-3 -2,-5 -4,-6 -3,-3 -7,-5 -10,-8 -4,-3 -7,-8 -13,-11 -5,-2 -10,-7 -15,-10 0,0 0,0 0,0 -6,0 -9,-5 -15,-7 -2,-1 -4,-2 -6,-3 -1,0 -2,0 -3,-1 1,-1 3,-2 4,-2 0,0 0,0 1,0 2,0 5,3 8,5 3,2 6,5 9,5 0,0 0,0 1,0 2,0 4,-3 6,-7 6,1 8,6 13,9 0,0 1,0 2,1 8,3 14,9 21,14 3,3 6,7 9,11 1,0 1,1 2,2 0,-1 1,-2 1,-3 0,-6 4,-12 3,-18 -1,-6 0,-11 0,-17 3,0 6,0 9,0 0,2 0,4 0,6 -1,11 1,21 -3,31 0,1 0,3 0,4 0,3 3,6 5,6 3,0 5,0 8,0 2,0 4,0 5,-1 5,-2 9,-1 14,-2 1,0 3,0 4,0 1,0 2,0 4,0 1,0 2,0 3,0 3,0 6,0 9,0 5,-1 10,-2 16,-2 0,0 0,0 0,0 8,0 15,0 23,0 7,0 14,0 22,-1 1,0 2,0 3,0 2,0 4,0 6,0 2,1 4,1 6,1 4,0 9,-1 14,-2 5,-2 6,-1 6,-5 0,-3 -1,-8 1,-11 3,-6 1,-12 2,-18 0,-2 -1,-5 0,-7 2,-4 3,-8 3,-12 3,-4 6,-8 10,-8 0,0 0,0 0,0 0,0 1,0 2,0 0,0 0,0 0,0 -1,7 -1,14 -1,20 -3,4 -2,9 -2,14 -1,7 0,14 -3,21 -1,2 0,4 3,5 6,2 11,3 17,3 1,0 1,0 2,0 2,0 3,0 4,0 4,0 8,0 12,0 2,2 5,3 8,3 1,0 2,-1 3,-1 2,0 3,0 4,0 0,0 0,0 0,0 8,0 15,0 23,0 9,0 19,0 28,0l0 0c10,0 19,0 28,0 10,0 21,0 31,0 0,0 0,0 0,0 0,0 1,0 1,0 1,0 2,0 2,0 1,0 3,0 4,0 3,-3 7,-2 11,-2 1,-1 2,-1 4,-1 0,0 1,0 1,0 1,0 1,0 1,0 4,0 8,0 12,-1 6,-2 12,0 18,-2 1,0 3,-1 2,-2 0,-5 1,-9 -1,-13 -1,-4 -1,-8 -1,-12 -1,-5 -3,-9 -3,-13 0,0 0,-1 0,-1 0,0 0,0 0,0 0,0 0,0 0,0 0,0 0,0 1,0 2,0 5,-3 8,-7 1,0 2,-1 2,-2 1,4 0,8 0,12 1,2 0,4 1,6 3,4 2,9 2,13 1,5 4,10 3,15 0,2 4,4 6,4 0,0 1,0 1,0 3,-1 5,-2 8,-2 2,0 4,1 7,2 0,-1 1,-1 2,-1 1,0 2,0 3,1 0,0 1,1 2,1 1,0 1,0 1,0 2,-1 4,-2 5,-2 0,0 0,0 0,0 3,0 5,1 7,2 0,0 1,0 1,0 2,0 3,0 4,-1 1,0 2,-1 3,-1 1,0 2,0 2,1 2,0 4,1 6,1 1,0 2,0 3,0 1,-1 2,-1 3,-1 0,0 1,0 1,0 1,1 1,1 2,1 0,0 0,0 1,-1 2,0 4,-1 6,-2 0,0 1,0 1,0 0,0 1,1 2,1 0,0 1,1 2,1 0,0 1,0 2,-1 0,0 0,0 1,0 0,0 1,0 1,0 1,0 2,0 2,0 1,0 2,0 3,0 2,1 4,2 6,2 2,0 5,-1 7,-2 1,-1 3,-1 5,-1 1,0 1,0 2,0 1,0 3,0 4,0 2,0 3,0 5,0 2,0 4,0 6,0 6,-1 11,-3 17,-3 0,0 0,0 0,0 0,0 0,0 0,0 1,0 2,-2 2,-3 1,-3 2,-6 0,-8 -3,-5 -1,-12 -5,-16 0,-3 -1,-5 -2,-8 2,2 4,4 6,4 0,0 0,0 1,0 1,0 3,-1 5,-3 1,2 1,3 2,4 0,5 3,9 3,14 0,1 1,2 2,3 1,1 2,2 3,2 1,0 2,-1 2,-2 4,-6 8,-13 13,-18 1,1 3,2 4,2 0,0 1,0 1,0 3,0 6,-2 8,-4 3,-1 5,-2 7,-3 -4,4 -7,7 -11,11 -5,5 -8,12 -12,18 -1,1 0,4 1,4 8,0 15,0 23,0 2,-2 4,-3 7,-3 1,0 1,0 2,0 1,0 2,1 2,1 1,0 3,-1 4,-1 0,0 0,0 0,0 2,0 3,1 4,1 1,1 2,1 3,1 1,0 1,0 2,0 3,-2 6,-1 9,-2 2,0 3,0 4,0 0,0 1,0 1,0 0,0 0,0 0,0 3,0 6,0 8,-1 4,-2 8,-1 12,-2 2,0 5,-1 7,-3 1,0 1,-2 2,-3 0,-2 0,-4 0,-7 0,-2 0,-4 -1,-7 2,-2 4,-3 6,-3 0,0 0,0 0,0 6,1 9,18 15,19 6,1 12,2 17,3 0,0 0,0 1,0 3,0 6,-3 10,-6 3,-4 6,-7 9,-7 0,0 0,0 1,0 6,2 9,16 14,17 1,0 2,1 3,1 2,0 5,-1 7,-1 2,-1 4,-1 6,-1 1,0 2,0 3,0 8,4 2,11 2,15 0,4 6,11 -2,15 -5,2 -10,6 -17,8 0,0 -1,0 -1,0 -2,0 -5,-2 -9,-4 -3,-1 -6,-3 -9,-3 0,0 -1,0 -1,0 -5,1 -10,4 -17,5 -5,1 -9,14 -15,15 0,0 0,0 0,0 -3,0 -6,-3 -9,-5 -3,-3 -7,-5 -9,-5 -1,0 -1,0 -1,0 -1,0 -1,0 -2,0 -2,0 -4,-1 -7,-1 -2,-1 -5,-2 -8,-2 0,0 -1,0 -1,0 -6,1 -9,19 -15,20 -6,1 -12,3 -18,4 0,0 -1,0 -1,0 -3,0 -5,-1 -8,-1 -2,-1 -5,-1 -7,-1 -1,0 -1,0 -2,0 0,0 0,0 0,0 -3,0 -6,-3 -9,-7 -3,-3 -6,-6 -9,-6 0,0 0,0 0,0 -6,0 -11,8 -17,9 -6,0 -12,2 -18,3 -5,0 -11,3 -17,4 -6,0 -11,3 -17,3 0,0 0,0 0,0 -3,0 -6,-3 -9,-7 -4,-4 -7,-7 -10,-7 0,0 0,0 0,0 -5,0 -11,14 -16,14 -1,0 -1,0 -1,0 -3,0 -5,-2 -8,-5 -3,-2 -6,-5 -9,-5 0,0 0,0 -1,0 -5,1 -11,10 -17,11 0,0 0,0 0,0 -3,0 -6,-1 -8,-2 -3,-1 -6,-2 -9,-2 0,0 0,0 0,0 -6,0 -12,8 -18,8 0,0 0,0 0,0 -3,0 -6,-2 -8,-3 -3,-1 -6,-3 -9,-3 0,0 0,0 0,0 -6,0 -12,3 -18,3 0,0 0,0 0,0 -3,0 -6,-3 -9,-5 -3,-2 -6,-5 -9,-5 0,0 0,0 0,0 -5,1 -11,2 -17,2 0,0 0,0 0,0 -3,0 -6,-1 -9,-2 -3,0 -6,-1 -8,-1 -1,0 -1,0 -1,0 -6,0 -11,20 -17,20 0,0 0,0 0,0 -3,0 -6,-2 -9,-5 -3,-2 -6,-4 -9,-4 0,0 0,0 0,0 -6,0 -11,9 -17,9 0,0 -1,0 -1,0z"/>
   </clipPath>
   <clipPath id="id1">
    <path d="M302 1330c-3,0 -5,0 -8,0 -2,0 -5,-3 -5,-6 0,-1 0,-3 0,-4 4,-10 2,-20 3,-31 0,-2 0,-4 0,-6 0,-3 0,-6 2,-9 0,-5 1,-11 1,-17 0,-3 -1,-7 2,-11 1,-1 0,-3 0,-5 1,-9 -1,-17 3,-25 1,-1 0,-3 0,-4 1,-6 -1,-13 3,-18 1,-3 0,-7 0,-10 1,-5 -1,-11 2,-15 2,-3 1,-6 1,-9 0,-4 -1,-7 2,-11 1,-1 1,-3 1,-5 0,-5 -1,-11 2,-15 1,-2 1,-4 1,-6 0,-6 -1,-12 2,-18 1,-2 0,-5 1,-7 0,-5 -2,-10 2,-15 1,-2 0,-5 0,-7 1,-6 -1,-11 3,-17 1,-2 -3,-3 -1,-6 1,-2 1,-4 1,-7 1,-7 -2,-15 2,-23 -4,-5 2,-9 1,-15 -1,-5 0,-10 0,-15 1,-6 4,-11 3,-17 0,-1 3,-3 4,-5 2,-3 3,-5 1,-8 -4,-6 -2,-12 -1,-18 1,-2 2,-4 2,-6 0,-5 -1,-9 2,-13 1,-1 0,-4 1,-7 0,-5 -2,-11 2,-16 1,-1 0,-2 0,-3 1,-5 0,-10 2,-14 1,-4 0,-9 2,-12 3,-7 2,-13 2,-20 0,-4 3,-7 3,-10 0,-4 0,-7 1,-10 1,-2 2,-3 2,-5 0,-6 0,-12 2,-18 2,-4 0,-10 1,-14 1,-4 2,-8 3,-13 0,-6 -2,-13 2,-19 1,-1 1,-3 0,-4 -1,-9 4,-18 3,-27 3,-5 3,-11 10,-12 4,-4 10,-3 14,-7 3,-3 7,-5 11,-7 5,-3 7,-8 13,-9 1,-4 5,-5 6,-7 1,-4 4,-4 6,-6 2,-2 5,-4 7,-7 5,-8 11,-16 16,-24 4,-8 9,-15 13,-24 1,-2 3,-3 5,-3 1,0 1,0 2,0 1,0 3,0 5,1 5,2 9,4 14,5 5,1 10,3 15,3 0,0 0,0 0,0 1,0 1,0 1,0 0,0 1,0 2,1 1,0 1,0 2,0 0,0 0,0 0,0 1,0 1,0 2,0 1,0 2,1 3,1 3,0 5,0 8,0 3,0 7,0 10,-2 5,-3 12,-2 17,-5 10,-4 19,-9 26,-16 2,-2 3,-4 5,-5 0,0 1,0 1,0 1,0 2,0 2,1 1,1 2,4 3,6 4,8 10,16 15,23 4,6 10,10 12,17 10,11 20,21 33,28 3,1 6,3 9,6 4,2 9,2 13,4 1,0 2,0 3,0 3,0 7,1 11,2 4,1 7,2 11,2 2,0 3,0 4,-1 0,0 1,0 1,0 2,0 3,3 4,4 2,3 1,7 3,10 2,3 1,6 2,9 1,4 2,7 3,11 0,4 0,7 2,11 2,4 0,9 2,13 2,4 2,9 1,13 0,5 2,9 3,14 1,4 -1,9 2,13 1,1 1,3 1,4 0,6 -1,13 3,18 0,1 0,3 0,4 -1,7 3,13 3,20 0,6 4,11 3,18 4,3 1,8 3,11 3,4 2,8 3,11 1,5 1,11 4,15 1,4 0,8 2,12 2,3 3,7 4,11 2,4 0,8 4,12 -1,6 4,12 3,19 -1,1 -1,2 0,3 6,7 5,17 9,26 2,3 1,7 2,10 2,4 3,7 3,11 0,5 4,10 3,15 4,3 1,9 3,12 3,4 1,9 3,12 2,5 2,10 3,15 1,1 2,3 2,4 -1,7 3,13 3,21 0,4 3,9 3,15 0,4 4,8 4,13 1,6 5,12 4,19 0,3 1,7 3,10 1,4 0,8 1,11 1,3 2,6 2,9 -1,7 3,14 3,22 4,4 3,9 3,13 -1,5 1,8 2,12 1,4 0,8 2,11 1,2 1,4 1,6 -1,9 4,18 3,28 3,4 2,10 5,14 1,3 1,5 1,7 -1,4 0,7 1,10 1,3 2,5 2,8 4,4 2,11 5,16 2,2 1,5 0,8 0,1 -1,3 -2,3 0,0 0,0 0,0 0,0 0,0 0,0 -6,0 -11,2 -17,3 -2,0 -4,0 -6,0 -2,0 -3,0 -5,0 -1,0 -3,0 -4,0 -1,0 -1,0 -2,0 -2,0 -4,0 -5,1 -2,1 -5,2 -7,2 -2,0 -4,-1 -6,-2 -1,0 -2,0 -3,0 0,0 -1,0 -2,0 0,0 -1,0 -1,0 -1,0 -1,0 -1,0 -1,1 -2,1 -2,1 -1,0 -2,-1 -2,-1 -1,0 -2,-1 -2,-1 0,0 -1,0 -1,0 -2,1 -4,2 -6,2 -1,1 -1,1 -1,1 -1,0 -1,0 -2,-1 0,0 -1,0 -1,0 -1,0 -2,0 -3,1 -1,0 -2,0 -3,0 -2,0 -4,-1 -6,-1 0,-1 -1,-1 -2,-1 -1,0 -2,1 -3,1 -1,1 -2,1 -4,1 0,0 -1,0 -1,0 -2,-1 -4,-2 -7,-2 0,0 0,0 0,0 -1,0 -3,1 -5,2 0,0 0,0 -1,0 -1,0 -2,-1 -2,-1 -1,-1 -2,-1 -3,-1 -1,0 -2,0 -2,1 -3,-1 -5,-2 -7,-2 -3,0 -5,1 -8,2 0,0 -1,0 -1,0 -2,0 -6,-2 -6,-4 1,-5 -2,-10 -3,-15 0,-4 1,-9 -2,-13 -1,-2 0,-4 -1,-6 0,-4 1,-8 0,-12 0,-2 -1,-4 -2,-6 -1,0 0,-2 0,-3 0,-5 -1,-10 -3,-15 -1,-4 0,-9 -3,-13 -2,-4 0,-8 -2,-13 -1,-3 -1,-7 -1,-11 -1,-3 -2,-7 -3,-10 0,-4 1,-7 -2,-10 0,-1 0,-2 -1,-2 0,-6 0,-11 -2,-17 -2,-4 0,-10 -3,-15 1,-8 -5,-15 -3,-23 0,-4 -3,-6 -3,-8 -1,-3 -1,-6 -2,-9 0,-1 -1,-2 -1,-3 0,-5 1,-11 -1,-15 -2,-4 -1,-9 -2,-13 -1,-5 -2,-9 -4,-14 0,-1 -2,-2 -1,-3 1,-8 -3,-15 -4,-22 0,-5 -2,-9 -2,-13 -1,-3 1,-8 -1,-11 -3,-6 -2,-12 -2,-18 0,-4 -4,-7 -3,-12 1,-4 0,-9 0,-13 0,-4 -1,-9 0,-13 1,-5 -3,-8 -3,-13 0,-4 1,-9 -2,-13 -1,-1 0,-2 -1,-4 0,-5 1,-11 -2,-16 -2,-2 0,-6 0,-9 -1,-9 1,-18 -3,-26 0,-6 0,-13 -1,-19 0,-3 1,-7 -1,-11 -1,-1 -1,-4 -1,-7 0,-6 0,-13 0,-20 0,-3 -3,-6 -7,-6 0,0 0,0 -1,0 -2,0 -4,1 -4,3 0,5 -1,11 2,16 1,1 1,3 1,5 0,7 0,13 0,20 0,5 -1,10 2,15 1,1 0,4 1,6 0,7 -2,14 2,20 1,2 0,4 0,6 1,10 -1,20 3,29 1,2 0,4 1,6 0,4 -1,8 2,12 1,2 0,5 0,7 0,7 0,14 0,20 0,6 4,10 3,15 0,6 -1,11 1,16 2,6 1,12 3,18 2,5 1,11 4,16 0,0 0,1 1,2 0,5 -1,9 1,13 2,4 1,7 2,11 1,5 2,10 4,15 1,3 1,6 1,9 1,4 -1,9 2,12 1,1 1,2 1,3 -1,9 4,17 3,27 0,4 3,7 3,12 0,3 3,6 3,10 -1,4 1,7 2,10 1,1 1,3 1,4 -1,5 1,9 2,14 1,3 -1,8 3,12 0,0 0,2 0,3 1,4 0,8 2,12 1,4 1,7 1,11 1,3 2,6 3,9 1,7 4,13 3,20 3,6 2,12 3,19 0,0 0,1 0,1 0,4 2,8 3,13 0,4 0,8 1,12 2,4 1,8 1,13 1,1 -1,2 -2,2 -6,2 -12,0 -18,2 -4,1 -8,1 -12,1 0,0 0,0 -1,0 0,0 -1,0 -1,0 -2,0 -3,0 -4,1 -4,0 -8,-1 -11,2 -1,0 -3,0 -4,0 0,0 -1,0 -2,0 0,0 -1,0 -1,0 0,0 0,0 0,0 -10,0 -21,0 -31,0 -9,0 -18,0 -28,0l0 0c-9,0 -19,0 -28,0 -8,0 -15,0 -23,0 0,0 0,0 0,0 -1,0 -2,0 -4,0 -1,0 -2,1 -3,1 -3,0 -6,-1 -8,-3 -4,0 -8,0 -12,0 -1,0 -2,0 -4,0 -1,0 -1,0 -2,0 -6,0 -11,-1 -17,-3 -3,-1 -4,-3 -3,-5 3,-7 2,-14 3,-21 0,-5 -1,-10 2,-14 0,-6 0,-13 1,-20 0,0 0,0 0,0 0,-4 -1,-9 2,-13 2,-4 0,-10 2,-14 2,-3 0,-8 2,-11 2,-4 2,-7 2,-11 1,-6 -1,-11 3,-16 0,-1 0,-2 0,-3 0,-5 -1,-10 1,-14 2,-5 1,-9 2,-14 0,-4 3,-8 3,-12 -1,-4 -1,-8 2,-11 1,-1 0,-4 0,-6 1,-4 -1,-8 2,-12 2,-4 0,-9 3,-12 1,-1 1,-3 1,-4 0,-5 -1,-10 3,-15 1,-1 0,-4 0,-6 0,-4 -1,-9 2,-14 2,-2 1,-5 1,-8 1,-6 -1,-12 2,-18 2,-2 1,-5 1,-8 0,-5 -1,-10 2,-14 1,-2 0,-6 1,-8 0,-6 -2,-13 2,-18 1,-2 0,-5 0,-7 1,-8 -1,-15 3,-23 1,-2 0,-5 0,-8 0,-2 0,-5 1,-7 2,-3 2,-6 0,-9 2,-3 2,-6 2,-9 1,-8 -1,-16 3,-24 1,-3 0,-6 0,-10 0,-3 -1,-7 2,-11 1,-1 1,-3 1,-5 0,-6 0,-11 2,-17 2,-2 0,-6 3,-9 -2,-4 -4,-8 -6,-12 0,-1 -1,-1 -2,-1 0,0 -1,0 -1,0 0,0 -2,1 -2,2 0,8 -4,16 -3,25 0,4 -3,8 -3,13 0,5 0,9 -2,14 -2,4 -1,8 -1,13 0,5 1,10 -2,15 -1,1 0,4 0,7 -1,7 1,15 -3,22 -1,2 0,4 0,6 -1,5 1,11 -3,16 -1,1 0,4 0,6 -1,7 0,14 -3,21 -1,4 0,9 0,14 -1,5 1,11 -2,16 -2,2 -1,6 -1,9 0,3 0,7 -2,11 -1,1 -1,4 -1,7 0,3 0,6 0,10 -4,2 2,6 -2,8 -1,1 -1,3 0,4 1,9 -5,17 -3,27 -4,5 -1,12 -4,17 -3,6 -1,12 -2,18 -1,5 -3,10 -4,15 0,5 -1,9 -3,13 -1,4 -1,8 -2,11 0,5 1,9 -2,13 -1,1 -1,2 0,4 0,9 -4,18 -4,28 0,3 -3,7 -2,12 0,3 0,7 -3,11 -1,1 0,3 0,5 0,3 0,6 0,9 0,4 -1,8 -3,12 -1,2 0,5 0,7 -1,6 1,12 -2,18 -2,3 -1,8 -1,11 0,4 -1,3 -6,5 -5,1 -10,2 -14,2 -2,0 -4,0 -6,-1 -2,0 -4,0 -6,0 -1,0 -2,0 -3,0 -8,1 -15,1 -22,1 -8,0 -15,0 -23,0 0,0 0,0 0,0 -6,0 -11,1 -16,2 -3,0 -6,0 -9,0 -1,0 -2,0 -3,0 -2,0 -3,0 -4,0 -1,0 -3,0 -4,0 -5,1 -9,0 -14,2 -1,1 -3,1 -5,1z"/>
   </clipPath>
   <clipPath id="id2">
    <path d="M342 719c-1,0 -3,0 -4,0 -2,0 -4,0 -6,-1 -6,-3 -14,-2 -21,-6 -5,-3 -10,-7 -13,-12 -4,-5 -7,-10 -10,-15 -1,-1 -2,-2 -2,-2 -4,-11 -9,-21 -13,-31 -2,-4 -1,-9 -4,-13 -3,-4 -2,-9 -6,-13 1,-5 -2,-9 -3,-13 0,-5 -3,-9 -3,-14 -3,-5 -2,-12 -5,-17 -1,-1 0,-2 0,-3 0,-5 0,-10 0,-16l0 0c0,-5 -1,-10 0,-15 0,-4 -4,-7 -1,-10 -4,-4 2,-6 1,-9 -1,-3 0,-6 0,-9 0,-3 -1,-7 0,-10 1,-2 1,-4 0,-7 -1,-4 -1,-9 1,-12 3,-4 0,-9 2,-13 2,-3 3,-7 2,-11 0,-7 2,-13 4,-20 4,-3 0,-9 3,-12 3,-4 1,-9 4,-12 1,-1 1,-3 1,-5 0,-3 0,-5 1,-7 6,-11 9,-23 13,-35 1,-1 0,-3 1,-4 5,-8 7,-17 11,-26 4,-8 9,-16 13,-24 1,-4 4,-7 6,-9 2,-3 4,-6 6,-9 5,-6 11,-13 16,-19 3,-3 5,-6 8,-8 8,-4 15,-8 22,-12 4,-2 9,-2 13,-5 1,-1 2,-1 4,-1 0,0 0,0 1,0 0,0 0,0 0,0 2,0 3,0 5,-1 2,-1 6,-2 9,-3 1,0 2,-1 4,-1 5,0 11,0 16,0 4,0 8,0 12,0 5,1 10,3 15,3 5,1 9,3 13,5 5,2 9,5 14,7 6,4 12,8 19,12 -13,4 -22,14 -22,30 -1,29 23,63 38,86l1 0 2 9c1,1 1,3 3,3 -1,33 -8,64 -21,95 -2,6 2,10 7,11 -1,1 -1,3 -2,5 -1,6 -6,11 -6,18 -7,13 -11,28 -18,41 -2,4 -3,9 -5,13 -2,4 -5,9 -8,13 -2,4 -4,8 -6,12 -2,5 -5,8 -8,12 -1,3 -2,5 -3,8 -5,11 -11,20 -18,30 -7,8 -16,16 -24,24 -4,0 -4,5 -9,6 -2,1 -4,5 -8,6 -3,1 -6,3 -10,5 -2,2 -5,5 -8,5 -4,0 -7,3 -10,3 -3,1 -6,3 -8,3 -2,0 -4,0 -6,0l0 0z"/>
   </clipPath>
   <clipPath id="id3">
    <path d="M682 691c-4,0 -7,0 -10,-1 -14,-4 -18,-6 -26,-11 -10,-6 -19,-13 -27,-22 -6,-6 -10,-14 -16,-20 -1,-5 -8,-7 -9,-12 -5,-7 -8,-15 -12,-22 -5,-9 -9,-19 -15,-27 -3,-4 -3,-10 -5,-16 -2,-8 -7,-15 -9,-23 -1,-4 -4,-9 -4,-13 0,-1 0,-3 0,-4 2,-2 3,-5 2,-8 -12,-36 -19,-73 -21,-111 3,-2 5,-5 5,-8 1,-1 1,-2 0,-3 8,-14 13,-29 17,-43 6,-13 10,-26 9,-38 0,-1 0,-1 0,-2 0,-2 0,-3 0,-5 0,0 0,0 0,0 3,-3 5,-8 0,-12 -1,-1 -2,-1 -3,-2 0,-1 -1,-1 -2,-2 -5,-5 -13,-7 -22,-7 6,-6 11,-12 19,-16 7,-4 13,-8 21,-11 7,-2 13,-5 20,-8 8,-4 15,-6 22,-8 2,-1 4,-2 6,-2 0,0 0,0 0,0 0,0 0,0 1,0 3,0 6,-1 9,-1 3,-1 6,-2 9,-2 1,0 2,0 3,0 5,1 9,3 13,3 4,1 7,4 10,5 4,1 6,4 8,6 4,3 7,8 12,10 2,5 8,7 10,12 4,10 12,18 15,28 7,12 14,24 20,37 3,8 8,14 8,23 6,8 7,17 10,25 2,5 3,10 4,16 1,5 3,10 6,14l0 2c0,5 -1,10 2,15 2,4 -1,10 3,15 0,5 0,11 1,17 0,4 -1,9 2,13 1,2 0,5 0,7 0,11 0,21 0,32l0 0c0,8 1,17 0,25 0,6 2,12 -2,17 -1,1 0,3 0,4 -1,5 -1,10 -1,14 1,5 -3,9 -3,14 1,5 -3,9 -3,14 0,4 -3,8 -4,13 -1,3 -1,6 -2,9 -4,14 -12,28 -22,40 -3,3 -4,8 -8,10 -6,6 -14,11 -21,16 -3,2 -8,3 -12,3 -3,1 -5,1 -8,1l0 0z"/>
   </clipPath>
   <clipPath id="id4">
    <path d="M837 1305c-1,0 -2,-1 -3,-2 -1,-1 -2,-2 -2,-3 0,-5 -3,-9 -3,-14 -1,-1 -1,-2 -2,-4 -1,-2 -2,-5 -2,-8 1,-3 -3,-6 -2,-10 -4,-3 -2,-8 -5,-12 -1,-1 -1,-2 -1,-4 0,-4 0,-9 -1,-14 -4,-3 0,-9 -4,-13 0,-5 -1,-9 -1,-14 0,-3 -1,-6 -2,-10 -1,-5 -4,-11 -3,-17 0,-4 -3,-8 -3,-12 1,-10 -4,-18 -3,-28 -3,-5 -3,-11 -3,-16 -1,-5 -4,-10 -3,-15l0 -2c-2,-4 -4,-7 -5,-11 -1,-4 0,-8 -2,-13 -2,-2 -1,-6 -2,-9 0,-3 -2,-6 -2,-9 -1,-7 -4,-13 -3,-20 0,0 -1,-1 -1,-2 -3,-7 -4,-13 -5,-20 -2,-9 -4,-17 -6,-26 -4,-3 -1,-8 -3,-12 -2,-3 -3,-7 -4,-10 -2,-5 0,-11 -4,-15 0,0 1,-3 2,-3 1,-2 3,-3 5,-3 0,0 0,0 0,0 0,0 0,0 0,0 3,0 6,-1 9,-2 3,0 6,-1 9,-1 0,0 1,0 1,0 5,0 9,0 14,0 6,0 12,0 17,0 1,0 1,0 2,0 8,0 16,2 24,4 4,1 8,1 11,3 3,2 7,1 11,4 2,2 7,3 10,6 10,8 20,18 27,29 1,3 1,6 3,9 2,3 3,7 5,10 1,3 2,6 3,9 0,2 1,3 1,4 -1,7 4,13 3,20 4,3 3,8 3,12 0,10 0,21 0,31l0 0c0,9 0,18 0,27 0,6 1,12 -3,17 0,4 0,9 0,14 0,3 0,6 -1,8 -2,3 2,5 -1,7 -1,2 -1,5 -1,7 0,4 1,8 -2,11 0,1 -1,2 -1,3 0,4 0,9 0,14 1,5 -3,9 -3,14 1,4 0,9 -2,13 -2,4 0,10 -1,14 0,3 -2,6 -5,6 0,0 0,0 0,0 0,0 0,0 0,0 -9,0 -15,5 -20,11 -7,7 -15,12 -19,21 0,1 -1,1 -2,2 -1,1 -3,3 -4,4 -5,5 -9,12 -13,18 0,1 -1,2 -2,2l0 0z"/>
   </clipPath>
   <clipPath id="id5">
    <path d="M279 1321c-1,-1 -1,-2 -2,-2 -3,-4 -6,-8 -9,-11 -7,-5 -13,-11 -21,-14 -1,-1 -2,-1 -2,-1 -5,-3 -7,-8 -13,-9 0,0 0,0 0,0 -4,0 -9,-3 -13,-5 -3,-2 -5,-4 -8,-5 -4,-1 -6,-4 -8,-7 -4,-8 -7,-16 -10,-25 -2,-8 -5,-15 -7,-24 -2,-8 -4,-16 -8,-23 0,-1 0,-2 0,-3 -1,-4 0,-8 -1,-11 0,-3 -2,-6 -2,-10 0,-6 0,-12 0,-18 0,-4 0,-9 0,-13 0,-4 -1,-8 2,-11 0,-1 1,-3 0,-4 -1,-9 3,-17 4,-25 1,-7 5,-15 7,-22 1,-7 7,-12 7,-20 5,-3 4,-10 8,-14 3,-4 5,-9 9,-13 3,-2 5,-6 7,-10 3,-3 6,-6 8,-9 5,-5 10,-9 16,-13 1,0 2,-1 3,-2 4,-2 6,-6 12,-7 4,0 6,-5 11,-7 4,-1 8,-3 13,-4 4,-1 7,-4 11,-5 4,-1 8,-1 11,-1 2,-1 3,-2 4,-2 2,0 4,2 6,2 2,1 3,2 3,3 0,5 0,10 0,16 -4,4 -2,10 -3,15 0,3 1,7 -2,11 -1,1 0,3 0,5 0,6 0,12 -1,17 0,5 1,10 -2,15 -1,2 0,6 0,9 -1,7 1,14 -3,21 -1,1 0,3 0,5 0,5 0,10 0,14 0,4 -1,8 -3,11 -1,3 0,8 -1,11 -1,4 -2,7 -2,10 0,4 0,9 -2,14 -2,3 -1,7 -1,11 0,5 0,10 0,15 -4,5 -1,11 -3,15 -2,5 -2,9 -3,14 0,7 2,13 -2,19 -1,2 0,5 0,7 -1,5 1,11 -3,15 0,6 0,12 0,17 0,4 0,8 -2,11 -1,1 -1,2 -1,3 0,1 0,3 0,4 0,1 0,2 0,2 0,6 -1,11 0,17 1,6 -3,12 -3,18 0,1 -1,2 -1,3l0 0z"/>
   </clipPath>
   <clipPath id="id6">
    <path d="M520 279c-2,0 -5,-1 -8,-1 -1,0 -2,0 -4,0 -1,0 -3,0 -5,0 -1,0 -2,-1 -4,-2 -6,-3 -13,-5 -18,-12 -1,-1 -3,-1 -4,-1 0,0 0,0 0,0 0,0 0,0 0,0 -4,0 -6,-3 -8,-5 -5,-5 -11,-7 -18,-7 0,0 -1,0 -1,0 -1,0 -2,0 -3,0 -3,0 -6,-1 -8,-2 -2,-1 -3,-1 -5,-1 -1,0 -2,0 -2,0 -1,0 -2,0 -2,0 -1,0 -1,0 -1,0 -4,0 -8,0 -11,-2 -2,-2 -5,0 -6,-3 0,-1 2,-3 2,-5 1,-4 0,-9 2,-12 2,-4 0,-8 2,-11 3,-4 1,-9 3,-12 3,-7 0,-15 5,-20 0,-7 4,-13 5,-19 1,-7 4,-12 4,-19 -1,-3 2,-5 2,-8 0,-7 5,-13 3,-21 0,-4 3,-8 3,-13 1,-4 3,-8 6,-11 1,-1 2,-2 2,-2 0,-9 5,-10 10,-10 2,0 3,0 5,0 0,0 1,0 1,0 1,0 1,0 2,0 0,0 1,0 2,0 3,0 6,0 9,2 0,1 0,1 1,1 1,0 3,-1 4,-1 2,-2 4,-2 6,-2 1,0 2,0 3,0 2,0 4,2 5,2 0,0 0,0 0,0 2,0 4,-2 6,-2 2,-1 4,-2 6,-3 1,0 3,0 4,0 1,0 1,0 1,0 1,0 1,0 2,0 1,0 2,0 3,0 1,0 1,0 2,0 1,0 2,0 4,0 1,0 2,0 3,0 3,0 6,0 9,-3 7,0 13,0 20,0 2,0 3,0 4,0 1,0 2,2 4,2 0,0 1,1 2,1 0,0 0,0 0,0 4,-3 7,-3 11,-3 1,0 3,0 4,0 2,0 3,0 5,0 3,0 6,0 9,-2 3,1 5,2 8,2 2,1 2,3 3,4 4,5 6,11 5,17 0,4 4,7 3,11 -1,3 0,7 2,9 1,1 1,3 1,5 0,3 -1,7 0,11 1,4 4,7 3,11 3,5 2,11 3,16 0,4 3,8 2,12 0,4 1,9 3,12 1,1 0,3 0,5 1,5 0,10 3,15 1,2 0,6 0,10 0,8 0,8 -9,11 -10,2 -20,4 -29,8 -11,6 -23,9 -35,15 -15,7 -33,22 -41,33zm-36 -125c-2,0 -4,1 -7,2 -3,1 -5,2 -8,4 -1,0 -2,1 -3,2 -4,10 -10,19 -9,30 0,10 2,14 5,23 3,6 6,8 11,8 0,0 1,0 1,0 1,0 1,0 2,0 0,0 1,0 1,0 0,0 1,0 1,0 1,0 1,0 2,0 7,-1 13,-3 15,-11 2,-3 4,-7 6,-11 3,-5 4,-10 1,-14 -2,-6 -1,-12 -4,-16 0,-6 -2,-9 -6,-13 -3,-3 -5,-4 -8,-4l0 0zm75 2c-5,0 -8,3 -10,7 -2,6 -3,12 -7,17 -1,1 -1,3 -1,4 0,4 -1,9 0,13 2,8 3,17 13,20 3,1 6,3 9,4 0,1 1,1 1,1 1,0 1,0 1,0 3,-2 6,-3 7,-5 2,-5 8,-8 7,-14 4,-5 2,-11 2,-13 0,-2 0,-4 0,-6 4,-6 3,-15 -3,-19 -2,-6 -6,-9 -13,-9 0,0 0,0 0,0 -1,0 -1,0 -2,0 -1,0 -1,0 -2,0 0,0 -1,0 -1,0 -1,0 -1,0 -1,0z"/>
   </clipPath>
   <clipPath id="id7">
    <path d="M309 248c-2,0 -3,-1 -4,-2 -5,-9 -11,-17 -16,-27 -2,-5 -7,-9 -9,-15 -1,-6 -6,-9 -8,-15 -2,-5 -6,-10 -9,-15 -5,-7 -10,-14 -14,-21 -1,-1 -2,-2 -3,-4 -5,-8 -4,-11 6,-15 17,-7 34,-14 52,-20 12,-4 24,-6 35,-11 2,-1 5,0 8,-1 3,0 5,-2 8,-2 0,0 0,0 0,0 0,0 1,0 1,0 3,0 6,-1 10,-2 3,-1 6,-1 9,-1 0,0 1,0 2,0 4,-3 10,-2 15,-4 1,-1 2,-1 4,-2 4,0 8,1 12,-1 4,-2 7,-1 11,-2 3,0 5,-2 8,-2 3,-1 5,0 8,-2 0,0 0,0 1,0 1,0 1,1 1,4 -2,4 -4,10 -8,15 -8,11 -18,22 -25,34 -5,7 -12,14 -17,21 -7,9 -14,18 -21,27 -1,2 -2,3 -3,4 -5,5 -8,11 -13,16 -3,5 -7,9 -10,14 -3,4 -7,7 -10,11 -5,7 -11,13 -19,17 -1,1 -2,1 -2,1l0 0z"/>
   </clipPath>
   <clipPath id="id8">
    <path d="M759 200c-2,0 -3,-1 -6,-3 -6,-4 -11,-9 -16,-14 -7,-6 -15,-12 -22,-17 -1,-1 -2,-1 -3,-2 -3,-3 -7,-7 -11,-10 -3,-3 -8,-6 -11,-9 -12,-11 -24,-23 -35,-35 -3,-2 -4,-5 -6,-8 -2,-2 -3,-4 -5,-5 -5,-1 -8,-6 -11,-9 -3,-3 -7,-5 -7,-10 2,-1 3,-1 5,-1 1,0 1,0 2,0 1,0 1,0 2,0 1,0 1,0 2,0 2,-1 5,-2 7,-2 0,0 0,0 1,0 1,0 3,2 5,2 0,0 1,0 1,0 4,-2 8,-3 11,-3 2,0 3,0 4,0 2,0 3,0 4,0 0,0 1,0 1,0 1,0 2,0 3,0 3,0 7,1 11,2 1,1 4,1 6,1 1,0 2,0 3,0 2,0 3,0 4,0 1,0 1,0 2,0 0,0 1,0 1,0 1,0 2,0 3,0 1,0 2,0 3,0 2,0 5,0 7,1 1,1 3,1 5,1 0,0 1,0 1,0 1,0 2,0 2,0 2,0 3,0 4,1 4,3 10,1 13,4 4,3 9,1 13,3 3,2 7,3 11,4 4,0 7,3 11,3 0,0 1,0 1,0 13,5 26,9 37,17 1,0 2,2 2,3 0,1 0,3 -1,4 -5,9 -8,19 -14,27 -3,4 -2,9 -7,12 -5,13 -15,22 -22,34 -2,2 -4,4 -6,6 -2,2 -4,3 -5,3z"/>
   </clipPath>
   <clipPath id="id9">
    <path d="M495 628c-3,0 -6,-1 -9,-3 -5,-3 -12,-3 -17,-7 -3,-2 -3,-4 -1,-8 4,-8 8,-16 12,-25 2,-4 4,-9 6,-14 2,-5 5,-10 6,-15 1,-5 5,-9 5,-15 5,-7 7,-16 10,-24 2,-5 1,-10 4,-15 3,-3 2,-9 4,-13 3,-4 1,-10 5,-14 1,-2 0,-6 0,-9 1,-1 1,-3 2,-4 3,17 7,34 13,50 -1,4 1,8 3,12 4,10 6,20 12,29 2,5 1,11 4,15 1,7 5,13 9,19 2,2 3,5 5,8 1,3 1,5 -2,8 -7,7 -18,18 -35,22 -3,1 -5,3 -9,3 -2,0 -4,0 -6,0 -3,0 -6,0 -9,0l0 0c-2,0 -5,0 -7,0 -1,0 -2,0 -3,0 -1,0 -1,0 -2,0l0 0z"/>
   </clipPath>
   <clipPath id="id10">
    <path d="M225 1333c-3,0 -6,0 -8,0 -1,0 -1,0 -1,0 -1,0 -1,0 -2,0 -1,0 -2,0 -2,0 -3,0 -5,0 -8,-2 0,-1 -1,-1 -2,-1 0,0 0,0 0,0 -1,0 -3,0 -4,0 -7,0 -15,-1 -22,-5 0,0 0,0 -1,0 -8,0 -15,-5 -22,-9 -10,-5 -14,-14 -13,-24 0,-1 0,-1 0,-2 1,0 1,-1 2,-2 4,-4 7,-8 12,-12 2,-1 5,-3 9,-3 1,0 1,0 1,0 3,0 6,0 8,0 4,0 7,0 11,0 0,0 1,0 1,0 5,0 8,2 11,5 2,3 5,4 8,5 1,1 2,1 3,1 2,1 4,2 6,3 6,2 9,7 15,7 0,0 0,0 0,0 5,3 10,8 15,10 6,3 9,8 13,11 3,3 7,5 10,8 2,1 4,3 4,6 0,1 -1,4 -3,4 -4,0 -9,0 -14,0 -5,0 -9,0 -14,0l0 0c-4,0 -8,0 -13,0z"/>
   </clipPath>
   <clipPath id="id11">
    <path d="M543 523c-3,0 -6,-2 -7,-5 0,-2 -1,-4 -1,-6 -6,-16 -10,-33 -13,-50 0,-1 0,-2 0,-3 -4,18 -9,34 -16,51 -2,3 -4,5 -7,5 0,0 0,0 0,0 -5,-1 -9,-5 -7,-11 13,-31 20,-62 21,-95 -2,0 -2,-2 -3,-3l-2 -9 -1 0c-15,-23 -39,-57 -38,-86 0,-16 9,-26 22,-30 4,-1 8,-2 12,-3 2,0 4,0 5,0 2,0 3,0 4,0 3,0 6,1 8,1 1,0 2,0 2,0 4,0 7,0 10,0 1,0 2,0 2,0 9,0 17,2 22,7 1,1 2,1 2,2 1,1 2,1 3,2 5,4 3,9 0,12 0,0 0,0 0,0 0,0 0,0 0,0 0,2 0,3 0,5 0,1 0,1 0,2 1,12 -3,25 -9,38 -4,14 -9,29 -17,43 1,1 1,2 0,3 0,3 -2,6 -5,8 2,38 9,75 21,111 1,3 0,6 -2,8 -2,2 -4,3 -6,3zm-23 -219c0,0 0,0 0,0 -8,0 -17,1 -25,2 -6,1 -6,10 0,10 0,0 1,0 1,0 8,-1 16,-1 24,-2 6,-1 7,-10 0,-10z"/>
   </clipPath>
   <clipPath id="id12">
    <path d="M873 1313c-8,0 -15,0 -23,0 -1,0 -2,-3 -1,-4 4,-6 7,-13 12,-18 4,-4 7,-7 11,-11 4,-4 9,-9 13,-14 5,-4 10,-7 17,-7 1,0 1,0 2,0 1,0 2,0 2,0 1,0 2,0 3,0 0,0 1,0 2,0 2,0 5,0 7,2 9,1 13,7 18,13 0,0 1,1 1,2 -1,4 1,8 2,11 1,3 1,5 1,7 0,3 0,5 0,7 -1,1 -1,3 -2,3 -2,2 -5,3 -7,3 -4,1 -8,0 -12,2 -2,1 -5,1 -8,1 0,0 0,0 0,0 0,0 -1,0 -1,0 -1,0 -2,0 -4,0 -3,1 -6,0 -9,2 -1,0 -1,0 -2,0 -1,0 -2,0 -3,-1 -1,0 -2,-1 -4,-1 0,0 0,0 0,0 -1,0 -3,1 -4,1 0,0 -1,-1 -2,-1 -1,0 -1,0 -2,0 -3,0 -5,1 -7,3z"/>
   </clipPath>
   <clipPath id="id13">
    <path d="M466 71c-2,0 -4,0 -5,0 -4,-1 -6,-3 -10,-3 0,0 -1,0 -1,0 0,0 0,0 0,0 -2,0 -4,-1 -5,-2 -2,-1 -3,-2 -5,-2 -14,-5 -24,-15 -33,-25 -4,-4 -6,-8 -9,-12 -1,-3 -2,-7 -3,-10 -1,-2 -1,-4 -2,-7 -2,-2 1,-7 4,-7 0,0 1,0 2,0 2,0 4,0 6,1 5,1 10,4 16,5 4,1 8,5 14,5 1,0 1,1 2,2 10,7 28,22 34,31 5,7 11,13 17,19 0,1 0,2 0,3 0,1 -1,2 -2,2 -2,0 -4,0 -6,0 -2,0 -4,0 -7,0l0 0c-2,0 -5,0 -7,0l0 0z"/>
   </clipPath>
   <clipPath id="id14">
    <path d="M587 63c-1,0 -1,-1 -2,-1 -1,0 -2,0 -2,0 -1,0 -2,0 -2,0 -1,0 -2,0 -2,0 -1,0 -2,0 -2,0 -2,0 -3,-1 -3,-3 -1,-11 5,-20 12,-29 4,-6 10,-11 16,-16 1,-1 3,-2 4,-3 5,-2 10,-6 16,-6 4,-4 10,-1 14,-5 4,0 9,0 13,0l0 0c2,0 4,0 6,0 2,0 4,0 5,0 2,0 3,2 3,3 -4,6 -5,12 -10,17 -3,3 -5,8 -9,11 -8,7 -16,15 -26,20 -2,1 -3,1 -4,2 -4,2 -7,4 -11,6 0,0 -1,0 -1,0 -3,0 -5,1 -8,2 -2,1 -5,2 -7,2z"/>
   </clipPath>
   <clipPath id="id15">
    <path d="M473 223c-5,0 -8,-2 -11,-8 -3,-9 -5,-13 -5,-23 -1,-11 5,-20 9,-30 1,-1 2,-2 3,-2 3,-2 5,-3 8,-4 3,-1 5,-2 7,-2 3,0 5,1 8,4 4,4 6,7 6,13 3,4 2,10 4,16 3,4 2,9 -1,14 -2,4 -4,8 -6,11 -2,8 -8,10 -15,11 -1,0 -1,0 -2,0 0,0 -1,0 -1,0 0,0 -1,0 -1,0 -1,0 -1,0 -2,0 0,0 -1,0 -1,0l0 0zm9 -57c-16,0 -17,25 0,25 16,0 17,-25 0,-25l0 0z"/>
   </clipPath>
   <clipPath id="id16">
    <path d="M564 222c0,0 -1,0 -1,-1 -3,-1 -6,-3 -9,-4 -10,-3 -11,-12 -13,-20 -1,-4 0,-9 0,-13 0,-1 0,-3 1,-4 4,-5 5,-11 7,-17 2,-4 5,-7 10,-7 0,0 0,0 1,0 0,0 1,0 1,0 1,0 1,0 2,0 1,0 1,0 2,0 0,0 0,0 0,0 7,0 11,3 13,9 -2,-1 -4,-2 -7,-2 -16,0 -17,26 0,26 5,0 8,-2 10,-5 0,2 0,4 0,6 0,2 2,8 -2,13 1,6 -5,9 -7,14 -1,2 -4,3 -7,5 0,0 0,0 -1,0l0 0z"/>
   </clipPath>
   <clipPath id="id17">
    <path d="M482 191c-17,0 -16,-25 0,-25 17,0 16,25 0,25z"/>
   </clipPath>
   <clipPath id="id18">
    <path d="M571 189c-17,0 -16,-26 0,-26 3,0 5,1 7,2 6,4 7,13 3,19 -2,3 -5,5 -10,5z"/>
   </clipPath>
   <clipPath id="id19">
    <path d="M495 316c-6,0 -6,-9 0,-10 8,-1 17,-2 25,-2 0,0 0,0 0,0 7,0 6,9 0,10 -8,1 -16,1 -24,2 0,0 -1,0 -1,0l0 0z"/>
   </clipPath>
 </defs>
 <g id="Layer_x0020_1">
  <metadata id="CorelCorpID_0Corel-Layer"/>
  <g style="clip-path:url(#id0)">
   <image transform="matrix(0 -1 -1 0 1040.93 1387.77)" x="0" y="0" width="128" height="1042" xlink:href="Dog17_Images\Dog17_ImgID1.png"/>
  </g>
  <g style="clip-path:url(#id1)">
   <image transform="matrix(0 -1 -1 0 825.868 1331.82)" x="0" y="0" width="723" height="539" xlink:href="Dog17_Images\Dog17_ImgID2.png"/>
  </g>
  <g style="clip-path:url(#id2)">
   <image transform="matrix(0 -1 -1 0 514.253 721.607)" x="0" y="0" width="469" height="269" xlink:href="Dog17_Images\Dog17_ImgID3.png"/>
  </g>
  <g style="clip-path:url(#id3)">
   <image transform="matrix(0 -1 -1 0 771.86 692.468)" x="0" y="0" width="463" height="244" xlink:href="Dog17_Images\Dog17_ImgID4.png"/>
  </g>
  <g style="clip-path:url(#id4)">
   <image transform="matrix(0 -1 -1 0 921.062 1306.37)" x="0" y="0" width="358" height="167" xlink:href="Dog17_Images\Dog17_ImgID5.png"/>
  </g>
  <g style="clip-path:url(#id5)">
   <image transform="matrix(0 -1 -1 0 318.425 1323.86)" x="0" y="0" width="354" height="147" xlink:href="Dog17_Images\Dog17_ImgID6.png"/>
  </g>
  <g style="clip-path:url(#id6)">
   <image transform="matrix(0 -1 -1 0 636.063 281.579)" x="0" y="0" width="211" height="227" xlink:href="Dog17_Images\Dog17_ImgID7.png"/>
  </g>
  <g style="clip-path:url(#id7)">
   <image transform="matrix(0 -1 -1 0 438.681 250.884)" x="0" y="0" width="169" height="200" xlink:href="Dog17_Images\Dog17_ImgID8.png"/>
  </g>
  <g style="clip-path:url(#id8)">
   <image transform="matrix(0 -1 -1 0 816.349 202.315)" x="0" y="0" width="130" height="192" xlink:href="Dog17_Images\Dog17_ImgID9.png"/>
  </g>
  <g style="clip-path:url(#id9)">
   <image transform="matrix(0 -1 -1 0 570.204 630.494)" x="0" y="0" width="171" height="106" xlink:href="Dog17_Images\Dog17_ImgID10.png"/>
  </g>
  <g style="clip-path:url(#id10)">
   <image transform="matrix(0 -1 -1 0 269.857 1335.71)" x="0" y="0" width="64.1103" height="133.66" xlink:href="Dog17_Images\Dog17_ImgID11.png"/>
  </g>
  <g style="clip-path:url(#id11)">
   <image transform="matrix(0 -1 -1 0 568.261 523.838)" x="0" y="0" width="248" height="103" xlink:href="Dog17_Images\Dog17_ImgID12.png"/>
  </g>
  <g style="clip-path:url(#id12)">
   <image transform="matrix(0 -1 -1 0 942.044 1314.34)" x="0" y="0" width="58.2821" height="96.7483" xlink:href="Dog17_Images\Dog17_ImgID13.png"/>
  </g>
  <g style="clip-path:url(#id13)">
   <image transform="matrix(0 -1 -1 0 490.94 72.3463)" x="0" y="0" width="71.4927" height="100.634" xlink:href="Dog17_Images\Dog17_ImgID14.png"/>
  </g>
  <g style="clip-path:url(#id14)">
   <image transform="matrix(0 -1 -1 0 665.204 64.7696)" x="0" y="0" width="66.053" height="92.8628" xlink:href="Dog17_Images\Dog17_ImgID15.png"/>
  </g>
  <g style="clip-path:url(#id15)">
   <image transform="matrix(0 -1 -1 0 506.482 225.434)" x="0" y="0" width="73.4354" height="52.4539" xlink:href="Dog17_Images\Dog17_ImgID16.png"/>
  </g>
  <g style="clip-path:url(#id16)">
   <image transform="matrix(0 -1 -1 0 585.746 223.491)" x="0" y="0" width="69.55" height="46.6257" xlink:href="Dog17_Images\Dog17_ImgID17.png"/>
  </g>
  <g style="clip-path:url(#id17)">
   <image transform="matrix(0 -1 -1 0 500.654 192.602)" x="0" y="0" width="29.141" height="36.912" xlink:href="Dog17_Images\Dog17_ImgID18.png"/>
  </g>
  <g style="clip-path:url(#id18)">
   <image transform="matrix(0 -1 -1 0 587.688 190.659)" x="0" y="0" width="29.141" height="34.9693" xlink:href="Dog17_Images\Dog17_ImgID19.png"/>
  </g>
  <g style="clip-path:url(#id19)">
   <image transform="matrix(0 -1 -1 0 527.852 318.491)" x="0" y="0" width="17.4846" height="40.7975" xlink:href="Dog17_Images\Dog17_ImgID20.png"/>
  </g>
 </g>
</svg>
