<?xml version="1.0" encoding="UTF-8"?>
<!DOCTYPE svg PUBLIC "-//W3C//DTD SVG 1.1//EN" "http://www.w3.org/Graphics/SVG/1.1/DTD/svg11.dtd">
<!-- Creator: CorelDRAW X7 -->
<svg xmlns="http://www.w3.org/2000/svg" xml:space="preserve" width="4.43527in" height="5.9382in" version="1.1" style="shape-rendering:geometricPrecision; text-rendering:geometricPrecision; image-rendering:optimizeQuality; fill-rule:evenodd; clip-rule:evenodd"
viewBox="0 0 2017 2700"
 xmlns:xlink="http://www.w3.org/1999/xlink">
 <defs>
  <style type="text/css">
   <![CDATA[
    .fil0 {fill:black}
   ]]>
  </style>
 </defs>
 <g id="elements">
  <metadata id="CorelCorpID_0Corel-Layer"/>
  <path class="fil0" d="M1093 2687c-6,-6 33,-9 0,0 -7,-6 -15,-13 -22,-19 -41,66 -42,9 -96,18 -28,-34 -98,-35 -103,-68 -58,-58 -46,-161 -102,-217 -4,-21 -2,-42 7,-62 -18,-22 -36,-44 -54,-67 -8,-54 -36,-91 -36,-140 -29,-29 -44,-82 -52,-125 -6,-30 -57,-101 -26,-118 -52,-45 -41,-50 -19,-114 -33,0 -17,15 -40,15 -20,-30 -4,-141 -13,-184 -49,-4 -79,-60 -96,-105 -28,34 -8,73 -34,105 -77,-23 -61,62 -122,49 -105,-21 -155,-76 -204,-176 -23,-47 -4,-103 -30,-139 -42,-60 -5,-101 4,-164 8,-56 11,-106 11,-163 15,-8 61,-58 76,-76 35,-42 24,-89 -14,-122 -14,-18 -31,-24 -53,-18 -11,-27 -19,-77 -40,-99 -26,-25 -24,-87 -21,-119 -42,-18 23,-63 35,-96 18,-48 145,-135 182,-153 51,-26 89,-54 145,-72 46,22 95,-7 101,-40 42,19 66,-16 81,-60 9,18 29,4 68,21 22,-33 33,-37 54,-61 35,-38 80,-30 127,-30 41,-28 79,-57 126,-76 28,-12 214,-22 191,7 73,62 24,127 61,195 -10,8 -22,13 -36,15 20,37 47,77 31,104 25,3 90,45 44,61 35,31 28,49 57,90 -48,17 51,101 -4,123 43,8 58,81 47,124 33,40 48,63 59,114 23,108 25,198 94,293 50,70 125,113 161,193 23,52 7,121 29,174 16,39 -26,101 26,137 -41,33 45,164 79,180 48,24 183,71 183,133 108,49 56,114 -15,165 -76,-11 -120,82 -191,11 0,1 0,1 0,1 -4,48 -205,-41 -207,-40 -8,-16 -26,-38 -37,-54 -11,14 -28,24 -40,36 79,-73 -135,-124 -137,-116 -9,33 -11,45 -35,70 -8,-25 -24,-33 -49,-24 -31,-19 -36,-58 -67,-76 -2,40 9,61 26,98 -28,15 -6,-40 -43,-13 5,-24 -3,-41 -25,-52 -7,45 -25,85 -75,71 13,28 7,43 -17,45 53,40 50,147 43,213 13,41 55,122 53,160 -1,54 62,58 62,110 -63,9 -51,111 -108,127z"/>
 </g>
</svg>
