<?xml version="1.0" encoding="UTF-8"?>
<!DOCTYPE svg PUBLIC "-//W3C//DTD SVG 1.1//EN" "http://www.w3.org/Graphics/SVG/1.1/DTD/svg11.dtd">
<!-- Creator: CorelDRAW X7 -->
<svg xmlns="http://www.w3.org/2000/svg" xml:space="preserve" width="0.976823in" height="0.816571in" version="1.1" style="shape-rendering:geometricPrecision; text-rendering:geometricPrecision; image-rendering:optimizeQuality; fill-rule:evenodd; clip-rule:evenodd"
viewBox="0 0 631 527"
 xmlns:xlink="http://www.w3.org/1999/xlink">
 <defs>
  <style type="text/css">
   <![CDATA[
    .fil0 {fill:#373435;fill-rule:nonzero}
   ]]>
  </style>
 </defs>
 <g id="__x0023_Layer_x0020_1">
  <metadata id="CorelCorpID_0Corel-Layer"/>
  <path class="fil0" d="M578 12c8,1 20,30 30,34 9,3 20,11 14,17 -7,7 -23,2 -23,8 0,6 7,6 12,12 5,6 -3,3 0,8 4,6 26,5 18,12 -8,6 -21,5 -26,8 -6,3 13,9 3,14 -10,5 -22,-6 -22,3 0,10 1,12 5,17 4,6 11,15 1,13 -10,-1 -16,-9 -15,1 0,10 -7,19 -10,28 -2,8 -5,9 0,20 5,11 2,5 -3,16 -4,12 -3,20 -10,32 -8,12 -18,12 -20,22 -1,10 -11,36 -9,44 2,9 5,13 -4,21 -10,8 -5,7 -29,21 -23,14 -40,23 -41,34 -2,11 0,30 2,38 3,7 -1,13 0,23 1,10 -4,33 8,39 11,7 26,22 22,26 -5,3 -7,4 -16,4 -10,0 -31,-1 -33,-2 -3,-1 -5,-8 -11,-10 -7,-2 -21,-5 -26,-7 -6,-1 -2,-9 -3,-18 -1,-9 0,-14 -4,-19 -3,-6 -10,-3 -5,-15 5,-13 6,-15 6,-24 0,-10 -2,-10 -1,-23 0,-12 6,-18 -11,-28 -16,-10 -22,-16 -40,-23 -18,-6 -11,-9 -34,-14 -24,-6 -37,-16 -47,-10 -10,7 -27,33 -31,37 -4,4 -28,18 -36,29 -7,11 -19,18 -21,30 -3,13 -11,53 -4,56 7,3 25,21 20,24 -6,3 -22,2 -33,0 -11,-1 -6,-7 -18,-10 -13,-3 -10,5 -16,-5 -5,-9 -10,-26 -10,-35 0,-8 4,-30 0,-38 -4,-7 -11,-14 -5,-21 6,-8 -9,-29 -6,-37 6,-18 -10,-8 -13,-40 -2,-22 -9,-16 3,-34 12,-18 9,-13 13,-32 5,-19 10,-17 9,-33 -2,-17 -4,-21 -9,-33 -6,-12 -47,-52 -61,-33 -13,20 -29,21 -23,9 6,-12 16,-53 8,-44 -9,8 -32,0 -19,-17 14,-16 -7,-36 13,-45 21,-10 58,-9 62,-9 4,-1 -43,-43 -21,-44 23,0 58,9 63,16 5,7 45,-39 51,-21 6,19 -27,52 -5,43 21,-9 59,-23 47,-7 -12,15 34,-1 26,19 -7,20 -14,38 -42,34 -29,-3 -52,-15 -63,3 -10,19 -17,51 -2,63 15,12 8,13 41,4 33,-8 132,10 143,10 10,0 63,8 77,2 14,-6 16,-14 5,-11 -10,3 -15,-2 -9,-11 6,-9 9,-17 -8,-16 -16,2 -28,-4 -13,-12 16,-7 40,-19 27,-21 -12,-1 -29,-2 -22,-10 7,-8 -1,-18 3,-23 3,-4 13,-8 13,-12 0,-5 -5,-12 12,-12 16,0 48,3 56,13 7,10 0,18 11,17 11,-1 42,-4 47,-6 4,-2 2,-19 6,-23 5,-4 14,-14 23,-23 10,-9 21,-16 33,-13z"/>
 </g>
</svg>
