<?xml version="1.0" encoding="UTF-8"?>
<!DOCTYPE svg PUBLIC "-//W3C//DTD SVG 1.1//EN" "http://www.w3.org/Graphics/SVG/1.1/DTD/svg11.dtd">
<!-- Creator: CorelDRAW X7 -->
<svg xmlns="http://www.w3.org/2000/svg" xml:space="preserve" width="2.769in" height="3.29922in" version="1.1" style="shape-rendering:geometricPrecision; text-rendering:geometricPrecision; image-rendering:optimizeQuality; fill-rule:evenodd; clip-rule:evenodd"
viewBox="0 0 553 659"
 xmlns:xlink="http://www.w3.org/1999/xlink">
 <defs>
  <style type="text/css">
   <![CDATA[
    .fil2 {fill:#FEFEFE}
    .fil0 {fill:#AB723A}
    .fil3 {fill:#424242}
    .fil1 {fill:#363435}
   ]]>
  </style>
 </defs>
 <g id="Layer_x0020_1">
  <metadata id="CorelCorpID_0Corel-Layer"/>
  <path class="fil0" d="M383 112c18,-42 62,-81 99,-108 23,21 19,75 19,104 0,23 0,62 -19,79l-99 -75z"/>
  <path class="fil1" d="M386 114c20,-44 60,-79 98,-107 -1,0 -3,0 -4,0 11,10 14,25 16,40 2,15 2,31 1,47 0,15 1,30 -1,44 -1,16 -4,34 -16,46 -4,3 2,9 5,5 24,-22 20,-63 20,-93 0,-17 1,-35 -2,-52 -2,-16 -6,-32 -18,-43 -1,-1 -3,-1 -4,0 -40,28 -81,64 -102,109 -2,4 5,8 7,4l0 0z"/>
  <path class="fil0" d="M113 126c-2,-6 -6,-10 -11,-14 -18,-21 -41,-48 -62,-67 -29,-22 -25,25 -25,44 0,31 -6,64 0,96 2,12 13,49 25,49l73 -108z"/>
  <path class="fil1" d="M117 125c-3,-7 -8,-12 -13,-18 -7,-7 -14,-15 -21,-23 -13,-15 -27,-31 -43,-43 -6,-5 -16,-8 -22,-1 -7,8 -7,20 -7,29 0,14 0,28 0,42 -2,22 -4,44 -1,66 2,14 5,27 10,39 4,9 9,21 20,22 5,1 5,-7 0,-7 -8,-1 -13,-20 -15,-26 -4,-11 -7,-23 -8,-34 -3,-31 2,-63 2,-94 0,-9 0,-19 2,-27 4,-12 14,-4 20,1 12,12 24,24 35,37 6,6 11,13 17,19 6,7 13,12 16,20 2,5 9,3 7,-2l1 0z"/>
  <path class="fil2" d="M262 334c-58,-25 -120,-48 -185,-48 -22,2 -52,9 -73,24 -4,95 45,186 115,255 44,41 104,97 168,89 65,-8 119,-77 158,-123 46,-54 94,-116 102,-189 2,-11 2,-23 1,-35 -80,-62 -204,-24 -286,27z"/>
  <path class="fil1" d="M264 331c-42,-19 -86,-35 -132,-43 -21,-4 -44,-7 -65,-5 -19,3 -38,8 -55,17 -3,2 -8,4 -11,7 -2,3 -1,8 -1,10 0,11 1,22 2,32 2,20 6,40 12,59 13,39 33,76 58,109 24,32 53,60 84,86 29,25 62,48 101,54 76,13 135,-58 179,-109 54,-63 107,-129 116,-214 0,-6 0,-12 1,-18 0,-1 0,-3 0,-5l0 -1c0,-3 -1,-5 -2,-6 -6,-6 -15,-10 -23,-14 -15,-9 -32,-14 -50,-16 -36,-6 -74,-1 -109,9 -38,10 -75,27 -109,48 -4,2 0,9 4,6 79,-49 200,-90 283,-27 -1,-1 -2,-2 -2,-3 3,91 -54,165 -111,231 -46,54 -106,129 -186,109 -35,-8 -66,-31 -92,-54 -28,-24 -54,-49 -76,-78 -45,-58 -75,-130 -72,-205 -1,1 -1,2 -2,3 16,-11 35,-18 55,-21 22,-4 45,-1 66,2 46,8 91,25 133,43 5,2 9,-4 4,-6z"/>
  <path class="fil0" d="M349 78c-37,-7 -71,8 -108,3 -38,-6 -84,4 -116,28 -39,29 -76,59 -97,105 -15,32 -22,64 -24,96 21,-15 51,-22 73,-24 65,0 127,23 185,48 82,-51 206,-89 286,-27 -2,-47 -20,-95 -47,-135 -36,-50 -92,-83 -152,-94z"/>
  <path class="fil1" d="M350 74c-21,-4 -41,-1 -62,1 -11,2 -22,3 -33,3 -10,0 -20,-2 -30,-3 -38,-1 -76,10 -106,33 -30,23 -60,48 -81,80 -24,35 -36,80 -38,122 0,3 4,5 6,3 17,-12 37,-18 57,-21 23,-4 47,-1 70,3 23,5 46,11 68,19 11,4 21,8 32,12 5,2 10,4 15,6 4,2 11,7 15,6 4,-1 7,-4 10,-6 4,-2 8,-5 12,-7 8,-4 17,-9 26,-13 18,-8 36,-15 55,-21 37,-11 76,-16 114,-9 25,4 47,14 67,28 2,2 5,0 5,-3 -3,-57 -26,-116 -65,-158 -35,-39 -86,-65 -137,-75 -5,-1 -7,6 -2,7 50,10 97,34 132,72 19,19 33,43 44,68 12,27 19,56 21,86 2,-1 3,-2 5,-3 -85,-65 -208,-24 -290,27 2,0 3,0 4,0 -44,-19 -90,-37 -138,-44 -42,-7 -87,-6 -124,20 2,1 4,2 6,3 2,-41 14,-83 36,-118 20,-32 50,-55 79,-77 30,-23 65,-33 102,-32 9,0 18,2 28,2 10,1 20,0 30,-1 21,-3 43,-6 65,-3 4,1 7,-6 2,-7z"/>
  <path class="fil3" d="M220 337c-24,-48 59,-61 85,-33 24,28 -17,41 -39,47 -16,0 -38,0 -46,-14z"/>
  <path class="fil1" d="M223 335c-19,-40 43,-48 68,-36 8,3 16,11 17,20 1,10 -10,16 -18,19 -9,5 -19,9 -30,9 -12,0 -29,0 -37,-12 -3,-4 -9,0 -7,4 9,13 24,15 38,15 14,1 26,-3 39,-8 10,-5 21,-12 23,-23 2,-12 -8,-23 -17,-28 -32,-21 -106,-5 -83,44 3,4 9,0 7,-4z"/>
  <path class="fil1" d="M381 221c-2,-2 -3,-3 -7,-3 -1,0 -2,1 -3,2 -4,9 -6,29 6,33 16,6 20,-16 18,-26 -1,-7 -3,-13 -8,-17 -5,-2 -11,-3 -15,2 -8,10 1,26 12,28 2,1 4,0 5,-3 2,-9 -3,-14 -11,-17 -2,0 -5,1 -5,3 -2,11 -2,24 11,28 2,0 4,-1 5,-3 4,-10 0,-21 -8,-27 -3,-2 -5,0 -6,2 -2,5 -2,10 -2,16 0,5 7,5 7,0 0,-5 1,-10 2,-14 -2,1 -3,2 -5,2 6,5 7,12 4,19 2,-1 3,-2 5,-3 -9,-2 -7,-11 -6,-18 -1,1 -3,2 -4,3 4,1 7,3 5,7 2,0 3,-1 5,-2 -6,-1 -10,-9 -9,-15 1,-3 5,-2 7,-1 3,3 3,8 4,12 0,4 0,8 -1,12 -1,3 -5,7 -9,4 -4,-4 -2,-16 0,-21 -1,1 -2,1 -4,2 1,0 1,0 2,1 3,3 9,-2 5,-6l0 0z"/>
  <path class="fil1" d="M149 220c-15,4 -11,28 -3,37 4,5 10,5 14,0 5,-8 6,-19 4,-27 -1,-8 -10,-16 -17,-8 -6,6 -4,19 -3,26 2,7 7,15 15,10 6,-5 7,-16 4,-23 -4,-7 -15,-13 -20,-4 -3,7 -1,19 4,25 3,2 7,0 7,-3 0,-5 0,-11 0,-17 0,-3 -4,-5 -7,-2 -3,4 -5,7 -5,13 0,5 8,5 8,0 0,-4 1,-5 3,-8 -2,-1 -4,-2 -7,-3 0,6 0,12 0,17 3,-1 5,-2 7,-3 -2,-2 -6,-14 -2,-16 2,-2 5,4 6,6 1,3 0,6 -1,9 -3,7 -4,-5 -5,-7 0,-2 0,-18 4,-15 5,4 2,14 1,19 -1,3 -1,5 -3,7 0,0 -1,-1 -1,-1 -4,-5 -9,-22 -1,-24 5,-2 3,-9 -2,-8l0 0z"/>
  <path class="fil1" d="M260 350c-7,6 -4,19 -3,27 2,12 5,24 6,36 0,5 7,5 7,0 0,-10 -3,-19 -4,-29 -1,-6 -2,-12 -3,-18 0,-3 0,-8 2,-11 4,-3 -2,-8 -5,-5l0 0z"/>
  <path class="fil1" d="M197 398c6,10 18,15 28,19 13,5 26,7 40,7 30,-2 61,-15 81,-37 3,-4 -2,-10 -5,-6 -18,21 -47,33 -74,35 -12,1 -23,-1 -34,-5 -10,-3 -24,-8 -30,-17 -2,-4 -9,0 -6,4l0 0z"/>
  <path class="fil1" d="M126 438c-4,10 -5,20 -7,30 0,5 7,7 8,2 2,-9 2,-19 6,-28 2,-5 -5,-8 -7,-4l0 0z"/>
  <path class="fil1" d="M150 461c0,7 1,15 3,22 1,4 9,2 7,-2 -2,-7 -2,-14 -2,-20 0,-5 -8,-5 -8,0l0 0z"/>
  <path class="fil1" d="M190 476c-2,10 3,18 9,25 4,3 9,-2 6,-6 -5,-4 -9,-10 -8,-17 2,-4 -6,-6 -7,-2l0 0z"/>
  <path class="fil1" d="M242 496c0,6 1,11 5,15 4,4 9,-2 6,-5 -3,-3 -3,-6 -3,-10 0,-5 -8,-5 -8,0l0 0z"/>
  <path class="fil1" d="M340 463c2,4 4,10 6,14 2,5 9,1 7,-4 -2,-4 -4,-9 -6,-14 -3,-5 -9,-1 -7,4l0 0z"/>
  <path class="fil1" d="M369 438c0,2 0,4 0,6 1,3 3,4 6,6 4,2 8,-5 3,-7 0,0 0,0 0,-1 0,0 -1,0 -1,0 0,0 -1,-1 0,0 0,0 -1,-1 0,0 -1,-1 -1,-1 -1,-1 0,-1 0,1 0,-1 0,0 0,-1 0,-2 0,-5 -7,-5 -7,0l0 0z"/>
  <path class="fil1" d="M388 430c3,3 6,4 9,6 3,4 9,-2 5,-5 -2,-2 -6,-4 -8,-6 -4,-4 -9,2 -6,5l0 0z"/>
  <path class="fil1" d="M412 398c4,0 8,0 12,0 5,0 5,-8 0,-8 -4,0 -8,0 -12,0 -5,0 -5,8 0,8l0 0z"/>
  <path class="fil1" d="M300 479c0,7 0,12 2,18 2,5 9,3 8,-2 -2,-5 -2,-10 -2,-16 0,-4 -8,-4 -8,0l0 0z"/>
 </g>
</svg>
