<?xml version="1.0" encoding="UTF-8"?>
<!DOCTYPE svg PUBLIC "-//W3C//DTD SVG 1.1//EN" "http://www.w3.org/Graphics/SVG/1.1/DTD/svg11.dtd">
<!-- Creator: CorelDRAW X7 -->
<svg xmlns="http://www.w3.org/2000/svg" xml:space="preserve" width="1.24961in" height="1.31486in" version="1.1" style="shape-rendering:geometricPrecision; text-rendering:geometricPrecision; image-rendering:optimizeQuality; fill-rule:evenodd; clip-rule:evenodd"
viewBox="0 0 288 303"
 xmlns:xlink="http://www.w3.org/1999/xlink">
 <defs>
  <style type="text/css">
   <![CDATA[
    .fil0 {fill:#0089BD;fill-rule:nonzero}
   ]]>
  </style>
 </defs>
 <g id="Vector_x0020_Graphics">
  <metadata id="CorelCorpID_0Corel-Layer"/>
  <path class="fil0" d="M177 2c2,12 3,23 3,34l-1 0c1,0 1,0 2,1 -2,1 0,2 0,3 0,4 1,8 1,12 -1,0 0,1 0,2 1,1 0,2 -1,3l0 0c2,1 0,2 0,3 -3,-6 -4,-10 -8,-15 -2,0 -4,-1 -5,1 0,9 3,17 3,26 0,4 -4,3 -7,5l0 -1c0,1 -1,2 -2,1l-1 0c0,1 -1,1 -1,2 -1,0 -1,-1 -1,-1 0,0 0,1 0,1 -1,-1 -2,0 -3,1l0 0c-1,0 -1,-1 -1,0l-1 0c-1,0 -3,0 -5,-1 -2,2 -5,1 -7,3l-1 -1 -1 1c0,0 0,0 -1,0l0 0c-2,0 -5,2 -7,1 -1,1 -1,2 -2,2 -1,-1 -3,0 -4,0l-1 1c-1,-1 -3,1 -4,0l-1 0 -1 1c0,-1 -1,-1 0,-1 0,2 -3,0 -3,2 -1,0 -1,-1 -1,-1 0,0 0,1 0,1l-1 -1 1 1c-2,0 -3,3 -4,0 0,1 0,1 0,2 0,0 -1,0 -1,0 0,1 -1,1 -1,1 0,0 -1,0 -1,-1 0,1 0,2 -1,2l0 0c-1,1 -1,3 -3,3 -7,17 -26,25 -43,29l0 -1c-6,2 -12,4 -19,4l-15 4c-7,5 -16,4 -23,8 -2,2 -4,4 -4,7l2 9 8 15c3,0 2,3 3,5l22 19 0 0c2,1 3,2 5,3l1 -1c2,3 7,2 9,5 2,-1 6,1 8,1l1 1c2,-1 5,0 7,1 5,1 9,2 14,2 0,1 0,2 1,2 3,-1 7,-1 9,2 0,0 1,0 1,0l1 0 0 0c1,2 3,0 4,0 2,0 4,1 6,3 2,-2 3,2 5,1 2,1 5,2 5,5 -2,0 -2,2 -3,4 2,4 3,8 8,11 0,3 0,6 0,8 0,0 -1,0 -1,1l1 0c-2,1 0,2 0,3 -1,4 -2,9 -1,12 -1,1 1,4 -1,4 -1,0 0,0 0,1 -2,1 0,4 -1,5 0,1 0,1 0,1l0 1 -1 -1c0,2 -1,5 0,6 0,4 -2,7 -3,11 1,1 1,3 0,4 0,2 0,5 -1,8 -2,0 0,2 -2,3 1,1 1,1 2,1l1 -1 0 1c2,-1 4,1 6,0 1,-1 3,1 4,0l0 0 1 0 0 0 1 0 108 1 1 0 56 0 1 -2c-1,0 -2,0 -3,-1 0,0 1,0 0,-1l-1 -1 1 0c1,-1 -1,0 -1,-1l0 0c-1,-1 -2,-1 -2,-2l0 0c-2,-2 -3,-5 -7,-5 0,0 0,1 -1,0l0 0 0 -1c-1,-2 -5,-3 -4,-5 -1,1 -1,0 -2,-1 0,0 0,-1 1,-1 -3,-1 -4,-5 -4,-7l1 0c-2,-2 -2,-4 -2,-6l0 0c0,-1 0,-1 1,-1 0,-1 -2,-3 -1,-4l0 0c0,-1 0,-2 -1,-2 1,-1 0,-2 0,-3 0,-4 -4,-8 -1,-11 -2,-1 -1,-2 -1,-3l1 -1c-1,-1 0,-1 0,-2l1 -2c-1,-2 2,-5 0,-7 0,0 0,-1 1,0 -2,-2 -1,-5 -1,-7l-1 -1c0,-5 -2,-10 1,-14 -2,-2 3,-3 0,-6 0,-4 0,-8 1,-12 0,-3 0,-6 0,-9l0 0c0,-1 -2,-3 -1,-4 -3,-2 -1,-6 -3,-8 0,0 0,0 1,0 -2,-2 0,-3 -2,-5 1,-2 -1,-3 -1,-5 -1,-3 -5,-5 -3,-8 -1,0 -2,0 -2,-1 1,-2 -2,-3 -1,-5 -2,-1 -2,-3 -3,-4 1,0 0,-1 0,-2 -1,0 -1,0 -1,-1 0,0 1,0 1,0 -2,-3 -3,-7 -5,-10l-2 -1 1 -1c-5,-5 -5,-13 -9,-19 0,-1 0,-2 -1,-3l0 0c-1,-2 -4,-5 -4,-7l-2 -2 -5 -13 -3 -5 -4 -13 -7 -14c-3,-5 -6,-10 -9,-15 -1,-3 -3,-6 -5,-9 -7,-8 -9,-19 -13,-29 -1,0 -3,0 -4,2z"/>
 </g>
</svg>
