<?xml version="1.0" encoding="UTF-8"?>
<!DOCTYPE svg PUBLIC "-//W3C//DTD SVG 1.1//EN" "http://www.w3.org/Graphics/SVG/1.1/DTD/svg11.dtd">
<!-- Creator: CorelDRAW X7 -->
<svg xmlns="http://www.w3.org/2000/svg" xml:space="preserve" width="1.89113in" height="1.28778in" version="1.1" style="shape-rendering:geometricPrecision; text-rendering:geometricPrecision; image-rendering:optimizeQuality; fill-rule:evenodd; clip-rule:evenodd"
viewBox="0 0 920 627"
 xmlns:xlink="http://www.w3.org/1999/xlink">
 <defs>
  <style type="text/css">
   <![CDATA[
    .fil0 {fill:#8AC43F;fill-rule:nonzero}
   ]]>
  </style>
 </defs>
 <g id="Vector_x0020_Graphics">
  <metadata id="CorelCorpID_0Corel-Layer"/>
  <path class="fil0" d="M100 109c-21,89 77,133 37,224 -6,26 -31,45 -46,68l19 114c-5,17 6,28 13,41 21,-6 36,12 55,0 -22,-13 -13,-38 -37,-50 -48,-96 69,-147 96,-223 9,26 -8,52 -27,73 11,45 57,64 82,104 22,-2 57,18 68,-9 -29,-29 -78,-12 -100,-59 -20,-51 51,-64 54,-105l19 -18c47,51 102,82 159,109 38,19 14,63 27,91l156 46c32,20 73,49 86,87 6,11 28,-5 27,13 50,-26 88,31 132,5 -28,-51 -87,-47 -122,-91l-69 -110 -13 -13c0,-65 0,-119 0,-178 3,-49 56,-16 82,-32 19,9 45,3 63,-5 13,-13 15,-30 23,-45 -32,-25 -89,-41 -91,-91 -38,-24 -82,-49 -132,-32 -58,21 -95,122 -169,77l-105 -68c-62,-27 -128,-46 -195,-18l-19 -10c-63,3 -130,8 -173,51 21,38 67,36 100,54zm506 315l0 0c10,-16 26,-18 41,-23 6,27 31,46 46,68 -31,-10 -80,-5 -87,-45zm-515 -378l0 0 55 -14c-14,14 -40,24 -55,14z"/>
 </g>
</svg>
