<?xml version="1.0" encoding="UTF-8"?>
<!DOCTYPE svg PUBLIC "-//W3C//DTD SVG 1.1//EN" "http://www.w3.org/Graphics/SVG/1.1/DTD/svg11.dtd">
<!-- Creator: CorelDRAW X7 -->
<svg xmlns="http://www.w3.org/2000/svg" xml:space="preserve" width="2.6158in" height="2.16313in" version="1.1" style="shape-rendering:geometricPrecision; text-rendering:geometricPrecision; image-rendering:optimizeQuality; fill-rule:evenodd; clip-rule:evenodd"
viewBox="0 0 9126 7546"
 xmlns:xlink="http://www.w3.org/1999/xlink">
 <defs>
  <style type="text/css">
   <![CDATA[
    .fil2 {fill:#AB723A}
    .fil0 {fill:#633C2D}
    .fil3 {fill:#424242}
    .fil1 {fill:#363435}
   ]]>
  </style>
 </defs>
 <g id="Layer_x0020_1">
  <metadata id="CorelCorpID_0Corel-Layer"/>
  <path class="fil0" d="M2358 773c-63,-190 -158,-285 -348,-349 -412,-158 -1141,-380 -1552,-158 -602,285 -380,887 -254,1394 127,506 190,1076 349,1583 190,633 696,443 1045,95l760 -2565z"/>
  <path class="fil1" d="M2412 758c-35,-100 -82,-191 -160,-264 -84,-79 -198,-113 -303,-152 -254,-94 -516,-168 -784,-206 -443,-61 -999,45 -1137,539 -58,208 -15,437 32,643 63,276 138,548 192,826 64,334 122,670 213,999 57,209 136,443 350,537 295,131 623,-106 822,-302 52,-51 -27,-130 -79,-80 -148,146 -337,292 -553,305 -275,17 -371,-276 -432,-490 -94,-327 -149,-665 -213,-999 -54,-278 -127,-550 -192,-826 -52,-222 -94,-473 6,-688 112,-241 401,-353 650,-369 282,-19 568,51 836,132 243,73 531,135 633,394 4,10 7,20 11,31 24,67 132,38 108,-30l0 0z"/>
  <path class="fil0" d="M6887 583c-222,-64 -127,-380 31,-475 285,-159 602,95 824,253 285,222 538,317 855,443 1235,602 -285,2312 -760,2914 -380,443 -1077,539 -919,-222l-31 -2913z"/>
  <path class="fil1" d="M6902 529c-127,-44 -95,-185 -44,-277 78,-143 247,-156 388,-117 282,77 507,324 756,466 382,217 918,283 1004,794 64,382 -156,791 -343,1107 -207,350 -459,671 -713,987 -169,209 -334,413 -603,494 -101,30 -225,37 -310,-36 -118,-101 -91,-303 -65,-436 14,-70 -94,-100 -108,-29 -34,176 -47,372 71,521 91,113 252,124 384,102 357,-61 576,-370 787,-633 256,-319 503,-647 705,-1003 181,-317 352,-695 308,-1070 -27,-223 -146,-406 -323,-540 -143,-109 -318,-160 -481,-230 -194,-83 -377,-188 -545,-316 -236,-181 -599,-440 -898,-242 -193,128 -256,477 0,566 68,24 97,-85 30,-108l0 0z"/>
  <path class="fil2" d="M1693 5397c-95,-222 -127,-475 -158,-697 -95,-539 -222,-1045 -349,-1584 -190,-950 -222,-2343 1077,-2470 443,-63 887,95 1330,190 507,127 950,63 1457,-32 538,-158 1203,-411 1773,-253 507,158 792,697 855,1204 190,1425 -981,2691 -1646,3863l-4339 -221z"/>
  <path class="fil1" d="M1747 5382c-124,-302 -144,-633 -206,-950 -67,-347 -149,-692 -231,-1036 -105,-444 -183,-889 -160,-1347 20,-392 127,-801 427,-1073 439,-397 1105,-301 1627,-175 337,82 666,164 1016,162 325,-3 671,-51 982,-146 564,-172 1296,-449 1845,-97 479,305 617,950 592,1478 -27,588 -279,1143 -564,1648 -337,598 -752,1148 -1092,1744 -36,63 61,119 97,57 564,-990 1373,-1893 1617,-3034 109,-514 75,-1074 -183,-1539 -119,-216 -297,-399 -517,-513 -256,-132 -565,-131 -843,-97 -312,38 -613,132 -912,224 -330,101 -676,155 -1022,163 -694,15 -1332,-351 -2032,-252 -404,57 -748,263 -946,625 -188,346 -220,762 -205,1148 16,431 116,844 214,1262 72,303 140,606 198,912 56,291 76,589 190,865 27,66 135,38 108,-29l0 0z"/>
  <path class="fil0" d="M954 5067c-247,521 -411,1233 -110,1754 274,466 849,630 1343,575 575,-82 1013,-548 1561,-685 502,-137 872,164 1266,411 79,49 159,96 241,137 68,48 142,88 218,121 76,32 156,57 237,74 449,107 915,-30 1189,-387 61,-86 112,-173 154,-260 41,-86 72,-172 95,-258 54,-281 36,-551 -34,-803 -24,-85 -53,-167 -88,-249 -114,-231 -255,-445 -416,-642 -54,-66 -110,-129 -168,-191 -694,-638 -1461,-1323 -2426,-1323 -97,-1 -195,3 -293,14 -879,69 -1728,507 -2360,1113 -55,57 -108,117 -157,181 -98,127 -183,266 -252,418z"/>
  <path class="fil1" d="M905 5039c-233,500 -389,1105 -189,1642 181,487 673,738 1168,777 579,47 1023,-305 1513,-553 281,-141 577,-219 885,-126 282,86 523,282 772,433 262,159 515,291 825,327 261,30 529,-31 755,-162 538,-313 679,-1004 553,-1570 -139,-625 -613,-1111 -1077,-1518 -432,-378 -903,-731 -1456,-906 -683,-215 -1455,-61 -2097,217 -667,288 -1337,767 -1652,1439 -30,65 66,122 97,57 275,-588 814,-993 1377,-1288 558,-292 1219,-461 1851,-399 610,59 1148,417 1609,796 499,411 1012,883 1210,1520 107,343 107,725 -45,1054 -132,286 -348,501 -649,601 -298,99 -638,56 -918,-78 -272,-130 -517,-317 -777,-470 -234,-138 -490,-231 -765,-205 -273,26 -531,163 -766,295 -255,145 -504,303 -789,385 -260,75 -548,51 -805,-27 -410,-124 -694,-441 -776,-860 -86,-444 56,-925 243,-1324 30,-65 -66,-122 -97,-57z"/>
  <path class="fil3" d="M3720 4831c-278,-28 -539,-423 -520,-694 22,-319 577,-336 819,-332 223,3 611,9 729,245 205,534 -699,822 -1028,781z"/>
  <path class="fil1" d="M3735 4777c-295,-42 -700,-613 -345,-817 136,-78 313,-90 467,-98 159,-7 324,-5 483,19 176,26 363,98 381,299 13,152 -94,276 -208,360 -211,156 -529,263 -793,235 -71,-8 -71,104 0,112 326,35 730,-116 960,-343 121,-119 175,-277 142,-443 -42,-211 -264,-296 -453,-328 -190,-33 -391,-32 -583,-18 -186,12 -386,45 -535,165 -154,126 -118,352 -47,512 89,201 252,400 476,449 9,1 17,3 25,4 71,10 102,-98 30,-108z"/>
  <path class="fil1" d="M5991 1959c17,-61 169,-347 232,-179 34,92 1,214 -30,302 -27,78 -168,258 -213,85 -29,-110 81,-257 175,-301 -23,-3 -45,-6 -68,-8 98,86 44,218 -32,300 30,4 59,8 88,12 -48,-83 -55,-164 -55,-257 -37,5 -74,10 -110,15 24,84 33,172 0,255 -27,67 81,96 108,30 40,-100 29,-214 0,-315 -18,-61 -111,-49 -110,15 0,114 12,213 71,313 17,30 63,38 88,12 116,-126 177,-332 31,-460 -20,-18 -43,-20 -68,-8 -147,68 -300,317 -209,477 113,198 317,71 390,-82 62,-128 118,-360 14,-482 -171,-200 -366,92 -410,247 -20,69 88,99 108,29l0 0z"/>
  <path class="fil1" d="M1995 1948c-39,-69 1,-131 78,-137 -16,-10 -32,-19 -48,-28 64,106 119,325 58,440 -14,25 -61,25 -83,14 -31,-16 -36,-71 -38,-100 -5,-69 8,-163 55,-216 -26,0 -52,0 -79,0 69,80 77,209 79,309 32,-14 64,-27 95,-40 -38,-48 -56,-109 -95,-158 -38,-49 -101,6 -93,54 7,39 26,71 30,112 6,71 118,72 112,0 -5,-51 -26,-93 -34,-142 -31,19 -63,37 -94,55 39,48 56,109 95,158 32,40 97,6 96,-39 -3,-134 -21,-283 -112,-388 -19,-23 -59,-22 -79,0 -118,132 -151,541 114,512 267,-30 159,-480 69,-628 -9,-16 -29,-29 -48,-27 -161,12 -257,158 -175,306 35,63 132,6 97,-57l0 0z"/>
  <path class="fil1" d="M4108 4945c-50,-59 -77,-131 -127,-190 -37,-43 -110,3 -94,55 125,385 125,787 125,1188 0,73 112,73 112,0 0,-410 -1,-823 -129,-1218 -31,18 -62,36 -93,54 50,59 76,131 126,190 47,56 126,-24 80,-79l0 0z"/>
 </g>
</svg>
