<?xml version="1.0" encoding="UTF-8"?>
<!DOCTYPE svg PUBLIC "-//W3C//DTD SVG 1.1//EN" "http://www.w3.org/Graphics/SVG/1.1/DTD/svg11.dtd">
<!-- Creator: CorelDRAW X7 -->
<svg xmlns="http://www.w3.org/2000/svg" xml:space="preserve" width="5.25741in" height="2.85035in" version="1.1" style="shape-rendering:geometricPrecision; text-rendering:geometricPrecision; image-rendering:optimizeQuality; fill-rule:evenodd; clip-rule:evenodd"
viewBox="0 0 3510 1903"
 xmlns:xlink="http://www.w3.org/1999/xlink">
 <defs>
  <style type="text/css">
   <![CDATA[
    .fil0 {fill:#0F60AC;fill-rule:nonzero}
   ]]>
  </style>
 </defs>
 <g id="Vector_x0020_Graphics">
  <metadata id="CorelCorpID_0Corel-Layer"/>
  <path class="fil0" d="M2110 242l-37 328c67,54 25,153 37,230 -39,44 -75,9 -122,36 -59,102 2,215 49,303l73 -85 182 -315c122,-118 258,-232 400,-279 136,-15 249,22 364,61 54,117 191,152 157,292 -30,113 353,311 290,423 -59,88 -115,155 -218,182 -146,76 -238,-87 -364,-61 -28,8 -47,41 -72,61 -16,99 65,186 97,279 8,70 33,134 36,206l-2400 0c-21,-121 32,-242 49,-364 58,-117 43,-250 11,-375 -30,-2 -24,32 -36,49 -49,-3 -7,-65 -36,-85 -44,19 -96,56 -146,24 -33,-59 -74,10 -121,-13 -86,-27 -210,-19 -243,-121 -34,-63 -51,-132 -60,-205l375 -182c-20,-144 146,-146 218,-218 166,-9 378,-54 498,84 38,116 113,218 170,327l109 304 61 72c40,-68 76,-153 60,-230l61 -400c-137,-116 -130,-291 -195,-437 5,-41 -10,-88 13,-122 118,75 193,301 351,231 85,9 186,-20 256,25 73,-66 96,-155 144,-231 -16,-7 -16,-30 0,-36 51,74 10,168 -11,242z"/>
 </g>
</svg>
