<?xml version="1.0" encoding="UTF-8"?>
<!DOCTYPE svg PUBLIC "-//W3C//DTD SVG 1.1//EN" "http://www.w3.org/Graphics/SVG/1.1/DTD/svg11.dtd">
<!-- Creator: CorelDRAW X7 -->
<svg xmlns="http://www.w3.org/2000/svg" xml:space="preserve" width="1.34292in" height="2.04904in" version="1.1" style="shape-rendering:geometricPrecision; text-rendering:geometricPrecision; image-rendering:optimizeQuality; fill-rule:evenodd; clip-rule:evenodd"
viewBox="0 0 117 179"
 xmlns:xlink="http://www.w3.org/1999/xlink">
 <defs>
  <style type="text/css">
   <![CDATA[
    .fil0 {fill:#373435;fill-rule:nonzero}
   ]]>
  </style>
 </defs>
 <g id="__x0023_Layer_x0020_1">
  <metadata id="CorelCorpID_0Corel-Layer"/>
  <path class="fil0" d="M59 0c3,0 6,9 6,11 1,3 3,6 3,9 -1,4 -2,3 -1,6 2,4 3,8 4,11 2,2 3,4 2,7 0,3 -4,8 -5,9 -1,2 -1,5 0,7 1,2 -1,14 0,16 0,2 1,3 2,8 1,5 0,6 1,9 1,4 -1,13 -1,16 1,3 1,11 0,16 -2,4 -3,6 -1,9 2,3 8,13 9,16 1,2 3,6 7,7 4,1 11,0 15,1 4,1 8,2 11,5 3,3 8,4 5,5 -3,1 -10,2 -15,1 -5,0 -13,0 -14,0 -1,1 0,3 -1,4 -1,1 -5,2 -8,2 -3,0 -5,-1 -6,-2 -1,-1 -3,-2 -6,-1 -3,0 -9,1 -10,1 0,0 0,1 0,2 0,2 0,3 -2,3 -2,0 -6,0 -8,0 -1,0 -5,0 -5,-1 -1,0 -1,-1 0,-3 2,-1 1,-1 -1,-1 -2,0 -6,0 -7,0 -1,0 -1,2 -1,3 -1,2 -4,2 -7,2 -2,1 -7,1 -7,-1 0,-2 0,-3 0,-4 1,-1 2,-1 0,0 -2,1 -7,1 -11,0 -3,0 -7,2 -7,0 0,-1 1,-5 5,-6 5,-2 7,0 8,-2 1,-2 -4,-6 -3,-10 1,-5 7,-11 7,-12 1,-2 4,-4 4,-6 0,-2 -4,-17 -4,-28 1,-11 0,-20 4,-28 4,-7 5,-14 6,-17 2,-4 3,-6 3,-7 0,-2 -4,-6 -5,-9 -1,-2 -3,-4 -2,-9 2,-4 3,-7 3,-10 0,-3 1,-5 0,-7 -1,-2 0,-7 0,-10 1,-2 3,-8 3,-9 1,-1 3,-3 5,-1 2,3 5,8 5,10 1,1 0,3 2,3 2,-1 8,0 9,-1 1,-2 3,-6 3,-8 1,-1 3,-6 6,-6z"/>
 </g>
</svg>
