<?xml version="1.0" encoding="UTF-8"?>
<!DOCTYPE svg PUBLIC "-//W3C//DTD SVG 1.1//EN" "http://www.w3.org/Graphics/SVG/1.1/DTD/svg11.dtd">
<!-- Creator: CorelDRAW X7 -->
<svg xmlns="http://www.w3.org/2000/svg" xml:space="preserve" width="1.11279in" height="1.79813in" version="1.1" style="shape-rendering:geometricPrecision; text-rendering:geometricPrecision; image-rendering:optimizeQuality; fill-rule:evenodd; clip-rule:evenodd"
viewBox="0 0 176 285"
 xmlns:xlink="http://www.w3.org/1999/xlink">
 <defs>
  <style type="text/css">
   <![CDATA[
    .fil0 {fill:#373435;fill-rule:nonzero}
   ]]>
  </style>
 </defs>
 <g id="__x0023_Layer_x0020_1">
  <metadata id="CorelCorpID_0Corel-Layer"/>
  <path class="fil0" d="M23 27c3,-2 8,-4 11,0 3,4 3,7 6,7 4,0 21,-1 35,15 13,15 26,28 29,30 2,1 4,2 5,-2 0,-3 3,-7 0,-9 -4,-3 -9,-4 -10,-8 -1,-5 -1,-3 -2,-8 -2,-4 -6,-10 -6,-15 0,-6 -3,-18 2,-18 5,0 20,12 23,15 2,3 6,12 9,11 3,0 15,-3 16,-4 2,-2 5,-13 6,-16 1,-2 7,-9 7,-12 0,-3 2,-15 6,-13 4,3 8,20 8,23 0,3 1,17 0,20 0,3 -2,8 -2,10 1,2 5,11 5,15 -1,4 -2,10 0,13 1,3 7,16 5,19 -2,2 -10,9 -12,9 -3,0 -5,-3 -6,0 0,2 -6,13 -4,20 2,7 2,24 1,28 0,4 -8,20 -8,23 0,4 -3,19 -4,22 -1,3 -5,26 -5,28 0,1 0,15 4,18 3,3 10,7 12,10 1,4 -2,7 -6,7 -4,0 -10,-1 -12,-4 -3,-3 -6,-5 -7,-9 -2,-5 -2,-15 -2,-21 0,-7 1,-27 1,-38 0,-11 2,-19 -3,-18 -6,2 -22,11 -25,16 -3,5 -7,11 -8,14 0,3 -8,27 -8,31 0,5 -2,14 -4,19 -2,6 -1,15 -2,19 0,4 -5,12 -9,11 -4,-1 -8,-4 -8,-10 0,-7 3,-12 5,-19 2,-6 6,-16 6,-27 0,-12 4,-26 5,-33 1,-7 4,-19 3,-24 0,-5 -3,-15 -8,-16 -4,-2 -11,-18 -12,-15 -1,2 -5,16 -4,20 1,4 3,10 6,11 3,2 7,9 4,11 -3,2 -5,4 -10,1 -5,-2 -9,-9 -9,-14 -1,-4 0,-9 0,-14 -1,-5 -3,-9 -2,-16 1,-8 6,-14 6,-15 -1,-1 -6,-17 -8,-21 -3,-3 -14,3 -15,7 -2,3 -7,25 -8,30 -1,4 -6,17 -6,21 1,4 1,13 0,18 -1,5 3,22 3,26 0,4 -3,9 -7,9 -4,0 -12,-1 -10,-13 3,-12 4,-23 4,-29 0,-5 1,-8 2,-12 1,-4 3,-4 2,-11 -1,-7 -3,-20 -2,-24 1,-4 4,-19 3,-26 -1,-7 -2,-22 1,-29 3,-7 7,-17 8,-20 2,-3 4,-4 6,-8 1,-5 -6,-12 -1,-16z"/>
 </g>
</svg>
