<?xml version="1.0" encoding="UTF-8"?>
<!DOCTYPE svg PUBLIC "-//W3C//DTD SVG 1.1//EN" "http://www.w3.org/Graphics/SVG/1.1/DTD/svg11.dtd">
<!-- Creator: CorelDRAW X7 -->
<svg xmlns="http://www.w3.org/2000/svg" xml:space="preserve" width="1.38669in" height="1.17707in" version="1.1" style="shape-rendering:geometricPrecision; text-rendering:geometricPrecision; image-rendering:optimizeQuality; fill-rule:evenodd; clip-rule:evenodd"
viewBox="0 0 125 106"
 xmlns:xlink="http://www.w3.org/1999/xlink">
 <defs>
  <style type="text/css">
   <![CDATA[
    .fil0 {fill:#373435;fill-rule:nonzero}
   ]]>
  </style>
 </defs>
 <g id="__x0023_Layer_x0020_1">
  <metadata id="CorelCorpID_0Corel-Layer"/>
  <path class="fil0" d="M81 17c0,0 1,-2 1,-3 0,-1 0,-6 0,-7 1,-1 4,-2 6,-3 2,-1 5,-4 7,-3 2,1 2,2 5,1 2,0 5,-1 7,-1 3,0 3,-2 5,-1 1,1 0,2 3,2 3,0 8,0 9,3 0,2 0,6 1,6 0,1 -1,3 -2,3 -1,-1 -1,-2 -2,0 0,1 0,8 -1,10 0,2 0,7 0,10 -1,3 -6,13 -7,16 0,2 1,6 -1,7 -1,2 -8,8 -9,9 -2,2 -2,2 -2,3 -1,1 -4,10 -4,13 -1,2 -2,7 -1,10 1,3 3,5 5,5 2,0 2,0 3,1 0,1 2,3 -1,3 -4,1 -9,1 -10,0 -1,0 -3,-2 -4,-4 -1,-2 -1,-1 -2,-4 0,-4 -1,-5 -2,-8 -1,-4 -1,-8 -2,-9 -2,-1 0,0 -6,-2 -5,-2 -10,-2 -13,-2 -4,0 -7,1 -13,0 -5,-2 -13,-4 -16,-5 -4,-2 -5,-2 -6,-1 0,1 -7,11 -9,13 -1,3 -3,10 -3,11 0,2 -2,3 0,3 2,0 4,0 5,1 0,1 1,3 0,3 0,1 -4,1 -5,1 -2,0 -5,-1 -6,-2 -1,-2 -1,-5 -1,-6 0,0 -1,1 -1,2 -1,1 -1,7 -1,8 0,1 4,4 3,5 -1,0 -4,1 -6,1 -2,-1 -5,-2 -5,-4 0,-3 1,-11 1,-13 -1,-2 -1,-4 0,-6 1,-1 4,-5 5,-8 0,-3 0,-9 0,-12 0,-3 -2,-16 0,-20 3,-4 5,-6 5,-8 0,-3 -2,-14 3,-18 4,-3 11,-7 16,-4 5,4 6,8 6,8 0,0 14,1 16,1 2,0 13,0 15,0 1,0 4,-2 5,-2 2,0 4,1 5,0 1,-1 2,-3 4,-3z"/>
 </g>
</svg>
