<?xml version="1.0" encoding="UTF-8"?>
<!DOCTYPE svg PUBLIC "-//W3C//DTD SVG 1.1//EN" "http://www.w3.org/Graphics/SVG/1.1/DTD/svg11.dtd">
<!-- Creator: CorelDRAW X7 -->
<svg xmlns="http://www.w3.org/2000/svg" xml:space="preserve" width="1.6768in" height="1.71705in" version="1.1" style="shape-rendering:geometricPrecision; text-rendering:geometricPrecision; image-rendering:optimizeQuality; fill-rule:evenodd; clip-rule:evenodd"
viewBox="0 0 191 196"
 xmlns:xlink="http://www.w3.org/1999/xlink">
 <defs>
  <style type="text/css">
   <![CDATA[
    .fil0 {fill:#373435;fill-rule:nonzero}
   ]]>
  </style>
 </defs>
 <g id="__x0023_Layer_x0020_1">
  <metadata id="CorelCorpID_0Corel-Layer"/>
  <path class="fil0" d="M151 10c2,-1 7,-7 10,-8 2,-1 4,-2 6,-2 1,0 12,7 13,8 1,2 2,7 0,6 -3,-1 -5,-3 -7,-5 -2,-2 -7,-2 -8,-2 -1,0 -2,3 -2,5 0,1 4,7 6,7 2,0 11,0 11,1 0,1 -2,3 -2,5 0,2 5,10 3,8 -2,-1 -4,-2 -7,-3 -3,0 -3,2 -2,4 2,1 6,1 9,3 3,2 7,8 8,10 0,1 -1,2 0,6 1,5 3,14 1,17 -2,4 -4,5 -5,3 0,-2 0,-3 -2,-5 -2,-1 -3,-5 -4,-4 -2,0 -2,3 -2,4 0,2 3,10 1,13 -2,3 -3,1 -7,5 -3,5 -7,5 -11,3 -3,-2 -5,-4 -9,-5 -3,-2 -6,-7 -7,-10 0,-3 0,-10 0,-13 1,-4 2,-8 0,-6 -2,3 -4,2 -4,6 0,3 -1,22 0,24 1,3 0,11 -1,13 -1,2 3,7 2,10 0,3 -1,9 -1,13 0,4 1,10 -2,17 -2,8 -2,9 -2,16 -1,8 -1,8 0,11 0,4 1,9 1,12 -1,3 0,6 -4,6 -4,0 -5,0 -9,0 -3,0 -7,2 -9,-3 -2,-5 -3,-6 -4,-11 -2,-5 0,-16 0,-18 0,-3 -1,-6 1,-16 1,-10 1,-13 -1,-11 -2,2 -2,7 -2,9 0,2 -2,4 -3,8 0,4 -2,5 -1,11 1,5 2,7 0,10 -2,4 -3,10 -4,13 -1,3 -1,8 -3,11 -2,3 -3,5 -7,7 -4,2 -5,4 -9,2 -4,-1 -8,-5 -8,-8 -1,-4 -1,-11 0,-15 0,-5 2,-8 3,-15 1,-8 -1,-4 0,-11 1,-6 1,-5 1,-11 -1,-6 -2,-7 0,-13 3,-6 6,-8 5,-10 -2,-1 -3,-2 -3,-1 -1,2 -2,6 -5,10 -3,3 -7,7 -9,11 -2,4 -5,6 -5,10 -1,5 0,9 -3,10 -3,0 -10,0 -13,-2 -2,-2 -5,-5 -6,-9 -1,-5 0,-13 -2,-12 -2,1 -9,9 -11,12 -1,3 -3,4 -1,6 1,3 4,9 2,10 -3,1 -5,1 -10,1 -4,0 -7,1 -9,-4 -2,-5 -4,-6 -6,-9 -1,-3 -3,-7 -2,-10 1,-3 6,-9 6,-13 0,-4 0,-9 3,-11 3,-2 4,-4 6,-7 2,-3 3,0 5,-4 3,-3 4,-11 5,-16 1,-5 3,-19 5,-23 2,-4 11,-16 12,-18 1,-2 2,-11 4,-13 1,-3 3,-6 7,-5 3,0 4,0 3,3 -1,3 -4,11 -1,11 3,0 13,1 18,2 5,1 15,4 18,3 2,-1 11,-4 16,-5 5,-2 8,-1 10,-5 2,-3 7,-9 9,-11 2,-1 3,0 2,-1 -1,-2 -4,-4 -5,-6 0,-2 -4,-7 -2,-8 3,-1 12,-3 15,-4 3,-2 7,-4 8,-3 1,1 2,8 4,9 1,0 3,0 3,0z"/>
 </g>
</svg>
