<?xml version="1.0" encoding="UTF-8"?>
<!DOCTYPE svg PUBLIC "-//W3C//DTD SVG 1.1//EN" "http://www.w3.org/Graphics/SVG/1.1/DTD/svg11.dtd">
<!-- Creator: CorelDRAW X7 -->
<svg xmlns="http://www.w3.org/2000/svg" xml:space="preserve" width="2.09333in" height="3.41827in" version="1.1" style="shape-rendering:geometricPrecision; text-rendering:geometricPrecision; image-rendering:optimizeQuality; fill-rule:evenodd; clip-rule:evenodd"
viewBox="0 0 300 489"
 xmlns:xlink="http://www.w3.org/1999/xlink">
 <defs>
  <style type="text/css">
   <![CDATA[
    .fil0 {fill:#834F37}
    .fil2 {fill:#4F4F4F}
    .fil1 {fill:#363435}
   ]]>
  </style>
 </defs>
 <g id="Layer_x0020_1">
  <metadata id="CorelCorpID_0Corel-Layer"/>
  <path class="fil0" d="M202 132c-1,-10 13,-35 19,-45 14,-24 39,-70 65,-77 18,35 10,72 4,109 -2,20 -8,38 -17,57 -6,12 -12,36 -25,40l-46 -84z"/>
  <path class="fil1" d="M205 132c-1,-5 1,-10 3,-14 2,-7 6,-13 9,-18 5,-10 11,-20 17,-30 7,-12 14,-24 23,-35 8,-9 18,-19 30,-23 -1,0 -2,0 -3,-1 9,19 11,39 10,59 -1,20 -4,39 -8,59 -3,18 -10,34 -17,51 -3,6 -6,13 -9,19 -2,6 -6,12 -13,15 -3,1 -2,5 1,4 13,-4 18,-20 23,-31 7,-18 15,-35 19,-54 3,-10 4,-21 6,-31 1,-11 3,-21 3,-32 2,-21 -2,-42 -11,-61 0,-1 -2,-2 -3,-1 -12,3 -21,12 -30,22 -9,11 -17,23 -25,36 -6,11 -12,21 -18,32 -3,6 -6,12 -9,18 -2,5 -4,11 -3,16 0,3 5,3 5,0l0 0z"/>
  <path class="fil0" d="M96 129c-14,-38 -34,-73 -57,-106 -5,-6 -15,-22 -25,-20 -9,3 -10,22 -10,29 -3,30 0,57 8,85 8,22 17,50 37,65l47 -53z"/>
  <path class="fil1" d="M99 129c-11,-27 -23,-53 -38,-77 -7,-11 -14,-22 -22,-33 -5,-7 -11,-16 -20,-18 -19,-6 -18,32 -19,42 -1,29 4,57 13,84 7,21 16,44 35,57 2,2 5,-2 2,-4 -19,-14 -27,-40 -35,-62 -5,-14 -8,-29 -9,-44 -2,-15 0,-29 0,-43 0,-8 1,-21 8,-26 4,-2 10,4 13,7 3,4 6,8 9,12 17,23 31,47 44,73 5,11 10,22 14,33 1,3 6,1 5,-1l0 0z"/>
  <path class="fil0" d="M47 245c8,46 15,93 22,139 5,32 14,64 40,85 25,21 58,25 83,5 26,-24 36,-64 44,-96 7,-35 13,-71 20,-106 8,-34 21,-71 21,-105 -2,-32 -31,-42 -58,-50 -38,-7 -80,-13 -119,-5 -23,4 -44,14 -57,35 -16,26 -2,70 4,98z"/>
  <path class="fil1" d="M45 246c5,31 10,62 15,94 2,15 5,30 7,46 2,12 4,25 8,36 8,24 22,44 43,57 21,12 46,14 67,2 20,-12 32,-36 40,-57 10,-25 14,-51 19,-78 6,-30 11,-62 19,-92 7,-28 16,-56 16,-85 1,-50 -68,-57 -104,-61 -28,-3 -57,-4 -85,3 -22,6 -43,20 -52,41 -6,14 -5,30 -3,45 2,17 6,33 10,49 1,3 5,2 5,-1 -5,-23 -12,-46 -12,-70 1,-13 4,-24 12,-33 7,-10 18,-17 29,-22 26,-11 56,-11 84,-8 26,2 53,5 78,15 9,4 18,9 25,17 8,10 9,22 8,34 -2,29 -12,58 -19,87 -7,31 -12,62 -18,93 -5,26 -10,51 -21,75 -10,23 -26,46 -52,51 -26,5 -53,-12 -68,-32 -16,-21 -21,-46 -25,-71 -5,-31 -10,-62 -14,-93 -3,-15 -5,-29 -7,-43 -1,-3 -6,-2 -5,1z"/>
  <path class="fil2" d="M173 401c29,18 -3,36 -22,40 -17,4 -39,-19 -28,-35 7,-10 40,-11 50,-5z"/>
  <path class="fil1" d="M172 404c5,3 12,8 10,16 -2,6 -10,10 -15,12 -6,4 -13,7 -19,7 -7,1 -14,-4 -18,-8 -5,-5 -9,-12 -7,-19 1,-6 7,-9 13,-10 10,-3 26,-4 36,2 2,1 5,-3 2,-5 -6,-3 -13,-4 -20,-4 -8,0 -17,1 -24,4 -17,6 -14,25 -3,36 6,6 14,9 22,9 8,-1 17,-5 24,-9 6,-4 13,-9 14,-17 1,-8 -7,-15 -13,-19 -3,-1 -5,3 -2,5z"/>
  <path class="fil1" d="M224 213c-6,5 -4,16 -4,22 0,2 2,3 3,2 13,-4 10,-20 10,-30 0,-2 -3,-3 -5,-2 -5,6 -8,17 -4,24 1,2 3,1 4,0 1,-2 2,-3 2,-6 0,-3 -5,-3 -5,0 0,2 0,3 -1,4 1,0 2,0 4,0 -3,-5 0,-14 4,-18 -2,-1 -3,-1 -4,-2 0,7 3,23 -6,26 1,1 2,1 3,2 0,-5 -2,-15 2,-19 3,-2 -1,-5 -3,-3l0 0z"/>
  <path class="fil1" d="M72 215c0,5 -3,11 1,16 3,2 6,1 8,-1 5,-8 -1,-19 -9,-21 -1,0 -3,1 -3,2 -2,9 0,21 8,26 1,1 3,1 4,-1 2,-5 2,-24 -7,-22 -4,0 -2,5 1,4 1,0 2,6 2,7 1,3 1,6 -1,9 2,0 3,-1 4,-1 -7,-4 -8,-14 -6,-21 -1,1 -2,1 -3,2 5,1 7,7 6,12 0,0 0,1 0,1 0,0 -1,-1 -1,-2 0,-4 0,-7 1,-10 0,-4 -5,-4 -5,0l0 0z"/>
 </g>
</svg>
