<?xml version="1.0" encoding="UTF-8"?>
<!DOCTYPE svg PUBLIC "-//W3C//DTD SVG 1.1//EN" "http://www.w3.org/Graphics/SVG/1.1/DTD/svg11.dtd">
<!-- Creator: CorelDRAW X7 -->
<svg xmlns="http://www.w3.org/2000/svg" xml:space="preserve" width="2.10833in" height="1.75222in" version="1.1" style="shape-rendering:geometricPrecision; text-rendering:geometricPrecision; image-rendering:optimizeQuality; fill-rule:evenodd; clip-rule:evenodd"
viewBox="0 0 723 601"
 xmlns:xlink="http://www.w3.org/1999/xlink">
 <defs>
  <style type="text/css">
   <![CDATA[
    .fil0 {fill:#373435;fill-rule:nonzero}
   ]]>
  </style>
 </defs>
 <g id="__x0023_Layer_x0020_1">
  <metadata id="CorelCorpID_0Corel-Layer"/>
  <path class="fil0" d="M718 371c-5,-4 -13,-4 -25,-9 -13,-6 -37,-31 -42,-37 -5,-5 -51,-11 -62,-16 -11,-4 -45,-12 -42,-14 2,-2 19,-34 21,-49 2,-14 4,-13 12,-20 7,-7 6,-23 2,-29 -4,-5 -6,-21 -8,-31 -2,-10 6,-22 8,-30 3,-8 7,-11 8,-10 2,1 36,17 46,20 9,3 23,7 28,6 6,-2 15,-1 31,-6 16,-4 11,-16 5,-21 -5,-5 -31,-33 -37,-41 -5,-8 -10,-20 -9,-24 1,-3 -2,-10 -3,-13 -1,-4 -3,-8 -9,-17 -6,-8 -45,-22 -61,-28 -15,-6 -27,2 -33,4 0,0 -6,2 -15,1 -9,0 -15,4 -26,7 -12,3 -13,5 -21,14 -7,10 -9,28 -9,36 -1,7 11,5 11,5 0,0 -1,4 -8,11 -6,7 -12,29 -24,36 -12,6 -34,31 -42,33 -8,3 -32,3 -49,3 -17,1 -74,-9 -105,-7 -32,2 -63,7 -74,7 -11,1 -78,-2 -97,10 -19,12 -44,16 -79,85 -34,70 26,127 47,144 20,16 93,82 126,106 34,24 46,57 24,70 -14,9 -32,-2 -73,-7 -41,-4 -28,30 -28,30 9,5 39,-11 97,9 31,10 50,-38 37,-78 -13,-38 -71,-83 -88,-93 -16,-10 -74,-67 -75,-70 -1,-3 12,7 27,17 16,10 68,23 103,23 34,1 40,-4 40,0 0,3 -4,40 -9,46 -6,6 -11,33 -11,42 0,8 41,22 53,29 11,7 77,44 91,47 15,4 37,20 47,26 11,7 36,6 58,3 21,-2 5,-19 -2,-24 -7,-5 -19,-10 -32,-14 -12,-4 -55,-21 -79,-32 -24,-11 -27,-14 -43,-23 -16,-9 -15,-39 -15,-47 -1,-9 6,5 8,13 3,8 7,14 16,19 9,4 48,10 65,11 17,0 52,4 60,9 9,5 33,16 42,19 9,4 39,4 50,1 11,-3 20,-12 21,-17 1,-4 -16,-11 -26,-17 -10,-5 -18,-11 -73,-13 -56,-3 -62,-16 -95,-30 -32,-13 -43,-52 -46,-59 -2,-8 4,-13 6,-21 1,-8 4,-6 6,-6 2,1 33,15 45,20 12,6 9,-6 11,11 1,17 6,19 19,24 13,5 67,5 75,5 8,1 18,-2 16,0 -2,3 -3,5 -4,9 0,3 20,16 32,21 11,5 32,8 42,6 10,-3 20,-9 23,-13 2,-3 27,-7 30,-12 3,-5 9,-18 7,-21 -1,-4 -2,-10 -4,-15 -2,-5 -11,-3 -22,-7 -10,-4 -64,-14 -83,-19 -19,-5 -20,-7 -20,-7 7,-3 12,-24 12,-26 1,-3 2,0 10,2 7,2 65,7 76,7 10,-1 32,9 38,10 6,1 21,18 25,22 5,4 38,12 50,6 9,-5 5,-7 1,-12zm-150 50l0 0c12,-1 10,1 6,4 -4,2 -8,4 -14,1 -5,-3 -9,-2 -13,-3 -4,-1 -5,-4 -5,-4 12,2 15,2 26,2z"/>
 </g>
</svg>
