<?xml version="1.0" encoding="UTF-8"?>
<!DOCTYPE svg PUBLIC "-//W3C//DTD SVG 1.1//EN" "http://www.w3.org/Graphics/SVG/1.1/DTD/svg11.dtd">
<!-- Creator: CorelDRAW X7 -->
<svg xmlns="http://www.w3.org/2000/svg" xml:space="preserve" width="1.65613in" height="1.69258in" version="1.1" style="shape-rendering:geometricPrecision; text-rendering:geometricPrecision; image-rendering:optimizeQuality; fill-rule:evenodd; clip-rule:evenodd"
viewBox="0 0 149 153"
 xmlns:xlink="http://www.w3.org/1999/xlink">
 <defs>
  <style type="text/css">
   <![CDATA[
    .fil2 {fill:#ECEBEC}
    .fil1 {fill:#D4D3D6}
    .fil4 {fill:#615336}
    .fil3 {fill:#514732}
    .fil0 {fill:#463F2F}
    .fil7 {fill:#363536}
    .fil5 {fill:#312F30}
    .fil6 {fill:#2A2929}
   ]]>
  </style>
 </defs>
 <g id="Layer_x0020_1">
  <metadata id="CorelCorpID_0Corel-Layer"/>
  <path class="fil0" d="M122 3c0,0 0,-3 -5,-2 -5,1 -8,11 -8,11l4 3 9 -12z"/>
  <path class="fil0" d="M131 3c0,0 0,-3 5,-2 5,1 8,11 8,11l-4 3 -9 -12z"/>
  <path class="fil1" d="M33 71l0 31c0,0 -5,14 -11,16l3 30 15 0c0,0 -2,-5 -7,-5 0,0 -6,-17 5,-29 12,-11 31,-32 31,-32l-36 -11z"/>
  <path class="fil1" d="M132 62c0,0 3,24 -8,34 0,0 -3,10 -2,26 1,17 2,24 2,24 0,0 7,-1 9,7l-15 0c0,0 -4,-29 -7,-46 -3,-16 -1,-50 10,-52 11,-2 11,7 11,7z"/>
  <path class="fil2" d="M114 11c0,0 -7,21 -13,24 -5,4 -64,7 -64,7 0,0 -14,10 -26,25l0 34c0,0 -5,15 -11,18l3 34 15 0c0,0 -2,-6 -7,-6 0,0 -6,-19 5,-32 12,-13 28,-33 28,-33 0,0 43,8 57,13 15,5 31,-12 31,-39 0,-27 -18,-45 -18,-45z"/>
  <path class="fil2" d="M26 54c0,0 -8,-11 -8,-29 0,-6 2,-12 4,-16 2,-3 7,-1 6,3 -1,4 -2,9 -1,14 2,15 16,15 16,15l-17 13z"/>
  <path class="fil0" d="M43 41c0,0 -12,0 -15,-12 -1,0 -3,-1 -5,0 -5,5 -2,10 -1,18 2,4 4,7 4,7l17 -13z"/>
  <path class="fil2" d="M126 65c0,0 -5,21 -17,31 0,0 -4,10 -2,26 1,17 2,24 2,24 0,0 8,-1 10,7l-17 0c0,0 -7,-29 -10,-45 -3,-17 5,-50 18,-53 12,-2 16,10 16,10z"/>
  <path class="fil3" d="M52 41c0,0 0,0 0,0 -8,0 -15,1 -15,1 0,0 -11,7 -21,19 8,4 19,8 22,-2 3,-8 7,-13 14,-18z"/>
  <path class="fil3" d="M45 54c-4,4 -5,10 -4,16 2,10 14,6 21,4 10,-4 17,5 25,11 3,2 5,3 8,3 6,-1 10,-6 11,-12 1,-7 -4,-12 -8,-17 -1,-1 -1,-3 -1,-4 1,-6 7,-12 4,-19 0,0 0,0 0,-1 -4,2 -19,4 -34,5 0,0 0,1 -1,2 -4,8 -14,7 -21,12z"/>
  <path class="fil0" d="M93 102c2,-4 1,-8 3,-11 0,-1 1,-2 2,-3 5,-1 9,-4 11,-9 2,-7 -2,-14 -6,-19 -8,10 -13,31 -11,44 0,0 1,-1 1,-2z"/>
  <path class="fil4" d="M126 3c-7,0 -13,2 -14,13 -2,11 9,31 16,32 7,2 9,-9 9,-9l0 -13c0,0 3,-5 3,-11 0,-7 -4,-12 -14,-12z"/>
  <path class="fil5" d="M119 19c0,1 0,2 -1,2 -1,0 -2,-1 -2,-2 0,0 1,-1 2,-1 1,0 1,1 1,1z"/>
  <path class="fil5" d="M137 19c0,1 0,2 -1,2 -1,0 -2,-1 -2,-2 0,0 1,-1 2,-1 1,0 1,1 1,1z"/>
  <path class="fil0" d="M134 14c-4,0 -3,9 -2,15 2,6 -4,12 -4,12 0,0 -6,-6 -4,-12 1,-6 2,-16 -3,-16 -7,1 -7,6 -7,6 2,-1 5,-3 9,-3 0,0 1,1 0,5 -1,4 -5,10 -8,13 4,7 9,14 13,14 7,2 9,-9 9,-9l0 -10c-2,-3 -3,-6 -4,-8 -1,-4 0,-5 0,-5 3,0 5,1 7,2 0,-1 -2,-4 -6,-4z"/>
  <path class="fil6" d="M128 44c0,0 -4,-3 -4,-4 0,-1 1,-2 4,-2 4,0 5,1 5,2 0,1 -3,4 -3,4l-2 0z"/>
  <path class="fil7" d="M128 40c-1,-1 -3,-1 -3,0 0,1 1,1 1,1l1 2c0,1 1,1 1,1l0 0c0,-1 0,-4 0,-4z"/>
  <path class="fil7" d="M132 40c0,-1 -2,-1 -3,0 0,0 0,3 0,4l1 0c0,0 0,0 0,0l1 -3c0,0 1,0 1,-1z"/>
  <path class="fil4" d="M123 4l-1 -4 -17 0c0,0 -1,2 -1,7 -1,4 6,8 6,8 0,0 7,-14 9,-14 3,0 2,4 2,4l2 -1z"/>
  <path class="fil4" d="M130 4l1 -4 17 0c0,0 1,2 1,7 1,4 -6,8 -6,8 0,0 -7,-14 -9,-14 -3,0 -2,4 -2,4l-2 -1z"/>
 </g>
</svg>
