<?xml version="1.0" encoding="UTF-8"?>
<!DOCTYPE svg PUBLIC "-//W3C//DTD SVG 1.1//EN" "http://www.w3.org/Graphics/SVG/1.1/DTD/svg11.dtd">
<!-- Creator: CorelDRAW X7 -->
<svg xmlns="http://www.w3.org/2000/svg" xml:space="preserve" width="1.5335in" height="1.01365in" version="1.1" style="shape-rendering:geometricPrecision; text-rendering:geometricPrecision; image-rendering:optimizeQuality; fill-rule:evenodd; clip-rule:evenodd"
viewBox="0 0 3972 2626"
 xmlns:xlink="http://www.w3.org/1999/xlink">
 <defs>
  <style type="text/css">
   <![CDATA[
    .fil0 {fill:#3B210F;fill-rule:nonzero}
   ]]>
  </style>
 </defs>
 <g id="_2">
  <metadata id="CorelCorpID_0Corel-Layer"/>
  <path class="fil0" d="M2855 584c-21,0 -41,1 -62,3 -90,-336 -453,-587 -887,-587 -455,0 -832,275 -899,635 -306,29 -553,253 -610,542l3144 0c-41,-334 -332,-593 -686,-593z"/>
  <path class="fil0" d="M3742 1600c-48,-138 -98,-220 -220,-220l-3072 0c-122,0 -186,102 -220,220 -35,117 -230,805 -230,805 0,122 99,221 220,221l3532 0c122,0 220,-99 220,-221 0,0 -181,-668 -230,-805zm-742 580l0 0c0,126 -102,228 -229,228 -126,0 -228,-102 -228,-228 0,-7 1,-13 2,-19l-371 0 -199 0 -371 0c0,6 2,12 2,19 0,126 -103,228 -229,228 -126,0 -229,-102 -229,-228 0,-72 34,-135 86,-177 -52,-42 -86,-106 -86,-177 0,-127 103,-229 229,-229 126,0 229,102 229,229 0,17 -3,34 -6,50l375 0 199 0 375 0c-4,-16 -6,-33 -6,-50 0,-127 102,-229 228,-229 127,0 229,102 229,229 0,71 -34,135 -85,177 51,42 85,105 85,177z"/>
 </g>
</svg>
