<?xml version="1.0" encoding="UTF-8"?>
<!DOCTYPE svg PUBLIC "-//W3C//DTD SVG 1.1//EN" "http://www.w3.org/Graphics/SVG/1.1/DTD/svg11.dtd">
<!-- Creator: CorelDRAW X7 -->
<svg xmlns="http://www.w3.org/2000/svg" xml:space="preserve" width="2.66391in" height="2.89163in" version="1.1" style="shape-rendering:geometricPrecision; text-rendering:geometricPrecision; image-rendering:optimizeQuality; fill-rule:evenodd; clip-rule:evenodd"
viewBox="0 0 6644 7212"
 xmlns:xlink="http://www.w3.org/1999/xlink">
 <defs>
   <clipPath id="id0">
    <path d="M3466 7212c-36,0 -72,-2 -108,-2 -38,0 -75,-108 -113,-108 0,0 0,0 0,0 -19,0 -38,12 -56,24 -19,12 -38,24 -56,24 -1,0 -1,0 -1,0 -38,-1 -75,-5 -112,-6 -1,0 -1,0 -2,0 -18,0 -36,4 -55,8 -18,4 -36,8 -55,8 0,0 -1,0 -1,0 -1,0 -1,0 -2,0 -18,0 -37,6 -55,12 -18,7 -37,13 -55,13 -1,0 -1,0 -2,0 -37,-1 -73,-98 -110,-99 -3,0 -6,0 -9,0 -16,0 -32,1 -47,2 -16,0 -32,1 -47,1 -4,0 -7,0 -10,0 -38,-1 -75,-4 -112,-5 -1,0 -1,0 -1,0 -19,0 -38,27 -58,54 -19,26 -38,53 -57,53 0,0 0,0 0,0 -38,-1 -73,-89 -110,-90 -1,0 -1,0 -2,0 -18,0 -37,12 -56,24 -18,12 -37,24 -55,24 -1,0 -1,0 -2,0 -38,-1 -74,-35 -111,-36 -3,-1 -5,-1 -8,-1 -16,0 -32,2 -49,5 -16,2 -32,4 -48,4 -3,0 -5,0 -8,0 -1,0 -1,0 -2,0 -18,0 -37,12 -56,24 -19,11 -38,23 -55,23 -1,0 -2,0 -3,0 -38,-2 -73,-44 -110,-46 -38,-3 -71,-84 -108,-87 -2,0 -5,0 -8,0 -16,0 -32,3 -49,6 -16,3 -32,6 -48,6 -3,0 -5,0 -8,0 -1,0 -2,0 -3,0 -18,0 -37,10 -56,21 -18,10 -37,21 -54,21 -1,0 -2,0 -3,0 -38,-3 -72,-49 -109,-52 -1,0 -1,0 -2,0 -19,0 -39,22 -59,44 -20,21 -40,43 -58,43 -1,0 -2,0 -2,0 -38,-4 -66,-105 -103,-109 -1,0 -2,0 -3,0 -18,0 -38,14 -57,27 -19,14 -38,28 -55,28 -2,0 -3,0 -4,0 -38,-4 -70,-58 -106,-63 -38,-5 -70,-49 -106,-54 -39,-5 -74,-16 -109,-22 -2,0 -3,0 -5,0 -18,0 -39,15 -59,31 -20,15 -39,30 -56,30 -1,0 -3,0 -4,0 -40,-7 -76,-21 -110,-29 -4,-1 -9,-2 -14,-2 -16,0 -33,6 -50,11 -17,5 -33,10 -47,10 -4,0 -8,0 -12,-1 -42,-13 -79,-43 -107,-56 -51,-24 -93,-87 -93,-112 0,-25 52,-67 103,-91 5,-2 10,-3 16,-3 12,0 26,3 40,7 15,3 30,7 45,7 7,0 14,-1 21,-3 33,-9 54,-76 94,-85 9,-2 18,-3 28,-3 9,0 19,1 28,1 10,1 20,2 30,2 10,0 20,-1 30,-3 35,-6 69,-32 108,-38 2,0 4,0 6,0 16,0 34,9 52,19 19,9 38,19 55,19 2,0 4,0 6,0 36,-5 71,-28 109,-33 11,-2 22,-2 33,-2 8,0 16,0 24,0 7,1 15,1 23,1 11,0 22,-1 33,-2 62,47 127,90 195,128 19,31 55,34 84,48l12 -5c2,-21 10,-46 2,-63 -19,-39 -11,-78 -10,-117 0,-8 0,-17 1,-26 18,21 37,39 53,39 1,0 2,0 2,0 5,0 10,-2 14,-4 4,21 1,41 0,62 0,34 -1,67 -2,101 -1,14 4,24 19,24 0,0 0,0 0,0 0,0 1,0 1,0 21,0 34,12 44,27 19,27 45,33 75,33 1,0 3,0 5,0 16,0 29,-9 42,-10 1,0 1,0 2,0 5,0 11,3 17,7 6,3 13,7 21,7 0,0 1,0 1,0 3,-1 5,-1 7,-1 6,0 13,1 19,1 7,1 13,1 19,1 10,0 19,-1 27,-4 16,-7 31,-8 46,-8 4,0 7,0 10,0 4,0 7,0 10,0 2,0 4,0 5,0 10,0 21,0 31,0 20,0 41,1 60,4 4,1 8,1 11,1 14,0 27,-5 39,-9 13,-4 26,-9 40,-9 2,0 5,0 7,0 2,1 4,1 5,1 29,0 49,-30 36,-56 -14,-26 -12,-52 -12,-79 2,-50 4,-100 6,-150 19,-1 39,-1 58,-2 0,0 0,0 0,0 0,5 5,9 8,14l7 -5c35,-31 68,-62 103,-92 3,-3 6,-6 10,-9 34,-2 67,-8 102,-9 5,-1 10,-1 16,-1 13,0 27,1 40,2 14,0 28,1 42,1 5,0 10,0 15,-1 0,0 0,0 1,0 3,0 6,1 9,2 -1,1 -3,2 -4,2 -8,-1 -16,-2 -24,-2 -38,0 -72,16 -104,35 -79,45 -153,93 -193,181 -22,49 -25,91 -4,138 5,13 12,19 25,21 53,5 109,-6 159,24 5,2 11,3 17,3 3,0 6,0 8,0 3,0 5,0 8,0 1,0 2,0 3,0 37,1 73,3 110,5l0 -2c46,2 91,5 137,6 6,0 14,1 21,1 5,0 10,0 14,-3 14,-9 28,-11 43,-11 12,0 24,1 37,2 52,1 103,3 155,5 1,0 1,0 2,0 8,0 16,-2 25,-4 9,-1 21,-19 16,-26 -10,-14 -8,-29 -9,-44 -1,-43 -30,-147 -54,-177 -15,-20 -32,-39 -50,-57 3,0 5,0 8,0 14,0 28,1 42,1 14,0 28,1 42,1 5,0 9,0 13,0 10,-1 20,-4 30,-10 -1,21 -2,42 14,60 -11,34 19,63 15,96 -5,46 25,88 15,134 -1,3 7,12 10,12 55,2 109,3 164,4 11,-9 23,-11 35,-11 9,0 18,1 26,1 83,4 165,7 247,11l0 -1c76,3 153,6 229,10 9,0 20,2 29,2 6,0 11,-1 16,-3 15,-10 30,-12 46,-12 14,0 28,2 43,2 61,1 122,4 183,7 8,0 17,2 25,2 4,0 8,0 11,-2 18,-11 36,-14 55,-14 10,0 20,1 30,1 9,1 19,2 29,2 4,0 7,0 10,0 1,0 2,-1 4,-1 4,0 9,1 14,2 4,0 9,1 13,1 5,0 10,-1 14,-4 16,-9 32,-12 49,-12 7,0 14,1 22,1 7,1 14,1 22,1 1,0 3,0 5,0 1,0 1,0 2,0 5,0 10,1 15,2 5,0 10,1 15,1 5,0 9,-1 13,-3 19,-10 37,-13 56,-13 10,0 21,1 31,2 11,0 21,1 32,1 2,0 4,0 6,0 3,0 6,0 9,0 18,0 37,2 55,2 0,0 0,0 0,0 32,0 57,-25 46,-52 -17,-39 -11,-77 -11,-116 0,-33 -1,-66 -1,-99 -17,-14 8,-27 0,-39 -12,-16 -9,-34 -8,-52 0,-3 0,-5 0,-8 9,-7 17,-12 26,-12 0,0 0,0 1,0 16,1 32,10 47,20 0,24 -2,48 -2,73 0,3 5,8 9,11l7 -5c11,-17 23,-34 34,-52 5,2 10,3 16,3 16,1 32,6 48,11 -32,36 -44,84 -66,125 -12,22 -20,43 -21,68 -1,30 4,61 -18,87 -9,10 11,40 26,42 10,0 20,2 30,2 8,0 17,-1 24,-5 15,-7 30,-8 45,-8 5,0 11,0 17,0 42,1 85,4 128,6l0 -1c43,2 85,4 128,5 9,0 19,2 28,2 6,0 12,-1 17,-3 15,-10 31,-12 47,-12 14,0 28,2 42,2 58,1 116,2 174,7 2,0 3,0 5,0 21,0 37,-8 55,-16 14,-5 22,-21 18,-36 -4,-14 -15,-28 -14,-42 3,-36 -14,-64 -30,-92 -14,-24 -31,-45 -43,-69 -8,-17 -18,-34 -30,-49 3,-2 7,-5 10,-7 19,-14 38,-28 55,-29 2,4 3,8 5,12 2,11 14,20 23,28 3,3 8,3 12,3 0,0 1,0 1,0l4 -8c0,-2 1,-5 1,-7 18,19 36,41 54,49 0,11 0,21 0,32 0,9 -2,20 2,26 20,28 10,59 11,89 1,36 -8,72 11,106 8,15 -10,40 9,50 15,8 36,6 54,7 43,1 85,3 128,4 5,0 10,0 15,0 11,0 21,-1 29,-6 11,-7 22,-8 34,-8 2,0 4,0 6,0 1,0 3,0 5,0 11,0 23,-1 33,-7 11,-7 23,-9 35,-9 8,0 15,1 23,2 8,1 16,2 24,2 3,0 5,-1 8,-1 4,0 7,0 11,0 2,0 4,0 6,0 2,0 4,0 6,0 13,0 26,-1 38,-9 26,-16 55,-22 86,-22 6,0 12,0 18,0 1,0 2,0 3,0 23,0 45,-28 35,-50 -19,-41 -11,-82 -10,-124 19,10 38,20 58,23 1,0 2,0 2,0 19,0 41,-27 63,-54 22,-28 43,-55 61,-55 1,0 1,0 2,0 39,6 60,118 96,124 39,6 74,15 109,21 1,1 3,1 4,1 19,0 42,-21 64,-43 22,-21 44,-42 60,-42 2,0 3,0 4,1 41,9 58,98 90,108 8,2 16,3 24,3 14,0 28,-3 42,-6 14,-2 27,-5 38,-5 7,0 13,1 18,3 51,24 18,71 18,96 0,25 33,72 -18,95 -29,13 -64,39 -106,52 -2,0 -5,1 -7,1 -15,0 -35,-13 -55,-25 -19,-12 -40,-24 -58,-24 -3,0 -6,0 -8,0 -35,8 -68,26 -107,33 -35,7 -59,90 -98,97 -2,0 -3,0 -4,0 -17,0 -37,-16 -57,-32 -20,-16 -40,-32 -59,-32 -1,0 -2,0 -4,0 -3,1 -6,1 -9,1 -16,0 -31,-5 -48,-9 -16,-5 -32,-9 -48,-9 -3,0 -7,0 -10,0 -36,5 -60,123 -98,127 -37,4 -73,20 -111,24 -4,0 -7,1 -10,1 -15,0 -31,-4 -47,-7 -17,-4 -33,-7 -49,-7 -3,0 -6,0 -9,0 -1,1 -2,1 -2,1 -18,0 -38,-22 -58,-43 -20,-22 -41,-44 -59,-44 -1,0 -1,0 -2,1 -37,3 -70,56 -108,59 -37,3 -73,17 -112,20 -36,3 -73,21 -111,24 -37,2 -73,20 -111,23 -1,0 -1,0 -2,0 -18,0 -37,-24 -57,-47 -20,-23 -40,-46 -58,-46 -1,0 -1,0 -1,0 -38,2 -70,90 -108,92 -1,0 -1,0 -2,0 -18,0 -37,-16 -56,-32 -19,-15 -38,-31 -56,-31 -1,0 -1,0 -2,0 -37,2 -72,65 -110,66 -1,1 -2,1 -3,1 -17,0 -35,-7 -53,-14 -19,-6 -37,-13 -55,-13 -1,0 -2,0 -2,0 -38,2 -74,52 -111,53 -1,0 -2,0 -2,0 -18,0 -37,-9 -55,-18 -19,-9 -37,-18 -56,-18 0,0 -1,0 -1,0 -38,1 -75,17 -113,17 0,0 0,0 -1,0 -18,0 -37,-15 -56,-30 -18,-15 -37,-30 -56,-30 0,0 0,0 -1,0 -37,1 -74,9 -112,9 -1,0 -1,0 -2,0 -18,0 -36,-4 -54,-9 -19,-4 -37,-9 -55,-9 -1,0 -1,0 -2,0 -37,1 -73,127 -111,127 0,0 0,0 -1,0 -18,0 -37,-14 -56,-29 -19,-15 -38,-29 -56,-29 0,0 0,0 -1,0 -37,0 -74,61 -112,62 -2,0 -3,0 -5,0z"/>
   </clipPath>
   <clipPath id="id1">
    <path d="M3410 4006c-3,0 -6,0 -8,-2 -27,-17 -56,-18 -85,-18 -2,0 -5,0 -7,0 -3,0 -5,0 -8,0 -14,0 -28,-1 -42,-3 -26,-5 -53,0 -79,-17 -15,-10 -41,-5 -62,-8 -21,-2 -42,1 -61,-13 -11,-8 -29,-7 -44,-8 -7,-1 -15,-1 -22,-1 -4,0 -8,0 -12,0 -3,0 -7,0 -11,0 -19,0 -38,-1 -54,-8 -30,-12 -62,-9 -87,-21 -37,-19 -76,-16 -114,-22 -23,-4 -45,-16 -68,-19 -19,-2 -33,-13 -50,-19 -19,-7 -41,-3 -61,-15 -15,-9 -36,-9 -49,-19 -16,-13 -36,-7 -51,-18 -57,-42 -126,-71 -172,-128 -20,-24 -41,-46 -62,-68 -34,-35 -55,-78 -76,-121 0,0 -24,-113 -25,-118 3,-7 3,-20 10,-29 10,-14 13,-28 11,-43 -3,-45 18,-82 33,-121 23,-57 40,-118 69,-173 5,-10 4,-23 7,-35 1,-9 2,-20 7,-25 33,-33 46,-77 73,-114 30,-41 63,-80 100,-116 56,-56 116,-108 174,-162 69,-65 154,-103 242,-134 17,-6 34,-11 50,-19 145,-71 301,-110 455,-157 14,-4 30,-2 44,-4 8,-2 19,-5 22,-11 19,-40 60,-68 64,-117 1,-14 10,-29 20,-40 58,-62 86,-143 130,-214 12,-19 27,-39 30,-65 1,-12 17,-22 27,-33 8,10 21,18 23,28 3,32 36,47 38,81 1,28 16,58 32,83 16,26 10,60 30,84 -6,31 26,56 16,88 13,39 27,78 39,118 30,94 21,75 103,79 7,1 14,2 21,2 2,0 4,-1 7,-1 5,0 10,0 15,0 52,0 101,22 151,34 23,22 62,2 83,30 67,12 118,56 176,86 36,19 66,51 96,81 109,106 192,231 262,366 32,61 62,122 89,185 24,58 52,114 62,176 41,74 34,163 78,237 5,8 1,23 -2,34 -4,12 -9,24 -17,32 -43,39 -82,83 -130,113 -43,27 -89,48 -132,77 -5,3 -10,9 -15,9 0,0 0,0 0,0 -1,0 -1,0 -2,0 -40,0 -71,26 -108,36 -46,11 -91,29 -135,44 -45,15 -92,25 -136,44 -19,8 -39,13 -59,18 -29,7 -59,6 -88,18 -7,3 -14,3 -22,3 -4,0 -8,0 -12,0 -4,0 -8,0 -11,0 -12,0 -23,1 -34,8 -8,5 -18,6 -27,6 -3,0 -5,0 -7,0 -3,0 -5,0 -7,0 -13,0 -26,1 -37,12 -5,-1 -10,-1 -16,-1 -20,0 -41,4 -61,9 -20,4 -40,8 -61,8 -7,0 -15,0 -22,-2 -6,-1 -12,-1 -18,-1 -28,0 -53,9 -79,14 -6,1 -12,1 -18,1 -5,0 -10,0 -15,-1 -5,0 -11,0 -16,0 -14,0 -27,2 -41,9 -5,4 -12,4 -19,4 -5,0 -11,0 -16,0 -49,-1 -97,-4 -146,-5 -8,0 -15,-1 -23,-1 -10,0 -20,2 -30,8 -4,3 -11,5 -17,5zm-255 -670c-3,0 -6,0 -9,1 -14,2 -18,13 -20,25 -5,35 -4,67 28,91 14,11 23,29 38,39 23,16 46,35 77,35 1,0 3,0 4,0 19,-1 109,-31 125,-44 55,-44 100,-95 118,-166 2,-5 5,-12 9,-15 2,0 5,-1 8,-1 4,0 8,1 9,2 10,32 19,63 45,86 19,15 17,46 41,59 21,11 42,23 63,34 18,10 36,22 55,28 9,2 19,3 31,3 48,0 116,-19 146,-49 40,-40 61,-88 91,-133 18,-26 -5,-38 -6,-56 0,-8 -10,-12 -19,-12 -4,0 -8,1 -12,2 -7,2 -18,9 -19,15 -5,51 -46,83 -71,123 -15,24 -61,38 -101,38 -20,0 -38,-3 -50,-11 -25,-15 -52,-32 -70,-55 -50,-64 -88,-135 -89,-220 0,-15 -1,-30 -10,-43 -9,-12 -3,-23 6,-32 15,-15 31,-27 51,-36 58,-25 112,-58 158,-104 23,-23 47,-47 74,-67 59,-44 80,-112 106,-174 13,-34 10,-74 -15,-104 -26,-33 -51,-66 -88,-91 -30,-21 -59,-41 -96,-41 -3,0 -7,0 -10,1 -6,0 -12,1 -18,1 -7,0 -13,-1 -18,-4 -42,-26 -88,-17 -126,-22 -19,-1 -31,-1 -43,-2 -15,0 -29,-1 -44,-1 -21,0 -42,2 -62,14 -5,-1 -9,-1 -13,-1 -13,0 -24,4 -36,8 -12,4 -23,8 -36,8 -1,0 -2,0 -3,0 -4,0 -7,0 -11,0 -59,0 -106,31 -151,66 -29,21 -36,48 -32,79 3,27 6,57 20,77 38,54 57,120 110,165 54,44 101,95 152,143 6,6 17,7 23,13 9,8 24,20 23,27 -7,26 25,48 13,68 -14,23 -16,46 -16,70 -1,68 -27,127 -59,185 -17,31 -42,52 -67,73 -26,21 -63,18 -92,32 -1,0 -3,1 -4,1 -4,0 -8,-2 -11,-4 -20,-12 -46,-18 -53,-45 -4,-21 -18,-37 -17,-60 0,-12 -12,-19 -27,-19zm993 -32c-41,0 -41,66 2,66 41,0 42,-66 -2,-66l0 0zm-358 -12c-41,0 -41,66 2,66 41,0 42,-66 -2,-66l0 0zm-923 -23c-41,0 -42,66 2,66 41,0 41,-66 -2,-66l0 0zm1339 -58c-41,0 -42,66 2,66 41,0 42,-66 -2,-66l0 0zm-1178 -23c-41,0 -41,66 2,66 41,0 42,-66 -2,-66zm982 -57c-41,0 -42,66 2,66 41,0 41,-66 -2,-66l0 0zm-739 -24c-41,0 -42,66 2,66 41,0 41,-66 -2,-66zm519 -11c-41,0 -41,66 2,66 41,0 42,-66 -2,-66l0 0zm-970 -35c-41,0 -41,66 2,66 41,0 42,-66 -2,-66zm1259 -69c-41,0 -42,66 2,66 41,0 42,-66 -2,-66zm-1051 -12c-41,0 -41,66 2,66 41,0 42,-66 -2,-66l0 0zm127 -103c-41,0 -41,66 2,66 41,0 42,-66 -2,-66l0 0z"/>
   </clipPath>
   <clipPath id="id2">
    <path d="M3496 6856c-9,0 -20,-2 -29,-2 -76,-4 -153,-7 -229,-10l0 1c-82,-4 -164,-7 -247,-11 -8,0 -17,-1 -26,-1 -12,0 -24,2 -35,11 -55,-1 -109,-2 -164,-4 -3,0 -11,-9 -10,-12 10,-46 -20,-88 -15,-134 4,-33 -26,-62 -15,-96 -16,-18 -15,-39 -14,-60 1,-6 1,-12 1,-19 -1,-24 7,-49 -10,-70 -4,-5 -4,-12 -4,-18 0,-27 -2,-55 2,-82 5,-29 -20,-50 -14,-79 3,-15 2,-30 1,-46 -1,-38 13,-78 -11,-115 -4,-6 0,-18 1,-27 4,-95 8,-189 12,-283 1,-16 0,-30 10,-44 5,-6 10,-19 7,-24 -18,-33 -13,-61 3,-94 11,-23 8,-54 9,-81 0,-20 6,-35 21,-48 23,-19 21,-39 9,-64 -6,-12 -5,-30 -1,-43 5,-14 14,-26 16,-42 4,-26 -4,-55 15,-79 17,-22 0,-55 23,-76 4,-4 6,-12 5,-17 -4,-35 19,-64 22,-95 3,-32 20,-57 27,-86 10,-42 91,-190 118,-229 7,-10 14,-21 23,-28 53,-45 96,-102 161,-133 5,-3 9,-8 14,-12 66,-66 153,-91 239,-117 31,-9 63,-15 96,-15 9,0 19,1 28,2 29,2 59,5 88,5 10,0 21,0 31,-1 2,0 4,0 7,0 35,0 63,23 97,25 36,2 58,31 86,45 70,36 117,95 170,149 30,31 51,68 71,104 34,60 63,122 98,181 9,15 9,34 14,51 20,68 50,133 64,203 2,9 11,17 9,25 -6,29 13,52 15,79 2,27 -2,52 13,79 11,19 -3,48 14,70 3,4 2,11 2,17 1,42 -2,83 11,125 12,39 -9,84 15,124 -2,39 -4,79 -4,119 0,32 -4,64 9,98 11,26 0,60 1,90 1,45 -14,90 10,134 5,9 0,24 -1,36 -2,61 -4,122 -6,183 -1,13 -2,25 -2,38 0,3 0,5 0,8 -1,18 -4,36 8,52 8,12 -18,25 0,39 0,33 1,66 1,99 0,39 -6,77 11,116 11,27 -14,52 -46,52 0,0 0,0 0,0 -18,0 -37,-2 -55,-2 -3,0 -6,0 -9,0 -2,0 -4,0 -6,0 -11,0 -21,-1 -32,-1 -10,-1 -21,-2 -31,-2 -19,0 -37,3 -56,13 -4,2 -8,3 -13,3 -5,0 -10,-1 -15,-1 -5,-1 -10,-2 -15,-2 -1,0 -1,0 -2,0 -2,0 -4,0 -5,0 -8,0 -15,0 -22,-1 -8,0 -15,-1 -22,-1 -17,0 -33,3 -49,12 -4,3 -9,4 -14,4 -4,0 -9,-1 -13,-1 -5,-1 -10,-2 -14,-2 -2,0 -3,1 -4,1 -3,0 -6,0 -10,0 -10,0 -20,-1 -29,-2 -10,0 -20,-1 -30,-1 -19,0 -37,3 -55,14 -3,2 -7,2 -11,2 -8,0 -17,-2 -25,-2 -61,-3 -122,-6 -183,-7 -15,0 -29,-2 -43,-2 -16,0 -31,2 -46,12 -5,2 -10,3 -16,3z"/>
   </clipPath>
   <clipPath id="id3">
    <path d="M2669 5423c-1,0 -1,0 0,0 -46,-1 -92,-3 -138,-5 -137,-6 -274,-12 -411,-19 -5,0 -9,0 -14,0 -3,0 -7,0 -11,0 -4,0 -7,0 -11,0 -24,0 -48,-2 -69,-20 -31,-2 -61,-4 -91,-6 -15,-1 -22,-8 -22,-23 5,-113 10,-226 16,-338l0 0c4,-101 9,-202 13,-302 1,-22 1,-42 16,-60 6,-8 8,-28 3,-34 -19,-22 -12,-46 -11,-70 3,-89 8,-177 12,-265 1,-25 -2,-50 4,-73 6,-23 10,-42 3,-66 -6,-23 1,-49 2,-73 1,-25 2,-49 3,-73 1,-25 2,-49 3,-74 2,-23 2,-24 33,-30 14,-3 22,-9 23,-23 3,-64 6,-128 10,-192 1,-11 2,-24 7,-35 9,-19 27,-35 30,-54 3,-19 -9,-39 -12,-60 -1,-4 5,-10 8,-15l5 6 3 8c13,35 31,66 56,92 13,13 20,30 31,44 16,19 32,37 49,53 8,9 20,13 29,21 24,23 44,48 75,65 57,32 112,70 175,87 34,10 67,29 103,29 3,0 6,0 9,0 1,0 3,0 4,0 25,0 41,18 64,22 23,3 48,-3 70,14 6,5 16,7 25,8 32,5 66,1 96,21 7,4 15,5 25,5 3,0 6,0 8,0 3,0 6,0 9,0 4,0 8,0 12,0 29,5 61,-3 87,19 4,4 10,4 17,4 2,0 3,0 5,0 2,0 4,0 5,0 3,0 6,0 9,1 38,5 77,-1 114,21 9,5 20,6 32,6 4,0 8,0 13,0 4,-1 8,-1 13,-1 5,0 10,0 14,1 30,4 61,-5 88,18 4,4 11,5 19,5 2,0 4,0 6,0 2,0 4,0 6,0 1,0 3,0 4,0 43,2 86,4 128,6 10,0 19,1 29,1 14,0 28,-2 42,-11 4,-3 10,-3 16,-3 7,0 13,0 20,0 30,1 59,3 89,3 1,0 2,0 2,0 0,0 1,0 1,0 7,0 14,0 21,0 7,1 14,1 21,1 18,0 37,-2 55,-11 8,-4 16,-5 25,-5 5,0 9,1 14,1 5,0 9,0 14,0 12,0 24,-1 35,-9 4,-2 10,-3 16,-3 2,0 4,0 7,0 2,0 4,0 7,0 2,0 4,0 5,0 4,0 7,0 10,0 9,0 18,1 27,2 9,1 19,2 28,2 12,0 23,-2 34,-8 28,-17 62,2 87,-20 3,-3 8,-4 13,-4 1,0 3,0 4,1 9,1 17,2 26,2 55,0 105,-27 159,-33 85,-35 176,-50 264,-78 102,-33 200,-76 298,-119 8,-4 15,-10 22,-17 41,-44 102,-65 142,-111 3,-3 5,-5 8,-5 3,0 5,3 4,7 -3,34 29,62 18,96 -10,28 16,45 15,70 -1,23 -7,49 10,70l3 8c0,25 -2,49 0,74 2,23 16,43 14,69 -2,38 -11,78 10,116 8,14 0,36 1,54 1,30 -8,60 10,89 7,11 1,30 2,45 2,42 -14,85 11,124 -1,46 -3,92 -5,138 -39,25 0,54 -2,81 -2,26 -9,54 6,80 4,8 5,17 5,26 0,49 -1,97 -2,146 26,46 6,95 9,143 1,21 6,41 11,61 7,32 1,67 1,100 0,11 -8,17 -17,17 -9,0 -18,1 -27,1 -9,0 -19,-1 -28,-2 -5,-1 -10,-2 -16,-2 -15,0 -31,4 -46,8 -15,4 -31,8 -47,8 -5,0 -10,-1 -16,-2 -41,-7 -85,-5 -127,-6 -40,-2 -80,-4 -119,-6 -43,-1 -86,-3 -129,-4 -42,-2 -85,-4 -128,-6 -7,0 -15,0 -22,0 -10,0 -21,1 -31,5 -3,1 -5,2 -8,2 -18,0 -40,-17 -44,-33 -8,-28 -11,-59 -23,-85 -33,-68 -38,-145 -75,-210 -48,-86 -84,-180 -153,-254 -8,-8 -11,-21 -19,-30 -16,-21 -30,-47 -52,-62 -58,-42 -111,-92 -178,-121 -38,-16 -74,-35 -118,-35 0,0 -1,0 -1,0 -8,0 -15,1 -23,1 -17,0 -33,-3 -46,-16 -29,-3 -58,-9 -87,-9 -19,0 -37,2 -56,10 -5,2 -11,4 -16,4 0,0 -1,0 -1,0 -7,-1 -13,-1 -19,-1 -48,0 -92,24 -138,33 -9,1 -18,4 -25,8 -71,38 -227,152 -286,205 -94,84 -157,188 -198,306 -8,25 -13,54 -28,74 -20,27 -6,60 -27,85 -18,20 1,56 -24,76 -1,67 -30,127 -48,189 -2,6 0,14 -3,18 -4,7 -11,16 -17,16z"/>
   </clipPath>
   <clipPath id="id4">
    <path d="M5078 3507c-5,-1 -10,-2 -13,-5 -20,-19 -41,-38 -33,-70 2,-6 1,-14 -1,-18 -20,-32 -28,-65 -32,-102 -3,-32 -25,-61 -28,-93 -3,-25 -13,-46 -22,-68 -24,-61 -51,-121 -81,-180 -38,-74 -71,-151 -117,-221 -30,-46 -56,-93 -93,-133 -48,-51 -95,-103 -143,-155 -18,-20 -38,-38 -63,-50 -65,-31 -122,-74 -191,-97 -37,-12 -74,-26 -111,-32 -27,-5 -48,-26 -77,-26 -3,0 -6,0 -9,0 -6,1 -13,2 -19,2 -21,0 -42,-4 -63,-5 -40,-4 -74,-29 -83,-68 -17,-69 -33,-138 -64,-203 6,-67 -47,-116 -52,-179 -35,-42 -45,-98 -83,-138 -15,-16 -24,-24 -33,-24 -8,0 -16,8 -29,23 -7,10 -11,21 -17,31 -76,136 -153,270 -228,407 -28,52 -67,79 -127,85 -47,4 -92,22 -138,35 -31,9 -62,19 -92,31 -31,13 -59,31 -92,33 -74,40 -156,61 -232,95 -55,25 -107,53 -152,95 -20,18 -38,40 -66,47 -8,2 -16,10 -20,17 -23,45 -65,72 -100,106 -83,79 -147,172 -204,272 -19,34 -31,71 -48,105 -16,31 -32,64 -33,102 0,19 -22,35 -20,58 0,2 -7,5 -11,7l-4 -7c2,-61 4,-122 10,-183 2,-26 22,-48 20,-77 -2,-25 8,-46 17,-69 10,-24 6,-54 8,-82 2,-21 1,-41 16,-60 13,-15 -18,-34 2,-57 17,-19 -2,-54 17,-77 19,-23 4,-54 24,-77 19,-21 3,-53 23,-76 18,-20 -1,-56 25,-75 6,-35 12,-70 23,-105 9,-30 14,-63 25,-94 9,-29 15,-58 23,-86 9,-31 21,-62 34,-92 4,-11 8,-23 7,-35 -1,-25 8,-47 22,-67 15,-23 23,-48 23,-76 25,-34 34,-76 55,-112 38,-68 71,-138 112,-204 36,-59 77,-114 120,-168 30,-37 67,-69 91,-111 9,-16 25,-27 38,-39 74,-69 149,-137 223,-204 23,-21 47,-38 73,-54 22,-13 43,-25 67,-25 6,0 11,0 17,1 3,1 5,1 8,1 17,0 25,-13 31,-29 33,-13 63,-32 99,-39 99,-18 112,-30 164,-30 11,0 23,1 39,2 10,1 21,2 31,2 14,0 27,-2 39,-12 13,11 27,15 40,15 14,0 28,-4 42,-8 14,-5 28,-9 42,-9 5,0 9,1 14,2 33,7 68,9 103,9 14,0 28,-1 43,-1 0,0 1,0 2,0 16,0 31,5 46,11 14,6 29,11 45,11 0,0 1,0 2,0 2,0 3,0 5,0 32,0 61,11 90,23 30,12 64,17 93,29 30,12 59,10 88,17 6,1 13,-1 18,2 71,39 146,74 188,150 22,39 47,76 73,113 30,44 55,93 77,142 42,92 81,186 121,279 10,24 14,54 31,73 21,25 13,59 33,82 -7,29 12,53 19,78 14,51 40,99 46,153 24,28 12,64 24,95 11,30 18,63 26,94 8,31 17,63 28,93 12,31 25,62 27,94 5,60 32,114 37,173 3,33 10,65 16,97 5,29 11,58 12,88 1,24 21,43 15,70 -5,21 0,42 13,60 -10,52 24,100 13,152 -6,29 19,50 16,78 -4,27 -9,55 10,80 3,4 1,11 2,17 6,45 -17,92 12,134 -2,43 -4,85 -6,128l1 0c-2,33 -3,67 -5,100l-4 8zm-2064 -1898c-11,0 -22,2 -34,7 -10,5 -23,8 -32,15 -57,47 -99,104 -101,182 -1,27 -3,55 -4,82l0 0c-2,36 -8,73 -4,109 7,57 20,111 81,138 19,9 39,15 57,15 13,0 25,-2 37,-9 37,-21 65,-55 79,-96 6,-17 2,-39 12,-52 13,-16 -11,-30 5,-47 10,-10 7,-34 9,-52 2,-18 -1,-37 3,-54 9,-43 -13,-82 -15,-124 -1,-25 -19,-49 -31,-73 -14,-27 -37,-41 -62,-41l0 0zm1025 205l-1 10c0,27 -5,55 -1,82 4,26 17,50 15,78 -1,7 6,17 12,23 28,25 65,40 101,40 30,0 58,-11 78,-35 7,-9 18,-16 26,-25 26,-27 43,-58 44,-96 1,-60 15,-120 -10,-179 3,-57 -30,-96 -67,-132 -8,-7 -21,-11 -33,-13 -8,-2 -17,-2 -25,-2 -7,0 -14,0 -20,0 -2,0 -4,-1 -6,-1 -18,0 -32,10 -40,24 -37,62 -74,123 -71,199 0,9 -1,18 -1,28l-1 -1zm-1013 -576c-32,0 -64,14 -95,25 -33,12 -67,23 -95,49 -38,34 -74,71 -121,94 -13,7 -22,21 -32,32 -9,10 -3,33 10,49 4,6 8,8 12,8 5,0 11,-4 18,-6 34,-10 54,-37 78,-59 53,-46 111,-82 175,-107 10,-4 21,-9 31,-9 1,0 2,0 3,0 3,0 5,1 8,1 13,0 25,-5 37,-9 12,-5 24,-9 37,-9 2,0 4,0 6,0 0,0 0,0 0,0 9,0 12,-19 6,-30 -10,-19 -25,-27 -47,-27 -3,0 -6,0 -9,0 -8,-1 -15,-2 -23,-2l1 0zm1069 31c28,0 57,6 86,7 58,30 123,44 178,81 15,10 26,26 41,35 5,2 11,3 17,3 6,0 13,-1 18,-3 15,-6 19,-58 4,-65 -32,-14 -47,-48 -77,-62 -24,-12 -52,-14 -75,-26 -25,-13 -50,-21 -77,-21 -25,-24 -56,-19 -95,-22 -8,-2 -16,-4 -25,-4 -37,0 -73,25 -110,44 -6,3 -7,22 -6,33 1,6 13,14 20,14 6,1 13,2 20,2 8,0 17,-1 24,-5 19,-8 38,-11 57,-11z"/>
   </clipPath>
   <clipPath id="id5">
    <path d="M5657 4108c-7,0 -13,0 -20,0 -6,-1 -13,-1 -19,-1 -3,0 -6,0 -9,0 -3,0 -7,0 -10,0 -64,0 -112,-34 -157,-76 -45,-42 -70,-97 -98,-150 -15,-29 -11,-66 -35,-91 -22,-23 -16,-56 -31,-83 -16,-28 -27,-60 -31,-92 -4,-30 -27,-56 -18,-88 -21,-34 -5,-77 -29,-111 -14,-79 -35,-156 -47,-236 -4,-32 -15,-62 -16,-96 -1,-32 -16,-63 -12,-97 0,-8 -7,-16 -10,-25 -10,-40 -25,-79 -20,-123 5,-33 -18,-62 -15,-97 2,-22 -9,-46 -13,-69 -3,-20 5,-42 -9,-62 -5,-6 -5,-17 -5,-26 -1,-24 5,-51 -4,-71 -12,-25 -1,-52 -13,-70 -13,-22 -6,-48 -20,-68 -17,-24 -2,-53 -17,-79 -13,-22 -16,-50 -22,-76 -7,-26 -11,-52 -18,-78 -8,-25 -23,-49 -27,-75 -6,-29 -8,-58 -18,-87 -11,-27 -15,-57 -23,-85 -7,-29 -16,-57 -25,-86 -2,-8 -3,-17 -6,-25 -14,-31 -29,-60 -41,-91 -11,-27 -16,-57 -28,-84 -14,-30 -19,-62 -32,-92 -33,-74 -65,-148 -98,-221 -45,-98 -103,-189 -163,-278 -23,-33 -45,-64 -72,-94 -8,-9 -16,-18 -26,-25 -17,-11 -36,-20 -55,-30l2 -5c20,-1 39,-3 59,-3 4,0 9,1 13,1 58,2 116,5 174,8 21,1 43,3 64,4 21,29 59,11 84,29 6,5 15,10 22,10 1,0 2,0 2,0 3,-1 6,-1 9,-1 19,0 37,7 54,14 18,6 36,13 55,13 1,0 3,0 5,0 23,24 59,11 83,28 17,12 35,9 51,17 37,20 74,40 110,61 41,25 79,54 117,84 37,30 68,68 111,90 5,3 10,8 14,13 70,76 140,152 210,229 17,53 68,83 91,134 22,48 63,89 84,137 38,84 84,165 108,255 1,6 3,12 6,17 45,79 59,168 84,253 17,56 26,116 35,174 3,22 12,40 16,60 4,18 4,36 7,53 1,9 8,18 7,26 -5,52 26,100 14,152 21,52 10,107 12,161 1,32 18,62 12,97 -5,30 -2,61 -3,91 -2,34 -3,67 -5,101 -1,30 -2,61 -4,91l-1 0c-4,83 -6,165 -12,247 -2,38 8,80 -20,114 -4,36 -5,73 -13,108 -7,31 -25,60 -34,91 -16,61 -60,135 -100,177 -48,50 -107,77 -169,100 -11,4 -23,7 -35,7 -2,0 -5,0 -7,0z"/>
   </clipPath>
   <clipPath id="id6">
    <path d="M1478 3904c-1,0 -3,0 -4,0 -7,-1 -15,-1 -22,-1 -4,0 -8,0 -12,0 -4,0 -8,0 -12,0 -15,0 -31,-1 -45,-6 -31,-10 -63,-15 -94,-27 -39,-15 -79,-30 -112,-54 -29,-21 -53,-50 -78,-77 -16,-17 -30,-36 -43,-57 -25,-41 -56,-78 -71,-124 -10,-31 -24,-62 -25,-95 -2,-22 -13,-39 -16,-60 -3,-21 5,-43 -11,-61l-4 -8c-1,-30 5,-63 -5,-90 -11,-28 -5,-54 -6,-80 -1,-30 -4,-59 -12,-89 -9,-30 1,-66 2,-108 4,-33 -5,-77 21,-115 3,-4 1,-12 1,-18 3,-33 -1,-70 11,-99 26,-60 43,-123 74,-182 19,-36 39,-73 52,-113 10,-30 17,-64 48,-84 26,-47 53,-94 78,-141 48,-90 108,-172 165,-256 30,-44 61,-88 95,-130 10,-11 19,-23 29,-34 18,-21 40,-36 54,-61 10,-21 31,-40 52,-50 47,-24 81,-64 121,-95 40,-32 83,-60 125,-89 12,-9 26,-16 37,-26 71,-66 156,-112 230,-175 76,-35 142,-88 218,-125 8,-4 17,-5 24,-10 71,-52 152,-84 230,-121 33,-16 68,-21 102,-35 32,-13 63,-33 100,-37 20,-2 41,-13 56,-26 27,-23 61,-27 88,-45 13,-8 25,-10 38,-10 8,0 16,1 24,1 4,0 9,5 14,8l-6 7c-21,16 -50,27 -63,48 -14,22 -31,37 -48,54 -19,20 -40,38 -60,57 -9,8 -18,16 -27,24 -48,38 -86,85 -120,135 -7,10 -14,19 -22,28 -9,11 -26,8 -35,25 -23,41 -60,74 -82,117 -17,31 -37,61 -55,92 -15,26 -25,55 -47,76 -8,8 -13,21 -18,31 -21,43 -43,85 -62,128 -20,43 -38,87 -54,131 -12,31 -22,61 -34,92 -3,5 -8,11 -7,15 6,47 -29,86 -27,132 1,11 -8,22 -11,33 -11,40 -35,76 -32,121 2,36 -27,65 -23,104 3,36 -20,68 -34,100 -12,28 0,63 -28,85 4,43 -32,78 -26,122 1,8 -3,18 -8,25 -14,20 -16,39 -2,59 5,7 5,10 -1,16 -12,11 -11,27 -12,42 -2,27 1,54 -18,79 -9,12 -3,35 -6,53 -7,44 6,91 -22,133 -9,13 -3,36 -5,54 -3,29 2,60 -18,87 -9,13 -4,36 -7,54 -5,38 5,79 -21,114 -7,11 -3,30 -4,45 -3,77 -8,153 -10,229 -1,23 -9,40 -25,55 -55,54 -114,98 -187,125 -47,17 -91,43 -142,53 -10,2 -21,10 -30,10 -1,0 -2,0 -3,0 -4,-1 -8,-2 -11,-2 -12,0 -22,4 -32,9 -10,4 -21,8 -32,8l0 0z"/>
   </clipPath>
   <clipPath id="id7">
    <path d="M1163 6782c-29,-14 -65,-17 -84,-48 -68,-38 -133,-81 -195,-128 -15,-10 -29,-21 -43,-32 -7,-6 -16,-8 -23,-14 -84,-74 -164,-154 -236,-240 -29,-34 -52,-74 -82,-108 -30,-33 -55,-71 -82,-108 -7,-9 -11,-20 -16,-31 -34,-74 -69,-146 -99,-221 -19,-47 -37,-94 -50,-143 -13,-45 -27,-90 -40,-136 -2,-5 -8,-11 -7,-16 13,-55 -20,-107 -13,-161 1,-15 -5,-29 -7,-44 -2,-15 -6,-29 -7,-44 -1,-33 8,-66 -11,-98 -5,-9 -1,-24 0,-36 2,-64 7,-128 7,-192 0,-48 14,-96 -10,-143 -4,-10 0,-24 1,-36 5,-36 -9,-76 12,-107 23,-36 -19,-63 -4,-95 5,-10 2,-24 3,-36l1 -9c30,-29 8,-72 30,-102 12,-17 8,-35 13,-52 4,-18 15,-33 17,-50 5,-37 24,-68 38,-100 17,-41 38,-81 48,-124 2,-5 6,-9 10,-13 0,0 0,1 0,1 -2,2 -5,5 -5,8 -11,43 -31,83 -49,124 -14,32 -33,63 -37,100 -2,17 -13,33 -18,50 -5,17 -1,35 -13,52 -22,30 0,73 -29,102l-2 9c-1,12 2,26 -2,36 -15,32 27,60 3,95 -20,31 -7,71 -11,107 -2,12 -6,26 -1,36 24,47 9,96 9,143 0,64 -4,128 -7,192 0,12 -5,27 0,36 19,32 10,65 12,98 0,15 4,29 6,44 3,15 9,30 7,44 -6,54 26,106 14,161 -1,5 4,11 6,16 3,10 5,19 8,28 44,-56 89,-111 129,-167 67,-93 134,-187 209,-274 29,64 70,121 113,176 13,16 24,34 35,51 27,43 53,88 91,124 28,27 55,58 80,88 81,100 181,177 292,238 20,12 27,22 24,41 -6,42 8,86 -22,123 -2,46 -4,92 -6,138 24,33 12,70 11,106 -4,110 -9,220 -13,330 -1,9 -1,18 -1,26 -1,39 -9,78 10,117 8,17 0,42 -2,63l-12 5z"/>
   </clipPath>
   <clipPath id="id8">
    <path d="M225 5597c-3,-9 -5,-18 -8,-28 -2,-5 -7,-11 -6,-16 12,-55 -20,-107 -14,-161 2,-14 -4,-29 -7,-44 -2,-15 -6,-29 -6,-44 -2,-33 7,-66 -12,-98 -5,-9 0,-24 0,-36 3,-64 7,-128 7,-192 0,-47 15,-96 -9,-143 -5,-10 -1,-24 1,-36 4,-36 -9,-76 11,-107 24,-35 -18,-63 -3,-95 4,-10 1,-24 2,-36l2 -9c29,-29 7,-72 29,-102 12,-17 8,-35 13,-52 5,-17 16,-33 18,-50 4,-37 23,-68 37,-100 18,-41 38,-81 49,-124 0,-3 3,-6 5,-8 1,-2 3,-3 4,-5 2,6 6,11 6,17 -1,33 -3,67 -4,100l0 0c-1,12 -2,25 -1,37 2,35 -10,71 8,107 15,29 -9,67 18,96 -8,34 16,64 14,96 -3,32 26,56 16,88 16,42 17,87 31,129 13,40 20,81 39,118 11,22 7,47 22,68 11,16 13,39 20,59 3,8 4,18 9,24 23,26 32,58 45,88 2,5 4,9 6,13 -1,2 -2,4 -4,5 -75,87 -142,181 -209,274 -40,56 -85,111 -129,167z"/>
   </clipPath>
   <clipPath id="id9">
    <path d="M5490 6870c-5,0 -10,0 -15,0 -43,-1 -85,-3 -128,-4 -18,-1 -39,1 -54,-7 -19,-10 -1,-35 -9,-50 -19,-34 -10,-70 -11,-106 -1,-30 9,-61 -11,-89 -4,-6 -2,-17 -2,-26 0,-11 0,-21 0,-32 1,-40 2,-80 -9,-121 -10,-33 0,-72 1,-109 0,-27 8,-54 -10,-80 -6,-8 -1,-23 -2,-35 -3,-39 13,-79 -12,-116 -4,-6 0,-18 0,-27 -1,-42 12,-85 -12,-124 1,-31 2,-61 3,-92 1,-30 2,-61 4,-91 1,-28 4,-55 3,-82 -1,-39 13,-78 -10,-116 -8,-14 1,-36 0,-54 -1,-51 15,-103 -11,-153l0 -9c1,-36 1,-73 2,-109 -24,-30 -9,-65 -12,-97 -1,-15 2,-30 -7,-44 -5,-7 -7,-17 -7,-26 0,-40 10,-81 1,-118 -11,-40 -10,-77 -10,-116 -1,-27 3,-53 -9,-80 -9,-20 -2,-48 0,-72 1,-13 20,-25 35,-25 3,0 6,0 8,2 67,38 134,76 194,128 42,36 84,70 117,113 40,52 82,103 105,167 18,50 32,103 60,149 0,52 23,98 33,147 6,29 24,56 16,87 19,27 16,58 15,88 25,38 1,86 17,123 19,40 -5,86 25,122 -10,43 20,81 14,124 21,33 13,70 17,105 26,26 0,67 25,94 4,4 2,12 2,18 2,32 -6,65 12,97 8,14 1,36 1,55 1,29 -3,58 9,89 10,26 1,60 1,90 0,24 -5,48 9,71 6,9 4,23 4,35 0,25 -2,49 -2,73 0,1 0,1 0,1 -1,42 -9,83 10,124 10,22 -12,50 -35,50 -1,0 -2,0 -3,0 -6,0 -12,0 -18,0 -31,0 -60,6 -86,22 -12,8 -25,9 -38,9 -2,0 -4,0 -6,0 -2,0 -4,0 -6,0 -4,0 -7,0 -11,0 -3,0 -6,1 -8,1 -8,0 -16,-1 -24,-2 -8,-1 -15,-2 -23,-2 -12,0 -24,2 -35,9 -10,6 -22,7 -33,7 -2,0 -4,0 -5,0 -2,0 -4,0 -6,0 -12,0 -23,1 -34,8 -8,5 -18,6 -29,6z"/>
   </clipPath>
   <clipPath id="id10">
    <path d="M1507 6858c-6,0 -12,0 -19,-1 -6,0 -13,-1 -19,-1 -2,0 -4,0 -7,1 0,0 -1,0 -1,0 -8,0 -15,-4 -21,-7 -6,-4 -12,-7 -17,-7 -1,0 -1,0 -2,0 -13,1 -26,10 -42,10 -2,0 -4,0 -5,0 -30,0 -56,-6 -75,-33 -10,-15 -23,-27 -44,-27 0,0 -1,0 -1,0 0,0 0,0 0,0 -15,0 -20,-10 -19,-24 1,-34 2,-67 2,-101 1,-21 4,-41 0,-62 -1,-9 -4,-18 -10,-27 -8,-13 -1,-35 -1,-54 5,-109 10,-219 15,-329l0 0c5,-100 8,-201 14,-301 2,-36 -5,-73 20,-106 6,-8 1,-24 3,-36 6,-32 -5,-66 15,-98 17,-27 2,-62 15,-88 16,-31 10,-67 23,-95 14,-29 12,-59 21,-86 14,-40 28,-79 44,-117 14,-33 25,-67 38,-100 13,-33 39,-60 42,-98 33,-53 62,-110 108,-154 64,-61 131,-119 195,-180 20,-20 47,-27 69,-41 3,-2 6,-3 8,-3 8,0 15,9 18,18 6,23 -28,43 -5,66 -1,24 -2,49 -2,73 -1,24 -2,49 -3,73 -1,25 -2,49 -3,73 -2,25 -2,49 -4,74 -1,24 -2,48 -3,73 -1,27 -3,55 -4,82 -1,24 -2,49 -3,73 -1,24 -2,49 -3,73 -1,25 -2,49 -3,73 -1,25 -2,49 -3,74 -1,24 -2,48 -3,73 -1,24 -2,49 -3,73 -1,24 -3,49 -3,73 2,42 -14,84 10,125 6,11 0,30 -1,45 -6,137 -12,275 -16,412 -2,50 -16,102 8,152 5,10 0,24 0,36 -1,14 -1,28 -2,42 -2,50 -4,100 -6,150 0,27 -2,53 12,79 13,26 -7,56 -36,56 -1,0 -3,0 -5,-1 -2,0 -5,0 -7,0 -14,0 -27,5 -40,9 -12,4 -25,9 -39,9 -3,0 -7,0 -11,-1 -19,-3 -40,-4 -60,-4 -10,0 -21,0 -31,0 -1,0 -3,0 -5,0 -3,0 -6,0 -10,0 -3,0 -6,0 -10,0 -15,0 -30,1 -46,8 -8,3 -17,4 -27,4l0 0z"/>
   </clipPath>
   <clipPath id="id11">
    <path d="M4428 6545c-4,-3 -9,-8 -9,-11 0,-25 2,-49 2,-73 1,-12 1,-25 1,-37 0,-36 11,-72 -10,-107 -6,-11 -1,-30 0,-45 2,-58 4,-115 6,-173 1,-24 7,-49 -10,-71 -3,-4 -2,-11 -3,-17 -2,-48 13,-97 -12,-143 2,-45 4,-91 5,-137 0,-23 8,-48 -9,-70 -3,-4 -4,-11 -4,-17 -1,-33 5,-69 -5,-99 -10,-31 -3,-60 -7,-89 -3,-21 -10,-40 -14,-61 -3,-18 -1,-36 -5,-53 -4,-13 -12,-23 8,-23 0,0 1,0 1,0 30,0 61,2 91,4l0 -2c24,1 48,6 72,6 10,0 19,-1 28,-3 30,-8 59,-11 88,-11 46,0 92,6 137,7 113,2 226,9 338,14 24,1 22,2 32,32 9,29 14,58 13,89 0,38 -14,78 11,115 5,9 0,24 -1,36 -1,49 -4,98 -4,146 0,30 -10,60 9,89 6,8 2,24 1,36 -1,33 -3,67 -3,100 1,42 -13,84 11,125 5,9 -1,24 -1,36 3,51 -14,102 11,152 5,10 -1,24 -1,36 1,51 -11,102 11,152 3,8 1,19 0,29 0,2 -1,5 -1,7l-4 8c0,0 -1,0 -1,0 -4,0 -10,0 -12,-3 -9,-8 -21,-17 -23,-28 -2,-4 -3,-8 -5,-12 -15,-37 -52,-55 -82,-76 -33,-23 -68,-50 -112,-51 -9,-1 -17,-6 -25,-9 -28,-10 -55,-26 -83,-30 -29,-4 -58,-9 -87,-9 -14,0 -28,1 -41,4 -94,19 -185,48 -238,141 -7,14 -15,26 -23,39 -11,18 -23,35 -34,52l-7 5z"/>
   </clipPath>
   <clipPath id="id12">
    <path d="M1894 6561c-3,-5 -8,-9 -8,-14 0,0 0,0 0,0 0,-31 2,-61 3,-91 0,-21 3,-42 -9,-62 -6,-12 -4,-30 -3,-45 4,-106 9,-213 14,-320l-2 0c5,-101 9,-201 14,-302 1,-28 1,-54 -13,-79 21,-33 -4,-68 3,-102 7,-29 6,-60 8,-90 11,-7 23,-9 34,-9 10,0 20,2 30,3 10,2 20,3 30,3 1,0 3,0 4,0 6,0 12,0 19,0 17,0 35,2 51,14 11,8 29,6 44,7 125,6 250,11 375,16 8,1 17,2 25,2 9,0 19,-2 28,-9 4,-2 10,-4 16,-4 3,0 7,1 9,2 20,20 46,14 69,16 28,4 31,5 28,35 -4,30 3,61 -19,88 -7,10 -4,29 -5,44 -7,156 -14,312 -20,467 -1,24 -7,49 10,71l3 8c2,45 -12,91 12,134 -1,42 -3,85 -5,128 0,5 -5,12 -9,14 -2,1 -4,1 -6,1 -4,0 -8,-1 -11,-3 -25,-18 -48,-37 -72,-55 -21,-16 -81,-39 -106,-42 -32,-4 -67,4 -96,-20 -3,-3 -10,-5 -15,-5 -5,0 -9,1 -11,3 -16,11 -32,13 -48,13 -5,0 -10,0 -15,0 -4,-1 -9,-1 -14,-1 -1,0 -2,0 -2,0 -83,1 -156,27 -220,78 -4,3 -7,6 -10,9 -35,30 -68,61 -103,92l-7 5z"/>
   </clipPath>
   <clipPath id="id13">
    <path d="M4484 6826c-10,0 -20,-2 -30,-2 -15,-2 -35,-32 -26,-42 22,-26 17,-57 18,-87 1,-25 9,-46 21,-68 22,-41 34,-89 66,-125 4,-5 9,-9 14,-14 31,-66 94,-88 157,-108 23,-8 46,-16 69,-16 17,0 34,5 51,18 6,4 14,5 22,5 3,0 6,0 9,0 3,0 5,0 8,0 5,0 11,0 15,1 17,4 33,14 49,19 43,14 82,34 119,60 19,15 35,30 49,48 12,15 22,32 30,49 12,24 29,45 43,69 16,28 33,56 30,92 -1,14 10,28 14,42 4,15 -4,31 -18,36 -18,8 -34,16 -55,16 -1,0 -3,0 -5,0 -58,-5 -116,-6 -174,-7 -14,0 -28,-2 -42,-2 -16,0 -32,2 -47,12 -5,2 -11,3 -17,3 -9,0 -19,-2 -28,-2 -43,-1 -85,-3 -128,-5l0 1c-43,-2 -86,-5 -128,-6 -6,0 -12,0 -17,0 -15,0 -30,1 -45,8 -7,4 -16,5 -24,5l0 0z"/>
   </clipPath>
   <clipPath id="id14">
    <path d="M2398 6861c-7,0 -15,-1 -21,-1 -46,-1 -91,-4 -137,-6l0 2c-37,-2 -73,-4 -110,-5 -1,0 -2,0 -3,0 -3,0 -5,0 -8,0 -2,0 -5,0 -8,0 -6,0 -12,-1 -17,-3 -50,-30 -106,-19 -159,-24 -13,-2 -20,-8 -25,-21 -21,-47 -18,-89 4,-138 40,-88 114,-136 193,-181 32,-19 66,-35 104,-35 8,0 16,1 24,2 1,0 3,-1 4,-2 19,-8 39,-10 58,-10 5,0 11,0 16,0 5,0 10,0 15,0 4,0 9,0 13,0 1,0 3,0 4,0 20,0 39,6 57,13 19,6 37,12 57,12 1,0 3,0 4,0 30,20 62,37 89,60 9,7 17,14 25,22 18,18 35,37 50,57 24,30 53,134 54,177 1,15 -1,30 9,44 5,7 -7,25 -16,26 -9,2 -17,4 -25,4 -1,0 -1,0 -2,0 -52,-2 -103,-4 -155,-5 -13,-1 -25,-2 -37,-2 -15,0 -29,2 -43,11 -4,3 -9,3 -14,3z"/>
   </clipPath>
   <clipPath id="id15">
    <path d="M3647 620c-7,-4 -16,-7 -20,-12 -21,-30 -43,-58 -59,-90 -15,-29 -28,-59 -46,-87 -13,-22 -23,-52 -20,-76 7,-53 -20,-100 -15,-152 1,-11 -8,-22 -11,-33 -2,-9 -5,-20 -1,-27 22,-35 16,-75 23,-113 2,-10 13,-20 23,-27 3,-2 8,-3 13,-3 4,0 8,1 11,3 58,41 77,105 89,170 4,24 9,46 15,69 5,20 -2,41 11,61 6,9 4,24 4,35 -2,46 -4,92 -6,137l1 0c-2,43 -4,85 -6,128 -1,6 -4,11 -6,17z"/>
   </clipPath>
   <clipPath id="id16">
    <path d="M3547 695c-4,0 -8,-1 -10,-3 -54,-33 -115,-50 -169,-82 -51,-31 -105,-57 -151,-95 -24,-19 -45,-41 -65,-63 -11,-12 -4,-42 10,-48 22,-8 45,-14 55,-17 32,2 47,6 65,15 101,53 183,125 243,222 13,21 30,39 44,58l2 7c-5,2 -11,5 -16,5 -3,0 -5,1 -8,1l0 0z"/>
   </clipPath>
   <clipPath id="id17">
    <path d="M3726 683c-5,0 -11,-1 -11,-3 -4,-8 -7,-20 -4,-24 23,-25 41,-52 55,-82 15,-30 51,-43 61,-77 40,-46 90,-78 146,-102 15,-7 27,-10 39,-10 24,0 43,13 62,39l5 8c-3,5 -5,10 -8,15 -21,49 -67,75 -104,111 -38,7 -58,43 -90,58 -48,23 -97,45 -146,67 -1,0 -3,0 -5,0l0 0z"/>
   </clipPath>
   <clipPath id="id18">
    <path d="M3269 3527c-31,0 -54,-19 -77,-35 -15,-10 -24,-28 -38,-39 -32,-24 -33,-56 -28,-91 2,-12 6,-23 20,-25 3,-1 6,-1 9,-1 15,0 27,7 27,19 -1,23 13,39 17,60 7,27 33,33 53,45 3,2 7,4 11,4 1,0 3,-1 4,-1 29,-14 66,-11 92,-32 25,-21 50,-42 67,-73 32,-58 58,-117 59,-185 0,-24 2,-47 16,-70 12,-20 -20,-42 -13,-68 1,-7 -14,-19 -23,-27 -6,-6 -17,-7 -23,-13 -51,-48 -98,-99 -152,-143 -53,-45 -72,-111 -110,-165 -14,-20 -17,-50 -20,-77 -4,-31 3,-58 32,-79 45,-35 92,-66 151,-66 4,0 7,0 11,0 1,0 2,0 3,0 13,0 24,-4 36,-8 12,-4 23,-8 36,-8 4,0 8,0 13,1 20,-12 41,-14 62,-14 15,0 29,1 44,1 12,1 24,1 43,2 38,5 84,-4 126,22 5,3 11,4 18,4 6,0 12,-1 18,-1 3,-1 7,-1 10,-1 37,0 66,20 96,41 37,25 62,58 88,91 25,30 28,70 15,104 -26,62 -47,130 -106,174 -27,20 -51,44 -74,67 -46,46 -100,79 -158,104 -20,9 -36,21 -51,36 -9,9 -15,20 -6,32 9,13 10,28 10,43 1,85 39,156 89,220 18,23 45,40 70,55 12,8 30,11 50,11 40,0 86,-14 101,-38 25,-40 66,-72 71,-123 1,-6 12,-13 19,-15 4,-1 8,-2 12,-2 9,0 19,4 19,12 1,18 24,30 6,56 -30,45 -51,93 -91,133 -30,30 -98,49 -146,49 -12,0 -22,-1 -31,-3 -19,-6 -37,-18 -55,-28 -21,-11 -42,-23 -63,-34 -24,-13 -22,-44 -41,-59 -26,-23 -35,-54 -45,-86 -1,-1 -5,-2 -9,-2 -3,0 -6,1 -8,1 -4,3 -7,10 -9,15 -18,71 -63,122 -118,166 -16,13 -106,43 -125,44 -1,0 -3,0 -4,0l0 0zm215 -1021c-2,0 -4,1 -6,1 -68,12 -136,25 -204,37 -26,5 -47,23 -48,51 0,21 18,44 40,44 2,0 4,0 6,-1 68,-12 136,-25 204,-37 26,-5 47,-23 48,-50 0,-22 -18,-45 -40,-45l0 0z"/>
   </clipPath>
   <clipPath id="id19">
    <path d="M2977 2157c-18,0 -38,-6 -57,-15 -61,-27 -74,-81 -81,-138 -4,-36 2,-73 4,-109l0 0c1,-27 3,-55 4,-82 2,-78 44,-135 101,-182 9,-7 22,-10 32,-15 12,-5 23,-7 34,-7 25,0 48,14 62,41 12,24 30,48 31,73 2,42 24,81 15,124 -4,17 -1,36 -3,54 -2,18 1,42 -9,52 -16,17 8,31 -5,47 -10,13 -6,35 -12,52 -14,41 -42,75 -79,96 -12,7 -24,9 -37,9l0 0zm46 -422c-84,0 -90,137 2,141 1,0 2,0 3,0 84,0 90,-137 -2,-141 -1,0 -2,0 -3,0z"/>
   </clipPath>
   <clipPath id="id20">
    <path d="M4165 2047c-36,0 -73,-15 -101,-40 -6,-6 -13,-16 -12,-23 2,-28 -11,-52 -15,-78 -4,-27 1,-55 1,-82l1 -10 1 0c0,-9 1,-18 1,-27 -3,-76 34,-137 71,-199 8,-14 22,-24 40,-24 2,0 4,1 6,1 6,0 13,0 20,0 8,0 17,0 25,2 12,2 25,6 33,13 37,36 70,75 67,132 25,59 11,119 10,179 -1,38 -18,69 -44,96 -8,9 -19,16 -26,25 -20,24 -48,35 -78,35zm51 -366c-84,0 -90,137 1,141 2,0 3,0 4,0 84,0 90,-136 -2,-140 -1,-1 -2,-1 -4,-1l1 0z"/>
   </clipPath>
   <clipPath id="id21">
    <path d="M4417 1395c-6,0 -12,-1 -17,-3 -15,-9 -26,-25 -41,-35 -55,-37 -120,-51 -178,-81 -29,-1 -58,-7 -86,-7 -19,0 -38,3 -57,11 -7,4 -16,5 -24,5 -7,0 -14,-1 -20,-2 -7,0 -19,-8 -20,-14 -1,-11 0,-30 6,-33 37,-19 73,-44 110,-44 9,0 17,2 25,4 39,3 70,-2 95,22 27,0 52,8 77,21 23,12 51,14 75,26 30,14 45,48 77,62 15,7 11,59 -4,65 -5,2 -12,3 -18,3l0 0z"/>
   </clipPath>
   <clipPath id="id22">
    <path d="M2705 1495c-4,0 -8,-2 -12,-8 -13,-16 -19,-39 -10,-49 10,-11 19,-25 32,-32 47,-23 83,-60 121,-94 28,-26 62,-37 95,-49 31,-11 63,-25 94,-25 8,0 15,1 23,2 3,0 6,0 9,0 22,0 37,8 47,27 6,11 3,30 -6,30 0,0 0,0 0,0 -2,0 -4,0 -6,0 -13,0 -25,4 -37,9 -12,4 -24,9 -37,9 -3,0 -5,-1 -8,-1 -1,0 -2,0 -3,0 -10,0 -21,5 -31,9 -64,25 -122,61 -175,107 -24,22 -44,49 -78,59 -7,2 -13,6 -18,6l0 0z"/>
   </clipPath>
   <clipPath id="id23">
    <path d="M3028 1876c-1,0 -2,0 -3,0 -92,-4 -86,-141 -2,-141 1,0 2,0 3,0 92,4 86,141 2,141z"/>
   </clipPath>
   <clipPath id="id24">
    <path d="M4221 1822c-1,0 -2,0 -4,0 -91,-4 -85,-141 -2,-141 2,0 3,0 4,1 92,4 86,140 2,140z"/>
   </clipPath>
   <clipPath id="id25">
    <path d="M3266 2639c-22,0 -40,-23 -40,-44 1,-28 22,-46 48,-51 68,-12 136,-25 204,-37 2,0 4,-1 6,-1 22,0 40,23 40,45 -1,27 -22,45 -48,50 -68,12 -136,25 -204,37 -2,1 -4,1 -6,1l0 0z"/>
   </clipPath>
   <clipPath id="id26">
    <path d="M3157 2943c-43,0 -43,-66 -2,-66 44,0 43,66 2,66z"/>
   </clipPath>
   <clipPath id="id27">
    <path d="M3273 3173c-44,0 -43,-66 -2,-66 43,0 43,66 2,66l0 0z"/>
   </clipPath>
   <clipPath id="id28">
    <path d="M3030 3046c-43,0 -43,-66 -2,-66 44,0 43,66 2,66l0 0z"/>
   </clipPath>
   <clipPath id="id29">
    <path d="M2869 3335c-44,0 -43,-66 -2,-66 43,0 43,66 2,66l0 0z"/>
   </clipPath>
   <clipPath id="id30">
    <path d="M3030 3254c-43,0 -43,-66 -2,-66 44,0 43,66 2,66z"/>
   </clipPath>
   <clipPath id="id31">
    <path d="M2822 3127c-43,0 -43,-66 -2,-66 44,0 43,66 2,66l0 0z"/>
   </clipPath>
   <clipPath id="id32">
    <path d="M3792 3162c-43,0 -43,-66 -2,-66 44,0 43,66 2,66z"/>
   </clipPath>
   <clipPath id="id33">
    <path d="M3792 3358c-43,0 -43,-66 -2,-66 44,0 43,66 2,66l0 0z"/>
   </clipPath>
   <clipPath id="id34">
    <path d="M4081 3058c-44,0 -43,-66 -2,-66 44,0 43,66 2,66z"/>
   </clipPath>
   <clipPath id="id35">
    <path d="M4208 3277c-44,0 -43,-66 -2,-66 44,0 43,66 2,66l0 0z"/>
   </clipPath>
   <clipPath id="id36">
    <path d="M4150 3370c-43,0 -43,-66 -2,-66 44,0 43,66 2,66l0 0z"/>
   </clipPath>
   <clipPath id="id37">
    <path d="M4012 3197c-44,0 -43,-66 -2,-66 43,0 43,66 2,66l0 0z"/>
   </clipPath>
 </defs>
 <g id="Layer_x0020_1">
  <metadata id="CorelCorpID_0Corel-Layer"/>
  <g style="clip-path:url(#id0)">
   <image transform="matrix(0 -1 -1 0 6675.27 7220.58)" x="0" y="0" width="796" height="6689" xlink:href="Dog18_Images\Dog18_ImgID1.png"/>
  </g>
  <g style="clip-path:url(#id1)">
   <image transform="matrix(0 -1 -1 0 5010.55 4012.1)" x="0" y="0" width="2274" height="2923" xlink:href="Dog18_Images\Dog18_ImgID2.png"/>
  </g>
  <g style="clip-path:url(#id2)">
   <image transform="matrix(0 -1 -1 0 4388.3 6872.67)" x="0" y="0" width="2412" height="1728" xlink:href="Dog18_Images\Dog18_ImgID3.png"/>
  </g>
  <g style="clip-path:url(#id3)">
   <image transform="matrix(0 -1 -1 0 5146.47 5429.92)" x="0" y="0" width="1928" height="3257" xlink:href="Dog18_Images\Dog18_ImgID4.png"/>
  </g>
  <g style="clip-path:url(#id4)">
   <image transform="matrix(0 -1 -1 0 5109.06 3515.8)" x="0" y="0" width="2761" height="3070" xlink:href="Dog18_Images\Dog18_ImgID5.png"/>
  </g>
  <g style="clip-path:url(#id5)">
   <image transform="matrix(0 -1 -1 0 6079.21 4124.32)" x="0" y="0" width="3270" height="1741" xlink:href="Dog18_Images\Dog18_ImgID6.png"/>
  </g>
  <g style="clip-path:url(#id6)">
   <image transform="matrix(0 -1 -1 0 3009.14 3913.59)" x="0" y="0" width="3035" height="2127" xlink:href="Dog18_Images\Dog18_ImgID7.png"/>
  </g>
  <g style="clip-path:url(#id7)">
   <image transform="matrix(0 -1 -1 0 1218.48 6799.1)" x="0" y="0" width="2698" height="1070" xlink:href="Dog18_Images\Dog18_ImgID8.png"/>
  </g>
  <g style="clip-path:url(#id8)">
   <image transform="matrix(0 -1 -1 0 583.764 5604.49)" x="0" y="0" width="1504" height="436" xlink:href="Dog18_Images\Dog18_ImgID9.png"/>
  </g>
  <g style="clip-path:url(#id9)">
   <image transform="matrix(0 -1 -1 0 5917.1 6885.14)" x="0" y="0" width="2237" height="771" xlink:href="Dog18_Images\Dog18_ImgID10.png"/>
  </g>
  <g style="clip-path:url(#id10)">
   <image transform="matrix(0 -1 -1 0 1889.35 6872.67)" x="0" y="0" width="2187" height="683" xlink:href="Dog18_Images\Dog18_ImgID11.png"/>
  </g>
  <g style="clip-path:url(#id11)">
   <image transform="matrix(0 -1 -1 0 5221.29 6562.18)" x="0" y="0" width="1257" height="895" xlink:href="Dog18_Images\Dog18_ImgID12.png"/>
  </g>
  <g style="clip-path:url(#id12)">
   <image transform="matrix(0 -1 -1 0 2672.46 6574.65)" x="0" y="0" width="1145" height="808" xlink:href="Dog18_Images\Dog18_ImgID13.png"/>
  </g>
  <g style="clip-path:url(#id13)">
   <image transform="matrix(0 -1 -1 0 5233.76 6835.26)" x="0" y="0" width="484" height="833" xlink:href="Dog18_Images\Dog18_ImgID14.png"/>
  </g>
  <g style="clip-path:url(#id14)">
   <image transform="matrix(0 -1 -1 0 2709.87 6872.67)" x="0" y="0" width="446" height="833" xlink:href="Dog18_Images\Dog18_ImgID15.png"/>
  </g>
  <g style="clip-path:url(#id15)">
   <image transform="matrix(0 -1 -1 0 3680.02 630.285)" x="0" y="0" width="646" height="224" xlink:href="Dog18_Images\Dog18_ImgID16.png"/>
  </g>
  <g style="clip-path:url(#id16)">
   <image transform="matrix(0 -1 -1 0 3580.26 706.351)" x="0" y="0" width="337" height="446" xlink:href="Dog18_Images\Dog18_ImgID17.png"/>
  </g>
  <g style="clip-path:url(#id17)">
   <image transform="matrix(0 -1 -1 0 4090.28 693.881)" x="0" y="0" width="324" height="399" xlink:href="Dog18_Images\Dog18_ImgID18.png"/>
  </g>
  <g style="clip-path:url(#id18)">
   <image transform="matrix(0 -1 -1 0 4041.64 3540.74)" x="0" y="0" width="1120" height="933" xlink:href="Dog18_Images\Dog18_ImgID19.png"/>
  </g>
  <g style="clip-path:url(#id19)">
   <image transform="matrix(0 -1 -1 0 3146.31 2172.8)" x="0" y="0" width="571" height="324" xlink:href="Dog18_Images\Dog18_ImgID20.png"/>
  </g>
  <g style="clip-path:url(#id20)">
   <image transform="matrix(0 -1 -1 0 4339.67 2060.57)" x="0" y="0" width="509" height="324" xlink:href="Dog18_Images\Dog18_ImgID21.png"/>
  </g>
  <g style="clip-path:url(#id21)">
   <image transform="matrix(0 -1 -1 0 4463.12 1402.17)" x="0" y="0" width="224" height="496" xlink:href="Dog18_Images\Dog18_ImgID22.png"/>
  </g>
  <g style="clip-path:url(#id22)">
   <image transform="matrix(0 -1 -1 0 3120.12 1501.93)" x="0" y="0" width="274" height="459" xlink:href="Dog18_Images\Dog18_ImgID23.png"/>
  </g>
  <g style="clip-path:url(#id23)">
   <image transform="matrix(0 -1 -1 0 3133.84 1886)" x="0" y="0" width="162" height="212" xlink:href="Dog18_Images\Dog18_ImgID24.png"/>
  </g>
  <g style="clip-path:url(#id24)">
   <image transform="matrix(0 -1 -1 0 4325.95 1837.36)" x="0" y="0" width="175" height="212" xlink:href="Dog18_Images\Dog18_ImgID25.png"/>
  </g>
  <g style="clip-path:url(#id25)">
   <image transform="matrix(0 -1 -1 0 3530.38 2645.41)" x="0" y="0" width="150" height="324" xlink:href="Dog18_Images\Dog18_ImgID26.png"/>
  </g>
  <g style="clip-path:url(#id26)">
   <image transform="matrix(0 -1 -1 0 3207.41 2955.91)" x="0" y="0" width="87.2887" height="112.228" xlink:href="Dog18_Images\Dog18_ImgID27.png"/>
  </g>
  <g style="clip-path:url(#id27)">
   <image transform="matrix(0 -1 -1 0 3330.86 3180.36)" x="0" y="0" width="87.2887" height="112.228" xlink:href="Dog18_Images\Dog18_ImgID28.png"/>
  </g>
  <g style="clip-path:url(#id28)">
   <image transform="matrix(0 -1 -1 0 3083.96 3055.66)" x="0" y="0" width="87.2887" height="112.228" xlink:href="Dog18_Images\Dog18_ImgID29.png"/>
  </g>
  <g style="clip-path:url(#id29)">
   <image transform="matrix(0 -1 -1 0 2921.85 3342.47)" x="0" y="0" width="87.2887" height="112.228" xlink:href="Dog18_Images\Dog18_ImgID30.png"/>
  </g>
  <g style="clip-path:url(#id30)">
   <image transform="matrix(0 -1 -1 0 3083.96 3267.65)" x="0" y="0" width="87.2887" height="112.228" xlink:href="Dog18_Images\Dog18_ImgID31.png"/>
  </g>
  <g style="clip-path:url(#id31)">
   <image transform="matrix(0 -1 -1 0 2871.97 3142.95)" x="0" y="0" width="99.7585" height="99.7585" xlink:href="Dog18_Images\Dog18_ImgID32.png"/>
  </g>
  <g style="clip-path:url(#id32)">
   <image transform="matrix(0 -1 -1 0 3842.13 3180.36)" x="0" y="0" width="99.7585" height="99.7585" xlink:href="Dog18_Images\Dog18_ImgID33.png"/>
  </g>
  <g style="clip-path:url(#id33)">
   <image transform="matrix(0 -1 -1 0 3842.13 3367.41)" x="0" y="0" width="87.2887" height="99.7585" xlink:href="Dog18_Images\Dog18_ImgID34.png"/>
  </g>
  <g style="clip-path:url(#id34)">
   <image transform="matrix(0 -1 -1 0 4140.15 3068.13)" x="0" y="0" width="87.2887" height="112.228" xlink:href="Dog18_Images\Dog18_ImgID35.png"/>
  </g>
  <g style="clip-path:url(#id35)">
   <image transform="matrix(0 -1 -1 0 4263.61 3292.59)" x="0" y="0" width="87.2887" height="112.228" xlink:href="Dog18_Images\Dog18_ImgID36.png"/>
  </g>
  <g style="clip-path:url(#id36)">
   <image transform="matrix(0 -1 -1 0 4201.26 3379.88)" x="0" y="0" width="87.2887" height="112.228" xlink:href="Dog18_Images\Dog18_ImgID37.png"/>
  </g>
  <g style="clip-path:url(#id37)">
   <image transform="matrix(0 -1 -1 0 4065.34 3205.3)" x="0" y="0" width="87.2887" height="112.228" xlink:href="Dog18_Images\Dog18_ImgID38.png"/>
  </g>
 </g>
</svg>
