<?xml version="1.0" encoding="UTF-8"?>
<!DOCTYPE svg PUBLIC "-//W3C//DTD SVG 1.1//EN" "http://www.w3.org/Graphics/SVG/1.1/DTD/svg11.dtd">
<!-- Creator: CorelDRAW X7 -->
<svg xmlns="http://www.w3.org/2000/svg" xml:space="preserve" width="2.99922in" height="2.25897in" version="1.1" style="shape-rendering:geometricPrecision; text-rendering:geometricPrecision; image-rendering:optimizeQuality; fill-rule:evenodd; clip-rule:evenodd"
viewBox="0 0 1058 797"
 xmlns:xlink="http://www.w3.org/1999/xlink">
 <defs>
  <style type="text/css">
   <![CDATA[
    .fil3 {fill:#FEFEFE}
    .fil2 {fill:#FDC05A}
    .fil0 {fill:#633C2D}
    .fil1 {fill:#363435}
   ]]>
  </style>
 </defs>
 <g id="Layer_x0020_1">
  <metadata id="CorelCorpID_0Corel-Layer"/>
  <path class="fil0" d="M257 58c-64,-3 -118,111 -139,157 -61,124 -97,275 -109,411 -3,48 -3,109 36,142 40,33 97,24 139,6 127,-54 94,-196 79,-308 -15,-130 -12,-263 -18,-396l12 -12z"/>
  <path class="fil1" d="M257 51c-51,-1 -86,53 -109,91 -31,52 -56,109 -77,166 -27,76 -46,154 -58,233 -10,63 -24,137 2,198 28,64 104,66 161,46 51,-19 88,-57 102,-111 14,-52 6,-108 -2,-161 -11,-79 -16,-159 -19,-239 -2,-68 -2,-136 -5,-204 -1,-9 -14,-9 -14,0 4,89 4,179 8,268 2,43 5,87 10,130 4,28 9,56 12,84 6,53 8,112 -19,159 -31,54 -108,84 -167,69 -76,-19 -70,-116 -64,-177 8,-80 25,-159 48,-237 20,-65 46,-128 78,-188 13,-26 28,-51 46,-73 15,-18 36,-39 62,-41 1,0 3,0 5,0 9,1 9,-13 0,-13z"/>
  <path class="fil0" d="M802 58c64,-3 118,111 139,157 61,124 97,275 109,411 3,48 3,109 -36,142 -39,33 -97,24 -139,6 -127,-54 -94,-196 -79,-308 15,-130 12,-263 18,-396l-12 -12z"/>
  <path class="fil1" d="M802 64c26,0 47,18 63,36 19,22 34,47 48,72 31,59 57,121 77,185 24,77 41,157 50,237 7,62 16,156 -56,184 -32,12 -69,4 -100,-8 -29,-10 -54,-28 -70,-53 -31,-46 -29,-106 -23,-158 2,-29 7,-57 11,-85 6,-41 8,-83 10,-125 5,-89 5,-179 9,-269 0,-3 0,-7 0,-10 1,-9 -13,-9 -13,0 -4,89 -5,179 -9,268 -2,44 -4,89 -10,132 -4,27 -8,55 -11,82 -6,52 -8,107 15,156 24,51 80,81 135,88 30,4 63,-1 87,-20 25,-20 36,-49 41,-79 4,-33 2,-66 -2,-98 -4,-39 -10,-77 -17,-114 -16,-78 -38,-154 -69,-227 -22,-52 -46,-105 -80,-150 -20,-28 -49,-58 -86,-57 -8,0 -9,14 0,13l0 0z"/>
  <path class="fil2" d="M861 643c37,-51 55,-122 55,-214 0,-199 -9,-390 -245,-408 -25,-3 -52,-6 -79,-8 -24,239 68,504 269,630z"/>
  <path class="fil1" d="M867 647c38,-54 51,-119 55,-184 3,-59 1,-120 -4,-180 -10,-96 -41,-195 -133,-240 -26,-13 -53,-20 -80,-25 -38,-6 -76,-9 -113,-12 -4,0 -7,3 -7,7 -23,237 64,504 273,636 7,5 14,-7 7,-12 -205,-129 -289,-392 -267,-624 -2,2 -4,4 -6,7 66,6 137,7 197,40 43,24 73,63 90,108 19,49 25,103 28,155 4,65 6,132 -5,196 -7,43 -21,85 -47,121 -5,7 7,14 12,7z"/>
  <path class="fil2" d="M413 556c145,-149 94,-362 99,-548 -171,-6 -340,27 -322,231 9,100 -9,209 19,299 10,51 28,90 51,120 57,-23 110,-57 153,-102z"/>
  <path class="fil1" d="M417 561c145,-150 97,-365 102,-553 0,-4 -4,-7 -7,-7 -96,-3 -219,0 -287,79 -35,41 -45,95 -42,147 2,40 4,80 3,120 0,41 -1,82 3,123 3,36 12,72 23,107 9,30 23,59 42,85 2,2 5,4 8,3 58,-24 112,-58 155,-104 6,-6 -3,-16 -9,-9 -42,43 -93,77 -150,100 3,1 6,2 8,3 -21,-28 -36,-61 -45,-95 -11,-39 -18,-78 -21,-119 -2,-41 0,-82 0,-123 0,-39 -5,-77 -4,-115 1,-53 20,-104 63,-137 40,-31 93,-43 143,-49 37,-4 73,-4 110,-3 -3,-2 -5,-4 -7,-6 -5,183 44,397 -97,544 -6,6 3,16 9,9z"/>
  <path class="fil3" d="M592 13c-27,-3 -53,-5 -80,-5 -5,186 46,399 -99,548 -43,45 -96,79 -153,102 78,101 217,103 357,89 117,-5 196,-39 244,-104 -201,-126 -293,-391 -269,-630z"/>
  <path class="fil1" d="M592 6c-27,-2 -54,-4 -80,-5 -4,0 -7,3 -7,7 -3,119 16,240 -6,359 -11,60 -35,118 -74,166 -44,53 -103,93 -167,119 -5,2 -6,7 -3,11 76,96 206,102 318,95 61,-5 122,-8 180,-29 46,-16 85,-44 114,-82 2,-4 0,-8 -2,-10 -205,-129 -289,-392 -267,-624 1,-9 -12,-9 -13,0 -23,237 64,504 273,636 -1,-3 -2,-6 -3,-9 -67,90 -183,97 -287,104 -107,8 -231,1 -303,-90 -1,3 -2,7 -3,11 64,-26 121,-65 167,-116 41,-47 67,-103 80,-163 28,-124 6,-253 10,-378 -3,2 -5,4 -7,6 26,1 53,3 80,6 8,0 8,-13 0,-14z"/>
  <path class="fil0" d="M432 629c18,-11 63,-4 84,-5 27,-1 87,8 107,31 30,39 -46,78 -74,87 -40,11 -79,12 -106,-21 -11,-18 -40,-83 -8,-95l-3 3z"/>
  <path class="fil1" d="M436 635c18,-10 46,-5 66,-5 20,1 39,1 58,5 19,4 46,9 58,26 14,19 -8,38 -21,49 -35,25 -89,45 -129,24 -20,-11 -27,-30 -34,-49 -5,-13 -15,-45 3,-52 8,-4 4,-17 -4,-13 -21,8 -21,30 -18,49 4,20 12,44 26,60 39,45 109,26 152,-1 19,-11 40,-27 43,-50 4,-23 -18,-38 -37,-46 -25,-10 -52,-14 -78,-15 -27,0 -55,-4 -81,2 -4,0 -8,2 -12,4 -7,4 0,16 8,12l0 0z"/>
  <path class="fil1" d="M758 356c3,3 8,6 12,2 2,-4 3,-7 3,-12 0,-10 -5,-22 -16,-25 -4,-1 -9,2 -9,6 0,17 -4,44 19,48 3,0 6,0 8,-3 6,-12 5,-27 -3,-38 -7,-10 -19,-7 -21,5 -2,9 12,12 13,4 1,-7 0,1 -4,-3 1,2 2,4 3,6 3,6 3,13 0,19 2,-1 5,-2 7,-3 -13,-3 -8,-25 -8,-35 -3,3 -6,5 -9,7 4,1 5,4 5,7 1,2 1,4 1,5 0,6 -2,2 4,0 2,1 3,1 5,1 1,1 1,1 2,2 -5,-7 -17,-1 -12,7l0 0z"/>
  <path class="fil1" d="M370 364c0,-3 0,-5 0,-7 0,-5 -5,-7 -9,-7 -10,2 -20,16 -17,26 1,8 9,17 18,13 7,-3 9,-14 10,-21 1,-9 3,-20 0,-29 -2,-6 -9,-6 -13,-1 -9,12 -16,36 -7,50 3,4 9,4 12,0 7,-11 6,-23 6,-36 -1,-7 -12,-9 -14,-1 -2,8 -4,16 -5,24 0,7 10,9 13,3 6,-10 8,-23 2,-34 -2,-3 -7,-4 -10,-1 -12,13 -12,32 -4,47 4,6 12,3 13,-4 0,0 1,0 1,-1 5,-7 -6,-14 -11,-7 -2,3 -3,5 -4,8 5,-1 9,-2 13,-3 -5,-9 -6,-22 1,-30 -3,-1 -7,-1 -10,-2 3,6 1,15 -3,21 5,1 9,2 13,3 0,-7 2,-14 4,-21 -4,0 -9,-1 -13,-2 0,10 2,20 -4,29 4,0 8,0 12,0 -6,-10 1,-28 7,-37 -4,0 -8,-1 -13,-1 3,8 2,18 0,26 -1,2 -1,4 -2,6 -1,5 -1,-1 3,2 -5,-4 0,-13 6,-14 -3,-2 -6,-4 -9,-6 0,2 0,4 0,7 0,8 14,8 14,0l0 0z"/>
 </g>
</svg>
