<?xml version="1.0" encoding="UTF-8"?>
<!DOCTYPE svg PUBLIC "-//W3C//DTD SVG 1.1//EN" "http://www.w3.org/Graphics/SVG/1.1/DTD/svg11.dtd">
<!-- Creator: CorelDRAW X7 -->
<svg xmlns="http://www.w3.org/2000/svg" xml:space="preserve" width="1.38313in" height="1.41889in" version="1.1" style="shape-rendering:geometricPrecision; text-rendering:geometricPrecision; image-rendering:optimizeQuality; fill-rule:evenodd; clip-rule:evenodd"
viewBox="0 0 215 221"
 xmlns:xlink="http://www.w3.org/1999/xlink">
 <defs>
  <style type="text/css">
   <![CDATA[
    .fil0 {fill:#373435;fill-rule:nonzero}
   ]]>
  </style>
 </defs>
 <g id="__x0023_Layer_x0020_1">
  <metadata id="CorelCorpID_0Corel-Layer"/>
  <path class="fil0" d="M190 81c-1,3 -8,21 -9,26 0,4 -1,13 -4,19 -2,7 -6,19 -8,31 -2,12 -5,31 -4,35 1,4 3,11 7,13 4,3 7,3 8,5 0,2 1,5 -5,5 -5,0 -12,-1 -14,-6 -1,-5 -4,-13 -5,-13 -2,-1 -5,0 -4,-4 1,-4 2,-9 1,-15 -1,-7 -2,-21 -1,-23 1,-3 -1,-1 -3,10 -1,11 -2,28 -1,31 1,3 3,13 5,14 2,2 5,2 5,5 0,3 3,6 -3,6 -5,1 -11,2 -13,-5 -2,-7 -2,-10 -4,-12 -2,-2 -3,1 -3,-5 -1,-7 0,-3 0,-10 -1,-8 -2,-8 -2,-14 0,-7 -1,-13 0,-16 0,-3 -3,-2 -3,-7 -1,-6 1,-7 0,-9 -2,-3 -4,-4 -19,-11 -15,-6 -21,-11 -23,-9 -2,3 -4,9 -4,13 0,5 -3,18 -5,24 -2,6 -3,7 -3,12 0,6 0,12 4,17 3,6 8,7 10,8 1,0 2,3 1,4 0,2 2,3 -5,3 -7,0 -11,-2 -13,-7 -1,-5 -5,-10 -7,-13 -2,-3 -7,-7 -5,-13 2,-5 4,-11 3,-16 0,-6 -3,-14 -5,-18 -2,-4 -3,-9 -5,-5 -3,4 -8,15 -14,20 -5,5 -25,18 -26,21 -2,4 -4,19 -3,22 1,4 3,6 5,7 2,1 4,2 3,5 0,2 -3,3 -6,3 -3,0 -12,-2 -13,-7 0,-6 1,-9 2,-15 0,-7 -2,-22 1,-24 3,-2 13,-12 17,-20 4,-9 6,-21 7,-26 0,-5 2,-20 6,-23 3,-4 1,-9 6,-12 5,-2 11,-8 19,-10 8,-2 28,-4 47,-2 19,2 18,1 22,1 4,-1 4,0 7,0 3,0 5,-1 7,-2 2,-1 7,-11 9,-15 2,-4 5,-6 3,-9 -1,-3 -2,-10 -4,-13 -2,-3 -2,-4 -2,-8 1,-3 0,-8 -1,-10 -1,-2 0,-4 5,0 5,4 5,5 8,7 3,2 7,6 9,5 2,-2 2,0 2,-3 -1,-4 -1,-9 -1,-13 0,-3 0,-7 1,-9 1,-2 3,-2 6,2 3,4 3,8 3,11 1,2 0,4 1,5 1,1 7,1 10,2 3,1 7,1 8,3 1,2 1,4 2,4 1,1 5,2 6,4 0,1 5,3 7,5 1,3 5,6 0,15 -5,9 -6,6 -7,7 -1,2 -9,7 -11,11 -2,4 -4,9 -5,11z"/>
 </g>
</svg>
