<?xml version="1.0" encoding="UTF-8"?>
<!DOCTYPE svg PUBLIC "-//W3C//DTD SVG 1.1//EN" "http://www.w3.org/Graphics/SVG/1.1/DTD/svg11.dtd">
<!-- Creator: CorelDRAW X7 -->
<svg xmlns="http://www.w3.org/2000/svg" xml:space="preserve" width="1.27726in" height="1.96194in" version="1.1" style="shape-rendering:geometricPrecision; text-rendering:geometricPrecision; image-rendering:optimizeQuality; fill-rule:evenodd; clip-rule:evenodd"
viewBox="0 0 254 391"
 xmlns:xlink="http://www.w3.org/1999/xlink">
 <defs>
  <style type="text/css">
   <![CDATA[
    .fil0 {fill:#976928;fill-rule:nonzero}
   ]]>
  </style>
 </defs>
 <g id="FreeVector_x0020_Graphics">
  <metadata id="CorelCorpID_0Corel-Layer"/>
  <path class="fil0" d="M146 172c19,11 43,-12 48,-21 0,0 0,-1 1,-1 5,-11 4,-27 0,-42 -6,-22 -18,-43 -27,-51 -6,-6 -13,-9 -22,-11 -9,8 -8,40 -8,65 0,23 -2,55 8,61z"/>
  <path class="fil0" d="M117 33c-3,-10 4,-26 -1,-33 -7,12 -17,25 -17,40 9,0 15,-2 18,-7z"/>
  <path class="fil0" d="M65 139c7,22 35,52 52,26 9,-13 6,-39 6,-62 0,-29 0,-49 -15,-56 0,-1 -1,-1 -1,0 -9,4 -16,14 -24,25 -8,11 -15,20 -18,33 -3,7 -3,16 -2,27 0,2 1,4 2,7z"/>
  <path class="fil0" d="M159 41c-5,-9 -8,-28 -17,-36 -3,10 -5,28 1,37 5,1 12,0 16,-1z"/>
  <path class="fil0" d="M232 169c-13,3 -18,25 -30,48 -3,4 -5,7 -7,11 -9,15 -17,29 -13,40 2,5 6,10 13,15 6,4 14,7 22,6 44,-8 46,-124 15,-120z"/>
  <path class="fil0" d="M195 315c-11,-14 -25,-25 -34,-40 -16,-27 -16,-67 -69,-29 -8,6 -18,14 -27,24 -7,7 -14,15 -20,24 -18,25 -30,54 -16,77 4,6 10,9 16,11 6,2 13,3 20,2 17,0 37,-6 47,-6 19,0 39,14 61,12 8,-1 16,-4 22,-9 10,-9 16,-23 12,-40 -2,-10 -7,-18 -12,-26z"/>
  <path class="fil0" d="M246 132c-4,-7 -6,-15 -12,-20 -3,13 -5,26 -6,40 3,8 21,10 26,3 -1,-8 -5,-16 -8,-23z"/>
  <path class="fil0" d="M45 273c7,-2 13,-6 16,-12 2,-2 3,-5 4,-8 2,-10 2,-23 1,-35 0,-4 -1,-8 -1,-12 -2,-7 -6,-15 -10,-21 -3,-5 -6,-10 -10,-14 -6,-6 -12,-10 -20,-8 -14,9 -25,37 -25,62 0,14 4,32 11,40 8,9 22,11 34,8z"/>
  <path class="fil0" d="M38 137c2,-10 -5,-23 -8,-31 -6,14 -14,26 -16,44 11,4 23,-3 24,-13z"/>
 </g>
</svg>
