<?xml version="1.0" encoding="UTF-8"?>
<!DOCTYPE svg PUBLIC "-//W3C//DTD SVG 1.1//EN" "http://www.w3.org/Graphics/SVG/1.1/DTD/svg11.dtd">
<!-- Creator: CorelDRAW X7 -->
<svg xmlns="http://www.w3.org/2000/svg" xml:space="preserve" width="1.52771in" height="1.31486in" version="1.1" style="shape-rendering:geometricPrecision; text-rendering:geometricPrecision; image-rendering:optimizeQuality; fill-rule:evenodd; clip-rule:evenodd"
viewBox="0 0 1555 1338"
 xmlns:xlink="http://www.w3.org/1999/xlink">
 <defs>
  <style type="text/css">
   <![CDATA[
    .fil0 {fill:#E65B24;fill-rule:nonzero}
   ]]>
  </style>
 </defs>
 <g id="Vector_x0020_Graphics">
  <metadata id="CorelCorpID_0Corel-Layer"/>
  <path class="fil0" d="M278 5c2,-4 6,-3 9,-3l3 3 3 -3c15,7 34,-3 51,9l33 24 95 98 13 30 116 117c49,19 83,71 141,69 29,9 59,32 92,15 15,4 34,-9 51,0 26,-6 60,-2 84,-3l107 -3c41,9 92,1 117,41l42 30 81 96c14,52 33,106 29,162 6,13 20,31 36,32 21,4 35,-16 45,-30 5,-6 5,-17 0,-24l-3 -2 -3 2c-5,-8 -18,-2 -27,0 -9,10 -19,19 -14,33 -4,-9 -8,-18 -6,-29 15,-18 35,-35 59,-36 4,5 12,9 15,6 4,8 17,16 12,24l6 6c2,-2 3,-4 6,-4 -4,5 4,13 6,18l3 -3c-16,11 -16,28 -30,39l6 9 -9 6c2,4 6,3 9,3l-33 15c2,7 9,12 6,21 -7,1 -17,-5 -24,-3l3 0 0 3 -3 0c7,2 -10,-2 -15,-3l-2 3c5,3 1,10 2,15l-11 -9c-8,3 0,8 0,12 1,-4 -5,-6 -6,-9 -4,2 -4,6 -4,9l4 3c-3,3 -8,5 -7,9l3 3c-10,6 8,12 -3,18l3 3c-1,9 -1,25 4,36 13,16 20,36 29,54 -1,2 -4,3 -3,6l3 3 3 -3 -3 3c19,54 97,51 102,113 6,10 18,21 9,33l15 63 -3 3c10,24 15,50 30,72l0 12c-3,-1 -4,1 -6,3 5,11 -7,13 -15,12 -4,1 -10,-3 -12,3 0,3 -1,7 3,8l-3 4 3 3c-10,-3 -13,11 -21,12l3 3 -9 8 3 3c-5,1 -30,-2 -42,4l-3 -4c-8,2 -24,-3 -33,0 -15,-7 -32,-10 -50,-9 -11,15 -31,-6 -45,0 -4,-9 -26,5 -33,-9 -2,2 -3,4 -6,4l-3 -4 -6 7c6,3 -12,-5 -12,-12 -2,1 -4,3 -3,5l-6 -5 -3 3c1,6 -1,-6 -6,-3 -2,3 -7,4 -6,9 -11,-3 -17,6 -27,-6l-3 2c-1,-10 -18,-3 -21,-5 -4,-18 0,-14 -15,-15 -1,-4 3,-10 -3,-12l-3 0c6,-2 2,-8 3,-12l-3 -3c-2,2 -4,3 -3,6 -14,-7 -7,-36 -30,-24l3 3 -6 6c1,-3 -1,-4 -3,-6l-3 3c-15,1 5,-1 -9,-6l3 -3c-6,-6 -14,1 -21,3 5,-3 12,-3 15,-9 -7,-7 -15,6 -24,6l3 -3c-1,-2 -3,-4 -6,-3l3 -3c-1,-4 -5,-3 -9,-3 6,2 9,-3 12,-6 -6,-6 -14,1 -21,3 -7,5 6,-2 9,-3l4 -3c-6,-3 -11,-7 -19,-6 3,1 5,-1 6,-3 -5,-8 -11,2 -17,0 2,1 4,-2 6,-3 -2,-4 -6,-3 -9,-3 2,6 -6,-10 -12,0 5,0 7,-6 12,-9 -4,-7 -8,1 -12,0 2,1 4,-1 6,-3 -23,-1 7,-29 -15,-21 -5,1 9,-12 0,-18l-9 -12 -3 3c0,-3 -2,-4 -3,-6 9,-14 -17,-25 -9,-39l-6 -18 -3 3c7,-4 -10,-17 0,-30 -3,-5 -8,-2 -12,-3 1,-4 -4,-5 -6,-9 -1,9 -10,9 -15,12 0,-5 -6,-8 -9,-12l3 -3c-3,-2 -5,-7 -9,-6l-3 4c5,2 2,7 3,11 -3,1 -4,-1 -6,-2l-3 2c-1,-6 2,-13 -3,-17l-3 2c-1,-5 3,-11 -3,-15l-6 6c2,2 4,4 3,7l-3 2 3 4c-2,3 -6,2 -9,2 3,0 7,1 9,-2l-6 -13c-4,2 -3,6 -3,9l-3 -2c-6,2 -2,7 -3,11l9 6c8,0 -3,1 -3,-2 -11,5 -4,17 -6,26 0,-3 1,-7 -3,-9 -4,-1 -6,4 -9,6l0 3 -9 -9 -6 9 3 -3 -3 -3c7,-3 -1,-7 0,-12 1,-7 -8,-6 -12,-8l-3 2c9,6 -4,11 0,18 1,-2 -1,-4 -3,-5 6,-4 -1,-9 -3,-13l-3 -2c1,10 -14,13 -12,23l-3 -3 -3 3 -9 -8c-2,9 -6,14 -15,20 2,0 -2,-16 -6,-24 -2,9 -8,17 -6,27 -1,-4 -2,-9 -6,-12 -2,3 -7,5 -6,9 -3,-2 -8,-9 -11,-3l-4 -3c-3,15 -18,9 -18,24l-6 6c-3,-1 23,-33 -2,-39 -3,10 -6,19 -13,27 -2,-1 -4,2 -5,3l3 3 -3 3c-1,-4 2,-9 -3,-12l-6 30c-20,12 -19,43 -24,66 11,9 -10,20 6,27 5,-2 -15,3 -3,9l-3 3c5,2 2,8 3,12 -2,7 4,29 -3,33 1,1 3,4 6,3 -8,9 -8,25 -3,35l3 4 -6 5 6 6c-4,-1 -10,3 -12,-2 -2,1 -4,3 -3,5l3 4c-3,1 -4,-2 -6,-4 -2,2 -4,4 -3,6 2,6 8,3 12,4 -5,0 -12,-3 -15,2l6 7 -6 5 3 3 -9 6 3 3c-11,15 -31,1 -42,9 -9,3 -17,-5 -24,0 -6,-6 -14,1 -21,3l0 3c-5,1 -7,-5 -12,-3l-3 3 -3 -3c-6,18 -19,1 -27,6l-3 -3c-10,2 -21,2 -33,6 -23,-2 -45,-11 -72,-12l-2 -3 -3 3c-2,-1 -4,-4 -6,-3 -8,2 -20,-2 -27,-9l-3 3c-2,-1 -3,-3 -6,-3l-3 3c-6,-17 -23,-24 -30,-39l-3 3c-1,-2 1,-4 3,-5l-9 -9 3 -4c-9,-5 4,-9 3,-15l-15 -8c4,-2 3,-6 3,-9 -2,-4 -6,-3 -9,-3l3 -3 -15 -15 6 -6 -3 -3c13,-13 21,-28 39,-39l-3 -3c14,-22 33,-42 30,-72 -1,-10 1,-27 6,-39l-3 -3c3,-1 3,-5 3,-9l-3 -3 -3 3c4,3 -9,-8 0,-12 -8,-42 4,-72 -12,-110l3 -3c-8,-6 3,-11 0,-18l-6 -176c8,-22 -2,-43 -3,-63l-6 -6c10,-5 2,-10 0,-15 -2,-2 -3,-4 -6,-3l-6 15c3,0 -7,-12 -3,-21l-3 -3 3 -3 -9 -9 -9 9c9,10 -5,18 0,30 -14,-14 -17,-43 -39,-51l-3 3c-2,-2 -3,-4 -6,-3 -4,2 -3,6 -3,9 -4,-3 -11,-7 -15,-3 5,-9 7,-23 6,-30l-3 -3c2,-2 4,-3 3,-6l-3 -3c-12,20 -22,32 -42,48 1,-6 11,-12 3,-18 -8,2 -8,6 -15,12l9 -12c-10,-5 7,-10 -3,-15 -8,13 -22,14 -32,21 -4,4 4,-13 8,-18 3,-19 -4,-34 -6,-51l-2 0c3,-2 2,-6 2,-9 -1,-7 3,-24 -2,-33 -5,-10 -2,-29 -15,-30l-4 3 4 3c-2,2 -4,4 -7,3 23,-28 -4,-58 0,-90 7,-29 13,-59 18,-89l-3 -3 3 -3c-11,-15 26,-52 -9,-45l-2 3c-9,-10 -14,5 -22,6l4 0 0 3 -4 0c-7,-4 -8,6 -11,9 1,2 4,3 3,6l-3 3 -4 -3 -2 3c-1,7 0,-3 -3,-3 -5,7 -2,13 -12,15 -16,3 -23,-11 -39,-6 -6,-8 0,-20 -6,-27l-3 3c-22,-30 -62,-35 -84,-66 7,-25 35,-34 54,-51l75 -35c8,-14 37,-20 27,-39 7,-10 10,-18 15,-27l6 6c15,-7 5,-33 29,-27 5,4 12,-4 18,-6 20,3 40,-8 54,3z"/>
 </g>
</svg>
