<?xml version="1.0" encoding="UTF-8"?>
<!DOCTYPE svg PUBLIC "-//W3C//DTD SVG 1.1//EN" "http://www.w3.org/Graphics/SVG/1.1/DTD/svg11.dtd">
<!-- Creator: CorelDRAW X7 -->
<svg xmlns="http://www.w3.org/2000/svg" xml:space="preserve" width="1.36909in" height="0.980791in" version="1.1" style="shape-rendering:geometricPrecision; text-rendering:geometricPrecision; image-rendering:optimizeQuality; fill-rule:evenodd; clip-rule:evenodd"
viewBox="0 0 3050 2185"
 xmlns:xlink="http://www.w3.org/1999/xlink">
 <defs>
  <style type="text/css">
   <![CDATA[
    .fil0 {fill:#3B210F;fill-rule:nonzero}
   ]]>
  </style>
 </defs>
 <g id="_2">
  <metadata id="CorelCorpID_0Corel-Layer"/>
  <path class="fil0" d="M1991 0c-294,0 -389,0 -455,0 -8,0 -15,0 -22,0 -66,0 -160,0 -455,0 -406,0 -1318,990 -989,1275 330,285 538,-49 538,-49l165 -516 0 593 5 10c-102,113 -164,259 -164,420 0,353 469,493 664,442 194,-51 206,-206 206,-275 0,-69 0,-196 0,-196 0,0 -1,0 -1,0 -15,3 -30,5 -46,5 -16,0 -32,-2 -48,-5 -1,-1 -2,-1 -3,-1 -90,-23 -157,-105 -157,-202 0,-81 47,-151 115,-186 35,-19 82,-31 141,-32 10,0 20,1 29,1l0 1c4,0 8,0 11,0 4,0 7,0 11,0l0 -1c9,0 19,-1 29,-1 60,1 106,13 141,32 68,35 115,105 115,186 0,97 -66,179 -156,202 -2,0 -3,0 -4,1 -16,3 -31,5 -48,5 -15,0 -31,-2 -45,-5 -1,0 -2,0 -2,0 0,0 0,127 0,196 0,69 12,224 207,275 194,51 664,-89 664,-442 0,-161 -63,-307 -165,-420l6 -10 0 -593 164 516c0,0 209,334 538,49 329,-285 -583,-1275 -989,-1275zm-630 888l0 0c-29,43 -117,122 -185,122 -5,0 -9,-1 -13,-1 -2,0 -4,1 -6,1 -49,0 -88,-35 -88,-78 0,-39 33,-72 76,-77 6,-1 13,-2 20,-2 38,0 225,-8 196,35zm532 122l0 0c-2,0 -4,-1 -6,-1 -4,0 -8,1 -12,1 -68,0 -157,-79 -186,-122 -28,-43 158,-35 196,-35 7,0 14,1 20,2 43,5 77,38 77,77 0,43 -40,78 -89,78z"/>
 </g>
</svg>
