<?xml version="1.0" encoding="UTF-8"?>
<!DOCTYPE svg PUBLIC "-//W3C//DTD SVG 1.1//EN" "http://www.w3.org/Graphics/SVG/1.1/DTD/svg11.dtd">
<!-- Creator: CorelDRAW X7 -->
<svg xmlns="http://www.w3.org/2000/svg" xml:space="preserve" width="2.45365in" height="2.64895in" version="1.1" style="shape-rendering:geometricPrecision; text-rendering:geometricPrecision; image-rendering:optimizeQuality; fill-rule:evenodd; clip-rule:evenodd"
viewBox="0 0 933 1008"
 xmlns:xlink="http://www.w3.org/1999/xlink">
 <defs>
  <style type="text/css">
   <![CDATA[
    .fil0 {fill:#FEFEFE}
    .fil2 {fill:#5A5C5B}
    .fil3 {fill:#424242}
    .fil1 {fill:#363435}
   ]]>
  </style>
 </defs>
 <g id="Layer_x0020_1">
  <metadata id="CorelCorpID_0Corel-Layer"/>
  <path class="fil0" d="M685 91c0,-20 6,-20 19,-33 45,-51 71,-45 103,0 33,39 97,129 20,142 -64,13 -103,-39 -116,-90l-26 -19z"/>
  <path class="fil1" d="M692 91c1,-13 6,-17 14,-25 10,-9 18,-19 29,-27 17,-13 33,-12 49,2 13,12 24,29 35,43 10,14 20,29 27,45 7,14 13,30 9,45 -6,18 -34,20 -49,20 -48,1 -77,-45 -88,-86 -3,-9 -17,-5 -14,4 13,49 47,95 102,97 21,1 47,-5 59,-23 11,-16 5,-38 -1,-54 -9,-22 -22,-42 -36,-60 -14,-19 -28,-40 -48,-52 -19,-11 -41,-3 -57,9 -12,11 -23,23 -35,34 -8,7 -10,17 -10,28 -1,9 14,9 14,0l0 0z"/>
  <path class="fil0" d="M240 79c-19,-32 -45,-77 -97,-71 -32,13 -147,104 -134,155 6,26 77,39 103,39 45,-7 103,-65 115,-104l13 -19z"/>
  <path class="fil1" d="M247 75c-24,-39 -67,-97 -120,-66 -43,25 -85,62 -112,104 -10,15 -20,38 -12,56 10,21 40,29 60,34 24,5 49,10 72,0 30,-13 55,-36 75,-61 11,-13 19,-26 25,-42 3,-9 -11,-12 -15,-4 -9,26 -28,47 -48,65 -19,18 -45,35 -72,33 -23,-2 -48,-7 -69,-18 -21,-11 -17,-30 -8,-48 21,-40 62,-74 99,-99 7,-4 14,-9 21,-12 12,-6 30,0 40,6 24,12 38,38 51,60 5,8 18,0 13,-8l0 0z"/>
  <path class="fil0" d="M10 614c10,-91 36,-191 59,-281 21,-83 39,-185 114,-238 118,-83 266,-63 399,-43 245,38 355,405 343,624 -12,251 -347,310 -547,324 -232,13 -393,-154 -368,-386z"/>
  <path class="fil1" d="M17 614c10,-91 34,-180 56,-268 17,-69 30,-141 71,-200 45,-66 131,-95 207,-102 78,-8 158,3 235,16 114,20 194,115 244,213 54,104 83,225 88,342 2,54 -1,108 -25,157 -23,48 -62,85 -106,113 -95,61 -211,85 -322,99 -53,7 -108,13 -162,6 -58,-6 -115,-28 -162,-62 -99,-72 -136,-196 -124,-314 1,-9 -13,-9 -14,0 -13,120 25,242 121,319 46,37 101,59 158,69 57,10 114,5 171,-2 109,-12 222,-35 319,-89 45,-25 86,-58 115,-100 31,-43 44,-94 46,-147 4,-113 -20,-230 -61,-335 -41,-102 -105,-204 -205,-256 -56,-30 -122,-35 -184,-41 -77,-9 -156,-8 -230,18 -34,13 -67,31 -94,56 -25,23 -42,53 -56,83 -13,32 -22,66 -31,99 -9,39 -19,77 -29,116 -17,70 -32,139 -40,210 -1,10 13,10 14,0z"/>
  <path class="fil2" d="M525 354c-102,-139 106,-273 189,-108 72,142 -99,209 -189,108z"/>
  <path class="fil1" d="M531 350c-30,-42 -38,-96 -2,-137 30,-34 80,-46 121,-26 49,24 85,93 71,146 -12,48 -65,67 -110,61 -32,-5 -60,-22 -81,-45 -7,-7 -17,3 -11,10 34,38 84,57 134,49 43,-7 79,-40 85,-84 7,-53 -25,-112 -68,-142 -36,-26 -85,-25 -122,-3 -27,16 -47,42 -55,72 -10,38 3,76 25,107 6,7 18,0 13,-8z"/>
  <path class="fil1" d="M592 258c-8,-3 -17,-3 -21,7 -3,11 5,25 10,33 7,13 22,21 34,10 24,-19 19,-66 -11,-76 -3,-1 -6,0 -8,2 -10,11 -17,26 -15,41 2,14 13,22 27,23 3,0 6,-2 7,-4 7,-15 7,-32 7,-49 0,-8 -12,-9 -15,-2 -5,18 -7,34 1,51 4,9 17,1 13,-7 -6,-13 -4,-26 1,-40 -5,0 -10,-1 -15,-2 0,14 1,29 -5,42 2,-1 4,-3 6,-4 -22,-1 -10,-29 -1,-39 -3,1 -5,1 -7,2 18,6 18,29 11,43 -1,4 -6,12 -10,9 -4,-1 -6,-6 -8,-9 -2,-3 -3,-6 -4,-9 -1,-2 -2,-4 -3,-6 0,-1 0,-2 0,-2 0,-4 -1,-4 -1,-1 9,4 16,-9 7,-13l0 0z"/>
  <path class="fil1" d="M205 273c-20,13 -9,48 -3,66 2,6 10,7 13,1 15,-23 21,-59 6,-84 -1,-3 -6,-5 -10,-3 -22,18 -16,46 -16,71 0,4 3,7 7,7 26,-1 41,-27 33,-51 -4,-11 -13,-18 -24,-21 -12,-3 -22,10 -27,19 -6,11 -9,25 -6,38 2,10 11,23 22,23 24,0 34,-37 20,-52 -6,-8 -16,3 -10,10 5,6 -1,31 -10,27 -14,-6 -8,-29 -3,-39 7,-16 22,-12 25,4 3,13 -6,27 -20,28 3,2 5,4 8,7 -1,-18 -8,-46 9,-58 -4,-1 -7,-2 -10,-3 12,21 5,51 -6,70 4,1 8,1 13,2 -3,-10 -15,-42 -4,-50 8,-5 1,-18 -7,-12l0 0z"/>
  <path class="fil1" d="M408 555c5,55 19,108 25,162 5,45 5,87 -15,129 -17,34 -41,65 -69,91 -26,23 -62,44 -98,37 -9,-2 -13,12 -3,14 77,16 145,-66 178,-126 8,-15 15,-32 20,-48 7,-25 5,-51 3,-75 -3,-62 -20,-122 -26,-184 -1,-9 -15,-9 -15,0l0 0z"/>
  <path class="fil1" d="M449 787c17,0 17,-26 0,-26 -17,0 -17,26 0,26z"/>
  <path class="fil1" d="M433 713c-4,27 8,53 21,75 17,31 41,59 67,84 25,25 53,47 84,63 21,11 48,21 72,13 8,-3 5,-17 -4,-14 -22,7 -47,-4 -66,-14 -28,-15 -53,-36 -76,-58 -23,-23 -45,-48 -62,-76 -12,-20 -25,-45 -22,-69 1,-9 -13,-13 -14,-4l0 0z"/>
  <path class="fil1" d="M750 639c-30,-30 -41,-72 -64,-108 -19,-28 -52,-50 -82,-66 -62,-34 -134,-47 -204,-46 -69,1 -139,20 -183,76 -43,56 -63,127 -74,196 -2,15 -3,30 -5,45 0,10 14,10 15,0 5,-69 21,-139 55,-200 17,-31 40,-58 72,-75 32,-18 70,-25 107,-27 70,-4 143,10 206,41 33,17 66,41 86,73 21,34 32,72 60,102 7,6 17,-4 11,-11l0 0z"/>
  <path class="fil3" d="M319 504c-57,-113 140,-143 199,-78 59,64 -38,97 -89,110 -39,0 -91,0 -110,-32z"/>
  <path class="fil1" d="M325 500c-9,-18 -13,-38 -3,-57 8,-16 25,-27 42,-33 37,-15 85,-15 122,2 19,9 40,27 43,49 3,24 -24,39 -42,47 -22,11 -49,21 -73,21 -30,-1 -71,-1 -89,-29 -5,-8 -18,0 -12,8 16,25 45,31 73,34 13,1 32,4 45,1 12,-3 25,-7 37,-11 41,-15 97,-47 66,-97 -23,-39 -73,-51 -115,-50 -39,0 -85,12 -108,47 -15,23 -10,52 2,76 4,8 16,1 12,-8z"/>
 </g>
</svg>
