<?xml version="1.0" encoding="UTF-8"?>
<!DOCTYPE svg PUBLIC "-//W3C//DTD SVG 1.1//EN" "http://www.w3.org/Graphics/SVG/1.1/DTD/svg11.dtd">
<!-- Creator: CorelDRAW X7 -->
<svg xmlns="http://www.w3.org/2000/svg" xml:space="preserve" width="2.20715in" height="1.41378in" version="1.1" style="shape-rendering:geometricPrecision; text-rendering:geometricPrecision; image-rendering:optimizeQuality; fill-rule:evenodd; clip-rule:evenodd"
viewBox="0 0 1289 826"
 xmlns:xlink="http://www.w3.org/1999/xlink">
 <defs>
  <style type="text/css">
   <![CDATA[
    .fil1 {fill:#E8D9CF}
    .fil4 {fill:#BA9B7B}
    .fil0 {fill:#B7ABA4}
    .fil5 {fill:#93693B}
    .fil3 {fill:#6F5435}
    .fil6 {fill:#4E4540}
    .fil2 {fill:#3A3531}
   ]]>
  </style>
 </defs>
 <g id="Layer_x0020_1">
  <metadata id="CorelCorpID_0Corel-Layer"/>
  <path class="fil0" d="M11 739c-6,5 -14,-3 -10,-10 24,-31 57,-81 71,-125 23,-71 29,-261 190,-286 0,0 -96,305 -251,421z"/>
  <path class="fil0" d="M163 624c0,0 42,51 47,84 5,32 8,85 8,85l119 0c0,0 0,-54 -47,-66 0,0 -18,-100 17,-118l-144 15z"/>
  <path class="fil0" d="M1031 599l9 197 139 0c0,0 7,-61 -55,-63 0,0 36,-132 32,-184l-125 50z"/>
  <path class="fil1" d="M1107 0c-32,3 -79,28 -99,70 -19,42 -64,159 -74,171 -10,12 -36,6 -50,9 -15,3 -33,38 -41,42 -8,5 -29,-4 -45,0 -17,5 -30,23 -61,28 -30,5 -392,-19 -438,-15 -45,5 -129,69 -155,135 -26,67 -72,216 -72,216 0,0 42,52 47,84 5,33 8,86 8,86l119 0c0,0 0,-55 -47,-66 0,0 -18,-101 18,-119 35,-18 89,-3 129,-31 0,0 215,37 257,53 42,17 184,71 184,71 0,0 259,-20 343,-104 85,-84 39,-206 39,-206 0,0 26,-3 46,-38 19,-35 -12,-126 0,-162 11,-35 22,-99 22,-99 0,0 -34,-24 -32,-50 1,-26 1,-26 1,-26 0,0 -48,-54 -99,-49z"/>
  <path class="fil1" d="M874 654l79 172 140 0c0,0 6,-61 -55,-63 0,0 -34,-107 -39,-159l-125 50z"/>
  <path class="fil2" d="M903 583c11,-22 7,-59 -19,-66 -40,-15 -102,-37 -76,-81 29,-44 69,-84 36,-139 -1,-2 -1,-3 -2,-4 -8,4 -29,-5 -44,-1 -17,5 -30,23 -61,28 -12,2 -79,-1 -158,-5 -52,9 -101,25 -123,66 -11,22 -11,62 -52,59 9,-46 -3,-90 -13,-133 -45,-2 -80,-3 -92,-2 -45,5 -129,69 -155,135 -24,62 -65,194 -71,214 64,-1 106,-58 170,-71 18,-4 40,3 59,-4 29,-15 51,-40 62,-70 7,42 23,82 49,113 66,12 163,31 190,41 4,2 8,4 13,6 -13,-13 -24,-27 -17,-46 14,-33 69,-48 99,-22 50,42 87,100 141,127 14,-2 30,-4 47,-7 -46,-40 -4,-96 17,-138z"/>
  <path class="fil3" d="M1220 113c0,0 29,12 35,26 5,15 -14,151 0,191 13,40 39,84 33,91 -5,8 -87,-6 -103,-78 -17,-73 35,-230 35,-230z"/>
  <path class="fil1" d="M1237 125c0,0 -34,-24 -32,-50 1,-26 1,-26 1,-26 0,0 -48,-54 -99,-49 -32,3 -79,28 -99,70 -5,11 -11,27 -19,45 3,3 6,7 9,10 37,73 48,190 136,215 51,14 70,-24 79,-70 -1,-18 -2,-35 2,-46 11,-35 22,-99 22,-99z"/>
  <path class="fil4" d="M1213 270c5,41 15,92 2,116 -20,35 -46,38 -46,38l0 1c-38,4 -76,-22 -98,-51 -55,-72 -84,-154 -90,-239 3,-7 6,-14 8,-20 3,3 6,7 9,10l93 187c0,0 14,17 22,18 9,0 27,-53 33,-60 6,-7 13,-15 20,-7 7,8 14,52 20,61 6,8 24,-23 27,-54z"/>
  <path class="fil5" d="M287 562c66,-47 103,-164 29,-219 -19,-17 -46,-23 -72,-15 -40,25 -83,68 -100,112 -24,62 -65,194 -71,214 64,-1 106,-58 170,-71 18,-4 40,3 59,-4 11,-5 21,-12 29,-21 -13,7 -29,9 -44,4z"/>
  <path class="fil5" d="M434 471c-13,32 -38,53 -61,76 8,27 22,53 40,75 32,6 71,13 106,21 -47,-48 -81,-106 -85,-172z"/>
  <path class="fil5" d="M884 517c-40,-15 -102,-37 -76,-81 24,-37 56,-71 47,-113 -1,42 -51,68 -77,100 -36,41 0,81 41,110 29,22 0,59 -15,84 -4,8 0,19 0,26 -33,-51 -114,-110 -165,-59 -3,3 -6,7 -8,10 22,-9 49,-8 67,7 50,42 87,100 141,127 14,-2 30,-4 47,-7 -46,-40 -4,-96 17,-138 11,-22 7,-59 -19,-66z"/>
  <path class="fil5" d="M1214 227c0,-1 0,-2 1,-3 11,-35 22,-99 22,-99 0,0 -34,-24 -32,-50 1,-26 1,-26 1,-26 0,0 -41,-45 -86,-49 19,35 31,113 31,113 47,12 52,68 63,114z"/>
  <path class="fil5" d="M1008 70c-7,15 -17,40 -28,67 -5,84 37,169 124,193 -44,-51 -40,-105 -29,-164 0,-14 44,-49 44,-49 -6,-38 -10,-78 -25,-114 -31,7 -69,30 -86,67z"/>
  <path class="fil2" d="M1069 45c0,0 -30,10 -38,30 -9,19 0,59 0,59 0,0 2,-50 23,-58 21,-9 15,-31 15,-31z"/>
  <path class="fil2" d="M1067 95c0,5 -4,10 -9,10 -5,0 -10,-5 -10,-10 0,-5 5,-9 10,-9 5,0 9,4 9,9z"/>
  <path class="fil2" d="M1164 44c0,0 30,10 38,29 9,20 0,60 0,60 0,0 -2,-50 -23,-58 -21,-9 -15,-31 -15,-31z"/>
  <path class="fil2" d="M1166 94c0,5 4,9 9,9 5,0 10,-4 10,-9 0,-5 -5,-9 -10,-9 -5,0 -9,4 -9,9z"/>
  <path class="fil2" d="M1130 309c1,-3 2,-5 4,-8 -1,3 -3,5 -4,8zm56 15c-5,-5 -9,-59 -21,-67l-2 -47c0,0 26,-25 27,-44 2,-18 -31,-42 -52,-42 -13,0 -38,31 -37,42 1,12 51,44 51,44l0 46c0,0 -13,23 -28,61 -3,5 -7,9 -10,9 -9,1 -25,-17 -25,-17 0,0 13,21 24,21 9,0 19,-23 24,-35 8,-14 15,-30 21,-32 12,-5 23,65 29,65 4,0 12,-11 16,-22 -6,11 -12,22 -17,18z"/>
  <path class="fil6" d="M1142 161c-14,-2 -25,6 -23,17 2,10 15,10 15,10l6 14c3,2 5,3 7,5 2,-15 5,-44 -5,-46z"/>
  <path class="fil6" d="M1168 161c-10,2 -6,35 -4,48 1,-1 3,-3 5,-5l6 -16c0,0 4,0 7,-2 3,-4 6,-9 7,-13 -1,-8 -10,-13 -21,-12z"/>
  <path class="fil3" d="M1011 65c0,0 -18,50 -40,59 -23,8 -39,85 -41,121 -2,35 2,160 45,195 43,35 37,71 56,69 18,-1 59,-103 58,-162 -1,-58 -45,-133 -58,-173 -14,-39 -20,-109 -20,-109z"/>
 </g>
</svg>
