<?xml version="1.0" encoding="UTF-8"?>
<!DOCTYPE svg PUBLIC "-//W3C//DTD SVG 1.1//EN" "http://www.w3.org/Graphics/SVG/1.1/DTD/svg11.dtd">
<!-- Creator: CorelDRAW X7 -->
<svg xmlns="http://www.w3.org/2000/svg" xml:space="preserve" width="2.70557in" height="2.13831in" version="1.1" style="shape-rendering:geometricPrecision; text-rendering:geometricPrecision; image-rendering:optimizeQuality; fill-rule:evenodd; clip-rule:evenodd"
viewBox="0 0 580 458"
 xmlns:xlink="http://www.w3.org/1999/xlink">
 <defs>
  <style type="text/css">
   <![CDATA[
    .fil0 {fill:#373435;fill-rule:nonzero}
   ]]>
  </style>
 </defs>
 <g id="__x0023_Layer_x0020_1">
  <metadata id="CorelCorpID_0Corel-Layer"/>
  <path class="fil0" d="M169 182c21,-9 48,-17 86,-17 38,0 86,5 101,0 14,-6 18,-8 32,-14 14,-6 21,-11 28,-19 7,-9 12,-35 26,-48 13,-14 16,-14 21,-27 4,-12 16,-26 20,-35 3,-9 7,-24 8,-20 2,4 2,18 4,15 2,-4 7,-22 8,-16 2,6 0,18 0,27 1,10 -7,15 4,19 11,4 27,14 28,19 0,5 4,10 11,13 7,3 37,14 33,20 -4,6 -8,12 -15,14 -8,1 -25,-2 -30,-4 -6,-2 -16,-8 -11,-4 4,4 17,13 22,16 4,2 8,12 9,15 0,3 0,7 2,9 3,2 12,15 4,15 -9,0 -17,-3 -19,-9 -1,-6 4,-5 -1,-6 -6,-1 -23,-11 -28,-13 -5,-3 -10,-4 -10,1 1,5 -10,26 -11,34 -1,8 -1,19 -5,30 -4,10 -4,25 -4,30 0,6 -2,13 -10,20 -7,8 -26,37 -30,43 -3,7 -8,29 -10,39 -2,10 -2,34 -4,48 -1,13 -2,25 0,38 3,13 10,12 13,12 3,0 7,4 8,8 0,4 -8,7 -11,6 -4,0 -5,2 -13,4 -8,2 -22,3 -27,-3 -5,-6 -6,-16 -8,-23 -1,-7 -4,-7 -4,-17 0,-10 2,-24 2,-40 0,-16 -1,-41 -2,-52 -1,-12 1,-12 -7,-12 -7,0 -39,-12 -52,-14 -14,-2 -31,-12 -43,-15 -12,-3 -48,-13 -55,-6 -6,7 -24,24 -27,32 -2,8 -19,33 -24,39 -5,6 -29,24 -34,31 -6,7 -14,25 -14,31 0,6 -6,32 0,36 5,5 5,0 11,3 7,3 12,9 9,12 -4,3 -12,2 -13,4 -1,2 -2,6 -10,6 -7,1 -26,3 -28,-6 -1,-8 -3,-25 -2,-36 0,-12 0,-40 4,-45 4,-5 30,-37 32,-42 2,-5 -5,-7 -7,-31 -1,-23 -5,-29 3,-49 8,-20 17,-32 12,-29 -4,2 -48,29 -60,33 -12,4 -28,9 -45,1 -17,-8 -33,-19 -36,-34 -2,-15 5,-30 8,-39 3,-9 -2,-20 4,-17 7,2 12,16 14,25 3,8 6,27 20,31 14,3 35,2 43,-3 9,-6 42,-19 52,-24 10,-4 28,-10 28,-10z"/>
 </g>
</svg>
