<?xml version="1.0" encoding="UTF-8"?>
<!DOCTYPE svg PUBLIC "-//W3C//DTD SVG 1.1//EN" "http://www.w3.org/Graphics/SVG/1.1/DTD/svg11.dtd">
<!-- Creator: CorelDRAW X7 -->
<svg xmlns="http://www.w3.org/2000/svg" xml:space="preserve" width="1.12185in" height="0.749858in" version="1.1" style="shape-rendering:geometricPrecision; text-rendering:geometricPrecision; image-rendering:optimizeQuality; fill-rule:evenodd; clip-rule:evenodd"
viewBox="0 0 2208 1476"
 xmlns:xlink="http://www.w3.org/1999/xlink">
 <defs>
  <style type="text/css">
   <![CDATA[
    .fil0 {fill:black;fill-rule:nonzero}
   ]]>
  </style>
 </defs>
 <g id="__x0023_Layer_x0020_2">
  <metadata id="CorelCorpID_0Corel-Layer"/>
  <path class="fil0" d="M0 262c0,0 311,244 565,180l584 -17c58,-1 120,-22 174,-37 82,-24 201,-61 249,-137 37,-60 66,-120 120,-169 41,-36 88,-61 140,-75 46,-12 105,-11 136,21 30,29 62,52 100,72 32,17 66,32 101,45 14,5 31,7 37,21 13,31 -39,65 -58,82 -5,6 -42,5 -50,6 -32,4 -64,7 -97,11 -60,7 -120,4 -161,59 -48,63 -30,138 -33,210 -3,70 -16,137 -49,200 -21,41 -54,78 -91,106l-30 80 -6 97 0 177c0,48 9,83 13,131 -1,-9 53,33 57,36l38 26 -41 30c-30,-2 -54,-4 -77,-2 11,-1 -17,-64 -24,-71 -16,-16 -19,-30 -19,-56 0,-10 -28,-87 -28,-87 5,52 -6,104 2,156 7,42 19,43 55,58l27 40c-21,12 -49,25 -74,20 -27,-6 -19,-32 -38,-50 -40,-38 2,-81 -49,-102 1,-135 -14,-268 -13,-403 0,-13 0,-27 0,-40 0,0 -174,7 -204,0 -30,-7 -80,-27 -80,-27 0,0 -110,-53 -147,-60 -37,-7 -160,-94 -281,80 0,0 -20,131 -230,224 0,0 -217,150 -100,284l13 47 -43 3 -47 0c0,0 -17,-6 -17,-16 0,-11 -7,-214 -7,-214 0,0 -170,123 -53,230l3 20 -20 24 -40 0 -40 -17c0,0 -13,-33 -13,-50 0,-17 0,-197 0,-197 0,0 294,-131 260,-435 0,0 -26,-170 84,-227l3 -27c0,0 -250,7 -501,-260z"/>
 </g>
</svg>
