<?xml version="1.0" encoding="UTF-8"?>
<!DOCTYPE svg PUBLIC "-//W3C//DTD SVG 1.1//EN" "http://www.w3.org/Graphics/SVG/1.1/DTD/svg11.dtd">
<!-- Creator: CorelDRAW X7 -->
<svg xmlns="http://www.w3.org/2000/svg" xml:space="preserve" width="1.03502in" height="0.857531in" version="1.1" style="shape-rendering:geometricPrecision; text-rendering:geometricPrecision; image-rendering:optimizeQuality; fill-rule:evenodd; clip-rule:evenodd"
viewBox="0 0 2416 2001"
 xmlns:xlink="http://www.w3.org/1999/xlink">
 <defs>
  <style type="text/css">
   <![CDATA[
    .fil0 {fill:black;fill-rule:nonzero}
   ]]>
  </style>
 </defs>
 <g id="__x0023_Layer_x0020_2">
  <metadata id="CorelCorpID_0Corel-Layer"/>
  <path class="fil0" d="M21 10c-21,63 10,169 30,228 31,90 93,170 179,212 120,60 244,99 355,177 0,0 246,-53 586,0l446 -193c8,-4 20,-48 24,-56 21,-44 45,-87 73,-127 34,-48 72,-98 121,-133 23,-17 51,-28 75,-46 18,-14 36,-54 53,-63 71,-36 140,42 198,62 41,14 85,43 107,80 16,28 15,64 42,86 43,36 103,5 105,78 3,64 -23,161 -95,179 -59,15 -77,12 -121,-30 -25,-24 -52,-46 -79,-68 0,0 -67,-22 -68,-23 -12,-3 -48,78 -51,88 -15,59 7,127 16,185 8,54 11,111 10,165 0,52 -6,108 -24,157 -19,52 -52,64 -84,101l-75 87 -12 79 -30 420 49 144c0,0 27,60 34,71 8,12 121,65 102,91l-75 27 -102 0c0,0 -34,-31 -38,-42 -9,-27 -25,-52 -34,-79 -12,-36 -8,-75 -22,-109 -16,-41 -60,-62 -70,-107 -8,-36 -6,-79 -9,-116 -9,-89 -15,-179 -22,-268 -2,-20 -4,-41 -6,-62l-170 -11 -94 -46c0,0 -72,-30 -95,-49 -22,-19 -317,-181 -450,4 0,0 -117,352 -423,450 -38,12 -65,32 -88,65 -40,59 -50,149 -30,216 16,55 85,95 94,145 4,18 -123,25 -136,22 -47,-11 -72,-46 -79,-93 -13,-91 -4,-197 -3,-289 0,-30 0,-59 0,-89 0,0 367,-227 314,-454 0,0 -19,-355 90,-370 -10,1 -60,-53 -70,-60 -38,-31 -78,-58 -121,-83 -103,-58 -214,-110 -281,-213 -68,-104 -86,-221 -46,-340z"/>
 </g>
</svg>
