<?xml version="1.0" encoding="UTF-8"?>
<!DOCTYPE svg PUBLIC "-//W3C//DTD SVG 1.1//EN" "http://www.w3.org/Graphics/SVG/1.1/DTD/svg11.dtd">
<!-- Creator: CorelDRAW X7 -->
<svg xmlns="http://www.w3.org/2000/svg" xml:space="preserve" width="1.14457in" height="0.628382in" version="1.1" style="shape-rendering:geometricPrecision; text-rendering:geometricPrecision; image-rendering:optimizeQuality; fill-rule:evenodd; clip-rule:evenodd"
viewBox="0 0 306 168"
 xmlns:xlink="http://www.w3.org/1999/xlink">
 <defs>
  <style type="text/css">
   <![CDATA[
    .fil0 {fill:#4F4138;fill-rule:nonzero}
   ]]>
  </style>
 </defs>
 <g id="_2">
  <metadata id="CorelCorpID_0Corel-Layer"/>
  <path class="fil0" d="M306 48c0,-26 -21,-48 -48,-48 -23,0 -43,17 -47,40l-116 0c-4,-23 -23,-40 -47,-40 -26,0 -48,22 -48,48 0,14 6,27 16,36 -10,9 -16,22 -16,36 0,27 22,48 48,48 23,0 43,-16 47,-38l116 0c5,22 24,38 47,38 27,0 48,-21 48,-48 0,-14 -6,-27 -16,-36 10,-9 16,-22 16,-36z"/>
 </g>
</svg>
