<?xml version="1.0" encoding="UTF-8"?>
<!DOCTYPE svg PUBLIC "-//W3C//DTD SVG 1.1//EN" "http://www.w3.org/Graphics/SVG/1.1/DTD/svg11.dtd">
<!-- Creator: CorelDRAW X7 -->
<svg xmlns="http://www.w3.org/2000/svg" xml:space="preserve" width="0.777531in" height="0.746421in" version="1.1" style="shape-rendering:geometricPrecision; text-rendering:geometricPrecision; image-rendering:optimizeQuality; fill-rule:evenodd; clip-rule:evenodd"
viewBox="0 0 90 87"
 xmlns:xlink="http://www.w3.org/1999/xlink">
 <defs>
  <style type="text/css">
   <![CDATA[
    .fil0 {fill:#4F4138;fill-rule:nonzero}
   ]]>
  </style>
 </defs>
 <g id="_2">
  <metadata id="CorelCorpID_0Corel-Layer"/>
  <g id="_423658735728">
   <path class="fil0" d="M26 20c1,-2 1,-5 1,-8 0,-1 1,-1 1,0l2 2c1,1 2,1 3,0l1 0c1,0 1,-1 1,-2 -6,-9 -12,-11 -14,-12 -1,0 -3,0 -3,0 -5,0 -11,5 -14,10 -6,13 -5,22 1,25 6,3 14,-2 21,-15z"/>
   <path class="fil0" d="M86 10c-2,-5 -8,-10 -13,-10 -1,0 -3,0 -4,0 -2,1 -8,3 -13,12 -1,1 -1,2 0,2l1 0c1,1 2,1 3,0l2 -2c1,-1 1,-1 1,0 0,3 1,6 2,8 6,13 14,18 20,15 6,-3 8,-12 1,-25z"/>
   <path class="fil0" d="M45 87l0 0c0,0 0,0 0,0 0,0 0,0 0,0z"/>
   <path class="fil0" d="M51 71c-2,1 -4,1 -6,1 -2,0 -4,0 -6,-1 -1,0 -2,1 -2,2 0,4 0,14 8,14 7,0 8,-10 8,-14 0,-1 -1,-2 -2,-2z"/>
   <path class="fil0" d="M68 32c-2,-2 -4,-6 -6,-10 0,-1 -1,-2 -1,-3 0,-1 -1,-2 -1,-1 -1,0 -3,0 -5,-1 -3,-2 -4,-3 -4,-4l1 -1c1,-1 1,-2 2,-2 1,-2 -1,-5 -4,-8 -3,-2 -8,-2 -10,0 -3,3 -5,6 -4,7 1,1 1,2 2,3 0,0 0,1 1,1 0,1 -1,2 -3,4 -3,1 -5,1 -5,1 -1,-1 -1,0 -2,1 0,1 0,2 -1,3 -2,4 -4,8 -6,10 -5,5 -11,9 -12,11 0,2 0,4 0,5 0,13 7,19 17,22 9,2 16,-2 16,-6l0 -7c0,-2 -1,-4 -3,-5 -1,-1 -2,-2 -2,-2 0,-1 0,-1 0,-1 0,0 1,0 1,0 0,0 2,-1 3,-1 1,0 2,0 3,0l0 0c1,0 2,0 2,0 2,0 4,1 4,1 0,0 0,0 0,0 1,0 1,0 1,1 -1,0 -2,1 -3,2 -1,1 -3,3 -3,5 0,0 0,3 0,7 0,4 8,8 17,6 10,-3 17,-9 17,-22 0,-1 0,-3 -1,-5 0,-2 -6,-6 -11,-11zm-31 1l0 0c-1,0 -2,-1 -2,-2 0,-1 1,-2 2,-2 2,0 3,1 3,2 0,1 -1,2 -3,2zm17 0l0 0c-1,0 -2,-1 -2,-2 0,-1 1,-2 2,-2 1,0 2,1 2,2 0,1 -1,2 -2,2z"/>
  </g>
 </g>
</svg>
