<?xml version="1.0" encoding="UTF-8"?>
<!DOCTYPE svg PUBLIC "-//W3C//DTD SVG 1.1//EN" "http://www.w3.org/Graphics/SVG/1.1/DTD/svg11.dtd">
<!-- Creator: CorelDRAW X7 -->
<svg xmlns="http://www.w3.org/2000/svg" xml:space="preserve" width="2.0758in" height="2.0271in" version="1.1" style="shape-rendering:geometricPrecision; text-rendering:geometricPrecision; image-rendering:optimizeQuality; fill-rule:evenodd; clip-rule:evenodd"
viewBox="0 0 386 377"
 xmlns:xlink="http://www.w3.org/1999/xlink">
 <defs>
  <style type="text/css">
   <![CDATA[
    .fil4 {fill:#C55270}
    .fil3 {fill:#B6A59A}
    .fil7 {fill:#B3995D}
    .fil5 {fill:#89674A}
    .fil2 {fill:#6B543E}
    .fil1 {fill:#7D726B}
    .fil0 {fill:#514232}
    .fil9 {fill:#3D3B30}
    .fil6 {fill:#302C2C}
    .fil8 {fill:#282828}
   ]]>
  </style>
 </defs>
 <g id="Layer_x0020_1">
  <metadata id="CorelCorpID_0Corel-Layer"/>
  <path class="fil0" d="M363 20c0,0 5,10 11,16 5,6 10,9 10,9 0,0 6,18 -3,28 0,0 -21,-41 -18,-53z"/>
  <path class="fil1" d="M85 221c-2,25 -6,53 -31,69 0,0 11,12 10,32 -1,20 -4,41 -4,41l56 0c0,0 -4,-17 -23,-19 0,0 0,-27 11,-41 0,2 0,4 0,6 3,-3 5,-7 6,-11 1,3 1,5 2,7 2,-5 4,-10 6,-15 1,3 1,6 3,9 2,-8 5,-15 7,-23 1,5 2,10 3,15 2,-8 3,-16 2,-24 1,3 3,6 4,9 1,-6 1,-12 1,-19 2,3 4,6 5,8 1,-7 0,-14 -2,-22 5,-14 7,-27 6,-38l-62 16z"/>
  <path class="fil1" d="M279 168c3,17 8,34 14,50 1,-2 2,-4 3,-6 8,20 11,40 10,61 2,-2 4,-4 6,-6 -2,19 -7,38 -13,56 5,-1 10,-7 10,-7 0,0 -3,11 -3,14 0,5 6,28 6,28l43 0c0,0 2,-14 -9,-17 0,0 -4,-57 -5,-76 -1,-18 25,-82 25,-82l-87 -15z"/>
  <path class="fil2" d="M44 201c-8,-2 -10,-69 35,-83 45,-13 -2,45 -10,55 -8,9 -15,31 -25,28z"/>
  <path class="fil3" d="M375 193c-4,-10 -6,-20 -7,-30 2,1 4,3 6,4 -5,-13 -10,-26 -14,-39 -1,-18 -2,-35 -2,-43l10 -40 -2 -21c0,0 4,-1 5,-6 0,-5 -11,-7 -11,-7 0,0 -6,-10 -24,-11 -14,0 -33,0 -42,33 -8,33 -13,53 -29,65 -17,12 -53,17 -97,9 -44,-8 -86,0 -101,23 -15,23 -3,81 -11,106 -8,25 -19,52 -49,68 0,0 9,12 4,32 -4,19 -11,41 -11,41l56 0c0,0 0,-18 -19,-20 0,0 6,-27 20,-39 0,1 -1,3 -1,5 3,-3 6,-7 9,-11 0,3 0,5 0,8 4,-5 7,-10 10,-15 0,2 0,5 1,8 5,-7 9,-15 13,-23 0,5 0,10 0,15 4,-7 7,-15 8,-23 1,3 2,6 3,9 2,-6 4,-12 6,-18 1,2 2,5 3,7 3,-6 4,-14 4,-21 9,-13 17,-27 19,-37 0,-1 0,-1 0,-2 3,5 6,10 9,14 1,-5 2,-10 3,-14 3,5 6,9 11,13 1,-4 1,-9 0,-13 4,8 12,15 21,17 0,-2 1,-4 2,-6 3,3 6,7 11,9 4,2 9,3 13,0 -1,1 0,3 1,4 1,1 2,1 4,1 8,0 16,0 24,1 -1,1 -3,3 -4,4 15,0 29,1 44,2 -1,2 -3,3 -4,5 11,-1 22,-2 32,-2 1,1 1,3 1,4 13,-3 26,-10 36,-19 0,2 0,3 -1,5 10,-6 17,-14 22,-23 1,2 1,5 2,8 5,-6 8,-13 9,-20 2,1 4,2 6,3 -2,-8 -4,-16 -6,-24 2,1 4,3 7,4z"/>
  <path class="fil3" d="M249 186c4,18 9,34 15,51 1,-2 2,-4 3,-6 7,19 10,40 9,61 2,-2 4,-5 7,-7 -3,19 -7,38 -14,56 5,0 10,-6 10,-6 0,0 -3,11 -3,14 0,5 7,28 7,28l42 0c0,0 2,-14 -8,-17 0,0 -5,-57 -6,-76 -1,-19 34,-86 34,-86l-96 -12z"/>
  <path class="fil0" d="M192 215c0,-6 2,-10 6,-15 5,10 9,21 16,30 1,-4 1,-8 3,-13 4,6 8,12 10,19 0,-5 2,-8 4,-13 4,4 7,8 9,13 2,-3 1,-12 5,-12 7,-1 10,11 17,13 -21,-27 -51,-65 -31,-100 -5,1 -6,6 -10,8 0,-8 7,-15 12,-21 -4,0 -7,1 -9,4 2,-9 8,-15 15,-20 -7,1 -14,2 -23,3 -30,24 -47,70 -24,104z"/>
  <path class="fil0" d="M63 228c0,-1 0,-2 0,-2 0,0 0,1 0,2 0,8 1,17 -5,24 12,-3 15,-15 16,-25 4,7 3,14 1,21 37,-8 28,-43 26,-71 -3,1 -6,4 -9,7 -1,-11 2,-20 6,-30 -5,2 -9,5 -13,6 1,-9 7,-16 10,-24 -6,1 -11,2 -16,7 3,-24 29,-24 44,-38 0,0 0,0 0,0 -25,2 -46,10 -56,25 -15,23 -3,81 -11,106 -1,3 -2,7 -3,10 6,-4 10,-11 10,-18z"/>
  <path class="fil4" d="M63 226l-1 0c0,0 0,1 0,2l1 0 0 -1c0,-1 0,-1 0,-1l-1 0 1 0 -1 0c0,0 0,0 0,1l0 1 1 0 0 0c0,-1 0,-2 0,-2l0 0 -1 0 1 0z"/>
  <path class="fil2" d="M374 167c-5,-13 -10,-26 -14,-39 -1,-18 -2,-35 -2,-43l10 -40 -2 -21c0,0 4,-1 5,-6 0,-5 -11,-7 -11,-7 0,0 -6,-10 -24,-11 -14,0 -33,0 -42,33 -4,15 -7,27 -10,37 0,2 0,5 -1,6 -9,22 -12,47 4,66 8,9 21,14 25,26 1,-7 -1,-12 -2,-19 5,3 8,8 10,12 0,-7 0,-14 0,-21 12,12 20,28 24,45 0,-11 0,-22 0,-33 0,0 6,11 10,14 1,-10 -3,-20 -2,-30 4,14 9,34 19,45 -1,-6 -2,-12 -3,-18 2,1 4,3 6,4z"/>
  <path class="fil5" d="M319 91c10,9 27,10 35,-4 1,-2 2,-3 4,-3l10 -39 -2 -21c0,0 4,-1 5,-6 0,-5 -11,-7 -11,-7 0,0 -6,-10 -24,-11 -11,0 -25,0 -35,16 -4,26 -4,58 18,75z"/>
  <path class="fil6" d="M326 31c0,2 -2,3 -4,3 -2,0 -3,-1 -3,-3 0,-2 1,-4 3,-4 2,0 4,2 4,4z"/>
  <path class="fil6" d="M363 27c0,2 -1,4 -3,4 -2,0 -3,-2 -3,-4 0,-1 1,-3 3,-3 2,0 3,2 3,3z"/>
  <path class="fil0" d="M333 23l0 -9 -1 4c0,0 -3,-7 -3,-6 0,1 1,5 1,5 0,0 -6,-2 -14,-1 -7,1 -10,8 -10,8 0,0 6,-5 11,-5 0,0 -9,6 -12,13 0,0 5,-5 7,-5 0,0 -2,3 -3,6 0,0 6,-10 14,-11 7,0 10,1 10,1z"/>
  <path class="fil0" d="M347 22l-1 -9 2 4c0,0 2,-7 2,-6 0,1 0,5 0,5 0,0 5,-2 12,-1 7,0 10,6 10,6 0,0 -6,-4 -10,-4 0,0 9,5 13,13 0,0 -6,-5 -8,-6 0,0 3,4 3,6 0,0 -6,-9 -13,-9 -8,0 -10,1 -10,1z"/>
  <path class="fil7" d="M339 17l2 12 -5 -10 3 8 -4 -1c0,0 2,2 2,3 -1,0 -5,0 -5,0l5 2 -5 3 7 0c0,0 -3,1 -9,4 -14,10 -14,24 -14,24 0,0 2,-8 7,-12 0,0 -6,8 -4,24 1,12 9,22 18,26 0,0 -6,-9 -6,-13 0,0 8,10 16,13 0,0 -5,-11 -5,-16l3 4c0,0 2,-12 6,-18 4,-6 9,-6 9,-6l2 2 -4 19 0 7c0,0 6,-4 8,-12 0,0 3,6 0,12 0,0 6,-3 8,-15 0,0 3,4 1,11 0,0 6,-2 8,-20 1,-17 -14,-28 -14,-28 0,0 4,2 7,3 0,0 -8,-7 -14,-9 -7,-3 -11,-1 -11,-1l4 -8 -5 5 -1 -5 -1 5 -3 -6 1 5 -5 -12 1 7 -3 -7z"/>
  <path class="fil0" d="M305 11c0,0 -10,4 -18,11 -8,8 -27,30 -27,30 0,0 0,20 11,28 11,7 20,16 20,16 0,0 -4,-7 -6,-9 0,0 8,6 10,11 3,4 3,7 3,7 0,0 2,-6 1,-9 0,0 2,2 3,5 0,0 3,-6 3,-14 -1,-8 -4,-12 -4,-12 0,0 4,4 5,8 0,0 3,-3 2,-15 0,-11 -5,-24 -6,-32 -2,-8 -1,-19 3,-25z"/>
  <path class="fil8" d="M358 46c-5,0 -12,3 -12,5 0,3 7,11 11,12 5,1 9,-5 10,-8 1,-3 0,-8 -9,-9z"/>
  <path class="fil9" d="M356 53c-3,-2 -5,-1 -5,2 0,2 4,2 4,2l1 5c0,1 0,1 0,1 1,-3 2,-10 0,-10z"/>
  <path class="fil9" d="M360 53c0,2 -1,7 -1,10l1 0 2 -6c0,0 3,-1 4,-4 0,-2 -5,-2 -6,0z"/>
 </g>
</svg>
