<?xml version="1.0" encoding="UTF-8"?>
<!DOCTYPE svg PUBLIC "-//W3C//DTD SVG 1.1//EN" "http://www.w3.org/Graphics/SVG/1.1/DTD/svg11.dtd">
<!-- Creator: CorelDRAW X7 -->
<svg xmlns="http://www.w3.org/2000/svg" xml:space="preserve" width="2.81615in" height="2.77453in" version="1.1" style="shape-rendering:geometricPrecision; text-rendering:geometricPrecision; image-rendering:optimizeQuality; fill-rule:evenodd; clip-rule:evenodd"
viewBox="0 0 1018 1003"
 xmlns:xlink="http://www.w3.org/1999/xlink">
 <defs>
  <style type="text/css">
   <![CDATA[
    .fil0 {fill:#84716B}
   ]]>
  </style>
 </defs>
 <g id="Layer_x0020_1">
  <metadata id="CorelCorpID_0Corel-Layer"/>
  <path class="fil0" d="M735 30c-6,7 -12,14 -15,17 -10,10 -34,53 -37,67 -1,3 -22,34 -22,34 -6,11 -10,22 -17,33 -5,8 -11,15 -18,23 -7,7 -14,14 -22,21 -8,7 -17,14 -26,20 -11,8 -23,15 -36,22 -13,6 -26,11 -40,16 -12,4 -25,8 -38,10 -17,4 -34,6 -52,6 -15,0 -31,-6 -46,-7 -22,-2 -73,0 -90,-12 -7,-6 -7,-16 -10,-24 -14,-42 -28,-110 -17,-152 2,-6 5,-12 9,-18 3,-5 8,-9 11,-14 2,-3 2,-6 3,-9 0,0 1,-7 -2,-12 -2,-5 -5,-10 -5,-10 -2,-1 -5,-4 -7,-4 -4,-1 -7,-1 -10,0 -4,2 -7,5 -9,7 -3,3 -5,7 -6,11 -3,6 -4,12 -7,19 -1,4 -4,8 -5,12 -7,16 -9,33 -12,49 -1,8 -1,15 -2,22 -4,28 -2,47 -1,75 1,7 5,66 5,68 -6,27 -83,54 -98,174 -1,9 -1,18 -4,27 -3,13 -9,25 -14,37 -4,11 -7,22 -11,33 -12,34 -16,45 -16,82 0,4 -1,13 -2,24 -2,11 -9,26 -9,26 0,0 -8,8 -13,13 -10,11 -30,43 -34,55 -3,10 0,20 1,30 0,0 -8,19 -9,22 -8,22 12,29 8,36 -2,5 -4,16 -6,22 -4,13 4,58 12,59 2,1 8,2 12,1 11,-3 21,-3 32,-2 5,2 11,4 16,6 5,1 29,2 31,-2 2,-3 10,-7 8,-15 -1,-7 0,-9 -5,-20 -4,-10 -8,-21 -11,-26 -2,-5 -5,-10 -5,-12 0,-3 2,-7 3,-11 1,-5 3,-9 4,-14 1,-4 3,1 4,-15 0,-16 0,-25 0,-25 3,-9 5,-18 8,-26 0,0 9,-21 11,-23 11,-19 17,-40 28,-57 7,-11 17,-18 26,-27 37,-39 13,-22 29,-53 3,-6 21,-30 21,-30 2,-4 4,-8 7,-11 3,-4 8,-15 11,-11 11,13 2,75 1,92 -1,7 4,13 2,19 -3,9 -11,15 -15,23 -8,14 -18,42 -23,57 0,5 0,10 -1,15 -2,7 -7,14 -7,21 -1,9 3,16 5,25 0,0 -3,15 -4,20 0,4 4,40 4,49 1,6 0,13 3,18 2,4 6,6 10,8 5,3 9,7 15,8 11,3 71,8 69,-14 -1,-8 -3,-32 -4,-38 0,-6 -1,-28 -1,-33 0,-4 -3,-26 -3,-33 0,-7 3,-21 3,-26 0,-5 6,-17 9,-26 3,-10 7,-17 11,-22 4,-4 7,-11 21,-33 14,-22 18,-34 18,-34 2,-7 5,-15 8,-23 3,-8 5,-17 8,-25 2,-6 4,-12 7,-18 4,-8 4,-25 13,-24 27,1 74,47 118,65 26,11 53,11 64,8 3,-1 1,13 -1,27 -3,15 -3,35 -7,50 -3,15 -5,39 -7,46 -9,35 5,49 12,83 1,4 6,52 6,52 10,30 26,7 22,14 -13,20 -12,31 -10,52 0,3 -1,7 0,10 1,3 3,8 6,8 18,5 29,-1 43,-1 4,0 16,0 16,0 5,2 15,6 20,6 3,0 9,0 9,0 4,3 7,6 11,8 4,1 8,2 11,2 5,-1 9,-3 12,-6 4,-4 2,-11 6,-13 7,-2 1,-21 -11,-28 -2,-8 -4,-17 -7,-26 -1,-7 -3,-13 -4,-20 0,-6 1,-13 1,-19 -1,-7 -2,-13 -4,-20 -17,-60 -12,-104 -6,-166 0,41 -2,90 6,130 3,16 9,31 11,47 1,3 -1,15 -1,18 1,8 5,9 7,16 -1,9 8,17 14,22 -1,6 -9,9 -3,21 1,2 4,5 6,7 13,13 -8,22 36,19 5,0 10,-2 14,-1 4,1 6,5 9,6 3,1 7,2 10,2 5,0 10,-3 16,-4 7,-4 13,-9 13,-18 0,-14 -2,-14 -6,-26 -5,-12 -14,-11 -21,-19 -4,-4 -6,-10 -8,-15 -3,-10 -3,-20 -5,-30 0,0 4,-9 4,-12 0,-4 -1,-38 -1,-38 0,-18 -1,-35 -2,-52 -2,-22 -6,-52 -4,-73 1,-29 -8,-37 -8,-45 0,-2 -5,-18 -5,-21 0,-35 -3,-55 2,-93 1,-10 4,-21 6,-31 1,-12 3,-23 4,-34 1,-12 0,-23 1,-34 0,-10 -1,-20 0,-30 0,-11 0,-23 0,-35 1,-12 2,-24 2,-36 0,-9 -1,-18 1,-27 2,-8 7,-16 10,-25 2,-9 3,-18 5,-28 2,-5 3,-10 4,-16 2,-7 1,-15 4,-22 2,-5 4,-13 9,-14 7,-1 10,7 15,11 7,11 7,13 11,25 2,4 3,8 5,11 2,3 4,6 8,11 17,15 18,19 30,37 4,4 10,6 13,11 3,3 0,10 3,13 8,7 25,-1 27,1 2,2 13,11 13,11 15,15 5,-7 3,-24 -2,-11 3,-32 12,-40 3,-2 7,-2 10,-3 0,0 1,3 1,6 0,2 0,12 0,12 -1,9 -2,15 6,2 12,-20 17,-7 22,-39 0,-2 0,-5 1,-6 2,-3 6,-4 8,-7 2,-2 5,-6 5,-9 0,-3 -3,-5 -4,-7 0,0 -1,-7 0,-8 0,-1 4,-7 4,-7 0,-2 0,-4 0,-6 0,0 -2,-6 -4,-7 -2,-1 -8,-6 -8,-6 -2,-2 -5,-4 -6,-6 -14,-21 -32,-44 -44,-65 -3,-5 -7,-10 -8,-16 -1,-3 0,-6 1,-9 1,-3 4,-4 4,-7 1,-3 1,-6 -1,-9 -1,-3 -4,-7 -7,-8 -6,-4 -14,-4 -20,-8 -6,-4 -6,-13 -16,-20 -4,-3 -7,-5 -11,-12 -1,-3 -3,-5 -7,-8 -6,-6 -5,-5 -9,-13 -1,-2 -1,-5 -2,-7 -2,-3 -7,-5 -13,-7 -13,-3 -12,1 -18,1 -7,0 -13,-1 -20,-1 -36,-3 -68,3 -94,29z"/>
 </g>
</svg>
