<?xml version="1.0" encoding="UTF-8"?>
<!DOCTYPE svg PUBLIC "-//W3C//DTD SVG 1.1//EN" "http://www.w3.org/Graphics/SVG/1.1/DTD/svg11.dtd">
<!-- Creator: CorelDRAW X7 -->
<svg xmlns="http://www.w3.org/2000/svg" xml:space="preserve" width="2.41529in" height="2.90899in" version="1.1" style="shape-rendering:geometricPrecision; text-rendering:geometricPrecision; image-rendering:optimizeQuality; fill-rule:evenodd; clip-rule:evenodd"
viewBox="0 0 418 504"
 xmlns:xlink="http://www.w3.org/1999/xlink">
 <defs>
   <clipPath id="id0">
    <path d="M210 504c-2,0 -4,0 -6,0 -3,0 -5,-8 -7,-8 0,0 0,0 0,0 -1,0 -2,1 -4,2 -1,1 -2,1 -3,1 0,0 0,0 0,0 -2,0 -5,0 -7,0 0,0 0,0 0,0 -1,0 -2,0 -3,1 -1,0 -2,0 -4,0 0,0 0,0 0,0 0,0 0,0 0,0 -1,0 -2,1 -3,1 -1,0 -2,1 -3,1 0,0 0,0 -1,0 -2,0 -4,-7 -6,-7 0,0 -1,0 -1,0 -1,0 -2,0 -3,0 -1,0 -2,0 -2,0 -1,0 -1,0 -1,0 -2,0 -5,0 -7,0 0,0 0,0 0,0 -1,0 -2,2 -3,4 -2,1 -3,3 -4,3 0,0 0,0 0,0 -2,0 -4,-6 -7,-6 0,0 0,0 0,0 -1,0 -2,1 -3,2 -1,1 -2,1 -3,1 0,0 -1,0 -1,0 -2,0 -4,-2 -6,-2 0,0 -1,0 -1,0 -1,0 -2,0 -3,0 -1,0 -2,0 -3,0 0,0 0,0 0,0 0,0 0,0 0,0 -1,0 -3,1 -4,2 -1,1 -2,2 -3,2 0,0 0,0 0,0 -2,0 -5,-3 -7,-4 -2,0 -4,-5 -6,-6 -1,0 -1,0 -1,0 -1,0 -2,1 -3,1 -1,0 -2,0 -3,0 0,0 0,0 0,0 0,0 0,0 0,0 -2,0 -3,1 -4,2 -1,0 -2,1 -3,1 0,0 0,0 0,0 -3,0 -5,-3 -7,-3 0,0 0,0 0,0 -1,0 -2,1 -4,3 -1,1 -2,3 -3,3 0,0 0,0 0,0 -3,-1 -4,-8 -6,-8 -1,0 -1,0 -1,0 -1,0 -2,1 -3,2 -1,1 -2,2 -4,2 0,0 0,0 0,0 -2,0 -4,-4 -6,-4 -2,-1 -4,-4 -7,-4 -2,-1 -4,-1 -6,-2 0,0 0,0 -1,0 -1,0 -2,1 -3,2 -1,1 -2,3 -3,3 -1,0 -1,-1 -1,-1 -2,0 -4,-1 -6,-2 -1,0 -1,0 -1,0 -1,0 -2,1 -3,1 -1,0 -2,1 -3,1 0,0 -1,0 -1,0 -2,-1 -5,-3 -6,-4 -3,-2 -6,-6 -6,-8 0,-2 3,-5 6,-6 1,0 1,0 1,0 1,0 2,0 3,0 1,0 1,0 2,0 1,0 1,0 2,0 2,0 3,-5 5,-6 1,0 1,0 2,0 1,0 1,0 2,0 0,0 1,0 2,0 0,0 1,0 1,0 2,0 5,-2 7,-2 0,0 0,0 0,0 1,0 2,0 3,1 0,0 0,1 0,1 -2,1 -4,2 -5,3 -3,3 -4,5 -6,8l0 1c0,1 0,2 1,2 0,0 0,0 0,0 0,0 0,0 0,0 1,0 2,0 4,1 1,0 2,1 3,1 0,0 0,0 0,0 1,0 1,0 1,0 1,0 1,0 2,0 1,0 1,0 2,0 1,0 2,0 2,-1 1,0 1,0 2,0 0,0 0,0 1,0 0,0 0,0 1,0 0,0 0,0 0,0 2,0 3,-1 4,-1 1,0 1,0 1,0 1,0 3,0 4,1 0,0 1,0 2,0 1,0 1,0 2,-1 0,0 1,1 1,1 1,0 1,-1 2,-1 0,0 0,0 1,0 0,0 0,0 0,0 2,0 3,0 5,0 1,0 3,0 4,1 1,0 1,0 1,0 1,0 1,-1 2,-1 1,0 1,0 2,0 0,0 0,0 0,0 1,0 2,0 2,0 1,0 2,0 3,0 1,-2 1,-4 1,-6 0,-2 0,-4 1,-5 0,-3 -1,-5 0,-7 1,0 1,-1 1,-2 0,0 1,1 1,1 1,1 3,2 4,2 0,0 0,0 0,0 0,0 0,0 0,0 0,1 0,2 -1,3 0,0 1,1 1,2 0,2 0,4 -2,6 0,1 1,2 2,2 0,1 1,1 2,1 8,0 15,1 23,1 0,0 1,1 1,1 0,0 0,-1 1,-1 1,0 1,0 2,0 2,0 3,0 4,0 2,0 5,0 7,0 0,0 1,0 2,0 2,0 4,0 6,0 2,-1 3,-2 2,-5 0,-1 0,-2 0,-3 -1,-2 -1,-3 -1,-4 -1,-6 -2,-10 -5,-13 1,0 2,0 2,0 1,0 1,0 1,0 0,0 0,0 0,0 1,0 3,1 4,2 1,2 2,3 3,3 0,0 0,0 0,0 0,0 0,0 0,0 0,2 1,3 1,5 0,2 -1,5 0,6 1,3 1,5 1,7 0,0 0,1 1,1 1,0 2,0 3,0 1,0 2,0 2,0 1,-1 1,-1 2,-1 0,0 0,0 1,0 0,0 1,0 1,0 1,0 3,0 4,0 1,0 2,-1 3,-1 0,0 1,0 1,0 1,0 2,0 3,0 0,0 0,0 1,0 0,0 1,0 1,0 1,0 1,0 2,-1 1,0 2,0 3,0 1,0 3,0 4,0 2,0 4,0 7,0 1,0 2,-1 3,-1 1,0 2,1 3,1 6,0 13,1 19,1 0,0 1,0 2,0 0,0 0,0 1,0 1,-1 1,-1 2,-1 1,0 2,0 3,0 7,1 14,1 21,2 1,0 2,0 2,0 1,0 2,-1 2,-3 0,-5 1,-11 1,-17 1,0 2,0 2,0 0,0 1,0 1,0 2,0 4,3 6,4 -2,2 -3,4 -4,6 -1,3 -1,5 -1,8 0,1 1,2 2,3 1,0 2,0 4,0 1,0 2,1 3,1 2,1 4,1 6,1l0 0c2,0 5,0 8,0 1,0 2,-1 3,-1 1,0 2,1 3,1 1,0 3,0 4,0 1,0 2,0 3,0 1,0 1,0 2,-1 1,0 1,0 1,0 0,0 1,0 1,0 2,0 4,0 6,0 1,-1 1,-3 1,-5 0,-1 1,-1 1,-2 1,-3 1,-5 1,-8 1,-2 -2,-4 0,-7 0,-1 -1,-1 -1,-2 2,1 4,5 5,5 0,1 0,2 0,4 -1,3 0,6 -2,9 0,2 -1,5 0,7 2,0 3,0 5,0 1,0 2,0 3,0 0,0 1,0 1,0 0,0 1,0 2,0 1,0 1,1 2,1 2,0 3,-1 5,-1 1,0 2,0 3,0 0,0 1,0 1,0 0,0 1,0 1,0 1,0 3,0 4,-1 2,0 4,0 6,0 1,-1 1,-1 2,-1 1,0 3,1 5,1 0,0 0,0 0,0 2,0 2,0 4,-1 0,0 1,0 1,0 0,0 1,0 1,0 0,0 1,0 1,0 0,0 1,0 1,0 1,0 2,-1 4,-1 0,0 0,0 1,0 0,0 1,0 1,0 1,0 2,0 3,0 2,0 3,-1 4,-1 0,0 0,0 0,0 0,0 1,0 1,0 0,0 2,0 2,-1 1,-1 0,-2 0,-3 0,-1 -1,-2 -1,-4 0,0 0,0 0,0 0,0 0,0 0,0 2,0 3,-1 4,-3 2,-2 3,-4 4,-4 0,0 0,0 0,0 2,0 4,8 6,9 2,0 4,1 6,1 1,0 1,0 1,0 1,0 2,-1 4,-3 1,-1 2,-3 3,-3 0,0 0,0 1,0 2,1 3,7 5,8 0,0 1,0 1,0 1,0 2,0 3,0 1,-1 2,-1 2,-1 1,0 1,0 1,0 3,2 1,5 1,7 0,2 2,5 -1,7 -1,1 -4,2 -6,3 0,0 0,0 0,0 -1,0 -3,-1 -4,-1 -1,-1 -2,-2 -3,-2 -1,0 -1,0 -1,0 -2,0 -4,2 -6,2 -2,1 -4,6 -6,7 0,0 0,0 -1,0 -1,0 -2,-1 -3,-2 -1,-1 -2,-2 -4,-2 0,0 0,0 0,0 0,0 0,0 0,0 -1,0 -2,-1 -3,-1 -1,0 -2,-1 -3,-1 0,0 -1,0 -1,0 -2,1 -3,9 -6,9 -2,0 -4,2 -6,2 -1,0 -1,0 -1,0 -1,0 -2,0 -3,-1 -1,0 -2,0 -3,0 0,0 0,0 0,0 0,0 -1,0 -1,0 -1,0 -2,-2 -3,-3 -1,-2 -3,-3 -4,-3 0,0 0,0 0,0 -2,0 -4,4 -6,4 -3,0 -5,1 -7,1 -2,1 -5,2 -7,2 -2,0 -4,2 -7,2 0,0 0,0 0,0 -1,0 -2,-2 -3,-4 -1,-1 -3,-3 -4,-3 0,0 0,0 0,0 -2,0 -4,7 -6,7 0,0 0,0 0,0 -2,0 -3,-1 -4,-3 -1,-1 -2,-2 -3,-2 0,0 0,0 0,0 -3,0 -5,5 -7,5 0,0 0,0 0,0 -1,0 -2,-1 -3,-1 -2,0 -3,-1 -4,-1 0,0 0,0 0,0 -2,0 -4,4 -7,4 0,0 0,0 0,0 -1,0 -2,-1 -3,-1 -1,-1 -2,-2 -3,-2 0,0 -1,0 -1,0 -2,0 -4,1 -6,1 0,0 0,0 0,0 -2,0 -3,-1 -4,-2 -1,-1 -2,-2 -3,-2 0,0 0,0 0,0 -3,0 -5,1 -7,1 0,0 0,0 0,0 -1,0 -2,0 -4,-1 -1,0 -2,0 -3,0 0,0 0,0 0,0 -2,0 -4,8 -7,9 0,0 0,0 0,0 -1,0 -2,-2 -3,-3 -1,-1 -2,-2 -4,-2 0,0 0,0 0,0 -2,0 -4,5 -6,5 0,0 -1,0 -1,0l0 0z"/>
   </clipPath>
   <clipPath id="id1">
    <path d="M283 267c-2,0 -3,-1 -5,-1 -1,0 -2,0 -4,0 -1,0 -3,0 -4,-1 0,0 0,0 -1,0 0,0 -1,0 -2,-1 -1,0 -3,0 -4,0 -2,-1 -4,-2 -5,-4 -1,-1 0,-1 0,-2 0,0 0,0 0,-1 1,-6 1,-12 2,-18 0,-2 -2,-3 -1,-5 -2,-3 -1,-6 -2,-8 -2,-5 -4,-11 -7,-15 -2,-5 -4,-9 -7,-14 -2,-4 -5,-8 -7,-13 -2,-5 -5,-9 -9,-14 -2,-1 -4,-3 -5,-5 -1,-1 -1,-1 -1,-1 0,-1 0,-1 0,-2 0,-2 0,-3 -1,-4 0,0 -1,-1 -1,-1 -6,-6 -13,-9 -21,-9 -1,0 -2,1 -4,1 -1,0 -1,0 -2,1 -1,0 -1,0 -2,0 -8,0 -17,3 -23,11 0,0 0,0 0,0 -4,3 -9,6 -13,10 -3,3 -6,6 -9,9 0,0 0,1 -1,2 -3,2 -5,6 -7,9 -1,2 -3,4 -4,6 -4,5 -6,10 -8,15 -1,2 -1,4 -2,6 -1,2 0,4 -2,6 -1,0 -1,1 -1,2 0,3 0,7 0,10 0,0 -1,1 0,2 2,2 0,5 1,7 1,3 1,6 2,8 2,3 2,5 3,8 1,1 1,2 -1,2 -1,1 -2,1 -3,1 0,0 -1,0 -1,0 -1,0 -2,0 -2,0 -1,0 -2,0 -3,1 0,0 -1,0 -1,0 0,0 0,0 0,0 -1,0 -1,0 -1,0 0,0 0,0 0,0 0,0 -1,0 -1,0 -2,0 -3,-2 -5,-2 -2,0 -4,0 -5,-1 -2,-1 -3,-2 -4,-2 -5,-2 -12,-8 -16,-12 -2,-3 -5,-5 -7,-8 -5,-7 -10,-13 -13,-21 0,-2 -2,-4 -3,-6 0,-2 0,-4 -1,-5 -2,-5 -3,-9 -4,-14 1,-3 -1,-5 -1,-7 -1,-2 -2,-5 -2,-7 0,-2 -1,-4 -1,-7 1,0 1,0 0,-1 0,-1 -1,-3 0,-4 1,-2 2,-5 4,-8 6,-5 10,-11 15,-17l0 -1c2,-5 5,-9 8,-14 0,-3 2,-5 3,-7 1,-3 2,-5 3,-8 1,-2 3,-4 3,-6 0,-1 0,-1 1,-2 0,-3 2,-5 2,-8 2,-2 1,-5 3,-7 0,0 0,-1 0,-2 1,-2 1,-4 2,-7 1,-2 0,-4 1,-7 0,-2 0,-4 1,-6 1,-1 1,-4 0,-5 -1,-2 0,-5 0,-8 0,-2 1,-5 -1,-8 3,-2 0,-3 0,-5 1,-2 1,-3 0,-5 0,-3 -2,-7 -1,-10 0,-1 1,-2 1,-2 3,-1 5,-3 7,-3 2,-1 4,-1 5,-2 3,-1 5,-2 8,-3 2,-1 5,-1 8,-3 0,0 0,0 0,0 2,0 3,0 4,-1 1,0 2,-1 3,-1 0,0 0,0 1,0 0,0 0,0 0,0 0,0 0,0 1,0 3,-2 7,-3 11,-4 5,-1 8,-2 12,-3 2,0 5,0 6,-1 2,-1 5,0 7,-1 1,-1 4,-1 6,-2 0,0 1,0 1,0 1,0 1,0 1,0 1,0 1,0 1,0 1,0 2,0 2,0 1,0 1,0 2,0 0,0 1,0 1,0 0,0 1,0 1,0 1,0 1,0 2,0 1,-1 3,-1 5,-1 1,0 2,0 3,0 2,0 3,0 4,0 0,0 1,0 1,0 3,1 5,1 8,1 0,0 1,0 2,0 0,0 1,0 2,-1 3,1 7,1 10,1 1,1 1,1 2,1 0,0 0,0 1,0 0,0 0,0 1,0 0,0 0,0 0,0 1,0 3,0 4,1 3,0 6,0 9,0 3,1 6,0 9,2 0,0 0,0 1,0 0,0 0,0 0,0 0,0 0,0 0,0 0,0 0,0 0,0 3,0 6,0 8,2 0,0 0,0 1,0 4,0 7,2 11,2 1,0 3,1 4,2 2,0 3,0 4,1 3,0 6,2 9,2 2,1 5,2 7,3 3,0 5,1 8,3 2,1 5,2 8,3 2,2 5,3 7,5 3,1 6,2 8,4 3,2 6,4 8,5 3,2 5,4 9,6 0,0 1,1 2,2 0,0 0,1 0,1 -2,3 0,7 -3,10 0,4 -2,8 0,11 0,3 0,6 0,9 0,1 -1,3 1,5l0 1c0,2 -1,5 0,7 0,2 0,4 0,6 0,2 1,4 1,6 0,2 -1,4 0,6 1,0 1,1 1,1 0,2 0,4 0,6 1,2 0,4 1,5 1,2 0,4 1,6 0,3 1,6 2,9 1,3 2,6 2,8 0,2 1,4 2,5 1,4 2,8 4,12 2,6 3,11 6,16 1,1 1,1 0,2l0 0c-1,2 -3,3 -2,5 -1,2 -2,4 -1,6 0,2 -2,3 -2,5 0,2 -1,4 -2,5 -5,12 -6,14 -12,24 -3,5 -13,18 -18,23 -3,4 -8,7 -12,11 -1,1 -2,2 -4,3 -3,1 -6,3 -9,4 -2,1 -5,2 -7,2 -2,1 -4,1 -6,2 -1,0 -2,0 -2,0l0 0zm-24 -99c0,0 0,0 0,0 1,0 1,0 1,0 0,0 0,0 0,0 2,0 4,0 6,-2 1,-2 3,-4 4,-5 1,-2 1,-3 2,-4 2,-4 4,-8 3,-12 0,-2 1,-3 1,-5 0,-3 0,-6 0,-8 1,-2 1,-3 -1,-4 0,-1 -1,-1 -1,-2 0,-3 -4,-3 -5,-6 -1,0 -2,0 -2,0 -2,0 -3,0 -4,1 0,0 0,0 0,0 0,0 -1,0 -1,0 0,0 -1,0 -1,0 -1,0 -2,0 -2,1 -2,1 -4,3 -5,4 -2,2 -3,4 -3,6 0,2 -2,4 -2,5 0,2 0,4 0,6 0,1 -1,1 -1,2 -1,1 0,1 0,2 0,1 -1,2 -1,3 0,1 0,1 1,2 0,1 0,1 0,2 -1,3 1,5 2,8 1,4 4,6 8,6 0,0 1,0 1,0 0,0 0,0 0,0l0 0zm-114 -53c-2,0 -3,1 -5,2 -1,2 -3,4 -3,6 -1,2 -2,4 -2,6 -2,1 -2,3 -2,5 1,2 -1,4 -1,6 -1,3 0,6 0,9 0,2 1,4 2,6 1,3 4,4 7,5 1,0 1,0 2,0 2,0 5,-1 7,-3 1,-1 2,-3 3,-4 1,-2 3,-3 3,-5 1,-2 2,-4 2,-7 1,-2 0,-5 2,-7 0,0 0,-2 0,-2 -1,-2 0,-4 -1,-6 0,-4 -2,-7 -4,-11 0,0 -1,0 -1,0 -1,0 -2,0 -3,0 -1,0 -1,0 -2,0 -1,0 -2,0 -2,0 -1,0 -1,0 -1,0 0,0 -1,0 -1,0zm10 -50c0,0 -1,0 -2,1 -4,0 -8,3 -12,4 -4,2 -9,6 -11,9 -3,3 -5,5 -8,8l0 0c-1,1 -1,2 -1,3 1,1 2,1 2,1 1,0 1,0 1,0 2,-2 4,-4 6,-5 5,-6 8,-8 13,-12 5,-2 12,-5 18,-5 1,0 1,0 1,0 0,0 0,0 0,0 2,0 3,-1 3,-2 1,-1 0,-3 0,-3 -1,0 -1,0 -1,0 0,0 -1,0 -1,0 0,1 -1,1 -2,1 -1,0 -1,0 -2,0 0,0 -1,0 -1,0 -1,0 -1,0 -1,0 0,0 0,0 0,0 0,0 0,0 -1,0 0,0 0,0 -1,0l0 0zm106 9c2,0 3,0 5,0 2,0 3,2 4,2 6,0 11,4 15,8 1,1 3,3 4,4 0,1 0,1 1,1 0,0 0,0 0,0 2,-1 3,-4 2,-6 -2,-1 -4,-3 -5,-4 -3,-3 -5,-4 -8,-5 -3,-1 -6,-3 -9,-4 -4,0 -7,0 -10,-1 -1,0 -4,0 -6,0 -2,0 -3,0 -3,0 -2,1 -3,2 -4,2 -1,1 0,2 0,2 0,0 1,1 1,1 2,0 4,0 6,0 1,0 2,0 3,0 1,0 1,0 2,0 0,0 1,0 1,0 0,0 1,0 1,0l0 0z"/>
   </clipPath>
   <clipPath id="id2">
    <path d="M248 453c0,-1 -1,-1 -1,-1 1,-3 -1,-6 0,-9 0,-4 0,-7 0,-10 0,-1 0,-2 1,-3 1,-1 1,-2 1,-2 -2,-4 0,-7 -1,-11 0,-3 2,-6 0,-8 0,-3 0,-5 0,-7 0,-2 1,-4 0,-6 -1,-1 0,-2 0,-2 -1,-3 0,-5 -1,-8 -1,-2 1,-5 -1,-7 1,-3 -1,-7 -2,-11 -1,-4 -3,-8 -5,-12 -1,-1 -2,-2 -3,-4 0,-1 -1,-2 -2,-2 -2,-1 -3,-2 -5,-3 -3,-2 -6,-3 -10,-3 0,0 0,0 0,0 0,0 0,0 -1,0 -1,0 -2,0 -3,-1 -2,-1 -4,-1 -6,-1 -1,0 -2,0 -3,0 -1,0 -2,0 -3,0 0,0 0,0 0,0 -2,0 -5,0 -7,0 -1,1 -2,1 -3,1 0,0 0,0 -1,0 0,0 0,0 0,0 -1,0 -2,0 -3,1 -2,0 -5,1 -7,2 -3,0 -6,1 -9,2 -4,2 -8,4 -11,6 -2,3 -5,5 -7,7 -1,1 -2,2 -3,3 -1,2 -2,3 -2,4 -2,2 -3,4 -4,7 -1,1 -2,3 -2,5 -2,1 -1,3 -3,5 -1,1 0,4 -1,5 -1,2 -1,4 -1,6 -1,3 0,6 -2,8 0,4 -1,7 0,11 0,0 0,1 0,2 0,2 0,5 0,7 0,2 0,3 0,5 1,1 1,2 1,3 -1,4 -1,7 -1,10 0,2 0,3 1,4 0,0 0,1 0,1 -1,0 -1,0 -1,0 0,0 0,0 -1,0 0,-1 0,-1 -1,-1 -2,-3 -4,-6 -7,-7 -2,-3 -6,-2 -8,-4 -1,0 -1,0 -2,0 -1,0 -1,0 -1,0 -1,0 -2,1 -3,1 -1,0 -2,0 -2,0 -1,0 -1,-1 -2,-1 -5,0 -9,2 -14,5 -2,2 -4,3 -7,5 0,0 0,0 0,0 0,0 -1,0 -1,0 -1,-3 -2,-5 -4,-7 0,-1 0,-2 0,-3 0,-1 0,-2 -1,-3 -1,-1 -1,-3 -1,-4 -1,-1 -1,-2 -1,-2 0,-2 -1,-4 -1,-6 0,-3 -1,-6 -1,-9 -1,-2 -1,-6 -2,-8 -1,-3 -1,-6 -1,-9 -1,-2 -2,-5 -1,-8 -2,-3 -1,-7 -1,-11 0,-2 -1,-4 -1,-7 -1,-1 1,-2 0,-3 -1,-3 0,-6 0,-10 0,-2 1,-4 -1,-6 0,-2 1,-4 1,-6 0,-3 1,-6 -1,-9 0,-2 0,-3 0,-5 1,-3 1,-7 1,-11 -2,-5 0,-10 0,-15 0,-2 0,-3 1,-4 0,-1 -1,-2 -1,-3 1,-1 0,-2 1,-2 2,-3 1,-6 2,-9 0,-3 -1,-5 1,-7 0,0 0,-1 0,-1 0,-3 0,-6 1,-8 1,-2 1,-5 2,-7 0,-2 1,-4 2,-7 0,0 0,0 1,0 0,0 0,0 0,0 1,1 2,1 3,2 3,3 6,4 10,7 2,1 5,2 8,3 1,0 3,1 4,1 4,1 8,1 12,1 0,0 0,0 0,0 2,0 4,0 6,-1 1,-1 2,-1 3,-1 1,0 1,0 2,0 1,0 1,1 1,1 1,1 1,2 1,2 3,2 5,3 8,5 4,3 9,5 14,7 1,0 2,1 3,1 1,2 3,1 4,3 1,1 3,0 4,0 2,1 3,2 5,2 0,0 0,0 0,0 0,0 0,0 1,0 1,0 2,0 3,1l1 1c2,0 5,0 7,1 3,1 5,1 7,1 2,0 4,1 6,1 1,0 1,0 2,-1 2,0 4,0 5,0 2,0 4,0 6,0 1,0 1,0 1,0 0,0 0,0 1,0l0 0c3,-1 6,-1 9,-2 3,-1 7,-3 11,-4 3,-1 7,-3 10,-5 4,-3 8,-6 11,-11 1,-1 2,-2 3,-3 1,-1 1,-1 2,-1 0,0 0,0 0,0 2,2 5,1 7,3 1,0 2,0 4,0 2,1 5,1 7,1 2,0 4,0 6,1 0,1 1,1 1,1 0,0 0,0 0,0 1,-1 2,-1 3,-1 0,0 1,0 1,0 0,0 0,0 0,0 1,0 2,0 2,-1 2,-1 5,-1 7,-1 2,-1 4,-1 6,-2 4,-3 9,-5 13,-8 1,-1 2,-2 3,-2 0,-1 0,-1 1,-1 1,0 1,1 2,1 0,1 1,3 1,4 1,2 2,5 3,8 0,2 0,4 1,6 -1,3 1,5 1,8 -1,3 -1,6 -1,8 0,2 -1,4 0,6 1,1 1,2 1,3 -1,3 -1,7 -1,10 0,3 0,5 -1,8 0,2 0,4 -1,6 -1,1 0,2 -1,3 0,4 0,7 0,11 -1,1 -1,2 -1,4 0,1 0,2 0,3 -1,1 0,2 -1,3 -1,1 0,2 -1,4 0,5 0,11 -1,17 0,2 0,5 -1,7 -1,0 -1,1 -1,2 0,2 0,5 -1,7 -1,2 -1,4 -1,6 0,2 -2,2 -2,4 1,2 -1,4 -2,7 0,2 -1,4 -2,6 -1,5 -3,9 -5,14 -2,5 -4,9 -6,14 0,0 0,1 0,1 -1,1 -1,2 -2,2 0,0 0,-1 0,-1 -4,-3 -6,-4 -11,-4 -2,0 -3,-1 -5,-1 0,0 0,0 -1,0 -1,1 -3,1 -4,1 -1,0 -1,0 -1,0 -4,2 -8,3 -11,5 -3,3 -7,6 -10,10 -2,1 -2,2 -4,3l0 1z"/>
   </clipPath>
   <clipPath id="id3">
    <path d="M148 475c-1,0 -2,0 -3,0 -1,0 -1,-1 -1,-1 0,-2 0,-4 -1,-7 -1,-1 0,-4 0,-6 0,-2 -1,-3 -1,-5 0,0 0,0 0,0 1,-2 0,-4 0,-6 -1,-2 0,-3 -1,-5 -1,-2 0,-4 0,-5 0,-3 1,-5 -1,-7 0,-1 2,-2 1,-3 -1,-1 0,-2 0,-3 0,-2 0,-5 0,-8 0,-1 1,-3 -1,-5 0,-1 0,-2 1,-2 1,-2 1,-3 1,-5 0,-2 0,-5 1,-7 0,-3 -1,-6 1,-9 0,-3 1,-6 3,-9 1,-2 2,-5 4,-7 1,-2 2,-4 3,-6 1,-1 2,-3 4,-5 1,-1 2,-2 3,-3 1,-1 3,-2 4,-3 6,-5 7,-6 14,-7 4,-1 7,-3 10,-3 1,-1 2,-1 3,-1 2,0 4,-1 6,-1 1,0 1,0 2,0 0,0 1,0 2,0 1,0 2,0 3,-1 4,1 8,0 12,2 1,0 2,0 2,1 3,0 10,3 12,5 1,0 1,1 1,1 2,3 4,5 5,8 2,5 4,9 5,14 0,3 2,6 1,10 -1,2 1,4 1,6 -1,3 0,6 0,8 0,3 0,5 0,8 2,5 0,9 0,14 0,7 -1,13 -1,20 0,4 -1,8 -1,12 0,6 -1,12 -1,17 0,2 -1,3 -2,3 0,0 -1,0 -2,0 -7,-1 -14,-1 -21,-2 -1,0 -2,0 -3,0 -1,0 -1,0 -2,1 -1,0 -1,0 -1,0 -1,0 -2,0 -2,0 -6,0 -13,-1 -19,-1 -1,0 -2,-1 -3,-1 -1,0 -2,1 -3,1 -3,0 -5,0 -7,0 -1,0 -3,0 -4,0 -1,0 -2,0 -3,0 -1,1 -1,1 -2,1 0,0 -1,0 -1,0 -1,0 -1,0 -1,0 -1,0 -2,0 -3,0 0,0 -1,0 -1,0 -1,0 -2,1 -3,1 -1,0 -3,0 -4,0 0,0 -1,0 -1,0 -1,0 -1,0 -1,0 -1,0 -1,0 -2,1 0,0 -1,0 -2,0l0 0z"/>
   </clipPath>
   <clipPath id="id4">
    <path d="M190 288c-1,0 -1,0 -2,0 -2,-2 -4,-2 -6,-2 -2,0 -4,-1 -6,-1 -2,-1 -4,0 -5,-2 -5,0 -8,-3 -12,-4 -1,0 -1,0 -2,-1 -4,-2 -9,-4 -13,-7 -3,-3 -7,-4 -10,-8 -4,-5 -7,-11 -9,-18 0,-2 -1,-5 0,-7 0,-2 0,-4 -1,-5 0,-4 0,-9 2,-13 3,-6 5,-12 9,-19 2,-4 5,-7 8,-12 1,-1 2,-2 4,-4 3,-5 14,-14 18,-18 1,0 1,0 2,-1 4,8 9,15 15,21 2,3 4,6 6,10 0,0 1,0 1,0 0,1 0,1 0,2 0,11 -1,22 -3,33 -1,5 -2,13 -7,16 -2,1 -4,2 -5,2 -1,0 -2,0 -2,-1 0,0 0,0 -1,0 0,0 0,0 -1,0 -3,-3 -4,-9 -4,-13 0,-2 -2,-2 -3,-2 -2,0 -4,1 -4,3 1,10 7,20 15,20 3,0 6,-1 9,-4 5,-4 7,-9 9,-14 3,6 8,10 15,11 1,0 2,0 2,0 8,0 15,-6 17,-13 1,-3 0,-4 -2,-4 -2,0 -4,1 -4,3 -2,4 -6,7 -10,7 -2,0 -4,0 -6,-1 -5,-3 -8,-10 -9,-16 1,-9 1,-18 1,-26 8,-8 16,-17 21,-27 1,0 1,-1 1,-1 0,-1 1,-1 1,-2 0,0 0,-1 1,-1 0,0 0,1 1,1 5,7 6,8 12,17 2,5 4,9 7,14 2,4 5,8 7,13 1,2 1,5 3,7 1,1 1,2 1,3 1,3 2,5 3,8 0,1 0,3 1,5 2,6 0,13 0,20 -2,3 -4,7 -6,10 -4,6 -10,10 -16,13 -2,0 -4,1 -6,2 -2,1 -4,2 -6,2 -2,1 -4,2 -5,2 -1,0 -1,0 -2,0 -1,1 -2,1 -3,1 0,0 -1,0 -1,0 0,0 -1,0 -1,0 -1,0 -2,0 -3,1 -3,0 -6,-1 -8,-1 -2,0 -3,0 -4,0 -1,0 -3,0 -4,1 0,0 0,0 0,0l0 0zm-13 -51c-3,0 -3,5 0,5 3,0 3,-5 0,-5l0 0zm-22 -8c-3,0 -3,4 0,4 3,0 3,-4 0,-4l0 0zm54 -1c-3,0 -3,4 0,4 3,0 3,-4 0,-4l0 0zm25 -3c-2,0 -2,5 1,5 2,0 3,-5 -1,-5l0 0zm-8 0c-3,0 -3,4 0,4 3,0 3,-4 0,-4zm-55 -10c-3,0 -3,5 0,5 3,0 3,-5 0,-5l0 0zm62 -5c-3,0 -3,5 0,5 3,0 3,-5 0,-5l0 0zm-15 -1c-2,0 -2,5 1,5 2,0 2,-5 -1,-5zm-9 -4c-3,0 -3,4 0,4 3,0 3,-4 0,-4l0 0zm-26 -2c-3,0 -3,4 0,4 3,0 3,-4 0,-4l0 0zm-27 -2c-3,0 -3,4 0,4 3,0 3,-4 0,-4l0 0zm63 -8c-3,0 -3,5 0,5 3,0 3,-5 0,-5l0 0zm-51 -7c-3,0 -3,5 0,5 3,0 3,-5 0,-5l0 0z"/>
   </clipPath>
   <clipPath id="id5">
    <path d="M28 173c-1,0 -2,0 -3,-1 -1,-2 -3,-5 -4,-8 -2,-6 -5,-12 -7,-18 -1,-1 -1,-2 -1,-2 0,-2 -1,-4 -1,-5 -1,-3 -2,-6 -2,-9 0,-3 -1,-6 -2,-8 0,-4 -1,-7 -1,-11 1,-5 3,-10 6,-14 4,-4 7,-9 11,-13 2,-5 6,-8 10,-12 2,-3 6,-7 9,-10 9,-8 18,-16 28,-23 3,-4 8,-6 12,-8 2,-1 3,-2 4,-2 1,0 1,0 2,1 0,0 0,0 0,0 0,0 0,-1 0,-1 1,0 1,0 1,0 0,0 1,0 1,0 0,1 0,1 0,2 0,2 1,3 1,5 0,1 -1,3 0,5 1,0 1,1 1,1 0,3 -1,7 0,10 1,2 0,4 0,6 0,2 -1,5 -1,7l0 0c0,4 0,7 -1,10 0,2 0,4 -1,5 0,1 0,2 0,3 0,2 -2,4 -2,6 0,2 -1,4 -2,6 -1,2 -1,4 -2,7 -1,2 -2,4 -3,6 0,2 -2,4 -2,7 -1,2 -3,4 -4,7 -1,3 -2,5 -4,8 -2,4 -4,9 -7,13 -3,3 -5,8 -9,10 -4,6 -10,10 -15,14 -1,2 -3,3 -5,4 -2,1 -4,1 -6,2 0,0 -1,0 -1,0l0 0z"/>
   </clipPath>
   <clipPath id="id6">
    <path d="M374 185c-1,0 -1,0 -1,0 -1,-1 -1,-1 -2,-2 -1,-2 -3,-5 -5,-7 0,0 0,-1 -1,-1 -2,-7 -7,-12 -7,-19 -2,-3 -3,-7 -4,-10 -1,-3 -1,-6 -3,-9 -1,-2 0,-5 -2,-7 1,-2 -1,-4 -1,-6 1,-2 -1,-3 -1,-5 1,-1 -1,-2 0,-3 0,-4 -2,-7 -1,-10 0,-2 -2,-3 -1,-5 0,-1 0,-3 0,-4 0,-2 -1,-4 -1,-6 1,-1 1,-3 0,-5 -1,-1 0,-2 0,-3 0,-2 0,-5 -1,-7 0,0 0,-2 0,-3 1,-7 1,-14 2,-21 0,-1 0,-2 0,-2 0,-1 1,-2 2,-2 1,0 1,0 1,1 3,1 6,3 8,4 5,3 9,7 14,9 0,1 0,1 1,1 2,4 7,7 10,11 1,1 3,2 4,4 1,2 3,3 4,5 2,2 3,4 5,7 1,2 3,4 4,6 1,1 1,1 2,2 3,4 6,8 9,13 1,1 2,2 2,3 1,2 2,4 3,6 1,2 1,5 3,6 0,2 2,4 1,5 0,2 -1,3 -1,4 -3,4 -5,8 -8,12 -2,4 -4,7 -7,10 -3,4 -7,9 -11,13 -5,4 -10,9 -15,13 0,1 -1,1 -2,2 0,0 0,0 0,0l0 0z"/>
   </clipPath>
   <clipPath id="id7">
    <path d="M35 458c-1,0 -2,0 -2,-1 -4,-5 -5,-11 -7,-16 0,-2 -1,-3 -1,-5 0,0 -1,-1 -1,-1 0,-2 0,-4 0,-6 -1,-1 -1,-3 -1,-4 1,-3 0,-5 2,-6 0,-1 0,-2 0,-3 1,-2 0,-4 1,-5 2,-3 3,-6 4,-9 1,-3 4,-5 6,-8 2,-2 4,-4 7,-5l1 -1c4,-4 10,-6 15,-8 2,-1 4,-2 6,-2 1,0 2,0 3,0 0,0 1,0 1,0 1,0 1,2 2,4 0,0 0,1 0,2 0,2 0,4 0,6 1,2 0,4 1,6 1,1 0,2 0,3 0,1 1,3 1,4 1,4 1,9 3,13 1,2 0,4 0,6 1,2 2,4 2,6 0,2 1,4 1,6 0,2 1,4 1,6 1,2 1,4 3,6 0,0 0,1 -1,1 0,0 0,0 0,0 -1,0 -1,0 -2,0 -1,0 -2,1 -4,1 -1,0 -2,0 -4,0 -1,0 -1,0 -2,0 0,0 0,0 0,0 -1,0 -2,1 -3,1 -2,0 -4,1 -6,1 -2,0 -3,1 -5,1 0,0 0,0 0,0 -1,0 -1,0 -1,0 -1,0 -2,0 -3,1 -2,0 -4,2 -7,2 0,0 0,0 -1,0 -2,1 -5,2 -8,4 0,0 -1,0 -1,0l0 0z"/>
   </clipPath>
   <clipPath id="id8">
    <path d="M351 446c0,0 -1,0 -2,-1 -2,-1 -5,-2 -8,-2 0,0 0,0 0,0 -1,0 -1,0 -1,0 -1,0 -3,0 -3,-1 -7,-1 -13,-1 -19,-2 -1,1 -2,1 -3,1 -1,0 -1,0 -1,0 -1,0 -1,0 -1,0 -1,0 -2,0 -3,1 -2,1 -5,1 -8,2 0,0 -1,0 -2,0 0,0 0,-1 -1,-1 2,-1 1,-4 2,-6 1,-2 2,-4 3,-7 0,-1 1,-3 2,-5 1,-2 2,-4 3,-6 1,-3 2,-6 3,-8 1,-3 3,-6 3,-9 0,-1 0,-2 1,-3 1,-3 2,-6 2,-9 0,-2 2,-4 2,-5 0,-2 0,-4 0,-6 0,-1 1,-2 1,-3 -2,-3 1,-5 1,-7 0,0 1,-1 1,-1 0,0 0,0 0,0 2,0 4,0 5,1 1,0 1,0 1,0 0,0 0,0 0,0 0,0 1,0 1,0 4,0 6,3 10,4 2,1 5,3 7,5 1,1 3,3 5,5 3,4 6,8 7,13 1,3 2,5 1,9 0,2 0,5 0,8l0 0c-1,2 -1,5 -1,7 0,2 0,4 -1,6 -1,1 -1,4 -1,6 -2,1 -1,4 -2,6 -1,2 -2,4 -3,6 0,1 0,2 -1,2z"/>
   </clipPath>
   <clipPath id="id9">
    <path d="M341 369c0,0 0,0 -1,0 -2,-2 -5,-3 -8,-3 -1,0 -1,0 -2,-1 -1,-1 -3,0 -5,-2 -2,-1 -2,-1 -2,-3 0,-2 0,-3 0,-4l0 0c0,-1 0,-2 0,-3 0,-2 1,-4 3,-4 2,-1 4,-2 6,-4 2,-1 4,-2 5,-4 3,-1 4,-3 6,-4 3,-3 6,-5 10,-8 3,-2 6,-5 9,-8 2,-2 4,-4 7,-6 3,-3 6,-6 9,-9 3,-4 6,-7 8,-10 5,-5 9,-11 15,-16 0,-1 1,-2 1,-2l1 0c0,2 0,4 0,7 -1,1 -1,3 -1,5 -1,2 -2,3 -2,5 0,2 -1,4 -2,5 -3,6 -6,11 -9,16 -1,2 -3,4 -3,6 -3,3 -5,7 -7,10 -3,3 -5,7 -8,10 -2,3 -5,6 -7,9 -1,1 -2,2 -3,3 -2,1 -4,2 -5,4 -1,2 -4,2 -5,4 -1,2 -3,3 -5,4 -1,1 -2,2 -4,3 0,0 0,0 -1,0l0 0z"/>
   </clipPath>
   <clipPath id="id10">
    <path d="M310 478c-1,0 -1,-1 -2,-1 -1,0 -2,0 -2,0 0,0 -1,0 -1,0 -1,0 -2,0 -3,0 -2,0 -3,0 -5,0 -1,-2 0,-5 0,-7 2,-3 1,-6 2,-9 0,-2 0,-3 0,-4 0,-1 0,-3 0,-4 1,-1 -1,-2 0,-3 1,-1 2,-2 3,-2 5,0 9,-3 14,-3 0,0 1,0 1,0 2,0 3,-1 5,-1 3,0 6,1 8,1 2,0 3,0 5,1 2,1 4,1 6,1 2,0 3,1 4,1 3,1 6,4 8,6 3,2 5,7 7,11 0,0 0,0 0,0 0,2 1,3 1,4 0,1 1,2 0,3 0,1 -2,1 -2,1 0,0 -1,0 -1,0 0,0 0,0 0,0 -1,0 -2,1 -4,1 -1,0 -2,0 -3,0 0,0 -1,0 -1,0 -1,0 -1,0 -1,0 -2,0 -3,1 -4,1 0,0 -1,0 -1,0 0,0 -1,0 -1,0 0,0 -1,0 -1,0 0,0 -1,0 -1,0 -2,1 -2,1 -4,1 0,0 0,0 0,0 -2,0 -4,-1 -5,-1 -1,0 -1,0 -2,1 -2,0 -4,0 -6,0 -1,1 -3,1 -4,1 0,0 -1,0 -1,0 0,0 -1,0 -1,0 -1,0 -2,0 -3,0 -2,0 -3,1 -5,1l0 0z"/>
   </clipPath>
   <clipPath id="id11">
    <path d="M114 477c0,0 -1,-1 -1,-1 -8,0 -15,-1 -23,-1 -1,0 -2,0 -2,-1 -1,0 -2,-1 -2,-2 2,-2 2,-4 2,-6 0,-1 -1,-2 -1,-2 1,-1 1,-2 1,-3 1,-2 0,-4 1,-6 1,-2 2,-5 4,-7 2,-2 4,-4 7,-5 2,-1 4,-2 6,-3 1,0 2,0 3,-1 0,0 0,0 1,0 0,0 0,0 0,0 1,0 1,0 1,0 1,0 2,0 2,0 3,1 6,0 8,1 2,2 5,3 7,5 0,1 1,1 1,1 1,2 2,3 3,5 3,3 4,7 5,13 0,1 0,2 1,4 0,1 0,2 0,3 1,3 0,4 -2,5 -2,0 -4,0 -6,0 -1,0 -2,0 -2,0 -2,0 -5,0 -7,0 -1,0 -2,0 -4,0 -1,0 -1,0 -2,0 -1,0 -1,1 -1,1l0 0z"/>
   </clipPath>
   <clipPath id="id12">
    <path d="M269 477c-3,0 -6,0 -8,0l0 0c-2,0 -4,0 -6,-1 -1,0 -2,-1 -3,-1 -2,0 -3,0 -4,0 -1,-1 -2,-2 -2,-3 0,-3 0,-5 1,-8 1,-2 2,-4 4,-6 1,-2 1,-3 2,-4 2,-4 5,-6 8,-9 2,-1 4,-3 7,-4 4,-2 8,-3 13,-3 0,0 0,0 0,0 3,0 5,1 7,1 1,1 2,3 3,4 1,1 2,1 2,2 0,1 0,2 0,2 0,1 -1,1 0,2 1,0 1,1 1,3 0,1 1,1 1,2 -2,3 1,5 0,7 0,3 0,5 -1,8 0,1 -1,1 -1,2 0,2 0,4 -1,5 -2,0 -4,0 -6,0 0,0 -1,0 -1,0 0,0 0,0 -1,0 -1,1 -1,1 -2,1 -1,0 -2,0 -3,0 -1,0 -3,0 -4,0 -1,0 -2,-1 -3,-1 -1,0 -2,1 -3,1l0 0z"/>
   </clipPath>
   <clipPath id="id13">
    <path d="M38 480c-1,0 -1,0 -2,0 -1,0 -1,0 -2,0 0,0 0,0 -1,0 0,0 0,0 0,0 -1,0 -2,-1 -3,-1 -2,-1 -3,-1 -4,-1 0,0 0,0 0,0 0,0 0,0 0,0 -1,0 -1,-1 -1,-2l0 -1c2,-3 3,-5 6,-8 1,-1 3,-2 5,-3 0,0 0,-1 0,-1 1,-1 3,-1 4,-2 1,-2 4,-1 5,-2 2,-2 3,-2 5,-2 0,0 0,0 1,0 0,0 0,0 0,0 1,0 2,-1 3,-2 1,0 2,0 3,0 0,0 0,0 0,0 0,0 1,0 1,0 1,0 2,0 3,-1 1,0 2,0 2,0 1,0 1,0 1,0 0,0 0,0 0,0 1,0 2,0 3,0 2,-1 4,0 5,-2 2,0 5,0 7,0 1,0 1,1 2,1 1,0 1,0 2,-1 0,0 1,0 1,0 0,0 1,0 1,0 0,1 0,2 0,3 -1,1 -2,2 -2,3 0,1 0,2 -1,2 -1,2 0,4 0,7 -1,1 -1,3 -1,5 0,2 0,4 -1,6 -1,0 -2,0 -3,0 0,0 -1,0 -2,0 0,0 0,0 0,0 -1,0 -1,0 -2,0 -1,0 -1,1 -2,1 0,0 0,0 -1,0 -1,-1 -3,-1 -4,-1 -2,0 -3,0 -5,0 0,0 0,0 0,0 -1,0 -1,0 -1,0 -1,0 -1,1 -2,1 0,0 -1,-1 -1,-1 -1,1 -1,1 -2,1 -1,0 -2,0 -2,0 -1,-1 -3,-1 -4,-1 0,0 0,0 -1,0 -1,0 -2,1 -4,1 0,0 0,0 0,0 -1,0 -1,0 -1,0 -1,0 -1,0 -1,0 -1,0 -1,0 -2,0 0,1 -1,1 -2,1l0 0z"/>
   </clipPath>
   <clipPath id="id14">
    <path d="M260 168c0,0 0,0 -1,0 0,0 0,0 0,0 0,0 0,0 0,0 0,0 -1,0 -1,0 -4,0 -7,-2 -8,-6 -1,-3 -3,-5 -2,-8 0,-1 0,-1 0,-2 -1,-1 -1,-1 -1,-2 0,-1 1,-2 1,-3 0,-1 -1,-1 0,-2 0,-1 1,-1 1,-2 0,-2 0,-4 0,-6 0,-1 2,-3 2,-5 0,-2 1,-4 3,-6 1,-1 3,-3 5,-4 0,-1 1,-1 2,-1 0,0 1,0 1,0 0,0 1,0 1,0 0,0 0,0 0,0 1,-1 2,-1 4,-1 0,0 1,0 2,0 1,3 5,3 5,6 0,1 1,1 1,2 2,1 2,2 1,4 0,2 0,5 0,8 0,2 -1,3 -1,5 1,4 -1,8 -3,12 -1,1 -1,2 -2,4 -1,1 -3,3 -4,5 -2,2 -4,2 -6,2 0,0 0,0 0,0l0 0zm8 -41c-7,0 -7,11 0,11 8,0 8,-11 0,-11l0 0z"/>
   </clipPath>
   <clipPath id="id15">
    <path d="M143 160c-1,0 -1,0 -2,0 -3,-1 -6,-2 -7,-5 -1,-2 -2,-4 -2,-6 0,-3 -1,-6 0,-9 0,-2 2,-4 1,-6 0,-2 0,-4 2,-5 0,-2 1,-4 2,-6 0,-2 2,-4 3,-6 2,-1 3,-2 5,-2 0,0 1,0 1,0 0,0 0,0 1,0 0,0 1,0 2,0 1,0 1,0 2,0 1,0 2,0 3,0 0,0 1,0 1,0 2,4 4,7 4,11 1,2 0,4 1,6 0,0 0,2 0,2 -2,2 -1,5 -2,7 0,3 -1,5 -2,7 0,2 -2,3 -3,5 -1,1 -2,3 -3,4 -2,2 -5,3 -7,3l0 0zm6 -37c-7,0 -7,11 1,11 7,0 7,-11 -1,-11l0 0z"/>
   </clipPath>
   <clipPath id="id16">
    <path d="M290 89c0,0 -1,0 -1,-1 -1,-1 -3,-3 -4,-4 -4,-4 -9,-8 -15,-8 -1,0 -2,-2 -4,-2 -2,0 -3,0 -5,0 0,0 -1,0 -1,0 0,0 -1,0 -1,0 -1,0 -1,0 -2,0 -1,0 -2,0 -3,0 -2,0 -4,0 -6,0 0,0 -1,-1 -1,-1 0,0 -1,-1 0,-2 1,0 2,-1 4,-2 0,0 1,0 3,0 2,0 5,0 6,0 3,1 6,1 10,1 3,1 6,3 9,4 3,1 5,2 8,5 1,1 3,3 5,4 1,2 0,5 -2,6 0,0 0,0 0,0l0 0z"/>
   </clipPath>
   <clipPath id="id17">
    <path d="M123 91c0,0 -1,0 -2,-1 0,-1 0,-2 1,-3l0 0c3,-3 5,-5 8,-8 2,-3 7,-7 11,-9 4,-1 8,-4 12,-4 1,-1 2,-1 2,-1 1,0 1,0 1,0 1,0 1,0 1,0 0,0 0,0 0,0 0,0 0,0 1,0 0,0 1,0 1,0 1,0 1,0 2,0 1,0 2,0 2,-1 0,0 1,0 1,0 0,0 0,0 1,0 0,0 1,2 0,3 0,1 -1,2 -3,2 0,0 0,0 0,0 0,0 0,0 -1,0 -6,0 -13,3 -18,5 -5,4 -8,6 -13,12 -2,1 -4,3 -6,5 0,0 0,0 -1,0l0 0z"/>
   </clipPath>
   <clipPath id="id18">
    <path d="M174 257c-8,0 -14,-10 -15,-20 0,-2 2,-3 4,-3 1,0 3,0 3,2 0,4 1,10 4,13 1,0 1,0 2,0 0,1 1,1 2,1 1,0 3,-1 5,-2 5,-3 6,-11 7,-16 2,-11 3,-22 3,-33 0,-1 0,-1 0,-2 0,0 -1,0 -1,0 -2,-4 -4,-7 -6,-10 -6,-6 -11,-13 -15,-21 0,0 0,0 0,-1 -1,-1 -1,-2 -1,-2 0,-1 1,-2 1,-2 0,0 0,0 0,0 6,-8 15,-11 23,-11 1,0 1,0 2,0 1,-1 1,-1 2,-1 2,0 3,-1 4,-1 8,0 15,3 21,9 0,0 1,1 1,1 1,1 1,2 1,4 0,1 0,1 0,2 0,0 0,0 0,1l0 0c-1,2 -2,5 -3,7 0,0 0,1 -1,1 -5,10 -13,19 -21,27 0,8 0,17 -1,26 1,6 4,13 9,16 2,1 4,1 6,1 4,0 8,-3 10,-7 0,-2 2,-3 4,-3 2,0 3,1 2,4 -2,7 -9,13 -17,13 0,0 -1,0 -2,0 -7,-1 -12,-5 -15,-11 -2,5 -4,10 -9,14 -3,3 -6,4 -9,4l0 0zm6 -98c-2,0 -3,2 -3,4 0,2 1,3 3,3l9 0c2,0 4,-2 4,-4 0,-2 -2,-3 -4,-3l-9 0z"/>
   </clipPath>
   <clipPath id="id19">
    <path d="M268 138c-7,0 -7,-11 0,-11 8,0 8,11 0,11l0 0z"/>
   </clipPath>
   <clipPath id="id20">
    <path d="M150 134c-8,0 -8,-11 -1,-11 8,0 8,11 1,11l0 0z"/>
   </clipPath>
   <clipPath id="id21">
    <path d="M189 166l-9 0c-2,0 -3,-1 -3,-3 0,-2 1,-4 3,-4l9 0c2,0 4,1 4,3 0,2 -2,4 -4,4l0 0z"/>
   </clipPath>
   <clipPath id="id22">
    <path d="M168 191c-3,0 -3,-5 0,-5 3,0 3,5 0,5l0 0z"/>
   </clipPath>
   <clipPath id="id23">
    <path d="M183 207c-3,0 -3,-4 0,-4 3,0 3,4 0,4l0 0z"/>
   </clipPath>
   <clipPath id="id24">
    <path d="M177 242c-3,0 -3,-5 0,-5 3,0 3,5 0,5z"/>
   </clipPath>
   <clipPath id="id25">
    <path d="M171 220c-3,0 -3,-5 0,-5 3,0 3,5 0,5l0 0z"/>
   </clipPath>
   <clipPath id="id26">
    <path d="M156 205c-3,0 -3,-4 0,-4 3,0 3,4 0,4l0 0z"/>
   </clipPath>
   <clipPath id="id27">
    <path d="M155 233c-3,0 -3,-4 0,-4 3,0 3,4 0,4l0 0z"/>
   </clipPath>
   <clipPath id="id28">
    <path d="M209 209c-3,0 -3,-4 0,-4 3,0 3,4 0,4z"/>
   </clipPath>
   <clipPath id="id29">
    <path d="M209 232c-3,0 -3,-4 0,-4 3,0 3,4 0,4z"/>
   </clipPath>
   <clipPath id="id30">
    <path d="M219 214c-3,0 -3,-5 -1,-5 3,0 3,5 1,5l0 0z"/>
   </clipPath>
   <clipPath id="id31">
    <path d="M226 229c-3,0 -3,-4 0,-4 3,0 3,4 0,4l0 0z"/>
   </clipPath>
   <clipPath id="id32">
    <path d="M235 230c-3,0 -3,-5 -1,-5 4,0 3,5 1,5l0 0z"/>
   </clipPath>
   <clipPath id="id33">
    <path d="M219 198c-3,0 -3,-5 0,-5 3,0 3,5 0,5z"/>
   </clipPath>
   <clipPath id="id34">
    <path d="M233 215c-3,0 -3,-5 0,-5 3,0 3,5 0,5l0 0z"/>
   </clipPath>
 </defs>
 <g id="Layer_x0020_1">
  <metadata id="CorelCorpID_0Corel-Layer"/>
  <g style="clip-path:url(#id0)">
   <image transform="matrix(0 -1 -1 0 404.937 504.352)" x="0" y="0" width="54.3732" height="405.721" xlink:href="Dog21_Images\Dog21_ImgID1.png"/>
  </g>
  <g style="clip-path:url(#id1)">
   <image transform="matrix(0 -1 -1 0 361.819 267.898)" x="0" y="0" width="269" height="313" xlink:href="Dog21_Images\Dog21_ImgID2.png"/>
  </g>
  <g style="clip-path:url(#id2)">
   <image transform="matrix(0 -1 -1 0 326.408 453.442)" x="0" y="0" width="199" height="256" xlink:href="Dog21_Images\Dog21_ImgID3.png"/>
  </g>
  <g style="clip-path:url(#id3)">
   <image transform="matrix(0 -1 -1 0 246.926 475.954)" x="0" y="0" width="132" height="108" xlink:href="Dog21_Images\Dog21_ImgID4.png"/>
  </g>
  <g style="clip-path:url(#id4)">
   <image transform="matrix(0 -1 -1 0 257.315 289.457)" x="0" y="0" width="124" height="135" xlink:href="Dog21_Images\Dog21_ImgID5.png"/>
  </g>
  <g style="clip-path:url(#id5)">
   <image transform="matrix(0 -1 -1 0 94.1959 174.65)" x="0" y="0" width="146.842" height="88.14" xlink:href="Dog21_Images\Dog21_ImgID6.png"/>
  </g>
  <g style="clip-path:url(#id6)">
   <image transform="matrix(0 -1 -1 0 419.656 185.819)" x="0" y="0" width="138.184" height="77.7502" xlink:href="Dog21_Images\Dog21_ImgID7.png"/>
  </g>
  <g style="clip-path:url(#id7)">
   <image transform="matrix(0 -1 -1 0 83.7195 459.503)" x="0" y="0" width="82.9451" height="61.2997" xlink:href="Dog21_Images\Dog21_ImgID8.png"/>
  </g>
  <g style="clip-path:url(#id8)">
   <image transform="matrix(0 -1 -1 0 361.819 446.516)" x="0" y="0" width="79.4818" height="63.0313" xlink:href="Dog21_Images\Dog21_ImgID9.png"/>
  </g>
  <g style="clip-path:url(#id9)">
   <image transform="matrix(0 -1 -1 0 404.071 369.631)" x="0" y="0" width="92.2959" height="82.0793" xlink:href="Dog21_Images\Dog21_ImgID10.png"/>
  </g>
  <g style="clip-path:url(#id10)">
   <image transform="matrix(0 -1 -1 0 362.685 478.464)" x="0" y="0" width="35.3253" height="67.3604" xlink:href="Dog21_Images\Dog21_ImgID11.png"/>
  </g>
  <g style="clip-path:url(#id11)">
   <image transform="matrix(0 -1 -1 0 139.824 477.599)" x="0" y="0" width="39.6543" height="54.3732" xlink:href="Dog21_Images\Dog21_ImgID12.png"/>
  </g>
  <g style="clip-path:url(#id12)">
   <image transform="matrix(0 -1 -1 0 296.191 478.464)" x="0" y="0" width="41.386" height="50.9099" xlink:href="Dog21_Images\Dog21_ImgID13.png"/>
  </g>
  <g style="clip-path:url(#id13)">
   <image transform="matrix(0 -1 -1 0 86.317 481.148)" x="0" y="0" width="30.3035" height="63.0313" xlink:href="Dog21_Images\Dog21_ImgID14.png"/>
  </g>
  <g style="clip-path:url(#id14)">
   <image transform="matrix(0 -1 -1 0 277.143 169.455)" x="0" y="0" width="50.0441" height="30.9962" xlink:href="Dog21_Images\Dog21_ImgID15.png"/>
  </g>
  <g style="clip-path:url(#id15)">
   <image transform="matrix(0 -1 -1 0 161.47 160.797)" x="0" y="0" width="47.4467" height="30.9962" xlink:href="Dog21_Images\Dog21_ImgID16.png"/>
  </g>
  <g style="clip-path:url(#id16)">
   <image transform="matrix(0 -1 -1 0 294.459 89.1074)" x="0" y="0" width="20.7796" height="49.1783" xlink:href="Dog21_Images\Dog21_ImgID17.png"/>
  </g>
  <g style="clip-path:url(#id17)">
   <image transform="matrix(0 -1 -1 0 166.665 91.7048)" x="0" y="0" width="28.5719" height="46.5809" xlink:href="Dog21_Images\Dog21_ImgID18.png"/>
  </g>
  <g style="clip-path:url(#id18)">
   <image transform="matrix(0 -1 -1 0 227.964 257.422)" x="0" y="0" width="109.612" height="69.9579" xlink:href="Dog21_Images\Dog21_ImgID19.png"/>
  </g>
  <g style="clip-path:url(#id19)">
   <image transform="matrix(0 -1 -1 0 276.277 139.151)" x="0" y="0" width="13.853" height="16.4505" xlink:href="Dog21_Images\Dog21_ImgID20.png"/>
  </g>
  <g style="clip-path:url(#id20)">
   <image transform="matrix(0 -1 -1 0 158.006 134.909)" x="0" y="0" width="12.9872" height="16.4505" xlink:href="Dog21_Images\Dog21_ImgID21.png"/>
  </g>
  <g style="clip-path:url(#id21)">
   <image transform="matrix(0 -1 -1 0 193.418 166.858)" x="0" y="0" width="8.65815" height="18.1821" xlink:href="Dog21_Images\Dog21_ImgID22.png"/>
  </g>
  <g style="clip-path:url(#id22)">
   <image transform="matrix(0 -1 -1 0 171.86 191.793)" x="0" y="0" width="6.92652" height="7.79234" xlink:href="Dog21_Images\Dog21_ImgID23.png"/>
  </g>
  <g style="clip-path:url(#id23)">
   <image transform="matrix(0 -1 -1 0 187.444 208.244)" x="0" y="0" width="6.06071" height="7.79234" xlink:href="Dog21_Images\Dog21_ImgID24.png"/>
  </g>
  <g style="clip-path:url(#id24)">
   <image transform="matrix(0 -1 -1 0 180.518 242.79)" x="0" y="0" width="6.06071" height="7.79234" xlink:href="Dog21_Images\Dog21_ImgID25.png"/>
  </g>
  <g style="clip-path:url(#id25)">
   <image transform="matrix(0 -1 -1 0 175.323 220.365)" x="0" y="0" width="6.06071" height="7.79234" xlink:href="Dog21_Images\Dog21_ImgID26.png"/>
  </g>
  <g style="clip-path:url(#id26)">
   <image transform="matrix(0 -1 -1 0 159.738 205.646)" x="0" y="0" width="6.06071" height="7.79234" xlink:href="Dog21_Images\Dog21_ImgID27.png"/>
  </g>
  <g style="clip-path:url(#id27)">
   <image transform="matrix(0 -1 -1 0 158.872 234.218)" x="0" y="0" width="6.06071" height="7.79234" xlink:href="Dog21_Images\Dog21_ImgID28.png"/>
  </g>
  <g style="clip-path:url(#id28)">
   <image transform="matrix(0 -1 -1 0 212.38 209.975)" x="0" y="0" width="6.06071" height="7.79234" xlink:href="Dog21_Images\Dog21_ImgID29.png"/>
  </g>
  <g style="clip-path:url(#id29)">
   <image transform="matrix(0 -1 -1 0 212.38 233.352)" x="0" y="0" width="6.06071" height="7.79234" xlink:href="Dog21_Images\Dog21_ImgID30.png"/>
  </g>
  <g style="clip-path:url(#id30)">
   <image transform="matrix(0 -1 -1 0 221.904 215.17)" x="0" y="0" width="6.92652" height="6.92652" xlink:href="Dog21_Images\Dog21_ImgID31.png"/>
  </g>
  <g style="clip-path:url(#id31)">
   <image transform="matrix(0 -1 -1 0 229.696 229.889)" x="0" y="0" width="6.06071" height="7.79234" xlink:href="Dog21_Images\Dog21_ImgID32.png"/>
  </g>
  <g style="clip-path:url(#id32)">
   <image transform="matrix(0 -1 -1 0 238.354 230.755)" x="0" y="0" width="6.06071" height="7.79234" xlink:href="Dog21_Images\Dog21_ImgID33.png"/>
  </g>
  <g style="clip-path:url(#id33)">
   <image transform="matrix(0 -1 -1 0 222.769 198.72)" x="0" y="0" width="6.06071" height="6.92652" xlink:href="Dog21_Images\Dog21_ImgID34.png"/>
  </g>
  <g style="clip-path:url(#id34)">
   <image transform="matrix(0 -1 -1 0 236.622 215.17)" x="0" y="0" width="6.06071" height="7.79234" xlink:href="Dog21_Images\Dog21_ImgID35.png"/>
  </g>
 </g>
</svg>
