<?xml version="1.0" encoding="UTF-8"?>
<!DOCTYPE svg PUBLIC "-//W3C//DTD SVG 1.1//EN" "http://www.w3.org/Graphics/SVG/1.1/DTD/svg11.dtd">
<!-- Creator: CorelDRAW X7 -->
<svg xmlns="http://www.w3.org/2000/svg" xml:space="preserve" width="2.103in" height="1.9006in" version="1.1" style="shape-rendering:geometricPrecision; text-rendering:geometricPrecision; image-rendering:optimizeQuality; fill-rule:evenodd; clip-rule:evenodd"
viewBox="0 0 668 603"
 xmlns:xlink="http://www.w3.org/1999/xlink">
 <defs>
  <style type="text/css">
   <![CDATA[
    .fil0 {fill:#4F4138;fill-rule:nonzero}
   ]]>
  </style>
 </defs>
 <g id="_2">
  <metadata id="CorelCorpID_0Corel-Layer"/>
  <g id="_423755094192">
   <path class="fil0" d="M279 317c1,1 2,1 3,1 8,0 15,-6 18,-15 1,-5 1,-10 -1,-15 -2,-4 -6,-7 -10,-8 -1,0 -2,-1 -3,-1 -7,0 -15,6 -17,15 -2,6 -1,11 1,15 2,4 5,7 9,8z"/>
   <path class="fil0" d="M386 517c0,-2 0,-2 0,-3 0,-1 -1,-1 -1,-2l-11 12c0,0 0,0 0,1 0,0 1,0 1,0 0,0 1,1 1,1 1,1 1,1 2,2 1,0 1,0 2,0 1,0 2,0 3,0 1,0 1,-1 2,-2 0,0 0,-1 1,-2 0,0 0,-1 0,-2 0,-1 0,-2 0,-3 0,0 0,-1 0,-2z"/>
   <path class="fil0" d="M312 504c0,0 -1,-1 -1,-1 -1,-1 -2,-1 -3,-1 -1,0 -2,0 -3,1 -1,1 -2,2 -2,4 -1,2 -2,3 -2,5 -1,2 -1,4 -1,6 0,1 0,2 0,4 1,1 1,1 1,2 1,1 2,2 2,2 1,0 2,1 3,1 1,0 2,-1 3,-2 1,-1 1,-2 2,-3 1,-2 1,-4 2,-6 0,-2 0,-4 0,-5 0,-1 0,-3 0,-4 0,-1 0,-2 -1,-3z"/>
   <path class="fil0" d="M265 488c0,-2 1,-4 2,-5 1,-4 2,-8 3,-11 1,-3 1,-5 1,-6 0,-2 0,-3 -1,-3 0,0 -1,1 -3,3 -1,3 -3,6 -5,11 0,1 -1,3 -1,4 -1,2 -1,4 -1,5 0,2 -1,3 -1,5 0,2 0,3 0,4 -1,4 -2,7 -2,10 1,-2 2,-4 3,-6 0,-2 1,-4 2,-6 1,-2 2,-4 3,-5z"/>
   <path class="fil0" d="M376 306c2,9 9,16 17,16 1,0 2,0 3,0 4,-1 7,-4 10,-8 2,-4 3,-9 2,-14 -2,-10 -9,-16 -17,-17 -1,0 -2,0 -3,0 -4,1 -7,4 -10,8 -2,4 -3,9 -2,15z"/>
   <path class="fil0" d="M364 372c-1,-1 -2,-3 -4,-4 -2,-1 -4,-1 -6,-1 -3,0 -5,0 -8,2 -2,1 -4,3 -6,5 -3,2 -5,4 -6,7 -2,3 -4,6 -5,9 -1,3 -2,6 -3,9 0,3 -1,6 -1,9 0,4 1,6 1,9 1,3 2,5 4,7 1,2 3,4 5,5 2,1 5,2 8,2 2,0 4,-1 6,-2 2,0 3,-2 5,-3 2,-2 3,-3 4,-6 2,-2 3,-4 4,-6 1,-2 2,-5 3,-7 0,-3 1,-5 1,-8 1,-2 1,-4 2,-7 0,-2 0,-4 0,-6 0,-3 0,-5 -1,-7 -1,-3 -1,-5 -3,-7z"/>
   <path class="fil0" d="M341 236c2,0 4,-2 4,-4 0,-2 -2,-3 -4,-3 -2,0 -4,1 -4,3 0,2 2,4 4,4z"/>
   <path class="fil0" d="M657 302l-302 -292c-23,-22 -41,0 -41,0l-303 292c0,0 -25,22 0,49 25,27 73,-33 77,-37l-1 248c0,0 -4,41 40,41l413 0c44,0 40,-41 40,-41l-1 -247c4,5 52,64 77,37 25,-27 1,-50 1,-50zm-147 128l0 0c3,-9 11,-14 17,-12 6,2 9,11 7,20 -3,8 -11,14 -17,12 -7,-2 -10,-11 -7,-20zm-23 -12l0 0c6,-2 14,4 17,13 3,9 0,17 -6,19 -6,2 -13,-4 -16,-13 -3,-9 -1,-17 5,-19zm-50 -54l0 0c2,2 3,4 4,6 1,2 1,5 1,8 0,1 0,2 0,3 -1,1 -1,2 -2,3 -1,2 -2,3 -2,3 -1,1 -2,1 -3,1 0,0 -1,0 -1,0 -1,-1 -1,-1 -2,-2 0,0 0,-1 -1,-1 0,-1 0,-2 0,-2 0,-1 0,-1 0,-2 0,0 1,-1 1,-1 0,-1 0,-1 0,-2 1,0 1,-1 1,-1 0,-3 -1,-5 -2,-7 -1,-1 -3,-2 -5,-2 -2,0 -4,1 -7,2 -2,1 -5,2 -7,4 -3,1 -5,4 -7,6 -2,3 -4,6 -6,9 -1,3 -3,7 -4,11 -1,4 -1,8 -1,13 0,3 0,5 1,8 1,2 2,4 4,5 2,2 4,3 5,4 2,0 4,1 7,1 4,0 8,-1 12,-2 4,-1 7,-3 10,-6 1,0 1,-1 1,-2 0,-1 0,-2 0,-2 0,-1 0,-2 0,-2 0,-1 -1,-1 -1,-2 0,0 -1,0 -1,0 -1,0 -1,0 -2,0 -1,0 -2,0 -3,-1 -1,0 -1,0 -2,-1 0,0 -1,-1 -1,-1 0,-1 -1,-1 -1,-2 0,-1 1,-1 1,-2 0,0 0,-1 1,-1 1,0 1,-1 2,-1 1,0 2,0 3,0 3,0 5,0 7,0 2,1 3,2 4,3 1,1 2,2 2,4 0,2 0,3 0,5 0,4 0,7 0,10 0,4 -1,7 -2,11 -1,3 -2,6 -3,9 -2,3 -3,5 -5,8 -2,2 -5,4 -7,5 -3,1 -6,2 -9,2 -1,0 -2,0 -3,0 -1,0 -2,0 -2,-1 -1,0 -2,0 -3,0 -1,-1 -2,-1 -3,-2 -1,0 -1,-1 -2,-1 0,-1 -1,-1 -1,-2 0,-1 1,-1 1,-2 0,-1 0,-1 1,-2 0,-1 0,-1 1,-2 1,0 1,0 2,0 1,0 2,0 3,0 1,0 2,1 3,1 1,0 2,1 3,1 1,0 2,1 3,1 1,0 3,-1 4,-2 1,-2 2,-3 3,-5 1,-2 2,-5 3,-7 1,-3 2,-5 2,-8 -1,1 -2,2 -4,3 -1,1 -3,2 -5,3 -2,1 -4,1 -6,2 -3,0 -6,0 -9,0 -4,0 -7,0 -11,-2 -3,-1 -6,-3 -8,-6 -3,-3 -4,-6 -5,-9 -1,-3 -2,-7 -2,-11 0,-5 1,-9 2,-14 1,-4 3,-8 5,-12 2,-4 4,-8 7,-11 3,-3 6,-6 9,-8 3,-2 7,-4 10,-5 4,-1 8,-2 11,-2 2,0 5,1 6,1 2,1 4,2 5,3zm-50 -238l0 0 0 7 -34 92 -9 -19 43 -80zm-37 103l0 0 41 47c0,0 0,0 1,0 11,1 20,10 23,22 0,4 0,7 0,10 0,9 16,17 17,18 1,2 -3,5 -6,4 -2,-1 -11,-9 -20,-6 -2,2 -6,4 -9,5 -2,0 -3,0 -5,0 -11,0 -20,-10 -23,-22 -1,-7 0,-14 3,-19 2,-3 4,-6 6,-8l-31 -37 -13 -1 -32 -108 -1 -9 49 104zm29 159l0 0c0,4 -1,7 -1,11 -1,4 -2,8 -4,12 -1,4 -3,8 -5,11 -2,4 -5,7 -7,10 -3,2 -6,4 -9,6 -4,2 -8,2 -11,2 -5,0 -8,-1 -12,-2 -3,-2 -6,-4 -8,-7 -2,-3 -4,-7 -5,-11 -2,-4 -2,-9 -2,-14 0,-2 0,-5 0,-8 1,-3 1,-6 2,-8 1,-3 2,-6 3,-9 1,-2 2,-5 4,-7 2,-3 3,-5 5,-7 2,-2 4,-4 7,-5 2,-2 5,-3 7,-4 3,0 6,-1 9,-1 4,0 8,1 11,2 4,2 6,4 9,7 2,2 4,6 5,9 1,4 2,8 2,13zm-117 -95l0 0c3,-13 14,-21 25,-21 0,0 1,1 2,1l38 -40 4 14 -33 30c3,2 5,5 7,8 2,5 3,11 2,17 3,0 4,3 4,5 0,3 -3,6 -6,6 -1,0 -1,0 -2,0 -5,7 -13,12 -21,12 -2,0 -3,0 -5,-1 -6,-1 -11,-6 -14,-12 -2,-6 -3,-13 -1,-19zm-71 133l0 0c3,-9 10,-15 17,-12 6,2 9,10 6,19 -3,9 -10,14 -17,12 -6,-2 -9,-11 -6,-19zm-23 -13l0 0c6,-2 13,4 17,13 3,9 0,18 -6,20 -6,2 -14,-4 -17,-13 -3,-9 0,-18 6,-20zm-10 54l0 0c-6,1 -13,-4 -16,-13 -3,-8 0,-17 6,-18 5,-2 12,3 15,12 3,8 1,17 -5,19zm41 23l0 0c0,0 -6,-6 -10,-6l-2 0c-5,0 -11,6 -11,6 0,0 -13,7 -13,-10 -1,-28 24,-32 24,-32l2 0c0,0 24,4 24,32 0,17 -14,10 -14,10zm35 -35l0 0c-2,8 -9,13 -15,12 -6,-2 -9,-11 -6,-19 3,-8 10,-14 16,-12 5,2 8,10 5,19zm13 -72l0 0c0,-3 0,-6 1,-8 1,-2 2,-4 3,-6 1,-1 3,-3 5,-4 1,-1 3,-2 5,-3 2,-1 4,-1 7,-1 2,-1 5,-1 7,-1 5,0 9,0 12,1 4,1 7,2 9,3 3,2 5,3 7,5 2,2 3,4 5,6 1,2 2,4 2,7 1,2 1,5 1,7 0,4 -1,8 -1,12 -1,4 -2,8 -4,11 -1,3 -3,7 -5,9 -2,3 -5,6 -8,8 -2,2 -5,4 -9,5 -3,2 -7,2 -11,2 -1,0 -2,0 -4,0 -1,0 -2,0 -3,-1 -2,0 -3,-1 -4,-1 -1,0 -2,-1 -3,-1 0,0 -1,-1 -1,-1 0,0 0,0 0,0 0,0 0,-1 -1,-1 0,0 0,-1 0,-1 0,-5 1,-10 1,-14 0,-5 0,-10 1,-15 1,-5 2,-10 3,-14 2,-4 3,-7 6,-11 0,0 2,-1 5,-1 2,0 4,1 5,3 -1,2 -2,3 -3,6 -1,2 -2,4 -2,6 -1,2 -1,4 -2,6 -1,5 -1,7 -1,8 0,0 0,2 -1,8 0,1 0,3 0,4 -1,2 -1,3 -1,4 0,1 0,2 0,3 0,1 0,2 0,2 0,1 0,2 1,2 0,1 0,1 1,1 0,0 1,0 2,0 3,0 6,0 8,-1 3,-1 5,-3 7,-5 2,-2 4,-4 6,-6 1,-3 3,-5 4,-9 1,-3 2,-6 3,-9 0,-2 1,-5 1,-8 0,-3 -1,-6 -2,-8 -1,-3 -2,-5 -4,-7 -2,-2 -5,-3 -7,-4 -3,-1 -6,-1 -9,-1 -2,0 -5,0 -7,0 -2,0 -4,1 -6,1 -2,1 -4,2 -6,3 -1,1 -2,2 -3,3 -2,3 -4,5 -5,7 -1,2 -2,3 -3,3 -1,0 -2,-2 -2,-4zm190 145l0 0c-1,1 -2,2 -3,2 -2,1 -3,2 -5,3 -1,0 -3,1 -5,1 -1,1 -3,1 -4,1 -3,0 -5,-1 -7,-2 -2,-1 -4,-2 -5,-4 -1,0 -1,-1 -1,-1 -1,0 -2,1 -3,1 -2,1 -5,2 -7,3 -3,1 -5,2 -8,2 -2,1 -5,1 -7,1 -2,0 -3,0 -5,0 -1,-1 -2,-1 -3,-2 -1,0 -2,-1 -3,-2 0,-1 -1,-2 -1,-3 0,1 -1,1 -1,1 -1,1 -2,1 -3,2 -2,1 -3,1 -4,2 -1,0 -3,1 -4,1 -1,0 -2,0 -3,0 -1,0 -2,0 -3,0 -1,-1 -1,-1 -2,-2 0,-1 -1,-2 -1,-3 0,-1 -1,-2 -1,-3 -1,1 -2,2 -3,3 -1,2 -2,2 -4,3 -1,1 -2,2 -3,2 -1,1 -2,1 -4,1 0,0 -1,0 -2,-1 -1,0 -2,0 -2,-1 -1,-1 -1,-2 -2,-3 0,-1 0,-3 0,-4 0,-4 0,-7 1,-9 0,-1 0,-4 1,-6 -1,-1 -2,-2 -3,-3 -1,-1 -3,-2 -4,-3 -2,-1 -3,-2 -4,-3l0 1c1,1 1,3 2,5 0,1 0,4 0,6 0,1 0,3 0,5 -1,1 -1,3 -2,5 0,1 -1,3 -2,4 -1,1 -2,2 -4,3 -1,1 -2,2 -4,3 -1,0 -3,1 -5,1 -2,0 -4,-1 -6,-2 -2,-1 -3,-2 -4,-4 0,-1 -1,-1 -1,-2 0,0 0,1 -1,1 0,0 -1,1 -2,2 -1,0 -2,1 -3,1 -1,1 -2,2 -4,2 -1,1 -2,1 -3,1 -1,1 -2,1 -3,1 -2,0 -3,-1 -4,-1 -1,-1 -2,-2 -3,-3 -1,-2 -1,-3 -2,-4 0,-2 0,-3 0,-4 0,-1 0,-2 0,-3 1,-2 1,-3 1,-4 1,-1 1,-2 1,-3 1,-1 1,-2 2,-3 0,-1 0,-1 1,-2 0,-1 0,-1 0,-1l-1 0c0,0 -1,1 -2,2 -1,1 -2,3 -4,5 -1,2 -3,4 -4,6 -2,3 -3,5 -4,8 -1,1 -1,2 -2,3 0,1 -1,1 -1,2 0,1 -1,1 -1,1 -1,1 -1,1 -2,1 -1,0 -2,-1 -2,-1 -1,-1 -1,-1 -1,-2 -1,-1 -1,-2 -1,-3 0,-1 0,-2 0,-3 0,-2 0,-4 0,-8 0,-3 0,-6 0,-10 1,-4 1,-7 2,-11 0,-4 1,-8 1,-12 1,-4 2,-8 3,-12 1,-3 3,-7 4,-9 2,-3 4,-5 6,-7 2,-1 5,-2 8,-2 1,0 3,0 3,0 1,1 2,1 3,2 0,1 1,2 1,3 0,1 0,3 0,4 0,2 0,4 -1,7 0,2 -1,5 -2,8 -1,2 -2,5 -3,8 -1,3 -3,5 -4,8 -1,3 -2,5 -4,8 -1,2 -2,4 -3,6l1 0c1,-1 2,-3 4,-5 1,-1 3,-4 5,-6 3,-2 5,-4 6,-5 2,-1 3,-1 4,-1 1,0 1,0 2,0 0,0 0,0 1,1 0,0 0,0 1,1 0,1 0,1 0,2 0,2 0,4 -1,6 0,2 -1,4 -3,7 -1,2 -2,4 -3,6 0,2 0,4 0,6 0,1 0,2 0,3 0,1 1,1 1,1 1,0 2,0 2,0 1,-1 2,-1 3,-1 0,-1 1,-1 2,-2 1,-1 1,-1 2,-2 1,0 1,-1 2,-2 0,0 0,-1 0,-1 0,-4 0,-7 1,-10 1,-3 2,-5 4,-7 2,-2 4,-3 6,-5 3,-1 6,-1 9,-1 2,0 5,0 7,1 2,1 4,2 6,3 3,2 4,3 6,6 0,0 1,0 1,0 0,0 0,0 0,-1 0,-1 1,-2 1,-2 0,-1 0,-2 1,-3 0,-1 1,-2 1,-2 1,-1 1,-2 2,-2 1,-1 2,-1 2,-1 2,0 3,1 4,1 0,0 1,1 1,1 -1,2 -1,4 -1,6 -1,2 -1,3 -1,5 -1,2 -1,4 -1,6 -1,2 -1,4 -1,5 0,1 -1,2 -1,3 0,1 0,1 0,1 0,1 0,1 0,2 0,0 0,1 1,1 0,1 0,1 0,1 1,0 1,0 1,0 1,0 2,0 2,0 1,0 2,-1 2,-1 1,-1 1,-2 2,-3 0,-1 0,-2 1,-3l4 -22c0,-1 1,-2 2,-2 1,-1 2,-1 3,-1 1,0 3,0 3,1 1,0 2,1 2,2 0,1 0,2 -1,3 0,1 0,3 0,4 0,2 -1,4 -1,6 0,2 -1,4 -1,5 0,2 -1,3 -1,4 0,1 0,2 0,2 0,1 0,2 0,2 0,1 0,2 0,2 0,1 1,1 1,1 0,0 0,1 1,1 0,0 1,-1 2,-1 1,0 2,-1 3,-1 0,0 0,0 1,-1 0,0 0,0 0,0 0,-1 1,-2 1,-2 1,0 1,-1 1,-1 1,-1 1,-1 1,-1 2,-1 3,-2 4,-3 1,-1 2,-2 3,-4 1,-1 2,-2 2,-2 1,-1 2,-2 3,-3 0,-1 1,-2 2,-4 1,-1 3,-3 5,-6 0,0 0,-1 1,-1 0,-1 1,-1 1,-1 1,-1 2,-1 2,-1 1,0 2,-1 2,-1 2,0 3,1 3,1 1,0 2,0 2,1 0,0 1,1 1,1 0,1 0,1 0,1 0,1 -1,2 -1,3 -1,0 -1,1 -2,2 -1,1 -1,1 -2,2 0,1 -1,1 -1,2 0,0 0,1 1,2 0,1 0,1 0,2 0,1 0,1 1,2 0,1 0,2 0,3 1,1 1,2 0,4 0,2 0,4 0,5 1,0 2,-1 3,-1 2,-1 3,-2 4,-2 1,0 1,-1 2,-1 0,-1 0,-2 0,-3 0,-2 0,-3 1,-5 0,-3 1,-4 2,-6 0,-2 1,-3 2,-5 1,-1 2,-3 3,-4 2,-1 3,-2 5,-2 1,-1 3,-1 5,-1 1,0 3,0 4,0 1,1 3,1 4,2 1,1 1,2 2,4 0,1 1,2 1,4 0,2 -1,3 -2,6 -1,2 -2,3 -4,5 -1,1 -3,3 -5,4 -2,1 -5,2 -7,3 0,0 1,1 1,2 1,0 1,0 1,1 1,0 1,0 2,0 0,0 1,0 1,0 2,0 4,0 6,-1 1,0 3,-1 5,-2 2,-1 3,-2 5,-3 1,-1 3,-2 4,-4l5 6c-2,3 -5,5 -8,7zm40 -57l0 0c-5,2 -12,-4 -15,-12 -3,-9 -1,-17 5,-19 6,-2 13,4 16,12 3,9 0,17 -6,19zm42 23l0 0c0,0 -6,-6 -11,-6l-1 1c-5,0 -11,6 -11,6 0,0 -14,7 -14,-10 0,-29 25,-33 25,-33l1 0c0,0 25,4 25,33 0,17 -14,9 -14,9zm35 -35l0 0c-3,9 -10,14 -16,12 -6,-2 -8,-10 -5,-18 2,-9 9,-14 15,-12 6,2 8,10 6,18z"/>
   <path class="fil0" d="M421 512c1,-1 2,-2 3,-3 1,-1 1,-2 1,-3 0,-2 0,-3 -1,-3 0,-1 -1,-1 -1,-1 -2,0 -3,0 -3,0 -1,1 -2,1 -3,2 0,1 -1,1 -1,2 0,1 -1,2 -1,3 -1,2 -1,3 -1,4 0,1 0,1 0,2 1,0 2,0 3,-1 1,0 3,-1 4,-2z"/>
  </g>
 </g>
</svg>
