<?xml version="1.0" encoding="UTF-8"?>
<!DOCTYPE svg PUBLIC "-//W3C//DTD SVG 1.1//EN" "http://www.w3.org/Graphics/SVG/1.1/DTD/svg11.dtd">
<!-- Creator: CorelDRAW X7 -->
<svg xmlns="http://www.w3.org/2000/svg" xml:space="preserve" width="2.6179in" height="2.23344in" version="1.1" style="shape-rendering:geometricPrecision; text-rendering:geometricPrecision; image-rendering:optimizeQuality; fill-rule:evenodd; clip-rule:evenodd"
viewBox="0 0 724 618"
 xmlns:xlink="http://www.w3.org/1999/xlink">
 <defs>
  <style type="text/css">
   <![CDATA[
    .fil1 {fill:#563A1A;fill-rule:nonzero}
    .fil3 {fill:#649589;fill-rule:nonzero}
    .fil2 {fill:#ACA091;fill-rule:nonzero}
    .fil0 {fill:#D3C4B3;fill-rule:nonzero}
   ]]>
  </style>
 </defs>
 <g id="__x0023_Layer_x0020_2">
  <metadata id="CorelCorpID_0Corel-Layer"/>
  <path class="fil0" d="M564 535c183,97 182,-64 129,-74 3,28 12,37 -16,62 -28,25 -126,-38 -113,12z"/>
  <path class="fil1" d="M126 306c-6,9 -13,18 -22,20 -10,2 -20,-2 -28,-7 -17,-11 -29,-30 -35,-49 -10,-33 5,-69 24,-97 13,-20 29,-39 44,-59 31,-41 68,-81 116,-104 18,-8 48,-15 67,-5 41,21 3,79 -14,103 -33,50 -75,93 -111,140 -9,11 -17,23 -25,34 -5,6 -10,16 -16,24z"/>
  <path class="fil2" d="M219 339c0,0 30,209 0,232 -29,22 71,6 71,6l-14 -174 -57 -64z"/>
  <path class="fil2" d="M385 353c0,0 29,209 0,232 -30,23 71,6 71,6l-14 -174 -57 -64z"/>
  <path class="fil0" d="M572 396c-41,-40 -90,-71 -131,-111 -71,-70 -112,-160 -147,-252 -13,-36 -34,-32 -68,-28 -53,7 -106,5 -159,6 -23,0 -54,2 -52,33 1,22 15,44 32,59 28,24 62,32 98,36 9,0 18,1 26,1 0,0 -11,173 99,280 6,79 35,153 -5,176 -41,24 69,28 76,11 8,-17 3,-125 3,-125 0,0 55,52 96,36 -20,28 4,68 4,68 0,0 2,6 -12,18 -15,11 125,8 162,-1 37,-9 52,-135 -22,-207z"/>
  <path class="fil3" d="M303 174c9,-5 31,-23 44,-34 12,-11 -17,-40 -24,-33 1,5 6,13 6,13 -70,61 -156,44 -165,41 -9,-4 -15,22 -2,27 14,6 67,32 141,-14z"/>
  <path class="fil1" d="M342 367c1,17 -17,39 -33,44 -20,6 -43,-1 -61,-11 -35,-21 -44,-63 -51,-101 -4,-22 -4,-44 -5,-67 -3,-59 -2,-120 22,-176 9,-20 28,-47 51,-52 43,-11 54,45 59,74 10,57 9,114 9,171 0,16 0,33 2,49 1,22 4,43 7,65 0,1 0,3 0,4z"/>
  <path class="fil1" d="M178 49c0,-4 -4,-8 -8,-8 -5,0 -9,4 -9,8 0,5 4,9 9,9 4,0 8,-4 8,-9z"/>
  <path class="fil1" d="M22 16c-1,0 -1,0 -1,0 -11,0 -21,9 -21,21 0,11 10,21 21,21 0,0 0,0 1,0 11,0 21,-10 21,-21 0,-12 -10,-21 -21,-21z"/>
  <path class="fil1" d="M61 74c-5,3 -10,5 -15,7 0,-1 0,-1 -1,-1 -3,-4 -6,-8 -9,-13 -3,-3 -7,-9 -5,-14 2,-5 -5,-7 -7,-2 -4,10 6,24 14,32 -1,0 -1,0 -2,0 -5,1 -5,8 0,8 10,-1 20,-5 28,-11 5,-2 1,-9 -3,-6z"/>
 </g>
</svg>
