<?xml version="1.0" encoding="UTF-8"?>
<!DOCTYPE svg PUBLIC "-//W3C//DTD SVG 1.1//EN" "http://www.w3.org/Graphics/SVG/1.1/DTD/svg11.dtd">
<!-- Creator: CorelDRAW X7 -->
<svg xmlns="http://www.w3.org/2000/svg" xml:space="preserve" width="2.52716in" height="4.20832in" version="1.1" style="shape-rendering:geometricPrecision; text-rendering:geometricPrecision; image-rendering:optimizeQuality; fill-rule:evenodd; clip-rule:evenodd"
viewBox="0 0 708 1180"
 xmlns:xlink="http://www.w3.org/1999/xlink">
 <defs>
   <clipPath id="id0">
    <path d="M324 1180c-3,0 -7,-1 -10,-1 -3,0 -7,-12 -10,-12 0,0 0,0 -1,0 -1,0 -3,2 -5,3 -2,1 -3,3 -5,3 0,0 0,0 0,0 -4,0 -7,-1 -11,-1 0,0 0,0 0,0 -1,0 -3,0 -5,1 -2,0 -3,1 -5,1 0,0 0,0 0,0 0,0 0,0 0,0 -2,0 -4,0 -5,1 -2,1 -4,2 -6,2 0,0 0,0 0,0 -3,-1 -7,-11 -10,-12 0,0 -1,0 -1,0 -1,0 -3,1 -4,1 -2,0 -3,0 -5,0 0,0 0,0 -1,0 -3,0 -7,-1 -10,-1 0,0 0,0 0,0 -2,0 -4,3 -6,6 -1,3 -3,6 -5,6 0,0 0,0 0,0 -4,0 -7,-10 -10,-10 0,0 0,0 0,0 -2,0 -4,1 -6,3 -1,1 -3,3 -5,3 0,0 0,0 0,0 -4,-1 -7,-4 -10,-5 -1,0 -1,0 -1,0 -2,0 -3,1 -5,1 -1,0 -3,0 -4,0 0,0 -1,0 -1,0 0,0 0,0 0,0 -2,0 -4,2 -5,3 -2,1 -4,3 -6,3 0,0 0,0 0,0 -3,-1 -7,-5 -10,-6 -4,0 -7,-9 -10,-9 0,0 -1,0 -1,0 -1,0 -3,0 -4,0 -2,1 -4,1 -5,1 0,0 -1,0 -1,0 0,0 0,0 0,0 -2,0 -4,1 -5,2 -2,2 -4,3 -5,3 0,0 -1,0 -1,0 -3,-1 -6,-6 -10,-6 0,0 0,0 0,0 -2,0 -4,2 -6,5 -1,2 -3,5 -5,5 0,0 0,0 0,0 -4,-1 -6,-12 -10,-13 0,0 0,0 0,0 -2,0 -4,2 -5,4 -2,1 -4,3 -6,3 0,0 0,0 0,0 -3,-1 -6,-7 -10,-7 -3,-1 -6,-6 -10,-6 -3,-1 -7,-2 -10,-3 0,0 0,0 0,0 -2,0 -4,2 -6,3 -2,2 -4,4 -5,4 0,0 0,0 -1,0 -3,-1 -7,-3 -10,-3 0,0 -1,-1 -1,-1 -2,0 -3,1 -5,2 -1,0 -3,1 -4,1 -1,0 -1,0 -1,0 -4,-2 -8,-5 -10,-7 -5,-2 -9,-9 -9,-12 0,-3 5,-8 10,-10 0,-1 1,-1 1,-1 1,0 3,1 4,1 1,0 3,1 4,1 1,0 1,0 2,-1 3,-1 5,-8 9,-9 1,0 2,0 2,0 1,0 2,0 3,0 1,0 2,0 3,0 1,0 2,0 3,0 3,-1 6,-4 10,-5 0,0 0,0 0,0 2,0 4,1 5,2 2,1 4,3 5,3 1,0 1,0 1,0 2,-1 4,-2 7,-3 0,0 0,0 0,1 0,4 3,8 3,12 0,2 1,5 3,5 2,2 2,3 2,5 0,1 1,2 2,2 2,1 3,2 5,3 1,0 1,0 1,0 2,0 3,-1 5,-1 3,-1 5,-2 8,-2 1,0 3,0 4,1 1,0 3,0 4,0 1,0 2,0 2,0 2,-1 4,-1 6,-1 3,0 6,1 9,1 2,0 3,0 5,0 0,0 1,0 1,0 2,-1 3,-1 5,-1 2,0 3,0 5,0 0,0 1,0 1,0 2,0 4,0 6,0 2,-1 4,-1 6,-1 2,0 3,0 4,0 0,0 0,0 0,0 1,0 2,0 2,0 0,0 1,0 1,0 1,0 1,0 2,0 1,0 1,0 2,0 1,0 2,0 3,-1 3,0 5,-1 7,-1 1,0 1,0 1,0 3,0 6,1 9,1 1,0 3,0 4,-1 2,0 3,0 4,0 3,0 6,1 10,1 0,0 0,0 0,0 1,0 1,0 1,-1 2,0 3,-1 4,-1 2,0 3,1 4,1 7,0 14,1 21,1 1,1 2,1 2,1 -12,-17 -26,-32 -42,-43 2,0 4,0 7,-1 0,0 1,0 1,0 2,0 3,1 4,1 1,0 2,0 2,0 9,7 17,16 25,25l0 0c-1,-2 -1,-3 -2,-4 -2,-5 -3,-9 -5,-13 2,-1 4,-1 7,-1 0,0 0,0 0,0 0,0 0,0 1,0 0,1 0,1 1,2 3,8 7,15 10,22 2,4 4,7 7,10 1,2 2,4 4,4 1,0 2,-1 3,-2 2,0 5,0 6,1 6,4 12,2 18,3 2,-1 3,-1 5,-1 2,0 4,0 6,0 2,1 4,1 5,1 1,0 2,0 2,0 2,-1 4,-1 6,-1 2,0 4,0 6,0 2,0 3,-2 3,-3 -2,-4 -1,-8 -1,-12 0,-6 1,-11 1,-16 -2,-4 -1,-8 0,-12 0,0 1,0 1,0 2,0 4,-1 5,-3 0,2 0,4 0,6 -1,4 0,8 0,12 0,4 0,8 0,11 2,4 0,8 0,12 1,1 1,2 2,2 4,0 7,1 11,1 1,0 3,1 4,1 1,0 1,0 2,-1 2,0 4,-1 6,-1 3,0 6,1 9,1 3,0 5,1 8,1 1,0 2,0 3,0 0,0 1,0 1,0 1,-1 2,-1 4,-1 0,0 1,0 1,0 1,0 1,0 2,0 0,0 1,0 2,-1 1,0 3,0 4,0 1,0 2,0 2,0 1,0 2,0 3,0 0,0 0,0 0,0 2,0 3,-1 4,-3 1,0 1,-1 1,-2 2,-4 4,-9 6,-14 2,-4 3,-10 7,-14 0,-1 0,-2 1,-3 0,-1 1,-2 2,-3 1,-3 3,-5 5,-5 0,0 0,0 0,0 1,0 3,1 4,2 0,1 -1,1 -1,2 -1,4 -4,7 -5,11 -1,2 -2,5 -3,7 4,-6 10,-12 16,-16 3,0 6,3 10,3 0,0 0,0 0,0 0,0 0,0 0,0 -13,8 -23,20 -29,35 1,0 1,0 2,0 1,0 2,0 3,0 1,0 3,0 5,-1 2,0 4,0 6,0 1,0 2,0 3,0 1,-1 2,-1 3,-1 1,0 2,0 3,0 0,0 1,0 2,0 1,0 2,0 3,0 1,-1 2,-1 4,-1 1,0 2,0 4,0 1,0 2,0 4,0 0,0 0,0 0,0 0,0 0,0 0,0 1,0 2,0 3,1 1,0 2,0 2,0 1,0 2,0 3,0 2,-1 3,-1 5,-1 0,0 0,0 1,0 1,0 1,0 2,0 1,0 2,0 3,-1 0,0 1,0 1,0 2,0 3,2 4,2 6,0 12,1 19,1l0 0c4,1 8,1 12,2 1,0 2,0 3,0 4,0 8,-1 12,-1 2,-1 4,-1 7,-2 3,-1 2,-5 3,-7 1,-1 2,-2 3,-3 1,-3 3,-5 4,-7 1,-2 1,-4 2,-6 1,1 2,2 3,2 0,0 1,0 1,0 1,0 3,0 4,-1 1,0 3,0 4,0 0,0 1,0 1,0 4,1 7,4 10,5 0,0 1,0 1,0 1,0 3,-3 5,-6 2,-3 5,-7 6,-7 0,0 0,0 0,0 4,1 6,14 9,14 4,1 7,2 11,3 0,0 0,0 0,0 2,0 4,-3 6,-5 2,-2 4,-5 6,-5 0,0 0,0 0,0 4,1 5,11 8,12 1,1 2,1 2,1 2,0 3,0 4,-1 2,0 3,0 4,0 1,0 1,0 2,0 4,3 1,8 1,11 0,3 3,8 -1,11 -3,1 -6,4 -10,5 0,0 -1,0 -1,0 -1,0 -3,-1 -5,-2 -2,-2 -4,-3 -5,-3 -1,0 -1,0 -1,0 -3,1 -7,3 -10,4 -4,0 -6,10 -9,10 -1,0 -1,1 -1,1 -1,0 -3,-2 -5,-4 -2,-2 -4,-4 -6,-4 0,0 0,0 0,0 0,0 -1,0 -1,0 -1,0 -3,0 -4,-1 -2,0 -3,-1 -5,-1 0,0 0,0 -1,0 -3,1 -5,14 -9,15 -3,0 -7,2 -10,2 -1,0 -1,0 -1,0 -2,0 -3,0 -5,0 -1,-1 -3,-1 -4,-1 0,0 -1,0 -1,0 0,0 0,0 0,0 -2,0 -4,-2 -6,-5 -2,-2 -3,-5 -5,-5 0,0 0,0 0,0 -4,1 -7,7 -10,7 -4,0 -7,2 -11,2 -3,1 -7,3 -10,3 -4,0 -7,2 -11,2 0,0 0,0 0,0 -2,0 -3,-2 -5,-5 -2,-2 -4,-5 -6,-5 0,0 0,0 0,0 -3,0 -6,10 -10,10 0,0 0,0 0,0 -2,0 -3,-1 -5,-3 -2,-2 -4,-4 -6,-4 0,0 0,0 0,0 -3,1 -6,8 -10,8 0,0 0,0 0,0 -2,0 -4,-1 -5,-2 -2,0 -4,-1 -5,-1 0,0 0,0 -1,0 -3,0 -6,6 -10,6 0,0 0,0 0,0 -2,0 -4,-1 -5,-2 -2,-1 -4,-2 -5,-2 -1,0 -1,0 -1,0 -3,0 -7,2 -10,2 0,0 0,0 0,0 -2,0 -4,-2 -5,-4 -2,-1 -4,-3 -6,-3 0,0 0,0 0,0 -3,0 -7,1 -10,1 0,0 0,0 0,0 -2,0 -4,-1 -6,-1 -1,-1 -3,-1 -5,-1 0,0 0,0 0,0 -3,0 -7,14 -10,14 0,0 0,0 0,0 -2,0 -4,-1 -6,-3 -1,-2 -3,-3 -5,-3 0,0 0,0 0,0 -3,0 -7,7 -10,7 -1,0 -1,0 -1,0l0 0zm110 -81c0,0 1,-1 1,-1 2,-2 4,-4 6,-4 0,0 0,0 0,0 0,0 0,0 1,0 0,0 1,0 2,0 -4,2 -7,3 -10,5l0 0z"/>
   </clipPath>
   <clipPath id="id1">
    <path d="M504 910c-3,0 -4,-2 -3,-5 4,-10 7,-20 11,-30 1,-1 2,-2 3,-2 2,-3 4,-6 5,-9 1,-3 5,-6 4,-10 3,-2 4,-6 5,-10 3,-6 6,-12 9,-18 3,-6 5,-12 7,-18 0,-5 3,-10 5,-15 2,-6 5,-13 7,-20 1,-7 3,-13 4,-20 4,-11 5,-23 9,-34 0,-1 0,-2 1,-4l1 0c2,3 3,6 5,9 -1,3 1,6 2,9 1,3 0,6 1,9 1,3 1,6 1,9 0,10 0,20 -1,30 0,3 -1,7 0,10 -2,6 -1,13 -3,20 -1,6 -2,13 -4,20 -1,6 -3,12 -4,18 0,2 -1,4 -1,6 -2,3 -4,6 -4,10 0,4 -4,6 -5,10 0,3 -2,6 -3,9 -1,2 -3,4 -4,6 -1,1 -2,2 -3,2 -4,0 -9,0 -12,1l-1 0c0,0 -1,1 -1,1 -1,0 -1,0 -2,0 -9,4 -18,9 -27,15 -1,1 -1,1 -2,1z"/>
   </clipPath>
   <clipPath id="id2">
    <path d="M280 1141c-6,-1 -12,1 -18,-3 -1,-1 -4,-1 -6,-1 -1,1 -2,2 -3,2 -2,0 -3,-2 -4,-4 -3,-3 -5,-6 -7,-10 -3,-7 -7,-14 -10,-22 -1,-1 -1,-1 -1,-2 -2,-4 -4,-7 -6,-10 -3,-7 -5,-13 -8,-20 -4,-9 -9,-18 -13,-27 -1,-1 -2,-3 -2,-5 -4,-8 -8,-16 -12,-24 -1,-3 -3,-5 -3,-8 -1,-3 -3,-6 -4,-9 -3,-9 -8,-17 -11,-26 -2,-5 -4,-9 -6,-13 -3,-4 -3,-9 -6,-13 -3,-11 -9,-20 -13,-30 -1,-4 -3,-8 -2,-12 1,-2 0,-4 -2,-4 -4,-2 -5,-6 -7,-10 -2,-5 -4,-11 -6,-16 -1,-5 -3,-10 -5,-15 -1,-7 -3,-14 -4,-21 -2,-5 -3,-11 -4,-16 -1,-3 0,-6 -1,-8 -1,-3 -2,-5 -2,-8 0,-2 0,-5 0,-8 0,-3 -2,-6 -1,-9 0,-3 1,-6 0,-9 -2,-7 0,-14 0,-20 1,-1 1,-2 1,-2 0,-5 1,-9 1,-14 4,-2 2,-8 5,-11 0,-3 2,-6 3,-9 1,-3 3,-5 3,-8 1,-4 3,-6 3,-10 4,-5 5,-12 9,-18 5,-6 8,-12 12,-18 5,-7 9,-13 14,-19 2,-2 4,-4 6,-6 1,0 2,0 3,0 1,0 2,0 3,1 6,8 15,12 23,18 3,2 6,3 8,6 0,0 1,1 1,1 5,0 8,4 12,5 3,1 6,3 9,4 1,0 2,1 3,1 0,0 0,0 0,0 5,0 9,4 14,4 2,3 5,2 7,3 20,2 41,4 61,6 1,0 2,0 2,0 2,0 4,0 6,-1 1,0 1,0 2,0 2,0 5,0 7,0 2,0 3,1 5,1 1,0 3,-1 4,-1 1,-1 3,-1 4,-1 0,0 1,0 2,0 0,0 1,0 2,0 0,0 0,0 1,0 1,0 2,-1 3,-1 0,0 0,0 0,0 1,1 2,1 3,1 2,0 4,0 6,-1 2,0 4,0 6,0 1,0 2,0 3,0 0,0 1,0 1,0 2,0 3,0 4,-1 1,0 3,0 4,0 1,0 1,0 2,0 1,0 1,0 2,0 1,0 2,0 3,-1 2,0 3,0 4,0 0,0 1,0 1,0 0,0 1,0 1,0 4,0 7,-1 9,-2 1,-1 2,-1 3,-1 1,0 1,0 2,0 0,0 1,0 1,0 2,0 3,0 4,-1 1,0 1,0 2,0 3,0 5,-2 8,-2 8,0 32,-6 39,-9 6,-2 12,-5 18,-8 2,-1 3,-2 4,-2 1,0 2,1 4,3 6,8 12,15 17,23 5,7 9,15 12,23 1,2 2,4 2,7 0,2 1,4 1,7 0,2 1,4 1,7 1,2 0,4 0,6 0,3 2,6 1,9 0,2 -1,5 1,8 0,4 -1,8 -1,12 0,3 -1,7 1,10 0,1 0,3 0,5 -1,5 -1,11 -2,16 3,5 1,9 1,13 0,3 0,7 -2,9 -1,1 -1,3 -1,4 -1,3 -1,6 -1,9 -1,4 0,9 -2,12 -3,4 -1,8 -4,12 -1,0 -1,1 -1,2 0,4 0,8 -1,11 -2,3 -3,6 -3,9 0,3 -3,5 -3,8 1,2 -1,4 -2,6 -1,3 0,6 -3,8 0,5 -4,8 -5,13 -2,4 -4,9 -6,14 -3,7 -6,13 -9,21 -3,2 -1,6 -3,9 -2,2 -4,5 -4,8 -1,4 -4,5 -5,8 -3,5 -5,11 -10,16 -1,5 -4,9 -7,13 -3,6 -6,11 -8,17 -1,3 -3,6 -5,9 -1,3 -3,5 -4,8 -1,4 -4,6 -5,10 -2,3 -2,6 -4,9 0,0 0,1 -1,2 -2,6 -6,11 -8,17 -2,6 -5,11 -7,16 -1,3 -3,5 -4,8 -1,1 -1,2 -1,3 -4,4 -5,10 -7,14 -2,5 -4,10 -6,14 0,1 0,2 -1,2 -1,2 -2,3 -4,3 0,0 0,0 0,0 -1,0 -2,0 -3,0 0,0 -1,0 -2,0 -1,0 -3,0 -4,0 -1,1 -2,1 -2,1 -1,0 -1,0 -2,0 0,0 -1,0 -1,0 -2,0 -3,0 -4,1 0,0 -1,0 -1,0 -1,0 -2,0 -3,0 -3,0 -5,-1 -8,-1 -3,0 -6,-1 -9,-1 -2,0 -4,1 -6,1 -1,1 -1,1 -2,1 -1,0 -3,-1 -4,-1 -4,0 -7,-1 -11,-1 -1,0 -1,-1 -2,-2 0,-4 2,-8 0,-12 0,-3 0,-7 0,-11 0,-4 -1,-8 0,-12 0,-2 0,-4 0,-6 0,-1 0,-3 0,-5 0,-4 -1,-7 0,-11 0,-3 1,-7 0,-10 -1,-8 0,-15 1,-23 0,-3 -2,-6 -1,-10 0,-3 1,-6 -1,-10 -1,-1 0,-4 0,-6 0,-3 2,-6 -1,-10 0,0 0,-2 0,-3 1,-7 2,-14 1,-21 -1,-3 0,-7 0,-10 0,-3 1,-6 -1,-9 0,-1 0,-3 0,-4 1,-4 2,-7 0,-11 -1,-1 0,-2 0,-3 0,-3 1,-6 -1,-9 0,-1 0,-2 0,-3 0,-4 1,-7 0,-11 -1,-3 0,-7 0,-10 0,-1 -2,-3 -2,-3 3,-2 2,-5 3,-8 0,0 1,-1 1,-1 0,0 0,0 0,0 3,0 5,1 8,1 2,0 4,0 6,0 1,0 3,0 5,-1 1,0 2,0 3,0 2,0 4,0 6,2 1,1 3,1 5,1 2,0 3,0 4,0 2,-1 3,-1 4,-1 1,0 2,0 3,0 9,1 17,2 25,3 0,0 1,0 1,0 2,0 3,-1 3,-4 0,-1 1,-2 0,-3 0,-1 -1,-1 -1,-1 0,0 0,0 0,0 -2,1 -4,1 -6,1 -3,0 -5,-1 -8,-1 -5,0 -10,-1 -15,-1 -6,-1 -13,-1 -19,-2 -2,0 -3,0 -5,0 -1,0 -3,0 -4,1 0,0 -1,0 -1,0 -1,0 -2,0 -3,0 -5,-1 -10,-1 -15,-2 -1,0 -1,0 -1,0 -2,0 -3,1 -5,1 -1,0 -3,1 -4,1 -1,0 -2,-1 -2,-1 -4,-1 -8,0 -12,-1 -4,0 -8,-1 -12,-1 -4,0 -7,-1 -11,-1 -4,-1 -8,-1 -13,-1 -1,0 -2,0 -3,0 0,0 0,0 0,0 -1,0 -2,1 -2,3 0,1 0,2 2,3 2,0 3,0 5,0 11,1 23,2 34,3 3,1 6,1 8,1 3,0 5,0 7,-1 0,0 1,0 1,0 2,0 3,1 2,3 -1,7 2,13 1,20 2,4 1,8 0,12 0,3 2,6 2,9 -1,3 -2,6 0,9l1 1c-1,3 -1,7 0,10 1,3 0,6 0,9 0,4 -2,8 1,12 -1,4 -1,7 -1,11 0,4 -2,8 0,11 1,1 0,3 0,4 0,5 -1,9 1,13 0,1 0,2 0,3 0,5 -2,10 0,14 0,6 -1,12 -1,18 0,3 -1,5 1,8 0,1 0,3 0,5 0,6 -2,11 0,17 0,1 0,3 0,4 0,1 0,2 0,2 -1,4 -2,8 0,12 0,5 -1,10 -1,16 0,4 -1,8 1,12 0,1 -1,3 -3,3 -2,0 -4,0 -6,0 -2,0 -4,0 -6,1 0,0 -1,0 -2,0 -1,0 -3,0 -5,-1 -2,0 -4,0 -6,0 -2,0 -3,0 -5,1l0 0z"/>
   </clipPath>
   <clipPath id="id3">
    <path d="M524 424c0,0 0,0 0,0l-1 -1c-2,-2 -4,-5 -7,-7 -8,-8 -18,-14 -27,-22 -3,-2 -7,-5 -11,-6 -2,-2 -6,-2 -8,-4 -3,-2 -5,-3 -8,-3 -3,-3 -8,-2 -11,-5 -1,0 -1,0 -1,0 -3,0 -6,-3 -9,-3 -3,0 -6,-1 -8,-3 -1,-1 -3,0 -4,-1 -5,0 -10,1 -14,-3 -5,0 -9,-1 -14,-1 -2,0 -4,0 -6,1 -7,-1 -14,0 -20,-3 -2,-1 -4,-1 -5,-1 -9,-1 -17,-2 -26,-3 -3,0 -6,0 -8,-2 -1,-1 -2,-1 -3,-1 -6,-1 -12,-1 -18,-2 0,0 0,0 0,0 -1,0 -2,1 -3,1 -1,0 -2,1 -3,1 -1,0 -1,0 -2,0 -1,-1 -3,-1 -5,-1 0,0 -1,0 -2,0 -1,0 -3,1 -4,1 0,0 -1,0 -1,0 0,0 -1,0 -1,0 -1,0 -3,0 -4,1 -1,0 -3,1 -4,1 -1,0 -1,0 -2,-1 0,0 -1,0 -1,0 -2,0 -3,1 -4,1 -2,0 -3,1 -4,1 -1,0 -1,0 -2,0 -3,2 -7,2 -10,3 -22,4 -21,4 -37,11 -10,3 -19,8 -27,14 -3,3 -6,6 -10,7 -1,1 -2,2 -3,3 -1,3 -5,5 -7,7 0,0 -1,1 -1,1 0,0 -1,-1 -1,-2 -2,-4 0,-8 -3,-12 1,-7 -3,-13 -3,-19 -1,-2 -1,-4 -1,-6 0,-2 -1,-4 -1,-6 0,-2 -1,-5 -1,-8 -1,-2 0,-4 -1,-6 -2,-4 1,-8 -2,-11 1,-6 -1,-11 0,-16 0,-3 1,-7 -1,-9 -1,-1 0,-2 0,-2 0,-6 1,-11 -1,-17 0,-3 1,-7 1,-11 0,-5 2,-10 0,-15l0 -1c2,-3 0,-6 1,-9 0,-4 0,-7 0,-11 2,-20 4,-40 6,-60 1,-3 0,-5 3,-8 0,-1 0,-2 1,-4 0,-3 0,-5 2,-8 1,-2 1,-5 1,-7 1,-6 1,-12 2,-18 3,-4 4,-10 7,-14 0,-3 3,-5 3,-7 0,-3 2,-5 3,-8 1,-3 3,-6 5,-8 1,-1 2,-2 2,-4 0,-3 3,-5 5,-8 3,-5 5,-9 9,-13 5,-9 13,-15 19,-23 1,-1 3,-2 5,-4 3,-2 6,-4 10,-6 3,-2 5,-5 9,-6 6,-6 14,-8 21,-13 4,-3 10,-4 15,-6 5,-1 10,-3 15,-5 5,-3 12,-4 18,-6 2,-1 4,-2 7,-2 1,0 1,0 2,0 0,0 0,0 0,0 1,0 2,0 3,0 1,-1 2,-1 3,-1 1,0 1,0 2,0 0,0 0,0 1,0 1,0 1,0 2,0 1,-1 2,-1 3,-1 1,0 1,0 1,0 1,0 2,0 3,0 1,0 3,0 4,-1 1,0 2,0 3,0 2,0 4,0 5,0 2,-1 4,-1 5,-1 1,0 2,0 2,0 1,0 2,0 2,0 2,0 4,0 5,-1 2,0 4,0 7,0 0,0 0,0 0,0 2,0 5,-1 7,-1 0,0 0,0 0,0 7,1 13,0 19,3 1,1 3,1 5,1 4,1 8,1 11,2 3,2 8,1 10,4 0,0 1,0 1,0 2,0 4,2 6,3 2,1 4,1 5,2 6,2 11,6 17,8 5,2 10,5 15,8 3,2 5,3 7,5 2,2 4,4 6,5 6,5 11,11 17,16 7,7 10,15 15,23 3,7 7,13 11,20 1,2 3,5 4,8 2,4 2,9 5,13 2,3 1,7 2,11 2,4 1,9 3,13 1,4 0,9 2,13 1,1 0,2 0,4 -1,5 1,10 1,16 3,3 0,7 2,11 0,3 0,6 0,10 -1,4 2,8 1,13 0,1 1,2 1,3 0,4 0,8 1,13 1,4 -1,8 -1,13 0,3 -1,7 1,10 0,1 0,3 -1,5 0,9 -1,19 -2,29 -1,9 -2,19 -3,28 0,3 0,5 -2,7 -1,1 -1,3 -1,5 -1,4 0,8 -2,11 -1,3 -1,7 -3,10 -2,4 -2,9 -3,13 0,5 -3,8 -3,13 0,4 -4,8 -3,12 -3,3 -3,6 -3,9 0,4 -3,6 -3,10 0,3 -1,5 -2,8 -2,4 -2,8 -3,12 0,1 -1,1 -2,1l0 0zm-90 -89c1,0 1,1 2,1 3,0 6,-2 9,-2 8,-1 15,-3 21,-10 2,-2 3,-5 5,-7 4,-3 2,-8 5,-11 0,-2 -1,-3 -1,-5 0,-3 0,-5 -2,-7 -2,-2 -1,-6 -4,-7 -3,-1 -4,-4 -7,-5 -2,-2 -5,-3 -8,-3 -4,-1 -7,-1 -11,-1 0,0 -1,0 -1,0 -3,0 -7,2 -10,2 0,0 0,0 -1,0 0,0 0,0 0,0 0,0 -1,0 -1,0 0,0 0,0 -1,1 -5,1 -10,4 -14,9 -1,3 -4,6 -5,9 -3,4 -2,9 -3,13l1 1c2,4 4,8 7,11 2,2 4,4 7,6 3,3 6,5 11,5 0,0 0,0 1,0l0 0zm-181 -63c-3,0 -7,1 -9,4 -4,3 -8,6 -12,9 -5,5 -8,9 -8,16 0,2 -1,4 0,5 0,2 0,3 0,4 2,5 4,11 6,16 2,4 5,6 10,7 0,0 0,0 1,0 1,0 2,0 4,-1 1,0 3,0 4,0 0,0 1,0 2,0 1,0 2,0 3,0 6,0 12,-3 17,-6 4,-2 8,-5 8,-10 3,-2 2,-5 3,-9 1,-4 -2,-10 -1,-16 0,-1 -1,-2 -1,-3 -1,-2 1,-6 -1,-8 -2,-2 -2,-4 -4,-4 -2,0 -4,-1 -6,-1 -2,-1 -5,-2 -7,-3 0,-1 -1,-1 -1,-1 -1,0 -2,0 -2,1 -1,0 -2,0 -2,0 -1,0 -1,0 -1,0 -1,0 -2,0 -3,0zm31 -84c-1,0 -2,0 -4,1 -3,1 -6,3 -10,3 -6,1 -10,5 -16,7 -6,6 -14,9 -21,15 -4,4 -8,9 -12,13 -3,3 -2,8 -5,12 -1,1 0,2 2,2 1,1 1,1 2,1 0,0 1,0 1,0 2,0 3,-1 3,-3 0,-4 2,-6 4,-9 5,-7 12,-12 18,-17 10,-7 23,-14 35,-17 0,0 1,0 2,0 0,0 0,0 0,0 0,0 0,0 0,0 1,0 1,0 2,0 2,-1 4,-3 4,-6 0,0 -1,-2 -2,-2 -1,0 -2,0 -3,0l0 0zm148 16c0,0 0,0 0,0 6,1 11,1 16,2 4,1 7,4 10,5 3,0 6,3 9,3 3,1 5,2 8,4 5,5 10,8 15,14 0,0 0,0 1,0 0,0 1,0 1,-1 3,-2 3,-4 1,-7 -2,-3 -6,-6 -10,-9 -7,-4 -14,-7 -22,-10 -3,-3 -8,-2 -11,-5 -4,0 -8,-1 -12,-1l0 0c-2,-1 -4,-1 -6,-1 -2,0 -3,0 -5,0 0,0 -1,0 -1,0 -4,0 -7,2 -11,3 -1,0 -1,1 -1,2 0,1 1,1 1,2 1,0 2,0 3,0 1,0 2,0 3,0 2,0 4,0 6,0 1,0 3,-1 5,-1l0 0z"/>
   </clipPath>
   <clipPath id="id4">
    <path d="M315 687c-1,0 -2,0 -3,0 -4,-1 -8,-1 -12,-1 -4,0 -9,-1 -13,-1l0 0c-8,-1 -17,-2 -25,-3 -3,0 -7,0 -10,-2 0,-1 -2,-1 -3,-1 -3,0 -6,-1 -9,-1 -2,-3 -6,-2 -9,-4 -4,-2 -10,-4 -14,-7 -5,-3 -11,-6 -16,-9 -8,-6 -16,-12 -23,-19 -6,-5 -11,-11 -16,-17 -8,-10 -14,-21 -20,-31 -2,-5 -3,-11 -4,-16 -2,-4 -3,-9 -3,-14 0,-3 -2,-6 -1,-9 -3,-4 -2,-7 -1,-11 0,-2 0,-5 -1,-7 1,-11 1,-23 4,-33 0,-2 -1,-3 -1,-4 1,-1 2,-2 2,-3 1,-4 0,-8 2,-11 1,-2 1,-6 2,-8 3,-4 2,-9 6,-13 1,-2 2,-5 3,-7 4,-10 10,-19 17,-27 10,-12 20,-24 33,-33 5,-4 9,-7 14,-10 6,-3 13,-6 19,-8 4,-2 8,-2 12,-4 4,-2 8,-3 13,-3 4,-1 8,-2 12,-3 5,-1 9,-2 14,-3 5,-1 9,-1 14,-2 1,-1 1,-1 2,-1 1,0 2,0 3,0 14,2 28,3 42,5 2,0 4,0 6,1 0,1 1,1 1,1 1,0 2,0 2,-1 1,0 2,0 3,0 1,0 1,0 1,0 2,1 3,2 4,2 2,0 4,-1 6,-1 0,0 0,0 1,0 0,0 1,0 2,0 7,4 15,3 23,4 0,0 0,0 0,0 1,0 2,0 3,0 2,-1 3,-1 5,-1 2,0 5,1 7,2 2,1 3,1 5,1 4,1 7,1 10,1 4,1 7,1 10,3 2,2 6,0 9,3 0,0 1,0 1,0 9,1 16,5 23,9 3,2 7,3 10,6 3,2 6,4 10,6 5,3 10,7 15,11 8,7 14,16 23,22 12,14 24,27 30,45 2,6 3,13 4,19 0,2 1,4 1,7 0,2 -1,4 0,6 2,7 0,13 0,20 -1,7 -2,14 -2,21 -1,1 -2,3 -3,5 0,2 0,5 -1,6 -1,3 -2,5 -2,8 0,2 -3,4 -3,6 -1,8 -6,14 -8,21 -2,4 -5,8 -7,12 -2,3 -5,5 -8,8 -4,5 -8,10 -13,14 -3,2 -6,5 -9,8 -4,5 -10,9 -16,12 -3,1 -6,3 -9,4 -8,4 -16,9 -25,11 -2,0 -5,1 -7,2 -5,3 -11,3 -16,6 0,0 0,0 -1,0 -1,0 -3,0 -4,0 -2,0 -3,1 -5,1 0,0 0,0 0,0 0,0 0,0 0,0 -2,0 -4,0 -6,0 -1,1 -3,1 -5,1 0,0 0,0 0,0 0,0 0,0 -1,0 -3,0 -7,1 -10,2 -1,0 -2,0 -3,0 0,0 -1,0 -1,0 -1,0 -1,0 -2,0 -1,0 -3,1 -4,2 -1,0 -2,0 -3,0 -1,0 -3,0 -4,1 -2,0 -3,0 -5,0 -1,0 -2,0 -3,0 0,0 0,0 0,0 -1,0 -2,0 -3,1 -1,0 -2,0 -3,0 -1,0 -1,0 -1,0 -2,0 -3,0 -5,0 -1,0 -2,0 -3,1 -1,0 -2,0 -3,0 0,0 -1,0 -2,0 -1,0 -1,0 -2,0 0,0 -1,0 -1,0 -2,1 -4,1 -5,1 -1,0 -2,0 -2,0 -1,0 -2,0 -3,0 -1,0 -2,0 -2,0 -3,0 -5,1 -7,1 -3,0 -5,0 -7,-1 0,0 0,0 0,0 -1,0 -3,1 -5,1 -1,0 -3,0 -5,0zm23 -293c-6,0 -17,3 -21,6 -5,4 -10,8 -15,12 -3,3 -5,6 -5,11 0,4 -1,9 -1,13 -1,6 1,11 4,16 3,6 8,11 14,14 3,2 5,4 9,5 3,1 6,2 9,3 3,0 5,2 5,4 -1,4 2,8 1,13 0,3 -1,7 -1,11 3,3 0,8 3,12 0,0 0,2 -1,3 -1,2 -2,4 -4,5 -7,6 -11,13 -19,18 -1,1 -2,3 -4,4 -1,1 0,6 1,7 0,0 1,0 2,0 1,0 3,-1 4,-1 0,-1 2,-2 2,-2 3,-5 7,-8 11,-11 2,-2 5,-3 6,-6 2,-4 6,-6 10,-6 2,0 4,0 5,1 3,0 6,1 8,3 5,2 10,3 14,8 0,0 1,1 1,1 5,1 9,5 14,7 1,1 3,1 4,1 1,0 1,0 1,0 1,0 2,0 2,-2 0,-2 1,-4 1,-6 0,-1 -1,-2 -3,-2 0,0 0,0 0,0 -1,0 -2,0 -3,0 -2,0 -4,-1 -6,-2 -8,-4 -16,-8 -24,-13 -1,-1 -3,-1 -5,-1 -2,-1 -5,-2 -8,-3 -1,-1 -2,-3 -2,-4 0,-4 -2,-8 -1,-13 0,-6 -2,-12 -1,-19 0,0 0,-1 0,-2 -1,-3 -1,-2 2,-4 1,-1 2,-1 4,-1 0,0 1,0 1,0 0,0 1,0 1,0 1,0 2,0 2,0 6,-2 10,-4 15,-7 3,-1 6,-4 7,-7 1,-1 2,-2 3,-3 7,-4 10,-11 11,-18 0,-2 0,-4 2,-5 1,-2 1,-3 0,-5 0,-2 0,-3 -1,-5 -1,-5 -4,-11 -8,-15 -2,-3 -7,-5 -10,-8 -4,-3 -9,-1 -13,-4 -1,-1 -3,-1 -5,-1 -3,-1 -6,-1 -8,-1l0 0c-3,-1 -6,-1 -8,-1 -1,0 -1,0 -2,0zm-85 147c-4,0 -4,8 0,8 5,0 5,-8 0,-8l0 0zm33 -6c-5,0 -5,7 0,7 4,0 5,-7 0,-7l0 0zm-54 -15c-4,0 -4,8 1,8 4,0 4,-8 -1,-8zm174 -1c-4,0 -4,8 1,8 4,0 4,-8 -1,-8l0 0zm-31 -1c-4,0 -4,7 0,7 5,0 5,-7 0,-7l0 0zm78 -4c-5,0 -5,7 0,7 5,0 5,-7 0,-7l0 0zm-193 -9c-5,0 -5,7 0,7 5,0 5,-7 0,-7l0 0zm40 -12c-5,0 -5,8 0,8 5,0 5,-8 0,-8zm123 -2c-4,0 -4,7 0,7 5,0 5,-7 0,-7zm-24 -4c-5,0 -5,7 0,7 4,0 4,-7 0,-7l0 0zm-24 -4c-4,0 -4,7 0,7 5,0 5,-7 0,-7l0 0zm-143 0c-4,0 -4,7 1,7 4,0 4,-7 -1,-7l0 0zm28 -11c-5,0 -5,8 0,8 5,0 5,-8 0,-8l0 0zm149 -16c-5,0 -5,7 0,7 5,0 5,-7 0,-7l0 0z"/>
   </clipPath>
   <clipPath id="id5">
    <path d="M230 1119c-8,-9 -16,-18 -25,-25 -21,-18 -46,-30 -74,-32 -2,-1 -4,-1 -6,-1 -23,0 -49,10 -62,29 0,-1 0,-1 0,-2 -3,-10 -4,-21 -8,-30 -2,-4 1,-7 -2,-10 0,-4 -2,-7 -2,-10 1,-4 -2,-6 -3,-10 0,-3 -2,-6 -1,-9 -3,-4 -1,-8 -3,-12 -1,-4 -1,-8 -3,-12l0 -1c0,-3 1,-6 0,-9 -1,-2 0,-6 0,-9 0,-1 0,-1 0,-2 -3,-7 0,-14 0,-19 0,-5 1,-8 1,-11 0,-3 1,-6 2,-9 2,-2 1,-5 2,-8 1,-2 2,-3 2,-5 0,-1 0,-2 1,-2 3,-3 3,-7 6,-9 9,-9 19,-16 31,-20 4,-1 7,-1 10,-3 1,0 2,0 2,0 2,0 4,0 6,1 3,0 6,0 8,0 0,0 0,0 0,0 0,0 1,0 1,0 3,0 6,1 9,4 2,2 6,1 8,4 3,3 3,7 5,10 4,7 7,16 10,24 2,5 5,11 8,16 1,3 2,6 4,9 2,6 4,11 7,17 3,5 4,10 7,15 3,6 5,13 8,19 3,7 6,14 9,21 3,7 8,14 9,21 3,5 5,10 7,15 0,1 1,2 2,3 3,3 4,8 6,12 2,4 3,8 5,12 2,4 4,7 6,11 2,4 3,8 5,13 1,1 1,2 2,4z"/>
   </clipPath>
   <clipPath id="id6">
    <path d="M85 1141c0,0 0,0 -1,0 -2,-1 -3,-2 -5,-3 -1,0 -2,-1 -2,-2 0,-2 0,-3 -2,-5 -2,0 -3,-3 -3,-5 0,-4 -3,-8 -3,-12 0,-1 0,-1 0,-1 -1,-3 -2,-6 -2,-9 5,-23 34,-33 58,-33 6,0 12,1 17,2 19,5 35,12 49,21 16,11 30,26 42,43 0,0 -1,0 -2,-1 -7,0 -14,-1 -21,-1 -1,0 -2,-1 -4,-1 -1,0 -2,1 -4,1 0,1 0,1 -1,1 0,0 0,0 0,0 -4,0 -7,-1 -10,-1 -1,0 -2,0 -4,0 -1,1 -3,1 -4,1 -3,0 -6,-1 -9,-1 0,0 0,0 -1,0 -2,0 -4,1 -7,1 -1,1 -2,1 -3,1 -1,0 -1,0 -2,0 -1,0 -1,0 -2,0 0,0 -1,0 -1,0 0,0 -1,0 -2,0 0,0 0,0 0,0 -1,0 -2,0 -4,0 -2,0 -4,0 -6,1 -2,0 -4,0 -6,0 0,0 -1,0 -1,0 -2,0 -3,0 -5,0 -2,0 -3,0 -5,1 0,0 -1,0 -1,0 -2,0 -3,0 -5,0 -3,0 -6,-1 -9,-1 -2,0 -4,0 -6,1 0,0 -1,0 -2,0 -1,0 -3,0 -4,0 -1,-1 -3,-1 -4,-1 -3,0 -5,1 -8,2 -2,0 -3,1 -5,1l0 0z"/>
   </clipPath>
   <clipPath id="id7">
    <path d="M404 1115c1,-2 2,-5 3,-7 1,-4 4,-7 5,-11 0,-1 1,-1 1,-2 1,-3 2,-6 3,-8 1,-3 3,-6 4,-9 1,-1 1,-3 2,-4 1,-2 3,-3 3,-5 0,-4 3,-7 3,-10 0,-2 1,-3 2,-4 4,-4 4,-9 7,-13 1,-6 5,-10 8,-15 2,-5 5,-10 7,-14 2,-4 5,-8 6,-12 2,-4 4,-7 6,-10 2,-4 5,-8 7,-11 1,-2 2,-3 2,-4 1,-4 4,-7 6,-10 1,-4 2,-8 5,-11 0,-7 4,-13 7,-19 1,-3 0,-7 4,-9 0,-3 1,-4 3,-6 11,-11 25,-16 39,-19 3,-1 6,-2 8,-2 1,0 2,0 3,1 1,0 1,0 2,0 1,0 3,-1 4,-1 0,-1 0,-1 1,-1 0,0 1,1 2,1 1,1 2,2 4,2 7,0 12,4 17,8 8,7 11,16 15,25 -1,6 2,10 1,16 -1,6 -1,13 -2,19 -1,4 -1,7 -3,11 -2,2 0,7 -3,9 -1,5 -3,9 -5,13 -1,5 -3,9 -4,14 -1,2 -2,3 -3,5 -1,3 -3,6 -3,10 0,2 -1,4 -2,6 -4,7 -6,14 -9,20 -2,5 -4,10 -6,15 -3,5 -5,10 -8,15 -1,3 -3,5 -4,7 -13,-14 -37,-19 -57,-19 -1,0 -3,0 -4,0 -22,1 -44,9 -61,23 -6,4 -12,10 -16,16l0 0z"/>
   </clipPath>
   <clipPath id="id8">
    <path d="M501 1138c-1,0 -2,0 -3,0 -4,-1 -8,-1 -12,-2l0 0c-7,0 -13,-1 -19,-1 -1,0 -2,-2 -4,-2 0,0 -1,0 -1,0 -1,1 -2,1 -3,1 -1,0 -1,0 -2,0 -1,0 -1,0 -1,0 -2,0 -3,0 -5,1 -1,0 -2,0 -3,0 0,0 -1,0 -2,0 -1,-1 -2,-1 -3,-1 0,0 0,0 0,0 0,0 0,0 0,0 -2,0 -3,0 -4,0 -2,0 -3,0 -4,0 -2,0 -3,0 -4,1 -1,0 -2,0 -3,0 -1,0 -2,0 -2,0 -1,0 -2,0 -3,0 -1,0 -2,0 -3,1 -1,0 -2,0 -3,0 -2,0 -4,0 -6,0 -2,1 -4,1 -5,1 -1,0 -2,0 -3,0 -1,0 -1,0 -2,0 6,-15 16,-27 29,-35 2,-1 3,-2 4,-3 3,-2 6,-3 10,-5 11,-5 24,-9 37,-9 1,0 3,0 5,0 18,0 41,4 51,19 -2,2 -3,5 -5,8 -1,2 -1,4 -2,6 -1,2 -3,4 -4,7 -1,1 -2,2 -3,3 -1,2 0,6 -3,7 -3,1 -5,1 -7,2 -4,0 -8,1 -12,1z"/>
   </clipPath>
   <clipPath id="id9">
    <path d="M697 246c-1,0 -1,-1 -3,-2 -4,-2 -6,-6 -10,-10 0,-4 -5,-4 -6,-9 0,-3 -4,-5 -7,-7 -2,-1 -3,-3 -4,-5 -6,-8 -14,-14 -20,-21 0,-1 -1,-2 -1,-2 -5,-2 -8,-7 -13,-10 -4,-3 -8,-6 -12,-10 -5,-3 -8,-8 -13,-11 -5,-3 -9,-8 -14,-10 -6,-6 -14,-11 -19,-18 -3,-4 -6,-7 -10,-10 -4,-4 -7,-8 -11,-13 -1,-1 -1,-2 0,-3 2,-2 4,-5 6,-6 2,-3 6,-5 8,-9 0,-1 1,-1 2,-1 5,-3 9,-7 14,-10 2,-2 4,-3 7,-4 2,-1 3,-4 6,-4 3,0 3,-5 6,-6 3,0 6,-1 8,-3 6,-5 13,-8 20,-11 3,-1 6,-3 9,-4 1,0 2,0 3,0 0,0 1,0 1,0 1,0 1,0 2,0 1,0 2,0 3,-1 0,0 1,0 1,0 1,0 1,0 1,0 4,3 9,2 12,5 3,2 7,5 9,8 3,4 6,8 9,13 3,4 4,9 6,13 2,4 3,8 6,11 0,5 3,10 4,14 1,6 4,10 4,16 2,3 1,8 2,12 1,3 2,7 2,12 0,2 0,6 1,8 1,4 1,8 1,11 -1,3 -1,6 0,9 1,2 0,4 0,5 0,3 0,5 1,7 1,1 0,3 0,4 0,5 -1,10 -1,15l0 0c0,3 -1,6 -1,9 -1,3 0,7 -3,10 -1,1 0,4 -1,6 0,3 0,6 -2,8 -2,3 -2,4 -3,4l0 0z"/>
   </clipPath>
   <clipPath id="id10">
    <path d="M52 221c-2,0 -3,-2 -5,-8 0,-5 -3,-9 -3,-14 0,-5 -2,-9 -1,-14 0,-4 -2,-8 -1,-12 1,-4 1,-8 1,-12 1,-4 1,-8 2,-12 0,-5 -1,-11 3,-15 -1,-7 4,-12 4,-19 0,-2 2,-5 3,-7 0,-3 0,-5 2,-7 1,-7 5,-12 6,-19l1 -1c4,-5 5,-12 9,-18 1,-2 3,-5 4,-9 5,-9 11,-18 16,-27 3,-4 7,-7 11,-10 2,-1 4,-2 5,-2 1,-1 2,-1 3,-1 1,0 1,0 1,0 3,3 7,2 10,4 8,5 16,9 22,15 1,0 1,1 2,1 7,4 12,9 17,15 2,3 4,5 6,7 4,1 2,5 6,6 2,3 5,6 8,9 -1,4 4,5 3,9 -3,1 -5,2 -8,2 -3,1 -5,1 -7,2 -6,4 -13,7 -19,11 -2,2 -4,3 -6,4 0,3 -5,2 -6,5 0,2 -3,4 -5,5 -9,10 -19,20 -27,32 -6,9 -12,18 -18,28 -1,2 -3,5 -4,8 -1,2 -3,3 -4,5 -1,2 -1,4 -3,6 -1,1 -3,3 -4,4 -4,8 -10,15 -15,22 -1,1 -1,1 -2,2 -4,3 -6,5 -7,5l0 0z"/>
   </clipPath>
   <clipPath id="id11">
    <path d="M436 336c-1,0 -1,-1 -2,-1 -1,0 -1,0 -1,0 -5,0 -8,-2 -11,-5 -3,-2 -5,-4 -7,-6 -3,-3 -5,-7 -7,-11l-1 -1c1,-4 0,-9 3,-13 1,-3 4,-6 5,-9 4,-5 9,-8 14,-9 1,-1 1,-1 1,-1 0,0 1,0 1,0 0,0 0,0 0,0 1,0 1,0 1,0 3,0 7,-2 10,-2 0,0 1,0 1,0 4,0 7,0 11,1 3,0 6,1 8,3 3,1 4,4 7,5 3,1 2,5 4,7 2,2 2,4 2,7 0,2 1,3 1,5 -3,3 -1,8 -5,11 -2,2 -3,5 -5,7 -6,7 -13,9 -21,10 -3,0 -6,2 -9,2l0 0zm15 -40c-12,0 -12,19 1,19 11,0 11,-19 -1,-19z"/>
   </clipPath>
   <clipPath id="id12">
    <path d="M241 333c-1,0 -1,0 -1,0 -5,-1 -8,-3 -10,-7 -2,-5 -4,-11 -6,-16 0,-1 0,-2 0,-4 -1,-1 0,-3 0,-5 0,-7 3,-11 8,-16 4,-3 8,-6 12,-9 2,-3 6,-4 9,-4 1,0 2,0 3,0 0,0 0,0 1,0 0,0 1,0 2,0 0,-1 1,-1 2,-1 0,0 1,0 1,1 2,1 5,2 7,3 2,0 4,1 6,1 2,0 2,2 4,4 2,2 0,6 1,8 0,1 1,2 1,3 -1,6 2,12 1,16 -1,4 0,7 -3,9 0,5 -4,8 -8,10 -5,3 -11,6 -17,6 -1,0 -2,0 -3,0 -1,0 -2,0 -2,0 -1,0 -3,0 -4,0 -2,0 -3,1 -4,1l0 0zm23 -50c-11,0 -12,18 1,18 11,0 11,-18 -1,-18l0 0z"/>
   </clipPath>
   <clipPath id="id13">
    <path d="M221 242c0,0 -1,0 -1,0 -1,0 -1,0 -2,-1 -2,0 -3,-1 -2,-2 3,-4 2,-9 5,-12 4,-4 8,-9 12,-13 7,-6 15,-9 21,-15 6,-2 10,-6 16,-7 4,0 7,-2 10,-3 2,-1 3,-1 4,-1 1,0 2,0 3,0 1,0 2,2 2,2 0,3 -2,5 -4,6 -1,0 -1,0 -2,0 0,0 0,0 0,0 0,0 0,0 0,0 -1,0 -2,0 -2,0 -12,3 -25,10 -35,17 -6,5 -13,10 -18,17 -2,3 -4,5 -4,9 0,2 -1,3 -3,3l0 0z"/>
   </clipPath>
   <clipPath id="id14">
    <path d="M491 232c-1,0 -1,0 -1,0 -5,-6 -10,-9 -15,-14 -3,-2 -5,-3 -8,-4 -3,0 -6,-3 -9,-3 -3,-1 -6,-4 -10,-5 -5,-1 -10,-1 -16,-2 0,0 0,0 0,0 -2,0 -4,1 -5,1 -2,0 -4,0 -6,0 -1,0 -2,0 -3,0 -1,0 -2,0 -3,0 0,-1 -1,-1 -1,-2 0,-1 0,-2 1,-2 4,-1 7,-3 11,-3 0,0 1,0 1,0 2,0 3,0 5,0 2,0 4,0 6,1l0 0c4,0 8,1 12,1 3,3 8,2 11,5 8,3 15,6 22,10 4,3 8,6 10,9 2,3 2,5 -1,7 0,1 -1,1 -1,1l0 0z"/>
   </clipPath>
   <clipPath id="id15">
    <path d="M315 551c-1,0 -2,0 -2,0 -1,-1 -2,-6 -1,-7 2,-1 3,-3 4,-4 8,-5 12,-12 19,-18 2,-1 3,-3 4,-5 1,-1 1,-3 1,-3 -3,-4 0,-9 -3,-12 0,-4 1,-8 1,-11 1,-5 -2,-9 -1,-13 0,-2 -2,-4 -5,-4 -3,-1 -6,-2 -9,-3 -4,-1 -6,-3 -9,-5 -6,-3 -11,-8 -14,-14 -3,-5 -5,-10 -4,-16 0,-4 1,-9 1,-13 0,-5 2,-8 5,-11 5,-4 10,-8 15,-12 4,-3 15,-6 21,-6 1,0 1,0 2,0 2,0 5,0 8,1l0 0c2,0 5,0 8,1 2,0 4,0 5,1 4,3 9,1 13,4 3,3 8,5 10,8 4,4 7,10 8,15 1,2 1,3 1,5 1,2 1,3 0,5 -2,1 -2,3 -2,5 -1,7 -4,14 -11,18 -1,1 -2,2 -3,3 -1,3 -4,6 -7,7 -5,3 -9,5 -15,7 0,0 -1,0 -2,0 0,0 -1,0 -1,0 0,0 -1,0 -1,0 -2,0 -3,0 -4,1 -3,2 -3,1 -2,4 0,1 0,2 0,2 -1,7 1,13 1,19 -1,5 1,9 1,13 0,1 1,3 2,4 3,1 6,2 8,3 2,0 4,0 5,1 8,5 16,9 24,13 2,1 4,2 6,2 1,0 2,0 3,0 0,0 0,0 0,0 2,0 3,1 3,2 0,2 -1,4 -1,6 0,2 -1,2 -2,2 0,0 0,0 -1,0 -1,0 -3,0 -4,-1 -5,-2 -9,-6 -14,-7 0,0 -1,-1 -1,-1 -4,-5 -9,-6 -14,-8 -2,-2 -5,-3 -8,-3 -1,-1 -3,-1 -5,-1 -4,0 -8,2 -10,6 -1,3 -4,4 -6,6 -4,3 -8,6 -11,11 0,0 -2,1 -2,2 -1,0 -3,1 -4,1l0 0zm-12 -118c0,1 -1,2 -1,4 3,3 1,7 4,10 2,7 8,10 13,14 5,4 11,7 19,7 1,1 2,1 3,1 1,0 3,-1 4,-1 2,0 4,0 5,0 0,0 0,0 0,0 0,0 0,0 0,0 3,0 6,-1 8,-2 6,-3 12,-6 16,-11 5,-6 11,-10 11,-19 0,0 0,-1 1,-2 2,-2 0,-4 0,-6 -1,-5 -5,-9 -7,-14 0,-1 -2,-3 -4,-4 -5,-1 -8,-6 -13,-6 0,0 -1,0 -1,0 0,0 0,0 -1,0 0,1 -1,1 -2,1 -1,0 -2,0 -3,-1 -2,-2 -5,-3 -8,-3 0,0 0,0 0,0 0,0 0,0 0,0 -2,0 -4,0 -6,-1 -1,0 -1,0 -1,0 -1,0 -3,1 -4,1 -1,0 -2,1 -3,1 -1,0 -2,0 -2,0 0,0 0,-1 -1,-1 0,0 -1,1 -2,1 -10,4 -18,10 -23,19 0,1 -1,2 -1,3 -1,1 -1,3 -1,5 0,1 -1,2 0,4l0 0z"/>
   </clipPath>
   <clipPath id="id16">
    <path d="M341 469c-1,0 -2,0 -3,-1 -8,0 -14,-3 -19,-7 -5,-4 -11,-7 -13,-14 -3,-3 -1,-7 -4,-10 0,-2 1,-3 1,-4 0,1 0,2 1,3 2,2 4,4 7,4 2,0 4,-1 6,-2 6,-5 13,-11 20,-16 4,-4 6,-9 3,-14 -2,-2 -5,-3 -7,-3 -2,0 -4,0 -6,1 -6,6 -13,11 -20,17 -2,1 -3,3 -4,6 0,-2 0,-4 1,-5 0,-1 1,-2 1,-3 5,-9 13,-15 23,-19 1,0 2,-1 2,-1 1,0 1,1 1,1 0,0 1,0 2,0 1,0 2,-1 3,-1 1,0 3,-1 4,-1 0,0 0,0 1,0 2,1 4,1 6,1 0,0 0,0 0,0 0,0 0,0 0,0 3,0 6,1 8,3 1,1 2,1 3,1 1,0 2,0 2,-1 1,0 1,0 1,0 0,0 1,0 1,0 5,0 8,5 13,6 2,1 4,3 4,4 2,5 6,9 7,14 0,2 2,4 0,6 -1,1 -1,2 -1,2 0,9 -6,13 -11,19 -4,5 -10,8 -16,11 -2,1 -5,2 -8,2 0,0 0,0 0,0 0,0 0,0 0,0 -1,0 -3,0 -5,0 -1,0 -3,1 -4,1l0 0z"/>
   </clipPath>
   <clipPath id="id17">
    <path d="M311 440c-3,0 -5,-2 -7,-4 -1,-1 -1,-2 -1,-3 -1,-2 0,-3 0,-4 1,-3 2,-5 4,-6 7,-6 14,-11 20,-17 2,-1 4,-1 6,-1 2,0 5,1 7,3 3,5 1,10 -3,14 -7,5 -14,11 -20,16 -2,1 -4,2 -6,2l0 0z"/>
   </clipPath>
   <clipPath id="id18">
    <path d="M452 315c-13,0 -13,-19 -1,-19 12,0 12,19 1,19l0 0z"/>
   </clipPath>
   <clipPath id="id19">
    <path d="M265 301c-13,0 -12,-18 -1,-18 12,0 12,18 1,18l0 0z"/>
   </clipPath>
   <clipPath id="id20">
    <path d="M260 480c-5,0 -5,-8 0,-8 5,0 5,8 0,8l0 0z"/>
   </clipPath>
   <clipPath id="id21">
    <path d="M300 501c-5,0 -5,-8 0,-8 5,0 5,8 0,8l0 0z"/>
   </clipPath>
   <clipPath id="id22">
    <path d="M286 542c-5,0 -5,-7 0,-7 5,0 4,7 0,7l0 0z"/>
   </clipPath>
   <clipPath id="id23">
    <path d="M260 512c-5,0 -5,-7 0,-7 5,0 5,7 0,7l0 0z"/>
   </clipPath>
   <clipPath id="id24">
    <path d="M233 528c-5,0 -5,-8 -1,-8 5,0 5,8 1,8l0 0z"/>
   </clipPath>
   <clipPath id="id25">
    <path d="M233 490c-5,0 -5,-7 -1,-7 5,0 5,7 1,7l0 0z"/>
   </clipPath>
   <clipPath id="id26">
    <path d="M253 549c-4,0 -4,-8 0,-8 5,0 5,8 0,8l0 0z"/>
   </clipPath>
   <clipPath id="id27">
    <path d="M375 490c-4,0 -4,-7 0,-7 5,0 5,7 0,7l0 0z"/>
   </clipPath>
   <clipPath id="id28">
    <path d="M375 525c-4,0 -4,-7 0,-7 5,0 5,7 0,7l0 0z"/>
   </clipPath>
   <clipPath id="id29">
    <path d="M399 494c-5,0 -5,-7 0,-7 4,0 4,7 0,7l0 0z"/>
   </clipPath>
   <clipPath id="id30">
    <path d="M407 527c-5,0 -5,-8 -1,-8 5,0 5,8 1,8l0 0z"/>
   </clipPath>
   <clipPath id="id31">
    <path d="M453 521c-5,0 -5,-7 0,-7 5,0 5,7 0,7l0 0z"/>
   </clipPath>
   <clipPath id="id32">
    <path d="M423 498c-4,0 -4,-7 0,-7 5,0 5,7 0,7l0 0z"/>
   </clipPath>
   <clipPath id="id33">
    <path d="M409 463c-5,0 -5,-7 0,-7 5,0 5,7 0,7l0 0z"/>
   </clipPath>
 </defs>
 <g id="Layer_x0020_1">
  <metadata id="CorelCorpID_0Corel-Layer"/>
  <g style="clip-path:url(#id0)">
   <image transform="matrix(0 -1 -1 0 625.606 1180.58)" x="0" y="0" width="89.414" height="627.58" xlink:href="Dog20_Images\Dog20_ImgID1.png"/>
  </g>
  <g style="clip-path:url(#id1)">
   <image transform="matrix(0 -1 -1 0 582.3 912.336)" x="0" y="0" width="198.449" height="83.8081" xlink:href="Dog20_Images\Dog20_ImgID2.png"/>
  </g>
  <g style="clip-path:url(#id2)">
   <image transform="matrix(0 -1 -1 0 523.578 1143.02)" x="0" y="0" width="500" height="414" xlink:href="Dog20_Images\Dog20_ImgID3.png"/>
  </g>
  <g style="clip-path:url(#id3)">
   <image transform="matrix(0 -1 -1 0 562.679 426.026)" x="0" y="0" width="428" height="401" xlink:href="Dog20_Images\Dog20_ImgID4.png"/>
  </g>
  <g style="clip-path:url(#id4)">
   <image transform="matrix(0 -1 -1 0 562.679 688.801)" x="0" y="0" width="329" height="433" xlink:href="Dog20_Images\Dog20_ImgID5.png"/>
  </g>
  <g style="clip-path:url(#id5)">
   <image transform="matrix(0 -1 -1 0 231.371 1120.6)" x="0" y="0" width="233" height="194" xlink:href="Dog20_Images\Dog20_ImgID6.png"/>
  </g>
  <g style="clip-path:url(#id6)">
   <image transform="matrix(0 -1 -1 0 234.174 1141.48)" x="0" y="0" width="72.5963" height="169.018" xlink:href="Dog20_Images\Dog20_ImgID7.png"/>
  </g>
  <g style="clip-path:url(#id7)">
   <image transform="matrix(0 -1 -1 0 596.315 1116.39)" x="0" y="0" width="218" height="194" xlink:href="Dog20_Images\Dog20_ImgID8.png"/>
  </g>
  <g style="clip-path:url(#id8)">
   <image transform="matrix(0 -1 -1 0 538.995 1140.08)" x="0" y="0" width="57.1801" height="138.466" xlink:href="Dog20_Images\Dog20_ImgID9.png"/>
  </g>
  <g style="clip-path:url(#id9)">
   <image transform="matrix(0 -1 -1 0 709.274 247.197)" x="0" y="0" width="203" height="158" xlink:href="Dog20_Images\Dog20_ImgID10.png"/>
  </g>
  <g style="clip-path:url(#id10)">
   <image transform="matrix(0 -1 -1 0 189.467 221.97)" x="0" y="0" width="210" height="149" xlink:href="Dog20_Images\Dog20_ImgID11.png"/>
  </g>
  <g style="clip-path:url(#id11)">
   <image transform="matrix(0 -1 -1 0 477.47 336.471)" x="0" y="0" width="59.9831" height="71.1949" xlink:href="Dog20_Images\Dog20_ImgID12.png"/>
  </g>
  <g style="clip-path:url(#id12)">
   <image transform="matrix(0 -1 -1 0 284.487 333.668)" x="0" y="0" width="64.1875" height="62.786" xlink:href="Dog20_Images\Dog20_ImgID13.png"/>
  </g>
  <g style="clip-path:url(#id13)">
   <image transform="matrix(0 -1 -1 0 290.233 242.852)" x="0" y="0" width="55.7786" height="76.8008" xlink:href="Dog20_Images\Dog20_ImgID14.png"/>
  </g>
  <g style="clip-path:url(#id14)">
   <image transform="matrix(0 -1 -1 0 495.689 233.182)" x="0" y="0" width="36.4383" height="82.4066" xlink:href="Dog20_Images\Dog20_ImgID15.png"/>
  </g>
  <g style="clip-path:url(#id15)">
   <image transform="matrix(0 -1 -1 0 399.268 551.737)" x="0" y="0" width="159" height="106" xlink:href="Dog20_Images\Dog20_ImgID16.png"/>
  </g>
  <g style="clip-path:url(#id16)">
   <image transform="matrix(0 -1 -1 0 389.457 470.592)" x="0" y="0" width="71.1949" height="88.0125" xlink:href="Dog20_Images\Dog20_ImgID17.png"/>
  </g>
  <g style="clip-path:url(#id17)">
   <image transform="matrix(0 -1 -1 0 344.75 441.441)" x="0" y="0" width="37.8398" height="43.4457" xlink:href="Dog20_Images\Dog20_ImgID18.png"/>
  </g>
  <g style="clip-path:url(#id18)">
   <image transform="matrix(0 -1 -1 0 464.857 315.589)" x="0" y="0" width="21.0221" height="26.628" xlink:href="Dog20_Images\Dog20_ImgID19.png"/>
  </g>
  <g style="clip-path:url(#id19)">
   <image transform="matrix(0 -1 -1 0 277.62 302.975)" x="0" y="0" width="22.4236" height="26.628" xlink:href="Dog20_Images\Dog20_ImgID20.png"/>
  </g>
  <g style="clip-path:url(#id20)">
   <image transform="matrix(0 -1 -1 0 266.408 480.402)" x="0" y="0" width="9.81031" height="12.6133" xlink:href="Dog20_Images\Dog20_ImgID21.png"/>
  </g>
  <g style="clip-path:url(#id21)">
   <image transform="matrix(0 -1 -1 0 305.649 501.424)" x="0" y="0" width="9.81031" height="11.2118" xlink:href="Dog20_Images\Dog20_ImgID22.png"/>
  </g>
  <g style="clip-path:url(#id22)">
   <image transform="matrix(0 -1 -1 0 291.635 543.468)" x="0" y="0" width="9.81031" height="12.6133" xlink:href="Dog20_Images\Dog20_ImgID23.png"/>
  </g>
  <g style="clip-path:url(#id23)">
   <image transform="matrix(0 -1 -1 0 266.408 514.037)" x="0" y="0" width="11.2118" height="12.6133" xlink:href="Dog20_Images\Dog20_ImgID24.png"/>
  </g>
  <g style="clip-path:url(#id24)">
   <image transform="matrix(0 -1 -1 0 238.379 529.454)" x="0" y="0" width="9.81031" height="12.6133" xlink:href="Dog20_Images\Dog20_ImgID25.png"/>
  </g>
  <g style="clip-path:url(#id25)">
   <image transform="matrix(0 -1 -1 0 238.379 491.614)" x="0" y="0" width="9.81031" height="12.6133" xlink:href="Dog20_Images\Dog20_ImgID26.png"/>
  </g>
  <g style="clip-path:url(#id26)">
   <image transform="matrix(0 -1 -1 0 259.401 550.476)" x="0" y="0" width="11.2118" height="12.6133" xlink:href="Dog20_Images\Dog20_ImgID27.png"/>
  </g>
  <g style="clip-path:url(#id27)">
   <image transform="matrix(0 -1 -1 0 381.049 491.614)" x="0" y="0" width="9.81031" height="12.6133" xlink:href="Dog20_Images\Dog20_ImgID28.png"/>
  </g>
  <g style="clip-path:url(#id28)">
   <image transform="matrix(0 -1 -1 0 381.049 526.651)" x="0" y="0" width="9.81031" height="12.6133" xlink:href="Dog20_Images\Dog20_ImgID29.png"/>
  </g>
  <g style="clip-path:url(#id29)">
   <image transform="matrix(0 -1 -1 0 404.874 495.818)" x="0" y="0" width="11.2118" height="12.6133" xlink:href="Dog20_Images\Dog20_ImgID30.png"/>
  </g>
  <g style="clip-path:url(#id30)">
   <image transform="matrix(0 -1 -1 0 413.282 528.052)" x="0" y="0" width="9.81031" height="12.6133" xlink:href="Dog20_Images\Dog20_ImgID31.png"/>
  </g>
  <g style="clip-path:url(#id31)">
   <image transform="matrix(0 -1 -1 0 459.251 522.446)" x="0" y="0" width="9.81031" height="12.6133" xlink:href="Dog20_Images\Dog20_ImgID32.png"/>
  </g>
  <g style="clip-path:url(#id32)">
   <image transform="matrix(0 -1 -1 0 429.82 498.621)" x="0" y="0" width="9.81031" height="12.6133" xlink:href="Dog20_Images\Dog20_ImgID33.png"/>
  </g>
  <g style="clip-path:url(#id33)">
   <image transform="matrix(0 -1 -1 0 414.544 463.724)" x="0" y="0" width="9.81031" height="11.2118" xlink:href="Dog20_Images\Dog20_ImgID34.png"/>
  </g>
 </g>
</svg>
