<?xml version="1.0" encoding="UTF-8"?>
<!DOCTYPE svg PUBLIC "-//W3C//DTD SVG 1.1//EN" "http://www.w3.org/Graphics/SVG/1.1/DTD/svg11.dtd">
<!-- Creator: CorelDRAW X7 -->
<svg xmlns="http://www.w3.org/2000/svg" xml:space="preserve" width="1.49108in" height="1.27003in" version="1.1" style="shape-rendering:geometricPrecision; text-rendering:geometricPrecision; image-rendering:optimizeQuality; fill-rule:evenodd; clip-rule:evenodd"
viewBox="0 0 403 344"
 xmlns:xlink="http://www.w3.org/1999/xlink">
 <defs>
  <style type="text/css">
   <![CDATA[
    .fil0 {fill:#4F4138;fill-rule:nonzero}
   ]]>
  </style>
 </defs>
 <g id="_2">
  <metadata id="CorelCorpID_0Corel-Layer"/>
  <g id="_423672014592">
   <g>
    <path class="fil0" d="M205 32c7,-22 26,-36 42,-30 16,5 24,27 17,49 -7,22 -26,35 -42,30 -17,-5 -24,-27 -17,-49z"/>
    <path class="fil0" d="M300 59c-15,-5 -32,8 -39,29 -7,21 0,42 14,47 15,5 32,-9 39,-30 7,-21 0,-42 -14,-46z"/>
    <path class="fil0" d="M175 83c15,-5 22,-27 14,-50 -7,-22 -26,-37 -41,-32 -16,5 -22,27 -14,49 7,23 26,37 41,33z"/>
    <path class="fil0" d="M136 88c-7,-21 -25,-35 -40,-31 -14,5 -20,26 -13,47 7,21 25,35 40,31 14,-4 20,-25 13,-47z"/>
    <path class="fil0" d="M199 87l-3 0c0,0 -62,11 -62,83 0,42 35,24 35,24 0,0 15,-15 27,-15l3 -1c13,0 28,15 28,15 0,0 35,19 35,-23 0,-72 -63,-83 -63,-83z"/>
   </g>
   <path class="fil0" d="M389 267c8,-8 14,-19 14,-32 0,-24 -19,-43 -43,-43 -21,0 -39,22 -42,42l-233 1c-4,-20 -21,-41 -42,-41 -24,0 -43,19 -43,43 0,12 6,24 15,32 -9,8 -15,19 -15,32 0,24 20,43 43,43 21,-1 38,-21 42,-41l234 -1c4,20 21,40 42,40 23,0 42,-19 42,-43 0,-13 -5,-24 -14,-32z"/>
   <polygon class="fil0" points="368,133 359,115 350,133 330,136 345,150 341,170 359,160 377,170 373,150 388,136 "/>
   <polygon class="fil0" points="40,153 58,163 54,143 69,129 49,126 40,108 31,126 11,129 25,143 22,163 "/>
  </g>
 </g>
</svg>
