<?xml version="1.0" encoding="UTF-8"?>
<!DOCTYPE svg PUBLIC "-//W3C//DTD SVG 1.1//EN" "http://www.w3.org/Graphics/SVG/1.1/DTD/svg11.dtd">
<!-- Creator: CorelDRAW X7 -->
<svg xmlns="http://www.w3.org/2000/svg" xml:space="preserve" width="0.870004in" height="0.726236in" version="1.1" style="shape-rendering:geometricPrecision; text-rendering:geometricPrecision; image-rendering:optimizeQuality; fill-rule:evenodd; clip-rule:evenodd"
viewBox="0 0 328 274"
 xmlns:xlink="http://www.w3.org/1999/xlink">
 <defs>
  <style type="text/css">
   <![CDATA[
    .fil0 {fill:#4F4138;fill-rule:nonzero}
   ]]>
  </style>
 </defs>
 <g id="_2">
  <metadata id="CorelCorpID_0Corel-Layer"/>
  <g id="_423672011200">
   <path class="fil0" d="M173 45c10,-31 36,-50 59,-43 22,7 32,38 23,68 -10,31 -36,50 -59,43 -22,-7 -32,-38 -23,-68z"/>
   <path class="fil0" d="M305 81c-20,-6 -44,12 -54,41 -9,30 0,58 20,65 20,6 44,-12 54,-41 9,-29 0,-58 -20,-65z"/>
   <path class="fil0" d="M132 115c21,-7 30,-37 19,-69 -10,-31 -36,-51 -57,-45 -21,7 -30,37 -19,69 10,31 36,51 57,45z"/>
   <path class="fil0" d="M78 122c-11,-30 -35,-49 -55,-43 -21,6 -29,35 -19,65 10,30 35,49 55,43 20,-6 29,-35 19,-65z"/>
   <path class="fil0" d="M166 121l-5 0c0,0 -86,15 -86,114 0,59 48,34 48,34 0,0 21,-21 38,-21l5 -1c17,0 37,21 37,21 0,0 49,26 49,-33 0,-100 -86,-114 -86,-114z"/>
  </g>
 </g>
</svg>
