<?xml version="1.0" encoding="UTF-8"?>
<!DOCTYPE svg PUBLIC "-//W3C//DTD SVG 1.1//EN" "http://www.w3.org/Graphics/SVG/1.1/DTD/svg11.dtd">
<!-- Creator: CorelDRAW X7 -->
<svg xmlns="http://www.w3.org/2000/svg" xml:space="preserve" width="2.11288in" height="1.96718in" version="1.1" style="shape-rendering:geometricPrecision; text-rendering:geometricPrecision; image-rendering:optimizeQuality; fill-rule:evenodd; clip-rule:evenodd"
viewBox="0 0 424 395"
 xmlns:xlink="http://www.w3.org/1999/xlink">
 <defs>
  <style type="text/css">
   <![CDATA[
    .fil0 {fill:#4F4138;fill-rule:nonzero}
   ]]>
  </style>
 </defs>
 <g id="_2">
  <metadata id="CorelCorpID_0Corel-Layer"/>
  <g id="_423658726576">
   <path class="fil0" d="M126 173c0,1 -1,1 -1,2 -1,1 -1,1 -1,2 -1,1 -1,2 -1,3 -1,1 -1,2 -1,2l0 0c0,0 0,0 0,0 0,1 0,1 0,2 0,0 1,0 1,1 0,0 0,0 0,0 1,0 1,1 1,1 1,0 1,-1 2,-1 0,-1 1,-1 1,-2 0,-1 1,-1 1,-2 0,-1 0,-2 0,-2l2 -8c-1,0 -1,0 -2,1 0,0 -1,0 -2,1z"/>
   <path class="fil0" d="M109 177c0,0 1,-1 1,-2 1,0 1,-1 1,-1 0,-1 0,-2 0,-2 -1,-1 -1,-1 -1,-1 -1,0 -2,0 -2,1 0,0 -1,0 -1,1 -1,0 -1,0 -1,1 0,0 0,1 -1,2 0,0 0,1 0,2 0,0 0,0 0,1 0,0 1,0 2,-1 0,0 1,0 2,-1z"/>
   <path class="fil0" d="M281 223c1,-1 1,-2 2,-3 0,-1 1,-2 1,-3 1,-1 1,-2 1,-2 1,-1 1,-2 1,-2 0,0 0,-1 0,-1 0,0 0,0 0,0 -1,-1 -1,-1 -1,-1 0,0 0,0 -1,0 0,0 0,0 -1,1 0,1 -1,2 -1,3 0,1 -1,2 -1,3 0,2 -1,3 -1,4 0,0 0,0 1,0 0,0 0,0 0,1z"/>
   <path class="fil0" d="M171 165c1,-1 1,-2 2,-3 0,-1 1,-2 1,-3 1,-1 1,-1 1,-2 0,-1 1,-2 1,-2 0,0 0,0 0,-1 0,0 -1,0 -1,0 0,0 0,-1 0,-1 0,0 0,0 -1,0 0,0 -1,0 -1,1 0,1 -1,2 -1,3 -1,1 -1,2 -1,4 -1,1 -1,2 -1,3 0,1 0,1 1,1 0,0 0,0 0,0z"/>
   <path class="fil0" d="M187 200c-1,2 -2,3 -2,5 -1,2 0,2 1,2 0,0 0,0 1,0 0,0 0,0 0,0 1,0 1,-1 1,-1 0,0 0,-1 1,-1 0,-1 0,-1 0,-2 0,0 1,-1 1,-2 0,0 0,-1 0,-1 0,-1 0,-2 0,-2 0,-1 1,-2 1,-2 -2,1 -3,2 -4,4z"/>
   <path class="fil0" d="M262 238c1,-1 1,-2 0,-2 0,0 0,-1 0,-1l-4 5 0 0c-1,1 -1,2 -2,2 0,0 0,0 0,0 0,1 1,1 1,1 0,0 1,1 1,1 0,0 1,0 1,0 1,0 2,0 2,0 0,0 1,0 1,-1 0,0 0,-1 0,-1 0,0 1,-1 1,-1 0,-1 -1,-1 -1,-2 0,0 0,-1 0,-1z"/>
   <path class="fil0" d="M185 231c0,-1 0,-1 -1,-1 0,-1 0,-1 -1,-1 0,0 -1,1 -2,1 0,1 -1,1 -1,2 -1,1 -1,2 -1,3 0,1 -1,2 -1,4 0,0 1,1 1,1 0,1 0,2 0,2 1,0 1,1 1,1 1,0 1,0 2,0 0,0 1,0 1,0 1,-1 1,-2 2,-2 0,-1 0,-2 1,-3 0,-2 0,-3 0,-4 0,0 0,-1 0,-2 0,0 0,-1 -1,-1z"/>
   <path class="fil0" d="M422 46c-1,-5 -39,-4 -39,-4 0,0 -4,-19 -32,-19l-5 -20 -12 12 -5 -15c0,0 -55,69 -72,102 -17,32 -108,41 -120,41 -12,0 -71,-5 -50,-35 13,-10 32,19 33,24 2,4 50,11 26,-45 -24,-56 -99,-60 -122,-16 -24,44 12,105 16,108 0,0 -47,46 -11,98 9,14 -21,30 -27,44 -5,13 -3,74 31,74 34,0 20,-33 7,-41 -14,-21 32,-43 39,-50 8,-7 36,-22 34,-52 -1,-13 60,14 79,17 19,3 58,3 65,-4 7,-8 -15,110 24,118 39,8 58,-7 48,-23 -9,-16 -30,-12 -19,-54 11,-43 0,-44 0,-47 -1,-2 59,-60 60,-88 1,-27 -9,-72 26,-87 36,-14 27,-33 26,-38zm-166 118l0 0c3,1 4,5 3,9 -1,4 -4,6 -7,5 -3,-1 -4,-4 -3,-8 2,-4 5,-6 7,-6zm-17 -4l0 0c2,-4 5,-7 8,-6 3,1 4,5 3,9 -1,4 -5,6 -8,5 -3,0 -4,-4 -3,-8zm-1 10l0 0c0,0 12,1 12,14 0,8 -7,5 -7,5 0,0 -2,-3 -5,-3l0 0c-2,0 -5,3 -5,3 0,0 -6,3 -6,-5 0,-13 11,-14 11,-14l0 0zm-9 -16l0 0c3,-1 6,2 8,6 1,4 0,8 -3,9 -3,1 -6,-2 -7,-6 -2,-4 -1,-8 2,-9zm-9 10l0 0c3,-1 6,2 7,6 1,4 0,7 -2,8 -3,1 -6,-2 -7,-5 -2,-4 -1,-8 2,-9zm-127 5l0 0c-2,1 -4,1 -7,1 2,0 3,0 4,1 2,0 3,1 3,2 1,1 2,2 2,3 0,1 1,3 1,4 0,1 0,2 -1,3 0,1 0,2 -1,3 0,1 -1,1 -2,2 -1,1 -2,2 -3,2 -1,1 -2,1 -3,2 -2,0 -3,0 -5,0 -1,0 -2,0 -3,0 -1,0 -2,0 -3,0 -2,-1 -3,-1 -4,-1 -1,0 -2,-1 -3,-1 0,0 -1,0 -1,-1 -1,0 -1,0 -1,-1 0,-2 0,-5 0,-8 1,-3 1,-5 1,-8 1,-3 1,-5 2,-7 1,-2 2,-4 3,-6 1,-1 2,-1 3,-1 1,0 2,1 3,2 -1,1 -2,2 -2,3 -1,1 -1,2 -1,3 0,1 -1,3 -1,4 0,1 0,3 0,4 -1,1 -1,2 -1,2 0,1 0,2 0,3 0,1 0,2 0,3 0,1 0,1 0,2 0,0 0,1 0,1 0,0 0,0 0,0 0,1 0,1 0,1 0,0 0,1 1,1 1,0 2,0 3,0 1,1 2,1 3,1 1,0 3,0 4,-1 1,0 2,-1 3,-1 1,-1 2,-2 3,-3 0,-1 0,-3 0,-4 0,-1 0,-2 0,-3 0,0 -1,-1 -1,-1 -1,-1 -2,-1 -2,-1 -1,0 -2,-1 -3,-1 0,0 -1,0 -2,0 0,-1 -1,-1 -2,-1 0,0 -1,-1 -1,-1 0,-1 -1,-1 -1,-2 0,0 0,-1 1,-1 0,0 0,0 0,0 0,-1 0,-1 0,-1 1,0 1,0 2,0 0,0 1,0 1,0 1,0 2,0 2,0 2,0 3,0 4,0 2,-1 3,-1 3,-2 1,0 2,-1 2,-2 1,-1 1,-2 1,-3 0,0 0,-1 0,-1 -1,-1 -1,-1 -2,-2 -1,0 -1,-1 -2,-1 -1,0 -2,-1 -3,-1 -1,0 -2,0 -3,0 -1,0 -3,0 -4,0 -2,0 -3,0 -4,0 -2,0 -3,0 -4,1 -2,0 -3,0 -4,1 -1,0 -1,1 -2,2 -1,2 -2,3 -3,4 0,1 -1,1 -2,1 0,0 -1,-1 -1,-2 0,-2 1,-3 1,-4 1,-2 1,-3 2,-4 1,0 2,-1 3,-2 1,-1 2,-1 3,-2 2,0 3,0 4,-1 2,0 3,0 5,0 2,0 3,0 5,1 2,0 4,0 5,1 2,0 4,1 5,1 1,1 3,2 4,3 1,0 2,1 2,2 1,1 1,2 1,3 0,1 0,2 -1,4 0,1 -1,2 -2,3 -1,1 -3,2 -4,2zm24 59l0 0c-2,0 -6,-2 -7,-6 -1,-4 0,-7 2,-8 3,-1 6,1 8,5 1,4 0,8 -3,9zm5 -24l0 0c2,-1 6,1 7,5 1,5 0,8 -2,9 -3,1 -7,-1 -8,-6 -1,-4 0,-8 3,-8zm14 34l0 0c0,0 -3,-3 -5,-3l-1 0c-2,0 -5,3 -5,3 0,0 -6,3 -6,-4 0,-13 11,-15 11,-15l1 0c0,0 11,2 11,15 0,7 -6,4 -6,4zm-4 -29l0 0c1,-4 5,-6 7,-5 3,1 5,5 3,9 -1,4 -4,6 -7,5 -3,-1 -4,-5 -3,-9zm19 13l0 0c-1,4 -4,6 -7,6 -2,-1 -3,-5 -2,-9 1,-3 4,-6 7,-5 2,1 4,5 2,8zm3 -33l0 0c-1,0 -1,0 -1,-1 -1,0 -1,0 -1,-1 0,-1 -1,-1 -1,-2 0,1 -1,1 -2,2 0,1 -1,1 -1,2 -1,0 -2,0 -2,1 -1,0 -2,0 -2,0 -1,0 -1,0 -2,0 0,0 -1,-1 -1,-1 0,0 -1,-1 -1,-2 0,0 0,0 0,0 0,0 -1,1 -1,1 -1,1 -1,1 -2,1 -1,1 -2,1 -3,1 -1,0 -2,0 -3,-1 0,-1 -1,-1 -1,-3 -1,1 -1,1 -2,2 0,0 -1,0 -2,1 0,0 -1,0 -2,1 0,0 -1,0 -2,0 -1,0 -1,0 -2,0 -1,-1 -1,-1 -2,-2 0,0 -1,-1 -1,-1 0,0 -1,0 -1,1 -1,0 -2,0 -3,1 0,0 -1,0 -2,1 -1,0 -2,0 -3,0 -1,0 -3,0 -4,-1 -1,0 -2,-1 -3,-2 0,-1 -1,-2 -1,-3 -1,-1 -1,-3 -1,-4 0,-1 0,-2 1,-3 0,-1 0,-2 1,-3 0,-1 0,-2 1,-3 1,-1 1,-2 2,-2 1,-1 1,-1 2,-2 1,0 2,0 3,0 1,0 2,0 3,0 0,0 1,1 2,1 0,1 1,1 1,2 0,1 0,2 0,3 0,1 0,2 -1,3 0,1 -1,2 -2,3 -1,1 -2,1 -3,2 -1,1 -2,1 -4,2 1,0 1,0 1,1 0,0 1,0 1,0 0,0 0,1 1,1 0,0 0,0 0,0 1,0 2,0 3,-1 1,0 2,-1 3,-1 1,-1 2,-1 2,-2 1,0 1,-1 1,-1 0,-2 1,-3 1,-4 1,-2 2,-3 3,-4 0,-1 1,-2 2,-3 1,-1 2,-1 3,-2 1,0 2,0 3,0 1,0 1,0 1,0 0,0 1,0 1,0 0,1 0,1 0,1 0,0 0,0 1,0 0,0 0,0 0,0 0,0 1,0 1,0 0,0 0,0 0,0 1,0 1,0 1,0 0,0 0,0 1,1 0,0 0,0 0,0 0,0 0,0 0,1 1,0 1,0 1,1 0,0 0,1 -1,2 0,1 0,2 0,3 0,1 -1,2 -1,3 0,1 0,3 0,3 0,1 0,2 0,2 0,0 0,1 1,1 0,0 0,0 1,-1 0,0 1,0 1,0 0,0 1,-1 1,-1 0,0 1,-1 1,-1 0,-1 1,-1 1,-1 0,-1 0,-1 0,-1 1,-2 1,-4 2,-7 0,0 0,-1 0,-1 0,0 0,-1 0,-1 0,-1 0,-1 1,-2 0,0 0,-1 0,-1 1,0 1,-1 1,-1 1,0 1,0 2,0 1,0 1,0 2,0 0,0 0,0 0,1 0,1 0,2 0,3 0,1 -1,2 -1,3 0,1 0,2 0,3 -1,1 -1,2 -1,3 0,1 0,1 0,2 0,0 0,1 0,1 0,0 0,0 0,0 0,1 0,1 0,1 0,0 0,0 0,1 1,0 1,0 1,0 0,0 1,0 1,0 0,-1 1,-1 1,-1 0,-1 1,-1 1,-2 0,0 0,-1 0,-1l3 -13c0,0 0,-1 1,-1 1,0 1,0 2,0 1,0 1,0 2,0 0,0 0,1 0,1 0,0 0,1 0,2 0,1 0,1 0,2 0,1 0,2 -1,3 0,2 0,3 0,3 0,1 0,2 0,2 -1,1 -1,2 -1,2 0,0 0,1 0,1 0,0 0,1 0,1 1,0 1,0 1,1 0,0 0,0 0,0 1,0 1,0 2,0 0,-1 1,-1 1,-1 1,0 1,-1 2,-1 1,0 1,-1 2,-1 0,-1 0,-1 1,-1 -1,-2 -1,-4 -1,-7 0,-1 0,-2 0,-3 0,-1 1,-2 1,-3 -1,0 -1,0 -1,0 -1,0 -1,0 -1,0 -1,0 -1,0 -1,0 -1,0 -1,-1 -2,-1 -1,0 -1,0 -1,0 0,0 -1,0 -1,-1 0,0 0,0 0,0 0,0 0,-1 0,-1 0,0 0,0 1,0 0,0 0,0 1,-1 0,0 1,0 1,0 1,0 2,0 2,0 1,0 1,0 2,0 0,0 0,0 0,0 1,-2 1,-4 2,-6 1,-2 1,-4 2,-5 1,-2 2,-3 3,-4 1,-1 2,-1 3,-1 1,0 1,0 2,0 0,1 1,1 1,2 0,1 1,1 1,2 0,1 0,2 0,3 0,0 0,1 0,2 0,1 -1,2 -1,3 0,1 -1,1 -1,2 -1,1 -1,2 -2,3 0,0 1,0 1,0 0,0 1,0 1,0 0,0 1,0 1,0 1,0 1,0 2,0 0,0 1,0 1,0 1,0 1,0 1,0 1,0 1,0 1,1 0,0 0,0 0,1 0,1 0,1 0,1 -1,1 -1,1 -1,1l-9 0c-1,1 -1,1 -2,2 0,0 -1,1 -1,1 0,1 0,2 0,3 0,1 0,1 0,2 0,0 0,0 0,1 0,0 0,1 0,1 0,0 0,1 0,1 0,1 0,2 0,2 0,1 0,1 0,2 1,0 1,0 2,0 0,1 0,1 1,1 0,0 1,0 1,0 1,-1 1,-1 2,-1 0,0 1,-1 2,-1 0,0 1,-1 2,-1 0,0 0,0 0,0 0,-1 0,-2 0,-2 0,-2 0,-3 1,-5 0,-1 0,-3 1,-4 0,0 1,-1 1,-2 0,-1 1,-2 2,-2 0,0 1,-1 2,-1 0,0 1,1 1,1 0,0 1,0 1,1 0,0 0,0 0,1 -1,0 -1,0 -1,0 0,1 0,2 0,3 -1,1 -1,2 -1,4 0,2 -1,3 -1,4 0,1 0,2 0,2 0,1 0,1 0,2 0,0 0,0 0,1 0,0 1,0 1,0 0,0 0,1 1,1 0,0 1,-1 1,-1 1,-1 1,-1 1,-2 1,-1 1,-1 1,-2 0,-1 1,-2 1,-2l2 -9c0,0 0,-1 0,-1 1,-1 1,-1 1,-1 1,-1 1,-1 2,-1 0,0 1,0 1,0 0,0 1,0 1,0 1,0 1,1 1,1 0,0 0,0 0,1 0,0 -1,1 -1,1 0,1 0,2 0,3 0,1 0,2 -1,3 0,2 0,3 0,4 -1,3 -1,5 -2,8 1,0 1,-1 2,-1 0,-1 1,-1 2,-2 0,0 1,-1 2,-2 1,-1 2,-2 3,-4l1 5c0,1 -1,1 -1,2 -1,0 -1,1 -2,1 0,1 -1,2 -1,2 0,0 -1,0 -2,1 0,0 -1,1 -3,2 -1,1 -1,1 -1,2 0,1 0,2 -1,4 0,1 0,1 0,1 0,1 0,2 0,2 0,1 0,2 -1,3 0,1 0,1 0,2 -1,1 -1,2 -1,2 -1,1 -2,2 -2,2 -1,1 -1,1 -2,1 -1,1 -2,1 -3,1 -1,0 -1,0 -2,0 -1,-1 -1,-1 -2,-1 -1,-1 -1,-1 -1,-2 -1,0 -1,-1 -1,-2 0,-2 0,-3 1,-5 1,-1 1,-2 2,-2 0,-1 0,-1 1,-2 0,-1 1,-2 1,-2 1,-1 2,-2 3,-3 1,-1 2,-2 2,-3l1 -2c-1,0 -2,1 -3,1 -1,1 -1,1 -2,1 -1,0 -2,0 -3,0 0,-1 -1,-1 -1,-2 -1,0 -1,-1 -2,-2 0,1 -1,1 -1,1 -1,1 -2,1 -3,2 -1,0 -2,0 -3,1 0,0 -1,0 -1,0 -2,0 -3,0 -4,-1 -1,-1 -1,-2 -2,-3 0,0 0,-1 0,-1 0,0 -1,0 -1,1 -1,0 -1,0 -2,1 0,0 -1,1 -2,1 -1,0 -1,1 -2,1 -1,0 -1,0 -2,1 -1,0 -1,0 -2,0 0,0 -1,0 -1,-1zm126 51l0 0c0,1 0,1 1,2 0,0 0,0 1,0 0,1 1,1 1,1 1,0 1,0 1,-1 1,0 1,0 2,0 1,-1 1,-1 2,-1 1,-1 1,-1 2,-1 0,-1 1,-1 2,-2 0,0 1,-1 1,-1l0 6c-1,1 -3,1 -4,2 -1,1 -2,1 -3,2 -1,0 -2,0 -2,1 -1,0 -2,0 -2,0 -2,0 -3,0 -3,-1 -1,-1 -2,-2 -3,-3 0,-1 0,-1 0,-1 -1,1 -2,1 -3,2 -2,1 -3,1 -4,2 -2,0 -3,0 -5,1 -1,0 -2,0 -4,0 -1,0 -1,0 -2,0 -1,0 -2,-1 -2,-1 -1,0 -1,-1 -2,-1 0,-1 0,-1 0,-2 -1,1 -2,1 -3,1 0,1 -1,1 -2,2 -1,0 -2,0 -3,1 -1,0 -2,0 -2,0 -2,0 -3,0 -4,-1 -1,0 -2,-1 -3,-2 0,-1 -1,-1 -1,-2 -1,1 -2,1 -3,2 -1,1 -2,1 -3,2 -1,0 -2,0 -2,1 -1,0 -2,0 -2,0 -1,0 -2,0 -3,-1 -1,-1 -2,-2 -3,-3 0,0 0,-1 0,-1l0 0c0,1 -1,1 -2,2 -2,1 -3,1 -4,2 -1,0 -2,0 -2,1 -1,0 -2,0 -3,0 0,0 -1,-1 -2,-2 0,-1 -1,-3 -1,-5 0,-1 0,-2 0,-3 1,-2 1,-3 1,-4l0 0 -7 12c0,1 0,1 -1,2 0,0 0,0 -1,0 -1,0 -1,0 -2,-1 0,0 0,0 0,-1 -1,0 -1,-1 -1,-1 0,-1 0,-1 0,-2 0,-1 0,-2 0,-4 0,-1 0,-2 1,-4 0,0 0,0 0,0 -1,-1 -2,-1 -2,-2 -1,-1 -2,-2 -3,-2 0,-1 -1,-1 -2,-2l0 1c1,1 1,2 1,3 0,1 1,2 1,3 0,1 -1,2 -1,3 0,1 0,2 -1,3 0,0 -1,1 -1,2 -1,1 -1,2 -2,2 -1,1 -1,1 -2,1 -1,1 -2,1 -3,1 -1,0 -3,0 -4,-1 -1,-1 -1,-1 -2,-2 0,-1 -1,-2 -1,-3 0,1 -1,1 -1,1 0,1 -1,2 -2,2 0,1 -1,1 -2,2 -1,0 -1,0 -2,1 -1,0 -2,0 -3,0 -1,0 -2,0 -4,-1 -1,0 -2,-1 -2,-2 -1,-1 -2,-2 -2,-3 0,-1 -1,-3 -1,-4 0,-1 1,-2 1,-3 0,-1 1,-2 1,-3 0,-1 1,-2 1,-3 1,-1 1,-2 2,-2 1,-1 2,-2 3,-2 0,0 1,-1 3,-1 0,0 1,1 2,1 1,0 2,1 2,1 1,0 1,1 2,2 0,0 0,1 0,2 0,0 0,1 0,1 0,1 -1,2 -1,2 0,1 -1,1 -1,2 -1,0 -1,0 -2,0 -1,0 -1,0 -1,0 -1,-1 -1,-2 -1,-2 0,0 1,-1 1,-2 0,0 0,0 0,-1 0,0 0,0 0,-1 0,0 -1,0 -1,0 0,0 -1,0 -1,0 -1,1 -1,1 -2,2 0,0 0,1 -1,2 0,1 0,1 0,2 0,1 0,1 -1,2 0,0 0,1 0,1 0,1 1,1 1,2 0,1 0,1 0,2 1,0 1,1 1,1 1,0 2,0 2,0 1,0 2,0 3,0 1,-1 2,-1 3,-2 0,-1 1,-2 2,-2 0,0 0,0 0,-1 0,0 0,0 0,0 0,-2 0,-4 1,-6 0,-1 1,-3 2,-4 1,-1 2,-2 4,-2 1,-1 3,-1 4,-1 2,0 3,0 5,0 1,1 2,2 3,2 1,1 2,2 3,3 1,1 1,1 1,1 0,0 0,0 0,0 1,-2 1,-3 1,-4 0,-1 0,-1 1,-2 0,0 1,0 2,0 1,0 1,0 2,0 0,1 0,2 0,2 0,1 0,1 0,1 0,1 0,1 0,2 0,0 0,1 0,1 0,1 0,1 0,2 -1,1 -1,1 -1,1 0,1 0,1 0,1l1 0c0,0 0,0 0,-1 0,0 1,-1 1,-1 0,-1 0,-2 1,-2 0,-1 0,-1 1,-2 0,0 0,-1 0,-1 1,-1 1,-1 1,-1 0,-1 1,-2 2,-2 0,0 1,0 2,0 1,0 1,0 2,1 0,0 0,1 0,2 0,1 0,1 0,1 0,1 0,1 0,2 0,0 0,1 0,2 -1,1 -1,2 -1,2 0,1 0,2 0,2 0,1 0,2 0,2 0,1 0,2 0,3 0,0 1,1 1,1 1,0 1,0 1,-1 1,0 1,0 1,0 1,-1 1,-1 1,-1 0,0 1,0 2,-1 0,0 1,-1 2,-1 0,-2 0,-4 0,-7 0,-1 0,-2 0,-3 0,-1 0,-2 0,-3 0,0 -1,0 -1,0 0,0 -1,0 -1,0 0,0 -1,0 -1,-1 0,0 -1,0 -2,0 0,0 -1,0 -1,0 0,0 0,0 0,-1 0,0 0,0 0,0 0,0 0,-1 0,-1 0,0 0,0 0,0 0,-1 1,-1 1,-1 1,0 1,0 2,0 0,0 1,0 1,0 1,0 1,0 2,0 0,0 1,0 1,0 0,-2 1,-4 1,-6 1,-2 2,-4 2,-5 1,-2 2,-3 3,-4 1,-1 2,-1 3,-1 1,0 1,0 2,0 1,1 1,1 1,2 1,0 1,1 1,2 1,1 1,2 1,3 0,0 0,1 -1,2 0,1 0,2 -1,3 0,0 0,1 -1,2 0,1 -1,2 -2,3 1,0 1,0 1,0 1,0 1,0 1,0 1,0 1,0 2,0 0,0 1,0 1,0 1,0 1,0 2,0 0,0 0,0 1,0 0,0 0,0 0,1 0,0 0,0 0,1 0,0 0,1 0,1 0,1 -1,1 -1,1l-9 0c-1,0 -1,1 -2,2 0,0 0,1 -1,1 0,1 0,2 0,3 0,1 0,1 0,1 0,1 0,1 0,2 0,0 0,1 0,1 0,0 0,1 0,1 0,1 0,2 0,2 0,1 0,1 1,2 0,0 0,0 1,0 0,1 1,1 1,1 1,0 1,0 2,-1 0,0 1,0 1,0 1,-1 1,-1 2,-1 1,-1 1,-1 2,-1 0,-1 1,-1 1,-1 0,0 0,-1 0,-1 0,-1 0,-2 0,-3 1,-1 1,-2 1,-3 1,-1 1,-2 2,-3 0,-1 1,-2 1,-2 1,-1 2,-1 3,-2 1,0 2,0 3,0 1,0 1,0 2,0 1,0 2,1 2,1 1,1 1,1 1,2 1,1 1,2 1,2 0,1 0,3 -1,4 -1,1 -1,2 -2,3 -1,1 -2,1 -3,2 -1,1 -3,1 -4,2 0,0 0,0 1,1 0,0 0,0 0,0 1,0 1,0 1,1 0,0 1,0 1,0 1,0 2,-1 3,-1 1,0 2,-1 3,-1 1,-1 2,-1 3,-2 0,0 0,-1 1,-1 0,0 1,-1 1,-1 0,0 1,-1 1,-2 1,0 1,-1 2,-1 0,-1 0,-1 1,-2 0,0 1,-1 2,-2 0,-1 1,-2 2,-3 0,0 0,-1 1,-1 0,0 0,-1 1,-1 0,0 0,0 1,0 0,0 0,0 1,0 1,0 1,0 1,0 1,0 1,0 1,0 1,1 1,1 1,1 0,0 0,1 0,1 0,0 0,1 -1,1 0,1 0,1 -1,1 0,1 0,1 -1,2 0,0 0,0 0,0 0,1 0,1 0,2 0,0 0,1 0,1 0,0 0,1 1,1 0,1 0,1 0,2 0,0 0,1 0,2 0,1 0,2 0,3 0,0 1,-1 2,-1 0,0 1,-1 2,-1 0,0 1,-1 2,-1 0,0 1,0 1,-1 0,-2 -1,-4 -1,-6 0,-1 0,-2 1,-3 0,-1 0,-2 0,-3 -1,0 -1,0 -1,0 0,0 -1,0 -1,0 0,0 -1,0 -1,-1 -1,0 -1,0 -2,0 -1,0 -1,0 -1,0 0,0 0,0 0,-1 -1,0 -1,0 -1,0 0,0 0,-1 0,-1 0,0 1,0 1,0 0,-1 1,-1 1,-1 0,0 1,0 2,0 0,0 1,0 1,0 1,0 1,0 2,0 0,0 0,0 1,0 0,-2 0,-4 1,-6 1,-2 2,-4 2,-5 1,-2 2,-3 3,-4 1,-1 2,-1 3,-1 1,0 1,0 2,0 0,1 1,1 1,2 1,0 1,1 1,2 0,1 0,2 0,3 0,0 0,1 0,2 0,1 0,2 -1,3 0,0 -1,1 -1,2 -1,1 -1,2 -2,3 0,0 1,0 1,0 0,0 1,0 1,0 1,0 1,0 2,0 0,0 1,0 1,0 0,0 1,0 1,0 1,0 1,0 1,0 1,0 1,0 1,1 0,0 0,0 0,1 0,0 0,1 0,1 -1,1 -1,1 -1,1l-9 0c-1,0 -1,1 -2,2 0,0 -1,1 -1,1 0,1 0,2 0,3 0,1 0,1 0,1 0,1 0,1 0,2 0,0 0,1 0,1 0,0 0,1 0,1 0,1 0,2 0,2z"/>
   <path class="fil0" d="M244 235c1,0 1,-1 2,-2 0,0 1,-1 1,-1 0,-1 -1,-2 -1,-2 0,-1 0,-1 -1,-1 0,0 -1,0 -1,1 -1,0 -1,0 -2,0 0,1 0,1 0,2 -1,0 -1,1 -1,2 0,0 -1,1 -1,1 0,1 0,1 0,2 1,0 2,0 2,-1 1,0 2,0 2,-1z"/>
   <path class="fil0" d="M226 223c0,-1 1,-2 1,-3 1,-1 1,-2 1,-3 1,-1 1,-2 1,-2 1,-1 1,-2 1,-2 0,0 0,-1 0,-1 0,0 0,0 0,0 0,-1 -1,-1 -1,-1 0,0 0,0 0,0 -1,0 -1,0 -2,1 0,1 0,2 -1,3 0,1 -1,2 -1,3 0,2 -1,3 -1,4 0,0 1,0 1,0 0,0 0,0 1,1z"/>
  </g>
 </g>
</svg>
