<?xml version="1.0" encoding="UTF-8"?>
<!DOCTYPE svg PUBLIC "-//W3C//DTD SVG 1.1//EN" "http://www.w3.org/Graphics/SVG/1.1/DTD/svg11.dtd">
<!-- Creator: CorelDRAW X7 -->
<svg xmlns="http://www.w3.org/2000/svg" xml:space="preserve" width="0.816421in" height="0.816413in" version="1.1" style="shape-rendering:geometricPrecision; text-rendering:geometricPrecision; image-rendering:optimizeQuality; fill-rule:evenodd; clip-rule:evenodd"
viewBox="0 0 73 73"
 xmlns:xlink="http://www.w3.org/1999/xlink">
 <defs>
  <style type="text/css">
   <![CDATA[
    .fil0 {fill:#4F4138;fill-rule:nonzero}
   ]]>
  </style>
 </defs>
 <g id="_2">
  <metadata id="CorelCorpID_0Corel-Layer"/>
  <g id="_423753166656">
   <path class="fil0" d="M65 14c-6,7 -15,15 -29,15 -15,0 -24,-9 -28,-15 -5,6 -8,14 -8,22 0,8 3,16 7,22 4,-6 13,-16 29,-16 14,0 24,9 30,16 4,-6 7,-13 7,-22 0,-8 -3,-16 -8,-22z"/>
   <path class="fil0" d="M12 10c4,6 12,12 24,12 11,0 19,-6 25,-13 -7,-5 -15,-9 -25,-9 -9,0 -18,4 -24,10z"/>
   <path class="fil0" d="M36 49c-13,0 -21,7 -25,13 6,7 15,11 25,11 10,0 19,-4 25,-10 -5,-7 -13,-14 -25,-14z"/>
  </g>
 </g>
</svg>
