<?xml version="1.0" encoding="UTF-8"?>
<!DOCTYPE svg PUBLIC "-//W3C//DTD SVG 1.1//EN" "http://www.w3.org/Graphics/SVG/1.1/DTD/svg11.dtd">
<!-- Creator: CorelDRAW X7 -->
<svg xmlns="http://www.w3.org/2000/svg" xml:space="preserve" width="1.2303in" height="1.03206in" version="1.1" style="shape-rendering:geometricPrecision; text-rendering:geometricPrecision; image-rendering:optimizeQuality; fill-rule:evenodd; clip-rule:evenodd"
viewBox="0 0 330 277"
 xmlns:xlink="http://www.w3.org/1999/xlink">
 <defs>
  <style type="text/css">
   <![CDATA[
    .fil0 {fill:#4F4138;fill-rule:nonzero}
   ]]>
  </style>
 </defs>
 <g id="_2">
  <metadata id="CorelCorpID_0Corel-Layer"/>
  <path class="fil0" d="M304 22c-65,-59 -139,21 -139,21l0 0c0,0 -74,-80 -139,-21 -64,59 -8,195 139,254l0 1c147,-59 203,-196 139,-255zm-130 76l0 0c4,-14 17,-23 27,-20 11,3 16,18 11,32 -4,15 -17,24 -27,21 -11,-4 -16,-18 -11,-33zm-38 -21l0 0c10,-3 22,7 27,22 5,15 1,29 -9,33 -10,3 -22,-7 -27,-22 -5,-15 -1,-29 9,-33zm-17 89l0 0c-9,3 -21,-6 -26,-20 -5,-15 -1,-28 9,-31 10,-3 21,6 26,20 5,14 1,28 -9,31zm69 39l0 0c0,0 -10,-10 -18,-10l-2 0c-8,0 -18,10 -18,10 0,0 -23,12 -23,-16 0,-48 41,-54 41,-54l2 0c0,0 41,6 41,54 0,28 -23,16 -23,16zm58 -59l0 0c-5,14 -16,23 -26,20 -9,-3 -14,-17 -9,-31 4,-14 16,-22 25,-19 10,3 14,16 10,30z"/>
 </g>
</svg>
