<?xml version="1.0" encoding="UTF-8"?>
<!DOCTYPE svg PUBLIC "-//W3C//DTD SVG 1.1//EN" "http://www.w3.org/Graphics/SVG/1.1/DTD/svg11.dtd">
<!-- Creator: CorelDRAW X7 -->
<svg xmlns="http://www.w3.org/2000/svg" xml:space="preserve" width="3.78346in" height="3.78333in" version="1.1" style="shape-rendering:geometricPrecision; text-rendering:geometricPrecision; image-rendering:optimizeQuality; fill-rule:evenodd; clip-rule:evenodd"
viewBox="0 0 4541 4541"
 xmlns:xlink="http://www.w3.org/1999/xlink">
 <defs>
  <style type="text/css">
   <![CDATA[
    .fil0 {fill:#4F4138;fill-rule:nonzero}
   ]]>
  </style>
 </defs>
 <g id="_2">
  <metadata id="CorelCorpID_0Corel-Layer"/>
  <g id="_423661121568">
   <g>
    <path class="fil0" d="M2068 766c12,-24 17,-53 17,-81 0,-10 4,-12 11,-6l23 22c7,6 20,8 28,4l9 -3c8,-4 11,-14 6,-22 -60,-92 -115,-115 -142,-121 -10,-2 -25,-3 -35,-2 -52,5 -114,49 -139,102 -66,136 -48,226 13,256 61,30 143,-12 209,-149z"/>
    <path class="fil0" d="M2695 659c-25,-53 -87,-97 -139,-102 -10,-1 -25,0 -34,2 -27,6 -83,29 -143,121 -5,8 -2,18 6,22l9 3c8,4 21,2 28,-4l23 -22c7,-6 11,-4 11,6 0,28 5,57 17,81 66,137 148,179 209,149 61,-30 79,-120 13,-256z"/>
    <path class="fil0" d="M2265 1453l6 0c-1,0 -2,0 -3,0 -1,0 -2,0 -3,0z"/>
    <path class="fil0" d="M2330 1296c-17,1 -44,2 -66,2 -15,1 -41,-1 -58,-2 -10,-1 -18,6 -18,16 -2,41 2,143 80,141 78,2 82,-100 80,-141 0,-10 -9,-17 -18,-16z"/>
    <path class="fil0" d="M2509 888c-21,-26 -44,-60 -65,-107 -4,-7 -7,-16 -9,-24 -4,-14 -10,-22 -14,-17 -5,4 -28,-1 -51,-13 -24,-11 -39,-26 -34,-33l8 -13c6,-9 12,-18 17,-26 10,-14 -5,-47 -36,-74 -31,-26 -82,-26 -112,0 -30,27 -44,60 -34,74 6,8 12,17 17,26 0,0 4,6 9,13 5,7 -11,22 -34,33 -23,12 -46,17 -51,13 -5,-5 -10,3 -14,17 -3,8 -6,17 -9,24 -22,47 -45,82 -67,108 -46,53 -113,89 -119,117 -3,17 -5,34 -5,50 0,132 71,194 176,221 91,23 170,-15 170,-55l0 -74c0,-19 -14,-41 -30,-53 -12,-8 -22,-18 -24,-25 0,-3 0,-6 2,-8 1,-1 2,-2 3,-2 3,-1 20,-6 39,-7 8,-1 17,-1 25,-1l2 0c8,0 17,0 25,1 19,1 36,6 38,7 2,0 3,1 4,2 2,2 2,5 2,8 -2,7 -13,17 -25,25 -15,11 -29,34 -29,53 0,0 0,33 0,74 0,40 78,78 170,55 105,-27 175,-89 175,-221 0,-17 -1,-34 -4,-51 -5,-28 -71,-65 -116,-117zm-318 13l0 0c-13,0 -24,-10 -24,-23 0,-13 11,-23 24,-23 12,0 23,10 23,23 0,13 -11,23 -23,23zm173 0l0 0c-13,0 -24,-10 -24,-23 0,-13 11,-23 24,-23 12,0 23,10 23,23 0,13 -11,23 -23,23z"/>
   </g>
   <path class="fil0" d="M1591 2148c0,-90 -73,-162 -163,-162 -80,0 -147,58 -160,134l-392 0c-13,-76 -80,-134 -160,-134 -90,0 -163,72 -163,162 0,49 22,93 56,122 -34,30 -56,74 -56,123 0,89 73,162 163,162 79,0 144,-55 159,-129l394 0c15,74 81,129 159,129 90,0 163,-73 163,-162 0,-49 -21,-93 -55,-123 34,-29 55,-73 55,-122z"/>
   <g>
    <path class="fil0" d="M2300 3124c30,-96 111,-155 181,-132 70,22 102,117 72,212 -31,96 -112,155 -182,132 -70,-22 -102,-117 -71,-212z"/>
    <path class="fil0" d="M2709 3238c-63,-20 -138,37 -167,129 -29,91 -1,181 62,201 63,20 138,-37 167,-128 29,-91 2,-182 -62,-202z"/>
    <path class="fil0" d="M2170 3343c67,-21 94,-116 61,-214 -33,-98 -113,-161 -180,-141 -66,21 -93,116 -60,214 33,98 113,161 179,141z"/>
    <path class="fil0" d="M2000 3366c-31,-93 -108,-153 -171,-134 -63,19 -89,110 -57,203 31,92 108,152 171,133 63,-19 89,-110 57,-202z"/>
    <path class="fil0" d="M2275 3363l-14 0c0,0 -270,45 -268,356 -1,183 151,104 151,104 0,0 64,-65 117,-65l14 -2c54,0 118,65 118,65 0,0 152,80 151,-102 1,-312 -269,-356 -269,-356z"/>
   </g>
   <path class="fil0" d="M4019 2296l-326 -26 -109 -10 -13 -161c75,-38 111,-141 80,-244 -33,-113 -133,-183 -224,-156 -90,27 -137,140 -103,253 16,55 48,99 87,128l18 188 -189 -17c-29,-39 -74,-70 -129,-87 -113,-33 -226,13 -253,104 -27,90 43,191 156,224 103,31 206,-5 243,-80l162 13 6 85 16 230c23,139 179,103 179,103l-17 -333 -3 -71 63 3 0 1 230 16c140,-3 126,-163 126,-163zm-850 60l0 0c-11,44 -68,66 -128,51 -59,-15 -99,-62 -88,-105 11,-43 68,-66 128,-51 59,15 99,62 88,105zm241 -434l0 0c-15,-60 8,-117 51,-128 43,-11 90,29 105,88 15,60 -8,117 -51,128 -43,11 -90,-29 -105,-88z"/>
   <path class="fil0" d="M2271 4541c-1252,0 -2271,-1019 -2271,-2270 0,-1252 1019,-2271 2271,-2271 1251,0 2270,1019 2270,2271 0,1251 -1019,2270 -2270,2270zm0 -4403l0 0c-1176,0 -2133,957 -2133,2133 0,1175 957,2132 2133,2132 1175,0 2132,-957 2132,-2132 0,-1176 -957,-2133 -2132,-2133z"/>
   <polygon class="fil0" points="3592,991 3533,932 2254,2211 974,932 915,991 2195,2270 915,3550 974,3609 2254,2329 3533,3609 3592,3550 2313,2270 "/>
  </g>
 </g>
</svg>
