<?xml version="1.0" encoding="UTF-8"?>
<!DOCTYPE svg PUBLIC "-//W3C//DTD SVG 1.1//EN" "http://www.w3.org/Graphics/SVG/1.1/DTD/svg11.dtd">
<!-- Creator: CorelDRAW X7 -->
<svg xmlns="http://www.w3.org/2000/svg" xml:space="preserve" width="1.47583in" height="1.47583in" version="1.1" style="shape-rendering:geometricPrecision; text-rendering:geometricPrecision; image-rendering:optimizeQuality; fill-rule:evenodd; clip-rule:evenodd"
viewBox="0 0 320 320"
 xmlns:xlink="http://www.w3.org/1999/xlink">
 <defs>
  <style type="text/css">
   <![CDATA[
    .fil0 {fill:#4F4138;fill-rule:nonzero}
   ]]>
  </style>
 </defs>
 <g id="_2">
  <metadata id="CorelCorpID_0Corel-Layer"/>
  <g id="_423521940464">
   <path class="fil0" d="M160 12c-82,0 -148,66 -148,148 0,82 66,149 148,149 82,0 149,-67 149,-149 0,-82 -67,-148 -149,-148zm5 95l0 0c5,-18 20,-29 33,-25 13,4 19,22 14,40 -6,17 -21,28 -34,24 -13,-4 -19,-22 -13,-39zm-46 -25l0 0c12,-4 27,8 33,26 6,18 1,35 -11,39 -12,4 -27,-8 -33,-26 -6,-18 -1,-36 11,-39zm-20 107l0 0c-12,3 -26,-8 -32,-25 -6,-17 -1,-34 11,-37 12,-4 26,7 31,24 6,18 2,34 -10,38zm83 47l0 0c0,0 -12,-12 -22,-12l-2 0c-10,0 -22,12 -22,12 0,0 -28,14 -28,-19 0,-58 50,-66 50,-66l2 0c0,0 50,8 50,66 0,33 -28,19 -28,19zm70 -71l0 0c-6,17 -19,28 -31,24 -12,-4 -17,-21 -11,-37 5,-17 19,-28 30,-24 12,4 17,20 12,37z"/>
   <path class="fil0" d="M160 320c-88,0 -160,-72 -160,-160 0,-88 72,-160 160,-160 88,0 160,72 160,160 0,88 -72,160 -160,160zm0 -315l0 0c-85,0 -155,70 -155,155 0,85 70,155 155,155 85,0 155,-70 155,-155 0,-85 -70,-155 -155,-155z"/>
  </g>
 </g>
</svg>
