<?xml version="1.0" encoding="UTF-8"?>
<!DOCTYPE svg PUBLIC "-//W3C//DTD SVG 1.1//EN" "http://www.w3.org/Graphics/SVG/1.1/DTD/svg11.dtd">
<!-- Creator: CorelDRAW X7 -->
<svg xmlns="http://www.w3.org/2000/svg" xml:space="preserve" width="1.91181in" height="2.72839in" version="1.1" style="shape-rendering:geometricPrecision; text-rendering:geometricPrecision; image-rendering:optimizeQuality; fill-rule:evenodd; clip-rule:evenodd"
viewBox="0 0 148 212"
 xmlns:xlink="http://www.w3.org/1999/xlink">
 <defs>
   <clipPath id="id0">
    <path d="M76 212c0,0 -1,0 -2,0 -1,0 -1,-3 -2,-3 0,0 0,0 0,0 0,0 -1,0 -1,0 -1,1 -1,1 -1,1 0,0 0,0 0,0 -1,0 -2,0 -2,0 0,0 0,0 0,0 -1,0 -1,0 -2,0 0,0 0,0 -1,0 0,0 0,0 0,0 0,0 0,0 0,0 0,0 0,0 -1,1 0,0 0,0 -1,0 0,0 0,0 0,0 -1,0 -1,-3 -2,-3 0,0 0,0 0,0 0,0 -1,0 -1,0 0,0 -1,0 -1,0 0,0 0,0 0,0 -1,0 -2,0 -2,0 0,0 0,0 0,0 -1,0 -1,1 -1,2 -1,0 -1,1 -2,1 0,0 0,0 0,0 0,0 -1,-2 -2,-2 0,0 0,0 0,0 0,0 0,0 -1,0 0,1 -1,1 -1,1 0,0 0,0 0,0 -1,0 -1,-1 -2,-1 0,0 0,0 0,0 -1,0 -1,0 -1,0 0,0 -1,0 -1,0 0,0 0,0 0,0 0,0 0,0 0,0 -1,0 -1,1 -1,1 -1,0 -1,1 -1,1 0,0 0,0 0,0 -1,-1 -2,-2 -3,-2 0,0 -1,-2 -2,-2 0,0 0,0 0,0 0,0 0,0 -1,0 0,0 0,0 -1,0 0,0 0,0 0,0 0,0 0,0 0,0 0,0 -1,0 -1,1 0,0 -1,0 -1,0 0,0 0,0 0,0 -1,0 -2,-1 -2,-1 0,0 0,0 0,0 -1,0 -1,1 -1,1 -1,1 -1,1 -2,1 0,0 0,0 0,0 0,0 -1,-3 -2,-3 0,0 0,0 0,0 0,0 0,1 -1,1 0,0 0,1 -1,1 0,0 0,0 0,0 -1,0 -1,-2 -2,-2 -1,0 -1,-1 -2,-1 -1,0 -1,-1 -2,-1 0,0 0,0 0,0 -1,0 -1,0 -1,1 -1,0 -1,1 -1,1 0,0 0,0 0,0 -1,0 -2,-1 -3,-1 0,0 0,0 0,0 0,0 0,0 -1,0 0,0 0,0 -1,0 0,0 0,0 0,0 -1,0 -1,-1 -2,-1 -1,-1 -2,-2 -2,-3 0,-1 1,-2 2,-3 0,0 0,0 0,0 1,0 1,0 1,0 1,1 1,1 1,1 0,0 0,0 1,0 0,-1 1,-2 1,-3 1,0 1,0 1,0 0,0 0,0 0,0 1,0 1,0 1,0 0,0 0,0 1,0 0,0 0,0 1,0 0,0 0,0 0,0 0,0 0,0 0,0 0,0 0,0 0,0 0,0 0,0 0,0 1,0 1,-1 1,-1 0,0 0,0 1,1 0,0 0,0 0,0 0,1 0,2 0,2 0,1 0,1 0,1 1,0 1,0 2,0l0 0c1,0 1,0 2,0 0,0 0,0 0,0 1,0 1,0 2,-1 0,0 0,0 0,-1 0,0 0,-1 0,-2 0,0 0,0 0,0 1,-1 1,-1 1,-1 1,0 1,0 1,0 0,0 0,1 0,1l0 1 0 0c1,-1 2,-2 2,-2 0,0 1,0 1,0 0,1 0,1 1,1 -1,1 -2,2 -3,2 0,1 0,1 1,2 0,0 0,0 0,0 1,1 1,1 2,1 2,0 3,0 4,0l0 0c1,0 1,0 2,0 0,0 1,0 2,0 0,0 0,0 1,0 0,0 1,0 1,0 0,0 1,0 1,0 0,0 0,0 0,0 1,0 1,0 1,0 0,0 0,0 0,0 1,0 1,0 2,1 0,0 0,0 0,0 0,0 0,0 0,0 1,0 1,0 1,-1 -1,-2 -1,-3 -2,-5 -1,-1 -1,-1 -1,-1 0,0 0,0 1,0 0,0 0,-1 1,-1 0,0 0,0 0,0 1,1 1,2 2,3 0,1 0,1 0,1 0,0 0,0 0,0 1,0 1,-1 1,-1 0,-1 0,-2 0,-3 1,0 0,-1 0,-1 0,0 0,-1 0,-1 1,0 1,0 1,0 0,0 1,0 1,0 0,0 0,0 0,0 0,0 0,0 0,0 0,0 0,0 0,0 0,0 0,1 0,2 0,0 0,0 0,0 0,1 0,2 0,3 0,1 -1,1 -1,2 0,1 0,2 0,3 1,1 2,1 2,1 0,0 0,0 0,0 0,0 1,0 1,0 0,0 0,0 0,0 2,0 3,0 5,0l0 0c2,0 5,0 7,0 0,0 0,0 1,0 0,0 0,0 0,0 1,0 1,0 2,0 0,0 0,0 1,0 0,0 1,0 1,0 0,0 0,0 0,0 0,0 0,0 0,0 1,0 1,0 1,0 0,0 1,0 1,0 0,0 1,0 1,0 1,0 1,0 1,0 0,0 0,0 1,0 0,0 0,0 0,0 0,0 0,0 0,0 1,0 2,-1 2,-1 1,0 2,0 3,0 0,0 1,0 1,0 0,0 1,0 2,0 0,0 0,0 0,0 0,0 0,0 0,0 1,0 1,0 1,0 1,0 1,0 1,0 0,0 1,0 1,0 0,0 0,0 0,0 0,0 0,0 0,0 0,0 1,0 1,0 0,0 0,0 0,0 0,0 1,0 1,0 0,-1 1,-1 1,-1 0,0 0,0 0,0 0,0 0,0 0,0 0,0 1,0 1,0 0,0 0,0 0,0 0,0 0,0 0,0 0,0 1,1 1,1 0,0 0,-1 0,-1 1,0 1,0 1,0 1,0 1,0 1,0 0,0 0,0 1,0 0,0 0,0 0,0 0,0 1,0 2,0 0,0 0,0 1,0 0,0 0,0 0,0 1,0 1,0 1,0 0,0 0,0 0,0 1,0 1,0 2,-1 0,0 0,0 0,0 0,-1 0,-2 -1,-2 0,-1 0,-2 0,-3 0,-1 -1,-1 -1,-2 1,-1 1,-1 1,-1 0,0 0,0 0,0 0,0 0,0 1,0 0,0 0,0 0,0 0,1 1,2 1,3 0,0 0,0 0,1 0,0 0,0 0,0 0,0 1,0 1,0 0,-1 0,-2 1,-2 0,0 0,0 1,0 0,0 0,0 0,0 0,0 0,0 1,0 0,0 0,0 1,0 -1,0 -1,1 -1,1 0,0 -1,0 -1,0 -1,1 -1,1 -1,2 -1,1 0,2 -1,3l0 0c1,0 1,0 2,0 0,0 0,0 0,0 0,0 1,0 1,0 0,0 0,0 0,0 1,0 1,0 2,0 1,0 2,0 3,0l0 0c1,0 1,-1 1,-1 1,0 1,0 1,0 1,0 1,1 1,1 0,0 1,0 1,-1 0,0 1,0 1,0 0,0 0,0 1,0 0,0 0,0 0,0 0,0 0,0 0,0 0,0 0,0 0,0 1,0 1,0 1,0 0,0 0,0 1,0 0,0 0,0 0,0 0,0 0,0 0,0 1,0 0,-1 0,-1 -1,-1 -2,-2 -3,-2 0,-1 0,-1 0,-1 0,0 0,0 1,0 0,-1 0,-1 1,-1 0,0 0,0 0,0 0,0 1,3 2,3 0,0 0,0 0,0 0,0 1,0 1,0 0,0 0,0 1,0 0,0 0,0 0,0 0,1 0,1 1,2 0,0 0,0 0,0 0,0 1,0 1,0 0,0 0,0 1,0 0,0 0,0 0,0 0,-1 0,-1 0,-2 0,0 0,0 0,0 0,0 0,-1 0,-1 1,-1 1,-1 1,-1 0,0 0,0 0,0 1,0 2,3 2,3 1,0 2,1 2,1 0,0 0,0 1,0 0,0 0,-1 1,-1 0,-1 1,-2 1,-2 0,0 0,0 0,0 1,1 1,3 2,3 0,0 0,0 0,0 0,0 1,0 1,0 0,0 1,0 1,0 0,0 0,0 0,0 1,1 0,2 0,3 0,1 1,2 0,2 0,1 -1,2 -2,2 0,0 0,0 0,0 0,0 -1,0 -1,-1 -1,0 -1,0 -1,0 0,0 0,0 0,0 -1,0 -2,0 -3,0 0,1 -1,3 -1,3 0,0 0,0 0,0 -1,0 -1,0 -2,-1 0,0 0,-1 -1,-1 0,0 0,0 0,0 0,0 0,0 0,0 0,0 -1,0 -1,0 0,0 -1,0 -1,0 0,0 0,0 0,0 -1,0 -1,3 -2,3 -1,0 -1,1 -2,1 0,0 0,0 0,0 -1,0 -1,0 -1,0 0,0 -1,0 -1,0 0,0 0,0 0,0 0,0 0,0 0,0 -1,0 -1,-1 -1,-2 -1,0 -1,-1 -2,-1 0,0 0,0 0,0 0,0 -1,2 -2,2 0,0 -1,0 -2,0 -1,1 -1,1 -2,1 -1,0 -1,1 -2,1 0,0 0,0 0,0 -1,0 -1,-1 -1,-2 -1,0 -1,-1 -1,-1 0,0 0,0 0,0 -1,0 -2,3 -3,3 0,0 0,0 0,0 0,0 0,-1 -1,-1 0,-1 0,-1 -1,-1 0,0 0,0 0,0 -1,0 -1,2 -2,2 0,0 0,0 0,0 0,0 -1,0 -1,-1 0,0 -1,0 -1,0 0,0 0,0 0,0 -1,0 -2,1 -2,2 0,0 0,0 0,0 -1,0 -1,-1 -1,-1 -1,0 -1,0 -1,0 0,0 0,0 0,0 -1,0 -2,0 -3,0 0,0 0,0 0,0 0,0 0,0 -1,-1 0,0 0,-1 -1,-1 0,0 0,0 0,0 -1,0 -1,1 -2,1 0,0 0,0 0,0 0,0 -1,0 -1,-1 0,0 -1,0 -1,0 0,0 0,0 0,0 -1,0 -2,4 -2,4 -1,0 -1,-1 -1,-1 -1,-1 -1,-1 -2,-1 0,0 -1,2 -2,2 0,0 0,0 0,0l0 0zm-42 -18c0,0 1,-1 1,-1 0,0 0,0 0,0 0,0 0,0 0,0 0,1 -1,1 -1,1l0 0zm81 0c-1,0 -1,-1 -2,-1 0,0 0,0 0,0 0,-1 0,-1 0,-1 0,0 0,0 0,0 1,0 1,2 2,2l0 0zm-7 -1c0,0 0,0 0,0 0,-1 1,-1 1,-1 0,0 0,0 0,0 0,0 1,0 1,0 -1,0 -1,0 -1,0 -1,1 -1,1 -1,1l0 0z"/>
   </clipPath>
   <clipPath id="id1">
    <path d="M18 82c0,0 0,0 0,0 -1,0 -1,0 -2,-1 -1,0 -2,0 -3,-1 -1,-1 -2,-2 -3,-3 -1,-1 -2,-2 -3,-3 -1,-1 -1,-2 -2,-3 -1,-1 -1,-3 -2,-4 0,-2 -1,-3 -1,-5 -1,-1 0,-2 -1,-3 0,-1 0,-2 -1,-3 0,0 0,-1 0,-1 1,-1 0,-3 0,-4 0,-1 0,-3 0,-4l0 0c0,-1 0,-2 0,-3 0,-1 1,-2 1,-3 0,0 0,0 0,-1 1,0 2,-1 3,-2 0,-1 0,-1 1,-1 1,-1 2,-2 3,-2 1,-2 3,-2 5,-3 2,-2 4,-3 7,-4 1,0 1,-1 2,-1 0,0 0,0 0,0 1,0 2,-1 2,-1 1,-1 2,0 3,-1 0,0 1,-1 2,-1 0,0 1,0 2,0 0,-1 1,-1 1,-1 0,0 0,0 1,0 1,0 2,0 3,1 0,-1 0,-1 1,-1 0,0 0,0 0,0 1,0 1,0 1,0 0,0 0,0 0,0l0 0c0,0 0,1 0,1 -3,3 -5,6 -8,9 0,2 -1,3 -2,4 0,1 -1,2 -1,3 -1,1 -1,2 -1,3 0,0 0,0 0,0 -1,2 -2,3 -2,4 -1,2 -1,3 -2,4 0,1 -1,3 -1,4 -1,0 -1,1 -1,1 0,1 -1,2 -1,4 1,0 0,1 0,1 0,1 0,1 -1,2 0,1 0,2 0,2 0,2 0,3 0,4 0,1 -1,2 0,3 0,0 0,1 0,1 0,1 0,2 0,3 0,1 0,1 0,2 0,1 0,2 0,2 1,1 1,1 0,2 0,0 0,0 0,0l0 0z"/>
   </clipPath>
   <clipPath id="id2">
    <path d="M25 199c-1,0 -1,0 -2,0l0 0c-1,0 -1,0 -2,0 0,0 0,0 0,-1 0,0 0,-1 0,-2 0,0 1,-1 1,-1 1,-1 2,-2 4,-2 0,0 0,0 0,0 1,0 1,0 1,0 0,0 0,0 0,0 0,1 1,1 0,2 0,0 0,0 0,0 0,1 0,2 0,2 0,1 0,1 0,1 -1,1 -1,1 -2,1 0,0 0,0 0,0l0 0z"/>
   </clipPath>
   <clipPath id="id3">
    <path d="M19 196c0,0 0,0 0,0 0,0 0,0 0,0 0,0 0,0 0,0 -1,-1 -1,-2 -1,-3 -1,-1 -1,-2 -1,-3 0,0 0,-1 -1,-2l0 0c0,-1 0,-2 0,-3 0,-1 0,-1 0,-2 0,-1 0,-1 0,-2 0,0 0,0 0,0 0,-1 0,-2 -1,-3 0,-1 0,-2 0,-3 0,-1 0,-2 0,-3l0 0c1,-1 1,-2 1,-3 0,0 0,-1 0,-2 1,-1 0,-2 0,-2 1,-1 0,-1 1,-2 0,0 0,-1 0,-1 0,-1 0,-1 1,-2 0,0 0,-1 0,-1 1,-1 1,-2 1,-3 1,-1 1,-2 1,-3 2,-1 2,-3 4,-5 1,0 2,-1 3,-1 0,-1 1,-1 2,-1 0,0 1,0 1,0 0,0 0,0 0,0 1,0 1,0 1,0 0,0 1,0 1,0 0,0 0,0 0,0 1,1 2,1 3,1 0,0 0,0 0,0 0,0 0,1 0,1 0,1 0,2 -1,2 0,1 0,1 0,1 0,1 0,2 0,3 0,1 0,1 0,2 0,1 -1,1 -1,2 0,1 0,1 0,2 0,1 -1,1 -1,2 0,1 0,2 0,2 -1,2 0,3 -1,4 0,1 0,1 0,1 0,1 0,2 -1,3 0,1 0,2 0,2 0,1 0,3 0,4 0,0 0,1 0,1 -1,2 0,3 -1,5 0,0 0,1 0,2 -1,1 -1,2 -1,3 0,1 0,1 -1,1l0 1c0,0 0,0 -1,0 0,0 -1,0 -2,0 -1,1 -3,2 -4,3 0,1 0,1 0,1 0,0 0,1 -1,1 0,0 0,0 0,0l0 0z"/>
   </clipPath>
   <clipPath id="id4">
    <path d="M47 201c0,0 0,0 0,0 0,0 0,0 0,0 -1,-1 -1,-1 -2,-1 0,0 0,0 0,0 0,0 0,0 -1,0 0,0 0,0 0,0 0,0 -1,0 -1,0 0,0 -1,0 -1,0 -1,0 -1,0 -1,0 -1,0 -2,0 -2,0 -1,0 -1,0 -2,0l0 0c-1,0 -2,0 -4,0 -1,0 -1,0 -2,-1 0,0 0,0 0,0 -1,-1 -1,-1 -1,-2 1,0 2,-1 3,-2 0,0 1,0 1,-1 0,0 1,0 1,-1 0,0 1,0 1,0 1,-1 2,-1 3,-1 0,0 0,-1 1,-1 0,0 0,0 0,0 0,0 0,0 0,0 0,0 1,0 1,0 0,0 0,0 0,0 0,0 0,0 0,0 0,0 0,0 0,1 2,0 3,1 4,2 0,0 0,0 1,1 1,2 1,3 2,5 0,1 0,1 -1,1l0 0z"/>
   </clipPath>
   <clipPath id="id5">
    <path d="M106 199c0,0 0,0 0,0 0,0 -1,0 -1,0 0,0 0,0 0,0 -1,0 -1,0 -2,0l0 0c1,-1 0,-2 1,-3 0,-1 0,-1 1,-2 0,0 1,0 1,0 0,0 0,-1 1,-1 0,0 0,0 1,0 0,0 0,0 1,-1 0,0 0,0 1,0 1,0 1,0 2,1 0,0 0,0 1,0 0,0 0,0 0,0 1,0 1,1 2,1 0,0 0,0 1,0 0,0 0,0 0,1 1,0 2,1 3,2 0,0 1,1 0,1 0,0 0,0 0,0 0,0 0,0 0,0 -1,0 -1,0 -1,0 0,0 0,0 -1,0 0,0 0,0 0,0 0,0 0,0 0,0 0,0 0,0 0,0 -1,0 -1,0 -1,0 0,0 -1,0 -1,0 0,1 -1,1 -1,1 0,0 0,-1 -1,-1 0,0 0,0 -1,0 0,0 0,1 -1,1l0 0c-1,0 -2,0 -3,0 -1,0 -1,0 -2,0l0 0z"/>
   </clipPath>
   <clipPath id="id6">
    <path d="M124 198c0,0 -1,0 -1,0 0,0 0,0 0,0 -1,-1 -1,-1 -1,-2 0,0 0,0 0,0 -1,-1 -1,-2 -2,-3 0,-1 0,-1 0,-1 0,0 0,-1 1,-1 0,0 0,0 0,0 0,0 0,0 0,0 1,0 1,0 1,0 1,0 1,1 1,1 1,1 1,1 1,2 0,1 0,1 1,2 0,0 0,0 0,0 0,1 0,1 0,2 0,0 0,0 0,0 -1,0 -1,0 -1,0l0 0z"/>
   </clipPath>
   <clipPath id="id7">
    <path d="M126 193c0,0 0,0 0,0 0,-1 -1,-1 -1,-2 -1,-1 -2,-2 -3,-2 0,0 0,0 0,0 0,0 -1,0 -1,0 0,0 0,0 0,0 -1,0 -1,0 -2,0 0,-1 0,-2 0,-2 -1,-1 -1,-2 -1,-3 -1,-1 -1,-2 -1,-2 0,-1 0,-1 0,-2 0,-1 -1,-1 -1,-2 0,-1 0,-1 0,-2 0,-1 -1,-2 -1,-3 0,-1 -1,-2 -1,-3 0,-2 -1,-4 -1,-6 -1,0 0,-1 -1,-2 0,-1 0,-2 0,-3 -1,-1 -1,-1 -1,-2 0,-1 0,-2 -1,-3 0,-1 0,-2 0,-3 -1,0 0,-2 -1,-2 0,0 0,-1 0,-1 1,0 2,0 3,0 0,0 0,0 0,0 1,0 1,0 1,0 0,0 1,0 1,0 0,0 0,0 0,0 2,0 4,0 6,1 1,1 3,2 4,4 2,1 2,3 3,4 1,1 1,3 2,4 0,1 0,2 0,2 0,2 1,3 1,4 0,1 0,2 0,3 0,1 0,2 0,2 0,2 -1,3 -1,4 0,1 1,2 0,3 0,0 0,1 0,1 0,1 0,2 0,3 -1,0 -1,1 -1,2 -1,1 -1,2 -1,3 0,1 0,2 0,2 0,1 0,2 0,2 0,0 -1,1 -1,1 0,0 0,0 0,0l0 0z"/>
   </clipPath>
   <clipPath id="id8">
    <path d="M67 202c-1,0 -1,0 -1,0 -2,0 -5,0 -7,0l0 0c-2,0 -3,0 -5,0 0,0 0,0 0,0 0,0 -1,0 -1,0 0,0 0,0 0,0 0,0 -1,0 -2,-1 0,-1 0,-2 0,-3 0,-1 1,-1 1,-2 0,-1 0,-2 0,-3 0,0 0,0 0,0 0,-1 0,-2 0,-2 0,-1 0,-2 1,-2 0,-2 0,-3 0,-4 0,-1 0,-1 0,-2 0,-1 1,-3 1,-4 0,-1 0,-2 0,-2 0,-1 0,-2 0,-2 0,-1 0,-2 1,-3 0,-1 0,-2 0,-2 0,-1 0,-1 0,-1 0,0 0,-1 1,-1 0,-1 -1,-2 0,-3 0,0 0,-1 0,-2 1,-1 1,-2 1,-3 0,-1 1,-1 1,-2 0,-1 0,-1 0,-2 0,-1 1,-1 1,-2 0,-1 0,-1 0,-2 1,-1 1,-2 1,-3 0,0 0,-1 0,-1 0,0 0,-1 -1,-1 0,0 0,0 0,0 0,0 -1,0 -1,1 1,1 0,1 0,2 0,1 -1,2 -1,2 0,1 0,2 -1,2 0,1 0,1 0,1 0,1 0,2 0,2 -1,1 -1,2 -1,3 0,1 0,2 0,3 0,0 -1,0 -1,1 0,0 0,1 0,2 0,1 0,2 0,2 -1,1 -1,1 -1,2 0,0 0,1 0,1 0,1 0,1 -1,2 0,0 0,1 0,2 0,1 0,2 0,3 -1,0 0,1 0,1 -1,1 -1,3 -1,4 0,1 0,1 0,2 0,0 0,1 0,1 0,1 0,3 0,4 0,0 -1,1 -1,1 0,0 0,1 0,1 0,0 1,1 0,1 0,1 0,2 0,3 0,0 0,1 -1,1 0,0 0,0 0,0 0,0 0,0 0,-1 -1,-1 -1,-2 -2,-3 0,0 0,0 0,0 -1,-2 -3,-2 -4,-3 0,0 0,0 0,0 -1,0 -2,-1 -2,-1 -1,0 -1,0 -1,0 -2,0 -4,1 -5,2 -1,1 -3,2 -4,3 0,0 -1,1 -2,2l0 0 0 -1c0,0 0,-1 0,-1 0,-1 0,-1 1,-2 0,-1 0,-1 0,-2 0,0 0,-1 0,-1 0,-1 0,-2 0,-2 0,-1 0,-3 1,-4 0,0 0,-1 0,-1 0,-1 0,-2 1,-3 0,0 0,-1 0,-1 0,-2 0,-3 0,-4 1,-1 0,-1 0,-2 1,-1 0,-2 1,-2 0,-1 0,-1 0,-1 0,-1 0,-2 1,-3 0,-1 0,-1 0,-1 0,-1 0,-2 0,-3 1,0 0,-1 0,-1 1,-2 0,-3 1,-4 0,-1 1,-3 1,-4 0,-1 0,-2 0,-2 1,-1 0,-2 1,-2 0,-1 0,-1 0,-1 0,-1 0,-2 0,-3 1,-1 0,-1 1,-2 0,-1 0,-3 0,-4 0,0 1,-1 1,-1 0,-1 0,-1 0,-2 0,-1 0,-3 0,-4 0,-1 0,-2 1,-2 0,-1 0,-1 0,-2 0,-1 0,-2 0,-3 0,-1 1,-2 1,-2 0,-1 0,-2 0,-3 0,0 0,-1 1,-2 0,-1 0,-1 0,-2 0,-1 1,-2 1,-3 0,0 0,0 0,0 0,0 0,0 0,0 0,0 0,1 1,1 0,0 0,0 0,0 0,0 0,-1 1,-1 0,0 0,0 0,0 0,-1 -1,-3 0,-3 0,-2 1,-2 1,-3 1,-1 1,-2 1,-3 1,0 1,0 1,0l0 0c0,1 0,2 0,2 0,1 1,2 1,3 0,0 0,1 0,1 1,1 1,3 2,5 1,1 1,1 2,2 0,0 0,0 1,0 0,1 1,1 1,1 0,0 0,0 0,0 0,0 0,-1 0,-1 1,-2 2,-3 3,-4 0,-1 0,-1 0,-1 0,0 0,0 0,0 1,1 2,2 3,3 0,2 2,3 3,4 1,0 3,1 4,1 0,1 0,1 1,1 0,0 0,0 0,0 1,0 1,0 1,-1 2,-1 3,-2 4,-4 0,0 0,0 0,0 1,-1 2,-3 3,-4 0,-1 1,-2 2,-3 0,0 0,-1 1,-1 0,0 0,0 0,0 0,0 0,0 0,0 0,1 1,2 1,3 1,1 1,2 1,3 0,1 0,2 0,2 0,1 0,1 0,2 1,0 1,0 1,0 0,0 0,0 0,0 0,0 1,0 1,0 1,-1 2,-2 2,-4 1,-1 2,-3 2,-4 1,-1 1,-3 2,-4 0,0 0,0 1,-1 0,1 0,1 0,1 0,1 0,1 0,2 1,1 2,3 3,5 0,1 0,2 0,3 0,1 1,2 2,2 0,0 0,0 1,0 1,-1 2,-1 3,-2 0,0 0,0 0,0 1,0 1,1 1,1 0,1 0,2 1,2 0,1 -1,2 0,2 0,1 0,2 0,3 0,0 0,0 0,0 0,1 0,2 1,2 0,1 -1,2 0,2 0,2 1,3 0,4 0,1 1,1 1,2 0,0 0,1 0,1 0,1 0,1 0,1 0,1 1,2 1,3 -1,1 0,1 0,2 0,1 1,2 1,3 0,0 0,0 0,1 0,1 0,1 0,2 0,1 1,1 1,2 0,1 0,2 1,3 0,1 0,3 1,4 0,1 0,2 1,3 0,2 0,3 0,4 1,1 1,2 1,3 0,1 1,2 0,3 1,0 0,2 1,2 0,1 1,2 1,3 0,1 0,2 0,2 1,1 1,2 1,3 0,1 1,2 1,2 0,1 0,1 0,2 1,0 1,1 1,1 0,1 0,1 0,1 1,3 1,5 2,8l0 0c-1,0 -1,0 -2,-1 0,0 -1,0 -1,0 -1,-1 -2,-1 -3,-1 0,-1 -1,-1 -1,-1 -1,0 -1,0 -1,0 -2,1 -4,1 -5,2 0,0 -1,1 -1,1 -1,0 -1,1 -1,2 0,0 -1,0 -1,0 0,0 0,0 0,0 0,-1 0,-1 0,-1 0,-1 -1,-2 -1,-3 0,0 0,-1 0,-1 0,0 0,0 0,0 0,-1 -1,-2 -1,-3 0,-1 -1,-2 -1,-3 0,-1 0,-2 -1,-3 0,0 0,-1 0,-2 0,-1 -1,-1 0,-2 -1,-2 -1,-3 -2,-5 0,-1 -1,-3 -1,-4 -1,-1 -1,-2 -1,-3 0,-1 0,-2 -1,-2 0,-1 0,-2 0,-3 0,0 -1,-1 -1,-2 0,-1 0,-2 0,-2 -1,-1 -1,-2 -1,-3 -1,-1 0,-1 0,-2 -1,-1 -1,-1 -1,-2 0,-1 0,-1 -1,-2 0,0 0,0 0,0 0,0 0,0 0,0 -1,0 -1,1 -1,2 0,1 0,2 1,3 0,0 0,0 0,0 0,2 1,3 1,4 0,1 0,2 1,3 0,2 0,3 1,5 0,0 0,0 0,1 0,0 1,1 1,2 0,1 0,2 0,3 0,0 1,1 1,2 0,1 1,3 1,4 0,1 1,2 1,3 0,1 0,2 0,3 1,1 1,2 1,3 1,1 1,1 1,2 0,0 0,0 -1,0 1,1 1,2 1,2l0 0c0,1 1,1 1,2 0,0 0,0 0,1 0,1 1,1 1,2 0,1 0,2 0,3 1,0 1,1 1,2 0,0 0,0 0,0 -1,1 -1,1 -2,1 0,0 0,0 0,0 0,0 0,0 -1,0 0,0 0,0 0,0 -1,0 -1,0 -1,0 -1,0 -2,0 -2,0 0,0 0,0 0,0 -1,0 -1,0 -1,0 0,0 0,0 -1,0 0,0 0,0 -1,0 0,0 0,1 0,1 0,0 -1,-1 -1,-1 0,0 0,0 0,0 0,0 0,0 0,0 0,0 -1,0 -1,0 0,0 0,0 0,0 0,0 0,0 0,0 0,0 -1,0 -1,1 0,0 -1,0 -1,0 0,0 0,0 0,0 0,0 -1,0 -1,0 0,0 0,0 0,0 0,0 0,0 0,0 0,0 -1,0 -1,0 0,0 0,0 -1,0 0,0 0,0 -1,0 0,0 0,0 0,0 0,0 0,0 0,0 -1,0 -2,0 -2,0 0,0 -1,0 -1,0 -1,0 -2,0 -3,0 0,0 -1,1 -2,1 0,0 0,0 0,0 0,0 0,0 0,0 -1,0 -1,0 -1,0 0,0 0,0 -1,0 0,0 -1,0 -1,0 0,0 -1,0 -1,0 0,0 0,0 -1,0 0,0 0,0 0,0 0,0 0,0 0,0 0,0 -1,0 -1,0 -1,0 -1,0 -1,0 -1,0 -1,0 -2,0 0,0 0,0 0,0l0 0z"/>
   </clipPath>
   <clipPath id="id9">
    <path d="M68 118c0,0 -1,0 -1,0 -1,-1 -3,-2 -4,-3 -1,-2 -2,-2 -3,-4 0,0 -1,-1 -1,-2 0,0 0,0 -1,0 0,0 0,0 0,0 0,0 0,0 0,0 -1,0 -2,1 -2,2 0,1 0,1 0,1 0,1 -1,1 -1,2 -1,-1 -1,-1 -1,-2 -1,-1 -1,-2 -2,-4 0,-1 0,-2 -1,-4 0,-2 -1,-4 -1,-7 0,-1 0,-2 0,-2l0 -1c1,-1 0,-2 1,-4 0,0 0,-1 0,-2 1,-1 1,-1 1,-2 0,0 0,-1 0,-2 0,0 1,0 1,-1 0,0 1,-1 1,-1 1,-3 2,-4 4,-6 1,-1 2,-1 3,-1 0,-1 1,-1 1,-1 0,0 0,0 0,0 2,3 4,6 7,8l0 0c0,2 0,5 0,7 0,1 -1,2 -2,2 0,1 0,1 0,1 -1,0 -2,-2 -2,-3 0,0 0,0 -1,-1 0,0 0,0 -1,0 0,0 0,0 0,0 0,0 0,0 -1,0 0,0 0,1 0,1 0,0 0,0 0,1 0,2 1,4 3,4 0,1 1,1 1,1 0,0 0,0 1,0 1,0 1,-1 2,-1 0,0 1,-1 1,-1 0,0 1,-1 1,-1 1,1 2,2 3,2 0,0 1,0 1,0 4,0 6,-4 6,-7 0,-1 -1,-2 -1,-2 -1,0 -2,1 -2,2 0,1 0,3 -2,4 0,0 0,0 0,0 -2,0 -3,-1 -3,-2 -1,-3 -1,-6 0,-8 0,0 0,0 0,0 0,0 0,0 0,0 0,0 1,-1 1,-2 0,0 1,-1 1,-2 1,0 2,-1 2,-1 0,-1 0,-1 1,-1 0,0 0,-1 0,-1 0,0 0,0 0,-1 1,0 1,0 2,1 3,0 4,2 6,4 1,2 2,5 3,7 0,1 0,2 0,2 1,1 0,2 0,2 0,1 0,2 1,3 0,0 0,1 0,1 0,1 0,2 0,3l0 0c0,1 0,2 0,2 -1,1 0,2 -1,3 0,1 0,2 -1,3 0,3 -2,5 -3,8 0,0 -1,0 -1,1l0 0c0,0 -1,0 -1,-1 0,-2 -1,-5 -2,-7 0,0 0,0 0,-1 -1,0 -1,0 -1,0 -1,0 -1,0 -1,0 0,0 -1,0 -1,1 0,1 0,2 -1,2 -1,3 -3,6 -5,8 -1,0 -1,1 -1,1 -1,0 -1,1 -2,2 0,0 -1,0 -1,0z"/>
   </clipPath>
   <clipPath id="id10">
    <path d="M98 115c-1,0 -1,0 -1,0 0,0 -1,0 -1,0 0,-1 0,-1 0,-2 -1,-3 -1,-6 -3,-9 0,-1 -1,-1 -1,-2 -1,-1 -1,-2 0,-3 0,-1 0,-1 0,-2 0,-1 0,-2 1,-2 0,-2 0,-4 0,-5 0,0 0,-1 0,-1 0,-1 0,-2 0,-2 -1,-1 -1,-2 -1,-3 -1,-1 -1,-2 -1,-3 -1,-1 -2,-2 -2,-3 -1,-1 -2,-1 -2,-2 -2,-2 -3,-3 -5,-4 -1,0 -2,0 -3,-1 0,0 0,0 0,0 -1,0 -2,0 -3,-1 -1,0 -1,0 -2,0 0,0 0,0 0,0 0,0 0,0 0,0 0,0 -1,0 -1,0 0,0 0,0 0,0 -1,0 -1,0 -2,0 -2,0 -4,0 -5,1 -1,0 -2,0 -2,0 -1,1 -2,1 -3,1 0,1 -1,1 -2,1 -2,2 -4,3 -5,5 -1,0 -2,1 -2,3 -1,1 -2,5 -3,7 0,0 0,1 0,1 -1,1 0,2 -1,2 0,1 0,1 0,2 0,2 0,3 0,5 0,1 -1,2 -1,3 0,0 0,0 -1,1 -1,1 -1,3 -2,5 0,0 0,1 0,1 0,1 -1,2 -1,2 0,1 0,1 0,1 -1,0 -1,0 -1,0 -1,-1 -2,-2 -3,-2 -2,-1 -4,-2 -5,-4 -1,0 -1,-1 -1,-1 -1,-1 -2,-2 -3,-3 -2,-2 -3,-4 -5,-7 -1,-2 -2,-4 -3,-6 0,0 0,-1 0,-2 0,0 0,0 0,-1 -1,-1 -2,-2 -2,-4 0,0 0,-1 0,-1 0,-1 0,-1 0,-2 0,-1 0,-1 -1,-2 0,0 0,-1 0,-1 1,-4 1,-7 1,-10 0,-1 0,-2 1,-3 1,0 0,0 0,-1 0,-1 1,-1 1,-2 0,-1 0,-1 0,-2 0,-1 1,-2 1,-2 0,-1 0,-2 1,-2 0,0 0,-1 0,-1 0,-1 1,-2 1,-3 1,-1 1,-2 1,-4 1,-1 1,-1 2,-2 0,-1 0,-2 1,-3 0,-1 1,-1 1,-2 1,-3 3,-4 4,-7 0,0 0,0 0,0 1,-1 2,-2 3,-3 1,-1 2,-3 4,-4 1,-1 3,-1 4,-2 1,0 2,-1 2,-1 0,0 0,0 0,0 1,0 1,0 1,0 0,0 0,0 0,0 1,0 1,-1 2,-1 2,-1 4,-1 6,-2 0,0 0,0 1,0 0,0 0,0 0,0 0,0 0,0 0,0 0,0 1,0 1,0 0,0 1,0 1,0 1,0 2,0 3,0 0,0 0,0 0,0 0,0 0,0 0,-1 0,-1 0,-1 0,-2 -1,-1 -1,-2 -1,-2l0 -1 0 0c1,1 2,1 3,3 1,0 1,0 1,1 1,0 1,0 1,0 0,0 0,0 1,0 0,0 0,-1 0,-1 0,-1 0,-3 0,-4 -1,0 0,-1 0,-1 0,-2 -1,-4 -1,-7 -1,-1 -1,-2 -1,-3 0,0 0,0 0,0l0 0c2,1 4,3 5,5 0,1 1,2 1,3 0,1 0,2 1,3 0,0 0,0 0,0 0,1 1,2 0,3 0,1 1,1 1,1 0,0 1,0 1,0 0,0 0,0 0,0 0,0 0,0 0,-1 0,-1 1,-2 2,-2 0,-1 1,-1 1,-2 1,0 1,-1 1,-1 1,-1 2,-2 3,-3 0,0 0,0 0,0 0,1 0,1 0,1 0,0 0,0 0,1 -1,1 -1,2 -2,3 0,1 -1,2 -1,4 0,0 -1,1 -2,2 0,0 0,1 1,1 1,1 2,1 3,1 1,0 2,0 2,0 1,0 1,0 2,0 1,0 2,0 3,0l0 0c1,0 1,0 2,0 0,1 0,1 0,1 1,0 1,0 1,0 0,0 0,0 0,0 1,0 1,0 2,0 0,0 0,0 0,0 1,0 2,0 3,1 1,0 2,0 3,1 1,0 1,1 3,1l0 0c1,1 2,2 3,3 1,0 2,1 3,2 1,0 2,1 3,2 0,1 1,2 2,2 0,0 1,1 1,1 0,1 1,2 2,3 2,2 3,5 5,8 0,0 1,1 1,2 1,1 1,3 2,5 0,0 0,1 0,1 0,1 0,3 0,4 0,1 0,3 1,4 0,1 -1,2 0,2 0,1 -1,2 -1,3 0,0 0,1 0,1 0,1 0,2 0,4 0,1 0,2 -1,3l0 0c0,1 -1,3 -1,4 0,1 0,1 0,1 0,1 0,2 -1,3 0,1 0,1 -1,1 0,0 -1,1 0,1 1,1 1,1 0,2 0,1 0,2 -1,2 0,1 0,2 0,3 0,0 -1,1 -1,2 0,1 -1,2 -1,3 0,1 -1,2 -1,2 0,1 -1,2 -1,2 0,1 -1,1 -1,2 0,0 -1,1 -1,1 0,1 -1,2 -2,3 0,1 -1,2 -2,2 0,1 -1,2 -2,2 -1,2 -3,3 -4,4 -1,0 -1,0 -2,1 0,0 -1,0 -2,1 0,0 0,0 0,0l0 0zm-19 -53c0,1 0,1 0,2 0,0 0,0 0,1 1,1 1,1 2,2 0,1 0,1 1,2 0,0 1,0 2,1 0,0 1,0 2,0 0,0 0,0 0,0 0,0 0,0 0,0 1,0 1,0 1,0 0,0 0,0 1,0 0,0 0,0 0,0 1,0 2,0 3,-1 0,-1 1,-1 2,-2 0,-1 1,-2 1,-3 0,-1 0,-2 0,-4 0,-1 0,-1 -1,-2 0,0 0,-1 -1,-2 0,0 -1,0 -1,0 -1,-1 -1,-1 -2,-1 -1,0 -1,0 -1,0 -1,0 -1,0 -2,0 0,0 0,-1 -1,-1 0,0 -1,0 -1,0 0,0 0,1 0,1 -2,0 -3,2 -4,3 0,1 0,1 0,2 -1,1 -1,1 -1,2l0 0zm-26 -9c-1,0 -2,1 -3,2 -1,1 -2,2 -2,3 0,0 0,0 0,1 0,0 0,1 0,2 0,1 0,2 0,3 0,1 1,2 1,3 1,1 1,2 3,2 0,1 1,1 1,1 1,0 1,0 2,0 0,0 0,0 0,0 1,0 1,0 1,0 0,0 1,-1 1,-1 2,0 3,-1 4,-2 2,-2 2,-3 2,-6 0,0 0,-1 0,-1 0,-1 0,-1 -1,-2 0,-1 -1,-2 -1,-2 -2,-2 -3,-3 -5,-3 0,0 0,0 0,0 0,0 0,0 0,0 0,0 0,0 -1,0l0 0c0,0 -1,0 -2,0 0,0 0,0 0,0l0 0zm-3 -14c0,0 0,0 0,0 -1,0 -2,1 -2,1 -1,1 -1,1 -2,2 -1,0 -2,1 -2,2 -1,0 -1,1 -2,2 0,1 -1,1 -1,2 -1,0 -1,1 -1,1 0,0 1,1 1,1 0,0 0,0 0,0 1,0 1,0 1,-1 0,0 1,-1 1,-2 1,-1 2,-1 2,-2 1,-1 2,-2 3,-2 2,-2 3,-3 5,-3 1,0 1,0 1,0 0,0 0,0 0,0 0,0 0,0 0,0 0,0 0,0 0,-1l0 0c0,-1 0,-1 -1,-1 0,0 0,0 0,0 -1,0 -1,1 -2,1 0,0 0,0 -1,0 0,0 0,0 0,0l0 0zm42 2c1,0 2,0 3,1 2,1 4,1 5,3 0,0 0,0 0,0 0,0 0,0 0,0 1,0 1,0 1,0 1,-1 1,-1 1,-2 0,0 -1,0 -1,-1 -1,0 -1,0 -2,-1 0,0 -1,0 -2,-1 -1,0 -2,0 -3,-1 0,0 0,0 0,0 -1,0 -1,0 -2,0 0,0 -1,0 -2,0 0,0 0,0 0,0 -1,0 -1,0 -1,0 -1,0 -1,0 -1,0 0,0 0,0 0,0 0,0 -1,0 -1,1 0,0 -1,0 -1,0 0,1 0,1 0,1 0,1 0,1 0,1 1,0 1,0 1,0 0,0 1,-1 2,-1 1,0 1,0 2,0 0,0 1,0 1,0l0 0z"/>
   </clipPath>
   <clipPath id="id11">
    <path d="M124 81c0,0 -1,0 -1,0 0,0 0,0 0,-1 0,0 0,-1 0,-1 1,-1 0,-2 1,-3 0,0 0,0 0,-1 0,-1 0,-2 1,-3 0,0 0,0 0,-1 0,-1 0,-2 0,-4 0,-1 0,-1 0,-2 1,0 0,-1 0,-1 1,-1 1,-2 0,-3 0,0 0,-1 0,-2 0,0 0,-1 0,-2 0,-1 0,-1 0,-2 0,-1 0,-1 0,-2 0,0 0,-1 0,-1l0 0c0,-2 0,-3 -1,-4 -1,-2 -2,-4 -3,-6 0,-1 -1,-1 -1,-2 0,0 0,0 -1,-1 -1,-1 -2,-2 -2,-4 -1,0 -1,-1 -2,-2 -1,-1 -2,-1 -3,-3 0,0 0,0 -1,-1 0,0 0,-1 -1,-1 0,-1 -1,-1 -2,-2l0 -1 0 0c1,0 3,0 4,1l0 0c1,0 2,0 3,0 1,0 1,0 1,0 0,0 0,0 1,0 0,0 0,0 0,0 0,0 0,0 0,0 1,0 1,0 1,0 0,0 0,0 0,0 0,0 0,0 1,0 0,0 0,0 1,0 0,0 0,0 0,0 0,0 0,0 0,0 0,0 0,0 0,0 0,0 0,0 0,0 1,1 2,1 3,1 1,1 2,1 3,1 0,0 1,0 1,1 1,0 3,0 4,1 3,1 5,3 8,4 0,1 1,1 1,2 4,1 6,3 8,6 0,0 0,0 0,1 0,1 0,3 0,5 -1,1 0,2 -1,3 0,1 0,2 -1,3 -1,3 -2,6 -4,9 -1,2 -1,3 -2,4 -2,3 -4,6 -7,8 0,0 -1,1 -2,2 -1,1 -2,2 -4,2 -1,1 -2,1 -3,2 0,0 0,0 0,0l0 0z"/>
   </clipPath>
   <clipPath id="id12">
    <path d="M55 70c0,0 0,0 0,0 -1,0 -1,0 -2,0 0,0 -1,0 -1,-1 -2,0 -2,-1 -3,-2 0,-1 -1,-2 -1,-3 0,-1 0,-2 0,-3 0,-1 0,-2 0,-2 0,-1 0,-1 0,-1 0,-1 1,-2 2,-3 1,-1 2,-2 3,-2 0,0 0,0 0,0 1,0 2,0 2,0l0 0c1,0 1,0 1,0 0,0 0,0 0,0 0,0 0,0 0,0 2,0 3,1 5,3 0,0 1,1 1,2 1,1 1,1 1,2 0,0 0,1 0,1 0,3 0,4 -2,6 -1,1 -2,2 -4,2 0,0 -1,1 -1,1 0,0 0,0 -1,0l0 0zm2 -13c-3,0 -3,5 0,5 3,0 3,-5 0,-5l0 0z"/>
   </clipPath>
   <clipPath id="id13">
    <path d="M86 70c0,0 0,0 0,0 -1,0 -2,0 -2,0 -1,-1 -2,-1 -2,-1 -1,-1 -1,-1 -1,-2 -1,-1 -1,-1 -2,-2 0,-1 0,-1 0,-1 0,-1 0,-1 0,-2l0 0c0,-1 0,-1 1,-2 0,-1 0,-1 0,-2 1,-1 2,-3 4,-3 0,0 0,-1 0,-1 0,0 1,0 1,0 1,0 1,1 1,1 1,0 1,0 2,0 0,0 0,0 1,0 1,0 1,0 2,1 0,0 1,0 1,0 1,1 1,2 1,2 1,1 1,1 1,2 0,2 0,3 0,4 0,1 -1,2 -1,3 -1,1 -2,1 -2,2 -1,1 -2,1 -3,1 0,0 0,0 0,0 -1,0 -1,0 -1,0 0,0 0,0 -1,0 0,0 0,0 0,0l0 0zm3 -12c-2,0 -2,5 0,5 3,0 3,-5 0,-5z"/>
   </clipPath>
   <clipPath id="id14">
    <path d="M100 45c0,0 0,0 0,0 -1,-2 -3,-2 -5,-3 -1,-1 -2,-1 -3,-1 0,0 -1,0 -1,0 -1,0 -1,0 -2,0 -1,0 -2,1 -2,1 0,0 0,0 -1,0 0,0 0,0 0,-1 0,0 0,0 0,-1 0,0 1,0 1,0 0,-1 1,-1 1,-1 0,0 0,0 0,0 0,0 0,0 1,0 0,0 0,0 1,0 0,0 0,0 0,0 1,0 2,0 2,0 1,0 1,0 2,0 0,0 0,0 0,0 1,1 2,1 3,1 1,1 2,1 2,1 1,1 1,1 2,1 0,1 1,1 1,1 0,1 0,1 -1,2 0,0 0,0 -1,0 0,0 0,0 0,0l0 0z"/>
   </clipPath>
   <clipPath id="id15">
    <path d="M41 50c0,0 0,0 0,0 0,0 -1,-1 -1,-1 0,0 0,-1 1,-1 0,-1 1,-1 1,-2 1,-1 1,-2 2,-2 0,-1 1,-2 2,-2 1,-1 1,-1 2,-2 0,0 1,-1 2,-1 0,0 0,0 0,0 0,0 0,0 0,0 1,0 1,0 1,0 1,0 1,-1 2,-1 0,0 0,0 0,0 1,0 1,0 1,1l0 0c0,1 0,1 0,1 0,0 0,0 0,0 0,0 0,0 0,0 0,0 0,0 -1,0 -2,0 -3,1 -5,3 -1,0 -2,1 -3,2 0,1 -1,1 -2,2 0,1 -1,2 -1,2 0,1 0,1 -1,1l0 0z"/>
   </clipPath>
   <clipPath id="id16">
    <path d="M66 95c0,0 0,0 -1,-1 -2,0 -3,-2 -3,-4 0,-1 0,-1 0,-1 0,-1 1,-1 2,-1 0,0 0,0 0,0 1,1 1,1 1,1 0,1 1,3 2,3 0,0 0,0 0,-1 1,0 2,-1 2,-2 0,-2 0,-5 0,-7l0 0c-3,-2 -5,-5 -7,-8 0,0 0,0 0,0 0,0 0,0 0,0 0,-1 0,-1 0,-2 1,0 2,-1 4,-1 1,-1 3,-1 5,-1 1,0 1,0 2,0 2,1 4,1 5,3 0,0 0,0 0,0 0,1 0,1 0,1 0,0 0,1 0,1 -1,0 -1,0 -1,1 -2,1 -3,3 -4,5 0,0 0,0 0,0 0,0 0,0 0,0 -1,2 -1,5 0,8 0,1 1,2 3,2 0,0 0,0 0,0 2,-1 2,-3 2,-4 0,-1 1,-2 2,-2 0,0 1,1 1,2 0,3 -2,7 -6,7 0,0 -1,0 -1,0 -1,0 -2,-1 -3,-2 0,0 -1,1 -1,1 0,0 0,0 -1,1 -1,0 -2,1 -3,1l0 0zm4 -23c0,0 0,0 0,0 -1,1 -2,1 -4,1 0,0 0,1 0,1 0,0 0,1 0,1 0,0 0,0 0,0 2,0 3,-1 4,-1 0,0 1,0 1,-1 0,0 -1,-1 -1,-1l0 0z"/>
   </clipPath>
   <clipPath id="id17">
    <path d="M57 62c-3,0 -3,-5 0,-5 3,0 3,5 0,5z"/>
   </clipPath>
   <clipPath id="id18">
    <path d="M89 63c-2,0 -2,-5 0,-5 3,0 3,5 0,5l0 0z"/>
   </clipPath>
   <clipPath id="id19">
    <path d="M66 75c0,0 0,-1 0,-1 0,0 0,-1 0,-1 2,0 3,0 4,-1 0,0 0,0 0,0 0,0 1,1 1,1 0,1 -1,1 -1,1 -1,0 -2,1 -4,1 0,0 0,0 0,0l0 0z"/>
   </clipPath>
 </defs>
 <g id="Layer_x0020_1">
  <metadata id="CorelCorpID_0Corel-Layer"/>
  <g style="clip-path:url(#id0)">
   <image transform="matrix(0 -1 -1 0 138.284 211.956)" x="0" y="0" width="21.6456" height="129.564" xlink:href="Dog23_Images\Dog23_ImgID1.png"/>
  </g>
  <g style="clip-path:url(#id1)">
   <image transform="matrix(0 -1 -1 0 38.8999 82.3922)" x="0" y="0" width="59.5837" height="39.4897" xlink:href="Dog23_Images\Dog23_ImgID2.png"/>
  </g>
  <g style="clip-path:url(#id2)">
   <image transform="matrix(0 -1 -1 0 28.0771 199.232)" x="0" y="0" width="6.98247" height="7.7583" xlink:href="Dog23_Images\Dog23_ImgID3.png"/>
  </g>
  <g style="clip-path:url(#id3)">
   <image transform="matrix(0 -1 -1 0 35.7966 196.517)" x="0" y="0" width="50.6617" height="20.8698" xlink:href="Dog23_Images\Dog23_ImgID4.png"/>
  </g>
  <g style="clip-path:url(#id4)">
   <image transform="matrix(0 -1 -1 0 48.559 201.56)" x="0" y="0" width="10.8616" height="18.9302" xlink:href="Dog23_Images\Dog23_ImgID5.png"/>
  </g>
  <g style="clip-path:url(#id5)">
   <image transform="matrix(0 -1 -1 0 119.741 199.62)" x="0" y="0" width="7.7583" height="16.9907" xlink:href="Dog23_Images\Dog23_ImgID6.png"/>
  </g>
  <g style="clip-path:url(#id6)">
   <image transform="matrix(0 -1 -1 0 125.56 198.456)" x="0" y="0" width="7.37038" height="5.81872" xlink:href="Dog23_Images\Dog23_ImgID7.png"/>
  </g>
  <g style="clip-path:url(#id7)">
   <image transform="matrix(0 -1 -1 0 130.176 193.413)" x="0" y="0" width="46.3946" height="21.6456" xlink:href="Dog23_Images\Dog23_ImgID8.png"/>
  </g>
  <g style="clip-path:url(#id8)">
   <image transform="matrix(0 -1 -1 0 118.578 202.685)" x="0" y="0" width="99.3838" height="90.1514" xlink:href="Dog23_Images\Dog23_ImgID9.png"/>
  </g>
  <g style="clip-path:url(#id9)">
   <image transform="matrix(0 -1 -1 0 90.3374 118.352)" x="0" y="0" width="45.6188" height="40.9638" xlink:href="Dog23_Images\Dog23_ImgID10.png"/>
  </g>
  <g style="clip-path:url(#id10)">
   <image transform="matrix(0 -1 -1 0 124.008 115.287)" x="0" y="0" width="116" height="105" xlink:href="Dog23_Images\Dog23_ImgID11.png"/>
  </g>
  <g style="clip-path:url(#id11)">
   <image transform="matrix(0 -1 -1 0 148.719 81.2284)" x="0" y="0" width="56.0925" height="41.3517" xlink:href="Dog23_Images\Dog23_ImgID12.png"/>
  </g>
  <g style="clip-path:url(#id12)">
   <image transform="matrix(0 -1 -1 0 63.261 70.7547)" x="0" y="0" width="17.7665" height="16.2148" xlink:href="Dog23_Images\Dog23_ImgID13.png"/>
  </g>
  <g style="clip-path:url(#id13)">
   <image transform="matrix(0 -1 -1 0 94.9924 70.7547)" x="0" y="0" width="16.6028" height="15.8269" xlink:href="Dog23_Images\Dog23_ImgID14.png"/>
  </g>
  <g style="clip-path:url(#id14)">
   <image transform="matrix(0 -1 -1 0 102.324 45.2687)" x="0" y="0" width="6.59455" height="16.9907" xlink:href="Dog23_Images\Dog23_ImgID15.png"/>
  </g>
  <g style="clip-path:url(#id15)">
   <image transform="matrix(0 -1 -1 0 54.7268 50.3116)" x="0" y="0" width="12.8012" height="14.6632" xlink:href="Dog23_Images\Dog23_ImgID16.png"/>
  </g>
  <g style="clip-path:url(#id16)">
   <image transform="matrix(0 -1 -1 0 81.0275 95.1158)" x="0" y="0" width="25.5248" height="19.7061" xlink:href="Dog23_Images\Dog23_ImgID17.png"/>
  </g>
  <g style="clip-path:url(#id17)">
   <image transform="matrix(0 -1 -1 0 60.1576 62.2982)" x="0" y="0" width="5.04289" height="6.59455" xlink:href="Dog23_Images\Dog23_ImgID18.png"/>
  </g>
  <g style="clip-path:url(#id18)">
   <image transform="matrix(0 -1 -1 0 92.6649 63.4619)" x="0" y="0" width="5.43081" height="6.59455" xlink:href="Dog23_Images\Dog23_ImgID19.png"/>
  </g>
  <g style="clip-path:url(#id19)">
   <image transform="matrix(0 -1 -1 0 71.0193 75.0218)" x="0" y="0" width="3.10332" height="5.81872" xlink:href="Dog23_Images\Dog23_ImgID20.png"/>
  </g>
 </g>
</svg>
