<?xml version="1.0" encoding="UTF-8"?>
<!DOCTYPE svg PUBLIC "-//W3C//DTD SVG 1.1//EN" "http://www.w3.org/Graphics/SVG/1.1/DTD/svg11.dtd">
<!-- Creator: CorelDRAW X7 -->
<svg xmlns="http://www.w3.org/2000/svg" xml:space="preserve" width="2.57065in" height="2.06043in" version="1.1" style="shape-rendering:geometricPrecision; text-rendering:geometricPrecision; image-rendering:optimizeQuality; fill-rule:evenodd; clip-rule:evenodd"
viewBox="0 0 2387 1913"
 xmlns:xlink="http://www.w3.org/1999/xlink">
 <defs>
  <style type="text/css">
   <![CDATA[
    .fil1 {fill:#B68D50}
    .fil0 {fill:#9E6F4D}
    .fil3 {fill:#71503A}
    .fil4 {fill:#5E3F31}
    .fil2 {fill:#4E3D2F}
    .fil5 {fill:#2F2C2C}
   ]]>
  </style>
 </defs>
 <g id="Layer_x0020_1">
  <metadata id="CorelCorpID_0Corel-Layer"/>
  <path class="fil0" d="M818 769c0,0 -314,9 -471,-37 -158,-45 -347,-195 -347,-195l67 137c0,0 -32,-12 -67,-38 0,0 29,81 99,121l-44 -3c0,0 73,67 163,101l-46 0c0,0 23,65 131,96l-38 0c0,0 64,74 189,93l-58 0c0,0 79,58 256,-22 178,-79 166,-253 166,-253z"/>
  <path class="fil1" d="M818 769c0,0 -43,1 -105,1 -28,48 -69,90 -115,124 -70,49 -158,61 -227,19 46,6 75,-25 116,-37 -155,-61 -323,-136 -446,-255l26 53c0,0 -32,-12 -67,-38 0,0 29,81 99,121l-44 -3c0,0 73,67 163,101l-46 0c0,0 23,65 131,96l-38 0c0,0 64,74 189,93l-58 0c0,0 79,58 256,-22 178,-79 166,-253 166,-253z"/>
  <path class="fil2" d="M1616 1496c3,9 52,173 189,311l190 0c0,0 -19,-76 -128,-101l-59 -271 -192 61z"/>
  <path class="fil2" d="M409 1560l0 163c0,0 57,-11 77,58l-171 0c0,0 -53,-186 94,-221z"/>
  <path class="fil3" d="M2205 79c0,0 -63,-90 -171,-78 -109,12 -163,183 -276,443 -113,260 -858,290 -947,319 -90,30 -284,180 -284,513 0,0 -112,193 -262,236l26 401 190 0c0,0 3,-79 -86,-87 0,0 -85,-167 8,-194 93,-27 279,-35 396,-120 116,-86 93,-236 245,-236 151,0 174,282 545,344 -4,-30 -14,-60 -28,-87 80,25 150,78 197,147 7,-47 32,-92 68,-123 18,34 23,74 15,111 58,-61 103,-134 133,-213 22,-60 35,-123 69,-178 13,31 19,64 15,97 67,-138 47,-301 25,-453 11,16 22,33 32,49 58,-188 59,-394 4,-584 -8,-27 -18,-55 -35,-78 0,0 159,8 245,-58 85,-66 36,-160 36,-160l-160 -11z"/>
  <path class="fil0" d="M1968 79c0,0 -43,54 0,163 42,109 58,264 27,338l-15 -65c0,0 -16,173 -63,192l0 -51c0,0 -43,64 -105,67l35 -89c0,0 -29,57 -65,73 0,0 -2,-142 0,-214 3,-73 42,-434 186,-414z"/>
  <path class="fil4" d="M419 1598c0,0 312,-186 367,-294 56,-108 44,-323 96,-387 53,-65 577,-123 726,-120 148,3 215,148 197,250 -17,102 -139,274 -139,274 0,0 -35,-145 -56,-177l6 78c0,0 -26,-60 -128,-111 -102,-52 -64,59 -64,59 0,0 -157,-44 -218,-143l23 70c0,0 -93,-96 -181,-102 -87,-6 -157,76 -171,166 -15,90 -44,184 -129,248 -84,64 -329,189 -329,189z"/>
  <path class="fil3" d="M1705 1136c0,0 -54,273 -30,401l31 -47c0,0 -17,96 0,195l38 -61c0,0 18,158 67,289l184 0c0,0 -23,-65 -99,-68 0,0 1,-288 0,-416 0,-128 12,-472 12,-472 18,-201 -136,-259 -203,179z"/>
  <path class="fil0" d="M1808 1537c6,-58 6,-128 -40,-175 -6,-12 -35,12 -35,6 -49,-71 -42,-156 -27,-234l-1 2c0,0 -54,273 -30,401l31 -47c0,0 -17,96 0,195l38 -61c0,0 18,158 67,289l19 0c-41,-117 -36,-257 -22,-376z"/>
  <path class="fil4" d="M2064 46c19,-19 60,-5 73,18 0,0 -64,53 -78,108 0,0 -5,-36 -3,-46 0,0 -13,22 -15,56 0,0 -30,-87 23,-136z"/>
  <path class="fil5" d="M2094 91c0,7 -5,13 -13,13 -7,0 -12,-6 -12,-13 0,-7 5,-13 12,-13 8,0 13,6 13,13z"/>
  <path class="fil5" d="M2365 90c0,0 -57,6 -74,18 -17,12 37,38 37,38 0,0 -7,36 12,54 0,0 11,34 -42,73 0,0 76,-31 81,-116 0,0 24,-73 -14,-67z"/>
  <path class="fil0" d="M2031 302c64,134 75,285 81,431 -23,-35 -41,-64 -70,-93 24,58 6,122 18,180 -18,-17 -24,-46 -53,-52 62,196 87,371 76,542 36,-123 18,-260 0,-389 11,16 22,33 32,49 58,-188 59,-394 4,-584 -7,-25 -16,-51 -32,-72 -19,-4 -34,-16 -56,-12z"/>
  <path class="fil1" d="M1838 570c76,-128 24,-274 59,-414 3,-29 16,-56 39,-75 -118,34 -151,345 -154,412 -1,32 -1,79 -1,120 33,-50 52,-109 52,-171 0,41 23,87 5,128z"/>
 </g>
</svg>
