<?xml version="1.0" encoding="UTF-8"?>
<!DOCTYPE svg PUBLIC "-//W3C//DTD SVG 1.1//EN" "http://www.w3.org/Graphics/SVG/1.1/DTD/svg11.dtd">
<!-- Creator: CorelDRAW X7 -->
<svg xmlns="http://www.w3.org/2000/svg" xml:space="preserve" width="3.37474in" height="3.62465in" version="1.1" style="shape-rendering:geometricPrecision; text-rendering:geometricPrecision; image-rendering:optimizeQuality; fill-rule:evenodd; clip-rule:evenodd"
viewBox="0 0 3507 3767"
 xmlns:xlink="http://www.w3.org/1999/xlink">
 <defs>
  <style type="text/css">
   <![CDATA[
    .fil0 {fill:#4F4138;fill-rule:nonzero}
   ]]>
  </style>
 </defs>
 <g id="_2">
  <metadata id="CorelCorpID_0Corel-Layer"/>
  <path class="fil0" d="M1148 2616l120 0c0,0 -120,-198 -271,-186 -150,12 -179,348 -159,501 21,153 224,50 262,-41 39,-92 48,-274 48,-274z"/>
  <path class="fil0" d="M2483 2616l-121 0c0,0 121,-198 271,-186 151,12 180,348 159,501 -20,153 -223,50 -262,-41 -38,-92 -47,-274 -47,-274z"/>
  <path class="fil0" d="M1476 1753c19,-40 28,-88 27,-135 0,-16 8,-20 19,-9l38 36c11,10 32,14 46,7l14 -6c15,-7 20,-23 11,-36 -99,-152 -191,-191 -236,-200 -16,-3 -41,-5 -57,-3 -86,7 -188,81 -231,168 -109,226 -80,375 22,424 102,49 237,-19 347,-246z"/>
  <path class="fil0" d="M2514 1575c-42,-87 -145,-161 -231,-168 -16,-2 -41,0 -57,3 -44,9 -137,48 -236,200 -9,13 -4,30 11,36l14 6c14,7 35,3 46,-7l38 -36c12,-11 19,-7 19,9 -1,47 8,95 27,135 110,227 245,295 347,246 102,-49 132,-198 22,-424z"/>
  <path class="fil0" d="M1802 2890l9 0c-2,0 -3,0 -5,0 -1,0 -2,0 -4,0z"/>
  <path class="fil0" d="M1909 2630c-28,1 -73,3 -109,4 -26,1 -68,-2 -97,-4 -15,-1 -29,11 -30,27 -3,68 4,236 133,233 130,3 136,-165 133,-233 0,-16 -14,-28 -30,-27z"/>
  <path class="fil0" d="M2206 1954c-36,-42 -73,-99 -108,-176 -6,-13 -11,-26 -15,-40 -7,-23 -16,-36 -24,-29 -8,7 -46,-2 -84,-20 -39,-19 -64,-43 -56,-56l13 -22c10,-15 19,-29 29,-42 16,-23 -9,-78 -60,-122 -51,-44 -137,-44 -186,0 -49,43 -73,98 -56,122 10,13 19,27 29,42 0,0 6,10 14,22 8,13 -18,37 -56,56 -39,18 -77,27 -85,20 -8,-7 -17,6 -23,29 -5,14 -10,27 -16,40 -35,78 -73,136 -110,178 -76,88 -187,147 -196,193 -6,29 -8,57 -8,85 0,217 116,320 290,364 152,39 281,-23 281,-91l0 -121c0,-32 -22,-69 -48,-88 -20,-14 -38,-30 -40,-41 -1,-5 0,-10 3,-14 1,-2 3,-3 5,-4 4,-2 32,-9 64,-12 13,-1 28,-1 42,-1l2 0c15,0 29,0 42,1 32,3 60,10 64,12 2,1 4,2 6,4 3,4 4,9 3,14 -3,11 -21,27 -41,41 -25,19 -48,56 -48,88 0,0 0,54 0,121 0,68 130,130 282,91 174,-44 290,-147 290,-364 0,-29 -3,-57 -8,-85 -8,-46 -116,-108 -191,-195zm-528 23l0 0c-21,0 -38,-17 -38,-39 0,-21 17,-38 38,-38 21,0 39,17 39,38 0,22 -18,39 -39,39zm287 0l0 0c-21,0 -39,-17 -39,-39 0,-21 17,-38 39,-38 21,0 38,17 38,38 0,22 -17,39 -38,39z"/>
  <path class="fil0" d="M751 1371c0,187 -152,339 -339,339 -187,0 -339,-152 -339,-339 0,-187 152,-338 339,-338 187,0 339,151 339,338z"/>
  <path class="fil0" d="M1384 1020c0,92 -74,167 -167,167 -92,0 -167,-75 -167,-167 0,-93 75,-167 167,-167 93,0 167,74 167,167z"/>
  <path class="fil0" d="M3204 1746c0,112 -91,203 -203,203 -112,0 -203,-91 -203,-203 0,-112 91,-203 203,-203 112,0 203,91 203,203z"/>
  <path class="fil0" d="M925 575c0,39 -32,71 -71,71 -39,0 -71,-32 -71,-71 0,-39 32,-71 71,-71 39,0 71,32 71,71z"/>
  <path class="fil0" d="M2146 865c0,73 -58,131 -131,131 -72,0 -130,-58 -130,-131 0,-72 58,-130 130,-130 73,0 131,58 131,130z"/>
  <path class="fil0" d="M1637 276c0,20 -16,36 -36,36 -20,0 -36,-16 -36,-36 0,-20 16,-36 36,-36 20,0 36,16 36,36z"/>
  <path class="fil0" d="M2165 36c0,20 -16,36 -36,36 -20,0 -36,-16 -36,-36 0,-20 16,-36 36,-36 20,0 36,16 36,36z"/>
  <path class="fil0" d="M2978 1125c0,51 -42,92 -93,92 -51,0 -92,-41 -92,-92 0,-51 41,-92 92,-92 51,0 93,41 93,92z"/>
  <path class="fil0" d="M2497 482c0,51 -41,93 -92,93 -51,0 -92,-42 -92,-93 0,-51 41,-92 92,-92 51,0 92,41 92,92z"/>
  <g id="_423521939824">
   <path class="fil0" d="M1505 3266c5,-4 9,-8 13,-14 5,-6 7,-11 7,-15 0,-5 -1,-10 -3,-13 -2,-4 -5,-5 -8,-5 -5,0 -10,1 -13,3 -4,1 -7,4 -10,7 -2,3 -4,7 -6,10 -1,4 -3,9 -5,15 -2,6 -3,10 -4,14 0,4 0,7 0,10 4,0 9,-2 15,-4 5,-2 10,-5 14,-8z"/>
   <path class="fil0" d="M2032 3093c-7,-6 -16,-11 -27,-14 -10,-4 -24,-6 -41,-6 -12,0 -23,2 -33,7 -10,5 -19,11 -27,19 -8,8 -15,18 -21,29 -5,10 -10,22 -14,34 -4,12 -6,25 -8,38 -2,13 -3,25 -3,38 0,5 0,11 0,20 0,8 1,18 1,27 1,10 2,20 3,30 2,10 4,19 6,27 3,8 6,14 10,19 4,5 9,8 15,8 6,0 12,-2 16,-7 4,-4 8,-10 11,-17 3,-7 5,-14 7,-23 2,-9 3,-18 4,-27 1,-8 1,-17 2,-25 0,-8 0,-15 0,-20l0 -9c-10,-4 -18,-7 -24,-10 -6,-3 -10,-6 -13,-9 -3,-3 -5,-6 -5,-9 -1,-3 -2,-6 -2,-11 0,-2 0,-4 1,-6 0,-2 0,-4 1,-6 0,-2 1,-3 2,-4 1,-1 2,-2 4,-2 1,0 3,0 4,1 1,0 2,1 3,2 4,2 8,4 11,6 4,1 6,2 9,3 2,1 5,2 7,2 0,-1 0,-4 0,-9 0,-5 1,-10 1,-16 1,-7 2,-13 4,-20 1,-6 4,-12 7,-18 3,-6 7,-10 12,-14 5,-4 11,-5 18,-5 2,0 5,0 7,0 2,1 4,2 6,3 2,1 4,2 5,4 1,2 2,5 2,8 0,1 0,1 0,2 0,0 0,0 0,1l-11 48 -2 14c12,-1 22,-4 31,-8 9,-5 16,-9 21,-15 6,-6 10,-12 13,-18 3,-7 4,-14 4,-21 0,-7 -1,-14 -4,-21 -2,-7 -7,-14 -13,-20z"/>
   <path class="fil0" d="M2815 2651c19,101 20,211 10,284 -9,67 -51,107 -113,107 -79,0 -182,-68 -212,-140 -30,-72 -43,-193 -48,-251l-480 0c0,1 0,3 0,4 3,59 -2,166 -59,225 -27,29 -62,43 -103,43 -1,0 -2,0 -4,0 -1,0 -2,0 -3,0 -42,0 -76,-14 -103,-43 -58,-59 -62,-166 -60,-224 0,-2 1,-4 1,-5l-463 0c-4,58 -17,179 -47,251 -30,72 -133,140 -212,140 -62,0 -104,-40 -113,-107 -10,-73 -9,-183 9,-284l-815 0c0,312 120,547 324,720l83 396 74 0 53 -255c338,180 593,255 1113,255 519,0 988,-75 1326,-255l53 255 73 0 84 -396c204,-173 324,-408 324,-720l-692 0zm-1189 654l0 0c1,4 3,8 6,11 2,3 5,5 8,6 4,1 7,2 12,2 2,0 5,-1 9,-2 4,-1 8,-3 13,-5 4,-2 9,-5 14,-8 5,-3 10,-6 15,-9 5,-4 10,-7 15,-11 4,-4 8,-8 12,-12l0 47c-12,7 -22,13 -31,18 -10,5 -18,9 -25,13 -7,3 -14,6 -19,7 -6,2 -11,3 -15,3 -10,0 -18,-3 -25,-8 -7,-6 -13,-14 -17,-25 -2,-3 -3,-6 -4,-9 -5,4 -10,8 -15,12 -5,4 -11,7 -17,11 -6,4 -12,7 -19,10 -7,2 -14,5 -21,6 -7,2 -14,3 -21,3 -12,0 -22,-2 -30,-6 -9,-5 -16,-10 -22,-17 -2,-3 -4,-7 -6,-10 -3,2 -6,4 -9,6 -9,5 -18,8 -27,8 -4,0 -8,-1 -11,-2 -4,-1 -7,-3 -10,-5 -2,-3 -5,-6 -6,-10 -2,-4 -4,-9 -4,-14 -6,10 -13,20 -20,28 -7,8 -14,15 -22,21 -8,6 -16,11 -25,14 -9,3 -17,5 -27,5 -11,0 -21,-3 -29,-10 -8,-6 -15,-14 -20,-25 -5,-10 -9,-22 -11,-37 -2,-14 -3,-29 -3,-45 0,-6 0,-11 1,-16 0,-6 1,-10 1,-14 -4,28 -10,51 -17,70 -6,19 -14,34 -23,45 -9,11 -19,20 -31,24 -12,5 -24,8 -38,8 -9,0 -16,-3 -24,-8 -7,-6 -13,-14 -19,-24 -6,-11 -10,-24 -13,-40 -4,-16 -5,-34 -5,-55 0,-13 0,-27 2,-40 1,-14 3,-28 6,-41 3,-14 6,-28 10,-41 4,-13 9,-27 14,-39 3,-7 6,-13 9,-17 3,-4 6,-7 10,-9 3,-2 6,-3 9,-3 4,0 7,-1 10,-1 3,0 5,1 7,1 3,0 5,1 6,2 2,1 3,3 4,5 0,2 1,5 1,9 0,4 -1,11 -3,19 -2,8 -5,18 -8,29 -3,10 -6,22 -10,35 -3,12 -7,25 -10,38 -3,13 -5,26 -7,39 -2,13 -3,24 -3,35 0,9 0,17 1,25 1,8 3,14 6,20 2,5 5,10 9,13 4,3 8,5 13,5 5,0 10,-1 15,-4 4,-3 9,-8 13,-13 5,-5 9,-11 13,-18 4,-8 8,-15 12,-24 3,-8 7,-17 10,-26 3,-10 7,-19 10,-29 10,-33 19,-71 27,-113 1,-7 3,-13 5,-17 2,-5 5,-9 8,-11 2,-3 6,-5 9,-6 4,-1 9,-2 13,-2 5,0 9,1 12,1 3,1 5,2 7,4 2,1 3,3 4,5 1,2 1,5 1,7 0,1 -1,5 -1,11 -1,6 -3,14 -4,24 -2,10 -3,21 -5,34 -2,12 -4,25 -5,38 -2,13 -3,26 -4,39 -1,13 -1,25 -1,36 0,11 0,21 1,29 1,9 2,17 4,23 2,6 4,11 7,14 3,4 7,5 12,5 7,0 14,-3 21,-9 6,-6 12,-14 17,-24 6,-11 10,-22 15,-36 4,-13 8,-31 12,-53 4,-21 6,-32 6,-32 0,0 2,-12 4,-35 3,-24 5,-40 6,-49 1,-9 2,-16 3,-21 0,-5 1,-9 4,-13 2,-3 4,-5 7,-7 4,-2 7,-3 11,-4 4,0 9,-1 13,-1 3,0 6,1 9,1 3,1 5,2 7,3 2,2 3,4 5,6 1,3 1,6 1,10 0,11 -1,23 -3,36 -2,13 -5,26 -8,39 -3,14 -5,26 -6,39 -1,13 -3,25 -7,37 -5,12 -8,21 -9,29 -2,7 -3,12 -3,15 0,6 1,11 2,15 2,4 3,7 6,10 2,3 5,5 8,6 3,1 6,2 10,2 3,0 7,-1 11,-3 1,0 1,-1 2,-1 -1,-7 -2,-13 -2,-20 0,-7 1,-15 4,-24 2,-9 5,-18 8,-25 2,-7 6,-14 10,-21 4,-6 9,-12 15,-17 5,-5 11,-9 18,-12 7,-3 15,-5 23,-5 7,0 13,1 19,4 6,2 11,5 16,9 4,4 7,9 10,14 2,6 3,12 3,19 0,8 -2,16 -7,25 -5,9 -11,17 -17,24 -7,6 -15,12 -24,18 -9,5 -19,9 -30,12 2,3 4,5 6,8 1,2 3,3 5,5 2,1 4,2 6,2 2,1 4,1 7,1 7,0 15,-2 23,-4 8,-3 16,-7 24,-11 7,-5 15,-9 21,-14 5,-4 10,-8 14,-11 -2,-13 -3,-26 -3,-41 0,-7 1,-15 1,-24 1,-8 2,-16 3,-24 -4,-1 -7,-1 -9,-2 -2,0 -4,-1 -6,-1 -3,-1 -6,-1 -9,-2 -4,0 -9,-1 -15,-2 -3,0 -6,-1 -7,-2 -2,-1 -3,-3 -4,-4 0,-2 -1,-4 -1,-5 0,-2 0,-3 0,-5 0,-2 1,-3 3,-4 3,-1 6,-2 10,-2 3,-1 8,-1 12,-1 5,0 9,0 13,0 4,0 8,0 11,0 3,0 6,0 7,0 3,-17 7,-33 12,-48 5,-15 11,-29 17,-41 7,-12 14,-22 21,-29 8,-7 15,-11 24,-11 5,0 10,1 14,4 4,3 8,7 11,12 3,5 5,11 7,17 2,7 3,14 3,21 0,6 -1,12 -3,18 -2,7 -4,13 -7,20 -3,7 -6,14 -10,21 -4,7 -8,14 -13,20 1,0 3,0 6,0 2,0 5,1 9,1 3,0 7,0 10,0 4,0 8,0 12,0 4,0 7,1 10,1 3,0 6,0 8,0 2,0 4,2 5,4 1,3 2,6 2,10 0,5 -1,8 -4,11 -2,3 -5,4 -8,4l-70 0c-4,5 -8,10 -11,15 -4,5 -7,9 -10,13 -1,7 -1,15 -1,22 -1,3 -1,7 -1,10 0,3 0,7 0,10 0,3 0,6 -1,9 0,3 0,6 0,9 0,6 1,12 2,17zm353 -66l0 0c-1,9 -1,17 -1,24 0,4 0,7 0,10 -1,3 -1,6 -1,9 0,2 0,5 0,7 0,2 0,3 0,4 0,8 -1,17 -3,26 -2,10 -4,19 -8,27 -3,9 -7,18 -12,25 -5,8 -11,15 -17,21 -7,6 -14,11 -22,14 -8,4 -17,5 -26,5 -10,0 -19,-2 -27,-7 -8,-6 -15,-13 -21,-21 -6,-9 -11,-19 -15,-31 -4,-11 -7,-23 -10,-36 -2,-12 -4,-25 -5,-38 -1,-12 -2,-24 -2,-36 0,-19 2,-38 5,-56 4,-18 9,-34 16,-50 6,-16 14,-30 24,-43 9,-13 20,-24 32,-34 11,-9 24,-16 38,-21 14,-5 29,-8 45,-8 20,0 38,3 54,9 16,5 29,13 39,22 10,9 18,20 23,32 6,11 8,24 8,37 0,12 -2,24 -7,35 -4,12 -12,23 -21,33 -9,10 -21,18 -36,26 -14,7 -31,12 -50,15zm661 102l0 0c-10,5 -21,10 -32,13 -11,4 -22,7 -33,9 -11,3 -22,4 -32,4 -7,0 -14,-1 -20,-2 -6,-2 -12,-4 -17,-6 -4,-3 -8,-7 -11,-11 -3,-5 -5,-10 -5,-16 -2,0 -4,0 -5,0 -1,1 -2,1 -3,1 -3,1 -5,2 -7,3 -9,3 -17,4 -25,4 -6,0 -12,0 -18,-2 -5,-1 -10,-4 -14,-7 -5,-4 -8,-8 -11,-13 -2,-6 -3,-12 -3,-20 -5,10 -9,19 -14,27 -4,8 -9,15 -13,21 -5,6 -10,11 -15,14 -5,3 -10,5 -15,5 -1,0 -3,-1 -4,-4 -1,-3 -3,-6 -3,-11 -1,-4 -2,-9 -2,-15 -1,-6 -1,-12 -2,-19 0,-7 0,-13 0,-20 -1,-7 -1,-14 -1,-21l-5 -1c-3,14 -8,26 -12,37 -5,11 -10,21 -16,29 -5,8 -11,14 -17,18 -6,5 -11,7 -17,7 -9,0 -16,-7 -20,-21 -1,-1 -1,-2 -1,-3 -3,3 -5,5 -8,8 -6,4 -12,9 -19,12 -7,3 -14,5 -20,5 -8,0 -15,-3 -21,-8 -5,-5 -10,-12 -14,-22 -3,3 -6,7 -11,10 -4,4 -9,7 -14,10 -5,2 -10,5 -16,7 -5,1 -11,2 -16,2 -6,0 -12,-1 -18,-3 -5,-3 -10,-6 -14,-11 -5,-4 -8,-10 -11,-16 -2,-7 -4,-14 -4,-22 0,-9 2,-19 4,-28 3,-10 7,-20 12,-32 6,-11 12,-20 18,-29 6,-8 13,-15 20,-21 8,-6 15,-11 24,-15 8,-3 16,-5 25,-5 2,0 5,1 6,2 2,1 3,2 4,3 1,2 2,3 3,5 1,1 2,2 4,3 1,0 3,1 4,1 2,0 4,0 5,0 2,0 3,0 4,0 2,0 3,0 4,0 2,0 4,0 6,1 1,0 3,1 4,2 1,1 2,3 3,5 0,2 1,5 1,9 0,6 -1,13 -2,20 -1,7 -3,14 -4,22 -2,7 -4,16 -6,25 -2,10 -3,18 -3,24 0,6 1,10 2,14 1,3 3,4 7,4 2,0 5,0 8,-2 2,-1 5,-3 8,-5 3,-2 6,-4 9,-7 3,-2 5,-5 8,-8 1,-1 2,-2 2,-2 0,-6 0,-11 0,-18 0,-13 0,-25 0,-36 0,-9 0,-18 0,-27 0,1 0,1 0,0 0,-2 0,-3 0,-4 0,-3 0,-6 0,-10 0,-4 0,0 0,10 0,2 0,3 0,4 0,0 1,-1 1,-3 1,-3 2,-7 4,-11 2,-4 4,-8 6,-11 3,-4 6,-6 10,-9 3,-2 7,-3 12,-3l5 1c6,0 10,1 13,3 3,2 5,5 5,8l-15 107 3 0c5,-13 10,-25 15,-38 4,-13 8,-23 12,-32 3,-8 6,-15 9,-21 3,-6 7,-11 10,-15 4,-4 8,-7 13,-9 5,-2 10,-3 16,-3 6,0 10,1 13,3 3,2 4,5 4,8l-17 107 3 0 45 -106c2,-3 5,-6 10,-9 5,-2 11,-4 17,-4 7,0 13,2 17,5 5,3 7,6 7,11 0,3 -1,7 -2,11 -1,4 -2,7 -4,11 -1,3 -2,6 -4,8 -1,3 -1,4 -2,4 -2,5 -5,11 -8,18 -3,6 -5,11 -7,14 -2,4 -4,7 -5,11 1,4 4,9 6,12 3,4 5,7 9,9 3,3 7,4 12,4 4,0 9,-1 14,-3 5,-2 10,-5 15,-7 6,-3 11,-7 17,-11l0 3c0,0 0,0 0,0 4,-4 9,-9 13,-14 4,-5 8,-10 10,-13 3,-3 6,-7 9,-12 4,-4 8,-10 13,-17 5,-6 11,-14 19,-24 1,-3 3,-5 5,-7 2,-2 4,-4 7,-5 2,-2 5,-4 7,-5 3,-1 7,-1 10,-1 6,0 10,0 14,2 3,1 5,3 7,5 1,1 2,3 2,5 0,2 1,4 1,6 0,3 -2,6 -4,9 -2,4 -5,8 -8,11 -2,3 -5,6 -8,9 -2,3 -4,5 -4,6 0,4 0,8 1,11 0,3 1,6 2,9 1,3 2,6 3,10 1,3 2,7 3,12 1,4 1,10 0,18 0,8 -1,16 -1,23 5,-3 9,-5 15,-8 5,-2 10,-5 15,-7 6,-3 12,-6 17,-9 6,-3 12,-7 18,-11l0 41c-7,6 -16,11 -26,16z"/>
   <path class="fil0" d="M2140 3232c-4,4 -8,9 -12,15 -3,5 -7,12 -10,20 -4,8 -6,15 -7,21 -2,6 -3,12 -3,17 0,3 1,6 1,9 1,3 1,6 2,8 1,3 3,4 5,6 2,1 4,2 7,2 4,0 8,-2 12,-6 4,-4 7,-8 10,-14 2,-6 5,-11 6,-17 2,-6 3,-11 3,-15l14 -60c-5,0 -10,2 -15,4 -4,3 -9,6 -13,10z"/>
   <path class="fil0" d="M1638 3167c4,-6 7,-13 11,-20 4,-7 8,-14 11,-21 3,-7 6,-14 8,-20 2,-6 3,-11 3,-15 0,-1 0,-2 0,-4 0,-2 -1,-3 -1,-5 -1,-1 -2,-2 -3,-3 -1,-1 -3,-2 -6,-2 -3,0 -6,3 -9,8 -3,6 -7,13 -10,22 -3,9 -5,18 -8,29 -3,10 -5,20 -7,30 1,0 3,0 5,1 2,0 4,0 6,0z"/>
   <path class="fil0" d="M2560 3285c0,-5 0,-9 -1,-12 0,-3 -1,-5 -2,-7l-51 53c2,0 3,1 5,3 2,2 4,4 6,6 3,3 5,5 8,6 4,2 7,3 11,3 5,0 9,-1 12,-2 3,-2 5,-4 7,-7 2,-2 3,-5 4,-9 1,-3 1,-7 1,-11 0,-3 0,-7 0,-10 -1,-4 -1,-8 0,-13z"/>
  </g>
 </g>
</svg>
