<?xml version="1.0" encoding="UTF-8"?>
<!DOCTYPE svg PUBLIC "-//W3C//DTD SVG 1.1//EN" "http://www.w3.org/Graphics/SVG/1.1/DTD/svg11.dtd">
<!-- Creator: CorelDRAW X7 -->
<svg xmlns="http://www.w3.org/2000/svg" xml:space="preserve" width="1.24466in" height="0.673469in" version="1.1" style="shape-rendering:geometricPrecision; text-rendering:geometricPrecision; image-rendering:optimizeQuality; fill-rule:evenodd; clip-rule:evenodd"
viewBox="0 0 1609 870"
 xmlns:xlink="http://www.w3.org/1999/xlink">
 <defs>
  <style type="text/css">
   <![CDATA[
    .fil0 {fill:#4F4138;fill-rule:nonzero}
   ]]>
  </style>
 </defs>
 <g id="_2">
  <metadata id="CorelCorpID_0Corel-Layer"/>
  <g id="_423672009984">
   <path class="fil0" d="M1436 252c0,0 36,-124 -119,-114 0,0 -87,-170 -283,-87 0,0 -181,-124 -325,15 0,0 -155,-129 -232,-10 0,0 -180,10 -160,103 0,0 -180,-26 -149,93l1268 0z"/>
   <path class="fil0" d="M780 496c-7,0 -12,5 -12,12 0,7 5,12 12,12 7,0 12,-5 12,-12 0,-7 -5,-12 -12,-12z"/>
   <path class="fil0" d="M871 496c-7,0 -12,5 -12,12 0,7 5,12 12,12 7,0 12,-5 12,-12 0,-7 -5,-12 -12,-12z"/>
   <path class="fil0" d="M1607 841l-162 -529c-5,-16 -23,-29 -40,-29l-1206 0c-17,0 -35,13 -40,29l-158 529c-5,16 5,29 22,29l1563 0c17,0 26,-13 21,-29zm-1002 -314l0 0c-32,-16 -42,-63 -7,-135 14,-27 46,-51 74,-53 5,-1 13,0 18,1 14,3 43,15 75,63 3,5 1,10 -4,12l-4 2c-5,2 -11,1 -15,-3l-12 -11c-4,-3 -6,-2 -6,3 0,15 -2,30 -9,43 -35,72 -78,94 -110,78zm214 284l0 0c1,0 1,0 2,0 0,0 0,0 1,0l-3 0zm2 0l0 0c-42,1 -44,-53 -43,-75 0,-5 5,-8 10,-8 9,1 22,1 31,1 11,0 25,-1 34,-1 5,0 10,3 10,8 1,22 -1,76 -42,75zm98 -93l0 0c-49,12 -90,-8 -90,-29 0,-21 0,-39 0,-39 0,-10 7,-22 15,-28 7,-4 12,-9 13,-13 1,-2 0,-3 -1,-4 0,-1 -1,-1 -2,-2 -1,0 -10,-2 -20,-3 -4,-1 -9,-1 -13,-1l-1 0c-4,0 -9,0 -13,1 -10,1 -19,3 -20,3 -1,1 -2,1 -2,2 -1,1 -2,2 -1,4 1,4 6,9 13,13 8,6 15,18 15,28l0 39c0,21 -41,41 -90,29 -55,-14 -92,-47 -92,-116 0,-9 1,-18 3,-27 2,-15 38,-33 62,-61 12,-14 24,-32 35,-57 2,-4 4,-8 5,-13 2,-7 5,-11 8,-9 2,2 14,-1 26,-7 13,-5 21,-13 18,-17 -2,-4 -4,-7 -4,-7 -3,-5 -6,-10 -9,-14 -6,-7 2,-25 18,-39 15,-13 42,-13 59,1 16,13 24,31 19,38 -3,5 -6,9 -9,14l-5 7c-2,4 6,12 18,17 12,6 24,9 27,7 2,-2 5,2 7,9 2,5 3,9 5,13 12,24 23,42 35,56 23,28 58,47 60,62 2,9 3,18 3,27 0,69 -37,102 -92,116zm120 -191l0 0c-33,16 -76,-6 -111,-78 -6,-13 -9,-28 -8,-43 0,-5 -3,-6 -6,-3l-12 11c-4,4 -11,5 -15,3l-5 -2c-4,-2 -6,-7 -3,-12 31,-48 61,-60 75,-63 5,-1 13,-2 18,-1 27,2 60,26 74,53 34,72 25,119 -7,135z"/>
  </g>
 </g>
</svg>
