<?xml version="1.0" encoding="UTF-8"?>
<!DOCTYPE svg PUBLIC "-//W3C//DTD SVG 1.1//EN" "http://www.w3.org/Graphics/SVG/1.1/DTD/svg11.dtd">
<!-- Creator: CorelDRAW X7 -->
<svg xmlns="http://www.w3.org/2000/svg" xml:space="preserve" width="2.36852in" height="1.857in" version="1.1" style="shape-rendering:geometricPrecision; text-rendering:geometricPrecision; image-rendering:optimizeQuality; fill-rule:evenodd; clip-rule:evenodd"
viewBox="0 0 2006 1573"
 xmlns:xlink="http://www.w3.org/1999/xlink">
 <defs>
  <style type="text/css">
   <![CDATA[
    .fil3 {fill:black;fill-rule:nonzero}
    .fil6 {fill:#110000;fill-rule:nonzero}
    .fil5 {fill:#342313;fill-rule:nonzero}
    .fil4 {fill:#446748;fill-rule:nonzero}
    .fil1 {fill:#462F0F;fill-rule:nonzero}
    .fil0 {fill:#563A1A;fill-rule:nonzero}
    .fil2 {fill:#6B4826;fill-rule:nonzero}
   ]]>
  </style>
 </defs>
 <g id="__x0023_Layer_x0020_2">
  <metadata id="CorelCorpID_0Corel-Layer"/>
  <path class="fil0" d="M1982 681c-53,-43 -162,-27 -221,0 -29,14 -42,38 -23,59 8,10 24,17 41,21 3,4 6,8 11,11 2,4 4,7 6,10 16,18 45,24 73,20 40,-5 87,-15 113,-37 31,-27 33,-57 0,-84z"/>
  <path class="fil1" d="M504 951c0,0 40,445 -6,496 -45,51 182,51 182,21 0,-30 0,-478 0,-478l-176 -39z"/>
  <path class="fil1" d="M1416 950c0,0 39,448 -7,499 -45,52 182,49 182,19 0,-31 0,-479 0,-479l-175 -39z"/>
  <path class="fil2" d="M1916 960c-15,-85 -51,-174 -112,-236 -74,-74 -161,-92 -263,-95 -128,-4 -257,-9 -385,-14l0 1c-114,-22 -192,-57 -196,-113 -16,-205 -182,-442 -286,-475 -104,-33 -143,-46 -209,15 -168,204 -430,194 -430,194 0,0 -12,316 336,319 69,444 232,580 255,634 24,57 62,277 16,337 -45,61 189,59 195,5 6,-55 31,-193 40,-251 0,-3 191,-27 206,-29 109,-15 217,-40 321,-74 118,-39 255,-67 306,79 23,68 25,181 -26,239 -46,52 205,46 211,0 6,-45 34,-461 21,-536z"/>
  <path class="fil3" d="M410 203l-3 0c-38,0 -38,59 0,59l3 0c38,0 38,-59 0,-59z"/>
  <path class="fil4" d="M579 726c-36,4 -136,3 -196,-1 -59,-3 -43,-148 -6,-142 6,15 11,48 11,48 333,17 534,-221 552,-250 18,-29 92,31 66,75 -26,44 -117,236 -427,270z"/>
  <path class="fil5" d="M542 84c-37,-78 167,-84 195,24 28,109 63,396 -83,446 -142,31 -75,-392 -112,-470z"/>
  <path class="fil6" d="M165 385c-11,15 -25,28 -42,36 0,-1 0,-2 -1,-3 -14,-32 -35,-68 -39,-104 62,-19 56,-126 -20,-126 -83,0 -84,126 -3,129 5,39 26,78 42,113 0,0 1,1 1,1 -5,8 1,22 12,18 30,-9 53,-27 71,-53 8,-12 -12,-24 -21,-11z"/>
 </g>
</svg>
