<?xml version="1.0" encoding="UTF-8"?>
<!DOCTYPE svg PUBLIC "-//W3C//DTD SVG 1.1//EN" "http://www.w3.org/Graphics/SVG/1.1/DTD/svg11.dtd">
<!-- Creator: CorelDRAW X7 -->
<svg xmlns="http://www.w3.org/2000/svg" xml:space="preserve" width="2.76507in" height="2.27028in" version="1.1" style="shape-rendering:geometricPrecision; text-rendering:geometricPrecision; image-rendering:optimizeQuality; fill-rule:evenodd; clip-rule:evenodd"
viewBox="0 0 2069 1699"
 xmlns:xlink="http://www.w3.org/1999/xlink">
 <defs>
  <style type="text/css">
   <![CDATA[
    .fil1 {fill:#2A1A11;fill-rule:nonzero}
    .fil3 {fill:#342313;fill-rule:nonzero}
    .fil0 {fill:#5E492A;fill-rule:nonzero}
    .fil2 {fill:#7E603B;fill-rule:nonzero}
   ]]>
  </style>
 </defs>
 <g id="__x0023_Layer_x0020_2">
  <metadata id="CorelCorpID_0Corel-Layer"/>
  <path class="fil0" d="M1595 1142c0,0 2,416 -88,467 -123,69 106,54 160,51 55,-2 126,-539 126,-539l-194 0 -4 21z"/>
  <path class="fil1" d="M164 515c6,0 13,-2 20,-3 19,-4 38,-9 57,-16 15,-6 29,-12 43,-18 12,-6 24,-12 37,-18l-7 -14c-18,10 -37,18 -55,26 -15,7 -30,12 -45,17 -11,3 -22,6 -33,8 -7,1 -15,3 -23,3 -3,0 -6,0 -10,0 -1,0 -3,-1 -5,0 0,0 -1,1 -1,2 -1,2 0,5 1,6 2,3 4,5 6,6 4,2 9,1 15,1z"/>
  <path class="fil1" d="M479 154c-17,8 -25,28 -18,44 6,12 20,19 34,17 4,0 8,-1 11,-3 18,-8 26,-28 18,-44 -3,-7 -10,-13 -17,-15 -9,-3 -19,-3 -28,1z"/>
  <path class="fil1" d="M84 385c-1,-18 -20,-31 -43,-30 -1,0 -1,0 -2,0 -23,2 -41,19 -39,38 2,18 24,46 47,43 2,0 3,0 5,-1 21,-6 34,-33 32,-50z"/>
  <path class="fil0" d="M1982 889c15,-29 29,-59 44,-89 14,-31 50,-96 42,-130 -1,-4 -3,-7 -4,-9 -13,-18 -45,8 -62,23 -41,36 -82,75 -125,104 45,18 86,51 105,101z"/>
  <path class="fil2" d="M1986 827c-17,-23 -40,-42 -70,-55 -85,-35 -175,-7 -261,9 -68,13 -136,21 -206,13 -95,-11 -197,-26 -283,-71 -77,-39 -144,-98 -189,-173 -40,-66 -81,-146 -103,-221 -26,-90 -50,-181 -108,-257 -56,-73 -146,-89 -228,-55 -78,32 -136,93 -196,149 -40,37 -83,69 -130,97 -47,27 -99,43 -145,71 -11,7 -20,14 -26,21 23,-1 42,12 43,30 2,17 -11,44 -32,50 21,23 54,45 91,65 2,-1 4,0 5,0 4,0 7,0 10,0 8,0 16,-2 23,-3 11,-2 22,-5 33,-8 15,-5 30,-10 45,-17 18,-8 37,-16 55,-26l7 14c-13,6 -25,12 -37,18 -14,6 -28,12 -43,18 -27,10 -62,23 -91,18 13,2 35,31 50,38 19,7 40,10 61,10 88,-2 201,-56 286,-16 61,29 52,122 55,179 4,76 8,152 28,226 18,65 55,124 60,193 8,107 -29,210 -50,314 -9,40 -11,82 -29,119 -14,29 -48,54 -46,88 3,34 106,36 128,33 22,-4 57,-17 63,-43 20,-82 107,-421 107,-421 0,0 100,348 24,417 -49,45 97,28 150,20 52,-8 33,-355 26,-439 347,116 756,-14 756,-14 0,0 86,319 -37,413 -96,75 161,68 185,40 10,-12 25,-91 36,-189 12,-100 7,-200 5,-300 -1,-69 2,-136 11,-205 8,-54 -3,-108 -33,-150zm-1480 -615l0 0c-3,2 -7,3 -11,3 -14,2 -28,-5 -34,-17 -7,-16 1,-36 18,-44 9,-4 19,-4 28,-1 7,2 14,8 17,15 8,16 0,36 -18,44z"/>
  <path class="fil3" d="M597 497c-47,-36 -25,-107 -22,-163 4,-71 4,-228 53,-281 6,-6 11,-10 16,-12 42,-20 74,58 91,104 34,92 165,232 57,320 -40,32 -118,64 -170,45 -10,-3 -18,-8 -25,-13z"/>
 </g>
</svg>
