<?xml version="1.0" encoding="UTF-8"?>
<!DOCTYPE svg PUBLIC "-//W3C//DTD SVG 1.1//EN" "http://www.w3.org/Graphics/SVG/1.1/DTD/svg11.dtd">
<!-- Creator: CorelDRAW X7 -->
<svg xmlns="http://www.w3.org/2000/svg" xml:space="preserve" width="2.58376in" height="1.78609in" version="1.1" style="shape-rendering:geometricPrecision; text-rendering:geometricPrecision; image-rendering:optimizeQuality; fill-rule:evenodd; clip-rule:evenodd"
viewBox="0 0 2177 1505"
 xmlns:xlink="http://www.w3.org/1999/xlink">
 <defs>
  <style type="text/css">
   <![CDATA[
    .fil0 {fill:#DDCA91}
    .fil7 {fill:#CDB674}
    .fil2 {fill:#C8AC59}
    .fil6 {fill:#BB8F44}
    .fil1 {fill:#97834A}
    .fil4 {fill:#745433}
    .fil3 {fill:#3C3D3D}
    .fil5 {fill:#2F2F2F}
   ]]>
  </style>
 </defs>
 <g id="Layer_x0020_1">
  <metadata id="CorelCorpID_0Corel-Layer"/>
  <path class="fil0" d="M488 457c0,0 -32,86 -75,116 -43,30 -227,13 -324,-97 0,0 47,14 92,20 0,0 -130,-59 -171,-139 0,0 59,30 83,36 0,0 -79,-94 -93,-183 0,0 37,42 50,55 0,0 -53,-160 14,-234l9 66c83,-97 170,-71 220,-36 15,11 3,36 -16,30 -35,-10 -88,-9 -110,28 -38,61 -18,144 70,231 88,87 251,107 251,107l41 42 -41 -42z"/>
  <path class="fil1" d="M496 1188l-16 65c0,0 76,12 85,74l-147 0c0,0 -40,-122 78,-139z"/>
  <path class="fil1" d="M1287 1029c0,0 100,208 72,373l190 0c0,0 8,-79 -72,-91 0,0 -19,-215 60,-317l-250 35z"/>
  <path class="fil2" d="M1714 21c0,0 -155,279 -286,329 -131,49 -644,60 -810,76 -167,15 -254,97 -267,206 -14,108 0,478 0,478l-80 95 69 299 196 1c0,0 8,-83 -72,-94 0,0 -71,-111 0,-169 72,-58 257,-74 341,-238 0,0 357,-16 460,32 103,48 146,238 163,330 17,93 14,139 14,139l206 -1c0,0 0,-64 -80,-77 0,0 -60,-211 -55,-277 6,-66 270,-172 354,-339l35 -446c0,0 211,-35 232,-53 22,-19 0,-29 0,-29l43 -95 -148 -66 -14 -106c-100,-22 -200,-22 -301,5z"/>
  <path class="fil3" d="M1959 119c0,10 -8,18 -18,18 -10,0 -18,-8 -18,-18 0,-10 8,-18 18,-18 10,0 18,8 18,18z"/>
  <path class="fil4" d="M1851 119c0,0 37,-64 72,-73 35,-9 58,44 58,44 0,0 -65,-17 -130,29z"/>
  <path class="fil5" d="M2177 188c0,0 -30,-24 -91,-20 0,0 11,63 48,115 0,0 37,6 43,-95z"/>
  <path class="fil5" d="M1916 324c0,0 30,-26 83,-26 53,0 112,3 142,-33l-7 18c0,0 -23,24 -77,24 -55,0 -141,17 -141,17z"/>
  <path class="fil6" d="M1929 360c-114,-7 -165,-156 -165,-259 -28,34 -69,31 -113,21 -46,70 -113,157 -179,203 -30,174 106,352 271,399 -47,-42 -74,-105 -79,-169 26,64 79,101 137,127 -31,-63 -26,-137 -5,-201 44,49 69,108 84,169l22 -285c0,0 10,-2 27,-5z"/>
  <path class="fil0" d="M1968 159c-17,-9 -135,14 -154,29 -19,14 3,80 69,136 0,0 44,-45 76,-64 33,-18 64,-74 9,-101z"/>
  <path class="fil7" d="M641 711c98,34 191,132 164,293 -26,162 -276,202 -276,202 0,0 54,-25 65,-43 0,0 -87,42 -127,43 0,0 140,-83 151,-128 10,-45 39,-190 -67,-261 -105,-72 -7,-141 90,-106z"/>
  <path class="fil7" d="M1511 1464c-21,-111 26,-259 -64,-322 -30,-22 -36,74 -36,145 7,30 13,57 17,79 17,93 14,139 14,139l206 -1c0,0 0,-1 0,-4 -2,-3 -3,-6 -5,-9 -21,-48 -85,-48 -132,-27z"/>
  <path class="fil6" d="M1479 619c-5,116 69,221 159,285 -59,-5 -138,16 -180,-37 16,53 63,90 106,116 -64,0 -127,5 -180,-32 16,53 63,74 111,90 42,12 81,14 119,10 86,-61 202,-139 253,-240l4 -49c-143,62 -336,14 -392,-143z"/>
  <path class="fil7" d="M866 904c-32,-53 -26,-106 -21,-164 10,85 69,143 137,185 -42,-58 -53,-137 -37,-206 11,79 69,137 122,185 -27,-58 -48,-127 -21,-190 5,58 42,105 79,148 -92,-161 -48,-381 106,-478 -116,13 -259,21 -382,27 -19,24 -34,51 -46,81 -48,132 -53,317 63,412z"/>
  <path class="fil7" d="M406 1459c-32,-74 -26,-148 -10,-227 0,-22 -6,-80 -43,-53 -35,31 -56,79 -58,128l45 197 191 1c-3,-11 -8,-21 -14,-30 -26,-37 -79,-53 -111,-16z"/>
  <path class="fil2" d="M1796 82c0,0 -69,57 -39,131 30,74 85,122 39,169 -46,48 -164,-59 -185,-87 -21,-29 -44,-85 55,-194l130 -19z"/>
 </g>
</svg>
