<?xml version="1.0" encoding="UTF-8"?>
<!DOCTYPE svg PUBLIC "-//W3C//DTD SVG 1.1//EN" "http://www.w3.org/Graphics/SVG/1.1/DTD/svg11.dtd">
<!-- Creator: CorelDRAW X7 -->
<svg xmlns="http://www.w3.org/2000/svg" xml:space="preserve" width="2.76195in" height="4.06787in" version="1.1" style="shape-rendering:geometricPrecision; text-rendering:geometricPrecision; image-rendering:optimizeQuality; fill-rule:evenodd; clip-rule:evenodd"
viewBox="0 0 402 591"
 xmlns:xlink="http://www.w3.org/1999/xlink">
 <defs>
   <clipPath id="id0">
    <path d="M210 591l0 0c-2,0 -4,0 -6,0 -3,0 -5,-8 -7,-8 -1,0 -2,1 -4,2 -1,1 -2,2 -3,2 0,0 0,0 0,0 -2,0 -4,0 -7,0 0,0 0,0 0,0 -1,0 -2,0 -3,0 -1,0 -2,1 -3,1 0,0 -1,0 -1,0 0,0 0,0 0,0 -1,0 -2,0 -3,1 -1,0 -2,0 -3,0 0,0 0,0 0,0 -3,0 -5,-7 -7,-7 0,0 0,0 -1,0 -1,0 -1,0 -2,0 -1,0 -2,1 -3,1 0,0 -1,0 -1,0 -2,-1 -4,-1 -7,-1 0,0 0,0 0,0 -1,0 -2,2 -3,4 -1,2 -2,4 -4,4 0,0 0,0 0,0 -2,0 -4,-7 -6,-7 0,0 0,0 0,0 -1,0 -3,1 -4,2 -1,1 -2,2 -3,2 0,0 0,0 0,0 -2,0 -5,-3 -7,-3 0,0 0,0 0,0 -1,0 -2,0 -3,1 -1,0 -2,0 -3,0 0,0 0,0 -1,0 0,0 0,0 0,0 -1,0 -2,1 -3,2 -1,0 -2,1 -3,1 0,0 -1,0 -1,0 -2,0 -4,-3 -6,-3 -3,0 -4,-6 -7,-6 0,0 0,0 0,0 -1,0 -2,0 -3,0 -1,0 -2,1 -3,1 0,0 0,-1 -1,-1 0,0 0,0 0,0 -1,0 -2,1 -3,2 -1,1 -2,2 -3,2 0,0 0,0 -1,0 -2,-1 -4,-4 -6,-4 0,0 0,0 0,0 -1,0 -3,1 -4,3 -1,2 -2,3 -3,3 0,0 0,0 0,0 -3,0 -4,-8 -7,-8 0,0 0,0 0,0 -1,0 -2,1 -3,2 -1,1 -2,2 -4,2 0,0 0,0 0,0 -2,0 -4,-4 -6,-4 -2,-1 -4,-4 -7,-4 -2,-1 -4,-1 -6,-2 0,0 0,0 0,0 -1,0 -3,1 -4,2 -1,1 -2,3 -3,3 0,0 0,0 -1,0 -2,-1 -4,-2 -6,-3 0,0 -1,0 -1,0 -1,0 -2,1 -3,1 -1,0 -2,1 -3,1 0,0 0,0 -1,0 -2,-1 -4,-3 -6,-4 -3,-2 -6,-7 -6,-8l0 0c0,-2 4,-5 7,-7 0,0 0,0 1,0 0,0 1,0 2,0 1,1 2,1 3,1 0,0 1,0 1,0 2,-1 3,-6 6,-7 0,0 1,0 1,0 1,0 1,0 2,0 1,0 1,0 2,0 0,0 1,0 2,0 2,0 4,-2 6,-3 0,0 0,0 0,0 1,0 2,1 4,2 1,0 2,1 3,1 0,0 0,0 0,0 2,0 5,-2 7,-2 0,0 1,0 2,0 0,0 1,0 1,0 1,0 1,0 2,0 0,0 1,0 2,0 2,-1 4,-3 6,-3 2,0 4,-3 7,-4 0,0 0,0 0,0 1,0 2,2 3,4 1,1 2,2 3,3 0,0 0,0 0,0 1,0 1,0 1,0 0,0 0,0 0,0 2,-1 4,-5 6,-5 1,0 1,0 1,0 1,0 2,0 2,1 0,1 -1,2 -2,3 -2,3 -4,6 -6,8 -1,1 0,3 2,3 2,0 4,1 7,1l0 0c2,0 4,0 6,0 1,0 2,0 3,0 1,0 2,0 3,0 1,0 2,0 3,0 1,0 1,0 2,0 1,0 1,0 2,0 0,0 1,-1 2,-1 2,-1 5,-1 8,-1 1,0 1,0 2,0 2,0 3,0 4,0 2,0 3,1 5,1 1,0 1,0 2,0 1,0 1,0 2,0 0,-1 0,-1 1,-1 0,0 1,1 1,1 1,0 1,0 2,0 0,0 0,0 0,0 1,0 2,0 3,0 1,0 1,-1 2,-1 0,0 1,1 1,1 0,0 1,0 1,0 1,0 2,0 3,0 0,0 1,-1 1,-2 0,0 -1,-1 -1,-2 -1,-5 -4,-10 -8,-14 -1,-1 -3,-3 -5,-3 -1,0 -3,0 -4,-1 1,0 2,0 3,0 0,0 0,0 1,0 1,0 1,0 2,0 1,0 2,0 3,0 0,0 0,0 1,0 0,0 0,0 0,0 1,0 2,1 3,3 1,1 2,3 4,3 0,0 0,0 0,0 1,0 2,-1 3,-1 0,1 0,2 0,3 1,3 1,5 1,7 1,3 2,6 4,8 0,1 1,2 2,2 1,0 3,0 4,1 2,0 3,0 5,0 1,0 3,0 3,1 1,0 1,0 2,0 0,0 0,0 1,0 0,0 1,-1 1,-1 0,0 0,0 1,0 0,1 1,1 2,1 0,0 0,0 0,0 1,0 1,0 1,0 0,0 0,0 1,0 1,0 2,0 3,0 0,0 0,0 0,0 1,0 1,0 2,0 0,0 0,-1 1,-1 0,0 0,0 0,1 2,1 3,0 4,0 10,1 20,2 30,3 1,0 1,0 2,0 0,0 0,0 1,0 1,-1 2,-1 3,-1 2,0 3,0 5,0 4,0 7,1 11,1 1,0 2,0 3,0 1,0 3,0 4,-1 0,0 0,0 0,0 0,0 1,1 1,1 0,0 1,0 1,0 0,0 0,0 1,0 0,0 1,-1 1,-1 0,-2 1,-3 1,-4 1,-2 1,-4 0,-6 -1,-2 1,-4 -1,-6 0,-2 0,-4 0,-6 0,-1 0,-1 0,-2 2,1 3,2 4,3 0,0 0,0 0,0 0,0 0,0 0,0 0,0 0,0 0,1 0,1 1,1 1,2 0,1 1,1 1,1 0,0 0,0 0,0 2,-2 3,-4 5,-6 1,0 2,-1 3,-3 1,0 1,-1 2,-1 1,-1 2,-2 3,-2 2,1 4,3 6,3 0,0 0,0 0,0 -1,1 -2,1 -4,1 -3,1 -4,3 -6,6l0 0c-4,4 -6,8 -8,13 -1,1 -1,1 -1,2 2,5 1,5 6,6 1,0 1,0 2,0 0,0 0,0 0,0 2,-1 3,-1 5,-1 1,0 2,0 3,0 1,0 2,0 3,0 0,0 0,0 0,0 1,0 1,0 1,0 0,0 0,0 1,0 0,0 0,0 0,0 1,0 1,0 1,0 1,-1 2,-1 4,-1 1,0 3,1 4,1 3,0 6,0 8,0 0,0 0,0 1,0 0,0 1,0 1,0 1,-2 1,-2 2,-2 1,0 1,0 2,0 1,0 3,0 4,0 1,0 1,0 1,0 3,0 3,-1 3,-4 -1,-4 -2,-8 -6,-10 -2,-2 -4,-4 -7,-6 -3,-2 -6,-5 -10,-5 0,0 0,0 0,0 1,-1 2,-3 3,-3 0,0 0,0 0,0 0,0 1,0 1,0 1,0 1,0 2,0 3,1 6,2 8,5 0,0 0,0 1,1 0,0 1,1 2,1 0,0 0,0 0,0 1,0 1,1 2,1 3,4 7,7 8,12 0,0 0,1 0,1l1 -1c0,-2 2,-4 2,-7 0,-3 0,-6 2,-8 0,-1 0,-2 -1,-2 2,1 4,5 6,5 0,0 0,0 0,0 1,0 2,-1 3,-2 2,-1 3,-2 4,-2 0,0 0,0 0,0 2,0 4,5 6,5 0,0 1,0 1,0 1,0 2,-1 3,-1 1,-1 2,-2 3,-2 0,0 0,0 0,0 3,0 5,7 7,7 0,0 0,0 1,0 1,0 1,0 2,0 1,0 2,0 3,0 0,0 0,0 1,0 2,0 4,2 6,3 0,0 0,0 0,0 1,0 3,-2 4,-4 1,-2 3,-4 4,-4 0,0 0,0 0,0 2,0 3,8 6,9 2,0 4,1 6,1 0,0 0,0 0,0 1,0 3,-1 4,-3 2,-1 3,-3 4,-3 0,0 0,0 0,0 2,1 4,7 5,8 1,0 1,0 2,0 1,0 2,0 2,0 1,0 2,-1 3,-1 0,0 0,0 1,1 3,1 1,5 1,7 0,1 2,5 -1,6 -2,1 -4,3 -7,4 0,0 0,0 0,0 -1,0 -2,-1 -3,-2 -1,0 -3,-1 -4,-1 0,0 0,0 0,0 -2,0 -4,2 -7,2 -2,1 -3,7 -6,7 0,0 0,0 0,0 -1,0 -2,-1 -3,-2 -2,-1 -3,-3 -4,-3 0,0 0,0 0,1 0,0 0,0 -1,0 -1,0 -2,-1 -3,-1 0,0 -1,-1 -2,-1 -1,0 -1,0 -1,0 -2,1 -4,9 -6,9 -2,1 -4,2 -7,2 0,0 0,0 0,0 -1,0 -2,0 -3,0 -1,0 -2,-1 -3,-1 0,0 0,0 -1,0 0,0 0,0 0,0 -1,0 -2,-1 -3,-3 -1,-1 -3,-3 -4,-3 0,0 0,0 0,0 -2,0 -4,4 -6,4 -3,1 -5,2 -7,2 -2,0 -4,1 -7,2 -2,0 -4,1 -6,1 -1,0 -1,0 -1,0 -1,0 -2,-1 -3,-3 -1,-2 -2,-4 -4,-4 0,0 0,0 0,0 -2,1 -4,7 -6,7 0,0 0,0 0,0 -1,0 -2,-1 -4,-2 -1,-1 -2,-2 -3,-2 0,0 0,0 0,0 -2,0 -4,4 -7,4 0,0 0,0 0,0 -1,0 -2,0 -3,-1 -1,0 -2,0 -3,0 0,0 0,0 -1,0 -2,0 -4,3 -6,3 0,0 0,0 0,0 -1,0 -2,0 -4,-1 -1,-1 -2,-1 -3,-1 0,0 0,0 0,0 -2,0 -5,1 -7,1 0,0 0,0 0,0 -1,0 -2,-1 -3,-2 -1,-1 -3,-2 -4,-2 0,0 0,0 0,0 -2,0 -4,0 -6,0 0,0 -1,0 -1,0 -1,0 -2,0 -3,0 -1,-1 -2,-1 -3,-1 0,0 0,0 0,0 -2,0 -5,9 -7,9 0,0 0,0 0,0 -1,0 -2,-1 -3,-2 -2,-1 -3,-2 -4,-2 0,0 0,0 0,0 -2,0 -4,4 -7,4l0 0z"/>
   </clipPath>
   <clipPath id="id1">
    <path d="M170 306c-1,0 -1,0 -2,0 -6,-1 -12,-1 -18,-2 -3,0 -6,0 -8,-2 0,0 -1,0 -1,0 -3,0 -5,0 -8,0 -2,-2 -4,-2 -7,-2 -1,0 -2,-2 -4,-2 0,0 0,0 0,0 -1,0 -1,0 -1,0 -2,0 -3,-1 -4,-1 -2,-1 -4,-1 -5,-2 0,0 0,0 0,0 -3,0 -5,-2 -7,-2 -2,-1 -4,-2 -6,-3 -2,-1 -5,-1 -6,-2 -5,-3 -10,-5 -15,-8 -2,-2 -4,-3 -7,-4 -2,-2 -4,-3 -5,-5 -7,-7 -8,-10 -12,-24 -1,-2 -1,-4 -2,-6 0,0 0,-1 0,-2 0,-2 0,-4 -1,-6 0,-2 0,-4 -1,-7 0,-2 1,-4 0,-7 -1,-2 0,-4 0,-7 0,-1 0,-2 0,-4 0,-1 0,-2 0,-4 0,-1 1,-3 0,-4 -1,-1 1,-3 0,-4 0,-2 0,-4 0,-7 1,-2 1,-4 1,-6l0 0c0,-4 0,-8 1,-12 0,-1 0,-2 0,-3 1,-1 2,-3 1,-4 -1,-1 -1,-3 0,-3 1,-2 1,-4 1,-6 1,-6 1,-12 2,-18 0,-3 -1,-7 1,-10 1,-1 1,-2 1,-3 0,-2 0,-5 2,-7 0,-1 0,-2 0,-3 0,-2 0,-4 1,-6 1,0 1,-1 1,-2 0,-4 2,-8 2,-13 2,-3 2,-6 2,-9 2,-2 1,-4 2,-6 1,-2 1,-3 2,-4 0,-2 1,-3 1,-4 0,-1 0,-2 1,-3 2,-3 3,-5 4,-8 0,-1 0,-1 0,-1 3,-3 4,-6 5,-9 2,-3 5,-4 6,-7 4,-4 6,-8 10,-11 4,-4 8,-7 12,-10 4,-4 9,-6 13,-9 8,-4 12,-5 21,-7 1,-1 1,-1 2,-1 3,-1 5,-1 8,-1 1,0 2,0 3,0 0,0 1,0 1,0 1,0 2,-1 3,-1 0,-1 1,-1 2,-1 0,0 0,0 0,0 1,0 2,0 2,0 2,0 3,0 4,-1 1,0 2,0 3,0 1,0 1,0 1,0 3,0 7,1 10,1 3,0 7,0 10,1 3,0 6,-1 9,1 0,1 1,1 2,1 2,0 5,0 7,0 2,1 4,2 6,2 0,0 0,0 0,0 0,0 0,0 0,0 1,0 1,0 2,0 1,1 3,2 5,3 1,1 3,0 5,1 1,2 4,0 5,2 4,1 7,3 11,4 3,2 7,4 10,6 2,1 4,2 6,3 2,2 5,3 7,5 3,1 5,3 7,4 3,2 5,5 8,7 1,0 1,1 1,2 1,2 3,3 5,4 4,3 8,7 11,11 2,2 4,5 5,8 4,5 6,11 9,18 1,2 1,4 2,6 1,7 4,13 5,19 0,1 1,1 1,2 -1,2 1,4 1,6 0,2 0,5 1,7 0,2 1,4 0,6 2,2 1,4 2,6 1,2 0,4 1,5 1,2 0,3 0,5 0,2 1,3 1,5 0,2 -1,4 0,5 1,5 0,9 0,13 0,3 0,5 1,7 0,2 0,3 -1,5 -1,1 -1,2 -1,3 1,3 1,6 1,9 0,1 0,2 0,2 1,1 1,2 0,3 0,0 -1,1 -1,1 2,3 0,5 1,7 2,6 0,11 0,16 0,8 -1,15 -2,23 0,2 1,4 0,6 -1,2 -1,4 -2,6 -1,5 -4,8 -7,11 -6,4 -12,7 -18,10 -3,1 -5,4 -8,5 -3,1 -7,3 -10,4 0,0 -1,0 -1,0 -1,0 -2,0 -2,-2 0,0 -1,0 -1,0 0,0 0,0 0,0 -1,1 -2,2 -3,3 -1,2 -2,2 -3,3 -5,2 -9,3 -14,4 -4,1 -9,2 -13,3 0,1 -1,1 -1,1 0,0 0,0 0,0 -1,0 -1,0 -1,0 -3,0 -6,1 -8,1 -3,1 -6,1 -9,2 -2,0 -3,1 -5,1 -2,0 -3,0 -5,0 -1,1 -1,1 -2,1 -2,0 -3,-1 -5,-1 -1,0 -2,0 -3,0 -1,0 -2,0 -3,1 -1,0 -2,0 -2,0 -1,0 -1,0 -1,0 0,0 0,0 -1,0 0,0 -1,0 -2,0 -1,1 -2,1 -4,1 0,0 0,0 0,0 -1,0 -2,0 -2,0 -1,-1 -2,-1 -2,-1 -2,0 -3,1 -4,1 -1,0 -1,0 -2,0 -1,0 -2,0 -3,0 -2,0 -3,0 -4,0 -1,0 -2,0 -3,1 0,0 0,0 -1,0l0 0zm9 -115c0,0 1,0 1,1 1,1 1,2 1,2 0,3 2,6 1,9 0,2 1,5 2,7 1,2 0,4 1,7 1,2 1,5 1,8 2,2 0,4 1,6 2,2 1,5 1,7 0,1 0,2 0,3 1,1 0,2 0,2 -2,2 -4,5 -7,7 0,1 -1,1 -2,2 -3,4 -7,8 -10,13 -1,1 -2,2 -2,3 0,1 -1,2 0,4 0,0 1,1 1,2 1,0 1,0 1,0 1,0 1,-1 1,-2 1,-1 3,-2 4,-4 4,-7 11,-13 16,-19l1 -1c0,0 1,0 2,0 0,0 1,0 2,0 1,1 2,3 4,3 4,3 8,7 12,11 3,3 7,6 10,8 1,0 2,1 3,1 0,0 1,0 1,0 0,0 1,0 1,-1 0,-1 0,-1 0,-1 0,-1 1,-2 1,-2 -1,-1 -2,-2 -3,-2 -4,-1 -7,-4 -10,-8 -3,-3 -7,-6 -11,-9 -3,-1 -5,-3 -7,-6 -2,-2 -3,-4 -3,-7 0,-1 0,-2 0,-4 -1,-2 -1,-4 -2,-6 1,-3 0,-6 0,-8 -1,-3 -1,-5 -2,-8 -1,-1 -1,-3 -1,-5 0,-3 -2,-6 -1,-9 0,-1 -1,-2 -1,-3 0,0 1,-1 1,-1 1,0 1,0 1,0 0,0 0,0 0,0 0,0 1,0 1,0 1,0 1,-1 2,-1 2,0 4,0 5,0 1,-1 3,-1 5,-2 1,0 3,-1 4,-2 3,-2 5,-3 8,-5 3,-2 5,-5 7,-8 0,0 0,0 0,0 1,-3 2,-5 3,-7 1,-2 0,-4 2,-6 0,0 0,0 0,0 0,-1 1,-1 1,-2 0,-1 0,-3 -1,-4 -1,-2 -1,-3 -2,-5 -1,-3 -3,-5 -4,-8 -2,-4 -7,-4 -10,-7 -1,-1 -3,-2 -4,-2 -2,-1 -4,-2 -7,-2 -2,0 -4,-1 -6,-1 -1,0 -4,0 -5,-1 0,0 -1,0 -1,0 -1,0 -1,0 -2,0 0,0 -1,1 -1,1 -1,0 -1,0 -1,-1 -1,0 -2,0 -2,0 -1,0 -2,0 -2,0 -2,0 -3,1 -4,1 -7,2 -13,4 -20,7 -1,0 -3,1 -4,3 -3,5 -6,11 -7,17 -1,5 1,10 3,14 1,2 3,5 5,7 2,3 4,5 6,7 3,3 6,6 11,6 1,0 2,0 3,1 1,0 2,1 4,1 1,0 2,-1 4,-1 0,0 0,0 0,0zm30 42c-4,0 -4,7 0,7 5,0 5,-7 0,-7l0 0zm45 -1c-5,0 -5,7 0,7 4,0 4,-7 0,-7l0 0zm-89 -2c-5,0 -5,7 0,7 4,0 4,-7 0,-7l0 0zm-22 0c-5,0 -5,7 0,7 4,0 4,-7 0,-7l0 0zm-31 -19c-4,0 -5,7 0,7 5,0 5,-7 0,-7zm110 -2c-4,0 -4,8 1,8 4,0 4,-8 -1,-8l0 0zm24 -2c-4,0 -4,7 0,7 5,0 5,-7 0,-7l0 0zm-93 -4c-4,0 -4,7 1,7 4,0 4,-7 -1,-7zm56 -2c-4,0 -4,7 0,7 5,0 5,-7 0,-7l0 0zm-78 -11c-5,0 -5,7 0,7 4,0 5,-7 0,-7zm115 -18c-4,0 -4,7 0,7 5,0 5,-7 0,-7zm-116 -75c0,0 -1,0 -1,0 -1,2 -3,3 -4,5 -2,2 -4,4 -4,6 0,1 -1,2 -1,3 1,3 1,6 4,9 1,1 2,2 3,4 1,1 5,3 7,4 1,0 1,0 2,0 3,0 5,-2 7,-3 3,-1 5,-3 7,-5 0,-2 0,-4 0,-6 0,0 0,0 1,-1l-1 0c1,-1 1,-3 1,-4 0,-3 -1,-5 -1,-8 -1,-3 -3,-4 -5,-5 -3,0 -5,0 -7,0 -1,0 -1,0 -2,0 -2,0 -3,1 -5,1 0,0 0,0 -1,0 0,0 0,0 0,0l0 0zm105 -3c-1,0 -2,0 -3,1 -7,3 -10,9 -12,16 -1,1 0,3 1,3 2,3 3,5 6,7 2,3 5,5 9,5 0,0 1,0 1,0 3,0 5,-1 7,-2 2,-2 3,-4 4,-6 1,-2 2,-5 3,-7 1,-2 1,-4 0,-6 -2,-4 -4,-7 -9,-9 -1,0 -3,-1 -4,-2 -1,0 -2,0 -3,0zm-96 -40c-19,0 -36,11 -43,29 -2,4 1,8 5,8 2,0 4,-1 5,-4 6,-12 18,-21 31,-21 1,0 2,1 3,1 0,0 1,0 1,0 7,0 9,-12 2,-12 -2,0 -3,-1 -4,-1l0 0zm101 10c11,0 22,3 27,14 1,2 3,3 5,3 4,0 8,-3 6,-7 -7,-17 -22,-22 -38,-22 -6,0 -12,1 -18,2 -7,1 -8,12 -1,12 0,0 1,0 1,0 5,-1 12,-2 18,-2l0 0z"/>
   </clipPath>
   <clipPath id="id2">
    <path d="M245 566c0,0 -1,0 -1,0 0,0 -1,-1 -1,-1 0,0 0,0 0,0 -1,1 -3,1 -4,1 -1,0 -2,0 -3,0 -4,0 -7,-1 -11,-1 -2,0 -3,0 -5,0 -1,0 -2,0 -3,1 -1,0 -1,0 -1,0 -1,0 -1,0 -2,0 -10,-1 -20,-2 -30,-3 -1,0 -2,1 -4,0 0,-1 0,-1 0,-1 -1,0 -1,1 -1,1 -1,0 -1,0 -2,0 0,0 0,0 0,0 -1,0 -2,0 -3,0 -1,0 -1,0 -1,0 0,0 0,0 -1,0 0,0 0,0 0,0 -1,0 -2,0 -2,-1 -1,0 -1,0 -1,0 0,0 -1,1 -1,1 -1,0 -1,0 -1,0 -1,0 -1,0 -2,0 0,-1 -2,-1 -3,-1 -2,0 -3,0 -5,0 -1,-1 -3,-1 -4,-1 -1,0 -2,-1 -2,-2 -2,-2 -3,-5 -4,-8 0,-2 0,-4 -1,-7 0,-1 0,-2 0,-3 -1,-1 -1,-2 -1,-3 -1,-2 -1,-5 -2,-8 0,-2 1,-4 1,-7 0,-2 1,-5 -1,-7 0,-1 0,-3 0,-4 0,-1 1,-2 2,-3 0,-2 -2,-3 -1,-4 0,-1 0,-1 0,-2 2,-2 1,-5 2,-7 0,-4 0,-8 1,-12 0,-2 0,-5 1,-8 1,-1 1,-3 1,-5 0,-4 0,-8 2,-11 0,-1 0,-2 0,-3 1,-2 0,-5 2,-7 0,-2 0,-4 1,-6 0,-2 0,-5 1,-7 1,-2 0,-4 2,-6 0,-1 0,-2 0,-3 0,-3 2,-6 2,-9 1,-2 3,-5 2,-8 2,-1 2,-3 2,-4 1,-1 2,-3 2,-4 0,-1 0,-2 1,-3 1,-3 2,-6 4,-9 2,-4 4,-7 6,-11 1,-1 1,-2 1,-3 0,-1 0,-1 0,-1 0,0 -1,0 -1,0 -3,3 -7,6 -8,12 0,0 0,1 0,1 -3,3 -3,6 -4,9 -1,3 -3,6 -4,9 0,2 -2,5 -2,8 0,0 -1,1 -1,2 0,3 -2,5 -2,7 0,3 -2,5 -2,8 0,2 0,3 -1,5 -1,0 -1,1 -1,2 0,2 0,5 -2,7 0,3 0,5 0,8 0,1 0,3 -2,5 0,1 0,2 0,3 -1,2 0,5 -2,7 0,2 0,4 0,6 -1,3 0,6 -2,8 -1,1 0,2 -1,3 0,4 0,8 -1,12 0,2 1,5 -1,7 0,4 -2,8 0,12 0,1 0,2 0,3 0,3 -1,7 -1,10 0,2 2,4 1,6 0,0 0,1 -1,1 0,0 0,0 0,0 -2,-2 -4,-4 -7,-4 -2,-2 -5,-1 -7,-3 -2,0 -4,0 -6,-1 -4,0 -8,0 -12,-1 0,0 -1,0 -1,0 -1,0 -2,1 -2,1 -3,0 -6,1 -9,1 -4,3 -9,4 -13,8 -1,2 -2,3 -3,4 -1,2 -2,3 -3,5 -1,0 -1,0 -1,1 0,0 0,0 0,0 0,0 0,0 -1,0 0,0 0,0 0,0 0,-1 0,-2 0,-2 1,-6 1,-12 1,-18 1,-1 1,-2 1,-4l0 0c0,-6 1,-12 1,-19 0,-2 1,-4 0,-6 -1,-1 0,-3 0,-4 0,-9 1,-18 2,-27 0,-1 0,-3 -1,-5 0,0 0,-2 0,-3 0,-3 1,-7 1,-10 -1,-2 1,-3 1,-5 -1,-2 -1,-4 0,-5 0,-4 -1,-7 1,-11 1,-2 1,-5 1,-8 0,-2 0,-4 2,-5 0,0 0,-1 0,-1 0,-3 1,-6 2,-9 1,-3 0,-6 1,-9 0,-3 0,-5 1,-8 1,-1 1,-3 1,-5 0,-1 0,-3 0,-5 2,-1 0,-3 1,-4 1,0 1,-1 1,-2 0,-2 0,-4 1,-6 1,-2 1,-4 1,-6 0,0 1,-1 1,-1 1,-1 1,-2 1,-3 -1,-2 -1,-4 -1,-6 0,-2 0,-5 2,-6 0,-1 0,-2 0,-3 0,-3 0,-6 1,-9 0,-3 -1,-7 1,-9 1,-3 2,-6 3,-8 1,-3 3,-6 3,-9 0,-2 1,-4 2,-6 1,-1 2,-1 3,-1 0,0 0,0 1,0 2,1 4,2 7,2 1,2 4,1 6,2 2,0 3,1 5,1 0,0 0,0 0,0 1,0 1,0 2,0 1,0 2,0 3,1 3,1 6,1 9,2 4,1 7,1 11,2 3,0 6,0 9,1 1,0 2,0 3,0 1,0 2,0 3,-1 1,0 1,0 2,0 0,0 1,0 1,0 1,0 1,0 2,0 0,0 0,0 0,0 0,0 0,0 0,0 1,0 2,0 3,0 1,0 1,0 2,0 1,0 3,0 4,0 0,-1 0,-1 0,-1 1,0 1,0 1,1 0,0 1,0 1,0 0,0 0,0 0,0 0,0 0,0 0,0 1,0 2,0 3,0 0,0 1,0 2,0 1,0 3,0 4,-1 0,0 0,0 0,0 1,0 1,0 1,0 0,0 1,0 1,0 0,0 0,0 0,0 0,0 0,0 0,0 1,0 1,0 2,0 0,0 1,0 2,0 1,0 2,0 3,-1 0,0 0,0 1,0 1,0 1,0 2,0 1,0 2,1 3,1 1,0 2,0 3,-1 0,0 0,0 1,0 0,0 0,0 0,0 0,0 1,0 1,0 0,0 0,0 0,0 0,0 0,0 0,0 1,0 2,0 3,0 1,0 1,0 2,0 1,0 2,0 3,0 2,-1 5,0 7,-2 0,0 0,0 0,0 2,0 4,0 5,-1 2,0 4,0 5,-1 2,0 4,-1 5,-1 0,0 1,0 1,0 2,-1 4,0 5,-1 1,0 1,-1 2,-1 0,0 1,0 1,0 0,0 0,0 0,0 1,0 2,0 2,0 2,0 3,-1 5,-2 1,-1 3,-1 5,-2 2,-1 5,-1 8,-2 1,0 1,-1 1,-1 1,0 1,1 2,2 3,6 6,13 8,19 1,3 2,5 4,8 0,4 4,7 4,11 3,6 3,12 6,18 0,5 3,9 4,14 0,2 1,4 2,6 0,2 1,4 1,6 0,2 1,4 0,6 2,2 1,4 2,6 0,2 1,5 1,7 1,2 2,4 2,6 0,2 2,4 1,7 0,2 2,4 1,6 0,2 1,4 1,5 0,2 0,4 0,6 0,1 1,2 1,4 0,2 0,3 0,5 1,0 1,0 1,1 0,2 -1,4 0,6 0,3 0,5 0,7 0,2 2,4 1,7 2,2 0,5 2,7 0,0 0,0 0,0 0,3 0,6 -1,9 2,2 1,5 1,8 0,2 0,5 0,8 -1,2 -1,3 0,5 0,1 0,3 0,4 0,5 -1,11 -1,17 0,2 0,4 0,6 -1,2 -1,4 -1,6 0,2 0,4 -1,6 0,2 0,3 -1,3 0,1 0,2 0,3 0,0 0,0 0,0 1,0 1,1 1,2 -2,2 -2,5 -2,8 0,3 -2,5 -2,7l-1 1c0,0 0,-1 0,-1 -1,-5 -5,-8 -8,-12 -1,0 -1,-1 -2,-1 0,0 0,0 0,0 -1,-1 -1,-1 -2,-1 -1,-1 -1,-1 -1,-1 -2,-3 -5,-4 -8,-5 -1,0 -2,0 -2,-1 -3,-1 -5,-1 -8,-2 0,0 -1,0 -1,0 -1,0 -2,1 -3,1 -1,0 -2,0 -3,0 -1,0 -1,0 -2,0 -1,1 -2,1 -3,2 -1,0 -2,1 -3,2 -1,0 -1,1 -2,1 -1,1 -2,2 -3,3 -2,2 -3,4 -5,6 0,0 0,0 0,0 0,0 -1,0 -1,-1 0,-1 -1,-1 -1,-2 0,-1 0,-1 0,-1 0,-2 0,-4 1,-6 0,-2 -2,-4 -1,-6 0,-4 1,-8 -1,-11 0,-1 0,-3 1,-4 0,-2 -2,-4 -1,-6 0,-2 0,-4 0,-6 0,-1 -1,-3 -1,-4 0,-2 1,-3 0,-5 0,-5 -2,-9 -2,-14 -1,-3 -1,-6 -2,-9 0,-1 0,-2 0,-2 1,-4 -1,-8 -1,-11 0,-2 -1,-3 -1,-5 1,-2 0,-3 0,-5 -1,-1 0,-3 -1,-5 -1,0 0,-2 0,-2 0,-3 -1,-6 -2,-9 0,-3 0,-5 -1,-7 0,-3 -2,-5 -1,-7 -1,-4 -2,-7 -3,-11 -3,-6 -4,-12 -5,-18 -1,-2 -2,-3 -2,-5 1,-2 0,-4 -1,-5 0,-2 0,-2 -2,-2 0,0 0,0 0,0 -1,0 -2,1 -2,2 1,2 1,5 2,7 1,3 0,6 2,8 1,3 1,6 2,8 1,3 1,6 2,8 1,2 2,4 2,6 1,3 1,5 2,7 0,2 1,4 1,7 1,2 0,4 1,6 1,2 0,4 1,6 0,2 0,4 0,6 0,1 1,2 1,3 0,4 2,7 1,10 0,1 1,3 1,5 0,2 -1,4 0,6 1,1 0,3 1,5 1,2 0,4 0,6 1,3 1,5 2,7 1,2 -1,5 1,7 0,0 0,1 0,2 0,2 0,4 1,5 0,1 0,2 0,4 0,2 -1,4 0,6 1,1 0,2 0,3 0,2 0,5 1,8 1,2 0,4 0,6 -1,2 1,3 1,6 -1,0 -1,1 -1,2 0,1 0,1 0,2 0,2 0,4 0,6 2,2 0,4 1,6 1,2 1,4 0,6 0,1 -1,2 -1,4 0,0 -1,1 -1,1 -1,0 -1,0 -1,0l0 0zm-35 -45c-9,0 -9,15 1,15 9,0 9,-15 -1,-15l0 0zm-49 -22c-9,0 -9,14 0,14 9,0 9,-14 0,-14l0 0zm-48 -20c-19,0 -19,31 1,31 20,0 20,-31 -1,-31l0 0zm185 16c-9,0 -9,15 0,15 9,0 9,-15 0,-15l0 0zm-104 -38c-20,0 -20,31 1,31 19,0 19,-31 -1,-31l0 0zm66 -15c-8,0 -9,14 1,14 9,0 9,-14 -1,-14l0 0zm-143 -3c-9,0 -9,14 0,14 9,0 9,-14 0,-14l0 0zm186 -9c-9,0 -9,14 0,14 9,0 10,-14 0,-14l0 0zm-95 -17c-9,0 -9,14 0,14 9,0 9,-14 0,-14l0 0zm49 -13c-9,0 -9,14 1,14 9,0 9,-14 -1,-14zm-140 -24c-20,0 -20,31 1,31 19,0 19,-31 -1,-31zm151 -34c-19,0 -19,31 1,31 20,0 20,-31 -1,-31l0 0zm-136 -3c-9,0 -9,15 0,15 9,0 9,-15 0,-15l0 0z"/>
   </clipPath>
   <clipPath id="id3">
    <path d="M355 257c0,0 0,0 0,0 0,0 0,0 0,0 0,0 0,0 0,0 0,0 0,0 0,0 -3,-1 -6,-2 -8,-4 -3,-4 -7,-7 -8,-13 -1,-1 -1,-1 -1,-2 0,-2 0,-3 -1,-4 -1,-3 -2,-7 -2,-10 -1,-3 -1,-6 -2,-9 -1,-3 -1,-5 -1,-7 1,-2 0,-4 1,-6 0,-3 -2,-5 -1,-8 0,-2 1,-4 0,-6 -1,-4 0,-8 0,-12 0,-1 0,-2 -1,-4 0,-1 0,-3 0,-5 0,-1 1,-3 0,-4 -1,-1 0,-1 0,-2 0,-1 1,-1 1,-2 -2,-3 -1,-5 -1,-8 0,-2 -1,-4 -1,-5 0,-2 1,-4 0,-5 0,-1 0,-1 -1,-2 0,-2 1,-3 0,-5 -1,-2 -1,-4 -1,-5 -1,-3 -2,-5 -1,-7 0,-1 -1,-2 -1,-3 0,-2 -1,-4 -1,-5 0,-3 -1,-4 -1,-6 0,-1 0,-2 -1,-3 -1,-5 -1,-9 -3,-13 -1,-2 -1,-4 -2,-6 -1,-5 -3,-9 -5,-14 0,0 0,-1 1,-1 0,0 0,0 1,0 1,2 2,4 4,5 2,2 3,4 6,6 2,1 2,4 5,5 5,4 9,9 14,14 2,5 6,8 9,12 4,7 9,14 13,22 3,7 6,13 8,20 3,7 6,15 8,22 1,3 1,6 2,8 1,3 2,5 1,8 2,2 0,5 2,8 1,2 0,4 0,7 0,1 -1,3 0,4 1,1 1,1 0,2 -2,2 -1,5 -1,8 -1,2 -2,4 -2,6 0,2 -2,4 -3,6 -1,3 -2,6 -4,9 -1,6 -5,9 -10,10 -3,1 -7,3 -10,3 -1,1 -1,1 -2,1l0 0z"/>
   </clipPath>
   <clipPath id="id4">
    <path d="M16 266c0,0 -1,0 -2,0 0,0 -1,0 -1,-1 -2,-1 -4,-3 -5,-5 -3,-6 -4,-13 -7,-19 1,-4 -1,-7 0,-10 0,-2 -2,-4 0,-7 -2,-1 -1,-3 -1,-6 0,-1 1,-2 1,-4 2,-1 -1,-3 1,-4 0,0 0,-2 0,-2 0,-2 1,-4 1,-6 0,-4 0,-7 1,-10 2,-3 1,-7 2,-10 0,-1 1,-3 1,-5 0,-1 0,-3 1,-5 1,-1 1,-3 2,-5 1,-3 1,-6 3,-9 1,-1 1,-2 1,-3 1,-1 1,-3 2,-4 0,-1 1,-2 1,-3 1,-2 1,-3 1,-4 1,-3 3,-6 5,-9 1,-3 2,-5 3,-8 2,-3 3,-5 5,-8 1,-2 2,-5 3,-8 1,-3 4,-5 5,-9 4,-6 8,-11 12,-17 2,-3 5,-7 7,-11 1,-1 2,-2 3,-4 2,-2 4,-4 5,-7 1,-2 2,-3 4,-4l0 0 1 1c-2,2 -2,6 -4,8 -2,4 -4,9 -5,14 0,2 -1,3 -1,5 -1,2 0,3 -2,5 0,0 0,0 0,0 0,2 -1,4 -1,6 0,2 -1,3 -1,5 0,3 0,5 -2,8 -1,1 0,3 -1,4 0,3 1,5 -1,7 -1,1 0,3 -1,4 0,3 0,6 -2,8 0,1 0,2 0,3 0,4 0,7 -1,11 0,3 1,5 -1,7 -1,3 -1,5 -1,7 -1,3 0,7 -2,9 0,3 0,5 -1,8 0,1 0,3 -1,4 0,1 1,2 0,3 -1,1 -1,2 -1,3 1,5 1,5 -1,12 0,1 0,2 0,3 0,4 0,8 -1,11 0,4 1,7 -2,10 0,4 0,7 -1,10 0,2 1,5 -1,7 -1,1 -1,2 -1,3 1,3 -1,6 -2,9 -1,2 -3,5 -6,7 0,1 -1,2 -2,2 -1,1 -2,2 -3,2 -2,1 -4,1 -6,1z"/>
   </clipPath>
   <clipPath id="id5">
    <path d="M91 559c-2,0 -4,0 -6,0l0 0c-3,0 -5,-1 -7,-1 -2,0 -3,-2 -2,-3 2,-2 4,-5 6,-8 1,-1 2,-2 2,-3 1,-1 2,-2 3,-3 4,-3 9,-6 14,-7 2,-1 4,-1 7,-1 0,0 0,0 0,0 4,0 7,0 11,1 1,0 2,0 3,0 1,1 3,2 4,2 1,1 3,1 4,1 2,0 4,2 5,3 4,4 7,9 8,14 0,1 1,2 1,2 0,1 -1,2 -1,2 -1,0 -2,0 -3,0 0,0 -1,0 -1,0 0,0 -1,-1 -1,-1 -1,0 -1,1 -2,1 -1,0 -2,0 -3,0 0,0 0,0 0,0 -1,0 -1,0 -2,0 0,0 -1,-1 -1,-1 -1,0 -1,0 -1,1 -1,0 -1,0 -2,0 -1,0 -1,0 -2,0 -2,0 -3,-1 -5,-1 -1,0 -2,0 -4,0 -1,0 -1,0 -2,0 -3,0 -6,0 -8,1 -1,0 -2,1 -2,1 -1,0 -1,0 -2,0 -1,0 -1,0 -2,0 -1,0 -2,0 -3,0 -1,0 -2,0 -3,0 -1,0 -2,0 -3,0z"/>
   </clipPath>
   <clipPath id="id6">
    <path d="M261 567c-1,0 -1,0 -2,0 -5,-1 -4,-1 -6,-6 0,-1 0,-1 1,-2 2,-5 4,-9 8,-13l0 0c2,-3 3,-5 6,-6 2,0 3,0 4,-1 1,0 3,0 4,0 1,0 2,0 3,0 1,0 1,0 1,0 1,0 1,0 2,0 4,0 7,3 10,5 3,2 5,4 7,6 4,2 5,6 6,10 0,3 0,4 -3,4 0,0 0,0 -1,0 -1,0 -3,0 -4,0 -1,0 -1,0 -2,0 -1,0 -2,0 -2,2 0,0 -1,0 -1,0 -1,0 -1,0 -1,0 -2,0 -5,0 -8,0 -1,0 -3,-1 -4,-1 -2,0 -3,0 -4,1 0,0 0,0 -1,0 0,0 0,0 0,0 -1,0 -1,0 -1,0 0,0 -1,0 -1,0 0,0 0,0 0,0 -1,0 -2,0 -3,0 -1,0 -2,0 -3,0 -2,0 -3,0 -5,1 0,0 0,0 0,0l0 0z"/>
   </clipPath>
   <clipPath id="id7">
    <path d="M169 274c0,0 0,0 -1,0 0,-1 -1,-2 -1,-2 -1,-2 0,-3 0,-4 0,-1 1,-2 2,-3 3,-5 7,-9 10,-13 1,-1 2,-1 2,-2 3,-2 5,-5 7,-7 0,0 1,-1 0,-2 0,-1 0,-2 0,-3 0,-2 1,-5 -1,-7 -1,-2 1,-4 -1,-6 0,-3 0,-6 -1,-8 -1,-3 0,-5 -1,-7 -1,-2 -2,-5 -2,-7 1,-3 -1,-6 -1,-9 0,0 0,-1 -1,-2 0,-1 -1,-1 -1,-1 0,0 0,0 0,0 -2,0 -3,1 -4,1 -2,0 -3,-1 -4,-1 -1,-1 -2,-1 -3,-1 -5,0 -8,-3 -11,-6 -2,-2 -4,-4 -6,-7 -2,-2 -4,-5 -5,-7 -2,-4 -4,-9 -3,-14 1,-6 4,-12 7,-17 1,-2 3,-3 4,-3 7,-3 13,-5 20,-7 1,0 2,-1 4,-1 0,0 1,0 2,0 0,0 1,0 2,0 0,1 0,1 1,1 0,0 1,-1 1,-1 1,0 1,0 2,0 0,0 1,0 1,0 1,1 4,1 5,1 2,0 4,1 6,1 3,0 5,1 7,2 1,0 3,1 4,2 3,3 8,3 10,7 1,3 3,5 4,8 1,2 1,3 2,5 1,1 1,3 1,4 0,1 -1,1 -1,2 0,0 0,0 0,0 -2,2 -1,4 -2,6 -1,2 -2,4 -3,7 0,0 0,0 0,0 -2,3 -4,6 -7,8 -3,2 -5,3 -8,5 -1,1 -3,2 -4,2 -2,1 -4,1 -5,2 -1,0 -3,0 -5,0 -1,0 -1,1 -2,1 0,0 -1,0 -1,0 0,0 0,0 0,0 0,0 0,0 -1,0 0,0 -1,1 -1,1 0,1 1,2 1,3 -1,3 1,6 1,9 0,2 0,4 1,5 1,3 1,5 2,8 0,2 1,5 0,8 1,2 1,4 2,6 0,2 0,3 0,4 0,3 1,5 3,7 2,3 4,5 7,6 4,3 8,6 11,9 3,4 6,7 10,8 1,0 2,1 3,2 0,0 -1,1 -1,2 0,0 0,0 0,1 0,1 -1,1 -1,1 0,0 -1,0 -1,0 -1,0 -2,-1 -3,-1 -3,-2 -7,-5 -10,-8 -4,-4 -8,-8 -12,-11 -2,0 -3,-2 -4,-3 -1,0 -2,0 -2,0 -1,0 -2,0 -2,0l-1 1c-5,6 -12,12 -16,19 -1,2 -3,3 -4,4 0,1 0,2 -1,2l0 0zm7 -88c0,0 1,0 2,0 1,1 1,1 2,1 1,0 2,-1 3,-1 1,0 1,0 1,0 1,0 1,0 2,0 0,0 1,0 1,0 0,0 1,0 1,0 1,-1 3,-1 4,-1 0,0 0,0 0,0 0,0 0,0 0,0 1,0 1,0 1,0 1,0 2,0 3,0 3,-2 7,-2 9,-5 5,-2 9,-6 12,-10 0,0 1,-1 1,-2 1,-2 2,-4 3,-6 1,-2 1,-4 0,-6 -1,-3 -2,-6 -4,-9 -1,-3 -4,-6 -7,-7 -3,-2 -6,-3 -9,-5 -1,0 -2,-1 -4,-1 0,0 -1,-1 -2,-1 -2,0 -6,2 -8,3 -1,1 -1,2 -2,3 0,0 0,0 0,0 -1,0 -2,0 -2,-1 0,0 0,-1 0,-2 1,-1 2,-2 2,-3 0,-1 0,-1 -1,-1 0,0 0,0 0,0 -1,0 -2,0 -2,0 -1,0 -2,0 -3,0 0,0 0,0 0,0 -2,0 -3,0 -4,1 -2,0 -3,0 -4,0 0,0 0,0 0,0 -2,2 -4,2 -6,3 -5,1 -8,4 -12,7 0,1 -1,1 -1,2 -1,2 -2,5 -3,7 -1,3 -1,6 -1,9 0,2 1,4 2,6 3,5 6,10 10,14 2,1 3,2 5,3 3,0 6,2 9,2 0,0 1,0 1,0 0,0 0,0 1,0l0 0z"/>
   </clipPath>
   <clipPath id="id8">
    <path d="M180 187c-1,0 -1,0 -2,-1 -1,0 -2,0 -2,0 -1,0 -1,0 -1,0 0,0 -1,0 -1,0 -3,0 -6,-2 -9,-2 -2,-1 -3,-2 -5,-3 -4,-4 -7,-9 -10,-14 -1,-2 -2,-4 -2,-6 0,-3 0,-6 1,-9 1,-2 2,-5 3,-7 0,-1 1,-1 1,-2 4,-3 7,-6 12,-7 2,-1 4,-1 6,-3 0,0 0,0 0,0 1,0 2,0 4,0 1,-1 2,-1 4,-1 0,0 0,0 0,0 1,0 2,0 3,0 0,0 1,0 2,0 0,0 0,0 0,0 1,0 1,0 1,1 0,1 -1,2 -2,3 0,1 0,2 0,2 0,1 1,1 2,1 0,0 0,0 0,0 1,-1 1,-2 2,-3 2,-1 6,-3 8,-3 1,0 2,1 2,1 2,0 3,1 4,1 3,2 6,3 9,5 3,1 6,4 7,7 2,3 3,6 4,9 1,2 1,4 0,6 -1,2 -2,4 -3,6 0,1 -1,2 -1,2 -3,4 -7,8 -12,10 -2,3 -6,3 -9,5 -1,0 -2,0 -3,0 0,0 0,0 -1,0 0,0 0,0 0,0 0,0 0,0 0,0 -1,0 -3,0 -4,1 0,0 -1,0 -1,0 0,0 -1,0 -1,0 -1,0 -1,0 -2,0 0,0 0,0 -1,0 -1,0 -2,1 -3,1l0 0zm-8 -52c-10,0 -20,7 -23,18 -1,4 2,6 6,6 2,0 5,-1 6,-5 1,-4 6,-7 10,-7 1,0 1,0 2,0 0,0 0,0 1,0 6,0 9,-11 1,-12 -1,0 -2,0 -3,0l0 0z"/>
   </clipPath>
   <clipPath id="id9">
    <path d="M136 128c-1,0 -1,0 -2,0 -2,-1 -6,-3 -7,-4 -1,-2 -2,-3 -3,-4 -3,-3 -3,-6 -4,-9 0,-1 1,-2 1,-3 0,-2 2,-4 4,-6 1,-2 3,-3 4,-5 0,0 1,0 1,0 0,0 0,0 0,0 1,0 1,0 1,0 2,0 3,-1 5,-1 1,0 1,0 2,0 2,0 4,0 7,0 2,1 4,2 5,5 0,3 1,5 1,8 0,1 0,3 -1,4l1 0c-1,1 -1,1 -1,1 0,2 0,4 0,6 -2,2 -4,4 -7,5 -2,1 -4,3 -7,3l0 0zm4 -31c-7,0 -7,12 0,12 8,0 8,-12 0,-12l0 0z"/>
   </clipPath>
   <clipPath id="id10">
    <path d="M237 126c0,0 -1,0 -1,0 -4,0 -7,-2 -9,-5 -3,-2 -4,-4 -6,-7 -1,0 -2,-2 -1,-3 2,-7 5,-13 12,-16 1,-1 2,-1 3,-1 1,0 2,0 3,0 1,1 3,2 4,2 5,2 7,5 9,9 1,2 1,4 0,6 -1,2 -2,5 -3,7 -1,2 -2,4 -4,6 -2,1 -4,2 -7,2l0 0zm2 -25c-7,0 -7,12 1,12 7,0 7,-12 -1,-12l0 0z"/>
   </clipPath>
   <clipPath id="id11">
    <path d="M155 159c-4,0 -7,-2 -6,-6 3,-11 13,-18 23,-18 1,0 2,0 3,0 8,1 5,12 -1,12 -1,0 -1,0 -1,0 -1,0 -1,0 -2,0 -4,0 -9,3 -10,7 -1,4 -4,5 -6,5l0 0z"/>
   </clipPath>
   <clipPath id="id12">
    <path d="M240 113c-8,0 -8,-12 -1,-12 8,0 8,12 1,12l0 0z"/>
   </clipPath>
   <clipPath id="id13">
    <path d="M140 109c-7,0 -7,-12 0,-12 8,0 8,12 0,12l0 0z"/>
   </clipPath>
   <clipPath id="id14">
    <path d="M269 373c-20,0 -20,-31 -1,-31 21,0 21,31 1,31l0 0z"/>
   </clipPath>
   <clipPath id="id15">
    <path d="M118 407c-21,0 -21,-31 -1,-31 20,0 20,31 1,31l0 0z"/>
   </clipPath>
   <clipPath id="id16">
    <path d="M195 488c-21,0 -21,-31 -1,-31 20,0 20,31 1,31l0 0z"/>
   </clipPath>
   <clipPath id="id17">
    <path d="M114 510c-20,0 -20,-31 -1,-31 21,0 21,31 1,31l0 0z"/>
   </clipPath>
   <clipPath id="id18">
    <path d="M131 197c-5,0 -5,-7 0,-7 5,0 4,7 0,7l0 0z"/>
   </clipPath>
   <clipPath id="id19">
    <path d="M154 210c-5,0 -5,-7 -1,-7 5,0 5,7 1,7l0 0z"/>
   </clipPath>
   <clipPath id="id20">
    <path d="M143 237c-5,0 -5,-7 0,-7 4,0 4,7 0,7l0 0z"/>
   </clipPath>
   <clipPath id="id21">
    <path d="M165 237c-5,0 -5,-7 0,-7 4,0 4,7 0,7l0 0z"/>
   </clipPath>
   <clipPath id="id22">
    <path d="M112 218c-5,0 -4,-7 0,-7 5,0 5,7 0,7l0 0z"/>
   </clipPath>
   <clipPath id="id23">
    <path d="M209 208c-4,0 -4,-7 0,-7 5,0 5,7 0,7l0 0z"/>
   </clipPath>
   <clipPath id="id24">
    <path d="M209 240c-4,0 -4,-7 0,-7 5,0 5,7 0,7l0 0z"/>
   </clipPath>
   <clipPath id="id25">
    <path d="M254 239c-5,0 -5,-7 0,-7 4,0 4,7 0,7l0 0z"/>
   </clipPath>
   <clipPath id="id26">
    <path d="M223 217c-5,0 -5,-8 -1,-8 5,0 5,8 1,8l0 0z"/>
   </clipPath>
   <clipPath id="id27">
    <path d="M246 179c-4,0 -4,-7 0,-7 5,0 5,7 0,7l0 0z"/>
   </clipPath>
   <clipPath id="id28">
    <path d="M246 214c-4,0 -4,-7 0,-7 5,0 5,7 0,7l0 0z"/>
   </clipPath>
   <clipPath id="id29">
    <path d="M117 453c-9,0 -9,-14 0,-14 9,0 9,14 0,14l0 0z"/>
   </clipPath>
   <clipPath id="id30">
    <path d="M132 354c-9,0 -9,-15 0,-15 9,0 9,15 0,15l0 0z"/>
   </clipPath>
   <clipPath id="id31">
    <path d="M208 427c-9,0 -9,-14 0,-14 9,0 9,14 0,14z"/>
   </clipPath>
   <clipPath id="id32">
    <path d="M161 513c-9,0 -9,-14 0,-14 9,0 9,14 0,14z"/>
   </clipPath>
   <clipPath id="id33">
    <path d="M211 536c-10,0 -10,-15 -1,-15 10,0 10,15 1,15l0 0z"/>
   </clipPath>
   <clipPath id="id34">
    <path d="M261 456c-10,0 -10,-14 -1,-14 10,0 10,14 1,14l0 0z"/>
   </clipPath>
   <clipPath id="id35">
    <path d="M258 414c-10,0 -10,-14 -1,-14 10,0 10,14 1,14z"/>
   </clipPath>
   <clipPath id="id36">
    <path d="M303 444c-9,0 -9,-14 0,-14 10,0 9,14 0,14l0 0z"/>
   </clipPath>
   <clipPath id="id37">
    <path d="M298 510c-9,0 -9,-15 0,-15 9,0 9,15 0,15l0 0z"/>
   </clipPath>
   <clipPath id="id38">
    <path d="M101 91c-4,0 -7,-4 -5,-8 7,-18 24,-29 43,-29 1,0 2,1 4,1 7,0 5,12 -2,12 0,0 -1,0 -1,0 -1,0 -2,-1 -3,-1 -13,0 -25,9 -31,21 -1,3 -3,4 -5,4l0 0z"/>
   </clipPath>
   <clipPath id="id39">
    <path d="M272 81c-2,0 -4,-1 -5,-3 -5,-11 -16,-14 -27,-14 -6,0 -13,1 -18,2 0,0 -1,0 -1,0 -7,0 -6,-11 1,-12 6,-1 12,-2 18,-2 16,0 31,5 38,22 2,4 -2,7 -6,7l0 0z"/>
   </clipPath>
 </defs>
 <g id="Layer_x0020_1">
  <metadata id="CorelCorpID_0Corel-Layer"/>
  <g style="clip-path:url(#id0)">
   <image transform="matrix(0 -1 -1 0 403.483 592.411)" x="0" y="0" width="57.2818" height="403.008" xlink:href="Dog22_Images\Dog22_ImgID1.png"/>
  </g>
  <g style="clip-path:url(#id1)">
   <image transform="matrix(0 -1 -1 0 329.482 306.874)" x="0" y="0" width="307" height="281" xlink:href="Dog22_Images\Dog22_ImgID2.png"/>
  </g>
  <g style="clip-path:url(#id2)">
   <image transform="matrix(0 -1 -1 0 318.651 567.114)" x="0" y="0" width="273" height="245" xlink:href="Dog22_Images\Dog22_ImgID3.png"/>
  </g>
  <g style="clip-path:url(#id3)">
   <image transform="matrix(0 -1 -1 0 388.29 257.516)" x="0" y="0" width="186.966" height="76.1819" xlink:href="Dog22_Images\Dog22_ImgID4.png"/>
  </g>
  <g style="clip-path:url(#id4)">
   <image transform="matrix(0 -1 -1 0 71.4958 266.966)" x="0" y="0" width="208.773" height="73.2742" xlink:href="Dog22_Images\Dog22_ImgID5.png"/>
  </g>
  <g style="clip-path:url(#id5)">
   <image transform="matrix(0 -1 -1 0 144.043 559.772)" x="0" y="0" width="27.4778" height="69.6396" xlink:href="Dog22_Images\Dog22_ImgID6.png"/>
  </g>
  <g style="clip-path:url(#id6)">
   <image transform="matrix(0 -1 -1 0 305.639 567.041)" x="0" y="0" width="28.9317" height="52.9203" xlink:href="Dog22_Images\Dog22_ImgID7.png"/>
  </g>
  <g style="clip-path:url(#id7)">
   <image transform="matrix(0 -1 -1 0 227.349 274.162)" x="0" y="0" width="147.13" height="85.4866" xlink:href="Dog22_Images\Dog22_ImgID8.png"/>
  </g>
  <g style="clip-path:url(#id8)">
   <image transform="matrix(0 -1 -1 0 222.333 187.222)" x="0" y="0" width="56.5549" height="74.7281" xlink:href="Dog22_Images\Dog22_ImgID9.png"/>
  </g>
  <g style="clip-path:url(#id9)">
   <image transform="matrix(0 -1 -1 0 151.894 128.486)" x="0" y="0" width="33.2932" height="32.5663" xlink:href="Dog22_Images\Dog22_ImgID10.png"/>
  </g>
  <g style="clip-path:url(#id10)">
   <image transform="matrix(0 -1 -1 0 252.646 127.032)" x="0" y="0" width="34.0202" height="34.0202" xlink:href="Dog22_Images\Dog22_ImgID11.png"/>
  </g>
  <g style="clip-path:url(#id11)">
   <image transform="matrix(0 -1 -1 0 183.879 159.744)" x="0" y="0" width="25.4424" height="36.2009" xlink:href="Dog22_Images\Dog22_ImgID12.png"/>
  </g>
  <g style="clip-path:url(#id12)">
   <image transform="matrix(0 -1 -1 0 247.703 114.02)" x="0" y="0" width="13.8116" height="16.7193" xlink:href="Dog22_Images\Dog22_ImgID13.png"/>
  </g>
  <g style="clip-path:url(#id13)">
   <image transform="matrix(0 -1 -1 0 149.132 110.459)" x="0" y="0" width="13.8116" height="17.4462" xlink:href="Dog22_Images\Dog22_ImgID14.png"/>
  </g>
  <g style="clip-path:url(#id14)">
   <image transform="matrix(0 -1 -1 0 289.719 374.188)" x="0" y="0" width="32.5663" height="42.0164" xlink:href="Dog22_Images\Dog22_ImgID15.png"/>
  </g>
  <g style="clip-path:url(#id15)">
   <image transform="matrix(0 -1 -1 0 138.155 408.28)" x="0" y="0" width="32.5663" height="42.0164" xlink:href="Dog22_Images\Dog22_ImgID16.png"/>
  </g>
  <g style="clip-path:url(#id16)">
   <image transform="matrix(0 -1 -1 0 214.991 488.751)" x="0" y="0" width="32.5663" height="41.2894" xlink:href="Dog22_Images\Dog22_ImgID17.png"/>
  </g>
  <g style="clip-path:url(#id17)">
   <image transform="matrix(0 -1 -1 0 134.593 510.486)" x="0" y="0" width="32.5663" height="41.2894" xlink:href="Dog22_Images\Dog22_ImgID18.png"/>
  </g>
  <g style="clip-path:url(#id18)">
   <image transform="matrix(0 -1 -1 0 136.047 198.126)" x="0" y="0" width="8.72312" height="10.177" xlink:href="Dog22_Images\Dog22_ImgID19.png"/>
  </g>
  <g style="clip-path:url(#id19)">
   <image transform="matrix(0 -1 -1 0 158.509 210.484)" x="0" y="0" width="8.72312" height="10.177" xlink:href="Dog22_Images\Dog22_ImgID20.png"/>
  </g>
  <g style="clip-path:url(#id20)">
   <image transform="matrix(0 -1 -1 0 148.405 237.235)" x="0" y="0" width="8.72312" height="10.9039" xlink:href="Dog22_Images\Dog22_ImgID21.png"/>
  </g>
  <g style="clip-path:url(#id21)">
   <image transform="matrix(0 -1 -1 0 170.067 237.235)" x="0" y="0" width="8.72312" height="10.9039" xlink:href="Dog22_Images\Dog22_ImgID22.png"/>
  </g>
  <g style="clip-path:url(#id22)">
   <image transform="matrix(0 -1 -1 0 117.147 218.407)" x="0" y="0" width="8.72312" height="10.177" xlink:href="Dog22_Images\Dog22_ImgID23.png"/>
  </g>
  <g style="clip-path:url(#id23)">
   <image transform="matrix(0 -1 -1 0 214.264 209.03)" x="0" y="0" width="8.72312" height="10.177" xlink:href="Dog22_Images\Dog22_ImgID24.png"/>
  </g>
  <g style="clip-path:url(#id24)">
   <image transform="matrix(0 -1 -1 0 214.264 240.869)" x="0" y="0" width="7.99619" height="10.177" xlink:href="Dog22_Images\Dog22_ImgID25.png"/>
  </g>
  <g style="clip-path:url(#id25)">
   <image transform="matrix(0 -1 -1 0 259.261 240.142)" x="0" y="0" width="8.72312" height="10.9039" xlink:href="Dog22_Images\Dog22_ImgID26.png"/>
  </g>
  <g style="clip-path:url(#id26)">
   <image transform="matrix(0 -1 -1 0 228.076 217.68)" x="0" y="0" width="8.72312" height="10.9039" xlink:href="Dog22_Images\Dog22_ImgID27.png"/>
  </g>
  <g style="clip-path:url(#id27)">
   <image transform="matrix(0 -1 -1 0 251.265 179.953)" x="0" y="0" width="8.72312" height="10.177" xlink:href="Dog22_Images\Dog22_ImgID28.png"/>
  </g>
  <g style="clip-path:url(#id28)">
   <image transform="matrix(0 -1 -1 0 251.265 214.772)" x="0" y="0" width="8.72312" height="10.177" xlink:href="Dog22_Images\Dog22_ImgID29.png"/>
  </g>
  <g style="clip-path:url(#id29)">
   <image transform="matrix(0 -1 -1 0 127.324 454.004)" x="0" y="0" width="15.9924" height="20.3539" xlink:href="Dog22_Images\Dog22_ImgID30.png"/>
  </g>
  <g style="clip-path:url(#id30)">
   <image transform="matrix(0 -1 -1 0 141.862 354.706)" x="0" y="0" width="15.9924" height="19.627" xlink:href="Dog22_Images\Dog22_ImgID31.png"/>
  </g>
  <g style="clip-path:url(#id31)">
   <image transform="matrix(0 -1 -1 0 217.972 427.907)" x="0" y="0" width="15.9924" height="19.627" xlink:href="Dog22_Images\Dog22_ImgID32.png"/>
  </g>
  <g style="clip-path:url(#id32)">
   <image transform="matrix(0 -1 -1 0 170.794 513.467)" x="0" y="0" width="15.2655" height="19.627" xlink:href="Dog22_Images\Dog22_ImgID33.png"/>
  </g>
  <g style="clip-path:url(#id33)">
   <image transform="matrix(0 -1 -1 0 220.879 535.856)" x="0" y="0" width="15.2655" height="20.3539" xlink:href="Dog22_Images\Dog22_ImgID34.png"/>
  </g>
  <g style="clip-path:url(#id34)">
   <image transform="matrix(0 -1 -1 0 270.892 456.912)" x="0" y="0" width="15.9924" height="20.3539" xlink:href="Dog22_Images\Dog22_ImgID35.png"/>
  </g>
  <g style="clip-path:url(#id35)">
   <image transform="matrix(0 -1 -1 0 267.257 414.895)" x="0" y="0" width="15.9924" height="19.627" xlink:href="Dog22_Images\Dog22_ImgID36.png"/>
  </g>
  <g style="clip-path:url(#id36)">
   <image transform="matrix(0 -1 -1 0 312.908 444.554)" x="0" y="0" width="15.9924" height="19.627" xlink:href="Dog22_Images\Dog22_ImgID37.png"/>
  </g>
  <g style="clip-path:url(#id37)">
   <image transform="matrix(0 -1 -1 0 308.547 510.559)" x="0" y="0" width="15.9924" height="20.3539" xlink:href="Dog22_Images\Dog22_ImgID38.png"/>
  </g>
  <g style="clip-path:url(#id38)">
   <image transform="matrix(0 -1 -1 0 151.312 91.5584)" x="0" y="0" width="37.6548" height="58.0087" xlink:href="Dog22_Images\Dog22_ImgID39.png"/>
  </g>
  <g style="clip-path:url(#id39)">
   <image transform="matrix(0 -1 -1 0 280.996 82.1084)" x="0" y="0" width="30.3855" height="67.4588" xlink:href="Dog22_Images\Dog22_ImgID40.png"/>
  </g>
 </g>
</svg>
