<?xml version="1.0" encoding="UTF-8"?>
<!DOCTYPE svg PUBLIC "-//W3C//DTD SVG 1.1//EN" "http://www.w3.org/Graphics/SVG/1.1/DTD/svg11.dtd">
<!-- Creator: CorelDRAW X7 -->
<svg xmlns="http://www.w3.org/2000/svg" xml:space="preserve" width="1.03689in" height="0.937094in" version="1.1" style="shape-rendering:geometricPrecision; text-rendering:geometricPrecision; image-rendering:optimizeQuality; fill-rule:evenodd; clip-rule:evenodd"
viewBox="0 0 225 203"
 xmlns:xlink="http://www.w3.org/1999/xlink">
 <defs>
  <style type="text/css">
   <![CDATA[
    .fil0 {fill:#4F4138;fill-rule:nonzero}
   ]]>
  </style>
 </defs>
 <g id="_2">
  <metadata id="CorelCorpID_0Corel-Layer"/>
  <path class="fil0" d="M221 102l-101 -99c-8,-7 -14,0 -14,0l-102 99c0,0 -9,7 0,16 8,9 24,-11 26,-12l-1 84c0,0 -1,13 14,13l35 0c4,0 8,-5 8,-9l0 -69c0,0 0,-7 7,-7l12 0 16 0 10 0c8,0 9,7 9,7l0 69c0,4 4,9 9,9l33 0c15,0 14,-13 14,-13l-1 -84c2,2 18,22 26,13 9,-10 0,-17 0,-17zm-105 -39l0 0c1,-4 4,-6 6,-5 3,1 4,5 3,8 -1,4 -4,6 -7,5 -2,0 -4,-4 -2,-8zm-10 -5l0 0c3,-1 6,1 7,5 1,4 0,8 -2,9 -3,1 -6,-2 -7,-6 -1,-4 0,-7 2,-8zm-4 23l0 0c-2,0 -5,-2 -6,-6 -2,-3 -1,-7 2,-8 2,0 5,2 6,6 1,3 0,7 -2,8zm17 10l0 0c0,0 -2,-3 -4,-3l-1 1c-2,0 -4,2 -4,2 0,0 -6,4 -6,-3 0,-12 10,-13 10,-13l1 0c0,0 10,1 10,13 0,7 -6,3 -6,3zm14 -15l0 0c-1,3 -4,5 -6,5 -2,-1 -3,-5 -2,-8 1,-4 4,-6 6,-5 2,0 3,4 2,8z"/>
 </g>
</svg>
