<?xml version="1.0" encoding="UTF-8"?>
<!DOCTYPE svg PUBLIC "-//W3C//DTD SVG 1.1//EN" "http://www.w3.org/Graphics/SVG/1.1/DTD/svg11.dtd">
<!-- Creator: CorelDRAW X7 -->
<svg xmlns="http://www.w3.org/2000/svg" xml:space="preserve" width="3.3538in" height="2.57779in" version="1.1" style="shape-rendering:geometricPrecision; text-rendering:geometricPrecision; image-rendering:optimizeQuality; fill-rule:evenodd; clip-rule:evenodd"
viewBox="0 0 5565 4278"
 xmlns:xlink="http://www.w3.org/1999/xlink">
 <defs>
  <style type="text/css">
   <![CDATA[
    .fil0 {fill:#4F4138;fill-rule:nonzero}
   ]]>
  </style>
 </defs>
 <g id="_2">
  <metadata id="CorelCorpID_0Corel-Layer"/>
  <g id="_423522752416">
   <g>
    <path class="fil0" d="M2026 3531c6,-21 20,-48 44,-73 -636,-152 -1393,-504 -1732,-966 -62,-86 -166,-164 -247,-164 -82,0 -117,80 -69,175 379,745 1230,1307 2259,1446l13 -41 -139 -101c-154,-112 -147,-221 -129,-276z"/>
    <path class="fil0" d="M5472 2305c-82,0 -185,79 -246,166 -346,485 -1134,853 -1805,1000 18,21 28,42 34,60 18,55 25,164 -129,276l-140 101 16 49c1073,-123 1962,-701 2343,-1475 47,-96 10,-177 -73,-177z"/>
    <path class="fil0" d="M3017 3868l224 -163c123,-90 100,-162 -53,-162 -153,0 -277,0 -277,0l-85 -264c-47,-145 -124,-145 -171,0 -48,146 -86,264 -86,264l-276 0c-153,0 -177,72 -53,162 123,90 224,163 224,163l-86 263c-47,145 15,190 139,100 123,-89 223,-162 223,-162l224 162c123,90 185,45 138,-100 -47,-146 -85,-263 -85,-263z"/>
   </g>
   <path class="fil0" d="M4949 2192c0,-100 -81,-181 -181,-181 -89,0 -163,64 -178,150l-436 0c-15,-86 -89,-150 -178,-150 -101,0 -182,81 -182,181 0,54 24,102 62,136 -38,33 -62,81 -62,136 0,100 81,181 182,181 87,0 160,-62 177,-145l438 0c17,83 90,145 177,145 100,0 181,-81 181,-181 0,-55 -24,-103 -61,-136 37,-34 61,-82 61,-136z"/>
   <g>
    <path class="fil0" d="M4412 1518c18,-57 66,-91 107,-78 41,13 60,69 42,125 -18,56 -65,91 -107,78 -41,-13 -60,-69 -42,-125z"/>
    <path class="fil0" d="M4654 1585c-37,-12 -82,22 -99,76 -17,54 -1,107 37,119 37,12 81,-22 98,-76 17,-54 1,-107 -36,-119z"/>
    <path class="fil0" d="M4336 1647c39,-12 55,-69 36,-126 -20,-58 -67,-95 -106,-83 -39,12 -55,68 -36,126 19,57 67,95 106,83z"/>
    <path class="fil0" d="M4235 1660c-18,-55 -63,-90 -100,-79 -38,12 -53,65 -34,120 18,55 63,90 101,79 37,-11 52,-65 33,-120z"/>
    <path class="fil0" d="M4398 1659l-8 0c0,0 -160,26 -159,210 -1,108 89,61 89,61 0,0 38,-38 70,-38l8 -1c31,0 69,38 69,38 0,0 90,47 89,-60 1,-184 -158,-210 -158,-210z"/>
   </g>
   <path class="fil0" d="M1824 2103l-31 -321 -9 -107 154 -41c49,66 155,83 249,36 104,-52 154,-161 112,-244 -41,-83 -159,-109 -262,-57 -51,26 -88,65 -109,107l-179 50 -17 -186c33,-34 56,-84 62,-140 13,-115 -51,-216 -144,-227 -92,-10 -177,75 -190,190 -12,105 41,198 120,222l15 158 -81 21 -220 55c-130,46 -69,192 -69,192l320 -74 68 -16 8 61 -1 0 24 226c28,136 180,95 180,95zm-206 -813l0 0c-43,-3 -75,-55 -71,-115 4,-61 43,-107 87,-104 43,3 75,54 71,115 -4,60 -43,107 -87,104zm463 158l0 0c55,-25 114,-13 133,27 17,40 -13,93 -68,117 -55,25 -115,13 -133,-27 -17,-40 13,-92 68,-117z"/>
   <g>
    <path class="fil0" d="M3447 2728c-126,-29 119,-1189 -50,-1374l-201 0 0 120 -239 0 0 -120 -179 0c-41,106 -176,381 -516,548 -426,210 -276,613 -299,681 0,0 -545,246 -523,-314 0,0 -142,732 621,590 0,0 -18,67 50,75 69,7 891,0 891,0 0,0 262,-38 0,-292 0,0 139,-104 135,-164l0 433c0,0 321,34 377,-3 57,-38 60,-150 -67,-180z"/>
    <path class="fil0" d="M4213 464c-134,-473 -628,-408 -712,-349 0,0 -489,-204 -775,23 0,0 -295,-217 -602,-107 -306,110 -713,609 -531,726 99,63 309,89 404,-15 132,-173 426,-215 520,-335 0,0 59,381 209,508 0,0 -209,240 67,397 0,0 0,0 0,1l164 0 239 0 244 0c59,-57 145,-180 76,-360 0,0 209,-249 144,-623 235,304 -154,713 170,872 259,75 518,-264 383,-738z"/>
   </g>
  </g>
 </g>
</svg>
