<?xml version="1.0" encoding="UTF-8"?>
<!DOCTYPE svg PUBLIC "-//W3C//DTD SVG 1.1//EN" "http://www.w3.org/Graphics/SVG/1.1/DTD/svg11.dtd">
<!-- Creator: CorelDRAW X7 -->
<svg xmlns="http://www.w3.org/2000/svg" xml:space="preserve" width="1.47583in" height="1.47583in" version="1.1" style="shape-rendering:geometricPrecision; text-rendering:geometricPrecision; image-rendering:optimizeQuality; fill-rule:evenodd; clip-rule:evenodd"
viewBox="0 0 533 533"
 xmlns:xlink="http://www.w3.org/1999/xlink">
 <defs>
  <style type="text/css">
   <![CDATA[
    .fil0 {fill:#4F4138;fill-rule:nonzero}
   ]]>
  </style>
 </defs>
 <g id="_2">
  <metadata id="CorelCorpID_0Corel-Layer"/>
  <g id="_423661139040">
   <path class="fil0" d="M266 0c-147,0 -266,119 -266,266 0,147 119,267 266,267 147,0 267,-120 267,-267 0,-147 -120,-266 -267,-266zm0 524l0 0c-142,0 -257,-116 -257,-258 0,-142 115,-257 257,-257 142,0 258,115 258,257 0,142 -116,258 -258,258z"/>
   <path class="fil0" d="M250 244c-5,0 -8,3 -8,8 0,4 3,7 8,7 4,0 7,-3 7,-7 0,-5 -3,-8 -7,-8z"/>
   <path class="fil0" d="M308 244c-4,0 -8,3 -8,8 0,4 4,7 8,7 4,0 8,-3 8,-7 0,-5 -4,-8 -8,-8z"/>
   <path class="fil0" d="M266 19c-136,0 -247,111 -247,247 0,137 111,247 247,247 137,0 247,-110 247,-247 0,-136 -110,-247 -247,-247zm-128 245l0 0c-21,-10 -27,-40 -4,-86 8,-18 29,-33 47,-34 3,-1 8,0 11,0 9,2 28,10 48,41 2,3 1,6 -2,7l-3 1c-3,2 -7,1 -9,-1l-8 -7c-2,-3 -4,-2 -4,1 0,10 -1,20 -5,28 -23,46 -50,60 -71,50zm137 181l0 0c0,0 0,0 1,0 0,0 0,0 1,0l-2 0zm1 0l0 0c-27,1 -28,-34 -27,-47 0,-4 3,-6 6,-6 6,1 14,1 20,1 7,0 16,-1 22,-1 3,0 6,2 6,6 0,13 -1,48 -27,47zm62 -59l0 0c-31,8 -57,-5 -57,-19 0,-13 0,-24 0,-24 0,-7 5,-15 10,-18 4,-3 8,-6 8,-9 0,-1 0,-2 0,-2 -1,-1 -1,-1 -2,-1 0,-1 -6,-2 -13,-3 -2,0 -5,0 -8,0l-1 0c-2,0 -5,0 -8,0 -7,1 -12,2 -13,3 0,0 -1,0 -1,1 -1,0 -1,1 -1,2 1,3 4,6 8,9 6,3 10,11 10,18l0 24c0,14 -26,27 -57,19 -35,-9 -59,-30 -59,-74 0,-6 1,-12 2,-18 2,-9 24,-21 40,-39 7,-8 15,-20 22,-36 1,-3 2,-5 3,-8 1,-5 3,-7 5,-6 2,1 9,0 17,-4 8,-4 13,-9 11,-11 -1,-3 -2,-5 -2,-5 -2,-3 -4,-6 -6,-9 -4,-4 1,-15 11,-24 10,-9 28,-9 38,0 10,9 15,20 12,25 -2,2 -4,5 -6,8l-2 5c-2,2 3,7 11,11 8,4 15,5 17,4 2,-1 4,1 5,6 1,3 2,5 3,8 7,16 15,27 22,36 15,18 37,30 39,39 1,6 1,12 1,18 0,44 -23,65 -59,74zm77 -122l0 0c-21,10 -48,-4 -70,-50 -4,-8 -6,-18 -6,-28 0,-3 -1,-4 -4,-1l-8 7c-2,2 -6,3 -9,2l-3 -2c-3,-1 -4,-4 -2,-7 20,-31 39,-39 48,-41 3,0 8,-1 11,0 18,1 39,16 47,34 23,46 17,76 -4,86z"/>
  </g>
 </g>
</svg>
