<?xml version="1.0" encoding="UTF-8"?>
<!DOCTYPE svg PUBLIC "-//W3C//DTD SVG 1.1//EN" "http://www.w3.org/Graphics/SVG/1.1/DTD/svg11.dtd">
<!-- Creator: CorelDRAW X7 -->
<svg xmlns="http://www.w3.org/2000/svg" xml:space="preserve" width="1.93759in" height="1.72792in" version="1.1" style="shape-rendering:geometricPrecision; text-rendering:geometricPrecision; image-rendering:optimizeQuality; fill-rule:evenodd; clip-rule:evenodd"
viewBox="0 0 950 847"
 xmlns:xlink="http://www.w3.org/1999/xlink">
 <defs>
  <style type="text/css">
   <![CDATA[
    .fil2 {fill:#F4E8C1}
    .fil0 {fill:#B5AB91}
    .fil1 {fill:#584034}
    .fil3 {fill:#282828}
   ]]>
  </style>
 </defs>
 <g id="Layer_x0020_1">
  <metadata id="CorelCorpID_0Corel-Layer"/>
  <path class="fil0" d="M710 681l-10 63c0,0 27,-10 43,37l-86 0c0,0 -24,-145 53,-100z"/>
  <path class="fil1" d="M827 169c-3,17 -4,36 5,51 7,11 19,19 26,31 5,7 6,16 5,25 -4,-9 -13,-15 -22,-16 5,6 6,16 4,24 0,6 -2,12 -6,16 -2,3 -6,5 -9,7 -13,6 -29,5 -41,-1 -16,-8 -26,-25 -30,-42 -3,-17 -2,-35 1,-53l67 -42z"/>
  <path class="fil2" d="M944 70l-84 -24 -25 -31c0,0 -34,-26 -106,-9 -72,17 -94,187 -122,220 -22,26 -315,67 -419,81 -46,-2 -91,-17 -122,-30 -14,-5 -25,11 -15,21 6,6 13,12 21,17 26,15 55,39 69,51 -7,8 -15,16 -18,26 -6,18 4,41 -4,59 -5,10 -14,16 -21,25 -11,15 -14,35 -14,54 0,14 0,31 -11,41 -6,5 -15,7 -21,12 -9,7 -13,19 -15,31 -2,11 -3,23 -8,33 -6,10 -18,18 -29,14 11,5 23,4 35,1 -16,20 -27,33 -27,33l57 152 83 0c0,0 3,-40 -37,-46 0,0 -22,-48 4,-77 2,-3 5,-5 8,-8 -4,14 -4,29 2,42 2,-12 8,-22 17,-30 2,6 4,13 6,20 8,-12 17,-23 25,-35 3,11 3,22 -1,32 13,-14 25,-28 38,-42 0,9 0,17 -1,26 14,-17 26,-35 38,-53 0,8 2,16 5,23 6,-14 11,-28 17,-41 6,6 11,13 17,20 -5,-14 -5,-28 0,-41 9,10 19,19 31,25 -10,-15 -14,-34 -9,-52 4,7 8,15 10,23 5,-21 14,-40 28,-55 8,15 10,33 6,50 5,-17 12,-33 21,-47 7,17 9,35 7,53 5,-15 15,-29 29,-38 4,16 7,32 10,47 7,-13 16,-24 26,-34 1,14 4,27 8,40 6,-12 11,-25 15,-38 7,16 12,32 15,48 6,-13 11,-26 13,-39 8,14 13,30 17,46 12,-20 25,-39 40,-57 4,21 2,42 -6,62 6,-9 12,-19 18,-28 -3,25 -6,51 -8,76 -10,37 -20,66 -20,66l83 62 95 0c0,0 -18,-36 -48,-40 0,0 10,-74 11,-106 0,-1 0,-2 0,-3 7,-3 14,-7 20,-12 -3,9 -5,18 -6,28 19,-12 36,-28 49,-46 -5,13 -7,27 -7,40 23,-20 41,-45 52,-73 1,11 3,22 4,33 16,-20 28,-43 36,-67 3,13 6,26 9,39 11,-27 16,-57 14,-87 2,-3 3,-6 4,-9 19,-51 13,-77 13,-77 0,0 -37,-100 -70,-141l13 -131c0,0 26,-20 40,-11 14,9 26,0 29,-14 0,0 41,-14 66,-32 0,0 3,-31 0,-68z"/>
  <path class="fil3" d="M330 602c4,-9 10,-17 16,-24 8,15 10,33 6,50 5,-17 12,-33 21,-47 7,17 9,35 7,53 5,-15 15,-29 29,-38 4,16 7,32 10,47 7,-13 16,-24 26,-34 1,14 4,27 8,40 6,-12 11,-25 15,-38 7,16 12,32 15,48 6,-13 11,-26 13,-39 8,14 13,30 17,46 12,-20 25,-39 40,-57 4,21 2,42 -6,62 6,-9 12,-19 18,-28 0,4 -1,8 -1,12 5,-15 7,-31 3,-50 -3,-9 7,-18 13,-27 24,-34 73,-40 83,-83 24,-99 -65,-157 -77,-246 -1,-4 -1,-8 0,-12 -74,25 -308,58 -398,70 -46,-2 -91,-17 -122,-30 -14,-5 -25,11 -15,21 6,6 13,12 21,17 26,15 55,39 69,51 -7,8 -15,16 -18,26 -6,18 4,41 -4,59 -5,10 -14,16 -21,25 -11,15 -14,35 -14,54 0,14 0,31 -11,41 -6,5 -15,7 -21,12 -9,7 -13,19 -15,31 -2,11 -3,23 -8,33 -6,10 -18,18 -29,14 3,1 6,2 8,2 0,0 37,2 66,-39 29,-42 64,-66 64,-66l-23 46c0,0 60,-39 70,-106 0,0 44,18 63,55 0,0 30,0 49,-23 0,0 29,34 33,72z"/>
  <path class="fil1" d="M708 16c-36,26 -57,93 -74,145 1,8 3,15 7,23 9,22 34,34 56,22 0,0 61,-53 104,-45 43,8 59,-23 40,-57l22 -20c-2,-22 -15,-42 -35,-62 -23,-15 -60,-22 -120,-6z"/>
  <path class="fil3" d="M832 62c0,5 -4,9 -10,9 -5,0 -9,-4 -9,-9 0,-5 4,-10 9,-10 6,0 10,5 10,10z"/>
  <path class="fil3" d="M785 76c0,0 0,-29 13,-45 14,-17 24,-15 30,-9 5,6 4,19 4,19 0,0 -11,-1 -19,3 -8,4 -28,32 -28,32z"/>
  <path class="fil3" d="M948 69c0,0 -15,-4 -26,0 -12,4 -9,19 0,28 8,9 20,12 23,30 0,0 9,-41 3,-58z"/>
  <path class="fil3" d="M904 160c0,0 -30,11 -47,10 -17,-1 -10,6 -7,10 4,4 20,7 25,-7 0,0 19,-8 29,-13z"/>
  <path class="fil3" d="M686 84c-8,12 -8,28 -2,41 6,14 18,24 20,38 2,11 -3,22 -4,34 -1,10 2,21 6,31 2,6 4,12 1,17 -2,5 -8,7 -12,9 -23,13 -9,51 -41,62 6,7 27,0 39,-15 0,0 -2,38 11,38 7,0 14,-2 20,0 6,2 10,6 15,7 8,2 15,-1 22,-4 8,-3 16,-7 24,-11 11,-7 22,-14 28,-25 9,-15 6,-35 3,-52 -6,-30 -15,-61 -36,-83 -5,-6 -10,-11 -13,-17 -4,-12 3,-26 -1,-38 -3,-12 -15,-19 -21,-29 -9,-12 -10,-30 -2,-43 -25,5 -46,16 -57,40z"/>
  <path class="fil1" d="M572 568c19,-58 80,-123 34,-181 -6,22 -18,37 -24,58 0,-36 -16,-73 -46,-95 18,52 -7,102 -16,151 0,-25 0,-49 -6,-74 -15,25 -31,46 -34,77 -12,-22 -3,-49 -18,-71 -9,22 -19,46 -25,68 -6,-31 -18,-68 -49,-83 0,18 -3,34 0,52 -22,-37 -52,-74 -95,-77 -3,0 -6,16 -3,22 31,56 57,118 39,181 0,2 0,3 1,6 4,-9 10,-17 16,-24 8,15 10,33 6,50 5,-17 12,-33 21,-47 7,17 9,35 7,53 5,-15 15,-29 29,-38 4,16 7,32 10,47 7,-13 16,-24 26,-34 1,14 4,27 8,40 6,-12 11,-25 15,-38 7,16 12,32 15,48 6,-13 11,-26 13,-39 8,14 13,30 17,46 12,-20 25,-39 40,-57 4,21 2,42 -6,62 36,-30 41,-58 25,-103z"/>
 </g>
</svg>
