<?xml version="1.0" encoding="UTF-8"?>
<!DOCTYPE svg PUBLIC "-//W3C//DTD SVG 1.1//EN" "http://www.w3.org/Graphics/SVG/1.1/DTD/svg11.dtd">
<!-- Creator: CorelDRAW X7 -->
<svg xmlns="http://www.w3.org/2000/svg" xml:space="preserve" width="2.53556in" height="2.65293in" version="1.1" style="shape-rendering:geometricPrecision; text-rendering:geometricPrecision; image-rendering:optimizeQuality; fill-rule:evenodd; clip-rule:evenodd"
viewBox="0 0 798 835"
 xmlns:xlink="http://www.w3.org/1999/xlink">
 <defs>
  <style type="text/css">
   <![CDATA[
    .fil0 {fill:#5B3B32}
   ]]>
  </style>
 </defs>
 <g id="Layer_x0020_1">
  <metadata id="CorelCorpID_0Corel-Layer"/>
  <path class="fil0" d="M714 12c3,4 5,8 7,13 9,23 30,51 43,84 6,13 8,44 -15,38 -11,-3 -26,-17 -26,-17 -7,-6 -18,-10 -11,4 28,61 28,112 34,177 1,28 3,30 -6,57 -3,7 -6,15 -9,22 29,61 -1,66 4,113 1,9 5,26 6,31 4,26 1,43 -1,71 0,39 -9,93 11,128 3,4 15,13 15,13 7,6 41,37 30,43 -4,2 -1,3 -5,6 -2,3 -10,3 -10,3 2,9 -35,7 -37,1 -1,-2 -30,8 -42,-11 -3,-6 -2,-14 -2,-15 -2,-2 -5,-3 -10,-4 -4,-2 -8,-4 -7,-8 0,-5 4,-19 4,-24 0,-31 -11,-72 -18,-103 -6,-11 -17,-16 -29,-18 -25,-3 -56,11 -62,22 -21,33 -30,24 -27,68 -1,5 -2,11 -4,17 6,1 11,3 16,5 18,11 10,17 1,25 -15,12 -7,13 -14,23 0,0 3,6 6,7 3,2 5,5 7,9 2,7 2,16 2,22 -1,13 -3,11 -13,12 0,0 -1,5 -4,5 -3,1 -7,2 -9,0 -2,-2 -13,-1 -13,-1 2,6 -15,5 -19,5 -9,0 -7,0 -12,-6 -3,-2 -6,0 -10,0 -5,0 -9,3 -13,-2 -14,-20 3,-13 0,-38 0,-4 -3,-9 -3,-9 0,0 -7,-3 -12,-3 -22,0 -25,0 -32,4 -3,2 -7,5 -13,9 -13,10 -25,11 -41,9 -13,-2 -69,-1 -107,-5 -56,-5 -29,-15 -45,-65 -7,-18 -3,-43 3,-65 5,-16 12,-32 17,-48 -67,-52 -80,-173 -212,-93 -13,7 -39,20 -21,-7 2,-3 4,-6 6,-9 26,-38 97,-42 137,-29 34,10 64,31 85,61 24,33 36,37 63,-1 18,-26 33,-40 54,-62 18,-21 43,-45 64,-63 22,-18 38,-32 55,-48 20,-20 41,-43 59,-64 9,-11 8,-21 4,-30 -3,-6 -8,-12 -11,-18 -7,-10 -11,-17 -18,-27 -2,-1 -5,-3 -7,-5 -3,1 -5,2 -8,2 3,25 -5,61 -31,71 -10,3 -20,2 -32,-9 -14,-11 -19,-25 -28,-39 -2,-4 -8,-8 -10,-17 -15,-50 39,-69 73,-96 9,-10 23,-14 35,-10 2,1 8,4 9,4 2,0 5,2 7,-1 3,-2 5,-6 7,-8 27,-24 36,-41 79,-46 0,0 7,-1 8,-2 1,-1 81,-105 108,-58z"/>
 </g>
</svg>
