<?xml version="1.0" encoding="UTF-8"?>
<!DOCTYPE svg PUBLIC "-//W3C//DTD SVG 1.1//EN" "http://www.w3.org/Graphics/SVG/1.1/DTD/svg11.dtd">
<!-- Creator: CorelDRAW X7 -->
<svg xmlns="http://www.w3.org/2000/svg" xml:space="preserve" width="2.75873in" height="2.78314in" version="1.1" style="shape-rendering:geometricPrecision; text-rendering:geometricPrecision; image-rendering:optimizeQuality; fill-rule:evenodd; clip-rule:evenodd"
viewBox="0 0 1566 1580"
 xmlns:xlink="http://www.w3.org/1999/xlink">
 <defs>
  <style type="text/css">
   <![CDATA[
    .fil3 {fill:#2A1A11;fill-rule:nonzero}
    .fil4 {fill:#446748;fill-rule:nonzero}
    .fil2 {fill:#5B4628;fill-rule:nonzero}
    .fil0 {fill:#5E492A;fill-rule:nonzero}
    .fil1 {fill:#7E603B;fill-rule:nonzero}
   ]]>
  </style>
 </defs>
 <g id="__x0023_Layer_x0020_2">
  <metadata id="CorelCorpID_0Corel-Layer"/>
  <path class="fil0" d="M513 1029c0,0 -2,431 75,484 107,72 -90,56 -137,53 -48,-2 -109,-559 -109,-559l168 0 3 22z"/>
  <path class="fil1" d="M989 1035c0,0 -40,429 21,488 85,80 -82,49 -122,42 -40,-6 -43,-565 -43,-565l143 12 1 23z"/>
  <path class="fil1" d="M97 515c-178,94 -65,288 -23,350 12,-29 28,-57 53,-83 -33,-36 -81,-120 -30,-267z"/>
  <path class="fil2" d="M1134 123c9,0 18,1 28,1l-39 -116c0,0 -36,51 -72,92l34 32c2,-1 5,-2 9,-3 11,-4 24,-6 40,-6z"/>
  <path class="fil1" d="M902 8c-6,18 50,152 87,146 14,-2 38,-26 62,-54 36,-41 72,-92 72,-92 0,0 -215,-18 -221,0z"/>
  <path class="fil2" d="M1306 207c22,13 17,39 33,65l57 -22c-19,-51 -34,-111 -34,-111l-56 68z"/>
  <path class="fil1" d="M1359 139c0,0 15,60 34,111 13,35 27,66 40,73 32,19 132,-86 133,-106 1,-19 -207,-78 -207,-78z"/>
  <path class="fil1" d="M1022 567c-28,21 -69,36 -101,39 -353,59 -380,-22 -661,90 -60,23 -102,53 -133,86 -25,26 -41,54 -53,83 -44,111 -10,236 -9,309 -73,82 -68,324 -62,367 6,42 176,40 132,-21 -44,-62 19,-285 19,-285 0,0 215,14 238,-162 -15,-4 -62,-18 -85,-74l11 -4c24,59 79,66 81,66l-1 7c333,230 607,72 656,41 -11,-15 -41,-60 -32,-85l12 4c-7,19 21,62 32,77l-4 4c1,39 9,295 38,438 8,36 164,59 126,-24 -38,-84 -70,-309 13,-667 19,-80 34,-139 47,-186 -16,2 -25,2 -39,2 -149,0 -205,-77 -225,-105z"/>
  <path class="fil3" d="M791 240c10,-6 24,-19 20,-32 0,0 0,-1 0,-1 -3,-11 -18,-16 -27,-20 -6,-3 -12,-7 -18,-11 -18,-11 -37,-24 -57,-21 -22,4 -13,32 -8,46 2,5 5,11 7,16 4,7 9,15 15,21 18,18 47,13 68,2z"/>
  <path class="fil2" d="M1034 1028l-12 -4c-9,25 21,70 32,85 1,1 2,3 3,4l5 -4 4 -4c-11,-15 -39,-58 -32,-77z"/>
  <path class="fil2" d="M318 995l-11 4c23,56 70,70 85,74 3,0 5,0 6,0l0 -5 1 -7c-2,0 -57,-7 -81,-66z"/>
  <path class="fil1" d="M1330 161c-15,-26 -35,-44 -58,-57 -28,-16 -59,-23 -88,-26 -9,0 -19,-1 -28,-1 -16,0 -29,2 -40,6 -3,1 -6,2 -9,3 -45,19 -54,64 -97,91 -7,4 -15,7 -24,10 -58,14 -152,-15 -220,-11 6,4 12,8 18,11 9,4 24,9 27,20 0,0 0,1 0,1 4,13 -10,26 -20,32 -21,11 -50,16 -68,-2 -6,-6 -11,-14 -15,-21 -1,27 20,66 49,105 1,0 3,1 4,2 2,1 5,2 7,3 6,3 12,4 18,6 8,2 17,4 26,5 12,2 25,3 38,3 16,0 32,0 48,-1l1 13c-12,0 -22,0 -32,0 -13,0 -25,0 -38,-1 -16,-1 -31,-4 -47,-7 -5,-2 -10,-3 -15,-5 -4,-2 -8,-3 -10,-6 -3,132 173,92 261,145 26,15 35,31 33,47 1,0 1,0 1,1 11,14 77,119 247,92 0,0 5,-18 8,-26 0,0 0,0 0,0 27,-95 37,-126 50,-263 8,-77 -4,-131 -27,-169zm-160 96l0 0c0,-14 12,-25 27,-25 16,0 28,11 28,25 0,14 -12,26 -28,26 -15,0 -27,-12 -27,-26zm-111 -96l0 0c16,0 28,12 28,26 0,14 -12,25 -28,25 -15,0 -27,-11 -27,-25 0,-14 12,-26 27,-26z"/>
  <path class="fil3" d="M1059 212c16,0 28,-11 28,-25 0,-14 -12,-26 -28,-26 -15,0 -27,12 -27,26 0,14 12,25 27,25z"/>
  <path class="fil3" d="M767 340c5,2 10,3 15,5 16,3 31,6 47,7 13,1 25,1 38,1 10,0 20,0 32,0l-1 -13c-16,1 -32,1 -48,1 -13,0 -26,-1 -38,-3 -9,-1 -18,-3 -26,-5 -6,-2 -12,-3 -18,-6 -2,-1 -5,-2 -7,-3 -1,-1 -3,-2 -4,-2 0,0 -1,1 -1,1 -2,1 -2,4 -2,5 1,3 1,5 3,6 2,3 6,4 10,6z"/>
  <path class="fil4" d="M1299 619c-170,27 -236,-78 -247,-92 0,-1 0,-1 -1,-1 -12,-12 -49,15 -33,36 1,1 2,3 4,5 20,28 76,105 225,105 14,0 23,0 39,-2 6,-1 12,-2 21,-3 30,-5 18,-79 0,-74 0,0 0,0 0,0 -3,8 -8,26 -8,26z"/>
  <path class="fil3" d="M1197 228c-17,0 -31,13 -31,29 0,16 14,29 31,29 18,0 32,-13 32,-29 0,-16 -14,-29 -32,-29z"/>
 </g>
</svg>
