<?xml version="1.0" encoding="UTF-8"?>
<!DOCTYPE svg PUBLIC "-//W3C//DTD SVG 1.1//EN" "http://www.w3.org/Graphics/SVG/1.1/DTD/svg11.dtd">
<!-- Creator: CorelDRAW X7 -->
<svg xmlns="http://www.w3.org/2000/svg" xml:space="preserve" width="2.95424in" height="2.29967in" version="1.1" style="shape-rendering:geometricPrecision; text-rendering:geometricPrecision; image-rendering:optimizeQuality; fill-rule:evenodd; clip-rule:evenodd"
viewBox="0 0 1098 855"
 xmlns:xlink="http://www.w3.org/1999/xlink">
 <defs>
  <style type="text/css">
   <![CDATA[
    .fil0 {fill:#373435}
   ]]>
  </style>
 </defs>
 <g id="Layer_x0020_1">
  <metadata id="CorelCorpID_0Corel-Layer"/>
  <path class="fil0" d="M150 757c0,2 1,6 1,8 0,2 -2,6 -2,8 -2,9 4,13 -4,19 -4,2 -9,4 -14,5 -8,2 -17,2 -25,1 -14,-1 -25,-1 -31,-13 -2,-3 -2,-8 -2,-10 0,-2 1,-7 4,-10 2,-2 3,-6 4,-10 2,-10 20,-47 26,-56 5,-7 12,-54 15,-65 4,-14 -3,-15 9,-32 2,-2 5,-3 7,-7 3,-3 5,-21 5,-21 0,-34 10,-61 20,-93 -40,17 -73,14 -99,-1 -23,-15 -40,-39 -57,-66 0,-1 -7,-17 -7,-18 1,-10 38,23 41,26 10,10 19,22 29,28 23,14 31,12 56,7 90,-14 49,-87 208,-98 65,-5 130,1 194,3 50,2 73,3 95,-5 19,-7 37,-19 70,-41 6,-4 -2,-4 -2,-6 -1,-3 -20,-10 -25,-21 -7,-20 12,-76 27,-94 0,-33 -2,-57 22,-80 14,-14 22,-36 31,-54 10,-20 50,-43 71,-50 15,-5 31,-7 56,-11 16,-2 20,4 27,4 8,0 15,-2 23,-1 6,1 13,5 15,12 1,1 2,3 5,5 7,3 11,1 19,1 9,-1 25,2 31,1 20,-1 39,-3 60,-3 23,-1 54,2 42,34 -2,5 -4,10 -6,15 -2,4 -5,8 -7,12 -2,6 -4,11 -6,17 -12,21 -32,36 -53,46 -18,10 -26,14 -46,18 -2,1 -9,0 -12,2 -4,2 -7,4 -11,7 -11,7 -12,12 -18,24 4,9 64,83 43,121 -15,26 -41,20 -63,8 -2,78 19,139 19,201 0,22 -19,47 -32,64 -4,10 -9,25 -11,36 -1,7 -25,56 -31,70 -2,6 -12,35 -12,41 -2,14 -2,39 11,49 7,4 18,10 27,15 7,4 14,7 17,10 3,2 11,9 12,9 1,1 8,2 8,5 0,3 2,6 -1,7 -4,1 -7,1 -8,2 -1,1 -5,3 -5,3 0,0 2,6 -7,7 -11,2 -42,2 -54,1 -14,0 -28,-2 -33,-4 -15,-6 -13,-9 -17,-24 -1,-1 -1,-3 -2,-4 -3,3 -2,8 -6,8 -12,2 -2,-34 -3,-37 -1,-2 1,-5 0,-7 -1,-3 -1,-3 -2,-5 -1,-2 -2,-4 -2,-7 1,-2 0,-3 2,-8 3,-5 5,-7 5,-10 -1,-9 -2,-16 -3,-26 -3,-26 -22,-15 -43,-9 -1,0 -2,0 -3,0 -10,3 -10,5 -13,15 -1,3 -2,7 -2,10 -1,10 -2,21 -2,31 0,2 0,10 0,11 0,1 3,9 3,9 5,9 6,9 13,17 3,3 6,6 10,9 1,2 4,3 6,5 5,3 5,5 8,9 2,6 0,7 -5,9 -2,1 -3,3 -4,5 0,1 -2,4 -3,4 -1,1 -2,4 -5,4 -4,0 -5,0 -9,1 -4,1 -3,1 -7,2 -5,1 -16,4 -21,2 -6,-2 -4,-3 -9,-2 -6,1 -6,2 -9,2 -4,1 -3,3 -11,1 -7,-2 -6,1 -10,-2 -8,-8 -5,-8 -10,-16 -3,-5 -5,-10 -5,-16 0,-10 3,-20 3,-30 1,-7 -1,-11 -2,-14 -9,-18 5,-34 -11,-60 -1,-4 -2,-8 -3,-11 -40,-11 -69,-38 -107,-53 -31,-13 -57,-23 -90,-30 -21,-5 -41,-7 -48,-1 -6,6 -11,15 -17,20 0,0 -6,9 -6,14 0,11 17,62 21,73 6,4 11,9 17,13 0,0 8,3 10,4 8,3 10,8 14,14 3,4 6,8 7,11 1,4 0,8 -8,13 -3,3 -9,5 -14,4 -3,-1 -6,-2 -9,-1 -5,1 -10,3 -14,2 -5,-2 -6,-3 -8,-2 -14,2 -15,5 -27,-9 -26,-31 -6,-34 -19,-55 -6,-10 -10,-26 -14,-37 -5,-4 -11,-11 -16,-19 -14,-21 -3,-32 10,-51 5,-6 8,-9 12,-15 2,-33 -34,-36 -55,-22 -8,12 -29,21 -41,11 -6,-1 -13,-2 -17,4 -16,20 -29,35 -47,45 -4,2 -6,12 -10,22 -9,20 -24,80 -18,97z"/>
 </g>
</svg>
