<?xml version="1.0" encoding="UTF-8"?>
<!DOCTYPE svg PUBLIC "-//W3C//DTD SVG 1.1//EN" "http://www.w3.org/Graphics/SVG/1.1/DTD/svg11.dtd">
<!-- Creator: CorelDRAW X7 -->
<svg xmlns="http://www.w3.org/2000/svg" xml:space="preserve" width="2.91305in" height="2.28081in" version="1.1" style="shape-rendering:geometricPrecision; text-rendering:geometricPrecision; image-rendering:optimizeQuality; fill-rule:evenodd; clip-rule:evenodd"
viewBox="0 0 1228 962"
 xmlns:xlink="http://www.w3.org/1999/xlink">
 <defs>
  <style type="text/css">
   <![CDATA[
    .fil0 {fill:#373435}
   ]]>
  </style>
 </defs>
 <g id="Layer_x0020_1">
  <metadata id="CorelCorpID_0Corel-Layer"/>
  <path class="fil0" d="M422 142c16,25 30,48 45,74 12,30 40,64 68,80 48,27 50,61 115,65 19,1 39,0 58,0 24,0 46,-2 67,-3 22,-2 198,-22 198,-40 0,-7 -9,-24 -10,-28 -9,-20 -12,-22 -12,-46 0,-21 -3,-20 -13,-39 -8,-14 -15,-28 -15,-45 0,-15 7,-59 14,-70 12,-19 19,-16 23,5 3,10 6,16 8,22 16,34 25,76 44,111 21,61 21,86 62,145 43,47 92,81 127,120 7,9 18,28 18,28 8,36 19,134 -5,164 1,34 0,61 6,94 12,39 -23,43 -23,54 0,24 -67,48 -87,50 -29,4 -49,-6 -90,-29 -15,-9 -28,-18 -35,-30 -6,-9 -24,-15 -33,-10 -26,14 -59,28 -92,35 -51,12 -99,12 -104,15 -86,49 -90,69 -194,92 -20,4 -40,8 -48,5 -11,-4 -81,-17 -49,-43 5,-4 12,-4 12,-11 0,-13 -7,-12 -19,-14 -7,0 -12,1 -25,4 -29,5 -83,14 -105,-5 -24,-21 -2,-46 19,-57 -3,-10 -9,-12 -17,-19 -10,-8 -18,-16 -20,-34 -2,-22 17,-56 17,-71 0,-3 2,-20 2,-20 -1,-29 -3,-59 -4,-88 2,-15 4,-30 6,-45 3,-51 1,-68 -20,-115 -4,-18 -7,-53 -31,-36 -9,6 -16,21 -19,35 -13,55 -4,81 -39,135 -10,16 -24,30 -41,38 -24,9 -80,-12 -80,-47 0,-7 -11,-23 -18,-24 -3,0 -5,2 -11,6 0,0 -6,14 -7,16 0,3 2,13 -6,8 -46,-24 -43,-78 -48,-129 0,-3 0,-6 0,-9 -2,-2 -4,-4 -5,-6 -10,-12 -6,-21 1,-30 3,-3 7,-7 10,-10 6,-10 6,-8 6,-20 -5,-12 6,-15 18,-22 8,-5 15,-10 22,-16 6,-5 12,-10 18,-16 8,-8 14,-13 21,-19 9,-8 16,-15 23,-25 4,-12 4,-10 13,-19 18,-12 -2,-25 -12,-25 -25,-1 -36,19 -46,36 -1,3 -2,6 -3,10 -1,3 -2,13 -7,12 -3,-1 -3,-8 -3,-13 0,-19 8,-36 20,-50 13,-15 19,-23 39,-31 24,-6 47,-8 70,-17 14,-9 19,-17 24,-27 17,-29 16,-35 14,-69 0,-10 -1,-21 -2,-31 -1,-14 -1,-19 1,-33 1,-7 2,-15 8,-15 9,1 8,10 12,16 5,9 -3,21 15,32 4,2 8,2 18,3 18,8 14,31 19,32 8,2 14,6 21,8 6,-2 12,-6 17,-10 16,-14 27,-26 45,-38 8,-9 21,-14 24,1 1,13 1,23 1,36 0,19 -1,45 9,62z"/>
 </g>
</svg>
