<?xml version="1.0" encoding="UTF-8"?>
<!DOCTYPE svg PUBLIC "-//W3C//DTD SVG 1.1//EN" "http://www.w3.org/Graphics/SVG/1.1/DTD/svg11.dtd">
<!-- Creator: CorelDRAW X7 -->
<svg xmlns="http://www.w3.org/2000/svg" xml:space="preserve" width="2.68344in" height="2.33012in" version="1.1" style="shape-rendering:geometricPrecision; text-rendering:geometricPrecision; image-rendering:optimizeQuality; fill-rule:evenodd; clip-rule:evenodd"
viewBox="0 0 2756 2393"
 xmlns:xlink="http://www.w3.org/1999/xlink">
 <defs>
  <style type="text/css">
   <![CDATA[
    .fil7 {fill:#1C1D1B;fill-rule:nonzero}
    .fil8 {fill:#AC0E0E;fill-rule:nonzero}
    .fil3 {fill:#B98C1A;fill-rule:nonzero}
    .fil10 {fill:#C69F17;fill-rule:nonzero}
    .fil5 {fill:#CB842D;fill-rule:nonzero}
    .fil9 {fill:#D3943E;fill-rule:nonzero}
    .fil11 {fill:#DC8E1E;fill-rule:nonzero}
    .fil4 {fill:#E08D26;fill-rule:nonzero}
    .fil0 {fill:#E09427;fill-rule:nonzero}
    .fil1 {fill:#EDA836;fill-rule:nonzero}
    .fil2 {fill:#F8B747;fill-rule:nonzero}
    .fil6 {fill:#FBCC61;fill-rule:nonzero}
   ]]>
  </style>
 </defs>
 <g id="Objects">
  <metadata id="CorelCorpID_0Corel-Layer"/>
  <path class="fil0" d="M460 1745c0,0 160,390 176,433 0,0 -104,29 -82,87 23,58 151,65 400,30 250,-36 0,-588 0,-588l-494 38z"/>
  <path class="fil0" d="M1678 1949c0,0 51,105 126,129 0,0 27,71 58,100 0,0 -132,15 -119,101 13,86 289,90 392,69 103,-22 177,-95 142,-209 -36,-114 -223,-316 -347,-340 -124,-25 -252,150 -252,150z"/>
  <path class="fil1" d="M853 1770c0,0 114,376 126,411 0,0 -115,-13 -94,98 21,111 315,69 379,54 64,-14 71,-54 71,-54 0,0 56,8 60,-56 0,0 117,-91 110,-184 0,0 209,29 389,-109 0,0 71,120 224,113 0,0 77,93 85,162 0,0 -121,16 -128,111 -7,95 329,82 397,37 67,-44 63,-367 63,-367 0,0 57,-7 71,-88 0,0 82,81 138,-128 57,-209 -109,-672 -212,-798 -103,-126 -315,-258 -854,-236 -538,21 -825,1034 -825,1034z"/>
  <path class="fil2" d="M1600 527c0,0 96,-181 365,-188 269,-7 439,343 404,498 -35,154 -375,71 -432,58 -57,-14 -269,-32 -308,-81 -39,-50 -125,-184 -29,-287z"/>
  <path class="fil3" d="M1900 1942c0,0 -5,-2 -12,-7 -7,-5 -17,-13 -25,-25 -9,-11 -16,-26 -18,-42 -3,-16 -1,-33 6,-46 0,0 2,3 5,9 3,6 7,14 12,24 4,10 9,21 14,35 4,14 10,31 18,52z"/>
  <path class="fil3" d="M656 2306c0,0 -1,-1 -2,-2 -1,-1 -3,-2 -6,-5 -4,-4 -9,-12 -12,-23 -3,-10 -2,-23 3,-34 4,-11 14,-20 25,-22 0,0 1,3 0,8 0,4 0,10 0,18 0,7 -1,14 -2,23 -2,9 -5,20 -6,37z"/>
  <path class="fil3" d="M779 2311c0,0 -1,0 -2,-1 -2,-1 -4,-3 -7,-5 -5,-5 -11,-13 -15,-24 -3,-10 -4,-24 1,-36 5,-12 16,-22 28,-25 0,0 0,4 -1,9 0,4 0,11 -1,19 0,7 -1,15 -2,24 -1,10 -3,21 -1,39z"/>
  <path class="fil3" d="M973 2343c0,0 -1,-1 -3,-2 -1,-2 -3,-4 -6,-8 -4,-7 -10,-17 -12,-31 -2,-13 -1,-29 6,-43 6,-15 18,-26 32,-31 0,0 -1,4 -2,10 -1,5 -2,13 -4,23 -2,9 -3,20 -6,33 -2,13 -5,28 -5,49z"/>
  <path class="fil3" d="M1096 2353c0,0 -3,-2 -8,-7 -4,-5 -9,-13 -12,-23 -3,-10 -3,-22 1,-34 4,-11 13,-21 24,-25 0,0 0,4 1,8 0,5 1,12 1,19 1,7 0,15 -1,24 -2,9 -5,20 -6,38z"/>
  <path class="fil3" d="M1818 2339c0,0 -1,-1 -2,-2 -2,-1 -4,-3 -6,-6 -4,-5 -9,-14 -12,-25 -3,-11 -2,-24 3,-36 4,-12 14,-22 26,-26 0,0 0,3 0,9 0,5 0,12 0,19 -1,8 -2,16 -3,26 -2,11 -5,22 -6,41z"/>
  <path class="fil3" d="M1918 2352c0,0 -3,-2 -7,-7 -3,-5 -7,-13 -9,-22 -2,-10 -2,-21 2,-31 4,-10 12,-19 22,-23 0,0 3,12 4,25 1,7 0,14 -2,23 -2,9 -6,19 -10,35z"/>
  <path class="fil3" d="M2163 2381c0,0 0,-1 -2,-3 -1,-1 -3,-3 -5,-6 -3,-6 -8,-16 -9,-28 -2,-11 -1,-25 5,-37 6,-12 16,-22 28,-26 0,0 0,3 0,9 -1,5 -1,12 -2,20 -1,9 -3,18 -5,28 -3,11 -7,24 -10,43z"/>
  <path class="fil3" d="M2274 2393c0,0 -1,0 -2,-2 -2,-1 -4,-2 -7,-5 -5,-4 -12,-13 -17,-24 -4,-11 -6,-25 -4,-38 3,-13 11,-25 22,-32 0,0 1,4 2,9 1,6 2,13 2,21 1,8 2,17 2,28 0,11 -1,24 2,43z"/>
  <path class="fil3" d="M1499 2058c0,0 -1,-6 -3,-16 -2,-9 -5,-23 -9,-37 -8,-30 -20,-63 -28,-96 0,0 4,2 11,6 6,5 15,13 23,25 8,12 15,29 18,50 2,20 -1,44 -12,68z"/>
  <path class="fil4" d="M1734 860c0,0 2,12 6,34 2,11 3,25 5,40 0,8 1,16 2,25 0,8 0,17 0,27 1,38 -2,83 -9,130 -8,47 -21,96 -37,145 -18,47 -40,94 -62,136 -24,41 -48,78 -71,109 -6,7 -11,15 -17,21 -5,7 -11,13 -16,19 -10,12 -19,22 -26,30 -16,16 -24,25 -24,25 0,0 8,-10 21,-27 7,-9 15,-19 24,-32 5,-6 10,-13 15,-19 5,-8 10,-15 15,-23 22,-31 43,-69 66,-110 22,-42 42,-88 59,-135 16,-47 30,-96 39,-142 7,-46 14,-90 14,-127 0,-10 1,-19 1,-27 0,-9 0,-17 -1,-25 0,-15 0,-28 -1,-39 -2,-22 -3,-35 -3,-35z"/>
  <path class="fil5" d="M1777 954c0,0 3,6 8,16 3,5 5,12 8,19 3,8 6,16 9,26 6,19 13,41 17,65 4,25 7,51 9,78 0,26 0,53 -3,78 -2,24 -7,47 -11,67 -2,9 -5,18 -7,26 -3,7 -5,14 -7,19 -4,11 -6,17 -6,17 0,0 1,-6 3,-17 1,-6 3,-13 4,-21 1,-8 2,-16 4,-26 3,-19 4,-42 6,-66 1,-25 2,-51 0,-77 -1,-25 -3,-51 -6,-75 -4,-24 -7,-47 -12,-66 -2,-9 -4,-18 -6,-26 -2,-8 -3,-14 -5,-20 -3,-11 -5,-17 -5,-17z"/>
  <path class="fil4" d="M1615 510c0,0 4,4 9,12 6,8 14,19 22,33 8,14 17,31 25,50 8,19 16,39 22,60 6,21 11,42 16,62 4,20 6,39 9,55 2,16 3,30 4,39 0,10 1,15 1,15 0,0 -2,-5 -4,-14 -3,-9 -7,-22 -10,-38 -4,-16 -10,-34 -14,-54 -5,-19 -11,-40 -18,-60 -5,-21 -12,-41 -19,-60 -7,-18 -13,-36 -20,-51 -7,-14 -12,-27 -16,-35 -4,-9 -7,-14 -7,-14z"/>
  <path class="fil2" d="M725 117c0,0 238,-78 422,0 0,0 120,-105 216,-82 71,17 81,198 81,198 0,0 118,136 127,159 14,36 15,72 15,72 0,0 199,272 149,641 -50,368 -372,619 -407,632 -36,13 -64,-55 -64,-55 0,0 -273,294 -379,308 -106,15 -553,-42 -794,-487 -241,-444 71,-816 71,-816 0,0 -9,-31 -6,-53 4,-22 52,-64 52,-64 0,0 -8,-94 14,-142 39,-82 146,-140 146,-140 0,0 7,-25 19,-39 36,-41 98,-71 98,-71 0,0 38,-150 92,-175 53,-25 148,114 148,114z"/>
  <path class="fil6" d="M944 160c0,0 -160,5 -228,53 0,0 -68,-25 -101,-27 -34,-1 -55,76 -55,76 0,0 -138,117 -146,156 -9,39 20,77 20,77 0,0 -71,133 17,240 88,108 620,111 733,11 114,-100 72,-267 72,-267 0,0 37,-24 50,-61 13,-37 -34,-162 -122,-175 0,0 21,-71 -75,-54 0,0 -67,-40 -165,-29z"/>
  <path class="fil7" d="M691 430c5,-25 98,-30 112,-2 14,29 -24,67 -53,68 -36,0 -63,-45 -59,-66z"/>
  <path class="fil8" d="M708 597c0,0 22,77 70,79 48,3 58,-67 58,-67 0,0 -43,5 -75,-61 0,0 -6,36 -53,49z"/>
  <path class="fil9" d="M636 555c0,0 4,4 11,11 8,7 20,16 35,22 8,3 17,5 26,3 8,-1 17,-6 24,-12 5,-4 9,-10 13,-15 1,-2 1,-3 2,-5 1,-2 3,-6 4,-9 3,-7 6,-16 8,-24 4,8 9,17 13,25l3 4c1,2 2,4 2,4l4 5c12,18 30,33 50,37 19,4 39,0 53,-10 14,-9 23,-21 28,-29 6,-9 8,-14 8,-14 0,0 -1,5 -5,15 -4,10 -11,24 -26,36 -14,11 -37,20 -61,16 -25,-5 -46,-22 -61,-41 -7,-11 -5,-8 -5,-9 0,0 0,0 -1,0l-4 7c-4,6 -9,13 -15,18 -10,8 -22,13 -33,13 -12,1 -22,-2 -30,-7 -17,-8 -27,-20 -34,-28 -6,-8 -9,-13 -9,-13z"/>
  <path class="fil10" d="M553 477c0,0 16,-15 41,-28 26,-13 61,-24 90,-22 0,0 -3,2 -9,4 -6,3 -15,7 -26,11 -22,9 -54,19 -96,35z"/>
  <path class="fil10" d="M827 418c0,0 32,-5 75,4 22,4 46,12 67,24 22,12 41,30 53,49 0,0 -5,-3 -13,-9 -7,-6 -19,-14 -35,-23 -32,-16 -81,-35 -147,-45z"/>
  <path class="fil7" d="M698 392c0,15 -11,27 -25,27 -13,0 -24,-12 -24,-27 0,-15 11,-27 24,-27 14,0 25,12 25,27z"/>
  <path class="fil7" d="M1004 409c0,15 -11,27 -25,27 -13,0 -25,-12 -25,-27 0,-15 12,-27 25,-27 14,0 25,12 25,27z"/>
  <path class="fil1" d="M1147 117c0,0 132,-117 224,-79 62,25 73,195 73,195 0,0 -82,-72 -117,-75 -36,-4 -41,5 -41,5 0,0 -74,-58 -139,-46z"/>
  <path class="fil1" d="M485 178c0,0 71,-63 100,-62 28,1 88,16 88,16 0,0 25,-23 52,-15 0,0 -82,-124 -140,-117 -59,7 -100,186 -100,186l0 -8z"/>
  <path class="fil11" d="M1188 118c0,0 78,-62 150,-48 73,14 76,138 76,138 0,0 -71,-65 -128,-45 0,0 -33,-21 -98,-45z"/>
  <path class="fil11" d="M698 118c0,0 -75,-87 -113,-78 -37,9 -76,118 -76,118 0,0 53,-42 76,-42 22,0 88,16 88,16 0,0 7,-7 25,-14z"/>
 </g>
</svg>
