<?xml version="1.0" encoding="UTF-8"?>
<!DOCTYPE svg PUBLIC "-//W3C//DTD SVG 1.1//EN" "http://www.w3.org/Graphics/SVG/1.1/DTD/svg11.dtd">
<!-- Creator: CorelDRAW X7 -->
<svg xmlns="http://www.w3.org/2000/svg" xml:space="preserve" width="1.34039in" height="1.0311in" version="1.1" style="shape-rendering:geometricPrecision; text-rendering:geometricPrecision; image-rendering:optimizeQuality; fill-rule:evenodd; clip-rule:evenodd"
viewBox="0 0 2677 2060"
 xmlns:xlink="http://www.w3.org/1999/xlink">
 <defs>
  <style type="text/css">
   <![CDATA[
    .fil0 {fill:#3B210F;fill-rule:nonzero}
   ]]>
  </style>
 </defs>
 <g id="_2">
  <metadata id="CorelCorpID_0Corel-Layer"/>
  <path class="fil0" d="M1891 0c-294,0 -501,0 -563,0 -12,0 -19,0 -19,0 -56,0 -235,0 -523,0 -352,0 -1001,859 -715,1107 286,248 467,-43 467,-43l143 -448 0 515 4 9c-88,98 -143,225 -143,365 0,306 258,555 577,555 8,0 16,-1 23,-1l1 1 23 0c0,0 133,-149 133,-234 0,-84 0,-342 0,-342 -125,-59 -208,-185 -208,-248 0,-82 110,-118 248,-119 138,1 248,37 248,119 0,63 -84,189 -208,243 0,313 0,291 0,342 0,60 132,239 132,239l24 0 0 -1c8,0 15,1 24,1 318,0 576,-249 576,-555 0,-140 -54,-267 -143,-365l5 -9 0 -515 143 448c0,0 181,291 467,43 285,-248 -363,-1107 -716,-1107zm-1178 1532l0 0c0,-38 31,-69 69,-69 38,0 69,31 69,69 0,38 -31,69 -69,69 -38,0 -69,-31 -69,-69zm174 319l0 0c-38,0 -69,-31 -69,-69 0,-38 31,-69 69,-69 38,0 69,31 69,69 0,38 -31,69 -69,69zm214 -276l0 0c38,0 69,31 69,69 0,38 -31,69 -69,69 -38,0 -69,-31 -69,-69 0,-38 31,-69 69,-69zm-80 -659l0 0c-49,0 -88,-39 -88,-88 0,-48 39,-88 88,-88 49,0 88,40 88,88 0,49 -39,88 -88,88zm593 797l0 0c-38,0 -69,-31 -69,-69 0,-38 31,-69 69,-69 38,0 69,31 69,69 0,38 -31,69 -69,69zm42 -797l0 0c-48,0 -88,-39 -88,-88 0,-48 40,-88 88,-88 49,0 88,40 88,88 0,49 -39,88 -88,88zm173 935l0 0c-39,0 -69,-31 -69,-69 0,-38 30,-69 69,-69 38,0 69,31 69,69 0,38 -31,69 -69,69zm173 -319l0 0c0,38 -30,69 -69,69 -38,0 -69,-31 -69,-69 0,-38 31,-69 69,-69 39,0 69,31 69,69z"/>
 </g>
</svg>
