<?xml version="1.0" encoding="UTF-8"?>
<!DOCTYPE svg PUBLIC "-//W3C//DTD SVG 1.1//EN" "http://www.w3.org/Graphics/SVG/1.1/DTD/svg11.dtd">
<!-- Creator: CorelDRAW X7 -->
<svg xmlns="http://www.w3.org/2000/svg" xml:space="preserve" width="2.69203in" height="2.48368in" version="1.1" style="shape-rendering:geometricPrecision; text-rendering:geometricPrecision; image-rendering:optimizeQuality; fill-rule:evenodd; clip-rule:evenodd"
viewBox="0 0 3224 2975"
 xmlns:xlink="http://www.w3.org/1999/xlink">
 <defs>
  <style type="text/css">
   <![CDATA[
    .fil0 {fill:#727376}
   ]]>
  </style>
 </defs>
 <g id="Layer_x0020_1">
  <metadata id="CorelCorpID_0Corel-Layer"/>
  <path class="fil0" d="M1362 439c196,-100 220,-257 317,-425 5,-7 13,-13 21,-14 32,-3 4,218 4,256 -3,177 12,224 -27,399 -7,29 -30,149 13,160 16,4 83,-10 83,-10 79,-45 252,-48 426,-29 211,23 565,91 643,324 6,19 6,53 33,84 67,77 46,101 61,190 3,17 0,42 16,49 19,7 39,-10 57,-19 28,-12 58,-22 80,-42 10,-10 17,-35 30,-56 11,-19 27,-34 53,-34 88,0 29,66 41,92 45,100 -49,156 -123,182 -35,12 -77,9 -109,28 -21,12 -33,36 -39,59 -7,24 1,49 2,73 0,0 0,112 4,131 4,18 10,55 24,77 15,22 25,67 25,67 -3,16 -2,34 -10,49 -7,13 -19,26 -33,30 -17,6 -35,-5 -53,-4 -17,2 -32,10 -49,15 0,0 -36,4 -42,-15 -6,-18 -31,-28 -31,-28 0,0 -47,-10 -49,-31 -2,-20 -16,-30 -14,-44 2,-15 16,-55 20,-72 5,-16 -2,-71 -2,-71 -6,-10 -8,-30 -20,-30 -65,-3 -252,14 -371,23 -59,5 -70,30 -99,72 -163,229 -131,198 -332,348 -40,31 -116,84 -116,84 0,35 9,71 0,105 -6,26 -22,50 -42,66 -41,31 -91,47 -137,71 0,0 -173,65 -193,75 -114,57 -139,48 -258,55 0,0 -39,14 -68,51 -28,37 -75,94 -75,94 -26,21 -48,48 -77,65 -25,14 -53,25 -82,26 -17,1 -31,-21 -48,-20 -21,1 -37,22 -57,24 -18,2 -34,-11 -51,-14 -14,-3 -27,-3 -41,-4 0,0 -35,8 -41,-2 -25,-43 -40,-54 -2,-104 18,-23 43,-38 63,-59 20,-20 33,-48 57,-63 29,-18 66,-19 98,-31 28,-10 57,-21 83,-36 34,-20 63,-46 94,-69 25,-19 48,-40 73,-59 30,-23 175,-96 115,-99 -30,-2 -174,-111 -189,-129 -10,-12 -30,6 -45,9 0,0 -54,69 -53,75 0,0 -34,108 -34,139 0,8 -18,58 -26,67 -19,22 -40,35 -63,44 -29,11 -63,9 -96,21 -32,11 -57,35 -88,49 -48,20 -101,27 -146,53 -1,0 -28,33 -51,57 -14,15 -79,64 -78,65 18,3 -6,95 -48,95 -21,0 -47,-2 -47,-2 -16,13 -29,28 -46,38 -69,39 -92,-10 -107,-20 -10,-8 -24,-7 -37,-10 0,0 -37,4 -39,-4 -2,-8 -14,7 -12,-33 2,-47 -6,-57 1,-79 14,-50 35,-73 84,-89 6,-2 80,-43 80,-43 76,-57 128,-122 192,-173 3,-2 72,-53 72,-53 67,-47 94,-80 144,-146 17,-22 34,-45 43,-72 13,-38 23,-79 22,-120 -4,-123 -43,-163 -22,-323 10,-80 22,-159 34,-238 7,-45 19,-89 25,-135 4,-35 3,-70 8,-105 3,-27 7,-55 17,-80 10,-23 26,-43 41,-64 12,-16 29,-29 39,-46 10,-15 19,-31 22,-48 4,-28 -2,-56 0,-84 1,-19 4,-38 11,-55 8,-19 27,-33 36,-53 6,-13 7,-29 7,-43 -1,-22 -2,-44 -9,-64 -10,-25 -28,-46 -41,-70 -41,-74 -34,-73 -25,-158 0,0 -30,-60 -30,-65 0,-5 -35,-59 -35,-59 0,0 -17,-46 -17,-53 0,-7 -3,-55 -3,-55 2,-17 4,-35 5,-52 1,-31 -3,-62 0,-93 2,-19 10,-35 16,-52 4,-9 5,-21 14,-25 10,-5 22,2 33,2 0,0 15,17 29,30 53,53 109,98 160,149 20,20 135,159 153,159 15,0 47,106 254,1z"/>
 </g>
</svg>
