<?xml version="1.0" encoding="UTF-8"?>
<!DOCTYPE svg PUBLIC "-//W3C//DTD SVG 1.1//EN" "http://www.w3.org/Graphics/SVG/1.1/DTD/svg11.dtd">
<!-- Creator: CorelDRAW X7 -->
<svg xmlns="http://www.w3.org/2000/svg" xml:space="preserve" width="1.78122in" height="3.18443in" version="1.1" style="shape-rendering:geometricPrecision; text-rendering:geometricPrecision; image-rendering:optimizeQuality; fill-rule:evenodd; clip-rule:evenodd"
viewBox="0 0 1133 2026"
 xmlns:xlink="http://www.w3.org/1999/xlink">
 <defs>
  <style type="text/css">
   <![CDATA[
    .fil0 {fill:#5B3B32}
   ]]>
  </style>
 </defs>
 <g id="Layer_x0020_1">
  <metadata id="CorelCorpID_0Corel-Layer"/>
  <path class="fil0" d="M697 133c-2,22 -7,36 -7,51 0,79 1,83 -41,159 -28,51 -40,70 -41,96 -2,54 23,109 37,160 2,7 13,35 17,42 15,27 50,43 75,93 85,170 183,335 269,503 105,-20 142,231 122,300 -2,9 -4,19 -5,28 5,65 -13,134 -14,199 0,12 -14,41 -35,49 -33,13 -40,-31 -79,8 -18,17 -18,34 -37,63 -16,26 -39,46 -76,47 -37,0 -67,-22 -67,-37 0,-9 1,-15 2,-24 5,-35 16,-31 25,-52 5,-11 -2,-14 -13,-14 -27,0 -39,1 -45,6 -7,6 -6,16 -10,36 -3,14 -10,38 -1,51 9,13 13,60 11,75 -2,18 -7,33 -18,40 -7,4 -14,7 -19,7 -8,-1 -21,-2 -28,-1 -15,2 -23,9 -34,8 -11,-2 -17,-8 -34,-5 -8,1 -15,2 -22,3 -11,1 -21,1 -27,-1 -9,-3 -15,-8 -18,-25 -1,-5 -3,-11 -3,-16 0,-5 2,-11 8,-17 3,-3 17,-17 17,-17 14,-16 25,-27 34,-47 9,-25 13,-39 14,-66 1,-12 0,-24 -2,-39 -2,-12 -6,-16 -12,-16 -6,0 -15,2 -25,6 -18,8 -40,19 -52,23 -28,10 -40,9 -70,22 -29,13 -73,29 -106,24 -6,-1 -13,-3 -25,-7 0,0 -8,4 -12,-2 -14,-21 -6,-40 8,-60 7,-9 25,-20 42,-28 31,-13 54,-17 75,-22 18,-4 34,-7 53,-16 16,-8 8,-42 -2,-58 -28,-45 -56,-97 -84,-140 -13,-18 -12,-26 -23,-26 -5,0 -10,1 -15,4 -9,5 -15,12 -18,22 -8,34 -17,70 -23,106 -7,37 -6,70 -21,106 -4,10 -9,20 -9,28 0,21 0,40 -1,61 0,0 5,11 -3,20 -8,10 -17,16 -17,16 -12,16 -17,40 -32,57 -7,7 -14,10 -33,20 -5,11 -14,19 -25,22 -14,6 -26,4 -40,-1 -14,-5 -20,6 -38,8 -17,2 -27,2 -41,-9 -4,-3 -6,-5 -8,-5 -4,-1 -22,0 -22,-10 0,-17 -5,-20 6,-37 -6,-20 -1,-20 16,-29 29,-15 92,-37 107,-65 16,-28 31,-48 40,-80 11,-39 4,-65 7,-104 6,-68 36,-143 18,-215 -16,-66 -2,-157 -24,-208 -28,-65 -28,-87 -37,-158 -8,-59 -11,-117 -3,-186 9,-73 4,-130 -5,-201 -5,-43 -32,-21 -79,-24 -26,-2 -51,-7 -60,-21 -1,-3 -6,-9 -6,-12 -1,-7 -14,-4 -13,-22 0,-7 3,-14 6,-19 3,-5 8,-8 13,-12 12,-7 48,-18 51,-25 1,-2 1,-3 -3,-4 -30,-13 -64,-19 -78,-53 -8,-17 -10,-18 -13,-38 -3,-2 -5,-4 -8,-6 -8,-6 -10,-15 -7,-22 2,-6 7,-11 14,-14 9,-5 21,-8 26,-10 15,-6 30,-10 45,-17 26,-11 44,-11 71,-16 19,-8 56,-20 61,-42 4,-19 4,-18 22,-22 0,0 3,-6 4,-10 4,-13 12,-15 23,-22 21,-11 41,-20 62,-34 26,-17 40,-64 50,-93 8,-15 23,-43 39,-67 13,-22 28,-41 40,-48 5,-3 12,-7 17,-4 15,6 15,43 14,56 -3,49 -7,102 -2,152 1,17 11,13 23,7 21,-12 74,-73 99,-94 10,-7 18,-13 27,-19 14,-10 19,-14 28,-16 9,-1 13,-2 18,-1 21,5 17,30 15,47z"/>
 </g>
</svg>
