<?xml version="1.0" encoding="UTF-8"?>
<!DOCTYPE svg PUBLIC "-//W3C//DTD SVG 1.1//EN" "http://www.w3.org/Graphics/SVG/1.1/DTD/svg11.dtd">
<!-- Creator: CorelDRAW X7 -->
<svg xmlns="http://www.w3.org/2000/svg" xml:space="preserve" width="2.16694in" height="2.49785in" version="1.1" style="shape-rendering:geometricPrecision; text-rendering:geometricPrecision; image-rendering:optimizeQuality; fill-rule:evenodd; clip-rule:evenodd"
viewBox="0 0 1069 1232"
 xmlns:xlink="http://www.w3.org/1999/xlink">
 <defs>
  <style type="text/css">
   <![CDATA[
    .fil4 {fill:#1C1D1B;fill-rule:nonzero}
    .fil5 {fill:#989898;fill-rule:nonzero}
    .fil1 {fill:#A4A4A4;fill-rule:nonzero}
    .fil3 {fill:#AC0E0E;fill-rule:nonzero}
    .fil6 {fill:#BABABA;fill-rule:nonzero}
    .fil0 {fill:#D2D2D2;fill-rule:nonzero}
    .fil2 {fill:#E4E4E4;fill-rule:nonzero}
   ]]>
  </style>
 </defs>
 <g id="Objects">
  <metadata id="CorelCorpID_0Corel-Layer"/>
  <path class="fil0" d="M220 753c0,0 26,267 14,356 0,0 -80,-3 -80,63 0,66 241,38 249,24 8,-14 14,-114 12,-142 0,0 9,12 18,-2 9,-13 0,-41 0,-41 0,0 51,7 55,-37 4,-44 -268,-221 -268,-221z"/>
  <path class="fil1" d="M196 1207c0,0 -1,-1 -1,-3 -1,-2 -2,-4 -2,-7 -1,-4 -1,-7 -1,-11 1,-4 2,-8 3,-12 2,-4 4,-8 6,-11 3,-4 5,-6 8,-8 2,-2 5,-3 6,-4 2,-1 3,-1 3,-1 0,0 -1,1 -2,2 -1,1 -2,4 -4,6 -2,2 -3,5 -5,8 -2,4 -3,7 -4,11 -2,3 -3,7 -4,10 0,3 -2,7 -2,10 0,2 -1,5 -1,7 0,2 0,3 0,3z"/>
  <path class="fil1" d="M260 1212c0,0 0,-1 -1,-3 -1,-2 -2,-4 -2,-8 0,-3 0,-7 1,-11 0,-4 2,-8 3,-12 3,-4 5,-7 8,-10 2,-3 5,-6 8,-7 3,-2 5,-3 7,-4 2,0 3,-1 3,-1 0,0 -1,1 -2,2 -1,2 -3,4 -5,6 -2,2 -4,5 -6,8 -2,3 -4,6 -5,10 -2,3 -4,7 -5,10 -1,3 -2,7 -2,10 -1,3 -1,5 -2,7 0,2 0,3 0,3z"/>
  <path class="fil0" d="M612 734c0,0 26,268 15,357 0,0 -80,-3 -80,63 0,66 241,37 248,23 8,-14 15,-114 13,-141 0,0 9,11 18,-2 9,-14 0,-41 0,-41 0,0 50,6 54,-38 4,-43 -268,-221 -268,-221z"/>
  <path class="fil2" d="M172 642c0,0 55,177 116,242 61,66 84,75 95,62 12,-14 12,-14 12,-14 0,0 41,68 81,70 41,3 118,-28 118,-28 0,0 139,110 177,94 39,-16 19,-84 19,-84 0,0 31,23 54,2 0,0 34,80 29,141 0,0 -45,18 -31,53 13,36 168,17 190,0 23,-17 12,-57 12,-57 0,0 18,18 25,4 6,-14 -57,-125 -57,-125 0,0 23,-13 13,-28 -9,-15 -27,-28 -27,-28 0,0 46,-168 30,-270 -16,-103 -107,-131 -107,-131 0,0 -20,-108 5,-170 25,-62 61,-155 56,-167 -4,-11 -99,52 -138,145 -39,93 -2,198 -2,198 0,0 -91,13 -184,-35 -93,-47 -486,126 -486,126z"/>
  <path class="fil1" d="M844 986c0,0 1,-2 3,-7 2,-4 5,-10 7,-18 3,-8 5,-17 7,-27 2,-10 4,-21 4,-32 0,-2 0,-7 0,-11 0,-4 0,-9 0,-12l5 5c1,2 3,4 4,4 3,3 3,3 5,3 2,1 4,0 6,0 8,-4 14,-12 18,-19 5,-7 8,-13 10,-17 2,-5 4,-7 4,-7 0,0 -1,3 -2,7 -2,5 -4,12 -8,20 -1,3 -4,7 -7,12 -3,3 -7,8 -12,10 -4,1 -8,2 -11,1 -5,-2 -4,-1 -4,-1 0,-1 0,0 0,0l0 1c0,1 0,1 0,4 -1,12 -2,23 -5,33 -2,11 -6,20 -9,27 -4,8 -8,14 -10,18 -3,4 -5,6 -5,6z"/>
  <path class="fil1" d="M917 1201c0,0 -1,0 -1,-2 -1,-1 -2,-4 -2,-6 -1,-3 -2,-6 -2,-10 0,-3 0,-7 0,-11 1,-3 2,-7 4,-10 2,-4 4,-6 6,-8 2,-2 4,-3 6,-4 1,-1 2,-1 2,-1 0,0 0,1 -1,2 -1,1 -2,3 -3,6 -2,2 -2,5 -4,7 -1,3 -1,7 -2,10 0,3 -1,6 -1,9 0,4 -1,7 -1,9 0,3 -1,5 -1,7 0,2 0,2 0,2z"/>
  <path class="fil1" d="M870 1193c0,0 -1,-1 -2,-2 -1,-1 -2,-3 -3,-5 -1,-2 -1,-5 -1,-9 0,-3 0,-6 1,-10 2,-3 4,-6 6,-8 2,-3 4,-5 7,-6 2,-1 4,-2 5,-2 2,0 3,0 3,0 0,0 -1,0 -2,1 -1,1 -2,3 -4,5 -1,1 -2,4 -4,6 -1,2 -2,4 -3,7 -1,3 -2,5 -2,8 -1,3 -1,5 -1,7 0,2 -1,4 0,6 0,1 0,2 0,2z"/>
  <path class="fil2" d="M470 878c0,0 65,138 68,242 0,0 -71,17 -68,70 2,53 204,48 231,29 27,-19 26,-92 26,-92 0,0 13,32 31,23 18,-9 -1,-75 -31,-127 0,0 47,34 19,-49 -27,-83 -56,-126 -56,-126l-220 30z"/>
  <path class="fil1" d="M749 1068c0,0 -2,-4 -6,-10 -2,-3 -4,-7 -6,-12 -1,-2 -3,-4 -4,-7 -1,-1 -2,-2 -2,-4 -1,-2 -3,-4 -4,-6 -1,-3 -2,-6 -4,-8 -1,-2 -1,-4 -2,-5l-1 -1c0,-1 0,-2 0,-2 2,2 5,4 7,6 1,1 3,2 4,3l3 2c1,1 2,2 3,2l3 1c1,1 2,1 3,1 4,1 6,-1 7,-6 1,-1 1,-3 1,-5 0,-2 0,-4 0,-5 0,-4 0,-8 -1,-12 -1,-4 -2,-7 -3,-11 -1,-4 -3,-8 -4,-12 -5,-16 -11,-31 -17,-45 -6,-14 -11,-28 -16,-39 -5,-12 -9,-21 -12,-28 -3,-7 -4,-10 -4,-10 0,0 2,3 6,9 3,7 8,16 14,27 5,11 12,24 18,38 7,14 13,30 18,46 2,3 3,7 4,12 1,4 2,8 3,12 1,4 1,8 1,12 0,3 0,5 0,7 0,2 0,4 -1,6 -1,3 -2,6 -6,9 -3,2 -7,2 -10,1 -1,0 -2,-1 -4,-1 0,0 0,0 -1,-1 0,0 -1,-1 -2,-1 0,-1 0,-1 -1,-1 0,0 0,0 0,1 1,0 1,1 1,1 5,11 8,19 11,25 2,7 4,11 4,11z"/>
  <path class="fil1" d="M515 998c0,0 -1,-2 -2,-4 -1,-3 -4,-7 -6,-12 -2,-6 -5,-11 -7,-18 -2,-6 -5,-13 -8,-20 -2,-7 -4,-14 -6,-20 -3,-6 -4,-13 -6,-18 -2,-5 -3,-9 -4,-13 -1,-3 -1,-4 -1,-4 0,0 1,1 2,4 2,3 5,7 7,12 2,4 5,10 8,17 3,6 5,13 8,20 2,6 4,13 7,20 2,6 3,13 5,18 1,5 2,10 2,13 1,3 1,5 1,5z"/>
  <path class="fil1" d="M498 1217c0,0 -1,-1 -1,-3 -1,-2 -2,-5 -1,-9 -1,-3 0,-7 1,-12 1,-4 3,-9 5,-13 3,-4 6,-7 10,-10 3,-3 7,-5 10,-7 3,-1 6,-2 8,-2 2,-1 3,-1 3,-1 0,0 -1,1 -3,2 -1,1 -3,3 -6,5 -2,2 -5,5 -8,8 -2,3 -5,6 -7,10 -2,3 -4,7 -6,10 -1,4 -2,8 -3,11 -1,3 -1,6 -2,8 0,2 0,3 0,3z"/>
  <path class="fil1" d="M564 1230c0,0 0,-1 -1,-3 0,-1 -1,-4 -1,-8 0,-3 0,-7 1,-11 2,-5 3,-9 6,-13 2,-4 5,-8 8,-11 3,-3 7,-5 10,-6 3,-2 6,-2 8,-3 2,0 3,0 3,0 0,0 -1,0 -2,1 -2,2 -4,3 -6,6 -3,1 -5,4 -8,7 -2,3 -5,7 -7,10 -2,3 -4,7 -5,11 -1,3 -3,7 -3,10 -1,3 -2,6 -2,7 0,2 -1,3 -1,3z"/>
  <path class="fil2" d="M222 146c0,0 -56,-103 -131,-119 0,0 -67,65 -19,218 0,0 -66,85 -71,162 -6,76 28,115 49,92 0,0 -9,76 22,120 31,45 77,24 77,24 0,0 56,50 73,43 17,-7 34,-17 34,-17 0,0 66,85 173,-2 0,0 43,32 85,19 43,-14 114,-58 143,-126 0,0 21,22 29,12 9,-10 12,-90 0,-109 0,0 22,20 36,7 14,-14 -14,-94 -37,-125 0,0 31,9 41,-5 10,-13 -43,-80 -70,-107 0,0 59,-119 5,-233 -114,10 -204,138 -204,138 0,0 -143,-29 -235,8z"/>
  <path class="fil3" d="M251 516c0,0 32,63 54,68 22,5 34,-60 34,-60l-37 -19c0,0 3,33 -51,11z"/>
  <path class="fil4" d="M220 403c-5,-19 124,-18 134,-10 11,9 -22,65 -67,75 -45,10 -64,-53 -67,-65z"/>
  <path class="fil5" d="M99 388c0,0 -1,1 -2,3 0,1 -2,4 -2,7 -1,4 -2,9 0,13 1,3 3,5 6,6 4,2 9,3 15,4 0,1 0,1 0,1l-1 1 -3 2c-2,1 -3,2 -5,3 -2,1 -3,3 -5,4 -1,1 -3,2 -4,3 -5,5 -10,10 -15,17 -2,3 -4,6 -6,10 -1,3 0,7 1,11 2,3 5,6 9,8 2,1 4,1 6,2 4,0 9,0 14,0 -2,4 -5,10 -6,14 -1,4 -2,7 -3,10 -2,7 -3,14 -4,22 0,7 1,14 4,20 3,6 10,9 17,10 8,1 16,-1 24,-3 7,-3 15,-7 23,-11 8,-5 15,-10 23,-15 2,-2 3,-3 5,-5l3 -2 3 -3c4,-3 7,-6 11,-9 3,-3 7,-7 11,-10 -5,35 0,45 3,40 4,-2 9,-7 13,-12 2,-2 4,-5 6,-8l1 -2 2 -3 5 -9 7 4c2,1 4,2 5,3 2,1 4,2 7,2 4,2 8,3 12,3 5,1 8,0 11,-1 1,-1 2,-2 3,-3 0,-1 1,-1 1,-2 0,0 0,-2 1,-3 0,-1 0,-2 0,-4 2,-1 3,-2 5,-3 2,-1 3,-2 5,-4l13 7 9 4c6,3 12,6 18,9 12,6 24,11 36,15 6,2 12,5 18,5 3,1 4,1 6,0 1,-1 3,-3 4,-5 3,-5 5,-11 7,-17 1,-3 2,-6 2,-9 0,-1 1,-6 1,-9l1 -10c20,8 24,10 33,13 8,4 17,7 25,9 8,3 17,6 25,8 8,3 17,5 24,5 2,0 4,-1 5,-1 0,0 0,0 1,-2 1,-3 1,-7 1,-11 -1,-8 -3,-16 -5,-25 -2,-8 -4,-16 -7,-24 -1,-4 -2,-9 -4,-13 -1,-5 -4,-12 -6,-17 3,0 7,1 10,2 2,0 3,0 5,0l2 0 1 0c4,0 7,0 11,-1 3,-1 5,-3 7,-5 1,-3 1,-7 0,-10 -1,-7 -4,-15 -6,-21 -3,-7 -6,-14 -10,-21 0,0 1,2 3,5 2,4 5,9 8,16 2,3 4,7 6,11 1,5 3,10 3,16 0,3 -1,6 -3,9 -2,2 -6,4 -9,5 -3,1 -7,2 -11,2 -3,0 -5,0 -8,-1l0 0 0 0 0 1 1 2c1,1 1,2 1,3 2,3 3,6 4,9 2,6 5,13 7,20 2,7 5,15 6,23 1,4 2,9 3,13 0,4 1,9 -1,14 0,3 -2,6 -5,8 -3,2 -6,2 -9,3 -5,0 -10,-1 -15,-1 -9,-2 -19,-5 -29,-7 -9,-3 -19,-7 -30,-10 -5,-2 -10,-4 -15,-6 -2,-1 -5,-2 -7,-2 -1,-1 -1,-1 -1,-1 0,1 0,1 0,2 -1,3 -1,6 -2,9 -1,6 -3,13 -6,19 -2,3 -4,7 -7,10 -3,3 -7,5 -12,6 -5,0 -9,-1 -12,-1 -4,-1 -7,-2 -10,-3 -14,-4 -27,-10 -40,-16 -6,-3 -13,-6 -19,-9 -5,-3 -10,-5 -16,-8l0 0 0 0c0,0 0,0 0,1 0,1 -1,3 -2,4 -1,3 -4,6 -7,8 -6,4 -13,4 -18,4 -6,0 -12,-2 -17,-4 -3,-1 -5,-2 -8,-3l-2 -1 0 0 0 0c2,-2 -4,7 -8,11 -4,6 -9,11 -17,16 -2,1 -4,2 -6,2 -3,1 -7,0 -10,-1 -2,-2 -4,-5 -5,-7 -1,-2 -2,-4 -3,-6 0,-4 -1,-10 -1,-9l1 -1c3,-3 -15,12 -29,20 -14,8 -30,16 -48,18 -4,1 -9,1 -14,0 -4,0 -9,-2 -13,-5 -5,-2 -8,-6 -10,-11 -2,-4 -3,-9 -4,-14 0,-9 1,-18 3,-27 2,-5 3,-9 4,-13l2 -3 0 -2 1 -2 1 -1c0,0 0,-1 0,-1 -1,0 -2,0 -4,0 0,0 -1,0 -2,-1 -1,0 -2,0 -3,0 -3,-2 -7,-4 -10,-7 -4,-3 -5,-7 -6,-12 -1,-4 1,-9 3,-12 4,-8 10,-14 16,-20 3,-2 7,-5 10,-8l5 -3 3 -2 1 -1c0,0 1,0 1,0l-1 -1c-6,-1 -15,-4 -17,-12 -1,-7 2,-15 6,-22z"/>
  <path class="fil4" d="M403 312c0,13 -9,23 -20,23 -11,0 -20,-10 -20,-23 0,-13 9,-24 20,-24 11,0 20,11 20,24z"/>
  <path class="fil4" d="M234 317c0,13 -9,23 -20,23 -10,0 -19,-10 -19,-23 0,-13 9,-23 19,-23 11,0 20,10 20,23z"/>
  <path class="fil6" d="M488 147c0,0 109,-107 150,-102 0,0 23,74 -17,162 0,0 -31,-40 -55,-15 0,0 -3,-34 -35,-16 0,0 -9,-38 -43,-29z"/>
  <path class="fil6" d="M140 215c1,-32 32,-23 32,-23 -2,-25 23,-27 23,-27 -42,-75 -97,-98 -97,-98 -30,78 0,166 0,166 0,0 13,-23 42,-18z"/>
  <path class="fil1" d="M693 532c0,0 1,3 1,8 0,4 0,11 -1,20 -1,3 -2,6 -4,9 -1,3 -5,6 -9,6 -4,0 -8,-2 -12,-5 -4,-2 -9,-6 -10,-7 0,0 -1,1 -1,2 -1,2 -2,3 -3,5 -2,4 -5,9 -7,13 -16,26 -37,55 -67,79 -15,11 -33,22 -52,27 -20,6 -41,6 -61,0 -4,-1 -7,-2 -11,-4 -3,-1 -6,-2 -10,-4 -3,-2 -6,-3 -9,-5l-5 -3 -2 -1c0,0 0,0 0,0l-6 4c-2,2 -5,4 -8,5 -5,4 -10,7 -16,10 -11,6 -23,11 -36,14 -18,5 -38,5 -55,0 -17,-4 -31,-13 -43,-23 -3,-3 -5,-5 -7,-7 -1,-1 -1,-2 -2,-2 0,-1 -1,-1 -1,-1 -1,0 -1,1 -2,2 -1,1 -2,2 -3,3 -2,2 -5,3 -7,5 -5,2 -10,4 -15,4 -9,2 -17,-1 -24,-3 -2,-1 -4,-2 -6,-3 -1,-1 -3,-2 -4,-2 -3,-2 -6,-4 -8,-5 -4,-3 -6,-4 -6,-4 0,0 3,1 7,4 1,1 4,2 7,4 2,1 3,1 5,2 2,1 4,2 6,2 6,2 14,4 23,3 4,-1 9,-2 13,-5 2,-1 5,-3 7,-5 1,-1 2,-2 2,-3 2,-1 3,-3 4,-5 1,0 2,1 3,3 1,1 3,2 4,3 2,2 4,4 7,6 11,10 25,18 42,21 16,4 34,4 52,-1 11,-3 23,-8 34,-13 5,-3 10,-6 15,-10 3,-2 5,-3 8,-5 2,-2 4,-3 9,-8l11 7c3,2 6,3 10,5 3,1 6,3 9,4 3,1 7,3 10,3 18,6 38,6 57,1 18,-5 35,-15 50,-26 29,-22 51,-50 67,-75 3,-4 5,-9 7,-13 2,-2 3,-4 4,-5 1,-2 2,-4 3,-6 6,6 9,8 12,11 4,3 8,4 11,4 3,1 6,-2 8,-4 2,-3 3,-6 3,-8 2,-9 2,-16 3,-20 0,-5 -1,-8 -1,-8z"/>
 </g>
</svg>
