<?xml version="1.0" encoding="UTF-8"?>
<!DOCTYPE svg PUBLIC "-//W3C//DTD SVG 1.1//EN" "http://www.w3.org/Graphics/SVG/1.1/DTD/svg11.dtd">
<!-- Creator: CorelDRAW X7 -->
<svg xmlns="http://www.w3.org/2000/svg" xml:space="preserve" width="2.93546in" height="2.41042in" version="1.1" style="shape-rendering:geometricPrecision; text-rendering:geometricPrecision; image-rendering:optimizeQuality; fill-rule:evenodd; clip-rule:evenodd"
viewBox="0 0 895 735"
 xmlns:xlink="http://www.w3.org/1999/xlink">
 <defs>
  <style type="text/css">
   <![CDATA[
    .str0 {stroke:#1C1D1B;stroke-width:4.23415}
    .fil10 {fill:none;fill-rule:nonzero}
    .fil11 {fill:#1C1D1B;fill-rule:nonzero}
    .fil12 {fill:#373736;fill-rule:nonzero}
    .fil6 {fill:#A8A8A8;fill-rule:nonzero}
    .fil5 {fill:#BBBABB;fill-rule:nonzero}
    .fil8 {fill:#C12121;fill-rule:nonzero}
    .fil7 {fill:#C1C0C0;fill-rule:nonzero}
    .fil4 {fill:#DA9A36;fill-rule:nonzero}
    .fil1 {fill:#E2E2E2;fill-rule:nonzero}
    .fil0 {fill:#E89B20;fill-rule:nonzero}
    .fil9 {fill:#EF9C9D;fill-rule:nonzero}
    .fil3 {fill:#F7B647;fill-rule:nonzero}
    .fil2 {fill:white;fill-rule:nonzero}
   ]]>
  </style>
 </defs>
 <g id="Objects">
  <metadata id="CorelCorpID_0Corel-Layer"/>
  <path class="fil0" d="M144 286c0,0 -65,-20 -115,29 -56,54 -16,116 0,124 15,8 115,-153 115,-153z"/>
  <path class="fil1" d="M300 552c0,0 -49,74 -51,99 0,0 46,11 43,37 -3,25 -102,18 -102,18 0,0 -45,-24 -50,-50 -5,-26 78,-106 97,-109 18,-3 63,5 63,5z"/>
  <path class="fil1" d="M699 546c0,0 -25,70 -23,108 0,0 42,-5 52,24 9,30 -34,45 -91,41 -57,-4 -78,-161 -78,-161l140 -12z"/>
  <path class="fil2" d="M464 267c0,0 -130,21 -217,14 -87,-8 -139,10 -183,40 -44,29 -61,149 -52,191 8,42 58,138 58,138 0,0 -10,42 -5,57 5,14 59,25 95,23 36,-2 53,-21 56,-31 2,-9 -12,-42 -50,-47 0,0 6,-27 24,-43 26,-24 39,-42 39,-42 0,0 138,44 235,26 0,0 68,134 84,137 16,3 107,-4 113,-12 7,-7 -1,-61 -51,-59 0,0 -18,-48 -21,-62 0,0 120,9 194,-67 73,-76 22,-190 19,-188 -3,2 -338,-75 -338,-75z"/>
  <path class="fil3" d="M88 581c14,-23 -19,-56 0,-82 18,-27 58,3 87,21 30,17 106,5 140,1 35,-3 105,13 138,32 33,20 50,10 50,-2 0,-12 -59,-90 -52,-96 6,-7 77,4 79,0 2,-5 -18,-39 -27,-56 -12,-22 0,-88 7,-121 -28,-7 -46,-11 -46,-11 0,0 -130,21 -217,14 -87,-8 -139,10 -183,40 -44,29 -61,149 -52,191 4,25 24,68 39,99 14,-7 29,-18 37,-30z"/>
  <path class="fil4" d="M464 593c0,0 -1,0 -2,-1 -1,-1 -2,-3 -3,-4 -1,-2 -3,-4 -5,-6 -1,-2 -2,-5 -4,-7 -1,-3 -3,-5 -4,-8 -1,-2 -2,-5 -3,-7 0,-2 -1,-3 -1,-5 0,-1 0,-2 0,-2 0,0 0,1 1,2 1,1 2,2 3,4 1,2 3,4 4,6 1,2 3,5 4,7 2,3 3,5 4,8 1,2 2,4 3,6 1,2 2,4 2,5 0,1 1,2 1,2z"/>
  <path class="fil5" d="M589 597c0,0 -1,0 -1,-1 -1,-2 -2,-3 -3,-5 -1,-2 -2,-4 -3,-7 -1,-3 -2,-5 -3,-8 -1,-3 -2,-5 -3,-8 -1,-3 -2,-5 -2,-7 -1,-2 -1,-4 -2,-6 0,-1 0,-2 0,-2 0,0 0,1 1,2 1,1 2,3 3,5 1,2 3,4 4,6 1,3 2,6 3,8 1,3 2,6 3,9 1,2 1,5 2,7 0,2 0,4 1,5 0,2 0,2 0,2z"/>
  <path class="fil5" d="M229 567c0,0 1,-1 1,-2 1,-2 2,-4 3,-6 1,-2 2,-4 4,-7 2,-3 3,-5 5,-8 2,-3 4,-5 5,-8 2,-3 4,-5 5,-7 2,-2 3,-3 4,-5 1,-1 1,-1 1,-1 0,0 0,0 0,2 -1,1 -1,3 -2,6 -1,2 -2,5 -4,7 -1,3 -3,6 -5,9 -2,2 -4,5 -6,7 -1,3 -3,5 -5,7 -2,2 -3,3 -4,4 -1,1 -2,2 -2,2z"/>
  <path class="fil4" d="M414 301c0,0 0,1 0,2 0,1 0,3 0,6 -1,5 0,12 1,20 0,9 2,19 5,29 2,10 6,21 10,31 5,11 9,21 14,30 6,10 10,18 15,26 4,7 8,13 10,17 3,5 4,7 4,7 0,0 -1,-2 -5,-6 -2,-4 -7,-10 -12,-17 -4,-7 -10,-15 -15,-25 -6,-9 -11,-19 -15,-30 -5,-11 -8,-22 -10,-32 -3,-11 -4,-21 -4,-29 -1,-9 0,-16 1,-21 0,-3 0,-5 1,-6 0,-1 0,-2 0,-2z"/>
  <path class="fil4" d="M442 315c0,0 0,2 2,5 2,4 4,9 7,15 3,6 7,12 10,19 5,7 9,15 14,22 5,7 10,14 16,20 5,6 10,12 14,17 5,5 9,9 11,12 3,2 5,4 5,4 0,0 -2,-2 -5,-4 -3,-2 -8,-5 -13,-10 -5,-4 -10,-10 -16,-16 -5,-6 -11,-13 -16,-20 -5,-8 -9,-15 -13,-23 -4,-7 -7,-14 -10,-20 -2,-6 -4,-12 -5,-15 -1,-4 -1,-6 -1,-6z"/>
  <path class="fil6" d="M139 691c0,0 1,-1 2,-1 2,0 4,0 6,1 2,1 5,2 7,4 2,3 4,5 6,8 1,3 2,6 2,9 0,3 0,6 0,8 0,3 -1,5 -1,6 0,1 0,2 0,2 0,0 0,-1 -1,-2 0,-1 0,-3 -1,-6 0,-2 -1,-4 -1,-7 -1,-3 -2,-5 -3,-8 -1,-2 -2,-5 -4,-7 -2,-2 -3,-3 -5,-4 -2,-2 -3,-2 -5,-3 -1,0 -2,0 -2,0z"/>
  <path class="fil6" d="M170 686c0,0 1,0 2,0 1,-1 2,0 3,0 1,0 2,0 3,0 2,1 4,2 6,4 3,1 5,4 7,6 1,3 2,5 3,8 1,3 1,6 0,8 0,1 0,2 0,3 0,1 -1,1 -1,2 -1,1 -1,2 -1,2 0,0 0,-1 0,-2 0,-1 0,-2 0,-2 0,-1 0,-2 0,-3 -1,-2 -1,-4 -2,-7 -1,-2 -2,-4 -4,-6 -1,-2 -3,-4 -4,-6 -2,-2 -4,-3 -5,-4 -1,-1 -2,-1 -3,-2 -1,0 -1,0 -2,-1 -1,0 -2,0 -2,0z"/>
  <path class="fil6" d="M234 675c0,0 0,0 1,0 1,0 3,1 4,2 1,1 3,2 4,4 1,1 3,3 4,5 0,2 1,5 1,7 0,2 0,4 0,5 -1,2 -1,3 -2,4 0,1 0,1 0,1 0,0 0,0 -1,-1 0,-1 0,-2 0,-4 0,-1 -1,-3 -1,-5 0,-1 -1,-3 -2,-5 -1,-2 -1,-3 -2,-5 -1,-1 -2,-3 -3,-4 -1,-1 -2,-2 -2,-3 -1,-1 -1,-1 -1,-1z"/>
  <path class="fil6" d="M257 675c0,0 0,0 0,0 0,-1 0,-1 0,-1 1,-1 1,-1 2,-1 2,0 2,1 3,1 1,1 3,2 4,4 1,1 3,3 4,5 1,2 1,5 1,7 1,2 1,4 0,5 0,2 0,3 -1,4 0,1 0,2 0,2 0,0 0,-1 -1,-2 0,-1 0,-2 0,-3 -1,-2 -1,-4 -2,-5 0,-2 -1,-4 -2,-6 0,-1 -1,-3 -2,-5 -1,-1 -2,-3 -3,-4 0,0 -1,-1 -1,-1 0,-1 -1,-1 -1,-1 -1,0 -1,1 -1,1 0,0 0,0 0,0z"/>
  <path class="fil6" d="M602 690c0,0 1,0 2,0 1,0 3,-1 5,0 2,1 5,2 7,4 2,2 4,4 6,7 1,2 2,5 2,8 1,2 1,5 1,7 0,2 0,4 0,5 0,1 0,2 0,2 0,0 -1,0 -1,-2 0,-1 -1,-3 -2,-5 0,-2 -1,-4 -2,-6 0,-3 -1,-5 -3,-7 -1,-2 -2,-4 -4,-6 -2,-2 -3,-3 -5,-4 -2,-1 -3,-2 -4,-2 -1,-1 -2,-1 -2,-1z"/>
  <path class="fil6" d="M646 720c0,0 0,-1 0,-2 0,-1 0,-3 0,-5 0,-2 0,-4 -1,-6 0,-2 -1,-5 -2,-7 -1,-2 -2,-4 -4,-6 -1,-2 -2,-4 -4,-5 -1,-1 -2,-3 -3,-3 -1,-1 -2,-1 -2,-1 0,0 1,0 2,0 1,0 3,1 5,2 2,1 4,2 6,4 2,2 3,5 5,7 1,3 1,6 2,8 0,3 0,6 -1,8 0,2 -1,3 -2,4 0,1 -1,2 -1,2z"/>
  <path class="fil6" d="M670 680c0,0 0,0 2,0 1,1 3,1 4,2 2,1 4,3 6,5 2,2 4,4 5,7 1,3 2,5 2,8 0,3 0,5 -1,7 0,2 -1,4 -2,5 0,1 -1,2 -1,2 0,0 0,-1 0,-2 1,-1 1,-3 0,-5 1,-2 0,-4 0,-6 -1,-3 -2,-5 -3,-7 -1,-3 -2,-5 -3,-7 -2,-1 -3,-3 -4,-5 -2,-1 -3,-2 -4,-3 -1,-1 -1,-1 -1,-1z"/>
  <path class="fil6" d="M696 679c0,0 0,-1 2,-1 0,0 1,0 2,0 1,1 2,2 3,2 1,2 2,4 3,7 1,2 2,5 2,8 0,3 0,5 0,8 -1,3 -2,5 -3,7 -1,2 -2,3 -3,4 -1,1 -1,1 -1,1 0,0 0,0 0,-2 1,-1 1,-2 2,-4 0,-2 0,-4 1,-7 0,-2 0,-4 -1,-7 0,-2 0,-5 -1,-7 0,-2 -1,-4 -2,-6 0,-1 0,-2 -1,-2 0,-1 -1,-1 -1,-1 -1,-1 -2,0 -2,0z"/>
  <path class="fil7" d="M813 369c0,0 2,4 4,11 2,8 5,19 6,32 1,14 1,29 -2,46 -3,17 -9,34 -18,50 -9,15 -21,29 -34,40 -13,11 -27,18 -39,24 -13,6 -23,9 -31,11 -8,2 -12,2 -12,2 0,0 4,-1 12,-3 7,-3 18,-7 29,-12 12,-6 25,-15 38,-25 13,-11 24,-24 33,-40 8,-15 14,-32 18,-48 3,-16 4,-31 3,-45 -1,-13 -2,-24 -4,-32 -1,-7 -3,-11 -3,-11z"/>
  <path class="fil7" d="M51 611c0,0 2,4 5,10 4,6 9,15 15,26 0,1 0,2 1,3 0,1 -1,1 -1,2 0,1 0,2 0,2 -1,2 -1,3 -2,5 0,3 -1,6 -2,9 -1,6 -3,13 -3,20 0,4 -1,8 0,11 0,2 1,4 2,5 0,1 2,2 4,3 6,5 13,9 21,12 7,3 15,5 22,7 8,1 16,3 23,4 15,1 29,0 41,-3 12,-4 21,-8 26,-13 2,-1 3,-2 4,-3 1,-1 2,-1 3,-2 1,-2 2,-2 2,-2 0,0 -1,1 -2,2 -1,1 -1,2 -2,3 -1,1 -3,2 -4,3 -5,5 -14,10 -26,14 -12,4 -26,7 -42,5 -8,-1 -16,-2 -24,-4 -7,-2 -15,-4 -23,-7 -8,-3 -16,-7 -22,-12 -2,-1 -3,-2 -5,-5 -1,-2 -2,-4 -2,-6 -1,-4 -1,-8 0,-12 0,-7 2,-14 4,-21 0,-3 1,-6 2,-9 1,-2 1,-3 2,-4 0,-1 0,-2 0,-3l1 -1c0,-1 -1,-1 -1,-2 -5,-11 -9,-20 -12,-27 -3,-6 -5,-10 -5,-10z"/>
  <path class="fil7" d="M282 581c0,0 7,1 19,3 13,3 30,6 52,8 21,3 46,5 73,4l9 -1c4,0 7,-1 10,-1 3,0 6,-1 9,-1l11 -3 6 13 5 10 11 21c13,25 27,51 42,73 4,5 8,10 12,15 2,2 4,5 7,6 1,1 3,1 4,1 1,1 3,1 4,1 12,2 24,1 35,0 21,-2 39,-5 51,-8 12,-2 19,-4 19,-4 0,0 -7,2 -19,5 -12,3 -30,7 -51,10 -11,1 -23,3 -35,1 -2,0 -4,0 -5,-1 -2,-1 -3,-1 -5,-2 -3,-1 -6,-4 -8,-6 -5,-5 -9,-10 -13,-16 -15,-22 -29,-48 -43,-73l-10 -21 -10 -19 -7 1c-3,1 -7,1 -10,1 -3,1 -6,1 -9,1l-10 1c-27,1 -52,-2 -74,-5 -21,-3 -39,-7 -51,-10 -12,-2 -19,-4 -19,-4z"/>
  <path class="fil4" d="M593 471c0,0 2,0 6,0 2,0 5,1 7,1 3,0 6,0 9,0 7,0 15,-1 23,-2 8,0 17,-2 25,-4 9,-2 17,-5 25,-8 8,-3 15,-6 21,-10 2,-1 5,-3 7,-4 3,-1 5,-3 6,-4 4,-2 6,-3 6,-3 0,0 -2,2 -5,4 -1,1 -3,3 -6,5 -2,1 -4,3 -7,5 -6,4 -13,7 -20,11 -8,3 -17,6 -25,9 -9,2 -18,3 -27,4 -8,0 -16,0 -23,0 -3,-1 -6,-1 -9,-2 -3,0 -5,0 -7,-1 -4,-1 -6,-1 -6,-1z"/>
  <path class="fil4" d="M227 568c0,0 0,-2 2,-4 1,-3 3,-6 6,-10 3,-4 6,-9 9,-14 3,-5 6,-10 8,-16 2,-6 2,-12 2,-18 0,-6 -1,-12 -2,-16 -1,-5 -2,-9 -2,-12 -1,-3 -1,-4 -1,-4 0,0 1,1 2,4 1,2 2,6 4,11 1,5 3,10 3,16 1,7 1,13 -1,20 -2,7 -6,12 -9,18 -4,5 -8,9 -11,13 -3,3 -5,6 -7,8 -2,2 -3,4 -3,4z"/>
  <path class="fil4" d="M589 598c0,0 0,0 -1,-1 -1,-1 -2,-3 -3,-5 -1,-2 -2,-4 -3,-7 -2,-2 -3,-5 -4,-8 -1,-3 -2,-6 -2,-8 -1,-3 -2,-6 -2,-8 -1,-2 -1,-4 -1,-5 0,-1 0,-2 0,-2 0,0 0,0 1,2 1,1 2,2 3,4 0,3 2,5 3,7 1,3 2,6 3,8 1,3 2,6 3,9 0,2 1,5 2,7 0,2 1,4 1,5 0,2 0,2 0,2z"/>
  <path class="fil3" d="M694 98c0,0 82,-101 144,-98 0,0 44,48 0,200l-144 -102z"/>
  <path class="fil3" d="M572 112c0,0 -69,-89 -146,-93 0,0 -38,97 34,195l112 -102z"/>
  <path class="fil3" d="M640 84c-64,5 -116,26 -160,75 -43,48 -66,108 -61,128 6,20 51,30 51,30 0,0 -17,7 -5,24 11,17 89,71 175,90 87,19 229,-101 235,-116 5,-14 -19,-16 -19,-16 0,0 39,-13 38,-22 -1,-10 -41,-109 -110,-151 -68,-42 -103,-45 -144,-42z"/>
  <path class="fil2" d="M813 274c-6,0 -67,-33 -73,-32 -5,2 -32,22 -43,16 -12,-5 -47,-58 -47,-58 20,-41 7,-97 2,-116 -4,0 -8,0 -12,0 -1,0 -2,0 -3,1 -4,8 -25,58 -8,115 0,0 -32,53 -37,58 -6,6 -24,-7 -33,-5 -8,3 -47,33 -52,36 -5,1 -61,-19 -88,-3 0,1 0,1 0,1 6,20 51,30 51,30 0,0 -17,7 -5,24 11,17 89,71 175,90 87,19 229,-101 235,-116 5,-14 -19,-16 -19,-16 0,0 39,-13 38,-22 -1,-2 -2,-8 -5,-15 -27,-7 -71,13 -76,12z"/>
  <path class="fil2" d="M728 105c0,0 44,-68 98,-73 0,0 26,58 0,141 0,0 -56,-53 -98,-68z"/>
  <path class="fil2" d="M538 123c0,0 -55,-69 -95,-69 0,0 -26,54 26,131 0,0 26,-41 69,-62z"/>
  <path class="fil8" d="M579 305c0,0 24,71 66,74 42,3 63,-74 63,-74 0,0 -13,28 -31,30 -18,3 -28,-3 -28,-3 0,0 -23,8 -37,6 -13,-2 -33,-33 -33,-33z"/>
  <path class="fil9" d="M615 338c0,0 -11,31 -5,47 7,16 22,28 46,28 25,-1 34,-31 34,-41 0,-20 -11,-37 -11,-37 0,0 -17,2 -30,-3 -15,7 -34,6 -34,6z"/>
  <path class="fil10 str0" d="M650 385c0,0 -10,-28 -1,-53"/>
  <path class="fil11" d="M622 283c7,-11 39,-11 52,0 12,11 -16,28 -27,26 -14,-4 -31,-17 -25,-26z"/>
  <path class="fil11" d="M601 215c0,8 -7,15 -15,15 -8,0 -14,-7 -14,-15 0,-8 6,-15 14,-15 8,0 15,7 15,15z"/>
  <path class="fil11" d="M729 215c0,8 -7,15 -15,15 -7,0 -14,-7 -14,-15 0,-8 7,-15 14,-15 8,0 15,7 15,15z"/>
  <path class="fil12" d="M538 276c0,0 1,0 3,0 3,-1 6,-1 9,-2 3,-1 4,-1 10,-4 1,1 2,3 3,5 1,1 2,3 3,4 2,4 4,7 7,11 7,11 16,24 27,35 3,3 6,5 10,7 0,0 1,1 2,1 1,0 1,0 2,1 2,0 4,0 6,0 8,1 17,-1 23,-4 1,-1 1,-1 2,-1 1,-1 2,-2 3,-2 5,1 6,1 8,1 2,1 4,1 6,2 3,0 7,1 11,1 4,0 8,0 10,-1 1,0 1,-1 2,-1 0,0 1,-1 2,-1 1,-2 2,-3 3,-4 10,-13 19,-26 26,-37 2,-4 4,-7 6,-10 1,-1 2,-3 3,-4 1,-1 1,-3 2,-4 2,2 4,3 5,4 1,0 2,1 3,1 2,1 4,2 5,2 4,1 7,2 9,2 2,0 3,0 3,0 0,0 -1,0 -3,0 -2,1 -5,1 -9,0 -2,0 -4,-1 -6,-1 -1,-1 -2,-1 -3,-2 -1,0 -2,0 -3,-1 0,0 0,1 -1,2 0,1 0,1 0,2 -1,0 -1,1 -1,2 -2,3 -3,6 -5,9 -7,12 -14,26 -24,40 -1,2 -3,3 -4,5 -1,1 -2,1 -3,2 -1,1 -2,2 -4,2 -5,2 -9,2 -13,2 -5,0 -9,-1 -13,-1 -2,0 -4,-1 -6,-1 -2,0 -5,-1 -4,-1 0,0 0,0 0,0 -1,1 -1,1 -2,1 -9,5 -19,6 -28,6 -3,-1 -5,-1 -7,-2 -1,0 -3,0 -4,-1 -1,0 -3,-1 -4,-1 -4,-3 -7,-6 -11,-9 -12,-12 -19,-26 -26,-38 -2,-4 -4,-8 -6,-12 -1,-1 -2,-3 -2,-5 -1,-1 -1,-2 -1,-3 -3,1 -6,2 -8,2 -4,1 -7,1 -9,1 -3,0 -4,0 -4,0z"/>
  <path class="fil7" d="M498 372c0,0 7,4 19,10 13,7 31,16 53,25 23,9 49,20 79,23 15,2 30,0 45,-4 16,-4 31,-10 45,-16 30,-13 58,-30 81,-48 12,-10 24,-19 34,-28 5,-4 10,-9 15,-14 2,-2 3,-5 4,-7 2,-3 1,-6 0,-8 -1,-1 -3,-2 -5,-2 0,-1 -1,-1 -2,-1 -1,0 -2,-1 -3,-1 -5,-1 -9,-1 -12,-2 3,-1 6,-2 9,-3 2,-1 5,-2 7,-3 3,-1 6,-2 9,-4 6,-3 11,-5 14,-9 1,0 2,-1 2,-1 1,-1 1,-2 1,-2 1,-2 1,-3 1,-5 1,-2 0,-5 -1,-6 -1,-2 -2,-3 -3,-3 -1,-1 -1,-1 -1,-1 0,0 0,0 1,1 1,0 2,1 3,3 1,1 2,4 2,6 0,2 -1,3 -1,5 0,1 -1,1 -1,2 -1,1 -1,1 -2,2 -3,3 -8,6 -14,10 -3,1 -6,3 -9,4 -3,1 -5,2 -8,3 1,0 3,0 5,1 0,0 1,0 2,0 1,1 1,1 2,1 2,1 4,2 6,4 1,1 2,3 2,4 0,2 0,4 -1,6 -1,3 -3,6 -5,8 -4,5 -9,10 -14,15 -11,9 -22,18 -34,28 -24,19 -52,36 -82,49 -14,7 -30,13 -45,16 -16,4 -32,6 -47,5 -31,-4 -58,-16 -80,-25 -22,-10 -40,-20 -52,-27 -12,-7 -19,-11 -19,-11z"/>
 </g>
</svg>
