<?xml version="1.0" encoding="UTF-8"?>
<!DOCTYPE svg PUBLIC "-//W3C//DTD SVG 1.1//EN" "http://www.w3.org/Graphics/SVG/1.1/DTD/svg11.dtd">
<!-- Creator: CorelDRAW X7 -->
<svg xmlns="http://www.w3.org/2000/svg" xml:space="preserve" width="2.19036in" height="2.89301in" version="1.1" style="shape-rendering:geometricPrecision; text-rendering:geometricPrecision; image-rendering:optimizeQuality; fill-rule:evenodd; clip-rule:evenodd"
viewBox="0 0 958 1266"
 xmlns:xlink="http://www.w3.org/1999/xlink">
 <defs>
  <style type="text/css">
   <![CDATA[
    .fil7 {fill:#1C1C1A;fill-rule:nonzero}
    .fil6 {fill:#1C1C1C;fill-rule:nonzero}
    .fil4 {fill:#41434A;fill-rule:nonzero}
    .fil2 {fill:#919191;fill-rule:nonzero}
    .fil10 {fill:#929292;fill-rule:nonzero}
    .fil5 {fill:#AFAFAF;fill-rule:nonzero}
    .fil9 {fill:#B2AFAF;fill-rule:nonzero}
    .fil0 {fill:#B2B2B2;fill-rule:nonzero}
    .fil8 {fill:#BBBABA;fill-rule:nonzero}
    .fil1 {fill:#D1D1D1;fill-rule:nonzero}
    .fil3 {fill:#E2E2E2;fill-rule:nonzero}
   ]]>
  </style>
 </defs>
 <g id="Objects">
  <metadata id="CorelCorpID_0Corel-Layer"/>
  <path class="fil0" d="M176 475c0,0 -73,-11 -128,32 -56,42 -41,153 0,173 40,20 128,-205 128,-205z"/>
  <path class="fil1" d="M220 431c0,0 -107,49 -155,155 -48,106 -29,264 -16,308 14,43 16,153 13,167 0,0 -43,-19 -59,39 -15,57 28,58 50,61 22,4 132,-7 150,-15 17,-8 63,-42 63,-42 0,0 -65,-358 -52,-397 12,-39 39,-224 35,-237 -4,-14 -29,-39 -29,-39z"/>
  <path class="fil2" d="M29 1150c0,0 -1,-1 -2,-3 -1,-1 -3,-3 -4,-6 -1,-3 -3,-7 -3,-11 0,-4 0,-8 1,-12 1,-4 3,-8 5,-12 1,-3 4,-6 7,-8 2,-2 5,-3 6,-4 2,-1 3,-1 3,-1 0,0 0,1 -1,3 0,1 -1,4 -2,7 -1,2 -1,5 -2,8 -1,3 -2,7 -3,10 -1,3 -1,7 -2,10 0,3 -1,6 -1,9 -1,2 -2,5 -2,7 0,2 0,3 0,3z"/>
  <path class="fil2" d="M85 1153c0,0 -1,0 -2,-2 -1,-1 -2,-3 -3,-5 -1,-2 -2,-5 -3,-9 0,-3 0,-6 0,-10 1,-3 2,-6 4,-9 1,-3 3,-6 6,-8 2,-2 5,-2 7,-2 2,1 3,2 3,1 0,0 -1,1 -2,2 -1,1 -2,2 -2,4 -1,2 0,4 -1,6 0,3 -1,6 -1,9 0,2 -1,5 -1,8 -1,2 -2,5 -2,7 -1,2 -2,4 -2,6 -1,1 -1,2 -1,2z"/>
  <path class="fil3" d="M351 178c0,0 138,-35 211,0 0,0 67,-158 150,-176 84,-18 83,94 86,147 4,52 65,143 -52,230 0,0 2,96 71,170 70,75 108,193 92,330 -17,138 -49,261 -49,261 0,0 72,-21 90,33 18,54 4,63 -30,80 -35,16 -174,23 -200,-18 -25,-42 -22,-171 -36,-254 0,0 -93,58 -152,27 0,0 -96,43 -154,2 0,0 9,168 -27,206 -37,39 -171,37 -196,20 -26,-16 -51,-110 59,-132 0,0 -43,-203 -32,-234 0,0 -42,-127 16,-261 0,0 -31,-69 16,-148 0,0 -25,-77 -12,-109 0,0 -42,-24 -53,-114 -11,-91 -69,-124 -16,-171 52,-47 149,-14 218,111z"/>
  <path class="fil4" d="M317 393c34,-39 67,-87 34,-215 -32,-58 -69,-96 -106,-115 -1,20 -4,54 -27,79 -25,26 -55,49 -72,79 2,5 2,11 3,17 11,90 53,114 53,114 -13,32 12,109 12,109 -1,1 -1,3 -2,5 0,-1 71,-35 105,-73z"/>
  <path class="fil4" d="M448 310c-19,58 43,118 109,148 66,30 113,136 160,105 33,-21 50,-38 66,-61 -36,-62 -37,-123 -37,-123 94,-70 73,-142 59,-195 -21,-19 -47,-42 -65,-74 -24,-42 -62,-63 -86,-73 -54,51 -92,141 -92,141 0,0 -1,0 -1,-1 -17,22 -95,79 -113,133z"/>
  <path class="fil5" d="M361 678c0,0 1,1 3,3 2,1 6,2 10,3 4,1 9,2 14,3 5,1 10,2 16,2 5,1 10,1 16,1 5,0 10,0 14,0 4,-1 8,0 11,-1 2,0 4,0 4,0 0,0 -1,1 -3,3 -3,1 -6,4 -10,6 -4,1 -10,3 -15,4 -6,1 -12,1 -19,1 -6,-1 -12,-2 -18,-4 -5,-2 -10,-5 -14,-8 -4,-2 -6,-6 -8,-9 -1,-2 -1,-4 -1,-4z"/>
  <path class="fil5" d="M312 744c0,0 3,2 10,5 5,3 14,7 25,11 10,5 23,9 37,13 14,4 29,7 44,9 15,2 30,4 44,4 14,0 27,-1 38,-5 10,-3 19,-6 25,-10 6,-3 9,-5 9,-5 0,0 -2,3 -7,8 -6,4 -14,10 -25,15 -11,5 -25,9 -40,9 -15,1 -31,0 -47,-2 -15,-3 -31,-7 -45,-12 -14,-4 -26,-11 -37,-17 -10,-6 -18,-12 -23,-16 -5,-5 -8,-7 -8,-7z"/>
  <path class="fil5" d="M617 679c0,0 1,0 2,0 1,0 3,1 6,1 5,1 13,2 22,2 9,0 19,-2 30,-5 10,-2 21,-7 31,-13 10,-5 20,-12 28,-20 8,-8 15,-15 21,-22 5,-8 10,-14 13,-18 3,-5 5,-7 5,-7 0,0 -1,3 -3,8 -1,5 -4,13 -9,21 -4,8 -10,18 -18,27 -9,8 -19,17 -30,23 -11,7 -24,11 -36,13 -12,3 -23,2 -33,1 -9,-2 -17,-5 -22,-7 -2,-1 -4,-2 -5,-3 -2,-1 -2,-1 -2,-1z"/>
  <path class="fil5" d="M532 1009c0,0 -1,0 -3,0 -1,-1 -3,0 -5,0 -2,-1 -5,0 -8,-1 -2,0 -5,-1 -8,-2 -3,-2 -6,-3 -8,-5 -3,-1 -4,-4 -6,-6 -2,-1 -2,-3 -3,-5 -1,-1 -1,-2 -1,-2 0,0 1,0 2,0 2,0 4,0 6,1 2,0 5,0 7,1 3,1 6,2 8,3 3,1 5,3 7,4 3,1 5,3 7,4 2,2 3,4 4,5 1,2 1,3 1,3z"/>
  <path class="fil5" d="M685 988c0,0 -1,-1 -2,-3 -1,-2 -2,-4 -4,-8 -1,-3 -3,-7 -3,-11 -1,-4 -3,-8 -4,-12 0,-5 -1,-9 -2,-13 -1,-4 0,-8 -1,-12 0,-3 0,-6 0,-8 0,-2 1,-4 1,-4 0,0 0,1 2,3 1,2 3,4 5,7 1,3 4,7 5,11 1,4 3,8 4,13 1,4 1,9 2,13 0,5 -1,9 -1,12 0,4 -1,7 -1,9 -1,2 -1,3 -1,3z"/>
  <path class="fil5" d="M378 1018c0,0 -1,-1 -2,-3 0,-1 -2,-3 -3,-6 0,-3 -2,-6 -3,-9 0,-4 -1,-7 -2,-11 0,-3 -1,-7 -1,-10 -1,-4 0,-7 0,-10 0,-3 0,-5 1,-7 0,-2 0,-3 0,-3 0,0 1,1 2,2 1,2 3,4 4,6 2,3 4,6 5,9 1,4 2,7 3,11 0,4 0,8 0,11 1,4 0,7 -1,10 0,3 -1,6 -2,7 -1,2 -1,3 -1,3z"/>
  <path class="fil5" d="M251 1247c0,0 -1,0 -3,-2 -2,-1 -5,-3 -7,-7 -2,-3 -4,-8 -5,-13 0,-5 0,-10 0,-16 2,-5 5,-10 8,-15 3,-4 7,-7 10,-9 3,-2 7,-3 9,-4 2,0 3,0 3,0 0,0 0,1 -2,3 -1,1 -2,4 -5,7 -2,3 -3,6 -5,10 -2,3 -3,7 -4,11 -1,4 -2,8 -2,12 0,4 0,8 1,11 0,4 0,7 1,9 0,2 1,3 1,3z"/>
  <path class="fil5" d="M174 1244c0,0 -1,-1 -2,-3 -1,-1 -3,-3 -5,-7 -1,-3 -2,-7 -2,-11 -1,-5 0,-10 1,-14 2,-5 4,-9 6,-13 3,-3 6,-6 9,-8 3,-2 6,-3 7,-4 2,0 4,0 4,0 0,0 -1,1 -2,2 -1,2 -2,5 -3,7 -2,3 -3,6 -4,9 -2,4 -3,7 -4,11 -1,3 -2,7 -2,10 -1,4 -2,7 -2,10 0,3 -1,6 0,8 -1,2 -1,3 -1,3z"/>
  <path class="fil5" d="M937 1243c0,0 0,-1 -1,-3 0,-2 -1,-5 -1,-9 0,-4 -1,-8 -1,-12 -1,-4 -2,-8 -3,-11 -1,-4 -3,-8 -5,-11 -3,-3 -5,-6 -7,-9 -3,-2 -4,-5 -6,-6 -1,-2 -2,-3 -2,-3 0,0 1,0 4,0 2,1 5,1 9,3 3,2 7,4 11,7 4,4 7,9 9,14 2,6 2,11 2,16 0,5 -2,9 -3,13 -1,4 -3,6 -4,8 -1,2 -2,3 -2,3z"/>
  <path class="fil5" d="M869 1263c0,0 0,-1 0,-3 -1,-2 -2,-5 -2,-8 -1,-3 -2,-6 -3,-9 -1,-3 -2,-6 -4,-9 -2,-3 -4,-6 -7,-9 -2,-2 -4,-6 -6,-8 -2,-3 -4,-5 -5,-7 -1,-2 -1,-3 -1,-3 0,0 1,0 3,1 2,0 5,1 8,3 3,1 6,3 10,5 3,3 6,6 10,10 2,5 4,10 4,15 1,5 0,9 -1,12 -1,3 -3,6 -4,8 -1,1 -2,2 -2,2z"/>
  <path class="fil6" d="M580 179c0,0 4,1 9,4 5,2 13,6 22,12 8,6 18,13 27,22 9,9 17,20 26,31 8,11 15,22 21,33 7,11 12,22 16,31 5,9 8,17 11,22 2,5 3,8 3,8 0,0 -2,-2 -6,-7 -3,-4 -9,-11 -15,-19 -5,-9 -12,-18 -19,-28 -7,-11 -15,-22 -23,-32 -7,-11 -15,-21 -23,-30 -9,-10 -16,-18 -23,-25 -8,-7 -14,-12 -18,-16 -5,-4 -8,-6 -8,-6z"/>
  <path class="fil6" d="M335 187c0,0 -2,2 -6,6 -4,4 -9,10 -15,16 -7,6 -14,14 -22,22 -8,7 -16,16 -24,25 -8,8 -16,17 -23,25 -7,9 -13,17 -18,24 -3,4 -5,7 -7,10 -2,3 -4,6 -5,8 -3,5 -5,7 -5,7 0,0 1,-3 2,-8 1,-2 2,-5 3,-9 1,-4 3,-8 5,-12 4,-8 9,-18 15,-27 7,-9 15,-19 23,-28 8,-9 17,-17 26,-24 9,-8 17,-14 25,-19 7,-5 14,-9 18,-12 5,-2 8,-4 8,-4z"/>
  <path class="fil7" d="M326 436c-2,-18 38,-30 57,-27 19,3 38,24 33,38 -6,14 -25,30 -45,33 -20,2 -43,-27 -45,-44z"/>
  <path class="fil8" d="M254 451c0,0 8,-7 23,-18 15,-11 38,-25 66,-36 14,-5 30,-8 46,-9 17,-1 34,2 50,7 33,11 62,31 83,52 0,0 -6,-5 -17,-13 -11,-7 -28,-18 -51,-28 -12,-4 -25,-9 -40,-11 -16,-2 -32,-1 -50,2 -35,8 -73,26 -110,54z"/>
  <path class="fil9" d="M345 589c0,0 11,30 63,5l-37 -46c0,0 -10,10 -26,41z"/>
  <path class="fil10" d="M200 609c0,0 0,2 2,5 1,3 3,8 6,14 4,6 8,13 14,21 7,7 15,14 26,18 1,1 2,1 4,2 1,0 2,0 4,1 3,0 6,1 9,1 6,0 12,-1 17,-4 12,-7 21,-19 30,-32 8,-13 16,-29 23,-45 4,-8 8,-16 13,-25 2,-4 4,-8 7,-12l2 -3c0,-1 1,-2 2,-2l4 -5 5 -4 5 -4c4,5 8,10 12,16 2,2 4,5 6,8 4,5 8,10 12,15 9,11 18,21 27,31 19,19 40,38 62,52 12,7 23,13 36,15 12,2 25,1 38,-3 25,-7 47,-21 66,-37 0,0 -4,6 -15,16 -5,5 -12,11 -21,17 -9,6 -20,12 -34,16 -14,5 -31,6 -49,2 -4,-1 -9,-3 -14,-5 -4,-2 -8,-4 -12,-6 -5,-2 -9,-5 -13,-8 -4,-2 -9,-5 -13,-8 -17,-13 -33,-28 -49,-45 -8,-8 -16,-17 -24,-27 -4,-5 -8,-10 -12,-15 -2,-2 -4,-5 -6,-7l0 0c0,0 0,0 0,0l0 0c0,0 0,0 0,0l-1 1c-2,4 -5,8 -7,12 -5,9 -10,18 -15,28 -10,19 -21,39 -38,57 -8,8 -18,17 -32,20 -3,0 -6,0 -10,0 -3,0 -6,0 -9,-1 -3,-1 -6,-2 -9,-3 -3,-1 -6,-2 -9,-4 -11,-7 -20,-17 -26,-28 -7,-11 -11,-23 -14,-35z"/>
  <path class="fil7" d="M589 397c0,15 -12,27 -27,27 -15,0 -28,-12 -28,-27 0,-15 13,-27 28,-27 15,0 27,12 27,27z"/>
  <path class="fil7" d="M287 397c0,15 -11,27 -24,27 -13,0 -24,-12 -24,-27 0,-15 11,-27 24,-27 13,0 24,12 24,27z"/>
 </g>
</svg>
