<?xml version="1.0" encoding="UTF-8"?>
<!DOCTYPE svg PUBLIC "-//W3C//DTD SVG 1.1//EN" "http://www.w3.org/Graphics/SVG/1.1/DTD/svg11.dtd">
<!-- Creator: CorelDRAW X7 -->
<svg xmlns="http://www.w3.org/2000/svg" xml:space="preserve" width="1.89656in" height="1.30168in" version="1.1" style="shape-rendering:geometricPrecision; text-rendering:geometricPrecision; image-rendering:optimizeQuality; fill-rule:evenodd; clip-rule:evenodd"
viewBox="0 0 684 470"
 xmlns:xlink="http://www.w3.org/1999/xlink">
 <defs>
  <style type="text/css">
   <![CDATA[
    .fil3 {fill:#803B21;fill-rule:nonzero}
    .fil1 {fill:#9E281C;fill-rule:nonzero}
    .fil0 {fill:#A1620F;fill-rule:nonzero}
    .fil2 {fill:#FF7542;fill-rule:nonzero}
   ]]>
  </style>
 </defs>
 <g id="Objects">
  <metadata id="CorelCorpID_0Corel-Layer"/>
  <path class="fil0" d="M148 423c0,26 -21,47 -47,47 -26,0 -47,-21 -47,-47 0,-26 21,-47 47,-47 26,0 47,21 47,47z"/>
  <path class="fil1" d="M309 354c11,-6 18,-18 18,-32 0,-21 -17,-39 -39,-39 -17,0 -31,11 -36,26 -5,-1 -10,-1 -15,-1 -6,0 -12,1 -17,2 -5,-15 -20,-27 -37,-27 -21,0 -39,18 -39,39 0,14 7,26 18,32 -11,7 -18,19 -18,33 0,21 18,39 39,39 17,0 32,-11 37,-27 5,2 11,3 17,3 5,0 10,-1 15,-2 5,15 19,26 36,26 22,0 39,-18 39,-39 0,-14 -7,-26 -18,-33z"/>
  <path class="fil1" d="M543 159c13,-1 24,-9 30,-22 9,-19 0,-42 -19,-51 -16,-7 -34,-3 -45,9 -3,-3 -7,-6 -12,-8 -5,-2 -11,-4 -17,-5 2,-16 -6,-33 -22,-40 -20,-9 -42,0 -51,19 -6,13 -5,27 2,37 -12,2 -24,10 -29,23 -9,19 -1,42 19,51 15,7 33,3 44,-9 4,4 9,7 15,10 5,2 9,3 14,4 -1,16 7,32 22,39 20,9 43,0 52,-19 5,-13 4,-27 -3,-38z"/>
  <path class="fil2" d="M465 220c-16,-6 -34,0 -44,12 -4,-2 -8,-4 -12,-6 -6,-2 -12,-3 -18,-4 1,-16 -9,-32 -25,-38 -20,-7 -42,3 -50,23 -4,13 -2,27 6,37 -13,3 -23,12 -28,25 -7,20 3,42 23,49 16,6 34,1 44,-12 4,3 10,6 15,8 5,2 10,3 15,4 0,16 9,31 25,36 20,8 42,-3 50,-23 4,-13 2,-27 -6,-37 12,-2 23,-11 28,-24 7,-20 -3,-42 -23,-50z"/>
  <path class="fil2" d="M186 245c-14,-10 -32,-10 -45,-1 -3,-4 -7,-7 -11,-11 -4,-3 -10,-6 -15,-8 6,-16 1,-34 -12,-44 -17,-13 -42,-10 -55,6 -8,11 -10,25 -6,37 -12,-1 -25,4 -34,15 -13,17 -10,41 7,54 13,11 32,11 45,2 3,5 8,9 12,13 4,3 9,5 13,7 -5,15 0,33 13,43 17,13 41,10 54,-7 9,-11 10,-25 6,-37 13,2 26,-3 34,-14 13,-17 10,-41 -6,-55z"/>
  <path class="fil3" d="M294 185c1,-17 -9,-32 -24,-38 1,-4 2,-9 2,-14 0,-6 0,-12 -2,-18 16,-4 28,-18 29,-35 1,-22 -15,-40 -36,-41 -14,0 -27,6 -34,17 -6,-12 -18,-19 -32,-20 -21,-1 -39,16 -40,37 -1,17 9,32 25,38 -2,5 -4,11 -4,17 0,5 0,10 1,15 -15,5 -26,18 -27,35 -1,21 15,40 37,41 13,0 26,-6 33,-17 6,11 18,19 32,20 21,1 39,-16 40,-37z"/>
  <path class="fil3" d="M469 266c-14,9 -21,26 -17,42 -5,1 -9,3 -13,6 -6,3 -10,6 -14,11 -12,-11 -31,-13 -46,-4 -18,11 -24,34 -13,53 7,11 19,18 32,18 -5,12 -5,26 2,37 11,19 34,25 53,14 14,-9 21,-26 18,-42 5,-1 11,-4 16,-7 4,-2 8,-5 12,-9 12,10 30,12 44,3 18,-11 24,-34 13,-53 -7,-11 -19,-18 -32,-18 6,-12 6,-26 -1,-38 -11,-18 -35,-24 -54,-13z"/>
  <path class="fil0" d="M609 47c0,26 -21,47 -47,47 -26,0 -47,-21 -47,-47 0,-26 21,-47 47,-47 26,0 47,21 47,47z"/>
  <path class="fil0" d="M684 303c0,25 -21,46 -46,46 -26,0 -47,-21 -47,-46 0,-26 21,-47 47,-47 25,0 46,21 46,47z"/>
  <path class="fil0" d="M424 72c0,26 -21,47 -47,47 -26,0 -47,-21 -47,-47 0,-26 21,-47 47,-47 26,0 47,21 47,47z"/>
  <path class="fil0" d="M123 172c0,26 -21,47 -47,47 -26,0 -47,-21 -47,-47 0,-26 21,-47 47,-47 26,0 47,21 47,47z"/>
 </g>
</svg>
