<?xml version="1.0" encoding="UTF-8"?>
<!DOCTYPE svg PUBLIC "-//W3C//DTD SVG 1.1//EN" "http://www.w3.org/Graphics/SVG/1.1/DTD/svg11.dtd">
<!-- Creator: CorelDRAW X7 -->
<svg xmlns="http://www.w3.org/2000/svg" xml:space="preserve" width="1.7583in" height="1.35096in" version="1.1" style="shape-rendering:geometricPrecision; text-rendering:geometricPrecision; image-rendering:optimizeQuality; fill-rule:evenodd; clip-rule:evenodd"
viewBox="0 0 685 526"
 xmlns:xlink="http://www.w3.org/1999/xlink">
 <defs>
  <style type="text/css">
   <![CDATA[
    .fil0 {fill:#3B210F;fill-rule:nonzero}
   ]]>
  </style>
 </defs>
 <g id="_2">
  <metadata id="CorelCorpID_0Corel-Layer"/>
  <path class="fil0" d="M685 519l-50 -131 -63 -37 -20 -75c14,-11 34,-25 43,-24 -1,-16 0,-7 0,-22 -15,-17 -52,13 -70,27l-294 -117c-28,-62 -61,-140 -61,-140l-27 47c0,0 -74,21 -75,27 -1,6 -7,23 -7,23 0,0 -67,29 -61,35 7,7 31,40 46,43 15,2 70,-27 72,-21 2,4 22,47 28,59 26,79 105,312 108,312 4,0 39,1 39,1l-23 -203c0,0 183,20 184,23 2,3 31,69 31,69l103 9c0,0 59,95 57,95 -2,0 40,0 40,0z"/>
 </g>
</svg>
