<?xml version="1.0" encoding="UTF-8"?>
<!DOCTYPE svg PUBLIC "-//W3C//DTD SVG 1.1//EN" "http://www.w3.org/Graphics/SVG/1.1/DTD/svg11.dtd">
<!-- Creator: CorelDRAW X7 -->
<svg xmlns="http://www.w3.org/2000/svg" xml:space="preserve" width="2.96706in" height="2.40677in" version="1.1" style="shape-rendering:geometricPrecision; text-rendering:geometricPrecision; image-rendering:optimizeQuality; fill-rule:evenodd; clip-rule:evenodd"
viewBox="0 0 908 737"
 xmlns:xlink="http://www.w3.org/1999/xlink">
 <defs>
  <style type="text/css">
   <![CDATA[
    .fil8 {fill:#151005;fill-rule:nonzero}
    .fil7 {fill:#1C1D1B;fill-rule:nonzero}
    .fil4 {fill:#3F3325;fill-rule:nonzero}
    .fil6 {fill:#983F2D;fill-rule:nonzero}
    .fil2 {fill:#BFA35F;fill-rule:nonzero}
    .fil1 {fill:#D2B87A;fill-rule:nonzero}
    .fil0 {fill:#EDC48D;fill-rule:nonzero}
    .fil5 {fill:#EF8E95;fill-rule:nonzero}
    .fil3 {fill:#FBDBA9;fill-rule:nonzero}
   ]]>
  </style>
 </defs>
 <g id="Objects">
  <metadata id="CorelCorpID_0Corel-Layer"/>
  <path class="fil0" d="M732 472c0,0 2,-1 6,-2 17,-4 66,-12 97,19 38,37 6,114 -40,124 -47,9 -63,-63 -63,-63 0,0 -73,-13 -79,-19 -6,-6 79,-59 79,-59z"/>
  <path class="fil1" d="M738 571c0,0 -4,-8 -6,-20 -1,-6 -2,-12 -2,-19 0,-7 2,-14 6,-20 0,0 1,6 2,16 1,10 2,24 0,43z"/>
  <path class="fil2" d="M766 609c0,0 1,-1 1,-1 1,-1 1,-2 2,-3 2,-3 4,-6 5,-11 4,-8 6,-18 8,-28 0,0 1,1 2,3 1,2 3,5 3,10 0,4 -1,10 -4,16 -3,6 -9,11 -17,14z"/>
  <path class="fil2" d="M812 605c0,0 0,-2 0,-5 1,-3 1,-7 1,-11 0,-9 -1,-19 -1,-29 0,0 1,1 3,2 1,2 3,5 4,9 2,4 3,9 2,15 -1,6 -4,13 -9,19z"/>
  <path class="fil0" d="M315 488c0,0 -19,34 -26,58 -6,25 -5,55 -5,55 0,0 35,3 31,34 0,0 -18,18 -55,20 -36,2 -57,-24 -59,-34 -2,-10 -3,-70 -9,-80 -7,-11 -26,-37 -26,-46 0,-8 84,-60 149,-7z"/>
  <path class="fil3" d="M584 21c-199,37 -203,176 -203,176 0,0 -85,-16 -187,11 -103,28 -141,151 -142,216 -1,65 51,181 51,181 0,0 -29,48 -18,75 11,27 58,41 106,36 48,-5 53,-19 54,-27 2,-9 5,-41 -50,-43 0,0 0,-27 7,-39 0,0 59,24 201,24 142,0 233,-74 233,-74 0,0 162,-54 205,-206 0,0 49,-136 -13,-248 -44,-81 -121,-105 -244,-82z"/>
  <path class="fil1" d="M734 435c0,0 1,0 3,0 2,-1 4,-2 7,-3 6,-2 15,-5 24,-10 10,-4 20,-10 29,-17 9,-7 18,-15 26,-22 0,0 -1,2 -3,6 -3,5 -7,11 -13,18 -7,6 -16,14 -29,19 -12,6 -27,10 -44,9z"/>
  <path class="fil1" d="M518 549c0,0 5,1 13,2 8,2 20,4 33,4 13,1 28,0 43,-1 15,-1 31,-3 45,-3 0,0 -4,1 -9,3 -6,2 -15,4 -27,7 -11,2 -26,4 -43,3 -9,-1 -18,-2 -27,-5 -9,-2 -18,-6 -28,-10z"/>
  <path class="fil1" d="M375 199c0,0 0,1 -1,3 -1,1 -2,4 -3,7 -2,7 -5,16 -6,27 -2,10 -2,22 -1,35 1,12 3,24 6,35 0,0 -2,-2 -5,-7 -2,-4 -6,-11 -8,-21 -2,-10 -4,-22 -1,-36 2,-14 8,-30 19,-43z"/>
  <path class="fil1" d="M355 203c0,0 -1,1 -2,2 -2,2 -4,4 -7,7 -6,6 -14,14 -22,25 -7,11 -14,24 -20,37 -6,14 -10,28 -13,42 0,0 -1,-4 -1,-10 0,-6 1,-15 4,-27 3,-11 9,-25 19,-39 9,-14 24,-27 42,-37z"/>
  <path class="fil1" d="M353 344c0,0 1,2 2,5 1,4 3,8 6,14 5,12 14,28 28,44 14,16 31,32 51,46 19,14 40,26 58,37 0,0 -5,-1 -14,-5 -9,-4 -22,-9 -38,-19 -16,-9 -35,-23 -53,-43 -9,-10 -18,-21 -25,-34 -7,-14 -12,-29 -15,-45z"/>
  <path class="fil1" d="M446 401c0,0 1,1 3,3 3,2 6,5 11,8 9,6 22,15 38,23 15,7 34,14 53,19 20,5 40,8 58,9 0,0 -5,1 -13,2 -8,1 -20,1 -36,-1 -15,-2 -35,-7 -55,-17 -20,-10 -41,-25 -59,-46z"/>
  <path class="fil2" d="M198 609c0,0 1,-1 2,-3 2,-2 5,-5 8,-9 6,-8 14,-19 22,-32 9,-13 17,-29 24,-45 7,-16 13,-33 18,-48 0,0 0,4 -1,11 -1,7 -2,18 -7,31 -4,13 -10,29 -21,46 -11,17 -26,34 -45,49z"/>
  <path class="fil2" d="M177 677c0,0 0,1 1,1 1,0 2,0 4,0 3,1 7,3 11,6 4,3 8,8 10,14 1,6 1,12 -1,17 0,0 -1,-2 -2,-4 -1,-2 -2,-5 -4,-8 -1,-3 -4,-7 -6,-11 -3,-5 -7,-10 -13,-15z"/>
  <path class="fil2" d="M214 671c0,0 0,0 1,0 1,0 2,0 3,0 3,0 7,2 11,5 4,3 7,7 8,13 2,5 0,11 -3,15 0,0 0,-1 -1,-3 0,-2 -1,-5 -3,-8 -1,-3 -2,-6 -5,-10 -2,-4 -5,-8 -11,-12z"/>
  <path class="fil3" d="M66 365c0,0 -59,-19 -66,-101 -6,-83 72,-126 135,-121 62,5 82,61 54,111 -29,49 -123,111 -123,111z"/>
  <path class="fil2" d="M202 214c0,0 0,3 -1,7 -1,5 -3,12 -7,20 -5,8 -12,16 -20,24 -9,8 -18,17 -32,24 -7,3 -15,5 -23,4 -9,0 -17,-4 -24,-8 -3,-3 -6,-5 -9,-8 -3,-3 -6,-6 -9,-9 -5,-8 -8,-17 -7,-26 0,-9 4,-18 10,-25 6,-6 14,-11 23,-12 8,-1 17,0 24,4 3,2 6,5 8,8 3,3 4,8 3,11 0,0 0,0 0,-1 0,-1 0,-2 -1,-4 -1,-3 -5,-6 -10,-9 -6,-3 -13,-4 -21,-2 -8,2 -17,8 -21,17 -5,9 -5,22 3,31 3,5 9,10 15,14 5,4 12,7 19,7 7,1 14,-1 22,-5 7,-4 15,-9 22,-15 8,-6 15,-12 22,-20 6,-7 11,-17 14,-27z"/>
  <path class="fil3" d="M503 519c0,0 -25,45 -33,76 -9,32 -7,72 -7,72 0,0 45,3 40,44 0,0 -24,23 -71,26 -47,2 -75,-31 -77,-45 -2,-13 -4,-91 -12,-104 -9,-14 -34,-48 -34,-59 0,-11 109,-78 194,-10z"/>
  <path class="fil2" d="M438 694c0,0 0,0 1,0 1,0 2,0 4,0 3,0 8,2 12,5 5,3 9,8 11,14 3,6 3,13 0,18 0,0 0,-2 -1,-4 -1,-2 -3,-5 -4,-8 -2,-4 -5,-8 -8,-12 -4,-4 -8,-9 -15,-13z"/>
  <path class="fil2" d="M472 686c0,0 1,0 1,0 1,1 2,1 4,1 3,1 6,2 10,6 3,3 6,8 7,13 1,6 -1,11 -5,15 0,0 0,-1 0,-3 -1,-2 -1,-5 -2,-8 -1,-3 -3,-6 -5,-10 -2,-4 -4,-9 -10,-14z"/>
  <path class="fil2" d="M463 626c0,0 0,-1 0,-3 0,-1 0,-4 0,-7 1,-7 2,-15 5,-25 5,-20 17,-43 30,-59 0,0 0,2 -1,7 -2,4 -4,11 -7,19 -3,8 -8,18 -12,29 -5,11 -11,24 -15,39z"/>
  <path class="fil2" d="M349 630c0,0 -2,-4 -3,-11 -2,-7 -5,-17 -8,-27 -2,-5 -4,-10 -8,-15 -3,-5 -7,-10 -11,-16 -7,-11 -11,-24 -13,-35 0,0 2,2 4,7 3,4 7,11 12,19 3,4 6,8 10,12 3,5 8,11 10,18 3,7 4,14 5,22 1,8 2,17 2,26z"/>
  <path class="fil3" d="M499 64c0,0 -11,-25 -22,-23 -10,2 -1,25 -1,25 0,0 16,7 23,-2z"/>
  <path class="fil1" d="M766 256c0,0 3,3 7,7 5,5 12,12 18,22 2,4 5,10 7,16 2,6 3,12 3,19 0,6 -1,13 -4,18 -3,6 -7,11 -12,14 0,0 0,-1 1,-2 1,-1 2,-2 3,-5 2,-4 4,-11 4,-19 0,-9 -1,-20 -6,-31 -5,-12 -13,-25 -21,-39z"/>
  <path class="fil1" d="M442 295c0,0 0,0 0,1 -1,1 -1,2 -2,4 -1,4 -3,8 -4,14 -1,6 -2,12 -2,18 0,7 1,13 1,19 0,0 -1,-1 -3,-3 -2,-2 -4,-6 -5,-12 -1,-5 -2,-12 0,-20 2,-7 7,-16 15,-21z"/>
  <path class="fil1" d="M589 423c0,0 1,0 2,1 2,0 4,1 7,2 6,2 14,3 23,3 10,0 20,-2 30,-5 11,-3 21,-7 30,-10 0,0 -1,2 -5,5 -3,3 -9,7 -17,10 -8,4 -18,8 -31,8 -12,0 -28,-4 -39,-14z"/>
  <path class="fil4" d="M447 232c24,-10 35,-152 29,-166 -6,-15 -123,57 -146,83 -22,25 65,105 117,83z"/>
  <path class="fil4" d="M834 195c23,4 80,-60 74,-83 -6,-22 -69,-76 -149,-77 -44,0 54,156 75,160z"/>
  <path class="fil4" d="M548 374c0,0 23,39 88,33 65,-5 92,-75 92,-75 0,0 -65,-48 -119,-52 -54,-4 -61,94 -61,94z"/>
  <path class="fil5" d="M583 313c0,0 7,48 44,42 37,-6 41,-48 41,-48 0,0 -19,-25 -48,-25 -30,0 -37,31 -37,31z"/>
  <path class="fil6" d="M622 292c0,0 9,28 3,48 0,0 -13,-18 -3,-48z"/>
  <path class="fil4" d="M605 232c-51,2 -106,21 -128,73 -21,51 17,85 48,86 31,1 52,-13 58,-59 6,-47 59,-40 74,-21 14,19 26,60 80,54 54,-6 35,-74 6,-104 -30,-29 -81,-32 -138,-29z"/>
  <path class="fil7" d="M604 215c41,-8 51,28 17,44 -33,16 -70,-34 -17,-44z"/>
  <path class="fil7" d="M727 184c0,12 -9,22 -19,22 -11,0 -20,-10 -20,-22 0,-12 9,-22 20,-22 10,0 19,10 19,22z"/>
  <path class="fil7" d="M548 201c0,12 -9,22 -19,22 -11,0 -20,-10 -20,-22 0,-12 9,-22 20,-22 10,0 19,10 19,22z"/>
  <path class="fil3" d="M717 18c0,0 12,-19 20,-16 7,2 0,27 0,27 0,0 28,-36 34,-28 6,9 -6,40 -6,40 0,0 -46,9 -48,-23z"/>
  <path class="fil8" d="M556 383c0,0 2,-1 5,-4 2,-3 6,-7 9,-14 3,-6 7,-14 8,-24 1,-5 2,-10 3,-15 2,-6 3,-11 6,-17 2,-3 4,-6 7,-8 3,-2 6,-4 9,-5 6,-2 13,-4 20,-4 7,-1 14,0 21,3 7,2 13,7 17,13 5,6 8,12 10,18l2 5 2 4 3 4 2 4c8,9 19,16 30,20 0,0 -2,0 -4,-1 -3,0 -7,-1 -12,-4 -5,-2 -11,-5 -17,-11 -1,-1 -3,-3 -4,-5 -1,-2 -3,-3 -4,-5 -1,-2 -1,-3 -2,-4 0,-1 -1,-2 -1,-3 -1,-2 -3,-4 -4,-6 -5,-9 -11,-18 -21,-22 -5,-2 -11,-2 -18,-2 -6,1 -13,2 -19,4 -3,1 -6,3 -8,5 -2,2 -4,5 -5,8 -3,7 -4,15 -7,23 -2,8 -5,16 -10,24 -4,7 -10,15 -18,19z"/>
 </g>
</svg>
