<?xml version="1.0" encoding="UTF-8"?>
<!DOCTYPE svg PUBLIC "-//W3C//DTD SVG 1.1//EN" "http://www.w3.org/Graphics/SVG/1.1/DTD/svg11.dtd">
<!-- Creator: CorelDRAW X7 -->
<svg xmlns="http://www.w3.org/2000/svg" xml:space="preserve" width="2.3253in" height="3.29074in" version="1.1" style="shape-rendering:geometricPrecision; text-rendering:geometricPrecision; image-rendering:optimizeQuality; fill-rule:evenodd; clip-rule:evenodd"
viewBox="0 0 1124 1590"
 xmlns:xlink="http://www.w3.org/1999/xlink">
 <defs>
  <style type="text/css">
   <![CDATA[
    .fil6 {fill:#1C1C1A;fill-rule:nonzero}
    .fil7 {fill:#2B2C3C;fill-rule:nonzero}
    .fil0 {fill:#2E353C;fill-rule:nonzero}
    .fil3 {fill:#41434A;fill-rule:nonzero}
    .fil2 {fill:#977F18;fill-rule:nonzero}
    .fil1 {fill:#C37912;fill-rule:nonzero}
    .fil8 {fill:#CC800F;fill-rule:nonzero}
    .fil5 {fill:#DD9117;fill-rule:nonzero}
    .fil4 {fill:#E68A00;fill-rule:nonzero}
   ]]>
  </style>
 </defs>
 <g id="Objects">
  <metadata id="CorelCorpID_0Corel-Layer"/>
  <path class="fil0" d="M665 1144c-3,-2 -146,48 -178,110 -32,62 55,235 55,235 0,0 -137,-26 -162,17 -25,42 15,45 15,45 0,0 287,23 335,11 49,-11 70,-133 69,-165 -2,-31 -60,-228 -93,-270 -32,-43 -41,17 -41,17z"/>
  <path class="fil0" d="M392 1048c0,0 0,381 -17,444 0,0 -59,-15 -89,12 -30,26 -15,63 -15,63 0,0 113,8 153,0 40,-7 77,-58 77,-58 0,0 13,-401 12,-406 -2,-5 -121,-55 -121,-55z"/>
  <path class="fil1" d="M423 1317c-14,-3 -26,3 -35,10 -3,75 -7,141 -13,165 0,0 -59,-15 -89,12 -30,26 -15,63 -15,63 0,0 113,8 153,0 40,-7 77,-58 77,-58 0,0 2,-54 4,-122 -23,-24 -57,-65 -82,-70z"/>
  <path class="fil2" d="M282 1568c0,0 0,-1 0,-1 -1,-1 -1,-2 -2,-4 -1,-3 -2,-8 0,-14 1,-6 4,-12 9,-16 5,-4 12,-6 18,-5 0,0 -3,5 -8,12 -2,3 -4,6 -7,11 -3,4 -6,8 -10,17z"/>
  <path class="fil2" d="M329 1570c0,0 0,0 0,-1 -1,-1 -1,-2 -2,-4 -1,-3 -2,-9 -1,-14 1,-6 3,-13 8,-18 4,-5 10,-8 16,-9 0,0 0,2 -1,4 -1,3 -2,6 -4,10 -1,4 -3,8 -6,13 -3,5 -6,10 -10,19z"/>
  <path class="fil0" d="M316 267c0,0 20,-164 17,-195 0,0 17,-41 110,165 0,0 -1,56 -127,30z"/>
  <path class="fil3" d="M974 1386c0,0 85,-72 109,-70 23,3 46,43 40,61 -7,18 -113,77 -140,73 -28,-3 -9,-64 -9,-64z"/>
  <path class="fil3" d="M243 363c0,0 36,-85 56,-96 20,-11 223,-58 279,-15 56,42 72,425 70,449 0,0 188,277 213,325 24,48 55,166 55,166 0,0 64,233 30,295 -34,63 -214,29 -214,29 0,0 -142,-177 -169,-209 -27,-31 -139,-146 -160,-198 -20,-53 -17,-259 -17,-286 -1,-27 -70,-189 -70,-189 0,0 -193,23 -204,9 -11,-13 -33,-45 -33,-45 0,0 -9,9 -29,-4 -20,-13 -56,-109 -49,-124 6,-16 198,-89 242,-107z"/>
  <path class="fil4" d="M449 802c10,-30 -15,-135 -15,-144 0,-8 35,-33 59,-59 23,-25 40,-122 28,-134 -12,-12 -43,23 -58,38 -15,15 -54,24 -64,17 -10,-7 -13,-33 -18,-45 -5,-12 -40,-28 -70,-37 -30,-8 -93,30 -118,49 -25,18 -80,5 -103,0 -17,-4 -66,-15 -87,-20 -1,1 -2,2 -2,3 -7,15 29,111 49,124 20,13 29,4 29,4 0,0 22,32 33,45 11,14 204,-9 204,-9 0,0 69,162 70,189 0,7 0,27 0,53 23,-12 55,-50 63,-74z"/>
  <path class="fil2" d="M78 597c0,0 1,0 2,-1 2,0 4,-1 8,-1 6,-1 15,-1 26,2 5,1 11,3 18,6 6,3 12,5 18,6 14,1 31,-2 47,-5 35,-7 72,-19 110,-32 9,-3 19,-6 28,-9 3,-1 5,-2 8,-2 1,-1 3,-1 4,-1l5 0c3,0 6,1 8,2 3,1 6,2 8,3 9,6 15,15 20,23 5,8 9,16 12,25 0,0 -1,-2 -3,-5 -2,-4 -6,-9 -11,-15 -9,-12 -28,-35 -55,-16 -29,11 -64,24 -107,34 -11,2 -22,4 -34,5 -12,2 -24,3 -37,2 -6,-1 -13,-3 -19,-6 -5,-3 -11,-7 -17,-9 -6,-2 -12,-4 -19,-6 -3,-1 -6,-1 -10,-1 -3,0 -6,0 -10,1z"/>
  <path class="fil5" d="M316 634c0,0 53,-6 70,-7l-70 7z"/>
  <path class="fil6" d="M393 380c0,12 -7,23 -16,23 -10,0 -17,-11 -17,-23 0,-13 7,-23 17,-23 9,0 16,10 16,23z"/>
  <path class="fil6" d="M305 372c0,12 -7,23 -17,23 -9,0 -16,-11 -16,-23 0,-13 7,-23 16,-23 10,0 17,10 17,23z"/>
  <path class="fil6" d="M1 470c0,0 33,-21 93,-23 60,-2 89,9 85,23 -3,13 -77,57 -100,57 -23,0 -77,-43 -78,-57z"/>
  <path class="fil3" d="M424 957c0,0 36,113 54,143 0,0 15,254 -9,402 0,0 -65,-2 -83,15 -18,17 -8,68 -8,68 0,0 101,20 175,-18 0,0 66,-303 86,-439l39 -50 -254 -121z"/>
  <path class="fil5" d="M526 1334c-16,-7 -32,2 -45,13 -1,55 -5,110 -12,155 0,0 -65,-2 -83,15 -18,17 -8,68 -8,68 0,0 101,20 175,-18 0,0 15,-68 32,-154 -16,-28 -38,-69 -59,-79z"/>
  <path class="fil2" d="M395 1587c0,0 0,-1 -1,-2 0,-1 -1,-2 -2,-4 -1,-4 -2,-10 -1,-17 1,-6 4,-14 9,-20 4,-6 11,-10 18,-11 0,0 0,2 -2,5 -1,2 -2,6 -5,11 -2,4 -4,9 -7,15 -3,6 -6,13 -9,23z"/>
  <path class="fil2" d="M440 1589c0,0 -1,-2 -2,-5 -1,-3 -2,-8 -2,-14 0,-6 1,-12 5,-18 3,-5 8,-10 14,-12 0,0 0,2 0,5 -1,2 -1,6 -2,10 -1,4 -3,9 -5,14 -2,5 -5,11 -8,20z"/>
  <path class="fil7" d="M481 1217c0,0 -1,-9 -2,-25 -1,-16 -3,-38 -4,-64 -1,-6 -1,-13 -2,-19 0,-2 -1,-3 -1,-5 0,0 0,0 0,0l0 -1 0 0 0 0c0,0 0,0 0,0l1 0c1,-1 2,-1 3,-2 -8,4 -2,1 -4,2l0 0 0 0 0 -1 -1 -1c-1,-3 -3,-6 -4,-10 -6,-13 -12,-26 -17,-40 -5,-13 -10,-27 -14,-41 -4,-13 -8,-27 -9,-40 0,0 2,6 7,17 5,10 12,26 21,46 5,10 10,21 15,34 3,6 6,12 9,19 1,3 3,6 4,10l1 1c0,1 0,2 0,2 1,2 1,3 1,4 0,3 1,5 1,7 1,32 -1,68 -5,107z"/>
  <path class="fil7" d="M584 1413c0,0 7,-51 18,-118 5,-33 12,-71 20,-109 4,-19 8,-37 12,-55l0 -2c1,-1 1,-2 1,-3l3 -3 5 -6c3,-3 6,-7 9,-10 6,-7 11,-13 17,-20 0,0 -4,7 -12,20 -2,4 -4,7 -7,11 -1,2 -3,5 -4,7 -1,2 -4,5 -4,6 -1,10 -3,24 -5,38 -9,58 -24,142 -53,244z"/>
  <path class="fil3" d="M863 1163c-4,-1 -147,49 -179,111 -31,61 89,235 89,235 0,0 -170,-26 -195,16 -25,42 15,46 15,46 0,0 286,23 335,11 48,-12 70,-133 68,-165 -2,-32 -60,-228 -92,-271 -33,-43 -41,17 -41,17z"/>
  <path class="fil5" d="M751 1506c-23,-3 -59,-6 -93,-5 -37,1 -70,7 -80,24 -25,42 15,46 15,46 0,0 75,6 155,10 18,-33 12,-58 3,-75z"/>
  <path class="fil2" d="M584 1568c0,0 -1,-2 -1,-5 -1,-3 -2,-8 -1,-13 1,-5 3,-11 7,-16 4,-4 9,-8 15,-8 0,0 0,1 -1,4 -1,2 -1,5 -3,9 -1,4 -3,7 -5,12 -3,4 -6,9 -11,17z"/>
  <path class="fil2" d="M618 1572c0,0 -1,-1 -2,-4 -1,-3 -2,-7 -2,-12 0,-5 2,-11 5,-16 3,-4 8,-8 14,-9 0,0 0,2 -1,4 0,3 0,6 -1,9 -1,4 -2,7 -4,12 -2,4 -5,9 -9,16z"/>
  <path class="fil7" d="M863 1165c0,0 -17,5 -44,17 -13,6 -29,14 -46,23 -17,10 -35,22 -53,37 -4,4 -8,8 -12,12 -4,4 -8,9 -12,13 -3,5 -7,10 -9,15 -1,5 -2,11 -2,17 -1,11 2,24 5,36 4,12 8,25 13,37 21,48 47,95 71,136 0,0 -7,-9 -20,-26 -12,-17 -31,-44 -50,-80 -9,-18 -19,-39 -27,-64 -3,-12 -6,-25 -6,-40 0,-7 2,-15 5,-22 1,-2 2,-4 3,-6l3 -4c2,-3 4,-7 7,-10 20,-23 46,-41 76,-56 29,-15 63,-27 98,-35z"/>
  <path class="fil3" d="M434 257c0,0 117,-254 135,-257 19,-3 37,257 37,257 0,0 54,25 42,40 -12,15 -64,35 -64,35 0,0 -127,25 -150,-75z"/>
  <path class="fil8" d="M494 297c0,0 -11,-55 0,-84 12,-28 69,-158 75,-151 7,6 15,193 20,202 4,8 -68,59 -95,33z"/>
 </g>
</svg>
