<?xml version="1.0" encoding="UTF-8"?>
<!DOCTYPE svg PUBLIC "-//W3C//DTD SVG 1.1//EN" "http://www.w3.org/Graphics/SVG/1.1/DTD/svg11.dtd">
<!-- Creator: CorelDRAW X7 -->
<svg xmlns="http://www.w3.org/2000/svg" xml:space="preserve" width="2.36851in" height="2.77533in" version="1.1" style="shape-rendering:geometricPrecision; text-rendering:geometricPrecision; image-rendering:optimizeQuality; fill-rule:evenodd; clip-rule:evenodd"
viewBox="0 0 2529 2963"
 xmlns:xlink="http://www.w3.org/1999/xlink">
 <defs>
  <style type="text/css">
   <![CDATA[
    .fil6 {fill:#1C1D1B;fill-rule:nonzero}
    .fil4 {fill:#AC0E0E;fill-rule:nonzero}
    .fil5 {fill:#CA801C;fill-rule:nonzero}
    .fil1 {fill:#DE8D3C;fill-rule:nonzero}
    .fil0 {fill:#EDA734;fill-rule:nonzero}
    .fil2 {fill:#F8B747;fill-rule:nonzero}
    .fil3 {fill:#FFE6BE;fill-rule:nonzero}
   ]]>
  </style>
 </defs>
 <g id="Objects">
  <metadata id="CorelCorpID_0Corel-Layer"/>
  <path class="fil0" d="M645 2084c0,0 103,264 154,366 51,101 80,266 80,266 0,0 -148,13 -152,89 -4,76 64,78 135,86 72,9 201,-21 203,-38 2,-17 -56,-226 -42,-323 15,-97 55,-283 57,-327 2,-45 -435,-119 -435,-119z"/>
  <path class="fil1" d="M775 2879c0,0 -2,-1 -5,-3 -2,-3 -7,-7 -9,-12 -2,-6 -5,-13 -5,-20 0,-8 1,-16 3,-24 3,-7 7,-14 12,-20 5,-6 12,-9 17,-12 5,-3 11,-3 14,-4 4,0 6,0 6,0 0,0 -1,2 -2,6 -2,2 -3,7 -5,12 -2,4 -2,10 -5,14 -2,5 -4,10 -5,16 -2,5 -4,10 -5,15 -1,5 -5,10 -6,14 -1,5 -3,10 -4,13 -1,3 -1,5 -1,5z"/>
  <path class="fil1" d="M867 2888c0,0 -2,0 -5,-1 -3,-2 -8,-4 -11,-8 -3,-4 -8,-10 -10,-17 -2,-7 -2,-15 -1,-23 2,-7 5,-14 10,-20 4,-6 10,-9 15,-12 5,-2 10,-2 13,-3 4,1 6,1 6,1 0,0 -1,2 -2,5 -1,3 -2,7 -3,11 -2,4 -2,9 -3,13 -2,4 -2,8 -2,12 -2,4 -3,8 -3,13 0,4 -2,8 -2,12 0,4 -2,9 -1,12 -1,3 -1,5 -1,5z"/>
  <path class="fil2" d="M538 439c0,0 -290,-359 -430,-439 0,0 -169,190 -84,405 84,216 298,234 298,234l216 -200z"/>
  <path class="fil3" d="M125 10c-6,-3 -11,-7 -17,-10 0,0 -169,190 -84,405 84,216 298,234 298,234l97 -90c-57,-60 -124,-139 -150,-197 -38,-87 -87,-247 -144,-342z"/>
  <path class="fil0" d="M1745 2163c0,0 128,243 140,338 0,0 -148,8 -140,105 9,97 277,55 296,38 19,-17 -40,-213 -47,-308 -6,-95 51,-273 51,-273l-300 100z"/>
  <path class="fil2" d="M869 321c-332,-11 -745,215 -578,604 0,0 -153,44 -115,174 38,130 115,90 115,90 0,0 68,230 266,285 0,0 -60,456 113,689 173,232 444,234 583,180 139,-54 774,-88 1010,-271 236,-184 181,-475 130,-547 -50,-72 -152,-204 -388,-180 -237,24 -389,108 -579,32 -190,-76 -161,-194 -161,-194 0,0 115,-266 102,-435 -13,-169 -105,-414 -498,-427z"/>
  <path class="fil2" d="M1101 536c0,0 110,-109 228,-152 118,-42 465,-249 486,-240 21,8 156,511 -102,663 -257,152 -460,29 -494,0 -34,-30 -173,-182 -118,-271z"/>
  <path class="fil3" d="M1253 678c0,0 4,-163 186,-260 124,-66 342,-211 342,-211 0,0 76,333 -135,471 -211,137 -393,0 -393,0z"/>
  <path class="fil4" d="M346 1175c0,0 73,185 134,183 61,-2 83,-119 83,-119 0,0 -100,9 -159,-99 0,0 -32,27 -58,35z"/>
  <path class="fil5" d="M291 1189c0,0 8,-3 21,-9 13,-6 31,-16 50,-28 3,-1 5,-3 7,-5l4 -2c2,-2 4,-4 7,-6 2,-2 4,-4 7,-6 2,-3 5,-5 7,-8 6,-6 11,-12 17,-18 4,9 9,19 15,29 3,6 6,11 10,17 2,3 4,5 6,7 16,21 39,37 65,45 25,10 55,13 81,8 26,-4 51,-11 72,-22 20,-11 38,-21 49,-29 12,-8 18,-13 18,-13 0,0 -3,7 -11,20 -8,12 -20,30 -40,46 -20,16 -46,34 -79,42 -33,9 -71,8 -107,-3 -35,-14 -65,-39 -84,-67 -3,-3 -5,-7 -7,-9 0,-1 0,-2 0,-2 0,-2 0,-4 -1,-6 -2,0 -4,1 -6,1 -1,1 -1,1 -2,1 -2,1 -4,2 -5,3 -4,1 -7,2 -10,4 -25,9 -46,9 -61,10 -14,1 -23,0 -23,0z"/>
  <path class="fil6" d="M400 1064c25,12 148,-69 152,-93 4,-23 -120,-76 -186,-52 -65,23 6,133 34,145z"/>
  <path class="fil6" d="M935 834c0,53 -40,95 -90,95 -49,0 -89,-42 -89,-95 0,-53 40,-95 89,-95 50,0 90,42 90,95z"/>
  <path class="fil6" d="M455 809c0,43 -33,78 -74,78 -41,0 -74,-35 -74,-78 0,-43 33,-78 74,-78 41,0 74,35 74,78z"/>
  <path class="fil1" d="M789 1434c0,0 5,-2 13,-4 8,-3 19,-8 32,-14 13,-5 27,-14 43,-23 15,-8 30,-19 46,-31 16,-10 31,-21 45,-32 14,-12 28,-21 39,-30 11,-10 21,-17 28,-23 7,-5 11,-8 11,-8 0,0 -2,5 -6,13 -4,7 -10,19 -19,31 -9,12 -20,26 -33,39 -14,13 -29,26 -46,39 -17,11 -34,21 -52,29 -17,8 -35,12 -50,15 -15,3 -28,2 -37,1 -9,-1 -14,-2 -14,-2z"/>
  <path class="fil1" d="M826 1464c0,0 8,-1 21,-3 6,-1 14,-3 23,-5 9,-2 18,-4 29,-7 21,-4 45,-14 70,-22 26,-10 52,-22 76,-37 25,-14 49,-30 70,-47 20,-17 41,-33 55,-49 8,-8 15,-15 21,-22 6,-6 12,-12 15,-17 9,-10 14,-16 14,-16 0,0 -3,7 -8,19 -3,6 -6,14 -10,22 -5,8 -10,17 -17,26 -13,19 -29,40 -50,60 -22,19 -46,38 -73,54 -27,14 -55,26 -83,35 -28,8 -54,12 -77,14 -11,1 -22,1 -31,0 -9,0 -17,-1 -24,-2 -13,-2 -21,-3 -21,-3z"/>
  <path class="fil1" d="M544 1469c0,0 2,-1 6,-1 4,-1 10,-2 17,-2 6,0 14,-2 21,-1 8,0 16,1 24,0 8,1 15,2 23,3 7,0 15,2 21,3 6,0 12,3 16,3 4,1 7,2 7,2 0,0 -2,2 -5,5 -4,2 -9,6 -15,9 -6,2 -14,6 -22,8 -9,1 -18,1 -27,2 -9,-2 -18,-3 -27,-5 -8,-3 -15,-7 -21,-10 -6,-4 -11,-9 -14,-11 -3,-3 -4,-5 -4,-5z"/>
  <path class="fil2" d="M2113 1358c0,0 158,-53 221,-168 64,-115 72,-340 57,-451 -14,-112 27,-173 47,-169 19,4 93,154 91,394 -2,240 -214,502 -231,519 -16,16 -185,-125 -185,-125z"/>
  <path class="fil1" d="M1803 2662c0,0 -2,-1 -5,-3 -3,-2 -8,-6 -11,-11 -3,-5 -7,-12 -8,-20 -1,-7 -1,-16 0,-24 3,-8 6,-16 10,-23 4,-6 10,-11 15,-14 5,-4 11,-5 14,-6 4,0 6,-1 6,-1 0,0 0,2 -1,6 -1,3 -2,8 -3,13 -2,4 -2,10 -4,15 -2,6 -3,11 -3,17 -2,5 -3,11 -4,16 0,6 -3,11 -3,16 0,5 -2,10 -2,13 -1,4 -1,6 -1,6z"/>
  <path class="fil1" d="M1888 2668c0,0 -2,-1 -5,-2 -3,-2 -8,-4 -11,-9 -3,-5 -8,-10 -10,-17 -1,-7 -2,-15 -2,-23 2,-7 5,-15 8,-21 3,-6 9,-11 14,-14 4,-4 9,-5 12,-6 4,-1 6,-1 6,-1 0,0 0,2 -1,6 -1,2 0,7 -1,12 -2,4 -1,9 -2,14 -1,5 -1,10 -1,15 -2,4 -3,9 -3,14 0,5 -2,10 -2,15 0,4 -1,9 -1,12 -1,3 -1,5 -1,5z"/>
  <path class="fil2" d="M1023 2059c0,0 116,391 131,458 15,68 27,252 27,252 0,0 -134,-4 -135,93 -2,97 150,101 196,101 47,0 167,-42 165,-110 -2,-67 -48,-397 -34,-452 15,-55 76,-340 83,-426 6,-87 -452,-125 -433,84z"/>
  <path class="fil1" d="M1095 2936c0,0 -2,-1 -4,-4 -2,-2 -6,-5 -8,-9 -2,-5 -5,-10 -6,-16 -1,-7 -1,-14 0,-21 3,-8 7,-14 12,-20 4,-6 11,-8 17,-10 5,-2 11,0 14,0 3,1 4,3 4,3 0,0 -1,1 -2,4 -2,2 -4,6 -5,9 -2,3 -2,8 -4,11 -1,3 -2,7 -2,11 -2,4 -3,8 -4,13 -1,5 -4,9 -5,14 -1,4 -4,8 -5,11 -1,2 -2,4 -2,4z"/>
  <path class="fil1" d="M1207 2963c0,0 -2,-1 -6,-3 -2,-2 -7,-5 -11,-11 -3,-5 -7,-12 -8,-20 -1,-8 -1,-16 0,-25 3,-9 7,-16 12,-23 4,-7 11,-10 17,-14 5,-3 11,-3 14,-4 4,0 6,0 6,0 0,0 -1,2 -2,5 -1,3 -2,8 -5,13 -2,4 -2,10 -5,15 -2,5 -3,11 -4,16 -2,5 -3,11 -3,16 -1,5 -3,11 -3,16 0,5 -2,10 -2,13 0,4 0,6 0,6z"/>
  <path class="fil1" d="M1391 2312c0,0 1,-4 1,-13 1,-8 1,-20 3,-33 2,-14 3,-30 7,-46 3,-17 6,-35 10,-53 4,-17 9,-35 13,-51 4,-17 10,-32 13,-45 4,-13 9,-24 12,-32 3,-7 5,-12 5,-12 0,0 1,5 1,13 1,8 2,20 1,34 0,14 0,30 -3,47 -2,17 -5,36 -9,54 -4,18 -9,35 -14,52 -5,16 -12,31 -18,44 -5,13 -11,23 -15,30 -4,7 -7,11 -7,11z"/>
  <path class="fil1" d="M1114 2368c0,0 -3,-4 -8,-10 -4,-8 -11,-18 -17,-31 -6,-13 -13,-28 -18,-45 -4,-17 -9,-35 -13,-53 -4,-19 -7,-37 -10,-54 -4,-16 -5,-33 -8,-46 -2,-14 -3,-25 -5,-33 -2,-9 -2,-13 -2,-13 0,0 3,3 8,10 4,7 12,17 18,30 6,13 13,28 18,45 5,17 10,35 14,54 4,18 7,36 10,53 3,17 4,33 7,47 2,13 3,25 4,33 1,8 2,13 2,13z"/>
  <path class="fil2" d="M1891 1641c0,0 -49,289 139,465 188,175 268,316 256,454 0,0 -169,19 -161,107 9,89 309,66 336,43 28,-24 -7,-203 -23,-276 -17,-73 36,-324 51,-453 14,-129 -35,-357 -96,-456 -61,-99 -449,-93 -502,116z"/>
  <path class="fil1" d="M2184 2714c0,0 -1,-1 -4,-4 -3,-2 -7,-6 -9,-11 -3,-6 -6,-13 -6,-20 0,-8 2,-16 4,-24 3,-7 8,-14 13,-20 5,-6 12,-9 17,-12 5,-2 11,-2 15,-2 3,0 5,0 5,0 0,0 0,2 -2,5 -2,3 -3,8 -5,12 -3,4 -3,10 -6,14 -2,5 -4,10 -5,15 -3,5 -5,10 -6,15 -1,5 -4,10 -5,14 -1,5 -3,9 -4,12 -1,4 -2,6 -2,6z"/>
  <path class="fil1" d="M2294 2731c0,0 -2,-1 -6,-2 -3,-3 -8,-5 -11,-11 -4,-5 -8,-11 -10,-19 -1,-8 -2,-17 -1,-26 3,-8 6,-16 11,-23 4,-7 11,-11 16,-15 5,-3 11,-4 15,-5 4,0 6,0 6,0 0,0 -1,2 -2,6 -2,3 -2,8 -4,12 -2,5 -3,11 -5,16 -1,5 -3,10 -3,16 -2,5 -3,11 -3,16 0,5 -2,11 -2,16 0,5 -1,10 -1,13 0,4 0,6 0,6z"/>
  <path class="fil1" d="M2092 2169c0,0 -6,-5 -18,-14 -11,-10 -28,-23 -46,-40 -18,-17 -41,-36 -62,-60 -21,-24 -42,-51 -59,-82 -16,-32 -25,-66 -29,-98 -5,-32 -3,-62 -1,-88 2,-25 7,-46 9,-60 4,-15 6,-23 6,-23 0,0 0,9 1,23 0,15 2,36 3,60 2,25 6,54 11,83 6,30 15,60 31,87 13,29 32,55 51,79 19,24 37,47 53,66 16,19 28,37 37,48 8,12 13,19 13,19z"/>
 </g>
</svg>
