<?xml version="1.0" encoding="UTF-8"?>
<!DOCTYPE svg PUBLIC "-//W3C//DTD SVG 1.1//EN" "http://www.w3.org/Graphics/SVG/1.1/DTD/svg11.dtd">
<!-- Creator: CorelDRAW X7 -->
<svg xmlns="http://www.w3.org/2000/svg" xml:space="preserve" width="2.28721in" height="2.94235in" version="1.1" style="shape-rendering:geometricPrecision; text-rendering:geometricPrecision; image-rendering:optimizeQuality; fill-rule:evenodd; clip-rule:evenodd"
viewBox="0 0 572 736"
 xmlns:xlink="http://www.w3.org/1999/xlink">
 <defs>
  <style type="text/css">
   <![CDATA[
    .fil7 {fill:#1C1D1B;fill-rule:nonzero}
    .fil8 {fill:#1C1E1C;fill-rule:nonzero}
    .fil0 {fill:#201E19;fill-rule:nonzero}
    .fil3 {fill:#282828;fill-rule:nonzero}
    .fil1 {fill:#4C463F;fill-rule:nonzero}
    .fil4 {fill:#8D5A24;fill-rule:nonzero}
    .fil2 {fill:#BA7D18;fill-rule:nonzero}
    .fil12 {fill:#C38017;fill-rule:nonzero}
    .fil11 {fill:#CC4716;fill-rule:nonzero}
    .fil13 {fill:#D19F46;fill-rule:nonzero}
    .fil9 {fill:#E0982E;fill-rule:nonzero}
    .fil10 {fill:#E75A0D;fill-rule:nonzero}
    .fil6 {fill:#F7CA68;fill-rule:nonzero}
    .fil5 {fill:#F8B747;fill-rule:nonzero}
   ]]>
  </style>
 </defs>
 <g id="Objects">
  <metadata id="CorelCorpID_0Corel-Layer"/>
  <path class="fil0" d="M88 440c0,0 -78,53 -87,124 -9,70 37,99 43,99 7,0 7,-18 7,-18 0,0 12,34 37,31 24,-2 71,-126 61,-184 -11,-57 -61,-52 -61,-52z"/>
  <path class="fil1" d="M208 269c0,0 -69,38 -127,128 -59,89 -26,165 -20,194 6,29 21,74 14,98 -7,24 -1,51 26,12 0,0 0,13 15,19 15,7 44,-16 44,-16 0,0 -3,30 8,32 12,3 57,-26 57,-26 0,0 -19,24 0,26 18,3 59,-39 59,-39 0,0 -5,24 22,23 28,-1 81,-34 81,-34 0,0 29,15 37,15 8,0 0,-18 0,-18 0,0 49,33 65,29 16,-3 8,-18 8,-18 0,0 28,-3 35,-12 7,-9 -28,-36 -36,-62 -8,-26 -36,-137 -31,-223 5,-85 -57,-199 -257,-128z"/>
  <path class="fil2" d="M474 517c0,0 11,62 22,86 11,23 45,67 39,79 -5,12 -38,12 -38,12 0,0 14,10 -4,19 -19,8 -69,-30 -69,-30 0,0 10,17 0,18 -7,0 -37,-15 -37,-15 0,0 -59,38 -83,37 -24,-2 -20,-26 -20,-26 0,0 -40,41 -59,39 -20,-2 0,-26 0,-26 0,0 -15,4 -19,-1 -3,-4 37,-41 37,-41 0,0 -26,-2 -25,-9 0,-7 32,-23 33,-66 1,-43 -4,-95 1,-124 5,-28 94,-163 122,-161 27,2 100,209 100,209z"/>
  <path class="fil3" d="M140 401c0,0 0,0 -1,1 -1,1 -2,3 -3,5 -2,4 -5,10 -9,18 -3,8 -6,17 -8,27 -2,10 -4,21 -4,32 -1,11 -1,22 -1,32 1,10 1,20 2,28 1,9 2,16 2,21 1,4 1,7 1,7 0,0 -1,-2 -2,-7 -2,-5 -4,-12 -5,-20 -2,-8 -4,-18 -5,-29 -1,-10 -1,-21 -1,-33 1,-11 3,-23 6,-33 3,-10 7,-19 11,-27 4,-7 9,-13 12,-17 2,-2 3,-3 4,-4 1,-1 1,-1 1,-1z"/>
  <path class="fil3" d="M136 498c0,0 0,1 0,2 0,2 0,4 0,7 0,5 0,13 1,23 1,9 4,20 7,31 2,6 4,12 7,17 3,6 6,11 9,17 6,11 12,23 14,36 1,13 -2,25 -3,34 -3,9 -5,17 -6,23 -2,5 -2,8 -2,8 0,0 0,-3 0,-9 1,-5 2,-13 3,-23 1,-9 2,-21 1,-32 -2,-11 -8,-22 -14,-33 -3,-6 -6,-12 -9,-18 -2,-6 -5,-12 -6,-18 -4,-12 -5,-23 -5,-33 0,-10 1,-18 2,-23 0,-3 1,-5 1,-7 0,-1 0,-2 0,-2z"/>
  <path class="fil4" d="M293 583c0,0 0,2 0,5 1,3 1,8 0,13 0,6 -1,12 -4,18 -2,7 -5,14 -9,20 -4,6 -8,12 -12,17 -5,5 -9,10 -13,14 -4,3 -7,6 -9,8 -3,2 -4,3 -4,3 0,0 1,-1 2,-4 2,-2 5,-6 8,-10 3,-5 6,-10 10,-15 4,-5 8,-11 11,-17 4,-6 7,-12 10,-18 2,-6 5,-12 6,-17 1,-5 2,-9 3,-12 0,-3 1,-5 1,-5z"/>
  <path class="fil4" d="M258 572c0,0 1,1 2,3 1,2 3,4 4,8 1,3 2,7 3,12 0,4 0,9 -1,14 -2,5 -4,9 -6,13 -2,4 -5,8 -8,10 -2,3 -5,4 -7,5 -2,1 -3,2 -3,2 0,0 1,-1 2,-3 1,-2 3,-4 5,-7 2,-3 3,-6 5,-10 2,-3 3,-8 4,-12 1,-4 2,-8 2,-12 0,-4 0,-8 0,-11 -1,-4 -1,-7 -1,-9 -1,-2 -1,-3 -1,-3z"/>
  <path class="fil4" d="M427 527c0,0 1,2 2,5 1,2 2,4 3,7 0,2 2,5 3,7 2,6 5,13 8,20 4,7 8,14 12,20 5,7 9,14 14,20 5,6 9,12 14,16 2,2 4,4 5,6 2,2 4,4 5,5 3,3 4,4 4,4 0,0 -2,-1 -5,-3 -1,-1 -3,-2 -5,-3 -3,-2 -5,-3 -7,-6 -5,-4 -11,-8 -16,-14 -6,-6 -11,-13 -16,-20 -4,-8 -8,-15 -11,-22 -3,-8 -5,-15 -7,-21 -1,-3 -1,-6 -1,-9 -1,-2 -1,-4 -1,-6 -1,-4 -1,-6 -1,-6z"/>
  <path class="fil4" d="M404 560c0,0 1,2 2,5 1,3 3,8 5,14 2,5 4,12 5,19 2,7 4,14 5,22 1,8 3,16 3,23 1,7 2,14 2,20 0,6 0,11 0,14 0,3 0,5 0,5 0,0 -1,-2 -2,-5 0,-3 -2,-8 -3,-14 -1,-5 -2,-12 -3,-19 -2,-7 -3,-15 -5,-22 -1,-8 -2,-16 -4,-23 -1,-7 -2,-14 -3,-19 -1,-6 -1,-11 -2,-14 0,-4 0,-6 0,-6z"/>
  <path class="fil4" d="M284 688c0,0 0,-1 0,-2 0,-1 0,-3 1,-5 1,-1 1,-4 2,-6 1,-2 2,-4 3,-6 2,-2 3,-4 4,-6 2,-2 3,-4 5,-5 1,-2 2,-2 3,-3 1,-1 2,-1 2,-1 0,0 0,0 0,2 -1,1 -1,2 -1,4 -1,2 -1,4 -3,6 -1,2 -2,5 -3,7 -1,2 -3,4 -4,6 -1,2 -3,3 -4,5 -1,1 -3,2 -4,3 -1,0 -1,1 -1,1z"/>
  <path class="fil5" d="M262 89c0,0 -41,-26 -111,-19 -4,1 -6,3 -6,7 -1,14 2,51 36,75 0,0 -23,-5 -23,5 0,0 6,7 22,9 0,0 -27,42 -22,97 4,55 45,165 46,205 0,40 -11,62 0,69 10,7 26,-7 26,-7 0,0 -1,36 11,38 11,2 27,-10 27,-10 0,0 7,27 22,30 14,2 44,-12 58,-30 0,0 8,11 24,6 16,-6 32,-35 25,-74 -7,-39 -38,-113 -38,-113 0,0 17,23 22,20 5,-3 7,-13 7,-13 0,0 7,69 32,104 26,34 57,50 57,50 0,0 8,-14 8,-14 0,0 33,44 55,34 22,-9 7,-58 7,-58 0,0 17,13 24,0 7,-12 -12,-50 -25,-75 -14,-24 -15,-113 -29,-160 -14,-46 -50,-119 -78,-147 0,0 12,-18 11,-25 -1,-7 -18,6 -18,6 0,0 3,-87 -14,-97 -17,-10 -90,64 -92,71 0,0 -29,-7 -36,-16 -8,-9 6,-52 0,-56 -7,-4 -17,19 -17,19 0,0 0,-15 -9,-19 -10,-5 -6,20 -6,20 0,0 -15,-16 -23,-6 -8,9 30,25 38,47 2,13 -11,27 -11,27z"/>
  <path class="fil6" d="M333 196c-37,13 -83,45 -82,108 1,63 40,139 39,164 -2,25 -24,41 -14,53 10,12 39,-12 39,-12 0,0 3,42 18,46 15,3 39,-41 39,-41 0,0 2,8 12,1 10,-7 13,-35 1,-69 -12,-34 -58,-139 -63,-169 -5,-30 25,-57 31,-59 6,-2 38,-2 53,41 14,42 -3,103 0,143 2,40 13,88 30,93 16,5 18,-13 18,-13 0,0 28,44 49,34 21,-11 12,-39 12,-39 0,0 20,5 18,-14 -2,-19 -15,-39 -24,-87 -9,-48 -6,-89 -43,-140 -37,-51 -90,-54 -133,-40z"/>
  <path class="fil7" d="M322 222c-2,-9 33,-17 43,-12 10,5 -6,29 -13,31 -7,3 -28,-8 -30,-19z"/>
  <path class="fil8" d="M261 193c0,0 1,0 4,2 3,1 6,3 10,4 4,1 8,0 12,-3 3,-3 6,-7 9,-11 0,0 0,1 0,4 0,2 -1,5 -3,9 -1,2 -3,4 -6,6 -3,2 -6,2 -10,2 -7,-2 -12,-7 -16,-13z"/>
  <path class="fil8" d="M365 166c0,0 2,1 4,2 3,2 6,3 11,4 4,1 7,0 11,-2 3,-3 6,-8 9,-12 0,0 0,2 0,4 0,2 0,6 -3,10 -1,2 -3,4 -6,5 -2,2 -6,3 -9,2 -7,-1 -13,-6 -17,-13z"/>
  <path class="fil8" d="M339 258c0,0 1,1 4,2 3,1 6,2 10,2 5,0 8,-1 11,-4 4,-3 6,-8 9,-12 0,0 0,1 0,4 0,2 0,6 -2,10 -1,2 -3,4 -5,6 -2,0 -3,1 -4,2 -1,0 -2,0 -3,0 -1,1 -2,1 -3,1 -7,-1 -13,-5 -17,-11z"/>
  <path class="fil9" d="M259 89c0,0 0,2 -1,4 -1,2 -3,5 -5,8 -3,3 -6,7 -8,11 -3,4 -5,8 -5,13 -1,4 0,8 3,11 3,3 6,6 10,8 3,2 6,3 9,4 2,1 3,1 3,1 0,0 -1,0 -4,0 -2,0 -6,0 -10,-1 -4,-1 -9,-3 -13,-7 -2,-2 -4,-5 -5,-8 -1,-3 -2,-6 -2,-9 1,-7 5,-12 8,-16 3,-5 7,-7 10,-10 3,-2 6,-4 8,-6 1,-2 2,-3 2,-3z"/>
  <path class="fil9" d="M325 73c0,0 2,0 4,0 3,0 6,0 10,2 4,1 9,2 14,5 5,2 10,5 14,10 2,3 3,6 4,9 0,4 0,7 0,9 0,6 -1,11 -3,15 -2,4 -5,7 -7,8 -1,1 -1,2 -2,2 -1,0 -1,0 -1,0 0,0 0,0 1,0 0,-1 1,-2 1,-3 2,-2 3,-5 4,-9 0,-3 0,-8 0,-13 0,-5 0,-9 -3,-13 -3,-3 -7,-6 -12,-9 -4,-3 -8,-5 -11,-7 -4,-2 -7,-4 -9,-4 -2,-2 -4,-2 -4,-2z"/>
  <path class="fil9" d="M333 133c0,0 0,-1 1,-2 0,-2 1,-4 1,-6 1,-2 1,-5 1,-8 1,-3 0,-6 0,-9 -1,-3 -2,-6 -3,-8 -2,-3 -3,-5 -5,-7 -1,-2 -3,-4 -4,-5 -1,-1 -2,-2 -2,-2 0,0 1,0 3,1 2,0 4,1 6,2 3,2 5,4 8,7 2,3 3,6 4,10 1,4 1,8 0,12 0,3 -2,6 -3,9 -2,2 -4,4 -5,5 -1,1 -2,1 -2,1z"/>
  <path class="fil9" d="M320 114c0,0 0,0 -1,-1 0,-1 -1,-2 -1,-3 -1,-1 -2,-3 -2,-4 -1,-2 -1,-3 -2,-5 -1,-1 -1,-3 -2,-4 -1,-2 -1,-3 -2,-4 -1,-2 -1,-3 -2,-4 0,-1 0,-1 0,-1 0,0 0,0 1,0 1,0 3,1 4,1 1,1 3,2 4,4 2,1 3,3 4,5 1,2 1,4 2,6 0,2 0,4 -1,5 0,2 -1,3 -1,4 -1,1 -1,1 -1,1z"/>
  <path class="fil9" d="M267 131c0,0 0,0 -2,0 -1,0 -3,0 -5,-2 -2,-2 -3,-4 -3,-7 0,-3 0,-6 0,-9 1,-3 2,-5 3,-8 1,-2 3,-4 4,-6 1,-1 3,-2 4,-3 1,0 2,-1 2,-1 0,0 -1,1 -1,2 0,1 0,3 -1,5 -1,1 -1,4 -2,6 0,2 -1,4 -1,7 -1,2 -1,4 -1,6 0,2 -1,4 0,6 0,1 1,2 2,3 1,1 1,1 1,1z"/>
  <path class="fil9" d="M388 377c0,0 0,-2 -1,-4 -1,-3 -3,-6 -3,-11 -1,-4 -2,-10 -2,-16 0,-5 1,-12 2,-18 1,-6 3,-12 4,-17 1,-5 2,-10 2,-14 -1,-4 -1,-8 -2,-10 -1,-3 -1,-4 -1,-4 0,0 1,1 2,3 2,2 4,6 5,10 1,5 2,11 1,17 -1,6 -3,11 -3,17 -2,6 -3,11 -3,17 0,5 -1,10 -1,15 0,4 0,8 0,11 0,2 0,4 0,4z"/>
  <path class="fil9" d="M360 325c0,0 0,0 1,1 0,0 1,1 2,2 1,1 2,1 2,3 1,1 2,2 2,3 1,1 1,2 2,3 0,1 0,3 1,4 0,1 0,2 0,3 0,1 0,1 0,1 0,0 0,0 -1,0 -1,-1 -2,-1 -3,-1 -1,-1 -2,-2 -3,-3 -1,-1 -2,-2 -3,-4 0,-1 -1,-3 -1,-4 -1,-1 0,-3 0,-4 0,-1 0,-2 0,-3 1,-1 1,-1 1,-1z"/>
  <path class="fil9" d="M342 317c0,0 0,0 1,1 1,1 2,3 3,5 1,1 3,3 4,5 2,3 3,5 5,7 2,2 3,5 5,6 2,2 3,5 4,6 2,2 2,4 3,5 1,1 2,1 2,1 0,0 -1,0 -3,0 -1,-1 -3,-1 -5,-2 -2,-1 -4,-3 -6,-5 -2,-2 -4,-4 -6,-6 -2,-3 -4,-6 -5,-8 -1,-3 -1,-5 -2,-8 0,-2 0,-4 0,-5 0,-2 0,-2 0,-2z"/>
  <path class="fil10" d="M279 48c0,0 19,-37 35,-42 16,-4 33,45 24,60 -9,14 -53,-4 -59,-18z"/>
  <path class="fil10" d="M267 52c0,0 -27,-19 -47,-13 -20,5 9,58 24,62 14,4 36,-39 35,-42 -2,-2 -12,-7 -12,-7z"/>
  <path class="fil11" d="M267 52c5,-6 15,-12 20,-7 5,5 8,11 3,16 -6,4 -13,6 -17,4 -4,-2 -9,-10 -6,-13z"/>
  <path class="fil12" d="M349 73c0,0 37,-46 52,-52 15,-6 17,82 17,82 0,0 -9,-16 -13,-17 -5,0 -8,7 -8,7 0,0 5,-17 -5,-20 -10,-3 -23,7 -23,7 0,0 2,-18 -20,-7z"/>
  <path class="fil12" d="M238 98c0,0 -64,-22 -76,-15 -12,8 14,51 34,61 0,0 -1,-17 6,-20 7,-2 13,2 13,2 0,0 -3,-12 7,-13 0,0 1,-15 16,-15z"/>
  <path class="fil9" d="M173 222c0,0 0,5 0,12 -1,8 -1,19 1,32 1,13 4,28 10,43 5,16 12,31 20,47 7,16 15,32 20,48 6,16 9,31 10,45 2,13 0,24 -1,32 0,2 -1,4 -1,5 -1,1 -1,3 -1,4 -1,2 -1,3 -1,3 0,0 0,-1 0,-3 1,-1 1,-3 1,-4 0,-2 0,-3 0,-5 1,-8 1,-19 -1,-32 -2,-13 -7,-27 -12,-42 -6,-16 -14,-31 -21,-47 -8,-16 -15,-33 -20,-49 -5,-16 -7,-31 -8,-45 -1,-13 1,-24 2,-32 1,-8 2,-12 2,-12z"/>
  <path class="fil9" d="M238 520c0,0 1,-3 2,-8 0,-3 1,-6 1,-10 0,-1 1,-3 1,-6 0,-2 1,-4 1,-6 1,-9 1,-20 1,-31 0,-12 -2,-24 -4,-36 -2,-12 -5,-24 -9,-34 -4,-11 -7,-21 -12,-29 -1,-2 -2,-4 -3,-6 -1,-2 -2,-4 -3,-5 -1,-4 -3,-7 -5,-9 -2,-4 -4,-7 -4,-7 0,0 2,2 6,6 1,2 4,5 6,8 1,1 2,3 3,5 2,2 3,3 4,5 5,8 10,18 15,29 4,11 8,23 10,36 2,12 3,25 3,37 0,11 -2,22 -4,32 0,2 -1,4 -1,6 -1,2 -1,4 -2,6 -1,4 -2,7 -3,9 -2,5 -3,8 -3,8z"/>
  <path class="fil9" d="M541 472c0,0 -1,-2 -3,-6 -2,-3 -5,-9 -7,-15 -3,-6 -6,-14 -9,-22 -2,-9 -5,-18 -7,-27 -2,-9 -3,-18 -5,-27 -1,-9 -1,-17 -1,-24 -1,-7 0,-13 0,-17 0,-4 0,-6 0,-6 0,0 0,2 1,6 1,4 2,10 3,17 1,6 3,14 4,23 2,8 4,17 6,26 2,9 4,18 6,27 2,8 4,16 6,22 2,7 3,13 4,17 2,4 2,6 2,6z"/>
  <path class="fil13" d="M308 219c0,0 -1,0 -1,1 -1,1 -3,1 -4,3 -4,2 -8,6 -12,12 -5,5 -9,13 -12,21 -3,8 -5,17 -6,27 -1,9 -1,18 1,27 1,9 2,17 4,24 2,7 4,12 5,16 1,4 2,7 2,7 0,0 -1,-2 -3,-6 -1,-4 -4,-10 -6,-17 -2,-6 -4,-14 -6,-23 -1,-9 -2,-19 -1,-29 1,-10 3,-19 7,-28 3,-8 8,-15 13,-21 5,-5 10,-9 13,-11 2,-1 3,-2 4,-2 1,-1 2,-1 2,-1z"/>
  <path class="fil13" d="M282 287c0,0 0,1 0,3 0,1 0,4 0,6 0,6 0,14 2,24 2,9 6,20 10,31 5,12 10,23 16,35 5,12 10,24 14,36 4,12 5,23 6,33 0,10 -2,18 -3,24 -1,3 -2,5 -2,6 -1,2 -1,2 -1,2 0,0 0,0 1,-2 0,-1 1,-3 1,-6 1,-6 2,-14 1,-24 0,-9 -3,-20 -7,-32 -3,-11 -8,-23 -14,-35 -5,-12 -11,-24 -15,-35 -5,-12 -8,-23 -9,-33 -2,-10 -1,-18 -1,-24 0,-3 1,-5 1,-6 0,-2 0,-3 0,-3z"/>
  <path class="fil13" d="M397 198c0,0 1,1 3,1 2,1 5,2 9,3 7,3 18,8 28,17 10,9 20,22 28,37 7,16 13,33 16,51 3,18 4,36 6,53 1,17 3,32 7,45 2,7 4,12 6,17 2,3 3,5 4,7 1,2 2,4 3,6 2,1 3,3 4,4 1,1 1,2 2,3 2,1 2,2 2,2 0,0 0,-1 -2,-2 -1,-1 -2,-2 -3,-3 -1,-1 -2,-2 -3,-4 -1,-2 -3,-3 -4,-5 -1,-2 -3,-5 -4,-7 -3,-5 -5,-11 -7,-17 -4,-13 -7,-29 -9,-46 -1,-17 -3,-34 -6,-52 -3,-18 -8,-35 -15,-50 -8,-15 -17,-28 -27,-37 -10,-9 -19,-15 -26,-18 -4,-2 -7,-3 -9,-4 -2,0 -3,-1 -3,-1z"/>
  <path class="fil13" d="M371 206c0,0 1,0 2,0 1,0 2,0 4,0 3,1 8,1 14,2 5,2 12,4 18,8 7,3 13,8 18,14 6,6 10,12 13,19 3,7 5,13 6,19 1,6 1,11 0,14 0,2 0,3 0,4 0,1 0,1 0,1 0,0 0,0 0,-1 0,-1 0,-2 0,-4 -1,-3 -1,-8 -3,-13 -1,-6 -3,-12 -6,-19 -3,-6 -7,-12 -13,-18 -5,-5 -10,-10 -16,-13 -7,-4 -13,-7 -18,-9 -5,-1 -10,-2 -13,-3 -2,0 -3,0 -4,0 -1,0 -2,-1 -2,-1z"/>
 </g>
</svg>
