<?xml version="1.0" encoding="UTF-8"?>
<!DOCTYPE svg PUBLIC "-//W3C//DTD SVG 1.1//EN" "http://www.w3.org/Graphics/SVG/1.1/DTD/svg11.dtd">
<!-- Creator: CorelDRAW X7 -->
<svg xmlns="http://www.w3.org/2000/svg" xml:space="preserve" width="2.2372in" height="3.09583in" version="1.1" style="shape-rendering:geometricPrecision; text-rendering:geometricPrecision; image-rendering:optimizeQuality; fill-rule:evenodd; clip-rule:evenodd"
viewBox="0 0 1026 1419"
 xmlns:xlink="http://www.w3.org/1999/xlink">
 <defs>
  <style type="text/css">
   <![CDATA[
    .fil5 {fill:#6DCDAE;fill-rule:nonzero}
    .fil3 {fill:#EBDDD4;fill-rule:nonzero}
    .fil1 {fill:#FF7542;fill-rule:nonzero}
    .fil6 {fill:#FFBD1F;fill-rule:nonzero}
    .fil0 {fill:#FFBFAC;fill-rule:nonzero}
    .fil2 {fill:white;fill-rule:nonzero}
    .fil4 {fill:white;fill-rule:nonzero;fill-opacity:0.501961}
   ]]>
  </style>
 </defs>
 <g id="Objects">
  <metadata id="CorelCorpID_0Corel-Layer"/>
  <path class="fil0" d="M801 95c0,13 -3,156 -3,156 0,0 -47,79 -304,79 -257,0 -307,-69 -307,-69 0,0 0,-153 0,-166 0,-53 138,-95 307,-95 169,0 307,42 307,95z"/>
  <path class="fil1" d="M768 97c0,40 -123,73 -274,73 -151,0 -274,-33 -274,-73 0,-40 123,-72 274,-72 151,0 274,32 274,72z"/>
  <path class="fil1" d="M768 97c0,40 -123,73 -274,73 -151,0 -274,-33 -274,-73 0,-40 123,-72 274,-72 151,0 274,32 274,72z"/>
  <path class="fil2" d="M288 145c50,-16 124,-25 206,-25 82,0 156,9 206,25 -50,15 -124,25 -206,25 -82,0 -156,-10 -206,-25z"/>
  <path class="fil3" d="M302 220c0,20 -17,36 -36,36 -20,0 -37,-16 -37,-36 0,-20 17,-36 37,-36 19,0 36,16 36,36z"/>
  <path class="fil4" d="M281 220c0,14 -11,26 -25,26 -15,0 -26,-12 -26,-26 0,-14 11,-26 26,-26 14,0 25,12 25,26z"/>
  <path class="fil2" d="M265 221c0,8 -7,15 -15,15 -8,0 -15,-7 -15,-15 0,-8 7,-15 15,-15 8,0 15,7 15,15z"/>
  <path class="fil3" d="M447 245c0,20 -16,36 -36,36 -20,0 -36,-16 -36,-36 0,-20 16,-36 36,-36 20,0 36,16 36,36z"/>
  <path class="fil4" d="M436 245c0,14 -11,26 -25,26 -15,0 -26,-12 -26,-26 0,-14 11,-26 26,-26 14,0 25,12 25,26z"/>
  <path class="fil2" d="M420 246c0,8 -7,15 -15,15 -8,0 -15,-7 -15,-15 0,-8 7,-15 15,-15 8,0 15,7 15,15z"/>
  <path class="fil3" d="M686 220c0,20 16,36 36,36 20,0 36,-16 36,-36 0,-20 -16,-36 -36,-36 -20,0 -36,16 -36,36z"/>
  <path class="fil4" d="M707 220c0,14 11,26 25,26 14,0 26,-12 26,-26 0,-14 -12,-26 -26,-26 -14,0 -25,12 -25,26z"/>
  <path class="fil2" d="M723 221c0,8 7,15 15,15 8,0 15,-7 15,-15 0,-8 -7,-15 -15,-15 -8,0 -15,7 -15,15z"/>
  <path class="fil3" d="M536 245c0,20 16,36 36,36 20,0 36,-16 36,-36 0,-20 -16,-36 -36,-36 -20,0 -36,16 -36,36z"/>
  <path class="fil4" d="M551 250c0,14 12,26 26,26 14,0 26,-12 26,-26 0,-14 -12,-26 -26,-26 -14,0 -26,12 -26,26z"/>
  <path class="fil2" d="M563 251c0,8 7,15 15,15 8,0 15,-7 15,-15 0,-8 -7,-15 -15,-15 -8,0 -15,7 -15,15z"/>
  <path class="fil5" d="M1025 742c-2,13 -34,153 -34,153 0,0 -61,68 -313,17 -252,-50 -288,-127 -288,-127 0,0 30,-150 33,-163 10,-51 154,-66 320,-33 166,33 292,102 282,153z"/>
  <path class="fil5" d="M992 738c-8,39 -134,47 -283,17 -148,-29 -262,-85 -254,-124 8,-39 135,-47 283,-18 148,30 262,86 254,125z"/>
  <path class="fil2" d="M512 691c52,-5 126,0 207,16 81,16 151,40 198,64 -53,5 -127,0 -208,-16 -80,-16 -151,-40 -197,-64z"/>
  <path class="fil3" d="M511 767c-4,20 -23,33 -42,29 -20,-4 -33,-23 -29,-43 4,-19 23,-32 43,-28 19,4 32,23 28,42z"/>
  <path class="fil4" d="M491 763c-3,14 -16,23 -30,21 -14,-3 -23,-17 -20,-31 2,-14 16,-23 30,-20 14,3 23,16 20,30z"/>
  <path class="fil2" d="M475 761c-2,8 -10,13 -18,12 -8,-2 -13,-10 -12,-18 2,-8 10,-13 18,-12 8,2 13,10 12,18z"/>
  <path class="fil3" d="M649 820c-4,20 -23,33 -43,29 -20,-4 -32,-23 -28,-43 4,-19 23,-32 42,-28 20,4 32,23 29,42z"/>
  <path class="fil4" d="M638 818c-2,14 -16,23 -30,20 -14,-2 -23,-16 -20,-30 3,-14 16,-23 30,-20 14,3 23,16 20,30z"/>
  <path class="fil2" d="M622 816c-2,8 -9,13 -18,11 -8,-1 -13,-9 -11,-17 1,-8 9,-13 17,-12 8,2 14,10 12,18z"/>
  <path class="fil3" d="M888 842c-4,20 9,39 28,43 20,4 39,-9 43,-28 4,-20 -9,-39 -28,-43 -20,-4 -39,9 -43,28z"/>
  <path class="fil4" d="M908 846c-3,14 6,28 20,31 14,2 28,-7 31,-21 2,-13 -7,-27 -21,-30 -14,-3 -27,7 -30,20z"/>
  <path class="fil2" d="M924 850c-1,8 4,16 12,18 8,2 16,-4 18,-12 1,-8 -4,-16 -12,-17 -8,-2 -16,3 -18,11z"/>
  <path class="fil3" d="M736 838c-4,19 9,38 28,42 20,4 39,-9 43,-28 4,-20 -9,-39 -29,-43 -19,-4 -38,9 -42,29z"/>
  <path class="fil4" d="M750 846c-3,14 6,27 20,30 14,3 28,-6 31,-20 2,-14 -7,-28 -21,-31 -14,-2 -27,7 -30,21z"/>
  <path class="fil2" d="M761 849c-1,8 4,16 12,17 8,2 16,-4 18,-12 1,-8 -4,-16 -12,-17 -8,-2 -16,3 -18,12z"/>
  <path class="fil6" d="M601 1095c3,13 36,160 36,160 0,0 -29,87 -280,141 -251,54 -315,-2 -315,-2 0,0 -39,-157 -41,-169 -11,-51 114,-122 280,-158 165,-36 309,-23 320,28z"/>
  <path class="fil6" d="M569 1104c8,39 -105,97 -252,129 -148,32 -275,26 -283,-13 -9,-39 104,-97 252,-129 148,-32 274,-26 283,13z"/>
  <path class="fil2" d="M152 1253c44,-19 99,-36 160,-50 61,-13 118,-19 165,-20 -44,19 -99,37 -160,50 -61,13 -118,20 -165,20z"/>
  <path class="fil2" d="M106 1305c0,11 -9,21 -21,21 -12,0 -21,-10 -21,-21 0,-12 9,-22 21,-22 12,0 21,10 21,22z"/>
  <path class="fil2" d="M195 1368c0,12 -9,22 -21,22 -12,0 -21,-10 -21,-22 0,-11 9,-21 21,-21 12,0 21,10 21,21z"/>
  <path class="fil2" d="M272 1305c0,11 -10,21 -21,21 -12,0 -22,-10 -22,-21 0,-12 10,-22 22,-22 11,0 21,10 21,22z"/>
  <path class="fil2" d="M380 1343c0,12 -9,21 -21,21 -12,0 -21,-9 -21,-21 0,-12 9,-21 21,-21 12,0 21,9 21,21z"/>
  <path class="fil2" d="M450 1266c0,12 -9,22 -21,22 -12,0 -21,-10 -21,-22 0,-11 9,-21 21,-21 12,0 21,10 21,21z"/>
  <path class="fil2" d="M558 1285c0,12 -9,22 -21,22 -12,0 -21,-10 -21,-22 0,-11 9,-21 21,-21 12,0 21,10 21,21z"/>
  <path class="fil2" d="M590 1190c0,12 -9,21 -21,21 -12,0 -21,-9 -21,-21 0,-12 9,-21 21,-21 12,0 21,9 21,21z"/>
 </g>
</svg>
