<?xml version="1.0" encoding="UTF-8"?>
<!DOCTYPE svg PUBLIC "-//W3C//DTD SVG 1.1//EN" "http://www.w3.org/Graphics/SVG/1.1/DTD/svg11.dtd">
<!-- Creator: CorelDRAW X7 -->
<svg xmlns="http://www.w3.org/2000/svg" xml:space="preserve" width="1.62176in" height="1.54644in" version="1.1" style="shape-rendering:geometricPrecision; text-rendering:geometricPrecision; image-rendering:optimizeQuality; fill-rule:evenodd; clip-rule:evenodd"
viewBox="0 0 70 67"
 xmlns:xlink="http://www.w3.org/1999/xlink">
 <defs>
  <style type="text/css">
   <![CDATA[
    .fil4 {fill:#704C28;fill-rule:nonzero}
    .fil2 {fill:#E95A33;fill-rule:nonzero}
    .fil3 {fill:#F29C1E;fill-rule:nonzero}
    .fil0 {fill:#F37B52;fill-rule:nonzero}
    .fil1 {fill:#FEB63F;fill-rule:nonzero}
   ]]>
  </style>
 </defs>
 <g id="Layer_x0020_1">
  <metadata id="CorelCorpID_0Corel-Layer"/>
  <path class="fil0" d="M69 23c-2,-4 -5,-9 -9,-11 -4,-2 -7,-4 -11,-6 -6,-4 -15,-7 -23,-5 -9,2 -9,6 -9,14 0,0 -1,2 -1,2 1,0 1,0 0,1 -2,0 -4,0 -5,1 -3,1 -6,3 -7,7 0,2 1,5 3,7l4 4c1,-1 3,-4 2,-5 0,0 0,0 1,0 14,2 30,4 39,18 1,1 3,2 5,0 3,-3 8,-6 5,-11 5,-5 9,-10 6,-16zm-10 10l0 0c-3,-3 -7,-5 -11,-7 0,-1 -1,-1 -2,-1 0,-1 -1,-2 -2,-2 0,0 -1,0 -1,1 -2,-2 -5,-3 -7,-4 -4,-2 -9,-4 -13,-2 0,0 0,0 0,-1 0,-5 0,-12 6,-12 5,0 13,4 18,7 2,1 5,3 7,4 0,1 3,3 3,3 5,4 4,9 2,14z"/>
  <path class="fil0" d="M11 37l0 0c-1,0 -1,1 0,0z"/>
  <path class="fil1" d="M52 47c0,0 0,-1 0,-1 0,0 0,-1 0,-1 -2,-2 -4,-4 -6,-6 -2,-1 -4,-3 -7,-3 0,0 0,0 0,0 0,0 0,-1 -1,-1 -2,-1 -4,-2 -7,-3 -3,-1 -6,-2 -10,-2 -2,0 -5,0 -7,1 0,1 -1,1 -1,2 0,0 0,1 -1,1 -1,2 -2,3 -3,5 -3,3 -4,6 -7,9 -2,1 -2,4 0,5 4,1 7,4 11,6 3,2 7,5 11,5 4,1 8,3 12,3 4,0 9,-2 12,-1 2,1 4,0 4,-2 -1,-5 -1,-10 0,-15 0,-1 0,-1 0,-2z"/>
  <path class="fil2" d="M62 39c0,0 0,-1 -1,-1 0,0 0,-1 0,-1 -2,-2 -3,-3 -5,-5 -1,0 -1,0 -2,0 0,0 -1,0 -2,0 -1,0 -3,1 -2,3 1,2 2,3 3,5 1,2 2,3 3,5 0,0 0,0 0,0 0,-1 -1,-2 0,0 -1,-2 -1,-1 -2,-2 0,-1 -1,-2 -1,-3 0,0 -1,-1 -1,-1 -2,-1 -3,-2 -4,-3 0,0 -1,0 -1,0 0,-1 -1,-2 -2,-2 -4,-3 -8,-4 -12,-4 -1,-1 -1,-1 -2,-1 0,0 0,0 0,0 0,-1 -1,-1 -1,-1 0,0 0,0 0,0 -1,0 -1,0 -1,0 -1,0 -1,0 -2,1 -5,-1 -11,-2 -17,-3 0,0 0,0 0,0 0,0 -1,0 -1,0 0,0 0,0 0,0 0,0 0,0 0,0 0,0 0,0 0,0 -1,0 -1,0 -2,0 0,0 0,0 0,0 -2,0 -2,2 -1,3 0,0 0,1 0,2 0,0 0,0 0,1 1,2 3,3 5,4 1,0 1,-1 2,-1 0,-1 1,-2 1,-2 0,-1 1,-1 0,-2 1,0 1,-1 1,-1 4,1 8,0 12,1 0,0 1,0 1,1 0,0 1,0 1,0 0,0 0,0 0,0 0,0 1,0 1,0 0,0 0,0 1,0 2,1 2,1 5,2 0,0 3,1 3,1 3,1 6,4 8,6 3,3 3,1 4,4 1,1 3,6 4,6 1,1 4,0 3,-2 0,0 0,0 0,-1 1,0 1,0 1,0 1,0 1,-1 1,-1 0,0 1,0 1,-1 0,0 0,0 0,0 2,-2 3,-5 1,-7z"/>
  <path class="fil2" d="M69 28c0,-1 0,-4 -1,-5 0,0 0,0 -1,0 0,-2 0,-3 -1,-4 0,-1 -1,-1 -1,-1 0,0 0,-1 -1,-1 0,-1 -1,-1 -3,-3 0,-1 -2,-2 -2,-1 -2,-2 -5,-3 -7,-5 -3,-1 -5,-2 -8,-4 0,0 -1,0 -1,0 -3,-1 -5,-1 -8,-1 0,0 -1,0 -1,0 0,0 -1,0 -1,0 -3,0 -5,2 -3,2 1,0 4,2 5,2 2,0 3,1 4,1 0,1 1,1 1,2 3,1 5,1 6,3 1,0 2,0 3,-1 0,1 1,1 1,1 1,1 1,1 1,1 -1,1 1,0 1,0 3,3 5,5 8,7 0,2 0,4 1,7 0,0 0,0 0,0 0,1 0,1 0,2 0,0 0,0 0,0 0,0 0,0 0,0 0,1 0,1 0,1 0,0 0,0 0,0 0,1 -1,1 -1,2 0,0 0,0 0,1 0,0 0,0 0,0 0,1 1,2 1,2 1,1 2,3 3,2 0,0 1,-1 2,-1 2,-2 3,-5 3,-7 0,-1 0,-1 0,-2z"/>
  <path class="fil2" d="M22 9c0,-2 -2,-3 -3,-1 -1,1 -2,3 -2,5 0,1 0,1 0,1 0,0 0,1 0,1 -1,1 0,2 2,2 1,0 2,-1 3,-2 0,0 0,-1 0,-2 0,-1 0,-3 0,-4z"/>
  <path class="fil3" d="M51 45c-1,-2 -3,-3 -4,-4 0,0 0,0 0,0l-1 -1c0,-1 -1,-1 -2,-1 0,0 0,0 -1,-1 0,0 0,0 0,0 0,0 0,0 0,0 0,-1 -1,-1 -2,-1 -1,0 -2,0 -2,1 0,1 0,1 0,2 0,0 0,1 0,1 0,0 0,0 0,0 -1,2 -1,4 -1,5 0,1 0,1 0,2l0 2c0,2 -1,3 -1,5 0,0 0,0 0,0 0,-4 1,-8 1,-11 0,-1 0,-1 0,-2 0,-1 0,-2 0,-4 1,-2 -3,-2 -3,0 -1,5 -2,10 -2,16 0,0 0,0 0,0 -1,-1 -2,-1 -4,-2 0,0 0,0 0,0 1,-4 2,-9 3,-13 0,-3 -3,-3 -4,-1 -1,5 -2,10 -3,15 0,0 -1,0 -1,0 -1,0 -1,-1 -2,-1 0,0 0,-1 0,-1 2,-4 4,-8 5,-12 1,-3 -2,-4 -3,-2 -2,4 -4,9 -5,13 0,0 0,0 0,0 -1,0 -2,0 -2,0 0,0 -1,0 -1,1 -1,1 -1,1 -1,2 -1,1 0,2 1,2 0,0 0,1 0,1 -1,0 -1,0 -1,0 -2,-1 -3,2 -1,3 5,2 10,5 15,7 4,1 7,1 10,0 1,0 1,0 1,0 3,-1 6,0 9,0 1,-1 2,-2 1,-3 0,-1 0,-1 0,-1 0,0 0,0 0,-1 0,-5 0,-9 1,-14 0,0 0,0 0,0 0,-1 0,-2 0,-2zm-9 14l0 0c0,0 0,0 0,0 0,-1 0,-1 0,-1 0,0 0,0 0,0 -1,0 -1,-1 -1,-1 0,-2 0,-4 1,-6 0,-3 0,-5 1,-7 0,0 0,0 0,0 0,1 0,1 0,2 0,0 0,0 0,0 0,0 0,0 0,0 0,2 0,3 0,4 0,1 0,1 0,1 0,3 0,5 -1,8z"/>
  <path class="fil4" d="M51 55c0,-3 0,-5 0,-8 0,0 0,-1 0,-1 0,-1 0,-1 1,-1 0,0 0,0 0,1 0,0 0,0 0,1 1,2 2,3 4,3 1,0 2,0 2,0 0,-1 0,-1 0,-2 -4,-5 -8,-11 -14,-15 -4,-2 -8,-3 -13,-4 -7,-1 -13,-2 -20,-3 -1,0 -2,0 -4,0 -1,0 -1,0 -1,2 0,2 1,3 2,5 3,4 2,3 5,0 0,-1 1,-2 1,-3 1,0 1,-1 1,0 1,0 0,0 0,1 0,1 -1,2 -1,3 -3,4 -7,9 -11,13 0,1 -1,2 -2,3 0,0 0,1 -1,0 0,0 0,0 0,0 1,-2 1,-2 2,-3 2,-3 5,-6 7,-9 1,-1 1,-2 0,-2 -2,-2 -3,-4 -4,-6 -1,-3 -1,-5 0,-7 2,-4 5,-6 9,-6 2,0 2,0 2,-2 0,-4 1,-7 3,-11 0,-2 2,-3 4,-4 6,-1 11,1 16,2 10,2 19,7 26,14 1,1 2,3 3,4 3,5 3,14 -2,18 -1,0 -1,1 -2,3 0,4 -2,7 -4,9 -2,2 -4,2 -6,1 -1,-1 -1,0 -1,1 0,4 0,8 0,12 0,0 0,1 -1,1 -1,0 -1,-1 -1,-1 0,-3 0,-6 0,-9 0,0 0,0 0,0zm-28 -37l0 0c-4,0 -8,0 -12,1 -1,0 -2,0 -2,1 -1,1 -2,3 -3,4 0,1 0,1 1,1 2,0 3,0 5,0 7,1 15,2 22,4 8,1 14,4 18,10 3,3 5,5 7,9 0,0 0,1 1,0 1,-2 2,-4 3,-6 0,-1 0,-2 -1,-3 -2,-2 -4,-4 -6,-6 -6,-6 -14,-10 -23,-13 -3,-1 -6,-2 -10,-2zm37 10l0 0c0,-3 0,-5 -3,-8 -2,-2 -5,-4 -8,-6 -6,-3 -12,-6 -19,-8 -2,-1 -2,-1 -4,1 -2,2 -3,5 -3,8 0,1 0,1 1,1 1,0 2,0 3,1 8,1 15,4 22,8 3,2 6,4 8,7 1,1 2,1 2,-1 1,-1 1,-2 1,-3zm-29 -24l0 0c2,1 4,1 6,2 3,2 6,3 9,5 5,2 9,5 13,8 2,3 4,9 2,13 -1,2 -1,3 0,4 1,0 1,1 1,1 1,1 1,1 2,0 6,-4 6,-13 2,-17 -1,-1 -2,-3 -3,-3 -3,-3 -6,-5 -9,-7 -4,-3 -9,-5 -14,-6 -3,-2 -6,0 -9,0zm0 -2l0 0c-2,0 -5,0 -8,0 -1,0 -3,1 -3,3 -1,2 -1,4 -2,6 0,1 -1,3 -1,5 0,0 0,0 1,1 1,0 2,0 3,-1 1,0 1,-1 1,-2 0,-5 4,-10 9,-12 0,0 0,0 0,0z"/>
  <path class="fil4" d="M20 30c7,-2 26,6 29,12 -1,0 -1,0 -1,0 -7,-7 -15,-10 -25,-11 -1,0 -2,0 -3,-1z"/>
  <path class="fil4" d="M25 51c0,-1 0,-1 0,-2 2,-4 3,-8 4,-12 0,0 0,-1 1,-1 0,1 0,1 0,1 -1,4 -2,8 -4,13 0,0 0,1 -1,1z"/>
  <path class="fil4" d="M39 44c0,4 -1,8 -1,11 0,1 0,2 -1,2 0,0 0,-1 0,-2 0,-2 0,-5 1,-8 0,-2 0,-3 0,-5 0,-1 0,-2 1,-1 0,0 0,0 0,1 0,0 0,1 0,2z"/>
  <path class="fil4" d="M44 49c0,3 -1,6 -1,9 0,1 0,1 0,1 -1,0 -1,0 -1,-1 0,-4 0,-8 1,-12 0,-1 0,-1 0,-1 1,0 1,1 1,1 0,1 0,2 0,3 0,0 0,0 0,0z"/>
  <path class="fil4" d="M19 52c1,-6 3,-10 6,-15 0,0 0,-1 0,0 1,0 1,0 0,0 -2,5 -3,10 -6,15z"/>
  <path class="fil4" d="M33 42c1,2 0,4 0,6 0,2 0,5 -1,8 0,0 0,1 0,1 -1,0 -1,-1 -1,-1 0,-3 1,-6 1,-9 1,-2 1,-3 1,-5z"/>
  <path class="fil4" d="M21 37c-2,4 -4,9 -7,14 2,-5 4,-10 7,-14z"/>
  <path class="fil4" d="M23 62c-1,0 -1,0 -1,0 0,1 0,2 -1,2 0,0 0,0 0,0 0,-1 -1,-3 1,-3 2,-1 2,-1 2,1 0,1 0,2 0,3 0,1 0,1 0,1 -1,0 -1,0 -1,-1 0,0 0,-1 0,-1 0,-1 0,-1 0,-2z"/>
  <path class="fil4" d="M8 49c2,-5 6,-9 9,-14 -2,5 -6,10 -9,14z"/>
  <path class="fil4" d="M47 56c0,-1 0,-2 0,-3 -1,-2 -1,-5 -1,-7 0,0 0,0 0,-1 1,0 1,1 1,1 0,3 1,6 0,10z"/>
  <path class="fil4" d="M26 64c0,-1 0,-1 1,-1 0,0 1,0 1,1 0,0 0,1 0,2 0,0 0,1 0,1 -1,0 -1,0 -1,-1 -1,0 -1,-1 -1,-2z"/>
  <path class="fil4" d="M31 64c0,1 0,2 -1,2 0,0 0,-1 0,-1 0,-1 0,-2 1,-2 0,0 0,1 0,1z"/>
  <path class="fil4" d="M12 56c0,1 0,1 -1,2 0,0 0,1 0,1 -1,-1 -1,-1 -1,-1 1,-1 1,-2 1,-3 0,0 0,0 1,0 0,0 0,1 0,1z"/>
  <path class="fil4" d="M19 59c-1,1 0,2 -1,2 -1,0 -1,-1 -1,-2 1,0 0,-1 1,-1 1,0 1,1 1,1z"/>
  <path class="fil4" d="M34 66c0,0 0,1 0,1 -1,0 -1,-1 -2,-2 0,-1 1,-1 1,-1 1,0 1,1 1,2z"/>
  <path class="fil4" d="M46 67c-1,-1 -1,-1 -1,-2 0,-1 0,-1 0,-1 1,0 1,1 2,2 0,0 0,0 -1,1z"/>
  <path class="fil4" d="M15 58c0,0 0,-1 1,-1 0,0 0,0 0,1 0,1 0,2 -1,2 0,0 0,-1 0,-2z"/>
  <path class="fil4" d="M49 64c0,0 1,1 1,2 0,0 0,0 -1,0 0,0 -1,0 -1,-1 0,0 0,-1 1,-1z"/>
  <path class="fil4" d="M36 67c0,0 -1,-1 -1,-1 0,-1 0,-1 1,-1 0,0 1,1 1,1 0,0 0,1 -1,1z"/>
  <path class="fil4" d="M8 55c-1,1 0,2 -1,2 -1,0 0,-1 0,-1 0,-1 0,-1 0,-1 1,0 1,0 1,0z"/>
  <path class="fil4" d="M6 52c0,1 0,1 0,1 -1,1 0,1 -1,1 0,1 0,0 0,0 -1,0 0,-1 0,-1 0,0 0,-1 1,-1z"/>
  <path class="fil4" d="M43 65c0,0 0,0 0,0 -1,0 -1,0 -1,0 0,-1 0,-1 1,-1 0,0 0,0 0,1z"/>
  <path class="fil4" d="M39 65c1,0 1,0 1,1 0,0 0,0 0,0 -1,0 -1,0 -1,-1 0,0 0,0 0,0z"/>
  <path class="fil3" d="M19 36c-3,6 -6,12 -10,18 -1,2 2,4 3,2 0,0 1,-1 1,-1 0,0 0,0 1,0 0,0 0,0 0,0 1,1 1,1 2,1 1,0 2,-1 2,-2 0,-1 0,-2 1,-3 0,-2 -1,-3 -2,-3 2,-3 4,-7 6,-11 1,-2 -2,-3 -4,-1z"/>
 </g>
</svg>
