<?xml version="1.0" encoding="UTF-8"?>
<!DOCTYPE svg PUBLIC "-//W3C//DTD SVG 1.1//EN" "http://www.w3.org/Graphics/SVG/1.1/DTD/svg11.dtd">
<!-- Creator: CorelDRAW X7 -->
<svg xmlns="http://www.w3.org/2000/svg" xml:space="preserve" width="3.5408in" height="3.16989in" version="1.1" style="shape-rendering:geometricPrecision; text-rendering:geometricPrecision; image-rendering:optimizeQuality; fill-rule:evenodd; clip-rule:evenodd"
viewBox="0 0 466 417"
 xmlns:xlink="http://www.w3.org/1999/xlink">
 <defs>
  <style type="text/css">
   <![CDATA[
    .fil3 {fill:#704C28;fill-rule:nonzero}
    .fil5 {fill:#D17C16;fill-rule:nonzero}
    .fil1 {fill:#E95A33;fill-rule:nonzero}
    .fil2 {fill:#F37B52;fill-rule:nonzero}
    .fil6 {fill:#F6A184;fill-rule:nonzero}
    .fil0 {fill:#FEB63F;fill-rule:nonzero}
    .fil4 {fill:#FED180;fill-rule:nonzero}
   ]]>
  </style>
 </defs>
 <g id="Layer_x0020_1">
  <metadata id="CorelCorpID_0Corel-Layer"/>
  <path class="fil0" d="M359 392c0,-2 -1,-4 -3,-6 0,0 0,0 0,0 0,0 0,-1 0,-1 -1,-3 -4,-5 -7,-6 0,-4 1,-17 -5,-17 -4,0 -9,12 -9,15 -5,0 -11,1 -14,5 -3,2 -4,6 -4,9 -1,2 -1,3 -1,5 0,1 0,3 1,4 0,1 0,2 0,2 -1,3 1,8 4,9 4,2 7,2 11,2 2,0 4,0 6,0 1,0 1,0 1,0 4,1 7,0 10,-2 7,-2 13,-11 10,-19z"/>
  <path class="fil1" d="M461 326c-1,0 -2,-1 -3,-1 -1,-1 -3,-2 -4,-3 -2,-2 -4,-4 -7,-6 -1,-1 -2,-1 -3,-1 -2,-2 -4,-3 -7,-4 -5,-4 -11,-6 -17,-8 -9,-7 -20,-9 -32,-10 0,-3 -1,-5 -4,-5 -17,-1 -26,-4 -42,0 -1,1 -8,3 -9,3 -3,0 -5,0 -7,1 -9,1 -13,4 -20,11 -2,3 -4,9 -2,11 0,0 -1,1 -1,2 -1,6 -1,13 0,19 0,2 1,4 3,4 0,1 -2,3 -2,3 0,1 0,1 0,1 0,2 1,3 2,4 3,5 9,7 14,10 1,1 2,2 4,3 0,1 0,1 0,1 1,4 5,6 9,6 3,0 6,-1 9,-2 2,-1 3,-1 4,-2 0,1 1,1 2,2 0,0 -1,5 -1,6 3,6 8,3 15,4 8,1 12,1 20,1 17,1 47,3 74,-13 2,0 3,-2 4,-4 0,-5 0,-10 1,-14 0,0 0,0 0,0 2,-1 -1,-7 1,-9 1,-2 5,-8 -1,-10zm-62 20l0 0c-1,-1 -2,-2 -4,-2 -26,-4 -53,-9 -74,-24 0,-1 1,-1 2,-2 1,0 3,-1 5,-2 0,0 0,0 0,0 41,-18 84,2 119,25 -13,3 -27,6 -40,7 -3,-1 -6,-2 -8,-2z"/>
  <path class="fil2" d="M410 348c-5,0 -10,0 -15,0 -1,-1 -2,-1 -3,-1 -5,0 -10,-1 -15,-1 -3,-1 -5,-2 -8,-2 -1,0 -2,0 -2,0 -7,-2 -14,-5 -21,-7 -3,-1 -8,-2 -13,-3 1,-2 0,-4 -3,-5 -2,-1 -4,-2 -6,-2 -4,-4 -8,-8 -12,-12 -3,-3 -9,1 -9,5 1,1 1,2 1,3 -1,1 -1,3 0,4 0,1 0,2 0,3 0,3 0,5 0,8 0,3 2,4 4,5 1,0 1,1 1,2 1,1 2,2 3,3 1,1 2,2 3,2 0,0 0,0 0,0 2,4 4,6 7,8 1,1 3,2 4,3 0,0 1,0 2,0 0,3 2,4 4,5 3,0 6,-1 8,-3 2,-2 4,-3 6,-4 1,4 1,7 3,10 1,3 4,5 7,4 2,1 5,0 8,0 1,0 2,1 3,1 7,1 13,-2 20,-5 8,-4 17,-7 25,-11 6,-2 4,-10 -2,-10z"/>
  <path class="fil3" d="M353 376c2,1 2,2 2,2 7,4 11,10 9,18 -1,8 -5,15 -13,18 -8,3 -16,3 -24,2 -12,-2 -18,-14 -14,-28 2,-9 8,-14 19,-14 2,0 3,0 3,-2 1,-2 0,-3 -2,-4 -9,-3 -16,-10 -23,-16 -2,-2 -5,-2 -7,-5 -2,-4 -3,-7 -2,-11 1,-11 1,-21 2,-31 0,-1 -1,-2 0,-3 6,-4 10,-9 17,-11 14,-4 26,-7 40,-6 23,1 46,6 67,16 11,6 22,12 32,19 5,4 7,8 6,14 -2,10 -4,21 -5,31 0,2 0,3 -2,3 -21,7 -42,11 -64,10 -13,0 -26,0 -41,-2zm34 -3l0 0c5,0 10,0 15,0 18,0 35,-3 51,-9 2,-1 4,-1 5,-4 0,-5 1,-11 2,-16 0,-3 -1,-3 -3,-3 -3,1 -6,2 -10,3 -25,4 -51,5 -77,0 -22,-4 -42,-14 -60,-29 -1,0 -2,-1 -3,-1 -1,0 0,1 0,2 -1,8 -1,16 -1,24 0,2 0,3 1,4 9,7 16,14 26,19 3,1 5,2 7,-1 1,-3 4,-4 7,-3 3,1 3,4 3,7 0,0 0,1 0,1 -2,4 0,5 3,5 11,1 23,1 34,1zm-31 -83l0 0c-14,-2 -27,4 -40,7 -2,0 -4,2 -6,4 -3,2 -3,5 -1,7 2,3 5,5 8,8 2,2 5,2 9,1 20,-10 41,-12 63,-7 20,6 37,16 55,26 3,2 13,2 16,-1 1,0 1,-1 1,-2 2,-4 -1,-6 -4,-8 -9,-7 -20,-13 -30,-18 -22,-11 -46,-16 -71,-17zm53 52l0 0c9,0 18,0 27,-1 1,0 2,0 2,-1 1,-2 -1,-2 -1,-3 -17,-10 -34,-19 -53,-23 -19,-4 -38,-2 -56,5 -1,0 -3,0 -3,2 0,1 2,1 2,1 10,5 20,11 30,14 17,5 34,6 52,6zm-75 69l0 0c7,0 12,-1 16,-3 5,-2 9,-9 9,-15 -1,-7 -5,-9 -10,-11 -3,-2 -5,-1 -6,2 -1,2 -2,5 -5,4 -3,0 -3,-3 -4,-5 0,-6 0,-6 -5,-4 -1,0 -2,0 -2,0 -7,2 -10,7 -10,15 -1,8 2,13 8,16 3,1 6,1 9,1zm6 -33l0 0c2,-3 4,-7 5,-11 0,-1 0,-1 -1,-1 0,-1 -1,0 -1,0 -1,4 -4,7 -3,12z"/>
  <path class="fil2" d="M55 165c0,0 0,-12 -2,-10 3,-4 2,-7 -1,-10 -3,-3 -6,-3 -9,-3 -2,-2 4,-5 1,-6 -6,-1 -19,3 -24,2 -2,0 -7,1 -7,4 0,0 -5,3 -5,4 -1,2 -1,3 -2,4 -1,1 -2,3 -2,5 0,1 0,1 0,2 -1,1 -1,3 -1,4 0,0 0,1 0,1 -3,2 -3,5 -1,8 0,0 0,0 0,1 -1,3 1,7 5,8 0,1 0,1 0,2 1,4 3,9 7,11 3,3 7,2 9,0 4,1 9,-1 11,-6 0,-1 0,-2 0,-2 2,3 5,5 9,5 3,0 5,-1 7,-3 4,-1 5,-5 4,-9 1,-4 1,-8 1,-12z"/>
  <path class="fil4" d="M239 30l1 -18c-1,-1 -2,-2 -3,-3l-10 -6c-2,0 -4,0 -6,0l-152 2 -7 31 35 2 -1 336 -26 4 -2 19c32,6 82,6 137,6l20 -12 -1 -16 -27 -2 3 -335 39 -8z"/>
  <path class="fil5" d="M234 6c-1,-1 -2,-1 -3,-1 -1,-1 -1,-2 -2,-2 -3,0 -7,0 -11,-1 0,1 0,1 0,2 -3,0 -5,0 -7,0 -1,-1 -3,-2 -5,-2 -19,2 -37,2 -56,2 -17,0 -35,-5 -52,-2 -2,1 -4,2 -5,3 -7,0 -13,-1 -20,-1 -4,0 -7,2 -8,6 -2,7 -3,14 -3,21 1,5 7,8 12,5 2,0 4,-1 5,-3 12,-2 23,-3 35,-4 5,-1 10,-1 15,-2 2,1 4,2 6,2 15,-1 30,-3 46,-1 6,0 12,1 17,2 0,4 4,9 10,7 5,-1 9,-2 14,-4 2,2 6,1 8,-2 2,1 4,1 6,0 1,0 2,-1 3,-1 0,-1 0,-1 1,-2 0,-3 0,-5 1,-8l0 -5c0,-1 0,-1 0,-2 -2,-2 -5,-4 -7,-7z"/>
  <path class="fil5" d="M224 381c-9,-7 -17,-7 -27,-3 0,1 -1,1 -2,1 -11,-3 -22,-1 -33,0 -10,1 -21,1 -31,1 -3,0 -6,0 -10,0 -5,-1 -10,-1 -16,-2 -9,-2 -18,-3 -27,0 -4,-3 -10,-2 -11,5 -1,2 -1,4 -1,6 0,0 0,0 0,1 0,0 0,1 0,2 -1,4 2,8 6,8 12,3 24,3 36,3 12,0 24,-4 36,-4 6,0 12,2 17,1 7,0 13,-1 19,0 7,0 14,1 20,0 2,1 5,2 7,1 1,-1 11,-7 9,-8 7,3 14,-7 8,-12z"/>
  <path class="fil6" d="M18 169c1,0 1,0 1,-1 2,-6 5,-12 7,-18 1,-1 0,-3 -1,-4 0,0 0,0 0,0 3,-3 -1,-7 -5,-5 -3,2 -8,5 -11,9 -2,2 1,1 -3,5 -1,2 -2,3 -3,5 -2,2 0,4 2,5 -1,1 -1,1 -1,2 0,1 -1,1 -1,2 0,1 0,2 0,3 1,2 4,3 6,2 0,1 1,2 2,3 0,2 1,4 2,7 2,3 7,2 7,-2 0,-3 -1,-5 -2,-7 0,-1 0,-2 0,-4 0,0 0,-1 0,-1 0,-1 0,-1 0,-1z"/>
  <path class="fil1" d="M52 180c0,0 1,-1 1,-1 0,0 0,0 0,0 3,-5 3,-12 3,-17 0,-3 -2,-4 -4,-5 0,-1 -1,-2 -3,-2 -10,-4 -16,9 -16,18 -5,1 -9,5 -11,10 -3,6 6,10 9,5 1,0 1,0 1,0 4,-1 7,-2 11,-4 2,0 6,-1 8,-3 0,0 1,0 1,-1 0,0 0,0 0,0z"/>
  <path class="fil3" d="M60 26c-6,11 -10,22 -14,33 -8,24 -12,49 -15,75 0,2 0,5 -1,8 0,1 1,3 -1,2 -2,0 -1,-1 -1,-2 -1,-17 2,-34 5,-50 5,-27 14,-52 27,-75 2,-3 4,-6 3,-11 -1,-2 2,-4 5,-4 5,1 10,0 15,0 34,-2 67,-2 100,-1 13,0 25,0 38,0 3,0 5,-2 8,-1 6,2 8,8 13,10 1,0 1,1 1,2 -3,3 -1,6 -1,9 1,4 -1,8 -3,12 -1,2 -2,2 -4,3 -10,0 -19,2 -28,2 -5,-1 -6,1 -6,5 0,16 0,32 0,48 0,91 0,181 0,271 0,7 0,7 7,8 4,1 8,2 13,4 3,1 6,-1 9,1 1,1 2,1 2,3 0,1 -1,2 -2,2 -3,1 -3,3 -2,6 0,5 -1,9 -7,10 -4,1 -7,4 -11,6 -2,1 -6,1 -10,1 -5,0 -9,0 -14,0 -21,-1 -43,1 -64,1 -15,0 -30,-1 -45,-3 -2,0 -4,-1 -7,-1 -2,-1 -3,-2 -3,-4 -1,-6 -1,-11 0,-16 0,-3 2,-4 5,-5 7,0 14,-3 21,-3 2,0 2,-2 2,-4 0,-6 0,-12 0,-18 0,-91 0,-182 -1,-273 0,-11 1,-22 1,-32 0,-4 -1,-5 -5,-6 -7,0 -14,-1 -22,-2 -1,0 -2,1 -2,0 0,-2 1,-2 2,-3 2,0 4,-1 6,-1 35,-9 71,-10 107,-7 11,1 23,1 35,1 6,-1 12,1 19,1 2,0 4,-1 3,-4 0,-1 0,-3 0,-4 2,-9 -4,-12 -10,-16 -2,-1 -4,-1 -4,3 0,3 1,7 0,10 0,3 2,6 -2,6 -2,0 -1,-3 -1,-6 -1,-3 0,-6 0,-9 0,-3 -1,-3 -4,-3 -16,-1 -31,1 -47,1 -22,0 -45,0 -68,0 -9,0 -19,1 -28,1 -3,0 -5,1 -6,4 -2,5 -2,11 -3,16 0,2 1,4 -1,4 -2,1 -2,-2 -3,-3 0,-1 0,-1 -1,-2zm134 349l0 0c0,-2 -4,-3 -1,-4 4,-2 4,-4 4,-7 0,-76 0,-151 0,-227 0,-31 0,-62 0,-93 0,-4 -2,-5 -5,-4 -6,2 -11,4 -17,7 -24,11 -47,22 -67,41 0,0 -1,1 -2,1 0,-2 2,-4 3,-5 14,-15 31,-24 49,-33 12,-6 23,-12 36,-13 2,0 3,-1 3,-3 0,-2 -1,-3 -3,-3 -7,0 -14,-1 -21,-1 -23,-2 -47,-2 -70,1 -3,1 -4,2 -4,5 0,7 0,14 0,20 0,2 0,3 1,4 2,0 3,-1 4,-2 9,-8 20,-15 31,-21 3,-1 6,-3 10,-3 0,1 -1,1 -1,1 -1,1 -2,1 -3,2 -13,7 -26,15 -38,25 -2,2 -4,4 -4,7 0,93 0,186 0,279 0,9 1,17 -1,26 32,0 64,0 96,0zm-115 5l0 0c-3,0 -5,0 -7,0 -1,0 -2,1 -2,3 0,4 0,8 0,12 0,1 1,2 3,2 10,0 20,0 29,2 5,1 10,0 15,0 22,0 44,-1 66,-1 7,0 14,0 20,2 3,1 4,0 3,-3 0,-4 -1,-8 -1,-12 0,-3 -2,-5 -5,-5 -33,0 -66,0 -99,0 -4,0 -9,2 -13,1 -3,-1 -7,-1 -9,-1zm145 6l0 0c1,-4 -1,-6 -5,-5 -2,0 -3,0 -5,0 -6,-1 -6,-1 -5,6 1,10 1,10 11,5 3,-1 5,-3 4,-6zm-10 -352l0 0c-4,-1 -7,-1 -10,-2 -2,0 -3,1 -3,2 1,2 2,2 3,2 3,-1 6,-1 10,-2z"/>
  <path class="fil3" d="M38 134c2,0 4,0 6,2 3,3 5,6 9,8 2,1 1,3 1,5 -1,2 0,4 2,5 3,2 3,5 2,8 -2,3 -2,6 -2,10 0,1 -1,2 -2,4 0,1 -2,2 -3,1 -2,-1 -1,-2 0,-3 0,-2 1,-3 0,-4 -1,-3 0,-6 2,-8 2,-3 2,-5 -2,-6 -3,-1 -5,-2 -2,-6 1,-2 1,-3 -2,-4 -2,0 -3,-2 -3,-3 -1,-3 -3,-5 -7,-5 -1,0 -4,1 -4,-2 0,-2 3,-2 5,-2z"/>
  <path class="fil3" d="M42 189c-1,0 -2,0 -4,0 -3,-1 -5,-1 -5,2 -1,2 -2,3 -3,3 -4,1 -10,-1 -12,-5 -1,-1 -1,-3 0,-4 1,0 2,1 3,1 1,1 2,2 2,2 4,3 6,2 7,-2 0,-3 2,-4 4,-3 5,2 10,4 14,-1 1,-2 2,0 2,1 0,4 -2,7 -8,6z"/>
  <path class="fil3" d="M7 148c0,0 1,-1 2,-1 1,0 2,0 2,1 0,1 -1,2 -1,2 -2,1 -4,2 -5,5 0,1 -3,4 2,4 3,-1 2,1 1,3 -3,2 -5,6 -3,10 0,1 0,2 -1,2 -1,0 -2,0 -3,-1 -2,-3 -1,-7 0,-10 1,-2 2,-3 1,-5 -1,-5 2,-7 5,-11l0 1z"/>
  <path class="fil3" d="M14 194c-4,0 -6,-3 -7,-6 -2,-4 -1,-9 0,-14 0,-1 0,-2 2,-1 1,0 1,1 1,1 0,3 0,5 0,8 0,4 2,7 5,9 1,0 3,0 2,2 0,1 -2,1 -3,1z"/>
  <path class="fil3" d="M7 147c-3,-3 0,-4 2,-4 3,-1 7,0 6,-6 0,-1 2,-2 3,-1 2,0 4,1 6,3 -2,1 -4,-1 -6,0 3,4 1,4 -3,5 -3,0 -7,0 -8,4 0,0 0,-1 0,-1z"/>
  <path class="fil3" d="M185 182c-2,1 -4,3 -6,4 -23,16 -44,33 -63,54 -2,3 -4,6 -7,9 0,0 -1,1 -2,1 0,-1 0,-2 0,-2 1,-2 2,-3 3,-4 6,-11 15,-20 24,-28 15,-12 29,-24 46,-33 1,-1 3,-1 4,-2 0,0 0,0 1,1z"/>
  <path class="fil3" d="M108 206c4,-15 58,-59 74,-61 -27,18 -53,36 -74,61z"/>
  <path class="fil3" d="M184 104c-14,9 -28,18 -41,28 -13,10 -25,21 -35,34 -1,-3 1,-5 2,-7 9,-12 20,-21 31,-30 11,-8 22,-15 33,-21 3,-2 7,-4 10,-4z"/>
  <path class="fil3" d="M162 236c-8,7 -15,13 -22,20 -9,9 -18,19 -25,30 -1,1 -2,3 -3,4 -1,1 -1,4 -2,3 -2,-1 -1,-3 0,-4 3,-7 7,-13 12,-19 9,-11 19,-20 30,-29 2,-2 6,-4 10,-5z"/>
  <path class="fil3" d="M177 73c-23,16 -45,31 -65,50 1,-9 53,-48 65,-50z"/>
  <path class="fil3" d="M181 308c-4,4 -8,7 -13,10 -11,9 -22,19 -31,31 -2,1 -3,4 -5,3 -2,-1 1,-4 2,-5 11,-15 26,-27 41,-38 2,-1 3,-2 6,-1z"/>
  <path class="fil3" d="M179 270c-8,7 -16,14 -25,21 -10,9 -20,20 -29,31 0,1 -1,2 -1,2 -1,1 -1,1 -2,1 -1,-1 -1,-2 0,-2 0,-1 0,-1 1,-2 14,-20 32,-36 53,-50 1,0 2,-1 3,-1 0,0 0,0 0,0z"/>
 </g>
</svg>
