<?xml version="1.0" encoding="UTF-8"?>
<!DOCTYPE svg PUBLIC "-//W3C//DTD SVG 1.1//EN" "http://www.w3.org/Graphics/SVG/1.1/DTD/svg11.dtd">
<!-- Creator: CorelDRAW X7 -->
<svg xmlns="http://www.w3.org/2000/svg" xml:space="preserve" width="1.87568in" height="1.46546in" version="1.1" style="shape-rendering:geometricPrecision; text-rendering:geometricPrecision; image-rendering:optimizeQuality; fill-rule:evenodd; clip-rule:evenodd"
viewBox="0 0 389 304"
 xmlns:xlink="http://www.w3.org/1999/xlink">
 <defs>
  <style type="text/css">
   <![CDATA[
    .fil1 {fill:#34A090;fill-rule:nonzero}
    .fil0 {fill:#6DCDAE;fill-rule:nonzero}
   ]]>
  </style>
 </defs>
 <g id="Objects">
  <metadata id="CorelCorpID_0Corel-Layer"/>
  <path class="fil0" d="M342 229c17,0 33,-10 41,-26 13,-23 3,-52 -20,-65 -24,-12 -52,-5 -66,19l-165 -87c12,-25 2,-52 -21,-64 -24,-13 -54,-4 -66,20 -9,16 -7,34 2,49 -17,0 -33,10 -41,26 -13,23 -3,52 20,65 24,12 53,4 66,-21l166 87c-13,26 -3,54 20,66 24,13 54,4 66,-20 9,-16 7,-34 -2,-49z"/>
  <path class="fil1" d="M93 51c-3,6 -11,9 -18,6 -6,-4 -9,-12 -5,-18 3,-7 11,-9 18,-6 6,4 8,12 5,18z"/>
  <path class="fil1" d="M47 138c-3,7 -11,9 -18,6 -6,-4 -8,-11 -5,-18 3,-6 11,-9 18,-5 6,3 9,11 5,17z"/>
  <path class="fil1" d="M360 191c-3,7 -11,9 -18,6 -6,-4 -9,-12 -5,-18 3,-6 11,-9 18,-6 6,4 8,12 5,18z"/>
  <path class="fil1" d="M314 279c-3,6 -11,8 -18,5 -6,-3 -8,-11 -5,-18 3,-6 11,-9 18,-5 6,3 9,11 5,18z"/>
  <path class="fil1" d="M142 109c-3,6 -11,9 -17,5 -7,-3 -9,-11 -6,-18 3,-6 11,-8 18,-5 6,3 9,11 5,18z"/>
  <path class="fil1" d="M180 128c-4,7 -12,9 -18,6 -6,-3 -9,-11 -5,-18 3,-6 11,-9 17,-5 7,3 9,11 6,17z"/>
  <path class="fil1" d="M217 148c-3,6 -11,9 -18,6 -6,-4 -8,-12 -5,-18 3,-7 11,-9 18,-6 6,4 9,12 5,18z"/>
  <path class="fil1" d="M255 168c-4,6 -12,9 -18,5 -7,-3 -9,-11 -6,-18 4,-6 12,-8 18,-5 7,3 9,11 6,18z"/>
  <path class="fil1" d="M292 187c-3,7 -11,9 -18,6 -6,-4 -9,-11 -5,-18 3,-6 11,-9 18,-5 6,3 8,11 5,17z"/>
 </g>
</svg>
