<?xml version="1.0" encoding="UTF-8"?>
<!DOCTYPE svg PUBLIC "-//W3C//DTD SVG 1.1//EN" "http://www.w3.org/Graphics/SVG/1.1/DTD/svg11.dtd">
<!-- Creator: CorelDRAW X7 -->
<svg xmlns="http://www.w3.org/2000/svg" xml:space="preserve" width="2.61656in" height="4.75723in" version="1.1" style="shape-rendering:geometricPrecision; text-rendering:geometricPrecision; image-rendering:optimizeQuality; fill-rule:evenodd; clip-rule:evenodd"
viewBox="0 0 326 592"
 xmlns:xlink="http://www.w3.org/1999/xlink">
 <defs>
  <style type="text/css">
   <![CDATA[
    .fil3 {fill:#704C28;fill-rule:nonzero}
    .fil2 {fill:#78D6D0;fill-rule:nonzero}
    .fil0 {fill:#9FE2DE;fill-rule:nonzero}
    .fil1 {fill:#F37B52;fill-rule:nonzero}
   ]]>
  </style>
 </defs>
 <g id="Layer_x0020_1">
  <metadata id="CorelCorpID_0Corel-Layer"/>
  <path class="fil0" d="M300 203c0,-6 -1,-13 -3,-19 -1,-1 -1,-3 -2,-4 0,-1 0,-2 0,-3 -1,-4 -2,-8 -5,-10 -2,-10 -6,-19 -14,-26 -1,-4 -3,-7 -7,-9 1,-2 2,-5 2,-8 -2,-16 -5,-31 -10,-46 0,-13 -2,-26 -7,-38 0,0 0,0 0,0 -1,-1 -1,-2 -2,-3 -1,-4 -4,-6 -6,-8 -2,-4 -3,-9 -5,-13 -1,-5 -4,-8 -7,-9 -5,-7 -10,-10 -18,-3 -12,10 -27,23 -35,36 -8,14 -13,26 -19,41 0,1 -1,2 -1,3 -3,1 -6,1 -9,2 -20,4 -39,12 -55,25 -2,2 -3,3 -4,5 -1,0 -2,0 -3,0 -23,0 -47,1 -70,4 -2,0 -3,1 -4,1 0,0 -1,0 -1,0 -9,0 -15,10 -14,18 0,4 2,7 4,9 0,1 0,2 1,3 15,33 36,62 63,86 0,1 1,2 1,3 2,5 5,10 8,15 1,5 3,9 6,14 1,2 2,3 4,5 1,2 3,4 4,6 1,1 1,1 1,1 0,1 0,1 1,2 1,1 2,3 4,4 3,6 9,10 16,10 1,0 1,-1 1,-1 7,3 13,5 21,4 1,1 1,1 2,1 0,0 1,0 1,0 3,1 5,2 7,3 -3,14 -6,28 -9,41 0,2 -1,3 -1,4 0,2 -1,5 -1,7 -3,9 -7,18 -10,27 0,2 -1,4 -1,5 -1,1 -1,2 -1,3 -1,2 -1,4 -1,5 -1,1 -1,1 -1,1 -1,2 1,3 0,6 0,1 -1,10 -1,10 -3,0 -5,-1 -7,0 -3,2 -23,4 -26,6 -21,10 -29,15 -44,34 -6,7 -12,14 -17,22 -12,21 -13,46 -2,66 9,29 36,49 67,48 15,5 31,4 45,-5 17,2 34,-10 48,-18 19,-12 36,-23 47,-43 4,-7 6,-18 -2,-20 -28,-10 -42,8 -68,18 -13,5 -20,14 -34,17 -3,1 -25,0 -28,0 -5,-1 -10,-2 -14,-3 -3,-2 -6,-4 -9,-4 -1,0 -1,0 -1,0 -1,-1 -1,-1 -2,-1 -10,-5 -20,-25 -20,-35 1,-12 13,-28 22,-36 11,-10 23,-18 36,-24 2,-1 9,-6 10,3 0,1 1,-1 2,-1 6,10 15,18 26,21 1,1 2,1 3,1 3,4 9,6 14,6 5,0 9,-3 12,-7 3,4 8,6 14,6 7,0 13,-8 14,-15 3,0 7,-1 10,-1 0,1 0,2 0,2 1,10 9,15 18,15 1,0 1,0 1,0 1,0 1,0 2,0 7,0 13,-7 14,-14 2,1 4,1 6,1 7,0 12,-5 14,-12 15,-18 16,-44 7,-64 -1,-5 -3,-8 -6,-10 -1,-2 -2,-3 -3,-4 -2,-15 0,-30 -1,-44 -1,-18 -5,-36 -11,-52 1,-1 1,-1 2,-2 9,-7 16,-17 24,-26 7,-8 13,-13 14,-23 3,-3 4,-7 3,-12z"/>
  <path class="fil1" d="M70 138c-7,-5 -21,-3 -28,-3 -6,1 -17,0 -20,7 -1,5 2,10 6,14 0,1 1,3 1,4 4,7 9,14 15,20 -1,1 -1,2 0,3 5,6 10,11 16,15 1,1 5,1 5,-2 0,-2 0,-4 1,-6 0,0 0,-1 0,-1 4,-12 5,-24 5,-36 2,-5 4,-12 -1,-15z"/>
  <path class="fil1" d="M246 97c-1,-3 -2,-6 -2,-8 0,-1 0,-1 0,-1 0,-6 -1,-11 -2,-17 -1,-1 -1,-2 -1,-3 1,-1 1,-2 0,-3l-1 -5c-1,-2 -2,-5 -3,-7 0,-1 0,-2 0,-2 -1,-3 -2,-6 -3,-8 -1,-1 -1,-1 -2,-1 0,-1 0,-1 0,-1 -1,-1 -1,-1 -1,-1 -1,-3 -2,-5 -4,-7 0,-1 -1,-3 -2,-4 -1,0 -1,0 -1,-1 -1,-2 -5,-2 -6,1 -1,0 -2,1 -3,2 0,1 -1,2 -2,3 0,1 -1,1 -1,1 -7,4 -12,11 -15,19 -1,2 -2,3 -2,4 -1,0 -1,1 -1,1 -3,5 -6,10 -8,15 -2,4 -4,7 -5,12 0,1 1,3 2,3 8,3 15,3 23,4 0,1 1,2 2,2 4,1 8,1 11,2 1,0 2,1 3,1 1,0 1,1 2,1 1,0 2,0 3,1 3,0 5,1 7,3 2,1 3,2 5,3 2,0 4,0 6,-2 2,-2 1,-5 1,-7z"/>
  <path class="fil2" d="M295 180c-1,41 -47,78 -74,92 -29,15 -79,19 -112,21 -6,0 17,9 23,10 14,3 29,2 42,-3 2,2 4,3 6,2 10,-4 19,-9 29,-14 1,0 2,0 3,-1 18,-7 34,-16 48,-28 20,-15 36,-33 39,-57 1,-6 -4,-28 -4,-22z"/>
  <path class="fil2" d="M220 409c0,-2 0,-3 -1,-4 1,-4 1,-9 1,-13 0,-3 0,-6 -1,-9 0,-1 0,-2 0,-3 -1,-4 -4,-8 -7,-11 -1,-1 -3,-2 -5,-3 -13,-2 -29,11 -20,24 0,1 1,2 1,3 0,2 0,3 0,4 1,15 6,30 11,43 1,1 2,2 2,3 0,1 1,2 1,3 0,4 5,5 8,3 2,1 3,1 4,0 2,0 4,-1 4,-4 0,-2 0,-3 1,-4 0,-1 0,-2 1,-3l0 -29z"/>
  <path class="fil2" d="M272 411c-3,-2 -6,-2 -7,2 0,0 -1,0 -1,0 -2,0 -4,2 -4,4 -1,4 -1,8 -1,12 -2,4 -4,9 -4,14 0,1 0,1 0,2 -1,0 -1,1 -1,2 -1,5 6,8 9,4 4,-5 7,-11 9,-17 2,0 3,-1 4,-3 2,-5 4,-10 4,-15 0,-5 -5,-8 -8,-5z"/>
  <path class="fil2" d="M172 458c0,-1 0,-1 0,-2 0,-1 -1,-2 -1,-3 -1,0 -2,-1 -2,-2 -1,-2 -3,-3 -4,-5 -4,-5 -8,-9 -12,-13 -5,-4 -16,-4 -22,-1 -10,4 -3,12 6,18 4,4 9,7 14,9 2,3 2,3 5,5 2,2 9,3 10,0 4,1 8,-2 6,-6z"/>
  <path class="fil2" d="M194 453c-2,0 -3,0 -4,1 -1,0 -1,0 -2,0 -6,0 -5,11 2,11 1,0 3,-1 3,-2 1,0 1,0 2,0 6,0 5,-10 -1,-10z"/>
  <path class="fil2" d="M248 455c0,-1 -1,-2 -2,-3 -1,-1 -3,-1 -4,-1l-1 0c0,0 0,0 0,0 0,0 -1,0 -1,0 -1,0 -3,1 -3,2 -1,0 -1,0 -1,0 -1,0 -2,0 -3,1 -1,0 -1,0 -1,0 -1,0 -1,0 -1,0 0,0 0,0 -1,0 0,0 0,0 0,0l-3 0c0,0 0,0 0,0 -1,0 -1,0 -1,0 -7,0 -6,11 1,11 0,0 0,0 0,0 1,0 1,0 1,0l3 0c0,0 0,0 0,0 1,0 1,0 1,0 1,0 2,-1 3,-1 0,0 1,0 2,-1 1,0 1,0 2,-1 1,0 2,0 2,-1 0,0 0,0 0,0 1,0 1,0 1,0 0,0 0,0 0,0l1 0c1,0 3,-1 4,-2 0,-1 1,-2 1,-4z"/>
  <path class="fil2" d="M230 516c-1,-2 -4,-3 -6,-2 -27,14 -46,37 -71,52 -6,3 -13,7 -19,9 -10,2 -20,3 -30,2 -3,0 -6,0 -9,-1 -10,-3 -20,-8 -29,-13 -15,-10 -29,-22 -41,-36 -3,-4 -11,-2 -10,3 4,18 18,35 33,44 9,6 15,9 26,12 0,0 6,0 6,1 2,0 4,2 5,1 3,1 5,-2 8,-2 4,1 7,2 10,3 12,1 24,-1 34,-4 16,-4 32,-12 45,-22 0,0 1,0 2,0 13,-7 23,-13 33,-23 7,-6 19,-15 13,-24z"/>
  <path class="fil3" d="M57 295c0,-3 2,-5 3,-6 6,-6 12,-11 18,-16 2,-2 3,-4 1,-6 -4,-9 -7,-18 -9,-27 -1,-3 -3,-4 -5,-5 -11,-9 -19,-19 -27,-31 -9,-14 -19,-29 -29,-43 -6,-8 -10,-17 -9,-27 1,-7 3,-11 11,-13 23,-5 46,-7 70,-6 1,0 1,0 1,0 5,3 8,-1 12,-4 17,-17 38,-26 61,-29 4,0 6,-2 8,-6 6,-20 16,-38 31,-53 6,-6 12,-13 19,-18 9,-7 13,-7 22,1 6,5 11,12 14,20 13,31 20,63 22,96 0,2 0,3 -1,4 -2,5 2,8 5,11 2,3 5,6 7,9 2,3 3,3 6,1 4,-3 8,-6 12,-8 -3,4 -7,7 -11,10 -2,2 -3,3 -1,6 4,8 4,8 13,4 4,-1 7,-4 12,-4 -1,2 -3,3 -5,4 -2,1 -4,2 -5,2 -9,5 -9,5 -5,14 1,3 2,3 5,2 5,-2 11,-3 16,-4 2,0 5,-1 7,0 -1,2 -3,2 -4,2 -6,2 -12,4 -18,5 -3,1 -4,2 -3,6 2,10 1,20 -1,30 -3,10 -9,17 -15,24 -7,8 -14,15 -22,21 -1,2 -1,3 -1,5 0,11 2,21 4,32 3,17 5,35 5,53 -1,3 1,6 2,10 7,11 10,23 11,35 1,3 0,6 1,9 2,14 -4,25 -13,36 0,1 -1,1 -1,2 -2,8 -5,11 -12,11 -2,0 -3,1 -5,1 -2,0 -3,1 -3,3 0,2 -2,4 -3,4 -9,5 -18,7 -27,3 -4,-2 -4,-6 -4,-9 -1,-5 -2,-6 -6,-5 -2,0 -3,1 -3,3 -1,3 -3,5 -4,8 -1,2 -3,3 -5,3 -4,0 -7,2 -11,1 -1,0 -1,0 -1,0 -4,5 -6,0 -8,-1 -3,-3 -4,-4 -8,-1 -6,4 -13,3 -19,-1 -3,-1 -6,-3 -9,-3 -4,0 -7,-3 -10,-6 -4,-5 -10,-11 -13,-17 -1,-2 -2,-2 -4,-2 -1,0 -2,1 -4,1 -15,9 -30,18 -42,31 -10,9 -14,21 -13,35 1,8 5,14 11,19 11,10 23,15 37,17 15,2 28,-2 40,-10 16,-9 31,-18 48,-25 8,-3 17,-5 26,-6 15,0 19,13 15,23 -4,9 -9,16 -16,22 -27,23 -56,42 -91,48 -22,4 -43,4 -64,-6 -23,-10 -41,-27 -47,-52 -5,-18 -2,-36 8,-52 15,-27 34,-49 63,-61 4,-2 7,-4 11,-4 6,-1 11,-5 17,-5 2,0 2,-2 2,-3 1,-4 1,-7 2,-11 0,-5 1,-10 3,-15 9,-19 13,-39 18,-59 1,-5 2,-9 3,-14 0,-3 -1,-4 -4,-4 -12,0 -23,-1 -34,-7 -2,-1 -3,1 -3,2 -3,8 -6,15 -8,23 0,1 -1,2 -1,3 0,1 -1,2 -2,2 0,-1 0,-1 -1,-2 0,-2 1,-4 1,-6 2,-7 4,-14 7,-20 2,-4 2,-6 -1,-8 -6,-5 -5,-7 -9,1 -6,8 -11,17 -16,25 -1,1 -1,4 -3,3 -2,-1 0,-3 0,-4 6,-10 12,-19 18,-28 2,-3 2,-5 0,-8 -5,-7 -5,-7 -11,-2 -5,5 -10,10 -16,15 -1,0 -1,2 -3,2zm50 -34l0 0c-2,6 -6,10 -9,15 -4,6 -4,6 1,11 2,2 4,2 5,-1 1,-3 2,-5 3,-8 0,0 1,-1 2,-1 1,1 0,1 0,2 -1,2 -1,5 -2,7 -2,6 -2,6 3,8 19,7 38,8 58,5 5,-1 10,-2 15,-4 23,-7 45,-13 64,-28 5,-3 9,-7 14,-11 12,-8 23,-17 31,-31 6,-13 7,-25 5,-38 0,-3 -2,-4 -5,-3 -9,3 -19,7 -28,12 -2,0 -3,2 -6,0 2,-1 3,-1 4,-2 8,-5 17,-8 25,-12 8,-2 8,-2 5,-10 -1,-3 -2,-4 -6,-2 -9,6 -19,12 -28,19 -2,1 -4,2 -5,3 2,-3 4,-6 7,-8 8,-6 15,-10 23,-15 7,-4 7,-4 3,-11 -2,-3 -3,-4 -6,-1 -13,10 -24,21 -35,34 0,1 0,2 -2,1 2,-3 3,-5 5,-7 9,-12 19,-21 31,-31 2,-2 2,-3 0,-6 -4,-5 -9,-11 -13,-16 -3,-3 -6,-6 -8,-11 3,3 5,6 9,7 0,-3 -1,-7 -1,-11 -2,-30 -9,-59 -20,-87 -4,-10 -9,-18 -17,-24 -3,-2 -5,-3 -8,-1 -9,6 -17,14 -24,22 -14,15 -24,32 -31,51 -1,2 -1,3 2,4 1,0 2,1 2,2 0,2 -2,2 -3,2 -1,0 -2,0 -3,0 -22,1 -41,7 -58,20 -7,5 -14,10 -17,18 0,1 0,1 -1,1 -1,0 -2,-1 -2,-2 1,-4 -2,-4 -5,-4 -23,-1 -46,2 -69,7 -6,1 -7,2 -7,8 -1,10 3,18 9,25 9,13 18,26 27,40 7,11 15,21 23,31 1,0 2,2 3,1 3,-1 3,-1 4,2 3,10 7,20 12,30 1,3 2,4 5,2 7,-5 14,-10 21,-15 1,-1 2,-3 5,-2 -8,6 -15,12 -22,18 -7,4 -7,3 -2,10 2,3 3,4 5,0 4,-5 7,-10 12,-15zm110 110l0 0c4,3 5,7 6,11 1,11 1,23 0,34 -1,13 -2,26 -2,39 0,1 0,4 2,5 0,1 2,2 3,2 1,-1 1,-2 1,-3 0,-2 0,-3 0,-5 0,-1 1,-1 2,-1 1,0 1,1 1,2 0,0 0,1 0,2 0,3 0,6 4,5 5,0 6,-2 6,-6 0,-2 -2,-4 0,-5 2,0 2,3 3,5 0,0 0,0 0,1 0,1 -1,2 1,2 1,0 2,0 2,-1 1,-1 1,-2 2,-3 16,-51 22,-102 14,-154 -1,-11 -3,-22 -6,-33 -1,-1 -1,-3 -3,-1 -8,7 -17,11 -25,17 -13,7 -28,13 -42,17 -4,1 -6,4 -10,4 -9,-1 -17,0 -25,-1 -3,0 -4,1 -4,3 -4,22 -7,43 -15,64 -7,15 -10,32 -10,49 0,18 11,33 29,37 2,0 4,0 4,2 2,5 6,3 9,3 -2,-2 -1,-6 -4,-6 -2,0 -4,2 -4,-1 0,-1 2,-2 4,-2 1,0 2,-1 3,-1 3,0 3,-1 1,-4 -14,-17 -20,-37 -24,-58 0,-3 -1,-6 0,-9 2,5 2,9 3,13 6,24 17,46 35,64 2,2 5,4 8,5 2,0 3,0 3,-2 0,-2 0,-5 -2,-7 -1,0 -2,0 -1,-1 1,-1 2,-1 2,-1 4,1 4,4 4,7 0,1 0,4 3,3 2,0 4,-1 3,-4 0,-4 -1,-7 -4,-10 5,0 6,4 7,7 1,-3 1,-5 0,-8 -4,-6 -6,-12 -8,-19 -4,-17 -7,-33 -9,-50 0,-2 -1,-3 2,-5 1,6 2,12 3,17 4,17 6,34 13,51 4,9 1,7 11,6 3,0 4,-1 4,-4 0,-4 0,-9 0,-13 2,-19 5,-39 0,-59zm-104 171l0 0c-3,0 -5,0 -7,0 -18,0 -33,-8 -45,-21 -6,-6 -9,-14 -9,-24 0,-13 5,-25 15,-34 13,-12 27,-21 42,-30 3,-1 7,-1 8,-4 1,-3 0,-7 0,-10 0,-3 -1,-4 -4,-4 -8,0 -15,3 -22,6 -28,12 -48,34 -62,60 -12,20 -14,42 -3,63 12,22 30,35 54,40 26,6 52,2 77,-9 25,-10 46,-26 66,-44 5,-4 7,-9 9,-15 2,-7 -1,-11 -8,-13 -2,-1 -4,-1 -5,-1 -12,0 -21,5 -31,9 -14,6 -26,14 -39,21 -11,6 -23,12 -36,10zm158 -177l0 0c0,0 0,1 0,2 -1,9 -2,18 -4,27 -1,15 -5,29 -9,42 0,1 -1,3 1,4 1,1 9,0 10,-2 5,-5 10,-11 10,-18 2,-18 2,-35 -5,-51 -1,-2 -1,-3 -3,-4zm-9 77l0 0c-5,0 -8,3 -8,8 0,1 1,1 1,1 2,-2 7,1 7,-4 0,0 1,0 2,1 2,2 3,-1 3,-2 1,-5 -3,-3 -5,-4zm-95 14l0 0c-1,0 -3,0 -2,1 0,2 1,3 3,4 1,0 2,-1 2,-2 0,-2 -1,-3 -3,-3z"/>
  <path class="fil3" d="M249 95c-1,4 -1,8 -1,12 0,1 -1,2 -2,2 -3,-1 -6,0 -8,-1 -17,-7 -34,-14 -52,-18 -7,-2 -8,-6 -4,-11 2,-2 3,-5 3,-7 7,-16 15,-30 27,-43 2,-1 3,-3 5,-4 5,-3 5,-3 9,1 14,16 18,34 21,53 1,5 1,10 2,16zm-5 1l0 0c-1,-4 -1,-8 -1,-13 -3,-19 -6,-37 -18,-53 -2,-3 -4,-3 -6,-1 -5,5 -10,9 -13,15 -9,11 -14,24 -21,37 -1,3 0,6 3,7 17,2 33,8 48,14 8,3 8,3 8,-6z"/>
  <path class="fil3" d="M50 132c8,-1 17,1 25,4 3,1 3,2 3,5 -4,15 -6,30 -8,46 -1,7 -1,14 0,21 0,1 1,3 -1,3 -2,1 -2,-1 -2,-2 -1,-4 -3,-6 -6,-8 -10,-8 -19,-18 -27,-29 -7,-8 -11,-18 -14,-28 -2,-6 -1,-6 4,-8 8,-3 17,-5 26,-4zm0 4l0 0c-9,0 -16,1 -24,3 -3,1 -4,3 -3,5 3,7 6,14 10,21 7,12 17,22 28,31 1,1 2,2 4,2 1,-1 1,-3 1,-4 1,-17 4,-34 7,-51 1,-2 0,-3 -3,-4 -6,-2 -13,-3 -20,-3z"/>
  <path class="fil3" d="M128 193c10,0 17,4 24,9 1,1 2,1 3,2 0,2 1,3 0,4 -1,1 -3,1 -4,0 -3,-2 -6,-4 -9,-6 -2,-1 -5,-2 -7,-3 -17,-5 -28,11 -25,23 0,2 0,5 1,8 0,1 -1,2 -2,2 -2,1 -2,-1 -3,-2 -5,-11 -1,-27 11,-34 3,-2 6,-3 11,-3z"/>
  <path class="fil3" d="M196 161c0,-13 9,-22 21,-22 9,-1 17,2 24,7 1,1 2,2 3,3 1,1 1,2 0,3 -1,1 -2,1 -3,0 -4,-3 -9,-6 -14,-7 -8,-2 -15,-2 -21,4 -5,5 -5,11 -4,18 0,3 1,7 2,10 1,2 1,3 -1,4 -2,1 -2,-1 -3,-3 -3,-5 -4,-11 -4,-17z"/>
  <path class="fil3" d="M208 216c5,5 2,12 -3,13 -4,1 -6,2 -6,6 -1,3 -5,4 -8,4 -4,0 -8,1 -10,-3 -1,-1 -1,-2 -1,-3 1,-1 2,-1 3,0 1,1 1,1 2,1 3,2 8,1 10,-1 1,-2 -1,-8 -3,-10 -2,-1 -3,0 -4,0 -4,0 -6,-3 -5,-6 1,-4 5,-7 9,-8 2,0 4,0 5,2 1,1 1,3 0,5 -2,2 -1,4 0,7 1,1 2,3 5,3 2,-1 5,-2 5,-5 1,-1 1,-3 1,-5z"/>
  <path class="fil3" d="M225 445c7,0 13,0 19,0 0,0 1,0 1,1 0,0 0,1 -1,1 -3,2 -15,1 -19,-2z"/>
  <path class="fil3" d="M180 449c2,-2 5,-2 6,-2 2,0 4,-2 4,0 1,2 -2,2 -3,3 -2,0 -4,1 -7,-1z"/>
 </g>
</svg>
