<?xml version="1.0" encoding="UTF-8"?>
<!DOCTYPE svg PUBLIC "-//W3C//DTD SVG 1.1//EN" "http://www.w3.org/Graphics/SVG/1.1/DTD/svg11.dtd">
<!-- Creator: CorelDRAW X7 -->
<svg xmlns="http://www.w3.org/2000/svg" xml:space="preserve" width="1.56224in" height="1.08177in" version="1.1" style="shape-rendering:geometricPrecision; text-rendering:geometricPrecision; image-rendering:optimizeQuality; fill-rule:evenodd; clip-rule:evenodd"
viewBox="0 0 91 63"
 xmlns:xlink="http://www.w3.org/1999/xlink">
 <defs>
  <style type="text/css">
   <![CDATA[
    .fil1 {fill:#704C28;fill-rule:nonzero}
    .fil0 {fill:#FEF0B5;fill-rule:nonzero}
   ]]>
  </style>
 </defs>
 <g id="Layer_x0020_1">
  <metadata id="CorelCorpID_0Corel-Layer"/>
  <path class="fil0" d="M83 60c3,-1 3,-2 3,-4 1,-1 1,-1 0,-2 0,-2 -1,-3 -2,-4 0,0 0,0 0,0 -1,-1 -1,-1 -1,-2 2,-2 5,-5 6,-8 1,-7 -5,-14 -11,-11 -2,1 -4,3 -6,3 -2,0 -4,-1 -6,-1 -6,-1 -12,-3 -17,-5 -1,0 -1,0 -2,0 -4,-2 -9,-4 -14,-4 -3,-1 -5,-2 -7,-3 5,-7 -4,-20 -12,-16 -3,0 -4,2 -5,4 0,1 0,1 -1,2 0,2 1,3 3,4 0,0 0,0 0,1 0,0 0,0 0,0 0,0 0,0 0,0 0,1 0,2 1,3 0,1 1,2 1,3 0,0 1,0 1,0 -1,1 -3,1 -4,1 0,0 -1,0 -1,0 0,1 -1,1 -1,1 0,0 -1,0 -2,0 -1,0 -1,1 -1,1 -3,2 -6,5 -4,8 1,2 5,2 8,2 1,0 2,0 3,0 4,-2 7,-2 11,-2 0,1 1,1 1,1 1,0 1,0 1,1 0,0 0,0 0,0l0 0c10,4 21,8 31,12 5,3 10,4 15,7 0,1 1,3 1,4 0,0 0,0 0,1 1,4 6,5 10,4 0,0 1,0 1,0 0,-1 0,-1 0,-1z"/>
  <path class="fil1" d="M22 2c2,1 3,2 4,3 3,3 4,6 2,10 0,2 0,2 2,3 5,2 11,4 17,5 8,3 16,5 23,8 2,1 3,0 4,-1 2,-1 3,-2 5,-3 6,-2 12,3 12,10 0,1 0,2 -1,4 0,2 -1,4 -4,6 -1,0 -1,1 0,2 1,2 2,3 3,5 0,4 -1,6 -4,8 -5,3 -13,0 -15,-6 -1,-3 -3,-5 -6,-6 -12,-4 -24,-10 -35,-15 -2,-1 -4,-1 -5,-2 -2,0 -4,-1 -7,1 -4,1 -9,1 -14,-1 -3,-1 -4,-5 -2,-8 3,-3 6,-5 9,-6 1,0 2,1 2,0 0,-1 -1,-1 -1,-2 0,0 -1,-1 -1,-1 -4,-3 -5,-8 -2,-12 4,-4 10,-5 14,-2zm-17 22l0 0c-4,5 -3,7 1,8 2,0 4,0 6,0 2,0 4,0 6,-2 1,0 2,0 3,0 3,1 6,2 9,3 12,5 23,11 36,15 3,1 5,3 6,7 1,5 8,7 12,4 2,-1 3,-2 2,-4 0,-2 -1,-4 -3,-5 -2,-3 -2,-3 1,-5 2,-1 3,-2 4,-4 0,-2 0,-4 0,-5 0,-3 -2,-5 -4,-6 -2,-1 -5,-1 -7,1 -1,1 -1,2 -2,2 -1,1 -3,2 -4,1 -10,-4 -21,-7 -31,-10 -4,-1 -9,-2 -13,-4 -2,-1 -2,-2 -2,-4 1,-1 1,-1 1,-2 1,-5 -5,-12 -10,-11 -3,0 -6,2 -7,5 0,3 1,5 3,7 2,1 2,2 3,3 0,2 -1,3 -2,3 -4,0 -7,2 -8,3z"/>
 </g>
</svg>
