<?xml version="1.0" encoding="UTF-8"?>
<!DOCTYPE svg PUBLIC "-//W3C//DTD SVG 1.1//EN" "http://www.w3.org/Graphics/SVG/1.1/DTD/svg11.dtd">
<!-- Creator: CorelDRAW X7 -->
<svg xmlns="http://www.w3.org/2000/svg" xml:space="preserve" width="3.24326in" height="3.52576in" version="1.1" style="shape-rendering:geometricPrecision; text-rendering:geometricPrecision; image-rendering:optimizeQuality; fill-rule:evenodd; clip-rule:evenodd"
viewBox="0 0 307 334"
 xmlns:xlink="http://www.w3.org/1999/xlink">
 <defs>
  <style type="text/css">
   <![CDATA[
    .fil3 {fill:#3EC1B8;fill-rule:nonzero}
    .fil4 {fill:#704C28;fill-rule:nonzero}
    .fil0 {fill:#D17C16;fill-rule:nonzero}
    .fil2 {fill:#F37B52;fill-rule:nonzero}
    .fil1 {fill:#FED180;fill-rule:nonzero}
    .fil5 {fill:#FEF0B5;fill-rule:nonzero}
   ]]>
  </style>
 </defs>
 <g id="Layer_x0020_1">
  <metadata id="CorelCorpID_0Corel-Layer"/>
  <polygon class="fil0" points="242,246 245,252 247,263 253,258 261,244 261,230 257,227 247,240 "/>
  <path class="fil0" d="M299 116c0,0 0,0 0,0 0,-1 0,-1 0,-1 0,0 0,0 -1,-1 -6,-15 -18,-26 -32,-34 -3,-3 -6,-5 -10,-7 -5,-4 -10,-9 -14,-14 -1,0 -1,0 -1,0 -1,-2 -2,-4 -3,-6 0,0 0,-1 0,-2 -1,-1 -1,-2 -2,-3 0,0 0,-1 -1,-2 -2,-6 -11,-2 -10,4 1,3 2,5 3,7 -2,1 -3,2 -3,4 0,18 3,35 10,50 1,2 2,4 3,6 10,22 30,47 56,33 2,-1 2,-3 2,-4 1,-1 2,-2 2,-2 2,-1 4,-2 5,-4 2,-9 0,-17 -4,-24z"/>
  <path class="fil0" d="M109 18c-3,0 -13,3 -13,5 -1,0 -1,0 -1,0 -2,0 -4,1 -4,2 -1,-1 -2,-1 -3,-1 -2,0 -3,1 -4,3 -1,0 -2,0 -2,1 -5,2 -9,4 -14,6 -1,0 -2,0 -4,1 -2,2 -4,3 -6,5 -4,1 -7,4 -10,6 0,0 0,0 -1,1 -1,-1 -2,0 -3,1 -3,2 -6,4 -8,6 -1,0 -1,0 -2,0 -5,4 -10,8 -14,13 0,0 -1,0 -1,1 -2,2 -4,4 -7,7 0,1 0,1 -1,2 0,0 -1,1 -1,1 -2,4 -4,8 -4,12 -2,4 -3,8 -3,12 0,0 0,0 0,1 0,3 0,8 2,11 1,8 14,18 21,14 2,-1 3,-3 4,-4 1,-1 2,-1 2,-1 2,-1 4,-1 6,-2 5,-1 9,-4 9,-10 1,-3 1,-6 1,-10 0,-3 1,-5 2,-8 0,-3 1,-6 3,-9 3,-5 7,-10 10,-15 1,0 1,-1 1,-1 1,-1 2,-3 3,-4 4,-4 8,-7 11,-12 0,0 0,0 0,0 1,-1 3,-2 4,-3 0,0 0,0 0,-1 1,0 1,0 1,0 1,-1 1,-1 1,-1 0,0 1,-1 1,-1 3,-3 6,-6 9,-9 1,0 1,-1 1,-2 1,0 1,-1 1,-1 0,0 1,-1 1,-1 2,0 3,-2 3,-3 1,0 1,0 1,0 9,-8 15,-12 8,-12z"/>
  <path class="fil1" d="M230 235c-3,-2 -5,-4 -7,-6 -5,-16 -11,-31 -16,-47 6,-2 12,-6 17,-10 1,-1 1,-2 2,-2 2,-2 4,-5 6,-7 6,-1 10,-8 9,-14 0,-1 0,-3 -1,-4 1,-4 2,-8 2,-13 0,-1 0,-3 -1,-4 0,-4 -1,-9 -4,-11 -1,0 -1,0 -1,0 0,0 -1,0 -1,0 -2,-13 -4,-26 -5,-39 -1,-7 -2,-14 -3,-20 1,-2 1,-4 1,-6 -1,-9 -4,-18 -10,-25 1,-4 -1,-8 -4,-11 -3,-3 -6,-4 -10,-4 -11,-3 -23,-5 -34,-6 -5,-1 -11,-1 -16,-1 -2,-1 -4,-1 -6,-1 -3,0 -6,1 -8,3 -1,0 -2,0 -4,0 -3,0 -6,1 -8,4 -3,0 -7,1 -9,4 -1,2 -2,3 -3,5 0,0 0,0 0,0 -3,0 -6,1 -8,2 -2,1 -5,2 -7,4 -2,3 -4,5 -5,7 -1,1 -2,3 -3,4 -2,3 -6,6 -9,9 2,0 2,2 1,3 -8,8 -16,16 -25,23 -3,5 -3,8 -6,13 0,0 -3,4 -3,5 -4,11 -5,22 -2,34 1,6 3,15 7,20 2,2 4,5 5,7 2,3 4,4 6,6 3,4 7,8 11,11 4,6 12,10 18,13 0,0 0,0 0,1 1,0 1,0 1,1 0,5 -1,9 -3,13 0,0 0,0 0,1 -1,2 -1,3 -2,5 -1,2 -2,4 -4,7 -1,7 -3,14 -4,21 -2,3 -3,7 -4,10 -9,12 -11,27 -5,41 0,9 7,20 15,26 0,1 0,3 0,4 1,7 7,11 14,11 4,0 7,-3 9,-6 0,1 0,1 0,2 0,4 2,6 5,8 3,4 7,6 12,6 2,0 3,0 5,-1 1,0 3,0 4,0 6,0 10,-5 11,-11 2,-2 3,-5 3,-9 0,-2 0,-4 0,-7 2,1 3,0 5,0 0,1 1,2 1,3 0,2 0,4 1,5 0,1 0,2 0,3 0,3 2,5 3,7 2,4 7,7 13,7 1,0 3,-1 4,-1 1,0 2,0 3,0 1,0 2,-1 4,-1 0,0 0,0 0,0 3,0 6,-2 8,-4 3,-2 4,-6 5,-9 1,0 2,1 4,1 1,0 3,-1 4,-2 2,1 4,2 6,2 2,0 3,-1 4,-1 1,0 1,0 2,0 6,0 10,-7 11,-12 0,-1 1,-2 1,-2 7,-10 12,-21 13,-33 0,-13 -5,-24 -15,-32z"/>
  <path class="fil2" d="M134 142c0,-1 -1,-3 -3,-4 -1,-1 -3,-1 -4,-2 -1,-1 -1,-3 -2,-4 0,0 0,0 0,0 -1,-3 -5,-5 -8,-3 0,1 -1,1 -1,1 -1,1 -2,2 -2,4 0,0 0,0 0,0 -2,2 -1,5 1,7 0,1 0,2 0,3 0,1 0,1 0,2 0,0 0,1 0,1 0,3 1,7 1,10 0,4 5,6 8,4 6,-4 13,-11 10,-19z"/>
  <path class="fil3" d="M171 188c-10,3 -20,3 -31,2 -3,0 -6,0 -9,0 -3,-1 -6,-2 -10,-4 -1,-1 -2,-1 -4,-1 -16,-4 -12,0 -7,5 6,5 12,9 19,10 6,2 11,2 16,2 6,0 12,0 18,-1 6,-1 10,-1 14,-5 4,-4 -2,-9 -6,-8z"/>
  <path class="fil4" d="M131 102c-2,0 -3,1 -3,2 -1,0 -2,-1 -2,-1 -1,-1 -3,-2 -5,-2 -6,0 -5,8 0,10 0,0 0,1 1,1 0,2 2,5 5,5 2,0 3,-1 4,-2 1,-1 1,-2 2,-2 6,-1 5,-11 -2,-11z"/>
  <path class="fil4" d="M181 95c-1,-1 -2,-2 -4,-3 -2,-1 -3,-2 -5,-3 -3,-2 -5,3 -2,5 0,0 1,1 2,2 1,0 2,1 3,1 1,1 2,2 4,3 3,1 5,-4 2,-5z"/>
  <path class="fil4" d="M104 76c-2,0 -5,0 -7,1 -3,1 -1,6 2,5 1,-1 3,-1 4,-1 4,1 5,-4 1,-5z"/>
  <path class="fil5" d="M175 5c-13,-3 -25,0 -37,5 -1,-1 -2,-1 -3,-1 -8,3 -15,7 -20,12 -7,4 -14,9 -18,17 -1,0 -1,1 -1,2 -14,13 -28,27 -41,42 -4,4 2,9 6,5 19,-21 39,-41 60,-59 1,-1 1,-1 1,-2 4,-1 7,-3 10,-4 13,-5 27,-11 42,-10 5,1 6,-6 1,-7z"/>
  <path class="fil5" d="M165 104c-11,-13 -28,-16 -44,-15 -5,-1 -12,-1 -17,2 -3,2 -4,6 0,7 0,1 1,1 1,1 1,0 2,1 3,0 0,0 0,0 0,0 0,0 1,0 1,0 0,1 1,1 2,2 12,1 24,2 36,2 4,2 9,4 13,7 3,2 7,-3 5,-6z"/>
  <path class="fil4" d="M160 0c13,2 27,3 40,7 10,3 18,10 22,20 4,7 9,13 15,20 4,5 9,11 13,16 4,6 9,10 15,14 10,6 20,14 28,23 8,9 14,19 14,31 0,9 -7,19 -15,22 -5,2 -10,5 -15,4 -2,0 -4,0 -6,-1 -9,-5 -18,-9 -24,-17 0,0 -1,-1 -2,-1 -1,0 0,1 0,2 0,4 -1,8 -2,11 -1,5 -3,10 -7,13 -4,5 -8,9 -12,13 -4,3 -7,5 -11,6 -2,1 -3,2 -2,4 3,10 7,20 10,29 2,6 6,11 11,15 3,4 8,6 10,11 1,1 2,1 3,0 2,-3 4,-6 5,-9 1,-2 3,-3 4,-5 2,-1 3,-3 5,-2 3,1 4,3 4,5 0,4 1,8 0,12 -2,7 -5,12 -9,17 -1,1 -2,2 -3,2 -4,1 -4,4 -4,7 -1,12 -5,22 -13,32 -1,1 -2,2 -3,3 -2,1 -2,2 -2,3 -1,6 -6,10 -12,10 -4,0 -8,-1 -12,-2 -2,0 -2,0 -3,2 -1,7 -8,14 -15,15 -7,1 -14,-1 -20,-3 -5,-2 -9,-6 -9,-11 0,-4 -1,-8 -1,-12 -1,-1 0,-3 -2,-3 -2,0 -1,2 -1,3 0,5 -1,11 -2,16 -1,6 -3,10 -10,11 -6,1 -11,1 -17,0 -6,0 -10,-5 -13,-9 -1,-1 -2,-2 -4,-1 -7,1 -12,-1 -18,-4 -3,-2 -2,-6 -2,-9 1,-2 0,-3 -2,-5 -10,-10 -17,-21 -17,-36 0,-3 0,-6 0,-9 -1,-8 2,-14 6,-20 3,-5 6,-11 8,-18 1,-4 3,-9 5,-13 4,-8 6,-17 9,-25 0,-2 0,-3 -2,-4 -4,-1 -8,-4 -11,-6 -11,-8 -20,-17 -28,-27 -5,-7 -8,-14 -9,-22 0,-4 -2,-3 -4,-2 -5,2 -10,5 -16,6 -6,2 -13,2 -17,-4 -10,-13 -14,-23 -5,-39 8,-16 20,-30 36,-39 11,-6 23,-13 35,-19 11,-6 22,-8 33,-12 3,-1 6,-1 8,-3 10,-7 21,-10 33,-12 3,-1 6,-1 10,-1zm0 188l0 0c8,0 15,0 22,-2 5,-1 10,-1 15,-2 11,-2 21,-5 28,-15 2,-2 4,-3 6,-5 6,-6 9,-12 9,-20 1,-9 1,-17 -3,-25 -5,-9 -6,-19 -8,-28 -3,-15 -4,-29 -3,-44 0,-2 -1,-4 -2,-6 -2,-5 -4,-10 -6,-15 -5,-8 -12,-13 -21,-16 -7,-2 -14,-2 -20,-3 -10,-2 -20,-3 -31,-1 -19,4 -34,13 -46,29 -4,5 -9,9 -13,14 -12,10 -23,22 -30,36 -2,3 -4,6 -5,10 -5,19 -4,37 9,53 5,7 12,13 18,19 10,10 22,15 35,17 16,2 31,4 46,4zm-26 128l0 0c1,1 1,3 1,4 0,2 1,5 1,7 0,2 1,3 2,2 8,-2 9,-1 11,-10 0,-1 0,-3 0,-4 0,-9 1,-19 0,-28 -1,-6 -1,-13 -4,-20 -2,-4 -4,-8 -6,-12 0,-1 -1,-2 0,-2 1,-1 2,0 2,1 1,0 1,0 1,1 6,11 12,23 11,37 0,2 0,3 1,5 0,1 -1,3 1,3 2,0 1,-2 1,-3 0,-2 0,-4 0,-6 0,-5 0,-9 1,-13 2,-8 4,-15 6,-22 0,-1 0,-2 2,-3 -1,7 -2,13 -3,18 -2,6 -4,11 -3,16 1,4 1,8 1,11 0,6 0,13 1,19 1,4 3,7 7,9 2,0 5,1 8,1 3,1 4,0 4,-3 0,-4 -2,-7 -4,-11 2,0 3,1 4,2 1,3 2,6 2,9 0,2 0,4 3,4 2,-1 4,-1 4,-4 0,-2 0,-5 0,-7 0,-1 -1,-1 0,-2 1,0 2,1 2,1 1,2 1,4 1,6 0,1 0,2 2,1 3,-1 5,-6 4,-9 -1,-3 -1,-6 0,-9 4,-11 9,-23 10,-35 1,-2 0,-4 3,-4 2,1 1,3 1,4 0,1 0,2 0,2 -1,7 -3,14 -5,21 -2,5 -4,10 -6,15 0,2 0,4 2,4 3,1 4,0 4,-2 -1,-1 -1,-2 0,-2 1,0 1,1 1,1 0,1 0,2 1,2 0,3 3,2 4,2 2,1 3,0 2,-2 0,-1 0,-2 1,-2 1,0 2,1 2,2 0,3 2,2 4,1 1,-1 1,-1 2,-2 1,-1 1,-2 1,-3 -1,-1 -2,0 -3,0 -4,0 -8,0 -12,-1 0,-1 -1,-1 -1,-2 1,0 1,0 2,0 2,0 4,0 7,0 4,1 8,-1 12,-4 2,-2 3,-4 5,-7 7,-11 9,-24 8,-38 0,-1 0,-2 -1,-3 -2,-7 -6,-12 -12,-16 -6,-5 -11,-12 -14,-19 -3,-9 -6,-18 -9,-28 -1,-2 -2,-3 -5,-2 -2,0 -4,1 -5,1 -6,0 -9,2 -13,5 -8,6 -17,12 -28,12 -6,0 -12,0 -18,0 -9,-1 -17,-4 -24,-10 -4,-4 -7,-7 -12,-10 -2,-3 -2,-1 -3,1 -2,10 -5,20 -10,30 -3,7 -4,16 -9,24 -6,8 -7,16 -7,26 -1,13 5,23 12,33 3,3 6,6 11,6 3,-1 6,0 9,0 1,0 2,0 2,2 0,1 -1,1 -2,1 -3,0 -6,0 -9,-1 -1,0 -2,-1 -3,0 -3,4 -1,9 4,10 2,1 2,0 2,-1 0,-2 0,-4 0,-6 1,2 1,4 1,6 0,2 1,3 2,3 2,0 2,-1 2,-2 0,-1 0,-2 1,-2 1,0 1,1 1,1 0,1 0,3 1,3 2,0 3,-1 4,-3 0,-1 1,-3 0,-4 -1,-4 -3,-8 -4,-12 -2,-7 -5,-14 -6,-21 0,-7 -1,-14 -1,-20 0,-1 -1,-2 1,-3 1,3 2,7 2,11 2,7 1,13 3,20 3,7 6,15 8,22 1,3 2,5 1,8 -1,3 0,6 3,8 1,0 1,1 2,1 1,0 1,-2 1,-2 0,-2 0,-4 1,-6 0,-1 1,-2 2,-2 1,0 0,1 0,2 0,1 0,2 -1,3 0,8 0,8 8,9 3,0 3,-1 2,-3 -1,-4 -1,-7 1,-11zm169 -188l0 0c-1,-8 -5,-16 -11,-23 -7,-9 -16,-16 -26,-22 -8,-5 -15,-11 -21,-18 -4,-6 -9,-12 -13,-18 0,0 -1,-1 -1,-1 -1,0 -1,1 -1,2 0,3 0,6 0,9 0,12 1,23 3,35 2,11 5,22 10,32 2,4 4,8 6,11 7,8 16,13 25,17 0,1 2,0 3,1 4,0 8,-2 12,-4 8,-3 13,-11 14,-21zm-198 -107l0 0c-1,0 -1,0 -2,0 -10,3 -20,7 -30,12 -10,6 -20,11 -30,17 -16,9 -27,22 -35,38 -2,3 -3,5 -3,8 -2,8 1,15 4,22 4,8 10,10 18,7 6,-2 10,-5 15,-6 3,-2 4,-3 4,-7 1,-22 10,-40 27,-55 6,-7 13,-13 19,-20 5,-5 9,-10 13,-16zm5 166l0 0c6,6 12,10 20,12 9,2 18,2 26,2 8,0 15,-4 21,-8 1,-1 1,-1 1,-2 -23,2 -45,1 -68,-4zm149 50l0 0c0,-1 1,-2 0,-3 0,-2 1,-4 -1,-4 -1,-1 -2,1 -3,3 -1,1 -2,2 -3,4 -1,2 -3,5 -5,7 -2,1 -2,3 -1,5 1,2 2,5 1,7 0,1 0,3 1,3 1,0 2,-1 3,-2 5,-5 9,-12 8,-20z"/>
  <path class="fil4" d="M142 146c-2,-1 -4,0 -5,3 -3,6 -8,9 -14,13 -5,3 -10,0 -10,-6 0,-6 -1,-11 -2,-16 0,-3 -1,-4 -4,-3 -7,0 -13,-4 -15,-11 -1,0 -1,-1 -1,-2 0,-1 0,-1 1,-1 0,-1 1,0 1,0 0,1 0,1 1,1 4,10 15,12 22,4 2,-2 3,-4 5,-6 0,-2 1,-3 3,-2 2,0 2,1 2,3 0,0 0,1 0,2 0,4 -1,8 3,11 6,3 11,7 18,5 4,-1 7,-3 10,-6 1,0 1,0 2,-1 1,0 2,-1 3,0 0,1 0,3 -1,4 -2,2 -5,3 -7,5 -3,2 -7,3 -12,3zm-22 13l0 0c0,0 1,0 1,-1 5,-3 10,-6 13,-12 1,-2 0,-3 -2,-4 -5,-2 -9,-6 -10,-12 0,-1 -1,-1 -1,-1 -2,2 -5,4 -7,6 0,0 0,1 0,1 2,7 3,13 2,20 0,2 1,3 4,3z"/>
  <path class="fil4" d="M123 100c4,0 8,0 12,1 6,2 7,6 3,10 -2,2 -4,4 -7,5 -3,3 -6,3 -10,0 -3,-3 -5,-7 -6,-11 -1,-3 1,-5 5,-5 1,0 2,0 3,0zm3 4l0 0c-2,1 -6,-1 -7,1 -1,2 1,5 3,7 3,3 5,3 8,0 2,-1 3,-2 5,-4 1,-1 0,-2 -1,-3 -3,0 -5,0 -8,-1z"/>
  <path class="fil4" d="M173 88c6,0 9,4 12,8 2,2 2,5 3,7 0,1 0,3 -2,3 -1,1 -2,1 -3,0 -1,-1 -3,-2 -4,-4 -3,-3 -6,-6 -11,-7 -2,-1 -3,-1 -3,-3 0,-3 1,-3 3,-3 1,-1 3,-1 5,-1zm8 10l0 0c-2,-4 -5,-7 -9,-6 3,2 6,4 9,6z"/>
  <path class="fil4" d="M102 73c4,0 8,1 10,5 1,1 2,2 1,3 -1,1 -2,2 -3,1 -6,-1 -12,0 -17,3 -2,0 -4,0 -5,-2 -2,-1 0,-3 1,-4 3,-4 7,-6 13,-6zm-7 6l0 0c3,-1 6,-1 9,-1 -3,-2 -6,-2 -9,1z"/>
  <path class="fil4" d="M171 113c-2,-2 -3,-5 -5,-7 -3,-5 -7,-9 -13,-11 -14,-5 -28,-7 -42,-6 -2,0 -4,1 -6,1 2,-2 4,-3 7,-3 14,-1 27,1 40,5 10,4 15,12 20,21 -1,0 -1,0 -1,0z"/>
 </g>
</svg>
