<?xml version="1.0" encoding="UTF-8"?>
<!DOCTYPE svg PUBLIC "-//W3C//DTD SVG 1.1//EN" "http://www.w3.org/Graphics/SVG/1.1/DTD/svg11.dtd">
<!-- Creator: CorelDRAW X7 -->
<svg xmlns="http://www.w3.org/2000/svg" xml:space="preserve" width="2.24021in" height="1.22047in" version="1.1" style="shape-rendering:geometricPrecision; text-rendering:geometricPrecision; image-rendering:optimizeQuality; fill-rule:evenodd; clip-rule:evenodd"
viewBox="0 0 237 129"
 xmlns:xlink="http://www.w3.org/1999/xlink">
 <defs>
  <style type="text/css">
   <![CDATA[
    .fil2 {fill:#704C28;fill-rule:nonzero}
    .fil1 {fill:#78D6D0;fill-rule:nonzero}
    .fil0 {fill:#C5EDEA;fill-rule:nonzero}
   ]]>
  </style>
 </defs>
 <g id="Layer_x0020_1">
  <metadata id="CorelCorpID_0Corel-Layer"/>
  <path class="fil0" d="M227 87c0,0 0,0 0,0 -1,0 -1,0 -1,-1 0,0 0,0 0,0 0,0 0,0 0,0 -4,-3 -7,-7 -11,-9 -5,-4 -10,-7 -15,-10 0,-1 0,-3 0,-4 0,0 0,-1 -1,-1l0 -1c1,-1 1,-3 0,-4l-2 -9c0,-1 -1,-2 -2,-3 0,-1 0,-3 0,-4 1,-8 -10,-10 -11,-2 -1,5 0,9 1,14 0,0 0,1 0,1 1,2 1,3 1,4 -7,-4 -14,-7 -21,-10 -8,-3 -18,-7 -26,-3 -1,0 -2,0 -3,0l-3 0c0,0 0,0 0,0 -1,0 -2,0 -3,0 0,0 0,0 -1,0 0,0 0,0 0,0 0,0 -1,0 -1,0 0,0 0,0 0,0 -1,0 -1,1 -1,1 -1,0 -1,0 -1,0 0,0 0,0 0,0 -1,0 -1,0 -1,0 0,1 0,1 0,1 -1,0 -1,0 -2,1 0,0 0,0 0,0 -2,0 -4,0 -5,1 0,0 -1,0 -1,0 -3,0 -6,2 -8,5 0,0 -1,0 -1,0 -6,0 -11,6 -12,12 -3,3 -5,8 -4,12 0,0 0,0 0,0 -4,3 -7,9 -6,13 0,7 5,14 10,15 4,5 8,5 13,7 1,1 2,1 3,1 1,3 4,5 7,6 9,3 26,7 40,4 8,3 18,4 26,2 7,2 15,1 21,-2 5,-3 12,-7 17,-10 15,-8 16,-14 4,-27z"/>
  <path class="fil1" d="M165 69c-1,-3 -5,-9 -10,-8 -4,2 -3,9 -2,12 1,3 2,5 3,8 1,2 2,4 4,5 1,0 1,1 2,1 1,1 3,1 4,0 0,-1 1,-1 1,-2 0,0 0,0 0,0 0,-1 1,-1 1,-1 1,-5 0,-11 -3,-15z"/>
  <path class="fil1" d="M201 53c0,-1 0,-1 0,-1 0,-4 0,-7 -1,-10 -1,-2 -4,-2 -5,-1 0,-1 -1,-2 -3,-3 -1,0 -4,1 -4,3 0,0 0,1 0,2 0,0 0,0 0,0 0,2 0,6 0,9 1,2 1,4 2,7 0,1 2,2 4,2 0,-1 0,-1 1,-1 0,0 0,1 0,1 1,2 4,2 5,0 2,-3 2,-5 1,-8z"/>
  <path class="fil1" d="M233 100c0,-3 -1,-5 -4,-5 0,0 0,0 0,0 0,0 0,-1 0,-1 -6,-7 -13,-12 -19,-18 -6,-4 -11,-8 -16,-12 -1,0 -1,-1 -2,-1 0,-1 0,-2 -2,-2 0,-1 -1,-1 -1,-1 -15,-3 -19,14 -17,27 0,1 0,1 0,2 1,7 2,13 3,20 0,0 0,0 0,0 -2,1 -5,2 -7,3 -24,2 -48,-2 -69,-14 -2,-1 -3,-2 -5,-4 -1,0 -2,0 -3,0 0,0 -1,-1 -2,-1 -2,-2 -5,0 -4,3 3,13 19,18 30,22 8,3 16,5 25,5 0,0 1,0 1,0 2,1 4,1 6,1 3,0 7,0 10,0 0,0 0,0 1,1 2,0 4,0 6,0 0,0 1,0 1,0 7,1 13,0 20,-1 5,0 11,0 16,-2 6,-1 12,-3 18,-5 0,-1 1,-1 1,-1 3,-2 6,-4 8,-6 1,0 2,0 3,-1 1,-3 2,-6 2,-9z"/>
  <path class="fil2" d="M58 75c9,0 19,-1 28,-2 2,-1 4,-1 5,-3 8,-17 22,-24 40,-28 10,-2 20,-1 30,3 6,2 11,3 17,5 2,1 3,1 2,-2 0,-2 -1,-4 0,-7 1,-3 3,-6 7,-7 3,-1 6,0 9,3 5,6 6,13 6,21 -1,4 0,7 4,10 8,7 17,15 25,23 8,9 8,9 1,19 -4,5 -9,8 -15,11 -16,7 -32,9 -49,8 -19,-1 -38,-2 -56,-9 -11,-5 -19,-12 -26,-21 -2,-2 -3,-4 -2,-7 1,-4 2,-7 3,-11 1,-4 0,-4 -4,-4 -11,2 -22,3 -33,2 -9,0 -18,-2 -26,-6 -5,-2 -9,-5 -12,-10 -8,-11 -13,-24 -12,-38 1,-14 11,-29 33,-24 4,1 8,2 12,5 7,4 8,12 2,18 -3,3 -6,6 -10,7 -2,1 -4,2 -5,0 -1,-2 1,-3 3,-4 3,-2 6,-3 9,-6 3,-4 3,-8 -1,-11 -8,-5 -16,-7 -25,-4 -7,2 -13,10 -13,19 -1,14 3,26 11,37 7,8 16,11 26,12 5,1 10,1 16,1zm122 50l0 0c8,0 15,-1 22,-4 9,-3 18,-5 25,-12 7,-5 7,-9 1,-14 -9,-8 -17,-16 -26,-24 -9,-7 -19,-14 -31,-18 -4,-1 -8,-3 -13,-4 -19,-7 -36,-3 -52,8 -6,3 -11,9 -11,17 0,1 -1,1 -2,2 -1,0 -1,1 -2,2 -1,5 -3,10 -4,14 -1,3 0,5 2,6 11,12 24,19 39,22 17,4 35,4 52,5zm18 -70l0 0c-1,-4 -1,-9 -4,-13 -1,-3 -3,-5 -6,-4 -3,1 -4,4 -4,7 0,6 4,13 11,15 1,1 2,0 2,-1 1,-1 1,-2 1,-4z"/>
  <path class="fil2" d="M141 70c0,-5 1,-9 6,-11 5,-1 10,-1 15,2 2,2 4,5 5,7 2,3 3,6 5,9 3,4 -1,15 -6,18 -1,1 -2,1 -4,0 -6,-1 -12,-4 -15,-9 -4,-5 -6,-10 -6,-16zm4 0l0 0c0,8 6,17 14,20 4,1 6,1 8,-3 2,-7 -4,-21 -10,-24 -7,-2 -12,0 -12,7z"/>
  <path class="fil2" d="M181 92c0,3 -1,3 -3,4 -2,0 -4,-1 -4,-4 0,-2 2,-3 4,-3 2,0 3,1 3,3z"/>
  <path class="fil2" d="M217 101c0,1 -1,2 -2,2 -2,0 -3,0 -3,-2 0,-2 1,-3 3,-3 1,0 2,1 2,3z"/>
  <path class="fil2" d="M202 74c1,0 2,1 2,3 -1,1 -2,1 -3,1 -1,0 -2,-1 -2,-2 0,-1 1,-2 3,-2z"/>
 </g>
</svg>
