<?xml version="1.0" encoding="UTF-8"?>
<!DOCTYPE svg PUBLIC "-//W3C//DTD SVG 1.1//EN" "http://www.w3.org/Graphics/SVG/1.1/DTD/svg11.dtd">
<!-- Creator: CorelDRAW X7 -->
<svg xmlns="http://www.w3.org/2000/svg" xml:space="preserve" width="1.01148in" height="0.999563in" version="1.1" style="shape-rendering:geometricPrecision; text-rendering:geometricPrecision; image-rendering:optimizeQuality; fill-rule:evenodd; clip-rule:evenodd"
viewBox="0 0 30 29"
 xmlns:xlink="http://www.w3.org/1999/xlink">
 <defs>
  <style type="text/css">
   <![CDATA[
    .fil0 {fill:#704C28;fill-rule:nonzero}
   ]]>
  </style>
 </defs>
 <g id="Layer_x0020_1">
  <metadata id="CorelCorpID_0Corel-Layer"/>
  <path class="fil0" d="M27 15c-1,-2 -4,-3 -6,-5 -4,-2 -9,-1 -11,4 -1,2 -1,4 0,7 1,1 2,4 3,6 0,0 0,0 0,0 1,1 2,2 3,2 2,0 3,-1 4,-3 0,0 0,0 0,0 1,-1 1,-1 1,-1 0,-1 1,-1 1,-2 0,0 0,0 1,0 0,0 0,-1 0,-1 1,0 1,0 1,0 1,0 2,-1 3,-2 0,0 0,0 1,0 1,-2 1,-4 -1,-5z"/>
  <path class="fil0" d="M2 14c-2,0 -2,4 0,4 3,0 2,-4 0,-4z"/>
  <path class="fil0" d="M7 5c-1,0 -1,0 -1,0 0,0 0,0 0,0 0,0 0,0 0,0 0,0 0,0 0,0 -2,0 -2,3 0,3 0,0 0,0 0,0 0,0 0,0 0,0 0,0 0,0 1,0 0,0 0,0 0,0 2,0 2,-3 0,-3z"/>
  <path class="fil0" d="M15 0c0,0 0,0 0,0 0,0 0,0 0,0 -2,0 -2,4 0,4 0,0 0,0 0,0 0,0 0,0 0,0 2,0 2,-4 0,-4z"/>
  <path class="fil0" d="M23 2c-2,0 -2,4 0,4 2,0 2,-4 0,-4z"/>
  <path class="fil0" d="M8 17c1,-2 1,-3 1,-5 1,-1 1,-2 3,-3 2,-1 5,-1 8,0 2,1 4,2 6,3 1,1 2,1 2,2 2,2 2,4 0,6 -1,2 -2,2 -3,3 -2,1 -3,2 -4,3 -1,2 -3,4 -5,3 -1,0 -3,0 -3,-1 -3,-3 -5,-7 -5,-11zm2 0l0 0c0,4 1,7 3,10 1,1 2,1 3,1 2,0 3,-1 4,-3 1,-1 2,-3 4,-3 2,-1 3,-2 3,-3 2,-1 2,-2 0,-4 0,0 -1,-1 -1,-1 -3,-2 -5,-4 -8,-4 -2,-1 -4,0 -6,1 -1,1 -1,2 -2,3 0,1 0,2 0,3z"/>
  <path class="fil0" d="M3 6c0,-1 1,-2 3,-2 1,0 3,1 3,2 0,1 -1,3 -3,3 -2,0 -3,-1 -3,-3zm3 2l0 0c1,0 2,-1 2,-2 0,0 -1,-1 -2,-1 -1,0 -2,0 -2,1 0,1 1,2 2,2z"/>
  <path class="fil0" d="M15 4c-1,0 -2,0 -2,-2 0,-1 1,-2 2,-2 2,0 3,1 3,2 0,1 -1,2 -3,2zm0 -3l0 0c-1,0 -1,1 -1,1 0,1 0,1 1,1 1,0 2,0 2,-1 0,-1 -1,-1 -2,-1z"/>
  <path class="fil0" d="M2 18c-1,0 -2,-1 -2,-2 0,-1 1,-2 2,-2 2,0 3,1 3,2 0,2 -1,2 -3,2zm1 -2l0 0c0,0 0,-1 -1,-1 0,0 -1,0 -1,1 0,1 1,1 1,1 1,0 1,0 1,-1z"/>
  <path class="fil0" d="M21 4c0,-2 1,-2 2,-2 1,0 2,1 2,2 0,1 0,2 -2,2 -1,0 -2,-1 -2,-2zm2 -1l0 0c0,0 -1,0 -1,1 0,0 1,1 1,1 1,0 1,0 1,-1 0,-1 0,-1 -1,-1z"/>
 </g>
</svg>
