<?xml version="1.0" encoding="UTF-8"?>
<!DOCTYPE svg PUBLIC "-//W3C//DTD SVG 1.1//EN" "http://www.w3.org/Graphics/SVG/1.1/DTD/svg11.dtd">
<!-- Creator: CorelDRAW X7 -->
<svg xmlns="http://www.w3.org/2000/svg" xml:space="preserve" width="2.17973in" height="1.35702in" version="1.1" style="shape-rendering:geometricPrecision; text-rendering:geometricPrecision; image-rendering:optimizeQuality; fill-rule:evenodd; clip-rule:evenodd"
viewBox="0 0 1048 653"
 xmlns:xlink="http://www.w3.org/1999/xlink">
 <defs>
  <style type="text/css">
   <![CDATA[
    .fil3 {fill:#593A1C;fill-rule:nonzero}
    .fil0 {fill:#F29C1F;fill-rule:nonzero}
    .fil1 {fill:#FDB53F;fill-rule:nonzero}
    .fil2 {fill:#FDEBC8;fill-rule:nonzero}
   ]]>
  </style>
 </defs>
 <g id="OBJECTS">
  <metadata id="CorelCorpID_0Corel-Layer"/>
  <path class="fil0" d="M1026 454c6,12 13,23 10,37 -4,27 -25,35 -46,42 -8,3 -16,4 -24,6 -2,0 -5,-1 -7,0 -64,17 -126,40 -188,60 -57,19 -115,33 -176,35 -6,0 -13,-2 -18,2 -41,4 -81,-9 -120,-16 -55,-10 -109,-22 -163,-32 -30,-7 -59,-21 -84,-41 -6,-5 -12,-7 -19,-7 -16,1 -31,-1 -46,-2 -15,-2 -21,-7 -18,-22 11,-17 30,-23 48,-29 10,-3 18,-7 24,-16 7,-9 18,-13 30,-14 38,-2 77,-5 113,-22 24,-10 51,-16 70,-34 19,-17 41,-29 64,-39 82,-34 164,-67 245,-100 44,-18 88,-31 134,-42 5,-1 6,-4 7,-8 2,-15 10,-24 24,-27 15,-2 27,3 37,15 9,11 13,27 26,36 -3,10 4,17 6,26 -3,2 -2,4 -1,7 7,26 14,51 23,77 14,37 22,77 49,108z"/>
  <path class="fil1" d="M918 139c-1,-3 -1,-5 -1,-7 -14,-14 -33,-25 -56,-33 -3,-1 -6,-2 -7,-5 -3,-16 -17,-21 -30,-27 -42,-18 -87,-30 -132,-42 -14,-4 -27,-8 -41,-12 -1,5 -6,9 -12,8 -30,-5 -60,-9 -90,-12 -43,5 -87,8 -130,-1 -7,1 -14,3 -21,5 -5,2 -10,2 -15,0 -1,-1 -2,-1 -3,-2 -1,2 -3,4 -5,5 -25,10 -48,17 -74,19 -2,0 -4,0 -5,-1 -18,10 -36,21 -52,35 -3,3 -7,5 -11,7 -18,7 -33,19 -44,35 -18,27 -29,57 -38,88 -6,17 -9,35 -21,50 -11,13 -19,29 -27,43 -17,29 -23,63 -45,88 -17,19 -22,43 -20,68 1,17 9,32 24,41 21,11 42,21 65,27 11,-17 30,-23 48,-29 10,-3 18,-7 24,-16 7,-9 18,-13 30,-14 38,-2 77,-5 113,-22 24,-10 51,-16 70,-34 19,-17 41,-29 64,-39 82,-34 164,-67 245,-100 44,-18 88,-31 134,-42 5,-1 6,-4 7,-8 2,-15 10,-24 24,-27 15,-2 27,3 37,15 9,11 13,27 26,36 2,-4 3,-8 4,-13 -11,-28 -23,-56 -35,-84zm-689 174l0 0c-7,0 -11,-3 -13,-9 -1,-5 3,-7 7,-9 6,2 11,6 13,12 2,5 -3,6 -7,6zm457 -119l0 0c-49,0 -99,9 -148,3 -60,-7 -120,-3 -179,-12 -14,-2 -28,-1 -42,-3 -26,-4 -38,-27 -25,-50 1,-2 4,-5 5,-8 7,-42 41,-47 74,-51 31,-4 63,-6 95,-8 35,-3 68,10 103,12 38,2 76,10 114,8 29,0 53,21 54,48 1,36 -18,61 -51,61z"/>
  <path class="fil1" d="M577 636c5,-4 12,-2 18,-2 61,-2 119,-16 176,-35 62,-20 124,-43 188,-60 2,-1 5,0 7,0 -22,16 -48,26 -73,38 -49,23 -99,41 -154,42 -35,1 -67,18 -102,18 -20,1 -40,4 -60,-1z"/>
  <path class="fil1" d="M985 330c-2,-3 -4,-6 -4,-10 0,-23 -14,-40 -26,-58 -3,2 -2,4 -1,7 7,26 14,51 23,77 14,37 22,77 49,108 0,0 0,-1 0,-2 -18,-39 -31,-80 -41,-122z"/>
  <path class="fil0" d="M466 65c35,-3 68,10 103,12 38,2 76,10 114,8 29,0 53,21 54,48 1,36 -18,61 -51,61 -49,0 -99,9 -148,3 -60,-7 -120,-3 -179,-12 -14,-2 -28,-1 -42,-3 -26,-4 -38,-27 -25,-50 1,-2 4,-5 5,-8 7,-42 41,-47 74,-51 31,-4 63,-6 95,-8z"/>
  <path class="fil2" d="M223 295c6,2 11,6 13,12 2,5 -3,6 -7,6 -7,0 -11,-3 -13,-9 -1,-5 3,-7 7,-9z"/>
  <path class="fil3" d="M621 651c-84,6 -166,-3 -248,-24 -24,-7 -50,-11 -75,-17 -89,-23 -168,-66 -244,-117 -15,-10 -30,-20 -46,-30 -5,-3 -11,-8 -7,-14 15,-21 17,-48 29,-71 23,-43 47,-86 72,-128 18,-30 33,-62 44,-95 8,-27 25,-49 40,-72 17,-26 47,-36 75,-46 98,-37 199,-39 301,-36 49,2 99,9 147,21 23,5 47,8 69,16 31,12 62,25 92,40 33,17 52,44 63,79 18,52 38,102 56,154 23,62 41,127 59,191 2,9 -5,14 -11,20 -33,29 -72,48 -113,61 -43,15 -87,26 -131,38 -37,11 -152,29 -172,30zm287 -454l0 0c-18,20 -36,32 -55,43 -46,25 -96,37 -148,46 -132,23 -263,29 -390,-25 -51,-22 -95,-51 -125,-98 -7,-10 -10,-9 -16,1 -13,21 -22,45 -32,68 -26,62 -65,118 -93,179 -22,47 -27,41 25,72 32,20 67,34 101,49 81,37 165,63 252,81 129,27 257,20 382,-16 70,-19 138,-44 201,-79 9,-5 11,-7 7,-16 -13,-29 -21,-59 -28,-90 -9,-42 -18,-85 -35,-125 -11,-27 -20,-54 -29,-82 -8,-26 -16,-53 -37,-75 -15,-15 -33,-24 -51,-35 -53,-33 -113,-44 -172,-56 -76,-16 -154,-13 -232,-11 -74,1 -143,20 -209,55 -43,23 -46,70 -8,97 1,1 60,41 77,52 6,4 158,47 206,49 90,4 162,-12 249,-27 43,-7 86,-13 120,-44 11,-10 23,-11 40,-13z"/>
  <path class="fil3" d="M511 227c-57,-1 -134,-12 -207,-42 -103,-35 -11,-94 -8,-96 35,-14 71,-24 109,-25 100,-3 199,6 297,29 25,6 48,17 71,28 159,53 -136,123 -262,106zm-1 -127l0 0c-49,-2 -88,3 -127,7 -27,2 -53,7 -78,17 -8,3 -18,6 -19,16 0,9 11,12 18,16 14,7 30,8 44,13 48,17 98,21 147,22 59,1 118,-4 177,-12 21,-3 42,-8 64,-6 10,1 19,-4 29,-8 4,-2 10,-4 9,-10 0,-5 -5,-7 -9,-9 -15,-7 -29,-15 -44,-19 -72,-19 -145,-34 -211,-27z"/>
  <path class="fil3" d="M406 401c-4,-24 16,-25 27,-33 10,-9 24,-7 34,1 12,10 17,24 12,38 -4,12 -4,18 11,20 13,3 22,12 24,27 1,14 -9,22 -20,27 -23,10 -47,16 -72,16 -16,0 -21,-7 -19,-23 1,-25 -2,-50 3,-73zm60 47l0 0c-9,0 -18,1 -27,3 -7,2 -11,6 -9,14 2,8 8,6 13,5 10,-2 21,-5 31,-8 5,-1 14,-2 13,-8 -1,-8 -10,-6 -16,-6 -2,-1 -3,0 -5,0zm-39 -32l0 0c1,3 -1,8 6,8 9,-1 25,-19 25,-27 -1,-7 -4,-12 -11,-11 -10,0 -20,16 -20,30z"/>
  <path class="fil3" d="M298 429c-1,-16 3,-31 1,-46 -2,-15 11,-24 24,-29 14,-6 28,-3 39,9 10,10 13,24 12,38 -2,18 -9,33 -20,47 -9,12 -20,22 -38,17 -17,-6 -19,-21 -18,-36zm23 -8l0 0c0,5 -1,10 0,15 0,6 4,7 10,5 15,-8 28,-43 20,-59 -2,-5 -6,-9 -13,-9 -7,-1 -10,5 -11,11 -4,12 -6,25 -6,37z"/>
  <path class="fil3" d="M559 417c8,-8 10,-18 13,-27 2,-4 5,-8 11,-8 6,1 9,6 9,12 0,7 -1,14 -4,20 -11,28 -22,56 -34,84 -2,7 -7,12 -14,10 -7,-2 -9,-8 -8,-14 0,-4 0,-9 2,-13 14,-23 8,-46 -2,-69 -4,-7 -6,-15 -6,-23 0,-4 1,-9 6,-10 5,-2 9,1 11,5 5,11 11,21 16,33z"/>
  <path class="fil3" d="M262 343c-6,2 -15,-9 -22,-1 -4,6 -5,15 -7,22 -7,20 -14,40 -17,61 -1,6 -2,14 -11,13 -8,-1 -9,-8 -9,-15 0,-7 1,-15 3,-22 4,-14 8,-29 14,-42 8,-20 11,-37 -11,-49 -4,-1 -6,-5 -8,-8 -4,-6 -10,-13 -3,-18 7,-6 11,3 15,7 18,16 38,25 60,32 7,2 16,3 15,12 -2,9 -10,7 -19,8z"/>
 </g>
</svg>
