<?xml version="1.0" encoding="UTF-8"?>
<!DOCTYPE svg PUBLIC "-//W3C//DTD SVG 1.1//EN" "http://www.w3.org/Graphics/SVG/1.1/DTD/svg11.dtd">
<!-- Creator: CorelDRAW X7 -->
<svg xmlns="http://www.w3.org/2000/svg" xml:space="preserve" width="1.40391in" height="1.2444in" version="1.1" style="shape-rendering:geometricPrecision; text-rendering:geometricPrecision; image-rendering:optimizeQuality; fill-rule:evenodd; clip-rule:evenodd"
viewBox="0 0 3244 2876"
 xmlns:xlink="http://www.w3.org/1999/xlink">
 <defs>
  <style type="text/css">
   <![CDATA[
    .fil0 {fill:#3B210F;fill-rule:nonzero}
   ]]>
  </style>
 </defs>
 <g id="_2">
  <metadata id="CorelCorpID_0Corel-Layer"/>
  <path class="fil0" d="M3017 2071c-54,-89 -77,-63 -45,-331 32,-268 -216,-459 -223,-522 0,-2 0,-4 0,-6 65,-10 136,-30 210,-63 188,-86 259,-314 232,-485 -26,-160 -129,-265 -275,-281 -42,-4 -80,26 -84,68 -5,42 26,80 68,85 102,11 131,100 140,152 18,115 -32,270 -144,321 -51,23 -99,38 -144,47 -6,-1 -13,-1 -20,-1 -276,-10 -705,-39 -1162,-130 -219,-54 -419,-35 -568,-351 -53,-114 -122,-174 -159,-274 -46,-129 -56,-285 -88,-286 -58,-2 -125,180 -125,180 0,0 -39,-196 -90,-194 -51,2 -63,278 -63,278 -44,7 -172,21 -184,104 -13,82 -102,133 -102,133 -66,0 -158,-2 -180,18 -21,20 -5,173 -5,173 0,198 331,179 395,166 64,-13 467,-24 398,496 -26,274 -72,372 26,523 97,151 111,387 105,591 -6,204 -217,172 -217,262 0,89 74,95 182,47 108,-47 102,-226 153,-197 51,28 16,134 16,134 -115,3 -124,82 -124,82 0,90 117,71 251,42 134,-29 -66,-888 -3,-924 226,35 604,-36 757,-208 32,382 135,495 192,593 109,322 -291,360 -208,501 86,172 268,-93 357,-188 89,-96 90,-271 55,-392 -35,-121 102,-477 128,-373 0,3 1,6 1,8 60,373 466,493 597,687 132,195 -125,165 -125,246 0,81 187,53 187,53 267,0 2,-624 -112,-784z"/>
 </g>
</svg>
