<?xml version="1.0" encoding="UTF-8"?>
<!DOCTYPE svg PUBLIC "-//W3C//DTD SVG 1.1//EN" "http://www.w3.org/Graphics/SVG/1.1/DTD/svg11.dtd">
<!-- Creator: CorelDRAW X7 -->
<svg xmlns="http://www.w3.org/2000/svg" xml:space="preserve" width="2.82857in" height="2.12806in" version="1.1" style="shape-rendering:geometricPrecision; text-rendering:geometricPrecision; image-rendering:optimizeQuality; fill-rule:evenodd; clip-rule:evenodd"
viewBox="0 0 1752 1318"
 xmlns:xlink="http://www.w3.org/1999/xlink">
 <defs>
  <style type="text/css">
   <![CDATA[
    .fil2 {fill:#3493B8;fill-rule:nonzero}
    .fil4 {fill:#593A1C;fill-rule:nonzero}
    .fil0 {fill:#D17C16;fill-rule:nonzero}
    .fil1 {fill:#FDB53F;fill-rule:nonzero}
    .fil3 {fill:#FDEBC8;fill-rule:nonzero}
   ]]>
  </style>
 </defs>
 <g id="OBJECTS">
  <metadata id="CorelCorpID_0Corel-Layer"/>
  <path class="fil0" d="M1752 26c-18,-2 -33,7 -46,18 -24,19 -50,27 -79,18 -41,-13 -66,1 -80,41 -18,-35 -7,-71 28,-85 60,-23 119,-27 177,8z"/>
  <path class="fil1" d="M612 816c-7,-34 -25,-61 -48,-85 -10,-10 -15,-22 -21,-35 -17,-41 -36,-82 -55,-122 -13,-26 -25,-52 -14,-82 4,-11 3,-23 2,-35 -2,-54 33,-82 72,-106 34,-21 71,-30 110,-34 31,-4 58,-19 87,-30 30,-12 59,-24 88,-37 56,-25 117,-37 176,-57 25,-8 49,-18 73,-27 41,-13 79,-1 118,7 13,2 22,14 31,25 40,48 58,104 68,163 4,19 9,38 20,54 6,33 11,66 9,99 -11,28 -23,55 -34,83l-1 1c-1,0 -2,1 -2,2 -18,13 -36,28 -60,31 -15,2 -27,8 -39,15 -26,16 -50,32 -77,44 -70,32 -141,61 -212,91l-1 1c-1,0 -3,1 -4,2l-1 0c-2,1 -3,1 -4,2l-1 0 -1 1c-3,1 -7,3 -11,5 -2,0 -5,1 -7,2l0 0c-6,0 -12,2 -16,7l0 -1c-34,11 -66,24 -94,47l0 1c-2,1 -3,2 -4,2 -22,9 -44,20 -68,19 -31,-11 -62,-23 -79,-53z"/>
  <path class="fil2" d="M1493 590c-2,-7 -3,-14 -5,-21 -2,-8 3,-15 9,-17 0,-2 0,-4 0,-6 -25,-22 -50,-44 -67,-72 -15,-7 -24,-17 -33,-31 -4,-6 -9,-11 -14,-15 -19,-14 -39,-28 -64,-13 6,33 11,66 9,99 14,45 10,59 -34,83 0,0 -1,1 -1,1 0,1 -1,1 -2,2 -18,13 -36,28 -60,31 -15,2 -27,8 -39,15 -26,16 -50,32 -77,44 -70,32 -141,61 -212,91 0,0 -1,1 -1,1 -1,0 -3,1 -4,2 0,0 -1,0 -1,0 -2,1 -3,1 -4,2 0,0 -2,1 -2,1 -3,1 -7,3 -11,5 -2,2 -4,3 -7,2 -4,5 -9,8 -16,7 -27,23 -57,41 -94,46 0,0 0,1 0,1 -2,1 -3,2 -4,2 -22,9 -44,20 -68,19 -30,12 -49,-1 -65,-25 -5,-7 -11,-14 -17,-20 -16,-8 -31,-7 -45,5 -1,3 -1,7 -3,10 1,3 1,7 -2,11 -4,4 -7,10 -11,15 0,4 -1,7 -5,9 -1,1 -2,1 -3,2 0,1 -1,2 -2,3 -2,2 -6,4 -9,4 -8,5 -15,9 -23,14 -4,3 -8,3 -12,2 -21,10 -44,19 -67,26 -31,30 -64,57 -111,61 -9,1 -18,5 -27,10 -59,29 -120,55 -176,89 -21,12 -47,19 -59,43 -9,18 -17,36 -26,54 -13,25 -15,51 3,73 21,25 48,40 82,36 39,-3 76,-24 117,-17 4,1 9,-1 13,-3 33,-20 68,-39 91,-70 17,-23 37,-38 61,-51 6,-3 13,-7 19,-11 68,-47 139,-89 205,-138 9,-6 15,-8 23,1 40,37 88,39 137,22 57,-19 111,-47 167,-69 89,-33 174,-74 257,-121 36,-21 73,-38 97,-74 16,-24 39,-39 62,-53 10,-7 20,-15 31,-20 17,-9 25,-31 42,-35 37,-7 48,-34 58,-62z"/>
  <path class="fil3" d="M691 869c-30,12 -49,-1 -65,-25 -5,-7 -11,-14 -17,-20 1,-3 2,-6 3,-8 17,30 48,42 79,53z"/>
  <path class="fil3" d="M857 800c-27,24 -57,42 -94,47 28,-23 60,-36 94,-47z"/>
  <path class="fil3" d="M873 794c-4,5 -9,9 -16,7 4,-5 10,-7 16,-7z"/>
  <path class="fil3" d="M880 792c-2,2 -4,3 -7,2 2,-1 5,-2 7,-2z"/>
  <path class="fil3" d="M903 781c0,0 -1,1 -1,1 0,0 1,-1 1,-1z"/>
  <path class="fil3" d="M898 784c0,0 -1,0 -1,0 0,0 1,0 1,0z"/>
  <path class="fil3" d="M893 786c0,0 -2,1 -2,1 0,0 1,-1 1,-1l1 0z"/>
  <path class="fil3" d="M763 848c-2,1 -3,2 -4,2 1,0 2,-1 4,-2z"/>
  <path class="fil4" d="M1144 345c9,14 14,28 17,42 21,76 38,153 44,233 1,15 5,17 19,10 40,-20 39,-19 26,-63 -21,-69 -38,-140 -51,-211 -1,-6 -5,-13 1,-20 9,4 9,13 11,20 21,74 41,148 62,221 2,7 0,20 12,17 10,-2 17,-10 17,-23 -1,-32 -8,-62 -18,-93 -12,-38 -29,-74 -45,-110 -6,-14 -13,-28 -11,-44 35,39 50,89 73,135 -7,-54 -11,-107 -29,-159 -3,-8 -15,-21 -2,-26 12,-5 17,11 22,20 10,19 14,40 18,61 2,10 4,18 16,22 5,1 10,6 15,10 41,40 82,79 121,120 38,39 45,87 15,131 -25,39 -56,74 -98,95 -79,39 -150,93 -228,133 -96,50 -195,92 -293,138 -47,22 -99,34 -150,45 -26,5 -51,2 -74,-12 -19,-12 -36,-11 -53,2 -40,29 -80,59 -119,89 -71,53 -140,110 -218,152 -35,18 -69,34 -109,37 -18,2 -35,1 -53,-3 -71,-16 -102,-82 -68,-146 30,-56 72,-99 131,-124 92,-40 187,-72 278,-116 42,-21 84,-41 124,-65 12,-6 13,-15 15,-29 7,-55 -33,-89 -51,-133 -9,-23 -24,-44 -31,-68 -1,-5 -5,-13 2,-16 8,-4 10,5 13,10 49,82 97,166 157,242 20,24 19,25 48,13 6,-3 14,-4 18,-10 -87,-65 -137,-158 -192,-248 32,42 67,83 97,126 30,42 66,77 104,112 10,9 16,1 24,-2 29,-12 30,-12 15,-39 -31,-56 -62,-112 -93,-168 -10,-19 -19,-39 -25,-62 14,0 19,11 23,19 40,73 89,140 118,219 4,11 9,12 18,8 22,-10 43,-19 65,-29 5,-2 12,-3 6,-13 -21,-30 -31,-66 -42,-100 -16,-52 -32,-104 -47,-156 -2,-7 -6,-14 -3,-24 13,9 16,23 21,36 26,63 43,129 66,193 4,12 10,23 12,35 3,18 9,21 25,12 48,-25 96,-48 144,-72 10,-5 14,-10 9,-23 -27,-90 -52,-180 -78,-270 -4,-11 -6,-22 -5,-35 21,17 93,241 101,310 19,-4 28,-12 24,-35 -6,-40 -8,-81 -11,-121 0,-5 -2,-13 4,-15 9,-2 10,7 11,13 10,39 12,80 12,120 0,16 3,18 17,11 58,-33 52,-13 42,-83 -10,-74 -25,-149 -38,-223 -1,-7 -5,-13 2,-23zm177 72l0 0c6,51 11,99 18,146 2,15 -1,24 -11,32 -21,18 -43,33 -67,45 -101,49 -201,99 -302,148 -87,43 -175,82 -266,113 -31,11 -44,6 -64,-19 -15,-18 -30,-36 -44,-55 -2,0 -4,0 -6,0 14,41 -17,51 -41,66 -3,2 -7,5 -10,7 -77,42 -155,81 -236,113 -47,19 -94,37 -140,58 -51,22 -87,62 -113,110 -25,48 -3,93 50,105 14,3 27,4 41,3 37,-2 69,-18 101,-35 77,-40 143,-97 212,-149 42,-31 82,-65 126,-93 26,-17 52,-18 78,-2 16,9 33,13 52,9 51,-11 102,-22 150,-44 102,-48 206,-92 305,-146 77,-42 150,-92 228,-134 25,-13 40,-40 59,-61 -30,11 -56,26 -83,41 -51,30 -103,60 -159,82 -25,9 -49,19 -73,30 -121,57 -244,111 -367,165 -40,18 -78,23 -119,9 -19,-6 -38,-6 -55,9 -3,2 -5,7 -10,4 -5,-4 -3,-9 0,-13 6,-11 17,-16 29,-18 14,-3 28,-2 42,2 36,11 69,6 104,-9 162,-68 319,-146 480,-215 62,-26 116,-66 175,-97 17,-8 34,-16 40,-36 1,-3 4,-7 7,-7 18,0 11,-12 9,-20 -3,-10 -8,-19 -15,-26 -40,-39 -77,-81 -125,-118z"/>
  <path class="fil4" d="M947 749c-1,4 -2,9 -7,9 -7,0 -7,-5 -8,-10 -1,-2 -1,-4 -1,-6 0,-91 -31,-175 -67,-257 -4,-9 -16,-23 -6,-28 9,-5 16,12 21,21 40,74 68,152 71,237 1,9 -1,19 -1,28 0,2 -1,4 -2,6z"/>
  <path class="fil4" d="M701 525c55,91 94,189 124,295 -14,-5 -16,-14 -19,-20 -12,-30 -23,-61 -34,-91 -19,-51 -39,-101 -64,-149 -5,-11 -10,-21 -16,-31 3,-1 6,-2 9,-4z"/>
  <path class="fil4" d="M995 722c-34,-85 -53,-176 -73,-266 40,84 57,175 84,263 -4,1 -7,2 -11,3z"/>
  <path class="fil4" d="M583 597c55,83 126,156 159,253 -45,-90 -115,-164 -159,-253z"/>
  <path class="fil4" d="M470 374c1,2 3,4 5,7 14,32 26,65 25,101 0,5 1,11 -5,12 -6,1 -8,-5 -9,-10 -7,-31 -18,-62 -27,-92 -2,-6 -3,-13 2,-18 2,-2 5,-2 9,0z"/>
  <path class="fil4" d="M537 448c-1,1 -3,3 -6,4 -3,1 -6,-2 -8,-5 -11,-30 -24,-60 -29,-92 -1,-5 0,-11 7,-13 4,-1 8,2 9,6 9,31 22,60 27,92 1,2 0,5 0,8z"/>
  <path class="fil4" d="M488 588c-10,-6 -13,-17 -17,-27 -12,-28 -24,-55 -35,-83 -3,-6 -6,-14 1,-17 8,-3 11,5 13,10 14,39 36,74 38,117z"/>
  <path class="fil4" d="M1264 238c-3,8 3,17 -4,25 -2,-2 -6,-3 -6,-5 -12,-31 -23,-63 -34,-94 -1,-6 -1,-12 6,-14 7,-1 7,6 8,10 9,22 17,44 25,66 1,4 3,8 5,12z"/>
  <path class="fil4" d="M578 408c-2,7 -4,10 -9,10 -5,0 -8,-2 -9,-6 -7,-20 -14,-39 -15,-60 -1,-5 1,-10 6,-12 4,-3 8,-1 10,3 9,21 15,44 17,65z"/>
  <path class="fil4" d="M690 290c10,7 11,18 13,27 2,11 13,28 -3,33 -15,3 -13,-16 -17,-26 -3,-8 -4,-16 -5,-25 0,-7 5,-10 12,-9z"/>
  <path class="fil4" d="M669 347c-1,6 -4,8 -8,8 -4,1 -8,-1 -10,-5 -6,-11 -10,-23 -11,-35 0,-4 1,-8 5,-10 4,-2 8,-2 10,1 9,13 11,28 14,41z"/>
  <path class="fil4" d="M906 215c12,10 23,21 29,35 0,2 -1,6 -3,7 -3,0 -7,0 -9,-2 -10,-8 -18,-18 -25,-29 -1,-3 -2,-7 1,-9 2,-2 5,-2 7,-2z"/>
  <path class="fil4" d="M587 336c8,3 18,32 14,39 -3,3 -6,5 -9,2 -10,-9 -13,-21 -13,-35 0,-4 3,-7 8,-6z"/>
  <path class="fil4" d="M741 325c-2,6 -7,11 -11,7 -8,-10 -11,-23 -10,-36 0,-5 5,-8 9,-5 11,9 13,22 12,34z"/>
  <path class="fil4" d="M1142 150c2,-5 7,-8 10,-3 8,10 13,22 14,34 1,4 -3,6 -7,5 -8,-2 -21,-27 -17,-36z"/>
  <path class="fil4" d="M1101 198c-1,3 -4,5 -6,4 -4,-2 -8,-4 -11,-7 -7,-8 -18,-15 -20,-27 -1,-3 3,-5 6,-3 13,7 23,17 30,29 1,2 1,3 1,4z"/>
  <path class="fil4" d="M1216 181c-23,1 -27,-13 -30,-27 -1,-5 0,-10 6,-12 6,-1 9,4 10,9 3,10 2,21 14,30z"/>
  <path class="fil4" d="M797 314c-3,6 -6,9 -10,5 -10,-8 -17,-18 -18,-31 0,-5 6,-6 9,-4 11,8 16,19 19,30z"/>
  <path class="fil4" d="M1112 144c9,10 18,19 23,31 1,3 1,6 -2,7 -2,1 -5,0 -6,-1 -10,-8 -19,-17 -24,-29 -1,-2 0,-6 2,-8 1,-1 5,0 7,0z"/>
  <path class="fil4" d="M1003 218c-4,5 -8,4 -11,2 -8,-8 -17,-15 -14,-28 1,-6 8,-7 11,-3 8,9 14,18 14,29z"/>
  <path class="fil4" d="M1264 238c-2,-4 -4,-8 -5,-12 1,-6 1,-11 3,-21 12,19 17,34 15,53 -10,-5 -8,-14 -13,-20z"/>
  <path class="fil4" d="M829 297c-6,-7 -11,-16 -12,-27 0,-3 3,-4 6,-3 5,1 16,24 14,28 -2,3 -4,4 -8,2z"/>
  <path class="fil4" d="M1024 205c-8,-12 -23,-11 -20,-25 0,-4 5,-5 8,-3 10,4 15,11 12,28z"/>
  <path class="fil4" d="M951 207c13,6 17,17 22,34 -17,-9 -19,-22 -22,-34z"/>
  <path class="fil4" d="M539 982c-3,14 -10,18 -15,22 -94,72 -186,144 -282,212 -33,23 -69,40 -110,46 -8,1 -17,2 -26,2 -7,0 -16,0 -16,-9 0,-8 8,-9 14,-9 64,-4 114,-36 163,-72 71,-52 141,-104 211,-156 18,-13 37,-25 61,-36z"/>
 </g>
</svg>
