<?xml version="1.0" encoding="UTF-8"?>
<!DOCTYPE svg PUBLIC "-//W3C//DTD SVG 1.1//EN" "http://www.w3.org/Graphics/SVG/1.1/DTD/svg11.dtd">
<!-- Creator: CorelDRAW X7 -->
<svg xmlns="http://www.w3.org/2000/svg" xml:space="preserve" width="1.24606in" height="1.77454in" version="1.1" style="shape-rendering:geometricPrecision; text-rendering:geometricPrecision; image-rendering:optimizeQuality; fill-rule:evenodd; clip-rule:evenodd"
viewBox="0 0 178 254"
 xmlns:xlink="http://www.w3.org/1999/xlink">
 <defs>
  <style type="text/css">
   <![CDATA[
    .fil1 {fill:#3493B8;fill-rule:nonzero}
    .fil3 {fill:#593A1C;fill-rule:nonzero}
    .fil0 {fill:#69B3D1;fill-rule:nonzero}
    .fil2 {fill:#BCDFED;fill-rule:nonzero}
   ]]>
  </style>
 </defs>
 <g id="OBJECTS">
  <metadata id="CorelCorpID_0Corel-Layer"/>
  <path class="fil0" d="M169 214c-1,-3 -2,-6 -2,-9 0,-1 0,-1 0,-1 1,-1 1,-3 1,-4 0,0 0,0 0,0 -1,-3 -1,-6 -1,-10 1,-7 3,-14 0,-21 -1,0 -1,1 -1,2 0,16 -4,31 -3,47 0,3 0,5 -4,3 -6,-1 -11,2 -16,5 -5,3 -8,1 -9,-6 0,-16 0,-32 3,-48 1,-7 1,-15 1,-22 0,-24 1,-48 1,-71 0,-4 -1,-6 -5,-4 -1,1 -3,1 -5,1 -4,0 -9,0 -13,0 -16,1 -32,0 -47,-5 -10,-3 -20,-4 -29,-10 -8,-4 -15,-9 -20,-17 -1,-2 -3,-4 -1,-6 1,-2 3,-2 6,-1 6,3 12,8 19,10 2,1 4,2 5,3 4,-2 8,2 12,0 -6,-5 -14,-7 -21,-10 -7,-2 -14,-3 -16,-11 -1,-2 -2,-1 -4,-1 -3,0 -5,-2 -7,-4 -2,2 -1,5 -1,7 2,4 2,9 3,13 1,4 1,9 2,13 1,2 1,3 1,5 -2,12 -2,24 -3,37 0,20 3,40 2,60 -1,11 0,23 -5,33 -3,7 -2,14 -1,21 5,5 12,6 19,8 9,2 16,5 24,8 9,4 19,6 29,6 12,1 24,1 36,1 0,0 0,1 0,1 -2,1 -5,0 -4,2 0,3 3,2 5,2 8,-1 15,-3 23,-5 3,-2 6,-3 9,-4 4,0 7,-2 8,-5 2,-4 5,-4 9,-3 1,-2 2,-5 3,-7 -2,0 -3,-1 -3,-3zm-106 -38l0 0c-5,2 -9,5 -14,4 -3,1 -6,-1 -9,-1 -3,0 -4,-3 -3,-5 3,-7 5,-15 11,-20 5,-4 9,-3 11,3 0,2 2,3 4,4 4,1 6,3 6,8 0,4 -2,6 -6,7zm46 -59l0 0c-1,0 -2,-1 -2,-2 -1,-2 1,-3 2,-3 2,0 2,1 2,2 1,2 0,3 -2,3z"/>
  <path class="fil1" d="M167 169c-1,0 -1,1 -1,2 0,16 -4,31 -3,47 0,3 0,5 -4,3 -6,-1 -11,2 -16,5 -5,3 -8,1 -9,-6 0,-16 0,-32 3,-48 1,-7 1,-15 1,-22 0,-24 1,-48 1,-71 0,-4 -1,-6 -5,-4 -1,1 -3,1 -5,1 -4,0 -9,0 -13,0 -16,1 -32,0 -47,-5 -10,-3 -20,-4 -29,-10 -8,-4 -15,-9 -20,-17 -1,-2 -3,-4 -1,-6 1,-2 3,-2 6,-1 6,3 12,8 19,10 2,1 4,2 5,3 8,2 15,4 22,5 1,3 3,2 4,2 4,0 7,1 11,1 0,1 0,1 0,1 7,2 14,3 21,3 2,-1 5,-1 7,-4 4,-1 9,-3 14,-3 6,-1 12,-1 16,-5 4,-6 10,-6 16,-6 5,4 5,9 6,14 2,16 2,32 2,48 -1,1 -1,2 0,3 0,1 0,2 0,3 -2,7 -2,13 0,19 0,6 0,12 0,18 -2,2 -2,3 0,5 -1,3 -1,5 -1,7 -2,1 -2,3 0,4 0,1 0,2 0,4z"/>
  <path class="fil2" d="M86 58c-4,0 -7,-1 -11,-1 -1,-2 -2,-2 -4,-2 -7,-1 -14,-3 -22,-5 4,-2 8,2 12,0 -6,-5 -14,-7 -21,-10 -7,-2 -14,-3 -16,-11 -1,-2 -2,-1 -4,-1 -3,0 -5,-2 -7,-4 0,-4 1,-6 4,-8 3,-1 5,-3 8,-4 5,-1 10,-3 15,-6 1,-1 3,-1 4,-2 11,0 22,-2 32,0 17,1 33,-2 49,3 13,5 27,5 40,11 4,1 6,3 7,8 0,4 -1,8 -6,11 -3,1 -6,3 -6,7 -6,0 -12,0 -16,6 -6,-1 -12,-1 -16,5 -5,0 -10,2 -14,3 -10,0 -19,0 -28,0zm-9 -52l0 0c-5,0 -10,1 -16,2 -4,0 -9,2 -13,3 -5,2 -11,4 -13,10 -1,2 -1,3 0,5 1,1 3,2 5,1 8,-3 17,-5 25,-9 3,-1 6,-2 9,-2 8,0 15,0 23,-3 1,0 2,0 3,-2 0,-1 -2,-1 -3,-2 -6,-3 -13,-3 -20,-3z"/>
  <path class="fil2" d="M11 213c5,5 12,6 19,8 9,2 16,5 24,8 9,4 19,6 29,6 12,1 24,1 36,1 0,0 0,1 0,1 -2,1 -5,0 -4,2 0,3 3,2 5,2 8,-1 15,-3 23,-5 3,-2 6,-3 9,-4 4,0 7,-2 8,-5 2,-4 5,-4 9,-3 0,2 2,2 4,2 4,0 4,3 2,6 -3,6 -9,8 -14,11 -8,4 -18,5 -27,3 -2,0 -4,0 -6,0 -3,1 -6,1 -10,0 -3,-1 -6,-3 -9,2 -2,3 -7,2 -10,3 -13,1 -25,-3 -37,-5 -16,-3 -32,-10 -48,-14 -3,-1 -5,-3 -8,-5 -2,-2 -4,-4 -3,-8 1,-3 3,-6 7,-6 0,0 1,0 1,0z"/>
  <path class="fil0" d="M168 131c-2,-6 -2,-12 0,-19 1,7 1,13 0,19z"/>
  <path class="fil0" d="M168 154c-2,-2 -2,-3 0,-5 1,2 1,3 0,5z"/>
  <path class="fil0" d="M168 109c-1,-1 -1,-2 0,-3 1,1 1,2 0,3z"/>
  <path class="fil0" d="M167 165c-2,-1 -2,-3 0,-4 1,1 1,3 0,4z"/>
  <path class="fil2" d="M49 180c-3,1 -6,-1 -9,-1 -3,0 -4,-3 -3,-5 3,-7 5,-15 11,-20 5,-4 9,-3 11,3 0,2 2,3 4,4 4,1 6,3 6,8 0,4 -2,6 -6,7 -5,2 -9,5 -14,4z"/>
  <path class="fil2" d="M109 112c2,0 2,1 2,2 1,2 0,3 -2,3 -1,0 -2,-1 -2,-2 -1,-2 1,-3 2,-3z"/>
  <path class="fil0" d="M86 58c9,0 18,0 28,0 -2,3 -5,3 -7,4 -7,0 -14,-1 -21,-3 0,0 0,0 0,-1z"/>
  <path class="fil0" d="M71 55c2,0 3,0 4,2 -1,0 -3,1 -4,-2z"/>
  <path class="fil0" d="M77 6c7,0 14,0 20,3 1,1 3,1 3,2 -1,2 -2,2 -3,2 -8,3 -15,3 -23,3 -3,0 -6,1 -9,2 -8,4 -17,6 -25,9 -2,1 -4,0 -5,-1 -1,-2 -1,-3 0,-5 2,-6 8,-8 13,-10 4,-1 9,-3 13,-3 6,-1 11,-2 16,-2z"/>
  <path class="fil3" d="M84 0c25,-1 50,1 74,11 5,2 8,6 14,7 0,1 1,1 1,1 1,0 2,1 2,3 3,9 3,15 -5,21 -2,2 -4,4 -3,7 3,43 0,85 1,128 0,11 1,23 2,34 0,2 0,3 2,4 7,2 9,14 3,19 -5,4 -10,7 -17,9 -8,3 -16,7 -25,8 -24,4 -48,2 -71,-3 -20,-4 -39,-10 -57,-21 -4,-2 -5,-5 -5,-9 0,-4 1,-7 5,-10 2,-1 3,0 5,1 1,1 2,2 3,1 0,0 0,-2 0,-3 -2,-24 -1,-48 0,-72 2,-30 2,-59 0,-89 0,-9 -3,-17 -4,-25 0,-3 1,-5 3,-6 15,-9 31,-15 48,-16 8,0 16,0 24,0zm-67 18l0 0c-2,1 -5,1 -4,4 1,6 3,12 9,16 14,8 29,13 45,16 36,6 70,3 101,-16 3,-1 5,-3 5,-6 -1,-4 -1,-7 -5,-9 -10,-6 -22,-11 -34,-13 -28,-6 -55,-6 -83,-3 -12,1 -23,5 -34,11l0 0zm146 107l0 0c1,-24 2,-48 0,-72 0,-5 0,-5 -5,-3 -24,11 -50,15 -77,11 -14,-2 -28,-3 -41,-10 -7,-3 -14,-6 -20,-10 -1,-1 -3,-3 -4,-2 -1,1 0,3 0,4 0,2 1,5 1,7 3,24 3,48 2,72 -1,21 -2,42 -2,63 0,8 2,17 1,25 0,2 1,4 3,5 10,4 19,10 29,13 16,3 32,7 48,8 24,3 46,-2 66,-16 2,-2 2,-3 2,-5 -2,-7 -2,-14 -3,-21 -1,-23 0,-46 0,-69zm-63 124l0 0c21,2 44,-6 67,-15 2,-1 4,-2 5,-4 2,-4 1,-6 -2,-9 -2,-2 -3,1 -5,2 -7,6 -15,10 -23,13 -21,8 -42,5 -63,3 -25,-2 -48,-11 -69,-24 -2,-1 -3,0 -4,2 -2,5 -1,7 5,9 27,13 55,22 89,23z"/>
  <path class="fil3" d="M70 126c1,5 0,8 0,10 0,2 0,4 0,6 0,2 0,4 1,6 2,1 3,-1 4,-2 1,-2 4,-3 3,-7 -2,-7 0,-12 4,-14 0,3 0,7 0,10 0,1 0,2 1,3 1,0 2,-1 2,-2 4,-2 6,-5 6,-9 0,-1 0,-2 1,-3 0,-2 0,-5 2,-5 3,0 1,3 1,5 1,0 1,1 1,3 4,-4 9,-6 9,-12 0,-4 1,-8 2,-11 0,-2 0,-4 3,-4 2,0 2,2 2,3 0,1 0,2 1,3 1,6 2,7 8,5 1,0 2,0 2,0 2,-1 5,-3 6,0 1,2 -2,3 -3,4 -7,3 -13,8 -20,10 -3,0 -5,3 -8,7 3,-1 6,-1 8,-1 2,0 3,0 3,1 0,2 -1,2 -2,3 -4,1 -7,1 -11,1 -4,0 -6,2 -9,6 3,0 5,-1 8,-1 1,0 4,-1 4,2 0,2 -2,2 -4,2 -3,1 -6,1 -9,1 -1,0 -2,0 -3,0 -3,1 -7,3 -7,6 0,2 4,1 6,2 1,0 2,0 3,0 2,0 5,-1 5,2 0,2 -4,2 -6,2 -3,0 -7,-1 -10,-2 -2,-1 -4,-1 -5,1 -2,1 0,2 0,4 2,4 3,9 3,14 0,3 -1,4 -4,6 -9,5 -18,7 -27,8 -9,1 -12,-2 -10,-11 1,-5 2,-10 4,-15 6,-11 13,-14 25,-10 1,0 1,0 1,1 2,1 4,1 5,-1 2,-1 1,-3 1,-4 -2,-8 -2,-15 3,-23zm-29 58l0 0c5,0 20,-3 23,-5 2,-1 3,-1 3,-3 0,-5 0,-10 -3,-14 -2,-5 -14,-8 -19,-6 0,0 -1,1 -1,2 -4,7 -6,14 -8,23 3,-2 5,-4 7,-6 1,-1 2,-3 4,-1 1,1 0,3 -1,4 -2,2 -4,3 -5,6z"/>
  <path class="fil3" d="M17 18c7,5 13,4 20,1 23,-10 48,-11 73,-8 13,2 26,5 40,7 2,1 4,2 6,4 1,1 2,3 4,2 1,-1 3,-1 3,0 1,2 0,2 -1,3 -3,4 -8,6 -12,9 -26,15 -55,13 -83,9 -18,-2 -33,-9 -47,-20 -2,-2 -5,-3 -3,-7 0,0 0,0 0,0zm83 24l0 0c17,0 33,-3 48,-11 1,-1 4,-1 4,-3 0,-2 -3,-2 -4,-3 -8,-3 -16,-5 -24,-6 -27,-6 -55,-7 -82,3 -3,1 -9,1 -9,4 0,3 5,4 9,6 18,8 38,9 58,10z"/>
 </g>
</svg>
