<?xml version="1.0" encoding="UTF-8"?>
<!DOCTYPE svg PUBLIC "-//W3C//DTD SVG 1.1//EN" "http://www.w3.org/Graphics/SVG/1.1/DTD/svg11.dtd">
<!-- Creator: CorelDRAW X7 -->
<svg xmlns="http://www.w3.org/2000/svg" xml:space="preserve" width="3.56851in" height="1.56052in" version="1.1" style="shape-rendering:geometricPrecision; text-rendering:geometricPrecision; image-rendering:optimizeQuality; fill-rule:evenodd; clip-rule:evenodd"
viewBox="0 0 955 418"
 xmlns:xlink="http://www.w3.org/1999/xlink">
 <defs>
  <style type="text/css">
   <![CDATA[
    .str0 {stroke:#FEFEFE;stroke-width:4.02924}
    .fil2 {fill:#FEFEFE;fill-rule:nonzero}
    .fil0 {fill:#EE9635;fill-rule:nonzero}
    .fil1 {fill:#FEFEFE;fill-rule:nonzero;fill-opacity:0.701961}
   ]]>
  </style>
 </defs>
 <g id="__x0023_Layer_x0020_1">
  <metadata id="CorelCorpID_0Corel-Layer"/>
  <path class="fil0" d="M910 209c27,-22 45,-55 45,-92 0,-65 -52,-117 -117,-117 -59,0 -107,44 -115,101l-491 0c-8,-57 -56,-101 -115,-101 -65,0 -117,52 -117,117 0,37 18,70 45,92 -27,21 -45,54 -45,92 0,64 52,117 117,117 59,0 107,-44 115,-101l491 0c8,57 56,101 115,101 65,0 117,-53 117,-117 0,-38 -18,-71 -45,-92z"/>
  <path class="fil1" d="M949 143c1,-5 1,-10 1,-15 0,-64 -51,-116 -115,-116 -59,0 -107,44 -115,100l-485 0c-8,-56 -56,-100 -115,-100 -64,0 -115,52 -115,116 0,5 0,10 1,15 7,-57 55,-100 114,-100 59,0 107,43 115,99l485 0c8,-56 56,-99 115,-99 59,0 107,43 114,100z"/>
  <path class="fil1" d="M55 205c-17,20 -28,47 -28,76 0,5 1,10 1,15 4,-31 20,-57 43,-76 -6,-4 -11,-9 -16,-15z"/>
  <path class="fil1" d="M886 223c23,19 39,46 43,76 0,-5 1,-10 1,-15 0,-29 -11,-55 -28,-76 -5,6 -10,11 -16,15z"/>
  <path class="fil2 str0" d="M126 191c0,1 -1,6 -3,14 -1,4 -2,7 -2,10 0,2 0,3 -1,6 -1,8 -2,14 -2,17 0,5 1,10 1,14 1,3 0,5 -1,6 -2,1 -3,2 -4,2 -2,0 -3,-1 -4,-3 -1,-2 -1,-6 -1,-10 0,-5 1,-12 2,-20 1,-3 1,-5 1,-6 0,-1 0,-2 0,-3 0,-1 1,-3 1,-4 0,-3 1,-7 2,-12 0,-4 1,-7 1,-10 0,-2 1,-3 1,-4 0,-1 1,-2 2,-2 2,-1 3,-2 3,-2 2,0 3,1 3,2 1,2 1,3 1,5z"/>
  <path class="fil2 str0" d="M183 244c0,-1 0,-5 1,-13 1,-7 2,-16 3,-26 1,-10 2,-16 2,-17 0,-1 1,-2 2,-3 1,0 2,-1 4,-1 1,0 2,1 3,2 0,1 1,2 1,3 0,1 0,4 -1,7 -1,4 -2,13 -4,27 -2,14 -2,22 -2,23 0,2 0,2 0,3 1,0 1,0 2,0 2,0 5,0 11,-1 4,-1 11,-1 21,-2 2,0 4,0 7,-1 0,0 1,0 1,0 1,0 2,0 3,1 1,1 1,2 1,3 0,2 -1,4 -2,5 -2,1 -3,1 -5,1 -1,0 -2,0 -4,0 -3,0 -4,0 -5,0 -11,0 -22,2 -32,5 -2,1 -3,1 -5,1 -1,0 -2,-1 -3,-2 -1,-1 -1,-3 -1,-4 0,-1 0,-2 1,-5 0,-3 1,-5 1,-6z"/>
  <path class="fil2 str0" d="M260 261c-5,0 -9,-2 -12,-6 -3,-3 -4,-8 -4,-13 0,-8 3,-17 9,-25 6,-9 13,-13 21,-13 5,0 9,2 13,6 3,4 5,9 5,15 0,9 -4,17 -11,24 -6,8 -14,12 -21,12zm-7 -20l0 0c0,3 1,6 2,8 1,2 3,4 6,4 5,0 10,-3 15,-9 5,-5 7,-11 7,-18 0,-4 -1,-8 -3,-10 -1,-3 -4,-4 -7,-4 -6,0 -10,3 -14,10 -4,7 -6,13 -6,19z"/>
  <path class="fil2 str0" d="M313 259c0,-2 -1,-7 -4,-16 -6,-15 -8,-25 -8,-31 0,-5 1,-7 4,-7 4,0 5,2 5,6 0,3 0,6 0,8 1,2 1,5 3,10 1,5 3,10 4,14 1,2 2,4 2,5 1,-1 2,-2 3,-4 6,-10 11,-18 14,-23 4,-6 6,-10 9,-12 2,-3 4,-4 5,-4 1,-1 2,-1 3,-1 1,0 2,0 3,1 1,1 1,2 1,3 0,2 -1,4 -4,6 -3,1 -7,6 -12,13 -5,7 -10,16 -16,27 -3,5 -5,8 -7,8 -1,0 -3,-1 -5,-3z"/>
  <path class="fil2 str0" d="M403 241c0,3 -3,7 -9,12 -6,5 -12,8 -19,8 -5,0 -9,-2 -12,-5 -3,-3 -5,-8 -5,-14 0,-9 4,-18 10,-27 7,-9 14,-13 21,-13 3,0 5,1 7,2 1,2 2,4 2,6 0,6 -3,11 -8,15 -5,5 -11,10 -20,14 -2,1 -3,2 -3,4 0,3 1,5 3,6 1,2 4,3 7,3 7,0 15,-4 22,-12 1,-1 2,-2 3,-2 1,0 1,1 1,3zm-35 -8l0 0c14,-8 22,-15 22,-20 0,-2 -1,-3 -3,-3 -3,0 -7,2 -11,6 -3,5 -6,10 -8,17z"/>
  <path class="fil2 str0" d="M529 199c-3,3 -8,10 -15,19 -7,10 -12,16 -15,19 -3,2 -5,4 -7,4 -1,0 -3,-1 -4,-3 -1,-2 -3,-7 -5,-13 -5,-13 -7,-20 -8,-22 -1,1 -1,3 -2,6 -1,5 -2,12 -4,19 -4,16 -5,25 -6,30 0,1 -1,2 -2,2 -1,1 -1,1 -2,1 -1,0 -2,0 -3,-1 -1,-2 -2,-3 -2,-4 0,-3 1,-8 3,-15l4 -17c3,-10 5,-18 5,-23 1,-5 1,-9 1,-12 0,-3 3,-4 7,-4 1,0 2,1 3,3 1,1 2,3 2,4 1,1 1,3 2,4l7 19c2,8 4,12 5,13 0,1 1,2 1,2 2,-1 8,-8 18,-22 12,-16 19,-24 20,-24 2,0 3,0 5,1 1,1 2,2 2,3 0,0 -1,8 -3,22 0,6 -1,12 -2,19 0,8 -1,12 -1,13 0,2 1,4 1,6 1,2 1,3 1,4 0,1 0,3 0,4 -1,2 -1,3 -3,3 -1,1 -2,1 -2,1 -4,0 -6,-3 -6,-9 0,-5 2,-19 4,-40 0,-1 0,-2 0,-3 0,0 0,-1 1,-3 0,-2 0,-3 0,-4 0,-1 0,-2 0,-2z"/>
  <path class="fil2 str0" d="M590 240c-6,6 -11,9 -16,12 -5,2 -8,4 -11,4 -3,0 -6,-2 -7,-5 -2,-2 -3,-6 -3,-9 0,-5 1,-12 3,-19 2,-8 4,-13 5,-14 1,-2 2,-2 5,-2 1,0 1,0 2,1 1,2 1,3 1,4 0,1 0,2 -1,4 -2,3 -3,4 -3,5 0,0 -1,2 -2,6 -1,4 -2,7 -2,10 0,1 0,3 1,6 1,2 2,3 3,3 2,0 5,0 7,-1 3,-2 6,-3 9,-6 4,-2 6,-5 7,-6 1,-2 2,-4 3,-6 0,-2 1,-6 1,-13 0,-6 2,-10 5,-10 2,0 3,1 3,2 1,1 1,2 1,5 0,2 0,5 0,9 -1,4 -1,7 -1,8 -1,10 -2,19 -4,28 -2,10 -4,18 -8,24 -4,6 -9,9 -15,9 -7,0 -13,-2 -18,-5 -5,-3 -8,-6 -8,-9 0,-1 1,-2 1,-3 1,-1 1,-2 2,-2 0,0 1,1 1,1 5,7 12,10 21,10 5,0 9,-4 12,-12 4,-9 6,-17 6,-24 0,-2 0,-3 0,-5z"/>
  <path class="fil2 str0" d="M665 197c0,-1 0,-2 -2,-2 -3,-1 -4,-2 -4,-4 0,-1 1,-2 2,-4 1,-1 2,-1 3,-1l7 0c4,0 8,0 13,-1 6,0 10,-1 12,-1 10,0 17,3 23,8 5,6 8,12 8,21 0,9 -4,18 -12,26 -8,7 -20,13 -34,17 -6,1 -10,2 -12,4 -3,2 -5,3 -7,3 -2,0 -3,-1 -4,-2 -1,-2 -1,-3 -1,-4 0,0 0,-1 1,-2 1,-2 1,-3 1,-5 1,-1 1,-4 1,-8 0,-4 1,-11 2,-19 1,-9 2,-16 3,-19 0,-3 0,-6 0,-7zm10 -3l0 0c-4,24 -6,41 -6,51 0,2 0,3 0,5 0,0 1,0 2,0 2,0 8,-1 17,-4 9,-3 16,-7 22,-13 6,-6 8,-13 8,-20 0,-7 -2,-12 -6,-15 -5,-4 -10,-6 -18,-6 -4,0 -9,0 -15,1 -2,0 -3,1 -4,1z"/>
  <path class="fil2 str0" d="M752 261c-4,0 -8,-2 -11,-6 -3,-3 -5,-8 -5,-13 0,-8 3,-17 9,-25 6,-9 13,-13 21,-13 6,0 10,2 13,6 4,4 5,9 5,15 0,9 -3,17 -10,24 -7,8 -14,12 -22,12zm-7 -20l0 0c0,3 1,6 2,8 2,2 4,4 6,4 5,0 10,-3 15,-9 5,-5 8,-11 8,-18 0,-4 -1,-8 -3,-10 -2,-3 -5,-4 -8,-4 -5,0 -10,3 -14,10 -4,7 -6,13 -6,19z"/>
  <path class="fil2 str0" d="M832 240c-1,-1 -2,0 -4,3 -3,3 -7,6 -11,9 -5,3 -10,4 -14,4 -3,0 -5,-1 -7,-3 -1,-1 -2,-4 -2,-7 0,-6 2,-11 6,-18 4,-6 9,-12 16,-17 7,-4 13,-7 19,-7 3,0 5,1 7,3 1,0 1,0 1,1 1,0 2,1 2,2 1,2 1,3 1,3 0,1 0,2 -1,3 -2,5 -3,10 -4,14 -1,3 -1,10 -2,18 -1,8 -2,14 -3,18 -1,4 -2,9 -5,12 -2,4 -5,7 -9,9 -3,2 -7,3 -10,3 -7,0 -13,-2 -19,-6 -6,-5 -9,-8 -9,-11 0,-1 0,-2 2,-2 0,0 2,1 5,3 8,5 15,8 21,8 6,0 10,-3 13,-9 3,-6 5,-15 6,-26 0,-3 0,-5 1,-7zm0 -28l0 0c-3,0 -7,2 -11,4 -4,3 -8,8 -13,13 -4,6 -6,11 -6,15 0,1 1,2 2,3 0,1 1,1 2,1 3,0 7,-1 12,-5 5,-3 9,-7 13,-12 3,-6 5,-10 5,-13 0,-4 -2,-6 -4,-6z"/>
 </g>
</svg>
