<?xml version="1.0" encoding="UTF-8"?>
<!DOCTYPE svg PUBLIC "-//W3C//DTD SVG 1.1//EN" "http://www.w3.org/Graphics/SVG/1.1/DTD/svg11.dtd">
<!-- Creator: CorelDRAW X7 -->
<svg xmlns="http://www.w3.org/2000/svg" xml:space="preserve" width="1.1178in" height="1.17928in" version="1.1" style="shape-rendering:geometricPrecision; text-rendering:geometricPrecision; image-rendering:optimizeQuality; fill-rule:evenodd; clip-rule:evenodd"
viewBox="0 0 243 257"
 xmlns:xlink="http://www.w3.org/1999/xlink">
 <defs>
  <style type="text/css">
   <![CDATA[
    .fil0 {fill:#593A1C;fill-rule:nonzero}
   ]]>
  </style>
 </defs>
 <g id="OBJECTS">
  <metadata id="CorelCorpID_0Corel-Layer"/>
  <path class="fil0" d="M199 224c-6,0 -12,1 -18,-2 -2,-1 -3,-1 -5,1 -8,7 -15,13 -23,20 -8,7 -18,9 -28,5 -24,-11 -38,-31 -37,-56 1,-16 -2,-31 2,-46 6,-26 23,-45 51,-46 12,0 24,6 36,11 19,8 37,19 49,37 11,15 20,33 17,53 -2,13 -11,22 -24,23 -7,0 -13,1 -20,0z"/>
  <path class="fil0" d="M163 59c1,-4 2,-7 3,-11 5,-8 12,-15 20,-21 8,-5 18,-4 26,1 9,6 15,23 12,33 -3,15 -12,25 -27,31 -12,4 -26,-1 -30,-14 -2,-6 -3,-12 -4,-19z"/>
  <path class="fil0" d="M0 152c0,-23 15,-31 38,-22 3,1 6,2 10,4 17,10 20,27 13,44 -4,9 -20,13 -31,9 -11,-3 -19,-9 -26,-18 -4,-5 -4,-11 -4,-17z"/>
  <path class="fil0" d="M105 38c0,-16 6,-25 15,-33 9,-8 24,-6 31,5 2,4 5,8 7,12 7,18 -6,42 -25,45 -11,2 -21,-3 -24,-13 -3,-6 -3,-13 -4,-16z"/>
  <path class="fil0" d="M65 47c20,0 29,17 30,33 1,17 -13,24 -33,25 -13,1 -27,-15 -27,-28 0,-18 13,-30 30,-30z"/>
  <path class="fil0" d="M195 232c-3,0 -6,0 -10,0 -4,0 -7,1 -9,5 -14,22 -38,23 -59,15 -12,-6 -23,-15 -27,-32 -5,-26 -7,-51 0,-77 2,-9 5,-17 9,-25 3,-4 6,-8 11,-10 22,-12 46,-9 66,7 18,16 34,34 50,52 5,5 8,12 10,19 8,22 -7,45 -31,46 -3,0 -6,0 -10,0 0,0 0,0 0,0zm-3 -11l0 0c10,0 20,2 27,-6 11,-12 11,-25 -1,-40 -15,-18 -32,-36 -50,-52 -12,-11 -26,-13 -42,-10 -11,3 -19,8 -23,20 -1,6 -3,12 -4,18 -3,23 -6,46 5,68 4,8 7,15 14,20 12,10 37,8 46,-5 7,-12 16,-16 28,-13z"/>
  <path class="fil0" d="M47 189c-12,0 -24,-4 -34,-12 -17,-15 -13,-39 6,-51 9,-5 18,-3 26,2 11,6 18,16 24,27 8,18 -2,35 -22,34zm-2 -10l0 0c13,1 18,-6 15,-17 -2,-8 -7,-14 -13,-19 -10,-9 -21,-13 -31,2 -6,8 -7,14 1,22 8,8 18,11 28,12z"/>
  <path class="fil0" d="M69 44c14,1 27,14 27,30 -1,16 -12,27 -29,27 -16,0 -31,-14 -31,-30 0,-14 16,-27 33,-27zm16 29l0 0c0,-10 -8,-18 -17,-18 -12,0 -22,10 -22,20 0,8 11,16 22,16 11,-1 17,-7 17,-18z"/>
  <path class="fil0" d="M214 59c0,7 -1,12 -2,18 -4,12 -10,16 -22,16 -10,0 -17,-7 -20,-17 -3,-13 2,-24 8,-35 3,-7 11,-7 18,-6 8,2 15,7 17,16 1,3 1,6 1,8zm-10 3l0 0c-1,-3 -1,-6 -1,-8 -1,-5 -5,-7 -9,-8 -4,-1 -8,0 -10,3 -5,9 -7,18 -3,27 2,5 5,7 11,7 5,0 8,-3 9,-8 1,-4 2,-9 3,-13z"/>
  <path class="fil0" d="M159 38c0,8 -3,16 -10,22 -10,8 -23,7 -32,-2 -8,-8 -11,-23 -6,-34 4,-10 14,-16 24,-15 14,0 24,12 24,29zm-10 -1l0 0c0,-11 -6,-18 -15,-18 -8,0 -17,7 -17,13 0,14 7,24 16,24 10,0 16,-8 16,-19z"/>
 </g>
</svg>
