<?xml version="1.0" encoding="UTF-8"?>
<!DOCTYPE svg PUBLIC "-//W3C//DTD SVG 1.1//EN" "http://www.w3.org/Graphics/SVG/1.1/DTD/svg11.dtd">
<!-- Creator: CorelDRAW X7 -->
<svg xmlns="http://www.w3.org/2000/svg" xml:space="preserve" width="2.3678in" height="1.98628in" version="1.1" style="shape-rendering:geometricPrecision; text-rendering:geometricPrecision; image-rendering:optimizeQuality; fill-rule:evenodd; clip-rule:evenodd"
viewBox="0 0 633 531"
 xmlns:xlink="http://www.w3.org/1999/xlink">
 <defs>
  <style type="text/css">
   <![CDATA[
    .fil0 {fill:#EE9635;fill-rule:nonzero}
   ]]>
  </style>
 </defs>
 <g id="__x0023_Layer_x0020_1">
  <metadata id="CorelCorpID_0Corel-Layer"/>
  <path class="fil0" d="M583 42c-124,-114 -266,41 -266,41l-1 0c0,0 -142,-155 -265,-41 -124,113 -16,375 265,488l1 1c281,-113 389,-376 266,-489zm-250 146l0 0c9,-28 33,-45 53,-38 21,6 30,34 21,62 -9,28 -32,45 -53,38 -20,-6 -30,-34 -21,-62zm-72 -39l0 0c19,-6 42,12 52,41 10,28 2,56 -18,62 -19,6 -43,-12 -52,-41 -10,-29 -2,-57 18,-62zm-32 169l0 0c-19,6 -41,-12 -50,-39 -9,-27 -2,-54 17,-59 18,-6 40,12 50,39 9,27 1,54 -17,59zm131 74l0 0c0,0 -18,-19 -34,-19l-4 1c-16,0 -34,19 -34,19 0,0 -45,23 -45,-31 0,-91 79,-104 79,-104l4 0c0,0 79,13 79,104 0,54 -45,30 -45,30zm111 -111l0 0c-8,26 -30,43 -49,37 -18,-6 -26,-32 -18,-59 9,-26 31,-43 49,-37 19,6 27,32 18,59z"/>
 </g>
</svg>
