<?xml version="1.0" encoding="UTF-8"?>
<!DOCTYPE svg PUBLIC "-//W3C//DTD SVG 1.1//EN" "http://www.w3.org/Graphics/SVG/1.1/DTD/svg11.dtd">
<!-- Creator: CorelDRAW X7 -->
<svg xmlns="http://www.w3.org/2000/svg" xml:space="preserve" width="2.17855in" height="1.81856in" version="1.1" style="shape-rendering:geometricPrecision; text-rendering:geometricPrecision; image-rendering:optimizeQuality; fill-rule:evenodd; clip-rule:evenodd"
viewBox="0 0 3131 2614"
 xmlns:xlink="http://www.w3.org/1999/xlink">
 <defs>
  <style type="text/css">
   <![CDATA[
    .fil0 {fill:#4E535C;fill-rule:nonzero}
   ]]>
  </style>
 </defs>
 <g id="__x0023_Layer_x0020_1">
  <metadata id="CorelCorpID_0Corel-Layer"/>
  <path class="fil0" d="M1655 425c93,-291 341,-472 555,-403 213,68 311,359 218,650 -93,290 -341,471 -554,403 -214,-69 -312,-360 -219,-650z"/>
  <path class="fil0" d="M2907 775c-193,-62 -422,114 -511,392 -88,278 -4,554 189,616 193,62 422,-114 511,-392 89,-279 4,-554 -189,-616z"/>
  <path class="fil0" d="M1259 1094c203,-61 286,-354 185,-653 -100,-299 -346,-491 -548,-430 -203,62 -286,354 -185,653 100,299 346,492 548,430z"/>
  <path class="fil0" d="M740 1164c-96,-284 -331,-467 -523,-409 -193,58 -272,336 -176,620 96,284 330,467 523,409 193,-58 272,-336 176,-620z"/>
  <path class="fil0" d="M1580 1157l-42 0c0,0 -826,136 -822,1087 -3,559 462,318 462,318 0,0 196,-198 360,-198l42 -5c163,0 360,198 360,198 0,0 464,246 462,-313 4,-952 -822,-1087 -822,-1087z"/>
 </g>
</svg>
