<?xml version="1.0" encoding="UTF-8"?>
<!DOCTYPE svg PUBLIC "-//W3C//DTD SVG 1.1//EN" "http://www.w3.org/Graphics/SVG/1.1/DTD/svg11.dtd">
<!-- Creator: CorelDRAW X7 -->
<svg xmlns="http://www.w3.org/2000/svg" xml:space="preserve" width="2.30126in" height="2.24585in" version="1.1" style="shape-rendering:geometricPrecision; text-rendering:geometricPrecision; image-rendering:optimizeQuality; fill-rule:evenodd; clip-rule:evenodd"
viewBox="0 0 3502 3418"
 xmlns:xlink="http://www.w3.org/1999/xlink">
 <defs>
  <style type="text/css">
   <![CDATA[
    .fil0 {fill:#4E535C}
   ]]>
  </style>
 </defs>
 <g id="__x0023_Layer_x0020_1">
  <metadata id="CorelCorpID_0Corel-Layer"/>
  <path class="fil0" d="M2795 1011c45,96 67,195 67,300 0,191 -67,354 -202,489 -106,107 -229,173 -371,197l268 493 305 -393c61,-76 141,-120 238,-132 99,-12 186,13 263,74 77,63 122,144 136,242 12,94 -13,181 -75,262l-455 575 -44 49c-76,104 -156,177 -238,219 -43,21 -82,32 -116,32l-1487 0c-65,0 -118,-23 -159,-68 -30,-33 -51,-77 -62,-132 -5,-21 -8,-48 -8,-80l0 -1162 -149 14c-195,0 -361,-69 -501,-206 -92,-90 -153,-192 -183,-308 -15,-58 -22,-120 -22,-185 0,-63 7,-124 22,-182 12,-48 30,-94 54,-139 53,-97 125,-179 215,-244l0 -2 33 -34 673 -571 2 0c118,-79 248,-119 390,-119 139,0 266,38 382,114l26 16 7 0c514,414 783,634 807,661l-7 -23c81,68 145,149 191,243zm-885 -68l0 0 -66 0 0 -2c0,-33 -12,-61 -35,-85 -21,-21 -48,-32 -82,-32 -31,0 -58,11 -80,32 -22,24 -33,52 -33,85l0 2 -68 0 0 -2c0,-52 18,-96 52,-130 37,-36 80,-53 129,-53 52,0 95,17 131,53 34,37 52,81 52,130l0 2zm11 -443l0 0c-40,-112 -108,-203 -202,-273 -100,-68 -210,-102 -330,-102 -128,0 -244,39 -347,117 -100,77 -167,180 -199,307l-132 426c-29,84 -44,167 -44,248 0,210 74,388 222,536 148,149 328,224 538,224 210,0 388,-75 534,-224 149,-148 224,-326 224,-536 0,-101 -20,-199 -58,-293l-6 -27 -200 -403zm2 1461l0 0c-144,99 -309,148 -496,148 -164,0 -311,-37 -441,-112l0 1153c0,53 12,91 34,112 15,18 36,27 64,27l260 0 -29 -27c-100,-101 -150,-222 -150,-363 0,-140 50,-262 150,-365 102,-98 226,-147 370,-147l153 0 0 125 -153 0c-108,0 -202,37 -280,112 -76,76 -114,168 -114,275 0,108 38,201 114,278 75,72 165,110 271,112l895 0 81 -32 120 -98 -327 -596 -7 -6 -304 -554c-75,-4 -145,-18 -211,-42zm1194 136l0 0c-61,8 -111,37 -149,86l-345 434 234 426 10 -11 450 -571c33,-44 49,-90 49,-139l-3 -30c-8,-61 -36,-110 -85,-146 -44,-38 -97,-55 -161,-49zm-2037 -1339l0 0c52,0 96,18 130,56 35,35 52,78 52,127l0 2 -66 0 0 -2c0,-31 -10,-59 -31,-83 -23,-19 -52,-29 -85,-29 -30,0 -57,10 -81,29 -23,24 -35,52 -35,83l0 2 -65 0 0 -2c0,-49 18,-92 56,-127 36,-38 77,-56 125,-56zm583 679l0 0c0,70 -26,131 -78,183 -52,51 -113,76 -184,76 -72,0 -133,-25 -184,-76 -51,-52 -77,-113 -77,-183 0,-72 26,-135 77,-187 51,-47 112,-71 184,-71 71,0 132,24 184,71 52,52 78,115 78,187z"/>
 </g>
</svg>
