<?xml version="1.0" encoding="UTF-8"?>
<!DOCTYPE svg PUBLIC "-//W3C//DTD SVG 1.1//EN" "http://www.w3.org/Graphics/SVG/1.1/DTD/svg11.dtd">
<!-- Creator: CorelDRAW X7 -->
<svg xmlns="http://www.w3.org/2000/svg" xml:space="preserve" width="2.39686in" height="5.71217in" version="1.1" style="shape-rendering:geometricPrecision; text-rendering:geometricPrecision; image-rendering:optimizeQuality; fill-rule:evenodd; clip-rule:evenodd"
viewBox="0 0 554 1320"
 xmlns:xlink="http://www.w3.org/1999/xlink">
 <defs>
  <style type="text/css">
   <![CDATA[
    .fil0 {fill:black}
   ]]>
  </style>
 </defs>
 <g id="elements">
  <metadata id="CorelCorpID_0Corel-Layer"/>
  <path class="fil0" d="M143 1184c-15,-11 -3,9 0,0 -17,-12 -49,-31 -70,-27 -37,6 -72,-66 -70,-92 3,-3 6,-4 10,-4 -2,-2 -3,-4 -5,-6 2,2 64,-101 68,-114 10,-33 6,-66 13,-99 -7,-6 -6,-3 -1,-11 4,-6 -34,-65 -4,-89 -6,-24 8,-54 2,-73 11,-14 -2,-24 9,-40 7,-11 9,-24 11,-35 6,-21 4,-39 13,-58 -5,-3 -11,-3 -16,2 0,-21 24,-27 -10,-20 18,-23 45,-41 61,-66 12,-18 -8,-32 0,-42 -18,-2 -16,-10 -28,-24 -5,-6 -42,-19 -43,-20 13,-10 0,-20 15,-34 -17,6 -35,5 -49,12 9,-17 27,-23 27,-41 -8,6 -6,-15 -5,-20 -17,13 -22,-2 -13,-15 -6,3 -11,3 -17,1 5,-11 -12,-35 -24,-24 -8,-11 15,-37 -17,-29 4,-9 4,-18 0,-27 7,-6 13,-13 16,-22 2,-11 36,-30 45,-35 23,-13 31,-69 55,-73 21,-3 35,11 57,2 19,-9 37,-16 57,-22 25,-7 33,-22 53,-36 18,-13 31,24 51,5 -6,8 -5,14 4,17 -7,0 -9,3 -7,9 19,-7 47,0 68,0 24,0 31,13 54,18 -15,9 5,38 -3,50 4,5 1,24 -1,28 7,7 4,14 -10,22 4,12 10,23 18,33 -7,-2 -30,-24 -9,1 -35,-13 8,25 15,33 -21,0 -15,-30 -36,-10 5,4 10,6 16,5 -17,17 13,25 22,38 -4,0 -27,-3 -29,2 8,6 17,11 25,17 -12,0 -22,-14 -35,-8 4,8 9,14 17,19 -6,3 -12,2 -18,-2 -4,12 36,42 36,58 -4,1 -8,1 -11,-2 -4,12 24,8 -3,13 10,6 19,12 28,17 -3,1 -26,-4 -26,0 6,6 12,10 20,13 -14,2 -19,-5 -33,3 10,4 10,11 0,15 14,16 41,35 59,49 -15,5 5,6 5,14 -8,-4 -3,13 -10,23 -13,23 3,67 9,93 6,27 4,96 21,115 -12,25 8,94 22,115 -62,7 -1,31 -17,61 -43,-7 4,24 11,41 -23,-11 -20,-5 -38,-11 -3,6 1,10 14,12 -24,0 -29,50 -38,67 7,2 32,60 29,73 19,12 1,29 10,43 -18,6 31,35 36,44 6,14 11,45 -16,31 -17,-9 -52,18 -70,19 -24,1 -33,-12 -34,17 -1,32 12,62 14,93 -23,36 -88,26 -116,8 -53,-34 -1,-66 10,-114 7,-31 -11,-33 -35,-25 -24,7 -46,-8 -71,-5 -5,47 43,102 -25,115 -70,14 -76,-44 -63,-91z"/>
 </g>
</svg>
