<?xml version="1.0" encoding="UTF-8"?>
<!DOCTYPE svg PUBLIC "-//W3C//DTD SVG 1.1//EN" "http://www.w3.org/Graphics/SVG/1.1/DTD/svg11.dtd">
<!-- Creator: CorelDRAW X7 -->
<svg xmlns="http://www.w3.org/2000/svg" xml:space="preserve" width="2.54453in" height="2.54451in" version="1.1" style="shape-rendering:geometricPrecision; text-rendering:geometricPrecision; image-rendering:optimizeQuality; fill-rule:evenodd; clip-rule:evenodd"
viewBox="0 0 780 780"
 xmlns:xlink="http://www.w3.org/1999/xlink">
 <defs>
  <style type="text/css">
   <![CDATA[
    .fil0 {fill:none;fill-rule:nonzero}
    .fil2 {fill:#FEFEFE}
    .fil1 {fill:#4E535C;fill-rule:nonzero}
   ]]>
  </style>
 </defs>
 <g id="__x0023_Layer_x0020_1">
  <metadata id="CorelCorpID_0Corel-Layer"/>
  <path class="fil0" d="M390 13c-208,0 -377,169 -377,377 0,208 169,377 377,377 208,0 377,-169 377,-377 0,-208 -169,-377 -377,-377zm0 739l0 0c-200,0 -362,-162 -362,-362 0,-200 162,-362 362,-362 200,0 362,162 362,362 0,200 -162,362 -362,362z"/>
  <path class="fil1" d="M390 28c-200,0 -362,162 -362,362 0,200 162,362 362,362 200,0 362,-162 362,-362 0,-200 -162,-362 -362,-362z"/>
  <path class="fil1" d="M390 0c-215,0 -390,175 -390,390 0,215 175,390 390,390 215,0 390,-175 390,-390 0,-215 -175,-390 -390,-390zm0 767l0 0c-208,0 -377,-169 -377,-377 0,-208 169,-377 377,-377 208,0 377,169 377,377 0,208 -169,377 -377,377z"/>
  <path class="fil2" d="M555 285c7,15 10,31 10,48 0,30 -10,56 -32,77 -16,17 -36,27 -58,31l42 78 48 -62c10,-12 22,-19 38,-21 15,-2 29,2 41,12 12,9 20,22 22,38 2,15 -2,28 -12,41l-72 91 -7 8c-12,16 -24,27 -37,34 -7,3 -13,5 -19,5l-234 0c-11,0 -19,-3 -25,-11 -5,-5 -8,-12 -10,-20 -1,-4 -1,-8 -1,-13l0 -183 -24 2c-31,0 -57,-11 -79,-33 -15,-14 -24,-30 -29,-48 -2,-9 -3,-19 -3,-30 0,-9 1,-19 3,-28 2,-8 5,-15 9,-22 8,-16 19,-28 33,-39l0 0 6 -5 106 -90 0 0c19,-13 39,-19 62,-19 22,0 42,6 60,18l4 2 1 0c81,66 124,100 128,105l-1 -4c12,11 22,23 30,38zm-140 -10l0 0 -10 0 0 -1c0,-5 -2,-9 -6,-13 -3,-4 -7,-5 -13,-5 -5,0 -9,1 -13,5 -3,4 -5,8 -5,13l0 1 -10 0 0 -1c0,-8 2,-15 8,-20 6,-6 12,-9 20,-9 8,0 15,3 21,9 5,6 8,12 8,20l0 1zm2 -70l0 0c-7,-18 -17,-32 -32,-44 -16,-10 -33,-16 -52,-16 -20,0 -39,7 -55,19 -16,12 -26,28 -31,48l-21 68c-5,13 -7,26 -7,39 0,33 12,61 35,84 23,24 52,36 85,36 33,0 61,-12 84,-36 24,-23 35,-51 35,-84 0,-16 -3,-32 -9,-46l-1 -5 -31 -63zm0 230l0 0c-23,16 -49,24 -78,24 -26,0 -49,-6 -70,-18l0 182c0,8 2,14 6,18 2,2 5,4 10,4l41 0 -5 -4c-16,-16 -24,-35 -24,-58 0,-22 8,-41 24,-57 16,-16 36,-24 59,-24l24 0 0 20 -24 0c-18,0 -32,6 -45,18 -12,12 -18,26 -18,43 0,17 6,32 18,44 12,12 26,17 43,18l141 0 13 -5 19 -16 -51 -94 -2 -1 -48 -87c-11,-1 -23,-3 -33,-7zm189 22l0 0c-10,1 -18,5 -24,13l-55 69 38 67 1 -2 71 -90c5,-7 8,-14 8,-22l-1 -4c-1,-10 -5,-18 -13,-23 -7,-7 -15,-9 -25,-8zm-322 -212l0 0c8,0 15,3 21,9 5,6 8,12 8,20l0 1 -11 0 0 -1c0,-5 -1,-9 -5,-13 -3,-3 -8,-4 -13,-4 -5,0 -9,1 -13,4 -3,4 -5,8 -5,13l0 1 -11 0 0 -1c0,-8 3,-14 9,-20 6,-6 12,-9 20,-9zm92 108l0 0c0,11 -4,20 -12,28 -8,8 -18,12 -29,12 -12,0 -21,-4 -29,-12 -8,-8 -12,-17 -12,-28 0,-12 4,-22 12,-30 8,-7 17,-11 29,-11 11,0 21,4 29,11 8,8 12,18 12,30z"/>
 </g>
</svg>
