<?xml version="1.0" encoding="UTF-8"?>
<!DOCTYPE svg PUBLIC "-//W3C//DTD SVG 1.1//EN" "http://www.w3.org/Graphics/SVG/1.1/DTD/svg11.dtd">
<!-- Creator: CorelDRAW X7 -->
<svg xmlns="http://www.w3.org/2000/svg" xml:space="preserve" width="5.33056in" height="4.85727in" version="1.1" style="shape-rendering:geometricPrecision; text-rendering:geometricPrecision; image-rendering:optimizeQuality; fill-rule:evenodd; clip-rule:evenodd"
viewBox="0 0 3056 2785"
 xmlns:xlink="http://www.w3.org/1999/xlink">
 <defs>
  <style type="text/css">
   <![CDATA[
    .fil0 {fill:black}
   ]]>
  </style>
 </defs>
 <g id="elements">
  <metadata id="CorelCorpID_0Corel-Layer"/>
  <path class="fil0" d="M0 2667c0,-35 120,-113 148,-137 40,-15 81,-12 123,-19 133,-21 241,-36 368,-84 111,-42 225,-41 338,-71 99,-26 109,-113 107,-207 -2,-112 30,-264 77,-366 60,-132 71,-243 104,-379 19,-79 98,-172 148,-230 66,-76 44,-252 16,-339 -16,-48 6,-116 -4,-170 -87,-37 -83,22 -83,98 -112,122 -163,-170 -161,-256 2,-126 40,-241 161,-306 30,-16 62,-25 96,-29 5,-15 14,-27 26,-37 37,-12 79,-66 115,-86 227,-123 423,12 647,104 116,0 187,193 200,294 8,63 -7,124 0,187 7,68 62,132 25,194 -55,-37 -58,-79 -122,-107 -78,-34 -75,-173 -123,-245 -39,116 -32,241 -34,362 -1,110 -57,186 36,271 88,80 113,150 149,264 30,95 197,170 288,209 68,30 97,52 176,52 93,0 113,4 181,67 -3,43 26,124 36,168 13,60 18,111 18,172 0,90 -115,279 -208,307 -118,35 -165,84 -165,196 24,57 58,93 20,147 -29,39 -91,4 -128,29 -43,-26 -86,25 -118,50 -77,16 -156,15 -234,14 -89,-2 -129,20 -137,-84 -41,-56 -121,-33 -186,-33 -74,0 -148,-3 -221,-16 -56,-57 -91,-47 -171,-47 -85,0 -169,0 -254,0 -68,68 -94,62 -191,62 -120,0 -334,-41 -420,54 -107,25 -160,-24 -269,32 -87,0 -174,-1 -260,0 -78,2 -81,-63 -114,-85 0,-4 7,4 0,0z"/>
 </g>
</svg>
