<?xml version="1.0" encoding="UTF-8"?>
<!DOCTYPE svg PUBLIC "-//W3C//DTD SVG 1.1//EN" "http://www.w3.org/Graphics/SVG/1.1/DTD/svg11.dtd">
<!-- Creator: CorelDRAW X7 -->
<svg xmlns="http://www.w3.org/2000/svg" xml:space="preserve" width="1.2354in" height="1.41432in" version="1.1" style="shape-rendering:geometricPrecision; text-rendering:geometricPrecision; image-rendering:optimizeQuality; fill-rule:evenodd; clip-rule:evenodd"
viewBox="0 0 190 217"
 xmlns:xlink="http://www.w3.org/1999/xlink">
 <defs>
  <style type="text/css">
   <![CDATA[
    .fil0 {fill:#3B210F;fill-rule:nonzero}
   ]]>
  </style>
 </defs>
 <g id="_2">
  <metadata id="CorelCorpID_0Corel-Layer"/>
  <path class="fil0" d="M171 95c-5,1 -33,12 -45,17 1,-11 -1,-22 -1,-22 -2,-2 -4,-5 -7,-9 -20,-25 2,-37 6,-39 4,-1 22,-10 16,-21 0,0 -4,-8 -6,-9 -1,0 -6,3 -10,5 0,0 -6,0 -9,-4 -4,-4 -11,-1 -13,0 0,0 -10,-14 -12,-13 -3,2 1,13 1,13 0,0 -9,-7 -12,-6 -2,1 2,10 4,18 1,7 -1,12 0,20 1,21 -12,36 -21,54 -9,17 -49,76 -28,98 2,2 4,4 5,5 -1,0 -3,1 -5,1 -9,1 -18,-7 -21,-15 -2,-4 -3,-11 3,-15 2,-2 3,-6 1,-8 -2,-3 -5,-3 -8,-1 -9,6 -11,16 -7,28 5,12 18,24 33,22 4,0 12,-2 18,-4 18,7 40,7 53,7 4,0 18,0 26,0 8,-1 30,2 25,-10 -3,-9 -17,3 -28,-4 4,-8 5,-18 3,-24 -1,-3 -6,-6 -12,-8l0 -30c10,-7 43,-28 47,-27 4,1 1,15 5,18 5,3 14,2 17,-3 4,-5 -13,-34 -18,-34zm-84 63l0 0c7,-2 13,-7 19,-13l0 21c-10,-3 -19,-5 -19,-8z"/>
 </g>
</svg>
