<?xml version="1.0" encoding="UTF-8"?>
<!DOCTYPE svg PUBLIC "-//W3C//DTD SVG 1.1//EN" "http://www.w3.org/Graphics/SVG/1.1/DTD/svg11.dtd">
<!-- Creator: CorelDRAW X7 -->
<svg xmlns="http://www.w3.org/2000/svg" xml:space="preserve" width="3.17612in" height="4.52313in" version="1.1" style="shape-rendering:geometricPrecision; text-rendering:geometricPrecision; image-rendering:optimizeQuality; fill-rule:evenodd; clip-rule:evenodd"
viewBox="0 0 915 1303"
 xmlns:xlink="http://www.w3.org/1999/xlink">
 <defs>
  <style type="text/css">
   <![CDATA[
    .fil0 {fill:black}
   ]]>
  </style>
 </defs>
 <g id="elements">
  <metadata id="CorelCorpID_0Corel-Layer"/>
  <path class="fil0" d="M803 418c-5,-3 -9,-5 -14,-8 -13,45 30,101 19,150 -1,-14 3,-25 -7,-35 -9,39 -13,46 -10,86 4,40 10,19 35,43 5,26 -9,39 15,50 -18,11 -41,45 -16,62 -16,36 40,40 65,57 69,47 -44,97 -39,134 7,52 26,100 64,133 -2,57 -35,85 -67,128 -15,19 -85,88 -102,85 -32,-6 -71,-8 -103,-7 -31,2 -86,-5 -106,-36 -14,-24 -47,-36 -60,-62 -16,-33 29,-53 20,-70 -17,-30 -107,-11 -79,40 -29,17 -25,54 -47,72 -18,15 -52,26 -75,30 -52,10 -96,-18 -145,-28 -59,-11 -108,-42 -120,-98 -15,-10 -18,-42 -18,-61 23,-22 46,-35 65,-63 17,-24 17,-89 2,-101 -29,30 -115,-54 -65,-93 19,-15 103,-43 67,-79 26,-19 7,-51 24,-69 7,-8 30,-52 30,-53 26,-19 77,-44 64,-74 -11,-26 -24,-65 -6,-88 -6,13 -5,19 3,20 4,-11 9,-22 14,-33 -6,3 -12,7 -16,12 8,-38 19,-52 26,-88 -28,23 -45,48 -55,6 -7,-29 11,-55 4,-80 36,-28 28,-118 38,-165 5,-23 27,-57 54,-50 40,-6 36,-26 78,-26 53,0 106,-30 158,-42 48,-12 85,0 131,6 71,8 121,-67 171,17 11,20 19,78 31,87 -24,26 32,87 40,111 9,25 -12,74 -36,38 -15,-24 -22,-52 -38,-76 -19,24 -56,3 -60,45 -1,15 8,38 16,47 -31,20 62,90 52,137 -1,-4 -2,-8 -2,-11 -5,-3 0,5 0,0z"/>
 </g>
</svg>
