<?xml version="1.0" encoding="UTF-8"?>
<!DOCTYPE svg PUBLIC "-//W3C//DTD SVG 1.1//EN" "http://www.w3.org/Graphics/SVG/1.1/DTD/svg11.dtd">
<!-- Creator: CorelDRAW X7 -->
<svg xmlns="http://www.w3.org/2000/svg" xml:space="preserve" width="5.291in" height="3.46718in" version="1.1" style="shape-rendering:geometricPrecision; text-rendering:geometricPrecision; image-rendering:optimizeQuality; fill-rule:evenodd; clip-rule:evenodd"
viewBox="0 0 4870 3192"
 xmlns:xlink="http://www.w3.org/1999/xlink">
 <defs>
  <style type="text/css">
   <![CDATA[
    .fil0 {fill:black}
   ]]>
  </style>
 </defs>
 <g id="elements">
  <metadata id="CorelCorpID_0Corel-Layer"/>
  <path class="fil0" d="M4870 2614c-8,-6 -22,-10 -23,-18 -9,-42 -43,-64 -70,-96 -13,0 -27,-1 -42,-2 -13,-13 -25,-29 -41,-40 -14,-10 -31,-20 -48,-22 -34,-2 -66,-13 -99,-23 -13,-4 -29,-4 -43,-3 -91,4 -176,-21 -262,-46 -75,-21 -146,-49 -218,-77 -16,-7 -36,-5 -54,-7 -21,-11 -42,-22 -70,-36 -36,-5 -85,13 -123,-26 -16,0 -33,0 -44,0 -23,-14 -43,-37 -60,-36 -45,3 -70,-30 -104,-46 -16,-8 -27,-21 -49,-21 -27,0 -32,-21 -30,-44 -23,-23 -45,-45 -69,-69 -11,0 -24,0 -40,0 -8,-12 -17,-25 -27,-40 -6,1 -13,4 -29,9 -22,-11 -44,-33 -64,-62 -26,21 -53,43 -78,63 -47,-25 -91,-51 -137,-73 -49,-24 -95,-58 -151,-65 -60,-48 -133,-74 -195,-118 -1,-1 -2,-4 -4,-4 -64,-11 -116,-52 -177,-67 -58,-14 -112,-36 -169,-58 5,-5 8,-8 14,-13 -38,-26 -53,-68 -76,-108 6,-22 -12,-51 14,-75 -7,-25 -33,-50 6,-79 -19,-1 -29,-2 -43,-2 5,-13 10,-24 15,-36 13,7 27,14 43,23 2,-11 4,-22 6,-35 5,-1 11,-2 20,-4 7,-20 15,-41 25,-68 13,11 24,20 38,31 2,-12 4,-22 6,-35 10,4 19,8 35,14 -4,-13 -6,-20 -11,-34 40,18 65,48 98,66 12,-29 -6,-50 -23,-69 -21,-23 -37,-47 -40,-80 -5,-1 -11,-3 -17,-4 -5,-15 -10,-29 -16,-47 14,-9 30,-20 47,-31 -7,-15 -14,-29 -22,-43 3,-3 7,-8 10,-11 -11,-9 -22,-18 -37,-32 -3,-1 -13,-2 -27,-3 3,-15 5,-28 8,-44 -20,-13 -44,-29 -68,-45 0,-13 0,-24 0,-39 15,16 14,45 44,40 -9,-50 -57,-83 -59,-140 9,5 14,8 28,16 -6,-16 -10,-26 -13,-37 1,0 6,-5 7,-4 18,9 35,19 52,30 15,9 30,21 46,32 21,0 44,0 68,0 11,-44 -8,-92 15,-141 -2,-3 -12,-12 -11,-20 3,-42 -18,-72 -48,-95 -61,-47 -103,-110 -151,-167 -31,-37 -73,-51 -110,-75 -21,-14 -43,-10 -72,-13 -6,-9 -15,-22 -23,-34 5,-3 14,-9 23,-15 -19,-22 -53,-19 -58,-50 -18,-1 -37,-9 -53,10 -7,-13 -15,-22 -29,-30 -18,-9 -30,-11 -45,1 -3,2 -7,4 -11,4 -51,5 -103,10 -151,14 -26,-13 -49,-25 -64,-33 -26,2 -52,13 -64,5 -31,-24 -67,-4 -100,-22 -27,-13 -67,-2 -100,-2 -8,-23 -20,-33 -45,-33 -19,0 -39,-19 -57,-17 -19,3 -32,-16 -55,-3 -18,10 -46,2 -71,2 -10,8 -20,17 -33,28 -7,-5 -14,-10 -20,-15 -1,1 -3,2 -4,4 -2,1 -3,4 -5,4 -21,6 -42,10 -63,15 -29,7 -60,2 -86,2 -28,12 -53,22 -77,33 8,4 16,8 32,16 -19,0 -30,0 -40,0 -28,45 -70,71 -110,102 -42,32 -68,77 -62,133 7,61 -23,114 -41,175 35,-4 64,-11 87,-38 3,8 5,15 10,29 7,-13 12,-23 18,-33 4,2 8,4 12,6 1,15 3,29 4,42 -22,23 -44,44 -67,67 32,14 46,-24 79,-20 -10,14 -18,25 -28,38 5,7 10,13 12,16 -20,17 -40,34 -69,59 20,-3 29,-4 45,-6 8,10 21,25 35,42 -36,28 -77,60 -119,91 -1,-2 -4,-5 -9,-9 -17,19 -34,38 -57,64 0,-1 0,9 0,18 29,15 57,29 84,43 0,31 -23,39 -41,53 -18,13 -27,37 -53,40 -6,19 -12,38 -17,58 37,12 66,-9 97,-20 6,5 12,11 18,18 -18,13 -36,27 -54,40 -16,12 -33,23 -47,41 8,-2 17,-3 25,-6 31,-12 62,-24 93,-35 9,17 15,29 22,42 -27,35 -55,70 -82,105 2,3 5,6 7,9 11,-8 21,-15 31,-23 3,2 5,4 7,5 -8,13 -16,26 -24,39 31,29 -20,59 1,92 1,0 6,2 16,6 6,21 14,45 22,72 20,0 43,0 69,0 15,-10 32,-22 58,-39 -10,28 -17,50 -22,66 3,30 5,55 7,77 -27,53 -86,46 -124,77 -4,13 -7,27 -13,39 -8,15 -7,25 2,40 7,11 6,28 8,43 33,15 58,40 75,86 3,79 -54,150 -82,236 -32,29 -75,58 -105,96 -79,101 -179,181 -264,277 -9,1 -20,1 -31,2 -35,50 -97,65 -144,115 -10,31 -46,61 -52,107 -5,42 -10,85 -15,130 -26,33 -63,60 -79,105 -11,2 -23,4 -36,7 5,5 8,8 11,10 -20,32 -40,63 -60,93 0,31 0,61 0,79 8,24 12,37 17,53 18,8 38,21 61,28 15,5 35,5 50,0 16,-5 26,23 42,4 3,-3 14,-4 17,-1 36,32 59,-7 85,-9 44,14 88,3 123,7 32,-15 59,-23 82,-37 23,-14 42,-34 63,-49 11,-8 25,-14 38,-16 52,-6 103,-11 155,-12 28,-1 56,9 84,11 30,2 63,-8 88,3 38,15 75,5 114,12 1,5 4,13 6,20 13,-3 25,-8 38,-8 40,-2 81,-3 121,0 108,6 209,-23 310,-56 32,-11 64,-23 99,-22 11,1 22,0 32,1 127,9 252,-18 379,-14 9,1 19,-3 29,-6 45,-18 93,-23 140,-32 15,-3 30,-9 46,-12 15,-4 34,7 47,-10 1,-2 3,-3 5,-3 49,-5 99,-11 148,-12 78,-2 152,-20 225,-44 59,-19 117,-38 178,-49 51,-9 101,-21 152,-34 47,-13 94,-31 141,-46 18,-5 39,2 52,-11 15,-15 37,-1 47,-10 17,-16 36,-7 53,-12 87,-27 176,-5 263,-12 68,23 137,9 206,12 28,1 55,0 85,-10 41,-15 84,6 126,14 6,1 10,8 16,9 30,5 60,12 90,12 81,2 162,3 243,0 36,-1 73,-10 110,-16 6,-18 13,-38 21,-59 7,0 12,1 21,1 -4,8 -7,13 -13,24 15,0 27,2 39,0 84,-16 84,-16 162,0 4,1 9,0 13,0 19,0 38,-1 57,0 21,1 42,1 61,7 16,4 34,-23 45,5 16,-20 39,-10 58,-12 0,-30 0,-60 0,-90z"/>
 </g>
</svg>
