<?xml version="1.0" encoding="UTF-8"?>
<!DOCTYPE svg PUBLIC "-//W3C//DTD SVG 1.1//EN" "http://www.w3.org/Graphics/SVG/1.1/DTD/svg11.dtd">
<!-- Creator: CorelDRAW X7 -->
<svg xmlns="http://www.w3.org/2000/svg" xml:space="preserve" width="1.86057in" height="3.16859in" version="1.1" style="shape-rendering:geometricPrecision; text-rendering:geometricPrecision; image-rendering:optimizeQuality; fill-rule:evenodd; clip-rule:evenodd"
viewBox="0 0 1690 2879"
 xmlns:xlink="http://www.w3.org/1999/xlink">
 <defs>
  <style type="text/css">
   <![CDATA[
    .str0 {stroke:#FFFBDD;stroke-width:25.239;stroke-linecap:round;stroke-linejoin:round}
    .fil6 {fill:none;fill-rule:nonzero}
    .fil16 {fill:#34B8D6;fill-rule:nonzero}
    .fil14 {fill:#59CCE9;fill-rule:nonzero}
    .fil17 {fill:#62DAE9;fill-rule:nonzero}
    .fil15 {fill:#85E4F9;fill-rule:nonzero}
    .fil8 {fill:#ACC4B8;fill-rule:nonzero}
    .fil3 {fill:#C8EF1F;fill-rule:nonzero}
    .fil9 {fill:#CADFD4;fill-rule:nonzero}
    .fil5 {fill:#CDEF36;fill-rule:nonzero}
    .fil18 {fill:#D6E962;fill-rule:nonzero}
    .fil0 {fill:#E4B370;fill-rule:nonzero}
    .fil7 {fill:#E8EF67;fill-rule:nonzero}
    .fil1 {fill:#F9D10A;fill-rule:nonzero}
    .fil2 {fill:#FDF234;fill-rule:nonzero}
    .fil4 {fill:#FFFBDD;fill-rule:nonzero}
    .fil11 {fill:#CADFD4;fill-rule:nonzero;fill-opacity:0.501961}
    .fil13 {fill:#E9F4ED;fill-rule:nonzero;fill-opacity:0.501961}
    .fil10 {fill:#ACC4B8;fill-rule:nonzero;fill-opacity:0.600000}
    .fil12 {fill:#D3DFD8;fill-rule:nonzero;fill-opacity:0.600000}
   ]]>
  </style>
 </defs>
 <g id="OBJECTS">
  <metadata id="CorelCorpID_0Corel-Layer"/>
  <polygon class="fil0" points="943,1068 905,1053 1318,0 1356,15 "/>
  <polygon class="fil1" points="678,242 1169,434 1292,121 "/>
  <polygon class="fil2" points="1660,627 1169,434 1292,121 "/>
  <path class="fil3" d="M1627 834c0,178 -144,322 -322,322 -178,0 -322,-144 -322,-322 0,-178 144,-322 322,-322 178,0 322,144 322,322z"/>
  <path class="fil4" d="M1592 834c0,159 -128,288 -287,288 -159,0 -288,-129 -288,-288 0,-159 129,-288 288,-288 159,0 287,129 287,288z"/>
  <path class="fil5" d="M1541 834c0,130 -106,236 -236,236 -131,0 -236,-106 -236,-236 0,-130 105,-236 236,-236 130,0 236,106 236,236z"/>
  <line class="fil6 str0" x1="1305" y1="598" x2="1305" y2= "1070" />
  <path class="fil5" d="M1472 667c92,92 92,242 0,334 -92,92 -242,92 -334,0 -93,-92 -93,-242 0,-334 92,-92 242,-92 334,0z"/>
  <line class="fil6 str0" x1="1138" y1="667" x2="1472" y2= "1001" />
  <line class="fil6 str0" x1="1138" y1="1001" x2="1472" y2= "667" />
  <path class="fil5" d="M1305 598c130,0 236,106 236,236 0,130 -106,236 -236,236 -131,0 -236,-106 -236,-236 0,-130 105,-236 236,-236z"/>
  <line class="fil6 str0" x1="1068" y1="834" x2="1541" y2= "834" />
  <line class="fil6 str0" x1="1305" y1="1070" x2="1305" y2= "598" />
  <path class="fil7" d="M1486 653c100,100 100,262 0,362 -100,100 -262,100 -363,0 -100,-100 -100,-262 0,-362 101,-100 263,-100 363,0z"/>
  <path class="fil4" d="M1486 1027c-3,0 -6,-2 -8,-4l-362 -363c-5,-4 -5,-11 0,-15 4,-5 11,-5 15,0l363 363c4,4 4,11 0,15 -2,2 -5,4 -8,4z"/>
  <path class="fil4" d="M1123 1027c-2,0 -5,-2 -7,-4 -5,-4 -5,-11 0,-15l362 -363c5,-5 12,-5 16,0 4,4 4,11 0,15l-363 363c-2,2 -5,4 -8,4z"/>
  <path class="fil4" d="M1305 1102c-6,0 -11,-5 -11,-11l0 -514c0,-6 5,-11 11,-11 6,0 11,5 11,11l0 514c0,6 -5,11 -11,11z"/>
  <path class="fil4" d="M1561 845l-513 0c-6,0 -11,-5 -11,-11 0,-6 5,-11 11,-11l513 0c6,0 11,5 11,11 0,6 -5,11 -11,11z"/>
  <polygon class="fil4" points="1303,782 1319,797 1341,797 1341,819 1356,835 1341,850 1341,872 1319,872 1303,888 1288,872 1266,872 1266,850 1250,835 1266,819 1266,797 1288,797 "/>
  <path class="fil8" d="M845 1707l-131 0c0,0 92,379 67,1026l64 0 0 -1026z"/>
  <path class="fil8" d="M845 2733l-64 0c0,0 -248,51 -449,146l513 0 0 -146z"/>
  <path class="fil9" d="M845 1707l132 0c0,0 -93,379 -68,1026l-64 0 0 -1026z"/>
  <path class="fil9" d="M845 2733l64 0c0,0 248,51 449,146l-513 0 0 -146z"/>
  <path class="fil10" d="M0 904c55,130 140,296 314,334 186,41 64,215 132,351 47,94 128,226 399,194l0 -879 -845 0z"/>
  <path class="fil11" d="M845 904l0 879c271,32 352,-100 399,-194 68,-136 -54,-310 132,-351 175,-38 259,-204 314,-334l-845 0z"/>
  <path class="fil12" d="M54 904c49,102 122,257 270,289 68,15 111,47 132,98 17,42 15,90 14,136 -2,49 -4,100 17,142 42,84 102,173 279,173 20,0 62,-1 84,-3l0 -835 -796 0z"/>
  <path class="fil13" d="M850 904l0 835c22,2 -20,3 0,3 177,0 293,-89 335,-173 21,-42 19,-93 17,-142 -1,-46 -3,-94 14,-136 21,-51 64,-83 132,-98 148,-32 221,-187 270,-289l-768 0z"/>
  <path class="fil14" d="M125 1036c46,71 108,137 199,157 68,15 111,47 132,98 17,42 15,90 14,136 -2,49 -4,100 17,142 42,84 102,173 279,173 20,0 62,-1 84,-3l0 -703 -725 0z"/>
  <path class="fil15" d="M850 1036l0 703c22,2 -20,3 0,3 177,0 293,-67 335,-151 21,-42 19,-115 17,-164 -1,-46 -3,-94 14,-136 21,-51 64,-83 132,-98 91,-20 153,-86 199,-157l-697 0z"/>
  <path class="fil16" d="M652 1315c0,14 -11,26 -26,26 -14,0 -26,-12 -26,-26 0,-15 12,-26 26,-26 15,0 26,11 26,26z"/>
  <path class="fil16" d="M630 1452c0,25 -20,44 -44,44 -25,0 -45,-19 -45,-44 0,-25 20,-45 45,-45 24,0 44,20 44,45z"/>
  <path class="fil16" d="M704 1548c0,13 -10,23 -22,23 -12,0 -22,-10 -22,-23 0,-12 10,-22 22,-22 12,0 22,10 22,22z"/>
  <path class="fil16" d="M749 1407c0,9 -7,15 -15,15 -8,0 -15,-6 -15,-15 0,-8 7,-14 15,-14 8,0 15,6 15,14z"/>
  <path class="fil16" d="M467 1147c0,13 -10,23 -22,23 -13,0 -23,-10 -23,-23 0,-12 10,-22 23,-22 12,0 22,10 22,22z"/>
  <path class="fil17" d="M615 1125c0,12 -10,22 -22,22 -12,0 -22,-10 -22,-22 0,-12 10,-22 22,-22 12,0 22,10 22,22z"/>
  <path class="fil17" d="M556 1281c0,17 -13,30 -30,30 -16,0 -30,-13 -30,-30 0,-16 14,-30 30,-30 17,0 30,14 30,30z"/>
  <path class="fil17" d="M318 1110c0,17 -13,30 -29,30 -17,0 -30,-13 -30,-30 0,-16 13,-29 30,-29 16,0 29,13 29,29z"/>
  <path class="fil17" d="M1098 1600c0,17 -13,30 -30,30 -16,0 -29,-13 -29,-30 0,-16 13,-29 29,-29 17,0 30,13 30,29z"/>
  <path class="fil17" d="M1016 1519c0,24 -20,44 -44,44 -25,0 -45,-20 -45,-44 0,-25 20,-45 45,-45 24,0 44,20 44,45z"/>
  <path class="fil17" d="M1135 1504c0,12 -10,22 -22,22 -12,0 -22,-10 -22,-22 0,-12 10,-22 22,-22 12,0 22,10 22,22z"/>
  <path class="fil17" d="M979 1671c0,14 -11,26 -26,26 -14,0 -26,-12 -26,-26 0,-14 12,-26 26,-26 15,0 26,12 26,26z"/>
  <path class="fil17" d="M1187 1225c0,19 -15,34 -33,34 -19,0 -34,-15 -34,-34 0,-18 15,-33 34,-33 18,0 33,15 33,33z"/>
  <path class="fil17" d="M1039 1322c0,18 -15,33 -34,33 -18,0 -33,-15 -33,-33 0,-18 15,-33 33,-33 19,0 34,15 34,33z"/>
  <path class="fil18" d="M972 1077c0,10 -9,18 -19,18 -10,0 -18,-8 -18,-18 0,-10 8,-19 18,-19 10,0 19,9 19,19z"/>
  <path class="fil17" d="M1343 1088c0,12 -10,22 -22,22 -13,0 -22,-10 -22,-22 0,-12 9,-22 22,-22 12,0 22,10 22,22z"/>
 </g>
</svg>
