<?xml version="1.0" encoding="UTF-8"?>
<!DOCTYPE svg PUBLIC "-//W3C//DTD SVG 1.1//EN" "http://www.w3.org/Graphics/SVG/1.1/DTD/svg11.dtd">
<!-- Creator: CorelDRAW X7 -->
<svg xmlns="http://www.w3.org/2000/svg" xml:space="preserve" width="0.580146in" height="0.415685in" version="1.1" style="shape-rendering:geometricPrecision; text-rendering:geometricPrecision; image-rendering:optimizeQuality; fill-rule:evenodd; clip-rule:evenodd"
viewBox="0 0 1017 729"
 xmlns:xlink="http://www.w3.org/1999/xlink">
 <defs>
  <style type="text/css">
   <![CDATA[
    .fil0 {fill:#93C95D}
    .fil1 {fill:#6FAA54}
   ]]>
  </style>
 </defs>
 <g id="Layer_x0020_1">
  <metadata id="CorelCorpID_0Corel-Layer"/>
  <path class="fil0" d="M672 571c49,-59 85,-127 123,-194 37,-67 75,-134 121,-195 20,-26 123,-131 77,-167 -11,52 -61,89 -89,133 -43,66 -85,133 -128,200 -41,65 -82,130 -125,193 -19,28 -37,58 -57,85 -16,21 -55,63 -22,87 44,-36 64,-98 100,-142z"/>
  <path class="fil1" d="M566 724c3,2 5,2 7,0 -4,-1 -7,-6 -3,-9 1,0 1,-1 2,-2 -33,-24 6,-66 22,-87 20,-27 38,-57 57,-85 43,-63 84,-128 125,-193 43,-67 85,-134 128,-200 28,-44 78,-81 89,-133 -1,0 -1,-1 -1,-1 -4,-2 -4,-6 -3,-9 -1,0 -1,1 -2,2 -10,37 -38,66 -63,94 -22,26 -40,56 -58,85 -50,78 -101,154 -149,233 -42,68 -87,136 -134,200 -21,30 -59,76 -17,105z"/>
  <path class="fil1" d="M992 14c0,0 0,1 1,1 46,36 -57,141 -77,167 -46,61 -84,128 -121,195 -38,67 -74,135 -123,194 -36,44 -56,106 -100,142 -1,1 -1,2 -2,2 -4,3 -1,8 3,9 1,0 2,0 3,0 23,-16 37,-38 51,-60 20,-33 38,-63 62,-92 55,-67 93,-147 136,-222 42,-74 90,-142 142,-211 24,-31 78,-103 31,-137 -3,-2 -7,0 -9,3 -1,3 -1,7 3,9z"/>
  <path class="fil0" d="M569 168c-29,65 -49,133 -65,202 -14,65 -32,129 -46,194 -3,14 -37,142 -8,149 0,0 0,0 0,-1 20,-55 27,-115 39,-173 12,-63 22,-127 40,-188 16,-58 39,-114 61,-170 6,-16 59,-153 44,-170 -2,23 -20,49 -28,69 -12,29 -24,59 -37,88z"/>
  <path class="fil1" d="M447 722c0,-1 0,-3 0,-4 0,-3 1,-4 3,-5 -29,-7 5,-135 8,-149 14,-65 32,-129 46,-194 16,-69 36,-137 65,-202 13,-29 25,-59 37,-88 8,-20 26,-46 28,-69 0,0 -1,-1 -3,-1 -4,-1 -5,-5 -4,-8 -2,1 -3,2 -3,5 -1,13 -15,32 -20,43 -8,17 -14,34 -22,51 -16,40 -35,79 -50,120 -28,75 -42,154 -61,231 -17,68 -30,135 -44,203 -5,26 -14,70 22,72 -1,-1 -2,-3 -2,-5z"/>
  <path class="fil1" d="M631 106c9,-29 22,-64 22,-94 0,-11 -15,-12 -22,-12 -2,0 -3,1 -4,2 -1,3 0,7 4,8 2,0 3,1 3,1 15,17 -38,154 -44,170 -22,56 -45,112 -61,170 -18,61 -28,125 -40,188 -12,58 -19,118 -39,173 0,1 0,1 0,1 -2,1 -3,2 -3,5 0,1 0,3 0,4 0,2 1,4 2,5 3,3 9,2 11,-3 25,-61 31,-130 44,-194 14,-75 28,-150 51,-222 23,-68 53,-134 76,-202z"/>
  <path class="fil0" d="M74 466c-4,-45 -4,-90 -14,-135 -8,-42 -19,-83 -27,-125 -4,-17 -7,-35 -9,-52 -1,-2 -7,-4 -13,-5 31,128 39,260 68,388 12,-8 -4,-58 -5,-71z"/>
  <path class="fil1" d="M70 548c-2,-4 0,-10 5,-10 2,0 3,0 4,-1 -29,-128 -37,-260 -68,-388 -4,0 -7,-1 -9,-1 -2,0 -2,-2 -1,-3 1,-2 3,-3 4,-4 -3,0 -6,3 -5,6 26,132 34,267 67,397 1,2 2,3 3,4z"/>
  <path class="fil1" d="M2 148c2,0 5,1 9,1 6,1 12,3 13,5 2,17 5,35 9,52 8,42 19,83 27,125 10,45 10,90 14,135 1,13 16,63 5,71 -1,1 -2,1 -4,1 -5,0 -7,6 -5,10 1,2 3,3 5,3 13,-1 22,-8 22,-22 0,-33 -10,-66 -12,-99 -7,-99 -38,-192 -52,-290 0,-2 -3,-4 -5,-4 -9,1 -16,1 -23,5 -1,1 -3,2 -4,4 -1,1 -1,3 1,3z"/>
  <path class="fil0" d="M353 170c-19,24 -27,59 -37,87 -12,34 -25,68 -37,101 -21,64 -41,127 -58,192 -5,17 -10,33 -15,50 -5,20 2,8 3,4 3,-8 6,-16 9,-24 10,-25 20,-49 30,-74 10,-27 133,-323 105,-336z"/>
  <path class="fil1" d="M248 506c-10,25 -20,49 -30,74 -3,8 -6,16 -9,24 -1,4 -8,16 -3,-4 5,-17 10,-33 15,-50 17,-65 37,-128 58,-192 12,-33 25,-67 37,-101 10,-28 18,-63 37,-87 28,13 -95,309 -105,336zm107 -346c-1,-1 -3,0 -4,0 -1,0 -2,1 -2,2 -17,19 -26,43 -35,67 -16,42 -32,84 -47,126 -29,84 -52,169 -77,254 0,4 2,7 5,8 8,2 9,2 18,3 3,0 5,-2 6,-5 16,-51 194,-437 136,-455z"/>
 </g>
</svg>
