<?xml version="1.0" encoding="UTF-8"?>
<!DOCTYPE svg PUBLIC "-//W3C//DTD SVG 1.1//EN" "http://www.w3.org/Graphics/SVG/1.1/DTD/svg11.dtd">
<!-- Creator: CorelDRAW X7 -->
<svg xmlns="http://www.w3.org/2000/svg" xml:space="preserve" width="3.24664in" height="2.47497in" version="1.1" style="shape-rendering:geometricPrecision; text-rendering:geometricPrecision; image-rendering:optimizeQuality; fill-rule:evenodd; clip-rule:evenodd"
viewBox="0 0 1624 1238"
 xmlns:xlink="http://www.w3.org/1999/xlink">
 <defs>
  <style type="text/css">
   <![CDATA[
    .fil1 {fill:#009444}
    .fil0 {fill:#76C508}
    .fil2 {fill:#7F1D02}
    .fil3 {fill:#FFE5B4}
   ]]>
  </style>
 </defs>
 <g id="Layer_x0020_1">
  <metadata id="CorelCorpID_0Corel-Layer"/>
  <path class="fil0" d="M1540 203c-140,-130 -320,-15 -367,19l0 0 -12 9c0,0 -216,-179 -378,-28 0,0 -40,35 -65,117 79,51 150,132 213,241 2,4 48,86 57,191 5,63 -4,121 -27,172 -2,4 -3,8 -5,12 55,20 123,26 205,4 334,87 432,-271 432,-271 92,-338 -53,-466 -53,-466z"/>
  <path class="fil1" d="M1147 43c-107,-102 -230,9 -230,9 0,0 119,107 226,14 0,0 0,-1 0,-1 0,0 -6,-14 4,-22z"/>
  <path class="fil2" d="M1173 222c-5,-32 28,-179 28,-179 4,-24 -49,-3 -49,-3 -2,1 -3,2 -5,3 -10,8 -4,22 -4,22 0,0 0,1 0,1 15,51 18,165 18,165l12 -9z"/>
  <polygon class="fil2" points="1161,980 1196,980 1161,940 1127,980 "/>
  <path class="fil0" d="M299 566c0,0 -279,26 -287,248 0,0 -13,193 291,367 0,0 323,184 497,-113 298,-175 114,-497 114,-497 -174,-305 -367,-292 -367,-292 -222,8 -248,287 -248,287z"/>
  <path class="fil1" d="M169 443c5,160 -169,169 -169,169 0,0 9,-174 169,-169z"/>
  <path class="fil2" d="M299 566c0,0 -84,-79 -131,-104 0,0 -17,-8 -11,-24 0,0 23,-53 38,-33 0,0 80,128 106,147l-2 14z"/>
  <polygon class="fil2" points="829,1096 853,1071 800,1068 804,1120 "/>
  <path class="fil3" d="M869 994c-22,21 -48,41 -77,59l-4 2 -3 4c-17,29 -37,55 -58,77 -39,39 -84,64 -136,76 -41,10 -86,11 -134,3 -83,-14 -144,-48 -145,-49 -291,-167 -283,-349 -283,-351l0 0c2,-55 22,-101 60,-139 79,-79 210,-92 212,-92l14 -2 3 -26c5,-35 26,-135 91,-200 38,-38 84,-58 139,-60l0 0c1,0 46,-2 112,32 39,19 77,47 113,83 45,44 88,101 126,168 0,1 36,63 49,146 8,48 7,93 -3,134 -12,51 -38,96 -76,135 0,0 0,0 0,0z"/>
  <path class="fil2" d="M417 787c97,-3 103,102 103,102 0,0 -106,-5 -103,-102z"/>
  <path class="fil2" d="M516 688c97,-3 102,103 102,103 0,0 -105,-6 -102,-103z"/>
 </g>
</svg>
