<?xml version="1.0" encoding="UTF-8"?>
<!DOCTYPE svg PUBLIC "-//W3C//DTD SVG 1.1//EN" "http://www.w3.org/Graphics/SVG/1.1/DTD/svg11.dtd">
<!-- Creator: CorelDRAW X7 -->
<svg xmlns="http://www.w3.org/2000/svg" xml:space="preserve" width="3.64061in" height="4.66367in" version="1.1" style="shape-rendering:geometricPrecision; text-rendering:geometricPrecision; image-rendering:optimizeQuality; fill-rule:evenodd; clip-rule:evenodd"
viewBox="0 0 655 838"
 xmlns:xlink="http://www.w3.org/1999/xlink">
 <defs>
  <style type="text/css">
   <![CDATA[
    .fil0 {fill:#3B3532}
   ]]>
  </style>
 </defs>
 <g id="Layer_x0020_1">
  <metadata id="CorelCorpID_0Corel-Layer"/>
  <path class="fil0" d="M116 132l34 43 93 0 50 85 168 -24 171 199c0,0 62,-238 -137,-415 -97,-69 -335,57 -379,112z"/>
  <path class="fil0" d="M116 250l-44 0c0,0 28,22 44,30 0,0 -18,20 8,56 8,23 -26,59 -52,55 -27,-4 -57,-28 -57,-28 0,0 -109,437 258,475 212,4 364,-66 382,-387l-251 -109c0,0 -33,-104 -91,-124 -57,-21 -157,-47 -197,32z"/>
 </g>
</svg>
