<?xml version="1.0" encoding="UTF-8"?>
<!DOCTYPE svg PUBLIC "-//W3C//DTD SVG 1.1//EN" "http://www.w3.org/Graphics/SVG/1.1/DTD/svg11.dtd">
<!-- Creator: CorelDRAW X7 -->
<svg xmlns="http://www.w3.org/2000/svg" xml:space="preserve" width="0.768433in" height="0.688531in" version="1.1" style="shape-rendering:geometricPrecision; text-rendering:geometricPrecision; image-rendering:optimizeQuality; fill-rule:evenodd; clip-rule:evenodd"
viewBox="0 0 137 123"
 xmlns:xlink="http://www.w3.org/1999/xlink">
 <defs>
  <style type="text/css">
   <![CDATA[
    .fil0 {fill:#D2DE4E}
    .fil1 {fill:#A7B846}
   ]]>
  </style>
 </defs>
 <g id="Layer_x0020_1">
  <metadata id="CorelCorpID_0Corel-Layer"/>
  <path class="fil0" d="M22 64c-2,0 -3,2 -5,2 0,0 0,0 0,-1 1,0 3,-1 3,-1 1,-1 2,-1 3,-1 2,-1 5,-2 7,-3 0,0 1,0 0,0 -2,2 -5,3 -8,4zm-4 12c-1,1 -2,2 -3,4 0,0 -1,0 -1,-1 1,-1 2,-3 4,-4 0,0 1,0 0,1zm-6 -3c0,0 0,0 0,-1 1,0 2,-1 2,-2 1,0 1,0 1,0 -1,1 -1,3 -3,3zm5 -30c0,1 2,1 3,1 0,0 0,1 0,1 -2,-1 -3,-1 -4,-2 0,0 0,-1 1,0zm5 13c0,1 0,1 0,1 -2,0 -3,0 -5,0 0,0 0,-1 0,-1 2,0 3,0 5,0zm1 -19c2,2 4,4 5,6 1,0 0,1 0,0 -1,0 -2,-2 -3,-3 -1,-1 -2,-2 -3,-3 0,0 1,-1 1,0zm8 42c1,-2 1,-4 2,-5 1,-2 0,-3 2,-4 1,-1 2,-2 3,-2 2,-1 3,-2 4,-3 2,-1 4,-2 5,-3 1,-1 2,-2 3,-3 -9,4 -19,7 -26,14 0,0 -1,0 -1,0 3,-4 8,-7 12,-9 3,-1 7,-2 10,-4 1,0 5,-1 5,-2 -4,0 -9,2 -13,-1 -4,-3 -10,-4 -15,-7 0,0 0,-1 0,-1 5,2 10,3 14,6 1,1 3,2 4,2 2,0 3,0 5,0 1,0 3,0 5,0 -2,-1 -5,-1 -6,-2 -3,-1 -5,-3 -7,-5 -3,-2 -3,-6 -5,-8 -2,-3 -2,-5 -2,-9 0,0 1,0 1,0 0,3 0,5 1,7 1,1 2,3 2,4 1,2 1,4 3,5 1,1 2,2 3,3 1,0 3,2 4,2 1,1 2,1 3,1 1,1 2,1 3,1 0,0 -1,-1 -2,-1 -1,-1 -2,-3 -4,-4 -2,-4 -5,-8 -6,-12 -2,-5 -3,-10 -4,-14 0,-3 -1,-6 -3,-8 -3,-2 -3,1 -3,2 0,1 0,1 0,2 0,0 0,1 0,1 -2,1 -5,0 -5,3 0,2 0,2 -2,3 -1,0 -3,0 -3,2 0,0 0,1 0,2 -1,1 -3,2 -4,3 -1,0 -4,0 -4,2 0,2 2,3 1,5 -1,2 -8,2 -7,6 1,2 4,2 4,4 1,2 -1,2 -2,3 -2,0 -3,1 -4,3 0,1 0,1 1,1 1,1 2,1 3,2 1,1 1,4 0,4 -3,1 -7,6 -1,6 0,0 1,0 2,1 1,1 1,3 1,5 -1,2 -3,1 -3,5 0,4 5,1 5,0 1,0 1,0 1,0 2,-1 3,1 3,2 0,1 -3,6 1,5 2,-1 4,-2 5,-4 1,-2 1,-3 2,-5 1,0 1,0 1,0 3,2 6,2 8,-1z"/>
  <path class="fil1" d="M23 80c0,0 0,0 -1,0 -1,2 -1,3 -2,5 -1,2 -3,3 -5,4 -4,1 -1,-4 -1,-5 0,-1 -1,-3 -3,-2 0,0 0,0 -1,0 0,1 -5,4 -5,0 0,-4 2,-3 3,-5 0,-2 0,-4 -1,-5 -1,-1 -2,-1 -2,-1 -6,0 -2,-5 1,-6 1,0 1,-3 0,-4 -1,-1 -2,-1 -3,-2 -1,0 -1,0 -1,-1 1,-2 2,-3 4,-3 1,-1 3,-1 2,-3 0,-2 -3,-2 -4,-4 -1,-4 6,-4 7,-6 1,-2 -1,-3 -1,-5 0,-2 3,-2 4,-2 1,-1 3,-2 4,-3 0,-1 0,-2 0,-2 0,-2 2,-2 3,-2 2,-1 2,-1 2,-3 0,-3 3,-2 5,-3 0,0 0,-1 0,-1 0,-1 0,-1 0,-2 0,-1 0,-4 3,-2 2,2 3,5 3,8 1,4 2,9 4,14 1,4 4,8 6,12 2,1 3,3 4,4 1,0 2,1 2,1 1,1 2,1 2,1 1,1 0,2 -1,1 0,0 0,0 0,0 0,0 0,0 0,0 0,0 0,0 0,0 0,0 0,0 0,0 -1,1 -1,1 -1,1 -1,1 -2,2 -3,3 -1,1 -3,2 -5,3 -1,1 -2,2 -4,3 -1,0 -2,1 -3,2 -2,1 -1,2 -2,4 -1,1 -1,3 -2,5 -2,3 -5,3 -8,1zm1 3c1,1 3,1 4,0 4,-1 6,-6 7,-9 0,-4 8,-7 11,-9 3,-1 4,-5 6,-7 1,0 1,0 1,-1 -1,-1 -2,-2 -3,-3 -1,-2 -3,-3 -5,-5 -3,-5 -5,-10 -7,-15 -1,-5 -1,-10 -3,-14 -1,-2 -4,-6 -6,-5 -2,0 -3,2 -3,4 0,2 1,2 -1,2 -1,0 -2,0 -3,1 -1,1 -1,2 -1,3 1,2 -2,2 -3,2 -1,0 -2,1 -2,1 0,1 0,1 0,2 0,2 -1,2 -2,3 -3,1 -5,0 -5,4 -1,1 0,1 0,2 1,2 -1,3 -3,4 -2,1 -4,2 -4,5 1,3 7,4 3,5 -3,1 -4,3 -5,6 0,1 0,1 1,2 0,0 1,0 1,0 5,1 2,3 1,4 -1,1 -4,4 -3,6 1,1 2,1 3,2 4,0 4,2 2,5 -2,1 -3,5 -1,7 1,0 3,1 5,0 1,0 1,0 2,-1 1,0 1,1 1,2 -1,0 -1,1 -1,1 -1,2 2,4 4,4 3,-1 6,-3 7,-7 0,0 0,-2 1,-2 1,-1 0,0 1,1z"/>
  <path class="fil1" d="M44 54c-1,0 -3,-2 -4,-2 -1,-1 -2,-2 -3,-3 -2,-1 -2,-3 -3,-5 0,-1 -1,-3 -2,-4 -1,-2 -1,-4 -1,-7 0,0 -1,0 -1,0 0,4 0,6 2,9 2,2 2,6 5,8 2,2 4,4 7,5 1,1 4,1 6,2 0,0 1,0 1,0 1,0 1,1 0,1 0,0 0,0 0,0 0,0 0,0 0,0 1,1 2,0 1,-1 0,0 -1,0 -2,-1 -1,0 -2,0 -3,-1 -1,0 -2,0 -3,-1z"/>
  <path class="fil1" d="M51 57c0,0 -1,0 -1,0 -2,0 -4,0 -5,0 -2,0 -3,0 -5,0 -1,0 -3,-1 -4,-2 -4,-3 -9,-4 -14,-6 0,0 0,1 0,1 5,3 11,4 15,7 4,3 9,1 13,1 0,0 0,0 0,0 0,-1 1,-1 1,0 0,0 0,0 0,0 0,0 0,0 0,0 0,0 0,0 0,0 1,0 1,-1 0,-1z"/>
  <path class="fil1" d="M50 58c0,0 0,0 0,0 0,1 -4,2 -5,2 -3,2 -7,3 -10,4 -4,2 -9,5 -12,9 0,0 1,0 1,0 7,-7 17,-10 26,-14 0,0 0,0 1,-1 0,0 0,0 0,0 0,0 0,0 0,0 0,0 0,0 0,0 0,-1 -1,-1 -1,0z"/>
  <path class="fil1" d="M30 60c-2,1 -5,2 -7,3 -1,0 -2,0 -3,1 0,0 -2,1 -3,1 0,1 0,1 0,1 2,0 3,-2 5,-2 3,-1 6,-2 8,-4 1,0 0,0 0,0z"/>
  <path class="fil1" d="M17 56c0,0 0,1 0,1 2,0 3,0 5,0 0,0 0,0 0,-1 -2,0 -3,0 -5,0z"/>
  <path class="fil1" d="M25 40c1,1 2,3 3,3 0,1 1,0 0,0 -1,-2 -3,-4 -5,-6 0,-1 -1,0 -1,0 1,1 2,2 3,3z"/>
  <path class="fil1" d="M20 45c0,0 0,-1 0,-1 -1,0 -3,0 -3,-1 -1,-1 -1,0 -1,0 1,1 2,1 4,2z"/>
  <path class="fil1" d="M14 70c0,1 -1,2 -2,2 0,1 0,1 0,1 2,0 2,-2 3,-3 0,0 0,0 -1,0z"/>
  <path class="fil1" d="M18 75c-2,1 -3,3 -4,4 0,1 1,1 1,1 1,-2 2,-3 3,-4 1,-1 0,-1 0,-1z"/>
  <path class="fil0" d="M118 46c-2,1 -5,1 -7,1 -1,0 -1,-1 0,-1 2,0 5,0 7,0 0,0 1,0 0,0zm-12 -3c-2,1 -3,-1 -5,-1 0,0 -3,1 -4,1 -1,0 -3,-1 -4,0 -3,0 -5,1 -7,2 -1,0 -1,-1 -1,-1 3,-1 5,-2 8,-2 2,0 4,0 6,-1 0,0 1,0 1,0 1,0 2,0 3,1 3,1 4,-1 6,-2 2,-1 5,-1 7,-1 0,0 0,1 0,1 -2,0 -5,0 -7,1 -1,1 -2,1 -3,2zm-25 2c-2,3 -4,6 -7,8 0,1 0,0 0,0 2,-2 3,-4 5,-7 1,-1 2,-2 3,-3 2,-4 2,-8 2,-13 0,-3 3,-4 5,-6 2,-3 4,-6 7,-7 0,-1 0,0 0,0 -3,2 -5,6 -8,9 -2,2 -3,3 -3,6 0,2 0,3 0,5 -1,3 -2,6 -4,8zm3 -28c0,-1 1,-2 1,-3 0,0 1,0 0,0 0,1 0,2 -1,3 0,0 0,0 0,0zm17 2c0,0 0,0 0,0 0,2 -1,4 -3,5 -1,0 -2,1 -3,1 -2,2 -3,4 -3,6 0,0 -1,0 -1,0 1,-2 1,-5 3,-6 1,-1 3,-1 4,-2 1,-1 2,-3 3,-4zm5 9c0,-1 1,0 0,0 -2,2 -4,3 -7,4 -2,1 -6,3 -8,5 0,0 -1,0 -1,-1 2,-2 5,-3 7,-4 3,-1 6,-3 9,-4zm2 6c1,-1 2,-2 3,-2 1,0 3,0 4,0 1,0 1,0 0,0 -1,1 -2,1 -3,1 -1,0 -2,0 -3,1 0,0 -1,0 -1,0zm20 22c1,0 7,-1 5,-2 0,-1 -1,-1 -1,-1 0,-1 0,-3 0,-3 1,-2 3,-3 3,-4 1,-3 -2,-3 -3,-3 -2,-1 -1,-3 0,-4 1,-1 1,-2 1,-4 -1,-2 -3,-1 -5,-1 -1,1 -2,1 -3,0 -1,-1 -2,-4 -1,-5 2,-2 2,-6 -1,-6 -1,0 -4,0 -4,-2 0,0 0,0 0,-1 1,-1 2,-4 -1,-3 -2,0 -3,0 -4,0 -1,1 -1,2 -2,2 -1,0 -1,0 -1,0 1,-2 0,-5 -2,-4 0,0 0,0 -1,0 0,0 -1,0 -1,-1 0,0 0,-2 0,-2 0,-2 -1,-2 -3,-2 -1,0 -2,0 -3,-2 0,-1 1,-3 0,-4 0,-4 -5,-2 -6,1 -1,2 -6,3 -7,0 -1,-3 -3,0 -5,1 -2,0 -3,-3 -4,-3 -1,0 -1,2 -2,2 -1,0 -2,0 -3,0 -1,0 -1,-1 -2,-1 -1,-2 -3,-1 -4,1 -2,3 0,8 1,11 1,2 2,3 3,5 0,1 1,1 2,2 2,2 1,4 1,6 0,4 -1,7 -1,10 0,3 -1,5 -2,8 -1,2 -2,4 -1,7 0,0 0,0 0,1 0,-1 0,-1 0,-2 2,-2 3,-3 4,-5 2,-4 3,-9 5,-13 1,-3 2,-5 1,-8 0,-3 -2,-4 -3,-7 -2,-3 -3,-4 -3,-8 0,-1 1,-1 1,0 0,3 1,6 3,9 1,1 2,2 3,4 1,2 1,6 0,8 -2,5 -4,10 -6,14 -1,4 -3,6 -4,9 2,0 4,-3 6,-4 2,-2 4,-2 6,-2 5,-1 7,1 11,2 3,0 5,0 8,-1 0,-1 2,-1 3,-1 4,3 9,2 13,0 1,0 1,1 0,1 -3,2 -8,3 -12,2 0,0 -1,-1 -1,-1 -1,-1 -3,-1 -4,0 -1,1 -2,1 -4,1 -2,0 -4,0 -6,0 -3,-1 -4,-3 -7,-2 -4,0 -7,2 -10,4 -1,1 -2,2 -4,2 0,0 0,0 0,0 0,0 0,0 0,1 0,0 0,0 0,0 3,-1 4,-3 7,-3 2,0 6,-1 8,0 2,1 5,2 7,4 2,1 7,3 10,1 3,-2 9,-4 13,-2 2,1 2,3 4,4 2,0 4,1 6,1 2,-1 2,-4 2,-6 0,0 0,0 0,0 -1,0 -1,-1 0,-1z"/>
  <path class="fil1" d="M70 58c0,0 0,0 0,-1 0,-1 0,-2 1,-2 0,-1 0,-1 0,-1 -1,-3 0,-5 1,-7 1,-3 2,-5 2,-8 0,-3 1,-6 1,-10 0,-2 1,-4 -1,-6 -1,-1 -2,-1 -2,-2 -1,-2 -2,-3 -3,-5 -1,-3 -3,-8 -1,-11 1,-2 3,-3 4,-1 1,0 1,1 2,1 1,0 2,0 3,0 1,0 1,-2 2,-2 1,0 2,3 4,3 2,-1 4,-4 5,-1 1,3 6,2 7,0 1,-3 6,-5 6,-1 1,1 0,3 0,4 1,2 2,2 3,2 2,0 3,0 3,2 0,0 0,2 0,2 0,1 1,1 1,1 1,0 1,0 1,0 2,-1 3,2 2,4 0,0 0,0 1,0 1,0 1,-1 2,-2 0,0 -1,0 -1,0 0,0 0,-1 0,-1 0,0 1,0 1,0 0,0 0,-1 -1,-1 0,-1 0,-1 -1,-2 -1,0 -4,0 -4,0 0,-1 1,-4 0,-5 -2,0 -3,0 -4,0 -2,0 -1,-3 -1,-5 0,-1 -1,-3 -3,-3 -2,0 -3,0 -4,1 -1,1 -2,2 -3,3 -1,1 -3,1 -4,0 0,-1 0,-1 0,-1 0,-1 -1,-1 -2,-1 -1,0 -1,0 -2,1 -2,0 -3,0 -4,-1 -1,-1 -3,-1 -4,1 -1,1 -6,-3 -7,-2 -6,3 -5,9 -3,14 1,3 3,6 5,9 1,1 2,2 2,4 -1,3 0,5 -1,8 -1,4 -1,8 -3,12 -2,3 -1,7 0,10 0,1 0,1 0,1 0,0 0,-1 0,-1z"/>
  <path class="fil1" d="M113 17c0,0 1,0 1,0 1,0 2,0 4,0 3,-1 2,2 1,3 0,1 0,1 0,1 0,2 3,2 4,2 3,0 3,4 1,6 -1,1 0,4 1,5 1,1 2,1 3,0 2,0 4,-1 5,1 0,2 0,3 -1,4 -1,1 -2,3 0,4 1,0 4,0 3,3 0,1 -2,2 -3,4 0,0 0,2 0,3 0,0 1,0 1,1 2,1 -4,2 -5,2 -1,0 -1,1 0,1 0,0 0,0 0,0 1,0 1,0 1,0 0,-1 1,-1 1,0 0,0 0,0 0,0 2,0 5,-1 5,-3 0,-1 -1,-1 -1,-3 0,-2 3,-3 3,-5 0,-1 0,-2 -1,-3 -1,-1 -5,-1 -3,-3 2,-2 2,-5 0,-7 -1,-1 -2,-1 -3,0 -1,0 -2,0 -3,0 -2,-1 -2,-2 -1,-3 0,-1 0,-1 1,-2 0,-1 0,-2 0,-3 -1,-1 0,-3 -2,-3 -1,-1 -2,0 -3,0 -2,0 -1,-2 -1,-3 0,-1 0,-2 0,-2 -1,-3 -5,-1 -7,-1 0,0 -1,0 -1,0 0,0 0,1 0,1z"/>
  <path class="fil1" d="M130 57c0,0 0,0 0,0 0,-1 -1,-1 -1,0 0,0 0,0 -1,0 0,2 0,5 -2,6 -2,0 -4,-1 -6,-1 -2,-1 -2,-3 -4,-4 -4,-2 -10,0 -13,2 -3,2 -8,0 -10,-1 -2,-2 -5,-3 -7,-4 -2,-1 -6,0 -8,0 -3,0 -4,2 -7,3 0,0 0,0 -1,0 0,0 0,1 0,1 1,0 1,0 1,0 3,0 5,-2 8,-2 2,-1 5,-1 7,0 1,0 3,2 5,3 4,1 10,5 14,1 1,-1 3,-1 5,-1 2,-1 5,-1 7,1 1,2 3,3 5,3 2,1 5,0 6,-1 2,-2 2,-3 2,-6z"/>
  <path class="fil1" d="M71 57c0,0 0,-1 0,-1 0,0 0,0 1,0 1,-3 3,-5 4,-9 2,-4 4,-9 6,-14 1,-2 1,-6 0,-8 -1,-2 -2,-3 -3,-4 -2,-3 -3,-6 -3,-9 0,-1 -1,-1 -1,0 0,4 1,5 3,8 1,3 3,4 3,7 1,3 0,5 -1,8 -2,4 -3,9 -5,13 -1,2 -2,3 -4,5 0,1 0,1 0,2 -1,0 -1,1 -1,2 0,1 0,1 0,1 1,0 1,0 1,0 0,0 0,0 0,0 0,-1 0,-1 0,-1z"/>
  <path class="fil1" d="M71 57c0,0 0,0 0,0 2,0 3,-1 4,-2 3,-2 6,-4 10,-4 3,-1 4,1 7,2 2,0 4,0 6,0 2,0 3,0 4,-1 1,-1 3,-1 4,0 0,0 1,1 1,1 4,1 9,0 12,-2 1,0 1,-1 0,-1 -4,2 -9,3 -13,0 -1,0 -3,0 -3,1 -3,1 -5,1 -8,1 -4,-1 -6,-3 -11,-2 -2,0 -4,0 -6,2 -2,1 -4,4 -6,4 -1,0 -1,0 -1,0 0,0 0,1 0,1z"/>
  <path class="fil1" d="M88 26c3,-3 5,-7 8,-9 0,0 0,-1 0,0 -3,1 -5,4 -7,7 -2,2 -5,3 -5,6 0,5 0,9 -2,13 -1,1 -2,2 -3,3 -2,3 -3,5 -5,7 0,0 0,1 0,0 3,-2 5,-5 7,-8 2,-2 3,-5 4,-8 0,-2 0,-3 0,-5 0,-3 1,-4 3,-6z"/>
  <path class="fil1" d="M116 40c0,0 0,-1 0,-1 -2,0 -5,0 -7,1 -2,1 -3,3 -6,2 -1,-1 -2,-1 -3,-1 0,0 -1,0 -1,0 -2,1 -4,1 -6,1 -3,0 -5,1 -8,2 0,0 0,1 1,1 2,-1 4,-2 7,-2 1,-1 3,0 4,0 1,0 4,-1 4,-1 2,0 3,2 5,1 1,-1 2,-1 3,-2 2,-1 5,-1 7,-1z"/>
  <path class="fil1" d="M90 36c0,1 1,1 1,1 2,-2 6,-4 8,-5 3,-1 5,-2 7,-4 1,0 0,-1 0,0 -3,1 -6,3 -9,4 -2,1 -5,2 -7,4z"/>
  <path class="fil1" d="M91 31c0,0 1,0 1,0 0,-2 1,-4 3,-6 1,0 2,-1 3,-1 2,-1 3,-3 3,-5 0,0 0,0 0,0 -1,1 -2,3 -3,4 -1,1 -3,1 -4,2 -2,1 -2,4 -3,6z"/>
  <path class="fil1" d="M84 17c1,-1 1,-2 1,-3 1,0 0,0 0,0 0,1 -1,2 -1,3 0,0 0,0 0,0z"/>
  <path class="fil1" d="M118 46c-2,0 -5,0 -7,0 -1,0 -1,1 0,1 2,0 5,0 7,-1 1,0 0,0 0,0z"/>
  <path class="fil1" d="M109 34c1,-1 2,-1 3,-1 1,0 2,0 3,-1 1,0 1,0 0,0 -1,0 -3,0 -4,0 -1,0 -2,1 -3,2 0,0 1,0 1,0z"/>
  <path class="fil1" d="M62 69c0,0 0,0 0,0 0,0 0,0 0,0 0,0 1,0 1,0 0,0 0,0 0,0 -1,0 -1,0 -1,0z"/>
  <path class="fil0" d="M85 100c1,1 1,2 1,3 1,0 0,0 0,0 -1,-1 -1,-2 -2,-3 0,0 1,0 1,0zm0 -11c-1,-1 -3,-3 -4,-5 -1,0 0,-1 0,0 3,3 6,7 10,10 0,0 0,0 -1,0 -2,-1 -3,-3 -5,-5zm7 -2c1,1 3,2 4,4 0,0 0,1 0,0 -2,-1 -3,-2 -5,-3 0,0 0,-1 1,-1zm-17 17c0,0 -1,0 -1,0 0,-3 -1,-4 -2,-6 -1,-1 -1,-3 -1,-4 0,0 1,0 1,0 0,2 0,3 1,4 0,1 1,1 1,2 1,1 1,3 1,4zm-6 -14c-1,-2 -2,-5 -2,-8 0,0 0,0 0,0 1,3 2,5 2,8 0,0 0,0 0,0zm-2 15c0,0 0,0 -1,0 0,-4 0,-8 1,-12 0,0 1,0 0,1 0,3 0,7 0,11zm0 5c0,0 0,0 -1,0 0,-1 0,-2 0,-4 0,0 1,0 1,0 0,2 0,3 0,4zm-12 1c0,0 0,0 0,0 0,-2 1,-3 1,-5 0,0 0,0 0,0 0,2 0,3 -1,5zm-8 -6c-1,1 -1,3 -2,4 0,0 0,0 0,0 0,-2 0,-3 1,-4 0,-1 1,-1 1,0zm26 -16c0,3 2,5 4,7 3,3 4,4 3,8 0,1 0,1 0,0 -1,-2 -1,-5 -3,-7 -1,-1 -2,-1 -3,-3 -2,-2 -2,-5 -3,-7 -1,-3 -2,-6 -2,-9 0,-1 -2,-6 -4,-8 -1,0 -1,0 -2,0 0,0 0,0 0,0 0,3 2,5 2,8 1,4 0,6 -1,9 -1,3 -2,7 -3,10 0,3 -1,8 0,11 0,0 0,0 0,0 -2,-1 -1,-4 -1,-6 0,-4 0,-7 2,-11 1,-4 3,-7 3,-12 0,-2 -1,-4 -2,-6 0,-1 0,-1 0,-1 0,6 -1,12 -3,18 -2,5 -7,10 -9,16 0,0 -1,0 -1,0 1,-6 6,-10 8,-15 3,-7 4,-14 4,-21 -1,1 -3,7 -3,8 0,2 -1,5 -1,7 -1,1 -2,3 -2,4 -2,3 -3,7 -5,10 -2,1 -3,3 -5,4 -1,0 -3,0 -4,1 -1,1 -6,7 -1,6 1,0 2,0 2,1 1,1 1,1 1,3 1,2 3,3 6,2 1,0 4,-1 5,1 1,3 3,2 5,2 1,-1 2,-1 3,0 0,-1 0,-2 0,-2 0,-1 1,-1 1,0 1,2 4,5 5,2 0,-1 0,-2 1,-2 0,-1 3,-1 4,0 2,2 3,-2 4,-4 1,-1 3,1 3,1 3,1 4,0 4,-2 0,-1 0,-1 0,-1 -1,-1 -1,-1 0,-2 0,0 0,-1 0,-1 1,-1 3,-1 4,0 3,3 2,0 3,-2 1,0 1,0 2,0 1,0 1,-1 1,-1 0,0 0,-1 0,-1 0,0 0,0 0,0 0,-1 0,-2 -1,-2 0,-1 0,-1 1,-1 0,0 1,1 2,2 1,-1 2,-1 3,-2 1,0 4,-1 2,-3 0,-1 0,-1 0,-2 0,-1 0,-1 1,-2 1,-1 3,-5 0,-5 -3,0 -5,-1 -7,-2 -3,-1 -5,-1 -7,-4 -2,-3 -7,-2 -10,-3 -2,-1 -4,-3 -7,-4 2,3 3,6 5,9 2,2 3,8 6,9 2,0 3,1 4,3 0,0 0,1 -1,0 -1,-2 -4,-2 -5,-4 -1,-1 -2,-3 -2,-4 -2,-3 -4,-6 -5,-8 -1,-2 -2,-4 -3,-6 0,0 0,0 0,-1 -1,0 -2,-1 -3,-1 0,0 0,0 0,0 0,0 0,-1 0,-1 0,0 0,0 0,0 0,0 0,0 0,0 1,4 2,9 2,10 1,3 2,5 3,7z"/>
  <path class="fil1" d="M60 119c-2,0 -4,1 -5,-2 -1,-2 -4,-1 -5,-1 -3,1 -5,0 -6,-2 0,-2 0,-2 -1,-3 0,-1 -1,-1 -2,-1 -5,1 0,-5 1,-6 1,-1 3,-1 4,-1 2,-1 3,-3 5,-4 2,-3 3,-7 5,-10 0,-1 1,-3 2,-4 0,-2 1,-5 1,-7 0,-1 2,-7 3,-8 0,0 0,0 0,0 -1,0 -1,-1 0,-1 0,-1 0,-1 1,0 0,0 0,0 0,0 0,-1 -1,-1 -1,-1 -2,0 -3,4 -3,5 -2,5 -2,10 -4,14 -2,2 -2,4 -3,6 -1,3 -3,5 -6,7 -3,2 -7,3 -9,7 0,2 0,5 2,5 1,0 2,0 2,0 2,0 2,3 2,3 0,1 1,2 2,3 2,1 3,0 5,0 1,0 3,-1 4,0 0,1 0,2 1,3 0,0 2,1 2,1 2,-1 3,-2 5,-2 0,0 1,0 2,0 -1,0 -1,-1 -1,-1 -1,-1 -2,-1 -3,0z"/>
  <path class="fil1" d="M101 87c-2,0 -4,-1 -6,-2 -1,0 -2,0 -3,-1 -1,-1 -1,-2 -2,-2 -2,-3 -5,-3 -8,-4 -4,0 -8,-3 -12,-6 -1,-1 -2,-2 -4,-3 0,-1 -2,-1 -3,0 0,0 0,0 0,0 0,0 0,0 0,0 0,0 0,0 0,0 0,0 0,0 0,0 0,0 0,0 0,0 2,-1 3,0 5,3 0,0 0,0 0,0 0,0 0,0 0,0 0,0 0,0 0,0 2,0 3,1 4,3 0,0 0,0 0,1 3,1 5,3 7,4 3,1 8,0 10,3 2,3 4,3 7,4 2,1 4,2 7,2 3,0 1,4 0,5 -1,1 -1,1 -1,2 0,1 0,1 0,2 2,2 -1,3 -2,3 -1,1 -2,1 -3,2 0,0 0,1 0,1 2,-1 5,-1 7,-3 2,-1 -2,-4 0,-6 2,-1 3,-3 2,-5 -1,-3 -3,-3 -5,-3z"/>
  <path class="fil1" d="M95 105c0,-1 0,-1 0,-1 0,0 0,0 0,0 0,0 0,1 0,1z"/>
  <path class="fil1" d="M68 73c1,0 2,1 3,1 0,1 0,1 0,1 -1,-1 -2,-2 -3,-2z"/>
  <path class="fil1" d="M63 70c1,0 1,0 2,0 -1,0 -1,-1 -2,0z"/>
  <path class="fil1" d="M62 69c-1,0 -1,1 0,1 0,-1 0,-1 0,-1 0,0 0,0 0,0z"/>
  <path class="fil1" d="M95 101c-1,0 -1,0 -1,1 1,0 1,1 1,2 0,0 0,0 0,1 0,0 0,1 -1,1 -1,0 -1,0 -2,0 -1,2 0,5 -3,2 -1,-1 -3,-1 -4,0 0,0 0,1 0,1 -1,1 -1,1 0,2 0,0 0,0 0,1 0,2 -1,3 -4,2 0,0 -2,-2 -3,-1 -1,2 -2,6 -4,4 -1,-1 -4,-1 -4,0 -1,0 -1,1 -1,2 -1,3 -4,0 -5,-2 0,-1 -1,-1 -1,0 0,0 0,1 0,2 0,0 0,1 1,1 0,1 1,3 2,3 1,0 2,0 3,-1 1,-2 2,-6 4,-3 2,1 4,0 5,-2 0,0 1,-1 1,-2 1,-1 1,0 2,1 1,0 2,0 3,0 1,-1 1,-1 2,-2 0,-1 0,-2 0,-2 0,-1 0,-5 2,-3 1,2 3,3 4,1 1,-1 0,-3 3,-3 1,0 1,0 2,-1 0,-1 0,-1 0,-2 0,0 0,-1 0,-1 -1,-1 -2,-2 -2,-2z"/>
  <path class="fil1" d="M62 69c0,0 0,0 0,0 0,0 0,0 0,1 0,0 0,0 0,0 0,7 -1,14 -4,21 -2,5 -7,9 -8,15 0,0 1,0 1,0 2,-6 7,-11 9,-16 2,-6 3,-12 3,-18 -1,-1 -1,-2 -1,-2 0,0 0,0 0,-1 0,0 0,0 0,0 0,0 0,0 1,0 0,0 0,0 0,0 0,0 0,0 0,0 0,0 0,0 0,0 -1,-1 -1,-1 -1,0z"/>
  <path class="fil1" d="M65 79c0,5 -2,8 -3,12 -2,4 -2,7 -2,11 0,2 -1,5 1,6 0,0 0,0 0,0 -1,-3 0,-8 0,-11 1,-3 2,-7 3,-10 1,-3 2,-5 1,-9 0,-3 -2,-5 -2,-8 0,0 0,0 0,0 0,0 -1,0 -1,0 0,0 0,1 1,2 0,0 0,0 0,1 1,2 2,4 2,6z"/>
  <path class="fil1" d="M67 93c-1,4 -1,8 -1,12 1,0 1,0 1,0 0,-4 0,-8 0,-11 1,-1 0,-1 0,-1z"/>
  <path class="fil1" d="M62 69c0,0 0,0 0,0 0,1 0,1 0,1 0,0 1,0 1,0 0,0 0,0 0,0 0,0 0,0 0,0 1,-1 1,0 2,0 2,2 4,7 4,8 0,3 1,6 2,9 1,2 1,5 3,7 1,2 2,2 3,3 2,2 2,5 3,7 0,1 0,1 0,0 1,-4 0,-5 -3,-8 -2,-2 -4,-4 -4,-7 -1,-2 -2,-4 -3,-7 0,-1 -1,-6 -2,-10 -2,-3 -3,-4 -5,-3 0,0 -1,0 -1,0z"/>
  <path class="fil1" d="M67 82c0,3 1,6 2,8 0,0 0,0 0,0 0,-3 -1,-5 -2,-8 0,0 0,0 0,0z"/>
  <path class="fil1" d="M73 98c-1,-1 -1,-2 -1,-4 0,0 -1,0 -1,0 0,1 0,3 1,4 1,2 2,3 2,6 0,0 1,0 1,0 0,-1 0,-3 -1,-4 0,-1 -1,-1 -1,-2z"/>
  <path class="fil1" d="M68 73c0,0 0,0 0,0 1,0 2,1 3,2 1,2 2,4 3,6 1,2 3,5 5,8 0,1 1,3 2,4 1,2 4,2 5,4 1,1 1,0 1,0 -1,-2 -2,-3 -4,-3 -3,-1 -4,-7 -6,-9 -2,-3 -3,-6 -5,-9 0,-1 0,-1 0,-1 -1,-2 -2,-3 -4,-3 0,0 0,0 0,0 0,0 0,1 0,1z"/>
  <path class="fil1" d="M90 94c1,0 1,0 1,0 -4,-3 -7,-7 -10,-10 0,-1 -1,0 0,0 1,2 3,4 4,5 2,2 3,4 5,5z"/>
  <path class="fil1" d="M91 88c2,1 3,2 5,3 0,1 0,0 0,0 -1,-2 -3,-3 -4,-4 -1,0 -1,1 -1,1z"/>
  <path class="fil1" d="M46 105c-1,1 -1,2 -1,4 0,0 0,0 0,0 1,-1 1,-3 2,-4 0,-1 -1,-1 -1,0z"/>
  <path class="fil1" d="M56 106c0,2 -1,3 -1,5 0,0 0,0 0,0 1,-2 1,-3 1,-5 0,0 0,0 0,0z"/>
  <path class="fil1" d="M66 106c0,2 0,3 0,4 1,0 1,0 1,0 0,-1 0,-2 0,-4 0,0 -1,0 -1,0z"/>
  <path class="fil1" d="M86 103c0,0 1,0 0,0 0,-1 0,-2 -1,-3 0,0 -1,0 -1,0 1,1 1,2 2,3z"/>
 </g>
</svg>
