<?xml version="1.0" encoding="UTF-8"?>
<!DOCTYPE svg PUBLIC "-//W3C//DTD SVG 1.1//EN" "http://www.w3.org/Graphics/SVG/1.1/DTD/svg11.dtd">
<!-- Creator: CorelDRAW X7 -->
<svg xmlns="http://www.w3.org/2000/svg" xml:space="preserve" width="5.58104in" height="4.85786in" version="1.1" style="shape-rendering:geometricPrecision; text-rendering:geometricPrecision; image-rendering:optimizeQuality; fill-rule:evenodd; clip-rule:evenodd"
viewBox="0 0 4420 3847"
 xmlns:xlink="http://www.w3.org/1999/xlink">
 <defs>
  <style type="text/css">
   <![CDATA[
    .fil0 {fill:#3B3532}
   ]]>
  </style>
 </defs>
 <g id="Layer_x0020_1">
  <metadata id="CorelCorpID_0Corel-Layer"/>
  <path class="fil0" d="M2344 272l-187 62 187 88c0,0 -89,187 0,293 89,107 80,169 0,214 -80,44 19,310 -62,381l-80 -44 -284 257 -222 -124c0,0 -515,2175 1252,2166 808,-62 1553,-541 1465,-1757l-338 -178c0,0 18,-204 -248,-400 -267,-195 -187,-417 -205,-657 -17,-239 -381,-578 -852,-573 -470,5 -426,272 -426,272z"/>
  <path class="fil0" d="M0 2267l897 586 675 -278 337 384 275 -71 160 329c0,0 -524,639 -1172,630 -648,-9 -1172,-950 -1172,-1580z"/>
 </g>
</svg>
