<?xml version="1.0" encoding="UTF-8"?>
<!DOCTYPE svg PUBLIC "-//W3C//DTD SVG 1.1//EN" "http://www.w3.org/Graphics/SVG/1.1/DTD/svg11.dtd">
<!-- Creator: CorelDRAW X7 -->
<svg xmlns="http://www.w3.org/2000/svg" xml:space="preserve" width="0.852114in" height="0.542236in" version="1.1" style="shape-rendering:geometricPrecision; text-rendering:geometricPrecision; image-rendering:optimizeQuality; fill-rule:evenodd; clip-rule:evenodd"
viewBox="0 0 518 330"
 xmlns:xlink="http://www.w3.org/1999/xlink">
 <defs>
  <style type="text/css">
   <![CDATA[
    .fil0 {fill:#E1E783}
    .fil1 {fill:#ADBA52}
   ]]>
  </style>
 </defs>
 <g id="Layer_x0020_1">
  <metadata id="CorelCorpID_0Corel-Layer"/>
  <path class="fil0" d="M116 21c-9,0 -17,2 -25,6 1,3 3,7 4,10 1,3 2,6 3,9 4,-3 9,-5 15,-5 1,0 1,0 2,0 0,-7 1,-14 1,-20 0,0 0,0 0,0z"/>
  <path class="fil0" d="M66 50c-4,8 -6,17 -7,27 0,1 0,1 0,2 7,0 16,3 20,-4 2,-4 4,-7 5,-11 -7,-3 -9,-13 -18,-14z"/>
  <path class="fil0" d="M88 28c-8,5 -15,11 -20,19 3,0 6,2 9,5 3,3 6,6 9,9 0,-1 1,-2 1,-3 2,-3 5,-7 8,-10 -1,-3 -2,-7 -3,-10 -2,-3 -3,-7 -4,-10z"/>
  <path class="fil0" d="M152 34c-8,-8 -20,-13 -33,-13 0,7 0,13 0,20 5,1 10,4 14,8 5,-2 8,-6 12,-9 2,-2 4,-5 7,-6z"/>
  <path class="fil0" d="M155 37c-2,2 -4,3 -5,4 -3,2 -5,4 -7,6 -2,2 -5,4 -7,5 0,1 1,2 2,4 0,1 2,4 3,7 8,-3 16,-5 24,-7 -2,-7 -5,-14 -10,-19z"/>
  <path class="fil0" d="M166 61c-8,1 -16,4 -24,5 1,4 3,6 4,7 7,0 14,0 21,0 0,-4 0,-8 -1,-12z"/>
  <path class="fil1" d="M56 79c1,0 2,0 3,0 0,-1 0,-1 0,-2 1,-10 3,-19 7,-27 0,0 0,0 -1,0 -1,0 -2,-2 0,-2 1,-1 2,-1 3,-1 5,-8 12,-14 20,-19 0,-1 0,-2 0,-4 -1,-1 2,-2 2,0 1,1 1,2 1,3 8,-4 16,-6 25,-6 0,0 0,0 0,0 0,6 -1,13 -1,20 1,0 2,0 4,0 0,-7 0,-13 0,-20 13,0 25,5 33,13 1,0 2,0 3,0 1,0 2,1 1,2 0,1 -1,1 -1,1 5,5 8,12 10,19 1,0 2,0 3,0 3,-1 4,3 2,4 -2,0 -3,0 -4,1 1,4 1,8 1,12 1,0 1,0 2,0 2,0 3,3 2,4 1,0 2,-1 2,-2 3,-35 -22,-61 -57,-61 -36,0 -63,28 -62,63 0,1 0,2 1,3 0,-1 1,-1 1,-1z"/>
  <path class="fil1" d="M171 77c1,-1 0,-4 -2,-4 -1,0 -1,0 -2,0 -7,0 -14,0 -21,0 -1,-1 -3,-3 -4,-7 -1,0 -2,0 -3,1 -2,0 -2,-3 0,-4 0,0 1,0 2,0 -1,-3 -3,-6 -3,-7 -1,-2 -2,-3 -2,-4 -1,1 -3,1 -4,1 -2,0 -2,-3 0,-3 0,0 1,-1 1,-1 -4,-4 -9,-7 -14,-8 -2,0 -3,0 -4,0 -1,0 -1,0 -2,0 -6,0 -11,2 -15,5 0,1 1,3 1,4 0,1 -2,2 -3,1 0,-1 -1,-2 -1,-3 -3,3 -6,7 -8,10 0,1 -1,2 -1,3 0,1 0,1 1,2 1,1 0,2 -1,2 -1,0 -1,-1 -2,-1 -1,4 -3,7 -5,11 -4,7 -13,4 -20,4 -1,0 -2,0 -3,0 0,0 -1,0 -1,1 -1,1 -1,3 1,3 7,1 15,3 21,0 6,-2 9,-9 11,-14 6,-12 13,-23 28,-23 14,0 21,18 23,30 0,1 1,2 3,2 9,1 18,1 27,1 1,0 2,-1 2,-2z"/>
  <path class="fil1" d="M68 47c-1,0 -2,0 -3,1 -2,0 -1,2 0,2 1,0 1,0 1,0 9,1 11,11 18,14 1,0 1,1 2,1 1,0 2,-1 1,-2 -1,-1 -1,-1 -1,-2 -3,-3 -6,-6 -9,-9 -3,-3 -6,-5 -9,-5z"/>
  <path class="fil1" d="M91 27c0,-1 0,-2 -1,-3 0,-2 -3,-1 -2,0 0,2 0,3 0,4 1,3 2,7 4,10 1,3 2,7 3,10 0,1 1,2 1,3 1,1 3,0 3,-1 0,-1 -1,-3 -1,-4 -1,-3 -2,-6 -3,-9 -1,-3 -3,-7 -4,-10z"/>
  <path class="fil1" d="M150 41c1,-1 3,-2 5,-4 0,0 1,0 1,-1 1,-1 0,-2 -1,-2 -1,0 -2,0 -3,0 -3,1 -5,4 -7,6 -4,3 -7,7 -12,9 0,0 -1,1 -1,1 -2,0 -2,3 0,3 1,0 3,0 4,-1 2,-1 5,-3 7,-5 2,-2 4,-4 7,-6z"/>
  <path class="fil1" d="M170 60c2,-1 1,-5 -2,-4 -1,0 -2,0 -3,0 -8,2 -16,4 -24,7 -1,0 -2,0 -2,0 -2,1 -2,4 0,4 1,-1 2,-1 3,-1 8,-1 16,-4 24,-5 1,-1 2,-1 4,-1z"/>
  <path class="fil0" d="M17 211c4,2 8,4 12,6 1,-6 4,-11 8,-14 0,0 0,-1 0,-1 -1,-3 -2,-7 -4,-10 -2,-4 -4,-8 -6,-12 -6,4 -10,10 -14,17 -2,4 -4,7 -5,11 3,0 7,2 9,3z"/>
  <path class="fil0" d="M27 232c0,0 1,-8 1,-8 0,-1 0,-2 0,-3 -6,-4 -13,-8 -21,-10 -1,8 -2,16 -2,24 3,-1 7,-1 10,-2 4,0 8,-1 12,-1z"/>
  <path class="fil0" d="M41 200c0,0 0,1 0,1 4,-1 8,-2 11,-1 1,-9 2,-19 5,-27 1,-1 1,-1 2,-2 -4,0 -9,0 -13,1 -6,1 -12,3 -16,6 3,6 7,11 9,16 0,2 1,4 2,6z"/>
  <path class="fil0" d="M61 174c-2,9 -3,17 -5,26 6,1 12,4 16,10 0,0 0,0 0,0 8,-1 14,-9 21,-14 1,0 1,0 1,0 -7,-13 -18,-23 -34,-24 1,0 2,1 1,2z"/>
  <path class="fil0" d="M95 200c-6,3 -14,14 -22,13 3,5 6,13 10,13 6,0 14,0 20,-4 0,0 1,0 1,0 0,0 0,-1 0,-1 -2,-8 -5,-15 -8,-22 0,1 0,1 -1,1z"/>
  <path class="fil1" d="M48 166c-35,4 -50,39 -48,70 0,2 2,3 3,2 -1,0 -1,-1 0,-2 0,0 1,-1 2,-1 0,-8 1,-16 2,-24 0,0 0,0 -1,0 -1,-1 -1,-2 0,-3 1,0 2,0 2,0 1,-4 3,-7 5,-11 4,-7 8,-13 14,-17 0,-1 -1,-2 -1,-3 -1,-2 2,-3 3,-1 0,1 1,1 1,2 4,-3 10,-5 16,-6 4,-1 9,-1 13,-1 0,0 1,0 1,1 16,1 27,11 34,24 2,0 3,2 2,3 3,7 6,14 8,22 0,0 0,1 0,1 1,0 2,0 2,1 2,0 4,-2 3,-4 -7,-31 -26,-57 -61,-53z"/>
  <path class="fil1" d="M104 222c0,0 -1,0 -1,0 -6,4 -14,4 -20,4 -4,0 -7,-8 -10,-13 0,0 -1,0 -2,0 -1,-1 -1,-3 1,-3 -4,-6 -10,-9 -16,-10 0,1 -1,3 -1,4 0,2 -3,1 -3,-1 0,-1 0,-2 0,-3 -3,-1 -7,0 -11,1 0,0 0,1 0,1 1,0 1,0 1,1 1,1 0,3 -1,3 -2,0 -3,-2 -4,-3 -4,3 -7,8 -8,14 1,1 2,1 3,2 2,1 0,5 -2,3 -1,0 -1,0 -2,-1 0,1 0,2 0,3 0,0 -1,8 -1,8 -4,0 -8,1 -12,1 -3,1 -7,1 -10,2 -1,0 -2,1 -2,1 -1,1 -1,2 0,2 0,0 0,1 0,1 6,3 19,-1 26,-1 1,0 3,-1 3,-2 1,-9 1,-18 5,-26 5,-7 17,-5 24,-3 8,4 11,14 13,22 0,1 1,2 2,2 9,2 22,1 30,-4 1,-1 1,-3 0,-4 0,-1 -1,-1 -2,-1z"/>
  <path class="fil1" d="M30 222c2,2 4,-2 2,-3 -1,-1 -2,-1 -3,-2 -4,-2 -8,-4 -12,-6 -2,-1 -6,-3 -9,-3 0,0 -1,0 -2,0 -1,1 -1,2 0,3 1,0 1,0 1,0 8,2 15,6 21,10 1,1 1,1 2,1z"/>
  <path class="fil1" d="M37 202c0,0 0,1 0,1 1,1 2,3 4,3 1,0 2,-2 1,-3 0,-1 0,-1 -1,-1 0,0 0,-1 0,-1 0,0 0,-1 0,-1 -1,-2 -2,-4 -2,-6 -2,-5 -6,-10 -9,-16 0,-1 -1,-1 -1,-2 -1,-2 -4,-1 -3,1 0,1 1,2 1,3 2,4 4,8 6,12 2,3 3,7 4,10z"/>
  <path class="fil1" d="M57 173c-3,8 -4,18 -5,27 0,1 0,2 0,3 0,2 3,3 3,1 0,-1 1,-3 1,-4 2,-9 3,-17 5,-26 1,-1 0,-2 -1,-2 0,-1 -1,-1 -1,-1 -1,1 -1,1 -2,2z"/>
  <path class="fil1" d="M93 196c-7,5 -13,13 -21,14 0,0 0,0 0,0 -2,0 -2,2 -1,3 1,0 2,0 2,0 8,1 16,-10 22,-13 1,0 1,0 1,-1 1,-1 0,-3 -2,-3 0,0 0,0 -1,0z"/>
  <path class="fil0" d="M208 162c0,0 1,1 1,2 3,-3 7,-4 11,-5 1,0 1,0 2,0 -1,-9 1,-18 1,-27 -4,-1 -9,0 -15,3 -5,2 -9,5 -13,8 2,4 5,8 8,12 2,3 3,5 5,7z"/>
  <path class="fil0" d="M206 166c-4,-4 -11,-15 -13,-21 -8,9 -12,20 -15,31 7,2 13,5 19,8 2,-7 5,-13 9,-18z"/>
  <path class="fil0" d="M196 188c-6,-3 -12,-6 -19,-8 -1,6 -2,12 -2,18 7,0 14,1 21,1 0,-4 0,-7 0,-11z"/>
  <path class="fil0" d="M244 173c1,6 3,14 8,14 5,-1 10,-2 14,-2 0,-1 0,-1 0,-1 -2,-6 -4,-13 -6,-19 -2,2 -5,3 -7,4 -3,2 -6,3 -9,4z"/>
  <path class="fil0" d="M243 170c3,-2 6,-3 9,-5 2,-1 4,-3 6,-3 -6,-15 -17,-27 -31,-30 0,9 -1,18 -2,27 8,1 14,4 18,11z"/>
  <path class="fil1" d="M271 182c-6,-29 -25,-62 -58,-55 -32,7 -43,44 -43,72 1,-1 2,-1 3,-1 0,0 1,0 2,0 0,-6 1,-12 2,-18 0,0 0,0 0,0 -2,-1 -2,-4 1,-4 0,0 0,0 0,0 3,-11 7,-22 15,-31 -1,-1 -1,-2 -1,-3 0,-2 2,-2 3,-1 0,1 0,1 0,2 4,-3 8,-6 13,-8 6,-3 11,-4 15,-3 0,0 0,-1 0,-1 0,-2 4,-2 4,0 0,1 0,1 0,1 14,3 25,15 31,30 1,-1 2,-1 2,-1 1,1 1,1 1,2 0,1 0,1 -1,2 2,6 4,13 6,19 0,0 0,0 0,1 1,0 2,0 2,0 1,0 2,0 2,0 1,-1 2,-2 1,-3z"/>
  <path class="fil1" d="M266 185c-4,0 -9,1 -14,2 -5,0 -7,-8 -8,-14 -1,1 -1,1 -2,1 -2,1 -2,-2 -1,-3 1,0 1,0 2,-1 -4,-7 -10,-10 -18,-11 0,1 0,2 0,2 0,2 -3,3 -3,0 0,0 0,-1 0,-2 -1,0 -1,0 -2,0 -4,1 -8,2 -11,5 1,1 1,2 1,1 1,1 1,2 0,2 -1,1 -2,0 -4,-1 -4,5 -7,11 -9,18 1,0 1,1 2,1 2,1 0,5 -2,4 0,0 0,0 -1,-1 0,4 0,7 0,11 -7,0 -14,-1 -21,-1 -1,0 -2,0 -2,0 -1,0 -2,0 -3,1 -1,1 0,4 2,4 9,1 18,2 28,2 2,0 3,-2 3,-4 -2,-10 0,-21 7,-29 9,-11 25,-7 29,6 2,4 3,10 8,13 6,4 15,0 21,-1 3,0 4,-4 2,-5 0,0 -1,0 -2,0 0,0 -1,0 -2,0z"/>
  <path class="fil1" d="M197 189c2,1 4,-3 2,-4 -1,0 -1,-1 -2,-1 -6,-3 -12,-6 -19,-8 0,0 0,0 0,0 -2,0 -3,3 -1,4 0,0 0,0 0,0 7,2 13,5 19,8 1,1 1,1 1,1z"/>
  <path class="fil1" d="M206 166c2,1 3,2 4,1 1,0 1,-1 0,-2 1,1 0,0 -1,-1 0,-1 -1,-2 -1,-2 -2,-2 -3,-4 -5,-7 -3,-4 -6,-8 -8,-12 0,-1 0,-1 0,-2 -1,-1 -3,-1 -3,1 0,1 0,2 1,3 2,6 9,17 13,21z"/>
  <path class="fil1" d="M222 159c0,1 0,2 0,2 0,3 3,2 3,0 0,0 0,-1 0,-2 1,-9 2,-18 2,-27 0,0 0,0 0,-1 0,-2 -4,-2 -4,0 0,0 0,1 0,1 0,9 -2,18 -1,27z"/>
  <path class="fil1" d="M243 170c-1,1 -1,1 -2,1 -1,1 -1,4 1,3 1,0 1,0 2,-1 3,-1 6,-2 9,-4 2,-1 5,-2 7,-4 1,-1 1,-1 1,-2 0,-1 0,-1 -1,-2 0,0 -1,0 -2,1 -2,0 -4,2 -6,3 -3,2 -6,3 -9,5z"/>
  <path class="fil0" d="M320 7c0,0 0,0 -1,0 -11,-2 -24,1 -36,7 1,0 1,0 1,1 0,-1 0,0 0,1 0,1 1,2 1,3 1,2 1,4 2,7 1,3 2,7 3,11 1,0 2,0 1,1 0,1 0,1 0,1 5,-2 9,-2 14,-1 0,0 0,0 0,0 2,-9 8,-17 11,-25 1,-1 2,-4 4,-6z"/>
  <path class="fil0" d="M346 42c0,-1 0,-1 -1,-2 -3,-11 -10,-26 -21,-31 0,0 0,0 0,0 0,1 -1,1 -1,1 1,0 0,-1 -1,1 0,1 -1,2 -1,3 -1,3 -2,5 -3,7 -4,6 -8,12 -9,18 5,2 8,6 10,11 4,-3 10,-5 15,-6 3,-1 9,-3 12,-2z"/>
  <path class="fil0" d="M347 46c-1,1 -3,1 -5,1 -3,0 -6,1 -8,2 -5,1 -9,3 -13,4 0,0 0,0 0,1 1,6 1,12 1,19 -1,4 17,6 21,7 0,0 0,0 0,0 6,-10 6,-23 4,-34z"/>
  <path class="fil0" d="M282 24c-1,-3 -2,-7 -1,-9 -10,5 -19,13 -25,22 3,3 5,6 9,9 3,3 6,5 8,8 4,-5 9,-10 13,-12 0,-1 0,-1 0,-2 -1,-6 -3,-11 -4,-16z"/>
  <path class="fil0" d="M260 48c-2,-2 -5,-5 -6,-7 -5,8 -9,16 -9,25 7,0 13,2 19,4 2,-4 4,-9 7,-13 0,0 0,0 -1,0 -3,-3 -7,-6 -10,-9z"/>
  <path class="fil1" d="M245 66c0,0 0,0 0,0 0,-9 4,-17 9,-25 -1,-1 -1,-2 -1,-3 0,-2 1,-2 2,-1 0,0 1,0 1,0 6,-9 15,-17 25,-22 0,-1 1,-1 1,-1 0,-1 1,-1 1,0 12,-6 25,-9 36,-7 1,0 1,0 1,0 0,0 1,-1 2,-1 1,0 2,1 2,3 11,5 18,20 21,31 1,1 1,1 1,2 1,0 1,1 2,1 0,1 0,2 0,2 -1,1 -1,1 -1,1 2,11 2,24 -4,34 2,1 2,3 1,5 2,0 3,0 4,-1 16,-25 2,-74 -27,-83 -18,-5 -40,5 -53,16 -16,13 -28,30 -28,51 0,1 1,2 2,2 0,-2 0,-4 3,-4z"/>
  <path class="fil1" d="M315 75c0,2 0,3 2,4 7,4 16,5 24,7 2,1 3,0 3,-1 1,-2 1,-4 -1,-5 0,0 0,0 0,0 -4,-1 -22,-3 -21,-7 0,-7 0,-13 -1,-19 0,-1 0,-1 0,-1 -1,0 -1,0 -1,0 -2,1 -3,-1 -2,-2 1,-1 1,-1 1,-1 -2,-5 -5,-9 -10,-11 0,1 0,2 0,3 0,2 -4,2 -4,0 0,-1 0,-3 0,-4 0,0 0,0 0,0 -5,-1 -9,-1 -14,1 0,2 -1,3 -3,3 -1,0 -1,0 -2,0 -4,2 -9,7 -13,12 1,0 1,0 1,0 2,2 -1,5 -3,3 -3,4 -5,9 -7,13 -6,-2 -12,-4 -19,-4 0,0 0,0 0,0 -3,0 -3,2 -3,4 1,1 1,2 3,2 7,1 13,2 20,5 2,0 4,-1 4,-2 5,-14 14,-27 28,-31 19,-5 20,19 18,31z"/>
  <path class="fil1" d="M256 37c0,0 -1,0 -1,0 -1,-1 -2,-1 -2,1 0,1 0,2 1,3 1,2 4,5 6,7 3,3 7,6 10,9 1,0 1,0 1,0 2,2 5,-1 3,-3 0,0 0,0 -1,0 -2,-3 -5,-5 -8,-8 -4,-3 -6,-6 -9,-9z"/>
  <path class="fil1" d="M290 37c-1,-4 -2,-8 -3,-11 -1,-3 -1,-5 -2,-7 0,-1 -1,-2 -1,-3 0,-1 0,-2 0,-1 0,-1 0,-1 -1,-1 0,-1 -1,-1 -1,0 0,0 -1,0 -1,1 -1,2 0,6 1,9 1,5 3,10 4,16 0,1 0,1 0,2 1,0 1,0 2,0 2,0 3,-1 3,-3 0,0 0,0 0,-1 1,-1 0,-1 -1,-1z"/>
  <path class="fil1" d="M321 14c0,-1 1,-2 1,-3 1,-2 2,-1 1,-1 0,0 1,0 1,-1 0,0 0,0 0,0 0,-2 -1,-3 -2,-3 -1,0 -2,1 -2,1 -2,2 -3,5 -4,6 -3,8 -9,16 -11,25 0,1 0,3 0,4 0,2 4,2 4,0 0,-1 0,-2 0,-3 1,-6 5,-12 9,-18 1,-2 2,-4 3,-7z"/>
  <path class="fil1" d="M342 47c2,0 4,0 5,-1 0,0 0,0 1,-1 0,0 0,-1 0,-2 -1,0 -1,-1 -2,-1 -3,-1 -9,1 -12,2 -5,1 -11,3 -15,6 0,0 0,0 -1,1 -1,1 0,3 2,2 0,0 0,0 1,0 4,-1 8,-3 13,-4 2,-1 5,-2 8,-2z"/>
  <path class="fil0" d="M222 305c2,5 3,11 4,15 7,0 18,-1 24,2 -1,-10 -2,-20 -5,-29 0,0 0,0 0,0 -7,4 -15,11 -23,12z"/>
  <path class="fil0" d="M178 321c0,-2 1,-4 1,-6 0,-1 -1,-1 -1,-2 -6,-1 -13,-4 -18,-8 -1,3 -3,7 -4,10 0,1 -2,4 -3,6 6,0 25,1 25,0z"/>
  <path class="fil0" d="M181 309c0,0 0,0 0,0 2,-6 4,-10 8,-14 -3,-3 -4,-7 -6,-10 -1,-3 -3,-6 -4,-9 -6,5 -11,12 -15,20 -1,2 -2,4 -3,6 7,2 12,6 19,7 0,0 0,0 1,0z"/>
  <path class="fil0" d="M192 293c1,-1 2,-2 3,-2 3,-1 6,-2 8,-2 1,-5 2,-10 2,-15 1,-3 1,-7 2,-10 -3,0 -6,1 -9,2 -6,2 -11,4 -16,8 2,3 4,7 5,10 2,3 3,6 5,9z"/>
  <path class="fil0" d="M207 290c6,1 10,6 13,11 8,-2 15,-8 22,-12 1,0 1,0 1,0 -5,-15 -15,-26 -32,-25 0,4 -1,8 -2,12 0,5 -1,9 -2,14z"/>
  <path class="fil1" d="M197 260c-18,5 -31,19 -38,35 -2,4 -15,28 -8,31 1,0 1,0 1,0 0,0 -1,-1 -1,-1 -2,-1 -2,-4 1,-4 0,0 0,0 1,0 1,-2 3,-5 3,-6 1,-3 3,-7 4,-10 0,0 -1,-1 -1,-1 -1,-1 0,-2 1,-2 0,0 1,0 1,0 1,-2 2,-4 3,-6 4,-8 9,-15 15,-20 0,-1 0,-2 -1,-3 0,-1 2,-2 3,-1 0,1 1,1 1,2 5,-4 10,-6 16,-8 3,-1 6,-2 9,-2 0,-2 1,-3 2,-4 0,-1 2,-1 2,0 0,1 0,2 0,4 17,-1 27,10 32,25 2,0 4,3 2,4 3,9 4,19 5,29 2,1 4,2 5,4 0,0 0,1 0,1 1,0 1,-1 1,-2 -1,-18 -3,-36 -13,-51 -10,-17 -29,-18 -46,-14z"/>
  <path class="fil1" d="M255 326c-1,-2 -3,-3 -5,-4 -6,-3 -17,-2 -24,-2 -1,-4 -2,-10 -4,-15 -1,0 -2,0 -3,0 -2,0 -2,-3 0,-3 0,0 1,-1 1,-1 -3,-5 -7,-10 -13,-11 0,1 -1,2 -1,4 0,2 -3,1 -3,-1 0,-1 0,-2 0,-4 -2,0 -5,1 -8,2 -1,0 -2,1 -3,2 0,0 0,1 0,2 1,1 -1,3 -2,1 -1,0 -1,0 -1,-1 -4,4 -6,8 -8,14 0,0 0,0 0,0 0,1 1,1 1,2 -1,0 -1,0 -1,0 1,0 2,1 2,2 -1,0 -1,0 -1,0 0,1 -1,2 -2,2 0,0 0,0 -1,0 0,2 -1,4 -1,6 0,1 -19,0 -25,0 -1,0 -1,0 -1,0 -3,0 -3,3 -1,4 0,0 1,1 1,1 10,3 20,2 30,0 1,0 2,-2 2,-3 1,-9 3,-21 12,-26 8,-5 17,2 21,9 3,5 3,12 4,17 0,2 1,3 2,3 10,1 20,-1 28,3 2,1 4,0 4,-2 0,0 0,-1 0,-1z"/>
  <path class="fil1" d="M179 315c1,0 1,0 1,0 1,0 2,-1 2,-2 0,0 0,0 1,0 0,-1 -1,-2 -2,-2 0,0 0,0 1,0 0,-1 -1,-1 -1,-2 -1,0 -1,0 -1,0 -7,-1 -12,-5 -19,-7 0,0 -1,0 -1,0 -1,0 -2,1 -1,2 0,0 1,1 1,1 5,4 12,7 18,8 0,1 1,1 1,2z"/>
  <path class="fil1" d="M189 295c0,1 0,1 1,1 1,2 3,0 2,-1 0,-1 0,-2 0,-2 -2,-3 -3,-6 -5,-9 -1,-3 -3,-7 -5,-10 0,-1 -1,-1 -1,-2 -1,-1 -3,0 -3,1 1,1 1,2 1,3 1,3 3,6 4,9 2,3 3,7 6,10z"/>
  <path class="fil1" d="M203 289c0,2 0,3 0,4 0,2 3,3 3,1 0,-2 1,-3 1,-4 1,-5 2,-9 2,-14 1,-4 2,-8 2,-12 0,-2 0,-3 0,-4 0,-1 -2,-1 -2,0 -1,1 -2,2 -2,4 -1,3 -1,7 -2,10 0,5 -1,10 -2,15z"/>
  <path class="fil1" d="M242 289c-7,4 -14,10 -22,12 0,0 -1,1 -1,1 -2,0 -2,3 0,3 1,0 2,0 3,0 8,-1 16,-8 23,-12 0,0 0,0 0,0 2,-1 0,-4 -2,-4 0,0 0,0 -1,0z"/>
  <path class="fil0" d="M375 243c2,3 19,-2 22,-2 0,0 0,0 1,0 -2,-4 -3,-8 -4,-13 -6,4 -14,7 -20,9 0,2 1,4 1,6z"/>
  <path class="fil0" d="M365 217c7,-4 13,-10 19,-16 1,-1 1,-1 1,-1 -5,-12 -14,-21 -29,-20 -2,0 -4,1 -6,1 1,10 4,20 4,29 5,0 8,3 11,7z"/>
  <path class="fil0" d="M367 219c1,3 2,5 3,7 1,3 2,5 3,8 6,-3 13,-5 19,-9 0,-1 1,-1 1,-1 -2,-6 -4,-13 -6,-20 -5,6 -12,14 -20,15z"/>
  <path class="fil0" d="M320 202c1,1 1,3 2,4 2,2 5,4 7,5 3,3 8,5 10,9 2,-4 6,-7 11,-9 0,-10 -3,-19 -3,-29 -13,3 -22,10 -28,19 0,0 1,0 1,1z"/>
  <path class="fil0" d="M334 247c0,-2 0,-3 0,-5 -4,1 -9,0 -13,-1 -5,-1 -12,-3 -17,0 0,0 0,0 0,0 -1,5 -1,11 -2,16 5,-3 10,-4 16,-4 4,0 16,1 16,-6z"/>
  <path class="fil0" d="M315 236c7,1 13,3 19,2 0,-1 0,-2 0,-2 1,-5 1,-9 3,-13 -1,0 -1,0 -2,-1 -3,-4 -9,-7 -13,-11 -1,-1 -5,-4 -5,-7 -6,10 -10,21 -12,32 3,-1 7,0 10,0z"/>
  <path class="fil1" d="M353 175c-40,3 -57,47 -55,82 0,1 1,2 2,2 0,0 0,-1 0,-1 1,0 2,-1 2,-1 1,-5 1,-11 2,-16 -1,1 -3,-1 -2,-2 1,-1 2,-2 3,-3 2,-11 6,-22 12,-32 0,-1 0,-2 1,-3 1,0 1,0 1,0 6,-9 15,-16 28,-19 0,-1 0,-1 0,-2 0,-2 3,-2 3,0 0,1 0,1 0,1 2,0 4,-1 6,-1 15,-1 24,8 29,20 2,0 4,2 2,4 0,0 0,0 0,0 2,7 4,14 6,20 2,0 3,2 2,3 -1,1 -1,1 -1,1 1,5 2,9 4,13 2,0 3,2 3,4 2,0 4,-2 3,-4 -11,-27 -12,-70 -51,-66z"/>
  <path class="fil1" d="M398 241c-1,0 -1,0 -1,0 -3,0 -20,5 -22,2 0,-2 -1,-4 -1,-6 -1,0 -1,1 -1,1 -2,0 -3,-3 -1,-3 0,0 0,-1 1,-1 -1,-3 -2,-5 -3,-8 -1,-2 -2,-4 -3,-7 -1,1 -2,1 -3,1 -1,0 -1,-3 0,-3 0,0 0,0 1,0 -3,-4 -6,-7 -11,-7 0,1 0,2 0,3 1,2 -3,2 -3,0 0,-1 -1,-1 -1,-2 -5,2 -9,5 -11,9 0,0 0,0 0,0 1,2 -1,3 -2,3 -2,4 -2,8 -3,13 0,0 0,1 0,2 1,0 1,0 1,0 3,-1 4,3 2,4 -1,0 -2,0 -3,0 0,2 0,3 0,5 0,7 -12,6 -16,6 -6,0 -11,1 -16,4 0,0 -1,1 -2,1 0,0 0,1 0,1 0,1 1,2 2,2 8,-2 16,-2 24,-3 4,-1 9,-2 12,-5 2,-2 2,-6 2,-9 0,-10 0,-31 16,-28 11,2 11,23 15,30 5,7 22,1 28,0 1,0 1,-1 2,-1 0,-2 -1,-4 -3,-4z"/>
  <path class="fil1" d="M321 241c4,1 9,2 13,1 1,0 2,0 3,0 2,-1 1,-5 -2,-4 0,0 0,0 -1,0 -6,1 -12,-1 -19,-2 -3,0 -7,-1 -10,0 -1,1 -2,2 -3,3 -1,1 1,3 2,2 0,0 0,0 0,0 5,-3 12,-1 17,0z"/>
  <path class="fil1" d="M322 211c4,4 10,7 13,11 1,1 1,1 2,1 1,0 3,-1 2,-3 0,0 0,0 0,0 -2,-4 -7,-6 -10,-9 -2,-1 -5,-3 -7,-5 -1,-1 -1,-3 -2,-4 0,-1 -1,-1 -1,-1 0,0 0,0 -1,0 -1,1 -1,2 -1,3 0,3 4,6 5,7z"/>
  <path class="fil1" d="M351 213c0,2 4,2 3,0 0,-1 0,-2 0,-3 0,-9 -3,-19 -4,-29 0,0 0,0 0,-1 0,-2 -3,-2 -3,0 0,1 0,1 0,2 0,10 3,19 3,29 0,1 1,1 1,2z"/>
  <path class="fil1" d="M365 217c-1,0 -1,0 -1,0 -1,0 -1,3 0,3 1,0 2,0 3,-1 8,-1 15,-9 20,-15 0,0 0,0 0,0 2,-2 0,-4 -2,-4 0,0 0,0 -1,1 -6,6 -12,12 -19,16z"/>
  <path class="fil1" d="M373 234c-1,0 -1,1 -1,1 -2,0 -1,3 1,3 0,0 0,-1 1,-1 6,-2 14,-5 20,-9 0,0 0,0 1,-1 1,-1 0,-3 -2,-3 0,0 -1,0 -1,1 -6,4 -13,6 -19,9z"/>
  <path class="fil0" d="M493 136c0,0 0,0 0,0 7,-1 12,-5 18,-7 -1,-11 -6,-22 -13,-28 -6,7 -11,13 -16,21 6,3 9,8 11,14z"/>
  <path class="fil0" d="M441 141c-5,-5 -11,-10 -17,-14 -3,4 -6,8 -9,11 7,5 15,7 22,10 1,-3 3,-5 4,-7z"/>
  <path class="fil0" d="M464 120c5,-2 10,-2 15,0 0,0 0,0 0,0 4,-8 10,-15 15,-22 0,0 0,0 0,0 -13,-7 -26,-6 -37,0 1,0 1,0 1,1 1,7 3,14 6,21z"/>
  <path class="fil0" d="M443 137c5,-6 11,-12 17,-15 -3,-7 -5,-15 -6,-23 -10,6 -20,16 -28,26 3,0 6,2 8,4 3,3 6,6 9,8z"/>
  <path class="fil0" d="M493 140c0,0 0,1 0,1 0,3 -2,8 -3,13 4,-1 16,-3 20,0 1,-6 2,-12 1,-19 0,0 0,0 0,-1 -6,2 -12,6 -18,6z"/>
  <path class="fil0" d="M500 157c-3,0 -7,1 -10,0 0,0 -1,0 -1,0 0,4 0,7 3,8 4,2 9,3 14,5 0,0 0,0 0,-1 1,-3 3,-6 4,-10 -2,0 -3,-1 -4,-1 -2,-1 -4,-1 -6,-1z"/>
  <path class="fil1" d="M497 93c-14,-9 -35,-5 -48,2 -17,9 -30,27 -40,43 -1,2 1,4 3,3 0,0 -1,-1 -1,-2 -1,-1 1,-3 2,-2 1,1 1,1 2,1 3,-3 6,-7 9,-11 0,0 0,0 -1,0 -1,0 0,-3 1,-3 1,0 1,1 2,1 8,-10 18,-20 28,-26 1,0 0,0 0,0 0,-2 2,-2 3,-1 11,-6 24,-7 37,0 0,0 0,0 0,0 0,0 0,0 1,0 1,-3 5,-1 3,2 0,0 0,0 0,1 7,6 12,17 13,28 0,0 1,0 1,0 3,0 5,3 2,4 0,0 -1,1 -1,1 0,1 -1,1 -2,1 1,7 0,13 -1,19 1,1 1,2 2,2 0,2 -1,3 -2,3 0,0 0,0 0,0 -1,4 -3,7 -4,10 0,1 0,1 0,1 0,0 1,0 2,1 1,0 1,2 1,3 1,0 2,-1 2,-2 11,-23 10,-64 -14,-79z"/>
  <path class="fil1" d="M508 171c-1,-1 -2,-1 -2,-1 -5,-2 -10,-3 -14,-5 -3,-1 -3,-4 -3,-8 -2,0 -1,-3 1,-3 0,0 0,0 0,0 1,-5 3,-10 3,-13 0,0 0,-1 0,-1 0,0 0,0 -1,0 -2,-1 -1,-4 1,-4 -2,-6 -5,-11 -11,-14 0,0 0,1 -1,2 0,2 -3,0 -3,-2 1,0 1,-1 1,-2 0,0 0,0 0,0 -5,-2 -10,-2 -15,0 0,1 0,1 1,2 0,2 -3,3 -4,1 0,0 0,-1 -1,-1 -6,3 -12,9 -17,15 0,1 1,1 1,1 2,2 -1,5 -3,3 0,0 0,0 0,0 -1,2 -3,4 -4,7 -7,-3 -15,-5 -22,-10 -1,0 -1,0 -2,-1 -1,-1 -3,1 -2,2 0,1 1,2 1,2 6,8 18,9 26,12 1,1 3,1 4,-1 3,-10 10,-17 18,-23 14,-9 31,-1 26,18 -1,5 -6,15 -1,20 6,5 14,6 20,9 2,1 3,-1 4,-2 0,-1 0,-3 -1,-3z"/>
  <path class="fil1" d="M441 141c2,2 5,-1 3,-3 0,0 -1,0 -1,-1 -3,-2 -6,-5 -9,-8 -2,-2 -5,-4 -8,-4 -1,0 -1,-1 -2,-1 -1,0 -2,3 -1,3 1,0 1,0 1,0 6,4 12,9 17,14 0,0 0,0 0,0z"/>
  <path class="fil1" d="M461 123c1,2 4,1 4,-1 -1,-1 -1,-1 -1,-2 -3,-7 -5,-14 -6,-21 0,-1 0,-1 -1,-1 -1,-1 -3,-1 -3,1 0,0 0,0 0,0 1,8 3,16 6,23 1,0 1,1 1,1z"/>
  <path class="fil1" d="M478 122c0,2 3,4 3,2 1,-1 1,-2 1,-2 5,-8 10,-14 16,-21 0,-1 0,-1 0,-1 2,-3 -2,-5 -3,-2 -1,0 -1,0 -1,0 -5,7 -11,14 -15,22 0,1 0,2 -1,2z"/>
  <path class="fil1" d="M493 136c-2,0 -3,3 -1,4 1,0 1,0 1,0 6,0 12,-4 18,-6 0,1 0,1 0,1 1,0 2,0 2,-1 0,0 1,-1 1,-1 3,-1 1,-4 -2,-4 0,0 -1,0 -1,0 -6,2 -11,6 -18,7 0,0 0,0 0,0z"/>
  <path class="fil1" d="M490 154c0,0 0,0 0,0 -2,0 -3,3 -1,3 0,0 1,0 1,0 3,1 7,0 10,0 2,0 4,0 6,1 1,0 2,1 4,1 0,0 0,0 0,0 1,0 2,-1 2,-3 -1,0 -1,-1 -2,-2 -4,-3 -17,-1 -20,0z"/>
 </g>
</svg>
