<?xml version="1.0" encoding="UTF-8"?>
<!DOCTYPE svg PUBLIC "-//W3C//DTD SVG 1.1//EN" "http://www.w3.org/Graphics/SVG/1.1/DTD/svg11.dtd">
<!-- Creator: CorelDRAW X7 -->
<svg xmlns="http://www.w3.org/2000/svg" xml:space="preserve" width="0.388783in" height="0.515957in" version="1.1" style="shape-rendering:geometricPrecision; text-rendering:geometricPrecision; image-rendering:optimizeQuality; fill-rule:evenodd; clip-rule:evenodd"
viewBox="0 0 417 553"
 xmlns:xlink="http://www.w3.org/1999/xlink">
 <defs>
  <style type="text/css">
   <![CDATA[
    .fil1 {fill:#585047;fill-rule:nonzero}
    .fil0 {fill:url(#id0);fill-rule:nonzero}
   ]]>
  </style>
  <radialGradient id="id0" gradientUnits="userSpaceOnUse" gradientTransform="matrix(1.32313 -0 -0 1.32313 -34 -48)" cx="104.196" cy="149.349" r="276.568" fx="104.196" fy="149.349">
   <stop offset="0" style="stop-opacity:1; stop-color:#F8E8CB"/>
   <stop offset="0.360784" style="stop-opacity:1; stop-color:#E0CCB0"/>
   <stop offset="1" style="stop-opacity:1; stop-color:#7C7465"/>
  </radialGradient>
 </defs>
 <g id="__x0023_Layer_x0020_1">
  <metadata id="CorelCorpID_0Corel-Layer"/>
  <path class="fil0" d="M208 553c-333,-15 -216,-549 0,-553 217,4 334,538 0,553z"/>
  <path class="fil1" d="M118 234c9,1 16,-6 18,-14 3,-9 0,-19 -8,-24 0,-1 -2,-2 -3,-2 -21,1 -31,35 -7,40z"/>
  <path class="fil1" d="M250 233c9,3 17,-5 19,-13 3,-9 0,-21 -8,-25 -2,-2 -4,-1 -5,0 -1,-1 -3,-1 -5,0 -13,6 -18,33 -1,38z"/>
  <path class="fil1" d="M285 325c-6,28 -17,58 -39,78 -22,19 -56,19 -83,14 -23,-4 -43,-16 -57,-34 -14,-18 -22,-41 -26,-63 -1,-5 -2,-9 -2,-14 -1,-5 -10,-3 -9,3 7,44 25,90 68,109 25,11 54,12 80,8 27,-4 47,-26 60,-50 8,-15 13,-32 17,-49 1,-5 -8,-8 -9,-2z"/>
  <path class="fil1" d="M82 188c5,-9 12,-15 23,-16 6,0 6,-8 0,-8 -14,0 -24,8 -31,20 -2,5 5,9 8,4z"/>
  <path class="fil1" d="M306 175c-7,-12 -18,-20 -30,-24 -5,-2 -8,7 -2,9 10,3 19,10 24,19 3,5 10,1 8,-4z"/>
 </g>
</svg>
