<?xml version="1.0" encoding="UTF-8"?>
<!DOCTYPE svg PUBLIC "-//W3C//DTD SVG 1.1//EN" "http://www.w3.org/Graphics/SVG/1.1/DTD/svg11.dtd">
<!-- Creator: CorelDRAW X7 -->
<svg xmlns="http://www.w3.org/2000/svg" xml:space="preserve" width="8.71037in" height="3.49038in" version="1.1" style="shape-rendering:geometricPrecision; text-rendering:geometricPrecision; image-rendering:optimizeQuality; fill-rule:evenodd; clip-rule:evenodd"
viewBox="0 0 37573 15056"
 xmlns:xlink="http://www.w3.org/1999/xlink">
 <defs>
  <style type="text/css">
   <![CDATA[
    .fil2 {fill:#808285}
    .fil1 {fill:#939598}
    .fil4 {fill:#9B7D50}
    .fil3 {fill:#BE925D}
    .fil0 {fill:#D2A268}
   ]]>
  </style>
 </defs>
 <g id="Layer_x0020_1">
  <metadata id="CorelCorpID_0Corel-Layer"/>
  <path class="fil0" d="M17084 3139c-343,1405 -164,2947 520,4558 49,115 100,231 154,346 54,-115 105,-231 154,-346 760,-1789 897,-3493 388,-5018 0,-1 0,-2 -1,-3 -150,-447 -341,-838 -541,-1170 -200,333 -392,724 -542,1173 -51,152 -94,305 -132,460z"/>
  <path class="fil0" d="M14477 3419c-257,1329 -59,2773 581,4278 49,115 100,231 154,346 54,-115 105,-231 154,-346 616,-1451 823,-2847 607,-4136 -51,-300 -123,-594 -219,-882 -150,-449 -342,-840 -542,-1173 -201,333 -393,724 -543,1173 -80,243 -144,489 -192,740z"/>
  <path class="fil0" d="M19794 2838c-449,1484 -296,3132 438,4859 49,115 100,231 154,346 54,-115 105,-231 154,-346 640,-1508 838,-2955 579,-4285 -48,-249 -111,-493 -191,-733 -150,-449 -342,-840 -542,-1173 -201,333 -393,724 -543,1173 -17,53 -33,106 -49,159z"/>
  <path class="fil0" d="M24876 2872c-436,1475 -280,3111 449,4825 48,115 100,231 153,346 54,-115 106,-231 154,-346 690,-1622 867,-3175 514,-4587 -36,-145 -78,-288 -125,-431 -150,-449 -342,-840 -543,-1173 -200,333 -392,724 -542,1173 -21,64 -41,128 -60,193z"/>
  <path class="fil0" d="M12054 2901c-425,1467 -266,3093 457,4796 49,115 100,231 154,346 54,-115 105,-231 154,-346 706,-1662 874,-3250 486,-4689 -29,-111 -61,-220 -97,-329 -150,-449 -342,-840 -543,-1173 -200,333 -392,724 -542,1173 -24,74 -47,148 -69,222z"/>
  <path class="fil0" d="M22163 3612c-202,1275 7,2653 615,4085 49,115 100,231 154,346 54,-115 105,-231 154,-346 670,-1576 855,-3086 542,-4466 -43,-186 -93,-370 -154,-552 -149,-449 -341,-840 -542,-1173 -200,333 -392,724 -542,1173 -102,304 -177,616 -227,933z"/>
  <path class="fil0" d="M15615 351c-222,40 -452,85 -690,134 92,108 188,230 287,365 141,-195 279,-361 403,-499z"/>
  <path class="fil0" d="M18496 13c-307,14 -772,46 -1357,114 168,165 389,406 619,723 290,-399 565,-678 738,-837z"/>
  <path class="fil0" d="M23187 524c-210,-45 -415,-85 -614,-123 112,128 234,277 359,449 87,-120 173,-228 255,-326z"/>
  <path class="fil0" d="M20386 850c217,-299 426,-531 590,-695 -523,-64 -968,-102 -1308,-124 173,162 438,435 718,819z"/>
  <path class="fil0" d="M6471 5817c-90,-523 -122,-1036 -99,-1537 -47,37 -94,74 -141,111 14,466 -20,942 -103,1426 -106,614 -291,1242 -553,1880 -17,42 -34,83 -52,124 517,184 1129,388 1826,596 -119,-241 -228,-481 -326,-720 -262,-638 -446,-1266 -552,-1880z"/>
  <path class="fil0" d="M4365 6146c105,464 255,936 450,1415 114,43 236,89 365,136 441,-1037 672,-2046 689,-3007 -522,442 -1026,926 -1504,1456z"/>
  <path class="fil0" d="M9018 5817c-99,-572 -129,-1132 -92,-1677 37,-548 142,-1080 315,-1594 13,-37 26,-74 39,-111 -247,127 -495,260 -741,399 120,423 196,858 227,1303 37,546 6,1107 -92,1680 -106,614 -290,1242 -552,1880 -103,252 -219,505 -346,760 18,33 34,67 52,101 548,156 1142,313 1777,465 110,-189 213,-378 310,-566 -127,-255 -242,-508 -345,-760 -262,-638 -447,-1266 -552,-1880z"/>
  <path class="fil0" d="M8399 4101c-28,-368 -89,-728 -183,-1080 -400,238 -796,494 -1187,770 -92,65 -183,130 -273,197 -110,1168 114,2417 663,3709 48,115 100,231 154,346 54,-115 105,-231 153,-346 532,-1251 759,-2460 673,-3596z"/>
  <path class="fil0" d="M29470 5817c-103,-598 -131,-1183 -86,-1752 31,-390 97,-773 197,-1147 -226,-132 -453,-258 -681,-378 1,2 2,4 2,6 169,500 273,1017 312,1549 42,559 13,1134 -88,1722 -105,614 -290,1242 -552,1880 -103,252 -218,505 -346,760 86,165 176,331 272,497 672,-165 1295,-336 1864,-505 -126,-252 -240,-502 -342,-752 -262,-638 -446,-1266 -552,-1880z"/>
  <path class="fil0" d="M26923 5817c-136,-795 -142,-1568 -17,-2309 55,-327 135,-648 241,-962 85,-251 182,-485 286,-702 -578,-245 -1154,-458 -1717,-643 235,372 463,821 640,1345 85,253 154,510 206,771 160,798 166,1636 18,2500 -106,614 -290,1242 -552,1880 -103,252 -219,505 -346,760 169,326 357,655 566,986 396,-75 780,-153 1152,-234 152,-252 293,-503 421,-752 -127,-255 -242,-508 -345,-760 -262,-638 -447,-1266 -553,-1880z"/>
  <path class="fil0" d="M28854 4135c-35,-500 -130,-987 -287,-1456 -44,-132 -92,-259 -143,-382 -220,-108 -440,-211 -660,-309 -103,213 -199,443 -281,691 -111,331 -190,670 -240,1017 -180,1251 33,2600 628,4001 49,115 100,231 154,346 54,-115 105,-231 154,-346 526,-1238 754,-2436 675,-3562z"/>
  <path class="fil0" d="M32281 4890c42,869 256,1774 638,2703 173,-65 330,-126 469,-182 132,-339 242,-674 328,-1006 -448,-551 -930,-1054 -1435,-1515z"/>
  <path class="fil0" d="M32016 5817c-73,-425 -108,-844 -107,-1255 -43,-37 -87,-74 -132,-111 10,447 -25,902 -104,1366 -106,614 -291,1242 -553,1880 -82,201 -172,402 -269,605 666,-207 1245,-406 1727,-582 -4,-7 -6,-15 -10,-23 -262,-638 -446,-1266 -552,-1880z"/>
  <path class="fil0" d="M31401 4148c-184,-144 -371,-283 -559,-417 -309,-219 -622,-426 -938,-620 -72,286 -121,577 -149,874 -111,1169 113,2418 662,3712 49,115 100,231 154,346 54,-115 105,-231 154,-346 524,-1234 752,-2427 676,-3549z"/>
  <path class="fil0" d="M33997 6762c-45,153 -95,306 -149,460 243,-102 370,-162 370,-162 -72,-101 -146,-200 -221,-298z"/>
  <path class="fil0" d="M3602 7060c0,0 262,123 751,319 -112,-301 -207,-600 -284,-895 -159,186 -315,378 -467,576z"/>
  <path class="fil0" d="M24929 7697c-262,-638 -446,-1266 -552,-1880 -171,-998 -136,-1961 104,-2870 35,-135 75,-268 120,-401 182,-539 418,-998 660,-1376 -35,-50 -70,-98 -104,-144 -540,-162 -1066,-299 -1568,-414 -134,151 -285,337 -439,558 241,378 478,837 660,1376 62,185 115,371 160,560 203,862 225,1771 64,2711 -106,614 -291,1242 -553,1880 -103,252 -218,505 -345,760 231,448 499,900 806,1356 195,-26 389,-53 580,-81 284,-428 535,-854 753,-1275 -127,-255 -243,-508 -346,-760z"/>
  <path class="fil0" d="M22229 10002c447,-40 885,-86 1314,-139 -224,-340 -428,-679 -611,-1016 -208,382 -442,767 -703,1155z"/>
  <path class="fil0" d="M22383 7697c-262,-638 -447,-1266 -552,-1880 -131,-764 -141,-1506 -31,-2220 55,-358 139,-709 254,-1051 183,-539 419,-998 660,-1376 -290,-418 -572,-711 -746,-874 -183,-30 -360,-56 -530,-80 -153,134 -488,456 -834,954 241,378 477,837 659,1376 110,324 191,655 247,993 119,731 112,1494 -23,2278 -106,614 -290,1242 -552,1880 -103,252 -218,505 -346,760 272,527 596,1060 972,1597l-2 2c69,-5 138,-10 207,-16 372,-532 693,-1061 963,-1583 -128,-255 -243,-508 -346,-760z"/>
  <path class="fil0" d="M24999 9660c294,-47 584,-96 867,-146 -138,-223 -267,-446 -388,-667 -146,270 -306,541 -479,813z"/>
  <path class="fil0" d="M16987 10101c517,28 1043,46 1578,53 -303,-439 -572,-874 -807,-1307 -226,415 -483,834 -771,1254z"/>
  <path class="fil0" d="M19583 10149c530,-12 1050,-34 1561,-65 -283,-415 -536,-828 -758,-1237 -234,431 -502,865 -803,1302z"/>
  <path class="fil0" d="M10273 7697c642,-1510 839,-2960 578,-4293 -48,-246 -111,-487 -190,-725 -90,-271 -196,-521 -310,-750 -196,86 -393,176 -589,269 -67,153 -129,313 -185,481 -154,461 -248,939 -285,1430 -84,1133 143,2340 673,3588 49,115 100,231 154,346 54,-115 105,-231 154,-346z"/>
  <path class="fil0" d="M20182 8457c-127,-255 -242,-508 -345,-760 -262,-638 -447,-1266 -553,-1880 -185,-1081 -129,-2121 168,-3095 18,-59 36,-117 56,-176 182,-539 419,-998 660,-1376 -467,-671 -913,-1022 -920,-1027l99 -130c-282,-13 -437,-13 -437,-13 0,0 -42,0 -122,2l108 141c-7,5 -453,356 -920,1027 241,378 478,837 660,1376 8,26 16,52 24,77 324,1002 391,2076 199,3194 -105,614 -290,1242 -552,1880 -103,252 -218,505 -345,760 272,527 595,1060 972,1597l-147 103c41,0 82,0 123,0 148,0 295,-2 441,-4l-141 -99c377,-537 700,-1070 972,-1597z"/>
  <path class="fil0" d="M27883 9101c84,-20 168,-39 250,-59 -36,-65 -73,-130 -108,-195 -46,85 -93,169 -142,254z"/>
  <path class="fil0" d="M9973 9109c111,25 223,51 336,76 -65,-113 -129,-226 -190,-338 -47,87 -96,175 -146,262z"/>
  <path class="fil0" d="M12246 9565c305,52 617,103 934,150 -187,-291 -358,-580 -515,-868 -129,238 -269,478 -419,718z"/>
  <path class="fil0" d="M12116 7697c-262,-638 -446,-1266 -552,-1880 -167,-972 -138,-1911 86,-2798 40,-159 85,-317 138,-473 182,-539 418,-998 659,-1376 -6,-9 -12,-18 -18,-26 -569,183 -1154,396 -1745,643 114,232 220,485 313,759 75,224 136,451 186,681 178,825 191,1693 37,2590 -105,614 -290,1242 -552,1880 -103,252 -218,505 -346,760 143,275 299,553 470,831 347,73 703,142 1070,209 222,-349 422,-696 600,-1040 -127,-255 -243,-508 -346,-760z"/>
  <path class="fil0" d="M14577 9899c443,50 896,95 1357,132 -268,-397 -509,-792 -722,-1184 -190,348 -402,699 -635,1052z"/>
  <path class="fil0" d="M14662 7697c-261,-638 -446,-1266 -552,-1880 -149,-870 -142,-1713 22,-2517 52,-256 119,-507 202,-754 182,-539 418,-998 660,-1376 -167,-240 -332,-440 -475,-597 -472,107 -968,233 -1480,383 -52,67 -103,138 -156,214 241,378 478,837 660,1376 66,197 123,397 169,599 195,850 214,1746 55,2672 -106,614 -291,1242 -553,1880 -103,252 -218,505 -345,760 226,438 488,881 786,1326 172,23 346,46 521,68 317,-469 594,-934 832,-1394 -127,-255 -242,-508 -346,-760z"/>
  <path class="fil0" d="M17554 8457c-127,-255 -242,-508 -345,-760 -262,-638 -447,-1266 -552,-1880 -148,-862 -143,-1697 16,-2494 53,-263 122,-522 207,-777 182,-539 419,-998 660,-1376 -376,-540 -738,-873 -869,-985 -143,20 -292,41 -445,65 -166,150 -476,460 -796,920 241,378 477,837 659,1376 101,298 178,603 233,913 133,756 131,1545 -9,2358 -106,614 -290,1242 -552,1880 -103,252 -219,505 -346,760 272,527 596,1060 972,1597l-13 10c81,5 163,11 245,16l-37 -26c377,-537 700,-1070 972,-1597z"/>
  <path class="fil1" d="M7847 9819c-348,82 -690,180 -1018,243 -118,23 -233,41 -347,52 -93,9 -185,14 -276,13l878 2548 1747 0 -984 -2856z"/>
  <path class="fil2" d="M33602 8963c-94,76 -190,155 -287,234 -224,181 -459,363 -712,518 -200,123 -411,229 -637,304 -90,30 -181,55 -276,75 -1,0 -2,0 -3,0 -106,22 -216,32 -328,33 -436,4 -914,-129 -1406,-252 -124,-31 -249,-62 -374,-89 -209,-46 -419,-84 -629,-103 -146,-13 -291,-16 -436,-7 -52,3 -104,7 -156,14 -372,48 -739,220 -1112,423 -58,32 -116,64 -174,97 -580,326 -1175,689 -1819,739 -996,78 -2084,-736 -3157,-752 -37,-1 -73,-1 -109,0 -8,1 -16,2 -24,2 -1037,52 -2087,993 -3177,993 -1097,0 -2155,-956 -3200,-994 -1109,-41 -2237,832 -3267,751 -991,-77 -1867,-897 -2751,-1178 -117,-38 -235,-66 -353,-81 -8,-1 -16,-2 -23,-3 -227,-27 -457,-19 -687,9 -129,16 -259,38 -389,64 -90,18 -179,38 -269,59l984 2856 -1747 0 -878 -2548c-34,-1 -68,-2 -102,-4 -74,-5 -147,-14 -218,-29 -38,-7 -75,-16 -111,-25 -419,-107 -788,-324 -1127,-571 -99,-71 -195,-145 -289,-220 -100,-80 -198,-160 -295,-239l158 459 149 432 1356 3937c0,0 7276,1189 13183,1189 5907,0 13183,-1189 13183,-1189l1468 -4264 155 -445 133 -390c-81,62 -164,128 -247,195z"/>
  <path class="fil3" d="M34538 5452c-85,-31 -169,-70 -253,-117 -115,-63 -229,-140 -345,-225 -494,-361 -1008,-872 -1634,-1178 -112,-55 -228,-103 -348,-142 -76,-26 -155,-48 -235,-65 -12,-3 -24,-6 -36,-9 -109,-22 -221,-31 -336,-32 -164,-1 -334,17 -509,47 188,134 375,273 559,417 127,99 252,200 376,303 45,37 89,74 132,111 126,107 250,217 372,328 505,461 986,964 1435,1515 96,117 189,236 281,357 75,98 149,197 221,298 0,0 -127,60 -370,162 -124,53 -277,116 -460,189 -139,56 -296,117 -469,182 -89,34 -182,69 -280,104 -20,8 -41,15 -61,23 -482,176 -1061,375 -1727,582 -45,13 -90,27 -135,41 -112,34 -226,69 -343,104 -2,3 -4,6 -5,10 -2,-3 -3,-5 -4,-8 -569,169 -1192,340 -1864,505 -121,30 -243,59 -367,88 -82,20 -166,39 -250,59 -159,36 -320,72 -483,108 -372,81 -756,159 -1152,234 -126,24 -253,47 -382,71 -283,50 -573,99 -867,146 -158,25 -317,49 -477,72 -191,28 -385,55 -580,81 -132,17 -265,34 -399,50 -429,53 -867,99 -1314,139 -153,13 -308,26 -463,38 -69,6 -138,11 -207,16 -138,10 -276,19 -415,28 -511,31 -1031,53 -1561,65 -77,1 -155,3 -232,4 -146,2 -293,4 -441,4 -41,0 -82,0 -123,0 -74,-1 -148,-2 -222,-3 -535,-7 -1061,-25 -1578,-53 -123,-6 -246,-13 -368,-21 -82,-5 -164,-11 -246,-16 -147,-10 -293,-21 -439,-33 -461,-37 -914,-82 -1357,-132 -135,-16 -269,-32 -401,-48 -175,-22 -349,-45 -521,-68 -159,-22 -318,-45 -475,-68 -317,-47 -629,-98 -934,-150 -129,-22 -257,-45 -384,-68 -367,-67 -723,-136 -1070,-209 -163,-34 -324,-68 -483,-103 -113,-25 -225,-51 -336,-76 -125,-28 -247,-57 -368,-86 -635,-152 -1229,-309 -1777,-465 -30,-9 -60,-18 -90,-26 -120,-35 -238,-70 -354,-104 -12,-4 -23,-7 -35,-11 -697,-208 -1309,-412 -1826,-596 -119,-42 -234,-83 -343,-124l0 0c0,0 0,0 0,0 -129,-47 -251,-93 -365,-136 -171,-66 -326,-127 -462,-182 -489,-196 -751,-319 -751,-319 152,-198 308,-390 467,-576 97,-115 196,-227 296,-338 478,-530 982,-1014 1504,-1456 120,-102 240,-202 362,-299 47,-37 94,-74 141,-111 127,-100 255,-197 384,-292 90,-67 181,-132 273,-197 -83,-19 -164,-36 -245,-50 -122,-23 -241,-40 -358,-49 -86,-7 -171,-10 -254,-7 -98,3 -193,12 -286,31 -25,5 -48,11 -72,17 -635,151 -1155,555 -1631,942 -121,98 -239,196 -355,287 -269,212 -528,394 -793,490 -1531,558 -3035,765 -3035,1454 0,688 1504,895 3035,1453 341,124 674,390 1029,680 97,79 195,159 295,239 94,75 190,149 289,220 339,247 708,464 1127,571 36,9 73,18 111,25 71,15 144,24 218,29 34,2 68,3 102,4 91,1 183,-4 276,-13 114,-11 229,-29 347,-52 328,-63 670,-161 1018,-243 90,-21 179,-41 269,-59 130,-26 260,-48 389,-64 230,-28 460,-36 687,-9 7,1 15,2 23,3 118,15 236,43 353,81 884,281 1760,1101 2751,1178 1030,81 2158,-792 3267,-751 1045,38 2103,994 3200,994 1090,0 2140,-941 3177,-993 8,0 16,-1 24,-2 36,-1 72,-1 109,0 1073,16 2161,830 3157,752 644,-50 1239,-413 1819,-739 58,-33 116,-65 174,-97 373,-203 740,-375 1112,-423 52,-7 104,-11 156,-14 145,-9 290,-6 436,7 210,19 420,57 629,103 125,27 250,58 374,89 492,123 970,256 1406,252 112,-1 222,-11 328,-33 1,0 2,0 3,0 95,-20 186,-45 276,-75 226,-75 437,-181 637,-304 253,-155 488,-337 712,-518 96,-78 191,-156 284,-231 84,-69 168,-135 250,-198 232,-177 458,-325 689,-409 1531,-558 3035,-765 3035,-1453 0,-689 -1504,-896 -3035,-1454z"/>
  <path class="fil4" d="M18299 2676c1,1 1,2 1,3 509,1525 372,3229 -388,5018 -49,115 -100,231 -154,346 -54,-115 -105,-231 -154,-346 -684,-1611 -863,-3153 -520,-4558 38,-155 81,-308 132,-460 150,-449 342,-840 542,-1173 200,332 391,723 541,1170zm750 -2674l-261 0c-70,2 -168,5 -292,11 -173,159 -448,438 -738,837 -230,-317 -451,-558 -619,-723 -148,17 -304,36 -468,58 131,112 493,445 869,985 -241,378 -478,837 -660,1376 -85,255 -154,514 -207,777 -159,797 -164,1632 -16,2494 105,614 290,1242 552,1880 103,252 218,505 345,760 -272,527 -595,1060 -972,1597l37 26c122,8 245,15 368,21 288,-420 545,-839 771,-1254 235,433 504,868 807,1307 74,1 148,2 222,3l147 -103c-377,-537 -700,-1070 -972,-1597 127,-255 242,-508 345,-760 262,-638 447,-1266 552,-1880 192,-1118 125,-2192 -199,-3194 -8,-25 -16,-51 -24,-77 -182,-539 -419,-998 -660,-1376 467,-671 1066,-1162 1073,-1168z"/>
  <path class="fil4" d="M4069 6484c77,295 172,594 284,895 136,55 291,116 462,182 -195,-479 -345,-951 -450,-1415 -100,111 -199,223 -296,338z"/>
  <path class="fil4" d="M31910 4562c-2,411 33,830 106,1255 106,614 290,1242 552,1880 4,8 6,16 10,23 20,-8 41,-15 61,-23 98,-35 191,-70 280,-104 -382,-929 -596,-1834 -638,-2703 -122,-111 -246,-221 -371,-328z"/>
  <path class="fil4" d="M20386 8043c-54,-115 -105,-231 -154,-346 -734,-1727 -887,-3375 -438,-4859 16,-53 32,-106 49,-159 150,-449 342,-840 543,-1173 200,333 392,724 542,1173 80,240 143,484 191,733 259,1330 61,2777 -579,4285 -49,115 -100,231 -154,346zm1101 -2226c135,-784 142,-1547 23,-2278 -55,-338 -137,-669 -247,-993 -182,-539 -418,-998 -659,-1376 346,-498 681,-820 834,-954 -160,-23 -314,-43 -462,-61 -164,164 -373,396 -590,695 -280,-384 -545,-657 -718,-819 -120,-8 -227,-13 -321,-18l-255 -10c7,6 609,496 1076,1167 -241,378 -478,837 -660,1376 -20,59 -38,117 -56,176 -297,974 -353,2014 -168,3095 106,614 291,1242 553,1880 103,252 218,505 345,760 -272,527 -595,1060 -972,1597l141 99c77,-1 155,-3 232,-4 301,-437 568,-871 803,-1302 222,409 475,822 758,1237 139,-9 277,-18 415,-28l2 -2c-376,-537 -700,-1070 -972,-1597 128,-255 243,-508 346,-760 262,-638 446,-1266 552,-1880z"/>
  <path class="fil4" d="M23086 7697c-49,115 -100,231 -154,346 -54,-115 -105,-231 -154,-346 -608,-1432 -817,-2810 -615,-4085 51,-317 125,-629 227,-933 150,-449 342,-840 542,-1173 201,333 393,724 542,1173 61,182 111,366 154,552 313,1380 128,2890 -542,4466zm724 -5151c-182,-539 -419,-998 -660,-1376 154,-221 305,-407 439,-558 -136,-31 -270,-60 -402,-88 -82,98 -168,206 -255,326 -125,-172 -247,-321 -359,-449 -208,-38 -410,-73 -605,-105 174,163 456,456 746,874 -241,378 -477,837 -660,1376 -115,342 -199,693 -254,1051 -110,714 -100,1457 31,2220 105,614 290,1242 552,1880 103,252 218,505 346,760 -270,522 -591,1051 -963,1583 155,-12 310,-25 463,-38 261,-388 495,-773 703,-1155 183,337 387,676 611,1016 134,-16 267,-33 399,-50 -307,-456 -575,-908 -806,-1356 127,-255 242,-508 345,-760 262,-638 447,-1266 553,-1880 161,-940 139,-1849 -64,-2711 -45,-189 -98,-375 -160,-560z"/>
  <path class="fil4" d="M25632 7697c-48,115 -100,231 -154,346 -53,-115 -105,-231 -153,-346 -729,-1714 -885,-3350 -449,-4825 19,-65 39,-129 60,-193 150,-449 342,-840 542,-1173 201,333 393,724 543,1173 47,143 89,286 125,431 353,1412 176,2965 -514,4587zm724 -5151c-177,-524 -405,-973 -640,-1345 -6,-10 -13,-21 -20,-31 -4,6 -9,13 -14,20 -120,-39 -241,-77 -360,-114 -55,-17 -110,-34 -165,-50 34,46 69,94 104,144 -242,378 -478,837 -660,1376 -45,133 -85,266 -120,401 -240,909 -275,1872 -104,2870 106,614 290,1242 552,1880 103,252 219,505 346,760 -218,421 -469,847 -753,1275 160,-23 319,-47 477,-72 173,-272 333,-543 479,-813 121,221 250,444 388,667 129,-24 256,-47 382,-71 -209,-331 -397,-660 -566,-986 127,-255 243,-508 346,-760 262,-638 446,-1266 552,-1880 148,-864 142,-1702 -18,-2500 -52,-261 -121,-518 -206,-771z"/>
  <path class="fil4" d="M28902 2546c0,-2 -1,-4 -2,-6 -158,-84 -317,-165 -476,-243 51,123 99,250 143,382 157,469 252,956 287,1456 79,1126 -149,2324 -675,3562 -49,115 -100,231 -154,346 -54,-115 -105,-231 -154,-346 -595,-1401 -808,-2750 -628,-4001 50,-347 129,-686 240,-1017 82,-248 178,-478 281,-691 -110,-49 -221,-97 -331,-144 -104,217 -201,451 -286,702 -106,314 -186,635 -241,962 -125,741 -119,1514 17,2309 106,614 291,1242 553,1880 103,252 218,505 345,760 -128,249 -269,500 -421,752 163,-36 324,-72 483,-108 49,-85 96,-169 142,-254 35,65 72,130 108,195 124,-29 246,-58 367,-88 -96,-166 -186,-332 -272,-497 128,-255 243,-508 346,-760 262,-638 447,-1266 552,-1880 101,-588 130,-1163 88,-1722 -39,-532 -143,-1049 -312,-1549z"/>
  <path class="fil4" d="M31401 4148c76,1122 -152,2315 -676,3549 -49,115 -100,231 -154,346 -54,-115 -105,-231 -154,-346 -549,-1294 -773,-2543 -662,-3712 28,-297 77,-588 149,-874 -108,-66 -215,-130 -323,-193 -100,374 -166,757 -197,1147 -45,569 -17,1154 86,1752 106,614 290,1242 552,1880 102,250 216,500 342,752 1,3 2,5 4,8 1,-4 3,-7 5,-10 117,-35 231,-70 343,-104 46,-14 90,-28 135,-41 97,-203 187,-404 269,-605 262,-638 447,-1266 553,-1880 79,-464 114,-919 104,-1366 -124,-103 -249,-204 -376,-303z"/>
  <path class="fil4" d="M33716 6405c-86,332 -196,667 -328,1006 183,-73 336,-136 460,-189 54,-154 104,-307 149,-460 -92,-121 -185,-240 -281,-357z"/>
  <path class="fil4" d="M5869 4690c-17,961 -248,1970 -689,3007 0,0 0,0 0,0l0 0c109,41 224,82 343,124 18,-41 35,-82 52,-124 262,-638 447,-1266 553,-1880 83,-484 117,-960 103,-1426 -122,97 -242,197 -362,299z"/>
  <path class="fil4" d="M8539 2834c-108,61 -215,124 -323,187 94,352 155,712 183,1080 86,1136 -141,2345 -673,3596 -48,115 -99,231 -153,346 -54,-115 -106,-231 -154,-346 -549,-1292 -773,-2541 -663,-3709 -129,95 -257,192 -384,292 -23,501 9,1014 99,1537 106,614 290,1242 552,1880 98,239 207,479 326,720 12,4 23,7 35,11 116,34 234,69 354,104 30,8 60,17 90,26 -18,-34 -34,-68 -52,-101 127,-255 243,-508 346,-760 262,-638 446,-1266 552,-1880 98,-573 129,-1134 92,-1680 -31,-445 -107,-880 -227,-1303z"/>
  <path class="fil4" d="M10997 2546c-93,-274 -199,-527 -313,-759 -111,46 -222,93 -333,142 114,229 220,479 310,750 79,238 142,479 190,725 261,1333 64,2783 -578,4293 -49,115 -100,231 -154,346 -54,-115 -105,-231 -154,-346 -530,-1248 -757,-2455 -673,-3588 37,-491 131,-969 285,-1430 56,-168 118,-328 185,-481 -161,77 -321,156 -482,237 -13,37 -26,74 -39,111 -173,514 -278,1046 -315,1594 -37,545 -7,1105 92,1677 105,614 290,1242 552,1880 103,252 218,505 345,760 -97,188 -200,377 -310,566 121,29 243,58 368,86 50,-87 99,-175 146,-262 61,112 125,225 190,338 159,35 320,69 483,103 -171,-278 -327,-556 -470,-831 128,-255 243,-508 346,-760 262,-638 447,-1266 552,-1880 154,-897 141,-1765 -37,-2590 -49,-230 -111,-457 -186,-681z"/>
  <path class="fil4" d="M12819 7697c-49,115 -100,231 -154,346 -54,-115 -105,-231 -154,-346 -723,-1703 -882,-3329 -457,-4796 22,-74 45,-148 69,-222 150,-449 342,-840 542,-1173 201,333 393,724 543,1173 36,109 68,218 97,329 388,1439 220,3027 -486,4689zm724 -5151c-182,-539 -419,-998 -660,-1376 53,-76 104,-147 156,-214 -82,24 -165,49 -247,74 -106,32 -212,65 -319,100 -15,4 -29,9 -44,14 6,8 12,17 18,26 -241,378 -477,837 -659,1376 -53,156 -98,314 -138,473 -224,887 -253,1826 -86,2798 106,614 290,1242 552,1880 103,252 219,505 346,760 -178,344 -378,691 -600,1040 127,23 255,46 384,68 150,-240 290,-480 419,-718 157,288 328,577 515,868 157,23 316,46 475,68 -298,-445 -560,-888 -786,-1326 127,-255 242,-508 345,-760 262,-638 447,-1266 553,-1880 159,-926 140,-1822 -55,-2672 -46,-202 -103,-402 -169,-599z"/>
  <path class="fil4" d="M15212 8043c-54,-115 -105,-231 -154,-346 -639,-1505 -838,-2949 -581,-4278 48,-251 112,-497 192,-740 150,-449 342,-840 543,-1173 200,333 392,724 542,1173 96,288 168,582 219,882 216,1289 9,2685 -607,4136 -49,115 -100,231 -154,346zm1101 -2226c140,-813 142,-1602 9,-2358 -55,-310 -132,-615 -233,-913 -182,-539 -418,-998 -659,-1376 320,-460 630,-770 796,-920 -196,30 -400,64 -611,102 -124,137 -262,303 -403,498 -99,-135 -195,-257 -287,-365 -133,28 -268,57 -406,88 143,157 308,357 475,597 -242,378 -478,837 -660,1376 -83,247 -150,498 -202,754 -164,803 -171,1647 -22,2517 106,614 291,1242 552,1880 104,252 219,505 346,760 -238,460 -515,925 -832,1394 133,16 266,32 401,48 233,-353 445,-704 635,-1052 213,392 454,787 722,1184 146,12 292,23 439,33l14 -10c-376,-537 -700,-1070 -972,-1597 127,-255 243,-508 346,-760 262,-638 446,-1266 552,-1880z"/>
 </g>
</svg>
