<?xml version="1.0" encoding="UTF-8"?>
<!DOCTYPE svg PUBLIC "-//W3C//DTD SVG 1.1//EN" "http://www.w3.org/Graphics/SVG/1.1/DTD/svg11.dtd">
<!-- Creator: CorelDRAW X7 -->
<svg xmlns="http://www.w3.org/2000/svg" xml:space="preserve" width="12.7245in" height="3.09079in" version="1.1" style="shape-rendering:geometricPrecision; text-rendering:geometricPrecision; image-rendering:optimizeQuality; fill-rule:evenodd; clip-rule:evenodd"
viewBox="0 0 27696 6727"
 xmlns:xlink="http://www.w3.org/1999/xlink">
 <defs>
  <style type="text/css">
   <![CDATA[
    .fil3 {fill:#C49A6C}
    .fil1 {fill:#DFD99D}
    .fil0 {fill:#FFFAD1}
    .fil2 {fill:white}
   ]]>
  </style>
 </defs>
 <g id="Layer_x0020_1">
  <metadata id="CorelCorpID_0Corel-Layer"/>
  <path class="fil0" d="M3774 5813c-2865,-100 -2122,-3222 -2122,-3222 492,-2681 2122,-2591 2122,-2591 0,0 1629,-90 2122,2591 0,0 751,3138 -2122,3222z"/>
  <path class="fil1" d="M3805 168c0,0 7,0 21,1 14,2 35,4 61,8 53,9 131,27 227,62 96,34 210,85 332,160 61,37 124,81 188,130 65,49 129,105 193,166 64,62 127,130 189,203 62,74 121,153 178,238 114,169 216,359 302,563 44,102 83,207 119,315 9,27 17,54 26,81 9,27 16,55 25,82 8,28 15,55 23,83 7,28 14,56 21,84 28,111 52,225 74,339 21,118 35,235 46,352 20,236 22,473 1,707 -21,233 -65,463 -139,679 -73,216 -177,418 -307,586 -130,169 -286,303 -443,396 -158,94 -316,150 -456,182 -141,33 -264,44 -366,47 -50,2 -95,2 -134,0 -39,-1 -72,-4 -99,-6 -27,-2 -47,-5 -61,-6 -14,-2 -21,-2 -21,-2 0,0 7,-2 21,-4 13,-3 33,-7 60,-12 26,-5 58,-12 95,-21 19,-4 39,-9 60,-14 21,-5 43,-12 67,-18 94,-26 206,-62 327,-117 7,-4 15,-7 22,-11 8,-3 15,-7 23,-11 15,-7 31,-15 46,-23 31,-16 62,-33 93,-52 62,-38 124,-81 184,-131 121,-99 232,-226 323,-376 91,-151 161,-325 210,-514 49,-189 77,-393 89,-602 11,-210 6,-425 -12,-640 -10,-107 -23,-215 -39,-319l-7 -38 -8 -42c-4,-26 -9,-53 -14,-79 -10,-53 -20,-106 -31,-158 -6,-27 -11,-53 -17,-78 -7,-26 -12,-52 -19,-78 -6,-26 -12,-51 -18,-77 -7,-25 -14,-50 -20,-76 -28,-100 -58,-199 -91,-295 -65,-191 -141,-371 -226,-535 -85,-164 -178,-312 -276,-440 -98,-129 -200,-239 -298,-329 -98,-90 -191,-161 -272,-214 -41,-27 -78,-49 -111,-68 -34,-19 -62,-34 -86,-45 -48,-24 -75,-33 -75,-33z"/>
  <path class="fil2" d="M2742 1249c-53,199 -184,337 -293,308 -109,-29 -154,-214 -101,-413 54,-199 185,-337 294,-308 108,29 154,214 100,413z"/>
  <path class="fil0" d="M10489 5813c-2865,-100 -2122,-3222 -2122,-3222 493,-2681 2122,-2591 2122,-2591 0,0 1630,-90 2122,2591 0,0 751,3138 -2122,3222z"/>
  <path class="fil1" d="M10521 168c0,0 7,0 21,1 14,2 34,4 61,8 53,9 131,27 227,62 95,34 209,85 332,160 61,37 124,81 188,130 64,49 128,105 193,166 64,62 127,130 189,203 61,74 121,153 178,238 113,169 216,359 302,563 44,102 83,207 119,315 8,27 17,54 26,81 8,27 16,55 24,82 9,28 16,55 23,83 8,28 15,56 22,84 28,111 52,225 73,339 22,118 36,235 47,352 20,236 22,473 1,707 -21,233 -66,463 -139,679 -73,216 -177,418 -307,586 -130,169 -286,303 -443,396 -158,94 -316,150 -456,182 -141,33 -265,44 -366,47 -50,2 -95,2 -135,0 -39,-1 -72,-4 -98,-6 -27,-2 -48,-5 -61,-6 -14,-2 -21,-2 -21,-2 0,0 7,-2 20,-4 14,-3 34,-7 60,-12 26,-5 58,-12 96,-21 18,-4 38,-9 59,-14 22,-5 44,-12 68,-18 94,-26 206,-62 326,-117 8,-4 15,-7 23,-11 7,-3 15,-7 23,-11 15,-7 30,-15 46,-23 30,-16 62,-33 93,-52 62,-38 124,-81 184,-131 121,-99 231,-226 322,-376 91,-151 162,-325 211,-514 49,-189 77,-393 89,-602 11,-210 6,-425 -13,-640 -9,-107 -22,-215 -39,-319l-6 -38 -8 -42c-5,-26 -9,-53 -14,-79 -10,-53 -21,-106 -32,-158 -5,-27 -11,-53 -17,-78 -6,-26 -11,-52 -18,-78 -6,-26 -12,-51 -19,-77 -6,-25 -13,-50 -20,-76 -27,-100 -57,-199 -90,-295 -65,-191 -141,-371 -226,-535 -85,-164 -178,-312 -277,-440 -97,-129 -199,-239 -297,-329 -98,-90 -192,-161 -273,-214 -40,-27 -78,-49 -111,-68 -33,-19 -62,-34 -86,-45 -47,-24 -74,-33 -74,-33z"/>
  <path class="fil2" d="M9458 1249c-53,199 -184,337 -293,308 -109,-29 -154,-214 -101,-413 53,-199 184,-337 293,-308 109,29 154,214 101,413z"/>
  <path class="fil0" d="M17205 5813c-2865,-100 -2122,-3222 -2122,-3222 493,-2681 2122,-2591 2122,-2591 0,0 1629,-90 2122,2591 0,0 751,3138 -2122,3222z"/>
  <path class="fil1" d="M17237 168c0,0 7,0 20,1 14,2 35,4 61,8 54,9 131,27 227,62 96,34 210,85 332,160 62,37 124,81 189,130 64,49 128,105 192,166 65,62 127,130 189,203 62,74 122,153 178,238 114,169 216,359 303,563 43,102 83,207 119,315 8,27 17,54 25,81 9,27 17,55 25,82 8,28 15,55 23,83 8,28 15,56 22,84 28,111 51,225 73,339 21,118 36,235 46,352 21,236 22,473 1,707 -21,233 -65,463 -139,679 -73,216 -176,418 -307,586 -129,169 -285,303 -443,396 -158,94 -315,150 -456,182 -140,33 -264,44 -365,47 -51,2 -96,2 -135,0 -39,-1 -72,-4 -99,-6 -27,-2 -47,-5 -61,-6 -13,-2 -21,-2 -21,-2 1,0 8,-2 21,-4 14,-3 34,-7 60,-12 26,-5 58,-12 95,-21 19,-4 39,-9 60,-14 21,-5 44,-12 67,-18 94,-26 207,-62 327,-117 7,-4 15,-7 23,-11 7,-3 15,-7 22,-11 16,-7 31,-15 46,-23 31,-16 62,-33 93,-52 62,-38 125,-81 185,-131 120,-99 231,-226 322,-376 91,-151 161,-325 210,-514 49,-189 78,-393 89,-602 12,-210 7,-425 -12,-640 -9,-107 -22,-215 -39,-319l-6 -38 -8 -42c-5,-26 -10,-53 -15,-79 -10,-53 -20,-106 -31,-158 -5,-27 -11,-53 -17,-78 -6,-26 -12,-52 -18,-78 -7,-26 -13,-51 -19,-77 -7,-25 -14,-50 -20,-76 -27,-100 -58,-199 -90,-295 -65,-191 -141,-371 -226,-535 -85,-164 -179,-312 -277,-440 -98,-129 -200,-239 -298,-329 -97,-90 -191,-161 -272,-214 -41,-27 -78,-49 -111,-68 -33,-19 -62,-34 -86,-45 -48,-24 -75,-33 -74,-33z"/>
  <path class="fil2" d="M16174 1249c-53,199 -185,337 -293,308 -109,-29 -154,-214 -101,-413 53,-199 184,-337 293,-308 109,29 154,214 101,413z"/>
  <path class="fil0" d="M23921 5813c-2865,-100 -2122,-3222 -2122,-3222 492,-2681 2122,-2591 2122,-2591 0,0 1629,-90 2122,2591 0,0 751,3138 -2122,3222z"/>
  <path class="fil1" d="M23952 168c0,0 7,0 21,1 14,2 35,4 61,8 53,9 131,27 227,62 96,34 209,85 332,160 61,37 124,81 188,130 65,49 129,105 193,166 64,62 127,130 189,203 62,74 121,153 178,238 114,169 216,359 302,563 44,102 83,207 119,315 9,27 17,54 26,81 8,27 16,55 25,82 8,28 15,55 22,83 8,28 15,56 22,84 28,111 52,225 74,339 21,118 35,235 46,352 20,236 22,473 1,707 -21,233 -65,463 -139,679 -73,216 -177,418 -307,586 -130,169 -286,303 -443,396 -158,94 -316,150 -456,182 -141,33 -265,44 -366,47 -50,2 -95,2 -134,0 -39,-1 -72,-4 -99,-6 -27,-2 -47,-5 -61,-6 -14,-2 -21,-2 -21,-2 0,0 7,-2 21,-4 13,-3 33,-7 60,-12 26,-5 58,-12 95,-21 19,-4 39,-9 60,-14 21,-5 43,-12 67,-18 94,-26 206,-62 327,-117 7,-4 15,-7 22,-11 8,-3 15,-7 23,-11 15,-7 30,-15 46,-23 31,-16 62,-33 93,-52 62,-38 124,-81 184,-131 121,-99 232,-226 322,-376 91,-151 162,-325 211,-514 49,-189 77,-393 89,-602 11,-210 6,-425 -13,-640 -9,-107 -22,-215 -38,-319l-7 -38 -8 -42c-4,-26 -9,-53 -14,-79 -10,-53 -20,-106 -31,-158 -6,-27 -11,-53 -18,-78 -6,-26 -11,-52 -18,-78 -6,-26 -12,-51 -18,-77 -7,-25 -14,-50 -21,-76 -27,-100 -57,-199 -90,-295 -65,-191 -141,-371 -226,-535 -85,-164 -178,-312 -276,-440 -98,-129 -200,-239 -298,-329 -98,-90 -192,-161 -273,-214 -40,-27 -77,-49 -110,-68 -34,-19 -63,-34 -86,-45 -48,-24 -75,-33 -75,-33z"/>
  <path class="fil2" d="M22889 1249c-53,199 -184,337 -293,308 -109,-29 -154,-214 -101,-413 53,-199 185,-337 294,-308 108,29 154,214 100,413z"/>
  <path class="fil3" d="M27270 2526c-236,0 -427,191 -427,427 0,1610 -1311,2921 -2921,2921 -1611,0 -2921,-1311 -2921,-2921 0,-236 -192,-427 -427,-427 -4,0 -7,0 -10,0 -4,0 -7,0 -10,0 -236,0 -427,191 -427,427 0,1610 -1310,2921 -2921,2921 -1611,0 -2921,-1311 -2921,-2921 0,-236 -191,-427 -427,-427 -3,0 -7,0 -10,0 -3,0 -6,0 -10,0 -236,0 -427,191 -427,427 0,1610 -1310,2921 -2921,2921 -1610,0 -2921,-1311 -2921,-2921 0,-236 -191,-427 -427,-427 -3,0 -6,0 -9,0 -4,0 -7,0 -10,0 -236,0 -427,191 -427,427 0,1610 -1311,2921 -2921,2921 -1611,0 -2921,-1311 -2921,-2921 0,-236 -191,-427 -427,-427 -236,0 -427,191 -427,427 0,1008 393,1956 1106,2669 713,713 1660,1105 2669,1105 1008,0 1956,-392 2669,-1105 281,-281 512,-598 689,-941 177,343 407,660 688,941 713,713 1661,1105 2669,1105 1009,0 1957,-392 2669,-1105 281,-281 512,-598 689,-941 177,343 408,660 689,941 713,713 1661,1105 2669,1105 1008,0 1956,-392 2669,-1105 281,-281 512,-598 689,-941 177,343 408,660 689,941 712,713 1660,1105 2669,1105 1008,0 1956,-392 2669,-1105 713,-713 1105,-1661 1105,-2669 0,-236 -191,-427 -426,-427z"/>
 </g>
</svg>
