<?xml version="1.0" encoding="UTF-8"?>
<!DOCTYPE svg PUBLIC "-//W3C//DTD SVG 1.1//EN" "http://www.w3.org/Graphics/SVG/1.1/DTD/svg11.dtd">
<!-- Creator: CorelDRAW X7 -->
<svg xmlns="http://www.w3.org/2000/svg" xml:space="preserve" width="2.06764in" height="2.34088in" version="1.1" style="shape-rendering:geometricPrecision; text-rendering:geometricPrecision; image-rendering:optimizeQuality; fill-rule:evenodd; clip-rule:evenodd"
viewBox="0 0 272 308"
 xmlns:xlink="http://www.w3.org/1999/xlink">
 <defs>
  <style type="text/css">
   <![CDATA[
    .fil2 {fill:#D1D3D4}
    .fil0 {fill:#EBFDFD}
    .fil3 {fill:#ED1C24}
    .fil1 {fill:white}
   ]]>
  </style>
 </defs>
 <g id="Layer_x0020_1">
  <metadata id="CorelCorpID_0Corel-Layer"/>
  <path class="fil0" d="M136 308c-58,0 -86,-13 -86,-13 -18,-12 -38,-45 -38,-45 -35,-69 19,-128 19,-128 11,-15 4,-33 4,-33l101 0 101 0c0,0 -7,18 4,33 0,0 54,59 19,128 0,0 -20,33 -38,45 0,0 -28,13 -86,13z"/>
  <path class="fil1" d="M136 92l-92 0c26,-67 92,-66 92,-66 0,0 66,-1 92,66l-92 0z"/>
  <path class="fil2" d="M163 18c0,10 -12,17 -27,17 -15,0 -27,-7 -27,-17 0,-10 12,-18 27,-18 15,0 27,8 27,18z"/>
  <path class="fil2" d="M242 89c0,1 -2,3 -4,3l-204 0c-2,0 -3,-2 -3,-3l0 0c0,-2 1,-4 3,-4l204 0c2,0 4,2 4,4l0 0z"/>
  <path class="fil3" d="M39 218c2,2 5,2 8,2 3,0 5,0 7,-2 2,-1 3,-3 3,-6 0,-2 -1,-4 -2,-6 -1,0 -3,-2 -6,-4 -4,-2 -6,-4 -7,-4 -2,-2 -3,-5 -3,-8 0,-3 1,-6 4,-9 3,-2 6,-3 10,-2 1,0 2,0 3,0 0,0 1,0 1,1 -1,1 -1,1 -2,1 -1,-1 -2,-1 -2,-1 -3,0 -5,1 -7,2 -2,1 -3,3 -3,5 0,2 1,4 3,6 1,1 3,2 5,3 4,2 7,4 8,6 2,2 3,4 3,7 0,4 -1,8 -4,10 -3,2 -7,3 -11,3 -4,0 -7,-1 -9,-3 -3,-1 -4,-4 -4,-6 0,-1 0,-2 1,-2 0,0 0,1 0,1 1,3 2,5 4,6z"/>
  <path class="fil3" d="M89 220c4,0 8,-1 10,-5 2,-3 3,-7 3,-13l0 -22c0,-1 0,-1 1,-1 1,0 1,0 1,1l0 21c0,7 -1,12 -4,15 -3,4 -7,6 -13,6 -6,0 -11,-3 -14,-8 -2,-3 -3,-7 -3,-11l0 -23c0,-1 2,-1 4,-1 2,0 3,0 3,2l0 25c0,4 1,7 2,9 2,4 5,5 10,5z"/>
  <path class="fil3" d="M150 210c0,-1 0,-1 -1,-1l-15 0c-1,0 -2,-1 -2,-3 0,-1 1,-2 2,-2l17 0c2,0 3,1 3,1 -1,5 -4,9 -7,13 -4,3 -8,5 -13,5 -7,0 -12,-2 -16,-6 -4,-4 -6,-10 -6,-16 0,-6 2,-11 6,-16 5,-4 10,-6 16,-6 6,0 11,2 15,6 0,1 0,1 0,1 0,1 0,1 0,1 -1,0 -1,0 -1,-1 -4,-4 -9,-6 -14,-6 -5,0 -9,2 -11,6 -3,4 -4,9 -4,15 0,6 2,11 4,14 3,4 6,6 11,6 3,0 7,-1 10,-3 4,-3 6,-6 6,-8z"/>
  <path class="fil3" d="M184 205c-2,-6 -4,-11 -6,-17 -1,0 -1,0 -1,0 0,0 -1,0 -1,0 -1,4 -4,9 -7,17 0,0 0,0 0,0l15 0c0,0 1,0 0,0zm7 15l-6 -13c0,0 0,0 0,0l-17 0c0,0 0,0 0,0 -2,5 -4,10 -6,14 0,0 0,1 -1,1 0,0 -1,-1 -1,-1 0,-1 0,-1 0,-1 2,-3 3,-7 6,-13 0,0 0,0 0,0l-3 0c-1,0 -1,0 -1,0 -1,0 -1,0 -1,-1 0,0 0,-1 1,-1 0,0 0,0 1,0l3 0c1,0 1,0 1,0l11 -25c0,-1 1,-1 1,-1 1,0 1,0 1,0l18 41c0,0 0,0 0,0 0,1 -1,2 -3,2 -3,0 -4,-1 -4,-2z"/>
  <path class="fil3" d="M216 209c0,1 1,1 2,2 0,0 1,0 2,0 1,0 2,0 3,0 0,0 0,0 0,0 -2,-2 -3,-3 -5,-3 -1,0 -2,0 -2,1zm9 1c3,-1 6,-2 7,-4 2,-3 3,-5 3,-9 0,-3 0,-5 -2,-8 -2,-2 -4,-4 -6,-6 -3,-1 -7,-2 -12,-2 -1,0 -2,0 -2,1l0 38c0,1 -1,2 -3,2 -2,0 -4,-1 -4,-2l0 -40c0,-1 2,-1 4,-1 0,0 1,0 1,0 3,0 4,0 5,0 3,0 5,1 7,1 3,1 7,2 9,5 4,3 5,7 5,12 0,4 -1,7 -3,9 -2,3 -4,5 -8,6 0,0 0,0 0,1 4,5 7,8 10,8 1,0 2,0 2,0 0,1 -1,1 -2,1 -3,0 -6,-1 -9,-5 0,0 -1,-2 -2,-4 -1,0 -1,0 -1,0 -1,0 -3,0 -4,0 -1,0 -2,0 -4,-1 -1,-1 -1,-2 -1,-3 0,-1 0,-2 1,-2 0,-1 1,-1 2,-1 2,0 4,1 6,4 1,0 1,1 1,0z"/>
 </g>
</svg>
