<?xml version="1.0" encoding="UTF-8"?>
<!DOCTYPE svg PUBLIC "-//W3C//DTD SVG 1.1//EN" "http://www.w3.org/Graphics/SVG/1.1/DTD/svg11.dtd">
<!-- Creator: CorelDRAW X7 -->
<svg xmlns="http://www.w3.org/2000/svg" xml:space="preserve" width="4.48537in" height="2.20025in" version="1.1" style="shape-rendering:geometricPrecision; text-rendering:geometricPrecision; image-rendering:optimizeQuality; fill-rule:evenodd; clip-rule:evenodd"
viewBox="0 0 83430 40926"
 xmlns:xlink="http://www.w3.org/1999/xlink">
 <defs>
  <style type="text/css">
   <![CDATA[
    .fil0 {fill:#D18D4C}
    .fil2 {fill:#DDAB70}
    .fil1 {fill:#EDBC82}
   ]]>
  </style>
 </defs>
 <g id="Layer_x0020_1">
  <metadata id="CorelCorpID_0Corel-Layer"/>
  <path class="fil0" d="M16681 31524c1267,2880 422,4942 422,4942 -3043,-2525 -8709,2350 -8709,2350 -6344,4809 -8035,-108 -8035,-108 0,0 -2426,-4935 5334,-5993 0,0 7423,-885 7616,-4834 0,0 2104,763 3372,3643z"/>
  <polygon class="fil1" points="71636,17348 19034,40500 11651,23726 64253,574 "/>
  <path class="fil1" d="M20147 29998c2038,4632 1540,9334 -1113,10502 -2654,1168 -6457,-1641 -8496,-6272 -2039,-4633 -1540,-9334 1113,-10502 2653,-1168 6457,1640 8496,6272z"/>
  <path class="fil2" d="M72749 6847c2039,4632 1540,9333 -1113,10501 -2653,1168 -6457,-1640 -8496,-6272 -2038,-4632 -1540,-9334 1113,-10502 2654,-1168 6457,1641 8496,6273z"/>
  <path class="fil0" d="M66735 9494c1267,2880 3358,3649 3358,3649 194,-3948 7616,-4834 7616,-4834 7831,-1430 5347,-5998 5347,-5998 0,0 -2000,-5123 -8022,-114 0,0 -5666,4874 -8709,2350 0,0 -859,2067 410,4947z"/>
 </g>
</svg>
