<?xml version="1.0" encoding="UTF-8"?>
<!DOCTYPE svg PUBLIC "-//W3C//DTD SVG 1.1//EN" "http://www.w3.org/Graphics/SVG/1.1/DTD/svg11.dtd">
<!-- Creator: CorelDRAW X7 -->
<svg xmlns="http://www.w3.org/2000/svg" xml:space="preserve" width="3.34467in" height="2.49807in" version="1.1" style="shape-rendering:geometricPrecision; text-rendering:geometricPrecision; image-rendering:optimizeQuality; fill-rule:evenodd; clip-rule:evenodd"
viewBox="0 0 828 619"
 xmlns:xlink="http://www.w3.org/1999/xlink">
 <defs>
  <style type="text/css">
   <![CDATA[
    .fil1 {fill:#009444}
    .fil2 {fill:#7F1D02}
    .fil0 {fill:#ED1C24}
    .fil3 {fill:#FFE5B4}
   ]]>
  </style>
 </defs>
 <g id="Layer_x0020_1">
  <metadata id="CorelCorpID_0Corel-Layer"/>
  <path class="fil0" d="M329 341c1,-29 5,-56 13,-80 13,-40 33,-58 35,-60 25,-24 55,-35 88,-35 4,0 8,0 11,0 -1,-4 -2,-8 -4,-12 -14,-7 -23,-15 -24,-16l-9 -9 9 -8c1,0 2,-2 4,-3 -5,-7 -9,-11 -9,-11 -74,-69 -168,-8 -193,10l-6 5c0,0 -114,-95 -200,-15 0,0 -76,67 -28,246 0,0 52,188 228,142 46,13 84,8 114,-4 -8,-19 -12,-32 -12,-33 -12,-42 -17,-81 -17,-117z"/>
  <path class="fil1" d="M236 22c-56,-53 -121,5 -121,5 0,0 63,57 119,8 0,0 0,-1 0,-1 0,0 -3,-7 2,-12z"/>
  <path class="fil2" d="M250 117c-3,-17 15,-94 15,-94 2,-13 -26,-2 -26,-2 -1,0 -2,1 -3,1 -5,5 -2,12 -2,12 0,0 0,1 0,1 8,26 10,87 10,87l6 -5z"/>
  <polygon class="fil2" points="244,517 262,517 244,495 225,517 "/>
  <path class="fil0" d="M584 224c0,0 -113,-95 -199,-15 0,0 -76,67 -28,246 0,0 51,188 227,142 177,46 228,-142 228,-142 48,-179 -28,-246 -28,-246 -86,-80 -200,15 -200,15z"/>
  <path class="fil1" d="M582 129c-58,62 -126,0 -126,0 0,0 68,-61 126,0z"/>
  <path class="fil2" d="M584 224c0,0 -1,-61 -9,-88 0,0 -4,-9 5,-13 0,0 28,-11 26,2 0,0 -18,77 -15,94l-7 5z"/>
  <polygon class="fil2" points="584,619 603,619 584,597 566,619 "/>
  <path class="fil3" d="M638 595c-17,0 -34,-2 -51,-6l-3 -1 -2 1c-17,4 -34,6 -51,6 -28,0 -55,-7 -78,-22 -19,-11 -37,-28 -51,-49 -26,-35 -36,-71 -36,-72 -47,-171 24,-235 25,-236l0 0c21,-20 46,-30 74,-30 59,0 113,44 114,45l6 5 10 -9c15,-11 60,-41 109,-41 28,0 53,10 74,30l0 0c0,0 18,17 30,53 7,22 11,47 11,73 0,34 -5,71 -16,110 0,1 -10,37 -36,73 -15,20 -32,37 -51,49 -23,14 -50,21 -78,21 0,0 0,0 0,0z"/>
  <path class="fil2" d="M546 350c38,35 0,76 0,76 0,0 -37,-41 0,-76z"/>
  <path class="fil2" d="M620 350c37,35 0,76 0,76 0,0 -37,-41 0,-76z"/>
 </g>
</svg>
