<?xml version="1.0" encoding="UTF-8"?>
<!DOCTYPE svg PUBLIC "-//W3C//DTD SVG 1.1//EN" "http://www.w3.org/Graphics/SVG/1.1/DTD/svg11.dtd">
<!-- Creator: CorelDRAW X7 -->
<svg xmlns="http://www.w3.org/2000/svg" xml:space="preserve" width="2.57496in" height="2.66954in" version="1.1" style="shape-rendering:geometricPrecision; text-rendering:geometricPrecision; image-rendering:optimizeQuality; fill-rule:evenodd; clip-rule:evenodd"
viewBox="0 0 679 704"
 xmlns:xlink="http://www.w3.org/1999/xlink">
 <defs>
  <style type="text/css">
   <![CDATA[
    .fil11 {fill:#4D4D4D}
    .fil1 {fill:#608526}
    .fil4 {fill:#91AE60}
    .fil5 {fill:#979797}
    .fil0 {fill:#9E5E2D}
    .fil2 {fill:#AAC364}
    .fil3 {fill:#DFE264}
    .fil13 {fill:#EB8700}
    .fil12 {fill:#F68E00}
    .fil10 {fill:#FBB334}
    .fil9 {fill:#FDD15B}
    .fil7 {fill:#CACACA;fill-rule:nonzero}
    .fil8 {fill:#F68E00;fill-rule:nonzero}
    .fil6 {fill:url(#id0)}
   ]]>
  </style>
  <radialGradient id="id0" gradientUnits="userSpaceOnUse" gradientTransform="matrix(1.74795 -0 -0 1.74795 -331 -329)" cx="442.072" cy="440.098" r="236.818" fx="442.072" fy="440.098">
   <stop offset="0" style="stop-opacity:1; stop-color:white"/>
   <stop offset="1" style="stop-opacity:1; stop-color:#CFCFCF"/>
  </radialGradient>
 </defs>
 <g id="OBJECTS">
  <metadata id="CorelCorpID_0Corel-Layer"/>
  <path class="fil0" d="M173 412c130,66 146,158 143,197 9,-6 1,-79 -37,-126 -22,-27 -87,-72 -106,-71z"/>
  <path class="fil1" d="M174 538c3,16 -3,46 -64,56 18,-59 49,-61 64,-56z"/>
  <path class="fil2" d="M286 521c-10,12 -37,28 -85,-13 58,-24 79,-2 85,13z"/>
  <path class="fil2" d="M223 456c-5,16 -23,41 -83,24 42,-46 71,-35 83,-24z"/>
  <path class="fil2" d="M215 415c11,-13 20,-43 -28,-81 -14,61 13,77 28,81z"/>
  <path class="fil1" d="M279 477c14,-8 33,-32 1,-86 -34,53 -15,78 -1,86z"/>
  <path class="fil1" d="M324 549c15,-5 39,-25 19,-84 -44,44 -31,72 -19,84z"/>
  <path class="fil0" d="M84 534c144,-23 211,42 232,75 3,-10 -46,-65 -104,-80 -34,-9 -113,-7 -128,5z"/>
  <path class="fil2" d="M287 593c-8,14 -33,33 -86,-1 54,-32 78,-13 86,1z"/>
  <path class="fil1" d="M130 506c-14,8 -44,14 -77,-39 63,-5 76,23 77,39z"/>
  <path class="fil1" d="M84 532c-5,16 -25,39 -84,18 45,-43 73,-30 84,-18z"/>
  <path class="fil3" d="M134 337c8,-1 17,0 24,5 14,9 19,26 15,42 8,12 8,29 -1,43 -7,10 -17,16 -28,18 -12,15 -34,19 -50,9l-1 -1c-7,1 -14,-1 -21,-5 -10,-7 -16,-18 -16,-30 -10,-12 -12,-31 -2,-46 4,-6 9,-11 15,-14 1,-5 3,-10 6,-15 12,-18 35,-23 52,-12 3,1 5,3 7,6z"/>
  <path class="fil4" d="M151 429l0 -5c4,-3 6,-6 8,-11 3,-7 3,-15 1,-21 8,6 12,16 8,25 -3,7 -9,11 -17,12zm1 -27l0 0c5,-5 8,-12 6,-20 -1,-3 -3,-6 -6,-8l0 16c0,3 0,5 0,8l0 4zm1 -47l0 0 0 -8c2,1 5,3 7,5 6,6 6,16 2,23 0,-6 -3,-13 -8,-19 0,0 -1,-1 -1,-1zm0 -8l0 0 0 8c-4,-4 -9,-6 -14,-7l0 -1c5,-2 10,-2 14,0zm-1 27l0 0 0 16c0,-1 0,-3 -1,-5 -2,-7 -7,-13 -12,-16l0 0c5,0 10,2 13,5zm0 24l0 0 0 4c-1,1 -1,1 -2,2 1,-2 2,-4 2,-6zm-1 26l0 0 0 5c-2,0 -4,0 -6,-1 2,-1 4,-2 6,-4zm-13 10l0 0 0 -11c1,-1 1,-2 2,-3 0,5 0,9 -2,14zm0 -26l0 0 0 -6 0 -1c1,3 1,5 0,7zm1 -61l0 0 0 1c0,0 -1,0 -1,-1 0,0 1,0 1,0zm0 22l0 0 0 0 -1 0 1 0zm-1 33l0 0 0 6c-1,6 -5,12 -11,14 -2,1 -3,2 -5,2l0 -7c0,0 1,-1 2,-1 7,-3 12,-9 14,-14zm0 21l0 0c-4,5 -10,9 -17,11l0 13c1,0 2,-1 2,-1 7,-2 12,-6 15,-12l0 -11zm-16 -22l0 0 0 -10c2,3 2,6 0,9 0,0 0,1 0,1zm1 -52l0 0 0 -3c2,1 3,3 4,5 -1,-1 -3,-1 -4,-2zm0 -3l0 0 0 3c-2,0 -5,-1 -8,-1l0 -9c3,2 6,4 8,7zm-1 45l0 0 0 10c-2,2 -5,4 -8,3l0 -17c2,0 4,0 6,1 1,1 2,2 2,3zm0 26l0 0 0 7c-3,0 -6,0 -8,-1l0 -4c2,-1 5,-1 8,-2zm-1 17l0 0 0 13c-2,0 -5,0 -8,0l0 -11c3,0 5,0 7,-1 0,0 1,0 1,-1zm-6 -66l0 0 0 -3c2,0 5,1 7,3 -2,0 -5,0 -7,0zm0 -29l0 0 0 9c-4,-1 -9,0 -13,1 -2,1 -3,1 -4,2l0 -13 0 0c6,-2 12,-1 17,1zm0 26l0 0 0 3c-4,1 -7,3 -10,5 -3,2 -6,4 -8,7l0 -10c1,-1 2,-2 3,-3 4,-3 10,-3 15,-2zm-1 22l0 0 0 17c-1,0 -2,0 -4,-1 -4,-3 -5,-8 -2,-12 1,-2 4,-4 6,-4zm0 32l0 0 0 4c-3,-1 -6,-3 -9,-5 3,1 6,1 9,1zm-1 17l0 0 0 11c-7,-1 -13,-5 -17,-11l0 -2c5,2 11,3 17,2zm-17 -13l0 0 0 -1c1,1 1,1 2,1 -1,0 -1,0 -2,0zm-10 23l0 0c2,0 5,0 8,-1 -3,-1 -6,-1 -8,-3l0 4zm12 -108l0 0 0 13c-4,1 -8,4 -11,6l0 -12c3,-3 7,-6 11,-7zm-1 32l0 0 0 10c-2,3 -3,7 -4,10 -2,-7 -1,-15 4,-20zm-1 52l0 0 0 1c-3,0 -7,-1 -10,-3l0 -11c2,6 6,10 10,13zm0 12l0 0 0 2c0,-1 -1,-2 -1,-3 0,0 1,1 1,1zm-15 12l0 0c2,0 3,0 5,0l0 -4c-2,-1 -3,-2 -5,-3l0 7zm6 -101l0 0 0 12c-2,2 -3,4 -4,6l0 -10c1,-3 2,-6 4,-8zm-1 64l0 0 0 11c-2,-2 -3,-3 -4,-5l0 -23c1,-1 2,-2 4,-4 -2,6 -3,12 -1,19 1,1 1,2 1,2zm-4 -39l0 0 0 -2c2,0 3,0 4,0 -1,1 -2,1 -4,2zm-12 47l0 0c-4,7 -4,16 1,22 3,4 6,6 10,7l0 -7c-2,-1 -3,-3 -5,-5 -4,-5 -6,-11 -6,-17zm13 -64l0 0 0 10c-1,1 -1,1 -1,2 -1,-4 0,-8 1,-12zm-1 15l0 0 0 2c-5,5 -9,11 -11,18 -3,9 -2,18 2,25 -11,-5 -17,-17 -13,-28 3,-10 12,-17 22,-17zm0 24l0 0c-4,5 -5,11 -3,18 0,2 1,4 3,5l0 -23z"/>
  <polygon class="fil5" points="206,668 274,621 343,700 379,631 445,688 505,629 541,679 579,603 677,675 549,473 256,483 "/>
  <path class="fil6" d="M677 676c1,-12 2,-24 2,-36 0,-171 -106,-288 -237,-288 -131,0 -237,117 -237,288 0,9 1,18 1,27l28 -58 56 95 28 -62 46 46 43 -71 61 23 77 -63 29 87 39 -62 64 74z"/>
  <path class="fil7" d="M573 545c6,3 11,8 15,13 3,3 7,3 9,1 3,-3 3,-6 1,-9 -6,-8 -14,-14 -21,-18 7,1 14,3 21,7 4,1 7,0 9,-3 2,-3 0,-7 -3,-9 -9,-4 -18,-7 -26,-8 7,-2 14,-3 22,-2 4,0 7,-2 7,-6 0,-3 -2,-6 -6,-7 -10,0 -19,1 -28,3l0 38zm0 -77l0 0 0 -69c21,16 40,35 55,57 -2,10 -8,23 -24,21 -18,-3 -10,-14 -18,-17 -3,-1 -8,4 -13,8zm-28 52l0 0c-3,0 -5,2 -6,4 -1,3 1,7 5,8 7,2 15,5 23,9 2,1 4,2 6,4l0 -38c-1,1 -3,1 -4,2 -9,3 -18,7 -24,11zm28 -121l0 0 0 69c-7,6 -15,11 -23,-2 -5,-8 -7,-20 -7,-33 -6,6 -13,11 -22,14 -21,6 -42,-3 -53,-21 -13,3 -27,5 -41,5 -9,0 -17,-1 -24,-2 -12,16 -32,24 -52,18 -1,-1 -2,-1 -3,-2 -3,10 -6,19 -8,29 -4,18 -5,36 -3,52 0,3 -2,7 -5,7 -2,0 -3,0 -5,-1 -6,2 -14,5 -21,9 -8,4 -16,9 -22,17 -2,3 -6,3 -9,1 -2,-3 -3,-6 -1,-9 7,-8 14,-14 22,-18 -7,1 -15,3 -22,7 -3,1 -7,0 -9,-3 -1,-3 0,-7 3,-9 9,-4 18,-7 27,-8 -7,-2 -15,-3 -23,-2 -3,0 -6,-2 -7,-6 0,-3 3,-6 6,-7 12,-1 23,1 32,5 8,2 15,5 20,8 0,-14 1,-30 5,-46 2,-11 5,-22 8,-32 -1,-1 -3,-3 -4,-4 0,9 -1,18 -4,24 -11,24 -29,-5 -36,-1 -8,4 1,14 -17,19 -13,4 -20,-5 -24,-13 43,-67 113,-110 191,-110 49,0 94,17 131,45z"/>
  <polygon class="fil5" points="535,441 552,491 534,544 545,577 574,664 540,544 556,491 "/>
  <path class="fil8" d="M361 401c2,-3 0,-7 -3,-9 -3,-1 -7,0 -8,4 -9,19 -17,42 -22,66 -4,19 -6,39 -4,56 1,4 4,6 8,6 3,-1 5,-4 5,-7 -2,-16 -1,-34 3,-52 5,-23 13,-46 21,-64z"/>
  <path class="fil8" d="M328 510c2,0 4,2 5,5 1,3 -1,7 -4,8 -7,1 -15,4 -23,8 -8,5 -16,10 -22,18 -2,2 -6,3 -9,0 -2,-2 -3,-6 -1,-9 7,-7 14,-13 22,-17 -7,1 -15,3 -22,6 -3,2 -7,1 -9,-2 -1,-4 0,-7 3,-9 9,-4 18,-7 27,-8 -7,-2 -15,-3 -23,-2 -3,0 -6,-3 -7,-6 0,-4 3,-7 6,-7 12,-1 23,1 32,4 10,3 18,7 25,11z"/>
  <path class="fil9" d="M378 348c25,8 39,34 31,58 -7,25 -33,39 -58,31 -24,-7 -38,-33 -31,-58 8,-25 34,-39 58,-31z"/>
  <path class="fil8" d="M511 401c-1,-3 0,-7 4,-9 3,-1 7,0 8,4 8,19 17,42 22,66 4,19 5,39 3,56 0,4 -4,6 -7,6 -4,-1 -6,-4 -6,-7 3,-16 1,-34 -3,-52 -4,-23 -12,-46 -21,-64z"/>
  <path class="fil8" d="M545 510c-3,0 -5,2 -6,5 -1,3 1,7 5,8 7,1 15,4 23,8 7,5 15,10 21,18 3,2 7,3 9,0 3,-2 3,-6 1,-9 -6,-7 -14,-13 -21,-17 7,1 14,3 21,6 4,2 7,1 9,-2 2,-4 0,-7 -3,-9 -9,-4 -18,-7 -26,-8 7,-2 14,-3 22,-2 4,0 7,-3 7,-6 0,-4 -2,-7 -6,-7 -11,-1 -22,1 -32,4 -9,3 -18,7 -24,11z"/>
  <path class="fil9" d="M494 348c-25,8 -38,34 -31,58 8,25 34,39 58,31 25,-7 39,-33 31,-58 -7,-25 -33,-39 -58,-31z"/>
  <path class="fil9" d="M427 422c95,0 172,-78 172,-173 0,-95 -77,-173 -172,-173 -96,0 -173,78 -173,173 0,95 77,173 173,173z"/>
  <path class="fil10" d="M464 81c-31,-9 26,-42 6,-48 -21,-6 -19,18 -33,16 -14,-1 -1,-52 -35,-49 -34,3 33,60 -1,58 -12,-1 -14,-34 -36,-26 -26,8 58,35 13,51l0 0c15,-4 32,14 47,14 15,0 27,-19 39,-16l0 0z"/>
  <path class="fil10" d="M491 285c20,0 36,-16 36,-36 0,-20 -16,-36 -36,-36 -20,0 -36,16 -36,36 0,20 16,36 36,36z"/>
  <path class="fil11" d="M483 210c13,0 23,-10 23,-23 0,-12 -10,-22 -23,-22 -12,0 -22,10 -22,22 0,13 10,23 22,23z"/>
  <path class="fil5" d="M477 187c5,0 9,-4 9,-9 0,-5 -4,-8 -9,-8 -5,0 -8,3 -8,8 0,5 3,9 8,9z"/>
  <path class="fil11" d="M370 210c12,0 22,-10 22,-23 0,-12 -10,-22 -22,-22 -13,0 -23,10 -23,22 0,13 10,23 23,23z"/>
  <path class="fil5" d="M363 187c5,0 9,-4 9,-9 0,-5 -4,-8 -9,-8 -4,0 -8,3 -8,8 0,5 4,9 8,9z"/>
  <path class="fil12" d="M426 209c45,0 25,60 0,60 -24,0 -44,-60 0,-60z"/>
  <path class="fil13" d="M452 226c2,8 0,19 -5,28 -9,-7 -14,-28 5,-28z"/>
  <path class="fil13" d="M401 226c-2,8 0,19 5,28 9,-7 14,-28 -5,-28z"/>
  <path class="fil10" d="M363 285c20,0 36,-16 36,-36 0,-20 -16,-36 -36,-36 -20,0 -37,16 -37,36 0,20 17,36 37,36z"/>
  <path class="fil10" d="M237 260c-35,30 -65,119 -9,193 15,20 39,-25 29,-56 11,18 25,2 24,-35 13,23 21,-24 19,-52 -5,-46 -9,-99 -63,-50z"/>
  <path class="fil10" d="M621 258c35,29 70,117 17,193 -15,20 -40,-24 -32,-55 -10,18 -25,3 -25,-34 -12,23 -22,-23 -21,-51 2,-46 4,-99 61,-53z"/>
 </g>
</svg>
