<?xml version="1.0" encoding="UTF-8"?>
<!DOCTYPE svg PUBLIC "-//W3C//DTD SVG 1.1//EN" "http://www.w3.org/Graphics/SVG/1.1/DTD/svg11.dtd">
<!-- Creator: CorelDRAW X7 -->
<svg xmlns="http://www.w3.org/2000/svg" xml:space="preserve" width="2.40833in" height="2.59624in" version="1.1" style="shape-rendering:geometricPrecision; text-rendering:geometricPrecision; image-rendering:optimizeQuality; fill-rule:evenodd; clip-rule:evenodd"
viewBox="0 0 662 714"
 xmlns:xlink="http://www.w3.org/1999/xlink">
 <defs>
  <style type="text/css">
   <![CDATA[
    .fil4 {fill:#44795B}
    .fil2 {fill:#608526}
    .fil3 {fill:#8AC6A3}
    .fil1 {fill:#9E5E2D}
    .fil5 {fill:#AAC364}
    .fil7 {fill:#D6831F}
    .fil6 {fill:#F6B86B}
    .fil0 {fill:url(#id0)}
   ]]>
  </style>
  <radialGradient id="id0" gradientUnits="userSpaceOnUse" gradientTransform="matrix(-1.28499 -1.57366E-016 1.57365E-016 -1.28498 765 489)" cx="334.932" cy="214.153" r="356.921" fx="334.932" fy="214.153">
   <stop offset="0" style="stop-opacity:1; stop-color:white"/>
   <stop offset="1" style="stop-opacity:1; stop-color:#CFCFCF"/>
  </radialGradient>
 </defs>
 <g id="OBJECTS">
  <metadata id="CorelCorpID_0Corel-Layer"/>
  <path class="fil0" d="M335 0c-151,0 -273,185 -273,382 0,197 122,332 273,332 151,0 273,-135 273,-332 0,-197 -122,-382 -273,-382z"/>
  <path class="fil1" d="M156 473c50,-36 88,-25 103,-16 -1,-5 -30,-16 -55,-10 -15,3 -45,19 -48,26z"/>
  <path class="fil2" d="M215 454c7,7 17,24 -11,54 -14,-38 1,-51 11,-54z"/>
  <path class="fil2" d="M207 442c7,-8 13,-27 -18,-52 -9,38 8,49 18,52z"/>
  <path class="fil3" d="M166 512c4,-1 8,-5 10,-9 4,-9 1,-19 -6,-25 1,-8 -4,-17 -12,-21 -7,-3 -14,-3 -20,0 -10,-4 -22,0 -26,10l-1 1c-3,2 -6,5 -8,9 -3,6 -3,13 1,19 -2,9 3,19 12,23 4,2 8,2 12,2 2,2 4,4 7,6 11,5 24,1 29,-10 1,-1 1,-3 2,-5z"/>
  <path class="fil4" d="M173 500l-3 -4c1,-4 0,-8 -2,-11 4,3 7,8 6,13 -1,0 -1,1 -1,2zm-9 -13l0 0 -9 -12c4,1 7,4 9,8 0,2 0,3 0,4zm-16 -22l0 0c2,0 5,1 7,3 4,2 6,6 7,10 2,-5 1,-11 -4,-15 -3,-2 -8,-2 -12,0l2 2zm-2 -2l0 0 2 2c-2,-1 -3,-1 -4,0 1,-1 1,-2 2,-2zm9 12l0 0 9 12c-1,3 -2,6 -5,8l0 0c1,-3 2,-7 1,-11 -1,-4 -4,-7 -6,-9 0,0 1,0 1,0zm15 21l0 0 3 4c-2,3 -4,5 -7,6l0 -1c2,-2 3,-5 4,-8 0,0 0,-1 0,-1zm-23 -17l0 0c1,0 1,0 2,1 -1,-2 -3,-4 -5,-5l3 4zm-7 -10l0 0 -4 -6c3,1 6,4 8,7 -1,0 -2,-1 -4,-1zm-4 -6l0 0 4 6c-3,-1 -7,-1 -10,0l-4 -6c1,0 1,0 2,-1 3,0 5,0 8,1zm8 12l0 0 3 4c-2,-2 -6,-3 -10,-2 0,0 -1,0 -1,0l-2 -3c1,-1 2,-1 3,-1 3,-1 5,0 7,2zm15 20l0 0 0 0c0,0 0,0 -1,1 0,-1 1,-1 1,-1zm7 10l0 0 0 1c0,0 -1,0 -2,0 1,0 1,-1 2,-1zm-8 3l0 0 0 0 0 0c0,0 0,0 0,0zm-14 -20l0 0 -3 -3c2,1 3,2 3,3zm-18 -25l0 0 4 6 0 0c-2,0 -4,1 -5,2l-4 -5c2,-1 3,-2 5,-3zm8 11l0 0 2 3c-2,0 -4,1 -5,2l-2 -2c1,-1 3,-2 5,-3zm7 11l0 0 3 3c0,1 0,2 -1,3 0,2 -1,2 -2,3l-6 -8c2,-2 4,-2 6,-1 0,0 0,0 0,0zm17 23l0 0 0 0c0,3 -1,5 -2,7l-2 -3c1,-1 3,-3 4,-4zm-10 -4l0 0 -1 -1c2,-1 3,-2 4,-2 -1,1 -2,2 -3,3zm-34 -32l0 0 0 0 0 0 0 0zm7 -6l0 0c-2,3 -3,7 -3,11l0 0c1,-2 4,-5 7,-6l-4 -5zm8 11l0 0 2 2c-2,1 -3,2 -3,2 0,-1 1,-2 1,-4zm6 9l0 0 6 8c-1,0 -3,0 -4,0 -3,-1 -4,-4 -2,-7 0,0 0,-1 0,-1zm12 17l0 0 1 1c-2,2 -5,4 -8,3 0,0 0,0 0,0l-4 -4c1,0 3,0 5,0 2,1 4,0 6,0zm7 9l0 0 2 3c-1,3 -3,6 -6,7l-4 -6 0 0c3,-1 6,-2 8,-4zm-32 -30l0 0 -1 0c1,-1 1,-1 1,-1 0,0 0,1 0,1zm-16 -6l0 0c2,-2 5,-4 8,-4l0 0c-2,2 -4,5 -5,8l-3 -4zm12 1l0 0 0 0 0 0 0 0zm3 5l0 0 1 0c-1,3 -2,7 -1,11 1,3 3,7 6,8 -1,0 -2,0 -3,0l-7 -10c0,-3 1,-7 4,-9zm15 21l0 0c-2,-1 -5,-3 -6,-4 1,4 5,8 10,8l-4 -4zm10 13l0 0 4 6c-1,0 -1,0 -2,0 -4,1 -7,1 -10,-1l-4 -6c3,2 8,2 12,1zm-14 -4l0 0 -1 -1c1,0 2,0 2,0 0,1 -1,1 -1,1zm-21 -20l0 0c-4,-2 -7,-6 -6,-11 0,-2 0,-3 1,-5l3 4c0,1 0,1 0,2 -1,4 0,8 2,10zm6 -1l0 0 7 10c-4,-2 -6,-4 -7,-8 0,0 0,-1 0,-2zm14 20l0 0c-4,0 -8,-2 -11,-5 -4,-3 -6,-8 -7,-13 -3,6 -3,14 2,18 5,4 12,5 17,1l-1 -1zm3 4l0 0 4 6c-3,-1 -5,-4 -6,-7 1,1 1,1 2,1z"/>
  <path class="fil1" d="M60 375c62,79 126,78 153,71 -4,7 -54,11 -91,-9 -21,-11 -60,-49 -62,-62z"/>
  <path class="fil5" d="M160 440c7,-9 14,-29 -19,-56 -10,42 8,54 19,56z"/>
  <path class="fil5" d="M97 403c10,-5 24,-21 5,-59 -26,34 -14,52 -5,59z"/>
  <path class="fil5" d="M68 403c-8,9 -26,19 -59,-9 40,-16 54,-1 59,9z"/>
  <path class="fil2" d="M118 438c-4,11 -18,27 -58,12 32,-29 51,-20 58,-12z"/>
  <path class="fil6" d="M12 359c0,5 2,11 6,15 8,8 20,10 30,4 9,4 21,2 28,-6 6,-5 9,-13 9,-21 8,-10 9,-25 0,-34l-1 0c-1,-5 -3,-10 -6,-14 -6,-6 -14,-8 -22,-7 -10,-5 -22,-4 -31,5 -4,3 -6,7 -7,12 -4,1 -7,3 -10,5 -10,11 -11,27 -1,37 1,1 3,3 5,4z"/>
  <path class="fil7" d="M60 304c3,-2 8,-3 12,-1 5,3 8,9 6,15 -1,-4 -4,-8 -9,-10 -3,-2 -5,-3 -8,-3l-1 -1zm23 33l0 0c1,-8 -4,-14 -12,-17l12 17zm-26 -31l0 0c1,-1 2,-2 3,-2l1 1c-2,0 -3,0 -4,1zm14 14l0 0 12 17c0,0 0,0 0,0 0,6 -4,11 -10,14l-2 -3c2,-3 4,-7 4,-11 1,-7 -1,-13 -4,-17 0,0 0,0 0,0zm-3 23l0 0c1,-5 -1,-11 -6,-14 1,2 2,5 2,8l4 6zm-19 -26l0 0 -2 -4c2,0 4,-1 6,-1 6,1 11,6 12,12 -3,-4 -8,-6 -13,-7 -1,0 -2,0 -3,0zm-6 -9l0 0c4,-1 8,-1 12,0 -4,-5 -11,-8 -17,-6l5 6zm-5 -6l0 0 5 6c-2,0 -4,1 -5,2 -1,0 -2,1 -3,2l-4 -7c1,-1 2,-1 3,-2 1,-1 3,-1 4,-1zm9 11l0 0 2 4c-3,0 -6,1 -8,2l-1 0c2,-3 4,-4 7,-6zm17 24l0 0 4 6 0 0c-1,3 -3,6 -5,7l-2 -2c1,-2 2,-4 2,-6 0,-2 1,-3 1,-5zm7 11l0 0 2 3c-2,0 -3,1 -5,1 1,-1 2,-3 3,-4zm3 18l0 0 -3 -5c1,-2 2,-4 3,-7 2,4 2,8 0,12zm-20 -28l0 0 -4 -5c1,0 2,1 3,1 1,2 1,3 1,4zm-23 -33l0 0 4 7c-2,1 -3,2 -5,4l-3 -5c1,-2 2,-4 4,-6zm9 14l0 0 1 0c-1,1 -1,1 -1,1 0,0 0,-1 0,-1zm10 14l0 0 4 5c0,2 0,4 -1,5 -1,0 -2,1 -3,1l-6 -9c0,0 0,-1 0,-1 2,-1 4,-2 6,-1zm11 15l0 0 2 2c-2,2 -4,3 -6,3l-1 -1c2,-1 4,-3 5,-4zm10 13l0 0 3 5c-1,2 -3,4 -4,5l-4 -5c2,-2 3,-3 5,-5zm-33 -34l0 0 -1 -2c1,-1 3,-1 5,-1 -1,1 -3,2 -4,3zm-11 -16l0 0 3 5c-2,2 -3,4 -4,7 -1,-4 -1,-9 1,-12zm10 14l0 0 1 2c-2,1 -5,4 -6,7 -1,2 -1,3 -1,5l-4 -5c0,-1 0,-1 1,-2 1,-4 5,-6 9,-7zm7 10l0 0 6 9c-2,1 -4,0 -6,-1 -2,-3 -2,-6 0,-8zm12 17l0 0 1 1c-1,0 -1,0 -2,0 1,0 1,0 1,-1zm10 14l0 0 4 5 -1 0c-5,4 -12,2 -17,-3 4,1 9,0 14,-2l0 0zm-15 2l0 0 -2 -4c3,0 7,-1 9,-3 -1,3 -4,5 -7,7zm-31 -44l0 0 -2 -3c2,0 4,-1 5,-1 -1,1 -2,2 -3,4zm-2 -3l0 0 2 3c-2,3 -4,7 -4,12 -1,6 1,12 4,16 -8,-2 -13,-9 -12,-17 0,-6 5,-11 10,-14zm9 13l0 0c-1,4 0,9 4,13 -1,-3 -1,-5 0,-8l-4 -5zm22 30l0 0 2 4c-2,0 -4,1 -6,0 -6,0 -10,-5 -12,-10 3,3 8,5 13,6 1,0 2,0 3,0zm-30 -4l0 0c-1,5 1,11 6,14 5,3 11,2 16,-2 -4,1 -9,0 -14,-2 -4,-3 -7,-7 -8,-10z"/>
  <path class="fil6" d="M400 463c7,8 11,18 11,29 0,20 -15,38 -35,44 -7,16 -24,28 -45,28 -15,0 -29,-7 -38,-17 -24,-3 -43,-22 -43,-46l0 -1c-6,-8 -9,-17 -9,-26 0,-16 8,-29 20,-38 6,-19 25,-33 47,-33 9,0 18,2 25,6 6,-2 13,-4 20,-4 26,0 48,21 48,46 0,4 0,8 -1,12z"/>
  <path class="fil7" d="M347 550l0 -12c5,-3 9,-6 12,-10 0,9 -5,17 -12,22zm0 -23l0 0c8,1 16,-2 21,-8 7,-9 7,-21 1,-30 1,8 -2,17 -8,25 -4,4 -9,7 -14,10l0 3zm0 -68l0 0 0 -10c8,5 12,14 12,23 -3,-5 -7,-9 -12,-13zm0 -31l0 0c6,2 12,5 18,9 9,8 14,18 15,28 7,-13 5,-29 -6,-39 -7,-6 -18,-8 -27,-5l0 7zm44 46l0 0c8,6 13,16 11,26 -3,11 -13,18 -23,18 6,-4 12,-11 14,-21 2,-8 1,-16 -2,-23zm-44 -53l0 0 0 7c-4,-1 -8,-1 -12,-1 4,-3 8,-5 12,-6zm0 28l0 0 0 10c-2,-1 -3,-2 -5,-2 -6,-3 -12,-4 -17,-3l0 -5c6,-3 13,-3 19,-1 1,1 2,1 3,1zm0 75l0 0 0 3c-2,0 -4,-1 -6,-2 2,0 4,-1 6,-1zm0 14l0 0 0 12c-2,1 -5,2 -8,3 -5,1 -10,0 -14,-2l0 -9c4,0 8,0 12,-1 3,0 7,-2 10,-3zm-22 -21l0 0 0 -5c4,0 7,0 10,-1 -3,3 -6,5 -10,6zm0 -23l0 0 0 -22c6,0 11,5 11,11 0,6 -5,11 -11,11zm0 -63l0 0 0 -8c4,3 7,6 10,11 -3,-2 -6,-3 -10,-3zm0 -8l0 0 0 8c-3,-1 -6,-1 -9,-1l0 -12c3,1 6,2 9,5zm0 26l0 0 0 5c-3,0 -6,1 -9,2 2,-3 6,-6 9,-7zm0 23l0 0 0 22 0 0c-4,0 -8,-2 -9,-6l0 -10c1,-3 5,-6 9,-6l0 0zm0 40l0 0 0 5c-3,1 -6,1 -9,1l0 -9c3,2 6,2 9,3zm0 30l0 0 0 9c-4,-1 -7,-4 -9,-7l0 -5c2,1 6,2 9,3zm-9 -16l0 0 0 -1c0,0 0,0 1,0 -1,1 -1,1 -1,1zm0 -108l0 0 0 12c-1,0 -1,0 -2,0l0 -13c1,0 1,0 2,1zm0 60l0 0 0 10c-1,-1 -2,-3 -2,-5 0,-2 1,-3 2,-5zm0 31l0 0 0 9c-1,-1 -1,-1 -2,-1l0 -8c1,0 1,0 2,0zm0 16l0 0 0 1c-1,1 -1,1 -2,1l0 -2c1,0 1,0 2,0zm0 14l0 0 0 5c-1,-1 -1,-1 -2,-2l0 -4c1,1 1,1 2,1zm-2 -122l0 0 0 13c-4,0 -7,0 -11,2 -2,0 -4,1 -7,2l0 -16c1,0 2,0 3,0 5,-2 10,-2 15,-1zm0 92l0 0 0 8c-3,0 -6,-1 -9,-3 -4,-3 -7,-6 -9,-11l0 -11c3,5 8,10 14,14 1,1 3,2 4,3zm0 16l0 0 0 2c-5,4 -11,6 -18,6l0 -12c6,3 12,4 18,4zm0 13l0 0 0 4c-1,-2 -2,-3 -3,-5 1,0 2,1 3,1zm-18 -82l0 0 0 -9c6,-1 11,-1 17,1 -6,1 -12,4 -17,8zm-24 -6l0 0c-1,0 -2,0 -2,0l0 2c0,-1 1,-1 2,-2zm24 -32l0 0 0 16c-8,4 -14,10 -18,17 -2,-14 6,-28 18,-33zm0 29l0 0c-4,2 -7,4 -10,7 -7,9 -8,21 -2,30 0,-8 3,-17 9,-24 1,-2 2,-3 3,-4l0 -9zm0 45l0 0 0 11c-2,-4 -2,-10 -1,-15 0,1 1,2 1,4zm0 29l0 0c-3,-1 -6,-4 -9,-6 -9,-8 -14,-18 -15,-28 -1,2 -2,3 -2,5l0 23c1,4 4,8 8,11 5,5 12,7 18,7l0 -12zm-26 -71l0 0c-10,1 -18,7 -21,17 -3,10 1,21 10,27 -3,-7 -4,-16 -1,-25 2,-7 6,-13 12,-17l0 -2zm0 42l0 0 0 23c-3,-7 -3,-16 0,-23z"/>
  <path class="fil1" d="M498 478c-48,-40 -87,-31 -102,-23 1,-5 31,-14 56,-7 14,4 43,22 46,30z"/>
  <path class="fil2" d="M441 454c-8,7 -19,24 6,55 17,-37 3,-51 -6,-55z"/>
  <path class="fil2" d="M449 443c-6,-9 -11,-28 21,-51 6,39 -11,49 -21,51z"/>
  <path class="fil3" d="M486 516c-4,-2 -8,-6 -10,-11 -3,-8 0,-18 7,-24 1,-8 6,-16 14,-20 7,-2 14,-2 19,1 11,-3 23,2 27,12l0 0c3,3 6,6 8,10 3,7 2,14 -2,19 1,9 -5,19 -14,22 -4,2 -8,2 -12,2 -2,2 -4,4 -7,5 -12,5 -24,0 -29,-11 0,-2 -1,-3 -1,-5z"/>
  <path class="fil4" d="M542 499c4,-2 7,-6 7,-11 0,-1 -1,-3 -2,-4l-2 3c0,1 0,1 0,2 0,4 -1,8 -3,10zm-29 27l0 0 4 -5c1,-1 2,-1 2,-1 -1,3 -3,5 -6,6zm7 -8l0 0 0 -1c4,0 9,-2 12,-5 4,-3 7,-8 7,-12 4,6 2,13 -3,18 -5,3 -11,3 -16,0zm9 -11l0 0c3,-1 5,-4 6,-7 1,-1 1,-2 1,-2l-7 9zm18 -23l0 0c-1,-3 -4,-5 -7,-6l0 0c2,2 4,6 5,9l2 -3zm-11 14l0 0 -7 9c-1,0 -3,0 -4,0 3,-1 5,-4 7,-8 1,-4 1,-7 0,-10l0 -1c3,2 4,6 4,10zm-16 19l0 0 0 1c-1,0 -1,-1 -2,-1 1,0 2,0 2,0zm-3 4l0 0 -4 5c-3,2 -7,2 -10,1 -1,0 -1,-1 -2,-1l5 -5c4,1 8,1 11,0zm-5 -9l0 0c5,0 9,-3 11,-8 -2,2 -4,3 -7,4l-4 4zm24 -28l0 0 0 0 0 0 0 0zm4 -6l0 0 0 0 0 0 0 0zm-4 6l0 0 0 0c-2,-3 -4,-5 -7,-7l4 -4c2,3 3,7 3,11zm-4 4l0 0 0 1c-1,-1 -1,-1 -1,-2 0,0 1,1 1,1zm-16 20l0 0 -4 4c0,0 0,0 0,0 -3,0 -6,-1 -8,-3l1 -2c2,1 4,1 7,1 1,0 3,0 4,0zm-10 13l0 0 -5 5c-3,-1 -5,-4 -6,-7l3 -3c2,2 4,4 7,5l1 0zm6 -22l0 0 6 -8c0,1 0,1 1,2 1,2 -1,5 -3,6 -2,1 -3,0 -4,0zm11 -14l0 0 1 -2c1,1 2,3 2,4 -1,-1 -2,-2 -3,-2zm10 -12l0 0 -4 4c-1,-1 -3,-2 -4,-2l-1 -1 5 -5c1,1 3,2 4,4zm-9 10l0 0 -1 2c-1,-1 -3,-2 -5,-3l2 -3c2,1 3,3 4,4zm-6 8l0 0 -6 8c-1,-1 -2,-2 -3,-3 0,-1 0,-2 0,-3l3 -3c0,0 0,0 0,0 2,-1 4,0 6,1zm-13 16l0 0 -1 2c-1,-1 -2,-3 -2,-4 1,1 2,2 3,2zm-7 9l0 0 -3 3c-1,-2 -1,-4 -1,-7l0 0c1,1 2,3 4,4zm31 -47l0 0 -5 5c-3,-1 -7,-1 -10,0l5 -6c2,-1 5,-1 8,0 0,0 1,1 2,1zm-9 10l0 0 -2 3c-1,0 -1,0 -1,0 -4,-1 -8,0 -11,2l4 -5c2,-1 4,-1 7,-1 1,0 2,1 3,1zm-8 11l0 0 -3 3c1,-1 1,-2 3,-3zm-18 22l0 0 0 0c0,0 0,0 0,-1l0 1zm-8 -3l0 0 0 -1c1,1 1,1 2,2 -1,-1 -2,-1 -2,-1zm8 -10l0 0 0 0c0,0 0,0 0,0 0,0 0,0 0,0zm25 -31l0 0 -5 6c-1,0 -3,1 -4,1 2,-3 5,-6 9,-7zm-9 11l0 0 -4 5c0,0 -1,0 -1,0 1,-2 3,-3 5,-5zm-16 20l0 0c-1,-4 -2,-7 0,-11 1,-4 3,-7 6,-9 0,0 -1,0 -1,0l-10 12c1,3 2,6 5,8l0 0zm-8 9l0 0 0 1c-3,-1 -5,-3 -6,-6l3 -4c0,1 0,1 0,1 0,3 2,6 3,8zm21 -39l0 0 1 -1c1,0 2,1 3,1 -2,0 -3,0 -4,0zm1 -1l0 0 -1 1c-3,0 -5,1 -8,3 -4,2 -6,6 -7,9 -2,-5 0,-11 4,-14 4,-2 9,-2 12,1zm-9 11l0 0c-4,1 -8,4 -9,8 -1,1 -1,3 -1,4l10 -12zm-16 20l0 0 -3 4c-1,-1 -1,-2 -1,-3 -1,-4 2,-9 6,-11 -2,2 -3,6 -2,10z"/>
  <path class="fil1" d="M600 385c-67,75 -131,70 -157,61 3,8 53,15 91,-2 22,-10 63,-46 66,-59z"/>
  <path class="fil5" d="M496 444c-7,-9 -12,-30 23,-55 7,43 -12,53 -23,55z"/>
  <path class="fil5" d="M562 411c-10,-6 -24,-22 -2,-60 24,37 11,54 2,60z"/>
  <path class="fil5" d="M591 413c6,9 24,21 59,-5 -39,-20 -54,-5 -59,5z"/>
  <path class="fil2" d="M538 445c3,11 16,28 57,15 -29,-31 -49,-23 -57,-15z"/>
  <path class="fil6" d="M649 372c0,6 -3,11 -7,15 -9,8 -21,8 -31,2 -9,3 -20,1 -27,-7 -6,-6 -8,-14 -7,-22 -8,-11 -8,-25 2,-34l0 -1c1,-4 4,-9 8,-13 6,-5 14,-7 22,-5 10,-5 22,-3 31,6 3,4 5,8 6,13 3,1 6,3 9,6 10,11 10,27 -1,36 -1,2 -3,3 -5,4z"/>
  <path class="fil7" d="M609 378l3 -3c1,0 2,0 3,0 5,0 9,-2 13,-6 -2,6 -7,10 -13,11 -2,0 -4,-1 -6,-2zm22 -27l0 0 4 -5c1,5 -1,10 -4,13 1,-2 1,-5 0,-8zm12 -14l0 0c2,3 3,7 4,12 0,6 -2,12 -6,16 8,-2 14,-9 14,-17 -1,-6 -5,-11 -10,-14l-2 3zm-1 36l0 0c0,5 -2,11 -7,13 -5,3 -12,2 -16,-2 4,1 9,0 14,-2 4,-2 7,-6 9,-9zm3 -39l0 0 -2 3c-1,-2 -2,-3 -3,-4 2,0 3,1 5,1zm-10 12l0 0 -4 5c0,-2 0,-3 -1,-5 -1,-3 -3,-6 -5,-8l1 -2c4,2 7,4 9,8 0,1 0,2 0,2zm-23 29l0 0 -3 3c-3,-1 -5,-4 -6,-7 2,2 5,3 9,4zm-21 6l0 0 4 -6 0 0c4,4 9,5 13,4 -5,5 -12,6 -17,2l0 0zm13 -18l0 0 1 0c0,0 1,1 1,1 0,0 -1,0 -2,-1zm7 -8l0 0 7 -9c2,2 2,6 0,8 -2,1 -5,2 -7,1zm22 -27l0 0 4 -5c1,4 1,8 0,12 -1,-2 -2,-5 -4,-7zm4 -5l0 0 -4 5c-1,-2 -3,-3 -4,-5l5 -6c1,2 2,4 3,6zm-11 13l0 0 -1 2c-1,-1 -3,-2 -4,-2 2,0 4,0 5,0zm-8 10l0 0 -7 9c0,0 -1,-1 -2,-1 -1,-2 -1,-3 -1,-5l4 -5c2,-1 5,0 6,2 0,0 0,0 0,0zm-13 17l0 0 -1 0c-2,0 -4,-1 -5,-2l2 -3c1,2 2,4 4,5zm-10 12l0 0 -4 6c-2,-2 -3,-4 -4,-6l3 -4c1,2 3,3 5,4zm28 -44l0 0 0 0c0,0 0,0 0,1 0,-1 0,-1 0,-1zm11 -14l0 0 -5 6c-1,0 -2,-1 -3,-1 -1,-1 -3,-2 -5,-3l5 -6c2,1 3,1 4,2 2,1 3,2 4,2zm-11 14l0 0 0 0c-3,-2 -6,-3 -9,-3l3 -3c3,1 5,3 6,6zm-11 13l0 0 -4 5c0,-1 1,-3 2,-4 0,0 1,-1 2,-1zm-11 14l0 0 -2 3c-3,-2 -4,-5 -5,-8l0 0 5 -6c0,2 0,3 0,5 0,2 1,4 2,6zm-11 13l0 0 -3 4c-2,-3 -2,-8 0,-11 1,2 2,5 3,7zm-2 -11l0 0 2 -3c1,2 3,4 4,5 -2,-1 -4,-1 -6,-2zm19 -44l0 0c0,-1 -1,-1 -2,-2l-2 2c2,0 3,0 4,0zm19 -3l0 0 -5 6c-4,-1 -8,-1 -12,0 5,-5 11,-7 17,-6zm-9 12l0 0c-2,-1 -4,-2 -6,-2 -6,0 -11,5 -13,11 4,-4 8,-6 13,-6 1,0 2,0 3,0l3 -3zm-18 22l0 0 -5 6c-1,-6 2,-11 7,-14 -2,3 -2,5 -2,8zm-9 10l0 0c-2,-3 -3,-7 -3,-11 0,-6 2,-12 6,-16 -1,0 -1,0 -1,0l-13 16c0,0 0,0 0,0 0,6 4,11 9,14l2 -3zm15 -43l0 0c-4,-2 -8,-3 -12,-1 -6,3 -9,8 -8,14 2,-4 5,-8 10,-10 3,-1 6,-2 8,-1l2 -2zm-13 16l0 0 -13 16c0,-8 6,-14 13,-16z"/>
 </g>
</svg>
