<?xml version="1.0" encoding="UTF-8"?>
<!DOCTYPE svg PUBLIC "-//W3C//DTD SVG 1.1//EN" "http://www.w3.org/Graphics/SVG/1.1/DTD/svg11.dtd">
<!-- Creator: CorelDRAW X7 -->
<svg xmlns="http://www.w3.org/2000/svg" xml:space="preserve" width="0.388791in" height="0.515965in" version="1.1" style="shape-rendering:geometricPrecision; text-rendering:geometricPrecision; image-rendering:optimizeQuality; fill-rule:evenodd; clip-rule:evenodd"
viewBox="0 0 224 297"
 xmlns:xlink="http://www.w3.org/1999/xlink">
 <defs>
  <style type="text/css">
   <![CDATA[
    .fil1 {fill:#585047;fill-rule:nonzero}
    .fil0 {fill:url(#id0);fill-rule:nonzero}
   ]]>
  </style>
  <radialGradient id="id0" gradientUnits="userSpaceOnUse" gradientTransform="matrix(1.32313 -0 -0 1.32312 -18 -26)" cx="55.8955" cy="80.112" r="148.36" fx="55.8955" fy="80.112">
   <stop offset="0" style="stop-opacity:1; stop-color:#F8E8CB"/>
   <stop offset="0.360784" style="stop-opacity:1; stop-color:#E0CCB0"/>
   <stop offset="1" style="stop-opacity:1; stop-color:#7C7465"/>
  </radialGradient>
 </defs>
 <g id="__x0023_Layer_x0020_1">
  <metadata id="CorelCorpID_0Corel-Layer"/>
  <path class="fil0" d="M112 297c-179,-8 -116,-295 0,-297 116,2 179,289 0,297z"/>
  <path class="fil1" d="M63 125c5,1 9,-3 10,-7 2,-5 0,-10 -4,-13 -1,-1 -1,-1 -2,-1 -11,1 -16,19 -4,21z"/>
  <path class="fil1" d="M140 104c-1,0 -2,0 -3,1 0,-1 -1,-1 -2,-1 -8,4 -10,18 -1,21 5,1 9,-3 10,-7 2,-5 0,-11 -4,-14z"/>
  <path class="fil1" d="M62 97c5,1 9,4 11,10 1,3 5,1 4,-2 -2,-7 -7,-11 -14,-13 -3,-1 -4,4 -1,5z"/>
  <path class="fil1" d="M128 109c3,-5 8,-8 14,-9 3,-1 2,-5 -1,-5 -7,1 -13,6 -17,11 -2,3 2,5 4,3z"/>
  <path class="fil1" d="M146 205c-33,-6 -66,-13 -98,-22 -2,-1 -4,3 -1,4 32,10 65,17 98,22 3,1 4,-4 1,-4z"/>
 </g>
</svg>
