<?xml version="1.0" encoding="UTF-8"?>
<!DOCTYPE svg PUBLIC "-//W3C//DTD SVG 1.1//EN" "http://www.w3.org/Graphics/SVG/1.1/DTD/svg11.dtd">
<!-- Creator: CorelDRAW X7 -->
<svg xmlns="http://www.w3.org/2000/svg" xml:space="preserve" width="2.02351in" height="2.24994in" version="1.1" style="shape-rendering:geometricPrecision; text-rendering:geometricPrecision; image-rendering:optimizeQuality; fill-rule:evenodd; clip-rule:evenodd"
viewBox="0 0 2518 2799"
 xmlns:xlink="http://www.w3.org/1999/xlink">
 <defs>
  <style type="text/css">
   <![CDATA[
    .fil0 {fill:#979797}
    .fil2 {fill:#FDD15B}
    .fil1 {fill:#F68E00;fill-rule:nonzero}
    .fil3 {fill:url(#id0)}
   ]]>
  </style>
  <radialGradient id="id0" gradientUnits="userSpaceOnUse" gradientTransform="matrix(-1.68121 -2.05889E-016 2.05889E-016 -1.68121 3344 4030)" cx="1247.28" cy="1502.93" r="1247.28" fx="1247.28" fy="1502.93">
   <stop offset="0" style="stop-opacity:1; stop-color:white"/>
   <stop offset="1" style="stop-opacity:1; stop-color:#CFCFCF"/>
  </radialGradient>
 </defs>
 <g id="OBJECTS">
  <metadata id="CorelCorpID_0Corel-Layer"/>
  <polygon class="fil0" points="2518,1157 2179,1035 1802,849 1604,1176 1308,764 939,1363 669,869 378,1126 37,1118 711,2185 2254,2132 "/>
  <path class="fil1" d="M834 747c5,18 23,29 41,24 18,-4 29,-22 24,-40 -26,-107 -68,-232 -125,-347 -46,-93 -102,-180 -169,-244 -13,-13 -35,-13 -47,1 -13,13 -13,34 1,47 60,59 112,139 156,226 54,109 94,230 119,333z"/>
  <path class="fil1" d="M588 196c13,-2 23,-12 26,-26 4,-18 -7,-35 -26,-39 -36,-8 -79,-20 -123,-39 -42,-19 -85,-45 -120,-82 -13,-13 -34,-13 -47,-1 -14,13 -14,34 -1,47 36,38 77,66 119,87 -39,-3 -79,-11 -118,-28 -16,-7 -36,1 -43,18 -8,17 0,36 17,43 48,21 97,31 143,34 -36,12 -76,20 -119,20 -18,0 -33,15 -33,33 0,19 15,34 33,34 61,0 118,-14 168,-34 48,-20 91,-44 124,-67z"/>
  <path class="fil2" d="M981 964c126,-49 190,-191 141,-317 -49,-127 -190,-190 -317,-142 -127,49 -190,191 -141,317 48,127 190,190 317,142z"/>
  <path class="fil2" d="M1251 2396c-502,0 -909,-407 -909,-910 0,-502 407,-909 909,-909 502,0 909,407 909,909 0,503 -407,910 -909,910z"/>
  <path class="fil3" d="M8 1093c-5,63 -8,127 -8,191 0,901 558,1515 1247,1515 689,0 1248,-614 1248,-1515 0,-48 -2,-96 -5,-143l-147 307 -293 -501 -151 324 -239 -243 -228 376 -319 -120 -407 334 -152 -463 -206 330 -340 -392z"/>
  <polygon class="fil0" points="757,2330 670,2071 762,1788 706,1618 554,1155 731,1788 645,2071 "/>
  <path class="fil1" d="M1701 824c-5,18 -23,29 -41,24 -18,-4 -29,-22 -24,-40 26,-107 68,-232 125,-347 46,-93 102,-180 169,-244 13,-13 34,-13 47,1 13,13 13,34 -1,47 -60,58 -113,139 -156,226 -54,109 -94,230 -119,333z"/>
  <path class="fil1" d="M1947 273c-13,-3 -23,-12 -26,-26 -4,-18 7,-35 25,-39 37,-8 80,-20 124,-39 42,-19 85,-45 120,-82 13,-13 34,-14 47,-1 13,13 14,34 1,47 -36,38 -77,65 -119,86 39,-2 79,-11 117,-27 17,-7 37,1 44,18 8,16 0,36 -17,43 -48,21 -97,30 -144,33 37,13 77,21 119,21 19,0 34,15 34,33 0,18 -15,33 -33,33 -61,1 -118,-13 -168,-33 -49,-20 -91,-45 -124,-67z"/>
  <path class="fil2" d="M1554 1041c-126,-49 -190,-191 -141,-317 48,-127 190,-190 317,-142 127,49 190,191 141,317 -48,127 -190,190 -317,142z"/>
 </g>
</svg>
