<?xml version="1.0" encoding="UTF-8"?>
<!DOCTYPE svg PUBLIC "-//W3C//DTD SVG 1.1//EN" "http://www.w3.org/Graphics/SVG/1.1/DTD/svg11.dtd">
<!-- Creator: CorelDRAW X7 -->
<svg xmlns="http://www.w3.org/2000/svg" xml:space="preserve" width="4.18406in" height="3.98884in" version="1.1" style="shape-rendering:geometricPrecision; text-rendering:geometricPrecision; image-rendering:optimizeQuality; fill-rule:evenodd; clip-rule:evenodd"
viewBox="0 0 1951 1860"
 xmlns:xlink="http://www.w3.org/1999/xlink">
 <defs>
  <style type="text/css">
   <![CDATA[
    .fil2 {fill:#937562;fill-rule:nonzero}
    .fil0 {fill:#E29A69;fill-rule:nonzero}
    .fil1 {fill:#E9AE85;fill-rule:nonzero}
    .fil3 {fill:#FFD8BC;fill-rule:nonzero;fill-opacity:0.501961}
   ]]>
  </style>
 </defs>
 <g id="__x0023_Layer_x0020_1">
  <metadata id="CorelCorpID_0Corel-Layer"/>
  <path class="fil0" d="M1616 85l-1252 0c-161,0 -306,109 -306,270l0 4c0,141 123,259 240,285l0 1151 1380 0 0 -1156c136,-33 207,-146 207,-280l0 -4c0,-161 -109,-270 -269,-270z"/>
  <path class="fil1" d="M1675 53l-1094 -1c-160,0 -309,-26 -309,134l0 61c0,141 110,202 227,228l0 1366 1147 0 25 -1251c131,-33 162,-311 162,-445l-158 -92z"/>
  <path class="fil2" d="M1600 1c-337,0 -662,0 -1001,0 -145,0 -300,-15 -431,58 -288,158 -175,568 110,646 -16,-21 -51,-40 -51,-61 0,382 0,764 0,1146 0,35 35,70 71,70 461,0 922,0 1384,0 36,0 54,-35 54,-70 0,-384 0,-767 0,-1151 0,21 -26,42 -43,63 386,-111 322,-677 -80,-693 -85,-4 -83,128 1,131 256,10 283,366 41,436 -28,8 -55,34 -55,63 0,384 0,767 0,1151 45,-22 60,-33 82,-66 -462,0 -923,0 -1384,0 22,33 32,44 71,66 0,-382 0,-764 0,-1146 0,-29 -23,-56 -51,-64 -144,-39 -233,-194 -158,-331 43,-80 136,-112 221,-112 127,0 254,0 381,0 285,0 566,0 838,0 91,0 91,-136 0,-136z"/>
  <path class="fil2" d="M1246 593c0,40 -33,72 -72,72 -40,0 -72,-32 -72,-72 0,-40 32,-72 72,-72 39,0 72,32 72,72z"/>
  <path class="fil2" d="M983 968c0,40 -32,72 -72,72 -39,0 -72,-32 -72,-72 0,-40 33,-72 72,-72 40,0 72,32 72,72z"/>
  <path class="fil2" d="M1358 1193c0,40 -32,72 -72,72 -39,0 -72,-32 -72,-72 0,-40 33,-72 72,-72 40,0 72,32 72,72z"/>
  <path class="fil2" d="M796 555c0,40 -33,72 -72,72 -40,0 -72,-32 -72,-72 0,-39 32,-71 72,-71 39,0 72,32 72,71z"/>
  <path class="fil2" d="M871 1399c0,40 -33,72 -72,72 -40,0 -72,-32 -72,-72 0,-40 32,-72 72,-72 39,0 72,32 72,72z"/>
  <path class="fil3" d="M1589 319c-5,80 -72,106 -140,123 -29,8 -50,35 -50,64 0,371 0,739 0,1115 0,84 130,84 130,0 0,-376 0,-744 0,-1115 -26,21 -30,42 -46,63 131,-33 227,-109 236,-250 6,-84 -124,-84 -130,0z"/>
 </g>
</svg>
