<?xml version="1.0" encoding="UTF-8"?>
<!DOCTYPE svg PUBLIC "-//W3C//DTD SVG 1.1//EN" "http://www.w3.org/Graphics/SVG/1.1/DTD/svg11.dtd">
<!-- Creator: CorelDRAW X7 -->
<svg xmlns="http://www.w3.org/2000/svg" xml:space="preserve" width="0.809488in" height="0.663689in" version="1.1" style="shape-rendering:geometricPrecision; text-rendering:geometricPrecision; image-rendering:optimizeQuality; fill-rule:evenodd; clip-rule:evenodd"
viewBox="0 0 115 94"
 xmlns:xlink="http://www.w3.org/1999/xlink">
 <defs>
  <style type="text/css">
   <![CDATA[
    .fil0 {fill:#EEF2F4}
    .fil1 {fill:#E9F0F4}
   ]]>
  </style>
 </defs>
 <g id="Layer_x0020_1">
  <metadata id="CorelCorpID_0Corel-Layer"/>
  <path class="fil0" d="M18 85c4,1 3,5 7,6 6,1 10,-2 14,-4 3,-1 7,-3 9,0 3,3 9,7 14,3 1,-2 5,-5 7,-3 1,2 1,4 4,4 3,1 6,-1 8,-3 1,-1 1,0 1,0 -1,1 -1,1 -2,2 2,2 6,3 8,2 2,-1 3,-2 5,-3 1,-1 3,-2 5,-1 2,0 5,1 8,0 3,-2 7,-8 6,-12 -2,-4 -5,-8 -3,-12 2,-4 6,-9 2,-14 -2,-2 -5,-4 -5,-7 1,-4 4,-7 5,-10 1,-4 1,-8 -2,-10 0,0 0,0 0,0 0,1 -1,1 -1,0 0,0 0,-1 -1,-1 0,0 0,-1 0,-1 0,-2 0,-5 -3,-7 -2,-2 -4,-1 -7,0 -3,0 -5,-1 -7,-4 -4,-9 -15,7 -20,-2 -1,-2 -1,-4 -4,-4 -3,0 -5,2 -8,3 -4,2 -6,1 -9,-2 -2,-1 -4,-4 -6,-4 -2,0 -4,2 -6,3 -2,1 -4,3 -6,3 0,1 0,1 0,1 1,0 1,1 0,1 -5,-1 -10,-4 -14,-2 -5,1 -9,6 -8,11 0,2 1,4 0,6 -1,1 -2,2 -3,4 -1,3 -6,8 -4,12 1,3 4,3 5,4 2,2 2,5 1,7 -1,4 -4,7 -5,10 -1,2 -1,4 -1,6 1,3 3,4 5,5 0,0 1,0 1,-1 0,0 1,1 1,1 -3,2 -5,9 -3,12 3,5 8,-1 12,1z"/>
  <path class="fil1" d="M6 84c-2,-3 0,-10 3,-12 0,0 -1,-1 -1,-1 0,1 -1,1 -1,1 -2,-1 -4,-2 -5,-5 0,-2 0,-4 1,-6 1,-3 4,-6 5,-10 1,-2 1,-5 -1,-7 -1,-1 -4,-1 -5,-4 -2,-4 2,-9 4,-12 1,-2 2,-3 3,-4 1,-2 0,-4 0,-6 -1,-5 3,-10 8,-11 4,-2 9,1 14,2 1,0 1,-1 0,-1 0,0 0,0 0,-1 2,0 4,-2 6,-3 2,-1 4,-3 6,-3 2,0 4,3 6,4 3,3 5,4 9,2 3,-1 5,-3 8,-3 3,0 3,2 4,4 5,9 16,-7 20,2 2,3 4,4 7,4 3,-1 5,-2 7,0 3,2 3,5 3,7 0,0 0,1 0,1 1,0 1,1 1,1 0,1 1,1 1,0 0,0 0,0 0,0 3,2 3,6 2,10 -1,3 -4,6 -5,10 0,3 3,5 5,7 5,5 0,10 -2,14 -2,4 1,8 3,12 1,4 -3,10 -6,12 -3,1 -6,0 -8,0 -2,-1 -4,0 -5,1 -2,1 -3,2 -5,3 -2,1 -6,0 -8,-2 1,-1 1,-1 2,-2 0,0 0,-1 -1,0 -2,2 -5,4 -8,3 -3,0 -3,-2 -4,-4 -2,-2 -6,1 -7,3 -5,4 -11,0 -14,-3 -2,-3 -6,-1 -9,0 -4,2 -8,5 -14,4 -4,-1 -3,-5 -7,-6 -4,-2 -9,4 -12,-1zm16 7c2,3 8,2 11,1 3,-1 11,-7 14,-4 3,4 8,5 12,5 2,-1 4,-2 5,-4 2,-1 4,-1 4,0 1,1 1,2 2,2 3,3 7,2 10,-1 1,3 5,5 9,3 1,0 3,-2 5,-3 2,-2 6,0 9,0 5,1 8,-4 9,-8 3,-5 0,-9 -2,-13 -2,-6 6,-10 4,-16 -1,-5 -7,-6 -6,-11 1,-3 3,-5 4,-7 1,-2 1,-4 1,-6 1,-3 -1,-7 -4,-8 -1,-4 -2,-9 -6,-10 -3,-1 -8,4 -11,-1 -1,-3 -3,-5 -7,-4 -4,1 -11,7 -14,1 -1,-4 -4,-5 -8,-4 -2,1 -4,2 -7,3 -3,1 -5,0 -7,-2 -2,-3 -5,-5 -9,-4 -4,2 -7,6 -12,7 -3,-2 -7,-3 -11,-2 -4,0 -7,4 -9,7 -1,2 -1,4 -1,6 0,0 0,1 1,2 0,2 -1,4 -2,6 -3,3 -5,8 -6,12 0,3 1,5 4,6 2,1 3,2 3,4 0,2 -1,5 -2,7 -2,3 -4,7 -4,11 -1,3 2,6 5,7 -3,5 -3,14 4,15 2,0 4,-1 6,-2 3,0 4,3 6,5z"/>
 </g>
</svg>
