<?xml version="1.0" encoding="UTF-8"?>
<!DOCTYPE svg PUBLIC "-//W3C//DTD SVG 1.1//EN" "http://www.w3.org/Graphics/SVG/1.1/DTD/svg11.dtd">
<!-- Creator: CorelDRAW X7 -->
<svg xmlns="http://www.w3.org/2000/svg" xml:space="preserve" width="0.809492in" height="0.663689in" version="1.1" style="shape-rendering:geometricPrecision; text-rendering:geometricPrecision; image-rendering:optimizeQuality; fill-rule:evenodd; clip-rule:evenodd"
viewBox="0 0 217 178"
 xmlns:xlink="http://www.w3.org/1999/xlink">
 <defs>
  <style type="text/css">
   <![CDATA[
    .fil0 {fill:#FFF1D5}
    .fil1 {fill:#F2D5B1}
   ]]>
  </style>
 </defs>
 <g id="Layer_x0020_1">
  <metadata id="CorelCorpID_0Corel-Layer"/>
  <path class="fil0" d="M35 160c6,2 6,11 13,12 10,2 17,-4 27,-8 4,-1 12,-5 16,-1 6,8 17,14 25,6 3,-2 10,-9 14,-5 3,3 3,7 8,8 6,1 11,-3 15,-7 1,0 2,1 1,2 0,1 -1,2 -2,3 3,3 10,6 15,3 3,-1 5,-4 8,-6 3,-1 6,-2 9,-1 5,0 11,3 15,0 7,-3 14,-15 12,-23 -3,-7 -9,-14 -5,-22 3,-8 12,-18 4,-26 -4,-4 -10,-8 -9,-14 1,-8 7,-12 9,-19 2,-7 2,-15 -4,-19 -1,0 -1,1 -1,1 0,2 -2,2 -2,0 0,-1 0,-2 0,-3 0,0 0,0 0,-1 -1,-5 -2,-10 -6,-14 -4,-4 -8,-1 -13,0 -6,1 -10,-1 -13,-7 -8,-17 -30,14 -38,-4 -2,-4 -4,-8 -9,-7 -5,0 -9,3 -14,5 -7,3 -13,2 -18,-3 -3,-3 -6,-7 -11,-7 -4,0 -8,2 -11,5 -4,2 -8,5 -12,6 0,0 1,1 1,1 2,1 1,2 0,2 -9,-2 -19,-7 -28,-4 -8,2 -17,12 -15,21 1,4 2,7 1,11 -1,3 -4,5 -5,8 -4,5 -11,16 -9,23 2,4 8,5 11,8 3,3 2,9 1,13 -3,6 -7,12 -9,18 -1,4 -3,8 -1,12 1,5 4,7 8,10 0,-1 1,-2 2,-3 1,0 2,1 1,2 -4,5 -8,16 -4,22 6,10 15,0 23,2z"/>
  <path class="fil1" d="M12 158c-4,-6 0,-17 4,-22 1,-1 0,-2 -1,-2 -1,1 -2,2 -2,3 -4,-3 -7,-5 -8,-10 -2,-4 0,-8 1,-12 2,-6 6,-12 9,-18 1,-4 2,-10 -1,-13 -3,-3 -9,-4 -11,-8 -2,-7 5,-18 9,-23 1,-3 4,-5 5,-8 1,-4 0,-7 -1,-11 -2,-9 7,-19 15,-21 9,-3 19,2 28,4 1,0 2,-1 0,-2 0,0 -1,-1 -1,-1 4,-1 8,-4 12,-6 3,-3 7,-5 11,-5 5,0 8,4 11,7 5,5 11,6 18,3 5,-2 9,-5 14,-5 5,-1 7,3 9,7 8,18 30,-13 38,4 3,6 7,8 13,7 5,-1 9,-4 13,0 4,4 5,9 6,14 0,1 0,1 0,1 0,1 0,2 0,3 0,2 2,2 2,0 0,0 0,-1 1,-1 6,4 6,12 4,19 -2,7 -8,11 -9,19 -1,6 5,10 9,14 8,8 -1,18 -4,26 -4,8 2,15 5,22 2,8 -5,20 -12,23 -4,3 -10,0 -15,0 -3,-1 -6,0 -9,1 -3,2 -5,5 -8,6 -5,3 -12,0 -15,-3 1,-1 2,-2 2,-3 1,-1 0,-2 -1,-2 -4,4 -9,8 -15,7 -5,-1 -5,-5 -8,-8 -4,-4 -11,3 -14,5 -8,8 -19,2 -25,-6 -4,-4 -12,0 -16,1 -10,4 -17,10 -27,8 -7,-1 -7,-10 -13,-12 -8,-2 -17,8 -23,-2zm29 13c5,6 15,5 21,3 7,-3 22,-14 27,-7 6,7 14,10 23,8 4,-1 7,-4 10,-7 2,-2 5,-3 7,1 1,1 2,2 3,3 6,6 13,3 18,-1 4,5 11,8 17,5 4,-1 6,-4 10,-6 5,-3 12,0 17,0 9,1 15,-8 18,-15 5,-10 -1,-16 -4,-25 -3,-11 11,-19 8,-30 -2,-9 -14,-12 -11,-21 1,-5 4,-9 7,-12 1,-4 2,-8 2,-11 1,-7 -2,-14 -9,-17 0,-7 -3,-15 -10,-18 -7,-2 -16,7 -21,-1 -3,-6 -6,-11 -14,-9 -8,2 -20,13 -25,2 -3,-7 -8,-9 -15,-7 -5,1 -9,4 -14,5 -5,2 -9,0 -13,-4 -4,-5 -10,-9 -17,-6 -8,3 -14,11 -23,11 -6,-2 -14,-4 -21,-3 -7,1 -13,7 -17,14 -1,3 -2,7 -2,10 0,2 1,4 1,5 1,4 -1,7 -3,10 -5,7 -10,16 -11,24 -1,6 3,9 7,11 4,2 6,3 6,8 0,4 -2,8 -4,12 -4,7 -8,13 -8,21 0,7 4,12 10,15 -6,9 -5,26 8,27 4,0 8,-2 12,-3 6,-1 7,5 10,8z"/>
 </g>
</svg>
