<?xml version="1.0" encoding="UTF-8"?>
<!DOCTYPE svg PUBLIC "-//W3C//DTD SVG 1.1//EN" "http://www.w3.org/Graphics/SVG/1.1/DTD/svg11.dtd">
<!-- Creator: CorelDRAW X7 -->
<svg xmlns="http://www.w3.org/2000/svg" xml:space="preserve" width="1.93304in" height="3.26463in" version="1.1" style="shape-rendering:geometricPrecision; text-rendering:geometricPrecision; image-rendering:optimizeQuality; fill-rule:evenodd; clip-rule:evenodd"
viewBox="0 0 503 849"
 xmlns:xlink="http://www.w3.org/1999/xlink">
 <defs>
  <style type="text/css">
   <![CDATA[
    .fil2 {fill:url(#id0)}
    .fil1 {fill:url(#id1)}
    .fil0 {fill:url(#id2);fill-rule:nonzero}
   ]]>
  </style>
  <linearGradient id="id0" gradientUnits="userSpaceOnUse" x1="195.684" y1="-1150.21" x2="313.407" y2="2220.91">
   <stop offset="0" style="stop-opacity:1; stop-color:#F4891F"/>
   <stop offset="1" style="stop-opacity:1; stop-color:#FFCA05"/>
  </linearGradient>
  <linearGradient id="id1" gradientUnits="userSpaceOnUse" x1="227.575" y1="168.105" x2="275.961" y2="1091.38">
   <stop offset="0" style="stop-opacity:1; stop-color:#FFCA05"/>
   <stop offset="1" style="stop-opacity:1; stop-color:#F4891F"/>
  </linearGradient>
  <radialGradient id="id2" gradientUnits="userSpaceOnUse" gradientTransform="matrix(1.76658 -0 -0 1.76658 -339 -95)" cx="441.762" cy="123.314" r="184.972" fx="441.762" fy="123.314">
   <stop offset="0" style="stop-opacity:1; stop-color:#FFDDB6"/>
   <stop offset="0.521569" style="stop-opacity:1; stop-color:#EDB16B"/>
   <stop offset="1" style="stop-opacity:1; stop-color:#CC8A5D"/>
  </radialGradient>
 </defs>
 <g id="FreeVector_x0020_Graphics">
  <metadata id="CorelCorpID_0Corel-Layer"/>
  <path class="fil0" d="M269 0c128,6 224,222 219,362 0,14 -2,27 -4,41l0 0c-11,53 -115,69 -224,71 -90,1 -234,-18 -234,-82l-1 1c-1,-14 -2,-28 -1,-41 3,-141 116,-352 245,-352z"/>
  <path class="fil1" d="M26 392c0,0 -21,12 -24,33 -11,71 25,193 79,241 11,9 22,18 29,24 43,37 -14,52 -27,91 -5,15 -3,38 21,48 65,26 188,24 258,8 18,-4 29,-11 35,-17 18,-21 -9,-61 -21,-77 -7,-10 -13,-28 -4,-36 59,-56 117,-103 127,-191 4,-37 6,-85 0,-95 -6,-9 -15,-18 -15,-18 0,0 -3,10 -8,17 -5,8 -20,34 -70,44 -84,15 -262,16 -335,-21 -15,-7 -39,-18 -42,-34 -4,-16 -3,-17 -3,-17z"/>
  <path class="fil2" d="M260 474c109,-2 213,-18 224,-71 12,8 15,14 15,22 0,33 -104,57 -235,57 -131,0 -260,-29 -260,-62 0,-10 6,-18 22,-28 0,64 144,83 234,82z"/>
 </g>
</svg>
