<?xml version="1.0" encoding="UTF-8"?>
<!DOCTYPE svg PUBLIC "-//W3C//DTD SVG 1.1//EN" "http://www.w3.org/Graphics/SVG/1.1/DTD/svg11.dtd">
<!-- Creator: CorelDRAW X7 -->
<svg xmlns="http://www.w3.org/2000/svg" xml:space="preserve" width="0.793425in" height="0.515232in" version="1.1" style="shape-rendering:geometricPrecision; text-rendering:geometricPrecision; image-rendering:optimizeQuality; fill-rule:evenodd; clip-rule:evenodd"
viewBox="0 0 91 59"
 xmlns:xlink="http://www.w3.org/1999/xlink">
 <defs>
  <style type="text/css">
   <![CDATA[
    .fil0 {fill:#FADE54}
    .fil1 {fill:#D9B339}
   ]]>
  </style>
 </defs>
 <g id="Layer_x0020_1">
  <metadata id="CorelCorpID_0Corel-Layer"/>
  <path class="fil0" d="M46 15c0,1 0,1 0,1 -1,0 -1,0 -1,0 0,0 0,0 0,0 0,0 0,0 0,0 -1,0 -1,0 -1,-1 0,0 0,-1 1,-1 0,0 1,1 1,1zm-3 -5c0,0 0,-1 0,-1 0,0 1,0 1,0 0,0 0,0 0,0 0,1 0,1 0,1 0,0 0,0 0,0 0,0 0,0 0,0 0,0 0,0 0,0 0,1 -1,1 -1,0zm0 4c-1,0 -1,0 -1,0 0,0 0,0 0,0 0,0 0,0 0,0 0,0 -1,0 -1,-1 1,0 1,0 1,0 1,0 1,0 1,0 0,1 0,1 0,1zm-1 4c0,0 -1,0 -1,0 -1,0 -1,-1 -1,-2 1,-1 2,-1 2,0 0,0 0,0 0,1 0,0 0,0 0,0 0,0 0,1 0,1zm-2 -6c0,1 -1,1 -1,0 -1,0 -1,-1 0,-1 0,-1 1,-1 1,0 0,0 0,1 0,1zm-2 6c0,0 0,0 -1,0 0,0 0,0 0,0 -1,0 -1,-1 0,-2 0,0 0,0 0,0 1,0 1,0 1,1 1,0 1,0 0,1zm7 -17c-7,-2 -14,6 -15,13 -1,7 4,13 11,12 5,0 9,-5 10,-10 1,-2 1,-5 0,-7 -1,-2 -2,-3 -3,-5 -1,0 -2,-1 -3,-2 0,-1 0,-1 0,-1z"/>
  <path class="fil1" d="M48 4c1,2 2,3 3,5 1,2 1,5 0,7 -1,5 -5,10 -10,10 -7,1 -12,-5 -11,-12 1,-7 8,-15 15,-13 0,0 0,0 0,1 1,1 2,2 3,2zm-19 8c-2,7 2,14 10,15 6,2 11,-3 13,-8 1,-3 1,-6 0,-9 0,-1 0,-3 -1,-4 -1,-2 -3,-3 -5,-5 0,0 0,0 0,0 -8,-4 -15,5 -17,11z"/>
  <path class="fil1" d="M39 11c-1,0 -1,1 0,1 0,1 1,1 1,0 0,0 0,-1 0,-1 0,-1 -1,-1 -1,0z"/>
  <path class="fil1" d="M44 10c0,0 0,0 0,0 0,0 0,0 0,0 0,0 0,0 0,0 0,0 0,0 0,-1 0,0 0,0 0,0 0,0 -1,0 -1,0 0,0 0,1 0,1 0,1 1,1 1,0z"/>
  <path class="fil1" d="M37 16c0,0 0,0 0,0 -1,1 -1,2 0,2 0,0 0,0 0,0 1,0 1,0 1,0 1,-1 1,-1 0,-1 0,-1 0,-1 -1,-1z"/>
  <path class="fil1" d="M42 17c0,-1 0,-1 0,-1 0,-1 -1,-1 -2,0 0,1 0,2 1,2 0,0 1,0 1,0 0,0 0,-1 0,-1 0,0 0,0 0,0z"/>
  <path class="fil1" d="M42 13c0,0 0,0 -1,0 0,1 1,1 1,1 0,0 0,0 0,0 0,0 0,0 0,0 0,0 0,0 1,0 0,0 0,0 0,-1 0,0 0,0 -1,0z"/>
  <path class="fil1" d="M44 15c0,1 0,1 1,1 0,0 0,0 0,0 0,0 0,0 0,0 0,0 0,0 1,0 0,0 0,0 0,-1 0,0 -1,-1 -1,-1 -1,0 -1,1 -1,1z"/>
  <path class="fil0" d="M46 42c0,1 -1,1 -1,1 0,0 0,0 0,0 0,0 0,0 -1,0 0,0 0,0 0,0 -1,-1 -1,-1 0,-1 0,0 0,-1 0,-1 0,0 1,0 1,0 0,0 0,0 0,0 1,0 1,1 1,1zm-1 5c0,0 0,0 0,0 0,0 0,0 0,0 0,0 0,0 -1,0 0,0 0,0 0,0 0,0 0,0 0,0 0,0 -1,-1 -1,-1 1,0 1,-1 1,-1 0,0 1,1 1,1 0,0 0,0 0,0 0,0 0,0 0,0 0,0 0,1 0,1zm-3 -2c0,0 0,0 0,0 0,0 0,0 0,0 0,0 0,0 0,0 -1,1 -1,1 -2,0 0,-1 0,-1 1,-1 0,-1 1,0 1,0 0,0 0,1 0,1zm-1 5c0,1 -1,1 -2,0 0,0 0,-1 0,-1 0,0 0,0 1,-1 0,0 1,0 1,0 0,1 0,1 0,1 0,0 0,1 0,1zm-2 -9c0,0 0,0 0,0 0,-1 0,-1 0,-1 0,-1 1,-1 1,0 1,0 1,0 1,1 0,0 0,0 0,1 -1,1 -2,0 -2,-1zm-1 6c0,0 0,0 0,0 0,0 0,0 0,0 -1,0 -1,0 -1,0 0,0 0,0 0,0 -1,0 -1,0 -1,-1 0,0 0,0 1,-1 1,0 1,0 2,1 0,0 0,0 -1,1zm10 -14c0,0 0,0 0,0 -6,0 -13,0 -16,7 -3,5 -4,12 2,16 3,2 7,2 11,0 2,-1 5,-3 6,-6 3,-5 3,-14 -3,-17z"/>
  <path class="fil1" d="M51 50c-1,3 -4,5 -6,6 -4,2 -8,2 -11,0 -6,-4 -5,-11 -2,-16 3,-7 10,-7 16,-7 0,0 0,0 0,0 6,3 6,12 3,17zm-2 -17c0,-1 0,-1 0,-1 0,0 -1,0 -1,0 0,0 0,0 0,0 -7,-1 -14,1 -18,8 -2,6 -2,13 4,17 3,2 7,3 10,1 3,-2 6,-4 8,-7 3,-6 3,-15 -3,-18z"/>
  <path class="fil1" d="M41 42c0,-1 0,-1 0,-1 0,-1 0,-1 -1,-1 0,-1 -1,-1 -1,0 0,0 0,0 0,1 0,0 0,0 0,0 0,1 1,2 2,1z"/>
  <path class="fil1" d="M37 45c-1,1 -1,1 -1,1 0,1 0,1 1,1 0,0 0,0 0,0 0,0 0,0 1,0 0,0 0,0 0,0 0,0 0,0 0,0 1,-1 1,-1 1,-1 -1,-1 -1,-1 -2,-1z"/>
  <path class="fil1" d="M41 48c0,0 -1,0 -1,0 -1,1 -1,1 -1,1 0,0 0,1 0,1 1,1 2,1 2,0 0,0 0,-1 0,-1 0,0 0,0 0,-1z"/>
  <path class="fil1" d="M41 44c-1,0 -1,0 -1,1 1,1 1,1 2,0 0,0 0,0 0,0 0,0 0,0 0,0 0,0 0,0 0,0 0,0 0,-1 0,-1 0,0 -1,-1 -1,0z"/>
  <path class="fil1" d="M45 41c0,0 0,0 0,0 0,0 -1,0 -1,0 0,0 0,1 0,1 -1,0 -1,0 0,1 0,0 0,0 0,0 1,0 1,0 1,0 0,0 0,0 0,0 0,0 1,0 1,-1 0,0 0,-1 -1,-1z"/>
  <path class="fil1" d="M45 46c0,0 0,0 0,0 0,0 -1,-1 -1,-1 0,0 0,1 -1,1 0,0 1,1 1,1 0,0 0,0 0,0 0,0 0,0 0,0 1,0 1,0 1,0 0,0 0,0 0,0 0,0 0,0 0,0 0,0 0,-1 0,-1 0,0 0,0 0,0z"/>
  <path class="fil0" d="M71 39c0,0 0,0 1,0 0,0 0,0 1,1 0,0 0,0 0,1 0,0 0,0 -1,0 0,0 0,0 -1,0 0,0 0,-1 0,-1 0,0 0,-1 0,-1zm2 -2c1,-1 2,-1 2,0 0,0 0,0 0,0 0,0 0,0 0,0 0,1 0,2 -1,2 -1,-1 -1,-2 -1,-2zm2 6c1,0 1,1 1,1 0,0 0,0 0,0 0,1 0,1 0,1 -1,0 -1,0 -1,-1 0,0 0,-1 0,-1zm1 -3c0,-1 1,-1 1,0 0,0 0,0 0,1 0,0 0,0 0,0 0,0 0,0 0,0 0,0 0,0 0,0 0,0 0,0 0,0 0,0 0,0 0,0 0,0 0,0 0,0 0,0 0,1 0,1 -1,0 -1,0 -1,0 0,0 0,0 0,0 0,0 0,0 0,0 0,0 0,0 -1,-1 0,0 0,-1 1,-1zm2 -4c0,0 0,0 0,-1 1,0 2,0 2,0 0,1 0,1 0,1 0,1 0,1 -1,1 0,0 0,0 0,0 -1,0 -1,-1 -1,-1zm3 5c0,1 -1,1 -1,1 0,1 0,1 -1,0 0,0 0,0 0,-1 0,0 0,0 1,0 0,0 1,0 1,0zm1 -3c1,0 1,1 0,1 -1,0 -1,-1 0,-1zm-9 13c7,2 16,-2 17,-10 0,-3 -1,-7 -3,-9 -2,-2 -5,-3 -8,-4 0,0 0,0 0,-1 -2,0 -6,1 -7,2 -3,1 -6,3 -7,5 -2,3 -3,8 -1,11 2,3 5,6 9,6z"/>
  <path class="fil1" d="M65 34c1,-2 4,-4 7,-5 1,-1 5,-2 7,-2 0,1 0,1 0,1 3,1 6,2 8,4 2,2 3,6 3,9 -1,8 -10,12 -17,10 -4,0 -7,-3 -9,-6 -2,-3 -1,-8 1,-11zm5 18c8,3 18,0 20,-9 1,-4 0,-8 -2,-11 -2,-3 -5,-4 -9,-5 0,0 0,0 0,0 -2,-1 -5,0 -6,0 -3,1 -7,3 -9,6 -2,3 -3,7 -2,11 1,4 5,6 8,8z"/>
  <path class="fil1" d="M71 41c1,0 1,0 1,0 1,0 1,0 1,0 0,-1 0,-1 0,-1 -1,-1 -1,-1 -1,-1 -1,0 -1,0 -1,0 0,0 0,1 0,1 0,0 0,1 0,1z"/>
  <path class="fil1" d="M74 39c1,0 1,-1 1,-2 0,0 0,0 0,0 0,0 0,0 0,0 0,-1 -1,-1 -2,0 0,0 0,1 1,2z"/>
  <path class="fil1" d="M79 37c1,0 1,0 1,-1 0,0 0,0 0,-1 0,0 -1,0 -2,0 0,1 0,1 0,1 0,0 0,1 1,1 0,0 0,0 0,0z"/>
  <path class="fil1" d="M76 42c0,0 0,0 0,0 0,0 0,0 0,0 0,0 0,0 1,0 0,0 0,-1 0,-1 0,0 0,0 0,0 0,0 0,0 0,0 0,0 0,0 0,0 0,0 0,0 0,0 0,0 0,0 0,0 0,0 0,0 0,0 0,-1 0,-1 0,-1 0,-1 -1,-1 -1,0 -1,0 -1,1 -1,1 1,1 1,1 1,1z"/>
  <path class="fil1" d="M75 44c0,1 0,1 1,1 0,0 0,0 0,-1 0,0 0,0 0,0 0,0 0,-1 -1,-1 0,0 0,1 0,1z"/>
  <path class="fil1" d="M79 41c0,1 0,1 0,1 1,1 1,1 1,0 0,0 1,0 1,-1 0,0 -1,0 -1,0 -1,0 -1,0 -1,0z"/>
  <path class="fil1" d="M82 39c1,0 1,-1 0,-1 -1,0 -1,1 0,1z"/>
  <path class="fil0" d="M67 13c0,0 1,0 1,0 1,1 1,1 0,2 0,0 0,0 -1,0 0,0 -1,0 -1,-1 0,0 0,-1 1,-1zm2 -3c0,-1 0,-1 0,-1 1,0 1,0 1,1 0,0 0,0 0,1 0,0 0,0 0,0 0,0 0,0 0,0 0,0 0,0 0,0 0,0 -1,0 -1,0 0,0 0,0 0,0 0,0 0,0 0,0 0,0 0,0 0,0 0,-1 0,-1 0,-1zm2 5c0,1 0,1 0,2 0,0 -1,0 -1,0 0,-1 0,-1 0,-2 0,-1 1,-1 1,0zm2 -4c0,0 1,0 1,0 0,0 0,1 0,1 0,1 -1,0 -1,0 -1,0 -1,0 -1,0 0,-1 0,-1 1,-1zm1 5c-1,0 -1,0 -1,-1 0,0 0,-1 0,-1 1,0 1,0 1,1 0,0 0,0 0,0 0,0 0,0 0,0 0,0 0,0 0,0 0,1 0,1 0,1zm-12 -8c-1,3 -2,6 -1,8 0,3 4,5 6,6 5,2 11,0 13,-4 2,-5 0,-13 -6,-13 0,0 0,-1 0,-1 -5,-1 -10,0 -12,4z"/>
  <path class="fil1" d="M74 4c0,0 0,1 0,1 6,0 8,8 6,13 -2,4 -8,6 -13,4 -2,-1 -6,-3 -6,-6 -1,-2 0,-5 1,-8 2,-4 7,-5 12,-4zm-14 4c-1,3 -1,6 0,9 0,3 4,5 7,6 5,2 12,0 14,-6 1,-2 1,-6 0,-8 -2,-3 -4,-5 -7,-5 -5,-2 -11,0 -14,4z"/>
  <path class="fil1" d="M67 15c1,0 1,0 1,0 1,-1 1,-1 0,-2 0,0 -1,0 -1,0 -1,0 -1,1 -1,1 0,1 1,1 1,1z"/>
  <path class="fil1" d="M69 11c0,0 0,0 0,0 0,0 0,0 0,0 0,0 1,0 1,0 0,0 0,0 0,0 0,0 0,0 0,0 0,0 0,0 0,0 0,-1 0,-1 0,-1 0,-1 0,-1 -1,-1 0,0 0,0 0,1 0,0 0,0 0,1 0,0 0,0 0,0z"/>
  <path class="fil1" d="M73 12c0,0 1,1 1,0 0,0 0,-1 0,-1 0,0 -1,0 -1,0 -1,0 -1,0 -1,1 0,0 0,0 1,0z"/>
  <path class="fil1" d="M70 15c0,1 0,1 0,2 0,0 1,0 1,0 0,-1 0,-1 0,-2 0,-1 -1,-1 -1,0z"/>
  <path class="fil1" d="M74 15c0,0 0,0 0,0 0,-1 0,-1 -1,-1 0,0 0,1 0,1 0,1 0,1 1,1 0,0 0,0 0,-1 0,0 0,0 0,0 0,0 0,0 0,0z"/>
  <path class="fil0" d="M15 28c0,0 -1,0 -1,0 0,0 0,0 0,0 0,0 0,0 0,0 0,0 -1,0 -1,-1 0,0 1,-1 1,-1 0,0 0,0 1,0 0,1 0,1 0,1 0,0 0,0 0,0 0,0 0,1 0,1zm-2 5c-1,0 -1,-2 0,-2 1,0 1,2 0,2zm-2 -2c0,0 -1,0 -1,-1 1,0 1,-1 1,-1 1,0 1,1 1,1 0,0 0,0 0,0 0,0 0,0 0,0 0,0 0,0 0,0 0,0 0,1 0,1 0,1 -1,0 -1,0zm-1 2c0,0 0,0 -1,0 0,0 0,-1 0,-1 0,-1 1,-1 1,0 0,0 0,0 0,1zm-1 -3c-1,0 -1,0 -1,0 0,0 0,0 0,0 0,0 -1,0 -1,0 0,0 0,0 0,0 0,0 -1,0 -1,-1 0,0 1,0 1,0 1,0 1,0 1,0 1,0 1,0 1,1 0,-1 0,0 0,0 0,0 0,0 0,0 0,0 0,0 0,0zm1 -4c0,-1 1,-1 2,0 0,0 0,1 0,1 0,0 0,0 0,1 -1,1 -2,1 -2,0 0,-1 0,-1 0,-1 0,0 0,-1 0,-1zm9 -4c0,-1 -1,-3 -3,-3 -1,-1 -2,-1 -3,-2 -7,1 -12,6 -12,12 0,5 2,11 8,11 5,0 12,-3 12,-10 0,-2 0,-5 -2,-8z"/>
  <path class="fil1" d="M9 40c-6,0 -8,-6 -8,-11 0,-6 5,-11 12,-12 1,1 2,1 3,2 2,0 3,2 3,3 2,3 2,6 2,8 0,7 -7,10 -12,10zm13 -8c1,-3 0,-6 -1,-9 -1,-2 -2,-3 -3,-4 -2,-2 -4,-2 -5,-3 -1,0 -1,0 -1,1 -6,-1 -12,5 -12,11 0,6 1,12 7,13 6,1 13,-3 15,-9z"/>
  <path class="fil1" d="M12 28c0,-1 0,-1 0,-1 0,0 0,-1 0,-1 -1,-1 -2,-1 -2,0 0,0 0,1 0,1 0,0 0,0 0,1 0,1 1,1 2,0z"/>
  <path class="fil1" d="M9 30c0,0 0,0 0,0 0,0 0,-1 0,0 0,-1 0,-1 -1,-1 0,0 0,0 -1,0 0,0 -1,0 -1,0 0,1 1,1 1,1 0,0 0,0 0,0 0,0 1,0 1,0 0,0 0,0 0,0 0,0 0,0 1,0 0,0 0,0 0,0z"/>
  <path class="fil1" d="M9 32c0,0 0,1 0,1 1,0 1,0 1,0 0,-1 0,-1 0,-1 0,-1 -1,-1 -1,0z"/>
  <path class="fil1" d="M12 30c0,0 0,0 0,0 0,0 0,0 0,0 0,0 0,0 0,0 0,0 0,-1 -1,-1 0,0 0,1 -1,1 0,1 1,1 1,1 0,0 1,1 1,0 0,0 0,-1 0,-1z"/>
  <path class="fil1" d="M13 31c-1,0 -1,2 0,2 1,0 1,-2 0,-2z"/>
  <path class="fil1" d="M15 27c0,0 0,0 0,-1 -1,0 -1,0 -1,0 0,0 -1,1 -1,1 0,1 1,1 1,1 0,0 0,0 0,0 0,0 0,0 0,0 0,0 1,0 1,0 0,0 0,-1 0,-1 0,0 0,0 0,0z"/>
 </g>
</svg>
