<?xml version="1.0" encoding="UTF-8"?>
<!DOCTYPE svg PUBLIC "-//W3C//DTD SVG 1.1//EN" "http://www.w3.org/Graphics/SVG/1.1/DTD/svg11.dtd">
<!-- Creator: CorelDRAW X7 -->
<svg xmlns="http://www.w3.org/2000/svg" xml:space="preserve" width="1.09756in" height="0.61587in" version="1.1" style="shape-rendering:geometricPrecision; text-rendering:geometricPrecision; image-rendering:optimizeQuality; fill-rule:evenodd; clip-rule:evenodd"
viewBox="0 0 377 212"
 xmlns:xlink="http://www.w3.org/1999/xlink">
 <defs>
  <style type="text/css">
   <![CDATA[
    .fil0 {fill:#FBD5DD}
    .fil2 {fill:#F59DAC}
    .fil1 {fill:#F1687D}
    .fil3 {fill:#B3535F}
    .fil5 {fill:#B8C655}
    .fil4 {fill:#7D8642}
   ]]>
  </style>
 </defs>
 <g id="Layer_x0020_1">
  <metadata id="CorelCorpID_0Corel-Layer"/>
  <path class="fil0" d="M310 174c1,-2 9,-4 12,-5 3,-2 7,-3 10,-5 9,-3 16,-7 22,-14 -7,-5 -15,-11 -20,-17 -9,13 -16,27 -24,41z"/>
  <path class="fil1" d="M355 176c-3,0 -8,-1 -9,5 0,1 -1,3 -1,4 -3,3 -6,4 -9,4 -3,0 -7,-1 -9,0 -4,1 -3,4 -6,5 -4,2 -6,0 -10,-2 -6,-2 -15,10 -19,3 -2,-2 -3,-3 -2,-5 0,-3 2,-7 -1,-9 -2,-2 -4,-4 -2,-8 1,-2 4,-2 5,-4 3,-3 1,-6 0,-10 -1,-3 1,-5 4,-7 4,-2 6,-5 4,-9 -1,-1 -1,-2 -1,-3 1,-5 4,-7 8,-10 3,-2 5,-4 7,-8 0,-1 1,-2 2,-3 0,0 0,0 1,-1 -6,-2 -13,-3 -19,0 -17,10 -17,31 -19,48 -2,8 -4,15 -5,22 -1,5 -3,12 1,16 5,6 14,4 20,4 5,-1 11,-1 16,-2 14,-1 28,-1 41,-6 11,-4 25,-13 22,-27 -1,-3 -3,-6 -4,-9 -3,5 -10,12 -15,12z"/>
  <path class="fil2" d="M327 170c-3,1 -17,9 -20,6 -1,-1 0,-3 0,-4 3,-5 5,-10 8,-15 5,-9 10,-19 18,-27 -3,-3 -7,-6 -11,-9 0,0 -1,0 -1,0 -5,-3 -5,4 -7,6 -3,4 -11,7 -12,11 -1,4 3,7 2,11 -2,3 -4,4 -7,5 -5,4 0,9 -1,13 0,4 -4,5 -6,7 -3,3 4,6 3,10 0,3 -2,14 5,10 3,-2 6,-4 9,-5 3,0 5,2 8,3 4,2 7,-5 11,-6 3,0 6,0 10,0 9,0 5,-12 15,-13 4,-1 7,-1 10,-4 2,-2 5,-4 7,-7 -3,-4 -7,-7 -11,-10 0,0 0,0 -1,0 -8,9 -17,13 -29,18z"/>
  <path class="fil3" d="M357 152c4,3 8,6 11,10 0,0 0,-1 0,-1 1,-1 3,-1 3,1 -1,1 -1,1 -1,2 1,3 3,6 4,9 3,14 -11,23 -22,27 -13,5 -27,5 -41,6 -5,1 -11,1 -16,2 -6,0 -15,2 -20,-4 -4,-4 -2,-11 -1,-16 1,-7 3,-14 5,-22 2,-17 2,-38 19,-48 6,-3 13,-2 19,0 1,-1 3,0 5,1 1,1 1,2 0,2 4,3 8,6 11,9 0,0 0,0 1,0 0,-1 2,0 1,1 0,1 -1,1 -1,2 5,6 13,12 20,17 0,0 0,0 0,0 2,-2 4,0 3,2zm-20 -21c-7,-9 -17,-17 -29,-18 -15,-1 -24,12 -28,24 -3,9 -3,18 -4,26 -1,8 -4,16 -6,24 -1,8 -2,19 7,23 6,2 13,2 19,1 7,-1 13,-1 20,-2 13,-1 27,-2 40,-7 10,-4 19,-11 21,-23 1,-9 -5,-17 -11,-23 -9,-9 -21,-15 -29,-24 0,-1 0,-1 0,-1z"/>
  <path class="fil3" d="M332 164c-3,2 -7,3 -10,5 -3,1 -11,3 -12,5 8,-14 15,-28 24,-41 0,-1 1,-1 1,-2 1,-1 -1,-2 -1,-1 -1,0 -1,0 -1,0 -8,8 -13,18 -18,27 -3,5 -5,10 -8,15 0,1 -1,3 0,4 3,3 17,-5 20,-6 12,-5 21,-9 29,-18 1,0 1,0 1,0 1,-2 -1,-4 -3,-2 0,0 0,0 0,0 -6,7 -13,11 -22,14z"/>
  <path class="fil3" d="M361 169c-3,3 -6,3 -10,4 -10,1 -6,13 -15,13 -4,0 -7,0 -10,0 -4,1 -7,8 -11,6 -3,-1 -5,-3 -8,-3 -3,1 -6,3 -9,5 -7,4 -5,-7 -5,-10 1,-4 -6,-7 -3,-10 2,-2 6,-3 6,-7 1,-4 -4,-9 1,-13 3,-1 5,-2 7,-5 1,-4 -3,-7 -2,-11 1,-4 9,-7 12,-11 2,-2 2,-9 7,-6 0,0 1,0 1,0 1,0 1,-1 0,-2 -2,-1 -4,-2 -5,-1 -1,1 -1,1 -1,1 -1,1 -2,2 -2,3 -2,4 -4,6 -7,8 -4,3 -7,5 -8,10 0,1 0,2 1,3 2,4 0,7 -4,9 -3,2 -5,4 -4,7 1,4 3,7 0,10 -1,2 -4,2 -5,4 -2,4 0,6 2,8 3,2 1,6 1,9 -1,2 0,3 2,5 4,7 13,-5 19,-3 4,2 6,4 10,2 3,-1 2,-4 6,-5 2,-1 6,0 9,0 3,0 6,-1 9,-4 0,-1 1,-3 1,-4 1,-6 6,-5 9,-5 5,0 12,-7 15,-12 0,-1 0,-1 1,-2 0,-2 -2,-2 -3,-1 0,0 0,1 0,1 -2,3 -5,5 -7,7z"/>
  <path class="fil0" d="M239 35c3,6 7,14 13,17 4,-13 2,-29 -2,-42 -4,1 -7,3 -11,4 0,0 0,0 0,0 -2,0 -5,1 -7,1 1,7 4,14 7,20z"/>
  <path class="fil2" d="M255 55c0,1 -1,1 -2,1 -8,-3 -13,-13 -16,-19 -3,-7 -8,-15 -7,-22 -6,0 -12,-1 -18,0 -7,5 -1,5 0,8 0,0 0,0 0,0 1,1 2,5 1,7 0,0 0,0 0,1 -1,4 5,3 6,3 2,0 4,2 3,5 -1,2 -2,4 -3,6 -3,6 5,4 8,3 1,0 2,0 2,1 1,4 1,8 5,10 2,1 4,2 5,3 1,1 3,3 4,4 1,3 1,7 5,7 2,0 3,1 5,2 5,3 9,0 9,-5 0,-5 1,-9 4,-13 2,-4 4,-7 2,-12 0,-1 0,-3 0,-5 2,-5 7,-7 2,-13 -3,-3 -2,-5 -1,-9 2,-4 -2,-7 -1,-11 -5,0 -10,1 -15,3 4,13 6,31 2,45z"/>
  <path class="fil1" d="M273 17c-1,4 -3,6 1,10 3,3 1,7 -1,10 -4,4 -1,7 -1,12 0,2 -1,5 -2,7 -3,4 -5,7 -5,12 0,3 0,5 -1,8 -1,3 -5,5 -8,3 -3,-1 -6,-4 -9,-3 -2,0 -4,0 -5,-2 -1,-3 0,-6 -3,-9 -3,-1 -5,-2 -7,-4 -4,-2 -5,-6 -5,-10 -4,1 -7,1 -11,0 -1,0 -1,0 -1,-1 0,-2 0,-3 1,-5 1,-1 5,-8 1,-8 -2,0 -5,0 -6,-2 -2,-2 -1,-4 -1,-6 1,-1 0,-3 0,-5 0,0 0,0 0,0 -1,-3 -4,-2 -4,-5 0,-2 1,-3 2,-4 -1,0 -2,1 -4,1 -13,4 -19,21 -12,33 6,11 17,17 27,23 10,6 17,12 25,21 5,6 16,14 22,4 3,-5 4,-11 7,-17 6,-12 16,-22 22,-34 3,-7 5,-16 1,-24 -3,-7 -9,-13 -17,-14 -2,-1 -5,-1 -8,-1 0,0 0,0 0,0 -1,4 3,6 2,10z"/>
  <path class="fil3" d="M239 14c4,-1 7,-3 11,-4 0,0 0,0 0,-1 -1,-2 2,-2 2,0 1,0 1,0 1,1 5,-2 10,-3 15,-3 0,0 0,0 1,-1 0,-1 3,-1 2,1 3,0 6,0 8,1 8,1 14,7 17,14 4,8 2,17 -1,24 -6,12 -16,22 -22,34 -3,6 -4,12 -7,17 -6,10 -17,2 -22,-4 -8,-9 -15,-15 -25,-21 -10,-6 -21,-12 -27,-23 -7,-12 -1,-29 12,-33 2,0 3,-1 4,-1 1,-1 2,-1 3,-2 1,-1 2,1 1,2 0,0 0,0 0,0 6,-1 12,0 18,0 0,-1 0,-1 0,-2 0,-1 2,-1 2,0 0,1 0,1 0,2 2,0 5,-1 7,-1 0,0 0,0 0,0zm-2 -2c-11,0 -23,-2 -34,1 -11,2 -16,13 -17,24 -2,24 27,34 43,46 9,7 15,21 28,22 13,2 16,-16 20,-24 6,-13 17,-24 22,-37 5,-12 2,-25 -8,-34 -15,-13 -37,-4 -53,1 0,0 -1,0 -1,1z"/>
  <path class="fil3" d="M252 52c-6,-3 -10,-11 -13,-17 -3,-6 -6,-13 -7,-20 0,-1 0,-1 0,-2 0,-1 -2,-1 -2,0 0,1 0,1 0,2 -1,7 4,15 7,22 3,6 8,16 16,19 1,0 2,0 2,-1 4,-14 2,-32 -2,-45 0,-1 0,-1 -1,-1 0,-2 -3,-2 -2,0 0,1 0,1 0,1 4,13 6,29 2,42z"/>
  <path class="fil3" d="M269 18c-1,4 -2,6 1,9 5,6 0,8 -2,13 0,2 0,4 0,5 2,5 0,8 -2,12 -3,4 -4,8 -4,13 0,5 -4,8 -9,5 -2,-1 -3,-2 -5,-2 -4,0 -4,-4 -5,-7 -1,-1 -3,-3 -4,-4 -1,-1 -3,-2 -5,-3 -4,-2 -4,-6 -5,-10 0,-1 -1,-1 -2,-1 -3,1 -11,3 -8,-3 1,-2 2,-4 3,-6 1,-3 -1,-5 -3,-5 -1,0 -7,1 -6,-3 0,-1 0,-1 0,-1 1,-2 0,-6 -1,-7 0,0 0,0 0,0 -1,-3 -7,-3 0,-8 0,0 0,0 0,0 1,-1 0,-3 -1,-2 -1,1 -2,1 -3,2 -1,1 -2,2 -2,4 0,3 3,2 4,5 0,0 0,0 0,0 0,2 1,4 0,5 0,2 -1,4 1,6 1,2 4,2 6,2 4,0 0,7 -1,8 -1,2 -1,3 -1,5 0,1 0,1 1,1 4,1 7,1 11,0 0,4 1,8 5,10 2,2 4,3 7,4 3,3 2,6 3,9 1,2 3,2 5,2 3,-1 6,2 9,3 3,2 7,0 8,-3 1,-3 1,-5 1,-8 0,-5 2,-8 5,-12 1,-2 2,-5 2,-7 0,-5 -3,-7 1,-12 2,-3 4,-7 1,-10 -4,-4 -2,-6 -1,-10 1,-4 -3,-6 -2,-10 0,0 0,0 0,0 1,-2 -2,-2 -2,-1 -1,1 -1,1 -1,1 -1,4 3,7 1,11z"/>
  <path class="fil2" d="M151 139c2,2 0,7 5,7 3,-1 7,-1 7,3 1,6 9,4 13,7 1,1 1,6 5,4 1,-1 2,-2 3,-2 1,-1 2,-1 3,0 1,0 2,0 3,0 4,2 4,-2 2,-4 0,-2 -1,-3 -1,-4 1,-5 2,-9 -1,-13 -1,-1 -2,-2 -3,-4 0,-3 3,-8 0,-10 -2,-1 -3,-1 -5,-2 -1,-2 -2,-3 -2,-5 -1,-4 0,-6 -5,-9 0,0 0,0 0,0 -2,1 -4,3 -6,4 4,12 9,23 14,35 0,1 0,2 -1,2 -5,1 -10,-5 -13,-8 -6,-6 -11,-11 -17,-17 0,0 0,0 0,0 -3,2 -6,4 -9,6 -2,5 5,7 8,10z"/>
  <path class="fil1" d="M182 102c-2,1 -3,2 -5,3 2,2 5,3 6,6 0,4 -1,7 3,9 1,0 2,1 3,2 2,1 2,3 2,5 0,1 -1,3 -1,5 0,2 3,4 4,6 2,2 2,5 1,8 -1,3 -2,4 0,8 1,1 1,2 1,3 1,5 -3,5 -6,4 -6,-2 -12,6 -16,-2 -3,-7 -11,1 -13,-8 -1,-6 -6,-1 -9,-3 -2,-3 -2,-8 -5,-9 -4,-2 -6,-4 -6,-7 -2,2 -3,4 -4,7 -4,12 1,20 12,25 8,3 17,5 26,7 7,3 19,9 26,4 8,-5 7,-22 8,-31 1,-10 1,-22 -3,-31 -4,-10 -14,-17 -24,-11z"/>
  <path class="fil0" d="M180 145c-5,-11 -10,-21 -13,-33 -1,1 -2,1 -3,2 -3,3 -6,5 -10,7 4,4 8,9 12,13 3,2 9,10 14,11z"/>
  <path class="fil3" d="M206 113c4,9 4,21 3,31 -1,9 0,26 -8,31 -7,5 -19,-1 -26,-4 -9,-2 -18,-4 -26,-7 -11,-5 -16,-13 -12,-25 1,-3 2,-5 4,-7 -1,-1 0,-3 1,-5 1,-1 2,0 2,1 0,0 -1,1 -1,1 3,-2 6,-4 9,-6 0,-1 1,-3 2,-2 0,0 0,0 0,0 4,-2 7,-4 10,-7 1,-1 2,-1 3,-2 0,0 0,-1 0,-1 -1,-1 1,-2 2,-1 0,0 0,1 0,1 2,-1 4,-3 6,-4 -1,-1 0,-3 1,-2 1,0 1,0 1,0 2,-1 3,-2 5,-3 10,-6 20,1 24,11zm-19 -16c-10,2 -16,11 -25,15 -1,0 -1,1 -1,1 -11,8 -22,12 -27,26 -4,10 -1,19 8,25 9,6 22,7 32,11 9,2 20,8 28,3 9,-5 9,-20 10,-29 1,-12 2,-26 -3,-38 -4,-8 -13,-16 -22,-14z"/>
  <path class="fil3" d="M169 140c3,3 8,9 13,8 1,0 1,-1 1,-2 -5,-12 -10,-23 -14,-35 0,0 0,-1 0,-1 -1,-1 -3,0 -2,1 0,0 0,1 0,1 3,12 8,22 13,33 -5,-1 -11,-9 -14,-11 -4,-4 -8,-9 -12,-13 0,0 0,0 0,0 -1,-1 -2,1 -2,2 0,0 0,0 0,0 6,6 11,11 17,17z"/>
  <path class="fil3" d="M147 139c3,1 3,6 5,9 3,2 8,-3 9,3 2,9 10,1 13,8 4,8 10,0 16,2 3,1 7,1 6,-4 0,-1 0,-2 -1,-3 -2,-4 -1,-5 0,-8 1,-3 1,-6 -1,-8 -1,-2 -4,-4 -4,-6 0,-2 1,-4 1,-5 0,-2 0,-4 -2,-5 -1,-1 -2,-2 -3,-2 -4,-2 -3,-5 -3,-9 -1,-3 -4,-4 -6,-6 0,0 0,0 -1,0 -1,-1 -2,1 -1,2 0,0 0,0 0,0 5,3 4,5 5,9 0,2 1,3 2,5 2,1 3,1 5,2 3,2 0,7 0,10 1,2 2,3 3,4 3,4 2,8 1,13 0,1 1,2 1,4 2,2 2,6 -2,4 -1,0 -2,0 -3,0 -1,-1 -2,-1 -3,0 -1,0 -2,1 -3,2 -4,2 -4,-3 -5,-4 -4,-3 -12,-1 -13,-7 0,-4 -4,-4 -7,-3 -5,0 -3,-5 -5,-7 -3,-3 -10,-5 -8,-10 0,0 1,-1 1,-1 0,-1 -1,-2 -2,-1 -1,2 -2,4 -1,5 0,3 2,5 6,7z"/>
  <path class="fil4" d="M98 26c2,0 1,-2 0,-2 0,0 -1,0 -1,0 -6,-1 -11,-2 -13,-7 5,1 11,1 15,6 0,1 1,1 1,2 1,1 3,0 3,-1 0,-1 0,-1 0,-2 1,-7 5,-13 10,-18 1,6 1,12 -4,16 0,0 0,1 0,1 -2,1 0,3 1,2 2,-1 3,-2 4,-4 3,-5 3,-12 1,-18 0,-1 -1,-1 -2,-1 -6,6 -11,12 -13,20 -4,-5 -12,-4 -18,-7 -1,0 -2,1 -2,2 2,6 6,9 11,10 2,1 5,1 7,1z"/>
  <path class="fil5" d="M84 17c2,5 7,6 13,7 0,0 1,-1 2,-1 -4,-5 -10,-5 -15,-6z"/>
  <path class="fil5" d="M113 4c-5,5 -9,11 -10,18 2,-1 4,-1 6,-2 5,-4 5,-10 4,-16z"/>
  <path class="fil1" d="M86 48c0,-2 3,-2 3,0 0,1 0,1 0,2 1,2 -1,2 -2,1 -1,-1 -1,-2 -1,-3zm12 28c1,-1 3,-1 3,0 0,1 0,2 0,2 1,1 0,2 -1,2 0,0 -1,0 -1,-1 -1,-1 -1,-2 -1,-3zm7 -17c0,1 0,1 1,2 1,1 -2,3 -3,1 0,-1 -1,-2 -1,-3 0,-1 3,-1 3,0zm1 -25l0 0c1,1 1,1 1,1 0,0 0,0 0,0 0,0 0,0 0,0 0,1 0,1 0,2 1,1 -1,1 -1,1 -1,0 -1,-1 -2,-2 0,0 0,-1 0,-2 0,-1 3,-1 2,0zm9 42c1,-1 1,-2 1,-2 0,-2 2,-2 2,0 1,0 1,1 1,2 0,0 0,1 0,2 -1,1 -3,1 -4,0 0,-1 0,-2 0,-2zm4 15c0,-2 2,-2 2,0 1,0 1,0 1,1 0,0 0,1 -1,1 -1,1 -1,1 -2,0 0,-1 0,-2 0,-2zm0 -45c0,-1 2,-1 2,0 0,1 0,2 1,2 0,1 0,2 -1,2 -1,0 -2,-1 -2,-1 0,-1 0,-2 0,-3zm9 16c0,-1 2,-1 2,0 0,1 0,2 0,3 0,2 -2,2 -2,0 0,-1 0,-2 0,-3zm0 -30c0,-1 3,-1 3,0 0,1 0,2 0,2 0,1 0,1 -1,2 0,0 0,0 0,0 -1,0 -1,0 -1,-1 -1,-1 -1,-2 -1,-3zm-53 4c-2,5 2,11 4,15 2,5 4,10 7,15 7,9 15,16 22,25 4,5 9,13 16,13 12,-16 16,-38 16,-58 0,-3 -1,-29 -6,-28 -11,2 -23,5 -34,8 -4,2 -9,3 -13,4 -3,1 -10,3 -12,6z"/>
  <path class="fil3" d="M100 26c11,-3 23,-6 34,-8 5,-1 6,25 6,28 0,20 -4,42 -16,58 -7,0 -12,-8 -16,-13 -7,-9 -15,-16 -22,-25 -3,-5 -5,-10 -7,-15 -2,-4 -6,-10 -4,-15 2,-3 9,-5 12,-6 4,-1 9,-2 13,-4zm-28 9c-3,4 1,10 2,14 6,16 16,28 27,40 6,6 15,20 24,18 1,0 1,0 2,-1 10,-13 14,-29 16,-45 2,-15 2,-33 -6,-46 0,-1 -1,-1 -2,-1 -7,1 -14,3 -21,5 -6,2 -14,4 -23,6 -2,1 -4,2 -6,2 -5,2 -10,4 -13,8z"/>
  <path class="fil3" d="M89 50c0,-1 0,-1 0,-2 0,-2 -3,-2 -3,0 0,1 0,2 1,3 1,1 3,1 2,-1z"/>
  <path class="fil3" d="M106 38c0,0 2,0 1,-1 0,-1 0,-1 0,-2 0,0 0,0 0,0 0,0 0,0 0,0 0,0 0,0 -1,-1l0 0c1,-1 -2,-1 -2,0 0,1 0,2 0,2 1,1 1,2 2,2z"/>
  <path class="fil3" d="M106 61c-1,-1 -1,-1 -1,-2 0,-1 -3,-1 -3,0 0,1 1,2 1,3 1,2 4,0 3,-1z"/>
  <path class="fil3" d="M121 50c1,0 1,-1 1,-2 -1,0 -1,-1 -1,-2 0,-1 -2,-1 -2,0 0,1 0,2 0,3 0,0 1,1 2,1z"/>
  <path class="fil3" d="M130 36c0,0 0,0 0,0 1,-1 1,-1 1,-2 0,0 0,-1 0,-2 0,-1 -3,-1 -3,0 0,1 0,2 1,3 0,1 0,1 1,1z"/>
  <path class="fil3" d="M119 78c0,-1 0,-2 0,-2 0,-1 0,-2 -1,-2 0,-2 -2,-2 -2,0 0,0 0,1 -1,2 0,0 0,1 0,2 1,1 3,1 4,0z"/>
  <path class="fil3" d="M130 65c0,-1 0,-2 0,-3 0,-1 -2,-1 -2,0 0,1 0,2 0,3 0,2 2,2 2,0z"/>
  <path class="fil3" d="M100 80c1,0 2,-1 1,-2 0,0 0,-1 0,-2 0,-1 -2,-1 -3,0 0,1 0,2 1,3 0,1 1,1 1,1z"/>
  <path class="fil3" d="M121 93c1,0 1,-1 1,-1 0,-1 0,-1 -1,-1 0,-2 -2,-2 -2,0 0,0 0,1 0,2 1,1 1,1 2,0z"/>
  <path class="fil4" d="M24 80c1,0 1,-1 0,-1 0,0 0,-1 -1,-1 -3,-1 -5,-5 -6,-8 4,0 9,4 10,8 0,1 1,2 1,2 0,2 2,2 2,1 1,-1 1,-2 1,-2 2,-4 5,-7 8,-9 4,-2 4,2 3,4 -1,3 -4,4 -6,5 0,0 0,1 -1,1 -1,1 0,3 2,2 1,-1 2,-1 3,-2 4,-3 6,-7 5,-13 0,0 -1,-1 -1,-1 -6,1 -12,5 -15,10 -2,-5 -9,-9 -15,-9 0,1 -1,1 -1,2 1,3 3,7 6,9 1,2 3,2 5,2z"/>
  <path class="fil1" d="M14 118c1,1 -1,2 -1,1 -1,-1 -1,-2 -1,-3 0,-1 2,-1 2,0 0,1 0,1 0,2zm-4 -21c0,0 0,-1 0,-1 0,-2 3,-2 3,0 0,0 0,1 0,1 0,2 -3,2 -3,0zm9 35c0,-1 2,-1 2,0 0,0 0,1 0,1 0,0 0,0 0,0 1,1 0,2 -1,2 -1,-1 -1,-2 -1,-3zm4 -21c0,-1 2,-1 2,0 0,1 0,1 0,2 0,1 -2,1 -2,0 0,-1 0,-1 0,-2zm3 -23c1,1 1,2 1,3 0,2 -2,2 -2,0 0,0 0,-1 0,-2 -1,-1 0,-1 1,-1zm2 55c0,-1 0,-2 0,-3 1,-1 2,-1 3,0 0,1 0,3 -1,4 0,1 -2,1 -2,-1zm6 -24c0,-1 2,-1 2,0 0,1 0,2 0,3 0,1 -2,1 -2,0 0,-1 0,-2 0,-3zm7 -18c0,0 0,-1 0,-1 0,-1 0,-1 0,-2 0,0 2,0 2,0 0,1 0,3 0,4 -1,1 -3,1 -2,-1zm-34 -20c-5,1 -4,3 -4,6 0,6 1,12 2,17 3,22 12,41 26,59 12,-25 19,-52 21,-80 -12,1 -24,-2 -36,-2 -3,0 -6,0 -9,0z"/>
  <path class="fil5" d="M17 70c1,3 3,7 6,8 2,0 3,0 4,0 -1,-4 -6,-8 -10,-8z"/>
  <path class="fil5" d="M42 74c1,-2 1,-6 -3,-4 -3,2 -6,5 -8,9 2,0 3,0 5,0 2,-1 5,-2 6,-5z"/>
  <path class="fil3" d="M52 83c-2,28 -9,55 -21,80 -14,-18 -23,-37 -26,-59 -1,-5 -2,-11 -2,-17 0,-3 -1,-5 4,-6 3,0 6,0 9,0 12,0 24,3 36,2zm-51 -4c0,0 -1,1 -1,1 -1,32 10,62 29,87 1,1 3,1 3,0 14,-26 23,-56 23,-85 0,-2 -1,-2 -3,-2 -4,0 -8,0 -12,-1 -3,1 -8,0 -13,-1 -1,0 -3,0 -8,0 -6,0 -12,0 -18,1z"/>
  <path class="fil3" d="M13 97c0,0 0,-1 0,-1 0,-2 -3,-2 -3,0 0,0 0,1 0,1 0,2 3,2 3,0z"/>
  <path class="fil3" d="M25 91c0,2 2,2 2,0 0,-1 0,-2 -1,-3 -1,0 -2,0 -1,1 0,1 0,2 0,2z"/>
  <path class="fil3" d="M25 113c0,-1 0,-1 0,-2 0,-1 -2,-1 -2,0 0,1 0,1 0,2 0,1 2,1 2,0z"/>
  <path class="fil3" d="M43 102c0,-1 0,-3 0,-4 0,0 -2,0 -2,0 0,1 0,1 0,2 0,0 0,1 0,1 -1,2 1,2 2,1z"/>
  <path class="fil3" d="M20 135c1,0 2,-1 1,-2 0,0 0,0 0,0 0,0 0,-1 0,-1 0,-1 -2,-1 -2,0 0,1 0,2 1,3z"/>
  <path class="fil3" d="M36 122c0,-1 0,-2 0,-3 0,-1 -2,-1 -2,0 0,1 0,2 0,3 0,1 2,1 2,0z"/>
  <path class="fil3" d="M30 144c1,-1 1,-3 1,-4 -1,-1 -2,-1 -3,0 0,1 0,2 0,3 0,2 2,2 2,1z"/>
  <path class="fil3" d="M12 116c0,1 0,2 1,3 0,1 2,0 1,-1 0,-1 0,-1 0,-2 0,-1 -2,-1 -2,0z"/>
 </g>
</svg>
