<?xml version="1.0" encoding="UTF-8"?>
<!DOCTYPE svg PUBLIC "-//W3C//DTD SVG 1.1//EN" "http://www.w3.org/Graphics/SVG/1.1/DTD/svg11.dtd">
<!-- Creator: CorelDRAW X7 -->
<svg xmlns="http://www.w3.org/2000/svg" xml:space="preserve" width="0.767232in" height="0.551874in" version="1.1" style="shape-rendering:geometricPrecision; text-rendering:geometricPrecision; image-rendering:optimizeQuality; fill-rule:evenodd; clip-rule:evenodd"
viewBox="0 0 150 108"
 xmlns:xlink="http://www.w3.org/1999/xlink">
 <defs>
  <style type="text/css">
   <![CDATA[
    .fil1 {fill:#E4E880}
    .fil0 {fill:#B8C655}
    .fil3 {fill:#B1C154}
    .fil2 {fill:#7D8642}
   ]]>
  </style>
 </defs>
 <g id="Layer_x0020_1">
  <metadata id="CorelCorpID_0Corel-Layer"/>
  <path class="fil0" d="M42 90c0,-3 0,-5 1,-8 0,-4 -3,-5 -6,-8 -1,-1 -3,-3 -4,-5 -2,-5 -2,-11 0,-16 1,-4 6,-6 9,-9 0,-3 2,-6 2,-9 1,-4 2,-8 2,-12 1,-4 1,-8 1,-13 0,-2 1,-6 0,-8 0,0 0,0 0,0 -10,7 -19,17 -26,27 -6,9 -9,19 -11,30 -1,9 -1,19 3,28 5,10 16,15 27,12 1,-1 1,-2 1,-3 0,0 0,0 1,0 0,-2 -1,-4 0,-6z"/>
  <path class="fil1" d="M12 91c-5,-9 -5,-20 -4,-29 1,-12 5,-23 11,-33 4,-6 8,-11 13,-16 4,-4 8,-9 14,-12 -3,0 -7,3 -10,4 -3,2 -7,4 -10,7 -5,4 -9,8 -12,14 -3,5 -5,11 -7,17 -2,7 -5,14 -5,21 -1,12 4,27 13,35 6,5 18,8 24,2 -10,2 -21,-1 -27,-10z"/>
  <path class="fil2" d="M13 87c-4,-9 -4,-19 -3,-28 2,-11 5,-21 11,-30 7,-10 16,-20 26,-27 0,0 0,0 0,0 0,0 0,0 0,-1 -1,0 -1,0 -1,0 -6,3 -10,8 -14,12 -5,5 -9,10 -13,16 -6,10 -10,21 -11,33 -1,9 -1,20 4,29 6,9 17,12 27,10 0,-1 1,-2 1,-2 -11,3 -22,-2 -27,-12z"/>
  <path class="fil2" d="M42 45c0,0 0,-1 0,-1 -3,3 -8,5 -9,9 -2,5 -2,11 0,16 1,2 3,4 4,5 3,3 6,4 6,8 -1,3 -1,5 -1,8 -1,2 0,4 0,6 0,0 1,0 0,1 0,1 0,1 0,2 0,0 0,0 0,0 2,-3 1,-7 1,-11 1,-4 2,-8 0,-11 -1,-2 -4,-3 -5,-5 -3,-2 -5,-7 -5,-11 0,-4 1,-8 4,-11 2,-2 4,-3 6,-4 0,-1 -1,-1 -1,-1z"/>
  <path class="fil2" d="M48 2c-1,0 -1,-1 -1,-1 0,1 0,1 0,1 0,0 0,0 0,0 0,0 0,0 0,0 1,2 0,6 0,8 0,5 0,9 -1,13 0,4 -1,8 -2,12 0,3 -2,6 -2,9 0,0 0,1 0,1 0,0 1,0 1,1 0,0 1,-1 1,-1 0,-4 2,-8 3,-12 0,-4 1,-8 1,-12 1,-5 1,-10 1,-14 0,-2 1,-4 -1,-6 1,0 0,1 0,1z"/>
  <path class="fil2" d="M18 103c7,4 19,5 23,-3 1,0 1,-1 1,-1 0,-1 0,-1 0,-2 1,-1 0,-1 0,-1 -1,0 -1,0 -1,0 0,1 0,2 -1,3 0,0 -1,1 -1,2 -6,6 -18,3 -24,-2 -9,-8 -14,-23 -13,-35 0,-7 3,-14 5,-21 2,-6 4,-12 7,-17 3,-6 7,-10 12,-14 3,-3 7,-5 10,-7 3,-1 7,-4 10,-4 0,0 0,0 1,0 0,0 0,1 1,1 0,0 1,-1 0,-1 0,0 0,0 0,-1 0,0 0,0 0,0 0,0 0,0 -1,0 -2,0 -4,0 -6,1 -4,2 -8,4 -11,6 -7,5 -12,10 -16,16 -4,6 -6,13 -8,20 -3,8 -6,17 -6,25 0,13 7,29 18,35z"/>
  <path class="fil1" d="M73 92c-6,-9 -8,-21 -8,-32 0,-20 9,-47 29,-56 -3,1 -5,2 -7,3 -3,1 -5,3 -8,4 -5,4 -9,9 -12,15 -4,12 -6,25 -6,37 1,11 1,25 9,35 4,4 10,8 16,8 6,0 10,-3 14,-6 -10,4 -20,1 -27,-8z"/>
  <path class="fil3" d="M67 58c0,10 1,20 6,29 2,4 5,8 10,11 7,3 13,1 19,-1 -1,-5 -3,-10 -4,-14 0,-3 0,-6 -3,-7 -2,-1 -3,-1 -5,-2 -5,-5 -6,-13 -4,-19 1,-4 2,-7 5,-9 1,-2 4,-4 5,-6 1,-2 1,-4 1,-7 0,-10 0,-20 0,-30 -19,11 -30,34 -30,55z"/>
  <path class="fil2" d="M83 98c-5,-3 -8,-7 -10,-11 -5,-9 -6,-19 -6,-29 0,-21 11,-44 30,-55 0,0 0,0 0,0 0,0 0,0 0,0 -1,0 -2,0 -3,1 -20,9 -29,36 -29,56 0,11 2,23 8,32 7,9 17,12 27,8 1,-1 1,-2 2,-2 0,0 0,-1 0,-1 0,0 0,0 0,0 -6,2 -12,4 -19,1z"/>
  <path class="fil2" d="M104 96c0,1 0,1 0,1 0,0 0,0 0,-1z"/>
  <path class="fil2" d="M98 3c0,0 0,0 -1,0 0,0 0,0 0,0 0,0 0,0 0,0 0,10 0,20 0,30 0,3 0,5 -1,7 -1,2 -4,4 -5,6 -3,2 -4,5 -5,9 -2,6 -1,14 4,19 2,1 3,1 5,2 3,1 3,4 3,7 1,4 3,9 4,14 0,0 0,0 0,0 1,0 2,1 1,1 1,0 1,0 1,-1 0,0 0,0 0,0 0,0 0,0 0,-1 -1,-4 -3,-8 -4,-12 0,-4 0,-7 -3,-9 -2,-1 -3,-1 -5,-2 -2,-2 -4,-4 -5,-7 -1,-4 0,-10 2,-14 1,-4 5,-7 7,-10 3,-2 3,-6 3,-9 0,-10 0,-20 0,-30 0,0 0,0 0,0 0,0 -1,0 -1,0z"/>
  <path class="fil2" d="M98 2c-6,-1 -14,4 -18,7 -6,4 -10,9 -13,15 -7,13 -8,29 -7,43 1,13 2,26 12,35 4,4 10,6 16,6 6,-1 11,-5 15,-9 0,0 0,0 0,-1 1,0 0,-1 -1,-1 0,0 0,1 0,1 -1,0 -1,1 -2,2 -4,3 -8,6 -14,6 -6,0 -12,-4 -16,-8 -8,-10 -8,-24 -9,-35 0,-12 2,-25 6,-37 3,-6 7,-11 12,-15 3,-1 5,-3 8,-4 2,-1 4,-2 7,-3 1,-1 2,-1 3,-1 1,0 1,0 1,0 0,0 1,0 1,0 0,-1 0,-1 -1,-1z"/>
  <path class="fil1" d="M127 84c-5,-9 -4,-20 -4,-30 0,-10 1,-20 6,-29 3,-5 7,-11 12,-15 -2,2 -5,4 -7,6 -4,3 -7,7 -9,11 -5,9 -9,21 -8,31 0,6 2,11 3,16 2,5 3,9 6,13 2,4 5,8 10,9 4,1 8,0 11,-3 -7,2 -16,-3 -20,-9z"/>
  <path class="fil0" d="M125 50c-1,9 -1,20 2,28 2,8 12,16 21,13 -1,-4 -1,-8 -2,-12 0,-2 0,-4 0,-6 -1,-3 -2,-4 -5,-5 -2,-1 -4,-5 -6,-7 -1,-2 -1,-6 0,-8 1,-3 3,-6 6,-8 1,-1 3,-2 4,-3 2,-2 1,-4 1,-7 0,-4 0,-9 0,-13 1,-5 1,-9 2,-14 -15,9 -23,25 -23,42z"/>
  <path class="fil2" d="M148 8c0,0 0,0 0,0 0,0 0,0 0,0 -1,5 -1,9 -2,14 0,4 0,9 0,13 0,3 1,5 -1,7 -1,1 -3,2 -4,3 -3,2 -5,5 -6,8 -1,2 -1,6 0,8 2,2 4,6 6,7 3,1 4,2 5,5 0,2 0,4 0,6 1,4 1,8 2,12 0,0 0,0 0,0 0,0 1,0 1,0 0,0 0,0 1,0 0,0 0,0 0,0 -2,-7 -1,-15 -3,-22 -1,-2 -5,-2 -7,-4 -3,-3 -4,-8 -3,-13 2,-4 5,-6 8,-8 4,-3 3,-5 3,-9 0,-4 -1,-9 0,-13 0,-5 1,-10 1,-15 0,0 0,0 0,0 0,0 0,0 -1,1z"/>
  <path class="fil2" d="M148 91c-9,3 -19,-5 -21,-13 -3,-8 -3,-19 -2,-28 0,-17 8,-33 23,-42 0,0 0,0 0,0 0,0 0,0 0,-1 0,0 -6,3 -7,3 0,0 0,0 0,0 -5,4 -9,10 -12,15 -5,9 -6,19 -6,29 0,10 -1,21 4,30 4,6 13,11 20,9 0,0 1,-1 1,-2 0,0 1,0 1,0 0,0 -1,0 -1,0 0,0 0,0 0,0z"/>
  <path class="fil2" d="M148 6c-1,0 -2,0 -3,1 -3,1 -6,3 -9,5 -5,4 -8,8 -12,13 -6,11 -10,25 -8,37 0,6 3,12 5,17 1,5 4,10 7,14 6,7 17,6 22,-1 0,0 0,-1 0,-1 -1,0 -1,0 -1,0 0,0 -1,0 -1,0 0,1 -1,2 -1,2 -3,3 -7,4 -11,3 -5,-1 -8,-5 -10,-9 -3,-4 -4,-8 -6,-13 -1,-5 -3,-10 -3,-16 -1,-10 3,-22 8,-31 2,-4 5,-8 9,-11 2,-2 5,-4 7,-6 0,0 0,0 0,0 1,0 7,-3 7,-3 0,1 0,1 0,1 0,0 0,0 0,0 0,0 0,0 0,-1 1,0 1,0 1,0 0,0 0,0 0,0 0,0 -1,-1 -1,-1z"/>
 </g>
</svg>
