<?xml version="1.0" encoding="UTF-8"?>
<!DOCTYPE svg PUBLIC "-//W3C//DTD SVG 1.1//EN" "http://www.w3.org/Graphics/SVG/1.1/DTD/svg11.dtd">
<!-- Creator: CorelDRAW X7 -->
<svg xmlns="http://www.w3.org/2000/svg" xml:space="preserve" width="0.30152in" height="0.198953in" version="1.1" style="shape-rendering:geometricPrecision; text-rendering:geometricPrecision; image-rendering:optimizeQuality; fill-rule:evenodd; clip-rule:evenodd"
viewBox="0 0 39 26"
 xmlns:xlink="http://www.w3.org/1999/xlink">
 <defs>
  <style type="text/css">
   <![CDATA[
    .fil0 {fill:#F5A5BE}
    .fil1 {fill:#DF8099}
    .fil2 {fill:#C4617C}
   ]]>
  </style>
 </defs>
 <g id="Layer_x0020_1">
  <metadata id="CorelCorpID_0Corel-Layer"/>
  <path class="fil0" d="M10 7c0,0 0,1 1,1 1,0 2,-2 1,-3 -1,0 -1,1 -2,2z"/>
  <path class="fil1" d="M13 7c-1,1 -1,2 -2,2 -3,-1 -1,-4 1,-5 0,0 0,0 0,0 1,1 1,2 1,3zm-1 -5c-1,2 -4,2 -4,5 -1,1 -1,4 1,4 2,0 3,0 4,-1 1,-2 2,-4 2,-6 0,-1 -1,-3 -3,-2z"/>
  <path class="fil2" d="M13 10c-1,1 -2,1 -4,1 -2,0 -2,-3 -1,-4 0,-3 3,-3 4,-5 2,-1 3,1 3,2 0,2 -1,4 -2,6zm-2 -9c0,0 0,0 0,0 0,0 0,0 0,0 -1,2 -3,2 -4,4 -1,1 -1,3 0,5 1,3 5,3 7,1 2,-3 3,-13 -3,-10z"/>
  <path class="fil2" d="M11 8c-1,0 -1,-1 -1,-1 1,-1 1,-2 2,-2 1,1 0,3 -1,3zm1 -4c0,0 0,0 0,0 -2,1 -4,4 -1,5 1,0 1,-1 2,-2 0,-1 0,-2 -1,-3z"/>
  <path class="fil1" d="M4 21c0,1 -1,1 -2,0 0,-1 0,-3 1,-4 0,0 0,0 0,0 0,0 0,0 0,0 3,0 3,3 1,4zm-1 -6c-1,0 -1,0 -1,0 -2,1 -2,8 1,8 6,0 5,-10 0,-8z"/>
  <path class="fil0" d="M3 18c0,0 0,0 0,0 0,0 0,1 0,2 0,0 0,1 1,0 0,0 0,-1 0,-1 0,-1 0,-1 -1,-1z"/>
  <path class="fil2" d="M3 23c-3,0 -3,-7 -1,-8 0,0 0,0 1,0 5,-2 6,8 0,8zm-1 -9c0,0 0,0 0,0 -1,1 -2,4 -2,5 0,2 1,5 3,5 7,0 6,-12 -1,-10z"/>
  <path class="fil2" d="M4 20c-1,1 -1,0 -1,0 0,-1 0,-2 0,-2 0,0 0,0 0,0 1,0 1,0 1,1 0,0 0,1 0,1zm-1 -3c0,0 0,0 0,0 0,0 0,0 0,0 -1,1 -1,3 -1,4 1,1 2,1 2,0 2,-1 2,-4 -1,-4z"/>
  <path class="fil0" d="M18 19c0,0 -1,1 -1,1 0,1 0,2 1,2 1,0 1,-1 1,-2 0,0 0,-1 0,-1 0,0 0,0 -1,0z"/>
  <path class="fil1" d="M20 21c0,1 -1,2 -2,2 -1,0 -2,-1 -2,-2 0,-2 1,-3 3,-3 0,0 0,0 0,0 1,0 1,2 1,3zm0 -6c0,0 0,0 0,0 -4,0 -7,10 -2,9 4,0 6,-7 2,-9z"/>
  <path class="fil2" d="M18 24c-5,1 -2,-9 2,-9 0,0 0,0 0,0 4,2 2,9 -2,9zm3 -10c0,0 0,0 0,0 -6,-1 -10,10 -4,12 5,1 9,-10 4,-12z"/>
  <path class="fil2" d="M19 20c0,1 0,2 -1,2 -1,0 -1,-1 -1,-2 0,0 1,-1 1,-1 1,0 1,0 1,0 0,0 0,1 0,1zm0 -2c0,0 0,0 0,0 -2,0 -3,1 -3,3 0,1 1,2 2,2 1,0 2,-1 2,-2 0,-1 0,-3 -1,-3z"/>
  <path class="fil1" d="M29 4c1,1 0,2 -1,3 -1,0 -3,0 -3,-2 -1,-1 1,-2 2,-3 1,0 2,1 2,2zm-5 -1c-1,2 -1,5 2,5 2,1 4,0 5,-2 1,-1 1,-2 1,-3 -1,-1 -1,-1 -2,-2 0,0 0,1 0,0 -1,0 -2,0 -4,0 -1,0 -2,1 -2,2z"/>
  <path class="fil0" d="M28 6c0,-1 1,-2 0,-2 0,-1 -1,-1 -1,-1 0,0 0,0 -1,0 0,0 0,1 0,1 0,0 -1,1 0,1 0,1 1,1 2,1z"/>
  <path class="fil2" d="M30 1c0,0 0,0 0,0 1,1 1,1 2,2 0,1 0,2 -1,3 -1,2 -3,3 -5,2 -3,0 -3,-3 -2,-5 0,-1 1,-2 2,-2 2,0 3,0 4,0zm-4 -1c-2,1 -3,2 -3,3 -1,2 -1,5 2,6 2,1 6,1 7,-2 2,-2 1,-6 -2,-7 0,0 0,0 0,1 -2,-1 -3,-1 -4,-1z"/>
  <path class="fil2" d="M26 4c0,0 0,-1 0,-1 1,0 1,0 1,0 0,0 1,0 1,1 1,0 0,1 0,2 -1,0 -2,0 -2,-1 -1,0 0,-1 0,-1zm-1 1c0,2 2,2 3,2 1,-1 2,-2 1,-3 0,-1 -1,-2 -2,-2 -1,1 -3,2 -2,3z"/>
  <path class="fil0" d="M33 16c0,1 0,1 0,1 0,0 0,0 0,0 0,0 0,0 -1,0 0,0 0,1 0,2 1,0 1,0 2,0 0,0 1,0 1,0 1,-1 -1,-3 -2,-3z"/>
  <path class="fil1" d="M36 20c-2,1 -4,1 -4,-1 -1,-1 -1,-2 0,-3 0,0 0,0 0,0 1,-2 6,2 4,4zm-4 -6c-1,0 -1,0 -1,0 -1,1 -1,3 -1,4 0,3 2,4 4,3 2,0 5,-2 4,-4 -1,-3 -4,-3 -6,-3z"/>
  <path class="fil2" d="M34 21c-2,1 -4,0 -4,-3 0,-1 0,-3 1,-4 0,0 0,0 1,0 2,0 5,0 6,3 1,2 -2,4 -4,4zm-1 -8c0,0 -1,0 -1,0 -2,0 -3,3 -3,5 -1,3 2,5 5,5 3,-1 5,-3 5,-6 0,-3 -4,-4 -6,-4z"/>
  <path class="fil2" d="M35 19c0,0 -1,0 -1,0 -1,0 -1,0 -2,0 0,-1 0,-2 0,-2 1,0 1,0 1,0 0,0 0,0 0,0 0,0 0,0 0,-1 1,0 3,2 2,3zm-3 -3c0,0 0,0 0,0 -1,1 -1,2 0,3 0,2 2,2 4,1 2,-2 -3,-6 -4,-4z"/>
 </g>
</svg>
