<?xml version="1.0" encoding="UTF-8"?>
<!DOCTYPE svg PUBLIC "-//W3C//DTD SVG 1.1//EN" "http://www.w3.org/Graphics/SVG/1.1/DTD/svg11.dtd">
<!-- Creator: CorelDRAW X7 -->
<svg xmlns="http://www.w3.org/2000/svg" xml:space="preserve" width="0.744744in" height="0.588386in" version="1.1" style="shape-rendering:geometricPrecision; text-rendering:geometricPrecision; image-rendering:optimizeQuality; fill-rule:evenodd; clip-rule:evenodd"
viewBox="0 0 1147 906"
 xmlns:xlink="http://www.w3.org/1999/xlink">
 <defs>
  <style type="text/css">
   <![CDATA[
    .fil0 {fill:#EEF1BE}
    .fil2 {fill:#C0D968}
    .fil1 {fill:#9EB549}
    .fil3 {fill:#7D8642}
   ]]>
  </style>
 </defs>
 <g id="Layer_x0020_1">
  <metadata id="CorelCorpID_0Corel-Layer"/>
  <path class="fil0" d="M184 275c3,-15 5,-36 -11,-40 -2,8 -3,17 0,25 3,6 7,11 11,15z"/>
  <path class="fil0" d="M222 365c5,-2 8,-9 8,-14 -1,-5 -4,-9 -8,-12 -7,-6 -16,-10 -25,-12 2,7 5,14 8,21 3,5 10,20 17,17z"/>
  <path class="fil1" d="M369 309c1,0 2,1 2,3 1,13 6,26 10,39 1,-3 2,-6 2,-9 10,-49 6,-94 -10,-137 4,34 3,70 -4,104z"/>
  <path class="fil1" d="M355 362c-1,15 3,29 8,43 5,-12 10,-24 14,-37 -3,-14 -9,-28 -12,-42 -3,12 -6,24 -10,36z"/>
  <path class="fil0" d="M138 369c9,-1 14,-17 17,-24 1,-3 3,-9 5,-14 -9,4 -18,9 -26,14 -3,3 -10,8 -9,13 0,5 8,11 13,11z"/>
  <path class="fil2" d="M169 322c4,-1 5,5 1,6 0,0 0,0 -1,0 2,2 1,5 -1,7 2,-1 0,3 -1,4 0,3 -1,6 -2,9 -3,6 -5,13 -9,19 -8,11 -21,17 -32,7 -32,-26 25,-50 45,-52zm-4 -93c0,-2 2,-3 4,-3 30,1 28,35 22,57 -1,2 -3,3 -5,2 -1,1 -1,1 -2,0 -22,-10 -25,-36 -19,-56zm69 107c8,11 7,30 -6,37 -23,12 -41,-35 -38,-53 0,-2 2,-5 5,-4 14,1 30,9 39,20zm-176 155c86,51 204,10 253,-71 52,-87 77,-234 2,-316 0,0 0,-1 -1,-1 -32,-32 -90,0 -121,20 -34,21 -69,47 -97,76 -39,41 -67,91 -75,148 -7,49 -10,115 39,144z"/>
  <path class="fil1" d="M200 521c-23,7 -47,10 -70,9 3,12 7,24 12,36 21,-3 42,-7 62,-14 0,0 0,-1 0,-1 -3,-10 -4,-20 -4,-30z"/>
  <path class="fil1" d="M78 519c1,8 4,16 7,24 3,8 7,15 10,23 3,0 7,1 10,1 9,0 18,0 27,0 -4,-13 -8,-25 -10,-38 -15,-1 -30,-4 -44,-10z"/>
  <path class="fil1" d="M69 516c-10,-6 -20,-12 -30,-20 -1,-1 -2,-2 -3,-3 5,9 10,18 15,28 8,15 17,31 31,39 -2,-5 -4,-10 -6,-15 -3,-9 -6,-19 -7,-29z"/>
  <path class="fil1" d="M270 486c1,10 2,19 3,29 0,-1 1,-1 1,-1 12,-9 22,-18 33,-29 -2,-9 -4,-18 -5,-27 -9,10 -20,20 -32,28z"/>
  <path class="fil1" d="M311 447c0,0 -1,1 -1,1 1,10 3,19 5,28 6,-7 12,-14 17,-21 -1,-12 -3,-24 -3,-37 -6,10 -12,20 -18,29z"/>
  <path class="fil1" d="M263 491c-17,11 -35,21 -55,27 1,10 2,20 5,30 18,-7 36,-16 52,-27 -2,-10 -2,-20 -2,-30z"/>
  <path class="fil1" d="M333 411c2,0 4,2 4,4 0,10 2,20 3,29 6,-9 12,-18 17,-27 -4,-13 -7,-25 -9,-37 -5,11 -10,21 -15,31z"/>
  <path class="fil3" d="M19 347c8,-57 36,-107 75,-148 28,-29 63,-55 97,-76 31,-20 89,-52 121,-20 1,0 1,1 1,1 75,82 50,229 -2,316 -49,81 -167,122 -253,71 -49,-29 -46,-95 -39,-144zm-5 84c3,22 12,42 22,62 1,1 2,2 3,3 10,8 20,14 30,20 0,-3 0,-5 1,-8 0,-4 7,-5 7,0 0,4 0,8 1,11 14,6 29,9 44,10 -1,-3 -1,-6 -1,-9 0,-4 6,-4 6,-1 1,4 2,7 3,11 23,1 47,-2 70,-9 0,-3 0,-7 0,-10 0,-5 7,-5 7,0 1,2 1,5 1,7 20,-6 38,-16 55,-27 0,-4 0,-8 1,-13 0,-4 6,-4 6,0 0,3 0,6 0,8 12,-8 23,-18 32,-28 -1,-6 -1,-12 0,-18 1,-4 7,-3 7,1 0,2 1,5 1,7 0,0 1,-1 1,-1 6,-9 12,-19 18,-29 0,-1 0,-2 0,-3 0,-3 2,-4 4,-4 5,-10 10,-20 15,-31 -1,-6 -1,-13 -1,-19 0,-5 8,-5 8,0 0,0 0,1 0,1 4,-12 7,-24 10,-36 -1,-5 -1,-10 -1,-14 0,-4 3,-4 5,-3 7,-34 8,-70 4,-104 -7,-17 -15,-33 -26,-50 -4,-6 6,-12 10,-6 1,1 1,1 1,1 -8,-18 -18,-36 -30,-52 -61,-74 -196,47 -238,85 -45,43 -74,99 -85,160 -6,34 -8,71 3,104 -1,-5 -2,-10 -1,-15 0,-4 6,-5 7,-1z"/>
  <path class="fil3" d="M173 235c16,4 14,25 11,40 -4,-4 -8,-9 -11,-15 -3,-8 -2,-17 0,-25zm11 50c1,1 1,1 2,0 2,1 4,0 5,-2 6,-22 8,-56 -22,-57 -2,0 -4,1 -4,3 -6,20 -3,46 19,56z"/>
  <path class="fil3" d="M134 345c8,-5 17,-10 26,-14 -2,5 -4,11 -5,14 -3,7 -8,23 -17,24 -5,0 -13,-6 -13,-11 -1,-5 6,-10 9,-13zm-10 29c11,10 24,4 32,-7 4,-6 6,-13 9,-19 1,-3 2,-6 2,-9 1,-1 3,-5 1,-4 2,-2 3,-5 1,-7 1,0 1,0 1,0 4,-1 3,-7 -1,-6 -20,2 -77,26 -45,52z"/>
  <path class="fil3" d="M222 339c4,3 7,7 8,12 0,5 -3,12 -8,14 -7,3 -15,-12 -17,-17 -3,-7 -6,-14 -8,-21 9,2 18,6 25,12zm-32 -19c-3,18 15,65 38,53 13,-7 14,-26 6,-37 -9,-11 -25,-19 -39,-20 -3,-1 -5,2 -5,4z"/>
  <path class="fil3" d="M357 149c-4,-6 -14,0 -10,6 11,17 19,33 26,50 16,43 20,88 10,137 0,3 -1,6 -2,9 2,5 3,10 4,15 1,5 -7,7 -8,2 0,0 0,0 0,0 -4,13 -9,25 -14,37 1,3 2,7 3,10 1,6 -7,8 -9,3 0,-1 0,-1 0,-1 -5,9 -11,18 -17,27 0,6 1,11 2,16 0,6 -8,6 -9,0 0,-2 0,-3 -1,-5 -5,7 -11,14 -17,21 0,3 1,6 2,8 1,6 -9,9 -10,3 0,-1 0,-1 0,-2 -11,11 -21,20 -33,29 0,0 -1,0 -1,1 0,0 0,0 0,0 1,1 1,1 1,1 1,3 1,5 0,8 -1,4 -7,5 -8,0 -1,-1 -1,-2 -1,-3 -16,11 -34,20 -52,27 0,1 0,1 0,1 1,6 -7,8 -9,3 -20,7 -41,11 -62,14 0,2 1,4 2,5 2,6 -7,8 -9,3 -1,-3 -2,-5 -3,-7 -9,0 -18,0 -27,0 -3,0 -7,-1 -10,-1 1,2 2,5 3,7 1,4 -4,7 -7,4 -4,-5 -7,-11 -9,-17 -14,-8 -23,-24 -31,-39 -5,-10 -10,-19 -15,-28 -10,-20 -19,-40 -22,-62 -1,-4 -7,-3 -7,1 -1,5 0,10 1,15 3,26 17,50 28,73 11,23 22,45 46,56 24,10 54,5 79,1 37,-6 73,-21 105,-41 62,-38 105,-103 126,-171 23,-75 10,-151 -34,-215 0,0 0,0 -1,-1z"/>
  <path class="fil3" d="M78 519c-1,-3 -1,-7 -1,-11 0,-5 -7,-4 -7,0 -1,3 -1,5 -1,8 1,10 4,20 7,29 2,5 4,10 6,15 2,6 5,12 9,17 3,3 8,0 7,-4 -1,-2 -2,-5 -3,-7 -3,-8 -7,-15 -10,-23 -3,-8 -6,-16 -7,-24z"/>
  <path class="fil3" d="M127 519c0,-3 -6,-3 -6,1 0,3 0,6 1,9 2,13 6,25 10,38 1,2 2,4 3,7 2,5 11,3 9,-3 -1,-1 -2,-3 -2,-5 -5,-12 -9,-24 -12,-36 -1,-4 -2,-7 -3,-11z"/>
  <path class="fil3" d="M207 511c0,-5 -7,-5 -7,0 0,3 0,7 0,10 0,10 1,20 4,30 0,0 0,1 0,1 2,5 10,3 9,-3 0,0 0,0 0,-1 -3,-10 -4,-20 -5,-30 0,-2 0,-5 -1,-7z"/>
  <path class="fil3" d="M270 478c0,-4 -6,-4 -6,0 -1,5 -1,9 -1,13 0,10 0,20 2,30 0,1 0,2 1,3 1,5 7,4 8,0 1,-3 1,-5 0,-8 0,0 0,0 -1,-1 0,0 0,0 0,0 -1,-10 -2,-19 -3,-29 0,-2 0,-5 0,-8z"/>
  <path class="fil3" d="M309 441c0,-4 -6,-5 -7,-1 -1,6 -1,12 0,18 1,9 3,18 5,27 0,1 0,1 0,2 1,6 11,3 10,-3 -1,-2 -2,-5 -2,-8 -2,-9 -4,-18 -5,-28 0,-2 -1,-5 -1,-7z"/>
  <path class="fil3" d="M333 411c-2,0 -4,1 -4,4 0,1 0,2 0,3 0,13 2,25 3,37 1,2 1,3 1,5 1,6 9,6 9,0 -1,-5 -2,-10 -2,-16 -1,-9 -3,-19 -3,-29 0,-2 -2,-4 -4,-4z"/>
  <path class="fil3" d="M355 361c0,-5 -8,-5 -8,0 0,6 0,13 1,19 2,12 5,24 9,37 0,0 0,0 0,1 2,5 10,3 9,-3 -1,-3 -2,-7 -3,-10 -5,-14 -9,-28 -8,-43 0,0 0,-1 0,-1z"/>
  <path class="fil3" d="M369 309c-2,-1 -5,-1 -5,3 0,4 0,9 1,14 3,14 9,28 12,42 0,0 0,0 0,0 1,5 9,3 8,-2 -1,-5 -2,-10 -4,-15 -4,-13 -9,-26 -10,-39 0,-2 -1,-3 -2,-3z"/>
  <path class="fil1" d="M758 420c0,5 1,9 1,13 1,6 1,12 3,17 1,4 4,6 4,10 1,1 0,2 0,2 8,9 17,16 26,23 -2,-13 -4,-25 -4,-38 -11,-8 -21,-17 -30,-27z"/>
  <path class="fil1" d="M749 409c-9,-11 -16,-24 -22,-37 -4,-10 -8,-20 -11,-31 4,37 14,72 34,102 0,0 0,-1 0,-1 -1,-11 -2,-22 -1,-33z"/>
  <path class="fil1" d="M963 479c-9,3 -20,5 -30,7 1,10 2,20 0,30 10,-1 19,-3 28,-5 0,-5 1,-9 1,-11 0,-7 1,-14 1,-21z"/>
  <path class="fil1" d="M833 472c-13,-5 -25,-11 -36,-18 2,13 4,25 6,38 10,6 20,11 31,15 -2,-12 -1,-29 -1,-35z"/>
  <path class="fil1" d="M873 484c-11,-2 -21,-5 -31,-9 1,9 0,17 1,26 0,2 2,6 2,9 25,8 51,10 78,8 1,-11 1,-21 1,-31 -17,1 -34,0 -51,-3z"/>
  <path class="fil1" d="M1021 452c-15,10 -32,18 -49,24 -1,9 0,19 0,29 0,0 0,1 0,2 15,-5 29,-12 42,-20 1,-5 3,-11 4,-15 1,-7 2,-14 3,-20z"/>
  <path class="fil1" d="M1030 445c0,10 -1,20 -3,30 0,0 0,2 0,3 14,-11 26,-24 38,-38 1,-8 0,-17 1,-25 -11,11 -23,21 -36,30z"/>
  <path class="fil0" d="M987 246c6,-1 13,-4 15,-11 1,-3 3,-13 -1,-16 -14,-7 -39,10 -49,22 10,6 24,8 35,5z"/>
  <path class="fil0" d="M914 340c28,-2 13,-37 -1,-51 -8,13 -20,52 1,51z"/>
  <path class="fil1" d="M1075 427c5,-8 10,-16 15,-24 13,-22 24,-46 32,-70 -12,27 -29,52 -49,74 1,6 2,13 2,20z"/>
  <path class="fil0" d="M917 203c1,-9 4,-17 3,-26 0,-7 -4,-13 -10,-16 -6,-3 -12,0 -13,7 -1,11 7,33 20,35z"/>
  <path class="fil2" d="M884 235c2,0 3,1 4,2l0 0c2,1 2,4 1,5 -10,13 -22,28 -38,33 -13,4 -30,-4 -30,-20 0,-25 44,-26 63,-20zm8 -77c8,-13 23,-7 31,2 12,14 1,32 2,48 0,3 -2,4 -4,4 -1,0 -2,1 -3,1 -22,-1 -39,-38 -26,-55zm54 79c7,-12 21,-21 34,-26 10,-4 29,-6 32,9 11,42 -49,45 -72,24 -4,-3 1,-9 6,-7zm-32 113c-31,-2 -24,-51 -6,-67 -1,-4 3,-8 6,-5 13,9 23,26 26,41 3,16 -8,32 -26,31zm-37 120c117,18 235,-86 251,-201 8,-57 2,-121 -35,-169 -28,-37 -68,-64 -111,-82 -28,-8 -74,-2 -88,3 -30,10 -61,24 -85,44 -43,36 -75,85 -86,139 -25,113 30,247 154,266z"/>
  <path class="fil0" d="M839 267c7,1 13,-2 19,-6 8,-6 14,-13 20,-20 -6,-1 -14,-1 -21,0 -7,0 -24,2 -27,11 -1,6 4,14 9,15z"/>
  <path class="fil3" d="M723 204c12,-54 43,-103 86,-139 24,-20 55,-34 85,-44 14,-5 60,-11 88,-3 43,18 83,45 111,82 37,48 43,112 35,169 -16,114 -134,219 -251,201 -124,-19 -179,-153 -154,-266zm-10 65c-1,24 0,48 3,72 3,11 7,21 11,31 6,13 13,26 22,37 0,-3 0,-6 1,-9 0,-4 6,-4 7,0 0,7 1,14 1,20 9,10 19,19 30,27 0,-1 0,-3 0,-5 0,-5 8,-5 8,0 0,4 1,8 1,12 11,7 23,13 36,18 0,-1 0,-1 0,-1 0,-5 7,-6 8,-2 0,2 1,4 1,6 10,4 20,7 31,9 17,3 34,4 51,3 0,-3 0,-6 1,-9 0,-5 7,-5 8,0 0,3 0,5 0,8 10,-2 21,-4 30,-7 1,-5 1,-9 2,-14 1,-5 9,-3 8,2 -1,3 -1,6 -1,9 17,-6 34,-14 49,-24 1,-4 1,-8 2,-12 0,-5 6,-3 7,1 0,1 0,3 0,4 13,-9 25,-19 36,-30 0,-4 0,-8 1,-11 0,-3 5,-3 6,0 0,1 0,2 0,3 20,-22 37,-47 49,-74 13,-38 20,-78 14,-119 0,-5 7,-6 8,-1 0,2 1,4 1,6 -2,-42 -13,-83 -35,-119 -34,-54 -88,-88 -149,-98 -27,-5 -55,1 -71,6 -32,9 -64,26 -90,46 -46,36 -77,90 -91,146 -7,29 -8,59 -5,88 1,-6 1,-12 2,-19 0,-4 7,-4 7,0z"/>
  <path class="fil3" d="M897 168c1,-7 7,-10 13,-7 6,3 10,9 10,16 1,9 -2,17 -3,26 -13,-2 -21,-24 -20,-35zm21 45c1,0 2,-1 3,-1 2,0 4,-1 4,-4 -1,-16 10,-34 -2,-48 -8,-9 -23,-15 -31,-2 -13,17 4,54 26,55z"/>
  <path class="fil3" d="M830 252c3,-9 20,-11 27,-11 7,-1 15,-1 21,0 -6,7 -13,14 -20,20 -6,4 -12,8 -19,6 -5,-1 -10,-9 -9,-15zm21 23c16,-5 28,-20 38,-33 1,-1 1,-4 -1,-5l0 0c-1,-1 -2,-2 -4,-2 -19,-6 -63,-5 -63,20 0,16 17,24 30,20z"/>
  <path class="fil3" d="M914 340c-21,1 -9,-38 -1,-51 14,14 29,49 1,51zm0 -62c-3,-3 -7,1 -6,5 -18,16 -25,65 6,67 18,1 29,-15 26,-31 -3,-15 -13,-32 -26,-41z"/>
  <path class="fil3" d="M1001 219c4,3 2,13 1,16 -2,7 -9,10 -15,11 -11,3 -25,1 -35,-5 10,-12 35,-29 49,-22zm11 0c-3,-14 -22,-12 -32,-8 -13,5 -27,14 -34,26 -5,-2 -10,4 -6,7 23,21 83,18 72,-25z"/>
  <path class="fil3" d="M1145 219c0,-2 -1,-4 -1,-6 -1,-5 -8,-4 -8,1 6,41 -1,81 -14,119 -8,24 -19,48 -32,70 -5,8 -10,16 -15,24 0,7 0,13 -2,19 -2,6 -10,4 -9,-2 0,-1 1,-3 1,-4 -12,14 -24,27 -38,38 -1,6 -2,15 -6,17 -2,0 -4,1 -5,-1 -2,-2 -2,-4 -2,-7 -13,8 -27,15 -42,20 0,6 -1,15 -7,13 -3,-1 -4,-5 -4,-9 -9,2 -18,4 -28,5 0,3 -1,5 -1,7 -2,6 -11,3 -10,-3 0,-1 1,-2 1,-2 -27,2 -53,0 -78,-8 0,3 0,6 -3,7 -5,1 -7,-3 -8,-10 -11,-4 -21,-9 -31,-15 1,3 1,5 1,7 1,4 -2,7 -5,7 38,21 85,27 128,24 145,-11 235,-178 218,-311z"/>
  <path class="fil3" d="M792 485c-9,-7 -18,-14 -26,-23 -1,2 -2,3 -4,3 -9,0 -11,-14 -12,-22 -20,-30 -30,-65 -34,-102 -3,-24 -4,-48 -3,-72 0,-4 -7,-4 -7,0 -1,7 -1,13 -2,19 -4,62 8,126 46,176 13,17 28,30 45,40 0,-1 0,-1 0,-2 -1,-6 -2,-11 -3,-17z"/>
  <path class="fil3" d="M762 450c-2,-5 -2,-11 -3,-17 0,-4 -1,-8 -1,-13 0,-6 -1,-13 -1,-20 -1,-4 -7,-4 -7,0 -1,3 -1,6 -1,9 -1,11 0,22 1,33 0,0 0,1 0,1 1,8 3,22 12,22 2,0 3,-1 4,-3 0,0 1,-1 0,-2 0,-4 -3,-6 -4,-10z"/>
  <path class="fil3" d="M804 499c0,-2 0,-4 -1,-7 -2,-13 -4,-25 -6,-38 0,-4 -1,-8 -1,-12 0,-5 -8,-5 -8,0 0,2 0,4 0,5 0,13 2,25 4,38 1,6 2,11 3,17 0,1 0,1 0,2 1,1 2,2 4,2 3,0 6,-3 5,-7z"/>
  <path class="fil3" d="M842 475c0,-2 -1,-4 -1,-6 -1,-4 -8,-3 -8,2 0,0 0,0 0,1 0,6 -1,23 1,35 1,7 3,11 8,10 3,-1 3,-4 3,-7 0,-3 -2,-7 -2,-9 -1,-9 0,-17 -1,-26z"/>
  <path class="fil3" d="M933 486c0,-3 0,-5 0,-8 -1,-5 -8,-5 -8,0 -1,3 -1,6 -1,9 0,10 0,20 -1,31 0,0 -1,1 -1,2 -1,6 8,9 10,3 0,-2 1,-4 1,-7 2,-10 1,-20 0,-30z"/>
  <path class="fil3" d="M972 476c0,-3 0,-6 1,-9 1,-5 -7,-7 -8,-2 -1,5 -1,9 -2,14 0,7 -1,14 -1,21 0,2 -1,6 -1,11 0,4 1,8 4,9 6,2 7,-7 7,-13 0,-1 0,-2 0,-2 0,-10 -1,-20 0,-29z"/>
  <path class="fil3" d="M1030 445c0,-1 0,-3 0,-4 -1,-4 -7,-6 -7,-1 -1,4 -1,8 -2,12 -1,6 -2,13 -3,20 -1,4 -3,10 -4,15 0,3 0,5 2,7 1,2 3,1 5,1 4,-2 5,-11 6,-17 0,-1 0,-3 0,-3 2,-10 3,-20 3,-30z"/>
  <path class="fil3" d="M1073 404c-1,-3 -6,-3 -6,0 -1,3 -1,7 -1,11 -1,8 0,17 -1,25 0,1 -1,3 -1,4 -1,6 7,8 9,2 2,-6 2,-12 2,-19 0,-7 -1,-14 -2,-20 0,-1 0,-2 0,-3z"/>
  <path class="fil1" d="M695 797c4,-7 8,-14 11,-21 -7,8 -15,16 -25,23 -4,4 -8,7 -12,10 0,7 0,13 -1,19 10,-9 20,-19 27,-31z"/>
  <path class="fil1" d="M620 864c13,-7 26,-16 38,-26 -1,-1 -1,-1 -1,-2 2,-7 3,-13 4,-20 -14,10 -27,19 -42,27 1,7 1,14 1,21z"/>
  <path class="fil1" d="M519 878c0,4 1,9 1,13 8,1 16,1 23,1 0,-4 1,-8 1,-11 0,-6 0,-12 0,-18 -5,0 -11,-1 -16,-2 -3,0 -6,-1 -9,-1 0,6 0,12 0,18z"/>
  <path class="fil1" d="M553 891c19,-3 39,-10 58,-21 0,-8 0,-15 1,-23 -19,9 -39,16 -60,16 0,6 0,12 1,18 0,3 0,7 0,10z"/>
  <path class="fil1" d="M488 881c7,4 14,6 22,8 -1,-2 -1,-4 -1,-6 0,-9 1,-17 2,-25 -9,-3 -18,-6 -26,-9 1,8 1,15 1,23 1,3 2,6 2,9z"/>
  <path class="fil0" d="M500 652c-4,4 -7,10 -4,16 3,3 9,10 14,8 7,-2 9,-15 10,-21 2,-7 3,-14 3,-21 -9,4 -17,11 -23,18z"/>
  <path class="fil0" d="M610 573c-13,-21 -31,15 -35,33 6,-4 12,-7 17,-11 5,-3 22,-15 18,-22z"/>
  <path class="fil1" d="M458 862c6,5 12,9 18,13 0,-1 0,-2 0,-3 0,-9 0,-18 0,-27 -10,-4 -19,-10 -27,-17 1,9 1,18 1,27 3,2 5,5 8,7z"/>
  <path class="fil1" d="M439 819c-13,-11 -23,-26 -30,-43 -9,-20 -15,-41 -19,-63 3,48 15,93 49,131 0,-8 -1,-17 0,-25z"/>
  <path class="fil0" d="M603 635c6,8 25,29 25,10 1,-14 -15,-12 -25,-10z"/>
  <path class="fil2" d="M636 651c-10,25 -35,-2 -42,-14 -1,-2 0,-5 2,-6 0,-1 0,-2 2,-3 9,-2 19,-4 28,-1 9,4 13,15 10,24zm-73 66c-27,-3 -16,-58 -11,-74 1,-2 3,-3 5,-2 1,0 2,0 3,1 14,11 29,29 30,47 1,15 -12,30 -27,28zm-20 -124c-1,0 -1,0 -2,0 -15,-4 -30,-21 -29,-37 1,-10 12,-27 24,-24 10,3 12,16 13,25 1,11 0,22 0,33 0,3 -4,4 -6,3zm-12 39c1,15 -2,64 -29,52 -14,-6 -22,-22 -12,-35 9,-11 24,-20 38,-23 3,-1 4,2 3,4 0,1 0,1 0,2zm83 -68c21,20 -25,45 -40,52 -2,1 -4,0 -5,-1 -1,-1 -2,-2 -2,-3 -2,-20 22,-73 47,-48zm47 -84c-37,-38 -77,-87 -134,-76 -3,1 -18,3 -28,6 -89,34 -99,127 -100,215 -1,77 10,185 97,213 31,10 70,19 101,1 21,-13 42,-25 61,-39 51,-39 82,-91 74,-157 -8,-57 -30,-121 -71,-163z"/>
  <path class="fil0" d="M557 652c-1,8 -1,16 -1,23 -1,9 -2,25 5,31 5,4 13,-1 17,-4 5,-7 3,-16 0,-23 -5,-10 -12,-20 -21,-27z"/>
  <path class="fil0" d="M521 556c1,12 10,23 20,27 1,-13 2,-28 -4,-39 -5,-9 -16,6 -16,12z"/>
  <path class="fil3" d="M658 800c-19,14 -40,26 -61,39 -31,18 -70,9 -101,-1 -87,-28 -98,-136 -97,-213 1,-88 11,-181 100,-215 10,-3 25,-5 28,-6 57,-11 97,38 134,76 41,42 63,106 71,163 8,66 -23,118 -74,157zm87 -167c-8,-61 -37,-125 -80,-170 -38,-39 -80,-77 -135,-70 -1,-2 -16,2 -18,2 -65,15 -98,61 -113,116 1,-2 6,-2 6,2 -4,63 -18,134 -15,200 4,22 10,43 19,63 7,17 17,32 30,43 0,-2 0,-5 0,-7 0,-6 8,-6 8,0 1,5 1,11 2,16 8,7 17,13 27,17 0,-2 1,-4 1,-6 0,-5 7,-5 7,0 1,3 1,7 1,10 8,3 17,6 26,9 0,-1 0,-2 0,-3 0,-5 8,-5 8,0 0,2 0,3 0,5 3,0 6,1 9,1 5,1 11,2 16,2 0,-2 0,-4 0,-6 1,-5 8,-5 8,0 0,2 0,4 0,6 21,0 41,-7 60,-16 0,-3 0,-5 0,-8 1,-4 7,-4 7,0 0,1 0,3 0,4 15,-8 28,-17 42,-27 0,-3 0,-6 0,-9 0,-5 8,-5 8,0 0,1 0,1 0,2 4,-3 8,-6 12,-10 10,-7 18,-15 25,-23 9,-20 15,-40 23,-60 2,-5 8,-4 10,-1 8,-25 10,-53 6,-82z"/>
  <path class="fil3" d="M384 618c4,-35 9,-69 13,-102 -9,32 -12,68 -13,102z"/>
  <path class="fil3" d="M541 583c-10,-4 -19,-15 -20,-27 0,-6 11,-21 16,-12 6,11 5,26 4,39zm8 7c0,-11 1,-22 0,-33 -1,-9 -3,-22 -13,-25 -12,-3 -23,14 -24,24 -1,16 14,33 29,37 1,0 1,0 2,0 2,1 6,0 6,-3z"/>
  <path class="fil3" d="M520 655c-1,6 -3,19 -10,21 -5,2 -11,-5 -14,-8 -3,-6 0,-12 4,-16 6,-7 14,-14 23,-18 0,7 -1,14 -3,21zm8 -29c-14,3 -29,12 -38,23 -10,13 -2,29 12,35 27,12 30,-37 29,-52 0,-1 0,-1 0,-2 1,-2 0,-5 -3,-4z"/>
  <path class="fil3" d="M578 702c-4,3 -12,8 -17,4 -7,-6 -6,-22 -5,-31 0,-7 0,-15 1,-23 9,7 16,17 21,27 3,7 5,16 0,23zm-18 -60c-1,-1 -2,-1 -3,-1 -2,-1 -4,0 -5,2 -5,16 -16,71 11,74 15,2 28,-13 27,-28 -1,-18 -16,-36 -30,-47z"/>
  <path class="fil3" d="M610 573c4,7 -13,19 -18,22 -5,4 -11,7 -17,11 4,-18 22,-54 35,-33zm-41 42c1,1 3,2 5,1 15,-7 61,-32 40,-52 -25,-25 -49,28 -47,48 0,1 1,2 2,3z"/>
  <path class="fil3" d="M603 635c10,-2 26,-4 25,10 0,19 -19,-2 -25,-10zm23 -8c-9,-3 -19,-1 -28,1 -2,1 -2,2 -2,3 -2,1 -3,4 -2,6 7,12 32,39 42,14 3,-9 -1,-20 -10,-24z"/>
  <path class="fil3" d="M729 716c-8,20 -14,40 -23,60 -3,7 -7,14 -11,21 -7,12 -17,22 -27,31 0,4 -1,7 -1,11 -1,5 -9,4 -9,-1 -12,10 -25,19 -38,26 0,3 0,5 0,8 0,6 -9,6 -9,0 0,-1 0,-1 0,-2 -19,11 -39,18 -58,21 0,3 -1,7 -2,9 -2,2 -4,2 -5,0 -2,-2 -2,-5 -3,-8 -7,0 -15,0 -23,-1 0,2 0,4 -1,6 0,1 -2,2 -3,2 -4,-2 -6,-6 -6,-10 -8,-2 -15,-4 -22,-8 1,4 1,8 -2,11 -1,1 -3,1 -4,1 -6,-3 -6,-12 -6,-18 -6,-4 -12,-8 -18,-13 -3,-2 -5,-5 -8,-7 0,0 0,0 0,0 0,7 -11,7 -11,0 0,-4 0,-8 0,-11 -34,-38 -46,-83 -49,-131 -3,-66 11,-137 15,-200 0,-4 -5,-4 -6,-2 -1,1 -1,1 -1,2 -1,1 -1,2 -1,3 -4,33 -9,67 -13,102 -11,101 -8,204 86,268 51,35 107,19 156,-10 28,-16 52,-38 72,-63 22,-27 30,-62 41,-94 1,-2 0,-3 0,-4 -2,-3 -8,-4 -10,1z"/>
  <path class="fil3" d="M439 844c0,3 0,7 0,11 0,7 11,7 11,0 0,0 0,0 0,0 0,-9 0,-18 -1,-27 -1,-5 -1,-11 -2,-16 0,-6 -8,-6 -8,0 0,2 0,5 0,7 -1,8 0,17 0,25z"/>
  <path class="fil3" d="M476 872c0,1 0,2 0,3 0,6 0,15 6,18 1,0 3,0 4,-1 3,-3 3,-7 2,-11 0,-3 -1,-6 -2,-9 0,-8 0,-15 -1,-23 0,-3 0,-7 -1,-10 0,-5 -7,-5 -7,0 0,2 -1,4 -1,6 0,9 0,18 0,27z"/>
  <path class="fil3" d="M510 889c0,4 2,8 6,10 1,0 3,-1 3,-2 1,-2 1,-4 1,-6 0,-4 -1,-9 -1,-13 0,-6 0,-12 0,-18 0,-2 0,-3 0,-5 0,-5 -8,-5 -8,0 0,1 0,2 0,3 -1,8 -2,16 -2,25 0,2 0,4 1,6z"/>
  <path class="fil3" d="M543 892c1,3 1,6 3,8 1,2 3,2 5,0 1,-2 2,-6 2,-9 0,-3 0,-7 0,-10 -1,-6 -1,-12 -1,-18 0,-2 0,-4 0,-6 0,-5 -7,-5 -8,0 0,2 0,4 0,6 0,6 0,12 0,18 0,3 -1,7 -1,11z"/>
  <path class="fil3" d="M611 870c0,1 0,1 0,2 0,6 9,6 9,0 0,-3 0,-5 0,-8 0,-7 0,-14 -1,-21 0,-1 0,-3 0,-4 0,-4 -6,-4 -7,0 0,3 0,5 0,8 -1,8 -1,15 -1,23z"/>
  <path class="fil3" d="M658 838c0,5 8,6 9,1 0,-4 1,-7 1,-11 1,-6 1,-12 1,-19 0,-1 0,-1 0,-2 0,-5 -8,-5 -8,0 0,3 0,6 0,9 -1,7 -2,13 -4,20 0,1 0,1 1,2z"/>
 </g>
</svg>
