<?xml version="1.0" encoding="UTF-8"?>
<!DOCTYPE svg PUBLIC "-//W3C//DTD SVG 1.1//EN" "http://www.w3.org/Graphics/SVG/1.1/DTD/svg11.dtd">
<!-- Creator: CorelDRAW X7 -->
<svg xmlns="http://www.w3.org/2000/svg" xml:space="preserve" width="0.940835in" height="0.588118in" version="1.1" style="shape-rendering:geometricPrecision; text-rendering:geometricPrecision; image-rendering:optimizeQuality; fill-rule:evenodd; clip-rule:evenodd"
viewBox="0 0 180 112"
 xmlns:xlink="http://www.w3.org/1999/xlink">
 <defs>
  <style type="text/css">
   <![CDATA[
    .fil1 {fill:#FFF3DB}
    .fil7 {fill:#F59394}
    .fil5 {fill:#FCD94A}
    .fil8 {fill:#E36E70}
    .fil0 {fill:#DAAD6F}
    .fil6 {fill:#D3B63C}
    .fil4 {fill:#BF9662}
    .fil2 {fill:#B8C655}
    .fil3 {fill:#7D8642}
   ]]>
  </style>
 </defs>
 <g id="Layer_x0020_1">
  <metadata id="CorelCorpID_0Corel-Layer"/>
  <path class="fil0" d="M86 61c2,0 3,-2 3,-3 0,0 0,0 0,0 -1,-1 -1,-1 -2,-1 -2,0 -3,1 -3,2 0,1 1,2 2,2z"/>
  <path class="fil1" d="M91 57c0,1 0,1 0,1 0,0 0,0 -1,0 0,0 0,0 0,0 0,2 -2,4 -4,4 -1,0 -3,-1 -3,-2 -1,-2 1,-4 2,-4 2,-1 5,0 6,1zm-9 -32c-3,2 -5,4 -7,7 -7,8 -7,22 -5,32 2,10 6,19 11,27 5,8 12,16 22,16 0,0 0,0 1,0 -2,-7 -3,-14 -4,-21 -1,-8 -2,-16 -4,-25 -1,-7 -2,-15 -4,-23 -1,-6 -3,-13 -3,-20 0,0 0,0 0,0 0,0 0,0 0,0 -2,1 -7,6 -7,7z"/>
  <path class="fil2" d="M79 92c-6,-9 -10,-20 -12,-31 -1,-11 0,-24 8,-32 1,-1 9,-10 13,-12 -4,-1 -16,13 -18,14 -7,9 -7,22 -6,32 1,12 5,25 12,34 3,5 7,9 13,11 4,2 9,4 13,1 -10,0 -18,-8 -23,-17z"/>
  <path class="fil3" d="M89 18c0,7 2,14 3,20 2,8 3,16 4,23 2,9 3,17 4,25 1,7 2,14 4,21 0,1 0,1 0,2 0,0 1,1 0,1 1,1 2,0 2,-1 0,0 0,-1 0,-1 -3,-15 -4,-30 -7,-44 -1,-8 -2,-16 -4,-24 -2,-8 -4,-15 -4,-23 0,-1 -1,-1 -1,0 0,0 0,0 0,1 0,0 0,0 -1,0z"/>
  <path class="fil3" d="M104 107c-1,0 -1,0 -1,0 -10,0 -17,-8 -22,-16 -5,-8 -9,-17 -11,-27 -2,-10 -2,-24 5,-32 2,-3 4,-5 7,-7 0,-1 5,-6 7,-7 0,0 -1,-1 -1,-1 -4,2 -12,11 -13,12 -8,8 -9,21 -8,32 2,11 6,22 12,31 5,9 13,17 23,17 1,0 1,0 1,0 0,-1 1,-1 1,0 0,-1 0,-1 0,-2z"/>
  <path class="fil3" d="M75 100c4,5 8,8 14,11 5,1 11,2 15,-1 0,0 0,0 0,0 1,0 0,-1 0,-1 0,-1 -1,-1 -1,0 0,0 0,0 -1,0 -4,3 -9,1 -13,-1 -6,-2 -10,-6 -13,-11 -7,-9 -11,-22 -12,-34 -1,-10 -1,-23 6,-32 2,-1 14,-15 18,-14 0,0 1,1 1,1 0,0 0,0 0,0 0,0 0,0 0,0 1,0 1,0 1,0 0,-1 0,-1 0,-1 -2,-6 -15,6 -17,8 -4,4 -7,8 -9,14 -2,7 -2,14 -2,21 1,14 5,29 13,40z"/>
  <path class="fil4" d="M87 57c1,0 1,0 2,1 0,0 0,0 0,0 0,1 -1,3 -3,3 -1,0 -2,-1 -2,-2 0,-1 1,-2 3,-2zm-4 3c0,1 2,2 3,2 2,0 4,-2 4,-4 0,0 0,0 0,0 1,0 1,0 1,0 0,0 0,0 0,-1 -1,-1 -4,-2 -6,-1 -1,0 -3,2 -2,4z"/>
  <path class="fil1" d="M36 51c0,0 0,1 -1,1 -2,1 -10,0 -8,-5 1,-5 8,0 9,3 1,0 0,1 0,1zm-1 5c0,0 0,0 0,0 1,0 0,1 0,1 0,0 0,1 0,1 -1,1 -1,2 -2,3 0,1 -2,4 -4,4 -2,0 -2,-4 -1,-6 1,-2 4,-4 7,-4 1,0 1,1 0,1zm3 38c1,-8 1,-16 1,-24 0,-8 0,-15 0,-23 0,-7 0,-14 2,-21 1,-7 3,-14 3,-22 -10,1 -19,10 -25,17 -8,9 -11,21 -12,32 0,12 2,23 8,33 2,6 6,9 11,13 3,3 6,8 11,9 0,0 0,0 0,0 0,-1 0,-3 1,-4 0,-3 0,-7 0,-10z"/>
  <path class="fil0" d="M29 60c0,1 0,5 1,3 1,-1 2,-3 3,-4 0,-1 0,-2 1,-2 0,0 0,-1 0,-1 -2,1 -4,2 -5,4z"/>
  <path class="fil0" d="M28 48c0,3 5,3 7,3 0,0 0,0 0,0 -1,-2 -7,-7 -7,-3z"/>
  <path class="fil5" d="M24 100c-5,-3 -8,-7 -11,-12 -6,-12 -8,-24 -8,-36 1,-12 5,-24 13,-33 6,-7 15,-16 24,-17 -9,-2 -18,6 -24,12 -8,8 -12,18 -14,28 -3,13 -3,28 2,40 3,7 7,12 13,17 2,3 5,5 8,7 2,0 3,1 4,1 -2,-2 -5,-5 -7,-7z"/>
  <path class="fil6" d="M45 4c0,0 0,0 -1,0 0,8 -2,15 -3,22 -2,7 -2,14 -2,21 0,8 0,15 0,23 0,8 0,16 -1,24 0,3 0,7 0,10 -1,1 -1,3 -1,4 1,1 1,2 0,2 0,1 -1,1 -1,1 0,0 0,0 0,0 5,1 5,-33 5,-36 0,-8 0,-15 0,-22 0,-9 0,-18 1,-27 2,-7 4,-15 4,-22 0,0 -1,0 -1,0z"/>
  <path class="fil6" d="M44 3c0,0 -1,0 -2,-1 -9,1 -18,10 -24,17 -8,9 -12,21 -13,33 0,12 2,24 8,36 3,5 6,9 11,12 2,2 5,5 7,7 2,1 3,2 5,2 1,0 1,1 1,1 1,0 1,-1 0,-2 0,0 0,0 0,0 -5,-1 -8,-6 -11,-9 -5,-4 -9,-7 -11,-13 -6,-10 -8,-21 -8,-33 1,-11 4,-23 12,-32 6,-7 15,-16 25,-17 1,0 1,0 1,0 0,0 1,0 1,0 0,-1 0,-1 -1,-1 0,0 0,0 -1,0z"/>
  <path class="fil6" d="M17 100c2,2 5,5 8,7 4,2 7,3 11,4 0,0 0,0 0,0 0,0 1,0 1,-1 0,0 0,-1 -1,-1 -2,0 -3,-1 -5,-2 -1,0 -2,-1 -4,-1 -3,-2 -6,-4 -8,-7 -6,-5 -10,-10 -13,-17 -5,-12 -5,-27 -2,-40 2,-10 6,-20 14,-28 6,-6 15,-14 24,-12 1,1 2,1 2,1 1,0 1,0 1,0 1,-1 0,-1 0,-1 -9,-6 -20,2 -26,8 -9,8 -14,18 -17,30 -3,14 -3,29 2,43 3,6 7,12 13,17z"/>
  <path class="fil4" d="M35 51c-2,0 -7,0 -7,-3 0,-4 6,1 7,3 0,0 0,0 0,0zm-8 -4c-2,5 6,6 8,5 1,0 1,-1 1,-1 0,0 1,-1 0,-1 -1,-3 -8,-8 -9,-3z"/>
  <path class="fil4" d="M34 57c-1,0 -1,1 -1,2 -1,1 -2,3 -3,4 -1,2 -1,-2 -1,-3 1,-2 3,-3 5,-4 0,0 0,1 0,1zm1 -2c-3,0 -6,2 -7,4 -1,2 -1,6 1,6 2,0 4,-3 4,-4 1,-1 1,-2 2,-3 0,0 0,-1 0,-1 0,0 1,-1 0,-1 0,0 0,0 0,0 1,0 1,-1 0,-1z"/>
  <path class="fil0" d="M157 39c-4,0 0,7 2,8 1,-1 1,-3 0,-5 0,-1 -1,-3 -2,-3z"/>
  <path class="fil1" d="M161 47c-1,2 -2,2 -2,2 -3,-1 -8,-9 -3,-11 4,-2 5,6 5,9zm-4 13c0,1 -2,5 -4,4 -3,-1 -3,-5 -2,-7 2,-2 4,-4 7,-5 1,0 1,0 1,1 0,2 -1,5 -2,7zm-11 -8c0,0 0,0 0,0 -1,-3 0,-6 3,-6 2,0 5,1 6,3 1,1 -1,1 -1,2 -2,1 -5,2 -8,1zm16 -43c-5,1 -9,3 -13,7 -9,7 -17,17 -19,28 -5,21 1,47 19,60 0,0 0,0 0,0 4,-8 6,-16 8,-24 2,-8 4,-17 6,-25 4,-16 12,-30 15,-46 -1,0 -1,-1 -1,-1 0,0 0,0 0,0 -4,-2 -10,-1 -15,1z"/>
  <path class="fil0" d="M152 58c0,1 0,3 1,4 0,0 0,1 1,0 1,-1 2,-3 3,-5 0,-1 1,-2 1,-4 -2,1 -5,3 -6,5z"/>
  <path class="fil0" d="M147 51c0,1 4,1 7,-2 -1,0 -3,-1 -4,-1 -2,0 -3,1 -3,3z"/>
  <path class="fil7" d="M128 41c3,-11 11,-22 21,-29 5,-3 10,-5 16,-6 4,-1 8,-2 12,0 -4,-7 -23,1 -27,2 -5,3 -11,6 -15,11 -4,6 -6,13 -7,19 -2,8 -5,15 -6,23 0,6 1,13 4,19 3,10 10,20 20,24 -18,-14 -24,-41 -18,-63z"/>
  <path class="fil8" d="M178 8c0,0 0,0 0,0 0,1 0,1 0,1 -3,16 -11,30 -15,46 -2,8 -4,17 -6,25 -2,8 -4,16 -8,24 1,1 1,1 1,1 0,0 0,1 0,1 1,0 1,0 1,-1 4,-8 6,-16 8,-24 3,-9 4,-17 6,-25 4,-17 14,-32 15,-49 0,0 -1,-1 -1,-1 0,1 0,1 0,1 0,0 0,1 -1,1z"/>
  <path class="fil8" d="M149 104c0,0 0,0 0,0 -18,-13 -24,-39 -19,-60 2,-11 10,-21 19,-28 4,-4 8,-6 13,-7 5,-2 11,-3 15,-1 0,-1 0,-2 0,-2 -4,-2 -8,-1 -12,0 -6,1 -11,3 -16,6 -10,7 -18,18 -21,29 -6,22 0,49 18,63 1,0 2,1 4,1 0,0 0,0 0,0 0,0 0,0 -1,-1z"/>
  <path class="fil8" d="M178 8c1,0 1,-1 1,-1 0,0 0,0 0,-1 -1,0 -1,0 -1,0 0,1 0,1 0,2z"/>
  <path class="fil4" d="M159 47c-2,-1 -6,-8 -2,-8 1,0 2,2 2,3 1,2 1,4 0,5zm-3 -9c-5,2 0,10 3,11 0,0 1,0 2,-2 0,-3 -1,-11 -5,-9z"/>
  <path class="fil4" d="M157 57c-1,2 -2,4 -3,5 -1,1 -1,0 -1,0 -1,-1 -1,-3 -1,-4 1,-2 4,-4 6,-5 0,2 -1,3 -1,4zm1 -5c-3,1 -5,3 -7,5 -1,2 -1,6 2,7 2,1 4,-3 4,-4 1,-2 2,-5 2,-7 0,-1 0,-1 -1,-1z"/>
  <path class="fil8" d="M149 107c1,0 1,0 1,-1 0,0 0,-1 0,-1 0,0 0,0 0,0 -2,0 -3,-1 -4,-1 -10,-4 -17,-14 -20,-24 -3,-6 -4,-13 -4,-19 1,-8 4,-15 6,-23 1,-6 3,-13 7,-19 4,-5 10,-8 15,-11 4,-1 23,-9 27,-2 0,0 0,1 0,2 0,0 0,0 0,0 0,0 0,1 1,1 0,0 0,0 0,-1 0,0 0,0 0,0 0,-1 0,-1 0,-2 -1,-8 -15,-4 -20,-2 -6,2 -13,5 -18,9 -6,5 -10,11 -12,18 -1,4 -2,7 -3,11 -1,5 -3,9 -4,13 -1,8 0,16 2,24 4,12 13,24 26,28z"/>
  <path class="fil4" d="M147 51c0,-2 1,-3 3,-3 1,0 3,1 4,1 -3,3 -7,3 -7,2zm8 -2c-1,-2 -4,-3 -6,-3 -3,0 -4,3 -3,6 0,0 0,0 0,0 3,1 6,0 8,-1 0,-1 2,-1 1,-2z"/>
 </g>
</svg>
