<?xml version="1.0" encoding="UTF-8"?>
<!DOCTYPE svg PUBLIC "-//W3C//DTD SVG 1.1//EN" "http://www.w3.org/Graphics/SVG/1.1/DTD/svg11.dtd">
<!-- Creator: CorelDRAW X7 -->
<svg xmlns="http://www.w3.org/2000/svg" xml:space="preserve" width="0.572705in" height="0.642476in" version="1.1" style="shape-rendering:geometricPrecision; text-rendering:geometricPrecision; image-rendering:optimizeQuality; fill-rule:evenodd; clip-rule:evenodd"
viewBox="0 0 183 205"
 xmlns:xlink="http://www.w3.org/1999/xlink">
 <defs>
  <style type="text/css">
   <![CDATA[
    .fil2 {fill:#F9C5CF}
    .fil1 {fill:#EA6F72}
    .fil0 {fill:#E98495}
    .fil3 {fill:#C35966}
   ]]>
  </style>
 </defs>
 <g id="Layer_x0020_1">
  <metadata id="CorelCorpID_0Corel-Layer"/>
  <path class="fil0" d="M23 17c1,8 1,18 -1,27 -1,7 -2,16 -6,22 1,10 1,20 -1,30 -1,2 -2,5 -2,7 1,8 1,15 2,23 1,7 1,13 0,20 -1,8 -4,15 -6,22 -2,6 -5,15 -5,22 2,2 5,3 8,4 7,-15 6,-32 10,-48 1,-9 4,-18 3,-27 -1,-8 -3,-16 -2,-24 0,-8 1,-16 3,-24 2,-8 4,-16 5,-25 0,-7 -2,-14 -1,-22 1,-6 3,-10 6,-15 -4,-1 -9,-2 -12,0 0,2 -1,5 -1,8z"/>
  <path class="fil1" d="M12 150c1,-8 2,-16 1,-24 -1,-5 -2,-10 -2,-14 -2,10 -4,21 -4,32 1,11 -1,22 -3,33 1,-2 1,-4 2,-6 2,-7 5,-14 6,-21z"/>
  <path class="fil1" d="M21 23c0,1 -1,3 -1,4 -3,8 -4,16 -4,24 0,4 0,7 0,11 2,-7 4,-13 5,-20 0,-7 1,-13 0,-19z"/>
  <path class="fil0" d="M54 34c0,7 0,14 -2,21 -2,8 -5,16 -7,24 -2,9 -3,18 -4,27 -1,18 -1,35 -3,52 -2,13 -3,27 -7,40 0,0 1,0 1,0 3,1 7,3 12,4 -4,-13 -1,-26 1,-38 3,-18 8,-35 9,-52 2,-17 1,-33 3,-49 3,-17 9,-33 10,-50l0 0c-3,-1 -7,-1 -10,-2 -4,8 -4,15 -3,23z"/>
  <path class="fil1" d="M39 33c1,7 2,15 0,23 -2,8 -5,15 -6,23 -2,8 -1,17 0,25 1,15 2,30 -1,45 -3,16 -8,32 -9,48 2,0 4,0 6,1 5,-16 6,-33 7,-49 1,-18 1,-35 3,-52 1,-8 2,-15 5,-23 2,-8 5,-16 6,-24 3,-12 -2,-27 4,-39 -3,0 -7,-1 -10,-1 -2,8 -6,14 -5,23z"/>
  <path class="fil2" d="M57 112c-2,16 -5,32 -8,48 -3,13 -6,29 -2,42 3,1 6,1 8,-1 1,-10 7,-21 6,-32 0,-10 -4,-20 -1,-30 3,-10 8,-19 9,-30 2,-12 1,-24 -1,-36 -1,-10 3,-18 6,-27 2,-6 2,-12 2,-19 0,-4 2,-11 -3,-13 -1,0 -3,0 -4,-1 0,16 -5,31 -8,46 -3,18 -2,35 -4,53z"/>
  <path class="fil2" d="M32 31c1,8 2,15 0,22 -2,18 -8,35 -6,53 1,7 3,15 2,23 -1,8 -3,16 -5,24 -2,15 -2,29 -9,42 2,1 5,1 7,1 1,-15 5,-30 8,-45 2,-9 3,-18 3,-27 0,-8 -2,-16 -3,-25 0,-7 0,-15 2,-23 2,-8 5,-15 6,-23 1,-9 -1,-18 0,-27 0,-6 3,-11 5,-16l0 0c-1,0 -3,-1 -4,-1 -3,8 -6,14 -6,22z"/>
  <path class="fil3" d="M2 188c0,-4 1,-8 2,-11 2,-11 4,-22 3,-33 0,-11 2,-22 4,-32 0,-3 0,-6 0,-9 0,-1 2,-1 2,0 0,0 0,0 0,0 0,-2 1,-5 2,-7 2,-10 2,-20 1,-30 0,1 0,1 0,2 -1,0 -1,0 -1,-1 0,-2 1,-3 1,-5 0,-4 0,-7 0,-11 0,-8 1,-16 4,-24 0,-1 1,-3 1,-4 0,-1 0,-3 0,-5 0,-1 2,-3 2,-2 0,1 0,1 0,1 0,-3 1,-6 1,-8 0,0 0,0 0,0 -2,0 -2,-1 -2,-2 0,0 0,0 0,1 0,7 -3,13 -5,20 -2,7 -3,14 -4,21 0,8 1,15 1,23 1,8 -1,17 -3,25 -3,15 -7,29 -7,44 1,9 0,17 -1,25 -2,7 -4,15 -3,23 0,0 0,1 0,1 0,-1 1,-2 2,-2z"/>
  <path class="fil3" d="M78 13c-11,-4 -23,-5 -35,-6 -6,-1 -15,-3 -20,0 -1,0 -1,0 -1,0 0,1 0,2 2,2 0,0 0,0 0,0 3,-2 8,-1 12,0 0,-1 1,-1 1,-2 0,-1 2,0 2,1 -1,0 -1,1 -1,1 1,0 3,1 4,1l0 0c0,-1 0,-1 0,-1 1,-1 2,-1 2,0 0,1 0,1 0,1 3,0 7,1 10,1 0,0 1,-1 1,-2 1,-1 3,0 2,2 0,0 0,0 0,0 3,1 7,1 10,2 0,-1 2,-1 2,0 0,0 0,0 0,0 1,1 3,1 4,1 5,2 3,9 3,13 0,7 0,13 -2,19 -3,9 -7,17 -6,27 2,12 3,24 1,36 -1,11 -6,20 -9,30 -3,10 1,20 1,30 1,11 -5,22 -6,32 0,0 0,0 0,0 1,-1 2,0 2,0 1,-7 5,-15 6,-23 1,-7 1,-13 0,-20 -2,-10 -1,-17 2,-25 3,-9 6,-17 7,-25 1,-8 1,-16 1,-23 -1,-9 -3,-16 -1,-25 1,-7 5,-14 7,-22 1,-8 0,-16 0,-24 0,0 0,-1 -1,-1z"/>
  <path class="fil3" d="M57 203c0,0 0,0 0,0 0,0 0,0 0,0z"/>
  <path class="fil3" d="M55 201c0,0 0,0 0,0 -2,2 -5,2 -8,1 0,1 0,1 0,2 0,1 -2,0 -3,-1 0,-1 0,-1 0,-1 -5,-1 -9,-3 -12,-4 0,0 -1,0 -1,0 0,0 0,1 0,1 -1,1 -3,1 -3,-1 0,0 0,0 1,0 -2,-1 -4,-1 -6,-1 0,0 0,0 0,0 0,2 -2,2 -2,0 0,0 0,0 0,-1 -2,0 -5,0 -7,-1 0,0 0,1 0,1 -1,2 -3,0 -2,-1 0,0 0,0 0,-1 -3,-1 -6,-2 -8,-4 0,0 0,0 0,0 0,1 -2,-1 -2,-2 0,0 0,0 0,0 -1,0 -2,1 -2,2 0,0 0,0 1,0 8,11 22,9 33,12 6,1 18,6 23,1 0,0 0,0 0,0 0,0 0,0 0,0 0,-1 0,-1 0,-2 0,0 -1,-1 -2,0z"/>
  <path class="fil3" d="M31 46c-1,9 -3,17 -5,25 -2,8 -3,16 -3,24 -1,8 1,16 2,24 1,9 -2,18 -3,27 -4,16 -3,33 -10,48 0,1 0,1 0,1 -1,1 1,3 2,1 0,0 0,-1 0,-1 7,-13 7,-27 9,-42 2,-8 4,-16 5,-24 1,-8 -1,-16 -2,-23 -2,-18 4,-35 6,-53 2,-7 1,-14 0,-22 0,-8 3,-14 6,-22 0,0 0,-1 1,-1 0,-1 -2,-2 -2,-1 0,1 -1,1 -1,2 -3,5 -5,9 -6,15 -1,8 1,15 1,22z"/>
  <path class="fil3" d="M37 53c-1,8 -4,15 -6,23 -2,8 -2,16 -2,23 1,9 3,17 3,25 0,9 -1,18 -3,27 -3,15 -7,30 -8,45 0,1 0,1 0,1 0,2 2,2 2,0 0,0 0,0 0,0 1,-16 6,-32 9,-48 3,-15 2,-30 1,-45 -1,-8 -2,-17 0,-25 1,-8 4,-15 6,-23 2,-8 1,-16 0,-23 -1,-9 3,-15 5,-23 0,0 0,0 0,-1 0,-1 -1,-1 -2,0 0,0 0,0 0,1 -2,5 -5,10 -5,16 -1,9 1,18 0,27z"/>
  <path class="fil3" d="M50 50c-1,8 -4,16 -6,24 -3,8 -4,15 -5,23 -2,17 -2,34 -3,52 -1,16 -2,33 -7,49 -1,0 -1,0 -1,0 0,2 2,2 3,1 0,0 0,-1 0,-1 4,-13 5,-27 7,-40 2,-17 2,-34 3,-52 1,-9 2,-18 4,-27 2,-8 5,-16 7,-24 2,-7 2,-14 2,-21 -1,-8 -1,-15 3,-23 0,0 0,0 0,0 1,-2 -1,-3 -2,-2 0,1 -1,2 -1,2 -6,12 -1,27 -4,39z"/>
  <path class="fil3" d="M57 63c-2,16 -1,32 -3,49 -1,17 -6,34 -9,52 -2,12 -5,25 -1,38 0,0 0,0 0,1 1,1 3,2 3,1 0,-1 0,-1 0,-2 -4,-13 -1,-29 2,-42 3,-16 6,-32 8,-48 2,-18 1,-35 4,-53 3,-15 8,-30 8,-46 0,0 0,0 0,0 0,-1 -2,-1 -2,0l0 0c-1,17 -7,33 -10,50z"/>
  <path class="fil3" d="M15 146c1,-7 1,-13 0,-20 -1,-8 -1,-15 -2,-23 0,0 0,0 0,0 0,-1 -2,-1 -2,0 0,3 0,6 0,9 0,4 1,9 2,14 1,8 0,16 -1,24 -1,7 -4,14 -6,21 -1,2 -1,4 -2,6 -1,3 -2,7 -2,11 0,0 0,0 0,0 0,1 2,3 2,2 0,0 0,0 0,0 0,-7 3,-16 5,-22 2,-7 5,-14 6,-22z"/>
  <path class="fil3" d="M23 17c0,0 0,0 0,-1 0,-1 -2,1 -2,2 0,2 0,4 0,5 1,6 0,12 0,19 -1,7 -3,13 -5,20 0,2 -1,3 -1,5 0,1 0,1 1,1 0,-1 0,-1 0,-2 4,-6 5,-15 6,-22 2,-9 2,-19 1,-27z"/>
  <path class="fil2" d="M106 47c-2,8 -5,15 -5,23 0,7 2,14 4,21 4,13 9,26 8,39 -1,7 -3,14 -2,21 0,6 4,11 5,17 1,0 2,-1 3,-1 -2,-5 -3,-10 -3,-16 -1,-7 1,-13 2,-20 0,-8 0,-16 -3,-23 -2,-6 -6,-12 -8,-19 -3,-6 -4,-12 -3,-19 1,-8 2,-15 3,-22 1,-8 1,-16 -1,-23 -1,-5 -3,-11 -3,-16 -1,0 -2,0 -3,0 1,7 4,14 6,21 1,5 2,11 0,17z"/>
  <path class="fil1" d="M167 38c0,-8 -4,-15 -7,-23 1,16 0,32 7,47 0,-8 1,-15 0,-24z"/>
  <path class="fil0" d="M150 23c-2,7 -4,14 -5,20 -1,9 2,16 6,24 2,5 5,11 5,16 1,7 -1,13 -3,19 -1,8 1,15 4,22 2,6 5,12 6,18 1,6 0,13 3,18 3,0 6,0 9,1 0,-7 0,-14 -3,-21 -2,-6 -5,-12 -5,-19 0,-15 2,-30 3,-45 0,0 0,0 0,0 -1,-3 -2,-5 -2,-8 -11,-16 -10,-37 -9,-56 0,0 0,0 0,0 -1,-3 -2,-6 -2,-9 -3,0 -5,0 -8,1 0,7 3,12 1,19z"/>
  <path class="fil1" d="M169 124c1,7 6,14 7,21 1,5 1,11 1,16 1,0 2,0 3,0 1,-8 0,-16 -3,-24 -3,-7 -5,-12 -4,-19 1,-7 4,-14 3,-21 0,-6 -2,-11 -4,-17 0,14 -4,29 -3,44z"/>
  <path class="fil1" d="M110 48c-1,6 -2,13 -3,20 -2,9 0,16 4,24 6,12 11,23 10,37 -1,7 -3,14 -3,20 0,7 2,12 4,18 4,-1 9,-1 13,-2 -1,-3 -1,-6 -1,-8 -1,-4 0,-8 1,-11 0,-4 0,-7 0,-11 0,-9 -1,-18 -4,-26 -2,-8 -6,-14 -8,-22 -2,-6 -3,-13 -2,-20 1,-7 4,-14 4,-21 2,-12 0,-28 -6,-39 0,0 0,0 0,0 -5,1 -9,1 -14,2 0,0 0,0 0,0 1,6 3,12 4,19 2,6 2,13 1,20z"/>
  <path class="fil0" d="M128 41c0,15 -7,28 -3,43 2,8 6,16 9,24 2,6 3,13 3,20 1,8 0,16 0,24 -1,3 -1,6 0,9 0,1 0,3 1,3 5,-1 10,-2 15,-2 -1,-5 -1,-10 -1,-15 -1,-8 -2,-15 -5,-22 -2,-6 -5,-12 -5,-20 0,-7 2,-13 2,-20 0,-8 -5,-13 -7,-20 -3,-6 -3,-11 -1,-17 2,-9 6,-18 3,-28 -1,-4 -3,-9 -3,-14 0,0 0,0 0,0 -5,0 -10,0 -15,1 0,0 0,0 0,0 6,10 8,23 7,34z"/>
  <path class="fil2" d="M139 44c-2,9 -2,16 2,24 3,5 5,9 5,15 1,7 -1,15 -1,22 0,8 3,14 5,22 2,5 4,11 4,18 0,5 0,11 1,16 0,0 0,0 0,0 3,0 5,0 8,-1 -1,-4 -1,-9 -2,-14 -1,-8 -3,-14 -6,-21 -3,-6 -5,-13 -5,-19 1,-7 5,-14 4,-21 -1,-14 -13,-25 -11,-40 1,-7 2,-14 4,-20 1,-5 2,-9 1,-14 0,-2 -1,-5 -1,-7 -3,1 -6,1 -9,2 0,6 4,12 5,18 0,8 -2,14 -4,20z"/>
  <path class="fil3" d="M115 168c0,0 1,0 1,0 -1,-6 -5,-11 -5,-17 -1,-7 1,-14 2,-21 1,-13 -4,-26 -8,-39 -2,-7 -4,-14 -4,-21 0,-8 3,-15 5,-23 2,-6 1,-12 0,-17 -2,-7 -5,-14 -6,-21 -1,0 -1,0 -2,-1 0,0 0,0 0,0 0,0 0,0 0,0 0,6 2,11 4,16 2,8 3,16 1,24 -2,7 -4,13 -5,20 0,7 1,13 3,19 4,16 11,29 9,45 -1,7 -3,14 -2,21 0,6 4,10 5,16 0,0 1,1 1,1 0,-1 0,-2 1,-2z"/>
  <path class="fil3" d="M182 145c-1,-8 -6,-15 -7,-23 0,-7 3,-14 4,-21 1,-6 -1,-13 -3,-18 -3,-8 -6,-14 -7,-22 0,-7 1,-14 1,-21 0,-14 -9,-25 -10,-39 0,0 -1,-1 -2,-1 -5,0 -11,1 -16,2 -6,1 -13,1 -19,2 -4,0 -8,1 -12,1 -2,1 -8,1 -11,1 -1,0 -2,1 -2,2 0,0 0,0 0,0 1,1 1,1 2,1 1,0 2,0 3,0 0,-1 0,-1 0,-2 0,-1 2,-1 2,0 0,1 0,1 0,2 0,0 0,0 0,0 5,-1 9,-1 14,-2 0,0 0,0 0,0 0,0 0,-1 0,-1 -1,-1 1,0 2,1 5,-1 10,-1 15,-1 0,0 0,0 0,0 0,0 0,0 0,0 0,-2 2,-2 2,0 0,0 0,0 0,0 3,-1 6,-1 9,-2 0,0 0,0 0,-1 0,-1 2,-1 2,0 0,1 0,1 0,1 3,-1 5,-1 8,-1 0,3 1,6 2,9 0,0 1,0 1,0 0,1 0,2 0,3 3,8 7,15 7,23 1,9 0,16 0,24 1,2 2,3 3,5 0,1 -2,2 -2,1 0,0 0,0 0,0 0,3 1,5 2,8 0,-1 2,-1 2,0 0,1 0,3 0,4 2,6 4,11 4,17 1,7 -2,14 -3,21 -1,7 1,12 4,19 3,8 4,16 3,24 0,0 0,0 0,0 1,1 1,2 1,3 0,0 1,0 1,-1 0,0 1,-1 1,-1 0,-1 0,-1 0,-1 0,-5 0,-11 -1,-16z"/>
  <path class="fil3" d="M180 161c0,0 0,0 0,0 -1,0 -2,0 -3,0 0,0 0,0 0,0 0,1 -2,1 -2,0 0,0 0,0 0,0 -3,-1 -6,-1 -9,-1 0,0 0,1 0,1 0,1 -1,2 -2,1 0,-1 0,-1 -1,-2 -3,1 -5,1 -8,1 0,1 -2,2 -2,1 0,0 0,0 0,0 -5,0 -10,1 -15,2 0,1 0,1 -1,1 0,0 0,0 0,0 0,1 -1,1 -1,0 0,0 0,0 -1,0 -4,1 -9,1 -13,2 0,0 0,0 0,1 0,1 -2,2 -2,1 0,-1 0,-1 -1,-2 -1,0 -2,1 -3,1 0,0 -1,0 -1,0 -1,0 -1,1 -1,2 1,0 1,0 1,0 22,1 43,-9 65,-6 0,0 0,0 1,0 0,-1 0,-2 -1,-3z"/>
  <path class="fil3" d="M106 25c2,7 2,15 1,23 -1,7 -2,14 -3,22 -1,7 0,13 3,19 2,7 6,13 8,19 3,7 3,15 3,23 -1,7 -3,13 -2,20 0,6 1,11 3,16 1,1 1,1 1,2 0,1 2,0 2,-1 0,-1 0,-1 0,-1 -2,-6 -4,-11 -4,-18 0,-6 2,-13 3,-20 1,-14 -4,-25 -10,-37 -4,-8 -6,-15 -4,-24 1,-7 2,-14 3,-20 1,-7 1,-14 -1,-20 -1,-7 -3,-13 -4,-19 0,-1 0,-1 0,-2 0,-1 -2,-1 -2,0 0,1 0,1 0,2 0,5 2,11 3,16z"/>
  <path class="fil3" d="M125 46c0,7 -3,14 -4,21 -1,7 0,14 2,20 2,8 6,14 8,22 3,8 4,17 4,26 0,4 0,7 0,11 -1,3 -2,7 -1,11 0,2 0,5 1,8 1,0 1,0 1,0 0,1 1,1 1,0 0,0 0,0 0,0 1,0 1,0 1,-1 -1,0 -1,-2 -1,-3 -1,-3 -1,-6 0,-9 0,-8 1,-16 0,-24 0,-7 -1,-14 -3,-20 -3,-8 -7,-16 -9,-24 -4,-15 3,-28 3,-43 1,-11 -1,-24 -7,-34 0,0 0,0 0,0 -1,-1 -3,-2 -2,-1 0,0 0,1 0,1 6,11 8,27 6,39z"/>
  <path class="fil3" d="M136 48c-2,6 -2,11 1,17 2,7 7,12 7,20 0,7 -2,13 -2,20 0,8 3,14 5,20 3,7 4,14 5,22 0,5 0,10 1,15 0,0 0,0 0,0 0,1 2,0 2,-1 0,0 0,0 0,0 -1,-5 -1,-11 -1,-16 0,-7 -2,-13 -4,-18 -2,-8 -5,-14 -5,-22 0,-7 2,-15 1,-22 0,-6 -2,-10 -5,-15 -4,-8 -4,-15 -2,-24 2,-6 4,-12 4,-20 -1,-6 -5,-12 -5,-18 0,0 0,0 0,0 0,-2 -2,-2 -2,0 0,0 0,0 0,0 0,5 2,10 3,14 3,10 -1,19 -3,28z"/>
  <path class="fil3" d="M147 25c-2,6 -3,13 -4,20 -2,15 10,26 11,40 1,7 -3,14 -4,21 0,6 2,13 5,19 3,7 5,13 6,21 1,5 1,10 2,14 1,1 1,1 1,2 1,1 2,0 2,-1 0,0 0,-1 0,-1 -3,-5 -2,-12 -3,-18 -1,-6 -4,-12 -6,-18 -3,-7 -5,-14 -4,-22 2,-6 4,-12 3,-19 0,-5 -3,-11 -5,-16 -4,-8 -7,-15 -6,-24 1,-6 3,-13 5,-20 2,-7 -1,-12 -1,-19 0,0 0,0 0,-1 0,-1 -2,-1 -2,0 0,1 0,1 0,1 0,2 1,5 1,7 1,5 0,9 -1,14z"/>
  <path class="fil3" d="M168 68c0,0 0,0 0,0 0,1 2,0 2,-1 -1,-2 -2,-3 -3,-5 -7,-15 -6,-31 -7,-47 0,-1 0,-2 0,-3 0,0 -1,0 -1,0 0,0 0,0 0,0 -1,19 -2,40 9,56z"/>
  <path class="fil3" d="M167 121c0,7 3,13 5,19 3,7 3,14 3,21 0,0 0,0 0,0 0,1 2,1 2,0 0,0 0,0 0,0 0,-5 0,-11 -1,-16 -1,-7 -6,-14 -7,-21 -1,-15 3,-30 3,-44 0,-1 0,-3 0,-4 0,-1 -2,-1 -2,0 0,0 0,0 0,0 -1,15 -3,30 -3,45z"/>
 </g>
</svg>
