<?xml version="1.0" encoding="UTF-8"?>
<!DOCTYPE svg PUBLIC "-//W3C//DTD SVG 1.1//EN" "http://www.w3.org/Graphics/SVG/1.1/DTD/svg11.dtd">
<!-- Creator: CorelDRAW X8 -->
<svg xmlns="http://www.w3.org/2000/svg" xml:space="preserve" width="8.27183in" height="5.04137in" version="1.1" style="shape-rendering:geometricPrecision; text-rendering:geometricPrecision; image-rendering:optimizeQuality; fill-rule:evenodd; clip-rule:evenodd"
viewBox="0 0 8272 5041"
 xmlns:xlink="http://www.w3.org/1999/xlink">
 <defs>
  <style type="text/css">
   <![CDATA[
    .fil0 {fill:#173E4C;fill-rule:nonzero}
   ]]>
  </style>
 </defs>
 <g id="Layer_x0020_1">
  <metadata id="CorelCorpID_0Corel-Layer"/>
  <g id="_301903220512">
   <path class="fil0" d="M3463 3057c-229,0 -415,-186 -415,-415 0,-229 186,-415 415,-415 230,0 415,186 415,415 0,229 -185,415 -415,415zm3130 -559l1295 180c8,1 15,1 22,1 42,0 83,-16 113,-46l39 -39c62,-63 62,-164 0,-226l-39 -39c-532,-532 -1153,-944 -1844,-1224 -668,-271 -1374,-409 -2098,-409 -724,0 -1430,138 -2098,409 -692,280 -1312,692 -1844,1224l-39 39c-62,62 -62,163 0,226l39 39c35,35 85,52 135,45l1295 -180c421,-59 845,-103 1270,-132 -3,38 -5,76 -5,115 0,689 558,1247 1247,1247 689,0 1247,-558 1247,-1247 0,-39 -2,-77 -5,-115 425,29 849,73 1270,132z"/>
   <path class="fil0" d="M8247 3408l-377 -334c-38,-44 -104,-49 -148,-11l-2 1c-44,38 -49,104 -11,148l377 334c37,44 103,49 147,12l2 -2c44,-37 49,-104 12,-148z"/>
   <path class="fil0" d="M7238 3559c-31,-49 -96,-64 -145,-33l-2 1c-49,31 -63,96 -32,145l309 384c31,49 96,63 145,33l2 -2c49,-30 63,-95 33,-144l-310 -384z"/>
   <path class="fil0" d="M6543 3948c-24,-53 -86,-77 -139,-54l-2 1c-53,24 -76,86 -53,139l235 423c24,53 86,77 139,53l2 0c53,-24 77,-86 53,-139l-235 -423z"/>
   <path class="fil0" d="M5799 4231c-16,-56 -74,-88 -130,-73l-2 1c-55,16 -88,73 -72,129l156 452c15,56 73,88 129,73l2 -1c56,-15 88,-73 73,-129l-156 -452z"/>
   <path class="fil0" d="M5022 4405c-8,-58 -60,-98 -118,-91l-2 0c-57,8 -98,60 -91,118l75 468c7,58 60,98 117,91l2 0c58,-8 98,-60 91,-118l-74 -468z"/>
   <path class="fil0" d="M4124 4358l-2 0c-58,-1 -106,46 -107,104l-8 473c-1,58 45,106 103,106l2 0c58,1 106,-45 107,-103l8 -473c1,-58 -45,-106 -103,-107z"/>
   <path class="fil0" d="M3346 4291l-2 -1c-58,-9 -111,30 -121,87l-91 466c-9,57 29,111 87,120l2 1c57,9 111,-30 120,-87l92 -466c9,-57 -30,-111 -87,-120z"/>
   <path class="fil0" d="M2585 4112l-2 -1c-55,-17 -114,14 -131,69l-173 447c-18,55 13,114 69,131l2 1c55,17 114,-14 131,-69l173 -447c18,-55 -13,-114 -69,-131z"/>
   <path class="fil0" d="M1859 3826l-2 -1c-52,-25 -115,-3 -140,49l-252 416c-25,52 -3,115 50,140l1 1c53,25 115,3 141,-49l251 -416c25,-53 3,-115 -49,-140z"/>
   <path class="fil0" d="M1181 3437l-1 -1c-48,-33 -114,-20 -146,28l-324 374c-33,48 -20,113 28,146l2 1c48,32 113,20 145,-28l325 -374c32,-48 20,-114 -29,-146z"/>
   <path class="fil0" d="M566 2953c-43,-39 -110,-36 -149,7l-390 323c-39,42 -36,109 7,148l2 1c43,39 109,36 148,-7l390 -322c39,-43 36,-110 -7,-148l-1 -2z"/>
   <path class="fil0" d="M296 1569c59,69 165,79 237,22l2 -2c72,-57 82,-159 23,-228l-23 -27c-59,-69 -164,-79 -236,-22l-2 2c-72,57 -82,159 -23,229l22 26z"/>
   <path class="fil0" d="M943 1095c49,77 152,101 231,54l3 -1c79,-47 104,-147 56,-223l-19 -30c-48,-76 -151,-101 -230,-54l-3 2c-79,46 -104,146 -56,223l18 29z"/>
   <path class="fil0" d="M1653 714c37,83 135,121 221,85l3 -1c85,-35 124,-131 87,-213l-14 -32c-36,-82 -135,-120 -220,-85l-3 2c-85,35 -125,130 -88,213l14 31z"/>
   <path class="fil0" d="M2411 434c24,87 117,138 206,114l3 -1c90,-23 143,-112 118,-199l-9 -33c-24,-86 -117,-137 -206,-114l-3 1c-90,23 -143,113 -118,199l9 33z"/>
   <path class="fil0" d="M3202 260c12,89 96,152 188,141l3 -1c92,-11 157,-92 146,-181l-5 -34c-11,-89 -95,-152 -187,-141l-3 1c-92,11 -158,92 -146,181l4 34z"/>
   <path class="fil0" d="M4176 359l4 0c92,1 169,-70 170,-160l1 -34c1,-90 -73,-164 -166,-165l-3 0c-93,-1 -169,70 -170,160l-1 34c-1,90 73,163 165,165z"/>
   <path class="fil0" d="M4961 423l4 1c91,14 177,-47 191,-135l6 -34c14,-89 -48,-172 -140,-186l-3 0c-92,-14 -178,46 -192,135l-6 34c-14,89 49,172 140,185z"/>
   <path class="fil0" d="M5729 593l3 1c89,26 183,-22 210,-108l10 -33c27,-85 -23,-176 -112,-202l-3 -1c-89,-26 -182,22 -209,108l-11 33c-27,85 23,176 112,202z"/>
   <path class="fil0" d="M6464 866l3 1c85,38 184,3 224,-78l15 -31c39,-81 3,-178 -81,-216l-3 -1c-84,-38 -184,-3 -223,78l-16 31c-39,81 -3,178 81,216z"/>
   <path class="fil0" d="M7153 1236l2 2c78,49 182,28 233,-47l19 -29c51,-75 29,-175 -48,-224l-3 -2c-78,-49 -182,-28 -233,47l-19 29c-51,75 -29,175 49,224z"/>
   <path class="fil0" d="M7780 1696l2 3c70,59 176,52 237,-15l24 -26c61,-68 54,-170 -16,-229l-2 -3c-70,-59 -176,-52 -237,16l-24 25c-61,68 -54,170 16,229z"/>
  </g>
 </g>
</svg>
