<?xml version="1.0" encoding="UTF-8"?>
<!DOCTYPE svg PUBLIC "-//W3C//DTD SVG 1.1//EN" "http://www.w3.org/Graphics/SVG/1.1/DTD/svg11.dtd">
<!-- Creator: CorelDRAW X8 -->
<svg xmlns="http://www.w3.org/2000/svg" xml:space="preserve" width="8.35913in" height="4.38267in" version="1.1" style="shape-rendering:geometricPrecision; text-rendering:geometricPrecision; image-rendering:optimizeQuality; fill-rule:evenodd; clip-rule:evenodd"
viewBox="0 0 8359 4383"
 xmlns:xlink="http://www.w3.org/1999/xlink">
 <defs>
  <style type="text/css">
   <![CDATA[
    .fil0 {fill:#173E4C;fill-rule:nonzero}
   ]]>
  </style>
 </defs>
 <g id="Layer_x0020_1">
  <metadata id="CorelCorpID_0Corel-Layer"/>
  <path class="fil0" d="M8324 1628l-1 -2c-44,-39 -111,-36 -150,7l-429 472c-149,-126 -304,-244 -464,-353l362 -536c33,-49 20,-114 -29,-147l-1 -1c-49,-33 -115,-20 -148,28l-363 538c-164,-103 -333,-197 -507,-282l284 -592c26,-53 3,-117 -49,-142l-2 -1c-53,-25 -116,-3 -142,50l-286 594c-57,-26 -114,-50 -173,-74 -121,-49 -244,-94 -368,-135l198 -633c18,-56 -13,-116 -69,-133l-2 -1c-56,-17 -116,14 -133,70l-199 635c-186,-53 -374,-97 -564,-130l105 -660c10,-58 -30,-112 -88,-121l-2 -1c-58,-9 -112,30 -121,88l-106 661c-191,-26 -383,-43 -577,-49l10 -670c1,-59 -46,-107 -104,-108l-2 0c-59,-1 -107,46 -108,105l-10 670c-194,0 -387,11 -578,31l-86 -663c-8,-59 -61,-100 -119,-92l-2 0c-58,8 -99,61 -92,119l86 662c-191,28 -381,66 -568,113l-179 -641c-16,-56 -74,-89 -131,-73l-2 0c-56,16 -89,75 -74,131l179 639c-180,53 -358,115 -534,186 -4,2 -9,4 -13,6l-267 -602c-24,-54 -87,-78 -140,-54l-2 0c-54,24 -78,87 -54,140l266 601c-177,80 -349,169 -516,267l-347 -549c-31,-50 -97,-64 -146,-33l-2 1c-50,31 -64,97 -33,146l345 547c-164,104 -322,217 -474,339l-415 -485c-38,-44 -105,-50 -149,-12l-2 2c-44,38 -50,105 -11,149l412 482c-109,93 -214,191 -315,293l-40 39c-63,63 -63,165 0,228 63,63 166,63 229,0l39 -39c507,-507 1098,-900 1757,-1167 636,-258 1309,-389 1998,-389 690,0 1363,131 1999,389 626,254 1191,621 1680,1092 -495,476 -1067,846 -1702,1100 -623,250 -1281,378 -1955,381 -661,-31 -1189,-578 -1189,-1246 0,-258 100,-500 283,-682 182,-183 424,-283 682,-283 408,0 740,332 740,740 0,308 -251,559 -560,559 -229,0 -415,-186 -415,-415 0,-89 -72,-161 -161,-161 -90,0 -162,72 -162,161 0,407 331,738 738,738 487,0 883,-396 883,-882 0,-586 -477,-1063 -1063,-1063l0 0c-344,0 -667,134 -911,377 -243,244 -377,567 -377,911 0,805 609,1470 1391,1559 16,6 33,9 51,9 16,0 33,0 50,0 4,0 9,0 14,0 21,1 42,2 64,2 9,0 18,-1 26,-3 686,-12 1355,-147 1991,-402 709,-283 1343,-703 1887,-1247l39 -39c64,-63 64,-165 0,-228l-39 -39c-60,-61 -122,-120 -185,-178l427 -470c39,-43 36,-110 -8,-149z"/>
 </g>
</svg>
