<?xml version="1.0" encoding="UTF-8"?>
<!DOCTYPE svg PUBLIC "-//W3C//DTD SVG 1.1//EN" "http://www.w3.org/Graphics/SVG/1.1/DTD/svg11.dtd">
<!-- Creator: CorelDRAW X8 -->
<svg xmlns="http://www.w3.org/2000/svg" xml:space="preserve" width="8.05358in" height="4.17767in" version="1.1" style="shape-rendering:geometricPrecision; text-rendering:geometricPrecision; image-rendering:optimizeQuality; fill-rule:evenodd; clip-rule:evenodd"
viewBox="0 0 8054 4178"
 xmlns:xlink="http://www.w3.org/1999/xlink">
 <defs>
  <style type="text/css">
   <![CDATA[
    .fil0 {fill:#173E4C;fill-rule:nonzero}
   ]]>
  </style>
 </defs>
 <g id="Layer_x0020_1">
  <metadata id="CorelCorpID_0Corel-Layer"/>
  <path class="fil0" d="M5799 3476c-358,161 -730,272 -1109,330 97,-45 188,-100 273,-164 -172,-4 -313,-146 -313,-321 0,-178 145,-321 322,-321 173,0 313,135 321,306 186,-257 295,-571 295,-912 0,-626 -368,-1165 -898,-1414 379,60 751,170 1109,330 558,252 1062,616 1498,1084 -436,467 -940,830 -1498,1082l0 0zm-1878 -1951c-388,0 -703,315 -703,703 0,88 -72,159 -159,159 -89,0 -161,-71 -161,-159 0,-564 459,-1022 1023,-1022 89,0 159,71 159,159 0,89 -70,160 -159,160l0 0zm-1665 1951c-558,-252 -1062,-615 -1498,-1082 436,-468 940,-832 1498,-1084 358,-160 730,-270 1109,-330 -531,249 -898,788 -898,1414 0,625 367,1163 898,1412 -379,-58 -751,-169 -1109,-330l0 0zm5751 -1196l-39 -39c-531,-531 -1152,-944 -1843,-1224 -669,-270 -1374,-408 -2098,-408 0,0 0,0 0,0l0 0c0,0 0,0 0,0 -723,0 -1430,138 -2097,408 -692,281 -1312,693 -1845,1224l-38 39c-63,62 -63,164 0,227l38 38c533,532 1153,944 1845,1224 667,271 1374,409 2097,409 724,0 1429,-138 2098,-409 691,-280 1312,-692 1843,-1224l39 -38c62,-63 62,-165 0,-227z"/>
  <path class="fil0" d="M166 1569c58,69 165,78 238,23l2 -3c72,-57 81,-159 23,-228l-23 -27c-60,-69 -166,-79 -237,-22l-3 2c-72,57 -82,159 -22,228l22 27z"/>
  <path class="fil0" d="M816 1095c48,76 151,101 231,54l2 -2c80,-46 105,-146 56,-223l-18 -29c-48,-77 -152,-101 -231,-54l-3 3c-79,46 -105,145 -57,222l20 29 0 0z"/>
  <path class="fil0" d="M1527 715c37,82 136,119 221,85l4 -2c85,-35 125,-131 88,-213l-15 -32c-36,-82 -135,-121 -220,-85l-4 2c-85,35 -125,131 -87,213l13 32z"/>
  <path class="fil0" d="M2288 435c25,86 117,137 207,113l3 0c90,-24 143,-113 119,-199l-9 -33c-25,-88 -118,-138 -207,-114l-4 0c-89,23 -142,112 -118,199l9 34 0 0z"/>
  <path class="fil0" d="M3083 260c11,89 95,152 188,141l2 0c93,-12 158,-93 146,-182l-4 -35c-12,-87 -95,-151 -188,-140l-3 1c-92,11 -157,92 -145,180l4 35z"/>
  <path class="fil0" d="M4060 359l4 0c93,2 168,-70 170,-160l1 -35c1,-88 -73,-163 -166,-164l-4 0c-93,-1 -170,70 -171,160l0 34c-1,90 73,164 166,165l0 0z"/>
  <path class="fil0" d="M4848 423l2 1c93,14 179,-47 194,-135l5 -34c15,-89 -49,-171 -140,-186l-4 0c-92,-15 -178,46 -193,135l-5 33c-14,89 49,173 141,186l0 0z"/>
  <path class="fil0" d="M5618 593l3 1c89,27 183,-22 211,-107l10 -33c27,-87 -23,-177 -112,-203l-3 0c-89,-27 -183,21 -211,107l-10 33c-27,85 23,177 112,202z"/>
  <path class="fil0" d="M6356 866l4 1c83,38 184,3 224,-78l14 -30c40,-83 3,-179 -81,-217l-4 -1c-83,-38 -184,-3 -222,78l-16 31c-39,82 -3,178 81,216l0 0z"/>
  <path class="fil0" d="M7047 1236l2 1c79,49 183,28 234,-46l20 -29c50,-74 29,-175 -49,-224l-3 -2c-78,-49 -182,-29 -234,47l-18 29c-52,74 -29,175 48,224z"/>
  <path class="fil0" d="M7677 1696l2 2c71,59 177,53 238,-15l24 -25c61,-68 54,-170 -16,-230l-3 -2c-70,-59 -176,-52 -237,16l-24 25c-61,67 -55,170 16,229l0 0z"/>
 </g>
</svg>
