<?xml version="1.0" encoding="UTF-8"?>
<!DOCTYPE svg PUBLIC "-//W3C//DTD SVG 1.1//EN" "http://www.w3.org/Graphics/SVG/1.1/DTD/svg11.dtd">
<!-- Creator: CorelDRAW X8 -->
<svg xmlns="http://www.w3.org/2000/svg" xml:space="preserve" width="8.09669in" height="4.25596in" version="1.1" style="shape-rendering:geometricPrecision; text-rendering:geometricPrecision; image-rendering:optimizeQuality; fill-rule:evenodd; clip-rule:evenodd"
viewBox="0 0 8097 4256"
 xmlns:xlink="http://www.w3.org/1999/xlink">
 <defs>
  <style type="text/css">
   <![CDATA[
    .fil0 {fill:#173E4C;fill-rule:nonzero}
   ]]>
  </style>
 </defs>
 <g id="Layer_x0020_1">
  <metadata id="CorelCorpID_0Corel-Layer"/>
  <g id="_971057944592">
   <path class="fil0" d="M3978 1240c-700,0 -1269,570 -1269,1269 0,700 569,1269 1269,1269 338,0 657,-132 896,-372 238,-238 371,-557 373,-896 2,-353 -138,-680 -396,-922 -62,-59 -161,-56 -221,7 -59,63 -56,162 7,221 193,181 299,427 297,692 -1,257 -101,497 -281,678 -181,180 -420,280 -675,280 -528,0 -957,-429 -957,-957 0,-527 429,-956 957,-956 86,0 156,-70 156,-157 0,-86 -70,-156 -156,-156z"/>
   <path class="fil0" d="M3498 2509c0,265 215,480 480,480 265,0 480,-215 480,-480 0,-265 -215,-480 -480,-480 -265,0 -480,215 -480,480z"/>
   <path class="fil0" d="M8063 1577l-1 -2c-42,-38 -107,-35 -146,7l-422 464c-143,-122 -293,-235 -448,-341l356 -527c32,-47 19,-111 -28,-143l-1 -1c-48,-32 -111,-19 -143,28l-357 530c-159,-100 -323,-191 -491,-273l280 -583c25,-51 4,-113 -48,-137l-2 -1c-51,-25 -112,-3 -137,48l-281 585c-54,-24 -108,-47 -163,-69 -119,-48 -239,-92 -360,-132l195 -624c17,-54 -13,-112 -67,-129l-2 -1c-54,-17 -112,14 -129,68l-196 626c-179,-51 -361,-93 -545,-125l104 -651c9,-56 -29,-109 -85,-118l-2 0c-56,-9 -109,29 -118,85l-104 652c-184,-25 -370,-41 -557,-47l10 -662c1,-56 -45,-103 -101,-104l-2 0c-57,-1 -104,45 -105,101l-10 662c-187,0 -373,10 -558,30l-84 -655c-8,-56 -59,-96 -116,-89l-2 1c-56,7 -96,59 -88,115l84 653c-185,27 -368,63 -549,109l-176 -632c-15,-55 -72,-87 -127,-71l-2 0c-54,15 -86,72 -71,127l176 630c-176,52 -349,112 -520,181 -3,1 -6,3 -9,4l-263 -594c-23,-52 -84,-75 -136,-52l-2 1c-51,23 -75,83 -52,135l263 592c-172,77 -338,163 -499,258l-342 -541c-30,-48 -93,-62 -141,-32l-2 1c-48,30 -62,93 -32,141l340 539c-159,100 -312,209 -459,326l-408 -476c-36,-43 -101,-48 -145,-11l-1 1c-43,37 -48,101 -11,145l405 474c-107,91 -211,187 -311,288l-38 38c-61,61 -61,160 0,221 61,61 160,61 221,0l38 -38c491,-491 1064,-871 1702,-1130 616,-250 1268,-377 1936,-377 668,0 1319,127 1936,377 606,246 1153,601 1627,1057 -413,398 -884,720 -1400,959 -529,245 -1093,397 -1677,452 -1172,111 -2354,-185 -3328,-832 -72,-48 -169,-28 -217,44 -48,72 -28,169 43,217 892,592 1948,907 3019,907 171,0 342,-8 513,-24 618,-59 1217,-220 1778,-480 581,-269 1108,-637 1565,-1094l37 -38c30,-29 46,-69 46,-111 0,-41 -16,-81 -46,-110l-37 -38c-61,-61 -123,-120 -187,-178l420 -461c38,-42 35,-107 -7,-145z"/>
  </g>
 </g>
</svg>
