<?xml version="1.0" encoding="UTF-8"?>
<!DOCTYPE svg PUBLIC "-//W3C//DTD SVG 1.1//EN" "http://www.w3.org/Graphics/SVG/1.1/DTD/svg11.dtd">
<!-- Creator: CorelDRAW X8 -->
<svg xmlns="http://www.w3.org/2000/svg" xml:space="preserve" width="8.0972in" height="6.9587in" version="1.1" style="shape-rendering:geometricPrecision; text-rendering:geometricPrecision; image-rendering:optimizeQuality; fill-rule:evenodd; clip-rule:evenodd"
viewBox="0 0 8097 6959"
 xmlns:xlink="http://www.w3.org/1999/xlink">
 <defs>
  <style type="text/css">
   <![CDATA[
    .str2 {stroke:black;stroke-width:12.5394}
    .str0 {stroke:black;stroke-width:12.689}
    .str1 {stroke:black;stroke-width:12.9606}
    .fil4 {fill:white}
    .fil0 {fill:black}
    .fil1 {fill:white}
    .fil7 {fill:url(#id0)}
    .fil6 {fill:url(#id1)}
    .fil2 {fill:url(#id2)}
    .fil3 {fill:url(#id3)}
    .fil5 {fill:url(#id4)}
   ]]>
  </style>
  <linearGradient id="id0" gradientUnits="userSpaceOnUse" x1="4617.79" y1="1685.83" x2="6220.4" y2="1470.98">
   <stop offset="0" style="stop-opacity:1; stop-color:#2D2D2D"/>
   <stop offset="0.431373" style="stop-opacity:1; stop-color:#171717"/>
   <stop offset="1" style="stop-opacity:1; stop-color:black"/>
  </linearGradient>
  <linearGradient id="id1" gradientUnits="userSpaceOnUse" xlink:href="#id0" x1="782.912" y1="2542.09" x2="3731.79" y2="2179.5">
  </linearGradient>
  <linearGradient id="id2" gradientUnits="userSpaceOnUse" x1="4231.19" y1="4460.71" x2="4637.77" y2="8594.21">
   <stop offset="0" style="stop-opacity:1; stop-color:white"/>
   <stop offset="0.431373" style="stop-opacity:1; stop-color:#C4E9F1"/>
   <stop offset="1" style="stop-opacity:1; stop-color:#88D3E2"/>
  </linearGradient>
  <radialGradient id="id3" gradientUnits="userSpaceOnUse" gradientTransform="matrix(-0.930452 1.57459 -1.57464 -0.930458 14390 2399)" cx="3867.36" cy="4397.28" r="88.6377" fx="3867.36" fy="4397.28">
   <stop offset="0" style="stop-opacity:1; stop-color:white"/>
   <stop offset="0.439216" style="stop-opacity:1; stop-color:#7F7F7F"/>
   <stop offset="1" style="stop-opacity:1; stop-color:black"/>
  </radialGradient>
  <radialGradient id="id4" gradientUnits="userSpaceOnUse" gradientTransform="matrix(-0.930445 1.57461 -1.5746 -0.930453 17326 -864)" xlink:href="#id3" cx="5608.55" cy="4127.18" r="88.6377" fx="5608.55" fy="4127.18">
  </radialGradient>
 </defs>
 <g id="Layer_x0020_1">
  <metadata id="CorelCorpID_0Corel-Layer"/>
  <g id="_970791900192">
   <path class="fil0" d="M1380 6828c-339,-196 -621,-462 -749,-832 -135,-388 -179,-795 -119,-1212 67,-466 248,-884 589,-1195 980,-897 2014,-648 2154,-623 329,57 590,245 840,449 85,69 148,164 221,246 146,-421 337,-813 661,-1129 245,-238 542,-355 878,-391 305,-33 590,32 881,123 306,95 528,281 750,494 376,363 557,811 599,1317 20,247 19,505 -29,747 -113,582 -439,1008 -1007,1231 -415,164 -846,202 -1279,149 -322,-40 -633,-147 -881,-379 -145,-137 -290,-276 -429,-408 -304,1065 -1796,1870 -3080,1413zm3138 -2564l0 0c-120,-86 -240,-162 -351,-252 -343,-278 -679,-567 -1142,-625 -134,-17 -272,-67 -401,-49 -209,29 -419,86 -616,162 -171,66 -330,168 -484,269 -191,125 -330,301 -455,491 -222,337 -364,696 -330,1105 15,185 40,372 146,533 225,339 560,522 947,567 407,48 814,-31 1208,-146 266,-77 523,-180 738,-361 301,-254 509,-569 616,-952 36,-130 92,-255 138,-382 12,3 25,5 37,7 -9,108 -20,215 -25,323 -3,57 -16,130 13,170 68,96 150,187 240,263 306,261 668,385 1066,410 316,20 626,-27 921,-129 280,-96 547,-232 738,-468 89,-110 149,-245 210,-375 149,-318 203,-649 114,-996 -93,-365 -297,-652 -596,-883 -133,-102 -264,-200 -427,-242 -226,-58 -453,-148 -681,-151 -410,-6 -739,217 -1044,474 -231,195 -363,459 -519,709 -79,125 -92,226 -14,352 38,61 38,141 -47,176z"/>
   <path class="fil1" d="M4518 4264c85,-35 85,-115 47,-176 -78,-126 -65,-227 14,-352 156,-250 288,-514 519,-709 305,-257 634,-480 1044,-474 228,3 455,93 681,151 163,42 294,140 427,242 299,231 503,518 596,883 89,347 35,678 -114,996 -61,130 -121,265 -210,375 -191,236 -458,372 -738,468 -295,102 -605,149 -921,129 -398,-25 -760,-149 -1066,-410 -90,-76 -172,-167 -240,-263 -29,-40 -16,-113 -13,-170 5,-108 16,-215 25,-323 -12,-2 -25,-4 -37,-7 -46,127 -102,252 -138,382 -107,383 -315,698 -616,952 -215,181 -472,284 -738,361 -394,115 -801,194 -1208,146 -387,-45 -722,-228 -947,-567 -106,-161 -131,-348 -146,-533 -34,-409 108,-768 330,-1105 125,-190 264,-366 455,-491 154,-101 313,-203 484,-269 197,-76 407,-133 616,-162 129,-18 267,32 401,49 463,58 799,347 1142,625 111,90 231,166 351,252z"/>
   <path class="fil2" d="M7803 3836c77,333 78,652 -66,959 -60,130 -120,265 -209,375 -191,236 -459,373 -738,469 -296,101 -606,148 -921,128 -398,-25 -760,-149 -1067,-410 -90,-76 -172,-166 -240,-263 -28,-40 -16,-113 -13,-170 5,-108 17,-215 26,-322l-37 -7c-47,127 -102,252 -139,382 -107,382 -315,697 -616,951 -214,182 -472,284 -737,361 -394,115 -801,195 -1209,147 -387,-46 -721,-229 -946,-568 -107,-160 -131,-348 -146,-532 -21,-251 81,-483 170,-703 49,150 68,289 155,393 309,367 758,506 1227,486 815,-36 1777,-574 2100,-1366 42,29 84,58 126,88 86,-35 86,-114 48,-176 -13,-20 -22,-39 -30,-58 989,1143 2793,613 3262,-164z"/>
   <path class="fil0" d="M3680 5257c-364,-3 -659,-339 -615,-648 50,-356 236,-601 638,-559 359,38 638,292 612,633 -27,356 -323,568 -635,574zm-144 -1025l0 0c-63,40 -112,66 -156,100 -174,133 -238,373 -77,549 136,150 295,196 499,172 279,-32 432,-386 327,-597 -44,106 -108,172 -222,199 -114,27 -212,20 -307,-43 -123,-80 -148,-208 -64,-380zm523 88l0 0c-104,-31 -199,-64 -297,-86 -60,-14 -168,72 -175,128 -11,76 41,137 130,155 180,36 259,-5 342,-197z"/>
   <path class="fil3 str0" d="M3536 4232c-84,172 -59,300 64,380 95,63 193,70 307,43 114,-27 178,-93 222,-199 105,211 -48,565 -327,597 -204,24 -363,-22 -499,-172 -161,-176 -97,-416 77,-549 44,-34 93,-60 156,-100z"/>
   <path class="fil4" d="M4059 4320c-83,192 -162,233 -342,197 -89,-18 -141,-79 -130,-155 7,-56 114,-127 175,-128 152,-2 152,-2 297,86z"/>
   <path class="fil0" d="M5422 4987c-365,-3 -660,-339 -616,-649 51,-355 237,-600 638,-558 359,38 639,292 613,633 -28,356 -324,567 -635,574zm-145 -1025l0 0c-63,40 -112,66 -155,100 -174,133 -239,373 -78,549 136,150 295,196 499,172 280,-32 432,-386 328,-597 -45,105 -109,172 -223,199 -114,26 -212,20 -307,-43 -123,-80 -148,-208 -64,-380zm524 88l0 0c-105,-31 -200,-64 -298,-86 -60,-14 -167,72 -175,128 -10,76 41,137 130,155 181,36 259,-5 343,-197z"/>
   <path class="fil5 str0" d="M5277 3962c-84,172 -59,300 64,380 95,63 193,69 307,43 114,-27 178,-94 223,-199 104,211 -48,565 -328,597 -204,24 -363,-22 -499,-172 -161,-176 -96,-416 78,-549 43,-34 92,-60 155,-100z"/>
   <path class="fil4" d="M5801 4050c-84,192 -162,233 -343,197 -89,-18 -140,-79 -130,-155 8,-56 114,-127 175,-128 152,-2 152,-2 298,86z"/>
   <path class="fil0" d="M404 1837c-1,53 2,107 -2,160 -19,234 -41,468 -61,702 12,3 25,6 37,9 39,-108 77,-216 117,-323 39,-105 76,-212 124,-314 64,-137 136,-272 211,-404 14,-25 54,-34 83,-50 3,40 12,82 8,122 -3,26 -26,50 -22,88 67,-67 132,-138 203,-201 124,-112 249,-223 380,-326 31,-24 96,-35 131,-19 327,154 649,319 977,471 302,140 608,274 917,399 140,56 189,27 287,-94 20,-25 49,-42 79,-67 20,11 43,24 67,37 18,-51 37,-103 58,-162 91,48 121,123 128,200 35,389 6,769 -174,1125 -26,51 -48,104 -72,157 -22,52 -68,93 -112,61 -34,-24 -62,-97 -51,-138 46,-174 102,-346 164,-516 83,-229 93,-463 68,-702 -10,83 -21,166 -32,249 -40,317 -119,621 -304,888 -16,23 -33,46 -45,70 -71,140 -137,164 -275,101 -250,-115 -503,-224 -751,-342 -323,-153 -640,-320 -965,-467 -109,-49 -236,-67 -356,-77 -112,-9 -195,77 -262,151 -128,140 -242,293 -359,443 -90,114 -180,229 -198,381 -1,10 -45,28 -57,21 -53,-30 -99,-67 -87,-142 29,-175 53,-350 80,-527 -77,8 -87,-58 -89,-111 -8,-152 -16,-306 -2,-458 11,-119 54,-235 85,-352 5,-20 20,-36 30,-54 14,3 28,7 42,11zm358 552l0 0c8,6 15,11 22,16 15,-9 30,-18 45,-26 100,-57 197,-122 302,-167 146,-63 293,-14 423,44 486,219 967,450 1449,679 142,68 281,143 424,216 118,-266 318,-486 325,-792 -90,69 -177,125 -299,98 -295,-67 -546,-231 -816,-354 -339,-154 -671,-325 -1002,-497 -112,-58 -200,-46 -283,41 -131,137 -267,269 -386,415 -81,98 -137,217 -204,327z"/>
   <path class="fil0" d="M110 2046c28,230 54,440 81,656 -67,-1 -119,-45 -141,-108 -65,-181 -86,-361 60,-548z"/>
   <path class="fil6 str1" d="M762 2389c67,-110 123,-229 204,-327 119,-146 255,-278 386,-415 83,-87 171,-99 283,-41 331,172 663,343 1002,497 270,123 521,287 816,354 122,27 209,-29 299,-98 -7,306 -207,526 -325,792 -143,-73 -282,-148 -424,-216 -482,-229 -963,-460 -1449,-679 -130,-58 -277,-107 -423,-44 -105,45 -202,110 -302,167 -15,8 -30,17 -45,26 -7,-5 -14,-10 -22,-16z"/>
   <path class="fil0" d="M6330 1028c-56,201 -104,394 -166,584 -39,123 -92,243 -152,359 -81,157 -165,315 -266,460 -77,111 -182,202 -271,304 -82,93 -163,187 -238,286 -45,59 -88,65 -156,37 -212,-86 -319,-262 -407,-457 -83,-184 -162,-371 -235,-539 15,113 23,252 55,384 29,119 77,235 133,343 29,56 94,94 158,155 -9,13 -26,63 -57,74 -34,12 -90,1 -120,-22 -141,-104 -198,-263 -246,-422 -47,-158 -83,-319 -113,-481 -14,-77 -2,-158 1,-238 1,-12 25,-35 34,-33 26,6 55,16 74,34 21,19 32,49 51,81 18,-34 33,-61 48,-88 124,65 183,44 284,-62 137,-142 277,-280 366,-457 119,-236 236,-473 343,-715 73,-167 127,-344 192,-515 45,-117 75,-122 181,-63 71,39 150,64 225,97 253,112 423,318 594,524 24,29 48,58 88,76 -104,-162 -208,-325 -328,-513 47,12 74,11 87,24 191,182 343,390 422,646 20,66 49,130 75,195 -12,5 -22,11 -33,16 -33,-48 -65,-97 -97,-146 -4,3 -9,5 -13,7 16,31 33,63 48,94 134,269 196,558 239,852 5,34 -28,74 -43,112 -30,-21 -72,-35 -87,-63 -63,-123 -117,-252 -177,-377 -18,-37 -40,-73 -67,-102 -142,-153 -287,-304 -426,-451zm-1261 1811l0 0c84,-91 147,-166 217,-233 282,-270 476,-596 629,-949 147,-338 183,-698 220,-1058 1,-13 -10,-29 -19,-39 -85,-77 -170,-153 -269,-242 -33,67 -60,115 -81,166 -75,188 -135,384 -226,566 -106,213 -229,420 -361,619 -116,175 -269,318 -475,420 117,242 237,487 365,750z"/>
   <path class="fil0" d="M7016 1001c-62,-150 -125,-294 -181,-441 -55,-144 -161,-267 -190,-421 14,-9 27,-17 40,-25 61,79 133,152 182,239 73,130 132,269 193,406 46,101 27,192 -44,242z"/>
   <path class="fil7 str2" d="M5069 2839c-128,-263 -248,-508 -365,-750 206,-102 359,-245 475,-420 132,-199 255,-406 361,-619 91,-182 151,-378 226,-566 21,-51 48,-99 81,-166 99,89 184,165 269,242 9,10 20,26 19,39 -37,360 -73,720 -220,1058 -153,353 -347,679 -629,949 -70,67 -133,142 -217,233z"/>
  </g>
 </g>
</svg>
