<?xml version="1.0" encoding="UTF-8"?>
<!DOCTYPE svg PUBLIC "-//W3C//DTD SVG 1.1//EN" "http://www.w3.org/Graphics/SVG/1.1/DTD/svg11.dtd">
<!-- Creator: CorelDRAW X8 -->
<svg xmlns="http://www.w3.org/2000/svg" xml:space="preserve" width="8.24779in" height="5.04167in" version="1.1" style="shape-rendering:geometricPrecision; text-rendering:geometricPrecision; image-rendering:optimizeQuality; fill-rule:evenodd; clip-rule:evenodd"
viewBox="0 0 8248 5042"
 xmlns:xlink="http://www.w3.org/1999/xlink">
 <defs>
  <style type="text/css">
   <![CDATA[
    .fil0 {fill:#173E4C;fill-rule:nonzero}
   ]]>
  </style>
 </defs>
 <g id="Layer_x0020_1">
  <metadata id="CorelCorpID_0Corel-Layer"/>
  <path class="fil0" d="M6096 3583c-377,152 -766,260 -1163,321 482,-279 807,-801 807,-1398 0,-598 -325,-1120 -807,-1399 397,61 786,169 1163,321 618,251 1175,613 1658,1078 -483,464 -1040,826 -1658,1077zm-2838 -1243c0,88 -72,160 -160,160 -88,0 -159,-72 -159,-160 0,-562 457,-1019 1020,-1019 88,0 159,71 159,159 0,88 -71,159 -159,159 -387,0 -701,315 -701,701zm-2764 166c483,-465 1040,-827 1658,-1078 376,-152 765,-260 1163,-321 -482,279 -807,801 -807,1399 0,597 325,1119 807,1398 -398,-61 -787,-169 -1163,-321 -618,-251 -1175,-613 -1658,-1077zm7729 907l-434 -507c91,-80 179,-163 266,-249l38 -39c62,-62 62,-163 0,-225l-38 -39c-67,-66 -135,-131 -204,-194l369 -406c39,-43 36,-109 -6,-148l-2 -2c-43,-38 -109,-35 -148,7l-373 410c-150,-126 -306,-243 -468,-352l317 -469c32,-48 20,-113 -28,-146l-2 -1c-48,-32 -113,-19 -145,28l-319 473c-166,-102 -336,-195 -512,-280l253 -525c25,-52 3,-114 -49,-139l-2 -1c-52,-25 -115,-3 -140,49l-254 528c-42,-18 -84,-36 -126,-53 -138,-56 -278,-106 -419,-150l179 -570c17,-55 -14,-114 -69,-131l-2 -1c-55,-17 -114,14 -131,69l-179 573c-187,-51 -375,-92 -566,-123l96 -602c9,-57 -30,-111 -87,-120l-2 -1c-57,-9 -111,30 -120,87l-97 605c-190,-24 -382,-37 -576,-41l10 -622c1,-58 -46,-105 -103,-106l-3 0c-57,-1 -105,45 -106,103l-9 624c-193,3 -385,16 -575,39l-81 -625c-7,-58 -59,-98 -117,-91l-2 1c-57,7 -98,59 -90,117l81 627c-190,30 -377,70 -563,119l-171 -614c-16,-55 -73,-88 -129,-72l-2 0c-56,16 -88,74 -73,129l172 616c-151,47 -302,100 -450,160 -30,12 -59,25 -88,37l-261 -587c-24,-53 -85,-77 -138,-54l-2 1c-53,24 -77,86 -53,138l260 589c-173,81 -342,172 -505,271l-344 -545c-31,-49 -95,-64 -144,-33l-2 1c-49,31 -64,96 -33,144l344 546c-159,105 -313,218 -461,340l-419 -490c-38,-44 -104,-49 -148,-12l-2 2c-43,37 -48,103 -11,147l419 490c-86,76 -169,155 -251,236l-38 39c-63,62 -63,163 0,225l38 39c72,71 145,140 219,207l-385 424c-39,43 -36,109 7,148l2 1c43,39 109,36 148,-7l388 -427c150,125 305,241 467,349l-331 490c-33,48 -20,113 28,145l1 1c48,33 114,20 146,-28l334 -494c164,101 334,193 508,277l-264 549c-25,52 -3,115 49,140l2 1c52,25 115,3 140,-49l266 -554c38,16 76,32 114,48 141,57 283,108 427,153l-187 597c-17,56 14,114 69,132l2 0c55,17 114,-13 131,-68l188 -601c185,50 372,91 562,121l-101 632c-10,57 29,111 86,120l2 0c58,9 111,-29 120,-87l102 -635c189,24 380,38 572,42l-10 651c-1,58 45,106 103,107l2 0c58,1 105,-46 106,-103l10 -655c192,-3 382,-16 571,-38l84 655c8,57 60,98 118,90l2 0c57,-7 97,-60 90,-117l-85 -657c188,-30 374,-69 558,-118l180 642c15,56 73,88 129,73l2 -1c56,-15 88,-73 73,-129l-180 -643c154,-48 307,-102 458,-163 26,-11 51,-21 77,-32l272 613c23,53 85,77 138,53l2 -1c53,-23 77,-85 53,-138l-272 -613c173,-81 340,-171 503,-268l358 567c30,49 95,64 144,33l2 -1c49,-31 63,-96 32,-145l-357 -567c158,-104 311,-216 459,-336l435 508c37,44 104,49 147,11l2 -1c44,-38 49,-104 12,-148z"/>
 </g>
</svg>
