<?xml version="1.0" encoding="UTF-8"?>
<!DOCTYPE svg PUBLIC "-//W3C//DTD SVG 1.1//EN" "http://www.w3.org/Graphics/SVG/1.1/DTD/svg11.dtd">
<!-- Creator: CorelDRAW X8 -->
<svg xmlns="http://www.w3.org/2000/svg" xml:space="preserve" width="8.22817in" height="4.30657in" version="1.1" style="shape-rendering:geometricPrecision; text-rendering:geometricPrecision; image-rendering:optimizeQuality; fill-rule:evenodd; clip-rule:evenodd"
viewBox="0 0 8228 4307"
 xmlns:xlink="http://www.w3.org/1999/xlink">
 <defs>
  <style type="text/css">
   <![CDATA[
    .fil0 {fill:#173E4C;fill-rule:nonzero}
   ]]>
  </style>
 </defs>
 <g id="Layer_x0020_1">
  <metadata id="CorelCorpID_0Corel-Layer"/>
  <g id="_301901365376">
   <path class="fil0" d="M4061 1467c-175,0 -340,42 -485,117 131,66 221,202 221,359 0,222 -180,402 -402,402 -139,0 -262,-71 -334,-178 -42,113 -64,236 -64,364 0,588 476,1065 1064,1065 588,0 1064,-477 1064,-1065 0,-587 -476,-1064 -1064,-1064z"/>
   <path class="fil0" d="M5823 3608c-310,140 -630,241 -957,304 474,-277 794,-792 794,-1381 0,-588 -320,-1103 -794,-1381 327,63 647,165 957,304 556,250 1057,612 1491,1077 -434,465 -935,827 -1491,1077zm-1762 204c-706,0 -1281,-574 -1281,-1281 0,-706 575,-1281 1281,-1281 706,0 1281,575 1281,1281 0,707 -575,1281 -1281,1281zm-1762 -204c-555,-250 -1057,-612 -1491,-1077 434,-465 936,-827 1491,-1076 310,-140 630,-242 957,-305 -474,278 -793,793 -793,1381 0,589 319,1104 794,1381 -328,-63 -648,-164 -958,-304zm5895 -2006l-2 -1c-42,-39 -108,-36 -147,7l-411 452c-147,-125 -300,-241 -459,-349l347 -514c33,-48 20,-113 -28,-145l-2 -1c-47,-33 -112,-20 -145,28l-349 517c-162,-101 -329,-194 -502,-278l274 -570c25,-52 4,-115 -48,-140l-2 -1c-52,-25 -115,-3 -140,49l-275 573c-52,-23 -104,-45 -157,-67 -125,-50 -251,-96 -378,-137l191 -613c18,-55 -13,-113 -68,-131l-2 0c-55,-17 -114,13 -131,68l-192 615c-184,-52 -370,-94 -557,-127l102 -640c9,-57 -30,-110 -87,-120l-2 0c-57,-9 -110,30 -119,87l-103 641c-188,-25 -378,-40 -569,-46l10 -653c1,-58 -46,-105 -103,-106l-2 0c-58,-1 -105,45 -106,103l-10 653c-192,2 -381,13 -570,33l-84 -649c-7,-57 -59,-97 -117,-90l-2 0c-57,8 -97,60 -90,117l84 649c-188,28 -375,66 -559,113l-176 -629c-16,-56 -73,-88 -129,-73l-2 1c-55,15 -88,73 -72,128l175 629c-170,51 -339,110 -506,177 -10,5 -21,9 -32,13l-263 -594c-24,-52 -85,-76 -138,-53l-2 1c-53,23 -76,85 -53,138l263 593c-174,79 -343,168 -507,264l-343 -544c-31,-48 -95,-63 -144,-32l-2 1c-49,31 -63,95 -33,144l343 542c-161,103 -316,215 -465,335l-413 -483c-37,-43 -103,-49 -147,-11l-1 1c-44,38 -49,104 -12,147l411 481c-102,88 -201,180 -296,276l-39 38c-62,62 -62,163 0,225l39 38c529,530 1146,939 1834,1218 665,270 1367,407 2087,407l0 0c0,0 0,0 0,0 720,0 1422,-137 2087,-407 688,-279 1305,-688 1835,-1218l38 -38c30,-30 47,-70 47,-113 0,-42 -17,-82 -47,-112l-38 -38c-63,-63 -126,-123 -191,-182l409 -450c39,-42 36,-108 -7,-147z"/>
  </g>
 </g>
</svg>
