<?xml version="1.0" encoding="UTF-8"?>
<!DOCTYPE svg PUBLIC "-//W3C//DTD SVG 1.1//EN" "http://www.w3.org/Graphics/SVG/1.1/DTD/svg11.dtd">
<!-- Creator: CorelDRAW X8 -->
<svg xmlns="http://www.w3.org/2000/svg" xml:space="preserve" width="8.35912in" height="4.18645in" version="1.1" style="shape-rendering:geometricPrecision; text-rendering:geometricPrecision; image-rendering:optimizeQuality; fill-rule:evenodd; clip-rule:evenodd"
viewBox="0 0 8359 4186"
 xmlns:xlink="http://www.w3.org/1999/xlink">
 <defs>
  <style type="text/css">
   <![CDATA[
    .str3 {stroke:black;stroke-width:10.0827}
    .str2 {stroke:black;stroke-width:9.81102}
    .str0 {stroke:black;stroke-width:15.0276}
    .str1 {stroke:black;stroke-width:16.059}
    .fil5 {fill:white}
    .fil0 {fill:black}
    .fil1 {fill:white}
    .fil3 {fill:url(#id0)}
    .fil2 {fill:url(#id1)}
    .fil4 {fill:url(#id2)}
    .fil6 {fill:url(#id3)}
   ]]>
  </style>
  <linearGradient id="id0" gradientUnits="userSpaceOnUse" x1="4695.09" y1="1855.83" x2="6997.2" y2="1112.49">
   <stop offset="0" style="stop-opacity:1; stop-color:#2D2D2D"/>
   <stop offset="0.431373" style="stop-opacity:1; stop-color:#171717"/>
   <stop offset="1" style="stop-opacity:1; stop-color:black"/>
  </linearGradient>
  <linearGradient id="id1" gradientUnits="userSpaceOnUse" xlink:href="#id0" x1="1197.28" y1="979.5" x2="4057.69" y2="2171.35">
  </linearGradient>
  <radialGradient id="id2" gradientUnits="userSpaceOnUse" gradientTransform="matrix(-0.95115 1.60961 -1.77828 -1.05078 11786 696)" cx="3341.16" cy="2961.66" r="63.7834" fx="3341.16" fy="2961.66">
   <stop offset="0" style="stop-opacity:1; stop-color:white"/>
   <stop offset="0.439216" style="stop-opacity:1; stop-color:#7F7F7F"/>
   <stop offset="1" style="stop-opacity:1; stop-color:black"/>
  </radialGradient>
  <radialGradient id="id3" gradientUnits="userSpaceOnUse" gradientTransform="matrix(-0.951097 1.60954 -1.77822 -1.05076 15541 -2420)" xlink:href="#id2" cx="5270.59" cy="2956.65" r="65.5472" fx="5270.59" fy="2956.65">
  </radialGradient>
 </defs>
 <g id="Layer_x0020_1">
  <metadata id="CorelCorpID_0Corel-Layer"/>
  <g id="_970908182112">
   <path class="fil0" d="M1365 3809c-265,-230 -464,-523 -554,-872 -55,-217 -105,-436 -152,-655 -12,-58 -16,-121 -7,-179 12,-75 -20,-96 -85,-119 -158,-55 -317,-114 -467,-189 -48,-24 -72,-99 -100,-155 -4,-8 39,-57 55,-54 517,71 1029,165 1529,313 492,145 972,327 1436,548 263,125 526,251 790,375 28,13 63,14 95,17 64,5 81,42 62,97 -39,120 -85,238 -122,359 -26,85 -33,178 -65,261 -80,202 -232,350 -423,438 -167,79 -352,122 -530,175 -96,29 -968,70 -1462,-360zm2361 -668l0 0c-112,-47 -224,-93 -336,-141 -278,-120 -552,-245 -832,-360 -284,-117 -571,-230 -861,-332 -253,-88 -514,-158 -770,-238 -109,-35 -106,-38 -100,70 18,292 115,559 251,818 162,308 416,523 704,695 261,155 562,197 862,202 149,2 299,-28 447,-53 375,-64 601,-351 635,-661z"/>
   <path class="fil1" d="M3726 3141c-34,310 -260,597 -635,661 -148,25 -298,55 -447,53 -300,-5 -601,-47 -862,-202 -288,-172 -542,-387 -704,-695 -136,-259 -233,-526 -251,-818 -6,-108 -9,-105 100,-70 256,80 517,150 770,238 290,102 577,215 861,332 280,115 554,240 832,360 112,48 224,94 336,141z"/>
   <path class="fil0" d="M5533 4169c-179,-53 -364,-96 -531,-175 -191,-88 -343,-236 -422,-438 -33,-83 -40,-176 -66,-261 -37,-121 -82,-239 -122,-359 -19,-55 -2,-92 62,-97 32,-3 67,-4 95,-17 264,-124 527,-250 790,-375 464,-221 944,-403 1436,-548 500,-148 1012,-242 1529,-313 16,-3 59,46 55,54 -28,56 -52,131 -100,155 -150,75 -308,134 -467,189 -65,23 -97,44 -85,119 9,58 5,121 -7,179 -47,219 -97,438 -152,655 -90,349 -266,671 -553,872 -623,436 -1367,389 -1462,360zm-265 -367l0 0c148,25 298,55 447,53 300,-5 601,-47 862,-202 288,-172 542,-387 704,-695 137,-259 233,-526 251,-818 7,-108 9,-105 -100,-70 -256,80 -517,150 -770,238 -290,102 -577,215 -861,332 -279,115 -554,240 -832,360 -111,48 -224,94 -336,141 34,310 260,597 635,661z"/>
   <path class="fil1" d="M4633 3141c34,310 260,597 635,661 148,25 298,55 447,53 300,-5 601,-47 862,-202 288,-172 542,-387 704,-695 137,-259 233,-526 251,-818 7,-108 9,-105 -100,-70 -256,80 -517,150 -770,238 -290,102 -577,215 -861,332 -279,115 -554,240 -832,360 -111,48 -224,94 -336,141z"/>
   <path class="fil0" d="M1144 279c-24,35 -44,72 -72,105 -119,146 -241,291 -362,436 10,7 20,15 31,23 82,-53 164,-107 248,-159 83,-51 163,-105 252,-149 120,-61 245,-116 372,-169 23,-9 65,3 98,6 -14,28 -23,60 -45,84 -14,16 -46,21 -59,48 92,-13 182,-29 276,-38 163,-16 328,-31 494,-38 39,-1 104,22 129,49 237,254 463,513 701,767 219,234 443,465 675,692 106,102 164,106 308,72 29,-7 64,-5 102,-8 14,17 30,36 46,56 39,-25 79,-51 124,-80 64,74 59,138 32,192 -137,273 -330,511 -651,662 -47,22 -91,46 -136,70 -43,24 -104,29 -131,-12 -21,-32 -14,-93 14,-115 118,-94 245,-181 376,-264 177,-113 288,-262 369,-432 -46,50 -91,100 -137,150 -176,190 -381,354 -670,444 -24,7 -50,15 -72,25 -127,59 -197,44 -298,-62 -182,-192 -369,-382 -548,-576 -232,-252 -453,-510 -690,-759 -79,-83 -190,-154 -297,-217 -99,-58 -213,-40 -308,-23 -180,33 -352,81 -526,125 -133,33 -266,67 -350,159 -5,6 -53,-2 -61,-12 -37,-45 -63,-91 -19,-135 103,-102 202,-206 304,-311 -75,-30 -55,-78 -35,-114 60,-104 120,-210 199,-304 62,-73 152,-130 231,-193 14,-10 35,-14 53,-21 11,9 22,18 33,26zm92 533l0 0c4,7 8,14 12,20 18,2 36,2 54,4 117,9 235,12 353,31 162,26 277,127 372,226 355,372 700,749 1047,1125 102,111 198,226 299,341 225,-121 506,-172 646,-371 -114,3 -219,-1 -320,-76 -244,-181 -405,-407 -601,-614 -247,-260 -481,-528 -712,-796 -79,-91 -166,-124 -281,-105 -180,29 -364,53 -538,94 -118,27 -221,80 -331,121z"/>
   <path class="fil0" d="M780 280c-74,166 -141,316 -211,472 -61,-32 -90,-86 -83,-137 19,-150 78,-280 294,-335z"/>
   <path class="fil2 str0" d="M1236 812c110,-41 213,-94 331,-121 174,-41 358,-65 538,-94 115,-19 202,14 281,105 231,268 465,536 712,796 196,207 357,433 601,614 101,75 206,79 320,76 -140,199 -421,250 -646,371 -101,-115 -197,-230 -299,-341 -347,-376 -692,-753 -1047,-1125 -95,-99 -210,-200 -372,-226 -118,-19 -236,-22 -353,-31 -18,-2 -36,-2 -54,-4 -4,-6 -8,-13 -12,-20z"/>
   <path class="fil0" d="M8127 1154c-65,-199 -156,-388 -342,-538 -22,-18 -45,-35 -68,-52 6,-4 12,-7 18,-10 44,25 89,49 134,73 14,-7 29,-15 44,-23 -36,-38 -76,-75 -106,-116 -112,-159 -322,-259 -584,-326 -19,-5 -56,5 -120,12 167,96 311,179 456,262 -54,0 -88,-13 -121,-26 -236,-92 -472,-183 -817,-178 -102,1 -210,10 -307,5 -146,-6 -186,8 -244,108 -86,147 -154,294 -251,441 -139,212 -293,425 -450,637 -118,159 -305,308 -487,457 -136,112 -215,147 -385,143 -9,11 -18,23 -27,35 19,41 36,83 56,124 19,39 39,73 62,107 71,67 144,138 220,207 123,112 271,204 562,194 93,-3 150,-22 210,-81 100,-97 208,-193 317,-289 119,-105 260,-207 362,-314 133,-140 245,-283 352,-426 78,-104 147,-209 199,-313 79,-158 140,-316 212,-481 513,-253 841,380 929,448 20,16 78,11 119,16 20,-32 64,-73 57,-96zm-1654 231l0 0c-202,310 -458,613 -835,905 -94,73 -177,149 -290,245 -179,-148 -346,-286 -511,-422 278,-145 483,-301 636,-467 175,-190 338,-383 478,-575 119,-163 197,-326 295,-489 27,-44 63,-88 106,-148 137,31 254,57 370,85 13,3 28,12 26,21 -42,275 -83,549 -275,845z"/>
   <path class="fil0" d="M7952 533c-87,-88 -175,-172 -254,-260 -78,-86 -224,-140 -266,-242 18,-10 35,-21 53,-31 85,37 184,65 252,111 102,70 184,152 271,230 64,58 40,130 -56,192z"/>
   <path class="fil3 str1" d="M5348 2535c-326,-81 -511,-235 -511,-422 278,-145 483,-301 636,-467 175,-190 338,-383 478,-575 119,-163 197,-326 295,-489 27,-44 63,-88 106,-148 137,31 387,71 503,99 13,3 -190,556 -382,852 -202,310 -458,613 -835,905 -94,73 -177,149 -290,245z"/>
   <path class="fil0" d="M3205 3525c-207,-25 -351,-256 -304,-447 54,-221 177,-363 403,-311 201,47 343,225 304,438 -41,222 -225,336 -403,320zm-9 -654l0 0c-39,21 -69,35 -96,53 -108,72 -162,219 -83,340 67,103 154,142 272,141 161,-2 273,-215 229,-355 -33,64 -74,102 -141,111 -67,9 -122,-1 -172,-47 -64,-58 -69,-140 -9,-243zm292 89l0 0c-58,-26 -110,-53 -164,-73 -33,-13 -100,34 -109,69 -11,47 14,89 64,106 100,34 147,14 209,-102z"/>
   <path class="fil4 str2" d="M3196 2871c-60,103 -55,185 9,243 50,46 105,56 172,47 67,-9 108,-47 141,-111 44,140 -68,353 -229,355 -118,1 -205,-38 -272,-141 -79,-121 -25,-268 83,-340 27,-18 57,-32 96,-53z"/>
   <path class="fil5" d="M3488 2960c-62,116 -109,136 -209,102 -50,-17 -75,-59 -64,-106 9,-35 74,-73 109,-69 87,8 87,8 164,73z"/>
   <path class="fil0" d="M5131 3535c-213,-25 -361,-262 -313,-459 56,-227 182,-373 414,-319 207,48 353,231 312,450 -42,228 -230,345 -413,328zm-10 -672l0 0c-40,22 -70,36 -98,55 -112,74 -167,225 -86,350 69,106 159,146 280,144 166,-2 281,-221 235,-365 -34,66 -76,105 -145,114 -68,10 -125,-1 -176,-47 -66,-61 -71,-145 -10,-251zm300 92l0 0c-59,-27 -112,-54 -168,-75 -34,-13 -103,35 -112,71 -11,48 15,91 65,109 103,35 152,14 215,-105z"/>
   <path class="fil6 str3" d="M5121 2863c-61,106 -56,190 10,251 51,46 108,57 176,47 69,-9 111,-48 145,-114 46,144 -69,363 -235,365 -121,2 -211,-38 -280,-144 -81,-125 -26,-276 86,-350 28,-19 58,-33 98,-55z"/>
   <path class="fil5" d="M5421 2955c-63,119 -112,140 -215,105 -50,-18 -76,-61 -65,-109 9,-36 76,-75 112,-71 89,8 89,8 168,75z"/>
  </g>
 </g>
</svg>
