<?xml version="1.0" encoding="UTF-8"?>
<!DOCTYPE svg PUBLIC "-//W3C//DTD SVG 1.1//EN" "http://www.w3.org/Graphics/SVG/1.1/DTD/svg11.dtd">
<!-- Creator: CorelDRAW X8 -->
<svg xmlns="http://www.w3.org/2000/svg" xml:space="preserve" width="8.14087in" height="4.0453in" version="1.1" style="shape-rendering:geometricPrecision; text-rendering:geometricPrecision; image-rendering:optimizeQuality; fill-rule:evenodd; clip-rule:evenodd"
viewBox="0 0 8141 4045"
 xmlns:xlink="http://www.w3.org/1999/xlink">
 <defs>
  <style type="text/css">
   <![CDATA[
    .fil0 {fill:#173E4C;fill-rule:nonzero}
   ]]>
  </style>
 </defs>
 <g id="Layer_x0020_1">
  <metadata id="CorelCorpID_0Corel-Layer"/>
  <g id="_301901234512">
   <path class="fil0" d="M3527 1526c130,66 219,200 219,355 0,220 -178,398 -398,398 -137,0 -259,-70 -330,-176 -41,112 -64,234 -64,361 0,581 472,1053 1054,1053 581,0 1053,-472 1053,-1053 0,-582 -472,-1054 -1053,-1054 -173,0 -337,42 -481,116z"/>
   <path class="fil0" d="M5275 2464c0,698 -569,1267 -1267,1267 -699,0 -1268,-569 -1268,-1267 0,-699 569,-1268 1268,-1268 698,0 1267,569 1267,1268zm2832 -879l-1 -1c-43,-39 -108,-36 -146,7l-391 429c-146,-125 -297,-242 -455,-350l328 -486c32,-47 20,-111 -27,-143l-2 -1c-47,-32 -112,-20 -144,27l-329 488c-161,-102 -327,-195 -499,-280l258 -535c24,-52 3,-113 -49,-138l-2 -1c-51,-25 -113,-3 -137,48l-259 537c-59,-27 -119,-52 -180,-77 -116,-47 -234,-90 -353,-129l179 -572c17,-55 -13,-113 -68,-130l-2 0c-54,-17 -112,13 -129,68l-179 572c-183,-52 -369,-95 -557,-128l96 -595c9,-56 -30,-109 -86,-118l-2 -1c-56,-9 -109,30 -118,86l-96 596c-188,-26 -377,-42 -569,-48l10 -605c1,-57 -45,-104 -102,-105l-2 0c-57,-1 -104,45 -105,102l-9 605c-192,1 -382,12 -570,32l-77 -600c-8,-57 -59,-97 -116,-89l-2 0c-57,7 -97,59 -89,116l77 600c-188,27 -375,65 -559,112l-163 -581c-15,-55 -72,-88 -127,-72l-2 0c-55,16 -87,73 -72,128l163 581c-169,50 -336,108 -500,175 -13,5 -26,11 -38,16l-244 -550c-23,-52 -84,-76 -136,-52l-2 0c-52,24 -76,85 -53,137l243 548c-173,80 -342,169 -506,266l-318 -504c-30,-48 -94,-63 -142,-32l-2 1c-48,30 -63,94 -32,142l317 503c-160,103 -315,215 -464,336l-383 -448c-37,-44 -102,-49 -145,-12l-2 2c-43,37 -48,102 -11,145l382 447c-96,83 -189,170 -279,260l-38 38c-62,62 -62,161 0,223 61,61 161,61 222,0l38 -38c494,-494 1070,-876 1711,-1137 383,-155 780,-263 1186,-323 -489,270 -821,790 -821,1387 0,872 709,1581 1582,1581 872,0 1581,-709 1581,-1581 0,-597 -332,-1117 -821,-1387 406,60 803,168 1186,323 642,261 1217,643 1711,1137l38 38c31,30 71,46 111,46 41,0 81,-16 111,-46 62,-62 62,-161 0,-223l-38 -38c-53,-53 -107,-105 -162,-155l389 -428c38,-42 35,-108 -7,-146z"/>
  </g>
 </g>
</svg>
