<?xml version="1.0" encoding="UTF-8"?>
<!DOCTYPE svg PUBLIC "-//W3C//DTD SVG 1.1//EN" "http://www.w3.org/Graphics/SVG/1.1/DTD/svg11.dtd">
<!-- Creator: CorelDRAW X8 -->
<svg xmlns="http://www.w3.org/2000/svg" xml:space="preserve" width="8.09722in" height="4.2156in" version="1.1" style="shape-rendering:geometricPrecision; text-rendering:geometricPrecision; image-rendering:optimizeQuality; fill-rule:evenodd; clip-rule:evenodd"
viewBox="0 0 8097 4216"
 xmlns:xlink="http://www.w3.org/1999/xlink">
 <defs>
  <style type="text/css">
   <![CDATA[
    .fil0 {fill:#173E4C;fill-rule:nonzero}
   ]]>
  </style>
 </defs>
 <g id="Layer_x0020_1">
  <metadata id="CorelCorpID_0Corel-Layer"/>
  <g id="_301855779056">
   <path class="fil0" d="M3923 1435c-171,0 -332,41 -475,114 128,65 216,198 216,352 0,217 -176,393 -393,393 -137,0 -256,-69 -327,-174 -41,112 -63,232 -63,357 0,576 467,1043 1042,1043 576,0 1043,-467 1043,-1043 0,-575 -467,-1042 -1043,-1042z"/>
   <path class="fil0" d="M5850 3529c-379,154 -772,261 -1174,320 484,-266 813,-781 813,-1372 0,-590 -329,-1105 -813,-1372 402,59 795,166 1174,320 603,245 1148,598 1620,1052 -472,454 -1017,808 -1620,1052zm-3181 -1052c0,-691 563,-1254 1254,-1254 692,0 1255,563 1255,1254 0,692 -563,1254 -1255,1254 -691,0 -1254,-562 -1254,-1254zm-672 1052c-603,-244 -1148,-598 -1620,-1052 472,-454 1017,-807 1620,-1052 379,-154 772,-261 1173,-320 -483,267 -812,782 -812,1372 0,591 329,1106 812,1372 -401,-59 -794,-166 -1173,-320zm6067 -1960l-2 -1c-42,-38 -106,-35 -144,6l-443 487c-140,-122 -287,-236 -438,-342l369 -547c32,-47 19,-110 -28,-142l-1 -1c-47,-32 -111,-19 -142,28l-369 546c-156,-100 -317,-192 -482,-276l286 -595c24,-51 3,-112 -48,-136l-2 -1c-51,-25 -112,-3 -136,48l-286 594c-76,-35 -153,-69 -231,-100 -94,-39 -190,-74 -285,-107l196 -626c16,-54 -14,-112 -67,-128l-2 -1c-54,-17 -112,13 -129,67l-195 625c-178,-53 -359,-97 -541,-132l103 -642c9,-56 -29,-108 -85,-117l-2 0c-56,-9 -108,29 -117,85l-103 639c-183,-28 -369,-46 -555,-55l9 -641c1,-57 -44,-103 -100,-104l-2 0c-57,-1 -103,44 -104,101l-10 638c-18,0 -36,0 -55,0 -169,0 -337,8 -504,23l-81 -624c-7,-57 -58,-96 -114,-89l-2 0c-56,8 -96,59 -89,115l81 621c-186,24 -371,58 -553,101l-165 -592c-15,-55 -72,-87 -126,-71l-2 0c-55,15 -86,72 -71,126l164 589c-180,51 -358,111 -534,180l-243 -549c-23,-51 -83,-74 -135,-52l-2 1c-52,23 -75,83 -52,135l241 544c-173,76 -342,161 -506,255l-310 -492c-30,-48 -93,-62 -141,-32l-2 1c-47,30 -62,93 -32,141l308 488c-161,100 -316,209 -466,326l-366 -427c-36,-43 -101,-48 -144,-12l-1 2c-43,37 -48,101 -12,144l362 423c-118,100 -232,205 -343,316l-37 37c-61,61 -61,160 0,220l37 38c519,518 1123,920 1797,1193 651,264 1338,398 2043,398 706,0 1393,-134 2044,-398 674,-273 1278,-675 1796,-1193l38 -38c29,-29 46,-69 46,-110 0,-41 -17,-81 -46,-110l-38 -37c-44,-45 -89,-88 -134,-131l442 -486c38,-41 35,-106 -7,-144z"/>
  </g>
 </g>
</svg>
