<?xml version="1.0" encoding="UTF-8"?>
<!DOCTYPE svg PUBLIC "-//W3C//DTD SVG 1.1//EN" "http://www.w3.org/Graphics/SVG/1.1/DTD/svg11.dtd">
<!-- Creator: CorelDRAW X8 -->
<svg xmlns="http://www.w3.org/2000/svg" xml:space="preserve" width="8.35913in" height="4.63091in" version="1.1" style="shape-rendering:geometricPrecision; text-rendering:geometricPrecision; image-rendering:optimizeQuality; fill-rule:evenodd; clip-rule:evenodd"
viewBox="0 0 8359 4631"
 xmlns:xlink="http://www.w3.org/1999/xlink">
 <defs>
  <style type="text/css">
   <![CDATA[
    .fil0 {fill:#173E4C;fill-rule:nonzero}
   ]]>
  </style>
 </defs>
 <g id="Layer_x0020_1">
  <metadata id="CorelCorpID_0Corel-Layer"/>
  <g id="_301907446400">
   <path class="fil0" d="M4180 4465c-905,0 -1638,-733 -1638,-1638 0,-904 733,-1637 1638,-1637 904,0 1637,733 1637,1637 0,905 -733,1638 -1637,1638zm3983 -1791c-537,-538 -1164,-954 -1863,-1237 -675,-274 -1389,-413 -2120,-413 -732,0 -1445,139 -2121,413 -698,283 -1326,699 -1863,1237l-39 39c-64,63 -64,166 0,229l39 39c537,537 1165,954 1863,1237 676,274 1389,413 2121,413 731,0 1445,-139 2120,-413 699,-283 1326,-700 1863,-1237l39 -39c64,-63 64,-166 0,-229l-39 -39z"/>
   <path class="fil0" d="M4173 1788c0,-89 -72,-161 -161,-161 -570,0 -1033,463 -1033,1033 0,89 72,161 161,161 89,0 162,-72 162,-161 0,-392 318,-711 710,-711 89,0 161,-72 161,-161z"/>
   <path class="fil0" d="M4180 2238c-326,0 -590,264 -590,589 0,326 264,590 590,590 325,0 589,-264 589,-590 0,-325 -264,-589 -589,-589z"/>
   <path class="fil0" d="M550 1892l2 -1c46,-35 52,-101 12,-142l-376 -389c-38,-40 -105,-45 -149,-11l-2 1c-44,34 -50,94 -12,133l385 399c37,38 98,42 140,10z"/>
   <path class="fil0" d="M1047 1447c30,43 91,55 137,29l4 -2c51,-28 66,-92 33,-139l-308 -432c-31,-44 -97,-57 -146,-29l-2 1c-50,27 -64,85 -33,129l315 443z"/>
   <path class="fil0" d="M1748 1098c24,47 82,68 132,48l6 -2c54,-22 79,-82 53,-132l-233 -468c-24,-48 -87,-69 -140,-48l-2 1c-54,21 -78,76 -54,124l238 477z"/>
   <path class="fil0" d="M2499 842c16,50 71,79 124,66l8 -2c56,-14 89,-69 73,-122l-156 -494c-16,-50 -74,-79 -131,-65l-2 1c-57,13 -89,65 -74,115l158 501z"/>
   <path class="fil0" d="M3284 684c8,53 58,90 114,84l9 -1c57,-7 97,-56 89,-110l-74 -510c-8,-52 -61,-88 -119,-81l-2 0c-58,7 -99,54 -92,105l75 513z"/>
   <path class="fil0" d="M4188 707l9 0c57,1 103,-42 104,-96l9 -516c1,-51 -46,-94 -104,-95l-3 0c-58,-1 -106,41 -107,93l-9 515c-1,54 44,98 101,99z"/>
   <path class="fil0" d="M4977 788l8 1c56,8 108,-27 117,-80l92 -511c10,-51 -30,-100 -88,-108l-2 0c-58,-8 -112,27 -121,78l-92 507c-10,54 29,105 86,113z"/>
   <path class="fil0" d="M5748 948l7 2c53,15 109,-12 126,-62l175 -496c18,-50 -13,-103 -69,-118l-2 -1c-56,-15 -116,12 -133,62l-173 489c-18,52 13,109 69,124z"/>
   <path class="fil0" d="M6484 1206l6 2c49,22 108,2 133,-44l255 -470c25,-47 3,-103 -49,-126l-2 -1c-53,-22 -117,-3 -142,44l-250 461c-27,50 -5,111 49,134z"/>
   <path class="fil0" d="M7170 1555l3 3c46,27 107,16 138,-26l331 -434c32,-43 20,-101 -29,-130l-1 -2c-49,-29 -115,-17 -148,26l-323 424c-34,45 -21,109 29,139z"/>
   <path class="fil0" d="M8324 1463l-1 -1c-43,-35 -111,-33 -150,6l-389 379c-41,40 -38,105 8,142l1 1c41,34 102,31 140,-6l398 -388c40,-39 37,-98 -7,-133z"/>
  </g>
 </g>
</svg>
