<?xml version="1.0" encoding="UTF-8"?>
<!DOCTYPE svg PUBLIC "-//W3C//DTD SVG 1.1//EN" "http://www.w3.org/Graphics/SVG/1.1/DTD/svg11.dtd">
<!-- Creator: CorelDRAW X8 -->
<svg xmlns="http://www.w3.org/2000/svg" xml:space="preserve" width="8.27183in" height="6.59059in" version="1.1" style="shape-rendering:geometricPrecision; text-rendering:geometricPrecision; image-rendering:optimizeQuality; fill-rule:evenodd; clip-rule:evenodd"
viewBox="0 0 8272 6591"
 xmlns:xlink="http://www.w3.org/1999/xlink">
 <defs>
  <style type="text/css">
   <![CDATA[
    .str3 {stroke:black;stroke-width:16.1417}
    .str0 {stroke:black;stroke-width:10.5945}
    .str1 {stroke:black;stroke-width:7.03147}
    .str2 {stroke:black;stroke-width:16.1023}
    .fil5 {fill:white}
    .fil0 {fill:black}
    .fil1 {fill:white}
    .fil7 {fill:#992828;fill-rule:nonzero}
    .fil8 {fill:url(#id0)}
    .fil9 {fill:url(#id1)}
    .fil2 {fill:url(#id2)}
    .fil3 {fill:url(#id3)}
    .fil6 {fill:url(#id4)}
    .fil4 {fill:url(#id5)}
   ]]>
  </style>
  <linearGradient id="id0" gradientUnits="userSpaceOnUse" x1="872.95" y1="1288.99" x2="3961.23" y2="2075.77">
   <stop offset="0" style="stop-opacity:1; stop-color:#2D2D2D"/>
   <stop offset="0.431373" style="stop-opacity:1; stop-color:#171717"/>
   <stop offset="1" style="stop-opacity:1; stop-color:black"/>
  </linearGradient>
  <linearGradient id="id1" gradientUnits="userSpaceOnUse" xlink:href="#id0" x1="4558.3" y1="1752.81" x2="7134.89" y2="1415.76">
  </linearGradient>
  <linearGradient id="id2" gradientUnits="userSpaceOnUse" x1="2361.04" y1="5413.16" x2="2215.76" y2="6098.06">
   <stop offset="0" style="stop-opacity:1; stop-color:white"/>
   <stop offset="0.431373" style="stop-opacity:0.4; stop-color:#C4E9F1"/>
   <stop offset="1" style="stop-opacity:0.4; stop-color:#88D3E2"/>
  </linearGradient>
  <linearGradient id="id3" gradientUnits="userSpaceOnUse" x1="5991.37" y1="5087.51" x2="6953.43" y2="6162.75">
   <stop offset="0" style="stop-opacity:1; stop-color:white"/>
   <stop offset="0.768627" style="stop-opacity:0.4; stop-color:#C4E9F1"/>
   <stop offset="1" style="stop-opacity:0.4; stop-color:#88D3E2"/>
  </linearGradient>
  <radialGradient id="id4" gradientUnits="userSpaceOnUse" gradientTransform="matrix(-0.951399 1.61009 -1.81876 -1.07474 18512 -241)" cx="5567.84" cy="4204.58" r="45.2164" fx="5567.84" fy="4204.58">
   <stop offset="0" style="stop-opacity:1; stop-color:white"/>
   <stop offset="0.439216" style="stop-opacity:1; stop-color:#7F7F7F"/>
   <stop offset="1" style="stop-opacity:1; stop-color:black"/>
  </radialGradient>
  <radialGradient id="id5" gradientUnits="userSpaceOnUse" gradientTransform="matrix(-0.951464 1.61013 -1.81894 -1.0748 13987 3379)" xlink:href="#id4" cx="3278.26" cy="4172.78" r="68.1179" fx="3278.26" fy="4172.78">
  </radialGradient>
 </defs>
 <g id="Layer_x0020_1">
  <metadata id="CorelCorpID_0Corel-Layer"/>
  <g id="_970785776832">
   <path class="fil0" d="M2289 2481c241,-59 477,0 710,39 176,30 307,164 447,273 297,232 473,545 598,895 115,325 164,660 125,1001 -18,161 -77,317 -127,472 -77,243 -231,440 -383,636 -60,79 -134,147 -208,214 -95,85 -189,175 -296,244 -125,80 -265,137 -395,210 -202,114 -422,132 -643,124 -130,-6 -262,-41 -385,-85 -348,-124 -591,-382 -778,-694 -91,-153 -169,-319 -224,-488 -71,-220 -83,-453 -48,-683 32,-208 81,-414 105,-623 25,-218 122,-399 238,-574 134,-200 257,-409 411,-592 240,-285 519,-529 864,-675 352,-148 712,-198 1082,-66 42,15 89,21 81,82 -9,65 -47,98 -111,95 -108,-6 -216,-21 -324,-17 -262,9 -511,74 -739,212z"/>
   <path class="fil0" d="M650 5743c-127,-159 -164,-330 -186,-499 -26,-192 -29,-388 -35,-582 -2,-56 13,-116 32,-169 9,-23 49,-35 74,-52 10,25 26,48 28,73 20,261 35,521 58,781 11,115 40,228 56,343 4,29 -15,60 -27,105z"/>
   <path class="fil0" d="M504 5842c-48,20 -68,-5 -85,-51 -115,-300 -182,-610 -204,-930 -2,-29 2,-63 15,-89 11,-20 39,-40 61,-42 12,-2 36,33 40,55 52,260 104,521 151,783 15,87 14,178 22,274z"/>
   <path class="fil1" d="M830 4975c28,-428 137,-830 350,-1205 173,-305 401,-552 692,-736 111,-70 244,-101 362,-162 126,-65 265,-87 393,-69 220,33 454,0 656,130 332,210 575,486 662,888 77,354 90,709 -11,1057 -40,137 -122,264 -198,387 -153,247 -379,419 -606,587 -87,64 -186,114 -286,156 -165,69 -330,159 -502,184 -513,73 -943,-97 -1258,-530 -64,-86 -117,-181 -171,-274 -73,-127 -90,-267 -83,-413z"/>
   <path class="fil2" d="M2251 5443c-395,-49 -784,-187 -1094,-450 -80,-67 -198,-180 -294,-308 -15,96 -27,192 -33,290 -7,146 10,286 83,413 54,94 107,188 171,275 315,432 745,602 1258,529 172,-25 337,-115 502,-184 100,-42 199,-92 286,-156 227,-168 453,-340 606,-587 70,-113 101,-230 143,-354 -433,419 -1046,604 -1628,532z"/>
   <path class="fil0" d="M5449 2225c-108,-10 -217,-1 -325,-1 -64,-1 -100,-36 -105,-101 -5,-61 42,-65 85,-77 376,-112 733,-41 1076,127 337,165 603,424 827,723 143,191 256,407 378,614 107,181 194,367 207,586 12,210 50,418 71,628 23,232 -2,464 -85,679 -64,166 -151,328 -250,475 -203,301 -460,545 -814,649 -125,37 -259,65 -389,63 -221,-4 -440,-35 -636,-160 -125,-81 -262,-145 -383,-232 -102,-75 -192,-170 -282,-261 -70,-70 -140,-143 -196,-224 -141,-205 -284,-411 -348,-657 -42,-158 -92,-317 -102,-478 -20,-344 47,-675 180,-993 143,-343 336,-645 645,-860 146,-101 284,-227 461,-247 235,-27 474,-72 711,1 -220,-151 -465,-230 -726,-254z"/>
   <path class="fil0" d="M7635 5829c136,-153 182,-321 213,-489 37,-190 50,-385 67,-579 4,-56 -7,-116 -24,-170 -7,-24 -46,-37 -71,-56 -11,24 -28,47 -31,72 -35,258 -63,518 -101,776 -16,114 -52,225 -74,339 -5,28 11,61 21,107z"/>
   <path class="fil0" d="M7776 5935c47,23 68,-1 88,-46 130,-293 214,-598 253,-916 4,-30 2,-64 -10,-90 -10,-21 -37,-42 -59,-46 -11,-2 -37,31 -42,52 -66,258 -132,515 -193,774 -20,86 -24,177 -37,272z"/>
   <path class="fil1" d="M7497 5052c-4,-429 -92,-837 -284,-1224 -157,-314 -371,-574 -651,-773 -107,-77 -239,-116 -353,-183 -122,-71 -260,-102 -389,-90 -221,19 -453,-26 -662,91 -342,192 -601,454 -709,850 -96,349 -128,703 -46,1056 33,139 108,271 177,398 139,255 356,440 574,620 83,68 179,124 276,172 161,78 321,177 492,212 508,102 947,-43 1285,-458 68,-83 126,-174 185,-264 79,-123 104,-261 105,-407z"/>
   <path class="fil3" d="M7389 4311c-94,469 -501,952 -871,1135 -449,221 -879,210 -1355,109 -121,-26 -257,-61 -380,-115 109,117 231,221 355,323 83,68 179,124 276,172 161,79 321,177 492,212 508,102 947,-43 1285,-458 68,-83 127,-174 185,-264 79,-123 104,-261 105,-407 -2,-243 -32,-478 -92,-707z"/>
   <path class="fil0" d="M3114 4868c-250,-31 -424,-316 -367,-552 65,-272 214,-447 486,-383 243,58 414,277 367,540 -50,274 -271,414 -486,395zm-11 -807l0 0c-47,26 -83,43 -115,65 -131,90 -196,271 -101,420 81,127 186,175 328,173 195,-2 330,-265 276,-437 -40,78 -89,125 -169,137 -81,11 -148,-2 -208,-58 -77,-72 -83,-173 -11,-300zm352 110l0 0c-69,-32 -132,-65 -197,-90 -40,-16 -121,42 -132,85 -13,58 17,109 77,130 121,43 178,17 252,-125z"/>
   <path class="fil4 str0" d="M3103 4061c-72,127 -66,228 11,300 60,56 127,69 208,58 80,-12 129,-59 169,-137 54,172 -81,435 -276,437 -142,2 -247,-46 -328,-173 -95,-149 -30,-330 101,-420 32,-22 68,-39 115,-65z"/>
   <path class="fil5" d="M3455 4171c-74,142 -131,168 -252,125 -60,-21 -90,-72 -77,-130 11,-43 90,-90 132,-85 104,10 104,10 197,90z"/>
   <path class="fil0" d="M5459 4666c-166,-21 -281,-210 -244,-367 44,-180 142,-296 323,-253 161,38 274,183 243,358 -33,182 -180,275 -322,262zm-8 -536l0 0c-31,18 -54,29 -76,43 -87,60 -130,180 -67,280 54,84 124,116 218,114 129,-1 219,-176 183,-290 -26,52 -59,83 -112,91 -54,7 -98,-1 -138,-38 -51,-48 -56,-116 -8,-200zm234 73l0 0c-46,-21 -87,-43 -131,-60 -26,-10 -80,29 -87,57 -9,38 11,73 51,87 80,28 118,11 167,-84z"/>
   <path class="fil6 str1" d="M5451 4130c-48,84 -43,152 8,200 40,37 84,45 138,38 53,-8 86,-39 112,-91 36,114 -54,289 -183,290 -94,2 -164,-30 -218,-114 -63,-100 -20,-220 67,-280 22,-14 45,-25 76,-43z"/>
   <path class="fil5" d="M5685 4203c-49,95 -87,112 -167,84 -40,-14 -60,-49 -51,-87 7,-28 59,-59 87,-57 70,7 70,7 131,60z"/>
   <path class="fil7" d="M1002 4268l-8 -4 -4 -2 -2 -1 0 0c-1,-1 -1,3 6,-2 3,-6 0,-4 1,-5l0 -1c0,0 2,1 3,2l3 2 8 4 15 8 7 3c1,0 3,1 3,1 2,0 1,-1 -1,0l9 3c24,17 48,35 71,54 11,8 22,18 33,25 11,7 19,10 26,9 8,-1 21,-7 33,-13 13,-6 25,-13 38,-21 26,-14 53,-28 77,-45 24,-17 48,-34 72,-53l39 -24c15,-6 29,-14 44,-18 16,-3 32,-7 48,-6 16,-1 32,-1 47,2 31,3 60,9 90,14l-2 0c26,2 51,5 77,9 13,1 26,1 39,2l39 2c27,2 54,3 81,6 27,4 54,9 80,14l0 5c-27,4 -54,7 -80,8 -13,1 -26,4 -40,5l-40 4 -40 2c-14,1 -28,2 -42,1 -27,-1 -55,-4 -82,-7l-1 0 -1 0c-28,-7 -56,-15 -84,-20 -14,-3 -28,-4 -41,-5 -14,-2 -27,0 -41,0 -13,0 -26,5 -40,8 -13,5 -26,11 -39,16 -26,14 -51,29 -75,47 -23,18 -46,37 -68,57 -11,10 -23,19 -35,29 -13,9 -26,19 -47,24 -22,4 -44,-7 -56,-17 -14,-10 -25,-20 -36,-31 -21,-21 -41,-42 -61,-64l8 4c-4,-1 -8,-2 -9,-3 -2,-1 -3,-2 -5,-3 -3,-2 -5,-4 -7,-6l-13 -13 -7 -6 -6 -8 -1 -2c0,-1 -2,1 1,-5 7,-5 7,0 7,-1l1 0 2 2 3 3 6 7 -3 4z"/>
   <path class="fil7" d="M1913 6155c14,-12 30,-23 42,-36 13,-13 26,-25 35,-40 11,-14 18,-30 24,-45 5,-16 8,-33 10,-50 4,-35 3,-72 5,-109 1,-38 6,-76 12,-114 5,-21 12,-36 18,-55l23 -53 25 -50c10,-17 18,-34 27,-50 19,-33 37,-67 57,-98 21,-32 43,-63 65,-93 0,0 1,-1 1,-1 30,-31 60,-62 91,-91 33,-27 65,-54 99,-79 33,-25 65,-52 100,-76 31,-27 62,-54 96,-80l0 0c1,-1 3,-1 4,0 0,1 0,2 0,3 -25,34 -52,67 -80,100 -29,31 -60,59 -91,88 -30,29 -62,56 -94,83 -29,29 -60,56 -90,84l1 -2 -71 86c-23,29 -47,58 -69,88 -10,15 -21,30 -31,46 -9,16 -18,32 -27,49 -7,17 -13,33 -19,51 -4,17 -9,38 -10,53 -1,74 12,146 -1,226 -3,19 -9,39 -17,58 -9,18 -21,36 -35,50 -7,8 -14,14 -22,20 -7,6 -15,12 -24,17 -17,10 -34,17 -52,25 -1,0 -2,-1 -3,-2 0,-1 0,-2 1,-3z"/>
   <path class="fil7" d="M3494 5588c-1,1 -9,-10 -24,-21 -9,-5 -19,-11 -31,-18 -12,-6 -26,-14 -41,-22 -16,-9 -33,-18 -50,-32 -17,-13 -31,-31 -45,-50 -13,-20 -23,-41 -35,-62 -10,-22 -18,-46 -27,-67 -8,-22 -14,-48 -17,-72 -2,-24 -3,-48 -3,-71 1,-45 7,-85 11,-120 3,-17 3,-33 6,-47 2,-14 1,-26 2,-36 2,-21 3,-33 3,-33l0 -1c0,-1 2,-2 3,-2 1,0 1,1 2,2 0,0 5,11 11,31 4,10 8,23 10,38 3,14 6,31 6,49 3,37 1,79 -3,122 -4,22 -4,43 -5,66 1,22 -2,43 0,67l5 36c1,12 6,20 10,31 10,21 23,39 41,51 16,14 34,24 50,34 17,11 32,21 46,31 29,21 54,42 65,62 13,20 13,31 14,32 0,1 0,2 -1,3 -1,1 -3,0 -3,-1z"/>
   <path class="fil7" d="M815 5026c23,61 43,123 66,182 12,29 24,59 39,86 8,13 15,26 24,37 4,6 9,11 14,16 4,5 10,7 14,12l1 0 1 0c7,4 14,9 22,13 7,2 15,6 22,6 16,3 30,-4 44,-14 12,-12 24,-26 33,-43 10,-17 17,-35 25,-52 13,-37 25,-74 38,-111 7,-19 15,-37 25,-55 9,-19 22,-35 33,-51l17 -23c6,-8 15,-15 23,-22 15,-15 31,-30 50,-39 18,-10 36,-22 56,-27 19,-7 39,-15 58,-19 39,-10 78,-16 116,-23 38,-6 74,-14 111,-23l-1 1 56 -22 59 -18c21,-5 41,-9 61,-13 21,0 42,-1 62,0 1,0 2,1 2,2 0,1 0,2 -1,2l-1 1c-20,5 -39,9 -58,13 -19,7 -37,14 -56,21l-108 53 -1 0 0 0 -58 19c-19,6 -38,9 -58,14 -38,9 -77,14 -113,23 -19,3 -36,9 -54,14 -18,4 -33,14 -49,22 -18,6 -30,19 -45,29 -7,5 -14,10 -21,16l-19 22c-13,15 -27,28 -37,43 -11,14 -20,31 -29,48 -18,35 -30,72 -45,108 -6,18 -14,37 -22,55 -8,18 -18,36 -32,53 -15,15 -36,30 -61,29 -12,1 -23,-2 -35,-4 -10,-4 -20,-8 -30,-13l1 1c-8,-5 -18,-10 -25,-17 -7,-6 -13,-13 -19,-20 -11,-14 -20,-29 -28,-44 -15,-31 -27,-62 -36,-94 -19,-63 -30,-128 -35,-193 0,-1 1,-3 2,-3 1,0 2,1 2,2z"/>
   <path class="fil0" d="M1974 4806c50,-10 90,-30 130,-50l-130 50z"/>
   <path class="fil7" d="M1974 4804c0,0 0,-5 3,-10 2,-4 6,-10 12,-14 3,-2 6,-4 10,-4 4,0 9,3 14,5 5,2 9,3 13,1 5,-1 8,-5 11,-9 3,-5 6,-10 9,-13 3,-3 6,-6 10,-9 6,-5 13,-6 20,-6 14,1 27,9 27,9l2 4c0,0 -2,15 -12,27 -5,6 -11,12 -20,14 -9,1 -18,4 -28,-1 -5,-1 -10,-3 -14,-2 -5,1 -8,5 -11,10 -3,4 -5,9 -9,11 -3,2 -7,2 -10,2 -7,0 -13,-2 -18,-5 -5,-2 -8,-6 -8,-6l-1 -4z"/>
   <path class="fil7" d="M1696 3143c7,10 14,20 21,29 6,11 15,18 22,26 7,8 16,15 25,21 8,7 18,13 27,17 19,10 40,17 62,21 21,6 44,9 67,12 23,4 46,7 70,13 24,7 47,16 70,27 10,8 21,14 30,22 9,10 19,17 26,27 6,11 15,20 20,31l16 33 0 1 6 29 2 29 2 57c0,10 1,19 2,28 0,9 3,17 4,25 2,9 6,15 8,23 1,3 5,5 7,8l6 8 1 1 1 1c3,2 6,5 9,7 3,4 7,4 11,5 3,2 7,3 12,4 4,0 8,1 14,1 10,0 21,0 33,-1l19 0c6,0 14,2 21,3 7,1 15,6 22,9l6 3 1 1 1 0 0 0 2 2 1 1 1 1 7 6c4,5 11,17 14,24 2,6 5,13 7,19 3,12 5,23 8,31 1,5 3,8 4,11 2,4 4,3 4,6l3 1c35,33 70,67 105,101 34,35 68,69 100,106 1,2 1,3 0,4 -1,1 -2,1 -3,0 -41,-26 -80,-55 -120,-84 -38,-29 -77,-59 -115,-89l3 2c-7,-6 -16,-13 -19,-20 -4,-7 -8,-14 -10,-20 -5,-14 -8,-25 -10,-35 -2,-6 -3,-9 -5,-13 -2,-3 1,-2 -2,-6l-6 -6 -2 -2 0 0c-2,-2 3,2 2,2l0 0 0 0 0 0 -1 -1 -2 -1c-3,-1 -4,-4 -9,-4 -4,0 -7,-2 -12,-2l-15 -1c-12,-1 -23,-1 -36,-2 -6,0 -13,-2 -20,-3 -7,-1 -14,-3 -21,-7 -6,-3 -14,-5 -19,-11 -5,-5 -11,-11 -16,-16l2 2 -10 -15c-3,-5 -7,-10 -9,-16 -2,-10 -7,-21 -8,-32 0,-10 -1,-21 0,-30 1,-10 1,-20 2,-30l6 -56 0 -28 -4 -26 0 0 -14 -31c-5,-10 -13,-18 -20,-27 -7,-8 -17,-14 -25,-21 -10,-5 -20,-9 -30,-14 -21,-7 -43,-11 -65,-14 -23,-2 -46,-4 -69,-8 -24,-3 -48,-8 -72,-15 -12,-3 -24,-7 -35,-13 -12,-5 -23,-10 -33,-18 -11,-7 -21,-15 -30,-25 -9,-9 -17,-18 -23,-29 -7,-11 -14,-21 -18,-33 -4,-11 -8,-22 -11,-33 -1,-2 0,-3 1,-4 1,0 2,1 3,1z"/>
   <path class="fil7" d="M3128 3005c1,8 2,15 1,24 -2,8 -3,17 -6,24 -5,16 -12,31 -20,45 -17,27 -38,53 -64,73l4 -28c14,23 25,48 35,73 5,13 11,25 17,37 5,13 10,26 16,38 6,12 9,26 15,39 4,13 6,28 9,42 0,14 1,28 1,42 -1,14 -3,28 -5,41 -9,54 -17,106 -35,157 -4,13 -9,26 -13,38 -3,13 -6,25 -11,37 -5,12 -4,25 -7,38 -2,13 -4,26 -7,40l0 0c-1,2 -2,2 -3,2 -1,0 -2,-1 -2,-2 -4,-13 -6,-26 -9,-40 -1,-14 -6,-28 -4,-42 0,-14 2,-28 3,-42 1,-14 5,-26 7,-40 6,-25 10,-52 17,-78 6,-26 14,-51 21,-76 2,-13 6,-26 9,-38l8 -37c1,-13 1,-25 1,-38 -2,-13 -4,-26 -9,-38 -5,-12 -11,-23 -17,-35 -7,-11 -15,-22 -23,-32 -16,-21 -35,-41 -50,-63 -6,-9 -4,-21 4,-28l1 0c21,-19 43,-39 62,-61 10,-11 19,-22 27,-34 5,-6 9,-12 12,-18 5,-5 6,-14 10,-21l0 0c1,-1 2,-2 3,-1 1,0 2,1 2,2z"/>
   <path class="fil7" d="M1002 4268l-8 -4 -4 -2 -2 -1 0 0c-1,-1 -1,3 6,-2 3,-6 0,-4 1,-5l0 -1c0,0 2,1 3,2l3 2 8 4 15 8 7 3c1,0 3,1 3,1 2,0 1,-1 -1,0l9 3c24,17 48,35 71,54 11,8 22,18 33,25 11,7 19,10 26,9 8,-1 21,-7 33,-13 13,-6 25,-13 38,-21 26,-14 53,-28 77,-45 24,-17 48,-34 72,-53l39 -24c15,-6 29,-14 44,-18 16,-3 32,-7 48,-6 16,-1 32,-1 47,2 31,3 60,9 90,14l-2 0c26,2 51,5 77,9 13,1 26,1 39,2l39 2c27,2 54,3 81,6 27,4 54,9 80,14l0 5c-27,4 -54,7 -80,8 -13,1 -26,4 -40,5l-40 4 -40 2c-14,1 -28,2 -42,1 -27,-1 -55,-4 -82,-7l-1 0 -1 0c-28,-7 -56,-15 -84,-20 -14,-3 -28,-4 -41,-5 -14,-2 -27,0 -41,0 -13,0 -26,5 -40,8 -13,5 -26,11 -39,16 -26,14 -51,29 -75,47 -23,18 -46,37 -68,57 -11,10 -23,19 -35,29 -13,9 -26,19 -47,24 -22,4 -44,-7 -56,-17 -14,-10 -25,-20 -36,-31 -21,-21 -41,-42 -61,-64l8 4c-4,-1 -8,-2 -9,-3 -2,-1 -3,-2 -5,-3 -3,-2 -5,-4 -7,-6l-13 -13 -7 -6 -6 -8 -1 -2c0,-1 -2,1 1,-5 7,-5 7,0 7,-1l1 0 2 2 3 3 6 7 -3 4z"/>
   <path class="fil7" d="M1913 6155c14,-12 30,-23 42,-36 13,-13 26,-25 35,-40 11,-14 18,-30 24,-45 5,-16 8,-33 10,-50 4,-35 3,-72 5,-109 1,-38 6,-76 12,-114 5,-21 12,-36 18,-55l23 -53 25 -50c10,-17 18,-34 27,-50 19,-33 37,-67 57,-98 21,-32 43,-63 65,-93 0,0 1,-1 1,-1 30,-31 60,-62 91,-91 33,-27 65,-54 99,-79 33,-25 65,-52 100,-76 31,-27 62,-54 96,-80l0 0c1,-1 3,-1 4,0 0,1 0,2 0,3 -25,34 -52,67 -80,100 -29,31 -60,59 -91,88 -30,29 -62,56 -94,83 -29,29 -60,56 -90,84l1 -2 -71 86c-23,29 -47,58 -69,88 -10,15 -21,30 -31,46 -9,16 -18,32 -27,49 -7,17 -13,33 -19,51 -4,17 -9,38 -10,53 -1,74 12,146 -1,226 -3,19 -9,39 -17,58 -9,18 -21,36 -35,50 -7,8 -14,14 -22,20 -7,6 -15,12 -24,17 -17,10 -34,17 -52,25 -1,0 -2,-1 -3,-2 0,-1 0,-2 1,-3z"/>
   <path class="fil7" d="M3494 5588c-1,1 -9,-10 -24,-21 -9,-5 -19,-11 -31,-18 -12,-6 -26,-14 -41,-22 -16,-9 -33,-18 -50,-32 -17,-13 -31,-31 -45,-50 -13,-20 -23,-41 -35,-62 -10,-22 -18,-46 -27,-67 -8,-22 -14,-48 -17,-72 -2,-24 -3,-48 -3,-71 1,-45 7,-85 11,-120 3,-17 3,-33 6,-47 2,-14 1,-26 2,-36 2,-21 3,-33 3,-33l0 -1c0,-1 2,-2 3,-2 1,0 1,1 2,2 0,0 5,11 11,31 4,10 8,23 10,38 3,14 6,31 6,49 3,37 1,79 -3,122 -4,22 -4,43 -5,66 1,22 -2,43 0,67l5 36c1,12 6,20 10,31 10,21 23,39 41,51 16,14 34,24 50,34 17,11 32,21 46,31 29,21 54,42 65,62 13,20 13,31 14,32 0,1 0,2 -1,3 -1,1 -3,0 -3,-1z"/>
   <path class="fil7" d="M815 5026c23,61 43,123 66,182 12,29 24,59 39,86 8,13 15,26 24,37 4,6 9,11 14,16 4,5 10,7 14,12l1 0 1 0c7,4 14,9 22,13 7,2 15,6 22,6 16,3 30,-4 44,-14 12,-12 24,-26 33,-43 10,-17 17,-35 25,-52 13,-37 25,-74 38,-111 7,-19 15,-37 25,-55 9,-19 22,-35 33,-51l17 -23c6,-8 15,-15 23,-22 15,-15 31,-30 50,-39 18,-10 36,-22 56,-27 19,-7 39,-15 58,-19 39,-10 78,-16 116,-23 38,-6 74,-14 111,-23l-1 1 56 -22 59 -18c21,-5 41,-9 61,-13 21,0 42,-1 62,0 1,0 2,1 2,2 0,1 0,2 -1,2l-1 1c-20,5 -39,9 -58,13 -19,7 -37,14 -56,21l-108 53 -1 0 0 0 -58 19c-19,6 -38,9 -58,14 -38,9 -77,14 -113,23 -19,3 -36,9 -54,14 -18,4 -33,14 -49,22 -18,6 -30,19 -45,29 -7,5 -14,10 -21,16l-19 22c-13,15 -27,28 -37,43 -11,14 -20,31 -29,48 -18,35 -30,72 -45,108 -6,18 -14,37 -22,55 -8,18 -18,36 -32,53 -15,15 -36,30 -61,29 -12,1 -23,-2 -35,-4 -10,-4 -20,-8 -30,-13l1 1c-8,-5 -18,-10 -25,-17 -7,-6 -13,-13 -19,-20 -11,-14 -20,-29 -28,-44 -15,-31 -27,-62 -36,-94 -19,-63 -30,-128 -35,-193 0,-1 1,-3 2,-3 1,0 2,1 2,2z"/>
   <path class="fil0" d="M1974 4806c50,-10 90,-30 130,-50l-130 50z"/>
   <path class="fil7" d="M1974 4804c0,0 0,-5 3,-10 2,-4 6,-10 12,-14 3,-2 6,-4 10,-4 4,0 9,3 14,5 5,2 9,3 13,1 5,-1 8,-5 11,-9 3,-5 6,-10 9,-13 3,-3 6,-6 10,-9 6,-5 13,-6 20,-6 14,1 27,9 27,9l2 4c0,0 -2,15 -12,27 -5,6 -11,12 -20,14 -9,1 -18,4 -28,-1 -5,-1 -10,-3 -14,-2 -5,1 -8,5 -11,10 -3,4 -5,9 -9,11 -3,2 -7,2 -10,2 -7,0 -13,-2 -18,-5 -5,-2 -8,-6 -8,-6l-1 -4z"/>
   <path class="fil7" d="M1696 3143c7,10 14,20 21,29 6,11 15,18 22,26 7,8 16,15 25,21 8,7 18,13 27,17 19,10 40,17 62,21 21,6 44,9 67,12 23,4 46,7 70,13 24,7 47,16 70,27 10,8 21,14 30,22 9,10 19,17 26,27 6,11 15,20 20,31l16 33 0 1 6 29 2 29 2 57c0,10 1,19 2,28 0,9 3,17 4,25 2,9 6,15 8,23 1,3 5,5 7,8l6 8 1 1 1 1c3,2 6,5 9,7 3,4 7,4 11,5 3,2 7,3 12,4 4,0 8,1 14,1 10,0 21,0 33,-1l19 0c6,0 14,2 21,3 7,1 15,6 22,9l6 3 1 1 1 0 0 0 2 2 1 1 1 1 7 6c4,5 11,17 14,24 2,6 5,13 7,19 3,12 5,23 8,31 1,5 3,8 4,11 2,4 4,3 4,6l3 1c35,33 70,67 105,101 34,35 68,69 100,106 1,2 1,3 0,4 -1,1 -2,1 -3,0 -41,-26 -80,-55 -120,-84 -38,-29 -77,-59 -115,-89l3 2c-7,-6 -16,-13 -19,-20 -4,-7 -8,-14 -10,-20 -5,-14 -8,-25 -10,-35 -2,-6 -3,-9 -5,-13 -2,-3 1,-2 -2,-6l-6 -6 -2 -2 0 0c-2,-2 3,2 2,2l0 0 0 0 0 0 -1 -1 -2 -1c-3,-1 -4,-4 -9,-4 -4,0 -7,-2 -12,-2l-15 -1c-12,-1 -23,-1 -36,-2 -6,0 -13,-2 -20,-3 -7,-1 -14,-3 -21,-7 -6,-3 -14,-5 -19,-11 -5,-5 -11,-11 -16,-16l2 2 -10 -15c-3,-5 -7,-10 -9,-16 -2,-10 -7,-21 -8,-32 0,-10 -1,-21 0,-30 1,-10 1,-20 2,-30l6 -56 0 -28 -4 -26 0 0 -14 -31c-5,-10 -13,-18 -20,-27 -7,-8 -17,-14 -25,-21 -10,-5 -20,-9 -30,-14 -21,-7 -43,-11 -65,-14 -23,-2 -46,-4 -69,-8 -24,-3 -48,-8 -72,-15 -12,-3 -24,-7 -35,-13 -12,-5 -23,-10 -33,-18 -11,-7 -21,-15 -30,-25 -9,-9 -17,-18 -23,-29 -7,-11 -14,-21 -18,-33 -4,-11 -8,-22 -11,-33 -1,-2 0,-3 1,-4 1,0 2,1 3,1z"/>
   <path class="fil7" d="M3128 3005c1,8 2,15 1,24 -2,8 -3,17 -6,24 -5,16 -12,31 -20,45 -17,27 -38,53 -64,73l4 -28c14,23 25,48 35,73 5,13 11,25 17,37 5,13 10,26 16,38 6,12 9,26 15,39 4,13 6,28 9,42 0,14 1,28 1,42 -1,14 -3,28 -5,41 -9,54 -17,106 -35,157 -4,13 -9,26 -13,38 -3,13 -6,25 -11,37 -5,12 -4,25 -7,38 -2,13 -4,26 -7,40l0 0c-1,2 -2,2 -3,2 -1,0 -2,-1 -2,-2 -4,-13 -6,-26 -9,-40 -1,-14 -6,-28 -4,-42 0,-14 2,-28 3,-42 1,-14 5,-26 7,-40 6,-25 10,-52 17,-78 6,-26 14,-51 21,-76 2,-13 6,-26 9,-38l8 -37c1,-13 1,-25 1,-38 -2,-13 -4,-26 -9,-38 -5,-12 -11,-23 -17,-35 -7,-11 -15,-22 -23,-32 -16,-21 -35,-41 -50,-63 -6,-9 -4,-21 4,-28l1 0c21,-19 43,-39 62,-61 10,-11 19,-22 27,-34 5,-6 9,-12 12,-18 5,-5 6,-14 10,-21l0 0c1,-1 2,-2 3,-1 1,0 2,1 2,2z"/>
   <path class="fil7" d="M7330 4173l6 -7 3 -3 2 -2 1 0c0,1 0,-4 7,1 3,6 1,5 1,6l-1 1 -6 8 -7 6 -13 13c-2,2 -4,4 -7,6 -2,1 -3,2 -5,3 -1,1 -5,2 -9,3l8 -3c-20,22 -40,42 -61,64 -11,10 -22,20 -36,30 -12,10 -34,21 -56,17 -21,-5 -34,-15 -47,-24 -12,-10 -24,-19 -35,-29 -22,-20 -45,-39 -68,-57 -24,-18 -49,-33 -75,-47 -13,-5 -26,-11 -39,-16 -14,-3 -27,-8 -40,-8 -14,0 -27,-2 -41,0 -13,1 -27,2 -41,5 -28,5 -56,13 -84,20l-1 0 -1 0c-27,3 -55,6 -83,7 -13,1 -27,0 -41,0l-41 -3 -39 -4c-14,-1 -27,-4 -40,-5 -27,-1 -53,-4 -80,-8l0 -5c26,-5 53,-10 80,-14 27,-3 54,-4 81,-5l39 -3c13,-1 26,-1 39,-2 26,-4 51,-7 77,-9l-2 0c30,-5 59,-11 90,-14 15,-2 31,-3 47,-2 16,-1 32,3 47,6 16,4 30,12 45,18l39 25c24,18 48,35 72,52 24,17 51,31 77,45 13,8 25,15 38,21 12,6 25,12 33,13 7,1 15,-2 26,-9 11,-7 22,-17 33,-25 23,-19 47,-37 71,-54l9 -3c-2,0 -3,1 -1,0 0,0 2,-1 3,-1l7 -3 15 -8 8 -4 3 -2c1,-1 3,-2 3,-2l0 1c1,1 -2,-1 1,6 7,5 7,0 6,1l0 0 -2 1 -4 2 -8 4 -3 -4z"/>
   <path class="fil7" d="M6420 6069c-18,-8 -35,-15 -52,-25 -9,-5 -17,-11 -24,-17 -8,-6 -15,-12 -22,-20 -14,-14 -26,-32 -35,-50 -8,-19 -14,-39 -17,-58 -13,-80 0,-152 -1,-226 -1,-15 -6,-36 -10,-53 -6,-17 -12,-34 -20,-51 -8,-16 -17,-33 -26,-49 -10,-16 -21,-31 -31,-46 -22,-30 -46,-58 -70,-87l-70 -87 1 2c-30,-28 -61,-55 -90,-84 -32,-27 -64,-54 -94,-83 -31,-29 -62,-57 -92,-88 -27,-33 -54,-66 -79,-100 -1,-1 0,-3 1,-3 1,-1 2,-1 3,0l0 0c34,26 65,53 96,80 35,25 67,51 100,76 34,25 66,52 99,79 31,29 61,61 91,91 0,0 1,1 1,1 22,31 44,61 64,93 21,32 39,65 58,98 9,17 17,33 26,50l26 51 23 52c6,19 13,34 18,56 6,37 11,75 12,113 2,37 1,74 5,109 2,17 5,34 10,50 6,15 13,31 24,45 9,15 22,28 35,40 12,13 28,24 42,37 1,0 1,2 0,3 0,1 -2,1 -2,1z"/>
   <path class="fil7" d="M4837 5495c1,0 1,-12 13,-32 12,-20 37,-41 65,-62 15,-9 30,-20 47,-31 16,-10 34,-20 50,-34 18,-12 31,-30 41,-50 4,-12 9,-20 10,-32l5 -36c2,-24 -1,-45 0,-67 -1,-23 -1,-44 -5,-66 -4,-43 -6,-85 -3,-122 0,-18 3,-35 6,-49 2,-15 6,-28 10,-38 6,-20 11,-31 11,-31 1,-1 2,-2 3,-1 1,0 2,1 2,2l0 0c0,0 1,12 3,33 1,10 0,22 2,36 3,15 3,30 6,47 4,35 10,75 11,120 0,23 -2,47 -3,71 -3,24 -9,50 -17,72 -9,21 -17,45 -28,67 -11,21 -21,42 -34,62 -14,19 -29,37 -45,50 -17,14 -34,23 -50,32 -15,8 -29,16 -41,22 -12,7 -22,13 -31,19 -15,10 -23,21 -24,20 0,1 -2,2 -3,1 -1,-1 -2,-2 -1,-3z"/>
   <path class="fil7" d="M7524 4936c-5,65 -16,130 -35,193 -9,32 -21,63 -36,94 -8,15 -17,30 -28,44 -6,7 -12,14 -19,20 -7,7 -17,12 -25,17l1 -1c-10,5 -20,9 -30,13 -12,2 -23,5 -35,4 -25,1 -46,-14 -61,-29 -14,-17 -24,-35 -32,-53 -8,-18 -16,-37 -22,-55 -15,-36 -28,-73 -45,-107 -9,-18 -18,-34 -29,-49 -10,-15 -24,-28 -37,-43l-19 -22c-7,-6 -15,-11 -22,-16 -14,-10 -26,-23 -44,-29 -16,-8 -31,-18 -49,-22 -18,-5 -35,-11 -54,-14 -36,-9 -75,-14 -113,-23 -20,-5 -39,-8 -58,-14l-58 -19 0 0 -1 0 -109 -53c-18,-7 -36,-13 -55,-21 -19,-4 -38,-8 -58,-13l-1 0c-1,-1 -2,-2 -1,-3 0,-1 1,-2 2,-2 20,-1 41,0 62,0 20,4 40,8 61,13l59 18 56 22 -1 -1c37,9 73,17 111,24 38,6 77,12 116,22 19,4 39,12 58,19 20,5 38,17 56,27 19,9 35,25 50,39 8,7 17,14 23,22l17 23c11,16 24,32 33,51 10,18 18,36 25,55 13,37 25,74 38,111 8,18 15,36 25,52 8,17 21,31 33,43 14,10 28,17 44,14 7,0 15,-4 22,-6 8,-4 15,-9 22,-13l1 0 1 0c4,-5 10,-7 14,-12 5,-5 10,-10 14,-16 9,-11 16,-24 24,-37 14,-27 27,-56 39,-86 23,-59 43,-121 65,-182 1,-1 2,-2 4,-2 1,1 1,2 1,3z"/>
   <path class="fil0" d="M6361 4715c-50,-10 -90,-30 -130,-50l130 50z"/>
   <path class="fil7" d="M6360 4718c0,0 -3,3 -8,5 -5,3 -11,5 -18,6 -3,-1 -7,-1 -10,-3 -4,-2 -6,-7 -9,-11 -3,-5 -7,-8 -11,-9 -4,-2 -9,0 -14,1 -10,5 -19,2 -28,1 -9,-2 -15,-8 -20,-14 -10,-12 -13,-27 -13,-27l3 -4c0,0 13,-8 27,-8 7,-1 14,0 20,5 3,3 7,6 10,9 3,3 6,8 9,13 3,4 6,8 11,9 4,2 8,1 13,-1 5,-2 10,-5 14,-5 4,0 7,2 10,4 5,4 10,10 12,15 2,4 3,9 3,9l-1 5z"/>
   <path class="fil7" d="M6643 3055c-3,11 -7,22 -12,33 -3,12 -11,22 -17,33 -6,11 -15,20 -23,30 -9,9 -19,17 -30,24 -10,8 -21,13 -33,18 -11,6 -23,10 -35,13 -24,7 -48,12 -72,15 -23,4 -46,6 -69,9 -22,2 -44,6 -65,13 -10,5 -20,9 -30,14 -8,7 -18,13 -25,22 -7,8 -15,17 -20,27l-14 30 0 0 -4 27 0 27 6 56c1,10 1,20 2,30 1,9 0,20 -1,30 0,11 -5,22 -7,33 -2,5 -6,10 -9,15l-10 15 2 -2c-5,5 -11,11 -16,16 -5,6 -13,8 -19,11 -7,4 -14,6 -21,7 -7,2 -14,3 -20,3 -13,1 -24,1 -36,2l-15 1c-5,0 -8,2 -12,2 -5,1 -6,4 -9,5l-2 0 -1 1 0 0 0 0 0 0c-1,0 4,-4 2,-2l0 0 -2 2 -6 6c-3,4 0,3 -2,6 -2,4 -3,8 -5,13 -3,10 -5,21 -10,35 -2,6 -6,13 -10,20 -3,7 -12,14 -19,20l2 -2c-37,31 -76,60 -114,90 -40,28 -79,57 -120,83 -1,1 -3,1 -4,-1 0,0 0,-2 1,-2 32,-38 66,-72 100,-107 35,-34 70,-68 105,-101l3 -1c0,-3 2,-2 4,-6 1,-3 3,-6 4,-11 3,-8 5,-19 8,-31 2,-6 5,-13 7,-19 3,-7 10,-19 14,-24l7 -6 1 -1 1 -1 2 -2 0 0 0 0 2 -1 5 -3c8,-3 16,-8 23,-8 7,-2 15,-4 21,-4l19 0c12,1 23,1 33,1 6,0 10,-1 14,-1 5,-1 9,-2 12,-3 4,-2 8,-2 11,-6 3,-2 6,-4 9,-7l1 -1 1 -1 6 -8c2,-3 5,-5 7,-8 2,-8 6,-14 8,-23 1,-8 4,-16 4,-25 1,-9 2,-18 2,-28l2 -57 2 -29 6 -29 0 -1 16 -33c5,-11 14,-20 20,-31 7,-10 17,-17 26,-27 9,-8 20,-14 30,-22 23,-11 46,-20 70,-26 23,-7 47,-10 70,-14 23,-3 46,-6 67,-11 22,-5 43,-12 62,-22 9,-4 19,-10 27,-17 9,-6 18,-13 25,-21 7,-8 16,-15 22,-25 7,-10 14,-20 21,-30 1,-1 2,-1 3,0 1,1 1,2 1,3z"/>
   <path class="fil7" d="M5212 2913c4,7 5,16 9,21 4,6 8,12 13,18 8,12 17,23 27,34 19,22 41,42 62,61l1 0c8,7 10,19 4,28 -15,22 -34,42 -50,63 -8,10 -16,21 -23,32 -7,12 -12,23 -17,35 -5,13 -7,26 -9,38 0,13 0,25 1,38l8 37c3,13 6,25 9,38 7,25 15,50 21,77 7,25 11,52 17,78 2,13 6,25 7,39 1,14 3,28 3,42 2,14 -3,28 -4,42 -3,14 -5,27 -9,40 0,2 -2,2 -3,2 -1,0 -1,-1 -2,-2l0 0c-3,-14 -5,-27 -7,-40 -3,-13 -2,-26 -7,-38 -5,-12 -8,-24 -11,-37 -4,-12 -9,-25 -13,-37 -18,-52 -26,-104 -35,-158 -2,-13 -4,-27 -5,-41 0,-14 1,-28 1,-42 3,-14 5,-29 9,-42 6,-13 9,-27 15,-39 6,-12 11,-25 16,-37 6,-13 12,-25 16,-38 11,-25 22,-50 36,-73l4 28c-26,-20 -47,-45 -64,-73 -8,-14 -15,-28 -20,-44 -3,-8 -4,-17 -6,-25 -2,-9 0,-16 1,-24 0,-2 1,-3 3,-3 1,1 1,1 2,2l0 0z"/>
   <path class="fil0" d="M783 361c-23,55 -42,112 -69,165 -116,235 -233,470 -351,704 12,8 23,16 34,24 83,-97 166,-195 250,-291 83,-94 164,-191 254,-277 121,-118 249,-230 378,-339 24,-20 69,-14 104,-21 -14,44 -21,90 -42,130 -14,26 -47,42 -59,83 95,-44 189,-92 286,-131 171,-69 342,-136 516,-193 41,-13 111,0 138,30 265,283 519,577 785,859 245,260 495,515 753,762 117,112 179,100 327,12 31,-18 67,-25 107,-40 15,19 33,42 52,64 39,-46 79,-92 124,-145 72,84 72,173 46,256 -125,416 -934,1131 -907,1093 118,-164 245,-321 377,-473 178,-205 285,-444 358,-701 -44,82 -89,164 -134,246 -172,313 -376,598 -672,804 -25,18 -51,35 -74,56 -128,117 -204,117 -316,-1 -204,-213 -412,-422 -612,-639 -260,-282 -508,-575 -774,-852 -88,-91 -208,-158 -324,-214 -109,-52 -227,5 -325,57 -186,96 -363,211 -542,321 -137,85 -275,170 -356,321 -5,9 -56,11 -66,0 -41,-52 -71,-107 -28,-181 101,-170 197,-342 297,-515 -80,-21 -62,-94 -43,-149 55,-161 111,-323 187,-475 61,-119 151,-224 230,-333 13,-18 36,-30 53,-44 13,9 25,18 38,27zm131 709l0 0c5,8 9,16 14,24 19,-3 38,-7 56,-10 124,-20 248,-51 372,-58 172,-10 300,97 406,207 396,412 782,834 1170,1254 115,124 223,255 336,385 228,-231 519,-382 653,-697 -120,37 -230,62 -341,-13 -267,-181 -451,-446 -670,-676 -276,-289 -539,-592 -799,-895 -89,-104 -182,-125 -301,-66 -187,92 -378,177 -557,283 -122,71 -227,173 -339,262z"/>
   <path class="fil0" d="M402 466c-67,249 -128,477 -190,711 -67,-27 -100,-92 -97,-166 10,-212 63,-407 287,-545z"/>
   <path class="fil8 str2" d="M914 1070c112,-89 217,-191 339,-262 179,-106 370,-191 557,-283 119,-59 212,-38 301,66 260,303 523,606 799,895 219,230 403,495 670,676 111,75 221,50 341,13 -134,315 -425,466 -653,697 -113,-130 -221,-261 -336,-385 -388,-420 -774,-842 -1170,-1254 -106,-110 -234,-217 -406,-207 -124,7 -248,38 -372,58 -18,3 -37,7 -56,10 -5,-8 -9,-16 -14,-24z"/>
   <path class="fil0" d="M8184 1549c-20,-259 -68,-510 -221,-730 -18,-26 -38,-52 -57,-78 7,-2 14,-5 21,-8 39,39 78,77 118,116 16,-7 33,-14 50,-21 -27,-54 -60,-107 -80,-164 -77,-218 -266,-380 -514,-512 -18,-9 -58,-4 -124,-7 146,150 273,279 399,409 -54,-11 -85,-32 -115,-55 -217,-157 -433,-314 -782,-372 -103,-17 -213,-27 -310,-50 -145,-35 -189,-25 -270,88 -120,167 -222,336 -353,500 -189,237 -392,472 -599,706 -155,175 -377,324 -594,476 -163,113 -251,142 -420,105 -12,12 -24,25 -36,38 10,55 18,111 28,165 10,51 23,98 39,143 55,97 113,198 174,298 97,161 226,448 521,490 94,13 483,-407 615,-506 144,-107 309,-208 436,-321 166,-149 311,-307 451,-463 103,-114 196,-233 271,-351 117,-182 214,-366 324,-556 574,-220 759,625 833,727 17,23 76,28 116,41 28,-36 81,-78 79,-108zm-1717 -21l0 0c-274,346 -601,675 -1047,967 -111,73 -212,152 -348,249 -146,-216 -283,-418 -418,-617 314,-128 555,-284 747,-461 220,-203 427,-411 612,-623 157,-180 273,-368 409,-552 37,-49 83,-97 140,-164 131,64 243,119 353,174 13,7 25,20 22,32 -105,332 -209,665 -470,995z"/>
   <path class="fil0" d="M8150 747c-67,-126 -136,-246 -196,-369 -59,-121 -193,-215 -213,-349 20,-10 41,-19 60,-29 78,61 171,115 229,185 86,105 151,221 220,335 51,83 11,169 -100,227z"/>
   <path class="fil9 str3" d="M5072 2841c-310,-160 -460,-483 -418,-714 314,-128 555,-284 747,-461 220,-203 427,-411 612,-623 157,-180 273,-368 409,-552 37,-49 83,-97 140,-164 131,64 373,160 484,216 13,7 -318,655 -579,985 -274,346 -1259,1216 -1395,1313z"/>
  </g>
 </g>
</svg>
