<?xml version="1.0" encoding="UTF-8"?>
<!DOCTYPE svg PUBLIC "-//W3C//DTD SVG 1.1//EN" "http://www.w3.org/Graphics/SVG/1.1/DTD/svg11.dtd">
<!-- Creator: CorelDRAW X8 -->
<svg xmlns="http://www.w3.org/2000/svg" xml:space="preserve" width="8.00992in" height="6.58571in" version="1.1" style="shape-rendering:geometricPrecision; text-rendering:geometricPrecision; image-rendering:optimizeQuality; fill-rule:evenodd; clip-rule:evenodd"
viewBox="0 0 8010 6586"
 xmlns:xlink="http://www.w3.org/1999/xlink">
 <defs>
  <style type="text/css">
   <![CDATA[
    .str2 {stroke:black;stroke-width:9.34248}
    .str1 {stroke:black;stroke-width:10.5472}
    .str0 {stroke:black;stroke-width:16.9015}
    .fil4 {fill:white}
    .fil0 {fill:black}
    .fil1 {fill:white}
    .fil6 {fill:url(#id0)}
    .fil7 {fill:url(#id1)}
    .fil2 {fill:url(#id2)}
    .fil5 {fill:url(#id3)}
    .fil3 {fill:url(#id4)}
   ]]>
  </style>
  <linearGradient id="id0" gradientUnits="userSpaceOnUse" x1="290.302" y1="1970.38" x2="2459.02" y2="1658.8">
   <stop offset="0" style="stop-opacity:1; stop-color:#2D2D2D"/>
   <stop offset="0.431373" style="stop-opacity:1; stop-color:#171717"/>
   <stop offset="1" style="stop-opacity:1; stop-color:black"/>
  </linearGradient>
  <linearGradient id="id1" gradientUnits="userSpaceOnUse" xlink:href="#id0" x1="7071.6" y1="538.34" x2="5134.5" y2="1035.15">
  </linearGradient>
  <linearGradient id="id2" gradientUnits="userSpaceOnUse" x1="4102.04" y1="4109.54" x2="4514.96" y2="8307.62">
   <stop offset="0" style="stop-opacity:1; stop-color:white"/>
   <stop offset="0.431373" style="stop-opacity:1; stop-color:#C4E9F1"/>
   <stop offset="1" style="stop-opacity:1; stop-color:#88D3E2"/>
  </linearGradient>
  <radialGradient id="id3" gradientUnits="userSpaceOnUse" gradientTransform="matrix(-0.930469 1.57463 -1.57464 -0.930462 17112 -2253)" cx="5894.46" cy="3640.93" r="118.063" fx="5894.46" fy="3640.93">
   <stop offset="0" style="stop-opacity:1; stop-color:white"/>
   <stop offset="0.439216" style="stop-opacity:1; stop-color:#7F7F7F"/>
   <stop offset="1" style="stop-opacity:1; stop-color:black"/>
  </radialGradient>
  <radialGradient id="id4" gradientUnits="userSpaceOnUse" gradientTransform="matrix(-0.930455 1.57462 -1.57464 -0.930471 13145 2156)" xlink:href="#id3" cx="3541.89" cy="4005.88" r="118.063" fx="3541.89" fy="4005.88">
  </radialGradient>
 </defs>
 <g id="Layer_x0020_1">
  <metadata id="CorelCorpID_0Corel-Layer"/>
  <g id="_970791877728">
   <path class="fil0" d="M1196 6453c-344,-199 -629,-469 -760,-844 -136,-393 -181,-807 -120,-1229 68,-473 251,-897 597,-1213 995,-910 2043,-657 2186,-632 333,58 598,250 851,456 86,70 151,167 224,250 149,-428 342,-825 671,-1145 249,-242 549,-361 890,-397 310,-34 599,33 895,125 310,96 535,284 760,501 382,368 565,823 607,1335 21,251 20,513 -28,758 -116,591 -446,1023 -1022,1249 -421,166 -859,205 -1298,151 -326,-40 -642,-149 -893,-385 -148,-139 -294,-279 -435,-413 -309,1080 -1823,1897 -3125,1433zm3183 -2601l0 0c-122,-86 -244,-164 -355,-255 -348,-282 -689,-575 -1159,-635 -136,-17 -276,-67 -407,-49 -212,30 -425,87 -625,164 -173,68 -334,171 -491,273 -194,127 -335,306 -462,499 -224,341 -368,706 -334,1121 16,187 41,377 149,540 228,344 567,529 959,575 414,49 827,-32 1227,-148 269,-79 530,-183 747,-366 306,-258 517,-578 625,-966 37,-132 93,-258 141,-387 12,2 25,5 37,7 -9,109 -21,218 -26,327 -3,58 -15,132 14,173 69,97 152,189 243,267 311,264 678,390 1082,415 320,20 634,-27 934,-130 284,-98 555,-236 749,-476 90,-111 151,-248 212,-380 151,-322 207,-658 116,-1010 -95,-370 -301,-661 -604,-895 -135,-104 -268,-203 -434,-246 -228,-59 -459,-150 -690,-153 -416,-7 -750,220 -1059,481 -234,197 -368,465 -527,718 -80,128 -93,230 -14,358 39,62 39,143 -48,178z"/>
   <path class="fil1" d="M4379 3852c87,-35 87,-116 48,-178 -79,-128 -66,-230 14,-358 159,-253 293,-521 527,-718 309,-261 643,-488 1059,-481 231,3 462,94 690,153 166,43 299,142 434,246 303,234 509,525 604,895 91,352 35,688 -116,1010 -61,132 -122,269 -212,380 -194,240 -465,378 -749,476 -300,103 -614,150 -934,130 -404,-25 -771,-151 -1082,-415 -91,-78 -174,-170 -243,-267 -29,-41 -17,-115 -14,-173 5,-109 17,-218 26,-327 -12,-2 -25,-5 -37,-7 -48,129 -104,255 -141,387 -108,388 -319,708 -625,966 -217,183 -478,287 -747,366 -400,116 -813,197 -1227,148 -392,-46 -731,-231 -959,-575 -108,-163 -133,-353 -149,-540 -34,-415 110,-780 334,-1121 127,-193 268,-372 462,-499 157,-102 318,-205 491,-273 200,-77 413,-134 625,-164 131,-18 271,32 407,49 470,60 811,353 1159,635 111,91 233,169 355,255z"/>
   <path class="fil2" d="M4397 3643c8,19 18,39 30,59 39,63 39,143 -48,179 -43,-31 -85,-60 -128,-90 -327,803 -1303,1350 -2130,1385 -476,21 -931,-119 -1244,-492 -89,-106 -166,-247 -215,-399 -91,223 -137,459 -116,713 16,187 41,377 149,540 228,344 567,530 960,576 413,49 826,-32 1226,-149 269,-78 530,-182 748,-366 305,-257 516,-577 625,-965 37,-132 93,-259 140,-388l37 7c-9,109 -20,218 -26,327 -2,59 -15,132 14,173 69,98 152,189 243,267 311,264 678,390 1082,416 320,20 635,-28 934,-131 284,-97 555,-236 749,-475 90,-111 151,-249 212,-380 146,-311 203,-635 125,-974 -475,789 -2364,1326 -3367,167z"/>
   <path class="fil0" d="M3289 5167c-492,-3 -891,-458 -831,-876 68,-480 319,-811 861,-754 486,51 864,394 828,856 -37,481 -437,766 -858,774zm-195 -1385l0 0c-85,54 -151,90 -210,135 -235,180 -322,504 -105,743 184,202 399,264 674,232 378,-43 584,-521 443,-807 -61,143 -146,233 -301,269 -153,36 -286,27 -415,-57 -165,-109 -199,-282 -86,-515zm707 119l0 0c-141,-41 -270,-85 -401,-116 -82,-18 -227,98 -237,174 -14,102 56,184 175,208 245,49 350,-6 463,-266z"/>
   <path class="fil3 str0" d="M3094 3782c-113,233 -79,406 86,515 129,84 262,93 415,57 155,-36 240,-126 301,-269 141,286 -65,764 -443,807 -275,32 -490,-30 -674,-232 -217,-239 -130,-563 105,-743 59,-45 125,-81 210,-135z"/>
   <path class="fil4" d="M3801 3901c-113,260 -218,315 -463,266 -119,-24 -189,-106 -175,-208 10,-76 153,-172 237,-174 205,-3 205,-3 401,116z"/>
   <path class="fil0" d="M5642 4802c-492,-3 -891,-458 -832,-876 69,-480 320,-810 862,-754 485,51 863,394 828,856 -37,481 -437,766 -858,774zm-196 -1385l0 0c-84,55 -150,90 -209,135 -235,181 -323,504 -106,743 185,203 400,264 675,232 378,-43 584,-521 443,-807 -61,143 -147,233 -301,269 -154,36 -287,27 -415,-57 -166,-109 -200,-282 -87,-515zm708 120l0 0c-141,-42 -270,-86 -402,-117 -81,-18 -226,98 -237,174 -14,102 56,184 176,208 244,49 350,-5 463,-265z"/>
   <path class="fil5 str0" d="M5446 3417c-113,233 -79,406 87,515 128,84 261,93 415,57 154,-36 240,-126 301,-269 141,286 -65,764 -443,807 -275,32 -490,-29 -675,-232 -217,-239 -129,-562 106,-743 59,-45 125,-80 209,-135z"/>
   <path class="fil4" d="M6154 3537c-113,260 -219,314 -463,265 -120,-24 -190,-106 -176,-208 11,-76 154,-172 237,-174 205,-3 205,-3 402,117z"/>
   <path class="fil0" d="M2178 851c-129,-54 -259,-106 -384,-163 -37,-18 -58,-51 -90,-80 174,-59 294,-20 403,37 147,77 290,158 450,246 -73,-99 -167,-169 -279,-229 -75,-41 -150,-83 -215,-131 -32,-23 -41,-62 -60,-94 10,-7 20,-13 30,-19 38,2 86,-4 113,9 261,126 535,244 685,448 92,124 158,259 229,391 12,24 -11,60 -21,106 -79,-15 -143,-27 -207,-39 1,7 3,14 4,21 -55,10 -112,31 -165,30 -215,-4 -400,62 -573,152 -317,163 -582,365 -810,588 -224,218 -439,439 -652,661 -87,90 -159,188 -235,283 -52,65 -265,125 -352,93 -26,-10 -52,-40 -49,-60 22,-141 44,-282 79,-423 124,-489 343,-967 628,-1432 92,-149 226,-290 354,-428 34,-36 117,-65 181,-74 341,-46 644,3 911,133 8,-9 16,-17 25,-26zm-1659 1665l0 0c164,-164 306,-315 461,-460 373,-349 779,-671 1394,-820 -181,-116 -347,-240 -582,-310 -180,-54 -273,-48 -414,60 -211,161 -287,364 -400,552 -119,200 -208,408 -304,612 -55,116 -99,233 -155,366z"/>
   <path class="fil6 str1" d="M375 2729c56,-133 247,-1082 860,-1718 142,-107 377,-139 557,-85 235,70 401,194 582,310 -702,98 -1834,1328 -1999,1493z"/>
   <path class="fil0" d="M5040 409c170,-188 401,-322 699,-390 56,-13 136,-16 177,3 159,73 322,145 455,237 413,288 775,607 1064,964 83,103 155,211 226,318 11,16 1,48 -17,64 -59,53 -258,70 -325,34 -99,-54 -195,-110 -301,-157 -260,-113 -522,-225 -789,-332 -273,-110 -568,-191 -892,-225 -176,-19 -354,-16 -529,54 -43,18 -98,19 -148,28 -1,-6 -3,-13 -4,-19 -49,30 -97,60 -155,96 -26,-34 -60,-56 -58,-79 7,-129 11,-259 38,-387 46,-212 227,-393 393,-575 17,-19 59,-29 89,-43 11,2 22,4 32,6 -3,32 5,66 -13,95 -35,59 -80,116 -127,173 -69,83 -120,169 -142,271 98,-120 185,-230 276,-338 68,-80 152,-149 318,-155 -15,33 -20,67 -44,93 -80,85 -168,167 -253,250 10,5 20,9 30,14zm1704 572l0 0c-158,-136 -310,-276 -484,-401 -165,-118 -305,-258 -540,-323 -158,-44 -237,-20 -364,79 -166,130 -256,282 -361,432 564,-71 1021,65 1461,231 182,70 357,148 555,230 -96,-91 -178,-172 -267,-248z"/>
   <path class="fil7 str2" d="M7211 1357c-97,-91 -617,-800 -1364,-1124 -158,-43 -364,4 -491,103 -166,130 -256,282 -361,432 615,-139 2018,506 2216,589z"/>
  </g>
 </g>
</svg>
