<?xml version="1.0" encoding="UTF-8"?>
<!DOCTYPE svg PUBLIC "-//W3C//DTD SVG 1.1//EN" "http://www.w3.org/Graphics/SVG/1.1/DTD/svg11.dtd">
<!-- Creator: CorelDRAW X8 -->
<svg xmlns="http://www.w3.org/2000/svg" xml:space="preserve" width="8.18453in" height="4.29381in" version="1.1" style="shape-rendering:geometricPrecision; text-rendering:geometricPrecision; image-rendering:optimizeQuality; fill-rule:evenodd; clip-rule:evenodd"
viewBox="0 0 8185 4294"
 xmlns:xlink="http://www.w3.org/1999/xlink">
 <defs>
  <style type="text/css">
   <![CDATA[
    .fil0 {fill:#173E4C;fill-rule:nonzero}
   ]]>
  </style>
 </defs>
 <g id="Layer_x0020_1">
  <metadata id="CorelCorpID_0Corel-Layer"/>
  <path class="fil0" d="M6028 3604c-590,237 -1210,361 -1847,372 -6,-1 -11,-1 -17,-1 -4,1 -7,1 -11,1 -35,1 -70,1 -106,0 0,0 -1,0 -1,0 -4,0 -8,1 -12,1 -349,-12 -676,-150 -931,-396 -277,-267 -435,-625 -445,-1007 -10,-383 130,-747 394,-1024 265,-278 622,-436 1005,-445 384,-10 748,131 1026,395 285,272 444,639 445,1034 1,87 72,157 158,157 1,0 1,0 1,0 87,0 158,-72 157,-159 -2,-481 -195,-929 -543,-1260 -27,-25 -53,-49 -80,-72 282,62 558,149 828,258 613,249 1166,608 1645,1069 -485,466 -1045,829 -1666,1077zm2123 -2010l-2 -2c-42,-38 -108,-35 -147,7l-390 430c-149,-123 -303,-238 -463,-345l333 -493c32,-48 20,-112 -28,-144l-1 -2c-48,-32 -112,-19 -145,28l-335 498c-163,-100 -331,-191 -505,-274l266 -553c25,-52 4,-114 -48,-139l-2 -1c-52,-24 -114,-3 -139,49l-268 558c-36,-16 -73,-31 -109,-46 -141,-57 -283,-108 -427,-153l189 -602c17,-54 -13,-113 -68,-130l-2 -1c-55,-17 -113,14 -130,69l-190 605c-183,-50 -369,-90 -556,-120l102 -637c9,-56 -30,-110 -86,-119l-2 0c-57,-9 -110,29 -119,86l-103 640c-187,-23 -376,-37 -566,-41l10 -656c1,-58 -45,-105 -102,-106l-2 0c-58,-1 -105,45 -106,102l-10 660c-189,3 -378,16 -564,38l-86 -660c-7,-57 -59,-97 -116,-90l-2 0c-57,8 -97,60 -90,117l86 661c-186,30 -371,69 -553,117l-180 -647c-16,-55 -73,-87 -128,-72l-2 1c-56,15 -88,72 -73,128l181 648c-154,47 -306,101 -457,162 -24,10 -48,20 -73,30l-273 -617c-23,-52 -85,-76 -137,-53l-2 1c-53,24 -76,85 -53,137l274 618c-171,79 -337,168 -498,265l-360 -571c-30,-48 -95,-63 -143,-32l-2 1c-49,30 -63,95 -32,143l359 570c-157,103 -309,214 -455,333l-437 -510c-37,-44 -102,-49 -146,-12l-2 2c-43,37 -48,102 -11,146l435 509c-92,81 -181,165 -268,252l-39 38c-62,62 -62,162 0,224 62,61 162,61 224,0l38 -39c496,-496 1075,-880 1720,-1142 270,-109 547,-196 829,-258 -49,41 -96,85 -141,132 -322,339 -493,783 -481,1250 12,466 204,902 541,1227 327,315 749,485 1199,485 24,0 49,-1 73,-2 686,-7 1355,-140 1990,-394 694,-278 1315,-689 1848,-1221l38 -38c62,-62 62,-162 0,-224l-38 -38c-73,-73 -147,-143 -223,-211l387 -425c39,-43 36,-109 -6,-147z"/>
 </g>
</svg>
