<?xml version="1.0" encoding="UTF-8"?>
<!DOCTYPE svg PUBLIC "-//W3C//DTD SVG 1.1//EN" "http://www.w3.org/Graphics/SVG/1.1/DTD/svg11.dtd">
<!-- Creator: CorelDRAW X7 -->
<svg xmlns="http://www.w3.org/2000/svg" xml:space="preserve" width="1.35613in" height="4.47361in" version="1.1" style="shape-rendering:geometricPrecision; text-rendering:geometricPrecision; image-rendering:optimizeQuality; fill-rule:evenodd; clip-rule:evenodd"
viewBox="0 0 151 500"
 xmlns:xlink="http://www.w3.org/1999/xlink">
 <defs>
  <style type="text/css">
   <![CDATA[
    .fil6 {fill:#F8AB95;fill-rule:nonzero}
    .fil4 {fill:#F6EDDC;fill-rule:nonzero}
    .fil5 {fill:#E4D0A6;fill-rule:nonzero}
    .fil0 {fill:#C3C2BC;fill-rule:nonzero}
    .fil2 {fill:#B29957;fill-rule:nonzero}
    .fil1 {fill:#A5C1B1;fill-rule:nonzero}
    .fil3 {fill:#433E40;fill-rule:nonzero}
    .fil7 {fill:#2F2E2E;fill-rule:nonzero}
   ]]>
  </style>
 </defs>
 <g id="__x0023_Layer_x0020_1">
  <metadata id="CorelCorpID_0Corel-Layer"/>
  <path class="fil0" d="M149 256l-21 5c0,0 19,-9 22,-15 2,-5 1,-13 1,-13 0,0 -13,5 -24,4 0,0 19,-7 23,-10l1 -22c0,0 -55,19 -72,26 -8,78 -16,159 -20,212 14,-13 57,-54 78,-123 0,0 -16,17 -34,24 0,0 29,-25 32,-31 2,-6 12,-35 14,-57z"/>
  <path class="fil0" d="M149 159c0,0 -10,9 -25,9 0,0 17,-9 22,-13 0,0 -1,-55 -12,-80 0,0 -12,2 -16,4l12 -11c0,0 -4,-6 -5,-15 -1,-9 -14,-47 -20,-53 0,0 -28,31 -40,53l31 22 0 0c-5,40 -11,94 -17,150 13,-5 62,-22 71,-25 0,0 4,-26 -1,-41z"/>
  <path class="fil1" d="M96 76c-6,-5 -31,-21 -31,-21 -10,8 -17,29 -17,29 4,2 18,12 18,12 -5,-2 -22,-4 -22,-4 -17,23 -37,93 -35,97 3,3 32,12 32,12 -10,1 -33,-6 -33,-6 0,0 -2,8 -2,19 0,12 -3,21 -3,26 0,5 17,15 17,15 -5,0 -19,-5 -19,-5 0,0 -1,26 1,29 1,2 28,18 28,18 -10,-2 -30,-13 -30,-13 -1,12 6,47 8,63 2,16 6,29 9,33 2,5 22,18 22,18 -11,-2 -21,-8 -21,-8 6,20 41,53 41,53 8,-91 24,-271 37,-367z"/>
  <path class="fil2" d="M148 262l-74 20c-1,11 -2,21 -3,31l72 -25c2,-9 4,-18 5,-26z"/>
  <path class="fil3" d="M143 116l-55 21c0,3 0,6 0,8l56 -20c0,-3 0,-6 -1,-9z"/>
  <path class="fil4" d="M142 106l-52 19c-1,4 -1,8 -2,12l55 -21c0,-3 0,-7 -1,-10z"/>
  <path class="fil5" d="M87 153l-57 -33c-4,8 -7,16 -10,25l64 38c1,-11 2,-21 3,-30z"/>
  <path class="fil3" d="M67 349l-62 -25c1,6 2,12 2,17l59 22c0,-5 1,-9 1,-14z"/>
  <path class="fil6" d="M68 337l-66 -31c1,6 2,12 3,18l62 25c1,-4 1,-8 1,-12z"/>
  <polygon class="fil3" points="131,292 120,269 120,269 113,298 "/>
  <polygon class="fil3" points="113,298 102,274 102,274 94,305 "/>
  <polygon class="fil3" points="94,305 83,279 83,279 72,313 "/>
  <path class="fil3" d="M143 288c0,-1 0,-1 0,-1l-8 -22 0 0 -4 27 12 -4z"/>
  <polygon class="fil3" points="83,150 68,174 84,183 83,150 "/>
  <polygon class="fil3" points="55,134 37,154 51,163 55,134 "/>
  <polygon class="fil3" points="70,143 51,163 68,173 70,143 "/>
  <polygon class="fil3" points="40,126 20,145 37,154 41,126 "/>
  <path class="fil7" d="M51 499c0,0 11,-117 23,-233 1,-15 3,-29 4,-44 2,-14 3,-28 5,-42 2,-13 3,-27 4,-39 2,-13 3,-24 5,-35 1,-11 2,-21 4,-30 1,-9 2,-17 3,-23 2,-13 3,-20 3,-20 0,0 -1,7 -3,20 -1,6 -2,14 -3,23 -1,9 -2,19 -3,30 -2,11 -3,22 -4,35 -2,13 -3,26 -4,39 -2,14 -3,28 -5,43 -1,14 -2,28 -4,43 -10,117 -20,234 -20,234l-5 -1z"/>
  <path class="fil3" d="M126 55c0,-1 0,-1 -1,-2 -1,-9 -14,-47 -20,-53 0,0 -28,31 -40,53l31 22c0,0 23,-13 30,-20z"/>
 </g>
</svg>
