<?xml version="1.0" encoding="UTF-8"?>
<!DOCTYPE svg PUBLIC "-//W3C//DTD SVG 1.1//EN" "http://www.w3.org/Graphics/SVG/1.1/DTD/svg11.dtd">
<!-- Creator: CorelDRAW X7 -->
<svg xmlns="http://www.w3.org/2000/svg" xml:space="preserve" width="1.43514in" height="4.29526in" version="1.1" style="shape-rendering:geometricPrecision; text-rendering:geometricPrecision; image-rendering:optimizeQuality; fill-rule:evenodd; clip-rule:evenodd"
viewBox="0 0 138 413"
 xmlns:xlink="http://www.w3.org/1999/xlink">
 <defs>
  <style type="text/css">
   <![CDATA[
    .fil0 {fill:#F8AB95;fill-rule:nonzero}
    .fil3 {fill:#F6EDDC;fill-rule:nonzero}
    .fil2 {fill:#E4D0A6;fill-rule:nonzero}
    .fil1 {fill:#B29957;fill-rule:nonzero}
    .fil4 {fill:#6B5A38;fill-rule:nonzero}
   ]]>
  </style>
 </defs>
 <g id="__x0023_Layer_x0020_1">
  <metadata id="CorelCorpID_0Corel-Layer"/>
  <path class="fil0" d="M122 18c0,0 10,24 3,57 0,0 -13,-12 -33,-13 0,0 19,-36 30,-44z"/>
  <path class="fil0" d="M92 62c0,0 27,10 32,26 0,0 -2,25 -7,48 -5,22 -4,33 -7,43 0,0 -3,-13 -29,-18 0,0 26,14 28,24 1,10 -1,25 -1,25 0,0 -6,-18 -54,-28 0,0 17,-89 38,-120z"/>
  <path class="fil0" d="M54 184c0,0 38,17 50,35 0,0 4,22 -5,58 0,0 -13,-4 -21,-2 0,0 14,8 16,14 2,5 -15,45 -25,62 0,0 -8,-10 -34,-13 0,0 6,-41 7,-51 1,-10 12,-103 12,-103z"/>
  <path class="fil0" d="M41 290c0,0 -17,-3 -35,4 0,0 0,9 2,23 2,13 2,31 0,38l7 -3c0,0 -6,10 -6,14 0,4 3,46 4,47 1,0 33,-21 53,-57 0,0 -11,-12 -31,-18l6 -48z"/>
  <path class="fil1" d="M121 17c0,0 -22,-3 -57,25 0,0 13,-5 24,-2 0,0 -22,3 -28,8 -5,5 -22,26 -25,37 0,0 15,-7 44,2 0,0 22,-51 42,-70z"/>
  <path class="fil1" d="M78 89c0,0 -26,-7 -47,2 0,0 -11,19 -16,45 0,0 6,0 10,1 0,0 -9,2 -11,4 -2,2 -6,18 -7,34 -1,15 -4,39 -7,47 0,0 22,-8 48,4l14 -82c0,0 9,-43 16,-55z"/>
  <path class="fil1" d="M48 226c0,0 -19,-5 -33,-2 -15,4 -14,4 -15,13 0,9 1,31 3,36 0,0 8,-1 14,2 0,0 -12,2 -14,5 -2,2 1,8 1,8 0,0 20,-7 37,0l7 -62z"/>
  <path class="fil2" d="M0 222c0,0 22,-8 48,4l2 -13c-11,-2 -31,-5 -48,1 -1,4 -1,6 -2,8z"/>
  <path class="fil2" d="M7 175c0,2 -1,5 -1,9 7,-3 26,-7 49,-4l2 -9c-27,-6 -43,-2 -50,1 0,1 0,2 0,3z"/>
  <path class="fil3" d="M2 214c17,-6 37,-3 48,-1l1 -9c-10,-1 -33,-2 -48,2 0,3 0,6 -1,8z"/>
  <path class="fil3" d="M5 193c7,-1 24,-4 49,-2l1 -11c-23,-3 -42,1 -49,4 0,3 -1,6 -1,9z"/>
  <path class="fil2" d="M3 206c15,-4 38,-3 48,-2l3 -13c-25,-2 -42,1 -49,2 0,5 -1,9 -2,13z"/>
  <path class="fil3" d="M82 326c1,-3 2,-5 3,-8 -17,-13 -35,-18 -45,-20 0,4 0,8 -1,12 0,0 0,0 0,0 20,1 38,12 43,16z"/>
  <path class="fil3" d="M74 343c1,-3 3,-6 4,-9 -20,-12 -33,-15 -40,-15 -1,4 -1,8 -2,11 8,1 25,4 38,13z"/>
  <path class="fil2" d="M69 351c2,-3 3,-5 5,-8 -13,-9 -30,-12 -38,-13 0,5 -1,8 -1,8 1,0 3,0 4,1 23,3 30,12 30,12z"/>
  <path class="fil2" d="M78 334c1,-3 3,-5 4,-8 -5,-4 -23,-15 -43,-16 0,0 0,0 0,0 0,3 -1,6 -1,9 7,0 20,3 40,15z"/>
  <path class="fil2" d="M69 115c1,-5 3,-10 4,-14 -6,0 -31,-1 -49,5 -2,6 -5,13 -7,21 6,-2 27,-10 50,-8l2 -4z"/>
  <path class="fil3" d="M117 136c0,-1 0,-1 0,-2 -5,-6 -20,-22 -42,-33 -2,6 -4,12 -6,18 5,3 32,17 44,37 1,-5 2,-12 4,-20z"/>
  <path class="fil4" d="M138 4c0,0 0,0 -1,1 0,0 -1,1 -2,2 -1,1 -2,2 -4,4 0,0 -1,1 -2,2 -1,1 -2,2 -2,3 -4,4 -8,9 -12,15 -2,3 -5,6 -7,9 -1,2 -2,4 -4,6 -1,1 -2,3 -3,5 -2,4 -5,8 -7,12 -1,2 -3,5 -4,7 -1,2 -2,4 -3,7 -1,2 -2,4 -4,7 -1,2 -2,5 -3,7 -2,5 -4,10 -6,16 0,1 -1,2 -1,4 -1,1 -1,2 -1,4 -1,2 -2,5 -3,8 0,1 -1,3 -1,4 -1,2 -1,3 -1,4 -1,3 -2,6 -2,9 -1,3 -2,6 -2,9 -1,3 -2,6 -2,9 -1,6 -2,12 -3,17 -1,6 -2,12 -3,18 -1,6 -2,12 -3,18 -2,12 -3,24 -4,35 -2,11 -3,22 -4,33 -1,10 -3,20 -4,29 0,4 -1,9 -1,13 -1,4 -2,8 -2,11 -1,8 -2,14 -4,19 0,3 -1,5 -1,7 -1,2 -1,4 -1,5 -1,3 -1,5 -1,5l-2 -1c0,0 1,-1 1,-4 1,-1 1,-3 1,-5 1,-2 1,-4 2,-7 1,-5 2,-12 3,-19 1,-4 1,-7 2,-12 0,-4 1,-8 1,-13 1,-9 2,-18 3,-29 2,-10 3,-21 4,-32 1,-12 2,-23 4,-35 1,-6 2,-12 2,-18 1,-6 2,-12 3,-18 1,-6 2,-12 3,-18 1,-3 1,-6 2,-9 1,-3 1,-6 2,-9 0,-3 1,-6 2,-9 0,-1 1,-2 1,-4 0,-1 1,-3 1,-4 1,-3 2,-6 3,-9 0,-1 0,-2 1,-4 0,-1 1,-2 1,-4 2,-5 4,-11 6,-16 1,-2 2,-5 3,-7 1,-3 3,-5 4,-7 1,-3 2,-5 3,-7 1,-3 3,-5 4,-7 2,-4 4,-8 7,-12 1,-2 2,-4 3,-6 1,-2 3,-4 4,-6 2,-3 4,-6 7,-9 4,-6 8,-11 12,-16 0,-1 1,-2 2,-2 1,-1 2,-2 2,-3 2,-2 3,-3 4,-4 1,-1 2,-2 2,-2 1,-1 1,-1 1,-1l4 4z"/>
  <path class="fil1" d="M9 374c1,14 3,38 4,39 0,0 17,-11 34,-30l-18 -18 -20 9z"/>
 </g>
</svg>
