<?xml version="1.0" encoding="UTF-8"?>
<!DOCTYPE svg PUBLIC "-//W3C//DTD SVG 1.1//EN" "http://www.w3.org/Graphics/SVG/1.1/DTD/svg11.dtd">
<!-- Creator: CorelDRAW X7 -->
<svg xmlns="http://www.w3.org/2000/svg" xml:space="preserve" width="1.34111in" height="4.74535in" version="1.1" style="shape-rendering:geometricPrecision; text-rendering:geometricPrecision; image-rendering:optimizeQuality; fill-rule:evenodd; clip-rule:evenodd"
viewBox="0 0 100 353"
 xmlns:xlink="http://www.w3.org/1999/xlink">
 <defs>
  <style type="text/css">
   <![CDATA[
    .fil4 {fill:#F6EDDC;fill-rule:nonzero}
    .fil3 {fill:#E4D0A6;fill-rule:nonzero}
    .fil2 {fill:#B29957;fill-rule:nonzero}
    .fil0 {fill:#A5C1B1;fill-rule:nonzero}
    .fil5 {fill:#6B5A38;fill-rule:nonzero}
    .fil1 {fill:#433E40;fill-rule:nonzero}
   ]]>
  </style>
 </defs>
 <g id="__x0023_Layer_x0020_1">
  <metadata id="CorelCorpID_0Corel-Layer"/>
  <path class="fil0" d="M62 85c0,0 7,-16 26,-21 -3,-9 -7,-18 -12,-27 -12,5 -14,15 -14,15 -5,-7 -17,-12 -22,-14 -2,8 -4,17 -7,27 7,3 20,9 29,20z"/>
  <path class="fil1" d="M58 120c0,0 13,-20 38,-26 -2,-10 -4,-20 -8,-30 -19,5 -26,21 -26,21 -9,-11 -22,-17 -29,-20 -2,10 -6,22 -10,34 8,2 23,8 35,21z"/>
  <path class="fil1" d="M62 52c0,0 2,-10 14,-15 -4,-6 -8,-13 -13,-19l-6 5 -14 -4c0,5 -1,11 -3,19 5,2 17,7 22,14z"/>
  <path class="fil0" d="M52 160c0,0 19,-26 47,-29 -1,-12 -1,-24 -3,-37 -25,6 -38,26 -38,26 -12,-13 -27,-19 -35,-21 0,1 0,2 -1,3 -3,10 -7,21 -10,31 8,3 30,14 40,27z"/>
  <path class="fil0" d="M63 18c-5,-6 -11,-12 -18,-18 0,0 0,6 -2,19l14 4 6 -5z"/>
  <path class="fil0" d="M46 196c-14,-15 -33,-24 -43,-28 -2,13 -3,25 -3,38 11,5 30,14 41,25 0,0 29,-25 55,-27 3,-12 4,-23 4,-36 -28,3 -54,28 -54,28z"/>
  <path class="fil1" d="M46 196c0,0 26,-25 54,-28 0,-10 -1,-22 -1,-34 0,-1 0,-2 0,-3 -28,3 -47,29 -47,29 -10,-13 -32,-24 -40,-27 -3,12 -7,23 -9,35 10,4 29,13 43,28z"/>
  <path class="fil1" d="M0 206c1,10 2,21 5,32 9,3 23,9 34,22 0,0 23,-24 46,-26 5,-11 9,-21 11,-30 -26,2 -55,27 -55,27 -11,-11 -30,-20 -41,-25z"/>
  <path class="fil1" d="M39 283c-6,-7 -16,-11 -23,-13 7,16 17,34 31,53 0,0 4,-26 21,-59 -18,6 -29,19 -29,19z"/>
  <path class="fil0" d="M5 238c2,10 6,21 11,32 7,2 17,6 23,13 0,0 11,-13 29,-19 3,-5 6,-11 10,-17 2,-4 5,-9 7,-13 -23,2 -46,26 -46,26 -11,-13 -25,-19 -34,-22z"/>
  <path class="fil2" d="M39 281c0,0 -12,-12 -25,-15 1,2 2,5 3,7 5,2 14,6 22,12 0,0 15,-13 27,-17 1,-2 2,-4 3,-6 -5,1 -20,7 -30,19z"/>
  <path class="fil3" d="M39 262c0,0 21,-19 44,-25 2,-3 3,-5 4,-8 -7,1 -29,7 -48,29 0,0 -9,-15 -36,-25 1,3 2,5 3,8 6,2 20,7 33,21z"/>
  <path class="fil4" d="M41 235c0,0 20,-20 54,-27 1,-3 1,-6 2,-9 -6,1 -29,5 -56,30 0,0 -16,-19 -41,-29 0,3 0,7 0,10 9,4 32,14 41,25z"/>
  <path class="fil2" d="M100 172c0,-3 0,-6 0,-8 -8,1 -41,10 -54,31 0,0 -13,-20 -42,-32 0,3 -1,6 -2,10 8,2 29,10 44,25 0,0 13,-17 54,-26z"/>
  <path class="fil3" d="M52 163c0,0 18,-25 47,-28 0,0 0,-1 0,-1 0,-3 0,-5 0,-8 -7,1 -29,8 -47,31 0,0 -11,-16 -38,-29 -1,4 -2,7 -3,10 7,3 28,11 41,25z"/>
  <path class="fil4" d="M58 123c0,0 8,-14 38,-23 0,-4 -1,-7 -1,-11 -6,3 -26,13 -36,28 0,0 -12,-15 -34,-23 -1,2 -2,5 -3,8 0,0 0,1 0,1 7,2 26,6 36,20z"/>
  <path class="fil2" d="M62 90c0,0 3,-15 28,-22 -1,-3 -2,-6 -4,-9 -5,2 -17,10 -24,24 0,0 -14,-18 -28,-21 0,2 -1,4 -2,7 6,2 22,7 30,21z"/>
  <path class="fil3" d="M62 54c0,0 3,-7 16,-13 -1,-2 -2,-5 -4,-7 -4,3 -11,9 -13,16 0,0 -5,-10 -20,-16 -1,2 -1,5 -2,7 6,1 15,4 23,13z"/>
  <path class="fil5" d="M56 353c-3,-4 -4,-7 -6,-11 -1,-5 -3,-9 -4,-14 -3,-10 -6,-21 -7,-32 -1,-11 -2,-22 -2,-34 1,-5 1,-11 1,-16 1,-6 1,-12 2,-17 1,-12 3,-23 5,-35 2,-11 4,-23 6,-34 4,-22 7,-45 9,-67 1,-11 2,-22 1,-33 0,-5 0,-11 -1,-16 0,-3 -1,-5 -1,-8 -1,-2 -1,-4 -2,-6 0,-1 0,-2 0,-2 0,0 1,0 1,0 1,4 2,7 2,11 1,5 2,11 3,16 0,11 0,21 -1,32 -1,22 -4,44 -8,66 -3,23 -7,45 -10,68 -3,22 -4,44 -2,66 0,11 2,22 5,32 2,9 5,19 10,27 0,2 1,3 2,5 -1,1 -2,1 -3,2z"/>
  <path class="fil4" d="M65 20c-3,-2 -5,-5 -7,-8 -1,2 -3,3 -4,6 0,0 -5,-2 -10,-3 0,3 -1,6 -1,9 4,1 10,3 15,6 0,0 2,-5 7,-10z"/>
 </g>
</svg>
