<?xml version="1.0" encoding="UTF-8"?>
<!DOCTYPE svg PUBLIC "-//W3C//DTD SVG 1.1//EN" "http://www.w3.org/Graphics/SVG/1.1/DTD/svg11.dtd">
<!-- Creator: CorelDRAW X7 -->
<svg xmlns="http://www.w3.org/2000/svg" xml:space="preserve" width="1.56498in" height="4.81041in" version="1.1" style="shape-rendering:geometricPrecision; text-rendering:geometricPrecision; image-rendering:optimizeQuality; fill-rule:evenodd; clip-rule:evenodd"
viewBox="0 0 732 2250"
 xmlns:xlink="http://www.w3.org/1999/xlink">
 <defs>
  <style type="text/css">
   <![CDATA[
    .fil1 {fill:#F8AB95;fill-rule:nonzero}
    .fil3 {fill:#E4D0A6;fill-rule:nonzero}
    .fil0 {fill:#A36D5D;fill-rule:nonzero}
    .fil2 {fill:#B29957;fill-rule:nonzero}
    .fil4 {fill:#A5C1B1;fill-rule:nonzero}
    .fil5 {fill:#6B5A38;fill-rule:nonzero}
   ]]>
  </style>
 </defs>
 <g id="__x0023_Layer_x0020_1">
  <metadata id="CorelCorpID_0Corel-Layer"/>
  <path class="fil0" d="M732 2171c-3,5 -4,8 -4,8l4 -8z"/>
  <path class="fil1" d="M284 2112c0,0 22,-58 140,-145 118,-87 192,-211 201,-333 0,0 -26,134 -136,207 -109,74 -167,96 -187,169l-18 102z"/>
  <path class="fil2" d="M342 1685c0,0 6,-76 94,-134 88,-59 201,-61 217,-169 0,0 3,82 -26,149 -28,67 -206,295 -206,295l-109 117 30 -258z"/>
  <path class="fil1" d="M306 1977c0,0 10,-41 100,-107 91,-66 152,-132 198,-231 46,-100 58,-196 49,-257 0,0 4,153 -129,290 -133,138 -203,209 -217,263 -14,53 -1,42 -1,42z"/>
  <path class="fil1" d="M348 1629c0,0 10,-75 161,-145 152,-71 190,-234 187,-383 0,0 -10,36 -82,40 -72,3 -207,53 -231,116l-35 372z"/>
  <path class="fil2" d="M486 1344c-65,33 -100,62 -119,84l-19 201c0,0 10,-75 161,-145 133,-62 179,-194 186,-326 -26,61 -80,121 -209,186z"/>
  <path class="fil2" d="M381 1238c0,0 23,-56 121,-85 98,-28 144,-32 169,-73 25,-41 14,-138 7,-203 -6,-64 -17,-89 -38,-90 -21,-2 -213,129 -251,208l-8 243z"/>
  <path class="fil1" d="M487 1126c-58,21 -88,48 -104,72l-2 40c0,0 23,-56 121,-85 98,-28 144,-32 169,-73 11,-19 15,-50 15,-84 -28,61 -97,94 -199,130z"/>
  <path class="fil1" d="M389 990c0,0 2,-53 140,-146 138,-93 133,-123 137,-183 4,-59 -16,-95 -16,-95 0,0 -2,54 -72,90 -71,36 -194,112 -194,226l5 108z"/>
  <path class="fil2" d="M384 849c0,0 -14,-70 87,-138 100,-68 192,-128 187,-256 0,0 -2,63 -85,104 -84,41 -192,112 -194,218l5 72z"/>
  <path class="fil1" d="M378 729c0,0 -14,-49 98,-129 112,-79 139,-159 130,-279 -8,-121 -150,-255 -237,-298 -87,-44 -200,-25 -263,60 -64,86 -70,178 -51,199 18,21 41,28 105,41 65,14 142,57 198,172l20 234z"/>
  <path class="fil3" d="M359 503c0,0 -29,-92 -168,-141 -139,-50 -179,-51 -191,-77 0,0 1,38 55,71 53,32 125,39 188,69 64,30 105,86 117,136l-1 -58z"/>
  <path class="fil4" d="M370 613c0,0 4,-87 -114,-147 -118,-60 -222,-62 -237,-109 0,0 -19,45 -19,130 0,86 0,117 48,151 49,33 291,142 333,285l-1 -159 -10 -151z"/>
  <path class="fil3" d="M248 712c-135,-83 -219,-108 -248,-219 0,81 1,112 48,145 49,33 291,142 333,285l0 -91c-16,-28 -51,-70 -133,-120z"/>
  <path class="fil4" d="M386 958c0,0 8,-87 -140,-174 -148,-87 -222,-92 -235,-125 0,0 -9,48 3,129 11,81 15,101 79,132 65,31 260,108 290,186l3 -148z"/>
  <path class="fil3" d="M385 1116c0,0 -16,-47 -122,-97 -105,-50 -208,-102 -228,-119 0,0 -14,97 -13,161 2,65 9,82 62,116 54,33 258,139 280,237l21 -298z"/>
  <path class="fil4" d="M248 1162c-123,-66 -193,-117 -224,-161 -1,21 -2,42 -2,60 2,65 9,82 62,116 54,33 258,139 280,237l11 -149c-20,-29 -56,-66 -127,-103z"/>
  <path class="fil3" d="M363 1449c0,0 1,-70 -106,-123 -107,-54 -221,-76 -236,-128 0,0 -2,88 103,141 106,54 177,56 230,178l9 -68z"/>
  <path class="fil4" d="M353 1554c0,0 10,-74 -107,-140 -117,-66 -189,-38 -221,-97 0,0 -26,140 69,236 96,96 204,152 229,246l30 -245z"/>
  <path class="fil3" d="M111 1440c117,59 216,86 232,196l10 -82c0,0 10,-74 -107,-140 -117,-66 -189,-38 -221,-97 0,0 -4,23 -3,56 14,19 41,43 89,67z"/>
  <path class="fil3" d="M323 1828c0,0 -5,-86 -135,-175 -131,-90 -153,-80 -171,-141 0,0 -17,60 30,180 47,121 203,224 235,392 0,0 34,-184 41,-256z"/>
  <path class="fil4" d="M15 1559c1,30 9,74 32,133 47,121 203,224 235,392 0,0 10,-53 20,-113 -11,-37 -37,-99 -103,-172 -90,-99 -158,-170 -184,-240z"/>
  <path class="fil2" d="M428 318c45,-64 69,-134 66,-199 -42,-43 -88,-78 -125,-96 -87,-44 -200,-25 -263,60 -64,86 -70,178 -51,199 18,21 41,28 105,41 65,14 142,57 198,172 0,0 -5,-73 70,-177z"/>
  <path class="fil3" d="M383 30c-5,-3 -9,-5 -14,-7 -87,-44 -200,-25 -263,60 -10,13 -17,25 -24,38 20,20 83,71 239,124 0,0 89,-100 62,-215z"/>
  <path class="fil5" d="M249 2246c0,0 5,-32 14,-88 5,-28 10,-62 16,-101 6,-39 13,-83 20,-131 7,-48 14,-101 21,-156 4,-27 8,-56 11,-85 4,-29 7,-58 11,-89 3,-30 7,-60 10,-91 3,-32 6,-63 9,-95 6,-63 11,-128 14,-192 3,-33 3,-65 5,-97 1,-32 0,-64 0,-96 0,-64 -2,-127 -5,-187 -2,-61 -5,-120 -9,-175 -3,-56 -7,-108 -12,-157 -9,-96 -20,-177 -31,-232 -2,-14 -5,-26 -7,-37 -3,-11 -5,-20 -7,-27 -5,-15 -7,-22 -7,-22l7 -3c0,0 3,8 7,23 2,7 4,16 7,27 3,11 6,23 8,37 12,56 24,136 34,233 5,49 9,101 13,157 4,55 7,114 10,175 3,61 6,123 7,187 0,32 1,65 0,97 -1,32 -1,65 -3,97 -3,65 -8,130 -13,194 -3,32 -5,63 -8,94 -4,32 -7,62 -10,93 -3,30 -6,60 -10,89 -3,29 -6,57 -10,85 -7,55 -13,107 -20,156 -7,48 -13,92 -19,131 -5,39 -11,73 -15,102 -9,56 -14,88 -14,88l-24 -4z"/>
 </g>
</svg>
