<?xml version="1.0" encoding="UTF-8"?>
<!DOCTYPE svg PUBLIC "-//W3C//DTD SVG 1.1//EN" "http://www.w3.org/Graphics/SVG/1.1/DTD/svg11.dtd">
<!-- Creator: CorelDRAW X7 -->
<svg xmlns="http://www.w3.org/2000/svg" xml:space="preserve" width="1.33776in" height="4.79475in" version="1.1" style="shape-rendering:geometricPrecision; text-rendering:geometricPrecision; image-rendering:optimizeQuality; fill-rule:evenodd; clip-rule:evenodd"
viewBox="0 0 119 426"
 xmlns:xlink="http://www.w3.org/1999/xlink">
 <defs>
  <style type="text/css">
   <![CDATA[
    .fil1 {fill:#F8AB95;fill-rule:nonzero}
    .fil3 {fill:#F6EDDC;fill-rule:nonzero}
    .fil0 {fill:#EFCCD6;fill-rule:nonzero}
    .fil5 {fill:#CBE8DE;fill-rule:nonzero}
    .fil2 {fill:#B29957;fill-rule:nonzero}
    .fil4 {fill:#433E40;fill-rule:nonzero}
   ]]>
  </style>
 </defs>
 <g id="__x0023_Layer_x0020_1">
  <metadata id="CorelCorpID_0Corel-Layer"/>
  <path class="fil0" d="M116 57c-1,-1 -1,-2 -1,-3 0,1 0,2 1,3z"/>
  <path class="fil0" d="M114 54c0,0 0,-1 -1,-2 1,1 1,2 1,2z"/>
  <path class="fil0" d="M118 62c0,-1 0,-2 -1,-2 1,0 1,1 1,2z"/>
  <path class="fil0" d="M117 59c-1,-1 -1,-1 -1,-2 0,1 0,1 1,2z"/>
  <path class="fil0" d="M110 38c0,0 0,0 0,0 0,0 0,0 0,0z"/>
  <path class="fil0" d="M110 38c-1,1 -1,5 3,14 -4,-9 -4,-13 -3,-14z"/>
  <path class="fil0" d="M110 38c0,0 0,0 0,0 0,0 0,0 0,0z"/>
  <path class="fil0" d="M110 38c0,0 0,0 0,0 0,0 0,0 0,0z"/>
  <path class="fil1" d="M93 75c0,0 -3,1 -6,7 0,0 -5,-37 -15,-58 0,0 1,4 -2,11 0,0 -9,-25 -16,-35 -8,7 -7,11 -16,22 -9,11 -9,16 -16,27 -6,12 -6,24 -6,24 -4,-4 -4,-10 -4,-10 -5,4 -8,18 -6,28 2,10 0,14 -2,22 -2,9 -4,26 -1,35 3,9 3,17 3,17 -3,-3 -5,-9 -5,-9 -3,7 1,18 5,23 3,6 3,12 9,17 7,5 8,9 8,9 -2,0 -6,-1 -9,-3 -4,-3 -7,-3 -7,-3 3,10 6,40 5,49 -1,8 4,20 4,20 -3,-5 -8,-9 -8,-9 1,2 2,8 4,14 3,7 11,20 16,27 5,6 5,9 5,9 0,0 -5,-3 -6,-3 -1,0 -2,1 -1,4 1,3 3,9 3,14 0,6 2,14 6,18 3,5 6,13 6,13 -5,0 -11,-5 -11,-5 2,5 8,14 15,19 7,5 8,6 19,18 12,12 28,16 28,16 0,0 23,-27 27,-52 0,0 -3,6 -15,11 0,0 9,-11 10,-16 1,-5 0,-17 -1,-26 -2,-8 0,-20 -3,-29 -3,-9 0,-20 -2,-30 0,0 -6,2 -12,7 0,0 6,-11 10,-13 0,0 1,-2 0,-7 -1,-6 -2,-12 1,-14 0,0 -2,-1 -6,0 -4,2 -9,3 -12,1 0,0 6,-1 10,-3 5,-2 4,-3 4,-10 0,-7 0,-11 -3,-22 -3,-11 -6,-27 0,-41 0,0 -5,2 -7,9 0,0 -1,-4 1,-10 2,-7 4,-21 3,-36 -1,-14 1,-12 -2,-23 -3,-12 -5,-21 -2,-24z"/>
  <path class="fil2" d="M81 364c0,3 1,6 2,8 7,-5 21,-16 31,-34 0,-3 0,-6 0,-9 -6,8 -20,25 -33,35z"/>
  <path class="fil2" d="M76 346c1,3 1,5 2,8 7,-7 25,-23 34,-39 0,-3 0,-6 0,-9 -5,6 -22,29 -36,40z"/>
  <path class="fil3" d="M112 306c0,-5 -1,-9 -1,-13 -9,20 -29,38 -37,45 1,3 1,6 2,8 14,-11 31,-34 36,-40z"/>
  <path class="fil3" d="M78 354c1,4 2,7 3,10 13,-10 27,-27 33,-35 -1,-3 -1,-6 -1,-9 -1,-2 -1,-3 -1,-5 -9,16 -27,32 -34,39z"/>
  <path class="fil2" d="M62 285c-12,-5 -42,-15 -47,-19 0,1 1,2 1,2 -3,-5 -8,-9 -8,-9 1,2 2,6 3,11 8,5 29,16 53,24 -1,-3 -1,-6 -2,-9z"/>
  <path class="fil2" d="M59 267c-11,-4 -37,-13 -47,-19 0,3 0,7 1,11 5,2 33,12 47,16 0,-3 -1,-5 -1,-8z"/>
  <path class="fil2" d="M11 219c9,5 29,14 44,22 0,-3 -1,-5 -1,-7 -13,-8 -37,-19 -44,-22 0,2 0,5 1,7z"/>
  <path class="fil2" d="M56 249c-9,-4 -33,-15 -44,-19 0,4 0,7 0,10 7,2 21,7 46,18 -1,-3 -1,-6 -2,-9z"/>
  <path class="fil3" d="M11 270c1,1 1,2 1,3 1,2 2,5 4,8 14,11 38,20 50,23 -1,-3 -1,-6 -2,-10 -24,-8 -45,-19 -53,-24z"/>
  <path class="fil3" d="M60 275c-14,-4 -42,-14 -47,-16 1,3 1,5 2,7 5,4 35,14 47,19 0,-3 -1,-6 -2,-10z"/>
  <path class="fil3" d="M58 258c-25,-11 -39,-16 -46,-18 0,3 0,6 0,8 0,0 0,0 0,0 10,6 36,15 47,19 -1,-3 -1,-6 -1,-9z"/>
  <path class="fil3" d="M55 241c-15,-8 -35,-17 -44,-22 0,4 0,7 1,11 11,4 35,15 44,19 0,-3 -1,-5 -1,-8z"/>
  <path class="fil2" d="M49 176c18,-14 39,-39 48,-49 0,-2 0,-3 0,-5 0,-1 0,-2 -1,-3 -11,14 -37,36 -48,46 0,3 1,7 1,11z"/>
  <path class="fil2" d="M95 99c-9,14 -36,39 -48,50 0,2 1,5 1,7 21,-18 42,-41 48,-49 0,-2 0,-4 -1,-8z"/>
  <path class="fil3" d="M50 187c9,-9 35,-32 47,-48 0,-4 0,-8 0,-12 -9,10 -30,35 -48,49 0,4 0,7 1,11z"/>
  <path class="fil3" d="M48 165c11,-10 37,-32 48,-46 0,-7 1,-9 0,-12 -6,8 -27,31 -48,49 0,3 0,6 0,9z"/>
  <path class="fil3" d="M95 99c0,0 0,0 0,0 -1,-4 -2,-7 -2,-10 -7,10 -23,31 -46,52 0,2 0,5 0,8 12,-11 39,-36 48,-50z"/>
  <path class="fil2" d="M47 122c0,-2 0,-4 0,-5 -22,-14 -38,-35 -41,-39 0,2 0,5 0,8 3,5 17,23 41,36z"/>
  <path class="fil3" d="M6 86c0,2 0,4 0,5 1,2 1,4 1,6 12,15 37,30 40,31 0,-2 0,-4 0,-6 -24,-13 -38,-31 -41,-36z"/>
  <path class="fil4" d="M97 426c0,0 -2,-5 -5,-14 -1,-5 -3,-11 -5,-17 -1,-3 -2,-7 -3,-10 -1,-4 -2,-8 -3,-12 -2,-8 -4,-16 -7,-25 -2,-9 -4,-19 -6,-29 -1,-5 -3,-10 -4,-15 -1,-6 -2,-11 -3,-16 -1,-5 -2,-11 -3,-16 -1,-6 -1,-11 -2,-16l-1 -5 0 -4c-1,-2 -1,-5 -1,-8 -1,-5 -2,-11 -2,-16 -1,-5 -1,-11 -2,-16 0,-3 0,-5 -1,-8 0,-2 0,-5 0,-7 0,-3 -1,-6 -1,-8 0,-3 0,-5 0,-8 0,-2 -1,-4 -1,-7 0,-2 0,-5 0,-7 0,-5 -1,-9 -1,-14 0,-4 0,-8 0,-13 0,-8 0,-15 0,-22 0,-7 0,-13 0,-17 1,-10 1,-15 1,-15l2 0c0,0 -1,5 -1,15 0,5 0,10 0,17 0,7 0,14 0,22 0,4 0,9 0,13 1,5 1,9 1,14 0,2 0,5 0,7 1,2 1,5 1,7 0,3 0,5 0,8 1,2 1,5 1,7 0,3 1,5 1,8 0,3 0,5 1,8 0,5 1,10 1,16 1,5 1,11 2,16 1,3 1,5 1,8l1 4 1 4c0,6 1,11 2,16 1,6 2,11 3,16 1,6 2,11 3,16 2,5 3,10 4,15 2,10 4,20 7,29 2,9 5,18 7,25 1,4 2,8 3,12 1,3 2,7 3,10 2,6 4,12 5,16 3,9 5,15 5,15l-4 1z"/>
  <path class="fil2" d="M76 34c-1,-3 -2,-7 -4,-10 0,0 1,4 -2,11 -4,8 -23,33 -23,33l-20 -28c-1,2 -2,4 -3,7 2,6 9,19 23,36 0,0 25,-32 29,-49z"/>
  <path class="fil4" d="M70 35c0,0 -9,-25 -16,-35 -8,7 -7,11 -16,22 -6,7 -8,12 -11,18l20 28c0,0 19,-25 23,-33zm-17 -24l0 0 10 24 -17 21 -13 -17c6,-11 20,-28 20,-28z"/>
  <path class="fil5" d="M63 35l-10 -24c0,0 -14,17 -20,28l13 17 17 -21z"/>
 </g>
</svg>
