<?xml version="1.0" encoding="UTF-8"?>
<!DOCTYPE svg PUBLIC "-//W3C//DTD SVG 1.1//EN" "http://www.w3.org/Graphics/SVG/1.1/DTD/svg11.dtd">
<!-- Creator: CorelDRAW X7 -->
<svg xmlns="http://www.w3.org/2000/svg" xml:space="preserve" width="1.38372in" height="4.47302in" version="1.1" style="shape-rendering:geometricPrecision; text-rendering:geometricPrecision; image-rendering:optimizeQuality; fill-rule:evenodd; clip-rule:evenodd"
viewBox="0 0 317 1025"
 xmlns:xlink="http://www.w3.org/1999/xlink">
 <defs>
  <style type="text/css">
   <![CDATA[
    .fil2 {fill:#F8AB95;fill-rule:nonzero}
    .fil7 {fill:#F6EDDC;fill-rule:nonzero}
    .fil0 {fill:#E4D0A6;fill-rule:nonzero}
    .fil6 {fill:#CBE8DE;fill-rule:nonzero}
    .fil3 {fill:#B29957;fill-rule:nonzero}
    .fil4 {fill:#A5C1B1;fill-rule:nonzero}
    .fil1 {fill:#433E40;fill-rule:nonzero}
    .fil8 {fill:#2F2E2E;fill-rule:nonzero}
    .fil5 {fill:#526F6D;fill-rule:nonzero}
   ]]>
  </style>
 </defs>
 <g id="__x0023_Layer_x0020_1">
  <metadata id="CorelCorpID_0Corel-Layer"/>
  <path class="fil0" d="M287 260l-9 -16c-4,3 -9,7 -14,9l8 27c5,-6 11,-13 15,-20z"/>
  <path class="fil0" d="M300 207c0,0 0,11 -10,24l7 7c2,-9 4,-19 3,-31z"/>
  <path class="fil0" d="M254 296l-9 -33c-5,3 -10,6 -15,9l8 36c5,-4 11,-8 16,-12z"/>
  <path class="fil0" d="M212 285c-4,4 -9,8 -13,12l5 35c3,-3 7,-5 11,-8 1,-1 3,-3 5,-4l-8 -35z"/>
  <path class="fil0" d="M173 354l2 29c0,-7 1,-20 13,-35l-4 -31c-7,11 -11,23 -11,37z"/>
  <path class="fil0" d="M175 383c0,2 0,4 0,4l0 -4z"/>
  <path class="fil1" d="M184 317l4 31c4,-5 9,-11 16,-16l-5 -35c-6,6 -11,13 -15,20z"/>
  <path class="fil1" d="M238 308l-8 -36c-6,4 -12,9 -18,13l8 35c6,-4 12,-8 18,-12z"/>
  <path class="fil1" d="M272 280l-8 -27c-1,1 -2,1 -3,2 -5,2 -11,5 -16,8l9 33c6,-5 12,-10 18,-16z"/>
  <path class="fil1" d="M297 238l-7 -7c-3,4 -7,9 -12,13l9 16c4,-6 7,-14 10,-22z"/>
  <path class="fil2" d="M130 963c0,0 9,-27 63,-67 54,-39 88,-96 92,-151 0,0 -12,61 -62,94 -50,34 -76,44 -85,77l-8 47z"/>
  <path class="fil3" d="M156 768c0,0 3,-35 43,-61 40,-27 91,-28 99,-77 0,0 1,37 -12,68 -13,30 -94,134 -94,134l-50 54 14 -118z"/>
  <path class="fil2" d="M139 901c0,0 5,-19 46,-49 41,-30 69,-60 90,-105 21,-45 27,-90 23,-117 0,0 2,69 -59,132 -61,63 -93,95 -99,120 -6,24 -1,19 -1,19z"/>
  <path class="fil2" d="M159 742c0,0 4,-34 73,-66 69,-32 87,-106 85,-174 0,0 -4,16 -37,18 -33,2 -94,24 -106,53l-15 169z"/>
  <path class="fil3" d="M229 678l-8 -65c0,0 0,0 0,0 -6,3 -12,6 -17,9l4 67c6,-4 13,-7 21,-11z"/>
  <path class="fil3" d="M187 634c-9,6 -16,12 -20,17l-8 91c0,0 2,-17 28,-38l0 -70z"/>
  <path class="fil3" d="M268 652l-14 -58c-5,3 -10,7 -16,10l11 63c7,-5 13,-10 19,-15z"/>
  <path class="fil3" d="M299 607l-11 -38c-5,4 -10,8 -15,12l12 51c5,-8 10,-16 14,-25z"/>
  <path class="fil3" d="M317 528c-4,8 -8,16 -14,24 2,6 5,15 7,24 4,-16 6,-32 7,-48z"/>
  <path class="fil0" d="M208 689l-4 -67c-7,4 -12,8 -17,12l0 70c6,-5 12,-10 21,-15z"/>
  <path class="fil0" d="M232 676c6,-3 12,-6 17,-9l-11 -63c-5,3 -11,6 -17,9l8 65c1,-1 2,-1 3,-2z"/>
  <path class="fil0" d="M285 632l-12 -51c-6,4 -12,9 -19,13l14 58c6,-6 12,-13 17,-20z"/>
  <path class="fil0" d="M310 576c-2,-9 -5,-18 -7,-24 -4,5 -9,11 -15,17l11 38c5,-10 8,-20 11,-31z"/>
  <path class="fil4" d="M174 564c0,0 10,-25 55,-38 44,-13 65,-15 77,-34 11,-19 6,-63 3,-92 -3,-30 -8,-41 -17,-41 -10,-1 -97,58 -115,95l-3 110z"/>
  <path class="fil1" d="M222 513c-27,10 -40,22 -48,33l0 18c0,0 10,-25 55,-38 44,-13 65,-15 77,-34 5,-8 7,-22 7,-38 -13,28 -45,43 -91,59z"/>
  <path class="fil2" d="M177 451c0,0 1,-24 64,-66 63,-43 61,-56 62,-84 2,-27 -7,-43 -7,-43 0,0 0,25 -33,41 -32,16 -88,51 -88,103l2 49z"/>
  <path class="fil2" d="M172 332c0,0 -6,-22 45,-58 51,-37 63,-73 59,-128 -4,-55 -68,-116 -108,-136 -39,-20 -91,-11 -120,28 -29,39 -32,81 -23,91 8,9 19,12 48,18 29,7 65,26 90,78l9 107z"/>
  <path class="fil2" d="M164 229c0,0 -13,-41 -77,-64 -63,-23 -81,-23 -87,-35 0,0 1,17 25,32 24,15 57,18 86,32 29,13 48,39 53,61l0 -26z"/>
  <path class="fil3" d="M169 279c0,0 1,-39 -52,-67 -54,-27 -102,-28 -109,-49 0,0 -8,20 -8,59 0,39 0,53 22,69 22,15 133,65 152,130l-1 -73 -4 -69z"/>
  <path class="fil1" d="M113 325c-61,-39 -100,-50 -113,-100 0,37 0,51 22,66 22,15 133,65 152,130l-1 -42c-7,-12 -23,-31 -60,-54z"/>
  <path class="fil2" d="M176 437c0,0 3,-40 -64,-80 -67,-39 -101,-42 -107,-57 0,0 -4,22 1,59 5,37 7,46 36,60 30,14 119,49 132,85l2 -67z"/>
  <path class="fil5" d="M176 509c0,0 -8,-22 -56,-45 -48,-22 -95,-46 -104,-54 0,0 -6,44 -6,74 1,29 4,37 29,52 24,16 117,64 127,108l10 -135z"/>
  <path class="fil2" d="M165 660c0,0 1,-31 -48,-56 -48,-24 -101,-34 -107,-58 0,0 -2,40 47,64 48,25 80,26 104,81l4 -31z"/>
  <path class="fil4" d="M161 708c0,0 4,-34 -49,-64 -53,-30 -86,-17 -101,-44 0,0 -12,64 32,108 44,43 93,69 104,112l14 -112z"/>
  <path class="fil0" d="M50 656c54,27 99,39 106,90l5 -38c0,0 4,-34 -49,-64 -53,-30 -86,-17 -101,-44 0,0 -2,11 -1,26 7,9 19,19 40,30z"/>
  <path class="fil0" d="M48 729l-24 47c3,7 6,13 10,20l31 -57c-6,-4 -12,-7 -17,-10z"/>
  <path class="fil0" d="M8 689c0,0 -6,20 6,61l19 -30c-15,-9 -20,-15 -25,-31z"/>
  <path class="fil0" d="M85 753c-1,-1 -3,-2 -4,-3l-32 67c5,6 10,12 15,18l32 -74c-4,-3 -7,-5 -11,-8z"/>
  <path class="fil0" d="M111 774l-31 82c6,7 12,15 17,23l29 -90c-4,-5 -9,-10 -15,-15z"/>
  <path class="fil0" d="M138 808l-23 102c6,13 11,26 14,40 0,0 15,-84 18,-117 0,0 0,-10 -9,-25z"/>
  <path class="fil1" d="M33 720l-19 30c2,7 5,14 8,21 0,2 1,4 2,5l24 -47c-6,-3 -10,-6 -15,-9z"/>
  <path class="fil1" d="M65 739l-31 57c5,7 10,14 15,21l32 -67c-6,-4 -11,-7 -16,-11z"/>
  <path class="fil1" d="M96 761l-32 74c5,7 11,14 16,21l31 -82c-4,-4 -9,-9 -15,-13z"/>
  <path class="fil1" d="M126 789l-29 90c7,10 13,20 18,31l23 -102c-3,-6 -7,-12 -12,-19z"/>
  <path class="fil3" d="M7 710c1,14 4,34 15,61 21,55 92,102 107,179 0,0 4,-24 8,-51 -4,-18 -16,-46 -46,-79 -41,-45 -73,-77 -84,-110z"/>
  <path class="fil4" d="M49 62c-5,-4 -9,-7 -11,-8 -19,34 -20,66 -13,75 4,5 9,8 16,10 -3,-46 5,-71 8,-77z"/>
  <path class="fil6" d="M153 98c-3,3 -5,6 -8,7 1,1 1,2 1,3 5,19 13,86 15,108l2 3c1,-11 5,-32 23,-60 -14,-33 -33,-59 -33,-59 0,0 0,0 0,-2z"/>
  <path class="fil6" d="M86 84c-7,-4 -14,-7 -20,-11 0,0 0,0 0,1 -5,25 -2,61 0,72 2,0 5,1 7,1 5,1 11,3 17,5 -7,-33 -4,-65 -4,-68z"/>
  <path class="fil4" d="M110 95c-4,20 0,56 1,68 10,7 20,16 30,27 -9,-31 -10,-78 -10,-86 -3,-2 -10,-4 -21,-9z"/>
  <path class="fil6" d="M174 42c0,0 0,0 0,0 15,1 43,30 49,42 2,-10 3,-20 2,-30 -17,-17 -35,-32 -51,-41 1,10 1,20 0,29z"/>
  <path class="fil4" d="M171 64c-3,7 -6,15 -10,21 1,0 1,0 1,0 17,10 36,41 40,49 5,-8 9,-16 13,-25 -17,-28 -40,-42 -44,-45z"/>
  <path class="fil3" d="M66 74c0,-1 0,-1 0,-1 7,-30 -17,-13 -17,-13 0,0 0,1 0,2 -3,6 -11,31 -8,77 6,3 14,4 25,7 -2,-11 -5,-47 0,-72z"/>
  <path class="fil3" d="M110 95c0,-1 0,-1 0,-1 6,-24 -24,-11 -24,-11 0,0 0,1 0,1 0,3 -3,35 4,68 7,3 14,7 21,11 -1,-12 -5,-48 -1,-68z"/>
  <path class="fil3" d="M146 108c0,-1 0,-2 -1,-3 -6,-18 -14,-3 -14,-3 0,0 0,1 0,2 0,8 1,55 10,86 7,9 14,20 21,33 0,0 0,-3 -1,-7 -2,-22 -10,-89 -15,-108z"/>
  <path class="fil3" d="M162 85c0,0 0,0 -1,0 -15,-8 -10,8 -8,13 0,2 0,2 0,2 0,0 19,26 33,59 2,-5 5,-9 9,-14 2,-4 5,-7 7,-11 -4,-8 -23,-39 -40,-49z"/>
  <path class="fil3" d="M174 42c0,0 0,0 0,0 -17,-2 -4,22 -4,22 0,0 0,0 1,0 4,3 27,17 44,45 3,-8 6,-16 8,-25 -6,-12 -34,-41 -49,-42z"/>
  <path class="fil0" d="M32 202c0,0 -10,-1 -14,10 -5,10 -1,28 5,30 6,2 12,-3 14,-11 3,-9 7,-28 -5,-29z"/>
  <path class="fil0" d="M69 215c0,0 -11,-2 -17,10 -5,12 -8,37 3,41 11,5 18,-4 20,-15 2,-10 9,-36 -6,-36z"/>
  <path class="fil0" d="M106 230c0,0 -11,-1 -17,11 -5,12 -9,42 2,51 12,9 22,0 25,-19 3,-20 7,-43 -10,-43z"/>
  <path class="fil0" d="M158 287c0,0 -1,-21 -12,-30 -10,-10 -16,-4 -19,7 -3,11 -4,29 0,42 5,13 10,24 19,24 9,0 17,-11 12,-43z"/>
  <path class="fil7" d="M201 441c0,0 -9,2 -14,23 -5,21 -1,49 8,50 8,1 18,-13 18,-37 0,-25 -3,-39 -12,-36z"/>
  <path class="fil7" d="M240 415c0,0 -11,3 -14,14 -4,11 -9,57 5,62 15,4 22,-14 22,-39 0,-25 -4,-40 -13,-37z"/>
  <path class="fil7" d="M278 389c0,0 -11,3 -15,15 -4,13 -6,60 11,64 17,5 22,-29 20,-51 -2,-21 -5,-32 -16,-28z"/>
  <path class="fil3" d="M96 522l1 -68c-6,-4 -13,-7 -19,-10l-1 67c7,4 13,8 19,11z"/>
  <path class="fil3" d="M162 570c3,4 6,7 9,9l5 -70c0,0 -3,-9 -17,-20l2 78c0,1 1,2 1,3z"/>
  <path class="fil3" d="M54 498l3 -65c-9,-4 -16,-8 -22,-11l-4 58c7,6 15,13 23,18z"/>
  <path class="fil3" d="M124 537c0,0 7,3 16,10l-2 -73c-5,-3 -11,-6 -18,-10 0,0 0,0 -1,0l1 70c3,2 4,3 4,3z"/>
  <path class="fil1" d="M140 550l21 24 0 -7 -2 -78c-5,-5 -12,-10 -21,-15l2 73 0 3z"/>
  <path class="fil1" d="M96 525l24 12 0 -3 -1 -70c-7,-3 -14,-7 -22,-10l-1 68 0 3z"/>
  <path class="fil1" d="M54 506l23 12 0 -7 1 -67c-8,-4 -15,-7 -21,-11l-3 65 0 8z"/>
  <path class="fil1" d="M31 480l4 -58c-10,-5 -16,-9 -19,-12 0,0 -6,44 -6,74 0,0 0,1 0,1l19 9 2 -14z"/>
  <path class="fil6" d="M113 530c-56,-30 -88,-54 -102,-74 -1,10 -1,19 -1,28 1,29 4,37 29,52 24,16 117,64 127,108l5 -68c-9,-13 -26,-29 -58,-46z"/>
  <path class="fil2" d="M91 729c-41,-29 -63,-51 -76,-71 4,16 13,34 28,50 44,43 93,69 104,112l3 -23c-3,-9 -16,-38 -59,-68z"/>
  <path class="fil8" d="M113 1023c0,0 3,-14 7,-40 2,-12 4,-28 7,-46 3,-17 6,-37 9,-59 3,-22 7,-46 10,-71 2,-13 3,-26 5,-39 2,-13 3,-27 5,-40 1,-14 3,-28 4,-42 2,-14 3,-29 5,-43 2,-29 5,-59 6,-88 1,-15 1,-30 2,-44 1,-15 0,-29 0,-44 0,-29 -1,-58 -2,-85 -1,-28 -2,-55 -4,-80 -2,-25 -3,-49 -5,-71 -5,-44 -10,-81 -15,-106 -1,-7 -2,-12 -3,-17 -1,-5 -2,-9 -3,-12 -2,-7 -3,-10 -3,-10l3 -1c0,0 1,3 3,10 1,3 2,7 3,12 1,5 3,11 4,17 5,25 11,62 15,106 2,22 4,46 6,72 2,25 4,52 5,79 1,28 2,57 3,86 0,14 1,29 0,44 0,15 -1,30 -1,44 -2,30 -4,59 -6,88 -2,15 -3,29 -4,44 -2,14 -3,28 -4,42 -2,13 -3,27 -5,40 -1,13 -3,26 -4,39 -4,25 -7,49 -10,71 -3,22 -6,42 -8,60 -3,18 -5,33 -7,46 -4,26 -6,40 -6,40l-12 -2z"/>
  <path class="fil1" d="M175 14c-3,-1 -5,-3 -7,-4 -39,-20 -91,-11 -120,28 -4,6 -8,11 -11,17 10,9 38,32 109,56 0,0 41,-45 29,-97z"/>
  <path class="fil0" d="M76 31c2,18 19,39 55,27 28,-9 27,-42 11,-56 -21,-4 -44,-1 -63,9 -2,5 -3,11 -3,20z"/>
 </g>
</svg>
