<?xml version="1.0" encoding="UTF-8"?>
<!DOCTYPE svg PUBLIC "-//W3C//DTD SVG 1.1//EN" "http://www.w3.org/Graphics/SVG/1.1/DTD/svg11.dtd">
<!-- Creator: CorelDRAW X7 -->
<svg xmlns="http://www.w3.org/2000/svg" xml:space="preserve" width="1.52541in" height="4.17174in" version="1.1" style="shape-rendering:geometricPrecision; text-rendering:geometricPrecision; image-rendering:optimizeQuality; fill-rule:evenodd; clip-rule:evenodd"
viewBox="0 0 293 802"
 xmlns:xlink="http://www.w3.org/1999/xlink">
 <defs>
  <style type="text/css">
   <![CDATA[
    .fil1 {fill:#F8AB95;fill-rule:nonzero}
    .fil0 {fill:#E4D0A6;fill-rule:nonzero}
    .fil3 {fill:#B29957;fill-rule:nonzero}
    .fil2 {fill:#A5C1B1;fill-rule:nonzero}
    .fil5 {fill:#6B5A38;fill-rule:nonzero}
    .fil4 {fill:#433E40;fill-rule:nonzero}
   ]]>
  </style>
 </defs>
 <g id="__x0023_Layer_x0020_1">
  <metadata id="CorelCorpID_0Corel-Layer"/>
  <path class="fil0" d="M163 711c0,0 64,-42 98,-5 0,0 -10,-35 -57,-31 0,0 22,-30 32,-69 11,-39 36,-64 57,-61 0,0 -20,-17 -53,11 0,0 4,-15 22,-32 17,-18 30,-103 25,-139 0,0 -4,16 -14,26 -9,11 -16,33 -16,40 0,0 -3,-33 8,-61 10,-28 17,-62 21,-91 4,-29 -3,-94 -27,-115 0,0 9,26 1,53 0,0 4,-14 -14,-41 -18,-27 -28,-103 -16,-125 0,0 -15,2 -22,24 0,0 -21,-59 14,-95 0,0 -40,0 -60,72 0,0 0,-21 -4,-35 0,0 -2,24 -22,44 -19,19 -59,82 -62,134 0,0 -5,-12 -2,-33 3,-20 2,-32 -1,-38 0,0 4,18 -15,42 -19,25 -45,103 -30,141 0,0 -5,-4 -8,-28 -4,-24 -17,-36 -17,-36 0,0 8,16 0,84 -8,68 33,163 53,177 0,0 -35,-13 -38,-46 0,0 -10,27 17,63 28,36 75,57 81,96 0,0 -28,-54 -74,-29 0,0 25,-9 46,13 21,23 35,94 77,90z"/>
  <path class="fil1" d="M142 249c0,0 28,-39 49,-55 12,-9 27,-31 37,-49 -5,-29 -5,-61 2,-74 0,0 -15,2 -22,24 0,0 -21,-59 14,-95 0,0 -40,0 -60,72 0,0 0,-21 -4,-35 0,0 -2,24 -22,44 -6,6 -14,17 -23,30 -2,39 0,102 29,138z"/>
  <path class="fil2" d="M228 515c-63,39 -89,86 -89,86 0,0 -6,-34 -54,-67 -31,-20 -54,-52 -68,-77 12,33 27,60 37,67 0,0 -35,-13 -38,-46 0,0 -10,27 17,63 28,36 75,57 81,96 0,0 -28,-54 -74,-29 0,0 25,-9 46,13 21,23 35,94 77,90 0,0 64,-42 98,-5 0,0 -10,-35 -57,-31 0,0 22,-30 32,-69 11,-39 36,-64 57,-61 0,0 -20,-17 -53,11 0,0 4,-15 22,-32 11,-12 20,-52 24,-88 -9,27 -26,59 -58,79z"/>
  <path class="fil3" d="M128 489c0,0 25,-46 79,-91 37,-32 64,-62 77,-86 1,-5 2,-9 2,-13 4,-29 -3,-94 -27,-115 0,0 9,26 1,53 0,0 2,-9 -6,-26 -2,27 -19,100 -127,182 0,0 -39,-33 -61,-87 -18,-47 -24,-72 -25,-93 -9,21 -17,50 -19,76 4,17 15,60 44,99 38,50 49,61 62,101z"/>
  <path class="fil4" d="M136 288c0,0 16,-39 57,-77 23,-23 33,-46 36,-61 -1,-8 -3,-17 -3,-25 -7,17 -17,35 -30,49 -33,36 -47,37 -52,61 0,0 -31,-72 -15,-147 -10,13 -23,33 -34,56 0,12 3,29 10,47 16,43 24,65 31,97z"/>
  <path class="fil4" d="M170 122l-2 6c0,0 13,-27 36,-50 -3,-20 -5,-54 18,-78 0,0 -40,0 -60,72 0,0 0,-21 -4,-35 0,0 -1,10 -7,22 1,35 17,69 17,69 0,-1 1,-3 2,-6z"/>
  <path class="fil2" d="M178 492c-27,20 -40,36 -47,47 1,6 2,12 2,19l1 0c0,-1 -1,-22 49,-59 34,-26 59,-51 74,-72 0,-6 1,-13 3,-21 -12,22 -39,54 -82,86z"/>
  <path class="fil2" d="M130 523c-11,-18 -28,-42 -56,-70 -50,-50 -66,-84 -73,-108 0,1 0,1 0,2 -1,7 -1,14 -1,21 10,23 29,52 68,91 38,39 56,70 64,88 -1,-8 -1,-16 -2,-24z"/>
  <path class="fil5" d="M193 802c0,0 -1,0 -1,-2 -1,-1 -2,-3 -3,-5 -2,-5 -5,-12 -9,-22 -3,-9 -7,-20 -12,-33 -4,-13 -8,-28 -12,-45 -3,-8 -5,-16 -7,-25 -2,-9 -4,-18 -6,-28 -4,-19 -7,-39 -10,-60 -2,-21 -5,-43 -6,-65 -1,-6 -1,-11 -1,-17 -1,-5 -1,-11 -1,-17 -1,-11 -1,-22 -1,-33 0,-12 0,-23 0,-34 1,-11 1,-23 2,-34 0,-11 1,-22 2,-33 1,-10 2,-21 3,-32 1,-10 3,-20 4,-31 1,-10 3,-19 4,-29 1,-5 2,-9 3,-14 1,-5 1,-9 2,-14 2,-9 3,-17 5,-26 4,-16 7,-31 11,-45 3,-13 6,-24 9,-34 5,-19 8,-30 8,-30 0,0 -3,11 -8,30 -3,10 -5,21 -9,35 -3,13 -6,28 -9,45 -2,8 -3,17 -5,26 -1,4 -2,9 -3,13 0,5 -1,10 -2,14 -1,10 -3,20 -4,30 -1,10 -2,20 -3,31 -1,10 -2,21 -3,32 -1,10 -1,21 -2,32 0,12 0,23 -1,34 0,11 0,22 1,34 0,11 0,22 1,33 0,6 0,11 1,17 0,5 1,11 1,16 2,22 4,44 7,65 4,21 7,41 11,60 2,9 4,18 6,27 2,9 4,17 7,25 4,17 9,31 13,44 4,13 9,24 12,33 4,10 7,17 9,21 1,3 2,4 3,6 0,1 0,1 0,1l-7 4z"/>
 </g>
</svg>
