<?xml version="1.0" encoding="UTF-8"?>
<!DOCTYPE svg PUBLIC "-//W3C//DTD SVG 1.1//EN" "http://www.w3.org/Graphics/SVG/1.1/DTD/svg11.dtd">
<!-- Creator: CorelDRAW X7 -->
<svg xmlns="http://www.w3.org/2000/svg" xml:space="preserve" width="1.10308in" height="4.73388in" version="1.1" style="shape-rendering:geometricPrecision; text-rendering:geometricPrecision; image-rendering:optimizeQuality; fill-rule:evenodd; clip-rule:evenodd"
viewBox="0 0 111 474"
 xmlns:xlink="http://www.w3.org/1999/xlink">
 <defs>
  <style type="text/css">
   <![CDATA[
    .fil1 {fill:#CBE8DE;fill-rule:nonzero}
    .fil0 {fill:#C3C2BC;fill-rule:nonzero}
    .fil4 {fill:#B29957;fill-rule:nonzero}
    .fil3 {fill:#A5C1B1;fill-rule:nonzero}
    .fil2 {fill:#433E40;fill-rule:nonzero}
    .fil5 {fill:#2F2E2E;fill-rule:nonzero}
   ]]>
  </style>
 </defs>
 <g id="__x0023_Layer_x0020_1">
  <metadata id="CorelCorpID_0Corel-Layer"/>
  <path class="fil0" d="M61 420c0,0 22,-17 35,-44 12,-27 13,-48 13,-48 0,0 -6,17 -15,29 0,0 12,-31 16,-76 4,-45 -13,-135 -18,-160 -5,-24 -27,-110 -32,-121 0,0 -31,73 -50,141 -18,68 -8,134 2,180 9,45 20,71 49,99z"/>
  <path class="fil1" d="M109 233c-1,-8 -2,-15 -3,-22l-56 -43 -50 41c0,18 1,36 2,53l49 37 58 -66zm-99 3l0 0 40 -35 33 26 -33 38 -40 -29z"/>
  <path class="fil0" d="M52 328l58 -67c0,-9 0,-18 -1,-28l-58 66 -49 -37c1,9 2,19 4,27l46 39z"/>
  <path class="fil2" d="M109 296c0,-5 1,-10 1,-15 1,-6 1,-13 0,-20l-58 67 -46 -39c2,11 4,22 6,32l42 31 55 -56z"/>
  <path class="fil3" d="M94 357c0,0 10,-24 15,-61l-55 56 -42 -31c0,0 0,0 0,0 9,45 20,71 49,99 0,0 22,-17 35,-44 12,-27 13,-48 13,-48 0,0 -6,17 -15,29z"/>
  <path class="fil2" d="M89 106c-1,-2 -1,-4 -2,-6l-35 21 -29 -24c0,3 -1,5 -2,7l31 24 37 -22z"/>
  <path class="fil3" d="M87 100c-4,-15 -8,-34 -13,-52l-17 12 -15 -14c-6,15 -12,33 -19,51l29 24 35 -21z"/>
  <polygon class="fil4" points="50,201 10,236 50,265 83,227 "/>
  <path class="fil1" d="M15 123c-1,4 -2,9 -4,13l11 14 -17 12c-1,6 -2,12 -3,18l34 -29 -21 -28z"/>
  <path class="fil1" d="M103 182c-1,-5 -2,-11 -3,-16l-20 -15 15 -16c-1,-6 -2,-10 -3,-14 0,0 0,-1 0,-1l-26 32 37 30z"/>
  <path class="fil3" d="M11 136c0,2 0,3 -1,5 -2,7 -3,14 -5,21l17 -12 -11 -14z"/>
  <path class="fil3" d="M100 166c-2,-12 -4,-23 -5,-31l-15 16 20 15z"/>
  <path class="fil1" d="M82 79c-1,-2 -1,-4 -1,-5l-27 12 -22 -15c0,2 -1,4 -2,6l24 16 28 -14z"/>
  <path class="fil5" d="M58 58c0,0 -1,7 -2,18 0,6 -1,13 -2,21 0,8 -1,17 -1,26 -1,10 -1,21 -1,32 -1,5 -1,11 -1,17 0,6 0,12 0,18 0,6 0,12 0,19 -1,3 -1,6 -1,9 0,3 0,7 0,10 1,6 1,13 1,19 0,7 0,13 0,20 0,6 0,13 1,19 0,7 0,13 1,19 0,7 0,13 0,19 1,7 1,13 2,19 0,6 1,12 1,18 1,6 1,11 2,17 0,6 1,11 1,16 1,5 1,10 2,15 1,10 2,19 3,27 1,8 2,14 3,20 2,11 3,18 3,18l-4 0c0,0 -1,-6 -2,-17 -1,-6 -2,-13 -3,-21 -1,-8 -2,-17 -3,-26 -1,-5 -2,-10 -2,-15 -1,-6 -1,-11 -1,-17 -1,-5 -1,-11 -2,-17 0,-6 -1,-12 -1,-18 -1,-6 -1,-12 -1,-18 -1,-7 -1,-13 -1,-19 0,-7 -1,-13 -1,-20 0,-6 0,-13 0,-19 -1,-7 -1,-13 -1,-20 0,-6 0,-13 0,-19 0,-3 0,-7 0,-10 0,-3 0,-6 0,-9 0,-7 0,-13 1,-19 0,-6 0,-12 0,-18 0,-6 0,-12 1,-17 0,-11 1,-22 1,-32 1,-9 1,-18 2,-26 0,-8 1,-15 2,-21 1,-11 1,-18 1,-18l2 0z"/>
  <path class="fil2" d="M74 48c-6,-23 -12,-43 -14,-48 0,0 -8,19 -18,46l15 14 17 -12z"/>
  <path class="fil4" d="M70 32c-5,-16 -9,-28 -10,-32 0,0 -5,11 -12,28l9 12 13 -8z"/>
 </g>
</svg>
