<?xml version="1.0" encoding="UTF-8"?>
<!DOCTYPE svg PUBLIC "-//W3C//DTD SVG 1.1//EN" "http://www.w3.org/Graphics/SVG/1.1/DTD/svg11.dtd">
<!-- Creator: CorelDRAW X7 -->
<svg xmlns="http://www.w3.org/2000/svg" xml:space="preserve" width="1.40984in" height="4.30311in" version="1.1" style="shape-rendering:geometricPrecision; text-rendering:geometricPrecision; image-rendering:optimizeQuality; fill-rule:evenodd; clip-rule:evenodd"
viewBox="0 0 170 519"
 xmlns:xlink="http://www.w3.org/1999/xlink">
 <defs>
  <style type="text/css">
   <![CDATA[
    .fil2 {fill:#F8AB95;fill-rule:nonzero}
    .fil3 {fill:#F6EDDC;fill-rule:nonzero}
    .fil0 {fill:#E4D0A6;fill-rule:nonzero}
    .fil1 {fill:#B29957;fill-rule:nonzero}
    .fil4 {fill:#6B5A38;fill-rule:nonzero}
   ]]>
  </style>
 </defs>
 <g id="__x0023_Layer_x0020_1">
  <metadata id="CorelCorpID_0Corel-Layer"/>
  <path class="fil0" d="M127 303c0,0 16,-25 43,-27 0,0 -10,-8 -24,-9 -14,-1 -63,21 -63,21l4 39c0,0 33,-5 40,-24z"/>
  <path class="fil1" d="M119 482c0,0 13,-7 22,-28 9,-22 28,-39 24,-69 0,0 -19,20 -62,28l16 69z"/>
  <path class="fil2" d="M103 412c0,0 37,-8 52,-24 15,-17 12,-30 11,-42 -1,-12 -3,-24 3,-27 0,0 -14,-4 -29,11 -16,16 -24,24 -48,25l11 57z"/>
  <path class="fil1" d="M91 354c0,0 10,2 25,-11 15,-14 31,-39 53,-38 0,0 2,-6 -3,-11 -6,-5 -20,-8 -38,6 -19,14 -14,18 -40,25l3 29z"/>
  <path class="fil2" d="M83 290c0,0 7,3 26,-6 19,-9 30,-22 40,-37 9,-14 10,-37 9,-49 -2,-13 -4,-28 -3,-35 0,0 -23,12 -37,33 -15,21 -23,39 -40,40l5 54z"/>
  <path class="fil0" d="M78 235c0,0 10,2 23,-21 13,-23 29,-56 56,-57 0,0 -5,-8 -27,-7 -22,2 -53,30 -54,45 0,15 2,40 2,40z"/>
  <path class="fil1" d="M76 189c0,0 0,-10 16,-22 16,-13 41,-41 42,-73 0,0 -7,10 -17,12 0,0 11,-5 6,-30 -6,-25 -34,-54 -39,-76 0,0 1,11 -21,36 -22,26 -44,54 -36,77 0,0 -4,-3 -11,-4 0,0 -2,17 13,32 16,15 38,24 47,48z"/>
  <path class="fil2" d="M119 482c0,0 -21,-2 -44,-29 -23,-27 -22,-36 -36,-38 0,0 11,-4 23,2 0,0 -12,-4 -21,-31 0,0 4,7 23,12 19,5 33,12 40,28 6,15 15,56 15,56z"/>
  <path class="fil0" d="M104 420c0,0 -5,-14 -25,-23 -20,-9 -31,-10 -41,-24 -11,-14 -8,-23 -14,-34 -6,-11 -17,-18 -17,-18 0,0 13,7 35,9 23,3 41,2 49,23l13 67z"/>
  <path class="fil2" d="M91 353c0,0 3,-15 -24,-23 -26,-7 -58,-8 -65,-41 0,0 5,5 29,6 24,1 45,9 56,30 0,0 5,23 4,28z"/>
  <path class="fil1" d="M87 324c0,0 -2,-18 -31,-29 -28,-11 -47,-12 -56,-39 0,0 5,4 9,4 0,0 -7,-7 -5,-22 2,-15 10,-30 10,-42 -1,-12 -4,-21 -9,-24 0,0 43,2 72,47l4 50 6 55z"/>
  <path class="fil2" d="M76 197c0,0 0,-15 -22,-30 -21,-16 -41,-18 -46,-32 0,0 -2,14 11,27 12,14 22,20 35,28 14,9 22,13 23,29l-1 -22z"/>
  <path class="fil3" d="M138 446c3,-6 7,-11 11,-17 6,-8 11,-16 15,-24 1,-2 1,-5 1,-7 -3,10 -10,20 -18,30 -4,6 -8,12 -11,17 -6,12 -16,18 -21,21l0 2c6,-3 16,-10 23,-22z"/>
  <path class="fil3" d="M139 425c11,-9 21,-17 27,-28 0,-2 0,-4 0,-5 -5,13 -16,22 -28,32 -2,2 -5,5 -8,7 -9,8 -15,15 -19,18l1 2c3,-3 9,-10 20,-19 2,-2 5,-4 7,-7z"/>
  <path class="fil3" d="M165 388c0,-1 0,-1 0,-2 -5,7 -14,14 -32,25 -14,9 -22,16 -26,20l0 2c4,-4 12,-11 27,-21 16,-10 26,-17 31,-24z"/>
  <path class="fil3" d="M167 359c0,0 0,-1 0,-2 -4,5 -10,10 -25,20 -15,10 -35,14 -43,15l0 2c9,-2 29,-6 44,-16 13,-9 20,-14 24,-19z"/>
  <path class="fil3" d="M129 373c6,-4 10,-9 15,-14 7,-7 14,-13 22,-14 0,0 -1,-1 -1,-2 -8,1 -15,8 -22,15 -5,5 -9,9 -15,13 -11,8 -25,10 -31,10l0 1c1,0 3,0 5,0 7,-1 18,-3 27,-9z"/>
  <path class="fil3" d="M130 357c2,-2 4,-4 6,-5 13,-12 20,-19 29,-19 0,0 0,-1 0,-1 -10,0 -17,7 -30,18 -2,2 -4,4 -6,6 -15,12 -28,14 -34,13l0 2c1,0 3,0 5,0 7,-1 18,-4 30,-14z"/>
  <path class="fil3" d="M161 301c3,0 6,1 8,3 0,0 0,-1 0,-2 -2,-2 -4,-3 -7,-3 -10,-1 -23,5 -36,16 -13,13 -29,19 -37,21l0 2c8,-2 24,-9 39,-22 12,-11 24,-17 33,-15z"/>
  <path class="fil3" d="M113 304c13,-13 39,-30 52,-28 1,0 2,0 3,0 0,0 1,0 2,0 0,0 -1,0 -2,-1 -1,-1 -2,-1 -2,-1 -14,-2 -41,16 -54,29 -10,10 -20,12 -26,12l0 2c1,0 1,0 2,0 6,-1 16,-4 25,-13z"/>
  <path class="fil3" d="M114 291c19,-14 34,-22 48,-19 -1,-1 -3,-2 -5,-3 -13,0 -27,8 -44,20 -14,11 -23,13 -28,13l0 1c0,0 1,0 2,0 5,0 15,-3 27,-12z"/>
  <path class="fil3" d="M156 226c1,-2 1,-4 1,-6 -5,13 -16,26 -33,40 -17,15 -34,19 -42,20l0 2c9,-1 26,-6 43,-21 15,-12 25,-24 31,-35z"/>
  <path class="fil3" d="M158 209c0,-2 0,-3 0,-4 -5,9 -18,26 -38,40 -18,13 -33,16 -40,17l1 1c7,0 22,-4 40,-17 18,-13 31,-28 37,-37z"/>
  <path class="fil3" d="M154 197c1,-2 2,-5 2,-7 0,-2 0,-3 0,-4 -1,2 -2,6 -4,10 -3,7 -16,26 -40,43 -16,11 -27,14 -32,15l0 1c5,-1 16,-4 33,-15 24,-16 37,-37 41,-43z"/>
  <path class="fil3" d="M101 236c3,-4 8,-10 12,-16 12,-16 27,-37 42,-42 0,0 0,-1 0,-1 -15,4 -31,25 -43,42 -5,6 -9,12 -12,16 -9,9 -17,11 -21,11l0 1c1,0 1,0 2,0 4,0 12,-2 20,-11z"/>
  <path class="fil3" d="M91 205c-6,9 -11,13 -14,15 0,1 0,1 0,2 3,-2 9,-6 15,-16 25,-36 45,-52 60,-48 1,-1 2,-1 4,-1 -17,-7 -38,9 -65,48z"/>
  <path class="fil3" d="M106 173c16,-14 32,-22 49,-18 -1,-1 -3,-2 -5,-3 -12,-1 -26,4 -45,20 -17,14 -25,26 -29,34 0,1 0,2 0,4 3,-7 11,-21 30,-37z"/>
  <path class="fil3" d="M108 438c0,-1 -1,-2 -1,-3 -6,-6 -17,-15 -31,-20 -14,-5 -22,-8 -27,-11 1,1 2,2 2,3 5,3 12,5 24,9 17,6 28,17 33,22z"/>
  <path class="fil3" d="M113 455c-1,-1 -1,-2 -1,-4 -3,-2 -6,-6 -9,-9 -9,-9 -25,-21 -47,-29 2,2 4,3 5,3 -1,0 -2,-1 -4,-1 31,12 49,31 56,40z"/>
  <path class="fil3" d="M76 438c4,4 8,9 13,13 14,13 22,17 27,17 0,0 -1,-1 -1,-2 -4,0 -12,-4 -25,-16 -5,-5 -9,-9 -13,-13 -11,-12 -20,-22 -34,-23 -2,0 -4,1 -4,1 2,0 3,0 4,1 13,0 22,9 33,22z"/>
  <path class="fil3" d="M92 359l-1 -3c-5,-3 -14,-7 -30,-8 -23,-2 -31,-4 -37,-9 1,1 1,2 2,3 6,4 14,6 34,7 18,2 28,6 32,10z"/>
  <path class="fil3" d="M72 363c11,0 18,3 22,6l-1 -3c-4,-2 -11,-4 -21,-5l-5 0c-19,-2 -31,-3 -39,-11 0,1 0,2 1,3 8,7 21,8 38,9l5 1z"/>
  <path class="fil3" d="M67 378c18,4 27,11 32,15l-1 -3c-5,-4 -14,-10 -31,-13l-2 -1c-18,-4 -26,-5 -31,-9 0,1 1,2 1,3 6,3 14,4 29,8l3 0z"/>
  <path class="fil3" d="M56 317c18,5 28,11 32,15 0,-1 0,-2 -1,-3 -5,-4 -14,-9 -31,-14 -6,-1 -12,-3 -17,-4 -16,-4 -26,-7 -33,-12 0,1 1,2 1,3 7,4 17,7 32,10 5,2 10,3 17,5z"/>
  <path class="fil3" d="M44 304c24,5 37,17 43,23 0,-1 0,-2 0,-2 -1,0 -1,-1 -2,-2 -7,-7 -20,-16 -40,-20 -7,-2 -13,-3 -18,-4 -13,-2 -19,-3 -24,-7 0,1 0,2 1,3 5,3 11,4 23,6 5,1 11,2 17,3z"/>
  <path class="fil3" d="M51 283c4,1 8,3 11,4 12,5 19,14 23,19l-1 -4c-4,-5 -10,-12 -21,-16 -3,-2 -7,-3 -11,-5 -16,-6 -36,-14 -46,-25 2,3 3,4 3,4 0,0 -1,0 -1,0 10,10 28,17 43,23z"/>
  <path class="fil3" d="M48 268c4,1 8,2 12,4 13,5 20,11 23,17l-1 -4c-3,-5 -10,-11 -22,-15 -3,-1 -7,-2 -11,-4 -19,-6 -36,-12 -45,-24 0,1 0,2 0,2 9,12 27,18 44,24z"/>
  <path class="fil3" d="M81 269l0 0 -1 -3c-3,-4 -11,-9 -25,-13 -19,-6 -38,-12 -50,-23 0,1 0,2 0,2 12,10 31,17 50,22 15,5 22,11 26,15z"/>
  <path class="fil3" d="M80 257l0 -2c-10,-8 -36,-27 -72,-33 0,1 -1,1 -1,2 38,6 64,26 73,33z"/>
  <path class="fil3" d="M79 247l0 -3c-3,-3 -7,-6 -12,-11 -10,-7 -28,-17 -55,-23 0,0 -1,1 -1,1 43,10 62,29 68,36z"/>
  <path class="fil3" d="M78 238l0 -3c-2,-3 -6,-7 -10,-11 -10,-9 -27,-20 -54,-26 0,1 0,1 0,2 40,8 58,29 64,38z"/>
  <path class="fil3" d="M77 229l0 -3c-9,-12 -31,-36 -64,-40 0,0 0,1 0,1 35,6 57,32 64,42z"/>
  <path class="fil3" d="M52 179c13,8 21,17 24,22l0 -3c-4,-5 -11,-13 -24,-20 -22,-14 -37,-24 -44,-39 0,1 0,3 1,5 8,13 22,23 43,35z"/>
  <path class="fil3" d="M132 97c-6,20 -23,44 -38,58 -9,8 -15,17 -18,24 0,1 0,2 0,4 3,-6 8,-17 19,-27 16,-15 34,-41 39,-62 0,0 0,0 0,0 0,0 0,1 -2,3z"/>
  <path class="fil3" d="M100 134c13,-16 20,-24 24,-30 -1,0 -2,1 -3,1 -4,6 -11,14 -23,28 -12,13 -18,26 -22,35 0,1 0,3 0,4 3,-7 10,-22 24,-38z"/>
  <path class="fil3" d="M92 118c16,-15 27,-26 32,-39 -1,-1 -1,-2 -1,-3 -3,13 -14,24 -32,41 -7,6 -12,13 -15,18 0,2 0,3 0,5 3,-6 7,-14 16,-22z"/>
  <path class="fil3" d="M95 102c15,-11 23,-25 24,-38 -1,-1 -1,-2 -2,-3 1,13 -7,28 -23,40 -9,7 -14,13 -17,17 0,1 0,2 0,3 2,-4 8,-10 18,-19z"/>
  <path class="fil3" d="M93 85c14,-14 18,-25 18,-36 -1,-1 -2,-2 -2,-3 1,11 -3,23 -17,38 -7,7 -11,12 -14,17 0,1 0,2 0,3 2,-4 7,-10 15,-19z"/>
  <path class="fil3" d="M104 37c-1,0 -1,-1 -2,-2 0,6 -2,14 -8,21 -6,9 -11,18 -14,24 0,2 0,4 0,5 2,-6 8,-17 16,-28 5,-7 7,-14 8,-20z"/>
  <path class="fil3" d="M58 152c13,13 18,28 18,28l1 0c0,-1 -5,-15 -18,-29 -1,-2 -3,-4 -5,-5 -9,-10 -20,-21 -27,-34 0,1 0,1 0,1 0,0 -1,0 -2,-1 7,13 18,25 28,35 2,2 3,3 5,5z"/>
  <path class="fil3" d="M76 154l0 0 1 0c0,-1 0,-9 -16,-24 -14,-12 -28,-26 -31,-46 -1,1 -1,2 -1,3 4,19 17,32 31,45 15,13 16,22 16,22z"/>
  <path class="fil3" d="M59 108c17,15 17,26 17,27l2 0c0,-1 -1,-13 -17,-28 -4,-3 -7,-6 -9,-8 -10,-8 -16,-14 -17,-26 0,1 -1,2 -1,3 1,11 7,16 17,24 2,3 5,5 8,8z"/>
  <path class="fil3" d="M77 119l1 0c0,-1 -3,-12 -15,-22 -10,-10 -19,-18 -22,-33 -1,1 -1,2 -1,2 4,15 13,23 22,32 12,10 15,21 15,21z"/>
  <path class="fil3" d="M70 78c8,15 7,22 7,22l2 1c0,-1 1,-8 -8,-23 -3,-5 -5,-9 -7,-12 -5,-6 -8,-11 -9,-20 -1,1 -1,1 -2,2 2,8 5,13 9,19 3,3 5,7 8,11z"/>
  <path class="fil3" d="M73 59c4,14 6,25 6,25l2 -1c0,0 -2,-10 -6,-24 -1,-3 -2,-5 -3,-7 -3,-8 -4,-13 -5,-20 0,0 -1,1 -2,1 1,7 3,13 6,20 0,2 1,4 2,6z"/>
  <path class="fil4" d="M84 56c-2,13 -3,26 -4,39 -1,15 -2,31 -3,47 0,17 0,33 1,50 0,17 1,34 2,51 2,34 6,68 12,102 3,16 5,33 9,49 1,8 3,16 5,24 1,8 3,16 5,24 2,8 4,16 6,24 2,8 4,15 6,23 2,7 4,14 6,20 1,3 1,5 2,7 0,0 1,2 0,2 0,0 -1,0 -2,1 0,0 -1,0 -2,0 -2,-9 -5,-19 -8,-29 -2,-8 -4,-15 -6,-23 -2,-8 -4,-16 -6,-23 -1,-8 -3,-16 -5,-24 -2,-8 -3,-16 -5,-24 -3,-16 -6,-32 -8,-49 -3,-17 -5,-33 -7,-50 -2,-17 -4,-34 -4,-51 -1,-8 -1,-16 -2,-25 0,-8 -1,-17 -1,-25 0,-16 0,-33 0,-49 1,-30 2,-59 7,-89 0,0 0,-2 0,-2 1,0 2,0 2,0z"/>
 </g>
</svg>
