<?xml version="1.0" encoding="UTF-8"?>
<!DOCTYPE svg PUBLIC "-//W3C//DTD SVG 1.1//EN" "http://www.w3.org/Graphics/SVG/1.1/DTD/svg11.dtd">
<!-- Creator: CorelDRAW X7 -->
<svg xmlns="http://www.w3.org/2000/svg" xml:space="preserve" width="1.57077in" height="4.79156in" version="1.1" style="shape-rendering:geometricPrecision; text-rendering:geometricPrecision; image-rendering:optimizeQuality; fill-rule:evenodd; clip-rule:evenodd"
viewBox="0 0 17556 53552"
 xmlns:xlink="http://www.w3.org/1999/xlink">
 <defs>
  <style type="text/css">
   <![CDATA[
    .fil6 {fill:#F6EDDC;fill-rule:nonzero}
    .fil1 {fill:#E4D0A6;fill-rule:nonzero}
    .fil4 {fill:#CBE8DE;fill-rule:nonzero}
    .fil5 {fill:#C3C2BC;fill-rule:nonzero}
    .fil2 {fill:#B29957;fill-rule:nonzero}
    .fil3 {fill:#A5C1B1;fill-rule:nonzero}
    .fil0 {fill:#433E40;fill-rule:nonzero}
    .fil8 {fill:#2F2E2E;fill-rule:nonzero}
    .fil7 {fill:black;fill-rule:nonzero}
   ]]>
  </style>
 </defs>
 <g id="__x0023_Layer_x0020_1">
  <metadata id="CorelCorpID_0Corel-Layer"/>
  <path class="fil0" d="M6563 46294c0,0 -112,-964 3768,-3911 3881,-2948 4584,-5904 4668,-8160 84,-2257 -752,-4438 -752,-4438 0,0 -1288,1513 -2470,1843 0,0 2878,-2839 3317,-4627 439,-1788 -795,-4402 -733,-6422 63,-2020 474,-3056 1747,-5722 1273,-2666 1876,-6267 1107,-9196 0,0 -472,1705 -1843,2376 0,0 1127,-1487 1348,-3493 220,-2006 -1608,-3323 -3457,-3966 -1849,-644 -4575,-810 -5187,-190 -612,621 -855,1115 -771,3268 84,2153 254,4234 -1223,6524 -1478,2290 -2800,5945 -1514,10192 0,0 -1452,-1958 -1575,-3240 0,0 -534,190 -130,3206 403,3015 806,5157 -177,7690 -983,2534 -2563,5530 -698,9074 0,0 -1580,-976 -1843,-2470 0,0 -751,2157 1164,4276 1914,2119 4664,4234 5254,7386z"/>
  <path class="fil1" d="M4695 35351c1167,1055 1883,2078 2323,2938l37 -715c-465,-765 -1137,-1620 -2110,-2500 -1596,-1444 -2515,-3473 -2951,-5307 -77,202 -152,406 -225,613 496,1751 1421,3610 2926,4971z"/>
  <path class="fil1" d="M4660 37449c1377,1327 1986,2648 2230,3334l45 -868c-360,-746 -977,-1734 -2016,-2734 -1785,-1721 -3223,-3113 -3474,-5759 -90,336 -166,678 -221,1026 484,2156 1824,3448 3436,5001z"/>
  <path class="fil1" d="M6739 43712l52 -1015c-603,-1462 -2014,-3821 -5304,-6767 87,262 191,528 316,796 3560,3340 4623,5860 4936,6986z"/>
  <path class="fil2" d="M10849 24113c-1266,599 -2088,1250 -2621,1835l-71 685c456,-639 1299,-1448 2852,-2182 1879,-888 2866,-2203 3375,-3215 -19,-224 -29,-444 -23,-657 4,-102 8,-200 13,-298 -314,920 -1202,2735 -3525,3832z"/>
  <path class="fil2" d="M11359 21350c-1484,913 -2366,1699 -2891,2297l-73 697c396,-572 1267,-1511 3160,-2676 1378,-848 2286,-1571 2881,-2132 26,-216 59,-424 100,-630 -537,570 -1498,1411 -3177,2444z"/>
  <path class="fil2" d="M8859 20940l-119 738c461,-653 1435,-1584 3479,-2396 1108,-440 1922,-842 2523,-1194 55,-180 117,-363 186,-553 -593,385 -1491,861 -2847,1400 -1640,652 -2627,1380 -3222,2005z"/>
  <path class="fil2" d="M9176 18971l-107 666c426,-523 1541,-1567 4186,-2605 961,-377 1725,-736 2332,-1065 85,-184 173,-375 269,-578 -645,381 -1529,822 -2737,1295 -2136,838 -3311,1683 -3943,2287z"/>
  <path class="fil2" d="M13533 15097c-2104,925 -3417,1902 -4158,2570 0,51 -2,79 -2,79l-84 524c610,-613 1969,-1765 4394,-2832 1397,-614 2336,-1287 2966,-1889 102,-286 199,-577 286,-874 -540,684 -1551,1608 -3402,2422z"/>
  <path class="fil3" d="M5306 33349c1943,1804 1836,3423 1836,3423l526 -5332 124 -1442c0,0 -32,-307 93,-755l128 -1293c-6,-450 -222,-1653 -2027,-3478 -1952,-1972 -2676,-2721 -3258,-5492 21,373 63,820 135,1358 403,3015 806,5157 -177,7690 -35,91 -71,182 -107,274 292,2119 1214,3643 2727,5047z"/>
  <path class="fil4" d="M10351 26733c-1691,767 -2270,1811 -2466,2510 -125,448 -93,755 -93,755l-124 1442 -466 5433c799,-383 5738,-2894 7090,-6964 -28,-80 -45,-124 -45,-124 0,0 -1288,1513 -2470,1843 0,0 2878,-2839 3317,-4627 313,-1276 -224,-2971 -536,-4572 -682,1679 -2134,3363 -4207,4304z"/>
  <path class="fil5" d="M7202 36873c-71,34 -113,53 -113,53l-34 648 -37 715 -83 1626 -45 868 -99 1914 -52 1015 -122 2357c170,-430 867,-1523 3714,-3686 3881,-2948 4584,-5904 4668,-8160 73,-1941 -535,-3824 -707,-4314 -1352,4070 -6291,6581 -7090,6964z"/>
  <path class="fil5" d="M9369 17497c70,-444 547,-1462 3146,-2884 2671,-1462 4206,-2780 4943,-4531 174,-1510 119,-3040 -243,-4421 0,0 -472,1705 -1843,2376 0,0 1127,-1487 1348,-3493 220,-2006 -1608,-3323 -3457,-3966 -1849,-644 -4575,-810 -5187,-190 -612,621 -855,1115 -771,3268 78,1994 227,3928 -926,6022 54,1679 536,2751 1651,4451 1101,1680 1306,2876 1339,3368z"/>
  <path class="fil6" d="M5986 24472c1805,1825 2021,3028 2027,3478 0,25 0,48 -1,69l145 -1386 71 -685 167 -1604 73 -697 89 -855 3 5 180 -1119 119 -738 210 -1303 107 -666 113 -701 84 -524c0,0 2,-28 2,-79 0,-41 -1,-97 -6,-170 -33,-492 -238,-1688 -1339,-3368 -1115,-1700 -1597,-2772 -1651,-4451 -91,167 -188,334 -297,502 -1478,2290 -2800,5945 -1514,10192 0,0 -1452,-1958 -1575,-3240 0,0 -360,129 -265,1848 582,2771 1306,3520 3258,5492z"/>
  <path class="fil7" d="M8012 28019l-13 130c0,0 10,-44 13,-130z"/>
  <path class="fil0" d="M12006 3141c4605,1211 4223,2513 3688,4399 351,-597 881,-1684 1026,-2996 220,-2006 -1608,-3323 -3457,-3966 -1849,-644 -4575,-810 -5187,-190 -480,487 -732,900 -778,2094 730,-82 2122,-21 4708,659z"/>
  <path class="fil8" d="M11640 5772c0,0 -167,733 -431,2022 -127,646 -289,1429 -454,2331 -172,900 -353,1918 -546,3030 -101,555 -191,1136 -291,1736 -96,600 -204,1220 -300,1859 -191,1279 -405,2625 -591,4023 -96,699 -193,1409 -292,2128 -90,720 -180,1449 -272,2183 -192,1468 -341,2965 -510,4460 -86,747 -154,1496 -224,2242 -71,746 -141,1488 -211,2225 -134,1475 -234,2928 -349,4334 -60,702 -95,1394 -138,2072 -42,677 -82,1339 -122,1984 -89,1290 -128,2511 -180,3638 -24,563 -47,1103 -70,1616 -23,514 -44,1001 -51,1459 -22,916 -41,1714 -57,2372 -31,1315 -49,2066 -49,2066l-511 -9c0,0 24,-753 67,-2070 21,-659 46,-1459 76,-2376 11,-459 36,-947 63,-1461 27,-514 55,-1055 84,-1619 60,-1128 110,-2351 209,-3641 45,-646 91,-1309 139,-1987 49,-678 89,-1371 155,-2074 126,-1406 239,-2861 385,-4336 76,-737 152,-1481 229,-2227 77,-746 150,-1495 243,-2242 181,-1495 342,-2992 547,-4461 97,-734 194,-1463 290,-2183 104,-719 208,-1429 310,-2127 196,-1398 422,-2744 624,-4022 101,-639 214,-1258 315,-1859 105,-599 200,-1180 305,-1734 203,-1111 391,-2129 572,-3029 172,-901 341,-1683 472,-2328 275,-1289 449,-2022 449,-2022l115 27z"/>
 </g>
</svg>
