<?xml version="1.0" encoding="UTF-8"?>
<!DOCTYPE svg PUBLIC "-//W3C//DTD SVG 1.1//EN" "http://www.w3.org/Graphics/SVG/1.1/DTD/svg11.dtd">
<!-- Creator: CorelDRAW X7 -->
<svg xmlns="http://www.w3.org/2000/svg" xml:space="preserve" width="1.9873in" height="4.00809in" version="1.1" style="shape-rendering:geometricPrecision; text-rendering:geometricPrecision; image-rendering:optimizeQuality; fill-rule:evenodd; clip-rule:evenodd"
viewBox="0 0 1219 2459"
 xmlns:xlink="http://www.w3.org/1999/xlink">
 <defs>
  <style type="text/css">
   <![CDATA[
    .fil4 {fill:#F6EDDC;fill-rule:nonzero}
    .fil5 {fill:#F2D5D7;fill-rule:nonzero}
    .fil0 {fill:#CBE8DE;fill-rule:nonzero}
    .fil2 {fill:#B29957;fill-rule:nonzero}
    .fil1 {fill:#A5C1B1;fill-rule:nonzero}
    .fil3 {fill:#433E40;fill-rule:nonzero}
   ]]>
  </style>
 </defs>
 <g id="__x0023_Layer_x0020_1">
  <metadata id="CorelCorpID_0Corel-Layer"/>
  <path class="fil0" d="M694 2135c0,0 135,-291 515,-329 0,0 -53,-93 -216,-28 0,0 94,-67 157,-176 63,-109 85,-282 57,-431 0,0 -8,77 -105,127 0,0 113,-130 20,-477 0,0 4,106 -148,257 -152,150 -264,274 -282,369l15 337 -13 351z"/>
  <path class="fil0" d="M694 2135c0,0 -67,-93 -247,-224 -179,-132 -366,-270 -411,-484 0,0 74,127 239,166 0,0 -103,-55 -151,-109 -48,-55 -60,-86 -69,-148 -9,-62 -35,-138 -55,-167 0,0 21,9 84,61 62,52 112,77 182,84 0,0 -109,-39 -167,-151 0,0 54,61 188,83 134,21 305,40 405,201l18 379 -16 309z"/>
  <path class="fil1" d="M688 1402c0,0 20,-93 212,-290 192,-198 251,-354 240,-468 0,0 -10,108 -169,264 -159,155 -283,285 -286,409l3 85z"/>
  <path class="fil1" d="M679 1267c0,0 -7,-85 175,-268 182,-182 236,-286 225,-411 0,0 -2,104 -133,234 -131,130 -284,274 -279,352l12 93z"/>
  <path class="fil1" d="M688 1402c0,0 -70,-120 -249,-154 -179,-35 -356,-75 -409,-259 0,0 50,124 293,168 243,43 288,25 362,153l3 92z"/>
  <path class="fil1" d="M679 1267c0,0 -24,-105 -256,-167 -232,-63 -349,-147 -379,-286 0,0 46,103 253,175 208,72 319,72 367,175l15 103z"/>
  <path class="fil2" d="M660 1099c0,0 357,-294 367,-680 0,0 -32,57 -68,81 0,0 32,-53 39,-105 6,-52 -15,-94 -73,-145 -57,-51 -103,-102 -124,-119 -21,-17 -36,-18 -36,-18 0,0 -14,67 -50,92 0,0 28,-69 37,-109 0,0 -31,-42 -127,-71 -96,-29 -192,-32 -267,-13 -75,20 -146,140 -175,272 -29,132 -22,163 -55,235 -32,72 -23,152 18,187 41,35 64,59 64,59 0,0 -92,-9 -129,-56 0,0 -14,30 133,135 146,105 373,186 446,255z"/>
  <path class="fil3" d="M989 433c4,-12 7,-25 9,-38 6,-52 -15,-94 -73,-145 -57,-51 -103,-102 -124,-119 -21,-17 -36,-18 -36,-18 0,0 -9,42 -31,72 22,19 48,43 89,76 87,72 110,131 166,172z"/>
  <path class="fil3" d="M276 320c8,-77 64,-181 170,-210 106,-28 136,-16 203,17 33,16 53,31 76,51 9,-24 21,-58 27,-82 0,0 -31,-42 -127,-71 -96,-29 -192,-32 -267,-13 -75,20 -146,140 -175,272 -29,132 -22,163 -55,235 -32,72 -23,152 18,187 2,2 5,4 7,6 -2,-20 5,-53 34,-110 60,-117 81,-205 89,-282z"/>
  <path class="fil2" d="M397 1536c237,100 306,195 309,199l0 -1 -10 -35c-34,-126 -315,-201 -494,-291 -74,-37 -122,-74 -153,-106 2,12 4,23 6,34 0,2 0,3 1,5 54,53 157,118 341,195z"/>
  <path class="fil4" d="M44 1458c7,26 17,52 29,76 35,37 92,84 180,133 200,113 336,205 445,383l2 -41c-7,-18 -61,-135 -232,-258 -171,-122 -309,-163 -424,-293z"/>
  <path class="fil2" d="M866 1407c-132,147 -161,231 -161,231l0 77c1,-1 1,-2 1,-3 4,-20 34,-132 227,-309 125,-116 190,-213 223,-278 3,-38 3,-83 -2,-135 -41,139 -166,283 -288,417z"/>
  <path class="fil5" d="M708 2034c0,1 0,1 0,1l0 -1z"/>
  <path class="fil4" d="M708 1997l0 37c0,-9 8,-94 193,-240 133,-104 218,-171 267,-226 15,-34 27,-73 36,-114 -37,52 -104,131 -212,213 -184,139 -273,239 -284,330z"/>
  <path class="fil3" d="M647 2452c0,0 2,-8 5,-24 3,-17 7,-41 11,-71 5,-31 10,-68 14,-111 3,-21 5,-44 7,-68 2,-24 5,-50 6,-76 2,-27 4,-54 5,-83 2,-28 3,-58 4,-88 1,-31 2,-62 2,-94 0,-32 0,-65 -1,-98 -1,-33 -1,-67 -3,-101 -1,-17 -1,-34 -2,-52 0,-8 -1,-17 -1,-26 -1,-8 -2,-17 -2,-26 -3,-34 -5,-70 -8,-105 -4,-35 -7,-70 -11,-105 -33,-283 -66,-565 -100,-775 -17,-105 -35,-193 -51,-252 -9,-30 -17,-53 -23,-68 -3,-8 -6,-14 -8,-18 -2,-3 -3,-5 -3,-5l6 -3c0,0 1,2 2,6 3,4 5,10 9,17 6,16 15,39 23,69 18,60 36,147 55,252 36,210 73,492 110,774 4,36 8,71 12,106 3,36 6,71 9,106 1,9 1,17 2,26 1,9 1,17 2,26 1,17 2,35 3,52 2,34 3,68 4,102 1,33 1,66 1,98 1,32 0,64 0,94 0,31 -2,61 -3,89 0,29 -2,57 -4,84 -1,27 -3,52 -5,76 -2,25 -4,48 -6,69 -4,44 -9,81 -13,112 -4,31 -8,56 -11,72 -3,17 -4,26 -4,26l-33 -7z"/>
  <path class="fil4" d="M481 163c0,0 -194,424 -183,459 11,34 303,262 330,262 27,-1 214,-355 216,-392 2,-37 -321,-335 -363,-329z"/>
  <path class="fil3" d="M530 373c0,0 -80,176 -76,190 5,14 125,109 137,108 11,0 88,-146 89,-162 1,-15 -133,-138 -150,-136z"/>
 </g>
</svg>
