<?xml version="1.0" encoding="UTF-8"?>
<!DOCTYPE svg PUBLIC "-//W3C//DTD SVG 1.1//EN" "http://www.w3.org/Graphics/SVG/1.1/DTD/svg11.dtd">
<!-- Creator: CorelDRAW X7 -->
<svg xmlns="http://www.w3.org/2000/svg" xml:space="preserve" width="2.27726in" height="4.16307in" version="1.1" style="shape-rendering:geometricPrecision; text-rendering:geometricPrecision; image-rendering:optimizeQuality; fill-rule:evenodd; clip-rule:evenodd"
viewBox="0 0 1513 2765"
 xmlns:xlink="http://www.w3.org/1999/xlink">
 <defs>
  <style type="text/css">
   <![CDATA[
    .fil2 {fill:#E4D0A6;fill-rule:nonzero}
    .fil4 {fill:#CBE8DE;fill-rule:nonzero}
    .fil5 {fill:#B29957;fill-rule:nonzero}
    .fil3 {fill:#A5C1B1;fill-rule:nonzero}
    .fil0 {fill:#433E40;fill-rule:nonzero}
    .fil1 {fill:#2F2E2E;fill-rule:nonzero}
   ]]>
  </style>
 </defs>
 <g id="__x0023_Layer_x0020_1">
  <metadata id="CorelCorpID_0Corel-Layer"/>
  <path class="fil0" d="M1223 1598c-7,34 -19,68 -35,100 3,-1 5,-3 7,-4 13,-31 23,-63 28,-96z"/>
  <path class="fil0" d="M1261 1639c-20,21 -43,39 -66,55 -1,2 -2,5 -3,7 25,-18 48,-39 69,-62z"/>
  <path class="fil0" d="M1147 2211c-56,28 -116,46 -176,65 -60,19 -122,34 -181,57 -57,23 -114,52 -160,93 -16,14 -32,30 -46,47 3,15 5,30 8,45 -2,-6 -3,-13 -4,-20 -24,-29 -50,-57 -76,-83 -57,-59 -119,-110 -185,-159 -64,-48 -129,-96 -184,-154 -53,-57 -92,-123 -113,-198 -11,-37 -17,-76 -16,-115 2,-29 7,-64 25,-88 -21,26 -27,65 -29,98 -1,43 6,86 18,128 22,76 64,144 118,202 56,59 121,109 184,161 89,72 169,154 240,245 -26,-6 -52,-15 -76,-27 -94,-48 -168,-126 -246,-198 -37,-35 -77,-72 -123,-96 -22,-11 -46,-19 -71,-17 -20,1 -37,9 -54,19 23,-12 46,-19 72,-15 28,5 55,21 77,38 44,33 81,74 119,113 39,41 78,83 121,120 41,35 85,66 135,86 25,10 52,18 79,21 0,0 0,0 0,0 0,0 0,0 0,-1 -1,-1 -1,-3 -1,-5 14,-23 32,-43 52,-60 67,-57 156,-70 240,-80 42,-5 85,-9 126,-21 34,-9 65,-25 85,-56 -27,36 -69,48 -112,54 -89,12 -182,4 -270,32 -44,14 -87,39 -121,72 6,-9 12,-18 19,-27 85,-110 226,-148 350,-193 64,-23 130,-46 189,-80 27,-16 52,-35 72,-59 18,-21 31,-45 43,-71 -14,26 -28,50 -48,71 -23,24 -51,42 -80,56zm-552 328l0 0c0,-1 0,-3 -1,-4 2,7 3,13 4,20 -1,-5 -2,-10 -3,-16z"/>
  <path class="fil0" d="M1173 1967c-56,39 -116,70 -177,100 -62,30 -126,56 -188,86 -60,30 -119,61 -173,101 -24,18 -46,37 -67,58 1,18 3,37 4,55 -1,-16 -2,-31 -3,-47 -13,-16 -27,-32 -41,-47 -40,-44 -88,-81 -139,-113 -53,-33 -107,-66 -157,-105 -48,-36 -92,-77 -126,-127 -15,-22 -27,-47 -33,-74 -5,-24 -2,-47 2,-70 -6,27 -9,52 -3,80 7,30 21,58 38,84 65,99 170,167 266,234 50,34 95,74 134,120 25,30 49,65 66,101 -1,-4 -1,-8 -1,-12 1,16 3,31 5,47 5,-11 12,-21 18,-31 15,-20 33,-39 54,-54 73,-56 164,-83 252,-108 45,-13 90,-23 135,-36 20,-6 41,-12 58,-23 16,-10 27,-22 36,-37 -13,18 -29,32 -51,40 -24,10 -50,14 -76,19 -98,20 -199,37 -292,75 -42,17 -83,41 -116,72 -9,7 -17,15 -24,24 -1,-2 -1,-5 -1,-7 0,-1 0,-1 0,-2 5,-8 10,-15 15,-22 11,-14 24,-27 37,-39 107,-101 248,-156 376,-225 64,-35 128,-72 186,-117 27,-22 52,-45 72,-73 16,-22 28,-46 38,-72 -12,27 -26,52 -44,74 -23,28 -51,51 -80,71z"/>
  <path class="fil0" d="M1110 1745c-55,30 -113,56 -170,82 -60,25 -122,47 -180,75 -56,27 -109,58 -157,98 -12,11 -24,23 -35,35 0,-9 0,-19 1,-28 -7,-10 -14,-19 -21,-28 -32,-39 -71,-73 -113,-101 -44,-30 -89,-58 -127,-96 -38,-37 -70,-79 -97,-124 -20,-33 -38,-69 -48,-107 9,43 28,84 48,122 24,44 53,83 85,120 35,39 77,70 118,101 39,29 76,63 105,103 18,24 37,53 46,84 1,-8 1,-16 1,-24 0,17 -1,35 -1,52 0,-2 1,-4 2,-6 8,-16 18,-30 29,-44 41,-52 100,-93 158,-124 63,-33 128,-61 191,-92 61,-30 121,-61 179,-96 20,-13 41,-26 61,-40 1,-3 2,-6 3,-9 -25,17 -51,33 -78,47z"/>
  <path class="fil0" d="M1273 1457c-32,19 -68,32 -103,44 -67,21 -135,36 -202,53 -65,17 -133,34 -194,62 -58,27 -113,61 -155,109 -8,9 -16,18 -23,27 2,-13 4,-27 6,-41 16,-39 45,-74 74,-102 87,-81 210,-108 319,-141 55,-16 114,-31 161,-63 43,-29 67,-73 89,-118 -14,24 -27,48 -44,70 -21,24 -45,42 -74,56 -55,24 -116,35 -174,50 -62,15 -124,30 -183,54 -53,21 -105,53 -144,94 -3,4 -6,7 -9,10 -5,28 -10,57 -15,87 0,-1 0,-1 0,-1 -4,-16 -9,-32 -15,-48 -20,-57 -45,-112 -75,-166 -28,-50 -63,-97 -97,-143 -36,-47 -73,-93 -106,-142 -16,-23 -30,-48 -38,-75 -7,-22 -10,-46 -14,-69 3,26 5,53 13,78 8,30 24,57 40,83 65,100 138,193 191,300 35,72 62,151 76,231 -4,-6 -7,-12 -11,-18 -29,-49 -62,-94 -100,-136 -38,-43 -82,-80 -123,-120 -39,-36 -79,-74 -111,-117 -28,-38 -41,-79 -49,-125 3,24 6,48 14,71 9,27 23,51 40,73 64,88 150,158 217,243 54,69 103,148 128,233 0,0 0,0 0,0 6,-22 16,-43 27,-62 17,-29 38,-56 63,-80 93,-90 225,-124 345,-160 64,-19 128,-37 190,-62 29,-12 56,-27 82,-46 22,-16 37,-37 51,-60 -18,27 -39,49 -67,67zm-680 316l0 0c-1,7 -2,14 -3,22 0,-4 1,-8 1,-12 1,-3 1,-7 2,-10zm-8 57l0 0c1,-4 1,-8 2,-11 -2,13 -4,27 -5,41 1,-10 2,-20 3,-30z"/>
  <path class="fil0" d="M214 1862c45,46 98,82 145,125 80,73 153,159 206,254 0,0 0,-1 0,-1 0,8 0,16 1,25 8,-22 21,-43 35,-61 22,-30 49,-55 78,-78 55,-43 118,-78 179,-113 61,-36 122,-72 179,-116 55,-42 102,-92 134,-153 8,-14 14,-28 21,-43 -3,2 -5,4 -7,6 -11,21 -24,42 -37,62 -39,57 -94,101 -153,139 -61,39 -126,72 -190,106 -63,34 -127,68 -182,114 -20,18 -41,38 -59,61 0,-7 0,-14 0,-21 -20,-27 -41,-53 -63,-78 -41,-47 -87,-91 -136,-130 -50,-41 -104,-76 -151,-120 -84,-80 -154,-189 -136,-310 -12,64 0,126 27,184 27,56 66,105 109,148z"/>
  <path class="fil0" d="M563 1842c-25,-45 -58,-84 -94,-119 -31,-30 -65,-56 -99,-82 -42,-34 -84,-67 -123,-105 -33,-32 -59,-66 -74,-110 14,49 41,87 76,124 64,67 139,122 202,190 34,36 63,77 84,121 19,39 34,82 35,125 0,0 0,0 0,0 2,-21 4,-43 5,-65 -2,25 -4,49 -5,74 0,-2 1,-4 2,-5 6,-13 14,-26 22,-37 18,-25 40,-47 63,-66 94,-76 207,-116 314,-168 97,-46 202,-98 263,-190 -36,49 -83,83 -136,112 -53,30 -108,54 -164,77 -59,24 -118,45 -175,71 -54,25 -105,56 -150,94 -11,10 -22,21 -33,32 1,-13 3,-27 4,-40 -5,-11 -11,-23 -17,-33z"/>
  <path class="fil0" d="M397 1209c36,40 76,78 108,122 57,76 104,164 118,259 3,-17 7,-34 10,-50 21,-53 67,-98 111,-132 101,-75 224,-103 343,-139 59,-18 118,-36 174,-62 25,-13 50,-28 71,-49 18,-18 32,-39 44,-62 -15,25 -32,49 -55,67 -26,21 -56,35 -87,47 -122,45 -253,61 -375,105 -60,21 -118,51 -167,92 -13,10 -25,21 -37,33 3,-12 6,-24 9,-36 -4,-10 -8,-20 -12,-31 -19,-42 -41,-84 -69,-121 -14,-18 -28,-36 -44,-53 -17,-17 -35,-34 -52,-52 -31,-36 -59,-75 -77,-119 -14,-34 -24,-75 -19,-113 -9,43 3,92 18,132 17,42 42,82 71,117 30,36 62,70 87,110 39,64 68,137 78,212 3,-16 7,-31 10,-45 -7,28 -13,58 -20,88 2,-7 4,-15 5,-23 -9,-23 -20,-46 -31,-68 -25,-48 -56,-93 -92,-133 -38,-42 -81,-78 -118,-119 -71,-77 -140,-167 -137,-276 -5,57 11,110 37,161 26,50 60,96 98,138z"/>
  <path class="fil0" d="M437 815c41,86 104,158 150,241 31,56 57,115 76,177 -19,-31 -42,-59 -69,-83 -29,-25 -62,-45 -89,-72 -31,-30 -56,-66 -73,-105 -16,-37 -24,-75 -30,-114 4,49 12,96 32,142 17,37 41,71 69,100 22,23 47,40 69,61 56,54 93,128 101,205 1,-3 2,-6 2,-9 -3,15 -7,30 -11,46 22,-43 51,-83 83,-119 55,-61 129,-111 209,-133 51,-14 104,-24 157,-26 25,-1 52,-1 76,5 17,5 40,18 35,40 8,-27 -25,-41 -45,-46 -29,-7 -59,-7 -89,-6 -92,2 -181,20 -262,65 -51,29 -97,67 -136,112 0,-1 1,-2 1,-3 4,-15 8,-29 12,-43 -7,-21 -15,-43 -24,-64 -37,-87 -85,-166 -144,-240 -36,-46 -71,-93 -98,-145 -14,-26 -25,-53 -33,-81 -5,-18 -10,-37 -9,-55 -2,22 3,45 8,67 8,28 19,56 32,83zm248 507l0 0c0,-1 0,-1 0,-2 2,-5 3,-10 4,-15 -1,6 -3,11 -4,17zm-6 24l0 0c2,-8 4,-15 6,-23 -2,8 -4,15 -6,23z"/>
  <path class="fil0" d="M721 1214c0,0 -1,-155 -159,-344 -158,-190 -102,-412 -102,-412 0,0 -24,138 51,260 75,122 217,247 225,410l-15 86z"/>
  <path class="fil0" d="M710 1238c0,0 31,-120 239,-156 207,-36 329,-25 385,9 0,0 -35,-40 -131,-54 -96,-14 -345,-13 -469,112l-24 89z"/>
  <path class="fil0" d="M1513 388c0,0 -80,23 -115,134 0,0 8,-62 -28,-173 -35,-110 -11,-256 72,-298 -98,-84 -278,-52 -377,23 -99,74 -124,74 -124,74 77,-65 73,-148 73,-148 -31,74 -86,94 -296,219 -211,125 -139,287 -139,287 -53,-81 -35,-195 -35,-195 -121,269 34,467 126,605 93,138 69,225 69,225 0,0 49,-63 170,-96 121,-33 191,-14 303,-37 112,-23 205,-104 245,-261 40,-158 -9,-269 56,-359z"/>
  <path class="fil1" d="M799 997c0,0 -10,26 -26,73 -16,46 -38,113 -60,194 -11,40 -23,85 -34,131 -11,47 -23,97 -33,148 -5,26 -10,52 -15,79 -5,27 -9,54 -13,81 -4,27 -8,55 -12,82 -3,28 -6,56 -9,84 -5,55 -10,111 -12,166 -1,14 -1,28 -2,41 0,14 0,27 0,41 -1,13 -1,27 -1,40 0,13 1,27 1,40 0,26 1,52 3,77 1,25 3,49 5,73 1,12 2,24 3,36 1,11 3,22 4,34 3,22 5,44 9,64 3,21 6,41 10,59 4,19 7,36 11,53 7,33 15,61 21,85 14,46 22,73 22,73l-43 14c0,0 -8,-27 -22,-75 -6,-25 -13,-54 -20,-88 -4,-17 -7,-35 -11,-54 -3,-19 -6,-40 -9,-61 -4,-21 -6,-43 -8,-66 -1,-11 -3,-23 -4,-35 -1,-11 -2,-23 -3,-36 -1,-24 -3,-49 -4,-75 -1,-25 -2,-51 -1,-78 0,-13 0,-27 0,-40 0,-14 0,-27 1,-41 0,-13 0,-27 1,-41 1,-14 1,-28 2,-42 3,-55 9,-112 15,-168 3,-28 7,-56 11,-84 4,-28 8,-55 13,-83 5,-27 9,-54 15,-81 5,-27 10,-53 16,-79 11,-52 23,-102 35,-149 12,-47 24,-91 36,-131 24,-82 47,-148 63,-195 17,-46 28,-73 28,-73l17 7z"/>
  <path class="fil2" d="M1015 231c0,0 -118,47 -225,146 -106,100 -141,195 -137,280 4,86 74,309 129,341 54,32 200,18 292,-7 92,-26 159,-84 182,-229 24,-145 26,-314 -13,-414 -40,-101 -67,-176 -228,-117z"/>
  <path class="fil3" d="M1003 287c0,0 -134,49 -225,159 -91,110 -88,172 -67,286 22,115 52,188 106,223 54,35 168,25 245,-12 77,-36 134,-103 148,-185 13,-81 30,-211 4,-328 -25,-117 -51,-138 -85,-156 -33,-17 -68,-3 -126,13z"/>
  <path class="fil4" d="M1036 414c0,0 -103,-25 -176,32 -73,58 -52,168 -25,211 26,43 127,86 191,89 64,2 102,-8 116,-64 15,-55 66,-208 -106,-268z"/>
  <path class="fil5" d="M1015 463c0,0 -100,-29 -146,34 -46,63 -25,102 23,106 47,4 80,-12 117,26 36,38 52,51 90,43 39,-8 70,-153 -84,-209z"/>
 </g>
</svg>
