<?xml version="1.0" encoding="UTF-8"?>
<!DOCTYPE svg PUBLIC "-//W3C//DTD SVG 1.1//EN" "http://www.w3.org/Graphics/SVG/1.1/DTD/svg11.dtd">
<!-- Creator: CorelDRAW X7 -->
<svg xmlns="http://www.w3.org/2000/svg" xml:space="preserve" width="2.01444in" height="4.99351in" version="1.1" style="shape-rendering:geometricPrecision; text-rendering:geometricPrecision; image-rendering:optimizeQuality; fill-rule:evenodd; clip-rule:evenodd"
viewBox="0 0 1132 2807"
 xmlns:xlink="http://www.w3.org/1999/xlink">
 <defs>
  <style type="text/css">
   <![CDATA[
    .fil3 {fill:#F8AB95;fill-rule:nonzero}
    .fil4 {fill:#F6EDDC;fill-rule:nonzero}
    .fil1 {fill:#E4D0A6;fill-rule:nonzero}
    .fil0 {fill:#B29957;fill-rule:nonzero}
    .fil2 {fill:#A95671;fill-rule:nonzero}
    .fil5 {fill:#6B5A38;fill-rule:nonzero}
   ]]>
  </style>
 </defs>
 <g id="__x0023_Layer_x0020_1">
  <metadata id="CorelCorpID_0Corel-Layer"/>
  <path class="fil0" d="M617 784c0,0 -9,-126 -77,-271 -68,-144 -100,-218 -92,-296 0,0 15,52 38,73 0,0 -11,-95 99,-172 109,-76 119,-104 119,-118 0,0 108,95 108,196 0,0 26,-52 -8,-112 0,0 55,24 82,99 27,75 -1,211 -100,320 -98,108 -154,177 -169,281z"/>
  <path class="fil1" d="M541 1581c18,-29 46,-61 81,-89 34,-35 75,-70 115,-91 109,-57 258,-130 303,-272 0,0 -57,48 -136,42 0,0 85,-19 108,-122 22,-95 -3,-141 -2,-177 -4,22 -23,84 -132,148 -117,70 -253,157 -323,318 -6,84 -11,165 -14,243z"/>
  <path class="fil2" d="M1010 864c0,3 0,5 0,8 0,-5 0,-8 0,-8z"/>
  <path class="fil3" d="M731 2520c0,0 -109,-31 -174,-97 2,29 5,57 8,83 34,16 95,36 166,14z"/>
  <path class="fil0" d="M733 2222c88,-130 159,-427 399,-484 0,0 -54,-44 -183,-34 -128,10 -208,120 -257,220 -42,86 -87,199 -150,264 3,68 7,131 11,189 33,-14 112,-55 180,-155z"/>
  <path class="fil2" d="M541 1581c0,1 0,2 0,3 18,-24 47,-58 81,-92 -35,28 -63,60 -81,89z"/>
  <path class="fil2" d="M541 1581c-2,3 -4,6 -5,9 1,-2 3,-4 5,-6 0,-1 0,-2 0,-3z"/>
  <path class="fil0" d="M758 1057c185,-131 207,-171 230,-214 22,-43 28,-79 56,-91 0,0 -85,-31 -219,11 -101,31 -196,143 -241,252 -9,84 -17,167 -24,247 29,-49 86,-126 198,-205z"/>
  <path class="fil3" d="M720 794c116,-91 240,-258 223,-436 0,0 -9,125 -129,198 -87,53 -152,101 -194,176 -11,78 -21,155 -30,229 22,-47 63,-114 130,-167z"/>
  <path class="fil3" d="M679 2318c-59,28 -99,54 -125,73 2,21 4,40 5,59 62,-21 272,-108 332,-338 0,0 -84,147 -212,206z"/>
  <path class="fil0" d="M1040 1129c0,0 -44,124 -188,192 -121,56 -252,104 -309,223 -1,24 -2,48 -3,72l195 -179c0,0 263,-98 305,-308z"/>
  <path class="fil3" d="M1116 1578c0,0 -35,-132 -214,-172 -101,-23 -206,24 -280,86 -34,34 -63,68 -81,92 -6,156 -7,299 -5,428l212 -358c0,0 225,-117 368,-76z"/>
  <path class="fil1" d="M1116 1578c0,0 -130,-62 -287,0 -128,50 -242,170 -294,344 1,89 3,172 6,248 28,-34 88,-118 156,-275 95,-216 315,-325 419,-317z"/>
  <path class="fil4" d="M667 1283c52,-43 114,-71 172,-103 57,-32 115,-64 166,-106 2,-8 5,-16 7,-25 8,-33 9,-60 9,-83 -4,8 -9,16 -14,24 -20,28 -46,51 -73,72 -50,40 -105,74 -160,108 -26,16 -53,33 -78,50 -27,18 -51,41 -73,64 -28,28 -52,62 -71,98 -1,17 -3,34 -4,52 27,-58 70,-111 119,-151z"/>
  <path class="fil1" d="M643 2231c49,-47 89,-101 124,-159 36,-60 66,-123 106,-180 35,-51 80,-101 137,-129 39,-18 80,-24 122,-25 -6,-4 -42,-29 -117,-34 -10,4 -19,8 -29,13 -122,67 -176,205 -235,323 -30,60 -68,118 -113,168 -22,25 -47,48 -73,68 -6,4 -12,8 -18,12 0,5 1,10 1,14 2,-1 4,-2 6,-3 32,-20 62,-42 89,-68z"/>
  <path class="fil3" d="M825 862c45,-31 95,-53 148,-67 13,-3 27,-6 40,-7 2,-5 4,-9 6,-12 -47,3 -91,12 -136,28 -104,36 -192,114 -259,200 -16,21 -31,42 -46,64 -6,58 -11,115 -16,171 32,-94 79,-184 141,-261 35,-44 75,-84 122,-116z"/>
  <path class="fil0" d="M557 2423c0,0 -51,66 -153,17 -102,-48 -224,-108 -305,14 0,0 60,-56 123,-18 64,38 119,62 205,67 86,5 122,-41 132,-53l-2 -27z"/>
  <path class="fil3" d="M567 2469c0,0 -39,127 -164,67 0,0 100,10 156,-101l8 34z"/>
  <path class="fil1" d="M559 2460c0,0 -153,-5 -229,-122 -76,-118 -154,-283 -330,-251 0,0 73,-38 160,-7 87,32 159,116 228,167 69,51 160,136 169,194 9,59 2,19 2,19z"/>
  <path class="fil3" d="M535 1905c-71,-204 -234,-282 -319,-340 -91,-63 -122,-129 -122,-129 0,0 -16,28 1,121 16,93 106,191 106,191 0,0 -24,-16 -68,-40 -44,-25 -51,-99 -51,-99 -69,231 153,498 306,619 153,122 160,207 160,207 0,0 3,-11 7,-31 -11,-136 -19,-303 -20,-499z"/>
  <path class="fil0" d="M413 2029c79,91 115,174 132,230 -5,-104 -9,-223 -10,-354 -71,-204 -234,-282 -319,-340 -91,-63 -122,-129 -122,-129 0,0 -16,28 1,121 16,93 106,191 106,191 0,0 -24,-16 -68,-40 -44,-25 -51,-99 -51,-99 -9,33 -13,66 -13,100 55,134 226,183 344,320z"/>
  <path class="fil1" d="M545 1497c-147,-31 -263,-240 -345,-280 -83,-41 -130,-22 -130,-22 28,7 54,72 63,154 10,82 76,182 240,319 122,103 154,212 162,261 -1,-131 2,-276 10,-432z"/>
  <path class="fil3" d="M396 1620c-119,-95 -220,-222 -266,-297 1,8 2,17 3,26 10,82 76,182 240,319 122,103 154,212 162,261 0,-39 0,-79 0,-121 -20,-53 -61,-127 -139,-188z"/>
  <path class="fil0" d="M555 1326l0 -15 -256 -225 -166 -133c0,0 27,75 65,121 38,46 84,141 155,260 58,95 155,144 192,161 3,-55 6,-111 10,-169z"/>
  <path class="fil3" d="M402 878c-137,-41 -204,4 -204,4 122,54 157,183 157,183 -84,-129 -222,-112 -222,-112 28,61 109,144 261,253 95,68 137,148 156,197 7,-100 15,-204 26,-313 -23,-72 -74,-182 -174,-212z"/>
  <path class="fil1" d="M352 601c-94,-33 -101,-95 -101,-95 -16,88 7,235 166,345 112,76 150,166 162,212 5,-49 11,-99 17,-150 -11,-194 -160,-282 -244,-312z"/>
  <path class="fil0" d="M597 915c0,0 23,-132 -83,-251 -106,-119 -187,-222 -157,-369 0,0 -1,48 54,97 55,48 185,195 202,391l-16 132z"/>
  <path class="fil3" d="M605 386c48,103 40,187 40,187 0,0 22,-68 113,-153 82,-77 116,-203 96,-295 -24,-30 -50,-41 -50,-41 34,60 8,112 8,112 0,-101 -108,-196 -108,-196 0,14 -10,41 -114,115 -50,82 -28,176 15,271z"/>
  <path class="fil1" d="M315 1777c62,45 116,100 161,162 22,30 43,62 61,95 -1,-12 -1,-24 -1,-37 -14,-29 -30,-58 -47,-86 -43,-68 -95,-127 -155,-179 -24,-21 -50,-39 -75,-59 -11,-8 -20,-17 -30,-26 -51,-48 -93,-107 -128,-168 -4,-7 -8,-14 -12,-22 -3,18 -3,49 6,100 4,23 13,47 24,69 23,25 48,49 76,70 38,29 81,52 120,81z"/>
  <path class="fil0" d="M462 1076c33,43 60,90 81,139 6,16 12,31 17,47 2,-16 3,-32 4,-48 -1,-5 -2,-10 -4,-15 -36,-113 -102,-214 -197,-287 -26,-20 -54,-37 -83,-51 -55,3 -82,21 -82,21 27,12 50,28 70,45 76,32 143,84 194,149z"/>
  <path class="fil0" d="M647 268c12,28 28,53 43,79 23,-15 43,-31 59,-53 31,-43 47,-99 46,-152 0,-7 -1,-15 -1,-22 -7,-14 -14,-28 -22,-40 1,30 -1,59 -6,88 -8,45 -29,96 -65,127 -5,-8 -9,-16 -14,-24 -30,-62 -42,-131 -40,-200 -6,5 -13,11 -21,17 -1,4 -1,8 -1,11 -6,56 1,117 22,169z"/>
  <path class="fil5" d="M593 2807c0,0 -2,-9 -5,-25 -3,-16 -7,-41 -11,-71 -4,-31 -10,-68 -14,-111 -6,-43 -10,-91 -15,-144 -2,-27 -4,-54 -6,-83 -1,-14 -2,-29 -3,-43 -1,-15 -1,-30 -2,-45 -2,-31 -3,-62 -5,-94 -1,-32 -2,-64 -3,-97 0,-17 0,-34 -1,-50 0,-17 0,-34 0,-51 0,-34 -1,-69 -1,-104 0,-17 0,-34 1,-52 0,-18 1,-35 1,-53 1,-35 1,-70 2,-106 3,-70 6,-141 10,-210 5,-70 10,-138 15,-204 7,-66 13,-130 19,-190 3,-30 7,-59 10,-88 4,-28 7,-55 11,-82 7,-52 12,-101 19,-143 7,-42 13,-80 18,-110 9,-61 15,-96 15,-96 0,0 -5,35 -14,96 -5,31 -10,68 -16,110 -7,43 -12,91 -18,144 -3,26 -6,53 -10,82 -3,28 -7,57 -9,88 -5,60 -11,124 -17,190 -4,66 -8,134 -12,203 -3,70 -5,140 -7,211 -1,35 -1,70 -1,106 -1,17 -1,35 -1,52 0,18 0,35 0,52 1,35 1,69 2,104 0,17 0,33 1,50 1,17 1,34 2,50 1,33 2,66 4,97 2,32 4,63 6,93 0,16 1,31 2,45 2,15 3,29 4,43 2,29 5,56 7,83 6,52 10,100 16,143 5,43 11,79 15,110 5,30 9,54 12,70 3,16 5,25 5,25l-26 5z"/>
 </g>
</svg>
