<?xml version="1.0" encoding="UTF-8"?>
<!DOCTYPE svg PUBLIC "-//W3C//DTD SVG 1.1//EN" "http://www.w3.org/Graphics/SVG/1.1/DTD/svg11.dtd">
<!-- Creator: CorelDRAW X7 -->
<svg xmlns="http://www.w3.org/2000/svg" xml:space="preserve" width="1.47848in" height="5.02216in" version="1.1" style="shape-rendering:geometricPrecision; text-rendering:geometricPrecision; image-rendering:optimizeQuality; fill-rule:evenodd; clip-rule:evenodd"
viewBox="0 0 147 499"
 xmlns:xlink="http://www.w3.org/1999/xlink">
 <defs>
  <style type="text/css">
   <![CDATA[
    .fil0 {fill:#F8AB95;fill-rule:nonzero}
    .fil1 {fill:#F6EDDC;fill-rule:nonzero}
    .fil2 {fill:#E4D0A6;fill-rule:nonzero}
    .fil3 {fill:#B29957;fill-rule:nonzero}
    .fil4 {fill:#433E40;fill-rule:nonzero}
    .fil5 {fill:#2F2E2E;fill-rule:nonzero}
   ]]>
  </style>
 </defs>
 <g id="__x0023_Layer_x0020_1">
  <metadata id="CorelCorpID_0Corel-Layer"/>
  <path class="fil0" d="M72 461c0,0 50,-20 69,-51 0,0 -10,5 -18,8 0,0 15,-13 15,-15 1,-2 -2,-17 0,-28 2,-11 3,-29 1,-34 0,0 -24,14 -28,18 0,0 14,-15 26,-21 0,0 4,-20 3,-46 0,-26 2,-44 4,-56 2,-12 1,-15 1,-15 0,0 -12,2 -16,6 0,0 5,-5 12,-9 7,-3 3,-30 3,-30 0,0 -3,0 -10,2 0,0 8,-5 10,-7 1,-1 2,-21 1,-34 -1,-14 -1,-24 1,-34 2,-10 1,-26 -2,-34 0,0 -28,5 -37,5 0,0 25,-11 38,-13 0,0 0,-12 -3,-26 -3,-15 -1,-19 -2,-26 -2,-7 -5,-17 -16,-19 -11,-3 -48,-3 -67,5 0,0 0,8 3,13 0,0 -7,-8 -7,-16 0,0 -21,4 -27,22 -6,17 -8,31 -13,36 0,0 6,12 12,16 0,0 -12,-2 -15,-7 0,0 -3,12 -2,26 0,14 -5,20 -6,27 -2,6 -3,15 -1,26 2,12 -2,28 1,33 3,5 18,7 22,7 0,0 -12,5 -22,1 0,0 1,5 -1,16 -2,10 1,26 3,35 2,9 2,18 -1,31 -2,13 0,31 1,35 1,5 13,8 13,8l-14 0c0,0 2,6 2,12 -1,5 -2,12 -2,12 0,0 2,7 15,13 0,0 -11,-3 -16,-7 0,0 1,4 4,8 3,5 2,12 0,22 -1,9 -1,30 13,36 0,0 -10,-2 -12,-4 0,0 13,41 65,53z"/>
  <path class="fil1" d="M141 268c0,-4 0,-8 0,-11l-74 33 -63 -22c0,2 0,3 -1,5 0,1 0,2 0,3 14,5 64,22 64,22l74 -30z"/>
  <path class="fil2" d="M145 142c0,-2 0,-5 0,-8l-76 19 -68 -25c-1,3 -1,7 -1,11l68 26 77 -23z"/>
  <path class="fil3" d="M145 123c0,-3 0,-6 1,-8 0,-1 0,-1 0,-1l-76 20 -63 -26c-1,4 -2,7 -3,9l65 26 76 -20z"/>
  <path class="fil4" d="M140 279c0,-4 1,-7 1,-11l-74 30c0,0 -50,-17 -64,-22 -1,4 -1,8 -1,12 13,5 64,22 65,22 1,0 61,-25 73,-31z"/>
  <path class="fil4" d="M141 257c1,-3 1,-5 1,-8l-74 29 -63 -20c0,3 0,6 -1,10l63 22 74 -33z"/>
  <path class="fil4" d="M137 387c0,-4 0,-8 1,-11l-68 33 -64 -32c0,4 0,8 0,13l65 29 66 -32z"/>
  <path class="fil4" d="M145 153c0,-1 0,-3 0,-4 0,-2 0,-4 0,-7l-77 23 -68 -26c0,3 0,7 1,10l67 27 77 -23z"/>
  <path class="fil4" d="M145 134c0,-4 0,-7 0,-11l-76 20 -65 -26c-1,3 -2,5 -2,7 -1,1 -1,2 -1,4l68 25 76 -19z"/>
  <path class="fil4" d="M146 114c1,-3 1,-6 1,-8l-77 17 -63 -28c1,1 1,1 1,2 0,4 -1,8 -1,11l63 26 76 -20z"/>
  <path class="fil3" d="M144 57c0,-4 -1,-7 -2,-10 -2,-12 -2,-17 -2,-22l-62 15 -46 -23c-3,2 -4,5 -6,9 -3,9 -5,17 -7,23l55 27 70 -19z"/>
  <path class="fil4" d="M140 25c0,-1 0,-3 0,-4 -2,-7 -5,-17 -16,-19 -11,-3 -48,-3 -67,5 0,0 0,8 3,13 0,0 -7,-8 -7,-16 0,0 -13,3 -21,13l46 23 62 -15z"/>
  <path class="fil5" d="M70 499c0,0 -1,-29 -2,-72 -1,-10 -1,-22 -1,-34 0,-13 -1,-26 -1,-39 0,-14 0,-28 0,-42 0,-14 -1,-28 0,-42 0,-15 0,-29 0,-43 0,-14 0,-28 1,-42 0,-7 0,-13 0,-20 1,-6 1,-12 1,-19 1,-6 1,-12 1,-17 1,-6 1,-12 1,-17 1,-6 1,-11 1,-16 1,-5 1,-9 2,-14 0,-4 1,-8 1,-12 0,-2 1,-3 1,-5 0,-2 0,-3 1,-5 1,-12 3,-19 3,-19 0,0 -1,7 -3,19 0,2 -1,3 -1,5 0,2 0,3 0,5 -1,4 -1,8 -1,13 -1,4 -1,9 -2,13 0,5 0,10 -1,16 0,5 0,11 0,17 -1,5 -1,11 -1,18 0,6 -1,12 -1,18 0,7 0,14 0,20 0,14 0,28 0,42 0,14 0,28 0,43 0,14 1,28 1,42 0,14 0,28 1,42 0,13 1,26 1,38 1,13 1,24 1,35 2,43 4,72 4,72l-7 0z"/>
 </g>
</svg>
