<?xml version="1.0" encoding="UTF-8"?>
<!DOCTYPE svg PUBLIC "-//W3C//DTD SVG 1.1//EN" "http://www.w3.org/Graphics/SVG/1.1/DTD/svg11.dtd">
<!-- Creator: CorelDRAW X7 -->
<svg xmlns="http://www.w3.org/2000/svg" xml:space="preserve" width="1.5579in" height="4.02935in" version="1.1" style="shape-rendering:geometricPrecision; text-rendering:geometricPrecision; image-rendering:optimizeQuality; fill-rule:evenodd; clip-rule:evenodd"
viewBox="0 0 291 751"
 xmlns:xlink="http://www.w3.org/1999/xlink">
 <defs>
  <style type="text/css">
   <![CDATA[
    .fil2 {fill:#E4D0A6;fill-rule:nonzero}
    .fil1 {fill:#B29957;fill-rule:nonzero}
    .fil0 {fill:#A5C1B1;fill-rule:nonzero}
    .fil3 {fill:#433E40;fill-rule:nonzero}
    .fil4 {fill:#2F2E2E;fill-rule:nonzero}
   ]]>
  </style>
 </defs>
 <g id="__x0023_Layer_x0020_1">
  <metadata id="CorelCorpID_0Corel-Layer"/>
  <path class="fil0" d="M291 103c0,0 -14,13 -17,18 0,0 -1,-3 5,-13 7,-11 9,-28 8,-39 -1,-12 -6,-25 -14,-31 0,0 1,6 1,10 0,0 -29,-36 -103,-42 0,0 4,13 -4,25 0,0 -1,-19 -4,-26 0,0 -37,-8 -72,-4 -34,5 -58,18 -60,29 -2,-9 2,-18 2,-18 -12,7 -23,40 -21,62 2,23 0,36 -6,75 -5,38 0,56 3,65 3,9 8,18 8,18 -8,-7 -17,-5 -17,-5 17,11 17,65 18,122 2,57 20,84 20,84l-12 -5c9,10 18,48 21,92 4,45 15,53 15,53 -11,-7 -20,-6 -20,-6 10,3 13,13 34,62 22,50 47,64 47,64l4 0c0,0 22,-20 37,-69 16,-49 19,-65 24,-88 6,-23 23,-37 23,-37 0,0 -14,-1 -20,4 0,0 13,-15 24,-40 11,-25 23,-56 26,-81 3,-26 9,-78 28,-88 0,0 -7,-2 -15,0 0,0 21,-22 23,-50 0,0 -10,4 -15,6 0,0 11,-9 20,-34 9,-25 6,-44 4,-61 -2,-17 -1,-43 5,-52z"/>
  <path class="fil1" d="M33 12c-2,1 -4,3 -5,5l3 1c1,-4 2,-6 2,-6z"/>
  <path class="fil2" d="M15 276l249 22c1,-1 3,-3 5,-4 0,0 -7,-2 -15,0 0,0 4,-4 8,-10l-248 -20c1,4 1,8 1,12z"/>
  <path class="fil2" d="M17 299l236 20c1,-4 2,-7 4,-10l-241 -21c1,4 1,7 1,11z"/>
  <path class="fil3" d="M14 264l248 20c1,-2 3,-5 5,-8l-255 -25c1,4 2,8 2,13z"/>
  <path class="fil3" d="M16 288l241 21c2,-4 4,-8 7,-11l-249 -22c1,4 1,8 1,12z"/>
  <path class="fil3" d="M17 311l233 16c1,-3 2,-5 3,-8l-236 -20c0,4 0,8 0,12z"/>
  <path class="fil2" d="M38 459l176 6c0,-1 0,-1 1,-2 1,-3 3,-7 4,-10l-184 -6c1,3 2,8 3,12z"/>
  <path class="fil2" d="M38 433l-12 -5c2,3 4,6 6,11l190 6c2,-4 3,-8 5,-12l-193 -8c3,5 4,8 4,8z"/>
  <path class="fil3" d="M34 425l193 8c1,-3 3,-7 4,-11l-201 -7c1,4 3,7 4,10z"/>
  <path class="fil3" d="M35 447l184 6c1,-3 2,-6 3,-8l-190 -6c1,3 2,5 3,8z"/>
  <path class="fil3" d="M41 471l168 3c2,-3 3,-6 5,-9l-176 -6c1,4 2,8 3,12z"/>
  <path class="fil2" d="M68 610l101 -1c2,-5 3,-9 4,-13l-110 1c1,4 3,8 5,13z"/>
  <path class="fil2" d="M76 629c1,2 2,3 2,4l84 0c1,-3 2,-6 2,-9 1,-2 2,-5 3,-7l-94 3c1,3 2,6 3,9z"/>
  <path class="fil3" d="M63 597l110 -1c2,-5 3,-10 4,-14l-121 0c2,4 4,9 7,15z"/>
  <path class="fil3" d="M73 620l94 -3c1,-3 2,-6 2,-8l-101 1c1,3 3,6 5,10z"/>
  <path class="fil3" d="M83 644l74 0c2,-3 3,-7 5,-11l-84 0c2,4 4,8 5,11z"/>
  <path class="fil4" d="M126 751c0,0 -1,-10 -2,-29 -1,-10 -1,-21 -2,-34 0,-13 -1,-28 -2,-44 0,-17 -1,-34 -1,-53 -1,-18 -1,-38 -2,-58 0,-10 0,-20 0,-31 0,-10 0,-21 0,-31 0,-6 0,-11 0,-16 0,-6 0,-11 0,-16 0,-11 0,-22 0,-33 1,-21 1,-43 2,-64 1,-21 2,-42 3,-62 1,-21 2,-40 3,-59 2,-18 4,-36 5,-52 2,-16 4,-30 6,-43 0,-7 1,-13 2,-19 1,-5 2,-10 3,-15 3,-19 4,-29 4,-29 0,0 -1,10 -4,29 -1,5 -2,10 -2,15 -1,6 -2,12 -3,19 -1,13 -3,27 -5,43 -1,17 -2,34 -4,53 -1,18 -2,38 -3,58 -1,20 -1,41 -2,62 0,21 -1,43 -1,64 0,11 0,22 0,33 0,5 0,10 0,16 0,5 0,10 0,16 1,10 1,21 1,31 0,11 0,21 1,31 0,20 1,40 1,58 1,19 2,36 3,52 1,16 1,31 2,44 1,13 2,25 2,34 2,19 2,30 2,30l-7 0z"/>
  <path class="fil3" d="M287 167l-279 -30c0,2 -1,5 -1,7l281 35c0,-4 0,-8 -1,-12z"/>
  <path class="fil3" d="M285 140l-273 -36c0,4 -1,8 -1,12l275 34c-1,-3 -1,-6 -1,-10z"/>
  <path class="fil3" d="M279 108c2,-2 3,-5 4,-7l-271 -31c0,1 0,3 0,4 1,3 1,6 1,9l262 33c1,-2 2,-5 4,-8z"/>
  <path class="fil3" d="M287 75l-272 -31c-1,3 -1,7 -2,10l274 30c0,-4 0,-7 0,-9z"/>
  <path class="fil3" d="M31 18l-3 -1c-2,2 -4,4 -5,7l7 1c0,-3 1,-5 1,-7z"/>
  <path class="fil3" d="M282 50l-242 -31c-3,2 -6,4 -7,6l252 33c-1,-3 -2,-6 -3,-8z"/>
  <path class="fil3" d="M163 5c0,0 -37,-8 -72,-4 -8,1 -16,3 -24,5l99 13c-1,-5 -2,-11 -3,-14z"/>
  <path class="fil3" d="M171 6c0,0 2,6 0,14l81 10c-16,-10 -43,-21 -81,-24z"/>
  <path class="fil3" d="M291 103c0,0 -13,12 -17,18l12 1c1,-8 2,-15 5,-19z"/>
  <path class="fil3" d="M274 121c0,-1 0,-2 0,-3l-1 2 1 1z"/>
  <path class="fil1" d="M286 117l-8 -1c-2,2 -3,4 -4,5 0,0 -1,-1 1,-5l-262 -33c0,7 0,14 -1,21l273 36c0,-8 0,-16 1,-23z"/>
  <path class="fil1" d="M273 38c0,0 1,6 1,10 0,0 -7,-8 -22,-18l-81 -10c0,4 -1,8 -4,11 0,0 0,-5 -1,-12l-99 -13c-11,4 -21,8 -27,13l242 31c-2,-5 -6,-9 -9,-12z"/>
  <path class="fil1" d="M287 69c0,-4 -1,-8 -2,-11l-252 -33c-1,2 -2,3 -2,5 -1,-2 -1,-3 -1,-5l-7 -1c-3,6 -6,12 -8,20l272 31c0,-2 0,-4 0,-6z"/>
  <path class="fil1" d="M286 155c0,-2 0,-3 0,-5l-275 -34c-1,6 -2,13 -3,21l279 30c0,-4 -1,-8 -1,-12z"/>
  <path class="fil1" d="M287 84l-274 -30c-1,6 -1,11 -1,16l271 31c2,-6 3,-12 4,-17z"/>
 </g>
</svg>
