<?xml version="1.0" encoding="UTF-8"?>
<!DOCTYPE svg PUBLIC "-//W3C//DTD SVG 1.1//EN" "http://www.w3.org/Graphics/SVG/1.1/DTD/svg11.dtd">
<!-- Creator: CorelDRAW X7 -->
<svg xmlns="http://www.w3.org/2000/svg" xml:space="preserve" width="2.08943in" height="4.78809in" version="1.1" style="shape-rendering:geometricPrecision; text-rendering:geometricPrecision; image-rendering:optimizeQuality; fill-rule:evenodd; clip-rule:evenodd"
viewBox="0 0 1154 2645"
 xmlns:xlink="http://www.w3.org/1999/xlink">
 <defs>
  <style type="text/css">
   <![CDATA[
    .fil0 {fill:#E4D0A6;fill-rule:nonzero}
    .fil1 {fill:#CBE8DE;fill-rule:nonzero}
    .fil4 {fill:#A36D5D;fill-rule:nonzero}
    .fil3 {fill:#B29957;fill-rule:nonzero}
    .fil2 {fill:#A5C1B1;fill-rule:nonzero}
    .fil6 {fill:#6B5A38;fill-rule:nonzero}
    .fil5 {fill:#433E40;fill-rule:nonzero}
   ]]>
  </style>
 </defs>
 <g id="__x0023_Layer_x0020_1">
  <metadata id="CorelCorpID_0Corel-Layer"/>
  <path class="fil0" d="M971 844l116 -84c4,-120 4,-255 67,-287 0,0 -56,-16 -86,21 0,0 79,-381 -262,-494 0,0 113,124 42,420 0,0 -29,-22 -54,-31 0,0 36,53 -9,151 -18,39 -41,88 -62,136l67 248 181 -80z"/>
  <path class="fil1" d="M998 1209c9,-27 18,-57 25,-90 0,0 -89,8 -140,-32 0,0 44,19 106,2 62,-18 88,-139 96,-268 1,-19 2,-40 2,-61l-116 84 -181 80 -67 -248c-34,76 -64,152 -65,186 0,0 -13,-41 -10,-80 0,0 -32,34 -55,134 -18,79 -39,150 -95,215l37 247 463 -169z"/>
  <path class="fil0" d="M901 1400c20,-21 62,-83 97,-191l-463 169 -37 -247c-15,17 -32,33 -52,50 -99,78 -199,197 -188,317 0,0 -18,-45 -74,-49 0,0 28,12 26,59 -1,12 -4,26 -9,42l93 295c0,0 121,-93 236,-110 71,-11 180,-37 262,-64 39,-108 80,-203 169,-232 0,0 -49,-16 -121,0 0,0 34,-14 61,-39z"/>
  <path class="fil2" d="M294 1845l-93 -295c-14,42 -43,94 -80,160 -51,90 -90,323 20,451 0,0 -51,-48 -141,-8 0,0 119,-20 178,196 0,0 -3,-57 218,-165 221,-108 244,-156 265,-217 0,0 -31,44 -130,29 0,0 131,-2 201,-163 23,-53 41,-109 60,-162 -82,27 -191,53 -262,64 -115,17 -236,110 -236,110z"/>
  <path class="fil3" d="M665 1695c-128,19 -298,22 -362,126l-30 82c10,-21 49,-86 197,-110 151,-25 266,-59 316,-105 7,-20 14,-40 21,-59 -18,21 -59,53 -142,66z"/>
  <path class="fil4" d="M273 1903c-2,4 -2,7 -2,7l2 -7z"/>
  <path class="fil5" d="M731 1250c-104,24 -153,61 -175,88l-27 49 -6 14c86,-91 268,-114 364,-137 63,-15 102,-59 122,-90 3,-11 6,-23 9,-35 -59,75 -127,72 -287,111z"/>
  <path class="fil4" d="M483 1465c-7,10 -9,17 -9,17l9 -17z"/>
  <path class="fil3" d="M887 1264c-96,23 -278,46 -364,137 -4,5 -9,9 -12,14l-28 50c17,-26 66,-76 183,-96 139,-23 258,-61 327,-145 6,-15 11,-32 16,-50 -20,31 -59,75 -122,90z"/>
  <path class="fil3" d="M954 815c-113,31 -143,72 -143,72l-11 27 -56 107c12,-20 51,-66 159,-102 107,-36 159,-87 184,-145 0,-14 1,-28 1,-42 -22,31 -62,64 -134,83z"/>
  <path class="fil3" d="M268 1905l14 -43 15 -33c0,0 35,-127 -39,-331 0,0 -18,-45 -74,-49 0,0 28,12 26,59 -1,19 -8,43 -20,70 4,39 18,79 48,147 42,99 30,180 30,180z"/>
  <path class="fil5" d="M529 1377c-3,6 -5,12 -8,18 0,4 0,6 0,6l8 -14 27 -49 0 -2c0,0 31,-40 13,-112 -14,-56 -28,-101 -22,-166 -11,21 -24,42 -40,62 -3,23 -3,56 8,93 20,65 33,120 14,164z"/>
  <path class="fil3" d="M494 1340c21,68 -15,127 -15,127 0,0 23,-34 42,-72 3,-6 5,-12 8,-18 19,-44 6,-99 -14,-164 -11,-37 -11,-70 -8,-93 -10,12 -21,24 -33,36 -14,66 1,125 20,184z"/>
  <path class="fil3" d="M739 1025l45 -83 23 -51c0,0 15,-26 -29,-108 -34,-65 -32,-134 -21,-183 -19,41 -40,87 -57,130 -7,56 6,103 31,163 34,78 8,132 8,132z"/>
  <path class="fil6" d="M174 2645c0,0 0,0 -1,-2 0,-1 0,-3 -1,-5 -1,-6 -3,-14 -5,-24 -3,-20 -7,-49 -10,-86 -2,-38 -4,-83 -2,-135 1,-13 1,-26 2,-40 2,-14 3,-28 4,-42 2,-30 8,-60 12,-91 2,-16 6,-32 9,-48 4,-16 7,-33 10,-50 4,-17 9,-33 13,-51 5,-17 9,-34 14,-52 6,-17 11,-35 17,-53 6,-17 11,-36 18,-53 7,-18 14,-36 21,-54 3,-10 7,-19 10,-28 3,-9 8,-18 12,-27 8,-18 16,-37 24,-55 4,-9 8,-19 12,-28 5,-9 10,-18 14,-27 9,-18 19,-37 28,-55 9,-18 19,-37 29,-55 40,-73 82,-146 125,-218 86,-145 177,-288 251,-427 37,-69 69,-138 95,-206 26,-67 44,-133 56,-195 11,-62 16,-120 17,-171 0,-13 0,-25 0,-37 0,-12 -1,-24 -2,-35 0,-22 -3,-42 -4,-61 -4,-36 -8,-65 -12,-84 -4,-20 -5,-30 -5,-30 0,0 2,10 5,30 4,19 9,48 13,84 2,19 5,39 6,61 0,11 1,23 2,35 0,12 0,24 0,37 0,51 -4,109 -15,172 -10,62 -28,129 -53,197 -25,68 -57,138 -93,209 -73,140 -162,284 -245,430 -43,73 -84,146 -123,219 -10,18 -18,37 -27,55 -9,18 -19,37 -27,55 -5,9 -10,18 -14,27 -4,9 -7,18 -11,28 -8,18 -16,36 -24,54 -3,9 -8,18 -11,27 -3,9 -7,18 -10,27 -7,19 -13,37 -20,54 -6,18 -11,36 -17,54 -5,17 -10,35 -16,52 -5,17 -8,34 -13,51 -4,17 -8,34 -12,50 -3,17 -6,33 -9,49 -3,16 -6,32 -8,47 -4,31 -9,61 -11,89 -1,15 -2,28 -3,42 -1,13 -1,26 -1,39 -2,51 0,95 3,131 3,36 7,64 11,83 2,9 3,16 4,21 1,2 1,4 2,5 0,2 0,2 0,2l-34 9z"/>
  <path class="fil5" d="M939 490l0 13 0 -1c1,-8 13,-61 59,-124 34,-47 46,-121 33,-189 -38,-77 -106,-150 -225,-189 0,0 84,92 62,306 8,18 22,37 40,66 29,45 32,95 31,118z"/>
 </g>
</svg>
