<?xml version="1.0" encoding="UTF-8"?>
<!DOCTYPE svg PUBLIC "-//W3C//DTD SVG 1.1//EN" "http://www.w3.org/Graphics/SVG/1.1/DTD/svg11.dtd">
<!-- Creator: CorelDRAW X7 -->
<svg xmlns="http://www.w3.org/2000/svg" xml:space="preserve" width="3.61001in" height="0.75163in" version="1.1" style="shape-rendering:geometricPrecision; text-rendering:geometricPrecision; image-rendering:optimizeQuality; fill-rule:evenodd; clip-rule:evenodd"
viewBox="0 0 1207 251"
 xmlns:xlink="http://www.w3.org/1999/xlink">
 <defs>
  <style type="text/css">
   <![CDATA[
    .fil2 {fill:#79A3A0;fill-rule:nonzero}
    .fil0 {fill:#97CABC;fill-rule:nonzero}
    .fil3 {fill:#EF6069;fill-rule:nonzero}
    .fil1 {fill:white;fill-rule:nonzero}
   ]]>
  </style>
 </defs>
 <g id="__x0023_Layer_x0020_1">
  <metadata id="CorelCorpID_0Corel-Layer"/>
  <path class="fil0" d="M1206 137c-5,-24 -31,-33 -53,-30 -27,3 -49,27 -73,39 -4,2 -10,5 -15,7 2,-4 3,-9 3,-13 6,-42 -42,-45 -64,-21 -14,16 -21,43 2,55 13,6 29,2 44,-4 -8,18 -29,30 -48,34 -31,5 -50,-20 -68,-40 -5,-6 -12,-11 -19,-15 8,-15 13,-31 12,-50 -4,-31 -40,-29 -62,-22 -4,1 -8,2 -12,4 0,3 0,7 0,10 20,-6 39,-4 52,11 8,11 7,29 1,44 -19,-6 -41,-2 -56,15 -10,11 -14,24 -8,38 6,14 29,-2 35,-7 9,-8 17,-16 25,-25 26,17 42,52 78,54 30,1 64,-26 80,-55 9,-5 17,-10 23,-14 33,-20 81,-53 107,-5 9,17 -2,28 -15,29 5,-4 8,-10 8,-17 0,-11 -9,-20 -20,-20 -1,0 -2,0 -4,0 0,0 1,0 1,0 -25,5 -37,38 -11,52 28,15 63,-29 57,-54zm-346 48l0 0c-13,-9 -4,-24 9,-26 11,-1 20,2 28,6 -6,10 -23,30 -37,20zm193 -28l0 0c-12,4 -24,5 -35,-1 -10,-5 -12,-19 -11,-29 2,-15 24,-9 32,-4 11,6 13,20 14,31 0,1 0,2 0,3z"/>
  <path class="fil0" d="M58 189c26,-14 14,-47 -11,-52 0,0 0,0 1,0 -2,0 -3,0 -4,0 -11,0 -21,9 -21,20 0,7 4,13 9,17 -13,-1 -24,-12 -15,-29 26,-48 74,-15 107,5 6,4 14,9 23,14 16,29 50,56 80,55 36,-2 52,-37 78,-53 8,8 16,17 25,24 6,5 29,22 35,7 6,-14 2,-27 -8,-38 -15,-17 -37,-21 -57,-15 -5,-15 -6,-33 2,-44 13,-15 32,-16 52,-10 0,-4 0,-7 0,-11 -4,-2 -8,-3 -12,-4 -22,-7 -58,-9 -62,22 -2,19 4,35 12,50 -7,4 -14,9 -19,15 -18,20 -37,46 -68,40 -19,-4 -40,-16 -48,-34 15,6 31,10 43,4 24,-11 17,-39 2,-55 -22,-24 -69,-21 -63,22 0,4 1,8 3,12 -5,-2 -11,-4 -15,-7 -24,-12 -46,-36 -73,-39 -22,-3 -48,6 -53,30 -6,25 29,69 57,54zm252 -26l0 0c8,-4 17,-6 28,-5 13,1 22,16 9,25 -14,10 -31,-10 -37,-20zm-156 -11l0 0c0,-11 3,-25 14,-31 8,-5 30,-10 32,4 1,10 -1,25 -11,30 -11,5 -23,4 -35,1 0,-1 0,-3 0,-4z"/>
  <path class="fil1" d="M937 45l4 -2 -13 -7 -2 -2 -1 0 -1 0 -1 0c-1,0 -1,0 -2,0l-1 0 0 0 -3 0c-2,1 -7,1 -11,1 -5,0 -7,-1 -7,-1 -4,-3 -10,-5 -15,-5 -2,0 -4,1 -5,1l-1 0c0,0 0,0 0,0l-11 -2 0 0 -1 0 1 2c0,0 0,0 -1,0 0,0 -1,0 -1,0 -3,0 -7,1 -11,4 -5,2 -20,10 -26,25 0,-2 -1,-4 -2,-5 0,-1 1,-2 1,-2l2 -1 -4 -7 -3 -5 -1 0c-1,-5 -4,-9 -9,-11 -3,-4 -7,-8 -14,-9 -1,-1 -3,-3 -4,-7 0,0 0,-1 0,-1l-1 0c0,0 0,0 0,0l0 0 1 -7 -9 0c-3,0 -5,1 -7,3 -2,1 -4,2 -6,4 -2,1 -4,2 -5,5 -2,1 -3,3 -4,6 -1,1 -2,3 -3,6 0,0 -1,1 -1,2 -1,1 -1,2 -2,4l0 3 -4 10 2 0 0 0 1 0c0,2 0,4 1,5 0,2 0,3 1,5 -1,-1 -2,-2 -3,-2 -1,-2 -3,-4 -6,-6 -1,-3 -3,-7 -6,-10 -1,-4 -3,-12 -6,-16l1 -6 -1 0 0 -5 -12 9 -2 1 -1 1 0 1 -1 1c0,1 -1,2 -2,4l0 0c-5,-5 -11,-9 -17,-13 -1,0 -2,-1 -3,-2l-1 0c-11,-6 -22,-10 -33,-10l-1 0 0 0c-5,0 -10,1 -15,2 -8,-4 -18,-6 -28,-6 -8,0 -16,2 -23,5 -1,0 -1,0 -2,-1 -2,0 -4,-1 -6,-1 -1,0 -2,0 -2,0 -1,0 -3,0 -4,0 0,0 0,0 0,0 -9,0 -19,2 -27,6 -6,4 -21,14 -26,27 -1,-1 -2,-2 -3,-3 -2,-3 -4,-5 -6,-6 -3,-3 -5,-4 -8,-5 -2,-2 -4,-3 -7,-3 -1,-1 -2,-1 -4,-2l-2 -5 -7 3 -1 0 -6 4 3 6c0,1 1,1 1,2 -1,8 -4,11 -5,12 -8,2 -13,9 -15,14 -6,4 -8,11 -9,17l0 0 -1 1 0 0 -1 4c-1,-3 -1,-6 -2,-7 1,-6 -2,-10 -4,-12l2 -1 0 -1 0 0 -7 -7 -2 -1c-2,-6 -9,-11 -14,-13 -1,0 -4,-3 -10,-13l-1 -2c-1,-1 -2,-2 -2,-2l-1 -1 0 -1 -1 -1 -3 -1 -13 -6 1 5 -1 0 2 7c-1,3 -1,8 -1,12 -2,2 -3,5 -3,7 -2,2 -3,4 -4,6 0,0 -1,1 -1,1l-2 -1 -3 9 0 1c-1,2 -2,5 -2,7 -2,-2 -4,-4 -6,-5 -2,-2 -5,-5 -8,-6 -3,-3 -6,-6 -11,-6 -2,-1 -5,-2 -9,-2 -1,0 -1,0 -2,0l0 0 -11 -2 1 3c-1,0 -2,0 -3,1 0,0 0,0 0,0 -2,0 -4,0 -6,1 -2,0 -4,-1 -6,-1 -1,0 -2,0 -3,1 -4,-2 -9,-4 -13,-4l-6 -5 0 1 -3 -3 0 15 -1 3 1 1 0 1 1 0c0,1 1,2 1,3l2 2c7,11 8,15 9,16 -1,6 1,14 6,20l1 2 2 9 1 0 0 0 2 -1c0,0 0,0 0,0 2,4 5,8 10,10 3,2 15,10 29,10 2,0 4,0 6,0 -2,1 -4,2 -5,4 0,0 -1,0 -1,0l-2 -1 -4 6 -4 6 1 0c-3,4 -5,9 -5,14 -2,4 -4,10 -1,16 0,2 0,4 -4,8 0,0 0,0 -1,0l1 1c-1,0 -1,0 -1,0l0 0 -2 1 -1 5c0,0 0,7 8,9 1,1 3,3 6,3 1,1 3,2 6,2 0,0 1,0 1,0 1,0 3,1 4,1 1,0 2,0 3,-1 1,1 1,1 2,1 2,0 3,-1 4,-1 1,0 2,0 3,0 2,0 3,0 5,-1l2 0 12 0 -3 -4 1 0 -1 -1c2,-1 3,-2 4,-3 2,-1 3,-2 4,-3 0,1 0,2 0,3 -1,2 -3,5 -2,9 -3,2 -5,5 -6,10 -3,3 -9,8 -11,12l-6 3 0 1 -3 2 13 5 2 2 1 0 1 0 1 0c1,0 1,0 2,0 0,0 1,0 2,0l3 0c5,-1 12,-2 18,-2 4,0 5,0 5,0 5,3 11,5 17,5 3,0 5,-1 8,-2l2 1 10 1 0 0 1 0 0 -3c0,0 1,0 2,0 0,0 0,0 0,0 3,0 9,-1 15,-6 5,-2 27,-15 30,-39l0 -1 0 0c0,-1 0,-7 -3,-16 2,2 3,3 5,5 2,6 4,12 7,17 4,7 8,12 14,17 1,0 2,1 2,2 6,4 13,7 21,10 4,1 8,1 12,1 3,7 9,11 13,14 1,1 2,2 3,2 13,8 28,12 43,12l1 0c2,0 4,0 6,0 12,-1 23,-5 33,-12 2,0 4,1 6,2 3,0 6,1 10,1 4,0 8,-1 12,-2 10,-3 18,-9 23,-17 5,-7 8,-15 8,-24 0,0 0,0 0,0 2,-2 4,-5 5,-8 5,-1 8,-4 12,-7 5,10 12,18 15,21 2,4 5,7 8,9l11 17 0 -6c2,2 3,3 5,4 3,3 6,6 10,6 3,3 6,4 8,4l-1 3 10 0 3 0c1,0 3,1 4,1 2,0 4,-1 6,-2 1,0 2,0 3,0 2,0 4,0 5,-1 0,0 1,0 1,0 3,0 5,-1 7,-3 4,0 7,-1 8,-3 4,-1 6,-3 7,-6 1,0 2,-1 3,-1l6 0 1 -7 0 -1 0 -8 -7 0c-1,0 -1,0 -2,0 -6,-4 -8,-9 -8,-11 2,-8 -2,-15 -6,-19 0,-8 -5,-13 -9,-16l0 -1 0 -1 0 0 -3 -3c3,1 5,2 7,3 2,1 5,2 9,2 1,0 2,0 3,0 0,0 0,0 0,0l0 2 1 0 0 0 9 -3 2 0c1,0 1,0 2,0 6,0 12,-3 16,-7 1,0 5,-1 17,-2l2 0c1,0 2,0 3,0l1 0 1 -1 1 1 2 -3 11 -8 -4 -1 0 -1 -6 -2c-3,-2 -7,-5 -10,-7 -1,-3 -3,-5 -5,-7 -1,-2 -2,-4 -3,-5 0,-1 0,-1 0,-2l2 -1 -7 -7c0,0 0,0 0,0l-1 -1c-1,-2 -3,-4 -5,-6 3,0 6,-1 8,-2 3,0 6,-1 9,-4 5,-1 8,-3 10,-6 2,-2 5,-5 7,-9l0 0 7 -9 -2 0c0,-1 0,-2 0,-3 1,-1 2,-4 2,-6 2,-2 4,-5 5,-8 3,-2 8,-6 10,-9l6 -3 0 0zm-476 100l0 0c0,0 -1,0 -3,0 -1,0 -3,0 -5,1 0,0 -1,0 -1,0 -6,0 -10,1 -14,4 -3,0 -7,2 -10,5 0,0 0,0 0,0 -1,1 -3,1 -4,2 3,-6 7,-15 8,-24 0,0 1,0 2,0 9,3 19,8 28,12 0,0 0,0 -1,0zm-73 -29l0 0c1,-1 1,-1 2,-2 0,0 1,1 1,1 -1,0 -2,0 -3,1zm380 3l0 0c2,-3 5,-8 4,-15 1,-3 2,-7 1,-11 0,0 0,0 0,0 0,-2 0,-3 0,-4 3,5 9,13 17,18 0,1 0,1 -1,2 -8,6 -16,13 -24,19 0,-1 0,-1 0,-1 1,-2 3,-5 3,-8zm47 35l0 0c-2,-3 -6,-5 -10,-5 -3,-3 -6,-4 -10,-4 -1,0 -2,0 -3,0 -2,-1 -4,-1 -7,-1 -2,0 -4,0 -6,1 8,-6 15,-12 22,-18 1,-1 2,-1 3,-2 -1,6 0,10 0,11l0 0 0 1c3,7 8,13 13,17 0,0 -1,0 -2,0zm-356 -68l0 0c0,1 1,1 1,2 -2,3 -1,8 1,12 -1,1 -1,3 -1,5 1,3 2,5 4,7 0,1 0,2 0,3 1,4 3,7 6,9 -9,-4 -17,-8 -26,-11 -1,0 -2,-1 -3,-1 5,-2 8,-5 9,-5l0 -1 0 0c6,-6 8,-13 9,-20zm368 -8l0 0c0,0 0,1 0,2 0,0 -1,1 -1,1 0,-1 0,-2 1,-3z"/>
  <path class="fil2" d="M495 94c0,-3 1,-7 2,-10 4,-18 8,-31 4,-49 -1,-4 -1,-6 -3,-9 0,15 -9,20 -9,20 -10,2 -11,13 -11,13 -10,2 -8,15 -8,15 -2,1 -3,3 -4,4 7,2 14,4 20,8 4,2 7,5 9,8z"/>
  <path class="fil2" d="M517 34c-2,-6 -6,-4 -6,-4 -3,-5 -7,-4 -7,-4 -3,-3 -5,-2 -5,-2 1,4 2,7 3,11 3,13 1,25 -1,37 6,-11 19,-17 32,-18 -1,-1 -1,-1 -1,-1 0,-8 -5,-7 -5,-7 -1,-8 -5,-7 -5,-7 -1,-6 -5,-5 -5,-5z"/>
  <path class="fil2" d="M501 73c-1,1 -1,1 -1,2 -1,3 -2,6 -2,9 -4,15 -2,29 2,43 1,-2 2,-4 3,-6 6,-10 16,-17 27,-22 3,-6 1,-9 2,-9 5,-9 2,-9 2,-9 4,-9 1,-11 1,-11 2,-7 -2,-9 -2,-9 1,-3 1,-5 0,-7 -12,2 -26,9 -32,19z"/>
  <path class="fil2" d="M500 129c2,5 4,10 5,14 0,0 0,0 -1,0 -2,-5 -3,-10 -5,-14l0 0c0,-1 0,-1 0,-1 -3,-10 -5,-21 -4,-32 -2,-4 -5,-7 -9,-9 -6,-4 -13,-6 -20,-8 -1,5 3,9 3,9 -6,4 0,11 0,11 -4,6 3,11 3,11 -4,5 7,12 7,12 -3,9 17,18 24,21 1,3 2,6 4,9 0,1 0,1 1,2 -21,-14 -43,-26 -67,-34 -2,-1 -4,-1 -6,-2 -1,-1 -1,-2 -2,-2 -2,-3 -3,-5 -4,-8 1,0 2,0 2,0 7,-2 14,-7 14,-7 12,-13 6,-33 6,-33 1,-5 -4,-9 -4,-9 0,0 1,4 0,-1 0,-2 -2,-4 -3,-5 -7,4 -14,8 -19,14 0,1 0,2 0,2 0,4 0,9 1,13 0,9 1,18 3,26 0,0 -1,0 -1,0 -2,-7 -2,-14 -3,-22 -8,-12 -17,-23 -28,-31 0,0 0,1 0,1 -3,3 -2,10 -2,10 -3,1 1,9 1,9 -2,1 2,6 2,6 -1,6 4,10 4,10 1,3 5,5 5,5 -1,1 0,2 0,2 6,9 15,10 20,10 0,3 1,5 2,8 0,0 1,0 1,0 -14,-4 -27,-8 -40,-14 0,0 -1,1 -1,1 -7,-6 -16,-11 -24,-15 -4,-2 -8,-4 -12,-6 -1,0 -1,-1 -2,-1 -8,3 -16,7 -22,13 0,1 1,3 3,5 5,3 1,1 1,1 0,0 2,5 7,7 0,0 17,14 35,8 0,0 8,-3 13,-10 12,6 24,12 36,16 2,1 4,1 5,2 -2,1 -4,2 -6,4 -6,-3 -21,-10 -25,-4 0,0 -9,-3 -10,2 0,0 -7,-2 -8,4 0,0 -8,0 -7,5 0,0 -4,0 -7,3 5,3 10,6 15,8 3,1 7,1 10,1 6,-6 13,-11 21,-14 0,0 0,0 0,0l0 0c4,-2 8,-3 11,-5 1,0 1,1 1,1 -4,1 -8,3 -11,4 -1,2 -2,4 -2,6 -3,8 -3,17 0,25 0,0 4,-1 4,-6 0,0 11,-16 10,-28l-1 -1c3,-1 6,-2 8,-3 1,0 2,0 2,0 25,9 52,22 65,32 1,0 2,1 3,2 0,1 -1,1 -2,1 -2,1 -4,2 -6,3 -4,-4 -14,-13 -28,-12 0,0 -3,1 -3,2 0,0 -4,-3 -8,0 0,0 -9,-1 -14,4 0,0 -8,0 -8,4 0,0 -11,2 -10,6 0,0 -7,5 -8,11 0,0 0,0 -1,1 18,4 37,3 56,1 8,-6 16,-12 24,-16 0,0 1,1 1,1 -11,5 -20,12 -29,19 -5,4 -9,7 -13,10 -1,1 -2,1 -2,2 -2,11 -1,21 2,31 2,1 5,0 8,-1 6,-3 1,-1 1,-1 0,0 7,2 12,-4 0,0 24,-11 28,-34 0,0 -1,-11 -6,-20 0,0 0,-1 -1,-2 1,0 2,-1 3,-1 2,-2 5,-2 7,-3 12,10 24,20 35,32 1,1 4,1 5,0 0,-1 0,-1 1,-2 1,0 1,-2 1,-3 0,0 0,0 0,0 -10,-11 -21,-20 -32,-29 -2,-2 -4,-4 -5,-7 -2,-2 -3,-6 -4,-9l1 0c13,-9 19,-33 19,-33 5,-5 3,-9 3,-9 -10,4 -19,11 -25,21 -2,2 -3,4 -4,7z"/>
  <path class="fil1" d="M501 72c2,-12 4,-24 1,-37 -1,-4 -2,-7 -3,-11 -1,-1 -1,-2 -2,-3l0 1c0,1 1,2 1,4 2,3 2,5 3,9 4,18 0,31 -4,49 -1,3 -2,7 -2,10 -2,-3 -5,-6 -9,-8 -6,-4 -13,-6 -20,-8 0,1 0,1 0,1 7,2 14,4 20,8 4,2 7,5 9,9 -1,11 1,22 4,32 0,0 0,0 0,1l0 0c2,4 3,9 5,14 1,0 1,0 1,0 -1,-4 -3,-9 -5,-14 1,-3 2,-5 4,-7 6,-10 15,-17 25,-21l0 -1c1,0 1,0 1,-1 -11,5 -21,12 -27,22 -1,2 -2,4 -3,6 -4,-14 -6,-28 -2,-43 0,-3 1,-6 2,-9 0,-1 0,-1 1,-2 6,-10 20,-17 32,-19 0,0 0,0 0,0 -13,1 -26,7 -32,18z"/>
  <path class="fil2" d="M448 198c-14,11 -31,18 -48,24 -2,1 -5,2 -7,3 1,1 2,1 4,1 5,-1 25,-5 31,-1 6,3 15,5 20,1 0,0 2,1 4,1 -3,-10 -4,-20 -2,-30 -1,0 -1,1 -2,1z"/>
  <path class="fil2" d="M448 197c0,0 1,-1 2,-1 0,-1 0,-1 0,-1l0 0c1,0 2,-1 2,-1 5,-4 9,-7 13,-10 1,-1 2,-2 3,-3 -18,2 -37,3 -54,-1 -2,2 -4,6 -3,11 0,0 -3,3 -2,9 0,0 -6,6 -6,11 0,0 -10,8 -12,13 0,0 1,0 1,1 3,-1 5,-2 8,-3 17,-7 33,-14 48,-25z"/>
  <path class="fil1" d="M453 194c4,-3 8,-6 13,-10 9,-7 18,-14 29,-19 0,0 -1,-1 -1,-1 -8,4 -16,10 -24,16 -19,2 -38,3 -56,-1 0,0 0,0 0,1 17,4 36,3 54,1 -1,1 -2,2 -3,3 -4,3 -8,6 -13,10 0,0 -1,1 -2,1l0 0c0,0 0,0 0,1 -1,0 -2,1 -2,1 -15,11 -31,18 -48,25 -3,1 -5,2 -8,3 0,0 1,0 1,0 2,-1 5,-2 7,-3 17,-6 34,-13 48,-24 1,0 1,-1 2,-1 -2,10 -1,20 2,30 0,0 0,0 1,0 -3,-10 -4,-20 -2,-31 0,-1 1,-1 2,-2z"/>
  <path class="fil2" d="M385 153c1,-3 3,-5 5,-7 -3,1 -6,0 -9,-1 -6,-1 -11,-4 -15,-7 -1,1 -1,2 -1,4 0,0 -8,5 -5,12 0,0 -5,7 -2,13 0,0 2,8 -7,16 3,-1 5,-2 7,-3 13,-7 19,-16 27,-27z"/>
  <path class="fil2" d="M380 161c-6,8 -12,15 -21,20 -3,1 -6,2 -8,3 0,1 0,2 4,2 0,0 1,4 5,3 0,0 1,3 6,1 0,0 1,3 5,0 0,0 1,3 7,0 0,0 2,3 6,-1 0,0 0,0 1,0 -5,-8 -8,-19 -5,-28z"/>
  <path class="fil2" d="M410 137c0,-1 1,-3 2,-4 -10,4 -20,11 -27,20 -1,2 -3,4 -4,6l0 0c0,1 0,1 0,1 -3,10 0,21 5,29 1,0 2,-1 4,-3 0,0 3,1 6,-4 0,0 3,1 6,-6 0,0 2,2 4,-6 0,0 3,-1 5,-5 -3,-9 -4,-19 -1,-28z"/>
  <path class="fil1" d="M411 138c0,-2 1,-4 2,-6 3,-1 7,-3 11,-4 0,0 0,-1 -1,-1 -3,2 -7,3 -11,5l0 0c0,0 0,0 0,0 -8,3 -15,8 -21,14 -3,0 -7,0 -10,-1 -5,-2 -10,-5 -15,-8 0,0 0,0 0,1 4,3 9,6 15,7 3,1 6,2 9,1 -2,2 -4,4 -5,7 -8,11 -14,20 -27,27 -2,1 -4,2 -7,3 -1,1 -2,1 -3,1l0 1c1,0 2,-1 3,-1 2,-1 5,-2 8,-3 9,-5 15,-12 21,-20 -3,9 0,20 5,28 0,0 1,0 1,0 -5,-8 -8,-19 -5,-29 0,0 0,0 0,-1l0 0c1,-2 3,-4 4,-6 7,-9 17,-16 27,-20 -1,1 -2,3 -2,4 -3,9 -2,19 1,28 0,-1 0,-1 0,-2l0 0c-3,-8 -3,-17 0,-25z"/>
  <path class="fil2" d="M425 65c0,0 0,1 0,1 5,-6 11,-10 18,-14 -1,-1 -2,-1 -2,-1 -1,-5 -6,-9 -11,-11 -5,-2 -12,-15 -14,-18 -1,-1 -2,-2 -3,-2 1,2 1,3 2,5 5,13 9,26 10,40z"/>
  <path class="fil2" d="M425 82c0,-4 -1,-9 -1,-13 0,0 0,-1 0,-2l0 0c0,0 0,0 0,0 0,-1 0,-1 0,-2 -1,-14 -5,-27 -10,-39 0,-3 -1,-5 -2,-7 0,0 -1,0 -1,0 -1,4 -1,14 -1,14 -3,2 -3,8 -3,8 -4,2 -5,6 -5,6 -3,2 -4,5 -5,7 11,8 20,19 28,31 0,-1 0,-2 0,-3z"/>
  <path class="fil1" d="M428 108c0,0 1,0 1,0 -2,-8 -3,-17 -3,-26 -1,-4 -1,-9 -1,-13 0,0 0,-1 0,-2 5,-6 12,-10 19,-14 0,0 0,0 -1,-1 -7,4 -13,8 -18,14 0,0 0,-1 0,-1 -1,-14 -5,-27 -10,-40 -1,-2 -1,-3 -2,-5 0,0 0,-1 -1,-1 1,2 2,4 2,7 5,12 9,25 10,39 0,1 0,1 0,2 0,0 0,0 0,0l0 0c0,1 0,2 0,2 0,4 1,9 1,13 0,1 0,2 0,3 -8,-12 -17,-23 -28,-31 0,1 0,1 0,1 11,8 20,19 28,31 1,8 1,15 3,22z"/>
  <path class="fil2" d="M350 81c0,-1 -1,-1 -1,-1 -14,-7 -24,-17 -35,-27 -2,-1 -3,-3 -5,-4 0,1 1,2 1,3 3,3 12,16 12,22 -1,6 1,13 6,16 0,0 0,1 0,3 7,-5 14,-10 22,-12z"/>
  <path class="fil2" d="M390 102c2,-4 5,-15 -1,-26 0,0 -1,-1 -2,0 0,0 0,-5 -3,-7 0,0 -2,-7 -7,-8 0,0 -4,-7 -7,-5 0,0 -5,-7 -8,-5 0,0 -5,-4 -10,-2 0,0 -1,-1 -1,-1 3,15 10,28 18,42 7,3 14,7 21,12z"/>
  <path class="fil2" d="M349 79c1,1 1,1 2,1 0,0 0,0 0,0l0 0c1,1 2,1 2,1 4,2 8,4 12,6 1,1 2,1 3,2 -8,-13 -15,-26 -18,-41 -2,0 -6,0 -9,2 0,0 -4,-1 -8,2 0,0 -6,-3 -10,-1 0,0 -9,-4 -13,-4 0,0 -1,0 -1,1 2,1 4,3 6,5 10,10 21,19 34,26z"/>
  <path class="fil1" d="M351 81c1,0 1,1 2,1 4,2 8,4 12,6 8,4 17,9 24,15 0,0 1,-1 1,-1 0,0 0,0 0,0 -7,-5 -14,-9 -21,-12 -8,-14 -15,-27 -18,-42 0,0 0,0 -1,0 3,15 10,28 18,41 -1,-1 -2,-1 -3,-2 -4,-2 -8,-4 -12,-6 0,0 -1,0 -2,-1l0 0c0,0 0,0 0,0 -1,0 -1,0 -2,-1 -13,-7 -24,-16 -34,-26 -2,-2 -4,-4 -6,-5 0,0 0,1 0,1 2,1 3,3 5,4 11,10 21,20 35,27 0,0 1,0 1,1 -8,2 -15,7 -22,12 0,0 0,0 1,1 6,-6 14,-10 22,-13z"/>
  <path class="fil2" d="M792 181c3,2 6,4 8,7 14,12 24,22 41,28 3,1 6,2 10,2 -14,-8 -13,-18 -13,-18 3,-10 -6,-16 -6,-16 2,-10 -9,-15 -9,-15 -1,-2 -2,-4 -3,-5 -4,5 -10,10 -16,14 -4,2 -8,3 -12,3z"/>
  <path class="fil2" d="M834 230c7,1 7,-3 7,-3 5,0 6,-4 6,-4 4,-2 5,-3 4,-4 -3,0 -7,-1 -10,-2 -14,-5 -23,-12 -32,-20 6,11 5,25 0,37 1,0 2,0 2,0 5,4 8,-1 8,-1 7,3 8,-1 8,-1 6,2 7,-2 7,-2z"/>
  <path class="fil2" d="M808 196c0,0 -1,0 -1,-1 -2,-2 -5,-4 -7,-7 -11,-10 -25,-15 -39,-19 2,2 3,4 4,6 6,10 7,22 6,34 3,6 7,6 7,6 5,9 7,6 7,6 6,9 9,7 9,7 4,5 8,3 8,3 3,2 5,3 6,3 5,-12 6,-26 0,-38z"/>
  <path class="fil2" d="M760 169c-5,-1 -10,-2 -16,-3 0,0 1,0 1,-1 5,1 10,2 15,3l0 0c1,0 1,0 1,0 10,3 21,6 30,12 4,0 8,-1 12,-3 7,-4 12,-9 17,-14 -4,-3 -9,-2 -9,-2 -1,-6 -10,-5 -10,-5 -3,-6 -11,-3 -11,-3 -3,-5 -14,1 -14,1 -6,-7 -24,5 -29,10 -4,-1 -7,-1 -11,-1 0,0 -1,0 -2,0 23,-11 44,-25 63,-41 1,-2 3,-3 4,-5 1,0 2,0 3,0 3,-1 6,-1 9,0 -1,1 -1,1 -1,1 -2,8 -1,16 -1,16 6,17 26,22 26,22 4,3 9,1 9,1 0,0 -3,-1 1,0 3,1 5,1 7,0 0,-8 -1,-16 -3,-23 -1,-1 -2,-1 -2,-1 -4,-2 -8,-4 -11,-6 -8,-4 -17,-8 -25,-10 0,0 0,-1 0,-1 7,2 14,5 21,8 14,-1 28,-3 41,-9 0,0 -1,0 -1,0 -1,-5 -7,-7 -7,-7 0,-3 -9,-3 -9,-3 0,-3 -6,-2 -6,-2 -5,-3 -11,-1 -11,-1 -3,-1 -6,2 -6,2 -1,-2 -2,-2 -2,-2 -11,2 -17,9 -19,13 -2,-1 -5,-1 -8,-1 0,0 0,0 0,0 10,-10 20,-20 32,-28 -1,-1 -1,-1 -1,-1 9,-4 17,-9 25,-14 4,-2 7,-5 11,-7 1,-1 1,-1 2,-2 2,-8 2,-17 0,-25 -2,-1 -4,-1 -6,0 -5,2 -2,1 -2,1 0,0 -5,-2 -10,2 0,0 -20,8 -24,27 0,0 0,8 3,16 -11,7 -22,14 -32,23 -1,1 -3,3 -4,4 0,-3 0,-5 0,-8 5,-3 19,-13 15,-19 0,0 7,-7 4,-10 0,0 5,-6 0,-9 0,0 4,-7 -1,-9 0,0 2,-3 1,-7 -5,2 -10,5 -14,9 -3,2 -5,5 -6,8 2,9 3,17 2,26 0,0 0,0 0,0l0 0c-1,4 -1,8 -2,12 0,0 -1,0 -1,0 1,-4 2,-8 2,-12 -1,-2 -2,-3 -4,-5 -6,-6 -14,-10 -22,-12 0,0 -1,4 3,7 0,0 9,17 20,22l1 0c0,3 -1,6 -2,8 0,1 0,2 0,2 -20,17 -45,34 -60,41 -1,0 -2,1 -4,1 0,0 1,-1 1,-2 0,-2 0,-5 0,-7 6,-1 18,-5 24,-19 0,0 1,-2 0,-3 0,0 5,-2 4,-7 0,0 6,-7 3,-13 0,0 4,-8 0,-10 0,0 4,-10 0,-12 0,0 0,-8 -5,-12 0,0 0,0 0,-1 -13,14 -21,30 -29,48 2,10 2,19 2,29 0,0 -1,0 -1,0 1,-11 -1,-23 -2,-35 -1,-5 -2,-11 -3,-16 0,-1 0,-2 0,-3 -9,-6 -18,-10 -29,-13 -1,2 -2,4 -2,7 -1,7 0,2 0,2 0,0 -5,5 -3,12 0,0 -2,27 17,41 0,0 9,5 20,5 0,0 1,0 2,0 0,1 0,3 0,4 -1,2 -1,4 -2,7 -14,6 -29,11 -44,15 -2,0 -3,2 -3,4 0,0 1,1 1,1 0,1 1,2 2,3 0,0 0,1 1,0 14,-3 27,-8 40,-14 3,0 6,0 8,-1 4,0 7,1 10,1l0 1c2,16 19,34 19,34 2,6 7,7 7,7 1,-11 -1,-23 -6,-33 -1,-2 -2,-4 -4,-6z"/>
  <path class="fil1" d="M809 197c9,8 18,15 32,20 3,1 7,2 10,2 1,0 2,0 4,0l0 -1c-2,0 -3,0 -4,0 -4,0 -7,-1 -10,-2 -17,-6 -27,-16 -41,-28 -2,-3 -5,-5 -8,-7 4,0 8,-1 12,-3 6,-4 12,-9 16,-14 0,0 0,-1 0,-1 -5,5 -10,10 -17,14 -4,2 -8,3 -12,3 -9,-6 -20,-9 -30,-12 0,0 0,0 -1,0l0 0c-5,-1 -10,-2 -15,-3 0,1 -1,1 -1,1 6,1 11,2 16,3 2,2 3,4 4,6 5,10 7,22 6,33l0 0c0,0 1,1 1,1 1,-12 0,-24 -6,-34 -1,-2 -2,-4 -4,-6 14,4 28,9 39,19 2,3 5,5 7,7 0,1 1,1 1,1 6,12 5,26 0,38 0,0 1,0 1,0 5,-12 6,-26 0,-37z"/>
  <path class="fil2" d="M725 89c-2,-18 0,-36 3,-53 0,-3 0,-6 1,-8 -1,0 -2,1 -3,3 -2,5 -8,24 -14,27 -6,4 -12,11 -12,17 0,0 -1,1 -2,3 10,3 19,7 28,13 -1,-1 -1,-1 -1,-2z"/>
  <path class="fil2" d="M726 89c0,1 1,2 1,3 0,0 0,0 0,0l0 0c0,1 0,2 0,3 1,5 2,11 3,16 0,1 0,3 0,4 7,-17 16,-33 28,-46 -1,-3 -4,-7 -8,-8 0,0 -2,-5 -7,-7 0,0 -2,-8 -7,-10 0,0 -2,-13 -5,-17 0,0 -1,0 -1,0 -1,3 -1,6 -1,9 -3,18 -5,35 -3,53z"/>
  <path class="fil1" d="M726 95c1,5 2,11 3,16 1,12 3,24 2,35 0,0 1,0 1,0 0,-10 0,-19 -2,-29 8,-18 16,-34 29,-48 -1,0 -1,0 -1,0 -12,13 -21,29 -28,46 0,-1 0,-3 0,-4 -1,-5 -2,-11 -3,-16 0,-1 0,-2 0,-3l0 0c0,0 0,0 0,0 0,-1 -1,-2 -1,-3 -2,-18 0,-35 3,-53 0,-3 0,-6 1,-9 -1,0 -1,1 -1,1 -1,2 -1,5 -1,8 -3,17 -5,35 -3,53 0,1 0,1 1,2 -9,-6 -18,-10 -28,-13 0,0 0,0 -1,1 11,3 20,7 29,13 0,1 0,2 0,3z"/>
  <path class="fil2" d="M796 57c1,2 2,5 3,7 1,-3 3,-5 5,-8 4,-3 10,-6 14,-8 0,-1 -1,-2 -3,-3 0,0 -1,-10 -8,-11 0,0 -3,-8 -11,-8 0,0 -7,-2 -10,-14 -1,3 -1,5 -1,8 0,14 5,24 11,37z"/>
  <path class="fil2" d="M791 48c-4,-9 -7,-17 -7,-28 0,-3 1,-6 1,-9 0,0 -1,0 -3,3 0,0 -4,-1 -5,3 0,0 -3,-1 -4,4 0,0 -3,0 -3,5 0,0 -3,0 -3,6 0,0 -4,1 -2,6 0,0 -1,0 -1,1 10,-1 20,2 27,9z"/>
  <path class="fil2" d="M797 86c1,1 2,2 3,4 1,-11 0,-22 -5,-33 -1,-3 -2,-5 -3,-7l0 0c0,0 0,-1 -1,-1 -6,-7 -17,-10 -27,-9 0,1 0,2 1,5 0,0 -3,2 0,7 0,0 -2,2 2,8 0,0 -2,0 3,6 1,1 0,3 3,7 9,2 18,6 24,13z"/>
  <path class="fil1" d="M796 86c2,2 3,3 4,5 0,4 -1,8 -2,12 0,0 1,0 1,0 1,-4 1,-8 2,-12l0 0c0,0 0,0 0,0 1,-9 0,-17 -2,-26 1,-3 3,-6 6,-8 4,-4 9,-7 14,-9 0,0 0,0 -1,0 -4,2 -10,5 -14,8 -2,3 -4,5 -5,8 -1,-2 -2,-5 -3,-7 -6,-13 -11,-23 -11,-37 0,-3 0,-5 1,-8 0,-1 0,-2 1,-3l-1 0c0,1 0,2 -1,2 0,3 -1,6 -1,9 0,11 3,19 7,28 -7,-7 -17,-10 -27,-9 0,0 0,0 0,1 10,-1 21,2 27,9 1,0 1,1 1,1l0 0c1,2 2,4 3,7 5,11 6,22 5,33 -1,-2 -2,-3 -3,-4 -6,-7 -15,-11 -24,-13 0,0 0,1 1,1l0 0c8,2 16,6 22,12z"/>
  <path class="fil2" d="M853 135c-1,-1 -1,-1 -2,-1 3,7 4,15 3,23 2,-1 3,-1 3,-1 4,2 10,-1 15,-4 4,-4 19,-4 23,-4 1,0 2,-1 3,-1 -2,-1 -4,-1 -6,-1 -14,-3 -27,-5 -39,-11z"/>
  <path class="fil2" d="M838 126c4,2 7,4 11,6 1,0 1,1 2,1l0 0c0,0 0,0 0,0 1,0 1,1 2,1 12,6 26,9 39,11 2,0 4,1 6,1 1,0 1,-1 1,-1 -2,-2 -11,-7 -11,-7 -1,-4 -6,-7 -6,-7 0,-5 -3,-7 -3,-7 0,-4 -2,-7 -4,-8 -12,6 -26,8 -40,9 1,0 2,1 3,1z"/>
  <path class="fil1" d="M813 116c0,0 0,1 0,1 8,2 17,6 25,10 3,2 7,4 11,6 0,0 1,0 2,1 2,7 3,15 3,23 0,0 0,0 0,0 1,-8 0,-16 -3,-23 1,0 1,0 2,1 12,6 25,8 39,11 2,0 4,0 6,1 0,0 0,0 0,-1 -2,0 -4,-1 -6,-1 -13,-2 -27,-5 -39,-11 -1,0 -1,-1 -2,-1 0,0 0,0 0,0l0 0c-1,0 -1,-1 -2,-1 -4,-2 -7,-4 -11,-6 -1,0 -2,-1 -3,-1 14,-1 28,-3 40,-9 0,0 0,0 0,-1 -13,6 -27,8 -41,9 -7,-3 -14,-6 -21,-8z"/>
  <path class="fil2" d="M876 62c0,0 1,-1 1,-1 13,-8 26,-13 40,-17 3,-1 5,-1 7,-2 -1,0 -2,-1 -4,-1 -4,1 -20,3 -25,-1 -5,-3 -12,-5 -16,-2 0,0 -1,-1 -3,-1 1,8 2,17 0,25z"/>
  <path class="fil2" d="M838 86c2,4 10,12 22,12 0,0 2,0 2,-2 0,0 4,3 7,1 0,0 7,2 11,-2 0,0 7,0 7,-3 0,0 9,-1 9,-5 0,0 6,-3 7,-8 0,0 0,0 0,0 -14,-5 -29,-5 -44,-5 -7,5 -14,9 -21,12z"/>
  <path class="fil2" d="M878 62c-1,0 -2,0 -2,1 0,0 0,0 0,0l-1 0c0,0 -1,1 -1,1 -4,3 -8,5 -11,8 -1,0 -2,1 -3,1 15,0 30,0 44,5 1,-2 3,-5 3,-9 0,0 3,-3 2,-7 0,0 5,-4 5,-9 0,0 9,-6 11,-10 0,0 0,0 -1,0 -2,0 -4,1 -6,2 -14,4 -28,9 -40,17z"/>
  <path class="fil1" d="M875 62c-1,1 -1,1 -2,2 -4,2 -7,5 -11,7 -8,5 -16,10 -25,14 0,0 0,0 1,1 0,0 0,0 0,0 7,-3 14,-7 21,-12 15,0 30,0 44,5 0,-1 1,-1 1,-1 -14,-5 -29,-5 -44,-5 1,0 2,-1 3,-1 3,-3 7,-5 11,-8 0,0 1,-1 1,-1l1 0c0,0 0,0 0,0 0,-1 1,-1 2,-1 12,-8 26,-13 40,-17 2,-1 4,-2 6,-2 0,-1 0,-1 0,-1 -2,1 -4,1 -7,2 -14,4 -27,9 -40,17 0,0 -1,1 -1,1 2,-8 1,-17 0,-25 0,0 -1,0 -1,0 2,8 2,17 0,25z"/>
  <path class="fil3" d="M543 76c1,-1 2,-2 3,-3 8,-9 19,-13 29,-13 2,0 5,0 7,1 1,-10 5,-17 11,-21 3,-2 6,-4 9,-5 -3,-2 -5,-3 -9,-4 -3,0 -7,-1 -10,-1 -10,0 -20,3 -27,10 -7,8 -13,21 -13,32 0,1 0,3 0,4z"/>
  <path class="fil3" d="M667 34c2,4 3,9 3,13 8,3 15,6 20,12 1,0 1,1 1,1 13,1 23,6 30,15 1,-3 2,-7 2,-11 0,-2 0,-3 0,-4 -1,-17 -14,-28 -29,-37 -10,-6 -20,-9 -30,-9 -4,1 -8,1 -12,2 6,4 12,10 15,18z"/>
  <path class="fil3" d="M554 39c0,0 0,-1 1,-1 7,-7 17,-10 28,-10 3,-6 7,-10 12,-13 -2,-1 -4,-2 -6,-2 -2,0 -3,0 -4,0 0,0 0,0 0,0l0 0c0,0 -1,0 -1,0 -8,0 -16,2 -23,5 -7,4 -20,15 -22,24 4,-2 8,-3 13,-4 1,0 2,1 2,1z"/>
  <path class="fil3" d="M732 152c0,-9 -2,-17 -7,-22 -3,5 -7,10 -11,14 -4,3 -8,5 -12,6 0,1 0,2 0,3 0,12 -8,24 -16,32l0 0c0,3 0,5 1,7 0,4 -1,7 -2,11 -2,3 -3,6 -5,10 5,-1 12,-1 16,-3 19,-10 26,-24 31,-34 3,-6 5,-16 5,-24z"/>
  <path class="fil3" d="M537 172c0,-2 0,-4 0,-6 0,-12 4,-24 14,-31 -12,-8 -18,-20 -18,-32 0,0 0,0 0,0 0,-3 0,-5 1,-8 -13,5 -19,24 -20,38 0,0 0,1 0,2 0,12 6,23 15,32 2,3 5,4 8,5z"/>
  <path class="fil3" d="M682 202c1,-4 2,-7 2,-10 0,-1 0,-3 -1,-5 -1,2 -3,3 -4,4 -10,7 -26,13 -40,13 -4,0 -7,0 -10,-1 -5,-1 -10,-3 -14,-6 -1,2 -2,3 -3,5 -7,9 -17,12 -27,12 -3,0 -7,0 -11,-1 0,0 0,1 0,1 0,7 8,13 14,17 12,7 26,10 39,10 2,0 4,0 5,0 22,-2 43,-19 50,-39z"/>
  <path class="fil3" d="M726 63c0,5 -1,10 -3,15 3,4 5,9 7,15 1,4 1,8 1,12 0,7 -1,15 -5,22 5,5 7,11 8,17 2,-2 3,-5 4,-7 5,-12 8,-24 8,-36 0,-5 0,-10 -2,-15 -2,-9 -9,-23 -19,-27 0,0 0,0 0,1 1,1 1,2 1,3z"/>
  <path class="fil3" d="M735 148c0,1 0,2 0,3 0,10 -2,19 -6,27 0,1 -1,2 -2,4 10,-5 17,-16 21,-26 2,-5 4,-13 4,-20 0,-7 -2,-12 -6,-15 -1,5 -3,11 -6,17 -1,3 -3,7 -5,10z"/>
  <path class="fil3" d="M535 91c1,-4 3,-8 6,-12 0,-2 -1,-5 -1,-7 0,-11 5,-22 12,-31 0,0 0,0 0,0 -10,0 -19,9 -25,16 -7,9 -13,21 -13,33 0,2 0,4 1,6 0,4 2,7 4,10 4,-7 9,-12 16,-15z"/>
  <path class="fil3" d="M587 108c-3,5 -5,11 -5,16 0,4 2,9 5,13 3,3 6,6 10,7 0,-2 -1,-4 -1,-6 0,-1 0,-3 0,-4 1,-6 5,-12 12,-13 -2,-3 -4,-6 -4,-9l0 0c0,-6 4,-12 10,-16 -2,-1 -5,-1 -7,-1 -8,0 -16,5 -20,13z"/>
  <path class="fil3" d="M679 215c0,0 0,0 -1,0 -3,5 -7,9 -11,13 2,1 5,2 7,3 3,0 5,1 8,1 17,-1 33,-15 33,-33 -5,5 -11,10 -18,13 -5,3 -12,3 -18,3z"/>
  <path class="fil3" d="M607 112c0,2 1,5 3,8 2,-6 7,-10 13,-10 7,0 13,6 14,13 4,-1 7,-2 9,-7 2,-2 3,-5 3,-7 0,-4 -3,-7 -7,-10 -4,-2 -9,-4 -15,-4 0,0 -1,0 -1,0 -12,1 -19,9 -19,17z"/>
  <path class="fil3" d="M591 99c4,-4 10,-7 16,-7 3,0 7,1 11,2 2,-1 5,-1 8,-2 0,0 1,0 1,0 9,0 17,3 21,9l0 -1c1,0 1,0 1,1 0,-2 0,-2 0,-3 0,-3 -1,-5 -2,-7 -6,-10 -20,-16 -32,-15 0,0 -1,0 -2,0 -12,1 -21,11 -22,23z"/>
  <path class="fil3" d="M664 123c-1,-10 -5,-18 -14,-20 1,2 1,4 1,6 0,3 0,6 -2,9 -4,5 -8,6 -12,8 0,0 0,0 0,1 5,1 8,5 9,11 0,1 1,2 1,3 0,2 -1,3 -1,4 1,0 1,0 2,0 2,0 4,0 5,-1 7,-4 11,-13 11,-21z"/>
  <path class="fil3" d="M696 114c0,-1 0,-2 0,-3 -2,-12 -12,-22 -23,-28 -6,-4 -11,-5 -17,-5 -5,0 -9,1 -14,3 3,3 6,5 7,8 2,3 3,6 3,9 0,1 0,2 0,3 10,2 14,12 14,22 0,9 -3,19 -11,23 -3,2 -5,2 -7,2 -1,0 -2,0 -3,0 0,1 -1,3 -2,4 1,2 1,3 1,5 4,0 8,1 11,1 3,0 6,-1 9,-1 16,-5 32,-26 32,-43z"/>
  <path class="fil3" d="M597 178c6,3 12,4 17,4 10,0 18,-5 24,-16 2,-3 3,-6 3,-9 0,-1 0,-2 0,-3 -2,2 -3,3 -5,4 -4,2 -7,3 -11,3 -6,0 -11,-2 -17,-5 -3,-2 -7,-5 -9,-9l0 1c-6,-2 -10,-5 -14,-9 -1,-2 -2,-3 -3,-5 -2,6 -4,12 -4,17 1,11 6,21 19,27z"/>
  <path class="fil3" d="M623 113c-6,0 -11,5 -11,11 0,6 5,11 11,11 6,0 11,-5 11,-11 0,-6 -5,-11 -11,-11z"/>
  <path class="fil3" d="M644 139c-1,-5 -4,-8 -8,-10 -2,5 -7,9 -13,9 -7,0 -14,-6 -14,-14 0,0 0,0 0,0 -5,0 -9,4 -10,11 0,1 0,2 0,3 0,7 4,12 11,16 5,3 10,5 15,4 3,0 6,0 10,-2 5,-3 9,-9 9,-15 0,-1 0,-2 0,-2z"/>
  <path class="fil3" d="M694 63c4,7 6,15 6,23 0,2 0,4 0,5 -1,4 -2,7 -5,10 2,3 3,7 3,10 0,1 0,2 0,3 0,7 -1,13 -5,20 5,4 7,9 8,14 4,-2 8,-3 11,-6 10,-10 17,-23 17,-37 0,-4 -1,-8 -2,-11 -5,-17 -17,-29 -33,-31z"/>
  <path class="fil3" d="M639 202c13,-1 28,-6 38,-13 11,-8 22,-23 22,-36 0,-6 -2,-12 -7,-17 -6,11 -16,20 -27,23 -3,1 -7,1 -10,1 -4,0 -7,0 -11,0 -1,2 -2,5 -3,8 -5,9 -13,14 -22,16 0,4 -1,7 -3,11 4,2 9,4 13,6 3,0 7,1 10,1z"/>
  <path class="fil3" d="M586 28c2,0 5,0 8,1 4,0 8,2 11,5 4,-1 8,-2 12,-2 13,0 27,5 35,15 2,-1 5,-1 7,-1 3,0 5,0 8,1 0,-4 -1,-8 -3,-12 -7,-16 -25,-25 -43,-25 -14,0 -27,6 -35,18z"/>
  <path class="fil3" d="M585 61c8,2 16,6 22,13 2,-1 4,-1 6,-1 1,0 2,0 2,0 9,0 18,2 25,7l0 -1c5,-3 11,-4 16,-4 0,0 0,0 0,0 1,-3 1,-5 1,-8 0,-2 0,-5 -1,-7 -3,-16 -21,-25 -39,-25 -17,0 -32,9 -32,26z"/>
  <path class="fil3" d="M585 212c10,0 18,-4 25,-12 4,-5 6,-10 6,-16 -1,0 -1,0 -2,0 -6,0 -12,-1 -18,-3 -13,-6 -20,-18 -20,-30 0,0 0,0 0,0 0,-2 0,-5 0,-7 -8,0 -16,-4 -23,-8 -9,7 -14,18 -14,30 1,12 6,25 13,32 9,9 22,14 33,14z"/>
  <path class="fil3" d="M554 133c7,5 14,8 22,8 1,0 1,0 1,0 1,-3 2,-6 3,-9l1 0c-1,-3 -1,-5 -1,-8 0,0 0,0 0,0 -1,-6 1,-12 4,-17 1,-2 2,-4 4,-5l-1 0c1,-11 7,-22 18,-27 -9,-8 -19,-12 -30,-12 -9,0 -19,4 -27,12 -8,8 -12,18 -12,28 0,12 6,23 18,30z"/>
  <path class="fil3" d="M551 200c-7,-6 -11,-15 -13,-25 -4,-1 -8,-3 -11,-6 -3,-2 -5,-5 -7,-8 0,2 0,3 0,5 0,7 3,16 7,22 7,12 17,20 30,24 5,1 9,1 15,1 0,0 0,0 0,-1 -8,-2 -16,-6 -21,-12z"/>
  <path class="fil3" d="M659 67c1,3 0,5 0,8 5,1 11,2 16,6 7,4 14,10 19,17 2,-2 2,-4 3,-7 0,-2 0,-3 0,-5 0,-9 -3,-20 -9,-25 -7,-8 -19,-13 -29,-12 -2,0 -3,0 -5,0 2,3 4,7 5,10 0,3 0,6 0,8z"/>
  <path class="fil1" d="M632 244c12,-1 24,-6 33,-14l0 0c3,1 5,3 8,3 3,1 6,1 9,1 3,0 7,0 10,-1 8,-3 15,-8 19,-14 4,-6 7,-12 7,-20 0,-1 -1,-1 -1,-2 4,-4 6,-8 8,-12l0 0c12,-3 20,-16 25,-26 0,-1 0,-1 0,-2 2,-5 4,-13 4,-21 0,-1 0,-1 0,-1 0,-7 -2,-13 -7,-17 1,-6 2,-11 2,-17 0,-5 -1,-10 -2,-15 -3,-11 -10,-26 -22,-30 -2,-16 -14,-26 -27,-34 -1,0 -1,-1 -2,-1 -1,-1 -1,-1 -2,-1 -9,-6 -19,-8 -30,-8 -5,0 -10,1 -16,2 -8,-5 -18,-7 -27,-7 -8,0 -15,2 -22,5 -3,0 -6,-1 -10,-2 -1,0 -1,0 -2,0 -1,0 -2,0 -3,0 0,0 0,0 0,0 -8,0 -17,2 -24,6 -8,4 -23,17 -24,28 -4,4 -8,8 -11,11 -8,10 -14,22 -13,35 0,2 0,4 0,6 0,0 0,0 0,0 0,1 0,2 1,3 1,3 2,7 4,9 -3,8 -5,17 -6,25 0,0 0,1 0,2 0,8 3,16 7,23 0,1 -1,3 -1,5 0,1 0,2 0,3 0,0 0,0 0,0 0,8 4,17 7,24 4,5 8,10 13,14 0,1 1,1 2,2 5,4 11,7 18,9 5,1 10,1 15,1 1,7 7,12 12,15 1,1 2,1 3,2 0,0 0,0 0,0 12,7 26,11 40,11 2,0 4,0 5,0zm50 -12l0 0c-3,0 -5,-1 -8,-1 -2,-1 -5,-2 -7,-3 4,-4 8,-8 11,-13 1,0 1,0 1,0 6,0 13,0 18,-3 7,-3 13,-8 18,-13 0,18 -16,32 -33,33zm14 -22l0 0c-4,2 -11,2 -16,3 2,-4 3,-7 5,-10 1,-4 2,-7 2,-11 -1,-2 -1,-4 -1,-7l0 0c8,-8 16,-20 16,-32 0,-1 0,-2 0,-3 4,-1 8,-3 12,-6 4,-4 8,-9 11,-14 5,5 7,13 7,22 0,8 -2,18 -5,24 -5,10 -12,24 -31,34zm-157 -44l0 0c0,-12 5,-23 14,-30 7,4 15,8 23,8 0,2 0,5 0,7 0,0 0,0 0,0 0,12 7,24 20,30 6,2 12,3 18,3 1,0 1,0 2,0 0,6 -2,11 -6,16 -7,8 -15,12 -25,12 -11,0 -24,-5 -33,-14 -7,-7 -12,-20 -13,-32zm9 -91l0 0c8,-8 18,-12 27,-12 11,0 21,4 30,12 -11,5 -17,16 -18,27l1 0c-2,1 -3,3 -4,5 -3,5 -5,11 -4,17 0,0 0,0 0,0 0,3 0,5 1,8l-1 0c-1,3 -2,6 -3,9 0,0 0,0 -1,0 -8,0 -15,-3 -22,-8 -12,-7 -18,-18 -18,-30 0,-10 4,-20 12,-28zm8 -35l0 0c7,-7 17,-10 27,-10 3,0 7,1 10,1 4,1 6,2 9,4 -3,1 -6,3 -9,5 -6,4 -10,11 -11,21 -2,-1 -5,-1 -7,-1 -10,0 -21,4 -29,13 -1,1 -2,2 -3,3 0,-1 0,-3 0,-4 0,-11 6,-24 13,-32zm103 9l0 0c10,-1 22,4 29,12 6,5 9,16 9,25 0,2 0,3 0,5 -1,3 -1,5 -3,7 -5,-7 -12,-13 -19,-17 -5,-4 -11,-5 -16,-6 0,-3 1,-5 0,-8 0,-2 0,-5 0,-8 -1,-3 -3,-7 -5,-10 2,0 3,0 5,0zm68 45l0 0c1,3 2,7 2,11 0,14 -7,27 -17,37 -3,3 -7,4 -11,6 -1,-5 -3,-10 -8,-14 4,-7 5,-13 5,-20 0,-1 0,-2 0,-3 0,-3 -1,-7 -3,-10 3,-3 4,-6 5,-10 0,-1 0,-3 0,-5 0,-8 -2,-16 -6,-23 16,2 28,14 33,31zm-145 40l0 0c1,2 2,3 3,5 4,4 8,7 14,9l0 -1c2,4 6,7 9,9 6,3 11,5 17,5 4,0 7,-1 11,-3 2,-1 3,-2 5,-4 0,1 0,2 0,3 0,3 -1,6 -3,9 -6,11 -14,16 -24,16 -5,0 -11,-1 -17,-4 -13,-6 -18,-16 -19,-27 0,-5 2,-11 4,-17zm31 -58l0 0c1,0 2,0 2,0 12,-1 26,5 32,15 1,2 2,4 2,7 0,1 0,1 0,3 0,-1 0,-1 -1,-1l0 1c-4,-6 -12,-9 -21,-9 0,0 -1,0 -1,0 -3,1 -6,1 -8,2 -4,-1 -8,-2 -11,-2 -6,0 -12,3 -16,7 1,-12 10,-22 22,-23zm22 80l0 0c-4,2 -7,2 -10,2 -5,1 -10,-1 -15,-4 -7,-4 -11,-9 -11,-16 0,-1 0,-2 0,-3 1,-7 5,-11 10,-11 0,0 0,0 0,0 0,8 7,14 14,14 6,0 11,-4 13,-9 4,2 7,5 8,10 0,0 0,1 0,2 0,6 -4,12 -9,15zm-9 -61l0 0c0,0 1,0 1,0 6,0 11,2 15,4 4,3 7,6 7,10 0,2 -1,5 -3,7 -2,5 -5,6 -9,7 -1,-7 -7,-13 -14,-13 -6,0 -11,4 -13,10 -2,-3 -3,-6 -3,-8 0,-8 7,-16 19,-17zm-3 40l0 0c-6,0 -11,-5 -11,-11 0,-6 5,-11 11,-11 6,0 11,5 11,11 0,6 -5,11 -11,11zm23 10l0 0c0,-1 1,-2 1,-4 0,-1 -1,-2 -1,-3 -1,-6 -4,-10 -9,-11 0,-1 0,-1 0,-1 4,-2 8,-3 12,-8 2,-3 2,-6 2,-9 0,-2 0,-4 -1,-6 9,2 13,10 14,20 0,8 -4,17 -11,21 -1,1 -3,1 -5,1 -1,0 -1,0 -2,0zm-39 -50l0 0c2,0 5,0 7,1 -6,4 -10,10 -10,16l0 0c0,3 2,6 4,9 -7,1 -11,7 -12,13 0,1 0,3 0,4 0,2 1,4 1,6 -4,-1 -7,-4 -10,-7 -3,-4 -5,-9 -5,-13 0,-5 2,-11 5,-16 4,-8 12,-13 20,-13zm37 62l0 0c0,-2 0,-3 -1,-5 1,-1 2,-3 2,-4 1,0 2,0 3,0 2,0 4,0 7,-2 8,-4 11,-14 11,-23 0,-10 -4,-20 -14,-22 0,-1 0,-2 0,-3 0,-3 -1,-6 -3,-9 -1,-3 -4,-5 -7,-8 5,-2 9,-3 14,-3 6,0 11,1 17,5 11,6 21,16 23,28 0,1 0,2 0,3 0,17 -16,38 -32,43 -3,0 -6,1 -9,1 -3,0 -7,-1 -11,-1zm12 -97l0 0c1,2 1,5 1,7 0,3 0,5 -1,8 0,0 0,0 0,0 -5,0 -11,1 -16,4l0 1c-7,-5 -16,-7 -25,-7 0,0 -1,0 -2,0 -2,0 -4,0 -6,1 -6,-7 -14,-11 -22,-13 0,-17 15,-26 32,-26 18,0 36,9 39,25zm-37 124l0 0c9,-2 17,-7 22,-16 1,-3 2,-6 3,-8 4,0 7,0 11,0 3,0 7,0 10,-1 11,-3 21,-12 27,-23 5,5 7,11 7,17 0,13 -11,28 -22,36 -10,7 -25,12 -38,13 -3,0 -7,-1 -10,-1 -4,-2 -9,-4 -13,-6 2,-4 3,-7 3,-11zm133 -48l0 0c0,7 -2,15 -4,20 -4,10 -11,21 -21,26 1,-2 2,-3 2,-4 4,-8 6,-17 6,-27 0,-1 0,-2 0,-3 2,-3 4,-7 5,-10 3,-6 5,-12 6,-17 4,3 6,8 6,15zm-8 -50l0 0c2,5 2,10 2,15 0,12 -3,24 -8,36 -1,2 -2,5 -4,7 -1,-6 -3,-12 -8,-17 4,-7 5,-15 5,-22 0,-4 0,-8 -1,-12 -2,-6 -4,-11 -7,-15 2,-5 3,-10 3,-15 0,-1 0,-2 -1,-3 0,-1 0,-1 0,-1 10,4 17,18 19,27zm-80 -72l0 0c10,0 20,3 30,9 15,9 28,20 29,37 0,1 0,2 0,4 0,4 -1,8 -2,11 -7,-9 -17,-14 -30,-15 0,0 0,-1 -1,-1 -5,-6 -12,-9 -20,-12 0,-4 -1,-9 -3,-13 -3,-8 -9,-14 -15,-18 4,-1 8,-1 12,-2zm-43 -4l0 0c18,0 36,9 43,25 2,4 3,8 3,12 -3,-1 -5,-1 -8,-1 -2,0 -5,0 -7,1 -8,-10 -22,-15 -35,-15 -4,0 -8,1 -12,2 -3,-3 -7,-5 -11,-5 -3,-1 -6,-1 -8,-1 8,-12 21,-18 35,-18zm-60 8l0 0c7,-3 15,-5 23,-5 0,0 1,0 1,0l0 0c0,0 0,0 0,0 1,0 2,0 4,0 2,0 4,1 6,2 -5,3 -9,7 -12,13 -11,0 -21,3 -28,10 -1,0 -1,1 -1,1 0,0 -1,-1 -2,-1 -5,1 -9,2 -13,4 2,-9 15,-20 22,-24zm-46 78l0 0c-1,-2 -1,-4 -1,-6 0,-12 6,-24 13,-33 6,-7 15,-16 25,-16 0,0 0,0 0,0 -7,9 -12,20 -12,31 0,2 1,5 1,7 -3,4 -5,8 -6,12 -7,3 -12,8 -16,15 -2,-3 -4,-6 -4,-10zm-1 37l0 0c1,-14 7,-33 20,-38 -1,3 -1,5 -1,8 0,0 0,0 0,0 0,12 6,24 18,32 -10,7 -14,19 -14,31 0,2 0,4 0,6 -3,-1 -6,-2 -8,-5 -9,-9 -15,-20 -15,-32 0,-1 0,-2 0,-2zm43 79l0 0c-13,-4 -23,-12 -30,-24 -4,-6 -7,-15 -7,-22 0,-2 0,-3 0,-5 2,3 4,6 7,8 3,3 7,5 11,6 2,10 6,19 13,25 5,6 13,10 21,12 0,1 0,1 0,1 -6,0 -10,0 -15,-1zm31 19l0 0c-6,-4 -14,-10 -14,-17 0,0 0,-1 0,-1 4,1 8,1 11,1 10,0 20,-3 27,-12 1,-2 2,-3 3,-5 4,3 9,5 14,6 3,1 6,1 10,1 14,0 30,-6 40,-13 1,-1 3,-2 4,-4 1,2 1,4 1,5 0,3 -1,6 -2,10 -7,20 -28,37 -50,39 -1,0 -3,0 -5,0 -13,0 -27,-3 -39,-10z"/>
 </g>
</svg>
