<?xml version="1.0" encoding="UTF-8"?>
<!DOCTYPE svg PUBLIC "-//W3C//DTD SVG 1.1//EN" "http://www.w3.org/Graphics/SVG/1.1/DTD/svg11.dtd">
<!-- Creator: CorelDRAW X7 -->
<svg xmlns="http://www.w3.org/2000/svg" xml:space="preserve" width="2.02271in" height="0.637567in" version="1.1" style="shape-rendering:geometricPrecision; text-rendering:geometricPrecision; image-rendering:optimizeQuality; fill-rule:evenodd; clip-rule:evenodd"
viewBox="0 0 1867 588"
 xmlns:xlink="http://www.w3.org/1999/xlink">
 <defs>
  <style type="text/css">
   <![CDATA[
    .fil0 {fill:#79A3A0;fill-rule:nonzero}
    .fil2 {fill:#EF6069;fill-rule:nonzero}
    .fil1 {fill:white;fill-rule:nonzero}
   ]]>
  </style>
 </defs>
 <g id="__x0023_Layer_x0020_1">
  <metadata id="CorelCorpID_0Corel-Layer"/>
  <path class="fil0" d="M1119 414c-51,-28 -102,-48 -160,-51 -53,-2 -104,8 -155,24 -111,35 -212,96 -326,123 -85,21 -239,50 -282,-52 -16,-38 12,-79 53,-75 19,2 41,25 27,43 -5,7 -15,8 -22,8 -20,-2 -7,-18 1,-25 3,-2 0,-6 -3,-4 -18,12 -27,35 3,38 26,2 42,-22 30,-45 -14,-26 -45,-30 -70,-19 -32,13 -41,47 -33,78 29,108 179,88 261,74 132,-24 246,-94 373,-135 101,-32 206,-27 301,20 2,1 4,-1 2,-2z"/>
  <path class="fil0" d="M657 468c-23,-13 -46,-24 -73,-32 -38,-11 -77,-14 -117,-13 -81,4 -156,35 -228,70 -37,18 -75,34 -116,39 -39,4 -100,-4 -107,-50 -6,-34 22,-68 58,-61 35,6 32,75 -8,59 -3,-1 -5,3 -2,4 52,26 56,-67 12,-75 -65,-13 -102,74 -54,116 35,31 97,26 138,16 56,-14 107,-47 161,-69 107,-43 226,-47 331,-1 1,-1 3,-2 5,-3z"/>
  <path class="fil0" d="M346 537l0 2c0,9 -6,16 -6,16 -1,0 11,-2 12,-16l0 -2 -6 0z"/>
  <path class="fil0" d="M305 536l0 -2c2,-13 -9,-19 -8,-19 -1,0 4,9 2,18l0 2 6 1z"/>
  <path class="fil0" d="M213 495l-2 1c-10,2 -19,-3 -19,-3 -1,0 6,11 21,9l2 -1 -2 -6z"/>
  <path class="fil0" d="M192 460l2 -1c10,-5 7,-15 8,-14 -1,0 -5,7 -10,8l-1 1 1 6z"/>
  <path class="fil0" d="M196 400l0 -2c-2,-8 2,-16 2,-16 1,-1 -10,5 -8,17l0 2 6 -1z"/>
  <path class="fil0" d="M227 382l1 1c10,3 17,9 17,9 0,0 -3,-11 -15,-15l-2 0 -1 5z"/>
  <path class="fil0" d="M281 407l-1 0c-3,8 -9,9 -10,9 -2,0 10,5 15,-5l1 -2 -5 -2z"/>
  <path class="fil0" d="M256 437l-1 1c-1,7 -5,13 -4,13 -1,0 7,-2 10,-11l1 -1 -6 -2z"/>
  <path class="fil0" d="M298 475l-1 1c1,11 -2,18 -2,18 0,1 9,-6 9,-17l0 -2 -6 0z"/>
  <path class="fil0" d="M324 461l-1 -1c-8,-9 -18,-4 -18,-5 0,1 8,2 14,9l1 0 4 -3z"/>
  <path class="fil0" d="M259 489l0 1c2,9 -1,17 0,18 -1,0 8,-7 6,-19l0 -1 -6 1z"/>
  <path class="fil0" d="M173 527l-1 -1c-13,-3 -16,-12 -16,-12 -1,-2 -1,13 13,18l2 1 2 -6z"/>
  <path class="fil0" d="M119 542l-1 1c-4,9 -12,9 -13,9 -1,0 11,7 19,-5l1 -2 -6 -3z"/>
  <path class="fil0" d="M55 530l-1 -1c-6,-8 -5,-19 -5,-18 0,-1 -7,9 0,21l1 2 5 -4z"/>
  <path class="fil0" d="M26 518l-2 -1c-12,-8 -24,1 -23,1 1,0 10,-3 20,5l2 0 3 -5z"/>
  <path class="fil0" d="M15 490l1 -1c4,-7 9,-15 8,-15 1,0 -8,3 -13,12l-1 2 5 2z"/>
  <path class="fil0" d="M27 430l2 0c13,-2 25,3 25,3 0,0 -9,-12 -26,-9l-3 1 2 5z"/>
  <path class="fil0" d="M58 415l2 -1c10,-6 5,-16 5,-15 0,0 -2,7 -8,10l-1 1 2 5z"/>
  <path class="fil0" d="M96 437l0 1c-1,12 -8,19 -8,19 -1,0 12,-3 14,-18l0 -2 -6 0z"/>
  <path class="fil0" d="M92 476l0 2c-1,8 -5,16 -5,16 -1,0 10,-4 11,-16l0 -2 -6 0z"/>
  <path class="fil0" d="M746 437c68,-40 145,-59 223,-53 68,4 133,27 196,49 117,42 232,79 358,75 47,-1 97,-10 132,-44 26,-26 39,-71 20,-103 -14,-24 -46,-32 -71,-26 -24,6 -42,36 -27,58 19,26 79,0 31,-28 -2,-1 -5,3 -3,4 23,16 8,32 -14,23 -24,-11 -2,-41 13,-47 36,-14 70,21 67,56 -10,114 -179,97 -257,89 -119,-13 -228,-69 -343,-101 -53,-14 -108,-22 -163,-17 -61,6 -113,30 -164,63 -1,1 1,3 2,2z"/>
  <path class="fil0" d="M1795 355c-55,0 -47,108 7,76 2,-1 0,-6 -2,-4 -39,19 -46,-44 -12,-58 39,-17 65,32 61,64 -7,44 -74,51 -109,49 -42,-2 -82,-18 -120,-33 -73,-29 -147,-51 -226,-50 -37,0 -73,7 -108,18 -31,10 -56,26 -82,43 2,1 4,1 6,2 94,-52 204,-60 307,-33 102,26 205,102 312,52 66,-32 35,-127 -34,-126z"/>
  <path class="fil0" d="M1518 504l0 2c2,14 14,15 13,15 1,0 -6,-7 -7,-16l0 -1 -6 0z"/>
  <path class="fil0" d="M1571 498l0 -2c-3,-9 1,-18 1,-18 1,0 -10,6 -7,20l0 2 6 -2z"/>
  <path class="fil0" d="M1652 459l3 0c14,2 20,-11 20,-10 0,0 -9,6 -20,4l-1 0 -2 6z"/>
  <path class="fil0" d="M1673 410l-1 -1c-5,-1 -10,-8 -10,-7 0,-1 -2,9 9,13l1 1 1 -6z"/>
  <path class="fil0" d="M1670 357l0 -2c1,-12 -10,-17 -9,-17 -1,1 4,8 3,17l0 1 6 1z"/>
  <path class="fil0" d="M1630 335l-2 1c-12,5 -14,16 -13,15 0,0 6,-6 16,-9l1 -1 -2 -6z"/>
  <path class="fil0" d="M1575 372l1 1c6,10 17,5 15,4 0,0 -6,0 -10,-7l-1 -1 -5 3z"/>
  <path class="fil0" d="M1601 400l1 1c4,9 12,10 11,10 1,0 -3,-6 -5,-12l-1 -1 -6 2z"/>
  <path class="fil0" d="M1562 439l0 2c1,11 10,17 10,16 -1,0 -3,-7 -4,-17l0 -2 -6 1z"/>
  <path class="fil0" d="M1545 429l1 0c5,-7 13,-9 13,-10 1,1 -10,-4 -17,6l-2 1 5 3z"/>
  <path class="fil0" d="M1602 449l0 1c-2,12 8,18 7,18 0,0 -3,-8 -1,-17l0 -2 -6 0z"/>
  <path class="fil0" d="M1698 487l2 -1c14,-5 13,-20 12,-19 0,1 -3,9 -15,14l-1 1 2 5z"/>
  <path class="fil0" d="M1745 496l2 2c8,11 20,3 18,4 0,0 -9,0 -14,-8l0 -1 -6 3z"/>
  <path class="fil0" d="M1819 480l1 -2c7,-13 -2,-22 -1,-22 0,0 1,10 -4,19l-1 1 5 4z"/>
  <path class="fil0" d="M1845 467l2 -1c9,-7 19,-6 20,-6 1,0 -11,-8 -23,1l-2 1 3 5z"/>
  <path class="fil0" d="M1856 431l-1 -1c-6,-9 -15,-12 -14,-12 -1,0 4,8 9,15l1 1 5 -3z"/>
  <path class="fil0" d="M1836 369l-2 0c-18,-2 -26,11 -26,10 0,0 12,-6 25,-4l2 0 1 -6z"/>
  <path class="fil0" d="M1805 357l-1 -1c-6,-3 -8,-10 -9,-10 1,-1 -4,9 6,15l1 1 3 -5z"/>
  <path class="fil0" d="M1760 387l1 2c2,14 16,17 15,17 0,-1 -8,-7 -9,-18l-1 -2 -6 1z"/>
  <path class="fil0" d="M1767 426l0 2c3,12 13,14 12,15 1,-1 -4,-8 -6,-16l0 -2 -6 1z"/>
  <path class="fil0" d="M626 225c-1,-8 -1,-16 -1,-25 3,-42 7,-76 -9,-116 -3,-7 -6,-14 -10,-20 5,36 -15,50 -15,50 -21,9 -20,35 -20,35 -21,10 -13,39 -13,39 -3,4 -5,8 -6,11 16,1 34,4 49,10 10,4 18,9 25,16z"/>
  <path class="fil0" d="M652 76c-7,-14 -15,-8 -15,-8 -8,-10 -17,-4 -17,-4 -9,-7 -12,-5 -14,-3 5,7 9,14 12,23 12,30 13,57 11,87 12,-27 40,-46 68,-56 -1,-1 -3,-2 -3,-2 -1,-16 -14,-14 -14,-14 -6,-17 -13,-13 -13,-13 -6,-14 -15,-10 -15,-10z"/>
  <path class="fil0" d="M630 174c0,1 -1,2 -1,3l0 0c-1,8 -1,15 -2,23 -2,36 8,69 23,99 1,-5 2,-9 4,-14 11,-26 31,-47 55,-63 5,-14 -1,-20 0,-22 9,-22 1,-21 1,-21 6,-23 -1,-27 -1,-27 2,-16 -7,-19 -7,-19 0,-8 -2,-13 -3,-16 -29,10 -58,29 -69,57z"/>
  <path class="fil0" d="M651 303c5,11 12,22 18,32 0,0 -1,0 -3,0 -6,-11 -12,-21 -17,-32l0 0c0,0 0,0 0,0 -12,-24 -20,-48 -23,-74 -7,-8 -15,-14 -25,-18 -15,-6 -33,-8 -49,-9 -1,11 9,18 9,18 -11,11 6,27 6,27 -8,14 11,24 11,24 -6,14 21,25 21,25 -2,22 46,34 64,38 3,7 8,14 12,21 1,1 2,3 3,4 -53,-25 -110,-43 -168,-53 -5,-1 -9,-2 -14,-2 -3,-2 -5,-3 -6,-5 -5,-4 -9,-10 -13,-16 2,0 4,-1 4,-1 17,-6 30,-22 30,-22 22,-35 2,-78 2,-78 -1,-13 -12,-20 -12,-20 0,0 3,9 -1,-2 -2,-5 -6,-9 -10,-11 -15,11 -29,24 -39,41 1,1 1,3 2,5 2,9 4,19 6,28 4,21 10,41 18,60 -1,0 -1,0 -2,1 -7,-16 -12,-33 -16,-50 -23,-25 -48,-48 -77,-62 0,1 0,2 0,2 -6,10 -2,24 -2,24 -5,5 8,20 8,20 -5,4 6,15 6,15 0,13 14,20 14,20 2,9 12,10 12,10 -1,3 1,5 1,5 18,18 40,18 52,16 1,6 4,11 8,16 0,1 1,1 1,2 -33,-5 -66,-9 -99,-17 0,0 0,1 0,1 -20,-10 -41,-18 -63,-24 -10,-3 -20,-6 -30,-9 -2,-1 -3,-1 -5,-2 -18,9 -34,23 -47,38 2,4 5,8 11,11 11,6 2,1 2,1 0,0 6,13 20,15 0,0 45,26 84,5 0,0 17,-12 26,-29 29,10 59,18 89,24 5,0 9,1 14,2 -6,3 -10,7 -15,11 -12,-4 -51,-15 -58,1 0,0 -22,-3 -23,9 0,0 -17,-2 -17,11 0,0 -17,4 -14,16 0,0 -10,1 -14,9 11,5 24,11 37,12 8,1 16,1 24,-2 12,-16 27,-29 43,-41 0,0 0,0 0,0l1 0c7,-5 15,-10 23,-14 2,0 3,0 3,0 -9,5 -17,10 -25,16 -2,4 -3,8 -3,13 -3,20 2,41 11,60 0,0 8,-5 8,-17 0,0 18,-41 10,-69l-1 -2c6,-4 12,-7 18,-9 1,-1 3,-1 4,-2 60,12 129,32 162,48 3,2 7,4 10,5 -2,1 -4,2 -5,3 -5,3 -9,7 -13,10 -12,-9 -38,-25 -71,-17 0,0 -4,2 -4,6 0,0 -12,-5 -21,3 0,0 -20,0 -29,13 0,0 -20,5 -17,15 0,0 -25,8 -22,17 0,0 -14,13 -14,29 0,0 0,0 -1,1 43,4 86,-6 129,-19 16,-17 33,-33 51,-46 1,0 1,1 2,1 -22,16 -42,36 -61,57 -8,9 -17,19 -25,28 -2,2 -3,4 -5,5 1,25 8,49 18,72 5,0 12,-2 18,-6 12,-9 3,-2 3,-2 0,0 16,0 26,-14 0,0 52,-36 50,-91 0,0 -5,-26 -21,-45 0,0 -1,-1 -3,-3 3,-2 5,-4 7,-5 4,-4 9,-6 15,-8 32,17 64,37 94,59 3,2 9,2 11,-2 0,-1 1,-2 2,-3 1,-2 2,-5 1,-8 1,0 1,-1 0,-2 -27,-20 -56,-38 -86,-53 -5,-5 -10,-9 -14,-14 -5,-6 -9,-12 -13,-19l2 -2c27,-26 33,-83 33,-83 8,-13 3,-24 2,-24 -22,15 -41,35 -51,60 -2,5 -4,11 -5,17z"/>
  <path class="fil1" d="M629 171c2,-30 1,-57 -11,-87 -3,-9 -7,-16 -12,-23 -1,-2 -2,-4 -4,-6l-2 1c2,3 4,5 6,8 4,6 7,13 10,20 16,40 12,74 9,116 0,9 0,17 1,25 -7,-7 -15,-12 -25,-16 -15,-6 -33,-9 -49,-10 0,1 0,2 0,3 16,1 34,3 49,9 10,4 18,10 25,18 3,26 11,50 23,74 0,0 0,0 0,0l0 0c5,11 11,21 17,32 2,0 3,0 3,0 -6,-10 -13,-21 -18,-32 1,-6 3,-12 5,-17 10,-25 29,-45 51,-60l0 0c1,-1 1,-2 2,-4 -24,16 -44,37 -55,63 -2,5 -3,9 -4,14 -15,-30 -25,-63 -23,-99 1,-8 1,-15 2,-23l0 0c0,-1 1,-2 1,-3 11,-28 40,-47 69,-57 -1,0 -1,-1 -2,-2 -28,10 -56,29 -68,56z"/>
  <path class="fil0" d="M557 485c-29,31 -65,53 -101,75 -6,4 -11,7 -16,10 2,1 5,1 10,-1 11,-3 55,-20 71,-14 16,6 37,6 48,-4 0,0 3,1 8,0 -9,-22 -16,-45 -17,-70 -1,1 -2,3 -3,4z"/>
  <path class="fil0" d="M555 483c2,-1 3,-3 5,-5 0,0 0,0 0,0l0 0c2,-2 4,-4 5,-5 9,-10 17,-19 26,-29 2,-2 4,-4 6,-7 -42,13 -84,22 -127,18 -2,6 -6,18 -2,28 0,0 -6,9 -1,22 0,0 -12,15 -9,28 0,0 -20,23 -23,34 0,0 1,1 3,2 5,-3 11,-7 17,-11 36,-22 71,-44 100,-75z"/>
  <path class="fil1" d="M567 474c8,-9 17,-19 25,-28 19,-21 39,-41 61,-57 -1,0 -1,-1 -2,-1 -18,13 -35,29 -51,46 -43,13 -86,23 -129,19 0,1 0,2 -1,2 43,4 85,-5 127,-18 -2,3 -4,5 -6,7 -9,10 -17,19 -26,29 -1,1 -3,3 -5,5l0 0c0,0 0,0 0,0 -2,2 -3,4 -5,5 -29,31 -64,53 -100,75 -6,4 -12,8 -17,11 0,1 1,1 2,1 5,-3 10,-6 16,-10 36,-22 72,-44 101,-75 1,-1 2,-3 3,-4 1,25 8,48 17,70 1,0 2,0 3,0 -10,-23 -17,-47 -18,-72 2,-1 3,-3 5,-5z"/>
  <path class="fil0" d="M392 404c3,-6 6,-11 10,-16 -7,2 -15,2 -23,1 -12,-2 -25,-7 -37,-13 -1,3 -1,7 0,11 0,0 -17,16 -6,31 0,0 -11,17 0,31 0,0 7,17 -10,39 5,-2 10,-5 15,-9 26,-21 36,-45 51,-75z"/>
  <path class="fil0" d="M383 426c-10,20 -21,38 -41,54 -5,4 -11,8 -17,11 0,1 2,4 10,3 0,0 4,7 14,4 0,0 3,7 13,0 0,0 4,6 14,-1 0,0 3,6 14,-4 0,0 7,7 15,-4 0,0 1,1 2,0 -15,-17 -26,-41 -24,-63z"/>
  <path class="fil0" d="M444 359c1,-4 2,-8 3,-12 -22,15 -41,33 -54,58 -2,6 -5,11 -8,16l1 0c-1,1 -1,2 -1,3 -3,23 8,47 24,64 2,-1 5,-3 8,-9 0,0 8,2 13,-10 0,0 6,0 11,-18 0,0 4,4 7,-14 0,-2 7,-3 9,-15 -10,-20 -16,-42 -13,-63z"/>
  <path class="fil1" d="M446 359c0,-5 1,-9 3,-13 8,-6 16,-11 25,-16 0,0 -1,0 -3,0 -8,4 -16,9 -23,14l-1 0c0,0 0,0 0,0 -16,12 -31,25 -43,41 -8,3 -16,3 -24,2 -13,-1 -26,-7 -37,-12 0,0 0,1 -1,1 12,6 25,11 37,13 8,1 16,1 23,-1 -4,5 -7,10 -10,16 -15,30 -25,54 -51,75 -5,4 -10,7 -15,9 -2,2 -4,3 -7,4l1 1c2,-1 3,-1 5,-2 6,-3 12,-7 17,-11 20,-16 31,-34 41,-54 -2,22 9,46 24,63 1,0 1,0 2,-1 -16,-17 -27,-41 -24,-64 0,-1 0,-2 1,-3l-1 0c3,-5 6,-10 8,-16 13,-25 32,-43 54,-58 -1,4 -2,8 -3,12 -3,21 3,43 13,63 0,-1 0,-2 0,-3l0 0c-9,-19 -14,-40 -11,-60z"/>
  <path class="fil0" d="M450 184c0,1 1,2 1,3 10,-15 23,-28 38,-39 -3,-2 -6,-3 -6,-3 -3,-10 -17,-19 -30,-21 -13,-2 -35,-30 -41,-36 -3,-3 -5,-4 -6,-4 2,4 4,8 6,12 16,28 31,56 38,88z"/>
  <path class="fil0" d="M457 223c-2,-9 -4,-19 -6,-28 0,-2 -1,-3 -1,-5l0 0c0,0 0,0 0,-1 -1,-1 -1,-3 -1,-4 -8,-32 -23,-60 -38,-88 -3,-5 -5,-9 -7,-14 -2,0 -3,1 -3,1 -2,8 2,31 2,31 -7,7 -4,22 -4,22 -9,6 -8,15 -8,15 -6,5 -8,14 -9,19 29,13 54,36 77,59 -1,-2 -1,-4 -2,-7z"/>
  <path class="fil1" d="M475 284c1,-1 1,-1 2,-1 -8,-19 -14,-39 -18,-60 -2,-9 -4,-19 -6,-28 -1,-2 -1,-4 -2,-5 10,-17 24,-30 39,-41 0,0 -1,-1 -1,-1 -15,11 -28,24 -38,39 0,-1 -1,-2 -1,-3 -7,-32 -22,-60 -38,-88 -2,-4 -4,-8 -6,-12 -1,-1 -2,-1 -2,-1 2,5 4,9 7,14 15,28 30,56 38,88 0,1 0,3 1,4 0,1 0,1 0,1l0 0c0,2 1,3 1,5 2,9 4,19 6,28 1,3 1,5 2,7 -23,-23 -48,-46 -77,-59 0,0 0,1 0,1 29,14 54,37 77,62 4,17 9,34 16,50z"/>
  <path class="fil0" d="M283 250c-2,0 -3,-1 -4,-1 -33,-11 -62,-29 -91,-48 -4,-3 -8,-6 -13,-8 1,2 2,4 4,7 7,7 34,33 36,47 1,14 8,29 19,34 0,0 1,3 3,6 13,-14 28,-28 46,-37z"/>
  <path class="fil0" d="M383 285c3,-12 8,-37 -11,-60 0,0 -3,-3 -6,-1 0,0 0,-11 -9,-14 0,0 -7,-15 -20,-17 0,0 -11,-13 -17,-7 0,0 -14,-16 -20,-10 0,0 -15,-6 -26,-1 0,0 -1,0 -2,0 13,33 35,61 59,88 18,6 36,13 52,22z"/>
  <path class="fil0" d="M280 247c1,1 3,2 5,2 0,0 0,0 0,0l0 0c2,1 4,1 6,2 9,3 19,6 29,9 3,1 5,2 8,2 -24,-26 -45,-54 -58,-87 -5,0 -15,1 -20,8 0,0 -10,-2 -17,7 0,0 -16,-4 -24,3 0,0 -24,-6 -33,-5 0,0 -1,1 -1,3 5,2 9,5 14,8 29,19 58,38 91,48z"/>
  <path class="fil1" d="M285 251c2,1 3,1 5,2 10,3 20,6 30,9 22,6 43,14 63,24 0,0 0,-1 0,-1 0,0 0,0 0,0 -16,-9 -34,-16 -52,-22 -24,-27 -46,-55 -59,-88 0,0 -1,0 -2,0 13,33 34,61 58,87 -3,0 -5,-1 -8,-2 -10,-3 -20,-6 -29,-9 -2,-1 -4,-1 -6,-2l0 0c0,0 0,0 0,0 -2,0 -4,-1 -5,-2 -33,-10 -62,-29 -91,-48 -5,-3 -9,-6 -14,-8 0,0 0,1 0,2 5,2 9,5 13,8 29,19 58,37 91,48 1,0 2,1 4,1 -18,9 -33,23 -46,37 0,1 0,1 1,2 13,-15 29,-29 47,-38z"/>
  <path class="fil0" d="M1151 250c0,-9 -1,-17 -2,-25 -6,-42 -12,-76 0,-117 2,-8 5,-14 9,-21 -2,37 18,49 18,49 22,7 23,33 23,33 22,8 16,38 16,38 4,3 6,7 7,11 -16,2 -34,6 -48,14 -9,4 -17,10 -23,18z"/>
  <path class="fil0" d="M1112 103c7,-15 15,-9 15,-9 7,-11 17,-6 17,-6 8,-7 11,-6 13,-4 -4,7 -8,15 -10,24 -9,31 -8,58 -4,87 -14,-26 -43,-42 -72,-49 1,-2 3,-3 3,-3 -1,-16 12,-15 12,-15 5,-18 12,-14 12,-14 5,-15 14,-11 14,-11z"/>
  <path class="fil0" d="M1142 199c1,1 1,2 2,3l0 0c1,7 2,15 3,23 5,35 -2,68 -14,100 -2,-5 -4,-9 -6,-14 -13,-25 -34,-44 -59,-58 -7,-14 -1,-20 -2,-22 -11,-21 -3,-20 -3,-20 -8,-23 -2,-27 -2,-27 -3,-16 7,-20 7,-20 -1,-9 0,-13 1,-16 30,7 60,24 73,51z"/>
  <path class="fil0" d="M1132 329c-5,11 -10,22 -16,34 1,0 2,-1 3,-1 6,-11 11,-22 15,-33l0 0c0,0 0,0 0,0 10,-25 16,-50 17,-76 6,-8 14,-15 24,-20 14,-7 32,-11 48,-13 2,11 -8,19 -8,19 11,10 -4,28 -4,28 10,13 -9,24 -9,24 7,13 -19,27 -19,27 4,21 -43,38 -60,43 -3,8 -7,15 -11,22 -1,1 -2,3 -3,4 51,-29 106,-51 163,-66 5,-1 10,-3 15,-4 2,-2 4,-3 5,-5 5,-5 9,-11 12,-17 -3,0 -4,0 -4,0 -18,-6 -32,-20 -32,-20 -25,-33 -8,-78 -8,-78 0,-13 10,-20 10,-20 0,0 -3,8 1,-3 2,-5 5,-9 9,-12 16,11 30,22 42,38 -1,2 -1,3 -1,5 -1,10 -3,19 -4,29 -3,21 -6,42 -13,61 0,0 1,0 2,0 5,-16 8,-33 11,-51 22,-26 44,-50 72,-67 1,1 1,1 1,1 6,10 3,24 3,24 6,5 -6,21 -6,21 6,4 -5,16 -5,16 1,12 -12,21 -12,21 -2,9 -11,11 -11,11 1,2 -1,5 -1,5 -16,19 -38,21 -50,20 -1,5 -3,11 -7,17 0,0 -1,1 -1,1 33,-7 66,-14 97,-25 0,1 1,1 1,2 19,-12 39,-21 61,-30 9,-4 19,-7 29,-11 1,-1 3,-2 5,-2 19,7 35,20 50,34 -2,4 -5,8 -11,12 -10,6 -2,1 -2,1 0,0 -4,13 -18,17 0,0 -43,29 -84,11 0,0 -17,-10 -28,-27 -28,13 -57,23 -87,31 -5,1 -9,2 -14,3 6,3 11,6 16,10 12,-5 50,-19 58,-3 0,0 22,-5 24,6 0,0 17,-2 18,10 0,0 17,3 15,15 0,0 10,0 15,8 -11,6 -24,13 -36,15 -8,2 -16,2 -24,0 -13,-15 -29,-27 -47,-37 0,0 0,0 0,0l0 0c-8,-5 -17,-9 -25,-13 -1,1 -2,1 -2,1 9,4 17,8 26,13 1,4 3,9 4,13 4,20 1,41 -7,61 0,0 -8,-4 -8,-17 0,0 -22,-39 -16,-67l1 -2c-6,-4 -13,-6 -19,-8 -2,0 -3,-1 -5,-1 -58,17 -126,42 -157,61 -3,2 -6,4 -9,6 1,0 3,1 5,2 5,2 10,5 14,9 11,-11 35,-29 69,-23 0,0 4,1 5,6 0,0 11,-7 20,1 0,0 21,-2 30,11 0,0 21,3 18,13 0,0 26,6 24,16 0,0 15,12 16,27 0,0 0,0 1,1 -43,7 -86,1 -130,-8 -17,-16 -35,-31 -54,-43 -1,1 -1,1 -2,2 23,14 44,33 65,52 9,8 18,17 28,26 1,1 3,3 5,4 1,26 -4,50 -12,74 -6,0 -12,-1 -19,-5 -13,-8 -3,-2 -3,-2 0,0 -16,2 -27,-12 0,0 -55,-32 -57,-86 0,0 2,-27 17,-47 0,0 1,-1 2,-3 -2,-2 -4,-3 -6,-5 -5,-3 -11,-5 -16,-6 -30,19 -61,42 -90,66 -2,2 -7,3 -10,-1 -1,-1 -1,-2 -2,-3 -2,-2 -3,-5 -2,-8 -1,0 -1,-1 0,-1 25,-23 53,-43 81,-61 5,-4 9,-9 13,-14 5,-7 8,-14 11,-21l-2 -1c-29,-24 -39,-81 -39,-81 -10,-12 -5,-23 -5,-23 24,13 44,31 56,55 3,5 5,11 7,17z"/>
  <path class="fil1" d="M1143 195c-4,-29 -5,-56 4,-87 2,-9 6,-17 10,-24 1,-2 2,-4 4,-7l1 2c-1,2 -3,5 -4,8 -4,7 -7,13 -9,21 -12,41 -6,75 0,117 1,8 2,16 2,25 6,-8 14,-14 23,-18 14,-8 32,-12 48,-14 0,0 1,1 1,2 -16,2 -34,6 -48,13 -10,5 -18,12 -24,20 -1,26 -7,51 -17,76 0,0 0,0 0,0l0 0c-4,11 -9,22 -15,33 -1,0 -2,1 -3,1 6,-12 11,-23 16,-34 -2,-6 -4,-12 -7,-17 -12,-24 -32,-42 -56,-55l0 0c0,-1 -1,-3 -1,-4 25,14 46,33 59,58 2,5 4,9 6,14 12,-32 19,-65 14,-100 -1,-8 -2,-16 -3,-23l0 0c-1,-1 -1,-2 -2,-3 -13,-27 -43,-44 -73,-51 1,-1 1,-2 2,-2 29,7 58,23 72,49z"/>
  <path class="fil0" d="M1240 502c32,29 69,49 107,68 6,2 11,5 17,8 -3,1 -6,1 -10,0 -11,-2 -56,-15 -72,-8 -16,7 -37,8 -48,-1 0,0 -4,1 -9,2 8,-23 13,-47 12,-72 1,1 2,2 3,3z"/>
  <path class="fil0" d="M1242 501c-2,-2 -4,-3 -5,-5 0,0 0,0 0,0l-1 0c-1,-2 -3,-3 -5,-5 -9,-8 -18,-17 -28,-26 -2,-2 -4,-4 -7,-6 43,8 86,14 128,7 3,6 8,17 4,27 0,0 8,9 3,23 0,0 14,14 12,26 0,0 21,22 25,33 0,0 0,1 -2,2 -6,-3 -12,-6 -18,-9 -38,-19 -75,-39 -106,-67z"/>
  <path class="fil1" d="M1230 493c-10,-9 -19,-18 -28,-26 -21,-19 -42,-38 -65,-52 1,-1 1,-1 2,-2 19,12 37,27 54,43 44,9 87,15 130,8 0,1 1,2 1,2 -42,7 -85,1 -128,-7 3,2 5,4 7,6 10,9 19,18 28,26 2,2 4,3 5,5l1 0c0,0 0,0 0,0 1,2 3,3 5,5 31,28 68,48 106,67 6,3 12,6 18,9 -1,1 -2,1 -2,1 -6,-3 -11,-6 -17,-8 -38,-19 -75,-39 -107,-68 -1,-1 -2,-2 -3,-3 1,25 -4,49 -12,72 0,0 -1,0 -2,0 8,-24 13,-48 12,-74 -2,-1 -4,-3 -5,-4z"/>
  <path class="fil0" d="M1398 409c-3,-6 -7,-11 -11,-16 7,2 15,2 22,0 13,-3 25,-9 36,-16 1,3 2,6 2,11 0,0 18,14 8,30 0,0 13,16 3,31 0,0 -7,18 13,39 -6,-3 -11,-5 -16,-9 -27,-19 -40,-42 -57,-70z"/>
  <path class="fil0" d="M1409 430c12,19 24,36 45,50 6,4 11,7 18,10 0,2 -2,4 -10,4 0,0 -4,8 -13,5 0,0 -2,7 -13,1 0,0 -4,7 -14,0 0,0 -3,6 -15,-2 0,0 -7,7 -15,-3 0,0 -1,0 -2,0 14,-18 23,-43 19,-65z"/>
  <path class="fil0" d="M1342 368c0,-4 -2,-8 -3,-12 23,14 43,30 58,54 3,5 6,10 9,15l0 0c0,1 0,2 1,3 5,23 -5,48 -19,66 -2,-1 -5,-3 -9,-8 0,0 -8,2 -14,-9 0,0 -6,0 -12,-17 0,0 -4,4 -8,-14 0,-2 -7,-3 -10,-14 8,-20 12,-43 7,-64z"/>
  <path class="fil1" d="M1341 368c-1,-4 -3,-9 -4,-13 -9,-5 -17,-9 -26,-13 0,0 1,0 2,-1 8,4 17,8 25,13l0 0c0,0 0,0 0,0 18,10 34,22 47,37 8,2 16,2 24,0 12,-2 25,-9 36,-15 0,0 0,1 0,1 -11,7 -23,13 -36,16 -7,2 -15,2 -22,0 4,5 8,10 11,16 17,28 30,51 57,70 5,4 10,6 16,9 2,1 4,1 7,2l-1 2c-2,-1 -4,-1 -5,-2 -7,-3 -12,-6 -18,-10 -21,-14 -33,-31 -45,-50 4,22 -5,47 -19,65 -1,0 -1,0 -2,-1 14,-18 24,-43 19,-66 -1,-1 -1,-2 -1,-3l0 0c-3,-5 -6,-10 -9,-15 -15,-24 -35,-40 -58,-54 1,4 3,8 3,12 5,21 1,44 -7,64 0,-1 0,-2 -1,-3l0 0c8,-20 11,-41 7,-61z"/>
  <path class="fil0" d="M1322 194c0,1 0,3 0,4 -11,-15 -26,-27 -41,-37 3,-2 6,-3 6,-3 2,-11 15,-20 28,-23 12,-3 32,-33 38,-40 2,-3 4,-4 6,-4 -2,4 -4,8 -6,12 -13,30 -26,59 -31,91z"/>
  <path class="fil0" d="M1319 234c1,-10 2,-19 4,-29 0,-1 0,-3 0,-5l1 0c-1,0 -1,0 -1,0 1,-2 1,-4 1,-5 5,-32 18,-62 31,-91 2,-5 4,-9 6,-14 1,0 2,0 2,0 3,9 1,32 1,32 7,6 6,21 6,21 9,6 9,14 9,14 7,5 9,14 10,18 -28,17 -50,41 -71,66 0,-2 0,-5 1,-7z"/>
  <path class="fil1" d="M1306 295c-1,0 -2,0 -2,0 7,-19 10,-40 13,-61 1,-10 3,-19 4,-29 0,-2 0,-3 1,-5 -12,-16 -26,-27 -42,-38 0,0 1,0 1,-1 15,10 30,22 41,37 0,-1 0,-3 0,-4 5,-32 18,-61 31,-91 2,-4 4,-8 6,-12 0,-1 1,-1 2,-1 -2,5 -4,9 -6,14 -13,29 -26,59 -31,91 0,1 0,3 -1,5 0,0 0,0 1,0l-1 0c0,2 0,4 0,5 -2,10 -3,19 -4,29 -1,2 -1,5 -1,7 21,-25 43,-49 71,-66 0,1 0,2 0,2 -28,17 -50,41 -72,67 -3,18 -6,35 -11,51z"/>
  <path class="fil0" d="M1495 247c1,-1 2,-1 3,-2 33,-13 60,-34 87,-55 4,-4 8,-6 12,-9 0,2 -1,4 -3,7 -6,7 -32,36 -32,50 0,14 -6,30 -17,35 0,0 0,3 -2,7 -14,-14 -30,-26 -48,-33z"/>
  <path class="fil0" d="M1397 289c-4,-11 -10,-36 7,-60 0,0 2,-3 5,-2 0,0 0,-10 9,-14 0,0 5,-16 18,-19 0,0 10,-14 16,-8 0,0 13,-17 20,-12 0,0 14,-7 25,-3 0,0 1,0 2,0 -10,34 -30,64 -52,93 -17,7 -34,15 -50,25z"/>
  <path class="fil0" d="M1497 244c-1,0 -3,1 -4,2 -1,0 -1,0 -1,0l0 0c-2,1 -3,1 -5,2 -10,4 -19,8 -29,12 -3,0 -5,1 -7,2 21,-28 40,-58 50,-91 5,0 15,0 21,6 0,0 9,-2 18,6 0,0 15,-6 23,1 0,0 24,-9 33,-8 0,0 1,1 1,3 -4,3 -9,6 -13,9 -27,22 -54,42 -87,56z"/>
  <path class="fil1" d="M1493 248c-2,0 -4,1 -5,2 -10,4 -20,7 -29,11 -22,9 -42,18 -61,30 0,-1 -1,-1 -1,-2 0,0 0,0 0,0 16,-10 33,-18 50,-25 22,-29 42,-59 52,-93 0,0 1,0 2,0 -10,33 -29,63 -50,91 2,-1 4,-2 7,-2 10,-4 19,-8 29,-12 2,-1 3,-1 5,-2l0 0c0,0 0,0 1,0 1,-1 3,-2 4,-2 33,-14 60,-34 87,-56 4,-3 9,-6 13,-9 0,0 0,1 0,2 -4,3 -8,5 -12,9 -27,21 -54,42 -87,55 -1,1 -2,1 -3,2 18,7 34,19 48,33 0,0 0,1 0,2 -15,-14 -31,-27 -50,-34z"/>
  <path class="fil2" d="M690 237c1,-3 3,-7 4,-10 13,-25 33,-41 56,-49 6,-2 11,-3 17,-3 -6,-21 -2,-40 9,-55 5,-6 11,-12 17,-17 -7,-3 -14,-3 -22,-2 -9,1 -17,3 -25,5 -21,7 -41,21 -51,41 -13,24 -17,56 -8,81 1,3 2,6 3,9z"/>
  <path class="fil2" d="M938 54c8,9 13,18 17,29 19,-1 38,3 53,10 1,1 3,2 4,3 29,-8 55,-2 78,13 0,-9 -2,-18 -5,-28 -1,-2 -2,-5 -3,-8 -14,-38 -51,-53 -90,-62 -26,-7 -51,-6 -74,2 -9,3 -18,7 -27,12 18,5 35,15 47,29z"/>
  <path class="fil2" d="M689 145c0,0 0,0 0,-1 11,-22 32,-36 55,-44 4,-15 11,-27 20,-38 -6,0 -12,0 -17,1 -2,0 -5,1 -8,2 0,0 0,0 0,0l0 0c-1,0 -2,0 -3,0 -17,6 -34,18 -46,29 -14,14 -36,49 -33,70 7,-8 16,-14 26,-18 2,0 4,-1 6,-1z"/>
  <path class="fil2" d="M1168 273c-6,-19 -16,-35 -31,-44 -3,14 -8,28 -15,40 -6,10 -15,16 -23,23 1,2 1,3 2,5 9,27 1,59 -13,85l0 -1c3,6 5,11 7,16 2,7 4,15 3,25 0,8 -2,17 -4,25 12,-4 26,-10 34,-17 37,-35 43,-73 46,-97 3,-18 1,-40 -6,-60z"/>
  <path class="fil2" d="M745 457c-2,-4 -4,-9 -6,-14 -9,-27 -8,-57 10,-80 -32,-10 -53,-31 -62,-58 0,0 0,0 0,0 -2,-6 -4,-13 -4,-20 -26,23 -27,69 -18,100 0,2 1,3 1,5 9,27 30,49 56,62 7,4 14,5 23,5z"/>
  <path class="fil2" d="M1092 421c0,-8 -1,-15 -3,-22 -1,-4 -3,-7 -5,-11 -2,4 -5,8 -8,12 -17,23 -48,47 -79,58 -9,2 -17,4 -25,5 -11,0 -23,-1 -34,-4 -1,4 -2,8 -4,13 -10,24 -29,39 -51,46 -8,3 -17,5 -26,5 0,1 0,2 1,2 5,16 27,24 43,28 31,8 65,6 95,-4 4,-1 8,-2 11,-4 49,-20 82,-72 85,-124z"/>
  <path class="fil2" d="M1092 79c3,11 5,23 4,35 10,8 18,17 25,28 6,8 10,17 13,26 5,17 7,36 4,54 13,7 23,19 29,32 2,-6 3,-12 4,-19 3,-29 3,-59 -6,-86 -4,-11 -9,-21 -16,-31 -12,-20 -37,-46 -61,-49 0,1 0,1 0,2 1,3 3,6 4,8z"/>
  <path class="fil2" d="M1171 262c2,3 3,6 4,9 6,21 8,44 6,62 -1,4 -1,7 -2,11 18,-16 27,-48 28,-71 1,-13 0,-33 -6,-50 -4,-14 -12,-25 -22,-30 1,14 0,29 -2,43 0,9 -2,18 -6,26z"/>
  <path class="fil2" d="M682 278c0,-11 2,-22 5,-33 -2,-5 -5,-10 -6,-15 -9,-25 -6,-54 4,-78 0,0 0,0 0,0 -22,7 -36,32 -45,54 -10,26 -14,57 -5,83 1,4 3,9 5,13 4,8 9,14 16,19 4,-17 12,-33 26,-43z"/>
  <path class="fil2" d="M811 278c-3,13 -3,27 1,39 3,10 9,19 20,26 8,6 18,8 28,9 -3,-4 -5,-9 -7,-14 -1,-2 -2,-5 -2,-8 -2,-15 3,-30 16,-37 -7,-5 -12,-12 -14,-19 0,0 0,0 0,0 -5,-14 -1,-30 11,-43 -6,0 -12,1 -18,3 -18,6 -31,22 -35,44z"/>
  <path class="fil2" d="M1095 454c-1,0 -2,1 -2,1 -4,13 -10,25 -17,37 7,0 13,1 18,0 7,0 12,-1 18,-3 39,-13 64,-57 52,-96 -7,14 -17,28 -32,42 -9,8 -25,15 -37,19z"/>
  <path class="fil2" d="M859 272c2,6 6,11 12,15 1,-13 9,-25 23,-29 16,-6 33,2 39,18 8,-6 14,-9 18,-22 1,-7 1,-13 0,-17 -3,-9 -11,-15 -22,-18 -11,-3 -24,-3 -37,2 -1,0 -1,0 -2,1 -26,9 -37,33 -31,50z"/>
  <path class="fil2" d="M813 254c7,-12 18,-22 31,-26 8,-3 17,-4 26,-3 5,-4 11,-7 17,-10 1,0 2,0 3,-1 20,-6 40,-5 54,4l0 -1c0,0 1,0 1,0 0,-2 0,-5 -1,-7 -2,-5 -5,-10 -10,-14 -21,-18 -56,-20 -82,-11 -2,0 -3,1 -5,2 -27,10 -39,40 -34,67z"/>
  <path class="fil2" d="M994 257c-7,-21 -23,-37 -44,-34 3,3 5,7 7,12 2,6 2,13 0,21 -4,15 -13,20 -22,26 1,1 1,2 1,3 13,-1 24,7 30,19 1,2 2,4 3,6 1,3 1,7 1,10 2,0 3,-1 4,-1 5,-2 9,-4 12,-7 12,-13 14,-36 8,-55z"/>
  <path class="fil2" d="M1060 214c-1,-2 -1,-3 -2,-5 -12,-27 -43,-43 -70,-49 -16,-4 -31,-3 -43,1 -10,3 -20,9 -28,18 8,3 15,7 21,12 6,5 10,10 12,17 1,3 1,5 2,8 24,-1 41,17 48,39 7,21 5,45 -9,61 -4,5 -9,7 -15,9 -2,1 -4,1 -6,2 0,3 -1,7 -2,10 3,3 5,7 6,10 9,-1 18,-3 26,-6 7,-2 13,-5 19,-9 33,-21 54,-79 41,-118z"/>
  <path class="fil2" d="M884 428c15,2 28,0 40,-3 22,-8 38,-25 44,-52 2,-9 2,-16 0,-23 0,-2 -1,-4 -3,-6 -2,4 -5,9 -8,12 -7,7 -14,12 -22,14 -13,5 -28,4 -42,1 -10,-2 -19,-7 -27,-13l0 1c-13,0 -26,-3 -38,-11 -3,-2 -6,-4 -9,-7 -2,14 -1,28 3,40 9,25 29,44 62,47z"/>
  <path class="fil2" d="M896 264c-14,4 -21,19 -17,33 5,13 19,20 33,16 13,-4 21,-19 16,-33 -4,-13 -19,-21 -32,-16z"/>
  <path class="fil2" d="M960 307c-6,-11 -13,-16 -24,-16 -1,13 -10,24 -22,28 -17,6 -35,-3 -41,-20 0,-1 0,-1 0,-2 -13,6 -18,17 -16,32 1,3 1,5 2,7 5,16 19,25 36,29 13,3 26,3 38,-1 7,-2 13,-6 19,-12 10,-11 15,-26 10,-40 0,-2 -1,-4 -2,-5z"/>
  <path class="fil2" d="M1019 101c14,12 25,30 30,47 2,4 3,9 4,13 2,9 0,16 -3,24 5,6 10,13 14,21 1,2 1,4 2,6 5,15 5,32 3,48 12,7 21,16 27,26 8,-6 15,-12 20,-20 17,-29 22,-65 11,-96 -2,-8 -6,-17 -11,-24 -22,-34 -58,-53 -97,-45z"/>
  <path class="fil2" d="M995 451c29,-9 59,-33 76,-55 20,-25 34,-67 24,-97 -5,-13 -13,-24 -28,-32 -6,29 -23,56 -45,71 -6,4 -13,7 -20,9 -9,3 -18,5 -26,7 1,6 0,13 -1,20 -6,25 -19,42 -38,52 2,9 3,18 2,26 10,4 22,5 33,4 7,0 15,-2 23,-5z"/>
  <path class="fil2" d="M751 98c6,-1 13,-3 19,-4 10,-1 20,0 30,4 7,-5 16,-9 25,-12 30,-10 65,-9 90,7 4,-2 9,-4 13,-6 7,-2 14,-3 20,-4 -3,-9 -8,-17 -14,-24 -28,-32 -75,-39 -115,-26 -32,11 -58,33 -68,65z"/>
  <path class="fil2" d="M773 174c20,-2 41,3 60,13 3,-3 7,-5 11,-6 2,-1 4,-2 6,-2 19,-6 41,-8 61,-2l-1 -1c10,-10 21,-18 33,-21 0,-1 1,-1 1,-1 -1,-6 -3,-12 -5,-18 -2,-5 -4,-10 -6,-15 -19,-34 -66,-42 -106,-29 -37,13 -65,42 -54,82z"/>
  <path class="fil2" d="M881 512c21,-7 38,-20 47,-43 5,-13 6,-26 3,-40 -2,0 -4,1 -5,2 -13,4 -27,5 -43,4 -35,-4 -58,-24 -67,-52 0,0 0,0 0,0 -2,-6 -3,-12 -4,-18 -18,6 -38,5 -57,0 -17,21 -19,50 -10,76 9,28 29,53 53,64 25,13 57,16 83,7z"/>
  <path class="fil2" d="M755 358c18,5 38,7 56,1 0,0 0,0 1,0 -1,-8 0,-16 1,-24l1 1c-3,-5 -6,-11 -8,-17 0,0 0,0 0,0 -5,-13 -5,-28 -2,-42 1,-5 3,-9 4,-14l0 1c-7,-26 0,-55 19,-73 -24,-12 -51,-14 -75,-7 -21,8 -40,23 -52,46 -12,25 -14,51 -7,73 8,26 29,47 62,55z"/>
  <path class="fil2" d="M795 511c-19,-9 -36,-27 -47,-47 -10,0 -19,-1 -29,-6 -7,-4 -14,-8 -21,-13 1,3 2,7 3,10 6,18 19,35 32,46 24,22 53,33 85,32 12,-1 21,-4 33,-8 0,0 0,-1 0,-1 -20,0 -39,-4 -56,-13z"/>
  <path class="fil2" d="M945 134c2,6 4,13 5,19 12,-3 25,-2 39,1 19,4 40,13 56,27 2,-7 3,-12 1,-19 0,-4 -1,-8 -3,-12 -6,-20 -21,-42 -38,-51 -21,-11 -51,-13 -75,-6 -3,1 -6,3 -9,4 7,6 13,13 17,21 3,5 5,11 7,16z"/>
  <path class="fil1" d="M1010 551c26,-11 48,-31 63,-54l0 1c7,0 14,1 22,1 7,-1 13,-2 19,-4 8,-3 15,-6 22,-11 16,-11 28,-27 34,-45 4,-16 5,-32 0,-48 -1,-2 -2,-4 -3,-6 5,-11 8,-22 10,-32l0 1c24,-17 34,-51 36,-78 0,-1 0,-2 1,-3 0,-14 -1,-34 -7,-52 0,-1 0,-1 -1,-2 -5,-15 -13,-28 -28,-33 -1,-13 -3,-26 -7,-39 -4,-11 -9,-22 -16,-33 -14,-21 -41,-50 -70,-52 -17,-32 -50,-47 -84,-56 -2,0 -5,-1 -7,-2 -1,0 -3,0 -4,0 -26,-6 -50,-5 -74,3 -11,3 -23,9 -34,16 -21,-4 -44,-3 -66,4 -17,6 -33,15 -45,27 -8,2 -16,1 -25,2 -1,1 -3,1 -4,1 -3,1 -5,1 -8,2 0,0 0,0 0,0 -18,6 -36,18 -49,30 -16,17 -41,55 -33,82 -8,10 -13,22 -18,33 -11,27 -15,59 -5,87 1,5 3,9 5,13 0,0 0,0 0,1 1,1 2,3 3,5 5,7 10,13 18,18 -3,20 -1,42 3,59 1,2 1,3 2,5 6,18 17,34 31,47 0,4 1,8 2,12 0,2 1,4 2,6 0,0 0,0 0,1 6,19 20,36 33,48 12,11 24,18 38,24 2,1 4,2 6,2 15,5 30,8 46,7 13,0 24,-5 35,-8 8,15 25,22 40,26 2,1 4,1 6,2 0,0 1,0 1,0 31,8 67,7 98,-4 4,-1 8,-2 12,-4zm102 -62l0 0c-6,2 -11,3 -18,3 -5,1 -11,0 -18,0 7,-12 13,-24 17,-37 0,0 1,-1 2,-1 12,-4 28,-11 37,-19 15,-14 25,-28 32,-42 12,39 -13,83 -52,96zm16 -59l0 0c-8,7 -22,13 -34,17 2,-8 4,-17 4,-25 1,-10 -1,-18 -3,-25 -2,-5 -4,-10 -7,-16l0 1c14,-26 22,-58 13,-85 -1,-2 -1,-3 -2,-5 8,-7 17,-13 23,-23 7,-12 12,-26 15,-40 15,9 25,25 31,44 7,20 9,42 6,60 -3,24 -9,62 -46,97zm-383 11l0 0c-9,-26 -7,-55 10,-76 19,5 39,6 57,0 1,6 2,12 4,18 0,0 0,0 0,0 9,28 32,48 67,52 16,1 30,0 43,-4 1,-1 3,-2 5,-2 3,14 2,27 -3,40 -9,23 -26,36 -47,43 -26,9 -58,6 -83,-7 -24,-11 -44,-36 -53,-64zm-45 -211l0 0c12,-23 31,-38 52,-46 24,-7 51,-5 75,7 -19,18 -26,47 -19,73l0 -1c-1,5 -3,9 -4,14 -3,14 -3,29 2,42 0,0 0,0 0,0 2,6 5,12 8,17l-1 -1c-1,8 -2,16 -1,24 -1,0 -1,0 -1,0 -18,6 -38,4 -56,-1 -33,-8 -54,-29 -62,-55 -7,-22 -5,-48 7,-73zm-5 -83l0 0c10,-20 30,-34 51,-41 8,-2 16,-4 25,-5 8,-1 15,-1 22,2 -6,5 -12,11 -17,17 -11,15 -15,34 -9,55 -6,0 -11,1 -17,3 -23,8 -43,24 -56,49 -1,3 -3,7 -4,10 -1,-3 -2,-6 -3,-9 -9,-25 -5,-57 8,-81zm235 -54l0 0c24,-7 54,-5 75,6 17,9 32,31 38,51 2,4 3,8 3,12 2,7 1,12 -1,19 -16,-14 -37,-23 -56,-27 -14,-3 -27,-4 -39,-1 -1,-6 -3,-13 -5,-19 -2,-5 -4,-11 -7,-16 -4,-8 -10,-15 -17,-21 3,-1 6,-3 9,-4zm186 53l0 0c5,7 9,16 11,24 11,31 6,67 -11,96 -5,8 -12,14 -20,20 -6,-10 -15,-19 -27,-26 2,-16 2,-33 -3,-48 -1,-2 -1,-4 -2,-6 -4,-8 -9,-15 -14,-21 3,-8 5,-15 3,-24 -1,-4 -2,-9 -4,-13 -5,-17 -16,-35 -30,-47 39,-8 75,11 97,45zm-297 195l0 0c3,3 6,5 9,7 12,8 25,11 38,11l0 -1c8,6 17,11 27,13 14,3 29,4 42,-1 8,-2 15,-7 22,-14 3,-3 6,-8 8,-12 2,2 3,4 3,6 2,7 2,14 0,23 -6,27 -22,44 -44,52 -12,3 -25,5 -40,3 -33,-3 -53,-22 -62,-47 -4,-12 -5,-26 -3,-40zm28 -154l0 0c2,-1 3,-2 5,-2 26,-9 61,-7 82,11 5,4 8,9 10,14 1,2 1,5 1,7 0,0 -1,0 -1,0l0 1c-14,-9 -34,-10 -54,-4 -1,1 -2,1 -3,1 -6,3 -12,6 -17,10 -9,-1 -18,0 -26,3 -13,4 -24,14 -31,26 -5,-27 7,-57 34,-67zm105 165l0 0c-6,6 -12,10 -19,12 -12,4 -25,4 -38,1 -17,-4 -31,-13 -36,-29 -1,-2 -1,-4 -2,-7 -2,-15 3,-26 16,-32 0,1 0,1 0,2 6,17 24,26 41,20 12,-4 21,-15 22,-28 11,0 18,5 24,16 1,1 2,3 2,5 5,14 0,29 -10,40zm-62 -130l0 0c1,-1 1,-1 2,-1 13,-5 26,-5 37,-2 11,3 19,9 22,18 1,4 1,10 0,17 -4,13 -10,16 -18,22 -6,-16 -23,-24 -39,-18 -14,4 -22,16 -23,29 -6,-4 -10,-9 -12,-15 -6,-17 5,-41 31,-50zm22 91l0 0c-14,4 -28,-3 -33,-16 -4,-14 3,-29 17,-33 13,-5 28,3 32,16 5,14 -3,29 -16,33zm58 7l0 0c0,-3 0,-7 -1,-10 -1,-2 -2,-4 -3,-6 -6,-12 -17,-20 -30,-19 0,-1 0,-2 -1,-3 9,-6 18,-11 22,-26 2,-8 2,-15 0,-21 -2,-5 -4,-9 -7,-12 21,-3 37,13 44,34 6,19 4,42 -8,55 -3,3 -7,5 -12,7 -1,0 -2,1 -4,1zm-124 -86l0 0c6,-2 12,-3 18,-3 -12,13 -16,29 -11,43 0,0 0,0 0,0 2,7 7,14 14,19 -13,7 -18,22 -16,37 0,3 1,6 2,8 2,5 4,10 7,14 -10,-1 -20,-3 -28,-9 -11,-7 -17,-16 -20,-26 -4,-12 -4,-26 -1,-39 4,-22 17,-38 35,-44zm128 113l0 0c-1,-3 -3,-7 -6,-10 1,-3 2,-7 2,-10 2,-1 4,-1 6,-2 6,-2 11,-4 15,-9 14,-16 16,-40 9,-61 -7,-22 -24,-40 -48,-39 -1,-3 -1,-5 -2,-8 -2,-7 -6,-12 -12,-17 -6,-5 -13,-9 -21,-12 8,-9 18,-15 28,-18 12,-4 27,-5 43,-1 27,6 58,22 70,49 1,2 1,3 2,5 13,39 -8,97 -41,118 -6,4 -12,7 -19,9 -8,3 -17,5 -26,6zm-41 -226l0 0c2,5 4,10 6,15 2,6 4,12 5,18 0,0 -1,0 -1,1 -12,3 -23,11 -33,21l1 1c-20,-6 -42,-4 -61,2 -2,0 -4,1 -6,2 -4,1 -8,3 -11,6 -19,-10 -40,-15 -60,-13 -11,-40 17,-69 54,-82 40,-13 87,-5 106,29zm4 305l0 0c19,-10 32,-27 38,-52 1,-7 2,-14 1,-20 8,-2 17,-4 26,-7 7,-2 14,-5 20,-9 22,-15 39,-42 45,-71 15,8 23,19 28,32 10,30 -4,72 -24,97 -17,22 -47,46 -76,55 -8,3 -16,5 -23,5 -11,1 -23,0 -33,-4 1,-8 0,-17 -2,-26zm264 -203l0 0c6,17 7,37 6,50 -1,23 -10,55 -28,71 1,-4 1,-7 2,-11 2,-18 0,-41 -6,-62 -1,-3 -2,-6 -4,-9 4,-8 6,-17 6,-26 2,-14 3,-29 2,-43 10,5 18,16 22,30zm-52 -105l0 0c7,10 12,20 16,31 9,27 9,57 6,86 -1,7 -2,13 -4,19 -6,-13 -16,-25 -29,-32 3,-18 1,-37 -4,-54 -3,-9 -7,-18 -13,-26 -7,-11 -15,-20 -25,-28 1,-12 -1,-24 -4,-35 -1,-2 -3,-5 -4,-8 0,-1 0,-1 0,-2 24,3 49,29 61,49zm-231 -105l0 0c23,-8 48,-9 74,-2 39,9 76,24 90,62 1,3 2,6 3,8 3,10 5,19 5,28 -23,-15 -49,-21 -78,-13 -1,-1 -3,-2 -4,-3 -15,-7 -34,-11 -53,-10 -4,-11 -9,-20 -17,-29 -12,-14 -29,-24 -47,-29 9,-5 18,-9 27,-12zm-99 20l0 0c40,-13 87,-6 115,26 6,7 11,15 14,24 -6,1 -13,2 -20,4 -4,2 -9,4 -13,6 -25,-16 -60,-17 -90,-7 -9,3 -18,7 -25,12 -10,-4 -20,-5 -30,-4 -6,1 -13,3 -19,4 10,-32 36,-54 68,-65zm-129 61l0 0c12,-11 29,-23 46,-29 1,0 2,0 3,0l0 0c0,0 0,0 0,0 3,-1 6,-2 8,-2 5,-1 11,-1 17,-1 -9,11 -16,23 -20,38 -23,8 -44,22 -55,44 0,1 0,1 0,1 -2,0 -4,1 -6,1 -10,4 -19,10 -26,18 -3,-21 19,-56 33,-70zm-50 208l0 0c-2,-4 -4,-9 -5,-13 -9,-26 -5,-57 5,-83 9,-22 23,-47 45,-54 0,0 0,0 0,0 -10,24 -13,53 -4,78 1,5 4,10 6,15 -3,11 -5,22 -5,33 -14,10 -22,26 -26,43 -7,-5 -12,-11 -16,-19zm25 83l0 0c-9,-31 -8,-77 18,-100 0,7 2,14 4,20 0,0 0,0 0,0 9,27 30,48 62,58 -18,23 -19,53 -10,80 2,5 4,10 6,14 -9,0 -16,-1 -23,-5 -26,-13 -47,-35 -56,-62 0,-2 -1,-3 -1,-5zm153 148l0 0c-32,1 -61,-10 -85,-32 -13,-11 -26,-28 -32,-46 -1,-3 -2,-7 -3,-10 7,5 14,9 21,13 10,5 19,6 29,6 11,20 28,38 47,47 17,9 36,13 56,13 0,0 0,1 0,1 -12,4 -21,7 -33,8zm83 20l0 0c-16,-4 -38,-12 -43,-28 -1,0 -1,-1 -1,-2 9,0 18,-2 26,-5 22,-7 41,-22 51,-46 2,-5 3,-9 4,-13 11,3 23,4 34,4 8,-1 16,-3 25,-5 31,-11 62,-35 79,-58 3,-4 6,-8 8,-12 2,4 4,7 5,11 2,7 3,14 3,22 -3,52 -36,104 -85,124 -3,2 -7,3 -11,4 -30,10 -64,12 -95,4z"/>
  <path class="fil1" d="M479 387c0,2 -2,4 -4,4 -3,0 -5,-2 -5,-4 0,-3 2,-5 5,-5 2,0 4,2 4,5z"/>
  <path class="fil1" d="M497 360c0,2 -2,4 -4,4 -3,0 -5,-2 -5,-4 0,-3 2,-5 5,-5 2,0 4,2 4,5z"/>
  <path class="fil1" d="M641 400c0,3 -2,5 -4,5 -3,0 -5,-2 -5,-5 0,-2 2,-4 5,-4 2,0 4,2 4,4z"/>
  <path class="fil1" d="M537 545c0,3 -2,5 -4,5 -3,0 -5,-2 -5,-5 0,-2 2,-4 5,-4 2,0 4,2 4,4z"/>
  <path class="fil1" d="M436 480c0,3 -2,5 -5,5 -2,0 -4,-2 -4,-5 0,-2 2,-4 4,-4 3,0 5,2 5,4z"/>
  <path class="fil1" d="M465 344c0,2 -2,4 -4,4 -3,0 -5,-2 -5,-4 0,-3 2,-5 5,-5 2,0 4,2 4,5z"/>
  <path class="fil1" d="M671 475c0,2 -2,4 -4,4 -3,0 -5,-2 -5,-4 0,-3 2,-5 5,-5 2,0 4,2 4,5z"/>
  <path class="fil1" d="M451 500c0,2 -2,4 -4,4 -3,0 -5,-2 -5,-4 0,-2 2,-4 5,-4 2,0 4,2 4,4z"/>
  <path class="fil1" d="M533 324c0,3 -2,5 -4,5 -3,0 -5,-2 -5,-5 0,-2 2,-4 5,-4 2,0 4,2 4,4z"/>
  <path class="fil1" d="M579 560c0,2 -2,4 -5,4 -2,0 -4,-2 -4,-4 0,-2 2,-4 4,-4 3,0 5,2 5,4z"/>
  <path class="fil1" d="M439 360c0,2 -2,4 -4,4 -3,0 -5,-2 -5,-4 0,-3 2,-5 5,-5 2,0 4,2 4,5z"/>
  <path class="fil1" d="M692 440c0,2 -2,4 -4,4 -3,0 -5,-2 -5,-4 0,-3 2,-5 5,-5 2,0 4,2 4,5z"/>
  <path class="fil1" d="M425 434c0,2 -2,4 -4,4 -3,0 -5,-2 -5,-4 0,-3 2,-5 5,-5 2,0 4,2 4,5z"/>
  <path class="fil1" d="M649 344c0,3 -2,5 -5,5 -2,0 -4,-2 -4,-5 0,-2 2,-4 4,-4 3,0 5,2 5,4z"/>
  <path class="fil1" d="M470 472c0,2 -2,4 -4,4 -3,0 -5,-2 -5,-4 0,-2 2,-4 5,-4 2,0 4,2 4,4z"/>
  <path class="fil1" d="M658 431c0,2 -2,4 -4,4 -3,0 -5,-2 -5,-4 0,-3 2,-5 5,-5 2,0 4,2 4,5z"/>
  <path class="fil1" d="M465 447c0,3 -2,5 -5,5 -2,0 -4,-2 -4,-5 0,-2 2,-4 4,-4 3,0 5,2 5,4z"/>
  <path class="fil1" d="M514 522c0,2 -2,4 -4,4 -2,0 -4,-2 -4,-4 0,-2 2,-4 4,-4 2,0 4,2 4,4z"/>
  <path class="fil1" d="M581 525c0,3 -2,5 -5,5 -2,0 -4,-2 -4,-5 0,-2 2,-4 4,-4 3,0 5,2 5,4z"/>
  <path class="fil1" d="M593 507c0,2 -2,4 -4,4 -3,0 -5,-2 -5,-4 0,-3 2,-5 5,-5 2,0 4,2 4,5z"/>
  <path class="fil1" d="M626 353c0,3 -2,5 -4,5 -3,0 -5,-2 -5,-5 0,-2 2,-4 5,-4 2,0 4,2 4,4z"/>
  <path class="fil1" d="M616 510c0,3 -2,5 -4,5 -3,0 -5,-2 -5,-5 0,-2 2,-4 5,-4 2,0 4,2 4,4z"/>
  <path class="fil1" d="M599 358c0,2 -2,4 -4,4 -3,0 -5,-2 -5,-4 0,-3 2,-5 5,-5 2,0 4,2 4,5z"/>
  <path class="fil1" d="M630 495c0,3 -2,5 -4,5 -3,0 -5,-2 -5,-5 0,-2 2,-4 5,-4 2,0 4,2 4,4z"/>
  <path class="fil1" d="M630 475c0,2 -2,4 -4,4 -3,0 -5,-2 -5,-4 0,-3 2,-4 5,-4 2,0 4,1 4,4z"/>
  <path class="fil1" d="M619 458c0,2 -2,4 -5,4 -2,0 -4,-2 -4,-4 0,-3 2,-5 4,-5 3,0 5,2 5,5z"/>
  <path class="fil1" d="M603 465c0,2 -2,4 -5,4 -2,0 -4,-2 -4,-4 0,-3 2,-5 4,-5 3,0 5,2 5,5z"/>
  <path class="fil1" d="M605 485c0,3 -2,5 -4,5 -2,0 -4,-2 -4,-5 0,-2 2,-4 4,-4 2,0 4,2 4,4z"/>
  <path class="fil1" d="M623 416c0,3 -2,5 -4,5 -3,0 -5,-2 -5,-5 0,-2 2,-4 5,-4 2,0 4,2 4,4z"/>
  <path class="fil1" d="M620 436c0,2 -2,4 -4,4 -3,0 -5,-2 -5,-4 0,-3 2,-5 5,-5 2,0 4,2 4,5z"/>
  <path class="fil1" d="M636 448c0,3 -2,5 -4,5 -2,0 -4,-2 -4,-5 0,-2 2,-4 4,-4 2,0 4,2 4,4z"/>
  <path class="fil1" d="M573 371c0,3 -2,5 -5,5 -2,0 -4,-2 -4,-5 0,-2 2,-4 4,-4 3,0 5,2 5,4z"/>
  <path class="fil1" d="M510 472c0,2 -2,4 -5,4 -2,0 -4,-2 -4,-4 0,-3 2,-5 4,-5 3,0 5,2 5,5z"/>
  <path class="fil1" d="M514 489c0,3 -2,4 -5,4 -2,0 -4,-1 -4,-4 0,-2 2,-4 4,-4 3,0 5,2 5,4z"/>
  <path class="fil1" d="M544 506c0,2 -2,4 -4,4 -3,0 -5,-2 -5,-4 0,-3 2,-5 5,-5 2,0 4,2 4,5z"/>
  <path class="fil1" d="M525 387c0,2 -2,4 -5,4 -2,0 -4,-2 -4,-4 0,-3 2,-5 4,-5 3,0 5,2 5,5z"/>
  <path class="fil1" d="M555 420c0,3 -2,5 -5,5 -2,0 -4,-2 -4,-5 0,-2 2,-4 4,-4 3,0 5,2 5,4z"/>
  <path class="fil1" d="M535 432c0,3 -2,5 -5,5 -2,0 -4,-2 -4,-5 0,-2 2,-4 4,-4 3,0 5,2 5,4z"/>
  <path class="fil1" d="M535 410c0,3 -2,5 -5,5 -2,0 -4,-2 -4,-5 0,-2 2,-4 4,-4 3,0 5,2 5,4z"/>
  <path class="fil1" d="M579 389c0,3 -2,5 -4,5 -3,0 -5,-2 -5,-5 0,-2 2,-4 5,-4 2,0 4,2 4,4z"/>
  <path class="fil1" d="M553 481c0,2 -2,4 -5,4 -2,0 -4,-2 -4,-4 0,-3 2,-5 4,-5 3,0 5,2 5,5z"/>
  <path class="fil1" d="M574 431c0,2 -2,4 -4,4 -3,0 -5,-2 -5,-4 0,-3 2,-5 5,-5 2,0 4,2 4,5z"/>
  <path class="fil1" d="M579 412c0,3 -2,5 -4,5 -2,0 -4,-2 -4,-5 0,-2 2,-4 4,-4 2,0 4,2 4,4z"/>
  <path class="fil1" d="M513 426c0,2 -2,4 -5,4 -2,0 -4,-2 -4,-4 0,-2 2,-4 4,-4 3,0 5,2 5,4z"/>
  <path class="fil1" d="M564 505c0,3 -2,5 -5,5 -2,0 -4,-2 -4,-5 0,-2 2,-4 4,-4 3,0 5,2 5,4z"/>
  <path class="fil1" d="M602 410c0,3 -2,5 -5,5 -2,0 -4,-2 -4,-5 0,-2 2,-4 4,-4 3,0 5,2 5,4z"/>
  <path class="fil1" d="M576 488c0,2 -2,4 -5,4 -2,0 -4,-2 -4,-4 0,-3 2,-5 4,-5 3,0 5,2 5,5z"/>
  <path class="fil1" d="M580 469c0,2 -2,4 -4,4 -2,0 -4,-2 -4,-4 0,-2 2,-4 4,-4 2,0 4,2 4,4z"/>
  <path class="fil1" d="M513 406c0,2 -2,4 -4,4 -2,0 -4,-2 -4,-4 0,-2 2,-4 4,-4 2,0 4,2 4,4z"/>
  <path class="fil1" d="M598 433c0,2 -2,4 -4,4 -3,0 -5,-2 -5,-4 0,-3 2,-5 5,-5 2,0 4,2 4,5z"/>
  <path class="fil1" d="M538 460c0,2 -2,4 -4,4 -3,0 -4,-2 -4,-4 0,-3 1,-5 4,-5 2,0 4,2 4,5z"/>
  <path class="fil1" d="M585 449c0,3 -2,5 -5,5 -2,0 -4,-2 -4,-5 0,-2 2,-4 4,-4 3,0 5,2 5,4z"/>
  <path class="fil1" d="M543 389c0,3 -2,5 -4,5 -2,0 -4,-2 -4,-5 0,-2 2,-4 4,-4 2,0 4,2 4,4z"/>
  <path class="fil1" d="M601 389c0,2 -2,4 -5,4 -2,0 -4,-2 -4,-4 0,-3 2,-5 4,-5 3,0 5,2 5,5z"/>
  <path class="fil1" d="M534 487c0,2 -2,4 -4,4 -3,0 -5,-2 -5,-4 0,-3 2,-5 5,-5 2,0 4,2 4,5z"/>
  <path class="fil1" d="M519 450c0,2 -2,4 -5,4 -2,0 -4,-2 -4,-4 0,-2 2,-4 4,-4 3,0 5,2 5,4z"/>
  <path class="fil1" d="M551 371c0,2 -2,4 -5,4 -2,0 -4,-2 -4,-4 0,-3 2,-5 4,-5 3,0 5,2 5,5z"/>
  <path class="fil1" d="M557 442c0,2 -2,4 -5,4 -2,0 -4,-2 -4,-4 0,-3 2,-5 4,-5 3,0 5,2 5,5z"/>
  <path class="fil1" d="M560 400c0,2 -2,4 -4,4 -2,0 -4,-2 -4,-4 0,-3 2,-5 4,-5 2,0 4,2 4,5z"/>
  <path class="fil1" d="M560 462c0,2 -2,4 -4,4 -3,0 -5,-2 -5,-4 0,-3 2,-4 5,-4 2,0 4,1 4,4z"/>
  <path class="fil1" d="M496 447c0,2 -2,4 -4,4 -2,0 -4,-2 -4,-4 0,-2 2,-4 4,-4 2,0 4,2 4,4z"/>
  <path class="fil1" d="M478 419c0,3 -2,5 -4,5 -3,0 -5,-2 -5,-5 0,-2 2,-4 5,-4 2,0 4,2 4,4z"/>
  <path class="fil1" d="M453 422c0,2 -2,4 -4,4 -2,0 -4,-2 -4,-4 0,-2 2,-4 4,-4 2,0 4,2 4,4z"/>
  <path class="fil1" d="M435 403c0,3 -2,5 -5,5 -2,0 -4,-2 -4,-5 0,-2 2,-4 4,-4 3,0 5,2 5,4z"/>
  <path class="fil1" d="M414 399c0,3 -2,5 -4,5 -3,0 -5,-2 -5,-5 0,-2 2,-4 5,-4 2,0 4,2 4,4z"/>
  <path class="fil1" d="M395 404c0,3 -2,4 -5,4 -2,0 -4,-1 -4,-4 0,-2 2,-4 4,-4 3,0 5,2 5,4z"/>
  <path class="fil1" d="M395 426c0,2 -2,4 -4,4 -2,0 -4,-2 -4,-4 0,-3 2,-5 4,-5 2,0 4,2 4,5z"/>
  <path class="fil1" d="M389 445c0,2 -2,4 -5,4 -2,0 -4,-2 -4,-4 0,-2 2,-4 4,-4 3,0 5,2 5,4z"/>
  <path class="fil1" d="M409 458c0,2 -2,4 -5,4 -2,0 -4,-2 -4,-4 0,-3 2,-5 4,-5 3,0 5,2 5,5z"/>
  <path class="fil1" d="M390 472c0,2 -2,4 -5,4 -2,0 -4,-2 -4,-4 0,-3 2,-5 4,-5 3,0 5,2 5,5z"/>
  <path class="fil1" d="M405 487c0,2 -2,4 -5,4 -2,0 -4,-2 -4,-4 0,-2 2,-4 4,-4 3,0 5,2 5,4z"/>
  <path class="fil1" d="M404 511c0,2 -2,4 -4,4 -3,0 -5,-2 -5,-4 0,-3 2,-5 5,-5 2,0 4,2 4,5z"/>
  <path class="fil1" d="M422 515c0,2 -2,4 -4,4 -2,0 -4,-2 -4,-4 0,-3 2,-5 4,-5 2,0 4,2 4,5z"/>
  <path class="fil1" d="M433 532c0,3 -2,5 -5,5 -2,0 -4,-2 -4,-5 0,-2 2,-4 4,-4 3,0 5,2 5,4z"/>
  <path class="fil1" d="M455 540c0,3 -2,5 -5,5 -2,0 -4,-2 -4,-5 0,-2 2,-4 4,-4 3,0 5,2 5,4z"/>
  <path class="fil1" d="M468 562c0,2 -2,4 -5,4 -2,0 -4,-2 -4,-4 0,-3 2,-5 4,-5 3,0 5,2 5,5z"/>
  <path class="fil1" d="M496 575c0,3 -2,5 -4,5 -2,0 -4,-2 -4,-5 0,-2 2,-4 4,-4 2,0 4,2 4,4z"/>
  <path class="fil1" d="M532 582c0,2 -2,4 -5,4 -2,0 -4,-2 -4,-4 0,-3 2,-5 4,-5 3,0 5,2 5,5z"/>
  <path class="fil1" d="M576 584c0,2 -2,4 -4,4 -3,0 -5,-2 -5,-4 0,-2 2,-4 5,-4 2,0 4,2 4,4z"/>
  <path class="fil1" d="M634 561c0,2 -2,4 -4,4 -3,0 -5,-2 -5,-4 0,-3 2,-5 5,-5 2,0 4,2 4,5z"/>
  <path class="fil1" d="M660 540c0,3 -2,5 -5,5 -2,0 -4,-2 -4,-5 0,-2 2,-4 4,-4 3,0 5,2 5,4z"/>
  <path class="fil1" d="M685 519c0,3 -2,5 -5,5 -2,0 -4,-2 -4,-5 0,-2 2,-4 4,-4 3,0 5,2 5,4z"/>
  <path class="fil1" d="M709 482c0,2 -2,4 -4,4 -3,0 -5,-2 -5,-4 0,-3 2,-5 5,-5 2,0 4,2 4,5z"/>
  <path class="fil1" d="M719 445c0,2 -2,4 -5,4 -2,0 -4,-2 -4,-4 0,-3 2,-5 4,-5 3,0 5,2 5,5z"/>
  <path class="fil1" d="M716 404c0,3 -2,5 -4,5 -3,0 -5,-2 -5,-5 0,-2 2,-4 5,-4 2,0 4,2 4,4z"/>
  <path class="fil1" d="M710 368c0,2 -2,4 -4,4 -2,0 -4,-2 -4,-4 0,-3 2,-5 4,-5 2,0 4,2 4,5z"/>
  <path class="fil1" d="M694 333c0,2 -2,4 -5,4 -2,0 -4,-2 -4,-4 0,-3 2,-5 4,-5 3,0 5,2 5,5z"/>
  <path class="fil1" d="M668 299c0,2 -2,4 -4,4 -3,0 -4,-2 -4,-4 0,-2 1,-4 4,-4 2,0 4,2 4,4z"/>
  <path class="fil1" d="M632 274c0,2 -2,4 -5,4 -2,0 -4,-2 -4,-4 0,-3 2,-5 4,-5 3,0 5,2 5,5z"/>
  <path class="fil1" d="M600 259c0,2 -2,4 -4,4 -3,0 -5,-2 -5,-4 0,-2 2,-4 5,-4 2,0 4,2 4,4z"/>
  <path class="fil1" d="M562 249c0,2 -2,4 -5,4 -2,0 -4,-2 -4,-4 0,-3 2,-5 4,-5 3,0 5,2 5,5z"/>
  <path class="fil1" d="M521 253c0,2 -2,4 -4,4 -3,0 -5,-2 -5,-4 0,-3 2,-5 5,-5 2,0 4,2 4,5z"/>
  <path class="fil1" d="M468 266c0,3 -2,5 -4,5 -3,0 -5,-2 -5,-5 0,-2 2,-4 5,-4 2,0 4,2 4,4z"/>
  <path class="fil1" d="M412 303c0,2 -2,4 -4,4 -3,0 -5,-2 -5,-4 0,-2 2,-4 5,-4 2,0 4,2 4,4z"/>
  <path class="fil1" d="M385 345c0,3 -2,5 -5,5 -2,0 -4,-2 -4,-5 0,-2 2,-4 4,-4 3,0 5,2 5,4z"/>
  <path class="fil1" d="M367 380c0,2 -2,4 -5,4 -2,0 -4,-2 -4,-4 0,-3 2,-5 4,-5 3,0 5,2 5,5z"/>
  <path class="fil1" d="M356 422c0,3 -2,5 -5,5 -2,0 -4,-2 -4,-5 0,-2 2,-4 4,-4 3,0 5,2 5,4z"/>
  <path class="fil1" d="M358 468c0,2 -2,4 -4,4 -3,0 -5,-2 -5,-4 0,-3 2,-5 5,-5 2,0 4,2 4,5z"/>
  <path class="fil1" d="M379 513c0,3 -1,5 -4,5 -2,0 -4,-2 -4,-5 0,-2 2,-4 4,-4 3,0 4,2 4,4z"/>
  <path class="fil1" d="M427 555c0,2 -2,4 -5,4 -2,0 -4,-2 -4,-4 0,-3 2,-5 4,-5 3,0 5,2 5,5z"/>
  <path class="fil1" d="M493 554c0,3 -2,4 -4,4 -3,0 -5,-1 -5,-4 0,-2 2,-4 5,-4 2,0 4,2 4,4z"/>
  <path class="fil1" d="M566 534c0,2 -2,4 -5,4 -2,0 -4,-2 -4,-4 0,-3 2,-5 4,-5 3,0 5,2 5,5z"/>
  <path class="fil1" d="M635 378c0,3 -2,5 -5,5 -2,0 -4,-2 -4,-5 0,-2 2,-4 4,-4 3,0 5,2 5,4z"/>
  <path class="fil1" d="M596 317c0,2 -2,4 -5,4 -2,0 -4,-2 -4,-4 0,-3 2,-5 4,-5 3,0 5,2 5,5z"/>
  <path class="fil1" d="M565 276c0,2 -2,4 -4,4 -3,0 -5,-2 -5,-4 0,-3 2,-5 5,-5 2,0 4,2 4,5z"/>
  <path class="fil1" d="M498 251c0,2 -2,4 -5,4 -2,0 -4,-2 -4,-4 0,-3 2,-5 4,-5 3,0 5,2 5,5z"/>
  <path class="fil1" d="M444 271c0,3 -2,4 -4,4 -3,0 -5,-1 -5,-4 0,-2 2,-4 5,-4 2,0 4,2 4,4z"/>
  <path class="fil1" d="M421 291c0,3 -2,5 -5,5 -2,0 -4,-2 -4,-5 0,-2 2,-4 4,-4 3,0 5,2 5,4z"/>
  <path class="fil1" d="M403 322c0,2 -2,4 -4,4 -2,0 -4,-2 -4,-4 0,-3 2,-5 4,-5 2,0 4,2 4,5z"/>
  <path class="fil1" d="M443 331c0,2 -2,4 -4,4 -3,0 -4,-2 -4,-4 0,-3 1,-5 4,-5 2,0 4,2 4,5z"/>
  <path class="fil1" d="M499 310c0,2 -2,4 -5,4 -2,0 -4,-2 -4,-4 0,-3 2,-5 4,-5 3,0 5,2 5,5z"/>
  <path class="fil1" d="M468 299c0,2 -2,4 -4,4 -2,0 -4,-2 -4,-4 0,-3 2,-4 4,-4 2,0 4,1 4,4z"/>
  <path class="fil1" d="M497 282c0,2 -2,4 -4,4 -3,0 -4,-2 -4,-4 0,-3 1,-5 4,-5 2,0 4,2 4,5z"/>
  <path class="fil1" d="M555 307c0,2 -2,4 -5,4 -2,0 -4,-2 -4,-4 0,-3 2,-5 4,-5 3,0 5,2 5,5z"/>
  <path class="fil1" d="M498 330c0,3 -2,5 -5,5 -2,0 -4,-2 -4,-5 0,-2 2,-4 4,-4 3,0 5,2 5,4z"/>
  <path class="fil1" d="M541 293c0,3 -2,5 -4,5 -3,0 -5,-2 -5,-5 0,-2 2,-4 5,-4 2,0 4,2 4,4z"/>
  <path class="fil1" d="M623 321c0,3 -2,5 -4,5 -3,0 -5,-2 -5,-5 0,-2 2,-4 5,-4 2,0 4,2 4,4z"/>
  <path class="fil1" d="M675 390c0,3 -2,5 -4,5 -2,0 -4,-2 -4,-5 0,-2 2,-4 4,-4 2,0 4,2 4,4z"/>
  <path class="fil1" d="M681 496c0,2 -2,4 -4,4 -3,0 -5,-2 -5,-4 0,-3 2,-5 5,-5 2,0 4,2 4,5z"/>
  <path class="fil1" d="M613 564c0,2 -2,4 -4,4 -3,0 -5,-2 -5,-4 0,-2 2,-4 5,-4 2,0 4,2 4,4z"/>
  <path class="fil1" d="M495 531c0,3 -2,5 -4,5 -2,0 -4,-2 -4,-5 0,-2 2,-4 4,-4 2,0 4,2 4,4z"/>
  <path class="fil1" d="M648 282c0,2 -2,3 -3,3 -2,0 -4,-1 -4,-3 0,-2 2,-4 4,-4 1,0 3,2 3,4z"/>
  <path class="fil1" d="M662 261c0,2 -2,3 -4,3 -1,0 -3,-1 -3,-3 0,-2 2,-4 3,-4 2,0 4,2 4,4z"/>
  <path class="fil1" d="M769 293c0,2 -1,3 -3,3 -2,0 -3,-1 -3,-3 0,-2 1,-4 3,-4 2,0 3,2 3,4z"/>
  <path class="fil1" d="M691 407c0,2 -1,4 -3,4 -2,0 -3,-2 -3,-4 0,-2 1,-3 3,-3 2,0 3,1 3,3z"/>
  <path class="fil1" d="M616 356c0,2 -2,3 -4,3 -2,0 -3,-1 -3,-3 0,-2 1,-4 3,-4 2,0 4,2 4,4z"/>
  <path class="fil1" d="M638 248c0,2 -2,3 -4,3 -1,0 -3,-1 -3,-3 0,-2 2,-4 3,-4 2,0 4,2 4,4z"/>
  <path class="fil1" d="M792 351c0,2 -2,4 -4,4 -1,0 -3,-2 -3,-4 0,-2 2,-3 3,-3 2,0 4,1 4,3z"/>
  <path class="fil1" d="M627 371c0,2 -2,4 -3,4 -2,0 -4,-2 -4,-4 0,-1 2,-3 4,-3 1,0 3,2 3,3z"/>
  <path class="fil1" d="M688 233c0,2 -1,3 -3,3 -2,0 -3,-1 -3,-3 0,-2 1,-4 3,-4 2,0 3,2 3,4z"/>
  <path class="fil1" d="M723 419c0,2 -2,3 -4,3 -2,0 -3,-1 -3,-3 0,-2 1,-4 3,-4 2,0 4,2 4,4z"/>
  <path class="fil1" d="M618 261c0,2 -1,3 -3,3 -2,0 -3,-1 -3,-3 0,-2 1,-4 3,-4 2,0 3,2 3,4z"/>
  <path class="fil1" d="M808 324c0,2 -2,3 -4,3 -1,0 -3,-1 -3,-3 0,-2 2,-4 3,-4 2,0 4,2 4,4z"/>
  <path class="fil1" d="M608 319c0,2 -2,4 -4,4 -2,0 -3,-2 -3,-4 0,-2 1,-3 3,-3 2,0 4,1 4,3z"/>
  <path class="fil1" d="M775 249c0,1 -1,3 -3,3 -2,0 -3,-2 -3,-3 0,-2 1,-4 3,-4 2,0 3,2 3,4z"/>
  <path class="fil1" d="M641 349c0,2 -1,4 -3,4 -2,0 -3,-2 -3,-4 0,-2 1,-3 3,-3 2,0 3,1 3,3z"/>
  <path class="fil1" d="M782 317c0,2 -1,3 -3,3 -2,0 -3,-1 -3,-3 0,-2 1,-4 3,-4 2,0 3,2 3,4z"/>
  <path class="fil1" d="M637 330c0,2 -1,3 -3,3 -2,0 -3,-1 -3,-3 0,-2 1,-4 3,-4 2,0 3,2 3,4z"/>
  <path class="fil1" d="M675 389c0,2 -2,3 -4,3 -2,0 -3,-1 -3,-3 0,-2 1,-4 3,-4 2,0 4,2 4,4z"/>
  <path class="fil1" d="M724 391c0,2 -1,4 -3,4 -2,0 -3,-2 -3,-4 0,-1 1,-3 3,-3 2,0 3,2 3,3z"/>
  <path class="fil1" d="M733 377c0,2 -1,3 -3,3 -2,0 -3,-1 -3,-3 0,-2 1,-4 3,-4 2,0 3,2 3,4z"/>
  <path class="fil1" d="M758 256c0,1 -1,3 -3,3 -2,0 -3,-2 -3,-3 0,-2 1,-4 3,-4 2,0 3,2 3,4z"/>
  <path class="fil1" d="M751 380c0,1 -2,3 -4,3 -1,0 -3,-2 -3,-3 0,-2 2,-4 3,-4 2,0 4,2 4,4z"/>
  <path class="fil1" d="M738 259c0,2 -2,4 -3,4 -2,0 -4,-2 -4,-4 0,-2 2,-3 4,-3 1,0 3,1 3,3z"/>
  <path class="fil1" d="M761 368c0,2 -1,3 -3,3 -2,0 -3,-1 -3,-3 0,-2 1,-4 3,-4 2,0 3,2 3,4z"/>
  <path class="fil1" d="M761 352c0,2 -1,3 -3,3 -2,0 -3,-1 -3,-3 0,-2 1,-4 3,-4 2,0 3,2 3,4z"/>
  <path class="fil1" d="M753 338c0,2 -2,3 -4,3 -1,0 -3,-1 -3,-3 0,-2 2,-4 3,-4 2,0 4,2 4,4z"/>
  <path class="fil1" d="M741 344c0,2 -2,3 -4,3 -1,0 -3,-1 -3,-3 0,-2 2,-4 3,-4 2,0 4,2 4,4z"/>
  <path class="fil1" d="M743 360c0,2 -2,3 -4,3 -1,0 -3,-1 -3,-3 0,-2 2,-4 3,-4 2,0 4,2 4,4z"/>
  <path class="fil1" d="M756 305c0,2 -2,4 -3,4 -2,0 -4,-2 -4,-4 0,-2 2,-3 4,-3 1,0 3,1 3,3z"/>
  <path class="fil1" d="M754 321c0,2 -2,3 -4,3 -1,0 -3,-1 -3,-3 0,-2 2,-4 3,-4 2,0 4,2 4,4z"/>
  <path class="fil1" d="M766 331c0,1 -2,3 -3,3 -2,0 -4,-2 -4,-3 0,-2 2,-4 4,-4 1,0 3,2 3,4z"/>
  <path class="fil1" d="M718 270c0,2 -1,3 -3,3 -2,0 -3,-1 -3,-3 0,-2 1,-4 3,-4 2,0 3,2 3,4z"/>
  <path class="fil1" d="M671 349c0,2 -1,3 -3,3 -2,0 -3,-1 -3,-3 0,-2 1,-4 3,-4 2,0 3,2 3,4z"/>
  <path class="fil1" d="M674 363c0,2 -2,3 -3,3 -2,0 -4,-1 -4,-3 0,-2 2,-4 4,-4 1,0 3,2 3,4z"/>
  <path class="fil1" d="M697 376c0,2 -2,3 -3,3 -2,0 -4,-1 -4,-3 0,-2 2,-3 4,-3 1,0 3,1 3,3z"/>
  <path class="fil1" d="M682 282c0,2 -1,3 -3,3 -2,0 -3,-1 -3,-3 0,-2 1,-4 3,-4 2,0 3,2 3,4z"/>
  <path class="fil1" d="M705 308c0,2 -2,4 -4,4 -2,0 -3,-2 -3,-4 0,-1 1,-3 3,-3 2,0 4,2 4,3z"/>
  <path class="fil1" d="M690 318c0,2 -2,3 -4,3 -1,0 -3,-1 -3,-3 0,-2 2,-4 3,-4 2,0 4,2 4,4z"/>
  <path class="fil1" d="M690 301c0,2 -2,3 -3,3 -2,0 -4,-1 -4,-3 0,-2 2,-4 4,-4 1,0 3,2 3,4z"/>
  <path class="fil1" d="M723 284c0,2 -1,3 -3,3 -2,0 -4,-1 -4,-3 0,-2 2,-4 4,-4 2,0 3,2 3,4z"/>
  <path class="fil1" d="M703 356c0,2 -1,4 -3,4 -2,0 -4,-2 -4,-4 0,-2 2,-3 4,-3 2,0 3,1 3,3z"/>
  <path class="fil1" d="M719 317c0,2 -1,3 -3,3 -2,0 -3,-1 -3,-3 0,-2 1,-4 3,-4 2,0 3,2 3,4z"/>
  <path class="fil1" d="M723 302c0,2 -1,4 -3,4 -2,0 -3,-2 -3,-4 0,-2 1,-3 3,-3 2,0 3,1 3,3z"/>
  <path class="fil1" d="M673 313c0,2 -1,3 -3,3 -2,0 -3,-1 -3,-3 0,-2 1,-4 3,-4 2,0 3,2 3,4z"/>
  <path class="fil1" d="M711 376c0,2 -1,3 -3,3 -2,0 -3,-1 -3,-3 0,-2 1,-4 3,-4 2,0 3,2 3,4z"/>
  <path class="fil1" d="M740 301c0,2 -1,3 -3,3 -2,0 -4,-1 -4,-3 0,-2 2,-4 4,-4 2,0 3,2 3,4z"/>
  <path class="fil1" d="M721 362c0,2 -2,3 -4,3 -2,0 -3,-1 -3,-3 0,-2 1,-4 3,-4 2,0 4,2 4,4z"/>
  <path class="fil1" d="M724 347c0,2 -1,3 -3,3 -2,0 -4,-1 -4,-3 0,-2 2,-4 4,-4 2,0 3,2 3,4z"/>
  <path class="fil1" d="M674 297c0,2 -2,4 -4,4 -1,0 -3,-2 -3,-4 0,-2 2,-3 3,-3 2,0 4,1 4,3z"/>
  <path class="fil1" d="M737 318c0,2 -1,4 -3,4 -2,0 -4,-2 -4,-4 0,-2 2,-3 4,-3 2,0 3,1 3,3z"/>
  <path class="fil1" d="M692 340c0,2 -1,3 -3,3 -2,0 -3,-1 -3,-3 0,-2 1,-4 3,-4 2,0 3,2 3,4z"/>
  <path class="fil1" d="M727 331c0,2 -1,4 -3,4 -2,0 -3,-2 -3,-4 0,-2 1,-3 3,-3 2,0 3,1 3,3z"/>
  <path class="fil1" d="M696 284c0,2 -1,3 -3,3 -2,0 -3,-1 -3,-3 0,-2 1,-3 3,-3 2,0 3,1 3,3z"/>
  <path class="fil1" d="M739 284c0,2 -1,3 -3,3 -2,0 -3,-1 -3,-3 0,-2 1,-4 3,-4 2,0 3,2 3,4z"/>
  <path class="fil1" d="M689 361c0,2 -1,4 -3,4 -2,0 -3,-2 -3,-4 0,-2 1,-3 3,-3 2,0 3,1 3,3z"/>
  <path class="fil1" d="M678 332c0,2 -2,3 -4,3 -2,0 -3,-1 -3,-3 0,-2 1,-4 3,-4 2,0 4,2 4,4z"/>
  <path class="fil1" d="M702 269c0,2 -2,4 -4,4 -1,0 -3,-2 -3,-4 0,-2 2,-3 3,-3 2,0 4,1 4,3z"/>
  <path class="fil1" d="M706 326c0,1 -1,3 -3,3 -2,0 -3,-2 -3,-3 0,-2 1,-4 3,-4 2,0 3,2 3,4z"/>
  <path class="fil1" d="M709 292c0,2 -2,4 -3,4 -2,0 -4,-2 -4,-4 0,-2 2,-3 4,-3 1,0 3,1 3,3z"/>
  <path class="fil1" d="M709 341c0,2 -2,4 -3,4 -2,0 -4,-2 -4,-4 0,-2 2,-3 4,-3 1,0 3,1 3,3z"/>
  <path class="fil1" d="M661 330c0,1 -1,3 -3,3 -2,0 -4,-2 -4,-3 0,-2 2,-4 4,-4 2,0 3,2 3,4z"/>
  <path class="fil1" d="M647 308c0,2 -1,3 -3,3 -2,0 -3,-1 -3,-3 0,-2 1,-4 3,-4 2,0 3,2 3,4z"/>
  <path class="fil1" d="M629 310c0,2 -2,3 -3,3 -2,0 -4,-1 -4,-3 0,-2 2,-4 4,-4 1,0 3,2 3,4z"/>
  <path class="fil1" d="M615 295c0,2 -2,4 -4,4 -1,0 -3,-2 -3,-4 0,-2 2,-3 3,-3 2,0 4,1 4,3z"/>
  <path class="fil1" d="M599 292c0,2 -1,3 -3,3 -2,0 -3,-1 -3,-3 0,-2 1,-4 3,-4 2,0 3,2 3,4z"/>
  <path class="fil1" d="M585 296c0,2 -2,3 -3,3 -2,0 -4,-1 -4,-3 0,-2 2,-4 4,-4 1,0 3,2 3,4z"/>
  <path class="fil1" d="M585 313c0,2 -1,3 -3,3 -2,0 -3,-1 -3,-3 0,-2 1,-4 3,-4 2,0 3,2 3,4z"/>
  <path class="fil1" d="M580 328c0,2 -1,3 -3,3 -2,0 -3,-1 -3,-3 0,-2 1,-3 3,-3 2,0 3,1 3,3z"/>
  <path class="fil1" d="M595 338c0,2 -1,3 -3,3 -2,0 -3,-1 -3,-3 0,-2 1,-4 3,-4 2,0 3,2 3,4z"/>
  <path class="fil1" d="M581 349c0,2 -1,3 -3,3 -2,0 -4,-1 -4,-3 0,-2 2,-3 4,-3 2,0 3,1 3,3z"/>
  <path class="fil1" d="M592 361c0,2 -1,4 -3,4 -2,0 -3,-2 -3,-4 0,-2 1,-3 3,-3 2,0 3,1 3,3z"/>
  <path class="fil1" d="M592 380c0,2 -1,3 -3,3 -2,0 -4,-1 -4,-3 0,-2 2,-4 4,-4 2,0 3,2 3,4z"/>
  <path class="fil1" d="M606 383c0,2 -2,4 -4,4 -1,0 -3,-2 -3,-4 0,-2 2,-3 3,-3 2,0 4,1 4,3z"/>
  <path class="fil1" d="M613 397c0,2 -1,3 -3,3 -2,0 -3,-1 -3,-3 0,-2 1,-4 3,-4 2,0 3,2 3,4z"/>
  <path class="fil1" d="M630 403c0,2 -2,4 -3,4 -2,0 -4,-2 -4,-4 0,-2 2,-3 4,-3 1,0 3,1 3,3z"/>
  <path class="fil1" d="M639 420c0,2 -1,4 -3,4 -2,0 -3,-2 -3,-4 0,-2 1,-3 3,-3 2,0 3,1 3,3z"/>
  <path class="fil1" d="M661 431c0,2 -1,3 -3,3 -2,0 -4,-1 -4,-3 0,-2 2,-4 4,-4 2,0 3,2 3,4z"/>
  <path class="fil1" d="M687 436c0,2 -1,3 -3,3 -2,0 -3,-1 -3,-3 0,-2 1,-4 3,-4 2,0 3,2 3,4z"/>
  <path class="fil1" d="M721 438c0,2 -2,3 -4,3 -1,0 -3,-1 -3,-3 0,-2 2,-4 3,-4 2,0 4,2 4,4z"/>
  <path class="fil1" d="M764 419c0,2 -1,4 -3,4 -2,0 -4,-2 -4,-4 0,-1 2,-3 4,-3 2,0 3,2 3,3z"/>
  <path class="fil1" d="M783 403c0,2 -1,4 -3,4 -2,0 -3,-2 -3,-4 0,-2 1,-3 3,-3 2,0 3,1 3,3z"/>
  <path class="fil1" d="M802 387c0,1 -1,3 -3,3 -2,0 -3,-2 -3,-3 0,-2 1,-4 3,-4 2,0 3,2 3,4z"/>
  <path class="fil1" d="M820 357c0,2 -1,4 -3,4 -2,0 -3,-2 -3,-4 0,-2 1,-3 3,-3 2,0 3,1 3,3z"/>
  <path class="fil1" d="M828 328c0,2 -2,3 -4,3 -2,0 -3,-1 -3,-3 0,-2 1,-4 3,-4 2,0 4,2 4,4z"/>
  <path class="fil1" d="M826 296c0,2 -2,3 -4,3 -1,0 -3,-1 -3,-3 0,-2 2,-4 3,-4 2,0 4,2 4,4z"/>
  <path class="fil1" d="M821 267c0,2 -1,3 -3,3 -2,0 -3,-1 -3,-3 0,-2 1,-4 3,-4 2,0 3,2 3,4z"/>
  <path class="fil1" d="M809 239c0,2 -2,4 -3,4 -2,0 -4,-2 -4,-4 0,-1 2,-3 4,-3 1,0 3,2 3,3z"/>
  <path class="fil1" d="M790 213c0,2 -2,3 -3,3 -2,0 -4,-1 -4,-3 0,-2 2,-4 4,-4 1,0 3,2 3,4z"/>
  <path class="fil1" d="M763 193c0,2 -2,3 -4,3 -2,0 -3,-1 -3,-3 0,-2 1,-4 3,-4 2,0 4,2 4,4z"/>
  <path class="fil1" d="M739 181c0,2 -2,4 -4,4 -1,0 -3,-2 -3,-4 0,-2 2,-3 3,-3 2,0 4,1 4,3z"/>
  <path class="fil1" d="M710 173c0,2 -1,3 -3,3 -2,0 -4,-1 -4,-3 0,-2 2,-4 4,-4 2,0 3,2 3,4z"/>
  <path class="fil1" d="M680 176c0,2 -2,3 -4,3 -2,0 -3,-1 -3,-3 0,-2 1,-3 3,-3 2,0 4,1 4,3z"/>
  <path class="fil1" d="M640 187c0,2 -2,3 -4,3 -1,0 -3,-1 -3,-3 0,-2 2,-4 3,-4 2,0 4,2 4,4z"/>
  <path class="fil1" d="M598 216c0,2 -2,3 -3,3 -2,0 -4,-1 -4,-3 0,-2 2,-4 4,-4 1,0 3,2 3,4z"/>
  <path class="fil1" d="M577 249c0,2 -1,4 -3,4 -2,0 -3,-2 -3,-4 0,-2 1,-3 3,-3 2,0 3,1 3,3z"/>
  <path class="fil1" d="M564 276c0,2 -2,4 -3,4 -2,0 -4,-2 -4,-4 0,-1 2,-3 4,-3 1,0 3,2 3,3z"/>
  <path class="fil1" d="M556 310c0,2 -2,3 -4,3 -1,0 -3,-1 -3,-3 0,-2 2,-3 3,-3 2,0 4,1 4,3z"/>
  <path class="fil1" d="M558 346c0,2 -2,3 -4,3 -2,0 -3,-1 -3,-3 0,-2 1,-4 3,-4 2,0 4,2 4,4z"/>
  <path class="fil1" d="M573 382c0,2 -1,3 -3,3 -2,0 -3,-1 -3,-3 0,-2 1,-4 3,-4 2,0 3,2 3,4z"/>
  <path class="fil1" d="M609 414c0,2 -2,4 -4,4 -1,0 -3,-2 -3,-4 0,-1 2,-3 3,-3 2,0 4,2 4,3z"/>
  <path class="fil1" d="M659 414c0,2 -2,4 -4,4 -2,0 -3,-2 -3,-4 0,-2 1,-3 3,-3 2,0 4,1 4,3z"/>
  <path class="fil1" d="M713 398c0,2 -2,4 -4,4 -1,0 -3,-2 -3,-4 0,-2 2,-3 3,-3 2,0 4,1 4,3z"/>
  <path class="fil1" d="M765 275c0,2 -2,4 -4,4 -1,0 -3,-2 -3,-4 0,-2 2,-3 3,-3 2,0 4,1 4,3z"/>
  <path class="fil1" d="M735 227c0,2 -1,3 -3,3 -2,0 -3,-1 -3,-3 0,-2 1,-4 3,-4 2,0 3,2 3,4z"/>
  <path class="fil1" d="M713 194c0,2 -2,4 -4,4 -2,0 -3,-2 -3,-4 0,-2 1,-3 3,-3 2,0 4,1 4,3z"/>
  <path class="fil1" d="M662 175c0,1 -2,3 -3,3 -2,0 -4,-2 -4,-3 0,-2 2,-4 4,-4 1,0 3,2 3,4z"/>
  <path class="fil1" d="M622 191c0,2 -2,3 -3,3 -2,0 -4,-1 -4,-3 0,-2 2,-4 4,-4 1,0 3,2 3,4z"/>
  <path class="fil1" d="M604 207c0,1 -1,3 -3,3 -2,0 -3,-2 -3,-3 0,-2 1,-4 3,-4 2,0 3,2 3,4z"/>
  <path class="fil1" d="M591 231c0,1 -1,3 -3,3 -2,0 -3,-2 -3,-3 0,-2 1,-4 3,-4 2,0 3,2 3,4z"/>
  <path class="fil1" d="M621 238c0,2 -1,3 -3,3 -2,0 -3,-1 -3,-3 0,-2 1,-4 3,-4 2,0 3,2 3,4z"/>
  <path class="fil1" d="M663 221c0,2 -2,4 -4,4 -2,0 -3,-2 -3,-4 0,-2 1,-3 3,-3 2,0 4,1 4,3z"/>
  <path class="fil1" d="M640 213c0,2 -1,3 -3,3 -2,0 -4,-1 -4,-3 0,-2 2,-4 4,-4 2,0 3,2 3,4z"/>
  <path class="fil1" d="M662 199c0,2 -2,4 -4,4 -1,0 -3,-2 -3,-4 0,-2 2,-3 3,-3 2,0 4,1 4,3z"/>
  <path class="fil1" d="M705 219c0,2 -2,3 -4,3 -1,0 -3,-1 -3,-3 0,-2 2,-4 3,-4 2,0 4,2 4,4z"/>
  <path class="fil1" d="M662 237c0,2 -1,4 -3,4 -2,0 -4,-2 -4,-4 0,-2 2,-3 4,-3 2,0 3,1 3,3z"/>
  <path class="fil1" d="M694 208c0,2 -1,4 -3,4 -2,0 -3,-2 -3,-4 0,-2 1,-3 3,-3 2,0 3,1 3,3z"/>
  <path class="fil1" d="M756 230c0,2 -2,4 -3,4 -2,0 -4,-2 -4,-4 0,-2 2,-3 4,-3 1,0 3,1 3,3z"/>
  <path class="fil1" d="M795 285c0,2 -1,3 -3,3 -2,0 -3,-1 -3,-3 0,-2 1,-4 3,-4 2,0 3,2 3,4z"/>
  <path class="fil1" d="M799 368c0,2 -1,3 -3,3 -2,0 -3,-1 -3,-3 0,-2 1,-4 3,-4 2,0 3,2 3,4z"/>
  <path class="fil1" d="M749 422c0,2 -2,3 -4,3 -2,0 -3,-1 -3,-3 0,-2 1,-4 3,-4 2,0 4,2 4,4z"/>
  <path class="fil1" d="M660 396c0,2 -1,4 -3,4 -2,0 -3,-2 -3,-4 0,-2 1,-3 3,-3 2,0 3,1 3,3z"/>
  <path class="fil1" d="M1058 382c0,2 -1,3 -3,3 -1,0 -3,-1 -3,-3 0,-2 2,-4 3,-4 2,0 3,2 3,4z"/>
  <path class="fil1" d="M1071 360c0,2 -1,3 -3,3 -2,0 -3,-1 -3,-3 0,-2 1,-4 3,-4 2,0 3,2 3,4z"/>
  <path class="fil1" d="M1171 393c0,2 -1,4 -3,4 -1,0 -3,-2 -3,-4 0,-2 2,-3 3,-3 2,0 3,1 3,3z"/>
  <path class="fil1" d="M1099 514c0,2 -1,3 -3,3 -2,0 -3,-1 -3,-3 0,-3 1,-4 3,-4 2,0 3,1 3,4z"/>
  <path class="fil1" d="M1028 460c0,2 -1,3 -3,3 -2,0 -3,-1 -3,-3 0,-2 1,-4 3,-4 2,0 3,2 3,4z"/>
  <path class="fil1" d="M1049 346c0,2 -1,4 -3,4 -2,0 -3,-2 -3,-4 0,-2 1,-4 3,-4 2,0 3,2 3,4z"/>
  <path class="fil1" d="M1192 455c0,2 -1,3 -3,3 -2,0 -3,-1 -3,-3 0,-2 1,-4 3,-4 2,0 3,2 3,4z"/>
  <path class="fil1" d="M1039 476c0,2 -2,4 -3,4 -2,0 -3,-2 -3,-4 0,-2 1,-4 3,-4 1,0 3,2 3,4z"/>
  <path class="fil1" d="M1096 330c0,2 -1,4 -3,4 -2,0 -3,-2 -3,-4 0,-2 1,-4 3,-4 2,0 3,2 3,4z"/>
  <path class="fil1" d="M1128 526c0,2 -2,3 -3,3 -2,0 -3,-1 -3,-3 0,-2 1,-4 3,-4 1,0 3,2 3,4z"/>
  <path class="fil1" d="M1031 359c0,3 -2,4 -3,4 -2,0 -3,-1 -3,-4 0,-2 1,-3 3,-3 1,0 3,1 3,3z"/>
  <path class="fil1" d="M1207 426c0,2 -1,3 -3,3 -2,0 -3,-1 -3,-3 0,-2 1,-4 3,-4 2,0 3,2 3,4z"/>
  <path class="fil1" d="M1021 421c0,2 -2,4 -3,4 -2,0 -3,-2 -3,-4 0,-2 1,-4 3,-4 1,0 3,2 3,4z"/>
  <path class="fil1" d="M1177 347c0,2 -2,3 -3,3 -2,0 -3,-1 -3,-3 0,-2 1,-4 3,-4 1,0 3,2 3,4z"/>
  <path class="fil1" d="M1052 453c0,2 -1,3 -3,3 -1,0 -3,-1 -3,-3 0,-2 2,-4 3,-4 2,0 3,2 3,4z"/>
  <path class="fil1" d="M1183 418c0,2 -1,4 -3,4 -1,0 -3,-2 -3,-4 0,-2 2,-3 3,-3 2,0 3,1 3,3z"/>
  <path class="fil1" d="M1048 432c0,2 -1,4 -3,4 -1,0 -3,-2 -3,-4 0,-2 2,-3 3,-3 2,0 3,1 3,3z"/>
  <path class="fil1" d="M1083 494c0,2 -1,4 -3,4 -2,0 -3,-2 -3,-4 0,-2 1,-3 3,-3 2,0 3,1 3,3z"/>
  <path class="fil1" d="M1129 497c0,2 -1,4 -3,4 -1,0 -3,-2 -3,-4 0,-2 2,-4 3,-4 2,0 3,2 3,4z"/>
  <path class="fil1" d="M1138 481c0,2 -1,4 -3,4 -2,0 -3,-2 -3,-4 0,-2 1,-3 3,-3 2,0 3,1 3,3z"/>
  <path class="fil1" d="M1161 354c0,2 -1,4 -3,4 -2,0 -3,-2 -3,-4 0,-2 1,-4 3,-4 2,0 3,2 3,4z"/>
  <path class="fil1" d="M1154 485c0,2 -1,3 -3,3 -2,0 -3,-1 -3,-3 0,-3 1,-4 3,-4 2,0 3,1 3,4z"/>
  <path class="fil1" d="M1142 358c0,2 -1,3 -3,3 -2,0 -3,-1 -3,-3 0,-2 1,-4 3,-4 2,0 3,2 3,4z"/>
  <path class="fil1" d="M1164 472c0,2 -1,4 -3,4 -2,0 -3,-2 -3,-4 0,-2 1,-3 3,-3 2,0 3,1 3,3z"/>
  <path class="fil1" d="M1164 455c0,2 -1,4 -3,4 -2,0 -3,-2 -3,-4 0,-2 1,-4 3,-4 2,0 3,2 3,4z"/>
  <path class="fil1" d="M1156 441c0,2 -1,3 -3,3 -2,0 -3,-1 -3,-3 0,-2 1,-4 3,-4 2,0 3,2 3,4z"/>
  <path class="fil1" d="M1145 447c0,2 -2,3 -3,3 -2,0 -3,-1 -3,-3 0,-2 1,-4 3,-4 1,0 3,2 3,4z"/>
  <path class="fil1" d="M1147 464c0,2 -2,3 -3,3 -2,0 -4,-1 -4,-3 0,-2 2,-4 4,-4 1,0 3,2 3,4z"/>
  <path class="fil1" d="M1159 406c0,2 -2,4 -3,4 -2,0 -3,-2 -3,-4 0,-2 1,-3 3,-3 1,0 3,1 3,3z"/>
  <path class="fil1" d="M1157 423c0,2 -1,3 -3,3 -2,0 -3,-1 -3,-3 0,-2 1,-4 3,-4 2,0 3,2 3,4z"/>
  <path class="fil1" d="M1168 433c0,2 -1,4 -3,4 -2,0 -3,-2 -3,-4 0,-2 1,-4 3,-4 2,0 3,2 3,4z"/>
  <path class="fil1" d="M1124 369c0,2 -1,4 -3,4 -2,0 -3,-2 -3,-4 0,-2 1,-4 3,-4 2,0 3,2 3,4z"/>
  <path class="fil1" d="M1080 452c0,2 -1,4 -3,4 -2,0 -3,-2 -3,-4 0,-2 1,-3 3,-3 2,0 3,1 3,3z"/>
  <path class="fil1" d="M1083 467c0,2 -2,4 -3,4 -2,0 -4,-2 -4,-4 0,-2 2,-4 4,-4 1,0 3,2 3,4z"/>
  <path class="fil1" d="M1104 481c0,2 -1,3 -3,3 -2,0 -3,-1 -3,-3 0,-2 1,-4 3,-4 2,0 3,2 3,4z"/>
  <path class="fil1" d="M1090 382c0,2 -1,3 -3,3 -1,0 -3,-1 -3,-3 0,-2 2,-4 3,-4 2,0 3,2 3,4z"/>
  <path class="fil1" d="M1111 410c0,2 -1,3 -3,3 -2,0 -3,-1 -3,-3 0,-2 1,-4 3,-4 2,0 3,2 3,4z"/>
  <path class="fil1" d="M1097 420c0,2 -1,3 -3,3 -2,0 -3,-1 -3,-3 0,-2 1,-4 3,-4 2,0 3,2 3,4z"/>
  <path class="fil1" d="M1097 401c0,3 -1,4 -3,4 -1,0 -3,-1 -3,-4 0,-2 2,-3 3,-3 2,0 3,1 3,3z"/>
  <path class="fil1" d="M1128 384c0,2 -1,3 -3,3 -1,0 -3,-1 -3,-3 0,-2 2,-4 3,-4 2,0 3,2 3,4z"/>
  <path class="fil1" d="M1110 460c0,2 -2,4 -3,4 -2,0 -3,-2 -3,-4 0,-2 1,-4 3,-4 1,0 3,2 3,4z"/>
  <path class="fil1" d="M1125 418c0,2 -2,4 -3,4 -2,0 -3,-2 -3,-4 0,-2 1,-3 3,-3 1,0 3,1 3,3z"/>
  <path class="fil1" d="M1128 403c0,2 -1,4 -3,4 -1,0 -3,-2 -3,-4 0,-2 2,-4 3,-4 2,0 3,2 3,4z"/>
  <path class="fil1" d="M1082 414c0,2 -1,4 -3,4 -2,0 -3,-2 -3,-4 0,-2 1,-3 3,-3 2,0 3,1 3,3z"/>
  <path class="fil1" d="M1118 480c0,2 -2,4 -4,4 -1,0 -3,-2 -3,-4 0,-2 2,-3 3,-3 2,0 4,1 4,3z"/>
  <path class="fil1" d="M1144 401c0,3 -1,4 -3,4 -2,0 -3,-1 -3,-4 0,-2 1,-3 3,-3 2,0 3,1 3,3z"/>
  <path class="fil1" d="M1126 466c0,2 -1,3 -3,3 -2,0 -3,-1 -3,-3 0,-2 1,-4 3,-4 2,0 3,2 3,4z"/>
  <path class="fil1" d="M1129 450c0,2 -1,4 -3,4 -2,0 -3,-2 -3,-4 0,-2 1,-3 3,-3 2,0 3,1 3,3z"/>
  <path class="fil1" d="M1082 398c0,2 -1,3 -3,3 -1,0 -3,-1 -3,-3 0,-2 2,-4 3,-4 2,0 3,2 3,4z"/>
  <path class="fil1" d="M1141 420c0,2 -1,4 -3,4 -1,0 -3,-2 -3,-4 0,-2 2,-4 3,-4 2,0 3,2 3,4z"/>
  <path class="fil1" d="M1100 443c0,2 -2,3 -3,3 -2,0 -3,-1 -3,-3 0,-2 1,-4 3,-4 1,0 3,2 3,4z"/>
  <path class="fil1" d="M1132 434c0,2 -1,3 -3,3 -2,0 -3,-1 -3,-3 0,-2 1,-4 3,-4 2,0 3,2 3,4z"/>
  <path class="fil1" d="M1103 384c0,2 -1,4 -3,4 -1,0 -3,-2 -3,-4 0,-2 2,-4 3,-4 2,0 3,2 3,4z"/>
  <path class="fil1" d="M1143 384c0,2 -1,3 -3,3 -1,0 -3,-1 -3,-3 0,-2 2,-4 3,-4 2,0 3,2 3,4z"/>
  <path class="fil1" d="M1097 465c0,2 -2,4 -3,4 -2,0 -3,-2 -3,-4 0,-2 1,-4 3,-4 1,0 3,2 3,4z"/>
  <path class="fil1" d="M1086 434c0,2 -1,4 -3,4 -2,0 -3,-2 -3,-4 0,-2 1,-3 3,-3 2,0 3,1 3,3z"/>
  <path class="fil1" d="M1108 368c0,2 -1,4 -3,4 -1,0 -3,-2 -3,-4 0,-2 2,-3 3,-3 2,0 3,1 3,3z"/>
  <path class="fil1" d="M1113 428c0,2 -2,3 -3,3 -2,0 -4,-1 -4,-3 0,-2 2,-4 4,-4 1,0 3,2 3,4z"/>
  <path class="fil1" d="M1115 393c0,2 -1,3 -3,3 -2,0 -3,-1 -3,-3 0,-2 1,-4 3,-4 2,0 3,2 3,4z"/>
  <path class="fil1" d="M1115 444c0,2 -1,4 -3,4 -2,0 -3,-2 -3,-4 0,-2 1,-3 3,-3 2,0 3,1 3,3z"/>
  <path class="fil1" d="M1071 432c0,2 -2,4 -4,4 -1,0 -3,-2 -3,-4 0,-2 2,-4 3,-4 2,0 4,2 4,4z"/>
  <path class="fil1" d="M1058 409c0,2 -2,4 -3,4 -2,0 -3,-2 -3,-4 0,-2 1,-4 3,-4 1,0 3,2 3,4z"/>
  <path class="fil1" d="M1041 411c0,2 -2,4 -3,4 -2,0 -4,-2 -4,-4 0,-2 2,-4 4,-4 1,0 3,2 3,4z"/>
  <path class="fil1" d="M1028 396c0,2 -2,3 -4,3 -1,0 -3,-1 -3,-3 0,-2 2,-4 3,-4 2,0 4,2 4,4z"/>
  <path class="fil1" d="M1013 392c0,2 -1,4 -3,4 -2,0 -3,-2 -3,-4 0,-2 1,-4 3,-4 2,0 3,2 3,4z"/>
  <path class="fil1" d="M1000 396c0,2 -2,4 -3,4 -2,0 -3,-2 -3,-4 0,-2 1,-3 3,-3 1,0 3,1 3,3z"/>
  <path class="fil1" d="M1000 414c0,2 -1,4 -3,4 -2,0 -3,-2 -3,-4 0,-2 1,-3 3,-3 2,0 3,1 3,3z"/>
  <path class="fil1" d="M995 430c0,2 -1,4 -3,4 -1,0 -3,-2 -3,-4 0,-2 2,-3 3,-3 2,0 3,1 3,3z"/>
  <path class="fil1" d="M1010 441c0,2 -2,3 -4,3 -1,0 -3,-1 -3,-3 0,-2 2,-4 3,-4 2,0 4,2 4,4z"/>
  <path class="fil1" d="M996 452c0,2 -1,4 -3,4 -2,0 -3,-2 -3,-4 0,-2 1,-3 3,-3 2,0 3,1 3,3z"/>
  <path class="fil1" d="M1007 465c0,2 -2,4 -3,4 -2,0 -3,-2 -3,-4 0,-2 1,-3 3,-3 1,0 3,1 3,3z"/>
  <path class="fil1" d="M1006 485c0,2 -1,3 -3,3 -1,0 -3,-1 -3,-3 0,-2 2,-4 3,-4 2,0 3,2 3,4z"/>
  <path class="fil1" d="M1019 488c0,2 -1,4 -3,4 -2,0 -3,-2 -3,-4 0,-2 1,-3 3,-3 2,0 3,1 3,3z"/>
  <path class="fil1" d="M1026 503c0,2 -1,3 -3,3 -2,0 -3,-1 -3,-3 0,-2 1,-4 3,-4 2,0 3,2 3,4z"/>
  <path class="fil1" d="M1042 509c0,2 -2,4 -3,4 -2,0 -3,-2 -3,-4 0,-2 1,-3 3,-3 1,0 3,1 3,3z"/>
  <path class="fil1" d="M1051 527c0,2 -2,4 -4,4 -1,0 -3,-2 -3,-4 0,-2 2,-3 3,-3 2,0 4,1 4,3z"/>
  <path class="fil1" d="M1071 538c0,2 -2,4 -3,4 -2,0 -4,-2 -4,-4 0,-2 2,-3 4,-3 1,0 3,1 3,3z"/>
  <path class="fil1" d="M1095 544c0,2 -1,3 -3,3 -2,0 -3,-1 -3,-3 0,-2 1,-4 3,-4 2,0 3,2 3,4z"/>
  <path class="fil1" d="M1126 546c0,2 -1,3 -3,3 -2,0 -3,-1 -3,-3 0,-2 1,-4 3,-4 2,0 3,2 3,4z"/>
  <path class="fil1" d="M1166 526c0,2 -1,4 -3,4 -1,0 -3,-2 -3,-4 0,-2 2,-3 3,-3 2,0 3,1 3,3z"/>
  <path class="fil1" d="M1184 509c0,2 -1,4 -3,4 -1,0 -3,-2 -3,-4 0,-2 2,-3 3,-3 2,0 3,1 3,3z"/>
  <path class="fil1" d="M1202 492c0,2 -1,4 -3,4 -2,0 -3,-2 -3,-4 0,-2 1,-4 3,-4 2,0 3,2 3,4z"/>
  <path class="fil1" d="M1219 461c0,2 -1,4 -3,4 -2,0 -3,-2 -3,-4 0,-2 1,-4 3,-4 2,0 3,2 3,4z"/>
  <path class="fil1" d="M1226 430c0,2 -2,4 -3,4 -2,0 -3,-2 -3,-4 0,-2 1,-4 3,-4 1,0 3,2 3,4z"/>
  <path class="fil1" d="M1224 397c0,2 -1,3 -3,3 -2,0 -3,-1 -3,-3 0,-3 1,-4 3,-4 2,0 3,1 3,4z"/>
  <path class="fil1" d="M1220 366c0,2 -2,4 -3,4 -2,0 -3,-2 -3,-4 0,-2 1,-4 3,-4 1,0 3,2 3,4z"/>
  <path class="fil1" d="M1208 337c0,2 -1,4 -3,4 -2,0 -3,-2 -3,-4 0,-2 1,-4 3,-4 2,0 3,2 3,4z"/>
  <path class="fil1" d="M1191 309c0,2 -2,4 -4,4 -1,0 -3,-2 -3,-4 0,-2 2,-4 3,-4 2,0 4,2 4,4z"/>
  <path class="fil1" d="M1165 288c0,2 -1,4 -3,4 -2,0 -3,-2 -3,-4 0,-2 1,-4 3,-4 2,0 3,2 3,4z"/>
  <path class="fil1" d="M1143 276c0,2 -1,3 -3,3 -2,0 -3,-1 -3,-3 0,-2 1,-4 3,-4 2,0 3,2 3,4z"/>
  <path class="fil1" d="M1116 267c0,2 -1,4 -3,4 -2,0 -3,-2 -3,-4 0,-2 1,-4 3,-4 2,0 3,2 3,4z"/>
  <path class="fil1" d="M1088 270c0,2 -2,4 -3,4 -2,0 -3,-2 -3,-4 0,-2 1,-3 3,-3 1,0 3,1 3,3z"/>
  <path class="fil1" d="M1051 282c0,2 -2,3 -3,3 -2,0 -3,-1 -3,-3 0,-2 1,-4 3,-4 1,0 3,2 3,4z"/>
  <path class="fil1" d="M1012 312c0,2 -2,4 -3,4 -2,0 -3,-2 -3,-4 0,-2 1,-3 3,-3 1,0 3,1 3,3z"/>
  <path class="fil1" d="M993 347c0,2 -2,4 -3,4 -2,0 -3,-2 -3,-4 0,-2 1,-3 3,-3 1,0 3,1 3,3z"/>
  <path class="fil1" d="M980 376c0,2 -1,4 -3,4 -2,0 -3,-2 -3,-4 0,-2 1,-4 3,-4 2,0 3,2 3,4z"/>
  <path class="fil1" d="M972 411c0,2 -1,4 -3,4 -1,0 -3,-2 -3,-4 0,-2 2,-3 3,-3 2,0 3,1 3,3z"/>
  <path class="fil1" d="M974 449c0,2 -1,4 -3,4 -1,0 -3,-2 -3,-4 0,-2 2,-4 3,-4 2,0 3,2 3,4z"/>
  <path class="fil1" d="M989 487c0,2 -1,4 -3,4 -2,0 -3,-2 -3,-4 0,-2 1,-4 3,-4 2,0 3,2 3,4z"/>
  <path class="fil1" d="M1022 521c0,2 -1,4 -3,4 -2,0 -3,-2 -3,-4 0,-2 1,-3 3,-3 2,0 3,1 3,3z"/>
  <path class="fil1" d="M1068 521c0,2 -1,4 -3,4 -1,0 -3,-2 -3,-4 0,-2 2,-4 3,-4 2,0 3,2 3,4z"/>
  <path class="fil1" d="M1119 504c0,2 -2,4 -3,4 -2,0 -3,-2 -3,-4 0,-2 1,-4 3,-4 1,0 3,2 3,4z"/>
  <path class="fil1" d="M1167 375c0,2 -1,4 -3,4 -2,0 -3,-2 -3,-4 0,-2 1,-4 3,-4 2,0 3,2 3,4z"/>
  <path class="fil1" d="M1140 324c0,2 -2,3 -3,3 -2,0 -3,-1 -3,-3 0,-2 1,-4 3,-4 1,0 3,2 3,4z"/>
  <path class="fil1" d="M1119 290c0,2 -2,3 -3,3 -2,0 -4,-1 -4,-3 0,-2 2,-4 4,-4 1,0 3,2 3,4z"/>
  <path class="fil1" d="M1071 269c0,2 -1,3 -3,3 -1,0 -3,-1 -3,-3 0,-2 2,-4 3,-4 2,0 3,2 3,4z"/>
  <path class="fil1" d="M1034 286c0,2 -1,3 -3,3 -2,0 -3,-1 -3,-3 0,-2 1,-4 3,-4 2,0 3,2 3,4z"/>
  <path class="fil1" d="M1018 302c0,3 -2,4 -3,4 -2,0 -3,-1 -3,-4 0,-2 1,-3 3,-3 1,0 3,1 3,3z"/>
  <path class="fil1" d="M1006 328c0,2 -2,3 -3,3 -2,0 -3,-1 -3,-3 0,-2 1,-4 3,-4 1,0 3,2 3,4z"/>
  <path class="fil1" d="M1034 335c0,2 -2,4 -3,4 -2,0 -4,-2 -4,-4 0,-2 2,-4 4,-4 1,0 3,2 3,4z"/>
  <path class="fil1" d="M1072 318c0,2 -1,4 -3,4 -2,0 -3,-2 -3,-4 0,-2 1,-4 3,-4 2,0 3,2 3,4z"/>
  <path class="fil1" d="M1051 309c0,2 -1,4 -3,4 -2,0 -3,-2 -3,-4 0,-2 1,-4 3,-4 2,0 3,2 3,4z"/>
  <path class="fil1" d="M1071 295c0,2 -1,3 -3,3 -2,0 -3,-1 -3,-3 0,-2 1,-4 3,-4 2,0 3,2 3,4z"/>
  <path class="fil1" d="M1111 315c0,2 -1,4 -3,4 -1,0 -3,-2 -3,-4 0,-2 2,-3 3,-3 2,0 3,1 3,3z"/>
  <path class="fil1" d="M1072 335c0,2 -2,4 -4,4 -1,0 -3,-2 -3,-4 0,-2 2,-4 3,-4 2,0 4,2 4,4z"/>
  <path class="fil1" d="M1102 304c0,2 -2,4 -3,4 -2,0 -3,-2 -3,-4 0,-2 1,-3 3,-3 1,0 3,1 3,3z"/>
  <path class="fil1" d="M1159 328c0,2 -1,3 -3,3 -2,0 -3,-1 -3,-3 0,-2 1,-4 3,-4 2,0 3,2 3,4z"/>
  <path class="fil1" d="M1195 385c0,2 -1,3 -3,3 -1,0 -3,-1 -3,-3 0,-2 2,-4 3,-4 2,0 3,2 3,4z"/>
  <path class="fil1" d="M1199 472c0,2 -1,4 -3,4 -1,0 -3,-2 -3,-4 0,-2 2,-3 3,-3 2,0 3,1 3,3z"/>
  <path class="fil1" d="M1152 529c0,2 -1,4 -3,4 -2,0 -3,-2 -3,-4 0,-2 1,-4 3,-4 2,0 3,2 3,4z"/>
  <path class="fil1" d="M1070 502c0,2 -1,4 -3,4 -2,0 -3,-2 -3,-4 0,-2 1,-4 3,-4 2,0 3,2 3,4z"/>
  <path class="fil1" d="M1209 165c0,2 -2,4 -5,4 -2,0 -4,-2 -4,-4 0,-3 2,-5 4,-5 3,0 5,2 5,5z"/>
  <path class="fil1" d="M1228 138c0,2 -2,4 -5,4 -2,0 -4,-2 -4,-4 0,-3 2,-5 4,-5 3,0 5,2 5,5z"/>
  <path class="fil1" d="M1374 179c0,2 -2,4 -5,4 -2,0 -4,-2 -4,-4 0,-2 2,-4 4,-4 3,0 5,2 5,4z"/>
  <path class="fil1" d="M1268 326c0,3 -2,5 -4,5 -3,0 -5,-2 -5,-5 0,-2 2,-4 5,-4 2,0 4,2 4,4z"/>
  <path class="fil1" d="M1165 260c0,3 -2,5 -5,5 -2,0 -4,-2 -4,-5 0,-2 2,-4 4,-4 3,0 5,2 5,4z"/>
  <path class="fil1" d="M1195 121c0,3 -2,5 -4,5 -3,0 -5,-2 -5,-5 0,-2 2,-4 5,-4 2,0 4,2 4,4z"/>
  <path class="fil1" d="M1405 255c0,2 -2,4 -5,4 -2,0 -4,-2 -4,-4 0,-3 2,-5 4,-5 3,0 5,2 5,5z"/>
  <path class="fil1" d="M1180 280c0,3 -2,5 -4,5 -3,0 -5,-2 -5,-5 0,-2 2,-4 5,-4 2,0 4,2 4,4z"/>
  <path class="fil1" d="M1264 101c0,3 -2,5 -5,5 -2,0 -4,-2 -4,-5 0,-2 2,-4 4,-4 3,0 5,2 5,4z"/>
  <path class="fil1" d="M1310 342c0,2 -2,4 -4,4 -3,0 -5,-2 -5,-4 0,-3 2,-5 5,-5 2,0 4,2 4,5z"/>
  <path class="fil1" d="M1169 138c0,2 -2,4 -5,4 -2,0 -4,-2 -4,-4 0,-3 2,-5 4,-5 3,0 5,2 5,5z"/>
  <path class="fil1" d="M1426 219c0,2 -2,4 -4,4 -3,0 -5,-2 -5,-4 0,-3 2,-5 5,-5 2,0 4,2 4,5z"/>
  <path class="fil1" d="M1154 213c0,2 -2,4 -5,4 -2,0 -4,-2 -4,-4 0,-3 2,-5 4,-5 3,0 5,2 5,5z"/>
  <path class="fil1" d="M1382 122c0,2 -2,4 -5,4 -2,0 -4,-2 -4,-4 0,-3 2,-5 4,-5 3,0 5,2 5,5z"/>
  <path class="fil1" d="M1200 252c0,2 -2,4 -5,4 -2,0 -4,-2 -4,-4 0,-3 2,-5 4,-5 3,0 5,2 5,5z"/>
  <path class="fil1" d="M1391 210c0,2 -2,4 -4,4 -3,0 -5,-2 -5,-4 0,-3 2,-5 5,-5 2,0 4,2 4,5z"/>
  <path class="fil1" d="M1194 227c0,2 -2,4 -4,4 -3,0 -5,-2 -5,-4 0,-3 2,-5 5,-5 2,0 4,2 4,5z"/>
  <path class="fil1" d="M1245 303c0,2 -2,4 -4,4 -3,0 -5,-2 -5,-4 0,-3 2,-5 5,-5 2,0 4,2 4,5z"/>
  <path class="fil1" d="M1313 306c0,3 -2,5 -5,5 -2,0 -4,-2 -4,-5 0,-2 2,-4 4,-4 3,0 5,2 5,4z"/>
  <path class="fil1" d="M1325 287c0,3 -2,5 -4,5 -3,0 -5,-2 -5,-5 0,-2 2,-4 5,-4 2,0 4,2 4,4z"/>
  <path class="fil1" d="M1359 131c0,2 -2,4 -5,4 -2,0 -4,-2 -4,-4 0,-3 2,-5 4,-5 3,0 5,2 5,5z"/>
  <path class="fil1" d="M1349 291c0,2 -2,4 -5,4 -2,0 -4,-2 -4,-4 0,-3 2,-5 4,-5 3,0 5,2 5,5z"/>
  <path class="fil1" d="M1331 135c0,3 -2,5 -4,5 -3,0 -5,-2 -5,-5 0,-2 2,-4 5,-4 2,0 4,2 4,4z"/>
  <path class="fil1" d="M1363 276c0,2 -2,4 -4,4 -3,0 -5,-2 -5,-4 0,-3 2,-5 5,-5 2,0 4,2 4,5z"/>
  <path class="fil1" d="M1363 255c0,2 -2,4 -4,4 -3,0 -5,-2 -5,-4 0,-3 2,-5 5,-5 2,0 4,2 4,5z"/>
  <path class="fil1" d="M1351 237c0,3 -2,5 -4,5 -3,0 -5,-2 -5,-5 0,-2 2,-4 5,-4 2,0 4,2 4,4z"/>
  <path class="fil1" d="M1335 245c0,2 -2,4 -4,4 -3,0 -5,-2 -5,-4 0,-3 2,-5 5,-5 2,0 4,2 4,5z"/>
  <path class="fil1" d="M1338 266c0,2 -2,4 -5,4 -2,0 -4,-2 -4,-4 0,-3 2,-5 4,-5 3,0 5,2 5,5z"/>
  <path class="fil1" d="M1356 195c0,3 -2,5 -5,5 -2,0 -4,-2 -4,-5 0,-2 2,-4 4,-4 3,0 5,2 5,4z"/>
  <path class="fil1" d="M1353 215c0,3 -2,5 -5,5 -2,0 -4,-2 -4,-5 0,-2 2,-4 4,-4 3,0 5,2 5,4z"/>
  <path class="fil1" d="M1369 228c0,2 -2,4 -4,4 -3,0 -5,-2 -5,-4 0,-3 2,-5 5,-5 2,0 4,2 4,5z"/>
  <path class="fil1" d="M1305 149c0,3 -2,5 -5,5 -2,0 -4,-2 -4,-5 0,-2 2,-4 4,-4 3,0 5,2 5,4z"/>
  <path class="fil1" d="M1240 251c0,3 -2,5 -4,5 -3,0 -5,-2 -5,-5 0,-2 2,-4 5,-4 2,0 4,2 4,4z"/>
  <path class="fil1" d="M1244 269c0,3 -2,5 -4,5 -3,0 -5,-2 -5,-5 0,-2 2,-4 5,-4 2,0 4,2 4,4z"/>
  <path class="fil1" d="M1275 286c0,3 -2,5 -4,5 -3,0 -5,-2 -5,-5 0,-2 2,-4 5,-4 2,0 4,2 4,4z"/>
  <path class="fil1" d="M1256 165c0,2 -2,4 -5,4 -2,0 -4,-2 -4,-4 0,-3 2,-5 4,-5 3,0 5,2 5,5z"/>
  <path class="fil1" d="M1286 199c0,3 -2,5 -5,5 -2,0 -4,-2 -4,-5 0,-2 2,-4 4,-4 3,0 5,2 5,4z"/>
  <path class="fil1" d="M1266 211c0,3 -2,5 -5,5 -2,0 -4,-2 -4,-5 0,-2 2,-4 4,-4 3,0 5,2 5,4z"/>
  <path class="fil1" d="M1266 189c0,3 -2,5 -5,5 -2,0 -4,-2 -4,-5 0,-2 2,-4 4,-4 3,0 5,2 5,4z"/>
  <path class="fil1" d="M1311 167c0,3 -2,5 -5,5 -2,0 -4,-2 -4,-5 0,-2 2,-4 4,-4 3,0 5,2 5,4z"/>
  <path class="fil1" d="M1284 261c0,2 -2,4 -5,4 -2,0 -4,-2 -4,-4 0,-3 2,-5 4,-5 3,0 5,2 5,5z"/>
  <path class="fil1" d="M1306 210c0,2 -2,4 -5,4 -2,0 -4,-2 -4,-4 0,-3 2,-5 4,-5 3,0 5,2 5,5z"/>
  <path class="fil1" d="M1311 191c0,2 -2,4 -4,4 -3,0 -5,-2 -5,-4 0,-3 2,-5 5,-5 2,0 4,2 4,5z"/>
  <path class="fil1" d="M1243 205c0,2 -2,4 -4,4 -3,0 -5,-2 -5,-4 0,-3 2,-5 5,-5 2,0 4,2 4,5z"/>
  <path class="fil1" d="M1295 286c0,2 -2,4 -4,4 -3,0 -5,-2 -5,-4 0,-3 2,-5 5,-5 2,0 4,2 4,5z"/>
  <path class="fil1" d="M1334 189c0,3 -2,5 -4,5 -3,0 -5,-2 -5,-5 0,-2 2,-4 5,-4 2,0 4,2 4,4z"/>
  <path class="fil1" d="M1308 268c0,2 -2,4 -5,4 -2,0 -4,-2 -4,-4 0,-3 2,-5 4,-5 3,0 5,2 5,5z"/>
  <path class="fil1" d="M1312 249c0,2 -2,4 -4,4 -3,0 -5,-2 -5,-4 0,-3 2,-5 5,-5 2,0 4,2 4,5z"/>
  <path class="fil1" d="M1244 185c0,2 -2,4 -4,4 -3,0 -5,-2 -5,-4 0,-3 2,-5 5,-5 2,0 4,2 4,5z"/>
  <path class="fil1" d="M1330 212c0,2 -2,4 -4,4 -3,0 -5,-2 -5,-4 0,-3 2,-5 5,-5 2,0 4,2 4,5z"/>
  <path class="fil1" d="M1269 239c0,3 -2,5 -4,5 -3,0 -5,-2 -5,-5 0,-2 2,-4 5,-4 2,0 4,2 4,4z"/>
  <path class="fil1" d="M1317 229c0,2 -2,4 -5,4 -2,0 -4,-2 -4,-4 0,-3 2,-5 4,-5 3,0 5,2 5,5z"/>
  <path class="fil1" d="M1275 168c0,2 -2,4 -5,4 -2,0 -4,-2 -4,-4 0,-3 2,-5 4,-5 3,0 5,2 5,5z"/>
  <path class="fil1" d="M1333 167c0,3 -2,5 -5,5 -2,0 -4,-2 -4,-5 0,-2 2,-4 4,-4 3,0 5,2 5,4z"/>
  <path class="fil1" d="M1265 267c0,3 -2,5 -5,5 -2,0 -4,-2 -4,-5 0,-2 2,-4 4,-4 3,0 5,2 5,4z"/>
  <path class="fil1" d="M1249 229c0,3 -2,5 -4,5 -3,0 -5,-2 -5,-5 0,-2 2,-4 5,-4 2,0 4,2 4,4z"/>
  <path class="fil1" d="M1282 149c0,2 -2,4 -5,4 -2,0 -4,-2 -4,-4 0,-3 2,-5 4,-5 3,0 5,2 5,5z"/>
  <path class="fil1" d="M1288 221c0,3 -2,5 -4,5 -3,0 -5,-2 -5,-5 0,-2 2,-4 5,-4 2,0 4,2 4,4z"/>
  <path class="fil1" d="M1292 178c0,3 -2,5 -5,5 -2,0 -4,-2 -4,-5 0,-2 2,-4 4,-4 3,0 5,2 5,4z"/>
  <path class="fil1" d="M1292 242c0,2 -2,4 -5,4 -2,0 -4,-2 -4,-4 0,-3 2,-5 4,-5 3,0 5,2 5,5z"/>
  <path class="fil1" d="M1227 226c0,3 -2,5 -5,5 -2,0 -4,-2 -4,-5 0,-2 2,-4 4,-4 3,0 5,2 5,4z"/>
  <path class="fil1" d="M1208 198c0,3 -2,5 -4,5 -3,0 -5,-2 -5,-5 0,-2 2,-4 5,-4 2,0 4,2 4,4z"/>
  <path class="fil1" d="M1183 201c0,2 -2,4 -5,4 -2,0 -4,-2 -4,-4 0,-3 2,-5 4,-5 3,0 5,2 5,5z"/>
  <path class="fil1" d="M1164 182c0,2 -2,4 -5,4 -2,0 -4,-2 -4,-4 0,-3 2,-5 4,-5 3,0 5,2 5,5z"/>
  <path class="fil1" d="M1143 178c0,2 -2,4 -5,4 -2,0 -4,-2 -4,-4 0,-3 2,-5 4,-5 3,0 5,2 5,5z"/>
  <path class="fil1" d="M1123 183c0,2 -2,4 -4,4 -3,0 -5,-2 -5,-4 0,-3 2,-5 5,-5 2,0 4,2 4,5z"/>
  <path class="fil1" d="M1124 205c0,2 -2,4 -5,4 -2,0 -4,-2 -4,-4 0,-3 2,-5 4,-5 3,0 5,2 5,5z"/>
  <path class="fil1" d="M1117 224c0,3 -2,5 -5,5 -2,0 -4,-2 -4,-5 0,-2 2,-4 4,-4 3,0 5,2 5,4z"/>
  <path class="fil1" d="M1137 237c0,3 -2,5 -4,5 -3,0 -5,-2 -5,-5 0,-2 2,-4 5,-4 2,0 4,2 4,4z"/>
  <path class="fil1" d="M1118 251c0,3 -2,5 -5,5 -2,0 -4,-2 -4,-5 0,-2 2,-4 4,-4 3,0 5,2 5,4z"/>
  <path class="fil1" d="M1133 267c0,3 -2,5 -4,5 -3,0 -5,-2 -5,-5 0,-2 2,-4 5,-4 2,0 4,2 4,4z"/>
  <path class="fil1" d="M1133 291c0,3 -2,5 -5,5 -2,0 -4,-2 -4,-5 0,-2 2,-4 4,-4 3,0 5,2 5,4z"/>
  <path class="fil1" d="M1151 295c0,3 -2,5 -4,5 -3,0 -5,-2 -5,-5 0,-2 2,-4 5,-4 2,0 4,2 4,4z"/>
  <path class="fil1" d="M1162 313c0,3 -2,5 -5,5 -2,0 -4,-2 -4,-5 0,-2 2,-4 4,-4 3,0 5,2 5,4z"/>
  <path class="fil1" d="M1184 321c0,3 -2,5 -4,5 -3,0 -5,-2 -5,-5 0,-2 2,-4 5,-4 2,0 4,2 4,4z"/>
  <path class="fil1" d="M1197 343c0,3 -2,5 -4,5 -3,0 -5,-2 -5,-5 0,-2 2,-4 5,-4 2,0 4,2 4,4z"/>
  <path class="fil1" d="M1227 357c0,3 -2,5 -5,5 -2,0 -4,-2 -4,-5 0,-2 2,-4 4,-4 3,0 5,2 5,4z"/>
  <path class="fil1" d="M1262 363c0,3 -2,5 -4,5 -2,0 -4,-2 -4,-5 0,-2 2,-4 4,-4 2,0 4,2 4,4z"/>
  <path class="fil1" d="M1308 366c0,2 -2,4 -5,4 -2,0 -4,-2 -4,-4 0,-3 2,-5 4,-5 3,0 5,2 5,5z"/>
  <path class="fil1" d="M1367 342c0,3 -2,5 -5,5 -2,0 -4,-2 -4,-5 0,-2 2,-4 4,-4 3,0 5,2 5,4z"/>
  <path class="fil1" d="M1393 321c0,3 -2,5 -4,5 -3,0 -5,-2 -5,-5 0,-2 2,-4 5,-4 2,0 4,2 4,4z"/>
  <path class="fil1" d="M1419 300c0,2 -2,4 -5,4 -2,0 -4,-2 -4,-4 0,-3 2,-5 4,-5 3,0 5,2 5,5z"/>
  <path class="fil1" d="M1444 262c0,2 -2,4 -5,4 -2,0 -4,-2 -4,-4 0,-3 2,-5 4,-5 3,0 5,2 5,5z"/>
  <path class="fil1" d="M1453 224c0,3 -2,5 -4,5 -3,0 -5,-2 -5,-5 0,-2 2,-4 5,-4 2,0 4,2 4,4z"/>
  <path class="fil1" d="M1451 183c0,2 -2,4 -5,4 -2,0 -4,-2 -4,-4 0,-2 2,-4 4,-4 3,0 5,2 5,4z"/>
  <path class="fil1" d="M1445 146c0,2 -2,4 -5,4 -2,0 -4,-2 -4,-4 0,-3 2,-5 4,-5 3,0 5,2 5,5z"/>
  <path class="fil1" d="M1428 110c0,3 -2,5 -5,5 -2,0 -4,-2 -4,-5 0,-2 2,-4 4,-4 3,0 5,2 5,4z"/>
  <path class="fil1" d="M1402 76c0,2 -2,4 -5,4 -2,0 -4,-2 -4,-4 0,-3 2,-5 4,-5 3,0 5,2 5,5z"/>
  <path class="fil1" d="M1365 50c0,2 -2,4 -5,4 -2,0 -4,-2 -4,-4 0,-3 2,-5 4,-5 3,0 5,2 5,5z"/>
  <path class="fil1" d="M1332 35c0,2 -2,4 -4,4 -3,0 -5,-2 -5,-4 0,-3 2,-5 5,-5 2,0 4,2 4,5z"/>
  <path class="fil1" d="M1293 24c0,3 -2,5 -4,5 -3,0 -5,-2 -5,-5 0,-2 2,-4 5,-4 2,0 4,2 4,4z"/>
  <path class="fil1" d="M1252 28c0,3 -2,5 -5,5 -2,0 -4,-2 -4,-5 0,-2 2,-4 4,-4 3,0 5,2 5,4z"/>
  <path class="fil1" d="M1198 42c0,3 -2,5 -5,5 -2,0 -4,-2 -4,-5 0,-2 2,-4 4,-4 3,0 5,2 5,4z"/>
  <path class="fil1" d="M1141 80c0,2 -2,4 -5,4 -2,0 -4,-2 -4,-4 0,-3 2,-5 4,-5 3,0 5,2 5,5z"/>
  <path class="fil1" d="M1113 123c0,2 -2,4 -5,4 -2,0 -4,-2 -4,-4 0,-3 2,-5 4,-5 3,0 5,2 5,5z"/>
  <path class="fil1" d="M1095 158c0,2 -2,4 -5,4 -2,0 -4,-2 -4,-4 0,-3 2,-5 4,-5 3,0 5,2 5,5z"/>
  <path class="fil1" d="M1083 201c0,3 -2,5 -4,5 -3,0 -5,-2 -5,-5 0,-2 2,-4 5,-4 2,0 4,2 4,4z"/>
  <path class="fil1" d="M1086 247c0,3 -2,5 -4,5 -3,0 -5,-2 -5,-5 0,-2 2,-4 5,-4 2,0 4,2 4,4z"/>
  <path class="fil1" d="M1108 294c0,2 -2,4 -5,4 -2,0 -4,-2 -4,-4 0,-3 2,-5 4,-5 3,0 5,2 5,5z"/>
  <path class="fil1" d="M1156 336c0,2 -2,4 -5,4 -2,0 -4,-2 -4,-4 0,-3 2,-5 4,-5 3,0 5,2 5,5z"/>
  <path class="fil1" d="M1223 335c0,3 -2,5 -4,5 -3,0 -5,-2 -5,-5 0,-2 2,-4 5,-4 2,0 4,2 4,4z"/>
  <path class="fil1" d="M1297 315c0,2 -2,4 -4,4 -3,0 -5,-2 -5,-4 0,-3 2,-5 5,-5 2,0 4,2 4,5z"/>
  <path class="fil1" d="M1368 156c0,3 -2,5 -5,5 -2,0 -4,-2 -4,-5 0,-2 2,-4 4,-4 3,0 5,2 5,4z"/>
  <path class="fil1" d="M1328 94c0,2 -2,4 -5,4 -2,0 -4,-2 -4,-4 0,-3 2,-5 4,-5 3,0 5,2 5,5z"/>
  <path class="fil1" d="M1297 52c0,2 -2,4 -5,4 -2,0 -4,-2 -4,-4 0,-3 2,-5 4,-5 3,0 5,2 5,5z"/>
  <path class="fil1" d="M1228 26c0,3 -2,5 -5,5 -2,0 -4,-2 -4,-5 0,-2 2,-4 4,-4 3,0 5,2 5,4z"/>
  <path class="fil1" d="M1173 47c0,3 -2,5 -4,5 -3,0 -5,-2 -5,-5 0,-2 2,-4 5,-4 2,0 4,2 4,4z"/>
  <path class="fil1" d="M1150 68c0,2 -2,4 -5,4 -2,0 -4,-2 -4,-4 0,-3 2,-5 4,-5 3,0 5,2 5,5z"/>
  <path class="fil1" d="M1132 99c0,2 -2,4 -4,4 -3,0 -5,-2 -5,-4 0,-3 2,-5 5,-5 2,0 4,2 4,5z"/>
  <path class="fil1" d="M1173 108c0,2 -2,4 -5,4 -2,0 -4,-2 -4,-4 0,-3 2,-5 4,-5 3,0 5,2 5,5z"/>
  <path class="fil1" d="M1229 87c0,2 -2,4 -5,4 -2,0 -4,-2 -4,-4 0,-3 2,-5 4,-5 3,0 5,2 5,5z"/>
  <path class="fil1" d="M1198 76c0,2 -2,4 -4,4 -3,0 -5,-2 -5,-4 0,-3 2,-5 5,-5 2,0 4,2 4,5z"/>
  <path class="fil1" d="M1228 58c0,2 -2,4 -5,4 -2,0 -4,-2 -4,-4 0,-2 2,-4 4,-4 3,0 5,2 5,4z"/>
  <path class="fil1" d="M1286 83c0,3 -2,5 -4,5 -3,0 -5,-2 -5,-5 0,-2 2,-4 5,-4 2,0 4,2 4,4z"/>
  <path class="fil1" d="M1228 107c0,3 -2,5 -4,5 -3,0 -5,-2 -5,-5 0,-2 2,-4 5,-4 2,0 4,2 4,4z"/>
  <path class="fil1" d="M1272 70c0,2 -2,4 -4,4 -3,0 -5,-2 -5,-4 0,-3 2,-5 5,-5 2,0 4,2 4,5z"/>
  <path class="fil1" d="M1356 98c0,3 -2,5 -5,5 -2,0 -4,-2 -4,-5 0,-2 2,-4 4,-4 3,0 5,2 5,4z"/>
  <path class="fil1" d="M1409 169c0,2 -2,4 -4,4 -3,0 -5,-2 -5,-4 0,-3 2,-5 5,-5 2,0 4,2 4,5z"/>
  <path class="fil1" d="M1415 276c0,2 -2,4 -5,4 -2,0 -4,-2 -4,-4 0,-3 2,-5 4,-5 3,0 5,2 5,5z"/>
  <path class="fil1" d="M1346 346c0,2 -2,4 -5,4 -2,0 -4,-2 -4,-4 0,-3 2,-5 4,-5 3,0 5,2 5,5z"/>
  <path class="fil1" d="M1226 312c0,3 -2,5 -5,5 -2,0 -4,-2 -4,-5 0,-2 2,-4 4,-4 3,0 5,2 5,4z"/>
 </g>
</svg>
