<?xml version="1.0" encoding="UTF-8"?>
<!DOCTYPE svg PUBLIC "-//W3C//DTD SVG 1.1//EN" "http://www.w3.org/Graphics/SVG/1.1/DTD/svg11.dtd">
<!-- Creator: CorelDRAW X7 -->
<svg xmlns="http://www.w3.org/2000/svg" xml:space="preserve" width="1.20389in" height="1.32494in" version="1.1" style="shape-rendering:geometricPrecision; text-rendering:geometricPrecision; image-rendering:optimizeQuality; fill-rule:evenodd; clip-rule:evenodd"
viewBox="0 0 1007 1108"
 xmlns:xlink="http://www.w3.org/1999/xlink">
 <defs>
  <style type="text/css">
   <![CDATA[
    .fil2 {fill:#59668C;fill-rule:nonzero}
    .fil0 {fill:#79A3A0;fill-rule:nonzero}
    .fil1 {fill:white;fill-rule:nonzero}
   ]]>
  </style>
 </defs>
 <g id="__x0023_Layer_x0020_1">
  <metadata id="CorelCorpID_0Corel-Layer"/>
  <path class="fil0" d="M537 409c-7,118 -43,231 -72,345 -13,56 -23,112 -26,169 -3,57 -2,127 20,181 3,6 12,6 12,-2 1,-60 -12,-119 -10,-179 2,-62 16,-124 31,-184 27,-109 62,-217 58,-330 0,-9 -13,-9 -13,0z"/>
  <path class="fil0" d="M378 621c1,-7 4,-14 7,-22 14,-35 27,-63 25,-102 0,-7 -1,-14 -3,-20 -6,32 -27,39 -27,39 -21,1 -27,24 -27,24 -22,2 -22,29 -22,29 -5,3 -7,6 -9,9 14,5 28,12 40,22 6,6 12,13 16,21z"/>
  <path class="fil0" d="M444 500c-3,-14 -11,-11 -11,-11 -4,-11 -14,-9 -14,-9 -6,-8 -9,-7 -11,-6 3,8 4,15 4,23 1,30 -6,53 -15,78 18,-19 47,-28 74,-28 -1,-2 -2,-2 -2,-2 4,-15 -8,-17 -8,-17 0,-16 -8,-15 -8,-15 -1,-14 -9,-13 -9,-13z"/>
  <path class="fil0" d="M396 578c0,1 -1,2 -2,3 -2,6 -5,13 -8,19 -12,30 -13,61 -9,92 2,-4 5,-8 8,-11 17,-20 40,-32 65,-38 9,-11 5,-18 6,-20 14,-16 8,-17 8,-17 12,-18 7,-23 7,-23 6,-14 -1,-19 -1,-19 2,-7 2,-12 2,-15 -28,0 -58,9 -76,29z"/>
  <path class="fil0" d="M377 695c2,11 4,22 6,33 0,0 -1,0 -2,-1 -2,-11 -4,-22 -6,-32l0 -1c0,0 0,0 0,0 -3,-23 -3,-46 2,-70 -3,-8 -9,-16 -17,-22 -11,-10 -25,-17 -39,-23 -4,10 3,19 3,19 -13,7 -3,25 -3,25 -11,10 3,24 3,24 -10,10 11,27 11,27 -9,18 29,43 43,51 1,8 3,15 5,22 1,1 1,3 1,4 -38,-37 -82,-68 -129,-94 -4,-2 -8,-4 -12,-6 -1,-2 -2,-4 -3,-6 -3,-5 -5,-11 -7,-17 3,0 4,0 4,0 17,0 32,-10 32,-10 29,-24 25,-67 25,-67 2,-11 -5,-20 -5,-20 0,0 0,8 -1,-2 0,-5 -2,-9 -5,-13 -16,6 -31,13 -45,24 0,2 0,3 0,5 -1,9 -2,17 -3,26 -2,19 -3,38 -2,57 0,0 -1,0 -1,0 -2,-16 -1,-32 1,-48 -14,-27 -28,-54 -49,-75 -1,1 -1,2 -1,2 -8,7 -8,20 -8,20 -6,3 1,19 1,19 -6,3 0,15 0,15 -3,11 7,22 7,22 -1,8 7,11 7,11 -2,2 -1,5 -1,5 11,21 30,27 40,29 0,5 1,10 3,16 0,0 0,1 0,1 -27,-13 -54,-26 -80,-42 0,0 0,0 -1,1 -13,-15 -30,-28 -46,-40 -8,-5 -16,-10 -24,-16 -1,-1 -2,-2 -3,-3 -19,3 -36,10 -52,19 1,4 3,9 6,13 8,8 2,2 2,2 0,0 1,12 13,18 0,0 31,35 71,29 0,0 17,-6 30,-18 22,17 46,33 70,46 4,2 8,4 11,6 -5,1 -10,3 -15,5 -10,-7 -40,-27 -50,-16 0,0 -19,-9 -23,1 0,0 -15,-6 -18,5 0,0 -16,-1 -17,10 0,0 -9,-3 -14,3 8,8 17,17 28,22 7,3 14,5 21,5 15,-11 32,-18 49,-23 0,0 0,0 0,0l0 0c9,-2 17,-4 25,-5 1,0 2,1 2,1 -9,1 -17,3 -26,6 -2,3 -4,7 -6,10 -8,17 -10,36 -8,55 1,0 9,-2 12,-13 0,0 27,-29 28,-56l0 -2c6,-1 12,-2 18,-2 1,0 3,0 4,0 48,27 102,64 125,87 3,3 5,5 8,8 -2,0 -4,0 -6,0 -5,1 -9,3 -14,5 -7,-11 -25,-32 -56,-35 0,0 -4,0 -5,4 0,0 -9,-8 -18,-3 0,0 -18,-6 -29,3 0,0 -19,-1 -19,7 0,0 -24,0 -24,9 0,0 -16,7 -20,21 0,0 -1,0 -1,1 36,15 75,19 116,20 18,-10 37,-19 57,-25 0,0 1,1 1,2 -24,7 -46,19 -68,31 -10,6 -20,12 -31,17 -1,1 -3,2 -5,3 -7,22 -7,44 -6,67 5,1 12,2 18,0 13,-5 3,-1 3,-1 0,0 14,5 27,-5 0,0 55,-16 69,-63 0,0 3,-24 -5,-45 0,0 0,-1 -2,-4 3,0 5,-1 7,-2 5,-2 10,-2 15,-2 23,23 45,50 65,77 2,3 6,4 9,2 1,-1 2,-1 3,-2 2,-2 3,-4 3,-7 1,0 1,0 1,-1 -18,-25 -38,-49 -59,-71 -3,-5 -6,-10 -8,-16 -3,-6 -4,-13 -6,-20l3 -1c31,-14 52,-62 52,-62 11,-9 9,-19 9,-20 -24,7 -46,19 -61,37 -4,4 -7,8 -10,13z"/>
  <path class="fil1" d="M397 575c9,-25 16,-48 15,-78 0,-8 -1,-15 -4,-23 0,-2 -1,-4 -1,-6l-2 0c1,3 1,6 2,9 2,6 3,13 3,20 2,39 -11,67 -25,102 -3,8 -6,15 -7,22 -4,-8 -10,-15 -16,-21 -12,-10 -26,-17 -40,-22 0,0 -1,1 -1,1 14,6 28,13 39,23 8,6 14,14 17,22 -5,24 -5,47 -2,70 0,0 0,0 0,0l0 1c2,10 4,21 6,32 1,1 2,1 2,1 -2,-11 -4,-22 -6,-33 3,-5 6,-9 10,-13 15,-18 37,-30 61,-37l0 0c1,-1 1,-2 2,-2 -25,6 -48,18 -65,38 -3,3 -6,7 -8,11 -4,-31 -3,-62 9,-92 3,-6 6,-13 8,-19 1,-1 2,-2 2,-3 18,-20 48,-29 76,-29 -1,-1 -1,-1 -1,-2 -27,0 -56,9 -74,28z"/>
  <path class="fil0" d="M244 824c-34,19 -71,28 -109,36 -5,1 -11,3 -16,4 2,1 5,2 9,2 10,0 53,-1 65,8 12,10 30,16 42,11 0,0 3,1 7,2 -1,-22 -1,-43 6,-65 -1,1 -3,2 -4,2z"/>
  <path class="fil0" d="M243 823c2,-1 4,-2 6,-3 0,0 0,-1 0,-1l0 0c2,-1 4,-2 6,-3 10,-5 20,-11 30,-17 2,-1 5,-2 7,-4 -39,-1 -78,-6 -114,-21 -4,5 -10,13 -9,23 0,0 -9,6 -8,19 0,0 -15,9 -16,21 0,0 -23,15 -29,23 0,0 0,1 1,3 6,-2 12,-4 18,-5 37,-8 74,-17 108,-35z"/>
  <path class="fil1" d="M255 818c11,-5 21,-11 31,-17 22,-12 44,-24 68,-31 0,-1 -1,-2 -1,-2 -20,6 -39,15 -57,25 -41,-1 -80,-5 -116,-20 -1,0 -1,1 -2,1 36,15 75,20 114,21 -2,2 -5,3 -7,4 -10,6 -20,12 -30,17 -2,1 -4,2 -6,3l0 0c0,0 0,1 0,1 -2,1 -4,2 -6,3 -34,18 -71,27 -108,35 -6,1 -12,3 -18,5 1,0 1,1 2,1 5,-1 11,-3 16,-4 38,-8 75,-17 109,-36 1,0 3,-1 4,-2 -7,22 -7,43 -6,65 1,1 2,1 2,1 -1,-23 -1,-45 6,-67 2,-1 4,-2 5,-3z"/>
  <path class="fil0" d="M125 708c5,-5 9,-8 14,-12 -7,0 -14,-2 -20,-5 -10,-5 -20,-13 -28,-21 -2,2 -3,4 -3,8 0,0 -19,9 -15,25 0,0 -14,12 -9,27 0,0 2,17 -19,31 5,-1 10,-2 15,-4 29,-11 44,-28 65,-49z"/>
  <path class="fil0" d="M112 724c-15,14 -30,26 -51,34 -6,3 -12,4 -18,5 0,1 1,4 8,6 0,0 1,7 10,6 0,0 1,7 12,5 0,0 2,6 12,3 0,0 1,6 13,1 0,0 5,8 14,0 0,0 1,1 2,1 -8,-19 -11,-42 -2,-61z"/>
  <path class="fil0" d="M183 684c2,-4 4,-7 6,-10 -23,7 -45,17 -62,35 -4,4 -8,8 -12,11l0 0c0,1 -1,2 -1,3 -9,18 -7,42 2,62 2,0 5,-2 10,-6 0,0 6,4 14,-5 0,0 5,2 14,-12 0,0 3,5 10,-10 1,-2 7,-1 12,-11 -3,-19 -1,-40 7,-57z"/>
  <path class="fil1" d="M185 684c2,-3 4,-7 6,-10 9,-3 17,-5 26,-6 0,0 -1,-1 -2,-1 -8,1 -16,3 -25,5l0 0c0,0 0,0 0,0 -17,5 -34,12 -49,23 -7,0 -14,-2 -21,-5 -11,-5 -20,-14 -28,-22 -1,1 -1,1 -1,2 8,8 18,16 28,21 6,3 13,5 20,5 -5,4 -9,7 -14,12 -21,21 -36,38 -65,49 -5,2 -10,3 -15,4 -3,0 -5,1 -7,1l0 1c2,0 3,0 5,0 6,-1 12,-2 18,-5 21,-8 36,-20 51,-34 -9,19 -6,42 2,61 1,0 1,0 2,0 -9,-20 -11,-44 -2,-62 0,-1 1,-2 1,-3l0 0c4,-3 8,-7 12,-11 17,-18 39,-28 62,-35 -2,3 -4,6 -6,10 -8,17 -10,38 -7,57 1,0 1,-1 1,-2l0 0c-2,-19 0,-38 8,-55z"/>
  <path class="fil0" d="M239 535c0,1 0,2 -1,3 14,-10 29,-17 44,-23 -2,-2 -4,-4 -4,-4 0,-10 -9,-21 -20,-26 -10,-6 -21,-36 -24,-44 -2,-3 -3,-4 -5,-5 1,4 2,8 2,13 6,28 10,57 8,86z"/>
  <path class="fil0" d="M233 571c1,-9 2,-18 3,-26 1,-2 1,-3 1,-5l0 0c0,0 0,0 0,0 0,-2 0,-3 0,-5 3,-29 -2,-57 -7,-86 -1,-5 -2,-9 -2,-14 -1,0 -2,0 -2,0 -5,7 -8,27 -8,27 -8,4 -10,18 -10,18 -9,3 -11,11 -11,11 -7,2 -11,9 -13,13 21,20 36,46 49,74 0,-3 0,-5 0,-7z"/>
  <path class="fil1" d="M232 628c0,0 1,0 1,0 -1,-19 0,-38 2,-57 1,-9 2,-17 3,-26 0,-2 0,-3 0,-5 14,-11 29,-18 45,-24 0,0 0,0 -1,-1 -15,6 -30,13 -44,23 1,-1 1,-2 1,-3 2,-29 -2,-58 -8,-86 0,-5 -1,-9 -2,-13 0,0 -1,-1 -1,-1 0,5 1,9 2,14 5,29 10,57 7,86 0,2 0,3 0,5 0,0 0,0 0,0l0 0c0,2 0,3 -1,5 -1,8 -2,17 -3,26 0,2 0,4 0,7 -13,-28 -28,-54 -49,-74 0,1 0,1 0,1 21,21 35,48 49,75 -2,16 -3,32 -1,48z"/>
  <path class="fil0" d="M76 544c-1,-1 -2,-1 -3,-2 -25,-19 -45,-43 -64,-68 -3,-4 -6,-7 -9,-10 0,1 0,4 1,7 4,7 20,38 17,50 -3,13 -1,28 8,35 0,0 -1,3 0,7 15,-9 32,-16 50,-19z"/>
  <path class="fil0" d="M152 602c6,-8 17,-29 8,-54 0,0 -2,-3 -5,-3 0,0 3,-9 -4,-14 0,0 -2,-15 -12,-20 0,0 -6,-15 -12,-12 0,0 -8,-17 -15,-14 0,0 -11,-9 -22,-8 0,0 -1,0 -1,-1 1,32 12,63 25,93 13,10 27,21 38,33z"/>
  <path class="fil0" d="M74 541c1,1 3,2 4,3 0,-1 0,-1 0,-1l0 1c2,1 3,2 4,3 8,5 16,11 23,16 2,2 4,3 6,4 -12,-30 -23,-60 -24,-91 -5,-2 -13,-3 -20,1 0,0 -8,-4 -17,1 0,0 -12,-8 -21,-5 0,0 -19,-12 -27,-13 0,0 -1,0 -1,2 3,3 6,7 9,11 19,25 39,49 64,68z"/>
  <path class="fil1" d="M78 545c1,1 2,2 3,3 8,6 16,11 24,16 16,12 33,25 46,40 1,-1 1,-1 1,-1 0,-1 0,-1 0,-1 -11,-12 -25,-23 -38,-33 -13,-30 -24,-61 -25,-93 -1,0 -1,0 -2,0 1,31 12,61 24,91 -2,-1 -4,-2 -6,-4 -7,-5 -15,-11 -23,-16 -1,-1 -2,-2 -4,-3l0 -1c0,0 0,0 0,1 -1,-1 -3,-2 -4,-3 -25,-19 -45,-43 -64,-68 -3,-4 -6,-8 -9,-11 -1,0 -1,1 -1,2 3,3 6,6 9,10 19,25 39,49 64,68 1,1 2,1 3,2 -18,3 -35,10 -50,19 0,0 0,1 0,1 16,-9 33,-16 52,-19z"/>
  <path class="fil0" d="M742 631c6,4 12,8 18,13 30,24 53,45 91,55 7,1 13,2 20,3 -29,-16 -29,-38 -29,-38 5,-20 -15,-33 -15,-33 4,-21 -22,-30 -22,-30 -1,-5 -3,-8 -5,-11 -10,12 -21,24 -33,32 -8,5 -16,8 -25,9z"/>
  <path class="fil0" d="M838 730c14,1 14,-8 14,-8 11,0 12,-10 12,-10 9,-3 10,-6 9,-8 -8,0 -15,-1 -23,-4 -29,-7 -49,-21 -70,-37 14,23 13,53 5,79 2,0 3,-1 3,-1 13,8 18,-3 18,-3 16,5 17,-3 17,-3 13,3 15,-5 15,-5z"/>
  <path class="fil0" d="M777 662c0,-1 -1,-2 -2,-3 -5,-5 -10,-9 -16,-13 -25,-21 -54,-31 -84,-37 3,4 5,8 8,12 13,21 18,47 17,73 8,11 16,10 17,12 11,18 14,11 14,11 14,17 20,14 20,14 11,10 19,5 19,5 6,4 10,6 13,6 8,-26 9,-58 -6,-80z"/>
  <path class="fil0" d="M672 609c-11,-2 -23,-3 -34,-4 0,0 1,-1 2,-2 11,1 22,2 32,4l0 0c1,0 1,0 1,0 23,4 45,11 66,22 9,0 18,-4 26,-9 13,-8 24,-19 33,-31 -8,-7 -18,-3 -18,-3 -3,-13 -23,-10 -23,-10 -6,-13 -24,-4 -24,-4 -6,-12 -29,2 -29,2 -15,-13 -50,16 -62,27 -7,-2 -15,-2 -22,-2 -1,0 -3,0 -4,0 46,-26 89,-58 127,-96 4,-3 7,-6 10,-9 2,-1 4,-2 7,-2 5,-1 11,-1 18,-1 -1,2 -1,3 -1,3 -5,17 0,34 0,34 14,35 56,43 56,43 11,6 21,1 21,1 0,0 -8,-1 2,1 5,1 10,0 14,-1 -1,-18 -3,-34 -10,-50 -1,-1 -3,-2 -4,-2 -8,-4 -16,-7 -24,-11 -18,-7 -36,-14 -54,-18 0,-1 0,-1 0,-2 16,4 31,9 46,15 30,-4 60,-10 86,-24 -1,-1 -1,-1 -1,-1 -5,-10 -17,-14 -17,-14 -1,-7 -19,-5 -19,-5 -1,-6 -15,-4 -15,-4 -9,-6 -22,0 -22,0 -7,-3 -13,4 -13,4 -1,-3 -5,-3 -5,-3 -22,4 -34,21 -39,30 -5,-1 -10,-2 -16,-2 0,0 -1,0 -1,0 21,-22 41,-44 64,-64 0,0 0,-1 -1,-1 18,-9 35,-21 52,-33 7,-6 15,-12 22,-17 1,-1 3,-2 4,-3 3,-19 1,-37 -3,-55 -4,-1 -9,0 -14,2 -10,5 -2,1 -2,1 0,0 -12,-2 -22,7 0,0 -42,19 -48,59 0,0 0,19 8,35 -23,16 -45,34 -65,53 -2,3 -5,6 -9,9 1,-6 1,-11 0,-17 10,-7 38,-29 30,-43 0,0 14,-15 6,-22 0,0 10,-12 1,-18 0,0 5,-15 -5,-19 0,0 5,-8 1,-15 -10,5 -21,12 -28,20 -6,6 -10,12 -12,19 6,18 8,36 7,54 0,0 0,0 0,0l0 0c0,8 -1,17 -2,25 -1,1 -1,2 -1,2 1,-9 1,-18 2,-27 -3,-3 -6,-6 -8,-9 -14,-13 -32,-20 -51,-23 0,0 0,8 9,14 0,0 20,35 45,44l2 1c0,6 -1,12 -3,17 0,2 0,3 -1,5 -40,37 -92,78 -121,93 -3,2 -6,3 -9,5 1,-2 1,-4 1,-5 1,-6 0,-11 0,-15 13,-4 38,-14 50,-43 0,0 1,-4 -2,-7 0,0 10,-6 8,-16 0,0 11,-15 6,-29 0,0 7,-17 -2,-19 0,0 7,-23 -1,-26 0,0 -3,-17 -14,-26 0,0 0,0 -1,-1 -25,30 -40,67 -54,105 4,20 8,41 8,62 -1,0 -1,0 -2,0 0,-24 -5,-49 -10,-74 -2,-11 -5,-23 -7,-34 -1,-2 -1,-4 -2,-6 -18,-13 -40,-20 -62,-25 -2,4 -5,10 -5,17 1,14 0,3 0,3 0,0 -9,12 -3,27 0,0 -1,57 40,84 0,0 22,11 44,9 0,0 2,0 4,0 0,2 0,4 0,7 0,5 0,10 -2,15 -29,15 -61,28 -93,39 -3,1 -6,4 -5,8 1,1 1,2 2,3 1,3 3,5 5,5 0,1 0,2 1,1 30,-9 58,-21 85,-35 6,-1 12,-2 18,-3 7,-1 14,0 21,1l0 2c5,34 44,68 44,68 5,14 16,15 16,15 1,-24 -4,-49 -17,-69 -3,-5 -6,-9 -9,-13z"/>
  <path class="fil1" d="M780 663c21,16 41,30 70,37 8,3 15,4 23,4 2,0 5,0 7,0l0 -2c-3,0 -6,0 -9,0 -7,-1 -13,-2 -20,-3 -38,-10 -61,-31 -91,-55 -6,-5 -12,-9 -18,-13 9,-1 17,-4 25,-9 12,-8 23,-20 33,-32 -1,0 -1,0 -2,-1 -9,12 -20,23 -33,31 -8,5 -17,9 -26,9 -21,-11 -43,-18 -66,-22 0,0 0,0 -1,0l0 0c-10,-2 -21,-3 -32,-4 -1,1 -2,2 -2,2 11,1 23,2 34,4 3,4 6,8 9,13 13,20 18,45 17,69l0 0c1,1 1,2 2,3 1,-26 -4,-52 -17,-73 -3,-4 -5,-8 -8,-12 30,6 59,16 84,37 6,4 11,8 16,13 1,1 2,2 2,3 15,22 14,54 6,80 1,0 1,0 2,0 8,-26 9,-56 -5,-79z"/>
  <path class="fil0" d="M587 443c-7,-38 -5,-76 -2,-114 1,-6 1,-11 1,-17 -2,1 -3,4 -5,8 -3,10 -14,51 -27,60 -12,8 -23,24 -22,37 0,0 -2,2 -5,6 22,5 42,12 61,24 0,-1 -1,-2 -1,-4z"/>
  <path class="fil0" d="M589 443c0,2 1,4 1,6 0,0 0,0 1,0l-1 1c1,2 1,4 2,6 2,11 5,22 7,34 1,2 1,5 2,8 13,-37 29,-73 53,-103 -2,-5 -9,-14 -19,-16 0,0 -3,-10 -16,-12 0,0 -4,-18 -15,-22 0,0 -7,-27 -13,-35 0,0 -1,0 -3,1 0,6 0,12 -1,18 -3,38 -5,76 2,114z"/>
  <path class="fil1" d="M590 456c2,11 5,23 7,34 5,25 10,50 10,74 1,0 1,0 2,0 0,-21 -4,-42 -8,-62 14,-38 29,-75 54,-105 0,-1 0,-1 -1,-2 -24,30 -40,66 -53,103 -1,-3 -1,-6 -2,-8 -2,-12 -5,-23 -7,-34 -1,-2 -1,-4 -2,-6l1 -1c-1,0 -1,0 -1,0 0,-2 -1,-4 -1,-6 -7,-38 -5,-76 -2,-114 1,-6 1,-12 1,-18 -1,0 -1,1 -2,1 0,6 0,11 -1,17 -3,38 -5,76 2,114 0,2 1,3 1,4 -19,-12 -39,-19 -61,-24 0,1 0,1 -1,2 22,5 44,12 62,25 1,2 1,4 2,6z"/>
  <path class="fil0" d="M734 364c2,6 5,11 7,17 2,-7 6,-13 10,-18 8,-8 19,-15 29,-20 -1,-2 -4,-4 -7,-6 0,0 -3,-21 -19,-21 0,0 -7,-17 -24,-16 0,0 -16,-4 -23,-29 -1,6 -2,11 -1,17 2,30 14,50 28,76z"/>
  <path class="fil0" d="M722 347c-9,-19 -16,-36 -18,-59 0,-7 0,-12 1,-18 -1,-1 -4,-1 -8,5 0,0 -7,-1 -9,8 0,0 -7,-1 -8,10 0,0 -7,0 -6,10 0,0 -6,0 -5,13 0,0 -9,2 -5,13 0,0 -1,0 -1,2 21,-2 44,2 59,16z"/>
  <path class="fil0" d="M740 427c2,2 5,5 7,8 0,-24 -3,-48 -15,-70 -2,-5 -5,-10 -7,-14l0 0c-1,-1 -2,-1 -2,-2 -15,-14 -39,-19 -60,-16 -1,2 0,5 2,11 0,0 -5,4 1,14 0,0 -4,5 7,18 0,0 -5,1 7,12 1,1 -1,7 6,15 20,3 39,10 54,24z"/>
  <path class="fil1" d="M739 428c2,3 5,6 8,9 -1,9 -1,18 -2,27 0,0 0,-1 1,-2 1,-8 2,-17 2,-25l0 0c0,0 0,0 0,0 1,-18 -1,-36 -7,-54 2,-7 6,-13 12,-19 7,-8 18,-15 28,-20 0,-1 0,-1 -1,-1 -10,5 -21,12 -29,20 -4,5 -8,11 -10,18 -2,-6 -5,-11 -7,-17 -14,-26 -26,-46 -28,-76 -1,-6 0,-11 1,-17 0,-2 0,-4 1,-6l-2 -1c0,2 0,4 -1,6 -1,6 -1,11 -1,18 2,23 9,40 18,59 -15,-14 -38,-18 -59,-16 0,0 0,1 0,2 21,-3 45,2 60,16 0,1 1,1 2,2l0 0c2,4 5,9 7,14 12,22 15,46 15,70 -2,-3 -5,-6 -7,-8 -15,-14 -34,-21 -54,-24 1,0 2,1 2,2l0 0c19,3 37,10 51,23z"/>
  <path class="fil0" d="M865 524c-1,-1 -2,-1 -3,-2 6,16 9,32 9,49 3,-1 5,-3 5,-3 10,3 23,-2 32,-11 8,-8 40,-10 48,-11 3,0 5,-1 6,-2 -4,-1 -8,-1 -12,-2 -29,-3 -58,-7 -85,-18z"/>
  <path class="fil0" d="M832 508c8,3 16,7 24,10 2,1 3,2 5,2l0 0c0,0 0,0 0,0 2,1 3,2 4,2 28,11 56,15 85,19 5,0 9,1 14,2 0,-1 1,-2 1,-2 -6,-6 -24,-15 -24,-15 -2,-9 -14,-15 -14,-15 0,-10 -7,-14 -7,-14 0,-7 -6,-13 -9,-16 -26,14 -55,20 -85,24 2,1 4,2 6,3z"/>
  <path class="fil1" d="M778 489c0,1 0,1 0,2 18,4 36,11 54,18 8,4 16,7 24,11 1,0 3,1 4,2 7,16 9,32 10,50 0,0 1,-1 1,-1 0,-17 -3,-33 -9,-49 1,1 2,1 3,2 27,11 56,15 85,18 4,1 8,1 12,2 1,0 1,-1 2,-1 -5,-1 -9,-2 -14,-2 -29,-4 -57,-8 -85,-19 -1,0 -2,-1 -4,-2 0,0 0,0 0,0l0 0c-2,0 -3,-1 -5,-2 -8,-3 -16,-7 -24,-10 -2,-1 -4,-2 -6,-3 30,-4 59,-10 85,-24 -1,-1 -1,-1 -1,-1 -26,14 -56,20 -86,24 -15,-6 -30,-11 -46,-15z"/>
  <path class="fil0" d="M905 365c1,0 2,-1 2,-2 26,-18 55,-30 84,-41 5,-2 9,-3 13,-5 -2,-1 -4,-1 -7,-1 -9,1 -43,7 -54,1 -11,-6 -26,-9 -35,-3 0,0 -3,-1 -6,-2 4,18 5,35 3,53z"/>
  <path class="fil0" d="M826 421c7,9 24,25 50,23 0,0 4,0 4,-3 0,0 8,5 15,0 0,0 15,3 23,-6 0,0 15,-1 14,-8 0,0 20,-2 19,-10 0,0 11,-7 14,-18 0,0 0,-1 1,-2 -31,-8 -64,-6 -97,-3 -13,10 -28,20 -43,27z"/>
  <path class="fil0" d="M908 365c-1,1 -2,2 -4,3 0,0 0,0 0,0l0 0c-1,1 -3,2 -4,3 -7,5 -15,11 -22,17 -2,1 -4,3 -6,4 32,-3 64,-4 95,4 2,-4 6,-12 5,-19 0,0 6,-6 3,-17 0,0 12,-9 11,-18 0,0 17,-15 21,-22 0,0 0,-1 -2,-2 -4,2 -8,4 -13,5 -29,12 -58,23 -84,42z"/>
  <path class="fil1" d="M903 367c-1,1 -3,2 -4,3 -7,5 -15,11 -22,17 -17,12 -34,24 -52,33 1,0 1,1 1,1 0,0 0,0 0,0 15,-7 30,-17 43,-27 33,-3 66,-5 97,3 0,0 0,0 1,-1 -31,-8 -63,-7 -95,-4 2,-1 4,-3 6,-4 7,-6 15,-12 22,-17 1,-1 3,-2 4,-3l0 0c0,0 0,0 0,0 2,-1 3,-2 4,-3 26,-19 55,-30 84,-42 5,-1 9,-3 13,-5 0,-1 -1,-1 -1,-1 -4,2 -8,3 -13,5 -29,11 -58,23 -84,41 0,1 -1,2 -2,2 2,-18 1,-35 -3,-53 -1,0 -1,0 -2,0 4,18 6,36 3,55z"/>
  <path class="fil2" d="M370 144c2,-2 4,-5 6,-7 18,-18 40,-26 62,-26 5,0 10,1 15,1 1,-19 10,-34 24,-44 6,-4 12,-7 20,-10 -6,-4 -12,-6 -19,-8 -8,-1 -15,-2 -23,-2 -21,0 -41,6 -56,20 -17,17 -30,43 -30,68 0,2 0,5 1,8z"/>
  <path class="fil2" d="M635 59c4,9 6,19 7,29 16,4 31,13 42,24 1,1 2,2 3,4 26,1 48,14 62,33 4,-8 5,-16 5,-25 0,-3 0,-5 0,-8 -2,-37 -29,-60 -60,-80 -21,-13 -42,-19 -64,-19 -9,0 -18,1 -27,3 14,9 25,22 32,39z"/>
  <path class="fil2" d="M395 64c0,0 0,0 0,0 16,-16 38,-22 60,-22 7,-12 17,-21 28,-27 -5,-2 -10,-4 -14,-4 -3,-1 -5,-1 -8,-1 0,0 0,0 0,0l0 0c-1,0 -2,0 -3,0 -16,0 -34,5 -48,11 -16,8 -44,32 -48,51 8,-5 18,-8 27,-8 2,0 4,0 6,0z"/>
  <path class="fil2" d="M770 312c0,-17 -4,-34 -14,-46 -7,11 -15,21 -25,30 -8,6 -17,10 -26,13 0,2 0,3 0,4 0,26 -16,52 -35,70l0 0c1,5 1,10 1,15 0,7 -1,14 -4,22 -3,7 -6,14 -11,21 12,0 25,-1 34,-5 42,-20 58,-51 68,-71 7,-14 12,-34 12,-53z"/>
  <path class="fil2" d="M353 349c-1,-5 -1,-9 -1,-14 0,-25 10,-51 31,-66 -24,-17 -36,-42 -36,-67 0,0 0,0 0,0 0,-6 1,-12 2,-18 -28,11 -43,51 -44,80 0,2 0,3 0,4 0,27 11,51 30,70 5,6 11,8 18,11z"/>
  <path class="fil2" d="M662 418c2,-7 3,-14 3,-20 0,-3 0,-7 0,-11 -4,3 -7,6 -10,8 -22,15 -56,27 -86,27 -7,0 -15,-1 -22,-3 -10,-3 -20,-7 -28,-13 -2,3 -5,7 -7,10 -16,18 -37,26 -58,25 -8,0 -16,-1 -23,-3 0,1 0,1 0,2 -1,15 16,28 29,36 24,16 54,24 83,24 3,0 7,0 10,0 48,-3 92,-38 109,-82z"/>
  <path class="fil2" d="M760 124c0,11 -2,21 -7,31 7,10 11,20 14,32 2,8 3,17 3,25 0,17 -4,33 -11,48 9,10 14,23 16,36 3,-5 6,-10 8,-15 11,-25 19,-50 19,-76 0,-10 -1,-21 -4,-32 -5,-20 -19,-50 -39,-59 0,1 0,1 1,2 0,3 0,5 0,8z"/>
  <path class="fil2" d="M776 304c0,3 0,6 0,8 0,20 -5,41 -13,56 -1,3 -3,6 -4,9 20,-9 36,-34 44,-54 5,-11 10,-28 10,-44 0,-13 -3,-25 -11,-32 -3,12 -8,24 -13,36 -4,8 -8,15 -13,21z"/>
  <path class="fil2" d="M351 177c3,-9 8,-18 14,-27 -1,-5 -2,-10 -2,-14 0,-24 11,-49 26,-66 0,0 0,0 0,0 -20,0 -40,17 -53,33 -17,19 -29,45 -29,70 0,4 0,8 1,12 1,8 4,15 8,22 8,-14 20,-25 35,-30z"/>
  <path class="fil2" d="M461 214c-6,11 -10,23 -10,34 0,10 3,19 10,28 6,7 13,12 22,16 -2,-5 -3,-9 -3,-14 0,-3 0,-5 1,-8 2,-14 11,-25 25,-27 -5,-6 -7,-13 -7,-20 0,0 0,0 0,0 0,-13 8,-26 21,-34 -5,-2 -10,-2 -15,-2 -18,0 -34,9 -44,27z"/>
  <path class="fil2" d="M655 447c-1,0 -2,0 -2,0 -7,10 -15,19 -25,27 5,2 10,4 15,6 6,1 11,2 17,2 37,0 71,-30 72,-68 -10,10 -23,19 -40,27 -10,5 -25,6 -37,6z"/>
  <path class="fil2" d="M505 223c0,6 2,11 6,17 4,-12 15,-20 27,-20 16,0 28,12 29,27 9,-2 15,-4 21,-13 4,-6 5,-11 5,-15 0,-9 -5,-16 -13,-22 -8,-5 -20,-9 -32,-9 -1,0 -2,0 -3,0 -24,1 -40,18 -40,35z"/>
  <path class="fil2" d="M470 194c10,-9 22,-13 35,-13 7,0 15,1 23,5 5,-2 11,-4 17,-4 1,0 2,0 3,0 18,0 36,7 45,19l0 -1c0,0 1,0 1,0 1,-2 1,-4 1,-6 0,-5 -1,-10 -4,-15 -13,-22 -42,-33 -67,-33 -2,0 -4,0 -5,0 -26,1 -45,23 -49,48z"/>
  <path class="fil2" d="M625 249c0,-20 -9,-39 -29,-43 2,4 3,8 3,13 0,5 -2,12 -6,18 -7,12 -17,14 -26,16 0,1 0,2 0,3 11,3 18,12 20,25 1,2 1,4 1,6 0,3 -1,6 -2,9 2,0 3,0 4,0 5,0 8,0 12,-2 15,-8 23,-27 23,-45z"/>
  <path class="fil2" d="M694 231c0,-2 0,-4 0,-6 -3,-25 -25,-48 -47,-61 -12,-8 -25,-12 -37,-12 -9,0 -19,2 -29,7 6,5 11,10 15,17 3,6 5,12 5,18 0,2 0,5 -1,7 21,6 31,27 31,48 0,19 -9,40 -26,50 -5,2 -10,3 -15,3 -2,0 -4,0 -5,0 -2,3 -3,5 -5,8 1,4 2,7 2,11 8,1 16,2 24,2 6,0 12,-1 19,-2 34,-9 69,-53 69,-90z"/>
  <path class="fil2" d="M481 364c12,6 24,8 35,8 22,0 40,-9 53,-31 5,-7 7,-13 7,-20 0,-2 0,-4 -1,-6 -3,3 -7,6 -11,8 -7,4 -15,6 -23,6 -12,0 -25,-5 -35,-11 -8,-5 -15,-12 -20,-20l0 1c-12,-3 -22,-10 -30,-20 -2,-3 -4,-6 -6,-9 -5,12 -8,24 -8,36 0,24 12,46 39,58z"/>
  <path class="fil2" d="M538 226c-13,0 -23,11 -23,24 0,13 10,23 23,23 13,0 24,-10 24,-23 0,-13 -11,-24 -24,-24z"/>
  <path class="fil2" d="M581 282c-1,-11 -6,-18 -16,-20 -5,10 -15,17 -27,17 -16,0 -29,-13 -29,-29 0,-1 0,-1 0,-2 -12,2 -20,10 -22,23 -1,3 -1,5 -1,7 0,15 9,26 23,35 10,6 21,10 32,10 7,0 14,-1 20,-5 13,-6 21,-18 21,-31 0,-2 0,-4 -1,-5z"/>
  <path class="fil2" d="M691 122c9,14 13,33 13,49 0,4 0,8 -1,12 -1,8 -4,14 -10,20 3,7 6,14 6,22 1,2 1,4 1,6 -1,14 -5,29 -12,42 9,9 14,19 16,30 9,-3 17,-6 23,-12 23,-20 37,-49 38,-79 0,-8 -1,-16 -3,-24 -10,-35 -35,-62 -71,-66z"/>
  <path class="fil2" d="M569 416c29,0 61,-11 82,-26 24,-16 48,-48 48,-77 0,-12 -4,-24 -14,-35 -14,23 -36,42 -59,48 -7,2 -14,3 -20,3 -9,-1 -17,-2 -25,-3 -1,6 -3,12 -6,18 -12,19 -29,30 -48,33 0,9 -2,16 -6,24 8,5 18,10 28,12 6,2 13,3 20,3z"/>
  <path class="fil2" d="M462 42c6,1 11,1 17,2 9,2 17,6 24,12 9,-2 17,-3 26,-3 28,0 58,11 75,32 4,-1 9,-1 13,-1 6,0 13,1 19,2 -1,-9 -3,-17 -6,-25 -15,-35 -53,-55 -92,-55 -30,0 -59,11 -76,36z"/>
  <path class="fil2" d="M459 114c18,4 34,14 48,28 3,-1 7,-2 11,-2 2,0 4,0 6,0 17,0 37,5 53,16l-1 -1c12,-6 23,-9 34,-9 1,0 1,0 1,0 1,-6 1,-11 1,-17 0,-5 0,-10 -1,-15 -6,-35 -45,-55 -82,-55 -36,0 -68,17 -70,55z"/>
  <path class="fil2" d="M454 436c20,0 39,-7 53,-24 9,-10 13,-21 14,-34 -1,0 -3,0 -5,0 -12,0 -25,-3 -37,-9 -29,-13 -43,-37 -43,-63 0,0 0,0 0,0 0,-6 0,-11 1,-16 -17,-1 -34,-8 -48,-17 -21,13 -31,37 -31,62 0,27 10,54 27,71 18,18 44,29 69,30z"/>
  <path class="fil2" d="M390 267c15,10 31,17 48,17 0,0 1,0 1,0 2,-7 4,-14 8,-20l1 1c-2,-6 -3,-12 -3,-17 0,0 0,0 0,0 0,-13 5,-25 11,-37 2,-4 5,-7 7,-10l0 0c1,-24 15,-48 38,-57 -18,-17 -40,-27 -63,-27 -21,0 -41,7 -58,24 -18,18 -27,40 -27,61 0,24 12,48 37,65z"/>
  <path class="fil2" d="M380 410c-13,-14 -22,-33 -26,-54 -9,-4 -16,-7 -23,-14 -6,-5 -10,-11 -14,-17 -1,3 -1,6 -1,10 0,16 6,35 14,48 14,26 36,44 64,52 10,3 20,3 31,3 0,0 0,-1 0,-1 -17,-6 -32,-15 -45,-27z"/>
  <path class="fil2" d="M618 129c0,6 0,12 -1,17 11,2 22,6 33,12 15,10 31,23 40,40 4,-5 6,-9 7,-16 1,-4 1,-7 1,-11 0,-19 -6,-42 -18,-55 -15,-15 -40,-26 -63,-26 -3,0 -6,0 -9,0 4,7 7,15 9,23 1,5 1,11 1,16z"/>
  <path class="fil1" d="M554 506c25,-2 50,-13 70,-29l0 2c6,2 11,5 18,6 6,2 12,3 18,3 7,0 15,-1 22,-4 17,-4 31,-15 42,-29 8,-11 13,-26 13,-41 0,-2 0,-4 0,-6 8,-8 13,-16 18,-24l0 0c25,-7 43,-34 53,-56 0,-1 1,-2 1,-2 5,-12 9,-30 9,-47 0,-1 0,-1 0,-2 0,-14 -4,-28 -14,-36 2,-12 4,-24 4,-36 0,-11 -1,-22 -4,-33 -6,-22 -21,-55 -45,-65 -5,-32 -29,-54 -56,-72 -2,-1 -4,-2 -6,-4 -1,0 -2,-1 -2,-1 -21,-13 -43,-19 -65,-19 -11,0 -22,1 -34,4 -17,-10 -38,-15 -58,-15 -16,0 -32,3 -47,10 -7,-1 -14,-4 -21,-5 -2,0 -3,0 -4,-1 -3,0 -5,0 -7,0 -1,0 -1,0 -1,0 -17,0 -36,5 -50,12 -19,9 -51,35 -52,60 -10,7 -18,15 -25,23 -17,21 -30,47 -30,74 0,4 0,8 1,13 0,0 0,0 0,0 0,2 1,4 1,6 2,7 5,14 10,20 -9,17 -13,36 -14,52 0,1 0,3 0,4 0,18 5,35 13,50 -1,3 -1,7 -2,11 0,2 0,4 0,6 0,0 0,0 0,0 0,18 7,37 15,51 7,13 15,23 25,32 2,1 3,2 5,3 11,9 24,15 38,20 11,3 21,2 32,3 2,15 15,26 27,34 1,1 3,2 5,3 0,0 0,0 0,0 25,16 56,25 86,25 3,0 7,0 11,0zm106 -24l0 0c-6,0 -11,-1 -17,-2 -5,-2 -10,-4 -15,-6 10,-8 18,-17 25,-27 0,0 1,0 2,0 12,0 27,-1 37,-6 17,-8 30,-17 40,-27 -1,38 -35,68 -72,68zm30 -46l0 0c-9,4 -22,5 -34,5 5,-7 8,-14 11,-21 3,-8 4,-15 4,-22 0,-5 0,-10 -1,-15l0 0c19,-18 35,-44 35,-70 0,-1 0,-2 0,-4 9,-3 18,-7 26,-13 10,-9 18,-19 25,-30 10,12 14,29 14,46 0,19 -5,39 -12,53 -10,20 -26,51 -68,71zm-332 -101l0 0c0,-25 10,-49 31,-62 14,9 31,16 48,17 -1,5 -1,10 -1,16 0,0 0,0 0,0 0,26 14,50 43,63 12,6 25,9 37,9 2,0 4,0 5,0 -1,13 -5,24 -14,34 -14,17 -33,24 -53,24 -25,-1 -51,-12 -69,-30 -17,-17 -27,-44 -27,-71zm22 -194l0 0c17,-17 37,-24 58,-24 23,0 45,10 63,27 -23,9 -37,33 -38,57l0 0c-2,3 -5,6 -7,10 -6,12 -11,24 -11,37 0,0 0,0 0,0 0,5 1,11 3,17l-1 -1c-4,6 -6,13 -8,20 0,0 -1,0 -1,0 -17,0 -33,-7 -48,-17 -25,-17 -37,-41 -37,-65 0,-21 9,-43 27,-61zm19 -73l0 0c15,-14 35,-20 56,-20 8,0 15,1 23,2 7,2 13,4 19,8 -8,3 -14,6 -20,10 -14,10 -23,25 -24,44 -5,0 -10,-1 -15,-1 -22,0 -44,8 -62,26 -2,2 -4,5 -6,7 -1,-3 -1,-6 -1,-8 0,-25 13,-51 30,-68zm218 22l0 0c23,0 48,11 63,26 12,13 18,36 18,55 0,4 0,7 -1,11 -1,7 -3,11 -7,16 -9,-17 -25,-30 -40,-40 -11,-6 -22,-10 -33,-12 1,-5 1,-11 1,-17 0,-5 0,-11 -1,-16 -2,-8 -5,-16 -9,-23 3,0 6,0 9,0zm145 98l0 0c2,8 3,16 3,24 -1,30 -15,59 -38,79 -6,6 -14,9 -23,12 -2,-11 -7,-21 -16,-30 7,-13 11,-28 12,-42 0,-2 0,-4 -1,-6 0,-8 -3,-15 -6,-22 6,-6 9,-12 10,-20 1,-4 1,-8 1,-12 0,-16 -4,-35 -13,-49 36,4 61,31 71,66zm-312 82l0 0c2,3 4,6 6,9 8,10 18,17 30,20l0 -1c5,8 12,15 20,20 10,6 23,11 35,11 8,0 16,-2 23,-6 4,-2 8,-5 11,-8 1,2 1,4 1,6 0,7 -2,13 -7,20 -13,22 -31,31 -53,31 -11,0 -23,-2 -35,-8 -27,-12 -39,-34 -39,-58 0,-12 3,-24 8,-36zm69 -124l0 0c1,0 3,0 5,0 25,0 54,11 67,33 3,5 4,10 4,15 0,2 0,4 -1,6 0,0 -1,0 -1,0l0 1c-9,-12 -27,-19 -45,-19 -1,0 -2,0 -3,0 -6,0 -12,2 -17,4 -8,-4 -16,-5 -23,-5 -13,0 -25,4 -35,13 4,-25 23,-47 49,-48zm42 172l0 0c-6,4 -13,5 -20,5 -11,0 -22,-4 -32,-10 -14,-9 -23,-20 -23,-35 0,-2 0,-4 1,-7 2,-13 10,-21 22,-23 0,1 0,1 0,2 0,16 13,29 29,29 12,0 22,-7 27,-17 10,2 15,9 16,20 1,1 1,3 1,5 0,13 -8,25 -21,31zm-16 -130l0 0c1,0 2,0 3,0 12,0 24,4 32,9 8,6 13,13 13,22 0,4 -1,9 -5,15 -6,9 -12,11 -21,13 -1,-15 -13,-27 -29,-27 -12,0 -23,8 -27,20 -4,-6 -6,-11 -6,-17 0,-17 16,-34 40,-35zm-7 85l0 0c-13,0 -23,-10 -23,-23 0,-13 10,-24 23,-24 13,0 24,11 24,24 0,13 -11,23 -24,23zm48 23l0 0c1,-3 2,-6 2,-9 0,-2 0,-4 -1,-6 -2,-13 -9,-22 -20,-25 0,-1 0,-2 0,-3 9,-2 19,-4 26,-16 4,-6 6,-13 6,-18 0,-5 -1,-9 -3,-13 20,4 29,23 29,43 0,18 -8,37 -23,45 -4,2 -7,2 -12,2 -1,0 -2,0 -4,0zm-81 -109l0 0c5,0 10,0 15,2 -13,8 -21,21 -21,34 0,0 0,0 0,0 0,7 2,14 7,20 -14,2 -23,13 -25,27 -1,3 -1,5 -1,8 0,5 1,9 3,14 -9,-4 -16,-9 -22,-16 -7,-9 -10,-18 -10,-28 0,-11 4,-23 10,-34 10,-18 26,-27 44,-27zm77 134l0 0c0,-4 -1,-7 -2,-11 2,-3 3,-5 5,-8 1,0 3,0 5,0 5,0 10,-1 15,-3 17,-10 26,-31 26,-50 0,-21 -10,-42 -31,-48 1,-2 1,-5 1,-7 0,-6 -2,-12 -5,-18 -4,-7 -9,-12 -15,-17 10,-5 20,-7 29,-7 12,0 25,4 37,12 22,13 44,36 47,61 0,2 0,4 0,6 0,37 -35,81 -69,90 -7,1 -13,2 -19,2 -8,0 -16,-1 -24,-2zm29 -207l0 0c1,5 1,10 1,15 0,6 0,11 -1,17 0,0 0,0 -1,0 -11,0 -22,3 -34,9l1 1c-16,-11 -36,-16 -53,-16 -2,0 -4,0 -6,0 -4,0 -8,1 -11,2 -14,-14 -30,-24 -48,-28 2,-38 34,-55 70,-55 37,0 76,20 82,55zm-84 263l0 0c19,-3 36,-14 48,-33 3,-6 5,-12 6,-18 8,1 16,2 25,3 6,0 13,-1 20,-3 23,-6 45,-25 59,-48 10,11 14,23 14,35 0,29 -24,61 -48,77 -21,15 -53,26 -82,26 -7,0 -14,-1 -20,-3 -10,-2 -20,-7 -28,-12 4,-8 6,-15 6,-24zm286 -98l0 0c0,16 -5,33 -10,44 -8,20 -24,45 -44,54 1,-3 3,-6 4,-9 8,-15 13,-36 13,-56 0,-2 0,-5 0,-8 5,-6 9,-13 13,-21 5,-12 10,-24 13,-36 8,7 11,19 11,32zm-15 -106l0 0c3,11 4,22 4,32 0,26 -8,51 -19,76 -2,5 -5,10 -8,15 -2,-13 -7,-26 -16,-36 7,-15 11,-31 11,-48 0,-8 -1,-17 -3,-25 -3,-12 -7,-22 -14,-32 5,-10 7,-20 7,-31 0,-3 0,-5 0,-8 -1,-1 -1,-1 -1,-2 20,9 34,39 39,59zm-168 -156l0 0c22,0 43,6 64,19 31,20 58,43 60,80 0,3 0,5 0,8 0,9 -1,17 -5,25 -14,-19 -36,-32 -62,-33 -1,-2 -2,-3 -3,-4 -11,-11 -26,-20 -42,-24 -1,-10 -3,-20 -7,-29 -7,-17 -18,-30 -32,-39 9,-2 18,-3 27,-3zm-92 -11l0 0c39,0 77,20 92,55 3,8 5,16 6,25 -6,-1 -13,-2 -19,-2 -4,0 -9,0 -13,1 -17,-21 -47,-32 -75,-32 -9,0 -17,1 -26,3 -7,-6 -15,-10 -24,-12 -6,-1 -11,-1 -17,-2 17,-25 46,-36 76,-36zm-128 15l0 0c14,-6 32,-11 48,-11 1,0 2,0 3,0l0 0c0,0 0,0 0,0 3,0 5,0 8,1 4,0 9,2 14,4 -11,6 -21,15 -28,27 -22,0 -44,6 -60,22 0,0 0,0 0,0 -2,0 -4,0 -6,0 -9,0 -19,3 -27,8 4,-19 32,-43 48,-51zm-102 164l0 0c-1,-4 -1,-8 -1,-12 0,-25 12,-51 29,-70 13,-16 33,-33 53,-33 0,0 0,0 0,0 -15,17 -26,42 -26,66 0,4 1,9 2,14 -6,9 -11,18 -14,27 -15,5 -27,16 -35,30 -4,-7 -7,-14 -8,-22zm-3 79l0 0c1,-29 16,-69 44,-80 -1,6 -2,12 -2,18 0,0 0,0 0,0 0,25 12,50 36,67 -21,15 -31,41 -31,66 0,5 0,9 1,14 -7,-3 -13,-5 -18,-11 -19,-19 -30,-43 -30,-70 0,-1 0,-2 0,-4zm89 171l0 0c-28,-8 -50,-26 -64,-52 -8,-13 -14,-32 -14,-48 0,-4 0,-7 1,-10 4,6 8,12 14,17 7,7 14,10 23,14 4,21 13,40 26,54 13,12 28,21 45,27 0,0 0,1 0,1 -11,0 -21,0 -31,-3zm66 41l0 0c-13,-8 -30,-21 -29,-36 0,-1 0,-1 0,-2 7,2 15,3 23,3 21,1 42,-7 58,-25 2,-3 5,-7 7,-10 8,6 18,10 28,13 7,2 15,3 22,3 30,0 64,-12 86,-27 3,-2 6,-5 10,-8 0,4 0,8 0,11 0,6 -1,13 -3,20 -17,44 -61,79 -109,82 -3,0 -7,0 -10,0 -29,0 -59,-8 -83,-24z"/>
 </g>
</svg>
