<?xml version="1.0" encoding="UTF-8"?>
<!DOCTYPE svg PUBLIC "-//W3C//DTD SVG 1.1//EN" "http://www.w3.org/Graphics/SVG/1.1/DTD/svg11.dtd">
<!-- Creator: CorelDRAW X7 -->
<svg xmlns="http://www.w3.org/2000/svg" xml:space="preserve" width="1.62345in" height="0.479988in" version="1.1" style="shape-rendering:geometricPrecision; text-rendering:geometricPrecision; image-rendering:optimizeQuality; fill-rule:evenodd; clip-rule:evenodd"
viewBox="0 0 250 74"
 xmlns:xlink="http://www.w3.org/1999/xlink">
 <defs>
  <style type="text/css">
   <![CDATA[
    .fil0 {fill:#79A3A0;fill-rule:nonzero}
   ]]>
  </style>
 </defs>
 <g id="__x0023_Layer_x0020_1">
  <metadata id="CorelCorpID_0Corel-Layer"/>
  <path class="fil0" d="M27 60c11,-6 6,-21 -5,-24 0,0 0,0 0,0 -1,0 -1,0 -2,0 -5,0 -9,4 -9,9 0,4 1,6 4,8 -6,0 -11,-5 -7,-13 12,-22 34,-7 49,2 3,2 7,4 11,7 7,13 23,26 37,25 16,-1 23,-17 36,-25 3,4 7,8 11,12 3,2 13,10 16,3 3,-7 1,-13 -3,-18 -8,-7 -18,-9 -27,-7 -2,-6 -3,-15 1,-20 7,-9 20,-7 31,-2 -2,8 0,17 2,23 4,9 13,30 25,29 16,-1 -2,-32 -5,-37 -4,-5 -9,-10 -14,-14 7,-16 29,-10 42,-1 11,8 19,18 23,30 2,8 3,19 -9,12 0,0 1,2 2,2 3,3 11,9 13,2 2,-5 -1,-13 -4,-18 -5,-12 -14,-22 -24,-30 -10,-8 -27,-18 -40,-14 -6,2 -9,7 -11,12 -4,-2 -8,-4 -13,-5 -10,-3 -26,-4 -28,10 -1,8 1,16 6,23 -4,2 -7,4 -9,7 -9,9 -17,21 -32,18 -8,-2 -18,-7 -22,-15 7,2 15,4 20,1 11,-5 8,-18 1,-25 -10,-11 -32,-10 -29,10 0,2 1,4 1,6 -2,-1 -5,-2 -7,-3 -10,-6 -21,-17 -33,-19 -10,-1 -22,3 -25,14 -2,12 14,32 27,25zm150 -39l0 0c5,4 10,9 12,13 3,5 7,12 7,19 0,7 -7,13 -12,4 -5,-10 -10,-22 -8,-34 0,0 1,-1 1,-2zm-34 27l0 0c3,-2 8,-3 13,-2 5,0 10,7 4,12 -7,4 -14,-5 -17,-10zm-72 -3l0 0c0,-1 0,-1 0,-2 0,-5 1,-11 6,-14 4,-2 14,-5 15,2 0,4 0,11 -5,13 -5,3 -11,2 -16,1z"/>
 </g>
</svg>
