<?xml version="1.0" encoding="UTF-8"?>
<!DOCTYPE svg PUBLIC "-//W3C//DTD SVG 1.1//EN" "http://www.w3.org/Graphics/SVG/1.1/DTD/svg11.dtd">
<!-- Creator: CorelDRAW X7 -->
<svg xmlns="http://www.w3.org/2000/svg" xml:space="preserve" width="1.41556in" height="2.46155in" version="1.1" style="shape-rendering:geometricPrecision; text-rendering:geometricPrecision; image-rendering:optimizeQuality; fill-rule:evenodd; clip-rule:evenodd"
viewBox="0 0 729 1267"
 xmlns:xlink="http://www.w3.org/1999/xlink">
 <defs>
  <style type="text/css">
   <![CDATA[
    .fil0 {fill:#6D6E70;fill-rule:nonzero}
   ]]>
  </style>
 </defs>
 <g id="__x0023_Layer_x0020_1">
  <metadata id="CorelCorpID_0Corel-Layer"/>
  <path class="fil0" d="M206 169c43,-19 87,-30 132,-42 -14,-14 -25,-36 -44,-43 -10,2 -20,4 -31,7 0,0 0,0 0,0 -31,21 -67,37 -93,64 -23,24 -49,50 -69,78 17,-10 34,-18 50,-30 18,-12 35,-25 55,-34z"/>
  <path class="fil0" d="M420 217c22,-3 44,-11 66,-15 -13,-10 -23,-23 -38,-29 -25,-10 -52,-27 -77,-34 -3,6 -12,4 -13,-2 -1,0 -2,-1 -3,-1 -49,14 -97,23 -144,45 -20,10 -38,23 -56,35 17,2 33,7 49,12 17,5 37,13 55,13 18,0 36,-5 54,-7 36,-4 71,-12 107,-17z"/>
  <path class="fil0" d="M599 321c-60,12 -117,39 -178,11 -1,0 -1,-1 -2,-1 -1,0 -1,0 -1,1 -6,3 -11,8 -16,13 4,3 6,8 10,13 11,12 23,24 36,34 31,23 65,32 102,42 36,10 71,23 109,26 14,1 29,1 42,6 -8,-59 -43,-120 -100,-144 -1,0 -1,-1 -2,-1z"/>
  <path class="fil0" d="M343 294c27,10 56,14 83,26 62,26 115,-1 175,-13 -2,-3 -5,-6 -7,-9 -26,-37 -66,-50 -97,-81 -1,0 -2,-1 -3,-2 -13,3 -25,9 -39,11 -15,2 -30,4 -45,6 -35,5 -71,11 -107,17 -9,1 -17,2 -26,3 8,6 14,14 22,20 13,9 28,17 44,22z"/>
  <path class="fil0" d="M516 216c16,12 32,19 49,32 16,11 27,25 39,41 17,22 36,20 60,27 13,4 25,10 36,17 -5,-22 -12,-46 -27,-61 -14,-14 -30,-23 -46,-34 -1,0 -2,-1 -2,-2 -4,-3 -8,-7 -9,-11 -29,-19 -67,-4 -100,-9z"/>
  <path class="fil0" d="M387 130c22,8 45,21 65,30 24,12 40,41 68,41 28,0 64,-4 92,8 -14,-22 -31,-42 -50,-58 -18,-17 -44,-39 -69,-48 -26,1 -58,0 -81,13 -9,5 -17,10 -25,14z"/>
  <path class="fil0" d="M368 47c19,-6 37,-9 57,-9 -13,-13 -26,-26 -41,-37 -7,-6 -28,19 -32,22 -21,16 -43,29 -63,46 1,0 2,0 3,0 25,-7 51,-14 76,-22z"/>
  <path class="fil0" d="M311 80c24,19 48,52 71,38 33,-20 63,-26 99,-28 -12,-16 -31,-28 -48,-38 -36,-3 -66,11 -100,22 -7,2 -15,4 -22,6z"/>
  <path class="fil0" d="M610 466c-23,-5 -47,-13 -70,-20 -3,6 -7,12 -11,16 30,17 44,51 68,75 38,36 83,36 132,40 -27,-43 -69,-90 -115,-107 -2,-1 -3,-2 -4,-4z"/>
  <path class="fil0" d="M378 959c-16,5 -32,10 -49,12 10,14 16,29 27,42 16,19 40,28 63,35 40,12 87,11 126,26 4,-28 2,-69 -7,-93 0,0 0,-1 0,-2 -16,-10 -32,-23 -42,-39 -9,-15 -16,-33 -29,-45 -28,23 -55,51 -89,64z"/>
  <path class="fil0" d="M359 792c-11,1 -23,0 -34,-2 -1,0 -1,1 -1,1 -37,33 -77,61 -114,94 -3,28 4,55 30,71 29,17 55,8 85,3 56,-10 91,-39 132,-74 -41,-16 -66,-64 -98,-92 0,0 0,-1 0,-1z"/>
  <path class="fil0" d="M647 624c-40,-14 -74,-5 -116,-2 -25,1 -53,-1 -77,-9 13,20 30,29 50,45 17,15 35,34 58,40 47,12 100,15 148,18 -11,-38 -31,-62 -61,-89 -1,-1 -2,-2 -2,-3z"/>
  <path class="fil0" d="M501 765c41,2 25,-38 33,-65 -22,-12 -40,-33 -61,-46 -19,-12 -27,-26 -37,-46 -34,42 -87,67 -139,79 -16,4 -33,8 -50,10 0,39 43,71 76,80 41,11 68,-14 108,-16 24,-2 46,3 70,4z"/>
  <path class="fil0" d="M93 681c26,0 51,7 78,9 31,1 63,-3 94,-9 60,-12 122,-33 161,-81 -36,-20 -76,-52 -93,-86 -5,2 -11,4 -17,6 -22,6 -47,11 -71,12 0,0 0,0 0,0 -5,4 -11,8 -17,11 -21,21 -47,34 -72,51 -32,22 -50,52 -63,87z"/>
  <path class="fil0" d="M465 484c-37,-2 -65,2 -99,17 -6,3 -13,6 -20,8 13,25 40,45 61,62 29,23 63,37 100,37 34,1 66,-7 100,-9 15,0 29,6 43,12 1,-10 0,-19 -2,-29 -12,-2 -24,-7 -35,-14 -18,-14 -35,-30 -48,-48 -12,-17 -24,-37 -44,-47 -1,0 -1,0 -2,0 -13,10 -30,13 -54,11z"/>
  <path class="fil0" d="M440 403c-8,-7 -17,-15 -24,-22 -6,-6 -16,-24 -23,-26 -1,0 -1,0 -1,0 -9,8 -18,16 -32,20 -33,9 -69,6 -104,6 -24,0 -48,2 -71,6 0,1 -1,2 -2,4 -20,21 -37,45 -57,66 1,0 1,1 2,2 34,78 132,68 199,43 33,-12 62,-29 98,-32 17,-2 34,1 51,2 27,1 39,-9 51,-30 -1,0 -2,-1 -4,-1 -29,-8 -59,-18 -83,-38z"/>
  <path class="fil0" d="M612 723c-3,-1 -4,-3 -4,-4 -22,-3 -42,-5 -62,-13 -3,12 -2,28 -3,42 23,13 38,32 57,50 19,19 37,31 65,31 14,1 28,0 42,1 -11,-22 -28,-40 -44,-60 -13,-17 -28,-42 -51,-47z"/>
  <path class="fil0" d="M434 1065c-8,19 -18,39 -31,56 9,21 19,44 40,56 7,4 59,34 67,24 16,-20 36,-44 35,-72 0,-20 -7,-29 -13,-46 -31,-10 -65,-11 -98,-18z"/>
  <path class="fil0" d="M394 1133c-6,6 -12,12 -19,17 -9,7 -17,13 -26,19 -1,41 33,68 56,98 21,-21 49,-36 63,-62 -15,-6 -29,-12 -40,-22 -16,-15 -26,-31 -34,-50z"/>
  <path class="fil0" d="M421 1062c-8,-2 -17,-4 -25,-7 -15,-6 -34,-14 -44,-26 -9,-11 -16,-22 -23,-34 -35,30 -63,59 -72,108 -7,38 -9,76 9,111 22,-21 47,-36 72,-52 0,-1 0,-1 1,-1 6,-5 13,-9 19,-15 29,-23 48,-51 63,-84z"/>
  <path class="fil0" d="M315 974c-12,4 -25,8 -38,8 -6,-1 -12,-1 -18,-3 -18,21 -44,39 -68,55 -8,29 -22,59 -11,89 21,-13 45,-19 65,-33 1,-1 1,-1 2,-1 11,-47 40,-75 75,-105 -2,-3 -4,-7 -7,-10z"/>
  <path class="fil0" d="M620 832c-30,-20 -49,-52 -80,-71 -3,10 -10,16 -25,18 -17,2 -35,-3 -53,-5 -27,-3 -52,2 -77,12 -3,1 -6,3 -10,3 17,16 32,33 47,51 25,31 57,42 97,41 41,-1 90,-12 127,10 0,-18 -5,-37 -12,-53 -5,-1 -10,-3 -14,-6z"/>
  <path class="fil0" d="M622 896c0,-1 -1,-1 -1,-2 -42,-12 -96,2 -139,-3 22,25 30,58 61,76 39,23 85,16 125,31 -2,-37 -15,-80 -46,-102z"/>
  <path class="fil0" d="M166 390c-50,10 -97,28 -139,59 -19,21 -26,45 -27,72 11,-8 20,-19 33,-25 20,-9 45,-15 62,-29 28,-22 48,-51 71,-77z"/>
  <path class="fil0" d="M178 545c15,-4 29,-7 42,-13 -43,-3 -83,-21 -104,-66 -6,6 -13,12 -21,17 -10,7 -23,11 -35,16 0,0 0,1 -1,2 -22,24 -26,52 -35,81 29,-11 59,-15 89,-20 23,-4 43,-11 65,-17z"/>
  <path class="fil0" d="M162 282c12,-1 24,-4 35,-9 15,-7 29,-15 43,-22 -4,-1 -8,-2 -12,-3 -30,-8 -61,-21 -92,-19 0,0 0,0 0,0 -17,10 -35,18 -52,30 -2,1 -4,1 -5,1 -24,17 -40,45 -49,73 17,-7 28,-23 44,-32 16,-7 32,-12 49,-15 11,-1 23,-2 34,-3 2,-1 3,-1 5,-1z"/>
  <path class="fil0" d="M306 368c24,-1 53,0 72,-18 9,-8 16,-17 26,-25 -29,-9 -59,-13 -86,-27 -22,-11 -37,-30 -58,-42 -23,11 -44,25 -68,33 -10,4 -20,5 -30,6 -16,9 -34,16 -48,29 -12,12 -22,26 -34,39 -17,20 -33,40 -44,64 49,-32 106,-51 165,-56 35,-4 70,-2 105,-3z"/>
  <path class="fil0" d="M138 930c20,-14 37,-34 57,-52 19,-17 39,-31 60,-46 20,-13 37,-30 55,-46 -41,-13 -76,-45 -76,-87 -1,0 -1,0 -1,1 -1,0 -1,1 -3,2 -37,17 -57,52 -94,71 -1,0 -2,1 -4,1 0,1 -1,2 -2,2 -22,12 -32,54 -38,78 -8,32 -11,65 -17,97 24,1 44,-7 61,-19 1,-1 1,-1 2,-2z"/>
  <path class="fil0" d="M190 1017c19,-14 39,-26 56,-42 -30,-14 -48,-44 -50,-78 -4,4 -9,8 -13,13 -12,12 -25,24 -38,33 -10,19 -21,36 -25,58 -2,16 -3,32 -3,49 24,-3 44,-13 63,-26 1,-2 3,-3 5,-3 2,-1 4,-3 5,-4z"/>
  <path class="fil0" d="M202 703c-2,0 -5,0 -7,0 -38,2 -74,-12 -111,-8 -1,0 -1,0 -2,0 -33,9 -49,67 -56,100 35,-13 72,-16 105,-34 28,-16 46,-40 71,-58z"/>
  <path class="fil0" d="M125 602c19,-18 42,-30 63,-44 -14,4 -28,7 -40,10 -23,6 -47,9 -70,13 -1,1 -1,2 -2,3 -28,25 -46,57 -63,91 34,-5 56,-39 90,-45 6,-11 13,-20 22,-28z"/>
 </g>
</svg>
