<?xml version="1.0" encoding="UTF-8"?>
<!DOCTYPE svg PUBLIC "-//W3C//DTD SVG 1.1//EN" "http://www.w3.org/Graphics/SVG/1.1/DTD/svg11.dtd">
<!-- Creator: CorelDRAW X7 -->
<svg xmlns="http://www.w3.org/2000/svg" xml:space="preserve" width="1.65137in" height="2.46974in" version="1.1" style="shape-rendering:geometricPrecision; text-rendering:geometricPrecision; image-rendering:optimizeQuality; fill-rule:evenodd; clip-rule:evenodd"
viewBox="0 0 82 122"
 xmlns:xlink="http://www.w3.org/1999/xlink">
 <defs>
  <style type="text/css">
   <![CDATA[
    .fil0 {fill:#6D6E70;fill-rule:nonzero}
   ]]>
  </style>
 </defs>
 <g id="__x0023_Layer_x0020_1">
  <metadata id="CorelCorpID_0Corel-Layer"/>
  <path class="fil0" d="M78 22c-2,-8 -9,-14 -17,-17 -5,-2 -11,-5 -16,-5 -5,0 -10,2 -14,4 -6,3 -12,5 -18,8 -4,3 -7,6 -10,10 -1,0 -1,1 -2,1 -1,0 -1,1 -1,2 3,4 6,8 10,10 5,4 10,7 16,9 -4,7 -8,13 -10,19 -4,10 -9,21 -9,32 -1,8 0,17 7,22 4,3 7,4 12,5 4,1 9,-2 13,-2 13,-3 14,-19 13,-30 0,-7 -1,-14 -1,-21 0,-6 1,-12 2,-18 9,-1 18,3 26,-1 0,0 1,0 2,-1 3,-8 -1,-19 -3,-27zm-67 -5l0 0c5,-5 11,-7 17,-9 4,-2 7,-3 11,-5 6,-2 12,0 18,3 9,3 16,8 19,18 2,6 4,14 3,21 -3,-6 -9,-9 -12,-15 -4,-7 -7,-10 -15,-10 -5,0 -8,-3 -13,-3 -5,0 -10,-2 -15,-2 -5,-1 -9,2 -13,3 0,0 -1,0 -2,1 1,-1 2,-2 2,-2zm36 93l0 0c-1,3 -4,5 -7,7 -4,1 -11,3 -16,3 -13,-3 -16,-16 -15,-27 1,-5 2,-10 4,-14 2,-6 4,-13 7,-18 4,-9 10,-18 13,-28 4,-1 8,0 12,1 2,0 8,1 8,3 0,4 -1,8 -2,11 0,1 0,1 0,1 0,0 0,1 0,1 -1,7 -3,14 -2,21 0,13 4,28 -2,39zm7 -62l0 0c0,-4 1,-8 1,-13 0,0 0,-1 -1,-1 -7,-2 -14,-4 -21,-4 -1,0 -1,0 -1,0 0,0 -1,0 -1,1 -1,4 -3,8 -4,11 -5,-2 -9,-4 -13,-7 -5,-2 -8,-6 -11,-10 1,-1 1,-1 2,-2 6,-3 15,-7 22,-5 3,1 6,1 10,2 5,0 8,2 13,3 3,0 6,-1 10,1 3,1 4,6 6,9 3,5 9,8 12,14 -8,4 -16,1 -24,1z"/>
 </g>
</svg>
