<?xml version="1.0" encoding="UTF-8"?>
<!DOCTYPE svg PUBLIC "-//W3C//DTD SVG 1.1//EN" "http://www.w3.org/Graphics/SVG/1.1/DTD/svg11.dtd">
<!-- Creator: CorelDRAW X7 -->
<svg xmlns="http://www.w3.org/2000/svg" xml:space="preserve" width="2.30937in" height="4.3718in" version="1.1" style="shape-rendering:geometricPrecision; text-rendering:geometricPrecision; image-rendering:optimizeQuality; fill-rule:evenodd; clip-rule:evenodd"
viewBox="0 0 190 360"
 xmlns:xlink="http://www.w3.org/1999/xlink">
 <defs>
  <style type="text/css">
   <![CDATA[
    .fil0 {fill:#6D6E70;fill-rule:nonzero}
   ]]>
  </style>
 </defs>
 <g id="__x0023_Layer_x0020_1">
  <metadata id="CorelCorpID_0Corel-Layer"/>
  <path class="fil0" d="M4 328c3,-1 6,-5 8,-6 2,-3 7,-7 9,-10 3,-3 11,-10 14,-13 5,-5 15,-13 20,-18 4,-4 12,-12 17,-16 3,-3 12,-10 16,-13 4,-3 14,-10 18,-14 3,-3 9,-9 12,-12 3,-5 9,-13 12,-18 2,-4 6,-12 8,-17 2,-6 7,-20 9,-27 3,-6 7,-20 9,-26 1,-5 4,-16 5,-21 1,-6 1,-17 1,-23 0,-6 -1,-17 -1,-23 -1,-5 -3,-15 -4,-20 -1,-4 -3,-11 -4,-15 -1,-3 -4,-9 -6,-11 -1,-3 -4,-8 -5,-11 -1,-3 -4,-13 -1,-14 3,-1 4,8 6,13 2,4 8,11 10,15 3,5 7,14 9,19 2,5 4,16 5,22 1,6 3,18 3,23 0,6 0,19 0,25 0,5 -1,17 -2,22 -1,7 -6,19 -8,25 -1,3 -3,9 -4,12 -2,4 -5,13 -6,17 -1,2 -4,8 -4,11 0,1 -1,6 0,7 1,1 4,2 5,2 3,0 9,-4 11,-6 3,-2 8,-7 10,-10 1,-1 3,-4 3,-6 2,-2 3,-7 5,-10 1,-2 2,-8 5,-8 3,1 0,10 0,13 -1,4 -3,10 -5,13 -2,3 -6,11 -9,14 -3,2 -9,7 -12,9 -2,1 -8,4 -10,5 -4,2 -11,6 -14,9 -4,3 -12,10 -17,13 -3,3 -11,8 -14,11 -5,3 -13,10 -17,14 -5,4 -14,11 -19,14 -3,3 -10,9 -13,12 -2,2 -6,6 -8,8 0,2 -2,5 -1,6 0,2 4,6 6,8 4,4 15,9 20,12 4,2 13,5 18,6 2,0 7,1 9,0 3,-1 8,-7 10,-6 2,3 -4,10 -6,12 -3,2 -10,4 -12,4 -5,0 -15,-2 -19,-3 -5,-2 -15,-7 -20,-9 -3,-2 -9,-6 -12,-7 -3,-1 -8,-1 -11,0 -2,0 -8,1 -10,3 -3,3 -3,5 -3,7 0,1 1,5 2,6 0,1 2,3 3,3 2,0 5,-7 7,-6 2,1 1,8 -1,10 -1,3 -5,6 -7,6 -5,1 -7,-1 -9,-2 -2,-2 -5,-7 -6,-10 -1,-2 -1,-7 -3,-9 0,-1 -3,-1 -4,-2 0,-1 -1,-3 -1,-5 -1,-1 -2,-5 0,-5 0,-1 2,1 3,1z"/>
 </g>
</svg>
