<?xml version="1.0" encoding="UTF-8"?>
<!DOCTYPE svg PUBLIC "-//W3C//DTD SVG 1.1//EN" "http://www.w3.org/Graphics/SVG/1.1/DTD/svg11.dtd">
<!-- Creator: CorelDRAW X7 -->
<svg xmlns="http://www.w3.org/2000/svg" xml:space="preserve" width="3.27067in" height="5.05647in" version="1.1" style="shape-rendering:geometricPrecision; text-rendering:geometricPrecision; image-rendering:optimizeQuality; fill-rule:evenodd; clip-rule:evenodd"
viewBox="0 0 4346 6718"
 xmlns:xlink="http://www.w3.org/1999/xlink">
 <defs>
  <style type="text/css">
   <![CDATA[
    .fil0 {fill:#6D6E70;fill-rule:nonzero}
   ]]>
  </style>
 </defs>
 <g id="__x0023_Layer_x0020_1">
  <metadata id="CorelCorpID_0Corel-Layer"/>
  <path class="fil0" d="M130 5442c35,-18 119,14 155,0 42,-16 105,-86 135,-120 38,-43 93,-146 130,-190 68,-80 223,-223 300,-295 75,-69 226,-206 305,-270 82,-66 255,-187 340,-250 94,-69 282,-206 375,-275 88,-65 263,-195 350,-260 66,-48 200,-141 260,-195 69,-61 194,-197 255,-265 48,-52 139,-161 185,-215 57,-65 173,-192 226,-260 56,-74 163,-229 210,-310 52,-91 140,-283 180,-380 38,-94 99,-289 135,-385 28,-78 94,-231 120,-310 22,-71 65,-216 75,-290 7,-61 4,-184 0,-245 -5,-67 -27,-200 -40,-265 -14,-66 -51,-196 -70,-260 -16,-52 -57,-153 -70,-205 -13,-48 -80,-174 -35,-195 34,-17 77,84 100,115 32,45 91,139 115,190 26,57 56,181 80,240 13,33 38,101 60,130 15,20 51,57 75,65 22,7 75,4 95,-10 26,-19 39,-91 55,-120 21,-39 52,-162 95,-150 43,12 3,135 0,180 -5,74 -26,222 -40,295 -14,71 -52,210 -70,280 -17,60 -52,180 -70,240 -35,114 -108,342 -145,455 -22,65 -67,195 -90,260 -25,67 -73,200 -100,265 -22,51 -70,151 -95,200 -28,53 -84,159 -115,210 -33,53 -103,156 -140,205 -29,38 -92,108 -120,145 -22,28 -68,83 -80,115 -14,34 -36,112 -20,145 8,19 49,43 70,45 46,5 133,-48 175,-70 50,-27 139,-102 190,-130 52,-30 161,-84 220,-100 31,-9 112,-42 130,-15 16,26 -46,81 -65,105 -50,60 -174,156 -230,210 -50,48 -142,152 -195,195 -54,43 -170,114 -230,145 -67,35 -208,85 -276,115 -86,39 -256,122 -340,165 -88,46 -261,148 -350,195 -90,49 -277,137 -365,190 -48,30 -139,97 -185,130 -85,61 -258,180 -345,240 -68,48 -209,138 -275,190 -66,53 -192,168 -250,230 -39,43 -111,134 -145,180 -29,40 -90,120 -110,165 -15,37 -43,117 -35,155 16,75 130,188 180,245 47,54 149,153 205,195 47,36 148,95 200,120 53,26 162,77 220,80 48,3 131,31 185,-45 32,-44 52,-90 70,-120 19,-30 45,-129 80,-120 50,14 23,155 15,205 -6,45 -39,133 -65,170 -29,44 -109,115 -155,140 -38,22 -125,47 -170,50 -56,5 -171,-12 -225,-30 -70,-23 -198,-102 -260,-145 -47,-32 -133,-106 -175,-145 -38,-35 -109,-112 -145,-150 -40,-42 -102,-179 -160,-170 -20,4 -16,66 -35,75 -24,13 -80,-9 -105,-20 -45,-19 -127,-77 -160,-115 -30,-34 -68,-117 -85,-160 -16,-42 -48,-130 -45,-175 2,-33 34,-95 50,-125 17,-30 49,-98 80,-115z"/>
 </g>
</svg>
