<?xml version="1.0" encoding="UTF-8"?>
<!DOCTYPE svg PUBLIC "-//W3C//DTD SVG 1.1//EN" "http://www.w3.org/Graphics/SVG/1.1/DTD/svg11.dtd">
<!-- Creator: CorelDRAW X7 -->
<svg xmlns="http://www.w3.org/2000/svg" xml:space="preserve" width="2.3414in" height="5.28229in" version="1.1" style="shape-rendering:geometricPrecision; text-rendering:geometricPrecision; image-rendering:optimizeQuality; fill-rule:evenodd; clip-rule:evenodd"
viewBox="0 0 477 1077"
 xmlns:xlink="http://www.w3.org/1999/xlink">
 <defs>
  <style type="text/css">
   <![CDATA[
    .fil0 {fill:#6D6E70;fill-rule:nonzero}
   ]]>
  </style>
 </defs>
 <g id="__x0023_Layer_x0020_1">
  <metadata id="CorelCorpID_0Corel-Layer"/>
  <path class="fil0" d="M464 858c-3,-3 -7,-11 -11,-13 -4,-2 -14,2 -18,0 -4,-1 -12,-6 -16,-10 -8,-8 -22,-28 -30,-38 -9,-11 -27,-33 -37,-44 -10,-11 -29,-33 -39,-44 -7,-8 -22,-23 -29,-31 -8,-12 -22,-38 -30,-51 -6,-9 -19,-27 -26,-36 -4,-7 -13,-22 -18,-29 -4,-6 -14,-19 -18,-26 -7,-10 -17,-32 -22,-43 -3,-10 -8,-29 -10,-39 -1,-11 -4,-33 -4,-44 0,-10 3,-31 6,-41 2,-9 8,-26 12,-35 4,-10 14,-29 18,-39 4,-7 11,-20 13,-28 2,-5 8,-17 4,-21 -3,-4 -18,6 -21,9 -9,8 -12,13 -15,18 -6,8 -12,15 -17,23 -4,6 -13,19 -16,26 -3,6 -8,18 -11,24 -1,4 -5,13 -8,15 -2,2 -6,0 -9,-2 -5,-4 -6,-19 -8,-26 -4,-14 -9,-41 -10,-55 -1,-13 -3,-39 -4,-51 0,-12 0,-34 0,-45 0,-13 3,-37 4,-49 1,-10 3,-31 5,-41 2,-10 5,-29 8,-39 2,-6 9,-17 11,-24 2,-7 10,-25 4,-29 -3,-2 -11,9 -14,12 -2,3 -5,8 -6,11 -4,7 -13,19 -17,26 -4,10 -11,30 -14,41 -3,10 -7,30 -9,41 -2,9 -7,28 -8,38 -1,12 -4,38 -4,50 0,13 0,35 0,47 0,10 3,31 4,40 2,8 8,22 10,29 3,7 9,21 12,28 1,5 3,12 3,20 0,3 -4,8 -6,9 -4,1 -10,-4 -13,-7 -5,-4 -14,-16 -17,-22 -4,-8 -9,-23 -11,-31 -1,-8 -3,-22 -4,-29 -1,-11 -3,-30 -5,-40 -1,-5 -4,-15 -6,-19 -3,-3 -7,-14 -11,-13 -4,1 -5,14 -5,18 -2,8 0,24 0,32 0,8 -1,25 0,34 0,7 1,23 3,31 3,9 11,26 16,34 3,6 13,17 17,23 6,7 18,21 26,26 4,3 14,4 17,7 6,5 14,17 17,24 6,9 12,30 16,40 4,10 13,30 19,39 5,8 18,23 23,31 7,8 18,25 25,33 5,7 18,21 23,28 4,7 11,18 13,25 1,7 4,21 3,27 -1,5 -6,14 -10,18 -5,5 -17,14 -23,17 -7,4 -23,9 -31,11 -5,1 -16,3 -21,0 -3,-1 -7,-7 -8,-10 -1,-6 3,-16 4,-22 1,-4 8,-13 5,-16 -4,-3 -14,5 -18,8 -5,3 -14,10 -16,15 -3,5 -4,17 -3,22 1,6 6,17 10,22 5,5 18,13 26,15 9,2 29,0 38,-1 9,-2 26,-8 34,-12 7,-2 19,-10 26,-13 4,-1 12,-4 15,-4 7,1 19,4 25,7 6,4 17,16 22,21 7,6 20,18 26,25 6,5 17,17 22,23 4,5 12,14 16,19 1,3 4,9 3,12 0,5 -5,12 -8,15 -6,8 -25,19 -33,25 -7,4 -24,19 -25,20 -5,5 -15,11 -21,13 -4,2 -15,4 -20,4 -4,1 -17,-4 -19,0 -2,4 7,12 11,13 7,4 23,2 31,0 8,-1 24,-10 32,-15 10,-5 29,-16 38,-23 5,-3 13,-13 19,-15 4,-2 14,-2 18,-1 5,2 14,8 17,12 3,4 6,15 7,21 0,4 -2,13 -3,18 -2,9 -8,26 -11,35 -4,10 -14,31 -18,42 -2,5 -7,17 -10,23 -3,5 -8,16 -12,19 -3,2 -11,5 -15,5 -5,0 -14,0 -18,-3 -4,-3 -10,-9 -13,-8 -3,2 -3,12 -2,16 3,6 14,15 20,17 8,3 25,4 33,3 7,-2 18,-10 23,-15 6,-7 14,-26 19,-34 6,-12 17,-37 22,-50 3,-8 9,-24 12,-31 1,-4 3,-13 6,-16 1,-2 5,-5 7,-6 3,0 10,5 13,4 3,-1 7,-8 9,-11 3,-5 6,-18 7,-24 1,-6 0,-18 -2,-23 -2,-4 -8,-9 -11,-12z"/>
 </g>
</svg>
