<?xml version="1.0" encoding="UTF-8"?>
<!DOCTYPE svg PUBLIC "-//W3C//DTD SVG 1.1//EN" "http://www.w3.org/Graphics/SVG/1.1/DTD/svg11.dtd">
<!-- Creator: CorelDRAW X7 -->
<svg xmlns="http://www.w3.org/2000/svg" xml:space="preserve" width="2.55346in" height="6.42262in" version="1.1" style="shape-rendering:geometricPrecision; text-rendering:geometricPrecision; image-rendering:optimizeQuality; fill-rule:evenodd; clip-rule:evenodd"
viewBox="0 0 260 654"
 xmlns:xlink="http://www.w3.org/1999/xlink">
 <defs>
  <style type="text/css">
   <![CDATA[
    .fil0 {fill:#6D6E70;fill-rule:nonzero}
   ]]>
  </style>
 </defs>
 <g id="__x0023_Layer_x0020_1">
  <metadata id="CorelCorpID_0Corel-Layer"/>
  <path class="fil0" d="M26 0c-1,5 -1,11 -1,16 -1,2 -1,3 -1,4 4,1 7,-7 7,-10 1,-4 -2,-7 -5,-10z"/>
  <path class="fil0" d="M232 637c4,-2 12,1 16,0 3,-2 8,-7 9,-10 2,-3 4,-9 3,-12 -2,-9 -6,-11 -9,-14 -3,-4 -10,-10 -13,-14 -5,-7 -14,-23 -19,-30 -7,-11 -19,-34 -25,-44 -6,-8 -17,-23 -23,-30 -6,-8 -20,-23 -26,-31 -6,-7 -18,-23 -24,-31 -3,-5 -10,-14 -13,-19 -5,-9 -11,-29 -14,-38 -4,-11 -10,-33 -13,-44 -2,-9 -6,-27 -8,-36 -2,-10 -5,-31 -5,-41 -1,-11 0,-33 0,-44 0,-6 -2,-19 0,-26 1,-3 5,-10 8,-13 3,-5 11,-13 14,-17 3,-4 7,-13 9,-18 3,-5 15,-20 11,-23 -2,-2 -13,8 -16,12 -2,2 -4,8 -6,11 -1,2 -5,7 -8,9 -3,2 -4,2 -5,1 -2,-3 2,-13 3,-16 2,-8 8,-22 13,-28 3,-5 11,-13 15,-18 6,-7 19,-23 25,-30 4,-5 14,-14 19,-19 3,-3 16,-8 14,-13 -2,-3 -15,1 -20,4 -5,2 -14,9 -19,13 -5,4 -13,14 -17,18 -6,6 -15,17 -19,23 -6,7 -17,21 -21,29 -5,8 -12,24 -16,33 -2,5 -5,16 -7,21 -1,7 -3,22 -3,29 -1,9 0,26 0,34 -1,10 -2,28 -3,38 0,8 1,24 2,32 1,8 5,25 7,33 1,6 3,18 4,24 1,5 4,15 4,20 0,3 -1,10 -3,12 -2,2 -7,2 -10,1 -4,-1 -11,-7 -15,-10 -4,-4 -11,-13 -14,-18 -2,-5 -3,-14 -4,-19 -1,-3 1,-10 -1,-11 -4,-1 -7,9 -8,12 -2,5 -1,16 0,21 1,5 5,13 7,18 2,5 8,15 11,20 3,4 10,11 14,14 4,2 12,7 16,9 6,5 18,15 24,20 7,7 20,20 26,26 7,6 21,19 27,26 5,5 14,16 18,21 5,6 15,18 19,24 5,6 13,16 17,21 2,3 6,8 7,10 1,3 4,7 3,9 0,3 -2,7 -3,8 -3,3 -11,6 -15,7 -4,2 -12,4 -16,5 -5,1 -15,3 -20,3 -5,1 -14,0 -19,-1 -6,-1 -10,-7 -13,-4 -2,2 0,9 2,11 4,5 16,9 21,11 6,1 18,2 23,1 7,0 19,-5 25,-6 4,-1 12,-3 16,-3 4,0 11,0 14,1 3,2 9,6 10,10 1,1 1,6 0,8 0,2 -4,7 -6,9 -2,1 -6,4 -8,3 -3,0 -7,-2 -9,-5 -1,-1 -1,-8 -3,-8 -4,0 -3,9 -2,13 0,4 1,11 3,15 3,3 9,7 13,8 3,1 9,0 11,-2 4,-1 10,-7 13,-9 1,-2 4,-6 5,-6z"/>
 </g>
</svg>
