<?xml version="1.0" encoding="UTF-8"?>
<!DOCTYPE svg PUBLIC "-//W3C//DTD SVG 1.1//EN" "http://www.w3.org/Graphics/SVG/1.1/DTD/svg11.dtd">
<!-- Creator: CorelDRAW X7 -->
<svg xmlns="http://www.w3.org/2000/svg" xml:space="preserve" width="1.35948in" height="2.19487in" version="1.1" style="shape-rendering:geometricPrecision; text-rendering:geometricPrecision; image-rendering:optimizeQuality; fill-rule:evenodd; clip-rule:evenodd"
viewBox="0 0 113 182"
 xmlns:xlink="http://www.w3.org/1999/xlink">
 <defs>
  <style type="text/css">
   <![CDATA[
    .fil0 {fill:#6D6E70;fill-rule:nonzero}
   ]]>
  </style>
 </defs>
 <g id="__x0023_Layer_x0020_1">
  <metadata id="CorelCorpID_0Corel-Layer"/>
  <path class="fil0" d="M20 181c2,-1 4,-3 5,-6 0,-1 1,-2 1,-3 1,-1 3,0 4,-1 2,-3 -1,-4 3,-5 3,-2 5,-2 7,-4 4,-3 5,-8 9,-11 3,-1 6,-2 8,-4 3,-3 2,-6 2,-10 2,-1 4,-2 7,-3 2,-1 5,0 7,-1 6,-1 11,-1 16,-4 4,-2 12,-11 7,-16 -3,-3 -12,0 -12,-8 0,-6 9,-9 13,-10 6,-1 12,-3 14,-9 1,-3 2,-6 1,-9 0,-3 -2,-4 -4,-6 -3,-3 -2,-4 -2,-7 0,-2 0,-4 0,-7 1,-3 4,-5 5,-8 1,-4 1,-8 1,-12 -1,-7 -9,-5 -14,-5 -13,-2 -8,-25 -18,-31 -2,-1 -5,0 -8,-1 -4,0 -6,0 -9,2 -3,1 -5,3 -8,4 -3,2 -5,1 -8,0 -5,-2 -10,-5 -16,-3 -4,1 -4,4 -4,8 1,3 0,4 -1,7 -1,2 -1,5 0,8 0,3 2,6 1,8 -4,6 -13,-2 -18,-2 -4,0 -6,0 -7,4 0,2 1,3 1,5 -1,1 -2,2 -3,3 -2,6 4,12 7,16 4,7 9,11 11,19 1,3 8,15 5,18 -2,1 -5,-1 -7,3 -1,2 1,7 2,9 1,3 2,6 3,10 1,1 2,3 1,5 0,2 -1,1 -2,3 -4,4 0,9 1,14 1,3 0,5 1,7 1,4 2,6 0,9 -1,2 -3,4 -3,7 -1,2 0,5 -1,7 -1,3 -3,5 -3,8 0,4 4,3 5,2z"/>
 </g>
</svg>
