<?xml version="1.0" encoding="UTF-8"?>
<!DOCTYPE svg PUBLIC "-//W3C//DTD SVG 1.1//EN" "http://www.w3.org/Graphics/SVG/1.1/DTD/svg11.dtd">
<!-- Creator: CorelDRAW X7 -->
<svg xmlns="http://www.w3.org/2000/svg" xml:space="preserve" width="5.90359in" height="10.3648in" version="1.1" style="shape-rendering:geometricPrecision; text-rendering:geometricPrecision; image-rendering:optimizeQuality; fill-rule:evenodd; clip-rule:evenodd"
viewBox="0 0 1109 1947"
 xmlns:xlink="http://www.w3.org/1999/xlink">
 <defs>
  <style type="text/css">
   <![CDATA[
    .fil0 {fill:#6D6E70;fill-rule:nonzero}
   ]]>
  </style>
 </defs>
 <g id="__x0023_Layer_x0020_1">
  <metadata id="CorelCorpID_0Corel-Layer"/>
  <path class="fil0" d="M624 1941c5,-3 3,-10 4,-15 0,-5 -1,-10 -1,-14 -1,-8 -1,-17 3,-24 3,-7 9,-9 13,-14 5,-7 7,-12 15,-16 10,-6 20,-9 31,-10 9,0 10,1 12,-6 1,-5 -2,-8 2,-11 6,-4 19,1 25,2 9,2 19,0 28,1 14,2 16,-2 28,-9 9,-4 18,-7 28,-5 8,2 16,8 23,4 5,-2 5,-5 10,-7 6,-1 9,2 13,5 5,3 11,11 14,16 3,9 0,19 1,28 2,10 8,20 9,31 1,13 -6,39 11,44 29,9 28,-18 45,-31 5,-5 14,-10 21,-11 12,-1 13,8 22,12 25,9 17,-31 12,-42 -7,-14 -39,-32 -32,-51 13,-1 18,12 26,19 7,7 16,7 25,4 4,-1 6,-3 10,-3 4,-1 8,-1 12,-2 10,-3 12,-13 22,-16 6,-2 15,0 20,-5 5,-4 4,-21 0,-26 -6,-5 -29,2 -30,-9 0,-9 15,-7 21,-6 14,0 34,-12 31,-30 -2,-8 -7,-11 -5,-20 2,-7 8,-11 -2,-16 -13,-8 -39,5 -53,6 -16,0 -15,-5 -5,-13 7,-5 11,-11 20,-14 5,-2 15,-2 17,-9 2,-5 -2,-8 -3,-12 -3,-6 -3,-2 -1,-8 2,-3 5,-2 4,-9 -1,-4 -4,-5 -6,-8 -5,-11 1,-13 8,-19 8,-6 1,-10 5,-17 2,-4 18,-7 11,-16 -5,-4 -18,4 -22,-2 -6,-8 9,-14 14,-15 7,-2 18,3 14,-9 -1,-3 -8,-2 -6,-8 1,-3 6,-2 8,-3 5,-4 2,-2 5,-7 1,-2 0,-4 1,-5 1,-1 4,-1 5,-2 5,-7 1,-18 -1,-26 -1,-6 -8,-6 -14,-5 -10,1 -21,5 -31,7 -12,1 -17,7 -27,11 -8,3 -22,4 -25,-4 -3,-12 11,-17 18,-21 14,-8 12,-12 17,-25 4,-10 11,-10 19,-16 11,-8 7,-10 3,-21 -5,-11 5,-26 -4,-32 -11,-7 -23,12 -33,19 -9,7 -23,23 -35,24 -7,1 -15,-3 -12,-11 1,-6 14,-12 19,-16 14,-13 0,-21 6,-36 12,0 10,-2 16,-9 5,-6 13,-11 16,-17 3,-7 0,-13 0,-20 1,-6 7,-13 7,-18 0,-15 -28,-1 -36,4 -7,4 -15,11 -23,9 -10,-2 -9,-7 -5,-13 1,-2 6,-2 7,-3 1,-2 0,-5 1,-6 3,-4 3,-7 7,-11 7,-6 16,-5 23,-11 4,-5 4,-7 10,-11 4,-3 13,-2 11,-10 -3,-12 -21,-2 -29,-4 -14,-4 -2,-7 -3,-18 0,-6 -7,-7 -7,-12 0,-7 8,-7 9,-12 5,-20 -41,-2 -49,1 -20,6 -43,-3 -22,-23 8,-8 16,-5 22,-11 4,-4 3,-7 8,-11 4,-2 10,-1 13,-3 9,-6 5,-15 15,-22 7,-5 12,-4 11,-13 -1,-7 -4,-8 -11,-9 -11,0 -19,11 -29,11 -13,0 -4,-17 -12,-21 -15,-9 -47,43 -64,22 -7,-8 0,-23 10,-27 13,-5 18,1 16,-16 9,0 4,-7 6,-13 2,-8 4,-7 10,-13 6,-5 7,-7 8,-15 1,-3 -2,-6 -1,-8 1,-4 5,-4 6,-6 2,-4 15,-30 9,-33 -6,-5 -31,16 -42,18 -6,1 -29,-6 -15,-19 7,-8 7,-6 4,-15 -3,-8 -4,-10 3,-16 6,-7 10,-7 9,-17 0,-4 -2,-7 -1,-12 1,-3 5,-6 6,-8 2,-9 -7,-11 -9,-17 -2,-7 4,-14 2,-21 -13,-4 -12,14 -19,20 -5,5 -10,5 -14,0 0,-1 -5,-13 -5,-13 0,-5 6,-9 1,-13 -4,-4 -10,2 -14,1 -15,-1 -5,-17 7,-16 -3,-15 29,-7 35,-16 3,-6 -3,-12 2,-18 4,-4 16,-6 10,-15 -6,-9 -12,4 -17,6 -13,7 -11,-6 -19,-9 -6,-3 -15,5 -18,-5 -3,-6 2,-15 1,-22 -14,-2 -7,13 -17,17 -15,6 -4,-12 -4,-17 1,-4 -3,-4 -2,-10 2,-4 6,-2 7,-6 3,-9 -10,-8 -5,-19 0,0 1,0 1,0 4,-3 9,1 13,-4 1,-3 -1,-9 -1,-13 2,-7 7,-10 5,-18 -1,-3 -4,-4 -5,-8 0,-5 3,-7 5,-11 3,-6 6,-13 -5,-14 -6,-2 -14,5 -19,8 -7,6 -10,12 -14,19 -7,9 -13,7 -21,12 -10,6 -11,21 -26,18 -2,-6 -7,-6 -5,-13 1,-6 7,-13 11,-16 5,-4 11,-5 15,-10 5,-6 2,-8 3,-14 2,-10 17,-7 22,-17 2,-4 2,-14 -4,-17 -5,-2 -3,0 -13,-4 -6,-2 -31,19 -36,7 -2,-5 2,-4 4,-8 2,-4 2,-4 3,-9 1,-8 3,-10 9,-15 5,-4 11,-6 11,-13 0,-7 -7,-8 -3,-14 3,-6 11,-4 10,-13 -1,-4 -5,-10 -9,-12 -10,-6 -28,23 -39,11 -8,-9 5,-12 9,-17 2,-4 0,-7 3,-10 2,-2 6,-2 9,-4 16,-9 -10,-19 5,-32 5,-4 8,-4 9,-11 0,-3 -4,-6 -3,-10 2,-7 18,-11 13,-20 -7,-13 -32,-2 -54,-2 -5,0 -16,2 -21,-2 -6,-5 3,-20 -4,-25 -16,-13 -5,-28 -6,-37 -2,-9 -7,-9 -8,-17 -1,-7 5,-10 1,-18 -10,0 -28,1 -16,-14 3,-4 9,-4 11,-8 3,-7 -2,-7 4,-14 5,-5 11,-5 10,-13 -1,-9 -5,-6 -11,-9 -6,-4 -2,-8 -11,-6 -6,1 -9,3 -10,9 -3,0 -8,1 -10,0 0,-5 -1,-13 -6,-14 -8,-1 -8,11 -15,11 -18,-3 6,-21 8,-24 3,-5 8,-21 9,-27 1,-8 3,-25 -1,-31 -16,-5 -12,17 -28,13 -6,-12 -25,20 -25,-1 0,-8 8,-8 10,-13 3,-6 0,-11 2,-17 2,-6 9,-8 11,-13 2,-4 3,-16 3,-19 2,-17 -14,-13 -19,0 -9,2 -9,-4 -15,-7 -4,-2 -13,-1 -17,-5 -15,-14 11,-25 16,-33 3,-5 3,-10 7,-15 2,-4 14,-10 9,-16 -5,-7 -27,8 -36,-1 -6,9 -19,7 -18,-5 1,-7 21,-21 4,-24 1,-6 6,-11 4,-19 -9,-2 -15,11 -23,0 -4,-5 -3,-18 -5,-24 -5,0 -3,0 -7,-4 -11,-12 16,-16 -6,-27 -10,-5 -9,-2 -11,-13 -2,-6 -5,-21 -11,-15 -6,7 -2,18 -3,27 -3,15 0,21 -14,27 -13,6 1,27 -15,39 -25,19 -3,33 0,44 -5,-1 -10,1 -15,-1 1,4 -1,10 1,14 -22,-5 -6,18 -7,25 0,12 -8,20 -20,9 -14,23 24,29 20,55 -17,2 -21,10 -38,3 -13,20 16,22 13,41 -23,2 8,29 4,39 -8,24 -24,-7 -36,1 -5,15 3,22 1,36 -4,17 -6,22 0,39 0,2 -3,7 -1,11 1,5 9,7 12,12 4,9 5,12 5,23 -1,11 3,30 -14,26 -10,-2 -15,-23 -28,-10 -12,10 3,26 5,35 1,7 -2,13 -2,19 0,10 3,13 5,21 5,21 -8,14 -15,30 -6,16 6,30 -17,20 -10,-5 -26,-22 -26,2 0,14 17,17 20,31 1,7 -5,13 -4,19 1,6 7,8 8,14 1,14 -9,17 -6,32 2,10 18,26 4,35 -23,14 -36,-38 -58,-33 -4,18 18,22 13,40 -8,3 -14,11 -10,20 -11,-1 -18,-3 -19,9 -2,14 10,9 16,17 5,7 1,15 2,23 0,9 4,19 2,28 -29,-3 -2,34 -3,44 -9,1 -29,-6 -33,0 -7,10 7,23 5,30 -1,5 -15,9 -20,7 -19,16 41,56 17,80 -21,22 -56,-44 -77,-44 -6,17 6,14 11,26 3,7 -2,8 -2,14 0,7 6,12 5,20 -9,2 -22,-1 -19,14 3,10 11,10 10,23 0,5 -3,9 -2,14 2,8 7,9 11,16 5,10 2,20 3,31 4,39 -26,-18 -34,-1 -8,17 27,35 -3,48 -11,6 -18,2 -18,19 0,4 3,11 2,14 -1,6 -5,6 -8,10 -16,20 7,29 11,46 1,5 -1,10 0,14 2,8 5,7 9,13 8,11 1,11 -2,21 -3,12 4,17 9,25 9,14 2,21 6,34 3,11 17,18 4,27 -9,6 -19,1 -26,-2 -19,-6 -44,-9 -25,16 5,6 14,15 9,25 -7,14 -14,-1 -23,-3 -15,-3 -11,10 -8,18 4,10 5,14 1,26 -2,9 -6,19 -5,29 2,10 10,14 12,22 2,6 0,10 2,15 3,7 9,11 11,18 3,11 -6,20 -11,25 -5,7 -18,24 -19,30 -1,8 -1,4 -6,10 -3,3 -9,12 -11,13 -16,9 -23,-43 -34,-28 -5,6 12,23 2,27 -7,3 -19,-20 -30,-11 -7,5 2,17 3,23 0,2 0,11 0,13 -1,9 3,6 -7,9 -9,2 -22,4 -10,16 3,3 9,1 10,7 1,4 -5,8 -4,13 2,8 17,11 18,20 2,12 -15,6 -13,22 1,11 12,16 14,27 1,6 -1,12 0,17 0,9 1,8 7,16 9,13 6,13 -3,23 -8,9 -9,15 0,23 12,10 13,7 6,22 -5,12 -4,28 14,26 1,11 -5,22 -3,33 20,7 35,-17 52,-11 20,7 6,37 9,50 15,1 20,-6 31,-14 10,-8 23,-3 32,-10 8,-6 7,-12 18,-16 8,-3 20,-5 28,-10 7,-4 11,-17 23,-10 10,6 5,21 19,24 14,3 17,-13 13,-23 -4,-10 -14,-15 -17,-25 -2,-9 3,-23 15,-16 8,4 6,17 16,22 5,3 6,-1 10,5 4,4 5,13 7,19 4,11 11,23 25,16 6,-3 6,-8 11,-12 6,-5 7,-3 16,-5 13,-1 17,-9 27,-15 10,-5 18,-5 28,-3 9,2 22,-3 29,2 8,6 3,17 15,19 10,1 16,-11 27,-3 9,8 -2,43 7,50 5,4 24,-1 32,-1 9,1 16,4 25,5 11,0 23,0 33,-2 11,-2 33,5 42,-3z"/>
 </g>
</svg>
