<?xml version="1.0" encoding="UTF-8"?>
<!DOCTYPE svg PUBLIC "-//W3C//DTD SVG 1.1//EN" "http://www.w3.org/Graphics/SVG/1.1/DTD/svg11.dtd">
<!-- Creator: CorelDRAW X7 -->
<svg xmlns="http://www.w3.org/2000/svg" xml:space="preserve" width="3.38251in" height="5.20626in" version="1.1" style="shape-rendering:geometricPrecision; text-rendering:geometricPrecision; image-rendering:optimizeQuality; fill-rule:evenodd; clip-rule:evenodd"
viewBox="0 0 758 1166"
 xmlns:xlink="http://www.w3.org/1999/xlink">
 <defs>
  <style type="text/css">
   <![CDATA[
    .fil0 {fill:#6D6E70;fill-rule:nonzero}
   ]]>
  </style>
 </defs>
 <g id="__x0023_Layer_x0020_1">
  <metadata id="CorelCorpID_0Corel-Layer"/>
  <path class="fil0" d="M34 841c0,0 -9,-6 -11,-9 -2,-5 -7,-8 -8,-13 -2,-7 1,-16 1,-22 0,-7 -1,-13 -4,-19 -3,-11 -16,-12 -10,-26 2,-5 3,-7 2,-13 -2,-5 -4,-9 -2,-14 2,-5 5,-6 6,-11 1,-4 -1,-9 1,-13 13,9 20,9 35,13 12,2 27,9 39,9 15,1 29,4 44,4 13,0 15,-1 37,0 12,0 26,1 37,0 15,-2 19,-4 33,-11 7,-3 27,-18 32,-25 5,-7 12,-11 17,-17 5,-7 10,-14 15,-20 3,-3 11,-13 13,-18 8,-13 17,-36 23,-54 28,-83 30,-173 30,-262 0,-57 0,-117 -11,-172 -6,-24 -13,-49 -18,-74 -3,-17 -22,-67 -13,-72 30,-18 67,97 75,119 5,14 17,70 42,45 12,-11 9,-58 9,-74 0,-14 -5,-30 15,-26 12,3 19,20 26,29 15,23 26,39 26,69 -1,25 -1,54 6,78 4,11 12,23 25,11 6,-6 3,-27 15,-24 15,3 18,60 18,71 1,26 -14,54 -8,80 4,13 17,13 17,29 0,12 -9,23 -12,34 -5,26 1,54 3,78 3,29 3,54 35,65 16,6 64,-2 70,15 3,11 -27,26 -37,33 -12,7 -30,16 -41,24 -25,17 -50,44 -60,73 -7,25 -8,47 17,65 23,16 40,24 67,33 11,4 28,15 39,21 12,7 24,12 36,18 11,5 20,12 30,18 7,5 26,16 22,23 -5,9 -29,-4 -40,-6 -14,-3 -32,-6 -46,-12 -32,-16 -66,-26 -101,-35 -34,-9 -68,-16 -104,-14 -14,1 -33,2 -46,5 -15,3 -26,6 -37,15 -4,4 -12,10 -13,14 -2,5 0,16 1,21 1,5 2,9 4,14 6,12 10,16 19,34 9,16 18,33 27,48 9,14 14,30 20,46 11,27 29,51 41,77 5,10 7,20 8,30 0,3 2,11 0,14 -4,4 -9,-6 -11,-9 -7,-10 -19,-16 -30,-21 -8,-4 -24,-7 -33,-2 -10,5 -43,59 -51,30 -6,-23 -1,-48 -5,-72 -3,-15 -10,-28 -21,-39 -12,-12 -28,-22 -41,-34 -4,-4 -10,-10 -17,-10 -5,-1 -11,4 -15,7 -7,5 -13,9 -19,15 -5,6 -10,11 -16,15 -11,8 -23,10 -35,14 -14,5 -28,7 -42,4 -4,0 -9,-1 -9,-6 -1,-4 5,-9 7,-12 8,-11 11,-24 17,-36 5,-11 12,-22 13,-35 1,-13 1,-28 -1,-41 -4,-22 -7,-47 -21,-66 -8,-10 -18,-20 -27,-29 -16,-14 -36,-17 -56,-17 -19,0 -43,25 -43,25z"/>
 </g>
</svg>
