<?xml version="1.0" encoding="UTF-8"?>
<!DOCTYPE svg PUBLIC "-//W3C//DTD SVG 1.1//EN" "http://www.w3.org/Graphics/SVG/1.1/DTD/svg11.dtd">
<!-- Creator: CorelDRAW X7 -->
<svg xmlns="http://www.w3.org/2000/svg" xml:space="preserve" width="2.85191in" height="4.62684in" version="1.1" style="shape-rendering:geometricPrecision; text-rendering:geometricPrecision; image-rendering:optimizeQuality; fill-rule:evenodd; clip-rule:evenodd"
viewBox="0 0 311 504"
 xmlns:xlink="http://www.w3.org/1999/xlink">
 <defs>
  <style type="text/css">
   <![CDATA[
    .fil0 {fill:#6D6E70;fill-rule:nonzero}
   ]]>
  </style>
 </defs>
 <g id="__x0023_Layer_x0020_1">
  <metadata id="CorelCorpID_0Corel-Layer"/>
  <path class="fil0" d="M0 435c0,-3 1,-10 3,-14 1,-2 5,-6 7,-8 3,-2 10,-4 13,-5 2,0 6,1 7,0 5,-2 9,-11 12,-15 3,-4 11,-13 15,-17 7,-7 22,-21 29,-28 9,-8 27,-23 37,-30 7,-7 23,-18 31,-24 6,-5 18,-13 24,-18 4,-3 12,-12 16,-16 6,-6 17,-17 23,-24 4,-6 13,-18 17,-24 4,-8 13,-23 17,-31 4,-6 9,-21 12,-28 2,-5 6,-17 9,-23 1,-5 5,-14 6,-19 2,-5 3,-15 5,-21 0,-4 2,-12 3,-16 1,-5 6,-14 8,-19 1,-3 4,-8 4,-11 2,-5 3,-15 3,-20 1,-4 0,-13 0,-17 1,-2 2,-7 3,-7 4,0 6,8 7,11 0,4 0,12 0,16 0,5 0,16 0,22 -1,4 -3,11 -4,15 0,3 -2,10 -3,14 -1,5 -1,16 -2,22 -1,5 -3,16 -4,21 -1,5 -4,17 -5,22 -2,6 -4,17 -6,22 -2,6 -7,18 -10,23 -2,5 -7,14 -10,18 -3,5 -9,15 -13,20 -2,4 -7,13 -10,17 -2,3 -6,9 -8,13 -2,2 -5,5 -6,8 -1,2 -1,6 0,8 1,2 5,4 7,4 2,0 7,-2 10,-3 4,-1 12,-5 16,-6 4,-2 13,-8 18,-8 3,-1 13,-3 14,0 0,4 -9,5 -12,8 -3,2 -8,9 -12,12 -4,4 -14,10 -20,13 -6,3 -20,9 -26,12 -7,2 -21,7 -27,10 -12,6 -36,19 -47,26 -7,4 -19,13 -26,17 -8,6 -25,18 -33,25 -4,4 -13,13 -17,17 -4,4 -11,12 -14,16 -3,3 -8,7 -9,10 -1,2 -2,8 -2,10 0,3 1,7 2,9 2,4 9,10 12,13 5,5 15,13 20,17 4,2 12,7 17,9 5,2 15,4 20,5 4,0 11,0 15,0 3,-1 10,-5 13,-8 4,-3 7,-15 11,-14 4,1 2,10 2,14 -1,3 -4,11 -7,13 -4,5 -17,9 -24,11 -7,1 -22,1 -29,0 -7,-1 -19,-5 -24,-8 -5,-2 -14,-10 -18,-14 -4,-2 -12,-7 -15,-10 -2,-2 -6,-7 -9,-8 -3,-1 -8,3 -11,2 -3,0 -9,-1 -11,-3 -2,-2 -2,-6 -3,-8 -2,-3 -5,-9 -7,-11 -1,-2 -4,-6 -4,-9z"/>
 </g>
</svg>
