<?xml version="1.0" encoding="UTF-8"?>
<!DOCTYPE svg PUBLIC "-//W3C//DTD SVG 1.1//EN" "http://www.w3.org/Graphics/SVG/1.1/DTD/svg11.dtd">
<!-- Creator: CorelDRAW X7 -->
<svg xmlns="http://www.w3.org/2000/svg" xml:space="preserve" width="4.51176in" height="4.23655in" version="1.1" style="shape-rendering:geometricPrecision; text-rendering:geometricPrecision; image-rendering:optimizeQuality; fill-rule:evenodd; clip-rule:evenodd"
viewBox="0 0 973 913"
 xmlns:xlink="http://www.w3.org/1999/xlink">
 <defs>
  <style type="text/css">
   <![CDATA[
    .fil0 {fill:#6D6E70;fill-rule:nonzero}
   ]]>
  </style>
 </defs>
 <g id="__x0023_Layer_x0020_1">
  <metadata id="CorelCorpID_0Corel-Layer"/>
  <path class="fil0" d="M775 342c-31,60 -103,116 -77,190 0,1 0,1 0,1 0,0 0,0 0,1 -2,11 -6,23 -7,35 -14,-14 -29,-27 -43,-40 -4,-14 -5,-29 0,-43 1,-1 1,-2 1,-3 0,0 1,-2 0,-3 25,-30 53,-56 69,-92 14,-33 -7,-57 -12,-89 -1,-6 -7,-7 -10,-2 -20,30 -43,57 -56,91 -10,29 -9,64 -1,93 0,0 0,0 0,0 -5,12 -6,25 -4,37 -11,-9 -21,-18 -32,-28 -3,-2 -6,-4 -9,-7 -13,-17 -5,-41 3,-59 1,-1 1,-2 1,-2 0,-1 0,-1 0,-1 18,-31 38,-58 48,-94 7,-28 2,-57 -15,-79 -2,-4 -7,-4 -9,0 -14,28 -35,56 -43,86 -8,30 -1,57 9,86 -7,15 -13,33 -11,49 -17,-15 -35,-29 -53,-43 -1,-1 -1,-2 -1,-2 -7,-11 -5,-24 -2,-35 0,-1 0,-2 0,-2 0,0 0,-1 0,-1 11,-27 33,-50 41,-78 8,-29 1,-56 -2,-85 0,-5 -7,-6 -10,-2 -19,30 -45,57 -57,91 -9,26 5,52 16,74 1,0 1,1 1,1 -2,9 -3,18 -2,27 -18,-15 -37,-29 -56,-43 0,-1 0,-3 -1,-4 -11,-12 -7,-35 -5,-49 0,-1 0,-2 0,-2 0,0 1,0 1,0 11,-11 19,-26 29,-38 11,-13 23,-26 29,-42 9,-22 -6,-47 -10,-68 0,-5 -5,-7 -9,-4 -18,19 -45,43 -53,68 -8,27 -7,54 1,81 0,1 1,2 2,2 0,0 0,0 0,0 -3,14 -5,30 -1,44 -16,-12 -32,-24 -49,-35 -5,-3 -10,-6 -14,-10 -9,-12 -9,-31 -4,-45 1,-1 2,-1 2,-2 19,-26 47,-50 58,-81 9,-24 2,-51 -4,-74 -2,-4 -7,-5 -9,-2 -43,45 -78,87 -55,152 0,0 0,1 0,1 0,0 -1,0 -1,0 -5,12 -7,27 -4,40 -14,-9 -29,-19 -44,-28 -9,-13 -9,-29 -6,-44 0,-1 0,-1 0,-2 9,-33 32,-58 35,-94 3,-34 -5,-58 -22,-87 -1,-3 -6,-3 -8,-1 -6,7 -10,15 -14,23 -10,21 -22,37 -28,60 -9,33 4,74 26,99 0,1 0,1 0,1 -2,11 -2,24 1,35 -7,-4 -14,-8 -21,-12 -6,-4 -13,-9 -20,-14 0,0 -1,-1 -1,-1 -9,-8 -17,-20 -19,-31 0,-1 0,-1 0,-2 0,-1 -1,-3 -2,-4 -2,-2 6,-46 6,-52 1,-16 0,-32 -5,-48 -4,-17 -9,-33 -17,-49 -9,-19 -28,-33 -41,-50 -3,-4 -9,-2 -9,4 -3,36 -10,75 -2,112 6,33 32,69 59,88 0,0 0,0 0,0 0,1 1,1 1,1 0,0 0,1 0,1 1,6 3,11 6,17 -11,-6 -23,-10 -34,-11 0,0 0,0 0,-1 -16,-26 -47,-43 -75,-53 -39,-15 -75,-4 -115,-10 -5,-1 -8,5 -4,9 51,44 120,95 190,65 1,0 1,0 1,0 16,0 32,12 45,20 6,3 12,7 18,10 -10,0 -20,1 -29,5 0,0 0,1 0,1 -34,-11 -64,-6 -99,0 -36,7 -72,15 -104,33 -5,2 -2,8 2,9 32,11 63,31 98,23 37,-8 71,-34 102,-55 1,0 2,0 2,0 1,0 2,0 3,-1 13,-6 29,-5 43,-2 1,0 2,0 3,0 6,3 13,7 19,11 14,8 28,18 42,27 -8,0 -16,1 -22,6 -29,-6 -54,-13 -83,-3 -34,12 -65,32 -96,48 -5,3 -2,10 3,10 22,0 44,7 66,9 16,1 33,0 48,-3 28,-5 53,-27 66,-51 0,0 1,-1 1,-1 8,-8 25,-5 34,-2 1,0 2,0 3,0 18,12 36,24 54,37 -7,0 -15,2 -22,4 -28,-5 -59,-11 -87,-3 -13,4 -25,13 -36,21 -17,12 -33,25 -50,36 -4,3 -3,9 2,10 32,7 57,9 90,1 33,-8 60,-30 82,-55 1,0 1,0 2,0 10,-3 21,-6 31,-2 1,0 3,0 4,0 15,10 29,21 43,31 -5,0 -10,1 -14,2 -23,-4 -51,-5 -73,3 -11,3 -19,13 -27,21 -14,16 -30,27 -47,40 -4,4 -2,10 3,10 30,0 56,10 84,-4 28,-14 42,-35 59,-59 1,-1 1,0 1,0 1,0 2,0 2,-1 10,-3 20,-1 28,2 1,1 2,1 3,1 18,14 37,29 55,43 -7,0 -15,1 -22,3 -18,-11 -43,-4 -62,2 -35,12 -60,43 -87,66 -3,2 -3,8 2,9 29,5 57,6 85,-4 30,-11 46,-36 63,-62 0,0 1,0 1,0 12,-5 23,-4 35,-1 17,14 34,28 50,42 -7,0 -15,3 -21,5 -21,-13 -44,-14 -67,-6 -10,4 -19,13 -27,21 -15,14 -31,24 -47,36 -5,4 -2,10 3,10 50,3 110,-3 138,-50 1,0 2,0 3,0 9,-4 20,-8 30,-5 1,0 1,0 1,0 5,4 10,9 15,13 1,1 2,2 3,2 8,8 16,15 25,23 -12,0 -23,4 -32,11 -28,-5 -56,-7 -83,4 -13,6 -25,17 -36,26 -16,12 -34,21 -49,33 -4,3 -3,9 2,10 29,5 58,8 87,1 35,-8 56,-38 79,-62 1,0 1,-1 1,-1 1,0 3,0 4,-1 9,-9 26,-13 39,-9 0,0 0,0 1,0 17,17 35,34 52,51 -11,-3 -23,-4 -31,2 -20,-12 -42,-10 -64,-6 -13,3 -23,11 -33,19 -13,11 -29,20 -41,32 -3,4 0,9 4,9 25,0 48,8 73,4 26,-4 47,-27 63,-48 1,0 2,0 3,-1 5,-4 13,-2 19,-1 6,1 13,3 19,5 1,0 2,1 3,0 8,9 15,17 23,25 0,1 1,2 1,2 1,2 2,3 3,3 13,14 26,29 39,44 54,64 96,138 152,200 5,5 12,-3 7,-8 -31,-34 -57,-73 -83,-110 -27,-39 -56,-76 -87,-111 -8,-9 -16,-18 -24,-27 -6,-16 -3,-34 1,-50 0,-1 0,-1 0,-1 9,-14 21,-26 30,-40 10,-15 18,-31 26,-47 15,-30 3,-49 -13,-75 -2,-3 -7,-3 -9,1 -23,42 -73,112 -46,163 0,0 0,1 1,1 -3,11 -5,22 -4,33 -20,-21 -40,-42 -61,-62 -2,-15 4,-29 7,-43 0,-1 0,-1 0,-1 33,-26 69,-45 83,-87 12,-36 8,-71 -8,-105 -1,-4 -7,-5 -9,-1zm-77 -30l0 0c7,24 20,44 10,72 -11,32 -39,58 -62,83 -13,-61 20,-106 52,-155zm-106 18l0 0c9,-24 23,-47 35,-69 29,49 -6,102 -33,146 -8,-26 -12,-51 -2,-77zm-76 -41l0 0c10,-18 24,-34 36,-51 2,20 5,40 1,60 -5,27 -26,51 -38,76 -14,-30 -17,-54 1,-85zm-69 -61l0 0c8,-18 26,-35 40,-49 5,19 14,38 6,58 -5,15 -21,29 -31,42 -7,8 -12,18 -19,26 -7,-26 -7,-53 4,-77zm-31 -104l0 0c5,21 8,42 0,64 -9,24 -32,45 -48,65 -16,-54 13,-91 48,-129zm-136 -1l0 0c5,-18 16,-32 26,-48 2,-5 4,-10 7,-15 18,34 24,68 10,106 -7,18 -18,33 -25,51 -20,-26 -26,-63 -18,-94zm-107 -16l0 0c-4,-29 0,-59 2,-88 11,12 23,24 32,39 12,18 18,47 20,69 3,20 -1,40 -3,60 0,2 0,4 -1,6 -25,-21 -46,-55 -50,-86zm12 109l0 0c-60,22 -118,-16 -164,-54 27,1 54,-4 82,3 29,7 64,25 82,51zm-57 97l0 0c-29,11 -60,-6 -88,-17 28,-13 59,-20 89,-25 29,-6 55,-10 83,-4 -27,18 -53,34 -84,46zm95 51l0 0c-22,1 -43,-5 -64,-7 22,-12 45,-25 68,-35 27,-12 53,-7 81,-2 -19,30 -50,43 -85,44zm82 50l0 0c-25,8 -48,6 -72,1 20,-14 39,-30 60,-43 24,-15 58,-10 86,-4 -21,21 -44,37 -74,46zm94 43l0 0c-24,14 -47,9 -71,7 13,-10 25,-20 37,-33 13,-13 23,-21 43,-22 11,-1 24,-1 37,0 -13,19 -25,36 -46,48zm51 68l0 0c-19,7 -41,5 -61,2 16,-14 31,-29 48,-42 16,-12 55,-29 77,-19 -17,26 -33,47 -64,59zm16 42l0 0c11,-7 22,-14 31,-24 24,-23 51,-36 82,-20 -23,38 -71,45 -113,44zm85 68l0 0c-22,7 -46,4 -69,1 19,-15 40,-28 59,-42 25,-19 53,-18 82,-14 -22,23 -40,45 -72,55zm75 39l0 0c-16,1 -31,-3 -47,-5 13,-11 28,-22 41,-31 19,-14 50,-16 71,-6 -17,21 -36,40 -65,42zm191 -218l0 0c8,12 15,23 14,38 -1,14 -10,27 -17,38 -12,23 -28,42 -42,63 -16,-43 23,-101 45,-139zm-33 -17l0 0c-11,41 -46,61 -78,84 -17,-63 42,-114 73,-166 10,27 13,54 5,82z"/>
 </g>
</svg>
