<?xml version="1.0" encoding="UTF-8"?>
<!DOCTYPE svg PUBLIC "-//W3C//DTD SVG 1.1//EN" "http://www.w3.org/Graphics/SVG/1.1/DTD/svg11.dtd">
<!-- Creator: CorelDRAW X7 -->
<svg xmlns="http://www.w3.org/2000/svg" xml:space="preserve" width="1.78626in" height="3.84668in" version="1.1" style="shape-rendering:geometricPrecision; text-rendering:geometricPrecision; image-rendering:optimizeQuality; fill-rule:evenodd; clip-rule:evenodd"
viewBox="0 0 182 391"
 xmlns:xlink="http://www.w3.org/1999/xlink">
 <defs>
  <style type="text/css">
   <![CDATA[
    .fil0 {fill:#6D6E70;fill-rule:nonzero}
   ]]>
  </style>
 </defs>
 <g id="__x0023_Layer_x0020_1">
  <metadata id="CorelCorpID_0Corel-Layer"/>
  <path class="fil0" d="M26 379c0,0 0,-1 0,-1 0,-3 3,-7 5,-8 3,-3 7,-6 10,-9 4,-4 8,-8 12,-12 4,-4 7,-8 11,-12 3,-3 6,-7 10,-10 5,-4 5,-7 10,-12 5,-5 6,-8 10,-11 2,-2 5,-5 7,-7 1,-1 4,-4 5,-5 6,-5 17,-14 25,-17 2,-1 4,-1 6,-1 3,-1 5,-2 8,-4 5,-2 9,-6 13,-11 3,-3 5,-6 6,-10 2,-5 3,-7 5,-12 3,-9 4,-14 8,-26 3,-10 7,-39 3,-39 -2,0 -4,7 -5,8 -2,7 -4,13 -5,20 -1,5 -3,10 -4,15 -1,4 -2,9 -4,13 -2,5 -5,11 -8,15 -2,3 -3,6 -6,7 -2,1 -6,1 -7,-3 -1,-1 -1,-4 -1,-6 1,-14 6,-28 9,-41 4,-15 9,-31 14,-46 5,-14 13,-28 15,-43 2,-16 -3,-27 -10,-42 -7,-15 -17,-26 -28,-38 -5,-4 -9,-9 -13,-14 -3,-3 -6,-6 -9,-9 -3,-3 -9,-10 -11,-8 -2,2 4,8 6,10 3,4 6,8 9,12 3,3 4,5 7,8 4,4 8,8 12,14 7,8 11,15 16,24 2,4 4,7 5,11 1,4 2,7 2,11 1,11 -1,21 -6,31 -3,3 -5,5 -9,5 -5,0 -8,-3 -11,-6 -3,-5 -8,-10 -12,-14 -4,-4 -7,-8 -10,-12 -3,-4 -5,-6 -9,-9 -3,-3 -8,-8 -9,-7 -2,0 0,6 0,8 1,3 2,6 3,8 4,5 8,10 11,16 3,5 8,10 11,15 3,6 8,11 9,18 2,8 3,16 4,24 0,3 0,7 0,11 0,2 -2,11 -3,13 -2,6 -5,15 -7,21 -2,4 -3,8 -5,12 -4,8 -4,10 -6,15 -3,5 -6,11 -9,16 -2,5 -5,9 -7,13 -4,7 -8,14 -13,20 -2,4 -6,7 -9,10 -1,2 -2,4 -4,5 -1,1 -4,5 -5,7 -2,1 -7,7 -8,8 -4,4 -4,4 -7,6 -6,5 -10,10 -15,15 -4,4 -9,6 -13,10 -3,2 -5,5 -8,6 -4,2 -8,1 -12,-1 -1,0 -3,0 -4,1 -1,0 -1,2 -1,3 1,3 2,5 2,8 0,1 -1,2 -1,3 -1,2 -1,3 -1,5 0,3 2,5 3,7 0,3 0,6 2,8 2,1 5,3 7,1 1,0 2,-1 3,-2 1,-1 2,-1 3,-2 3,-1 5,-2 7,-4 0,-1 1,-2 1,-3z"/>
 </g>
</svg>
