<?xml version="1.0" encoding="UTF-8"?>
<!DOCTYPE svg PUBLIC "-//W3C//DTD SVG 1.1//EN" "http://www.w3.org/Graphics/SVG/1.1/DTD/svg11.dtd">
<!-- Creator: CorelDRAW X7 -->
<svg xmlns="http://www.w3.org/2000/svg" xml:space="preserve" width="5.30428in" height="5.21075in" version="1.1" style="shape-rendering:geometricPrecision; text-rendering:geometricPrecision; image-rendering:optimizeQuality; fill-rule:evenodd; clip-rule:evenodd"
viewBox="0 0 6702 6584"
 xmlns:xlink="http://www.w3.org/1999/xlink">
 <defs>
  <style type="text/css">
   <![CDATA[
    .fil0 {fill:#6D6E70;fill-rule:nonzero}
   ]]>
  </style>
 </defs>
 <g id="__x0023_Layer_x0020_1">
  <metadata id="CorelCorpID_0Corel-Layer"/>
  <polygon class="fil0" points="298,6199 356,6257 457,6156 513,6584 605,6492 549,6064 553,6060 609,6488 701,6396 645,5968 654,5960 709,6388 801,6296 893,6204 837,5776 838,5775 894,6203 986,6111 930,5683 932,5682 987,6110 1079,6018 1023,5590 1037,5576 1093,6004 1185,5912 1129,5484 3236,3378 3243,3385 3603,3024 3942,2685 3935,2678 5751,862 5762,873 6157,478 6181,503 6503,52 6052,374 6076,398 5681,793 5693,804 3877,2620 3870,2613 3530,2952 3170,3312 3177,3319 1048,5448 672,5399 580,5491 956,5540 942,5554 566,5505 474,5597 851,5646 849,5647 473,5598 381,5690 758,5739 756,5740 380,5691 288,5783 196,5875 573,5924 564,5932 188,5883 96,5975 473,6024 468,6028 92,5979 0,6071 377,6120 "/>
  <path class="fil0" d="M6450 6277l17 -17c74,27 156,1 235,10 -48,-19 -84,-55 -120,-96 7,0 20,-3 26,-3 -50,-57 -75,-121 -143,-154 4,-5 9,-12 14,-17 -13,-9 -23,-24 -39,-30 10,-2 20,-8 30,-9 -37,-15 -56,-48 -95,-58 19,-4 41,-6 59,-4 -69,-42 -130,-107 -220,-111 46,-5 103,-10 147,-5 -58,-17 -94,-75 -144,-103 6,-6 7,-5 14,-8 -6,-9 -14,-18 -22,-25 2,-3 4,-5 6,-8 -15,-5 -27,-19 -39,-25 10,-3 20,-11 30,-14 -101,-48 -289,-86 -411,-57l-1257 -1258 -90 -89 -39 -39 -89 -89 -39 -40 -90 -89 -39 -39 -51 -52 -39 -39 -90 -89 -39 -39 -89 -90 -39 -39 -90 -89 -1681 -1681 -89 -90 -40 -39 -89 -89 -39 -40 -89 -89 -40 -39 -51 -51 -39 -40 -90 -89 -39 -39 -89 -89 -39 -40 -90 -89 -776 -776 34 -35 -273 -148 148 274 34 -35 777 777 89 89 39 39 89 90 40 39 89 89 39 39 52 52 39 39 89 89 39 40 90 89 39 39 89 89 1681 1682 90 89 39 39 89 89 39 40 90 89 39 39 51 52 40 39 89 89 39 39 89 90 40 39 89 89 1254 1254c-32,122 6,317 55,420 3,-11 12,-20 15,-30 5,12 20,24 24,39 3,-2 6,-4 8,-6 8,7 17,16 25,22 3,-7 2,-9 8,-14 29,50 86,86 104,144 -6,-44 -1,-102 4,-147 4,90 70,151 111,220 -2,-19 0,-40 4,-59 10,39 44,58 58,94 2,-10 7,-19 9,-29 6,15 21,25 30,38 5,-5 12,-9 17,-14 34,69 97,94 154,144 0,-6 4,-19 4,-26 40,36 76,71 96,120 -9,-79 16,-162 -11,-235z"/>
 </g>
</svg>
