<?xml version="1.0" encoding="UTF-8"?>
<!DOCTYPE svg PUBLIC "-//W3C//DTD SVG 1.1//EN" "http://www.w3.org/Graphics/SVG/1.1/DTD/svg11.dtd">
<!-- Creator: CorelDRAW X7 -->
<svg xmlns="http://www.w3.org/2000/svg" xml:space="preserve" width="2.39204in" height="1.83325in" version="1.1" style="shape-rendering:geometricPrecision; text-rendering:geometricPrecision; image-rendering:optimizeQuality; fill-rule:evenodd; clip-rule:evenodd"
viewBox="0 0 277 212"
 xmlns:xlink="http://www.w3.org/1999/xlink">
 <defs>
  <style type="text/css">
   <![CDATA[
    .fil0 {fill:#6D6E70;fill-rule:nonzero}
   ]]>
  </style>
 </defs>
 <g id="__x0023_Layer_x0020_1">
  <metadata id="CorelCorpID_0Corel-Layer"/>
  <path class="fil0" d="M211 94c-4,-1 -8,-2 -13,-4 -8,-4 -7,-12 -7,-19 0,-2 0,-3 -1,-4 -3,2 -6,2 -9,1 0,0 0,1 -1,1 -11,12 -8,22 -5,36 2,7 3,10 9,14 5,3 10,5 16,4 0,0 1,0 1,0 0,-1 0,-2 0,-3 3,-10 4,-20 10,-26z"/>
  <path class="fil0" d="M169 145c8,4 13,2 20,-5 3,-3 6,-5 10,-7 0,0 0,0 0,0 0,-1 0,-3 1,-4 -13,1 -27,-6 -30,-18 0,-2 0,-3 -1,-5 -7,7 -17,19 -16,30 1,8 10,7 16,9z"/>
  <path class="fil0" d="M109 175c5,2 10,-10 12,-16 -5,-1 -8,-4 -8,-8 -1,-6 -4,-12 -4,-18 -2,-1 -5,-2 -8,-3 1,1 1,1 1,2 -2,9 -2,18 0,26 1,4 3,15 7,17z"/>
  <path class="fil0" d="M221 7c2,-1 5,-2 7,-3 -8,-5 -19,-5 -28,-1 8,0 15,-1 21,3 0,0 0,1 0,1z"/>
  <path class="fil0" d="M138 152c0,0 1,0 1,0 1,-6 4,-12 6,-19 -8,1 -18,-3 -21,-10 -1,-2 -1,-4 -1,-5 -3,2 -6,5 -7,9 0,1 -1,1 -1,2 1,1 1,2 0,3 0,4 2,8 2,11 1,5 0,9 6,10 5,1 11,2 15,-1z"/>
  <path class="fil0" d="M115 44c2,1 5,1 8,1 4,0 9,1 13,3 -1,-5 -1,-9 0,-14 -3,1 -6,1 -9,1 -5,1 -12,1 -16,3 -4,3 1,6 4,6z"/>
  <path class="fil0" d="M197 21c5,1 14,6 19,5 -3,-2 -4,-5 -4,-9 1,-3 2,-5 4,-7 -4,-1 -9,0 -13,-1 -4,0 -8,-1 -11,0 -8,0 -12,5 -18,8 6,8 14,2 23,4z"/>
  <path class="fil0" d="M106 63c7,1 14,6 21,9 -1,-1 -1,-2 -1,-4 0,-6 4,-11 8,-15 -8,-3 -15,-1 -23,-4 -1,0 -3,-2 -5,-3 -4,2 -10,6 -12,10 -1,5 9,6 12,7z"/>
  <path class="fil0" d="M160 56c3,-1 7,-2 10,0 5,2 12,10 18,5 -2,-6 -5,-11 -4,-17 2,-7 7,-12 13,-17 -10,-2 -19,2 -26,-4 0,0 0,0 0,0 -13,-2 -29,0 -30,16 -1,11 7,21 19,17z"/>
  <path class="fil0" d="M176 65c-2,-1 -4,-2 -7,-3 -7,-3 -11,4 -18,2 -4,-1 -7,-3 -10,-7 -1,0 -1,-1 -1,-2 -6,7 -8,12 -6,20 1,4 2,7 2,11 0,13 10,7 18,8 4,1 9,3 13,4 -2,-12 -1,-22 9,-33z"/>
  <path class="fil0" d="M161 102c-8,-3 -14,-1 -21,-1 -2,0 -4,-1 -6,-2 -4,5 -8,11 -5,18 2,8 11,12 18,10 1,0 1,0 1,0 3,-9 10,-18 16,-24 -1,0 -2,-1 -3,-1z"/>
  <path class="fil0" d="M89 124c8,-2 14,0 21,3 2,-6 6,-10 10,-15 1,-1 2,-1 2,-1 1,0 1,-1 1,-2 0,0 0,0 0,0 -4,-2 -6,-4 -11,-3 -2,1 -4,2 -6,1 -6,0 -12,-4 -19,-4 0,0 0,0 0,0 -8,7 -1,14 2,21z"/>
  <path class="fil0" d="M71 150c7,5 17,8 25,7 -1,-8 -2,-17 0,-26 1,-1 1,-1 2,-2 -3,0 -6,0 -9,1 -2,0 -4,0 -4,-2 -1,-4 -4,-7 -6,-11 -4,8 -15,26 -8,33z"/>
  <path class="fil0" d="M55 94c1,-2 2,-4 3,-6 -3,1 -6,3 -8,6 2,0 3,0 5,0 0,0 0,0 0,0z"/>
  <path class="fil0" d="M234 23c4,-1 7,0 11,2 10,5 21,18 31,7 -7,-10 -17,-22 -31,-24 -8,-1 -19,1 -26,8 -6,7 11,7 15,7z"/>
  <path class="fil0" d="M242 30c-3,-2 -12,-1 -19,-2 0,0 0,0 0,1 -6,5 -13,2 -19,0 -9,7 -17,14 -11,26 1,4 4,8 4,13 0,2 0,5 0,8 0,8 8,12 16,12 6,0 12,-1 18,-1 -6,-8 -9,-18 -6,-26 4,-12 20,-20 35,-21 -6,-3 -11,-7 -18,-10z"/>
  <path class="fil0" d="M52 139c4,0 8,-1 11,0 2,-8 6,-17 10,-23 -5,-1 -10,-2 -16,-1 -1,1 -3,0 -4,-2 0,-2 0,-4 0,-6 -4,3 -10,8 -9,10 2,3 1,7 0,10 0,2 -2,10 1,11 2,1 5,1 7,1z"/>
  <path class="fil0" d="M23 135c-1,4 -2,8 0,12 1,5 5,5 9,4 0,-3 2,-6 4,-10 1,-1 2,-1 3,-1 -2,-3 -1,-7 -1,-10 0,-4 0,-7 0,-10 -7,2 -13,6 -15,15z"/>
  <path class="fil0" d="M98 67c-7,9 -10,18 -10,30 9,1 16,5 25,3 5,-1 8,0 12,3 1,-3 3,-6 6,-9 0,0 0,-1 0,-1 -1,-4 -1,-9 -2,-13 0,0 0,0 -1,0 -9,-5 -16,-10 -26,-12 -1,-1 -3,-1 -4,-1z"/>
  <path class="fil0" d="M71 80c-7,8 -14,18 -12,29 6,-1 12,1 18,1 0,-5 2,-8 6,-11 -1,-4 -1,-8 0,-12 -4,-1 -9,-4 -12,-7z"/>
  <path class="fil0" d="M84 81c1,-4 3,-8 5,-12 -5,2 -10,3 -15,5 3,3 7,7 10,7z"/>
  <path class="fil0" d="M165 151c0,0 0,0 0,0 -6,-2 -13,-3 -17,-9 0,0 0,-1 0,-1 -1,3 -2,7 -3,10 -1,6 -5,17 -1,22 0,1 -2,1 1,1 1,0 2,0 3,0 2,1 5,2 7,1 3,0 6,-9 7,-11 2,-4 4,-9 3,-13z"/>
  <path class="fil0" d="M179 165c-1,-1 -2,-3 -2,-5 1,-2 2,-5 3,-7 -3,0 -6,0 -9,-1 0,5 -2,10 -4,15 -1,2 -2,6 -4,9 1,0 1,1 1,2 0,1 -1,2 0,3 6,-3 11,-9 14,-15 1,0 1,0 1,-1z"/>
  <path class="fil0" d="M199 140c-5,3 -8,7 -12,10 0,0 0,0 0,1 0,3 -3,6 -4,10 0,1 2,3 3,5 7,-3 12,-6 15,-12 -2,-5 -2,-9 -2,-14z"/>
  <path class="fil0" d="M27 119c3,-3 7,-4 12,-6 0,0 0,0 0,0 1,0 1,-1 1,-2 2,-4 8,-9 12,-11 -2,0 -4,-1 -7,-1 -1,0 -3,-1 -3,-3 -5,2 -11,6 -13,11 -1,2 -6,12 -2,12 0,0 0,0 0,0z"/>
  <path class="fil0" d="M246 101c-3,-3 -7,-6 -10,-9 -1,0 -1,0 -1,0 -5,0 -10,1 -15,2 0,0 0,0 -1,0 -12,8 -17,39 -13,55 17,-11 42,-25 45,-46 -1,-1 -3,-1 -5,-2z"/>
  <path class="fil0" d="M108 181c-4,5 -9,8 -15,9 -1,5 -1,10 0,14 7,-3 13,-8 19,-13 0,-3 1,-7 1,-10 -2,0 -3,0 -5,0z"/>
  <path class="fil0" d="M276 62c0,-4 1,-7 1,-11 -1,-2 -1,-3 -1,-3 0,0 -1,0 -1,0 -12,-6 -44,1 -45,17 -1,12 9,23 18,30 4,3 12,7 18,5 10,-4 9,-17 9,-26 0,-4 1,-8 1,-12z"/>
  <path class="fil0" d="M137 159c-3,1 -7,1 -11,1 0,5 -3,12 -8,17 1,0 1,0 1,1 0,6 -2,12 -1,17 4,0 10,-5 13,-8 3,-3 6,-6 9,-9 -4,-5 -3,-14 -3,-19z"/>
  <path class="fil0" d="M86 200c0,-3 0,-6 0,-9 -2,0 -4,1 -7,0 0,0 0,0 0,0 -2,3 -4,5 -6,8 0,1 1,1 0,2 0,3 0,6 1,9 5,-3 9,-6 12,-10 0,0 0,0 0,0z"/>
  <path class="fil0" d="M12 157c-3,1 -6,1 -8,-3 -1,-1 -2,-1 -2,-2 -3,7 -2,14 -1,22 4,0 7,0 10,-2 0,0 0,0 0,0 -1,-5 -1,-10 1,-15z"/>
  <path class="fil0" d="M37 183c0,0 1,0 1,-1 0,0 0,-1 0,-1 -1,-6 -1,-11 -3,-16 -1,-2 -2,-5 -3,-8 -4,1 -8,1 -12,-2 0,0 0,0 0,0 -6,6 -4,14 0,22 2,5 6,5 11,5 1,0 6,2 6,1z"/>
  <path class="fil0" d="M14 151c1,0 1,0 1,0 1,0 1,-1 2,-2 -1,-3 -1,-6 -1,-9 1,-3 1,-7 2,-11 -5,2 -16,6 -14,12 1,2 2,5 3,8 2,4 4,3 7,2z"/>
  <path class="fil0" d="M41 188c-3,3 -7,0 -11,0 -3,0 -7,0 -10,-1 1,8 3,23 9,20 7,-2 12,-10 15,-17 -1,0 -2,-1 -3,-2z"/>
  <path class="fil0" d="M60 162c-2,-6 -2,-10 1,-15 0,-1 1,-2 2,-2 0,0 0,0 0,0 0,0 0,0 0,0 -6,-1 -14,1 -20,-1 0,-1 -1,-1 -1,-1 0,0 -1,0 -1,1 -6,10 0,16 2,26 0,2 -1,14 3,14 9,1 16,-4 22,-9 -2,-5 -5,-9 -8,-13z"/>
  <path class="fil0" d="M73 188c-2,-2 -2,-5 -3,-7 -4,2 -11,6 -17,8 0,1 0,1 0,2 -2,4 1,6 1,9 1,2 1,3 1,4 8,-3 13,-9 19,-15 -1,0 -1,-1 -1,-1z"/>
  <path class="fil0" d="M103 178c-3,-4 -4,-10 -5,-15 -10,1 -27,-2 -32,-11 -1,0 -1,-1 -1,-1 -3,8 7,16 9,24 2,7 4,11 12,10 7,-1 13,-2 17,-7z"/>
  <path class="fil0" d="M47 197c-1,3 -3,6 -6,9 0,0 1,0 1,0 0,2 1,4 1,6 3,-1 5,-2 7,-3 -1,-2 -1,-6 -2,-8 0,-1 -1,-2 -1,-4z"/>
 </g>
</svg>
