<?xml version="1.0" encoding="UTF-8"?>
<!DOCTYPE svg PUBLIC "-//W3C//DTD SVG 1.1//EN" "http://www.w3.org/Graphics/SVG/1.1/DTD/svg11.dtd">
<!-- Creator: CorelDRAW X7 -->
<svg xmlns="http://www.w3.org/2000/svg" xml:space="preserve" width="2.30937in" height="4.37179in" version="1.1" style="shape-rendering:geometricPrecision; text-rendering:geometricPrecision; image-rendering:optimizeQuality; fill-rule:evenodd; clip-rule:evenodd"
viewBox="0 0 164 311"
 xmlns:xlink="http://www.w3.org/1999/xlink">
 <defs>
  <style type="text/css">
   <![CDATA[
    .fil0 {fill:#6D6E70;fill-rule:nonzero}
   ]]>
  </style>
 </defs>
 <g id="__x0023_Layer_x0020_1">
  <metadata id="CorelCorpID_0Corel-Layer"/>
  <path class="fil0" d="M160 283c-2,-1 -5,-4 -6,-6 -2,-1 -6,-6 -8,-8 -3,-3 -9,-8 -12,-11 -4,-4 -13,-12 -17,-16 -4,-3 -11,-10 -15,-13 -3,-3 -10,-9 -14,-12 -3,-3 -12,-9 -15,-12 -3,-2 -8,-8 -10,-10 -3,-4 -9,-11 -11,-15 -2,-4 -5,-11 -7,-15 -2,-6 -6,-17 -8,-23 -2,-6 -6,-17 -7,-23 -1,-5 -4,-14 -5,-18 0,-5 -1,-15 -1,-20 0,-5 1,-15 2,-20 0,-4 2,-13 3,-17 0,-3 2,-10 3,-13 1,-3 4,-8 5,-10 1,-2 4,-6 5,-9 0,-3 3,-11 0,-12 -2,-1 -3,7 -5,11 -2,4 -6,10 -8,13 -3,4 -7,12 -8,16 -2,5 -4,15 -5,19 -1,5 -2,16 -2,21 0,5 0,15 0,21 0,4 1,14 2,19 1,6 5,16 6,21 1,3 3,8 4,11 1,3 4,11 5,14 1,3 3,7 4,10 0,1 1,5 0,6 -1,1 -3,2 -4,2 -3,-1 -8,-3 -10,-5 -3,-2 -7,-7 -9,-9 -1,-1 -2,-4 -3,-5 -1,-2 -2,-7 -3,-9 -1,-2 -3,-7 -5,-7 -2,1 0,9 0,12 1,3 3,8 4,10 2,4 6,10 8,12 2,3 8,7 10,8 2,2 7,4 9,5 3,2 9,5 12,7 4,3 11,9 15,12 3,2 9,7 12,9 4,3 11,9 15,12 4,3 12,9 16,13 3,2 9,7 11,10 2,1 6,5 7,7 0,1 2,4 1,5 0,2 -3,5 -5,7 -4,3 -13,8 -17,10 -4,1 -12,4 -16,5 -2,1 -6,1 -8,0 -2,0 -6,-6 -8,-5 -2,3 3,9 5,10 2,2 8,3 11,4 4,0 12,-2 16,-3 4,-1 13,-6 17,-8 3,-1 8,-5 10,-5 3,-1 7,-1 9,-1 3,1 8,1 10,3 2,2 1,4 2,6 0,1 -1,4 -2,5 0,1 -2,3 -2,3 -2,0 -5,-6 -7,-5 -1,1 0,6 1,8 1,3 5,5 7,5 4,1 5,0 7,-1 2,-2 4,-7 5,-9 1,-2 1,-6 3,-7 0,-1 2,-1 3,-2 1,-1 1,-3 2,-4 0,-2 1,-5 0,-5 -1,-1 -3,1 -4,1z"/>
 </g>
</svg>
