<?xml version="1.0" encoding="UTF-8"?>
<!DOCTYPE svg PUBLIC "-//W3C//DTD SVG 1.1//EN" "http://www.w3.org/Graphics/SVG/1.1/DTD/svg11.dtd">
<!-- Creator: CorelDRAW X7 -->
<svg xmlns="http://www.w3.org/2000/svg" xml:space="preserve" width="2.01539in" height="2.49388in" version="1.1" style="shape-rendering:geometricPrecision; text-rendering:geometricPrecision; image-rendering:optimizeQuality; fill-rule:evenodd; clip-rule:evenodd"
viewBox="0 0 219 270"
 xmlns:xlink="http://www.w3.org/1999/xlink">
 <defs>
  <style type="text/css">
   <![CDATA[
    .fil0 {fill:#6D6E70;fill-rule:nonzero}
   ]]>
  </style>
 </defs>
 <g id="__x0023_Layer_x0020_1">
  <metadata id="CorelCorpID_0Corel-Layer"/>
  <path class="fil0" d="M12 136c6,5 14,7 21,10 3,1 6,3 10,3 -6,3 -12,5 -17,8 -1,1 -1,2 -1,3 8,7 15,10 25,13 0,0 0,0 0,0 1,3 3,5 5,7 -6,2 -12,5 -17,8 -1,1 -1,2 0,3 9,5 22,10 34,10 -5,3 -10,6 -14,5 -2,0 -2,2 -1,3 8,11 21,20 36,21 -1,0 -1,0 -1,0 -7,2 -12,4 -19,3 -1,-1 -2,1 -1,2 4,5 9,9 14,12 5,3 10,3 15,3 0,0 1,0 1,0 7,5 14,8 22,10 7,1 16,3 24,2 4,2 9,3 15,3 0,1 0,1 0,1 4,1 19,7 22,3 1,-1 1,-5 1,-5 1,-3 3,-6 4,-9 3,-6 6,-12 8,-18 0,-1 0,-1 0,-1 4,-9 9,-16 12,-25 3,-10 5,-21 5,-31 5,-8 4,-18 2,-27 -1,-1 -2,-2 -3,-1 -2,2 -3,4 -4,7 -3,6 -6,11 -11,16 -1,0 -1,0 -1,0 2,-4 4,-8 5,-13 2,-10 4,-20 1,-30 2,-7 0,-14 -4,-21 -1,-2 -2,-2 -3,-1 -2,3 -3,7 -5,11 0,-7 -3,-13 -4,-20 0,-2 -2,-2 -3,-1 -1,3 -4,5 -6,7 2,-8 2,-17 1,-26 0,-1 -1,-1 -2,-1 -8,4 -9,14 -14,20 0,-3 -1,-6 -1,-9 8,-8 2,-26 -1,-34 0,-1 -2,-1 -3,0 -4,6 -9,10 -13,15 0,-3 -1,-6 -2,-10 -2,-10 -7,-20 -10,-30 0,-1 -1,-1 -2,-1 -5,2 -8,5 -11,9 0,-3 0,-6 -1,-9 -1,-5 -4,-10 -7,-14 0,-1 -1,-1 -2,-1 -5,3 -8,7 -11,12 -2,-8 -3,-15 -10,-19 -1,-1 -2,0 -2,0 -3,5 -7,9 -9,14 -4,-9 -9,-18 -18,-23 -1,0 -2,0 -2,1 -2,7 -5,13 -8,19 -6,-9 -16,-10 -25,-14 -1,-1 -2,0 -3,1 -1,8 -6,15 -5,23 -3,1 -5,1 -7,2 -1,0 -1,0 -1,1 -1,7 -2,13 0,20 1,5 4,7 8,10 -1,0 -1,1 -1,2 2,7 7,14 12,20 -10,1 -18,7 -28,8 -1,1 -1,2 -1,3 4,6 10,13 18,16 -1,1 -1,2 -1,2 2,5 6,9 10,12 -5,2 -10,5 -14,8 -2,0 -2,2 -1,2zm17 23l0 0c11,-5 22,-11 33,-14 5,-2 11,0 16,1 6,1 11,1 16,4 -6,1 -12,4 -17,7 -8,5 -14,11 -24,13 0,0 0,0 -1,0 -9,-2 -16,-5 -23,-11zm50 -96l0 0c6,-4 10,-9 18,-9 7,0 12,5 15,11 -4,11 -9,21 -12,33 -1,0 0,0 -1,0 -2,1 -5,2 -7,3 0,0 0,0 0,0 -10,-2 -21,-8 -31,-7 4,-12 8,-22 18,-31zm-21 30l0 0c-4,-1 -8,-4 -11,-6 -4,-2 -9,-2 -14,-3 0,0 0,0 0,0 -5,-4 -10,-12 -12,-18 9,-2 19,-7 28,-10 6,-1 12,-2 18,0 3,1 6,4 10,5 -3,3 -6,5 -8,9 -6,6 -8,15 -11,23zm43 7l0 0c8,-2 21,0 25,8 -3,2 -6,5 -9,8 -9,8 -17,20 -19,32 -4,-2 -7,-4 -13,-5 -6,0 -12,-2 -18,-2 -1,-6 -9,-13 -1,-17 5,-3 11,-4 15,-8 8,-5 11,-13 20,-16zm5 81l0 0c4,-2 8,-3 11,-6 7,-4 11,-11 16,-18 11,-13 30,-27 46,-15 1,0 1,1 1,1 -2,6 -2,13 -4,20 0,0 0,1 0,1 -4,3 -9,7 -14,10 -7,4 -15,7 -20,13 -3,3 -4,5 -4,8 0,0 -1,0 -1,0 -1,1 -6,-2 -7,-2 -3,-1 -5,-2 -8,-2 -7,-1 -15,0 -22,2 0,0 0,0 -1,0 0,-5 2,-9 7,-12zm-24 1l0 0c-5,-2 -10,-4 -15,-4 -3,-1 -6,0 -9,1 -2,-2 -3,-4 -4,-6 4,0 7,-1 10,-2 7,-5 13,-10 20,-14 8,-4 16,-6 25,-4 6,1 14,1 20,5 -1,1 -3,3 -4,4 -5,7 -10,11 -18,15 -5,3 -8,5 -10,9 0,0 0,0 0,0 -5,1 -10,-2 -15,-4zm67 -45l0 0c-1,1 -2,3 -2,4 0,0 0,0 0,0 -5,3 -10,7 -14,11 -1,1 -1,2 -2,3 -8,-5 -20,-6 -30,-6 3,-15 13,-26 24,-36 5,-5 11,-9 18,-13 6,-3 12,-4 17,-7 1,8 1,17 -3,25 -3,7 -6,12 -8,19zm-107 53l0 0c10,-5 20,-11 32,-8 8,2 14,8 23,7 -1,2 -1,3 -1,5 -5,1 -11,3 -16,4 -1,0 -1,0 -2,0 -11,2 -26,-3 -36,-8zm19 19l0 0c3,0 6,-2 9,-4 8,-4 17,-5 26,-7 8,-3 17,-5 26,-4 4,1 7,2 11,3 1,0 2,1 4,1 -1,2 -1,3 -2,5 0,0 0,0 0,0 0,0 -1,0 -1,0 -16,2 -24,14 -35,24 0,0 0,0 0,0 -15,2 -29,-7 -38,-18zm107 -3l0 0c-6,6 -13,11 -20,17 -2,2 -5,4 -8,6 -3,2 -4,5 -7,7 0,0 0,0 -1,0 -10,-3 -19,-1 -29,-5 -1,-1 -2,-1 -3,-1 11,-10 19,-22 35,-24 7,-1 13,-3 20,-4 4,-1 8,-1 12,-1 2,0 4,1 6,2 -1,1 -3,2 -5,3zm10 -3l0 0c4,-3 9,-3 13,-4 4,-1 8,-2 12,-4 -3,5 -5,10 -8,14 -7,10 -15,18 -24,27 0,0 0,0 -1,0 0,-1 -2,-1 -2,1 -6,1 -14,1 -20,2 -4,1 -8,-1 -12,-1 4,-4 8,-8 12,-11 7,-6 13,-11 20,-17 4,-2 7,-5 10,-7zm-74 44l0 0c0,0 0,0 -1,0 -4,0 -9,0 -13,-1 -5,-2 -9,-6 -13,-10 3,0 6,0 9,-1 6,-1 10,-4 16,-1 4,2 8,3 13,4 5,0 9,0 14,0 -8,3 -14,11 -22,10 -1,0 -2,-1 -3,-1zm43 12l0 0c-6,1 -14,-1 -20,-2 -6,-1 -12,-3 -17,-6 7,-1 14,-6 20,-9 5,-3 12,1 18,0 6,0 12,0 17,-1 -1,1 -2,3 -3,5 -3,6 -10,10 -15,13zm4 1l0 0c7,-5 12,-10 17,-17 3,-6 12,-2 19,-1 -1,1 -3,2 -4,4 -6,6 -10,12 -18,16 -5,0 -10,0 -14,-2zm34 -2l0 0c0,1 -2,9 -4,9 -4,-1 -8,-2 -12,-3 4,-2 7,-5 10,-9 4,-4 9,-9 13,-13 0,0 1,0 1,0 -2,5 -5,11 -8,16zm22 -48l0 0c-2,8 -8,16 -12,24 0,0 0,0 0,0 -1,2 -3,3 -5,5 -5,1 -10,-3 -14,-4 8,-7 15,-15 22,-24 3,-4 5,-9 7,-14 2,-4 4,-8 7,-12 -1,9 -3,17 -5,25zm-6 -33l0 0c3,-2 6,-5 8,-9 2,-3 3,-8 5,-12 2,7 2,15 -1,21 0,0 -1,1 -1,1 -2,4 -5,8 -7,12 0,0 0,0 0,0 -6,5 -14,6 -21,7 -1,1 -2,1 -3,1 2,-3 4,-6 6,-9 2,-3 4,-5 6,-6 1,0 1,-1 1,-1 3,-2 5,-3 7,-5zm0 -21l0 0c-1,4 -2,8 -3,12 -1,5 -4,8 -6,12 -2,1 -4,3 -6,5 -3,4 -6,10 -10,15 -5,0 -11,-2 -17,-2 -7,0 -13,3 -20,5 1,-3 1,-6 2,-9 2,-5 8,-9 13,-12 7,-4 14,-8 21,-13 11,-8 21,-19 27,-31 1,6 0,12 -1,18zm-7 -33l0 0c2,-2 3,-6 4,-9 3,6 5,12 3,18 -5,12 -12,21 -21,29 1,-8 2,-16 5,-24 2,-5 6,-9 9,-14zm-8 -18l0 0c1,7 4,13 2,20 0,1 0,1 0,1 -1,2 -3,5 -5,8 -1,1 -2,3 -2,5 -10,-6 -20,-5 -29,-1 2,-3 4,-5 7,-7 3,-4 7,-8 11,-12 6,-4 11,-9 16,-14zm-9 -21l0 0c1,9 1,18 -2,27 0,0 0,0 0,0 -4,4 -9,7 -13,11 -2,2 -4,5 -7,7 3,-5 6,-10 8,-16 1,-3 1,-6 1,-9 6,-5 7,-15 13,-20zm-17 -23l0 0c3,8 6,22 1,27 -1,0 -1,1 -1,1 -7,5 -16,6 -23,11 -1,0 -1,1 -2,1 3,-7 4,-14 8,-20 4,-8 12,-13 17,-20zm-28 -26l0 0c2,7 6,15 8,22 1,6 4,15 1,21 0,0 0,0 0,0 0,0 -1,1 -1,1 -5,8 -5,18 -11,26 0,0 0,0 0,0 0,0 0,1 0,1 -5,-9 -16,-11 -26,-9 2,-6 3,-11 6,-16 2,-6 5,-11 7,-17 2,-6 3,-12 5,-17 0,0 0,-1 0,-1 2,-4 5,-8 11,-11zm-31 -2l0 0c3,-5 6,-10 10,-13 2,3 4,7 5,10 2,5 2,10 2,15 -1,4 -3,7 -4,11 0,2 0,3 -1,5 -4,-7 -12,-11 -19,-10 1,-6 4,-11 6,-16 0,0 0,-1 1,-1 0,0 0,-1 0,-1zm-21 -6l0 0c3,-5 7,-10 10,-15 5,5 6,13 8,20 -3,6 -6,13 -8,19 -1,1 -2,1 -4,2 -2,1 -4,4 -7,6 0,0 -1,-1 -2,-1 4,-11 6,-20 3,-31 0,0 0,0 0,0zm-19 -23l0 0c8,5 12,13 15,22 4,11 2,20 -2,30 -3,-1 -5,-3 -8,-4 -4,-1 -9,0 -13,0 -2,0 -4,1 -6,1 0,-8 0,-16 3,-24 1,-2 2,-4 2,-6 1,0 1,0 1,0 3,-6 6,-12 8,-19zm-35 6l0 0c9,3 19,5 23,13 -1,2 -2,5 -3,7 0,2 -1,4 -1,6 -4,-3 -8,-5 -13,-6 -4,-1 -8,-1 -11,0 -1,-7 3,-14 5,-20zm-12 45l0 0c-4,-6 -2,-13 -1,-19 0,-3 14,-3 16,-3 6,0 11,3 15,6 -1,5 0,10 0,15 -7,3 -14,7 -22,8 -3,-2 -6,-3 -8,-7zm-10 41l0 0c10,-2 19,-8 30,-8 8,-1 14,5 21,8 -9,4 -19,13 -29,16 0,0 0,0 0,0 -9,-1 -17,-9 -22,-16zm18 20l0 0c10,-1 19,-9 27,-14 8,-5 16,-6 25,-3 5,2 10,4 15,5 0,1 -1,1 -1,2 -4,5 -9,9 -15,12 -4,1 -8,2 -11,5 -3,2 -4,4 -3,6 -9,0 -17,-4 -25,-5 -1,0 -2,0 -4,1 -3,-3 -6,-6 -8,-9zm3 14l0 0c6,-3 11,-3 17,-1 6,2 12,4 18,3 1,3 3,7 4,10 -5,0 -9,2 -14,4 0,0 -1,0 -1,0 -6,1 -12,-2 -17,-4 -5,-2 -11,-4 -16,-7 3,-1 6,-3 9,-5z"/>
 </g>
</svg>
