<?xml version="1.0" encoding="UTF-8"?>
<!DOCTYPE svg PUBLIC "-//W3C//DTD SVG 1.1//EN" "http://www.w3.org/Graphics/SVG/1.1/DTD/svg11.dtd">
<!-- Creator: CorelDRAW X7 -->
<svg xmlns="http://www.w3.org/2000/svg" xml:space="preserve" width="1.60471in" height="2.66729in" version="1.1" style="shape-rendering:geometricPrecision; text-rendering:geometricPrecision; image-rendering:optimizeQuality; fill-rule:evenodd; clip-rule:evenodd"
viewBox="0 0 74 123"
 xmlns:xlink="http://www.w3.org/1999/xlink">
 <defs>
  <style type="text/css">
   <![CDATA[
    .fil0 {fill:#6D6E70;fill-rule:nonzero}
   ]]>
  </style>
 </defs>
 <g id="__x0023_Layer_x0020_1">
  <metadata id="CorelCorpID_0Corel-Layer"/>
  <path class="fil0" d="M74 13c-2,-7 -12,-7 -18,-9 -3,-1 -6,-3 -10,-4 -3,0 -8,0 -11,1 -6,2 -13,5 -19,10 -3,3 -6,5 -10,9 -1,1 -7,6 -6,7 3,4 10,6 14,7 5,2 12,3 18,2 0,2 1,7 1,10 0,3 0,7 0,11 0,8 -1,17 -4,25 -3,7 -8,12 -10,20 0,3 -2,5 -2,7 -1,3 -1,6 -1,8 2,1 3,2 4,3 1,1 3,1 4,2 1,0 3,1 4,1 2,0 4,-1 5,-2 8,-6 13,-14 16,-23 2,-4 3,-8 4,-12 1,-5 1,-9 1,-14 0,-4 0,-9 0,-13 0,-5 0,-10 -1,-14 -1,-4 -2,-9 -2,-14 3,0 6,-2 9,-4 5,-3 16,-7 14,-14z"/>
 </g>
</svg>
