<?xml version="1.0" encoding="UTF-8"?>
<!DOCTYPE svg PUBLIC "-//W3C//DTD SVG 1.1//EN" "http://www.w3.org/Graphics/SVG/1.1/DTD/svg11.dtd">
<!-- Creator: CorelDRAW X7 -->
<svg xmlns="http://www.w3.org/2000/svg" xml:space="preserve" width="2.3414in" height="5.28229in" version="1.1" style="shape-rendering:geometricPrecision; text-rendering:geometricPrecision; image-rendering:optimizeQuality; fill-rule:evenodd; clip-rule:evenodd"
viewBox="0 0 1122 2532"
 xmlns:xlink="http://www.w3.org/1999/xlink">
 <defs>
  <style type="text/css">
   <![CDATA[
    .fil0 {fill:#6D6E70;fill-rule:nonzero}
   ]]>
  </style>
 </defs>
 <g id="__x0023_Layer_x0020_1">
  <metadata id="CorelCorpID_0Corel-Layer"/>
  <path class="fil0" d="M31 2018c6,-8 17,-26 27,-30 9,-4 31,3 41,0 11,-3 29,-16 37,-23 20,-21 53,-68 71,-90 22,-26 65,-78 87,-103 23,-27 70,-79 93,-105 17,-19 52,-54 67,-74 20,-27 52,-89 71,-118 15,-22 45,-64 60,-86 11,-17 32,-50 43,-67 11,-15 34,-45 44,-61 14,-25 40,-75 50,-102 8,-22 19,-68 23,-91 4,-26 10,-78 10,-104 -1,-24 -8,-72 -13,-96 -5,-21 -21,-62 -29,-82 -9,-23 -32,-68 -43,-91 -8,-17 -24,-49 -30,-67 -4,-12 -18,-40 -10,-50 7,-8 42,14 50,22 20,20 28,31 36,43 13,18 26,35 39,53 10,15 30,45 38,60 8,14 19,44 25,59 3,8 12,30 19,35 6,3 16,-1 21,-5 13,-10 16,-46 20,-62 8,-32 20,-97 23,-130 3,-29 7,-90 9,-120 1,-27 1,-79 1,-106 0,-29 -7,-85 -10,-113 -2,-25 -7,-74 -11,-99 -4,-22 -13,-68 -20,-89 -5,-15 -21,-42 -25,-57 -5,-17 -25,-59 -10,-68 8,-6 26,19 33,27 6,7 11,18 15,26 8,16 30,45 38,62 11,22 28,70 35,95 7,23 15,72 20,96 5,22 16,67 19,90 2,29 10,89 10,118 0,30 -1,82 -1,112 0,22 -6,71 -9,93 -3,18 -18,51 -24,68 -6,17 -21,49 -26,67 -4,11 -8,27 -9,46 0,6 9,19 15,20 8,2 24,-9 30,-15 13,-11 32,-38 40,-53 9,-17 22,-54 25,-73 3,-18 8,-50 9,-69 3,-23 8,-70 14,-93 2,-10 8,-34 14,-43 5,-9 15,-34 25,-32 11,3 11,32 13,44 3,18 0,55 0,73 0,20 1,60 0,80 -1,18 -3,55 -8,73 -6,21 -26,61 -37,80 -9,15 -30,42 -42,55 -14,16 -42,49 -59,61 -10,7 -33,10 -42,17 -13,10 -32,40 -40,55 -12,22 -26,71 -37,95 -10,23 -31,70 -45,91 -11,20 -41,55 -54,73 -15,20 -41,60 -57,79 -13,15 -43,49 -54,65 -11,15 -26,41 -31,60 -4,15 -11,47 -8,63 2,12 15,32 23,41 11,13 40,32 55,40 17,9 53,22 72,25 12,3 38,7 49,2 7,-3 17,-17 19,-25 3,-12 -6,-38 -9,-50 -2,-10 -19,-32 -11,-38 9,-8 33,12 43,18 11,7 31,24 37,35 6,12 8,40 6,53 -2,14 -14,40 -23,50 -12,13 -43,31 -60,35 -22,6 -69,2 -91,-1 -21,-4 -60,-19 -79,-27 -16,-7 -46,-26 -62,-32 -9,-3 -27,-8 -36,-8 -14,0 -44,8 -56,15 -16,9 -40,37 -54,50 -15,14 -45,43 -60,58 -14,13 -40,41 -52,55 -10,11 -29,32 -37,44 -4,7 -9,22 -9,29 1,10 13,28 19,36 16,18 59,43 79,56 16,11 57,46 59,49 12,11 35,26 49,31 10,5 34,8 46,9 11,1 41,-10 46,0 4,9 -18,27 -27,31 -16,8 -54,4 -71,0 -21,-4 -58,-25 -77,-35 -23,-13 -67,-40 -88,-55 -12,-8 -31,-31 -45,-36 -10,-4 -33,-4 -43,-1 -11,3 -32,17 -39,26 -8,11 -15,37 -16,50 -1,11 4,32 6,42 5,21 19,62 27,82 9,25 30,75 41,99 6,14 16,41 23,55 6,11 18,37 29,45 7,6 26,11 36,11 11,1 33,1 42,-6 9,-6 23,-23 30,-19 8,4 8,29 4,37 -6,14 -33,36 -47,41 -18,7 -59,10 -77,6 -16,-3 -43,-24 -53,-36 -16,-16 -35,-59 -45,-79 -14,-29 -41,-87 -53,-117 -8,-18 -21,-56 -28,-74 -3,-10 -7,-30 -13,-38 -3,-4 -12,-11 -17,-12 -8,-2 -23,11 -31,9 -8,-3 -17,-19 -21,-26 -7,-13 -15,-42 -17,-56 -1,-14 1,-42 6,-55 4,-8 18,-21 25,-28z"/>
 </g>
</svg>
