<?xml version="1.0" encoding="UTF-8"?>
<!DOCTYPE svg PUBLIC "-//W3C//DTD SVG 1.1//EN" "http://www.w3.org/Graphics/SVG/1.1/DTD/svg11.dtd">
<!-- Creator: CorelDRAW X7 -->
<svg xmlns="http://www.w3.org/2000/svg" xml:space="preserve" width="1.16851in" height="2.47678in" version="1.1" style="shape-rendering:geometricPrecision; text-rendering:geometricPrecision; image-rendering:optimizeQuality; fill-rule:evenodd; clip-rule:evenodd"
viewBox="0 0 25438 53918"
 xmlns:xlink="http://www.w3.org/1999/xlink">
 <defs>
  <style type="text/css">
   <![CDATA[
    .fil0 {fill:#6D6E70;fill-rule:nonzero}
   ]]>
  </style>
 </defs>
 <g id="__x0023_Layer_x0020_1">
  <metadata id="CorelCorpID_0Corel-Layer"/>
  <path class="fil0" d="M8864 48051c-609,341 -1403,366 -2062,536 -190,49 -387,107 -584,149 327,997 885,1405 1789,1838 518,248 974,812 1494,988 1294,441 2682,-1660 2887,-2839 -224,-27 -446,-118 -665,-295 -631,-509 -1328,-981 -1891,-1572 -131,467 -395,876 -968,1195z"/>
  <path class="fil0" d="M14073 47308c537,-318 1200,-520 1672,-923 803,-686 795,-1456 809,-2362 -1542,-195 -2981,-973 -3492,-2453 -825,1466 -1429,3250 -3035,3510 -38,373 -45,736 -76,1079 433,553 986,888 1515,1345 1188,1023 1675,355 2607,-196z"/>
  <path class="fil0" d="M6451 41232c-168,211 -367,512 -600,658 -19,12 -38,22 -56,34 -54,697 -156,2020 886,2223 312,61 616,95 934,119 580,45 1124,222 1698,286 2097,237 2543,-1950 3352,-3384 -710,-55 -1573,158 -2148,-406 -484,-476 -918,-1054 -1195,-1683 -337,393 -754,695 -1235,954 -607,325 -1200,650 -1636,1199z"/>
  <path class="fil0" d="M14197 6159c165,594 915,1045 1318,1474 423,450 740,972 964,1547 331,855 493,1651 1506,1817 678,112 1617,624 2287,517 700,-111 1134,-429 1375,-858 -2,-82 40,-159 101,-215 440,-1116 -162,-2794 -766,-3716 -961,-1467 -2156,-2706 -3633,-3639 -41,267 -135,541 -257,809 -638,1407 -1680,1913 -2895,2264z"/>
  <path class="fil0" d="M19176 35101c382,-943 457,-1918 890,-2833 -131,0 -262,-5 -391,-21 -746,-94 -1236,-825 -1605,-1390 -477,-729 -1198,-1241 -1647,-1974 -444,215 -924,349 -1409,334 -345,1617 -2159,2229 -3361,3126 -13,10 -26,19 -39,29 354,740 1308,876 1674,1616 477,958 518,2386 1852,2545 1378,164 3413,107 4036,-1432z"/>
  <path class="fil0" d="M21034 11868c-929,501 -1893,-127 -2816,-278 -118,-20 -248,-36 -383,-56 -344,1502 1467,2500 2336,3457 530,582 1496,3605 2766,2541 1847,-1547 546,-5000 -987,-6497 -230,338 -533,627 -916,833z"/>
  <path class="fil0" d="M3305 26776c-514,1065 -456,1973 332,2887 750,871 1736,1526 2785,514 11,-11 24,-14 35,-22 13,-51 25,-102 41,-151 399,-1303 1552,-2215 2161,-3421 -437,-58 -883,-292 -1169,-554 -714,-655 -1361,-1382 -2053,-2061 -681,935 -1628,1762 -2132,2808z"/>
  <path class="fil0" d="M21657 19976c243,-534 366,-1117 352,-1705 -1137,-274 -1692,-2294 -2339,-3028 -122,657 -625,989 -1274,1142 239,1220 1,2537 1152,3352 519,368 1681,1182 2109,239z"/>
  <path class="fil0" d="M21078 20969c-182,10 -379,-17 -601,-98 -839,-307 -1707,-873 -2147,-1666 -449,-810 -284,-1846 -470,-2734 -107,9 -215,17 -325,22 -328,1019 -771,1864 -1753,2385 -491,260 -861,518 -1189,884 786,385 1422,1297 1946,1939 698,860 1399,1327 2389,1800 1636,780 2119,-1388 2150,-2532z"/>
  <path class="fil0" d="M19041 24191c-874,-272 -1801,-907 -2398,-1520 -677,-695 -1408,-2130 -2390,-2468 -2,1 -2,2 -4,5 -205,308 -397,604 -720,751 -82,775 -136,1536 -541,2222 -441,743 -1298,901 -1910,1430 -73,63 -139,129 -202,197 1113,974 1568,2606 2787,3420 1461,975 3014,87 4071,-1046 832,-890 921,-1925 1307,-2991z"/>
  <path class="fil0" d="M9690 38354c12,26 20,54 22,84 133,505 402,998 787,1488 758,968 4210,1136 4935,161 653,-877 1026,-1893 1240,-2955 -419,38 -846,32 -1266,-18 -1244,-148 -1807,-598 -2193,-1795 -254,-783 -540,-1271 -1190,-1760 -627,901 -1438,1690 -1975,2649 -421,752 -520,1460 -360,2146z"/>
  <path class="fil0" d="M4341 36879c504,178 1050,166 1564,314 787,227 1596,492 2335,-58 329,-244 644,-502 990,-723 26,-17 52,-23 79,-30 519,-1165 1566,-2133 2284,-3154 -179,-155 -321,-316 -431,-528 -1109,776 -2237,1306 -3580,583 -534,-289 -881,-765 -1065,-1306 -482,520 -1032,990 -1537,1482 -363,353 -714,785 -1104,1146 1,1 2,3 1,5 -47,541 -268,2012 464,2269z"/>
  <path class="fil0" d="M16701 11019c-529,-779 -751,-1644 -1197,-2423 -729,759 -1796,1014 -2585,1718 -511,457 -897,1019 -1326,1538 59,888 -4,1986 406,2796 547,1080 1607,958 2626,1063 1034,106 4641,900 4525,-892 -2,-23 5,-41 8,-62 -997,-899 -2214,-1906 -1859,-3339 -240,-77 -458,-194 -598,-399z"/>
  <path class="fil0" d="M7050 18621c-526,258 -1076,398 -1584,328 -440,-59 -894,-254 -1287,-539 -945,1119 -1572,2442 -1958,3850 -144,526 -665,1767 541,1655 791,-73 1414,-322 1965,-907 -107,-270 -151,-559 -87,-834 289,-1243 1292,-2695 2410,-3553z"/>
  <path class="fil0" d="M20295 38817c-6,-21 -4,-40 -6,-59 -570,-226 -1186,-399 -1672,-678 -471,-270 -769,-654 -1003,-1126 -121,36 -242,70 -365,96 -278,1524 -864,3315 -2289,4107 -424,236 -938,204 -1435,132 313,1155 1199,1773 2406,1962 953,148 1913,473 2856,53 1156,-516 1675,-1440 1765,-2497 -13,-53 -28,-107 -38,-160 -17,-89 7,-157 52,-203 -2,-530 -100,-1083 -271,-1627z"/>
  <path class="fil0" d="M9290 26515c-695,1677 -3982,4384 -1694,6101 1681,1261 3079,-335 4437,-1227 927,-608 2163,-1071 2438,-2250 -1992,-465 -2497,-2648 -3935,-3902 -344,492 -609,998 -1236,1275 -3,2 -7,2 -10,3z"/>
  <path class="fil0" d="M6667 24341c396,414 717,929 1180,1273 1481,1102 2283,-1160 3439,-1773 1301,-690 1536,-1552 1689,-2848 -50,-12 -100,-23 -150,-30 -724,-103 -830,216 -1440,439 -469,170 -759,183 -1222,27 -1013,-343 -1612,-1772 -2350,-2673 -975,581 -2830,2625 -2645,3739 142,859 950,1271 1499,1846z"/>
  <path class="fil0" d="M7933 18068c861,805 1276,2052 2239,2711 923,631 1375,-334 2132,-375 309,-17 525,33 827,70 559,68 924,-1324 1453,-1595 1208,-618 1934,-1114 2377,-2386 -770,-26 -1531,-145 -2026,-201 -1006,-112 -2284,46 -3024,-805 -721,-832 -779,-1996 -833,-3073 -80,75 -166,144 -252,214 919,1460 -991,2839 -1581,3953 -263,496 -741,1042 -1312,1487z"/>
  <path class="fil0" d="M4956 18266c1605,585 3320,-1044 3964,-2260 452,-855 2077,-2011 1453,-3065 -5,2 -8,5 -13,8 -1215,671 -2755,205 -3965,-585 -1113,1419 -4677,4721 -1439,5902z"/>
  <path class="fil0" d="M13679 6299c-522,133 -1067,259 -1622,428 -815,248 -1733,-425 -2377,-1035 -263,534 -548,1098 -1012,1469 -1091,874 -2403,989 -2792,2600 -85,352 -213,753 -395,1116 861,1009 2295,1879 3670,1781 1247,-88 1805,-852 2499,-1747 956,-1236 2594,-1637 3544,-2784 -123,-161 -261,-318 -422,-466 -440,-402 -917,-791 -1093,-1362z"/>
  <path class="fil0" d="M4998 23495c-585,484 -1999,1183 -2854,996 -393,695 -1000,1263 -1323,1991 -251,563 -400,1403 205,1820 481,331 942,227 1367,-87 -110,-1764 1685,-3281 2663,-4648 -20,-24 -39,-47 -58,-72z"/>
  <path class="fil0" d="M22691 35697c-438,-446 -503,-1021 -725,-1583 -277,-700 -740,-1254 -962,-1980 -101,28 -203,51 -305,72 -6,22 -14,45 -28,69 -677,1225 -520,3101 -1734,4024 -252,191 -522,348 -806,472 729,1427 2508,1135 3543,2132 295,285 547,610 834,902 251,256 359,476 482,12 200,-747 225,-1541 195,-2311 -19,-502 30,-1295 -229,-1767 -90,34 -189,35 -265,-42z"/>
  <path class="fil0" d="M9708 5019c58,27 107,73 135,130 357,334 740,618 1104,796 892,437 1602,19 2506,-176 1534,-332 3207,-923 3367,-2804 79,-944 -1169,-1100 -1787,-1485 -744,-464 -1448,-988 -2201,-1440 -20,-11 -38,-26 -53,-40 -1042,51 -1630,1000 -2494,1497 -485,280 -2163,967 -1804,1812 233,552 694,1182 1227,1710z"/>
  <path class="fil0" d="M5700 48911c-13,-41 -16,-78 -13,-114 -120,-2 -240,-18 -358,-53 -352,-104 -848,-459 -1277,-884 -55,497 -169,1030 9,1394 333,681 1073,1040 1609,1534 329,305 464,732 699,1101 361,569 1085,544 1248,-135 52,-216 99,-434 145,-652 -111,-64 -224,-123 -340,-174 -945,-412 -1407,-1049 -1722,-2017z"/>
  <path class="fil0" d="M12879 49413c-113,459 -345,870 -752,1237 -338,304 -813,897 -1327,1256 694,656 1406,1890 2363,1056 362,-315 715,-644 1056,-984 113,-114 456,-373 597,-575 -232,-426 -403,-918 -763,-1189 -395,-296 -858,-480 -1174,-801z"/>
  <path class="fil0" d="M10269 52168c-91,24 -183,37 -275,34 -659,-25 -1194,-413 -1736,-782 -48,244 -105,512 -193,763 2,5 7,8 9,14 206,582 634,1217 1148,1567 769,525 1312,-419 1663,-993 -213,-229 -417,-447 -616,-603z"/>
  <path class="fil0" d="M18451 43977c-439,78 -897,108 -1356,90 -9,371 -30,719 -88,1055 31,1 64,6 99,21 894,390 1117,865 1472,1729 621,1507 788,-358 1014,-958 278,-737 941,-1146 1409,-1746 652,-835 291,-1604 -76,-2400 -318,1087 -1089,1958 -2474,2209z"/>
  <path class="fil0" d="M24143 24719c-1079,1317 -2264,-3135 -2493,-3947 -9,6 -16,13 -25,18 16,1165 -353,3174 -1587,3482 347,598 711,1188 1027,1802 201,391 388,968 645,1311 469,627 1207,569 1635,1162 242,338 274,792 407,1172 364,1041 1215,-522 1277,-653 563,-1166 768,-3781 -886,-4347z"/>
  <path class="fil0" d="M21518 31947c202,652 633,1149 879,1772 167,422 243,972 500,1369 647,-637 1267,-1492 866,-2425 -251,-586 -634,-1046 -1034,-1523 -351,333 -765,610 -1211,807z"/>
  <path class="fil0" d="M22379 28535c-598,-240 -1023,-568 -1293,-1166 -454,-1005 -1020,-1941 -1563,-2896 -206,663 -257,1415 -590,2016 -355,640 -845,1131 -1385,1623 -197,179 -417,348 -652,501 289,430 685,724 1027,1123 362,426 608,937 972,1357 1201,1390 3569,-21 4176,-1331 20,-43 47,-74 77,-99 -167,-470 -340,-958 -769,-1128z"/>
  <path class="fil0" d="M16878 45640c-102,308 -253,605 -480,900 -247,320 -707,540 -1060,712 -694,340 -1232,847 -1894,1210 -131,72 -261,128 -392,173 8,20 20,38 24,62 102,590 1074,834 1476,1250 317,327 464,773 712,1149 73,35 131,100 147,190 818,918 1896,-333 2231,-1128 365,-869 294,-1897 414,-2820 3,-26 14,-45 21,-66 -267,-614 -460,-1301 -1199,-1632z"/>
  <path class="fil0" d="M3766 18052c-34,-36 -70,-71 -102,-108 -650,1050 -1646,1610 -2419,1140 -455,553 -1125,1129 -1227,1810 -131,873 467,2188 1503,1789 112,-573 333,-1145 529,-1652 423,-1092 959,-2083 1716,-2979z"/>
  <path class="fil0" d="M22618 18254c-21,6 -41,9 -61,14 9,634 -130,1487 -498,2063 1,1 2,2 2,3 385,594 477,1197 589,1885 91,554 1117,2980 1567,1130 209,-858 -194,-1660 -248,-2517 -76,-1193 23,-1882 -656,-2881 -201,124 -429,228 -695,303z"/>
  <path class="fil0" d="M5731 48260c824,-116 2370,-279 3044,-782 415,-310 577,-696 643,-1117 -84,-122 -48,-245 34,-326 20,-301 12,-614 30,-925 -201,-9 -415,-38 -645,-91 -834,-193 -2252,-18 -2917,-628 -342,-314 -522,-683 -613,-1083 -515,718 -1140,1434 -1449,2223 -324,828 -29,1252 566,1793 276,251 890,995 1307,936z"/>
  <path class="fil0" d="M4767 11040c663,-985 511,-2547 1648,-3212 538,-315 1180,-506 1666,-895 570,-457 873,-1027 1191,-1652 0,-2 -1,-3 -2,-3 -270,-289 -703,-698 -1017,-1150 -605,1012 -1645,1822 -2437,2657 -515,543 -1039,1089 -1489,1688 -344,456 -875,1009 -913,1613 -127,1035 324,1353 1353,954z"/>
  <path class="fil0" d="M2370 18655c405,-318 669,-694 913,-1140 13,-24 29,-44 46,-62 -220,-422 -307,-900 -172,-1394 446,-1621 1792,-2722 2791,-4010 -286,-220 -544,-455 -764,-691 -364,468 -867,736 -1551,462 -88,-35 -164,-78 -235,-125 -144,1015 -636,1973 -1143,2856 -354,616 -755,1217 -1050,1864 -370,590 -368,1214 5,1872l1160 368z"/>
  <path class="fil0" d="M5227 42520c-1,-103 2,-207 7,-312 -340,126 -694,165 -1088,41 -971,-304 -1642,-523 -2457,-287 -552,392 -982,1442 -668,2083 202,414 725,578 1112,766 516,250 850,389 1377,26 26,-19 52,-25 77,-34 446,-791 1129,-1535 1532,-2182 29,-47 67,-79 108,-101z"/>
  <path class="fil0" d="M2204 41208c751,19 1326,376 2047,505 1349,240 1846,-1162 2757,-1728 772,-479 1580,-729 2100,-1522 -103,-411 -132,-836 -58,-1263 -553,397 -1050,771 -1800,834 -788,67 -1884,-345 -2660,-520 -350,-79 -607,-224 -798,-413 -1087,1371 -2436,2710 -2720,4476 357,-201 745,-379 1132,-369z"/>
  <path class="fil0" d="M3479 34190c356,-368 717,-732 1086,-1087 573,-552 1204,-1079 1722,-1682 28,-33 60,-56 93,-71 -17,-146 -27,-293 -25,-441 -1319,835 -2677,24 -3482,-1315 -270,568 -760,928 -1241,1340 -510,436 -1256,1200 -888,1936 215,431 516,822 817,1196 627,778 1197,872 1918,124z"/>
  <path class="fil0" d="M1509 38864c79,-47 157,-51 226,-28 534,-760 1164,-1474 1738,-2213 -190,-451 -205,-1012 -173,-1572 -496,298 -956,351 -1383,115 -484,629 -889,1299 -1040,2090 -55,296 -167,641 -142,941 24,277 389,902 774,667z"/>
 </g>
</svg>
