<?xml version="1.0" encoding="UTF-8"?>
<!DOCTYPE svg PUBLIC "-//W3C//DTD SVG 1.1//EN" "http://www.w3.org/Graphics/SVG/1.1/DTD/svg11.dtd">
<!-- Creator: CorelDRAW X7 -->
<svg xmlns="http://www.w3.org/2000/svg" xml:space="preserve" width="3.33143in" height="5.68489in" version="1.1" style="shape-rendering:geometricPrecision; text-rendering:geometricPrecision; image-rendering:optimizeQuality; fill-rule:evenodd; clip-rule:evenodd"
viewBox="0 0 349 596"
 xmlns:xlink="http://www.w3.org/1999/xlink">
 <defs>
  <style type="text/css">
   <![CDATA[
    .fil0 {fill:#6D6E70;fill-rule:nonzero}
   ]]>
  </style>
 </defs>
 <g id="__x0023_Layer_x0020_1">
  <metadata id="CorelCorpID_0Corel-Layer"/>
  <path class="fil0" d="M19 525c-1,-2 -6,-2 -7,-3 -2,-1 -6,-6 -7,-8 -1,-3 -4,-9 -4,-12 -1,-3 -1,-11 0,-15 0,-2 3,-6 5,-7 2,-1 6,0 7,0 2,0 5,1 6,1 4,-1 8,-9 10,-11 4,-4 12,-12 15,-16 5,-5 12,-17 17,-23 2,-3 9,-11 10,-12 0,-1 8,-9 11,-12 5,-4 13,-13 17,-18 3,-4 10,-11 12,-15 3,-4 8,-13 10,-17 2,-5 7,-13 9,-17 3,-6 8,-18 11,-24 2,-4 5,-11 7,-14 2,-4 9,-12 11,-16 4,-6 11,-18 14,-25 4,-5 11,-17 15,-23 3,-5 9,-15 11,-21 2,-5 5,-15 6,-20 1,-6 2,-18 2,-24 0,-6 -2,-16 -2,-22 -1,-5 -1,-16 -2,-21 -1,-6 -5,-15 -6,-21 -2,-4 -3,-14 -5,-18 -1,-4 -3,-12 -5,-16 -1,-4 -3,-11 -4,-15 -1,-3 -9,-13 -6,-15 1,0 7,4 9,6 2,1 5,5 7,7 1,3 4,7 6,9 1,1 2,5 4,4 1,0 0,-4 1,-5 0,-2 1,-7 3,-7 2,0 1,10 1,14 1,3 1,7 2,10 1,3 2,9 3,11 1,2 3,5 3,6 1,2 1,6 2,6 2,0 2,-3 3,-5 1,-5 0,-16 0,-21 -1,-6 -3,-19 -4,-26 -1,-5 -4,-16 -6,-21 -1,-5 -5,-14 -7,-19 -2,-4 -8,-12 -5,-14 2,-1 6,4 8,6 3,3 8,10 10,14 2,3 5,11 7,15 1,3 4,10 5,13 2,5 4,16 5,21 0,4 1,13 1,17 0,4 0,13 0,17 0,3 0,9 0,12 0,3 -1,8 -1,11 -1,2 -2,8 -1,10 0,2 1,5 2,6 3,0 5,-7 6,-9 2,-5 3,-15 3,-20 0,-6 0,-19 0,-26 0,-6 1,-17 2,-23 1,-7 2,-18 3,-28 1,-3 2,-13 5,-13 3,0 2,18 2,24 0,6 0,17 0,23 0,6 2,17 2,22 1,4 0,11 0,15 0,2 -1,8 0,10 1,0 4,0 4,-1 3,-1 5,-4 6,-9 0,-3 1,-5 1,-10 1,-5 0,-15 3,-15 3,-1 3,13 3,17 0,3 0,9 0,12 0,2 -1,8 -1,10 -1,2 -3,7 -4,9 -1,3 -5,8 -6,11 -2,3 -5,11 -6,14 -2,4 -5,13 -7,18 0,2 -2,7 -2,10 -1,2 -1,7 -1,10 0,1 -1,5 0,6 1,2 4,1 6,0 3,0 9,-5 12,-7 4,-3 12,-12 15,-16 3,-3 7,-9 9,-12 2,-3 7,-8 9,-11 2,-2 5,-7 7,-9 2,-2 5,-6 7,-7 1,0 3,-1 3,-1 2,2 -2,7 -3,9 -2,4 -6,13 -8,17 -1,2 -3,8 -5,10 -1,2 -2,4 -3,6 -1,1 -2,4 -1,5 1,1 6,-2 7,-3 4,-3 10,-10 13,-14 3,-4 10,-12 13,-17 2,-4 6,-12 8,-16 1,-3 4,-10 5,-13 0,-2 1,-7 2,-9 0,-3 1,-9 2,-12 0,-1 0,-5 1,-5 3,2 2,18 2,24 0,4 -1,13 -2,17 0,5 -2,14 -3,19 -1,4 -5,11 -7,14 -2,3 -6,10 -8,12 -3,3 -9,9 -12,11 -3,3 -8,6 -11,8 -3,3 -11,7 -14,9 -5,3 -13,8 -18,11 -3,2 -10,6 -14,8 -4,3 -12,10 -16,13 -3,2 -7,7 -9,9 -3,3 -8,10 -11,14 -4,3 -10,10 -14,13 -3,5 -10,13 -13,18 -2,3 -7,9 -9,13 -2,2 -5,7 -7,9 -2,3 -5,9 -7,12 -2,3 -6,10 -8,13 -1,2 -4,7 -5,9 -1,3 -2,8 -3,10 0,2 -1,7 -1,9 0,2 0,7 1,9 2,3 5,7 8,9 3,2 11,4 15,4 4,1 13,3 17,3 6,0 17,-1 23,-2 4,-1 12,-4 15,-6 5,-2 15,-8 19,-12 3,-3 10,-11 13,-14 3,-4 10,-10 13,-13 3,-4 9,-12 12,-16 3,-3 9,-8 12,-11 2,-2 7,-6 10,-7 2,-1 9,-5 11,-3 2,3 -7,7 -9,10 -2,2 -6,8 -8,11 -2,3 -6,11 -8,14 -2,3 -6,9 -8,11 -2,4 -6,12 -9,16 -2,3 -7,10 -10,13 -3,3 -9,9 -13,11 -3,3 -10,7 -13,8 -4,3 -12,7 -17,8 -5,1 -13,2 -17,2 -7,1 -20,2 -27,1 -6,-1 -14,-3 -19,-4 -4,0 -11,-2 -15,-2 -2,0 -7,-1 -10,0 -6,0 -9,2 -12,3 -3,1 -9,5 -12,6 -4,3 -12,8 -16,11 -3,2 -8,5 -10,7 -3,3 -8,10 -10,14 -2,2 -6,8 -8,11 -1,2 -5,6 -7,9 -1,2 -4,6 -4,8 -1,2 -1,5 -1,7 2,5 13,11 17,15 5,4 15,12 20,15 4,3 11,8 15,10 4,2 10,5 13,6 5,1 15,4 20,5 4,1 13,3 17,2 5,0 15,-3 19,-5 2,-1 6,-4 8,-6 2,-2 5,-7 6,-10 2,-1 4,-4 5,-6 3,-1 9,-6 11,-4 2,2 -5,9 -7,12 -1,3 -3,10 -4,13 -2,4 -7,11 -10,14 -3,3 -10,6 -14,7 -4,2 -12,3 -16,3 -5,1 -13,-1 -17,-1 -6,-1 -16,-3 -21,-4 -4,-1 -10,-4 -14,-6 -4,-2 -13,-8 -17,-11 -3,-2 -10,-7 -13,-9 -3,-3 -10,-8 -13,-10 -3,-2 -7,-6 -10,-7 -1,0 -4,0 -6,0 -2,1 -5,3 -6,5 -1,2 -1,8 -1,10 0,5 -1,13 0,17 0,3 1,8 1,10 1,3 3,7 5,9 2,3 7,7 10,8 3,2 9,3 12,4 4,1 12,2 18,2 3,0 8,-2 10,-4 2,-1 4,-2 7,-6 2,-2 3,-6 3,-10 1,-1 0,-5 1,-5 3,-1 5,7 6,11 1,3 0,9 -1,12 -2,3 -5,8 -8,10 -2,2 -8,6 -11,7 -4,2 -14,6 -19,7 -6,1 -20,2 -26,-1 -4,-1 -6,-3 -8,-4 -3,-2 -8,-6 -10,-8 -4,-5 -5,-9 -6,-13 -2,-4 -4,-10 -5,-16 -1,-4 -2,-11 -2,-15 -1,-3 -1,-11 -3,-13z"/>
 </g>
</svg>
