<?xml version="1.0" encoding="UTF-8"?>
<!DOCTYPE svg PUBLIC "-//W3C//DTD SVG 1.1//EN" "http://www.w3.org/Graphics/SVG/1.1/DTD/svg11.dtd">
<!-- Creator: CorelDRAW X7 -->
<svg xmlns="http://www.w3.org/2000/svg" xml:space="preserve" width="3.17918in" height="2.98143in" version="1.1" style="shape-rendering:geometricPrecision; text-rendering:geometricPrecision; image-rendering:optimizeQuality; fill-rule:evenodd; clip-rule:evenodd"
viewBox="0 0 307 288"
 xmlns:xlink="http://www.w3.org/1999/xlink">
 <defs>
  <style type="text/css">
   <![CDATA[
    .fil0 {fill:#6D6E70;fill-rule:nonzero}
   ]]>
  </style>
 </defs>
 <g id="__x0023_Layer_x0020_1">
  <metadata id="CorelCorpID_0Corel-Layer"/>
  <path class="fil0" d="M165 1c-4,6 -9,12 -13,18 -2,4 -3,8 -4,11 -2,4 -4,4 -6,7 -2,6 -4,12 -5,19 -2,-1 -3,-1 -5,-2 -1,0 -2,1 -2,2 0,11 0,22 1,33l-2 0c-1,0 -2,1 -1,2 1,27 20,45 46,50 0,25 13,47 32,63 -12,-4 -23,-7 -35,-9 -11,-2 -24,-4 -35,-1 0,0 0,0 0,0 -7,-23 -27,-49 -54,-42 -1,0 -2,1 -1,2 0,1 1,3 2,5 -9,-3 -20,-5 -26,2 -1,0 -1,1 -1,2 1,1 2,2 3,3 -12,-2 -26,-1 -32,10 -1,1 -1,2 0,3 -8,7 -16,12 -26,17 -2,0 -1,2 0,3 11,4 21,9 32,14 -1,0 -1,0 -2,1 -1,0 0,2 0,2 10,5 20,10 30,12 0,0 0,0 0,0 0,1 0,2 1,2 10,3 19,1 29,1 0,0 0,1 0,1 0,1 0,2 1,2 10,-1 17,-4 25,-10 10,-7 13,-17 20,-27 11,-3 23,0 34,2 16,2 32,7 47,13 6,3 12,5 17,8 -8,2 -15,7 -21,12 -7,-10 -24,-15 -35,-17 -7,0 -25,-2 -22,9 -5,2 -9,3 -12,7 -1,1 -1,2 -1,3 1,0 1,0 1,1 -9,5 -15,13 -21,22 -1,1 -1,2 0,3 1,0 2,1 3,1 -4,6 -9,12 -12,18 -1,1 0,2 1,2 11,2 21,5 32,4 0,0 0,1 0,1 -1,1 0,2 1,2 6,0 12,0 18,-2 2,-1 4,-2 6,-2 3,-1 9,-5 10,-3 0,1 1,1 2,1 17,-2 38,-29 30,-46 7,-7 15,-12 25,-14 22,12 42,26 64,37 2,1 4,-2 2,-3 -22,-11 -43,-25 -65,-36 0,-1 0,-1 -1,-1 -8,-4 -15,-8 -23,-11 -22,-15 -40,-40 -40,-67 0,-1 0,-1 0,-1 21,-14 45,-49 34,-75 0,-1 -2,-2 -2,-1 -1,0 -1,1 -2,1 1,-12 -4,-27 -14,-34 -1,-1 -2,-1 -3,0l0 1c-2,-5 -4,-10 -7,-14 -2,-2 -3,-3 -5,-4 -5,-3 -7,-8 -10,-13 0,-1 -2,-1 -3,0zm-46 217l0 0c-7,7 -16,11 -25,12 0,0 0,0 0,0 0,-1 -1,-2 -1,-2 -10,0 -19,1 -28,0 0,-1 0,-1 0,-1 1,-1 0,-2 -1,-2 -10,-2 -19,-6 -28,-10 0,-1 1,-1 1,-1 2,-1 1,-3 0,-3 -10,-5 -20,-9 -30,-13 22,0 42,-9 63,-10 10,0 20,1 29,2 11,1 23,3 33,8 0,0 0,0 1,0 -5,7 -8,14 -14,20zm13 -24l0 0c-17,-8 -38,-9 -57,-9 -22,-1 -42,8 -64,9 7,-4 14,-8 20,-14 1,-1 1,-2 0,-2 0,-1 0,-1 -1,-1 7,-10 22,-9 33,-7 2,0 4,-2 2,-3 -2,-2 -3,-3 -5,-5 7,-5 18,-1 26,1 1,0 3,-1 2,-2 0,-1 -4,-6 -3,-7 2,0 5,0 8,0 7,1 13,4 18,7 10,7 17,21 21,33zm74 69l0 0c-3,4 -6,8 -10,11 -2,1 -4,3 -7,4 -3,1 -3,2 -3,0 0,-1 -1,-2 -2,-1 -11,3 -21,8 -33,7 0,0 0,0 0,-1 0,-1 -1,-2 -2,-2 -9,2 -18,0 -27,-2 18,-6 38,-6 56,-13 8,-3 16,-9 21,-15 3,-3 9,-13 13,-13 3,8 -1,18 -6,25zm5 -28l0 0c-3,1 -6,5 -8,7 -7,7 -13,14 -21,19 -10,6 -23,7 -34,9 -9,1 -18,3 -27,6 3,-5 6,-10 10,-15 0,0 0,-1 -1,-2 -1,0 -2,-1 -2,-1 5,-9 11,-17 21,-21 1,-1 1,-2 0,-3 0,-1 0,-1 -1,-1 3,-3 7,-5 12,-6 1,-1 1,-2 1,-3 -5,-9 19,-5 24,-4 8,2 22,7 26,15zm-80 -142l0 0c1,0 1,0 2,0 1,0 2,-1 2,-2 -2,-11 -2,-22 -1,-33 1,1 2,1 3,1 1,1 2,0 3,-1 1,-6 3,-13 6,-20 1,-2 3,-3 4,-6 2,-3 3,-7 5,-10 2,-6 6,-11 10,-16 0,11 -4,21 -5,31 -3,11 -3,22 -2,33 1,13 3,25 5,37 1,11 7,20 9,31 -22,-6 -39,-22 -41,-45zm57 -57l0 0c1,1 2,1 3,0l1 -1c9,7 13,22 11,33 0,2 2,3 3,2 1,-1 2,-1 3,-2 4,13 -1,28 -8,39 -3,7 -8,13 -13,18 -2,2 -6,5 -9,8 0,0 -1,0 -1,0 -1,1 -2,2 -3,2 -2,-9 -7,-17 -9,-26 -2,-12 -3,-24 -4,-36 -2,-13 -1,-27 2,-40 2,-8 4,-15 5,-23 1,3 3,6 5,6 8,2 11,13 14,20z"/>
 </g>
</svg>
