<?xml version="1.0" encoding="UTF-8"?>
<!DOCTYPE svg PUBLIC "-//W3C//DTD SVG 1.1//EN" "http://www.w3.org/Graphics/SVG/1.1/DTD/svg11.dtd">
<!-- Creator: CorelDRAW X7 -->
<svg xmlns="http://www.w3.org/2000/svg" xml:space="preserve" width="3.33143in" height="5.68489in" version="1.1" style="shape-rendering:geometricPrecision; text-rendering:geometricPrecision; image-rendering:optimizeQuality; fill-rule:evenodd; clip-rule:evenodd"
viewBox="0 0 296 505"
 xmlns:xlink="http://www.w3.org/1999/xlink">
 <defs>
  <style type="text/css">
   <![CDATA[
    .fil0 {fill:#6D6E70;fill-rule:nonzero}
   ]]>
  </style>
 </defs>
 <g id="__x0023_Layer_x0020_1">
  <metadata id="CorelCorpID_0Corel-Layer"/>
  <path class="fil0" d="M280 445c1,-1 5,-1 6,-2 2,-2 5,-5 6,-7 1,-2 3,-7 4,-10 0,-3 1,-10 0,-13 -1,-2 -3,-5 -5,-6 -2,-1 -5,0 -6,0 -2,0 -4,1 -5,1 -3,-1 -6,-7 -9,-10 -3,-3 -9,-9 -12,-13 -4,-4 -11,-14 -14,-19 -2,-3 -8,-10 -9,-11 0,-1 -7,-7 -10,-9 -3,-4 -11,-12 -14,-16 -3,-3 -8,-9 -10,-13 -3,-3 -6,-11 -8,-14 -2,-4 -6,-11 -8,-15 -3,-5 -7,-15 -10,-20 -1,-3 -4,-9 -5,-12 -2,-4 -8,-10 -10,-13 -3,-5 -9,-16 -12,-21 -3,-5 -9,-15 -12,-20 -3,-4 -8,-13 -10,-18 -2,-4 -4,-13 -5,-17 -1,-5 -1,-16 -1,-21 0,-4 1,-13 1,-18 1,-4 1,-13 2,-18 0,-4 4,-13 5,-17 1,-4 3,-12 4,-16 1,-3 3,-10 4,-13 1,-3 3,-10 4,-13 1,-3 8,-11 5,-13 -1,0 -6,4 -8,5 -1,2 -4,5 -5,7 -2,1 -4,5 -6,7 0,1 -2,4 -3,4 -1,-1 0,-4 -1,-5 0,-2 -1,-6 -2,-6 -2,0 -1,9 -2,12 0,2 0,6 -1,8 -1,3 -2,8 -3,10 0,1 -2,4 -2,5 -1,1 -1,5 -2,5 -1,0 -2,-3 -2,-4 -1,-4 0,-14 0,-18 0,-6 2,-16 3,-22 1,-5 3,-14 5,-18 1,-4 5,-12 6,-16 1,-3 7,-10 5,-12 -2,-1 -6,4 -7,5 -3,3 -7,9 -9,12 -2,3 -4,9 -6,12 -1,3 -3,9 -4,12 -2,4 -3,13 -4,18 -1,3 -1,11 -1,14 -1,4 0,11 0,14 0,3 -1,8 0,10 0,3 1,7 1,10 0,2 1,6 1,9 0,1 -1,4 -2,4 -3,0 -4,-5 -5,-7 -2,-4 -2,-13 -3,-17 0,-5 0,-16 0,-22 0,-5 -1,-15 -2,-20 0,-6 -1,-15 -2,-23 -1,-3 -1,-11 -4,-11 -3,0 -2,15 -2,20 0,5 0,15 0,19 0,5 -2,14 -2,19 0,3 0,9 0,13 0,2 1,7 0,8 -1,1 -3,0 -4,0 -2,-2 -3,-4 -4,-8 0,-3 -1,-5 -1,-9 -1,-4 0,-12 -3,-13 -2,0 -2,11 -2,15 -1,3 0,8 0,10 0,2 0,7 1,9 0,2 2,5 3,7 1,3 4,7 5,10 2,3 4,9 5,12 2,3 5,11 6,14 1,3 2,7 2,9 1,2 0,6 1,9 0,1 1,4 0,5 -1,1 -4,1 -5,0 -3,-1 -8,-4 -10,-6 -4,-3 -10,-10 -13,-14 -3,-2 -6,-8 -8,-10 -2,-2 -6,-7 -7,-9 -2,-2 -5,-6 -7,-8 -1,-2 -3,-5 -5,-6 -1,0 -3,-1 -3,0 -1,1 2,5 3,7 1,4 4,11 6,14 1,2 3,7 5,9 0,1 2,4 2,5 1,1 2,3 1,4 -1,1 -5,-1 -6,-2 -3,-2 -8,-9 -11,-12 -3,-3 -8,-10 -11,-14 -2,-4 -5,-11 -7,-15 -1,-2 -3,-7 -4,-10 0,-2 -1,-6 -1,-8 -1,-2 -1,-8 -2,-10 0,-1 -1,-5 -1,-4 -3,2 -2,15 -2,20 0,4 1,11 2,15 0,4 1,12 2,15 1,4 4,10 6,13 2,2 5,8 7,10 2,2 8,7 10,9 3,2 7,5 10,7 2,2 9,6 11,8 4,2 11,6 15,8 3,2 9,6 12,8 4,2 11,8 14,11 2,2 6,5 8,7 2,3 7,9 9,12 3,3 9,8 12,12 3,3 8,11 11,14 2,3 6,8 8,11 1,2 4,6 5,8 2,3 5,8 7,10 1,3 5,8 7,11 1,2 2,6 3,8 1,2 2,6 3,9 0,1 1,5 1,7 0,2 0,6 -1,7 -1,3 -4,7 -6,8 -3,2 -10,3 -13,4 -4,1 -11,2 -15,2 -5,0 -15,0 -19,-1 -4,-1 -10,-4 -13,-5 -5,-3 -12,-8 -16,-11 -3,-2 -8,-9 -11,-12 -3,-3 -8,-8 -11,-11 -3,-3 -8,-10 -11,-13 -2,-3 -7,-7 -10,-10 -2,-1 -5,-4 -8,-6 -2,-1 -8,-4 -9,-2 -2,2 6,6 8,8 1,3 5,7 6,9 2,3 5,10 7,13 2,2 5,7 7,9 2,3 5,10 7,13 2,3 6,9 9,12 2,2 8,7 11,9 2,2 8,6 11,7 3,2 10,6 14,6 5,1 11,2 15,2 5,1 17,2 22,1 6,-1 13,-3 17,-3 3,-1 9,-2 12,-2 2,0 6,-1 8,0 6,0 9,2 11,2 3,2 7,4 10,6 4,2 10,7 14,9 2,1 6,4 8,6 3,2 7,8 9,11 1,3 4,8 6,10 2,2 5,6 7,8 1,1 2,5 3,6 0,2 1,5 0,6 -1,5 -10,10 -14,13 -4,4 -12,10 -17,13 -3,2 -9,6 -13,8 -2,2 -8,4 -11,5 -4,2 -12,4 -16,5 -4,1 -11,2 -15,2 -4,-1 -12,-3 -16,-5 -2,-1 -5,-3 -7,-5 -1,-2 -4,-6 -5,-8 -1,-2 -3,-4 -4,-5 -2,-2 -7,-6 -9,-4 -2,2 4,8 5,10 1,3 3,9 4,11 2,4 6,10 8,12 3,2 9,5 12,6 4,1 11,3 14,3 4,0 11,-1 15,-1 4,-1 13,-3 17,-4 3,-1 9,-3 12,-4 4,-2 11,-7 14,-10 3,-2 9,-6 11,-8 3,-2 9,-6 12,-8 2,-2 6,-5 8,-6 1,0 4,0 5,0 1,1 4,3 5,4 1,2 1,7 1,9 0,4 0,11 0,14 0,2 -1,7 -1,9 -1,2 -3,6 -4,7 -2,3 -6,6 -9,7 -2,1 -7,3 -10,3 -3,1 -10,2 -15,2 -3,0 -7,-2 -9,-3 -1,-1 -3,-2 -5,-5 -2,-2 -3,-6 -3,-9 0,-1 0,-4 -1,-4 -2,-1 -4,6 -5,9 0,2 0,8 1,10 1,3 4,7 6,9 2,2 7,5 10,6 4,2 12,5 16,5 5,1 17,2 22,0 3,-1 5,-2 7,-4 2,-1 7,-4 8,-6 3,-4 5,-8 6,-11 1,-4 3,-9 4,-14 0,-3 1,-10 2,-13 0,-2 0,-9 2,-11z"/>
 </g>
</svg>
