<?xml version="1.0" encoding="UTF-8"?>
<!DOCTYPE svg PUBLIC "-//W3C//DTD SVG 1.1//EN" "http://www.w3.org/Graphics/SVG/1.1/DTD/svg11.dtd">
<!-- Creator: CorelDRAW X7 -->
<svg xmlns="http://www.w3.org/2000/svg" xml:space="preserve" width="3.24769in" height="5.64487in" version="1.1" style="shape-rendering:geometricPrecision; text-rendering:geometricPrecision; image-rendering:optimizeQuality; fill-rule:evenodd; clip-rule:evenodd"
viewBox="0 0 627 1091"
 xmlns:xlink="http://www.w3.org/1999/xlink">
 <defs>
  <style type="text/css">
   <![CDATA[
    .fil0 {fill:#6D6E70;fill-rule:nonzero}
   ]]>
  </style>
 </defs>
 <g id="__x0023_Layer_x0020_1">
  <metadata id="CorelCorpID_0Corel-Layer"/>
  <path class="fil0" d="M627 882c-2,-7 -6,-23 -12,-27 -5,-2 -16,0 -21,0 -6,0 -19,3 -24,0 -14,-5 -33,-28 -44,-39 -11,-10 -33,-32 -43,-45 -14,-18 -39,-60 -53,-79 -12,-17 -38,-49 -51,-65 -16,-19 -51,-55 -65,-75 -8,-12 -22,-38 -28,-51 -7,-14 -19,-43 -24,-58 -6,-17 -14,-52 -18,-70 -3,-14 -9,-43 -12,-58 -3,-16 -9,-48 -9,-64 0,-11 6,-34 8,-46 2,-16 8,-47 8,-63 1,-14 5,-59 -3,-59 -17,0 -20,46 -23,62 -1,9 -2,30 -5,39 -2,5 -4,15 -10,15 -8,1 -10,-9 -12,-13 -4,-11 -1,-35 0,-46 2,-19 13,-55 18,-73 3,-13 10,-37 13,-49 1,-4 6,-15 2,-17 -8,-5 -23,17 -28,25 -9,13 -19,44 -23,59 -4,15 -8,46 -9,61 -2,17 2,51 0,67 -2,12 -8,36 -13,47 -4,6 -13,20 -19,23 -6,4 -21,5 -27,4 -10,-2 -27,-13 -35,-19 -7,-6 -21,-13 -25,-22 -4,-11 -3,-41 -2,-54 1,-12 4,-35 6,-47 1,-10 6,-30 5,-41 -1,-8 -3,-31 -11,-30 -11,0 -6,33 -10,43 -3,13 -13,36 -16,48 -4,15 -13,47 -12,63 0,8 6,25 10,33 5,11 17,33 26,42 9,10 34,22 45,31 10,9 28,29 36,39 12,15 33,45 42,61 7,12 18,38 25,51 6,11 22,33 28,45 8,13 21,42 29,55 4,8 15,22 17,30 2,5 4,17 0,21 -4,5 -20,4 -27,4 -11,-1 -33,-8 -44,-13 -11,-5 -33,-17 -41,-26 -9,-11 -17,-38 -23,-50 -6,-13 -16,-39 -23,-51 -5,-8 -16,-23 -23,-28 -7,-5 -26,-19 -31,-12 -4,6 27,32 33,45 6,11 11,35 15,47 4,15 13,46 19,61 3,8 8,27 14,34 7,10 28,25 39,31 9,5 30,10 40,13 18,4 54,9 71,14 12,3 35,12 45,18 13,7 35,25 45,35 8,9 21,28 26,38 4,8 11,23 11,31 0,6 -5,18 -9,23 -8,7 -29,14 -40,17 -13,5 -42,14 -56,15 -15,0 -43,-5 -57,-8 -11,-2 -31,-8 -41,-11 -8,-4 -21,-9 -30,-11 -8,-2 -20,-3 -32,-2 -6,0 -18,6 -18,11 0,4 12,4 15,5 8,2 20,2 29,5 10,4 27,19 34,27 6,6 18,16 26,20 12,6 38,10 52,10 16,0 48,-2 63,-5 17,-4 46,-13 63,-16 12,-2 41,-8 53,-7 8,1 25,8 32,13 6,5 13,17 14,25 2,9 -3,26 -4,35 -2,6 -5,19 -8,25 -3,7 -14,21 -21,26 -5,4 -18,12 -25,12 -5,-1 -13,-9 -16,-13 -5,-6 -10,-20 -15,-25 -4,-7 -13,-19 -20,-24 -5,-4 -19,-16 -23,-11 -5,6 12,19 15,25 6,12 17,36 23,48 3,8 7,26 13,33 5,7 18,19 27,21 10,2 33,-4 42,-9 11,-7 25,-28 32,-37 7,-8 19,-26 25,-35 4,-5 9,-18 15,-20 5,-1 16,4 21,7 3,3 5,15 9,16 6,0 14,-11 16,-16 3,-7 -2,-24 0,-32 1,-6 11,-16 13,-22 3,-9 5,-27 6,-36 0,-6 1,-18 0,-24z"/>
 </g>
</svg>
