<?xml version="1.0" encoding="UTF-8"?>
<!DOCTYPE svg PUBLIC "-//W3C//DTD SVG 1.1//EN" "http://www.w3.org/Graphics/SVG/1.1/DTD/svg11.dtd">
<!-- Creator: CorelDRAW X7 -->
<svg xmlns="http://www.w3.org/2000/svg" xml:space="preserve" width="3.38251in" height="5.20626in" version="1.1" style="shape-rendering:geometricPrecision; text-rendering:geometricPrecision; image-rendering:optimizeQuality; fill-rule:evenodd; clip-rule:evenodd"
viewBox="0 0 601 925"
 xmlns:xlink="http://www.w3.org/1999/xlink">
 <defs>
  <style type="text/css">
   <![CDATA[
    .fil0 {fill:#6D6E70;fill-rule:nonzero}
   ]]>
  </style>
 </defs>
 <g id="__x0023_Layer_x0020_1">
  <metadata id="CorelCorpID_0Corel-Layer"/>
  <path class="fil0" d="M574 667c0,0 7,-5 8,-7 2,-4 6,-7 7,-11 2,-5 -1,-12 -1,-17 0,-6 1,-10 3,-15 3,-9 13,-10 9,-21 -2,-4 -3,-5 -2,-10 1,-4 3,-7 1,-11 -2,-4 -4,-5 -5,-9 0,-3 1,-7 -1,-10 -9,7 -16,7 -27,10 -9,2 -22,7 -31,7 -12,1 -23,3 -35,3 -10,1 -12,0 -29,0 -10,1 -21,1 -30,0 -12,-1 -15,-3 -26,-8 -6,-3 -21,-15 -25,-20 -4,-6 -10,-9 -14,-14 -4,-5 -8,-10 -12,-16 -2,-2 -8,-10 -10,-14 -6,-10 -13,-28 -18,-43 -22,-65 -24,-137 -24,-208 0,-44 0,-92 9,-135 4,-20 10,-39 14,-59 3,-14 18,-53 11,-57 -25,-15 -54,76 -60,94 -4,11 -14,55 -34,36 -9,-9 -6,-46 -6,-59 0,-11 3,-24 -12,-20 -9,2 -15,15 -21,23 -12,17 -20,31 -20,54 0,20 1,43 -5,61 -3,10 -10,19 -20,10 -5,-5 -3,-22 -12,-20 -12,3 -14,48 -14,57 -1,21 11,43 6,63 -3,11 -13,11 -13,23 0,10 7,18 9,27 4,21 -1,43 -2,62 -2,23 -3,43 -28,52 -13,4 -51,-2 -55,11 -3,9 21,21 29,26 9,6 23,13 32,20 20,13 40,34 48,58 6,19 6,37 -14,51 -18,13 -32,19 -52,26 -10,3 -23,12 -32,17 -9,5 -19,10 -28,14 -9,4 -16,10 -24,15 -5,3 -21,12 -18,18 4,7 24,-3 32,-5 12,-2 26,-5 37,-10 25,-12 52,-20 80,-28 27,-6 54,-12 83,-11 11,1 25,2 36,4 11,3 20,5 29,13 4,3 9,7 11,11 1,3 -1,13 -2,16 -1,4 -1,7 -3,11 -5,10 -7,13 -15,27 -6,13 -14,26 -21,38 -7,11 -11,24 -16,37 -8,21 -23,40 -33,61 -3,7 -5,15 -6,23 0,2 -2,9 0,11 4,4 8,-4 9,-6 6,-9 15,-13 24,-17 6,-3 19,-6 26,-2 8,4 34,47 40,24 5,-18 1,-38 5,-57 2,-12 7,-22 16,-31 10,-10 22,-17 32,-27 4,-3 8,-8 14,-8 4,-1 9,3 12,5 6,4 10,8 15,13 4,4 8,8 13,12 9,6 18,8 28,11 10,3 22,5 33,3 3,0 7,-1 7,-5 0,-3 -4,-7 -6,-10 -6,-8 -9,-18 -13,-28 -4,-9 -10,-18 -10,-28 -1,-10 -1,-22 0,-32 4,-18 6,-37 17,-52 6,-9 14,-17 22,-24 12,-11 28,-13 44,-13 15,0 34,20 34,20z"/>
 </g>
</svg>
