<?xml version="1.0" encoding="UTF-8"?>
<!DOCTYPE svg PUBLIC "-//W3C//DTD SVG 1.1//EN" "http://www.w3.org/Graphics/SVG/1.1/DTD/svg11.dtd">
<!-- Creator: CorelDRAW X7 -->
<svg xmlns="http://www.w3.org/2000/svg" xml:space="preserve" width="2.97154in" height="3.86231in" version="1.1" style="shape-rendering:geometricPrecision; text-rendering:geometricPrecision; image-rendering:optimizeQuality; fill-rule:evenodd; clip-rule:evenodd"
viewBox="0 0 438 569"
 xmlns:xlink="http://www.w3.org/1999/xlink">
 <defs>
  <style type="text/css">
   <![CDATA[
    .fil0 {fill:#6D6E70;fill-rule:nonzero}
   ]]>
  </style>
 </defs>
 <g id="__x0023_Layer_x0020_1">
  <metadata id="CorelCorpID_0Corel-Layer"/>
  <path class="fil0" d="M394 293c-3,-1 -4,-2 -6,-4 0,-1 0,-2 -2,-3 -1,-1 -3,0 -5,-1 -1,-1 -1,-2 -2,-3 -1,-1 -2,-2 -3,-3 -1,-2 -3,-4 -4,-6 -2,-2 -3,-5 -5,-6 -2,-1 -6,-1 -7,-2 -1,-1 -1,-7 0,-8 0,-3 4,-5 5,-8 0,0 0,-2 0,-3 1,-2 2,-3 2,-4 1,-3 1,-5 3,-8 1,-1 2,-2 3,-3 0,-2 0,-2 0,-3 0,-2 0,-2 2,-3 1,0 3,0 4,0 4,0 20,6 20,6 0,0 -3,-4 -4,-6 -2,-3 -4,-4 -7,-6 -4,-2 -10,-2 -15,-1 -1,0 -2,1 -3,1 -2,0 -2,-2 -4,-1 -3,0 -4,4 -4,6 -1,3 -2,5 -3,8 0,2 0,3 -1,5 -1,1 -3,2 -4,4 0,1 -3,9 -5,11 -2,2 -7,5 -11,7 -7,4 -15,8 -23,9 -7,2 -21,3 -25,-4 -5,-7 4,-19 7,-26 3,-9 9,-16 11,-25 4,-21 15,-42 17,-64 1,-7 0,-15 6,-21 6,-6 15,-10 23,-11 2,0 4,1 6,2 7,2 14,6 20,10 7,4 15,7 22,11 6,4 13,7 20,10 5,3 11,6 16,5 -10,-11 -19,-22 -29,-32 -5,-6 -8,-9 -13,-14 -2,-1 -6,-5 -8,-6 -2,-2 -7,-5 -8,-7 -2,-3 0,-7 -1,-11 -1,-14 -4,-27 -12,-39 -4,-6 -8,-13 -12,-18 -5,-6 -13,-14 -18,-18 -5,-3 -14,-7 -22,-9 -9,-2 -18,-1 -27,-1 -20,1 -34,22 -45,36 -5,6 -9,19 -17,21 -4,1 -8,0 -11,0 -5,2 -10,4 -14,5 -19,6 -33,17 -47,32 -15,16 -29,40 -38,54 -5,8 -15,23 -19,34 -4,11 -6,21 -8,32 -4,20 -14,39 -21,57 -8,18 -14,37 -13,57 1,12 -8,23 -13,33 -4,10 -9,20 -12,30 -3,12 -10,27 -10,27 0,0 13,-5 27,-14 10,-7 20,-17 25,-20 9,-5 -2,26 -5,35 -4,10 -9,20 -13,30 -8,17 -10,37 -20,53 -9,17 -25,30 -34,48 5,-2 8,-1 12,-4 4,-4 7,-7 11,-10 5,-2 10,-4 14,-7 1,-1 2,-2 3,-3 -3,5 -5,11 -8,16 -5,8 -10,19 -14,27 2,-1 4,-2 5,-3 1,0 2,-2 2,-2 2,0 2,2 3,2 6,-1 8,-6 12,-11 7,-7 13,-14 18,-23 2,-3 3,-9 6,-11 3,-3 7,-4 10,-7 9,-10 13,-28 15,-42 1,-15 11,-28 13,-44 3,-14 15,-26 23,-32 9,-6 30,-17 39,-23 7,-5 14,-12 22,-15 9,-3 17,-5 25,-9 10,-4 19,-8 28,-15 9,-6 16,-15 25,-22 7,-7 14,-9 24,-13 9,-4 14,-10 21,-17 3,-3 7,-5 11,-6 3,-2 8,-4 10,-4 2,0 4,1 5,1 0,5 0,13 3,18 4,6 11,5 16,2 -2,0 -5,-2 -7,-3 -3,-2 -4,-3 -3,-6 1,-3 3,-4 4,-7 0,-2 0,-3 3,-4 4,0 4,1 7,4 2,2 5,2 8,4 3,3 8,11 12,11 3,-2 12,6 15,7 5,3 12,0 16,-3 -4,0 -10,-1 -15,-3zm-53 -204l0 0c-4,-1 -6,-2 -8,-6 -2,-3 -2,-6 0,-10 1,-2 -1,-9 -1,-9 0,0 2,2 4,2 1,1 2,1 4,1 3,0 6,1 9,4 3,2 5,4 6,7 0,3 -2,5 -4,7 -1,2 -3,4 -3,6 -1,-2 -5,-1 -7,-2z"/>
 </g>
</svg>
