<?xml version="1.0" encoding="UTF-8"?>
<!DOCTYPE svg PUBLIC "-//W3C//DTD SVG 1.1//EN" "http://www.w3.org/Graphics/SVG/1.1/DTD/svg11.dtd">
<!-- Creator: CorelDRAW X7 -->
<svg xmlns="http://www.w3.org/2000/svg" xml:space="preserve" width="9.13906in" height="6.21503in" version="1.1" style="shape-rendering:geometricPrecision; text-rendering:geometricPrecision; image-rendering:optimizeQuality; fill-rule:evenodd; clip-rule:evenodd"
viewBox="0 0 2347 1596"
 xmlns:xlink="http://www.w3.org/1999/xlink">
 <defs>
  <style type="text/css">
   <![CDATA[
    .fil0 {fill:#6D6E70;fill-rule:nonzero}
   ]]>
  </style>
 </defs>
 <g id="__x0023_Layer_x0020_1">
  <metadata id="CorelCorpID_0Corel-Layer"/>
  <path class="fil0" d="M1968 712c0,0 -1,0 -2,0 1,0 2,0 2,0z"/>
  <path class="fil0" d="M2324 475c-9,-5 -17,-10 -25,-16 -8,-7 -15,-14 -24,-19 -11,-6 -21,-11 -32,-16 -16,-8 -34,-16 -51,-21 -8,-2 -13,-1 -22,-3 -8,-2 -19,-5 -28,-7 18,-3 34,-11 52,-13 17,-2 35,-6 52,-9 18,-4 35,-7 53,-10 9,-1 19,-6 28,-10 -12,-7 -26,-14 -39,-22 -12,-7 -25,-10 -38,-13 -11,-3 -21,-7 -31,-9 -17,-4 -35,-6 -52,-7 -7,-1 -14,-1 -21,-2 -5,-1 -18,-9 -18,-9 0,0 6,-1 9,-1 27,1 54,-1 81,-5 21,-3 43,-6 63,-10 13,-2 25,-6 38,-10 7,-2 16,-3 23,-7 -12,-6 -23,-11 -35,-16 -15,-7 -31,-14 -47,-17 -10,-2 -20,-3 -29,-4 -24,-3 -47,-5 -71,-4 -21,1 -43,3 -64,1 -9,0 -28,0 -35,-7 13,-6 26,-12 39,-17 12,-4 25,-5 38,-8 15,-3 30,-7 44,-12 17,-6 35,-11 52,-17 7,-2 14,-5 20,-8 5,-2 24,-20 24,-20 0,0 -24,-8 -36,-10 -11,-2 -22,-4 -33,-5 -35,-1 -70,6 -104,14 -20,4 -41,8 -61,14 -12,3 -24,4 -37,4 7,-7 19,-11 28,-15 28,-12 58,-18 85,-35 14,-8 29,-15 42,-26 6,-5 15,-15 16,-24 -5,-2 -13,-3 -19,-4 -9,0 -18,-2 -28,-2 -11,0 -23,2 -34,3 -16,3 -30,8 -46,13 -13,4 -25,9 -38,13 -8,3 -20,10 -26,14 -8,4 -25,13 -32,17 -10,8 -27,15 -38,22 -9,7 -27,17 -39,14 2,-2 5,-3 7,-5 15,-8 27,-20 40,-30 8,-7 18,-14 25,-22 9,-11 14,-13 18,-18 11,-12 17,-20 24,-34 4,-8 10,-16 8,-25 -17,2 -32,12 -48,19 -9,4 -19,9 -27,15 -7,5 -17,13 -24,17 -9,7 -21,16 -28,21 -13,11 -17,15 -27,26 -10,11 -23,21 -35,30 -14,10 -26,23 -38,36 -18,18 -40,29 -58,47 -14,13 -26,25 -41,36 -8,6 -16,11 -24,18 -3,3 -9,11 -14,10 -1,-12 -5,-27 -5,-39 -8,2 -21,18 -30,24 -15,11 -27,25 -41,36 -18,15 -32,34 -49,49 -16,15 -32,32 -47,48 -20,21 -38,43 -55,66 -8,9 -16,15 -25,23 -9,9 -16,19 -24,29 -18,20 -38,36 -55,58 -7,9 -16,16 -23,24 -6,6 -10,14 -16,19 -5,4 -23,10 -29,12 -6,1 -14,1 -21,1 -15,-1 -26,-4 -38,-13 -26,-19 -54,-35 -85,-42 -20,-5 -36,1 -55,0 -16,0 -28,-9 -46,-9 -18,1 -36,5 -51,12 -10,5 -25,19 -34,24 -12,6 -32,-22 -39,-32 -11,-16 -26,-40 -36,-52 -9,-10 -26,-25 -37,-39 -13,-17 -30,-31 -43,-47 -15,-18 -31,-35 -46,-52 -6,-6 -15,-17 -23,-19 -7,-1 -5,4 -7,8 -8,0 -15,-14 -20,-19 -10,-10 -18,-21 -27,-32 -14,-16 -28,-30 -43,-45 -6,-6 -13,-18 -21,-21 0,10 6,19 9,28 3,9 10,25 6,35 -9,-2 -18,-17 -23,-23 -10,-9 -41,-29 -43,-31 -7,-12 -14,-13 -23,-23 -17,-17 -20,-21 -38,-36 -11,-8 -29,-24 -39,-34 -10,-10 -21,-21 -36,-37 -10,-12 -25,-27 -38,-34 -11,-6 -18,-16 -28,-23 -14,-11 -32,-24 -51,-23 4,20 10,38 24,53 11,11 22,22 34,33 6,5 13,10 19,14 3,3 11,6 11,10 -7,2 -18,-5 -25,-8 -14,-6 -29,-11 -43,-19 -12,-6 -22,-15 -34,-20 -12,-6 -23,-11 -36,-14 -22,-5 -45,-9 -68,-12 -10,-1 -19,-2 -29,-2 -4,0 -15,0 -18,5 -6,8 12,19 17,22 8,7 18,10 26,16 10,6 20,11 31,15 14,6 28,9 41,14 5,2 10,5 14,8 5,2 14,9 17,13 -14,-5 -29,-12 -44,-15 -24,-4 -48,-4 -71,-5 -16,-1 -32,-1 -48,0 -11,1 -24,2 -35,6 -8,3 -17,9 -17,17 0,16 23,23 35,28 21,9 43,12 65,16 15,4 29,9 45,11 11,2 22,4 33,7 -5,6 -19,8 -26,8 -15,0 -29,0 -44,0 -20,0 -39,1 -58,8 -16,5 -34,6 -50,13 -8,3 -19,8 -24,15 -7,8 17,22 24,25 21,11 49,10 72,11 19,1 32,-1 51,-1 4,0 31,7 31,7 0,0 -20,6 -28,8 -8,3 -17,6 -25,8 -18,4 -37,7 -55,12 -7,2 -15,4 -22,6 -7,3 -14,4 -21,7 -9,6 -22,13 -28,22 -14,25 46,36 61,37 15,2 30,2 46,2 12,1 23,2 35,2 7,0 13,1 20,1 -9,7 -18,14 -28,20 -14,8 -30,12 -46,18 -9,3 -18,9 -28,13 -8,4 -22,11 -30,15 -6,3 -21,8 -23,14 -5,13 10,25 20,29 24,11 47,16 74,18 7,0 16,-1 23,2 1,4 -7,10 -10,13 -5,5 -10,9 -15,13 -9,6 -17,14 -9,24 5,6 14,10 20,15 6,3 11,6 17,8 13,5 27,7 41,7 4,0 9,0 13,0 1,8 -6,16 -7,24 0,7 3,13 7,19 5,6 9,13 15,18 12,11 29,11 44,12 11,1 22,3 34,2 1,3 0,7 1,11 1,4 3,8 5,12 6,11 11,19 23,23 19,7 69,5 69,5 0,0 4,14 6,18 4,6 10,12 16,16 9,7 23,9 34,9 4,0 9,-1 12,0 5,2 8,8 11,11 6,7 12,13 21,13 2,5 1,11 2,16 1,6 4,12 6,17 6,10 13,16 24,20 6,1 9,0 9,7 0,6 0,11 1,17 2,7 7,13 13,18 2,2 4,4 7,5 1,1 6,1 7,2 2,2 1,11 2,14 1,5 1,10 4,15 3,7 19,19 28,19 -2,17 19,33 34,34 4,11 4,25 10,36 5,10 18,10 29,10 4,0 10,-1 15,-1 3,0 2,0 3,2 2,3 2,6 4,8 3,8 10,16 18,19 7,3 19,3 27,2 6,-1 20,-11 25,-10 6,1 14,25 26,32 13,7 32,6 45,-1 3,-2 4,-3 6,-2 3,2 5,7 7,9 5,5 11,7 17,9 10,4 19,4 28,-2 13,-7 60,-51 74,-52 6,-1 0,17 1,24 0,7 0,15 -3,21 -4,15 -15,25 -24,36 -10,13 -16,28 -27,40 -15,19 -26,39 -40,58 -10,13 -16,27 -24,41 -6,10 -14,19 -20,28 -8,14 -25,42 -29,57 -3,11 -3,25 3,36 8,11 25,5 34,13 5,4 -3,12 -1,19 2,6 8,12 13,15 6,5 13,8 20,8 7,1 16,-2 21,3 11,9 10,26 23,33 12,7 27,7 40,7 5,0 9,-1 14,-1 2,-1 9,-4 11,-3 4,2 8,16 12,20 6,6 13,8 22,10 8,2 20,-5 24,0 6,9 -1,20 3,31 4,8 10,15 18,20 12,8 26,6 38,-2 14,-8 27,-22 38,-34 6,-7 25,-24 33,-27 6,-2 11,13 14,18 4,5 8,10 13,14 8,7 15,10 25,11 7,1 14,3 20,-1 8,-5 9,-17 18,-19 15,-4 30,21 48,21 15,-1 24,-24 31,-35 3,-4 4,-6 9,-5 7,1 13,5 19,6 8,2 17,4 25,3 6,-1 10,-5 15,-9 5,-6 5,-25 12,-31 9,-7 32,-1 47,-6 13,-4 23,-23 33,-35 10,-10 29,-1 41,-11 11,-9 11,-30 22,-40 6,-6 20,-8 26,-14 18,-19 -17,-50 -27,-66 -19,-30 -36,-62 -65,-86 -14,-11 -27,-23 -38,-38 -11,-16 -24,-28 -39,-39 -15,-10 -31,-20 -44,-34 -10,-10 -33,-39 -33,-39 0,0 12,5 16,6 8,3 18,4 26,5 12,1 24,1 34,-6 6,-4 12,-10 17,-16 4,-3 7,-6 10,-9 6,-5 12,-1 18,1 16,6 33,11 50,8 8,-1 16,-5 23,-10 2,-1 4,-4 6,-5 5,-2 9,-1 14,-1 13,0 31,0 44,-5 9,-4 17,-15 22,-23 4,-8 8,-6 16,-4 9,1 20,0 28,-4 9,-5 15,-12 21,-19 4,-5 7,-22 10,-26 6,0 10,-2 16,-3 7,-2 14,-2 20,-5 9,-4 15,-12 18,-22 2,-8 0,-16 0,-24 10,-1 20,4 30,-3 14,-11 15,-30 16,-47 13,-2 26,-6 35,-16 4,-4 7,-11 8,-18 2,-7 -1,-14 0,-21 7,1 16,-4 21,-9 7,-6 7,-13 8,-22 9,0 17,-1 25,-8 8,-7 16,-18 14,-29 15,-3 32,1 47,-4 8,-3 17,-7 24,-13 5,-5 13,-18 12,-29l4 0c-1,0 -1,0 -2,0 12,-1 24,-4 36,-6 9,-2 16,-4 24,-9 6,-3 14,-9 19,-15 6,-6 6,-11 5,-19 10,-1 20,-1 31,-4 10,-3 21,-9 30,-15 9,-4 18,-9 19,-19 2,-8 -1,-16 -6,-21 12,-1 24,-2 36,-5 16,-4 31,-6 45,-14 8,-5 20,-12 26,-20 3,-5 3,-7 -1,-11 -3,-4 -7,-8 -11,-12 -6,-8 -11,-12 -18,-18 -9,-7 -41,-21 -41,-21 0,0 54,-1 81,-3 19,-1 39,0 59,-3 10,-1 21,-3 31,-5 5,0 9,-1 14,-4 -7,-5 -16,-9 -23,-13zm-1370 334l0 0c-6,-4 -9,-8 -9,-16 0,-2 -1,-9 1,-10 6,-3 13,5 17,9 3,3 13,12 13,15 -1,7 -18,4 -22,2zm112 -9l0 0c-9,4 -12,2 -23,1 -6,0 3,-13 6,-18 3,-6 10,-11 14,-11 2,0 4,2 5,3 2,3 6,6 6,10 0,6 -3,12 -8,15z"/>
 </g>
</svg>
