<?xml version="1.0" encoding="UTF-8"?>
<!DOCTYPE svg PUBLIC "-//W3C//DTD SVG 1.1//EN" "http://www.w3.org/Graphics/SVG/1.1/DTD/svg11.dtd">
<!-- Creator: CorelDRAW X7 -->
<svg xmlns="http://www.w3.org/2000/svg" xml:space="preserve" width="1.84457in" height="1.88618in" version="1.1" style="shape-rendering:geometricPrecision; text-rendering:geometricPrecision; image-rendering:optimizeQuality; fill-rule:evenodd; clip-rule:evenodd"
viewBox="0 0 242 247"
 xmlns:xlink="http://www.w3.org/1999/xlink">
 <defs>
  <style type="text/css">
   <![CDATA[
    .fil0 {fill:#6D6E70;fill-rule:nonzero}
   ]]>
  </style>
 </defs>
 <g id="__x0023_Layer_x0020_1">
  <metadata id="CorelCorpID_0Corel-Layer"/>
  <path class="fil0" d="M81 52c-20,-16 -44,-26 -67,-37 10,28 12,59 25,86 16,32 47,50 82,50 -2,-38 -8,-74 -40,-99z"/>
  <path class="fil0" d="M86 184c-30,-1 -57,10 -86,15 20,15 41,33 64,41 34,13 77,10 103,-17 -15,-24 -55,-37 -81,-39z"/>
  <path class="fil0" d="M156 88c-10,31 -6,70 9,100 21,-14 40,-32 55,-52 11,-15 23,-31 22,-52 -2,-30 -19,-57 -32,-84 -10,14 -17,30 -27,44 -10,14 -21,28 -27,44z"/>
 </g>
</svg>
