<?xml version="1.0" encoding="UTF-8"?>
<!DOCTYPE svg PUBLIC "-//W3C//DTD SVG 1.1//EN" "http://www.w3.org/Graphics/SVG/1.1/DTD/svg11.dtd">
<!-- Creator: CorelDRAW X7 -->
<svg xmlns="http://www.w3.org/2000/svg" xml:space="preserve" width="1.85262in" height="4.94018in" version="1.1" style="shape-rendering:geometricPrecision; text-rendering:geometricPrecision; image-rendering:optimizeQuality; fill-rule:evenodd; clip-rule:evenodd"
viewBox="0 0 93 248"
 xmlns:xlink="http://www.w3.org/1999/xlink">
 <defs>
  <style type="text/css">
   <![CDATA[
    .fil0 {fill:#6D6E70;fill-rule:nonzero}
   ]]>
  </style>
 </defs>
 <g id="__x0023_Layer_x0020_1">
  <metadata id="CorelCorpID_0Corel-Layer"/>
  <path class="fil0" d="M93 231c-1,-4 -1,-8 -1,-12 0,-4 0,-9 0,-14 -1,-8 -1,-17 -1,-25 0,-17 1,-34 1,-51 0,-14 0,-29 -5,-43 -2,-5 -5,-10 -9,-14 -4,-2 -6,-4 -6,-8 0,-3 0,-5 1,-8 5,-2 10,-5 12,-10 6,-11 -6,-23 -17,-22 0,0 0,0 0,0 0,0 0,0 0,0 0,-3 0,-6 1,-8 0,-2 0,-4 1,-6 0,-1 0,-3 -1,-4 0,-1 0,-1 0,-2 -1,-1 -1,-1 -2,-1 0,0 0,0 0,0 -3,-2 -6,-2 -9,-2 -5,0 -10,-1 -15,-1 -6,0 -17,-2 -21,5 0,0 -1,1 -1,1 0,1 0,1 0,1 0,5 1,10 2,15 0,0 0,1 0,2 0,0 0,0 0,0 -12,1 -19,14 -14,25 1,3 4,5 7,6 0,3 0,5 1,8 0,3 0,9 -2,11 -5,4 -8,9 -11,14 -5,13 -4,28 -4,41 0,17 1,34 1,51 0,18 -1,36 1,53 0,0 1,0 1,0 -1,1 0,1 0,1 1,3 3,5 6,6 4,2 9,3 14,4 10,3 20,5 30,4 10,-1 19,-4 28,-7 5,-2 11,-4 12,-9 0,0 0,0 0,-1zm-22 -205l0 0c5,0 9,4 12,7 3,5 2,11 -2,15 -2,3 -6,5 -9,6 -1,0 -1,0 -1,0 -1,0 -3,0 -4,1 0,0 -1,0 -1,0 0,-1 0,-2 0,-2 0,-7 1,-15 1,-22 3,-1 5,-3 4,-5zm-9 43l0 0c-3,4 -10,3 -13,3 -5,-1 -11,-1 -16,-2 -5,-1 -4,-6 -4,-10 -1,-1 -1,-2 -1,-3 7,1 13,0 20,0 5,0 10,1 16,0 0,4 0,9 -2,12zm-14 -14l0 0c-6,0 -12,0 -18,0 0,0 -1,0 -2,0 0,-5 0,-9 -1,-14 0,-3 -1,-6 -1,-9 5,2 12,2 17,2 5,1 10,0 15,-1 2,0 5,-1 7,-1 0,6 -1,13 -1,19 0,1 0,3 0,4 -6,0 -11,0 -16,0zm-23 -31l0 0c0,-2 0,-5 -1,-8 0,-2 -1,-4 -1,-7 3,2 8,3 9,3 3,0 6,0 8,1 7,0 12,-2 18,-2 3,0 7,0 10,-2 0,1 -1,3 -1,4 -1,2 -1,4 -1,7 0,3 0,6 0,9 -2,1 -4,1 -4,1 -6,2 -12,2 -17,2 -5,1 -11,0 -16,-1 -1,0 -2,-1 -3,-1 -1,-2 -1,-4 -1,-6zm43 2l0 0c0,1 0,1 1,1 0,0 0,1 -1,1 0,0 0,-1 0,-2 0,0 0,0 0,0zm-38 -23l0 0c4,-1 7,-1 11,-1 5,1 10,1 15,1 3,0 8,0 11,2 0,0 0,1 0,1 0,2 -4,3 -6,3 -4,0 -8,1 -12,1 -6,1 -12,1 -18,0 -2,-1 -5,-1 -7,-2 -3,-3 5,-5 6,-5zm-7 23l0 0c0,1 0,2 0,3 -1,-1 -1,-2 0,-3zm-10 25l0 0c-5,-3 -4,-11 -2,-16 1,-4 5,-8 10,-9 -1,2 0,4 2,5 0,0 1,0 1,0 0,3 0,5 1,8 0,5 1,10 1,16 0,0 0,0 0,0 -4,-1 -9,-2 -13,-4zm78 181l0 0c0,5 -10,7 -14,8 -8,3 -16,5 -25,6 -9,1 -18,-1 -26,-3 -4,-1 -8,-2 -12,-4 -4,-1 -7,-2 -9,-6 -3,-17 -2,-34 -2,-51 0,-17 -1,-34 -1,-51 0,-14 -1,-30 5,-43 1,-3 3,-6 5,-8 2,-2 5,-4 6,-7 2,-5 1,-12 0,-18 2,1 3,1 5,1 1,1 2,1 3,1 0,3 0,7 1,10 0,3 2,4 4,5 2,0 4,0 6,1 2,0 5,0 7,1 5,0 10,0 14,-1 2,0 4,-1 6,-3 2,-4 2,-9 2,-13 1,0 3,0 4,-1 0,4 -2,10 1,13 1,2 4,4 6,5 3,3 5,6 7,9 7,14 6,31 6,46 -1,17 -1,35 -1,52 0,9 0,17 1,26 0,4 0,9 0,13 0,4 0,8 1,11 0,0 0,0 0,1z"/>
  <path class="fil0" d="M84 231c-12,-11 -29,-6 -43,-8 -2,0 -2,2 0,2 13,2 30,-3 41,7 1,1 3,0 2,-1z"/>
  <path class="fil0" d="M74 231c-3,-2 -7,-2 -10,-3 -5,-1 -11,-1 -16,0 -1,0 -1,2 0,2 6,-1 13,0 19,1 2,0 6,0 7,3 1,3 -4,5 -6,5 -1,0 0,2 1,2 5,0 10,-7 5,-10z"/>
  <path class="fil0" d="M81 97c-1,-9 -7,-16 -12,-22 -1,-1 -3,1 -2,2 6,6 11,12 12,20 2,10 2,20 2,30 0,1 2,1 2,0 0,-10 -1,-20 -2,-30z"/>
 </g>
</svg>
