<?xml version="1.0" encoding="UTF-8"?>
<!DOCTYPE svg PUBLIC "-//W3C//DTD SVG 1.1//EN" "http://www.w3.org/Graphics/SVG/1.1/DTD/svg11.dtd">
<!-- Creator: CorelDRAW X7 -->
<svg xmlns="http://www.w3.org/2000/svg" xml:space="preserve" width="8.68706in" height="2.28115in" version="1.1" style="shape-rendering:geometricPrecision; text-rendering:geometricPrecision; image-rendering:optimizeQuality; fill-rule:evenodd; clip-rule:evenodd"
viewBox="0 0 2525 663"
 xmlns:xlink="http://www.w3.org/1999/xlink">
 <defs>
  <style type="text/css">
   <![CDATA[
    .fil0 {fill:#6D6E70;fill-rule:nonzero;fill-opacity:0.901961}
   ]]>
  </style>
 </defs>
 <g id="__x0023_Layer_x0020_1">
  <metadata id="CorelCorpID_0Corel-Layer"/>
  <path class="fil0" d="M2523 155c0,0 -1,0 -1,0 0,-1 -1,-2 -3,-2 0,0 0,0 0,0 -4,-2 -9,-3 -13,-4 0,-1 -1,-2 -1,-3 -20,-25 -35,-52 -52,-79 -15,-23 -37,-41 -52,-64 -5,-6 -14,-1 -11,6 1,2 2,4 3,5 1,1 2,2 2,2 17,22 37,42 53,65 14,22 27,45 43,66 -5,0 -10,-1 -15,-1 0,0 0,0 0,0 -1,0 -1,0 -1,-1 -25,-28 -44,-61 -67,-91 -13,-17 -26,-42 -44,-53 -7,-4 -13,6 -6,10 16,11 30,36 42,51 21,27 38,57 60,83 -8,0 -16,0 -24,0 -18,-30 -42,-56 -59,-87 -11,-19 -21,-44 -40,-56 -6,-4 -12,6 -6,10 20,13 30,43 42,63 14,25 34,46 49,70 -7,0 -15,0 -22,0 -1,-1 -1,-2 -2,-3 -25,-21 -41,-50 -59,-77 -11,-16 -19,-35 -35,-48 -6,-4 -12,6 -6,11 18,14 30,41 42,60 13,20 26,40 43,57 -6,0 -12,-1 -19,-1 0,0 0,0 0,0 -15,-30 -34,-57 -52,-85 -9,-14 -21,-36 -36,-44 -7,-3 -13,7 -6,10 14,8 25,30 34,43 16,25 32,50 46,75 -5,0 -9,0 -14,-1 0,0 0,0 -1,0 -15,-23 -31,-45 -45,-68 -9,-15 -14,-33 -26,-46 -5,-6 -14,3 -9,8 13,13 18,33 27,48 12,20 25,39 39,57 -7,0 -13,-1 -20,-1 0,-1 0,-1 0,-2 -21,-36 -37,-75 -61,-109 -4,-6 -15,0 -10,6 22,32 38,69 57,103 -4,0 -9,-1 -13,-1 0,-1 -1,-2 -1,-3 -18,-31 -37,-63 -49,-98 -3,-7 -14,-4 -12,3 13,34 30,65 48,96 -6,-1 -11,-1 -17,-2 0,0 0,0 0,0 -7,-19 -17,-36 -26,-54 -8,-15 -12,-31 -23,-44 -4,-7 -13,2 -8,8 10,12 14,28 21,42 7,16 16,30 23,46 -3,0 -6,0 -9,-1 -4,-16 -14,-30 -24,-44 -8,-13 -14,-31 -25,-42 -2,-2 -6,-2 -8,0 0,1 -1,1 -1,1 -3,4 -1,8 2,10 4,4 6,10 9,15 5,7 8,15 13,22 8,12 16,23 21,37 -6,-1 -12,-2 -18,-3 -5,-14 -14,-25 -23,-37 -11,-15 -18,-32 -28,-48 -4,-6 -15,0 -10,6 9,14 15,30 25,44 7,11 17,21 23,34 -7,-1 -14,-2 -21,-2 -5,-22 -19,-40 -30,-59 -7,-14 -12,-33 -26,-43 -6,-4 -12,6 -6,10 11,8 16,28 22,39 9,17 21,33 28,51 -3,0 -6,0 -9,-1 0,-1 -1,-2 -2,-3 -21,-28 -31,-70 -65,-87 -6,-4 -12,6 -6,10 29,15 40,53 58,79 -4,0 -9,-1 -13,-1 0,-1 -1,-2 -1,-3 -18,-25 -33,-57 -59,-74 -7,-5 -13,6 -7,10 24,14 37,43 52,65 -5,0 -10,0 -15,-1 1,-1 1,-3 -1,-5 -25,-26 -45,-56 -70,-83 -5,-5 -13,3 -8,9 23,25 42,53 66,78 -5,0 -9,-1 -14,-1 0,0 0,-1 0,-1 -14,-29 -36,-54 -58,-78 -5,-6 -13,3 -8,9 19,21 39,43 53,69 -6,0 -11,-1 -16,-1 -18,-29 -41,-55 -68,-75 -6,-5 -12,6 -6,10 23,18 43,40 59,64 -6,-1 -12,-1 -18,-1 0,-1 0,-1 0,-1 -16,-29 -39,-58 -66,-76 -7,-4 -13,6 -6,10 23,16 43,41 58,66 -5,-1 -10,-1 -15,-1 0,0 0,0 0,0 -14,-29 -42,-50 -66,-71 -5,-6 -14,3 -8,8 20,19 45,38 60,62 -7,-1 -15,-1 -22,-1 0,-2 0,-3 -1,-4 -21,-22 -38,-49 -63,-68 -6,-4 -12,6 -6,11 22,16 37,39 55,60 -6,0 -11,-1 -17,-1 -18,-27 -47,-44 -65,-71 -5,-6 -15,0 -11,6 17,24 42,41 60,64 -4,0 -9,0 -14,0 0,-1 0,-2 -1,-2 -16,-20 -36,-37 -54,-56 -5,-6 -14,3 -8,8 15,17 33,32 48,49 -8,0 -16,0 -23,0 -11,-11 -19,-23 -28,-35 -10,-13 -23,-23 -33,-36 -4,-6 -14,0 -10,6 9,13 22,23 32,35 7,10 14,20 22,29 -6,0 -13,0 -19,0 -23,-22 -40,-49 -60,-74 -4,-6 -14,2 -9,8 18,22 33,45 52,65 -6,0 -12,0 -17,0 -22,-25 -41,-53 -65,-76 -6,-5 -15,2 -9,7 22,21 39,46 58,69 -5,0 -9,0 -14,0 0,0 0,0 0,0 -12,-19 -27,-35 -41,-51 -8,-10 -14,-24 -26,-30 -6,-4 -13,6 -7,10 12,6 20,23 29,33 10,12 21,25 31,38 -5,0 -9,0 -14,0 0,0 0,0 0,-1 -22,-26 -40,-55 -66,-78 -6,-5 -12,5 -7,10 23,20 40,46 58,70 -5,0 -10,0 -16,0 0,0 0,0 0,-1 -26,-22 -44,-52 -72,-73 -6,-5 -13,5 -7,10 24,18 41,43 63,64 -6,0 -12,0 -17,0 -22,-32 -48,-60 -79,-84 -6,-5 -13,5 -7,10 28,21 51,46 71,75 -4,0 -9,0 -14,0 0,0 0,0 0,0 -27,-31 -56,-60 -89,-85 -6,-5 -13,5 -7,9 30,23 56,49 81,77 -1,0 -1,0 -1,0 -6,0 -12,0 -18,1 -31,-31 -55,-68 -91,-94 -7,-4 -13,6 -7,10 32,23 55,56 82,84 -6,1 -12,1 -19,1 -28,-34 -62,-69 -99,-95 -6,-4 -13,6 -7,10 34,23 65,55 91,86 -6,1 -12,1 -18,1 -32,-30 -53,-70 -92,-91 -7,-4 -14,6 -7,9 35,20 56,55 83,83 -6,1 -12,1 -18,1 -25,-34 -63,-65 -100,-87 -6,-4 -13,6 -6,10 33,20 67,47 92,78 -7,1 -13,1 -20,2 -28,-33 -64,-66 -100,-88 -7,-4 -13,5 -7,9 33,21 66,50 92,80 -8,1 -16,1 -24,2 -22,-21 -42,-43 -63,-64 -15,-14 -30,-30 -50,-37 -8,-2 -12,9 -4,11 20,7 35,24 50,39 18,17 34,35 51,53 -6,0 -12,1 -19,1 -29,-36 -60,-71 -101,-95 -7,-4 -13,6 -7,10 38,22 67,53 94,87 -6,0 -12,1 -18,2 -18,-22 -38,-43 -59,-63 -9,-9 -31,-35 -47,-28 -7,3 -2,14 5,11 11,-5 47,38 53,45 12,12 23,24 34,36 -7,1 -13,2 -19,3 -1,0 -1,0 -1,0 -29,-29 -57,-58 -89,-85 -6,-5 -12,5 -7,10 29,24 55,50 82,77 -6,0 -13,1 -19,2 0,0 0,0 0,0 -24,-30 -55,-65 -88,-85 -6,-4 -13,5 -7,9 30,19 59,50 82,78 -6,1 -11,2 -16,2 -26,-30 -56,-59 -91,-79 -6,-4 -13,6 -7,10 33,18 60,44 84,71 -6,1 -13,3 -19,4 -28,-33 -58,-65 -96,-86 -6,-4 -13,6 -6,9 34,20 62,49 88,79 -5,1 -11,2 -16,3 -25,-28 -52,-57 -86,-74 -7,-4 -11,8 -4,11 30,15 54,41 76,65 -6,2 -12,3 -19,4 -20,-29 -47,-55 -79,-69 -7,-4 -11,8 -4,11 28,13 52,35 71,61 -5,1 -9,2 -14,2 -15,-19 -34,-34 -54,-49 -7,-4 -23,-19 -33,-17 -7,1 -5,13 2,11 4,0 22,15 26,18 17,12 33,24 47,40 -7,2 -14,3 -21,5 -11,-14 -25,-26 -39,-38 -13,-11 -26,-24 -42,-32 -7,-3 -11,8 -4,11 15,8 27,20 40,31 11,10 22,20 32,31 -2,1 -5,1 -7,2 -3,1 -6,1 -9,2 -22,-28 -49,-51 -80,-69 -6,-4 -13,5 -7,9 28,18 53,39 74,64 -5,1 -10,3 -15,4 -27,-31 -58,-57 -92,-78 -7,-4 -14,5 -7,9 32,21 61,45 86,73 -5,2 -11,4 -17,6 -13,-19 -31,-33 -49,-46 -15,-12 -29,-26 -47,-31 -8,-2 -12,9 -4,11 14,4 26,15 38,24 18,15 36,28 51,46 -7,2 -13,4 -19,7 -22,-33 -61,-58 -92,-82 -7,-5 -13,5 -7,10 29,22 65,45 87,75 -2,0 -4,1 -5,3 -3,1 -6,3 -9,4 -32,-30 -66,-55 -103,-78 -6,-5 -13,5 -6,9 34,23 66,46 97,73 -6,2 -11,5 -16,7 -30,-35 -68,-59 -103,-87 -6,-4 -13,5 -7,10 34,26 70,49 98,81 -3,2 -6,3 -10,4 -1,0 -3,1 -4,2l-1 0c-27,-30 -61,-55 -94,-79 -6,-4 -13,5 -7,10 31,22 63,46 89,74 -5,2 -9,4 -14,5 -30,-35 -69,-57 -107,-83 -6,-4 -13,6 -7,10 36,24 74,46 102,78 -4,2 -8,3 -12,5 0,0 0,0 -1,-1 -23,-28 -55,-46 -83,-71 -5,-5 -12,5 -6,10 25,23 55,40 78,66 -3,1 -6,2 -9,3 -2,1 -5,2 -7,3 -27,-32 -63,-54 -93,-83 -6,-5 -15,2 -9,7 29,28 63,50 90,80 -6,2 -12,4 -17,6 -28,-28 -57,-52 -86,-77 -6,-4 -13,5 -7,10 27,23 54,46 80,71 -5,1 -9,2 -13,3 -35,-22 -66,-50 -101,-72 -6,-4 -13,6 -7,10 33,20 61,46 93,67 -8,2 -15,4 -22,6 0,0 0,-1 0,-1 -16,-14 -32,-30 -48,-44 -9,-8 -29,-34 -42,-33 -5,1 -7,9 -3,11 1,1 2,1 3,2 1,0 2,1 4,0 3,4 12,12 13,13 8,7 15,14 23,21 12,11 24,23 37,34 -4,1 -8,2 -12,4 0,-1 0,-1 0,-1 -29,-27 -57,-56 -94,-70 -7,-3 -11,8 -4,11 33,13 59,39 85,63 -3,1 -6,2 -9,3 -1,0 -1,0 -2,0 -2,1 -5,2 -7,2 -36,-18 -66,-45 -102,-63 -7,-3 -11,8 -4,11 32,16 59,39 90,57 -6,2 -13,4 -19,6 0,-1 -1,-3 -3,-4 -30,-12 -55,-33 -84,-47 -7,-4 -11,8 -4,11 27,14 50,32 78,45 -7,2 -14,5 -21,7 -26,-19 -57,-31 -85,-48 -6,-4 -13,6 -6,10 25,16 53,27 78,44 -1,1 -3,1 -5,2 -4,2 -8,4 -13,6 0,-2 -1,-4 -3,-5 -32,-13 -63,-28 -94,-40 -7,-3 -11,8 -4,11 31,12 61,26 91,39 -1,0 -1,1 -2,1 -2,0 -4,1 -5,3 -5,2 -9,5 -14,7 -26,-16 -56,-26 -85,-36 -8,-3 -12,8 -4,11 26,9 53,18 78,32 -4,3 -8,5 -12,8 -1,0 -1,-1 -1,-1 -30,-12 -58,-29 -90,-38 -7,-2 -11,9 -4,11 29,8 55,23 83,35 -5,3 -9,6 -13,8 -27,-12 -54,-22 -81,-35 -7,-3 -11,8 -4,11 24,12 49,21 74,32 -5,3 -9,6 -14,9 -27,-15 -53,-33 -83,-42 -7,-3 -11,8 -4,11 28,8 52,24 76,39 -4,3 -8,5 -12,8 -29,-15 -56,-34 -88,-43 -7,-2 -11,9 -4,12 29,8 54,25 81,39 0,0 -1,0 -1,0 -2,0 -4,1 -5,4 -2,1 -4,3 -7,4 -29,-16 -58,-31 -89,-43 -8,-2 -12,9 -4,12 28,10 55,24 82,38 -5,3 -11,7 -16,10 -1,-2 -2,-3 -3,-3 -32,-8 -59,-25 -89,-35 -8,-3 -12,8 -4,11 28,10 54,26 84,34 -5,3 -11,5 -16,8 0,0 0,-1 0,-1 -28,-19 -59,-35 -92,-44 -7,-2 -11,10 -4,12 30,7 59,21 84,39 -5,3 -10,5 -15,8 -29,-16 -59,-31 -90,-41 -8,-3 -12,9 -4,11 28,9 54,22 80,36 -5,2 -10,4 -15,6 -27,-16 -57,-25 -86,-36 -7,-3 -11,8 -4,11 26,10 52,18 76,31 -3,1 -6,3 -10,4 -2,1 -4,1 -6,2 0,0 0,0 -1,-1 -26,-12 -55,-20 -82,-30 -7,-3 -11,8 -4,11 24,9 48,16 72,26 -8,3 -16,6 -23,9 -1,0 -1,-1 -2,-1 -26,-6 -50,-19 -76,-24 -7,-2 -8,10 -1,11 21,4 40,14 60,21 -4,1 -9,3 -14,5 0,0 -1,0 -1,0 -23,-7 -45,-18 -68,-25 -8,-2 -12,10 -4,12 19,5 37,13 56,20 -6,2 -11,5 -17,7 -1,-1 -2,-3 -4,-3 -23,-4 -46,-9 -69,-13 -8,-2 -9,10 -1,12 19,3 39,8 58,11 -7,3 -14,7 -21,10 -20,-7 -42,-12 -64,-15 -7,-1 -8,11 -1,12 17,2 34,6 51,11 -5,3 -10,6 -15,9 -1,-1 -2,-2 -3,-2 -23,-3 -45,-8 -66,-17 -7,-3 -11,8 -4,11 19,8 39,13 59,16 -5,4 -10,7 -14,11 -1,-1 -3,-2 -4,-2 -13,0 -26,-1 -38,-4 -8,-2 -12,10 -4,11 10,3 22,4 33,5 -4,3 -8,6 -11,10 -1,-2 -2,-4 -5,-4 -8,0 -16,1 -23,-1 -3,-1 -7,0 -8,4 -1,3 1,7 4,7 7,2 15,2 23,2 -2,2 -4,3 -5,5 -6,-1 -11,-1 -17,0 -3,0 -5,3 -4,6 0,4 3,5 6,5 1,0 1,0 1,0 -3,1 -5,4 -4,7 0,3 3,6 7,5 5,-2 10,-5 13,-10 1,0 1,-1 1,-2 1,0 1,0 2,-1 0,0 1,0 1,0 -1,5 -2,9 -4,14 -1,7 10,10 12,3 2,-10 5,-19 9,-28 0,-2 0,-3 0,-4 2,-3 5,-5 8,-7 -3,10 -7,20 -10,30 -1,7 10,10 12,3 4,-16 10,-30 13,-45 3,-3 7,-6 10,-8 -4,14 -11,28 -14,43 -2,8 10,10 12,3 4,-19 13,-36 17,-55 0,0 0,-1 0,-1 6,-3 12,-7 18,-10 -9,19 -15,39 -19,60 -2,7 10,10 11,3 6,-26 13,-51 27,-73 5,-2 10,-5 15,-7 -8,23 -20,44 -26,67 -2,8 10,10 12,3 6,-27 21,-50 29,-77 6,-2 12,-5 18,-7 -9,24 -19,48 -24,74 -2,8 9,10 11,3 7,-29 18,-56 28,-83 6,-2 11,-4 17,-7 -10,27 -20,53 -29,79 -3,7 9,10 11,3 10,-29 22,-58 32,-87 1,0 2,-1 4,-1 5,-2 10,-4 15,-6 -12,26 -25,51 -33,79 -3,7 9,10 11,2 9,-30 25,-58 37,-87 6,-3 12,-5 18,-7 -10,24 -15,50 -26,74 -3,7 7,12 10,5 12,-26 17,-54 29,-80 1,-2 1,-3 0,-5 6,-2 11,-4 16,-7 -8,25 -12,52 -23,76 -3,7 8,13 11,6 12,-29 16,-60 27,-89 0,0 0,0 0,0 4,-2 9,-4 13,-6 -9,26 -15,51 -22,78 -1,7 10,10 12,2 7,-29 14,-58 24,-85 1,-1 1,-2 1,-2 6,-3 12,-6 18,-9 -11,25 -19,51 -26,77 -1,8 10,11 12,3 7,-31 17,-61 31,-89 0,-1 0,-1 0,-1 6,-4 12,-7 18,-11 -4,10 -8,20 -13,30 -7,17 -12,35 -19,52 -3,7 7,13 10,6 8,-17 13,-35 20,-52 6,-15 14,-30 18,-46 3,-2 6,-4 9,-6 2,-1 4,-2 5,-3 -9,23 -12,50 -19,74 -3,7 9,10 11,3 9,-31 11,-64 29,-91 6,-4 11,-8 17,-12 -9,26 -21,50 -30,76 -3,7 9,10 11,3 11,-30 26,-58 34,-89 5,-3 10,-7 15,-10 -8,27 -15,53 -25,79 -3,7 7,13 10,5 12,-30 20,-62 31,-93 5,-3 10,-7 15,-9 -9,31 -20,61 -28,93 -1,7 10,10 12,3 8,-36 21,-69 30,-104 4,-3 9,-5 14,-7 -6,18 -11,37 -16,56 -4,13 -5,32 -12,44 -4,6 6,12 10,5 7,-9 7,-24 10,-35 6,-26 14,-51 22,-77 9,-4 18,-7 27,-11 -9,19 -16,38 -25,57 -7,17 -11,39 -22,54 -5,6 4,14 8,8 11,-14 14,-32 21,-49 10,-25 21,-51 34,-75 1,0 1,0 1,0 3,-1 6,-3 9,-4 -5,14 -8,29 -12,41 -10,29 -17,58 -30,85 -3,7 7,13 11,6 10,-22 19,-44 25,-69 5,-21 11,-49 22,-68 3,-1 6,-1 9,-2 0,0 1,0 1,0 -15,41 -27,82 -38,124 -2,8 9,11 11,3 12,-45 24,-89 42,-132 0,0 1,-1 2,-1 4,-1 8,-2 13,-3 -19,35 -25,75 -38,113 -3,7 9,10 11,3 14,-40 20,-84 43,-121 0,0 0,0 0,0 5,-1 10,-3 15,-4 -11,38 -27,73 -37,111 -2,8 10,10 12,3 10,-40 28,-77 38,-117 6,-2 13,-4 19,-6 -6,20 -15,38 -23,57 -8,16 -11,34 -21,49 -4,7 6,12 10,6 12,-18 16,-38 25,-58 9,-19 17,-37 22,-57 6,-2 12,-4 17,-5 -14,35 -24,72 -37,107 -2,7 9,10 12,3 14,-38 24,-78 40,-115 6,-2 12,-4 18,-6 -16,35 -28,73 -40,111 -2,7 10,10 12,2 12,-40 25,-81 44,-119 6,-2 12,-4 18,-7 -12,33 -19,68 -38,98 -4,6 7,12 11,5 20,-32 28,-71 41,-107 0,0 0,-1 0,-1 5,-2 11,-5 17,-7 -11,31 -24,62 -38,92 -4,6 7,12 10,5 17,-33 30,-68 42,-103 6,-2 11,-4 17,-6 -13,30 -24,61 -36,92 -3,7 7,13 10,6 14,-35 26,-70 41,-104 0,0 0,0 0,-1 0,0 0,0 1,0 5,-2 11,-4 16,-6 -12,29 -23,59 -36,89 -3,6 7,12 10,5 15,-33 27,-66 41,-100 6,-2 11,-4 17,-6 -16,32 -26,66 -39,98 -2,7 8,13 11,6 14,-36 25,-74 44,-109 4,-2 9,-3 14,-4 -16,31 -22,67 -40,98 -3,7 7,12 11,6 19,-35 25,-75 45,-109 4,-1 7,-3 11,-4 -4,14 -11,28 -16,42 -7,16 -10,33 -17,49 -3,7 7,13 10,6 9,-18 12,-38 20,-56 6,-15 13,-29 17,-45 5,-1 10,-3 16,-4 -12,23 -17,50 -29,73 -4,7 6,12 10,6 14,-27 19,-58 35,-83 5,-1 10,-3 16,-4 -6,12 -11,23 -16,35 -7,16 -10,33 -18,48 -4,6 6,12 10,5 6,-11 10,-24 14,-37 7,-18 16,-36 24,-54 2,-1 4,-1 6,-2 1,0 2,0 3,0 2,-1 4,-1 6,-2 -9,31 -26,60 -34,92 -1,8 10,10 12,3 8,-34 26,-64 36,-98 1,0 1,0 2,0 1,0 2,0 3,-1 4,-1 8,-1 13,-2 -6,18 -15,34 -22,52 -6,14 -9,30 -20,41 -6,5 3,14 8,8 12,-11 16,-26 21,-41 7,-21 20,-41 26,-63 7,-1 14,-2 21,-4 -17,32 -31,66 -39,101 -2,8 10,10 11,3 9,-38 24,-73 43,-106 5,-1 10,-2 15,-3 -13,36 -29,70 -40,106 -2,7 9,10 11,3 12,-38 29,-73 42,-111 4,0 7,-1 11,-1 -6,13 -10,26 -14,40 -7,20 -16,40 -22,61 -2,8 10,10 12,3 5,-19 13,-36 19,-54 6,-18 11,-36 19,-52 7,-1 14,-2 21,-3 -9,13 -16,28 -22,43 -7,19 -10,40 -21,56 -5,6 6,12 10,6 9,-14 13,-29 18,-44 7,-23 17,-45 31,-63 7,-1 14,-2 22,-3 -15,32 -30,64 -45,96 -3,7 7,13 10,6 16,-34 33,-69 48,-103 4,-1 7,-1 11,-2 -18,29 -18,66 -33,96 -4,7 6,13 10,6 17,-32 14,-75 39,-103 5,-1 11,-1 17,-2 -15,31 -26,63 -39,94 -2,8 8,13 11,6 14,-34 25,-69 42,-101 0,0 0,0 0,0 7,-1 13,-2 20,-2 -6,15 -14,29 -22,43 -7,15 -13,32 -20,47 -3,7 7,13 11,6 8,-18 14,-36 23,-53 7,-15 15,-29 21,-44 5,-1 11,-1 16,-2 -4,14 -10,27 -16,40 -5,13 -7,28 -12,42 -4,2 -5,9 1,11 0,0 1,0 1,0 2,1 6,0 7,-3 6,-13 7,-27 12,-41 7,-17 15,-32 20,-50 3,0 7,-1 11,-1 1,0 2,0 4,0 -11,28 -26,55 -33,85 -1,7 10,10 12,3 6,-32 23,-59 34,-89 7,-1 15,-1 22,-2 -8,14 -16,26 -24,40 -7,14 -10,30 -15,45 -2,7 10,10 12,3 4,-14 7,-29 13,-42 9,-16 19,-31 28,-46 0,0 0,0 0,-1 6,0 13,0 19,-1 -6,12 -14,22 -20,34 -10,16 -17,34 -26,51 -4,6 6,12 10,6 8,-15 15,-31 23,-46 8,-16 19,-30 27,-45 5,-1 10,-1 15,-1 -9,17 -20,33 -28,50 -4,10 -6,29 -14,37 -5,5 3,13 9,8 7,-7 9,-22 13,-31 8,-23 23,-43 34,-65 6,0 12,0 17,-1 -8,13 -18,24 -26,37 -8,14 -11,31 -18,46 -3,7 7,13 10,6 8,-15 11,-31 18,-46 8,-14 21,-26 29,-41 1,-1 1,-1 1,-2 7,0 15,-1 22,-1 -9,13 -19,24 -29,37 -10,13 -15,30 -22,45 -4,7 7,13 10,6 8,-15 13,-31 23,-45 10,-15 23,-28 33,-43 3,0 6,0 9,0 -12,33 -39,58 -52,91 -3,7 9,10 11,3 13,-34 42,-60 54,-95 6,0 13,0 20,0 -9,11 -17,21 -25,33 -8,13 -11,29 -23,39 -5,6 3,14 9,9 10,-10 15,-24 22,-37 8,-16 21,-30 32,-44 6,0 13,0 19,0 -9,10 -19,20 -28,31 -10,14 -11,33 -21,47 -4,6 6,12 10,6 8,-11 10,-25 16,-38 8,-18 26,-31 39,-46 6,0 11,0 16,0 -20,28 -46,53 -55,87 -2,8 10,11 11,4 9,-36 39,-62 59,-91 7,0 13,0 20,0 -18,25 -36,50 -50,77 -3,7 7,13 11,6 14,-29 34,-56 53,-83 6,0 11,0 17,0 -20,25 -29,56 -48,81 -4,7 6,13 10,7 20,-28 29,-63 53,-87 0,0 0,0 0,0 7,0 14,0 21,0 -8,12 -16,22 -24,33 -10,14 -15,30 -25,43 -5,6 5,12 10,6 10,-13 16,-29 25,-43 8,-13 19,-25 27,-38 4,0 9,0 13,0 -16,25 -31,50 -43,77 -4,7 7,13 10,6 13,-29 30,-56 46,-82 3,0 6,0 8,0 -17,24 -32,52 -45,77 -3,7 7,13 10,6 15,-27 30,-58 50,-82 2,0 5,0 8,0 -13,25 -23,53 -39,76 -4,6 6,12 11,6 16,-25 27,-55 41,-81 4,0 8,0 12,0 -6,12 -13,23 -20,34 -8,12 -14,27 -24,38 -5,6 3,15 8,9 10,-11 16,-24 23,-37 9,-14 19,-28 26,-43 3,0 7,0 11,0 -15,27 -28,54 -44,80 -4,7 7,12 11,6 16,-27 29,-56 45,-83 0,-1 0,-1 0,-2 4,0 8,1 12,1 -7,10 -13,21 -19,32 -8,15 -13,36 -24,49 -5,6 3,15 8,9 9,-11 12,-24 19,-37 9,-18 17,-37 31,-52 3,0 7,0 10,1l1 0c0,0 1,0 2,1 -17,28 -34,56 -51,84 -5,7 6,12 10,6 19,-29 37,-60 55,-90 3,0 6,0 10,1 -22,24 -34,56 -53,82 -4,7 6,13 11,6 20,-28 31,-62 57,-87 3,0 7,0 10,1 -17,27 -31,55 -47,82 -4,7 6,13 10,6 17,-28 32,-58 49,-86 1,0 1,-1 1,-1 5,0 9,1 14,1 -7,15 -19,29 -26,44 -8,14 -16,27 -24,40 -4,7 6,13 10,6 9,-15 19,-30 27,-46 8,-15 19,-28 25,-43 4,0 8,1 12,1 -9,12 -16,24 -22,37 -9,16 -16,36 -27,50 -5,6 4,15 8,9 23,-29 31,-66 55,-95 4,1 9,1 14,2 -11,14 -20,28 -30,43 -7,11 -15,31 -26,38 -6,5 -1,15 6,11 10,-8 15,-20 22,-31 14,-20 27,-41 42,-60 3,0 7,1 11,1 -13,18 -27,37 -39,56 -5,8 -12,29 -21,32 -7,3 -4,14 3,12 11,-5 17,-19 23,-28 14,-25 31,-48 48,-71 1,0 1,0 2,0 0,0 0,0 0,0 3,1 5,1 8,1 -11,12 -19,24 -27,37 -12,19 -21,41 -36,58 -5,5 4,14 9,8 26,-30 39,-70 67,-100 0,0 0,-1 1,-1 2,0 4,0 7,0 1,1 2,1 3,1l0 0c-9,11 -17,22 -25,33 -8,13 -16,33 -29,42 -6,5 0,15 6,10 9,-6 15,-16 20,-25 12,-20 26,-39 41,-57 0,-1 0,-1 1,-2 3,0 7,1 10,1 -11,13 -20,28 -28,43 -7,12 -14,23 -23,33 -4,5 -9,17 -15,20 -6,4 0,14 6,10 13,-7 23,-27 31,-39 15,-22 24,-46 43,-64 1,-1 1,-1 1,-1 6,0 12,1 18,2 -11,12 -21,24 -31,37 -12,16 -23,38 -38,51 -6,5 2,13 8,8 11,-9 18,-23 26,-35 15,-20 31,-39 47,-58 1,-1 1,-1 2,-2 3,1 7,1 11,2 -23,28 -38,62 -63,88 -5,6 3,14 8,9 27,-28 42,-64 66,-93 1,-1 2,-2 2,-3 7,1 13,2 20,3 -16,16 -31,35 -44,54 -6,9 -12,30 -22,35 -7,4 -1,14 6,10 10,-5 17,-22 22,-32 14,-24 33,-46 53,-65 0,0 0,0 0,0 2,0 3,0 5,0 4,1 9,1 13,1 -28,27 -50,64 -74,94 -3,1 -5,3 -5,6 0,0 0,1 0,2 0,5 7,8 11,4 27,-34 51,-77 85,-104 0,0 0,-1 0,-1 7,0 14,0 22,0 -15,12 -27,25 -39,39 -8,9 -15,18 -22,28 -8,11 -14,25 -24,34 -6,5 2,14 8,9 15,-13 24,-35 36,-51 17,-20 34,-40 55,-55 2,-1 2,-3 3,-4 2,0 5,0 8,0 6,0 14,0 22,-1 -20,15 -41,28 -59,45 -21,20 -34,43 -50,66 -4,6 6,12 10,6 17,-26 33,-49 56,-70 18,-18 41,-29 61,-45 0,-1 1,-1 1,-2 6,0 12,0 17,1 -18,17 -38,32 -57,49 -21,18 -37,38 -55,59 -1,1 -3,2 -3,4l-1 2c-1,5 6,10 10,6 18,-23 35,-44 57,-63 21,-18 44,-35 64,-55 5,2 10,4 15,6 6,4 12,-6 6,-10z"/>
 </g>
</svg>
