<?xml version="1.0" encoding="UTF-8"?>
<!DOCTYPE svg PUBLIC "-//W3C//DTD SVG 1.1//EN" "http://www.w3.org/Graphics/SVG/1.1/DTD/svg11.dtd">
<!-- Creator: CorelDRAW X7 -->
<svg xmlns="http://www.w3.org/2000/svg" xml:space="preserve" width="1.81076in" height="2.8478in" version="1.1" style="shape-rendering:geometricPrecision; text-rendering:geometricPrecision; image-rendering:optimizeQuality; fill-rule:evenodd; clip-rule:evenodd"
viewBox="0 0 116 183"
 xmlns:xlink="http://www.w3.org/1999/xlink">
 <defs>
  <style type="text/css">
   <![CDATA[
    .fil0 {fill:#6D6E70;fill-rule:nonzero}
   ]]>
  </style>
 </defs>
 <g id="__x0023_Layer_x0020_1">
  <metadata id="CorelCorpID_0Corel-Layer"/>
  <path class="fil0" d="M87 180c-4,8 -17,-2 -22,-5 -7,-5 -15,-11 -23,-14 -9,-3 -17,-3 -23,-9 -3,-3 -8,-8 -2,-11 4,-2 7,4 11,-1 -3,-10 -28,-28 -16,-31 3,-1 21,15 20,4 0,-7 -20,-22 -8,-23 5,-1 8,8 12,12 3,3 9,11 9,3 0,-3 -6,-13 2,-12 6,0 8,11 9,15 4,11 9,22 14,32 6,10 13,17 17,26 2,4 3,10 0,14z"/>
  <path class="fil0" d="M5 133c0,0 3,9 6,5 2,-3 -6,-5 -6,-5z"/>
  <path class="fil0" d="M0 97c0,0 3,8 5,7 4,-2 -5,-7 -5,-7z"/>
  <path class="fil0" d="M15 81c0,0 3,8 5,4 1,-1 -5,-4 -5,-4z"/>
  <path class="fil0" d="M41 82c0,0 0,6 3,5 4,-1 -3,-5 -3,-5z"/>
  <path class="fil0" d="M113 95c8,-4 0,-18 -3,-24 -5,-7 -10,-15 -12,-23 -2,-9 -1,-17 -7,-25 -3,-3 -8,-7 -11,-2 -2,3 4,7 -2,10 -9,-3 -25,-30 -29,-18 -1,3 13,22 2,20 -7,-1 -20,-22 -22,-10 -2,5 7,9 10,13 4,3 11,10 3,9 -3,0 -13,-7 -12,2 0,5 10,8 14,10 11,5 21,10 31,17 9,6 15,14 24,19 4,2 10,3 14,2z"/>
  <path class="fil0" d="M74 8c0,0 8,4 4,6 -3,2 -4,-6 -4,-6z"/>
  <path class="fil0" d="M38 0c0,0 8,4 7,6 -3,3 -7,-6 -7,-6z"/>
  <path class="fil0" d="M21 14c0,0 7,3 4,5 -2,0 -4,-5 -4,-5z"/>
  <path class="fil0" d="M19 39c0,0 6,1 5,4 -1,4 -5,-4 -5,-4z"/>
 </g>
</svg>
