<?xml version="1.0" encoding="UTF-8"?>
<!DOCTYPE svg PUBLIC "-//W3C//DTD SVG 1.1//EN" "http://www.w3.org/Graphics/SVG/1.1/DTD/svg11.dtd">
<!-- Creator: CorelDRAW X7 -->
<svg xmlns="http://www.w3.org/2000/svg" xml:space="preserve" width="4.15474in" height="5.46526in" version="1.1" style="shape-rendering:geometricPrecision; text-rendering:geometricPrecision; image-rendering:optimizeQuality; fill-rule:evenodd; clip-rule:evenodd"
viewBox="0 0 562 739"
 xmlns:xlink="http://www.w3.org/1999/xlink">
 <defs>
  <style type="text/css">
   <![CDATA[
    .fil0 {fill:#6D6E70;fill-rule:nonzero}
   ]]>
  </style>
 </defs>
 <g id="__x0023_Layer_x0020_1">
  <metadata id="CorelCorpID_0Corel-Layer"/>
  <path class="fil0" d="M545 652c4,-5 13,-13 15,-19 2,-5 4,-18 0,-22 -5,-6 -19,-3 -30,-4 -6,0 -17,-6 -22,-10 -9,-7 -20,-25 -27,-33 -11,-10 -36,-27 -49,-35 -17,-11 -51,-31 -69,-41 -12,-7 -37,-22 -49,-29 -12,-7 -38,-20 -50,-27 -13,-8 -40,-23 -51,-34 -7,-7 -19,-26 -25,-35 -7,-13 -19,-41 -26,-55 -6,-14 -21,-41 -24,-56 -3,-10 -7,-31 -3,-40 2,-7 14,-16 19,-22 7,-7 22,-22 29,-29 4,-5 14,-14 17,-20 2,-5 6,-16 7,-21 0,-4 3,-17 -1,-17 -6,-1 -12,21 -18,27 -5,7 -19,19 -27,25 -6,4 -17,13 -23,18 -4,2 -14,9 -19,11 -5,2 -18,2 -24,0 -6,-1 -17,-10 -22,-14 -9,-7 -25,-22 -31,-31 -5,-5 -12,-16 -14,-23 -2,-9 -2,-25 -2,-34 0,-7 1,-23 2,-29 2,-7 9,-20 11,-26 2,-7 14,-22 8,-26 -6,-5 -20,14 -25,21 -6,8 -14,27 -17,36 -2,10 -5,30 -5,40 0,8 4,25 7,32 2,7 8,19 12,25 6,8 23,22 30,29 6,5 19,16 25,22 5,6 15,20 19,28 3,6 8,19 11,25 3,9 10,27 13,36 4,8 12,23 16,31 3,7 8,19 11,26 2,4 9,16 10,21 1,4 0,9 -2,13 -1,3 -5,7 -8,8 -5,2 -18,3 -23,1 -5,-1 -11,-7 -14,-13 -4,-5 -3,-19 -7,-18 -7,1 -3,22 -2,28 2,6 8,15 12,19 5,5 17,12 24,12 11,2 19,2 25,2 6,0 18,1 24,3 8,3 22,12 29,16 11,6 33,19 43,25 10,6 30,18 40,24 11,7 35,20 47,26 9,5 27,14 36,19 10,5 31,16 41,23 5,3 14,10 18,15 3,3 8,9 9,13 2,5 2,16 0,21 -1,5 -8,13 -11,17 -8,10 -25,29 -34,38 -7,8 -22,25 -30,33 -5,5 -17,14 -24,17 -5,3 -15,5 -20,5 -6,-1 -15,-7 -19,-9 -3,-2 -7,-8 -9,-7 -5,4 2,20 6,25 3,4 15,9 20,10 7,1 22,-1 29,-3 9,-3 24,-15 32,-20 9,-6 26,-20 35,-28 7,-7 20,-22 28,-28 4,-4 13,-11 19,-12 6,-2 20,0 26,2 2,0 7,2 8,3 5,5 2,10 4,13 4,6 8,5 11,5 4,0 12,-5 15,-7 4,-3 10,-9 13,-12z"/>
 </g>
</svg>
