<?xml version="1.0" encoding="UTF-8"?>
<!DOCTYPE svg PUBLIC "-//W3C//DTD SVG 1.1//EN" "http://www.w3.org/Graphics/SVG/1.1/DTD/svg11.dtd">
<!-- Creator: CorelDRAW X7 -->
<svg xmlns="http://www.w3.org/2000/svg" xml:space="preserve" width="2.55346in" height="6.32358in" version="1.1" style="shape-rendering:geometricPrecision; text-rendering:geometricPrecision; image-rendering:optimizeQuality; fill-rule:evenodd; clip-rule:evenodd"
viewBox="0 0 200 496"
 xmlns:xlink="http://www.w3.org/1999/xlink">
 <defs>
  <style type="text/css">
   <![CDATA[
    .fil0 {fill:#6D6E70;fill-rule:nonzero}
   ]]>
  </style>
 </defs>
 <g id="__x0023_Layer_x0020_1">
  <metadata id="CorelCorpID_0Corel-Layer"/>
  <path class="fil0" d="M21 483c-2,-2 -9,1 -11,0 -3,-1 -7,-6 -8,-8 -1,-2 -2,-7 -2,-10 1,-6 5,-8 7,-10 2,-3 8,-7 10,-10 4,-6 11,-18 15,-24 5,-8 14,-26 19,-34 4,-6 13,-17 17,-23 5,-6 16,-17 21,-23 5,-6 14,-18 18,-25 3,-3 8,-11 10,-15 4,-6 9,-21 11,-29 3,-8 8,-25 10,-33 2,-7 5,-21 6,-28 2,-8 4,-24 4,-32 1,-8 0,-25 0,-33 0,-5 2,-15 0,-20 -1,-3 -4,-8 -6,-11 -2,-3 -8,-9 -11,-13 -2,-3 -6,-10 -7,-13 -3,-5 -11,-16 -9,-18 2,-2 10,6 13,9 1,2 3,6 4,8 2,2 5,6 7,7 2,2 3,2 4,1 1,-2 -2,-10 -3,-12 -1,-6 -6,-17 -10,-22 -2,-4 -8,-10 -11,-13 -5,-6 -15,-18 -19,-23 -4,-4 -11,-12 -15,-15 -3,-3 -12,-7 -11,-10 1,-3 12,1 15,2 4,2 12,8 15,11 4,3 10,10 13,14 4,4 12,13 15,17 4,6 13,17 16,23 4,6 9,18 12,25 2,4 4,12 5,17 2,5 3,16 3,22 1,6 0,19 0,26 0,7 2,22 2,29 0,6 -1,19 -1,25 -1,6 -4,19 -5,25 -1,5 -3,14 -4,19 -1,3 -3,11 -3,15 0,2 1,7 2,9 2,1 6,2 8,1 4,-1 9,-5 12,-8 3,-3 8,-10 10,-14 2,-3 3,-11 4,-14 0,-2 -1,-8 1,-8 2,-1 5,6 6,9 1,4 0,12 0,16 -1,4 -4,10 -6,13 -2,4 -6,12 -9,16 -2,3 -7,8 -10,10 -3,3 -9,6 -12,8 -5,4 -14,11 -19,16 -5,4 -15,14 -20,19 -5,5 -16,15 -21,20 -3,4 -10,12 -14,17 -4,4 -11,14 -15,18 -3,4 -9,12 -12,16 -2,2 -5,6 -6,8 -1,2 -2,5 -2,7 0,2 1,5 3,6 2,2 8,4 11,5 3,2 9,3 12,4 4,1 12,3 16,3 3,0 10,0 14,-1 5,-1 8,-5 10,-4 2,2 0,7 -1,9 -3,4 -12,7 -17,8 -4,1 -13,2 -18,1 -4,0 -14,-3 -18,-4 -4,-1 -10,-3 -13,-3 -3,0 -8,0 -10,1 -3,1 -7,5 -8,7 -1,2 -1,5 0,7 0,2 3,5 4,7 2,1 5,3 6,3 3,-1 6,-3 7,-4 1,-2 1,-7 3,-7 3,0 2,7 2,10 0,3 -2,9 -3,11 -2,3 -7,6 -10,7 -2,1 -7,0 -9,-1 -2,-2 -7,-6 -9,-8 -1,-1 -3,-4 -5,-4z"/>
 </g>
</svg>
