<?xml version="1.0" encoding="UTF-8"?>
<!DOCTYPE svg PUBLIC "-//W3C//DTD SVG 1.1//EN" "http://www.w3.org/Graphics/SVG/1.1/DTD/svg11.dtd">
<!-- Creator: CorelDRAW X7 -->
<svg xmlns="http://www.w3.org/2000/svg" xml:space="preserve" width="9.64091in" height="10.5475in" version="1.1" style="shape-rendering:geometricPrecision; text-rendering:geometricPrecision; image-rendering:optimizeQuality; fill-rule:evenodd; clip-rule:evenodd"
viewBox="0 0 7053 7716"
 xmlns:xlink="http://www.w3.org/1999/xlink">
 <defs>
  <style type="text/css">
   <![CDATA[
    .fil0 {fill:#6D6E70;fill-rule:nonzero}
   ]]>
  </style>
 </defs>
 <g id="__x0023_Layer_x0020_1">
  <metadata id="CorelCorpID_0Corel-Layer"/>
  <path class="fil0" d="M7025 905c-43,-5 -85,21 -126,32 -43,13 -80,35 -121,54 -39,18 -78,30 -120,38 -54,11 -103,27 -150,20 -2,0 -11,-3 -10,-5 6,-11 22,-18 30,-27 6,-8 11,-16 17,-25 12,-18 40,-46 53,-62 17,-23 24,-30 42,-51 17,-19 35,-62 44,-84 5,-12 15,-34 19,-48 8,-28 14,-61 10,-90 -3,-24 -10,-47 -15,-71 -13,-53 -10,-109 -10,-163 0,-33 2,-66 2,-99 0,-35 -4,-69 -8,-103 -4,-29 -8,-106 -48,-111 -19,-2 -34,2 -45,19 -9,15 -15,32 -17,48 -8,51 6,104 0,155 -10,71 -19,143 -28,214 -7,51 -14,98 -33,147 -11,27 -24,53 -40,77 -13,20 -61,112 -75,94 -8,-10 16,-77 19,-112 2,-20 7,-38 10,-58 4,-23 4,-46 7,-69 4,-25 18,-110 -26,-112 -43,-1 -60,43 -80,73 -12,17 -26,33 -40,50 -13,17 -22,37 -34,55 -11,17 -24,34 -38,49 -10,11 -45,39 -56,27 -4,-5 -1,-44 0,-95 0,-28 -2,-59 -6,-87 -5,-30 -10,-69 -17,-99 -15,-57 -34,-116 -47,-176 -8,-41 -24,-82 -35,-123 -10,-36 -18,-71 -30,-105 -9,-25 -9,-55 -32,-72 -16,-13 -47,-15 -58,5 -9,17 -7,48 -7,68 0,25 6,48 6,72 0,25 -1,49 1,74 2,25 7,50 8,76 -10,-21 -36,-48 -55,-43 -44,12 -33,96 -33,125 0,51 10,95 17,144 8,54 15,113 39,162 20,44 53,80 53,129 0,24 -7,45 -12,67 -6,22 -8,46 -13,69 -6,27 -11,54 -17,81 -7,24 -14,46 -20,70 -3,10 -7,20 -8,29 0,-12 -24,-32 -35,-29 -47,16 -38,88 -38,116 0,50 5,95 -12,141 -23,61 -40,121 -82,174 -35,43 -58,93 -94,134 -22,25 -42,51 -63,76 -22,27 -48,45 -78,64 -25,17 -48,37 -77,48 -39,15 -75,30 -111,50 -20,11 -90,40 -99,27 -6,-8 17,-33 19,-38 8,-16 15,-32 22,-49 13,-29 25,-57 30,-89 10,-59 28,-113 35,-172 4,-34 13,-72 7,-106 -4,-17 -13,-62 -30,-70 -14,-8 -47,6 -57,22 -15,23 -24,47 -29,73 -12,58 -30,116 -50,172 -23,64 -57,137 -102,187 -6,15 -26,30 -36,43 -40,51 -89,104 -143,141 -26,18 -55,31 -84,44 -20,9 -54,18 -75,8 -20,-9 -33,-31 -48,-4 -11,19 -11,43 -21,62 -15,29 -37,31 -67,31 -23,0 -54,-2 -72,-4 -26,-3 -77,-9 -99,-26 -23,-19 -37,-71 -67,-75 -32,-4 -57,41 -86,9 -20,-23 -29,-63 -41,-90 -37,-89 -54,-180 -77,-273 -20,-80 -35,-164 -60,-243 -13,-41 -45,-199 -99,-189 -27,4 -27,67 -29,105 -2,58 2,116 11,173 11,79 17,156 39,232 16,51 34,118 42,158 5,27 11,78 17,106 5,25 24,70 11,78 -6,4 -17,-11 -25,-17 -11,-8 -21,-17 -32,-25 -23,-16 -45,-35 -70,-50 -25,-16 -46,-37 -69,-57 -17,-15 -60,-35 -80,-45 -19,-9 -50,-24 -74,-35 -37,-17 -68,-26 -99,-53 -32,-28 -51,-37 -82,-65 -30,-25 -74,-71 -98,-102 -19,-26 -36,-56 -53,-83 -20,-30 -39,-58 -52,-92 -12,-29 -23,-60 -36,-89 -15,-31 -29,-65 -47,-94 -11,-17 -42,-36 -57,-31 -17,5 -25,44 -25,59 0,27 3,52 8,78 10,51 20,101 38,150 10,26 20,53 39,74 12,15 22,29 32,46 12,21 25,42 39,61 14,18 30,33 43,52 9,13 19,24 29,36 4,4 52,46 48,58 -2,7 -120,-79 -139,-90 -22,-14 -44,-27 -65,-44 -26,-21 -48,-49 -68,-76 -26,-33 -58,-62 -82,-96 -23,-33 -38,-69 -54,-105 -11,-27 -25,-52 -33,-81 -10,-33 -21,-66 -32,-98 -14,-42 -20,-86 -31,-129 -7,-29 -20,-55 -29,-83 -9,-30 -16,-60 -22,-90 -5,-28 -11,-66 -14,-88 -3,-28 -7,-88 -8,-115 -2,-45 -5,-90 -5,-136 0,-84 -3,-170 8,-253 11,-77 26,-157 26,-235 0,-35 7,-145 -33,-156 -20,-5 -57,34 -65,53 -8,21 -9,43 -15,64 -5,19 -12,39 -17,59 -9,36 -17,68 -18,105 -2,33 -8,66 -14,98 -16,79 -29,157 -32,237 -1,37 -5,74 -8,111 -3,30 3,59 -7,87 -4,9 -12,35 -15,26 -17,-46 -34,-158 -52,-223 -7,-27 -9,-55 -24,-79 -14,-25 -44,-35 -58,-27 -16,9 -28,53 -26,70 4,34 12,69 16,104 3,33 3,65 3,98 0,35 0,70 0,105 0,24 3,51 -3,73 -56,-43 -109,-101 -140,-165 -23,-50 -36,-104 -41,-157 -3,-24 -6,-53 -17,-75 -10,-21 -17,-37 -19,-61 -5,-54 -2,-106 -15,-158 -11,-42 -8,-113 -60,-110 -46,3 -43,109 -44,145 -2,45 -13,90 -15,136 -2,37 -5,75 -3,113 1,35 7,69 5,104 -2,44 3,85 7,128 4,40 15,81 23,120 4,23 10,45 19,67 15,39 34,79 54,116 11,20 20,36 36,52 14,14 33,35 44,47 20,21 58,63 82,80 32,23 56,53 86,76 49,39 114,55 153,106 15,19 27,41 43,59 11,14 36,31 43,44l16 12c31,18 51,51 75,76 36,38 83,63 127,89 43,24 81,56 124,80 37,21 76,41 115,58 29,12 61,20 92,28 38,10 73,25 111,34 83,20 162,35 245,51 41,8 77,29 116,40 42,12 87,16 126,39 22,14 47,33 64,52 12,13 42,60 24,64 -9,1 -41,-34 -63,-48 -36,-23 -72,-55 -112,-71 -58,-23 -118,-41 -178,-55 -45,-11 -133,-35 -144,-22 -6,8 -4,46 3,65 4,9 8,20 13,27 6,9 16,12 22,20 15,20 8,57 14,81 6,24 15,43 28,66 25,46 48,92 83,129 17,19 40,35 61,49 38,23 81,46 126,51 32,4 41,3 61,5 11,1 62,-8 71,-1 15,11 33,34 48,44 17,13 39,29 51,48 12,19 14,44 15,66 1,29 -8,49 -17,75 -16,41 -30,87 -52,125 -15,27 -39,45 -60,68 -24,25 -45,54 -68,80 -21,24 -45,41 -69,61 -11,10 -22,20 -32,31 -10,9 -20,21 -27,28 -10,10 -28,27 -47,30 -55,8 -118,-18 -169,-34 -115,-37 -244,-27 -364,-27 -74,0 -142,12 -212,31 -42,11 -158,36 -158,36 0,0 5,0 7,0 -23,1 -45,8 -67,12 -22,3 -46,7 -69,4 -66,-9 -80,-10 -145,-26 -52,-13 -140,-27 -193,-29 -77,-4 -158,0 -234,0 -104,0 -221,-15 -323,-29 -91,-11 -183,-22 -273,-30 -67,-6 -142,-4 -207,10 -71,16 -145,23 -214,47 -58,19 -118,32 -176,51 -85,28 -152,81 -222,135 -42,32 -90,72 -123,113 -30,37 -70,113 -95,149 -9,14 -28,35 -38,57 -10,21 -16,44 -23,68 -15,55 -17,109 -22,167 -11,128 -4,257 17,384 13,84 37,163 61,244 21,69 51,139 63,210 14,81 18,222 7,295 -4,27 -20,71 -31,106 -15,47 -39,93 -68,133 -24,33 -58,55 -84,86 -27,31 -46,66 -66,102 -17,28 -33,57 -39,89 -7,40 -6,82 -8,123 -4,92 8,206 -37,289 -12,23 -31,45 -40,69 -12,29 -3,62 -2,93 3,65 -16,164 -24,219 -4,25 -8,69 -13,102 -5,36 -10,73 -18,109 -15,80 -33,164 -59,243 -14,44 -24,91 -42,134 -15,35 -32,71 -22,110 21,3 37,-32 60,-20 30,16 25,72 25,100 0,59 5,118 70,138 55,17 124,32 182,27 -14,-22 -42,-64 -39,-90 22,14 37,49 53,69 13,16 26,12 23,-10 -2,-24 -10,-54 -16,-77 -11,-34 -35,-64 -47,-98 -4,-10 -17,-59 -20,-80 -4,-22 -7,-63 -6,-90 4,-95 4,-190 16,-284 13,-101 25,-206 48,-304 10,-41 27,-82 40,-123 11,-37 20,-73 34,-108 15,-36 30,-73 47,-108 8,-17 15,-35 23,-52 6,-14 17,-54 26,-71 22,-42 75,-102 106,-155 22,-36 47,-64 79,-90 34,-29 71,-49 100,-84 24,-27 45,-55 70,-82 28,-30 62,-53 88,-85 33,-40 65,-78 102,-115 37,-38 74,-76 108,-117 24,-29 52,-57 78,-86 11,-13 42,-54 63,-57 13,-2 39,17 45,25 7,10 16,20 25,30 17,19 37,37 58,53 19,14 53,16 56,45 2,25 -15,53 -24,75 -4,8 -18,45 -24,61 -10,26 -27,71 -37,108 -16,54 -36,106 -57,158 -24,63 -74,164 -45,231 16,35 49,62 74,89 32,34 52,77 73,118 35,68 76,131 105,201 28,64 58,115 108,163 62,62 128,168 165,228 12,19 32,52 49,76 17,24 34,50 49,76 16,26 25,55 38,82 13,29 32,58 42,88 13,36 16,72 20,110 2,17 4,34 6,51 1,8 1,18 4,26 2,8 6,12 8,20 10,-2 15,-19 22,-26 9,-9 19,-11 31,-13 24,-5 27,1 44,16 21,18 33,32 46,57 8,14 19,37 35,46 8,5 22,6 32,8 36,10 66,13 102,9 21,-2 41,-3 63,-3 15,0 29,-2 44,-3 10,0 21,2 29,-1 -13,-21 -33,-36 -44,-58 13,-1 26,25 37,33 11,9 31,15 31,15 0,0 -2,-21 -11,-32 -13,-15 -23,-33 -35,-48 -9,-11 -17,-20 -27,-29 -6,-5 -11,-10 -17,-15 -6,-3 -23,-20 -29,-28 -15,-19 -38,-55 -56,-81 -23,-34 -50,-66 -73,-100 -40,-57 -69,-117 -115,-170 -29,-34 -54,-68 -72,-109 -17,-41 -37,-82 -62,-120 -20,-29 -62,-78 -77,-108 -5,-10 -12,-18 -18,-27 -46,-76 -94,-141 -118,-229 -21,-77 -66,-141 -66,-225 0,-79 14,-143 43,-216 15,-37 30,-76 51,-110 13,-21 39,-101 70,-111 12,-3 32,13 48,18 19,5 40,6 60,7 43,4 83,1 125,-6 47,-8 92,-4 140,0 47,4 91,1 139,-2 72,-5 143,-7 214,-21 43,-8 86,-15 129,-22 25,-4 116,-34 129,-28 13,6 20,97 29,140 12,52 28,102 44,152 28,90 66,180 85,272 4,18 15,64 19,85 10,61 20,164 47,242 15,41 30,79 36,122 7,53 6,105 8,158 6,101 23,202 23,304 0,58 4,118 -4,175 -6,41 -12,80 -17,121 -2,25 -12,84 -20,112 -9,36 -33,103 -33,147 0,16 -5,58 14,66 24,10 22,-28 36,-41 26,39 16,74 25,119 10,49 48,66 92,83 44,18 94,2 139,16 24,8 37,21 38,-13 1,-17 -10,-40 -17,-56 20,32 59,64 100,78 4,-51 -29,-130 -52,-174 -14,-26 -16,-49 -26,-75 -9,-24 -21,-46 -29,-69 26,33 43,40 87,38 -7,-24 -24,-50 -21,-74 37,5 38,73 74,82 8,-45 -25,-106 -40,-147 -10,-27 -17,-58 -29,-85 -10,-24 -31,-70 -36,-95 -5,-25 -5,-76 -5,-102 0,-37 2,-73 5,-109 10,-99 5,-202 20,-301 15,-96 31,-197 56,-292 12,-47 40,-88 52,-133 12,-47 7,-93 13,-142 6,-42 20,-82 28,-122 9,-46 20,-126 29,-168 4,-17 12,-44 14,-70 2,-21 13,-39 23,-59 21,-41 45,-86 71,-124 21,-32 52,-50 77,-76 20,-21 35,-56 49,-82 24,-43 52,-86 85,-122 40,-44 88,-79 128,-124 39,-43 65,-99 98,-146 26,-36 57,-73 78,-112 42,-78 76,-192 111,-256 11,-19 37,-67 52,-85 22,-26 42,-55 63,-81 73,-91 116,-203 169,-306 35,-69 68,-132 89,-207 15,-55 19,-111 27,-167 13,-99 30,-197 43,-295 7,-49 6,-99 4,-149 -1,-26 0,-51 -4,-76 -3,-20 -8,-67 -6,-90 2,-18 12,-50 18,-71 7,-25 16,-48 24,-72 21,-72 46,-138 55,-211 5,-34 14,-65 17,-99 3,-28 15,-58 41,-72 31,-15 73,-6 105,-1 41,6 80,9 121,-2 77,-20 142,-76 181,-146 37,-68 77,-130 117,-196 15,-26 26,-81 -5,-100 -31,-18 -71,10 -100,19 -35,11 -75,10 -113,13 -45,3 -90,17 -132,33 -33,12 -62,27 -94,44 -25,14 -80,64 -94,52 -16,-15 12,-48 26,-62 18,-17 45,-23 68,-31 25,-8 50,-15 75,-25 28,-11 57,-15 86,-25 67,-24 130,-58 196,-84 29,-12 59,-22 87,-37 19,-11 38,-23 58,-31 36,-16 74,-31 111,-46 22,-9 44,-13 66,-20 10,-4 53,-28 71,-37 20,-9 50,-22 79,-37 15,-8 38,-21 52,-29 33,-19 62,-38 93,-61 23,-17 45,-36 68,-53 31,-22 51,-49 76,-76 25,-27 57,-47 75,-79 31,-57 63,-109 80,-172 8,-30 19,-59 25,-90 5,-28 20,-69 25,-99 2,-11 24,-6 35,-9 15,-4 30,-7 45,-10 34,-7 70,-14 106,-20 42,-6 84,-16 125,-25 44,-10 93,-27 130,-52 15,-10 30,-20 46,-29 17,-10 34,-15 52,-24 28,-14 55,-31 79,-51 23,-18 67,-87 10,-93zm-3651 4810l0 0c-4,88 -2,177 -6,264 0,15 -10,59 -10,59 0,0 -10,-61 -17,-92 -7,-33 -2,-69 -4,-104 -4,-73 -12,-142 -8,-214 1,-20 -3,-31 14,-41 20,-12 30,-6 34,16 5,35 -1,76 -3,112zm1133 -2604l0 0c-39,40 -66,-47 -66,-47 0,0 100,13 66,47zm237 -3l0 0c-11,19 -32,25 -49,14 -34,-23 59,-64 59,-64 0,0 -2,36 -10,50z"/>
 </g>
</svg>
