<?xml version="1.0" encoding="UTF-8"?>
<!DOCTYPE svg PUBLIC "-//W3C//DTD SVG 1.1//EN" "http://www.w3.org/Graphics/SVG/1.1/DTD/svg11.dtd">
<!-- Creator: CorelDRAW X7 -->
<svg xmlns="http://www.w3.org/2000/svg" xml:space="preserve" width="3.24768in" height="5.64487in" version="1.1" style="shape-rendering:geometricPrecision; text-rendering:geometricPrecision; image-rendering:optimizeQuality; fill-rule:evenodd; clip-rule:evenodd"
viewBox="0 0 1246 2166"
 xmlns:xlink="http://www.w3.org/1999/xlink">
 <defs>
  <style type="text/css">
   <![CDATA[
    .fil0 {fill:#6D6E70;fill-rule:nonzero}
   ]]>
  </style>
 </defs>
 <g id="__x0023_Layer_x0020_1">
  <metadata id="CorelCorpID_0Corel-Layer"/>
  <path class="fil0" d="M1 1751c3,-14 12,-44 24,-52 9,-6 32,0 42,0 12,0 36,4 47,0 28,-11 66,-58 87,-78 22,-21 66,-65 85,-89 29,-37 78,-119 106,-158 24,-33 75,-98 101,-129 31,-38 101,-108 129,-148 17,-24 44,-75 57,-102 13,-28 37,-85 47,-115 11,-34 27,-104 35,-139 7,-28 19,-86 24,-115 5,-32 19,-95 19,-127 -1,-23 -13,-69 -17,-92 -5,-31 -15,-93 -16,-124 -1,-30 -10,-118 7,-118 32,0 39,90 44,122 4,18 5,61 11,78 4,11 8,30 20,31 16,1 20,-18 24,-26 8,-22 2,-69 0,-92 -5,-37 -26,-110 -36,-146 -6,-24 -21,-72 -26,-96 -1,-9 -12,-31 -4,-35 16,-9 45,35 56,51 18,26 37,87 45,118 8,29 16,89 19,120 2,33 -5,101 0,134 3,23 15,70 26,92 6,13 24,39 37,47 12,6 41,9 54,7 19,-4 53,-26 68,-38 16,-11 42,-26 50,-44 9,-22 6,-82 5,-107 -2,-23 -9,-70 -12,-94 -3,-20 -12,-60 -10,-80 2,-16 5,-62 22,-61 22,2 12,66 18,87 7,24 27,70 33,94 9,31 25,93 24,125 -1,17 -12,50 -19,66 -10,23 -35,67 -52,85 -18,19 -69,43 -89,61 -20,17 -56,57 -73,77 -23,29 -64,89 -82,120 -15,25 -36,77 -50,102 -13,23 -43,66 -56,89 -16,27 -42,83 -57,110 -8,15 -30,43 -35,59 -3,10 -7,35 0,43 9,10 41,8 54,7 23,-2 67,-17 87,-26 22,-10 67,-34 83,-52 17,-20 33,-74 44,-99 12,-25 33,-77 47,-101 10,-15 30,-46 45,-56 13,-10 52,-38 61,-24 8,13 -53,65 -66,89 -11,22 -21,71 -28,95 -9,30 -27,90 -38,120 -6,17 -17,53 -28,68 -15,19 -56,49 -77,61 -19,10 -60,21 -80,26 -35,9 -107,18 -142,28 -23,7 -68,23 -89,35 -25,15 -70,50 -89,71 -16,17 -42,55 -52,75 -7,15 -22,45 -21,61 0,12 10,36 19,45 14,15 57,28 77,35 28,10 84,27 113,29 28,1 85,-9 113,-15 20,-4 61,-15 80,-23 16,-6 43,-18 60,-21 16,-3 41,-6 65,-5 10,1 35,13 35,24 0,6 -23,6 -29,8 -18,5 -41,5 -58,12 -20,8 -54,37 -68,52 -11,12 -36,32 -51,39 -25,13 -76,20 -105,20 -31,0 -94,-3 -124,-9 -34,-7 -91,-26 -125,-32 -24,-4 -81,-15 -106,-13 -16,1 -49,15 -62,25 -14,11 -27,33 -30,50 -2,18 6,52 10,69 2,12 8,38 14,49 8,15 29,42 42,52 11,8 36,25 50,23 10,-1 26,-18 33,-25 9,-11 20,-38 28,-50 9,-13 28,-38 40,-47 10,-8 38,-31 47,-21 9,11 -24,37 -31,49 -12,23 -34,70 -44,94 -7,17 -16,52 -26,66 -11,14 -38,39 -54,43 -21,4 -66,-8 -85,-19 -21,-13 -48,-54 -64,-73 -13,-17 -37,-51 -49,-68 -7,-10 -17,-37 -28,-40 -11,-4 -34,7 -43,14 -7,5 -9,29 -18,30 -11,2 -27,-20 -31,-30 -6,-15 4,-48 0,-64 -3,-12 -21,-32 -26,-44 -6,-17 -10,-53 -12,-71 -1,-12 -2,-37 0,-49z"/>
 </g>
</svg>
