<?xml version="1.0" encoding="UTF-8"?>
<!DOCTYPE svg PUBLIC "-//W3C//DTD SVG 1.1//EN" "http://www.w3.org/Graphics/SVG/1.1/DTD/svg11.dtd">
<!-- Creator: CorelDRAW X7 -->
<svg xmlns="http://www.w3.org/2000/svg" xml:space="preserve" width="1.78626in" height="3.84668in" version="1.1" style="shape-rendering:geometricPrecision; text-rendering:geometricPrecision; image-rendering:optimizeQuality; fill-rule:evenodd; clip-rule:evenodd"
viewBox="0 0 276 595"
 xmlns:xlink="http://www.w3.org/1999/xlink">
 <defs>
  <style type="text/css">
   <![CDATA[
    .fil0 {fill:#6D6E70;fill-rule:nonzero}
   ]]>
  </style>
 </defs>
 <g id="__x0023_Layer_x0020_1">
  <metadata id="CorelCorpID_0Corel-Layer"/>
  <path class="fil0" d="M236 577c1,-1 1,-1 1,-2 0,-5 -5,-10 -8,-12 -5,-4 -11,-8 -15,-13 -6,-6 -12,-13 -18,-19 -6,-6 -11,-11 -16,-18 -5,-5 -10,-11 -16,-16 -7,-6 -8,-10 -15,-17 -8,-7 -10,-13 -16,-18 -3,-2 -8,-7 -10,-9 -2,-3 -6,-7 -8,-9 -9,-8 -26,-21 -38,-26 -3,-1 -6,-1 -9,-2 -4,0 -8,-3 -12,-4 -8,-4 -15,-10 -20,-17 -4,-5 -8,-11 -10,-17 -2,-6 -4,-10 -6,-17 -6,-14 -7,-22 -13,-40 -4,-16 -10,-59 -5,-59 4,0 7,11 8,13 4,9 6,19 8,29 1,8 4,15 5,23 2,7 3,14 6,20 4,8 9,16 13,23 2,4 5,9 9,10 2,2 9,3 11,-4 1,-2 1,-6 1,-9 -1,-21 -9,-43 -14,-62 -6,-23 -13,-47 -21,-70 -7,-21 -19,-44 -22,-66 -4,-25 4,-42 14,-64 10,-23 27,-39 44,-57 7,-8 13,-15 20,-22 4,-5 9,-9 13,-14 4,-4 13,-15 17,-11 3,3 -6,11 -9,14 -5,6 -9,12 -14,18 -4,5 -6,8 -11,12 -7,6 -12,13 -19,21 -10,13 -16,24 -24,38 -3,5 -6,10 -8,16 -2,6 -2,11 -3,17 -1,16 2,33 10,46 4,6 7,9 14,9 7,0 12,-4 16,-10 5,-7 12,-14 18,-20 6,-6 10,-13 16,-19 4,-6 8,-10 13,-14 4,-5 13,-11 15,-11 3,1 0,11 -1,13 -2,4 -3,9 -5,12 -5,8 -12,15 -17,24 -4,8 -11,15 -16,24 -4,8 -12,17 -14,26 -3,12 -5,25 -5,37 -1,5 -1,11 -1,16 1,4 3,17 4,21 4,8 8,22 11,31 3,7 6,13 9,20 5,11 6,14 9,22 4,8 9,17 13,25 3,7 8,13 11,19 5,11 12,21 19,31 4,5 9,10 13,15 3,2 5,5 7,8 1,1 6,7 8,9 3,3 11,11 12,12 6,8 5,7 10,11 9,6 16,14 24,22 6,5 13,10 19,15 4,4 7,7 13,10 5,2 12,0 17,-2 2,0 6,-1 7,1 1,1 1,4 1,5 -1,4 -3,8 -3,12 0,2 2,3 2,5 1,2 1,5 1,7 1,5 -3,7 -4,11 -1,5 0,9 -4,12 -2,2 -7,4 -10,2 -1,-1 -3,-3 -4,-3 -2,-1 -4,-2 -5,-3 -4,-2 -8,-3 -11,-7 0,-1 -1,-3 -2,-4z"/>
 </g>
</svg>
