<?xml version="1.0" encoding="UTF-8"?>
<!DOCTYPE svg PUBLIC "-//W3C//DTD SVG 1.1//EN" "http://www.w3.org/Graphics/SVG/1.1/DTD/svg11.dtd">
<!-- Creator: CorelDRAW X7 -->
<svg xmlns="http://www.w3.org/2000/svg" xml:space="preserve" width="2.82332in" height="2.2949in" version="1.1" style="shape-rendering:geometricPrecision; text-rendering:geometricPrecision; image-rendering:optimizeQuality; fill-rule:evenodd; clip-rule:evenodd"
viewBox="0 0 10862 8829"
 xmlns:xlink="http://www.w3.org/1999/xlink">
 <defs>
  <style type="text/css">
   <![CDATA[
    .fil0 {fill:#6D6E70;fill-rule:nonzero}
   ]]>
  </style>
 </defs>
 <g id="__x0023_Layer_x0020_1">
  <metadata id="CorelCorpID_0Corel-Layer"/>
  <path class="fil0" d="M6462 2910c-298,99 -379,276 -396,578 -13,244 105,470 259,654 159,190 371,371 640,290 378,-114 358,-449 276,-746 -81,-297 -424,-894 -779,-776z"/>
  <path class="fil0" d="M7360 780c-175,-12 -507,198 -533,452 -32,309 5,562 213,781 542,567 1006,-419 750,-911 -63,-120 -296,-313 -430,-322z"/>
  <path class="fil0" d="M8835 825c-502,-1 -517,955 -376,1293 96,233 331,415 575,232 192,-145 304,-403 318,-642 20,-325 -261,-882 -517,-883z"/>
  <path class="fil0" d="M10387 2469c-164,-38 -482,222 -544,395 -77,216 -119,586 -64,806 151,607 1027,206 1080,-277 34,-309 -219,-866 -472,-924z"/>
  <path class="fil0" d="M8729 3883c-161,-53 -398,109 -559,385 -130,225 -288,471 -400,710 -75,161 -231,497 -27,621 278,167 488,-125 712,-210 388,-147 1083,465 1220,-167 63,-286 -203,-544 -399,-715 -181,-158 -350,-558 -547,-624z"/>
  <path class="fil0" d="M5884 2180c0,0 -9,504 193,456 234,-54 -193,-456 -193,-456z"/>
  <path class="fil0" d="M7230 0c0,0 -277,349 -23,425 119,35 164,-11 160,-142 -3,-89 -137,-283 -137,-283z"/>
  <path class="fil0" d="M8588 137c0,0 14,416 149,377 97,-29 90,-181 45,-249 -40,-61 -194,-128 -194,-128z"/>
  <path class="fil0" d="M10185 1734c0,0 -219,475 46,446 197,-22 -46,-446 -46,-446z"/>
  <path class="fil0" d="M4400 6089c298,99 379,276 396,578 13,245 -104,470 -259,655 -159,189 -371,370 -640,289 -378,-114 -358,-449 -276,-746 81,-296 424,-894 779,-776z"/>
  <path class="fil0" d="M3503 3959c174,-11 506,199 532,453 32,308 -5,561 -213,780 -542,567 -1006,-418 -750,-910 63,-120 297,-314 431,-323z"/>
  <path class="fil0" d="M2027 4005c502,-2 517,955 376,1293 -96,232 -331,415 -575,231 -192,-145 -304,-403 -318,-642 -20,-325 261,-881 517,-882z"/>
  <path class="fil0" d="M475 5648c164,-38 482,222 544,396 77,215 119,586 65,806 -152,607 -1028,205 -1081,-277 -34,-309 219,-867 472,-925z"/>
  <path class="fil0" d="M2133 7063c161,-53 399,109 559,384 130,225 288,471 400,711 75,160 232,497 27,620 -277,168 -488,-124 -711,-209 -388,-147 -1083,464 -1221,-167 -63,-287 203,-545 399,-715 181,-158 350,-559 547,-624z"/>
  <path class="fil0" d="M4979 5359c0,0 8,504 -194,457 -234,-55 194,-457 194,-457z"/>
  <path class="fil0" d="M3632 3179c0,0 277,350 23,425 -119,35 -164,-10 -160,-142 3,-89 137,-283 137,-283z"/>
  <path class="fil0" d="M2274 3316c0,0 -14,417 -148,377 -98,-29 -91,-181 -46,-249 40,-61 194,-128 194,-128z"/>
  <path class="fil0" d="M677 4914c0,0 219,475 -46,445 -197,-22 46,-445 46,-445z"/>
 </g>
</svg>
