<?xml version="1.0" encoding="UTF-8"?>
<!DOCTYPE svg PUBLIC "-//W3C//DTD SVG 1.1//EN" "http://www.w3.org/Graphics/SVG/1.1/DTD/svg11.dtd">
<!-- Creator: CorelDRAW X7 -->
<svg xmlns="http://www.w3.org/2000/svg" xml:space="preserve" width="3.22991in" height="5.62166in" version="1.1" style="shape-rendering:geometricPrecision; text-rendering:geometricPrecision; image-rendering:optimizeQuality; fill-rule:evenodd; clip-rule:evenodd"
viewBox="0 0 363 631"
 xmlns:xlink="http://www.w3.org/1999/xlink">
 <defs>
  <style type="text/css">
   <![CDATA[
    .fil0 {fill:#6D6E70;fill-rule:nonzero}
   ]]>
  </style>
 </defs>
 <g id="__x0023_Layer_x0020_1">
  <metadata id="CorelCorpID_0Corel-Layer"/>
  <path class="fil0" d="M11 488c3,-1 8,3 11,2 4,0 12,-6 15,-9 6,-4 14,-14 19,-19 5,-5 14,-16 19,-21 7,-7 18,-21 25,-28 7,-7 21,-19 29,-25 6,-5 18,-13 24,-17 6,-3 19,-9 25,-13 3,-3 11,-7 14,-11 5,-5 14,-16 17,-22 6,-10 16,-32 21,-43 3,-7 11,-23 14,-31 4,-10 12,-28 15,-38 2,-5 5,-17 5,-23 0,-6 -2,-18 -4,-23 -1,-7 -7,-20 -9,-26 -3,-7 -8,-20 -11,-26 -2,-5 -6,-14 -7,-18 -2,-7 -3,-21 -4,-28 -2,-6 -6,-17 -7,-23 -2,-5 -5,-16 -6,-21 -2,-5 -8,-14 -9,-19 0,-2 0,-5 2,-6 2,-1 8,3 10,5 4,4 8,15 10,20 2,4 7,14 9,19 2,5 6,14 7,19 2,6 4,17 6,22 3,6 10,19 13,25 2,6 7,17 9,23 2,4 6,13 8,18 1,5 2,15 3,19 1,4 5,12 7,15 2,2 7,5 10,5 5,1 13,-2 17,-5 4,-2 9,-9 11,-13 4,-4 10,-13 12,-18 2,-5 2,-14 2,-19 1,-5 0,-14 0,-19 0,-7 -5,-23 0,-25 3,-2 8,6 9,8 3,5 4,16 5,22 1,3 2,8 3,11 0,3 3,11 3,14 0,6 -2,16 -4,21 -2,5 -6,15 -9,19 -3,5 -13,11 -17,15 -4,3 -13,8 -17,11 -4,4 -14,11 -18,16 -5,5 -13,18 -16,24 -5,8 -13,23 -17,30 -3,6 -9,18 -12,24 -3,5 -9,16 -12,22 -2,4 -6,10 -8,14 -1,3 -2,10 -3,14 0,4 0,11 1,15 2,3 7,8 10,10 4,4 15,11 20,14 4,2 12,6 16,8 5,1 14,5 18,5 3,0 9,0 12,-1 5,-2 13,-7 17,-10 4,-2 11,-13 15,-11 3,3 -4,13 -6,16 -2,4 -7,10 -9,13 -4,3 -12,9 -16,10 -3,1 -8,2 -11,2 -6,0 -17,-2 -23,-3 -5,-1 -14,-5 -18,-7 -4,-2 -12,-6 -16,-8 -4,-2 -13,-7 -18,-9 -4,-2 -12,-4 -16,-5 -4,0 -12,1 -16,2 -6,1 -16,4 -21,7 -6,2 -18,8 -23,12 -3,2 -9,8 -13,11 -3,3 -10,8 -13,10 -3,3 -10,10 -13,14 -1,2 -5,6 -7,9 -1,2 -2,6 -2,8 0,2 1,6 2,7 2,2 7,3 10,3 5,2 14,5 19,6 4,0 13,1 17,1 4,1 15,-3 18,1 0,2 -2,4 -4,5 -3,3 -10,5 -14,6 -4,1 -13,1 -17,1 -3,0 -10,-3 -14,-3 -4,-1 -13,-3 -17,-3 -3,-1 -9,-2 -12,-1 -3,0 -10,3 -13,4 -3,2 -9,5 -11,8 -2,2 -5,8 -5,10 -2,6 -2,18 -1,24 0,4 2,13 3,17 2,8 8,23 12,29 2,4 8,10 11,13 4,3 12,10 17,13 4,2 14,4 19,5 5,1 11,2 18,1 3,0 6,-1 9,-5 2,-3 4,-7 6,-11 1,-2 2,-10 5,-10 3,1 1,11 1,14 -1,4 -4,14 -7,17 -4,4 -7,5 -10,7 -5,2 -19,4 -24,4 -8,0 -14,-2 -19,-3 -6,-2 -18,-7 -23,-10 -6,-3 -15,-12 -19,-17 -4,-5 -8,-17 -10,-22 -3,-6 -6,-18 -8,-24 -1,-4 -3,-12 -5,-15 -1,-2 -3,-4 -4,-5 -2,-1 -7,0 -9,0 -1,1 -5,4 -6,3 -3,0 -5,-5 -6,-7 -1,-2 -3,-6 -4,-9 0,-2 -3,-7 -3,-10 0,-2 0,-8 1,-11 1,-2 2,-7 4,-9 1,-2 4,-4 6,-4z"/>
 </g>
</svg>
