<?xml version="1.0" encoding="UTF-8"?>
<!DOCTYPE svg PUBLIC "-//W3C//DTD SVG 1.1//EN" "http://www.w3.org/Graphics/SVG/1.1/DTD/svg11.dtd">
<!-- Creator: CorelDRAW X7 -->
<svg xmlns="http://www.w3.org/2000/svg" xml:space="preserve" width="6.72196in" height="6.88647in" version="1.1" style="shape-rendering:geometricPrecision; text-rendering:geometricPrecision; image-rendering:optimizeQuality; fill-rule:evenodd; clip-rule:evenodd"
viewBox="0 0 2098 2150"
 xmlns:xlink="http://www.w3.org/1999/xlink">
 <defs>
  <style type="text/css">
   <![CDATA[
    .fil0 {fill:#6D6E70;fill-rule:nonzero}
   ]]>
  </style>
 </defs>
 <g id="__x0023_Layer_x0020_1">
  <metadata id="CorelCorpID_0Corel-Layer"/>
  <path class="fil0" d="M1842 2102c-9,-9 -17,-21 -28,-27 -7,-4 -55,-34 -66,-52 -12,-20 -14,-74 -12,-91 2,-20 -2,-41 -2,-61 -1,-27 0,-54 3,-81 1,-12 3,-24 5,-37 2,-17 -1,-33 -1,-50 0,-28 3,-56 3,-84 0,-23 3,-72 7,-97 6,-34 6,-73 15,-107 6,-21 11,-41 20,-60 9,-20 21,-32 36,-46 17,-15 41,-25 54,-45 12,-18 20,-38 31,-56 10,-16 17,-35 23,-53 19,-59 38,-118 65,-173 6,-12 7,-44 9,-59 1,-15 3,-30 6,-46 2,-13 8,-41 9,-53 2,-28 4,-69 2,-97 -2,-35 -6,-68 -4,-104 2,-29 3,-62 -1,-92 -5,-28 -17,-57 -16,-86 3,-61 45,-116 69,-169 13,-27 30,-44 29,-75 0,-15 -1,-27 -20,-28 -13,0 -20,10 -34,6 -2,10 -6,16 -12,23 -7,9 -19,21 -32,20 -17,-3 -15,-18 -15,-31 1,-26 8,-54 3,-80 -9,-55 -57,-100 -88,-111 -10,-3 -29,19 -31,30 -2,14 -4,19 -13,29 -15,18 -25,36 -35,57 -9,18 -24,34 -38,51 -13,16 -30,35 -47,48 -21,14 -45,23 -68,34 -21,12 -34,28 -44,50 -18,39 -41,67 -83,84 -12,5 -23,5 -35,9 -6,3 -23,13 -26,20 -5,14 6,46 15,56 11,11 22,20 34,29 12,8 24,14 24,31 -1,17 -13,38 -22,53 -12,20 -27,39 -37,60 -8,17 -14,29 -29,41 -13,11 -23,25 -34,39 -12,17 -9,39 -29,52 -12,8 -27,10 -40,17 -12,8 -24,19 -37,24 -18,8 -36,14 -53,22 -14,6 -19,7 -33,6 -20,-2 -40,4 -60,5 -13,0 -27,1 -40,1 -33,2 -74,14 -99,18 -21,4 -74,7 -87,6 -25,0 -50,2 -75,5 -19,3 -38,2 -57,6 -14,3 -28,8 -42,12 -34,11 -72,13 -103,32 -26,15 -48,40 -76,54 -25,13 -51,24 -69,48 -9,12 -15,27 -24,39 -10,14 -25,24 -34,39 -9,15 -16,31 -21,47 -5,17 -13,33 -19,50 -8,22 -20,44 -38,59 -15,13 -39,34 -56,47 -23,17 -47,29 -69,47 -26,21 -53,44 -77,67 -23,23 -56,27 -82,47 -10,8 -21,19 -30,29 -10,11 -14,24 -25,34 -20,18 -33,37 -47,58 -11,18 -10,49 -5,68 4,18 19,50 40,51 22,1 38,-25 46,8 6,22 3,48 4,70 1,32 -3,61 1,93 1,12 2,24 2,36 0,8 2,24 -1,30 -8,26 -5,72 9,95 6,10 9,18 20,22 12,4 28,10 44,12 2,-10 3,-15 -1,-25 14,23 38,19 61,32 2,-7 6,-12 6,-19 12,4 16,15 30,15 0,-9 -16,-25 -23,-31 -14,-13 -26,-27 -39,-40 -10,-11 -27,-23 -30,-39 -2,-14 -1,-31 0,-45 2,-44 -10,-95 8,-136 6,-15 32,-38 46,-45 18,-9 32,-20 50,-27 28,-10 54,-23 80,-38 14,-7 27,-15 42,-20 16,-6 33,-10 49,-14 32,-8 63,-19 94,-26 28,-7 53,-20 81,-28 27,-7 56,-12 82,-23 10,-4 19,-7 28,-14 4,-3 16,-17 19,-16 12,5 5,40 0,48 -9,14 -21,26 -29,41 -11,19 -21,38 -37,53 -13,12 -27,24 -40,36 -12,10 -25,19 -29,35 -3,15 -7,32 1,45 11,16 25,30 36,46 12,16 21,35 30,53 10,21 9,42 17,63 8,20 16,47 23,62 4,10 13,27 25,33 11,5 23,8 34,12 11,5 25,5 36,10 8,3 22,7 28,13 0,-7 -3,-14 -6,-20 12,0 23,8 31,17 4,-4 4,-14 3,-19 14,4 14,4 32,9 -1,-22 -18,-26 -28,-35 -10,-9 -35,-17 -56,-30 -21,-11 -44,-46 -62,-74 -15,-22 -20,-46 -24,-72 -4,-21 -14,-41 -10,-62 6,-39 29,-65 61,-86 20,-13 44,-19 67,-27 30,-11 54,-29 81,-43 23,-11 48,-19 70,-32 9,-4 18,-5 24,-13 7,-8 15,-20 20,-27 6,-7 21,-22 28,-29 8,-8 15,-17 21,-26 9,-16 14,-31 22,-47 2,-6 5,-15 12,-18 7,-3 18,0 26,1 12,2 24,1 36,2 14,2 27,8 41,8 20,2 36,-2 55,6 18,7 35,2 54,3 10,0 28,-6 36,1 8,4 19,40 23,49 6,14 11,28 14,43 5,20 10,41 11,63 2,20 11,39 15,60 3,19 4,38 10,57 5,18 13,35 21,52 17,35 29,71 44,107 15,35 29,73 37,111 3,14 7,28 12,41 2,7 3,13 6,19 2,4 5,10 8,12 7,7 28,14 37,17 11,3 22,5 33,8 23,7 42,17 67,20 -1,-12 26,2 32,4 12,4 24,7 29,-8 15,1 23,12 37,14 14,2 28,7 41,5 -1,-1 0,-3 -2,-5 7,1 13,4 20,4 5,-15 -26,-38 -34,-46zm-59 -1827l0 0c-3,8 -10,12 -14,18 -5,8 -6,7 -9,15 -8,-15 -13,-24 -12,-42 2,-18 19,-27 32,-38 2,11 7,36 3,47z"/>
 </g>
</svg>
