<?xml version="1.0" encoding="UTF-8"?>
<!DOCTYPE svg PUBLIC "-//W3C//DTD SVG 1.1//EN" "http://www.w3.org/Graphics/SVG/1.1/DTD/svg11.dtd">
<!-- Creator: CorelDRAW X7 -->
<svg xmlns="http://www.w3.org/2000/svg" xml:space="preserve" width="2.15745in" height="3.7503in" version="1.1" style="shape-rendering:geometricPrecision; text-rendering:geometricPrecision; image-rendering:optimizeQuality; fill-rule:evenodd; clip-rule:evenodd"
viewBox="0 0 188 326"
 xmlns:xlink="http://www.w3.org/1999/xlink">
 <defs>
  <style type="text/css">
   <![CDATA[
    .fil0 {fill:#6D6E70;fill-rule:nonzero}
   ]]>
  </style>
 </defs>
 <g id="__x0023_Layer_x0020_1">
  <metadata id="CorelCorpID_0Corel-Layer"/>
  <path class="fil0" d="M89 163c22,0 47,-11 62,-27 17,-17 22,-42 36,-61 1,-1 -1,-4 -3,-2 -12,8 -26,12 -39,19 -12,5 -23,13 -33,22 -14,12 -28,30 -27,49 0,2 3,2 4,0zm33 -53l0 0c10,-8 22,-14 34,-19 8,-4 15,-6 23,-10 -10,15 -15,32 -26,46 -13,20 -41,31 -64,32 1,-20 18,-37 33,-49z"/>
  <path class="fil0" d="M45 255c4,-11 4,-23 3,-35 -1,-11 -4,-22 -9,-32 -6,-11 -14,-23 -12,-36 0,-3 -3,-4 -4,-1 -19,42 -41,106 1,143 0,0 1,0 1,0 1,0 1,0 1,0 0,0 0,0 0,0 0,0 0,-1 1,-1 5,-13 13,-25 18,-38zm-22 -95l0 0c2,16 14,31 19,46 4,15 4,32 -1,47 -4,13 -11,24 -17,36 -35,-33 -18,-89 -1,-129z"/>
  <path class="fil0" d="M59 204c4,-23 20,-41 25,-65 4,-21 -1,-45 -10,-65 0,-1 -3,-1 -3,0 -13,21 -34,41 -37,67 -2,22 7,48 21,64 0,0 0,0 0,0 1,2 4,2 4,-1zm-20 -65l0 0c2,-22 21,-41 33,-60 8,21 12,44 7,65 -5,20 -18,36 -23,56 -13,-16 -19,-40 -17,-61z"/>
  <path class="fil0" d="M96 307c20,-16 29,-44 45,-65 0,-1 -1,-3 -2,-3 -27,0 -62,6 -84,24 -15,12 -33,37 -29,58 -2,1 -2,3 0,3 0,0 0,0 1,1 0,1 2,1 2,0 23,4 49,-3 67,-18zm-36 -43l0 0c20,-14 49,-21 75,-21 -12,18 -20,38 -35,54 -16,19 -45,28 -70,24 -4,-20 15,-46 30,-57z"/>
  <path class="fil0" d="M62 246c25,-3 48,-8 64,-30 12,-18 16,-41 31,-58 2,-2 -1,-4 -3,-3 -15,11 -35,9 -52,14 -11,3 -18,9 -25,18 -10,13 -27,39 -19,57 -1,1 0,2 1,2 1,1 2,1 3,0zm4 -31l0 0c4,-11 11,-21 18,-30 16,-19 43,-13 64,-22 -8,13 -13,28 -21,42 -5,10 -12,19 -21,25 -13,9 -29,11 -45,12 -3,-9 1,-19 5,-27z"/>
  <path class="fil0" d="M97 118c16,-18 35,-34 41,-59 4,-19 -1,-38 -3,-57 0,-2 -3,-2 -4,-1 -13,18 -29,33 -37,54 -8,20 -8,42 -2,62 -1,2 2,4 4,2 0,0 0,0 1,-1zm1 -62l0 0c6,-19 21,-33 34,-49 1,18 6,36 1,54 -5,21 -23,36 -38,52 -4,-19 -4,-38 3,-57z"/>
 </g>
</svg>
