<?xml version="1.0" encoding="UTF-8"?>
<!DOCTYPE svg PUBLIC "-//W3C//DTD SVG 1.1//EN" "http://www.w3.org/Graphics/SVG/1.1/DTD/svg11.dtd">
<!-- Creator: CorelDRAW X7 -->
<svg xmlns="http://www.w3.org/2000/svg" xml:space="preserve" width="11.8747in" height="1.91084in" version="1.1" style="shape-rendering:geometricPrecision; text-rendering:geometricPrecision; image-rendering:optimizeQuality; fill-rule:evenodd; clip-rule:evenodd"
viewBox="0 0 10798 1738"
 xmlns:xlink="http://www.w3.org/1999/xlink">
 <defs>
  <style type="text/css">
   <![CDATA[
    .fil0 {fill:#6D6E70;fill-rule:nonzero}
   ]]>
  </style>
 </defs>
 <g id="__x0023_Layer_x0020_1">
  <metadata id="CorelCorpID_0Corel-Layer"/>
  <path class="fil0" d="M10785 777c-13,-44 -27,-83 -60,-110 -22,-19 -122,-27 -152,-32 -53,-9 -95,-6 -148,-17 -114,-23 -230,-42 -347,-56 -255,-28 -450,-61 -680,-91 -157,-21 -272,-40 -400,-57 -54,-7 -172,-10 -215,24 -39,31 -118,122 -246,111 -38,-3 -72,-8 -107,-21 -78,-30 -155,-55 -233,-89 -47,-21 -98,-31 -146,-50 -42,-16 -84,-36 -128,-48 -34,-9 -71,-20 -100,-40 -11,-7 -21,-26 -34,-29 -12,-4 -31,19 -31,19 0,0 -168,-47 -244,-66 -64,-17 -80,-27 -144,-41 -38,-9 -75,-9 -135,-32 -16,-6 -115,-8 -99,-38 42,-10 81,12 122,19 43,6 81,16 122,27 27,6 54,12 79,23 30,13 64,8 95,-4 29,-12 31,-49 4,-68 -27,-19 -64,-10 -92,4 -61,31 -120,-2 -183,-13 -38,-7 -76,-15 -115,-22 -29,-6 -73,-14 -97,-18 -28,-4 -80,-12 -114,-13 -63,-4 -126,-8 -189,-11 -64,-3 -105,3 -168,-4 -70,-8 -209,-14 -279,-14 -210,0 -318,2 -512,2 -162,0 -303,-11 -509,-9 -97,0 -193,2 -290,2 -38,0 -83,4 -111,5 -53,3 -155,7 -212,10 -57,3 -116,-1 -173,-4 -164,-7 -326,-4 -489,-4 -88,0 -176,6 -264,6 -86,0 -238,-13 -324,-10 -196,8 -315,-1 -502,6 -132,5 -257,-2 -389,6 -45,3 -136,0 -136,0 0,0 -121,-2 -130,-2 -22,-1 -44,-2 -66,-2 -52,0 -104,2 -155,2 -143,0 -287,2 -430,-4 -118,-5 -202,2 -303,6 -165,6 -329,-4 -493,-4 -149,0 -283,6 -433,13 -28,2 -70,8 -98,8 -27,0 -68,-7 -90,-8 -25,0 -74,8 -99,-8 -18,-11 7,-37 -31,-30 -18,3 -25,9 -20,30 -12,-4 -45,1 -53,12 -18,26 -1,86 -7,126 -8,52 15,97 10,149 -4,41 -18,99 0,138 17,36 112,30 112,30 0,0 188,4 251,4 102,0 200,11 301,11 449,0 900,0 1350,0 411,0 821,-18 1232,-23 191,-2 375,16 567,16 66,0 158,-19 200,-8 25,6 24,70 50,91 23,19 70,21 99,28 114,28 246,14 363,19 356,15 716,10 1072,19 183,4 367,3 550,3 96,0 188,15 283,19 240,12 483,-17 724,-3 24,2 56,9 69,15 -37,27 -72,103 -67,147 5,48 44,81 79,105 38,27 77,32 124,39 53,7 110,9 163,4 88,-8 171,-32 242,-86 41,-31 30,-64 46,-107 15,-37 56,-62 81,-61 65,1 174,73 234,112 105,69 137,201 181,314 14,38 32,97 49,133 23,50 59,54 109,56 96,5 169,-39 256,-71 49,-19 86,-61 135,-78 25,-9 88,5 115,15 48,16 139,62 189,78 57,20 91,35 147,57 73,28 144,58 215,88 88,37 182,64 273,93 129,43 258,78 384,128 105,42 337,118 454,87 32,-8 26,-51 36,-80 14,-38 19,-75 30,-114 19,-73 33,-148 40,-223 12,-125 31,-249 44,-375 6,-56 6,-108 -9,-161zm-3126 133l0 0c-81,17 -155,40 -239,32 -75,-7 -146,-10 -188,-84 -18,-31 -13,-64 -1,-97 9,-24 31,-66 52,-76 15,-8 48,-2 67,-2 37,0 60,7 95,19 34,12 75,19 107,36 28,16 60,29 84,51 30,29 23,42 33,80 7,24 34,-32 27,-59 -6,-19 -27,-50 -39,-66 -13,-18 -16,-36 -15,-59 28,-2 61,-4 89,-1 32,4 49,25 50,56 3,86 -33,151 -122,170z"/>
 </g>
</svg>
