<?xml version="1.0" encoding="UTF-8"?>
<!DOCTYPE svg PUBLIC "-//W3C//DTD SVG 1.1//EN" "http://www.w3.org/Graphics/SVG/1.1/DTD/svg11.dtd">
<!-- Creator: CorelDRAW X7 -->
<svg xmlns="http://www.w3.org/2000/svg" xml:space="preserve" width="5.73472in" height="1.91887in" version="1.1" style="shape-rendering:geometricPrecision; text-rendering:geometricPrecision; image-rendering:optimizeQuality; fill-rule:evenodd; clip-rule:evenodd"
viewBox="0 0 3167 1060"
 xmlns:xlink="http://www.w3.org/1999/xlink">
 <defs>
  <style type="text/css">
   <![CDATA[
    .fil0 {fill:#6D6E70;fill-rule:nonzero}
   ]]>
  </style>
 </defs>
 <g id="__x0023_Layer_x0020_1">
  <metadata id="CorelCorpID_0Corel-Layer"/>
  <path class="fil0" d="M3129 670c-41,-85 -116,-134 -208,-154 -105,-24 -218,-12 -321,13 -108,27 -207,78 -307,127 -106,52 -216,96 -335,105 -109,8 -223,10 -327,-30 -45,-18 -88,-46 -114,-88 10,-8 19,-16 27,-26 20,-24 38,-51 51,-79 10,-22 20,-51 9,-75 -13,-27 -48,-26 -73,-21 -97,18 -80,124 -49,193 -22,12 -47,22 -70,29 -89,29 -187,22 -278,2 -98,-22 -191,-61 -277,-111 -77,-45 -150,-99 -209,-165 -111,-125 -150,-353 -340,-387 -178,-31 -330,164 -305,331 12,81 67,133 142,160 69,25 152,24 217,-11 68,-38 87,-117 73,-189 -11,-60 -58,-106 -117,-120 -47,-10 -101,1 -135,37 -38,41 -35,112 1,152 38,43 131,60 167,7 22,-32 14,-74 -10,-102 -26,-32 -69,-21 -92,8 -10,14 10,33 21,19 38,-50 83,18 59,59 -17,29 -66,23 -92,12 -58,-23 -72,-103 -26,-144 40,-35 105,-28 146,-2 59,38 70,131 40,190 -36,69 -129,80 -197,70 -38,-6 -76,-20 -107,-43 -34,-24 -53,-57 -62,-98 -20,-89 26,-185 89,-247 67,-65 164,-84 248,-39 80,43 123,135 164,210 43,78 90,146 156,205 141,124 327,214 514,238 89,11 181,4 263,-33 10,-5 20,-10 30,-15 47,77 141,111 227,125 107,18 223,14 328,-7 111,-23 212,-75 313,-124 101,-49 205,-93 317,-111 106,-17 228,-18 325,34 79,42 119,129 131,215 10,76 -4,168 -71,216 -77,54 -195,25 -255,-41 -73,-80 -15,-194 75,-232 73,-30 159,13 184,87 13,39 1,78 -24,109 -24,30 -72,23 -103,8 -37,-18 -53,-54 -35,-92 13,-26 43,-28 60,-5 15,18 -2,28 -19,32 -18,4 -9,31 8,26 26,-6 50,-24 43,-54 -5,-24 -27,-41 -50,-47 -31,-7 -56,13 -68,39 -16,33 -13,70 12,98 47,53 142,61 184,-2 42,-64 25,-143 -30,-193 -59,-54 -146,-55 -211,-10 -75,53 -114,146 -65,229 47,80 149,112 236,99 79,-12 131,-73 150,-148 20,-78 7,-167 -28,-239zm-1603 -199l0 0c14,-4 35,-8 49,-1 19,11 -4,54 -9,65 -14,28 -32,53 -52,75 -3,3 -6,6 -9,9 -16,-33 -25,-72 -19,-107 4,-22 19,-35 40,-41z"/>
 </g>
</svg>
