<?xml version="1.0" encoding="UTF-8"?>
<!DOCTYPE svg PUBLIC "-//W3C//DTD SVG 1.1//EN" "http://www.w3.org/Graphics/SVG/1.1/DTD/svg11.dtd">
<!-- Creator: CorelDRAW X7 -->
<svg xmlns="http://www.w3.org/2000/svg" xml:space="preserve" width="2.85191in" height="4.62684in" version="1.1" style="shape-rendering:geometricPrecision; text-rendering:geometricPrecision; image-rendering:optimizeQuality; fill-rule:evenodd; clip-rule:evenodd"
viewBox="0 0 243 394"
 xmlns:xlink="http://www.w3.org/1999/xlink">
 <defs>
  <style type="text/css">
   <![CDATA[
    .fil0 {fill:#6D6E70;fill-rule:nonzero}
   ]]>
  </style>
 </defs>
 <g id="__x0023_Layer_x0020_1">
  <metadata id="CorelCorpID_0Corel-Layer"/>
  <path class="fil0" d="M243 340c0,-3 -1,-8 -2,-11 -1,-2 -4,-5 -6,-6 -2,-2 -8,-3 -10,-4 -2,0 -5,1 -6,0 -3,-2 -6,-9 -9,-12 -3,-3 -8,-10 -12,-13 -5,-6 -17,-17 -23,-22 -6,-6 -21,-18 -28,-24 -6,-5 -18,-14 -25,-18 -4,-4 -14,-10 -18,-14 -4,-3 -9,-10 -13,-13 -4,-4 -13,-13 -17,-18 -4,-5 -11,-15 -14,-20 -3,-5 -10,-17 -13,-23 -3,-6 -8,-17 -10,-22 -1,-5 -5,-14 -6,-18 -2,-4 -4,-11 -6,-15 -1,-4 -2,-12 -3,-16 0,-3 -1,-10 -2,-13 -2,-4 -5,-11 -7,-15 -1,-2 -3,-6 -3,-9 -1,-4 -2,-11 -3,-15 0,-4 1,-10 0,-14 0,-1 0,-5 -2,-5 -2,0 -4,6 -5,9 0,3 0,9 0,12 0,4 0,13 0,17 1,3 2,9 3,12 0,3 2,8 2,11 1,4 2,13 2,17 1,4 2,12 3,16 1,5 3,13 4,18 1,4 3,13 5,17 1,5 6,14 8,18 1,4 5,11 7,14 2,4 8,11 10,15 2,4 6,11 8,14 2,2 5,7 7,10 1,1 4,4 4,6 1,2 1,5 0,7 -1,1 -4,2 -5,3 -2,0 -6,-2 -8,-2 -3,-2 -9,-4 -12,-6 -4,-1 -11,-5 -14,-6 -3,0 -11,-2 -11,1 -1,2 7,4 9,5 2,2 6,8 9,10 4,3 11,8 15,10 6,2 16,7 21,9 6,2 16,6 21,8 10,5 28,15 37,21 5,3 15,9 20,13 7,5 20,14 26,19 3,3 10,10 14,14 2,3 8,9 11,12 1,2 5,6 6,8 1,2 2,6 2,8 0,2 -1,6 -2,7 -1,3 -7,8 -9,10 -4,4 -11,10 -16,13 -3,2 -9,6 -13,7 -4,2 -12,3 -15,4 -3,0 -9,1 -12,0 -3,-1 -8,-4 -11,-6 -2,-2 -5,-12 -8,-11 -3,1 -2,8 -1,11 0,3 2,8 5,10 3,4 13,7 19,8 5,2 17,1 23,0 4,0 14,-3 18,-5 4,-2 11,-9 14,-11 3,-2 9,-6 12,-8 2,-2 5,-6 7,-6 2,-1 6,1 8,1 3,0 7,-1 9,-2 1,-1 2,-5 3,-7 1,-2 3,-6 5,-8 0,-2 3,-5 3,-7z"/>
 </g>
</svg>
