<?xml version="1.0" encoding="UTF-8"?>
<!DOCTYPE svg PUBLIC "-//W3C//DTD SVG 1.1//EN" "http://www.w3.org/Graphics/SVG/1.1/DTD/svg11.dtd">
<!-- Creator: CorelDRAW X7 -->
<svg xmlns="http://www.w3.org/2000/svg" xml:space="preserve" width="3.22991in" height="5.62166in" version="1.1" style="shape-rendering:geometricPrecision; text-rendering:geometricPrecision; image-rendering:optimizeQuality; fill-rule:evenodd; clip-rule:evenodd"
viewBox="0 0 281 488"
 xmlns:xlink="http://www.w3.org/1999/xlink">
 <defs>
  <style type="text/css">
   <![CDATA[
    .fil0 {fill:#6D6E70;fill-rule:nonzero}
   ]]>
  </style>
 </defs>
 <g id="__x0023_Layer_x0020_1">
  <metadata id="CorelCorpID_0Corel-Layer"/>
  <path class="fil0" d="M272 377c-2,0 -6,3 -8,2 -4,0 -9,-5 -12,-7 -4,-3 -11,-11 -15,-15 -3,-4 -11,-12 -15,-16 -4,-5 -14,-16 -19,-22 -5,-5 -16,-14 -22,-19 -5,-3 -14,-10 -19,-13 -5,-3 -14,-7 -19,-10 -3,-2 -9,-6 -11,-8 -4,-4 -10,-13 -13,-18 -5,-8 -12,-24 -16,-32 -3,-7 -9,-19 -11,-25 -3,-7 -10,-21 -12,-29 -1,-4 -3,-13 -4,-18 0,-4 2,-14 3,-18 2,-5 6,-15 7,-20 2,-5 7,-15 9,-20 1,-4 4,-11 5,-14 2,-5 3,-16 4,-21 1,-5 4,-14 5,-18 1,-5 3,-13 5,-17 1,-4 6,-10 6,-14 0,-2 0,-4 -1,-5 -2,-1 -6,3 -8,4 -3,3 -6,11 -8,15 -1,4 -5,11 -7,15 -1,4 -4,11 -5,15 -1,4 -3,13 -5,17 -2,5 -7,14 -10,19 -2,4 -5,13 -7,18 -1,3 -4,10 -5,14 -2,3 -2,11 -3,15 -1,3 -4,9 -6,11 -1,2 -5,4 -8,4 -3,1 -10,-2 -12,-4 -3,-1 -7,-7 -9,-10 -3,-3 -8,-10 -10,-14 -1,-4 -1,-11 -1,-14 0,-4 0,-12 0,-16 0,-4 4,-17 0,-19 -2,-1 -6,5 -7,7 -2,4 -3,12 -4,16 0,3 -1,7 -2,9 0,3 -2,8 -2,11 0,4 2,12 3,16 1,4 4,12 7,15 2,4 9,9 13,11 3,3 10,7 13,9 4,3 11,9 14,12 4,5 10,14 13,19 3,6 9,18 13,24 2,4 7,13 9,17 2,5 7,13 9,18 2,2 5,8 6,11 1,2 2,8 2,10 1,3 1,9 0,12 -1,2 -6,6 -8,8 -3,3 -11,8 -15,11 -3,1 -10,4 -13,6 -3,1 -10,3 -14,4 -2,0 -7,-1 -9,-1 -4,-1 -10,-6 -13,-8 -3,-2 -9,-10 -11,-8 -3,2 3,9 4,12 2,3 5,8 7,10 3,3 9,7 12,8 2,1 7,1 9,1 4,0 13,-1 17,-2 4,-1 11,-4 15,-5 3,-2 9,-5 12,-7 3,-1 10,-5 14,-7 3,-1 9,-3 12,-3 4,0 10,1 13,1 4,1 12,4 16,5 5,2 13,7 18,10 2,2 7,6 9,8 3,2 8,6 11,8 2,3 7,8 9,11 2,2 5,5 6,7 1,1 2,5 2,6 -1,2 -1,4 -2,5 -1,2 -5,3 -7,3 -4,1 -12,3 -15,4 -4,1 -10,1 -13,2 -4,0 -12,-3 -14,0 -1,1 2,3 2,4 3,2 9,4 12,4 3,1 10,2 13,1 2,0 8,-2 10,-2 4,-1 11,-2 14,-3 2,0 7,-1 9,0 3,0 7,2 10,3 2,1 7,4 9,6 1,2 3,6 4,8 1,5 1,14 0,18 0,4 -1,11 -2,14 -2,6 -6,17 -9,22 -2,3 -6,8 -9,10 -3,3 -9,8 -13,10 -3,2 -11,4 -15,4 -3,1 -9,2 -14,1 -2,0 -4,-1 -7,-4 -1,-3 -3,-5 -4,-9 -1,-1 -2,-8 -4,-7 -3,0 -1,8 -1,11 1,3 3,10 5,13 3,3 6,4 9,5 3,2 14,3 18,3 6,0 10,-1 14,-2 5,-2 14,-5 19,-8 4,-2 11,-9 14,-13 3,-4 6,-13 8,-17 2,-5 4,-14 6,-19 1,-3 2,-9 4,-11 0,-1 2,-4 3,-4 2,-1 5,0 7,0 1,1 3,3 5,2 2,0 3,-3 4,-5 1,-1 2,-5 3,-7 1,-2 2,-5 3,-7 0,-3 -1,-7 -1,-9 -1,-2 -2,-6 -3,-8 -1,-1 -3,-2 -5,-3z"/>
 </g>
</svg>
