<?xml version="1.0" encoding="UTF-8"?>
<!DOCTYPE svg PUBLIC "-//W3C//DTD SVG 1.1//EN" "http://www.w3.org/Graphics/SVG/1.1/DTD/svg11.dtd">
<!-- Creator: CorelDRAW X7 -->
<svg xmlns="http://www.w3.org/2000/svg" xml:space="preserve" width="2.28717in" height="3.02641in" version="1.1" style="shape-rendering:geometricPrecision; text-rendering:geometricPrecision; image-rendering:optimizeQuality; fill-rule:evenodd; clip-rule:evenodd"
viewBox="0 0 394 522"
 xmlns:xlink="http://www.w3.org/1999/xlink">
 <defs>
  <style type="text/css">
   <![CDATA[
    .fil0 {fill:#6D6E70;fill-rule:nonzero}
   ]]>
  </style>
 </defs>
 <g id="__x0023_Layer_x0020_1">
  <metadata id="CorelCorpID_0Corel-Layer"/>
  <path class="fil0" d="M5 251c-8,5 -4,25 -3,46 1,18 0,34 6,51 6,18 14,40 28,52 10,10 24,16 37,21 13,5 30,15 43,5 14,-10 10,-31 2,-44 -7,-11 -19,-21 -28,-31 -12,-14 -25,-27 -37,-41 -9,-10 -16,-20 -24,-30 -5,-6 -18,-33 -24,-29z"/>
  <path class="fil0" d="M104 497c2,13 41,34 51,20 6,-9 -12,-19 -19,-22 -12,-5 -21,-1 -32,2z"/>
  <path class="fil0" d="M89 206c9,-4 23,11 40,24 14,11 28,19 39,34 11,15 24,34 27,53 2,13 0,29 -4,42 -3,13 -5,33 -20,38 -16,6 -31,-9 -37,-23 -5,-12 -7,-28 -10,-41 -4,-18 -8,-36 -13,-54 -4,-12 -8,-24 -11,-36 -2,-8 -18,-34 -11,-37z"/>
  <path class="fil0" d="M236 427c10,9 5,53 -11,53 -12,1 -10,-20 -8,-27 2,-14 10,-18 19,-26z"/>
  <path class="fil0" d="M158 45c-8,5 -4,26 -3,47 1,18 0,33 6,50 6,18 14,40 28,53 11,9 25,16 37,21 13,4 30,14 43,5 15,-11 10,-32 2,-44 -7,-11 -18,-22 -28,-32 -12,-13 -25,-27 -37,-41 -8,-10 -16,-20 -24,-29 -5,-7 -18,-34 -24,-30z"/>
  <path class="fil0" d="M257 291c2,13 41,34 51,21 7,-10 -12,-19 -19,-22 -12,-6 -21,-2 -32,1z"/>
  <path class="fil0" d="M243 1c8,-4 23,11 39,24 14,11 28,18 39,33 11,15 25,34 27,53 2,14 0,29 -3,42 -4,14 -5,33 -21,39 -16,6 -31,-10 -37,-24 -5,-12 -7,-27 -10,-40 -4,-18 -8,-37 -13,-55 -3,-12 -7,-24 -11,-36 -2,-7 -17,-33 -10,-36z"/>
  <path class="fil0" d="M390 221c9,9 5,54 -12,54 -12,0 -9,-21 -8,-28 3,-13 11,-18 20,-26z"/>
 </g>
</svg>
