<?xml version="1.0" encoding="UTF-8"?>
<!DOCTYPE svg PUBLIC "-//W3C//DTD SVG 1.1//EN" "http://www.w3.org/Graphics/SVG/1.1/DTD/svg11.dtd">
<!-- Creator: CorelDRAW X7 -->
<svg xmlns="http://www.w3.org/2000/svg" xml:space="preserve" width="7.15046in" height="0.774142in" version="1.1" style="shape-rendering:geometricPrecision; text-rendering:geometricPrecision; image-rendering:optimizeQuality; fill-rule:evenodd; clip-rule:evenodd"
viewBox="0 0 1565 169"
 xmlns:xlink="http://www.w3.org/1999/xlink">
 <defs>
  <style type="text/css">
   <![CDATA[
    .fil0 {fill:#6D6E70;fill-rule:nonzero}
   ]]>
  </style>
 </defs>
 <g id="__x0023_Layer_x0020_1">
  <metadata id="CorelCorpID_0Corel-Layer"/>
  <path class="fil0" d="M1465 79c-152,0 -305,1 -457,-1 -154,-1 -308,-2 -462,3 -147,5 -294,12 -441,12 -9,0 -9,14 0,14 153,0 307,-8 460,-13 154,-5 308,-3 461,-1 147,1 293,0 439,0 9,0 9,-14 0,-14z"/>
  <path class="fil0" d="M91 61c0,0 0,-1 0,-1 0,0 0,0 0,0 0,-1 0,-1 0,-1 -1,0 -1,-1 -1,-1 0,0 0,0 0,0 -2,-3 -5,-5 -9,-4 -1,1 -1,1 -2,2 -25,13 -50,27 -76,41 -5,3 -3,10 2,12 27,11 51,28 79,33 5,1 9,-2 9,-7 0,-25 0,-49 -2,-74zm-12 66l0 0c-20,-6 -37,-16 -56,-25 18,-10 37,-20 55,-30 1,18 1,36 1,55z"/>
  <path class="fil0" d="M1560 63c-21,-3 -42,-15 -61,-25 0,0 0,0 -1,0 -3,-4 -11,-4 -12,2 -4,25 -2,50 -2,74 0,5 4,9 9,7 26,-9 47,-28 69,-45 4,-3 5,-12 -2,-13zm-62 -9l0 0c15,7 29,15 45,20 -15,11 -29,23 -45,30 -1,-17 -2,-33 0,-50z"/>
  <path class="fil0" d="M816 8c-2,-3 -4,-4 -7,-3 -11,-8 -22,-6 -33,2 -5,4 -10,10 -11,16 -3,12 6,20 16,24 9,4 22,4 30,-2 13,-9 10,-24 5,-37zm-13 26l0 0c1,-1 -2,1 -2,1 -1,0 -1,0 -2,0 -1,1 -1,1 -1,1 0,0 0,0 0,0 -1,0 -1,0 -1,0 -4,0 -6,0 -10,-1 -2,-1 -1,-1 -3,-2 -1,0 -1,0 -2,-1 -1,0 -1,0 -1,0 0,0 0,0 0,-1 -1,0 -1,-1 -2,-1 0,0 0,0 0,0 0,0 0,-1 0,-1 0,-1 -1,-2 -1,-2 0,0 0,0 0,0 0,0 0,0 0,-1 0,0 1,-1 1,-1 1,-2 2,-3 3,-4 2,-3 5,-5 8,-6 5,-3 10,0 14,3 0,0 0,0 1,0 1,4 1,7 1,10 0,2 0,4 -3,6z"/>
  <path class="fil0" d="M813 118c-1,-1 -2,-1 -3,-1 0,-1 -2,-2 -3,-2 -19,-5 -34,10 -35,28 -1,15 11,27 26,26 12,0 23,-9 28,-19 6,-13 -1,-26 -13,-32zm1 25l0 0c-2,5 -7,10 -13,11 -6,3 -12,1 -14,-6 -4,-10 5,-23 16,-20 0,0 1,0 1,0 1,1 1,1 2,2 5,3 9,6 8,13z"/>
 </g>
</svg>
