<?xml version="1.0" encoding="UTF-8"?>
<!DOCTYPE svg PUBLIC "-//W3C//DTD SVG 1.1//EN" "http://www.w3.org/Graphics/SVG/1.1/DTD/svg11.dtd">
<!-- Creator: CorelDRAW X7 -->
<svg xmlns="http://www.w3.org/2000/svg" xml:space="preserve" width="6.25942in" height="0.700217in" version="1.1" style="shape-rendering:geometricPrecision; text-rendering:geometricPrecision; image-rendering:optimizeQuality; fill-rule:evenodd; clip-rule:evenodd"
viewBox="0 0 8149 912"
 xmlns:xlink="http://www.w3.org/1999/xlink">
 <defs>
  <style type="text/css">
   <![CDATA[
    .fil0 {fill:#6D6E70;fill-rule:nonzero}
   ]]>
  </style>
 </defs>
 <g id="__x0023_Layer_x0020_1">
  <metadata id="CorelCorpID_0Corel-Layer"/>
  <path class="fil0" d="M8144 289c-16,-113 -92,-218 -199,-260 -211,-83 -458,29 -649,117 -186,86 -370,175 -564,244 -188,68 -390,125 -592,113 -107,-6 -194,-44 -258,-109 29,-45 52,-94 60,-144 21,-140 -132,-129 -222,-102 -24,7 -33,29 -28,52 15,76 44,144 84,200 -53,76 -121,144 -204,184 -230,111 -497,95 -739,52 -190,-34 -382,-68 -576,-72 -64,-1 -160,0 -230,31 -136,-108 -358,-126 -530,-111 -397,35 -780,227 -1184,186 -106,-11 -350,-15 -493,-93 46,-51 81,-111 88,-173 8,-70 -35,-130 -104,-146 -65,-15 -135,19 -162,80 -34,78 -1,177 53,240 -20,17 -42,32 -64,44 -139,81 -321,84 -476,65 -123,-16 -253,-48 -353,-125 -104,-79 -196,-174 -298,-256 -74,-60 -170,-136 -272,-129 -80,5 -174,80 -214,148 -32,56 -19,121 20,169 59,71 214,148 304,91 103,-64 -42,-197 -91,-240 -40,-36 -98,25 -58,60 33,29 66,59 90,96 2,4 5,11 7,16 -37,10 -93,-13 -127,-30 -37,-20 -89,-57 -78,-106 16,-70 131,-133 196,-115 114,31 215,141 301,217 81,73 165,162 267,207 252,111 596,138 841,-5 23,-13 47,-30 71,-50 86,56 200,76 297,91 136,21 278,35 415,31 405,-13 784,-202 1191,-195 99,2 213,28 294,87 -14,20 -22,44 -22,74 -1,61 39,121 75,168 11,15 29,25 47,19l63 -23c17,-6 31,-21 30,-41 -4,-76 -27,-137 -62,-186 42,-12 92,-11 127,-12 193,-5 387,32 576,66 222,39 438,54 661,0 140,-34 250,-97 342,-205 13,-14 25,-29 38,-45 67,63 155,104 261,118 228,30 464,-40 676,-117 193,-69 377,-157 562,-244 175,-81 475,-225 649,-73 83,72 129,257 46,343 -39,40 -125,20 -151,-25 -32,-55 16,-72 61,-53 49,22 90,-51 41,-73 -91,-39 -194,-16 -193,99 1,112 120,171 219,151 139,-28 157,-183 140,-301zm-6431 104l0 0c6,-48 73,-79 105,-34 20,30 -2,73 -17,99 -13,23 -30,46 -49,67 -30,-35 -45,-78 -39,-132zm2308 319l0 0c21,30 37,66 43,107 -1,0 -2,0 -3,1 -23,-32 -48,-75 -40,-108zm1839 -491l0 0c9,28 -16,71 -34,100 -18,-31 -33,-66 -44,-104 32,-9 72,-16 78,4z"/>
 </g>
</svg>
