<?xml version="1.0" encoding="UTF-8"?>
<!DOCTYPE svg PUBLIC "-//W3C//DTD SVG 1.1//EN" "http://www.w3.org/Graphics/SVG/1.1/DTD/svg11.dtd">
<!-- Creator: CorelDRAW X7 -->
<svg xmlns="http://www.w3.org/2000/svg" xml:space="preserve" width="1.99819in" height="2.74173in" version="1.1" style="shape-rendering:geometricPrecision; text-rendering:geometricPrecision; image-rendering:optimizeQuality; fill-rule:evenodd; clip-rule:evenodd"
viewBox="0 0 207 284"
 xmlns:xlink="http://www.w3.org/1999/xlink">
 <defs>
  <style type="text/css">
   <![CDATA[
    .fil0 {fill:#6D6E70;fill-rule:nonzero}
   ]]>
  </style>
 </defs>
 <g id="__x0023_Layer_x0020_1">
  <metadata id="CorelCorpID_0Corel-Layer"/>
  <path class="fil0" d="M59 97c-3,-22 -3,-45 -16,-64 -11,-15 -28,-23 -43,-33 4,20 6,41 16,58 11,18 25,31 43,39z"/>
  <path class="fil0" d="M108 61c-5,-17 -14,-33 -20,-50 -2,8 -5,16 -7,24 -3,13 -6,26 -7,39 0,19 2,44 17,58 14,-19 23,-48 17,-71z"/>
  <path class="fil0" d="M119 186c4,8 10,19 19,22 9,-13 18,-27 20,-43 0,-12 -2,-22 -6,-33 -6,-15 -15,-28 -20,-44 -6,22 -29,40 -24,64 2,12 6,24 11,34z"/>
  <path class="fil0" d="M101 184c-12,-16 -16,-37 -28,-54 -14,-17 -34,-29 -55,-36 6,21 9,48 25,65 14,14 37,25 58,25z"/>
  <path class="fil0" d="M97 200c-15,-7 -34,-7 -48,-15 20,38 53,88 101,82 -6,-12 -10,-25 -17,-37 -9,-13 -22,-24 -36,-30z"/>
  <path class="fil0" d="M154 223c-2,19 7,51 25,61 19,-17 31,-46 27,-71 -3,-22 -14,-41 -20,-62 -16,20 -30,47 -32,72z"/>
 </g>
</svg>
