<?xml version="1.0" encoding="UTF-8"?>
<!DOCTYPE svg PUBLIC "-//W3C//DTD SVG 1.1//EN" "http://www.w3.org/Graphics/SVG/1.1/DTD/svg11.dtd">
<!-- Creator: CorelDRAW X7 -->
<svg xmlns="http://www.w3.org/2000/svg" xml:space="preserve" width="1.35472in" height="1.80998in" version="1.1" style="shape-rendering:geometricPrecision; text-rendering:geometricPrecision; image-rendering:optimizeQuality; fill-rule:evenodd; clip-rule:evenodd"
viewBox="0 0 497 664"
 xmlns:xlink="http://www.w3.org/1999/xlink">
 <defs>
  <style type="text/css">
   <![CDATA[
    .fil0 {fill:#6D6E70;fill-rule:nonzero}
   ]]>
  </style>
 </defs>
 <g id="__x0023_Layer_x0020_1">
  <metadata id="CorelCorpID_0Corel-Layer"/>
  <path class="fil0" d="M470 0c-9,0 -31,11 -40,15 -18,7 -23,6 -40,15 -24,13 -48,25 -70,40 -3,2 -6,4 -10,8 -59,-18 -126,-14 -175,18 -49,31 -101,150 -101,150 0,0 9,-4 23,-11 -14,28 -32,82 -40,107 -11,37 -20,76 -16,116 4,57 33,124 84,152 -2,9 -4,18 -6,26 -2,8 -4,14 -6,28 13,-12 27,-29 38,-43 4,1 8,2 12,2 86,13 163,-72 208,-133 25,-34 42,-74 57,-114 5,-15 13,-25 14,-36 2,4 5,9 6,14 40,-74 55,-175 -17,-235 -12,-10 -26,-19 -41,-26 11,-7 21,-13 31,-20 18,-11 28,-15 46,-26 21,-13 49,-25 70,-36 -10,-3 -16,-11 -27,-11z"/>
 </g>
</svg>
