<?xml version="1.0" encoding="UTF-8"?>
<!DOCTYPE svg PUBLIC "-//W3C//DTD SVG 1.1//EN" "http://www.w3.org/Graphics/SVG/1.1/DTD/svg11.dtd">
<!-- Creator: CorelDRAW X7 -->
<svg xmlns="http://www.w3.org/2000/svg" xml:space="preserve" width="2.06149in" height="3.06746in" version="1.1" style="shape-rendering:geometricPrecision; text-rendering:geometricPrecision; image-rendering:optimizeQuality; fill-rule:evenodd; clip-rule:evenodd"
viewBox="0 0 117 174"
 xmlns:xlink="http://www.w3.org/1999/xlink">
 <defs>
  <style type="text/css">
   <![CDATA[
    .fil0 {fill:#6D6E70;fill-rule:nonzero}
   ]]>
  </style>
 </defs>
 <g id="__x0023_Layer_x0020_1">
  <metadata id="CorelCorpID_0Corel-Layer"/>
  <path class="fil0" d="M110 65c0,-1 -1,-1 -2,0 -1,2 -2,4 -3,5 -3,-8 -5,-16 -10,-22 -3,-4 -6,-2 -7,1 -9,-10 -17,-22 -30,-26 0,-1 0,-1 -1,-1 0,0 0,0 0,0 0,0 -1,1 -1,1 0,1 -1,1 -1,2 -4,-5 -9,-9 -14,-12 -7,-4 -14,-9 -21,-13 -1,0 -1,0 -2,1 0,6 -2,12 -4,18 0,0 -1,1 0,2 -1,1 -2,3 -2,4 -2,8 -3,16 -4,24 -1,0 -2,0 -3,0 -1,0 -1,1 -1,1 -1,12 -1,24 -1,36 0,0 -1,0 -2,0 0,0 -1,0 -1,1 -1,13 7,25 13,37 -1,1 -2,1 -2,1 -1,1 -1,1 -1,2 14,23 43,37 69,28 0,0 0,0 0,0 0,3 3,6 5,8 2,3 5,6 6,10 1,1 3,1 3,-1 -3,-6 -16,-15 -8,-22 4,-3 8,-6 11,-10 4,-5 7,-9 10,-14 11,-19 16,-41 4,-61zm-51 -40l0 0c12,5 20,17 28,27 1,0 2,0 2,0 1,-2 1,-2 2,-3 -1,15 -9,27 -17,39 -6,11 -10,23 -13,36 -1,-2 -1,-4 -2,-6 -6,-13 -12,-25 -15,-39 2,-10 4,-20 10,-29 4,-7 7,-16 5,-25zm-4 2l0 0c0,1 1,1 1,0 1,0 1,-1 1,-1 2,10 -3,19 -8,28 -3,6 -5,13 -6,20 -2,-10 -4,-20 -6,-29 0,0 0,0 0,0 1,-10 7,-18 5,-28 5,3 9,6 13,10zm-19 -13l0 0c1,0 2,1 3,1 3,9 -1,16 -3,24 -1,-2 -1,-4 -2,-7 -2,-8 -4,-18 -9,-26 4,2 7,5 11,8zm-16 -10l0 0c9,9 11,24 13,36 1,2 1,4 2,7 -7,-9 -9,-22 -19,-28 2,-5 4,-10 4,-15zm-10 47l0 0c1,-9 2,-18 5,-27 0,-1 0,-1 1,-2 10,6 11,21 20,29 0,0 0,0 0,0 2,9 4,19 6,28 0,0 0,1 0,1 -1,1 0,1 0,1 0,1 0,1 0,1 1,3 2,7 3,10 -8,-5 -12,-14 -17,-22 -5,-7 -11,-14 -19,-19 0,0 1,0 1,0zm-5 36l0 0c1,-12 1,-23 1,-35 10,5 17,14 23,23 5,8 9,16 17,20 0,0 0,0 0,0 3,8 7,15 10,23 -1,-1 -3,-1 -4,-2 -6,-2 -11,-5 -17,-8 -10,-7 -19,-15 -30,-21 0,0 0,0 0,0zm10 37l0 0c-5,-11 -13,-23 -13,-36 0,0 0,0 0,0 0,0 1,0 1,1 10,5 19,12 28,19 5,3 10,6 15,9 2,0 8,1 9,3 1,0 2,0 2,0 0,0 0,1 1,1 3,7 7,14 11,20 -20,2 -37,-9 -55,-15 0,0 0,0 1,-1 0,0 1,-1 0,-1zm-1 5l0 0c19,6 36,16 56,15 0,0 0,0 1,-1 2,4 4,7 7,10 -24,8 -50,-4 -64,-24zm64 20l0 0c-6,-7 -11,-14 -15,-22 3,-15 8,-29 15,-42 7,-10 14,-22 15,-35 3,2 5,8 5,9 2,5 3,9 5,13 0,1 1,1 2,1 1,-1 2,-2 2,-2 -3,13 -10,25 -16,37 -6,13 -11,27 -13,41zm17 -11l0 0c-3,4 -6,7 -10,9 -1,1 -3,3 -5,5 0,-1 0,-1 0,-1 2,-15 7,-30 14,-44 6,-12 13,-24 16,-37 11,23 0,48 -15,68z"/>
 </g>
</svg>
