<?xml version="1.0" encoding="UTF-8"?>
<!DOCTYPE svg PUBLIC "-//W3C//DTD SVG 1.1//EN" "http://www.w3.org/Graphics/SVG/1.1/DTD/svg11.dtd">
<!-- Creator: CorelDRAW X8 -->
<svg xmlns="http://www.w3.org/2000/svg" xml:space="preserve" width="1.35813in" height="1.32581in" version="1.1" style="shape-rendering:geometricPrecision; text-rendering:geometricPrecision; image-rendering:optimizeQuality; fill-rule:evenodd; clip-rule:evenodd"
viewBox="0 0 130 127"
 xmlns:xlink="http://www.w3.org/1999/xlink">
 <defs>
  <style type="text/css">
   <![CDATA[
    .fil0 {fill:#ED3237;fill-rule:nonzero}
   ]]>
  </style>
 </defs>
 <g id="Layer_x0020_1">
  <metadata id="CorelCorpID_0Corel-Layer"/>
  <path class="fil0" d="M71 7c-14,11 -17,26 -12,40 -12,-8 -31,-10 -43,0 -22,19 -17,41 -9,52 24,30 84,7 109,28 -11,-29 31,-74 5,-113 -11,-17 -36,-18 -50,-7z"/>
  <path class="fil0" d="M84 75c-1,-5 7,-26 10,-17 2,3 -1,10 -3,13 -1,4 -3,8 -3,13 -2,0 -6,-2 -8,-2 -4,0 -28,2 -23,-7 3,-6 22,1 28,0l-1 0zm-3 -3c-1,-4 3,-18 5,-22 3,-4 5,-7 11,-5 6,3 2,17 0,22 -3,7 -6,13 -6,21 -7,-3 -17,-3 -25,-3 -5,0 -13,1 -18,-1 -9,-5 -6,-16 4,-16 8,0 22,1 29,4l0 0zm-4 -5c2,-9 9,-50 26,-26 9,13 -11,38 -9,54 -16,-10 -53,1 -62,-13 -7,-10 -1,-19 10,-19 13,-1 23,3 35,4l0 0zm-5 -4c1,-3 3,-14 3,-17 3,-21 29,-29 34,-5 5,22 -13,41 -10,61 -20,-14 -61,5 -75,-16 -7,-10 -6,-25 7,-28 11,-3 31,1 41,5l0 0zm-4 -5c-2,-11 3,-30 13,-37 6,-4 22,-6 27,1 8,9 10,33 7,43 -4,14 -13,34 -9,47 -18,-26 -67,7 -86,-20 -9,-12 -10,-27 3,-37 11,-7 35,-1 45,3l0 0zm-5 -5c2,-15 0,-24 9,-36 8,-10 24,-8 33,-7 22,3 18,47 14,62 -3,12 -14,36 -8,47 -4,-1 -5,-3 -9,-5 0,1 -11,-3 -13,-3 -4,-1 -10,-2 -15,-2 -10,1 -19,1 -29,0 -7,0 -12,-3 -18,-3 -22,-1 -30,-44 -9,-54 19,-9 26,-4 45,1l0 0zm8 -46c-14,11 -17,26 -12,40 -12,-8 -31,-10 -43,0 -22,19 -17,41 -9,52 24,30 84,7 109,28 -11,-29 31,-74 5,-113 -11,-17 -36,-18 -50,-7l0 0z"/>
 </g>
</svg>
