<?xml version="1.0" encoding="UTF-8"?>
<!DOCTYPE svg PUBLIC "-//W3C//DTD SVG 1.1//EN" "http://www.w3.org/Graphics/SVG/1.1/DTD/svg11.dtd">
<!-- Creator: CorelDRAW X8 -->
<svg xmlns="http://www.w3.org/2000/svg" xml:space="preserve" width="1.85261in" height="2.28043in" version="1.1" style="shape-rendering:geometricPrecision; text-rendering:geometricPrecision; image-rendering:optimizeQuality; fill-rule:evenodd; clip-rule:evenodd"
viewBox="0 0 402 495"
 xmlns:xlink="http://www.w3.org/1999/xlink">
 <defs>
  <style type="text/css">
   <![CDATA[
    .fil0 {fill:#ED0000;fill-rule:nonzero}
   ]]>
  </style>
 </defs>
 <g id="Layer_x0020_1">
  <metadata id="CorelCorpID_0Corel-Layer"/>
  <path class="fil0" d="M400 124c-7,-53 -40,-117 -99,-123 -47,-6 -95,23 -115,66 -14,-28 -62,-39 -90,-41 -21,-1 -40,2 -57,17 -23,21 -33,55 -38,85 -9,64 25,124 63,172 45,58 100,106 151,158 7,7 13,13 20,20 -3,2 -5,4 -7,6 -5,6 3,14 9,9 2,-3 4,-5 6,-7 3,1 5,-2 5,-5 45,-48 82,-104 110,-164 28,-59 50,-127 42,-193zm-160 348c-36,-45 -82,-84 -121,-126 -44,-46 -88,-99 -103,-163 -8,-29 -5,-59 5,-87 8,-24 24,-52 50,-57 22,-4 46,0 66,7 19,6 46,20 42,43 -2,7 9,11 11,3 11,-52 68,-91 121,-78 57,15 79,86 79,138 1,61 -24,123 -51,177 -26,52 -59,100 -99,143z"/>
 </g>
</svg>
