<?xml version="1.0" encoding="UTF-8"?>
<!DOCTYPE svg PUBLIC "-//W3C//DTD SVG 1.1//EN" "http://www.w3.org/Graphics/SVG/1.1/DTD/svg11.dtd">
<!-- Creator: CorelDRAW X8 -->
<svg xmlns="http://www.w3.org/2000/svg" xml:space="preserve" width="16.4005in" height="15.431in" version="1.1" style="shape-rendering:geometricPrecision; text-rendering:geometricPrecision; image-rendering:optimizeQuality; fill-rule:evenodd; clip-rule:evenodd"
viewBox="0 0 13854 13035"
 xmlns:xlink="http://www.w3.org/1999/xlink">
 <defs>
  <style type="text/css">
   <![CDATA[
    .fil0 {fill:#211D1F;fill-rule:nonzero}
   ]]>
  </style>
 </defs>
 <g id="å_x203a__x00be_å_x00b1__x201a__x0020_2">
  <metadata id="CorelCorpID_0Corel-Layer"/>
  <path class="fil0" d="M6268 4584c-210,-538 -661,-1002 -1208,-1198 -536,-192 -1113,-32 -1547,317 -211,170 -386,388 -488,640 -109,268 -110,564 -23,838 178,558 689,975 1220,1181 241,93 493,155 739,236 230,77 439,181 642,314 195,128 382,270 552,432 153,146 303,315 377,517 18,48 133,31 113,-24 -93,-253 -297,-458 -496,-633 -206,-181 -432,-341 -669,-478 -284,-164 -608,-243 -919,-339 -301,-93 -582,-212 -833,-405 -467,-357 -804,-946 -619,-1541 166,-529 693,-930 1224,-1037 794,-161 1550,507 1823,1205 18,47 134,30 112,-25z"/>
  <path class="fil0" d="M6177 4357c-108,-247 -115,-512 -27,-765 86,-246 249,-459 429,-644 187,-191 403,-354 628,-497 201,-128 407,-234 638,-295 471,-124 1021,-88 1441,171 423,261 639,796 583,1280 -58,493 -377,923 -709,1271 -354,371 -765,683 -1182,978 -393,279 -781,563 -1065,958 -144,200 -252,426 -298,668 -47,252 -16,507 72,746 10,29 114,72 99,30 -104,-285 -117,-588 -29,-879 82,-272 245,-513 432,-724 355,-400 818,-675 1242,-995 411,-311 811,-653 1123,-1066 285,-377 488,-837 412,-1318 -39,-245 -149,-486 -303,-681 -150,-188 -354,-326 -573,-421 -447,-193 -974,-200 -1435,-56 -222,69 -423,188 -616,316 -220,145 -426,312 -607,503 -176,188 -327,406 -403,654 -75,245 -54,502 48,736 12,28 117,69 100,30z"/>
  <path class="fil0" d="M9369 2340c62,-552 529,-973 999,-1209 230,-115 479,-189 734,-214 271,-25 568,-1 814,123 150,76 465,357 201,489 -93,47 -204,61 -307,73 -111,13 -224,17 -336,25 -23,2 11,43 15,46 16,17 41,37 65,35 183,-13 892,5 741,-344 -46,-106 -135,-197 -221,-271 -99,-85 -217,-144 -339,-186 -250,-86 -527,-95 -788,-62 -384,49 -752,220 -1058,455 -309,239 -570,577 -614,976 -4,33 91,92 94,64z"/>
  <path class="fil0" d="M11956 1674c162,19 394,65 404,266 10,185 -131,312 -287,379 -331,141 -715,106 -1066,130 -16,1 -53,13 -42,37 11,24 49,27 71,25 390,-27 822,12 1181,-174 167,-86 301,-264 250,-462 -53,-201 -337,-244 -508,-263 -18,-2 -59,4 -60,28 -1,26 39,32 57,34z"/>
  <path class="fil0" d="M11759 2480c126,2 190,69 208,192 17,119 12,248 -51,353 -119,201 -389,252 -602,270 -434,36 -940,-16 -1289,295 -117,104 -193,244 -244,389 -9,26 104,43 117,7 84,-239 243,-429 481,-524 212,-85 449,-93 675,-103 229,-11 463,-14 681,-96 100,-37 195,-94 264,-178 77,-93 92,-205 91,-322 -1,-83 -11,-176 -68,-241 -63,-73 -170,-89 -260,-91 -14,0 -59,-1 -60,21 -1,22 44,27 57,28z"/>
  <path class="fil0" d="M3149 4341c-195,-474 -663,-716 -1147,-799 -449,-77 -929,-29 -1356,131 -319,120 -737,395 -629,798 47,172 223,251 385,268 92,10 184,3 274,-16 46,-9 91,-23 135,-40 44,-17 97,-38 134,-67 20,-16 14,-41 -9,-50 -27,-10 -60,-3 -82,15 -20,16 -54,21 -77,33 -15,8 -33,16 -55,24 -51,16 -105,26 -159,30 -100,9 -207,-3 -296,-52 -200,-112 -172,-381 -61,-547 122,-185 346,-288 548,-358 200,-68 411,-109 622,-124 624,-45 1396,138 1658,775 19,47 132,21 115,-21z"/>
  <path class="fil0" d="M206 4651c-73,91 -123,209 -35,307 92,104 250,142 380,167 178,33 360,41 541,36 154,-5 312,-17 461,-56 36,-9 73,-20 107,-38 44,-24 -62,-67 -92,-51 -105,56 -240,66 -356,76 -173,15 -348,16 -521,-2 -128,-13 -284,-31 -390,-111 -106,-79 -58,-200 11,-286 26,-32 -83,-70 -106,-42z"/>
  <path class="fil0" d="M534 5049c-96,-10 -200,12 -234,113 -31,91 -5,193 33,278 102,226 314,384 560,409 241,25 484,-64 704,-153 275,-111 546,-256 843,-304 250,-40 493,23 721,127 71,32 62,-44 9,-68 -273,-125 -559,-192 -858,-132 -289,58 -555,201 -827,310 -219,88 -477,179 -715,123 -208,-48 -416,-285 -376,-509 16,-91 99,-118 182,-110 67,6 -3,-81 -42,-84z"/>
  <path class="fil0" d="M6629 8004c-19,-363 -459,-528 -754,-599 -204,-49 -413,-74 -622,-81 -175,-6 -354,-2 -525,34 -323,67 -677,393 -599,753 42,195 215,326 398,379 258,76 523,-10 766,-102 228,-87 450,-198 688,-253 119,-28 244,-50 365,-59 141,-11 280,18 385,118 5,6 41,37 46,15 5,-22 -21,-51 -35,-65 -105,-101 -227,-156 -372,-164 -141,-7 -286,28 -424,55 -270,51 -522,187 -778,281 -252,94 -524,160 -782,50 -80,-35 -143,-89 -171,-173 -26,-80 -14,-169 10,-248 57,-186 208,-339 378,-427 143,-74 309,-90 468,-98 203,-11 409,2 611,30 200,29 404,76 587,164 138,66 270,160 279,326 1,29 83,105 81,64z"/>
  <path class="fil0" d="M6537 7707c-136,-20 -270,-57 -404,-87 -198,-44 -397,-86 -598,-115 -194,-29 -392,-49 -588,-33 -137,11 -298,45 -389,159 -93,117 -72,270 43,361 123,96 324,57 463,31 400,-75 775,-241 1184,-273 149,-11 320,-6 447,83 9,6 40,23 34,-3 -6,-25 -29,-49 -50,-64 -217,-152 -506,-118 -753,-71 -185,36 -366,86 -546,140 -181,53 -365,105 -553,121 -71,6 -155,11 -222,-20 -3,-1 -21,-14 -16,-8 13,13 0,-5 -3,-16 -8,-34 -1,-72 8,-106 37,-141 182,-203 312,-229 185,-37 380,-21 566,0 362,42 712,141 1070,209 16,3 33,6 49,8 39,6 -27,-83 -54,-87z"/>
  <path class="fil0" d="M6692 7890c-10,-140 81,-269 171,-368 131,-145 294,-260 459,-362 361,-223 771,-400 1189,-480 150,-29 305,-44 448,13 88,34 189,89 218,186 23,77 -8,156 -49,221 -109,171 -312,292 -495,370 -95,41 -194,67 -297,77 -187,19 -376,26 -564,36 -300,18 -591,55 -881,135 -189,52 -404,142 -431,361 -4,36 104,78 109,33 32,-260 361,-317 568,-369 366,-92 748,-87 1122,-114 124,-8 244,-18 363,-56 99,-33 194,-79 284,-132 152,-90 334,-227 380,-408 52,-204 -159,-334 -319,-398 -152,-60 -304,-58 -463,-35 -412,60 -818,235 -1177,439 -194,111 -384,239 -540,400 -107,110 -215,256 -204,418 3,38 112,75 109,33z"/>
  <path class="fil0" d="M6735 7788c104,-132 234,-238 374,-328 114,-73 236,-127 353,-192 165,-90 350,-151 528,-206 101,-31 204,-58 308,-75 62,-10 145,-25 204,2 39,17 87,69 85,110 -2,33 -44,56 -82,74 -138,68 -308,89 -459,112 -137,21 -274,34 -411,50 -185,23 -372,63 -551,111 -201,55 -446,137 -568,319 -12,18 -22,37 -31,57 -25,58 89,49 109,5 85,-195 358,-265 543,-315 167,-44 341,-78 512,-98 145,-17 290,-31 433,-54 162,-25 329,-56 477,-126 99,-47 187,-139 108,-244 -99,-132 -280,-101 -421,-74 -214,41 -424,113 -625,195 -74,30 -148,61 -218,99 -122,67 -247,124 -364,200 -150,96 -289,212 -400,353 -44,55 66,64 96,25z"/>
  <path class="fil0" d="M6549 7962c-256,103 -506,251 -690,461 -141,161 -219,366 -248,576 -26,190 -4,395 94,563 102,177 284,281 484,311 52,7 105,9 157,7 63,-1 -6,-62 -30,-69 -51,-15 -167,-39 -168,-109 -2,-58 75,-104 115,-130 123,-78 283,-140 428,-159 70,-10 -24,-73 -57,-74 -154,-1 -291,-50 -355,-198 -61,-140 -41,-308 -2,-450 43,-159 121,-313 226,-439 80,-96 194,-197 326,-197 8,0 15,1 22,2 18,3 47,-3 36,-28 -11,-25 -43,-40 -68,-43 -301,-41 -517,304 -610,541 -110,276 -134,654 167,815 97,52 207,70 315,71 -19,-25 -38,-49 -57,-74 -174,24 -366,95 -507,198 -54,40 -107,99 -81,170 37,99 185,143 274,170 -11,-23 -21,-47 -31,-70 -195,5 -375,-58 -480,-230 -95,-158 -111,-353 -90,-533 23,-202 104,-404 236,-559 175,-206 425,-353 673,-453 51,-21 -44,-84 -79,-70z"/>
  <path class="fil0" d="M6719 8062c312,-346 1042,-387 1297,48 88,151 96,336 102,506 7,192 9,386 64,572 6,19 93,36 111,33 139,-25 268,-74 372,-174 -38,-11 -76,-21 -113,-32 -97,169 -198,342 -370,444 1,0 1,1 2,2 36,37 87,76 101,128 12,44 -16,100 -29,141 35,8 71,17 106,26 -163,-93 -358,-102 -541,-102 35,11 70,22 105,33 191,-344 92,-794 -66,-1130 -156,-332 -417,-633 -795,-692 -202,-32 -377,67 -508,214 4,-4 96,51 113,32 119,-134 278,-234 463,-216 73,8 141,54 198,95 74,54 140,120 198,190 256,304 413,737 382,1136 -9,118 -40,236 -98,340 -4,7 94,32 104,32 113,1 245,-10 346,47 9,6 102,39 106,26 16,-49 43,-105 23,-157 -7,-20 -24,-38 -39,-55 -10,-12 -21,-23 -32,-34 -27,-28 -3,-38 21,-54 146,-100 237,-264 323,-414 0,-1 -99,-46 -113,-32 -102,99 -229,147 -367,172 36,10 73,21 110,32 -60,-201 -57,-412 -66,-620 -7,-184 -29,-374 -144,-524 -143,-186 -406,-263 -626,-301 -264,-46 -567,22 -780,187 -27,21 -51,44 -73,69 5,-5 96,51 113,32z"/>
  <path class="fil0" d="M5299 8581c58,-87 157,-142 248,-188 129,-65 267,-113 404,-158 256,-83 519,-142 777,-220 3,-1 -51,-94 -81,-85 -253,77 -511,135 -763,216 -138,44 -276,94 -407,157 -94,46 -199,103 -259,193 -14,22 75,95 81,85z"/>
  <path class="fil0" d="M5226 8529c19,330 92,653 153,977 55,291 86,584 108,878 21,275 39,551 81,823 40,257 102,517 231,745 29,53 138,35 102,-30 -125,-220 -182,-472 -221,-720 -43,-270 -60,-543 -80,-815 -21,-282 -50,-564 -101,-842 -60,-331 -140,-660 -159,-996 -3,-60 -117,-85 -114,-20z"/>
  <path class="fil0" d="M5760 11872c204,-107 447,-146 669,-193 273,-58 547,-110 815,-187 274,-79 532,-208 792,-324 311,-139 625,-276 951,-378 214,-67 433,-117 657,-133 24,-2 57,-11 74,-30 19,-19 -16,-21 -28,-20 -661,48 -1279,347 -1875,614 -132,59 -264,120 -399,172 -120,46 -246,80 -371,110 -271,67 -547,115 -819,178 -181,42 -367,87 -533,174 -10,5 -38,26 -12,32 25,7 57,-4 79,-15z"/>
  <path class="fil0" d="M6816 7913c327,-103 670,-144 1011,-167 354,-24 708,-24 1062,-25 20,0 58,1 71,-18 13,-18 -35,-22 -42,-22 -365,0 -729,1 -1093,25 -360,24 -725,68 -1070,177 -72,23 31,40 61,30z"/>
  <path class="fil0" d="M8852 7728c382,915 444,1906 565,2878 4,31 105,46 106,52 -122,-975 -184,-1968 -567,-2885 -8,-18 -46,-31 -62,-38 -3,-1 -47,-19 -42,-7z"/>
  <path class="fil0" d="M6591 8084c-28,589 175,1158 293,1727 58,285 97,573 158,857 53,251 122,510 267,725 14,21 40,38 61,52 5,3 38,22 25,2 -143,-211 -207,-468 -261,-714 -60,-278 -98,-561 -154,-840 -115,-573 -324,-1144 -296,-1737 1,-16 -30,-36 -40,-44 -2,-1 -52,-34 -53,-28z"/>
  <path class="fil0" d="M6927 7886c230,1144 648,2245 837,3398 7,44 120,73 112,25 -190,-1153 -607,-2254 -838,-3398 -8,-43 -121,-71 -111,-25z"/>
  <path class="fil0" d="M8857 7728c279,-253 583,-485 813,-788 5,-7 -92,-70 -104,-54 -230,303 -534,535 -813,788 -2,2 85,72 104,54z"/>
  <path class="fil0" d="M9488 6950c128,1187 162,2393 445,3557 13,53 121,9 108,-46 -281,-1157 -313,-2357 -441,-3535 -6,-61 -118,-28 -112,24z"/>
  <path class="fil0" d="M9596 10758c3,-152 97,-304 165,-434 78,-150 161,-299 204,-464 17,-62 -85,-105 -104,-33 -44,172 -140,329 -220,485 -71,137 -146,283 -149,441 -2,67 103,80 104,5z"/>
  <path class="fil0" d="M9241 7003c65,-40 146,-35 218,-18 74,17 90,-78 22,-94 -112,-27 -222,-31 -324,31 -55,34 33,112 84,81z"/>
  <path class="fil0" d="M5706 11957c118,-137 327,-197 493,-249 238,-75 483,-129 726,-184 210,-48 425,-89 628,-162 343,-124 681,-262 1022,-392 322,-124 647,-240 980,-332 24,-6 28,-29 10,-44 -22,-18 -55,-25 -82,-17 -353,98 -699,222 -1041,354 -336,130 -669,274 -1012,387 -202,67 -413,107 -620,154 -243,55 -486,110 -723,187 -167,54 -369,120 -488,258 -30,36 80,73 107,40z"/>
  <path class="fil0" d="M8245 2285c-219,192 -440,392 -593,643 -9,14 30,57 40,40 152,-248 372,-447 589,-637 14,-12 -23,-58 -36,-46z"/>
  <path class="fil0" d="M8044 2515c176,-198 505,-82 708,2 248,101 489,244 695,415 18,15 73,5 46,-17 -225,-186 -488,-339 -759,-446 -221,-88 -559,-183 -744,25 -17,20 38,39 54,21z"/>
  <path class="fil0" d="M7639 2776c377,-161 833,-71 1164,154 171,116 310,279 378,475 78,224 43,465 -49,679 -8,16 29,59 36,43 169,-392 221,-817 173,-1240 -2,-16 -41,-57 -38,-25 48,416 -5,836 -171,1222 12,14 24,29 36,43 90,-208 123,-435 64,-656 -52,-191 -168,-358 -314,-489 -302,-271 -752,-400 -1150,-309 -55,13 -109,31 -161,54 -14,6 14,56 32,49z"/>
  <path class="fil0" d="M8882 4406c-218,248 -389,534 -595,793 -18,22 28,47 47,35 294,-197 593,-402 767,-719 7,-13 -2,-28 -14,-34 -89,-49 -140,-139 -221,-197 -30,-22 -53,17 -23,38 82,58 131,148 221,197 -4,-12 -9,-23 -13,-35 -173,315 -469,516 -760,710 16,12 31,23 47,35 203,-255 371,-538 587,-784 21,-23 -24,-60 -43,-39z"/>
  <path class="fil0" d="M3777 3845c-239,77 -353,291 -387,527 -37,260 18,522 158,743 135,215 348,368 573,477 123,60 253,103 380,153 126,49 251,100 375,155 386,172 758,384 1064,680 328,319 549,723 694,1154 7,21 63,4 57,-16 -164,-486 -425,-928 -814,-1267 -377,-328 -839,-541 -1301,-723 -201,-79 -404,-148 -589,-263 -179,-111 -332,-263 -431,-449 -104,-196 -137,-417 -112,-636 25,-214 122,-435 341,-506 34,-11 25,-40 -8,-29z"/>
  <path class="fil0" d="M3487 3917c-851,445 150,1492 588,1840 134,106 275,190 432,256 273,117 564,180 838,292 290,117 542,308 762,527 214,213 399,461 530,733 7,15 52,28 51,26 -140,-291 -339,-550 -569,-776 -219,-215 -473,-398 -755,-521 -313,-137 -652,-200 -961,-345 -173,-82 -323,-203 -464,-331 -395,-360 -1168,-1270 -406,-1669 9,-4 -34,-38 -46,-32z"/>
  <path class="fil0" d="M3412 4337c-155,372 -78,818 74,1178 14,32 63,24 48,-11 -147,-348 -224,-778 -74,-1137 12,-29 -34,-63 -48,-30z"/>
  <path class="fil0" d="M3607 4837c-71,175 -60,372 -21,552 42,192 123,380 246,533 21,26 67,-10 45,-37 -118,-147 -192,-326 -234,-508 -39,-170 -49,-360 17,-525 14,-35 -41,-46 -53,-15z"/>
  <path class="fil0" d="M3801 5238c-23,315 139,654 370,864 12,10 60,0 57,-3 -231,-209 -391,-545 -368,-860 0,-10 -58,-12 -59,-1z"/>
  <path class="fil0" d="M4222 5446c54,315 192,659 470,841 16,10 66,-18 50,-28 -276,-180 -412,-522 -466,-834 -3,-17 -58,1 -54,21z"/>
  <path class="fil0" d="M4738 5640c54,354 274,646 495,915 12,16 67,-4 52,-23 -219,-268 -437,-557 -491,-907 -3,-21 -60,-7 -56,15z"/>
  <path class="fil0" d="M5289 6040c139,404 510,663 749,1003 20,29 38,14 18,-14 -229,-327 -595,-579 -729,-966 -5,-14 -48,-52 -38,-23z"/>
  <path class="fil0" d="M1124 4579c336,-227 817,-144 1127,90 13,10 51,3 56,6 -175,-132 -386,-202 -601,-230 -218,-28 -452,-1 -637,123 2,-1 43,19 55,11z"/>
  <path class="fil0" d="M1861 5128c131,-198 441,-166 627,-75 25,12 60,-5 24,-23 -203,-98 -557,-147 -702,73 -13,20 41,41 51,25z"/>
  <path class="fil0" d="M11261 1726c-235,-128 -522,-49 -748,61 -228,110 -478,294 -577,535 -12,29 43,45 53,21 93,-223 313,-388 519,-499 206,-111 495,-208 718,-87 25,14 69,-13 35,-31z"/>
  <path class="fil0" d="M10684 2491c-239,6 -425,200 -528,400 -6,12 48,32 56,16 99,-192 278,-383 507,-389 30,0 -21,-27 -35,-27z"/>
  <path class="fil0" d="M6940 7880c6,15 -12,48 -17,62 -16,41 -35,81 -53,122 -52,114 -106,227 -157,342 -44,99 -88,200 -117,304 -17,61 -27,122 26,168 20,16 -11,-32 -18,-38 27,23 13,21 14,-7 0,-14 3,-28 6,-43 9,-44 24,-87 39,-130 40,-108 87,-212 135,-317 43,-94 88,-188 130,-283 14,-32 61,-106 48,-143 -5,-12 -39,-46 -36,-37z"/>
  <path class="fil0" d="M7005 7986c-56,49 -85,131 -111,198 -44,113 -76,232 -104,349 -55,223 -106,458 -107,688 0,20 57,30 57,14 1,-225 51,-454 103,-673 27,-115 59,-230 100,-341 26,-72 56,-162 115,-214 14,-12 -39,-33 -53,-21z"/>
  <path class="fil0" d="M7089 8366c-60,54 -87,148 -112,222 -44,130 -76,264 -107,398 -51,222 -93,445 -131,669 -3,22 39,62 43,33 36,-211 76,-422 122,-630 30,-133 62,-266 103,-396 24,-78 51,-190 115,-247 19,-16 -15,-64 -33,-49z"/>
  <path class="fil0" d="M7226 8679c-65,50 -104,131 -138,204 -53,116 -91,239 -124,361 -34,127 -60,256 -78,385 -12,92 -23,190 -6,282 3,14 57,13 57,13 -16,-88 -6,-181 5,-269 15,-124 41,-248 72,-369 30,-121 68,-241 117,-356 34,-82 77,-179 150,-236 1,-1 -44,-24 -55,-15z"/>
  <path class="fil0" d="M7372 9030c-145,149 -217,372 -269,568 -53,200 -100,434 -51,639 2,9 58,1 58,2 -47,-201 -2,-428 48,-624 50,-200 125,-431 273,-583 -7,7 -48,-13 -59,-2z"/>
  <path class="fil0" d="M7446 9447c-116,168 -193,367 -256,560 -60,186 -119,400 -89,597 2,10 59,7 59,6 -31,-198 30,-410 89,-597 61,-194 139,-392 255,-560 -2,3 -50,-17 -58,-6z"/>
  <path class="fil0" d="M7623 9680c-156,143 -244,358 -311,554 -68,199 -123,420 -108,631 1,17 51,41 50,26 -14,-210 41,-427 107,-625 66,-196 156,-411 311,-554 9,-9 -35,-44 -49,-32z"/>
  <path class="fil0" d="M7719 9932c-238,348 -343,779 -421,1188 -5,28 53,38 58,9 77,-405 181,-831 417,-1176 17,-26 -38,-44 -54,-21z"/>
  <path class="fil0" d="M7896 10100c-275,429 -423,921 -523,1417 -7,36 50,35 57,3 98,-486 241,-970 511,-1391 21,-32 -26,-58 -45,-29z"/>
  <path class="fil0" d="M7992 10497c-84,271 -262,504 -417,736 -6,10 40,-10 47,-20 156,-235 335,-469 420,-742 1,-1 -46,12 -50,26z"/>
  <path class="fil0" d="M4484 7627c-300,128 -268,611 -31,783 29,21 66,-16 35,-38 -117,-86 -165,-231 -161,-372 3,-125 56,-270 179,-323 34,-14 9,-64 -22,-50z"/>
  <path class="fil0" d="M4178 7934c168,326 652,311 961,279 217,-23 432,-72 639,-138 169,-54 341,-121 488,-222 24,-17 48,-35 70,-55 22,-21 -12,-68 -37,-45 -116,106 -273,170 -419,225 -205,77 -420,130 -636,163 -204,31 -414,44 -618,10 -157,-26 -328,-89 -405,-239 -17,-33 -60,-11 -43,22z"/>
  <path class="fil0" d="M4474 7808c-124,167 -19,478 180,534 32,9 62,-41 27,-50 -160,-45 -270,-311 -165,-451 23,-30 -20,-62 -42,-33z"/>
  <path class="fil0" d="M4839 7961c-25,112 19,204 126,250 13,5 54,-30 46,-34 -105,-45 -146,-133 -121,-243 1,-6 -47,11 -51,27z"/>
  <path class="fil0" d="M5157 7988c0,40 8,77 37,106 32,33 84,47 127,58 2,0 22,4 11,-1 -11,-7 -25,-10 -37,-14 -61,-16 -82,-75 -82,-131 0,-11 -56,-17 -56,-18z"/>
  <path class="fil0" d="M5500 8070c1,80 36,137 113,164 12,4 30,4 40,-6 10,-10 0,-21 -10,-25 -62,-22 -83,-69 -84,-132 0,-25 -59,-25 -59,-1z"/>
  <path class="fil0" d="M7763 6962c208,-76 419,-145 639,-177 194,-28 528,-34 568,221 29,182 -142,332 -274,425 -166,117 -361,203 -557,258 -69,20 -141,37 -213,38 4,0 18,48 34,47 168,-1 342,-72 493,-140 179,-80 367,-189 484,-351 98,-134 85,-292 -21,-418 -137,-162 -371,-153 -563,-126 -214,31 -421,101 -624,175 -2,1 23,52 34,48z"/>
  <path class="fil0" d="M8707 6937c123,2 202,61 243,177 9,27 67,25 55,-7 -49,-138 -153,-215 -299,-217 -38,-1 -33,46 1,47z"/>
  <path class="fil0" d="M8734 7096c3,82 49,152 75,227 5,14 51,47 41,18 -25,-72 -69,-139 -72,-217 -1,-16 -45,-51 -44,-28z"/>
  <path class="fil0" d="M8536 7221c1,85 24,170 50,251 6,17 54,46 44,15 -26,-78 -47,-159 -48,-241 -1,-18 -47,-51 -46,-25z"/>
  <path class="fil0" d="M8285 7297c-26,57 -26,117 -26,179 0,31 58,38 58,8 0,-57 -2,-115 23,-167 14,-30 -42,-47 -55,-20z"/>
  <path class="fil0" d="M8061 7356c-1,92 -27,182 -49,271 -2,10 55,17 59,1 22,-89 47,-179 49,-271 0,-14 -58,-15 -59,-1z"/>
  <path class="fil0" d="M7770 7367c-48,76 -50,161 -50,249 0,18 52,41 52,22 0,-85 2,-168 49,-242 9,-15 -41,-45 -51,-29z"/>
  <path class="fil0" d="M7508 7480c-60,31 -101,85 -124,149 -4,13 33,49 34,46 22,-63 63,-115 123,-146 5,-3 -24,-54 -33,-49z"/>
  <path class="fil0" d="M7228 7563c-69,71 -127,151 -197,222 -6,6 40,40 51,30 69,-71 127,-151 197,-222 6,-6 -40,-41 -51,-30z"/>
  <path class="fil0" d="M9024 7536c-52,159 -73,326 -74,493 0,20 55,2 55,-15 1,-167 22,-333 74,-492 5,-16 -50,-3 -55,14z"/>
  <path class="fil0" d="M9349 7166c-93,186 -187,373 -261,568 -72,188 -136,397 -109,600 3,23 51,50 46,15 -26,-202 42,-409 113,-595 73,-189 165,-370 255,-552 11,-21 -31,-61 -44,-36z"/>
  <path class="fil0" d="M9516 7155c-89,232 -183,462 -254,700 -66,219 -144,490 -67,716 10,28 67,13 57,-15 -76,-223 5,-492 69,-707 70,-233 163,-458 250,-685 13,-32 -44,-36 -55,-9z"/>
  <path class="fil0" d="M9614 7459c-140,189 -223,422 -290,646 -72,236 -128,486 -129,734 0,5 57,1 58,-10 1,-243 55,-486 123,-718 67,-228 152,-467 294,-660 1,0 -47,-4 -56,8z"/>
  <path class="fil0" d="M9613 7943c-62,229 -153,450 -224,677 -68,214 -138,455 -95,682 4,20 61,25 57,1 -42,-224 30,-462 96,-673 70,-227 162,-448 224,-677 6,-22 -51,-33 -58,-10z"/>
  <path class="fil0" d="M9693 8279c-68,232 -167,453 -236,685 -65,214 -129,461 -58,682 8,26 56,38 44,1 -72,-225 6,-484 75,-701 68,-215 159,-423 222,-641 7,-23 -39,-57 -47,-26z"/>
  <path class="fil0" d="M9716 8746c-66,237 -159,467 -226,704 -35,121 -66,244 -78,369 -8,76 -11,168 40,231 20,24 60,12 36,-18 -48,-60 -29,-170 -20,-239 17,-125 52,-248 87,-368 65,-219 150,-431 211,-650 6,-24 -42,-56 -50,-29z"/>
  <path class="fil0" d="M9713 9269c-47,200 -130,391 -193,587 -60,183 -120,390 -79,584 7,32 65,24 58,-10 -41,-190 23,-394 81,-573 62,-190 142,-376 189,-571 8,-34 -48,-50 -56,-17z"/>
  <path class="fil0" d="M9794 9626c-94,113 -143,261 -184,400 -42,143 -72,291 -88,440 -1,14 43,41 43,37 16,-154 48,-305 92,-453 39,-133 89,-275 179,-383 7,-8 -37,-47 -42,-41z"/>
  <path class="fil0" d="M7891 2617c-76,130 -121,272 -123,423 -1,19 55,36 55,13 2,-147 48,-287 123,-414 9,-16 -44,-40 -55,-22z"/>
  <path class="fil0" d="M8067 2618c-108,113 -151,277 -153,430 0,31 58,24 58,-3 2,-145 40,-300 143,-407 24,-27 -29,-39 -48,-20z"/>
  <path class="fil0" d="M8242 2660c-129,160 -180,359 -229,554 -9,36 49,42 57,10 46,-185 92,-379 214,-530 24,-29 -20,-61 -42,-34z"/>
  <path class="fil0" d="M8384 2797c-95,133 -126,314 -149,473 -4,26 54,20 57,-3 23,-155 52,-333 146,-463 17,-24 -41,-25 -54,-7z"/>
  <path class="fil0" d="M8616 2875c-119,172 -173,371 -223,571 -5,19 30,64 36,38 50,-197 102,-393 220,-562 12,-16 -20,-65 -33,-47z"/>
  <path class="fil0" d="M8778 2969c-174,279 -221,609 -322,917 -8,24 50,19 58,-4 100,-304 146,-630 318,-906 16,-26 -42,-26 -54,-7z"/>
  <path class="fil0" d="M8902 3206c-172,250 -242,549 -320,837 -6,22 47,46 52,27 79,-289 149,-588 320,-838 12,-17 -39,-45 -52,-26z"/>
  <path class="fil0" d="M9047 3484c-177,181 -266,429 -345,665 -2,6 55,22 58,12 79,-236 167,-484 345,-665 -2,1 -47,-24 -58,-12z"/>
  <path class="fil0" d="M9082 3736c-178,206 -301,452 -422,694 -15,29 37,6 44,-9 119,-238 239,-481 415,-684 25,-29 -24,-16 -37,-1z"/>
  <path class="fil0" d="M8954 4190c-318,440 -656,865 -936,1330 -19,32 30,56 47,28 281,-466 618,-891 936,-1330 22,-31 -28,-54 -47,-28z"/>
  <path class="fil0" d="M6641 2775c-280,171 -421,505 -487,813 -67,310 -76,684 86,968 8,13 61,-7 57,-14 -155,-273 -150,-623 -95,-922 57,-313 199,-670 482,-844 23,-14 -33,-7 -43,-1z"/>
  <path class="fil0" d="M6993 2513c-383,140 -571,549 -670,917 -104,388 -140,825 -59,1221 5,23 63,21 58,-7 -77,-376 -43,-785 46,-1156 88,-366 271,-802 653,-942 36,-13 -3,-43 -28,-33z"/>
  <path class="fil0" d="M4558 3417c402,-110 766,119 1031,404 261,280 465,632 587,994 6,20 49,46 37,10 -128,-383 -345,-749 -620,-1044 -271,-291 -652,-526 -1062,-415 -22,6 8,56 27,51z"/>
  <path class="fil0" d="M9912 3181c-80,580 -328,1106 -711,1546 -370,427 -843,750 -1295,1081 -369,270 -738,552 -1017,917 -136,179 -245,378 -319,591 -41,118 -69,241 -88,364 -22,143 -42,287 -43,432 0,24 52,48 52,16 0,-90 4,-178 25,-266 16,-71 15,-149 28,-222 23,-132 61,-261 110,-385 93,-238 237,-453 405,-645 345,-392 787,-685 1205,-992 405,-299 803,-613 1113,-1013 316,-407 516,-887 586,-1397 4,-25 -47,-54 -51,-27z"/>
  <path class="fil0" d="M3419 3935c-181,200 -248,492 -278,754 -31,264 -24,556 82,804 14,33 46,16 32,-16 -102,-240 -101,-524 -71,-778 29,-249 97,-528 269,-718 16,-17 -16,-66 -34,-46z"/>
  <path class="fil0" d="M3412 4238c-157,257 -146,606 -115,895 31,295 96,625 262,877 16,25 70,15 50,-16 -161,-246 -223,-566 -255,-853 -17,-157 -21,-317 -7,-475 13,-136 41,-279 114,-397 17,-28 -34,-56 -49,-31z"/>
  <path class="fil0" d="M3505 4942c-55,220 42,458 133,654 103,220 234,424 361,630 9,14 65,8 57,-5 -124,-201 -251,-401 -354,-614 -95,-198 -194,-440 -138,-663 3,-13 -54,-19 -59,-2z"/>
  <path class="fil0" d="M4024 5339c-147,384 166,761 419,1016 12,12 65,-6 55,-16 -251,-252 -562,-625 -418,-1004 6,-15 -51,-11 -56,4z"/>
  <path class="fil0" d="M3876 5124c-22,272 81,521 271,714 10,10 55,-18 56,-17 -190,-193 -293,-442 -271,-714 0,0 -55,4 -56,17z"/>
  <path class="fil0" d="M4294 5083c-13,212 32,428 96,628 62,199 152,406 299,556 11,12 55,10 56,11 -147,-150 -235,-355 -298,-552 -65,-200 -109,-417 -96,-628 1,-12 -56,-20 -57,-15z"/>
  <path class="fil0" d="M4639 5361c-71,166 -14,367 50,526 74,181 177,362 324,495 14,12 69,-3 48,-21 -135,-123 -232,-293 -304,-459 -69,-160 -134,-371 -61,-540 9,-20 -49,-20 -57,-1z"/>
  <path class="fil0" d="M4987 5654c-128,322 75,681 323,884 22,17 68,-18 45,-37 -234,-191 -438,-535 -317,-841 13,-34 -41,-32 -51,-6z"/>
  <path class="fil0" d="M5363 5784c-28,165 -2,342 54,499 56,157 146,315 291,405 25,16 0,-35 -12,-42 -132,-83 -207,-230 -254,-374 -46,-142 -66,-299 -41,-446 3,-17 -36,-54 -38,-42z"/>
  <path class="fil0" d="M5676 6065c-20,246 125,451 222,665 2,5 55,-21 51,-28 -96,-214 -241,-419 -221,-665 -1,4 -51,13 -52,28z"/>
  <path class="fil0" d="M5919 6248c-24,266 39,572 198,790 9,12 62,4 57,-3 -159,-217 -220,-522 -196,-786 1,-11 -58,-14 -59,-1z"/>
  <path class="fil0" d="M6165 6516c-21,244 52,472 149,693 7,17 64,17 57,-1 -97,-218 -169,-444 -147,-686 1,-18 -57,-24 -59,-6z"/>
  <path class="fil0" d="M6338 6743c2,213 50,422 124,621 9,25 65,9 56,-15 -72,-196 -121,-402 -123,-611 0,-28 -57,-19 -57,5z"/>
  <path class="fil0" d="M6511 6587c-46,322 48,640 74,960 2,24 58,40 56,13 -26,-320 -120,-638 -74,-960 4,-24 -52,-42 -56,-13z"/>
  <path class="fil0" d="M6622 6800c25,505 71,1025 -74,1518 -5,16 28,58 31,47 147,-499 101,-1023 75,-1535 -1,-14 -34,-60 -32,-30z"/>
  <path class="fil0" d="M4086 3466c-250,45 -452,228 -599,425 -146,194 -264,439 -266,686 -1,16 37,48 37,43 2,-247 120,-487 263,-682 144,-195 349,-380 595,-424 13,-2 -16,-51 -30,-48z"/>
  <path class="fil0" d="M5702 3806c-299,-89 -592,-203 -904,-240 -273,-32 -547,-4 -799,108 -478,213 -792,710 -729,1236 3,28 8,56 14,83 2,12 60,6 58,-2 -96,-501 150,-989 582,-1247 252,-150 536,-195 825,-167 311,30 605,149 903,237 12,4 61,-5 50,-8z"/>
  <path class="fil0" d="M159 4463c49,118 137,181 253,228 21,8 67,-26 39,-38 -110,-44 -192,-102 -239,-215 -9,-22 -63,2 -53,25z"/>
  <path class="fil0" d="M232 4363c91,143 254,227 401,301 17,9 66,-21 41,-33 -141,-71 -301,-153 -388,-290 -12,-19 -65,5 -54,22z"/>
  <path class="fil0" d="M533 4371c62,89 151,145 255,172 30,8 -9,-34 -23,-38 -77,-20 -143,-57 -189,-123 -7,-11 -19,-21 -33,-25 -10,-2 -17,4 -10,14z"/>
  <path class="fil0" d="M813 4423c51,50 102,98 177,101 -6,0 -18,-48 -33,-49 -72,-2 -120,-48 -168,-96 -9,-8 0,10 1,12 6,11 14,23 23,32z"/>
  <path class="fil0" d="M969 4349c2,83 63,131 137,157 14,5 66,0 31,-12 -63,-22 -108,-70 -110,-139 0,-15 -58,-17 -58,-6z"/>
  <path class="fil0" d="M1222 4443c39,39 80,77 129,102 28,15 66,-25 33,-42 -45,-23 -82,-59 -117,-95 -22,-22 -70,10 -45,35z"/>
  <path class="fil0" d="M1425 4361c36,68 97,115 169,141 13,4 18,-13 16,-22 -2,-15 -12,-27 -26,-32 -54,-19 -100,-54 -127,-105 -16,-33 -48,-13 -32,18z"/>
  <path class="fil0" d="M1636 4441c2,79 26,152 51,226 5,16 59,34 51,10 -24,-71 -46,-142 -48,-217 0,-19 -54,-39 -54,-19z"/>
  <path class="fil0" d="M332 4906c108,107 227,201 345,296 12,10 62,-16 51,-25 -118,-95 -237,-189 -345,-296 -10,-10 -62,14 -51,25z"/>
  <path class="fil0" d="M653 5005c52,49 134,78 200,101 17,6 67,-22 43,-30 -64,-23 -142,-50 -193,-97 -14,-13 -66,12 -50,26z"/>
  <path class="fil0" d="M856 4944c40,101 146,147 249,149 26,1 5,-54 -17,-54 -69,-2 -167,-25 -195,-97 -10,-27 -51,-35 -37,2z"/>
  <path class="fil0" d="M1129 4983c44,42 104,64 160,83 36,12 39,-39 9,-49 -45,-15 -100,-31 -135,-65 -27,-25 -61,6 -34,31z"/>
  <path class="fil0" d="M1343 4920c30,56 82,86 138,114 10,5 27,10 35,-2 7,-12 -5,-27 -15,-32 -41,-20 -86,-41 -109,-83 -6,-12 -21,-22 -35,-21 -13,0 -21,12 -14,24z"/>
  <path class="fil0" d="M1537 4885c13,26 29,50 52,67 26,19 59,29 91,30 10,0 13,-5 5,-13 -10,-8 -26,-15 -39,-15 -13,-1 -16,0 -25,-8 -13,-11 -22,-29 -29,-44 -6,-11 -21,-16 -31,-20 -2,0 -29,-6 -24,3z"/>
  <path class="fil0" d="M1737 4907c49,25 98,50 147,74 15,8 61,-22 50,-27 -49,-25 -98,-49 -148,-74 -15,-8 -60,22 -49,27z"/>
  <path class="fil0" d="M482 5438c34,248 316,392 547,346 32,-7 16,-62 -13,-57 -202,41 -457,-72 -487,-294 -5,-34 -52,-33 -47,5z"/>
  <path class="fil0" d="M805 5415c-38,97 68,176 145,212 121,55 281,86 412,51 8,-2 -25,-45 -38,-42 -89,24 -186,13 -275,-7 -81,-17 -246,-60 -202,-173 5,-15 -41,-45 -42,-41z"/>
  <path class="fil0" d="M1094 5423c102,126 320,147 470,148 16,0 43,-25 51,-25 -150,-1 -365,-21 -467,-147 -6,-8 -54,23 -54,24z"/>
  <path class="fil0" d="M1542 5394c67,62 163,59 249,59 39,0 20,-35 -9,-35 -65,0 -144,8 -195,-40 -16,-14 -71,-7 -45,16z"/>
  <path class="fil0" d="M1758 5293c23,19 58,21 87,20 39,-1 79,-8 114,-25 12,-5 -8,-7 -11,-7 -13,0 -28,1 -40,6 -29,14 -67,19 -94,-4 -7,-6 -28,-2 -36,0 -2,0 -26,4 -20,10z"/>
  <path class="fil0" d="M1994 5282c43,-2 81,-24 123,-25 14,0 29,-8 37,-19 7,-9 3,-18 -9,-18 -43,1 -81,23 -123,25 -14,0 -29,7 -37,18 -7,10 -3,19 9,19z"/>
  <path class="fil0" d="M2264 5232c33,0 66,0 98,0 14,0 29,-7 38,-18 8,-9 4,-18 -8,-18 -33,0 -66,0 -99,0 -13,0 -29,7 -37,17 -8,9 -4,19 8,19z"/>
  <path class="fil0" d="M2593 5225c32,0 59,1 88,15 12,6 27,10 40,9 12,-1 -5,-11 -8,-12 -51,-25 -101,-34 -157,-34 -10,0 -13,4 -3,10 11,6 27,12 40,12z"/>
  <path class="fil0" d="M12185 1418c-20,21 -39,42 -44,71 -5,27 20,52 37,70 15,15 63,-17 51,-29 -14,-15 -32,-32 -36,-53 -3,-21 16,-39 29,-53 6,-6 14,-19 0,-21 -13,-2 -28,6 -37,15z"/>
  <path class="fil0" d="M12152 1261c116,173 -51,363 -220,410 -31,8 -35,53 2,42 192,-52 407,-272 272,-476 -16,-24 -68,2 -54,24z"/>
  <path class="fil0" d="M12031 1308c-124,154 -181,349 -320,493 -19,19 33,46 49,29 140,-144 196,-339 321,-493 17,-21 -35,-47 -50,-29z"/>
  <path class="fil0" d="M11836 1452c-82,81 -175,150 -267,219 -22,16 20,56 38,42 95,-71 190,-141 275,-224 17,-17 -28,-54 -46,-37z"/>
  <path class="fil0" d="M11663 1429c-88,88 -174,176 -249,275 -14,18 38,45 53,25 73,-96 158,-182 243,-267 19,-19 -31,-48 -47,-33z"/>
  <path class="fil0" d="M11498 1501c-112,85 -207,186 -281,306 -19,32 35,43 52,16 68,-111 157,-205 261,-284 31,-23 -4,-60 -32,-38z"/>
  <path class="fil0" d="M11255 1625c-113,60 -205,153 -282,255 -22,29 31,40 48,19 71,-94 154,-183 259,-238 34,-18 5,-51 -25,-36z"/>
  <path class="fil0" d="M12249 1910c-72,193 -141,404 -314,532 -29,22 22,43 44,27 179,-133 252,-351 327,-552 11,-28 -47,-32 -57,-7z"/>
  <path class="fil0" d="M12029 2101c-106,131 -226,250 -345,369 -16,16 39,35 54,20 119,-119 239,-238 345,-369 15,-19 -40,-37 -54,-20z"/>
  <path class="fil0" d="M11795 2265c-106,55 -201,126 -296,197 -30,23 3,57 30,36 95,-71 190,-142 296,-197 34,-17 -1,-51 -30,-36z"/>
  <path class="fil0" d="M11456 2369c-114,31 -210,103 -266,208 -9,17 48,20 57,3 47,-89 129,-159 227,-186 38,-10 8,-32 -18,-25z"/>
  <path class="fil0" d="M11205 2384c-88,32 -156,103 -208,179 -18,27 33,55 49,31 47,-68 107,-136 186,-166 35,-12 0,-54 -27,-44z"/>
  <path class="fil0" d="M10979 2433c-102,27 -197,75 -273,149 -10,10 30,52 40,42 76,-72 168,-120 269,-146 13,-4 -21,-48 -36,-45z"/>
  <path class="fil0" d="M11860 2742c167,153 9,390 -173,435 -28,7 -39,44 -1,35 204,-51 422,-319 221,-501 -15,-14 -65,15 -47,31z"/>
  <path class="fil0" d="M11785 2883c-123,150 -222,318 -345,468 -15,19 33,52 49,32 124,-150 222,-318 345,-468 16,-19 -33,-52 -49,-32z"/>
  <path class="fil0" d="M11562 3036c-88,60 -160,139 -224,223 -3,5 47,31 56,18 63,-83 134,-161 220,-220 7,-4 -40,-29 -52,-21z"/>
  <path class="fil0" d="M11376 3071c-74,49 -148,98 -222,147 -6,5 25,54 30,51 74,-49 148,-99 222,-148 7,-4 -25,-54 -30,-50z"/>
  <path class="fil0" d="M11132 3095c-121,26 -224,77 -301,176 -11,14 24,60 37,43 73,-94 174,-144 290,-168 20,-4 -9,-55 -26,-51z"/>
  <path class="fil0" d="M10879 3123c-103,2 -175,59 -222,148 -5,10 40,42 39,44 47,-89 119,-146 222,-148 -9,0 -24,-44 -39,-44z"/>
  <path class="fil0" d="M10631 3248c-89,1 -153,41 -203,114 -18,26 40,30 54,9 36,-52 77,-82 142,-82 31,-1 46,-42 7,-41z"/>
  <path class="fil0" d="M10422 3314c-107,29 -165,102 -193,207 0,0 54,2 58,-13 21,-82 65,-163 152,-187 40,-10 2,-13 -17,-7z"/>
  <path class="fil0" d="M10327 3375c-56,1 -114,17 -151,62 -37,46 -27,113 -17,166 1,8 54,-13 50,-29 -7,-39 -11,-78 -3,-116 10,-44 41,-49 82,-50 14,0 56,-34 39,-33z"/>
  <path class="fil0" d="M10166 3518c-111,59 -179,165 -158,293 5,29 62,33 56,-1 -18,-111 43,-199 138,-249 31,-17 -9,-57 -36,-43z"/>
  <path class="fil0" d="M9428 2305c250,18 401,294 477,502 80,218 130,501 30,721 -11,25 43,47 55,22 110,-243 45,-556 -50,-793 -90,-225 -262,-477 -526,-496 -39,-2 -14,42 14,44z"/>
  <path class="fil0" d="M9473 2146c34,76 112,129 177,177 110,79 208,151 275,272 132,237 162,537 163,804 0,15 45,40 45,34 -1,-268 -35,-554 -158,-796 -47,-93 -112,-168 -192,-235 -47,-39 -98,-73 -147,-108 -45,-33 -97,-67 -120,-120 -5,-11 -48,-40 -43,-28z"/>
  <path class="fil0" d="M9557 2105c207,110 384,257 484,473 101,220 120,473 140,711 3,28 58,41 55,7 -21,-248 -43,-506 -149,-735 -103,-224 -293,-380 -507,-494 -32,-17 -55,21 -23,38z"/>
  <path class="fil0" d="M2964 4180c-62,172 -93,356 -99,538 -6,179 19,373 124,523 8,10 60,0 57,-5 -109,-154 -128,-353 -122,-536 5,-176 39,-355 98,-521 1,-2 -54,-12 -58,1z"/>
  <path class="fil0" d="M2849 4283c-286,269 -102,714 44,1007 13,26 68,28 52,-5 -137,-275 -325,-707 -54,-962 23,-22 -21,-60 -42,-40z"/>
  <path class="fil0" d="M179 3734c326,-373 818,-703 1336,-610 35,7 32,-51 1,-56 -531,-96 -1039,238 -1374,621 -21,24 15,71 37,45z"/>
  <path class="fil0" d="M224 3540c406,-255 804,-633 1317,-614 37,2 31,-53 -2,-55 -526,-20 -926,356 -1343,618 -30,19 0,68 28,51z"/>
  <path class="fil0" d="M409 6038c-10,150 129,238 252,285 158,61 331,78 497,96 26,3 -7,-44 -25,-46 -134,-15 -269,-31 -400,-66 -121,-33 -289,-91 -279,-243 2,-18 -43,-53 -45,-26z"/>
  <path class="fil0" d="M258 6089c108,434 629,567 1021,545 13,-1 59,-34 30,-33 -386,22 -893,-114 -999,-539 -3,-11 -56,10 -52,27z"/>
  <path class="fil0" d="M10186 677c71,-164 237,-270 391,-348 160,-81 335,-139 512,-170 22,-3 51,-44 13,-37 -192,33 -380,99 -554,187 -165,84 -338,203 -414,378 -11,25 44,8 52,-10z"/>
  <path class="fil0" d="M9840 771c172,-226 415,-390 666,-515 256,-128 542,-219 830,-221 20,0 -23,-35 -38,-35 -292,2 -579,95 -838,223 -253,123 -499,293 -671,519 -9,11 41,43 51,29z"/>
  <path class="fil0" d="M12401 2786c22,403 -246,807 -542,1057 -4,4 38,42 49,32 298,-251 564,-656 542,-1061 -1,-14 -50,-35 -49,-28z"/>
  <path class="fil0" d="M12547 2689c39,375 -143,747 -342,1052 -205,315 -473,623 -795,823 -29,18 -19,37 11,19 324,-203 591,-501 805,-815 215,-314 413,-710 373,-1102 -2,-17 -53,8 -52,23z"/>
  <path class="fil0" d="M5427 8509c-45,222 -7,448 45,665 26,109 57,218 85,327 32,125 46,255 65,382 78,522 145,1045 248,1562 6,28 64,30 58,-1 -100,-503 -167,-1011 -242,-1518 -18,-123 -29,-250 -58,-372 -25,-108 -56,-214 -83,-322 -59,-231 -109,-475 -61,-713 6,-29 -51,-40 -57,-10z"/>
  <path class="fil0" d="M7328 7806c88,121 143,262 219,390 11,19 69,22 54,-4 -78,-131 -135,-275 -225,-399 -15,-20 -69,-15 -48,13z"/>
  <path class="fil0" d="M7569 7921c2,103 26,202 51,302 7,30 64,26 55,-9 -23,-95 -46,-190 -48,-289 0,-31 -58,-38 -58,-4z"/>
  <path class="fil0" d="M7721 7958c1,160 25,320 74,472 6,17 57,43 49,20 -48,-150 -72,-307 -73,-464 0,-19 -50,-47 -50,-28z"/>
  <path class="fil0" d="M7868 8249c-24,129 -22,254 25,378 7,19 59,-8 51,-29 -45,-118 -47,-238 -24,-361 5,-28 -48,-8 -52,12z"/>
  <path class="fil0" d="M7965 8530c-70,196 -26,384 23,579 8,30 66,24 58,-8 -47,-185 -92,-367 -26,-554 11,-31 -45,-46 -55,-17z"/>
  <path class="fil0" d="M8067 8990c-75,154 -98,323 -99,492 0,15 48,28 48,34 1,-170 24,-339 99,-493 3,-7 -47,-35 -48,-33z"/>
  <path class="fil0" d="M6145 8303c-141,178 -99,458 -27,655 8,23 65,28 54,-2 -67,-186 -110,-457 23,-625 18,-22 -35,-47 -50,-28z"/>
  <path class="fil0" d="M6044 8668c-146,156 -22,357 48,519 4,8 59,-12 57,-16 -70,-159 -195,-361 -50,-516 -3,3 -44,1 -55,13z"/>
  <path class="fil0" d="M5899 8942c-45,198 79,356 172,518 9,15 46,23 50,28 -94,-161 -216,-318 -172,-515 2,-11 -50,-31 -50,-31z"/>
  <path class="fil0" d="M5824 9195c-130,224 79,464 252,590 21,16 69,-9 40,-30 -156,-114 -358,-341 -240,-543 16,-29 -40,-38 -52,-17z"/>
  <path class="fil0" d="M5725 9830c98,645 125,1306 346,1925 7,20 58,-8 50,-30 -219,-616 -246,-1275 -343,-1917 -4,-25 -57,1 -53,22z"/>
  <path class="fil0" d="M5994 10183c100,508 117,1037 296,1527 6,18 62,28 56,11 -178,-490 -196,-1019 -296,-1527 -4,-18 -60,-30 -56,-11z"/>
  <path class="fil0" d="M9196 9416c-22,398 119,776 197,1160 3,13 57,24 55,13 -78,-382 -218,-759 -196,-1155 0,-15 -56,-25 -56,-18z"/>
  <path class="fil0" d="M9004 9534c4,363 169,699 197,1059 2,20 47,55 45,29 -28,-360 -193,-697 -197,-1059 0,-20 -45,-56 -45,-29z"/>
  <path class="fil0" d="M8236 11068c255,-140 538,-221 788,-369 14,-8 -31,-43 -44,-35 -251,148 -534,229 -788,369 -14,7 31,43 44,35z"/>
  <path class="fil0" d="M7941 10862c-14,108 282,-8 318,-21 169,-62 343,-137 493,-236 23,-15 -33,-1 -42,5 -123,80 -264,140 -399,194 -31,12 -328,135 -316,41 1,-10 -53,4 -54,17z"/>
  <path class="fil0" d="M7868 10866c119,-115 290,-177 441,-237 179,-71 362,-130 539,-203 32,-13 -16,-40 -37,-31 -177,73 -360,133 -539,203 -154,60 -330,125 -451,243 -22,21 32,40 47,25z"/>
  <path class="fil0" d="M8938 11590c113,-75 226,-143 358,-178 -13,-12 -27,-24 -40,-36 0,20 4,27 -12,40 -31,26 -61,52 -91,79 -61,54 -121,111 -179,170 -120,121 -231,252 -330,390 -12,17 18,55 37,45 253,-142 556,-170 800,-329 18,-11 -21,-55 -41,-42 -241,157 -542,184 -792,324 12,15 24,30 37,44 104,-144 220,-279 345,-405 58,-58 118,-114 179,-169 30,-26 61,-52 91,-77 9,-8 3,-36 3,-45 0,-18 -22,-41 -40,-36 -135,36 -251,107 -366,183 -18,12 21,56 41,42z"/>
  <path class="fil0" d="M9541 11173c-1,145 -14,291 -27,435 -17,181 -33,367 -82,543 -8,29 47,16 56,1 180,-289 319,-601 471,-905 -19,-1 -38,-1 -56,-1 0,229 0,458 0,688 0,30 57,21 57,-5 0,-229 0,-458 0,-688 0,-29 -46,-20 -56,-1 -151,305 -291,616 -470,906 18,0 37,0 56,1 49,-176 64,-363 81,-544 13,-144 27,-289 27,-434 0,-30 -57,-21 -57,4z"/>
  <path class="fil0" d="M9659 11697c13,68 69,35 104,13 84,-53 165,-120 260,-154 5,-2 -23,-51 -38,-45 -67,24 -128,67 -187,106 -24,16 -103,88 -135,78 8,6 15,12 23,18 4,6 8,12 11,18 -2,-13 -41,-48 -38,-34z"/>
  <path class="fil0" d="M10126 11256c69,62 188,35 265,6 123,-47 219,-142 258,-268 8,-28 -45,-31 -57,-13 -247,376 -344,830 -543,1231 19,4 38,9 57,13 2,-52 33,-93 36,-145 1,-29 -57,-36 -58,-7 -3,52 -34,92 -37,145 -1,26 45,35 57,12 198,-401 295,-854 543,-1231 -19,-4 -38,-8 -56,-13 -33,105 -111,182 -209,228 -50,24 -161,62 -211,17 -20,-19 -72,1 -45,25z"/>
  <path class="fil0" d="M10702 11239c-3,116 -26,234 -41,349 -20,159 -41,319 -67,477 -5,29 40,57 51,22 114,-336 288,-648 433,-971 -17,-7 -34,-15 -50,-22 -1,341 -35,685 37,1021 7,32 58,33 50,-5 -71,-331 -35,-671 -35,-1007 0,-20 -37,-48 -49,-21 -147,327 -322,643 -437,983 17,8 34,15 51,22 27,-163 48,-327 69,-491 15,-114 38,-232 41,-348 0,-31 -52,-46 -53,-9z"/>
  <path class="fil0" d="M10705 11659c120,51 278,-24 384,-76 23,-11 38,-45 2,-28 -94,46 -234,116 -340,70 -16,-7 -60,27 -46,34z"/>
  <path class="fil0" d="M11479 11442c-58,-1 -123,-35 -181,-21 -72,19 -82,116 -91,177 -3,21 29,28 45,25 87,-17 170,-40 239,-100 63,-55 135,-156 135,-240 0,-20 -51,-33 -57,-11 -69,249 -70,510 74,734 8,11 42,28 53,10 127,-219 151,-487 219,-728 -19,-4 -38,-8 -56,-12 0,266 0,532 0,797 19,2 38,4 57,7 -1,-316 -111,-886 343,-926 -13,-8 -25,-15 -38,-22 -3,109 -58,209 -120,295 -26,37 -56,72 -87,104 -14,15 -50,54 -65,56 -38,5 -5,41 21,37 66,-8 128,-101 165,-148 76,-96 140,-213 143,-338 0,-15 -28,-23 -39,-22 -95,9 -184,37 -256,102 -65,61 -97,149 -115,233 -43,204 -10,417 -9,622 0,23 57,34 57,7 0,-266 0,-531 0,-797 0,-20 -51,-33 -57,-11 -67,237 -90,504 -215,720 17,3 35,7 53,10 -141,-218 -139,-471 -71,-714 -19,-4 -38,-8 -57,-12 0,79 -74,170 -130,223 -59,55 -143,73 -220,89 15,9 30,17 44,26 7,-44 15,-161 81,-157 53,3 102,21 155,23 38,0 4,-37 -20,-38z"/>
  <path class="fil0" d="M12439 11088c-3,356 -142,694 -145,1050 0,14 51,33 55,21 94,-259 -63,-1142 448,-977 -11,-7 -21,-14 -32,-21 -71,176 -158,330 -324,433 17,7 35,14 53,22 10,-61 99,-84 109,-145 -19,-7 -37,-14 -55,-21 3,74 33,144 36,218 0,14 33,22 45,23 391,30 658,-369 662,-727 0,-15 -54,-29 -55,-21 -78,742 -506,1379 -761,2065 -4,11 51,32 55,20 254,-685 683,-1322 761,-2064 -19,-7 -37,-14 -55,-21 -4,345 -259,751 -642,722 15,8 30,16 45,23 -3,-73 -33,-144 -36,-217 -1,-14 -54,-31 -55,-21 -10,61 -99,84 -109,145 -2,14 43,29 53,23 167,-104 256,-258 328,-437 4,-9 -27,-19 -32,-20 -95,-31 -206,-47 -291,18 -79,61 -108,170 -125,263 -23,123 -27,249 -34,374 -5,107 -7,221 -44,322 18,7 37,14 55,21 3,-356 142,-694 145,-1050 0,-17 -55,-28 -55,-21z"/>
  <path class="fil0" d="M5886 11922c-299,83 -561,273 -805,458 -271,205 -525,431 -803,627 -28,19 21,34 38,25 1308,-630 2707,-1034 4082,-1486 1370,-450 2643,-1131 3963,-1703 482,-210 973,-404 1474,-563 37,-11 12,-43 -18,-33 -1372,435 -2645,1119 -3960,1694 -329,144 -662,281 -1000,406 -338,125 -683,233 -1027,344 -684,220 -1370,438 -2045,685 -509,187 -1012,392 -1501,627 12,9 25,18 37,26 263,-184 505,-397 758,-593 249,-192 519,-395 825,-481 38,-10 12,-42 -18,-33z"/>
  <path class="fil0" d="M11728 10463c555,-252 1126,-469 1689,-704 -9,-17 -17,-35 -26,-52 -530,286 -1143,405 -1643,751 -22,15 -10,60 20,54 524,-98 991,-375 1502,-516 -9,-17 -17,-34 -25,-51 -369,314 -806,539 -1215,794 -28,18 -5,63 26,53 420,-142 801,-375 1220,-517 31,-10 5,-63 -26,-52 -419,141 -801,375 -1220,516 9,18 17,35 26,53 413,-258 853,-485 1226,-802 18,-16 -1,-58 -25,-51 -512,142 -978,419 -1502,516 6,19 13,37 19,55 500,-346 1113,-464 1643,-751 29,-16 4,-65 -26,-52 -563,234 -1134,452 -1690,704 -29,13 -3,66 27,52z"/>
  <path class="fil0" d="M10069 9948c-107,54 -215,102 -329,141 5,12 9,23 14,35 826,-437 1690,-799 2527,-1216 27,-14 28,-57 -6,-39 -842,420 -1710,784 -2542,1224 -26,14 -17,45 14,35 113,-39 221,-88 328,-141 27,-14 29,-56 -6,-39z"/>
  <path class="fil0" d="M9287 9804c838,-394 1694,-754 2494,-1224 31,-18 -11,-57 -39,-41 -796,467 -1648,825 -2481,1217 -34,16 -3,62 26,48z"/>
  <path class="fil0" d="M9632 9408c-15,-108 136,-207 209,-260 165,-121 349,-218 531,-310 337,-171 685,-325 1038,-457 18,-7 -35,-23 -48,-18 -354,133 -701,288 -1038,458 -180,90 -358,186 -522,302 -81,57 -222,149 -229,261 -1,5 0,11 1,17 2,17 59,18 58,7z"/>
  <path class="fil0" d="M9725 8693c-38,-67 85,-150 126,-181 131,-98 277,-177 421,-253 368,-195 749,-365 1129,-534 171,-76 345,-149 513,-232 35,-18 2,-38 -23,-25 -287,143 -586,263 -877,396 -361,165 -727,330 -1064,540 -81,50 -163,103 -230,171 -30,32 -78,86 -52,133 11,20 66,1 57,-15z"/>
  <path class="fil0" d="M9710 7840c-70,-38 39,-103 72,-125 89,-58 187,-103 282,-150 258,-127 509,-266 771,-387 620,-287 1261,-529 1886,-806 29,-13 -19,-46 -42,-36 -664,295 -1347,550 -2004,862 -265,125 -524,264 -784,397 -68,35 -385,182 -208,277 28,15 62,-14 27,-32z"/>
  <path class="fil0" d="M7995 1408c-629,198 -1081,740 -1423,1277 -15,24 41,38 55,17 335,-524 777,-1064 1393,-1257 36,-11 1,-45 -25,-37z"/>
  <path class="fil0" d="M6954 1829c-435,102 -652,633 -704,1032 -2,16 43,36 42,41 52,-400 269,-930 704,-1033 -4,1 -27,-44 -42,-40z"/>
  <path class="fil0" d="M3053 5706c151,344 478,573 813,718 33,15 57,-31 23,-46 -323,-140 -637,-359 -782,-690 -14,-30 -69,-15 -54,18z"/>
  <path class="fil0" d="M2873 5834c202,445 677,728 1161,732 17,0 -12,-48 -31,-48 -451,-4 -903,-260 -1092,-677 -9,-18 -54,-42 -38,-7z"/>
 </g>
</svg>
