<?xml version="1.0" encoding="UTF-8"?>
<!DOCTYPE svg PUBLIC "-//W3C//DTD SVG 1.1//EN" "http://www.w3.org/Graphics/SVG/1.1/DTD/svg11.dtd">
<!-- Creator: CorelDRAW X8 -->
<svg xmlns="http://www.w3.org/2000/svg" xml:space="preserve" width="3.02348in" height="3.40892in" version="1.1" style="shape-rendering:geometricPrecision; text-rendering:geometricPrecision; image-rendering:optimizeQuality; fill-rule:evenodd; clip-rule:evenodd"
viewBox="0 0 2534 2858"
 xmlns:xlink="http://www.w3.org/1999/xlink">
 <defs>
  <style type="text/css">
   <![CDATA[
    .fil0 {fill:black;fill-rule:nonzero}
   ]]>
  </style>
 </defs>
 <g id="__x0023_Layer_x0020_2">
  <metadata id="CorelCorpID_0Corel-Layer"/>
  <path class="fil0" d="M2246 2527c2,19 -6,36 -9,29 11,38 0,39 18,43 10,25 0,51 -9,24l15 70 1 -42c16,10 -1,68 18,79l-6 -76 5 4c-7,-17 -7,-51 -5,-63 3,2 7,0 8,14 -2,-93 -28,-24 -36,-101 1,5 1,11 0,19z"/>
  <path class="fil0" d="M2281 2447l-20 -32c0,0 1,-14 2,-27 2,-14 3,-28 3,-28 -7,0 -12,-40 -18,-13 1,5 3,16 2,24 -14,-6 -7,-73 -22,-57 4,44 1,50 13,77 -1,40 -3,69 -8,87 2,12 11,14 13,28 0,-3 -1,-6 -1,-10l22 -2c-5,-12 -3,-24 -4,-38 0,0 7,16 13,32 7,16 14,31 14,31 19,-21 7,-83 14,-108 -17,31 -9,-24 -23,36z"/>
  <path class="fil0" d="M2246 2506c0,1 0,2 0,2 0,0 0,-1 0,-2z"/>
  <path class="fil0" d="M786 1071c-11,-3 -16,2 -19,4 0,0 9,1 21,5 6,2 13,4 21,6 8,3 16,6 24,8 17,6 33,14 45,18 6,3 11,5 15,7 3,2 5,3 5,3 -1,-8 -36,-30 -9,-23 -5,-5 -16,-10 -28,-13 -11,-4 -22,-4 -26,-1l13 -5c-18,0 -30,-8 -35,-14 -5,-7 -4,-13 8,-14l-3 0c0,0 -6,1 -16,2 -9,2 -21,3 -34,7 -12,3 -24,5 -33,8 -9,2 -15,4 -15,4 16,4 23,1 31,-1 3,-1 8,-2 13,-3 6,0 13,0 22,2z"/>
  <path class="fil0" d="M1895 2748c-19,-4 -22,-2 -21,0 8,1 15,1 21,0z"/>
  <path class="fil0" d="M699 1080l-27 11c10,-2 20,-6 27,-11z"/>
  <path class="fil0" d="M963 947c0,0 1,-1 0,-2l-17 0c0,0 0,0 0,0 6,1 12,2 17,2z"/>
  <path class="fil0" d="M329 1392c0,2 0,4 0,7 0,-2 0,-5 0,-7z"/>
  <path class="fil0" d="M1225 1017c0,0 -1,4 -2,7 -1,3 -3,6 -3,6 1,-7 -1,-7 1,-15 -1,1 -3,3 -3,6l1 1c-3,9 -5,15 -8,20 -2,5 -5,9 -14,10 2,8 5,12 8,11 4,1 7,-3 9,-6 2,0 3,0 4,1 0,0 3,-6 5,-12 2,-6 2,-13 2,-13 0,0 0,-4 0,-8 0,-4 0,-8 0,-8z"/>
  <path class="fil0" d="M964 2499l-2 1c1,0 2,-1 2,-1z"/>
  <path class="fil0" d="M957 2503l5 -3c-4,1 -18,-3 -5,3z"/>
  <path class="fil0" d="M710 1070c-1,3 -5,7 -11,10l21 -7c-2,0 -6,-2 -10,-3z"/>
  <path class="fil0" d="M764 1041c0,0 4,0 9,1 5,1 12,2 18,4 14,3 27,6 27,6 0,0 1,0 3,-1 2,0 5,0 8,0 6,-1 11,-1 11,-1 -5,-1 -11,-2 -16,-4 -6,0 -12,-1 -18,-2 -7,-1 -13,-2 -20,-3 -7,0 -14,0 -22,0z"/>
  <path class="fil0" d="M355 1337c-6,18 -9,26 -12,28 -2,2 -4,-3 -5,-9 -3,-11 -4,-29 -13,-12 -3,11 -1,20 0,27 2,8 3,14 4,21 0,-8 1,-14 2,-18 2,-4 3,-7 5,-8 3,-2 7,0 11,2 4,2 8,4 11,2 4,-2 7,-8 11,-22 3,4 6,8 7,13 0,3 0,5 0,8 0,3 0,5 0,8 -1,11 -4,24 -8,33 -20,21 -10,-21 -24,-30 -1,6 -1,11 -1,14 1,4 1,6 2,8 2,4 5,6 9,11 -5,20 1,41 5,61 3,20 7,37 -3,53 5,16 10,23 15,28 5,5 10,9 17,17 9,-1 8,-13 7,-27 -1,-14 -2,-30 4,-36 -1,2 -4,7 -6,6 0,0 0,-6 0,-13 0,-7 0,-13 0,-13 -2,12 -6,12 -11,7 -5,-5 -9,-15 -10,-21 -1,-10 -2,-28 3,-26l4 14c2,-4 1,-9 0,-14 0,-4 -2,-9 -3,-14 -1,-5 -2,-9 -2,-14 0,-5 1,-9 5,-13 4,0 5,6 7,8 -2,-5 -4,-10 -5,-15 -1,-5 -1,-10 -1,-15 0,-5 0,-11 0,-16 1,-6 1,-13 1,-19 0,0 3,5 6,10 3,5 6,10 6,10 -3,-6 -4,-14 -3,-22 1,-4 2,-8 3,-12 1,-2 2,-4 3,-6 1,-2 3,-5 4,-8 3,-5 7,-10 10,-15 2,-2 4,-5 6,-7l6 -7c8,-8 16,-16 25,-21 -5,1 -12,5 -12,0 6,-10 14,-17 20,-18 7,-2 12,1 12,8 1,-6 5,-12 11,-18 4,-3 7,-5 11,-7 4,-3 8,-6 12,-7 4,-2 8,-4 12,-7 4,-2 8,-3 12,-6 6,-5 13,-9 16,-16 0,0 1,-2 3,-6 2,-3 6,-8 10,-14 2,-3 4,-6 7,-10 2,-3 6,-6 9,-10 3,-3 6,-7 10,-11 4,-3 8,-7 12,-10 4,-4 8,-8 13,-11 4,-3 9,-6 13,-9 5,-3 9,-6 13,-9 5,-2 9,-5 13,-7 8,-4 15,-8 20,-10 5,-2 8,-4 8,-4 -7,2 -14,4 -21,5 -16,-17 -26,-15 4,-30 -15,5 -19,10 -25,14 -6,5 -14,9 -34,11 8,-5 12,-12 10,-18 -1,-2 -4,-5 -10,-7 -5,-1 -12,-1 -23,0 -49,16 -82,47 -104,79 -23,33 -36,68 -52,106 -3,-1 -8,1 -13,6 -5,5 -11,12 -18,20 -6,9 -12,19 -18,29 -2,2 -4,4 -5,6 -1,2 -2,4 -3,6 -2,4 -4,7 -6,10 -2,-4 -3,-8 -3,-12 0,-2 0,-5 0,-7 0,-1 0,-3 0,-4 1,-1 1,-3 2,-4 3,-11 8,-24 14,-35 -5,6 -11,16 -17,26 -2,3 -3,6 -5,8 -2,3 -3,5 -4,7 -2,5 -5,9 -7,13 0,0 5,5 11,9 5,4 10,8 10,8z"/>
  <path class="fil0" d="M453 1151c-2,1 -4,1 -7,2 2,0 4,0 7,-2z"/>
  <path class="fil0" d="M372 1259c0,0 0,0 -1,-1 -1,3 -2,5 -4,8 2,-3 4,-5 5,-7z"/>
  <path class="fil0" d="M688 1040c7,-3 12,-4 19,-7 -4,1 -10,2 -15,2 -5,2 -7,3 -4,5z"/>
  <path class="fil0" d="M707 1064l-4 4c3,1 5,2 7,2 1,-2 1,-5 -3,-6z"/>
  <path class="fil0" d="M281 1714l7 9c-3,-6 -5,-8 -7,-9z"/>
  <path class="fil0" d="M314 1421c1,-16 -3,-17 -7,-20 -4,-3 -9,-8 -4,-30l-4 12c0,-16 4,-38 12,-59l7 -16c2,-5 5,-10 7,-14 7,-11 13,-21 18,-30 2,4 7,-1 13,-4 6,-4 12,-7 15,-2 4,-6 7,-11 10,-17 3,-6 7,-11 9,-17 3,-5 6,-10 7,-15 2,-5 3,-9 4,-14 14,-9 25,-34 45,-42 -5,0 -3,-9 -3,-13 0,-3 -1,-4 -5,-2 -3,2 -9,6 -18,16 3,-3 0,-3 3,-6 -8,4 -15,8 -20,12 -5,4 -8,10 -11,15 -3,5 -6,10 -9,16 -3,5 -6,11 -11,17 -17,9 11,-31 -2,-19 -5,9 -13,18 -21,28 -8,12 -17,22 -24,34 -6,11 -11,21 -14,30 -1,8 0,13 6,15 -5,12 -8,18 -12,22 -3,4 -7,6 -10,9 5,23 -7,58 -11,92 -5,34 -3,64 14,62 -3,-15 -2,-40 -8,-62l24 2z"/>
  <path class="fil0" d="M624 1040c-3,0 -6,0 -8,0 3,0 5,0 8,0z"/>
  <path class="fil0" d="M1024 1294c0,0 -9,1 -18,1 -3,-1 -4,0 -5,1 -2,0 -3,1 -4,1 -3,1 -4,2 -4,2 -18,-11 -34,-21 -47,-29 -14,-8 -26,-16 -37,-23 -12,-7 -23,-14 -35,-21 -7,-3 -13,-7 -20,-10 -7,-4 -14,-7 -22,-10 -4,-5 5,-4 9,-3 -23,-8 -51,-21 -75,-26 -6,-2 -11,-4 -18,-5 -7,-1 -13,-2 -19,-3 -6,0 -12,-1 -17,0 -5,0 -10,0 -14,1 -7,-2 -20,-4 -29,-8 -8,-3 -14,-7 -7,-10 -7,2 -14,4 -22,3 -2,-8 17,-2 18,-9 -6,-1 -9,-2 -10,0 5,-3 3,-10 5,-16 1,-3 3,-6 9,-8 5,-1 14,-2 27,-1 18,21 -36,0 -26,22 17,1 16,-7 17,-9 6,0 10,1 13,2 3,1 5,2 6,3 2,2 1,5 0,7 5,-2 14,0 23,1 10,2 20,4 27,1 11,1 15,4 17,6 2,2 0,3 -1,5 -4,3 -8,6 4,10 0,0 5,-4 10,-8 3,-2 6,-4 8,-6 2,-2 3,-2 3,-2 0,0 11,5 22,10 5,2 11,5 15,7 4,2 7,4 7,4 17,5 27,5 32,4 5,-2 6,-7 8,-12 3,-9 7,-19 50,-4 -8,2 -6,12 2,24 4,6 9,12 16,19 6,7 14,14 22,20 -11,-6 -28,-12 -45,-18 -9,-4 -18,-7 -26,-11 -8,-4 -15,-8 -21,-12 15,17 2,11 -14,4 -16,-7 -34,-13 -28,0 6,0 12,1 18,2 7,1 14,4 20,7 7,3 14,6 21,10 6,4 12,8 18,13l-9 -3c12,8 26,10 41,14 15,4 31,10 45,25 18,11 11,14 6,16 8,4 16,7 21,10 1,0 4,2 5,4 2,1 4,2 5,3 3,3 4,4 3,5zm-45 -27l0 0c0,0 -6,-4 -11,-9 -3,-2 -6,-4 -8,-6 -2,-1 -3,-2 -3,-2 4,6 12,12 22,17z"/>
  <path class="fil0" d="M2290 2014c-1,3 -2,6 -3,9 1,-2 2,-5 3,-9z"/>
  <path class="fil0" d="M1409 696l7 -18c-3,7 -5,13 -7,18z"/>
  <path class="fil0" d="M1555 251c0,0 4,-8 9,-15 4,-7 9,-15 9,-15 -9,11 -14,20 -18,30z"/>
  <path class="fil0" d="M2317 1802l1 -1c0,-2 -1,-3 -1,-4l0 5z"/>
  <path class="fil0" d="M2445 403c0,6 0,11 2,19 2,-2 1,-9 -2,-19z"/>
  <path class="fil0" d="M1551 256c1,-1 2,-1 2,-1 1,-2 1,-3 2,-4l-4 5z"/>
  <path class="fil0" d="M1293 863c-1,4 -1,8 -1,12 1,-6 1,-9 1,-12z"/>
  <path class="fil0" d="M1359 852c-1,4 -1,8 -1,12l1 -12z"/>
  <path class="fil0" d="M1261 1119c0,0 -2,0 -2,0 1,3 2,2 2,0z"/>
  <path class="fil0" d="M1328 915c0,2 1,3 2,5 0,-4 -1,-6 -2,-5z"/>
  <path class="fil0" d="M2215 2163c0,0 0,-1 0,-1l-2 -1 2 2z"/>
  <path class="fil0" d="M2245 2223c1,7 1,15 2,22 0,-8 -1,-16 -2,-22z"/>
  <path class="fil0" d="M2470 802c-3,7 -7,23 -11,16 4,13 15,12 11,-16z"/>
  <path class="fil0" d="M2089 2033c2,4 4,10 6,15 -2,-10 -4,-18 -6,-15z"/>
  <path class="fil0" d="M2095 2048c1,5 3,10 4,14 -1,-5 -2,-10 -4,-14z"/>
  <path class="fil0" d="M2284 645c2,-2 2,-4 2,-7 -2,1 -3,3 -2,7z"/>
  <path class="fil0" d="M2243 2262c4,3 16,98 18,19 16,3 8,50 12,71 4,-15 10,8 16,3 -2,-10 -7,-23 -6,-40 8,-8 13,18 10,39 8,-26 13,32 19,-4 -2,-19 -3,-37 -5,-53 -1,-9 -2,-17 -3,-24 -1,-8 -1,-15 -3,-22 -4,-29 -11,-55 -22,-82 2,22 3,44 4,65 0,22 -1,42 -4,60l-13 -15c12,-40 4,-63 6,-102l-9 86c-12,42 -15,14 -16,-18 -1,8 -2,15 -4,17z"/>
  <path class="fil0" d="M2123 2200l0 1c0,1 1,3 1,4l-1 -5z"/>
  <path class="fil0" d="M1457 1746l2 14c-1,-7 -1,-11 -2,-14z"/>
  <path class="fil0" d="M2192 2148l0 0c-1,-1 -1,-1 0,0z"/>
  <path class="fil0" d="M1501 1507c0,1 0,2 0,4 0,-2 0,-3 0,-4z"/>
  <path class="fil0" d="M1257 1049c0,-1 -1,-1 -1,-3 0,2 1,3 1,3z"/>
  <path class="fil0" d="M1500 1505c0,1 0,1 1,2 -1,-1 -1,-2 -1,-2z"/>
  <path class="fil0" d="M1712 467c0,0 -4,1 -8,3 1,2 3,2 8,-3z"/>
  <path class="fil0" d="M1617 612c-1,0 -2,1 -3,2l3 -2z"/>
  <path class="fil0" d="M2532 755c0,-10 -1,-18 -2,-24 0,7 1,15 2,24z"/>
  <path class="fil0" d="M1501 1511c1,5 2,11 2,20 0,-10 -1,-16 -2,-20z"/>
  <path class="fil0" d="M1849 236c-2,2 -3,3 -4,4l3 -1 1 -3z"/>
  <path class="fil0" d="M1937 207c-2,3 -3,4 -4,6 14,-7 36,-14 56,-17 19,-3 35,-5 39,-12 -6,-1 -23,-2 -38,-3 -8,-1 -15,-2 -20,-3 -5,-1 -7,-3 -5,-5 -5,2 -12,3 -19,5 -7,1 -14,2 -21,4 -14,2 -26,5 -32,8 21,-3 23,0 17,5 -3,2 -8,5 -13,9 -5,4 -11,8 -17,12 -23,7 -1,-13 -21,-6 0,0 -12,7 -24,15 -12,7 -23,16 -23,16 0,0 2,-2 6,-4 4,-3 9,-6 15,-9 5,-3 10,-6 14,-8 5,-2 7,-3 7,-3 0,0 -1,5 -3,9 -1,5 -2,10 -2,10 1,-1 2,-2 3,-3 34,-23 39,-18 42,-14 4,3 7,5 43,-12z"/>
  <path class="fil0" d="M1933 213c-5,2 -8,5 -11,8 7,-3 9,-5 11,-8z"/>
  <path class="fil0" d="M2194 305c3,2 6,5 10,8 -2,-2 -6,-5 -10,-8z"/>
  <path class="fil0" d="M876 1066c0,2 10,10 20,16 10,5 20,10 22,5 -11,-7 -24,-14 -36,-20l-6 -1z"/>
  <path class="fil0" d="M2358 1157c1,-5 2,-11 3,-16 -1,-1 -1,-2 -1,-3 -3,3 -2,13 -2,19z"/>
  <path class="fil0" d="M1980 165c-9,3 -13,5 -15,8 6,-3 11,-4 15,-8z"/>
  <path class="fil0" d="M2332 1155c-5,6 -11,15 -15,16 -3,14 1,24 0,39 2,-16 6,-34 15,-55z"/>
  <path class="fil0" d="M2317 1211c0,-1 0,-1 0,-1 0,0 0,0 0,1z"/>
  <path class="fil0" d="M852 1052c-4,-1 -8,-2 -12,-2l7 -1c-10,-4 -19,-10 -29,-13 -4,-1 -8,-1 -13,-2 2,0 4,-1 5,-1 -3,-2 -6,-3 -9,-4 -14,1 -37,2 -58,2 -22,1 -42,1 -51,4 -23,3 -51,5 -68,5 16,-1 37,-2 31,-8 -8,-2 -16,-5 -23,-7 -7,-2 -14,-4 -22,-5 -16,-3 -36,-1 -62,12 0,0 2,0 5,-1 3,-1 7,-2 11,-2 9,-2 17,-3 17,-3 0,0 -4,2 -11,6 -3,1 -7,3 -11,5 -4,2 -9,5 -13,8 -8,5 -16,9 -22,14 -6,4 -9,7 -9,7 -14,-1 -7,-7 6,-14 12,-6 29,-13 33,-18 -27,12 -53,14 -76,20 -23,5 -41,13 -47,29 -5,-5 -12,-10 -21,-12 -5,0 -11,0 -17,2 -7,2 -14,6 -22,13 31,-8 -13,22 15,19 -3,7 -12,13 -20,19 -7,6 -13,11 -11,15l-1 -6c-7,4 -14,8 -20,13 -6,4 -10,9 -14,14 -7,10 -12,18 -15,28 -2,9 -3,18 -4,26 -1,8 -1,15 -3,23 -19,35 -30,58 -40,82 -9,24 -17,47 -20,79 -4,0 -12,4 -19,12 -8,7 -14,18 -14,32 3,3 5,9 8,16 2,8 4,17 7,25 6,17 13,33 20,35 0,-24 -3,-33 -7,-39 -5,-7 -11,-12 -12,-26 7,-12 11,-12 14,-13 3,-2 5,-5 10,-19 -3,12 -3,39 1,68 3,28 7,56 4,71l-4 -9c0,23 -8,38 -10,57 -3,19 0,42 23,75 0,0 5,8 11,15 5,8 11,16 11,16 -2,-1 -4,-1 -5,-1 11,28 11,40 14,52 3,12 7,24 29,51 -3,-5 -3,-1 -7,-5 11,38 46,63 64,86 0,21 -12,3 -25,-2 16,30 40,57 64,79 25,22 50,38 69,49 0,0 6,9 12,18 3,5 6,9 8,13 2,3 4,6 4,6 -21,-16 -51,-32 -52,-21 18,16 19,9 40,36 -10,1 -24,-5 -42,-11 19,32 27,30 32,27 5,-3 7,-7 16,19 16,17 33,18 41,13l22 36c5,-3 17,4 31,14 15,9 31,22 44,32 6,-2 -12,-27 -24,-31 3,-3 13,0 23,6 5,3 11,6 16,10 5,4 10,7 15,10 -2,7 4,15 14,24 5,5 11,9 17,14 7,5 14,10 20,14 14,9 26,18 32,24 7,7 8,12 -1,15 44,24 97,53 148,77 50,25 98,46 130,56 17,16 57,35 28,34 73,36 122,30 193,70 5,6 -34,-15 -34,-7 26,7 47,19 71,34 24,14 51,31 89,43 -13,-4 -18,-2 -21,0 0,-4 34,5 55,9 10,6 -16,-3 -11,2 71,34 140,51 208,66 68,15 137,28 212,49 -43,-12 -64,-1 -66,5l42 13c18,-4 50,5 78,6 3,4 15,11 1,11 40,19 75,20 112,20 18,-1 37,-1 57,-1 5,1 10,1 16,1 5,0 10,1 15,1 3,0 5,1 8,1l4 0 4 1c4,0 9,0 13,1 0,0 -6,2 -14,5 -5,1 -12,2 -19,3 -8,1 -15,2 -23,3 -33,3 -66,3 -66,3l29 18c0,0 -15,1 -30,2 -7,0 -14,0 -20,0 -6,1 -9,1 -9,1 31,16 65,2 66,15 -7,2 -24,-3 -26,3 15,6 25,7 33,6 8,0 15,-2 28,-1 -71,15 -196,-18 -263,-31 -11,-1 10,-3 13,-5 -28,-7 -41,-19 -77,-25 -24,4 14,13 31,18 -5,9 -13,6 -33,2 0,-13 -100,-35 -120,-58 -99,-28 6,36 -88,-1l-25 -23c-59,-9 -134,-25 -198,-58l13 6c12,-1 -2,-12 -7,-17 -42,-26 -90,-30 -111,-55 -58,-10 -150,-40 -213,-63 -7,-24 85,24 114,25 0,0 -13,-7 -27,-13 -13,-6 -27,-13 -27,-13 34,16 50,16 74,15 -45,-25 -68,-18 -115,-35 6,-3 2,-9 -19,-19l-11 8c0,-1 -2,-3 -8,-7 0,0 -5,-2 -13,-5 -8,-3 -18,-8 -28,-12 -11,-4 -21,-9 -29,-12 -8,-3 -13,-6 -13,-6 15,14 10,24 31,35 -4,-10 14,-3 34,8 -21,-2 17,17 14,22 -41,-21 -93,-46 -121,-59l-3 -15c-38,-24 -82,-43 -106,-63l12 0c-11,-8 -22,-15 -33,-22 -11,-8 -22,-15 -33,-22 -22,-15 -42,-31 -57,-50 -47,-18 -101,-51 -140,-69 -13,-1 -36,-31 -62,-63 -25,-33 -52,-68 -78,-84 -1,-4 34,23 51,34 -24,-29 -56,-42 -51,-61 48,69 7,-11 34,16 -25,-30 -51,-62 -66,-74 36,51 -31,-6 12,42 -40,-32 -83,-88 -107,-143 6,-3 5,-11 -3,-32l-17 -11c-11,-26 35,43 13,-9 -21,-22 -37,-63 -50,-101 -14,-38 -26,-72 -44,-81 0,-24 8,-3 17,14 9,17 17,30 14,-4 22,34 29,88 48,94 -18,-33 7,-17 -1,-40 0,0 -6,-9 -12,-18 -6,-9 -11,-18 -11,-18l2 9c-18,-31 -33,-76 -42,-125 -9,-49 -11,-102 -10,-151 -5,-41 -8,-79 -4,-119 0,-10 2,-20 4,-31 2,-10 5,-21 8,-32 2,-5 4,-11 6,-16 2,-6 5,-11 7,-17 3,-5 6,-12 9,-17 3,-5 6,-10 9,-15 -4,15 9,-2 20,-15 5,-6 11,-11 14,-11 2,1 2,6 -2,22 7,-9 14,-18 21,-26 6,-9 11,-17 15,-25 9,-15 14,-26 11,-29 -28,31 -11,10 -34,36 2,-6 5,-14 9,-21 5,-8 11,-16 17,-23 6,-8 13,-15 19,-21 7,-6 13,-11 18,-14 -8,7 -4,5 -4,9 40,-32 11,-23 37,-50 4,0 11,-3 18,-8 7,-5 17,-11 26,-18 19,-14 43,-26 59,-32 0,0 2,-3 6,-6 4,-3 8,-8 13,-12 10,-9 21,-18 21,-18 -6,6 -6,7 -2,7 3,-1 10,-3 18,-5 16,-4 36,-11 41,-6 32,-16 61,-37 115,-37 -11,4 2,5 17,6 15,2 32,6 33,12 44,5 79,3 115,2 18,0 36,0 54,3 9,2 19,4 28,7 10,3 20,7 28,13 -3,1 -20,2 1,13 9,2 22,5 34,10 12,4 24,10 33,13l-1 0c1,0 1,0 1,0 9,3 16,4 17,2 17,3 31,3 48,6 17,3 38,9 69,22 1,-7 -11,-16 -27,-25 -8,-4 -16,-8 -25,-11 -8,-4 -16,-6 -22,-8l-24 1c-5,-13 -20,-18 -34,-21 -15,-4 -29,-6 -36,-11 12,-2 28,0 45,5 18,4 38,12 58,20 20,8 39,18 59,27 20,9 37,18 54,24 -26,-38 -106,-87 -188,-117l32 21c0,0 -10,-4 -21,-8 -5,-2 -10,-4 -14,-6 -4,-1 -7,-2 -7,-2 1,-1 35,28 35,28 -9,-5 -18,-9 -27,-12 -9,-4 -19,-7 -28,-10 -9,-3 -19,-6 -28,-9 -10,-3 -19,-6 -29,-9 12,3 21,7 28,11 7,4 12,8 14,11 5,6 2,8 -9,3 -22,-14 -37,-15 -49,-15 -13,-1 -23,3 -41,-2 10,3 21,6 28,8 7,3 9,6 -1,7 -17,-8 -31,-13 -44,-17 -13,-4 -24,-6 -35,-8 -6,-1 -12,-3 -17,-4 -6,-1 -12,-2 -19,-3 -13,-3 -26,-7 -45,-11 5,10 -18,10 -42,11 -25,1 -53,3 -57,12 0,0 2,0 5,0 3,0 7,-1 11,-1 9,0 17,0 17,0 0,0 -4,1 -11,3 -3,1 -7,2 -11,3 -4,1 -8,2 -12,4 -17,5 -34,11 -34,11 -34,-1 -21,-8 -11,-14 9,-6 15,-11 -37,-5 -24,6 -40,14 -54,20 -13,6 -22,14 -30,20 -18,13 -31,27 -62,47 7,-12 23,-27 44,-43 11,-7 23,-15 36,-21 14,-7 28,-12 43,-17l-38 6c4,-3 13,-7 23,-12 11,-4 25,-9 39,-13 14,-3 29,-7 43,-9 15,-2 28,-4 38,-5 -33,12 -25,11 -4,9 10,-1 23,-2 36,-2 12,0 24,1 32,3 3,-6 -7,-8 -11,-10 -4,-2 -2,-5 24,-9 -6,0 -11,0 -16,0 -5,0 -10,1 -14,1 -9,0 -16,1 -24,1 -16,1 -33,3 -65,5 17,-2 32,-4 44,-6 13,-3 24,-4 34,-7 10,-2 18,-5 26,-7 8,-3 15,-5 22,-8 14,-4 29,-9 46,-10 18,-2 39,-2 67,6 -53,-3 16,19 21,26 12,1 30,4 47,6 18,3 36,7 47,9l-14 -22c35,6 54,20 74,34 10,6 19,14 31,20 12,6 27,10 44,14 6,-2 -7,-10 -22,-16 -14,-6 -29,-11 -22,-10 12,4 23,8 33,12 10,5 18,9 26,14 8,4 16,9 22,14 7,5 13,10 19,16 25,21 45,44 76,72 6,-2 11,-12 41,-3 -14,4 1,20 -30,8 10,10 23,17 36,24 3,2 7,4 10,5l4 3 2 -1c1,0 3,0 4,-1 -2,-5 1,-7 4,-9 4,-2 6,-5 7,-8 0,2 -3,10 -7,11 1,2 -1,7 0,10 0,3 1,4 4,-4 -2,6 -5,12 -10,16 -3,1 -6,2 -10,2 -1,1 -3,1 -5,0 0,0 0,0 -1,0l-4 -2c-2,-2 -5,-3 -7,-5 0,0 5,5 10,9 2,1 3,3 3,3 -4,0 -4,2 -11,-4 -6,-4 -12,-9 -24,-18 19,23 11,29 1,31 -2,-3 3,-1 2,-4 -18,-15 -34,-22 -33,-15 -25,1 22,25 29,40l4 3 2 1 1 0 4 2 6 3c0,0 5,0 10,-1 5,-2 12,-4 17,-7 11,-6 17,-15 17,-15 4,0 6,4 10,11 2,7 6,17 10,26 0,0 0,-4 0,-9 -1,-4 -1,-9 -1,-9 2,4 5,9 8,14 3,9 8,21 9,34 -2,-6 -2,-7 -4,-9 0,-1 0,-1 -1,-2 1,3 1,4 0,5 1,1 1,2 1,3 1,1 3,2 2,0 3,3 6,5 7,6 1,1 2,1 2,1 -2,8 -1,17 4,30 5,14 13,32 17,51 0,0 4,5 8,9 2,2 4,5 5,6 1,2 2,3 2,3 -8,-17 -10,-23 -9,-25 0,-1 2,1 2,0 5,14 6,7 6,-4 0,-11 -1,-25 1,-29l1 6c5,-3 6,-26 4,-44 -2,-3 -6,-16 -12,-30 -6,-14 -12,-28 -18,-38 -2,4 -4,2 -7,-2 -2,-3 -5,-9 -8,-13 1,-1 1,-2 0,-4 -3,-6 -4,-4 -8,-9 4,16 5,28 18,66 4,6 2,0 1,-6 -2,-6 -4,-12 -1,-10 4,13 6,22 6,29 0,7 -2,12 -3,18 0,0 -2,-5 -4,-9 -2,-5 -4,-10 -4,-10 0,0 0,1 0,3 0,1 0,1 0,1 -1,1 -1,1 -1,1 -1,-4 -4,-12 -6,-19 -1,-3 -1,-7 -2,-9 0,-1 0,-1 0,-2 0,-2 -1,-4 -1,-6 -4,-10 -3,-5 -3,-5 -1,0 -1,2 -3,-4l6 25c-2,-7 -5,-14 -7,-21 -3,-6 -4,-12 -5,-19 0,0 0,-3 -1,-7 0,-4 -1,-9 -1,-9l-8 -21c0,0 0,-1 0,-2 0,-2 0,-4 0,-4l5 17c-3,-14 2,0 7,10 2,6 5,11 6,11 1,1 0,-3 -3,-13 -13,-31 -15,-32 -11,-31 1,3 4,7 7,10 3,4 7,8 11,15 4,0 2,-5 0,-10 -3,-4 -8,-10 -10,-13 8,5 14,8 12,14 9,8 8,5 8,1 0,-3 -1,-7 8,-2 1,-4 0,-8 -1,-11 0,-2 -1,-4 -2,-5 -1,-1 -2,-2 -4,-2 -1,-21 -4,-37 -7,-54 -3,-17 -4,-35 -1,-58 2,-11 4,-24 9,-39 4,-15 11,-32 19,-51l6 8c4,-27 11,-50 17,-71 6,-21 12,-41 19,-60 7,-19 14,-38 21,-58 7,-20 15,-41 22,-65l48 -63c-4,17 -8,65 9,49 -33,26 -41,66 -65,100 4,5 13,-9 18,-14 -9,22 -20,31 -28,62 5,0 21,-31 14,-6 0,0 -6,10 -13,19 -6,9 -12,18 -12,18 -6,29 -1,38 2,48 3,10 4,20 -8,52 -3,-8 -7,-19 -9,-31 -2,-13 -3,-27 0,-40 -12,29 6,-42 -9,-16 1,24 -3,40 -8,58 -5,18 -11,37 -14,68 -1,-8 -3,-10 0,-25 0,0 -2,5 -5,13 -3,8 -6,18 -10,29 -6,20 -13,41 -13,41 7,-9 5,9 4,29 -1,20 -2,42 6,39 12,-45 15,-61 19,-78 4,-18 8,-37 26,-86 -2,14 -3,32 -1,48 1,17 5,32 9,42 -1,1 -2,2 -3,5 10,19 17,4 41,10 -6,-50 16,-76 22,-132 -5,-7 -11,0 -17,11 -5,12 -10,29 -12,43l5 -50 3 11c0,0 2,-7 6,-18 4,-11 9,-26 14,-40 5,-15 11,-30 15,-41 4,-10 7,-18 7,-18 -7,23 -3,33 -1,46 6,-15 14,-28 23,-43 -13,-1 -21,-6 -15,-21 14,-37 30,-64 43,-85 14,-21 27,-36 39,-46 1,-3 2,-6 3,-9 -17,7 2,-61 1,-89 6,3 13,-6 20,-19 8,-12 18,-27 27,-37 -6,-19 -34,-15 -61,8 -8,31 -9,40 -6,45 2,6 6,9 10,24 0,0 -6,22 -12,43 -6,21 -11,42 -11,42l-4 -22c-11,19 -17,39 -21,54 -5,15 -8,24 -15,20 -2,-26 19,-58 18,-84l-16 25c5,-54 23,-19 39,-80 -22,16 1,-5 5,-33 -9,8 -20,33 -30,53 -10,20 -19,35 -26,22 2,-17 20,-39 36,-63 5,-6 8,-12 13,-19 4,-7 9,-14 12,-21 7,-14 13,-27 15,-41l1 3c40,-60 46,-87 57,-114 25,-20 47,-59 73,-84l4 5c0,0 8,-9 17,-18 9,-8 18,-17 18,-17 -10,24 -44,38 -72,70l13 5c-44,25 -47,65 -59,99 11,-24 34,-53 56,-77 20,-25 39,-45 35,-58 0,0 8,-4 17,-7 8,-4 17,-7 17,-7l9 -13c26,-9 14,18 -19,52 -8,3 -12,5 -12,1 -11,19 -19,39 -54,77 0,0 3,-7 6,-13 3,-6 7,-13 7,-13 -44,48 -71,101 -72,125 52,-75 111,-141 178,-196 1,-19 6,-37 11,-53 5,-16 9,-32 8,-47 27,-20 62,-41 100,-57 37,-16 79,-25 113,-26l-5 6c32,-3 62,-7 89,-9 18,4 11,7 4,10 -8,3 -16,5 -4,7 0,0 7,0 17,0 11,-1 25,0 40,1 14,1 28,3 39,5 6,0 10,2 13,2 3,1 5,1 5,1 -5,5 -31,0 -61,-3 -15,-1 -31,-2 -46,-2 -8,0 -15,0 -22,0 -7,0 -13,1 -18,1 8,-1 24,-4 19,-5 -13,-1 -28,0 -44,3 -16,3 -33,7 -47,11 -8,3 -15,5 -22,7 -6,2 -12,4 -18,5 -12,3 -21,5 -27,2 -10,6 0,-1 3,-6 3,-5 0,-9 -36,5 -13,4 -22,8 -30,13 -7,4 -13,9 -17,13 -8,8 -10,15 -10,19 1,3 19,-4 34,-10 15,-5 28,-7 17,2 9,-4 15,-8 22,-12 7,-3 13,-7 20,-10 13,-7 29,-13 54,-16 -19,5 -40,16 -58,25 -18,9 -32,18 -44,17 -30,22 -36,39 -33,49 4,9 16,10 30,4 -5,-3 20,-20 38,-32 9,-6 16,-10 15,-12 -1,-2 -10,-1 -33,6 9,-8 19,-15 32,-22 6,-3 13,-7 20,-10 7,-3 15,-6 23,-9 31,-11 67,-20 99,-25l-3 3c0,0 5,-1 12,-1 8,-1 18,-1 28,-1 10,0 20,1 28,1 7,1 12,1 12,1 -12,2 -36,3 -37,10 0,0 7,-1 17,-2 10,0 25,-1 39,0 14,0 28,1 39,3 11,2 18,3 18,3 -33,-4 -23,1 -4,9 20,8 50,22 60,32 8,-2 22,1 30,2 8,1 10,-1 -6,-15 -39,-31 -27,-10 -68,-27 0,0 16,2 32,5 16,4 32,8 32,8l4 4c0,0 3,1 7,1 3,1 8,3 13,4 10,3 20,5 20,5 9,7 14,12 17,16 4,3 5,6 5,8 0,3 -5,3 -10,4 -4,0 -7,1 -4,5 2,2 5,4 10,8 3,2 7,5 11,8 3,3 8,6 13,10 0,0 1,-6 1,-11 1,-6 2,-12 2,-12 45,43 79,99 102,150 11,25 21,49 31,70 8,22 15,42 24,57 -17,-14 -35,-16 -35,11 -4,-13 -11,-34 -20,-56 -10,-21 -22,-43 -33,-61 0,-5 10,4 23,20 7,8 14,18 21,28 3,5 6,11 8,17 3,5 5,11 6,16 5,-8 4,-18 -1,-29 -5,-12 -13,-23 -22,-35 -8,-11 -16,-22 -20,-31 -5,-9 -7,-16 -1,-21 -14,-29 -29,-47 -41,-59 -13,-13 -23,-20 -33,-26 -21,-12 -36,-23 -81,-66 -4,5 -12,1 -21,-3 -8,-3 -18,-7 -23,-3 11,17 43,38 76,65 33,27 63,61 79,91 -4,-5 -14,-15 -17,-15 24,41 35,56 54,82l-1 -5c37,44 8,35 14,67 6,10 18,53 25,43 0,0 1,3 1,9 0,5 1,13 1,20 1,14 2,28 2,28l14 -6c10,31 0,39 15,65l14 -1c0,0 -3,-20 -6,-39 -2,-10 -4,-20 -6,-27 -2,-8 -3,-13 -3,-13 8,19 12,21 16,24 2,1 4,3 6,6 2,4 4,10 7,21 -24,-45 0,37 -11,44 0,0 4,7 7,15 3,7 6,15 6,15l-5 -7c-3,25 9,29 11,58 2,-18 4,-32 4,-48 0,-8 -1,-16 -2,-25 -3,-9 -6,-19 -10,-29 3,7 7,17 11,28 4,10 7,21 10,32 6,22 11,42 12,50 4,16 4,31 3,45 -1,14 -3,28 -4,44 -1,-15 -5,-21 -9,-24 -4,-2 -8,-1 -13,-2 -8,-2 -15,-11 -15,-71 3,2 3,12 2,16 8,-9 5,-27 -1,-46 -5,-19 -14,-38 -20,-50 -4,4 -8,-1 -11,0 -3,0 -3,5 -2,28 2,-8 9,0 15,17 5,16 11,40 8,62l-21 -6 2 62 -1 -6c-6,12 -6,28 -4,47 1,9 2,19 2,29 1,10 0,20 -3,31 8,30 -6,144 19,96 -7,18 -8,36 -7,53 1,18 4,37 3,57 0,0 4,-12 7,-24 4,-13 7,-25 7,-25 9,62 0,43 18,94 -6,4 -12,14 -17,3 -12,80 -39,189 -31,237 -12,54 -39,58 -45,133 0,16 22,-8 6,39 -2,3 -6,-49 -15,5 7,41 -27,88 -23,140 -11,25 -17,71 -28,59 10,-41 19,-100 15,-110 6,7 13,-29 13,3 22,-61 0,-42 18,-97 -4,-5 -20,26 -18,39 -17,-3 16,-113 -15,-67 -15,60 17,85 -11,134 -6,-23 9,-54 -3,-85l-16 42 6 34 -2 -2c-31,73 5,73 1,143 19,-37 28,14 40,-14 -6,45 -12,78 -30,75 -1,-87 -18,-7 -21,-89 -9,12 -22,-23 -32,24 3,55 16,-14 14,40 -2,3 -5,6 -7,4 5,26 -7,28 -2,59l-2 -8c-17,35 6,41 -10,71 15,-11 8,22 14,43 4,-16 11,-27 18,-42 8,-16 14,-35 19,-66 -9,-9 -16,-5 -17,-31l-5 40c0,-9 -1,-16 -2,-24l11 -38c0,50 14,29 21,52 -11,44 -2,37 -9,65 -15,-5 -38,83 -51,134 1,-8 2,-19 3,-24 -6,-39 -15,25 -19,26l4 28c0,-5 -3,-13 -6,-1 -1,37 15,36 15,73 -8,3 -19,-30 -24,-7 -4,4 -11,12 -17,26 -3,6 -5,14 -7,24 -1,9 -1,20 1,33 3,3 4,16 5,31 0,-2 0,-4 -1,-5l-10 33c-13,-29 8,-57 -5,-86l-14 -3c1,-22 -2,-53 -8,-67 -5,34 -2,41 -1,79 -8,5 -14,-22 -14,-26l7 6c7,-22 5,-40 1,-58 -2,-19 -8,-39 -3,-68 1,-8 2,-3 4,-1 -8,-47 13,-90 2,-137l6 16c-1,-16 -3,-39 -5,-66 -3,-27 -4,-57 -6,-88l-5 -1c-4,6 0,-17 4,-28l0 0c-2,-31 -2,-61 -2,-85 -5,7 -9,16 -12,27 4,11 -10,64 5,59 -12,24 -7,67 -15,85 14,-33 10,25 17,32 -10,10 -6,51 -17,45 -4,6 10,-16 5,-31 -7,-38 -18,64 -23,18 1,29 -3,62 -4,95 -2,33 -4,67 0,97 0,0 2,-8 3,-16 2,-9 4,-17 4,-17 -4,26 -4,88 -11,93 0,-20 2,-43 1,-68 -13,-2 -4,60 -12,62 0,0 4,19 9,37 5,18 10,37 10,37l1 -32c4,10 3,32 1,57 -2,25 -6,54 -7,78 -18,-28 1,-74 -5,-126 -6,-38 -18,23 -22,-13 -4,9 -4,32 0,44l-4 14c-7,-16 -11,-42 -12,-70 -1,-28 -2,-58 -8,-83 2,4 3,8 5,10 2,-9 4,-19 5,-28 2,-9 3,-18 4,-27 2,-19 3,-37 2,-55 -7,18 -4,26 -3,37 -4,1 -3,-33 -6,-46 -8,33 -10,5 -15,26 -2,-22 1,-40 6,-66 8,-13 7,12 15,11 -1,-28 20,-38 16,-79 -10,52 -16,-16 -19,-35l-2 9c-7,-18 -5,-32 5,-43 1,22 -5,43 5,38 2,-14 4,-28 3,-45l5 16 9 -71c-7,-12 -15,-33 -26,-45 10,-15 8,-40 8,-56l2 8c13,-30 21,-99 14,-107 11,-20 17,164 41,8 11,-58 -17,-41 -18,-76 0,0 2,2 4,-1 7,-25 -1,-30 0,-52 -7,15 -12,37 -10,45 -9,-10 12,-53 8,-74 10,28 17,-48 20,-26 21,-48 20,-103 13,-131 26,-30 9,-59 26,-111 -1,9 -1,24 -5,35 7,33 16,-54 19,-5 0,-11 -6,-2 -6,9 -2,18 0,36 7,32l19 -42 0 16c0,0 1,-4 4,-10 3,-6 6,-14 9,-22 7,-16 13,-33 13,-33 -2,-2 -6,4 -8,7 19,-77 19,-167 24,-234 -8,-4 -13,-16 -16,-33 -2,-8 -3,-18 -3,-28 -2,-11 -2,-22 -3,-33 -1,-11 -1,-23 -3,-34 -1,-12 -2,-23 -4,-33 -3,-22 -9,-39 -16,-51 12,12 31,17 37,8 2,6 7,14 11,25 4,10 8,23 8,37 -3,2 -5,12 -8,18 -3,7 -6,10 -10,-1 6,75 16,-11 29,11 -4,-42 -12,-75 -23,-103 -5,-13 -10,-26 -16,-38 -6,-12 -11,-24 -15,-36l3 -2c0,0 0,-2 -2,-5 -1,-4 -3,-8 -6,-12 -4,-8 -9,-17 -9,-17 6,30 -14,33 -17,-5l2 4c0,-6 -1,-13 -3,-20 -1,-8 -5,-16 -9,-24 -4,-8 -8,-16 -12,-25 -4,-8 -9,-15 -12,-23l-20 -14c-3,-7 -5,-13 -5,-18 -1,-5 0,-10 2,-14 3,-9 9,-16 11,-23 -4,-6 -7,-10 -11,-15 -4,-4 -7,-7 -11,-10 -8,-7 -16,-11 -23,-15 -8,-3 -15,-5 -22,-7 -8,-1 -15,-3 -21,-3 -3,-7 -16,-18 -26,-23 -5,-4 -9,-6 -10,-9 -1,-1 2,-4 10,-4 -4,-1 -9,1 -12,2 -4,1 -7,3 -10,5 -5,5 -10,11 -15,15 -2,3 -4,5 -7,7 -1,1 -3,1 -4,2 -2,1 -3,1 -5,1 -4,1 -8,1 -13,1 -3,-1 -5,-1 -9,-2 -3,0 -7,-1 -11,-2 0,0 4,-3 7,-6 2,-2 4,-3 5,-4 1,-1 2,-2 2,-2 -28,5 -64,24 -94,47 -30,22 -54,47 -69,55 -1,-21 -24,-12 -51,5 -27,16 -55,41 -72,38 8,1 -8,28 -7,34 -6,4 -16,12 -16,26 11,-13 15,-4 19,1 5,5 8,5 18,-24 1,10 1,19 0,29 0,10 -1,20 -3,31 0,5 -2,11 -3,16 -1,6 -3,13 -5,20 -5,14 -11,29 -19,45l-11 -6 27 -50c-5,0 -5,-7 -3,-14 2,-7 5,-15 5,-21 -6,10 -11,17 -15,22 -4,6 -7,9 -10,11 -5,4 -8,1 -10,-2 -5,-6 -8,-11 -31,40 4,13 3,5 -5,33 5,-13 -2,-19 -11,1l2 24c-36,27 11,-65 -16,-40 3,-23 12,-51 17,-73 5,-23 7,-39 -4,-36 -36,62 2,71 -34,136l-10 4c-5,27 5,35 6,51 -4,-1 -9,4 -16,20 1,47 -6,75 1,119 4,-27 9,-45 15,-59 5,-14 10,-25 16,-35 5,-10 11,-20 17,-35 6,-14 12,-33 20,-59 0,5 -2,12 -5,22 -2,9 -4,21 -6,32 -4,21 -6,42 2,48l-13 -6c-2,18 -5,36 -9,54 -4,18 -9,38 -18,58l1 -28c-4,29 -16,51 -26,72 -9,21 -17,42 -11,67 5,-16 8,-29 8,-39 -1,15 -3,32 -7,49 -4,17 -10,34 -14,49 0,0 2,18 4,35 1,3 1,13 1,20 -1,8 0,15 0,20 1,12 1,20 1,20 -6,-3 -16,71 -21,30 -6,19 -8,37 -9,53 -1,17 0,32 1,47 1,29 4,56 3,83 -21,71 2,-81 -15,-103 -4,27 -7,54 -10,81 -1,14 -3,27 -4,40 -2,13 -3,25 -4,38 -4,50 -6,98 -5,136 5,-17 8,-24 11,-18 -4,-3 -9,41 -12,64l4 31c-11,31 -13,15 -13,-29 -4,17 -4,44 -5,69 -2,26 -5,51 -12,58 1,-22 3,-42 5,-61 2,-19 4,-35 7,-51 4,-32 8,-59 8,-80 -3,35 -6,59 -11,77 -4,18 -9,29 -14,42 -3,6 -5,13 -8,21 -1,4 -2,8 -4,12 0,3 -1,5 -2,7l-1 4c0,0 0,1 0,1l0 0 -1 -1c-3,-3 -7,-5 -10,-6 -1,0 -2,-1 -3,-1 -1,0 -2,2 -3,3 -2,2 -5,5 -7,9 -2,-6 -2,-15 -4,-22 -1,-8 -3,-13 -8,-12 -4,1 -7,14 -7,22 -1,9 1,17 3,26 5,16 13,29 13,53 4,-14 8,-27 11,-28 2,-3 5,-5 9,-5 1,1 3,1 4,2 1,0 2,0 3,1 1,0 2,1 2,2 3,5 7,10 10,16l3 17c-2,-3 -4,-7 -8,-4 -3,2 -7,4 -9,1l9 44c-3,-10 -6,-18 -9,-25 -2,-3 -4,-6 -5,-9 -1,-1 -2,-3 -3,-3 -1,-1 -2,-1 -4,-1 -8,0 -18,6 -24,23 -7,-11 -13,-22 -20,-31 12,25 21,45 26,57 6,2 10,6 13,15 4,9 8,23 16,42 -1,20 -3,36 -5,47 -25,-43 -47,-93 -69,-140 -6,-11 -11,-23 -17,-35 -3,-5 -6,-11 -9,-17 -3,-5 -6,-10 -9,-15 -11,-21 -24,-41 -40,-62 2,0 21,28 30,41 10,13 11,11 -18,-45 -24,-43 -34,-54 -42,-63 -7,-6 -13,-8 -27,-30 16,17 21,15 26,14 7,-1 13,-1 29,11 39,65 47,78 54,91 8,12 15,24 53,84l-73 -150c32,53 41,60 42,53 1,-8 -5,-29 -5,-34 -27,-52 -43,-79 -55,-96 -11,-14 -17,-19 -23,-22 -6,-4 -11,-5 -19,-13 -4,-4 -9,-11 -14,-17 -5,-7 -11,-16 -18,-28 -14,-14 0,8 12,28 6,10 11,19 13,23 0,2 0,2 -2,0 -2,-2 -6,-6 -11,-13 -29,-47 -32,-49 -37,-51 -2,-1 -4,-2 -10,-9 -6,-5 -15,-13 -31,-30 0,0 2,1 5,2 3,1 6,2 6,2 -9,-16 -18,-26 -28,-36 -3,-3 -5,-5 -8,-7 -1,-2 -2,-3 -4,-4l-4 -3c-5,-3 -11,-7 -17,-12 -13,-9 -10,9 -17,18 -4,4 -10,6 -22,0 -7,-3 -15,-9 -25,-16 -10,-6 -23,-15 -38,-26 8,1 12,1 12,-1 0,0 12,0 27,-1 16,-2 35,-3 52,-6 18,-3 33,-8 44,-12 6,-3 10,-4 13,-6 3,-1 4,-2 4,-2 -10,-10 -20,-18 -30,-27 -11,-9 -21,-19 -32,-27 -11,-8 -21,-17 -32,-25 -9,-7 -19,-14 -29,-21 -19,-14 -39,-27 -59,-41 -21,-13 -42,-27 -64,-39 -5,-15 12,-11 32,-5 19,7 40,17 39,11 0,0 10,6 19,14 10,7 19,14 19,14 -4,3 -24,-9 -41,-17 -18,-8 -30,-12 -16,5 19,8 34,17 47,25 14,8 26,17 38,25 6,3 12,7 19,11 6,4 12,8 19,12 8,5 16,9 24,13 8,4 16,9 25,13 -3,-10 -9,-18 -18,-26 -9,-8 -20,-15 -32,-23 -25,-16 -53,-32 -70,-52 9,6 17,11 26,16 8,4 16,8 24,12 -38,-30 -81,-59 -129,-86l-13 -1c32,18 53,33 56,35 -11,-6 -21,-12 -31,-16 -10,-4 -20,-6 -28,-8 -17,-3 -30,0 -35,6l8 4 -18 -2c-10,-5 -20,-11 -30,-15zm942 1690l0 0c-3,0 -5,1 -8,3 3,-2 1,-4 8,-3zm-418 -1560l0 0c-6,53 -13,100 -21,146 5,-3 9,-8 13,-12 4,-4 8,-9 11,-12 7,-8 13,-13 18,-12 4,2 7,12 8,33 0,22 -1,56 -7,105l0 17c3,-10 6,-25 9,-45 2,-19 4,-42 5,-65 -3,-25 -12,-79 -20,-120 -8,-42 -16,-72 -18,-73 -8,1 -1,23 -5,37 0,0 2,1 4,1 1,0 3,0 3,0zm51 6l0 0c7,-37 0,-33 -5,-44 -1,14 -2,29 -2,43 2,-4 4,-5 7,1zm-11 -46l0 0c-1,4 -2,7 -3,9l3 -9zm-283 43l0 0c1,1 2,1 3,2 -7,-6 -13,-12 -20,-17 2,3 7,7 17,15zm53 67l0 0c0,0 3,-2 5,-5 2,-2 4,-4 4,-4 -6,-6 -12,-12 -18,-19 1,8 2,16 9,28zm199 299l0 0c-1,-9 0,-14 2,-17 0,-1 1,-1 1,-2 0,0 1,0 1,0 1,-1 2,-1 2,-1 2,0 4,0 4,-2 0,0 0,-1 0,-1 0,-1 0,-1 0,-2 0,-1 0,-1 0,-2 -1,-5 -2,-10 -3,-15 -1,-6 -3,-6 -4,-5 -2,-5 -5,-11 -9,-17 -6,-11 -12,-24 -20,-36 1,6 1,10 0,12 9,15 17,30 22,51 -9,-17 -14,-26 -16,-28 -3,-2 -3,2 -3,8 0,13 1,39 -12,28 2,42 35,31 35,29zm868 -8l0 0c-2,1 -6,4 -11,9l-2 -30c13,-51 45,-87 35,-137 9,-20 22,-29 33,-38 -3,10 -6,20 -9,28 0,67 -11,82 -22,94 -11,11 -24,20 -24,74zm134 -583l0 0c1,5 3,8 3,8 -17,-120 -26,-214 -30,-275 -5,6 -8,23 -12,42 -4,18 -7,38 -9,51l-14 -22 10 -15c0,0 -3,-10 -6,-19 -2,-5 -4,-10 -5,-14 -2,-3 -2,-6 -2,-6 -8,12 -6,43 -12,64 3,2 17,70 24,90 0,0 1,-3 2,-8 1,-6 2,-12 3,-19 3,-14 6,-28 6,-28 -3,8 -3,30 -3,54 -1,24 -1,49 -1,64 7,1 21,-49 7,-56 10,-5 6,53 19,17 2,11 2,24 2,37 0,13 -2,27 -4,41 -4,27 -11,52 -16,68l-17 3c-11,34 17,27 1,67 5,-52 -19,6 -14,-35 -8,12 -18,-2 -23,38 17,38 -21,41 -7,76 -11,20 -9,-25 -19,16 2,50 10,49 25,55 13,-44 -10,-54 0,-90 0,0 4,19 7,39 3,19 6,39 6,39 7,-13 9,-23 9,-31 -1,15 1,28 4,40 2,7 3,13 5,19 8,-42 15,-79 23,-85l7 7c9,-13 8,-39 5,-51 5,-38 0,-78 11,-85l5 16c4,-48 5,-53 10,-112zm-830 -445l0 0c19,-7 37,-16 58,-36 22,-21 45,-54 84,-106l-5 9c27,-20 43,-47 65,-74 20,-27 46,-55 86,-68 -14,15 -20,23 -25,31 -5,9 -10,19 -18,42 0,0 2,-2 4,-5 2,-3 5,-7 9,-10 3,-4 6,-8 9,-11 2,-3 4,-5 4,-5 0,19 27,-10 53,-23 0,0 -1,2 -3,4 -1,3 -2,6 -4,10 -3,7 -5,14 -5,14 -9,2 -22,9 -33,16 -10,7 -18,14 -16,16 3,-4 -12,0 -31,10 -18,10 -40,27 -51,43 6,3 21,-11 35,-20 13,-10 23,-14 18,5 8,-13 14,-18 22,-22 8,-5 15,-9 26,-20 -18,25 5,18 -6,38 0,0 9,-9 18,-17 8,-8 18,-15 18,-15 1,0 -2,4 -6,8 -4,4 -9,10 -13,15 -8,11 -10,20 9,14 3,-4 8,-9 13,-13 6,-4 12,-9 18,-13 6,-4 11,-8 15,-12 4,-3 5,-6 4,-9l3 3c15,-7 16,-12 19,-18 2,-5 6,-11 26,-14 -1,-3 -3,-6 -8,-6 -4,0 -9,1 -16,4 -10,8 -8,17 -30,31 -16,-4 28,-14 4,-21 -3,-1 -8,1 -14,4 -6,4 -13,9 -19,13 -12,8 -21,14 -19,0 0,0 2,-1 5,-3 4,-2 7,-4 12,-6 8,-4 16,-9 16,-9 -6,-11 18,-24 13,-33 5,-3 10,-6 16,-8 5,-1 11,-2 16,-3 6,-2 11,-3 16,-5 5,-1 10,-5 15,-8 4,-6 1,-11 2,-16 0,-4 6,-8 26,-8 17,8 46,11 73,18 28,6 54,17 69,24 0,0 1,1 4,2 3,1 6,2 10,3 3,1 7,2 10,3 2,1 4,2 4,2 2,-4 -10,-12 -20,-19 -9,-5 -17,-10 -6,-10 0,0 3,1 7,3 4,2 9,6 14,9 5,2 10,6 14,9 3,2 6,4 6,4l-6 2c5,5 12,9 19,14 7,4 14,8 20,13 -9,-3 -19,-10 -27,-16 -8,-5 -15,-7 -17,1 7,7 10,13 13,18 4,6 8,10 15,17 -4,-3 -7,-5 -8,-3 6,9 11,15 16,19 5,4 9,6 13,7 8,3 15,1 20,4 20,15 18,3 11,-14 -4,-8 -8,-17 -11,-25 -3,-7 -5,-12 -1,-13 0,0 2,1 5,4 2,3 6,8 10,13 5,5 10,11 15,18 5,7 10,15 16,23 10,15 18,31 26,43 3,6 6,12 8,15 2,4 3,6 3,6 -9,-10 -20,-19 -22,-12 5,17 2,18 1,21 -1,2 0,6 9,29 8,-5 17,8 26,27 7,20 16,44 25,60 -2,9 -3,14 -5,13 0,-1 -1,-3 -3,-7 -1,-5 -2,-11 -5,-20 -10,7 4,53 6,70 6,10 9,26 13,37 5,-16 13,-11 23,20l2 2c-2,-26 -1,-60 -6,-92 -1,-8 -2,-15 -4,-23 0,-3 -1,-7 -2,-10 -1,-4 -2,-7 -3,-10 -4,-13 -9,-23 -14,-31l9 8c-3,-32 -22,-62 -36,-88 -16,-25 -30,-46 -26,-64 9,-3 -5,-12 7,-18 0,0 -9,-9 -17,-18 -4,-4 -9,-8 -13,-11 -3,-3 -5,-5 -5,-5l10 4c0,0 -3,-4 -8,-10 -2,-3 -5,-6 -8,-10 -3,-4 -6,-7 -10,-11 -7,-8 -14,-15 -20,-20 -6,-6 -9,-9 -9,-9l3 -1c-37,-18 -68,-26 -93,-30 -2,6 -1,8 -14,7 -6,-1 -11,-2 -15,-4 -4,-1 -9,-2 -12,-4 0,0 0,0 0,0 0,0 0,0 0,0 -4,-2 -8,-4 -12,-6 -3,-2 -7,-4 -11,-6 -3,-3 -7,-5 -12,-7 -4,-2 -9,-4 -15,-5 0,0 18,1 36,5 9,2 17,5 24,7 6,2 10,4 10,4 9,-7 9,-20 -27,-38 8,2 14,2 16,0 1,-1 -1,-5 -11,-8 -1,1 -15,0 -26,0 -10,1 -18,3 -10,8 -9,-1 -19,-3 -29,-3 -6,0 -11,0 -17,-1 -5,0 -11,0 -17,0 -12,0 -24,1 -36,2 -13,2 -26,3 -39,6 -52,11 -105,38 -142,77 28,-26 14,-20 0,-14 -7,3 -13,7 -13,6 -1,-1 5,-6 23,-20 -15,6 -25,11 -32,17 -6,6 -10,12 -13,19 -7,12 -13,26 -35,46 -8,0 24,-22 28,-39 -42,31 -67,67 -88,104 -21,37 -38,75 -62,116l-13 -2c-8,17 -14,36 -21,55zm-56 176l0 0c-5,17 -9,35 -14,53 1,-2 2,-4 2,-5 0,0 -2,13 -4,26 -1,14 -3,27 -3,27 14,-29 34,-45 26,0 -4,-5 -14,5 -12,-11 -8,14 -19,36 -24,54 -6,17 -6,30 5,24 -1,-61 26,-6 27,-54 2,14 0,26 -2,38 -3,11 -6,23 -7,35 -3,-26 -23,-1 -38,33 0,16 -14,57 -15,84 14,-6 15,17 27,-24 -1,16 -3,40 -14,66 0,-11 2,-30 -2,-30 -14,15 -17,36 -24,47 -1,9 -2,19 -3,28 2,-2 3,-4 5,-5l5 37c1,-47 8,-19 14,-15 -6,-3 -8,4 -8,14 0,10 2,23 1,32l18 -28c1,10 -3,25 -5,36 -3,12 -5,20 2,20 4,-19 6,-36 8,-51 3,-15 5,-28 7,-42 1,-6 1,-13 2,-20 1,-6 2,-12 3,-19 2,-11 3,-23 5,-37l-15 20c2,-32 9,-41 17,-50 8,-9 17,-19 25,-53 0,-16 7,-42 12,-65 5,-22 8,-42 -1,-46 3,10 30,-37 30,-63 -9,-32 19,-110 2,-89 -8,20 -10,52 -27,65 0,0 3,-11 6,-21 3,-11 6,-21 6,-21 0,0 -5,6 -10,11 -5,6 -10,12 -10,12 9,-13 -1,-15 -17,-13zm-262 419l0 0c0,-1 0,-1 -1,-1 1,0 1,0 1,0l0 1z"/>
  <path class="fil0" d="M2213 2189c4,12 3,43 13,37 -11,1 -1,-55 -13,-37z"/>
  <path class="fil0" d="M2202 2225c2,3 6,1 6,15l-2 -38 -4 23z"/>
  <path class="fil0" d="M2127 2264c8,20 13,32 12,64 -26,12 -8,-51 -32,-66 -3,58 21,75 23,123 11,-24 17,-119 -3,-121z"/>
  <polygon class="fil0" points="2095,2238 2100,2270 2101,2267 2096,2234 "/>
  <path class="fil0" d="M2400 1584c9,-1 5,-22 5,-32 -2,8 -7,19 -5,32z"/>
  <path class="fil0" d="M1058 2645c0,0 56,24 113,48 27,12 55,23 76,32 11,5 20,8 26,11 7,3 11,5 11,5 -20,-9 -34,-15 -50,-22 -16,-7 -32,-14 -50,-21 -36,-15 -76,-32 -126,-53z"/>
  <path class="fil0" d="M2467 761c5,35 9,60 14,85 2,13 4,26 4,39 1,14 2,29 2,47 5,-23 7,-42 7,-59 0,-17 -4,-32 -6,-47 -3,-14 -6,-28 -7,-44 -2,-15 -2,-31 2,-51l-16 30z"/>
  <path class="fil0" d="M2533 786c-15,12 -19,-56 -30,-45 2,24 6,30 9,35 3,5 6,9 5,31 0,0 4,-5 8,-11 4,-5 8,-10 8,-10z"/>
  <path class="fil0" d="M2254 1064c0,0 -1,-5 -2,-10 -2,-5 -3,-10 -3,-10 0,0 0,4 0,8 0,4 1,8 1,8l4 4z"/>
  <polygon class="fil0" points="2476,453 2482,460 2476,421 "/>
  <polygon class="fil0" points="2488,467 2482,460 "/>
  <path class="fil0" d="M2225 1036c0,0 -2,6 -4,13 -2,7 -4,14 -4,14l5 14c0,0 1,-10 2,-21 0,-10 1,-20 1,-20z"/>
  <path class="fil0" d="M2327 796l4 25c0,-5 7,-40 -4,-25z"/>
  <path class="fil0" d="M2380 228c0,0 -7,-8 -15,-16 -3,-3 -7,-7 -10,-10 -3,-3 -5,-5 -5,-5l2 5c0,0 7,7 15,15 7,8 14,15 14,15l-1 -4z"/>
  <path class="fil0" d="M2271 607c-5,9 -7,-3 -10,-12 -2,-9 -4,-16 -6,1 4,14 6,19 9,18 2,0 5,-5 7,-7z"/>
  <path class="fil0" d="M2195 257c-3,-3 -6,-5 -10,-7 4,3 7,5 10,7z"/>
  <path class="fil0" d="M2195 257c10,10 16,22 24,27 -6,-16 -13,-19 -24,-27z"/>
  <path class="fil0" d="M2061 193c1,0 12,3 12,3 -13,3 -7,4 4,1 12,2 13,-1 15,-3 3,-1 6,-1 9,-2 -5,0 -8,1 -12,1 -19,-5 -31,-6 -28,0z"/>
  <path class="fil0" d="M1441 413c15,-25 25,-41 33,-49 7,-8 11,-9 14,-5 16,-23 19,-35 21,-44 2,-10 1,-18 10,-33 -18,27 -29,42 -40,60 -11,17 -23,36 -38,71z"/>
  <path class="fil0" d="M1519 282c4,-6 8,-11 13,-18 -6,7 -10,13 -13,18z"/>
  <path class="fil0" d="M2137 346c0,0 -1,-1 -4,-1 -2,0 -5,0 -8,-1 -5,-1 -11,-1 -11,-1l6 3c0,0 4,0 9,0 2,0 4,0 5,0 2,0 3,0 3,0z"/>
  <path class="fil0" d="M1404 480c5,-8 11,-22 17,-27 -8,-6 -21,36 -17,27z"/>
  <path class="fil0" d="M1656 395c7,-1 23,-27 32,-35 -12,13 -34,15 -32,35z"/>
  <path class="fil0" d="M1385 628c4,-8 15,-19 20,-11 1,-14 -8,-37 -20,11z"/>
  <path class="fil0" d="M1609 467l6 -4c0,0 3,-8 6,-16 2,-7 5,-15 5,-15 0,0 -4,9 -8,18 -5,8 -9,17 -9,17z"/>
  <path class="fil0" d="M1780 454c4,-14 -8,-10 -19,-6 -10,3 -19,5 -7,-19 -26,24 -21,26 -15,26 6,0 14,-1 0,19 5,-6 9,-10 14,-13 5,-4 9,-6 13,-7 8,-3 13,-2 14,0z"/>
  <path class="fil0" d="M1739 474c-3,3 -6,6 -9,11 4,-5 6,-8 9,-11z"/>
  <path class="fil0" d="M1496 890c0,-5 0,-9 -1,-12 0,4 0,8 1,12z"/>
  <path class="fil0" d="M1671 627c0,0 1,-14 2,-27 2,-13 3,-26 3,-26 -1,8 -4,20 -7,32 -4,13 -8,26 -11,38 -7,24 -10,45 -2,45 13,-24 23,-56 21,-72l-6 10z"/>
  <path class="fil0" d="M1242 1015c0,0 -6,-7 -6,-7 0,0 -2,0 -2,0 3,2 13,14 8,7z"/>
  <path class="fil0" d="M1234 1008l0 0c0,0 0,0 0,0z"/>
  <path class="fil0" d="M1517 792c6,-16 10,-29 12,-45 -2,3 -8,14 -11,24 -4,11 -6,21 -1,21z"/>
  <polygon class="fil0" points="1260,1072 1259,1059 1259,1070 "/>
  <path class="fil0" d="M1234 1034l-2 -7c0,0 2,10 2,9l2 7c0,0 -2,-9 -2,-9z"/>
  <path class="fil0" d="M1511 1467c3,-18 3,-40 1,-56 -2,-16 -5,-27 -7,-24l-9 75c6,-1 7,-6 7,-16 0,-10 -1,-23 4,-43l4 64z"/>
  <path class="fil0" d="M123 1113c0,-8 12,-27 25,-42 6,-8 13,-15 19,-20 6,-5 11,-8 13,-7 -3,10 -25,42 -6,26 0,0 5,-14 10,-28 3,-8 6,-15 8,-20 2,-6 3,-9 3,-9 33,-24 27,-8 11,17 -7,13 -15,28 -24,42 -8,14 -14,28 -18,36 22,-29 37,-49 50,-70 16,-20 31,-42 64,-68 -20,14 -36,20 -48,26 -14,-9 51,-59 101,-89 -9,3 -14,5 -18,5 -3,0 -3,-1 -3,-3 2,-5 12,-14 22,-23 5,-3 7,-6 9,-8 2,-2 5,-4 7,-6l-6 3c-1,-1 -3,-2 -9,-2 -11,7 -21,13 -31,19 -10,6 -20,11 -29,15 -19,10 -34,19 -47,30 10,-1 10,4 4,11 -3,4 -8,8 -13,13 -5,6 -11,12 -18,18 -6,6 -13,13 -20,19 -7,7 -13,14 -19,21 -11,13 -22,25 -26,34l-23 37c0,0 -3,4 -5,7 -2,3 -4,7 -4,7 -4,1 -5,-5 6,-28 -2,5 -7,12 -11,20 -4,9 -9,18 -14,26 -8,17 -15,31 -10,30 0,0 -1,2 -3,6 -2,5 -5,11 -9,18 -4,8 -8,16 -12,26 -4,9 -8,19 -12,30 -3,10 -7,20 -10,30 -3,10 -5,19 -7,27 -2,7 -4,14 -5,18 -1,5 -1,8 -1,8 -2,5 -5,10 -7,13 0,6 1,7 3,7 0,0 -2,11 -5,31 -2,20 -5,48 -5,81 0,33 2,71 8,110 5,39 14,78 25,117 21,77 51,147 76,198 13,25 24,46 32,60 8,14 13,22 13,22 -13,-26 -21,-51 -32,-80 18,17 13,5 6,-9 -7,-15 -15,-34 -5,-31 14,16 25,43 30,60 10,2 4,-23 14,-25 -12,-34 -27,-51 -42,-67 -15,-16 -31,-33 -41,-69 10,-1 25,18 8,-27l6 11c-18,-35 -16,-52 -16,-64 0,-12 -1,-20 -18,-41l13 -2c-9,-16 -16,-42 -21,-69 -5,-28 -8,-56 -9,-77l3 2c-9,-59 -6,-77 -4,-96 2,-9 3,-19 7,-35 1,-8 3,-18 6,-30 3,-12 5,-26 11,-43 0,0 -1,4 -1,10 -1,6 -1,15 -1,23 -1,8 -1,16 0,23 0,6 0,10 0,10 16,-45 4,-60 18,-92 2,3 13,-1 5,30 0,0 0,-2 1,-7 1,-4 2,-11 4,-19 2,-7 5,-16 7,-26 3,-10 7,-20 10,-30l3 -8 3 -7c1,-4 3,-9 5,-13 3,-8 7,-16 10,-23 2,-7 5,-13 7,-17 2,-4 3,-6 3,-6 14,-37 -13,1 -21,3z"/>
  <path class="fil0" d="M278 970c3,-3 7,-6 11,-9 5,-3 9,-6 14,-10 -5,3 -9,6 -14,9 -4,3 -8,7 -11,10z"/>
  <path class="fil0" d="M176 1990c0,0 -6,-9 -11,-18 -6,-9 -11,-18 -11,-18 6,12 12,24 22,36z"/>
  <path class="fil0" d="M490 834c-32,1 20,-15 25,-21 0,0 -28,6 -55,14 -14,4 -27,9 -38,12 -5,2 -9,3 -12,4 -3,2 -4,2 -4,2 2,5 -6,15 -2,18 0,0 5,-2 13,-6 8,-2 19,-6 29,-10 11,-4 22,-7 30,-9 9,-2 14,-4 14,-4z"/>
  <path class="fil0" d="M371 850c-2,5 -12,12 -23,22 0,0 4,-2 9,-5 5,-3 12,-6 20,-9 14,-6 29,-13 29,-13 -2,-3 -10,-4 -35,5z"/>
  <path class="fil0" d="M492 1096l-11 5c0,0 0,1 -2,2 -1,1 -3,2 -4,4 -4,3 -7,6 -7,6 0,0 2,-2 4,-3 2,-2 4,-4 8,-6 6,-4 12,-8 12,-8z"/>
  <path class="fil0" d="M333 1194c8,-4 15,-12 21,-20 6,-8 12,-16 14,-20 -11,12 -15,15 -18,18 -3,4 -7,8 -17,22z"/>
  <path class="fil0" d="M420 1220c0,0 -1,1 -2,3 -1,2 -3,5 -4,8 -4,6 -7,11 -7,11l3 0c0,0 2,-6 5,-11 2,-6 5,-11 5,-11z"/>
  <path class="fil0" d="M404 2196c4,5 9,9 14,13 -7,-6 -11,-10 -14,-13z"/>
  <path class="fil0" d="M190 1937c18,44 7,33 -8,14 -15,-18 -34,-44 -35,-26 0,0 7,10 15,21 8,10 16,21 16,21l-6 -2c0,0 8,14 17,27 9,13 18,26 18,26 0,-15 -5,-24 5,-26 21,36 23,42 22,48 -1,5 -5,9 9,37 0,0 4,5 9,12 5,7 13,17 20,26 8,9 16,18 22,25 5,7 9,11 9,11l-7 -4c6,6 9,8 12,9 0,0 13,15 34,37 9,11 22,23 36,36 13,13 27,28 42,41 15,13 29,26 43,38 15,11 28,22 40,31 22,19 38,30 38,30 50,28 -14,-32 27,-18 -26,-18 -55,-47 -80,-68 -25,-22 -45,-38 -53,-33 3,0 10,-1 1,-12 0,0 -9,-3 -18,-7 -10,-5 -19,-9 -19,-9 0,0 5,8 11,15 3,4 6,7 8,10 2,3 3,5 3,5 -9,-4 -22,-13 -35,-25 -14,-11 -29,-24 -41,-39 -26,-30 -48,-60 -52,-72 13,13 21,20 29,25 7,5 12,7 18,10 5,4 11,8 19,16 4,4 8,10 14,16 5,7 12,15 20,24 0,-6 -7,-25 11,-11 -22,-19 -40,-40 -58,-60 -19,-20 -36,-42 -53,-63 -34,-44 -66,-88 -103,-136z"/>
  <path class="fil0" d="M1049 2625l-1 1c2,0 3,0 1,-1z"/>
  <path class="fil0" d="M1018 2608l-54 -6c0,0 18,8 37,17 18,8 36,16 36,16l11 -9c-8,0 -36,-6 -44,-15l14 -3z"/>
  <path class="fil0" d="M905 2585c40,14 44,-1 27,-17 37,11 11,23 42,21 4,-10 -41,-25 -52,-29l-17 25z"/>
  <polygon class="fil0" points="633,2417 647,2419 623,2400 "/>
  <path class="fil0" d="M647 2419c0,0 6,5 12,9 6,5 12,9 12,9 1,-5 2,-10 -1,-15 0,0 -5,-1 -11,-1 -6,-1 -12,-2 -12,-2z"/>
  <path class="fil0" d="M736 2482c10,8 22,16 36,25l-36 -25z"/>
  <path class="fil0" d="M708 2461l0 3c0,0 7,5 14,9 7,5 14,9 14,9 -10,-7 -19,-13 -28,-21z"/>
  <path class="fil0" d="M671 2437c-1,11 -2,24 36,45l1 -18 -37 -27z"/>
  <path class="fil0" d="M316 1375c0,0 0,6 1,11 0,6 1,12 1,12l2 -2c0,0 0,-1 -1,-4 0,-2 0,-5 0,-8 -1,-6 -1,-11 -1,-11l-2 2z"/>
  <path class="fil0" d="M303 1515c3,6 5,11 8,15 -2,-6 -5,-12 -8,-15z"/>
  <path class="fil0" d="M398 1606c-1,32 -27,-36 -13,19 -8,8 -29,-13 -31,-41 9,0 13,24 17,5 -15,-13 -10,-22 -22,-12 -15,-27 -25,-28 -38,-47 6,17 10,46 18,75 8,30 21,60 39,79 26,18 40,-6 62,-15 2,-3 -3,-20 -9,-35 -7,-15 -15,-30 -23,-28z"/>
  <path class="fil0" d="M408 1556c-1,-13 -4,-16 -7,-23 -8,3 5,13 7,23z"/>
  <path class="fil0" d="M401 1948c4,1 26,23 27,14 0,0 -8,-9 -15,-17 -8,-9 -16,-18 -16,-18 6,9 5,15 4,21z"/>
  <path class="fil0" d="M384 1911l13 16c-2,-4 -6,-9 -13,-16z"/>
  <path class="fil0" d="M400 1951c1,-1 1,-2 1,-3 -1,0 -2,0 -1,3z"/>
  <path class="fil0" d="M839 2548c-3,6 18,13 29,16 -8,-5 -18,-13 -29,-16z"/>
  <path class="fil0" d="M1607 2847l17 11c-6,-5 -9,-8 -17,-11z"/>
  <path class="fil0" d="M1935 2752c1,-1 3,-2 5,-2 -2,0 -4,1 -5,2z"/>
  <path class="fil0" d="M1940 2750c6,-1 19,2 31,6 13,3 25,6 33,3l-2 2c0,0 6,0 13,1 6,0 13,0 13,0 -12,-2 -30,-6 -47,-9 -17,-3 -34,-6 -41,-3z"/>
 </g>
</svg>
