<?xml version="1.0" encoding="UTF-8"?>
<!DOCTYPE svg PUBLIC "-//W3C//DTD SVG 1.1//EN" "http://www.w3.org/Graphics/SVG/1.1/DTD/svg11.dtd">
<!-- Creator: CorelDRAW X8 -->
<svg xmlns="http://www.w3.org/2000/svg" xml:space="preserve" width="1.3873in" height="1.22792in" version="1.1" style="shape-rendering:geometricPrecision; text-rendering:geometricPrecision; image-rendering:optimizeQuality; fill-rule:evenodd; clip-rule:evenodd"
viewBox="0 0 160 142"
 xmlns:xlink="http://www.w3.org/1999/xlink">
 <defs>
  <style type="text/css">
   <![CDATA[
    .fil0 {fill:black;fill-rule:nonzero}
    .fil1 {fill:white;fill-rule:nonzero}
   ]]>
  </style>
 </defs>
 <g id="__x0023_Layer_x0020_1">
  <metadata id="CorelCorpID_0Corel-Layer"/>
  <path class="fil0" d="M80 32c0,0 -5,-40 -49,-30 -45,11 -33,63 -13,86 19,22 63,54 63,54 0,0 51,-38 65,-58 13,-21 27,-51 -4,-78 -25,-17 -60,5 -62,26z"/>
  <path class="fil1" d="M97 33c24,-13 21,16 10,20 4,0 6,-2 7,-5l0 0c0,0 0,0 0,0 5,-7 6,-30 -19,-16 -18,10 -12,-23 12,-21 8,0 14,7 16,11 2,3 4,7 5,13 3,11 2,22 -1,32 -1,7 -15,46 -46,75 14,-13 17,-15 19,-18 4,-4 11,-13 16,-19 5,-6 8,-11 12,-18 4,-8 8,-16 9,-29 1,-10 0,-31 -12,-42 -6,-6 -20,-14 -32,-7 -11,6 -25,38 4,24z"/>
  <path class="fil1" d="M87 129c-33,9 -57,-58 -29,-67 15,-4 26,22 19,36 -4,6 -15,5 -14,-5 0,-6 9,-9 12,0 3,-13 -7,-27 -17,-25 -27,8 3,68 29,61z"/>
  <path class="fil1" d="M75 129c33,11 55,-55 27,-65 -15,-6 -26,20 -18,34 3,7 14,6 14,-4 -1,-6 -10,-9 -12,-1 -4,-13 6,-27 15,-23 28,9 0,67 -26,59z"/>
  <path class="fil1" d="M81 142c0,0 53,-36 56,-63 0,0 -24,35 -56,63z"/>
  <path class="fil1" d="M65 33c-24,-14 -22,16 -10,20 -4,0 -6,-2 -7,-5l0 0c0,0 0,0 0,0 -6,-8 -7,-30 19,-16 18,10 12,-23 -12,-22 -8,1 -14,8 -16,12 -2,2 -4,6 -6,12 -2,12 -1,22 1,32 2,8 16,47 47,76 -14,-13 -17,-15 -19,-19 -4,-4 -12,-13 -16,-18 -5,-6 -9,-12 -12,-18 -4,-8 -8,-16 -9,-29 -1,-10 0,-31 12,-43 6,-6 19,-13 32,-6 11,6 24,38 -4,24z"/>
  <path class="fil1" d="M81 142c0,0 -53,-36 -57,-63 0,0 25,35 57,63z"/>
  <path class="fil1" d="M35 8c0,0 -28,24 -12,61 0,0 -26,-37 12,-61z"/>
  <path class="fil1" d="M21 15c0,0 -18,16 -8,40 0,0 -17,-24 8,-40z"/>
  <path class="fil1" d="M12 15c0,0 -14,12 -8,31 0,0 -12,-20 8,-31z"/>
  <path class="fil1" d="M125 8c0,0 27,24 12,61 0,0 26,-37 -12,-61z"/>
  <path class="fil1" d="M139 15c0,0 17,16 8,40 0,0 16,-24 -8,-40z"/>
  <path class="fil1" d="M147 15c0,0 15,12 8,31 0,0 12,-20 -8,-31z"/>
 </g>
</svg>
