<?xml version="1.0" encoding="UTF-8"?>
<!DOCTYPE svg PUBLIC "-//W3C//DTD SVG 1.1//EN" "http://www.w3.org/Graphics/SVG/1.1/DTD/svg11.dtd">
<!-- Creator: CorelDRAW X8 -->
<svg xmlns="http://www.w3.org/2000/svg" xml:space="preserve" width="1.25713in" height="1.48124in" version="1.1" style="shape-rendering:geometricPrecision; text-rendering:geometricPrecision; image-rendering:optimizeQuality; fill-rule:evenodd; clip-rule:evenodd"
viewBox="0 0 95 112"
 xmlns:xlink="http://www.w3.org/1999/xlink">
 <defs>
  <style type="text/css">
   <![CDATA[
    .fil0 {fill:black;fill-rule:nonzero}
    .fil1 {fill:black;fill-rule:nonzero}
   ]]>
  </style>
 </defs>
 <g id="__x0023_Layer_x0020_1">
  <metadata id="CorelCorpID_0Corel-Layer"/>
  <path class="fil0" d="M18 112c3,-15 15,-25 29,-33 16,-11 35,-20 42,-34 8,-14 6,-33 -6,-40 -8,-5 -26,-8 -33,10 4,-16 20,-17 30,-13 20,8 17,35 7,48 -10,12 -17,16 -30,24 -12,7 -27,17 -33,28 0,0 -2,5 -3,6 -1,1 -3,4 -3,4z"/>
  <path class="fil0" d="M50 24l1 0c2,2 5,3 7,3 2,0 4,-1 5,-3 2,-1 2,-3 2,-5 0,-2 -1,-4 -2,-4 -2,-1 -4,-1 -5,0 -2,1 -3,3 -3,4 0,2 1,3 3,3 1,0 2,0 2,-1 2,-1 2,-2 2,-2 0,0 0,1 -2,2 0,1 -1,1 -2,1 -2,0 -2,-1 -3,-3 0,-1 1,-3 3,-4 1,-1 3,-1 4,0 2,1 3,2 3,4 0,2 -1,4 -2,5 -3,3 -8,3 -10,0 -2,-1 -2,-2 -3,-4 0,0 0,-1 0,-2 1,-4 5,-8 8,-10 5,-2 8,-1 11,0 3,1 4,2 7,4 2,2 5,5 6,7 3,5 10,29 -19,50 6,0 21,-16 22,-17 5,-4 8,-11 8,-17 1,-4 5,-19 -8,-30 -4,-4 -28,-12 -36,8 -1,3 -1,7 1,11z"/>
  <path class="fil0" d="M48 25c-2,3 -5,5 -7,5 -2,0 -4,0 -6,-1 -2,-2 -4,-4 -4,-6 0,-2 1,-4 2,-5 2,-1 4,-2 6,-1 2,1 3,3 3,4 0,2 -1,3 -2,4 -1,0 -2,0 -3,0 -2,-1 -2,-2 -2,-2 0,0 0,1 2,2 1,0 2,0 3,0 1,-1 2,-2 2,-4 0,-1 -1,-3 -3,-4 -2,0 -4,0 -6,1 -1,1 -2,3 -2,5 1,2 2,4 4,5 4,3 9,1 11,-1 1,-2 2,-4 2,-5 0,-1 0,-2 0,-3 -2,-5 -7,-8 -11,-9 -6,-1 -9,0 -12,2 -4,2 -5,3 -7,6 -2,2 -4,6 -5,9 -2,6 -3,35 34,52 -8,0 -29,-14 -31,-15 -6,-4 -10,-11 -12,-17 -2,-4 -9,-20 3,-35 3,-5 27,-19 40,2 2,2 3,7 1,11z"/>
  <path class="fil1" d="M39 75c0,0 -1,0 0,0 0,0 -1,0 0,0 -3,-2 -15,-12 -12,-13 7,-2 11,-9 3,-13 -3,-2 -6,-8 0,-15 -4,1 -8,4 -10,9 -2,7 2,14 2,14 -2,1 -6,-11 -5,-17 1,-3 2,-5 4,-7 2,-1 10,-3 8,-7 -7,1 8,-11 2,-10 -1,1 -14,8 -13,10 -3,-10 15,-22 25,-13 8,8 -9,15 -6,4 -8,8 5,23 11,13 6,-11 -9,-25 -19,-20 -23,7 -21,51 10,65z"/>
  <path class="fil1" d="M58 72c0,0 1,0 0,0 0,0 0,0 0,0 2,-2 15,-12 12,-13 -7,-2 -11,-10 -3,-13 3,-2 6,-8 -1,-15 5,1 9,4 11,9 2,7 -2,14 -2,14 2,1 6,-11 5,-17 -1,-3 -2,-5 -4,-7 -2,-1 -10,-3 -8,-7 7,0 -8,-11 -2,-10 1,0 14,8 13,10 3,-11 -15,-22 -25,-13 -8,8 9,16 6,4 9,9 -3,23 -9,12 -7,-10 7,-24 17,-20 23,8 21,52 -10,66z"/>
 </g>
</svg>
