<?xml version="1.0" encoding="UTF-8"?>
<!DOCTYPE svg PUBLIC "-//W3C//DTD SVG 1.1//EN" "http://www.w3.org/Graphics/SVG/1.1/DTD/svg11.dtd">
<!-- Creator: CorelDRAW X8 -->
<svg xmlns="http://www.w3.org/2000/svg" xml:space="preserve" width="2.31905in" height="2.26418in" version="1.1" style="shape-rendering:geometricPrecision; text-rendering:geometricPrecision; image-rendering:optimizeQuality; fill-rule:evenodd; clip-rule:evenodd"
viewBox="0 0 2347 2291"
 xmlns:xlink="http://www.w3.org/1999/xlink">
 <defs>
  <style type="text/css">
   <![CDATA[
    .fil1 {fill:red;fill-rule:nonzero}
    .fil0 {fill:#FF4646;fill-rule:nonzero}
   ]]>
  </style>
 </defs>
 <g id="Layer_x0020_1">
  <metadata id="CorelCorpID_0Corel-Layer"/>
  <path class="fil0" d="M1650 84c-5,0 -15,2 -27,5 -2,1 -5,1 -7,2 -9,2 -17,4 -25,6 -20,11 -72,28 -102,47l0 0c64,-28 130,-47 198,-56l0 0c-11,-1 -25,-2 -36,-4l0 0c0,0 -1,0 -1,0l0 0z"/>
  <path class="fil0" d="M1794 73c-3,0 -5,0 -7,0 -25,3 -18,5 -48,10l0 0c16,-1 32,-2 49,-2 36,0 74,3 111,11 45,9 87,23 128,44 7,0 14,-1 20,-2l0 0c-13,-11 -53,-27 -80,-37 -13,-3 -23,-6 -36,-10 -2,0 -4,0 -6,0 -4,-1 -8,-1 -10,-1l0 0c-1,0 -2,0 -3,0l0 0c-4,-1 -8,-2 -12,-2 -34,-6 -68,-10 -103,-11 -1,0 -2,0 -3,0l0 0z"/>
  <path class="fil0" d="M1529 61c-29,7 -88,37 -140,73 8,-3 14,-5 20,-7 38,-26 80,-48 120,-66z"/>
  <path class="fil0" d="M1872 39c-6,0 -5,2 8,6 20,4 36,5 75,12 -7,-6 -67,-18 -83,-18z"/>
  <path class="fil0" d="M99 525c-1,16 -1,29 -1,39 0,22 2,36 3,50 0,-25 2,-54 4,-79l-6 -10z"/>
  <path class="fil0" d="M494 46c-1,0 -1,0 -2,0 -15,0 -30,1 -45,2 -13,1 -27,2 -42,5 -8,1 -17,2 -26,4l0 0c-61,13 -122,36 -176,76 -31,24 -83,78 -106,124 -6,8 -13,19 -20,31 -11,27 -23,51 -30,79 2,6 3,11 5,16 7,-18 13,-37 23,-54 6,-12 11,-24 17,-36 1,-5 4,-11 5,-16 0,-1 0,-3 0,-6l0 0c27,-44 63,-81 103,-110 34,-29 74,-48 115,-65 26,-13 60,-23 99,-29 8,-2 17,-3 26,-4 4,0 7,0 10,0l0 0c2,-1 4,-1 6,-1 24,-3 50,-4 74,-4 1,0 2,0 3,0l0 0c1,0 1,0 2,0 2,0 3,0 5,0 4,0 8,0 12,0l0 0 13 -7c55,10 85,12 126,26 15,2 33,4 51,8 -32,-13 -62,-22 -96,-30l0 0c-26,-3 -53,-4 -79,-5l0 0c-6,-1 -13,-1 -19,-2 -18,-1 -35,-2 -53,-2 0,0 -1,0 -1,0l0 0z"/>
  <path class="fil0" d="M505 100c-23,2 -45,3 -67,8 -17,2 -35,5 -50,10 1,0 2,0 3,0 23,0 14,4 40,5 16,-2 32,-3 49,-3 11,0 22,0 32,1 -4,-4 -6,-8 -8,-12 16,0 34,-1 51,-1 1,0 3,0 4,0 -5,-3 -25,-7 -54,-8z"/>
  <path class="fil0" d="M618 80c9,3 15,5 21,8 35,6 68,14 102,25 -18,-9 -40,-18 -62,-26l0 0c-3,-1 -8,-2 -10,-3l0 0c-17,-2 -34,-3 -51,-4z"/>
  <path class="fil0" d="M592 121c0,0 -1,1 -4,2 8,7 57,14 107,25 -34,-11 -67,-20 -103,-27z"/>
  <path class="fil1" d="M1125 518c-4,16 -6,26 -3,26 0,0 1,-1 3,-2 1,-6 3,-12 5,-18 -1,-2 -3,-4 -5,-6zm6 -18c0,0 0,0 0,1 1,4 1,9 2,14 1,-2 2,-5 3,-8 -2,-2 -3,-5 -5,-7zm1191 112c-5,-7 -8,-31 -11,-71 1,-1 1,-1 1,-1 6,0 13,39 10,72zm-11 -125c-7,-12 -15,-38 -23,-84 -9,-34 -18,-65 -32,-98 19,27 32,76 38,103 7,28 12,52 17,79zm-55 -182c-49,-104 -133,-174 -226,-220 124,47 182,124 226,220zm-301 -248c-39,-7 -55,-8 -75,-12 -13,-4 -14,-6 -8,-6 16,0 76,12 83,18zm-196 -40c-1,0 -2,0 -3,0 -4,0 -8,0 -12,0 -9,0 -18,1 -27,1l0 0c-23,5 -80,10 -86,18 -23,5 -41,7 -61,12l-41 13c-40,18 -82,40 -120,66 -6,2 -12,4 -20,7 -21,13 -50,37 -64,47 -38,31 -75,65 -107,101 -9,13 -15,25 -21,36 33,-33 52,-53 99,-91 -14,16 -29,35 -42,53 -5,11 -10,23 -13,32 -20,23 -40,48 -57,74 -7,12 -13,28 -20,42 -3,5 -6,9 -8,14 1,5 2,9 3,12 2,-4 4,-7 6,-11 25,-43 53,-87 107,-148 11,-11 24,-24 36,-35l0 0c18,-16 27,-28 42,-43 78,-65 141,-91 229,-126l0 0c64,-18 131,-29 199,-30 2,0 3,0 4,0l0 0c0,0 1,0 1,0 38,1 75,4 111,11 6,-1 15,-2 22,-3 28,8 58,16 86,28 13,5 26,11 35,16 46,25 110,75 146,126 85,119 105,256 112,383l0 0c0,79 2,169 -14,226 0,3 0,5 0,7 0,29 -13,79 -16,113 -13,46 -11,12 -23,63 -4,9 -5,11 -5,14 0,0 0,1 0,2 0,2 0,5 -2,13 -33,89 -77,176 -130,255 -30,54 -35,55 -63,101 -6,8 -11,14 -15,19 -13,12 -63,68 -79,88 -5,12 -34,35 -43,53 -28,28 -57,55 -87,81 -29,26 -59,52 -90,76 -34,27 -80,60 -112,91 -47,34 -110,76 -143,103 -48,33 -133,94 -168,127 -4,2 -6,4 -10,7 -10,2 -28,11 -33,14 -17,13 -33,25 -49,39 -10,6 -19,12 -26,17 -36,27 -6,13 -67,58 -6,5 -11,9 -19,16l0 0c0,1 0,3 -1,5 -6,5 -11,9 -17,14l0 0c-1,1 -2,2 -3,2 -11,8 -24,11 -36,12 0,0 -1,0 -1,0l0 0c-1,0 -1,0 -2,0 -7,-1 -15,-2 -20,-5l0 0c-34,-15 -53,-18 -100,-85 -6,-8 -12,-15 -17,-21 -11,-19 -12,-7 -43,-63 -11,-18 -22,-39 -34,-60 -7,-13 -15,-28 -22,-41 -16,-25 -32,-42 -50,-86 -47,-93 -96,-178 -157,-262 -13,-12 -25,-24 -37,-34 -11,-13 -20,-17 -36,-42 -3,-7 -8,-16 -10,-24 -5,-9 -9,-18 -12,-25 -19,-23 -37,-47 -73,-80 -58,-53 -135,-164 -196,-258 0,0 0,0 0,0 1,2 0,3 0,3 0,0 -1,0 -1,0l0 0c-4,0 -24,-33 -39,-56 -3,-5 -6,-9 -9,-13 0,0 0,-1 0,-1 0,7 2,15 4,24 9,13 20,25 28,35 30,43 73,115 118,170 33,48 68,95 102,141 -10,-11 -20,-21 -28,-30 -28,-38 -54,-75 -80,-112 -7,-7 -15,-15 -24,-24 -31,-49 -51,-75 -58,-80 -21,-29 -42,-62 -61,-93 0,-4 -1,-7 1,-8 -18,-30 -35,-63 -50,-96l0 0c-11,-22 -20,-43 -30,-67 -28,-64 -50,-129 -65,-199 -5,-33 -8,-64 -9,-97 -2,-23 -3,-45 -3,-67 0,-17 0,-34 1,-50 0,-3 0,-5 0,-7 0,-9 -1,-14 -1,-23 0,-7 1,-15 4,-29 4,-19 9,-39 13,-59 1,-10 3,-20 5,-31 -2,-5 -3,-10 -5,-16 -13,35 -20,76 -27,111 -1,32 -7,82 -7,122 0,15 1,29 3,39 2,22 3,41 6,65 3,13 7,28 11,43 7,65 27,120 49,181 16,36 35,73 54,107 3,7 6,14 11,23 11,19 24,38 36,56 2,14 13,37 33,67 12,16 22,29 34,45 11,17 21,31 34,49 12,17 23,31 37,50 3,5 5,11 7,16 10,11 19,21 28,31 12,16 23,30 37,48 13,18 28,37 41,55 5,7 9,13 12,18l0 0c7,10 15,20 20,28l0 0c21,22 41,48 66,78 7,10 12,18 19,28 1,3 1,5 2,8l0 0c18,25 33,49 54,77 38,57 68,115 100,179l0 0c8,17 18,27 40,73l0 0c19,35 38,70 58,105l0 0c9,12 24,27 39,55 15,24 31,50 50,73l0 0c9,11 20,23 29,31l0 0c17,17 35,34 66,48 1,1 2,1 3,1 5,2 10,4 16,6 9,2 19,4 29,4 1,0 1,0 2,0 5,0 10,0 15,-1 26,-1 55,-21 64,-30l0 0 16 -13c0,0 -1,0 -1,0l0 0c-5,0 11,-15 43,-39 0,-1 1,-1 1,-1 1,-1 2,-2 3,-3 4,-2 7,-5 11,-7 1,-1 2,-2 3,-3 3,-2 7,-5 11,-8 1,0 1,-1 2,-1l0 0c29,-22 61,-46 93,-68l0 0c41,-35 65,-52 103,-75l0 0c48,-33 97,-68 145,-102l0 0c6,-9 30,-28 60,-47l0 0c70,-52 146,-108 209,-166 48,-43 97,-90 144,-141l0 0c1,-10 45,-51 44,-60 0,0 0,-1 0,-1l0 0c135,-137 203,-288 278,-471 0,-1 -1,-2 -1,-5 0,-2 1,-7 3,-15 4,-13 8,-28 11,-32 0,0 0,1 1,1 0,0 0,0 0,0 1,0 8,-28 12,-43 0,-1 0,-1 0,-1 0,-2 1,-3 1,-4 0,-7 -3,-3 -3,-11 0,-2 0,-7 1,-13 17,-53 29,-167 30,-247 0,-12 -1,-24 -1,-34 -7,-140 -26,-307 -121,-438 -20,-26 -101,-95 -109,-102 -52,-19 -46,-37 -98,-46 -47,-19 -97,-29 -115,-35 -1,0 -1,0 -2,0 -1,0 -1,0 -2,0l0 0c-15,0 -32,-2 -54,-4 -3,0 -7,-1 -11,-1 -18,-2 -40,-3 -65,-3 0,0 -1,0 -1,0z"/>
  <path class="fil1" d="M1550 1848c4,-3 6,-5 9,-8 -3,3 -5,5 -9,8zm232 -1787c-1,0 -2,0 -4,0 -68,1 -135,12 -199,30l0 0c-88,35 -151,61 -229,126 -15,15 -24,27 -42,43l0 0c4,-3 7,-5 9,-7l0 0c0,0 0,0 0,0 5,0 27,-21 53,-35l0 0c17,-13 42,-34 52,-36 23,-15 44,-26 67,-38l0 0c30,-19 82,-36 102,-47 8,-2 16,-4 25,-6 2,-1 5,-1 7,-2 12,-3 22,-5 27,-5l0 0c0,0 1,0 1,0l0 0c11,2 25,3 36,4l0 0c18,-3 34,-4 52,-5l0 0c30,-5 23,-7 48,-10 2,0 4,0 7,0l0 0c1,0 2,0 3,0 35,1 69,5 103,11 4,0 8,1 12,2l0 0c1,0 2,0 3,0l0 0c2,0 6,0 10,1 2,0 4,0 6,0 13,4 23,7 36,10 27,10 67,26 80,37l0 0c-6,1 -13,2 -20,2 71,35 139,94 174,168l0 0c4,7 9,15 14,25l0 0c25,28 56,136 61,193 3,32 4,67 4,101 0,5 0,10 0,14 2,30 3,60 3,90 0,1 0,2 0,3 0,7 -1,13 -2,17 -3,28 -8,56 -13,77l0 0c-1,8 -1,14 -1,20 0,8 1,16 1,24 0,14 -1,30 -7,54 -1,4 -2,7 -3,9 0,0 0,0 0,0 0,0 -1,0 -1,0 0,0 0,0 0,0l0 0c0,0 0,0 0,-1 -16,98 -68,223 -128,325 -10,21 -20,42 -31,62 -123,177 -307,354 -465,470 -11,13 -32,26 -74,53l0 0c67,-61 180,-138 270,-230 15,-15 29,-30 44,-46 -2,0 -5,2 -8,3l0 0c7,-10 13,-18 19,-27 -5,3 -10,6 -16,12 -13,13 -25,27 -76,68 -35,41 -100,84 -129,117 -8,2 -16,4 -22,5l-29 22 -16 11c-21,18 -42,35 -60,52 -9,5 -19,10 -28,16 -12,8 -26,18 -38,26l-23 28c-26,18 -42,29 -70,53 -21,14 -45,29 -67,44l0 0 3 -8c-2,2 -6,4 -8,6 -14,10 -26,18 -40,28 -17,15 -47,37 -58,47 -31,23 -69,61 -87,68 -16,11 -51,43 -73,66l0 0c0,0 -1,0 -2,0 0,0 0,0 0,0 -1,0 -1,0 -1,0l0 0c-4,0 -9,0 -13,-2 -23,-8 -46,-36 -64,-62 -1,-1 -2,-1 -2,-2 -1,-2 -2,-3 -3,-4l0 0c-15,-18 -30,-38 -43,-57 -4,-7 -6,-13 -8,-18l0 0c-13,-17 -25,-35 -37,-53 -11,-21 -40,-68 -33,-68 1,0 1,0 1,0l-27 -51 -17 -9c22,43 42,83 64,123 15,24 32,48 49,74 19,27 36,67 92,121 1,0 2,1 2,2 2,1 4,3 6,4 9,8 21,14 33,15 0,0 1,0 1,0 1,0 3,0 4,0 5,-1 10,-3 16,-6l0 0c22,-19 44,-40 66,-57 22,-20 44,-40 68,-61 61,-41 148,-98 229,-161 9,-4 16,-7 26,-12 31,-22 27,-25 96,-69l0 0c-28,24 -44,40 -98,75 -94,70 -160,111 -271,203 -19,14 -36,25 -55,40l0 0c-8,6 -16,13 -23,19 -6,5 -12,10 -19,15 -4,4 -8,7 -12,11 -2,0 -7,3 -11,5l0 0c-3,1 -6,2 -9,3 -4,2 -9,2 -13,2 -1,0 -1,0 -1,0l0 0c-4,0 -8,0 -11,-1 -3,0 -6,-1 -9,-2 -1,-1 -2,-1 -2,-1 -3,-1 -5,-2 -7,-4 -2,-1 -4,-2 -6,-3 -16,-9 -34,-24 -58,-55 -9,-8 -18,-16 -25,-23 0,5 0,9 1,16l0 0c47,67 66,70 100,85l0 0c5,3 13,4 20,5 1,0 1,0 2,0l0 0c0,0 1,0 1,0 12,-1 25,-4 36,-12 1,0 2,-1 3,-2l0 0c6,-5 11,-9 17,-14 1,-2 1,-4 1,-5l0 0c8,-7 13,-11 19,-16 61,-45 31,-31 67,-58 7,-5 16,-11 26,-17 16,-14 32,-26 49,-39 5,-3 23,-12 33,-14 4,-3 6,-5 10,-7 35,-33 120,-94 168,-127 33,-27 96,-69 143,-103 32,-31 78,-64 112,-91 31,-24 61,-50 90,-76 30,-26 59,-53 87,-81 9,-18 38,-41 43,-53 16,-20 66,-76 79,-88 4,-5 9,-11 15,-19 28,-46 33,-47 63,-101 53,-79 97,-166 130,-255 2,-8 2,-11 2,-13 0,-1 0,-2 0,-2 0,-3 1,-5 5,-14 12,-51 10,-17 23,-63 3,-34 16,-84 16,-113 0,-2 0,-4 0,-7l0 0c16,-57 14,-147 14,-226l0 0c-7,-127 -27,-264 -112,-383 -36,-51 -100,-101 -146,-126 -9,-5 -22,-11 -35,-16 -28,-12 -58,-20 -86,-28 -7,1 -16,2 -22,3 -36,-7 -73,-10 -111,-11 0,0 -1,0 -1,0l0 0z"/>
  <path class="fil1" d="M2164 301c13,28 23,57 32,89l0 0c9,23 18,48 25,75l0 0 8 7 -2 -30c-15,-41 -30,-110 -60,-140 -1,-1 -2,-1 -3,-1z"/>
  <path class="fil1" d="M2191 870c-4,32 -15,67 -16,93l3 7 0 0c4,-10 8,-19 11,-26l0 0c3,-18 5,-33 7,-51l0 0c3,-21 -3,-16 -5,-23z"/>
  <path class="fil1" d="M1040 2175c0,0 -1,0 -1,0 0,1 0,1 1,1 0,0 0,0 0,0 0,0 0,0 0,-1l0 0zm-1 0c0,0 0,0 0,0 0,0 0,0 0,0 0,0 0,0 0,0zm-1 -1c0,1 0,1 0,1 1,0 1,0 1,0 0,0 0,0 0,-1 0,0 0,0 -1,0zm-916 -1473c0,0 0,1 0,2 0,1 0,2 0,3 1,7 3,21 5,38 1,7 2,14 4,22 24,95 49,148 95,240 12,26 26,53 40,79 19,25 45,67 60,81 25,38 51,76 80,115 13,18 28,37 42,55 19,18 59,67 53,67 0,0 0,0 -1,0 -2,0 -3,-1 -5,-1 16,19 36,50 57,68 25,34 51,69 75,104l8 2c20,30 38,59 57,90 12,19 25,40 36,59 2,1 5,3 7,4 12,21 23,42 32,62 19,33 36,64 53,95 4,1 17,26 38,65 0,0 0,0 0,0 1,0 2,2 5,10 -2,-4 -4,-7 -5,-10l0 0c-1,0 -1,0 -1,1 0,1 1,4 1,6l0 0c0,0 0,1 0,1 0,4 24,47 39,62 6,12 13,26 19,37 16,26 32,50 51,74 13,14 35,41 53,46 3,2 7,3 9,5 5,1 9,2 11,2 1,0 2,0 2,0l0 0c0,0 0,0 0,0 2,0 3,-1 6,-3 6,-4 11,-8 17,-13 13,-11 27,-23 43,-39l0 0c0,1 0,1 0,1 -1,1 0,2 0,2 0,0 0,0 0,0 5,0 29,-19 45,-35 1,0 2,-1 3,-2 1,-1 2,-2 3,-3l0 0c1,-1 1,-1 2,-2 1,-1 3,-3 4,-4l0 0c17,-13 37,-28 55,-41 15,-8 30,-17 45,-26l0 0c14,-10 26,-18 40,-28 2,-2 6,-4 8,-6l0 0c29,-23 70,-51 100,-79 20,-13 40,-26 57,-38l0 0c12,-8 26,-18 38,-26 0,-1 0,-1 0,-1 0,-8 49,-41 88,-67l0 0 16 -11 29 -22 0 0 18 -16c35,-29 67,-56 101,-86 5,-5 11,-10 18,-16 20,-19 40,-37 59,-57 6,-5 11,-10 18,-16 16,-15 32,-33 49,-50l15 -16c16,-18 31,-35 47,-55 9,-11 20,-26 29,-38 22,-27 42,-54 61,-81 6,-8 10,-14 14,-20 23,-40 32,-65 78,-149 4,-2 8,-4 13,-9 9,-19 19,-40 28,-62 0,-1 0,-2 0,-3 0,-5 0,-11 0,-15 0,-1 0,-1 0,-2l0 0c6,-21 12,-41 16,-63 8,-26 8,-44 16,-72 5,-17 10,-34 14,-50l0 0c3,-25 6,-48 8,-73 -2,-4 -5,-9 -8,-14 -1,1 -2,1 -3,1 0,0 -1,0 -1,0 -1,0 -1,0 -2,0 -1,0 -1,0 -2,0 0,0 0,0 0,0l0 0c-3,21 -6,44 -10,67 -3,21 -6,45 -24,107 -1,1 -2,6 -3,8l0 0c-7,23 -22,75 -26,75l0 0c0,0 0,0 0,0 0,0 0,0 0,0 0,0 0,0 0,0 -1,-1 -1,-2 -1,-5l0 0c6,-20 10,-41 15,-62l-3 -7c-15,51 -34,98 -54,145 -19,42 -38,88 -86,162 -64,103 -151,197 -236,282 -28,25 -56,48 -85,70 -18,17 -31,32 -47,47 -29,24 -60,48 -90,71 -28,22 -74,51 -85,66 -26,20 -51,38 -77,58 4,1 8,2 13,3 19,-13 38,-25 55,-36 52,-42 160,-121 224,-177 70,-63 154,-134 209,-205 22,-24 12,-6 37,-38 51,-65 127,-176 171,-251l0 0c-64,140 -158,252 -251,357l0 0c0,0 0,0 0,0 0,0 0,0 0,0l0 0c0,0 -1,0 -1,0 -2,0 -6,4 -10,7 -1,1 -1,1 -1,1 -2,1 -3,2 -4,3 -1,1 -2,2 -3,3 -1,0 -2,1 -2,1l0 0c0,0 -1,0 -1,0 0,-1 0,-1 0,-1l0 0c0,0 0,-1 0,-1 -36,33 -46,46 -76,76 -1,1 -3,1 -4,2 -2,2 -4,3 -5,3 0,0 0,0 0,0 0,0 -1,0 0,0 0,-1 0,-1 1,-3 -2,2 -3,3 -5,5 -19,16 -39,33 -32,33 0,0 0,0 0,0l0 0c-6,8 -17,16 -28,26 -70,57 -144,110 -221,164 -27,20 -57,41 -85,60 -21,17 -44,43 -80,66l0 0c-1,0 -2,1 -3,1 0,1 0,1 0,1 -2,1 -3,2 -4,2 -4,3 -7,5 -9,5 0,0 -1,0 -1,0 0,1 0,1 0,1 -1,0 -1,-1 -1,-1 -1,0 0,-2 0,-3 1,-1 1,-1 1,-1 0,-1 0,-1 0,-2 -19,14 -42,29 -42,34 0,0 1,0 2,1l0 0c-10,10 -27,19 -39,29 -67,33 -90,80 -171,134 -1,0 -1,1 -2,1 0,0 0,1 -1,1 -1,1 -2,2 -2,2 -2,3 -4,4 -4,5 0,1 0,1 0,1 0,1 0,1 0,2 0,0 0,0 0,0 0,0 0,0 0,0l0 0c0,1 0,1 0,1 0,0 0,0 0,1 0,0 0,0 0,0 0,0 0,0 0,0 0,0 0,0 0,-1 -1,0 -1,0 -1,-1 0,0 0,0 0,0 0,0 0,0 -1,0 0,0 0,0 0,0l0 0c-6,0 -23,-10 -37,-22 -2,-7 -7,-15 -10,-21 -75,-96 -138,-205 -190,-316 -13,-14 -38,-69 -67,-102 -15,-34 -4,-22 -27,-58l0 0c-1,0 -1,-1 -2,-2 -1,-2 -2,-4 -4,-6 -1,-1 -1,-2 -2,-4 -13,-18 -28,-42 -32,-42 0,0 0,0 0,0 -1,1 -1,1 -1,1 -11,-12 -24,-33 -58,-72l-13 -18c-10,-26 -63,-94 -86,-122 -9,-7 -21,-26 -31,-38l-44 -63c-70,-84 -145,-192 -191,-276 -8,-18 -17,-38 -25,-59l0 0c0,0 -1,0 -1,0l0 0c-9,0 -25,-47 -37,-74 -2,-5 -4,-9 -6,-13 -1,-1 -1,-2 -2,-2 -9,-25 -17,-52 -24,-77 -7,-13 -14,-53 -25,-86 0,0 0,0 0,0 0,-1 0,-1 -1,-1 0,-1 0,-1 0,-1z"/>
  <path class="fil1" d="M1714 1622l-14 4c-33,29 -64,54 -99,81 -7,11 -15,21 -24,33 30,-23 61,-47 90,-71 16,-15 29,-30 47,-47z"/>
  <path class="fil1" d="M544 0c-9,0 -17,0 -24,2 -9,8 88,13 122,31 -54,-6 -93,-10 -148,-10 -15,0 -32,0 -50,1 -6,9 -82,14 -123,33 -111,37 -163,85 -237,182 -13,24 -25,48 -33,73 -23,50 -37,106 -39,149 -5,25 -10,54 -12,86 9,12 4,102 20,163 9,71 12,105 30,168 23,54 63,167 97,195 37,72 89,158 130,206 15,21 30,41 44,59 35,57 70,88 125,155l0 0c-3,-5 -7,-11 -12,-18 -13,-18 -28,-37 -41,-55 -14,-18 -25,-32 -37,-48 -9,-10 -18,-20 -28,-31 -2,-5 -4,-11 -7,-16 -14,-19 -25,-33 -37,-50 -13,-18 -23,-32 -34,-49 -12,-16 -22,-29 -34,-45 -20,-30 -31,-53 -33,-67 -12,-18 -25,-37 -36,-56 -5,-9 -8,-16 -11,-23 -19,-34 -38,-71 -54,-107 -22,-61 -42,-116 -49,-181 -4,-15 -8,-30 -11,-43 -3,-24 -4,-43 -6,-65 -2,-10 -3,-24 -3,-39 0,-40 6,-90 7,-122 7,-35 14,-76 27,-111l0 0c7,-28 19,-52 30,-79 7,-12 14,-23 20,-31 23,-46 75,-100 106,-124 54,-40 115,-63 176,-76l0 0c9,-2 18,-3 26,-4 15,-3 29,-4 42,-5 15,-1 30,-2 45,-2 1,0 1,0 2,0l0 0c0,0 1,0 1,0 18,0 35,1 53,2 6,1 13,1 19,2l0 0c26,1 53,2 79,5l0 0c47,6 60,9 104,28 1,0 1,0 1,0 11,0 49,14 72,22 16,10 31,20 48,30l0 0c19,11 38,22 56,33l0 0c17,8 34,16 48,22 2,1 3,1 4,1 7,0 -25,-24 -42,-37 -61,-41 -67,-58 -131,-89 1,-4 -47,-21 -72,-30 -1,0 -2,0 -4,0 -16,0 -45,-9 -79,-17 -34,-9 -73,-18 -107,-18z"/>
  <path class="fil1" d="M155 541c2,-30 0,-63 22,-126 -22,63 -20,96 -22,126zm898 -228l-14 -3c-13,-16 -31,-32 -48,-49 -7,-5 -15,-10 -23,-15 -13,-12 -26,-24 -40,-36 24,11 49,34 69,52 15,12 28,22 43,35 4,5 8,11 13,16zm-699 -130c3,-1 7,-3 10,-5 -3,2 -7,4 -10,5zm341 -35c-50,-11 -99,-18 -107,-25 3,-1 4,-2 4,-2 36,7 69,16 103,27zm201 41c-4,-1 -10,-4 -14,-5 -89,-46 -110,-56 -141,-71 13,3 23,5 32,8 32,13 60,27 90,43 12,9 23,17 33,25zm-508 -71c15,-5 33,-8 50,-10 22,-5 44,-6 67,-8 29,1 49,5 54,8 -1,0 -3,0 -4,0 -17,0 -35,1 -51,1 2,4 4,8 8,12 -10,-1 -21,-1 -32,-1 -17,0 -33,1 -49,3 -26,-1 -17,-5 -40,-5 -1,0 -2,0 -3,0zm145 -60c-1,0 -2,0 -3,0 -24,0 -50,1 -74,4 -2,0 -4,0 -6,1l0 0c-3,0 -6,0 -10,0 -9,1 -18,2 -26,4 -24,4 -57,9 -99,29 44,-13 87,-21 132,-22 2,0 7,0 11,0 -31,12 4,12 1,16l0 0c-34,6 -66,15 -98,27 -89,8 -177,87 -229,166 -21,48 -56,121 -63,215 -3,27 -1,42 -4,63 1,16 3,31 5,44 1,-37 6,-74 13,-110 6,-33 11,-67 23,-101l4 -29c10,-23 18,-47 31,-65 6,-10 12,-20 19,-28 32,-49 86,-108 181,-141 1,2 4,2 7,3l0 0c-1,1 -2,2 -2,2 0,2 8,2 8,3 0,2 -10,6 -48,20 -17,6 -25,15 -43,28 -2,5 -3,10 -5,15 -9,6 -18,13 -25,18 -14,13 -10,16 -26,34 -11,13 -23,27 -33,42l0 0c-16,23 -29,46 -41,72l0 0 2 7 0 0c-9,34 -23,78 -23,98 0,2 0,4 1,6l0 0c-3,19 -6,37 -8,56 -2,25 -4,54 -4,79 0,15 2,32 3,47 0,1 1,2 2,2 2,3 5,6 10,12 -2,-30 -3,-58 -2,-88 1,-17 5,-34 7,-51l0 0c1,-3 2,-6 3,-7 7,-23 1,-39 16,-83 12,-39 0,-42 39,-110 20,-30 3,-28 34,-60 10,-11 23,-19 34,-29 21,-16 31,-32 61,-45 15,-7 30,-14 46,-19l0 0c-23,11 -3,12 -36,24 -25,11 -50,27 -71,45 -18,19 -16,28 -40,56 -8,13 -17,26 -25,40 -4,11 -7,20 -11,31 -5,12 -9,27 -13,39 -10,34 -10,62 -13,130 3,4 6,9 8,13l0 0 2 -20c2,-30 0,-63 22,-126 4,-18 10,-35 16,-50 25,-67 78,-113 126,-143 47,-27 101,-40 160,-44l0 0c11,0 20,-2 30,-2 1,0 2,0 4,0l0 0c9,-3 19,-7 27,-10 -1,-1 -2,-1 -4,-1 -14,-3 -27,-4 -41,-4 -1,0 -1,0 -2,0 -2,0 -4,0 -6,0 -15,0 -32,2 -53,5 0,0 0,0 0,0 -14,2 -30,5 -48,8 -7,2 -14,3 -22,4l0 0c35,-12 14,-12 83,-24l0 0c7,1 13,1 19,1 7,0 13,0 19,-1 6,0 12,0 17,0l0 0c2,0 3,0 5,0 4,0 8,0 13,1 1,0 2,0 2,0 13,0 27,2 45,5 9,1 18,2 29,4l0 0c-11,1 -21,2 -31,3 50,8 100,23 146,32 17,6 34,14 50,21l0 0c-6,2 -12,3 -18,5 28,12 57,28 83,45l0 0c20,7 50,28 78,42 -14,-14 -28,-25 -43,-39l0 0c9,4 18,8 29,13 11,5 24,12 36,19 -19,-16 -40,-30 -63,-46 -1,0 -1,-1 -1,-1 -1,0 -2,-1 -2,-1 -3,-4 -1,-4 1,-4l0 0c1,0 1,0 1,0 1,0 1,0 1,0 1,0 2,0 2,0 1,-1 -1,-2 -7,-6 -2,-7 -5,-14 -6,-21 -2,-1 -7,-3 -8,-5 -29,-13 -61,-30 -72,-37 -8,-6 -15,-11 -21,-16 -15,-7 -29,-11 -44,-18l0 0c3,-2 5,-6 9,-8 3,-1 6,-2 10,-3 32,6 61,24 85,31l0 0c31,7 49,11 92,40 5,5 10,9 16,13 9,6 16,10 23,15 20,17 43,35 62,54 12,6 24,11 35,18 14,15 28,29 41,45 5,2 11,3 16,5 16,14 29,29 42,43 -10,-21 -20,-42 -33,-62 -49,-57 -66,-63 -122,-121 -16,-14 -42,-30 -48,-37 0,-1 0,-1 1,-1 1,0 1,0 2,0 1,1 1,1 2,1 3,0 4,-2 -13,-15l0 0c-18,-11 -37,-22 -56,-33l0 0c-5,-1 -11,-3 -18,-5 -3,0 -6,0 -8,1 -1,0 -1,0 -1,0 -9,0 26,15 34,22 0,1 0,1 0,1 1,0 1,0 1,0 0,1 0,1 1,1 4,6 6,10 8,14l0 0c-3,-1 -9,-3 -14,-6 -30,-17 -58,-31 -90,-44 -36,-16 -72,-30 -105,-32 22,8 44,17 62,26 -34,-11 -67,-19 -102,-25 -6,-3 -12,-5 -21,-8 17,1 34,2 51,4 -35,-11 -69,-19 -107,-25 -2,-1 -7,-1 -10,-1 -4,0 -8,0 -12,0 -2,0 -3,0 -5,0 -1,0 -1,0 -2,0z"/>
  <path class="fil1" d="M726 139c-4,1 -7,2 -10,3 -4,2 -6,6 -9,8l0 0c15,7 29,11 44,18l0 0c21,7 41,14 60,23 0,0 0,0 0,0 0,0 0,0 0,-1 -1,0 0,-1 0,-1 0,0 1,0 1,0l0 0c4,0 19,7 31,13 4,2 7,3 9,4 11,4 21,7 34,12 -24,-17 -49,-33 -75,-48l0 0c-24,-7 -53,-25 -85,-31z"/>
  <path class="fil1" d="M811 170l0 0c26,15 51,31 75,48l0 0c34,23 68,49 98,77l0 0c20,15 34,27 50,42l7 23 0 0c1,1 3,5 5,8 -16,-13 -31,-24 -48,-37l0 0c-15,-14 -30,-31 -45,-44 -33,-23 -66,-43 -101,-61 1,7 4,14 6,21 6,4 8,5 7,6 0,0 -1,0 -2,0 0,0 0,0 -1,0 0,0 0,0 -1,0l0 0c-2,0 -4,0 -1,4 0,0 1,1 2,1 0,0 0,1 1,1 23,16 44,30 63,46l0 0c-12,-7 -25,-14 -36,-19 -11,-5 -20,-9 -29,-13l0 0c15,14 29,25 43,39l0 0c18,11 37,23 54,36l0 0c10,5 20,10 30,16 0,-2 -1,-5 -1,-6l0 0c25,21 47,43 69,68l0 0c23,26 44,53 60,80 3,4 6,8 9,12 2,2 4,4 5,6 2,3 4,5 6,7 -1,-5 -2,-10 -3,-16 -1,-5 -1,-10 -2,-14 0,-1 0,-2 -1,-2 1,0 1,0 1,1 2,2 3,5 5,7 8,13 16,26 22,38 -1,-9 -1,-18 -1,-24 1,-2 3,-4 6,-4 0,0 0,0 0,0 7,3 10,6 14,8 -1,-11 -2,-13 -21,-60 0,0 0,0 1,0 3,0 4,-4 2,-11 -1,-3 -2,-7 -3,-12 -4,-10 -10,-23 -18,-39l0 0c-13,-14 -26,-29 -42,-43 -5,-2 -11,-3 -16,-5 -13,-16 -27,-30 -41,-45 -11,-7 -23,-12 -35,-18 -19,-19 -42,-37 -62,-54 -7,-5 -14,-9 -23,-15 -6,-4 -11,-8 -16,-13 -43,-29 -61,-33 -92,-40z"/>
  <path class="fil1" d="M953 287c15,13 30,30 45,44l0 0c17,13 32,24 48,37 -2,-3 -4,-7 -5,-8l0 0c-21,-23 -43,-45 -67,-66 -7,-2 -14,-5 -21,-7z"/>
  <path class="fil1" d="M1254 280c-53,58 -74,88 -91,122 0,1 0,3 1,3 1,0 3,-1 6,-4l14 -15c17,-26 37,-51 57,-74 3,-9 8,-21 13,-32z"/>
  <path class="fil1" d="M1370 218c-26,14 -48,35 -53,35l0 0c0,0 0,0 0,0l0 0c-1,6 -3,12 -4,17 19,-18 44,-36 57,-52l0 0z"/>
  <path class="fil1" d="M1790 11c-23,0 -46,2 -69,4 -15,0 -34,1 -49,2 -24,5 -48,11 -71,18 -11,4 -21,8 -31,13 20,-5 38,-7 61,-12 6,-8 63,-13 86,-18l0 0c9,0 18,-1 27,-1 4,0 8,0 12,0 1,0 2,0 3,0l0 0c0,0 1,0 1,0 25,0 47,1 65,3 4,0 8,1 11,1 22,2 39,4 54,4l0 0c1,0 1,0 2,0 1,0 1,0 2,0 18,6 68,16 115,35 52,9 46,27 98,46 8,7 89,76 109,102 95,131 114,298 121,438 0,10 1,22 1,34 -1,80 -13,194 -30,247 -1,6 -1,11 -1,13 0,8 3,4 3,11l0 0c0,1 -1,2 -1,4 0,0 0,0 0,1 -4,15 -11,43 -12,43l0 0c0,0 0,0 0,0 -1,0 -1,-1 -1,-1 -3,4 -7,19 -11,32 -2,8 -3,13 -3,15 0,3 1,4 1,5l0 0c-75,183 -143,334 -278,471l0 0c0,0 0,1 0,1 1,9 -43,50 -44,60l0 0c18,-12 40,-34 41,-39 106,-120 202,-262 264,-420 65,-158 85,-333 80,-490 -4,-97 -17,-230 -59,-314 -22,-55 -56,-118 -107,-166 -47,-48 -105,-78 -152,-96 -77,-32 -159,-46 -238,-46z"/>
  <path class="fil1" d="M2030 85c93,46 177,116 226,220 -44,-96 -102,-173 -226,-220z"/>
  <path class="fil1" d="M2092 217c3,3 5,7 6,8 15,12 27,28 39,43 6,5 10,12 16,20 8,24 -3,15 22,63 7,13 14,26 21,39l0 0c-9,-32 -19,-61 -32,-89l0 0c1,0 2,0 3,1 2,-7 -39,-72 -70,-84 -2,0 -4,-1 -5,-1z"/>
  <path class="fil1" d="M2201 304l0 0c-7,1 25,68 34,99 -4,-25 -12,-49 -20,-74l0 0c-5,-10 -10,-18 -14,-25z"/>
  <path class="fil1" d="M2242 428c2,25 10,71 9,85 3,26 11,51 9,74 -10,-35 -14,-87 -33,-145l2 30c8,46 14,93 16,140l0 0c0,2 0,3 0,5 0,24 4,39 5,60l0 0c-1,39 -3,78 -7,116l0 0c-2,25 -5,48 -8,73 3,14 5,29 6,43 1,1 1,1 1,1 0,0 0,1 0,1 3,0 9,-34 12,-38 4,-20 7,-39 9,-59 4,-45 11,-97 11,-167 0,-6 0,-12 0,-18 -2,-51 -10,-96 -16,-148 -5,-17 -10,-37 -16,-53z"/>
  <path class="fil1" d="M2312 540c0,0 0,0 -1,1 3,40 6,64 11,71 3,-33 -4,-72 -10,-72z"/>
  <path class="fil1" d="M2225 714c0,6 -1,13 -2,19 -2,20 -3,46 -11,46 0,0 -1,0 -1,-1 -1,24 -2,42 -4,62 -4,20 -6,36 -11,53l0 0c-2,18 -4,33 -7,51l4 10 0 0c18,-62 21,-86 24,-107 4,-23 7,-46 10,-67l0 0c0,-18 1,-36 1,-54 0,-3 0,-5 0,-8l-3 -4z"/>
  <path class="fil1" d="M2119 1106c-7,0 -31,55 -35,65 -15,30 -32,62 -50,91 -33,40 -85,113 -128,156 -54,71 -140,144 -206,208l14 -4c29,-22 57,-45 85,-70 85,-85 172,-179 236,-282 48,-74 67,-120 86,-162 -1,-1 -1,-2 -2,-2z"/>
  <path class="fil1" d="M1608 1889c-30,19 -54,38 -60,47l0 0c0,0 0,0 1,0 3,0 32,-23 59,-47l0 0z"/>
  <path class="fil1" d="M1040 2176c0,1 0,1 0,1 0,0 0,0 0,0 0,0 0,0 0,0 0,0 0,0 0,0 0,0 0,0 0,-1 0,0 0,0 0,0zm-1 -1c0,0 0,0 0,0 0,1 0,1 1,1 -1,0 -1,0 -1,-1zm0 0c0,0 0,0 0,0 0,0 0,0 0,0 0,0 1,0 1,0l0 0c0,0 0,0 0,0 0,0 -1,0 -1,0zm0 -1c0,1 0,1 0,1 0,0 0,0 0,0 0,0 0,0 0,-1zm4 -22c0,0 0,0 0,0 0,0 0,0 0,0zm-649 -962c-1,1 -1,1 -1,2 0,1 1,4 2,6l0 0c29,40 60,81 92,122l0 0 62 78c8,11 16,23 25,36l0 0c2,2 4,6 7,10l0 0c4,2 9,7 12,9l45 52c19,26 37,52 55,80 -3,-2 -4,-2 -4,-2l0 0c32,49 65,99 94,146 42,77 78,148 118,220 43,69 82,142 117,180 6,7 13,14 19,18 11,-12 23,-24 33,-35 6,-4 12,-9 20,-15l0 0c21,-19 37,-32 50,-45 24,-18 50,-36 76,-55 6,-4 12,-9 20,-14l0 0c23,-18 43,-36 69,-54l43 -21 0 0c0,1 0,2 -1,3 22,-15 46,-32 68,-47l0 0c26,-20 51,-38 77,-58 11,-15 57,-44 85,-66 9,-12 17,-22 24,-33 -26,12 -68,49 -91,66 -7,9 -26,20 -38,30 -25,4 -104,74 -150,99l-2 5c-37,34 -27,13 -96,67 -18,9 -59,42 -75,50 -25,21 -48,41 -71,62 -13,5 -19,3 -43,22 -1,2 -2,3 -4,6 -33,-37 -70,-97 -101,-152 -15,-28 -39,-73 -45,-74 -36,-71 -85,-164 -140,-253 -15,-15 -31,-33 -46,-48 -17,-33 8,-7 -29,-55 -19,-24 -40,-50 -59,-73 -11,-17 -37,-59 -67,-78 -5,-34 -76,-104 -114,-158 -11,-9 -24,-21 -36,-33z"/>
  <path class="fil1" d="M858 1951c0,0 0,0 0,0 1,3 3,6 5,10 -3,-8 -4,-10 -5,-10zm-60 -76c-1,-2 -3,-6 -4,-9 1,3 3,7 4,9zm-4 -9c-4,-5 -8,-10 -11,-13 -2,-4 -4,-9 -5,-11 -14,-24 -29,-51 -43,-76 -33,-58 -69,-115 -107,-169 -14,-21 -27,-39 -41,-58 14,17 29,34 44,51 1,1 2,1 2,1 13,17 24,33 36,50 14,22 27,45 42,70 14,28 28,43 36,55 15,32 31,67 47,100zm-221 -347c0,0 0,0 -1,0 -18,-26 -36,-49 -55,-75 29,33 65,75 56,75zm-126 -1445c-45,1 -88,9 -132,22l0 0c-41,17 -81,36 -115,65 -40,29 -76,66 -103,110 0,3 0,5 0,6l0 0c-1,5 -4,11 -5,16 -6,12 -11,24 -17,36 -10,17 -16,36 -23,54l0 0c-2,11 -4,21 -5,31 -4,20 -9,40 -13,59 -3,14 -4,22 -4,29 0,9 1,14 1,23 0,2 0,4 0,7 -1,16 -1,33 -1,50 0,22 1,44 3,67 1,33 4,64 9,97 15,70 37,135 65,199l0 0c-28,-64 -50,-129 -65,-199 -1,-28 1,-54 2,-82 1,-9 1,-16 1,-23 2,0 3,-3 4,-6 3,6 6,26 8,26 0,0 0,0 0,0 0,0 0,0 1,-1 0,-2 1,-5 1,-10 0,0 0,-1 0,-2l11 -7 3 24 0 0c0,2 -1,3 -1,4 0,44 7,93 19,144 12,14 24,80 58,142 7,18 16,36 24,53 22,44 44,85 68,125 14,24 30,54 48,71 32,61 92,107 91,132 0,1 0,1 0,1 18,25 33,48 50,73l0 0c36,33 54,57 73,80l0 0c18,22 18,13 37,41 20,27 40,56 58,84l0 0c61,84 110,169 157,262l0 0c5,1 24,34 47,70l3 16 0 0c7,13 15,28 22,41l0 0c10,10 17,18 25,27 3,6 7,12 12,21l7 17c3,6 7,12 13,21 6,11 14,25 20,37l0 0c5,6 11,13 17,21l0 0c-6,-8 -12,-15 -17,-21 5,6 11,13 17,21 -1,-7 -1,-11 -1,-16l0 0c7,7 16,15 25,23 24,31 42,46 58,55 2,1 4,2 6,3 2,2 4,3 7,4 0,0 1,0 2,1 3,1 6,2 9,2 3,1 7,1 11,1l0 0c0,0 0,0 1,0 4,0 9,0 13,-2 3,-1 6,-2 9,-3l0 0c4,-2 9,-5 11,-5 4,-4 8,-7 12,-11 7,-5 13,-10 19,-15 7,-6 15,-13 23,-19l0 0c19,-15 36,-26 55,-40 111,-92 177,-133 271,-203 54,-35 70,-51 98,-75l0 0c-69,44 -65,47 -96,69 -10,5 -17,8 -26,12 -81,63 -168,120 -229,161 -24,21 -46,41 -68,61 -22,17 -44,38 -66,57l0 0c-6,3 -11,5 -16,6 -1,0 -3,0 -4,0l0 0c0,0 -1,0 -1,0 -12,-1 -24,-7 -33,-15 -2,-1 -4,-3 -6,-4 0,-1 -1,-2 -2,-2 -56,-54 -73,-94 -92,-121 -17,-26 -34,-50 -49,-74 -22,-40 -42,-80 -64,-123l0 0 17 9 27 51 0 0c0,0 0,0 -1,0 -7,0 22,47 33,68 12,18 24,36 37,53l0 0c2,5 4,11 8,18 13,19 28,39 43,57l0 0c1,1 2,2 3,4 0,1 1,1 2,2 18,26 41,54 64,62 4,2 9,2 13,2l0 0c0,0 0,0 1,0 0,0 0,0 0,0 1,0 2,0 2,0l0 0c22,-23 57,-55 73,-66 18,-7 56,-45 87,-68 11,-10 41,-32 58,-47l0 0c-15,9 -30,18 -45,26 -18,13 -38,28 -55,41l0 0c-1,1 -3,3 -4,4 -1,1 -1,1 -2,2l0 0c-1,1 -2,2 -3,3 -1,1 -2,2 -3,2 -16,16 -40,35 -45,35l0 0c0,0 0,0 0,0 0,0 -1,-1 0,-2 0,0 0,0 0,-1l0 0c-16,16 -30,28 -43,39 -6,5 -11,9 -17,13 -3,2 -4,3 -6,3l0 0c0,0 0,0 0,0l0 0c0,0 -1,0 -2,0l0 0c-2,0 -6,-1 -11,-2 -2,-2 -6,-3 -9,-5 -18,-5 -40,-32 -53,-46 -19,-24 -35,-48 -51,-74 -6,-11 -13,-25 -19,-37 -15,-15 -39,-58 -39,-62 0,0 0,-1 0,-1l0 0c0,-2 -1,-5 -1,-6 0,-1 0,-1 1,-1l0 0c-21,-39 -34,-64 -38,-65 -17,-31 -34,-62 -53,-95 -9,-20 -20,-41 -32,-62 -2,-1 -5,-3 -7,-4 -11,-19 -24,-40 -36,-59 -19,-31 -37,-60 -57,-90l-8 -2c-24,-35 -50,-70 -75,-104 -21,-18 -41,-49 -57,-68 2,0 3,1 5,1 1,0 1,0 1,0 6,0 -34,-49 -53,-67 -14,-18 -29,-37 -42,-55 -29,-39 -55,-77 -80,-115 -15,-14 -41,-56 -60,-81 -14,-26 -28,-53 -40,-79 -46,-92 -71,-145 -95,-240 -2,-8 -3,-15 -4,-22 -2,-17 -4,-31 -5,-38 0,-1 0,-2 0,-3 0,-1 0,-2 0,-2 0,0 0,0 0,1 1,0 1,0 1,1 0,0 0,0 0,0 -1,-9 -1,-16 -2,-23l-5 -5 0 0c-5,-6 -8,-9 -10,-12 -1,0 -2,-1 -2,-2 -1,-15 -3,-32 -3,-47l0 0c-1,-14 -3,-28 -3,-50 0,-10 0,-23 1,-39l6 10 0 0c2,-19 5,-37 8,-56l0 0c-1,-2 -1,-4 -1,-6 0,-20 14,-64 23,-98l0 0 -2 -7 0 0c12,-26 25,-49 41,-72l0 0c10,-15 22,-29 33,-42 16,-18 12,-21 26,-34 7,-5 16,-12 25,-18 2,-5 3,-10 5,-15 18,-13 26,-22 43,-28 38,-14 48,-18 48,-20 0,-1 -8,-1 -8,-3 0,0 1,-1 2,-2l0 0c-3,-1 -6,-1 -7,-3 -95,33 -149,92 -181,141 -7,8 -13,18 -19,28 -13,18 -21,42 -31,65l-4 29c-12,34 -17,68 -23,101 -7,36 -12,73 -13,110 -2,-13 -4,-28 -5,-44l0 0c3,-21 1,-36 4,-63 7,-94 42,-167 63,-215 52,-79 140,-158 229,-166 32,-12 64,-21 98,-27l0 0c3,-4 -32,-4 -1,-16 -4,0 -9,0 -11,0z"/>
  <path class="fil1" d="M1403 2038c-38,23 -62,40 -103,75l0 0c18,-10 73,-49 103,-75l0 0z"/>
  <path class="fil1" d="M1207 2181c-1,0 -1,1 -2,1 -4,3 -8,6 -11,8 -1,1 -2,2 -3,3 -4,2 -7,5 -11,7 -1,1 -2,2 -3,3 0,0 -1,0 -1,1 -32,24 -48,39 -43,39l0 0c0,0 1,0 1,0 6,-2 41,-33 73,-62l0 0z"/>
  <path class="fil1" d="M923 2228l0 0c16,18 30,34 57,49 13,7 33,14 60,14 1,0 2,0 3,0 27,0 63,-19 75,-35l0 0c-9,9 -38,29 -64,30 -5,1 -10,1 -15,1l0 0c-1,0 -1,0 -2,0 -10,0 -20,-2 -29,-4 -6,-2 -11,-4 -16,-6 -1,0 -2,0 -3,-1 -31,-14 -49,-31 -66,-48z"/>
  <path class="fil1" d="M805 2069l0 0c10,22 42,76 89,128l0 0c-19,-23 -35,-49 -50,-73 -15,-28 -30,-43 -39,-55z"/>
  <path class="fil1" d="M704 1888c-3,0 24,47 43,76l0 0c-22,-46 -32,-56 -40,-73l0 0c-1,-2 -2,-3 -3,-3z"/>
  <path class="fil1" d="M466 1521l0 0c-6,1 43,60 87,114l0 0c-1,-3 -1,-5 -2,-8 -7,-10 -12,-18 -19,-28 -25,-30 -45,-56 -66,-78z"/>
  <path class="fil1" d="M479 178c-59,4 -113,17 -160,44 -48,30 -101,76 -126,143 -6,15 -12,32 -16,50 -22,63 -20,96 -22,126l-2 20 0 0c-1,13 -1,28 -2,41 4,23 12,62 16,99 2,17 2,37 5,57 -3,-20 -3,-40 -5,-57 -4,-37 -12,-76 -16,-99l0 0c4,23 12,62 16,99 2,17 2,37 5,57 3,17 7,32 12,52 21,67 57,139 88,196 27,36 2,15 38,67l0 0c20,27 41,55 63,82 -25,-64 19,-24 -67,-163 0,3 0,4 -1,4 -2,0 -7,-9 -12,-17 -5,-9 -10,-17 -13,-17 0,0 -1,1 -1,3 -14,-10 -40,-79 -55,-121 -21,-20 -31,-101 -40,-163 -4,-10 -8,-32 -8,-56 -3,-9 -1,-43 -5,-43 -1,0 -1,0 -2,1 -2,-9 1,-21 1,-32 1,-4 2,-9 3,-9 0,0 0,1 1,3 3,-16 12,-70 6,-70 0,0 0,0 -1,1 2,-27 12,-55 20,-74 -9,-13 32,-62 31,-74 44,-58 79,-89 148,-113 44,-14 91,-22 142,-22 2,0 3,0 4,0 -15,-6 -31,-11 -45,-15l0 0z"/>
  <path class="fil1" d="M751 168l0 0c6,5 13,10 21,16 11,7 43,24 72,37 1,2 6,4 8,5 35,18 68,38 101,61 7,2 14,5 21,7l0 0c3,0 7,1 10,1 -30,-28 -64,-54 -98,-77l0 0c-13,-5 -23,-8 -34,-12 -2,-1 -5,-2 -9,-4 -12,-6 -27,-13 -31,-13l0 0c0,0 -1,0 -1,0 0,0 -1,1 0,1 0,1 0,1 0,1 0,0 0,0 0,0l0 0c-19,-9 -39,-16 -60,-23z"/>
  <path class="fil1" d="M826 270l0 0c2,2 4,5 5,6 40,32 94,56 138,99 4,1 8,1 12,2 -7,-10 -15,-20 -23,-29l0 0c-17,-13 -36,-25 -54,-36l0 0c-28,-14 -58,-35 -78,-42z"/>
  <path class="fil1" d="M2245 612l0 0zm-24 -147c4,33 7,71 8,107l0 0c0,7 1,14 1,21l0 0c5,6 10,12 15,19 -2,-47 -8,-94 -16,-140l0 0 -8 -7z"/>
  <path class="fil1" d="M1933 1489l1 -11 15 -16c15,-17 31,-33 45,-48 24,-29 48,-58 70,-88l0 2c-22,33 -46,65 -71,96 5,-2 9,-4 15,-8l0 0c-15,19 -30,36 -46,54 5,-9 10,-18 17,-29 -16,17 -32,34 -46,48zm282 -1160l0 0c8,25 16,49 20,74 2,8 4,15 7,25 6,16 11,36 16,53 6,52 14,97 16,148 0,6 0,12 0,18 0,70 -7,122 -11,167 -2,20 -5,39 -9,59 -3,4 -9,38 -12,38l0 0c0,0 0,-1 0,-1 0,0 0,0 -1,-1 -1,-14 -3,-29 -6,-43l0 0c-4,16 -9,33 -14,50 -8,28 -8,46 -16,72 -4,22 -10,42 -16,63l0 0c0,1 0,1 0,2 0,4 0,10 0,15 0,1 0,2 0,3l0 0c-9,22 -19,43 -28,62 -5,5 -9,7 -13,9 -46,84 -55,109 -78,149 -4,6 -8,12 -14,20 -19,27 -39,54 -61,81 -9,12 -20,27 -29,38 -16,20 -31,37 -47,55l-15 16c-17,17 -33,35 -49,50 -7,6 -12,11 -18,16 -19,20 -39,38 -59,57 -7,6 -13,11 -18,16 -34,30 -66,57 -101,86l-18 16 0 0c6,-1 14,-3 22,-5 29,-33 94,-76 129,-117 51,-41 63,-55 76,-68 6,-6 11,-9 16,-12l0 0c-6,9 -12,17 -19,27l0 0c3,-1 6,-3 8,-3l0 0c-15,16 -29,31 -44,46 -90,92 -203,169 -270,230l0 0c42,-27 63,-40 74,-53 158,-116 342,-293 465,-470 11,-20 21,-41 31,-62 60,-102 112,-227 128,-325 0,1 0,1 0,1l0 0c0,0 0,0 0,0 0,0 1,0 1,0 0,0 0,0 0,0 1,-2 2,-5 3,-9 6,-24 7,-40 7,-54 0,-8 -1,-16 -1,-24 0,-6 0,-12 1,-20l0 0c5,-21 10,-49 13,-77 1,-5 1,-11 2,-17 0,-1 0,-2 0,-3 0,-30 -1,-60 -3,-90l0 0c0,-4 0,-9 0,-14 0,-34 -1,-69 -4,-101 -5,-57 -36,-165 -61,-193z"/>
  <path class="fil1" d="M1040 2175c0,1 0,1 0,2 0,-1 0,-1 0,-1 0,0 0,0 0,-1zm0 0l0 0 0 0 0 0zm-1 0l0 0c0,0 0,0 0,0 0,0 0,0 -1,0 1,0 1,0 1,0 0,0 0,0 0,0 0,0 0,0 0,0 0,0 1,0 1,0l0 0c0,0 -1,0 -1,0 0,0 0,0 0,0zm1 0c0,0 0,0 0,0 0,0 0,0 0,0 0,0 0,0 0,0zm3 -23c0,0 0,0 0,0 0,0 0,0 0,0zm-689 -1969c-16,5 -31,12 -46,19 -30,13 -40,29 -61,45 -11,10 -24,18 -34,29 -31,32 -14,30 -34,60 -39,68 -27,71 -39,110 -15,44 -9,60 -16,83 -1,1 -2,4 -3,7l0 0c-6,44 -8,91 -5,139l5 5c1,7 1,14 2,23 11,33 18,73 25,86 7,25 15,52 24,77 1,0 1,1 2,2 2,4 4,8 6,13 12,27 28,74 37,74l0 0c0,0 1,0 1,0l0 0c8,21 17,41 25,59 46,84 121,192 191,276l44 63c10,12 22,31 31,38 23,28 76,96 86,122l13 18c34,39 47,60 58,72 0,0 0,0 1,-1 0,0 0,0 0,0l0 0c4,0 19,24 32,42 1,2 1,3 2,4 2,2 3,4 4,6 1,1 1,2 2,2l0 0c23,36 12,24 27,58 29,33 54,88 67,102 52,111 115,220 190,316 3,6 8,14 10,21 14,12 31,22 37,22l0 0c0,0 0,0 0,0 0,0 0,0 0,-1l0 0c1,0 1,1 1,1 0,0 0,0 0,0 0,0 0,0 0,0 0,0 1,0 1,0l0 0c0,-1 0,-1 0,-2 0,0 0,0 0,-1l0 0c0,-1 2,-2 4,-5 0,0 1,-1 2,-2 1,0 1,-1 1,-1 1,0 1,-1 2,-1 81,-54 104,-101 171,-134 12,-10 29,-19 39,-29l0 0c-1,-1 -2,-1 -2,-1 0,-5 23,-20 42,-34l0 0c0,1 0,1 0,2 0,0 0,0 -1,1 0,1 -1,3 0,3 0,0 0,1 1,1 0,0 0,0 0,-1 0,0 1,0 1,0 2,0 5,-2 9,-5 1,0 2,-1 4,-2 0,0 0,0 0,-1 1,0 2,-1 3,-1l0 0c36,-23 59,-49 80,-66 28,-19 58,-40 85,-60 77,-54 151,-107 221,-164 11,-10 22,-18 28,-26l0 0c0,0 0,0 0,0 -7,0 13,-17 32,-33 2,-2 3,-3 5,-5l0 0c-1,2 -1,2 -1,3 -1,0 0,0 0,0 0,0 0,0 0,0 1,0 3,-1 5,-3 1,-1 3,-1 4,-2 30,-30 40,-43 76,-76l0 0c0,0 0,1 0,1l0 0c0,0 0,0 0,1 0,0 1,0 1,0l0 0c0,0 1,-1 2,-1 1,-1 2,-2 3,-3 1,-1 2,-2 4,-3 0,0 0,0 1,-1 4,-3 8,-7 10,-7 0,0 1,0 1,0l0 0c0,0 0,0 0,0 0,0 0,0 0,0l0 0c93,-105 187,-217 251,-357l0 0c-44,75 -120,186 -171,251 -25,32 -15,14 -37,38 -55,71 -139,142 -209,205 -64,56 -172,135 -224,177 -17,11 -36,23 -55,36 -5,-1 -9,-2 -13,-3l0 0c-22,15 -46,32 -68,47l0 0 -98 72 -17 10c-40,28 -10,16 -35,37 -18,12 -37,26 -57,40 -8,8 -21,24 -49,44 -18,11 -35,22 -53,34l0 0c-2,2 -5,3 -8,5 2,-2 5,-4 7,-6 -6,-4 -13,-11 -19,-18 -35,-38 -74,-111 -117,-180 -40,-72 -76,-143 -118,-220 -29,-47 -62,-97 -94,-146l0 0c-25,-33 -50,-58 -74,-86 -11,-17 -23,-36 -34,-53l0 0c-3,-4 -5,-8 -7,-10l0 0c-7,-1 -41,-43 -48,-44 -15,-22 -28,-43 -42,-63 -16,-17 -33,-34 -49,-51 -14,-26 -29,-53 -43,-78 -18,-26 -37,-42 -54,-71 -9,-17 -19,-35 -28,-54l0 0c-36,-52 -11,-31 -38,-67 -31,-57 -67,-129 -88,-196 -5,-20 -9,-35 -12,-52 -3,-20 -3,-40 -5,-57 -4,-37 -12,-76 -16,-99l0 0c1,-13 1,-28 2,-41l0 0c-2,-4 -5,-9 -8,-13l0 0c3,-68 3,-96 13,-130 4,-12 8,-27 13,-39 4,-11 7,-20 11,-31 8,-14 17,-27 25,-40 24,-28 22,-37 40,-56 21,-18 46,-34 71,-45 33,-12 13,-13 36,-24l0 0z"/>
  <path class="fil1" d="M2064 1326c-22,30 -46,59 -70,88 -14,15 -30,31 -45,48l-15 16 -1 11c14,-14 30,-31 46,-48 -7,11 -12,20 -17,29 16,-18 31,-35 46,-54 -6,4 -10,6 -15,8 25,-31 49,-63 71,-96l0 -2z"/>
  <path class="fil1" d="M1348 1908l0 0c0,1 0,2 -1,3 1,-1 1,-2 1,-3l-43 21c-26,18 -46,36 -69,54l0 0 -4 10 17 -10 98 -72c1,-1 1,-2 1,-3z"/>
  <path class="fil1" d="M755 1877c18,44 34,61 50,86l-3 -16c-23,-36 -42,-69 -47,-70z"/>
  <path class="fil1" d="M503 1490c3,7 7,16 12,25 2,8 7,17 10,24 16,25 25,29 36,42 12,10 24,22 37,34 -18,-28 -38,-57 -58,-84 -19,-28 -19,-19 -37,-41z"/>
  <path class="fil1" d="M581 1444l0 0c11,17 23,36 34,53 24,28 49,53 74,86l0 0c0,0 1,0 4,2 -18,-28 -36,-54 -55,-80l-45 -52c-3,-2 -8,-7 -12,-9z"/>
  <path class="fil1" d="M517 1444c19,26 37,49 55,75 1,0 1,0 1,0 9,0 -27,-42 -56,-75z"/>
  <path class="fil1" d="M49 635c-1,3 -2,6 -4,6 0,7 0,14 -1,23 -1,28 -3,54 -2,82 15,70 37,135 65,199l0 0c10,24 19,45 30,67l0 0c15,33 32,66 50,96 -2,1 -1,4 -1,8 19,31 40,64 61,93 7,5 27,31 58,80 9,9 17,17 24,24 26,37 52,74 80,112 8,9 18,19 28,30 -34,-46 -69,-93 -102,-141 -45,-55 -88,-127 -118,-170 -8,-10 -19,-22 -28,-35 -2,-9 -4,-17 -4,-24l0 0c0,0 0,1 0,1 3,4 6,8 9,13 15,23 35,56 39,56l0 0c0,0 1,0 1,0 0,0 1,-1 0,-3 0,0 0,0 0,0l0 0c61,94 138,205 196,258 -17,-25 -32,-48 -50,-73l0 0c0,0 0,0 0,-1 1,-25 -59,-71 -91,-132 -18,-17 -34,-47 -48,-71 -24,-40 -46,-81 -68,-125 -8,-17 -17,-35 -24,-53 -34,-62 -46,-128 -58,-142 -12,-51 -19,-100 -19,-144 0,-1 1,-2 1,-4l-3 -24 -11 7c0,1 0,2 0,2 0,5 -1,8 -1,10 -1,1 -1,1 -1,1l0 0c0,0 0,0 0,0 -2,0 -5,-20 -8,-26z"/>
  <path class="fil1" d="M310 1073c9,19 19,37 28,54 17,29 36,45 54,71l0 0c1,0 2,0 3,0 -1,-2 -2,-5 -2,-6 0,-1 0,-1 1,-2 -7,-11 -15,-24 -21,-35l0 0c-22,-27 -43,-55 -63,-82z"/>
  <path class="fil1" d="M151 602l0 0c4,23 12,62 16,99 2,17 2,37 5,57 -3,-20 -3,-40 -5,-57 -4,-37 -12,-76 -16,-99z"/>
  <path class="fil1" d="M177 415c-22,63 -20,96 -22,126 2,-30 0,-63 22,-126z"/>
  <path class="fil1" d="M974 294c24,21 46,43 67,66l-7 -23c-16,-15 -30,-27 -50,-42l0 0c-3,0 -7,-1 -10,-1z"/>
  <path class="fil1" d="M987 358c0,1 1,4 1,6 23,21 43,44 63,68 1,-3 4,-3 5,-6 -22,-25 -44,-47 -69,-68z"/>
  <path class="fil1" d="M1140 2070c-16,8 -34,18 -50,27l0 0c-8,6 -14,11 -20,15 -10,11 -22,23 -33,35 -2,2 -5,4 -7,6 3,-2 6,-3 8,-5 18,-12 35,-23 53,-34 28,-20 41,-36 49,-44z"/>
  <path class="fil1" d="M392 1198l0 0c14,25 29,52 43,78 16,17 33,34 49,51l0 0c1,0 2,0 3,0 0,0 0,0 0,0 1,0 2,0 2,-1 0,0 0,-1 0,-1 0,0 0,-1 0,-1 -1,-1 -1,-2 -2,-4l0 0c-32,-41 -63,-82 -92,-122l0 0c-1,0 -2,0 -3,0z"/>
  <path class="fil1" d="M2230 593c1,43 1,83 -2,125 0,3 0,5 0,8 0,18 -1,36 -1,54l0 0c0,0 0,0 0,0 1,0 2,0 2,0 1,0 1,0 2,0 0,0 1,0 2,0 0,0 1,0 2,-1 3,5 6,10 8,14 4,-38 6,-77 7,-116 -1,-21 -5,-36 -5,-60 0,-2 0,-3 0,-5 -5,-7 -10,-13 -15,-19z"/>
  <path class="fil1" d="M2189 944l0 0c-3,7 -7,16 -11,26l0 0c-5,21 -9,42 -15,62l0 0c0,3 0,4 1,5 0,0 0,0 0,0 0,0 0,0 0,0 0,0 0,0 0,0l0 0c4,0 19,-52 26,-75l0 0c1,-2 2,-7 3,-8l-4 -10z"/>
  <path class="fil1" d="M1596 1775c-39,26 -88,59 -88,67 0,0 0,0 0,1 9,-6 19,-11 28,-16 18,-17 39,-34 60,-52z"/>
  <path class="fil1" d="M1470 1869c-17,12 -37,25 -57,38 -30,28 -71,56 -100,79l0 0 -3 8c22,-15 46,-30 67,-44 28,-24 44,-35 70,-53l23 -28z"/>
  <path class="fil1" d="M1236 1983c-8,5 -14,10 -20,14 -26,19 -52,37 -76,55 -13,13 -29,26 -50,45 16,-9 34,-19 50,-27 20,-14 39,-28 57,-40 25,-21 -5,-9 35,-37l4 -10z"/>
  <path class="fil1" d="M487 1320c1,2 1,3 2,4 0,0 0,1 0,1 0,0 0,1 0,1 0,1 -1,1 -2,1l0 0c0,0 0,0 0,0 -1,0 -2,0 -3,0l0 0c14,20 27,41 42,63 7,1 41,43 48,44 -9,-13 -17,-25 -25,-36l-62 -78z"/>
  <path class="fil1" d="M565 51l-13 7 0 0c3,0 8,0 10,1 38,6 72,14 107,25l0 0c2,1 7,2 10,3l0 0c33,2 69,16 105,32 32,13 60,27 90,44 5,3 11,5 14,6l0 0c-2,-4 -4,-8 -8,-14 -1,0 -1,0 -1,-1 0,0 0,0 -1,0 0,0 0,0 0,-1 -8,-7 -43,-22 -34,-22 0,0 0,0 1,0 -18,-10 -32,-14 -91,-42 -4,-2 -7,-3 -12,-4l0 0c-18,-4 -36,-6 -51,-8 -41,-14 -71,-16 -126,-26z"/>
  <path class="fil1" d="M540 166l0 0c-8,3 -18,7 -27,10 65,4 124,15 184,34 15,4 32,9 46,15 6,-2 12,-3 18,-5 -16,-7 -33,-15 -50,-21 -46,-9 -96,-24 -146,-32l0 0c-10,-1 -18,-1 -25,-1z"/>
  <path class="fil1" d="M928 210c14,12 27,24 40,36 8,5 16,10 23,15 17,17 35,33 48,49l14 3c-5,-5 -9,-11 -13,-16 -15,-13 -28,-23 -43,-35 -20,-18 -45,-41 -69,-52z"/>
  <path class="fil1" d="M983 220c56,58 73,64 122,121 1,0 2,1 3,1l0 0c-1,0 -2,-1 -3,-1 1,0 2,1 3,1 -14,-20 -27,-36 -43,-55 15,13 32,27 45,40 -33,-46 -25,-51 -93,-104 -2,6 -1,13 0,21 -12,-9 -24,-17 -34,-24z"/>
  <path class="fil1" d="M2256 305c14,33 23,64 32,98 8,46 16,72 23,84 -5,-27 -10,-51 -17,-79 -6,-27 -19,-76 -38,-103z"/>
  <path class="fil1" d="M2196 390c4,34 15,80 22,138 4,14 6,28 11,44 -1,-36 -4,-74 -8,-107l0 0c-7,-27 -16,-52 -25,-75z"/>
  <path class="fil1" d="M904 2127c5,6 11,13 17,21l0 0c-6,-8 -12,-15 -17,-21z"/>
  <path class="fil1" d="M587 1539c14,19 27,37 41,58 38,54 74,111 107,169 14,25 29,52 43,76 1,2 3,7 5,11 3,3 7,8 11,13 -16,-33 -32,-68 -47,-100 -8,-12 -22,-27 -36,-55 -15,-25 -28,-48 -42,-70 -12,-17 -23,-33 -36,-50 0,0 -1,0 -2,-1 -15,-17 -30,-34 -44,-51z"/>
  <path class="fil1" d="M794 1866c1,3 3,7 4,9 -1,-2 -3,-6 -4,-9z"/>
  <path class="fil1" d="M1105 341c1,0 2,1 3,1l0 0c-1,0 -2,-1 -3,-1z"/>
  <path class="fil1" d="M1559 1840c-3,3 -5,5 -9,8 4,-3 6,-5 9,-8z"/>
  <path class="fil1" d="M502 154c-5,0 -11,0 -17,0 -6,1 -12,1 -19,1l0 0c-6,0 -12,0 -19,-1l0 0c-69,12 -48,12 -83,24l0 0c8,-1 15,-2 22,-4 18,-3 34,-6 48,-8 0,0 0,0 0,0 21,-3 38,-5 53,-5 2,0 4,0 6,0l0 0c1,0 1,0 2,0 14,0 27,1 41,4 2,0 3,0 4,1 7,0 15,0 25,1 10,-1 20,-2 31,-3l0 0c-11,-2 -20,-3 -29,-4 -18,-3 -32,-5 -45,-5 0,0 -1,0 -2,0 -5,-1 -9,-1 -13,-1 -2,0 -3,0 -5,0l0 0z"/>
  <path class="fil1" d="M364 178c-3,2 -7,4 -10,5 3,-1 7,-3 10,-5z"/>
  <path class="fil1" d="M1348 1908l0 0c0,1 0,2 -1,3 1,-1 1,-2 1,-3l0 0z"/>
  <path class="fil1" d="M741 113c31,15 52,25 141,71 4,1 10,4 14,5 -10,-8 -21,-16 -33,-25 -30,-16 -58,-30 -90,-43 -9,-3 -19,-5 -32,-8z"/>
  <path class="fil1" d="M827 2004c12,21 23,42 34,60 31,56 32,44 43,63 -6,-12 -14,-26 -20,-37 -6,-9 -10,-15 -13,-21l-7 -17c-5,-9 -9,-15 -12,-21 -8,-9 -15,-17 -25,-27z"/>
 </g>
</svg>
