<?xml version="1.0" encoding="UTF-8"?>
<!DOCTYPE svg PUBLIC "-//W3C//DTD SVG 1.1//EN" "http://www.w3.org/Graphics/SVG/1.1/DTD/svg11.dtd">
<!-- Creator: CorelDRAW X8 -->
<svg xmlns="http://www.w3.org/2000/svg" xml:space="preserve" width="1.50543in" height="1.05678in" version="1.1" style="shape-rendering:geometricPrecision; text-rendering:geometricPrecision; image-rendering:optimizeQuality; fill-rule:evenodd; clip-rule:evenodd"
viewBox="0 0 127 89"
 xmlns:xlink="http://www.w3.org/1999/xlink">
 <defs>
  <style type="text/css">
   <![CDATA[
    .fil0 {fill:#ED3237;fill-rule:nonzero}
   ]]>
  </style>
 </defs>
 <g id="Layer_x0020_1">
  <metadata id="CorelCorpID_0Corel-Layer"/>
  <path class="fil0" d="M76 12c-12,-2 -21,2 -26,11 -1,-10 -8,-20 -19,-22 -19,-4 -28,8 -30,17 -6,26 32,47 31,69 11,-18 52,-15 62,-46 4,-13 -7,-26 -18,-29z"/>
  <path class="fil0" d="M46 48c2,-3 16,-7 13,-2 -1,2 -6,3 -8,4 -3,1 -6,2 -8,4 -1,-1 -1,-4 -2,-5 -2,-2 -13,-14 -7,-15 5,-1 9,12 12,14l0 0zm0 -3c2,-2 10,-6 13,-7 4,0 6,0 8,4 1,5 -8,8 -11,9 -6,2 -10,2 -14,6 -2,-5 -6,-10 -9,-14 -2,-3 -6,-7 -7,-10 -2,-7 6,-10 10,-5 3,5 9,12 10,17l0 0zm1 -4c6,-3 30,-16 25,3 -3,10 -25,10 -32,18 -2,-13 -23,-28 -20,-38 2,-8 9,-9 14,-3 6,6 9,13 13,20l0 0zm0 -5c2,0 8,-4 10,-5 12,-7 28,2 17,16 -9,11 -27,10 -36,20 -1,-16 -28,-29 -24,-46 3,-8 11,-13 18,-8 6,4 13,17 15,23l0 0zm1 -4c4,-6 16,-11 24,-9 5,2 13,9 12,15 -2,8 -13,19 -20,22 -9,4 -23,8 -28,15 5,-20 -32,-32 -26,-53 2,-10 10,-17 20,-14 9,2 16,18 18,24l0 0zm0 -5c9,-5 13,-10 23,-10 8,0 14,9 18,14 7,13 -17,30 -27,34 -8,3 -24,8 -28,16 -1,-3 0,-5 -1,-7 0,0 -3,-7 -4,-8 -1,-3 -3,-7 -5,-9 -5,-5 -9,-9 -13,-15 -2,-3 -3,-8 -6,-11 -9,-12 11,-34 24,-28 13,7 14,12 19,24l0 0zm28 -15c-12,-2 -21,2 -26,11 -1,-10 -8,-20 -19,-22 -19,-4 -28,8 -30,17 -6,26 32,47 31,69 11,-18 52,-15 62,-46 4,-13 -7,-26 -18,-29l0 0z"/>
  <path class="fil0" d="M115 67c0,2 0,5 0,7 0,2 0,4 0,6l1 4c0,2 0,1 2,1 3,-1 6,-1 9,-1 0,-1 0,-3 0,-4l-4 1c-2,0 -4,-1 -5,-1 0,-1 0,-1 0,-2l0 -2c1,0 2,0 3,0 2,-1 3,-1 5,-1 -1,0 -1,-1 -1,-1 -1,0 -2,0 -4,0 -1,0 -2,0 -3,0 0,-1 0,-2 0,-2l-1 -3 8 -1c0,-1 0,-2 0,-3l-6 1 -2 0c-1,0 -2,0 -2,1z"/>
  <path class="fil0" d="M64 73l1 9c0,2 0,4 0,6 0,2 1,1 2,1 3,0 5,-1 8,-1 1,0 4,1 4,0 1,-1 0,-3 0,-4 -1,0 -1,1 -2,1 -1,0 -2,-1 -2,-1 -2,1 -3,0 -5,0 0,0 -1,0 -1,-1 0,-1 0,-4 0,-6 0,0 0,-1 0,-2 0,-2 0,-2 1,-3 -1,0 -1,-1 -2,-1 -1,0 -4,0 -5,1 1,0 1,0 1,1z"/>
  <path class="fil0" d="M91 73c0,1 0,1 0,1 1,1 1,1 1,1 1,2 2,4 1,5 0,1 0,2 -1,3 -1,0 -1,1 -1,1 -1,1 -3,2 -4,1 -2,0 -3,-1 -3,-2 -1,0 -2,-2 -2,-3 -1,-1 -1,-2 -1,-3 0,-1 1,-2 2,-3 1,-2 2,-2 3,-2 1,0 1,0 1,0 1,1 2,0 3,1 0,0 1,0 1,0zm2 -1c-1,-2 -6,-3 -8,-3 -1,0 -2,1 -3,1 -1,0 -2,1 -2,1 -1,2 -2,3 -2,5 0,2 1,3 1,5 1,1 1,2 1,2 2,2 4,4 7,5 3,0 6,-3 7,-6 1,-1 1,-3 1,-4 1,-1 0,-2 0,-3 -1,-1 -2,-2 -2,-3l0 0z"/>
  <path class="fil0" d="M94 68c3,3 4,7 6,11 0,1 1,2 1,3 1,1 1,3 1,3 0,1 0,1 1,1 0,0 5,0 5,0 0,-1 0,-2 0,-2 1,-2 1,-3 1,-4 0,-2 0,-5 0,-7 1,-2 1,-4 2,-6 0,0 -3,0 -4,0 0,1 0,2 0,2 0,1 0,2 0,3 -1,1 -1,1 -1,2 0,1 0,2 0,4 0,1 0,2 -1,3 -1,-2 -2,-3 -2,-5 -1,-1 -1,-2 -2,-4 0,0 -1,-1 -1,-2 0,-1 0,-1 -1,-2 0,-1 -2,0 -2,0 -1,0 -1,0 -2,1 -1,0 -1,-1 -1,-1z"/>
 </g>
</svg>
