<?xml version="1.0" encoding="UTF-8"?>
<!DOCTYPE svg PUBLIC "-//W3C//DTD SVG 1.1//EN" "http://www.w3.org/Graphics/SVG/1.1/DTD/svg11.dtd">
<!-- Creator: CorelDRAW X8 -->
<svg xmlns="http://www.w3.org/2000/svg" xml:space="preserve" width="1.70507in" height="1.47232in" version="1.1" style="shape-rendering:geometricPrecision; text-rendering:geometricPrecision; image-rendering:optimizeQuality; fill-rule:evenodd; clip-rule:evenodd"
viewBox="0 0 3712 3205"
 xmlns:xlink="http://www.w3.org/1999/xlink">
 <defs>
  <style type="text/css">
   <![CDATA[
    .fil2 {fill:#FEFEFE}
    .fil0 {fill:#ED3237}
    .fil1 {fill:#E13236}
   ]]>
  </style>
 </defs>
 <g id="Layer_x0020_1">
  <metadata id="CorelCorpID_0Corel-Layer"/>
  <path class="fil0" d="M2308 379c-6,-128 -36,-203 -141,-249 -115,-51 -251,2 -301,118 -92,210 26,512 144,813 301,-117 603,-236 695,-446 51,-115 -2,-251 -118,-301 -105,-46 -180,-17 -279,65zm24 -54c119,-99 210,-135 337,-80 140,62 204,225 143,365 -111,254 -476,396 -841,539 -142,-365 -285,-730 -174,-983 62,-140 225,-204 365,-143 127,56 162,147 170,302z"/>
  <path class="fil0" d="M1133 916c-180,-199 -328,-282 -559,-217 -255,72 -404,337 -333,592 130,462 723,795 1315,1127 332,-592 664,-1184 534,-1646 -71,-256 -337,-405 -592,-333 -231,65 -314,213 -365,477zm-33 -121c61,-318 161,-497 440,-576 309,-86 629,94 716,402 157,559 -245,1274 -646,1990 -716,-402 -1431,-803 -1588,-1362 -87,-308 93,-629 401,-716 280,-78 459,22 677,262z"/>
  <path class="fil0" d="M2238 2413l0 0c-198,-127 -396,80 -342,280 80,293 453,329 627,58 -104,140 -279,208 -444,138 -100,-42 -244,-226 -132,-397 112,-171 291,-79 291,-79zm956 -82l0 0c10,49 81,69 107,80 0,0 -22,-35 -42,-91 -20,-55 -80,-65 -99,-71 13,6 23,9 45,33 22,25 27,57 42,73 -27,-16 -29,-11 -56,-68 -8,-18 -20,-29 -40,-42 26,21 36,46 43,86zm-93 -29l0 0c-12,36 30,76 43,92 0,0 -2,-31 4,-76 7,-46 -30,-74 -41,-85 6,9 12,15 18,39 7,25 -2,48 3,65 -13,-21 -16,-19 -13,-67 0,-15 -4,-27 -13,-43 11,23 8,44 -1,75zm141 109l0 0c-25,-19 -40,-33 -46,-58 2,18 6,30 16,41 31,37 28,37 30,62 -7,-16 -27,-30 -37,-54 -10,-23 -9,-31 -9,-42 -2,16 -15,61 18,93 33,31 50,58 50,58 1,-21 9,-78 -22,-100zm-762 155l0 0c-1,-4 -2,-9 -3,-15 -1,20 -6,35 -15,49 -38,55 -33,55 -33,88 7,-22 34,-45 44,-78 6,-21 8,-34 7,-44zm-57 61l0 0c-40,35 -20,111 -15,140 0,0 19,-39 60,-87 37,-45 19,-100 12,-124 -4,-39 -18,-130 -75,-200 -54,-65 -179,-156 -356,-122 -243,46 -365,232 -392,444 5,5 11,9 16,14 28,-206 149,-389 381,-433 199,-38 380,101 423,289 -6,31 -24,52 -54,79zm-73 240c196,-94 248,-332 147,-515 -134,-226 -427,-271 -639,-130 -148,103 -222,267 -220,440 -5,-5 -10,-9 -15,-13 -2,-51 4,-102 16,-151l-13 -2 -3 -1c1,-7 2,-15 4,-24 17,-77 83,-218 225,-332 142,-114 361,-200 685,-165 59,7 122,17 188,33 167,38 301,75 414,106 344,85 498,16 552,28 34,7 25,37 -13,53 -153,65 -398,-35 -541,-75 -112,-31 -246,-68 -413,-106 -66,-15 -129,-26 -188,-32 -322,-35 -539,50 -680,163 -141,113 -205,253 -223,329l-1 7c249,-688 1030,-499 1453,-298 163,77 328,155 525,189 -114,1 -355,-89 -475,-139 43,39 64,98 47,159 -21,71 -97,117 -169,88 -47,-21 -76,-74 -55,-124 18,-40 65,-60 104,-37 22,14 34,41 24,66 -16,38 -67,38 -77,-2l-1 -4c-3,-10 -9,-13 -17,-5 -20,21 -6,55 11,72 38,36 95,29 132,-3 56,-50 52,-125 6,-181 -30,-37 -83,-64 -126,-83 -366,-157 -980,-282 -1256,95 49,-55 108,-98 173,-127l1 0c6,-3 12,-6 20,-10l1 -1c184,-91 410,-112 594,-29 194,88 253,228 255,434 1,134 27,178 77,235l0 0c-178,-138 8,-441 -286,-630 -171,-99 -365,-101 -545,-43 88,-22 210,-30 348,17l0 0c41,13 76,31 107,52 30,21 57,46 79,72 108,124 128,295 121,390 6,4 20,17 15,55 -6,49 -28,38 -38,67 -9,28 15,51 8,47 -8,-5 -19,-19 -17,-10 2,8 11,22 -1,10 -12,-12 -8,-23 -13,-9 -4,14 -12,18 -8,2 3,-16 7,-29 -5,-20 -12,8 -22,9 -22,9 0,0 32,-13 26,-70 -4,-39 34,-79 48,-82 7,-94 -13,-262 -118,-385 -23,-26 -49,-50 -79,-70 -30,-21 -65,-39 -105,-52 -151,-51 -282,-36 -370,-10 122,-28 255,-10 372,64 205,137 273,408 133,617 -122,171 -350,227 -529,107 -152,-111 -196,-322 -71,-471 103,-112 280,-131 386,-13 80,95 72,250 -49,304 -77,35 -169,-16 -170,-111 -2,-49 45,-92 87,-87 -94,64 -44,168 28,167 37,0 88,-37 97,-91 11,-66 -27,-134 -70,-163 -109,-75 -314,-4 -298,200 16,203 215,316 410,229z"/>
  <path class="fil0" d="M1515 768l0 0c-23,-166 169,-233 282,-139 166,138 80,390 -146,422 120,-26 216,-119 219,-246 2,-77 -74,-224 -218,-202 -143,21 -137,165 -137,165zm-334 593l0 0c29,21 21,73 20,92 0,0 -16,-24 -46,-53 -30,-30 -19,-71 -17,-85 1,10 -1,17 9,39 9,21 28,34 34,49 -2,-23 1,-23 -28,-57 -9,-10 -12,-22 -15,-38 6,23 19,37 43,53zm9 -69l0 0c27,4 40,42 47,55 0,0 -20,-10 -51,-19 -31,-9 -39,-42 -42,-52 3,7 5,12 19,23 14,12 32,13 41,21 -9,-15 -7,-16 -39,-28 -10,-4 -16,-10 -24,-21 12,14 26,18 49,21zm29 124l0 0c-5,-22 -10,-36 -24,-47 10,6 17,13 22,22 14,31 15,29 31,38 -9,-9 -12,-27 -24,-40 -12,-13 -18,-15 -24,-18 10,3 43,8 54,39 11,30 23,49 23,49 -14,-6 -53,-17 -58,-43zm325 -447l0 0c-3,-2 -6,-4 -9,-6 12,5 23,6 36,4 46,-8 44,-5 66,5 -17,-2 -39,8 -63,5 -16,-2 -24,-5 -30,-8zm55 -19l0 0c35,-15 78,20 96,31 0,0 -31,2 -74,13 -41,11 -71,-17 -84,-28 -24,-14 -79,-50 -107,-108 -27,-53 -49,-161 25,-266 157,-221 443,-159 619,5l27 11 24 11 -57 -14c-167,-158 -449,-212 -598,-2 -83,118 -46,275 63,358 21,6 40,0 66,-11zm177 24c-119,98 -287,62 -376,-58 -107,-152 -50,-355 104,-451 129,-76 281,-62 403,18 2,2 28,20 16,8 -46,-45 -111,-74 -176,-86l2 -9 1 -2c-5,-2 -10,-3 -17,-4 -55,-12 -165,-11 -281,47 -115,58 -235,174 -308,394 -13,41 -25,84 -35,132 -24,118 -40,216 -53,298 -46,248 -136,327 -144,365 -6,24 17,27 38,7 87,-79 94,-267 111,-371 13,-82 28,-179 53,-298 10,-48 21,-91 35,-131 72,-218 191,-334 305,-392 114,-58 224,-58 278,-47l5 1c-517,-41 -625,519 -620,852 2,128 3,258 -33,394 34,-72 47,-256 50,-348 13,40 45,72 89,78 53,7 105,-28 107,-83 0,-37 -25,-71 -64,-72 -31,0 -58,24 -54,56 2,18 16,34 35,35 30,1 45,-32 21,-51l-2 -2c-5,-4 -5,-9 2,-12 19,-6 37,13 43,29 12,34 -9,69 -41,84 -49,21 -96,-3 -118,-49 -15,-31 -17,-73 -16,-106 6,-283 105,-717 430,-785 -49,16 -94,42 -132,76l-1 0c-4,3 -8,6 -12,10l-1 0c-113,93 -193,232 -194,375 0,152 73,231 206,293 86,40 107,70 129,119l0 0c-37,-156 -288,-124 -323,-370 -13,-140 42,-266 133,-365 -41,50 -82,127 -92,230l0 0c-3,30 -2,58 2,84 5,26 13,50 23,73 49,106 153,169 217,192 1,6 5,18 31,26 34,11 33,-6 54,-4 22,2 29,24 28,18 0,-6 -6,-17 -1,-13 4,3 11,13 6,2 -4,-11 -12,-12 -1,-11 10,2 15,-2 4,-5 -12,-2 -21,-4 -12,-9 9,-5 12,-11 12,-11 0,0 -18,16 -52,-4 -24,-14 -61,-1 -68,7 -63,-23 -165,-86 -214,-190 -10,-22 -18,-46 -22,-72 -4,-25 -6,-53 -3,-82l0 0c12,-113 60,-193 103,-243 -54,71 -81,162 -68,259 28,173 183,297 359,268 147,-28 250,-160 225,-310 -27,-131 -150,-221 -283,-184 -103,33 -167,141 -122,245 38,79 140,120 211,57 45,-39 39,-113 -22,-142 -31,-15 -73,2 -82,31 69,-42 122,21 100,67 -11,24 -50,46 -87,36 -47,-12 -79,-57 -85,-93 -17,-92 90,-204 216,-134 127,70 142,232 28,333z"/>
  <path class="fil1" d="M1062 2516c52,-40 159,-54 220,-52 -45,-11 -90,-15 -135,-22 -128,-20 -148,46 -247,91 33,2 102,32 162,-17zm-568 458c-35,-18 -57,-34 -68,-64 6,22 13,37 28,49 46,40 41,41 48,71 -11,-19 -39,-32 -56,-59 -17,-28 -17,-38 -19,-51 0,19 -7,78 40,111 47,34 73,64 73,64 -3,-27 -3,-99 -46,-121zm91 231c-24,-8 -192,-81 -185,-289 5,-101 39,-189 103,-267 211,-255 545,-291 839,-179 -131,-54 -342,-109 -631,-47 -424,91 -446,483 -447,527 7,2 21,11 26,45 7,45 -15,41 -17,68 -1,28 26,42 18,40 -7,-2 -21,-12 -17,-5 4,7 16,17 2,9 -13,-7 -13,-18 -13,-4 -1,14 -7,19 -8,4 -1,-15 0,-28 -9,-17 -9,10 -17,14 -17,14 0,0 25,-20 5,-69 -12,-32 11,-76 23,-84 1,-40 20,-443 453,-536 194,-42 363,-27 494,3 -335,-107 -822,-179 -988,102 0,0 117,-257 531,-214 214,22 461,73 645,189 64,40 127,80 191,119 -9,-6 -19,-11 -29,-17l0 0 -3 -1c-174,-95 -412,-191 -552,26 -76,118 -67,280 51,367 79,55 191,58 257,-18 165,-206 -175,-347 -182,-119 -13,-43 5,-89 41,-117 71,-52 166,-22 209,52 50,93 5,200 -83,251 -134,71 -290,-3 -346,-138 -66,-166 31,-347 194,-409 62,-23 137,-29 204,-13 -227,-76 -471,-72 -684,56 -48,33 -104,79 -145,131 -62,79 -73,172 -31,243 36,61 131,121 222,56 45,-33 66,-94 37,-146 -24,-45 -80,-55 -112,-32 -18,13 -33,39 -19,69 11,26 46,33 67,11 20,-21 -1,-52 -2,-53 35,23 21,75 -23,83 -31,5 -59,-15 -68,-44 -16,-49 19,-97 67,-107 62,-10 113,35 125,94 15,88 -56,160 -141,167 -106,5 -189,-83 -192,-185 -1,-9 0,-18 1,-27 -19,51 -27,107 -23,165 10,80 23,174 162,246z"/>
  <path class="fil2" d="M1281 2454c-8,-4 -16,-8 -24,-12 -4,-3 -8,-5 -12,-8 -18,-15 -32,-35 -47,-53 -21,-23 -42,-40 -70,-55l-37 -19 40 -11c49,-14 107,-28 158,-27 33,1 64,9 89,32 8,8 15,16 20,26 0,-11 -1,-22 1,-33 6,-67 58,-116 110,-153l27 -19 -1 33c-1,34 7,62 18,93 9,26 21,54 22,83 0,25 -8,46 -23,66 -3,5 -7,9 -12,14 29,-3 57,0 83,12 20,8 40,21 57,34 20,15 38,32 56,49 8,8 16,17 23,25l44 51 -62 -24c-23,-9 -69,7 -91,15 -36,11 -82,26 -117,9 1,4 2,7 3,10 -3,44 -6,149 -72,181 -5,5 -9,11 -11,17l0 7 4 27c-1,7 -2,12 -3,18l-29 -31c-11,-11 -21,-24 -29,-36 -18,-27 -34,-56 -43,-87 -6,-21 -8,-42 -5,-63 -51,33 -114,46 -170,19 -21,-10 -41,-24 -58,-40 -26,-23 -27,-39 -34,-72 13,10 29,28 47,29 13,1 27,-7 37,-14 17,-21 35,-42 55,-60 14,-13 30,-24 48,-31l8 -2z"/>
  <path class="fil0" d="M1719 2535l0 0c0,0 -27,-4 -88,20 -53,22 -82,13 -101,-8 -22,-22 -36,-58 -69,-69 3,-6 4,-13 2,-19 0,0 68,-35 131,-21 62,15 104,64 104,64 0,0 -69,-69 -138,-60 -69,9 -54,61 -20,89 34,27 79,20 112,10 32,-11 67,-6 67,-6zm-297 -44l0 0c-37,97 -158,192 -258,115 0,0 76,50 147,-7 70,-57 64,-110 27,-124 -37,-13 -79,18 -79,18 0,0 28,-31 93,-24 24,3 42,2 54,0 1,8 4,14 11,19l5 3zm-13 -39l0 0c-89,-10 -139,-12 -194,-90 23,31 105,97 136,32 13,-26 3,-67 -40,-80 -70,-20 -138,-4 -138,-4 0,0 60,-25 135,-13 67,9 93,96 114,143 -4,2 -7,4 -10,7l-3 5zm50 -3l0 0 -6 -6c-5,-4 -10,-6 -16,-6 3,-7 15,-41 0,-111 -17,-81 67,-143 67,-143 -19,20 -31,38 -38,54 -14,31 -8,66 7,96 14,28 35,43 50,19 30,-49 -3,-113 -3,-113 46,88 13,155 -61,210zm-14 4l0 0c7,6 8,16 2,23 -5,7 -15,8 -22,2 -7,-5 -8,-16 -3,-23 6,-6 16,-7 23,-2zm-30 9c-134,3 -141,-9 -231,97 -43,33 -71,13 -71,13 0,0 29,36 74,58 96,46 221,-40 243,-138 0,0 11,3 -48,94 -58,91 57,214 57,214 -2,-17 64,-67 69,-185 -4,-38 -28,-71 -45,-81 -23,-14 -57,31 -57,31 0,0 28,-42 30,-70 8,-1 15,-4 21,-10 11,12 30,37 47,76 7,16 11,30 13,43l5 -6c-14,-77 -65,-118 -65,-118 0,0 19,4 66,71 47,66 165,-32 226,-8 0,0 -70,-81 -130,-104 -69,-34 -155,15 -155,15 180,-117 53,-162 57,-299 -168,120 -79,197 -95,279 -42,-118 -47,-189 -288,-122 78,40 90,93 130,116 71,41 119,20 147,34z"/>
  <path class="fil2" d="M1493 468c-8,3 -17,4 -26,5 -5,1 -10,1 -15,1 -23,-1 -46,-9 -69,-14 -30,-6 -58,-7 -89,-1l-41 7 26 -34c30,-40 68,-86 110,-116 26,-19 56,-32 90,-28 11,1 21,4 32,8 -8,-8 -14,-17 -20,-26 -35,-58 -23,-127 -4,-188l10 -32 19 27c20,27 43,46 71,64 23,15 50,30 67,52 15,20 22,42 22,67 0,6 0,12 -1,19 20,-20 45,-35 73,-40 21,-7 45,-8 66,-8 25,0 50,3 74,6 11,2 23,4 34,6l65 14 -64 18c-24,7 -50,48 -64,67 -21,31 -49,70 -87,77 13,11 24,22 35,35 27,34 35,70 30,112 -1,14 -4,28 -5,42 -1,8 -2,19 1,26l4 5 36 37 -50 -8c-15,-3 -31,-8 -45,-13 -30,-9 -61,-23 -86,-43 -18,-13 -32,-29 -42,-47 -21,56 -64,105 -125,117 -23,5 -47,5 -70,4 -34,-3 -45,-16 -71,-38 17,0 41,5 55,-5 11,-8 18,-21 22,-34 1,-26 3,-54 8,-80 3,-19 9,-37 20,-54l4 -7z"/>
  <path class="fil0" d="M1892 270l0 0c0,0 -24,13 -58,69 -30,50 -58,60 -86,55 -30,-6 -64,-26 -96,-15 -2,-6 -5,-12 -10,-16 0,0 34,-68 92,-95 59,-26 121,-12 121,-12 0,0 -96,-13 -146,36 -50,48 -7,80 38,82 44,2 75,-31 95,-59 19,-28 50,-45 50,-45zm-240 118l0 0c17,3 47,11 84,32 82,50 80,110 73,189 0,0 4,-70 -17,-118 -21,-48 -79,-71 -106,-68 -26,3 -26,59 -26,59 0,0 -3,-50 -18,-74 6,-5 10,-12 10,-20zm-24 26l0 0c29,100 -11,248 -137,247 0,0 91,-6 114,-94 22,-88 -16,-127 -53,-116 -38,12 -53,62 -53,62 0,0 4,-42 60,-75 21,-12 35,-23 44,-32 5,5 11,8 19,9l6 -1zm-33 -24l0 0c-78,46 -119,74 -210,44 37,12 142,16 129,-56 -6,-28 -39,-55 -81,-39 -67,26 -112,79 -112,79 0,0 33,-55 99,-91 59,-33 132,21 177,45 -1,4 -3,8 -3,12l1 6zm37 -32l0 0 -8 -2c-6,0 -11,2 -16,5 -2,-8 -13,-41 -67,-89 -62,-54 -32,-154 -32,-154 -3,28 -2,49 2,65 7,34 33,59 63,73 28,15 54,14 51,-14 -5,-57 -69,-89 -69,-89 89,43 103,116 76,205zm-8 11l0 0c9,1 16,8 15,17 0,9 -7,16 -16,16 -9,-1 -16,-8 -16,-17 1,-9 8,-16 17,-16zm-19 25c-105,83 -118,78 -126,217 -15,52 -49,53 -49,53 0,0 45,11 94,1 105,-20 153,-164 111,-255 0,0 11,-4 19,104 8,107 174,136 174,136 -35,-35 30,-109 -32,-186 -62,-77 -147,-81 -147,-81 0,0 19,-8 96,17 78,25 113,-124 176,-142 0,0 -105,-22 -167,-4 -75,14 -114,105 -114,105 73,-202 -56,-162 -135,-273 -62,196 56,205 93,280 -105,-70 -152,-123 -304,75 86,-15 127,21 173,15 82,-10 107,-56 138,-62z"/>
  <path class="fil0" d="M2234 1798c13,-32 14,-54 -6,-77 -23,-26 -62,-28 -87,-5 -46,41 -51,128 -56,215 87,5 174,10 220,-31 25,-23 28,-62 5,-87 -21,-23 -42,-24 -76,-15zm12 -11c41,-11 67,-9 92,18 27,31 24,78 -6,106 -56,49 -161,43 -267,37 7,-105 13,-211 68,-260 31,-27 78,-25 106,6 24,28 23,54 7,93z"/>
  <path class="fil0" d="M1292 2066c-25,-23 -45,-32 -74,-21 -32,12 -48,47 -36,79 21,58 101,94 180,130 36,-80 72,-159 51,-217 -12,-32 -48,-48 -80,-36 -29,11 -38,31 -41,65zm-6 -15c4,-41 15,-65 50,-78 39,-15 82,4 96,43 26,70 -17,166 -61,262 -96,-44 -192,-87 -218,-157 -14,-39 5,-82 44,-96 35,-13 59,-2 89,26z"/>
  <path class="fil0" d="M1020 546c-23,-15 -39,-20 -61,-8 -24,13 -32,42 -19,66 24,43 90,63 157,82 19,-67 39,-134 15,-177 -13,-23 -43,-32 -67,-19 -21,12 -26,29 -25,56zm-6 -11c-2,-33 4,-53 30,-68 29,-16 65,-5 81,24 29,52 5,132 -18,213 -81,-24 -161,-47 -190,-99 -16,-29 -5,-65 23,-81 26,-14 46,-8 74,11z"/>
  <path class="fil0" d="M3285 2004c17,-21 24,-37 14,-59 -10,-25 -39,-37 -64,-26 -45,19 -71,83 -97,148 64,26 129,52 174,33 25,-11 36,-40 26,-65 -10,-22 -26,-29 -53,-31zm11 -5c34,2 53,10 65,38 13,30 -2,65 -32,77 -54,24 -132,-8 -210,-39 31,-78 63,-156 117,-179 30,-13 65,1 78,31 12,27 4,47 -18,72z"/>
  <path class="fil0" d="M873 1802l0 0c32,-14 73,20 89,31 0,0 -29,1 -70,11 -41,10 -70,-21 -81,-30 9,5 14,10 37,13 23,4 44,-6 60,-3 -20,-11 -18,-13 -63,-7 -13,2 -25,0 -40,-7 22,7 41,3 68,-8zm-55 -44l0 0c18,-21 57,-13 72,-11 0,0 -19,11 -43,33 -24,22 -56,11 -66,9 7,0 13,1 30,-5 17,-6 28,-20 39,-24 -17,1 -17,-2 -45,19 -8,6 -17,9 -30,9 18,-3 29,-13 43,-30zm121 40l0 0c-21,-7 -36,-10 -53,-4 12,-5 21,-8 31,-7 34,4 33,2 48,-6 -12,2 -28,-5 -46,-1 -18,3 -22,7 -28,11 8,-7 29,-32 61,-26 32,7 54,7 54,7 -12,9 -42,36 -67,26zm-430 -1076c1,-1 31,-13 14,-9 -63,15 -121,55 -165,105l-7 -7 -1 -2c-4,3 -8,7 -13,12 -38,40 -96,135 -107,264 -11,129 24,292 173,469 27,33 58,66 93,99 88,83 163,148 226,202 186,170 206,288 234,315 18,17 32,0 27,-28 -22,-116 -178,-221 -258,-291 -63,-54 -137,-118 -226,-202 -35,-33 -66,-66 -93,-98 -147,-176 -183,-338 -172,-466 11,-127 69,-221 106,-261l4 -4c-307,419 112,805 398,976 109,66 221,133 318,236 -44,-68 -193,-175 -269,-226 40,10 83,-1 112,-35 34,-41 31,-104 -14,-134 -32,-20 -74,-16 -95,16 -17,26 -10,62 19,76 17,8 38,4 48,-12 16,-25 -4,-55 -32,-45l-2 1c-7,2 -11,0 -10,-8 5,-20 30,-25 47,-22 36,8 55,45 50,79 -7,53 -53,81 -104,75 -34,-3 -71,-24 -99,-42 -237,-154 -553,-467 -439,-779 -13,51 -15,103 -7,153l1 0c0,5 1,10 1,16l0 1c19,145 95,287 217,362 129,80 235,60 357,-21 80,-52 116,-54 170,-46l0 -1c-152,-50 -258,180 -485,80 -126,-62 -204,-175 -241,-305 22,61 65,136 148,199l0 0 0 0c23,19 48,33 72,43 25,9 50,15 74,18 116,14 225,-41 278,-82 5,1 18,4 39,-14 26,-22 11,-31 24,-48 13,-17 36,-11 31,-14 -6,-3 -19,-4 -13,-6 6,-2 18,-2 6,-4 -12,-3 -17,4 -10,-5 6,-8 5,-14 -3,-6 -8,9 -14,16 -14,6 1,-11 -2,-17 -2,-17 0,0 4,24 -32,43 -24,13 -32,51 -29,61 -53,41 -160,96 -274,82 -24,-3 -49,-9 -73,-19 -24,-10 -48,-23 -72,-41l0 0c-233,-179 -204,-560 74,-689z"/>
  <path class="fil0" d="M681 2187c-23,4 -35,11 -41,31 -6,22 7,45 29,51 40,11 90,-18 141,-47 -29,-50 -57,-101 -97,-112 -22,-6 -45,7 -51,29 -5,19 2,32 19,48zm-10 -3c-21,-19 -30,-34 -23,-58 8,-27 35,-42 61,-35 48,14 83,75 118,136 -62,35 -123,69 -171,56 -26,-7 -42,-35 -35,-61 7,-24 22,-33 50,-38z"/>
  <path class="fil0" d="M2799 978l0 0c-30,-18 -27,-70 -28,-90 0,0 18,23 51,50 32,27 24,69 23,83 -1,-10 0,-17 -11,-38 -11,-20 -31,-31 -38,-46 4,23 0,23 32,54 10,10 14,21 18,37 -7,-22 -22,-35 -47,-50zm-3 70l0 0c-27,-1 -44,-38 -51,-51 0,0 20,9 52,15 32,7 42,39 46,48 -4,-6 -6,-11 -21,-21 -15,-10 -33,-11 -43,-17 11,13 9,14 41,25 11,3 18,8 26,18 -13,-13 -27,-16 -50,-17zm-39 -121l0 0c6,22 13,35 28,45 -11,-5 -19,-11 -24,-20 -17,-30 -18,-28 -34,-35 9,8 14,25 27,37 13,13 19,14 26,17 -11,-3 -44,-5 -57,-35 -14,-29 -27,-47 -27,-47 14,4 54,12 61,38zm-239 1036c-9,2 -18,4 -27,5 35,-11 73,-27 110,-51 110,-66 219,-191 273,-414 10,-41 18,-86 24,-134 15,-120 22,-219 29,-301 8,-105 0,-293 80,-380 20,-20 42,-20 39,5 -5,38 -89,125 -115,375 -6,83 -13,182 -28,302 -6,48 -14,93 -24,134 -55,225 -165,350 -275,417 -29,18 -58,32 -86,42zm-241 9c71,2 134,0 189,-2 388,-96 435,-585 406,-882 -12,-128 -24,-257 1,-396 -28,75 -26,258 -22,350 -16,-38 -50,-67 -95,-70 -53,-3 -101,37 -99,92 3,37 31,68 69,67 31,-3 56,-29 50,-61 -4,-18 -19,-33 -39,-32 -29,2 -41,36 -16,52l2 2c6,4 6,9 -1,12 -18,8 -38,-9 -45,-25 -15,-33 3,-70 34,-87 47,-25 96,-5 122,40 17,29 23,71 25,104 16,282 -48,723 -366,816 48,-19 91,-49 126,-85l0 -1c4,-3 8,-6 12,-10l0 -1c106,-101 175,-246 163,-390 -12,-151 -91,-224 -228,-275 -89,-33 -113,-60 -138,-108l-1 0c50,153 297,101 352,343 25,138 -20,268 -102,374 36,-53 71,-132 73,-236l0 0c0,-30 -3,-58 -10,-84 -7,-26 -16,-49 -28,-70 -58,-102 -167,-157 -232,-175 -1,-5 -7,-17 -34,-23 -34,-8 -32,9 -53,9 -21,-1 -31,-22 -29,-16 1,6 7,17 2,13 -5,-3 -12,-13 -7,-2 5,11 14,11 3,11 -11,-1 -15,4 -3,5 11,2 21,2 12,8 -8,6 -12,12 -12,12 0,0 17,-17 53,1 25,12 61,-5 67,-13 65,18 172,72 229,172 11,21 21,44 28,69 6,26 10,53 9,83 -3,159 -100,291 -230,356l-1 0c-11,6 -24,12 -38,17 -29,10 -59,18 -90,22 -35,6 -72,11 -108,14z"/>
  <path class="fil0" d="M2388 1593c-4,-28 -12,-44 -37,-52 -26,-8 -55,6 -64,32 -16,49 16,113 49,178 64,-33 128,-65 144,-113 9,-27 -5,-56 -32,-65 -24,-8 -40,0 -60,20zm4 -12c24,-24 44,-34 73,-24 32,10 50,45 39,77 -20,59 -97,98 -175,137 -39,-78 -78,-156 -59,-214 11,-32 46,-50 78,-39 29,10 39,29 44,63z"/>
  <path class="fil0" d="M3084 870c8,-20 9,-33 -3,-47 -14,-16 -38,-18 -53,-4 -29,24 -33,77 -37,130 53,4 106,8 135,-17 15,-13 17,-37 4,-52 -13,-15 -26,-16 -46,-10zm7 -7c25,-6 41,-5 56,13 16,18 14,47 -5,63 -35,30 -98,25 -162,20 4,-64 9,-127 44,-157 18,-16 47,-14 63,5 15,17 14,33 4,56z"/>
 </g>
</svg>
