<?xml version="1.0" encoding="UTF-8"?>
<!DOCTYPE svg PUBLIC "-//W3C//DTD SVG 1.1//EN" "http://www.w3.org/Graphics/SVG/1.1/DTD/svg11.dtd">
<!-- Creator: CorelDRAW X8 -->
<svg xmlns="http://www.w3.org/2000/svg" xml:space="preserve" width="13.4482in" height="13.3928in" version="1.1" style="shape-rendering:geometricPrecision; text-rendering:geometricPrecision; image-rendering:optimizeQuality; fill-rule:evenodd; clip-rule:evenodd"
viewBox="0 0 12546 12494"
 xmlns:xlink="http://www.w3.org/1999/xlink">
 <defs>
  <style type="text/css">
   <![CDATA[
    .fil0 {fill:#DDDEDE;fill-rule:nonzero}
   ]]>
  </style>
 </defs>
 <g id="Layer_x0020_1">
  <metadata id="CorelCorpID_0Corel-Layer"/>
  <path class="fil0" d="M7400 9394l0 -8c1,-56 -3,-112 2,-168 5,-120 26,-238 54,-352 45,-162 119,-313 214,-446 117,-165 270,-300 435,-417 187,-132 393,-241 604,-343 226,-109 460,-209 696,-319 236,-110 487,-241 711,-389 216,-139 430,-285 638,-444 190,-145 375,-302 553,-471 153,-144 298,-300 435,-466 104,-128 206,-262 297,-404 94,-142 182,-293 244,-455 32,-77 59,-156 87,-234 74,-218 127,-450 153,-680 33,-288 30,-578 -8,-862 -39,-285 -110,-564 -213,-831 -82,-215 -185,-422 -306,-619 -94,-154 -197,-305 -321,-436 -90,-92 -181,-182 -280,-265 -143,-122 -296,-234 -457,-331 -199,-122 -418,-229 -643,-301 -256,-85 -520,-132 -782,-147 -281,-17 -560,4 -829,57 -276,53 -541,141 -791,255 -243,113 -472,252 -680,416 -195,149 -361,330 -518,498 -138,149 -275,301 -403,461 -100,125 -196,256 -280,392 -56,90 -106,182 -151,277l-45 103 60 -97c59,-88 123,-171 190,-252 104,-122 217,-235 334,-344 148,-137 304,-267 463,-394 186,-149 361,-286 558,-394 211,-118 434,-209 663,-273 234,-65 474,-103 712,-110 232,-7 462,15 682,64 204,47 397,118 575,212 154,83 296,182 431,298 106,92 204,191 293,297 40,48 76,101 114,150 65,80 122,162 181,246 34,49 66,99 98,150 90,148 165,306 226,468 74,199 125,405 149,613 26,206 24,414 -2,616 -21,162 -56,316 -112,473 -20,60 -45,119 -69,179 -38,109 -85,217 -135,326 -51,118 -113,233 -181,347 -87,149 -187,294 -296,435 -126,167 -266,327 -416,482 -163,169 -336,333 -516,492 -189,170 -369,307 -582,449 -207,138 -424,272 -639,415 -204,135 -407,279 -593,447 -166,150 -318,321 -431,517 -94,160 -156,338 -185,517 -21,129 -25,259 -15,386 3,66 15,131 24,196l3 18z"/>
  <path class="fil0" d="M6502 12494l5 -7c40,-51 86,-99 120,-155 82,-115 143,-244 197,-377 73,-191 119,-394 143,-600 29,-253 25,-511 -5,-767 -35,-290 -106,-578 -207,-854 -108,-296 -252,-582 -426,-850 -175,-271 -380,-522 -599,-755 -213,-224 -439,-432 -670,-627 -211,-179 -426,-348 -640,-512 -182,-140 -364,-277 -541,-413 -136,-104 -270,-208 -400,-312 -132,-106 -256,-216 -390,-306 -65,-42 -125,-90 -186,-136 -165,-126 -321,-256 -464,-392 -179,-169 -337,-347 -471,-536 -135,-189 -247,-389 -334,-601 -73,-177 -125,-347 -154,-512 -24,-133 -28,-269 -43,-406 -10,-97 -15,-197 -14,-297 3,-149 20,-300 51,-451 38,-188 99,-375 180,-556 93,-205 212,-402 356,-582 154,-193 341,-368 543,-509 207,-142 444,-252 699,-320 249,-68 514,-98 782,-90 248,6 500,44 745,114 213,60 422,144 620,251 156,85 306,184 447,297 93,73 179,155 263,241l87 95 -69 -112c-69,-102 -141,-203 -223,-296 -123,-144 -261,-277 -410,-397 -190,-154 -400,-284 -622,-394 -256,-125 -531,-221 -817,-280 -309,-64 -631,-84 -957,-56 -332,32 -669,116 -985,264 -306,141 -586,328 -840,552 -235,207 -446,445 -625,709 -156,229 -287,478 -393,740 -82,208 -147,424 -192,648 -55,269 -80,549 -51,822 10,101 24,201 43,300 55,296 146,568 254,823 133,317 307,618 508,892 198,271 422,517 658,736 186,174 380,332 575,480 74,56 147,114 224,164 141,90 282,175 427,253 155,83 310,162 463,239 200,101 398,199 593,297 228,115 451,230 668,351 237,133 467,272 683,424 225,158 436,332 628,525 190,191 361,402 505,633 137,219 254,454 338,701 76,221 130,452 153,687 20,194 19,392 -10,587 -19,141 -58,279 -112,413 -27,69 -61,135 -98,201l-10 19z"/>
 </g>
</svg>
