<?xml version="1.0" encoding="UTF-8"?>
<!DOCTYPE svg PUBLIC "-//W3C//DTD SVG 1.1//EN" "http://www.w3.org/Graphics/SVG/1.1/DTD/svg11.dtd">
<!-- Creator: CorelDRAW X8 -->
<svg xmlns="http://www.w3.org/2000/svg" xml:space="preserve" width="14.2222in" height="13.7345in" version="1.1" style="shape-rendering:geometricPrecision; text-rendering:geometricPrecision; image-rendering:optimizeQuality; fill-rule:evenodd; clip-rule:evenodd"
viewBox="0 0 3140 3033"
 xmlns:xlink="http://www.w3.org/1999/xlink">
 <defs>
  <style type="text/css">
   <![CDATA[
    .fil6 {fill:#006954;fill-rule:nonzero}
    .fil5 {fill:#00A59C;fill-rule:nonzero}
    .fil0 {fill:#211D1F;fill-rule:nonzero}
    .fil1 {fill:#901A23;fill-rule:nonzero}
    .fil4 {fill:#9C1123;fill-rule:nonzero}
    .fil8 {fill:#B8E2D3;fill-rule:nonzero}
    .fil15 {fill:#CC0000;fill-rule:nonzero}
    .fil2 {fill:#EB1A23;fill-rule:nonzero}
    .fil3 {fill:#EBB823;fill-rule:nonzero}
    .fil16 {fill:red;fill-rule:nonzero}
    .fil10 {fill:#FF2A00;fill-rule:nonzero}
    .fil12 {fill:#FF2F00;fill-rule:nonzero}
    .fil14 {fill:#FF3300;fill-rule:nonzero}
    .fil13 {fill:#FF5D00;fill-rule:nonzero}
    .fil11 {fill:#FF7200;fill-rule:nonzero}
    .fil9 {fill:#FF955B;fill-rule:nonzero}
    .fil17 {fill:yellow;fill-rule:nonzero}
    .fil7 {fill:white;fill-rule:nonzero}
   ]]>
  </style>
 </defs>
 <g id="å_x203a__x00be_å_x00b1__x201a__x0020_1">
  <metadata id="CorelCorpID_0Corel-Layer"/>
  <path class="fil0" d="M3035 353c-5,5 -9,11 -11,18 -1,7 5,13 10,18 3,4 16,-5 13,-8 -4,-4 -8,-8 -9,-13 -1,-5 4,-10 7,-13 2,-2 4,-5 0,-6 -3,0 -7,2 -10,4z"/>
  <path class="fil1" d="M1706 1939c-1,-1 -1,-2 -2,-2 -1,-3 -1,-6 -2,-9 0,-7 -3,-14 -6,-21 -5,-16 -10,-31 -15,-47 -5,-13 -9,-27 -14,-40 -4,-13 -6,-28 -10,-41 -14,-48 -45,-92 -77,-131 -8,-9 -17,-17 -25,-26 -6,-4 -11,-9 -17,-12 -8,-6 -7,-6 -13,-13 -17,-19 -37,-34 -59,-47 -26,-17 -54,-31 -83,-40 -21,-6 -43,-11 -64,-16 -29,-12 -59,-20 -89,-26 -7,-4 -14,-7 -20,-11 -10,-7 -18,-17 -29,-24 -23,-14 -47,-27 -72,-38 -10,-5 -22,-8 -31,-14 -10,-7 -18,-16 -25,-26 -16,-20 -31,-42 -44,-64 -13,-22 -25,-45 -33,-70 -9,-27 -9,-55 -10,-83 -2,-28 -8,-60 4,-86 5,-12 9,-24 15,-35 6,-13 7,-25 16,-36 2,-2 4,-3 7,-5 2,-1 5,-2 6,-2 8,0 19,-1 20,-6 1,-7 -21,-13 -24,-14 -37,-12 -81,-19 -120,-17 -20,0 -45,2 -59,18 -5,7 -8,13 -11,22 -3,11 -8,21 -13,32 -3,9 -7,17 -11,26 -4,8 -2,22 -2,30 -1,23 2,45 2,68 1,41 13,79 33,115 19,35 42,71 68,101 28,33 76,39 110,64 8,6 16,8 23,15 9,7 18,15 28,20 11,6 21,11 32,16 20,10 43,14 65,19 2,0 6,1 7,1 1,1 2,1 3,1 0,0 1,0 1,0 1,1 3,1 3,1 1,0 2,1 3,1 8,3 14,7 22,9 22,7 46,12 69,17 4,2 8,4 12,6 9,4 18,9 26,14 19,12 39,24 54,41 3,5 7,9 11,14 4,5 10,7 15,11 12,8 22,19 31,29 18,20 32,44 49,66 8,15 15,30 22,46 7,20 10,41 16,61 7,21 15,43 22,64 4,11 7,23 11,35 1,3 1,7 2,11 1,4 4,8 7,11 7,8 29,12 38,14 21,6 43,9 65,11 5,1 73,6 62,-8z"/>
  <path class="fil2" d="M1786 1656c0,0 0,1 0,1 3,-2 2,-2 0,-1z"/>
  <path class="fil2" d="M2420 813c-2,-47 -21,-96 -40,-139 -3,-9 -8,-17 -14,-25 -5,-7 -11,-14 -16,-21 -1,-2 -12,-15 -6,-6 -8,-11 -16,-21 -25,-31 -14,-15 -35,-22 -53,-30 -9,-4 -19,-5 -29,-6 -1,0 -1,-1 -1,-1 6,0 -8,-4 -3,-1 -2,-1 -5,-2 -7,-4 -18,-9 -34,-20 -52,-28 -27,-12 -50,-16 -79,-17 -1,0 -2,0 -2,0 -5,-1 -9,-3 -13,-4 -5,-2 -9,-3 -13,-5 -12,-5 -30,-3 -42,0 -4,1 -8,2 -12,3 0,0 0,0 0,0 -13,1 -25,2 -37,4 -5,1 -10,2 -15,3 19,-5 -9,2 -16,3 -3,0 -6,1 -9,2 2,-1 -20,4 -25,5 -21,6 -40,17 -59,27 -1,1 -4,2 -7,3 -2,1 -5,2 -8,3 -11,3 -22,6 -33,9 -10,3 -20,5 -29,8 -18,6 -31,14 -45,26 0,0 0,1 0,1 -1,0 -2,1 -3,2 -4,2 -8,5 -12,7 -14,9 -26,19 -37,31 -16,15 -31,31 -47,46 -19,19 -32,45 -44,69 -21,42 -32,87 -46,131 -3,9 -6,19 -8,28 -10,17 -15,35 -17,55 0,6 0,12 1,17 -2,2 -4,4 -7,5 0,0 0,0 0,0 -4,4 -8,7 -12,11 -17,14 -34,29 -50,45 13,-24 24,-48 25,-78 2,-39 -43,-77 -81,-62 -22,9 -40,19 -58,30 2,-7 3,-15 4,-23 2,-22 -13,-45 -32,-55 -15,-9 -31,-11 -46,-7 -11,-3 -23,-4 -34,0 -30,11 -56,28 -81,47 -10,-7 -22,-11 -34,-12 -1,-44 -57,-82 -97,-53 -14,11 -28,22 -41,35 -3,1 -6,3 -8,6 -19,15 -34,34 -48,54 -12,14 -24,28 -36,42 -41,51 -89,97 -131,149 0,0 0,0 0,0 0,0 0,0 0,0 -3,4 -7,9 -10,13 -18,23 -9,60 10,78 5,5 10,9 15,11 -12,33 -13,69 -7,104 2,12 11,22 17,32 8,11 15,22 24,32 4,3 7,7 11,10 0,1 5,6 6,8 7,9 12,19 18,29 6,13 14,23 23,34 -10,-13 -1,0 1,3 5,7 10,13 16,20 4,4 8,7 12,11 1,6 3,12 7,18 16,27 44,35 73,30 2,-1 4,-1 6,-2 11,5 22,9 33,13 11,3 21,7 32,10 5,2 11,4 16,6 2,0 16,6 15,6 8,3 15,7 23,10 3,1 12,4 8,3 9,4 19,8 29,11 5,2 9,3 14,3 6,1 11,2 17,3 -1,0 -1,0 -2,-1 1,1 3,1 4,2 -4,14 -3,31 2,44 11,33 43,56 79,45 26,-8 50,-23 71,-42 1,1 3,2 4,2 4,3 8,6 11,8 1,0 1,0 1,0 0,1 1,1 1,2 7,5 14,10 21,15 -1,12 -1,25 2,38 5,26 35,49 62,47 17,-1 33,-6 48,-13 1,2 3,4 5,6 -4,11 -6,22 -7,35 -2,27 21,56 47,62 23,5 43,1 61,-7 2,0 4,1 6,1 5,3 10,5 16,8 13,5 33,4 46,-1 51,-20 78,-71 103,-116 11,-21 22,-42 33,-62 4,-8 8,-16 12,-23 1,-1 1,-1 1,-1 -1,0 -1,1 -2,2 1,-1 2,-2 2,-3 2,-2 3,-4 4,-6 9,-11 14,-23 14,-37 3,2 5,4 8,5 31,18 69,6 88,-23 6,-9 12,-18 18,-26 0,-1 3,-5 5,-7 3,-3 5,-7 8,-10 15,-18 31,-35 47,-52 32,-34 64,-68 97,-102 16,-16 32,-32 49,-48 3,-3 7,-7 10,-10 1,0 1,0 1,0 1,-1 1,-1 1,-1 15,-10 26,-21 37,-34 15,-17 29,-34 42,-51 16,-21 34,-42 48,-64 12,-18 24,-35 35,-52 13,-21 23,-43 35,-64 10,-18 20,-37 31,-55 13,-22 22,-46 31,-70 15,-43 27,-90 25,-136zm-637 846l0 0c-3,2 -6,5 -11,8 5,-4 10,-8 14,-12 -1,2 -2,3 -3,4zm462 -691l0 0c-5,8 -9,16 -14,24 -1,-2 -1,-4 -2,-7 0,-1 1,-2 2,-3 0,0 0,0 0,-1 0,0 0,0 0,0 0,0 1,0 1,0 6,-7 12,-14 18,-21 -2,3 -3,5 -5,8zm46 -126l0 0c0,1 -1,2 -1,3 -1,5 -2,10 -3,15 -2,10 -5,20 -8,30 -7,21 -15,42 -23,62 2,-4 3,-6 2,-7 13,-28 4,-62 -21,-79 11,-19 12,-42 2,-62 2,-2 3,-4 4,-6 14,-26 11,-58 -10,-78 -19,-20 -46,-23 -69,-14 -11,-15 -29,-26 -50,-24 -5,1 -10,2 -15,3 -5,-8 -12,-14 -20,-18 -12,-8 -26,-10 -39,-9 4,-11 4,-23 2,-34 0,0 1,0 1,0 2,0 3,1 5,1 14,2 27,6 42,7 4,1 9,1 14,1 2,0 4,0 4,0 1,0 2,1 3,1 2,0 6,2 8,3 2,1 4,2 6,3 8,4 16,9 23,14 25,14 52,27 80,28 -18,0 -6,0 -1,2 0,0 0,0 0,0 1,0 2,1 4,2 0,0 1,0 1,0 2,2 5,6 6,7 5,8 11,15 17,22 1,0 1,1 2,2 0,0 0,1 1,1 2,4 5,9 7,13 1,2 2,4 3,7 7,18 12,37 19,55 1,4 2,9 4,13 0,1 0,3 0,5 1,10 1,21 0,31z"/>
  <path class="fil3" d="M1605 1969c-2,-3 -4,-5 -7,-7 -11,-10 -22,-17 -34,-22 9,-11 15,-26 15,-40 0,-34 -27,-58 -59,-60 0,0 -1,0 -2,0 -5,-2 -9,-3 -14,-5 22,8 -22,-9 -12,-5 13,4 -2,-2 -4,-3 -9,-4 -17,-10 -26,-14 -6,-2 -9,-4 -12,-5 -3,-1 -7,-3 -12,-5 -7,-3 -14,-5 -21,-6 -14,-3 -28,-4 -42,-4 -9,1 -18,3 -27,4 0,0 -1,0 -1,0 -1,0 -2,0 -3,0 -26,0 -51,2 -76,6 -1,0 -2,0 -3,0 -5,0 -10,0 -14,1 -14,0 -28,2 -41,4 -10,2 -20,6 -30,8 -13,2 -26,4 -39,8 -28,8 -49,35 -66,57 -14,19 -25,43 -32,66 -7,21 -7,45 -7,68 0,30 13,54 36,73 12,10 22,16 38,21 8,3 16,3 24,4 2,0 11,1 10,0 7,2 15,4 22,5 20,3 36,3 56,-1 22,-4 43,-11 63,-20 14,-5 27,-11 40,-19 5,-2 10,-5 15,-8 3,-1 6,-3 9,-4 0,-1 0,-1 1,-1 2,-1 6,-1 8,-1 5,0 9,0 13,0l32 0c13,0 26,-1 38,-2 -5,10 -9,20 -12,30 -4,17 -10,34 -15,51 4,-9 3,-6 -4,10 -3,8 -4,16 -5,26 -1,11 1,23 3,34 0,2 1,9 2,14 -2,4 -3,9 -3,14 -3,15 -3,27 0,43 1,3 2,6 3,9 -1,-2 2,15 4,19 2,7 4,13 6,20 1,2 1,4 2,6 -1,-5 0,7 1,10 0,32 26,59 59,59l6 0c33,0 60,-27 60,-59 0,-12 -3,-22 -9,-32 -1,-7 -3,-13 -5,-20 -1,-5 -3,-10 -5,-15 1,11 0,8 -2,-10 0,-4 -1,-8 -2,-12 2,-9 4,-18 5,-28 1,-10 -2,-21 -4,-31 0,-3 -1,-6 -1,-9 0,-1 0,-1 0,-1 -1,-1 -1,-1 -1,-2 0,-1 0,-1 0,-1 1,-2 2,-5 4,-8 2,-7 4,-14 7,-21 2,-6 4,-13 5,-19 1,-3 2,-7 3,-10 1,-3 1,-5 1,-5 1,-1 1,-1 1,-2 8,-15 16,-30 24,-44 1,-2 2,-4 3,-6 1,-1 1,-1 2,-2 1,-1 1,-1 1,-1 21,-5 39,-22 45,-43 6,-22 -1,-42 -15,-57zm-81 219l0 0c0,1 0,1 0,2 0,0 0,0 0,0 -4,6 -4,6 0,-2zm-106 -244l0 0 -53 0c-30,0 -54,7 -81,20 -10,5 -20,11 -29,17 -1,0 -12,5 -10,5 -6,2 -12,4 -18,6 -10,3 -21,6 -31,8 -2,1 -3,1 -4,1 0,0 0,0 -1,0 0,0 0,0 -1,0 0,0 -1,0 -2,0 -10,-2 -21,-5 -32,-6 0,-3 0,-6 0,-9 0,0 0,0 0,0 0,-1 1,-2 1,-3 1,-5 3,-10 4,-14 -4,11 2,-3 3,-5 3,-5 6,-10 9,-15 1,-1 2,-3 3,-4 3,-3 5,-6 8,-8 0,-1 1,-1 1,-1 3,-1 7,-2 10,-2 11,-2 22,-4 33,-7 3,-1 6,-2 8,-2 -1,0 12,-2 15,-2 13,-1 26,1 39,-2 2,-1 5,-2 8,-2 -1,0 9,-1 10,-1 11,-1 21,-1 31,-1 5,0 10,0 15,0 -4,0 20,-4 24,-4 3,0 6,0 9,0 -6,0 6,1 8,1 2,1 3,1 4,2 3,1 7,2 12,5 -12,-5 2,1 4,2 9,5 17,10 26,14l5 2c-6,2 -12,3 -19,5 5,-1 -5,0 -9,0z"/>
  <path class="fil3" d="M1450 1808c16,6 -15,-7 0,0z"/>
  <path class="fil3" d="M2286 1727c-8,-16 -23,-28 -37,-38 -7,-3 -11,-5 -13,-6 -2,-1 -4,-2 -6,-3 -8,-4 -17,-8 -27,-12 -13,-5 -27,-6 -42,-6l-22 0c18,0 4,-1 -3,-3 -27,-8 -58,-1 -85,10 -12,2 -24,4 -36,6 16,-3 -7,0 -10,0 -13,0 -25,3 -37,5 -19,4 -37,11 -55,19 -7,3 -13,6 -20,9 -3,1 -6,3 -9,4 -3,2 -18,6 -5,2 -31,9 -61,22 -90,36 -4,2 -9,6 -13,9 -5,4 -11,8 -16,12 0,0 -1,1 -1,1 -1,0 -2,1 -3,2 -7,5 -15,10 -21,16 -5,2 -9,4 -13,7 -21,9 -36,28 -36,54 0,32 27,60 60,60 14,-1 26,-4 37,-11 10,-4 19,-10 28,-18 2,-2 4,-3 6,-5 -11,11 1,-1 4,-3 5,-4 10,-8 16,-12 0,-1 1,-1 3,-2 6,-5 12,-8 19,-11 3,-1 6,-3 9,-4 1,-1 1,-1 2,-1 1,0 2,-1 3,-1 18,-8 39,-12 57,-20 6,-4 12,-7 19,-10 3,-1 6,-3 9,-4 1,-1 7,-3 9,-4 7,-3 15,-5 22,-7 3,-1 7,-2 10,-3 2,0 2,0 3,0 1,0 2,-1 3,-1 18,-1 36,-3 55,-6 0,0 1,0 5,0 11,-1 20,-4 29,-8 1,0 2,0 4,-1 4,-1 7,-2 11,-3 10,3 19,5 30,6 5,0 11,0 17,0 -6,2 -11,5 -17,7 -15,7 -28,17 -42,26 -3,2 -6,3 -10,5 -1,1 -2,1 -3,2 -1,0 -2,0 -3,1 -8,3 -16,6 -25,9 -12,3 -23,6 -34,9 -3,1 -6,1 -9,2 -4,2 -17,4 -4,3 0,0 0,0 0,0 -32,3 -59,26 -59,60 0,31 27,62 60,60 8,-1 17,-2 25,-4 5,-1 21,-5 -1,-2 6,-1 11,-2 16,-3 17,-7 19,-8 8,-3 5,-1 10,-2 16,-4 29,-6 58,-17 84,-32 10,-6 19,-13 29,-19 2,-1 12,-5 12,-6 5,-1 10,-3 14,-4 31,-11 58,-31 72,-60 17,-34 17,-68 1,-102z"/>
  <path class="fil3" d="M2117 2168c-3,-12 -6,-23 -9,-34 -6,-17 -12,-37 -25,-50 -4,-3 -8,-7 -12,-10 -3,-2 -17,-17 -7,-4 -9,-12 -18,-23 -29,-33l-10 -10c10,10 -1,-2 -3,-6 -7,-11 -16,-22 -25,-33 -9,-11 -21,-20 -33,-27 12,7 0,-1 -2,-3 -7,-6 -15,-11 -22,-17 -20,-14 -45,-26 -69,-30 -15,-3 -30,-4 -45,-4 -9,0 -17,2 -25,4 -4,1 -21,4 -6,3 -32,2 -60,25 -60,59 0,31 28,62 60,60 13,-1 25,-3 37,-7 -13,4 -1,1 4,1 3,0 6,0 9,0 -4,0 1,1 5,2 1,0 7,2 8,3 4,2 8,4 11,6 2,1 9,6 10,6 8,7 16,15 25,20 0,0 1,1 1,1 1,0 1,0 2,1 1,1 7,8 6,7 12,16 23,33 38,48l9 10c2,2 3,3 3,3 9,11 17,19 27,28 0,0 1,0 1,0 1,3 2,6 3,8 3,11 6,23 9,34 1,5 2,9 3,14 1,1 1,2 1,3 0,0 0,0 0,1 1,10 1,21 1,32 -1,23 -3,46 -3,69 0,33 28,60 60,60 33,0 60,-27 60,-60 0,-25 2,-50 3,-75 0,-27 -4,-54 -11,-80z"/>
  <path class="fil4" d="M2142 860c0,0 -1,0 -1,-1 0,0 0,0 1,1z"/>
  <path class="fil4" d="M2309 961c-1,-11 -2,-22 -6,-33 0,-1 -1,-2 -1,-4 -1,-2 -1,-5 -1,-9 -2,-6 -3,-11 -5,-17 -1,-8 -3,-16 -5,-24 -1,-6 -9,-30 -4,-13 -2,-8 -7,-17 -10,-24 -9,-20 -23,-39 -40,-53 -5,-5 -10,-9 -15,-13 -1,0 -1,0 -1,0 0,0 0,0 0,0 -7,-6 -12,-12 -18,-18 -7,-8 -16,-14 -25,-20 -6,-5 -15,-8 -21,-10 -2,-1 -3,-1 -4,-2 10,5 8,4 -8,-3 -19,-6 -38,-8 -57,-14 -23,-8 -44,-17 -69,-17l-29 0c-4,0 -7,0 -10,0 -2,0 -5,0 -7,0 -17,0 -31,7 -41,17 -15,11 -25,30 -25,49 0,32 27,60 60,60 12,-1 22,-3 32,-7l20 0c16,6 32,11 49,17 7,2 14,4 21,5 4,1 7,1 10,2 3,0 11,3 10,2 2,1 4,2 7,3 0,0 0,0 0,0 3,3 6,6 8,8 4,4 8,8 12,12 2,2 3,3 5,4 1,1 9,8 14,11 4,4 8,8 12,12 -10,-11 6,16 4,8 3,9 11,33 5,16 3,7 3,16 5,24 1,4 2,7 3,11 -1,-11 0,-7 2,11 0,3 4,25 3,9 2,33 26,60 60,60 31,0 62,-27 60,-60z"/>
  <path class="fil4" d="M1679 1592c0,0 0,0 0,-1 2,-1 2,-2 0,1z"/>
  <path class="fil4" d="M2396 1029c-23,-22 -62,-23 -85,0 -15,16 -30,34 -40,53 -7,12 -12,25 -16,37 -3,10 0,4 1,2 0,1 -1,2 -2,4 -3,7 -6,14 -10,20 -9,19 -21,38 -32,56 -6,9 -12,17 -18,26 -1,2 -2,3 -2,4 0,0 0,0 -1,0 -4,6 -8,10 -13,15 -7,7 -15,14 -22,21 -3,2 -6,5 -9,7 4,-4 -6,5 -7,5 -18,13 -36,26 -54,39 -38,26 -78,49 -119,70 -18,9 -35,19 -53,28 -21,10 -42,19 -62,32 -20,13 -38,28 -58,41 -22,14 -43,31 -63,48 -15,13 -29,28 -43,43 -3,4 -6,8 -9,11 -4,6 -18,25 -10,13 -10,13 -20,27 -29,40 -1,1 -2,2 -2,4 -3,-1 -5,-2 -7,-3 -2,-6 -3,-12 -5,-19 -9,-28 -36,-47 -65,-43l0 -51c0,-33 -28,-60 -60,-60 -9,0 -18,2 -25,6 -2,-6 -3,-11 -5,-16 -6,-27 -11,-51 -23,-77 -14,-29 -55,-37 -82,-21 -1,0 -2,1 -4,2 -1,-2 -2,-5 -3,-7 0,0 0,0 0,0 -4,-9 -7,-18 -11,-27 -5,-11 -10,-22 -16,-33 -16,-28 -55,-37 -82,-21 -23,13 -33,38 -29,62 -1,-1 -2,-3 -2,-5 -2,-1 -2,-3 -3,-5 -1,-1 -1,-2 -1,-3 -3,-8 -5,-16 -7,-24 -4,-15 -7,-30 -11,-45 -10,-31 -42,-50 -74,-41 -20,5 -36,21 -42,41 -11,-20 -24,-40 -35,-61 0,-1 -4,-8 -5,-9 -1,-4 -2,-8 -3,-11 -2,-5 -3,-11 -4,-16 0,0 -1,-1 -1,-1 0,-3 0,-6 0,-8 -1,-33 -27,-60 -60,-60 -8,0 -17,2 -24,5 -1,-6 -2,-11 -3,-17 2,12 1,-10 1,-12 0,-6 1,-12 1,-17 0,-3 1,-5 1,-7 0,0 0,-2 1,-6 0,-3 2,-12 3,-17 1,-3 1,-4 1,-4 1,-3 2,-5 3,-7 9,-16 10,-35 5,-51 2,-1 4,-3 6,-5 0,0 0,-1 1,-1 0,0 1,-1 3,-2 3,-2 6,-4 10,-6 15,-1 31,2 46,3 33,0 60,-28 60,-60 0,-33 -27,-59 -60,-60 -17,0 -34,-3 -51,-3 -29,1 -52,12 -74,29 -17,13 -33,28 -50,42 -18,14 -34,30 -46,50 -24,39 -48,78 -61,122 -16,53 -9,109 16,158 4,7 8,14 12,21 0,0 3,8 4,10 3,7 6,15 10,23 4,9 9,19 15,29 -6,13 -9,28 -4,42 13,40 42,68 78,88 28,16 58,31 87,46 43,20 86,33 132,40 19,3 38,4 56,10 2,1 14,5 18,7 -15,-6 -1,0 2,1 9,4 17,9 26,14 22,12 45,19 69,26 5,2 10,3 15,5 1,0 7,3 9,3 6,4 13,8 19,12 -3,-2 7,6 8,7 7,5 13,10 20,15 5,3 9,6 13,9 1,0 2,1 3,1 0,1 1,2 2,2 17,16 34,30 54,43 1,1 13,10 3,2 4,3 8,6 12,10 9,7 17,14 25,21 17,15 33,30 49,46 3,4 7,8 11,12 0,0 1,1 2,3 4,8 9,16 13,24 4,9 8,18 13,27 -14,46 -17,97 -17,142 0,33 27,60 59,60 33,0 60,-27 60,-60 0,-19 1,-39 3,-58 1,-2 2,-10 2,-11 0,-1 0,-3 1,-4 22,-9 39,-31 37,-56 0,-8 -1,-16 -3,-24 -1,-2 -2,-4 -3,-6 0,-1 0,-1 0,-1 2,-2 3,-5 5,-7 13,-19 25,-39 38,-59 11,-19 23,-37 36,-55 2,-1 3,-3 4,-4 -5,7 -3,3 7,-10 1,-1 2,-2 2,-3 0,0 1,0 1,0 7,-10 15,-18 23,-27 8,-7 15,-14 23,-21 4,-3 8,-7 12,-10 1,0 1,-1 2,-1 1,-1 2,-2 3,-2 19,-15 40,-28 60,-43 35,-26 76,-44 115,-64 41,-20 82,-43 121,-68 38,-25 76,-52 111,-82 36,-30 62,-68 86,-108 7,-11 13,-22 19,-33 8,-14 19,-33 23,-49 1,-5 3,-11 5,-16 -2,6 4,-9 6,-11 1,-2 3,-5 5,-7 3,-5 7,-9 12,-13 22,-23 23,-61 0,-85z"/>
  <path class="fil5" d="M2091 2629c0,-1 0,-1 0,-1 -1,-1 -1,-1 0,1z"/>
  <path class="fil5" d="M2399 1773c-9,-30 -43,-51 -74,-41 -35,11 -55,38 -72,68 -3,5 -7,10 -10,15 -4,6 -8,11 -12,17 -10,16 -17,34 -27,50 -15,23 -9,53 9,72 -5,-3 -10,-6 -16,-8 -19,-7 -37,-2 -52,8 -5,-3 -11,-7 -16,-10 -25,-16 -52,-25 -81,-32 -14,-3 -31,-6 -46,-4 -9,1 -18,3 -27,5 -1,0 -3,0 -4,0 -1,0 -2,0 -4,1 -33,1 -60,26 -60,59 0,32 27,61 60,60 15,0 29,-3 44,-6 1,0 2,0 3,0 1,0 2,0 3,1 11,2 21,5 32,9 4,1 8,3 12,4 0,0 1,0 2,1 0,0 0,0 0,0 -1,0 -3,-1 -5,-1 2,1 3,1 4,2 -1,5 -2,11 -2,16 1,11 2,23 5,34 1,5 2,22 2,3 0,17 8,31 15,46 0,0 4,9 5,10 1,4 3,8 4,13 7,17 13,34 19,52 4,12 9,23 15,35 2,3 3,7 5,11 -1,-3 4,9 4,10 7,18 13,36 18,54 3,8 5,16 7,24 -1,-1 -2,-2 -3,-3 -22,-22 -63,-24 -84,0 -20,23 -29,48 -30,78 -1,24 8,50 12,74 9,39 17,79 33,116 1,4 2,8 4,12 0,2 3,9 5,13 1,5 2,12 1,3 0,0 0,0 0,0 3,32 27,58 60,58 21,0 42,-13 53,-31 0,0 1,0 2,0 33,0 59,-27 60,-60 0,-3 0,-7 0,-10 -1,14 1,-2 2,-4 0,-1 0,-1 0,-2 21,6 45,0 60,-15 21,-21 22,-49 9,-72 -1,-3 -1,-6 -1,-9 1,10 -3,-36 -3,-16 0,-8 -1,-15 -2,-23 -1,-11 -2,-22 -3,-34 -2,-17 -5,-33 -10,-50 -7,-25 -11,-50 -15,-76 -4,-24 -13,-47 -19,-71 -8,-37 -14,-74 -23,-110 23,-18 30,-52 15,-78 -10,-17 -25,-30 -41,-41 -1,-14 -7,-27 -17,-37 0,0 1,0 1,1 29,17 64,6 82,-22 8,-13 14,-26 22,-40 1,-3 3,-7 5,-10 0,0 0,1 -1,1 5,-6 10,-13 15,-19 6,-9 10,-18 16,-27 0,-1 1,-2 3,-4 25,-13 40,-41 32,-70zm-226 626l0 0c7,20 15,40 21,61 -9,7 -16,17 -20,28 -2,-12 -5,-24 -8,-36 -1,-6 -2,-12 -3,-17 0,-2 -1,-7 -1,-10 6,-8 9,-17 11,-26z"/>
  <path class="fil5" d="M2153 2630c3,6 3,5 1,-1 -1,-6 -3,-11 -5,-16 -7,-15 -8,-19 -3,-11 -2,-6 -3,-11 -4,-17 -5,-17 -10,-34 -15,-50 -2,-9 -4,-18 -6,-27 -1,-2 -1,-4 -1,-5 0,-3 0,-7 -1,-11 0,-3 0,-7 1,-10 0,-1 0,-2 0,-3 0,-1 0,-1 0,-2 2,-10 5,-19 9,-28 12,-30 -13,-65 -42,-73 -34,-10 -61,11 -74,41 -6,17 -10,33 -12,50 -10,-42 -16,-86 -31,-127 -5,-13 -12,-25 -14,-38 -2,-13 -5,-25 -9,-37 -6,-25 -15,-50 -26,-74 -11,-28 -24,-55 -37,-82 -2,-2 -4,-5 -6,-7 -1,-4 -2,-9 -3,-13 -1,-5 -2,-10 -4,-14 1,-5 2,-10 2,-16 3,-32 -29,-60 -59,-60 -18,0 -33,8 -43,19 -10,-3 -21,-5 -31,-6 -33,-3 -60,29 -60,60 0,22 11,39 28,49 1,3 2,6 4,8 5,13 12,26 18,39 3,6 6,12 9,18 1,3 2,5 3,7 2,5 12,28 8,19 3,7 6,14 9,21 -2,-5 -2,-5 1,2 2,5 4,10 6,16 27,66 45,136 77,200 1,3 3,5 4,8 0,1 1,2 1,3 2,6 4,12 5,18 2,6 3,13 5,19 0,8 0,15 2,24 9,35 18,71 27,106 8,33 14,65 22,98 1,7 3,14 5,21 2,4 3,7 4,10 0,2 1,4 2,5 -1,-13 0,-10 2,9 2,8 5,15 9,23 1,4 1,12 1,2 0,1 0,1 0,1 3,31 26,57 59,57 32,0 62,-27 60,-60 0,-10 -2,-20 -4,-29 -1,-3 -2,-6 -3,-9 1,4 -2,-5 -5,-11 -1,-2 -1,-3 -1,-3 -1,-5 -2,-9 -4,-14 19,6 40,3 57,-10 14,2 29,0 41,-7 31,-18 34,-52 21,-82z"/>
  <path class="fil5" d="M1661 2220c-1,-5 -2,-9 -2,-14 2,16 0,2 0,-1 -2,-22 0,-44 0,-66 0,-33 -28,-60 -60,-60 -33,0 -60,27 -60,60l0 61c0,13 2,25 4,38 0,1 1,5 1,8 1,5 1,10 1,16 1,32 27,59 60,59 32,0 60,-27 60,-59 0,-14 -2,-28 -4,-42z"/>
  <path class="fil5" d="M1389 2954c1,3 2,3 0,0z"/>
  <path class="fil5" d="M1781 2824c-1,-2 -1,-3 -1,-5 -2,-8 -4,-15 -6,-22 -6,-61 -7,-122 -15,-183 -4,-36 -10,-72 -20,-107 -3,-14 -9,-28 -13,-42 -2,-6 -3,-13 -5,-19 0,-2 0,-3 0,-4 0,3 -1,-6 -1,-9 -1,-32 -27,-59 -60,-59 -1,0 -3,0 -4,0 -3,-10 -7,-18 -15,-26 -23,-23 -62,-23 -84,0 -21,21 -29,50 -21,77 -5,-1 -11,-2 -17,-2 -29,0 -54,21 -59,49 -5,-9 -10,-19 -14,-29 -1,-1 -1,-1 -1,-2 -1,-3 -2,-6 -4,-9 -3,-9 -4,-17 -7,-26 -3,-8 -4,-17 -6,-26 0,-2 -1,-4 -1,-6 0,1 -1,-9 -1,-10 -5,-39 -9,-78 -19,-116 -5,-19 -9,-38 -13,-58 -1,-4 -2,-7 -3,-11 0,-1 -2,-11 -2,-11 0,-8 0,-15 0,-23 0,-32 -27,-60 -60,-60 -33,0 -60,28 -60,60 0,40 9,79 19,118 4,19 9,38 13,58 0,2 1,3 1,5 0,1 1,9 1,11 1,9 2,18 3,27 4,39 11,78 26,115 1,2 2,4 3,6 -11,11 -17,25 -17,40 1,37 7,73 13,109 1,7 1,8 0,1 0,3 0,7 0,10 0,9 1,18 2,27 1,20 4,41 7,61 4,33 10,66 15,99 2,16 5,32 7,48 1,5 3,10 5,15 0,1 1,3 2,6 2,7 4,13 7,20 1,8 3,14 7,22 1,2 2,5 4,7 1,2 2,3 2,4 -1,-3 -2,-9 -3,-18 3,33 24,60 60,60 10,0 22,-3 32,-10 2,6 5,12 8,17 14,29 55,37 82,22 29,-18 36,-53 21,-82 -1,-2 -2,-5 -3,-7 0,0 -1,-2 -2,-5 0,-2 0,-6 -1,-11 -2,-5 -3,-10 -4,-15 -1,-4 -2,-9 -3,-13 11,15 28,24 47,24 16,0 30,-6 41,-16 7,3 16,4 24,4 6,7 13,13 22,16 30,14 64,10 82,-21 13,-22 9,-58 -11,-75zm-260 -132l0 0c1,3 2,5 3,7 3,6 3,7 1,1 1,4 2,8 3,12 -2,-7 -5,-13 -7,-20z"/>
  <path class="fil6" d="M2426 2541c11,-5 20,-15 26,-25 6,-10 10,-21 10,-34 0,-27 -5,-55 -11,-82 0,-8 -2,-15 -6,-22 -4,-18 -10,-36 -14,-54 -1,-20 0,-39 -3,-60 0,-1 0,-2 0,-2 0,-1 0,-3 -1,-6 -1,-8 -1,-16 -2,-24 -2,-16 -3,-32 -4,-47 -3,-30 -5,-60 -8,-90 -3,-33 -9,-65 -15,-97 -2,-13 -4,-26 -7,-39 -1,-7 -2,-14 -3,-20 1,5 -1,-13 -2,-15 -2,-25 -2,-49 -4,-74 0,-7 -1,-15 -1,-23 0,-1 0,-2 0,-4 10,-17 11,-38 -1,-58 -15,-26 -54,-39 -81,-21 -18,12 -28,27 -33,44 -8,5 -15,12 -20,20 -5,9 -8,22 -8,34 0,0 -1,0 -1,0 -24,14 -32,41 -27,68 2,11 7,21 14,30 10,47 18,94 25,142 8,54 16,108 26,162 11,54 25,107 42,160 5,13 9,26 14,40 -1,-4 -1,-7 -1,-10 1,6 2,12 3,17 0,3 1,6 2,8 1,5 2,10 4,15 -3,10 -3,21 0,30 4,18 15,30 29,37 -5,2 -10,6 -14,10 -1,1 -15,12 -4,4 -7,5 -14,10 -21,16 0,0 -1,1 -3,2 -3,1 -5,2 -8,3 -8,3 -17,7 -25,11 10,-5 -9,3 -12,4 -5,1 -10,2 -15,3 13,-3 -8,0 -11,0 -32,1 -60,27 -60,60 0,32 28,61 60,60 37,-1 71,-11 104,-27 -11,6 8,-1 10,-2 12,-4 23,-10 33,-19 2,-3 5,-5 8,-8 0,0 0,0 0,0 10,-7 20,-14 28,-23 24,-22 23,-62 0,-84 -3,-4 -7,-7 -12,-10zm-62 -697l0 0c4,-4 8,-8 11,-12 -3,5 -7,8 -11,12 0,0 0,0 0,0z"/>
  <path class="fil6" d="M1906 2785c-23,0 -45,3 -67,8 -8,2 -16,5 -25,8 -8,3 -16,7 -25,10 11,-4 -6,2 -7,3 -18,6 -36,10 -55,13 0,0 -1,0 -1,1 -1,0 -2,0 -3,0 -5,0 -10,1 -15,1 -10,1 -20,2 -31,3 -47,5 -94,8 -141,16 -2,0 -4,1 -6,1 -12,-58 -28,-115 -43,-173 -12,-48 -21,-96 -33,-144 -6,-24 -11,-47 -16,-71 -1,-6 -2,-12 -3,-17 0,-2 0,-3 -1,-4 0,-1 0,-2 0,-3 -1,-14 -2,-27 -2,-40 -1,-33 -27,-60 -60,-60 -32,0 -60,27 -60,60 1,51 11,101 23,151 11,48 20,96 32,143 12,47 26,94 37,142 5,20 10,40 14,61 -20,14 -31,40 -24,64 6,23 25,39 46,43 11,15 27,26 48,26 31,0 63,-27 60,-60 5,-1 10,-2 14,-3 4,0 7,-1 11,-2 1,0 2,0 3,0 1,0 2,0 3,0 12,-2 23,-3 35,-4 21,-2 42,-4 63,-6 41,-4 82,-7 122,-18 8,-3 17,-6 26,-9 2,-1 16,-7 19,-8 4,-1 8,-3 12,-4 10,-4 20,-6 30,-8 0,0 0,0 1,0 0,0 1,0 3,0 5,-1 10,-1 16,-1 32,0 59,-27 59,-60 0,-32 -27,-60 -59,-59z"/>
  <path class="fil3" d="M1909 2822c0,-5 -1,-11 -2,-16 -3,-22 -9,-42 -14,-63 -2,-8 -3,-17 -5,-26 0,0 0,0 0,0 -1,-6 -1,-11 -1,-16 -2,-20 -1,-40 0,-60 2,-43 3,-85 -10,-127 -11,-36 -23,-72 -30,-110 -6,-36 -14,-73 -21,-109 -1,-10 -3,-19 -5,-28 -1,-3 -2,-7 -2,-11 -1,-1 -1,-3 -2,-5 1,10 0,6 -2,-11 -3,-21 -7,-42 -11,-62 -10,-40 -19,-80 -28,-120 -2,-9 -4,-19 -6,-28 0,-1 0,-2 0,-2 -1,-6 -1,-12 -1,-18 0,-3 0,-6 0,-10 16,-26 1,-64 -23,-78 -31,-18 -63,-5 -82,21 -11,15 -13,37 -14,54 -2,19 1,39 4,58 6,41 16,82 26,122 21,83 28,150 48,238 8,37 16,73 28,110 2,8 5,17 8,26 1,3 2,6 3,10 0,-2 0,-4 0,-5 0,4 1,8 1,11 2,21 1,42 0,63 -3,42 -1,83 6,124 3,20 9,38 14,57 1,4 1,6 1,5 0,4 1,9 1,13 1,11 1,22 1,34 0,32 27,60 59,60 26,0 47,-17 56,-39 12,-19 13,-43 3,-62z"/>
  <path class="fil7" d="M709 1227c-3,-6 -8,-11 -12,-16 0,0 0,0 -1,0 0,-2 0,-5 0,-7 -1,-14 -2,-27 -4,-40 -3,-18 -11,-35 -17,-52 -2,-3 -3,-7 -4,-11 0,-3 0,-5 0,-8 18,-10 31,-29 31,-52 0,-34 -9,-63 -38,-83 -6,-4 -12,-6 -18,-9 12,5 -15,-6 -20,-8 -2,0 -4,-1 -6,-2 -2,-1 -5,-2 -10,-4 -3,-3 -6,-5 -9,-6 -4,-2 -8,-4 -10,-5 -2,0 -4,-1 -6,-2 -14,-7 -28,-13 -42,-18 -27,-11 -55,-17 -84,-20 -4,-1 -9,-1 -13,-1 -3,0 -6,0 -9,0 -1,0 -2,-1 -3,-1 -16,-2 -32,-5 -48,-5 -29,0 -58,2 -86,7 -2,1 -8,1 -10,2 -4,0 -9,0 -13,0 -14,0 -28,0 -42,1 -20,1 -38,4 -56,12 14,-6 -7,2 -10,3 -7,3 -14,5 -21,8 -18,6 -32,18 -39,35 -1,0 -1,-1 -1,-1 -29,0 -48,19 -56,44 -6,4 -10,10 -14,17 -3,7 -6,14 -9,21 -1,2 -2,5 -4,7 -5,11 -12,22 -17,33 -13,24 -11,53 9,73 10,10 25,16 39,17 0,4 1,9 2,14 2,9 6,18 10,25 -13,7 -24,17 -30,31 -6,15 -10,29 -6,46 5,18 22,38 42,41 35,6 69,8 104,8 -7,7 -13,14 -20,21 -34,35 -11,107 42,102 11,-1 21,-2 32,-5 4,-2 8,-4 12,-5 5,-2 17,-3 -1,-2 23,-2 44,-13 65,-20 13,-5 23,-12 35,-20 5,-3 10,-5 15,-8 1,-1 1,-1 2,-2 9,0 19,-2 28,-4 2,-1 12,-2 9,-1 7,-1 13,-2 20,-3 18,-5 36,-12 55,-17 3,-1 7,-2 10,-3 3,-1 19,-2 6,-2 15,0 29,-1 44,-3 3,-1 7,-1 11,-2 2,0 3,-1 4,-1 1,0 2,0 3,0 15,0 30,1 45,-3 2,-1 5,-2 7,-2 1,0 1,0 1,0 5,-1 11,-1 16,-1 15,6 32,8 48,3 35,-11 51,-39 53,-75 1,-14 -5,-29 -11,-41zm-468 -156l0 0c2,0 10,2 13,2 1,1 3,1 4,2 -25,5 -49,12 -72,23 0,-8 -1,-14 -3,-21 14,1 27,0 41,-3 6,-1 11,-2 17,-3zm414 156l0 0c0,-1 -1,-1 -2,-1 7,0 8,2 2,1zm-92 0l0 0c13,-3 -4,0 -7,0l-18 0c-8,0 -15,1 -22,3 -1,1 -11,2 -11,2 -13,1 -25,0 -38,3 -22,4 -42,11 -63,18 -2,0 -4,1 -6,1 10,-4 19,-9 29,-14 14,-7 23,-19 27,-32 4,-2 9,-4 13,-7 34,-16 67,-34 86,-68 0,-2 1,-3 2,-5 2,9 5,17 8,26 3,9 7,18 10,27 2,4 2,8 3,12 -2,-10 0,4 0,7 0,7 1,16 1,24 -4,1 -9,2 -14,3zm108 -123l0 0c0,-1 0,-2 0,-3 2,9 0,8 0,3z"/>
  <path class="fil7" d="M3046 429c-24,1 -48,7 -72,15 11,-22 12,-48 1,-69 0,0 0,0 1,0 5,-2 10,-5 15,-7 0,0 1,0 1,-1 5,-1 10,-3 15,-4 65,-18 52,-118 -16,-118 -18,0 -37,1 -56,3 -6,-2 -11,-3 -17,-3 -14,0 -29,1 -42,6 -1,1 -1,1 -2,1 -11,-16 -28,-27 -48,-25 -10,1 -18,2 -27,4 -3,1 -6,2 -10,3 21,-5 -26,3 -15,1 -6,2 -12,3 -18,4 -3,1 -7,1 -14,2 -5,1 -10,3 -16,4 -1,0 -2,1 -3,1 -2,-1 -5,-1 -8,-1 -16,0 -29,4 -41,11 -19,6 -37,15 -55,25 -28,11 -55,24 -83,38 12,-6 -8,3 -10,4 -12,5 -23,10 -35,15 -16,7 -31,16 -45,26 -19,14 -32,33 -30,56 -37,25 -61,56 -53,103 6,33 45,50 74,42 7,-2 13,-5 19,-9 7,19 16,33 29,49 4,5 8,10 13,15 2,2 4,4 6,7 -9,-10 1,2 3,4 1,3 3,5 4,8 -1,5 -2,10 -4,15 0,2 -3,10 -4,13 0,0 -1,1 -1,1 0,0 0,0 0,0 -15,15 -24,36 -16,58 9,25 21,45 38,66 1,11 2,21 5,32 12,43 68,58 100,26 9,-9 19,-19 30,-28 5,-5 11,-10 17,-15 4,-3 7,-5 11,-8 1,-1 3,-2 4,-2 1,1 3,2 5,3 19,15 45,14 67,10 20,-4 40,-15 59,-29 11,-2 22,-3 32,-6 22,-5 45,-7 67,-14 33,-11 60,-29 79,-58 8,-13 10,-31 6,-46 -4,-14 -12,-24 -22,-31 24,-8 42,-30 42,-57 0,-1 0,-2 0,-3 4,-2 7,-4 11,-6 6,-3 11,-7 17,-10 2,-1 4,-1 6,-2 1,-1 1,-1 2,-1 26,-9 44,-30 44,-58 0,-32 -27,-61 -60,-60zm-434 8l0 0c2,1 4,2 6,3 6,16 19,29 38,33 7,2 13,3 19,4 -4,1 -15,3 -2,2 -8,0 -16,2 -23,3 -8,-4 -15,-8 -24,-9 -4,-2 -7,-3 -11,-5 -15,-4 -30,-2 -43,4 -5,0 -11,0 -17,1 0,0 -1,0 -1,0 7,-5 15,-9 22,-13 12,-8 24,-15 36,-23zm59 212l0 0c0,-7 0,-13 0,-19 19,-3 38,-8 57,-14 -14,13 -26,27 -37,43 -2,2 -3,4 -5,6 -5,3 -10,5 -16,7 1,-8 1,-16 1,-23zm-168 18l0 0c0,0 0,0 0,-1 3,-3 6,-6 10,-8 -3,3 -7,6 -10,9z"/>
  <path class="fil8" d="M605 1133c-15,-14 -33,-23 -53,-31 -18,-6 -37,-9 -55,-17 -19,-8 -37,-18 -57,-26 -20,-9 -44,-11 -66,-13 -23,-2 -46,-1 -69,-1 -23,1 -45,0 -67,4 -20,4 -40,14 -57,26 -8,6 -16,13 -23,20 -6,6 -11,14 -16,21 -15,3 -32,-5 -43,-16 -9,-9 -18,-18 -28,-26 -1,-3 -3,-6 -5,-8 -2,-2 -4,-3 -5,-5 -2,-2 -4,-4 -7,-6 -6,-3 -12,-3 -19,-3 -31,0 -33,43 -8,51 5,6 11,11 18,16 7,6 13,14 20,21 19,19 42,24 63,27 11,1 22,1 33,-1 17,-4 21,-19 30,-31 17,-20 40,-32 65,-37 13,-2 26,0 38,0 16,-1 32,-1 48,-1 29,0 57,2 85,12 24,9 47,24 72,32 24,8 50,11 69,29 25,23 62,-14 37,-37z"/>
  <path class="fil8" d="M632 1260c0,-6 -3,-12 -8,-17 -30,-25 -77,-21 -114,-18 -23,2 -47,4 -70,5 -26,0 -50,-4 -75,-1 -25,4 -50,13 -74,19 -22,5 -43,6 -66,6 -18,0 -38,-11 -54,-17 -11,-4 -20,-12 -29,-18 -4,-3 -8,-6 -12,-9 -3,-3 -10,-11 -9,-6 0,0 0,0 0,0 -10,-30 -57,-16 -50,16 1,3 2,6 3,9 1,1 1,1 2,2 0,1 1,2 2,3 2,10 10,16 19,17 6,4 13,8 18,13 20,14 40,22 63,31 46,18 92,12 138,0 24,-6 49,-15 73,-16 26,-1 52,3 79,2 25,-2 50,-5 76,-5 10,0 31,-2 41,3 -34,9 -66,22 -96,40 -31,18 -59,42 -95,52 -20,5 -41,13 -62,18 -19,3 -42,-2 -61,-6 -37,-7 -73,-11 -110,-12 -9,-8 -23,-10 -34,1 -2,2 -4,4 -6,6 -16,16 -5,45 18,45 24,0 49,0 73,2 24,3 48,10 72,13 26,4 51,4 78,-3 22,-6 47,-13 69,-22 40,-16 72,-46 112,-64 22,-10 46,-18 70,-24 7,-2 11,-4 17,-8 -9,7 3,0 6,-1 12,-4 21,-9 31,-17 24,-22 -10,-57 -35,-39z"/>
  <path class="fil8" d="M746 1286c-31,-27 -38,-76 -41,-115 -1,-21 -1,-42 0,-63 0,-19 2,-41 17,-55 25,-22 -12,-58 -37,-36 -41,35 -34,102 -32,151 2,53 15,119 56,155 26,22 63,-14 37,-37z"/>
  <path class="fil8" d="M2974 625c14,-4 20,-18 18,-32 -3,-20 -24,-26 -41,-27 -17,-1 -33,2 -51,0 -25,-2 -50,-7 -76,-9 -27,-3 -54,-2 -81,1 -48,5 -96,16 -140,34 -33,14 -64,28 -90,50 -2,-4 -4,-8 -6,-12 -1,-15 -3,-30 -4,-44 -1,-11 -1,-22 -3,-32 0,-4 -1,-7 -1,-10 13,4 29,0 33,-17 2,-9 7,-11 15,-14 14,-6 29,-12 43,-16 36,-12 74,-17 111,-22 38,-5 77,-9 115,-16 20,-4 41,-9 60,-15 17,-5 32,-7 49,-8 6,4 15,5 23,6 32,0 34,-47 5,-52 -4,-4 -11,-7 -17,-7 -21,0 -42,1 -62,7 -22,7 -44,13 -66,18 -43,8 -87,12 -130,18 -42,5 -88,11 -127,30 -13,6 -27,9 -40,16 -11,6 -20,16 -25,28 -10,-7 -25,-7 -34,0 -2,-3 -4,-7 -6,-11 -5,-11 -11,-21 -19,-31 -23,-25 -59,12 -37,37 6,7 10,16 13,25 6,12 13,23 17,35 12,29 23,59 36,87 0,0 0,0 0,0 0,3 0,5 0,7 0,4 0,9 1,13 -3,-6 -7,-12 -10,-19 -8,-18 -20,-35 -33,-50 -8,-8 -16,-16 -24,-24 -8,-8 -11,-16 -24,-19 -25,-6 -44,24 -25,43 2,2 4,4 6,7 2,1 3,2 5,3 2,3 3,5 5,6 7,7 13,14 20,21 10,11 19,24 25,38 7,17 17,33 24,50 7,17 11,35 12,53 0,26 32,32 46,18 7,13 24,17 36,11 0,1 0,2 1,3 6,13 24,16 36,9 13,-8 15,-23 9,-36 -6,-13 -9,-27 -12,-41 -4,-14 -11,-28 -17,-42 0,-1 0,-1 0,-1 21,-22 47,-36 75,-48 37,-15 76,-26 116,-32 44,-7 87,-5 130,1 22,3 44,6 66,6 6,1 12,0 17,-1 3,0 5,0 7,0 2,2 4,3 7,5 -7,-1 -15,1 -19,7 -9,12 -16,26 -12,41 3,9 12,22 8,32 -10,24 -19,44 -39,61 -17,16 -39,32 -62,35 -4,0 -7,0 -11,-1 -7,-4 -14,-3 -22,-4 -16,-3 -30,-11 -46,-13 -31,-3 -64,6 -94,16 -27,9 -53,16 -81,22 -54,10 -112,18 -157,52 -11,9 -17,23 -10,36 7,11 25,18 36,9 42,-31 95,-38 145,-47 26,-5 51,-11 76,-20 28,-9 55,-17 85,-16 16,8 33,12 51,13 49,16 98,-18 133,-51 19,-17 31,-40 41,-64 5,-14 9,-27 7,-43 -1,-8 -7,-17 -8,-25 6,-11 6,-23 -3,-33 -2,-2 -5,-3 -7,-5 3,0 5,0 8,0z"/>
  <path class="fil9" d="M2321 590c-39,-28 -81,-52 -127,-69 -20,-7 -42,-13 -64,-18 -13,-3 -27,-4 -40,-5 -8,0 -16,2 -23,3 -4,1 -7,2 -11,3 -6,1 -7,1 -3,0 -15,1 -28,8 -37,19 -6,-18 -23,-32 -43,-31 -38,3 -64,26 -91,51 -25,23 -47,49 -70,73 -18,18 -18,47 0,65 7,7 16,11 26,13 -2,1 -3,3 -4,5 -8,12 -15,25 -23,37 -14,21 -5,50 16,63 23,13 49,4 63,-17 6,-9 12,-19 18,-28 9,-15 15,-19 25,-33 17,-23 29,-45 48,-64 17,-18 18,-48 0,-66 -2,-2 -5,-4 -7,-5 2,-1 3,-2 3,-2 1,0 1,0 1,0 13,-3 24,-9 32,-18 6,17 23,32 43,30 13,0 25,-3 38,-6 -4,1 2,1 5,1 3,0 9,1 9,1 20,4 41,10 60,16 37,12 76,38 110,62 20,14 51,4 63,-17 13,-23 4,-48 -17,-63z"/>
  <path class="fil10" d="M1964 582c1,5 1,4 0,0 -3,-6 -5,-12 -8,-18 -5,-9 -15,-18 -24,-22 -16,-7 -33,-10 -50,-1 -8,5 -15,13 -21,20 -13,13 -24,28 -33,45 -2,1 -5,2 -7,3 -22,10 -41,27 -57,45 -10,11 -19,23 -27,35 -4,5 -8,10 -11,15 -1,1 -11,15 -7,9 -17,23 -35,45 -51,70 -15,24 -28,50 -41,75 -12,23 -7,50 16,63 21,12 52,6 63,-16 7,-13 13,-26 20,-39 -2,7 -4,14 -6,22 -5,24 7,49 32,56 3,1 5,2 8,2 -5,25 -10,51 -15,77 -6,24 7,49 32,56 23,7 51,-7 56,-32 12,-51 23,-102 30,-154 3,-20 11,-47 18,-71 8,-24 16,-48 27,-70 11,-22 7,-48 -13,-62 3,-7 5,-14 7,-22 2,-7 4,-13 7,-19 13,4 27,3 38,-4 23,-13 27,-40 17,-63z"/>
  <path class="fil10" d="M2416 851c-6,-18 -11,-36 -17,-54 -3,-10 -7,-19 -11,-29 -2,-4 -4,-9 -6,-13 -1,-1 -6,-15 -4,-6 -8,-34 -16,-69 -41,-96 -17,-19 -48,-17 -65,0 -19,18 -17,47 0,65 0,0 0,0 0,1 2,2 4,5 5,8 0,0 0,1 1,2 1,4 2,8 4,12 4,16 5,34 13,47 4,7 7,13 11,20 0,1 0,2 1,5 2,4 3,9 5,13 5,17 10,33 15,49 8,24 32,39 57,33 23,-7 40,-33 32,-57z"/>
  <path class="fil10" d="M2080 993c-23,-30 -48,-60 -68,-93 -18,-29 -38,-62 -71,-76 -23,-11 -49,-7 -63,16 -12,20 -6,53 17,63 1,1 10,6 9,5 4,3 7,7 10,11 1,0 1,1 2,3 3,3 5,7 8,10 3,6 7,12 11,18 19,32 44,60 66,90 15,20 39,30 63,16 19,-11 31,-43 16,-63z"/>
  <path class="fil11" d="M2016 504c-48,1 -96,12 -137,38 -18,12 -43,30 -47,53 -8,41 25,62 61,63 25,0 45,-21 46,-45 4,-1 13,-6 10,-5 26,-10 41,-11 67,-12 25,0 46,-20 46,-46 0,-24 -21,-46 -46,-46z"/>
  <path class="fil11" d="M2331 610c-31,-39 -65,-72 -113,-90 -3,-1 -8,-2 -10,-3 -3,-2 -7,-2 -10,-3 -15,-3 -28,-3 -42,-1 -31,6 -49,32 -51,62 -2,25 22,46 46,46 14,0 25,-6 34,-15 1,0 2,1 3,1 3,1 6,2 9,3 -8,-3 6,3 6,3 2,2 5,4 8,5 0,0 7,6 7,6 5,4 11,9 15,14 12,11 22,24 33,37 15,20 48,16 65,0 19,-19 15,-46 0,-65z"/>
  <path class="fil11" d="M2217 520c0,0 1,0 1,0 4,2 6,2 -1,0z"/>
  <path class="fil11" d="M2405 798c0,-17 0,-33 0,-50 0,-2 0,-4 0,-6 16,-17 18,-48 -1,-65 -31,-28 -78,-16 -88,26 -5,19 -4,39 -3,58 2,32 0,64 0,96 0,41 6,82 7,123 0,25 20,46 46,46 24,0 46,-21 46,-46 -1,-29 -4,-58 -6,-87 -2,-32 -1,-64 -1,-95z"/>
  <path class="fil12" d="M2439 744c-16,1 -31,4 -43,16 -4,4 -7,9 -11,14 10,-13 -7,10 -9,13 -12,21 -21,44 -30,66 -2,5 -4,11 -7,16 -32,-40 -74,-74 -118,-102 -24,-15 -38,-30 -63,-48 -26,-18 -55,-30 -87,-31 -25,0 -46,22 -46,46 0,26 21,46 46,46 5,1 14,3 19,6 11,5 20,12 29,19 1,1 2,1 3,2 -1,-1 0,0 3,3 7,6 14,12 21,17 9,7 19,13 29,20 9,6 19,12 28,18 0,0 10,9 5,4 5,5 10,10 15,14 19,18 39,35 55,56 7,9 18,13 29,13 -5,12 -10,24 -15,36 -23,48 -45,96 -66,145 -20,48 -38,96 -60,142 -10,23 -6,50 17,63 20,12 52,7 63,-16 40,-88 74,-179 115,-267 20,-43 40,-87 57,-132 4,-10 8,-21 11,-31 2,-5 4,-10 6,-15 -1,1 4,-9 3,-9 4,-9 8,-17 13,-25 2,-4 4,-8 6,-12 16,-7 28,-21 28,-41 0,-24 -21,-48 -46,-46z"/>
  <path class="fil7" d="M2362 888c-2,-45 -17,-89 -39,-131 -8,-14 -13,-36 -24,-53 -5,-8 -9,-15 -11,-22 -4,-12 -9,-26 -19,-35 -15,-15 -33,-27 -52,-38 -8,-4 -18,-8 -24,-12 -12,-10 -23,-16 -37,-21 -17,-5 -37,-4 -55,-4 -18,0 -34,2 -50,7 -5,0 -9,1 -14,2 -3,1 -18,5 -3,3 -25,3 -46,19 -46,46l0 6c0,45 53,56 79,33 1,0 3,0 4,-1 13,-5 15,-6 7,-2 2,-1 5,-1 7,-2 -10,2 5,0 6,0 9,0 18,0 27,0 3,0 6,0 9,0 0,0 1,0 1,0 1,0 2,1 4,1 -1,0 -2,-1 -2,-1 0,0 0,0 0,0 1,1 2,1 3,2 -7,-4 23,15 13,10 18,9 35,18 52,29 -3,-1 -2,-1 1,2 3,11 8,21 13,31 4,7 9,14 13,21 -3,-5 4,10 3,9 2,5 4,10 6,15 8,19 16,34 23,53 1,3 2,7 3,11 0,-2 5,16 5,9 0,8 2,16 3,23 0,-1 3,16 2,9 2,25 20,46 46,46 24,0 48,-21 46,-46z"/>
  <path class="fil7" d="M2257 1076c-18,-18 -47,-18 -65,0 -54,55 -93,124 -141,178 -17,19 -19,46 0,65 17,17 48,19 65,0 51,-58 88,-124 141,-178 18,-18 18,-47 0,-65z"/>
  <path class="fil13" d="M2255 604c-27,-14 -54,-27 -82,-37 -29,-11 -61,-10 -91,-10 -53,0 -53,83 0,83 23,0 47,-1 68,6 22,8 43,19 63,29 20,11 45,6 57,-14 11,-19 5,-47 -15,-57z"/>
  <path class="fil13" d="M2403 877c-22,-66 -40,-135 -40,-205 -1,-53 -83,-54 -83,0 0,43 6,86 15,129 -21,1 -37,20 -38,41 -1,15 -7,35 -3,53 4,16 8,33 14,50 7,22 28,35 51,29 19,-5 34,-27 29,-47 8,3 17,3 26,1 21,-6 36,-29 29,-51z"/>
  <path class="fil13" d="M2171 706c-27,-11 -55,-21 -81,-35 -13,-6 -25,-11 -38,-16 -1,0 -10,-4 -11,-4 0,0 0,0 -1,-1 -6,-9 -17,-15 -31,-15l-5 0c-35,0 -57,46 -29,71 12,11 25,17 40,23 14,6 23,9 33,14 32,17 67,30 101,42 21,8 46,-8 51,-28 7,-24 -8,-43 -29,-51z"/>
  <path class="fil13" d="M2319 1005c-24,-7 -43,8 -51,28 -19,47 -41,92 -60,138 -9,21 9,46 29,51 23,7 42,-8 51,-29 18,-46 41,-91 59,-138 9,-20 -9,-45 -28,-50z"/>
  <path class="fil13" d="M2167 1239c-27,16 -52,37 -74,58 -21,20 -41,41 -64,57 -19,12 -27,36 -15,56 11,19 38,28 57,15 50,-34 87,-83 138,-115 45,-28 4,-99 -42,-71z"/>
  <path class="fil13" d="M2181 949c-24,15 -41,37 -54,62 -6,12 -11,25 -16,37 -2,4 -3,8 -5,12 0,1 -1,2 -3,5 -3,5 -5,10 -8,15 -16,27 -30,55 -45,83 -17,28 -33,57 -50,86 -26,46 45,88 72,42 15,-27 31,-54 46,-82 15,-25 27,-52 42,-77 9,-14 17,-28 23,-43 2,-5 4,-10 6,-15 1,-1 4,-10 5,-11 4,-10 9,-20 15,-29 2,-2 2,-3 3,-3 1,-2 2,-3 3,-5 2,-1 3,-2 4,-4 1,0 2,0 4,-2 45,-27 3,-99 -42,-71z"/>
  <path class="fil13" d="M2122 932c-10,-18 -38,-29 -56,-15 -2,1 -4,3 -5,4 4,-7 8,-14 12,-19 11,-15 24,-26 38,-40 39,-37 -20,-95 -58,-58 -3,2 -5,5 -8,7 -1,-28 -30,-55 -62,-37 -17,10 -34,22 -48,35 1,-15 -7,-31 -21,-39 -40,-26 -76,7 -97,39 -1,2 -3,3 -4,5 6,-8 -7,10 -8,11 -6,8 -12,17 -18,26 -9,15 -17,28 -29,40 -37,38 22,97 59,59 21,-23 36,-49 53,-75 7,-9 14,-18 20,-27 1,-1 1,-1 1,-1 3,0 7,0 10,-1 -2,3 -4,6 -6,8 -10,15 -18,28 -29,41 -14,17 -28,33 -40,50 -13,19 -4,46 14,57 21,12 44,4 57,-15 18,-26 47,-52 65,-83 9,-16 21,-29 36,-40 -7,9 -13,20 -18,31 -7,17 -19,26 -31,43 -12,18 -22,39 -31,58 -11,20 -6,45 14,57 19,11 47,5 57,-15 5,-10 10,-19 16,-29 -3,7 -7,14 -10,21 -21,43 -41,87 -59,132 -8,21 9,46 29,51 24,7 43,-8 51,-29 15,-36 31,-72 48,-107 9,-19 19,-38 28,-56 3,-7 7,-14 10,-21 2,-4 4,-7 6,-11 0,0 0,-1 1,-2 17,-13 26,-35 13,-55z"/>
  <path class="fil13" d="M1865 697c-12,-21 -36,-24 -57,-15 -31,14 -55,38 -76,64 -24,29 -48,58 -75,85 -37,38 21,97 59,59 25,-26 49,-54 71,-82 19,-23 36,-42 63,-54 21,-10 25,-39 15,-57z"/>
  <path class="fil13" d="M1730 655c-20,-3 -37,-3 -56,5 -11,5 -21,15 -31,24 -12,13 -21,32 -29,47 -8,15 -16,30 -23,44 -10,20 -6,45 15,57 18,11 46,5 57,-15 10,-21 21,-43 33,-63 5,-8 8,-13 14,-19 0,0 0,0 0,0 0,0 0,0 0,0 21,3 42,-6 49,-29 5,-20 -7,-47 -29,-51z"/>
  <path class="fil14" d="M2071 1046c-21,-13 -43,-3 -57,14 -15,20 -35,37 -51,56 -19,21 -36,43 -56,64 0,0 0,0 -1,0 16,-21 33,-42 48,-64 12,-18 27,-35 42,-51 16,-16 33,-35 44,-55 10,-20 5,-45 -15,-56 -19,-12 -46,-5 -57,14 -7,14 -21,29 -34,42 -1,1 -1,1 -2,2 17,-26 34,-51 53,-75 13,-18 2,-47 -15,-57 -22,-13 -43,-3 -57,15 -32,42 -60,87 -88,132 -12,21 -26,41 -38,61 -2,3 -4,6 -5,9 9,-39 34,-71 55,-105 23,-36 50,-67 74,-101 13,-19 3,-46 -15,-57 -21,-12 -44,-4 -57,15 -11,16 -26,32 -38,49 0,0 0,1 0,1 2,-4 4,-8 6,-12 1,-3 3,-6 5,-10 1,-2 2,-4 2,-4 0,-1 1,-2 2,-3 12,-13 25,-25 35,-39 13,-19 3,-46 -15,-57 -20,-12 -42,-4 -55,14 -1,0 -2,1 -3,3 -3,4 -7,7 -10,10 -3,3 -5,5 -7,7 7,-10 15,-20 24,-29 37,-38 -21,-96 -59,-58 -17,18 -33,38 -47,59 -15,24 -26,51 -39,76 -11,23 -26,44 -37,67 -14,27 -23,54 -27,85 -3,22 21,41 42,41 24,0 38,-19 41,-41 3,-26 18,-51 33,-76 -8,18 -14,37 -15,57 0,23 19,41 41,42 -7,14 -12,28 -16,44 -5,22 6,45 29,51 14,4 29,-1 40,-11 -8,14 -14,28 -19,43 -8,30 16,50 40,51 0,15 8,29 21,37 10,6 20,7 30,4 -16,19 -31,39 -45,59 -8,11 -7,25 -2,37 -20,22 -40,44 -61,65 -16,16 -14,36 -4,51 -5,4 -9,9 -14,13 -15,14 -15,39 -3,55 -1,12 6,25 16,33 -28,27 -57,52 -87,78 -17,15 -15,43 0,58 17,17 42,15 59,0 33,-29 66,-58 98,-88 31,-31 57,-68 85,-102 28,-35 57,-69 84,-105 23,-30 49,-49 79,-71 18,-13 27,-35 15,-56 -8,-13 -24,-22 -39,-21 -1,-2 -3,-4 -5,-6 -3,-4 -8,-7 -13,-9 14,-13 28,-26 42,-37 18,-13 27,-35 15,-56 -2,-4 -5,-7 -8,-10 10,-11 21,-23 31,-36 13,-18 3,-46 -15,-56z"/>
  <path class="fil15" d="M1116 936c0,0 0,0 0,0 0,0 0,0 0,0z"/>
  <path class="fil15" d="M1037 1043c4,-4 2,-3 0,0z"/>
  <path class="fil15" d="M1247 1147c-23,-6 -43,8 -51,29 -9,23 -22,49 -32,75 -6,13 -10,27 -14,41 0,-2 -1,-4 -3,-6 -1,-2 -1,-3 -2,-3 0,-5 1,-10 1,-15 2,-14 3,-17 7,-31 7,-25 18,-47 31,-70 26,-47 -45,-89 -71,-42 -6,10 -11,20 -16,31 1,-5 2,-9 4,-13 1,-4 9,-17 14,-23 7,-11 13,-18 21,-28 15,-17 17,-41 0,-58 -15,-15 -44,-18 -58,0 -24,28 -45,56 -59,91 -3,9 -6,19 -7,28 -1,-1 -1,-3 -2,-5 0,0 1,-1 1,-3 0,-5 3,-18 3,-26 1,-5 1,-7 1,-3 1,-5 3,-10 4,-15 2,-8 5,-17 7,-26 -4,5 -3,3 2,-8 1,-2 2,-5 3,-7 2,-6 4,-11 6,-16 0,0 0,0 0,0 0,-1 0,-1 0,-1l0 0c0,0 0,0 0,0 9,-10 13,-23 9,-37 -2,-5 -4,-10 -7,-14 11,-11 26,-22 37,-33 5,-4 9,-8 13,-12 -2,2 -1,2 3,-1 -5,2 -2,0 8,-4 -6,3 16,-6 16,-6 8,-3 14,-9 20,-14 17,-15 15,-43 0,-59 -17,-16 -41,-14 -58,0 5,-4 -3,1 -6,2 -9,3 -12,5 -22,9 -12,6 -23,17 -32,26 -22,22 -45,38 -62,64 -9,15 -6,35 5,48 -1,3 -2,6 -4,10 -2,6 -4,12 -7,19l0 0c0,1 -1,3 -3,6 -1,6 -2,11 -4,17 -2,10 -5,20 -8,30 -3,11 -3,19 -4,30 -3,14 -4,26 -2,41 1,3 2,5 2,8 1,1 1,2 1,3 0,0 0,1 0,2 1,22 18,41 42,41 15,0 31,-10 37,-24 2,10 5,19 10,27 10,19 29,23 45,18 -6,29 -6,63 10,88 12,18 36,26 56,14 5,-2 9,-6 12,-10 0,4 0,8 0,11 -1,54 82,54 83,0 0,-51 30,-95 49,-145 8,-21 -9,-45 -29,-51z"/>
  <path class="fil15" d="M1279 1208c-15,52 -51,96 -52,154 -2,53 81,53 82,0 1,-19 9,-38 18,-57 12,-24 24,-49 31,-75 15,-51 -65,-73 -79,-22z"/>
  <path class="fil15" d="M1408 1235c-21,-6 -47,6 -51,28 -3,12 -3,14 -9,25 -6,10 -12,20 -17,31 -14,27 -25,53 -26,84 -1,23 19,42 41,42 23,0 41,-19 42,-42 0,-5 3,-18 4,-22 4,-9 9,-19 14,-28 11,-23 26,-42 31,-68 4,-22 -6,-44 -29,-50z"/>
  <path class="fil15" d="M1766 1586c-6,-7 -15,-11 -24,-12 0,0 0,0 0,-1 2,-22 -21,-41 -42,-41 -15,0 -27,8 -34,20 4,-14 2,-28 -10,-40 -15,-15 -44,-18 -59,0 -3,4 -6,8 -8,11 4,-8 9,-17 14,-25 20,-34 -14,-65 -43,-62 16,-44 -50,-80 -75,-35 -1,3 -4,6 -7,9 1,-2 2,-3 3,-5 8,-12 17,-24 25,-36 12,-19 4,-45 -15,-57 -20,-11 -44,-4 -56,15 -21,34 -46,62 -47,104 -1,22 19,41 41,41 4,0 8,0 12,-1 -3,14 -3,29 -3,43 0,31 28,44 52,39 -4,22 0,44 15,64 9,10 23,13 35,11 -3,22 -1,44 10,63 15,27 46,24 64,7 2,10 7,17 14,22 -9,23 -14,47 -22,70 -21,65 -34,134 -34,202 -1,53 82,53 82,0 1,-49 9,-97 21,-144 24,-2 46,-22 38,-51 -7,-23 1,-52 9,-77 9,-14 20,-28 28,-43 3,-6 5,-12 5,-19 4,-5 8,-9 11,-14 15,-17 17,-41 0,-58z"/>
  <path class="fil16" d="M1371 1034c-10,-10 -27,-15 -41,-11 5,-7 9,-14 10,-23 4,-22 -5,-44 -29,-51 -1,0 -2,0 -2,0 -1,-4 -3,-9 -5,-13 -10,-17 -35,-26 -54,-17 -4,-14 -17,-26 -37,-26 -19,0 -35,3 -52,10 -3,2 -18,14 -9,6 -5,4 -9,8 -13,12 -7,7 -13,16 -19,25 -21,31 -39,65 -41,103 0,23 20,41 42,41 4,0 9,0 13,-2 6,19 24,33 47,35 3,0 6,0 9,-1 1,21 20,37 41,37 6,0 12,-1 17,-3 -4,19 -2,39 7,57 11,19 38,26 57,14 18,-10 25,-33 17,-52 0,0 2,-8 2,-8 3,-11 3,-10 8,-20 9,-18 19,-39 32,-55 14,-18 17,-41 0,-58z"/>
  <path class="fil16" d="M1431 1110c-18,-11 -46,-5 -56,15 -21,41 -43,82 -55,129 -13,52 67,74 80,22 10,-40 29,-74 46,-109 10,-21 6,-45 -15,-57z"/>
  <path class="fil16" d="M1489 1150c-24,0 -41,19 -42,42 0,8 -3,12 -8,23 -5,9 -10,18 -15,27 -13,27 -23,57 -8,86 11,20 38,25 57,14 17,-10 23,-29 18,-47 1,-3 2,-6 3,-8 -3,8 2,-5 3,-6 2,-3 3,-6 5,-9 13,-26 27,-50 28,-80 1,-23 -19,-42 -41,-42z"/>
  <path class="fil16" d="M1589 1331c13,-16 20,-34 13,-54 -7,-21 -28,-35 -51,-29 -16,5 -29,20 -30,37 0,1 -1,1 -1,2 -5,6 -7,14 -9,21 1,-4 -4,7 -4,7 -3,5 -7,11 -10,16 -12,23 -21,42 -22,68 -1,22 19,41 41,41 23,0 41,-19 42,-41 0,-2 0,-3 0,-4 0,-1 0,-2 1,-3 0,-1 0,-2 0,-2 1,-2 2,-4 3,-6 6,-11 13,-21 18,-32 4,-5 6,-11 8,-17 2,-4 7,-11 1,-4z"/>
  <path class="fil16" d="M2058 1190c-6,-20 -30,-37 -51,-29 -24,9 -42,25 -60,43 -2,1 -3,3 -4,5 0,0 0,-1 0,-1 10,-20 6,-45 -15,-57 -18,-11 -46,-5 -56,15 -20,38 -41,75 -57,115 -17,-11 -36,-6 -52,6 -7,5 -13,11 -19,17 58,-118 119,-235 185,-349 27,-46 -44,-88 -71,-42 -69,119 -132,240 -192,363 -19,-3 -40,5 -47,29 -2,8 -5,13 -10,21 -2,4 -4,8 -6,12 -2,5 -4,9 -6,14 1,-4 0,-3 -2,1 -15,22 -23,47 -23,73 -1,11 4,22 11,29 -5,18 0,38 18,48 13,8 32,8 45,-1 -1,4 -1,8 -1,12 0,11 4,20 9,26 0,1 0,1 0,2 -11,29 -16,58 -7,88 4,17 16,25 28,28 0,2 0,4 -1,6 -5,22 6,44 29,51 11,3 23,1 33,-5 17,4 39,-2 46,-19 37,-83 76,-166 119,-246 20,-38 43,-75 64,-112 10,-18 21,-36 32,-55 5,-8 10,-17 17,-24 4,-4 8,-8 12,-11 -2,1 8,-4 3,-2 21,-9 35,-28 29,-51z"/>
  <path class="fil16" d="M1749 909c-19,20 -39,38 -56,60 -15,21 -26,43 -38,65 -11,24 -22,48 -35,71 -14,26 -29,50 -43,75 -26,47 46,88 72,42 12,-22 25,-43 37,-65 14,-24 24,-51 36,-72 13,-22 22,-46 37,-66 14,-18 32,-34 49,-51 38,-38 -21,-96 -59,-59z"/>
  <path class="fil16" d="M1708 758c-10,9 -21,18 -29,29 -11,13 -19,28 -27,43 -17,30 -28,59 -43,90 -4,8 -8,16 -12,24 3,-9 7,-18 10,-28 12,-29 23,-57 38,-84 15,-29 33,-56 50,-84 27,-46 -44,-87 -72,-42 -17,28 -34,55 -50,84 -17,31 -30,65 -43,99 -25,62 -47,126 -67,190 -7,22 7,46 29,51 7,2 14,2 21,0 -2,17 3,33 19,42 18,11 48,6 57,-15 28,-62 56,-124 86,-186 15,-29 27,-57 41,-85 7,-14 15,-27 23,-41 4,-9 18,-20 27,-29 39,-37 -20,-96 -58,-58z"/>
  <path class="fil7" d="M2326 828c-5,-30 -9,-59 -15,-88 -2,-11 -7,-26 -8,-34 -1,-8 0,-16 -2,-24 -2,-7 -5,-12 -8,-18 2,-16 -4,-35 -20,-42 -34,-16 -72,-19 -107,-32 -16,-5 -31,-13 -47,-19 -20,-9 -39,-10 -60,-10 -54,0 -54,83 0,83 2,0 18,0 17,0 3,0 5,1 8,2 -1,-1 13,5 7,2 16,7 31,14 47,20 16,6 33,12 49,15 9,2 19,3 28,5 1,5 2,10 5,15 0,1 0,2 0,3 0,9 2,18 4,26 2,12 6,23 9,35 5,27 8,55 13,83 4,22 31,34 51,29 23,-7 33,-29 29,-51z"/>
  <path class="fil17" d="M2278 1711c-16,-15 -33,-20 -53,-28 -16,-6 -35,-18 -48,-24 -11,-4 -21,-9 -32,-12 -11,-4 -25,-2 -37,-2 -27,0 -52,10 -78,15 -21,4 -42,4 -63,7 -23,3 -45,10 -67,19 -20,9 -41,18 -59,31 -8,5 -16,11 -23,17 -4,3 -8,5 -12,8 -4,3 -19,9 -5,8 -20,2 -37,14 -37,36 0,20 17,37 37,37l3 0c11,0 19,-3 24,-9 26,-13 44,-36 72,-47 19,-8 36,-17 55,-22 21,-7 41,-7 63,-9 22,-3 44,-8 65,-13 16,-4 38,-9 53,-2 16,7 31,15 47,23 10,6 21,10 32,13 0,0 12,5 6,2 1,1 2,1 2,1 0,0 1,1 3,3 34,33 86,-19 52,-52z"/>
  <path class="fil17" d="M1419 1815c-9,-9 -26,-13 -40,-8 -4,-1 -9,-2 -10,-2 -14,-2 -29,-4 -43,-6 -29,-4 -57,-5 -87,-2 -55,4 -113,9 -159,43 -16,12 -24,32 -13,51 9,16 34,25 51,13 40,-31 94,-33 144,-35 28,-2 54,2 82,6 3,0 7,1 10,1 -3,-4 -1,-3 7,2 7,2 13,3 20,4 13,1 29,-3 38,-14 13,-16 15,-37 0,-53z"/>
  <path class="fil17" d="M1887 2507c-5,-48 -9,-95 -17,-143 -8,-47 -26,-92 -40,-138 -13,-44 -25,-90 -35,-135 -4,-20 -7,-41 -9,-62 -2,-12 -2,-23 -3,-34 0,-6 0,-12 0,-19l0 -12c8,-16 0,-38 -15,-47 -19,-11 -39,-3 -51,13 -13,19 -9,49 -7,71 1,25 4,51 8,77 8,49 23,97 35,146 12,46 32,90 42,136 10,48 13,98 19,147 2,20 15,37 36,37 19,0 39,-17 37,-37z"/>
  <path class="fil17" d="M2054 2123c-13,-33 -25,-66 -46,-95 -23,-31 -47,-57 -78,-80 -16,-12 -41,-3 -50,13 -11,19 -3,38 13,50 22,16 39,37 54,58 17,22 26,49 37,74 7,18 24,31 45,25 17,-5 33,-26 25,-45z"/>
  <path class="fil17" d="M1572 2015c-18,-5 -41,5 -45,24 -7,7 -10,16 -12,25 -4,13 -8,26 -13,39 -9,27 -16,54 -21,81 -4,20 5,40 25,46 18,5 42,-6 46,-26 7,-41 21,-80 33,-120 6,-7 11,-15 13,-24 3,-20 -6,-40 -26,-45z"/>
  <path class="fil0" d="M1563 1142c-55,-141 -177,-263 -323,-306 -142,-42 -291,14 -395,113 -52,50 -92,114 -107,185 -15,74 0,149 35,214 35,67 89,123 150,168 66,48 143,76 221,99 55,17 110,33 163,56 44,20 85,47 124,75 42,30 82,62 118,99 32,33 62,70 78,113 5,13 35,8 30,-6 -25,-67 -80,-120 -133,-166 -55,-47 -116,-91 -181,-123 -77,-39 -162,-57 -244,-85 -77,-26 -147,-64 -206,-120 -56,-52 -100,-117 -121,-191 -20,-74 -7,-152 30,-219 67,-122 219,-216 360,-205 168,14 312,154 371,305 5,13 35,8 30,-6z"/>
  <path class="fil0" d="M1540 1085c-28,-64 -28,-133 -3,-199 24,-64 69,-118 117,-165 50,-48 107,-89 166,-124 54,-33 110,-56 173,-68 124,-22 269,-3 365,85 97,90 124,235 83,358 -42,125 -138,229 -235,315 -51,46 -104,88 -159,128 -52,39 -106,74 -157,113 -80,62 -155,136 -203,226 -50,92 -57,197 -21,295 2,8 30,19 26,8 -27,-74 -29,-153 -4,-228 23,-71 68,-133 118,-186 95,-101 216,-171 325,-255 187,-147 433,-377 333,-641 -97,-257 -436,-301 -653,-177 -170,97 -393,288 -297,508 3,7 30,18 26,7z"/>
  <path class="fil0" d="M2335 583c16,-144 143,-253 268,-310 62,-28 128,-44 195,-46 69,-2 151,9 205,56 19,15 43,41 41,68 -2,19 -22,29 -38,35 -46,17 -99,15 -148,19 -6,0 3,11 4,12 4,4 11,10 17,9 52,-4 233,0 179,-97 -32,-57 -96,-95 -159,-110 -67,-17 -137,-16 -204,-4 -90,18 -176,62 -246,120 -71,58 -128,139 -139,232 -1,8 24,24 25,16z"/>
  <path class="fil0" d="M2979 418c39,4 96,15 99,64 4,46 -32,79 -70,95 -83,36 -178,27 -266,33 -4,0 -14,3 -11,9 3,7 13,7 19,7 97,-7 206,3 295,-44 42,-22 75,-67 61,-116 -14,-50 -84,-60 -127,-65 -4,0 -15,1 -15,8 -1,6 10,8 15,9z"/>
  <path class="fil0" d="M2929 618c33,1 48,19 52,50 4,32 2,64 -17,91 -35,51 -107,59 -163,63 -113,7 -250,-1 -328,98 -16,21 -28,46 -37,71 -2,7 27,11 31,2 22,-63 64,-111 127,-133 57,-21 119,-21 178,-24 60,-3 121,-6 176,-33 25,-13 46,-34 57,-60 11,-27 11,-61 4,-89 -10,-37 -44,-48 -79,-49 -3,0 -15,0 -15,6 -1,6 11,7 14,7z"/>
  <path class="fil0" d="M786 1081c-51,-124 -177,-184 -304,-202 -116,-16 -243,-1 -351,48 -39,18 -76,42 -102,77 -25,32 -37,81 -21,120 17,38 59,54 98,57 22,2 43,0 65,-4 11,-3 22,-6 32,-10 11,-4 24,-10 34,-17 5,-4 3,-11 -3,-13 -7,-3 -15,-1 -21,4 -6,5 -15,5 -21,10 -3,2 -11,4 -16,5 -13,4 -27,6 -41,7 -27,1 -54,-4 -75,-19 -49,-35 -29,-108 5,-146 39,-43 97,-66 152,-82 54,-15 110,-23 166,-24 145,-1 313,50 373,195 5,12 34,5 30,-6z"/>
  <path class="fil0" d="M52 1158c-20,24 -31,55 -7,80 27,26 70,35 106,41 46,8 94,9 141,6 37,-2 76,-5 112,-18 4,-1 7,-3 11,-5 11,-6 -16,-17 -24,-13 -26,14 -59,16 -87,19 -43,4 -87,4 -131,0 -32,-4 -71,-8 -97,-28 -26,-20 -14,-50 3,-71 7,-8 -21,-18 -27,-11z"/>
  <path class="fil0" d="M134 1257c-27,-2 -51,4 -60,31 -8,23 1,52 12,72 30,59 86,97 153,98 64,2 128,-25 186,-50 72,-30 146,-68 225,-68 48,0 95,15 138,35 19,9 16,-11 2,-18 -72,-33 -146,-49 -225,-30 -75,17 -143,56 -215,82 -56,22 -127,42 -184,13 -29,-14 -51,-44 -62,-73 -8,-22 -11,-53 12,-66 9,-5 19,-5 29,-4 17,2 -1,-21 -11,-22z"/>
  <path class="fil0" d="M1652 1994c-2,-42 -31,-76 -64,-99 -41,-29 -90,-44 -139,-55 -53,-11 -108,-16 -162,-17 -42,0 -86,1 -127,14 -84,25 -172,129 -117,217 30,49 90,70 145,69 72,-2 142,-37 207,-64 23,-9 45,-18 68,-25 20,-6 41,-9 62,-13 51,-11 110,-20 152,20 2,2 11,10 12,4 2,-6 -5,-13 -9,-17 -27,-26 -60,-40 -98,-41 -36,-1 -74,8 -109,15 -71,16 -137,53 -207,76 -60,21 -135,34 -192,-5 -38,-28 -29,-81 -10,-118 22,-45 67,-80 114,-94 41,-13 86,-13 129,-13 55,0 111,6 165,19 46,10 95,25 132,56 17,14 26,33 27,54 1,8 22,28 21,17z"/>
  <path class="fil0" d="M1629 1919c-36,-5 -72,-15 -108,-23 -51,-12 -103,-22 -156,-29 -49,-7 -101,-12 -151,-4 -35,5 -71,18 -87,52 -17,36 4,75 41,86 42,14 95,-1 136,-12 41,-10 81,-23 122,-34 67,-16 142,-37 210,-18 12,3 23,8 32,14 3,2 11,6 9,0 -1,-7 -7,-13 -13,-17 -56,-40 -132,-29 -196,-16 -47,9 -93,23 -139,36 -47,14 -96,28 -145,28 -10,0 -19,-1 -28,-3 -4,-1 -7,-2 -11,-4 -5,-2 2,4 0,0 -7,-15 1,-37 9,-49 20,-30 61,-38 94,-42 48,-5 98,1 145,8 50,7 99,17 148,28 34,8 68,17 102,22 10,1 -7,-22 -14,-23z"/>
  <path class="fil0" d="M1668 1965c-2,-37 23,-70 47,-96 36,-38 80,-67 124,-94 51,-30 104,-55 159,-75 48,-18 98,-33 149,-40 44,-5 88,-1 123,29 40,35 4,85 -26,112 -39,36 -91,64 -143,75 -42,9 -88,8 -131,11 -48,2 -96,5 -143,11 -48,7 -98,17 -144,35 -36,14 -69,38 -74,79 -1,9 27,20 29,9 8,-69 104,-84 159,-96 96,-21 196,-18 295,-27 54,-5 105,-27 150,-59 34,-23 78,-63 74,-109 -5,-50 -72,-79 -114,-88 -40,-8 -84,0 -123,9 -109,24 -216,73 -308,135 -35,24 -69,51 -96,84 -20,24 -37,54 -35,87 1,10 29,19 28,8z"/>
  <path class="fil0" d="M1679 1940c49,-62 117,-96 185,-131 44,-24 94,-40 142,-54 26,-7 51,-14 78,-16 16,-2 31,-2 44,10 5,4 9,9 10,15 2,4 0,8 -2,10 -6,9 -22,15 -34,19 -67,23 -138,23 -207,35 -51,8 -103,17 -153,33 -47,15 -105,39 -127,87 -6,15 24,13 29,1 10,-24 33,-38 56,-50 28,-14 59,-23 90,-30 41,-10 83,-18 125,-23 40,-4 81,-9 121,-16 39,-7 82,-15 115,-39 28,-20 17,-52 -10,-68 -16,-9 -38,-7 -56,-5 -27,2 -53,9 -79,16 -51,14 -101,32 -149,55 -64,31 -128,65 -178,116 -9,9 -17,18 -25,28 -12,15 17,17 25,7z"/>
  <path class="fil0" d="M1631 1983c-66,26 -132,65 -177,122 -35,43 -53,96 -58,151 -4,49 6,101 36,141 33,45 88,64 142,64 3,0 5,0 8,0 16,0 -2,-16 -8,-18 -13,-4 -41,-9 -41,-27 0,-14 20,-26 30,-32 30,-19 69,-34 105,-39 18,-3 -7,-19 -15,-19 -39,-1 -73,-13 -88,-50 -15,-37 -9,-80 1,-116 12,-40 32,-78 59,-109 20,-22 50,-48 82,-44 5,1 13,-1 10,-7 -3,-7 -11,-11 -18,-11 -79,-11 -135,83 -157,146 -13,37 -20,80 -10,120 10,40 39,68 78,81 18,7 38,9 58,9 -5,-7 -10,-13 -15,-19 -44,6 -93,23 -128,50 -13,10 -25,24 -19,41 9,26 47,37 69,43 -3,-6 -6,-12 -8,-18 -49,1 -93,-14 -119,-57 -24,-40 -27,-88 -22,-133 6,-51 26,-101 60,-140 43,-50 105,-86 166,-111 13,-5 -11,-22 -21,-18z"/>
  <path class="fil0" d="M1675 2008c78,-86 259,-96 322,13 22,37 24,82 25,124 2,48 2,97 16,143 1,5 24,10 29,9 35,-6 67,-19 93,-43 -10,-3 -20,-6 -30,-9 -24,42 -49,85 -92,111 0,0 0,0 0,0 9,9 21,19 25,31 4,11 -3,26 -7,36 10,2 19,5 28,7 -41,-23 -90,-26 -136,-26 9,3 18,6 28,9 50,-90 20,-209 -24,-296 -41,-80 -116,-161 -214,-160 -42,1 -77,24 -105,55 1,-1 25,13 30,8 30,-33 73,-61 120,-52 19,3 38,17 52,29 19,15 36,34 51,53 62,82 101,198 80,300 -4,19 -11,38 -20,55 -1,2 25,8 27,8 28,0 60,-2 85,12 3,1 27,10 28,6 4,-11 10,-25 6,-38 -2,-5 -6,-10 -10,-14 -2,-3 -5,-6 -8,-9 -7,-7 0,-10 6,-14 36,-25 58,-65 80,-102 0,-1 -26,-12 -30,-9 -25,25 -57,37 -91,43 9,3 19,6 29,8 -16,-51 -15,-105 -17,-159 -2,-47 -9,-96 -42,-133 -39,-45 -110,-64 -168,-70 -67,-7 -149,14 -196,66 2,-1 25,13 30,8z"/>
  <path class="fil0" d="M1321 2138c14,-21 38,-35 60,-46 33,-17 68,-29 102,-40 64,-21 130,-36 194,-55 1,-1 -13,-25 -21,-22 -63,19 -127,33 -190,53 -35,12 -70,24 -103,40 -23,12 -48,26 -63,48 -4,5 19,24 21,22z"/>
  <path class="fil0" d="M1302 2124c4,83 23,163 38,244 14,73 21,146 27,220 5,69 10,138 20,206 10,63 26,127 57,183 8,14 37,9 27,-8 -31,-55 -45,-118 -55,-181 -11,-67 -15,-136 -20,-204 -5,-71 -13,-142 -26,-212 -15,-80 -34,-161 -38,-243 -1,-15 -31,-22 -30,-5z"/>
  <path class="fil0" d="M1436 2957c53,-28 117,-38 175,-50 70,-15 141,-28 210,-49 73,-23 143,-59 213,-90 82,-36 165,-71 251,-93 39,-11 78,-17 117,-20 7,-1 15,-3 20,-8 5,-5 -4,-6 -7,-5 -174,12 -335,93 -492,163 -32,14 -64,29 -98,40 -33,11 -67,19 -101,27 -69,16 -140,28 -209,46 -33,9 -66,19 -97,35 -2,1 -9,6 -3,8 7,2 15,-1 21,-4z"/>
  <path class="fil0" d="M1699 1971c82,-26 168,-36 254,-42 87,-5 174,-6 262,-6 5,0 15,0 18,-4 3,-5 -9,-6 -11,-6 -92,0 -183,0 -275,6 -89,6 -179,17 -264,44 -19,6 8,11 16,8z"/>
  <path class="fil0" d="M2205 1925c95,227 111,474 141,716 1,8 27,12 27,14 -30,-243 -46,-490 -141,-719 -2,-4 -12,-8 -16,-10 -1,0 -13,-5 -11,-1z"/>
  <path class="fil0" d="M1642 2013c-7,147 44,289 73,432 14,69 24,140 39,210 13,63 30,128 67,182 3,6 10,10 16,14 1,1 10,6 6,0 -36,-53 -52,-117 -65,-179 -15,-70 -25,-140 -39,-210 -28,-142 -80,-283 -73,-430 0,-4 -8,-9 -10,-12 -1,0 -14,-8 -14,-7z"/>
  <path class="fil0" d="M1725 1964c58,285 162,559 209,846 2,12 31,19 29,7 -47,-287 -151,-561 -208,-846 -3,-12 -32,-19 -30,-7z"/>
  <path class="fil0" d="M2207 1925c70,-63 146,-121 203,-196 1,-2 -24,-18 -27,-14 -58,75 -133,133 -203,196 0,1 22,19 27,14z"/>
  <path class="fil0" d="M2363 1731c32,296 41,596 111,886 3,14 32,2 28,-12 -70,-288 -78,-587 -109,-880 -2,-16 -31,-7 -30,6z"/>
  <path class="fil0" d="M2391 2679c1,-37 24,-74 41,-105 19,-38 40,-76 51,-118 5,-16 -22,-27 -27,-9 -11,42 -34,81 -54,119 -18,35 -37,72 -38,112 0,18 27,21 27,1z"/>
  <path class="fil0" d="M2303 1745c16,-10 36,-9 54,-5 19,5 23,-20 5,-24 -28,-7 -56,-8 -81,8 -14,8 8,29 22,21z"/>
  <path class="fil0" d="M1423 2978c31,-36 87,-51 131,-64 62,-19 126,-33 190,-47 60,-14 118,-29 176,-51 89,-33 176,-69 265,-102 65,-24 130,-46 196,-64 6,-2 7,-8 3,-12 -6,-4 -15,-6 -22,-4 -91,25 -181,58 -270,92 -83,33 -166,70 -251,96 -116,35 -239,49 -353,92 -33,12 -70,27 -93,54 -8,9 20,19 28,10z"/>
  <path class="fil0" d="M2054 569c-54,48 -109,98 -148,160 -2,4 8,15 11,11 38,-62 92,-112 147,-159 3,-3 -7,-15 -10,-12z"/>
  <path class="fil0" d="M2005 627c43,-50 125,-21 176,0 61,26 121,61 172,104 5,3 19,1 12,-5 -56,-46 -121,-85 -189,-111 -55,-22 -139,-46 -185,6 -5,5 9,10 14,6z"/>
  <path class="fil0" d="M1904 692c93,-40 207,-18 289,38 43,29 78,70 95,119 19,56 10,115 -13,168 -2,4 8,16 9,11 43,-97 55,-203 44,-309 -1,-4 -11,-14 -10,-6 11,104 -2,208 -43,304 3,4 6,8 9,11 24,-54 31,-112 15,-169 -15,-50 -48,-93 -88,-126 -82,-66 -201,-94 -301,-60 -5,2 -10,4 -15,6 -4,2 4,15 9,13z"/>
  <path class="fil0" d="M2213 1097c-55,62 -97,133 -148,198 -5,6 7,12 12,9 73,-49 147,-100 191,-179 2,-3 -1,-7 -4,-9 -22,-12 -35,-35 -55,-49 -8,-6 -14,4 -6,10 20,14 33,37 55,49 -1,-3 -2,-6 -3,-9 -43,78 -117,128 -189,177 4,3 8,6 12,9 50,-64 92,-134 146,-195 5,-7 -6,-16 -11,-11z"/>
  <path class="fil0" d="M941 957c-62,21 -90,79 -97,141 -8,67 10,135 50,190 38,54 97,90 157,116 65,28 132,50 196,80 90,43 175,96 245,168 76,77 127,173 161,274 2,6 16,1 15,-4 -43,-127 -113,-241 -216,-327 -103,-84 -227,-137 -350,-184 -93,-35 -182,-85 -224,-180 -35,-81 -37,-232 66,-266 8,-3 6,-10 -3,-8z"/>
  <path class="fil0" d="M869 976c-219,114 51,387 164,472 96,71 218,84 324,133 65,31 122,77 171,127 51,52 94,111 126,176 1,4 13,7 13,7 -70,-146 -201,-273 -352,-332 -81,-32 -170,-47 -246,-92 -40,-24 -75,-56 -108,-88 -94,-91 -259,-301 -80,-395 2,-1 -9,-10 -12,-8z"/>
  <path class="fil0" d="M850 1080c-38,93 -19,204 19,294 3,8 16,6 12,-3 -36,-87 -55,-194 -18,-283 3,-7 -9,-16 -13,-8z"/>
  <path class="fil0" d="M899 1205c-18,43 -15,92 -5,137 10,48 30,95 61,133 6,7 18,-2 12,-9 -29,-37 -48,-81 -58,-127 -10,-42 -13,-89 4,-130 3,-9 -11,-12 -14,-4z"/>
  <path class="fil0" d="M947 1305c-5,78 35,163 92,215 4,3 16,0 15,-1 -57,-52 -97,-136 -91,-214 0,-3 -16,-3 -16,0z"/>
  <path class="fil0" d="M1052 1357c13,78 48,164 117,209 4,3 17,-4 13,-7 -68,-45 -102,-130 -116,-208 -1,-4 -15,0 -14,6z"/>
  <path class="fil0" d="M1181 1405c13,88 68,161 123,228 3,4 17,-1 13,-6 -54,-67 -108,-139 -122,-226 -1,-5 -15,-2 -14,4z"/>
  <path class="fil0" d="M1318 1504c35,101 127,166 186,250 6,8 10,4 5,-3 -57,-82 -148,-144 -181,-241 -1,-3 -13,-13 -10,-6z"/>
  <path class="fil0" d="M281 1141c84,-57 203,-36 280,22 3,3 14,1 15,2 -44,-33 -96,-51 -150,-58 -54,-7 -113,0 -159,31 0,-1 11,5 14,3z"/>
  <path class="fil0" d="M465 1277c32,-49 109,-41 156,-18 6,3 15,-2 6,-6 -51,-25 -139,-37 -176,18 -3,5 11,11 14,6z"/>
  <path class="fil0" d="M2806 430c-59,-32 -130,-13 -187,15 -57,27 -119,73 -144,133 -3,8 11,12 14,6 23,-56 78,-97 129,-124 51,-28 123,-52 178,-22 7,4 18,-3 10,-8z"/>
  <path class="fil0" d="M2661 621c-59,1 -105,49 -131,99 -2,3 12,9 15,4 24,-47 69,-95 126,-96 7,-1 -6,-8 -10,-7z"/>
  <path class="fil0" d="M1729 1962c2,4 -3,12 -4,16 -4,11 -9,21 -14,32 -13,28 -26,56 -39,84 -11,25 -22,50 -29,77 -4,15 -6,29 7,40 5,5 -3,-8 -4,-10 7,7 3,6 3,-2 1,-3 1,-7 2,-11 3,-11 6,-22 10,-33 10,-26 22,-52 33,-77 11,-24 23,-48 33,-72 4,-7 15,-25 11,-34 -1,-3 -10,-12 -9,-10z"/>
  <path class="fil0" d="M1745 1989c-13,12 -20,31 -27,47 -11,28 -19,58 -26,87 -14,56 -27,116 -27,174 0,5 15,7 15,3 0,-55 12,-112 25,-165 7,-29 15,-58 25,-86 7,-19 14,-41 29,-55 4,-3 -10,-8 -14,-5z"/>
  <path class="fil0" d="M1766 2084c-14,13 -21,35 -27,53 -11,33 -20,67 -27,101 -13,55 -24,111 -33,167 -1,5 10,16 11,8 9,-52 19,-105 31,-157 7,-33 15,-67 26,-99 6,-19 12,-47 28,-61 5,-4 -4,-16 -9,-12z"/>
  <path class="fil0" d="M1800 2162c-16,12 -26,33 -34,51 -14,29 -23,60 -32,91 -8,31 -14,62 -18,93 -3,23 -6,48 -2,71 1,4 15,4 15,4 -4,-22 -1,-46 1,-68 4,-31 11,-62 18,-93 8,-30 18,-60 30,-89 9,-20 19,-43 37,-56 0,-1 -12,-7 -15,-4z"/>
  <path class="fil0" d="M1837 2249c-37,37 -54,93 -67,142 -14,49 -25,108 -13,159 0,2 15,0 15,0 -12,-50 0,-106 12,-155 13,-50 31,-108 68,-145 -2,1 -13,-4 -15,-1z"/>
  <path class="fil0" d="M1855 2353c-29,42 -48,91 -64,139 -15,47 -29,100 -22,149 0,3 15,2 15,2 -7,-50 8,-103 23,-149 15,-48 34,-98 63,-140 0,1 -13,-4 -15,-1z"/>
  <path class="fil0" d="M1899 2411c-39,36 -61,89 -77,138 -17,49 -31,104 -27,157 0,5 13,11 13,7 -4,-53 10,-107 27,-156 16,-49 38,-102 77,-138 2,-2 -9,-11 -13,-8z"/>
  <path class="fil0" d="M1923 2474c-59,86 -86,194 -105,295 -1,8 14,10 15,3 19,-101 45,-207 104,-293 5,-7 -10,-11 -14,-5z"/>
  <path class="fil0" d="M1967 2515c-68,107 -105,230 -130,353 -2,10 13,10 15,1 24,-121 60,-241 127,-346 5,-8 -7,-15 -12,-8z"/>
  <path class="fil0" d="M1991 2615c-21,67 -65,125 -104,183 -2,2 11,-3 12,-5 39,-59 84,-117 105,-185 0,-1 -12,3 -13,7z"/>
  <path class="fil0" d="M1118 1899c-75,32 -67,153 -8,196 7,5 17,-4 9,-10 -29,-21 -41,-56 -40,-91 0,-31 13,-68 44,-81 9,-4 3,-17 -5,-14z"/>
  <path class="fil0" d="M1041 1976c45,86 176,78 256,68 56,-7 112,-21 165,-40 40,-14 82,-31 114,-59 1,-1 2,-2 3,-3 6,-5 -3,-17 -9,-11 -30,26 -69,43 -106,56 -51,19 -104,32 -157,40 -51,8 -104,11 -155,3 -39,-7 -81,-23 -100,-59 -4,-9 -15,-3 -11,5z"/>
  <path class="fil0" d="M1115 1945c-31,41 -5,119 45,133 8,3 16,-11 7,-13 -40,-11 -67,-77 -41,-112 6,-8 -5,-16 -11,-8z"/>
  <path class="fil0" d="M1206 1983c-7,28 4,51 31,62 4,2 14,-8 12,-9 -26,-11 -36,-33 -30,-60 0,-2 -12,3 -13,7z"/>
  <path class="fil0" d="M1285 1989c0,10 2,20 9,27 8,8 22,12 32,14 1,1 6,2 3,0 -3,-1 -6,-2 -10,-3 -15,-4 -19,-19 -20,-33 0,-3 -14,-4 -14,-5z"/>
  <path class="fil0" d="M1370 2010c1,20 9,34 29,41 3,1 8,1 10,-2 3,-2 0,-5 -2,-6 -16,-5 -21,-17 -21,-33 0,-6 -16,-6 -16,0z"/>
  <path class="fil0" d="M1935 1734c54,-19 109,-38 166,-45 51,-6 135,-2 134,67 0,48 -51,84 -87,107 -43,26 -93,47 -143,57 -10,3 -20,4 -30,4 1,0 4,13 9,13 44,-1 89,-20 129,-38 45,-21 94,-50 120,-94 21,-36 9,-79 -22,-106 -43,-36 -110,-26 -160,-15 -43,9 -84,23 -125,38 -1,0 6,13 9,12z"/>
  <path class="fil0" d="M2169 1728c31,1 50,15 61,44 2,7 17,7 14,-2 -12,-34 -38,-54 -75,-54 -10,0 -9,12 0,12z"/>
  <path class="fil0" d="M2176 1767c1,21 12,38 19,57 1,4 13,12 10,5 -6,-18 -17,-35 -18,-54 0,-4 -11,-14 -11,-8z"/>
  <path class="fil0" d="M2126 1798c1,22 6,43 13,63 1,4 14,12 11,4 -6,-19 -11,-40 -12,-60 0,-5 -12,-13 -12,-7z"/>
  <path class="fil0" d="M2064 1817c-7,15 -7,30 -7,45 0,8 16,10 16,2 0,-14 -1,-28 5,-41 4,-8 -11,-13 -14,-6z"/>
  <path class="fil0" d="M2008 1832c0,23 -6,46 -12,68 -1,2 14,4 15,0 6,-22 12,-45 13,-68 0,-3 -16,-3 -16,0z"/>
  <path class="fil0" d="M1936 1835c-12,19 -13,40 -13,62 0,5 14,10 14,6 0,-22 0,-42 12,-61 2,-4 -11,-11 -13,-7z"/>
  <path class="fil0" d="M1871 1863c-15,8 -26,21 -31,37 -1,3 8,13 9,12 5,-16 15,-29 30,-36 2,-1 -6,-14 -8,-13z"/>
  <path class="fil0" d="M1801 1884c-17,17 -32,37 -49,55 -2,1 10,10 13,8 17,-18 32,-38 49,-56 2,-1 -10,-10 -13,-7z"/>
  <path class="fil0" d="M2248 1877c-13,40 -18,81 -18,123 0,5 14,1 14,-4 0,-42 6,-83 18,-123 2,-4 -13,0 -14,4z"/>
  <path class="fil0" d="M2329 1785c-24,47 -47,94 -66,143 -17,47 -33,98 -26,148 1,6 13,13 12,4 -7,-51 11,-104 29,-151 18,-46 40,-90 63,-135 2,-5 -9,-16 -12,-9z"/>
  <path class="fil0" d="M2371 1782c-23,58 -46,115 -64,175 -16,54 -35,122 -16,178 2,7 17,3 14,-4 -18,-55 2,-122 18,-176 17,-58 40,-114 62,-171 3,-8 -12,-9 -14,-2z"/>
  <path class="fil0" d="M2395 1858c-35,47 -56,105 -72,161 -18,58 -32,121 -32,183 0,1 15,0 15,-3 0,-61 14,-121 30,-179 17,-57 38,-116 74,-164 0,0 -13,-1 -15,2z"/>
  <path class="fil0" d="M2395 1978c-16,57 -38,112 -56,169 -17,53 -34,113 -24,170 1,5 16,6 15,0 -10,-56 8,-115 24,-168 17,-56 40,-111 56,-168 1,-6 -14,-9 -15,-3z"/>
  <path class="fil0" d="M2415 2062c-17,58 -42,113 -59,171 -16,53 -32,114 -15,170 2,6 15,9 12,0 -18,-56 2,-121 19,-175 17,-54 39,-105 55,-159 2,-6 -10,-15 -12,-7z"/>
  <path class="fil0" d="M2420 2178c-16,59 -39,116 -56,174 -8,31 -16,61 -19,93 -2,19 -3,42 10,58 5,7 16,3 9,-5 -12,-14 -7,-40 -5,-57 4,-31 13,-62 21,-92 17,-55 38,-108 53,-163 2,-7 -11,-15 -13,-8z"/>
  <path class="fil0" d="M2420 2308c-12,51 -33,99 -49,149 -15,45 -29,96 -19,143 2,9 17,7 15,-2 -10,-48 6,-100 21,-145 15,-47 35,-92 46,-140 2,-9 -12,-13 -14,-5z"/>
  <path class="fil0" d="M2440 2397c-24,29 -36,65 -46,100 -11,36 -18,72 -22,109 0,4 11,11 11,10 4,-38 12,-76 23,-113 10,-33 22,-68 45,-95 2,-2 -10,-12 -11,-11z"/>
  <path class="fil0" d="M1966 652c-19,32 -30,68 -31,105 0,5 14,10 15,4 0,-37 12,-72 30,-104 3,-4 -11,-10 -14,-5z"/>
  <path class="fil0" d="M2010 652c-27,28 -38,69 -38,107 -1,8 15,7 15,0 0,-37 10,-75 35,-102 7,-7 -7,-10 -12,-5z"/>
  <path class="fil0" d="M2053 663c-32,39 -45,89 -57,138 -2,9 13,11 15,2 12,-46 23,-94 53,-132 7,-7 -5,-16 -11,-8z"/>
  <path class="fil0" d="M2089 697c-24,33 -32,78 -38,117 -1,7 14,6 15,0 6,-39 13,-83 37,-115 4,-7 -11,-7 -14,-2z"/>
  <path class="fil0" d="M2147 716c-30,43 -44,92 -56,142 -1,5 8,17 9,10 13,-49 26,-98 55,-140 3,-4 -5,-17 -8,-12z"/>
  <path class="fil0" d="M2187 740c-43,69 -55,151 -80,228 -3,6 13,5 15,-1 24,-76 36,-157 79,-226 4,-6 -11,-6 -14,-1z"/>
  <path class="fil0" d="M2218 798c-43,63 -61,137 -80,209 -2,6 12,12 14,7 19,-72 37,-146 79,-209 3,-4 -10,-12 -13,-7z"/>
  <path class="fil0" d="M2254 868c-44,45 -66,107 -86,165 -1,2 14,6 15,4 20,-59 42,-121 86,-166 -1,0 -12,-6 -15,-3z"/>
  <path class="fil0" d="M2263 931c-45,51 -75,112 -106,173 -3,7 10,1 12,-3 30,-59 60,-119 103,-170 7,-8 -6,-4 -9,0z"/>
  <path class="fil0" d="M2231 1044c-80,109 -164,215 -234,331 -5,8 8,14 13,7 70,-116 154,-222 233,-331 6,-8 -7,-14 -12,-7z"/>
  <path class="fil0" d="M1655 691c-71,43 -106,127 -122,205 -16,76 -18,169 22,239 2,3 16,-2 14,-4 -38,-68 -37,-156 -23,-231 15,-77 50,-165 120,-208 6,-4 -9,-2 -11,-1z"/>
  <path class="fil0" d="M1742 626c-95,35 -142,136 -167,228 -26,97 -34,206 -14,304 1,6 16,6 15,-1 -19,-94 -11,-196 11,-288 22,-91 68,-200 163,-234 9,-4 -1,-12 -8,-9z"/>
  <path class="fil0" d="M1136 851c100,-27 191,30 257,101 65,70 115,157 146,247 2,6 13,12 10,3 -33,-96 -87,-187 -155,-260 -68,-73 -163,-131 -265,-104 -5,2 2,15 7,13z"/>
  <path class="fil0" d="M2469 792c-21,152 -88,288 -191,401 -99,108 -223,190 -340,276 -86,65 -171,134 -234,223 -31,44 -55,93 -72,144 -8,27 -14,55 -18,84 -5,33 -10,67 -10,100 0,7 14,13 14,4 0,-22 1,-44 6,-66 4,-18 4,-39 7,-57 7,-35 17,-68 30,-100 25,-62 64,-117 109,-166 93,-101 210,-175 318,-257 97,-73 190,-150 262,-248 71,-97 116,-211 133,-331 0,-6 -13,-14 -14,-7z"/>
  <path class="fil0" d="M852 980c-44,49 -61,121 -69,186 -8,66 -6,140 20,202 4,9 13,5 9,-4 -25,-59 -25,-129 -18,-191 7,-63 24,-133 67,-181 4,-5 -4,-17 -9,-12z"/>
  <path class="fil0" d="M850 1055c-39,65 -36,151 -28,223 7,74 24,156 65,219 4,7 18,4 13,-4 -40,-61 -55,-141 -63,-212 -8,-69 -12,-156 26,-217 5,-8 -9,-15 -13,-9z"/>
  <path class="fil0" d="M874 1231c-14,55 10,114 33,163 25,55 58,106 90,157 2,4 16,2 14,-1 -31,-51 -62,-100 -88,-153 -23,-50 -48,-110 -34,-166 1,-3 -14,-5 -15,0z"/>
  <path class="fil0" d="M1003 1330c-37,96 41,189 104,253 3,3 17,-2 14,-4 -62,-63 -139,-156 -104,-250 2,-4 -13,-3 -14,1z"/>
  <path class="fil0" d="M966 1276c-5,68 20,130 67,178 3,3 15,-5 15,-4 -47,-48 -73,-110 -67,-178 0,0 -15,1 -15,4z"/>
  <path class="fil0" d="M1070 1266c-3,53 8,107 24,157 15,49 38,101 74,138 3,3 15,3 15,3 -37,-38 -58,-89 -74,-138 -16,-49 -27,-104 -24,-156 0,-3 -15,-5 -15,-4z"/>
  <path class="fil0" d="M1156 1335c-18,42 -4,92 12,131 19,45 45,91 81,124 4,3 18,-1 13,-6 -34,-30 -58,-72 -76,-114 -17,-40 -33,-92 -15,-134 2,-6 -13,-6 -15,-1z"/>
  <path class="fil0" d="M1243 1408c-32,81 18,170 80,221 6,4 18,-5 12,-10 -58,-47 -109,-133 -79,-209 3,-9 -11,-8 -13,-2z"/>
  <path class="fil0" d="M1336 1440c-7,42 0,87 15,127 14,38 36,77 72,99 6,4 0,-9 -4,-11 -33,-21 -52,-58 -63,-95 -11,-34 -16,-73 -10,-109 1,-4 -9,-14 -10,-11z"/>
  <path class="fil0" d="M1414 1511c-5,61 31,112 55,166 1,1 15,-6 14,-8 -24,-53 -60,-104 -55,-165 0,1 -13,3 -14,7z"/>
  <path class="fil0" d="M1475 1556c-6,66 9,143 49,197 2,3 16,1 15,-1 -40,-54 -55,-130 -49,-196 0,-2 -15,-3 -15,0z"/>
  <path class="fil0" d="M1536 1623c-5,61 13,118 37,173 2,4 17,4 15,-1 -24,-54 -42,-110 -37,-170 1,-5 -15,-7 -15,-2z"/>
  <path class="fil0" d="M1579 1680c1,53 13,105 31,154 2,7 17,3 15,-4 -18,-48 -30,-100 -31,-152 0,-7 -15,-5 -15,2z"/>
  <path class="fil0" d="M1622 1640c-11,81 12,160 19,240 0,6 15,10 14,3 -6,-80 -30,-159 -18,-239 1,-6 -14,-11 -15,-4z"/>
  <path class="fil0" d="M1650 1693c6,126 18,256 -18,378 -2,5 7,16 8,13 36,-125 25,-255 18,-383 0,-3 -9,-15 -8,-8z"/>
  <path class="fil0" d="M1018 863c-61,11 -111,56 -148,104 -37,49 -67,111 -67,173 0,4 10,12 10,11 0,-61 29,-120 64,-168 36,-49 87,-96 149,-107 4,-1 -4,-14 -8,-13z"/>
  <path class="fil0" d="M1421 948c-76,-23 -151,-52 -232,-60 -69,-8 -138,1 -201,31 -122,59 -195,191 -170,325 1,3 16,1 16,-1 -24,-125 37,-247 146,-311 63,-37 134,-48 207,-40 76,7 148,37 221,58 3,1 16,-1 13,-2z"/>
  <path class="fil0" d="M40 1112c12,29 34,45 63,57 6,2 18,-7 10,-10 -27,-11 -47,-26 -59,-54 -2,-5 -16,1 -14,7z"/>
  <path class="fil0" d="M58 1087c23,36 64,57 100,75 5,2 18,-5 11,-9 -35,-17 -75,-38 -96,-72 -4,-5 -17,2 -15,6z"/>
  <path class="fil0" d="M133 1089c16,22 38,36 64,43 8,2 -2,-9 -6,-10 -19,-5 -35,-14 -46,-30 -2,-3 -5,-6 -9,-7 -3,-1 -4,1 -3,4z"/>
  <path class="fil0" d="M204 1102c12,13 25,25 44,25 -2,0 -5,-12 -9,-13 -18,0 -30,-12 -42,-23 -2,-3 0,2 1,3 1,3 3,6 6,8z"/>
  <path class="fil0" d="M242 1083c0,21 16,33 34,39 4,2 18,1 8,-3 -15,-5 -26,-17 -27,-34 0,-4 -15,-5 -15,-2z"/>
  <path class="fil0" d="M305 1107c10,10 20,19 32,26 7,3 18,-7 9,-12 -11,-5 -20,-14 -29,-23 -6,-6 -19,2 -12,9z"/>
  <path class="fil0" d="M356 1086c9,18 24,29 42,36 3,1 5,-4 4,-6 0,-4 -3,-7 -7,-8 -13,-5 -24,-14 -31,-26 -4,-9 -13,-4 -8,4z"/>
  <path class="fil0" d="M408 1106c1,20 7,38 13,56 1,5 15,9 13,3 -6,-18 -11,-35 -12,-54 0,-5 -14,-10 -14,-5z"/>
  <path class="fil0" d="M83 1222c27,27 57,50 86,74 3,2 17,-4 14,-7 -30,-23 -59,-47 -86,-73 -3,-3 -17,3 -14,6z"/>
  <path class="fil0" d="M163 1247c13,12 34,19 50,25 5,2 18,-6 11,-8 -16,-5 -35,-12 -48,-24 -3,-3 -17,3 -13,7z"/>
  <path class="fil0" d="M214 1231c10,26 36,37 62,38 7,0 2,-14 -4,-14 -17,-1 -41,-6 -48,-24 -3,-7 -14,-9 -10,0z"/>
  <path class="fil0" d="M282 1242c11,10 26,15 40,20 9,3 10,-10 2,-13 -11,-3 -24,-7 -33,-16 -7,-6 -16,2 -9,9z"/>
  <path class="fil0" d="M335 1225c8,14 21,22 35,29 2,1 7,3 9,0 2,-3 -2,-7 -4,-9 -10,-5 -21,-10 -27,-20 -2,-4 -5,-6 -9,-6 -4,0 -6,3 -4,6z"/>
  <path class="fil0" d="M383 1217c4,6 8,12 14,17 6,4 14,7 22,7 3,0 4,-1 2,-3 -3,-2 -7,-4 -10,-4 -4,0 -4,0 -6,-2 -3,-3 -5,-7 -7,-11 -2,-3 -6,-4 -8,-5 -1,0 -8,-2 -7,1z"/>
  <path class="fil0" d="M433 1223c12,6 25,12 37,18 4,2 16,-6 13,-7 -12,-6 -25,-12 -37,-19 -4,-2 -16,6 -13,8z"/>
  <path class="fil0" d="M121 1355c8,62 79,98 136,86 9,-2 4,-16 -3,-15 -50,10 -113,-18 -121,-73 -1,-9 -14,-8 -12,2z"/>
  <path class="fil0" d="M201 1349c-9,24 17,44 36,53 31,14 70,21 103,13 3,-1 -6,-12 -10,-11 -22,5 -45,3 -67,-2 -20,-4 -62,-15 -51,-43 2,-4 -11,-11 -11,-10z"/>
  <path class="fil0" d="M273 1351c26,31 80,36 117,37 4,0 12,-7 13,-7 -37,0 -90,-5 -116,-36 -2,-2 -14,6 -14,6z"/>
  <path class="fil0" d="M385 1344c16,15 41,14 62,15 10,0 5,-10 -2,-10 -16,0 -36,2 -49,-9 -4,-4 -18,-2 -11,4z"/>
  <path class="fil0" d="M438 1318c6,5 15,6 22,6 10,-1 20,-3 29,-7 3,-1 -2,-2 -3,-2 -3,0 -7,1 -10,2 -7,3 -16,4 -23,-1 -2,-2 -7,-1 -9,0 -1,0 -7,1 -6,2z"/>
  <path class="fil0" d="M497 1316c11,-1 20,-6 31,-6 4,0 8,-2 10,-5 2,-3 0,-5 -3,-5 -10,0 -20,6 -30,6 -4,0 -8,2 -10,5 -2,2 -1,5 2,5z"/>
  <path class="fil0" d="M565 1303c8,0 16,0 24,0 4,0 8,-1 10,-4 2,-3 1,-5 -2,-5 -8,0 -17,0 -25,0 -3,0 -7,2 -10,5 -2,2 -1,4 3,4z"/>
  <path class="fil0" d="M647 1302c8,0 14,0 22,3 2,2 6,3 10,3 3,-1 -1,-3 -2,-4 -13,-6 -26,-8 -40,-8 -2,0 -3,1 -1,2 3,2 7,4 11,4z"/>
  <path class="fil0" d="M3027 314c29,43 -12,90 -55,102 -8,2 -9,14 1,11 48,-13 102,-68 68,-119 -4,-6 -18,1 -14,6z"/>
  <path class="fil0" d="M2997 326c-31,38 -45,87 -80,122 -5,6 9,13 13,8 35,-36 49,-84 80,-123 4,-5 -9,-12 -13,-7z"/>
  <path class="fil0" d="M2948 362c-20,20 -43,37 -66,54 -6,4 5,15 10,11 24,-18 47,-35 68,-56 5,-4 -7,-14 -12,-9z"/>
  <path class="fil0" d="M2905 356c-22,22 -43,44 -62,68 -3,5 10,12 14,7 18,-24 39,-45 61,-66 4,-5 -9,-13 -13,-9z"/>
  <path class="fil0" d="M2864 374c-28,21 -51,46 -70,76 -5,8 9,11 14,4 17,-27 39,-51 65,-70 8,-6 -1,-16 -9,-10z"/>
  <path class="fil0" d="M2804 405c-28,15 -51,38 -71,63 -5,8 9,11 13,5 18,-23 38,-45 64,-59 9,-5 2,-13 -6,-9z"/>
  <path class="fil0" d="M3051 476c-18,48 -35,100 -78,132 -7,6 6,12 12,7 44,-33 62,-87 81,-137 3,-8 -12,-9 -15,-2z"/>
  <path class="fil0" d="M2996 523c-26,33 -56,63 -85,92 -5,5 10,9 14,5 29,-29 59,-59 85,-92 4,-4 -10,-9 -14,-5z"/>
  <path class="fil0" d="M2938 564c-26,14 -50,31 -73,49 -8,6 0,15 7,10 24,-18 48,-36 74,-49 9,-5 0,-14 -8,-10z"/>
  <path class="fil0" d="M2854 590c-29,8 -53,26 -67,52 -2,5 13,5 15,1 12,-22 32,-40 57,-46 9,-3 2,-9 -5,-7z"/>
  <path class="fil0" d="M2791 594c-22,8 -39,25 -52,44 -4,7 9,15 13,8 12,-16 27,-33 47,-41 9,-3 -1,-14 -8,-11z"/>
  <path class="fil0" d="M2735 606c-26,7 -49,19 -68,37 -3,3 8,14 11,11 18,-18 41,-30 66,-36 4,-1 -5,-13 -9,-12z"/>
  <path class="fil0" d="M2954 683c42,38 3,97 -42,108 -8,2 -11,12 -1,9 51,-12 106,-79 56,-125 -4,-4 -17,4 -13,8z"/>
  <path class="fil0" d="M2936 718c-31,37 -56,79 -86,117 -4,4 8,13 13,8 30,-37 55,-79 86,-117 4,-5 -9,-13 -13,-8z"/>
  <path class="fil0" d="M2880 756c-22,15 -40,35 -56,56 -1,1 12,8 15,4 16,-20 33,-40 55,-54 2,-1 -11,-8 -14,-6z"/>
  <path class="fil0" d="M2834 765c-18,12 -37,24 -55,36 -2,2 6,15 7,14 19,-13 37,-25 56,-37 1,-1 -7,-14 -8,-13z"/>
  <path class="fil0" d="M2773 771c-30,6 -56,19 -75,44 -3,3 6,15 10,11 18,-24 43,-36 72,-42 5,-1 -2,-14 -7,-13z"/>
  <path class="fil0" d="M2710 778c-26,0 -44,14 -55,37 -1,2 10,11 10,11 12,-22 30,-36 55,-37 -2,0 -6,-11 -10,-11z"/>
  <path class="fil0" d="M2649 809c-23,0 -39,10 -51,28 -5,7 10,8 14,3 9,-13 19,-20 35,-21 8,0 12,-10 2,-10z"/>
  <path class="fil0" d="M2596 825c-26,8 -41,26 -48,52 0,0 14,1 15,-3 5,-20 16,-41 38,-47 10,-2 0,-3 -5,-2z"/>
  <path class="fil0" d="M2573 840c-14,1 -29,5 -38,16 -9,12 -7,28 -4,42 0,2 14,-4 13,-8 -2,-10 -3,-19 -1,-29 2,-11 10,-12 20,-12 3,0 15,-9 10,-9z"/>
  <path class="fil0" d="M2533 876c-28,15 -45,41 -40,73 1,8 16,9 15,0 -5,-27 10,-49 34,-62 8,-4 -2,-15 -9,-11z"/>
  <path class="fil0" d="M2349 575c62,4 99,72 118,123 20,54 33,126 8,181 -3,6 11,12 14,6 27,-61 12,-138 -12,-197 -22,-56 -65,-120 -132,-125 -10,-1 -3,11 4,12z"/>
  <path class="fil0" d="M2360 534c8,19 28,33 44,44 27,20 52,38 69,69 32,59 40,133 40,199 0,4 12,11 12,9 -1,-66 -9,-137 -39,-197 -12,-23 -28,-42 -48,-59 -10,-8 -22,-17 -33,-25 -13,-9 -27,-18 -34,-32 -1,-3 -12,-11 -11,-8z"/>
  <path class="fil0" d="M2381 525c52,27 96,64 121,119 25,54 29,117 34,175 1,8 15,11 15,2 -6,-62 -11,-127 -38,-185 -26,-55 -73,-93 -126,-121 -8,-5 -15,5 -6,10z"/>
  <path class="fil0" d="M739 1041c-15,42 -23,87 -25,132 -2,45 4,94 31,132 2,3 16,0 15,-1 -27,-38 -32,-86 -31,-131 2,-45 10,-90 25,-132 0,-1 -14,-3 -15,0z"/>
  <path class="fil0" d="M710 1067c-71,67 -25,178 11,251 3,6 18,7 14,-2 -34,-68 -81,-175 -14,-239 6,-6 -5,-16 -11,-10z"/>
  <path class="fil0" d="M46 930c81,-92 203,-175 332,-151 9,1 9,-14 0,-15 -132,-24 -258,59 -342,155 -5,6 4,18 10,11z"/>
  <path class="fil0" d="M57 882c101,-63 200,-157 328,-153 9,1 8,-14 -1,-14 -131,-5 -230,88 -334,154 -8,5 0,18 7,13z"/>
  <path class="fil0" d="M102 1504c-2,38 34,60 65,72 39,14 81,19 123,23 6,1 -2,-11 -7,-12 -34,-4 -68,-8 -101,-17 -29,-8 -70,-22 -68,-59 1,-5 -11,-14 -12,-7z"/>
  <path class="fil0" d="M65 1517c27,108 157,141 254,136 4,-1 16,-9 8,-9 -96,6 -222,-28 -249,-134 0,-3 -14,2 -13,7z"/>
  <path class="fil0" d="M2538 169c18,-41 59,-67 97,-87 40,-20 84,-34 127,-42 6,-1 14,-11 4,-10 -48,9 -95,25 -138,47 -41,21 -85,51 -104,94 -2,7 12,2 14,-2z"/>
  <path class="fil0" d="M2452 192c42,-55 102,-96 164,-127 64,-32 136,-55 208,-56 6,0 -6,-9 -10,-9 -71,0 -142,23 -206,54 -64,31 -126,74 -169,131 -3,3 10,11 13,7z"/>
  <path class="fil0" d="M3089 694c5,100 -61,201 -135,263 -1,1 10,11 13,9 74,-63 140,-164 135,-265 0,-3 -13,-9 -13,-7z"/>
  <path class="fil0" d="M3125 670c10,93 -34,184 -83,260 -51,79 -119,156 -199,207 -8,5 -5,9 2,5 80,-50 147,-124 200,-201 54,-79 104,-179 94,-277 0,-4 -14,2 -14,6z"/>
  <path class="fil0" d="M1352 2119c-11,56 -1,113 12,167 6,27 14,53 20,80 8,31 12,62 16,94 20,130 37,261 63,391 1,7 16,7 15,-1 -25,-125 -42,-252 -61,-379 -4,-30 -7,-62 -14,-91 -7,-28 -15,-56 -22,-84 -14,-57 -26,-116 -14,-174 2,-8 -13,-11 -15,-3z"/>
  <path class="fil0" d="M1826 1944c22,30 35,66 54,97 3,6 18,6 14,-1 -19,-32 -33,-68 -56,-99 -4,-5 -18,-4 -12,3z"/>
  <path class="fil0" d="M1886 1973c0,25 6,50 12,75 2,8 17,7 15,-2 -6,-24 -12,-47 -12,-72 0,-8 -15,-10 -15,-1z"/>
  <path class="fil0" d="M1924 1982c0,40 6,80 18,118 1,4 15,11 13,5 -12,-38 -18,-77 -18,-116 0,-5 -13,-12 -13,-7z"/>
  <path class="fil0" d="M1960 2055c-6,32 -5,63 6,94 2,5 16,-2 14,-8 -11,-29 -12,-59 -6,-89 1,-8 -13,-2 -14,3z"/>
  <path class="fil0" d="M1984 2124c-17,49 -6,96 6,145 2,8 17,6 15,-2 -12,-46 -23,-92 -6,-138 3,-8 -12,-12 -15,-5z"/>
  <path class="fil0" d="M2010 2239c-19,38 -25,80 -25,123 0,3 13,7 13,8 0,-42 6,-84 24,-122 1,-2 -12,-10 -12,-9z"/>
  <path class="fil0" d="M1531 2068c-35,44 -25,114 -7,163 2,6 17,7 14,0 -16,-47 -27,-114 6,-156 5,-6 -9,-12 -13,-7z"/>
  <path class="fil0" d="M1506 2159c-36,39 -6,89 12,129 1,2 15,-3 15,-4 -18,-40 -49,-90 -13,-128 -1,1 -11,0 -14,3z"/>
  <path class="fil0" d="M1470 2227c-11,49 19,89 43,129 2,4 12,6 13,7 -24,-40 -54,-79 -43,-128 0,-3 -13,-8 -13,-8z"/>
  <path class="fil0" d="M1451 2290c-32,56 20,116 63,147 5,4 18,-2 10,-8 -38,-28 -89,-84 -59,-135 4,-7 -11,-9 -14,-4z"/>
  <path class="fil0" d="M1426 2449c25,160 32,325 87,479 1,5 15,-2 13,-8 -55,-153 -61,-318 -86,-477 -1,-7 -15,0 -14,6z"/>
  <path class="fil0" d="M1493 2536c25,127 30,258 74,381 2,4 16,7 15,2 -45,-122 -49,-253 -74,-380 -1,-5 -16,-8 -15,-3z"/>
  <path class="fil0" d="M2291 2345c-6,99 29,193 49,289 1,4 15,6 14,4 -19,-96 -54,-189 -49,-288 1,-4 -14,-7 -14,-5z"/>
  <path class="fil0" d="M2243 2374c1,91 42,175 49,264 1,5 12,15 12,8 -7,-90 -48,-174 -49,-264 0,-5 -12,-15 -12,-8z"/>
  <path class="fil0" d="M2052 2757c64,-35 134,-55 197,-92 3,-2 -8,-11 -12,-9 -62,37 -133,57 -196,92 -4,2 8,11 11,9z"/>
  <path class="fil0" d="M1978 2705c-3,28 72,-2 81,-5 42,-16 85,-34 122,-59 6,-4 -9,0 -11,2 -31,20 -66,35 -100,48 -8,3 -80,33 -78,10 1,-3 -13,1 -14,4z"/>
  <path class="fil0" d="M1961 2707c30,-30 73,-45 112,-60 43,-18 88,-32 132,-50 8,-4 -5,-10 -10,-8 -45,18 -91,33 -136,51 -38,15 -81,31 -111,60 -5,5 9,11 13,7z"/>
 </g>
</svg>
