<?xml version="1.0" encoding="UTF-8"?>
<!DOCTYPE svg PUBLIC "-//W3C//DTD SVG 1.1//EN" "http://www.w3.org/Graphics/SVG/1.1/DTD/svg11.dtd">
<!-- Creator: CorelDRAW X8 -->
<svg xmlns="http://www.w3.org/2000/svg" xml:space="preserve" width="2.95603in" height="2.66348in" version="1.1" style="shape-rendering:geometricPrecision; text-rendering:geometricPrecision; image-rendering:optimizeQuality; fill-rule:evenodd; clip-rule:evenodd"
viewBox="0 0 734 661"
 xmlns:xlink="http://www.w3.org/1999/xlink">
 <defs>
  <style type="text/css">
   <![CDATA[
    .fil0 {fill:#FF2020;fill-rule:nonzero}
    .fil1 {fill:white;fill-rule:nonzero}
   ]]>
  </style>
 </defs>
 <g id="Layer_x0020_1">
  <metadata id="CorelCorpID_0Corel-Layer"/>
  <path class="fil0" d="M710 114c2,-2 3,-4 3,-6 -1,1 -3,3 -3,6z"/>
  <path class="fil0" d="M732 216c5,-16 0,-34 -6,-51 2,-2 4,0 6,1 0,-1 -9,-11 -18,-18 -1,-3 -2,-5 -4,-8 -2,-7 -2,-15 -4,-22 -4,-12 -11,-21 -19,-30 10,8 18,16 23,33 8,-19 -24,-32 -22,-50l1 1c-15,-11 -25,-31 -42,-38 -9,-2 -21,-5 -29,-3 -1,-1 -3,-1 -5,-2 -4,-1 -10,-3 -15,-6 -1,-1 -2,-2 2,-3 7,13 17,3 30,5 -6,-2 -9,-4 -15,-1 -5,-2 0,-5 -3,-7l-10 2 -1 -7c-5,1 -10,1 -15,1 2,-7 -13,-3 -6,-9 -11,0 -17,-5 -27,1 -7,-4 12,-4 4,-5 -44,2 -85,16 -122,35l2 -5c-3,5 -6,10 -7,13 -9,-1 -37,11 -37,26 -1,0 -1,-2 -1,-3 -9,10 -33,25 -43,46 3,7 -4,16 -8,24 -5,-2 -12,-1 -17,-3 2,-4 7,-2 12,-2 -10,-13 -38,-26 -52,-44 -9,0 -2,8 -10,6 -5,-4 -7,-11 2,-8 -13,-22 -57,-20 -80,-35 -16,4 -7,7 -29,8 6,-3 -3,-14 10,-12l2 -4c-21,-5 -53,-8 -65,6 -2,-9 -4,-2 -14,-5 -3,2 1,1 2,2 -7,9 -13,2 -19,5l2 -2c-6,4 -11,7 -16,12 -3,0 -8,1 -10,-1l3 5c-8,6 -9,-4 -19,6 2,0 4,1 6,1 -9,5 -13,19 -18,16 -1,-1 0,-1 1,-4 -15,5 -13,28 -22,39l11 0c-2,13 -5,7 -8,5 -3,9 -6,10 -10,21 1,6 3,4 5,6l-4 11 -4 -8c11,20 -5,45 9,56 -3,7 -7,-5 -8,-1 -6,21 14,43 10,61 -2,28 14,56 20,86l2 -2 7 21c8,2 12,17 22,21 -2,1 -4,4 -7,3 6,7 13,15 12,21l-3 -2c9,19 25,42 36,47 4,5 0,8 -1,11 7,10 14,14 24,18 1,3 2,5 2,9l8 -1c2,4 -3,4 -2,8 18,8 29,27 39,35l1 -4c5,2 10,12 4,10 17,19 35,15 62,35 -2,12 28,12 26,26 14,4 20,13 32,10 0,1 1,2 -1,1 3,7 22,12 36,14l0 4c8,-6 30,4 38,-3 1,3 -4,3 -6,4 5,10 14,0 23,4 -2,2 1,5 -2,6 9,3 14,9 37,5 15,-4 24,-11 34,-18 17,-14 32,-30 49,-42 8,-8 -9,-4 2,-14 6,0 1,11 9,6 1,-9 3,-10 10,-16 1,3 3,3 0,9 7,-1 11,-21 23,-24 -2,-1 -2,-3 -2,-6 4,-16 29,-22 26,-26 0,0 3,-5 -1,-2 4,-4 10,-10 12,-6 0,-4 -1,-8 1,-12l3 5c1,-2 0,-7 1,-9l-5 1c7,-2 7,-19 14,-13l-1 2 11 -7c0,-6 0,-12 5,-18 10,3 14,-16 20,-25l3 3c1,-10 13,-26 9,-24 4,-7 12,-14 12,-9 2,-7 9,-18 6,-24l13 -7c-6,-12 17,-20 6,-27 6,-5 7,-2 12,-6 -1,-12 5,-21 10,-30l1 0c6,-10 4,-24 8,-39l11 0c1,-9 -6,-12 -2,-19 2,-2 2,0 2,2 -1,-8 4,-17 7,-23 -5,-13 -2,-21 -9,-32 9,-9 3,14 12,6zm-156 -207c1,0 2,-1 3,-1 2,1 2,3 2,3 -1,-1 -3,-1 -5,-2zm54 27c1,0 1,0 2,0 0,0 0,0 0,0 -1,0 -1,0 -2,0zm30 29c-4,-4 -8,-8 -12,-13 1,1 2,1 3,2 -1,-1 -3,-2 -4,-3 -1,-2 -3,-3 -4,-5 2,-1 3,-3 5,-2 14,14 25,11 31,30l-1 0c4,2 8,6 12,9 2,4 -2,4 -4,4 -7,-8 -16,-15 -26,-22z"/>
  <path class="fil1" d="M157 50c0,0 2,5 3,7 -1,-2 -2,-5 -3,-7z"/>
 </g>
</svg>
