<?xml version="1.0" encoding="UTF-8"?>
<!DOCTYPE svg PUBLIC "-//W3C//DTD SVG 1.1//EN" "http://www.w3.org/Graphics/SVG/1.1/DTD/svg11.dtd">
<!-- Creator: CorelDRAW X8 -->
<svg xmlns="http://www.w3.org/2000/svg" xml:space="preserve" width="1.71404in" height="3.30801in" version="1.1" style="shape-rendering:geometricPrecision; text-rendering:geometricPrecision; image-rendering:optimizeQuality; fill-rule:evenodd; clip-rule:evenodd"
viewBox="0 0 225 435"
 xmlns:xlink="http://www.w3.org/1999/xlink">
 <defs>
  <style type="text/css">
   <![CDATA[
    .fil0 {fill:black;fill-rule:nonzero}
   ]]>
  </style>
 </defs>
 <g id="__x0023_Layer_x0020_1">
  <metadata id="CorelCorpID_0Corel-Layer"/>
  <path class="fil0" d="M54 70c0,0 -7,23 22,19 30,-4 17,-42 -13,-42 -31,0 -52,35 -29,51 22,16 91,49 66,83 0,0 -9,10 -18,13 0,0 26,-22 4,-38 0,0 13,38 -29,45 0,0 -20,2 -22,-12 -2,-14 23,-11 17,-2 0,0 -4,-8 -11,-4 -6,4 2,15 12,14 10,-1 37,-7 25,-43 -3,-7 -20,-16 -34,-23 -13,-7 -73,-33 -27,-84 21,-23 69,-18 80,1 0,0 -4,-46 48,-48 52,-2 91,36 77,89 -14,53 -27,62 -85,127 -20,22 -56,66 -52,88 5,22 13,31 31,32 17,0 37,-17 19,-27 0,0 19,3 10,18 -9,15 -32,17 -40,14 -8,-3 -42,-14 -30,-57 11,-43 63,-86 73,-97 11,-11 79,-78 64,-135 -4,-16 -15,-34 -41,-43 0,0 58,22 31,91 -7,16 -15,43 -100,122 -11,11 -47,64 -48,86 0,0 -6,-43 28,-79 0,0 -69,66 -51,153 3,12 15,39 36,53 0,0 -54,-15 -45,-104 0,0 -11,15 -10,45 0,0 -12,-27 8,-65 21,-38 36,-57 50,-80 14,-24 91,-69 114,-115 0,0 32,-55 0,-75 -31,-20 -50,13 -37,23 13,11 29,-4 19,-10 0,0 17,9 -5,18 -22,10 -31,-14 -23,-26 7,-12 27,-28 56,-6 0,0 -19,-41 -70,-24 0,0 -25,11 -19,31 6,21 16,24 33,31 0,0 -25,-1 -35,-13 0,0 9,27 -30,30 -39,3 -19,-25 -19,-25z"/>
 </g>
</svg>
