<?xml version="1.0" encoding="UTF-8"?>
<!DOCTYPE svg PUBLIC "-//W3C//DTD SVG 1.1//EN" "http://www.w3.org/Graphics/SVG/1.1/DTD/svg11.dtd">
<!-- Creator: CorelDRAW X8 -->
<svg xmlns="http://www.w3.org/2000/svg" xml:space="preserve" width="1.78473in" height="2.67928in" version="1.1" style="shape-rendering:geometricPrecision; text-rendering:geometricPrecision; image-rendering:optimizeQuality; fill-rule:evenodd; clip-rule:evenodd"
viewBox="0 0 254 381"
 xmlns:xlink="http://www.w3.org/1999/xlink">
 <defs>
  <style type="text/css">
   <![CDATA[
    .fil0 {fill:#ED0000;fill-rule:nonzero}
   ]]>
  </style>
 </defs>
 <g id="Layer_x0020_1">
  <metadata id="CorelCorpID_0Corel-Layer"/>
  <path class="fil0" d="M254 101c1,-39 -15,-76 -54,-91 -25,-10 -55,-1 -76,14 -2,-2 -3,-4 -5,-5 -27,-26 -66,-25 -92,2 -19,19 -27,48 -27,76 0,13 2,26 4,37 11,45 30,93 67,122 7,6 16,11 24,15 3,1 5,-2 2,-4 -36,-23 -59,-67 -72,-107 -12,-34 -17,-72 -3,-107 7,-17 19,-31 36,-38 14,-6 30,-2 43,6 5,3 9,6 13,10 -10,10 -19,22 -20,36 0,18 13,31 27,39 2,2 6,1 7,-1 20,-22 18,-50 3,-72 1,0 1,-1 2,-1 29,-19 65,-20 89,6 29,30 21,81 10,116 -17,57 -56,103 -90,151 -16,21 -31,44 -43,67 -4,7 7,13 11,6 48,-93 140,-166 144,-277zm-131 -7c-11,-8 -19,-18 -16,-31 2,-9 8,-16 14,-23 11,17 13,37 2,54z"/>
 </g>
</svg>
