<?xml version="1.0" encoding="UTF-8"?>
<!DOCTYPE svg PUBLIC "-//W3C//DTD SVG 1.1//EN" "http://www.w3.org/Graphics/SVG/1.1/DTD/svg11.dtd">
<!-- Creator: CorelDRAW X8 -->
<svg xmlns="http://www.w3.org/2000/svg" xml:space="preserve" width="1.75957in" height="1.82681in" version="1.1" style="shape-rendering:geometricPrecision; text-rendering:geometricPrecision; image-rendering:optimizeQuality; fill-rule:evenodd; clip-rule:evenodd"
viewBox="0 0 239 248"
 xmlns:xlink="http://www.w3.org/1999/xlink">
 <defs>
  <style type="text/css">
   <![CDATA[
    .fil0 {fill:#FF2020;fill-rule:nonzero}
   ]]>
  </style>
 </defs>
 <g id="Layer_x0020_1">
  <metadata id="CorelCorpID_0Corel-Layer"/>
  <path class="fil0" d="M203 153c5,-11 22,-34 33,-69 4,-17 5,-38 -3,-59 -4,-10 -14,-19 -25,-23 -11,-3 -24,-2 -35,1 -22,6 -41,20 -55,37 -2,2 -4,4 -5,6 -3,1 1,3 1,3 0,1 -1,-1 -1,-3 -1,0 -6,-2 -9,-5 -8,-5 -17,-10 -26,-14 -9,-4 -20,-6 -29,-4 -10,1 -18,5 -24,10 -13,9 -19,20 -22,27 -2,7 -4,19 -2,33 2,14 8,29 17,46 21,33 58,58 94,78 19,10 37,19 55,27l7 2 3 2c1,0 1,0 2,0 0,1 4,0 3,-1 2,-5 3,-9 4,-14 1,-8 3,-17 4,-24 5,-31 11,-52 13,-55 1,-4 -6,13 -14,42 -2,7 -4,15 -6,23 -1,5 -2,9 -3,13l-2 7c0,1 -1,2 -1,3 0,1 0,1 0,2 0,0 -2,0 2,-2 1,0 2,0 2,0l0 0 0 0c0,0 0,-1 -1,-1l-1 0 -3 -2c-3,-1 -5,-2 -7,-3 -4,-2 -9,-5 -13,-7 -9,-5 -19,-10 -28,-16 -35,-22 -72,-49 -90,-78 -8,-13 -13,-29 -15,-40 -1,-12 0,-19 1,-23 1,-4 3,-12 11,-19 8,-9 20,-14 36,-8 8,3 17,8 27,13 2,2 5,3 9,4 3,2 12,3 17,-3 5,-7 6,-9 10,-14 14,-16 34,-30 55,-33 11,-2 21,1 28,7 8,7 12,17 14,27 4,20 0,39 -5,55 -12,32 -23,52 -23,52z"/>
 </g>
</svg>
