<?xml version="1.0" encoding="UTF-8"?>
<!DOCTYPE svg PUBLIC "-//W3C//DTD SVG 1.1//EN" "http://www.w3.org/Graphics/SVG/1.1/DTD/svg11.dtd">
<!-- Creator: CorelDRAW X8 -->
<svg xmlns="http://www.w3.org/2000/svg" xml:space="preserve" width="2.74178in" height="2.60414in" version="1.1" style="shape-rendering:geometricPrecision; text-rendering:geometricPrecision; image-rendering:optimizeQuality; fill-rule:evenodd; clip-rule:evenodd"
viewBox="0 0 1052 999"
 xmlns:xlink="http://www.w3.org/1999/xlink">
 <defs>
  <style type="text/css">
   <![CDATA[
    .fil0 {fill:#ED0000;fill-rule:nonzero}
   ]]>
  </style>
 </defs>
 <g id="Layer_x0020_1">
  <metadata id="CorelCorpID_0Corel-Layer"/>
  <path class="fil0" d="M1042 175c-37,-131 -193,-202 -318,-166 -121,35 -223,165 -227,291 -9,-22 -18,-44 -32,-64 -21,-32 -53,-53 -86,-71 -57,-32 -123,-39 -185,-16 -118,43 -214,182 -190,308 23,125 152,214 255,271 73,40 147,73 217,118 74,47 145,101 217,150 6,4 11,4 15,2 10,0 19,-4 23,-16 45,-165 146,-302 228,-449 59,-105 117,-235 83,-358zm-157 397c-74,123 -153,246 -194,384 -113,-77 -222,-159 -345,-218 -105,-52 -214,-112 -280,-213 -78,-118 -10,-251 97,-324 122,-83 262,5 334,113 0,2 0,4 0,6 1,2 4,3 5,1 1,2 3,4 4,6 1,1 2,1 2,0 -2,-4 -3,-8 -5,-11 41,-120 118,-244 249,-274 130,-30 255,81 256,209 1,114 -66,226 -123,321z"/>
  <path class="fil0" d="M90 392c-3,-47 12,-101 29,-144 1,-1 -2,-2 -2,-1 -27,50 -51,96 -53,155 -2,55 26,110 71,142 8,6 17,-5 13,-13 -26,-46 -54,-84 -58,-139z"/>
  <path class="fil0" d="M158 209c-48,57 -90,191 -14,246 0,0 1,0 1,-1 -6,-38 -19,-71 -16,-111 2,-43 20,-87 41,-125 4,-7 -6,-16 -12,-9z"/>
  <path class="fil0" d="M890 131c-2,-2 -4,1 -2,3 27,33 44,72 52,114 8,46 -9,88 -22,132 -2,8 10,16 16,9 65,-83 26,-194 -44,-258z"/>
 </g>
</svg>
