<?xml version="1.0" encoding="UTF-8"?>
<!DOCTYPE svg PUBLIC "-//W3C//DTD SVG 1.1//EN" "http://www.w3.org/Graphics/SVG/1.1/DTD/svg11.dtd">
<!-- Creator: CorelDRAW X8 -->
<svg xmlns="http://www.w3.org/2000/svg" xml:space="preserve" width="3.25774in" height="1.97565in" version="1.1" style="shape-rendering:geometricPrecision; text-rendering:geometricPrecision; image-rendering:optimizeQuality; fill-rule:evenodd; clip-rule:evenodd"
viewBox="0 0 541 328"
 xmlns:xlink="http://www.w3.org/1999/xlink">
 <defs>
  <style type="text/css">
   <![CDATA[
    .fil1 {fill:black}
    .fil0 {fill:black;fill-rule:nonzero}
   ]]>
  </style>
 </defs>
 <g id="Layer_x0020_1">
  <metadata id="CorelCorpID_0Corel-Layer"/>
  <path class="fil0" d="M311 289c0,1 1,1 2,0l0 1 1 0c0,-1 0,-2 0,-2 0,-1 -4,-2 -3,1z"/>
  <path class="fil0" d="M315 313c1,0 0,-3 0,-3 -1,-1 -3,0 -2,2 0,1 1,-1 2,1z"/>
  <path class="fil0" d="M309 297c4,-2 -3,-4 -1,-1 0,1 1,1 1,1z"/>
  <path class="fil0" d="M312 307c0,-2 0,-2 2,-1 1,-4 -2,-6 -4,-6 2,2 0,1 -1,1 -2,3 0,7 3,6z"/>
  <path class="fil0" d="M152 171c0,0 0,0 0,0 0,0 0,0 0,0 0,0 0,0 0,0z"/>
  <path class="fil0" d="M316 300c-1,0 -1,-1 -2,-1l0 2c1,0 1,0 2,0l0 -1z"/>
  <path class="fil0" d="M306 270c1,0 2,0 2,0 -1,0 -2,0 -2,0z"/>
  <path class="fil0" d="M309 258c0,1 1,1 1,1 1,-1 1,-2 1,-3 -1,1 -2,2 -2,2z"/>
  <path class="fil0" d="M298 282l-1 0c0,1 0,1 1,1l0 -1z"/>
  <path class="fil0" d="M305 292c1,0 3,0 3,-1 0,-3 -4,-1 -3,1z"/>
  <path class="fil0" d="M302 301c2,1 1,-1 2,-1 1,-1 4,1 3,-2 -1,-2 -2,0 -3,0 0,0 -2,-2 -3,-1 -2,1 -1,4 1,4z"/>
  <path class="fil0" d="M390 251c2,-2 -1,-5 -3,-6 0,3 0,6 3,6z"/>
  <path class="fil0" d="M382 260c0,0 1,0 1,-1 1,-4 -5,0 -1,1z"/>
  <path class="fil0" d="M472 87c-1,0 -2,1 -1,2 2,3 3,-4 1,-2z"/>
  <path class="fil0" d="M449 52c1,-1 -1,-3 -2,-2 -2,2 1,4 2,2z"/>
  <path class="fil0" d="M441 53c0,0 0,2 0,2 0,2 4,1 3,-2 0,-1 -2,-1 -3,0z"/>
  <path class="fil0" d="M442 44l0 0c0,1 0,1 0,1 0,0 1,0 1,-1 0,0 0,0 0,-1 -1,-1 -2,-2 -3,-4 0,0 0,0 0,0 -1,0 -1,0 -1,1 1,2 2,3 3,4z"/>
  <path class="fil0" d="M443 74c3,2 8,11 10,4 1,1 1,-1 1,-1 0,1 1,1 1,1 0,-1 -1,-1 -1,-2 -2,1 -2,-2 -2,-4 -1,-1 -1,-2 -2,-2 -1,-1 -3,-1 -5,-1 0,1 -1,1 -1,2 -1,2 0,2 -1,3z"/>
  <path class="fil0" d="M388 241c0,2 0,4 2,4 0,-2 -1,-3 -2,-4z"/>
  <path class="fil0" d="M297 302c3,-1 0,-5 -2,-3 -1,1 -1,4 2,3z"/>
  <path class="fil0" d="M486 95c0,0 0,-2 0,-2 0,1 0,0 0,-1 -1,-1 -2,0 -3,0 -1,0 -1,-1 -3,0 -1,0 -2,2 -2,4 2,0 3,0 5,0 1,0 2,0 3,0 0,-1 0,-1 0,-1z"/>
  <path class="fil0" d="M480 87c1,-1 1,-2 0,-3 -3,-2 -2,4 0,3z"/>
  <polygon class="fil0" points="407,246 408,246 408,245 407,245 "/>
  <path class="fil0" d="M294 272c1,0 1,0 1,0l0 -3 -2 0c0,1 0,1 0,1 -1,0 -2,0 -3,0 -2,2 0,8 3,5 2,-1 2,-2 1,-3z"/>
  <path class="fil0" d="M221 30c0,0 1,1 1,0 0,0 -1,0 -1,0z"/>
  <path class="fil0" d="M269 100c1,-1 1,-2 1,-2 1,-1 1,-2 2,-3 -1,-1 -1,-3 -3,-4 -1,-1 -2,-1 -4,-1 0,0 -1,-1 -2,-1 0,0 -1,0 -1,0 2,4 4,7 6,11 0,0 1,0 1,0z"/>
  <path class="fil0" d="M287 72c0,-1 -1,-3 -1,-5 -2,0 -2,1 -2,2 1,1 2,4 3,3z"/>
  <path class="fil0" d="M167 61c-3,5 2,7 4,10 0,-4 0,-9 -4,-10z"/>
  <path class="fil0" d="M143 121c-2,-3 -2,-5 -3,-8l-1 0c-1,4 2,5 4,8z"/>
  <path class="fil0" d="M142 113l-1 0c0,0 0,0 0,1 0,0 1,2 2,0 -1,0 -1,-1 -1,-1z"/>
  <path class="fil0" d="M395 76c0,0 0,0 0,1 1,1 2,-1 0,-1z"/>
  <path class="fil0" d="M33 157c1,-4 2,-3 2,-3 1,0 1,0 1,0 1,0 1,0 1,0 -1,-1 -3,-1 -4,1 0,0 0,2 0,3 0,0 0,0 0,-1z"/>
  <path class="fil0" d="M285 76c0,0 0,0 0,0 0,0 1,-1 1,-1 0,0 0,0 0,0 -1,0 -1,0 -1,0 0,0 0,1 0,1z"/>
  <path class="fil0" d="M439 58c0,-1 -1,-2 -2,-1 -2,1 1,4 2,1z"/>
  <path class="fil0" d="M285 72c-1,2 0,3 1,3 1,-2 0,-3 -1,-3z"/>
  <path class="fil0" d="M383 64c-1,2 4,1 2,0 0,-1 -1,-1 -2,0z"/>
  <path class="fil0" d="M239 290c2,-1 0,-3 -1,-2 -1,1 0,3 1,2z"/>
  <path class="fil0" d="M236 286c-1,-2 -3,-3 -6,-4 0,4 4,11 6,4z"/>
  <path class="fil0" d="M231 281l2 0c0,-1 -1,-2 -1,-3 -1,0 -1,1 -1,3z"/>
  <path class="fil0" d="M299 271c0,0 -1,-1 -1,-1 0,0 0,1 0,1 0,0 0,0 1,0z"/>
  <path class="fil0" d="M236 269c0,0 1,0 1,-1 -1,-1 -2,-2 -2,-3 -1,2 0,4 1,4z"/>
  <path class="fil0" d="M49 155c0,0 0,0 0,0 0,0 0,0 0,0 0,0 0,0 0,0z"/>
  <path class="fil0" d="M34 169c1,-1 1,-2 0,-3 -3,-2 -3,5 0,3z"/>
  <path class="fil0" d="M34 179c1,0 2,-1 1,-2 -1,-1 -3,1 -1,2z"/>
  <path class="fil0" d="M193 254c-1,0 0,-1 -1,-1 -2,1 0,1 0,2 1,0 1,2 1,2 2,0 2,-4 0,-3z"/>
  <path class="fil0" d="M134 230c-1,0 -2,0 -3,-1 0,2 1,2 2,2 1,-1 1,-1 1,-1z"/>
  <path class="fil0" d="M317 304c0,-1 1,-2 0,-3 -2,-2 -3,4 0,3z"/>
  <path class="fil0" d="M345 22c0,-1 -1,-1 -2,-1 -3,1 1,5 2,1z"/>
  <path class="fil0" d="M326 53c1,2 0,-2 0,0l0 0z"/>
  <path class="fil0" d="M308 19c0,0 1,3 1,3 2,1 4,-2 4,-4 0,-1 -1,-2 -2,-2 0,0 0,-1 0,-1 0,0 0,0 1,0 0,0 0,0 0,0 3,-1 2,-7 -1,-5 -1,1 -1,1 -1,1 -6,-2 -5,6 -2,8z"/>
  <path class="fil0" d="M300 19c1,0 2,-1 2,-3 0,0 0,0 0,-1 -1,-1 -4,-1 -3,2 0,0 0,0 1,0 0,1 0,1 0,2z"/>
  <path class="fil0" d="M321 55c0,1 0,2 0,3 3,0 6,0 9,0 0,0 -1,0 -1,0 -1,-1 -2,0 -2,0 0,-1 0,-2 1,-2 -1,-1 -2,-1 -3,-2 -1,2 -3,3 -4,1z"/>
  <path class="fil0" d="M336 11c1,1 0,2 0,3 0,1 3,3 4,2 1,0 1,-1 1,-1 1,0 1,0 1,0 1,-1 0,-2 2,-2 -1,-1 -2,-1 -2,-2 0,0 2,-1 1,-2 -1,-2 -2,0 -3,0 -1,1 -3,-1 -5,1 1,0 2,0 3,0 -1,1 -1,0 -2,1z"/>
  <path class="fil0" d="M293 14c1,2 3,4 5,4 1,-4 -4,-11 -5,-4z"/>
  <path class="fil0" d="M336 46c0,1 0,1 1,1 1,-1 0,-1 -1,-1 0,-1 0,-2 -1,-3 -1,0 -2,4 1,3z"/>
  <path class="fil0" d="M335 38c2,-5 -5,-10 -6,-4 2,2 2,3 6,4z"/>
  <path class="fil0" d="M279 45c-2,-1 -2,-2 -3,0 1,1 3,1 3,0z"/>
  <path class="fil0" d="M280 37c0,0 -1,1 0,2 1,2 3,-3 0,-2z"/>
  <path class="fil0" d="M279 64c2,-1 2,-4 0,-5 -4,-2 -4,7 0,5z"/>
  <path class="fil0" d="M277 71c0,0 0,0 0,0 1,-4 -1,-8 -5,-8 -1,3 1,6 4,7 -1,0 -2,1 -2,1 -1,1 -1,1 -1,2 0,0 0,0 0,1 0,0 0,0 0,1 0,0 0,0 0,0 0,0 -1,0 -1,0 0,0 -1,0 -2,0 0,0 -2,0 -3,0 0,0 -1,0 -1,0 0,0 0,0 0,0 -1,0 -1,0 -2,0 -2,0 -5,0 -7,0 -1,0 -2,0 -2,0 0,0 0,0 0,0 -1,0 0,-2 -1,-2 -1,1 0,2 0,3 -1,0 -1,0 -2,0 0,0 1,1 1,1 1,0 2,0 4,0 2,0 5,0 7,0 1,0 1,0 2,0l0 0c0,0 0,0 0,0 0,0 0,0 0,0 0,0 0,0 0,0 1,2 3,2 5,2l0 0c0,0 0,0 0,0 0,0 0,0 0,0 -2,-1 -3,-1 -4,-2 0,0 0,0 0,0 1,0 2,0 3,0l0 0c1,0 2,0 3,-1 0,0 0,0 0,0 1,2 4,2 5,-1 0,0 0,-1 0,-1 0,0 1,-1 1,-1 0,-1 -1,-2 -2,-2z"/>
  <path class="fil0" d="M256 60c-1,1 1,4 2,3 2,-1 1,-5 -2,-3z"/>
  <path class="fil0" d="M285 15c-1,0 -1,-1 -2,0 -1,1 2,1 2,0z"/>
  <path class="fil0" d="M435 66c0,-1 -1,-1 0,-2 -2,-1 -4,0 -3,2 1,1 2,1 3,0z"/>
  <path class="fil0" d="M291 51c0,-3 -2,-3 -1,-5 -2,0 -3,-1 -4,-1 -1,1 -2,2 -2,4 2,2 3,2 7,2z"/>
  <path class="fil0" d="M289 39c0,-3 -1,-5 -3,-5 -1,2 1,4 3,5z"/>
  <path class="fil0" d="M291 12c0,0 0,-3 -2,-2 -1,1 1,3 2,2z"/>
  <path class="fil0" d="M349 60c0,-2 -1,-5 -4,-6 0,2 2,5 4,6z"/>
  <path class="fil0" d="M390 17c0,0 -1,0 -1,-1 -1,1 -2,3 -1,4 1,0 2,-1 2,-3z"/>
  <path class="fil0" d="M412 28c2,-4 -3,-9 -5,-5 0,3 2,5 5,5z"/>
  <path class="fil0" d="M397 35c0,1 0,2 0,3 2,0 2,-3 0,-3z"/>
  <path class="fil0" d="M410 63c-1,1 -1,4 0,6 1,-1 1,-4 0,-6z"/>
  <path class="fil0" d="M398 71c0,-1 -2,-2 -2,-2 -3,2 1,5 2,2z"/>
  <path class="fil0" d="M398 64c3,0 4,3 7,2 6,-11 -12,-16 -7,-2z"/>
  <path class="fil0" d="M431 66c-1,0 -1,0 -2,0 -1,3 4,2 2,0z"/>
  <path class="fil0" d="M445 101c1,-2 -1,-2 -1,-3 -3,1 -3,-3 -3,-6 -1,-1 -2,-2 -3,-3 -2,-1 -5,-1 -7,-1 -1,1 -2,2 -2,3 -1,2 1,3 -1,4 3,2 6,7 9,9 1,0 3,-1 5,-1 0,-1 0,-1 0,-2 2,1 1,-1 2,-2 0,1 1,2 1,2z"/>
  <path class="fil0" d="M409 72c0,2 1,3 0,3 3,2 7,11 10,4 1,1 0,-1 1,-1 0,1 0,1 0,1 1,-1 0,-1 0,-2 -2,1 -2,-2 -2,-4 -1,-1 -2,-1 -2,-2 -2,0 -4,-1 -6,-1 0,1 -1,2 -1,2z"/>
  <path class="fil0" d="M426 73c-1,1 -2,3 -1,4 2,0 1,-3 1,-4z"/>
  <path class="fil0" d="M424 105c0,-2 -1,-2 -1,-1 -2,1 1,3 1,1z"/>
  <path class="fil0" d="M408 60c0,-1 0,-1 -1,-1 0,1 0,1 1,1z"/>
  <path class="fil0" d="M363 46c-1,3 1,6 4,7 1,0 4,-2 5,-4 0,-2 -1,-5 -3,-6 0,0 -3,0 -3,0 -1,0 -3,2 -3,3z"/>
  <path class="fil0" d="M363 28c1,0 1,-1 1,-1 0,0 1,0 1,1 0,-2 -1,-1 -1,-3 -2,1 -2,-1 -2,-4 -1,0 -1,-1 -2,-2 -1,0 -3,0 -5,0 0,0 -1,1 -1,2 -1,1 0,2 -1,3 3,2 8,11 10,4z"/>
  <path class="fil0" d="M353 30c-2,-2 -2,2 0,2 1,0 1,-2 0,-2z"/>
  <path class="fil0" d="M415 48c1,0 2,-1 2,-2 -1,-1 -3,-2 -4,-3 -1,2 0,5 2,5z"/>
  <path class="fil0" d="M350 51c1,-1 0,-3 -1,-3 -5,-2 -1,7 1,3z"/>
  <path class="fil0" d="M349 6c-1,1 -1,1 -1,2 2,4 5,-4 1,-2z"/>
  <path class="fil0" d="M374 19c-1,0 -1,0 -2,0 -3,1 3,3 2,0z"/>
  <path class="fil0" d="M393 51c2,1 1,-2 2,-2 0,1 0,2 1,2 0,-2 -1,-2 -1,-3 -3,1 -3,-3 -3,-6 -2,-1 -2,-2 -3,-4 -3,0 -5,0 -8,0 -1,1 -1,2 -2,3 0,2 1,3 0,4 4,3 11,16 14,6z"/>
  <path class="fil0" d="M382 21c0,-1 -2,-1 -3,-1 -3,5 4,8 3,1z"/>
  <path class="fil0" d="M382 79c0,1 0,2 1,2 0,-2 -1,-2 -1,-3 -3,1 -3,-3 -3,-6 -1,-1 -2,-2 -3,-3 -2,-1 -5,-1 -8,-1 0,1 -1,2 -1,3 -1,2 1,3 -1,5 4,2 11,15 14,5 2,1 1,-1 2,-2z"/>
  <path class="fil0" d="M375 14c0,-1 0,-1 0,-2 0,0 -1,0 -1,0 0,0 0,1 1,2z"/>
  <path class="fil0" d="M301 272c0,0 1,1 1,0 0,0 -1,0 -1,0z"/>
  <path class="fil0" d="M110 95c-1,0 -2,2 -2,3 0,0 0,3 0,3 1,3 4,4 6,2 1,-1 2,-5 1,-6 -1,-2 -4,-3 -5,-2z"/>
  <path class="fil0" d="M119 79c0,2 0,2 1,3 0,-1 0,-3 -1,-3z"/>
  <path class="fil0" d="M145 120c1,0 1,-2 2,-2 -2,0 -1,-2 -3,-2 -1,2 0,4 1,4z"/>
  <path class="fil0" d="M123 112c0,-2 0,-4 0,-6 -1,0 -1,-2 -2,-2 -3,4 2,5 2,8z"/>
  <path class="fil0" d="M132 110c0,0 2,7 1,7 1,1 2,2 2,2 1,0 1,1 2,1 0,0 0,0 0,0 0,0 1,-1 1,-1 0,0 1,1 1,1 0,-1 0,-2 -1,-2 1,-2 -3,-10 -6,-8z"/>
  <path class="fil0" d="M108 105c0,0 0,1 -1,1 0,3 3,0 1,-1z"/>
  <path class="fil0" d="M70 84c0,2 1,-2 0,0l0 0z"/>
  <path class="fil0" d="M83 89c0,1 -1,3 1,2 0,-1 0,-2 -1,-2z"/>
  <path class="fil0" d="M109 85c1,0 2,0 2,-1 0,0 -1,0 0,-1l-2 0c0,1 0,2 0,2z"/>
  <polygon class="fil0" points="69,94 70,94 70,93 69,93 "/>
  <path class="fil0" d="M97 77c0,0 0,0 0,1 0,0 0,0 1,0 0,0 0,0 0,-1 0,0 0,0 -1,0z"/>
  <path class="fil0" d="M113 77c0,-3 0,-6 -3,-6 -2,2 1,5 3,6z"/>
  <path class="fil0" d="M190 60c2,1 1,-2 0,-2l0 2z"/>
  <path class="fil0" d="M162 74l-1 0c-1,1 -1,3 -1,5 2,1 3,3 5,4 0,0 0,0 0,0 1,-5 0,-8 -3,-9z"/>
  <path class="fil0" d="M198 56c-1,-2 -2,-3 -1,-5 -1,0 -1,-1 -2,-1 0,3 1,5 3,6z"/>
  <path class="fil0" d="M195 40c-5,-1 -4,7 0,6 1,-2 0,-4 0,-6z"/>
  <path class="fil0" d="M162 60c0,0 -1,0 -1,0 0,0 0,0 0,0 0,0 0,0 0,1 0,0 0,0 0,0 0,3 3,-2 1,-1z"/>
  <path class="fil0" d="M149 111c0,2 1,3 1,4 1,-3 1,-5 2,-8 -1,1 -2,3 -3,4z"/>
  <path class="fil0" d="M147 41c0,0 -1,-1 -1,0 -1,4 4,1 1,0z"/>
  <path class="fil0" d="M162 87c0,0 1,-1 1,-1 -1,-2 -2,-4 -4,-4 -2,4 -1,6 1,8 1,-1 1,-2 2,-3z"/>
  <path class="fil0" d="M154 81c0,1 0,3 2,3 0,-2 -1,-1 0,-3 -1,0 -1,-1 -2,0z"/>
  <path class="fil0" d="M156 68c0,0 -1,0 -1,1 -1,3 5,1 1,-1z"/>
  <path class="fil0" d="M459 216c-1,-1 -1,2 0,0l0 0z"/>
  <path class="fil0" d="M400 234c-1,0 -1,0 -1,0l0 0c0,1 0,1 1,1 0,0 0,-1 0,-1z"/>
  <path class="fil0" d="M406 223l5 1c-1,-1 -2,-2 -3,-3 -1,0 -2,0 -4,0l0 0c-1,0 -3,0 -4,0 2,1 4,2 6,2 0,0 0,0 0,0 0,0 0,0 0,0z"/>
  <path class="fil0" d="M334 254c-2,2 -1,4 0,6 5,2 3,-7 0,-6z"/>
  <path class="fil0" d="M357 254l2 0 0 -3c-1,-1 -3,-2 -4,-2 1,2 1,4 2,5z"/>
  <path class="fil0" d="M44 189c-2,1 -1,3 0,4 3,2 3,-5 0,-4z"/>
  <path class="fil0" d="M432 222c-1,0 -1,0 -1,0 0,0 -1,0 -1,1 1,0 1,0 1,0 0,0 1,0 1,-1z"/>
  <path class="fil0" d="M418 229c2,-2 0,-5 -3,-6 0,3 0,7 3,6z"/>
  <path class="fil0" d="M469 184c0,1 0,2 0,2 0,1 0,1 1,1 1,-1 0,-2 -1,-3z"/>
  <path class="fil0" d="M466 194l0 -1c0,0 0,0 -1,-1 0,1 0,2 1,2z"/>
  <polygon class="fil0" points="459,207 460,207 460,206 459,206 "/>
  <path class="fil0" d="M445 209c-1,1 0,2 1,2 -1,-1 0,-3 -1,-2z"/>
  <path class="fil0" d="M204 33c0,-1 0,-3 -1,-2 -3,1 0,4 1,2z"/>
  <path class="fil0" d="M334 250c0,-3 -1,-5 -3,-6 0,2 1,3 1,6 1,-1 1,0 2,0z"/>
  <path class="fil0" d="M213 270c0,0 0,3 1,3 3,3 0,-6 -1,-3z"/>
  <path class="fil0" d="M212 285c-1,1 -1,3 -1,4 2,0 1,-3 1,-4z"/>
  <path class="fil0" d="M208 276c3,2 2,-5 0,-3 -1,2 0,3 0,3z"/>
  <path class="fil0" d="M209 256c3,2 2,-6 -1,-3 -1,1 0,3 1,3z"/>
  <path class="fil0" d="M227 255c3,2 1,-6 -1,-3 -1,1 0,3 1,3z"/>
  <path class="fil0" d="M254 289c3,1 1,-6 -1,-3 -1,1 0,2 1,3z"/>
  <path class="fil0" d="M248 277c3,2 1,-6 -1,-3 -1,1 0,2 1,3z"/>
  <path class="fil0" d="M317 279c3,2 1,-6 -1,-3 -1,1 0,3 1,3z"/>
  <path class="fil0" d="M319 261c3,2 2,-6 -1,-3 -1,1 0,3 1,3z"/>
  <path class="fil0" d="M200 283c3,1 2,-6 -1,-3 -1,1 0,2 1,3z"/>
  <path class="fil0" d="M163 273c3,2 2,-6 0,-3 -1,1 0,3 0,3z"/>
  <path class="fil0" d="M118 237c1,-1 1,-4 1,-5 -2,1 -1,3 -1,5z"/>
  <path class="fil0" d="M44 184c2,0 3,-2 1,-4 -1,-2 -4,2 -3,4 0,0 2,0 2,0z"/>
  <path class="fil0" d="M230 283c-1,0 -1,0 -1,0 0,-1 0,-1 -1,-1 -1,-1 -2,1 -1,2 0,0 0,0 0,1 1,2 3,1 3,-2z"/>
  <path class="fil0" d="M221 263c0,-2 -1,-4 -3,-4 -1,1 -1,2 0,4 1,1 1,1 3,0z"/>
  <path class="fil0" d="M243 285c1,0 1,1 3,1 1,-2 -3,-2 -3,-1z"/>
  <path class="fil0" d="M238 298c-2,0 -3,0 -4,1 1,0 0,3 1,3 4,1 4,-2 3,-4z"/>
  <polygon class="fil0" points="235,306 238,306 238,304 235,304 "/>
  <path class="fil0" d="M324 268c0,1 1,2 2,1 3,-1 -1,-4 -2,-1z"/>
  <path class="fil0" d="M297 20l-1 0c-1,1 0,1 0,2 1,0 2,-1 1,-2z"/>
  <path class="fil0" d="M360 55c0,0 0,-1 0,-1 1,0 0,-1 0,-1 -1,-1 -2,-3 -3,-5 0,0 -1,0 -1,0 0,0 0,1 0,1 1,2 1,4 3,5 1,1 1,1 1,1z"/>
  <path class="fil0" d="M361 54c0,1 0,2 1,2 1,-1 1,-2 -1,-2z"/>
  <path class="fil0" d="M318 11c-2,0 -1,3 -1,4 1,-1 1,-3 1,-4z"/>
  <path class="fil0" d="M320 24c-3,-2 -2,6 1,3 1,-1 0,-3 -1,-3z"/>
  <path class="fil0" d="M363 52c-1,1 -1,2 0,3 2,3 3,-5 0,-3z"/>
  <path class="fil0" d="M382 88c0,-1 0,-3 -1,-2 -1,1 0,2 1,2z"/>
  <path class="fil0" d="M315 30c1,0 0,-3 -1,-3 -3,-3 0,6 1,3z"/>
  <path class="fil0" d="M290 52c-1,1 -1,2 0,3 2,2 3,-4 0,-3z"/>
  <path class="fil0" d="M270 72c0,0 -1,0 -1,0 0,-1 -2,-2 -3,-2 0,1 0,1 1,1 0,2 -2,2 -4,1 1,1 1,1 2,1 0,1 0,1 0,1 1,0 5,0 5,-2z"/>
  <path class="fil0" d="M311 41c0,-1 0,-2 0,-3 -1,-2 -2,-2 -3,0 0,2 0,3 3,3z"/>
  <path class="fil0" d="M290 42c0,2 3,5 5,1 0,1 2,2 2,0 -2,2 -1,0 -2,-2 0,-1 -1,-1 -2,-2 0,0 0,-1 0,-1 -2,0 -3,2 -3,4z"/>
  <path class="fil0" d="M395 63c-2,-1 -3,2 -2,3 1,0 2,-1 2,-3z"/>
  <path class="fil0" d="M309 59c1,1 1,-1 1,-1 0,0 0,1 1,1 0,-1 -1,-1 -1,-2 -2,1 -2,-2 -2,-4 -1,-1 -1,-2 -2,-3 -2,0 -3,0 -5,0 -1,1 -1,1 -1,2 -1,1 0,2 -1,3 3,2 8,11 10,4z"/>
  <path class="fil0" d="M449 88c-1,1 0,2 1,2 1,-1 0,-3 -1,-2z"/>
  <path class="fil0" d="M417 98c0,0 -1,2 1,2 1,0 2,-4 -1,-2z"/>
  <path class="fil0" d="M425 211c0,-1 0,-1 0,-1l0 1z"/>
  <path class="fil0" d="M305 269c1,-1 0,-5 -2,-5 -1,2 -2,4 -4,5 0,0 0,0 0,0 1,1 2,0 4,0 1,0 1,1 2,0z"/>
  <path class="fil0" d="M393 90c1,0 0,1 1,1 2,0 1,-5 -2,-3 -1,1 1,1 1,2z"/>
  <polygon class="fil0" points="416,101 417,101 417,100 416,100 "/>
  <path class="fil0" d="M391 82c-1,0 -1,2 0,2 2,4 4,-4 0,-2z"/>
  <path class="fil0" d="M414 90c1,-1 0,-1 -1,-1 -2,-1 0,5 1,1z"/>
  <path class="fil0" d="M387 93c-1,1 -1,3 -3,4 2,1 1,3 1,4 1,1 2,2 3,2 1,1 1,2 3,1 1,0 2,-1 3,0 -1,-3 2,-5 1,-9 -1,-2 -6,-4 -8,-2z"/>
  <path class="fil0" d="M221 44c0,-2 -2,-3 -2,-3 -4,2 1,6 2,3z"/>
  <path class="fil0" d="M398 104c1,-1 -1,-2 -1,-1 0,0 0,2 1,1z"/>
  <path class="fil0" d="M404 75c1,-1 0,-4 -2,-2 -1,1 1,3 2,2z"/>
  <path class="fil0" d="M231 42c0,0 -1,-1 -1,0 -4,1 3,3 1,0z"/>
  <path class="fil0" d="M230 29c-1,4 2,6 4,6 -1,-3 -1,-6 -4,-6z"/>
  <path class="fil0" d="M232 43c0,0 -1,2 1,2 1,0 1,-4 -1,-2z"/>
  <path class="fil0" d="M235 39c0,0 0,0 0,0 0,-1 -1,-1 -1,-1 -1,-1 -1,-1 -2,-1 -1,0 -1,2 -1,3 0,1 1,1 2,1 0,1 1,2 2,3 0,-1 0,-2 0,-3 2,2 3,-5 0,-2z"/>
  <path class="fil0" d="M228 35c1,2 1,-1 0,0l0 0z"/>
  <path class="fil0" d="M227 39c-3,-2 -4,2 -3,5 2,0 2,0 3,1 0,-2 0,-4 0,-6z"/>
  <polygon class="fil0" points="228,53 228,53 228,52 227,52 "/>
  <path class="fil0" d="M221 58c-1,0 -2,0 -2,1 1,0 2,0 3,0 0,0 -1,-1 -1,-1z"/>
  <path class="fil0" d="M238 41c0,2 -1,4 1,4 2,-1 1,-5 -1,-4z"/>
  <path class="fil0" d="M224 31c-2,2 0,6 2,5 1,0 1,-1 1,-2 1,0 2,0 2,0 1,-1 1,-2 0,-3 -1,-1 -2,0 -3,0 -1,0 -1,-1 -2,0z"/>
  <path class="fil0" d="M238 58c0,0 -2,-1 -3,-1 -2,1 -3,4 -1,5 1,1 2,1 3,1 1,-1 1,-4 1,-5z"/>
  <path class="fil0" d="M228 28c-1,0 -2,0 -2,0 1,0 2,0 2,0z"/>
  <path class="fil0" d="M280 42c1,1 3,1 4,-1 -1,0 -4,-1 -4,1z"/>
  <path class="fil0" d="M282 56c-2,0 -2,-1 -4,-1 0,2 1,5 4,5l0 -4z"/>
  <path class="fil0" d="M274 78c-1,0 0,0 -1,0 1,1 -2,0 -1,2 0,0 1,1 2,1 0,0 1,-2 2,-1 0,0 0,0 0,0 0,0 0,0 0,0 0,-1 -2,-1 -3,-1 0,-1 1,0 1,-1z"/>
  <path class="fil0" d="M256 78l1 1c-1,-1 -1,-1 -1,-1 -1,0 -1,1 -2,1l0 0c0,0 0,0 1,0 0,0 1,0 1,0 0,0 0,0 0,0 1,2 2,2 2,2 2,-1 0,-3 1,-4 0,0 -1,0 -2,0 0,0 0,1 -1,1z"/>
  <path class="fil0" d="M225 51c2,0 2,-5 -1,-5 1,0 -1,1 -1,1 -1,2 0,4 2,4z"/>
  <path class="fil0" d="M283 68c1,-1 0,-5 -3,-3 -2,2 2,4 3,3z"/>
  <path class="fil0" d="M283 74c0,0 0,0 0,0 0,0 0,0 0,1 0,0 1,-1 1,-1 -1,0 -1,-2 -2,-2 0,-1 -1,-2 -1,-3 -1,0 -2,0 -3,0 0,0 0,1 0,1 1,3 3,5 5,4z"/>
  <path class="fil0" d="M243 34c0,-1 -2,0 -2,0 -2,2 2,5 3,3 1,-1 0,-3 -1,-3z"/>
  <path class="fil0" d="M242 57c2,2 1,-2 0,0l0 0z"/>
  <path class="fil0" d="M252 61c-1,0 -2,1 -1,2 2,4 4,-5 1,-2z"/>
  <path class="fil0" d="M247 69c0,0 0,2 0,3 1,0 1,1 2,1 0,0 0,0 0,1 0,0 0,0 0,0 1,0 1,0 1,1 0,-1 1,-1 1,-1 0,0 -1,0 -1,0 1,0 1,0 1,0 4,-3 0,-10 -4,-5z"/>
  <path class="fil0" d="M247 50c-2,-1 -4,1 -2,2 0,-1 2,-1 2,-2z"/>
  <path class="fil0" d="M292 31c0,1 -1,1 -1,1 0,3 1,4 3,3 1,-2 0,-3 -2,-4z"/>
  <path class="fil0" d="M214 316c-1,2 1,4 2,2 2,-2 -1,-4 -2,-2z"/>
  <path class="fil0" d="M254 327c0,-3 -4,3 -1,1 1,0 1,-1 1,-1z"/>
  <path class="fil0" d="M245 273l0 0c1,0 1,0 1,-1 -1,0 -1,0 -1,0l0 0c-1,1 -1,3 -1,4 0,1 0,2 0,2 0,0 0,0 0,0 -1,0 -1,-1 -1,-1 0,0 0,-1 -1,-1 0,0 0,0 0,0 0,0 0,-1 0,-1 0,0 0,-1 0,0 -1,0 -1,0 -1,0 0,1 0,1 0,1 0,0 0,1 0,1 -1,0 -1,1 -1,2 -1,-1 -2,3 1,2 0,0 0,-1 0,-1 0,1 0,1 0,2 1,2 3,6 3,8 0,0 -1,-1 -1,-1 -1,-2 -2,-4 -3,-6l0 0c0,0 0,0 0,0 0,0 0,0 0,1 0,0 0,0 0,0 1,1 1,3 2,5l0 0c1,1 1,2 2,2 0,0 0,0 0,0l0 1c0,1 1,2 1,3l1 0c0,1 0,3 1,4l1 1c0,0 0,0 0,1 0,0 0,0 0,0 0,0 1,-1 0,-1 0,0 0,-1 0,-1l-1 -1c0,-1 -1,-2 -1,-4l0 0 1 0c0,0 0,0 0,0l0 -1c0,1 1,1 2,2 0,5 2,10 4,14l0 1c1,0 1,0 1,0 0,0 1,-1 0,-1l0 -1c-2,-4 -4,-9 -4,-14l0 0 -1 0c-1,-1 -2,-1 -2,-2l0 0 0 -2c-1,1 -1,1 -1,1l-1 -1 0 0c0,-2 -2,-6 -3,-9 0,-1 0,-1 -1,-2 0,-1 0,-1 0,-1 0,0 1,0 1,0 0,0 0,0 0,0 0,0 0,1 0,1 0,0 0,0 0,0 0,0 1,0 1,0 0,1 0,1 0,1 1,1 2,2 2,3 0,0 0,1 1,1 0,0 0,0 0,0 0,0 0,0 0,0 0,-1 0,-1 0,-1 -1,-2 -2,-3 -2,-3 0,-1 0,-1 -1,-1 1,0 1,0 1,0 1,-1 1,-2 1,-3 0,-1 0,-3 0,-3z"/>
  <path class="fil0" d="M72 224c1,0 2,0 3,0 -1,0 -2,-1 -3,-1 0,1 0,1 0,1z"/>
  <path class="fil0" d="M262 299c0,0 0,0 0,0 -1,0 -1,0 -1,1 0,0 0,1 -1,1 1,0 2,0 2,0 0,0 0,0 0,0 0,-1 0,-2 0,-2z"/>
  <path class="fil0" d="M256 316c1,1 2,1 3,1 0,-2 -2,-1 -3,-1z"/>
  <path class="fil0" d="M219 310c0,0 0,2 1,3 0,0 0,0 1,0 3,-2 -1,-5 -2,-3z"/>
  <path class="fil0" d="M334 289c0,0 -1,0 -1,1 0,1 0,3 -1,4 0,1 0,1 1,1 0,1 0,0 0,0 1,-2 1,-4 1,-5 1,0 0,-1 0,-1 0,0 0,0 0,0z"/>
  <path class="fil0" d="M220 281c0,0 -1,-2 -1,-2 -1,-2 -4,1 -3,3 0,1 0,2 1,2 0,0 0,1 0,2 0,-1 0,-1 0,-1 0,0 -1,0 0,0 -3,1 -3,8 1,5 0,0 1,-1 1,-1 6,2 5,-6 1,-8z"/>
  <path class="fil0" d="M223 265c-2,-1 -1,1 -2,1 0,-1 0,-1 0,-1 0,1 1,1 0,2 2,-1 2,1 2,4 1,0 2,1 2,1 2,1 3,1 5,1 0,-1 1,-1 1,-2 0,-1 0,-2 0,-3 -2,-1 -6,-10 -8,-3z"/>
  <path class="fil0" d="M228 325c1,0 2,0 3,-1 -1,-2 -3,-1 -3,1z"/>
  <path class="fil0" d="M229 320c-1,0 -1,0 -1,0 0,1 1,1 1,0z"/>
  <path class="fil0" d="M242 312c0,-2 -2,-1 -2,0 0,0 1,0 2,0z"/>
  <path class="fil0" d="M311 326c1,-1 2,-1 3,-1 -1,-1 -1,-2 -2,-3 0,2 -2,2 -1,4z"/>
  <path class="fil0" d="M307 252c0,0 0,-1 0,-1 0,0 1,0 1,0 2,-2 3,-7 3,-7 0,-2 -2,-1 -3,0 -3,3 -8,10 -7,12 1,2 5,-2 6,-4z"/>
  <path class="fil0" d="M278 297c-1,2 0,5 1,6 2,0 3,0 4,-1 0,-3 -2,-4 -5,-5z"/>
  <path class="fil0" d="M326 245c0,-1 -1,-2 -2,-2 -1,1 -2,2 -3,3 0,0 0,1 0,1 0,0 1,1 2,1 1,1 3,-1 3,-3z"/>
  <path class="fil0" d="M325 313c0,1 1,1 2,0 2,-1 -3,-4 -2,0z"/>
  <path class="fil0" d="M301 311c1,0 1,0 2,0 -1,-3 -3,-2 -4,-3l0 0c-2,-1 -3,-2 -5,-4l0 0c-1,-1 -3,-2 -4,-2 -1,2 2,5 4,4l0 0c1,1 3,2 4,3l0 0c-1,3 2,5 3,2z"/>
  <path class="fil0" d="M326 309c-1,1 0,1 0,1 3,1 0,-4 0,-1z"/>
  <path class="fil0" d="M283 312c0,-1 -1,-2 -2,-1 0,3 -1,2 0,4 1,1 2,1 2,1 2,0 3,-1 3,-3 0,-1 -2,-2 -3,-1z"/>
  <path class="fil0" d="M169 282c0,2 1,2 2,2 0,-2 -1,-3 -2,-2z"/>
  <path class="fil0" d="M286 284c-1,2 -2,4 -3,6 0,1 0,1 1,1 -1,1 -1,0 -1,1 0,0 -1,2 -1,2 0,1 3,1 3,1 1,-1 2,-2 2,-2 1,0 3,-1 3,-4 0,-3 -3,-3 -4,-5z"/>
  <path class="fil0" d="M291 323l0 -2 -1 0c0,1 0,2 1,2z"/>
  <path class="fil0" d="M292 310c-1,1 -2,4 1,4 3,1 2,-5 -1,-4z"/>
  <path class="fil0" d="M273 311c-1,3 -3,6 -5,9 -1,-3 -3,-7 -4,-10 -1,1 -1,1 -2,2 0,1 1,2 1,3 0,0 -1,1 -1,2l0 0c0,0 -1,0 -1,0 0,0 -1,0 -1,0 0,0 0,0 0,0 0,0 0,1 0,1 0,-1 1,-1 1,-1 1,0 1,0 1,0l1 0 -1 0c0,0 0,0 0,0 0,-1 1,-1 1,-1 0,0 0,0 0,1 1,0 1,1 2,2 0,0 0,1 0,1 1,0 1,0 2,0 0,0 1,1 1,1 1,0 2,-2 3,-2 0,0 1,0 1,0 1,0 1,-2 1,-3 1,-2 1,-1 0,-4 0,0 0,-1 0,-1z"/>
  <path class="fil0" d="M117 272c-2,4 3,9 4,5 0,-3 -1,-5 -4,-5z"/>
  <path class="fil0" d="M73 197c-3,3 3,9 4,4 0,-3 -2,-4 -4,-4z"/>
  <path class="fil0" d="M178 257c-2,4 3,9 5,5 -1,-3 -2,-5 -5,-5z"/>
  <path class="fil0" d="M130 236c-2,0 -4,-3 -7,-2 -5,11 12,16 7,2z"/>
  <path class="fil0" d="M121 240c-1,1 0,2 1,1 0,-1 0,-1 -1,-1z"/>
  <path class="fil0" d="M131 266c1,-1 0,-3 0,-4 -1,1 -2,4 0,4z"/>
  <path class="fil0" d="M133 296c0,0 1,0 1,1 1,-1 2,-3 1,-4 -1,0 -2,1 -2,3z"/>
  <path class="fil0" d="M140 297c-1,0 -2,1 -3,2 2,1 3,1 5,2 1,-2 0,-4 -2,-4z"/>
  <path class="fil0" d="M90 242c-1,1 1,2 1,2 3,-2 -1,-5 -1,-2z"/>
  <path class="fil0" d="M215 302c0,-3 -3,-3 -5,-6 -1,2 -1,3 -1,5 0,-1 -1,-1 -1,-1 0,0 1,-1 1,-1 -1,-1 -3,-1 -4,-1 0,0 0,1 0,1 -1,0 -1,-1 -1,0 -1,1 -1,3 -3,2 1,1 1,1 1,2 0,1 1,4 3,4 1,1 2,-1 2,2 1,-1 1,-1 1,-2 0,-2 2,-3 2,-4 2,3 6,5 5,-1z"/>
  <path class="fil0" d="M103 227c1,-1 1,-3 0,-4 -1,1 -1,3 0,4z"/>
  <path class="fil0" d="M141 291c0,1 1,1 3,1 2,-4 -4,-7 -3,-1z"/>
  <path class="fil0" d="M98 234c0,0 1,0 1,0 2,-3 -4,-2 -1,0z"/>
  <path class="fil0" d="M94 234c0,1 1,2 0,3 2,0 3,-1 3,-3 -1,-1 -2,0 -3,0z"/>
  <path class="fil0" d="M87 256l0 0c0,0 -1,0 -1,0 0,0 0,0 0,0 -1,0 -1,0 0,1 1,1 1,3 2,4 0,0 1,1 1,0 0,0 0,0 0,-1 -1,-1 -2,-3 -2,-4z"/>
  <path class="fil0" d="M107 250c1,0 3,0 4,1 -1,-2 -3,-3 -4,-1z"/>
  <path class="fil0" d="M184 278c0,1 0,2 1,1 4,-1 -1,-5 -1,-1z"/>
  <path class="fil0" d="M193 291c-1,0 -2,0 -2,-1 0,-1 1,0 1,-1 -1,-1 1,-1 0,-2 0,-2 -2,-4 -4,-3 0,0 0,1 -1,1 0,1 -1,0 -1,0 0,1 0,2 -1,2 1,1 1,1 1,2 1,0 -1,1 -1,2 1,2 3,0 3,0 1,0 4,1 5,0z"/>
  <path class="fil0" d="M195 312c-1,0 -2,1 -1,2 2,2 3,-2 1,-2z"/>
  <path class="fil0" d="M136 249c-2,-1 -1,2 -2,2 0,-1 -1,-1 -1,-2 -1,2 1,2 1,4 3,-2 3,2 3,6 1,0 2,2 3,3 2,0 5,0 7,0 1,-1 2,-2 2,-3 1,-2 -1,-3 1,-4 -4,-3 -11,-16 -14,-6z"/>
  <path class="fil0" d="M194 263c-2,5 4,9 6,3 -2,-2 -3,-3 -6,-3z"/>
  <path class="fil0" d="M155 281c0,0 1,0 1,0 4,-1 -2,-3 -1,0z"/>
  <path class="fil0" d="M154 287c0,0 -1,0 -1,1 1,0 2,0 2,0 -1,0 -1,-1 -1,-1z"/>
  <path class="fil0" d="M161 253l0 0c-2,-1 -3,-2 -3,-3 0,0 -1,0 -1,0 0,1 0,1 0,1 -1,2 1,5 2,6 1,1 3,1 4,0 0,0 2,-2 2,-2 0,-1 0,-1 0,-1 -1,0 -2,0 -3,0l-1 -1z"/>
  <path class="fil0" d="M180 294c0,0 1,-1 1,-2 -2,-4 -5,5 -1,2z"/>
  <path class="fil0" d="M176 268c-1,0 -2,2 -1,3 2,1 3,-3 1,-3z"/>
  <path class="fil0" d="M93 222c-2,0 -2,1 -1,2 2,1 2,-2 1,-2z"/>
  <path class="fil0" d="M65 210c-1,0 -1,2 0,2 2,1 2,-2 0,-2z"/>
  <path class="fil0" d="M411 249l0 5c1,0 2,1 3,2 2,-2 0,-7 -3,-7z"/>
  <path class="fil0" d="M427 228c0,-3 -2,0 0,0l0 0z"/>
  <path class="fil0" d="M424 248c-1,0 -1,1 -1,1 -1,0 -2,-1 -3,0 0,4 1,8 1,12 0,1 -1,3 -2,5 0,0 0,0 0,0 0,0 0,0 0,0 0,2 0,2 0,3 1,0 1,-1 1,-1 0,0 0,-1 0,-1 0,0 0,0 0,0 1,-2 2,-4 3,-6 5,1 5,-6 2,-10 0,-1 0,-4 -1,-3z"/>
  <path class="fil0" d="M425 264c0,0 1,-1 1,-1 0,0 0,0 -1,0 0,0 0,1 0,1z"/>
  <path class="fil0" d="M429 246c-2,2 0,6 2,4 4,-3 0,-7 -2,-4z"/>
  <path class="fil0" d="M436 207c0,1 0,3 1,2 1,-2 0,-2 -1,-2z"/>
  <path class="fil0" d="M420 249l0 -2c0,0 0,0 -1,0 0,1 0,2 1,2z"/>
  <path class="fil0" d="M87 247c1,0 1,-1 1,-1 -1,-3 -5,-1 -4,1 1,1 3,1 3,0z"/>
  <path class="fil0" d="M411 247l1 0c1,-3 -1,-4 -2,-5 -1,2 -1,5 1,5z"/>
  <path class="fil0" d="M440 249c0,0 0,0 0,0 0,0 0,0 0,0 0,0 0,0 0,0 0,0 1,-1 1,-1 0,0 0,0 0,-1 0,1 -1,1 -1,2z"/>
  <path class="fil0" d="M414 236c2,0 3,-2 3,-7 -2,0 -3,-1 -4,-2 0,0 0,-1 -1,-1l-4 3c0,0 1,1 1,2 1,0 1,0 2,1 0,1 1,3 2,3 2,5 1,9 5,12 1,-1 2,-3 2,-4 -2,-2 -4,-5 -6,-7z"/>
  <path class="fil0" d="M415 245c0,1 1,1 1,0 0,0 -1,-1 -1,0z"/>
  <path class="fil0" d="M417 271c0,0 0,0 0,0 -1,0 -1,1 -1,1 1,0 1,-1 1,-1 0,0 0,0 0,0 0,0 0,0 0,0z"/>
  <path class="fil0" d="M411 270c-2,-1 -1,2 0,0l0 0z"/>
  <path class="fil0" d="M471 211c1,0 1,0 1,0 0,0 0,0 -1,0 0,0 1,0 0,0z"/>
  <path class="fil0" d="M476 193c-1,-1 -3,-1 -3,-1 0,0 0,0 0,0 -1,0 -2,1 -2,2 -1,0 0,0 0,0 -1,1 -1,1 -1,2 0,1 1,2 0,3 1,-1 0,-1 1,0 1,1 3,2 4,1 1,-1 1,-2 3,-1 0,-1 -1,-2 -1,-2 -1,-1 -1,-4 -1,-4z"/>
  <path class="fil0" d="M444 213c0,2 1,3 2,3 1,-1 1,-4 -2,-3z"/>
  <path class="fil0" d="M462 193c-1,0 -1,1 -2,2 0,5 2,10 7,11 1,0 1,1 2,1 0,-1 0,-1 -1,-2 0,0 1,-1 1,-1 2,-8 -6,-6 -7,-11z"/>
  <path class="fil0" d="M486 185c0,0 0,1 0,1 0,0 1,0 1,0 0,0 0,-1 0,-1 0,0 0,0 0,0 1,-1 2,-2 2,-3 -1,1 -2,1 -2,2 -1,1 -1,1 -1,1z"/>
  <path class="fil0" d="M519 135c-1,0 -1,0 0,1 0,0 0,0 0,0 1,-1 1,-1 1,-1 0,0 0,0 0,0 1,-1 1,-3 2,-4 -1,1 -2,2 -3,3 0,0 0,1 0,1z"/>
  <path class="fil0" d="M525 112c-1,0 -1,1 0,1 0,0 0,0 0,0 1,0 1,0 1,-1 0,0 0,0 0,0 1,-1 1,-2 2,-3 -1,1 -2,2 -3,3 0,0 0,0 0,0z"/>
  <path class="fil0" d="M494 83c0,0 0,1 0,1 1,0 1,0 1,0 0,0 0,0 1,-1 0,0 0,0 0,0 0,-1 1,-2 2,-3 -1,1 -2,2 -3,3 0,0 0,0 -1,0z"/>
  <path class="fil0" d="M455 93c0,0 0,0 0,1 1,0 1,0 1,0 0,-1 0,-1 1,-1 0,0 0,0 0,0 0,-1 1,-3 2,-4 -1,1 -2,2 -3,3 0,0 0,1 -1,1z"/>
  <path class="fil0" d="M489 173c0,2 1,2 1,3l1 -3 -2 0z"/>
  <path class="fil0" d="M512 139c0,1 0,2 1,2l0 -2 -1 0z"/>
  <path class="fil0" d="M495 159c0,1 0,2 1,2l0 -2 -1 0z"/>
  <path class="fil0" d="M507 154c0,1 0,2 1,2l0 -2 -1 0z"/>
  <path class="fil0" d="M507 146c0,1 0,2 1,2l0 -2 -1 0z"/>
  <path class="fil0" d="M538 110c0,1 0,2 1,2l1 -2 -2 0z"/>
  <path class="fil0" d="M529 123c0,2 0,3 1,3l1 -3 -2 0z"/>
  <path class="fil0" d="M504 90c0,1 0,2 1,2l1 -2 -2 0z"/>
  <path class="fil0" d="M461 86c0,1 0,2 1,2l0 -2 -1 0z"/>
  <path class="fil0" d="M394 112c-1,1 0,2 0,2l1 -2 -1 0z"/>
  <path class="fil0" d="M409 98c0,1 0,2 1,2l0 -2 -1 0z"/>
  <path class="fil0" d="M404 87c0,2 0,2 1,2l0 -2 -1 0z"/>
  <path class="fil0" d="M439 79c0,1 0,2 1,2l0 -2 -1 0z"/>
  <path class="fil0" d="M499 170c0,1 0,2 1,2l0 -2 -1 0z"/>
  <path class="fil0" d="M454 231c-1,-2 -1,2 0,0l0 0z"/>
  <path class="fil0" d="M463 217c1,-2 -2,1 0,0l0 0z"/>
  <path class="fil0" d="M455 203c1,-1 4,-2 4,-4 -1,1 -2,1 -2,2 0,-1 0,-2 0,-2 -1,0 0,-2 -1,-2 -1,-1 -2,0 -3,0 0,-1 0,-3 -2,-3 0,1 0,3 1,4 0,0 0,0 0,0 -1,1 0,2 0,2 0,1 -1,1 -1,1 0,1 1,1 0,2 1,0 2,0 2,0 1,0 0,2 1,3 1,0 1,-3 1,-3z"/>
  <path class="fil0" d="M305 272c-3,4 2,14 6,10 0,-7 -1,-10 -6,-10z"/>
  <path class="fil0" d="M455 214c-1,3 0,13 4,11 3,-3 -2,-11 -4,-11z"/>
  <path class="fil0" d="M461 209c1,-3 0,3 0,0l0 0z"/>
  <path class="fil0" d="M344 260c1,0 1,-2 0,-2 -2,-2 -2,5 0,2z"/>
  <path class="fil0" d="M344 268c1,1 3,0 3,-2 -1,-4 -7,1 -3,2z"/>
  <path class="fil0" d="M410 265c-3,-1 -5,7 -2,7 0,0 1,-2 2,-2 1,-2 2,-4 0,-5z"/>
  <path class="fil0" d="M346 308c0,-1 0,-1 0,-2l-1 0c0,1 0,1 1,2z"/>
  <path class="fil0" d="M360 279c1,0 1,1 1,2 -2,-2 0,1 -2,1 -1,0 -1,-4 -2,-2 1,2 2,4 1,7 2,-1 4,-2 6,-3 -1,-2 -3,-5 -4,-5z"/>
  <path class="fil0" d="M349 250c0,1 1,2 2,2 0,-1 -1,-2 -2,-2z"/>
  <path class="fil0" d="M344 245c0,0 -1,1 -1,1 0,0 0,-1 -1,-1 -2,-3 -3,3 -1,3 -1,1 -1,3 0,4 0,1 1,2 2,2 6,1 6,-8 1,-9z"/>
  <path class="fil0" d="M327 288c0,0 -1,1 -1,2 1,0 2,0 2,-1 0,-1 -1,-1 -1,-1z"/>
  <path class="fil0" d="M354 262c-2,-1 -1,1 -2,1 0,-1 0,-1 -1,-1 0,2 1,1 1,3 3,-2 3,2 3,6 1,1 2,2 3,3 2,0 5,0 7,0 1,-1 2,-1 2,-3 1,-1 -1,-3 1,-4 -4,-2 -11,-16 -14,-5z"/>
  <path class="fil0" d="M335 305l0 2 1 0c0,-1 0,-3 -1,-2z"/>
  <path class="fil0" d="M336 273c-2,2 0,5 3,4 4,-2 0,-8 -3,-4z"/>
  <path class="fil0" d="M329 271c1,2 0,3 0,5 4,0 4,4 7,5 -2,-4 -2,-10 -7,-10z"/>
  <path class="fil0" d="M343 269c-2,0 -3,1 -2,3 1,1 2,1 3,0 1,-1 -1,-1 -1,-3z"/>
  <path class="fil0" d="M397 266c-1,0 -1,1 -1,2 1,1 2,1 2,0 0,-1 0,-2 -1,-2z"/>
  <path class="fil0" d="M365 252c0,0 -1,1 -1,2 1,1 2,1 3,0 0,-1 0,-2 -2,-2z"/>
  <path class="fil0" d="M340 285c0,0 0,1 -1,2 1,1 2,1 3,0 0,-1 0,-2 -2,-2z"/>
  <path class="fil0" d="M366 259c0,1 0,1 0,2 0,1 1,1 2,0 0,-1 0,-2 -2,-2z"/>
  <path class="fil0" d="M365 290c0,0 -1,1 -1,2 1,1 2,1 2,0 0,-1 0,-2 -1,-2z"/>
  <path class="fil0" d="M347 290c0,0 0,1 0,2 0,1 1,1 2,0 0,-1 0,-2 -2,-2z"/>
  <path class="fil0" d="M419 215c0,0 0,1 0,2 0,1 1,1 2,0 0,-1 0,-2 -2,-2z"/>
  <path class="fil0" d="M445 224c0,0 0,1 0,2 0,1 1,1 2,0 0,-1 0,-2 -2,-2z"/>
  <path class="fil0" d="M430 234c-1,0 -1,1 -1,2 0,0 1,0 2,0 0,-1 0,-3 -1,-2z"/>
  <path class="fil0" d="M480 178c0,0 -1,1 -1,2 1,1 2,1 3,0 -1,-1 0,-2 -2,-2z"/>
  <path class="fil0" d="M392 247c-1,3 -2,4 -1,7 5,0 3,-6 1,-7z"/>
  <path class="fil0" d="M375 260c-1,-2 -2,2 0,0l0 0z"/>
  <path class="fil0" d="M406 272l0 2 1 0c0,-1 0,-2 -1,-2z"/>
  <path class="fil0" d="M399 249c0,2 1,2 1,3 -2,0 -2,-2 -4,-2 0,7 3,5 6,6 0,-4 -1,-6 -3,-7z"/>
  <path class="fil0" d="M400 257c0,0 0,0 0,0 0,0 0,-1 0,0z"/>
  <path class="fil0" d="M383 283c-1,-2 -1,2 0,0l0 0z"/>
  <path class="fil0" d="M375 247c0,0 0,-1 0,-1 0,0 -1,0 -2,0 0,1 1,1 2,1z"/>
  <path class="fil0" d="M386 260c-2,11 8,18 6,4 -3,0 -3,-3 -6,-4z"/>
  <path class="fil0" d="M388 293c0,0 1,-1 2,-1 -1,0 -1,-1 -2,-1 0,1 0,1 0,2z"/>
  <path class="fil0" d="M380 273c0,0 2,2 2,2 0,0 2,0 2,-1 1,-1 2,-4 1,-5 -2,-1 -6,1 -5,4z"/>
  <path class="fil0" d="M35 181c0,0 0,1 1,1 3,3 0,-5 -1,-1z"/>
  <path class="fil0" d="M184 32c-1,-1 -2,0 -2,2 0,4 6,-1 2,-2z"/>
  <path class="fil0" d="M184 40c0,0 -1,2 1,3 2,1 2,-5 -1,-3z"/>
  <path class="fil0" d="M186 54c0,1 0,1 0,1 2,3 3,-2 1,-2 1,-2 2,-4 1,-5 -1,-1 -2,-1 -3,-2 -5,-1 -5,8 -1,9 1,0 1,0 2,-1z"/>
  <path class="fil0" d="M179 51c1,-2 0,-3 -1,-3 0,2 0,2 1,3z"/>
  <path class="fil0" d="M141 81c0,0 -1,1 -1,1 1,4 4,-3 1,-1z"/>
  <path class="fil0" d="M193 28c1,-2 -1,-6 -3,-5 -4,2 0,9 3,5z"/>
  <path class="fil0" d="M203 55c0,4 6,3 5,-2 0,0 -2,-1 -2,-1 -2,-1 -4,1 -3,3z"/>
  <path class="fil0" d="M206 11c3,-5 -1,-14 -6,-10 1,6 2,10 6,10z"/>
  <path class="fil0" d="M202 10c-1,0 -1,0 -2,1 0,1 1,1 2,1 0,0 0,-1 0,-2z"/>
  <path class="fil0" d="M199 29c0,-2 1,-3 0,-5 -3,0 -4,-4 -7,-4 2,3 2,9 7,9z"/>
  <path class="fil0" d="M188 28c-1,0 -3,0 -3,0 -1,2 1,1 0,4 2,-1 3,-2 3,-4z"/>
  <path class="fil0" d="M136 89c1,3 2,6 4,8 2,0 4,0 5,-2 -2,-1 -2,-5 -1,-7 -2,-3 -8,-5 -8,1z"/>
  <path class="fil0" d="M170 46l0 4c1,0 2,1 3,2 0,-2 -1,-4 -2,-6l-1 0z"/>
  <path class="fil0" d="M145 17c1,2 1,-2 0,0l0 0z"/>
  <path class="fil0" d="M148 27c0,0 -1,-2 -2,-2 0,0 -1,0 -2,1 -1,1 -2,4 0,5 1,2 5,-1 4,-4z"/>
  <path class="fil0" d="M139 50c-2,2 0,5 2,5 0,-3 0,-6 -2,-5z"/>
  <path class="fil0" d="M140 59c0,-1 1,-4 -1,-4 0,3 1,3 1,4z"/>
  <path class="fil0" d="M152 90c2,-6 -5,-10 -5,-4 0,1 3,6 5,4z"/>
  <path class="fil0" d="M167 31c1,1 1,-1 1,-1 0,1 1,1 1,1 0,-1 -1,-1 -1,-2 -2,1 -2,-2 -2,-4 -1,-1 -1,-2 -2,-2 -2,-1 -3,-1 -5,-1 -1,1 -1,1 -1,2 -1,2 0,2 -1,3 3,2 8,11 10,4z"/>
  <path class="fil0" d="M154 40c1,2 1,-2 0,0l0 0z"/>
  <path class="fil0" d="M156 59c0,1 1,1 1,0 1,-1 0,-2 0,-2 -1,0 -1,0 -1,0 0,-2 0,-4 -2,-4 -2,2 0,5 2,6z"/>
  <path class="fil0" d="M153 59c0,0 -1,0 -1,0 0,0 0,1 1,0z"/>
  <path class="fil0" d="M149 94c-2,4 2,7 4,8 -1,-3 0,-8 -4,-8z"/>
  <path class="fil0" d="M179 69c0,0 0,-2 0,-2 -2,-2 -3,3 0,2z"/>
  <path class="fil0" d="M260 13c-1,0 -1,-1 -2,0 -1,0 -2,2 -1,3 1,1 4,-1 3,-3z"/>
  <path class="fil0" d="M265 33c-2,-2 -2,2 0,0l0 0z"/>
  <path class="fil0" d="M256 7c-1,0 -1,0 -3,0 0,2 3,2 3,0z"/>
  <path class="fil0" d="M263 17c-1,0 0,-1 -1,-1 -1,1 1,3 1,1z"/>
  <path class="fil0" d="M251 50c0,0 0,0 -1,0l0 1c1,1 1,0 1,-1 3,3 6,8 8,2 1,1 1,-1 1,-1 0,1 1,1 1,1 0,-1 -1,-1 -1,-2 -2,1 -2,-2 -2,-4 -1,-1 -1,-1 -2,-2 -2,0 -3,0 -5,-1 -1,1 -1,2 -1,3 -1,1 0,2 -1,3 1,0 1,0 2,1z"/>
  <path class="fil0" d="M254 28c0,-3 0,-2 0,-5 -1,-1 -2,-1 -4,-1 0,1 0,5 1,6 2,0 2,-1 3,0z"/>
  <polygon class="fil0" points="250,40 252,40 252,39 250,39 "/>
  <path class="fil0" d="M273 70c-1,-1 -1,0 -2,0 0,2 3,1 2,0z"/>
  <path class="fil0" d="M268 17c1,-3 0,-5 -2,-5 0,1 -1,2 -1,3 1,1 2,2 3,2z"/>
  <path class="fil0" d="M272 15c2,2 4,-6 0,-4 -1,1 -2,3 0,4z"/>
  <path class="fil0" d="M269 39c1,-1 0,-4 -1,-4 -5,-3 -3,8 1,4z"/>
  <path class="fil0" d="M243 15c1,0 1,-2 3,-1 -1,-4 1,-3 1,-5 0,-2 -1,-3 -2,-4 0,0 1,0 1,0 0,0 1,-3 1,-3 -1,-1 -3,-1 -4,-1 -1,1 -1,2 -1,3 -1,-1 -3,0 -3,3 0,4 4,3 4,8z"/>
  <path class="fil0" d="M228 25c0,0 0,-1 -1,0l0 2 2 0c0,0 0,-1 0,-1 1,1 2,1 3,0 2,-2 0,-8 -3,-5 -2,1 -2,3 -1,4z"/>
  <path class="fil0" d="M223 9c-1,-1 -2,-1 -2,1 0,2 4,0 2,-1z"/>
  <path class="fil0" d="M230 17l0 1 2 0c0,-1 -1,-1 -2,-1z"/>
  <path class="fil0" d="M217 11c0,-1 -1,0 -1,0l0 -1 -1 0c-1,1 -1,2 0,2 0,1 3,2 2,-1z"/>
  <path class="fil0" d="M245 58c0,1 1,2 2,2 1,-1 0,-2 -2,-2z"/>
  <path class="fil0" d="M248 28l1 0c1,-1 -1,-1 -1,0 0,0 0,0 0,0z"/>
  <path class="fil0" d="M239 34c1,-5 -2,-7 -4,-5 -1,4 2,6 4,5z"/>
  <path class="fil0" d="M137 53c0,-3 1,-4 0,-7 -4,0 -3,6 0,7z"/>
  <path class="fil0" d="M61 94c0,0 -1,-1 -1,-1 0,1 0,2 0,2 0,1 0,1 -1,1 -1,4 1,6 3,7 0,0 1,0 1,0l1 0 0 1c1,0 2,0 2,1l0 -2 2 0c0,-4 -2,-8 -7,-9z"/>
  <path class="fil0" d="M15 151l2 4c0,0 2,1 3,0 1,-2 0,-4 -1,-6l-4 2z"/>
  <path class="fil0" d="M66 83c-2,2 1,-1 0,0l0 0z"/>
  <path class="fil0" d="M57 89c0,1 0,1 0,1 0,0 0,0 0,0 0,0 0,0 0,-1z"/>
  <path class="fil0" d="M59 102c-1,0 -1,0 -2,-1 0,-1 -3,-1 -4,-1 -1,1 0,2 -2,1 0,1 0,2 1,2 0,1 0,1 0,1 1,0 1,0 2,0 1,0 3,0 4,0 0,-1 0,-2 1,-2z"/>
  <path class="fil0" d="M67 91c0,3 0,-2 0,0l0 0z"/>
  <path class="fil0" d="M84 88c1,-3 0,-4 -1,-4 -1,1 -1,4 1,4z"/>
  <path class="fil0" d="M88 52c0,0 0,0 0,0 0,-1 0,-1 1,-1 0,0 0,0 0,0 -1,0 -1,1 -2,1 1,0 1,1 1,1 0,-1 0,-1 0,-1z"/>
  <path class="fil0" d="M93 94c0,-2 0,-3 -2,-3 0,2 1,2 2,3z"/>
  <path class="fil0" d="M75 69c1,2 0,-2 0,0l0 0z"/>
  <path class="fil0" d="M74 87c0,-3 -1,-14 -4,-11 -4,2 2,10 4,11z"/>
  <path class="fil0" d="M76 102c0,0 1,0 1,0 0,-1 0,-2 0,-2 0,-1 0,0 0,-1 0,-1 -1,-1 0,-2 -1,0 -1,1 -2,0 0,0 1,-2 -1,-2 -1,-1 -1,2 -1,2 -1,1 -3,2 -3,4 1,0 1,-1 2,-1 0,1 -1,1 -1,1 2,0 1,2 2,2 0,1 1,1 2,0 0,1 0,1 1,2 0,0 1,0 1,0 1,-1 0,-2 -1,-3z"/>
  <path class="fil0" d="M46 198c0,0 -1,2 -1,2 0,0 -3,1 -3,2 0,1 0,2 0,4 1,0 1,1 1,1 0,-1 -1,1 0,1 0,1 4,-3 6,-2 1,0 -2,3 -1,2 1,0 2,-2 2,-4 1,-2 -2,-6 -4,-6z"/>
  <path class="fil0" d="M56 177c0,0 -1,1 -1,1 0,0 -2,1 -3,2 0,1 0,3 1,4 0,0 0,1 0,1 0,0 0,1 0,1 1,1 5,-2 6,-2 1,0 -2,3 -1,2 1,0 3,-2 3,-3 0,-3 -3,-7 -5,-6z"/>
  <path class="fil0" d="M112 221c0,0 -1,1 -1,1 -1,1 -3,2 -3,3 -1,0 0,2 0,3 0,0 1,1 1,2 0,-1 -1,0 -1,1 1,1 5,-3 6,-3 1,0 -1,4 0,3 1,-1 2,-3 2,-4 1,-2 -2,-6 -4,-6z"/>
  <path class="fil0" d="M57 214c1,-1 1,-2 0,-3 -2,-3 -3,4 0,3z"/>
  <path class="fil0" d="M68 197l0 -1c-1,0 -1,0 -1,0 0,1 0,2 1,1z"/>
  <path class="fil0" d="M79 248c0,1 1,3 2,2 2,-2 -1,-4 -2,-2z"/>
  <path class="fil0" d="M79 211c-1,0 0,3 1,1 0,-1 -1,-2 -1,-1z"/>
  <polygon class="fil0" points="265,45 264,45 264,46 265,46 "/>
  <path class="fil0" d="M48 214c-1,0 -1,1 0,2 3,2 3,-4 0,-2z"/>
  <path class="fil0" d="M33 182c2,-3 -3,-4 -3,-1 0,0 0,2 1,2 1,1 2,0 2,-1z"/>
  <path class="fil0" d="M34 190c0,0 -1,0 -1,0 -1,0 -2,-1 -2,-1 -1,0 -1,0 -1,0 1,2 3,4 4,6 2,-1 2,-4 0,-5z"/>
  <path class="fil0" d="M141 7c-1,1 -2,1 -2,1 0,1 1,1 1,1 1,0 1,-1 1,-2z"/>
  <path class="fil0" d="M31 178c1,-4 -5,0 -1,1 1,0 1,0 1,-1z"/>
  <path class="fil0" d="M37 200c1,1 1,1 1,2 1,0 1,0 1,-1 -1,-1 -1,-1 -2,-1z"/>
  <path class="fil0" d="M119 35c3,2 5,-7 2,-7 0,0 -2,2 -2,3 -2,1 -2,3 0,4z"/>
  <path class="fil0" d="M94 101c0,-1 -1,-2 -2,-2 -2,1 0,4 2,2z"/>
  <path class="fil0" d="M131 69c0,-2 -1,-3 -2,-4 -1,2 0,4 2,4z"/>
  <path class="fil0" d="M117 53l-1 0c0,3 1,5 3,5 1,-2 0,-5 -2,-5z"/>
  <path class="fil0" d="M118 30c1,2 1,-2 0,0l0 0z"/>
  <polygon class="fil0" points="121,56 122,56 122,54 121,54 "/>
  <path class="fil0" d="M129 51c1,-2 0,-1 0,-3 1,1 2,2 4,3 -1,-8 -3,-6 -7,-6 0,3 2,5 3,6z"/>
  <path class="fil0" d="M129 44c0,-1 -1,-1 -1,0 1,-1 1,0 1,0z"/>
  <path class="fil0" d="M142 40c3,-11 -8,-18 -5,-4 2,0 2,3 5,4z"/>
  <path class="fil0" d="M87 209c2,0 3,1 3,3 3,0 5,0 8,0 0,0 1,-1 1,-2 -2,-1 -3,-2 -5,-3l-7 -6 3 0c-2,0 -4,0 -5,-1 0,1 -1,1 -1,1 0,0 0,-1 0,-1 0,0 0,0 -1,0 0,1 1,1 1,3 3,-2 3,2 3,6z"/>
  <path class="fil0" d="M132 34c0,0 1,-1 1,-2 -1,-1 -2,-1 -3,0 0,1 0,2 2,2z"/>
  <path class="fil0" d="M131 78c2,1 2,0 3,-1 1,-2 -1,-3 -3,-3 0,1 0,3 0,4z"/>
  <path class="fil0" d="M123 28l0 -2 -2 0c0,1 1,2 2,2z"/>
  <path class="fil0" d="M103 89c-1,2 2,3 2,4 0,-2 0,-4 -2,-4z"/>
  <path class="fil0" d="M102 72c-1,4 2,1 0,0l0 0z"/>
  <path class="fil0" d="M104 99c-4,-2 -5,5 -2,6 3,0 4,-5 2,-6z"/>
  <path class="fil0" d="M97 50c-4,3 1,7 3,5 1,-2 0,-7 -3,-5z"/>
  <path class="fil0" d="M89 78c0,-2 0,-4 -1,-6 1,-1 1,-2 1,-3 1,0 0,0 0,0 0,0 0,0 0,0 1,-1 0,-1 0,-2 0,0 0,1 0,1 0,0 0,0 0,0 0,0 0,0 0,0 -1,1 -1,3 -2,4 -3,-1 -2,3 -1,5 0,1 0,2 1,2 0,0 0,-1 0,-1 1,0 1,1 2,0z"/>
  <path class="fil0" d="M124 86c-1,1 0,2 0,4 2,0 3,3 4,4 0,1 -1,1 -1,2 0,0 0,0 0,0 2,0 0,-1 0,-1 1,1 1,2 2,2 0,0 0,-1 0,-1 0,0 0,1 1,1 1,-3 1,-16 -6,-13 0,-1 0,0 0,-1 0,0 0,0 0,0 0,1 1,1 1,0 0,-1 0,0 -1,-1 0,0 0,0 0,1 -1,-2 -2,-2 -2,-4 0,0 -1,0 -1,0 0,-1 -1,-2 -1,-3 -1,-3 -1,-5 -3,-7 -1,1 -1,2 -2,3 2,1 3,3 4,4 -1,0 -2,1 -1,4 0,0 1,1 2,1 1,3 4,5 4,5z"/>
  <path class="fil0" d="M111 30c1,0 1,-1 1,-1 0,0 0,0 0,-1 0,1 -1,1 -1,1 0,1 0,1 0,1 0,0 0,0 0,0z"/>
  <path class="fil0" d="M113 55c0,-1 -1,-1 -1,0 1,0 1,1 1,0z"/>
  <path class="fil0" d="M108 53c1,0 1,0 1,0 0,-1 0,-2 -1,-1l0 1z"/>
  <path class="fil0" d="M103 37c0,0 1,0 1,-1 -1,0 -1,1 -1,1 0,0 0,0 0,0z"/>
  <path class="fil0" d="M117 51l0 -5c-1,0 -1,-1 -2,-1 -2,1 0,6 2,6z"/>
  <path class="fil1" d="M348 239c1,-1 1,-2 1,-2 -4,-1 -8,-3 -10,-7 -6,1 -12,3 -18,4 9,4 17,8 27,5l0 0z"/>
  <path class="fil1" d="M380 241c3,-3 3,-3 3,-3 -6,-3 -12,-5 -17,-7 -5,2 -9,5 -14,8 5,6 21,3 28,2l0 0z"/>
  <path class="fil1" d="M396 231c3,-2 6,-4 8,-5 -7,-2 -15,-7 -22,-7 -4,2 -8,5 -12,8 0,1 0,2 0,3 9,1 18,1 26,1l0 0z"/>
  <path class="fil1" d="M422 212c0,0 0,-1 0,-1 -8,-1 -15,-4 -23,-7 -4,4 -8,7 -12,11 12,3 22,5 35,-3l0 0z"/>
  <path class="fil1" d="M362 227c1,0 1,-1 2,-2 -3,-4 -7,-6 -12,-6 0,-1 0,-2 0,-3 -7,-1 -12,3 -17,6 9,5 13,8 24,8l3 -3z"/>
  <path class="fil1" d="M423 212c0,-1 -1,-1 -1,-1 0,0 0,0 0,0 0,0 0,1 0,1 0,0 0,0 1,0l0 0z"/>
  <path class="fil1" d="M375 220c2,-1 3,-2 4,-2 0,-1 1,-1 1,-2 -10,-6 -21,-15 -31,-7 8,8 16,9 26,11l0 0z"/>
  <path class="fil1" d="M369 217c0,-1 0,-1 0,-1 -1,0 -1,0 -1,0 0,0 0,1 0,1 0,0 0,0 1,0l0 0z"/>
  <path class="fil1" d="M425 205c7,-3 13,-6 19,-11 -10,0 -20,-2 -30,-5 -4,4 -8,8 -12,11 0,1 0,2 0,2 8,2 8,2 23,3l0 0z"/>
  <path class="fil1" d="M386 208c9,-4 9,-4 10,-6 -14,-6 -22,-9 -37,-4 3,7 20,9 27,10l0 0z"/>
  <path class="fil1" d="M456 187c7,-4 15,-8 20,-14 -16,1 -31,2 -46,-3 -1,1 -2,1 -3,2 0,1 0,1 0,2 -3,4 -6,7 -8,11 13,5 24,4 37,2l0 0z"/>
  <path class="fil1" d="M398 195c4,-3 8,-5 11,-7 -9,-3 -35,-13 -42,-1 11,4 20,8 31,8l0 0z"/>
  <path class="fil1" d="M411 181c4,-2 13,-7 14,-12 -15,1 -29,-3 -44,-1 -2,2 -5,3 -8,5 14,7 24,8 38,8l0 0z"/>
  <path class="fil1" d="M470 167c11,-5 20,-13 30,-18 0,-1 0,-2 0,-2 2,0 2,-1 -20,3 -12,1 -23,0 -35,-2 -3,5 -6,10 -10,16 12,4 22,4 35,3l0 0z"/>
  <path class="fil1" d="M422 163c8,-4 14,-7 19,-15 -20,1 -49,-5 -64,11 15,1 30,4 45,4l0 0z"/>
  <path class="fil1" d="M496 139c10,-6 18,-11 26,-20 -11,2 -22,4 -33,7 -28,0 -28,0 -32,1 0,2 -4,8 -6,10 0,1 0,2 0,4 15,2 29,0 45,-2l0 0z"/>
  <path class="fil1" d="M437 142c7,-5 12,-10 17,-17 -6,0 -6,0 -21,5 -18,1 -38,0 -52,14 19,0 37,1 56,-2l0 0z"/>
  <path class="fil1" d="M510 115c12,-7 27,-19 31,-33 -22,9 -44,20 -68,16 -3,2 -3,4 -4,7 -1,0 -1,0 -2,1 -1,4 -3,8 -4,12 16,0 31,-1 47,-3l0 0z"/>
  <path class="fil1" d="M444 120c6,-3 19,-10 20,-18 1,0 1,-1 2,-1 0,-1 0,-1 0,-2 -9,2 -9,2 -19,6 -23,5 -43,7 -62,23 19,-2 39,-4 59,-8l0 0z"/>
  <path class="fil1" d="M420 91c-1,6 -3,8 -5,13l5 -13z"/>
  <path class="fil1" d="M198 243c-1,-1 -1,-1 -1,-2 4,-1 8,-3 10,-7 6,1 12,2 18,3 -9,4 -17,9 -27,6l0 0z"/>
  <path class="fil1" d="M166 247c-3,-3 -3,-3 -3,-3 6,-3 11,-6 17,-8 4,2 9,5 13,7 -4,7 -20,5 -27,4l0 0z"/>
  <path class="fil1" d="M149 237c-2,-1 -5,-3 -8,-4 8,-2 15,-8 22,-8 4,2 8,5 13,7 -1,1 -1,2 -1,3 -8,1 -17,3 -26,2l0 0z"/>
  <path class="fil1" d="M123 220c0,-1 0,-1 0,-1 8,-2 15,-5 22,-8 5,3 9,7 14,10 -13,4 -23,6 -36,-1l0 0z"/>
  <path class="fil1" d="M184 232c-2,0 -1,-1 -2,-2 2,-4 6,-6 11,-7 0,-1 0,-1 0,-2 7,-2 12,2 18,5 -10,5 -14,8 -24,9l-3 -3z"/>
  <path class="fil1" d="M122 219c1,0 1,0 1,0 0,0 0,0 0,0 0,0 0,0 0,1 0,0 0,0 -1,-1l0 0z"/>
  <path class="fil1" d="M170 225c-1,0 -3,-1 -4,-1 0,-1 -1,-1 -1,-2 10,-6 21,-16 31,-8 -8,8 -16,9 -26,11l0 0z"/>
  <path class="fil1" d="M177 222c0,0 0,0 0,-1 0,0 0,0 0,0 0,1 0,1 0,1 0,0 0,0 0,0l0 0z"/>
  <path class="fil1" d="M120 213c-7,-3 -13,-6 -19,-10 10,-1 19,-3 29,-6 4,3 8,7 13,10 -1,1 -1,1 -1,2 -8,2 -8,2 -22,4l0 0z"/>
  <path class="fil1" d="M159 214c-10,-4 -10,-4 -11,-5 14,-7 23,-10 37,-6 -3,7 -20,10 -26,11l0 0z"/>
  <path class="fil1" d="M88 196c-7,-4 -15,-7 -20,-13 16,1 31,1 46,-5 1,1 2,1 3,2 0,1 0,1 -1,2 4,3 7,6 9,11 -12,5 -24,4 -37,3l0 0z"/>
  <path class="fil1" d="M146 201c-4,-2 -7,-4 -11,-6 9,-3 35,-14 43,-3 -11,5 -20,9 -32,9l0 0z"/>
  <path class="fil1" d="M133 188c-4,-2 -13,-6 -14,-12 15,1 29,-4 43,-2 3,1 6,3 9,5 -14,8 -24,9 -38,9l0 0z"/>
  <path class="fil1" d="M74 176c-11,-4 -20,-11 -31,-16 0,-1 0,-1 0,-2 -2,0 -2,-1 21,2 11,1 22,-1 34,-3 3,5 7,10 10,15 -11,5 -22,5 -34,4l0 0z"/>
  <path class="fil1" d="M122 171c-8,-4 -14,-7 -20,-15 20,1 49,-7 64,9 -15,2 -29,6 -44,6l0 0z"/>
  <path class="fil1" d="M47 150c-10,-5 -18,-11 -27,-19 11,2 22,4 33,5 28,-1 28,-1 32,0 0,3 4,9 7,10 0,1 0,2 0,4 -15,2 -29,2 -45,0l0 0z"/>
  <path class="fil1" d="M106 151c-7,-5 -12,-11 -17,-17 5,0 5,0 21,4 18,1 38,-2 52,12 -19,1 -37,3 -56,1l0 0z"/>
  <path class="fil1" d="M32 126c-12,-6 -27,-17 -32,-31 22,8 45,18 69,13 3,2 3,4 4,7 1,0 1,0 2,0 1,5 3,9 4,12 -16,2 -31,1 -47,-1l0 0z"/>
  <path class="fil1" d="M98 129c-6,-3 -19,-9 -20,-18 -1,0 -1,0 -2,0 0,-1 0,-2 -1,-2 10,2 10,2 20,5 23,4 43,5 63,20 -20,-1 -40,-3 -60,-5l0 0z"/>
  <path class="fil1" d="M378 99c-15,-8 -25,-18 -43,-13 -10,1 -12,4 -11,8 8,5 18,8 31,8 -18,7 -22,17 -19,27 6,10 18,17 41,18 -16,53 -54,85 -106,103 45,-16 64,-48 74,-76 -28,22 -43,35 -68,39 26,-13 44,-29 54,-52 -20,11 -38,18 -56,23 26,-14 44,-32 45,-52 -11,8 -20,9 -30,11 11,-11 18,-21 15,-33 -6,-8 -17,-10 -21,-4 43,-78 100,-3 94,-7z"/>
  <path class="fil1" d="M164 99c14,-8 24,-18 43,-13 9,1 12,4 11,8 -8,5 -19,8 -32,8 18,7 22,17 19,27 -6,10 -17,17 -41,18 16,53 49,74 99,103 -40,-23 -57,-48 -66,-76 27,22 44,35 70,39 -27,-13 -46,-29 -57,-52 20,11 38,18 57,23 -26,-14 -45,-32 -46,-52 11,8 21,9 30,11 -10,-11 -18,-21 -14,-33 5,-8 17,-10 20,-4 -43,-78 -100,-3 -93,-7z"/>
  <path class="fil1" d="M165 125c1,-4 11,-18 25,-11 19,9 11,17 4,21 -7,3 -14,-11 -19,-8 -4,2 -9,8 -11,14 -1,-8 -1,-13 1,-16z"/>
  <path class="fil1" d="M377 122c-1,-4 -9,-17 -23,-12 -19,8 -14,21 -7,24 7,4 14,-11 18,-8 4,3 10,9 12,15 1,-8 1,-14 0,-19z"/>
  <path class="fil1" d="M223 230c0,0 33,24 47,23 15,0 46,-22 46,-22 0,0 -44,37 -46,70 -7,-34 -29,-52 -47,-71z"/>
  <path class="fil1" d="M209 191c0,0 31,25 53,25 -9,8 -18,1 -18,5 0,5 13,7 13,19 -16,-10 -43,-34 -48,-49z"/>
  <path class="fil1" d="M332 190c0,0 -31,26 -52,26 9,8 17,1 17,5 1,4 -13,7 -13,19 17,-10 44,-34 48,-50z"/>
  <path class="fil1" d="M316 139c0,0 -23,17 -38,15 6,7 12,3 12,6 -1,3 -10,4 -11,14 12,-7 32,-24 37,-35z"/>
  <path class="fil1" d="M223 135c0,0 23,19 38,18 -6,7 -12,2 -12,5 0,4 10,5 10,15 -12,-7 -32,-25 -36,-38z"/>
  <path class="fil1" d="M216 168c0,0 27,18 44,17 -7,7 -14,2 -14,5 0,4 11,5 12,15 -14,-7 -37,-25 -42,-37z"/>
  <path class="fil1" d="M325 167c0,0 -27,19 -45,18 7,7 15,2 14,5 0,4 -11,5 -12,15 15,-7 39,-26 43,-38z"/>
  <path class="fil1" d="M270 148c-6,-8 -10,-10 -18,-16 -8,-5 -8,-13 -3,-18 5,-6 16,-6 21,2 4,-8 15,-8 21,-2 4,5 4,13 -3,18 -9,6 -13,8 -18,16z"/>
  <path class="fil1" d="M270 243c-3,-4 -6,-5 -10,-9 -4,-2 -4,-7 -2,-9 3,-4 9,-3 12,1 2,-4 8,-5 11,-1 2,2 2,7 -2,9 -4,4 -6,5 -9,9z"/>
  <path class="fil1" d="M269 206c-2,-3 -4,-4 -8,-7 -3,-2 -3,-5 -1,-7 2,-3 7,-3 9,1 2,-4 7,-4 9,-1 2,2 2,5 -1,7 -4,3 -6,4 -8,7z"/>
  <path class="fil1" d="M269 172c-2,-3 -4,-4 -7,-6 -2,-2 -2,-5 -1,-6 2,-2 6,-2 8,1 1,-3 5,-3 7,-1 2,1 2,4 -1,6 -3,2 -4,3 -6,6z"/>
  <path class="fil1" d="M163 109c0,0 12,-18 29,-21 11,-2 21,1 23,4 3,2 -17,8 -25,6 -9,-1 -22,8 -27,11z"/>
  <path class="fil1" d="M378 109c0,0 -11,-18 -28,-21 -12,-2 -21,1 -24,4 -2,2 18,8 26,6 8,-1 21,8 26,11z"/>
  <path class="fil1" d="M378 115c0,0 -5,-9 -12,-11 -5,-2 -10,0 -11,0 -1,1 8,5 11,5 4,-1 10,4 12,6z"/>
  <path class="fil1" d="M165 115c0,0 4,-9 12,-11 5,-2 9,0 10,0 2,1 -7,5 -11,5 -4,-1 -9,4 -11,6z"/>
  <path class="fil1" d="M169 137c0,-2 5,-9 11,-6 8,5 5,9 2,10 -3,2 -6,-5 -8,-3 -2,1 -5,4 -5,7 -1,-4 -1,-7 0,-8z"/>
  <path class="fil1" d="M372 137c-1,-2 -5,-9 -12,-6 -8,5 -4,9 -1,10 3,2 6,-5 8,-3 2,1 4,4 5,7 1,-4 0,-7 0,-8z"/>
 </g>
</svg>
