<?xml version="1.0" encoding="UTF-8"?>
<!DOCTYPE svg PUBLIC "-//W3C//DTD SVG 1.1//EN" "http://www.w3.org/Graphics/SVG/1.1/DTD/svg11.dtd">
<!-- Creator: CorelDRAW X8 -->
<svg xmlns="http://www.w3.org/2000/svg" xml:space="preserve" width="1.38537in" height="1.20116in" version="1.1" style="shape-rendering:geometricPrecision; text-rendering:geometricPrecision; image-rendering:optimizeQuality; fill-rule:evenodd; clip-rule:evenodd"
viewBox="0 0 169 147"
 xmlns:xlink="http://www.w3.org/1999/xlink">
 <defs>
  <style type="text/css">
   <![CDATA[
    .fil0 {fill:black;fill-rule:nonzero}
    .fil1 {fill:white;fill-rule:nonzero}
   ]]>
  </style>
 </defs>
 <g id="__x0023_Layer_x0020_1">
  <metadata id="CorelCorpID_0Corel-Layer"/>
  <path class="fil0" d="M142 5c-28,-15 -56,5 -57,39 -2,-34 -30,-54 -58,-39 -49,32 -20,68 -3,91 16,22 59,50 61,51l0 0c0,0 0,0 0,0 0,0 0,0 0,0l0 0c1,-1 44,-29 60,-51 17,-23 46,-59 -3,-91z"/>
  <path class="fil1" d="M82 50c0,0 1,-5 3,-8 1,1 2,4 4,8 0,0 2,-31 24,-18 22,13 -6,43 -21,54 -5,4 -3,6 2,5 5,-2 48,-19 39,-53 -4,-13 -22,-26 -38,-13 0,0 17,-24 39,8 4,6 15,34 -26,64 -13,11 -26,21 -17,20 9,-1 32,-17 38,-23 0,0 -30,35 -42,49 0,0 49,-41 57,-57l-8 2c0,0 37,-38 13,-65 -24,-27 -46,-11 -51,-6 -5,4 -11,13 -12,18 0,2 -1,7 -2,2 0,0 -11,-28 -30,-30 -20,-1 -50,16 -40,49 7,15 13,24 20,31l-10 -3c0,0 15,26 59,59 0,0 -39,-41 -42,-47 0,0 25,22 38,22 0,0 7,1 -2,-6 -8,-7 -37,-28 -45,-56 -7,-28 16,-41 32,-37 0,0 -38,2 -27,38 7,18 33,33 39,35 6,1 9,-1 2,-6 -6,-5 -34,-26 -30,-43 3,-17 22,-16 26,-9 4,6 5,8 8,16z"/>
 </g>
</svg>
