<?xml version="1.0" encoding="UTF-8"?>
<!DOCTYPE svg PUBLIC "-//W3C//DTD SVG 1.1//EN" "http://www.w3.org/Graphics/SVG/1.1/DTD/svg11.dtd">
<!-- Creator: CorelDRAW X8 -->
<svg xmlns="http://www.w3.org/2000/svg" xml:space="preserve" width="3.5857in" height="3.25119in" version="1.1" style="shape-rendering:geometricPrecision; text-rendering:geometricPrecision; image-rendering:optimizeQuality; fill-rule:evenodd; clip-rule:evenodd"
viewBox="0 0 612 555"
 xmlns:xlink="http://www.w3.org/1999/xlink">
 <defs>
  <style type="text/css">
   <![CDATA[
    .fil0 {fill:#ED0000;fill-rule:nonzero}
   ]]>
  </style>
 </defs>
 <g id="Layer_x0020_1">
  <metadata id="CorelCorpID_0Corel-Layer"/>
  <path class="fil0" d="M446 7c-33,5 -63,24 -88,45 -25,21 -48,49 -55,82 2,-1 4,-1 6,-2 -18,-18 -29,-41 -45,-61 -16,-21 -39,-32 -64,-37 -26,-6 -55,-6 -81,3 -26,8 -46,26 -61,49 -60,92 31,202 93,265 56,56 113,110 155,178 2,2 5,2 7,0 41,-60 90,-114 142,-165 42,-43 88,-83 120,-134 29,-47 36,-104 12,-154 -22,-46 -74,-71 -123,-70 -6,0 -12,0 -17,1 -5,1 -5,8 0,7 54,-7 109,16 134,65 28,54 11,115 -21,161 -34,49 -81,88 -122,131 -48,48 -93,99 -132,154 3,0 5,0 7,0 -36,-57 -82,-105 -129,-153 -39,-38 -78,-76 -106,-124 -28,-46 -45,-103 -17,-153 16,-29 41,-48 73,-55 30,-7 66,-3 93,10 37,17 51,60 77,87 2,2 6,2 6,-1 6,-32 29,-58 53,-79 24,-20 53,-38 85,-43 4,-1 2,-7 -2,-7z"/>
  <path class="fil0" d="M612 158c-2,-30 -12,-56 -36,-74 -21,-16 -48,-23 -75,-24 -34,-3 -69,3 -101,17 -28,12 -57,27 -75,54 3,1 5,2 7,3 1,-7 -5,-14 -9,-19 -9,-13 -16,-26 -25,-39 -18,-26 -41,-47 -69,-61 -53,-26 -112,-16 -161,14 -37,23 -62,60 -67,103 -6,46 12,92 36,130 36,57 95,94 142,142 46,47 71,112 126,150 3,2 6,-1 6,-4 0,2 -1,3 0,1 1,-1 2,-2 3,-3 3,-4 6,-8 10,-12 10,-11 20,-23 31,-35 26,-30 53,-59 80,-89 17,-20 35,-40 54,-58 41,-39 84,-78 108,-130 10,-21 15,-43 15,-66 -1,-5 -8,-5 -7,0 1,61 -41,112 -82,153 -24,24 -49,47 -72,72 -47,52 -94,104 -140,157 -2,3 -8,8 -7,12 2,-2 3,-3 5,-4 -52,-36 -77,-97 -119,-143 -45,-49 -103,-84 -142,-139 -28,-40 -46,-89 -39,-138 7,-50 44,-86 88,-107 47,-21 98,-18 142,8 23,13 40,33 55,54 7,10 13,20 20,31 2,3 12,13 11,18 -1,4 4,6 7,3 15,-24 40,-37 64,-49 30,-13 60,-19 92,-20 27,0 53,5 76,18 27,16 39,43 41,74 0,4 7,4 7,0z"/>
  <path class="fil0" d="M456 39c-31,5 -58,23 -83,41 -14,10 -27,21 -39,32 -7,5 -13,11 -19,16 -4,5 -9,7 -13,13 2,-1 4,-1 5,-2 -13,-9 -22,-23 -34,-33 -12,-10 -25,-21 -38,-30 -27,-19 -56,-34 -89,-39 -61,-8 -104,46 -120,99 -30,101 73,181 138,240 59,52 107,112 151,177 1,2 5,2 6,0 51,-110 157,-175 224,-273 16,-23 29,-48 38,-76 7,-24 14,-58 4,-83 -20,-49 -75,-86 -127,-82 -1,0 -2,0 -3,0 -5,1 -5,8 0,7 54,-6 122,39 127,96 4,57 -27,111 -60,154 -66,88 -162,151 -209,253 2,0 4,0 6,0 -39,-57 -80,-111 -130,-159 -38,-35 -78,-67 -112,-106 -34,-39 -59,-87 -47,-140 6,-29 24,-59 46,-79 31,-28 72,-24 108,-9 24,10 46,26 67,43 9,7 18,14 27,22 8,8 14,18 24,25 1,1 4,0 5,-2 3,-5 9,-9 14,-13 5,-5 10,-10 16,-14 13,-12 26,-22 41,-33 23,-17 48,-33 78,-38 4,0 2,-7 -2,-7z"/>
 </g>
</svg>
