<?xml version="1.0" encoding="UTF-8"?>
<!DOCTYPE svg PUBLIC "-//W3C//DTD SVG 1.1//EN" "http://www.w3.org/Graphics/SVG/1.1/DTD/svg11.dtd">
<!-- Creator: CorelDRAW X8 -->
<svg xmlns="http://www.w3.org/2000/svg" xml:space="preserve" width="1.7356in" height="1.67489in" version="1.1" style="shape-rendering:geometricPrecision; text-rendering:geometricPrecision; image-rendering:optimizeQuality; fill-rule:evenodd; clip-rule:evenodd"
viewBox="0 0 258 249"
 xmlns:xlink="http://www.w3.org/1999/xlink">
 <defs>
  <style type="text/css">
   <![CDATA[
    .fil0 {fill:#ED0000;fill-rule:nonzero}
   ]]>
  </style>
 </defs>
 <g id="Layer_x0020_1">
  <metadata id="CorelCorpID_0Corel-Layer"/>
  <path class="fil0" d="M241 13c-23,-21 -55,-15 -74,7 -18,21 -25,49 -35,74 -27,-24 -75,-71 -103,-25 -15,26 15,51 33,65 31,23 66,41 91,70 2,3 6,1 7,-2 4,-11 11,-22 17,-32 8,-15 16,-30 24,-45 7,-13 13,-27 17,-42 2,-9 4,-20 -2,-29 -23,-32 -68,60 -80,84 -25,-18 -50,-36 -74,-55 -5,-4 -10,3 -5,7 26,19 52,37 78,57 2,1 4,0 5,-1 10,-19 19,-38 31,-55 4,-7 34,-52 40,-27 3,10 -2,22 -6,32 -5,13 -12,27 -19,40 -10,19 -23,37 -31,57 -19,-19 -42,-34 -64,-49 -20,-14 -56,-33 -57,-60 -1,-11 11,-23 21,-25 10,-3 21,3 29,7 18,10 32,25 47,38 2,1 5,1 6,-1 10,-23 17,-48 31,-69 6,-11 16,-21 28,-24 15,-5 32,2 42,12 27,28 3,75 -10,103 -20,39 -44,76 -67,114 -24,-21 -52,-37 -77,-56 -29,-22 -61,-48 -72,-83 -10,-31 2,-68 36,-76 31,-7 65,13 74,43 1,3 5,2 4,-1 -5,-32 -37,-51 -68,-51 -35,0 -56,28 -58,61 -2,38 26,69 53,93 30,26 65,47 97,72 3,2 6,4 9,7 2,2 5,2 7,-1 27,-44 56,-87 77,-135 14,-30 27,-73 -2,-99z"/>
 </g>
</svg>
