<?xml version="1.0" encoding="UTF-8"?>
<!DOCTYPE svg PUBLIC "-//W3C//DTD SVG 1.1//EN" "http://www.w3.org/Graphics/SVG/1.1/DTD/svg11.dtd">
<!-- Creator: CorelDRAW X8 -->
<svg xmlns="http://www.w3.org/2000/svg" xml:space="preserve" width="1.74207in" height="2.24505in" version="1.1" style="shape-rendering:geometricPrecision; text-rendering:geometricPrecision; image-rendering:optimizeQuality; fill-rule:evenodd; clip-rule:evenodd"
viewBox="0 0 223 288"
 xmlns:xlink="http://www.w3.org/1999/xlink">
 <defs>
  <style type="text/css">
   <![CDATA[
    .fil2 {fill:#E81C21}
    .fil0 {fill:#E81C21;fill-rule:nonzero}
    .fil1 {fill:url(#id0);fill-rule:nonzero}
   ]]>
  </style>
  <linearGradient id="id0" gradientUnits="userSpaceOnUse" x1="146.45" y1="287.676" x2="146.769" y2="287.676">
   <stop offset="0" style="stop-opacity:1; stop-color:#D30505"/>
   <stop offset="0.329412" style="stop-opacity:1; stop-color:#E90303"/>
   <stop offset="1" style="stop-opacity:1; stop-color:red"/>
  </linearGradient>
 </defs>
 <g id="__x0023_Layer_x0020_2">
  <metadata id="CorelCorpID_0Corel-Layer"/>
  <path class="fil0" d="M107 33c-1,1 -2,2 -2,1 -1,2 -2,2 -1,3 0,1 -1,2 -1,2 -1,0 -1,0 -1,-1 0,0 0,1 0,2 -1,1 -1,1 -1,2 0,0 0,1 0,1 0,0 0,-1 0,-2 1,0 1,-1 1,-1 1,1 -2,4 -1,5 0,0 0,-1 1,-2 0,-1 1,-2 1,-2l0 0c0,-1 1,-3 2,-4 0,1 0,1 0,1 1,-2 1,-3 1,-3 0,-1 0,-1 1,-3 0,0 0,1 0,1z"/>
  <path class="fil0" d="M112 31c0,0 0,-1 0,-2 0,0 1,-1 1,-1l3 -2c-1,0 2,-2 0,-1 0,0 -1,0 -1,1 -1,-1 3,-3 2,-4 -2,2 -3,3 -4,4 0,1 -1,1 -1,1 -1,1 -1,1 -2,1 0,1 -1,2 -2,2 0,1 0,1 0,2 0,0 0,0 0,-1l1 1c0,-1 1,-1 2,-2 0,0 -1,1 -1,2 -1,1 -1,2 -1,2 1,0 4,-3 5,-4 -2,0 1,-2 -2,1z"/>
  <path class="fil0" d="M108 32c-1,0 -1,0 -1,0 0,0 0,0 1,0z"/>
  <path class="fil0" d="M53 150c-1,0 -1,-1 -1,-1 0,0 0,1 1,2 0,1 1,2 2,3 0,1 1,2 1,3 1,1 1,2 1,2 0,-1 -1,-4 0,-2 0,-1 -1,-3 -2,-3l1 0c-2,-2 -2,-4 -1,-3l0 0 -6 -4c2,2 2,1 4,3z"/>
  <path class="fil0" d="M87 39c0,-1 -1,-1 -1,-1 1,0 1,1 1,1z"/>
  <path class="fil0" d="M48 145c0,0 -1,0 -1,0 -1,-1 -1,-1 -1,-1 1,1 1,1 2,1z"/>
  <path class="fil0" d="M66 153c0,0 0,0 0,0l-1 -1c0,0 0,0 0,0 1,0 1,0 1,1z"/>
  <path class="fil0" d="M81 173c0,0 0,0 0,0 0,0 -1,0 -1,0 1,0 0,-1 1,-1 0,0 0,0 0,0l0 0c0,0 0,0 0,0 -1,0 -1,-1 -1,0 0,0 1,1 1,0 -1,0 -1,0 -1,0 0,0 0,0 0,0 0,0 0,0 -1,0 0,0 0,-1 0,-1 -1,0 -1,0 -3,-2 1,2 2,3 3,4 0,0 0,0 0,0 0,0 1,1 1,0 0,0 1,0 1,0 0,0 0,0 0,0z"/>
  <path class="fil0" d="M49 146c0,0 -1,0 -1,-1l1 2c0,-1 0,-1 0,-1z"/>
  <path class="fil0" d="M53 148l2 3c0,0 0,0 1,1 0,0 0,0 0,0 -1,-1 -2,-3 -3,-4z"/>
  <path class="fil0" d="M19 111c-5,-7 2,1 0,-2 -1,-2 -2,-3 -3,-4 4,6 -2,0 2,6 -1,0 -4,-4 -5,-6 -1,-3 2,2 3,2 -2,-3 -1,-2 -3,-3 -2,-4 -5,-8 -5,-11 -2,-3 -2,-3 -4,-4 -1,0 2,5 2,6 0,0 0,-1 0,0l1 2c-1,-2 1,0 2,1 1,1 2,3 1,3l-1 -1c1,2 3,4 4,6 0,0 -1,-1 -1,-1 2,2 3,4 6,7l-2 -1c2,2 6,7 8,11 -1,-1 -1,-1 0,-1 1,2 2,4 1,3 2,2 5,9 8,11 0,0 3,2 6,4 4,3 7,5 7,5 0,0 -1,-1 -1,-1 0,-2 -1,-2 1,-1 -2,-2 -2,0 -4,-3 1,0 3,0 1,-3 -3,-3 -6,-5 -9,-8 -3,-2 -6,-4 -9,-7 1,-1 -3,-6 -5,-9 1,0 3,2 4,4 -1,-1 -2,-3 -3,-5l-2 0z"/>
  <path class="fil0" d="M33 127c0,0 0,-1 0,-1 0,0 0,0 0,1z"/>
  <path class="fil0" d="M25 117c0,0 0,0 0,0 0,0 -1,-1 -1,-1 0,0 1,1 1,1z"/>
  <path class="fil0" d="M49 143c1,1 1,1 1,1 0,0 0,0 -1,-1 0,0 0,0 0,0z"/>
  <path class="fil0" d="M49 145l0 0c0,0 0,1 0,1 0,0 0,0 0,-1z"/>
  <path class="fil0" d="M9 78l-1 -1c1,0 1,1 1,1z"/>
  <path class="fil0" d="M15 102c1,3 1,0 3,3l0 -1c2,3 4,8 7,11 -1,0 1,2 0,2 1,2 3,4 4,4 1,2 3,3 4,5 0,-1 3,2 -1,-2 1,0 1,0 1,0 -2,-2 -3,-3 -5,-5 0,-2 2,2 2,0 -3,-2 -6,-9 -7,-8 -2,-2 -2,-2 -2,-3 -1,-1 -3,-4 -5,-7 -1,-3 -2,-5 -3,-5 0,1 2,4 3,5l-1 1z"/>
  <path class="fil0" d="M46 139c0,0 0,0 0,0 0,0 0,0 0,0z"/>
  <path class="fil0" d="M60 174l-2 0c-3,-7 -4,-9 -7,-14 0,-1 1,0 1,0 -2,-3 -6,-9 -8,-11 -1,-1 -2,-4 -1,-3 -1,-1 -1,-1 -2,-2 1,-1 1,1 2,1 -1,0 -1,-1 -1,-1 1,1 1,-2 4,2 0,3 -2,-2 -3,-1 1,2 1,1 2,1 1,2 0,2 0,2 1,1 2,3 3,4 2,3 -1,0 0,2l2 1c0,0 1,1 1,1 1,1 1,2 1,2 2,3 2,2 3,2 0,0 1,-1 3,2 -1,0 -1,3 0,6 -1,-2 -3,-5 -4,-7 0,2 0,1 -1,-1 -1,-1 -1,-2 -1,-1 1,1 2,4 3,6l0 -1c1,2 3,3 4,7 1,1 0,1 0,1 1,1 1,2 1,2zm-2 -3l0 0 -1 -2c0,1 1,1 1,2z"/>
  <path class="fil0" d="M114 144l1 -1c0,1 -1,1 -1,1z"/>
  <path class="fil0" d="M132 121l1 -2c0,1 0,1 -1,2z"/>
  <path class="fil0" d="M132 121c0,0 0,0 0,0 0,0 0,0 0,0l0 0z"/>
  <path class="fil0" d="M102 150c-1,1 -1,1 -1,1 0,0 1,0 1,-1z"/>
  <path class="fil0" d="M105 152c0,0 0,0 0,0l0 0z"/>
  <path class="fil0" d="M82 178l-1 0c0,0 0,0 0,0l0 0c0,0 0,0 0,0 0,0 1,0 1,0z"/>
  <path class="fil0" d="M101 155c0,0 0,0 0,0 0,0 0,0 0,0z"/>
  <path class="fil0" d="M82 203l-1 1c0,0 1,-1 1,-1z"/>
  <path class="fil0" d="M95 187c0,0 0,0 0,0 0,0 0,0 0,0z"/>
  <path class="fil0" d="M84 173c0,0 0,0 0,0 0,0 0,0 0,0z"/>
  <path class="fil0" d="M95 187c0,0 0,0 0,0 0,0 0,0 0,0z"/>
  <path class="fil0" d="M139 135c0,0 0,0 -1,0 0,0 1,0 1,0z"/>
  <path class="fil0" d="M129 144c-1,0 -1,0 -1,0l1 0z"/>
  <path class="fil0" d="M95 187c0,0 0,1 -1,1 1,0 1,-1 1,-1z"/>
  <path class="fil0" d="M150 117c0,0 0,0 0,0l0 0 0 0z"/>
  <path class="fil0" d="M155 112c0,0 0,1 0,1 1,-2 5,-6 4,-7 0,1 -4,4 -3,3 -1,2 -4,3 -4,4 2,-2 1,0 0,2 -2,1 -1,-1 -2,0l-2 3 2 -2 0 1c0,0 0,0 0,0 4,-5 1,0 5,-5z"/>
  <path class="fil0" d="M155 113c0,0 0,0 -1,1 1,-1 1,-1 1,-1z"/>
  <path class="fil0" d="M58 155c0,0 1,3 1,3 0,-1 0,-2 -1,-3l0 0z"/>
  <path class="fil0" d="M57 153c0,0 0,-1 -1,-1l1 1c-1,-1 -1,-2 -1,-3 0,0 -1,0 -1,0 0,0 0,0 0,0 0,0 0,-1 0,-1 -2,-1 -4,-5 -6,-6 -1,-1 -2,-3 -3,-4 1,1 2,2 2,2 -1,-2 -1,-4 -5,-7l2 2c0,0 -1,-1 -2,-2 -1,-1 -3,-2 -3,-2 0,-2 3,2 4,2 -4,-3 -5,-7 -7,-8 1,-1 1,-2 -1,-4 1,2 -1,-2 -1,0 -1,0 -2,-3 -2,-2l0 0c-2,-5 -4,-6 -6,-7 -1,-1 -2,-2 -2,-3 -1,-2 -2,-2 -2,-3 -1,-2 -2,-4 -4,-6 1,-1 1,-2 0,-4 -1,-1 -4,-5 -4,-5 1,4 2,3 3,4 0,3 -1,1 0,4 0,-1 -2,-3 -3,-5 -1,-2 -2,-5 -2,-6l0 1c-1,-4 1,-5 -3,-10 0,0 0,0 0,-1 -1,-1 -1,-1 -1,-1 0,0 0,0 0,0 -1,-5 0,-4 -3,-8 1,0 1,0 1,0 -1,-3 -2,-5 -3,-7 0,-2 1,0 1,1 -1,-5 -3,-11 -4,-14 0,0 0,-1 0,-2 0,0 1,-1 1,-1 0,2 1,4 1,4 0,-2 0,-2 0,-4 0,0 0,1 1,2 0,-2 0,-3 0,-3 -1,0 -1,0 0,-2 0,-1 -1,-2 -1,-3 0,0 0,0 1,-1 0,-1 0,-1 0,-1 0,-1 0,-5 1,-7 0,0 -1,2 -1,3 0,0 0,-1 0,-2 0,-1 0,-2 1,-3 0,0 1,0 1,-1 0,-1 1,-1 1,-2 0,0 1,-1 1,-1 1,-2 1,-2 2,-3 0,0 1,-1 1,0 2,-3 5,-6 9,-9 3,-2 7,-4 9,-5 2,0 5,-1 4,0 2,0 5,-1 7,-1 1,0 2,0 4,0 1,0 2,0 4,0 0,0 -3,0 -3,0 1,0 2,0 3,0 1,1 2,1 3,1 1,0 1,1 2,1 0,0 1,0 1,0 1,1 3,1 4,2 -1,-1 -1,0 -1,0 0,-1 2,0 4,1 0,0 0,0 -1,0 0,0 0,-1 0,0 5,2 10,5 14,8 4,4 8,7 11,13 -1,-1 -1,-2 -2,-2 0,-1 0,-1 -1,-1 0,-1 -1,-1 -1,-1 0,0 2,3 2,3 1,1 2,3 3,5 0,0 1,1 0,0 0,2 1,3 1,5 1,1 2,2 2,3 1,3 2,6 2,10 0,0 0,-1 0,-1 -1,-1 -1,-3 -1,-4 -1,-1 -1,-2 -1,-3 -1,-1 -1,-1 -1,-1 0,0 0,0 0,1 0,0 0,1 0,1 0,0 0,-1 -1,-2 0,-1 -1,-2 -1,-2 0,1 1,2 1,3 0,1 0,2 0,2 0,-1 0,-2 -1,-2 0,3 1,3 1,4 0,-1 -1,-2 -1,-4 0,0 -1,-1 -1,-2 0,-1 0,-1 -1,-2 0,-1 0,-2 -1,-2 0,-1 -1,-2 -1,-3 0,0 -1,-1 -1,-2 0,0 -1,-1 -1,-1 0,-1 1,0 1,0 -1,-1 -1,-1 -1,-2 -1,-1 -1,-1 -2,-2 -1,-1 0,1 1,2 -1,0 -1,-1 -2,-2 0,0 0,0 0,-1 -1,0 -1,-1 -2,-2 -1,-2 -3,-3 -3,-4 -3,-2 -3,-2 -3,-1 0,0 0,0 0,0 0,0 -1,-1 -2,-2l-1 -2c-4,-1 -9,-3 -13,-5l1 1c1,-1 0,-1 -1,-1 0,-1 -1,-1 -2,-1 -1,0 -2,0 -2,0 -2,-1 -3,-1 -4,-1 -4,0 -10,1 -14,3 -1,-1 1,-1 2,-2 2,0 4,-1 5,-1 0,0 0,0 -1,0 0,0 0,0 -1,0 -1,0 -2,0 -2,0 1,0 2,0 3,0 1,0 1,-1 2,-1 -1,0 -2,0 -2,0 -1,0 -2,0 -2,1 -1,0 -1,0 -2,0 0,1 -1,1 -2,1 0,0 0,0 -2,0l0 1c0,0 0,0 0,0 0,0 -1,0 -1,0 -1,1 -1,1 -2,1 -1,1 -2,2 -2,2 1,0 1,0 2,-1 0,0 1,0 2,-1 -1,1 2,0 2,0 -3,1 -6,3 -7,4l-1 0c-3,2 -5,4 -6,5l0 0c-2,2 -4,5 -5,7 -1,3 -1,7 -1,9 0,1 0,3 0,5 -1,2 -1,3 -1,4 1,1 1,2 1,3 0,0 -1,-2 -1,-3 0,1 0,2 0,3 1,1 1,1 0,2 0,-6 0,0 -1,-2 0,1 1,2 1,3 0,1 1,2 1,3 -1,-4 1,1 0,-3 1,3 3,7 4,11 -1,0 -1,0 0,2l0 1c1,1 -1,-3 0,0 1,2 2,4 3,7 1,2 2,4 3,5 0,2 -3,-5 -2,-1 -1,-1 -2,-2 -2,-3 -1,-2 -1,-3 -2,-3 2,2 0,1 1,3l1 2 0 0c1,2 3,4 4,7 1,3 3,6 4,8 2,2 4,4 5,5 2,2 3,4 5,6 -1,-1 2,5 0,2 1,3 3,5 3,5 -1,-3 0,-1 -1,-3 1,1 3,4 3,5 0,-1 0,0 0,0 1,2 1,0 2,2 0,1 3,4 4,6l3 2c-2,-1 1,2 1,3 1,1 3,2 5,5 -1,-1 1,2 1,3 0,1 1,2 2,3 0,1 1,2 2,2 2,2 3,4 4,6 0,0 -1,0 0,1 1,1 2,3 2,4l0 0c0,0 0,0 0,0 1,0 1,1 1,1 2,1 3,2 5,6 1,-1 -1,-4 -2,-5l-2 -1c1,-2 -2,-4 -2,-5 3,2 6,9 9,13 -1,-2 -1,-4 -2,-6 -1,-1 -1,-3 -2,-4 -1,-1 -2,-2 -2,-3l1 2 -2 -3 1 3c-1,-1 -1,-2 -2,-3 -1,-1 -1,-2 -2,-3 2,2 1,4 1,2 -1,-3 -3,-2 -4,-4 1,1 2,2 1,2 -2,-5 -3,-6 -5,-9 0,1 -3,-5 -4,-5l1 2 -3 -3c-1,-3 3,2 0,-3 -3,-4 -4,-3 -6,-6 1,0 3,3 5,5l-1 -2c1,1 4,5 5,7 -2,-3 1,1 2,3 0,0 -1,-2 1,0 -2,-2 -2,-2 -4,-5 2,3 4,4 5,5 2,1 3,2 5,5 -2,-3 -1,1 -1,1 1,2 3,4 4,5l0 -2c2,4 1,6 4,9 1,1 -1,-3 -1,-3 2,3 3,5 3,7 1,2 1,4 2,6 1,1 1,0 2,2 0,-1 0,1 -1,-1 0,2 1,3 2,5 -1,-4 2,1 2,1 1,2 0,0 -1,-1 0,1 0,3 2,4 -1,0 -4,-3 -5,-6l1 2c-1,-1 -1,-1 -2,-3 0,2 0,2 -1,2 0,-1 1,0 0,-1 0,-1 -1,-2 -1,-1 -1,-1 1,2 1,3 0,0 0,1 1,2 0,0 1,1 3,3 0,0 1,0 1,1 0,0 0,0 0,0 1,0 1,0 1,0 0,1 0,0 0,0 1,1 1,2 1,3 0,0 0,0 0,0 0,-1 0,-1 0,-1 0,1 1,1 1,1 0,1 0,1 -1,2 0,-1 0,-1 0,-1 0,0 0,0 0,0 0,0 0,0 0,0 1,1 1,1 1,1 0,0 -1,1 -1,1 0,1 1,2 0,3 1,0 1,1 1,1l0 0c0,0 0,0 0,0l1 0 0 -1c-1,0 0,-1 0,-2 0,1 1,0 1,0 0,-1 1,-2 1,-2l0 0c1,0 1,-1 2,-2 0,-1 -1,-2 -1,-4 0,0 0,1 0,1 0,0 -1,1 -1,0 0,1 0,0 0,0 0,0 0,0 0,0 0,0 0,0 0,0l0 0c0,0 0,0 0,0 0,-1 0,-1 0,-1 0,0 0,1 -1,1l0 0 0 0 0 0 0 0 0 0c0,0 0,1 0,1 0,0 0,1 0,2 0,0 0,-1 0,-1 1,1 0,1 -1,2 0,0 0,0 0,0l0 1c0,-1 0,-2 0,-3 0,0 0,0 0,0 0,0 0,1 0,1 0,0 0,0 -1,0l0 0c0,0 0,0 0,0 0,1 0,1 0,1 0,-1 0,-1 0,-1 0,-1 0,-1 0,-1 0,0 0,0 1,0 0,0 0,0 0,-1l0 0c0,0 0,-1 0,-1 0,0 0,0 0,0 0,0 0,0 0,0 0,0 0,0 0,0 0,-1 1,2 1,0 -1,0 -1,-1 -1,-1 0,1 1,-1 2,-3 -1,3 1,0 1,2 1,-1 1,-3 2,-3 0,-1 0,-2 0,-3 1,-1 2,-1 0,2 1,1 2,-4 4,-3 0,-2 1,-3 2,-3 0,-1 1,-2 1,-3 1,-1 1,-2 2,-3 1,-1 1,-2 2,-4 1,0 2,-1 2,-2 1,0 2,-1 3,-2l0 1c6,-6 9,-8 14,-13l4 -2c-1,1 -2,3 -1,3 -2,1 -4,3 -7,4 0,0 1,0 2,0 -1,1 -2,1 -4,2 0,1 2,-1 1,1l-3 1c-2,3 0,3 -4,5 1,-1 1,-2 3,-4 -2,2 2,-2 0,-1 -2,3 -4,3 -6,6 0,0 0,0 1,-1 0,0 -5,4 -5,4 1,-1 -4,4 -3,4 3,-2 4,-3 5,-4 1,-1 2,-2 5,-4 -1,1 -2,2 -2,3 -1,1 -2,2 -2,3 0,0 0,0 0,0 0,1 1,0 2,1 1,-3 4,-4 6,-7 0,-1 -2,1 -4,3l3 -3 -1 1 7 -6c-1,1 -1,2 -2,3 1,-1 2,-1 3,-2 0,0 -1,-1 0,-2 2,-1 4,-3 5,-4 2,-1 3,-1 4,-1 0,-1 0,-1 0,-1 -1,0 2,-3 3,-5 0,0 2,-2 4,-3 -1,-1 -2,-1 -4,0 -2,3 -1,2 -1,4l-4 4 1 -1c-3,2 -4,4 -5,4 1,-2 3,-3 4,-5l-2 1c2,-3 2,0 4,-4 -1,1 1,0 2,-1 -2,0 -5,5 -5,3 0,-1 2,-2 3,-3 2,-1 3,-3 4,-4l0 0c3,-3 3,-4 4,-6 2,-1 3,-3 4,-5l1 1c0,0 0,-1 0,-1 1,-1 1,-1 1,-1 0,1 -2,2 -3,4l0 0c-2,1 -3,4 -4,6 2,-3 7,-7 6,-8l2 -1 0 -1c2,-1 1,1 -1,3 0,0 0,0 0,0 -1,1 -1,3 -4,5l1 -2c-2,3 -5,6 -5,7 2,-2 4,-4 6,-6 2,-1 4,-3 5,-5 0,-3 1,-5 0,-6 2,-3 5,-7 7,-9l1 1c1,-1 1,-2 2,-3 1,-1 0,1 1,0l2 -4c1,1 -2,4 -3,6 0,-1 1,-1 0,-1 -1,1 -3,5 -5,6 0,1 1,-3 -1,0 -2,2 -2,3 -2,4 0,0 3,-3 3,-2 1,-1 1,-2 3,-4 -1,2 -3,4 -4,5 -2,3 0,4 1,2 0,0 4,-6 1,-2 0,-2 3,-5 5,-8l0 0c0,0 0,-1 1,-1 0,-1 1,-2 1,-2 0,1 -1,2 -1,2l3 -5c-1,3 1,-1 2,-2 0,-1 1,-2 -1,-1 -1,1 0,1 -1,3l1 -3 0 0 0 -2c2,-3 1,2 3,-2l-1 0c0,-1 1,-2 2,-3 1,-2 2,-3 3,-4 1,-1 2,-2 2,-3 1,-1 1,-2 1,-2 0,-1 1,-1 1,-1 0,1 0,2 2,1 -1,0 -1,0 -1,1 0,0 -1,1 -1,2 -1,1 -2,2 -2,3 0,0 0,-3 2,-5 -2,0 -3,6 -4,5 -2,3 -3,4 -3,5 0,1 0,2 -2,4 0,1 -1,2 -1,3 1,-1 2,-2 3,-4 2,-2 3,-4 4,-6 0,1 0,1 0,2 1,-3 2,-4 2,-5l0 0c1,-3 1,-2 3,-3 0,-1 1,-3 1,-3l2 -3 -1 0c1,-2 1,-2 2,-3l-1 -1c0,0 0,0 0,1 -1,0 -1,1 -1,1 -1,1 -1,2 -1,2 1,-2 -1,-1 0,-3 0,3 2,-2 2,-2 0,0 0,0 1,-1 0,0 0,-1 0,-1l0 1c1,-1 0,-2 1,-4 -1,2 -2,3 -3,6 1,-2 2,-6 2,-7 0,-2 1,-3 2,-5 -1,4 2,0 0,7 -1,0 0,-1 0,-1 -1,0 -2,4 -2,6 1,-1 0,1 2,-1 -1,0 -1,-3 1,-6l1 1c0,0 0,-1 0,-2 1,0 1,-1 1,-1l0 0c1,-1 1,-4 2,-7 0,-1 1,-3 1,-5 0,-1 0,-2 -1,-1 1,-2 1,-4 1,-7 0,0 0,1 -1,2 0,0 0,1 0,1 0,-2 0,-2 0,-3 -1,-1 -1,-1 -1,-2 0,-1 0,-1 1,-1 0,-2 0,-5 -1,-7 0,-2 -2,-4 -3,-4 0,-1 0,-2 -1,-3 0,-1 -1,-2 -3,-3 0,0 0,0 -1,0 0,1 0,0 -1,0 0,-1 3,0 0,-1 -1,0 -2,-1 -4,-2 -1,-1 -3,-1 -4,-1 -2,-1 -5,-1 -4,-2 3,1 6,2 7,1 0,1 2,2 0,1 2,1 2,1 3,1 0,0 1,1 2,2 1,-1 -1,-2 -2,-2 0,-1 2,0 3,1 2,0 2,1 1,-1 -1,-1 -3,-1 -4,-1 -1,0 -2,0 -4,-1 1,0 2,0 3,0 1,0 2,1 3,1 0,0 -1,-1 -2,-1 0,-1 -1,-1 -1,-1l-2 0 0 0c-2,-1 -3,-1 -5,-1 -1,0 -2,0 -4,0 2,1 -1,2 1,3 -3,0 -5,-1 -5,-2 3,0 3,0 3,0 0,-1 0,-1 0,-1 1,0 1,0 3,0 -1,-1 1,-2 -2,-2 -4,0 1,1 -3,1 0,0 0,0 0,0 -2,0 -2,0 -4,0l1 0c-3,0 -3,1 -5,1 1,0 -1,0 -3,1 1,0 2,0 3,0 2,0 3,0 5,0 0,0 0,-1 2,-1l-3 0c1,0 1,0 2,0 0,0 0,0 1,0 0,0 1,0 1,0 -3,1 -2,1 -3,2 -3,0 -2,0 -4,0 0,-1 -6,0 -10,0 1,0 1,0 2,0 2,-1 -2,0 -2,0l-2 1c0,0 1,-1 0,-1 -1,1 -2,1 -2,2 -1,0 -1,1 -2,1 -1,0 1,-2 -1,-1 0,0 -2,-1 -5,1 0,1 -1,1 -2,2 0,0 0,0 0,0l-2 0c1,-1 2,-1 2,-1 1,-1 2,-1 3,-2l0 -1c1,-1 3,-2 4,-2 -2,0 -3,1 -5,2 -1,0 1,-1 1,-1l0 0c2,0 3,-1 4,-2 1,-1 2,-1 4,-2 1,0 0,0 0,0 2,-1 3,-1 5,-1 1,-1 3,-1 5,-2l-1 1c1,-1 2,-1 4,-2 1,0 2,-1 3,-1 1,0 2,0 3,0l0 -1c0,0 1,0 1,0 0,0 1,0 2,0l0 0c1,0 2,0 3,0 1,0 2,0 3,0 -1,0 -1,-1 -2,-1 -1,0 -5,0 -5,1 -1,-1 -2,0 -3,0 -1,0 -2,0 -3,0 1,0 1,0 0,0 -1,1 -2,1 -2,1 -1,0 -2,0 -2,0 -1,1 -2,1 -2,0 0,0 2,0 3,0 1,-1 0,-1 -1,-1 -2,1 -3,1 -1,0 -4,1 -10,3 -14,5l3 -1c-2,1 -6,3 -7,3 2,-1 3,-2 5,-3 0,0 -4,2 -5,2 0,0 -1,1 -2,1 -1,1 -2,2 -2,2l2 -1c0,1 -2,1 -3,2 -2,1 -4,2 -5,3 0,-1 1,-2 3,-2 0,-1 1,-1 2,-2 1,0 2,0 2,-1 3,-2 -2,0 1,-2 -1,1 -3,1 -3,2 0,0 -1,0 -1,0 0,0 0,0 0,0 1,-1 2,-2 4,-3 2,-1 4,-2 5,-3 0,0 0,0 0,1 3,-1 5,-2 8,-3 -2,0 -2,0 -3,1 0,0 2,-1 3,-2 -2,1 -1,0 -2,0 1,0 3,-1 5,-1 1,0 -1,0 -1,1 1,0 2,0 3,0 1,0 2,-1 3,-1 -1,0 -1,0 -1,0 0,0 0,0 0,-1 1,0 3,0 4,-1l-1 0c1,0 2,0 3,0 -1,0 -3,0 -2,1 0,0 1,0 1,0 1,0 1,0 2,-1l-1 1c0,0 1,0 3,0 0,0 1,0 2,0 0,0 1,0 1,0 1,-1 2,-1 3,-2 1,1 3,1 5,1l-1 0c1,0 3,1 5,1 2,1 3,1 4,1 1,0 -3,0 -5,0 -1,0 -1,0 -1,0 0,1 2,1 5,2 4,2 3,0 6,1 0,0 0,0 0,0 2,1 2,1 4,2 -1,-1 -3,-2 -3,-2 0,0 1,0 2,1 1,1 3,2 3,2 -1,0 0,0 1,1 1,1 2,2 1,1 2,2 3,4 5,6 0,0 0,0 1,1 0,0 0,1 1,1 0,1 1,2 1,2 0,1 0,2 1,3 0,0 0,1 0,2 1,2 2,3 2,6 -1,-1 -1,-2 -1,-3 -1,-2 0,0 0,1 0,1 0,2 -1,0 0,0 1,0 0,-1 0,-1 0,-2 0,-2 -1,-1 -1,-1 -1,-1 0,0 0,4 0,4l0 -1c0,0 0,0 0,1 0,0 0,1 0,2 0,1 0,3 0,3 0,0 0,-1 0,-1 0,6 -1,14 -2,19 1,1 0,4 -1,8 -1,3 -2,7 -2,10 0,-2 -1,-3 -2,-2 1,-1 0,-3 1,-5 1,-1 2,-3 2,-1 1,-6 -1,0 -2,-2 -1,7 -2,11 -3,15l0 0 -1 3c1,-2 2,-2 0,1l0 0c0,1 -1,2 -2,3 0,2 -1,4 -2,5l0 2c-2,3 -3,2 -4,2 -3,4 -4,7 -5,10 -1,1 -6,7 -4,3 -1,2 -1,3 -1,5 -1,1 -1,2 -4,5l1 -2c-5,5 -11,13 -13,15 0,-3 -7,5 -9,5 0,0 -1,2 -2,2 0,0 -1,1 -1,2 2,-2 0,2 3,-2 -1,2 -1,3 -2,5 -1,1 -1,1 -2,2 -1,1 -2,2 -3,3l0 -1c0,0 1,0 1,-1 1,0 1,-1 2,-1 0,0 0,-1 0,-1 -1,0 1,-1 1,-2 -3,3 -3,2 -3,2 0,-1 0,-1 -3,2 0,1 0,0 -2,2 1,-1 1,-1 0,0l-1 2c-3,1 3,-4 1,-3 1,-2 2,-3 3,-5 1,-1 2,-2 1,-2 -4,3 -2,4 -7,8l0 0c-2,2 -1,2 -2,3 0,0 -1,0 -2,1 -1,3 -3,5 -5,8 3,-3 5,-4 6,-5 1,-1 2,-1 3,-2 0,-1 2,-2 3,-4 -1,2 -5,6 -5,7l0 -1c-2,2 -4,4 -6,6l1 -1c-2,1 -3,2 -5,3 0,1 -1,1 -2,2 0,0 -1,1 -1,2 1,-1 2,-2 2,-2 -1,2 -3,3 -5,5 0,0 -1,1 -1,2 -1,1 -1,1 -1,2 0,0 0,0 0,0 -1,0 -2,2 -2,1 -1,1 -2,2 -2,3 -1,1 -1,2 -1,3 -3,3 1,-3 0,-4 -1,2 -2,4 -4,7 0,1 -1,3 -2,4 -1,1 -1,3 -2,4 1,-2 2,-2 2,-2 -1,0 -2,3 -3,4l-1 2c-2,2 -2,1 0,-1 -1,1 -2,2 -3,4 -1,1 -2,2 -3,3 1,-1 2,-2 2,-3 1,-1 1,-1 2,-2 0,0 0,-1 1,-1 1,-2 2,-4 3,-5 -1,1 -1,2 -2,3 0,0 -1,1 -1,2 -1,0 -1,1 -2,1 0,0 -1,1 -1,1 -1,1 -2,2 -3,3 0,0 -1,1 -2,1 0,1 0,1 -1,2 0,0 0,0 0,0 0,0 -1,0 -1,0 0,0 0,0 -1,-1 0,0 1,1 0,-1 -1,-2 -2,-2 -2,-2 0,1 1,2 0,1 1,2 2,4 3,5 0,0 0,0 1,0l0 0c1,-1 1,-1 1,-1l0 1c0,0 -1,0 -1,1 0,0 0,0 0,0 -1,0 -1,0 -1,0 0,0 -1,-1 -1,-1l0 0c0,0 -1,-2 -2,-3 0,-2 -1,-4 -2,-5 0,2 1,3 1,3 0,1 0,1 0,2 -2,-1 -2,-3 -3,-4 -1,-2 -2,-3 -4,-5 1,0 4,4 1,0 -1,-3 -2,-2 -3,-4 1,1 1,1 2,1 0,0 1,1 2,1 3,5 1,2 5,7l-3 -5c3,4 2,2 3,2 -2,-4 -3,-5 -4,-5 -1,-1 -1,-1 -3,-4 -1,-2 3,5 0,2 -1,-3 -1,-3 -1,-3 -1,0 -1,0 -1,-1 0,0 -1,-1 -2,-2 0,0 0,0 1,0 0,0 0,1 0,1 0,-1 0,-1 0,-1 0,0 0,0 0,0 0,-1 -1,-1 -1,-1 0,-1 -1,-1 -1,-2 -1,-1 -2,3 -4,-3 0,0 0,0 0,0l9 3c-3,-6 -6,-12 -10,-19 1,-2 4,4 4,3l1 4c0,0 -1,-2 -1,-3 -1,-1 -2,-2 -1,-1 3,6 3,8 7,13 0,-2 -4,-7 -5,-10 1,1 2,2 3,3 -2,-3 -3,-6 -5,-10l-1 -1c1,3 2,4 2,5 -1,-3 -3,-6 -4,-5l0 0 -1 -1 -1 -2zm26 -120l0 0c0,0 -1,0 -1,0 0,0 0,0 1,0zm9 141l0 0 -2 3c0,1 -1,2 -2,3 -1,1 -2,3 -3,4 2,-2 5,-4 6,-4 0,0 0,0 -1,1 0,1 0,2 -1,3 -1,1 -1,2 -2,4l-1 1c1,-1 1,-2 2,-3 1,-1 2,-3 3,-4 0,-1 0,-2 1,-3 0,-1 0,-2 0,-3 1,-3 1,-5 1,-5 -1,1 -1,2 -2,3l1 0zm4 -1l0 0c2,-2 1,-2 1,-2 0,0 -1,1 -1,2 0,0 0,0 0,0zm1 -3l0 0c0,1 0,1 -1,1l1 -1zm-28 2l0 0c0,1 0,1 0,1 0,-1 -1,-1 -1,-2 0,0 0,1 1,1zm2 6l0 0 0 0c0,-1 0,-1 0,-2 0,1 -1,1 0,2zm9 19l0 0c0,0 0,0 0,0 1,0 1,0 1,0 0,0 0,-1 0,-1 1,0 1,-1 1,-2 1,-1 2,-1 2,-2 0,0 -1,0 -1,1l-1 1 -1 0c0,0 0,0 0,0l0 0c0,0 0,0 0,0l-1 0c0,0 0,0 0,0 0,0 0,0 1,1 0,0 0,0 0,0 0,1 0,1 0,1 0,0 0,0 -1,0 0,-2 -1,-2 -1,-2 0,0 -1,0 -2,-2 -1,0 2,4 3,5zm89 -188l0 0c0,0 0,0 -1,0l3 0c1,1 3,2 4,3 1,1 3,2 4,2 2,2 2,3 2,4 0,-1 -1,-1 -1,-2 -1,0 -2,-1 -3,-1 -1,-1 -1,-1 -2,-1 0,-1 -1,-1 -1,-2 -1,-1 -1,-2 -5,-3zm18 35l0 0c0,0 -1,0 -1,0 1,4 1,8 0,11 -1,3 -1,6 -2,8 1,0 3,-4 3,-6l1 2 -1 1 -1 3c1,-1 2,-3 3,-5 0,0 0,-5 0,-7 0,0 0,1 -1,2 0,1 -1,2 -1,2 1,-1 2,-6 2,-8 0,0 -1,3 -1,4 0,0 0,-4 -1,-2 0,-3 1,-8 2,-10l1 -1c0,-2 -1,-1 -1,-5 0,4 1,0 1,3 1,-1 1,0 1,-4 -1,-1 -1,-2 -1,-3 0,0 1,-1 0,-2 -1,-2 1,1 0,-2 -1,-2 -2,-3 -2,-3 -1,0 -1,0 -2,0 2,3 3,3 4,6 0,0 0,0 0,0 0,0 0,0 -1,-1 0,0 0,-1 -1,-2 0,0 -1,-1 -1,-1 0,-1 -1,-1 -1,-1 1,1 1,2 1,2 0,-1 -1,-1 -2,-2 0,0 0,-1 -1,-1 1,1 1,2 1,2 1,1 1,1 1,2 0,1 1,2 0,2l0 0c0,0 0,1 0,2 0,0 1,1 1,1 0,3 1,6 0,6l0 -1c0,2 0,3 0,4 0,1 0,2 0,4zm-59 93l0 0c2,-1 3,-1 5,-2 1,-1 4,-3 7,-7l-1 1c5,-3 6,-8 11,-12 -2,3 -2,3 -3,6l2 -2c0,1 2,-2 3,-4l0 3c-1,1 -4,3 -4,3 1,0 -4,3 -5,5 0,0 4,-4 3,-2 2,-2 2,-1 4,-4 -1,3 0,2 -1,3l3 -3c0,0 -4,5 -1,3 1,-2 4,-5 4,-5l0 0c2,-3 0,-2 3,-5 0,0 -1,0 -2,2 0,1 0,1 -2,3 -1,0 2,-2 1,-2 -1,1 -4,6 -4,3l2 -2c0,0 1,-2 1,-2 1,-2 3,-3 3,-5 1,-1 -1,0 1,-3 2,0 3,-2 5,-4 2,-2 3,-4 4,-5l1 -3c-1,0 -3,4 -2,3l2 -4 0 1c0,-1 1,-3 1,-4 0,2 -2,4 -1,4 2,-2 2,-2 3,-3 0,0 0,0 0,0 2,-2 1,-3 1,-4 1,-2 0,-1 -1,0 -1,1 -2,2 -2,2 0,0 0,-1 1,-2 0,0 1,-2 2,-3 1,-2 2,-4 2,-4 0,0 0,1 0,1 2,-2 1,1 2,-3 -1,0 2,-4 2,-7 1,-1 2,-1 0,1 1,0 2,-3 3,-4 0,-1 0,-2 1,-3 -1,1 -1,1 -1,-2l0 0c-1,2 -2,4 -3,6 -1,2 -2,4 -2,5l0 -1c-1,1 -1,2 -1,3 -1,1 -1,1 -1,2 0,0 0,1 -1,1 -1,2 -1,4 -2,4 -1,0 -1,1 -2,0 0,0 0,1 0,2 0,1 -1,1 -1,1 0,0 0,0 0,0 0,0 0,0 0,0 0,0 0,0 0,0 0,1 -1,1 -1,2 -1,1 -1,2 -1,2l0 0c-1,2 -2,4 -3,6 1,0 1,0 0,1 0,1 0,1 -1,2l0 0 0 0c-1,1 -1,1 -3,2l3 -4c0,0 -1,0 -2,1 0,0 0,-1 -1,0 0,0 -1,3 0,2 -2,2 -4,4 -6,7 -3,2 -5,5 -7,8 3,-4 -4,3 0,-2 -3,3 -2,3 -4,6 -1,0 1,-1 1,-2 -5,4 -7,9 -11,14l-1 -1c-1,1 -2,3 -3,4zm-9 9l0 0c-1,1 -2,2 -3,3 1,0 1,0 1,0l-3 3c2,-2 4,-2 2,0 0,0 -1,0 -1,-1 -2,2 -5,4 -4,4 3,-3 2,1 4,-2 -1,2 -3,3 -4,4 1,-2 -1,-1 -3,1 -1,1 -3,3 -4,4 1,0 0,2 2,0 -1,1 -2,2 -3,3 0,0 1,-1 1,-2 -2,1 -3,2 -3,3 -1,0 -1,1 -1,1 0,0 0,0 0,0 0,0 -1,2 -1,2 2,-3 1,-1 1,-1 0,0 0,0 0,1 -1,0 -1,1 -1,2 0,0 0,-1 1,-1 0,0 1,-1 1,-1 -1,1 -3,3 -2,3 1,-1 1,-2 2,-2 0,-1 1,-2 1,-2 1,-1 1,-1 2,-2 0,0 1,-1 1,-2l-1 1c3,-4 3,-1 6,-5 2,-2 6,-5 6,-6 -1,0 3,-2 4,-3 1,-2 5,-7 3,-6 -1,1 -2,3 -4,4l3 -3 -2 1c1,0 0,-1 -1,-1zm-40 30l0 0 0 0 0 0 0 0z"/>
  <path class="fil0" d="M124 129c3,-3 3,-3 4,-3 2,-2 1,-2 2,-4 -2,3 -3,4 -6,7z"/>
  <path class="fil0" d="M130 122c0,0 1,0 1,0 0,0 -1,0 -1,0z"/>
  <path class="fil0" d="M121 132c0,-1 1,-1 1,-1 0,-1 -2,1 -1,1z"/>
  <path class="fil0" d="M137 130c0,0 2,-2 2,-2 0,0 -2,1 -2,2z"/>
  <path class="fil0" d="M115 140c1,-1 2,-1 2,0 0,-1 0,-3 -2,0z"/>
  <polygon class="fil0" points="133,134 133,134 134,132 "/>
  <path class="fil0" d="M144 134c1,-3 -4,2 -1,-2 -5,4 1,0 -2,3 1,-1 3,-2 3,-1z"/>
  <path class="fil0" d="M141 135c-1,1 -1,1 -1,1 0,0 0,0 1,-1z"/>
  <path class="fil0" d="M111 158c0,-1 0,-1 0,-1 0,0 0,0 0,1z"/>
  <path class="fil0" d="M131 146l2 -4c-1,2 -6,7 -5,8 2,-2 3,-4 4,-5l-1 1z"/>
  <path class="fil0" d="M86 167c0,0 1,-2 1,-2 0,0 -1,2 -1,2 0,-1 0,1 0,0z"/>
  <path class="fil0" d="M85 167l1 0c0,0 -1,0 -1,0z"/>
  <path class="fil0" d="M116 153c1,-1 2,-2 3,-3 -1,0 -3,2 -3,3z"/>
  <polygon class="fil0" points="83,174 83,174 83,174 "/>
  <path class="fil0" d="M82 174l0 -1c0,0 0,0 0,0 0,1 0,1 -1,1l0 0c1,0 1,0 1,0 0,0 0,0 0,0z"/>
  <path class="fil0" d="M97 184c0,-1 1,-1 1,-2 0,0 0,0 0,0 0,0 0,0 0,0 0,-1 0,-1 0,-1 1,-1 0,-1 0,-1 0,0 0,1 -1,2 -1,1 -1,3 -1,3 0,-1 1,-1 1,-2 0,0 0,0 0,-1 0,0 1,0 1,-1 0,0 0,0 0,0 0,0 0,0 0,0 0,0 0,0 0,1 0,0 0,0 0,0 -1,1 -1,2 -1,2z"/>
  <path class="fil0" d="M37 106c1,1 3,4 3,5 0,-1 -2,-2 -1,-1 0,0 0,0 1,1 1,0 2,1 2,1 1,4 -4,-2 -5,-3 2,3 4,4 6,7 0,-1 -1,-2 -1,-2 1,-1 3,3 5,5 -1,-2 0,-1 1,0 0,0 0,0 0,0 0,1 1,1 1,1l-1 -1c1,0 1,0 1,0 -2,-2 -3,-4 -4,-5 0,2 -3,-5 -5,-6l-1 -2 -1 0c0,-1 1,-1 2,0 -1,0 -3,-3 -3,-3 0,0 -1,0 -1,-1 -1,-1 -1,-1 -2,-2 -1,-2 -2,-4 -2,-4 0,0 0,0 0,0 0,-1 0,-1 0,-1 0,0 -1,0 -1,-1 -1,-1 -1,-2 -2,-3 -1,-2 -2,-3 -3,-5 0,-1 0,-1 -1,-2 0,0 0,-1 0,-1 -1,-1 -1,-2 -2,-3 0,-2 -1,-4 -2,-6 -1,-2 -2,-4 -2,-5 -1,-2 -1,-3 -1,-4 -1,-1 -1,-1 -1,-1 1,1 1,3 1,5 -2,-3 1,2 0,2 -1,-1 -1,-3 -1,-4 -1,0 -1,1 -1,1 1,5 3,5 4,9 0,0 -1,-1 0,2l-1 -1c3,4 1,4 3,6l0 0c1,2 3,5 4,7l0 0c4,5 2,3 6,9l-3 -2c2,2 3,2 4,4 -1,0 -1,0 -2,-1 0,0 0,0 1,1 1,1 1,1 2,2 2,2 3,4 3,4 2,1 0,-1 0,-2z"/>
  <path class="fil0" d="M43 116c0,1 1,1 1,2 0,-1 0,-1 -1,-2z"/>
  <path class="fil0" d="M16 61l1 3c0,-1 0,-2 -1,-3z"/>
  <path class="fil0" d="M52 126c0,-1 2,1 2,1l-3 -5c-1,0 -1,0 -1,0l2 4z"/>
  <path class="fil0" d="M50 121c0,0 -1,-1 -1,-1l2 2c0,0 0,0 -1,-1z"/>
  <polygon class="fil0" points="38,130 37,130 36,128 "/>
  <path class="fil0" d="M29 117c1,1 2,3 3,3 -2,-2 -1,-1 -3,-3z"/>
  <path class="fil0" d="M28 122c0,0 -1,0 -1,-1 -1,0 -1,-1 -1,-1l0 0 2 2z"/>
  <path class="fil0" d="M11 45c0,0 0,0 0,-1 0,1 0,1 0,1z"/>
  <path class="fil0" d="M15 64c0,-3 0,-2 1,-1 0,2 1,3 1,2 0,0 0,0 0,-1 -1,-1 -1,-1 -1,-1l0 0c0,0 0,-1 0,-2 0,-1 -1,-2 -1,-2 0,1 0,2 0,2 -1,-5 0,-2 0,-6 0,0 0,0 0,0 -1,-1 -1,-1 -1,-2 0,-1 0,-1 0,-2 0,0 0,-1 0,-1l0 1c0,-1 0,-1 0,-1 0,0 0,0 0,-1 0,0 0,-1 0,-1 0,-2 0,-4 0,-6 0,-1 0,-2 0,-2 1,-1 1,-2 1,-3 0,-1 1,-2 1,-2 1,-2 -2,1 -2,-1 0,1 0,2 -1,2 0,1 0,2 -1,3 0,2 0,3 0,3 0,0 0,0 0,0 0,0 0,1 0,1 0,1 1,1 1,1 0,0 0,0 0,0 0,-1 0,-1 0,-1 0,1 0,3 0,5 0,2 0,4 0,4 0,-2 -1,-2 -1,-3 0,0 0,0 0,-1 0,0 0,-1 0,-1 0,-1 0,-1 0,-2 0,0 -1,1 -1,0 0,3 0,6 1,9 1,4 1,7 3,10z"/>
  <path class="fil0" d="M18 30l0 0c0,0 -1,0 -1,0 0,1 0,1 0,1 0,0 1,-1 1,-1z"/>
  <path class="fil0" d="M18 30c0,0 0,-1 0,-1 0,0 1,-1 1,-1 -1,0 -1,0 -1,0l0 2z"/>
  <path class="fil0" d="M11 93c0,0 -1,0 -1,-1 0,1 1,1 1,1z"/>
  <path class="fil0" d="M3 86c-1,-3 2,3 0,-2 1,-1 2,1 3,4 0,0 -1,-2 -1,-1 1,2 1,2 2,1 1,3 2,3 3,4 -1,-1 -2,-4 -3,-6 0,-1 -1,-3 -2,-4 0,-1 -1,-2 -1,-3 -2,-2 -3,0 -4,1 0,0 0,1 1,3 1,1 2,3 2,3z"/>
  <path class="fil0" d="M4 90c0,2 0,2 1,3 0,-1 -1,-2 -1,-3z"/>
  <path class="fil0" d="M3 58c0,0 0,-2 -1,-1 0,0 0,0 1,1 0,1 0,2 0,2 0,-1 0,-1 0,-2z"/>
  <path class="fil0" d="M4 62c0,0 0,-1 -1,-1 0,-1 0,-1 0,-1 0,0 0,1 1,2z"/>
  <path class="fil0" d="M4 58c0,0 -1,0 -1,0 0,1 1,1 1,0z"/>
  <path class="fil0" d="M70 30l0 2c0,-1 0,-1 0,-2z"/>
  <path class="fil0" d="M89 42c0,0 0,0 0,0 0,0 0,0 0,0z"/>
  <path class="fil0" d="M89 42c1,1 1,4 2,5l-1 0c0,0 1,2 1,2 0,-1 0,-1 0,-2 0,0 -1,-1 -1,-2 0,-1 0,-1 0,-2 -1,0 -1,-1 -1,-1z"/>
  <path class="fil1" d="M146 288c1,0 1,0 1,0 0,0 0,0 -1,0z"/>
  <path class="fil2" d="M223 237c0,0 0,0 -1,0 0,0 1,-1 1,-1 1,0 0,1 0,1z"/>
  <path class="fil2" d="M222 237c0,1 -1,1 -1,1 0,-1 0,-1 0,-1 1,0 1,0 1,0z"/>
  <path class="fil2" d="M217 241c-1,0 -4,1 -4,0 0,-2 2,0 3,-1 0,0 0,0 1,1z"/>
  <path class="fil2" d="M219 204c0,0 0,-1 0,-1 1,0 1,1 0,1z"/>
  <path class="fil2" d="M218 206c-1,0 -1,-2 0,-2 0,0 0,2 0,2z"/>
  <path class="fil2" d="M214 220c1,0 1,2 0,2 0,0 -1,-1 0,-2z"/>
  <path class="fil2" d="M215 219c-1,-1 -1,-2 0,-3 0,1 0,2 0,3z"/>
  <path class="fil2" d="M204 270c-1,-1 -1,0 -1,0 0,0 0,-1 0,-1 0,-1 1,0 1,1z"/>
  <path class="fil2" d="M204 259c-1,-1 -1,-2 0,-2 0,0 0,1 0,2z"/>
  <path class="fil2" d="M210 219c-2,0 -1,-2 -1,-3 0,-1 -1,-3 1,-3 0,1 0,2 0,2 0,1 0,3 0,4z"/>
  <path class="fil2" d="M198 283c-2,0 -1,-2 -1,-3 1,1 1,2 1,3z"/>
  <path class="fil2" d="M202 243c0,0 0,-1 0,-1 1,0 1,1 0,1z"/>
  <path class="fil2" d="M198 241c-1,-1 0,-2 1,-2 0,-2 1,-3 2,-3 1,2 -2,2 -2,4 0,1 -1,1 -1,1z"/>
  <path class="fil2" d="M206 204c0,4 -6,4 -6,0 0,-3 5,-3 6,0z"/>
  <path class="fil2" d="M199 227c0,-1 1,-3 3,-4 0,1 0,2 0,2 -1,1 -1,2 -3,2z"/>
  <path class="fil2" d="M200 228c0,1 0,1 -1,1 -1,0 -2,1 -3,0 1,-1 3,-2 4,-1z"/>
  <path class="fil2" d="M195 235c0,-1 0,-2 0,-3 1,1 1,2 0,3z"/>
  <path class="fil2" d="M193 249c-2,0 -1,-2 -1,-3 1,1 1,2 1,3z"/>
  <path class="fil2" d="M187 277c-1,0 -1,-1 -1,-2 1,0 1,1 1,2z"/>
  <path class="fil2" d="M185 288c-1,0 -1,0 -2,0 0,-1 0,-2 0,-3 1,0 1,0 2,0 0,1 0,2 0,3z"/>
  <path class="fil2" d="M180 249c-2,-1 -5,-3 -5,-5 0,0 -1,0 -1,-1 1,0 2,-1 1,-2 0,0 -1,0 -1,-1 0,0 1,0 2,0 0,-1 -1,-1 -1,-2 1,0 1,0 2,0 0,-1 0,-1 0,-2 0,0 0,0 1,0 1,-1 3,-1 4,-2 1,1 2,1 2,0 1,1 3,1 4,2 0,1 0,1 1,2 0,1 1,2 1,4 0,1 1,2 -1,3 0,0 0,1 0,1 0,1 -1,1 -1,2 -2,1 -5,3 -7,1 -1,0 -1,1 -1,0z"/>
  <path class="fil2" d="M186 270c-1,-1 -1,-2 -1,-2 1,0 1,1 1,2z"/>
  <path class="fil2" d="M184 273c-1,-1 -1,-1 0,-2 0,0 0,0 0,0 1,1 1,3 0,2z"/>
  <path class="fil2" d="M194 195c0,0 0,-1 0,-2 1,0 1,1 0,2z"/>
  <path class="fil2" d="M187 220c-3,1 -6,2 -9,2 0,-1 1,-1 2,-1 1,-1 3,-1 5,-2 1,0 1,0 2,0 1,0 1,-1 3,0 0,1 -2,2 -3,1z"/>
  <path class="fil2" d="M191 196c0,-1 0,-1 0,-1 1,0 0,1 0,1z"/>
  <path class="fil2" d="M183 252c-1,0 -1,0 -2,-1 -1,0 -2,0 -2,0 0,-1 2,0 3,0 0,0 1,0 1,1z"/>
  <path class="fil2" d="M187 179c0,0 0,0 0,0 0,0 0,-1 0,-1 1,0 1,1 0,1z"/>
  <path class="fil2" d="M171 269c-1,-1 -2,-1 -2,-3 2,1 2,2 2,3z"/>
  <path class="fil2" d="M173 253c-1,0 -1,-1 -1,-1 1,0 1,1 1,1z"/>
  <path class="fil2" d="M167 282c0,-1 0,-2 1,-2 0,1 0,2 -1,2z"/>
  <path class="fil2" d="M172 224c0,-1 1,-2 3,-2 1,1 -2,3 -3,2z"/>
  <path class="fil2" d="M165 288c-1,0 -1,-2 -1,-2 1,0 1,1 1,2z"/>
  <path class="fil2" d="M174 200c-1,0 0,-2 -1,-3 0,-1 0,-1 0,-1 1,1 2,3 1,4z"/>
  <path class="fil2" d="M167 248c-1,0 -1,-1 0,-1 0,0 0,1 0,1z"/>
  <path class="fil2" d="M163 271c-1,-1 -3,-3 -2,-4 2,0 2,2 3,3 0,0 -1,0 -1,1z"/>
  <path class="fil2" d="M166 247c-1,0 -1,-1 -1,-1 0,0 2,0 1,1z"/>
  <path class="fil2" d="M173 193c-2,0 -1,-2 -1,-3 1,0 1,2 1,3z"/>
  <path class="fil2" d="M166 229c-1,1 -3,1 -4,0 0,-1 3,-1 4,0z"/>
  <path class="fil2" d="M173 170c0,0 0,-1 0,-1 1,0 1,1 0,1z"/>
  <path class="fil2" d="M164 226c-1,0 -1,-1 -1,-1 0,0 0,0 1,0 0,0 0,0 0,1z"/>
  <path class="fil2" d="M153 260c-1,0 -1,-2 -1,-3 0,-1 -1,-1 0,-2 0,0 1,1 0,1 1,1 2,3 1,4z"/>
  <path class="fil2" d="M148 286c-1,0 -1,-1 -1,-2 -1,-1 -1,-1 -1,-1 0,-2 -1,-3 -1,-5 1,1 1,3 2,4 0,2 2,3 1,4z"/>
  <path class="fil2" d="M156 226c0,0 0,0 -1,-1 0,0 1,0 1,0 0,0 0,0 0,1z"/>
  <path class="fil2" d="M156 224c-1,-1 -1,-2 -1,-2 1,0 1,1 1,2z"/>
  <path class="fil2" d="M144 273c-1,0 -1,-1 -1,0 -1,-1 -1,-1 -1,-2 1,0 1,1 2,1 0,0 0,0 0,1z"/>
  <path class="fil2" d="M142 276c-1,-1 -1,-1 -1,-2 1,0 2,1 1,2z"/>
  <path class="fil2" d="M143 274c0,0 -1,0 -1,-1 0,0 1,0 1,1z"/>
  <path class="fil2" d="M144 256c-1,0 -1,-1 -1,-2 2,0 2,2 1,2z"/>
  <path class="fil2" d="M147 218c-1,-1 0,-2 0,-3 1,0 1,0 1,-1 0,-2 0,-5 2,-5 1,1 0,3 0,4 -1,1 -1,1 -2,2 1,1 -1,2 -1,3z"/>
  <path class="fil2" d="M151 171c0,0 0,0 0,0 1,0 1,1 1,1 1,2 2,3 1,4 -3,1 -2,-4 -2,-5z"/>
  <path class="fil2" d="M151 183c-1,0 0,-1 1,-1 0,0 0,2 -1,1z"/>
  <path class="fil2" d="M147 196c-1,-2 0,-4 1,-5 1,2 1,4 -1,5z"/>
  <path class="fil2" d="M136 266c0,-1 0,-1 1,-1 0,0 0,1 -1,1z"/>
  <path class="fil2" d="M149 170c0,-1 0,-1 0,-2 1,-1 1,1 0,2z"/>
  <path class="fil2" d="M134 253c-1,0 -2,-1 -2,-2 1,0 2,1 2,2z"/>
  <path class="fil2" d="M128 284c0,0 0,0 0,0 1,0 1,0 0,0z"/>
  <path class="fil2" d="M144 174c-1,-1 -1,-2 -1,-3 1,1 1,2 1,3z"/>
  <path class="fil2" d="M140 189c0,0 0,0 0,0 -1,-2 2,-1 0,0z"/>
  <path class="fil2" d="M126 265c-2,-1 -2,-2 -2,-4 0,0 -1,0 -1,-1 1,0 2,0 1,1 1,1 2,2 2,4z"/>
  <path class="fil2" d="M122 281c0,0 0,-1 0,-1 1,0 1,1 0,1z"/>
  <path class="fil2" d="M134 194c-1,0 -1,-1 -1,-1 1,0 1,1 1,1z"/>
  <path class="fil2" d="M131 193c-1,0 -1,-1 -1,-1 1,0 1,1 1,1z"/>
  <path class="fil2" d="M126 211c-1,0 -2,-1 -2,-2 0,-1 0,-1 0,-1 0,0 -1,-1 -1,-2 0,0 0,-1 0,-1 0,-2 -1,-3 0,-5 2,0 2,1 2,2 1,1 1,3 2,5 0,0 -1,0 -1,1 0,1 1,2 0,3z"/>
  <path class="fil2" d="M127 196c-2,-1 -2,-3 -2,-5 0,0 0,0 0,0 1,1 2,3 2,5z"/>
  <path class="fil2" d="M128 182c0,0 0,-1 0,-2 1,0 1,1 0,2z"/>
  <path class="fil2" d="M122 215c-1,0 -1,-2 -1,-3 1,1 2,2 1,3z"/>
  <path class="fil2" d="M126 177c-2,-1 -1,-3 -2,-5 0,0 -1,-1 -1,-2 0,0 1,0 1,-1 1,0 0,1 0,1 1,0 1,1 1,2 0,1 1,3 1,5z"/>
  <path class="fil2" d="M112 266c-1,-1 -1,-2 -1,-3 1,0 2,2 1,3z"/>
  <path class="fil2" d="M119 196c-1,0 -1,-2 0,-2 1,0 1,1 0,2z"/>
  <path class="fil2" d="M107 277c0,1 -1,2 -2,2 -2,0 2,-5 2,-2z"/>
  <path class="fil2" d="M114 220c-1,-1 -1,-2 -1,-3 1,0 2,2 1,3z"/>
  <path class="fil2" d="M107 219c-1,0 -2,-1 -3,-1 -1,0 -2,0 -2,-2 1,-1 5,1 5,2 0,0 0,1 0,1z"/>
  <path class="fil2" d="M104 206c0,0 0,-1 0,-1 2,0 1,1 0,1z"/>
  <path class="fil2" d="M94 265c0,1 0,1 0,1 0,0 0,0 -1,0 0,1 1,1 0,2 0,0 -1,0 -1,0 1,-1 1,-3 1,-4 1,0 1,1 0,1 1,0 1,0 1,0z"/>
  <path class="fil2" d="M105 196c-1,0 -1,-1 -1,-1 1,0 1,0 1,1z"/>
  <path class="fil2" d="M97 213c-2,0 -5,-1 -5,-3 2,0 4,2 5,3z"/>
  <path class="fil2" d="M89 227c-2,1 -4,-1 -6,-1 -1,-3 -5,-3 -7,-6 0,-1 0,-1 0,-1 3,-1 3,1 5,2 1,0 2,0 3,1 2,1 4,2 5,4 1,1 1,2 1,3 0,0 0,-1 -1,-2z"/>
  <path class="fil2" d="M92 202c1,-1 2,0 1,1 -1,0 -1,-1 -1,-1z"/>
  <path class="fil2" d="M90 205c-1,1 -2,0 -1,-1 1,0 2,1 1,1z"/>
  <path class="fil2" d="M86 209c0,-1 1,-3 3,-2 0,1 -2,2 -3,2z"/>
  <path class="fil2" d="M88 196c0,1 -1,2 -1,1 0,-1 0,-1 1,-1 0,0 0,0 0,0z"/>
  <path class="fil2" d="M77 255c0,0 0,1 -1,0 0,0 0,0 0,-1 1,0 1,1 1,1z"/>
  <path class="fil2" d="M80 225c-1,1 -4,0 -4,-1 2,-1 4,0 4,1z"/>
  <path class="fil2" d="M76 248c-2,0 -2,-2 -3,-3 0,0 0,-1 0,-1 1,0 1,1 1,1 1,1 2,2 2,3 0,0 0,0 0,0z"/>
  <path class="fil2" d="M68 262c0,-3 3,-3 5,-2 0,0 0,0 0,0 -1,2 -3,2 -5,2z"/>
  <path class="fil2" d="M73 249c-1,1 -3,1 -4,1 1,-1 2,0 4,-1z"/>
  <path class="fil2" d="M66 283c-1,0 -1,-1 -1,-2 1,0 2,1 1,2z"/>
  <path class="fil2" d="M67 276c-1,0 -1,-1 -1,-2 0,0 2,1 1,2z"/>
  <path class="fil2" d="M70 259c-1,0 -1,0 -1,0 0,-1 0,-1 0,-1 0,0 1,0 1,1z"/>
  <path class="fil2" d="M68 236c1,-1 4,0 5,1 -1,1 -4,0 -5,-1z"/>
  <path class="fil2" d="M68 263c-1,0 -1,1 -2,1 0,-1 0,-1 0,-2 1,0 1,1 2,1z"/>
  <path class="fil2" d="M75 187c1,0 1,1 2,1 0,1 1,1 1,2 1,1 1,3 -1,2 -2,0 -2,-3 -2,-5z"/>
  <path class="fil2" d="M69 250c0,0 -1,0 -1,0 0,-1 1,0 1,0z"/>
  <path class="fil2" d="M64 279c0,0 -1,0 -1,0 0,-1 0,-1 0,-2 1,0 2,1 1,2z"/>
  <path class="fil2" d="M74 207c-1,0 -1,-1 -1,-2 -1,-1 -1,-1 -1,-2 1,0 2,2 2,3 0,0 0,0 0,1z"/>
  <path class="fil2" d="M59 269c0,-2 4,-3 5,-3 1,3 -2,4 -5,3z"/>
  <path class="fil2" d="M71 212c-1,0 -1,-1 0,-1 0,0 1,1 0,1z"/>
  <path class="fil2" d="M58 242c1,-2 5,-2 7,-1 0,2 -2,1 -3,1 -1,0 -3,1 -4,0z"/>
  <path class="fil2" d="M73 186c-2,-1 -1,-4 -3,-5 0,0 0,-1 1,-1 0,0 0,0 0,0 0,3 3,3 2,6z"/>
  <path class="fil2" d="M70 197c0,0 0,-1 0,-1 0,-1 1,0 0,1z"/>
  <path class="fil2" d="M70 190c-1,1 -3,0 -3,-1 -1,0 -2,-1 -2,-2 1,-1 2,1 4,1 0,1 1,1 1,2z"/>
  <path class="fil2" d="M58 268c-2,0 -3,-2 -3,-3 1,0 1,0 1,1 1,1 2,1 2,2z"/>
  <path class="fil2" d="M50 256c1,-2 4,-1 5,-1 0,0 1,0 1,0 -1,1 -2,1 -3,1 -1,0 -2,1 -3,0z"/>
  <path class="fil2" d="M56 223c-1,0 -1,-1 -1,-2 1,1 2,1 1,2z"/>
  <path class="fil2" d="M46 264c-1,-2 3,-4 2,-1 0,0 -1,1 -2,1z"/>
  <path class="fil2" d="M44 285c0,0 -1,0 -1,0 0,0 0,0 0,-1 1,0 1,0 1,1z"/>
  <path class="fil2" d="M50 229c-2,0 -2,-2 -2,-3 -2,0 -2,-3 0,-2 -1,2 3,3 2,5z"/>
  <path class="fil2" d="M54 201c-1,0 -1,0 -1,0 1,-1 1,0 1,0z"/>
  <path class="fil2" d="M39 268c0,-1 0,-2 1,-2 3,0 0,3 -1,2z"/>
  <path class="fil2" d="M50 188c-1,0 -2,-1 -1,-2 1,1 1,2 1,2z"/>
  <path class="fil2" d="M42 239c-2,0 -2,-2 -2,-3 -2,0 -2,-3 -3,-4 0,-1 -1,-1 -1,-2 0,-1 1,-1 1,-1 1,1 1,2 1,2 1,1 3,2 3,4 0,1 -1,1 -1,1 0,1 2,1 2,3z"/>
  <path class="fil2" d="M38 265c0,0 0,0 0,0 -1,0 -1,0 -1,0 0,0 0,0 0,0 0,0 0,0 1,0z"/>
  <path class="fil2" d="M31 255c-2,0 -1,-1 -2,-3 0,0 -1,0 0,-1 1,0 0,1 1,1 0,1 2,2 1,3z"/>
  <path class="fil2" d="M26 280c-1,0 -1,0 -1,-1 0,0 1,1 1,1z"/>
  <path class="fil2" d="M27 251c-1,0 -1,0 -1,-1 0,0 0,0 1,0 0,1 0,1 0,1z"/>
  <path class="fil2" d="M23 263c-1,0 -1,0 0,-1 0,0 0,1 0,1z"/>
  <path class="fil2" d="M25 204c-1,0 -1,-1 -1,-2 1,1 1,1 1,2z"/>
  <path class="fil2" d="M155 239c0,1 3,0 3,2 -2,-1 -3,-2 -4,-1 0,1 1,1 1,1 0,1 -1,1 -1,2 0,0 -1,0 -1,0 0,1 1,1 0,2 -1,-1 -4,-1 -3,1 -1,0 -1,-1 -1,-1 -1,0 0,0 0,1 0,0 -1,1 0,2 0,0 1,1 0,2 -1,0 -1,-1 -1,-2 0,0 0,0 -1,0 0,0 0,-1 0,-1 -2,0 0,2 -1,3 1,1 2,3 1,3 -1,0 -1,-2 -2,-4 1,-1 -1,-3 -2,-2 0,1 1,0 1,0 0,1 0,1 0,1 0,0 0,0 -1,0 0,1 1,2 1,3 0,1 -1,0 -2,1 0,-1 1,-3 0,-4 0,0 -1,0 -1,0 0,0 0,0 0,0 0,1 0,1 0,2 0,0 0,1 1,1 -1,1 -2,0 -2,0 0,0 0,0 -1,0 0,-1 0,-1 0,-2 0,0 -1,0 -1,0 0,1 0,1 0,1 0,-1 -1,-1 -2,-1 -1,0 -3,0 -4,1 0,0 0,1 0,1 0,0 0,0 -1,0 0,1 0,1 0,1 -2,-1 -3,1 -3,3 0,0 -1,0 -1,0 -1,0 -2,1 -3,2 -1,0 -2,0 -3,1 -1,-1 -2,0 -3,-1 -1,0 -1,1 -1,2 -2,0 -1,-2 -2,-2 -1,-1 -2,0 -3,0 0,-1 0,-2 -1,-2 0,0 0,1 -1,1 -1,0 -1,0 -2,0 0,1 1,1 1,2 -1,0 -1,0 -2,0 -1,0 -1,2 -2,2 2,1 3,1 4,0 2,0 -1,3 -2,3 -1,1 -3,2 -4,3 -2,0 -2,-2 -1,-3 0,0 0,-1 -1,-1 0,0 0,1 0,1 0,0 0,-1 0,-1 0,0 0,0 -1,0 0,0 0,0 0,0 -1,0 -1,1 -2,1 0,0 0,1 0,1 0,0 0,-1 0,-1 -1,0 -1,0 -1,1 0,-2 -2,-1 -3,-1 -1,0 -1,-1 -3,-1 0,0 0,1 0,1 0,0 0,-1 0,-1 -1,0 -1,1 -2,1 -1,-2 -3,-2 -4,-4 0,1 0,1 -1,1 -1,-1 0,-1 0,-2 -1,-1 -2,0 -2,-1 -1,0 0,-1 0,-1 -1,-1 -2,-1 -3,-2 1,-1 1,-3 0,-4 -1,0 -1,0 -2,-1 0,0 1,0 0,0 1,0 3,-2 2,-3 -1,0 -1,0 -1,-1 0,-1 1,0 1,-1 0,0 -1,0 -2,0 1,-1 1,-2 2,-1 0,-1 0,-2 1,-2 -1,0 -2,0 -1,-1 0,0 0,0 1,0 1,0 2,-2 1,-2 1,-3 4,-2 4,-4 0,-1 -1,-1 -1,-2 2,-1 2,2 4,0 0,0 -1,-1 0,-2 1,0 1,1 1,1 1,0 1,0 1,0 1,-1 1,0 2,0 0,0 1,0 1,-1 1,-1 1,-1 1,-2 2,-1 4,1 5,2 1,0 1,0 1,0 1,1 2,1 3,0 1,1 1,2 2,3 1,0 2,0 3,0 0,-1 1,-2 2,-2 1,0 2,0 2,1 0,0 1,0 1,-1 0,0 -1,-1 0,-2 1,0 1,2 1,2 2,-1 3,-2 4,-4 -1,0 -2,0 -2,-1 0,0 0,0 0,-1 0,-1 -2,-1 -2,-2 -1,0 -1,0 -1,-1 1,1 1,1 3,1 1,0 1,1 2,1 2,0 3,-2 4,-4 -1,-1 -2,-1 -2,-2 1,0 1,1 2,1 2,-1 5,-1 6,-5 -1,0 -1,-1 -1,-2 1,1 1,1 1,2 0,1 2,1 1,2 2,1 3,1 5,1 1,0 1,1 2,1 1,0 2,0 2,0 1,0 1,1 2,1 1,1 0,1 1,0 0,0 1,0 1,-1 1,-1 1,-2 1,-3 0,0 1,0 1,-1 0,0 0,0 0,-1 0,0 0,-2 0,-3 0,0 -1,-1 0,-2 0,-1 1,-1 1,-1 2,0 1,2 1,3 -3,1 0,3 -2,5 0,1 0,1 1,2 2,0 3,3 2,5 -1,0 -1,-1 -1,-2 -1,1 -3,0 -3,1 -1,0 -1,0 -2,0 0,1 1,2 2,2 0,0 -1,1 0,1 1,1 0,3 1,4 1,1 3,0 4,2 1,0 1,1 2,1 0,0 0,-1 1,-1 1,0 1,1 1,1 0,0 1,0 2,0 0,-2 2,-2 1,-3 2,0 5,0 5,3 0,0 -1,1 -1,1 1,0 2,0 2,1 -1,0 -2,0 -2,1 0,1 0,1 -1,1 -1,0 -1,-1 -2,-1 0,1 0,1 0,1 1,1 0,4 -1,4zm-8 6l0 0c0,0 0,0 0,1 0,0 -1,-1 -1,0 1,0 2,-1 2,-1 0,0 0,0 -1,0zm-31 -20l0 0c1,1 1,1 1,1 0,0 0,1 1,1 0,-1 -1,-2 -2,-2zm-14 36l0 0c0,1 0,1 0,2 1,-1 1,-1 2,-2 -1,0 -2,0 -2,0z"/>
  <path class="fil2" d="M75 249c0,0 0,0 0,0 -1,0 -2,0 -2,1 0,-1 1,-1 2,-1z"/>
 </g>
</svg>
