<?xml version="1.0" encoding="UTF-8"?>
<!DOCTYPE svg PUBLIC "-//W3C//DTD SVG 1.1//EN" "http://www.w3.org/Graphics/SVG/1.1/DTD/svg11.dtd">
<!-- Creator: CorelDRAW X8 -->
<svg xmlns="http://www.w3.org/2000/svg" xml:space="preserve" width="1.734in" height="1.6419in" version="1.1" style="shape-rendering:geometricPrecision; text-rendering:geometricPrecision; image-rendering:optimizeQuality; fill-rule:evenodd; clip-rule:evenodd"
viewBox="0 0 172 163"
 xmlns:xlink="http://www.w3.org/1999/xlink">
 <defs>
  <style type="text/css">
   <![CDATA[
    .fil0 {fill:#ED3237;fill-rule:nonzero}
   ]]>
  </style>
 </defs>
 <g id="Layer_x0020_1">
  <metadata id="CorelCorpID_0Corel-Layer"/>
  <path class="fil0" d="M45 50c19,-7 35,-1 45,12 0,-17 9,-35 26,-40 31,-10 49,7 54,22 15,41 -44,83 -38,119 -22,-27 -88,-14 -111,-62 -9,-20 6,-45 24,-51z"/>
  <path class="fil0" d="M101 102c-4,-4 -28,-9 -21,0 2,3 10,4 13,5 5,1 10,1 14,4 2,-1 2,-6 3,-8 3,-4 19,-25 8,-26 -8,-1 -13,21 -16,26l-1 -1zm-1 -4c-3,-4 -18,-9 -23,-9 -6,0 -10,1 -11,8 -1,7 15,12 20,13 9,1 16,2 24,7 2,-9 7,-18 12,-25 3,-5 8,-12 9,-18 2,-12 -11,-15 -17,-6 -5,8 -12,21 -14,30l0 0zm-1 -7c-11,-4 -54,-21 -41,9 7,16 43,12 56,23 1,-20 33,-49 26,-66 -6,-13 -18,-12 -25,-1 -8,11 -11,23 -16,35l0 0zm-2 -7c-3,-1 -14,-6 -18,-7 -21,-10 -44,9 -24,29 18,17 46,12 63,26 -1,-26 41,-54 30,-80 -5,-13 -20,-20 -31,-10 -9,8 -17,31 -20,42l0 0zm-2 -7c-9,-9 -30,-15 -42,-10 -8,4 -19,17 -16,27 4,12 25,28 37,32 15,4 39,8 50,19 -14,-33 46,-60 32,-93 -7,-16 -20,-26 -37,-19 -14,6 -22,32 -24,44l0 0zm-2 -8c-15,-7 -22,-14 -39,-12 -14,1 -22,17 -26,27 -11,23 33,44 50,49 13,4 42,9 50,21 0,-4 -1,-7 0,-11 0,0 4,-12 5,-15 1,-4 4,-11 6,-15 7,-9 13,-18 18,-27 4,-7 4,-14 8,-20 12,-21 -24,-54 -45,-40 -21,13 -20,22 -27,43l0 0zm-48 -19c19,-7 35,-1 45,12 0,-17 9,-35 26,-40 31,-10 49,7 54,22 15,41 -44,83 -38,119 -22,-27 -88,-14 -111,-62 -9,-20 6,-45 24,-51l0 0z"/>
  <path class="fil0" d="M84 22c-2,2 -3,5 -4,8 -1,2 -1,3 -2,5l-2 5c-1,2 0,1 1,2 4,1 7,3 10,4 1,-1 2,-2 2,-4l-4 -2c-2,-1 -3,-2 -5,-3 0,0 1,-1 1,-2l1 -2c1,1 3,1 4,2 1,0 3,1 4,1 1,0 1,-1 1,-1 -1,-1 -3,-1 -4,-2 -1,-1 -3,-2 -4,-2 1,-1 1,-2 1,-3l1 -2 9 3c0,-1 1,-2 1,-3l-6 -2 -2 -2c-1,0 -3,-1 -3,0z"/>
  <path class="fil0" d="M30 1l-5 10c-1,2 -2,5 -3,7 0,1 0,1 2,1 2,1 6,3 8,4 1,0 4,2 5,2 1,0 2,-4 2,-5 -1,0 -2,1 -3,0 -1,0 -1,-1 -2,-1 -1,-1 -3,-2 -4,-3 -1,0 -1,0 -1,-1 1,-2 2,-5 3,-7 0,0 1,-2 1,-2 1,-2 2,-2 3,-3 -1,0 -1,-1 -2,-1 0,-1 -4,-2 -5,-2 1,1 1,1 1,1z"/>
  <path class="fil0" d="M56 16c1,1 0,1 0,1 1,1 1,1 1,2 -1,2 0,4 -3,5 0,1 -1,2 -1,2 -1,0 -2,1 -3,1 -1,0 -3,0 -4,-1 -1,-1 -2,-3 -2,-4 -1,-1 -1,-3 -1,-4 0,-1 1,-2 1,-3 1,-1 3,-2 4,-3 2,-1 3,0 4,1 1,0 1,0 1,0 0,1 2,1 2,2 1,0 2,1 1,1zm3 0c0,-3 -4,-6 -7,-7 -1,-1 -2,-1 -3,-1 -1,0 -2,0 -3,0 -2,1 -3,2 -4,4 0,2 -1,4 -2,6 0,1 0,2 0,2 1,4 2,7 5,9 3,2 7,0 10,-2 1,-1 3,-2 3,-3 1,-2 1,-3 2,-4 -1,-1 -1,-3 -1,-4l0 0z"/>
  <path class="fil0" d="M62 13c2,4 1,9 1,13 -1,2 -1,3 -1,5 0,1 0,2 -1,3 0,1 0,1 0,1 1,1 6,3 6,3 0,0 1,-2 1,-2 2,-1 3,-2 3,-4 1,-2 3,-4 4,-6 2,-2 3,-4 5,-5 0,-1 -3,-2 -4,-2 0,0 -1,1 -1,1 -1,1 -1,2 -2,3 -1,1 -1,1 -1,2 -1,1 -2,2 -3,3 0,1 -1,2 -2,3 0,-2 0,-4 0,-6 0,-1 0,-3 0,-4 0,-2 0,-2 0,-3 0,-1 1,-2 1,-3 0,-1 -2,-1 -3,-1 -1,0 -1,0 -2,-1 -1,0 -1,0 -1,0z"/>
  <path class="fil0" d="M22 119c-4,0 -6,3 -7,6 -1,-3 -4,-5 -8,-5 -5,1 -7,5 -7,8 0,0 0,1 0,1 1,8 15,11 17,17 2,-6 14,-10 14,-20 0,-5 -5,-8 -9,-7z"/>
 </g>
</svg>
