<?xml version="1.0" encoding="UTF-8"?>
<!DOCTYPE svg PUBLIC "-//W3C//DTD SVG 1.1//EN" "http://www.w3.org/Graphics/SVG/1.1/DTD/svg11.dtd">
<!-- Creator: CorelDRAW X8 -->
<svg xmlns="http://www.w3.org/2000/svg" xml:space="preserve" width="1.36672in" height="1.29267in" version="1.1" style="shape-rendering:geometricPrecision; text-rendering:geometricPrecision; image-rendering:optimizeQuality; fill-rule:evenodd; clip-rule:evenodd"
viewBox="0 0 359 339"
 xmlns:xlink="http://www.w3.org/1999/xlink">
 <defs>
  <style type="text/css">
   <![CDATA[
    .fil0 {fill:#EE3A61;fill-rule:nonzero}
   ]]>
  </style>
 </defs>
 <g id="Layer_x0020_1">
  <metadata id="CorelCorpID_0Corel-Layer"/>
  <path class="fil0" d="M331 42c-2,14 -17,27 -33,31 13,-3 22,3 20,14 -3,11 -15,23 -29,27 -13,3 -22,-3 -19,-14 3,-12 15,-24 28,-27 -16,4 -26,-4 -23,-18 -2,11 -15,23 -28,26 -13,3 -20,-4 -17,-16 3,-12 15,-24 28,-26 12,-3 20,4 17,16 4,-14 19,-28 34,-31 15,-3 25,5 22,18zm-28 91c-1,8 -11,18 -22,21 -11,4 -18,-1 -16,-10 2,-9 12,-18 23,-21 10,-3 17,1 15,10zm-14 46c-1,6 -9,13 -17,16 -8,2 -13,-1 -12,-7 2,-6 9,-13 17,-16 8,-2 13,1 12,7zm-53 -50c-14,3 -22,-4 -19,-16 3,-11 16,-24 29,-27 13,-3 21,4 19,15 -3,12 -16,24 -29,28zm12 20c-2,9 -12,19 -23,22 -11,3 -17,-1 -15,-11 2,-9 13,-19 23,-22 11,-3 18,2 15,11zm-16 48c-2,7 -9,14 -17,17 -8,2 -13,-1 -12,-7 2,-7 10,-14 18,-17 7,-2 12,1 11,7zm-49 -59c-10,3 -16,-2 -14,-12 3,-10 14,-20 24,-22 10,-3 16,3 14,12 -3,10 -13,20 -24,22zm11 27c-3,10 -14,20 -24,23 -11,3 -18,-2 -15,-12 3,-9 14,-20 24,-23 11,-3 17,3 15,12zm-19 51c-2,7 -10,14 -18,17 -8,2 -13,-1 -11,-8 2,-7 10,-15 18,-17 8,-2 13,1 11,8zm-44 -68c-7,2 -11,-2 -9,-10 2,-7 10,-14 17,-16 7,-2 11,2 9,9 -2,7 -9,15 -17,17zm2 35c-2,7 -10,15 -18,17 -7,2 -12,-2 -9,-9 2,-7 10,-15 17,-17 8,-2 12,2 10,9zm5 -97c2,-8 10,-15 17,-16 7,-2 11,3 8,10 -2,7 -9,14 -16,16 -7,1 -11,-3 -9,-10zm46 -11c3,-9 13,-19 22,-21 10,-2 16,4 13,13 -2,10 -12,19 -22,22 -10,2 -16,-4 -13,-14zm145 -51c-19,-16 -40,-24 -65,-24 -37,0 -65,19 -84,56 -5,-17 -16,-31 -33,-42 -16,-9 -33,-14 -52,-14 -27,0 -50,9 -68,26 -18,17 -27,40 -27,66 0,28 9,53 28,76 17,19 34,38 51,57 4,5 8,11 11,16 3,-6 11,-13 18,-15 7,-3 12,1 10,8 -2,7 -10,15 -18,18 -2,0 -3,0 -4,1 7,16 11,33 11,51 0,11 -1,23 -4,35 65,-31 119,-64 162,-100 62,-52 94,-103 94,-152 0,-25 -10,-46 -30,-63z"/>
 </g>
</svg>
