<?xml version="1.0" encoding="UTF-8"?>
<!DOCTYPE svg PUBLIC "-//W3C//DTD SVG 1.1//EN" "http://www.w3.org/Graphics/SVG/1.1/DTD/svg11.dtd">
<!-- Creator: CorelDRAW X8 -->
<svg xmlns="http://www.w3.org/2000/svg" xml:space="preserve" width="3.28178in" height="2.97597in" version="1.1" style="shape-rendering:geometricPrecision; text-rendering:geometricPrecision; image-rendering:optimizeQuality; fill-rule:evenodd; clip-rule:evenodd"
viewBox="0 0 1322 1199"
 xmlns:xlink="http://www.w3.org/1999/xlink">
 <defs>
  <style type="text/css">
   <![CDATA[
    .fil0 {fill:#ED0000;fill-rule:nonzero}
   ]]>
  </style>
 </defs>
 <g id="Layer_x0020_1">
  <metadata id="CorelCorpID_0Corel-Layer"/>
  <path class="fil0" d="M1269 131c-41,-64 -108,-106 -181,-123 -179,-41 -403,74 -434,260 0,0 -1,-1 -1,-2 -4,-8 -14,-8 -18,0 -2,6 -4,11 -6,16 -1,-5 -2,-10 -3,-15 -2,-10 -17,-8 -17,2 0,11 0,21 0,32 -46,-65 -121,-108 -201,-126 -116,-27 -227,11 -315,89 -76,68 -108,164 -87,263 22,102 92,190 169,258 38,33 80,62 124,86 48,25 98,40 149,58 136,50 276,103 376,212 8,10 22,-4 13,-13 -8,-10 -17,-19 -26,-27 1,-1 2,-2 2,-4 1,-3 2,-7 3,-11 4,9 17,7 18,-3 1,-17 1,-34 0,-52 4,14 9,27 16,40 4,7 15,5 17,-2 3,-13 5,-25 7,-38 4,13 9,27 14,40 0,1 1,2 2,3 -18,36 -30,74 -31,114 0,14 22,14 23,0 2,-68 38,-127 76,-181 40,-57 88,-109 133,-164 95,-116 179,-245 215,-391 26,-106 23,-228 -37,-321zm-500 -25c2,-1 4,-3 6,-5 0,1 -1,1 -1,2 -11,47 -14,96 -16,145 -8,-17 -16,-34 -26,-51 -2,-3 -6,-5 -9,-4 -1,-4 -2,-9 -3,-13 -1,-4 -5,-6 -8,-5 15,-25 33,-48 57,-69zm127 128c0,8 0,15 0,23 -3,11 -6,22 -8,33 0,-6 0,-12 -1,-18 1,-1 2,-2 2,-3 3,-12 5,-23 7,-35zm163 -183c6,9 11,19 15,29 -2,11 -5,22 -6,34 -4,-12 -8,-23 -12,-35 -2,-4 -5,-7 -9,-8 4,-7 8,-13 12,-20zm41 22c9,20 16,41 22,62 -3,30 -5,61 -11,91 -4,-45 -3,-93 -15,-137 1,-5 2,-10 4,-16zm7 711c-3,-11 -5,-23 -8,-34 8,-23 13,-47 16,-70 3,11 6,21 10,32 4,14 24,11 25,-4 3,-45 4,-91 3,-137 2,-14 4,-27 6,-41 1,38 3,75 6,112 1,14 19,16 23,3 11,-27 17,-55 21,-83 3,10 5,20 8,30 2,7 7,9 12,9 -34,67 -76,129 -122,187 1,-1 1,-2 0,-4zm-178 135c-4,-5 -7,-9 -10,-14 0,-23 -1,-46 -2,-70 2,-2 3,-4 3,-7 1,-17 2,-35 2,-53 1,-1 1,-2 1,-3 5,43 2,86 13,127 -2,7 -4,13 -7,20zm-365 -5c-5,-9 -10,-18 -15,-27 6,-14 11,-29 15,-44 1,5 2,10 4,15 1,2 2,4 3,5 0,17 -2,34 -7,51zm-231 -90c-6,-3 -11,-9 -15,-15 0,-3 0,-5 0,-7 1,1 2,2 3,3 3,2 7,1 8,-2 2,-7 4,-14 6,-21 -1,15 -3,41 -2,42zm-170 -209c0,-2 -1,-3 -1,-5 1,3 2,6 2,10 0,-2 -1,-3 -1,-5zm-15 68c-4,-5 -8,-10 -12,-16 1,-1 2,-2 2,-4 0,-33 -2,-65 -4,-98 6,17 11,34 17,51 2,22 1,45 -3,67zm-85 -281c2,18 3,37 5,56 -1,-8 -2,-15 -3,-22 -1,-10 -2,-22 -2,-34zm8 -8c15,81 35,162 49,243 -16,-32 -26,-68 -35,-100 -5,-48 -11,-95 -14,-143zm60 116c0,-4 0,-9 -1,-13 5,21 11,43 14,64 -5,-16 -9,-33 -13,-51zm11 -106c-6,-18 -11,-36 -16,-54 1,-5 2,-9 3,-13 1,-4 -2,-6 -5,-6 0,-8 1,-16 1,-25 10,32 14,65 17,98zm36 165c-6,-29 -11,-58 -15,-87 5,15 10,30 15,45 0,14 0,28 0,42zm-53 -216c6,20 11,40 17,60 1,16 2,32 3,47 -6,-29 -13,-59 -21,-88 0,-5 0,-9 0,-14 1,-2 1,-3 1,-5zm64 206c1,3 2,5 3,8 4,35 8,70 9,105 -5,-18 -10,-36 -13,-55 1,-19 1,-39 1,-58zm118 221c-1,0 -2,-1 -2,-1 -6,-19 -9,-39 -12,-51 -1,-4 -2,-9 -3,-14 0,-1 0,-2 0,-4 1,-10 1,-20 1,-30 5,12 10,24 16,35 1,22 0,44 0,65zm-19 -153c-1,-19 -1,-37 -2,-56 1,2 3,3 5,4 3,30 6,61 11,91 -5,-13 -10,-26 -14,-39zm-3 -145c0,14 1,29 2,43 -1,-4 -2,-8 -3,-12 -1,-29 -2,-57 -3,-86 1,9 2,19 3,28 0,9 0,18 1,27zm-20 153c0,12 0,24 1,36 -10,-32 -16,-66 -21,-100 -6,-43 -13,-87 -14,-131 0,-3 0,-6 0,-9 2,19 5,37 8,55 9,48 19,97 34,144 -3,-1 -8,1 -8,5zm-74 -381c18,26 21,64 23,94 2,21 2,42 3,62 -7,-46 -16,-93 -28,-139 1,-6 1,-12 2,-17zm0 304c0,-1 -1,-3 -2,-5 0,-4 0,-8 0,-12 1,6 2,12 2,17zm18 55c1,6 1,11 2,17 0,4 0,7 1,10 -1,-9 -2,-18 -3,-27zm109 -37c1,1 3,2 5,1 1,4 2,8 3,13 0,7 0,14 0,21 -3,-12 -6,-24 -8,-35 0,0 0,0 0,0zm-4 -49c1,9 2,19 3,28 -2,-4 -3,-8 -5,-12 -5,-31 -9,-63 -13,-95 0,-13 -1,-26 -1,-39 6,39 11,79 16,118zm-56 -17c-2,-9 -3,-18 -5,-28 -11,-60 -19,-120 -23,-180 9,58 15,117 28,174 0,9 0,17 0,25 0,3 0,6 0,9zm-43 -236c-5,-15 -12,-29 -24,-40 -3,-3 -10,-3 -11,3 0,4 -1,8 -2,13 -3,-1 -6,1 -6,6 0,12 0,24 1,37 -1,1 -1,1 -1,3 0,15 0,31 1,46 0,6 0,12 0,18 -2,-8 -4,-17 -7,-25 0,-2 -4,-1 -3,1 1,3 1,7 2,10 -1,1 -1,4 2,7 2,11 5,23 7,34 2,44 3,89 4,134 -5,-16 -11,-32 -16,-48 0,0 0,0 0,0 -6,-69 -6,-141 -36,-205 -1,-2 -2,-3 -4,-3 28,-23 59,-42 91,-56 0,22 1,44 2,65zm-12 449c0,2 2,3 3,4 0,3 -1,7 -2,10 -2,-9 -5,-17 -7,-26 2,4 4,8 6,12zm11 -195c-4,-30 -8,-60 -13,-90 7,39 14,79 22,118 5,38 12,75 21,111 0,1 -1,1 0,2 0,2 1,3 2,5 5,18 10,36 16,54 4,11 7,22 11,33 2,21 3,43 2,64 -25,-28 -44,-64 -56,-102 10,-64 3,-131 -5,-195zm108 266c-1,-1 -2,-1 -3,-2 1,-20 1,-40 1,-59 5,0 10,-4 8,-10 -3,-17 -7,-34 -9,-52 -1,-13 -2,-26 -2,-39 3,15 7,29 11,43 2,16 5,32 6,48 1,8 1,16 1,25 -3,15 -8,31 -13,46zm21 -120c-1,-7 -2,-13 -2,-20 -1,-3 -1,-5 -1,-8 2,6 4,11 6,17 0,1 0,3 0,4 0,0 0,1 0,1 0,5 0,10 -1,15 0,-3 -1,-6 -2,-9zm11 -226c-5,-47 -6,-95 -12,-141 16,39 29,80 38,122 1,4 1,7 2,11 1,37 1,73 -3,110 -1,-3 -2,-6 -3,-8 -6,-32 -14,-63 -22,-94zm-32 -186c5,28 8,56 9,85 -5,-30 -10,-60 -12,-90 1,2 2,3 3,5zm172 369c-1,-8 -2,-16 -3,-24 0,-3 -2,-5 -5,-6 -4,-17 -8,-34 -11,-51 -1,-4 -2,-8 -3,-12 0,-3 -1,-7 -2,-10 1,3 2,6 3,10 19,62 39,125 62,186 6,29 13,58 20,87 -2,18 -6,36 -13,54 -9,-79 -29,-157 -48,-234zm57 6c-3,14 -4,29 -3,43 -12,-59 -24,-117 -37,-176 0,-2 0,-5 0,-7 11,47 25,94 40,140zm75 -60c7,39 15,79 22,119 -8,-23 -15,-47 -22,-71 0,0 0,0 0,-1 1,-16 1,-31 0,-47zm-37 27c13,53 24,107 32,160 -10,-39 -18,-79 -25,-119 -2,-14 -4,-28 -7,-41zm57 217c-1,-10 -3,-20 -4,-30 3,11 6,22 9,33 -1,-2 -3,-3 -5,-3zm-48 -231c-4,-2 -9,0 -10,5 -5,-35 -11,-70 -16,-105 5,23 12,46 18,69 2,10 5,21 8,31zm-154 -234c-1,-7 -1,-13 -2,-20 3,15 5,30 7,45 2,11 3,22 5,33 -4,-20 -8,-39 -10,-58zm49 189c2,3 5,4 8,4 5,25 10,51 15,76 -8,-24 -16,-48 -24,-72 -3,-9 -6,-19 -9,-28 3,7 6,13 10,20zm77 80c0,-8 0,-15 -1,-23 3,14 5,28 8,42 -2,-6 -4,-13 -7,-19zm-6 34c17,61 25,125 39,187 -8,-17 -16,-35 -24,-53 -8,-45 -19,-90 -15,-134zm58 191c-1,-10 -2,-21 -3,-31 5,14 10,29 15,43 1,6 2,12 2,18 0,7 0,14 0,21 -5,-17 -10,-33 -14,-51zm43 34c-3,-13 -5,-27 -8,-40 2,10 5,19 8,28 0,4 0,8 0,12zm-26 -160c8,25 15,50 23,76 1,5 1,11 2,16 -9,-30 -17,-61 -25,-92zm44 141c2,5 3,10 5,16 2,10 5,21 7,32 -4,-11 -8,-23 -12,-35 0,-4 0,-9 0,-13zm-33 -381c-3,-10 -6,-21 -9,-31 -2,-18 -5,-36 -7,-55 6,29 11,58 16,86zm-99 85c-23,-81 -42,-163 -47,-247 0,-3 0,-6 0,-9 18,49 30,100 41,151 2,35 4,70 6,105zm-65 -297c-3,50 1,100 9,149 1,9 1,18 1,27 -9,-37 -20,-73 -34,-108 -4,-25 -9,-50 -17,-74 2,-14 6,-29 11,-42 1,-1 2,-2 3,-3 10,16 19,33 27,50 0,0 0,1 0,1zm-69 -24c0,-6 0,-11 0,-16 2,4 4,10 5,17 -1,-1 -3,-2 -5,-1zm-9 166c1,4 5,6 9,6 8,113 22,225 29,338 0,1 -1,1 -1,2 -10,-74 -18,-148 -30,-221 -3,-22 -7,-43 -11,-65 -1,-10 -1,-19 -2,-29 -1,-3 -3,-6 -5,-7 -1,-1 -1,-3 -1,-5 -5,-44 -9,-89 -10,-134 0,0 0,0 0,1 5,38 10,77 22,114zm-1 388c-4,-8 -7,-17 -11,-25 -5,-17 -9,-34 -15,-50 2,-1 3,-2 3,-4 7,-48 5,-95 -2,-142 4,0 7,-3 7,-7 0,-9 1,-18 1,-27 5,85 15,170 17,255zm-28 -540c0,-3 0,-6 0,-8 1,2 1,5 2,8 -1,0 -1,0 -2,0zm-5 438c-3,-8 -7,-15 -10,-23 -17,-71 -24,-146 -25,-217 4,34 12,68 27,99 9,46 13,93 8,141zm-20 0c2,7 4,15 6,23 -2,-6 -5,-12 -7,-18 0,-2 1,-4 1,-5zm73 78c1,5 3,10 5,15 -2,5 -4,11 -6,16 0,-10 1,-20 1,-31zm35 5c8,23 17,46 29,68 0,0 0,0 0,0 -11,-9 -20,-20 -27,-32 -1,-12 -1,-24 -2,-36zm2 -36c-1,-2 -2,-4 -4,-5 -7,-106 -19,-213 -27,-320 1,4 2,7 3,11 4,28 9,57 15,85 3,16 7,32 10,48 6,40 12,80 18,120 3,42 10,84 21,125 0,7 -2,15 -3,22 -14,-28 -24,-59 -33,-86zm47 96c1,4 2,7 4,11 1,5 3,10 5,14 -5,-5 -8,-10 -12,-15 1,-3 2,-7 3,-10zm164 89c0,-1 -1,-2 -1,-3 3,-1 5,-4 6,-7 0,-2 0,-4 0,-6 1,2 2,5 3,8 -3,3 -5,5 -8,8zm30 -62c-5,-68 -15,-134 -27,-201 0,-14 -1,-28 -2,-42 12,65 25,130 42,195 3,22 6,45 10,67 -1,1 -1,4 -1,6 4,24 9,49 12,73 -14,-31 -25,-64 -34,-98zm3 -374c5,3 12,-1 11,-8 -3,-14 -5,-29 -7,-43 -2,-15 -3,-31 -4,-46 -3,-51 1,-102 6,-153 0,1 0,3 0,4 0,12 1,24 1,36 1,53 0,106 18,156 0,1 1,2 2,3 2,36 5,72 8,108 0,21 0,43 1,64 1,28 1,57 1,85 -4,-13 -7,-25 -10,-38 -6,-23 -12,-45 -17,-68 -3,-33 -6,-67 -10,-100zm84 -74c-1,26 -2,53 -2,79 -1,6 0,12 0,18 -8,-53 -19,-105 -28,-158 1,-14 2,-28 3,-43 11,34 20,69 27,104zm261 -267c3,11 6,22 8,34 -1,27 0,55 2,82 -3,7 -7,14 -9,22 -1,-46 -2,-92 -1,-138zm67 125c5,-17 9,-35 11,-52 -3,32 -4,64 -5,96 -10,32 -15,64 -17,97 -3,-47 -5,-94 -10,-141 0,0 1,0 1,0 3,10 17,10 20,0zm58 121c1,12 1,24 1,36 0,-12 -1,-23 -1,-35 0,0 0,-1 0,-1zm6 166c0,-12 -1,-25 -1,-37 1,1 3,2 5,2 -1,12 -2,23 -4,35zm39 -108c-1,-9 -1,-18 -2,-28 1,2 1,4 1,6 0,8 1,15 1,22zm15 -187c-1,-1 -3,-2 -5,-2 2,-9 3,-19 4,-28 1,10 1,20 1,30zm-118 300c0,-7 0,-13 -1,-20 1,0 1,-1 1,-1 1,16 3,32 7,48 0,1 0,2 1,3 0,5 0,11 0,17 -3,-16 -6,-31 -8,-47zm-110 259c0,-9 0,-19 0,-29 0,-4 -2,-6 -4,-6 -1,-22 0,-44 1,-65 0,-5 1,-10 1,-15 3,27 6,54 12,80 0,14 1,28 0,42 -2,2 -4,3 -7,4 -1,-3 -2,-7 -3,-11zm-37 19c-3,-8 -6,-16 -8,-24 0,-5 0,-10 1,-16 0,2 0,3 0,5 0,7 6,11 11,11 -1,7 -2,13 -3,20 0,2 -1,3 -1,4zm35 -264c-5,-51 -6,-103 -7,-154 6,51 10,103 7,154zm-11 37c-1,1 -2,3 -2,6 0,16 -1,33 -2,50 -1,5 -3,10 -5,15 0,-55 1,-111 1,-167 1,32 3,64 8,96zm-31 93c-3,-4 -6,-9 -9,-14 2,-1 3,-3 4,-5 1,-17 3,-35 5,-52 0,23 0,47 0,71zm-6 28c-4,12 -7,24 -8,37 -5,-18 -14,-58 -16,-75 7,13 15,26 24,38zm62 -62c4,-15 8,-29 11,-44 2,8 4,16 6,24 -4,-1 -8,1 -10,5 -2,9 -4,18 -6,26 0,-3 -1,-7 -1,-11zm56 -26c-1,-5 -6,-6 -10,-5 -1,-65 -3,-131 -8,-196 -2,-42 -4,-84 -5,-127 2,-13 5,-27 10,-39 3,35 7,70 12,105 1,9 3,18 4,28 -6,78 -14,157 9,232 1,3 3,4 5,5 -2,14 -4,28 -6,41 -3,-15 -7,-30 -11,-44zm19 -69c0,8 0,16 0,23 -4,-23 -5,-46 -5,-70 1,16 3,31 5,47zm54 -244c1,24 3,48 4,72 -2,6 -3,13 -4,20 0,-31 -1,-61 0,-92zm-115 141c0,11 -1,21 -1,32 -6,-55 -9,-111 -11,-166 4,32 8,64 10,96 1,12 2,25 2,38zm-38 -252c0,1 0,1 0,2 -1,-6 -1,-12 -2,-18 1,-4 1,-7 1,-10 0,0 0,0 0,0 0,9 1,17 1,26zm-48 433c-40,-133 15,-277 -13,-412 1,0 1,0 2,0 16,94 22,189 25,285 -4,42 -9,85 -14,127zm-31 -440c27,88 10,181 2,273 -2,-90 -4,-179 -4,-269 1,-1 1,-3 2,-4zm-18 256c-1,-10 -2,-19 -3,-29 -4,-37 -6,-75 -8,-113 2,-14 4,-27 7,-41 0,61 2,122 4,183zm3 173c-1,-8 -1,-15 -2,-22 -1,-9 -2,-18 -2,-27 1,5 2,10 4,15 0,11 0,22 0,34zm-35 -31c0,34 0,68 -6,101 -5,-34 -10,-68 -14,-102 -10,-71 -10,-142 -13,-214 -2,-37 -4,-74 -5,-111 1,-8 2,-17 3,-25 21,115 24,234 35,351zm-12 245c-5,-36 -9,-73 -12,-110 1,3 3,7 5,10 3,33 6,66 7,99 0,0 0,1 0,1zm-47 -516c0,21 0,43 0,64 -1,-6 -3,-13 -4,-19 1,-15 2,-30 4,-45zm44 607c0,0 0,1 0,2 -7,-20 -12,-40 -18,-60 -1,-46 -2,-92 -17,-136 -4,-25 -9,-50 -14,-75 6,-57 0,-114 -1,-171 -1,-10 -1,-19 -1,-29 21,155 17,316 51,469zm-91 -178c-3,-16 -7,-32 -11,-48 0,-30 -1,-59 -1,-89 4,46 8,91 12,137zm28 108c-2,-21 -3,-41 -5,-61 4,0 8,-3 7,-8 -1,-14 -2,-27 -3,-41 1,9 3,17 5,26 -3,63 11,125 18,188 0,2 0,4 -1,5 -7,-36 -13,-73 -21,-109zm-37 -568c0,-4 -1,-8 -2,-12 0,-4 0,-7 -1,-11 0,-1 0,-2 0,-4 0,-1 0,-1 0,-2 -1,-6 -2,-11 -2,-17 2,7 5,13 7,19 0,9 -1,18 -2,27zm-21 -74c0,-2 0,-4 0,-6 1,2 2,4 3,6 -1,0 -2,0 -3,0zm-8 454c8,33 15,66 21,99 2,34 6,67 15,100 1,6 7,7 11,5 1,15 2,29 3,43 -15,-43 -28,-86 -39,-130 -5,-39 -8,-78 -11,-117zm69 337c1,-5 1,-10 1,-15 2,-1 3,-2 4,-4 2,10 4,19 6,29 -1,6 -2,13 -4,19 -3,-7 -7,-15 -10,-23 2,-1 3,-3 3,-6zm54 -34c2,4 6,7 10,7 -1,9 -2,18 -3,26 -6,-16 -10,-34 -13,-51 2,6 4,12 6,18zm20 -242c5,-18 8,-35 10,-53 1,2 1,4 1,5 -4,18 -8,36 -11,53 0,-2 0,-3 0,-5zm28 50c1,12 2,25 2,37 -2,-12 -4,-25 -5,-36 -1,-10 -2,-21 -3,-32 2,11 4,21 6,31zm32 -65c-1,-2 -3,-3 -5,-3 1,-21 1,-42 1,-64 2,5 4,9 6,14 -9,8 0,54 0,57 5,24 11,49 18,73 -2,17 -3,35 -6,51 -7,-42 -4,-86 -14,-128zm26 152c3,-12 5,-24 7,-36 1,3 2,6 3,9 -3,9 -7,18 -10,27zm65 -43c0,0 0,-1 -1,-2 1,0 1,0 2,-1 0,1 -1,2 -1,3zm52 -162c0,2 1,4 1,6 0,-2 -1,-3 -1,-4 0,-1 0,-1 0,-2zm175 -325c0,-1 0,-2 0,-4 0,0 0,0 1,0 0,1 0,1 0,1 0,1 -1,2 -1,3zm-54 -221c2,5 3,11 3,17 -2,-1 -5,-2 -7,-1 1,-6 3,-11 4,-16zm-15 113c1,26 3,53 5,79 -3,0 -6,2 -8,4 0,-5 0,-11 -1,-16 -1,-14 -2,-28 -3,-43 2,-9 4,-18 6,-27 0,1 0,2 1,3zm-87 -56c-2,-9 -4,-18 -6,-28 1,-11 2,-22 3,-33 1,20 2,41 3,61zm-62 28c-2,-10 -4,-20 -7,-29 2,-26 4,-52 8,-76 -1,35 -1,70 -1,105zm-63 -52c0,34 0,68 0,102 -3,-20 -6,-41 -10,-61 4,-14 8,-27 10,-41zm-44 25c-1,-1 -3,-1 -4,0 0,-19 1,-38 1,-56 1,2 1,4 2,6 0,16 0,33 1,50zm-64 -99c4,44 -3,90 5,133 2,48 5,96 7,144 1,5 1,9 1,14 -6,-63 -15,-125 -29,-186 4,-35 9,-70 16,-105zm-45 20c2,9 3,18 4,26 -5,1 -8,4 -8,9 0,35 1,70 2,104 -1,1 -2,2 -3,4 -4,29 -8,59 -10,88 -3,-10 -6,-19 -9,-29 10,-67 2,-137 24,-202zm-45 142c0,-9 1,-18 1,-26 0,10 1,21 1,32 0,-2 -1,-4 -2,-6zm-63 -80c-5,50 -11,100 -12,151 -1,-2 -2,-3 -4,-5 -5,-4 -12,3 -7,8 5,5 9,12 11,20 0,13 1,26 1,39 -6,-33 -15,-65 -25,-97 6,-42 17,-80 36,-116zm-60 106c2,6 4,12 6,17 0,8 0,16 1,24 1,5 5,6 8,5 8,26 14,52 19,78 -1,59 9,117 22,174 2,33 4,66 7,98 -26,-123 -45,-247 -70,-370 2,-9 5,-17 7,-26zm-34 30c1,10 2,19 2,29 0,2 0,4 0,6 -1,-2 -2,-4 -3,-7 -3,-9 -18,-8 -17,3 1,66 13,131 17,197 -21,-88 -37,-177 -51,-266 -1,-6 -6,-7 -10,-5 -1,-4 -2,-9 -2,-13 -1,-10 -18,-11 -17,0 2,30 5,61 9,91 -15,-49 -34,-96 -60,-141 52,24 98,61 132,106zm-164 -119c-5,10 -9,21 -12,32 -3,-9 -7,-17 -12,-26 -1,-2 -4,-3 -6,-3 -2,0 -4,0 -6,0 -3,0 -6,3 -6,7 2,32 4,64 6,97 -2,-3 -4,-7 -5,-10 -6,-39 -12,-77 -27,-113 0,-1 -1,-1 -1,-1 24,3 47,9 69,17zm-79 -18c-2,1 -3,3 -3,6 1,35 4,71 7,108 0,16 1,33 2,50 -10,-33 -23,-66 -40,-97 -1,-8 -4,-16 -6,-24 -1,-4 -6,-5 -9,-4 0,0 -1,-1 -1,-1 -3,-6 -13,-4 -13,3 1,66 16,130 32,194 0,4 0,8 0,12 -3,-3 -11,-2 -10,5 0,27 0,55 0,82 -11,-72 -18,-144 -35,-214 -3,-17 -8,-33 -14,-49 0,-1 -1,-2 -2,-3 -3,-10 -7,-19 -11,-29 0,0 0,0 0,0l0 0c0,0 -1,-1 -1,-1 -3,-7 -12,-2 -11,5 0,0 0,1 0,1 -1,-3 -2,-7 -3,-11 0,-1 -2,-1 -2,1 4,27 9,55 14,82 -1,27 -2,54 -2,81 -9,-61 -17,-121 -32,-181 45,-17 93,-22 140,-16zm-255 85c-2,24 -2,47 -2,70 -3,1 -5,3 -5,6 0,19 3,38 6,57 -1,22 0,45 3,67 2,32 5,64 7,96 -18,-83 -38,-165 -52,-249 13,-17 27,-33 43,-47zm52 475c-77,-73 -143,-173 -145,-282 -1,-48 15,-93 40,-132 1,12 1,24 2,36 -21,39 0,109 8,145 2,9 4,18 7,28 1,9 1,18 2,27 -18,-54 -27,-110 -37,-165 -1,-6 -11,-5 -11,1 1,42 5,85 13,126 0,1 1,2 1,3 2,13 4,26 6,39 0,2 1,3 3,3 1,0 3,0 5,0 2,0 4,-2 3,-4 -6,-23 -11,-47 -14,-71 8,37 18,74 34,108 2,6 11,3 11,-3 0,-4 -1,-8 -1,-12 13,39 30,77 56,104 3,3 9,2 10,-2 4,-17 6,-34 6,-50 3,8 6,15 10,23 0,2 1,3 3,3 6,30 14,61 23,90 1,6 10,6 12,0 3,-10 5,-21 7,-32 9,31 19,63 37,90 -33,-22 -63,-46 -91,-73zm139 103c-4,-3 -9,-6 -14,-8 0,0 0,-1 0,-1 2,-17 1,-35 1,-52 5,9 10,19 16,28 1,3 4,3 6,3 7,9 15,16 26,17 2,0 6,-2 6,-5 5,-32 6,-65 4,-97 0,-2 0,-3 1,-4 14,34 31,68 53,99 3,9 6,18 10,27 3,5 10,3 12,-1 5,-15 9,-29 15,-44 3,24 7,47 12,71 1,8 14,6 14,-2 0,-12 0,-23 -1,-35 8,9 17,18 26,25 4,2 10,1 12,-3 0,0 0,-1 0,-1 8,11 17,21 28,30 2,3 5,4 8,5 7,11 14,22 22,33 4,6 12,5 15,-2 10,-25 13,-50 12,-76 11,24 23,47 39,67 5,14 11,27 17,39 4,8 17,5 17,-4 -1,-9 -1,-17 -2,-26 2,6 3,11 5,16 2,6 9,9 14,4 4,-4 8,-9 13,-13 5,13 10,26 16,39 2,5 8,5 11,2 4,3 8,4 11,2 5,11 10,21 16,31 4,6 13,4 15,-1 8,21 16,43 26,64 -91,-76 -204,-121 -315,-161 -57,-21 -114,-38 -167,-66zm570 104c4,-42 4,-85 1,-128 1,-9 2,-18 3,-26 0,9 1,17 2,26 2,19 6,39 13,58 -6,30 -9,59 -9,90 0,1 2,1 2,0 1,-27 5,-54 10,-81 1,3 3,7 4,10 0,41 -2,82 -6,123 -8,-24 -14,-48 -20,-72zm60 48c-7,11 -15,22 -22,33 5,-35 7,-70 7,-104 2,2 5,4 7,6 4,3 10,3 13,-2 2,-4 5,-8 7,-13 0,1 0,1 0,1 2,4 9,4 10,0 6,-12 11,-24 16,-37 4,4 13,3 14,-3 3,-16 5,-31 8,-47 1,5 2,11 4,15 0,1 0,2 0,3 0,3 2,5 4,6 4,9 10,18 18,27 1,1 3,2 4,2 -31,37 -62,74 -90,113zm138 -170c-12,15 -24,29 -36,43 2,-12 2,-24 2,-36 7,-7 11,-15 11,-25 0,-5 -7,-6 -9,-1 0,2 -1,5 -2,7 0,-4 -1,-8 -1,-12 1,-1 2,-2 2,-3 3,-6 5,-12 7,-18 0,1 1,2 2,3 3,4 13,6 14,-1 1,1 1,2 2,3 4,8 19,2 16,-7 -5,-11 -8,-21 -11,-32 0,-1 0,-1 0,-1 2,5 4,10 6,14 2,6 7,7 12,5 1,6 2,11 4,17 1,7 8,8 13,5 -11,14 -21,27 -32,39zm228 -460c-6,67 -25,132 -53,194 2,-25 3,-49 3,-74 4,-2 7,-6 7,-11 0,-24 -1,-49 3,-73 8,11 28,4 23,-10 -2,-7 -4,-14 -5,-21 3,-57 13,-113 -3,-170 -2,-8 -13,-7 -16,0 -1,5 -2,11 -4,16 -2,-14 -7,-28 -14,-41 -4,-7 -16,-4 -16,5 0,16 -1,32 -3,47 -2,-9 -4,-18 -6,-27 0,-30 -1,-60 -13,-90 -2,-6 -12,-9 -16,-2 -10,20 -16,40 -19,61 -1,-1 -1,-2 -2,-3 -3,-34 -7,-68 -19,-100 -2,-8 -16,-10 -17,0 0,2 -1,4 -1,6 -6,-15 -13,-29 -21,-43 -5,-9 -18,-7 -21,2 -2,5 -3,10 -5,15 -4,-8 -9,-16 -15,-23 -3,-4 -10,-4 -13,0 -23,27 -34,60 -41,95 -3,-29 -6,-58 -11,-86 -2,-11 -19,-11 -21,0 -1,3 -1,7 -2,11 -2,0 -5,2 -6,6 -15,39 -18,81 -26,122 -3,-14 -6,-27 -9,-40 0,-27 -2,-55 -9,-82 -2,-9 -15,-8 -17,0 -2,5 -3,11 -5,16 -3,2 -6,5 -6,9 0,7 -1,13 -1,20 -6,31 -11,63 -15,95 -1,-16 -2,-32 -4,-48 0,-4 -2,-7 -5,-8 1,-27 0,-53 -9,-78 -2,-8 -14,-9 -17,0 -7,29 -13,60 -18,90 -2,-17 -5,-34 -11,-51 -2,-7 -11,-6 -14,0 -23,56 -21,116 -25,175 -3,-58 -3,-115 4,-173 1,-4 -4,-6 -7,-5 60,-49 137,-76 215,-80 78,-4 159,20 218,73 78,71 96,180 88,281z"/>
 </g>
</svg>
