<?xml version="1.0" encoding="UTF-8"?>
<!DOCTYPE svg PUBLIC "-//W3C//DTD SVG 1.1//EN" "http://www.w3.org/Graphics/SVG/1.1/DTD/svg11.dtd">
<!-- Creator: CorelDRAW X8 -->
<svg xmlns="http://www.w3.org/2000/svg" xml:space="preserve" width="1.62393in" height="1.60596in" version="1.1" style="shape-rendering:geometricPrecision; text-rendering:geometricPrecision; image-rendering:optimizeQuality; fill-rule:evenodd; clip-rule:evenodd"
viewBox="0 0 156 154"
 xmlns:xlink="http://www.w3.org/1999/xlink">
 <defs>
  <style type="text/css">
   <![CDATA[
    .fil0 {fill:#FF2020;fill-rule:nonzero}
   ]]>
  </style>
 </defs>
 <g id="Layer_x0020_1">
  <metadata id="CorelCorpID_0Corel-Layer"/>
  <path class="fil0" d="M74 22c-5,-6 -21,-19 -44,-14 -11,2 -22,10 -26,22 -4,13 -1,27 6,38 14,23 36,40 52,55 8,7 16,14 21,20 1,2 3,3 4,4l1 3 1 1 0 0 0 0c1,0 -5,-1 -3,-1l0 0 1 0 0 0c2,-2 3,-4 5,-5 4,-5 13,-20 27,-38 13,-16 31,-38 34,-64 2,-13 -1,-26 -11,-34 -9,-8 -21,-9 -31,-7 -20,3 -28,17 -28,19 -1,3 2,-11 20,-18 9,-3 21,-5 33,0 12,5 20,19 20,33 1,14 -4,27 -10,39 -7,12 -14,23 -21,32 -14,17 -23,33 -28,38 -1,2 -2,4 -4,6 -1,1 -2,1 -2,2 -1,0 -1,0 -2,1l0 0 0 0 0 0c-2,0 3,1 -3,0l0 0 -1 -1c-1,-1 -2,-3 -3,-5 -6,-6 -14,-14 -23,-22 -9,-9 -19,-18 -29,-28 -11,-11 -21,-22 -27,-37 -5,-14 -4,-31 5,-42 9,-11 24,-14 34,-13 23,3 32,17 32,16z"/>
 </g>
</svg>
