<?xml version="1.0" encoding="UTF-8"?>
<!DOCTYPE svg PUBLIC "-//W3C//DTD SVG 1.1//EN" "http://www.w3.org/Graphics/SVG/1.1/DTD/svg11.dtd">
<!-- Creator: CorelDRAW X8 -->
<svg xmlns="http://www.w3.org/2000/svg" xml:space="preserve" width="2.40255in" height="2.76055in" version="1.1" style="shape-rendering:geometricPrecision; text-rendering:geometricPrecision; image-rendering:optimizeQuality; fill-rule:evenodd; clip-rule:evenodd"
viewBox="0 0 1430 1643"
 xmlns:xlink="http://www.w3.org/1999/xlink">
 <defs>
  <style type="text/css">
   <![CDATA[
    .fil0 {fill:#ED0000;fill-rule:nonzero}
   ]]>
  </style>
 </defs>
 <g id="Layer_x0020_1">
  <metadata id="CorelCorpID_0Corel-Layer"/>
  <path class="fil0" d="M1422 272c-24,-163 -135,-289 -309,-270 -154,16 -287,106 -377,227 -59,-147 -180,-240 -345,-213 -156,26 -292,156 -352,297 -84,196 -17,434 63,619 99,228 265,430 459,583 59,46 122,87 187,124 13,7 33,6 44,-6 173,-202 335,-416 460,-652 110,-210 207,-468 170,-709zm-78 261c-26,134 -76,262 -137,384 -118,234 -279,446 -449,645 -191,-113 -353,-272 -476,-455 -125,-186 -221,-421 -205,-648 10,-152 123,-287 257,-348 59,-28 127,-35 190,-15 77,25 123,101 148,173 5,13 13,20 23,23 -16,27 -29,56 -40,85 -45,114 -67,238 -91,358 -3,14 16,19 21,6 88,-213 101,-456 311,-594 145,-95 369,-146 442,58 37,104 26,222 6,328z"/>
 </g>
</svg>
