<?xml version="1.0" encoding="UTF-8"?>
<!DOCTYPE svg PUBLIC "-//W3C//DTD SVG 1.1//EN" "http://www.w3.org/Graphics/SVG/1.1/DTD/svg11.dtd">
<!-- Creator: CorelDRAW X8 -->
<svg xmlns="http://www.w3.org/2000/svg" xml:space="preserve" width="3.20419in" height="2.60024in" version="1.1" style="shape-rendering:geometricPrecision; text-rendering:geometricPrecision; image-rendering:optimizeQuality; fill-rule:evenodd; clip-rule:evenodd"
viewBox="0 0 2944 2389"
 xmlns:xlink="http://www.w3.org/1999/xlink">
 <defs>
  <style type="text/css">
   <![CDATA[
    .fil0 {fill:#ED0000;fill-rule:nonzero}
   ]]>
  </style>
 </defs>
 <g id="Layer_x0020_1">
  <metadata id="CorelCorpID_0Corel-Layer"/>
  <path class="fil0" d="M2849 317c-128,-214 -389,-327 -632,-316 -414,19 -910,338 -930,784 0,6 9,8 10,2 38,-261 281,-467 502,-580 239,-122 516,-157 755,-22 215,123 302,355 267,594 -41,274 -208,497 -405,682 -147,138 -310,258 -466,386 -130,105 -272,220 -374,356 -250,-201 -515,-378 -791,-542 -245,-146 -536,-329 -632,-614 -87,-258 100,-544 320,-666 144,-80 307,-87 464,-49 71,17 139,44 205,72 81,33 161,43 245,60 5,1 7,-5 3,-8 -71,-48 -130,-106 -209,-144 -75,-36 -152,-69 -232,-93 -163,-49 -337,-31 -492,35 -262,113 -457,390 -457,678 0,319 289,578 523,752 288,215 600,394 879,622 24,19 48,39 71,59 63,52 143,10 163,-47 109,-116 214,-231 337,-334 128,-109 263,-211 393,-319 222,-186 420,-396 520,-672 80,-218 85,-472 -37,-676z"/>
 </g>
</svg>
