<?xml version="1.0" encoding="UTF-8"?>
<!DOCTYPE svg PUBLIC "-//W3C//DTD SVG 1.1//EN" "http://www.w3.org/Graphics/SVG/1.1/DTD/svg11.dtd">
<!-- Creator: CorelDRAW X8 -->
<svg xmlns="http://www.w3.org/2000/svg" xml:space="preserve" width="3.32782in" height="3.12607in" version="1.1" style="shape-rendering:geometricPrecision; text-rendering:geometricPrecision; image-rendering:optimizeQuality; fill-rule:evenodd; clip-rule:evenodd"
viewBox="0 0 529 497"
 xmlns:xlink="http://www.w3.org/1999/xlink">
 <defs>
  <style type="text/css">
   <![CDATA[
    .fil0 {fill:#FF2020;fill-rule:nonzero}
   ]]>
  </style>
 </defs>
 <g id="Layer_x0020_1">
  <metadata id="CorelCorpID_0Corel-Layer"/>
  <path class="fil0" d="M330 428c0,-1 0,-3 0,-4 0,1 -1,3 0,4z"/>
  <path class="fil0" d="M311 421c0,0 -1,1 -1,2 0,-1 1,-1 1,-2z"/>
  <path class="fil0" d="M330 429c0,0 0,-1 0,-1 0,1 0,2 0,1z"/>
  <path class="fil0" d="M201 407c-5,-6 -7,-3 -9,-2 9,8 2,-2 9,2z"/>
  <path class="fil0" d="M296 457c-6,7 -6,16 -9,24 5,-7 8,-17 9,-24z"/>
  <path class="fil0" d="M93 334l-1 -1c0,0 0,1 0,1l1 0z"/>
  <path class="fil0" d="M92 334l-3 -1c4,3 4,2 3,1z"/>
  <path class="fil0" d="M335 397c1,-3 2,-6 3,-9 -1,3 -2,6 -3,9z"/>
  <path class="fil0" d="M513 193l1 1c0,0 0,-1 -1,-1z"/>
  <path class="fil0" d="M518 169c1,-2 1,-4 2,-5l-1 -1c0,1 -1,4 -1,6z"/>
  <path class="fil0" d="M513 177l2 -4c-1,1 -1,3 -2,4z"/>
  <path class="fil0" d="M458 48l-1 1c1,0 1,-1 1,-1z"/>
  <path class="fil0" d="M513 199c1,-2 1,-3 1,-5 -1,3 -2,6 -1,5z"/>
  <path class="fil0" d="M347 379l0 1c-1,1 -1,1 0,-1z"/>
  <path class="fil0" d="M17 233c-2,-3 -3,-5 -4,-8 2,7 3,9 4,8z"/>
  <path class="fil0" d="M466 266c-7,-1 7,-10 2,-12 -3,5 -5,10 -9,10 1,-6 8,-10 6,-15 -1,3 -3,6 -4,9 -5,3 -3,-5 -6,-1 0,10 -19,19 -24,26l1 -3c-3,3 -7,6 -11,8 0,0 0,0 0,0 0,0 0,1 1,1 -6,2 -14,8 -22,16 0,6 -23,26 -24,32 2,-4 5,-7 10,-10l2 3c-7,8 -3,-2 -8,7 5,3 10,-11 15,-15 -1,2 -2,6 -5,10 10,-11 21,-20 24,-31 4,-2 4,1 3,4 4,-10 7,-4 11,-12 2,5 -13,18 -17,26 -12,7 -21,22 -31,34 -3,-2 1,-12 -4,-9 -12,9 -9,12 -13,20 -8,7 -5,-4 -16,9l4 -9c-11,4 -4,8 -10,13 3,-1 4,0 9,-6 2,0 -1,6 -3,8l2 -1c0,4 1,7 -6,14 1,-7 -7,6 -9,7l1 -2c-4,7 -8,13 -10,18l-1 -1c-1,6 1,10 -4,17 -1,-2 0,-13 -4,-4 -1,-3 4,-12 9,-19 -5,7 -11,9 -6,0 -4,0 -4,9 -8,13 2,0 2,2 3,2 -4,-2 -10,18 -7,20 1,-4 1,-7 2,-11 4,1 0,13 4,11 -8,2 -9,25 -15,28l4 -2c-3,5 -5,9 -6,14 -1,2 -1,5 -2,7l0 2 -1 0 0 1 0 0 0 0 0 0c-3,-1 7,3 -7,-3l0 0 0 0c-2,0 -1,0 -2,-1 -4,-5 -13,-11 -21,-17 6,3 11,0 18,10 -12,-15 0,-8 -2,-14 -10,-13 -10,-2 -14,-4 3,2 6,4 8,7 -14,-5 -29,-27 -49,-37 0,-2 4,2 7,3 -6,-8 -8,-5 -14,-7 -7,-7 -15,-16 -8,-15 -7,-8 0,2 -6,0l-1 -2 -12 -4c-6,-7 -13,-16 -14,-22 -18,-13 -12,2 -26,-6 -5,-7 4,-2 5,-2 -3,-3 -7,-6 -11,-8 7,-1 14,7 17,3 -13,-3 -14,-9 -29,-15l1 1c-8,-2 -20,-14 -28,-20 5,1 13,7 19,11 -7,-8 -29,-23 -39,-26 -4,-5 -11,-16 -4,-11 -14,-16 -11,-1 -22,-16l3 -2c-9,-19 -28,-30 -33,-49l-5 1c0,-5 -3,-13 -2,-15 2,2 4,5 6,8 0,-9 -8,-7 -9,-18 -1,1 -1,10 -2,10 19,37 40,76 75,100 -1,-1 -2,-3 0,-3 2,4 9,8 7,9l-2 0c9,6 14,17 19,21 5,0 17,14 16,7l4 7c3,0 4,-3 8,-1 6,5 5,6 -1,4 21,18 46,40 70,57 -2,-1 -5,-2 -7,-3 4,5 23,12 14,14 13,6 29,24 34,20 1,5 7,11 14,17 3,3 7,7 9,9 0,0 0,1 0,1l0 0c1,0 2,-1 3,-1 2,-1 3,-1 5,-1 0,0 1,0 1,0l0 0 0 0c-3,-1 27,10 14,6l0 0 0 0 0 -1 1 0c0,-2 1,-5 2,-7 -7,1 4,-16 4,-21 5,-1 -2,16 1,18 0,-22 26,-48 21,-60 1,-2 1,-2 1,-1 2,-3 7,-7 9,-10 -1,-3 -6,4 -2,-4 5,-6 5,-1 8,-3 5,-13 18,-30 16,-35 3,-2 8,-4 6,0 12,-18 15,-15 28,-33 -5,6 1,6 -8,13 11,-2 23,-26 38,-37l2 -8c7,-9 10,-7 6,0 15,-12 20,-21 29,-33 1,0 1,1 0,3 4,-6 9,-11 13,-17 0,-3 3,-10 0,-10 1,3 -1,8 -9,16z"/>
  <path class="fil0" d="M475 250l0 -1 0 1c0,0 0,0 0,0z"/>
  <path class="fil0" d="M337 381c2,-2 3,-3 4,-4 -1,1 -2,2 -4,4z"/>
  <path class="fil0" d="M491 63c-3,5 9,9 11,19 -5,-8 -7,-4 -8,-2 12,6 5,12 10,29 -2,1 -4,-7 -8,-7 5,8 8,24 12,26 0,18 -5,30 -7,41 2,-13 -4,-4 -5,-14 3,14 -1,44 -6,64 -6,0 -7,1 -9,-4 -14,17 1,8 -12,25 2,-3 4,-5 6,-8 -4,9 -1,13 0,17 5,-7 9,-14 13,-22 3,2 -6,16 -8,20 -1,9 10,-10 11,-6 0,-4 6,-13 8,-19l3 0c7,-10 6,-19 10,-29 1,0 1,0 1,0 0,-4 -1,-9 0,-16l-1 5c-1,-10 2,-32 -7,-19 3,-8 5,-16 6,-24 5,3 12,9 9,25l1 2c7,-11 2,-34 -3,-26 -5,-7 -5,-16 -6,-27 -1,-10 -3,-22 -9,-30 2,-2 8,7 11,11 2,5 3,10 1,11 3,12 5,10 7,9 2,-1 4,-2 4,13 -1,14 -5,-17 -5,4 3,5 5,10 7,16 2,-14 0,-27 -3,-37 -8,-30 -22,-51 -34,-65 -12,-13 -20,-19 -20,-20 -25,-17 -54,-25 -84,-25l-3 0c-12,0 -25,2 -36,4 -21,5 -41,12 -59,23 -16,10 -35,16 -52,34 -9,12 -12,20 -14,27 -1,7 -1,12 1,18 3,-4 9,-18 9,-12 -1,-4 0,-14 9,-24 3,0 -6,10 -3,8l1 -2c1,2 0,4 -1,8 5,-5 11,-12 18,-18 7,-6 14,-12 17,-17 12,-3 -5,8 -8,13 9,-4 17,-8 25,-12 9,-5 16,-8 23,-12 16,-6 31,-11 51,-14 0,-5 4,-3 9,-8l3 2c-1,-1 4,-5 -4,-6 24,4 29,-7 47,-6l-2 3c14,3 18,4 30,8 10,8 5,5 -2,3 -6,-3 -15,-5 -13,-1 2,0 4,1 6,1 -4,1 -10,4 -17,4 21,2 27,12 46,22 -4,0 -21,-8 -26,-10 6,4 18,9 16,12l4 -3c10,8 -4,2 -2,7 11,9 13,8 16,6 3,-2 6,-6 15,5z"/>
  <path class="fil0" d="M383 339c3,-2 5,-5 7,-7 -2,2 -5,4 -7,7z"/>
  <path class="fil0" d="M421 288c0,-1 0,-1 0,-2 -1,1 -1,2 0,2z"/>
  <path class="fil0" d="M421 280c3,0 0,3 0,6 2,-4 9,-11 0,-6z"/>
  <path class="fil0" d="M210 123c0,0 1,1 1,1 0,0 1,1 1,0 0,0 0,0 0,-1 -1,-1 0,-2 0,-3l0 0 0 0c-18,-3 25,3 20,2l0 0 0 0 0 0 0 0 0 0 0 0c0,-2 -1,-4 -1,-3l0 3 0 0 0 0 0 0 0 0c16,2 -21,-3 -18,-2l0 0 0 0 0 1c0,0 0,1 0,2 0,1 0,1 0,1 0,0 0,0 0,-1 -1,-1 -2,-2 -3,-4 0,2 0,3 0,4z"/>
  <path class="fil0" d="M201 103c-2,-3 -4,-7 -7,-10 -3,-1 -6,-1 -9,-2 9,9 7,3 16,12z"/>
  <path class="fil0" d="M180 77l3 1c-2,-1 -3,-1 -3,-1z"/>
  <path class="fil0" d="M178 79c-2,0 -4,0 -6,0 4,2 9,5 13,8 -1,-2 -2,-3 -4,-5 1,-1 -1,-4 -1,-5 -2,0 -4,-1 -6,-1 1,0 4,2 4,3z"/>
  <path class="fil0" d="M168 71c0,1 0,1 0,2 0,-1 0,-1 0,-2z"/>
  <path class="fil0" d="M146 50c2,2 -4,2 -6,3 10,6 14,1 22,8 -16,-5 3,5 6,10 0,-5 -4,-10 -14,-17l-2 1c-6,-2 -2,-2 -6,-5z"/>
  <path class="fil0" d="M85 47c3,-2 6,-4 9,-5 2,1 17,2 15,6 5,0 6,-2 11,-2 3,3 6,5 11,4 -10,-4 -14,-6 -17,-7 -4,-1 -7,-2 -17,-3 1,-1 3,0 6,0 -5,-1 -9,-2 -13,-2 -1,5 -17,8 -5,9z"/>
  <path class="fil0" d="M67 49c9,-4 15,-8 9,-10 -7,3 -14,7 -20,11 6,-3 13,-6 11,-1z"/>
  <path class="fil0" d="M54 55c-4,0 -13,1 -15,9 8,-8 7,0 15,-9z"/>
  <path class="fil0" d="M11 113c2,-7 5,-13 9,-19 6,-1 -3,10 -2,16 6,-15 3,-11 6,-23 2,-5 4,-12 7,-18 -7,12 -11,17 -15,22 -4,5 -7,11 -5,22z"/>
  <path class="fil0" d="M31 78c0,-1 0,-2 0,-3 -1,3 -3,6 -4,9 2,-2 3,-4 4,-6z"/>
  <path class="fil0" d="M1 161c-5,13 6,24 7,38 -1,-1 -1,0 -2,-3 1,4 2,8 4,12l-2 1c3,-2 9,9 13,13 -1,-12 -6,-4 -6,-15 2,2 5,3 7,4 -4,-6 -6,-7 -9,-10 -2,-7 0,-5 2,-6 -4,-8 -10,-7 -10,-21 2,-9 5,4 2,-10 -5,8 0,-15 -3,-21 2,-11 7,-17 8,-15 -4,0 -6,-10 -5,-19 -1,6 -1,13 0,19 -2,2 -4,4 -6,6 1,11 1,18 1,29l-1 -2z"/>
  <path class="fil0" d="M22 211c1,1 2,2 2,4 0,-2 -1,-3 -2,-4z"/>
  <path class="fil0" d="M14 125c0,2 0,3 0,5 1,-1 2,-2 2,-3l-2 -2z"/>
  <path class="fil0" d="M29 219c-1,-3 -3,-3 -2,-1l3 3 -1 -2z"/>
  <path class="fil0" d="M30 230l0 7 3 2c-1,-3 -2,-6 -3,-9z"/>
  <path class="fil0" d="M318 390c0,3 -1,6 2,2 0,3 0,7 0,10 9,-10 1,-11 -2,-12z"/>
  <path class="fil0" d="M368 328l-7 11 4 -5c0,4 -1,7 -2,11 5,-7 9,-16 5,-17z"/>
  <path class="fil0" d="M356 354c1,-1 2,-2 3,-4 -2,1 -3,1 -3,4z"/>
  <path class="fil0" d="M362 347c0,-1 1,-1 1,-2 -2,2 -3,4 -4,5 1,0 2,-1 3,-3z"/>
  <path class="fil0" d="M376 323c5,-5 10,-11 15,-16l-7 5c2,4 -8,6 -8,11z"/>
  <path class="fil0" d="M452 243l4 0c9,-10 11,-28 20,-32 -5,4 1,-11 -7,1 0,8 -10,24 -17,31z"/>
  <path class="fil0" d="M483 205c0,2 2,-1 3,-2 3,-4 3,-9 1,-7 3,5 -5,3 -4,9z"/>
  <path class="fil0" d="M502 147c-1,4 -1,9 1,4 1,-11 -3,-9 -5,-14 -3,8 1,17 4,10z"/>
  <path class="fil0" d="M502 49c-2,3 5,11 7,13 -2,-3 -5,-9 -7,-13z"/>
  <path class="fil0" d="M480 63l1 3c3,0 5,0 7,0 -3,-1 -5,-2 -8,-3z"/>
  <path class="fil0" d="M424 29c-3,0 -6,1 -9,1 4,1 8,2 12,3 -1,-1 -2,-3 -3,-4z"/>
  <path class="fil0" d="M412 25c-4,0 -7,-1 -11,-1l4 1c5,2 3,0 7,0z"/>
  <path class="fil0" d="M379 23c1,0 2,0 3,1 3,-1 6,-2 10,-2 -5,0 -9,1 -13,1z"/>
  <path class="fil0" d="M216 105c-2,-4 -4,7 -5,10 0,1 6,-4 5,-10z"/>
 </g>
</svg>
