<?xml version="1.0" encoding="UTF-8"?>
<!DOCTYPE svg PUBLIC "-//W3C//DTD SVG 1.1//EN" "http://www.w3.org/Graphics/SVG/1.1/DTD/svg11.dtd">
<!-- Creator: CorelDRAW X8 -->
<svg xmlns="http://www.w3.org/2000/svg" xml:space="preserve" width="2.42511in" height="3.44767in" version="1.1" style="shape-rendering:geometricPrecision; text-rendering:geometricPrecision; image-rendering:optimizeQuality; fill-rule:evenodd; clip-rule:evenodd"
viewBox="0 0 290 413"
 xmlns:xlink="http://www.w3.org/1999/xlink">
 <defs>
  <style type="text/css">
   <![CDATA[
    .fil0 {fill:#ED0000;fill-rule:nonzero}
   ]]>
  </style>
 </defs>
 <g id="Layer_x0020_1">
  <metadata id="CorelCorpID_0Corel-Layer"/>
  <path class="fil0" d="M117 356c-5,2 -7,5 -10,9 -1,1 -1,2 -2,2 2,-3 3,-7 5,-11 5,-12 14,-27 12,-39 -1,-2 -3,-3 -4,-2 -12,7 -18,25 -23,36 -3,7 -7,14 -10,22 -1,-6 -2,-12 -3,-17 -1,-5 -8,-5 -9,0 -3,16 1,33 3,49 1,7 11,11 14,4 5,-9 12,-16 20,-22 6,-6 17,-14 16,-24 0,-4 -4,-8 -9,-7z"/>
  <path class="fil0" d="M267 72c8,0 18,-2 23,-9 2,-4 -2,-8 -5,-7 -8,2 -14,6 -21,7 -5,1 -12,1 -17,2 2,-3 3,-7 5,-10 1,-2 5,-19 -2,-18 -7,2 -10,16 -14,22 0,0 0,1 -1,1 -1,-7 -3,-14 -4,-20 -1,-6 -1,-13 -1,-19 0,-6 1,-11 0,-17 -1,-4 -7,-5 -10,-2 -9,8 -6,24 -4,35 1,12 4,25 12,35 -2,3 -5,6 -7,10 -3,-6 -4,-12 -5,-18 -2,-10 -1,-24 -7,-32 -2,-3 -7,-4 -9,0 -7,11 -1,32 4,43 3,5 6,12 12,16 -3,6 -7,13 -10,20 -9,-2 -20,-1 -30,2 -24,7 -51,31 -52,58 -1,-3 -2,-5 -3,-8 -4,-6 -10,-11 -16,-15 -12,-8 -27,-11 -41,-10 -28,2 -59,25 -63,55 -5,29 15,56 36,74 13,12 28,20 44,28 22,11 45,22 68,32 11,5 20,-10 10,-15 -32,-15 -66,-28 -96,-47 -19,-13 -39,-32 -44,-56 -6,-25 17,-46 40,-52 11,-3 23,-1 33,3 6,2 11,6 16,10 4,4 10,10 12,14 2,4 8,3 7,-1 -1,-1 -1,-2 -1,-3 1,-14 12,-27 21,-36 11,-9 25,-18 40,-19 4,0 8,0 12,1 -7,12 -13,25 -20,38 -5,10 9,18 16,9 8,-12 14,-26 19,-40 7,7 10,16 12,27 2,21 -3,44 -10,64 -12,35 -32,69 -53,99 -8,11 10,21 17,10 23,-34 45,-71 57,-111 8,-25 13,-56 3,-82 -4,-10 -11,-18 -19,-23 2,-7 5,-14 8,-20 18,8 45,9 58,-6 2,-3 2,-8 -2,-9 -10,-1 -19,3 -28,4 -6,2 -14,1 -20,0 -1,0 -1,0 -1,0 3,-5 6,-10 9,-15 5,4 16,2 22,1z"/>
 </g>
</svg>
