<?xml version="1.0" encoding="UTF-8"?>
<!DOCTYPE svg PUBLIC "-//W3C//DTD SVG 1.1//EN" "http://www.w3.org/Graphics/SVG/1.1/DTD/svg11.dtd">
<!-- Creator: CorelDRAW X8 -->
<svg xmlns="http://www.w3.org/2000/svg" xml:space="preserve" width="1.58101in" height="1.41133in" version="1.1" style="shape-rendering:geometricPrecision; text-rendering:geometricPrecision; image-rendering:optimizeQuality; fill-rule:evenodd; clip-rule:evenodd"
viewBox="0 0 778 695"
 xmlns:xlink="http://www.w3.org/1999/xlink">
 <defs>
  <style type="text/css">
   <![CDATA[
    .fil2 {fill:#FEFEFE;fill-rule:nonzero}
    .fil0 {fill:#EE4B9A;fill-rule:nonzero}
    .fil1 {fill:#EFAACB;fill-rule:nonzero}
   ]]>
  </style>
 </defs>
 <g id="Layer_x0020_1">
  <metadata id="CorelCorpID_0Corel-Layer"/>
  <path class="fil0" d="M8 289c-53,-204 156,-396 381,-219 233,-177 432,14 381,219 -56,229 -381,406 -381,406 0,0 -320,-173 -381,-406z"/>
  <path class="fil1" d="M88 318c-42,-162 124,-314 302,-174 185,-140 343,12 303,174 -45,182 -303,322 -303,322 0,0 -254,-137 -302,-322z"/>
  <path class="fil2" d="M608 304c-86,2 -118,35 -117,121 -1,-86 -34,-118 -120,-117 86,-1 118,-34 117,-121 1,87 34,119 120,117z"/>
  <path class="fil2" d="M458 466c-55,0 -76,21 -75,76 -1,-55 -22,-75 -77,-74 55,-1 76,-22 75,-77 1,55 22,75 77,75z"/>
 </g>
</svg>
