<svg id="Layer_1" data-name="Layer 1" xmlns="http://www.w3.org/2000/svg" viewBox="0 0 108.78 29.12"><defs><style>.cls-1{fill:#1f1c1d;}</style></defs><title>h-92</title><path class="cls-1" d="M302.1,420.39s4.3,8.39,6.41,10.44,3.34,4.16,11.19,4.44,18.7-.68,22.73-3.89,7.17-13.38,7.71-14.74a19.48,19.48,0,0,1,2.8-3.82v-6.48s-9.49-.35-21.5.07C313.9,407,305.71,411,303.05,412c-2.29.79-2.46.87-2.46.87H296.5s-.17-.08-2.46-.87c-2.66-.92-10.85-4.95-28.39-5.56-12-.42-21.5-.07-21.5-.07v6.48a19.48,19.48,0,0,1,2.8,3.82c.55,1.36,3.69,11.53,7.71,14.74s14.88,4.16,22.73,3.89,9.08-2.39,11.19-4.44S295,420.39,295,420.39C299.36,420.32,297.74,420.32,302.1,420.39Zm41.56,5.12s-2.39,4.44-6,5.53c-2.82.85-13.31,3.34-22.45,1.23,0,0-5-.89-7.92-7.44s-1.84-8.39-.89-9.62c0,0,2.66-3.89,20.34-5.19s19.79-.68,20.06,1.71A20,20,0,0,1,343.66,425.51ZM250.3,411.73c.27-2.39,2.39-3,20.06-1.71s20.34,5.19,20.34,5.19c1,1.23,2,3.07-.89,9.62s-7.92,7.44-7.92,7.44c-9.14,2.12-19.63-.38-22.45-1.23-3.62-1.09-6-5.52-6-5.53A20,20,0,0,1,250.3,411.73Z" transform="translate(-244.15 -406.2)"/></svg>