<svg id="Layer_1" data-name="Layer 1" xmlns="http://www.w3.org/2000/svg" viewBox="0 0 106.17 39.11"><defs><style>.cls-1{fill:#1f1c1d;}</style></defs><title>h-108</title><path class="cls-1" d="M298.55,416.57c.59,0,1.28,0,2.05.1,2.46.18,3.11,3.58,3.11,3.58a65,65,0,0,0,3.46,9.38c2.87,6.1,9.2,12.55,22.8,10.67s19.7-14,20.81-16.06.82-10.9.82-12.25-5.86-8.62-21.69-10.2-23.33,4.46-25.56,6.39a20,20,0,0,1-3.93,2.76,11.79,11.79,0,0,1-3.75,0,20,20,0,0,1-3.93-2.76c-2.23-1.93-9.73-8-25.56-6.39S245.5,410.63,245.5,412s-.29,10.14.82,12.25,7.21,14.19,20.81,16.06,19.93-4.57,22.8-10.67a65,65,0,0,0,3.46-9.38s.64-3.4,3.11-3.58C297.27,416.6,298,416.57,298.55,416.57Zm48.54,3.8c-1.11,9.32-5.45,14.48-14.36,17.12s-18,.06-22-5.45-6.27-15.53-5.33-19.7,6.51-6.68,6.51-6.68c4.51-2.7,17.82-2.81,25.5-.23S348.2,411,347.09,420.37Zm-87.4-14.95c7.68-2.58,21-2.46,25.5.23,0,0,5.57,2.52,6.51,6.68s-1.35,14.19-5.33,19.7-13.07,8.09-22,5.45-13.25-7.8-14.36-17.12S252,408,259.69,405.42Z" transform="translate(-245.46 -401.52)"/></svg>