<svg id="Layer_1" data-name="Layer 1" xmlns="http://www.w3.org/2000/svg" viewBox="0 0 79.13 134.13"><defs><style>.cls-1{fill:#1f1c1d;}</style></defs><title>h-10</title><path class="cls-1" d="M335.74,401.53c-1.38-2.62-.93-2.89-1-4.78s-2.17-3.63-2.17-3.63a23.91,23.91,0,0,1-2.35-7.64c-.42-4-5.93-11.16-5.93-11.16l.26,3.41a59.09,59.09,0,0,1-2.89-5.35c-1.41-3-5.41-5.87-5.41-5.87L317,370a21.42,21.42,0,0,0-4.48-6.06c-2.52-2.06-10.46-2.18-10.46-2.18l2.23,2.91s-4.19-3.71-7.22-4.67a26.54,26.54,0,0,1-6.55-3.65l2,5.06a36.66,36.66,0,0,1-4.45-2.51c-3.23-2-4.09-4.07-4.09-4.07s-1,1.49-2.12,3.36a34.14,34.14,0,0,0-2.26,4.67c-2.76-3.7-1.95-8.62-1.95-8.62-2.94,3.42-5.27,10.22-6.47,13.15s-4.31,10.39-4.31,10.39l-1.22-5.24a52.66,52.66,0,0,0-.56,9.87c0,7,4.72,7.7,4.72,7.7a16.43,16.43,0,0,1-6.36-2C258.82,392.37,258,400,258,404s1.81,14.66,4.28,20,3.16,14.56,3.16,14.56a24.74,24.74,0,0,0,1.28-7.55c-.09-3.66-1.41-11.62-2-16.54s4.09-16.53,5.53-19.48S278.1,390,278.1,390c-6-4.76-4.66-15.52-4.66-15.52,1,13.54,10.54,19,15.95,18.46s6.63,1.24,6.63,1.24l3.94.34,1.41.25c3.36.58,3.78-1.7,3.78-1.7l4.92,2.47a44.84,44.84,0,0,1,6.15-3.3c3.55-1.57,9.22,6.18,9.22,6.18a99,99,0,0,1,1.36,14.94c-.13,6.17,6.64,17.5,6.6,17a50.73,50.73,0,0,1,1.15-9.91c1-4.1,1.85-8.54,2.36-11.19A11.2,11.2,0,0,0,335.74,401.53Z" transform="translate(-258.02 -354.25)"/><path class="cls-1" d="M299.95,461c.61,1,1.35,1.1,1.53,1s1.29.26,1.59,0a5.2,5.2,0,0,1,1.84-.22c.31,0,2.27.55,2.51.55s2.57,1.22,3.49,1.1a4,4,0,0,1,1.41,0s1.9.91,2.08.91,1.53.67,1.53,1.29a3.73,3.73,0,0,0,.49-3.25,7.71,7.71,0,0,0-2.14-2.57,9.92,9.92,0,0,0-2.94-1.78,1.34,1.34,0,0,1-1.41.06c-1-.37-2.51-1-2.51-1l-1-.24c-.25-.06-.86-.73-1.1-.92s-.37-.73-.92-.8a6.27,6.27,0,0,0-2.14,0c-.37.18-1.9,1.29-1.9,1.29C300.38,456.66,299.34,460,299.95,461Z" transform="translate(-258.02 -354.25)"/><path class="cls-1" d="M284.15,464.38c.18,0,2.08-.91,2.08-.91a4,4,0,0,1,1.41,0c.92.12,3.25-1.1,3.49-1.1s2.2-.55,2.51-.55a5.2,5.2,0,0,1,1.84.22c.31.22,1.41-.16,1.59,0s.92,0,1.53-1-.43-4.35-.37-4.53c0,0-1.53-1.1-1.9-1.29a6.27,6.27,0,0,0-2.14,0c-.55.06-.67.61-.92.8s-.86.86-1.1.92l-1,.24s-1.47.61-2.51,1a1.34,1.34,0,0,1-1.41-.06,9.92,9.92,0,0,0-2.94,1.78,7.71,7.71,0,0,0-2.14,2.57,3.73,3.73,0,0,0,.49,3.25C282.62,465.05,284,464.38,284.15,464.38Z" transform="translate(-258.02 -354.25)"/><path class="cls-1" d="M331.49,440.06c0,.18-2.33,9.06-2.45,9.92a24.34,24.34,0,0,1-2.51,5.11c-1.1,1.87-1.84,3.53-2.2,4s-.31.94-.86,1.33-.49.57-1,.57-.18-.18-1.22,0-1.35.25-1.53.61-1.29,4.59-1.65,4.84a16.27,16.27,0,0,0-1.44,1.41A20.65,20.65,0,0,1,315,470.2c-.25.12-1.41,1.41-1.71,1.35s-2.45,2.76-2.69,3-1.16,1.47-1.16,1.47l-4.23,2.51a.75.75,0,0,1-1,0c-.49-.37-.31-.67-.8-.67a5.68,5.68,0,0,1-2.33-1.65v-1.65a5.08,5.08,0,0,0,1-.8c.06-.18-.55-1.1-.61-1.29a2.11,2.11,0,0,0-1.1-1.16l-1-.38-1,.38a2.11,2.11,0,0,0-1.1,1.16c-.06.18-.67,1.1-.61,1.29a5.08,5.08,0,0,0,1,.8v1.65a5.68,5.68,0,0,1-2.33,1.65c-.49,0-.31.31-.8.67a.75.75,0,0,1-1,0L289.11,476s-.92-1.22-1.16-1.47-2.39-3.06-2.69-3-1.47-1.22-1.71-1.35a20.65,20.65,0,0,1-1.62-2.39,16.27,16.27,0,0,0-1.44-1.41c-.37-.24-1.47-4.47-1.65-4.84s-.49-.43-1.53-.61-.74,0-1.22,0-.43-.18-1-.57-.49-.9-.86-1.33-1.1-2.08-2.2-4a24.34,24.34,0,0,1-2.51-5.11c-.12-.86-2.45-9.74-2.45-9.92a38.5,38.5,0,0,0,.8,5,16.77,16.77,0,0,1,.43,4.41,14.8,14.8,0,0,0,.43,3.86c.49,1.65.61,4.59,1,6.37s1.22,3.31,2.33,6.37,4.53,6.31,6.43,7.78,4.72,5.57,4.72,5.57,3.12,3.67,3.31,3.74,3.61,2.69,3.61,2.69l1.29,1.22,1.1.12,1.65.43-.18-.61,1.9.43s3.06.92,3.25.92.11-.1.18-.26c.08.16.14.26.18.26s3.25-.92,3.25-.92l1.9-.43-.18.61,1.65-.43,1.1-.12,1.29-1.22s3.43-2.63,3.61-2.69,3.31-3.74,3.31-3.74,2.82-4.1,4.72-5.57,5.33-4.72,6.43-7.78,2-4.59,2.33-6.37.49-4.72,1-6.37a14.8,14.8,0,0,0,.43-3.86,16.77,16.77,0,0,1,.43-4.41A38.49,38.49,0,0,0,331.49,440.06Z" transform="translate(-258.02 -354.25)"/></svg>