<svg id="Layer_1" data-name="Layer 1" xmlns="http://www.w3.org/2000/svg" viewBox="0 0 52.48 12.08"><defs><style>.cls-1{fill:#1f1c1d;}</style></defs><title>h-25</title><path class="cls-1" d="M298,415.14s-4.81-1.95-8.71,1.15c-3.25,2.58-7.16,6.07-9.85,6.76s-7.27-.5-7.22-4.12,2-3.73,2-3.73-2.23.08-2.46,3.82,4.07,6.66,7.39,6.72,3.21-.57,3.21-.57l-.57.92a10,10,0,0,0,8.19-.74c4.14-2.15,5.83-4,8-3.64,2.19-.32,3.88,1.49,8,3.64a10,10,0,0,0,8.19.74l-.57-.92s-.11.63,3.21.57,7.62-3,7.39-6.72-2.46-3.82-2.46-3.82,1.95.11,2,3.73-4.52,4.8-7.22,4.12-6.6-4.18-9.85-6.76C302.83,413.19,298,415.14,298,415.14Z" transform="translate(-271.78 -414.54)"/></svg>