<svg id="Layer_1" data-name="Layer 1" xmlns="http://www.w3.org/2000/svg" viewBox="0 0 58.69 53.31"><defs><style>.cls-1{fill:#1f1c1d;}</style></defs><title>h-56</title><path class="cls-1" d="M275.22,427.41a13.11,13.11,0,0,0,1.37,4.86c1.25,2.37-1.37,5.61-1.37,5.61s-.75,2.24-.5,2.87-.05,7.23-.05,7.23-.7-4.86-1.44-6.23-1.5-2.24-1.5-4.05-.62-7-.62-7l.75-3.24h2.74s-4.24-3.24-5.11-7.48,2.74-14.21,3-14.71,5.61-5.48,5.61-5.48,5.73,2.12,7,4.49a34.93,34.93,0,0,1,2.12,5.23s-1.12-6.48-2.62-8a22.2,22.2,0,0,1-2.62-3.24l6.11-2.12s6-1.37,7.85,0,1.25,8.48,1.25,8.48,2.32-6.33.1-9.09c0,0,6.51-1.73,10.49,0a15.28,15.28,0,0,1,2.31,1.26,21.6,21.6,0,0,1,4.55,4.08,67,67,0,0,0,0,7.1c.25.87-2.37,6.11-2.74,6.61s3.86-5.11,4.24-7.73a18.51,18.51,0,0,0-.75-6.36l-2.49-3-3.51-1.19s5.13-.18,8.75,2.06,6.73,6.23,6.73,9.22-1.12,4.11-1.12,4.11l2.49-2.62a21,21,0,0,1,1.37,4.49c.5,2.62.75,4.74,0,6.86s-2.12,5.36-2.12,6.36-1,2.62-.5,4,.25,4.36.12,5.86a16.17,16.17,0,0,1-1,4.36c-.37.75-2.12,2.12-2.49,3.12s-1.37,2.87-1.37,3.86,1.12-8.1.62-10.72S320,430,320,430s-2.74-6.91-6.48-8.63-12.13-3.46-14.79-2.09a23.84,23.84,0,0,1-3.16,1.5s-3.37-2.62-6.36-2-6.11,1-6.61,1.12a47.47,47.47,0,0,0-5.36,4.61C277,424.92,275.22,427.41,275.22,427.41Z" transform="translate(-269.35 -394.75)"/></svg>