<svg id="Layer_1" data-name="Layer 1" xmlns="http://www.w3.org/2000/svg" viewBox="0 0 49.35 41.33"><defs><style>.cls-1{fill:#1f1c1d;}</style></defs><title>h-65</title><path class="cls-1" d="M290.42,423.45s4.84.48,7.25-.84c2.41,1.32,7.25.84,7.25.84,5.44,1.93,9.55-2.18,9.55-2.18-4.61,1.93-11.31-6.53-13.4-5.53l-3.4,1.62-3.4-1.62c-2.09-1-8.79,7.45-13.4,5.53C280.87,421.27,285,425.38,290.42,423.45Z" transform="translate(-273 -399.92)"/><path class="cls-1" d="M322.34,399.92s-.75,4.61-1.26,9-1.09,5.36-1.76,6.28S317,416.33,316,417s-.67,2.35-.67,2.35c.92,4.94-4.27,10.3-4.52,10.38s-2.93,3.78-4.69,4.19-4.27-.92-4.44-2.09,1.51-3.94.59-4.77-4.57-1.6-4.57-1.6-3.65.76-4.57,1.6.75,3.6.59,4.77-2.68,2.51-4.44,2.09-4.44-4.12-4.69-4.19-5.44-5.44-4.52-10.38c0,0,.34-1.68-.67-2.35s-2.68-.84-3.35-1.76-1.26-1.84-1.76-6.28-1.26-9-1.26-9,.75,6.2.5,7.54a12.84,12.84,0,0,0,.5,5.61c.59,1.34,1.17,4,1.42,4.52s6,10.3,6,10.3,6.2,6.62,6.7,8a14.48,14.48,0,0,0,2.43,3.52l2.44,1.09a5.6,5.6,0,0,0,1.41.67c.35.06,2.16,0,3.23,0s2.88,0,3.23,0a5.6,5.6,0,0,0,1.41-.67l2.44-1.09a14.48,14.48,0,0,0,2.43-3.52c.5-1.42,6.7-8,6.7-8s5.78-9.8,6-10.3.84-3.18,1.42-4.52a12.84,12.84,0,0,0,.5-5.61C321.59,406.11,322.34,399.92,322.34,399.92Z" transform="translate(-273 -399.92)"/></svg>