<svg id="Layer_1" data-name="Layer 1" xmlns="http://www.w3.org/2000/svg" viewBox="0 0 108.65 38.16"><defs><style>.cls-1{fill:#1f1c1d;}</style></defs><title>h-89</title><path class="cls-1" d="M297.91,414.19c2.52.37,3.69,3.13,3.69,3.13,3.69,11.88,4.64,12.15,9.28,17.47s18.7,6.82,28.25,2.59,10.65-22.79,10.65-22.79l2.46-2.73v-8.33c-8.08-2.55-32.46-2.86-48.45,1.64a56.4,56.4,0,0,1-11.74,0c-16.62-4.67-40.77-4.06-48.45-1.64v8.33l2.46,2.73s1.09,18.56,10.65,22.79,23.61,2.73,28.25-2.59,5.6-5.59,9.28-17.47C294.23,417.32,295.4,414.56,297.91,414.19ZM334.36,436c-9.55,2.32-19.65,1-23.75-6.55s-5-15.42-2-18.29c0,0,3.14-4,11.74-4.5s21.43-1.91,24.16,5.73S343.91,433.7,334.36,436Zm-83-23.61c2.73-7.64,15.56-6.28,24.16-5.73s11.74,4.5,11.74,4.5c3,2.87,2,10.78-2,18.29S271,438.34,261.47,436,248.64,420.05,251.37,412.41Z" transform="translate(-243.59 -401.68)"/></svg>