<svg id="Layer_1" data-name="Layer 1" xmlns="http://www.w3.org/2000/svg" viewBox="0 0 116.43 33.88"><defs><style>.cls-1{fill:#1f1c1d;}</style></defs><title>h-134</title><path class="cls-1" d="M297.91,420.23l2.31.14c1.74.08,2,1.36,3.41,3.79s3.79,13.56,19.16,13.33,30.6-17,32.8-23-2.12-10.38-19.09-10.91S301.89,413,301.89,413a8.31,8.31,0,0,1-8,0s-17.65-9.92-34.62-9.39-21.29,4.92-19.09,10.91,17.42,22.73,32.8,23,17.8-10.91,19.16-13.33,1.67-3.71,3.41-3.79Zm23,14.23c-10.53-.68-17.27-11.74-11.67-18s18-7.42,18-7.42c3.33-.15,17-1.52,17,6.59S331.43,435.14,320.91,434.46Zm-69.24-18.79c0-8.1,13.63-6.74,17-6.59,0,0,12.35,1.21,18,7.42s-1.14,17.27-11.67,18S251.67,423.78,251.67,415.67Z" transform="translate(-239.7 -403.61)"/></svg>