<svg id="Layer_1" data-name="Layer 1" xmlns="http://www.w3.org/2000/svg" viewBox="0 0 109.44 34.78"><defs><style>.cls-1{fill:#1f1c1d;}</style></defs><title>h-131</title><path class="cls-1" d="M298.19,415.21a9.86,9.86,0,0,0,4.68-1.18c1.29-.44,1.74.69,1.9,1.42a2.87,2.87,0,0,0,.52,1.14l1.44,1.9c-.09,2.85.19,9.39,4.18,14.3,3,3.65,7.39,5.72,13.13,6.16q1.51.11,2.92.11c6.31,0,11.18-1.71,14.52-5.1A16.69,16.69,0,0,0,346,423.64l1.84-2.32a3.6,3.6,0,0,0,.68-1.41l.22-.92a1.94,1.94,0,0,1,.45-.85l3.22-3.55a1.94,1.94,0,0,0,.5-1.3v-2a1.94,1.94,0,0,0-.94-1.66c-5.06-3-12.27-4.17-12.27-4.17-17-3.43-26.17,1.2-31.42,3.64a44.47,44.47,0,0,1-6.53,2.61,10.19,10.19,0,0,1-7.13,0,44.47,44.47,0,0,1-6.53-2.61c-5.24-2.44-14.46-7.07-31.42-3.64,0,0-7.21,1.13-12.27,4.17a1.94,1.94,0,0,0-.94,1.66v2a1.94,1.94,0,0,0,.5,1.3l3.22,3.55a1.94,1.94,0,0,1,.45.85l.22.92a3.6,3.6,0,0,0,.68,1.41l1.84,2.32A16.69,16.69,0,0,0,254.9,434c3.34,3.39,8.21,5.1,14.52,5.1q1.41,0,2.92-.11c5.74-.44,10.16-2.51,13.13-6.16,4-4.91,4.28-11.45,4.18-14.3l1.44-1.9a2.87,2.87,0,0,0,.52-1.14c.16-.73.61-1.86,1.9-1.42A9.86,9.86,0,0,0,298.19,415.21ZM341,433.52c-3.7,3.76-9.4,5.37-16.94,4.8-5.56-.42-9.83-2.42-12.69-5.92-4-4.89-4.15-11.47-4-14.1,1.52-4.6,5.19-8.72,9.24-10.3,4.27-1.66,18.07-3.5,24,1.92,3.61,3.32,4.59,8.93,4.86,12A16.38,16.38,0,0,1,341,433.52ZM251,422c.27-3.12,1.25-8.72,4.86-12,5.89-5.42,19.7-3.59,24-1.92,4.05,1.58,7.72,5.7,9.24,10.3.11,2.63-.06,9.21-4,14.1-2.86,3.51-7.13,5.5-12.69,5.92-7.54.57-13.25-1-16.94-4.8A16.38,16.38,0,0,1,251,422ZM350.13,412h-2.34a.78.78,0,0,1,0-1.56h2.34a.78.78,0,0,1,0,1.56Zm-104.65-.78a.78.78,0,0,1,.78-.78h2.34a.78.78,0,0,1,0,1.56h-2.34A.78.78,0,0,1,245.48,411.25Z" transform="translate(-243.48 -404.28)"/></svg>