<svg id="Layer_1" data-name="Layer 1" xmlns="http://www.w3.org/2000/svg" viewBox="0 0 57.43 56.09"><defs><style>.cls-1{fill:#1f1c1d;}</style></defs><title>h-37</title><path class="cls-1" d="M326.93,429.15c-.11-2,0-3.84,0-3.84l-.34-2.53c.65-4.89-2.36-6.77-2.36-6.77-2.79,3-7.63,3.26-7.63,3.26a11.42,11.42,0,0,0,7.6-7.49c.43-1.74-3.69-9.34-3.69-9.34l-2.17,1.63c.11-4-4.67-6.3-4.67-6.3,1.85,1.09,2.17,3.8,2.17,3.8s-2.82-3.15-3.15-3a21.08,21.08,0,0,0-1.85,1.09c-.43-1.41-3.8-3.26-3.8-3.26L302.42,393l-1.88,1.45L296,395.59l.51-1.84L292,395.81l-3.26,1.09-3.37,2v-2c-2.93.54-6.95,4.67-6.95,4.67l-3.26,3-1-.87a17.07,17.07,0,0,1-.69,3.4,11.87,11.87,0,0,0-.4,3.65c.11,3.69,7.06,5.32,7.06,5.32,2.5-1.19,9.23,1.09,9.23,1.09a8.69,8.69,0,0,1-3.26-4.45c-.54-1.52,2.06-6.95,2.06-6.95a74.17,74.17,0,0,0-.11,7.49c.22,1.85,2,3.47,4.78,3.8s6.41,2.71,6.41,2.71-1.3-2.5-2.93-2.71-2.17-3.37-2.61-4.56,1.41-4.78,1.41-4.78a16.72,16.72,0,0,0,1,7.49c.76,1.74,5.32,4.56,5.32,4.56a29.85,29.85,0,0,0,2.71-6c1.09-3.37-2.28-7.71-2.28-7.71a13,13,0,0,1,3.69,6.84c.43,2.28-2.39,6.41-2.39,6.41s7.38-1.19,10.21-1.41,4.45,4.13,4.45,4.13,1.85,6,1.63,9.12,2.71,6.19,2.17,7.93-.07,3.55-.14,4.71l.1,5.28.62-4.19C321.85,442.54,324,440,324,440a59.59,59.59,0,0,1,2.28-5.75C327.46,431.75,327,431.1,326.93,429.15Z" transform="translate(-269.66 -393.03)"/><path class="cls-1" d="M278.82,417.86s-5.32-1.74-6.62-3.91c0,0-2.42,3.33-2.42,4.71s-.29,6.73.07,7.75,1,4.56.65,5.57,1.23,5.14,1.88,6.59,2.56,9.12,2.9,9.92c0,0-.83-6.73-1-8.47a8.68,8.68,0,0,1,.4-3.26c.66-1,2.6-6.19,2.5-8.91a48.84,48.84,0,0,1,0-7.06A28.57,28.57,0,0,1,278.82,417.86Z" transform="translate(-269.66 -393.03)"/></svg>