<svg id="Layer_1" data-name="Layer 1" xmlns="http://www.w3.org/2000/svg" viewBox="0 0 102.8 37.06"><defs><style>.cls-1{fill:#1f1c1d;}</style></defs><title>h-114</title><path class="cls-1" d="M297.91,413.58c3.38.06,5.3,1.19,5.76,2.8s-1.92,3.37-1.92,3.37a26.83,26.83,0,0,0,7,14.83c6.64,5.65,14.52,4.62,20.59,4.25s9.08-4.62,10.74-7.83,4.51-10,5.55-12.24a4.12,4.12,0,0,1,2.75-2.22,1.27,1.27,0,0,0,.93-1.22v-6.67s-14-7-27.7-6.54c-11.31.36-16.55,6.17-16.91,6.22s-1.56-.93-1.56-.93a23.51,23.51,0,0,1-10.48,0s-1.19,1-1.56.93-5.6-5.86-16.91-6.22c-13.7-.44-27.7,6.53-27.7,6.53v6.67a1.27,1.27,0,0,0,.93,1.22,4.12,4.12,0,0,1,2.75,2.22c1,2.28,3.89,9,5.55,12.24s4.67,7.47,10.74,7.83,14,1.4,20.59-4.25a26.83,26.83,0,0,0,7-14.83s-2.39-1.71-1.92-3.37S294.53,413.65,297.91,413.58ZM338.63,426c-2.07,5.5-4.67,9.08-9.39,9.49s-11.88,1.45-17.27-2.54-5.71-13.74-4.46-18.83c0,0,1.25-5,8.25-6.12s16.6-.88,20.54,2.18S340.7,420.48,338.63,426Zm-79.1-15.82c3.94-3.06,13.54-3.32,20.54-2.18s8.25,6.12,8.25,6.12c1.24,5.08.93,14.83-4.46,18.83s-12.55,3-17.27,2.54-7.31-4-9.39-9.49S255.59,413.21,259.53,410.15Zm86.41,3.32a1.19,1.19,0,1,1,1.19-1.19A1.19,1.19,0,0,1,345.94,413.47Zm-97.25-1.19a1.19,1.19,0,1,1,1.19,1.19A1.19,1.19,0,0,1,248.69,412.28Z" transform="translate(-246.52 -402.1)"/></svg>