<svg id="Layer_1" data-name="Layer 1" xmlns="http://www.w3.org/2000/svg" viewBox="0 0 60.83 59.66"><defs><style>.cls-1{fill:#1f1c1d;}</style></defs><title>h-88</title><path class="cls-1" d="M274.3,451s.39-7.77,0-10.39a19.52,19.52,0,0,1,0-5.15s-.29-7.87,1.07-9.23,5-2.23,5.05-5.25.39-4.37,3-4.08,6.61,7.58,10.69,7.29a13.85,13.85,0,0,0,10,4.66c6.22,0,9.81-.19,11.27-1.85,0,0,4,1.36,5.93.87,0,0-.1,5.63-.68,7.48s.68,8.16.68,8.16v6.22s1.36-11,2-12.14a39.51,39.51,0,0,0,2.72-7.77c.49-2.33,2-7.77,2.14-11.07s.49-9.23-6.31-15.15-7-5.73-10.59-8.06-6.41-4.52-11.85-3.33c0,0-5.63-2.07-7.58.19a16.1,16.1,0,0,1-4.08.9c-2.62.29-6.9,2.43-7.38,4.47a6.2,6.2,0,0,1-1.55,3s-6.51,1.07-7.29,5.34-1.65,3.79-2.62,5.93-1.94,8.53-1.36,9.12a3.26,3.26,0,0,1,1.17,3.22,18.24,18.24,0,0,0,1,7c.58,1.46,1.75,3.5,2.23,5.15A58.58,58.58,0,0,1,274.3,451Z" transform="translate(-267.42 -391.35)"/></svg>