<svg id="Layer_1" data-name="Layer 1" xmlns="http://www.w3.org/2000/svg" viewBox="0 0 97.57 31.77"><defs><style>.cls-1{fill:#1f1c1d;}</style></defs><title>h-117</title><path class="cls-1" d="M298.55,417.86c4,.15,5.14,4.09,5.14,4.09s2.32,7,6.3,11.19,9,3.67,14,3.67,8.93-1.77,12.72-6.54,7.46-15,7.82-16.08a13.79,13.79,0,0,1,2.38-3.06l.43-5.2-5.2-.67c-11.19-1-27.08,2.2-31.12,4.16s-9,4.16-9,4.16-2.32.42-3.48.48-3.48-.48-3.48-.48-5-2.2-9-4.16-19.93-5.2-31.12-4.16l-5.2.67.43,5.2a13.8,13.8,0,0,1,2.38,3.06c.37,1,4,11.31,7.82,16.08s7.7,6.54,12.72,6.54,10,.55,14-3.67,6.3-11.19,6.3-11.19S294.53,418,298.55,417.86ZM332.9,432c-5,4.71-14.24,3.36-18.22,2.14s-8-7.34-8.31-12.23,2.26-8.19,7.15-10.45,14.55-2.75,14.55-2.75c.55,0,11.49-1.28,12.47,4.22S337.91,427.27,332.9,432ZM256.55,412.9c1-5.5,11.92-4.22,12.47-4.22,0,0,9.66.49,14.55,2.75s7.46,5.56,7.15,10.45-4.34,11-8.31,12.23-13.2,2.57-18.22-2.14S255.57,418.4,256.55,412.9Zm86.56-2.75c-1.77.1-2.74-.07-2.81-.79-.14-1.48,3.16-.9,3.16-.9,1.73.35,1.73.84,1.73.84S345.66,410,343.11,410.15Zm-91.21-.86s0-.49,1.73-.84c0,0,3.3-.58,3.16.9-.07.73-1,.89-2.81.79C251.43,410,251.9,409.29,251.9,409.29Z" transform="translate(-249.76 -405.06)"/></svg>