<svg id="Layer_1" data-name="Layer 1" xmlns="http://www.w3.org/2000/svg" viewBox="0 0 76.97 150.03"><defs><style>.cls-1{fill:#1f1c1d;}</style></defs><title>h-19</title><path class="cls-1" d="M331.45,416.16c.19-.85.28-1.45.28-1.45S331.62,415.27,331.45,416.16Z" transform="translate(-259.99 -345.96)"/><path class="cls-1" d="M331.74,430.06c-2.07-2.61-.88-10.6-.28-13.89a18.89,18.89,0,0,1-1.34,4.06c-1.13,2.25-2.13,9.27-2.13,9.27s-.25,2.75-2.13,3.63-4,4.76-4,4.76l3.51,6.76-5.51-5.76a20.44,20.44,0,0,0-4.38-1.5c-2.38-.5-10.14-7.51-12.95-9.14s-5.09.88-5.09.88-.5-.88-3-1.38-6.64,5.76-9,6.51-7.89,3.51-10.14,6.64-7.87,4.51-7.87,4.51l5.11-3.88a30.82,30.82,0,0,0,0-6c-.38-1.63-4.38-3-5.51-6.76s-4.88-11-4.88-11,.88,5.76,1.5,8.39a7.8,7.8,0,0,1-.88,5.89c-.75,1.38-3.13,6.76-1.63,11s.63,8.89,1,14.28,5.13,11.27,5.13,14.4,6.39,11.27,9.64,12.65,8,5.51,11,7.64a42.24,42.24,0,0,0,8.39,4c6.64-1.38,11.65-7,18.41-10.64s14.53-10.77,14.65-12.9,2.13-3,4.51-6,2.63-13,3.05-18.41S334.37,433.38,331.74,430.06Zm-21.29,14.59-2.13-.75s-5.11,1.5-5.81,1.5S298,445,298,445l-2.93.92-6.26-.8-3.63-.38a69.73,69.73,0,0,0-7.86,7l-1.53,2a13.42,13.42,0,0,1,1.53-2l5.86-7.65,4-2.25c1.13-.63,4.88-3.63,6-3.51s4.49,1,4.81,0,4.53,1,4.53,1l4.81.75,3.26,1.75s6.51,6.76,6.64,7.14,1.75,4,1.75,4Z" transform="translate(-259.99 -345.96)"/><path class="cls-1" d="M334.88,387l-1.93-9.4-4.25-1.91-6.77,3.81s3.09,3.44,5.8,5.91,1,8,.72,11.6,4.69,14.16,4.69,15.06.39-6.12.39-6.12,1.16-9.28,1.35-11S334.88,387,334.88,387Z" transform="translate(-259.99 -345.96)"/><path class="cls-1" d="M328.89,369.46c2.32-5.22-2.9-13.53-7.15-16.56S309,348.8,309,348.8c2.71,1.19,5.65,6.18,6.19,7,1.24,1.91-8.51-9-16.24-9.73s-20.1,2.74-20.1,2.74a13,13,0,0,0-11.21,4.09,19.73,19.73,0,0,0-5.41,5c-1.74,2.73,0,7.51,0,7.51l-2.13,2.51c-.19,6.77,8.89,7.83,8.89,7.83h-6.19c-1.68,1.37-2.51,4.73-2.71,9.43s0,12.16,0,12.16l1.36,15.81,1.16-8.5s3.09-4.83,1.74-9.28,2.13-10.19,2.13-10.19,6.19-6.63,7-6.49,31.51.06,37.31.44,10.44-1.54,11-1.54S326.57,374.68,328.89,369.46ZM302.6,372c-.19-8.7-12.37-17.54-12.37-17.54s3.29-.74,8.51,4.4S302.6,372,302.6,372Zm20.73,1.74-.24-2.71c1.55-4.64-5-15.2-5-15.2C327.54,363.79,323.33,373.71,323.33,373.71Z" transform="translate(-259.99 -345.96)"/></svg>