<svg id="Layer_1" data-name="Layer 1" xmlns="http://www.w3.org/2000/svg" viewBox="0 0 97.75 37.55"><defs><style>.cls-1{fill:#1f1c1d;}</style></defs><title>h-122</title><path class="cls-1" d="M298.55,418.67a3.73,3.73,0,0,1,3.16,1.89,137.85,137.85,0,0,0,6.57,14.84c2.73,4.95,9.57,4.75,9.57,4.75h13.93c8-.33,9.24-4.82,9.24-4.82s2-5.4,2.67-7.87a9.53,9.53,0,0,1,3.25-4.3,17.9,17.9,0,0,0,.32-6.64,1.13,1.13,0,0,0-.75-.92,3.72,3.72,0,0,1-2-2.14s-1-5.86-1.63-7.94-2.8-2.28-16.07-2.86a76.66,76.66,0,0,0-23.95,2.8c1.11,4.3.59,6.31-1,7.81a6,6,0,0,1-6.57,0c-1.56-1.5-2.08-3.51-1-7.81a76.66,76.66,0,0,0-23.95-2.8c-13.28.59-15.42.78-16.07,2.86s-1.63,7.94-1.63,7.94a3.72,3.72,0,0,1-2,2.14,1.13,1.13,0,0,0-.75.92,17.89,17.89,0,0,0,.32,6.64,9.53,9.53,0,0,1,3.25,4.3c.72,2.47,2.67,7.87,2.67,7.87s1.24,4.49,9.24,4.82h13.93s6.83.2,9.57-4.75a137.85,137.85,0,0,0,6.57-14.84A3.73,3.73,0,0,1,298.55,418.67Zm39.53,13.67c-2.86,5.53-10.74,5.79-14.9,5.73s-11.26.85-14.32-6.7-3.71-15.23-3.32-18.42,4.3-5.08,4.3-5.08c8.85-3.45,19-2.86,25-1.56s5.6,5.4,5.6,5.4S340.94,426.81,338.08,432.34Zm-81.41-20.63s-.39-4.1,5.6-5.4,16.14-1.89,25,1.56c0,0,3.9,1.89,4.3,5.08s-.2,10.73-3.32,18.42-10.15,6.64-14.32,6.7-12-.2-14.9-5.73S256.67,411.71,256.67,411.71Z" transform="translate(-249.67 -402.6)"/></svg>