<svg id="Layer_1" data-name="Layer 1" xmlns="http://www.w3.org/2000/svg" viewBox="0 0 53.95 57.44"><defs><style>.cls-1{fill:#1f1c1d;}</style></defs><title>h-57</title><path class="cls-1" d="M321.11,393.06c.14-.6.2-1,.2-1S321.22,392.43,321.11,393.06Z" transform="translate(-271.05 -392.04)"/><path class="cls-1" d="M321.31,402.88c-1.46-1.84-.62-7.49-.2-9.82a13.35,13.35,0,0,1-1,2.87c-.8,1.59-1.5,6.55-1.5,6.55s-.18,1.95-1.5,2.57-2.83,3.36-2.83,3.36l2.48,4.78-3.89-4.07a14.44,14.44,0,0,0-3.1-1.06c-1.68-.35-7.17-5.31-9.15-6.46a3,3,0,0,0-3.59.62s-.35-.62-2.12-1-4.69,4.07-6.37,4.6-5.58,2.48-7.17,4.69-5.56,3.19-5.56,3.19l3.61-2.74a21.78,21.78,0,0,0,0-4.25c-.27-1.15-3.1-2.12-3.89-4.78a65.59,65.59,0,0,0-3.45-7.79s.62,4.07,1.06,5.93a5.51,5.51,0,0,1-.62,4.16c-.53,1-2.21,4.78-1.15,7.79s.44,6.28.71,10.09,3.63,8,3.63,10.18,4.51,8,6.81,8.94,5.66,3.89,7.79,5.4a29.86,29.86,0,0,0,5.93,2.83c4.69-1,8.23-5,13-7.52s10.27-7.61,10.35-9.12,1.5-2.12,3.19-4.25,1.86-9.2,2.16-13S323.16,405.23,321.31,402.88Zm-15,10.31-1.5-.53s-3.61,1.06-4.11,1.06-3.2-.27-3.2-.27l-2.07.65-4.42-.56-2.57-.27a49.27,49.27,0,0,0-5.56,5l-1.08,1.41a9.48,9.48,0,0,1,1.08-1.41l4.14-5.4,2.83-1.59c.8-.44,3.45-2.57,4.25-2.48s3.17.7,3.4,0,3.2.71,3.2.71l3.4.53,2.3,1.24s4.6,4.78,4.69,5,1.24,2.83,1.24,2.83Z" transform="translate(-271.05 -392.04)"/></svg>