<svg id="Layer_1" data-name="Layer 1" xmlns="http://www.w3.org/2000/svg" viewBox="0 0 51.3 45.96"><defs><style>.cls-1{fill:#1f1c1d;}</style></defs><title>h-62</title><path class="cls-1" d="M323.22,426.64l-1.32-6.43L319,418.9l-4.63,2.61s2.12,2.35,4,4,.66,5.45.49,7.93,3.21,9.69,3.21,10.3.26-4.19.26-4.19.79-6.35.93-7.54S323.22,426.64,323.22,426.64Z" transform="translate(-271.98 -398.53)"/><path class="cls-1" d="M319.13,414.61c1.59-3.57-2-9.26-4.89-11.33s-8.73-2.8-8.73-2.8c1.85.81,3.87,4.23,4.23,4.79.85,1.31-5.82-6.13-11.11-6.66s-13.75,1.87-13.75,1.87a8.91,8.91,0,0,0-7.67,2.8,13.5,13.5,0,0,0-3.7,3.41c-1.19,1.87,0,5.14,0,5.14L272,413.55c-.13,4.63,6.08,5.36,6.08,5.36H273.9c-1.15.94-1.72,3.24-1.85,6.45s0,8.32,0,8.32l.93,10.82.79-5.82s2.12-3.31,1.19-6.35,1.45-7,1.45-7,4.23-4.54,4.76-4.44,21.56,0,25.52.3a22.72,22.72,0,0,0,7.54-1.06C314.63,420.16,317.54,418.18,319.13,414.61Zm-18,1.72c-.13-6-8.46-12-8.46-12s2.25-.5,5.82,3S301.14,416.32,301.14,416.32Zm14.18,1.19-.16-1.85c1.06-3.17-3.44-10.4-3.44-10.4A10.83,10.83,0,0,1,315.32,417.51Z" transform="translate(-271.98 -398.53)"/></svg>