<svg id="Layer_1" data-name="Layer 1" xmlns="http://www.w3.org/2000/svg" viewBox="0 0 113.4 29.33"><defs><style>.cls-1{fill:#1f1c1d;}</style></defs><title>h-118</title><path class="cls-1" d="M298.55,413.53a25.42,25.42,0,0,1,3.73.29c2.35.26,2.61,1.64,2.61,1.64s1.72,5.67,4.1,11.34,5.07,6.71,5.07,6.71c7.31,3.36,22.38,1.64,26.19,1.12s7.09-1.12,9-4.33,2.61-13.5,2.91-15.37,3.06-1.57,3.06-1.57V409.2c-.07-.9-4.1-1.34-16.49-2.69s-32.45,2.24-32.45,2.24a43.61,43.61,0,0,1-15.52,0s-20.07-3.58-32.45-2.24-16.41,1.79-16.49,2.69v4.18s2.69-.3,3.06,1.57,1,12.16,2.91,15.37,5.22,3.8,9,4.33,18.87,2.24,26.19-1.12c0,0,2.69-1,5.07-6.71s4.1-11.34,4.1-11.34.26-1.38,2.61-1.64A25.43,25.43,0,0,1,298.55,413.53Zm49.84,15.81c-.82,3.13-6.15,4.07-9.7,4.51s-12.61.93-17.49.26-6.23-.45-9.21-4-5.74-14.18-6-15.29a4.42,4.42,0,0,1,2.76-4.55c2.46-1.12,12.53-2.09,12.53-2.09a90.22,90.22,0,0,1,22,.41c4.48.75,6.57,1.94,6.83,5.3S349.21,426.21,348.39,429.34ZM246.92,413.94c.26-3.36,2.35-4.55,6.83-5.3a90.22,90.22,0,0,1,22-.41s10.07,1,12.53,2.09a4.42,4.42,0,0,1,2.76,4.55c-.22,1.12-3,11.79-6,15.29s-4.33,3.28-9.21,4-14,.19-17.49-.26-8.88-1.38-9.7-4.51S246.66,417.29,246.92,413.94Z" transform="translate(-241.85 -406.21)"/></svg>