<svg id="Layer_1" data-name="Layer 1" xmlns="http://www.w3.org/2000/svg" viewBox="0 0 78.33 144.3"><defs><style>.cls-1{fill:#1f1c1d;}</style></defs><title>h-15</title><path class="cls-1" d="M268.69,383.89a8.07,8.07,0,0,1,.18,7.76c-2.21,3.94-5.14,7.64-4.91,11.21s1.12,10.88,1.12,10.88a52.68,52.68,0,0,1-3.66-8.89c-.8-3.37-3.43-11.07-1.24-15.73a29.85,29.85,0,0,0,2.5-9.58l1.51-4.18,0-2,5.12-8.12,2.25-1.59,1.49-3.75,1.18,1.45,1.83-1.52s5-5.87,10.88-8l0,1.72s7.85-2.49,12.71-3.9,1.15,0,1.15,0l3.79,2.07,2.18.81,2.86-.79,4,3.07,4.35,1.65,1.62,1.51,2.33,1.1,3.86,4.87,2.31.4s5.83,15.44,6.42,15.86,3.45,6,3.17,12.3-2.43,12.65-2.27,13.47S332,414,332,415.6l-.29-12.31c-.09-3.94-4.27-16.21-4.27-16.21s-3.46-6.36-9.32-4.73-18.48,3-18.48,3-16.5-4.41-21.49-2.71A24.59,24.59,0,0,1,268.69,383.89Z" transform="translate(-259.33 -349.01)"/><path class="cls-1" d="M265.47,466c-.19.67-.33,1.13-.33,1.13A2.43,2.43,0,0,0,265.47,466Z" transform="translate(-259.33 -349.01)"/><path class="cls-1" d="M333.06,466c.19.67.33,1.13.33,1.13A2.43,2.43,0,0,1,333.06,466Z" transform="translate(-259.33 -349.01)"/><path class="cls-1" d="M299.26,440.64c-1.33-1.64-3.66-3.76-6-3-3.53,1.14-8.53,6.14-10.69,6.71s-10.46,3.87-13-5.57-5.23-23.09-5.23-23.09-.11,4.09-.68,5.46-1.93,6.94-1.37,8.42,1.37,3.07.57,4.55.34,5.23.34,5.23-.57,9,.57,11l.57-2s.68,5.46.91,8.08a62.24,62.24,0,0,1,.22,9.56,23.35,23.35,0,0,0,.81-3.87s.57,7.51,3.07,10v-2.84s3.07,7.51,7.62,11.26l-.57-2.28s5.12,4.89,8.08,6.6l-.34-2,10.92,7.85-.8-2.16,5,4.81,5-4.81-.8,2.16,10.92-7.85-.34,2c3-1.71,8.08-6.6,8.08-6.6l-.57,2.28c4.55-3.75,7.62-11.26,7.62-11.26v2.84c2.5-2.5,3.07-10,3.07-10a23.36,23.36,0,0,0,.81,3.87,62.24,62.24,0,0,1,.22-9.56c.23-2.62.91-8.08.91-8.08l.57,2c1.14-2,.57-11,.57-11s1.14-3.75.34-5.23,0-3.07.57-4.55-.8-7.05-1.37-8.42-.68-5.46-.68-5.46-2.73,13.65-5.23,23.09-10.81,6.14-13,5.57-7.17-5.57-10.69-6.71C302.92,436.88,300.59,439,299.26,440.64Zm0,21.32-.8-.43-1.25,1.93-2.39-2.39h-3.41v-1.71l-2.62-.91V457.1L284,455.85a21.55,21.55,0,0,0,7.39-7.62l.8.91,2.27-1.82,1,1.37,1.82-1.37,1.25.8.68-.64.68.64,1.25-.8,1.82,1.37,1-1.37,2.27,1.82.8-.91a33.3,33.3,0,0,0,7.39,7.62l-4.78,1.25v1.37l-2.62.91v1.71H303.7l-2.39,2.39-1.25-1.93Z" transform="translate(-259.33 -349.01)"/></svg>