<svg id="Layer_1" data-name="Layer 1" xmlns="http://www.w3.org/2000/svg" viewBox="0 0 100.66 33.8"><defs><style>.cls-1{fill:#1f1c1d;}</style></defs><title>h-137</title><path class="cls-1" d="M298.55,408.81a30.8,30.8,0,0,0,4-.18,3.38,3.38,0,0,0,1.52-.4l.72,1.76-1.32,1.08c-.16,1.8.64,11.73,6.27,18.28s16.72,9.86,26,4.23,9.78-17.2,10.14-18.64c.25-1,1.66-1.51,2.48-1.71a.78.78,0,0,0,.59-.76v-3.88a.83.83,0,0,0-.71-.82l-.61-.09c-4.51-.48-10.46-4-22.67-4.95a25,25,0,0,0-19.32,6.71,15.12,15.12,0,0,0-.6-2,1.44,1.44,0,0,0-1-.6H293.08a1.45,1.45,0,0,0-1,.6,15.19,15.19,0,0,0-.6,2,25,25,0,0,0-19.32-6.71c-12.21.92-18.16,4.47-22.67,4.95l-.61.09a.83.83,0,0,0-.71.82v3.88a.78.78,0,0,0,.59.76c.82.21,2.23.7,2.48,1.71.36,1.44.88,13,10.14,18.64s20.35,2.31,26-4.23,6.43-16.48,6.27-18.28L292.36,410l.72-1.76a3.38,3.38,0,0,0,1.52.4A30.8,30.8,0,0,0,298.55,408.81ZM340.61,425c-3.13,6.57-12.53,12.25-22.15,8.06s-12.13-14.61-10.74-19.44,5.18-8.24,15.45-8.38c11.49-.16,17.32,4.75,17.32,4.75C344,412.51,343.37,419.21,340.61,425Zm-84-15s5.83-4.91,17.32-4.75c10.26.14,14,3.55,15.45,8.38s-1.12,15.25-10.74,19.44-19-1.49-22.15-8.06C253.73,419.21,253.13,412.51,256.6,410Z" transform="translate(-248.22 -402.65)"/></svg>