<svg id="Layer_1" data-name="Layer 1" xmlns="http://www.w3.org/2000/svg" viewBox="0 0 100.13 39.86"><defs><style>.cls-1{fill:#1f1c1d;}</style></defs><title>h-135</title><path class="cls-1" d="M298.36,413.17c.57,0,1.22,0,1.92.06a2.9,2.9,0,0,1,2.55,2.34,112.68,112.68,0,0,0,3.1,12.84c2.13,7,8.57,12.51,17.73,13s14.81-1.84,19.15-8.24,2.51-19.45,2.51-19.91,1-1.17,1.67-1.38a2.12,2.12,0,0,0,1-1s.33-3.43.42-4.1-.92-1.17-.92-1.17c-9.41-3.05-20.49-4.89-28.73-3.55a25.38,25.38,0,0,0-13.4,7.24.48.48,0,0,1-.52.12,15.22,15.22,0,0,0-3.39-.58l-3.1,0-3.09,0a15.22,15.22,0,0,0-3.39.58.48.48,0,0,1-.52-.12,25.38,25.38,0,0,0-13.4-7.24c-8.24-1.34-19.32.5-28.73,3.55,0,0-1,.5-.92,1.17s.42,4.1.42,4.1a2.12,2.12,0,0,0,1,1c.63.21,1.67.92,1.67,1.38s-1.84,13.51,2.51,19.91,10,8.74,19.15,8.24,15.6-6,17.73-13a112.65,112.65,0,0,0,3.09-12.84,2.9,2.9,0,0,1,2.55-2.34C297.14,413.19,297.8,413.17,298.36,413.17Zm43.54,16c-3.14,9-12.13,11-22,9.41s-13.07-11.9-13.76-20.45a12.5,12.5,0,0,1,5.31-11.46c1.21-.84,8-5.06,19.91-2.68C344.2,406.6,345,420.17,341.9,429.2ZM265.41,404c11.92-2.38,18.69,1.84,19.91,2.68a12.5,12.5,0,0,1,5.31,11.46c-.69,8.55-3.85,18.86-13.76,20.45s-18.9-.38-22-9.41S252.53,406.6,265.41,404Z" transform="translate(-248.3 -401.62)"/></svg>