<svg id="Layer_1" data-name="Layer 1" xmlns="http://www.w3.org/2000/svg" viewBox="0 0 67.68 55.63"><defs><style>.cls-1{fill:#1f1c1d;}</style></defs><title>h-69</title><path class="cls-1" d="M266,424.13c-.21.34-1.31,7.64-1.29,8.2s.83,4.78,1.17,8.34a65.13,65.13,0,0,0,1.5,8.11c0-.33,1-12.77,1-12.77a11.35,11.35,0,0,0,1.34-6.82,4.31,4.31,0,0,1,2.41-4.82l-4.78-2.63S266.26,423.79,266,424.13Z" transform="translate(-264.76 -393.15)"/><path class="cls-1" d="M331.64,414.66c-3.92.19-9-5.5-9-5.5l6.5,2.13-5.54-3.39-2.46-3.38,2.36.26-2.85-1.58,2-.74-6.57-2.8,5,.39c-4.19-1.76-12.7-2-12.7-2a10.05,10.05,0,0,1,8.71-.29,14.35,14.35,0,0,0-10.86-.75l6.5-2.68c-3.37-.56-10.46,1.36-10.46,1.36l7.85-2.5-14.33,2.49-6.36.44,4.61-2.39-12.19,3.2c-14,6-14.79,12.23-13.86,18.3s5.23,7.8,5.23,7.8l1.37,1,3.34-.22c3.43-1.12,9,.59,9.86.79s5.79,2.6,5.79,2.6l6.86-2s7.48-.25,9.39-.09,4,2.88,5.21,5.3a46.68,46.68,0,0,1,2.37,7.41l1.32,9.34s.58-5.94.68-6.28.65-3.82.73-4.83a24.5,24.5,0,0,0,.14-5.7,19.42,19.42,0,0,0-2.21-5.85l2.58.25c7.84.63,5.19,11.45,5.19,11.45A15.42,15.42,0,0,0,324.34,423c6.26,3.25,1.93,14.35,1.93,14.35,5-11.23-1.49-17.94-1.49-17.94,4.65,2.08,4.81,7.66,4.81,7.66a12,12,0,0,0-2.75-9.52c2.73,1.36,4.32,5.44,4.32,5.44.1-3.69-6-9.3-6-9.3A10.86,10.86,0,0,0,331.64,414.66Zm-57.31,5.51s-1.66-6.31-.31-9.38,2.68-6.68,6.74-8.83C280.76,402,273,409.15,274.33,420.17Zm9.07-7.79-.94,8.64s-1.36-7.33-.32-9.49a20.86,20.86,0,0,1,11.7-10.9S284.79,406.72,283.4,412.38Zm8.69,8.52-.16,1.81c0-.62.09-1.22.16-1.81.22-2.43.6-6.47.67-6.71s4.09-8.07,4.09-8.07a23.93,23.93,0,0,1,7.55-4.95L297.05,409A24.71,24.71,0,0,0,292.09,420.89Zm10.28.12,1.11-3.67-5,4.58a35.92,35.92,0,0,1,10-9.16C307.11,415.6,302.37,421,302.37,421Z" transform="translate(-264.76 -393.15)"/><path class="cls-1" d="M331.64,414.66a3.52,3.52,0,0,0,.8-.13S332.14,414.6,331.64,414.66Z" transform="translate(-264.76 -393.15)"/></svg>