<svg id="Layer_1" data-name="Layer 1" xmlns="http://www.w3.org/2000/svg" viewBox="0 0 81.29 145.34"><defs><style>.cls-1{fill:#1f1c1d;}</style></defs><title>h-9</title><path class="cls-1" d="M336.79,374.42A16.72,16.72,0,0,0,324,355c-8.92-2.24-23.36-.16-32.21-6.83,0,0-.2,3.44,4.81,6.1,0,0-8.49-3.75-12.71-2.27s-4.15,2.25-4.15,2.25,2.65-1.64,7-.17c0,0-6.61.94-10.88,5.28,0,0,15.54-.26,19.14,17.16,0,0-5.83-18-26.24-14.74l-4.36,1.64s-1.71,3.42.38,4.17a8.67,8.67,0,0,0,3.33.63s-8.7,3.59-10.2,7.62a6.68,6.68,0,0,0,1.4,6.88l-.93,5.69s1.57,8.26,2.62,9.57,4.08,7.26,3.76,10.55,1.32,9.37,1.32,9.37l1.69,8.41s-.5-9,.94-11.91,1-8.18.23-11.23,1.2-14.27,1.59-15.08,3.06-5.72,7.16-5.16c0,0,.34-4.79-1.66-8,0,0,3.85,3,3.79,7.49l9.79-.11s12.44,1.13,15.33,2.43c0,0-.62-5.31-.87-9.65s1.36-8.84-5.45-13.67c0,0,11.34,3.26,9,12.22s-2.72,11.1-2.72,11.1a22,22,0,0,0,7.39-.86c2.22.4,6.88,1.16,8.94.86C321.23,384.7,335.3,383.74,336.79,374.42Zm-20,5.7a16.78,16.78,0,0,0-1.6.87c1.85-3.08,4.77-8,1.41-15l-4.84-7s10.24,3.43,10.47,9.32S318.23,379.49,316.77,380.13Z" transform="translate(-257.43 -348.15)"/><path class="cls-1" d="M335.6,385.11c-4-2.6-7.58.69-7.58.69,3.38,1.63,2.75,6.29,3.84,8.06s1.53,8.27,1.87,12,1.45,14.28,1.45,14.28l.39-6.88s1.41-5.89,1.23-6.12.06-8.16.06-8.16l1.77-4.36S339.55,387.71,335.6,385.11Z" transform="translate(-257.43 -348.15)"/><path class="cls-1" d="M301.13,493.49a18,18,0,0,1,4.63-2.67l2.74-2.36,1.32-2.55v2l3.88-4.73,2.18-4,.66,1.32,3.4-5.86.28,1.8a35.07,35.07,0,0,0,4.92-7c1.7-3.5,1.7-4.16,1.7-4.16l.09,1.51s2.93-3.22,3.59-5.58,2.27-6.53,2.27-6.53l.38,2.36c1.51-2.74,2.18-10.19,2.18-10.19l-.47-4.66.85,1.42s.47-5.86.28-6.15,1-5.86,0-8.61,0-11.16,0-11.16-1.23,4.07-1.23,4.35-2.36,7.76-2.36,7.76l-1.32,4.82s-2.27,3.4-3.4,5.39-2.65,6.62-3.88,6.81-3.31-.95-3.31-.95-3.22-.95-4.35-.66-5-1.32-7.76-2.65-7.28,1-7.28,1-4.54-2.36-7.28-1-6.62,2.93-7.76,2.65-4.35.66-4.35.66-2.08,1.13-3.31.95-2.74-4.82-3.88-6.81-3.4-5.39-3.4-5.39l-1.32-4.82s-2.36-7.47-2.36-7.76-1.23-4.35-1.23-4.35,1,8.42,0,11.16.19,8.32,0,8.61.28,6.15.28,6.15l.85-1.42-.47,4.66s.66,7.45,2.18,10.19l.38-2.36s1.61,4.16,2.27,6.53,3.59,5.58,3.59,5.58l.09-1.51s0,.66,1.7,4.16a35.07,35.07,0,0,0,4.92,7l.28-1.8,3.4,5.86.66-1.32,2.18,4,3.88,4.73v-2l1.32,2.55,2.74,2.36A18,18,0,0,1,301.13,493.49Zm0-44a7.45,7.45,0,0,0,6.62,3.36s2.93-.85,3.4,0,3.22-.28,4.45,1c1.07,1.15,4,1.56,4.73,1.65l.18,0-.18,0c-.94-.1-5.31-.48-7.67.53-2.65,1.13-6.43,3.88-7.76,4.07-.76.11-2.47.28-3.78.41-1.31-.13-3-.3-3.78-.41-1.32-.19-5.11-2.93-7.76-4.07-2.35-1-6.72-.63-7.67-.53l-.18,0,.18,0c.76-.09,3.67-.5,4.73-1.65,1.23-1.32,4-.19,4.45-1s3.4,0,3.4,0A7.45,7.45,0,0,0,301.13,449.54Z" transform="translate(-257.43 -348.15)"/></svg>