<svg id="Layer_1" data-name="Layer 1" xmlns="http://www.w3.org/2000/svg" viewBox="0 0 112.77 39.11"><defs><style>.cls-1{fill:#1f1c1d;}</style></defs><title>h-129</title><path class="cls-1" d="M297.91,415.08c5.45,0,6.59,4,6.59,4,3.89,9.72,7.56,22.25,25.39,22.14s21.17-21.5,21.6-23.33a10.17,10.17,0,0,1,2.48-3.77,1.19,1.19,0,0,0,.33-.82v-7.23a1.18,1.18,0,0,0-1-1.17c-3-.42-12.18-1.67-20.26-2.56-9.83-1.08-20.74,2.05-23.55,3.56a14.61,14.61,0,0,1-4.86,1.73s-4.46.18-6.7.3c-2.24-.11-6.7-.3-6.7-.3a14.61,14.61,0,0,1-4.86-1.73c-2.81-1.51-13.72-4.64-23.55-3.56-8.07.89-17.24,2.14-20.26,2.56a1.18,1.18,0,0,0-1,1.17v7.23a1.18,1.18,0,0,0,.33.82,10.17,10.17,0,0,1,2.48,3.77c.43,1.84,3.78,23.22,21.6,23.33s21.5-12.42,25.39-22.14C291.33,419.08,292.47,415,297.91,415.08ZM327.84,438c-13.61.65-22.68-16.31-18.36-24.74s17.93-8,17.93-8,19.44-.76,19.55,10.48S341.45,437.34,327.84,438Zm-79-22.25c.11-11.23,19.55-10.48,19.55-10.48s13.61-.43,17.93,8S281.6,438.63,268,438,248.77,427,248.87,415.73Zm98.84-8.1a1,1,0,1,1,1,1A1,1,0,0,1,347.71,407.63Zm-100.62,1a1,1,0,1,1,1-1A1,1,0,0,1,247.09,408.66Zm103.39,3.2a1,1,0,1,1,1-1A1,1,0,0,1,350.49,411.86Zm-106.17-1a1,1,0,1,1,1,1A1,1,0,0,1,244.32,410.84Zm107.57-2.18a1,1,0,1,1,1-1A1,1,0,0,1,351.89,408.66Zm-109-1a1,1,0,1,1,1,1A1,1,0,0,1,242.91,407.63Z" transform="translate(-241.53 -402.12)"/></svg>