<svg id="Layer_1" data-name="Layer 1" xmlns="http://www.w3.org/2000/svg" viewBox="0 0 40.31 21.7"><defs><style>.cls-1{fill:#1f1c1d;}</style></defs><title>h-143</title><path class="cls-1" d="M297.68,418a4.91,4.91,0,0,0-3.17.62,21.21,21.21,0,0,0-7.17-5.67c-4-1.67-6.5-2.83-6.5-2.83s-1.17,4-2.17,7.83-2,12.5,0,13.83c0,0,9.17.5,12.5-2.17s3.33-3.83,3.33-3.83a3.54,3.54,0,0,0,2.5,1.5,14.53,14.53,0,0,1,1.33,0,3.54,3.54,0,0,0,2.5-1.5s0,1.17,3.33,3.83,12.5,2.17,12.5,2.17c2-1.33,1-10,0-13.83s-2.17-7.83-2.17-7.83-2.5,1.17-6.5,2.83a21.21,21.21,0,0,0-7.17,5.67A4.91,4.91,0,0,0,297.68,418Z" transform="translate(-277.52 -410.07)"/></svg>