<svg id="Layer_1" data-name="Layer 1" xmlns="http://www.w3.org/2000/svg" viewBox="0 0 98.88 148.52"><defs><style>.cls-1{fill:#1f1c1d;}</style></defs><title>h-14</title><path class="cls-1" d="M343.48,398.15c5-1.57,2.05-7.73,2.05-7.73,1.09-2.54-3.86-12.07-3.86-12.07s-2.78,3.26-.61,0-2.17-10.5-2.17-10.5c1.21,4.71-3.14,3.74-3.14,3.74l-3.26-3.38a4.15,4.15,0,0,1-2.29-3.86c-.12-3-4.83-5.67-10.14-8.94s-8.57-.85-8.57-.85c-.36-2.78-5.67-4.83-5.67-4.83a41.25,41.25,0,0,0-6.64-2.75c-2.41-.58-7.24,1.18-7.24,1.18s-1.93-2.66-14.25,0-13.16,11.47-13.16,11.47-1.21.72-4.71,6.16,1.33,11.11,1.33,11.11c.63.87-2.17,1.45-2.17,1.45a13,13,0,0,0-7.12.6c-3.62,1.45-4.47,6.4-3.62,11.71S254.5,398,254.5,398a13.79,13.79,0,0,1-4.59-2.17c-1,4.59,3.68,14.79,7.3,19.38s8.51,15.64,8.51,15.64l-1-8.81.85-7.61a25.55,25.55,0,0,0,0-11.47c-1.45-6.28,3.5-12,3.5-12a9.77,9.77,0,0,1-9.18-8.21s4.71,8.21,12.8,4.23,9.66,1.09,9.66,1.09l7.24-.48c8.57,4.23,17.63,1,22.58-.72s9.9-8.69,9.9-8.69c1.47,9.82-11.62,10.14-13.34,10.14.93,0,5.36.51,10.92,6.4,6.28,6.64,21,3.38,21,3.38-3.38,5.07-14.25,2.05-14.25,2.05l1.09,12.07s1.33,3.62.72,4.83.48,13.76.48,13.76c1.09-5.55,7.73-9.42,7.73-9.42s3.5-2.17,1.45-5,3.74-6.28,3.74-6.28a74.34,74.34,0,0,0,4.71-6.88C348.19,400.21,343.48,398.15,343.48,398.15Zm-79.57-29.46c-.46-3.37,4.17-8.8,6.47-11.26a13.23,13.23,0,0,1,1.26-1.3s-.51.49-1.26,1.3c-3.35,4-2.39,8.15-2.61,12.83-.24,5.19,5.67,12.07,5.67,12.07C264.52,376.54,264.52,373.16,263.91,368.69Zm34.41,2.54c-6,1.81-5.55,11.11-5.55,11.11s-5.07-7.49-3.86-11.35,5.43-4.59,12.32-3.38,10.26-2.9,10.26-2.9C311.12,367.85,304.36,369.42,298.33,371.23Z" transform="translate(-247.92 -346.87)"/><path class="cls-1" d="M298.42,495.39l1.69-.84s2.79-.11,3.08,0a17.53,17.53,0,0,0,3.78-.6c.4-.2,3.18-.5,3.78-.7s1.89-2.49,1.89-2.49l2.09-.5s2.49-1.39,3.38-2,3.48-2.19,3.48-2.19c1.19-1.79,2.89-3,3.38-5.87s2.49-2.09,2.49-2.39,1.59-2,1.69-2.69a8.39,8.39,0,0,0,.6-5.17c-.6-3.18.4-3.38.6-3.68s2.13-2.19,2.13-2.19-.64-1.09-1.24-2,0-2.19.1-2.59,1.09-3.48,1.09-4,.1-4.68,0-6-1.69-2.79-1.29-5.67.65-5.37.65-5.37,0-5-.25-5.47.7-5.27,0-6.27-.4-6.27-.4-6.27a25.17,25.17,0,0,0-.78,7.06c.31,2.79-.21,4.78,0,5.47s-1.89,4.78-1.89,5.47a15.55,15.55,0,0,1-1,4c-.4.8-.7,4.18-1,5.34s-2.89,1.82-2.89,1.82-1.39-.2-1.69-.3-1.69,1.19-1.69,1.19a11.36,11.36,0,0,0,0,1.89c.1.5-1.19,2.29-1.19,2.29l-2.09-1.49s-3.38-2.59-3.78-2.39a3.62,3.62,0,0,1-1.49,0s-2.49-1.59-3.18-2.17-3-.22-4.38-.62a5.77,5.77,0,0,0-3.28,0c-.2.13-1.54,1-2.39,1.47-.85-.51-2.19-1.33-2.39-1.47a5.77,5.77,0,0,0-3.28,0c-1.39.4-3.68,0-4.38.62s-3.18,2.17-3.18,2.17a3.62,3.62,0,0,1-1.49,0c-.4-.2-3.78,2.39-3.78,2.39l-2.09,1.49s-1.29-1.79-1.19-2.29a11.36,11.36,0,0,0,0-1.89s-1.39-1.29-1.69-1.19-1.69.3-1.69.3-2.59-.66-2.89-1.82-.6-4.55-1-5.34a15.55,15.55,0,0,1-1-4c0-.7-2.09-4.78-1.89-5.47s-.33-2.69,0-5.47a25.16,25.16,0,0,0-.78-7.06s.3,5.27-.4,6.27.3,5.77,0,6.27-.25,5.47-.25,5.47.25,2.49.65,5.37-1.19,4.38-1.29,5.67,0,5.47,0,6,1,3.58,1.09,4,.7,1.69.1,2.59-1.24,2-1.24,2,1.93,1.89,2.13,2.19,1.19.5.6,3.68a8.39,8.39,0,0,0,.6,5.17c.1.7,1.69,2.39,1.69,2.69s2-.5,2.49,2.39,2.19,4.08,3.38,5.87c0,0,2.59,1.59,3.48,2.19s3.38,2,3.38,2l2.09.5s1.29,2.29,1.89,2.49,3.38.5,3.78.7a17.53,17.53,0,0,0,3.78.6c.3-.1,3.08,0,3.08,0Zm2.79-38.86,2,.9,1.89.52,1.69,1.27H301.7l-1.59.6h-1.29l-.4.16-.4-.16h-1.29l-1.59-.6h-5.07l1.69-1.27,1.89-.52,2-.9Z" transform="translate(-247.92 -346.87)"/></svg>