<svg id="Layer_1" data-name="Layer 1" xmlns="http://www.w3.org/2000/svg" viewBox="0 0 108.87 38.39"><defs><style>.cls-1{fill:#1f1c1d;}</style></defs><title>h-98</title><path class="cls-1" d="M298.55,410.3a3.64,3.64,0,0,1,.78.09l6.36,1.4a.75.75,0,0,1,.59.72l0,3.12a.75.75,0,0,0,.16.45c.23.3,0,.86,0,.86-1.21.12-.69,4.73-.69,4.73.23,4.56.86,4.09.86,4.09a21.19,21.19,0,0,0,20.74,15.48c11.65.07,16.68-6.6,19.44-11.39s2.31-12.51,2.31-12.51h2.77a.93.93,0,0,0,1-1v-1.85c-.86-1.27-5.25-1.56-5.25-1.56-8.25-13.15-25.74-10.46-31.92-7.38a17.88,17.88,0,0,0-8.3,8.13s0-1.08,0-1.67a1.45,1.45,0,0,0-.69-1c-1-.69-7.23-2.38-7.23-2.38a3.92,3.92,0,0,0-2.08,0s-6.27,1.69-7.23,2.38a1.45,1.45,0,0,0-.69,1c0,.6,0,1.67,0,1.67a17.88,17.88,0,0,0-8.3-8.13c-6.19-3.08-23.68-5.77-31.92,7.38,0,0-4.38.29-5.25,1.56v1.85a.93.93,0,0,0,1,1h2.77s-.46,7.73,2.31,12.51,7.52,11.53,19.17,11.53a21.93,21.93,0,0,0,21-15.62s.63.46.86-4.09c0,0,.52-4.61-.69-4.73,0,0-.21-.55,0-.86a.75.75,0,0,0,.16-.45l0-3.12a.75.75,0,0,1,.59-.72l6.36-1.4A3.64,3.64,0,0,1,298.55,410.3Zm46.94,16.44c-4.67,12.57-17.49,14.43-26.75,10.38-10.28-4.49-14.07-21.8-4.73-27.5a27,27,0,0,1,18.34-3.75C342.09,407.19,350.16,414.17,345.49,426.74Zm-80.73-20.87a27,27,0,0,1,18.34,3.75c9.34,5.71,5.61,23.14-4.73,27.5-9.75,4.12-22.08,2.19-26.75-10.38S255,407.19,264.76,405.87Z" transform="translate(-244.12 -402.99)"/></svg>