<svg id="Layer_1" data-name="Layer 1" xmlns="http://www.w3.org/2000/svg" viewBox="0 0 54.15 51.68"><defs><style>.cls-1{fill:#1f1c1d;}</style></defs><title>h-48</title><path class="cls-1" d="M276.26,447.09v0Z" transform="translate(-271.59 -395.43)"/><path class="cls-1" d="M276.26,447.09l0-.18h0Z" transform="translate(-271.59 -395.43)"/><path class="cls-1" d="M324.84,406.17s1-.84,0-3.62-5.9-2.45-5.9-2.45V399c-2.25-2.68-15.55,3.31-16.54,3.76L314,397.42s.78-1.78-5.57-1.23-16.6,10.53-16.6,10.53c1.56-9.86,15.37-10.53,15.37-10.53-6.57-1.56-14.71-.89-19.61,3.45s-5.12,12.14-5.12,12.14c-3.45-8,3.12-12.14,3.12-12.14-2.23,0-4.79,1.88-4.79,1.88s.22-.87-3.12,1.8-2.79,10.7-2.79,10.7c-5,1.56-2.9,8.36-2.9,8.36s.67,4.12.56.11,2.9-4,2.9-4c-4,2.47-1.67,12-1.67,12.35s1.94,12.93,2.37,15.72l.05.35s.36-8.27.48-9.37,1.78-3.71,1.78-3.71a43,43,0,0,0,.33-9c-.45-3.57,1.67-5.9,6.35-8.17s16.15,1.84,16.15,1.84c2.23-2,10.92-2.52,14.15-.93,5.68,2.8,4.46,11.16,4.46,11.16s.67,3.34,1.23,5.11,1.23,12.72,1.23,12.72.33-1.34,1-5.9,1.11-6.8,1.34-10.36-.33-5-.45-9-.22-6.36,1-9.14S324.84,406.17,324.84,406.17Zm-24.18,6.63s-1.45-2.79,0-4.68S310.91,403,310.91,403,300,407.09,300.66,412.8Zm18.72-4.12a13.92,13.92,0,0,0-6.68,5.9,6.94,6.94,0,0,1,4-5.57c1.78-.56,7.24-4.36,7.24-4.36S323.72,407.11,319.38,408.67Z" transform="translate(-271.59 -395.43)"/></svg>