<svg id="Layer_1" data-name="Layer 1" xmlns="http://www.w3.org/2000/svg" viewBox="0 0 58.86 71.83"><defs><style>.cls-1{fill:#1f1c1d;}</style></defs><title>h-80</title><path class="cls-1" d="M294.34,397.39a58.48,58.48,0,0,0,9.36,0,13.21,13.21,0,0,1,5.38.63s.5-2.74,1.2-6-4.08-7.47-7.17-7.26-3.29,1.28-4,1.48-4.68-.8-6.38,0-2.49,3.79-3.59,5.68.8,5.5.8,5.5C291.35,398,292.25,397.17,294.34,397.39Z" transform="translate(-269.12 -384.72)"/><path class="cls-1" d="M327.91,426.36c-.5-7.87-7.27-17.83-8.77-19.63s-5.58-4.38-8.67-6.82-7.67-.95-10.16-1.15a95,95,0,0,0-10.66,0c-1.89.2-7.27,2.59-10.16,6.08a53.24,53.24,0,0,0-4.49,6.42c2.43,5.2,9.13,8.24,9.13,8.24-6.18-1.62-9.63-7.39-9.63-7.39A17.72,17.72,0,0,0,270,417c-2,3.19-.1,13,0,17.33s2.69,7.87,3.79,9.86,1.59,6.08,1.59,6.08,1.3-5.88,1.69-7.37a32,32,0,0,0,.9-5.72c.3-3-.9-5.73-.9-9.72s3.59-5.88,8.87-7,13.45,2.69,13.65,3a45.24,45.24,0,0,1,10-3.29c5-.9,10,2.39,11.56,4.58s.9,10.16.4,12.41.5,8.61,1,10.61-.1,8.77-.1,8.77.6-2.19,1.2-3.71a21.1,21.1,0,0,0,.9-4.16l.1-4.68a10.5,10.5,0,0,0,1.39-4.58C325.92,437.42,328.41,434.23,327.91,426.36Zm-33.35-7.87c-6.18-3.85-8.91-13.16-8.91-13.16,3.64,8.1,8.1,11.44,9.63,12.55a46.4,46.4,0,0,1,3.83,3.36S300.74,422.34,294.57,418.49Zm11.44.61.2-.15Zm1.13-.88c5-4.22,7.88-11.16,7.88-11.16C314.55,411.66,309.45,416.32,307.14,418.21Zm6.06.88a14.63,14.63,0,0,0,6.78-5.74C319,417.47,313.19,419.1,313.19,419.1Z" transform="translate(-269.12 -384.72)"/></svg>