<svg id="Layer_1" data-name="Layer 1" xmlns="http://www.w3.org/2000/svg" viewBox="0 0 57.5 55.26"><defs><style>.cls-1{fill:#1f1c1d;}</style></defs><title>h-40</title><path class="cls-1" d="M325.56,411.51a11.83,11.83,0,0,0-9.06-13.76c-6.31-1.59-16.52-.11-22.78-4.83,0,0-.14,2.43,3.4,4.32,0,0-6-2.65-9-1.61s-2.94,1.59-2.94,1.59a6.07,6.07,0,0,1,4.94-.12,15.13,15.13,0,0,0-7.7,3.74s11-.18,13.54,12.14c0,0-4.12-12.73-18.56-10.43l-3.09,1.16s-1.21,2.42.27,2.95a6.13,6.13,0,0,0,2.35.45s-6.16,2.54-7.22,5.39a4.73,4.73,0,0,0,1,4.86l-.66,4s1.11,5.84,1.86,6.77,2.89,5.13,2.66,7.47.93,6.63.93,6.63l1.2,5.95s-.35-6.35.67-8.43.69-5.79.16-7.94.85-10.09,1.13-10.67,2.17-4,5.06-3.65a10.93,10.93,0,0,0-1.17-5.65,7.27,7.27,0,0,1,2.68,5.29l6.93-.08s8.8.8,10.84,1.72c0,0-.44-3.76-.62-6.83s1-6.25-3.86-9.67c0,0,8,2.3,6.4,8.64s-1.92,7.85-1.92,7.85a15.53,15.53,0,0,0,5.22-.61,28.22,28.22,0,0,0,6.32.61S324.5,418.1,325.56,411.51Zm-14.17,4a11.88,11.88,0,0,0-1.13.61c1.31-2.18,3.37-5.63,1-10.62l-3.42-5s7.25,2.43,7.4,6.6S312.42,415.09,311.39,415.55Z" transform="translate(-269.41 -392.93)"/><path class="cls-1" d="M324.71,419.07c-2.8-1.84-5.36.49-5.36.49,2.39,1.15,1.94,4.45,2.72,5.7s1.08,5.85,1.32,8.51,1,10.1,1,10.1l.28-4.87a41.75,41.75,0,0,0,.87-4.33c-.13-.17,0-5.77,0-5.77l1.25-3.09S327.51,420.91,324.71,419.07Z" transform="translate(-269.41 -392.93)"/></svg>