<svg id="Layer_1" data-name="Layer 1" xmlns="http://www.w3.org/2000/svg" viewBox="0 0 109.2 40.72"><defs><style>.cls-1{fill:#1f1c1d;}</style></defs><title>h-126</title><path class="cls-1" d="M301.79,409.3a2.83,2.83,0,0,1,2.32,2.07,3.34,3.34,0,0,1-1.28,3.9c0,1,.15,25.5,21.95,25.8,20.27.28,21.65-22,22.79-24.86a6.13,6.13,0,0,1,3.77-3.14,2.21,2.21,0,0,0,1.46-2.08v-2.66a2.21,2.21,0,0,0-1.62-2.13c-1.69-.47-4.19-1.18-5-1.53a55.54,55.54,0,0,0-15.88-4c-15.44-1.73-23.33,5.38-23.33,5.38l-2.15-1.77a2.21,2.21,0,0,0-1.4-.5H293a2.21,2.21,0,0,0-1.4.5L289.46,406s-7.89-7.1-23.33-5.38a55.53,55.53,0,0,0-15.88,4c-.84.35-3.35,1.06-5,1.53a2.21,2.21,0,0,0-1.62,2.13V411a2.21,2.21,0,0,0,1.46,2.08,6.13,6.13,0,0,1,3.77,3.14c1.13,2.86,2.51,25.13,22.79,24.86,21.8-.3,22-24.76,21.95-25.8a3.34,3.34,0,0,1-1.28-3.9,2.83,2.83,0,0,1,2.32-2.07Zm36.74,22.59c-8.58,11-22.34,6.61-27.77-.25s-5.38-18-.79-23.23,16-5,16-5c15.14.44,16.33,8.14,16.62,10.26S344.21,424.54,338.54,431.88ZM253.8,413.64c.3-2.12,1.48-9.81,16.62-10.26,0,0,11.39-.2,16,5s4.64,16.37-.79,23.23-19.19,11.29-27.77.25C252.18,424.54,253.51,415.76,253.8,413.64ZM349.36,412a.81.81,0,1,1,.81-.81A.81.81,0,0,1,349.36,412Zm-103.16-.81a.81.81,0,1,1,.81.81A.81.81,0,0,1,246.21,411.19Zm103.23-2a.74.74,0,1,1,.74-.74A.74.74,0,0,1,349.44,409.2Zm-103.23-.74a.74.74,0,1,1,.74.74A.74.74,0,0,1,246.21,408.46Z" transform="translate(-243.59 -400.34)"/></svg>