<svg id="Layer_1" data-name="Layer 1" xmlns="http://www.w3.org/2000/svg" viewBox="0 0 110.69 37.2"><defs><style>.cls-1{fill:#1f1c1d;}</style></defs><title>h-124</title><path class="cls-1" d="M297.91,416.18a10,10,0,0,0,4.73-1.19c1.3-.45,1.76.7,1.92,1.44s.45,1,2,3.07c-.09,2.88.19,9.49,4.23,14.46,3,3.69,7.47,5.79,13.28,6.23q1.53.12,3,.12c6.38,0,11.31-1.73,14.68-5.16a16.87,16.87,0,0,0,4.56-10.44l1.86-2.35a3.64,3.64,0,0,0,.69-1.42L349,420a2,2,0,0,1,.46-.86l3.26-3.59a2,2,0,0,0,.51-1.32v-2a2,2,0,0,0-1-1.68c-5.12-3.08-12.41-4.22-12.41-4.22a58.42,58.42,0,0,0-11.57-1.24c-16.63-2.66-43.62-2.75-60.82,0a58.42,58.42,0,0,0-11.57,1.24s-7.29,1.14-12.41,4.22a2,2,0,0,0-1,1.68v2a2,2,0,0,0,.51,1.32l3.26,3.59a2,2,0,0,1,.46.86l.22.93a3.64,3.64,0,0,0,.69,1.42l1.86,2.35a16.88,16.88,0,0,0,4.56,10.44c3.37,3.43,8.3,5.16,14.68,5.16q1.43,0,3-.12c5.81-.44,10.28-2.54,13.28-6.23,4-5,4.33-11.58,4.23-14.46,1.56-2.06,1.81-2.27,2-3.07s.62-1.89,1.92-1.44A10,10,0,0,0,297.91,416.18Zm24.26-10.65c-10.07,1.38-14.91,5.66-20.66,7.15a10.31,10.31,0,0,1-7.21,0c-5.61-1.46-10.64-5.78-20.66-7.15A244,244,0,0,1,322.17,405.54Zm19.08,29.17c-3.74,3.8-9.51,5.44-17.14,4.86-5.63-.43-9.94-2.44-12.83-6-4-4.94-4.2-11.6-4.09-14.26,1.53-4.65,5.25-8.82,9.35-10.42,4.31-1.68,18.28-3.54,24.24,1.95,3.65,3.36,4.65,9,4.91,12.18A16.57,16.57,0,0,1,341.25,434.7ZM250.14,423c.27-3.15,1.27-8.82,4.92-12.18,6-5.48,19.93-3.63,24.24-1.95,4.1,1.6,7.81,5.76,9.35,10.42.11,2.66-.06,9.32-4.09,14.26-2.89,3.55-7.21,5.56-12.83,6-7.63.58-13.4-1.05-17.14-4.86A16.57,16.57,0,0,1,250.14,423Zm98.7-6.88a.82.82,0,1,1,.82-.82A.82.82,0,0,1,348.84,416.13Zm-102.66-.82a.82.82,0,1,1,.82.82A.82.82,0,0,1,246.17,415.31Zm102.66-2.87a.82.82,0,1,1,.82-.82A.82.82,0,0,1,348.84,412.45Zm-102.66-.82a.82.82,0,1,1,.82.82A.82.82,0,0,1,246.17,411.63Z" transform="translate(-242.57 -403.1)"/></svg>