<svg id="Layer_1" data-name="Layer 1" xmlns="http://www.w3.org/2000/svg" viewBox="0 0 36.77 51.15"><defs><style>.cls-1{fill:#1f1c1d;}</style></defs><title>h-150</title><path class="cls-1" d="M316.16,424.07c-.63,3.54-6.26,8.71-6.26,8.71h2.18c-1.54,2.45-7.16,4.53-9.7,3.26s-1.81-21.76-1.81-21.76h7.18a2.72,2.72,0,1,0-.28-2.81h-7.08v-4.84a5.85,5.85,0,1,0-3.72,0v4.84h-7.08a2.72,2.72,0,1,0-.28,2.81l7.11.1s.79,20.39-1.75,21.66-8.16-.82-9.7-3.26h2.18s-5.62-5.17-6.26-8.71c0,0-2,7.93.54,12.35l.91-1.29s3.61,5,6.07,5.8c2,.67,8,2.43,10.12,5.45,2.14-3,8.11-4.78,10.12-5.45,2.46-.82,6.07-5.8,6.07-5.8l.91,1.29C318.15,432,316.16,424.07,316.16,424.07Zm-17.64-19.84a3.17,3.17,0,1,1,3.17-3.17A3.17,3.17,0,0,1,298.52,404.23Z" transform="translate(-280.14 -395.23)"/></svg>