<svg id="Layer_1" data-name="Layer 1" xmlns="http://www.w3.org/2000/svg" viewBox="0 0 65.07 55.28"><defs><style>.cls-1{fill:#1f1c1d;}</style></defs><title>h-54</title><path class="cls-1" d="M328.51,427.51c3.26-1,1.35-5.09,1.35-5.09.72-1.67-2.54-7.95-2.54-7.95s-1.83,2.15-.4,0-1.43-6.91-1.43-6.91c.79,3.1-2.07,2.46-2.07,2.46l-2.15-2.22a2.73,2.73,0,0,1-1.51-2.54c-.08-2-3.18-3.73-6.67-5.88s-5.64-.56-5.64-.56c-.24-1.83-3.73-3.18-3.73-3.18a27.14,27.14,0,0,0-4.37-1.81c-1.59-.38-4.77.78-4.77.78s-1.27-1.75-9.38,0-8.66,7.55-8.66,7.55-.79.48-3.1,4.05.87,7.31.87,7.31c.42.57-1.43,1-1.43,1a8.53,8.53,0,0,0-4.69.4c-2.38,1-2.94,4.21-2.38,7.71s4.13,4.85,4.13,4.85a9.08,9.08,0,0,1-3-1.43c-.64,3,2.42,9.73,4.81,12.75s5.6,10.29,5.6,10.29l-.64-5.8.56-5a16.81,16.81,0,0,0,0-7.55c-1-4.13,2.3-7.87,2.3-7.87a6.43,6.43,0,0,1-6-5.4s3.1,5.4,8.42,2.78,6.36.72,6.36.72l4.77-.32c5.64,2.78,11.6.64,14.86-.48s6.52-5.72,6.52-5.72c1,6.46-7.65,6.68-8.78,6.68.61,0,3.53.34,7.19,4.21,4.13,4.37,13.83,2.22,13.83,2.22-2.22,3.34-9.38,1.35-9.38,1.35l.72,7.95s.87,2.38.48,3.18.32,9.06.32,9.06c.72-3.66,5.09-6.2,5.09-6.2s2.3-1.43,1-3.26,2.46-4.13,2.46-4.13a48.92,48.92,0,0,0,3.1-4.53C331.61,428.86,328.51,427.51,328.51,427.51Zm-52.36-19.39c-.3-2.22,2.74-5.79,4.26-7.41a8.71,8.71,0,0,1,.83-.85s-.33.32-.83.85c-2.2,2.62-1.57,5.36-1.72,8.44-.16,3.42,3.73,7.95,3.73,7.95C276.55,413.28,276.55,411.06,276.15,408.12Zm22.65,1.67c-4,1.19-3.66,7.31-3.66,7.31s-3.34-4.93-2.54-7.47,3.58-3,8.1-2.22,6.75-1.91,6.75-1.91C307.22,407.56,302.77,408.6,298.8,409.79Z" transform="translate(-265.62 -393.76)"/></svg>