<svg id="Layer_1" data-name="Layer 1" xmlns="http://www.w3.org/2000/svg" viewBox="0 0 107.55 30.28"><defs><style>.cls-1{fill:#1f1c1d;}</style></defs><title>h-104</title><path class="cls-1" d="M297.91,415.43a14.11,14.11,0,0,1,2.39.39c1.64.41,2,2.46,2,2.46,1.71,3.82,3.62,18.15,23.68,16.86s22-19.52,22.52-20.88,3.14-2.39,3.14-2.39v-4s-5.05-2.32-20.88-2.87-26.14,5.94-27.16,6.82-1.43.82-1.43.82l-4.3-.11-4.3.11s-.41.07-1.43-.82S280.85,404.42,265,405s-20.88,2.87-20.88,2.87v4s2.59,1,3.14,2.39,2.46,19.59,22.52,20.88,22-13,23.68-16.86c0,0,.41-2,2-2.46A14.09,14.09,0,0,1,297.91,415.43Zm41.29,13.15c-7.23,6.35-22,6-27.91,1.37s-6.48-12.28-6.14-14.67,4.16-4.37,4.16-4.37,6.55-3.82,19.65-4.16,15.29,3.28,15.76,5A17.5,17.5,0,0,1,339.2,428.58Zm-88.1-16.79c.48-1.77,2.66-5.39,15.76-5s19.65,4.16,19.65,4.16,3.82,2,4.16,4.37-.27,10-6.14,14.67-20.68,5-27.91-1.37A17.5,17.5,0,0,1,251.1,411.79Z" transform="translate(-244.14 -404.93)"/></svg>