<svg id="Layer_1" data-name="Layer 1" xmlns="http://www.w3.org/2000/svg" viewBox="0 0 87.82 147.18"><defs><style>.cls-1{fill:#1f1c1d;}</style></defs><title>h-1</title><path class="cls-1" d="M294.26,459.82a7.4,7.4,0,0,0,4.08-.21,7.4,7.4,0,0,0,4.08.21,6.87,6.87,0,0,0,3.06-2l-3.18-2.1a10.43,10.43,0,0,0-2.72-.68,1.79,1.79,0,0,0-2.5,0,10.43,10.43,0,0,0-2.72.68l-3.18,2.1A6.87,6.87,0,0,0,294.26,459.82Z" transform="translate(-255.01 -347.46)"/><path class="cls-1" d="M336.48,359.13s-6.47-4.24-12.12-4.87c0,0,17.3,13.43,9.38,30.41,0,0,.93-29.44-17.46-35.56-1-.32-9.38-2.26-14.87-1.45,0,0,34.1,17.5,20.69,32.33,0,0-1.29,6.59-16.81,6,0,0-1.45-3.86,5.33-7.42s10-14.65,3.88-20.69-15-9.38-15-9.38,8.73,10,.81,17.46c-6.8,6.38-19.42,5.27-25.53,7.17,4.24-2.13,12.89-6.42,17-8,5.5-2.1,10.71-16.33,6.63-16.33-.81,0-11-1.13-18.43,6.3s-13.74,19.56-19.56,22.31-2.75,9.53-2.75,9.53A7.15,7.15,0,0,0,256,396c2.91,5.5,2.91,8.24,2.59,10.18s2.42,7.27,2.75,9.38c.26,1.7,2.42,3.19,3.33,6.34l.13-.86a12,12,0,0,1,.27,1.39,24.84,24.84,0,0,1,1-6.7c1.13-3.23,3.39-5,2.42-8.57s.24-11.8.24-11.8l-5.57-4.53,8.89,3.07s22.63,1.45,25.86-1.13c0,0,14.87,3.23,16.33,2.42s10.67,3.56,13.09,2.42,13.42-5.66,14.71-12.93S344.08,366.41,336.48,359.13Z" transform="translate(-255.01 -347.46)"/><path class="cls-1" d="M327.59,399.22a16.7,16.7,0,0,0,1.45,4.85c1.29,2.91,1,4.69.65,7.92s1,11,1,11c0-1.29,2.64-8.08,2.64-8.08s.76-4.69,2.37-7.27,1.45-4.53,2.91-7.27-1.29-6-1.29-6C334.54,397.93,327.59,399.22,327.59,399.22Z" transform="translate(-255.01 -347.46)"/><path class="cls-1" d="M264.64,421.89c-.19,1.19-.54,3.33-.77,4.36-.34,1.47.11,6,.68,7.94a94.67,94.67,0,0,1,2,11.57c.11,2.15,2.72,9,2.61,12.14a12.75,12.75,0,0,0,2.95,8.73,13.78,13.78,0,0,1,3.06,8.17c0,2.27-.34,7.15,1.7,9.53l.57-1.93a17.3,17.3,0,0,0,3.06,5.22c1.93,2,1.7,0,1.7,0a5.52,5.52,0,0,0,1.81,2.61,7.09,7.09,0,0,0,3.63,1v-1.7s2.61,1.59,2.95,1.7,3.29,1.7,3.29,1.7l-.57-1.81a19.85,19.85,0,0,0,2.84,2.27,21.06,21.06,0,0,1,2.15,1.25,21.07,21.07,0,0,1,2.15-1.25,19.84,19.84,0,0,0,2.84-2.27l-.57,1.81s2.95-1.59,3.29-1.7,2.95-1.7,2.95-1.7v1.7a7.09,7.09,0,0,0,3.63-1,5.52,5.52,0,0,0,1.81-2.61s-.23,2,1.7,0a17.3,17.3,0,0,0,3.06-5.22l.57,1.93c2-2.38,1.7-7.26,1.7-9.53a13.78,13.78,0,0,1,3.06-8.17,12.75,12.75,0,0,0,2.95-8.73c-.11-3.18,2.5-10,2.61-12.14a94.69,94.69,0,0,1,2-11.57c.57-1.93,1-6.46.68-7.94s-.91-5.22-.91-5.22c-.79,2.95-.34,7-.68,9.75s-1.36,3.06-2.72,5.1-1.47,2-2.5,6.12-5.9,4-5.67,4.65-.23,4.42-.68,7.14-4.08,6.13-4.08,6.13l-1-1.25a42.16,42.16,0,0,0-2-4.76,9.63,9.63,0,0,0-3.63-2.38c-1.25-.45-1.7-1.36-3.74-2.78a4.72,4.72,0,0,0-4.76-.74,6.32,6.32,0,0,0-2,1.47,6.32,6.32,0,0,0-2-1.47,4.72,4.72,0,0,0-4.76.74c-2,1.42-2.5,2.33-3.74,2.78a9.63,9.63,0,0,0-3.63,2.38,42.16,42.16,0,0,0-2,4.76l-1,1.25s-3.63-3.41-4.08-6.13-.91-6.46-.68-7.14-4.65-.57-5.67-4.65-1.13-4.08-2.5-6.12-2.38-2.38-2.72-5.1c-.29-2.32,0-5.62-.41-8.37a12,12,0,0,0-.27-1.39Zm29.74,33.85a10.43,10.43,0,0,1,2.72-.68,1.79,1.79,0,0,1,2.5,0,10.43,10.43,0,0,1,2.72.68l3.18,2.1a6.87,6.87,0,0,1-3.06,2,7.4,7.4,0,0,1-4.08-.21,7.4,7.4,0,0,1-4.08.21,6.87,6.87,0,0,1-3.06-2Z" transform="translate(-255.01 -347.46)"/></svg>