<svg id="Layer_1" data-name="Layer 1" xmlns="http://www.w3.org/2000/svg" viewBox="0 0 108.92 35.27"><defs><style>.cls-1{fill:#1f1c1d;}</style></defs><title>h-94</title><path class="cls-1" d="M301.26,413.61c2.93.61,1.84,2.52,1.84,2.8s1.09,16.11,15.22,20.27,22.59-4,25-8.12,4.5-13.85,5.12-14.6,3.55-2,3.55-2l.34-3.82L348.69,407a62.53,62.53,0,0,0-22.93-4.44c-13.65-.2-21.36,7.64-21.36,7.64a21.92,21.92,0,0,0-13,0s-7.71-7.85-21.36-7.64A62.52,62.52,0,0,0,247.14,407l-3.69,1.09.34,3.82s2.93,1.3,3.55,2,2.66,10.51,5.12,14.6,10.92,12.28,25,8.12,15.22-20,15.22-20.27-1.09-2.18,1.84-2.8A14.18,14.18,0,0,1,301.26,413.61Zm33.92,19.79c-10.78,6.48-23.68-.07-27.57-8.6s-.61-13-.61-13c6.51-10.61,32.76-11.05,37.26.41C345,414.09,346,426.92,335.18,433.4Zm-83.6-21.22c4.51-11.48,30.76-11,37.26-.41,0,0,3.28,4.5-.61,13s-16.79,15.08-27.57,8.6S250.83,414.09,251.58,412.18Z" transform="translate(-243.45 -402.55)"/></svg>