<svg id="Layer_1" data-name="Layer 1" xmlns="http://www.w3.org/2000/svg" viewBox="0 0 56.67 36.5"><defs><style>.cls-1{fill:#1f1c1d;}</style></defs><title>h-147</title><path class="cls-1" d="M321.42,403.47H292l-1.56,2.34h-6.83l-1-3.32h-8l-.78,3.32s-3.51,0-4.1,3.32c-.42,2.35-.24,16.38-.11,24.35A5.61,5.61,0,0,0,275.3,439h46.27a4.64,4.64,0,0,0,4.64-4.64V408.26A4.78,4.78,0,0,0,321.42,403.47ZM300.49,434a10,10,0,1,1,10-10A10,10,0,0,1,300.49,434Zm21.42-23.62a1.07,1.07,0,0,1-1.07,1.07h-9.66a.68.68,0,0,1-.68-.68v-4.2a.59.59,0,0,1,.59-.59h10.83Z" transform="translate(-269.53 -402.5)"/><path class="cls-1" d="M303.83,418.58a7.31,7.31,0,0,0-5.57-.85.78.78,0,0,0,.37,1.52,5.8,5.8,0,0,1,5.66,9.55.78.78,0,1,0,1.15,1.05,7.36,7.36,0,0,0-1.62-11.26Z" transform="translate(-269.53 -402.5)"/></svg>