<svg id="Layer_1" data-name="Layer 1" xmlns="http://www.w3.org/2000/svg" viewBox="0 0 105.62 37.63"><defs><style>.cls-1{fill:#1f1c1d;}</style></defs><title>h-91</title><path class="cls-1" d="M298.19,412.9a3.17,3.17,0,0,1,3.17,2.38,91.45,91.45,0,0,0,3.79,11.26c3.62,9.42,12.18,13.82,26.72,11.36s16.07-23.65,16.48-25.8a3.46,3.46,0,0,1,2.21-2.51.69.69,0,0,0,.43-.66v-6.55c0-.35-.46-.64-.81-.67l-8.8-.77H322.25c-13.21,0-17.3,4.91-18.63,6.35s-2.15,1-2.15,1h-6.55s-.82.41-2.15-1-5.43-6.35-18.63-6.35H255l-8.8.77c-.35,0-.8.32-.81.67v6.55a.69.69,0,0,0,.43.66A3.45,3.45,0,0,1,248,412.1c.41,2.15,1.94,23.34,16.48,25.8s23.09-1.94,26.72-11.36A91.45,91.45,0,0,0,295,415.27,3.17,3.17,0,0,1,298.19,412.9Zm34.4,22.44s-18.12,5.12-24.57-7.88-2.87-18.12-1.64-19.14a20.39,20.39,0,0,1,12.18-4.4c7.68-.31,18.22,0,18.22,0s7.47-.1,7.47,6.55S344.26,431.55,332.59,435.34Zm-80.46-24.88c0-6.65,7.47-6.55,7.47-6.55s10.54-.31,18.22,0a20.38,20.38,0,0,1,12.18,4.4c1.23,1,4.81,6.14-1.64,19.14s-24.57,7.88-24.57,7.88C252.13,431.55,252.13,417.12,252.13,410.46Z" transform="translate(-245.39 -400.94)"/></svg>