<svg id="Layer_1" data-name="Layer 1" xmlns="http://www.w3.org/2000/svg" viewBox="0 0 84.17 138.18"><defs><style>.cls-1{fill:#1f1c1d;}</style></defs><title>h-4</title><path class="cls-1" d="M263.95,435.46s-.18-5.26,0-10.46-.08-11.24-.08-11.24-1-4.8.14-6.4,4.21-3.64,3.32-5.91-1.07-10.63,3.38-12.77,17.43-2.13,21.17-1.42a17.44,17.44,0,0,1,6.4,2.67s2.31-2.31,8.54-2.13,12.63.89,15.3,2.31,4.45,7.72,3.74,9.55-1.29,7.7.16,8.59,4.65,2.67,4.82,5.16-.36,7.83,0,10.14,0,10.29,0,10.29,1.21-14.74,3.34-16.69,4.27-3.56,4.09-10.14,0-15.83.89-18.86,1.42-8.36,0-11.39-5.16-9.49-5.16-9.49-4.45-7.95-9.78-8.83a37.52,37.52,0,0,1-14.23-4.8c-5.34-3-22.42-2-25.26,0s-8.36,4.45-11.92,4.8-9.25,3.62-11.92,8.83-5.87,16.78-4.8,20.34,2.13,11.31,2,13.84.89,6.44,2,8.93S261.1,421,261.1,421Z" transform="translate(-255.91 -351.74)"/><path class="cls-1" d="M298,489.38c2.08,1.59,8.64-.84,8.64-.84-1.48-1.29.27-2.53,1.8-1.09a6.06,6.06,0,0,0,5.53,1.16c.39-.13,3-1.54,3-1.54s1.29-.26,2.76-.58a3.57,3.57,0,0,0,2.19-1.54c-1.35-.32-2.19-2.25-.32-1.93s5.33-2.12,5.33-2.12a5,5,0,0,1-1.54-.39c-1-.39-.84-1.74.45-1.67a6.9,6.9,0,0,0,4.37-2.12,7.54,7.54,0,0,0,1-2.76c-.32,1.22-1.74.9-3.15.84s-1.41-1.29-1.29-2.7,4-7.13,4.37-7.39a39.07,39.07,0,0,0,2.57-6.23c.77-2.31,1.93-8,1.23-10s-.27-3.09-.08-4.69.06-3.73-1-4.76-2.25-8-2.44-7.84a15.79,15.79,0,0,0,0,3.47,21.36,21.36,0,0,1-1.41,4.18c-.32.58-1.61,1.8-4.18,3.2s-2.12,3-2.64,4.26-1.41,1.29-1.67,3,1.67,4,1.67,4-2.12-.71-2.31-.71-3.15-1.93-3.34-1.93-2.83-2.83-4.24-4.18a8.1,8.1,0,0,0-4.11-1.61,9.66,9.66,0,0,1-2.7-1.89c-.71-.93-2.83-.42-3-.51s-1.61-.3-2.89-.49a3.94,3.94,0,0,0-2.53,1,3.94,3.94,0,0,0-2.53-1c-1.29.19-2.7.41-2.89.49s-2.31-.42-3,.51a9.66,9.66,0,0,1-2.7,1.89,8.1,8.1,0,0,0-4.11,1.61c-1.41,1.35-4,4.18-4.24,4.18s-3.15,1.93-3.34,1.93-2.31.71-2.31.71,1.93-2.31,1.67-4-1.16-1.74-1.67-3-.06-2.86-2.64-4.26-3.86-2.62-4.18-3.2a21.36,21.36,0,0,1-1.41-4.18,15.79,15.79,0,0,0,0-3.47c-.19-.19-1.41,6.81-2.44,7.84s-1.16,3.15-1,4.76.62,2.76-.08,4.69.46,7.65,1.23,10a39.07,39.07,0,0,0,2.57,6.23c.32.26,4.24,6,4.37,7.39s.13,2.64-1.29,2.7-2.83.39-3.15-.84a7.54,7.54,0,0,0,1,2.76,6.9,6.9,0,0,0,4.37,2.12c1.29-.06,1.48,1.29.45,1.67a5,5,0,0,1-1.54.39s3.47,2.44,5.33,2.12,1,1.61-.32,1.93a3.57,3.57,0,0,0,2.19,1.54c1.48.32,2.76.58,2.76.58s2.57,1.41,3,1.54a6.06,6.06,0,0,0,5.53-1.16c1.53-1.43,3.28-.19,1.8,1.09C289.36,488.54,295.91,491,298,489.38Zm0-40.23a11.3,11.3,0,0,0,2.79,1.61s-.26-.71,0-.51a8,8,0,0,0,3.41,1.8c1.54.19,1.16-.77,1.16-.77s1.48,1,1.67.8a8.56,8.56,0,0,1,.77-.67,14.64,14.64,0,0,0,1.61.7,17.06,17.06,0,0,1,1.67.65s1.29,1.39,1.74,1.77c.12.07.17.11.13.09l-.13-.09a4.93,4.93,0,0,0-3.66-.49,13.84,13.84,0,0,0-3.15,1.48,16.89,16.89,0,0,1-16,0,13.84,13.84,0,0,0-3.15-1.48,4.93,4.93,0,0,0-3.66.49l-.13.09s0,0,.13-.09c.44-.38,1.74-1.77,1.74-1.77a17.06,17.06,0,0,1,1.67-.65,14.64,14.64,0,0,0,1.61-.7,8.57,8.57,0,0,1,.77.67c.19.22,1.67-.8,1.67-.8s-.39,1,1.16.77a8,8,0,0,0,3.41-1.8c.26-.19,0,.51,0,.51A11.3,11.3,0,0,0,298,449.14Z" transform="translate(-255.91 -351.74)"/></svg>