<svg id="Layer_1" data-name="Layer 1" xmlns="http://www.w3.org/2000/svg" viewBox="0 0 117.06 35.44"><defs><style>.cls-1{fill:#1f1c1d;}</style></defs><title>h-116</title><path class="cls-1" d="M298.19,421.11c3.47.08,4.56,2.15,4.56,2.15s3.58,7.32,5.53,11.31a7,7,0,0,0,5.73,4.09h25.64a4.35,4.35,0,0,0,2.76-1.07l13.51-18.68a3.23,3.23,0,0,0,.67-3s-5-9.72-6.5-11.47-2.87-1.07-2.87-1.07-34.34,3-36.39,3.38a7.82,7.82,0,0,0-5.43,3.94c-1.54,2.51-3.38,2.66-3.38,2.66a22.08,22.08,0,0,1-7.68,0s-1.84-.15-3.38-2.66a7.82,7.82,0,0,0-5.43-3.94c-2-.41-36.39-3.38-36.39-3.38s-1.33-.67-2.87,1.07-6.5,11.47-6.5,11.47a3.23,3.23,0,0,0,.67,3L254,437.58a4.35,4.35,0,0,0,2.76,1.08h25.64a7,7,0,0,0,5.73-4.09c1.94-4,5.53-11.31,5.53-11.31S294.72,421.18,298.19,421.11Zm50.52-3.74s-4.76,12.44-6.24,15.1a5.7,5.7,0,0,1-4.09,2.92H314.26c-2.51,0-3.79-2.87-3.79-2.87s-2.82-6.45-3.63-9.37a10.11,10.11,0,0,1-.36-4.76c1-5.68,4.45-7.52,4.45-7.52,2-1.13,5.73-1.33,5.73-1.33s24.41-2.15,27.08-1.94,4.5,5.37,4.91,7.32S348.71,417.37,348.71,417.37Zm-101-2.46c.41-1.94,2.25-7.11,4.91-7.32s27.08,1.95,27.08,1.95,3.74.2,5.73,1.33c0,0,3.48,1.84,4.45,7.52a10.12,10.12,0,0,1-.36,4.76c-.82,2.92-3.63,9.37-3.63,9.37s-1.28,2.87-3.79,2.87H258a5.7,5.7,0,0,1-4.09-2.92c-1.48-2.66-6.24-15.1-6.24-15.1S247.32,416.85,247.73,414.91Z" transform="translate(-239.66 -403.22)"/></svg>