<svg id="Layer_1" data-name="Layer 1" xmlns="http://www.w3.org/2000/svg" viewBox="0 0 48.82 36.61"><defs><style>.cls-1{fill:#1f1c1d;}</style></defs><title>h-60</title><path class="cls-1" d="M298.14,418c.46.74,1,.84,1.16.74s1,.2,1.21,0a3.94,3.94,0,0,1,1.39-.17c.23,0,1.72.42,1.9.42s1.95.93,2.65.84a3,3,0,0,1,1.07,0s1.44.69,1.58.69,1.16.51,1.16,1a2.83,2.83,0,0,0,.37-2.46,5.84,5.84,0,0,0-1.62-1.95,7.52,7.52,0,0,0-2.23-1.35,1,1,0,0,1-1.07,0c-.79-.28-1.9-.74-1.9-.74l-.79-.19c-.19,0-.65-.56-.84-.7s-.28-.56-.7-.6a4.75,4.75,0,0,0-1.62,0c-.28.14-1.44,1-1.44,1S297.67,417.3,298.14,418Z" transform="translate(-273.22 -402.17)"/><path class="cls-1" d="M286.16,420.59c.14,0,1.58-.69,1.58-.69a3,3,0,0,1,1.07,0c.7.09,2.46-.84,2.65-.84s1.67-.42,1.9-.42a3.94,3.94,0,0,1,1.39.17c.23.17,1.07-.12,1.21,0s.7,0,1.16-.74-.32-3.29-.28-3.43-1.16-.84-1.44-1a4.75,4.75,0,0,0-1.62,0c-.42,0-.51.46-.7.6s-.65.65-.84.7l-.79.19s-1.11.46-1.9.74a1,1,0,0,1-1.07,0,7.52,7.52,0,0,0-2.23,1.35,5.84,5.84,0,0,0-1.62,1.95,2.83,2.83,0,0,0,.37,2.46C285,421.1,286,420.59,286.16,420.59Z" transform="translate(-273.22 -402.17)"/><path class="cls-1" d="M322,402.17c0,.14-1.76,6.87-1.86,7.52a18.44,18.44,0,0,1-1.9,3.87c-.84,1.42-1.39,2.67-1.67,3s-.23.72-.65,1-.37.43-.74.43-.14-.14-.93,0-1,.19-1.16.46a31,31,0,0,1-1.25,3.67,12.33,12.33,0,0,0-1.09,1.07,15.64,15.64,0,0,1-1.23,1.81c-.19.09-1.07,1.07-1.3,1s-1.86,2.09-2,2.27-.88,1.11-.88,1.11l-3.2,1.9a.57.57,0,0,1-.79,0c-.37-.28-.23-.51-.6-.51a4.31,4.31,0,0,1-1.76-1.25v-1.25a3.85,3.85,0,0,0,.74-.6c0-.14-.42-.84-.46-1a1.6,1.6,0,0,0-.84-.88l-.79-.29-.79.29a1.6,1.6,0,0,0-.84.88c0,.14-.51.84-.46,1a3.85,3.85,0,0,0,.74.6v1.25a4.31,4.31,0,0,1-1.76,1.25c-.37,0-.23.23-.6.51a.57.57,0,0,1-.79,0l-3.2-1.9s-.7-.93-.88-1.11-1.81-2.32-2-2.27-1.11-.93-1.3-1a15.64,15.64,0,0,1-1.23-1.81,12.33,12.33,0,0,0-1.09-1.07,31,31,0,0,1-1.25-3.67c-.14-.28-.37-.32-1.16-.46s-.56,0-.93,0-.32-.14-.74-.43-.37-.68-.65-1-.84-1.58-1.67-3a18.44,18.44,0,0,1-1.9-3.87c-.09-.65-1.86-7.38-1.86-7.52a29.17,29.17,0,0,0,.6,3.81,12.71,12.71,0,0,1,.32,3.34,11.22,11.22,0,0,0,.32,2.92c.37,1.25.46,3.48.74,4.83a45.48,45.48,0,0,0,1.76,4.83c.84,2.32,3.43,4.78,4.87,5.89a25.44,25.44,0,0,1,3.57,4.22s2.37,2.78,2.51,2.83,2.74,2,2.74,2l1,.93.84.09,1.25.32-.14-.46,1.44.32s2.32.7,2.46.7.08-.08.14-.2c.06.12.11.2.14.2s2.46-.7,2.46-.7l1.44-.32-.14.46,1.25-.32.84-.09,1-.93s2.6-2,2.74-2,2.51-2.83,2.51-2.83a25.44,25.44,0,0,1,3.57-4.22c1.44-1.11,4-3.57,4.87-5.89a45.48,45.48,0,0,0,1.76-4.83c.28-1.35.37-3.57.74-4.83a11.22,11.22,0,0,0,.32-2.92,12.71,12.71,0,0,1,.32-3.34A29.17,29.17,0,0,0,322,402.17Z" transform="translate(-273.22 -402.17)"/></svg>