<svg id="Layer_1" data-name="Layer 1" xmlns="http://www.w3.org/2000/svg" viewBox="0 0 44.82 47.75"><defs><style>.cls-1{fill:#1f1c1d;}</style></defs><title>h-148</title><path class="cls-1" d="M291.13,432.65l18-16.73c13,1,10.7-13.34,10.7-13.34l-6.11,6-5.31-5.45s5.56-5.86,6.11-6a11.38,11.38,0,0,0-9.81,2.62c-4.55,4-2,10.63-2,10.63l-17.23,16.81c-3.27-2.24-7.26,1.23-7.26,1.23-5,3.78-2.34,11.17-2.34,11.17l6.33-5.52,4.34,4.45-6,5.85s4.78,1.77,9.26-3.45C293.52,436.63,291.13,432.65,291.13,432.65Zm-1.06-1-.94-1,17.75-17.23.9.92Z" transform="translate(-275.21 -396.89)"/></svg>