<svg id="Layer_1" data-name="Layer 1" xmlns="http://www.w3.org/2000/svg" viewBox="0 0 107.15 37.42"><defs><style>.cls-1{fill:#1f1c1d;}</style></defs><title>h-95</title><path class="cls-1" d="M298.36,412.78a5.89,5.89,0,0,1,2,.46c1.84.68,4.5,8.05,4.5,8.05s6.76,19.72,25,16.17c16.09-3.12,19.29-19.66,19.83-23.59a2.63,2.63,0,0,1,.72-1.48l1.23-1.27a.69.69,0,0,0,.19-.48v-5.27a.69.69,0,0,0-.51-.67l-3.45-1c-10-2.39-17.68-3.34-21.16-3.28s-9.28-.34-16.65,3.48A80.94,80.94,0,0,1,300,408.53h-3.28A80.91,80.91,0,0,1,286.56,404c-7.37-3.82-13.17-3.41-16.65-3.48s-11.19.89-21.16,3.28l-3.45,1a.69.69,0,0,0-.51.67v5.27a.69.69,0,0,0,.19.48l1.23,1.27a2.63,2.63,0,0,1,.72,1.48c.54,3.93,3.74,20.47,19.83,23.59,18.29,3.55,25-16.17,25-16.17s2.66-7.37,4.5-8.05A5.89,5.89,0,0,1,298.36,412.78ZM343,425.39c-3.62,5.73-7,9.69-17.4,10.44s-18.32-11.36-19.72-18.49c-1.3-6.62,2.25-9.14,2.25-9.14,9.08-7.58,26.06-6.27,32.62-2.87C347.84,409,347.27,418.62,343,425.39Zm-87-20.06c6.56-3.41,23.54-4.71,32.62,2.87,0,0,3.55,2.52,2.25,9.14-1.4,7.13-9.35,19.24-19.72,18.49s-13.79-4.71-17.4-10.44C249.46,418.62,248.88,409,256,405.33Z" transform="translate(-244.79 -400.48)"/></svg>