<svg id="Layer_1" data-name="Layer 1" xmlns="http://www.w3.org/2000/svg" viewBox="0 0 152.98 39.4"><defs><style>.cls-1{fill:#1f1c1d;}</style></defs><title>h-142</title><path class="cls-1" d="M238.68,424.34l1.09-7.15h0v10.28a4.89,4.89,0,0,0,3.45,4.68c36.6,11.3,73.21-13.39,109.81-2.57.85.27,3.61,1.34,3.43,3.6a1.41,1.41,0,0,1-.65,1.12,3.5,3.5,0,0,1-2.68.3c-3.37-.72-11-6.27-14.06-3.64a2.25,2.25,0,0,0-.6,1.47s-.08,3.12,4.56,3.27c5.63.18,22.86-1.24,29.81,6.12,0,0,.49-5.52-7.33-12.81a18.28,18.28,0,0,1,9.45-1.58s-2.34-4.82-14.83-7.17l-1.81-.36-1.12,7.64v-14.8c-38-14.14-76,12.87-113.93,1.19-2.81-.87-2.55-2.71-2.21-4a3.44,3.44,0,0,1,2.77-.35c3.37.72,11,6.27,14.06,3.64a2.25,2.25,0,0,0,.6-1.47s.08-3.12-4.56-3.27c-5.63-.18-22.86,1.24-29.81-6.12,0,0-.49,5.52,7.33,12.81,0,0-2.44,2.56-9.45,1.58,0,0,2.34,4.82,14.83,7.17Zm118.45,7.83c0-.11,0-.21.05-.33C357.18,431.94,357.16,432.05,357.14,432.17Zm.07-.48v0ZM240.79,410.22l-.06.06Z" transform="translate(-222.01 -402.42)"/></svg>