<svg id="Layer_1" data-name="Layer 1" xmlns="http://www.w3.org/2000/svg" viewBox="0 0 104.36 38.94"><defs><style>.cls-1{fill:#1f1c1d;}</style></defs><title>h-132</title><path class="cls-1" d="M298.55,413.16a45.27,45.27,0,0,0,6.27-.41,22.2,22.2,0,0,0-.47,3.09c-.37,4.32,1.2,9.94,4,14.33a20.37,20.37,0,0,0,17.49,10h0a19.78,19.78,0,0,0,15-7.19,26,26,0,0,0,6.1-12.65,30.07,30.07,0,0,0,.39-6.42,12.61,12.61,0,0,0,2.38,0c.9-.16,1.32-2.41.82-3s-2.84-.7-4.08-.8a10,10,0,0,0-1.26-2.17c-2.54-3.33-7.41-5.43-14.88-6.4a33.43,33.43,0,0,0-4.89-.32c-7.39,0-17.1,2.21-19.84,9.14a36.64,36.64,0,0,1-4.48.55H296a36.64,36.64,0,0,1-4.48-.55c-2.74-6.94-12.45-9.14-19.84-9.14a33.44,33.44,0,0,0-4.89.32c-7.47,1-12.34,3.06-14.88,6.4a10,10,0,0,0-1.26,2.17c-1.24.11-3.7.37-4.08.8s-.08,2.84.82,3a12.62,12.62,0,0,0,2.38,0,30,30,0,0,0,.39,6.42,26,26,0,0,0,6.1,12.65,19.78,19.78,0,0,0,15,7.19h0a20.37,20.37,0,0,0,17.5-10c2.78-4.39,4.35-10,4-14.33a22.26,22.26,0,0,0-.47-3.09A45.27,45.27,0,0,0,298.55,413.16ZM345.07,420a24,24,0,0,1-5.65,11.68,18,18,0,0,1-13.59,6.56,18.62,18.62,0,0,1-2.11-.12c-12.78-1.47-18.11-15-17.51-22.15.57-6.7,4.16-12.9,19.19-12.93a31.33,31.33,0,0,1,4.6.3h0c7,.9,11.42,2.76,13.65,5.68S345.66,415.8,345.07,420Zm-91.66-11c2.22-2.92,6.69-4.78,13.65-5.68h0a31.33,31.33,0,0,1,4.6-.3c15,0,18.62,6.23,19.19,12.93.61,7.16-4.73,20.69-17.51,22.15a18.61,18.61,0,0,1-2.11.12,18,18,0,0,1-13.59-6.56A24,24,0,0,1,252,420C251.43,415.8,251.12,412.06,253.41,409.06Z" transform="translate(-246.37 -401.2)"/><path class="cls-1" d="M303,418.66a.44.44,0,0,0-.84-.15,7.92,7.92,0,0,0,1.4,6.7.47.47,0,0,0,.82-.45A22.15,22.15,0,0,1,303,418.66Z" transform="translate(-246.37 -401.2)"/><path class="cls-1" d="M293.93,418.66a.44.44,0,0,1,.84-.15,7.92,7.92,0,0,1-1.4,6.7.47.47,0,0,1-.82-.45A22.15,22.15,0,0,0,293.93,418.66Z" transform="translate(-246.37 -401.2)"/></svg>