<svg id="Layer_1" data-name="Layer 1" xmlns="http://www.w3.org/2000/svg" viewBox="0 0 48.99 54.88"><defs><style>.cls-1{fill:#1f1c1d;}</style></defs><title>h-68</title><path class="cls-1" d="M298.38,411.16a5.22,5.22,0,0,0-2.46-.83,9.59,9.59,0,0,0-3.23,1.14s-.54-.54-2.88,1a15.85,15.85,0,0,1-4.67,2.1l-2,.9s-3.35-.3-3.89-.72a6.57,6.57,0,0,1-1.26-2.52,10.39,10.39,0,0,0-.42-2.76,12.77,12.77,0,0,0-.84-1.86s-.84-2.22-1.5-4.07-.54-7.37-.54-7.37v-3.06s-.77,8.93-.65,10.54-.15,5.81,0,7.49.39,4,0,5.33.41,6,.41,6l.78-.54s-.36,4.61.18,6,1.38,5.39,2.76,7.67l.18-.9a20.79,20.79,0,0,0,1.86,3.59c.6.6,5,4.91,8.39,6.29s5.75,2.46,5.75,2.46l3.12.66,1,.31,1-.31,3.12-.66s2.34-1.08,5.75-2.46,7.79-5.69,8.39-6.29a20.79,20.79,0,0,0,1.86-3.59l.18.9c1.38-2.28,2.22-6.29,2.76-7.67s.18-6,.18-6l.78.54s.84-4.61.41-6-.17-3.65,0-5.33-.13-5.87,0-7.49-.65-10.54-.65-10.54v3.06s.12,5.51-.54,7.37-1.5,4.07-1.5,4.07a12.77,12.77,0,0,0-.84,1.86,10.39,10.39,0,0,0-.42,2.76,6.57,6.57,0,0,1-1.26,2.52c-.54.42-3.89.72-3.89.72l-2-.9a15.85,15.85,0,0,1-4.67-2.1c-2.34-1.56-2.88-1-2.88-1a9.59,9.59,0,0,0-3.23-1.14A5.22,5.22,0,0,0,298.38,411.16Zm0,8.3c-1.82.09-4.68-.08-5-.08s-3.47-.9-3.47-.9a21,21,0,0,1,2.7-.9c1.26-.3,3.23-.48,3.41-.54a16.7,16.7,0,0,1,1.74,0H299a16.7,16.7,0,0,1,1.74,0c.18.06,2.16.24,3.41.54a21,21,0,0,1,2.7.9s-3.06.9-3.47.9S300.21,419.55,298.38,419.46Z" transform="translate(-273.89 -393.14)"/></svg>