<svg id="Layer_1" data-name="Layer 1" xmlns="http://www.w3.org/2000/svg" viewBox="0 0 107.07 35.02"><defs><style>.cls-1{fill:#1f1c1d;}</style></defs><title>h-93</title><path class="cls-1" d="M298.55,415.75c4.49.33,5.36,7,7.15,9.68s4.62,12.28,18.71,13.65,18.28-5.49,19.65-8,3.4-11.78,4-14.3a5.56,5.56,0,0,1,3.25-3.54l.79-6.79c-24.71-6-45.59,2.17-48.41,3.11a18.06,18.06,0,0,1-10.26,0c-2.82-.94-23.7-9.1-48.41-3.11l.79,6.79a5.56,5.56,0,0,1,3.25,3.54c.58,2.53,2.6,11.78,4,14.3s5.56,9.39,19.65,8,16.83-10.84,18.71-13.65S294.07,416.09,298.55,415.75Zm45.73,3.46c-.51,12-4.91,14.88-11.63,16.76s-15.1-.51-19.65-5.56-6.36-12.86-3.83-17.63,19.58-5.42,19.58-5.42a38.54,38.54,0,0,1,7.8.29C345.22,408.23,344.28,419.22,344.28,419.22Zm-83.73-11.56a38.54,38.54,0,0,1,7.8-.29s17.05.65,19.58,5.42.72,12.57-3.83,17.63-12.93,7.44-19.65,5.56-11.13-4.77-11.63-16.76C252.82,419.22,251.88,408.23,260.55,407.66Zm87.31,2.89c-1.46,0-2.64-.37-2.64-.83s1.18-.83,2.64-.83,2.64.37,2.64.83S349.32,410.55,347.86,410.55Zm-101.25-.83c0-.46,1.18-.83,2.64-.83s2.64.37,2.64.83-1.18.83-2.64.83S246.61,410.17,246.61,409.72Z" transform="translate(-245.02 -404.25)"/></svg>