<svg id="Layer_1" data-name="Layer 1" xmlns="http://www.w3.org/2000/svg" viewBox="0 0 84.91 129.67"><defs><style>.cls-1{fill:#1f1c1d;}</style></defs><title>h-13</title><path class="cls-1" d="M340.31,399.12c-2-1.48-3.31-1.16-3.31-1.16-9.7,4.35-19.18-1.81-29.22-6-8.35-3.48-15.28,2.93-15.28,2.93,2.68-7.74,14.74-7.29,21.74-2.94s15.52,5.74,20.92,3.94S341,388,341,388c-3.78,2.7-9,2.58-11.12,2.39,2.54.11,7.42-.25,8.73-5,1.74-6.29-5.27-9.87-5.27-9.87-.17-1.65-4.75-6.31-4.75-6.31-2.88-8.31-16.43-8-16.43-8s1.86-.35-5.35-3-16.54,2.6-20.48,6.51-5.63,5.51-5.63,5.51c1.88-2.33.6-3.92.6-3.92-.76,1.69-10.24,3.2-15.09,5s-3.61,7.36-3.61,7.36a3.92,3.92,0,0,0-5,2.23c-1.71,3.56,2.88,8.33.64,9.23s-1.21,8.71-2,12.22,1.88,14.87,1.88,14.87,1.45,2.8,2.54,5.59,2.76,16.92,2.76,16.92l.08-7.42L265,418.88c-2.92-4.11.18-16.51.18-16.51s.38-1.11,6.89-2.34,17.78,2.61,17.78,2.61l5,.8c5.59-2.54,10.42-2.48,18.4-2.77s11.83,4.4,11.83,4.4,2.52,6.71,2.08,13,2.75,19.7,2.75,19.7a19.32,19.32,0,0,0,.25-5.56c-.34-2.79,2.86-7.39,2.86-7.39s2.3-6.28,3.07-9.24a86.56,86.56,0,0,0,1.4-9.45l1.82-2.12-.74-3.14Zm-70.18-11.17c-4.91-9.15,3.48-13.11,3.48-13.11C268.42,382,270.13,387.94,270.13,387.94Zm16.78-6.81C280.57,383.35,282,392,282,392c-3.69-19,19.84-15.18,25.39-14.12s12.84-3.42,12.84-3.42c-1.89,2.8-7.31,6.75-14.9,5.48S293.24,378.92,286.9,381.13Z" transform="translate(-256.1 -357.38)"/><path class="cls-1" d="M286.92,463.3s6.46.64,9.68-1.12c3.22,1.75,9.68,1.12,9.68,1.12,7.26,2.57,12.74-2.91,12.74-2.91-6.15,2.57-15.09-8.72-17.88-7.38l-4.54,2.17L292.06,453c-2.79-1.34-11.73,9.95-17.88,7.38C274.18,460.39,279.65,465.87,286.92,463.3Z" transform="translate(-256.1 -357.38)"/><path class="cls-1" d="M329.52,431.89s-1,6.15-1.68,12.07-1.45,7.15-2.35,8.38-3.13,1.45-4.47,2.35-.89,3.13-.89,3.13c1.23,6.59-5.7,13.75-6,13.85s-3.91,5-6.26,5.6-5.7-1.23-5.92-2.79,2-5.25.78-6.37-6.1-2.13-6.1-2.13-4.87,1-6.1,2.13,1,4.81.78,6.37-3.58,3.35-5.92,2.79-5.92-5.49-6.26-5.6-7.26-7.26-6-13.85c0,0,.45-2.24-.89-3.13s-3.58-1.12-4.47-2.35-1.68-2.46-2.35-8.38-1.68-12.07-1.68-12.07,1,8.27.67,10.06a17.13,17.13,0,0,0,.67,7.49c.78,1.79,1.56,5.36,1.9,6s8,13.75,8,13.75,8.27,8.83,8.94,10.73,3.24,4.69,3.24,4.69l3.26,1.46a7.44,7.44,0,0,0,1.89.89c.47.08,2.89,0,4.31,0s3.85.06,4.31,0a7.43,7.43,0,0,0,1.89-.89l3.26-1.46s2.57-2.79,3.24-4.69,8.94-10.73,8.94-10.73,7.71-13.08,8-13.75,1.12-4.25,1.9-6a17.13,17.13,0,0,0,.67-7.49C328.51,440.16,329.52,431.89,329.52,431.89Z" transform="translate(-256.1 -357.38)"/></svg>