<svg id="Layer_1" data-name="Layer 1" xmlns="http://www.w3.org/2000/svg" viewBox="0 0 54.15 56.16"><defs><style>.cls-1{fill:#1f1c1d;}</style></defs><title>h-70</title><path class="cls-1" d="M273,439.48a37.59,37.59,0,0,0,1.22,8.15l3.26-14.34-4.48-2Z" transform="translate(-271.25 -392.42)"/><path class="cls-1" d="M324.89,429.83c-.5-4.08-1.23-7.24-1.23-7.24a6.35,6.35,0,0,0,1.22-4c-.1-2.33-1.94-2.46-3.06-4.92a3.52,3.52,0,0,0-3.57-2.13c-.31-1.33-5.1-3.26-6.83-3.16s-1.94.1-3.36-1.63-6.12-.41-9.78-2.23-2.34-8-2.34-8l-1.83,3.67c.92-2.85-1.22-6.83-1.22-6.83a8.09,8.09,0,0,1-.92,6.24v-2.42c0,3.51-2.24,4.64-2.24,4.64L288,398.83s1,6.23-2.34,3.79-1.33-8.15-1.33-8.15a25.78,25.78,0,0,0-2.55,4.37,6.64,6.64,0,0,1,3.16-6.41s-4.28,1.63-7.44,8.66c-3,6.7,1.29,10.44,1.7,10.78-3-2.35-3.94-6.6-3.94-6.6-3,9.28,0,18.5,0,18.5-2.24-2.6-3.36-9.36-3.36-9.36s-1.43,3.49,0,10.19,9.62,7.48,10,7.47a28.2,28.2,0,0,0,3.36-.31c-5.2-2.24-7.75-11.67-7.75-11.67s4,7.8,6.73,10.14,9.07,2.45,9.07,2.45c-1.73-1.43-2.34-5.5-2.75-8.92s-7.64-13.41-7.64-13.41,3,3.77,7.13,9.07,1.33,11.93,5,13.56,8.08.2,8.08.2c4.38-1.83,4.18-5.81,3.67-9.43s-9.89-11.26-9.89-11.26,3.67,2.75,9.58,7.59-.41,12.69-.41,12.69a13.44,13.44,0,0,1,8.05-2.75c4.38.2,8.77-6.27,8.77-6.27a11.91,11.91,0,0,1-5.91,6.67,42,42,0,0,0,4.08,3.36c2.85,2.14,3.16,14.78,3.16,14.78s1.22-8.26,1.22-9.1A87.12,87.12,0,0,0,324.89,429.83Z" transform="translate(-271.25 -392.42)"/></svg>