<svg id="Layer_1" data-name="Layer 1" xmlns="http://www.w3.org/2000/svg" viewBox="0 0 87.14 132.01"><defs><style>.cls-1{fill:#1f1c1d;}</style></defs><title>h-3</title><path class="cls-1" d="M280,361.38c-.31-.31-8-3.4-15.62,3.35-8.56,7.6-11.85,25-10.17,30.2s.09,11.22,2.52,18.35c2.16,6.35,5.45,9.44,5.35,13.21,0,0,1-11.22.31-16.78s1.15-15.52,1.15-15.52,0,3.67,4.72,9,12.24,9.85,15.79,11.07c.49.17-12.75-9.18-13.17-18.1A53.37,53.37,0,0,0,288,411.5c10.59,5.66,27.79,5.77,27.79,5.77s-6.33-1.32-9.49-5.56c-2-2.7-3.67-5-3.67-5s8.13,2,10.44,4.79,11.53,6.71,14.78,6.08c0,0-1.32-1.2-1.89-6.92-.45-4.56-1.47-20.24-12.06-27.26,0,0,14.78,16.15,15.31,25.27s-.63,13.11-1,16.57a33.5,33.5,0,0,0,2.41-3.72c.42-1,7.23-12.53,6.61-19.76s-8.49-8.7-11.32-15c0,0,9.65,8.18,13.42,14.78h0s1.36,2.89-.94-7.23c-1.19-5.23-2.73-14.37-6.4-15.62l5.14,2.2a47,47,0,0,1-7.76-7.23c-3.25-4-7.44-16-16.46-15.52s-10.9,0-10.9,0a47.69,47.69,0,0,1,9.54-.93,25.49,25.49,0,0,0-10.17-1.47c-5.87.31-7-2.18-15,2.62C281.65,361.12,280,361.38,280,361.38Z" transform="translate(-253.79 -355.34)"/><path class="cls-1" d="M330.9,438.84c-.93-4.53-.26-8.81-1-10.82s-.6-8.92-.6-8.92-2.1,8.66-1.45,11.31-1.32,6.42-1.33,8.63-2.48,5.54-2.63,8.08,1.67,3.69.46,6.93-7.58,5.09-7.58,5.09l-3.53,4s-3.22,4-6.66,2.18-1.82-6.05-1.82-6.05l-11.51.6c2.53,2.37,1.59,5-3.64,7.2s-9.91-3.94-11.66-6.51-7.16-3-9.49-4.76-.67-7.87-2.73-12.64-3.39-22.51-3.39-22.51l.06,12.76s-.42,3.19-.7,6.38,1.1,4.52.68,7.71-.25,5.28.83,7.26,2.41,4.36,2.68,6.08,3.27,5.68,5,7.62,2.12,3.34,3,7.08,7.25,6.8,7.25,6.8l.78-2.58c1.5,3.54,5.91,5.62,5.91,5.62l-1.2-3.88a57.46,57.46,0,0,1,3.79,4.68c1.74,2.44,10.9.21,10.9.21s3.8.11,4.94-.38c1.56-.67,5.06-4.55,5.06-4.55l.12,1.89s8-5.43,8.63-8.32,3.58-5.77,4.37-8.16-.5-6-.5-6l2.3,2.25c1.09-.23,4.19-6.13,4.77-11.71S331.83,443.37,330.9,438.84Z" transform="translate(-253.79 -355.34)"/><path class="cls-1" d="M270.77,455.51c5.73,5.32,17.64,3.59,21-.12a13,13,0,0,1,7.13-4.2l2.82,1.51c2.42,3.18,10.23,4.06,16.21,3.51s5.38-4.84,5.38-4.84c-2.63,3.28-6.69-1.17-10.54-3.84-3.62-2.51-8.83-3.32-14.28-.8-5.92-2.14-7-1.36-9.87-.95-5.73.82-8.51,6.23-13.18,7.34a6.4,6.4,0,0,1-7-3A6.38,6.38,0,0,0,270.77,455.51Z" transform="translate(-253.79 -355.34)"/></svg>