<svg id="Layer_1" data-name="Layer 1" xmlns="http://www.w3.org/2000/svg" viewBox="0 0 105.63 38.51"><defs><style>.cls-1{fill:#1f1c1d;}</style></defs><title>h-128</title><path class="cls-1" d="M298.55,412.26a34.78,34.78,0,0,1,4.55.24,15.75,15.75,0,0,0,1.69,6.65c.87,2,8.94,19.5,24.9,20.46.46,0,.93,0,1.38,0h0c13,0,17.77-11.52,18.55-18.33a25.94,25.94,0,0,0,0-6.15h1a.71.71,0,0,0,.71-.71v-1a.71.71,0,0,0-.71-.71h-1.48a14.57,14.57,0,0,0-2.94-5.86c-2.92-3.44-7.56-5.35-13.79-5.66,0,0-1.15-.07-2.95-.07a66.28,66.28,0,0,0-11.33.94l-.05-.47a.35.35,0,0,0-.38-.31c-1.83.2-10.54,1.13-17.31,1.35-.59,0-1.22,0-1.88,0s-1.28,0-1.88,0c-6.77-.22-15.48-1.15-17.31-1.35a.35.35,0,0,0-.38.31l-.05.47a66.28,66.28,0,0,0-11.33-.94c-1.79,0-2.9.07-2.95.07-6.23.31-10.87,2.21-13.79,5.66a14.57,14.57,0,0,0-2.94,5.86h-1.48a.71.71,0,0,0-.71.71v1a.71.71,0,0,0,.71.71h1a25.92,25.92,0,0,0,0,6.15c.79,6.81,5.58,18.33,18.55,18.33h0c.45,0,.91,0,1.38,0,16-1,24-18.46,24.9-20.46A15.75,15.75,0,0,0,294,412.5,34.79,34.79,0,0,1,298.55,412.26Zm0-8.38h.17l1.75,0c3.7-.12,8.23-.46,12.17-.83a.21.21,0,0,1,.09.41,19.67,19.67,0,0,0-7.11,3.88,7.8,7.8,0,0,0-2.29,3.61,43.8,43.8,0,0,0-9.57,0,7.8,7.8,0,0,0-2.29-3.61,19.67,19.67,0,0,0-7.11-3.88.21.21,0,0,1,.09-.41c3.95.37,8.47.71,12.17.83l1.75,0Zm49.88,17.31c-.74,6.41-5.23,17.27-17.37,17.27-.43,0-.87,0-1.31,0-15.25-.92-23-17.82-23.88-19.74-2.27-5.2-2.12-7.95.55-10.49,5.8-5.28,18.06-5.85,23.07-5.85,1.75,0,2.86.07,2.88.07,5.89.29,10.25,2.06,12.95,5.24C348.72,411.65,348.89,417.22,348.43,421.19Zm-96.66-13.55c2.7-3.18,7.05-4.94,12.95-5.24,0,0,1.13-.07,2.88-.07,5,0,17.27.57,23.07,5.85,2.67,2.54,2.82,5.29.55,10.49-.84,1.92-8.63,18.82-23.87,19.74-.44,0-.88,0-1.31,0-12.13,0-16.62-10.85-17.37-17.27C248.22,417.22,248.38,411.65,251.77,407.65Z" transform="translate(-245.74 -401.14)"/></svg>