<svg id="Layer_1" data-name="Layer 1" xmlns="http://www.w3.org/2000/svg" viewBox="0 0 55.41 47.23"><defs><style>.cls-1{fill:#1f1c1d;}</style></defs><title>h-55</title><path class="cls-1" d="M277.5,422a5.71,5.71,0,0,1,.13,5.49c-1.56,2.78-3.64,5.4-3.47,7.93s.79,7.7.79,7.7a37.26,37.26,0,0,1-2.59-6.29c-.57-2.38-2.42-7.83-.88-11.13a21.11,21.11,0,0,0,1.77-6.78l1.07-3,0-1.41,3.62-5.74,1.59-1.13,1.06-2.65.84,1,1.3-1.08s3.56-4.15,7.7-5.68l0,1.22s5.55-1.76,9-2.76.81,0,.81,0l2.68,1.46,1.54.57,2-.56,2.8,2.17,3.08,1.17,1.14,1.07,1.65.77,2.73,3.45,1.63.28S323.62,419,324,419.33s2.44,4.22,2.24,8.7-1.72,9-1.6,9.53-2.41,5.72-2.38,6.84l-.21-8.71c-.07-2.78-3-11.46-3-11.46s-2.45-4.5-6.59-3.34A114.81,114.81,0,0,1,299.4,423s-11.67-3.12-15.2-1.91A17.4,17.4,0,0,1,277.5,422Z" transform="translate(-270.88 -397.29)"/></svg>