<svg id="Layer_1" data-name="Layer 1" xmlns="http://www.w3.org/2000/svg" viewBox="0 0 49.93 43.18"><defs><style>.cls-1{fill:#1f1c1d;}</style></defs><title>h-82</title><path class="cls-1" d="M322.69,409.47a17.44,17.44,0,0,1-.13-6,8,8,0,0,0-.38-4l-.86,3.44-.32,2.26L318.8,416a5.93,5.93,0,0,1-3.87,3.42c-3.07,1-12.05-6-14-6.78-1.45-.56-2.66.56-3.18,1.16-.52-.6-1.73-1.73-3.18-1.16-1.94.75-10.92,7.75-14,6.78a5.93,5.93,0,0,1-3.87-3.42l-2.21-10.79-.32-2.26-.86-3.44a8,8,0,0,0-.38,4,17.44,17.44,0,0,1-.13,6c-.25,1.73,1.1,3.78,1,5.5a35.1,35.1,0,0,0,2.69,9.9c.91,1.45,2.48,2.8,2.64,3.55s4.25,5,4.52,6.4.86,3.93,2.26,5,4.2,3.07,7.43,2.85a64.83,64.83,0,0,1,8.72,0c3.23.22,6-1.83,7.43-2.85s2-3.5,2.26-5,4.36-5.65,4.52-6.4,1.72-2.1,2.64-3.55a35.1,35.1,0,0,0,2.69-9.9C321.59,413.25,322.94,411.2,322.69,409.47Zm-19,13.89a28.39,28.39,0,0,1-3.61-.27c-.74,0-1.48-.68-2.31-.12-.84-.56-1.58.08-2.31.12a28.39,28.39,0,0,1-3.61.27c-1.45-.05-3.23-2.31-3.23-2.31a9.31,9.31,0,0,0,2.15-1.68c.86-1,4.25-1.08,5.11-1a3.25,3.25,0,0,0,1.88-.65,3.25,3.25,0,0,0,1.88.65c.86-.11,4.25,0,5.11,1a9.31,9.31,0,0,0,2.15,1.68S305.13,423.31,303.67,423.36Z" transform="translate(-272.79 -399.47)"/></svg>