<svg id="Layer_1" data-name="Layer 1" xmlns="http://www.w3.org/2000/svg" viewBox="0 0 49.55 34.8"><defs><style>.cls-1{fill:#1f1c1d;}</style></defs><title>h-35</title><path class="cls-1" d="M322.4,422.57a18.66,18.66,0,0,0-2.3-5.29h2.3l-4.89-5.39a22.08,22.08,0,0,0-4.59-4.79c-2.79-2.1-11.48-3.89-11.48-3.89l.3,2.1s-2.87-.38-2.9-.68c-.07.31-.7,2.71-1,3.85-.3-1.13-.93-3.54-1-3.85,0,.3-2.9.68-2.9.68l.3-2.1s-8.68,1.8-11.48,3.89a22.08,22.08,0,0,0-4.59,4.79l-4.89,5.39h2.3a18.66,18.66,0,0,0-2.3,5.29c-.5,2.5,0,.5,0,.5l1.2-.7s-1.9,6.89-1.2,8.38,1.1,4.29,3.29,4.59l-.6-2.89a8.74,8.74,0,0,0,5.91,5.56l-.82-2.86,1.6.1s-1.9-3.79-.7-7.39a14.63,14.63,0,0,1,3-5.39l-.1,2.2s2.7-4.49,4.09-5.09l-.1,2.2s3.49-2.3,5.29-2.7l-.6,1.6,3.59-1,.3,1.2.4-.12.4.12.3-1.2,3.59,1-.6-1.6c1.8.4,5.29,2.7,5.29,2.7l-.1-2.2c1.4.6,4.09,5.09,4.09,5.09l-.1-2.2a14.63,14.63,0,0,1,3,5.39c1.2,3.59-.7,7.39-.7,7.39l1.6-.1-.82,2.86a8.74,8.74,0,0,0,5.91-5.56l-.6,2.89c2.2-.3,2.6-3.09,3.29-4.59s-1.2-8.38-1.2-8.38l1.2.7S322.9,425.06,322.4,422.57Z" transform="translate(-273.06 -403.2)"/><path class="cls-1" d="M296.84,404.62a0,0,0,0,0,0,0S296.84,404.58,296.84,404.62Z" transform="translate(-273.06 -403.2)"/><path class="cls-1" d="M298.84,404.6a0,0,0,0,0,0,0S298.85,404.57,298.84,404.6Z" transform="translate(-273.06 -403.2)"/></svg>