<svg id="Layer_1" data-name="Layer 1" xmlns="http://www.w3.org/2000/svg" viewBox="0 0 107.68 34.81"><defs><style>.cls-1{fill:#1f1c1d;}</style></defs><title>h-107</title><path class="cls-1" d="M298.57,417.67c4.81,0,4.81,2.13,8.21,9.1,3.49,7.16,6.16,10.43,15.68,11.44s13.1-2.38,16.47-5,9.18-16.6,9.9-18.44,3.55-4.41,3.55-4.41l0-5a.81.81,0,0,0-.75-.81l-12.45-.85a67.1,67.1,0,0,0-33.46,8.14c-3.48,1.85-4.91,1.54-4.91,1.54l-2.25,0-2.25,0s-1.43.31-4.92-1.53a67.11,67.11,0,0,0-33.49-8l-12.45.89a.8.8,0,0,0-.75.81l0,5s2.84,2.55,3.56,4.4,6.58,15.75,10,18.41,7,6,16.49,5,12.17-4.32,15.64-11.49C293.77,419.81,293.76,417.69,298.57,417.67Zm45.86,2c-2.44,7.48-6.73,13.73-11.64,15.78s-17.7,2.79-22.12-5.28a19.25,19.25,0,0,1-2.78-9.41c.09-4.62,3.87-11.88,18.81-12.93s16.79,2,16.79,2S346.88,412.16,344.43,419.64ZM253.61,410s1.84-3.07,16.78-2.08,18.75,8.24,18.86,12.87a19.25,19.25,0,0,1-2.75,9.42c-4.39,8.09-17.18,7.4-22.1,5.36s-9.23-8.28-11.7-15.74S253.61,410,253.61,410Z" transform="translate(-244.7 -403.67)"/></svg>