<?xml version="1.0" encoding="UTF-8"?>
<!DOCTYPE svg PUBLIC "-//W3C//DTD SVG 1.1//EN" "http://www.w3.org/Graphics/SVG/1.1/DTD/svg11.dtd">
<!-- Creator: CorelDRAW X7 -->
<svg xmlns="http://www.w3.org/2000/svg" xml:space="preserve" width="8.49987in" height="9.79543in" version="1.1" style="shape-rendering:geometricPrecision; text-rendering:geometricPrecision; image-rendering:optimizeQuality; fill-rule:evenodd; clip-rule:evenodd"
viewBox="0 0 8499 9795"
 xmlns:xlink="http://www.w3.org/1999/xlink">
 <defs>
  <style type="text/css">
   <![CDATA[
    .fil0 {fill:#373435}
   ]]>
  </style>
 </defs>
 <g id="Layer_x0020_1">
  <metadata id="CorelCorpID_0Corel-Layer"/>
  <path class="fil0" d="M7848 4818c-239,409 -630,482 -1217,178 -226,-121 -465,-223 -708,-303 4,-28 8,-56 10,-83 0,0 51,-256 -8,-666 96,-55 187,-118 272,-187l0 0c169,94 61,238 61,238 0,0 167,-70 161,-166 -7,-96 89,-219 134,-91 16,54 65,91 122,91 15,0 30,-2 44,-8 15,-5 -57,-25 -108,-146 -51,-120 70,-289 108,-116 39,173 231,102 231,102 0,0 -64,13 -109,-77 -45,-89 -51,-268 58,-313 109,-45 111,172 111,172 0,0 113,-147 68,-243 -45,-96 -129,-262 0,-288 129,-26 135,135 135,135 21,-43 32,-90 32,-138 0,-48 -11,-95 -32,-137 -16,-38 -24,-78 -24,-119 0,-60 18,-119 52,-169 254,-251 565,28 565,28 -120,-171 37,-296 37,-296 -169,-205 15,-321 15,-321 -139,-162 18,-288 18,-288 0,0 -437,-106 -755,-35 -612,137 107,266 -328,851 -327,439 -762,709 -1104,867 -216,-247 -546,-333 -777,-676 -316,-469 -22,-1024 -22,-1024 -152,653 174,937 174,937 894,-273 1133,0 1133,0 66,-164 -33,-316 -33,-316 -53,14 -107,25 -162,32 40,-81 -74,-185 -74,-185 0,2 0,4 0,6 0,79 -42,150 -111,188 -133,-11 -253,-64 -253,-225 0,-361 196,-545 403,-589 25,-4 50,-7 75,-7 9,0 18,0 27,1 2,3 81,111 31,230 0,0 130,-93 123,-203 101,24 185,47 234,-21 87,-119 0,-446 0,-446 0,0 78,-33 39,-153 -38,-119 -289,-152 -582,-65 0,0 -22,-250 -218,-294 0,0 65,-164 -131,-185 -174,-58 -358,-88 -541,-88 -11,0 -22,0 -32,0 -112,-130 -316,-256 -670,-188 0,0 -53,119 8,312 -544,177 -883,293 -954,7 0,0 -174,305 174,425 0,0 -294,98 -348,348 -55,251 -382,295 -425,77 0,0 -77,283 218,348 0,0 -218,153 -273,371 -54,218 -316,316 -403,163 0,0 77,338 349,262 0,0 -120,315 -98,642 21,327 -283,305 -338,196 0,0 0,469 403,403 0,0 142,349 -44,512 -185,163 -360,643 -360,643 0,0 348,-414 697,-338 349,76 403,-196 403,-196 0,0 98,185 -120,370 -218,185 -120,534 -120,534 0,0 131,-305 327,-305 27,-1 53,-6 78,-15 -15,79 -50,153 -101,214 -151,234 -327,453 -522,652 -18,19 -36,39 -55,60 -179,116 -463,259 -709,194 -423,-112 -799,-862 -276,-1653 524,-790 -468,-1719 -1254,-1355 -786,363 -587,1032 -457,1164 129,133 194,369 -30,374 0,0 48,153 212,74 163,-79 153,103 61,126 -92,24 -207,-17 -207,-17 17,90 91,157 182,163 162,19 122,98 68,126 -53,29 -151,-14 -223,90 0,0 135,-44 180,31 45,75 -15,188 -15,188 0,0 88,-150 123,-65 35,85 -30,132 83,205 0,0 -30,-108 9,-154 38,-45 88,-72 27,-151 -60,-79 18,-129 49,-81 18,26 27,58 27,90 0,0 0,0 0,0 0,0 144,-83 73,-204 -71,-121 -152,-155 -126,-224 25,-68 124,3 127,60 0,0 80,-157 -38,-270 -118,-112 -30,-158 22,-126 33,22 54,58 58,98 5,39 33,-227 -181,-278 -215,-51 -275,-92 -349,-207 -73,-116 -163,-442 156,-683 319,-241 719,-349 1029,-58 309,290 412,600 203,944 -210,345 -434,786 -292,1282 142,496 343,661 343,661 0,0 -108,67 -155,-49 -46,-116 -186,-61 -186,-61 69,24 121,80 141,150 25,88 106,149 197,149 21,0 43,-3 63,-10 20,-6 -120,48 -108,130 11,83 -88,100 -88,100 0,0 183,26 234,-34 52,-60 149,-117 196,-89 16,13 26,32 26,53 0,36 -29,65 -65,66 -50,4 -89,45 -89,96 0,15 4,30 11,43 17,-35 52,-58 92,-58 5,0 10,0 15,1 15,3 29,5 44,5 67,0 130,-32 169,-86 39,-54 29,94 -28,161 -57,67 12,160 12,160 7,-46 38,-85 82,-102 78,-37 134,-71 121,-158 -13,-87 92,-74 75,18 -17,93 66,159 66,159 0,0 -32,-116 34,-149 55,-28 118,-4 142,-64 37,81 91,152 158,210 305,261 -22,847 -348,543 -326,-304 -326,-282 -413,-130 -23,47 -44,96 -62,146l0 0c0,0 -157,431 -349,440 -107,0 -201,71 -231,173 -30,102 212,-87 202,86 -10,174 -173,260 -336,240 -163,-19 -250,173 -250,173 0,0 173,-125 298,67 125,192 -38,231 -125,298 -86,67 -58,364 -58,364 0,0 -7,-262 202,-201 209,60 38,144 28,336 -1,11 -1,21 -1,32 0,103 27,205 78,294 50,90 2,-281 164,-188 111,257 351,382 548,412 282,44 760,0 760,0 0,0 -43,-261 239,-217 0,0 0,-282 196,-174 0,0 -283,-217 -761,-152 -478,65 -391,-499 -305,-847 86,-349 217,-514 499,-398 247,100 724,872 1418,-500l296 208c0,0 -248,555 0,736 0,0 182,222 96,393 -54,111 -86,232 -96,355 -10,122 76,-183 192,-106 115,77 0,259 0,259 0,0 96,28 134,-86 39,-115 115,-52 96,89 -1,9 -1,18 -1,27 0,76 36,147 97,191 61,44 -51,-224 90,-174l0 0c79,187 121,162 336,162 232,0 290,255 290,255 89,-194 391,-78 391,-78 139,-182 294,-20 294,-20 232,-157 371,20 371,20 -60,-159 -133,-315 -217,-463 -123,-210 -201,-300 -782,-210 -582,90 -858,-721 -568,-1201 290,-480 662,-465 546,-623 -80,-108 -567,-398 -863,-569 164,-110 367,-343 576,-808 51,-111 96,-226 134,-342l0 1c89,51 182,97 278,135l0 0c32,13 53,44 53,78 0,10 -2,20 -5,29 -25,79 57,128 57,128 -19,-109 90,-96 135,-71 45,26 -39,135 -39,135 58,13 116,-147 167,-71 51,77 -83,122 -83,122 0,0 134,38 179,-58 44,-96 160,-32 121,77 -38,109 77,154 77,154 0,0 -38,-71 0,-111 38,-41 109,2 115,79 7,77 -83,135 -83,135 121,0 154,-90 179,-167 26,-77 173,-192 231,-94 57,99 -122,165 -122,165 262,38 538,-332 538,-332l0 0c116,-29 194,-77 219,-144 109,-305 348,-189 348,-189 -22,-166 217,-180 217,-180 -196,-174 87,-326 87,-326 -44,-217 173,-196 173,-196 0,0 -412,-391 -651,18z"/>
 </g>
</svg>
