<svg id="Layer_1" data-name="Layer 1" xmlns="http://www.w3.org/2000/svg" viewBox="0 0 335.68 335.67"><defs><style>.cls-1,.cls-2{fill:#231f20;}.cls-2{fill-rule:evenodd;}</style></defs><title>21</title><path class="cls-1" d="M1009,911.92s3,.35,3.2,2.67-1.86,3.6-3,4.3-.23,2.67,2.56,1.39,4.65-4.94,3.49-7.73a6.57,6.57,0,0,0-7-3.62C1004.87,909.64,1005.63,912.59,1009,911.92Z" transform="translate(-832.77 -832.21)"/><path class="cls-1" d="M1012.8,901.93s-12.08-2-14.41,2.79c0,0-5.58.09-7.49,1.92s-2.09,3.14-3.57,3.4-9-.17-11.59,2.18-1.83,4.71-1.74,5.93,1.83,5.31,4.53,5.4c0,0,.52-2.79,4.53-2.79s6.62.35,7.49,1.39,1.39,5.4-1.57,7.49-7.15,1.57-7.67,0-4.07-1.71-4,1.38,3.41,5.3,6.93,5,2.13,1.39-.78,2.32-17.89,9.82-18.41,26.9c0,0,4-4.09,8.89-4.53,0,0-1.22-12.37,8.71-15.86,0,0-17.63,20,8.52,26.67,0,0-2.48-7-2-13.65s7.78-17,17.08-18.12c0,0-14.52,9.18-13.36,18.24s8.95,14.64,8.95,14.64-.7-4.5,6.88-15.22,7.84-13.77,7.49-24.49a4.94,4.94,0,0,1,2.58,4.18c.35,3.25,1.28,11.36-2.09,15.42s-9.53,13.48-9.53,13.48,14.35,1,18.36-11.74,1.28-27.83-5.81-33c0,0,4.53.23,6.57,3.2s1.39,7.15,2.61,7.2S1034.41,906.58,1012.8,901.93Zm-18.17,11.4c-1,.43-4.61,1.43-4.9-.82-.33-2.57,2.73-2.27,2.73-2.27a7,7,0,0,0,4.18-1.79C997,910.12,996.13,912.69,994.64,913.34Z" transform="translate(-832.77 -832.21)"/><path class="cls-1" d="M995.61,970.42s.52,4,2,5.4c0,0-10.6-.93-15.13-4.07s-5.69-7.44-8.6-7.55-7.73,4.07-13,8.36-10.46,8.83-16,9.18-4-6.5-7.14-7-9.06,4.88-7.2,8.48c0,0,2.09-2.55,3.72-1.63s2.32,3.14,1,3.6-5.69.58-4.65,5.23,4.18,5.11,5.69,5c0,0-4.3-5.46,1.16-6,0,0-.93,9.32,7.9,6.06,0,0-2.67-1.06-2.9-3.38s1.39-3,4.07-3,4,.93,4,2.32a3.62,3.62,0,0,1-1.28,2.44s3.72.93,5.34-.7,4.88-7.9,7-7.67-1.28,4.76-1.28,4.76,4.07.23,5.46-1.63,2.67-5.34,4.18-5.11.23,5.46.23,5.46a5.54,5.54,0,0,0,4.65-2.32c1.86-2.56,1.39-5,3.37-4.88s13.25,15.86,20.56,20.39,21.61,9.58,21.78,16.56-11.44,13.36-9.35,20.33,13,9.53,13.25,15.1-5,17.2-8.48,16.85-.23-6.74-2.33-7.79-10.11.93-10.92,7.09c0,0,4.18-2.56,5.58-1.16s2,4.76.23,5.11-9.41,4.59-1.13,8.95c0,0-.44-3.92,3.49-3.57s1.74,5.58,5.23,6.8,5.05-.7,5.05-.7-2.18-.7-2.09-1.92.65-2.44,2-2.61,2.7-2.18,3-4.84,2.08-6.29,4.58-6.75,8.07-1.57,10-4.76c0,0-3.63.49-3.54-1.16s3.57-1.74,5.32-3.14,4.62-4.71,5.23-6.62c0,0-3.34,1.16-4.39-.23s7-7.67,5.34-12.55a6.17,6.17,0,0,1-4.53,2c-3.25.23-7.32-2.91-8.36-4.65s-2.44-4.65,1.51-7.79,7.2-5.46,7.55-7,.81-3.37,1.63-3,4.12,4,10,3.25,11-6.1,10.63-13.59-5.05-14.29-11.15-19.52-16-12.66-16.5-16.15-.41-9.64.35-10.81,2.61-1.45,2.61.41,1.07,11.47,6.56,15.74,9.41,0,9.67-1.66c0,0-2.09,1-3.05-.87s.35-16.56-5.14-19.78-14.2-1.92-15.08,6.36.35,16.06,7.55,22.8,17.31,15.8,17.54,23.24-5.93,7.9-8.6,4.07-2.67-7.67-5.46-10.92-23-17.78-25.21-21.61-3.25-13.36-3.25-13.36-4.22.71-5.58.7c-1.74,0-4.95-.29-4.95-.29s-.71,6.54.42,8.45C1005.72,977.13,996.65,974.25,995.61,970.42Z" transform="translate(-832.77 -832.21)"/><path class="cls-1" d="M1000,1006.32s-12.37,9.06-11.33,13.94,4.53,8,4.71,11-11.76,13.94-16.82,11.68-1.66-3.37-1-3.66,1.45-6.33-2.32-6.74-7.84,0-8.89,2.79c0,0,4-.35,4.53.81s1.28,4.53-1,4.65-3-1.74-4.41-1.51-6.16,4.88-4.3,8.48c0,0,3.63-2.73,5.55-1.68s3,1.83,2.35,2.61-3,2.7-1.83,5.4a13.23,13.23,0,0,0,3.66,4.53s.26-6,2.35-5.49,1.13,2.18,1.13,2.18,3,.52,4.36-1.92,1.17-3.31,2.63-3.31,7.82-1.22,8.69.26,4.56,2.06,8.63.67c0,0-2.09-1.39-1.74-2.32s12.32,1.28,13.48-1c0,0-6.39-2.44-4.76-4.53s4.31,1.09,6-1.16c0,0-2.56-.12-2.56-4.53s.81-6.74,3.83-9.41,5.69-4.65,5.34-9.53S1000,1006.32,1000,1006.32Z" transform="translate(-832.77 -832.21)"/><path class="cls-1" d="M970.16,943.87a30.88,30.88,0,0,1-9.06-1c-4.18-1.28-14.64-9.64-14.41-12.9s.38-4.82,2.29-5,.72-5.32-2.3-6.19-7.9-.26-8.25,1.57c0,0,2.09-.61,2.53.39s-.44,3.35-.44,3.35-2.53-3.31-5.32-3.35-7.41,5.45-4.09,8.41c0,0,2.35-3.75,3.66-3s2.35,3.31,1,3.4-2.79-.26-3.31.7-1.92,6.62,2.87,6.36c0,0,.26-1.92,1.83-2.09a3,3,0,0,1,3.4,2.53c.44,1.83-1.66,4.44-3.92,3.48a10.29,10.29,0,0,0,6.94,5.67c5.11,1.16,6.16,1.39,6,2.79s-2.32,2.21-3,1.51,2.09,3.84,6.39,4.42,3.83,1.16,3.72,1.86-3.6.7-3.6.7,1.16,4.18,9.29,3.37C962.38,960.84,963.42,947.59,970.16,943.87Z" transform="translate(-832.77 -832.21)"/><path class="cls-2" d="M881.93,881.37a167.84,167.84,0,1,0,118.68-49.16A166.72,166.72,0,0,0,881.93,881.37Zm6.35,231a158.86,158.86,0,1,1,112.33,46.53A157.81,157.81,0,0,1,888.29,1112.38Z" transform="translate(-832.77 -832.21)"/><path class="cls-2" d="M923.29,922.73a109.44,109.44,0,0,1,181.93,45.32H1109a113,113,0,0,0-216.73,0H896A108.83,108.83,0,0,1,923.29,922.73Zm154.63,154.64A109.43,109.43,0,0,1,896,1032h-3.75a113,113,0,0,0,216.73,0h-3.75A108.83,108.83,0,0,1,1077.93,1077.37Z" transform="translate(-832.77 -832.21)"/><polygon class="cls-1" points="72.67 252.1 81.98 253.79 75.44 260.64 76.71 270.02 68.18 265.92 59.65 270.02 60.91 260.64 54.37 253.79 63.69 252.1 68.18 243.77 72.67 252.1"/><polygon class="cls-1" points="118 283.98 127.39 282.71 123.28 291.24 127.39 299.77 118 298.5 111.16 305.04 109.46 295.73 101.13 291.24 109.46 286.75 111.16 277.44 118 283.98"/><polygon class="cls-1" points="168.22 299.98 176.7 295.9 175.44 305.22 181.94 312.03 172.69 313.72 168.22 322 163.76 313.72 154.5 312.03 161 305.22 159.74 295.9 168.22 299.98"/><polygon class="cls-1" points="218.42 283.98 225.26 277.44 226.96 286.75 235.29 291.24 226.96 295.73 225.26 305.04 218.42 298.5 209.03 299.77 213.14 291.24 209.03 282.71 218.42 283.98"/><polygon class="cls-1" points="263.12 250.99 267.57 242.7 272.04 250.98 281.3 252.66 274.81 259.48 276.06 268.8 267.57 264.72 259.1 268.8 260.36 259.48 253.85 252.66 263.12 250.99"/><polygon class="cls-1" points="72.67 83.58 81.98 81.88 75.44 75.03 76.71 65.65 68.18 69.76 59.65 65.65 60.91 75.03 54.37 81.88 63.69 83.58 68.18 91.91 72.67 83.58"/><polygon class="cls-1" points="118 51.7 127.39 52.96 123.28 44.43 127.39 35.9 118 37.17 111.16 30.63 109.46 39.94 101.13 44.43 109.46 48.92 111.16 58.24 118 51.7"/><polygon class="cls-1" points="168.22 35.7 176.7 39.77 175.44 30.45 181.94 23.64 172.69 21.95 168.22 13.67 163.76 21.95 154.5 23.64 161 30.45 159.74 39.77 168.22 35.7"/><polygon class="cls-1" points="218.42 51.7 225.26 58.24 226.96 48.92 235.29 44.43 226.96 39.94 225.26 30.63 218.42 37.17 209.03 35.9 213.14 44.43 209.03 52.96 218.42 51.7"/><polygon class="cls-1" points="263.12 84.69 267.57 92.97 272.04 84.69 281.3 83 274.81 76.2 276.06 66.87 267.57 70.95 259.1 66.87 260.36 76.2 253.85 83 263.12 84.69"/></svg>