<svg id="Layer_1" data-name="Layer 1" xmlns="http://www.w3.org/2000/svg" viewBox="0 0 296.8 300.89"><defs><style>.cls-1{fill:#231f20;}</style></defs><title>17</title><path class="cls-1" d="M1012.87,909.06s3.34.39,3.6,3-2.1,4.06-3.41,4.85-.26,3,2.88,1.57,5.24-5.57,3.93-8.71a7.4,7.4,0,0,0-7.93-4.08C1008.17,906.49,1009,909.81,1012.87,909.06Z" transform="translate(-851.45 -851.36)"/><path class="cls-1" d="M1017.12,897.79s-13.63-2.23-16.25,3.14c0,0-6.29.1-8.45,2.16s-2.36,3.54-4,3.83-10.12-.2-13.07,2.46-2.06,5.31-2,6.68,2.06,6,5.11,6.09c0,0,.59-3.14,5.11-3.14s7.47.39,8.45,1.57,1.57,6.09-1.77,8.45-8.06,1.77-8.65,0-4.59-1.93-4.45,1.55,3.84,6,7.82,5.59,2.4,1.57-.87,2.62-20.18,11.07-20.77,30.33c0,0,4.52-4.62,10-5.11,0,0-1.38-14,9.83-17.88,0,0-19.88,22.6,9.61,30.07,0,0-2.8-7.93-2.28-15.39s8.78-19.13,19.26-20.44c0,0-16.38,10.35-15.07,20.57s10.09,16.51,10.09,16.51-.79-5.08,7.76-17.16,8.84-15.53,8.45-27.61c0,0,2.52,1,2.91,4.72s1.44,12.81-2.36,17.39-10.74,15.2-10.74,15.2,16.18,1.11,20.7-13.23,1.44-31.38-6.55-37.21c0,0,5.11.26,7.4,3.6s1.57,8.06,2.95,8.12S1041.49,903,1017.12,897.79Zm-20.48,12.86c-1.12.48-5.19,1.61-5.52-.92-.37-2.9,3.08-2.55,3.08-2.55a7.9,7.9,0,0,0,4.72-2C999.36,907,998.32,909.93,996.64,910.65Z" transform="translate(-851.45 -851.36)"/><path class="cls-1" d="M997.73,975s.59,4.52,2.26,6.09c0,0-12-1-17.06-4.59s-6.42-8.38-9.69-8.51-8.71,4.59-14.61,9.43-11.79,10-18.08,10.35-4.52-7.33-8.06-7.86-10.22,5.5-8.12,9.56c0,0,2.36-2.88,4.19-1.83s2.62,3.54,1.18,4.06-6.42.66-5.24,5.9,4.72,5.76,6.42,5.63c0,0-4.85-6.16,1.31-6.81,0,0-1,10.51,8.91,6.83,0,0-3-1.19-3.27-3.82s1.57-3.41,4.58-3.41,4.45,1,4.45,2.62a4.08,4.08,0,0,1-1.44,2.75s4.19,1,6-.79,5.5-8.91,7.86-8.65-1.44,5.37-1.44,5.37,4.59.26,6.16-1.84,3-6,4.72-5.76.26,6.16.26,6.16a6.24,6.24,0,0,0,5.24-2.62c2.1-2.88,1.57-5.63,3.8-5.5s14.94,17.88,23.19,23,24.37,10.81,24.56,18.67-12.9,15.07-10.55,22.93,14.67,10.74,14.94,17-5.63,19.39-9.56,19-.26-7.6-2.62-8.78-11.4,1-12.31,8c0,0,4.72-2.88,6.29-1.31s2.23,5.37.26,5.76-10.61,5.17-1.28,10.09c0,0-.49-4.42,3.93-4s2,6.29,5.9,7.66,5.7-.79,5.7-.79-2.46-.79-2.36-2.16.74-2.75,2.21-2.95,3-2.46,3.34-5.45,2.34-7.09,5.16-7.61,9.1-1.77,11.27-5.37c0,0-4.09.56-4-1.31s4-2,6-3.54,5.21-5.3,5.9-7.47c0,0-3.77,1.31-4.95-.26s7.86-8.65,6-14.15c0,0-1.44,2-5.11,2.23s-8.25-3.28-9.43-5.24-2.75-5.24,1.7-8.78,8.12-6.16,8.52-7.86.92-3.8,1.84-3.41,4.65,4.46,11.33,3.67,12.38-6.88,12-15.33-5.7-16.11-12.58-22-18.08-14.28-18.6-18.21-.46-10.87.39-12.18,2.95-1.64,2.95.46,1.21,12.94,7.4,17.75,10.61,0,10.91-1.87c0,0-2.36,1.08-3.44-1s.39-18.67-5.8-22.31-16-2.16-17,7.17.39,18.11,8.52,25.71,19.52,17.82,19.78,26.2-6.68,8.91-9.7,4.59-3-8.65-6.16-12.32-25.94-20-28.43-24.37-3.67-15.07-3.67-15.07-4.76.8-6.29.78c-2,0-5.58-.33-5.58-.33s-.81,7.37.47,9.53C1009.13,982.59,998.91,979.35,997.73,975Z" transform="translate(-851.45 -851.36)"/><path class="cls-1" d="M1002.65,1015.51s-14,10.22-12.77,15.72,5.11,9,5.31,12.38-13.27,15.72-19,13.17-1.87-3.8-1.08-4.12,1.64-7.14-2.62-7.6-8.84,0-10,3.14c0,0,4.46-.39,5.11.92s1.44,5.11-1.18,5.24-3.41-2-5-1.7-6.94,5.5-4.85,9.56c0,0,4.09-3.08,6.25-1.9s3.34,2.06,2.65,2.95-3.44,3-2.06,6.09a14.93,14.93,0,0,0,4.13,5.11s.29-6.78,2.65-6.19,1.28,2.46,1.28,2.46,3.34.59,4.91-2.16,1.32-3.73,3-3.73,8.82-1.37,9.8.29,5.14,2.33,9.73.75c0,0-2.36-1.57-2-2.62s13.89,1.44,15.2-1.18c0,0-7.2-2.75-5.37-5.11s4.86,1.23,6.81-1.31c0,0-2.88-.13-2.88-5.11s.92-7.6,4.32-10.61,6.42-5.24,6-10.74S1002.65,1015.51,1002.65,1015.51Z" transform="translate(-851.45 -851.36)"/><path class="cls-1" d="M969,945.09a34.82,34.82,0,0,1-10.22-1.18c-4.72-1.44-16.51-10.87-16.25-14.54s.43-5.44,2.59-5.63.81-6-2.59-7-8.9-.29-9.3,1.77c0,0,2.36-.69,2.85.44s-.49,3.78-.49,3.78-2.85-3.73-6-3.78-8.35,6.14-4.62,9.48c0,0,2.65-4.23,4.13-3.34s2.65,3.73,1.08,3.83-3.14-.29-3.73.79-2.16,7.47,3.24,7.17c0,0,.29-2.16,2.06-2.36a3.43,3.43,0,0,1,3.83,2.85c.49,2.06-1.87,5-4.42,3.93a11.6,11.6,0,0,0,7.83,6.39c5.76,1.31,6.94,1.57,6.81,3.14s-2.62,2.49-3.41,1.7,2.36,4.33,7.21,5,4.32,1.31,4.19,2.09-4.06.79-4.06.79,1.31,4.71,10.48,3.8C960.26,964.22,961.44,949.28,969,945.09Z" transform="translate(-851.45 -851.36)"/><path class="cls-1" d="M1121.3,982.41c-11.74-32.63-.76-73.26,6.68-90.2,8.26-18.81,12.32-29.87-.37-38.6-6.27-4.31-13.67-1.72-23.89,1.86-9.35,3.28-22.16,7.76-39.69,9.61-31.76,3.34-58.29-10.49-58.79-10.75a22.14,22.14,0,0,0-10.76,0c-.27.13-26.84,14.13-58.81,10.75-17.52-1.85-30.33-6.33-39.68-9.61-10.25-3.59-17.64-6.17-23.91-1.86-12.68,8.73-8.62,19.79-.36,38.6,7.43,16.94,18.4,57.57,6.68,90.2-3.29,9.15-7.42,17.23-11.42,25-10.32,20.14-20.07,39.18-13.3,70.59,11.06,51.36,68.65,57,90.32,59.14,32.16,3.16,49.9,13.83,50.05,13.92a7.49,7.49,0,0,0,4,1.14,7.63,7.63,0,0,0,1.79-.22,7.75,7.75,0,0,0,1.81.22,7.45,7.45,0,0,0,4-1.14c.18-.11,17.57-10.73,50-13.92,21.69-2.13,79.27-7.78,90.33-59.14,6.77-31.41-3-50.44-13.29-70.59C1128.72,999.64,1124.58,991.56,1121.3,982.41Zm10.15,92.62c-7.76,36.06-43.42,44.32-77.25,47.64-29.66,2.92-48.26,11.62-54.35,14.88-6.07-3.26-24.68-12-54.34-14.88-33.84-3.33-69.48-11.58-77.26-47.64-5.69-26.42,2.14-41.7,12-61,4.22-8.22,8.57-16.71,12.17-26.73,13.22-36.8,1.79-80.68-7.05-100.81-6.46-14.71-6.8-18.54-6.43-19.51a4.18,4.18,0,0,1,1.09-1c2,.11,6.89,1.84,10.92,3.25,9.48,3.32,23.82,8.34,43.09,10.37,32.12,3.39,58.72-8.14,65.77-11.57,7,3.43,33.59,15,65.78,11.57,19.27-2,33.6-7.05,43.09-10.37,4-1.4,9-3.13,10.92-3.25.9.67,1.08.94,1.09,1,.37,1,0,4.8-6.42,19.51-8.85,20.13-20.28,64-7.06,100.81,3.61,10,8,18.51,12.16,26.73C1129.31,1033.33,1137.14,1048.61,1131.44,1075Z" transform="translate(-851.45 -851.36)"/></svg>