<?xml version="1.0" encoding="UTF-8"?>
<!DOCTYPE svg PUBLIC "-//W3C//DTD SVG 1.1//EN" "http://www.w3.org/Graphics/SVG/1.1/DTD/svg11.dtd">
<!-- Creator: CorelDRAW X7 -->
<svg xmlns="http://www.w3.org/2000/svg" xml:space="preserve" width="8.5in" height="11in" version="1.1" style="shape-rendering:geometricPrecision; text-rendering:geometricPrecision; image-rendering:optimizeQuality; fill-rule:evenodd; clip-rule:evenodd"
viewBox="0 0 8500 11000"
 xmlns:xlink="http://www.w3.org/1999/xlink">
 <defs>
  <style type="text/css">
   <![CDATA[
    .fil0 {fill:black;fill-rule:nonzero}
   ]]>
  </style>
 </defs>
 <g id="Layer_x0020_1">
  <metadata id="CorelCorpID_0Corel-Layer"/>
  <path class="fil0" d="M6579 5557c-6,-212 -185,-408 -435,-476 -195,-53 -451,-163 -657,-389 17,-15 33,-32 47,-52 23,-35 42,-75 53,-121 2,-6 3,-11 4,-17 1,-3 2,-6 2,-9l1 -11c1,-7 2,-14 2,-22 0,-4 1,-5 1,-7l1 -6 1 -6 1 -3 0 -1 0 0c1,5 -1,-8 -1,-7l0 -2c0,-5 0,-11 0,-16 0,-12 0,-22 -1,-33 -2,-44 -9,-83 -16,-116 -7,-33 -15,-60 -21,-81 -4,-10 -7,-20 -9,-21l0 0 0 -1 -1 -3 -2 -6 -2 -6 0 -1c0,2 -1,-6 1,5l0 -1 0 0 -1 -1c-1,-2 -2,-5 -4,-8 -7,-13 -14,-26 -21,-39 -8,-15 -16,-32 -24,-51 -8,-20 -15,-41 -21,-63 -2,-5 -3,-11 -5,-16 -1,-6 -2,-11 -3,-17 -2,-6 -3,-12 -4,-17 -1,-6 -2,-11 -3,-17 -2,-12 -3,-22 -4,-33 -2,-11 -3,-21 -4,-30 0,-5 0,-9 -1,-14 0,-4 -1,-9 0,-13 0,-8 0,-15 0,-22 0,-5 0,-11 0,-14 0,-3 0,-5 0,-5 0,0 -2,0 -5,-1 -3,0 -8,-2 -14,-3 -6,-1 -13,-2 -21,-4 -9,-1 -19,-1 -30,0 -5,0 -12,0 -18,1 -6,1 -12,2 -18,3 -14,1 -27,5 -41,9 -15,4 -29,11 -45,18 -15,7 -30,16 -46,26 -30,21 -61,48 -87,82 -26,34 -49,75 -65,121 -15,46 -24,97 -24,150 0,13 1,27 2,40l0 6 0 1 1 0c2,11 0,4 1,6l0 2 0 6 1 6 0 3 0 2 1 2c6,32 11,53 18,74 13,43 29,77 44,104 16,27 31,48 46,64 3,4 7,8 11,11l5 6 1 0c0,2 -3,-11 -1,-6l0 1 0 0 2 3 3 5 3 5c1,1 2,4 3,3 1,0 3,0 4,0l3 0 2 2c2,1 4,2 6,4 14,11 29,24 42,38 14,14 27,29 37,45 3,4 5,8 7,12 9,-17 16,-35 25,-53 8,-21 16,-42 22,-63 7,-21 12,-42 17,-63 2,-10 4,-20 6,-30 2,-11 3,-20 4,-30 1,-10 2,-19 3,-29 1,-9 1,-18 2,-26 0,-9 1,-17 1,-25 0,-8 0,-15 0,-22 -1,-14 -1,-27 -2,-37 -2,-20 -3,-31 -3,-31 0,0 3,11 8,31 3,9 6,21 9,35 1,8 2,15 4,23 1,8 2,16 3,25 1,9 3,18 4,27 0,10 1,20 1,30 1,10 1,21 1,31 0,11 1,22 0,33 -1,23 -2,46 -6,69 -2,24 -8,47 -12,71 -6,24 -11,47 -19,70 -7,23 -17,45 -25,67 -2,3 -3,6 -5,10 2,0 3,1 5,1 4,1 8,1 12,2 5,0 10,1 15,1 3,0 5,-1 8,-1 231,271 527,400 750,461 215,58 331,220 336,349 3,97 -55,170 -162,207 -168,58 -338,45 -475,13 -44,-139 -122,-250 -269,-345l0 0c-2,-1 -4,-2 -6,-3 -35,-23 -74,-44 -117,-65 -40,-19 -78,-37 -115,-54 -28,-10 -55,-18 -82,-24 -113,-28 -226,-28 -337,9 74,-42 155,-66 239,-75 -146,-83 -264,-188 -346,-396 -31,-78 -69,-146 -111,-205 -5,-166 28,-415 10,-556 -1,-9 -3,-17 -4,-25l-320 -118 304 31c-47,-215 -142,-381 -266,-501l-356 -34 266 -41c-189,-137 -426,-185 -659,-152 0,0 20,-173 -127,-282 0,0 -86,286 -622,463 -75,25 -85,145 -85,145l-48 12 -224 162c-21,7 -29,32 -17,50l45 64 25 -9 -9 42 52 88c8,12 24,14 35,5 41,-33 136,-96 177,-1 25,57 19,131 -47,186 -11,9 -23,17 -35,24l71 118 199 -62c56,-19 97,-19 132,-10l4 -1 23 -2c61,-5 122,-6 182,-6l90 1 45 0 21 -1c1,-2 1,-4 1,-7 0,-10 1,-21 1,-32 0,-21 0,-43 -2,-64 -1,-11 -2,-22 -3,-33 -1,-10 -2,-21 -4,-32 -3,-22 -7,-43 -11,-66 6,10 11,20 16,30 5,10 9,20 14,31 8,21 15,42 21,64 6,22 10,45 14,68 1,11 2,22 3,34 1,10 1,20 1,29 1,2 1,4 1,5l0 22 -25 4c-26,3 -52,6 -78,8 -35,2 -70,3 -104,4l-90 1 -22 0c-33,27 -159,142 -222,352 -1,3 -1,6 -2,9 -2,18 -4,35 -6,53 -1,8 -1,16 -2,24 0,10 -1,19 -1,28 0,17 -1,34 -1,50 0,16 0,31 1,45 1,14 1,26 2,38 1,11 1,22 3,30 1,17 2,27 2,27 0,0 -6,-8 -15,-23 -4,-7 -9,-16 -14,-28 -1,-3 -3,-6 -4,-9 -1,-3 -2,-5 -4,-8 -2,-7 -4,-13 -7,-20 -2,-7 -5,-15 -7,-22 -2,-8 -4,-16 -5,-25 -3,-8 -4,-17 -5,-25 -2,-9 -3,-17 -4,-25l-138 76c-44,31 -84,65 -117,106 16,-33 36,-64 58,-93l-152 34c-84,8 -173,23 -249,62 29,-21 60,-38 93,-53l-142 9 -81 -106c-73,-96 -205,-124 -311,-66l-9 5 26 7c25,7 45,26 53,51l15 51c55,-22 117,-2 148,47l30 48 -22 10 -14 -20c-37,-55 -111,-71 -169,-37 53,46 94,103 120,167l34 82c9,22 23,41 43,55 32,23 74,31 114,18l24 -7c31,-10 63,-15 95,-15l178 9c-23,-14 -45,-29 -66,-46 78,36 107,52 190,59l0 2 119 8c21,1 41,-2 60,-9 28,-10 75,-27 136,-44 25,101 64,211 122,331 0,0 10,-117 49,-244 27,43 57,83 89,121 1,-1 2,-2 2,-3 9,-17 20,-34 31,-50 11,-16 21,-31 33,-45 0,-1 1,-2 1,-2 12,-16 25,-30 37,-43 12,-14 25,-26 37,-38 13,-11 25,-21 36,-30 11,-10 23,-17 33,-24 9,-7 18,-12 25,-17 8,-4 14,-7 18,-9 4,-3 6,-4 6,-4 0,0 -1,2 -2,4 -3,4 -7,10 -13,19 -9,14 -23,33 -40,57 -16,23 -35,49 -55,78 -10,14 -21,29 -31,44 -10,15 -21,31 -31,46 -10,15 -20,31 -30,46 -4,7 -8,13 -12,19 -6,9 -12,18 -17,26 -19,30 -37,58 -51,82 -4,6 -8,11 -11,17l-49 134c-14,51 -22,103 -20,156 -10,-35 -15,-72 -17,-108l-93 124c-58,62 -116,131 -148,210 8,-34 21,-68 36,-101l-102 100 -130 -27c-118,-25 -236,40 -278,152l-4 10 24 -11c23,-11 51,-10 73,4l46 28c26,-52 86,-77 142,-60l54 17 -10 22 -23 -7c-65,-17 -131,19 -152,82 69,1 138,18 200,49l79 39c21,11 44,17 68,14 40,-3 77,-25 99,-61l13 -21c16,-27 37,-52 62,-73l140 -110c-26,5 -53,8 -80,8 83,-23 116,-30 183,-79l1 2 96 -72c16,-13 29,-28 39,-46 25,-46 83,-145 172,-254 59,30 117,53 171,71 11,3 21,6 32,10 -48,-53 -87,-113 -112,-180 58,89 137,153 234,197 15,7 31,14 48,21 161,29 326,46 445,100l-126 216 1 0c-50,83 -72,184 -51,279 -21,-39 -33,-82 -39,-126l-52 90c-63,107 -54,241 21,339l147 189c3,5 7,11 10,17 31,49 49,107 44,165 -7,-32 -20,-62 -39,-89 -4,11 -10,22 -18,31l-73 87c-30,47 -57,99 -67,153 -2,-24 -1,-50 2,-75l-73 87 -131 -26c-119,-24 -238,42 -279,156l-4 10 24 -11c24,-12 52,-10 74,3l46 28c26,-52 86,-79 143,-62l55 17 -10 22 -24 -6c-65,-17 -132,20 -153,84 71,0 140,16 203,47l79 39c19,9 40,15 60,14 44,-1 85,-24 108,-63l13 -22c17,-27 38,-52 63,-74l59 -56c-30,9 -60,15 -91,17 81,-25 153,-79 216,-136l201 -191c44,-42 48,-110 9,-156l-49 -57c-73,-86 -59,-214 29,-284l1 0c1,-2 2,-3 3,-4 14,-18 30,-37 49,-56 12,-11 25,-22 38,-33 9,-7 18,-14 27,-21 24,-17 50,-33 78,-48 11,-5 22,-11 33,-16 3,-2 7,-4 10,-5 8,-4 15,-7 22,-10 8,-3 15,-6 22,-9 30,-13 61,-24 91,-34 61,-21 121,-40 176,-62 13,-5 27,-10 39,-16 13,-5 27,-12 38,-17 24,-12 45,-25 64,-39 18,-14 33,-29 45,-43 12,-15 20,-29 26,-42 5,-13 7,-23 9,-31 1,-7 1,-11 1,-11 0,0 0,4 0,12 0,7 -2,18 -5,32 -4,13 -10,30 -21,47 -10,17 -25,34 -42,51 -18,18 -39,34 -62,50 -12,8 -23,15 -36,23 -13,7 -26,14 -39,22 -53,29 -111,56 -168,84 -28,14 -56,28 -82,43 -7,4 -13,8 -20,12 -6,4 -12,7 -19,11 -12,8 -23,16 -35,24 -23,16 -44,33 -62,50 -8,8 -16,15 -23,23 169,186 384,327 626,406 63,21 118,60 158,111 53,49 97,109 111,178 -14,-25 -32,-47 -53,-67 4,13 7,26 9,40l11 227c9,63 32,128 80,170 -28,-10 -53,-27 -74,-47l6 130 -115 70c-104,63 -146,192 -100,304l4 9 10 -24c10,-25 31,-42 57,-48l53 -10c-17,-57 10,-117 63,-142l52 -26 7 24 -21 11c-60,32 -84,104 -56,165 52,-47 113,-82 181,-102l85 -25c22,-6 42,-17 57,-34 29,-30 42,-73 34,-116l-5 -24c-7,-32 -8,-64 -5,-97l16 -230c-29,32 -64,59 -104,75 74,-59 105,-161 116,-253l16 -230c-12,-76 -52,-145 -113,-193l-19 -15c-45,-35 -83,-77 -113,-124 4,62 19,123 54,171 -98,-85 -123,-243 -126,-368 -2,-12 -4,-25 -4,-37l-11 -171c-7,-114 -15,-215 -30,-305 144,25 313,28 485,-31 32,-11 61,-25 88,-41 108,-66 169,-173 164,-298zm-3474 -1939l0 0c-32,28 -80,25 -108,-7l-14 -16c-11,-13 -5,-31 10,-36l219 -73 -107 132z"/>
 </g>
</svg>
