<?xml version="1.0" encoding="UTF-8"?>
<!DOCTYPE svg PUBLIC "-//W3C//DTD SVG 1.1//EN" "http://www.w3.org/Graphics/SVG/1.1/DTD/svg11.dtd">
<!-- Creator: CorelDRAW X7 -->
<svg xmlns="http://www.w3.org/2000/svg" xml:space="preserve" width="8.5in" height="11in" version="1.1" style="shape-rendering:geometricPrecision; text-rendering:geometricPrecision; image-rendering:optimizeQuality; fill-rule:evenodd; clip-rule:evenodd"
viewBox="0 0 8500 11000"
 xmlns:xlink="http://www.w3.org/1999/xlink">
 <defs>
  <style type="text/css">
   <![CDATA[
    .fil0 {fill:#373435;fill-rule:nonzero}
   ]]>
  </style>
 </defs>
 <g id="Layer_x0020_1">
  <metadata id="CorelCorpID_0Corel-Layer"/>
  <path class="fil0" d="M6320 4104l2 -54c1,-26 15,-50 37,-63l23 -14 -10 -2c-117,-28 -237,34 -283,146l-50 123 -552 115 -302 -57c-100,-240 -271,-310 -271,-310 47,-72 104,-120 226,-86l203 50 64 -122c-13,-6 -25,-13 -37,-22 -69,-51 -95,-132 -58,-182 37,-50 123,-50 192,1 2,2 4,4 7,6l60 -115 10 -64 25 7 41 -67c12,-18 2,-43 -19,-49l-234 -148 -48 -10c0,0 -39,-96 -115,-116 -545,-146 -771,-379 -771,-379 -16,128 13,242 13,242 -470,-40 -727,217 -855,445 0,0 92,-16 155,31 0,0 -256,10 -284,422 -12,169 -21,272 -132,428 0,0 218,-18 263,-13 0,0 -74,70 -91,223 -10,97 -14,216 -14,336 -7,58 -9,120 -5,186 26,359 -149,520 -345,764 -88,110 -140,210 -164,307 -108,92 -244,176 -409,213 -126,27 -225,-10 -279,-106 -73,-128 -55,-354 119,-537 185,-195 401,-502 460,-914 1,0 2,0 2,-1 15,0 29,-2 44,-5 34,-8 63,-23 89,-45 25,-21 46,-49 59,-81l2 -6 1 -2 1 -3 0 -2 2 -5c0,-1 0,-3 1,-5 1,-5 2,-10 3,-15l2 -12c1,-17 0,-34 -2,-51 -2,-11 -5,-22 -9,-33 -2,-14 -6,-27 -12,-41 -10,-21 -24,-40 -44,-58 -19,-15 -43,-28 -67,-36 -24,-7 -49,-11 -72,-14 -22,-2 -45,-4 -66,-6 -11,-1 -21,-2 -30,-4 -4,0 -10,-1 -15,-2l-4 -1 -3 -1 -7 -2c-35,-9 -67,-28 -92,-48 -6,-5 -12,-10 -18,-16 -3,-4 -6,-9 -8,-14l-6 -11c-2,-3 -4,-7 -6,-12 -2,-4 -4,-8 -6,-13l-1 -3 -1 -1 0 -1 0 1 0 0 0 -1 -3 -6c-6,-16 -12,-33 -19,-50 -4,-8 -8,-16 -13,-24 -2,-4 -4,-8 -7,-12l-3 -4c-2,-3 -3,-4 -5,-6 -11,-13 -23,-23 -35,-29 -12,-7 -24,-9 -34,-10 -9,-1 -17,1 -22,2 -4,1 -6,2 -6,2 0,0 2,1 7,2 4,1 11,3 18,7 7,4 14,10 21,18 7,8 14,18 19,29 1,3 2,7 3,10 1,3 2,6 3,9 2,7 4,14 6,22 3,16 6,33 10,52l2 7 3 8c1,5 3,9 4,14 1,4 3,9 5,14l7 15c5,10 10,19 15,29 6,9 12,18 18,27 1,2 3,3 4,5 0,0 0,1 0,1 -3,-4 -7,-9 -11,-13 -12,-14 -25,-26 -39,-36 -26,-20 -53,-32 -76,-37 -22,-7 -41,-6 -53,-5 -6,0 -10,2 -13,2 -3,1 -5,1 -5,1 0,0 2,0 5,1 3,0 7,1 13,2 11,2 27,8 45,18 18,11 38,27 56,49 9,10 18,23 26,36 4,7 7,13 11,22 4,7 7,15 11,23 13,33 25,70 38,111 7,21 14,43 24,65 10,24 23,47 39,69 2,4 5,7 7,10 -13,-12 -25,-26 -36,-41 -14,-19 -26,-39 -37,-60 -11,-21 -21,-43 -31,-65 -10,-21 -20,-43 -31,-63 -3,-5 -6,-10 -9,-15 -4,-5 -6,-9 -9,-14 -7,-9 -14,-18 -20,-25 -28,-32 -58,-50 -80,-58 -11,-4 -21,-5 -27,-6 -6,-1 -9,-1 -9,-1 0,0 3,2 8,5 5,3 13,7 21,14 9,7 18,16 28,27 9,12 18,26 27,41 4,8 9,17 12,25 2,4 5,10 6,14 2,5 4,10 6,15 7,19 14,41 22,64 8,22 16,47 27,71 12,25 25,48 42,71 17,22 36,44 58,61 11,8 23,17 35,23 10,6 19,10 29,14 -57,363 -251,637 -416,811 -202,213 -260,508 -142,718 70,125 192,193 336,193 35,0 72,-4 110,-13 139,-30 259,-88 362,-157 13,137 68,284 141,465l64 158c53,131 47,278 -16,405l-11 21c-34,70 -41,149 -18,223l315 557c17,28 30,58 38,89l6 24c11,43 41,76 80,91 21,8 44,9 66,5l88 -14c69,-11 140,-7 207,14 -1,-67 -54,-122 -121,-125l-25 -1 -3 -24 58 0c58,1 108,43 118,101l52 -13c26,-7 53,0 72,18l20 18 -1 -11c-7,-121 -101,-219 -222,-231l-133 -13 -187 -443c-35,-119 0,-247 90,-333l0 0c155,-149 275,-329 351,-527l217 -19c111,-10 209,76 214,188l4 74c2,60 52,108 112,109l532 4c33,-1 65,3 96,12l24 7c44,12 90,1 122,-28 16,-14 27,-32 35,-51l31 -83c25,-66 65,-125 116,-173 -59,-32 -133,-13 -169,43l-13 21 -23 -9 29 -50c30,-51 92,-73 147,-52l15 -52c7,-25 26,-45 51,-53l26 -8 -10 -5c-108,-55 -240,-22 -311,76l-78 110 -326 -41c-46,-6 -82,-43 -86,-89l-23 -238c-12,-123 -97,-227 -215,-262l-394 -119c-26,-250 330,-391 566,-599 147,78 260,171 305,211 16,14 33,24 52,30l459 156c30,12 58,28 83,48l19 16c33,26 75,35 114,25 22,-6 43,-19 59,-36l62 -63c48,-50 107,-88 173,-112 -41,-53 -116,-65 -171,-27l-20 14 -17 -18 46 -33c47,-35 112,-31 154,9l34 -41c16,-20 42,-31 68,-28l26 2 -7 -8c-77,-92 -210,-114 -313,-52l-114 69 -512 -238 -235 -257c36,-64 67,-133 91,-206 83,146 122,296 122,296 51,-191 71,-353 72,-491 111,-7 203,-3 247,1 21,1 41,-1 60,-7l461 -149c31,-9 63,-13 95,-12l25 2c42,1 81,-17 106,-48 15,-18 23,-41 26,-64l12 -88c9,-69 33,-135 71,-193l0 0c-64,-18 -131,17 -153,80l-8 23 -24 -4 17 -54c17,-56 72,-92 130,-84zm-1183 -876l0 0c16,3 22,22 12,34l-13 18c-26,33 -74,39 -107,13l-115 -125 223 60z"/>
 </g>
</svg>
