<?xml version="1.0" encoding="UTF-8"?>
<!DOCTYPE svg PUBLIC "-//W3C//DTD SVG 1.1//EN" "http://www.w3.org/Graphics/SVG/1.1/DTD/svg11.dtd">
<!-- Creator: CorelDRAW X7 -->
<svg xmlns="http://www.w3.org/2000/svg" xml:space="preserve" width="8.5in" height="11in" version="1.1" style="shape-rendering:geometricPrecision; text-rendering:geometricPrecision; image-rendering:optimizeQuality; fill-rule:evenodd; clip-rule:evenodd"
viewBox="0 0 8500 11000"
 xmlns:xlink="http://www.w3.org/1999/xlink">
 <defs>
  <style type="text/css">
   <![CDATA[
    .fil0 {fill:black;fill-rule:nonzero}
   ]]>
  </style>
 </defs>
 <g id="Layer_x0020_1">
  <metadata id="CorelCorpID_0Corel-Layer"/>
  <path class="fil0" d="M6403 4431c-4,-3 -10,-7 -17,-12 -15,-10 -36,-22 -61,-33 -13,-5 -26,-11 -41,-15 -14,-5 -29,-9 -45,-12 -32,-6 -65,-9 -99,-9l0 0c5,-10 10,-20 13,-31 3,-6 5,-12 7,-19l2 -10 2 -11c2,-9 2,-11 2,-16l0 -3c0,0 1,-6 1,-4l0 0 0 -1 0 -1 0 -2 0 -10c0,-27 -5,-51 -13,-72 -9,-21 -20,-40 -32,-54 -13,-15 -27,-26 -40,-33 -13,-8 -26,-13 -37,-15 -11,-3 -19,-3 -24,-2 -6,0 -9,0 -9,0l-7 10c0,0 1,1 4,4 4,3 8,7 13,12 5,5 10,12 16,21 5,8 10,19 14,30 9,24 13,53 8,84l-1 5 0 3 -1 3c-1,4 -2,8 -3,12 -2,7 -5,15 -8,22 -7,15 -16,29 -26,42 -10,13 -22,25 -35,35 -6,6 -13,11 -20,15l-171 0c-211,0 -401,119 -495,304l-2 0 -17 41c-28,68 -42,140 -42,210 0,110 33,218 96,311 -11,2 -21,5 -30,8 -20,8 -37,17 -53,28 -15,12 -29,24 -39,38 -6,7 -10,14 -15,21 -4,7 -7,14 -10,21 -3,7 -5,13 -7,20 -2,7 -3,13 -4,19 -2,12 -2,23 -1,33 0,9 3,16 4,21 1,4 2,7 2,7l10 6c0,0 1,-1 3,-4 2,-3 5,-7 8,-11 4,-5 9,-11 14,-17 6,-6 13,-12 21,-19 8,-7 17,-13 27,-19 9,-7 21,-12 32,-18 12,-5 24,-9 37,-12 13,-4 27,-6 39,-6 15,-1 27,-1 41,1 6,1 12,2 18,3l400 472c-8,0 -15,1 -23,2 -7,1 -14,2 -20,3 -7,2 -13,4 -20,6 -6,2 -12,4 -19,6 -6,2 -12,5 -18,8 -6,3 -13,6 -19,10 -5,3 -8,5 -12,8l-1 1c2,-1 -3,1 -3,1l0 0 -1 1 -1 1 -4 2 -7 6c-5,4 -10,8 -14,13 -18,17 -31,35 -41,54 -9,19 -15,39 -17,56 -2,17 0,32 3,44 1,3 2,5 3,8 1,3 2,5 3,7 2,5 4,8 5,10 4,5 6,7 6,7l12 1c0,0 0,-3 0,-7 1,-3 1,-5 2,-8 0,-3 1,-6 2,-10 2,-8 6,-17 11,-27 6,-9 14,-19 24,-29 9,-10 21,-19 35,-27 7,-4 14,-8 22,-11 4,-1 8,-3 12,-4 4,-2 8,-3 12,-4 33,-10 71,-13 108,-7 18,3 36,8 53,15 8,4 17,8 24,12 8,5 14,9 21,14l41 48c19,22 35,47 48,73 1,4 3,9 4,13 2,8 3,14 4,18 1,5 1,7 1,7l7 -1c16,43 24,87 24,132 0,75 -22,150 -67,214l0 0c-37,53 -84,93 -137,120 -53,26 -111,40 -170,40 -86,0 -171,-29 -242,-89l-216 -183c-16,-26 -35,-49 -57,-69 -7,-11 -15,-22 -22,-32 -22,-40 -48,-82 -81,-125 -1,-2 -2,-3 -3,-5 -1,-3 -3,-5 -6,-7 -6,-8 -12,-15 -18,-23 -199,-250 -379,-415 -353,-781 10,-133 -7,-251 -40,-355 0,-1 0,-1 0,-1 -2,2 -3,4 -5,5 -19,22 -41,40 -61,58 -10,9 -21,17 -31,26 -5,4 -10,8 -15,12 -5,3 -10,7 -15,10 -11,7 -21,14 -30,21 -10,6 -20,12 -29,17 -9,6 -18,11 -27,16 -8,4 -17,8 -25,12 -7,4 -15,8 -21,11 -7,3 -14,6 -19,8 -24,9 -37,15 -37,15 0,0 13,-7 35,-19 5,-3 11,-6 17,-10 7,-4 13,-9 21,-13 7,-5 15,-10 23,-15 7,-6 15,-12 24,-19 8,-6 17,-12 26,-20 8,-7 17,-15 26,-23 5,-4 9,-8 14,-12 4,-4 8,-9 13,-13 9,-9 18,-18 27,-28 17,-20 35,-40 51,-62 17,-21 31,-45 46,-68 4,-6 7,-12 10,-17 68,-488 -111,-723 -236,-825 -4,-2 -7,-4 -11,-6 -12,-5 -25,-10 -38,-15 -14,-4 -26,-7 -43,-9 -13,-2 -28,-3 -42,-3 -15,0 -29,0 -43,2 -28,4 -54,11 -75,19 -11,5 -21,9 -29,13 -9,5 -16,8 -22,12 -6,3 -10,7 -13,9 -3,2 -5,3 -5,3 0,0 1,-2 4,-4 3,-3 6,-7 11,-12 5,-4 12,-10 19,-16 8,-6 17,-13 27,-19 20,-14 46,-27 75,-38 14,-5 30,-9 46,-13 13,-2 26,-4 41,-6 47,-62 108,-101 228,-70l213 49 68 -120c-13,-5 -26,-12 -39,-21 -73,-50 -100,-129 -61,-178 39,-49 129,-49 202,1 3,2 5,4 8,6l63 -112 10 -63 27 7 43 -65c13,-19 2,-43 -20,-49l-246 -145 -51 -9c0,0 -41,-94 -121,-114 -35,-9 -68,-18 -100,-27 4,-6 8,-13 9,-20l116 -607c0,0 -136,3 -185,86 -19,33 -47,61 -76,86l-57 47c0,0 79,5 91,75 8,47 -23,95 -70,99 -28,3 -52,-8 -69,-27 -10,-11 -28,-13 -38,-1 -15,18 -37,29 -62,29 -44,0 -80,-36 -80,-80 0,0 5,-183 129,-183 0,0 -34,-118 -122,-104 -49,7 0,-90 0,-90l-117 -86 -118 86c0,0 49,97 0,90 -88,-14 -121,104 -121,104 124,0 128,183 128,183 0,44 -36,80 -80,80 -25,0 -46,-11 -61,-29 -10,-12 -29,-10 -39,1 -16,19 -41,30 -68,27 -48,-4 -79,-52 -71,-99 13,-70 91,-75 91,-75l-56 -47c-30,-25 -57,-53 -77,-86 -48,-83 -185,-86 -185,-86l106 553c-262,73 -425,245 -520,403 0,0 96,-16 163,29 0,0 -270,10 -300,413 -12,166 4,270 21,420 0,0 70,-18 117,-13 0,0 -78,68 -95,218 -6,46 -10,97 -12,151 -49,-2 -97,-17 -138,-45l-310 -210 8 -136c8,-123 -75,-233 -195,-259l-11 -3 15 23c15,22 17,50 7,75l-22 50c56,19 91,76 82,135l-9 57 -24 -7 3 -24c8,-68 -38,-130 -105,-142 9,70 3,142 -20,209l-28 86c-7,22 -10,45 -5,67 8,42 37,78 77,95l24 10c30,13 58,31 83,53l293 259c76,67 175,101 275,98 6,162 16,306 21,380 10,-7 18,-13 28,-20l15 -13c4,-3 9,-8 14,-12 76,-65 138,-150 186,-214 24,-32 44,-58 58,-77 15,-19 24,-29 24,-29 0,0 -1,3 -3,9 -2,6 -5,15 -9,26 -8,23 -20,54 -37,91 -9,18 -18,38 -30,59 -11,20 -23,42 -38,63 -14,21 -30,43 -48,63 -14,16 -28,31 -44,46 -31,53 -81,94 -142,114l-356 117 -102 -90c-93,-81 -231,-82 -325,-3l-8 7 27 2c26,2 50,17 63,40l26 48c50,-33 116,-25 158,18l40 42 -21 14 -17 -17c-49,-48 -126,-49 -177,-3 62,35 114,84 154,143l51 75c12,19 29,35 50,45 38,19 84,18 122,-3l22 -13c29,-16 60,-27 93,-33l384 -74c114,-22 211,-93 268,-193 47,62 96,117 143,162 66,63 143,119 220,173 5,2 9,3 13,5 30,13 62,27 94,40 32,14 65,28 98,42 66,30 130,61 189,96 29,17 56,35 81,53 25,18 48,36 69,54 9,9 19,18 28,26 9,9 17,17 24,25 8,8 14,16 21,23 6,7 11,14 16,20 10,12 16,22 21,29 5,7 8,11 8,11 0,0 -3,-4 -9,-10 -5,-6 -13,-16 -24,-27 -5,-6 -11,-12 -17,-18 -7,-7 -15,-14 -23,-21 -8,-7 -16,-14 -26,-22 -9,-7 -19,-15 -30,-23 -21,-15 -45,-31 -71,-46 -26,-16 -55,-30 -84,-44 -57,-27 -120,-51 -183,-73 121,97 208,199 192,331l0 0 -389 116c-120,37 -207,143 -219,268l-24 244c-4,47 -41,85 -88,91l-333 41 -80 -111c-72,-101 -207,-134 -318,-78l-9 5 25 8c26,8 46,28 53,54l15 53c56,-21 120,2 150,53l30 51 -23 9 -14 -20c-36,-58 -112,-78 -172,-44 52,49 92,109 118,176l32 85c8,20 19,38 35,52 34,30 80,41 125,28l24 -7c32,-9 66,-13 99,-11l544 -5c62,-1 112,-49 115,-111l3 -76c6,-115 105,-202 220,-192l156 14c1,-20 1,-40 3,-60 2,-30 7,-59 12,-88 6,-29 14,-57 22,-83 9,-27 18,-52 29,-75 10,-23 21,-44 32,-64 5,-9 11,-18 16,-27 5,-8 10,-16 15,-24 10,-14 19,-27 27,-37 8,-10 14,-18 19,-23 4,-5 6,-8 6,-8 0,0 -2,3 -5,9 -4,6 -10,14 -16,25 -7,11 -14,24 -22,39 -4,8 -8,17 -13,26 -4,9 -8,18 -12,28 -8,20 -17,41 -24,65 -7,23 -14,48 -19,74 -5,26 -9,54 -12,81 -2,28 -3,56 -2,84 1,28 4,55 8,82 1,7 2,14 4,21 78,187 194,357 342,499 92,88 128,219 93,341l-192 453 -136 13c-124,12 -220,113 -227,237l-1 10 20 -18c20,-18 48,-25 74,-19l53 14c10,-59 61,-103 122,-103l58 -1 -3 25 -25 1c-69,3 -123,59 -124,128 68,-21 141,-26 211,-14l90 14c23,4 46,3 68,-6 40,-15 71,-49 82,-92l6 -25c8,-32 21,-63 39,-91l322 -569c23,-75 16,-157 -19,-228l-11 -22c-64,-129 -70,-280 -16,-414l66 -162c34,-84 64,-162 88,-235 73,-69 120,-165 124,-273l65 55c96,82 213,122 329,122 79,0 159,-19 230,-56 62,-31 119,-76 165,-133l1 0 20 -28c61,-88 92,-190 92,-291 0,-117 -41,-234 -121,-328l-35 -42c0,-3 0,-7 0,-11 0,-6 -1,-14 0,-21 0,-14 0,-29 3,-44 1,-15 4,-30 7,-45 4,-15 7,-30 12,-44 4,-14 10,-28 15,-41 3,-7 7,-13 10,-19 2,-6 5,-13 9,-18 3,-6 6,-12 9,-17 3,-5 7,-10 10,-15 3,-5 6,-9 9,-14 3,-4 6,-8 9,-12 6,-7 11,-14 15,-18 9,-11 15,-16 15,-16l-9 -9c0,0 -3,0 -8,0 -5,0 -13,0 -22,2 -9,1 -20,3 -32,7 -6,2 -12,5 -18,7 -7,3 -13,7 -20,10 -6,4 -13,8 -19,13 -7,4 -13,10 -20,15 -7,6 -12,12 -18,19 -6,6 -12,13 -17,21 -6,7 -11,15 -16,23 -5,8 -9,17 -13,26 -8,17 -13,36 -18,55 -1,5 -2,11 -3,16l-378 -445c-1,-3 -1,-6 -2,-9 -1,-11 -3,-23 -4,-35 -1,-12 -2,-25 -1,-38 0,-12 2,-25 5,-37 3,-12 6,-25 12,-36l1 -4 1 -1 0 0 0 0 0 -1 1 -2c2,-3 4,-6 5,-8 3,-5 7,-10 10,-14 15,-19 32,-33 49,-43 16,-9 31,-15 42,-18 5,-1 10,-2 13,-3 3,0 4,0 4,0l-1 -12c0,0 -2,-2 -5,-6 -4,-3 -10,-7 -18,-12 -8,-4 -18,-8 -30,-11 -12,-3 -25,-4 -41,-3 -15,1 -31,4 -48,11 -16,7 -33,16 -49,29 -3,4 -7,7 -11,11 -4,3 -8,9 -12,14l-3 3 -2 2 -3 4 -1 2 -1 1 0 0c2,-3 -2,4 -2,3l0 0 -1 2 -4 7c-11,18 -18,39 -23,59l-1 4c-63,-77 -96,-172 -96,-269 0,-53 10,-108 31,-159l0 0c65,-159 219,-263 391,-263l160 0c11,7 21,14 31,22 13,10 25,22 35,35 10,13 19,27 26,42 3,8 6,15 8,23 1,3 2,7 3,11l1 3 0 3 1 6c5,30 1,60 -8,83 -4,12 -9,22 -14,30 -6,9 -11,16 -16,21 -5,6 -9,10 -13,12 -3,3 -4,4 -4,4l7 10c0,0 3,0 9,1 5,0 13,0 24,-3 11,-2 24,-7 37,-14 13,-8 27,-19 40,-34 12,-14 23,-32 32,-54 8,-21 13,-45 13,-71l0 -10 0 -3 0 -1 0 -1 0 0c0,3 -1,-4 -1,-4l0 -3c0,-4 0,-7 -2,-16l-2 -11 -2 -10c-2,-7 -4,-13 -7,-19 -3,-9 -7,-18 -11,-26 33,0 66,-3 97,-10 16,-3 31,-7 45,-11 15,-5 28,-10 41,-16 25,-10 46,-22 61,-32 7,-5 13,-10 17,-13 4,-3 6,-5 6,-5 0,0 -2,-2 -6,-5zm-1808 -1199l0 0c17,4 24,22 13,34l-14 18c-27,32 -78,38 -113,12l-121 -122 235 58z"/>
 </g>
</svg>
