<?xml version="1.0" encoding="UTF-8"?>
<!DOCTYPE svg PUBLIC "-//W3C//DTD SVG 1.1//EN" "http://www.w3.org/Graphics/SVG/1.1/DTD/svg11.dtd">
<!-- Creator: CorelDRAW X7 -->
<svg xmlns="http://www.w3.org/2000/svg" xml:space="preserve" width="8.50057in" height="8.33232in" version="1.1" style="shape-rendering:geometricPrecision; text-rendering:geometricPrecision; image-rendering:optimizeQuality; fill-rule:evenodd; clip-rule:evenodd"
viewBox="0 0 8500 8332"
 xmlns:xlink="http://www.w3.org/1999/xlink">
 <defs>
  <style type="text/css">
   <![CDATA[
    .fil0 {fill:#373435}
   ]]>
  </style>
 </defs>
 <g id="Layer_x0020_1">
  <metadata id="CorelCorpID_0Corel-Layer"/>
  <path class="fil0" d="M6685 1527c3,-9 5,-18 6,-27 -2,8 -4,17 -6,27z"/>
  <path class="fil0" d="M5777 1450c-46,63 -76,136 -88,213 -11,76 33,59 427,144 433,94 537,-137 568,-280 -24,91 -164,360 -907,-77z"/>
  <path class="fil0" d="M5254 2350c329,271 338,675 338,675 0,0 913,-204 1051,-279 137,-75 899,-1246 987,-1234 87,13 437,38 650,-25 212,-62 262,-437 187,-447 -75,-10 -350,10 -525,10 -175,0 -300,-50 -450,75 -150,125 -1188,1075 -1188,1075l-1050 150z"/>
  <path class="fil0" d="M651 1450c0,0 675,663 462,1483 -174,674 -895,2273 1305,2530l0 0c-63,195 -50,420 133,638 400,475 -213,863 -412,587 -200,-275 -301,88 -301,325l0 901c0,125 201,400 350,412 150,13 788,0 938,0 150,0 100,-150 -50,-275 -150,-125 -213,-225 -437,-175 -225,50 -263,63 -250,-62 12,-126 150,-451 175,-538 24,-88 450,112 962,-413 513,-525 1038,-1275 1038,-1275 0,0 600,575 625,813 25,237 -137,575 -375,412 -238,-162 -200,-62 -213,75 -12,138 250,825 288,938 38,113 450,506 613,506l1100 0c187,0 37,-193 -87,-381 -125,-187 -476,-225 -663,-162 -187,62 -338,112 -425,-25 -88,-138 -187,-400 -187,-463 0,-62 625,-37 875,-638 250,-600 -550,-1575 -688,-1775 -138,-200 -475,-506 -325,-884 45,-115 81,-200 117,-271l0 0 1751 995c25,363 438,375 438,275 0,-100 37,-650 -88,-700 -110,-45 -1485,-1003 -1812,-1229 -5,-255 -200,-540 -356,-686 -200,-188 -475,-488 -350,-900 0,0 75,337 425,337 350,0 175,113 400,188 225,75 450,112 550,-38 0,0 -375,-137 -512,-175 -138,-37 56,-534 193,-596 138,-61 100,303 557,322 0,0 243,-641 -75,-735 -319,-94 -388,-144 -388,-144 0,0 37,-163 -263,-296 -197,-89 -599,-196 -951,-224l-1199 -127c0,0 413,313 87,400 -99,27 -450,75 -450,75 0,0 363,113 338,238 -88,262 -550,137 -550,137 0,0 -175,288 87,500 0,0 -125,451 -562,388 0,0 62,262 300,388 0,0 75,337 -300,562 0,0 175,250 425,200 0,0 125,475 -163,675 0,0 225,288 512,0 0,0 126,357 163,441 37,84 -388,809 -625,959 0,0 -557,369 -1251,-99 -693,-469 -359,-1239 -225,-1855 213,-977 -487,-1690 -487,-1690 0,0 287,-710 -775,-759 0,0 -25,260 75,398l-138 12c0,0 63,669 651,480z"/>
 </g>
</svg>
