<?xml version="1.0" encoding="UTF-8"?>
<!DOCTYPE svg PUBLIC "-//W3C//DTD SVG 1.1//EN" "http://www.w3.org/Graphics/SVG/1.1/DTD/svg11.dtd">
<!-- Creator: CorelDRAW X7 -->
<svg xmlns="http://www.w3.org/2000/svg" xml:space="preserve" width="8.5in" height="11in" version="1.1" style="shape-rendering:geometricPrecision; text-rendering:geometricPrecision; image-rendering:optimizeQuality; fill-rule:evenodd; clip-rule:evenodd"
viewBox="0 0 8500 11000"
 xmlns:xlink="http://www.w3.org/1999/xlink">
 <defs>
  <style type="text/css">
   <![CDATA[
    .fil0 {fill:#373435;fill-rule:nonzero}
   ]]>
  </style>
 </defs>
 <g id="Layer_x0020_1">
  <metadata id="CorelCorpID_0Corel-Layer"/>
  <path class="fil0" d="M6489 4489c-1,-5 -1,-7 -1,-7 0,0 -1,2 -3,7 -1,4 -4,9 -9,15 -5,7 -12,13 -20,18 -9,6 -19,11 -31,14 -3,0 -6,1 -10,2 -3,0 -6,1 -9,1 -7,1 -14,2 -22,2 -15,1 -32,1 -51,3l-7 0 -8 2c-4,0 -9,1 -14,2 -4,0 -9,1 -14,3l-16 4c-10,3 -19,6 -29,10 -9,4 -19,8 -28,13 -2,1 -4,2 -6,3 0,0 -1,0 -1,0 5,-2 10,-5 14,-8 15,-10 29,-21 40,-32 23,-22 38,-46 47,-67 9,-21 12,-38 12,-50 1,-6 0,-10 0,-13 0,-3 0,-5 0,-5 0,0 0,2 -1,4 -1,3 -2,8 -5,13 -3,10 -11,25 -24,40 -12,16 -30,32 -54,46 -12,7 -24,14 -38,19 -8,3 -14,5 -23,8 -7,3 -15,5 -23,7 -33,8 -71,13 -112,20 -21,3 -43,7 -66,13 -24,6 -48,15 -71,27 -4,2 -7,4 -11,6 14,-11 29,-20 45,-28 20,-11 41,-20 62,-27 22,-7 44,-13 67,-20 22,-6 44,-13 65,-21 5,-2 10,-4 15,-6 6,-2 10,-4 15,-7 10,-5 19,-10 27,-15 34,-21 56,-48 67,-68 5,-10 8,-18 10,-24 1,-6 2,-9 2,-9 0,0 -2,3 -6,7 -3,5 -9,11 -17,18 -7,7 -18,15 -30,22 -12,8 -27,14 -43,20 -8,3 -17,6 -26,9 -3,0 -9,2 -14,3 -4,1 -9,2 -14,3 -20,4 -41,8 -64,12 -23,4 -48,9 -72,16 -26,7 -50,16 -74,29 -24,12 -47,28 -67,46 -9,9 -20,20 -28,30 -8,11 -15,22 -22,34 -12,23 -20,47 -24,71 -1,6 -1,12 -1,18l-1 9 1 8c0,4 0,8 1,13 -83,-60 -162,-125 -242,-189 -122,-99 -381,-342 -539,-176 -120,127 -31,336 31,467 106,223 250,428 385,634 107,164 288,375 298,579 11,224 -242,184 -371,100 -114,-74 -276,-304 -344,-421 0,-1 0,-1 0,-1 -28,-46 -59,-91 -93,-133 -196,-245 -371,-406 -345,-765 0,-8 1,-17 1,-25 142,115 316,149 316,149 0,0 -172,-191 -179,-505l-249 -462 260 270c18,-180 47,-380 25,-582l-381 -263 357 123c-5,-18 -9,-36 -15,-53 -34,-113 -110,-280 -249,-416l-369 -51 264 -36c-142,-100 -333,-164 -586,-142 0,0 29,-114 13,-242 0,0 -226,233 -771,379 -76,20 -115,116 -115,116l-48 10 -234 148c-21,6 -31,31 -19,49l41 67 26 -7 9 64 59 134c15,-51 58,-93 117,-102 66,-11 133,27 157,89 33,82 -13,172 -96,195 -22,6 -43,7 -64,3l91 111 167 -46c111,-31 187,6 281,66 -95,42 -186,114 -254,233l-278 79c-72,21 -150,9 -212,-34l-304 -206 8 -132c8,-121 -73,-228 -191,-254l-10 -2 14 22c15,22 17,49 7,73l-21 49c55,19 89,75 80,132l-9 57 -23 -8 3 -24c7,-66 -38,-127 -103,-138 9,69 2,139 -19,205l-28 83c-7,22 -10,44 -5,66 8,41 36,76 76,93l22 10c30,12 57,30 82,51l287 254c87,77 206,110 321,90l206 -37c6,85 23,168 50,246l-46 115c-27,70 -85,124 -156,147l-349 115 -100 -88c-91,-79 -225,-81 -318,-3l-8 6 27 2c26,2 49,17 62,40l25 47c49,-33 114,-25 154,17l39 41 -20 14 -17 -16c-47,-47 -123,-49 -173,-4 61,35 112,83 151,141l49 73c13,18 29,34 50,44 37,18 81,18 119,-3l22 -12c28,-16 58,-27 90,-33l376 -73c103,-20 193,-80 249,-167 34,41 68,77 101,109 236,224 708,547 677,810l0 1 -381 114c-118,35 -203,139 -215,262l-22 238c-5,46 -41,83 -86,89l-327 41 -78 -110c-70,-98 -202,-131 -311,-76l-9 5 25 8c25,8 45,28 52,53l15 52c55,-21 117,1 146,52l29 50 -22 9 -13 -21c-36,-56 -110,-75 -169,-43 51,48 90,107 115,173l32 83c7,19 19,37 34,51 33,29 79,40 122,28l24 -7c31,-9 64,-13 96,-12l532 -4c61,-1 110,-48 113,-109l4 -74c5,-112 102,-198 214,-188l203 18c76,198 195,379 351,528l0 0c90,86 125,214 91,333l-188 443 -133 13c-121,12 -215,110 -222,231l-1 11 20 -18c19,-18 46,-25 72,-18l52 13c10,-58 60,-100 119,-101l57 0 -3 24 -25 1c-67,3 -120,58 -121,125 67,-21 138,-25 207,-14l88 14c22,4 45,3 66,-5 39,-15 69,-48 80,-91l6 -24c8,-31 21,-61 38,-89l315 -557c0,0 0,1 -1,1l1 -1c23,-74 16,-153 -18,-223l-11 -21c-63,-127 -69,-274 -16,-405l64 -158c75,-185 101,-381 81,-572 116,84 250,146 385,146 132,0 253,-104 280,-236 30,-145 -41,-290 -111,-412 -160,-276 -354,-531 -510,-810 -29,-53 -274,-516 -47,-468 117,24 233,143 322,215 110,89 220,187 345,255 15,18 32,33 53,45l6 3 1 1 3 2 2 1 4 1c1,1 3,2 5,3 4,1 9,3 13,5l12 3c16,4 32,6 48,6 12,0 23,-2 34,-4 13,0 26,-1 40,-5 21,-7 42,-17 62,-34 18,-15 33,-37 44,-58 11,-22 18,-45 24,-67 5,-21 10,-42 16,-62 2,-10 5,-20 8,-28 1,-4 3,-9 5,-14l1 -4 1 -2 3 -6c14,-33 36,-60 59,-81 6,-5 12,-10 18,-15 5,-2 10,-4 15,-6l11 -4c4,-1 7,-3 12,-4 5,-1 9,-2 13,-3l4 -1 1 -1 1 0 -1 0 0 0 1 0 6 -1c16,-4 33,-7 50,-12 9,-2 17,-5 25,-8 4,-1 8,-3 12,-5l5 -3c3,-1 4,-2 6,-3 14,-8 25,-19 33,-30 8,-10 13,-21 15,-30 2,-9 1,-16 1,-21zm-3358 -1252l0 0c-33,26 -81,20 -107,-13l-14 -18c-10,-12 -3,-31 12,-34l223 -60 -114 125z"/>
 </g>
</svg>
