<?xml version="1.0" encoding="UTF-8"?>
<!DOCTYPE svg PUBLIC "-//W3C//DTD SVG 1.1//EN" "http://www.w3.org/Graphics/SVG/1.1/DTD/svg11.dtd">
<!-- Creator: CorelDRAW X7 -->
<svg xmlns="http://www.w3.org/2000/svg" xml:space="preserve" width="8.5in" height="11in" version="1.1" style="shape-rendering:geometricPrecision; text-rendering:geometricPrecision; image-rendering:optimizeQuality; fill-rule:evenodd; clip-rule:evenodd"
viewBox="0 0 8500 11000"
 xmlns:xlink="http://www.w3.org/1999/xlink">
 <defs>
  <style type="text/css">
   <![CDATA[
    .fil0 {fill:black;fill-rule:nonzero}
   ]]>
  </style>
 </defs>
 <g id="Layer_x0020_1">
  <metadata id="CorelCorpID_0Corel-Layer"/>
  <path class="fil0" d="M6419 5336c-89,-85 -226,-93 -324,-19l-109 82 -137 -47c28,24 55,49 77,77 -64,-58 -148,-97 -229,-128l-140 -75c14,35 25,71 32,107 -21,-49 -52,-94 -87,-135l-201 -197c10,-31 20,-63 27,-95 34,81 50,143 50,143 47,-152 70,-287 75,-406 57,-10 103,-14 131,-17 21,-2 41,-8 59,-18l107 -59 -1 -3c74,-42 94,-70 149,-137 -11,25 -25,48 -40,71l161 -86c29,-14 61,-24 94,-28l25 -4c42,-5 78,-31 98,-67 12,-21 16,-45 15,-69l-5 -91c-3,-71 9,-141 37,-207 -67,-6 -128,42 -139,109l-4 24 -24 1 6 -58c7,-59 56,-105 115,-108l-7 -54c-4,-27 6,-53 26,-71l20 -17 -10 -1c-123,-7 -232,77 -258,198l-28 133 -135 54c37,-1 73,1 109,8 -87,-3 -176,23 -257,52l-155 35c33,17 65,37 94,60 -48,-23 -101,-37 -154,-45l-91 -6c-77,-199 -208,-314 -283,-367 -3,-1 -6,-1 -10,-1 -19,0 -41,1 -62,2 -22,3 -43,6 -64,11 -10,2 -19,4 -29,7 -9,3 -17,5 -25,8 -16,5 -29,11 -38,15 -9,4 -14,6 -14,6 0,0 4,-4 11,-10 8,-7 19,-16 33,-26 7,-5 15,-10 23,-15 9,-6 18,-11 27,-17 19,-11 40,-21 62,-30 1,-1 2,-1 3,-1 -22,-3 -46,-5 -71,-11 -24,-5 -49,-13 -73,-24 -6,-3 -13,-8 -19,-11 -6,-4 -13,-8 -17,-12l-13 -11 -2 -2 -2 -2 -1 -1 -4 -3c-2,-3 -5,-5 -7,-8 -18,-20 -30,-44 -39,-67 -8,-23 -13,-46 -15,-69 -2,-21 -1,-42 1,-61 3,-37 11,-67 16,-87 5,-21 9,-33 9,-33 0,0 1,13 1,34 1,21 1,51 4,86 2,18 4,36 9,56 4,18 10,38 19,56 9,18 20,36 34,51 1,2 3,3 5,5l3 3 0 0 2 1 14 11c5,5 9,6 13,9 4,2 8,5 13,7 9,4 19,9 29,12 11,4 21,7 32,10 11,3 22,5 33,8 11,2 22,4 33,6 22,4 44,8 64,13 5,1 9,2 14,3 43,-29 95,-49 185,-35l18 3c4,9 9,19 13,28 6,10 11,20 17,29 6,9 12,17 18,25 7,8 13,16 19,23 6,7 12,13 18,18 5,6 10,10 15,14 5,5 9,8 13,11 7,5 11,8 11,8 0,0 -2,-4 -6,-13 -2,-3 -4,-8 -6,-14 -2,-6 -4,-12 -6,-19 -3,-7 -5,-15 -6,-23 -3,-8 -4,-17 -5,-25 -2,-9 -3,-18 -3,-27 -1,-8 -1,-16 -1,-23l9 1c4,8 8,16 13,24 10,16 22,32 34,47 13,15 27,28 41,39 7,5 14,11 20,15 7,4 13,8 19,11 6,4 12,7 17,9 5,2 9,4 12,6 8,2 12,4 12,4 0,0 -3,-3 -7,-10 -2,-3 -5,-7 -8,-11 -2,-4 -5,-9 -8,-15 -3,-6 -6,-12 -8,-18 -3,-7 -6,-14 -8,-21 -5,-14 -8,-29 -10,-44 -2,-16 -2,-30 -2,-44 1,-7 1,-13 3,-19 0,0 0,-1 0,-1l27 -65c-10,0 -19,-1 -30,-2 -3,0 -6,-1 -10,-1 -3,-1 -6,-1 -10,-2 -7,-1 -14,-3 -21,-5 -14,-4 -27,-9 -40,-15 -6,-3 -12,-6 -17,-9 -8,-5 -16,-10 -23,-16 -10,-8 -19,-17 -27,-26 -17,-22 -27,-45 -31,-66 -5,-20 -4,-38 -2,-50 1,-6 2,-10 2,-13 1,-3 2,-5 2,-5 0,0 0,2 -1,5 -1,3 -1,8 -1,14 -1,11 1,28 8,47 6,19 18,39 35,56 18,17 41,30 65,38 12,4 24,7 37,9 6,1 12,2 18,2 3,0 6,0 10,1 3,0 6,0 8,0 2,0 4,0 5,0 -3,-2 -6,-3 -8,-5 -79,-44 -99,-117 -82,-179 12,-45 39,-61 71,-63 -1,0 -2,-1 -3,-1 -7,-1 -15,-2 -22,-3 -15,-1 -29,-1 -41,0 -12,1 -22,4 -29,5 -7,2 -10,3 -10,3 0,0 3,-2 10,-5 6,-3 15,-7 27,-11 12,-4 27,-7 42,-9 8,-1 17,-1 25,-1 8,0 18,0 26,1 9,1 17,3 26,5 8,2 16,4 24,7 16,6 30,13 41,20 12,8 21,14 27,20 1,0 1,1 2,1 3,-2 5,-5 7,-9l40 -97 -17 -41 28 5 36 -72c10,-20 -3,-44 -26,-48l-265 -126 -52 -5c0,0 -32,-119 -115,-131 -597,-90 -739,-365 -739,-365 -136,135 -85,307 -85,307 -251,4 -517,100 -796,-64 0,0 -26,151 124,283 11,1 22,2 34,3 15,2 31,5 47,8 17,4 33,7 50,12 17,5 33,11 49,17 16,7 32,14 47,22 16,7 30,16 44,24 13,9 27,17 38,26 12,8 23,17 32,25 5,4 10,8 14,12 4,4 8,8 12,11 7,7 13,14 18,19 10,11 15,17 15,17 0,0 -6,-5 -18,-13 -6,-5 -13,-10 -21,-15 -5,-3 -9,-5 -14,-9 -5,-2 -10,-5 -15,-8 -11,-6 -23,-12 -36,-18 -12,-6 -26,-11 -40,-17 -14,-5 -29,-10 -44,-14 -15,-4 -31,-7 -47,-11 -15,-2 -31,-5 -46,-5 -10,-2 -19,-2 -29,-2 -74,34 -328,180 -364,600l111 -29c4,-4 9,-7 13,-10 15,-12 32,-24 48,-35 16,-11 32,-23 49,-33 16,-11 32,-20 48,-30 16,-9 31,-18 46,-25 15,-8 29,-15 43,-22 13,-6 25,-12 36,-16 11,-5 20,-9 28,-13 16,-6 25,-10 25,-10 0,0 -9,5 -23,14 -7,5 -16,11 -25,17 -10,7 -21,14 -33,23 -12,8 -24,17 -37,28 -13,9 -27,21 -41,32 -13,12 -27,24 -41,36 -14,13 -28,26 -41,40 -13,13 -27,27 -39,40 -13,14 -25,28 -37,41 -6,8 -11,15 -17,22 -41,119 -81,330 -7,609l219 -194 -213 316c-10,342 16,716 16,719 -31,112 -86,201 -154,285 83,-22 170,-30 255,-17 -119,6 -227,48 -324,116 -23,17 -46,35 -69,53 -29,31 -59,62 -90,95 -25,27 -47,53 -67,79l-58 49c-56,48 -123,70 -190,70 -47,0 -93,-11 -134,-32 -42,-21 -79,-52 -108,-93 -35,-51 -53,-110 -53,-169 0,-68 24,-136 70,-190l523 -617c73,-85 111,-193 111,-302 0,-59 -11,-119 -35,-176 -71,-175 -242,-290 -432,-290l-114 0c-17,-11 -35,-23 -52,-38 -13,-12 -26,-24 -37,-38 -6,-7 -12,-15 -17,-22 -1,-11 1,-23 3,-33 4,-16 11,-30 19,-41 9,-11 20,-22 36,-36 15,-13 36,-28 60,-46 12,-9 25,-18 38,-29 6,-5 14,-12 20,-17l8 -8 2 -2 2 -1 2 -3 5 -5c26,-26 49,-54 66,-84 18,-30 31,-60 40,-90 9,-29 14,-58 16,-85 2,-26 1,-51 -2,-72 -1,-10 -3,-20 -5,-29 -2,-9 -4,-17 -7,-24 -4,-15 -9,-26 -13,-33 -4,-7 -6,-11 -6,-11 0,0 -2,4 -6,11 -2,4 -4,8 -6,13 -3,5 -6,11 -10,17 -3,6 -7,12 -11,20 -2,3 -4,7 -6,10 -2,4 -5,8 -7,12 -10,16 -21,32 -33,49 -25,35 -55,70 -89,103 -17,16 -35,31 -53,45 -6,4 -11,8 -16,12l-15 11c-12,8 -24,17 -36,26l0 0c9,-27 19,-54 30,-82 13,-37 27,-75 39,-114 7,-20 12,-39 17,-61 3,-11 5,-19 7,-29 3,-11 4,-21 6,-32 7,-42 9,-83 7,-123 -2,-39 -9,-76 -19,-110 -5,-16 -11,-32 -17,-46 -8,-15 -14,-28 -22,-40 -15,-23 -32,-41 -46,-55 -16,-13 -28,-21 -37,-26 -9,-4 -14,-7 -14,-7 0,0 2,5 5,15 1,5 4,11 5,17 2,7 4,14 6,23 3,17 6,37 7,59 0,23 -1,47 -4,74 -7,53 -23,113 -47,174 -3,8 -6,16 -9,23 -3,9 -7,19 -10,26 -5,10 -9,21 -14,31 -4,-46 -10,-93 -20,-140 -5,-27 -12,-53 -21,-80 -4,-15 -8,-25 -12,-37l-1 -2 -1 -1 0 0 0 -2 -2 -5 -4 -9c-3,-7 -5,-13 -8,-19 -23,-48 -50,-90 -80,-125 -30,-35 -62,-62 -93,-82 -31,-20 -61,-32 -86,-40 -12,-3 -23,-6 -34,-7 -9,-2 -18,-3 -24,-3 -13,0 -21,-1 -21,-1 0,0 6,4 17,12 11,8 25,19 42,35 16,16 35,36 52,61 17,26 34,55 48,89 14,34 25,71 33,111 2,5 2,10 3,15l1 8 1 4c1,1 0,-2 0,-1l0 0 0 1 0 3c2,11 4,24 5,34 1,10 2,21 3,32 1,11 2,23 3,34 2,47 3,96 3,148 0,52 0,106 3,163 1,15 1,26 2,42 1,15 3,29 4,43 4,29 8,58 14,87 11,58 29,115 54,168 12,26 26,50 41,72 -27,-22 -52,-47 -76,-74 -27,-32 -51,-68 -70,-106 -20,-38 -36,-79 -46,-118l-3 -14c-1,-2 -1,-4 -2,-7l-1 -10 -4 -18 0 -3c0,-3 0,4 0,3l0 -1 0 -1 0 -4 -1 -8c-3,-21 -5,-43 -6,-65 -3,-45 -3,-93 -7,-140 0,-12 -1,-24 -3,-35 -1,-12 -2,-26 -4,-35 -4,-23 -8,-46 -14,-67 -12,-43 -30,-80 -49,-110 -20,-31 -42,-53 -62,-69 -20,-16 -38,-24 -50,-29 -12,-4 -19,-6 -19,-6 0,0 5,6 12,16 4,5 8,11 12,19 4,7 9,16 13,26 9,20 17,44 21,73 4,28 7,60 5,95 -1,9 -2,18 -2,27 -1,5 -1,9 -2,14l0 2 -1 4 -1 8c-1,11 -2,19 -4,29 -2,10 -3,21 -5,31 -7,42 -16,89 -21,141 -3,26 -5,54 -5,83l1 11 0 6 0 1 0 1 0 3 0 3 2 19 0 9c1,3 1,8 2,12l3 24c10,61 31,119 59,174 28,54 64,104 106,147 42,43 91,79 141,106l3 1 0 0c5,3 2,1 3,2l1 0 4 2 9 4c5,3 11,5 16,8 14,5 28,11 41,16 26,9 52,15 77,20 50,10 98,11 141,8 7,0 14,-1 20,-2l178 0c136,0 258,82 309,208 17,40 25,83 25,125 0,78 -27,155 -80,216l-523 616c-67,80 -101,178 -101,277 0,85 25,171 77,245 42,60 96,106 156,136 61,31 128,47 195,47 40,0 80,-6 119,-18 -60,198 -6,400 83,679l53 166c4,12 7,25 10,37 43,120 78,280 17,397 15,-58 7,-121 -13,-182 -11,56 -31,110 -61,160l-13 21c-40,68 -53,149 -36,226l100 213c46,83 113,169 205,198 -44,-1 -87,-13 -127,-33l101 214c15,29 26,61 32,93l4 25c8,44 36,80 75,99 21,9 44,12 67,10l90 -7c72,-6 144,4 211,30 3,-69 -47,-129 -115,-137l-25 -3 -1 -25 58 5c60,5 108,52 114,112l54 -9c26,-5 53,4 72,24l18 19 0 -10c3,-124 -86,-232 -208,-253l-135 -24 -42 -126c-14,28 -31,52 -53,73 29,-58 27,-128 12,-192l-74 -221c-3,-13 -4,-27 -6,-41 -13,27 -22,55 -25,84 -13,-71 7,-145 39,-211 19,-64 57,-121 110,-165l0 0c195,-160 345,-367 437,-599 0,-19 1,-39 1,-60 -1,-20 -1,-40 -2,-61 0,-8 0,-16 -1,-25 -1,-29 -4,-59 -6,-89 -4,-29 -7,-59 -12,-88 -3,-26 -8,-51 -13,-76 0,-3 -1,-7 -1,-10 -6,-27 -12,-54 -18,-79 -6,-26 -12,-49 -19,-71 -6,-22 -12,-42 -18,-59 -6,-18 -11,-33 -15,-45 -9,-25 -14,-40 -14,-40 0,0 6,14 18,38 6,12 13,26 20,43 8,17 16,36 25,58 9,21 18,44 27,68 5,16 11,32 16,48 4,10 7,20 10,31 8,27 17,56 25,85 8,29 14,59 21,89 5,22 9,44 13,66 2,8 3,16 4,24 3,16 5,32 7,47l213 48c112,25 181,138 151,249l-20 74c-16,59 18,121 76,140l270 89c83,24 173,42 259,31 -29,11 -60,18 -91,23l79 27c32,8 63,22 91,41l21 14c38,25 86,29 127,11 20,-9 36,-23 49,-40l57 -71c44,-56 101,-101 166,-132 -47,-50 -125,-55 -178,-11l-19 16 -19 -16 44 -39c44,-40 111,-42 159,-5l30 -46c15,-23 40,-36 67,-36l27 0 -8 -8c-88,-86 -227,-96 -326,-21l-110 82 -105 -49c14,22 25,45 34,69 -33,-46 -80,-82 -129,-112l-105 -49c-12,-5 -22,-12 -30,-21 -6,33 -6,67 2,99 -30,-51 -39,-112 -31,-172 0,-6 1,-13 2,-19l52 -239c26,-124 -24,-251 -129,-322l-88 -60c14,43 21,87 20,133 -23,-97 -87,-181 -169,-236l0 0 -251 -171c94,-86 232,-158 363,-239 14,-12 27,-24 39,-37 75,-78 127,-169 149,-275 1,73 -14,145 -40,213 9,-7 18,-14 27,-21 56,-46 115,-104 171,-171 125,60 219,124 260,154 17,13 36,21 57,26l120 25 0 -3c84,16 117,8 203,-7 -24,12 -50,21 -77,28l178 40c32,8 62,22 90,40l21 14c36,23 80,27 118,13 23,-8 42,-24 57,-43l55 -71c44,-56 100,-102 164,-133 -47,-49 -125,-53 -177,-9l-18 16 -20 -15 43 -40c44,-40 111,-43 158,-6l30 -46c14,-23 39,-36 66,-37l27 0 -8 -7zm-1203 -2263l0 0c17,2 26,20 17,34l-13 20c-24,36 -74,47 -112,24l-136 -115 244 37zm-308 2074l0 0 -23 -5 -22 -7 -23 -7 -22 -9 -21 -11 -21 -11 -21 -13 -20 -13 -19 -15 -12 -10 -6 -5 -18 -17 -17 -17 -16 -19 -15 -20 -14 -19 -13 -21 -12 -22 -11 -22 -9 -23 -9 -23 -7 -24 -6 -24 -5 -24 -4 -25 -1 -10 -1 -14 -2 -25 0 -25 2 -25 1 -12c-4,1 -7,2 -10,3 -22,6 -44,13 -66,21 -21,7 -42,16 -63,25 -21,9 -42,19 -62,30l-70 37 16 -75c4,-22 10,-44 15,-66 6,-22 12,-43 19,-64 7,-22 15,-43 23,-64 8,-21 17,-41 26,-62 10,-20 20,-40 30,-60 11,-19 22,-39 34,-58 6,-9 12,-19 18,-28l19 -27c13,-18 26,-36 41,-53l-14 30c-4,11 -9,21 -13,30l-13 31c-4,10 -8,20 -13,30 -8,20 -15,41 -22,61l-11 31 -10 31 -9 31 -9 31 -8 31 -8 32 -7 31 -4 20c22,-10 45,-20 68,-29 23,-9 47,-17 71,-24 24,-7 48,-13 73,-18l59 -12 -13 60 -4 21 -3 21 -3 21 -2 21 0 15 0 6 0 21 1 21 3 22 3 21 4 21 5 21 6 20 7 20 7 20 9 20c3,6 7,14 9,19l11 20 11 18 13 18 13 17 10 13 4 4 14 16 16 16 16 15 17 15 18 14 18 13 19 13 19 11 20 11 21 10 21 10 -23 -4z"/>
 </g>
</svg>
