<?xml version="1.0" encoding="UTF-8"?>
<!DOCTYPE svg PUBLIC "-//W3C//DTD SVG 1.1//EN" "http://www.w3.org/Graphics/SVG/1.1/DTD/svg11.dtd">
<!-- Creator: CorelDRAW X7 -->
<svg xmlns="http://www.w3.org/2000/svg" xml:space="preserve" width="8.5in" height="11in" version="1.1" style="shape-rendering:geometricPrecision; text-rendering:geometricPrecision; image-rendering:optimizeQuality; fill-rule:evenodd; clip-rule:evenodd"
viewBox="0 0 8500 11000"
 xmlns:xlink="http://www.w3.org/1999/xlink">
 <defs>
  <style type="text/css">
   <![CDATA[
    .fil0 {fill:black;fill-rule:nonzero}
   ]]>
  </style>
 </defs>
 <g id="Layer_x0020_1">
  <metadata id="CorelCorpID_0Corel-Layer"/>
  <path class="fil0" d="M6586 5764c-30,-148 -154,-256 -269,-343 -260,-198 -544,-361 -801,-561 -49,-38 -464,-377 -230,-423 119,-24 275,42 388,75 20,6 41,12 62,18 4,2 9,4 14,6 8,2 16,5 24,8 35,10 75,18 121,21 45,3 95,1 147,-10 26,-5 53,-12 80,-22 13,-5 28,-11 42,-17 6,-3 12,-5 18,-8l8 -4 4 -2 1 -1c2,-1 -2,1 4,-2l0 0 3 -1c52,-29 102,-67 146,-112 43,-45 80,-98 109,-155 28,-57 49,-118 59,-182l3 -25c1,-4 1,-9 2,-12l0 -10 1 -20 0 -2 1 -4 0 -1 0 -1 0 -6 0 -11c0,-31 -2,-59 -5,-87 -7,-54 -16,-102 -24,-146 -2,-11 -4,-22 -6,-32 -2,-11 -3,-19 -5,-31l-1 -8 0 -4 -1 -3c0,-5 -1,-9 -1,-14 -1,-9 -2,-19 -3,-28 -2,-36 0,-70 4,-100 4,-29 12,-55 21,-76 4,-10 9,-19 13,-27 5,-8 9,-14 12,-20 8,-11 13,-16 13,-16 0,0 -7,2 -20,6 -12,5 -31,14 -52,31 -20,16 -43,40 -63,72 -20,32 -38,71 -50,115 -6,22 -11,47 -14,70 -2,10 -3,25 -4,36 -1,13 -2,25 -3,37 -3,49 -3,99 -5,146 -1,24 -3,47 -5,69l-1 8 -1 4 0 1 0 1c0,0 0,-6 0,-3l0 3 -3 19 -2 10c0,3 -1,5 -2,7l-3 15c-10,41 -26,84 -46,123 -20,40 -44,78 -72,112 -24,29 -51,55 -78,78 15,-24 29,-49 41,-75 26,-56 44,-116 55,-176 6,-31 10,-61 13,-91 1,-15 3,-30 4,-45 1,-16 1,-29 2,-44 2,-59 2,-116 1,-170 0,-54 0,-105 2,-154 1,-12 1,-24 2,-35 1,-12 2,-23 3,-34 1,-10 3,-23 5,-36l0 -2 0 -1 0 -1c0,0 -1,3 0,1l0 -4 2 -8c1,-5 1,-10 2,-16 9,-41 20,-81 34,-116 14,-35 31,-66 49,-93 18,-26 37,-47 54,-64 17,-17 31,-29 43,-37 11,-8 17,-12 17,-12 0,0 -7,0 -21,0 -7,0 -16,2 -26,3 -10,2 -22,5 -35,9 -25,8 -56,21 -89,42 -32,21 -65,50 -96,87 -31,37 -59,81 -81,131 -4,6 -6,13 -9,19l-4 10 -2 5 0 2 -1 2 -1 2c-4,12 -8,23 -13,38 -8,29 -15,56 -21,84 -9,48 -15,98 -19,147 -5,-11 -9,-22 -14,-33 -4,-8 -8,-18 -11,-27 -4,-7 -7,-16 -10,-24 -26,-64 -43,-126 -50,-181 -5,-28 -6,-53 -5,-77 0,-23 3,-44 6,-62 2,-8 4,-16 6,-23 1,-7 4,-13 5,-18 3,-10 5,-16 5,-16 0,0 -5,3 -14,8 -10,4 -22,13 -38,27 -15,14 -33,33 -48,58 -8,13 -15,27 -22,42 -7,15 -13,31 -18,48 -10,35 -17,74 -18,115 -2,41 1,84 8,128 2,11 4,22 7,33 2,10 4,19 7,31 6,22 12,42 19,63 13,40 28,80 42,118 12,29 22,58 32,85l0 0c-12,-9 -25,-18 -38,-27l-16 -11c-5,-4 -11,-8 -16,-12 -19,-14 -39,-30 -56,-47 -36,-33 -68,-70 -94,-105 -13,-18 -25,-35 -35,-52 -2,-4 -5,-8 -7,-11 -2,-4 -5,-8 -7,-12 -4,-7 -8,-14 -12,-20 -3,-7 -7,-12 -10,-17 -2,-6 -5,-10 -7,-14 -4,-7 -6,-11 -6,-11 0,0 -2,4 -6,11 -4,8 -9,19 -13,34 -3,8 -5,16 -7,26 -2,9 -4,19 -5,30 -3,22 -3,47 -1,75 3,28 7,58 17,89 10,30 24,62 43,93 18,31 42,60 70,87l5 5 2 3 2 1 2 2 9 8c6,5 15,12 21,18 14,11 27,20 40,29 25,19 47,34 63,48 17,14 29,25 38,37 8,11 16,26 20,42 2,11 4,23 4,35 -5,7 -11,15 -18,23 -12,15 -25,27 -39,40 -15,14 -30,26 -46,36 -44,-12 -88,-25 -132,-38 -154,-44 -495,-170 -577,49 -63,167 103,328 214,427 189,169 406,305 615,445 165,112 419,239 510,427 99,207 -156,270 -310,242 -71,-13 -171,-60 -266,-114 -47,-121 -125,-220 -259,-306l0 0c-2,-2 -4,-3 -6,-4 -35,-23 -75,-45 -119,-66 -41,-20 -80,-38 -118,-56 -28,-9 -56,-18 -84,-24 -115,-29 -231,-29 -344,9 75,-43 158,-67 244,-77 -149,-84 -270,-192 -354,-404 -29,-73 -63,-137 -102,-194 -4,9 -7,17 -12,26 0,1 -1,2 -1,2 -5,11 -11,21 -17,30 -6,10 -12,19 -18,28 -7,10 -13,19 -21,27 -28,36 -60,68 -93,97 -32,28 -65,53 -98,77 -2,1 -4,2 -6,4 -34,25 -69,48 -102,71 -64,45 -122,90 -166,135 -22,22 -42,43 -57,63 -8,10 -14,21 -20,30 -7,9 -12,18 -17,26 -4,8 -8,15 -11,22 -4,6 -6,12 -8,17 -4,9 -6,14 -6,14 0,0 0,-6 2,-16 1,-10 4,-25 9,-43 3,-9 6,-20 10,-31 4,-11 9,-23 15,-35 12,-24 28,-50 48,-78 19,-27 43,-54 70,-81 27,-27 57,-53 89,-80 31,-25 65,-51 98,-76 5,-4 10,-8 15,-12 28,-22 56,-44 82,-67 32,-27 61,-56 87,-86 6,-7 12,-15 18,-23 6,-7 12,-15 17,-23 6,-8 11,-16 15,-24 5,-7 10,-16 15,-25 5,-11 10,-22 15,-33 9,-22 17,-45 22,-68 1,-1 1,-3 1,-4 -39,-231 -155,-374 -219,-437l-17 -9 -20 -10 -23 -10c-6,-3 -14,-6 -21,-9l-22 -8 -22 -7 -23 -6 -23 -5 -23 -5 -23 -3 -23 -3 -24 -2 -23 -1 -24 0 -23 0 -24 2 -16 2c-13,5 -25,10 -37,16 -19,9 -39,21 -57,33 -19,12 -37,26 -54,41 -17,17 -32,32 -47,50 -14,17 -27,35 -38,53 -5,9 -11,18 -15,27 -5,10 -10,19 -14,28 -9,18 -16,36 -22,53 -5,17 -9,32 -13,46 -3,14 -6,27 -8,37 -2,11 -3,19 -3,25 -1,5 -2,8 -2,8 0,0 0,-3 -2,-8 0,-6 -3,-14 -3,-25 -2,-11 -2,-24 -2,-39 0,-8 0,-16 1,-24 0,-9 2,-18 3,-27 3,-19 6,-39 13,-60 2,-5 3,-10 5,-15 6,-16 13,-32 21,-49 10,-21 24,-42 39,-62 15,-20 33,-40 51,-57 20,-17 40,-33 62,-46 14,-8 29,-16 44,-23 6,-20 12,-40 19,-60 6,-20 13,-40 20,-60 7,-20 14,-41 21,-61 8,-20 15,-40 23,-59 -2,21 -5,42 -9,63 -3,21 -7,42 -10,63 -4,21 -8,42 -12,63 -2,10 -4,19 -6,29 6,-2 12,-3 18,-4l25 -5 25 -3 26 -2 25 -1 26 0 25 2 26 2 25 4 25 5 25 6 25 7 24 8 24 9 24 11 22 11 11 7c52,-30 108,-55 207,-21l204 63 56 -94c-16,-1 -32,-4 -48,-9 -9,-3 -18,-7 -26,-11 -8,-5 -16,-9 -23,-15 -14,-10 -26,-21 -35,-31 -9,-11 -15,-20 -19,-27 -4,-7 -6,-11 -6,-11 0,0 3,4 8,10 5,5 13,13 23,22 10,8 23,16 37,23 8,3 15,6 23,9 8,2 16,4 24,5 16,2 31,2 45,0 -8,-5 -15,-10 -23,-16 -67,-56 -73,-131 -48,-190 18,-40 44,-52 72,-51 -4,-2 -9,-3 -14,-4 -14,-3 -26,-5 -40,-5 -13,0 -26,1 -39,3 -12,2 -24,5 -35,10 -11,3 -22,8 -31,13 -9,5 -17,10 -24,15 -7,6 -12,10 -17,15 -5,4 -8,7 -10,10 -2,2 -4,3 -4,3 0,0 1,-1 3,-4 3,-2 5,-6 9,-11 4,-5 10,-10 16,-16 6,-6 14,-13 23,-19 9,-6 19,-12 30,-18 11,-6 23,-10 37,-14 13,-4 27,-7 41,-9 15,-1 31,-1 45,0 15,2 30,5 44,10 14,4 28,10 41,17 12,7 24,15 34,23 11,8 20,17 28,25 2,2 3,4 5,6 1,-1 2,-2 3,-4l54 -89 -10 -43 26 9 45 -65c13,-19 5,-45 -17,-52l-229 -165 -48 -13c0,0 -11,-122 -87,-148 -548,-181 -637,-474 -637,-474 -150,113 -130,290 -130,290 -238,-35 -480,15 -674,155l273 42 -364 34c-127,123 -224,293 -272,513l311 -32 -328 121c-1,8 -2,16 -3,25 -19,146 15,404 10,573l237 -158 -251 279c-20,104 -48,195 -76,272l-83 46c-45,31 -86,66 -120,108 16,-34 37,-65 59,-95l-155 35c-86,8 -177,23 -255,63 30,-22 62,-39 96,-54l-146 9 -82 -108c-75,-98 -210,-127 -318,-68l-9 5 26 7c25,7 46,27 54,53l16 52c55,-23 119,-2 150,48l31 49 -22 10 -14 -20c-38,-56 -114,-73 -173,-38 54,47 96,105 123,171l35 83c9,23 23,43 43,57 33,24 76,31 117,18l24 -7c32,-10 65,-15 98,-15l181 9c-23,-14 -46,-30 -67,-48 80,37 110,54 195,61l-1 3 122 7c21,2 42,-2 62,-9 38,-14 112,-40 209,-62 -1,-19 -3,-37 -4,-56 -1,-20 0,-40 0,-61 0,-3 0,-7 0,-10 1,-11 1,-21 2,-31 0,-6 0,-12 1,-19 1,-19 3,-39 6,-57 2,-19 5,-37 8,-54 3,-17 6,-33 10,-47 3,-15 6,-28 10,-40 3,-11 6,-21 8,-30 6,-16 9,-26 9,-26 0,0 -2,10 -5,27 -2,9 -3,19 -5,31 -2,12 -4,25 -5,40 -2,15 -3,31 -4,47 -1,17 -1,35 -1,53 0,19 0,38 1,57 1,14 2,28 3,42 1,5 1,10 2,16 2,19 4,38 8,57 2,17 6,33 9,49 0,2 1,4 1,6 3,13 7,27 10,39 30,61 67,118 109,170 8,-18 15,-37 23,-56 11,-25 22,-50 34,-75 11,-25 23,-50 36,-74 6,-13 13,-26 20,-39 6,-10 11,-20 17,-31 25,-44 50,-86 73,-120 9,-12 16,-23 24,-34 13,-19 25,-35 35,-47 7,-10 14,-17 18,-23 4,-5 6,-7 6,-7 0,0 0,3 -2,10 -2,6 -4,15 -8,27 -2,8 -5,17 -8,27 -7,20 -14,42 -23,68 -5,14 -11,28 -17,43 -10,27 -21,56 -34,86 0,0 0,1 0,1 -10,24 -21,48 -31,73 -11,24 -23,49 -34,74 -12,24 -23,49 -35,73 -12,24 -24,48 -35,70 -3,5 -5,9 -7,13 -12,24 -25,46 -36,68l-79 213c-14,53 -22,106 -21,160 -9,-36 -14,-73 -16,-111l-95 128c-60,63 -119,134 -152,214 9,-35 22,-69 37,-103l-104 102 -133 -28c-121,-25 -242,41 -285,156l-4 10 25 -11c24,-11 52,-10 75,4l46 29c27,-53 89,-79 146,-62l55 17 -10 23 -24 -6c-66,-18 -134,19 -156,83 71,1 141,18 205,50l81 40c21,11 45,17 69,15 41,-4 79,-26 101,-63l14 -22c17,-28 38,-53 64,-74l143 -112c-27,4 -54,7 -82,8 85,-24 118,-31 187,-82l1 3 98 -74c16,-13 30,-29 40,-47 25,-47 85,-149 176,-260 60,31 120,55 175,73 11,3 22,7 33,10 -50,-54 -89,-116 -115,-184 59,91 140,156 239,202 16,7 32,14 49,21 165,30 333,47 455,103l-128 220 0 0c-51,85 -73,189 -52,285 -21,-40 -34,-83 -40,-128l-53 92c-64,109 -55,246 22,346l149 194c5,5 8,11 11,16 32,51 50,110 45,169 -7,-33 -21,-63 -40,-90 -4,11 -10,22 -18,31l-74 89c-32,49 -59,101 -69,157 -2,-25 -1,-51 2,-77l-74 89 -135 -27c-121,-24 -243,44 -285,160l-4 10 24 -12c25,-11 53,-10 76,4l47 29c27,-54 89,-81 146,-64l56 17 -10 23 -24 -7c-67,-17 -135,21 -156,86 71,0 142,17 206,48l82 40c19,10 40,16 62,15 44,-1 86,-25 110,-65l13 -22c17,-28 39,-54 64,-75l61 -58c-31,9 -62,15 -93,18 83,-27 156,-82 220,-140l206 -195c45,-43 49,-113 9,-160l-50 -58c-74,-87 -61,-219 29,-290l67 -51c10,-13 20,-26 32,-38 0,0 0,-1 1,-1 27,-28 60,-54 96,-76 20,-13 41,-25 63,-36 55,-27 114,-50 171,-72 80,-31 160,-63 225,-108 17,-11 33,-22 47,-34 7,-6 14,-13 21,-19 7,-7 13,-13 19,-20 24,-27 43,-56 57,-85 13,-29 21,-57 26,-83 2,-17 3,-32 2,-46 0,-7 0,-14 -1,-21 -1,-9 -2,-18 -4,-25 -2,-7 -3,-13 -5,-18 -3,-9 -5,-14 -5,-14 0,0 2,5 6,14 2,5 4,11 6,18 2,7 4,15 6,25 1,7 2,15 2,23 1,14 1,29 0,45 -3,27 -10,56 -22,87 -12,30 -30,62 -54,92 -6,7 -12,15 -19,22 -6,7 -13,14 -20,21 -15,14 -30,27 -47,39 -66,50 -146,88 -225,124 -78,35 -156,71 -219,116 -32,23 -59,47 -82,74 -2,2 -4,4 -5,6 175,204 404,358 663,443 65,21 121,61 162,113 54,51 99,112 113,183 -14,-26 -32,-49 -54,-69 4,13 7,27 10,40l10 233c10,65 33,131 82,174 -28,-11 -53,-28 -76,-49l7 134 -118 71c-106,64 -149,196 -102,311l4 10 10 -25c10,-26 32,-44 59,-49l53 -11 0 0c-16,-58 11,-119 65,-145l53 -26 8 24 -22 11c-61,33 -86,107 -57,169 52,-48 116,-84 184,-104l88 -26c22,-6 42,-18 58,-34 30,-31 43,-75 34,-119l-5 -25c-7,-32 -8,-66 -4,-99l16 -236c-30,34 -66,61 -107,77 76,-60 108,-164 119,-258l17 -235c-12,-78 -54,-149 -116,-198l-20 -15c-46,-36 -84,-79 -115,-127 4,64 20,126 55,175 -100,-87 -126,-249 -129,-376 -2,-13 -3,-25 -4,-38l-11 -174c-6,-100 -13,-190 -24,-272 161,48 343,66 491,3 124,-52 197,-199 170,-334zm-1866 -2366l0 0c16,4 21,24 11,36l-15 17c-29,33 -78,36 -110,7l-110 -135 224 75z"/>
 </g>
</svg>
