<?xml version="1.0" encoding="UTF-8"?>
<!DOCTYPE svg PUBLIC "-//W3C//DTD SVG 1.1//EN" "http://www.w3.org/Graphics/SVG/1.1/DTD/svg11.dtd">
<!-- Creator: CorelDRAW X7 -->
<svg xmlns="http://www.w3.org/2000/svg" xml:space="preserve" width="4.39761in" height="4.33891in" version="1.1" style="shape-rendering:geometricPrecision; text-rendering:geometricPrecision; image-rendering:optimizeQuality; fill-rule:evenodd; clip-rule:evenodd"
viewBox="0 0 27105 26744"
 xmlns:xlink="http://www.w3.org/1999/xlink">
 <defs>
  <style type="text/css">
   <![CDATA[
    .fil1 {fill:#BDBFC1}
    .fil0 {fill:#848688}
    .fil2 {fill:#4B4B4D}
   ]]>
  </style>
 </defs>
 <g id="Layer_x0020_1">
  <metadata id="CorelCorpID_0Corel-Layer"/>
  <path class="fil0" d="M26102 21259l-1821 -6231c-450,-1542 -1864,-2601 -3470,-2601l-4617 0c-313,1528 -546,3256 -606,5136l0 0c0,105 -9,209 -25,310l3659 0 -294 -1662c-123,-699 343,-1365 1041,-1488 698,-124 1365,342 1488,1041l1120 6340c124,698 -342,1364 -1041,1488 -698,123 -1364,-343 -1488,-1041l-372 -2110 -4839 0 0 1365c0,709 -575,1284 -1284,1284 -709,0 -1284,-574 -1284,-1284l0 -1365 -4839 0 -373 2110c-123,698 -789,1164 -1488,1041 -698,-124 -1164,-790 -1041,-1488l1121 -6340c123,-699 789,-1165 1488,-1041 698,123 1164,789 1041,1488l-294 1662 3659 0c-16,-101 -25,-205 -26,-310l0 0c-59,-1880 -293,-3608 -606,-5136l-4617 0c-1606,0 -3019,1059 -3470,2601l-1820 6231c-101,344 -148,686 -148,1021 0,721 219,1409 603,1988 384,579 931,1046 1583,1327 435,187 916,292 1432,293l18158 0c516,-1 997,-106 1432,-293 434,-187 822,-457 1146,-788 649,-662 1040,-1565 1039,-2527 0,-335 -47,-677 -147,-1021z"/>
  <path class="fil1" d="M17803 4699c-100,-1009 -551,-1912 -1230,-2592 -774,-774 -1839,-1251 -3020,-1251 -1181,0 -2246,478 -3021,1251 -679,680 -1129,1583 -1229,2592 -10,98 -15,197 -18,296 26,36 60,81 99,133 7,8 12,15 19,24 85,110 197,248 331,404 72,83 151,171 236,263 485,524 1173,1148 1950,1549 519,268 1070,437 1633,437 558,0 1105,-166 1620,-431 514,-264 991,-625 1395,-993 318,-288 589,-578 804,-825 144,-168 262,-315 349,-428 40,-52 73,-97 100,-133 -3,-99 -8,-198 -18,-296zm-4250 3962c-736,0 -1420,-219 -2026,-533 -449,-233 -857,-518 -1219,-814 133,342 270,717 409,1125 306,898 616,1950 885,3132 32,140 64,283 94,428 31,141 60,283 89,428 211,1061 384,2214 490,3443 46,541 80,1097 98,1666l0 13c0,113 17,221 46,324 56,195 159,370 300,511 214,214 507,345 834,345 327,0 619,-131 834,-345 140,-141 244,-316 300,-511 29,-103 45,-211 45,-324l1 -13c18,-570 52,-1125 98,-1666 106,-1229 278,-2382 490,-3443 28,-145 58,-287 88,-428 31,-145 62,-288 94,-428 269,-1182 580,-2234 886,-3132 138,-407 276,-783 408,-1125 -362,297 -770,581 -1218,814 -606,314 -1291,533 -2026,533z"/>
  <path class="fil2" d="M25210 24807c-324,331 -712,601 -1146,788 -435,187 -916,292 -1432,293l-18158 0c-516,-1 -997,-106 -1432,-293 -652,-281 -1199,-748 -1583,-1327 -384,-579 -603,-1267 -603,-1988 0,-335 47,-677 148,-1021l1820 -6231c451,-1542 1864,-2601 3470,-2601l4617 0c313,1528 547,3256 606,5136l0 0c1,105 10,209 26,310l-3659 0 294 -1662c123,-699 -343,-1365 -1041,-1488 -699,-124 -1365,342 -1488,1041l-1121 6340c-123,698 343,1364 1041,1488 699,123 1365,-343 1488,-1041l373 -2110 4839 0 0 1365c0,709 575,1284 1284,1284 709,0 1284,-574 1284,-1284l0 -1365 4839 0 372 2110c124,698 790,1164 1488,1041 699,-124 1165,-790 1041,-1488l-1120 -6340c-123,-699 -790,-1165 -1488,-1041 -698,123 -1164,789 -1041,1488l294 1662 -3659 0c16,-101 25,-205 25,-310l0 0c60,-1880 293,-3608 606,-5136l4617 0c1606,0 3020,1059 3470,2601l1821 6231c100,344 147,686 147,1021 1,962 -390,1865 -1039,2527zm-14493 -16368c-139,-408 -276,-783 -409,-1125 362,296 770,581 1219,814 606,314 1290,533 2026,533 735,0 1420,-219 2026,-533 448,-233 856,-517 1218,-814 -132,342 -270,718 -408,1125 -306,898 -617,1950 -886,3132 -32,140 -63,283 -94,428 -30,141 -60,283 -88,428 -211,1061 -384,2214 -490,3443 -46,541 -80,1096 -98,1666l-1 13c0,113 -16,221 -45,324 -56,195 -160,370 -300,511 -215,214 -507,345 -834,345 -327,0 -620,-131 -834,-345 -141,-141 -244,-316 -300,-511 -29,-103 -46,-211 -46,-324l0 -13c-18,-569 -52,-1125 -98,-1666 -106,-1229 -279,-2382 -490,-3443 -29,-145 -58,-287 -89,-428 -30,-145 -62,-288 -94,-428 -269,-1182 -579,-2234 -885,-3132zm-747 -2620c-85,-92 -164,-180 -236,-263 -134,-156 -246,-294 -331,-404 -7,-9 -12,-16 -19,-24 -39,-52 -73,-97 -99,-133 3,-99 8,-198 18,-296 100,-1009 550,-1912 1229,-2592 775,-774 1840,-1251 3021,-1251 1181,0 2246,478 3020,1251 679,680 1130,1583 1230,2592 10,98 15,197 18,296 -27,36 -60,81 -100,133 -87,113 -205,260 -349,428 -215,247 -486,537 -804,825 -404,368 -881,729 -1395,993 -515,265 -1062,431 -1620,431 -563,0 -1114,-169 -1633,-437 -776,-401 -1465,-1025 -1950,-1549zm16954 15199l-1821 -6230c-557,-1907 -2305,-3217 -4292,-3217l-4429 0c251,-1073 536,-2032 817,-2857 367,-1076 726,-1925 992,-2502 133,-289 243,-509 319,-657 38,-74 67,-129 87,-165 10,-19 17,-32 22,-41l5 -9 1 -2 0 0c3,-5 4,-10 7,-15 4,-7 7,-15 11,-22 5,-11 9,-22 12,-33 3,-8 6,-16 9,-25 3,-10 5,-21 7,-32 2,-9 4,-18 5,-27 1,-11 2,-21 2,-32 1,-8 2,-16 2,-24 0,-1415 -574,-2700 -1501,-3626 -927,-927 -2212,-1502 -3626,-1502 -1415,0 -2699,575 -3626,1502 -927,926 -1502,2211 -1502,3626 0,7 2,15 2,23 1,11 1,22 3,33 1,9 3,18 5,27 2,11 4,22 7,32 2,9 5,17 8,25 4,11 8,22 13,33 3,7 7,15 11,23 2,4 4,9 7,14l0 0c12,21 715,1276 1443,3427 275,813 553,1755 800,2806l-4430 0c-1986,0 -3734,1310 -4291,3217l-1821 6230c-123,423 -182,847 -182,1262 0,1195 484,2310 1284,3126 400,408 880,743 1419,975 539,233 1138,363 1771,363l18158 0c633,0 1231,-130 1770,-363 810,-348 1484,-926 1958,-1640 473,-713 745,-1565 745,-2461 1,-415 -58,-839 -181,-1262z"/>
 </g>
</svg>
