<?xml version="1.0" encoding="UTF-8"?>
<!DOCTYPE svg PUBLIC "-//W3C//DTD SVG 1.1//EN" "http://www.w3.org/Graphics/SVG/1.1/DTD/svg11.dtd">
<!-- Creator: CorelDRAW X7 -->
<svg xmlns="http://www.w3.org/2000/svg" xml:space="preserve" width="1.68569in" height="1.94163in" version="1.1" style="shape-rendering:geometricPrecision; text-rendering:geometricPrecision; image-rendering:optimizeQuality; fill-rule:evenodd; clip-rule:evenodd"
viewBox="0 0 8949 10307"
 xmlns:xlink="http://www.w3.org/1999/xlink">
 <defs>
  <style type="text/css">
   <![CDATA[
    .fil4 {fill:#2A80B8;fill-rule:nonzero}
    .fil0 {fill:#314972;fill-rule:nonzero}
    .fil5 {fill:#3497DA;fill-rule:nonzero}
    .fil3 {fill:#D3D6DB;fill-rule:nonzero}
    .fil1 {fill:#DD4D00;fill-rule:nonzero}
    .fil2 {fill:#DF7C2B;fill-rule:nonzero}
   ]]>
  </style>
 </defs>
 <g id="Objects">
  <metadata id="CorelCorpID_0Corel-Layer"/>
  <path class="fil0" d="M2632 909c0,131 -107,237 -238,237l-1028 0c-130,0 -237,-106 -237,-237l0 -672c0,-131 107,-237 237,-237l1028 0c131,0 238,106 238,237l0 672z"/>
  <path class="fil1" d="M8321 5760l0 3484c0,695 -732,1063 -1393,1063l-5162 0c-661,0 -1197,-563 -1197,-1258l0 -6903c0,-695 536,-1259 1197,-1259l2143 0c0,0 822,-24 1072,33 250,57 323,192 604,514 542,621 1405,1649 2017,2382 418,501 569,636 657,888 88,252 62,1056 62,1056z"/>
  <path class="fil2" d="M7752 5760l0 3289c0,695 -536,1258 -1198,1258l-5356 0c-662,0 -1198,-563 -1198,-1258l0 -6903c0,-695 536,-1259 1198,-1259l2142 0c0,0 823,-24 1073,33 250,57 323,192 604,514 542,621 1405,1649 2017,2382 418,501 568,636 656,888 88,252 62,1056 62,1056z"/>
  <path class="fil3" d="M6342 5941l0 2195c0,464 -358,840 -800,840l-3573 0c-442,0 -800,-376 -800,-840l0 -4606c0,-464 358,-839 800,-839l1429 0c0,0 549,-17 715,21 167,38 216,128 404,343 361,414 937,1100 1345,1589 279,334 380,425 438,593 59,168 42,704 42,704z"/>
  <path class="fil4" d="M4048 4706c282,497 803,946 852,1693 49,746 -606,1498 -1280,1498 -673,0 -1341,-631 -1329,-1474 13,-843 364,-929 728,-1487 365,-558 591,-1644 591,-1644 0,0 157,918 438,1414z"/>
  <path class="fil5" d="M4708 5956c-7,-99 -18,-201 -32,-303 -189,-352 -454,-640 -628,-947 -281,-496 -438,-1414 -438,-1414 0,0 -226,1086 -591,1644 -364,558 -715,644 -728,1487 -2,140 17,273 49,399 252,388 669,632 1087,632 674,0 1329,-752 1281,-1498z"/>
  <path class="fil1" d="M7932 4592l-352 -474c336,-249 542,-417 711,-583 173,-169 -52,-449 -54,-452 -11,-13 -801,-1010 -1361,-1593 -117,-121 -347,-46 -473,46 -328,240 -647,522 -650,525l-392 -441c14,-12 343,-304 694,-561 358,-260 901,-337 1246,23 580,603 1362,1590 1395,1632 195,238 451,810 7,1244 -190,185 -413,368 -771,634z"/>
 </g>
</svg>
