<?xml version="1.0" encoding="UTF-8"?>
<!DOCTYPE svg PUBLIC "-//W3C//DTD SVG 1.1//EN" "http://www.w3.org/Graphics/SVG/1.1/DTD/svg11.dtd">
<!-- Creator: CorelDRAW X7 -->
<svg xmlns="http://www.w3.org/2000/svg" xml:space="preserve" width="2.77213in" height="1.99439in" version="1.1" style="shape-rendering:geometricPrecision; text-rendering:geometricPrecision; image-rendering:optimizeQuality; fill-rule:evenodd; clip-rule:evenodd"
viewBox="0 0 2703 1945"
 xmlns:xlink="http://www.w3.org/1999/xlink">
 <defs>
  <style type="text/css">
   <![CDATA[
    .fil0 {fill:#21313F;fill-rule:nonzero}
    .fil1 {fill:white;fill-rule:nonzero}
   ]]>
  </style>
 </defs>
 <g id="OBJECTS">
  <metadata id="CorelCorpID_0Corel-Layer"/>
  <path class="fil0" d="M2470 449c-48,0 -87,-39 -87,-86 0,-48 39,-87 87,-87l147 0c47,0 86,39 86,87 0,47 -39,86 -86,86l-147 0z"/>
  <polygon class="fil1" points="742,712 742,14 1017,14 1017,712 "/>
  <path class="fil0" d="M1004 27l0 671 -248 0 0 -671 248 0zm27 -27l0 0 -303 0 0 725 303 0 0 -725z"/>
  <polygon class="fil0" points="728,725 728,565 1031,565 1031,725 "/>
  <polygon class="fil0" points="1031,666 1031,59 1182,113 1182,612 "/>
  <polygon class="fil0" points="577,666 577,59 728,22 728,703 "/>
  <polygon class="fil1" points="1195,174 2481,234 2481,491 1195,551 "/>
  <path class="fil0" d="M1209 189l1259 58 0 231 -1259 59 0 -348zm-27 -29l0 0 0 405 1313 -61 0 -283 -1313 -61z"/>
  <polygon class="fil0" points="1182,565 1182,476 2495,449 2495,504 "/>
  <polygon class="fil1" points="268,608 268,117 564,117 564,608 "/>
  <path class="fil0" d="M550 130l0 465 -268 0 0 -465 268 0zm27 -27l0 0 -322 0 0 519 322 0 0 -519z"/>
  <polygon class="fil0" points="255,622 255,507 577,507 577,622 "/>
  <polygon class="fil0" points="490,622 490,103 577,103 577,622 "/>
  <polygon class="fil0" points="60,416 60,310 255,310 255,416 "/>
  <path class="fil0" d="M233 1496c48,0 87,38 87,86 0,48 -39,87 -87,87l-146 0c-48,0 -87,-39 -87,-87 0,-48 39,-86 87,-86l146 0z"/>
  <polygon class="fil1" points="1686,1931 1686,1233 1961,1233 1961,1931 "/>
  <path class="fil0" d="M1948 1247l0 671 -248 0 0 -671 248 0zm27 -27l0 0 -302 0 0 725 302 0 0 -725z"/>
  <polygon class="fil0" points="1975,1220 1975,1380 1673,1380 1673,1220 "/>
  <polygon class="fil0" points="1673,1279 1673,1886 1521,1831 1521,1333 "/>
  <polygon class="fil0" points="2126,1279 2126,1886 1975,1922 1975,1242 "/>
  <polygon class="fil1" points="222,1711 222,1454 1508,1394 1508,1770 "/>
  <path class="fil0" d="M1494 1408l0 348 -1259 -58 0 -232 1259 -58zm27 -28l0 0 -1313 61 0 283 1313 61 0 -405z"/>
  <polygon class="fil0" points="1521,1380 1521,1469 208,1496 208,1441 "/>
  <polygon class="fil1" points="2139,1828 2139,1336 2435,1336 2435,1828 "/>
  <path class="fil0" d="M2421 1350l0 464 -268 0 0 -464 268 0zm27 -27l0 0 -322 0 0 519 322 0 0 -519z"/>
  <polygon class="fil0" points="2448,1323 2448,1438 2126,1438 2126,1323 "/>
  <polygon class="fil0" points="2213,1323 2213,1842 2126,1842 2126,1323 "/>
  <polygon class="fil0" points="2643,1529 2643,1635 2448,1635 2448,1529 "/>
 </g>
</svg>
