<?xml version="1.0" encoding="UTF-8"?>
<!DOCTYPE svg PUBLIC "-//W3C//DTD SVG 1.1//EN" "http://www.w3.org/Graphics/SVG/1.1/DTD/svg11.dtd">
<!-- Creator: CorelDRAW X7 -->
<svg xmlns="http://www.w3.org/2000/svg" xml:space="preserve" width="2.70713in" height="2.7074in" version="1.1" style="shape-rendering:geometricPrecision; text-rendering:geometricPrecision; image-rendering:optimizeQuality; fill-rule:evenodd; clip-rule:evenodd"
viewBox="0 0 1957 1957"
 xmlns:xlink="http://www.w3.org/1999/xlink">
 <defs>
  <style type="text/css">
   <![CDATA[
    .fil0 {fill:#BDBFC1}
    .fil1 {fill:#848688}
    .fil2 {fill:#4B4B4D}
   ]]>
  </style>
 </defs>
 <g id="Layer_x0020_1">
  <metadata id="CorelCorpID_0Corel-Layer"/>
  <path class="fil0" d="M1804 1269c-14,18 -29,35 -45,51l0 0c-8,9 -22,10 -31,1 -10,-8 -10,-22 -2,-31 15,-16 30,-33 44,-50 8,-9 22,-11 31,-3 10,8 11,22 3,32zm-116 -266c-12,-4 -19,-16 -15,-28 6,-21 12,-42 16,-63 3,-13 15,-20 27,-18 12,3 20,15 17,27 -5,22 -10,45 -17,67 -4,12 -16,18 -28,15zm32 -368c12,-1 23,8 25,20 2,23 3,46 4,69 1,12 -9,22 -21,23 -13,0 -23,-10 -24,-22 0,-21 -2,-43 -4,-66 -1,-12 8,-23 20,-24zm-85 533c-11,20 -23,39 -37,58l0 0c-7,10 -21,13 -31,6 -10,-7 -13,-21 -6,-31 13,-19 25,-37 36,-56 6,-10 20,-14 30,-7 11,6 15,20 8,30zm-26 280c-20,13 -40,25 -60,36 -11,5 -25,1 -30,-10 -6,-11 -2,-24 9,-30 19,-10 38,-21 56,-33 10,-7 24,-4 31,6 7,11 4,24 -6,31zm-82 -760c12,-3 24,4 27,16 6,22 11,44 15,67l0 0c2,13 -6,24 -18,27 -12,2 -24,-6 -26,-18 -4,-23 -9,-44 -14,-65 -3,-12 4,-24 16,-27zm-158 681c-93,92 -214,138 -335,138 -121,0 -242,-46 -334,-138 -92,-93 -139,-214 -139,-335 0,-121 47,-242 139,-334 92,-92 213,-139 334,-139 121,0 242,47 335,139 92,92 138,213 138,334 0,121 -46,242 -138,335zm106 10c-15,16 -31,32 -47,49l0 0c-9,8 -23,8 -32,0 -9,-9 -9,-23 0,-32 16,-16 31,-32 46,-48 9,-9 23,-9 32,-1 9,8 9,23 1,32zm-61 366c-24,2 -46,3 -69,4l0 0c-12,1 -23,-9 -23,-22 -1,-12 9,-22 21,-23 22,0 44,-2 66,-4 12,-1 23,8 25,20 1,12 -8,23 -20,25zm-143 -194c-2,-12 6,-24 18,-26 22,-4 44,-9 64,-14 12,-3 24,4 28,16 3,12 -5,24 -17,27 -21,6 -44,11 -67,15l0 0c-12,2 -24,-6 -26,-18zm-97 165c-2,12 -14,20 -26,17 -23,-5 -45,-10 -67,-17 -12,-4 -19,-16 -15,-28 3,-12 16,-19 28,-15 21,6 42,12 63,16 12,3 20,15 17,27zm-140 -125l0 0c-12,0 -22,-10 -22,-23 0,-12 10,-22 22,-22 23,0 45,-1 67,-1 12,-1 22,9 23,21 0,13 -9,23 -22,23 -22,1 -44,2 -68,2zm-103 36c-6,11 -20,15 -31,8 -19,-11 -38,-23 -58,-37l0 0c-10,-7 -13,-21 -6,-31 8,-10 21,-13 32,-6 18,13 37,25 55,36 11,6 14,20 8,30zm-100 174c-7,10 -22,11 -31,3 -18,-14 -35,-29 -52,-45l0 0c-9,-8 -9,-22 -1,-31 9,-10 23,-10 32,-2 16,15 32,30 49,44 10,8 11,22 3,31zm-109 -327c-9,9 -23,9 -32,1 -16,-15 -33,-31 -49,-47l0 0c-9,-9 -9,-23 0,-32 9,-9 23,-9 32,0 16,16 32,31 47,46 9,9 10,23 2,32zm-71 141c-10,7 -24,4 -31,-6 -12,-20 -24,-40 -35,-60l0 0c-6,-11 -2,-25 9,-30 11,-6 25,-2 31,9 10,19 21,38 33,56 7,10 4,24 -7,31zm-109 -234c-12,3 -24,-5 -28,-17 -5,-21 -10,-44 -14,-67l0 0c-3,-12 5,-24 18,-26 12,-2 24,6 26,18 4,22 9,44 14,64 3,12 -4,24 -16,28zm-63 -279c-1,-22 -1,-44 -1,-68l0 0c0,-12 10,-22 22,-22 13,0 23,10 23,22 0,23 0,45 1,67 0,12 -9,22 -22,23 -12,0 -22,-9 -23,-22zm-38 -171c-11,-6 -14,-20 -8,-31 12,-19 24,-38 37,-58l0 0c7,-10 21,-13 32,-6 10,7 12,21 5,32 -12,18 -24,37 -35,55 -6,11 -20,14 -31,8zm153 -241c15,-16 30,-33 47,-49l0 0c9,-9 23,-9 32,0 8,9 8,23 0,32 -17,16 -32,32 -47,47 -8,9 -22,10 -31,2 -9,-9 -10,-23 -1,-32zm110 -176c22,-5 44,-10 67,-14l0 0c13,-3 24,5 27,18 2,12 -6,24 -18,26 -23,4 -44,9 -65,14 -12,3 -24,-4 -27,-16 -3,-12 4,-24 16,-28zm262 -35c22,-1 45,-1 68,-1l0 0c13,0 23,10 23,22 0,13 -10,23 -23,23 -22,0 -45,0 -66,1 -13,0 -23,-9 -23,-22 -1,-12 9,-22 21,-23zm172 -38c6,-11 20,-14 30,-8 20,12 39,24 58,37l0 0c11,7 13,21 6,31 -7,11 -21,13 -31,6 -19,-12 -37,-24 -56,-35 -10,-6 -14,-20 -7,-31zm99 -174c8,-9 22,-11 32,-3 18,15 35,30 51,45 9,9 10,23 1,32 -8,9 -22,10 -31,1 -16,-15 -33,-29 -50,-43 -9,-8 -11,-22 -3,-32zm110 328c8,-9 23,-10 32,-1 16,15 32,30 49,47l0 0c8,9 8,23 0,32 -9,8 -23,8 -32,0 -16,-17 -32,-32 -48,-47 -9,-8 -9,-22 -1,-31zm70 -141c11,-7 25,-4 31,6 13,19 25,39 36,60l0 0c5,11 1,24 -10,30 -11,6 -24,2 -30,-9 -10,-20 -21,-38 -33,-56 -7,-11 -4,-25 6,-31zm172 512c1,22 2,45 2,68l0 0c0,13 -10,23 -23,23 -12,0 -22,-10 -22,-23 0,-22 -1,-45 -1,-66 -1,-13 9,-23 21,-23 13,-1 23,9 23,21zm-1193 128c-7,21 -12,42 -17,63 -2,12 -14,20 -26,17 -12,-2 -20,-14 -18,-26 5,-23 11,-45 18,-67 3,-12 16,-19 28,-15 11,3 18,16 15,28zm-47 340c-13,1 -24,-8 -25,-20 -2,-24 -4,-46 -5,-69l0 0c0,-12 10,-23 22,-23 12,-1 23,9 23,21 1,22 2,44 5,66 1,12 -8,23 -20,25zm1563 -405c0,-5 0,-9 0,-14 0,-192 -70,-384 -201,-541 -3,7 -9,13 -17,15 -12,3 -24,-4 -27,-17 -5,-20 -10,-41 -16,-63 -150,-148 -340,-231 -535,-249 4,7 4,15 0,22 -7,11 -20,14 -31,8 -3,-2 -5,-4 -8,-5l-130 156c14,4 27,7 41,12l0 0c12,3 18,16 15,28 -4,11 -16,18 -28,15 -20,-7 -40,-12 -60,-16l-5 6c-3,4 -8,6 -12,8 -120,25 -234,84 -327,177 -7,7 -14,15 -21,23 0,0 0,0 0,0 6,11 2,25 -9,31 -11,5 -21,11 -32,17 -58,78 -96,165 -115,256 -1,4 -4,9 -8,12l-228 189c10,177 79,351 200,496 2,-8 8,-14 16,-16 12,-2 24,5 27,17 5,21 11,42 16,63 150,148 340,232 535,250 -4,-7 -4,-16 1,-23 6,-10 20,-14 31,-7 18,11 37,22 56,34 197,-2 394,-69 555,-203 -8,-2 -14,-8 -16,-16 -2,-12 5,-24 17,-27 21,-5 42,-10 63,-16 86,-87 149,-188 191,-295 30,-77 48,-157 57,-239 -7,3 -14,3 -21,-1 -10,-7 -14,-20 -7,-31 11,-18 22,-37 33,-56z"/>
  <path class="fil1" d="M1105 57c-2,-4 -5,-7 -9,-9 -3,-1 -5,-2 -9,-2 -17,-1 -35,-1 -53,-1 -253,0 -506,96 -699,290 -194,193 -290,446 -290,699 0,9 0,18 0,27 0,5 2,10 3,14 2,4 5,7 8,10 7,6 16,10 25,10 7,0 15,-3 22,-9l9 -7 22 -18 16 -14 0 0 6 -5 195 -162c19,-82 52,-161 100,-233 9,-13 18,-26 28,-39 18,-24 38,-47 60,-69 98,-97 216,-159 341,-188l158 -190 4 -5 19 -22 6 -8 12 -14 24 -30c4,-4 5,-9 5,-13 0,-4 -1,-9 -3,-12z"/>
  <path class="fil2" d="M1337 1337c-84,83 -193,125 -303,125 -109,0 -219,-42 -302,-125 -84,-84 -126,-193 -126,-303 0,-109 42,-219 126,-302 83,-84 193,-126 302,-126 110,0 219,42 303,126 83,83 125,193 125,302 0,110 -42,219 -125,303zm-303 -776c-121,0 -242,47 -334,139 -92,92 -139,213 -139,334 0,121 47,242 139,335 92,92 213,138 334,138 121,0 242,-46 335,-138 92,-93 138,-214 138,-335 0,-121 -46,-242 -138,-334 -93,-92 -214,-139 -335,-139zm375 1139c-22,2 -44,4 -66,4 -12,1 -22,11 -21,23 0,13 11,23 23,22l0 0c23,-1 45,-2 69,-4 12,-2 21,-13 20,-25 -2,-12 -13,-21 -25,-20zm33 -352c-15,16 -30,32 -46,48 -9,9 -9,23 0,32 9,8 23,8 32,0l0 0c16,-17 32,-33 47,-49 8,-9 8,-24 -1,-32 -9,-8 -23,-8 -32,1zm-78 206c12,-3 20,-15 17,-27 -4,-12 -16,-19 -28,-16 -20,5 -42,10 -64,14 -12,2 -20,14 -18,26 2,12 14,20 26,18l0 0c23,-4 46,-9 67,-15zm-207 135c-21,-4 -42,-10 -63,-16 -12,-4 -25,3 -28,15 -4,12 3,24 15,28 22,7 44,12 67,17 12,3 24,-5 26,-17 3,-12 -5,-24 -17,-27zm-234 -92c-18,-11 -37,-23 -55,-36 -11,-7 -24,-4 -32,6 -7,10 -4,24 6,31l0 0c20,14 39,26 58,37 11,7 25,3 31,-8 6,-10 3,-24 -8,-30zm201 -31c-1,-12 -11,-22 -23,-21 -22,0 -44,1 -67,1 -12,0 -22,10 -22,22 0,13 10,23 22,23l0 0c24,0 46,-1 68,-2 13,0 22,-10 22,-23zm503 -428c-10,-7 -24,-3 -30,7 -11,19 -23,37 -36,56 -7,10 -4,24 6,31 10,7 24,4 31,-6l0 0c14,-19 26,-38 37,-58 7,-10 3,-24 -8,-30zm143 102c-14,17 -29,34 -44,50 -8,9 -8,23 2,31 9,9 23,8 31,-1l0 0c16,-16 31,-33 45,-51 8,-10 7,-24 -3,-32 -9,-8 -23,-6 -31,3zm116 -124c7,4 14,4 21,1 -9,82 -27,162 -57,239 -42,107 -105,208 -191,295 -21,6 -42,11 -63,16 -12,3 -19,15 -17,27 2,8 8,14 16,16 -161,134 -358,201 -555,203 -19,-12 -38,-23 -56,-34 -11,-7 -25,-3 -31,7 -5,7 -5,16 -1,23 -195,-18 -385,-102 -535,-250 -5,-21 -11,-42 -16,-63 -3,-12 -15,-19 -27,-17 -8,2 -14,8 -16,16 -121,-145 -190,-319 -200,-496l228 -189c4,-3 7,-8 8,-12 19,-91 57,-178 115,-256 11,-6 21,-12 32,-17 11,-6 15,-20 9,-31 0,0 0,0 0,0 7,-8 14,-16 21,-23 93,-93 207,-152 327,-177 4,-2 9,-4 12,-8l5 -6c20,4 40,9 60,16 12,3 24,-4 28,-15 3,-12 -3,-25 -15,-28l0 0c-14,-5 -27,-8 -41,-12l130 -156c3,1 5,3 8,5 11,6 24,3 31,-8 4,-7 4,-15 0,-22 195,18 385,101 535,249 6,22 11,43 16,63 3,13 15,20 27,17 8,-2 14,-8 17,-15 131,157 201,349 201,541 0,5 0,9 0,14 -11,19 -22,38 -33,56 -7,11 -3,24 7,31zm-1736 -69c0,0 0,0 0,0l-16 14 -22 18 -9 7c-7,6 -15,9 -22,9 -9,0 -18,-4 -25,-10 -3,-3 -6,-6 -8,-10 -1,-4 -3,-9 -3,-14 0,-9 0,-18 0,-27 0,-253 96,-506 290,-699 193,-194 446,-290 699,-290 18,0 36,0 53,1 4,0 6,1 9,2 4,2 7,5 9,9 2,3 3,8 3,12 0,4 -1,9 -5,13l-24 30 -12 14 -6 8 -19 22 -4 5 -158 190c-125,29 -243,91 -341,188 -22,22 -42,45 -60,69 -10,13 -19,26 -28,39 -48,72 -81,151 -100,233l-195 162 -6 5zm1537 -666l0 0c-155,-154 -351,-243 -554,-265l5 -5c10,-12 15,-28 15,-42 0,-17 -6,-33 -17,-46 -6,-6 -13,-11 -20,-15 -8,-4 -17,-6 -26,-7 -19,-1 -37,-1 -56,-1 -264,0 -529,101 -731,303 -202,202 -303,467 -303,731 0,10 0,19 0,28 1,11 3,22 8,32 6,14 17,25 30,33 13,8 27,12 43,12 11,0 23,-2 34,-8 19,204 111,401 267,556 180,180 416,270 652,270 236,0 473,-90 653,-270 93,-93 160,-200 205,-315 44,-114 65,-236 65,-357 0,-230 -95,-458 -270,-634zm-136 417c12,-3 20,-14 18,-27l0 0c-4,-23 -9,-45 -15,-67 -3,-12 -15,-19 -27,-16 -12,3 -19,15 -16,27 5,21 10,42 14,65 2,12 14,20 26,18zm165 96c-12,-2 -24,5 -27,18 -4,21 -10,42 -16,63 -4,12 3,24 15,28 12,3 24,-3 28,-15 7,-22 12,-45 17,-67 3,-12 -5,-24 -17,-27zm-132 517c-18,12 -37,23 -56,33 -11,6 -15,19 -9,30 5,11 19,15 30,10 20,-11 40,-23 60,-36 10,-7 13,-20 6,-31 -7,-10 -21,-13 -31,-6zm144 -664c12,-1 22,-11 21,-23 -1,-23 -2,-46 -4,-69 -2,-12 -13,-21 -25,-20 -12,1 -21,12 -20,24 2,23 4,45 4,66 1,12 11,22 24,22zm-949 979c-9,-8 -23,-8 -32,2 -8,9 -8,23 1,31l0 0c17,16 34,31 52,45 9,8 24,7 31,-3 8,-9 7,-23 -3,-31 -17,-14 -33,-29 -49,-44zm189 -1202c21,-1 44,-1 66,-1 13,0 23,-10 23,-23 0,-12 -10,-22 -23,-22l0 0c-23,0 -46,0 -68,1 -12,1 -22,11 -21,23 0,13 10,22 23,22zm428 149c9,8 23,8 32,0 8,-9 8,-23 0,-32l0 0c-17,-17 -33,-32 -49,-47 -9,-9 -24,-8 -32,1 -8,9 -8,23 1,31 16,15 32,30 48,47zm-251 -201c19,11 37,23 56,35 10,7 24,5 31,-6 7,-10 5,-24 -6,-31l0 0c-19,-13 -38,-25 -58,-37 -10,-6 -24,-3 -30,8 -7,11 -3,25 7,31zm299 69c6,11 19,15 30,9 11,-6 15,-19 10,-30l0 0c-11,-21 -23,-41 -36,-60 -6,-10 -20,-13 -31,-6 -10,6 -13,20 -6,31 12,18 23,36 33,56zm-154 -199c9,9 23,8 31,-1 9,-9 8,-23 -1,-32 -16,-15 -33,-30 -51,-45 -10,-8 -24,-6 -32,3 -8,10 -6,24 3,32 17,14 34,28 50,43zm-949 980c-12,0 -22,11 -22,23l0 0c1,23 3,45 5,69 1,12 12,21 25,20 12,-2 21,-13 20,-25 -3,-22 -4,-44 -5,-66 0,-12 -11,-22 -23,-21zm1204 -354c0,21 1,44 1,66 0,13 10,23 22,23 13,0 23,-10 23,-23l0 0c0,-23 -1,-46 -2,-68 0,-12 -10,-22 -23,-21 -12,0 -22,10 -21,23zm-1164 98c-12,-4 -25,3 -28,15 -7,22 -13,44 -18,67 -2,12 6,24 18,26 12,3 24,-5 26,-17 5,-21 10,-42 17,-63 3,-12 -4,-25 -15,-28zm163 223c-2,-12 -14,-20 -26,-18 -13,2 -21,14 -18,26l0 0c4,23 9,46 14,67 4,12 16,20 28,17 12,-4 19,-16 16,-28 -5,-20 -10,-42 -14,-64zm-20 -188c-1,-22 -1,-44 -1,-67 0,-12 -10,-22 -23,-22 -12,0 -22,10 -22,22l0 0c0,24 0,46 1,68 1,13 11,22 23,22 13,-1 22,-11 22,-23zm149 295c-9,-9 -23,-9 -32,0 -9,9 -9,23 0,32l0 0c16,16 33,32 49,47 9,8 23,8 32,-1 8,-9 7,-23 -2,-32 -15,-15 -31,-30 -47,-46zm-48 132c-6,-11 -20,-15 -31,-9 -11,5 -15,19 -9,30l0 0c11,20 23,40 35,60 7,10 21,13 31,6 11,-7 14,-21 7,-31 -12,-18 -23,-37 -33,-56zm90 -970c21,-5 42,-10 65,-14 12,-2 20,-14 18,-26 -3,-13 -14,-21 -27,-18l0 0c-23,4 -45,9 -67,14 -12,4 -19,16 -16,28 3,12 15,19 27,16zm-89 162c15,-15 30,-31 47,-47 8,-9 8,-23 0,-32 -9,-9 -23,-9 -32,0l0 0c-17,16 -32,33 -47,49 -9,9 -8,23 1,32 9,8 23,7 31,-2zm-124 116c-11,-7 -25,-4 -32,6l0 0c-13,20 -25,39 -37,58 -6,11 -3,25 8,31 11,6 25,3 31,-8 11,-18 23,-37 35,-55 7,-11 5,-25 -5,-32z"/>
 </g>
</svg>
