<?xml version="1.0" encoding="UTF-8"?>
<!DOCTYPE svg PUBLIC "-//W3C//DTD SVG 1.1//EN" "http://www.w3.org/Graphics/SVG/1.1/DTD/svg11.dtd">
<!-- Creator: CorelDRAW X7 -->
<svg xmlns="http://www.w3.org/2000/svg" xml:space="preserve" width="2.72282in" height="2.72282in" version="1.1" style="shape-rendering:geometricPrecision; text-rendering:geometricPrecision; image-rendering:optimizeQuality; fill-rule:evenodd; clip-rule:evenodd"
viewBox="0 0 14471 14471"
 xmlns:xlink="http://www.w3.org/1999/xlink">
 <defs>
  <style type="text/css">
   <![CDATA[
    .fil0 {fill:#606062}
    .fil1 {fill:#525253}
   ]]>
  </style>
 </defs>
 <g id="Layer_x0020_1">
  <metadata id="CorelCorpID_0Corel-Layer"/>
  <path class="fil0" d="M4732 11225l344 -581c-372,-236 -704,-529 -980,-870l-537 408c329,410 726,762 1173,1043z"/>
  <path class="fil0" d="M2658 6122l660 143c107,-433 283,-838 518,-1204l-559 -381c-282,437 -493,923 -619,1442z"/>
  <path class="fil0" d="M3266 6498l-661 -143c-54,286 -86,579 -86,881 0,1029 335,1979 897,2755l537 -409c-475,-662 -758,-1471 -758,-2346 0,-253 26,-498 71,-738z"/>
  <path class="fil0" d="M5621 7236c0,-892 723,-1615 1615,-1615l0 -1114c-1505,0 -2729,1224 -2729,2729 0,1504 1224,2728 2729,2728l0 -1113c-892,0 -1615,-724 -1615,-1615z"/>
  <path class="fil0" d="M4269 7236c0,-1636 1331,-2967 2967,-2967l0 -835c-2097,0 -3802,1705 -3802,3802 0,2096 1705,3801 3802,3801l0 -835c-1636,0 -2967,-1330 -2967,-2966z"/>
  <path class="fil0" d="M3971 4865c713,-980 1853,-1626 3145,-1664l0 -676c-1524,39 -2868,802 -3703,1959l558 381z"/>
  <path class="fil0" d="M2281 7236c0,-2732 2222,-4955 4955,-4955l0 -2281c-372,0 -697,539 -1053,595 -365,58 -840,-354 -1184,-243 -350,114 -492,727 -816,893 -326,166 -906,-78 -1201,136 -296,216 -241,843 -500,1101 -258,258 -885,204 -1100,500 -215,295 30,874 -137,1201 -165,324 -779,466 -893,816 -111,344 301,819 243,1184 -56,356 -595,681 -595,1053 0,371 539,696 595,1052 58,365 -354,840 -243,1184 114,350 727,492 893,816 166,327 -78,906 136,1201 216,296 843,242 1101,500 258,258 204,885 500,1101 295,214 874,-30 1201,137 324,165 466,778 816,892 344,112 819,-300 1184,-243 356,56 681,595 1053,595l0 -2281c-2732,0 -4955,-2222 -4955,-4954z"/>
  <path class="fil0" d="M5280 10768l-345 581c682,382 1465,603 2301,603l0 -676c-710,0 -1376,-185 -1956,-508z"/>
  <path class="fil1" d="M8895 2827c-481,-182 -999,-288 -1540,-302l0 676c451,13 884,101 1286,252l254 -626z"/>
  <path class="fil1" d="M9964 7236c0,-1505 -1224,-2729 -2728,-2729l0 1114c892,0 1615,723 1615,1615 0,891 -723,1615 -1615,1615l0 1113c1504,0 2728,-1224 2728,-2728z"/>
  <path class="fil1" d="M11038 7236c0,-2097 -1706,-3802 -3802,-3802l0 835c1636,0 2966,1331 2966,2967 0,1636 -1330,2966 -2966,2966l0 835c2096,0 3801,-1705 3802,-3801z"/>
  <path class="fil1" d="M11059 5941l647 -198c-425,-1269 -1373,-2298 -2589,-2829l-254 626c1029,455 1832,1327 2196,2401z"/>
  <path class="fil1" d="M9472 14119c350,-114 492,-727 816,-892 327,-167 906,77 1201,-137 296,-216 242,-843 500,-1101 258,-258 885,-204 1101,-500 214,-294 -30,-874 137,-1201 165,-323 778,-465 892,-816 112,-344 -300,-819 -243,-1184 56,-356 595,-681 595,-1052 0,-372 -539,-697 -595,-1053 -57,-365 355,-840 243,-1184 -114,-350 -727,-492 -892,-816 -167,-326 77,-906 -137,-1201 -216,-296 -843,-241 -1101,-500 -258,-258 -204,-885 -500,-1100 -294,-215 -874,30 -1201,-137 -323,-165 -465,-779 -816,-893 -344,-111 -819,301 -1184,243 -356,-56 -681,-595 -1052,-595l0 2281c2732,0 4954,2223 4954,4955 0,2732 -2222,4954 -4954,4954l0 2281c371,0 696,-539 1052,-595 365,-57 840,355 1184,243z"/>
  <path class="fil1" d="M8260 11139c-328,86 -670,137 -1024,137l0 676c420,0 826,-61 1214,-165l-190 -648z"/>
  <path class="fil1" d="M11276 7236c0,80 -7,158 -12,237l673 59c6,-98 15,-196 15,-296 0,-439 -65,-862 -177,-1265l-646 198c93,341 147,697 147,1067z"/>
  <path class="fil1" d="M9839 10320l421 530c904,-758 1519,-1847 1659,-3080l-673 -59c-123,1042 -644,1964 -1407,2609z"/>
  <path class="fil1" d="M8489 11074l191 649c507,-163 975,-413 1391,-727l-420 -529c-349,261 -739,469 -1162,607z"/>
 </g>
</svg>
