<?xml version="1.0" encoding="UTF-8"?>
<!DOCTYPE svg PUBLIC "-//W3C//DTD SVG 1.1//EN" "http://www.w3.org/Graphics/SVG/1.1/DTD/svg11.dtd">
<!-- Creator: CorelDRAW X7 -->
<svg xmlns="http://www.w3.org/2000/svg" xml:space="preserve" width="2.48676in" height="8.23284in" version="1.1" style="shape-rendering:geometricPrecision; text-rendering:geometricPrecision; image-rendering:optimizeQuality; fill-rule:evenodd; clip-rule:evenodd"
viewBox="0 0 1039 3439"
 xmlns:xlink="http://www.w3.org/1999/xlink">
 <defs>
  <style type="text/css">
   <![CDATA[
    .fil4 {fill:#221E1F;fill-rule:nonzero}
    .fil0 {fill:#2F2F2F;fill-rule:nonzero}
    .fil1 {fill:#5F5F5F;fill-rule:nonzero}
    .fil2 {fill:#898989;fill-rule:nonzero}
    .fil3 {fill:white;fill-rule:nonzero}
   ]]>
  </style>
 </defs>
 <g id="Monkey_x0020_Wrench">
  <metadata id="CorelCorpID_0Corel-Layer"/>
  <polygon class="fil0" points="276,411 187,566 363,566 "/>
  <path class="fil1" d="M276 0l6 4c185,127 295,338 295,562l-214 0 -87 -154 0 -412z"/>
  <path class="fil2" d="M467 566l-159 0 -20 0 -90 -155 1 -1 -5 -8 0 -402 -41 41c-98,98 -153,230 -153,369 0,432 457,481 457,793l0 2084c0,77 58,144 135,151 88,9 164,-61 164,-148l0 -2087 0 0c0,-120 34,-239 98,-341l185 -296 -572 0z"/>
  <path class="fil3" d="M713 3290c0,59 -47,107 -106,107 -59,0 -107,-48 -107,-107 0,-59 48,-107 107,-107 59,0 106,48 106,107z"/>
  <path class="fil0" d="M607 3141c40,0 76,16 103,42l0 -1876c0,-57 -46,-104 -103,-104 -58,0 -104,47 -104,104l0 1876c27,-26 63,-42 104,-42z"/>
  <path class="fil3" d="M534 3132c-4,0 -8,-4 -8,-9l0 -989c0,-5 4,-9 8,-9 5,0 9,4 9,9l0 989c0,5 -4,9 -9,9z"/>
  <path class="fil3" d="M534 2093c-4,0 -8,-4 -8,-9l0 -32c0,-5 4,-9 8,-9 5,0 9,4 9,9l0 32c0,5 -4,9 -9,9z"/>
  <path class="fil3" d="M572 1278c0,11 -9,19 -19,19 -10,0 -19,-8 -19,-19 0,-10 9,-18 19,-18 10,0 19,8 19,18z"/>
  <path class="fil3" d="M625 1278c0,11 -8,19 -18,19 -11,0 -19,-8 -19,-19 0,-10 8,-18 19,-18 10,0 18,8 18,18z"/>
  <path class="fil3" d="M572 1334c0,10 -9,19 -19,19 -10,0 -19,-9 -19,-19 0,-10 9,-19 19,-19 10,0 19,9 19,19z"/>
  <path class="fil1" d="M308 566l-20 0 -90 -155 1 -1 -5 -8 0 -402 -41 41c-98,98 -153,230 -153,369 0,132 43,228 102,307l365 0 0 -51 243 0 0 51 234 0 95 -151 -572 0 -159 0z"/>
  <polygon class="fil3" points="710,882 467,882 467,666 710,666 "/>
  <polygon class="fil4" points="467,666 467,717 475,682 501,682 508,717 535,717 542,682 568,682 576,717 602,717 610,682 635,682 643,717 669,717 677,682 703,682 710,717 710,666 "/>
  <polygon class="fil1" points="700,852 477,852 477,726 700,726 "/>
  <polygon class="fil1" points="710,847 467,847 467,730 710,730 "/>
  <polygon class="fil3" points="683,752 494,752 494,733 683,733 "/>
  <polygon class="fil2" points="487,875 477,875 475,703 500,703 "/>
  <polygon class="fil2" points="555,875 530,875 543,703 568,703 "/>
  <polygon class="fil2" points="623,875 598,875 612,703 636,703 "/>
  <polygon class="fil2" points="700,875 664,875 678,703 702,703 "/>
  <path class="fil3" d="M35 525c-4,0 -8,-3 -9,-7 -39,-248 64,-380 114,-444 4,-5 8,-10 11,-15 3,-3 8,-4 12,-1 4,2 5,8 2,12 -3,4 -7,9 -12,15 -48,61 -148,190 -109,430 0,5 -3,10 -8,10 0,0 0,0 -1,0z"/>
  <path class="fil3" d="M144 684c0,9 -8,17 -17,17 -10,0 -18,-8 -18,-17 0,-10 8,-18 18,-18 9,0 17,8 17,18z"/>
  <path class="fil3" d="M199 684c0,9 -8,17 -18,17 -9,0 -17,-8 -17,-17 0,-10 8,-18 17,-18 10,0 18,8 18,18z"/>
  <path class="fil3" d="M170 629c0,9 -7,17 -17,17 -10,0 -18,-8 -18,-17 0,-10 8,-18 18,-18 10,0 17,8 17,18z"/>
  <path class="fil3" d="M519 420c-4,0 -8,-3 -8,-8 -19,-171 -207,-339 -208,-341 -4,-3 -4,-9 -1,-12 3,-4 9,-4 12,-1 1,1 49,44 100,108 46,60 104,151 114,244 1,5 -3,9 -8,10 0,0 0,0 -1,0z"/>
  <path class="fil3" d="M525 471c-5,0 -9,-3 -9,-8l0 -12c0,-5 4,-9 9,-9 4,0 8,4 8,9l0 12c0,5 -4,8 -8,8z"/>
 </g>
</svg>
