<?xml version="1.0" encoding="UTF-8"?>
<!DOCTYPE svg PUBLIC "-//W3C//DTD SVG 1.1//EN" "http://www.w3.org/Graphics/SVG/1.1/DTD/svg11.dtd">
<!-- Creator: CorelDRAW X7 -->
<svg xmlns="http://www.w3.org/2000/svg" xml:space="preserve" width="4.2152in" height="1.43863in" version="1.1" style="shape-rendering:geometricPrecision; text-rendering:geometricPrecision; image-rendering:optimizeQuality; fill-rule:evenodd; clip-rule:evenodd"
viewBox="0 0 1974 674"
 xmlns:xlink="http://www.w3.org/1999/xlink">
 <defs>
  <style type="text/css">
   <![CDATA[
    .fil0 {fill:#AA363B}
    .fil2 {fill:#2B3B40;fill-rule:nonzero}
    .fil1 {fill:#4B7C8F;fill-rule:nonzero}
   ]]>
  </style>
 </defs>
 <g id="Objects">
  <metadata id="CorelCorpID_0Corel-Layer"/>
  <path class="fil0" d="M1409 403c112,24 186,118 339,113 142,-4 232,-121 226,-255 -79,50 -140,91 -173,88 -47,-4 -139,-70 -120,-147 9,-39 91,-92 183,-139 -43,-33 -94,-55 -143,-61 -116,-15 -240,52 -315,179 -28,48 -79,62 -156,73l-1120 162 0 64c31,0 56,25 56,56 0,31 -25,56 -56,56l0 0 0 67c10,0 20,-2 30,-4l1142 -250c55,-12 86,-7 107,-2zm-1279 13l0 0 -33 4c-153,22 -112,242 33,239l0 -67c-31,0 -56,-25 -56,-56 0,-31 25,-56 56,-56l0 0 0 -64z"/>
  <path class="fil1" d="M239 305c10,5 19,8 27,10l-4 14c-11,-2 -22,-7 -34,-13 -10,7 -21,12 -34,14 -13,2 -25,0 -37,-5 -12,-4 -21,-12 -28,-23 -8,-10 -13,-23 -15,-37 -2,-14 -1,-28 3,-40 5,-13 12,-23 21,-31 10,-7 22,-12 35,-14 13,-2 26,-1 37,4 12,5 22,13 29,23 7,11 12,23 14,38 2,12 1,23 -1,33 -2,10 -7,19 -13,27zm-46 -19c12,2 22,5 30,10 10,-12 13,-28 10,-48 -2,-12 -5,-22 -10,-30 -6,-8 -12,-14 -21,-18 -8,-4 -17,-5 -27,-4 -14,3 -25,9 -33,20 -8,11 -11,27 -8,46 3,19 10,33 20,41 11,9 24,12 38,10 7,-1 13,-3 19,-6 -7,-3 -13,-5 -20,-6l2 -15zm163 18l-3 -16c-6,13 -16,21 -30,23 -7,1 -13,1 -18,-1 -6,-2 -10,-4 -13,-7 -4,-3 -6,-8 -8,-13 -1,-3 -2,-9 -3,-16l-10 -65 18 -3 9 58c1,10 2,16 3,19 2,5 5,8 9,10 4,2 9,3 14,2 5,-1 10,-3 14,-6 5,-4 7,-8 9,-13 1,-5 1,-12 0,-21l-8 -56 17 -2 16 105 -16 2zm110 -29c-6,6 -11,11 -17,14 -6,3 -12,6 -19,7 -12,1 -21,0 -28,-5 -7,-5 -11,-11 -13,-20 0,-5 0,-10 2,-15 2,-4 4,-8 8,-11 3,-3 7,-6 12,-8 3,-1 8,-3 15,-5 14,-4 25,-7 31,-11 0,-2 -1,-4 -1,-4 -1,-7 -3,-12 -7,-15 -5,-3 -12,-4 -21,-3 -8,1 -14,4 -18,7 -4,4 -6,9 -7,17l-17 0c0,-7 2,-14 5,-19 3,-5 8,-9 14,-13 7,-3 14,-6 23,-7 9,-1 17,-1 23,0 6,1 10,3 13,6 3,3 6,7 8,12 1,2 2,8 3,16l3 23c3,17 5,27 6,32 1,4 3,8 6,12l-18 2c-3,-3 -5,-7 -6,-12zm-7 -40c-6,4 -15,8 -28,11 -7,2 -12,4 -15,6 -3,2 -5,4 -6,7 -2,3 -2,5 -2,9 1,4 3,8 7,11 5,2 10,3 17,2 7,-1 13,-3 18,-7 4,-4 8,-9 10,-14 1,-4 1,-10 0,-18l-1 -7zm53 46l-21 -144 18 -3 20 145 -17 2zm27 -131l-3 -20 18 -3 3 21 -18 2zm18 125l-15 -105 18 -3 15 105 -18 3zm81 -28l5 15c-5,2 -9,3 -13,4 -7,1 -12,1 -16,-1 -3,-2 -6,-4 -8,-7 -2,-3 -4,-10 -5,-21l-9 -60 -13 2 -2 -14 13 -2 -4 -26 16 -13 6 36 17 -2 2 14 -17 2 9 62c0,5 1,8 2,9 1,2 2,3 3,3 2,1 4,1 7,1 2,0 4,-1 7,-2zm25 54l-4 -16c4,0 7,0 10,0 4,-1 7,-2 9,-4 3,-1 4,-3 6,-6 0,-2 2,-7 3,-14 0,-1 1,-3 1,-5l-55 -99 19 -3 31 58c4,7 7,14 11,23 1,-9 2,-17 4,-25l13 -65 18 -2 -24 113c-3,12 -5,20 -7,25 -2,6 -5,11 -9,14 -4,3 -8,5 -14,6 -3,1 -7,1 -12,0zm142 -109l18 -5c2,8 4,13 8,18 4,4 9,7 16,9 7,2 15,2 23,1 8,-1 14,-3 19,-6 5,-3 9,-7 11,-11 3,-4 3,-9 3,-13 -1,-4 -3,-8 -6,-11 -3,-3 -8,-5 -14,-7 -4,-1 -13,-2 -27,-3 -14,-2 -24,-3 -29,-5 -8,-3 -14,-7 -18,-12 -4,-4 -6,-10 -7,-17 -1,-7 0,-14 3,-21 3,-7 8,-13 16,-17 7,-5 16,-8 26,-9 11,-2 20,-1 29,1 9,2 16,6 21,12 5,6 9,14 11,22l-19 4c-2,-9 -6,-15 -13,-19 -6,-4 -15,-5 -26,-3 -12,1 -20,5 -24,10 -5,5 -7,10 -6,16 1,5 3,9 7,12 4,3 15,5 31,6 16,2 27,3 33,5 9,3 16,7 21,12 5,5 8,12 9,20 1,7 0,15 -4,22 -3,8 -9,14 -16,19 -8,5 -17,8 -27,10 -13,2 -25,1 -34,-1 -10,-3 -17,-7 -23,-14 -7,-7 -10,-16 -12,-25zm212 -18l19 0c-1,11 -5,20 -12,27 -7,7 -17,11 -29,13 -15,2 -28,-1 -38,-9 -11,-8 -17,-21 -20,-38 -2,-17 0,-32 8,-43 8,-11 19,-17 33,-19 14,-2 26,1 37,9 10,8 16,21 19,38 0,1 0,3 0,5l-78 11c2,12 7,20 14,25 6,6 14,8 23,6 6,0 12,-3 16,-7 4,-4 7,-10 8,-18zm-62 -20l58 -9c-2,-8 -5,-15 -9,-19 -7,-6 -15,-8 -24,-7 -8,1 -14,5 -19,11 -5,7 -7,14 -6,24zm108 48l-15 -105 16 -2 2 16c3,-8 6,-14 9,-17 4,-3 7,-4 11,-5 6,-1 13,0 19,3l-4 17c-4,-1 -9,-2 -13,-1 -4,0 -7,2 -10,5 -3,2 -4,6 -5,10 -1,7 -1,14 0,22l8 54 -18 3zm96 -14l-54 -99 19 -3 31 60c4,6 7,13 10,20 1,-6 2,-13 4,-21l14 -68 18 -2 -25 111 -17 2zm55 -135l-3 -20 18 -3 3 20 -18 3zm18 125l-15 -105 17 -3 16 105 -18 3zm108 -55l18 0c-1,12 -4,22 -11,30 -7,8 -16,13 -28,14 -14,2 -26,-1 -36,-9 -10,-8 -16,-21 -19,-38 -2,-12 -1,-22 1,-31 3,-9 8,-16 15,-21 7,-6 15,-9 24,-10 11,-2 21,0 29,4 8,5 14,13 17,23l-16 5c-3,-7 -7,-12 -11,-15 -5,-3 -10,-4 -16,-3 -9,2 -16,6 -21,13 -5,7 -6,18 -4,32 2,14 6,24 13,29 6,6 14,8 22,7 7,-1 13,-4 17,-9 4,-5 6,-12 6,-21zm105 -11l18 0c-1,11 -5,20 -12,27 -7,7 -17,12 -29,13 -15,3 -28,0 -38,-8 -10,-9 -17,-21 -19,-38 -3,-18 0,-32 7,-43 8,-11 19,-18 34,-20 14,-2 26,1 36,9 10,9 17,22 19,39 0,1 0,2 1,5l-79 11c3,11 7,20 14,25 7,5 14,7 23,6 7,-1 12,-4 16,-8 4,-4 7,-10 9,-18zm-63 -20l59 -8c-2,-9 -5,-15 -10,-19 -6,-6 -14,-9 -23,-7 -8,1 -15,5 -20,11 -4,6 -6,14 -6,23z"/>
  <path class="fil2" d="M858 648l12 -3c1,4 3,8 5,11 2,2 6,4 10,6 5,1 10,1 15,0 4,0 8,-2 12,-4 3,-1 5,-4 7,-6 1,-3 2,-6 1,-9 0,-3 -1,-5 -3,-7 -2,-2 -5,-3 -9,-4 -3,-1 -9,-1 -17,-2 -9,-1 -15,-2 -19,-3 -5,-2 -8,-4 -11,-7 -2,-4 -4,-7 -5,-11 0,-5 0,-10 2,-14 2,-4 6,-8 11,-11 4,-3 10,-4 16,-5 7,-1 13,-1 18,0 6,2 10,4 14,8 3,4 5,9 6,14l-11 3c-2,-6 -4,-10 -8,-13 -4,-2 -10,-3 -17,-2 -7,1 -13,3 -16,7 -2,3 -4,6 -3,10 0,3 2,6 5,8 2,2 9,3 19,4 10,0 17,1 21,3 6,1 10,4 13,7 3,4 5,8 6,13 1,5 0,9 -2,14 -3,5 -6,9 -11,12 -5,3 -11,5 -17,6 -8,1 -15,1 -21,-1 -6,-1 -11,-4 -15,-9 -4,-4 -7,-9 -8,-15zm96 16l-13 -92 12 -2 13 92 -12 2zm34 -5l-14 -92 13 -1 58 65 -10 -72 12 -2 13 92 -13 1 -58 -65 10 72 -11 2zm153 -55l12 1c-1,11 -4,19 -10,25 -6,6 -14,10 -23,11 -10,2 -18,1 -25,-2 -7,-3 -12,-8 -17,-16 -4,-7 -7,-15 -8,-23 -1,-10 -1,-18 2,-26 2,-8 7,-14 13,-19 6,-4 13,-7 21,-8 10,-2 18,0 25,3 6,4 12,10 15,18l-11 5c-3,-7 -7,-11 -11,-14 -5,-2 -10,-3 -16,-2 -7,1 -13,4 -17,8 -4,4 -7,9 -8,15 -1,6 -1,12 -1,18 2,8 4,14 7,20 3,5 7,9 12,11 5,2 11,3 16,2 7,-1 13,-4 17,-8 4,-5 6,-11 7,-19zm32 28l-13 -91 66 -10 1 11 -54 8 4 28 51 -8 2 11 -51 8 4 31 57 -8 1 10 -68 10zm158 -23l-11 2 -10 -72c-3,3 -6,6 -10,10 -4,3 -7,5 -11,7l-1 -11c5,-4 10,-8 15,-13 4,-5 6,-9 8,-14l7 -1 13 92zm28 -25l11 -3c1,5 4,9 6,11 3,1 7,2 11,2 3,-1 6,-2 9,-4 2,-2 4,-4 5,-7 1,-3 2,-7 3,-12 0,-4 0,-9 -1,-14 0,0 0,-1 0,-2 -2,4 -4,7 -8,10 -3,3 -8,5 -12,5 -8,1 -14,-1 -20,-5 -6,-5 -10,-12 -11,-21 -2,-9 0,-17 5,-24 4,-6 11,-10 19,-11 6,-1 11,0 17,2 5,3 10,7 13,13 4,5 6,14 8,25 1,12 1,21 0,28 -2,8 -5,14 -9,18 -5,4 -10,7 -17,8 -7,1 -13,0 -18,-4 -6,-3 -9,-8 -11,-15zm40 -47c-1,-7 -3,-12 -7,-15 -4,-3 -9,-5 -13,-4 -5,1 -10,4 -13,8 -3,5 -4,10 -3,17 1,6 3,10 7,13 4,3 9,5 14,4 5,-1 9,-3 12,-7 3,-5 4,-10 3,-16zm22 -22l-2 -11 59 -8 2 9c-5,7 -10,16 -14,27 -4,11 -7,22 -9,34 -1,8 -1,16 0,25l-12 2c-1,-7 -1,-16 1,-27 1,-10 3,-21 7,-31 4,-10 8,-19 13,-26l-45 6zm92 18c-5,-2 -9,-3 -11,-6 -3,-3 -5,-7 -5,-11 -1,-7 0,-13 4,-18 4,-5 10,-9 18,-10 8,-1 15,1 21,5 5,3 9,9 9,15 1,5 1,9 -1,12 -2,4 -5,6 -9,9 6,1 10,3 14,7 3,3 5,8 6,14 1,8 0,15 -5,21 -5,6 -12,10 -21,11 -9,1 -17,0 -23,-5 -6,-5 -10,-11 -11,-19 -1,-6 0,-11 2,-15 3,-5 7,-8 12,-10zm-5 -19c1,4 3,7 6,10 3,2 7,3 11,2 5,0 8,-2 10,-5 3,-3 4,-7 3,-11 -1,-4 -3,-7 -6,-10 -3,-2 -7,-3 -11,-2 -4,0 -8,2 -10,5 -3,3 -4,7 -3,11zm2 43c1,3 2,6 4,9 2,2 5,4 8,6 3,1 6,1 10,1 5,-1 9,-3 12,-7 3,-4 4,-9 4,-14 -1,-6 -4,-10 -8,-13 -4,-3 -8,-4 -14,-3 -5,0 -9,3 -12,7 -3,4 -4,8 -4,14z"/>
 </g>
</svg>
