<?xml version="1.0" encoding="UTF-8"?>
<!DOCTYPE svg PUBLIC "-//W3C//DTD SVG 1.1//EN" "http://www.w3.org/Graphics/SVG/1.1/DTD/svg11.dtd">
<!-- Creator: CorelDRAW X7 -->
<svg xmlns="http://www.w3.org/2000/svg" xml:space="preserve" width="1.25954in" height="1.19983in" version="1.1" style="shape-rendering:geometricPrecision; text-rendering:geometricPrecision; image-rendering:optimizeQuality; fill-rule:evenodd; clip-rule:evenodd"
viewBox="0 0 472 450"
 xmlns:xlink="http://www.w3.org/1999/xlink">
 <defs>
  <style type="text/css">
   <![CDATA[
    .fil0 {fill:#282828;fill-rule:nonzero}
   ]]>
  </style>
 </defs>
 <g id="OBJECTS">
  <metadata id="CorelCorpID_0Corel-Layer"/>
  <path class="fil0" d="M176 255c7,0 14,-6 14,-14 0,-7 -7,-13 -14,-13 -7,0 -14,6 -14,13 0,8 7,14 14,14z"/>
  <path class="fil0" d="M315 241c0,-14 -12,-25 -26,-25 -14,0 -25,11 -25,25 0,6 2,12 5,16l-73 1c3,-5 6,-11 6,-17 0,-14 -12,-25 -26,-25 -14,0 -26,11 -26,25 0,6 3,12 6,17l-94 0 0 28 174 -21 166 21 0 -29 -93 0c4,-4 6,-10 6,-16zm-139 -16l0 0c9,0 16,7 16,16 0,9 -7,17 -16,17 -9,0 -16,-8 -16,-17 0,-9 7,-16 16,-16zm97 16l0 0c0,-9 7,-16 16,-16 9,0 17,7 17,16 0,8 -7,15 -14,16l-5 0c-8,-1 -14,-8 -14,-16z"/>
  <path class="fil0" d="M303 241c0,-7 -6,-13 -14,-13 -7,0 -13,6 -13,13 0,8 6,14 13,14 8,0 14,-6 14,-14z"/>
  <path class="fil0" d="M291 138l-115 0 -22 43 -39 0 0 11 -10 0 0 36 -15 0 0 9 15 0 0 4 40 2c0,-1 0,-1 0,-2 0,-17 14,-31 31,-31 17,0 31,14 31,31 0,1 0,1 0,2l1 0 50 0c0,-1 0,-1 0,-2 0,-17 14,-31 31,-31 18,0 31,14 31,31 0,1 0,1 0,2l35 0 33 0 0 -45 -67 -16 -30 -44zm-63 43l0 0 -64 0 19 -36 45 1 0 35zm9 0l0 0 0 -35 50 0 23 35 -73 0z"/>
  <polygon class="fil0" points="214,104 236,87 259,104 250,77 273,61 245,61 236,34 228,61 199,61 222,77 "/>
  <path class="fil0" d="M367 353c0,-2 -1,-5 -4,-5 -5,0 -9,11 -11,19 8,0 15,-7 15,-14z"/>
  <path class="fil0" d="M303 404c0,1 1,3 3,3 2,0 5,-3 6,-8l0 -3c-5,2 -9,4 -9,8z"/>
  <path class="fil0" d="M310 383c2,0 4,-2 6,-4l5 -26c-1,-3 -3,-4 -5,-4 -9,0 -13,20 -13,28 0,4 3,6 7,6z"/>
  <path class="fil0" d="M427 296l0 -105c0,-107 -87,-191 -194,-191 -108,0 -195,84 -195,191l0 106 -38 5 0 148 472 0 0 -148 -45 -6zm-379 -105l0 0c0,-49 19,-95 54,-129 35,-34 81,-53 131,-53 49,0 96,19 131,53 35,34 54,80 54,129l0 104 -6 -1 0 -100c0,-99 -80,-176 -179,-176 -99,0 -179,77 -179,176l0 101 -6 0 0 -104zm360 3l0 0 0 99 -172 -23 -179 24 0 -100c0,-47 18,-90 51,-123 33,-32 78,-50 125,-50 47,0 91,18 124,50 33,33 51,76 51,123zm54 246l0 0 -453 0 0 -130 2 0 225 -27 0 0 226 27 0 130z"/>
  <path class="fil0" d="M12 313l0 124 447 0 0 -125 -223 -26 -224 27zm66 66l0 0 -8 -5 -7 5 3 -8 -7 -5 9 0 2 -9 3 9 9 0 -7 5 3 8zm69 -54l0 0c-10,0 -21,17 -21,32 0,9 3,16 11,16 4,0 6,-1 8,-4l4 -17 12 0 -7 35c-3,14 -9,23 -24,23 -9,0 -14,-6 -14,-13 0,-6 5,-13 12,-13 4,0 9,1 9,7 0,1 0,2 0,4 -3,-2 -4,-3 -6,-3 -4,0 -7,4 -7,7 0,4 2,7 6,7 5,0 8,-2 10,-12l3 -17c-5,3 -10,4 -11,4 -15,0 -20,-11 -20,-24 0,-18 12,-37 33,-37 9,0 18,4 18,13 0,5 -2,9 -7,9 -2,0 -5,-1 -7,-3 3,-1 5,-5 5,-8 0,-1 -1,-6 -7,-6zm264 38l0 0 3 -9 3 9 9 0 -8 5 3 9 -7 -6 -7 6 3 -9 -8 -5 9 0zm-141 -19l0 0c2,0 4,1 6,2l1 -2 13 0 -7 32c0,1 0,2 0,3 0,2 1,3 5,3 1,0 2,0 4,-1 0,-1 0,-2 0,-3 0,-13 5,-34 23,-34 3,0 6,2 7,4l1 -4 14 0 -9 41c4,-1 7,-4 10,-7 0,-1 0,-1 0,-2 0,-12 5,-33 22,-33 8,0 12,3 12,10 0,11 -12,18 -21,19 0,1 0,3 0,4 0,6 3,8 7,8 4,0 8,-2 12,-6 0,10 -9,13 -18,13 -6,0 -10,-3 -12,-8 -3,4 -8,6 -13,8l-2 7c-3,14 -10,16 -17,16 -5,0 -10,-3 -10,-9 0,-7 7,-11 15,-14l1 -4c-3,3 -6,5 -11,5 -6,0 -9,-4 -10,-8 -4,4 -9,7 -12,7 -6,0 -10,-2 -12,-7 -2,4 -7,7 -12,7 -9,0 -12,-6 -12,-12 0,-16 6,-35 25,-35zm-21 6l0 0c0,3 -3,7 -7,7 -6,0 -3,-6 -6,-6 -3,0 -4,1 -6,3l-8 37 -14 0 2 -6c-4,3 -8,6 -11,6 -7,0 -11,-2 -12,-7 -3,4 -7,7 -13,7 -9,0 -11,-6 -11,-12 0,-16 5,-35 24,-35 3,0 5,1 7,2l0 -2 14 0 -7 32c0,1 0,2 0,3 0,2 0,3 4,3 2,0 4,-1 6,-2l7 -36 14 0 -1 5c3,-3 7,-5 11,-5 4,0 7,2 7,6z"/>
  <path class="fil0" d="M263 384c2,0 4,-2 6,-5 0,-1 0,-2 1,-3l5 -25c-1,-1 -3,-2 -5,-2 -7,0 -12,15 -12,28 0,6 3,7 5,7z"/>
  <path class="fil0" d="M175 377c0,6 3,7 6,7 2,0 4,-2 6,-5 0,-1 0,-2 0,-3l6 -25c-2,-1 -4,-2 -5,-2 -7,0 -13,15 -13,28z"/>
  <polygon class="fil0" points="262,92 349,92 349,88 261,88 "/>
  <polygon class="fil0" points="261,84 327,84 327,80 260,80 "/>
  <polygon class="fil0" points="211,88 124,88 124,92 210,92 "/>
  <polygon class="fil0" points="213,80 146,80 146,84 212,84 "/>
 </g>
</svg>
