<?xml version="1.0" encoding="UTF-8"?>
<!DOCTYPE svg PUBLIC "-//W3C//DTD SVG 1.1//EN" "http://www.w3.org/Graphics/SVG/1.1/DTD/svg11.dtd">
<!-- Creator: CorelDRAW X7 -->
<svg xmlns="http://www.w3.org/2000/svg" xml:space="preserve" width="0.758488in" height="0.713835in" version="1.1" style="shape-rendering:geometricPrecision; text-rendering:geometricPrecision; image-rendering:optimizeQuality; fill-rule:evenodd; clip-rule:evenodd"
viewBox="0 0 296 279"
 xmlns:xlink="http://www.w3.org/1999/xlink">
 <defs>
  <style type="text/css">
   <![CDATA[
    .fil0 {fill:#74CBF2}
    .fil1 {fill:#777876}
   ]]>
  </style>
 </defs>
 <g id="Layer_x0020_1">
  <metadata id="CorelCorpID_0Corel-Layer"/>
  <path class="fil0" d="M176 96l0 0 0 -15c0,-6 -3,-10 -9,-11l-16 -4c-1,-2 -2,-4 -3,-6l9 -15c3,-4 2,-10 -1,-14l-11 -10c-2,-2 -5,-4 -8,-4 -2,0 -4,1 -6,2l-14 10c-2,-1 -5,-2 -7,-3l-4 -17c-1,-5 -5,-9 -10,-9l-15 0c-6,0 -10,4 -11,9l-4 17c-2,1 -5,2 -7,3l-14 -10c-2,-1 -4,-2 -6,-2 -3,0 -6,2 -8,4l-10 10c-4,4 -5,10 -2,14l10 15c-1,2 -2,4 -3,6l-17 4c-5,1 -9,5 -9,11l0 15c0,5 4,9 9,11l17 3c1,2 2,5 3,7l-10 14c-3,5 -2,10 2,14l10 11c2,2 5,3 8,3 2,0 4,-1 6,-2l14 -9c2,1 5,2 7,3l4 16c1,5 5,9 11,9l15 0c5,0 9,-4 10,-9l4 -16c2,-1 5,-2 7,-3l14 9c2,1 4,2 6,2 3,0 6,-1 8,-3l11 -11c3,-4 4,-9 1,-14l-9 -14c1,-2 2,-5 3,-7l16 -3c6,-2 9,-6 9,-11l0 0zm-49 -6l0 0c-1,20 -18,37 -39,37 -13,0 -24,-6 -31,-16 0,-1 -1,-2 -1,-2 -4,-6 -6,-13 -6,-21 0,-21 17,-38 38,-38 12,0 22,5 30,14 5,6 9,15 9,24 0,1 0,2 0,2l0 0zm-26 -13l0 0c3,3 4,7 4,11 0,3 0,4 -1,7 -3,6 -8,10 -16,10 -5,0 -9,-1 -12,-5 -1,0 -1,-1 -2,-2 -2,-3 -3,-6 -3,-10 0,-9 8,-17 17,-17 5,0 10,2 13,6l0 0z"/>
  <path class="fil1" d="M157 233l0 0 -8 -4c0,-1 -1,-2 -1,-4l7 -6c2,-2 3,-4 1,-7l-4 -7c-2,-2 -5,-4 -7,-3l-9 4c-1,-1 -2,-2 -3,-3l0 -9c0,-2 -2,-5 -4,-6l-8 -2c-1,0 -3,0 -4,1 -1,1 -2,1 -3,2l-4 9c-1,0 -2,0 -3,0l-6 -6c-2,-3 -5,-3 -8,-1l-7 3c-2,2 -3,5 -2,7l3 9c-1,1 -2,2 -3,4l-9 -1c-1,0 -2,0 -3,1 -1,1 -2,2 -2,3l-3 8c0,3 1,6 4,7l8 4c0,1 0,2 0,4l-6 6c-2,2 -3,5 -1,7l4 7c1,2 4,3 7,3l9 -4c0,1 1,2 3,3l-1 9c0,3 2,5 5,6l7 2c2,0 4,0 5,-1 1,-1 2,-2 2,-2l4 -9c1,0 3,0 4,0l6 6c2,3 5,3 8,2l6 -4c3,-2 4,-5 3,-8l-4 -8c1,-1 2,-2 3,-3l9 0c1,0 2,0 3,-1 2,-1 3,-2 3,-3l2 -8c1,-3 -1,-5 -3,-7l0 0zm-33 17l0 0c-6,4 -12,4 -18,1 -1,0 -1,0 -1,0 -4,-2 -7,-5 -9,-8 -5,-10 -3,-22 7,-28 6,-3 12,-4 17,-2 5,2 9,5 11,9 0,1 0,1 1,1 5,9 2,22 -8,27l0 0zm-1 -19l0 0c0,4 -1,7 -5,10 -2,1 -4,1 -7,0 0,0 -1,0 -1,0 -2,-1 -3,-2 -4,-4 -3,-4 -1,-9 3,-12 2,-2 5,-2 7,-2 2,1 4,3 6,5 1,1 1,2 1,3l0 0z"/>
  <path class="fil1" d="M292 176l-11 -5c-1,-2 -1,-4 -1,-6l9 -8c3,-3 4,-7 1,-10l-5 -9c-2,-3 -6,-5 -9,-3l-12 4c-1,-2 -3,-3 -5,-3l1 -13c0,-4 -2,-7 -6,-8l-10 -3c-3,0 -5,0 -7,1 -1,1 -2,2 -3,4l-5 11c-2,0 -4,0 -5,1l-9 -10c-2,-2 -6,-3 -9,-1l-10 5c-3,3 -4,6 -3,10l4 11c-1,2 -3,4 -3,5l-13 0c-1,0 -3,0 -4,1 -2,1 -3,2 -4,4l-2 11c-1,4 0,7 4,9l11 6c0,1 1,3 1,5l-9 8c-3,3 -4,7 -2,10l6 9c2,3 6,5 9,4l12 -5c1,2 3,3 4,4l0 12c-1,4 2,7 6,8l10 3c2,0 5,0 6,-1 2,-1 3,-2 3,-4l6 -11c1,0 3,0 5,0l8 9c3,2 7,3 10,1l10 -5c3,-3 4,-6 3,-10l-4 -11c1,-2 2,-4 3,-5l12 0c2,0 4,0 5,0 2,-2 3,-4 3,-5l3 -11c1,-4 -1,-7 -4,-9l0 0zm-44 23l0 0c-8,4 -17,5 -25,2 -1,0 -1,-1 -2,-1 -5,-3 -9,-6 -11,-11 -9,-13 -4,-30 9,-38 7,-4 16,-5 23,-2 6,2 12,6 15,12 1,0 1,1 1,1 7,13 2,29 -10,37l0 0zm-3 -26l0 0c1,5 -1,10 -5,13 -3,1 -7,2 -10,1 0,0 -1,-1 -2,-1 -2,-1 -4,-2 -5,-5 -4,-6 -2,-13 4,-16 3,-3 7,-3 10,-2 3,1 5,3 7,6 1,1 1,2 1,4l0 0z"/>
 </g>
</svg>
