<?xml version="1.0" encoding="UTF-8"?>
<!DOCTYPE svg PUBLIC "-//W3C//DTD SVG 1.1//EN" "http://www.w3.org/Graphics/SVG/1.1/DTD/svg11.dtd">
<!-- Creator: CorelDRAW X7 -->
<svg xmlns="http://www.w3.org/2000/svg" xml:space="preserve" width="1.11496in" height="1.04518in" version="1.1" style="shape-rendering:geometricPrecision; text-rendering:geometricPrecision; image-rendering:optimizeQuality; fill-rule:evenodd; clip-rule:evenodd"
viewBox="0 0 742 696"
 xmlns:xlink="http://www.w3.org/1999/xlink">
 <defs>
  <style type="text/css">
   <![CDATA[
    .fil0 {fill:black;fill-rule:nonzero}
   ]]>
  </style>
 </defs>
 <g id="OBJECTS">
  <metadata id="CorelCorpID_0Corel-Layer"/>
  <path class="fil0" d="M668 326l35 -9 39 -69 -9 -35c0,0 -26,-15 -40,-23 0,-7 -1,-15 -2,-22 10,-9 31,-27 31,-27l0 -36 -51 -60 -36 0c0,0 -18,15 -26,22 -9,-4 -19,-8 -29,-11 -1,-10 -3,-30 -3,-30l-25 -26 -79 6 -26 26c0,0 2,27 3,40 -7,4 -15,9 -21,15 -11,-5 -33,-15 -33,-15l-35 9 -33 72 -2 5 11 30c0,0 25,11 38,17 1,9 2,17 4,25 -9,8 -29,25 -29,25l0 36 51 60c0,0 30,4 31,3 2,-1 5,-3 5,-3 0,0 19,-15 28,-23 8,3 16,6 25,8 1,11 3,32 3,32l25 26 79 -7 25 -26c0,0 -2,-27 -3,-41 6,-4 12,-8 18,-12 10,6 31,18 31,18zm-138 -50l0 0c-44,0 -80,-35 -80,-79 0,-44 36,-80 80,-80 44,0 80,36 80,80 0,44 -36,79 -80,79z"/>
  <path class="fil0" d="M173 258l18 -5 20 -35 -4 -18c0,0 -14,-7 -21,-11 0,-4 0,-8 -1,-12 5,-4 16,-13 16,-13l0 -19 -26 -30 -19 0c0,0 -8,7 -13,11 -4,-2 -9,-4 -14,-5 -1,-6 -2,-16 -2,-16l-13 -13 -40 3 -13 13c0,0 1,14 2,21 -4,2 -8,4 -11,7 -6,-2 -17,-7 -17,-7l-18 4 -16 37 -1 2 5 15c0,0 13,6 20,9 0,5 1,9 2,13 -5,4 -15,13 -15,13l0 18 26 31c0,0 15,1 16,1 1,0 2,-1 2,-1 0,0 10,-8 14,-12 4,1 9,3 13,4 0,5 1,16 1,16l13 13 40 -4 13 -12c0,0 -1,-14 -2,-21 4,-2 7,-4 10,-6 5,3 15,9 15,9zm-70 -26l0 0c-22,0 -40,-18 -40,-40 0,-22 18,-40 40,-40 23,0 41,18 41,40 0,22 -18,40 -41,40z"/>
  <path class="fil0" d="M459 671l13 -3 14 -25 -3 -12c0,0 -10,-6 -14,-9 0,-2 -1,-5 -1,-8 3,-3 11,-9 11,-9l0 -13 -19 -22 -13 0c0,0 -6,5 -9,8 -3,-2 -7,-3 -10,-4 -1,-4 -1,-11 -1,-11l-10 -9 -28 2 -9 9c0,0 1,10 1,15 -3,1 -5,3 -8,5 -4,-2 -12,-6 -12,-6l-13 4 -11 26 -1 1 4 11c0,0 9,5 14,7 0,3 1,6 1,9 -3,3 -10,9 -10,9l0 13 18 21c0,0 11,2 11,1 1,0 2,-1 2,-1 0,0 7,-5 10,-8 3,1 6,2 9,3 0,4 1,12 1,12l9 9 29 -3 9 -9c0,0 -1,-10 -1,-15 2,-1 4,-3 6,-4 4,2 11,6 11,6zm-49 -18l0 0c-16,0 -29,-12 -29,-28 0,-16 13,-29 29,-29 16,0 28,13 28,29 0,16 -12,28 -28,28z"/>
  <path class="fil0" d="M285 418l9 -2 11 -19 -3 -10c0,0 -7,-4 -10,-6 -1,-2 -1,-4 -1,-6 3,-2 8,-7 8,-7l0 -10 -14 -16 -9 0c0,0 -5,4 -7,6 -3,-2 -6,-3 -8,-3 -1,-3 -1,-9 -1,-9l-7 -7 -21 2 -7 7c0,0 0,7 1,11 -3,1 -5,3 -6,4 -3,-1 -9,-4 -9,-4l-10 2 -9 20 0 1 3 8c0,0 7,4 10,5 0,3 1,5 1,7 -2,2 -8,7 -8,7l0 10 14 16c0,0 8,1 9,1 0,-1 1,-1 1,-1 0,0 5,-4 8,-6 2,1 4,1 6,2 0,3 1,9 1,9l7 7 21 -2 7 -7c0,0 0,-8 -1,-11 2,-2 4,-3 5,-4 3,2 9,5 9,5zm-38 -13l0 0c-12,0 -21,-10 -21,-22 0,-12 9,-22 21,-22 12,0 22,10 22,22 0,12 -10,22 -22,22z"/>
 </g>
</svg>
