<?xml version="1.0" encoding="UTF-8"?>
<!DOCTYPE svg PUBLIC "-//W3C//DTD SVG 1.1//EN" "http://www.w3.org/Graphics/SVG/1.1/DTD/svg11.dtd">
<!-- Creator: CorelDRAW X7 -->
<svg xmlns="http://www.w3.org/2000/svg" xml:space="preserve" width="2.69086in" height="2.69085in" version="1.1" style="shape-rendering:geometricPrecision; text-rendering:geometricPrecision; image-rendering:optimizeQuality; fill-rule:evenodd; clip-rule:evenodd"
viewBox="0 0 550 550"
 xmlns:xlink="http://www.w3.org/1999/xlink">
 <defs>
  <style type="text/css">
   <![CDATA[
    .fil0 {fill:#231F20}
   ]]>
  </style>
 </defs>
 <g id="Layer_x0020_1">
  <metadata id="CorelCorpID_0Corel-Layer"/>
  <path class="fil0" d="M452 518l-37 -38 14 -51 51 -14 38 37 -14 52 -52 14zm74 -111c-20,-19 -46,-27 -71,-24l-249 -237 4 -79 -66 -66 -78 -1 80 80 -33 33 -33 33 -80 -80 1 78 66 66 79 -4 237 249c-3,25 5,51 24,71 33,32 86,32 119,0 32,-33 32,-86 0,-119z"/>
  <path class="fil0" d="M32 452l38 -37 52 14 13 51 -37 38 -52 -14 -14 -52zm111 74c19,-20 27,-46 24,-71l237 -249 79 4 66 -66 1 -78 -80 80 -33 -33 -33 -33 80 -80 -78 1 -66 66 4 79 -249 237c-25,-3 -51,5 -70,24 -33,33 -33,86 0,119 32,32 85,32 118,0z"/>
 </g>
</svg>
