<?xml version="1.0" encoding="UTF-8"?>
<!DOCTYPE svg PUBLIC "-//W3C//DTD SVG 1.1//EN" "http://www.w3.org/Graphics/SVG/1.1/DTD/svg11.dtd">
<!-- Creator: CorelDRAW X7 -->
<svg xmlns="http://www.w3.org/2000/svg" xml:space="preserve" width="3.83436in" height="1.83557in" version="1.1" style="shape-rendering:geometricPrecision; text-rendering:geometricPrecision; image-rendering:optimizeQuality; fill-rule:evenodd; clip-rule:evenodd"
viewBox="0 0 2144 1026"
 xmlns:xlink="http://www.w3.org/1999/xlink">
 <defs>
  <style type="text/css">
   <![CDATA[
    .fil0 {fill:#4C4C4D;fill-rule:nonzero}
   ]]>
  </style>
 </defs>
 <g id="__x0023_Layer_x0020_1">
  <metadata id="CorelCorpID_0Corel-Layer"/>
  <path class="fil0" d="M1676 156c0,0 -8,10 -8,18 0,9 13,25 13,25 29,34 79,36 79,36l78 -134c0,0 4,-1 0,-10 -3,-10 -79,24 -106,34 -30,12 -56,31 -56,31z"/>
  <path class="fil0" d="M2135 217c-67,20 -141,28 -211,33 -77,-4 -196,16 -238,-29 -19,-21 -26,-41 -26,-41 -21,33 -30,69 -50,104l-150 330 -16 22c-3,16 4,26 7,39 63,114 189,106 295,91 66,-12 132,-27 189,-68 72,-159 208,-474 209,-479 1,-4 -9,-2 -9,-2zm-199 159l0 0 -41 82 -108 -10c0,0 23,-58 31,-77 44,5 72,6 118,5zm-203 -110l0 0 98 5 -23 84 -98 -29 23 -60zm39 194l0 0c-17,39 -20,54 -39,91 -45,3 -92,-12 -120,-31l45 -91c28,20 57,31 114,31zm-168 -97l0 0 36 -83c13,21 34,39 54,46 -11,29 -34,87 -38,85 -63,-35 -52,-48 -52,-48zm-103 215l0 0 45 -93 50 46c-18,40 -27,54 -46,95 -44,-19 -49,-48 -49,-48zm145 166l0 0c-43,7 -102,-6 -128,-36 13,-22 21,-46 34,-68 40,13 67,16 134,17 -12,30 -23,60 -40,87zm57 -93l0 0c19,-34 29,-55 38,-86 0,0 41,7 109,-1 4,0 -41,89 -41,89l-106 -2zm220 34l0 0c-20,13 -60,33 -146,53l36 -73c50,-2 88,-14 129,-25 -4,19 -13,41 -19,45zm58 -139l0 0c-40,14 -69,14 -109,16 13,-32 21,-58 36,-88 45,-3 63,-4 112,-17 -16,31 -25,56 -39,89zm86 -200l0 0 -110 20c21,-34 34,-63 43,-96l111 -20c-7,17 -35,79 -44,96z"/>
  <path class="fil0" d="M1063 549c0,0 -15,17 4,18 126,-27 264,-20 394,2 20,-23 37,-70 52,-97 0,0 -31,-1 -50,-9 18,-30 35,-60 55,-94 7,2 24,3 31,5 16,-29 43,-79 56,-110 -8,-4 -8,1 -15,-4 19,-36 48,-76 63,-107 54,-45 174,-67 175,-79 0,-15 -11,-17 -21,-24 -113,-62 -282,-57 -404,-20l-172 266 -168 253zm338 -14l0 0 -138 -10c0,0 40,-57 54,-78l122 22c-6,14 -38,66 -38,66zm103 -186l0 0 -126 -21c18,-31 34,-65 53,-93l135 23c-24,28 -42,57 -62,91zm36 -309l0 0c48,-13 101,-6 149,1 -22,34 -44,68 -60,105 -45,-13 -76,-21 -135,-21l46 -85zm-181 98l0 0 113 1c-17,31 -36,60 -51,86l-114 -2 52 -85zm-3 201l0 0c-21,29 -35,67 -55,98 -42,-7 -90,-5 -133,-2l64 -98c70,-11 124,2 124,2z"/>
  <path class="fil0" d="M708 1000c0,0 3,11 10,17 9,8 21,8 21,8l283 -436 214 437c0,0 13,0 21,-9 8,-10 11,-13 11,-13l-220 -441c0,0 292,-457 344,-529 3,-19 -14,-23 -25,-23 -5,6 -7,11 -10,16l-335 501c0,0 -224,-500 -228,-507 -3,0 -5,-32 -30,-17 -9,6 -14,5 -14,18 0,12 245,540 245,540l-287 438z"/>
  <path class="fil0" d="M415 203c29,-3 60,-2 85,-17 5,-8 17,-13 14,-24 -45,-41 -95,-70 -151,-81 -11,0 -10,9 -8,18 16,36 29,78 60,104z"/>
  <path class="fil0" d="M392 760c15,9 22,-2 37,3 35,-6 70,-6 101,-21 49,-11 113,-58 123,-124l-75 -245 0 -11 5 7c4,3 9,1 14,-3 13,30 22,63 32,95l-15 6c12,37 22,76 36,112 91,-8 147,-15 271,-9 35,2 62,5 61,-13 -1,-18 -246,-535 -246,-535l-60 -4c-99,-15 -196,-17 -280,32 -6,6 -15,10 -17,18 58,20 137,77 151,92 8,30 19,58 25,91l-13 3 -19 -70 -2 -2c-22,25 -52,28 -84,29 -233,-21 -431,-46 -435,-43 -5,4 1,10 1,10 16,28 25,58 36,90l107 329 32 115c66,25 139,51 214,48zm-73 -22l0 0 -19 -65c38,5 86,14 127,8 16,13 17,41 25,61 -47,17 -91,4 -133,-4zm-48 -168l0 0 -33 -104c38,3 86,0 125,10 19,23 26,67 38,100l0 4c-44,5 -86,-8 -130,-10zm177 99l0 0c-10,-22 -17,-47 -25,-69 31,-1 65,-5 89,-13 8,-1 6,0 9,9 8,20 12,43 17,65 -29,5 -59,14 -90,8zm173 -59l0 0c10,18 3,36 -6,53 -10,14 -22,26 -35,32l-12 -30c21,-12 38,-32 53,-55zm52 -55l0 0 -21 -84 113 -2c13,25 30,48 32,78l-124 8zm256 -92l0 0c-44,-7 -88,-19 -140,-14l-31 -87c47,-4 91,4 134,15 13,29 26,56 37,86zm-142 -311l0 0 41 89c-39,-4 -78,-16 -118,-12l-29 -83c33,-8 74,-6 106,6zm-95 93l0 0c17,30 23,64 35,96 -39,4 -84,0 -124,10l-34 -96c43,-12 75,-9 123,-10zm-163 -110l0 0 -30 -83c43,1 82,-12 125,-4 12,23 27,55 36,82l-131 5zm33 279l0 0c3,45 59,100 -3,133l-24 14 -31 -100c6,-8 17,-8 26,-14l32 -33zm-56 -185l0 0 20 65c-8,29 -35,36 -58,41 -12,-29 -21,-59 -29,-90 25,3 47,-4 67,-16zm-57 126l0 0c23,27 21,73 38,106 -34,18 -80,11 -113,-2l-36 -106 111 2zm-168 -128l0 0 41 118c-43,10 -80,-9 -122,-8 -8,-42 -24,-79 -34,-120 34,5 77,5 115,10zm-173 193l0 0c-11,-29 -18,-60 -29,-89l104 20c13,29 20,61 31,90 -36,12 -81,7 -106,-21zm152 167l0 0c11,22 15,53 23,76 -31,0 -70,0 -98,-11l-27 -84c31,12 67,19 102,19z"/>
 </g>
</svg>
