<?xml version="1.0" encoding="UTF-8"?>
<!DOCTYPE svg PUBLIC "-//W3C//DTD SVG 1.1//EN" "http://www.w3.org/Graphics/SVG/1.1/DTD/svg11.dtd">
<!-- Creator: CorelDRAW X7 -->
<svg xmlns="http://www.w3.org/2000/svg" xml:space="preserve" width="6.65807in" height="1.6424in" version="1.1" style="shape-rendering:geometricPrecision; text-rendering:geometricPrecision; image-rendering:optimizeQuality; fill-rule:evenodd; clip-rule:evenodd"
viewBox="0 0 5302 1308"
 xmlns:xlink="http://www.w3.org/1999/xlink">
 <defs>
  <style type="text/css">
   <![CDATA[
    .fil0 {fill:#F26B35;fill-rule:nonzero}
    .fil1 {fill:#29C0D8;fill-rule:nonzero}
    .fil2 {fill:#29A2B6;fill-rule:nonzero}
   ]]>
  </style>
 </defs>
 <g id="icons">
  <metadata id="CorelCorpID_0Corel-Layer"/>
  <polygon class="fil0" points="0,1080 1015,1080 1015,227 0,227 "/>
  <path class="fil1" d="M3248 912l302 0 0 -516 -302 0 0 516zm717 -859l0 0 -829 0c-135,0 -245,110 -245,245l0 712c0,135 110,244 245,244l829 0c134,0 244,-109 244,-244l0 -712c0,-135 -110,-245 -244,-245zm27 957l0 0c0,15 -13,27 -27,27l-829 0c-15,0 -28,-12 -28,-27l0 -712c0,-15 13,-27 28,-27l829 0c14,0 27,12 27,27l0 712z"/>
  <path class="fil2" d="M2038 817l303 0 0 -326 -303 0 0 326zm356 -611l0 0 -486 0c-12,0 -22,-3 -27,-6 -7,-111 -114,-200 -245,-200l-290 0c-135,0 -244,110 -244,245l0 818c0,135 109,245 244,245l290 0c131,0 238,-89 245,-200 5,-3 15,-6 27,-6l486 0c135,0 245,-110 245,-245l0 -406c0,-135 -110,-245 -245,-245zm27 651l0 0c0,15 -12,27 -27,27l-486 0 0 -460 486 0c15,0 27,12 27,27l0 406z"/>
  <polygon class="fil0" points="4287,227 4287,1080 5302,1080 5302,227 "/>
 </g>
</svg>
