<?xml version="1.0" encoding="UTF-8"?>
<!DOCTYPE svg PUBLIC "-//W3C//DTD SVG 1.1//EN" "http://www.w3.org/Graphics/SVG/1.1/DTD/svg11.dtd">
<!-- Creator: CorelDRAW X7 -->
<svg xmlns="http://www.w3.org/2000/svg" xml:space="preserve" width="2.46933in" height="2.46933in" version="1.1" style="shape-rendering:geometricPrecision; text-rendering:geometricPrecision; image-rendering:optimizeQuality; fill-rule:evenodd; clip-rule:evenodd"
viewBox="0 0 745 745"
 xmlns:xlink="http://www.w3.org/1999/xlink">
 <defs>
  <style type="text/css">
   <![CDATA[
    .fil0 {fill:#606062}
    .fil1 {fill:#525253}
   ]]>
  </style>
 </defs>
 <g id="Layer_x0020_1">
  <metadata id="CorelCorpID_0Corel-Layer"/>
  <path class="fil0" d="M199 338c19,0 34,16 34,35 0,19 -15,34 -34,34 -19,0 -34,-15 -34,-34 0,-19 15,-35 34,-35z"/>
  <path class="fil0" d="M547 407c-19,0 -35,-15 -35,-34 0,-19 16,-35 35,-35 18,0 34,16 34,35 0,19 -16,34 -34,34zm-10 130c-23,23 -60,23 -83,0 -23,-23 -23,-60 0,-83 23,-23 60,-23 83,0 23,23 23,60 0,83zm-164 69c-33,0 -59,-27 -59,-59 0,-33 26,-59 59,-59 32,0 59,26 59,59 0,32 -27,59 -59,59zm-82 -69c-23,23 -60,23 -83,0 -23,-23 -23,-60 0,-83 23,-23 60,-23 83,0 23,23 23,60 0,83zm-83 -329c23,-23 60,-23 83,0 23,23 23,60 0,83 -23,23 -60,23 -83,0 -23,-23 -23,-60 0,-83zm165 -68c32,0 59,26 59,59 0,32 -27,59 -59,59 -33,0 -59,-27 -59,-59 0,-33 26,-59 59,-59zm65 233c0,36 -29,65 -65,65 -36,0 -66,-29 -66,-65 0,-36 30,-66 66,-66 36,0 65,30 65,66zm16 -165c23,-23 60,-23 83,0 23,23 23,60 0,83 -23,23 -60,23 -83,0 -23,-23 -23,-60 0,-83zm291 165c0,-12 -26,-22 -70,-31 0,-2 0,-4 0,-6 41,-18 64,-34 61,-46 -2,-11 -30,-16 -75,-14 0,-2 -1,-4 -2,-5 36,-27 55,-48 50,-58 -5,-11 -33,-9 -76,2 -2,-3 -4,-6 -5,-8 28,-35 42,-59 35,-68 -7,-9 -34,-1 -74,20 -1,-1 -1,-2 -2,-2 21,-40 29,-67 20,-74 -9,-7 -33,6 -68,35 -1,-1 -3,-2 -5,-3 12,-43 14,-71 4,-76 -11,-6 -32,13 -59,49 -2,-1 -5,-2 -7,-3 1,-45 -3,-72 -14,-75 -11,-3 -28,20 -46,61 -3,0 -6,-1 -9,-1 -8,-44 -19,-70 -30,-70 -12,0 -22,26 -31,70 -2,0 -4,0 -6,1 -18,-41 -34,-64 -46,-62 -11,3 -16,30 -14,75 -2,1 -4,1 -5,2 -27,-36 -48,-55 -58,-50 -11,5 -9,33 2,76 -3,2 -6,4 -8,6 -35,-29 -59,-43 -68,-35 -9,7 -1,34 20,73 -1,1 -2,2 -2,2 -40,-21 -67,-29 -74,-20 -7,9 6,34 35,68 -1,2 -2,3 -3,5 -43,-12 -71,-14 -76,-3 -6,10 13,31 49,58 -1,3 -2,5 -3,7 -45,-1 -72,3 -75,14 -3,12 20,28 61,46 0,3 -1,6 -1,9 -44,9 -70,19 -70,31 0,11 26,22 70,30 0,2 0,5 1,7 -41,18 -64,34 -62,45 3,11 30,16 75,15 1,1 1,3 2,5 -36,26 -55,47 -50,58 5,10 33,8 76,-3 2,3 4,6 6,9 -29,34 -43,59 -35,68 7,8 34,0 73,-20 1,0 2,1 2,2 -21,39 -29,66 -20,73 9,7 34,-6 68,-35 2,1 3,2 5,3 -12,44 -14,72 -3,77 10,5 31,-14 58,-49 3,1 5,2 7,2 -1,45 3,73 14,75 12,3 28,-20 46,-61 3,1 6,1 9,1 9,44 19,70 31,70 11,0 22,-26 30,-70 2,0 5,0 7,0 18,41 34,64 45,61 11,-2 16,-30 15,-75 1,0 3,-1 5,-2 26,36 47,55 58,50 10,-5 8,-33 -3,-76 3,-2 6,-4 9,-5 34,28 59,42 68,35 8,-7 0,-34 -20,-74 0,-1 1,-1 2,-2 39,21 66,29 73,20 7,-9 -6,-33 -35,-68 1,-1 2,-3 3,-5 44,12 72,14 77,4 5,-11 -14,-32 -49,-59 1,-2 2,-5 2,-7 45,1 73,-3 75,-14 3,-11 -20,-28 -61,-46 1,-3 1,-6 1,-9 44,-8 70,-19 70,-30z"/>
  <path class="fil1" d="M454 208c23,-23 60,-23 83,0 23,23 23,60 0,83 -23,23 -60,23 -83,0 -23,-23 -23,-60 0,-83zm127 165c0,19 -16,34 -34,34 -19,0 -35,-15 -35,-34 0,-19 16,-35 35,-35 18,0 34,16 34,35zm-44 164c-23,23 -60,23 -83,0 -23,-23 -23,-60 0,-83 23,-23 60,-23 83,0 23,23 23,60 0,83zm-105 -338c0,32 -27,59 -59,59l0 49c36,0 65,30 65,66 0,36 -29,65 -65,65l0 50c32,0 59,26 59,59 0,32 -27,59 -59,59l0 139c11,0 22,-26 30,-70 2,0 5,0 7,0 18,41 34,64 45,61 11,-2 16,-30 15,-75 1,0 3,-1 5,-2 26,36 47,55 58,50 10,-5 8,-33 -3,-76 3,-2 6,-4 9,-5 34,28 59,42 68,35 8,-7 0,-34 -20,-74 0,-1 1,-1 2,-2 39,21 66,29 73,20 7,-9 -6,-33 -35,-68 1,-1 2,-3 3,-5 44,12 72,14 77,4 5,-11 -14,-32 -49,-59 1,-2 2,-5 2,-7 45,1 73,-3 75,-14 3,-11 -20,-28 -61,-46 1,-3 1,-6 1,-9 44,-8 70,-19 70,-30 0,-12 -26,-22 -70,-31 0,-2 0,-4 0,-6 41,-18 64,-34 61,-46 -2,-11 -30,-16 -75,-14 0,-2 -1,-4 -2,-5 36,-27 55,-48 50,-58 -5,-11 -33,-9 -76,2 -2,-3 -4,-6 -5,-8 28,-35 42,-59 35,-68 -7,-9 -34,-1 -74,20 -1,-1 -1,-2 -2,-2 21,-40 29,-67 20,-74 -9,-7 -33,6 -68,35 -1,-1 -3,-2 -5,-3 12,-43 14,-71 4,-76 -11,-6 -32,13 -59,49 -2,-1 -5,-2 -7,-3 1,-45 -3,-72 -14,-75 -11,-3 -28,20 -46,61 -3,0 -6,-1 -9,-1 -8,-44 -19,-70 -30,-70l0 140c32,0 59,26 59,59z"/>
 </g>
</svg>
