<?xml version="1.0" encoding="UTF-8"?>
<!DOCTYPE svg PUBLIC "-//W3C//DTD SVG 1.1//EN" "http://www.w3.org/Graphics/SVG/1.1/DTD/svg11.dtd">
<!-- Creator: CorelDRAW X7 -->
<svg xmlns="http://www.w3.org/2000/svg" xml:space="preserve" width="1.77657in" height="0.78913in" version="1.1" style="shape-rendering:geometricPrecision; text-rendering:geometricPrecision; image-rendering:optimizeQuality; fill-rule:evenodd; clip-rule:evenodd"
viewBox="0 0 328 146"
 xmlns:xlink="http://www.w3.org/1999/xlink">
 <defs>
  <style type="text/css">
   <![CDATA[
    .fil0 {fill:#282828;fill-rule:nonzero}
   ]]>
  </style>
 </defs>
 <g id="OBJECTS">
  <metadata id="CorelCorpID_0Corel-Layer"/>
  <path class="fil0" d="M94 89c-15,0 -28,13 -28,28 0,16 13,29 28,29 16,0 29,-13 29,-29 0,-15 -13,-28 -29,-28zm0 46l0 0c-9,0 -18,-8 -18,-18 0,-10 9,-18 18,-18 10,0 19,8 19,18 0,10 -9,18 -19,18z"/>
  <path class="fil0" d="M94 102c-8,0 -14,7 -14,15 0,9 6,15 14,15 9,0 15,-6 15,-15 0,-8 -6,-15 -15,-15z"/>
  <path class="fil0" d="M219 89c-15,0 -28,13 -28,28 0,16 13,29 28,29 16,0 29,-13 29,-29 0,-15 -13,-28 -29,-28zm0 46l0 0c-10,0 -18,-8 -18,-18 0,-10 8,-18 18,-18 10,0 18,8 18,18 0,10 -8,18 -18,18z"/>
  <path class="fil0" d="M219 102c-8,0 -14,7 -14,15 0,9 6,15 14,15 9,0 15,-6 15,-15 0,-8 -6,-15 -15,-15z"/>
  <path class="fil0" d="M255 52l-34 -52 -127 0 -24 51 -43 0 0 12 -11 0 0 39 -16 0 0 10 16 0 0 5 44 2c0,0 0,-1 0,-2 0,-19 15,-34 34,-34 20,0 35,15 35,34 0,1 0,2 0,2l1 0 55 0c0,0 0,-1 0,-2 0,-19 15,-34 34,-34 19,0 35,15 35,34 0,1 0,2 0,2l38 0 36 0 0 -49 -73 -18zm-103 -1l0 0 -71 0 21 -43 50 0 0 43zm9 0l0 0 1 -43 55 0 26 43 -82 0z"/>
 </g>
</svg>
