<?xml version="1.0" encoding="UTF-8"?>
<!DOCTYPE svg PUBLIC "-//W3C//DTD SVG 1.1//EN" "http://www.w3.org/Graphics/SVG/1.1/DTD/svg11.dtd">
<!-- Creator: CorelDRAW X7 -->
<svg xmlns="http://www.w3.org/2000/svg" xml:space="preserve" width="3.79481in" height="1.91262in" version="1.1" style="shape-rendering:geometricPrecision; text-rendering:geometricPrecision; image-rendering:optimizeQuality; fill-rule:evenodd; clip-rule:evenodd"
viewBox="0 0 1396 704"
 xmlns:xlink="http://www.w3.org/1999/xlink">
 <defs>
  <style type="text/css">
   <![CDATA[
    .fil0 {fill:#282828;fill-rule:nonzero}
   ]]>
  </style>
 </defs>
 <g id="OBJECTS">
  <metadata id="CorelCorpID_0Corel-Layer"/>
  <path class="fil0" d="M932 537l96 0c-17,-38 -69,-64 -111,-64 -42,0 -78,26 -95,64l-369 0c-18,-37 -53,-62 -94,-62 -43,0 -94,26 -111,64l96 0c21,0 39,16 39,35l0 30c0,20 -18,35 -39,35l-96 0c17,38 68,65 111,65 41,0 77,-26 94,-63l371 0c18,36 53,60 93,60 42,0 94,-26 111,-64l-96 0c-21,0 -39,-16 -39,-35l0 -30c0,-19 18,-35 39,-35z"/>
  <path class="fil0" d="M735 496c18,0 32,-13 32,-28l0 -9 26 0c12,0 23,-10 23,-23 0,-9 -6,-17 -14,-21 8,-11 12,-25 12,-39 0,-33 -23,-61 -54,-67l0 -18c1,0 2,0 3,0 11,0 20,-7 20,-17 0,-10 -9,-18 -20,-18 -1,0 -2,1 -3,1 -2,-42 -36,-71 -78,-71l-111 0c-43,0 -77,30 -78,71 -2,0 -4,-1 -7,-1 -10,0 -19,8 -19,18 0,10 9,17 19,17 2,0 5,0 6,-1l0 18c-32,5 -57,33 -57,68 0,15 5,28 13,40 -8,3 -13,11 -13,20 0,13 10,23 23,23l28 0 0 14c0,15 15,27 32,27 18,0 32,-12 32,-27l0 -14 153 0 0 9c0,15 14,28 32,28zm19 -159l0 0c20,0 37,17 37,38 0,21 -17,38 -37,38 -21,0 -38,-17 -38,-38 0,-21 17,-38 38,-38zm-254 76l0 0c-21,0 -38,-17 -38,-38 0,-21 17,-38 38,-38 21,0 37,17 37,38 0,21 -16,38 -37,38zm194 2l0 0c0,7 -5,12 -11,12l-115 0c-6,0 -11,-5 -11,-12l0 -21c0,-6 5,-11 11,-11l115 0c6,0 11,5 11,11l0 21zm-73 -91l0 0c0,-5 0,-11 1,-16 0,-5 0,-10 1,-14 1,-8 2,-13 2,-13 0,0 2,5 2,13 1,4 1,9 2,14 0,5 0,11 0,16 0,6 0,11 0,16 -1,6 -1,10 -2,14 0,9 -2,14 -2,14 0,0 -1,-5 -2,-14 -1,-4 -1,-8 -1,-14 -1,-5 -1,-10 -1,-16zm-107 -58l0 0c0,0 -1,-59 48,-59 50,0 49,0 117,0 68,0 60,59 60,59l-225 0z"/>
  <path class="fil0" d="M138 342l17 -77c-5,-2 -12,-3 -17,-3 -24,0 -51,28 -72,61 -9,-3 -19,-5 -30,-5 -10,0 -36,2 -36,18 0,9 11,19 37,19l11 0c-12,25 -20,49 -20,63 0,22 14,22 28,23 0,-2 -3,-1 -3,-12 0,-17 7,-46 17,-75 12,0 24,-1 36,-2l-14 66 30 0 15 -69 9 -1 2 -8c-4,1 -7,1 -10,2zm-85 4l0 0 -9 0c-18,0 -26,-6 -26,-12 0,-6 9,-10 26,-10 5,0 12,1 19,3 -4,7 -7,13 -10,19zm20 0l0 0 6 -13c8,3 16,7 24,12 -10,0 -20,1 -30,1zm35 -3l0 0 -2 -1c-9,-5 -17,-9 -25,-13 12,-25 26,-47 41,-53l-14 67z"/>
  <path class="fil0" d="M284 418c10,0 22,-10 32,-20 4,15 14,21 32,21 19,0 44,-22 46,-65 8,-5 12,-15 14,-22l-2 -4c-5,5 -7,9 -12,12 0,0 0,-1 0,-2 0,-4 -3,-5 -7,-5 -7,0 -14,8 -14,16 0,4 2,7 6,8 -2,19 -10,42 -22,42 -8,0 -14,-4 -14,-16 0,-17 7,-59 28,-59 4,0 7,3 9,7 4,-2 9,-4 9,-10 0,-5 -9,-9 -19,-9 -29,0 -55,22 -55,73 0,1 0,3 0,5 -5,4 -11,9 -16,9 -9,0 -11,-4 -11,-8 0,-1 0,-3 14,-69l13 0 2 -8 -13 0c4,-19 7,-33 7,-33l-31 4 -6 29 -7 0 -1 8 7 0c-4,16 -13,54 -15,69 -5,4 -10,8 -14,8 -9,0 -11,-4 -11,-8 0,-2 1,-4 1,-7l15 -70 -30 0 -15 70c0,3 -1,5 -1,7 -5,4 -10,8 -15,8 -8,0 -10,-4 -10,-8 0,-2 0,-4 1,-7l15 -70 -30 0 -15 70c-1,4 -1,8 -1,11 0,15 10,23 26,23 8,0 20,-9 29,-18 2,12 12,18 26,18 9,0 20,-9 30,-18 2,12 11,18 25,18z"/>
  <path class="fil0" d="M864 300c0,31 45,40 45,79 0,15 -7,30 -23,30 -10,0 -21,-6 -21,-20 0,-15 8,-22 24,-23 -1,-8 -7,-11 -16,-11 -16,0 -31,11 -31,30 0,30 29,34 46,34 33,0 55,-19 55,-49 0,-46 -47,-48 -47,-80 0,-12 8,-18 20,-18 11,0 15,6 15,13 0,7 -4,15 -10,18 3,3 6,5 10,5 11,0 17,-9 17,-21 0,-24 -24,-25 -35,-25 -25,0 -49,17 -49,38z"/>
  <path class="fil0" d="M1095 314c-9,0 -17,4 -25,10l2 -10 -29 0 -13 61 0 0c-8,16 -25,28 -35,28 -8,0 -17,-5 -17,-18 0,-3 0,-6 0,-9 20,-3 47,-17 47,-43 0,-14 -9,-21 -26,-21 -38,0 -49,46 -49,72 0,18 10,34 30,34 19,0 34,-10 45,-24l-4 24 29 0 18 -82c4,-4 8,-7 14,-7 6,0 0,14 12,14 10,0 16,-9 16,-16 0,-8 -6,-13 -15,-13zm-90 9l0 0c7,0 8,7 8,11 0,15 -14,32 -33,32 4,-20 14,-43 25,-43z"/>
  <path class="fil0" d="M1177 310c-7,0 -12,5 -12,10 0,6 3,11 9,11 1,0 3,0 4,0 0,22 -14,68 -34,68 -6,0 -8,-3 -8,-7 0,-2 0,-5 1,-8l15 -70 -30 0 -15 70c-1,4 -1,8 -1,11 0,15 10,23 26,23 42,0 58,-57 58,-90 0,-11 -4,-18 -13,-18z"/>
  <path class="fil0" d="M1229 303c9,0 16,-8 16,-17 0,-9 -7,-16 -16,-16 -9,0 -17,7 -17,16 0,9 8,17 17,17z"/>
  <path class="fil0" d="M1343 385c0,-3 0,-6 1,-9 19,-3 46,-17 46,-43 0,-14 -9,-21 -26,-21 -38,0 -49,46 -49,72 0,2 0,3 0,4 -8,7 -18,12 -29,12 -13,0 -15,-10 -15,-22 0,-23 11,-57 29,-57 4,0 7,2 7,7 0,2 0,4 -1,6 3,-1 5,-1 7,-1 2,0 4,1 5,1 1,-2 1,-4 1,-7 0,-11 -12,-14 -23,-14 -40,0 -53,40 -53,70 0,4 0,8 1,11 -4,3 -8,5 -11,5 -8,0 -10,-4 -10,-8 0,-2 0,-4 0,-7l15 -70 -30 0 -15 70c0,4 -1,8 -1,11 0,15 10,23 26,23 8,0 19,-8 28,-16 4,11 13,16 25,16 24,0 37,-11 46,-22 4,13 13,22 29,22 20,0 38,-6 38,-29 -8,8 -16,14 -26,14 -8,0 -15,-5 -15,-18zm28 -62l0 0c6,0 7,7 7,11 0,15 -14,32 -33,32 5,-20 14,-43 26,-43z"/>
  <path class="fil0" d="M382 129c0,0 -2,-1 -4,-8 -4,-21 8,-37 32,-41 13,-2 20,5 22,16 2,14 -6,34 -20,38 1,-19 1,-29 2,-48 -9,3 -13,4 -21,7 -2,30 -2,60 -2,90 8,-1 12,-2 19,-4 1,-16 1,-24 2,-40 0,0 0,0 0,0 26,-5 39,-26 36,-44 -2,-14 -15,-26 -39,-21 -26,4 -49,28 -45,46 2,9 17,12 18,9z"/>
  <path class="fil0" d="M477 114c3,-4 5,-5 9,-6 5,0 2,9 10,8 7,-1 10,-7 10,-12 -1,-5 -5,-8 -12,-7 -6,0 -12,4 -16,8 0,-2 0,-4 0,-7 -8,1 -12,2 -21,3 -2,24 -3,47 -5,71 8,-1 12,-2 20,-3 2,-22 3,-33 5,-55z"/>
  <path class="fil0" d="M529 163c13,-1 22,-9 30,-18 -1,5 -2,11 -3,16 8,-1 12,-1 20,-1 4,-23 6,-34 10,-57 3,-2 6,-3 9,-3 4,0 7,3 7,8 0,1 0,3 0,4 -4,19 -6,28 -9,47 8,0 12,0 20,0 4,-20 6,-29 10,-49 0,-1 1,-2 1,-3 0,-1 -1,-4 -1,-5 0,-1 5,-2 8,-2 4,0 7,3 7,8 0,1 0,2 0,4 -3,10 -4,15 -6,25 -1,2 -1,4 -1,7 0,10 6,15 17,15 6,0 12,-4 17,-9 2,6 8,10 17,10 6,0 14,-5 21,-10 0,8 6,12 16,13 6,0 20,-11 21,-10 0,0 7,12 16,13 5,1 11,-2 17,-5 -1,2 -2,5 -3,7 8,1 12,2 20,3 8,-22 12,-32 20,-54 4,-1 6,-2 10,-1 4,0 6,4 5,9 0,1 0,2 -1,4 -7,17 -11,26 -18,44 8,2 12,2 20,4 8,-19 12,-28 19,-46 1,-1 1,-2 1,-3 1,-2 0,-4 1,-5 0,-1 5,-1 8,-1 4,1 6,5 5,10 0,1 -1,2 -1,3 -4,9 -6,14 -10,23 -1,3 -2,5 -3,7 -2,10 3,16 12,18 4,1 17,-8 17,-9 0,0 -3,-1 -4,-1 -4,-1 -5,-3 -4,-5 0,-3 12,-26 13,-30 1,-1 1,-2 1,-3 2,-9 -5,-19 -13,-21 -7,-1 -20,6 -23,5 -1,-1 -7,-11 -12,-12 -7,-1 -14,2 -20,5 1,-3 1,-5 2,-7 -8,-2 -12,-2 -21,-4 -6,18 -13,35 -19,52 -3,1 -5,2 -7,2 -6,-1 -7,-3 -7,-6 0,-1 1,-3 1,-4 7,-19 10,-28 16,-46 -8,-1 -12,-1 -21,-2 -6,18 -9,27 -15,45 -1,2 -1,4 -1,5 -2,2 -8,4 -11,4 -6,-1 -7,-3 -7,-6 1,-1 1,-3 1,-4 6,-19 9,-28 15,-46 -8,-1 -13,-1 -21,-2 -6,18 -9,28 -14,46 0,2 -1,3 -1,4 -4,3 -8,5 -11,5 -5,0 -7,-2 -7,-6 0,-1 1,-2 1,-4 5,-18 8,-28 13,-46 -8,-1 -12,-1 -21,-1 -5,18 -8,28 -12,46 -1,3 -1,5 -1,7 -3,2 -5,4 -8,4 -4,0 -6,-3 -6,-6 1,-2 1,-3 1,-5 3,-11 4,-16 7,-26 0,-2 0,-3 0,-4 1,-9 -8,-17 -16,-17 -7,-1 -20,9 -22,9 -1,-1 -9,-10 -15,-9 -6,0 -13,3 -18,7 0,-3 0,-4 1,-7 -9,0 -13,0 -21,1 -3,14 -5,27 -7,41 0,0 0,0 0,0 -5,11 -16,20 -23,20 -6,1 -12,-2 -13,-11 0,-1 0,-5 0,-6 3,-3 32,-14 31,-30 -1,-10 -8,-14 -20,-14 -27,2 -32,34 -30,52 1,12 10,21 23,20zm12 -65l0 0c5,0 6,5 6,8 1,10 -19,25 -21,22 -1,-1 7,-29 15,-30z"/>
  <path class="fil0" d="M693 84c6,0 12,-4 13,-10 0,-6 -5,-12 -12,-12 -7,0 -12,4 -12,10 -1,6 4,12 11,12z"/>
  <path class="fil0" d="M1395 541l-66 -38 -66 39 0 77 67 38 66 -39 -1 -77zm-66 70l0 0c-17,0 -30,-14 -30,-31 0,-17 13,-31 30,-31 17,0 31,14 31,31 0,17 -14,31 -31,31z"/>
  <path class="fil0" d="M1357 73l-28 -16 -28 16 0 33 28 16 29 -16 -1 -33zm-28 30l0 0c-7,0 -13,-6 -13,-13 0,-8 6,-14 13,-14 7,0 13,6 13,14 0,7 -6,13 -13,13z"/>
  <path class="fil0" d="M1108 16l-29 -16 -28 17 0 32 29 16 28 -16 0 -33zm-29 30l0 0c-7,0 -13,-6 -13,-13 0,-8 6,-13 13,-13 8,0 14,5 14,13 0,7 -6,13 -14,13z"/>
 </g>
</svg>
