<?xml version="1.0" encoding="UTF-8"?>
<!DOCTYPE svg PUBLIC "-//W3C//DTD SVG 1.1//EN" "http://www.w3.org/Graphics/SVG/1.1/DTD/svg11.dtd">
<!-- Creator: CorelDRAW X7 -->
<svg xmlns="http://www.w3.org/2000/svg" xml:space="preserve" width="4.70539in" height="2.35934in" version="1.1" style="shape-rendering:geometricPrecision; text-rendering:geometricPrecision; image-rendering:optimizeQuality; fill-rule:evenodd; clip-rule:evenodd"
viewBox="0 0 2044 1025"
 xmlns:xlink="http://www.w3.org/1999/xlink">
 <defs>
  <style type="text/css">
   <![CDATA[
    .fil0 {fill:#2A2024;fill-rule:nonzero}
    .fil1 {fill:#FFE7D2;fill-rule:nonzero}
   ]]>
  </style>
 </defs>
 <g id="Objects">
  <metadata id="CorelCorpID_0Corel-Layer"/>
  <path class="fil0" d="M495 208c0,0 309,232 501,92 0,0 -91,-40 -219,-176 0,0 144,48 418,-73 366,-163 915,77 843,543 -39,249 -231,378 -433,401 -240,28 -497,-53 -538,-72 -75,-36 -272,-87 -414,-11 0,0 120,-151 262,-167 0,0 -350,-117 -420,-537z"/>
  <path class="fil1" d="M1897 241c0,0 -278,-348 -842,-39 0,0 73,-1 112,41 0,0 -179,195 -434,199 0,0 136,225 421,342 0,0 -130,22 -153,43 0,0 341,152 564,115 210,-35 355,-173 381,-354 20,-132 52,-197 -49,-347z"/>
  <path class="fil0" d="M2008 597c-35,241 -260,409 -501,373 -242,-35 -409,-260 -374,-501 36,-242 260,-409 502,-374 241,36 409,260 373,502z"/>
  <path class="fil1" d="M1972 592c-32,221 -238,375 -460,342 -222,-32 -375,-238 -343,-460 33,-222 239,-375 461,-343 221,33 375,239 342,461z"/>
  <path class="fil0" d="M1789 565c-17,120 -130,204 -250,186 -121,-17 -204,-130 -187,-250 18,-121 130,-204 251,-187 120,18 204,130 186,251z"/>
  <path class="fil1" d="M1649 544c-6,44 -46,74 -90,67 -43,-6 -73,-46 -67,-90 7,-43 47,-73 90,-67 44,7 74,47 67,90z"/>
  <path class="fil1" d="M1735 452c-3,19 -21,33 -40,30 -19,-3 -32,-21 -29,-40 3,-19 20,-32 40,-29 19,3 32,20 29,39z"/>
  <path class="fil1" d="M1705 658c-3,19 -21,32 -40,30 -19,-3 -32,-21 -29,-40 3,-19 20,-32 39,-29 19,2 33,20 30,39z"/>
  <path class="fil1" d="M1488 626c-3,19 -20,33 -39,30 -19,-3 -32,-21 -30,-40 3,-19 21,-32 40,-29 19,3 32,20 29,39z"/>
  <path class="fil1" d="M1518 421c-2,19 -20,32 -39,29 -19,-3 -32,-20 -30,-39 3,-19 21,-33 40,-30 19,3 32,21 29,40z"/>
  <path class="fil0" d="M1773 1008c0,0 -703,-23 -1048,-25 -62,0 -282,42 -282,42 0,0 973,2 1330,-17z"/>
  <path class="fil0" d="M1452 961c0,0 -601,-20 -897,-20 -54,0 -242,39 -242,39 0,0 842,-27 1139,-19z"/>
  <path class="fil0" d="M502 340c0,0 -133,-35 -174,-119 0,0 -48,184 174,119z"/>
  <path class="fil0" d="M448 219c0,0 -89,-139 -173,-184 -83,-45 -275,39 -275,39 0,0 278,-74 448,145z"/>
 </g>
</svg>
