<?xml version="1.0" encoding="UTF-8"?>
<!DOCTYPE svg PUBLIC "-//W3C//DTD SVG 1.1//EN" "http://www.w3.org/Graphics/SVG/1.1/DTD/svg11.dtd">
<!-- Creator: CorelDRAW X7 -->
<svg xmlns="http://www.w3.org/2000/svg" xml:space="preserve" width="2.02778in" height="6.37965in" version="1.1" style="shape-rendering:geometricPrecision; text-rendering:geometricPrecision; image-rendering:optimizeQuality; fill-rule:evenodd; clip-rule:evenodd"
viewBox="0 0 1334 4196"
 xmlns:xlink="http://www.w3.org/1999/xlink">
 <defs>
  <style type="text/css">
   <![CDATA[
    .fil0 {fill:#BDBFC1}
    .fil2 {fill:#848688}
    .fil1 {fill:#727376}
    .fil3 {fill:#4B4B4D}
   ]]>
  </style>
 </defs>
 <g id="Layer_x0020_1">
  <metadata id="CorelCorpID_0Corel-Layer"/>
  <path class="fil0" d="M1029 2863l-725 0c-25,0 -47,10 -64,27 -17,16 -27,39 -27,64l0 0c0,26 10,48 27,65 17,17 39,27 64,27l725 0c25,0 48,-10 65,-27 16,-17 26,-39 26,-65l0 0c0,-25 -10,-48 -26,-64 -17,-17 -40,-27 -65,-27zm0 274l-725 0c-25,0 -47,10 -64,27 -17,17 -27,39 -27,64l0 0c0,26 10,48 27,65 17,17 39,27 64,27l725 0c25,0 48,-10 65,-27 16,-17 26,-39 26,-65l0 0c0,-25 -10,-47 -26,-64 -17,-17 -40,-27 -65,-27zm91 -822l-907 0 0 365c0,26 10,48 27,65 17,17 39,27 64,27l725 0c25,0 48,-10 65,-27 16,-17 26,-39 26,-65l0 -365zm-91 1096l-725 0c-25,0 -47,10 -64,27 -17,17 -27,39 -27,64l0 0c0,26 10,48 27,65 17,17 39,27 64,27l725 0c25,0 48,-10 65,-27 16,-17 26,-39 26,-65l0 0c0,-25 -10,-47 -26,-64 -17,-17 -40,-27 -65,-27zm0 274l-725 0c-25,0 -47,10 -64,27 -17,17 -27,39 -27,64l0 0c0,26 10,48 27,65 17,17 39,27 64,27l725 0c25,0 48,-10 65,-27 16,-17 26,-39 26,-65l0 0c0,-25 -10,-47 -26,-64 -17,-17 -40,-27 -65,-27z"/>
  <path class="fil1" d="M532 4048c35,35 82,56 135,56 53,0 100,-21 135,-56 24,-24 41,-55 50,-89l-370 0c8,34 26,65 50,89z"/>
  <path class="fil2" d="M505 2224l323 0 0 -457 -323 0 0 457zm415 0l322 0 0 -457 -322 0 0 457zm200 -552l0 -63 -907 0 0 63 907 0zm-1029 95l0 457 323 0 0 -457 -323 0zm1029 -1478c0,-55 -22,-104 -57,-140 -36,-36 -85,-58 -140,-58l-327 0 0 46 327 0c42,0 80,17 107,45 28,27 45,65 45,107l0 180c0,1 0,1 0,1 0,0 0,1 0,1l0 1c0,13 -6,26 -16,35 -11,8 -24,12 -37,10 -1,0 -2,0 -4,-1 -1,0 -2,0 -4,-1 -3,0 -8,0 -12,0l-670 0c-33,0 -62,13 -84,35 -22,21 -35,51 -35,84l0 575 907 0 0 -920zm-382 75l-142 0 0 60 142 0 0 -60zm504 936l-1151 0 0 217 1151 0 0 -217z"/>
  <path class="fil3" d="M91 1517l0 -217 1151 0 0 217 -1151 0zm1151 250l0 457 -322 0 0 -457 322 0zm-122 913c0,26 -10,48 -26,65 -17,17 -40,27 -65,27l-725 0c-25,0 -47,-10 -64,-27 -17,-17 -27,-39 -27,-65l0 0 0 -365 907 0 0 365zm0 274c0,26 -10,48 -26,65 -17,17 -40,27 -65,27l-725 0c-25,0 -47,-10 -64,-27 -17,-17 -27,-39 -27,-65l0 0c0,-25 10,-48 27,-64 17,-17 39,-27 64,-27l725 0c25,0 48,10 65,27 16,16 26,39 26,64l0 0zm0 274c0,26 -10,48 -26,65 -17,17 -40,27 -65,27l-725 0c-25,0 -47,-10 -64,-27 -17,-17 -27,-39 -27,-65l0 0c0,-25 10,-47 27,-64 17,-17 39,-27 64,-27l725 0c25,0 48,10 65,27 16,17 26,39 26,64l0 0zm0 274c0,26 -10,48 -26,65 -17,17 -40,27 -65,27l-725 0c-25,0 -47,-10 -64,-27 -17,-17 -27,-39 -27,-65l0 0c0,-25 10,-47 27,-64 17,-17 39,-27 64,-27l725 0c25,0 48,10 65,27 16,17 26,39 26,64l0 0zm0 274c0,26 -10,48 -26,65 -17,17 -40,27 -65,27l-725 0c-25,0 -47,-10 -64,-27 -17,-17 -27,-39 -27,-65l0 0c0,-25 10,-47 27,-64 17,-17 39,-27 64,-27l725 0c25,0 48,10 65,27 16,17 26,39 26,64l0 0zm-318 272c-35,35 -82,56 -135,56 -53,0 -100,-21 -135,-56 -24,-24 -42,-55 -50,-89l370 0c-9,34 -26,65 -50,89zm26 -2281l0 457 -323 0 0 -457 323 0zm-615 -95l0 -63 907 0 0 63 -907 0zm-122 552l0 -457 323 0 0 457 -323 0zm122 -1590c0,-33 13,-63 35,-84 22,-22 51,-35 84,-35l670 0c4,0 9,0 12,0 2,1 3,1 4,1 2,1 3,1 4,1 13,2 26,-2 37,-10 10,-9 16,-22 16,-35l0 -1c0,0 0,-1 0,-1 0,0 0,0 0,-1l0 -180c0,-42 -17,-80 -45,-107 -27,-28 -65,-45 -107,-45l-327 0 0 -46 327 0c55,0 104,22 140,58 35,36 57,85 57,140l0 920 -907 0 0 -575zm383 -270l142 0 0 60 -142 0 0 -60zm692 1245c12,0 24,-5 32,-14 9,-8 14,-20 14,-32l0 -309c0,-12 -5,-23 -14,-32 -8,-8 -20,-13 -32,-13l-76 0 0 -575 0 0 0 -345c0,-80 -33,-152 -85,-204 -52,-53 -125,-85 -204,-85l-373 0c-12,0 -23,5 -32,13 -8,9 -13,21 -13,33l0 137c0,12 5,23 13,32 9,8 20,13 32,13l373 0c17,0 32,7 43,18 11,11 17,26 17,43l0 135 -154 0 0 -106c0,-12 -5,-24 -13,-32 -9,-9 -21,-13 -33,-13l-233 0c-12,0 -23,4 -32,13 -8,8 -13,20 -13,32l0 106 -173 0c-58,0 -111,23 -149,61 -38,38 -61,91 -61,149l0 575 -76 0c-12,0 -24,5 -33,13 -8,9 -13,20 -13,32l0 309c0,12 5,24 13,32 9,9 21,14 33,14l76 0 0 67 -76 0c-12,0 -24,4 -33,13 -8,8 -13,20 -13,32l0 548c0,12 5,24 13,33 9,8 21,13 33,13l76 0 0 365c0,51 20,97 53,130 3,2 6,5 9,7 -3,3 -6,5 -9,8 -33,33 -53,79 -53,129l0 0c0,51 20,97 53,130 3,2 6,5 9,7 -3,3 -6,5 -9,8 -33,33 -53,79 -53,129l0 0c0,51 20,97 53,130 3,2 6,5 9,7 -3,3 -6,6 -9,8 -33,33 -53,79 -53,129l0 0c0,51 20,97 53,130 3,2 6,5 9,7 -3,3 -6,6 -9,8 -33,33 -53,79 -53,129l0 0c0,51 20,97 53,130 33,33 79,53 129,53l84 0c10,60 38,113 79,154 51,51 122,83 200,83 78,0 148,-32 199,-83 41,-41 69,-94 79,-154l84 0c50,0 96,-20 129,-53 33,-33 54,-79 54,-130l0 0c0,-50 -21,-96 -54,-129 -2,-2 -5,-5 -8,-8 3,-2 6,-5 8,-7 33,-33 54,-79 54,-130l0 0c0,-50 -21,-96 -54,-129 -2,-2 -5,-5 -8,-8 3,-2 6,-5 8,-7 33,-33 54,-79 54,-130l0 0c0,-50 -21,-96 -54,-129 -2,-3 -5,-5 -8,-8 3,-2 6,-5 8,-7 33,-33 54,-79 54,-130l0 0c0,-50 -21,-96 -54,-129 -2,-3 -5,-5 -8,-8 3,-2 6,-5 8,-7 33,-33 54,-79 54,-130l0 0 0 -365 76 0c12,0 24,-5 32,-13 9,-9 14,-21 14,-33l0 -548c0,-12 -5,-24 -14,-32 -8,-9 -20,-13 -32,-13l-76 0 0 -67 76 0z"/>
 </g>
</svg>
