<?xml version="1.0" encoding="UTF-8"?>
<!DOCTYPE svg PUBLIC "-//W3C//DTD SVG 1.1//EN" "http://www.w3.org/Graphics/SVG/1.1/DTD/svg11.dtd">
<!-- Creator: CorelDRAW X7 -->
<svg xmlns="http://www.w3.org/2000/svg" xml:space="preserve" width="2.70728in" height="8.23284in" version="1.1" style="shape-rendering:geometricPrecision; text-rendering:geometricPrecision; image-rendering:optimizeQuality; fill-rule:evenodd; clip-rule:evenodd"
viewBox="0 0 26187 79633"
 xmlns:xlink="http://www.w3.org/1999/xlink">
 <defs>
  <style type="text/css">
   <![CDATA[
    .fil1 {fill:#221E1F;fill-rule:nonzero}
    .fil2 {fill:#2F2F2F;fill-rule:nonzero}
    .fil3 {fill:#5F5F5F;fill-rule:nonzero}
    .fil0 {fill:#898989;fill-rule:nonzero}
    .fil4 {fill:white;fill-rule:nonzero}
   ]]>
  </style>
 </defs>
 <g id="Monkey_x0020_Wrench">
  <metadata id="CorelCorpID_0Corel-Layer"/>
  <polygon class="fil0" points="26187,15417 24781,13829 22128,13829 22612,15417 "/>
  <polygon class="fil1" points="21242,15417 21242,16610 21417,15791 22014,15791 22189,16610 22801,16610 22976,15791 23573,15791 23748,16610 24360,16610 24534,15791 25132,15791 25307,16610 25918,16610 26187,15417 "/>
  <polygon class="fil2" points="17093,9521 15017,13116 19092,13116 "/>
  <path class="fil3" d="M17093 0l119 82c4284,2957 6842,7829 6842,13034l-4962 0 -1999 -3566 0 -9550z"/>
  <path class="fil0" d="M10810 13116l-3677 0 -474 0 -2076 -3595 20 -35 -116 -167 0 -9319 -952 952c-2264,2264 -3535,5333 -3535,8534 0,10015 10592,11151 10592,18378l0 48238c0,1790 1331,3342 3112,3515 2049,199 3791,-1425 3791,-3435l0 -48318 0 0c0,-2795 787,-5534 2271,-7903l4288 -6845 -13244 0z"/>
  <path class="fil4" d="M16517 76182c0,1366 -1107,2473 -2473,2473 -1366,0 -2474,-1107 -2474,-2473 0,-1366 1108,-2474 2474,-2474 1366,0 2473,1108 2473,2474z"/>
  <path class="fil2" d="M14044 72730c934,0 1780,373 2402,976l0 -43438c0,-1321 -1081,-2402 -2402,-2402 -1321,0 -2402,1081 -2402,2402l0 43438c621,-603 1467,-976 2402,-976z"/>
  <path class="fil4" d="M12376 72514c-112,0 -202,-91 -202,-202l0 -22896c0,-111 90,-201 202,-201 111,0 201,90 201,201l0 22896c0,111 -90,202 -201,202z"/>
  <path class="fil4" d="M12376 48467c-112,0 -202,-90 -202,-201l0 -748c0,-112 90,-202 202,-202 111,0 201,90 201,202l0 748c0,111 -90,201 -201,201z"/>
  <path class="fil4" d="M13238 29598c0,238 -193,431 -431,431 -238,0 -431,-193 -431,-431 0,-238 193,-432 431,-432 238,0 431,194 431,432z"/>
  <path class="fil4" d="M14475 29598c0,238 -193,431 -431,431 -239,0 -432,-193 -432,-431 0,-238 193,-432 432,-432 238,0 431,194 431,432z"/>
  <path class="fil4" d="M13238 30892c0,238 -193,431 -431,431 -238,0 -431,-193 -431,-431 0,-238 193,-431 431,-431 238,0 431,193 431,431z"/>
  <path class="fil3" d="M7133 13116l-474 0 -2076 -3595 20 -35 -116 -167 0 -9319 -952 952c-2264,2264 -3535,5333 -3535,8534 0,3063 991,5294 2367,7124l8455 0 0 -1193 5624 0 0 1193 5419 0 0 0 2189 -3494 -13244 0 -3677 0z"/>
  <polygon class="fil4" points="16446,20422 10822,20422 10822,15417 16446,15417 "/>
  <polygon class="fil1" points="10822,15417 10822,16610 10997,15791 11594,15791 11769,16610 12381,16610 12556,15791 13153,15791 13328,16610 13940,16610 14115,15791 14712,15791 14887,16610 15499,16610 15674,15791 16271,15791 16446,16610 16446,15417 "/>
  <polygon class="fil3" points="16201,19725 11052,19725 11052,16805 16201,16805 "/>
  <polygon class="fil3" points="16446,19616 10807,19616 10807,16913 16446,16913 "/>
  <polygon class="fil4" points="15824,17409 11429,17409 11429,16963 15824,16963 "/>
  <polygon class="fil0" points="11277,20249 11052,20249 11007,16280 11580,16280 "/>
  <polygon class="fil0" points="12847,20249 12274,20249 12577,16280 13150,16280 "/>
  <polygon class="fil0" points="14430,20249 13857,20249 14160,16280 14733,16280 "/>
  <polygon class="fil0" points="16201,20249 15386,20249 15689,16280 16262,16280 "/>
  <path class="fil4" d="M812 12167c-97,0 -183,-70 -199,-170 -913,-5749 1474,-8809 2622,-10279 98,-126 187,-240 264,-343 66,-89 192,-107 282,-41 89,67 107,193 41,282 -79,105 -170,222 -270,350 -1112,1425 -3426,4392 -2540,9968 17,110 -58,213 -168,231 -11,1 -21,2 -32,2z"/>
  <path class="fil4" d="M3344 15827c0,227 -184,410 -410,410 -227,0 -410,-183 -410,-410 0,-226 183,-410 410,-410 226,0 410,184 410,410z"/>
  <path class="fil4" d="M4609 15827c0,227 -183,410 -410,410 -226,0 -409,-183 -409,-410 0,-226 183,-410 409,-410 227,0 410,184 410,410z"/>
  <path class="fil4" d="M3948 14554c0,226 -184,409 -410,409 -227,0 -410,-183 -410,-409 0,-227 183,-410 410,-410 226,0 410,183 410,410z"/>
  <path class="fil4" d="M22720 9722c-102,0 -189,-76 -200,-179 -434,-3959 -4776,-7858 -4820,-7897 -83,-74 -91,-201 -17,-284 74,-83 201,-91 284,-17 12,10 1137,1015 2301,2508 1080,1385 2416,3489 2652,5646 12,111 -68,210 -178,222 -8,1 -15,1 -22,1z"/>
  <path class="fil4" d="M22838 10916c-111,0 -201,-90 -201,-201l0 -274c0,-111 90,-201 201,-201 112,0 202,90 202,201l0 274c0,111 -90,201 -202,201z"/>
 </g>
</svg>
