<?xml version="1.0" encoding="UTF-8"?>
<!DOCTYPE svg PUBLIC "-//W3C//DTD SVG 1.1//EN" "http://www.w3.org/Graphics/SVG/1.1/DTD/svg11.dtd">
<!-- Creator: CorelDRAW X7 -->
<svg xmlns="http://www.w3.org/2000/svg" xml:space="preserve" width="6.44445in" height="4.14451in" version="1.1" style="shape-rendering:geometricPrecision; text-rendering:geometricPrecision; image-rendering:optimizeQuality; fill-rule:evenodd; clip-rule:evenodd"
viewBox="0 0 31148 20032"
 xmlns:xlink="http://www.w3.org/1999/xlink">
 <defs>
  <style type="text/css">
   <![CDATA[
    .fil1 {fill:#BDBFC1}
    .fil0 {fill:#848688}
    .fil2 {fill:#4B4B4D}
   ]]>
  </style>
 </defs>
 <g id="Layer_x0020_1">
  <metadata id="CorelCorpID_0Corel-Layer"/>
  <path class="fil0" d="M26237 6554c-50,138 -123,268 -213,390 -181,245 -429,461 -732,660 0,0 0,1 0,1 -510,334 -1181,623 -1987,874 -580,180 -1230,339 -1938,474 -603,115 -1248,213 -1926,290 -615,71 -1258,125 -1922,161 -638,35 -1297,53 -1970,53 -655,0 -1297,-17 -1919,-50 -664,-36 -1307,-89 -1922,-158 -678,-76 -1323,-172 -1926,-286 -707,-133 -1357,-290 -1938,-468 -800,-246 -1470,-529 -1983,-855 -240,-152 -446,-315 -615,-492 -169,-176 -300,-369 -381,-582 -53,-142 -82,-292 -82,-444 0,-152 29,-302 82,-443 54,-142 130,-275 225,-400 190,-251 451,-471 771,-674 513,-326 1183,-610 1983,-855 581,-178 1231,-335 1938,-468 603,-114 1248,-210 1926,-286 615,-70 1258,-123 1922,-158 622,-33 1264,-50 1919,-50 673,0 1332,18 1970,53 664,36 1307,90 1922,160 678,78 1323,176 1926,290 708,135 1358,294 1938,475 806,251 1477,540 1987,874 0,0 0,0 0,0 227,150 423,309 584,482 160,173 285,362 361,569 50,138 78,284 78,431 0,148 -28,294 -78,432zm3898 -1564c-228,-376 -575,-752 -1033,-1113 -915,-722 -2269,-1378 -3935,-1900 -1111,-348 -2362,-638 -3715,-855 -1804,-290 -3791,-451 -5878,-451 -2396,0 -4662,212 -6669,588 -2007,376 -3757,917 -5118,1566 -907,433 -1640,915 -2162,1417 -298,287 -527,581 -684,873 -180,336 -269,668 -270,1007 0,51 3,102 7,152 1,18 4,35 6,53 3,33 7,67 12,101 3,18 7,37 11,56 6,32 13,65 21,98 4,18 9,36 14,54 9,33 19,67 30,100 6,18 12,35 18,53 12,34 25,68 39,102 7,17 14,34 21,51 16,36 33,72 51,108 7,14 14,29 22,44 24,47 51,95 79,143 2,2 3,4 4,6 32,53 66,106 103,159 35,52 73,104 114,155 4,6 9,12 13,17 36,46 74,91 113,137 8,9 16,18 24,26 37,43 77,86 117,129 9,8 17,17 26,26 42,44 86,87 132,131 7,7 14,13 21,20 50,47 102,94 156,140 3,3 7,7 10,10 178,154 376,305 592,453 514,353 1134,687 1845,993 0,0 0,0 0,0 140,60 283,119 429,177 3,1 6,2 9,3 70,28 141,55 213,83 7,2 15,5 22,8 300,113 613,222 939,326 2,1 4,1 6,2 62,20 124,39 187,58 43,14 86,26 130,39 108,33 218,66 330,97 41,12 82,23 123,35 107,30 215,59 324,88 48,13 96,25 145,37 103,27 208,53 313,79 55,13 110,26 165,40 103,24 206,47 310,71 60,13 120,27 181,40 90,19 181,39 273,57 62,13 125,26 188,39 97,19 195,38 293,57 57,11 115,21 173,32 105,19 211,38 318,56 52,9 104,18 157,27 131,22 262,43 394,64 1,0 1,0 2,0 301,46 607,89 917,129 11,1 21,2 32,3 134,17 269,33 404,49 29,3 57,6 86,9 146,16 292,32 440,46 1,1 3,1 4,1 145,14 291,27 437,40 31,3 62,5 92,8 114,9 227,18 341,27 42,3 83,6 125,9 111,8 224,15 336,22 35,2 70,5 105,7 149,9 298,17 447,24 3,0 6,0 9,0 140,7 281,13 422,18 39,1 77,3 116,4 108,4 217,7 326,10 43,1 86,2 129,3 111,2 222,4 333,6 37,0 74,1 111,1 144,2 289,3 434,3 11,0 21,0 32,0 6,0 12,0 17,0 151,0 301,-1 450,-2 48,-1 95,-2 143,-3 108,-1 216,-3 323,-5 54,-2 107,-3 161,-5 100,-3 201,-5 301,-9 57,-2 113,-4 169,-6 96,-4 192,-8 288,-13 57,-2 114,-5 171,-8 97,-5 194,-10 290,-16 58,-3 117,-7 175,-10 95,-6 189,-13 284,-19 57,-4 114,-8 171,-13 96,-7 191,-15 287,-22 54,-5 108,-9 161,-14 100,-9 200,-18 299,-27 47,-5 95,-9 142,-14 142,-14 283,-29 424,-44 8,-1 16,-2 24,-3 315,-35 625,-75 931,-117 8,-2 17,-3 26,-4 142,-20 283,-41 423,-62 14,-2 28,-5 41,-7 148,-23 295,-46 440,-71 12,-2 23,-4 35,-6 314,-53 622,-111 924,-172 6,-1 11,-2 17,-3 137,-28 273,-57 408,-86 25,-6 50,-12 75,-17 143,-32 284,-64 423,-97 12,-3 24,-6 35,-9 310,-74 612,-153 905,-235 15,-4 30,-9 44,-13 145,-41 288,-83 429,-125 72,-23 144,-45 215,-68 16,-5 32,-10 48,-15 69,-22 138,-44 206,-67 20,-6 40,-13 59,-20 70,-23 139,-46 207,-70 4,-1 7,-3 11,-4 226,-78 445,-160 657,-243 14,-6 29,-11 43,-17 65,-25 128,-51 192,-77 12,-5 24,-11 37,-16 64,-26 128,-53 191,-80 0,0 0,0 0,0 711,-306 1331,-640 1845,-993 327,-223 610,-455 848,-690 0,0 0,0 1,0 38,-38 76,-77 112,-115 1,-2 3,-4 5,-6 35,-37 68,-74 101,-111 2,-3 4,-5 6,-7 32,-37 63,-74 93,-112 2,-2 4,-4 6,-6 31,-39 60,-77 89,-116 0,-1 1,-1 1,-2 143,-195 254,-390 335,-585 2,-5 4,-9 5,-13 11,-25 19,-51 29,-76 5,-15 11,-31 17,-46 17,-50 31,-99 44,-149 3,-11 5,-21 8,-32 9,-38 17,-76 24,-114 3,-16 5,-32 8,-48 5,-34 9,-68 13,-103 2,-15 3,-31 5,-46 3,-49 6,-98 6,-147 -1,-381 -113,-755 -342,-1132z"/>
  <path class="fil1" d="M20385 11953c-136,17 -273,33 -410,48 -29,4 -58,7 -88,10 -49,6 -99,11 -149,16l0 7112c418,-45 828,-98 1230,-156l0 -7109c-181,26 -364,51 -548,74 -12,2 -24,3 -35,5zm-2549 -3241c421,-28 832,-62 1231,-104l0 -4971c-399,-42 -810,-77 -1231,-104l0 5179zm-1951 71c434,-4 861,-15 1280,-34l0 -5253c-419,-19 -846,-31 -1280,-35l0 5322zm1064 3438c-106,4 -212,7 -318,10 -50,1 -101,2 -152,3 -104,3 -209,5 -314,6 -47,1 -94,2 -141,2 -46,1 -93,1 -139,1l0 7116c431,-4 858,-14 1280,-31l0 -7115c-29,1 -57,3 -86,4 -44,2 -87,3 -130,4zm1949 -114c-116,10 -233,19 -350,28 -42,3 -84,6 -125,9 -114,8 -229,16 -344,23 -35,2 -71,5 -106,7 -46,3 -91,5 -137,7l0 7115c416,-24 827,-54 1231,-90l0 -7113c-26,2 -52,5 -78,7 -31,3 -61,5 -91,7zm840 -3576c427,-55 838,-117 1230,-187l0 -4443c-392,-70 -803,-133 -1230,-187l0 4817zm10717 -561c-5,6 -11,13 -16,19 -42,54 -86,108 -132,161 -10,11 -20,21 -29,32 -43,49 -87,97 -133,145 -12,12 -23,24 -35,36 -46,47 -93,94 -142,140 -11,12 -23,23 -35,34 -52,49 -105,97 -160,145 -9,7 -17,15 -26,23 -155,134 -323,264 -501,391l0 6939c208,-173 390,-350 546,-528 276,-317 467,-637 576,-956 72,-213 109,-426 109,-642l0 -5969c-8,10 -14,20 -22,30zm-4041 2578c-62,23 -123,46 -185,68 -23,9 -47,17 -70,25 -217,78 -439,154 -667,227 -12,4 -24,8 -37,12 -4,1 -8,2 -12,3l0 7082c433,-143 845,-294 1230,-454l0 -7063c-61,24 -123,48 -186,72 -24,9 -49,19 -73,28zm931 6665c455,-217 867,-445 1230,-683l0 -6997c-376,222 -787,433 -1230,632l0 7048zm-13362 -8462c403,18 813,29 1230,32l0 -5322c-417,4 -827,15 -1230,33l0 5257zm10353 2453c-50,13 -100,26 -150,39 -106,27 -214,54 -322,80 -56,14 -112,27 -168,41 -51,12 -103,23 -155,35l0 7098c426,-100 836,-209 1231,-325l0 -7087c-35,10 -70,19 -105,29 -109,30 -220,60 -331,90zm-2696 -2990c439,-93 851,-195 1230,-305l0 -3573c-379,-110 -791,-212 -1230,-305l0 4183zm782 3420c-60,11 -120,22 -180,34 -106,19 -214,38 -321,57 -55,9 -109,18 -164,27 -39,7 -78,13 -117,19l0 7107c421,-70 831,-147 1230,-231l0 -7101c-50,10 -100,20 -150,30 -99,20 -198,39 -298,58zm1119 -3941c489,-173 904,-361 1231,-555l0 -2031c-327,-194 -742,-382 -1231,-556l0 3142zm-17165 -525c330,190 745,374 1231,543l0 -3177c-486,169 -901,353 -1231,543l0 2091zm980 4173c-318,-76 -629,-157 -931,-242 -12,-4 -25,-7 -37,-11 -4,-1 -8,-2 -12,-3l0 7087c395,116 805,225 1231,325l0 -7098c-68,-15 -137,-31 -204,-47 -15,-3 -31,-7 -47,-11zm7599 899c-113,-2 -227,-4 -339,-7 -55,-1 -109,-3 -164,-4 -100,-3 -199,-6 -299,-9 -57,-2 -113,-5 -170,-7l0 7115c406,17 816,27 1230,30l0 -7115c-43,-1 -88,-1 -131,-1 -43,-1 -85,-2 -127,-2zm-9500 -6118c0,68 12,136 39,208 27,72 70,149 131,231 24,31 51,63 80,95l0 -1067c-105,116 -174,226 -211,326 -27,72 -39,139 -39,207zm20188 0c0,-66 -11,-131 -37,-201 -25,-70 -65,-144 -123,-223 -12,-17 -26,-34 -40,-51l0 950c79,-97 133,-189 163,-273 26,-71 37,-136 37,-202zm-24361 2477c-59,-54 -116,-108 -172,-162 -2,-3 -5,-6 -8,-8 -41,-41 -82,-83 -121,-125 -4,-4 -8,-8 -12,-12 -38,-40 -75,-81 -111,-122 -2,-3 -5,-6 -8,-9 -2,-2 -3,-5 -5,-7 -35,-41 -70,-82 -104,-123 -3,-5 -7,-10 -11,-15 -20,-25 -39,-50 -59,-76l0 5969c0,216 37,429 109,642 73,212 182,425 329,638 196,286 463,570 793,846l0 -6938c-220,-157 -423,-320 -608,-487 -4,-4 -8,-7 -12,-11zm1291 7931c363,238 775,466 1230,683l0 -7048c-443,-199 -854,-410 -1230,-632l0 6997zm3104 -5655c-76,-24 -150,-49 -224,-73 -17,-6 -34,-11 -50,-17 -75,-25 -149,-50 -222,-75 -1,-1 -2,-1 -3,-2 -232,-80 -458,-164 -677,-250 -9,-3 -18,-7 -26,-10l0 7063c386,160 797,311 1230,454l0 -7082c0,0 0,0 -1,0 -9,-3 -18,-5 -27,-8zm7368 1291c-97,-7 -195,-13 -291,-20 -58,-4 -115,-8 -171,-12 -100,-8 -198,-16 -297,-24 -53,-4 -107,-8 -160,-13 -15,-1 -30,-3 -45,-4l0 7113c404,36 815,66 1231,90l0 -7115c-30,-1 -60,-3 -90,-5 -59,-3 -118,-7 -177,-10zm-2865 -3813c393,69 804,131 1230,184l0 -4830c-426,54 -837,116 -1230,185l0 4461zm1901 260c400,41 810,75 1231,102l0 -5185c-421,26 -831,61 -1231,101l0 4982zm-3803 -690c380,109 792,210 1230,301l0 -4203c-438,91 -850,192 -1230,301l0 3601zm2942 4084c-320,-36 -637,-76 -948,-119 -11,-2 -21,-3 -31,-5 -21,-3 -41,-6 -61,-9l0 7109c402,58 812,111 1230,156l0 -7112c-57,-6 -115,-12 -172,-18 -6,-1 -12,-1 -18,-2zm-1936 -272c-318,-55 -631,-113 -938,-175 -13,-2 -26,-5 -39,-8 -10,-2 -19,-4 -29,-6l0 7101c399,84 809,161 1230,231l0 -7107c-61,-10 -123,-19 -184,-30 -13,-2 -27,-4 -40,-6z"/>
  <path class="fil2" d="M25606 6324c-30,84 -84,176 -163,273l0 -950c14,17 28,34 40,51 58,79 98,153 123,223 26,70 37,135 37,201 0,66 -11,131 -37,202zm-834 814c-327,194 -742,382 -1231,556l0 -3143c489,174 904,362 1231,556l0 2031zm-1902 771c-379,110 -791,212 -1230,305l0 -4183c439,93 851,195 1230,305l0 3573zm-1902 435c-392,70 -803,132 -1230,187l0 -4817c427,54 838,117 1230,187l0 4443zm-1901 264c-399,42 -810,76 -1231,104l0 -5179c421,27 832,62 1231,104l0 4971zm-1902 141c-419,19 -846,30 -1280,34l0 -5322c434,4 861,16 1280,35l0 5253zm-1952 34c-417,-3 -827,-14 -1230,-32l0 -5257c403,-18 813,-29 1230,-33l0 5322zm-1901 -68c-421,-27 -831,-61 -1231,-102l0 -4982c400,-40 810,-75 1231,-101l0 5185zm-1902 -178c-426,-53 -837,-115 -1230,-184l0 -4461c393,-69 804,-131 1230,-185l0 4830zm-1902 -313c-438,-91 -850,-192 -1230,-301l0 -3601c380,-109 792,-210 1230,-301l0 4203zm-1901 -513c-486,-169 -901,-353 -1231,-543l0 -2091c330,-190 745,-374 1231,-543l0 3177zm-1902 -1055c-29,-32 -56,-64 -80,-95 -61,-82 -104,-159 -131,-231 -27,-72 -39,-140 -39,-208 0,-68 12,-135 39,-207 37,-100 106,-210 211,-326l0 1067zm20171 -1534c-161,-173 -357,-332 -584,-482 0,0 0,0 0,0 -510,-334 -1181,-623 -1987,-874 -580,-181 -1230,-340 -1938,-475 -603,-115 -1248,-212 -1926,-290 -615,-70 -1258,-124 -1922,-160 -638,-35 -1297,-53 -1970,-53 -655,0 -1297,17 -1919,50 -664,35 -1307,88 -1922,158 -678,76 -1323,172 -1926,286 -707,133 -1357,290 -1938,468 -800,245 -1470,529 -1983,855 -320,203 -581,423 -771,674 -95,125 -171,258 -225,400 -53,141 -82,291 -82,443 0,152 29,302 82,444 81,213 212,406 381,582 169,177 375,340 615,492 513,326 1183,609 1983,855 581,178 1231,335 1938,468 603,114 1248,210 1926,286 615,69 1258,122 1922,158 622,33 1264,50 1919,50 673,0 1332,-18 1970,-53 664,-36 1307,-90 1922,-161 678,-77 1323,-175 1926,-290 708,-135 1358,-294 1938,-474 806,-251 1477,-540 1987,-874 0,0 0,-1 0,-1 303,-199 551,-415 732,-660 90,-122 163,-252 213,-390 50,-138 78,-284 78,-432 0,-147 -28,-293 -78,-431 -76,-207 -201,-396 -361,-569zm4595 1147c-2,15 -3,31 -5,46 -4,35 -8,69 -13,103 -3,16 -5,32 -8,48 -7,38 -15,76 -24,114 -3,11 -5,21 -8,32 -13,50 -27,99 -44,149 -6,15 -12,31 -17,46 -10,25 -18,51 -29,76 -1,4 -3,8 -5,13 -19,46 -40,93 -63,139 -3,7 -7,14 -11,21 -45,91 -97,182 -156,273 -3,5 -7,10 -10,15 -30,46 -61,92 -95,137 0,1 -1,1 -1,2 -29,39 -58,77 -89,116 -2,2 -4,4 -6,6 -30,38 -61,75 -93,112 -2,2 -4,4 -6,7 -33,37 -66,74 -101,111 -2,2 -4,4 -5,6 -36,38 -74,77 -112,115 -1,0 -1,0 -1,0 -25,25 -52,51 -78,76 -38,35 -76,70 -115,105 -24,22 -49,43 -74,64 -36,32 -73,63 -111,94 -29,23 -58,47 -87,70 -36,28 -72,56 -108,84 -33,24 -67,49 -101,74 -38,27 -77,55 -116,83 -19,13 -38,27 -58,40 -514,353 -1134,687 -1845,993 0,0 0,0 0,0 -63,27 -127,54 -191,80 -13,5 -25,11 -37,16 -64,26 -127,52 -192,77 -14,6 -29,11 -43,17 -212,83 -431,165 -657,243 -4,1 -7,3 -11,4 -68,24 -137,47 -207,70 -19,7 -39,14 -59,20 -68,23 -137,45 -206,67 -16,5 -32,10 -48,15 -71,23 -143,45 -215,68 -141,42 -284,84 -429,125 -14,4 -29,9 -44,13 -293,82 -595,161 -905,235 -11,3 -23,6 -35,9 -139,33 -280,65 -423,97 -25,5 -50,11 -75,17 -135,29 -271,58 -408,86 -6,1 -11,2 -17,3 -302,61 -610,119 -924,172 -12,2 -23,4 -35,6 -145,25 -292,48 -440,71 -13,2 -27,5 -41,7 -140,21 -281,42 -423,62 -9,1 -18,2 -26,4 -306,42 -616,82 -931,117 -8,1 -16,2 -24,3 -141,15 -282,30 -424,44 -47,5 -95,9 -142,14 -99,9 -199,18 -299,27 -53,5 -107,9 -161,14 -96,7 -191,15 -287,22 -57,5 -114,9 -171,13 -95,6 -189,13 -284,19 -58,3 -117,7 -175,10 -96,6 -193,11 -290,16 -57,3 -114,6 -171,8 -96,5 -192,9 -288,13 -56,2 -112,4 -169,6 -100,4 -201,6 -301,9 -54,2 -107,3 -161,5 -107,2 -215,4 -323,5 -48,1 -95,2 -143,3 -149,1 -299,2 -450,2 -5,0 -11,0 -17,0 -11,0 -21,0 -32,0 -145,0 -290,-1 -434,-3 -37,0 -74,-1 -111,-1 -111,-2 -222,-4 -333,-6 -43,-1 -86,-2 -129,-3 -109,-3 -218,-6 -326,-10 -39,-1 -77,-3 -116,-4 -141,-5 -282,-11 -422,-18 -3,0 -6,0 -9,0 -149,-7 -298,-15 -447,-24 -35,-2 -70,-5 -105,-7 -112,-7 -225,-14 -336,-22 -42,-3 -83,-6 -125,-9 -114,-9 -227,-18 -341,-27 -30,-3 -61,-5 -92,-8 -146,-13 -292,-26 -437,-40 -1,0 -3,0 -4,-1 -148,-14 -294,-30 -440,-46 -29,-3 -57,-6 -86,-9 -135,-16 -270,-32 -404,-49 -11,-1 -21,-2 -32,-3 -310,-40 -616,-83 -917,-129 -1,0 -1,0 -2,0 -132,-21 -263,-42 -394,-64 -53,-9 -105,-18 -157,-27 -107,-18 -213,-37 -318,-56 -58,-11 -116,-21 -173,-32 -98,-19 -196,-38 -293,-57 -63,-13 -126,-26 -188,-39 -92,-18 -183,-38 -273,-57 -61,-13 -121,-27 -181,-40 -104,-24 -208,-47 -310,-71 -55,-14 -110,-27 -165,-40 -105,-26 -210,-52 -313,-79 -49,-12 -97,-24 -145,-37 -109,-29 -217,-58 -324,-88 -41,-12 -82,-23 -123,-35 -112,-31 -222,-64 -330,-97 -44,-13 -87,-25 -130,-39 -63,-19 -125,-38 -187,-58 -2,-1 -4,-1 -6,-2 -326,-104 -639,-213 -939,-326 -7,-3 -15,-6 -22,-8 -72,-28 -143,-55 -213,-83 -3,-1 -6,-2 -9,-3 -146,-58 -289,-117 -429,-177 0,0 0,0 0,0 -711,-306 -1331,-640 -1845,-993 -101,-69 -198,-139 -291,-210 -10,-7 -20,-15 -30,-23 -95,-73 -185,-146 -271,-220 -3,-3 -7,-6 -10,-10 -54,-46 -106,-93 -156,-140 -7,-7 -14,-13 -21,-20 -46,-44 -90,-87 -132,-131 -9,-9 -17,-18 -26,-26 -40,-43 -80,-86 -117,-129 -8,-8 -16,-17 -24,-26 -39,-46 -77,-91 -113,-137 -4,-5 -9,-11 -13,-17 -40,-51 -79,-103 -114,-155 -37,-53 -71,-106 -103,-159 -1,-2 -2,-4 -4,-6 -28,-48 -55,-96 -79,-143 -8,-15 -15,-30 -22,-44 -18,-36 -35,-72 -51,-108 -7,-17 -14,-34 -21,-51 -14,-34 -27,-68 -39,-102 -6,-18 -12,-35 -18,-53 -11,-33 -21,-67 -30,-100 -5,-18 -10,-36 -14,-54 -8,-33 -15,-66 -21,-98 -4,-19 -8,-38 -11,-56 -5,-34 -9,-68 -12,-101 -2,-18 -5,-35 -6,-53 -4,-50 -7,-101 -7,-152 1,-339 90,-671 270,-1007 157,-292 386,-586 684,-873 522,-502 1255,-984 2162,-1417 1361,-649 3110,-1190 5118,-1566 2007,-376 4273,-588 6669,-588 2087,0 4074,161 5878,451 1353,217 2604,507 3715,855 1666,522 3020,1178 3935,1900 458,361 805,737 1033,1113 229,377 341,751 342,1132 0,49 -3,98 -6,147zm6 7640c0,216 -37,429 -109,642 -109,319 -300,639 -576,956 -156,178 -338,355 -546,528l0 -6939c178,-127 346,-257 501,-391 9,-8 17,-16 26,-23 55,-48 108,-96 160,-145 12,-11 24,-22 35,-34 49,-46 96,-93 142,-140 12,-12 23,-24 35,-36 46,-48 90,-96 133,-145 10,-11 19,-21 29,-32 46,-53 90,-107 132,-161 5,-6 11,-13 16,-19 8,-10 14,-20 22,-30l0 5969zm-1902 2621c-363,238 -775,466 -1230,683l0 -7048c443,-199 854,-410 1230,-632l0 6997zm-1902 981c-385,160 -797,311 -1230,454l0 -7082c4,-1 8,-2 12,-3 13,-4 25,-8 37,-12 228,-73 450,-149 667,-227 23,-8 47,-16 70,-25 62,-22 123,-45 185,-68 24,-9 49,-19 73,-28 63,-24 125,-48 186,-72l0 7063zm-1901 661c-395,116 -805,225 -1231,325l0 -7098c52,-12 104,-23 155,-35 56,-14 112,-27 168,-41 108,-26 216,-53 322,-80 50,-13 100,-26 150,-39 111,-30 222,-60 331,-90 35,-10 70,-19 105,-29l0 7087zm-1902 475c-399,84 -809,161 -1230,231l0 -7107c39,-6 78,-12 117,-19 55,-9 109,-18 164,-27 107,-19 215,-38 321,-57 60,-12 120,-23 180,-34 100,-19 199,-38 298,-58 50,-10 100,-20 150,-30l0 7101zm-1902 336c-402,58 -812,111 -1230,156l0 -7112c50,-5 100,-10 149,-16 30,-3 59,-6 88,-10 137,-15 274,-31 410,-48 11,-2 23,-3 35,-5 184,-23 367,-48 548,-74l0 7109zm-1901 223c-404,36 -815,66 -1231,90l0 -7115c46,-2 91,-4 137,-7 35,-2 71,-5 106,-7 115,-7 230,-15 344,-23 41,-3 83,-6 125,-9 117,-9 234,-18 350,-28 30,-2 60,-4 91,-7 26,-2 52,-5 78,-7l0 7113zm-1902 122c-422,17 -849,27 -1280,31l0 -7116c46,0 93,0 139,-1 47,0 94,-1 141,-2 105,-1 210,-3 314,-6 51,-1 102,-2 152,-3 106,-3 212,-6 318,-10 43,-1 86,-2 130,-4 29,-1 57,-3 86,-4l0 7115zm-1952 30c-414,-3 -824,-13 -1230,-30l0 -7115c57,2 113,5 170,7 100,3 199,6 299,9 55,1 109,3 164,4 112,3 226,5 339,7 42,0 84,1 127,2 43,0 88,0 131,1l0 7115zm-1901 -62c-416,-24 -827,-54 -1231,-90l0 -7113c15,1 30,3 45,4 53,5 107,9 160,13 99,8 197,16 297,24 56,4 113,8 171,12 96,7 194,13 291,20 59,3 118,7 177,10 30,2 60,4 90,5l0 7115zm-1902 -157c-418,-45 -828,-98 -1230,-156l0 -7109c20,3 40,6 61,9 10,2 20,3 31,5 311,43 628,83 948,119 6,1 12,1 18,2 57,6 115,12 172,18l0 7112zm-1902 -261c-421,-70 -831,-147 -1230,-231l0 -7101c10,2 19,4 29,6 13,3 26,6 39,8 307,62 620,120 938,175 13,2 27,4 40,6 61,11 123,20 184,30l0 7107zm-1901 -381c-426,-100 -836,-209 -1231,-325l0 -7087c4,1 8,2 12,3 12,4 25,7 37,11 302,85 613,166 931,242 16,4 32,8 47,11 67,16 136,32 204,47l0 7098zm-1902 -532c-433,-143 -844,-294 -1230,-454l0 -7063c8,3 17,7 26,10 219,86 445,170 677,250 1,1 2,1 3,2 73,25 147,50 222,75 16,6 33,11 50,17 74,24 148,49 224,73 9,3 18,5 27,8 1,0 1,0 1,0l0 7082zm-1902 -752c-455,-217 -867,-445 -1230,-683l0 -6997c376,222 787,433 1230,632l0 7048zm-1901 -1178c-330,-277 -597,-560 -793,-846 -147,-213 -256,-426 -329,-638 -72,-213 -109,-426 -109,-642l0 -5969c20,26 39,51 59,76 4,5 8,10 11,15 34,41 69,82 104,123 2,2 3,5 5,7 3,3 6,6 8,9 36,41 73,82 111,122 4,4 8,8 12,12 39,42 80,84 121,125 3,2 6,5 8,8 233,229 498,449 792,660l0 6938zm28896 -11238c-197,-366 -471,-712 -810,-1038 -593,-571 -1384,-1084 -2338,-1539 -1431,-683 -3231,-1236 -5283,-1621 -2052,-384 -4357,-599 -6793,-599 -2121,0 -4143,163 -5985,459 -1381,222 -2662,518 -3808,878 -1720,540 -3139,1217 -4150,2013 -506,398 -910,828 -1192,1291 -282,463 -439,964 -439,1481l0 7787c0,292 50,580 145,858 142,418 384,811 705,1181 322,369 725,715 1198,1039 558,383 1216,735 1958,1055 0,0 0,0 0,0 594,256 1241,491 1937,703 608,185 1251,353 1927,502 616,135 1258,255 1923,357 621,96 1262,177 1920,242 625,61 1265,108 1918,140 629,30 1269,45 1918,46 0,0 0,0 0,0 0,0 0,0 0,0 5,0 14,0 25,0 658,0 1306,-16 1943,-46 653,-32 1293,-79 1918,-140 658,-65 1299,-146 1920,-242 665,-102 1307,-222 1923,-357 676,-149 1320,-317 1927,-502 696,-212 1343,-447 1937,-703 0,0 0,0 0,0 743,-320 1400,-672 1958,-1055 631,-432 1137,-903 1492,-1417 177,-257 316,-525 411,-803 95,-278 145,-566 145,-858l0 -7787c0,-459 -124,-907 -350,-1325z"/>
 </g>
</svg>
