<?xml version="1.0" encoding="UTF-8"?>
<!DOCTYPE svg PUBLIC "-//W3C//DTD SVG 1.1//EN" "http://www.w3.org/Graphics/SVG/1.1/DTD/svg11.dtd">
<!-- Creator: CorelDRAW X7 -->
<svg xmlns="http://www.w3.org/2000/svg" xml:space="preserve" width="3.02463in" height="3.8928in" version="1.1" style="shape-rendering:geometricPrecision; text-rendering:geometricPrecision; image-rendering:optimizeQuality; fill-rule:evenodd; clip-rule:evenodd"
viewBox="0 0 1091 1404"
 xmlns:xlink="http://www.w3.org/1999/xlink">
 <defs>
  <style type="text/css">
   <![CDATA[
    .fil1 {fill:#333333;fill-rule:nonzero}
    .fil2 {fill:#D1AC13;fill-rule:nonzero}
    .fil0 {fill:#F9CD15;fill-rule:nonzero}
    .fil3 {fill:white;fill-rule:nonzero}
   ]]>
  </style>
 </defs>
 <g id="Objects">
  <metadata id="CorelCorpID_0Corel-Layer"/>
  <path class="fil0" d="M143 1292c0,39 -32,71 -71,71 -40,0 -72,-32 -72,-71l0 -182c0,-39 32,-72 72,-72 39,0 71,33 71,72l0 182z"/>
  <polygon class="fil0" points="356,1280 36,1280 36,1143 356,1143 "/>
  <path class="fil0" d="M547 1035c0,-20 -18,-37 -41,-37l-243 0c-23,0 -40,17 -40,37l0 310c0,21 17,37 40,37l243 0c23,0 41,-16 41,-37l0 -310z"/>
  <path class="fil0" d="M748 1080c0,-14 -13,-26 -29,-26l-208 -56c-22,0 -40,17 -40,37l0 310c0,21 18,37 40,37l208 -56c16,0 29,-12 29,-26l0 -220z"/>
  <polygon class="fil0" points="496,1051 327,1051 327,964 496,964 "/>
  <path class="fil0" d="M609 965c0,-8 -6,-14 -13,-14l-369 0c-8,0 -14,6 -14,14 0,8 6,14 14,14l369 0c7,0 13,-6 13,-14z"/>
  <path class="fil0" d="M853 1192c0,11 -8,19 -19,19l-122 0c-10,0 -19,-8 -19,-19 0,-10 9,-19 19,-19l122 0c11,0 19,9 19,19z"/>
  <path class="fil1" d="M612 148c0,73 -51,133 -113,133 -63,0 -114,-60 -114,-133 0,-74 51,-134 114,-134 62,0 113,60 113,134z"/>
  <path class="fil1" d="M416 163c0,15 -10,27 -22,27 -13,0 -23,-12 -23,-27 0,-15 10,-27 23,-27 12,0 22,12 22,27z"/>
  <path class="fil1" d="M623 163c0,15 -10,27 -23,27 -12,0 -23,-12 -23,-27 0,-15 11,-27 23,-27 13,0 23,12 23,27z"/>
  <path class="fil0" d="M499 148c43,0 86,-1 127,-2 -4,-82 -60,-146 -127,-146 -68,0 -123,64 -128,146 41,1 84,2 128,2z"/>
  <polygon class="fil0" points="635,148 362,148 362,124 635,124 "/>
  <path class="fil2" d="M417 36c0,0 4,5 9,12 2,4 4,8 7,13 2,5 4,11 6,17 2,5 3,11 4,17 0,2 1,5 1,7 0,3 0,5 0,8 0,2 0,4 0,6 0,1 0,3 -1,4 0,3 0,4 0,4 0,0 0,-1 0,-4 -1,-1 -1,-3 -1,-4 0,-2 0,-4 0,-6 -1,-2 -1,-5 -1,-7 -1,-3 -1,-5 -2,-8 0,-2 -1,-5 -2,-8 -1,-3 -2,-5 -2,-8 -2,-6 -4,-11 -6,-16 -2,-5 -4,-10 -6,-14 -2,-4 -3,-7 -4,-9 -1,-3 -2,-4 -2,-4z"/>
  <path class="fil2" d="M582 36c0,0 -1,1 -2,4 -1,2 -3,5 -4,9 -2,4 -4,9 -6,14 -2,5 -4,10 -6,16 -1,3 -2,5 -2,8 -1,3 -2,6 -2,8 -1,3 -1,5 -2,8 0,2 -1,5 -1,7 0,2 0,4 -1,6 0,1 0,3 0,4 0,3 0,4 0,4 0,0 0,-1 -1,-4 0,-1 0,-3 0,-4 0,-2 0,-4 0,-6 -1,-3 0,-5 0,-8 0,-2 0,-5 1,-7 1,-6 2,-12 4,-17 2,-6 4,-12 6,-17 2,-5 5,-9 7,-13 5,-7 9,-12 9,-12z"/>
  <path class="fil2" d="M379 124c0,0 4,0 10,0 7,0 16,-1 27,-1 12,0 25,-1 39,-1 14,0 29,0 44,0 15,0 29,0 43,0 15,0 28,1 39,1 11,0 20,1 27,1 6,0 10,0 10,0 0,0 -4,0 -10,1 -7,0 -16,0 -27,1 -11,0 -24,0 -39,0 -14,0 -28,0 -43,1 -15,-1 -30,-1 -44,-1 -14,0 -27,0 -39,0 -11,-1 -20,-1 -27,-1 -6,-1 -10,-1 -10,-1z"/>
  <path class="fil2" d="M479 2c0,0 0,7 1,18 1,12 1,26 1,41 0,15 0,30 -1,41 -1,11 -1,19 -1,19 0,0 -1,-8 -2,-19 0,-11 -1,-26 -1,-41 0,-15 1,-29 1,-41 1,-11 2,-18 2,-18z"/>
  <path class="fil2" d="M516 2c0,0 1,7 1,18 1,12 1,26 1,41 0,15 0,30 -1,41 0,11 -1,19 -1,19 0,0 -1,-8 -1,-19 -1,-11 -1,-26 -1,-41 0,-15 0,-29 1,-41 0,-11 1,-18 1,-18l0 0z"/>
  <path class="fil1" d="M332 596c-4,18 -4,30 -22,26l-30 -7c-17,-4 -25,-14 -24,-41 2,-54 53,-250 53,-250 4,-19 23,-36 42,-36l43 1c17,4 1,41 -3,60l-59 247z"/>
  <path class="fil1" d="M631 661c-1,38 -13,52 -27,52l-211 0c-13,0 -26,-14 -27,-32l-3 -344c-2,-26 10,-48 28,-48l238 0c17,0 15,22 13,28l-11 344z"/>
  <path class="fil1" d="M631 792c0,25 -20,46 -45,46l-176 0c-25,0 -45,-21 -45,-46l0 -128c0,-25 20,-45 45,-45l176 0c25,0 45,20 45,45l0 128z"/>
  <path class="fil1" d="M364 1345c0,22 18,40 40,40l20 0c22,1 40,-17 41,-39l24 -596c0,-23 -19,-42 -42,-42l-39 -1c-23,0 -42,19 -43,42l-1 596z"/>
  <path class="fil1" d="M430 1329c0,0 -150,40 -154,51 -3,13 4,22 19,22l113 0c1,-5 6,-9 12,-9 6,0 11,4 13,9l15 0c12,0 18,-16 18,-36 0,-21 -16,-37 -36,-37z"/>
  <path class="fil1" d="M632 1345c0,22 -18,40 -40,40l-20 0c-22,1 -40,-17 -40,-39l-25 -596c0,-23 19,-42 42,-42l39 -1c24,0 43,19 43,42l1 596z"/>
  <path class="fil1" d="M566 1329c0,0 150,40 153,51 4,13 -4,22 -18,22l-113 0c-2,-5 -7,-9 -13,-9 -6,0 -11,4 -13,9l-14 0c-12,0 -19,-16 -19,-36 0,-21 17,-37 37,-37z"/>
  <path class="fil1" d="M349 807c5,16 -2,49 -17,50l-25 1c-15,1 -27,-11 -28,-27 -4,-53 -24,-211 -24,-211 -1,-19 -4,-43 6,-77l46 40c18,-1 22,-6 25,13 19,117 -4,142 17,211z"/>
  <path class="fil1" d="M294 829c-5,2 -9,4 -15,5l5 32c1,4 5,7 10,6 4,-1 7,-5 6,-9l-6 -34z"/>
  <path class="fil1" d="M309 822c-5,1 -10,2 -16,2l10 44c1,4 5,7 9,6 4,-1 7,-5 6,-10l-9 -42z"/>
  <path class="fil1" d="M327 819c-5,1 -10,2 -16,3l10 46c1,4 5,7 10,6 4,-1 7,-5 6,-10l-10 -45z"/>
  <path class="fil1" d="M345 815c-5,1 -11,2 -16,4l10 45c1,4 5,7 10,6 4,-1 7,-5 6,-9l-10 -46z"/>
  <path class="fil1" d="M371 826c2,3 2,8 -1,11 -4,3 -9,2 -12,-1l-27 -32c-3,-4 -3,-9 1,-12 3,-3 8,-2 11,1l28 33z"/>
  <path class="fil1" d="M804 470c-52,-35 -187,-97 -187,-97 -16,-11 -53,-28 -42,-43l2 -18c33,-20 55,-29 77,-12 0,0 154,65 192,104 19,19 37,40 21,62 -10,12 -28,28 -63,4z"/>
  <path class="fil0" d="M647 284l-56 0c-20,0 -35,22 -35,50l0 328c0,28 15,50 35,50l20 0c20,0 36,-2 36,-30l0 -398z"/>
  <polygon class="fil3" points="567,608 636,608 636,585 567,585 "/>
  <path class="fil0" d="M359 284l56 0c19,0 35,22 35,50l0 328c0,28 -16,50 -35,50l-20 0c-20,0 -36,-2 -36,-30l0 -398z"/>
  <polygon class="fil3" points="439,608 371,608 371,585 439,585 "/>
  <path class="fil1" d="M967 294c10,-12 39,-29 48,-17l14 20c9,12 5,29 -7,38 -42,33 -127,109 -127,109 -15,11 -45,40 -70,36l24 -19c-10,-15 -56,-14 -40,-33 61,-71 111,-78 158,-134z"/>
  <path class="fil1" d="M1015 321c3,4 7,7 9,12l29 -15c3,-3 5,-8 2,-11 -2,-4 -7,-5 -11,-3l-29 17z"/>
  <path class="fil1" d="M1003 309c3,5 5,10 8,15l37 -24c4,-3 5,-8 3,-11 -3,-4 -8,-5 -12,-3l-36 23z"/>
  <path class="fil1" d="M994 294c3,4 6,9 8,13l40 -25c3,-2 4,-7 2,-11 -2,-4 -7,-5 -11,-2l-39 25z"/>
  <path class="fil1" d="M984 279c3,4 6,8 9,13l39 -25c4,-3 5,-8 3,-11 -3,-4 -8,-5 -12,-3l-39 26z"/>
  <path class="fil1" d="M987 257c3,-4 7,-5 11,-3 4,2 6,7 3,11l-21 37c-2,4 -7,5 -10,3 -4,-2 -6,-7 -3,-11l20 -37z"/>
  <path class="fil0" d="M1091 1323c0,45 -36,81 -81,81 -45,0 -82,-36 -82,-81l0 -361c75,-140 37,-144 82,-144 45,0 9,27 81,144l0 361z"/>
  <path class="fil0" d="M1091 830c0,15 -12,27 -27,27l-109 0c-15,0 -27,-12 -27,-27 0,-15 12,-27 27,-27l109 0c15,0 27,12 27,27z"/>
  <polygon class="fil0" points="1034,425 985,425 985,1010 1034,1010 "/>
  <polygon class="fil0" points="1052,424 1010,462 967,424 987,303 1032,303 "/>
  <path class="fil1" d="M1022 1316c0,7 -5,13 -12,13 -7,0 -13,-6 -13,-13l0 -330c0,-7 6,-13 13,-13 7,0 12,6 12,13l0 330z"/>
 </g>
</svg>
