<?xml version="1.0" encoding="UTF-8"?>
<!DOCTYPE svg PUBLIC "-//W3C//DTD SVG 1.1//EN" "http://www.w3.org/Graphics/SVG/1.1/DTD/svg11.dtd">
<!-- Creator: CorelDRAW X7 -->
<svg xmlns="http://www.w3.org/2000/svg" xml:space="preserve" width="8.2067in" height="5.13698in" version="1.1" style="shape-rendering:geometricPrecision; text-rendering:geometricPrecision; image-rendering:optimizeQuality; fill-rule:evenodd; clip-rule:evenodd"
viewBox="0 0 3609 2259"
 xmlns:xlink="http://www.w3.org/1999/xlink">
 <defs>
  <style type="text/css">
   <![CDATA[
    .fil2 {fill:#FEFEFE;fill-rule:nonzero}
    .fil0 {fill:#D44439;fill-rule:nonzero}
    .fil1 {fill:#292929;fill-rule:nonzero}
   ]]>
  </style>
 </defs>
 <g id="__x0023_Layer_x0020_1">
  <metadata id="CorelCorpID_0Corel-Layer"/>
  <path class="fil0" d="M1774 1740c-32,-62 -331,-585 -568,-997 -20,13 -41,25 -61,37 186,436 422,986 453,1048 52,105 133,170 182,146 49,-25 46,-129 -6,-234z"/>
  <polygon class="fil1" points="1896,539 1731,539 1731,0 1896,0 "/>
  <polygon class="fil1" points="1866,539 1759,539 1759,187 1866,187 "/>
  <polygon class="fil1" points="1416,250 1472,568 1548,555 1492,237 "/>
  <polygon class="fil1" points="1302,619 1191,315 1118,342 1229,646 "/>
  <polygon class="fil1" points="860,870 653,622 593,672 801,920 "/>
  <polygon class="fil1" points="432,841 382,900 629,1108 679,1048 "/>
  <polygon class="fil1" points="2126,568 2182,250 2105,237 2049,555 "/>
  <polygon class="fil1" points="2369,646 2479,342 2406,315 2296,619 "/>
  <polygon class="fil1" points="2945,622 2737,870 2797,920 3004,672 "/>
  <polygon class="fil1" points="3216,900 3166,841 2919,1048 2969,1108 "/>
  <polygon class="fil1" points="1107,722 988,791 762,399 881,330 "/>
  <polygon class="fil1" points="540,1261 459,1401 0,1136 81,996 "/>
  <polygon class="fil1" points="3164,1345 3086,1210 3531,953 3609,1088 "/>
  <polygon class="fil1" points="2616,761 2497,692 2723,301 2843,369 "/>
  <path class="fil1" d="M421 2077l-252 0 0 -111 225 0c11,0 20,-9 20,-20l0 -52c0,-11 -9,-20 -20,-20l-225 0 0 -96 242 0c11,0 20,-9 20,-20l0 -52c0,-11 -9,-20 -20,-20l-321 0c-11,0 -19,9 -19,20l0 443c0,11 8,20 19,20l331 0c11,0 20,-9 20,-20l0 -52c0,-11 -9,-20 -20,-20z"/>
  <path class="fil1" d="M3305 1966l225 0c11,0 20,-9 20,-20l0 -52c0,-11 -9,-20 -20,-20l-225 0 0 -96 242 0c11,0 20,-9 20,-20l0 -52c0,-11 -9,-20 -20,-20l-320 0c-11,0 -20,9 -20,20l0 443c0,11 9,20 20,20l74 0 4 -203z"/>
  <path class="fil1" d="M1556 1993c0,-146 118,-265 265,-265 147,0 265,119 265,265 0,147 -118,266 -265,266 -147,0 -265,-119 -265,-266z"/>
  <path class="fil2" d="M2030 1893c-27,-68 -115,-127 -190,-102 -9,3 -9,3 1,6 54,17 107,62 133,113 29,55 27,113 22,196 -1,12 87,-82 34,-213z"/>
 </g>
</svg>
