<?xml version="1.0" encoding="UTF-8"?>
<!DOCTYPE svg PUBLIC "-//W3C//DTD SVG 1.1//EN" "http://www.w3.org/Graphics/SVG/1.1/DTD/svg11.dtd">
<!-- Creator: CorelDRAW X7 -->
<svg xmlns="http://www.w3.org/2000/svg" xml:space="preserve" width="5.5044in" height="5.5044in" version="1.1" style="shape-rendering:geometricPrecision; text-rendering:geometricPrecision; image-rendering:optimizeQuality; fill-rule:evenodd; clip-rule:evenodd"
viewBox="0 0 77040 77040"
 xmlns:xlink="http://www.w3.org/1999/xlink">
 <defs>
  <style type="text/css">
   <![CDATA[
    .fil0 {fill:#848688}
    .fil1 {fill:#4B4B4D}
   ]]>
  </style>
 </defs>
 <g id="Layer_x0020_1">
  <metadata id="CorelCorpID_0Corel-Layer"/>
  <path class="fil0" d="M42648 34391c-1059,-1058 -2513,-1709 -4128,-1710 -1616,1 -3069,652 -4129,1710 -1058,1060 -1709,2513 -1710,4129 1,1615 652,3069 1710,4128 1060,1058 2513,1710 4129,1710 1615,0 3069,-652 4128,-1710 1058,-1059 1710,-2513 1710,-4128 0,-1616 -652,-3069 -1710,-4129zm26398 12722c-2988,10593 -11340,18945 -21933,21933l-263 -936 263 936c-195,55 -394,82 -589,82 -438,0 -852,-134 -1196,-362 -344,-229 -624,-555 -794,-949 -113,-263 -176,-555 -176,-858l0 -12559c0,-507 75,-999 216,-1464 141,-466 348,-905 605,-1313 515,-818 1226,-1515 2058,-2126 1664,-1217 3823,-2111 6110,-2812 1524,-466 3104,-840 4626,-1143 2028,-403 3953,-676 5492,-858 2054,-243 3423,-323 3438,-324l56 -2c303,0 595,63 858,176 263,114 495,276 689,473 386,394 621,932 622,1517 0,195 -27,394 -82,589l0 0zm-30526 -811c-2146,1 -4098,-872 -5503,-2279 -1407,-1405 -2280,-3357 -2280,-5503 0,-2146 873,-4098 2280,-5503 1405,-1407 3357,-2280 5503,-2280 2146,0 4098,873 5503,2280 1407,1405 2280,3357 2279,5503 1,2146 -872,4098 -2279,5503 -1405,1407 -3357,2280 -5503,2279zm-5839 20657c0,303 -63,596 -176,858 -113,263 -276,495 -473,689 -393,386 -932,621 -1516,622 -196,0 -395,-27 -590,-82 -10592,-2988 -18945,-11340 -21932,-21932 -55,-196 -83,-395 -82,-590 0,-438 133,-852 362,-1196 228,-344 554,-623 949,-794 262,-113 555,-176 857,-176l57 2c17,1 1836,107 4429,447 2593,341 5956,914 9083,1864 2086,636 4067,1435 5667,2488 913,603 1706,1292 2303,2108 318,435 578,906 761,1413 196,540 301,1119 301,1720l0 12559zm-23886 -39420c2233,-6044 6254,-11217 11422,-14881 5168,-3665 11488,-5820 18303,-5820 6815,0 13135,2155 18302,5820 5168,3663 9189,8837 11423,14881 163,441 241,893 240,1335 0,759 -227,1483 -625,2090 -398,608 -968,1104 -1661,1405 -461,201 -976,312 -1515,312l-16334 0c-341,0 -653,-176 -830,-467 -923,-1519 -2221,-2787 -3763,-3673 -1543,-887 -3327,-1393 -5237,-1394 -1910,1 -3694,507 -5237,1394 -1542,886 -2840,2154 -3763,3673 -177,291 -490,467 -831,467l-16334 0c-539,0 -1054,-111 -1515,-312 -461,-200 -869,-488 -1207,-837 -676,-698 -1078,-1645 -1079,-2658 0,-442 78,-895 241,-1336l0 1zm55588 -14882c-6622,-6621 -15760,-10713 -25863,-10713 -10104,0 -19241,4092 -25863,10713 -6621,6622 -10713,15759 -10713,25863 0,10103 4092,19241 10713,25863 6622,6620 15759,10712 25863,10713 10103,-1 19241,-4093 25863,-10713 6620,-6622 10712,-15760 10713,-25863 -1,-10104 -4093,-19241 -10713,-25863z"/>
  <path class="fil1" d="M42648 42648c-1059,1058 -2513,1710 -4128,1710 -1616,0 -3069,-652 -4129,-1710 -1058,-1059 -1709,-2513 -1710,-4128 1,-1616 652,-3069 1710,-4129 1060,-1058 2513,-1709 4129,-1710 1615,1 3069,652 4128,1710 1058,1060 1710,2513 1710,4129 0,1615 -652,3069 -1710,4128zm1375 -9631c-1405,-1407 -3357,-2280 -5503,-2280 -2146,0 -4098,873 -5503,2280 -1407,1405 -2280,3357 -2280,5503 0,2146 873,4098 2280,5503 1405,1407 3357,2280 5503,2279 2146,1 4098,-872 5503,-2279 1407,-1405 2280,-3357 2279,-5503 1,-2146 -872,-4098 -2279,-5503zm23152 13570l0 0c0,0 0,0 0,0 -2800,9935 -10653,17789 -20589,20588l0 0c-23,6 -43,9 -62,9 -54,0 -112,-23 -156,-66 -21,-21 -37,-45 -48,-70 -11,-26 -17,-52 -18,-89l0 -12559c1,-377 64,-723 185,-1059 114,-316 281,-623 503,-927 415,-569 1029,-1122 1804,-1632 1354,-896 3187,-1651 5162,-2251 2964,-902 6244,-1465 8771,-1796 1264,-166 2340,-275 3099,-342 379,-34 678,-57 882,-72 102,-7 180,-12 232,-16 14,0 21,-1 31,-2 30,2 54,7 77,17 37,16 73,45 98,83 26,39 38,80 38,121 0,18 -3,38 -9,63zm1331 -1580c-194,-197 -426,-359 -689,-473 -262,-113 -555,-176 -858,-176l-56 2c-15,1 -1384,81 -3438,324 -1539,182 -3464,456 -5492,858 -1522,303 -3102,677 -4626,1143 -2287,701 -4446,1595 -6110,2812 -832,611 -1543,1308 -2058,2126 -257,408 -464,847 -605,1313 -141,465 -216,957 -216,1464l0 12559c0,303 63,596 176,858 170,394 450,720 794,949 344,228 758,362 1196,362 195,0 394,-27 589,-82l-263 -936 263 936c10593,-2988 18945,-11340 21933,-21933l0 0c55,-195 82,-394 82,-589 -1,-585 -236,-1123 -622,-1517zm-4123 19376c-6622,6620 -15760,10712 -25863,10713 -10104,-1 -19241,-4093 -25863,-10713 -6621,-6622 -10713,-15760 -10713,-25863 0,-10104 4092,-19241 10713,-25863 6622,-6621 15759,-10713 25863,-10713 10103,0 19241,4092 25863,10713 6620,6622 10712,15759 10713,25863 -1,10103 -4093,19241 -10713,25863zm1374 -53101c-6967,-6969 -16603,-11282 -27237,-11282 -10634,-1 -20270,4313 -27238,11282 -6969,6968 -11283,16604 -11282,27238 -1,10634 4313,20270 11282,27237 6968,6970 16604,11283 27238,11283 10634,0 20270,-4313 27237,-11283 6970,-6967 11283,-16603 11283,-27237 0,-10634 -4313,-20270 -11283,-27238zm-35020 55677c0,37 -6,63 -17,89 -16,37 -46,73 -84,98 -38,26 -79,38 -120,38 -19,0 -39,-3 -63,-9 -9935,-2800 -17789,-10653 -20589,-20589 -6,-24 -8,-44 -8,-62 -1,-54 22,-112 65,-156 22,-21 45,-37 71,-48 22,-10 46,-15 77,-17 253,17 1626,109 3562,345 1524,186 3394,461 5334,857 1455,296 2949,660 4362,1101 2120,660 4058,1506 5390,2506 667,498 1180,1029 1515,1572 168,271 293,546 377,829 84,283 128,574 128,887l0 12559zm882 -15692c-597,-816 -1390,-1505 -2303,-2108 -1600,-1053 -3581,-1851 -5667,-2488 -3127,-950 -6490,-1523 -9083,-1864 -2593,-340 -4412,-446 -4429,-447l-57 -2c-302,0 -595,63 -857,176 -395,170 -721,450 -949,794 -229,344 -362,758 -362,1196 -1,195 26,394 82,590 2987,10592 11340,18944 21932,21932 195,55 394,82 590,82 584,-1 1123,-236 1516,-622 197,-194 360,-426 473,-689 113,-263 176,-555 176,-858l0 -12559c0,-601 -105,-1180 -301,-1720 -183,-507 -443,-978 -761,-1413zm-21001 -23054l0 0c2095,-5670 5871,-10530 10724,-13970 4853,-3440 10774,-5460 17178,-5461 6403,1 12325,2021 17178,5461 4852,3440 8628,8300 10723,13970 83,225 120,446 121,661 0,491 -199,962 -532,1306 -166,171 -364,310 -585,406 -222,96 -467,151 -741,151l-15808 0c-1066,-1590 -2485,-2923 -4150,-3881 -1827,-1051 -3950,-1653 -6206,-1652 -2256,-1 -4379,601 -6206,1652 -1666,958 -3084,2291 -4151,3881l-15808 0c-273,0 -519,-55 -740,-151 -332,-144 -612,-385 -809,-686 -197,-301 -308,-657 -308,-1026 0,-215 37,-436 120,-661zm-985 3319c338,349 746,637 1207,837 461,201 976,312 1515,312l16334 0c341,0 654,-176 831,-467 923,-1519 2220,-2787 3763,-3673 1543,-887 3327,-1393 5237,-1394 1910,1 3694,507 5237,1394 1542,886 2840,2154 3763,3673 177,291 489,467 830,467l16334 0c539,0 1054,-111 1515,-312 693,-301 1263,-797 1661,-1405 398,-607 625,-1331 625,-2090 1,-442 -77,-894 -240,-1335 -2234,-6044 -6255,-11217 -11423,-14881 -5167,-3665 -11487,-5820 -18302,-5820 -6815,0 -13135,2155 -18303,5820 -5168,3663 -9189,8837 -11422,14881l0 -1c-163,441 -241,894 -241,1336 1,1013 403,1960 1079,2658z"/>
 </g>
</svg>
