<?xml version="1.0" encoding="UTF-8"?>
<!DOCTYPE svg PUBLIC "-//W3C//DTD SVG 1.1//EN" "http://www.w3.org/Graphics/SVG/1.1/DTD/svg11.dtd">
<!-- Creator: CorelDRAW X7 -->
<svg xmlns="http://www.w3.org/2000/svg" xml:space="preserve" width="0.500976in" height="0.397764in" version="1.1" style="shape-rendering:geometricPrecision; text-rendering:geometricPrecision; image-rendering:optimizeQuality; fill-rule:evenodd; clip-rule:evenodd"
viewBox="0 0 38 30"
 xmlns:xlink="http://www.w3.org/1999/xlink">
 <defs>
  <style type="text/css">
   <![CDATA[
    .fil0 {fill:#74CBF2}
    .fil1 {fill:#777876}
   ]]>
  </style>
 </defs>
 <g id="Layer_x0020_1">
  <metadata id="CorelCorpID_0Corel-Layer"/>
  <path class="fil0" d="M29 12c0,-2 1,-4 3,-4 2,0 4,2 4,4 0,2 -2,4 -4,4 -2,0 -3,-2 -3,-4l0 0zm-2 0c0,-3 2,-5 5,-5 3,0 6,2 6,5 0,3 -3,6 -6,6 -3,0 -5,-3 -5,-6l0 0zm5 4c3,0 4,-2 4,-4 0,-2 -1,-4 -4,-4 -2,0 -4,2 -4,4 0,2 2,4 4,4l0 0z"/>
  <path class="fil1" d="M31 18l-8 8 1 0 0 4 -11 0 0 -4 3 0 11 -11c1,1 3,3 4,3l0 0z"/>
  <path class="fil1" d="M0 6c0,0 1,0 1,0l5 2 3 0 1 -3 -2 -1 -6 0c-1,0 -1,0 -1,0 0,0 0,-1 0,-1 0,0 0,0 0,-1l8 -2c0,0 0,0 0,0l3 3 1 1 0 1 15 4c-1,1 -1,2 -1,3 0,1 0,1 0,1l-15 -3 0 1 -2 0 -4 1c0,0 0,0 0,0 0,0 0,0 0,0l-6 -5c0,0 0,-1 0,-1l0 0z"/>
 </g>
</svg>
