<?xml version="1.0" encoding="UTF-8"?>
<!DOCTYPE svg PUBLIC "-//W3C//DTD SVG 1.1//EN" "http://www.w3.org/Graphics/SVG/1.1/DTD/svg11.dtd">
<!-- Creator: CorelDRAW X7 -->
<svg xmlns="http://www.w3.org/2000/svg" xml:space="preserve" width="4.54527in" height="5.80486in" version="1.1" style="shape-rendering:geometricPrecision; text-rendering:geometricPrecision; image-rendering:optimizeQuality; fill-rule:evenodd; clip-rule:evenodd"
viewBox="0 0 3649 4661"
 xmlns:xlink="http://www.w3.org/1999/xlink">
 <defs>
  <style type="text/css">
   <![CDATA[
    .fil0 {fill:#151716}
    .fil2 {fill:#BF9832}
    .fil1 {fill:#DFB139}
   ]]>
  </style>
 </defs>
 <g id="Layer_x0020_1">
  <metadata id="CorelCorpID_0Corel-Layer"/>
  <path class="fil0" d="M2513 2203l0 -420c-198,-127 -433,-202 -686,-202 -248,0 -479,72 -674,195l0 414c170,-176 409,-285 674,-285 270,0 514,114 686,298z"/>
  <path class="fil1" d="M445 4428l343 151 76 -209 -38 -102 -337 -197c-154,-85 -94,-259 -94,-259l232 -666c93,-233 295,-248 295,-248l1767 0c86,-14 144,-50 184,-96 119,-141 60,-379 60,-379 -111,-401 180,-889 180,-889 267,-605 240,-1357 240,-1357 -8,-199 -97,-176 -97,-176 -93,-14 -114,122 -114,122 -344,1284 -855,1980 -997,2156 -24,30 -38,45 -38,45l-1307 105c-448,46 -587,476 -587,476l-181 686c-174,651 413,837 413,837z"/>
  <path class="fil1" d="M3005 2576c235,100 322,332 332,359l179 683c61,229 24,417 -110,557 -104,110 -232,153 -233,153l-6 2 -245 108 -25 -67 12 -31 303 -178c182,-101 172,-295 141,-384l-233 -669 -1 -2c-53,-135 -137,-212 -213,-256 -27,29 -59,52 -95,70 66,28 157,89 211,225l233 666c0,0 60,174 -94,259l-337 197 -38 102 75 209 343 -151c0,0 587,-186 413,-837l-180 -686c0,0 -108,-332 -438,-444 4,30 7,70 6,115z"/>
  <path class="fil1" d="M1531 2312c-84,-99 -651,-800 -1024,-2189 0,0 -21,-136 -114,-122 0,0 -89,-23 -97,176 0,0 -27,752 240,1357 0,0 271,455 191,847 21,-4 43,-8 67,-10l737 -59z"/>
  <path class="fil2" d="M3119 3107l1 2 233 669c31,89 41,283 -141,384l-303 178 -12 31 25 67 245 -108 6 -2c1,0 129,-43 233,-153 134,-140 171,-328 110,-557l-179 -683c-10,-27 -97,-259 -332,-359 -2,84 -22,185 -88,263 -4,5 -7,9 -11,12 76,44 160,121 213,256z"/>
  <path class="fil2" d="M2681 2793c-1,0 -1,0 -1,0l-1762 0 -4 0c-11,1 -268,24 -384,314l-1 2 -233 669c-31,89 -41,283 141,384l304 178 11 31 -24 67 -246 -108 -5 -2c-1,0 -129,-43 -234,-153 -134,-140 -171,-328 -110,-557l180 -683c11,-33 136,-364 496,-402l1348 -108 5 -5 519 373z"/>
  <path class="fil0" d="M2712 4661l0 -110 164 0c95,0 172,-77 172,-171 0,-95 -77,-172 -172,-172l-164 0 0 -140 -154 0 0 186 0 251 0 156 154 0z"/>
  <path class="fil0" d="M953 4661l0 -110 -164 0c-95,0 -171,-77 -171,-171 0,-95 76,-172 171,-172l164 0 0 -140 154 0 0 186 0 251 0 156 -154 0z"/>
 </g>
</svg>
