<?xml version="1.0" encoding="UTF-8"?>
<!DOCTYPE svg PUBLIC "-//W3C//DTD SVG 1.1//EN" "http://www.w3.org/Graphics/SVG/1.1/DTD/svg11.dtd">
<!-- Creator: CorelDRAW X7 -->
<svg xmlns="http://www.w3.org/2000/svg" xml:space="preserve" width="3.4661in" height="1.60271in" version="1.1" style="shape-rendering:geometricPrecision; text-rendering:geometricPrecision; image-rendering:optimizeQuality; fill-rule:evenodd; clip-rule:evenodd"
viewBox="0 0 2678 1238"
 xmlns:xlink="http://www.w3.org/1999/xlink">
 <defs>
  <style type="text/css">
   <![CDATA[
    .fil1 {fill:#BDBFC1}
    .fil0 {fill:#848688}
    .fil2 {fill:#4B4B4D}
   ]]>
  </style>
 </defs>
 <g id="Layer_x0020_1">
  <metadata id="CorelCorpID_0Corel-Layer"/>
  <path class="fil0" d="M2463 360l0 -312 -121 0 0 635 121 0 0 -125c0,-1 -1,-3 -1,-5l0 -187c0,-2 1,-4 1,-6zm-1498 323l122 0 0 -635 -122 0 0 635z"/>
  <path class="fil1" d="M2510 390l0 139 120 0 0 -139 -120 0zm-1832 56c-51,36 -92,86 -115,145 -13,36 -21,75 -21,115l0 168c0,49 -20,93 -52,125 -32,32 -77,52 -126,52l-316 0 0 139 327 0c1,0 2,0 3,0 64,-3 123,-24 172,-60 49,-35 87,-84 109,-141 14,-36 22,-75 22,-115l0 -168c0,-49 20,-93 52,-125 32,-32 76,-52 125,-52l60 0 0 -139 -60 0c-67,0 -129,21 -180,56zm457 182l1159 0 0 -525 -1159 0 0 525z"/>
  <path class="fil2" d="M2630 529l-120 0 0 -139 120 0 0 139zm-167 -169c0,2 -1,4 -1,6l0 187c0,2 1,4 1,5l0 125 -121 0 0 -635 121 0 0 312zm-169 268l-1159 0 0 -525 1159 0 0 525zm-1207 55l-122 0 0 -635 122 0 0 635zm-169 -154l-60 0c-49,0 -93,20 -125,52 -32,32 -52,76 -52,125l0 168c0,40 -8,79 -22,115 -22,57 -60,106 -109,141 -49,36 -108,57 -172,60 -1,0 -2,0 -3,0l-327 0 0 -139 316 0c49,0 94,-20 126,-52 32,-32 52,-76 52,-125l0 -168c0,-40 8,-79 21,-115 23,-59 64,-109 115,-145 51,-35 113,-56 180,-56l60 0 0 139zm1753 -180c-4,-5 -10,-7 -17,-7l-143 0 0 -318c0,-6 -2,-13 -7,-17 -4,-4 -10,-7 -17,-7l-169 0c-7,0 -13,3 -17,7 -5,4 -7,11 -7,17l0 32 -1159 0 0 -32c0,-6 -3,-13 -7,-17 -5,-4 -11,-7 -17,-7l-169 0c-7,0 -13,3 -17,7 -5,4 -7,11 -7,17l0 318 -60 0c-77,0 -149,24 -208,65 -59,41 -105,99 -131,167 -16,41 -25,86 -25,132l0 168c0,36 -15,68 -38,92 -23,23 -56,37 -92,37l-340 0c-6,0 -13,3 -17,7 -4,5 -7,11 -7,17l0 187c0,7 3,13 7,17 4,5 11,7 17,7l355 0c2,0 3,0 5,0 72,-4 139,-29 194,-69 57,-41 101,-97 126,-163 16,-41 25,-85 25,-132l0 -168c0,-36 14,-68 38,-91 23,-24 56,-38 91,-38l60 0 0 130c0,7 2,13 7,17 4,5 10,7 17,7l169 0c6,0 12,-2 17,-7 4,-4 7,-10 7,-17l0 -31 1159 0 0 31c0,7 2,13 7,17 4,5 10,7 17,7l169 0c7,0 13,-2 17,-7 5,-4 7,-10 7,-17l0 -130 143 0c7,0 13,-3 17,-7 5,-5 7,-11 7,-17l0 -187c0,-7 -2,-13 -7,-17z"/>
 </g>
</svg>
