<?xml version="1.0" encoding="UTF-8"?>
<!DOCTYPE svg PUBLIC "-//W3C//DTD SVG 1.1//EN" "http://www.w3.org/Graphics/SVG/1.1/DTD/svg11.dtd">
<!-- Creator: CorelDRAW X7 -->
<svg xmlns="http://www.w3.org/2000/svg" xml:space="preserve" width="5.84299in" height="2.82952in" version="1.1" style="shape-rendering:geometricPrecision; text-rendering:geometricPrecision; image-rendering:optimizeQuality; fill-rule:evenodd; clip-rule:evenodd"
viewBox="0 0 12954 6273"
 xmlns:xlink="http://www.w3.org/1999/xlink">
 <defs>
  <style type="text/css">
   <![CDATA[
    .fil1 {fill:#FEFEFE;fill-rule:nonzero}
    .fil0 {fill:#4C4C4D;fill-rule:nonzero}
   ]]>
  </style>
 </defs>
 <g id="__x0023_Layer_x0020_1">
  <metadata id="CorelCorpID_0Corel-Layer"/>
  <path class="fil0" d="M2364 3876l-7 108 7 36 -16 23 -110 7 -110 -10 -110 -3 -110 -7 -109 7 -110 10 -110 3 -110 -16 -22 -17 -6 -33 3 -138 9 -138 0 -16 -3 -16 -60 -96 -62 -92 -138 -177 -29 -26 -34 -10 -54 -3 -53 0 -28 -7 -28 -3 -16 6 -10 10 -6 36 0 184 6 30 13 10 13 3 84 -3 82 10 22 6 12 13 13 20 9 59 0 53 -9 95 0 95 -3 95 -3 17 -13 13 -34 13 -110 10 -113 6 -110 -6 -110 -10 -223 13 -223 0 -113 7 -109 -10 -13 -20 6 -33 3 -121 7 -118 -7 -119 13 -118 13 -16 25 3 88 10 87 -3 32 -14 6 -13 3 -19 6 -122 -9 -121 9 -122 7 -121 -13 -244 10 -121 6 -122 -6 -121 -10 -122 3 -36 -3 -19 -9 -4 -176 20 -63 -7 -19 -19 0 -36 -3 -105 0 -211 7 -105 6 -23 16 -16 25 -17 28 -6 216 13 220 0 107 3 110 0 106 4 110 0 217 -14 329 10 104 17 113 23 100 36 101 56 88 62 78 85 60 96 60 98 44 105 18 115 3 115 -9 141 -34 132 -51 125 -78 114 -101 76 -122 72 -16 17 -9 23 0 26 9 20 91 134 98 128 18 17 26 3 109 -6 110 3 35 16 9 13 3 23 10 63 0 42 -6 214zm-1014 -108l0 0 -13 -20 -12 -13 -22 -7 -44 -6 -7 78 0 89 -3 95 -3 36 0 23 -6 30 -10 16 -25 10 -25 4 -44 6 -116 3 -113 10 -122 -6 -107 -10 -217 13 -226 0 -56 3 0 43 -6 33 12 19 110 10 113 -6 223 0 223 -13 110 9 109 7 113 -7 110 -9 35 -14 12 -13 4 -16 3 -95 0 -96 9 -95 0 -52 -9 -59zm-951 -766l0 0 -7 7 0 6 10 4 3 0 3 -4 -3 -6 -6 -7zm84 -702l0 0 7 -14 12 -9 -3 -20 -12 -13 -13 6 -13 0 -12 -3 -10 -7 -9 4 0 10 6 6 16 23 19 13 12 4zm-31 -63l0 0 0 -20 31 0 10 -6 9 -3 -44 -33 -6 13 -3 13 -10 16 13 20zm35 217l0 0 3 -17 12 -3 13 0 15 -3 13 -7 -22 -16 -19 -23 6 -10 -9 -10 -9 7 0 10 -7 13 0 13 -15 3 -7 17 4 16 9 13 13 -3zm-7 -368l0 0 16 3 0 -16 -16 -7 -12 10 3 10 9 0zm13 522l0 0 -3 -6 -7 -4 -6 0 -6 7 3 7 9 3 4 -3 6 -4zm25 -574l0 0 0 -7 -6 -10 -19 0 -16 13 22 10 19 -6zm-28 108l0 0 -7 0 0 16 4 20 12 -16 -3 -17 -6 -3zm3 814l0 0 -10 -9 0 13 7 10 3 -14zm56 -637l0 0 3 -6 -3 -4 -12 -6 -13 10 -9 0 -3 3 -16 -10 -9 10 6 13 15 -3 4 3 6 0 16 3 15 -13zm-53 1097l0 0 -6 3 -3 7 0 7 6 3 6 -3 0 -14 -3 -3zm41 -49l0 0 -13 -10 -6 -16 -13 -10 -6 0 -3 3 9 23 19 13 10 3 6 10 -3 10 6 7 9 0 7 -7 0 -13 -7 -7 -15 -6zm44 -824l0 0 19 -7 9 13 12 10 4 -26 -16 -13 -19 3 -22 3 -16 -3 -15 -7 -19 0 -13 10 3 10 13 3 31 0 29 4zm-51 -454l0 0 -15 30 19 29 6 -29 0 -26 6 -20 -3 -23 -9 16 -7 13 0 7 3 3zm7 148l0 0 -13 3 -9 4 0 10 6 9 13 0 9 7 3 13 16 23 25 13 3 -3 3 -7 -12 -16 -19 -10 -6 -16 -10 -17 -9 -13zm15 834l0 0 -15 -3 -13 10 -9 3 0 13 12 17 16 13 6 6 7 0 6 -6 -6 -10 0 -20 6 -13 -10 -10zm-22 -867l0 0 4 -10 0 -6 -7 -7 -9 4 0 16 6 7 6 -4zm0 283l0 0 13 -7 -6 -13 -10 -3 -9 0 0 3 3 13 9 7zm-3 -102l0 0 19 0 6 -7 -3 -10 -12 -6 -10 3 -3 13 3 7zm13 296l0 0 -6 3 -4 6 4 7 9 0 9 -10 -3 -6 -9 0zm16 -60l0 0 0 10 6 7 12 -17 0 -16 13 -7 9 -13 -37 4 -3 32zm12 -617l0 0 6 -3 4 -7 -7 -6 -9 -4 0 4 -3 3 3 10 6 3zm25 -92l0 0 -6 -7 -6 0 -7 17 -12 23 25 -13 6 -20zm-31 857l0 0 0 13 3 7 3 0 6 -13 -3 -20 -9 13zm3 -732l0 0 3 16 16 10 31 16 35 20 -19 -42 -25 -33 -22 -4 -19 17zm9 184l0 0 -3 16 16 -3 9 -13 -3 -4 -6 -3 -13 7zm10 -345l0 0 6 -7 -6 -13 -3 3 -7 4 4 10 6 3zm97 466l0 0 -12 -10 0 -13 9 -3 19 -3 22 -7 15 0 10 -13 16 -3 18 -7 -3 -33 -15 -36 -13 23 -3 20 -19 33 -3 3 -3 7 -22 -4 -19 0 -25 -19 -32 -10 -18 -30 -16 10 -13 23 19 16 16 14 12 -14 19 7 0 20 -6 19 13 17 15 10 16 -7 3 -10zm-78 -240l0 0 -13 17 16 20 -25 19 31 -3 -9 -53zm15 1354l0 0 -6 -10 -3 -10 -9 16 3 17 0 3 -3 7 3 6 18 0 13 -10 -3 -13 -13 -6zm7 -1442l0 0 6 0 3 -3 -6 -7 -7 0 -6 3 6 4 4 3zm9 134l0 0 0 17 -3 23 -13 23 38 -10 9 -36 0 -7 -12 -13 -19 3zm13 848l0 0 -13 3 -6 10 6 6 9 4 13 -7 6 -6 -9 -7 -6 -3zm6 -348l0 0 3 -4 3 -6 -6 -7 -6 -3 -4 0 0 7 4 9 6 4zm-6 988l0 0 -4 13 4 4 6 0 9 -14 -3 -16 -12 13zm22 -1550l0 0 12 -3 3 -13 -3 -10 -6 -13 -13 10 -6 13 3 9 10 7zm3 46l0 0 -7 3 0 10 7 7 12 16 10 17 3 -4 3 0 -3 -19 -3 -23 -3 -10 -10 0 -9 3zm22 266l0 0 3 -10 -3 -10 -10 -6 -9 3 -6 7 3 13 12 6 10 -3zm6 -194l0 0 -9 13 -10 10 -9 23 15 10 35 -10 6 -36 -9 -20 -19 10zm-3 355l0 0 3 -13 0 -13 -9 -7 -13 7 -3 13 3 13 9 7 10 -7zm0 148l0 0 -16 6 0 30 13 -7 6 -6 6 -13 -9 -10zm6 -361l0 0 -3 9 0 4 3 6 13 -13 -4 -3 -3 -7 -6 4zm6 876l0 0 -6 4 0 13 9 3 13 -6 -6 -7 -10 -7zm57 -289l0 0 -13 -13 -6 0 -31 7 -10 29 19 -9 35 0 6 -14zm-44 -867l0 0 6 -3 3 -6 -12 -20 -7 6 -3 7 0 13 13 3zm9 605l0 0 -6 6 0 7 3 3 10 0 9 -6 0 -10 -6 -4 -10 4zm41 400l0 0 10 -10 -4 -13 -3 -3 -6 3 -13 10 4 17 0 6 -4 13 10 7 9 -10 -3 -10 0 -10zm16 -295l0 0 -10 0 -6 13 -3 16 16 10 -7 -20 10 -9 0 -10zm781 -95l0 0 26 -43 18 -46 13 -53 3 -56 -3 -55 -13 -50 -22 -49 -28 -39 -31 -36 -41 -30 -47 -23 -57 -7 -62 4 -44 3 -41 7 -63 3 -60 -3 -44 -7 -40 -7 -63 -3 -19 7 -13 13 -6 20 -3 19 0 69 -3 49 0 46 -3 69 0 119 3 46 3 69 0 23 9 16 13 10 19 6 63 0 44 4 40 0 63 3 63 -3 44 -10 44 -7 116 -6 47 -17 41 -23 34 -32zm-571 -86l0 0 3 49 0 50 35 0 34 3 16 0 0 -33 3 -69 0 -46 3 -49 0 -89 7 -20 12 -13 19 -6 75 3 85 0 60 3 62 -3 44 0 41 3 35 -3 -3 -7 -22 -29 -26 -26 -28 -23 -28 -13 -38 -4 -56 4 -38 3 -47 6 -69 4 -69 -4 -47 -9 -38 -4 -19 -3 0 53 -3 49 0 49 -3 66 0 108zm97 818l0 0 4 3 75 0 -41 -52 -9 -10 -10 0 -44 -4 -62 0 0 109 50 0 37 3 0 -49zm110 -457l0 0 -3 -3 -12 0 -4 7 -6 0 13 6 15 0 0 -3 -3 -7zm13 -42l0 0 -13 6 0 13 -3 4 3 3 7 3 9 -3 -3 -13 0 -13zm69 249l0 0 -3 -13 -13 -13 0 26 3 4 7 0 3 26 25 10 -10 -20 -12 -20zm0 -49l0 0 6 0 3 -10 -6 -13 -6 3 -3 7 3 10 3 3zm34 -135l0 0 16 -3 10 -23 -19 7 -16 6 -9 -6 -10 -4 6 23 22 0zm13 122l0 0 0 -3 -3 -7 -6 -7 -4 7 4 7 9 3zm31 98l0 0 10 0 0 -13 3 -6 -6 -4 -3 -13 9 -10 9 0 7 -6 -4 -7 -9 0 -12 -13 0 -3 -16 0 -16 3 -12 10 3 20 15 23 22 19zm-15 76l0 0 0 -3 -7 -7 -6 3 -3 4 0 3 6 3 7 0 3 -3zm6 95l0 0 -6 0 -3 7 6 6 6 0 0 -6 -3 -7zm22 -309l0 0 3 0 9 -3 4 -6 -10 -14 -15 -3 -10 10 3 13 -3 10 -6 7 16 0 9 -14zm-22 230l0 0 0 7 3 3 10 3 15 -9 -15 -4 -13 0zm19 -276l0 0 9 0 0 -6 -6 -7 -6 7 3 6zm25 253l0 0 -10 4 -3 9 10 0 9 -9 -3 -4 -3 0zm41 30l0 0 -16 -7 -9 10 -4 23 10 20 12 -3 7 -14 9 -13 13 -6 -13 -4 -9 -6zm59 -289l0 0 13 -7 6 -16 -12 -13 -16 3 -10 7 -9 16 9 7 19 3zm16 52l0 0 -13 -26 -15 -6 -7 16 0 23 4 16 15 0 16 -23zm-31 234l0 0 0 13 9 10 13 -17 3 -20 -16 0 -9 14zm9 184l0 0 -6 3 0 10 3 3 6 -7 0 -6 -3 -3zm16 -273l0 0 -16 -16 0 23 3 16 -3 7 3 3 13 3 9 -3 0 -13 -9 -20zm50 -26l0 0 -9 -7 -7 10 -6 16 -3 20 0 10 3 7 6 -4 7 -10 6 -3 9 -3 13 -7 0 -13 -6 -13 -13 -3zm50 -73l0 0 -9 4 -6 13 -7 6 -12 0 0 14 9 3 10 -10 6 0 9 -7 6 -16 -6 -7zm-28 168l0 0 -3 13 6 7 6 -7 10 -7 -6 -9 -13 3zm19 -99l0 0 -10 0 0 14 7 3 9 -3 3 -4 -3 -6 -6 -4zm15 -446l0 0 10 -13 -3 -20 -7 10 -3 13 -12 3 -3 7 6 6 12 -6zm926 1070l0 0 -9 -62 -3 -23 -10 -13 -34 -17 -41 0 -6 89 0 102 -3 105 0 33 3 26 -3 40 -16 23 -31 16 -35 0 -122 10 -110 -10 -107 -3 -107 -7 -213 17 -82 0 0 39 7 33 22 16 109 17 110 -4 110 -10 110 -6 110 6 110 4 110 10 109 -7 16 -23 -6 -36 6 -108 0 -106 6 -108 0 -43zm-910 -341l0 0 -6 6 -6 10 12 4 13 -4 6 -6 0 -10 -9 -7 -10 7zm22 -302l0 0 -3 0 0 -4 -16 -3 -9 10 6 13 10 17 0 19 22 -23 -10 -29zm-3 -309l0 0 9 -13 7 -13 -22 0 -13 10 3 16 16 0zm-13 483l0 0 -3 6 0 10 13 7 9 0 0 -20 -9 -7 -10 4zm32 75l0 0 -10 -13 -6 -6 -6 0 -3 9 6 10 6 13 7 0 6 -13zm-3 286l0 0 -7 3 0 7 7 3 6 -3 0 -7 -6 -3zm22 -141l0 0 0 -10 -7 -10 -3 13 3 10 4 0 3 -3zm0 -240l0 0 6 0 -3 -7 0 -6 -3 -3 -7 6 0 7 7 3zm0 263l0 0 -7 6 13 20 16 16 3 -29 -25 -13zm37 -976l0 0 -6 -6 -6 -3 -13 13 7 16 0 3 3 0 31 10 22 -23 -19 0 -19 -10zm-15 729l0 0 -10 -3 7 13 0 13 6 7 9 -7 0 -16 -12 -7zm22 -1254l0 0 -4 -16 -6 3 -3 0 -3 16 9 17 7 -20zm22 1609l0 0 -13 0 -13 10 16 3 16 -6 -6 -7zm-7 -266l0 0 3 -10 -3 -6 -3 -4 -6 0 -6 4 3 10 3 6 9 0zm-12 184l0 0 6 16 9 10 7 0 3 -6 -6 -17 -19 -3zm53 -1133l0 0 0 -3 10 -10 -4 -3 0 -7 -12 0 -3 16 -7 7 -12 7 -6 13 3 3 6 0 16 -3 9 -20zm10 1271l0 0 -7 -7 -9 10 -3 17 12 -7 7 -13zm6 66l0 0 -10 0 -6 3 3 7 7 -4 9 -3 -3 -3zm15 -253l0 0 -3 6 0 4 13 3 9 -7 -6 -9 -13 3zm29 -1320l0 0 19 13 0 -20 -13 -13 0 -13 -9 -7 -13 10 -6 20 9 10 13 0zm-16 371l0 0 6 6 13 4 9 -7 -3 -10 -3 -6 -13 -4 -12 7 3 10zm9 -168l0 0 10 0 6 3 6 -3 -3 -3 -15 0 -4 3zm10 1304l0 0 -10 10 0 10 7 10 9 6 10 -6 3 -14 -10 -13 -9 -3zm0 121l0 0 -6 4 -4 3 0 7 7 3 9 -3 3 -4 -3 -6 -6 -4zm3 -279l0 0 0 13 9 7 16 -7 6 -9 -9 -7 -9 0 -13 3zm19 194l0 0 3 20 9 16 10 -10 -6 -16 -16 -10zm31 -56l0 0 -6 -3 -6 0 0 7 9 9 6 -3 0 -6 -3 -4zm16 73l0 0 -6 3 0 10 6 0 3 -4 -3 -6 0 -3zm9 -27l0 0 -3 0 -3 7 0 6 6 4 7 -4 0 -9 -7 -4zm176 -542l0 0 97 -75 98 -132 63 -151 31 -134 12 -161 -3 -122 -15 -98 -10 -23 -56 -95 22 124 3 122 -13 164 -31 131 -63 152 -97 131 -98 79 -113 62 63 89 110 -63zm-129 -962l0 0 -12 3 -10 -6 -3 -10 -9 -3 -6 6 -4 7 7 13 9 3 35 0 12 13 19 4 3 -4 0 -6 -19 -17 -22 -3zm-28 483l0 0 10 -10 0 -13 -10 6 0 17zm54 -204l0 0 -4 -3 0 -7 -6 -3 -9 7 0 13 -13 20 -6 6 -6 3 3 14 12 13 16 -4 9 4 4 -7 0 -3 3 0 0 -17 3 -13 -3 -13 -3 -10zm-32 -338l0 0 6 0 0 -13 -3 -3 -6 0 -3 3 6 13zm6 1540l0 0 -9 0 6 33 7 7 6 0 0 -17 -6 -16 -4 -7zm85 -1021l0 0 -6 0 -3 10 3 6 6 0 3 -6 -3 -10z"/>
  <path class="fil0" d="M2530 2198l-38 -17 -19 -42 3 -105 10 -106 -13 -108 3 -105 19 -33 38 -10 107 -16 110 0 106 10 110 6 323 -10 214 0 107 14 34 9 10 33 9 102 -6 108 6 106 -9 105 -10 39 -31 16 -85 10 -88 -3 -25 -13 -13 6 -12 125 9 125 -3 128 0 378 3 125 3 128 -3 124 0 129 -12 32 6 17 107 6 110 4 40 10 16 29 10 108 -4 109 0 105 -12 105 -13 36 -34 13 -107 7 -110 -10 -107 3 -109 7 -107 0 -107 3 -216 0 -110 7 -107 -7 -38 -20 -12 -36 -7 -108 10 -105 -13 -109 3 -108 16 -36 41 -16 97 3 101 0 12 -17 -3 -32 3 -129 0 -249 3 -125 13 -250 -9 -128 -10 -124 16 -125 0 -128 -19 -10 -38 10 -84 6 -85 -6zm31 -342l0 0 -6 -3 -3 3 0 7 6 6 3 -3 0 -10zm10 138l0 0 -7 0 0 10 4 7 6 0 3 -7 0 -7 -6 -3zm53 -125l0 0 -28 0 -3 7 9 6 13 0 6 10 9 7 -6 -30zm-16 -46l0 0 7 -3 0 -10 -4 -3 -3 3 -3 7 3 3 0 3zm51 10l0 0 0 7 -4 23 0 23 7 13 -10 6 -6 10 19 4 6 -14 -3 -16 -3 -13 3 -13 3 -10 3 -13 -9 -10 -6 3zm6 122l0 0 -16 0 -3 10 3 6 16 0 6 -6 -6 -10zm1180 1885l0 0 -9 -109 -16 -29 -41 -10 -31 0 -3 76 0 108 -13 112 -3 23 -16 36 -12 29 -32 13 -34 14 -22 3 -113 6 -107 -9 -213 9 -110 0 -107 4 -213 0 -101 6 3 40 13 36 37 19 107 7 110 -7 217 0 106 -3 107 0 110 -6 107 -4 110 10 106 -6 35 -14 12 -36 13 -105 0 -105 3 -108zm-1158 -1708l0 0 -3 3 -3 7 3 0 3 3 3 -3 3 -7 0 -3 -6 0zm19 -279l0 0 3 -10 0 -3 -3 -4 -10 4 -3 10 0 3 3 3 10 -3zm201 -63l0 0 6 -6 -3 -10 -7 0 -6 3 -3 -3 -6 0 -29 -10 -28 10 -12 -6 -10 0 0 9 -3 0 -6 10 -3 7 -3 0 0 -10 -10 -7 -31 -19 -3 16 12 10 13 6 3 14 19 13 0 36 -16 16 3 20 -6 0 -3 30 6 19 13 7 12 -7 0 4 6 19 7 17 -10 16 -19 -3 0 -7 -3 -6 7 -7 0 -10 -7 4 -28 19 -3 7 -6 6 -7 4 -6 6 0 4 -6 -4 -3 0 3 -10 -3 -9 0 -4 -4 -13 -6 -13 3 -3 3 -7 19 -20 7 -23 -19 -3 -13 -10 -12 4 -10 9 3 17 13 6 3 -6 9 0 0 13 -9 7 -6 13 0 16 6 13 -6 20 3 16 12 7 -6 3 -3 10 0 3 3 0 10 -6 3 -10 19 0 15 7 22 0 3 6 4 10 15 10 13 3 0 10 3 6 12 -6 7 -16 15 0 7 6 6 3 0 -6 -3 -10 -10 -10 -12 -6 12 -20 7 -23 -22 3 -13 17 -9 9 -13 0 10 -19 15 -23 16 -4 16 -6 9 -10 -6 -13 0 -7 6 -26 -22 -16 -16 -10 -12 19 -19 7 -6 0 6 -13 6 -17 7 -9 -7 -10 0 -13 -6 -10 3 -27 10 -19 12 -7 10 -3 12 3 3 7 3 3 -6 10 0 10 3 6 3 0 10 -6 3 -13 3 -4 3 0 10 4 6 9 3 4 3 -7 7 -6 0 -14zm-183 27l0 0 4 6 0 10 3 10 3 13 9 -20 16 -13 9 4 4 -7 -4 -7 -6 0 -9 -3 -10 0 -3 -13 -9 -3 -13 3 -6 7 0 9 12 4zm26 266l0 0 -4 3 0 3 10 4 12 -4 -9 -6 -9 0zm9 -135l0 0 -6 10 3 7 6 0 10 -4 0 -13 -4 -3 -9 3zm100 -89l0 0 0 14 4 6 9 -3 3 -10 -3 -7 -9 -3 -4 3zm4 457l0 0 -4 3 0 10 7 3 3 0 3 -3 -3 -6 -6 -7zm22 -332l0 0 -4 0 -3 4 3 3 7 3 3 -3 0 -3 -6 -4zm43 -29l0 0 10 -7 12 -6 7 -7 0 -10 -7 -6 -6 0 -3 6 0 7 -3 10 -10 3 -15 10 -6 19 0 4 3 0 12 -10 6 -13zm63 141l0 0 25 -10 -15 -10 -16 0 -9 -6 -13 -7 -6 -6 0 -30 12 -20 7 -23 18 -13 -6 -10 -16 -10 -12 17 -6 10 9 6 -3 17 -16 0 -12 -4 -10 10 -6 10 3 13 9 0 4 -6 9 -4 3 7 3 16 3 14 0 13 13 6 3 10 3 13 22 -3zm-47 171l0 0 6 10 4 -14 -10 -9 0 13zm19 -503l0 0 0 23 6 7 3 6 19 -32 -6 -7 -9 0 -13 -7 -13 10 13 0zm-3 122l0 0 3 13 6 6 7 -6 -7 -10 -9 -3zm25 -151l0 0 3 -7 -3 -3 -9 0 -13 3 9 7 13 0zm-13 1014l0 0 -3 4 -3 6 0 7 6 3 4 -3 3 -7 0 -6 -7 -4zm41 -55l0 0 -15 -10 -7 -17 -12 -13 -7 4 -3 3 10 23 19 13 12 3 3 13 0 10 6 7 10 -4 3 -6 3 -13 -9 -7 -13 -6zm-31 -848l0 0 -3 7 3 3 6 3 6 -6 0 -3 -6 -4 -6 0zm31 536l0 0 -12 -4 -13 13 -9 4 0 13 12 16 19 13 6 7 7 0 3 -10 -7 -10 0 -19 4 -14 -10 -9zm22 -424l0 0 -12 -7 -4 7 -9 10 -12 10 3 0 0 3 12 -3 16 -4 6 -3 0 -13zm6 -95l0 0 -22 -10 -15 3 15 3 22 4zm-12 -59l0 0 12 -4 10 -10 -3 -9 0 -17 3 -6 -3 -10 -3 0 -7 6 -12 10 -13 17 0 9 10 4 6 10zm-3 105l0 0 -7 -7 -6 -10 3 23 35 -6 -13 -10 -12 10zm53 138l0 0 3 0 0 -4 13 -6 -3 -17 -7 4 -6 0 -16 -4 -15 -6 6 26 25 7zm-16 62l0 0 -3 -3 7 -10 -7 -7 -9 7 3 10 -3 3 0 16 6 10 10 0 3 -10 -7 -9 0 -7zm38 -204l0 0 3 -13 -9 -13 -13 0 -6 13 -9 23 -13 27 28 -17 19 -20zm-28 -88l0 0 -10 -10 -6 3 0 20 10 0 6 -13zm19 965l0 0 -3 -10 -7 -9 -6 16 3 20 -3 13 3 6 19 -3 13 -10 -4 -16 -15 -7zm-10 -798l0 0 -3 7 0 6 6 0 7 -3 6 -6 -3 -4 -6 -3 -7 3zm16 -141l0 0 6 -3 0 -17 -9 -10 -6 17 6 13 3 0zm6 453l0 0 -12 4 -3 13 3 6 9 4 13 -7 6 -10 -9 -6 -7 -4zm10 -368l0 0 3 -3 0 -13 -6 7 0 6 3 3zm15 -52l0 0 -3 -3 -9 0 0 6 6 7 3 -4 3 -6zm0 1097l0 0 -6 13 6 3 3 0 10 -13 -3 -16 -10 13zm-3 -959l0 0 3 13 13 -7 6 -6 3 -13 -12 -10 -10 6 -3 17zm44 72l0 0 13 -7 -7 -13 -9 -6 -6 -7 -16 -6 -6 13 6 23 25 3zm3 -154l0 0 -12 23 -13 13 22 -7 3 -29zm3 -40l0 0 7 -3 0 -3 -13 -7 -16 -6 13 16 9 3zm29 322l0 0 -7 0 -31 7 -6 33 19 -10 18 -4 13 0 6 -16 -12 -10zm-32 322l0 0 -6 0 0 16 9 4 7 -4 6 -6 -9 -7 -7 -3zm16 -788l0 0 0 -10 -6 7 0 9 6 -6zm-6 180l0 0 12 4 13 -4 -10 -3 -15 3zm50 -124l0 0 -3 0 -6 3 -19 -10 -19 13 19 3 19 0 12 4 16 -4 -19 -9zm-22 85l0 0 3 -3 0 -4 -3 -3 -6 0 -3 7 3 3 0 3 6 -3zm19 483l0 0 6 -13 -3 -13 -3 0 -6 3 -10 10 0 16 3 3 0 4 -3 13 10 10 9 -10 -6 -13 3 -4 0 -6zm-13 -283l0 0 13 13 -3 -9 -3 -14 9 -9 0 -10 -9 3 -7 10 0 16zm82 -200l0 0 -10 -3 -6 3 -6 7 3 6 9 3 7 -3 9 -3 -6 -10zm430 36l0 0 6 102 -12 115 -4 52 -12 30 -16 30 -28 9 -28 7 -22 7 -91 3 -57 -3 -3 39 9 121 -3 132 0 378 3 124 4 128 -4 128 0 102 29 0 69 4 3 -53 -3 -128 -3 -125 0 -378 3 -128 -10 -124 13 -125 12 -7 26 -3 87 3 85 -10 32 -16 9 -39 9 -89 -6 -105 6 -109 -9 -101 -9 -33 -35 -10 -44 -7 -6 79z"/>
  <path class="fil0" d="M3873 2201l-22 -7 -15 -9 -13 -14 -3 -23 -3 -62 6 -85 0 -66 -3 -62 0 -86 9 -62 7 -23 6 -17 9 -9 22 -7 66 -10 97 13 70 4 69 0 47 -7 119 -7 69 0 94 4 69 3 69 -3 233 0 97 10 69 3 116 -3 60 0 53 6 113 30 107 39 56 17 57 22 100 46 101 63 87 75 76 86 69 98 31 50 35 46 56 105 19 55 16 60 25 121 6 118 -3 59 0 125 -3 122 -19 121 -38 115 -18 56 -38 118 -47 112 -35 49 -40 43 -85 85 -88 79 -97 69 -101 56 -166 59 -113 23 -232 39 -60 4 -69 0 -97 3 -139 -3 -94 6 -138 0 -47 -6 -185 -7 -236 0 -47 7 -47 3 -69 -7 -22 -6 -15 -10 -10 -13 -6 -23 -10 -63 4 -42 6 -43 3 -66 -6 -62 -7 -46 -3 -43 7 -62 9 -23 9 -13 19 -7 22 -6 60 -4 81 20 60 -6 10 -10 -4 -13 -6 -20 -3 -20 -3 -72 -6 -99 -4 -141 0 -243 4 -98 3 -73 0 -72 12 -98 3 -73 0 -72 -3 -98 0 -92 7 -17 0 -13 -13 -7 -57 -6 -40 6 -44 10 -57 -3zm251 2023l0 0 63 -3 166 0 236 6 47 4 47 6 50 0 154 -6 248 0 53 -4 63 -10 173 -29 119 -26 116 -40 119 -52 107 -66 98 -79 87 -85 91 -99 41 -59 54 -121 18 -56 38 -118 22 -60 19 -65 12 -69 10 -128 0 -125 3 -122 0 -69 -6 -59 -13 -65 -22 -82 -25 -53 -31 -53 -22 -32 12 52 16 63 16 128 3 65 -3 125 0 125 -3 69 -7 59 -15 69 -38 125 -38 115 -19 59 -53 121 -41 59 -91 99 -88 85 -97 79 -107 66 -119 52 -116 40 -123 26 -169 30 -66 10 -135 3 -232 0 -94 6 -148 0 -47 -6 -113 -3 -69 -4 -94 -3 -66 0 -63 3 -50 7 -9 0 6 46 6 23 9 13 16 10 22 6 32 4 40 -7zm-113 -368l0 0 0 10 13 10 16 -3 -13 -14 -16 -3zm208 -52l0 0 -32 0 -6 3 3 20 9 13 13 -3 6 -14 13 -6 9 -7 -15 -6zm18 -119l0 0 -6 0 -3 7 3 3 6 4 7 0 3 -7 -3 -3 -7 -4zm98 4l0 0 -22 10 -16 19 -3 13 -10 4 -9 0 -6 6 0 10 6 7 13 0 9 -10 6 -13 7 -17 18 -6 10 -17 0 -3 -3 -3zm116 210l0 0 -10 3 0 10 4 7 3 3 12 -13 -3 -10 -6 0zm157 -164l0 0 3 -17 -10 -10 -6 -13 -9 4 -19 13 -13 16 -6 7 0 10 10 3 9 -7 19 0 12 4 10 -10zm25 216l0 0 -19 0 -3 4 -13 -4 -9 10 9 10 13 -6 6 0 3 3 13 6 12 -3 0 -10 -12 -10zm0 -2085l0 0 3 0 3 -7 -3 -3 -6 0 -3 3 0 7 3 3 3 -3zm41 1704l0 0 -7 -6 -6 3 -3 7 0 3 3 3 6 0 7 -10zm6 244l0 0 -13 13 7 13 12 6 6 -9 0 -7 -3 -13 -9 -3zm22 -1915l0 0 -6 0 -4 6 0 4 4 3 6 0 3 -7 -3 -3 0 -3zm6 1527l0 0 -3 16 -6 14 0 6 9 3 97 7 70 3 229 0 62 -6 57 -10 50 -17 57 -29 47 -36 44 -43 37 -43 35 -49 28 -56 22 -56 31 -118 10 -62 6 -59 3 -63 -3 -62 -9 -56 -13 -56 -16 -56 -18 -55 -22 -56 -25 -50 -35 -46 -38 -42 -44 -36 -50 -33 -53 -26 -50 -14 -57 -6 -59 -3 -60 0 -101 -4 -65 -3 -70 3 -97 13 -9 4 6 6 9 13 4 17 0 115 -4 46 0 69 -3 69 -12 92 -3 69 3 65 3 96 0 295 3 69 3 92 0 69zm10 -1563l0 0 -4 -4 -6 0 -3 7 0 7 3 3 6 -3 0 -4 4 -6zm-4 1803l0 0 10 0 12 -7 -12 0 -10 7zm22 226l0 0 10 20 3 20 0 16 16 3 12 -13 0 -6 -9 -33 -32 -7zm104 -2062l0 0 -19 3 -22 -3 -6 -10 -3 -13 12 -7 0 -13 -3 -6 -9 3 -16 0 -16 -7 -9 0 0 20 9 7 -3 26 25 3 19 0 19 7 41 0 16 -13 -19 0 -16 3zm-66 1021l0 0 3 46 0 299 3 112 3 85 29 0 63 3 0 -315 -4 -95 -3 -66 3 -69 13 -92 3 -69 3 -161 0 -69 -3 -16 -9 -13 -7 -7 10 -3 97 -13 69 -3 66 3 101 3 59 0 60 3 41 7 -13 -13 -34 -30 -41 -29 -44 -20 -41 -10 -47 -6 -53 -4 -63 0 -98 -3 -65 -3 -63 3 -19 3 0 89 -3 46 -3 66 0 79 -13 88 0 174zm16 -988l0 0 -3 -4 -10 7 0 23 10 3 6 -6 -3 -13 0 -10zm106 72l0 0 10 -13 -6 3 -10 3 -6 -6 -9 0 0 6 21 7zm19 2020l0 0 -15 -4 -13 17 9 -3 13 -4 9 7 10 0 0 -10 -13 -3zm51 -2046l0 0 12 6 10 10 3 -23 -19 -3 -10 -3 -9 3 0 10 13 0zm3 42l0 0 3 0 0 -3 -3 -10 -10 0 0 10 10 3zm3 1902l0 0 -13 3 7 13 6 7 16 3 6 -10 -6 -13 -16 -3zm22 -2026l0 0 0 -14 -3 -6 -10 0 13 20zm110 -76l0 0 -7 13 0 10 4 7 9 3 6 0 6 -13 -18 -20zm44 158l0 0 -7 23 -3 19 3 4 19 -20 -12 -26zm9 1767l0 0 -6 3 0 3 15 3 22 -6 -18 -7 -13 4zm31 -1886l0 0 -6 4 -3 3 16 10 3 -10 -10 -7zm117 115l0 0 -4 -3 0 -3 7 -13 -16 -17 -19 4 -3 6 9 7 13 3 -16 0 -3 3 -3 -3 -13 0 -12 -3 -10 -10 0 -7 -3 0 -6 4 0 6 -6 10 -3 10 9 3 13 -6 18 6 7 3 9 17 6 0 4 3 0 3 3 4 3 6 6 17 3 6 7 7 6 -3 0 -7 -6 -53zm-44 1734l0 0 -10 -3 -6 7 3 6 3 4 6 3 7 -3 0 -7 -3 -7zm3 -1589l0 0 6 -7 -9 -6 -4 13 0 20 16 9 -6 -16 -3 -13zm25 1750l0 0 -6 0 -4 4 0 6 10 7 9 0 3 -7 -3 -6 -9 -4zm56 -154l0 0 -6 0 -9 3 -13 0 0 4 -3 6 6 0 0 3 7 4 6 0 9 -4 6 4 4 3 0 3 15 0 -15 -29 -7 3zm-22 79l0 0 -6 3 -3 7 3 3 6 0 4 -3 3 0 3 -7 -3 -3 -7 0zm-3 -132l0 0 3 4 4 -4 0 -6 -4 -7 -3 -3 0 16zm82 92l0 0 25 -6 9 -17 -18 -32 3 -14 0 -13 -3 -16 -16 -7 -10 7 0 10 7 26 6 23 13 13 -13 10 -3 16zm0 -1674l0 0 3 9 6 7 0 3 7 -3 6 0 9 10 0 3 -6 10 -9 10 6 26 12 3 4 -6 -4 -10 4 -7 9 0 12 7 13 3 9 7 10 -7 12 7 10 3 12 -23 4 -23 -16 7 -10 10 -9 6 -31 0 -10 -6 -9 -23 -16 -17 -6 -16 3 -10 -16 0 -9 6 -6 7 3 0 3 7zm25 1711l0 0 -13 6 0 10 10 7 25 -7 3 -10 -9 -6 -16 0zm0 -1787l0 0 3 0 3 3 7 4 9 -7 12 -7 22 27 7 3 9 -3 19 -4 13 -16 -13 0 -9 7 -13 -4 -3 0 -3 -6 -19 -20 -6 -10 -13 -10 -3 0 -6 -6 0 13 6 10 -9 6 -7 7 -3 0 -3 6 0 7zm60 1629l0 0 12 10 3 -30 16 -26 9 0 4 -10 -7 -6 -12 9 -13 0 -12 10 -10 -10 -19 4 -12 13 0 10 3 3 6 3 6 0 0 -3 10 7 6 9 10 7zm-26 10l0 0 -6 0 -3 3 0 7 -3 3 6 6 3 0 3 -3 4 0 0 -3 -4 -7 0 -6zm368 29l0 0 -16 0 -16 4 -9 3 -3 0 -19 10 0 -30 -3 -3 0 -3 -10 -20 -3 6 -6 7 -9 13 -4 30 -6 19 -12 17 -4 -33 0 -33 16 -23 6 -10 7 -13 3 -10 3 -13 -9 0 -10 -3 -3 -3 -19 -27 -19 7 -6 0 -6 3 -7 0 -25 13 0 30 -12 26 -3 3 -7 4 0 -10 -3 -7 0 -3 -3 -20 0 -13 -16 -3 -9 -10 -16 -3 -15 -23 -7 -30 7 -10 0 -9 12 -14 16 -9 16 0 0 16 6 10 9 0 7 -3 0 -7 -7 -13 -3 -3 0 -4 -3 0 19 -3 9 -7 -6 -6 0 -13 -9 -7 0 -13 -13 -3 -9 6 0 10 -7 7 -44 49 -18 7 -19 23 -13 3 -28 0 6 20 25 0 32 6 3 0 3 3 6 0 3 4 19 26 3 7 7 6 -4 0 -3 20 7 6 6 10 -3 0 -3 3 9 33 25 13 19 -6 3 0 3 -10 7 -10 6 0 19 10 22 33 0 3 -4 0 -22 23 -9 0 -6 -3 -3 -7 6 -10 -9 -9 -19 19 0 4 -10 13 -9 16 -3 10 -13 20 -3 6 0 7 -9 3 -7 3 0 -13 -22 -19 -9 -4 -3 -3 -3 0 0 -10 3 -10 15 -33 -6 -29 -25 13 -22 0 -16 10 0 3 -3 7 -6 6 6 7 3 10 22 0 4 -7 0 -6 15 -4 3 13 -3 7 -6 10 0 3 -3 3 0 20 3 7 9 6 10 4 0 13 -3 13 18 13 10 -3 6 -4 13 -3 -7 7 0 3 -3 3 -6 13 13 0 3 -3 6 -13 0 -13 13 -7 37 -13 13 -10 9 -3 6 -7 13 -6 6 3 22 0 19 -6 13 -7 0 -3 3 0 19 -17 6 10 9 0 10 -20 -7 -16 4 -3 0 -4 9 -6 6 -7 7 0 9 -3 22 -16 -6 -4zm-233 56l0 0 13 -6 -3 -14 -3 -3 -10 0 -9 10 -3 13 6 7 9 -7zm4 -1379l0 0 6 -3 -3 -7 -7 3 -3 10 3 -3 4 0zm28 -148l0 0 0 3 9 10 16 0 3 -3 -6 -10 -10 -3 -3 -4 -3 0 -6 -9 -10 0 0 9 10 7zm12 49l0 0 4 -6 -4 -7 -9 -6 -6 3 -3 10 6 10 6 3 6 -7zm-6 109l0 0 6 0 7 -7 0 -3 -3 0 -4 -3 -6 3 0 10zm16 1018l0 0 -3 3 0 36 3 23 9 10 10 -10 15 -6 10 -20 0 -3 -3 -4 0 -3 -13 -7 -9 -3 -13 -13 -3 0 -3 -3zm12 144l0 0 -3 0 -9 4 0 3 -3 3 6 7 3 6 6 -3 3 0 4 -7 0 -6 -7 -7zm32 -26l0 0 6 -7 0 -3 -6 -10 -19 0 -6 -3 -4 -10 -15 3 0 17 12 3 0 3 3 4 13 10 16 -7zm-32 -112l0 0 3 4 0 -4 4 -6 9 3 13 3 9 0 9 -3 -9 -23 -13 -23 -9 10 -6 13 -13 16 3 7 0 3zm47 102l0 0 13 23 3 0 6 -6 0 -20 -9 -20 6 -16 0 -10 3 -10 0 -7 -3 -3 -6 0 -6 -3 -7 0 -6 3 3 3 0 10 7 4 6 9 -6 14 -4 29zm19 -174l0 0 -3 -6 -6 0 -6 19 -4 20 13 -13 6 -20zm0 -49l0 0 13 3 3 -16 -13 -10 -9 10 0 10 6 3zm10 111l0 0 3 -6 -3 -10 -7 3 -3 7 -3 10 3 10 7 -4 3 -10zm3 -978l0 0 16 10 12 -13 -9 -17 -25 -10 3 17 3 13zm147 1077l0 0 0 3 -3 0 -9 27 -3 6 -19 17 -3 0 -41 9 -13 -9 -6 -30 -19 -20 10 -26 -7 -13 -6 6 -9 0 -10 7 -12 10 6 23 3 16 16 -6 9 13 -12 20 -13 16 0 20 3 10 0 9 16 0 3 -6 3 -3 0 -14 3 -13 13 -3 16 10 15 0 13 10 16 -13 25 6 9 -16 16 -27 3 -6 0 -10 3 -13 0 -7 3 -19 -12 9 -7 7zm-116 -273l0 0 -3 -9 -16 -4 -12 13 12 14 16 -7 3 -7zm16 30l0 0 -13 16 -9 14 0 13 -6 13 -3 3 0 7 -7 0 3 3 0 10 4 20 6 -17 6 -6 0 -7 3 -10 0 -13 13 -20 3 -26zm-28 -736l0 0 -7 4 0 9 7 7 3 0 6 7 6 0 3 -7 0 -7 -3 -3 -9 -6 -6 -4zm0 920l0 0 -7 13 7 0 3 3 6 -6 6 -4 0 -6 -3 -3 -12 3zm34 177l0 0 0 -6 -9 0 0 3 -7 3 -6 20 10 -7 12 -13zm6 -1172l0 0 -18 0 0 13 9 -3 9 -10zm13 916l0 0 -13 7 -12 9 25 4 9 -36 0 -20 -12 13 3 23zm-3 -1031l0 0 9 10 7 10 3 -10 6 -13 3 -10 -9 -10 -19 -3 -16 9 3 14 13 3zm41 1077l0 0 0 -26 -19 -4 -6 20 -10 23 -19 20 32 0 22 -33zm-47 -141l0 0 12 10 19 23 25 26 -3 -49 -16 -36 -15 -10 -19 16 -3 20zm15 -522l0 0 -6 6 6 13 16 7 3 -13 -6 -10 -13 -3zm-6 450l0 0 0 9 6 4 3 0 4 -4 0 -6 -4 -3 -6 -4 -3 4zm35 -79l0 0 -4 -10 -6 0 -6 16 -13 30 22 -17 7 -19zm-22 407l0 0 15 -3 19 0 6 -13 4 -10 0 -4 3 0 9 -19 0 -23 -19 6 -25 20 0 3 -3 0 0 4 -3 3 -6 13 -4 0 0 10 4 13zm12 -463l0 0 0 7 6 6 7 -6 -3 -7 -4 -10 -3 3 -3 7zm16 -650l0 0 6 -7 6 -3 4 -3 -10 -10 -12 3 -7 13 7 10 6 -3zm-13 167l0 0 22 0 -12 -16 -10 16zm3 79l0 0 0 3 4 10 9 7 0 -13 -6 -7 -7 0zm32 -322l0 0 -6 -16 -10 -13 -9 6 -3 10 9 10 19 3zm-13 884l0 0 -3 0 -6 3 3 6 3 4 3 0 3 -4 0 -3 -3 -6zm-3 157l0 0 -3 10 3 10 6 39 4 0 3 -3 3 -23 3 -20 3 -6 0 -10 -6 -3 -6 0 -10 6zm28 -62l0 0 7 -13 0 -10 -4 -17 -9 7 -9 16 0 10 6 10 9 -3zm-6 -821l0 0 0 16 19 13 0 -13 6 -13 -3 -13 -9 -10 -10 0 -6 13 3 7zm31 98l0 0 -3 -3 0 -3 7 -23 -13 -20 -16 0 -6 13 -3 3 9 17 16 13 -3 16 6 14 6 0 4 -14 -4 -13zm-9 119l0 0 -6 3 -3 10 6 13 6 -10 0 -13 -3 -3zm25 561l0 0 -12 13 0 13 9 4 6 0 3 -10 -6 -20zm0 -575l0 0 6 10 10 4 3 -4 0 -3 -6 -7 -13 0zm57 -85l0 0 -3 -10 -7 -3 -9 3 -19 3 -9 7 12 10 22 -3 13 -7zm-7 194l0 0 -3 -4 -6 0 -3 4 0 6 3 0 3 4 6 -4 0 -6zm4 33l0 0 -4 6 0 10 7 3 3 -6 0 -7 -6 -6zm72 -40l0 0 -3 0 -7 7 3 6 4 0 6 -3 0 -7 -3 -3z"/>
  <path class="fil0" d="M6482 4050l-98 -3 -69 -13 -25 -4 -16 -3 -12 -13 -6 -20 -10 -62 6 -89 4 -128 3 -85 9 -63 3 -23 10 -16 9 -13 19 -7 47 -3 66 20 44 -4 19 -6 12 -10 7 -17 6 -23 9 -72 3 -98 -3 -145 -9 -98 -3 -145 0 -243 6 -98 3 -145 6 -98 -6 -73 -6 -23 -10 -13 -15 -10 -19 -6 -44 -7 -63 7 -44 -7 -19 -3 -12 -10 -6 -10 -4 -20 -9 -62 -9 -85 0 -125 6 -86 9 -62 3 -23 7 -20 9 -13 22 -6 69 -7 97 20 70 6 166 0 72 4 116 -7 47 -6 189 -4 119 0 119 4 47 0 138 3 51 3 116 3 119 -3 119 0 69 -6 98 -14 69 7 19 7 9 13 6 16 19 138 0 184 3 92 0 184 -16 115 -6 23 -3 19 -12 14 -19 6 -57 10 -81 -7 -60 -3 -57 0 -78 -3 -79 -13 -12 -10 -9 -10 -7 -20 -9 -42 9 -59 3 -43 0 -33 -3 -16 -9 -7 -82 -7 -116 14 -82 6 -197 -6 -82 3 -22 3 -12 13 -10 13 -3 20 0 79 -3 105 9 76 7 23 6 16 12 7 22 6 63 10 47 0 44 -3 66 0 66 -4 44 -3 44 3 88 14 19 6 12 10 6 20 10 62 -10 85 -3 66 3 63 4 85 -7 62 -6 23 -25 27 -22 6 -60 7 -84 -13 -63 -7 -60 3 -41 7 -103 6 -35 4 -28 16 -22 26 -6 33 3 69 3 49 6 46 0 69 3 17 4 13 9 10 13 3 84 -3 113 -7 226 0 60 4 82 0 15 3 13 3 9 0 10 -10 9 -52 -3 -40 -6 -39 9 -56 6 -20 7 -13 15 -6 22 -4 57 -3 78 -3 60 0 97 -10 41 -3 60 6 22 7 15 13 10 16 6 23 6 69 -19 96 -6 72 3 69 7 92 0 72 6 69 6 95 -6 69 -6 23 -10 17 -16 9 -22 7 -69 10 -50 0 -50 -3 -72 -4 -553 0 -100 -10 -69 -3 -72 3 -98 10 -72 0 -169 -3 -145 0 -97 -3 -144 3zm-101 -191l0 0 -9 -13 -13 -3 -3 3 0 4 9 9 16 0zm2087 194l0 0 4 50 -7 68 -6 23 -9 17 -16 10 -22 6 -69 10 -50 0 -51 -3 -72 -3 -552 0 -50 -7 -120 -7 -72 4 -97 10 -195 0 -191 -4 -98 -3 -72 0 -72 3 -47 0 -144 -19 -16 -4 -13 -13 -6 -20 -6 -45 63 0 69 -4 119 4 191 0 51 3 194 0 101 -10 69 -3 113 6 50 7 628 3 53 3 60 0 75 -9 28 -10 22 -10 16 -13 12 -10 10 -13 9 -17 7 -19 6 -33 9 -69 -3 -63 -6 -49 -3 -135 -7 -98 -3 -62 7 -60 9 -46 3 -13 44 4 22 6 16 13 9 17 6 23 7 69 -19 95 -6 72 3 69 6 92 0 72 6 69 3 46zm-2008 -2220l0 0 -3 -3 -13 0 0 3 3 7 6 3 7 -7 0 -3zm50 49l0 0 -3 -29 -16 -10 -6 0 -3 7 9 13 19 19zm0 1941l0 0 9 14 13 -4 6 -13 6 -3 10 -3 -13 -10 -15 3 -4 0 -6 -7 -6 7 0 16zm31 -1924l0 0 3 3 10 0 3 -6 0 -4 -3 -6 -10 3 -3 7 0 3zm0 72l0 0 3 17 19 -14 0 -19 -12 0 -10 16zm28 1731l0 0 -6 -3 -3 0 -3 6 0 3 6 4 6 0 4 -7 -4 -3zm7 -1701l0 0 3 16 9 0 7 -10 6 -13 -16 -6 -9 13zm3 -145l0 0 6 0 3 -3 0 -10 -3 0 -6 3 0 10zm0 36l0 0 6 20 13 7 12 -10 25 -23 29 -23 -41 0 -35 10 -9 19zm85 92l0 0 -22 -16 -22 -10 -13 -13 -22 -7 13 17 6 10 9 0 19 26 32 -7zm-29 -151l0 0 10 13 9 0 10 -3 0 -13 -10 -10 -9 -3 -10 3 0 13zm16 201l0 0 19 3 -9 -17 -13 -3 -9 3 0 7 12 7zm-9 -257l0 0 6 13 9 4 10 -10 0 -7 -6 -3 -10 0 -9 3zm56 138l0 0 -47 -13 10 20 21 -7 4 17 3 13 9 -30zm3 164l0 0 10 -6 6 -7 6 -3 0 -6 3 -4 0 -6 -6 0 -6 3 -3 3 -7 13 -6 10 -16 17 4 -7 3 -3 6 -13 0 -4 3 -3 0 -20 3 -9 -22 13 -22 16 7 10 9 6 9 10 0 7 0 3 0 -3 7 -7 6 -3 6 -7zm0 -78l0 0 -9 0 -6 3 0 7 6 3 9 3 7 -3 0 -7 -7 -6zm0 -138l0 0 7 3 9 -3 19 -4 19 -6 -3 -3 0 -4 -19 -3 -16 -3 -9 0 -7 6 0 17zm0 29l0 0 13 7 19 13 12 20 7 -36 -26 -23 -6 0 -16 3 -3 16zm16 1718l0 0 -6 -3 3 3 3 0zm38 -1517l0 0 9 0 10 -4 6 0 12 -6 -12 -4 -13 0 -6 -3 -9 -3 0 -3 -4 0 -6 3 -3 0 0 6 -3 4 -3 6 -7 0 -6 4 -3 3 -3 0 6 3 10 13 12 -6 0 -10 6 0 7 -3zm-19 -86l0 0 -3 4 -7 13 0 3 -3 3 3 4 4 0 6 -4 6 -10 3 -3 7 -3 9 0 13 -3 12 0 13 -7 15 -10 0 -3 -3 -3 -9 3 -13 0 -19 13 -22 0 -6 3 -6 0zm41 27l0 0 6 -14 0 -3 -6 0 -7 7 -6 3 -3 7 -13 13 -12 6 -3 4 -3 6 6 -3 6 0 3 -7 13 -6 3 -4 16 -9zm-38 -56l0 0 3 0 3 6 3 -10 4 -6 -4 -3 -3 -7 -3 0 -6 3 0 13 3 4zm16 266l0 0 -13 0 -6 3 3 7 9 3 7 -7 0 -6zm6 -270l0 0 6 7 3 10 13 -7 12 -3 19 -7 -3 -6 0 -7 19 -13 6 3 -12 10 -10 17 16 13 13 10 9 -13 16 6 0 17 -7 16 26 20 9 -7 3 -10 -9 -6 0 -7 6 -6 12 0 0 6 13 7 9 -7 0 -13 13 0 3 -13 16 -3 12 -4 -3 -26 -9 -30 -13 20 0 17 -9 13 -6 13 -4 3 -3 -6 -6 -4 -3 0 -10 7 0 6 -12 0 -19 -16 -25 -7 -16 -23 13 7 16 13 6 0 12 3 7 4 6 0 16 -17 0 -16 -19 3 -16 -6 3 -4 0 -6 7 -7 6 -10 3 -6 3 -10 13 -13 -19 -17 3 -6 3 -10 3 -7 3 -10 -59 -23 -19 -6 -25 0 6 10 3 3 0 3 3 0 3 7 29 13 28 30 6 9 3 7 4 3 -13 17 -16 13 -19 3 -18 7 -26 19 -18 4 -16 0 0 19zm113 197l0 0 -16 -9 -37 6 -13 -3 -16 -3 -18 0 -10 13 3 10 69 0 7 -7 9 -3 6 13 16 6 0 -23zm-104 -315l0 0 13 26 19 20 12 -3 10 -3 3 -17 0 -20 -22 -13 -3 -3 -3 0 0 -3 -7 -4 -3 -3 -19 3 0 20zm0 207l0 0 13 0 9 -3 3 -3 0 -7 -3 -3 -6 0 -6 6 -6 4 -4 6zm19 53l0 0 -9 -4 -10 0 0 7 4 10 12 6 3 -3 3 -7 -3 -9zm19 213l0 0 9 -10 -3 -3 -15 0 -4 7 7 6 6 0zm44 -108l0 0 -35 6 -3 33 3 10 7 3 9 -16 0 -17 13 -6 6 -13zm-19 187l0 0 3 3 3 0 7 -13 -7 -16 -9 13 3 13zm79 -141l0 0 -4 -7 -6 -3 -3 3 0 3 3 10 6 0 4 -3 0 -3zm-7 -263l0 0 3 -7 22 -3 0 7 0 3 -3 0 -15 7 -4 0 -3 -7zm41 174l0 0 -3 -13 -9 -7 -10 7 -3 13 3 13 10 3 9 -6 3 -10zm-16 -220l0 0 4 7 6 -14 3 -13 0 -6 -3 -4 -10 10 0 20zm57 151l0 0 -13 3 -9 0 -9 -6 -7 0 0 10 10 3 15 3 13 -13zm-38 1616l0 0 3 3 7 3 3 -3 3 -6 -3 -7 -3 0 -7 3 -3 7zm44 164l0 0 -31 -13 -6 3 -4 7 13 10 16 0 6 3 6 -10zm-12 -443l0 0 6 -13 -13 -7 -9 3 -3 17 3 13 9 -7 7 -6zm-16 -1567l0 0 6 10 10 -3 3 3 19 0 12 -13 0 -3 -12 -4 -10 7 -9 0 -13 -3 -6 6zm9 1931l0 0 -6 7 6 6 7 0 0 -6 -7 -7zm16 -1524l0 0 -6 4 -6 10 0 3 3 3 9 0 6 -6 0 -10 -6 -4zm6 1557l0 0 -3 -6 -3 -4 -6 4 -3 6 3 3 6 4 6 -7zm22 -49l0 0 -15 -10 -19 0 0 3 3 7 16 6 15 -6zm-15 -1626l0 0 3 -6 3 -4 -16 -3 3 13 7 20 25 6 -16 -13 -9 -13zm18 -263l0 0 -9 4 -6 10 6 9 9 4 10 -4 3 -9 -3 -10 -10 -4zm38 1876l0 0 -9 -7 -13 0 -9 7 0 10 9 9 13 -3 9 -3 0 -13zm-28 -63l0 0 3 0 3 -3 0 -13 -6 0 0 16zm25 122l0 0 -6 -3 -10 0 -3 3 0 6 3 4 7 0 6 -4 3 -6zm-16 -1744l0 0 16 0 13 3 9 13 3 -23 -19 -6 -12 -4 -10 4 0 13zm0 1422l0 0 13 13 0 -13 -3 -10 9 -6 -3 -10 -6 0 -7 10 -3 16zm22 -1379l0 0 -6 -10 -9 -4 0 14 9 6 3 0 3 -6zm0 -105l0 0 7 9 3 -3 0 -3 3 -10 -10 0 -3 7zm22 1688l0 0 -3 13 6 13 4 0 6 -3 -3 -14 -10 -9zm3 -1899l0 0 10 10 -3 30 28 3 22 0 22 10 47 0 19 -17 -22 0 -19 4 -22 3 -25 -3 -6 -13 -4 -17 16 -3 0 -17 -6 -9 -10 3 -18 0 -16 -10 -13 0 0 26zm16 188l0 0 3 6 10 -6 0 -10 -7 -4 -6 4 -3 6 3 4zm13 131l0 0 12 -20 -19 -23 -3 26 0 23 6 0 4 -6zm72 -204l0 0 -25 -3 3 10 9 6 0 4 -9 -7 -10 0 0 -3 -6 -3 0 -7 -6 -10 0 -10 6 -6 -3 -4 -6 -3 -10 7 -12 3 -10 3 7 13 12 0 10 20 -4 23 7 7 0 19 -3 20 -4 10 4 7 6 3 3 -7 16 -26 12 -26 0 -13 10 -4 3 -3 0 -20zm-57 237l0 0 -6 -7 -6 0 3 13 9 7 0 -13zm16 1566l0 0 9 0 10 -10 -3 -16 -10 13 -6 13zm16 138l0 0 -3 17 3 9 9 -3 6 -6 4 -14 -10 -9 -9 6zm3 -2066l0 0 12 4 13 -7 13 -3 12 0 -6 -10 -3 -13 -7 -7 7 -9 -19 -7 -16 3 -3 10 6 7 -9 9 0 23zm9 -32l0 0 7 -7 15 0 3 3 -6 7 -19 -3zm13 1881l0 0 3 4 6 -4 3 -9 -3 0 -3 -4 -6 4 0 9zm50 -1750l0 0 -19 -3 -28 19 19 7 12 3 19 -6 -3 -20zm-34 1859l0 0 -4 3 4 7 15 3 16 -13 -16 -7 -15 7zm22 95l0 0 -4 -3 -6 -4 -6 10 0 13 12 -3 4 -13zm652 -979l0 0 -12 151 3 63 3 43 0 19 -28 0 -47 10 -32 17 -22 29 -15 43 -7 46 -12 -4 -41 -6 -63 -7 -59 4 -41 0 -41 -4 -63 4 -37 0 -32 9 -19 17 -6 29 3 46 -50 4 -34 3 0 -36 -7 -53 -6 -42 0 -63 25 -3 60 -3 81 -10 54 -3 53 6 38 7 47 6 15 0 60 -10 35 -6 12 -3 25 -20 19 -20 22 -39 6 -33 10 -72 -6 -148 3 -56 3 -23 34 7 22 3 19 6 13 10 6 20 9 62zm-194 -578l0 0 -7 33 4 69 -38 3 -85 -3 -56 -3 -57 0 -81 3 -22 3 -13 14 -9 13 -3 19 0 63 -51 0 -44 -7 -6 -59 3 -95 0 -56 107 0 56 3 85 4 91 -7 60 -10 50 -3 16 3 0 13zm-440 -190l0 0 -12 -17 -3 17 3 16 3 4 6 -4 3 -16zm-12 1619l0 0 22 20 19 -13 6 -4 0 -6 -22 0 -25 3zm37 -1921l0 0 7 13 12 3 3 -10 -3 -13 3 -6 -3 -7 -12 3 -7 17zm19 98l0 0 -3 -16 -12 16 12 13 3 -13zm10 1839l0 0 9 7 10 0 -7 -10 -12 -3 0 6zm15 -1619l0 0 10 10 9 -13 -12 -3 -3 0 -4 6zm29 -65l0 0 -10 23 -3 6 3 7 7 3 6 0 9 -26 22 13 10 0 9 -10 13 -20 3 -23 -10 10 -6 10 -16 10 -12 -3 -16 -17 -22 -3 13 20zm12 -237l0 0 6 13 19 10 22 -13 -12 -10 -10 -10 -12 -6 -10 6 -3 10zm19 2046l0 0 3 7 13 0 6 -4 -3 -6 -6 -3 -10 0 -3 6zm9 -121l0 0 4 10 6 3 9 -3 3 -10 -6 -10 -3 -10 -9 10 -4 10zm32 -1839l0 0 12 23 10 -27 -22 4zm0 1885l0 0 6 13 19 0 6 -3 6 -7 -6 -7 -25 0 -6 4zm3 -1938l0 0 9 16 -3 4 25 0 22 -10 13 13 16 0 6 -7 -13 -13 -22 0 -19 -23 -28 7 -6 13zm53 2023l0 0 -15 0 -10 -10 -9 0 0 13 15 7 10 -3 9 -7zm-22 -266l0 0 3 3 7 4 6 -7 -3 -7 -6 -3 -4 3 -3 7zm22 214l0 0 10 6 6 0 9 -3 7 -10 -7 -3 -6 -7 -12 7 -7 10zm32 52l0 0 -3 -7 -7 0 -3 4 -6 3 12 7 7 -7zm6 -1964l0 0 -9 3 3 10 9 7 10 -7 12 -3 3 -7 -12 -9 -16 6zm19 49l0 0 -10 -6 -12 3 0 10 12 0 10 -7zm-16 -121l0 0 16 -10 9 -26 0 -17 -12 -3 -7 7 0 13 -6 19 0 17zm47 1974l0 0 13 0 3 -13 -9 -10 -7 3 0 20zm19 -1925l0 0 13 -3 6 -10 0 -3 -3 -4 -10 10 -6 10zm22 36l0 0 -13 -3 -6 3 3 7 10 10 12 -4 -6 -13zm9 92l0 0 -12 4 -6 16 3 10 15 -3 13 -17 -13 -10zm-18 1688l0 0 6 17 16 13 6 -13 -3 -13 -13 -7 -12 3zm56 207l0 0 -6 -13 -28 0 -16 -10 6 30 25 6 3 0 4 -3 12 -10zm-44 -272l0 0 10 13 3 13 0 13 9 -7 13 -3 9 -10 0 -13 -16 -16 -22 0 -6 10zm10 -89l0 0 12 6 3 -3 -3 -6 -6 -4 -6 7zm59 266l0 0 -12 -13 -16 -13 -6 -7 -7 0 -3 10 7 7 0 9 -7 20 13 10 12 3 10 -10 9 -3 0 -13zm-22 46l0 0 -6 -3 -3 -4 -10 0 -3 10 3 7 7 0 6 -4 6 -6zm0 -115l0 0 -6 7 -6 9 6 7 6 3 19 0 22 -3 -31 -16 -3 -7 -7 0zm19 -128l0 0 13 -10 6 -10 -6 -3 -4 0 -9 6 0 17zm9 10l0 0 -6 10 3 9 3 4 4 -4 3 -9 -7 -10zm16 276l0 0 -6 -10 0 -10 3 -13 -6 -7 -10 7 3 10 -3 3 0 20 10 9 9 0 0 -9zm10 -2023l0 0 3 3 6 3 3 -3 0 -10 -6 -3 -6 3 0 7zm0 1720l0 0 3 4 6 -4 3 -6 0 -7 -3 0 -9 4 0 9zm28 -1809l0 0 6 3 6 -6 -3 -7 -3 -3 -6 0 0 13zm16 89l0 0 3 6 12 0 3 -3 -3 -7 -9 -3 -3 0 -3 7zm0 1783l0 0 9 6 6 4 10 0 12 3 0 13 -3 7 0 10 6 0 3 -4 19 -6 7 0 3 -13 6 -14 0 -16 -16 -7 -28 0 -25 7 -9 10zm75 187l0 0 -10 -13 -18 -13 -16 -10 -6 16 9 27 25 3 16 -10zm-41 -246l0 0 22 3 22 -3 13 6 18 -3 -12 -7 -10 -6 -3 3 -6 0 -22 -10 -22 17zm82 279l0 0 -3 -17 -7 -13 -12 4 -10 16 -3 16 10 10 18 -3 7 -13zm3 -200l0 0 0 -7 -10 -3 -9 10 19 0zm16 62l0 0 -4 -10 -12 -6 -6 -20 -10 16 3 13 0 4 -3 10 6 6 13 -3 13 -10zm-19 -105l0 0 3 6 6 4 6 0 4 -7 -7 -6 -6 -4 -6 0 0 7zm25 128l0 0 6 7 6 -4 3 -6 -3 -4 -6 0 0 4 -6 3zm354 -1228l0 0 38 -17 13 -13 6 -20 9 -32 4 -27 3 -29 15 -115 0 -118 -3 -119 0 -223 44 3 19 7 9 13 7 16 19 138 0 184 3 161 0 69 -7 95 -9 56 -6 23 -3 20 -13 13 -19 7 -56 10 -198 0 -79 -4 -78 -13 -13 -10 -9 -10 -6 -19 -10 -46 79 0 138 10 72 -10 31 0zm-295 1212l0 0 10 19 6 -19 6 -17 7 -3 9 -7 -19 -6 -12 16 -7 17zm76 -106l0 0 3 0 3 4 3 0 6 -4 7 -6 0 -13 -10 6 -12 13zm25 10l0 0 -6 4 -4 13 13 3 9 10 0 -10 4 -7 -7 -3 -6 -6 3 -4 -6 0z"/>
  <path class="fil0" d="M10785 3876l-6 108 6 36 -16 23 -110 7 -110 -10 -109 -3 -110 -7 -110 7 -110 10 -110 3 -110 -16 -22 -17 -6 -33 3 -138 10 -138 0 -16 -4 -16 -59 -96 -63 -92 -138 -177 -28 -26 -35 -10 -53 -3 -54 0 -28 -7 -28 -3 -16 6 -9 10 -6 36 0 184 6 30 12 10 13 3 85 -3 81 10 22 6 13 13 12 20 10 59 0 53 -10 95 0 95 -3 95 -3 17 -12 13 -35 13 -110 10 -113 6 -110 -6 -110 -10 -222 13 -223 0 -113 7 -110 -10 -13 -20 7 -33 3 -121 6 -118 -6 -119 12 -118 13 -16 25 3 88 10 88 -3 31 -14 6 -13 4 -19 6 -122 -10 -121 10 -122 6 -121 -12 -244 9 -121 6 -122 -6 -121 -9 -122 3 -36 -3 -19 -10 -4 -176 20 -62 -7 -19 -19 0 -36 -3 -105 0 -211 6 -105 6 -23 16 -16 25 -17 28 -6 217 13 220 0 106 3 110 0 107 4 110 0 216 -14 330 10 103 17 113 23 101 36 100 56 88 62 79 85 59 96 60 98 44 105 19 115 3 115 -10 141 -34 132 -50 125 -79 114 -100 76 -123 72 -15 17 -10 23 0 26 10 20 91 134 97 128 19 17 25 3 110 -6 110 3 34 16 10 13 3 23 9 63 0 42 -6 214zm-1014 -108l0 0 -13 -20 -12 -13 -22 -7 -44 -6 -6 78 0 89 -3 95 -4 36 0 23 -6 30 -9 16 -25 10 -25 4 -44 6 -117 3 -113 10 -122 -6 -107 -10 -216 13 -226 0 -57 3 0 43 -6 33 13 19 109 10 113 -6 223 0 223 -13 110 9 110 7 113 -7 110 -9 34 -14 13 -13 3 -16 3 -95 0 -96 9 -95 0 -52 -9 -59zm-951 -766l0 0 -6 7 0 6 9 4 3 0 3 -4 -3 -6 -6 -7zm85 -702l0 0 6 -14 13 -9 -4 -20 -12 -13 -13 6 -12 0 -13 -3 -9 -7 -10 4 0 10 7 6 15 23 19 13 13 4zm-32 -63l0 0 0 -20 32 0 9 -6 10 -3 -44 -33 -7 13 -3 13 -9 16 12 20zm35 217l0 0 3 -17 13 -3 12 0 16 -3 12 -7 -22 -16 -18 -23 6 -10 -10 -10 -9 7 0 10 -6 13 0 13 -16 3 -6 17 3 16 9 13 13 -3zm-6 -368l0 0 15 3 0 -16 -15 -7 -13 10 3 10 10 0zm12 522l0 0 -3 -6 -6 -4 -7 0 -6 7 3 7 10 3 3 -3 6 -4zm25 -574l0 0 0 -7 -6 -10 -19 0 -16 13 22 10 19 -6zm-28 108l0 0 -6 0 0 16 3 20 12 -16 -3 -17 -6 -3zm3 814l0 0 -9 -9 0 13 6 10 3 -14zm57 -637l0 0 3 -6 -3 -4 -13 -6 -12 10 -10 0 -3 3 -16 -10 -9 10 6 13 16 -3 3 3 6 0 16 3 16 -13zm-54 1097l0 0 -6 3 -3 7 0 7 6 3 6 -3 0 -14 -3 -3zm41 -49l0 0 -12 -10 -7 -16 -12 -10 -7 0 -3 3 10 23 19 13 9 3 6 10 -3 10 6 7 10 0 6 -7 0 -13 -6 -7 -16 -6zm44 -824l0 0 19 -7 9 13 13 10 3 -26 -16 -13 -19 3 -22 3 -15 -3 -16 -7 -19 0 -12 10 3 10 12 3 32 0 28 4zm-50 -454l0 0 -16 30 19 29 6 -29 0 -26 7 -20 -4 -23 -9 16 -6 13 0 7 3 3zm6 148l0 0 -12 3 -10 4 0 10 6 9 13 0 9 7 4 13 15 23 25 13 3 -3 4 -7 -13 -16 -19 -10 -6 -16 -9 -17 -10 -13zm16 834l0 0 -16 -3 -12 10 -10 3 0 13 13 17 15 13 7 6 6 0 6 -6 -6 -10 0 -20 6 -13 -9 -10zm-22 -867l0 0 3 -10 0 -6 -6 -7 -10 4 0 16 7 7 6 -4zm0 283l0 0 12 -7 -6 -13 -9 -3 -10 0 0 3 3 13 10 7zm-3 -102l0 0 19 0 6 -7 -3 -10 -13 -6 -9 3 -3 13 3 7zm12 296l0 0 -6 3 -3 6 3 7 9 0 10 -10 -3 -6 -10 0zm16 -60l0 0 0 10 6 7 13 -17 0 -16 12 -7 10 -13 -38 4 -3 32zm12 -617l0 0 7 -3 3 -7 -6 -6 -10 -4 0 4 -3 3 3 10 6 3zm26 -92l0 0 -7 -7 -6 0 -6 17 -13 23 25 -13 7 -20zm-32 857l0 0 0 13 3 7 3 0 7 -13 -3 -20 -10 13zm3 -732l0 0 3 16 16 10 32 16 34 20 -19 -42 -25 -33 -22 -4 -19 17zm10 184l0 0 -3 16 15 -3 10 -13 -3 -4 -7 -3 -12 7zm9 -345l0 0 6 -7 -6 -13 -3 3 -6 4 3 10 6 3zm97 466l0 0 -12 -10 0 -13 9 -3 19 -3 22 -7 16 0 9 -13 16 -3 19 -7 -3 -33 -16 -36 -13 23 -3 20 -19 33 -3 3 -3 7 -22 -4 -19 0 -25 -19 -31 -10 -19 -30 -16 10 -12 23 19 16 15 14 13 -14 19 7 0 20 -7 19 13 17 16 10 15 -7 3 -10zm-78 -240l0 0 -13 17 16 20 -25 19 31 -3 -9 -53zm16 1354l0 0 -7 -10 -3 -10 -9 16 3 17 0 3 -3 7 3 6 19 0 12 -10 -3 -13 -12 -6zm6 -1442l0 0 6 0 3 -3 -6 -7 -6 0 -6 3 6 4 3 3zm9 134l0 0 0 17 -3 23 -12 23 37 -10 10 -36 0 -7 -13 -13 -19 3zm13 848l0 0 -13 3 -6 10 6 6 10 4 12 -7 7 -6 -10 -7 -6 -3zm6 -348l0 0 3 -4 3 -6 -6 -7 -6 -3 -3 0 0 7 3 9 6 4zm-6 988l0 0 -3 13 3 4 6 0 10 -14 -4 -16 -12 13zm22 -1550l0 0 12 -3 4 -13 -4 -10 -6 -13 -12 10 -7 13 3 9 10 7zm3 46l0 0 -6 3 0 10 6 7 13 16 9 17 3 -4 3 0 -3 -19 -3 -23 -3 -10 -10 0 -9 3zm22 266l0 0 3 -10 -3 -10 -9 -6 -10 3 -6 7 3 13 13 6 9 -3zm6 -194l0 0 -9 13 -10 10 -9 23 16 10 34 -10 7 -36 -10 -20 -19 10zm-3 355l0 0 3 -13 0 -13 -9 -7 -13 7 -3 13 3 13 10 7 9 -7zm0 148l0 0 -16 6 0 30 13 -7 6 -6 7 -13 -10 -10zm6 -361l0 0 -3 9 0 4 3 6 13 -13 -3 -3 -3 -7 -7 4zm7 876l0 0 -7 4 0 13 10 3 12 -6 -6 -7 -9 -7zm56 -289l0 0 -12 -13 -7 0 -31 7 -9 29 18 -9 35 0 6 -14zm-44 -867l0 0 7 -3 3 -6 -13 -20 -6 6 -3 7 0 13 12 3zm10 605l0 0 -7 6 0 7 4 3 9 0 9 -6 0 -10 -6 -4 -9 4zm40 400l0 0 10 -10 -3 -13 -3 -3 -7 3 -12 10 3 17 0 6 -3 13 9 7 10 -10 -4 -10 0 -10zm16 -295l0 0 -9 0 -7 13 -3 16 16 10 -6 -20 9 -9 0 -10zm782 -95l0 0 25 -43 19 -46 12 -53 3 -56 -3 -55 -12 -50 -22 -49 -29 -39 -31 -36 -41 -30 -47 -23 -56 -7 -63 4 -44 3 -41 7 -63 3 -59 -3 -44 -7 -41 -7 -63 -3 -19 7 -12 13 -6 20 -4 19 0 69 -3 49 0 46 -3 69 0 119 3 46 3 69 0 23 10 16 12 10 19 6 63 0 44 4 41 0 63 3 62 -3 44 -10 44 -7 116 -6 47 -17 41 -23 35 -32zm-572 -86l0 0 4 49 0 50 34 0 35 3 15 0 0 -33 4 -69 0 -46 3 -49 0 -89 6 -20 12 -13 19 -6 76 3 84 0 60 3 63 -3 44 0 41 3 34 -3 -3 -7 -22 -29 -25 -26 -28 -23 -29 -13 -37 -4 -57 4 -37 3 -48 6 -69 4 -69 -4 -47 -9 -37 -4 -19 -3 0 53 -3 49 0 49 -4 66 0 108zm98 818l0 0 3 3 75 0 -41 -52 -9 -10 -9 0 -44 -4 -63 0 0 109 50 0 38 3 0 -49zm110 -457l0 0 -3 -3 -13 0 -3 7 -6 0 12 6 16 0 0 -3 -3 -7zm12 -42l0 0 -12 6 0 13 -3 4 3 3 6 3 9 -3 -3 -13 0 -13zm69 249l0 0 -3 -13 -12 -13 0 26 3 4 6 0 3 26 25 10 -9 -20 -13 -20zm0 -49l0 0 7 0 3 -10 -7 -13 -6 3 -3 7 3 10 3 3zm35 -135l0 0 15 -3 10 -23 -19 7 -16 6 -9 -6 -9 -4 6 23 22 0zm12 122l0 0 0 -3 -3 -7 -6 -7 -3 7 3 7 9 3zm32 98l0 0 9 0 0 -13 3 -6 -6 -4 -3 -13 9 -10 10 0 6 -6 -3 -7 -10 0 -12 -13 0 -3 -16 0 -16 3 -12 10 3 20 16 23 22 19zm-16 76l0 0 0 -3 -6 -7 -7 3 -3 4 0 3 7 3 6 0 3 -3zm6 95l0 0 -6 0 -3 7 6 6 6 0 0 -6 -3 -7zm22 -309l0 0 3 0 10 -3 3 -6 -9 -14 -16 -3 -10 10 4 13 -4 10 -6 7 16 0 9 -14zm-22 230l0 0 0 7 3 3 10 3 16 -9 -16 -4 -13 0zm19 -276l0 0 10 0 0 -6 -7 -7 -6 7 3 6zm25 253l0 0 -9 4 -3 9 9 0 10 -9 -4 -4 -3 0zm41 30l0 0 -16 -7 -9 10 -3 23 9 20 13 -3 6 -14 9 -13 13 -6 -13 -4 -9 -6zm60 -289l0 0 12 -7 7 -16 -13 -13 -16 3 -9 7 -10 16 10 7 19 3zm15 52l0 0 -12 -26 -16 -6 -6 16 0 23 3 16 16 0 15 -23zm-31 234l0 0 0 13 9 10 13 -17 3 -20 -16 0 -9 14zm9 184l0 0 -6 3 0 10 3 3 7 -7 0 -6 -4 -3zm16 -273l0 0 -16 -16 0 23 4 16 -4 7 4 3 12 3 10 -3 0 -13 -10 -20zm50 -26l0 0 -9 -7 -6 10 -7 16 -3 20 0 10 3 7 7 -4 6 -10 6 -3 10 -3 12 -7 0 -13 -6 -13 -13 -3zm51 -73l0 0 -10 4 -6 13 -6 6 -13 0 0 14 9 3 10 -10 6 0 10 -7 6 -16 -6 -7zm-29 168l0 0 -3 13 6 7 7 -7 9 -7 -6 -9 -13 3zm19 -99l0 0 -9 0 0 14 6 3 9 -3 4 -4 -4 -6 -6 -4zm16 -446l0 0 9 -13 -3 -20 -6 10 -3 13 -13 3 -3 7 6 6 13 -6zm926 1070l0 0 -10 -62 -3 -23 -9 -13 -35 -17 -41 0 -6 89 0 102 -3 105 0 33 3 26 -3 40 -16 23 -31 16 -35 0 -122 10 -110 -10 -107 -3 -106 -7 -214 17 -81 0 0 39 6 33 22 16 110 17 110 -4 110 -10 109 -6 110 6 110 4 110 10 110 -7 15 -23 -6 -36 6 -108 0 -106 7 -108 0 -43zm-910 -341l0 0 -7 6 -6 10 13 4 12 -4 6 -6 0 -10 -9 -7 -9 7zm22 -302l0 0 -4 0 0 -4 -15 -3 -10 10 7 13 9 17 0 19 22 -23 -9 -29zm-4 -309l0 0 10 -13 6 -13 -22 0 -12 10 3 16 15 0zm-12 483l0 0 -3 6 0 10 12 7 10 0 0 -20 -10 -7 -9 4zm31 75l0 0 -9 -13 -6 -6 -7 0 -3 9 6 10 7 13 6 0 6 -13zm-3 286l0 0 -6 3 0 7 6 3 6 -3 0 -7 -6 -3zm22 -141l0 0 0 -10 -6 -10 -3 13 3 10 3 0 3 -3zm0 -240l0 0 6 0 -3 -7 0 -6 -3 -3 -6 6 0 7 6 3zm0 263l0 0 -6 6 12 20 16 16 3 -29 -25 -13zm38 -976l0 0 -7 -6 -6 -3 -12 13 6 16 0 3 3 0 31 10 22 -23 -18 0 -19 -10zm-16 729l0 0 -9 -3 6 13 0 13 6 7 10 -7 0 -16 -13 -7zm22 -1254l0 0 -3 -16 -6 3 -4 0 -3 16 10 17 6 -20zm22 1609l0 0 -13 0 -12 10 16 3 15 -6 -6 -7zm-6 -266l0 0 3 -10 -3 -6 -3 -4 -7 0 -6 4 3 10 3 6 10 0zm-13 184l0 0 6 16 10 10 6 0 3 -6 -6 -17 -19 -3zm53 -1133l0 0 0 -3 10 -10 -3 -3 0 -7 -13 0 -3 16 -6 7 -13 7 -6 13 3 3 6 0 16 -3 9 -20zm10 1271l0 0 -6 -7 -10 10 -3 17 13 -7 6 -13zm6 66l0 0 -9 0 -7 3 4 7 6 -4 9 -3 -3 -3zm16 -253l0 0 -3 6 0 4 12 3 10 -7 -7 -9 -12 3zm28 -1320l0 0 19 13 0 -20 -13 -13 0 -13 -9 -7 -13 10 -6 20 10 10 12 0zm-16 371l0 0 7 6 12 4 10 -7 -3 -10 -4 -6 -12 -4 -13 7 3 10zm10 -168l0 0 9 0 7 3 6 -3 -3 -3 -16 0 -3 3zm9 1304l0 0 -9 10 0 10 6 10 10 6 9 -6 3 -14 -9 -13 -10 -3zm0 121l0 0 -6 4 -3 3 0 7 6 3 10 -3 3 -4 -3 -6 -7 -4zm3 -279l0 0 0 13 10 7 15 -7 7 -9 -10 -7 -9 0 -13 3zm19 194l0 0 3 20 10 16 9 -10 -6 -16 -16 -10zm32 -56l0 0 -7 -3 -6 0 0 7 9 9 7 -3 0 -6 -3 -4zm15 73l0 0 -6 3 0 10 6 0 3 -4 -3 -6 0 -3zm10 -27l0 0 -3 0 -4 7 0 6 7 4 6 -4 0 -9 -6 -4zm175 -542l0 0 98 -75 97 -132 63 -151 31 -134 13 -161 -3 -122 -16 -98 -9 -23 -57 -95 22 124 3 122 -12 164 -32 131 -63 152 -97 131 -97 79 -113 62 63 89 109 -63zm-128 -962l0 0 -13 3 -9 -6 -3 -10 -10 -3 -6 6 -3 7 6 13 10 3 34 0 13 13 18 4 4 -4 0 -6 -19 -17 -22 -3zm-28 483l0 0 9 -10 0 -13 -9 6 0 17zm53 -204l0 0 -3 -3 0 -7 -7 -3 -9 7 0 13 -12 20 -7 6 -6 3 3 14 13 13 15 -4 10 4 3 -7 0 -3 3 0 0 -17 3 -13 -3 -13 -3 -10zm-31 -338l0 0 6 0 0 -13 -3 -3 -7 0 -3 3 7 13zm6 1540l0 0 -10 0 7 33 6 7 6 0 0 -17 -6 -16 -3 -7zm85 -1021l0 0 -7 0 -3 10 3 6 7 0 3 -6 -3 -10z"/>
  <path class="fil0" d="M12674 1932l4 56 6 105 3 82 0 75 -9 105 -13 76 -3 20 -3 3 -10 3 -15 0 -69 3 -167 0 -69 4 -94 6 -69 -10 -22 -6 -9 -7 -7 -16 -6 -23 -9 -46 0 -115 -4 -16 -9 -10 -16 -10 -12 -7 -60 -10 -125 -13 -69 0 -98 4 -53 9 -47 20 -47 26 -41 33 -28 43 -10 56 10 62 34 56 47 36 63 26 50 10 120 7 178 16 161 30 109 26 104 36 97 46 50 30 48 33 78 75 35 43 59 88 44 106 19 52 19 112 3 59 -3 66 -22 118 -22 56 -44 115 -25 52 -35 49 -84 82 -101 66 -103 56 -110 46 -110 33 -119 23 -57 6 -116 -3 -60 -3 -66 3 -125 3 -60 -3 -66 -10 -119 -36 -57 -20 -59 -16 -123 -43 -56 -26 -151 -112 -53 -42 -6 -17 -4 -23 -3 -72 -3 -141 -6 -161 -3 -99 9 -23 25 -32 29 -27 22 -10 65 0 44 4 47 6 66 0 63 -3 44 -7 41 -6 63 6 19 7 9 13 6 17 6 19 10 56 0 36 -6 92 3 13 9 17 16 10 12 6 38 10 88 20 47 6 88 7 151 0 62 3 57 -6 53 -10 54 -30 40 -43 26 -52 12 -59 -12 -49 -26 -40 -47 -29 -66 -27 -47 -16 -110 -30 -69 -16 -166 0 -53 -7 -60 -10 -107 -23 -103 -32 -107 -46 -94 -59 -41 -33 -41 -40 -37 -42 -29 -50 -47 -101 -34 -109 -22 -115 -3 -62 6 -59 9 -59 19 -53 41 -108 47 -105 31 -46 41 -40 88 -69 97 -62 101 -46 53 -17 54 -19 50 -20 110 -30 113 -13 53 -3 116 3 57 7 53 10 110 13 53 10 110 26 157 49 50 27 50 29 92 66 43 36 16 13 6 20zm-1541 1507l0 0 -3 3 0 14 10 13 3 -17 -3 -13 -7 0zm41 -969l0 0 -3 -6 -6 0 -7 26 13 7 -3 -7 -3 -10 3 -6 6 -4zm138 1675l0 0 60 23 59 20 60 16 119 40 60 16 75 0 129 -6 116 3 57 3 62 -6 70 -10 65 -17 57 -16 56 -20 63 -23 54 -23 59 -29 50 -33 57 -36 50 -36 50 -43 51 -53 44 -59 28 -59 25 -59 22 -62 19 -60 12 -62 10 -72 3 -76 -3 -65 -7 -63 -12 -56 -3 -19 -16 -27 -28 -46 -22 -32 9 36 13 56 6 62 3 66 -3 72 -9 75 -13 63 -19 59 -22 62 -25 56 -31 59 -41 63 -50 52 -51 43 -50 36 -56 36 -54 30 -56 29 -53 23 -63 23 -57 23 -56 17 -69 16 -66 10 -63 6 -56 -3 -120 -3 -125 6 -63 0 -66 -3 -82 -13 -59 -16 -113 -30 -132 -52 -3 0 34 26 54 36 56 26zm-132 -1875l0 0 7 -7 0 -3 -7 -6 -6 3 -3 3 3 7 6 3zm-3 286l0 0 3 6 0 4 7 3 3 -3 0 -4 3 -6 -6 -7 -10 7zm50 -191l0 0 7 -6 -10 -10 -15 3 -10 0 0 10 6 10 13 -7 9 0zm-6 194l0 0 10 -7 6 -6 -10 -13 -3 -10 -9 -3 -10 9 10 7 6 10 0 13zm-3 -279l0 0 6 3 7 -3 -4 -7 -6 -6 -6 0 -3 6 6 7zm3 -89l0 0 3 0 3 -3 0 -7 -3 -3 -6 0 -3 3 3 7 3 3zm32 1373l0 0 0 -3 -4 -10 -6 0 -12 6 -4 17 7 6 12 0 10 7 6 3 0 -13 -9 -13zm65 -1248l0 0 -25 0 -6 10 -28 -3 0 52 -6 23 0 20 3 13 12 6 3 -9 -3 -4 -3 -6 0 -10 -3 -10 3 -23 10 -10 12 -3 6 16 13 0 9 -6 -3 -10 0 -20 6 -16 0 -10zm-9 154l0 0 -3 7 -6 6 0 4 12 -13 -3 -4zm66 1130l0 0 -9 3 -10 0 -6 4 -3 0 -10 -7 -3 -10 -6 0 -6 3 0 10 3 10 9 3 3 0 3 -3 13 0 6 -3 7 3 3 3 6 0 6 -3 3 -3 0 -3 -3 -4 -6 -3zm-22 -919l0 0 16 -7 3 -30 -19 17 -13 16 4 7 9 -3zm-6 857l0 0 -3 3 6 13 6 0 0 -13 -3 -3 -6 0zm25 276l0 0 -16 -4 -6 10 3 7 6 3 10 -3 12 -7 -3 -6 -6 0zm28 -1327l0 0 -6 13 3 6 6 0 10 -9 0 -20 -13 10zm72 207l0 0 7 13 6 6 3 10 3 7 6 3 7 -3 0 -7 -3 -13 -4 -10 -3 -3 0 -13 -3 -13 0 -10 3 -7 0 -6 -3 -4 0 -6 -16 16 4 0 3 4 6 -4 0 4 -3 0 -6 6 -7 0 -3 3 0 -3 -6 -6 0 -7 3 -7 0 -3 -3 3 -3 0 -3 7 -16 16 6 7 3 -3 7 -4 6 14 3 3 3 10 3 0zm-6 -125l0 0 6 -10 -6 -10 -6 -3 -3 3 0 13 9 7zm16 -496l0 0 19 -20 -22 0 -13 10 -3 10 3 3 16 -3zm-10 762l0 0 3 -7 4 -3 -7 -3 -3 -4 -3 0 0 23 3 10 22 10 -9 -16 -10 -10zm615 456l0 0 -9 -13 -28 -19 -57 -23 -44 -14 -50 -16 -53 -13 -63 -10 -157 0 -63 -7 -62 -9 -35 -10 9 29 7 27 100 32 53 14 110 19 54 7 169 0 66 13 57 13 -4 -20zm-549 371l0 0 -9 0 -16 10 -22 23 10 7 6 -3 19 0 9 6 9 -6 7 -14 -10 -9 -3 -14zm-3 220l0 0 -19 0 -9 -3 -10 10 10 7 9 -4 3 4 7 0 6 9 12 -3 0 -6 -9 -14zm16 -1914l0 0 -10 0 -3 10 6 6 10 4 6 0 3 -7 -6 -10 -6 -3zm78 469l0 0 13 -23 25 -19 34 -20 38 -13 41 -10 47 -3 107 0 59 3 44 7 0 -79 -37 -10 -57 -7 -60 -3 -109 0 -44 3 -44 10 -38 13 -34 20 -22 20 -16 23 -3 23 6 36 16 23 28 26 6 -20zm-34 1337l0 0 -7 7 -6 3 3 13 10 7 6 -7 3 -6 -3 -10 -6 -7zm15 -1905l0 0 7 0 6 -3 0 -10 -3 -6 -10 -4 -6 7 0 10 6 6zm142 890l0 0 -7 -26 -12 13 -13 26 -15 17 -16 -3 -13 -4 -15 -19 -22 -10 -13 -23 -12 3 -10 16 13 17 6 10 12 -10 13 6 -3 17 -6 13 9 13 9 10 13 -3 3 -7 -9 -10 0 -6 9 -4 44 0 6 -9 25 0 4 -27zm-135 805l0 0 -7 0 -3 6 0 7 10 -3 3 -4 0 -3 -3 -3zm0 -1613l0 0 0 10 9 -3 16 3 19 -10 15 10 19 4 -25 -40 -38 17 -12 6 -3 3zm3 710l0 0 0 10 6 0 3 3 16 -20 19 13 6 0 9 -6 16 -13 6 -23 -12 6 -6 10 -13 3 -13 -3 -12 -16 -19 -10 6 23 -9 20 -3 3zm12 1189l0 0 7 16 0 20 -4 6 0 7 13 6 13 -13 0 -3 -4 -26 -25 -13zm10 -197l0 0 9 6 10 -6 -10 -4 -9 4zm28 -1616l0 0 -3 0 -6 10 3 3 0 3 3 0 0 4 6 -4 0 -13 -3 -3zm-3 118l0 0 9 10 10 0 9 -3 0 -10 -6 -7 -13 0 -6 3 -3 7zm41 -296l0 0 25 66 9 7 6 6 -9 17 -3 19 16 -6 9 -3 3 0 6 -27 -12 -19 -6 -7 -7 -10 0 -43 -3 -19 -12 -4 -13 0 -9 4 0 3 -3 0 -4 3 7 13zm66 2069l0 0 -13 -6 -13 13 10 -3 9 0 10 10 6 0 0 -10 -9 -4zm25 -1898l0 0 -7 -6 -3 -7 -6 0 -3 3 -3 0 -13 10 0 13 10 7 15 -3 3 -4 4 0 3 -3 0 -10zm15 -207l0 0 -15 4 0 6 -10 10 10 7 3 0 3 3 13 -7 3 -13 0 -10 -7 0zm32 -36l0 0 6 13 3 13 6 17 10 16 16 -33 6 -3 3 -3 0 -3 3 0 3 -4 22 -13 3 0 16 7 6 -4 10 -3 -6 -6 -4 -7 -25 0 -25 -3 -19 0 -6 -17 -19 -3 -22 7 -12 13 6 16 19 0zm-10 2066l0 0 -12 0 3 10 6 6 13 7 9 -10 -6 -10 -13 -3zm63 -1090l0 0 0 -7 -9 -7 -10 7 -9 0 -10 -7 -9 7 6 10 13 0 3 3 13 0 12 -6zm3 26l0 0 -9 0 -6 10 3 6 9 7 10 -3 3 -7 -3 -10 -7 -3zm38 -805l0 0 -3 -3 -10 0 -3 3 0 10 -3 7 3 3 0 7 10 0 6 -7 3 -7 -3 -13zm16 -164l0 0 -19 -7 -10 0 0 4 -3 10 0 13 3 0 10 6 16 -3 9 -13 -6 -10zm-32 1090l0 0 3 10 4 0 3 -3 3 -10 -10 0 -3 3zm41 -893l0 0 -6 0 -10 3 19 14 3 0 7 -4 -4 -10 -9 -3zm82 92l0 0 22 0 44 -10 -26 -20 -12 -3 -3 0 0 -3 -3 0 0 -7 -4 0 0 -3 -3 0 -18 -13 -7 -3 -6 -7 6 -46 25 -26 13 -36 3 0 6 -4 7 0 22 -13 0 -3 -7 -7 -3 -9 -31 -17 -35 36 16 17 -9 19 -29 0 -22 -9 -19 16 -12 16 3 17 16 3 12 -10 13 -3 9 13 0 23 7 23 0 20 18 10 7 39zm-76 775l0 0 -6 0 -3 10 6 7 6 0 4 -7 0 -7 -7 -3zm51 -1034l0 0 6 0 6 -17 -12 -16 0 -13 9 -17 -13 -13 -15 10 3 16 -3 4 -3 6 0 20 12 16 10 4zm37 -4l0 0 -31 17 -16 26 6 7 7 3 22 -13 12 -23 19 -7 6 -3 19 0 3 -3 19 -7 0 -16 -6 -7 -3 -7 -7 0 -12 -3 -3 0 -3 3 -4 0 -6 4 3 13 -9 13 -16 3zm10 -52l0 0 25 0 19 -7 6 -3 -10 -20 0 -13 4 -13 9 -3 6 -7 -6 -6 0 -7 -25 0 -6 7 -29 13 -18 23 -4 13 16 10 13 13zm15 926l0 0 13 3 -6 -10 -4 -13 -6 -13 -12 0 -16 13 -6 20 9 6 16 -3 12 -3zm22 102l0 0 -12 0 -10 -4 -28 14 19 6 9 7 10 0 12 -4 0 -19zm38 -765l0 0 -9 -23 -26 -27 -12 -10 -3 -3 -3 0 -4 -3 -6 6 -6 14 3 6 0 30 3 3 16 7 22 9 25 -9zm-35 607l0 0 0 -3 -18 0 -4 10 7 10 15 3 4 -3 3 0 0 -4 3 0 12 -3 -15 -7 -7 -3zm10 -765l0 0 16 13 3 -3 6 -4 -6 -19 -19 -7 0 20zm47 -148l0 0 -6 33 6 26 25 -23 22 -19 -9 -10 -16 -7 -22 -13 -13 3 -3 4 -12 0 15 3 13 3zm22 253l0 0 6 0 6 -3 10 -7 3 -10 0 -10 -19 -6 -28 -7 -22 -19 3 42 41 20zm-25 828l0 0 -19 6 3 10 6 7 7 -10 3 -13zm50 -821l0 0 -6 -4 -3 4 -13 6 -9 7 -22 10 3 3 0 3 31 0 6 -3 7 0 6 -7 0 -19zm-44 -168l0 0 19 7 6 -7 0 -7 -9 -6 -13 0 -9 6 6 7zm3 1081l0 0 -9 0 0 9 3 10 13 -3 12 3 3 -6 -6 -10 -16 -3zm28 -175l0 0 0 -6 -3 0 -6 -3 -12 -4 -10 10 3 10 3 7 7 6 6 3 6 -6 3 -13 3 -4zm22 -932l0 0 16 0 16 3 12 -7 -3 -6 -31 -7 -25 0 15 17zm54 148l0 0 -13 -27 -31 7 0 -3 -10 -14 -3 -9 -6 -7 0 33 16 3 47 17zm-28 134l0 0 0 -6 3 -4 0 -3 -7 -3 -6 3 -3 7 -6 6 0 3 12 0 7 -3zm116 -180l0 0 -19 -17 -6 -3 -13 -3 -6 -7 -3 0 0 -3 -7 -7 -9 -13 -6 -7 -32 -6 -25 6 19 7 25 20 9 3 10 7 6 3 3 0 3 3 7 3 12 10 13 13 31 14 3 3 0 -3 -15 -23zm-82 906l0 0 -12 -26 -7 -10 -12 0 -7 10 0 13 16 16 22 -3zm-3 -795l0 0 -13 0 -6 4 -3 3 -6 13 6 3 3 7 13 0 6 3 3 -10 3 -6 -3 -4 -3 -13zm91 -10l0 0 3 -16 0 -20 -12 -23 -4 0 -22 10 -18 7 -19 10 -22 13 -19 10 44 9 9 -3 38 13 13 -3 9 -7zm-100 897l0 0 18 -16 -3 -23 -19 16 4 23zm103 -26l0 0 -22 -10 -3 -3 -3 0 -10 -17 -9 -13 -3 -3 -3 0 -10 -4 -12 0 -10 7 3 20 -6 6 13 4 9 0 16 3 19 3 3 7 6 10 22 6 3 0 3 -3 -6 -13zm383 -857l0 0 3 59 3 78 0 83 -3 59 -12 124 -4 27 -12 46 -19 13 -19 6 -25 4 -9 0 -22 3 -66 3 -54 4 -50 -4 -132 4 -47 3 7 23 103 36 50 13 35 17 16 0 69 -4 163 0 88 -10 3 -16 19 -66 6 -52 3 -56 0 -76 -3 -78 -6 -106 -3 -78 -22 -14 -35 -36 -25 -19 0 10zm-417 1050l0 0 -13 0 -6 10 12 13 19 0 -3 -16 -9 -7zm-4 -95l0 0 10 7 -3 -7 0 -10 -7 -3 -3 0 -3 3 0 4 6 6zm4 -936l0 0 -4 7 -3 3 13 7 9 -10 -6 -3 -3 0 -6 -4zm53 -194l0 0 -9 -13 -16 -6 -10 10 -9 16 28 16 13 -6 9 -3 -6 -14zm9 1160l0 0 -3 6 -3 13 9 7 7 -13 -3 -10 -7 -3zm-3 -969l0 0 6 7 7 3 9 0 0 -7 -3 -6 -9 -13 -10 3 0 13zm41 808l0 0 -3 10 -13 0 -19 19 4 0 18 10 10 0 12 -3 13 -10 -13 -23 -9 -3zm-3 -729l0 0 0 -7 -13 13 -3 7 -6 3 -3 3 -3 27 6 6 6 0 6 -23 7 -16 0 -7 3 -6zm-16 88l0 0 -3 4 -3 6 6 10 3 7 7 -4 3 -6 0 -10 -13 -7zm16 -243l0 0 19 -13 0 -16 -3 -20 -13 -3 -13 0 -6 13 -3 16 6 10 13 13zm0 1022l0 0 -10 0 7 10 12 0 3 -4 0 -3 -12 -3zm69 95l0 0 -6 0 0 10 6 3 3 0 3 -6 0 -4 -6 -3zm22 36l0 0 -3 0 -3 7 3 6 3 4 3 0 3 -7 0 -7 -6 -3zm63 -62l0 0 -3 -4 -4 0 -3 7 0 3 3 7 4 -3 6 -4 -3 -6z"/>
  <path class="fil0" d="M4800 234c66,-125 -55,-158 -312,247l-1 1 -316 615 -138 -1 447 -863c64,-124 -53,-157 -305,234l-324 629 -138 -1 465 -900c-146,83 -376,86 -438,207 -67,127 50,181 50,181l-51 98c-90,-40 -193,-163 -105,-333 111,-216 407,-137 646,-348l68 133 -37 71c86,-120 163,-171 233,-171 72,0 126,78 79,184 90,-128 169,-183 242,-183 75,0 130,84 72,199l-503 971c-20,37 -28,110 17,135l-57 110c-112,-63 -116,-203 -61,-309l467 -906z"/>
  <path class="fil0" d="M5134 982c-183,258 -508,136 -337,-192l59 -112 67 -130c78,-151 158,-198 262,-197 127,0 202,151 120,309l-128 246c67,-1 143,-37 204,-111l9 -12c18,9 41,32 50,53 -69,92 -196,147 -276,146l-30 0zm-39 -190l0 0 7 0 99 -189c83,-157 -47,-229 -142,-49l-66 124 -103 200c-81,157 73,181 137,59l2 -3c-8,-15 -13,-32 -13,-51 0,-50 35,-91 79,-91z"/>
  <path class="fil0" d="M5519 299l122 1 128 -248 135 1 -128 247 111 1 -39 72 -110 0 -291 567c-32,59 -15,83 15,83 59,0 155,-100 252,-227l9 -12c19,9 42,33 51,53 -112,146 -241,279 -353,279 -109,0 -149,-104 -91,-216l273 -528 -123 0 39 -73z"/>
  <path class="fil0" d="M6055 986c-183,257 -508,135 -337,-193l59 -112 67 -130c78,-151 159,-197 262,-197 128,0 202,151 120,310l-128 246c67,-1 143,-38 204,-112l9 -11c18,8 42,32 51,52 -70,92 -197,147 -277,147l-30 0zm-38 -190l0 0 6 0 99 -190c83,-157 -47,-229 -142,-48l-65 124 -104 199c-81,157 74,181 138,59l1 -3c-8,-15 -13,-32 -13,-51 0,-50 36,-90 80,-90z"/>
  <path class="fil0" d="M6611 626c16,-31 10,-62 -7,-86l-18 -25c-108,164 -159,240 -224,324 -20,-14 -39,-33 -51,-52 89,-117 170,-245 230,-340l-12 -17c-48,-70 -41,-156 36,-234l70 87c-28,29 -28,60 -8,87l75 103c43,60 65,114 18,206l-136 265c-31,59 -14,83 16,83 59,0 154,-100 252,-227l9 -11c18,8 42,32 51,52 -112,146 -241,280 -353,279 -109,0 -149,-104 -91,-216l143 -278z"/>
  <path class="fil0" d="M6967 847c-62,123 -13,181 70,181 95,1 220,-99 317,-226l9 -12c19,9 42,33 51,53 -112,146 -265,279 -418,279 -159,-1 -231,-150 -146,-312l142 -272c57,-111 145,-175 254,-174 110,0 180,106 106,245l-19 38 -111 0 20 -38c81,-157 -56,-183 -135,-33l-140 271z"/>
  <path class="fil0" d="M7640 847l240 -466 135 0 -372 711c106,-51 201,-144 313,-288l9 -12c19,9 42,33 51,53 -149,192 -287,300 -427,349l-105 199c-97,187 -296,156 -295,10 0,-114 115,-198 298,-259l74 -143c-61,61 -135,122 -200,122 -90,0 -120,-95 -51,-229l266 -514 135 0 -265 516c-17,32 -51,89 -17,105 26,13 106,-47 211,-154zm-268 521l0 0 62 -122c-104,45 -136,90 -136,129 0,41 45,50 74,-7z"/>
  <path class="fil0" d="M8072 851c-63,123 -14,181 69,181 95,1 220,-99 317,-226l10 -12c18,9 41,33 50,53 -112,146 -264,279 -418,279 -159,-1 -231,-150 -146,-312l142 -272c58,-111 145,-175 254,-174 110,0 180,106 107,245l-20 38 -110 0 19 -38c81,-157 -56,-183 -135,-33l-139 271z"/>
  <path class="fil0" d="M8801 796c18,8 41,32 50,52 -112,146 -241,280 -352,279 -109,0 -149,-104 -92,-216l439 -848 135 1 -457 887c-31,59 -15,83 15,83 60,0 155,-100 253,-227l9 -11z"/>
  <path class="fil0" d="M8920 828l-13 26c-63,123 -14,181 70,181 94,1 219,-99 317,-226l9 -12c18,9 41,33 50,53 -112,146 -264,279 -417,279 -160,-1 -232,-150 -147,-312l143 -272c57,-111 144,-175 253,-174 110,0 180,106 107,245l-20 38c-102,197 -265,215 -352,174zm39 -74l0 0c51,20 138,24 203,-100l20 -38c81,-157 -57,-183 -135,-33l-88 171z"/>
  <path class="fil0" d="M1542 5231l-228 0 -228 0c-24,0 -47,10 -63,27 -16,16 -26,38 -26,63l199 431 -199 431c0,25 10,47 26,64 16,16 39,26 63,26l499 0 500 0c42,0 73,-27 84,-60 12,-33 5,-73 -28,-100l-238 -190 -238 -190c-11,-8 -19,-19 -25,-31 -6,-12 -9,-25 -9,-39l0 -171 0 -171c0,-25 -10,-47 -26,-63 -16,-17 -39,-27 -63,-27z"/>
  <path class="fil0" d="M2487 6180l0 -406c0,-24 -19,-43 -44,-43l-486 0c-41,0 -60,51 -28,77l487 405c28,24 71,4 71,-33z"/>
  <path class="fil0" d="M11134 4600l-9308 0c-53,0 -96,43 -96,96l0 849c0,54 43,97 96,97l9308 0c53,0 96,-43 96,-97l0 -849c0,-53 -43,-96 -96,-96z"/>
  <path class="fil0" d="M11322 5281l1 201 0 200c0,8 -2,15 -5,22 -3,7 -8,13 -14,17l-290 232 -290 231c-19,15 -23,37 -16,56 6,18 23,33 47,33l576 0 576 0c14,0 27,-6 36,-15 9,-9 14,-21 14,-35l-200 -471 200 -471c0,-14 -5,-26 -14,-35 -9,-9 -22,-15 -36,-15l-267 0 -268 0c-14,0 -26,6 -35,15 -9,9 -15,21 -15,35z"/>
  <path class="fil0" d="M10467 5766l0 431c0,30 35,47 58,28l517 -432c26,-21 11,-62 -22,-62l-518 0c-19,0 -35,15 -35,35z"/>
  <path class="fil1" d="M2610 5079c12,-17 7,-34 -5,-48l-13 -14c-109,124 -245,278 -293,326 -14,-8 -28,-19 -37,-29 71,-71 220,-244 296,-334l-7 -9c-35,-39 -30,-86 25,-129l51 48c-20,16 -20,33 -6,48l55 57c32,33 47,63 13,113l-98 146c-23,33 -11,46 11,46 43,1 112,-55 183,-125l7 -6c13,5 30,18 36,29 -81,80 -174,154 -255,154 -79,-1 -108,-58 -67,-120l104 -153z"/>
  <path class="fil1" d="M3034 5170c13,5 30,18 36,29 -81,80 -174,154 -255,154 -79,-1 -108,-58 -67,-120l198 -290 98 0 -211 312c-23,33 -11,46 11,46 43,0 112,-55 183,-125l7 -6zm23 -367l0 0c32,0 57,22 57,49 0,28 -26,48 -58,48 -32,0 -56,-21 -56,-48 0,-28 25,-49 57,-49z"/>
  <path class="fil1" d="M3496 5172c13,4 30,17 36,29 -81,80 -174,154 -255,153 -50,0 -80,-23 -85,-55 -47,33 -96,55 -136,55 -79,-1 -108,-58 -66,-120l138 -202c42,-61 115,-96 168,-96 40,0 72,20 89,44l145 -212 98 0 -333 489c-23,33 -11,46 11,46 43,0 112,-55 183,-125l7 -6zm-421 84l0 0c-23,33 -11,46 11,46 41,0 102,-39 161,-122l75 -109 -1 0c48,-75 -56,-96 -109,-18l-137 203z"/>
  <path class="fil1" d="M3582 5190l-9 14c-46,68 -10,100 50,100 69,0 159,-55 230,-125l7 -6c13,5 30,18 36,29 -81,80 -191,154 -302,153 -116,0 -168,-82 -107,-171l103 -151c42,-61 105,-96 184,-95 80,0 131,58 78,135l-15 21c-73,108 -192,118 -255,96zm29 -41l0 0c36,11 99,13 146,-55l15 -21c58,-87 -41,-101 -98,-18l-63 94z"/>
  <path class="fil1" d="M4240 4907l88 0 93 -136 98 0 -93 137 81 0 -28 40 -80 0 -211 312c-23,33 -11,46 11,46 43,0 112,-55 183,-125l7 -6c13,5 30,18 36,29 -81,80 -174,154 -255,154 -79,-1 -108,-58 -67,-120l198 -291 -89 0 28 -40z"/>
  <path class="fil1" d="M4629 5286c-132,142 -368,74 -244,-106l42 -62 49 -72c56,-83 115,-109 190,-108 92,0 147,83 87,170l-93 136c49,0 104,-20 148,-61l7 -7c13,5 30,18 36,29 -50,51 -142,81 -200,81l-22 0zm-28 -105l0 0 5 0 72 -104c59,-87 -34,-127 -104,-27l-47 68 -75 110c-58,87 54,100 100,33l1 -2c-6,-8 -9,-18 -9,-28 0,-27 25,-50 57,-50z"/>
  <path class="fil1" d="M5344 5178c13,5 30,18 36,29 -81,81 -174,154 -255,154 -79,0 -108,-58 -67,-119l318 -468 98 1 -331 489c-23,33 -10,45 11,46 43,0 112,-56 183,-125l7 -7z"/>
  <path class="fil1" d="M5586 5179c13,5 30,18 36,29 -81,80 -174,154 -255,154 -79,0 -108,-58 -67,-120l198 -290 98 0 -211 313c-23,32 -11,45 11,45 43,1 112,-55 183,-125l7 -6zm23 -367l0 0c32,0 57,22 57,49 0,28 -26,49 -58,48 -32,0 -56,-21 -56,-48 0,-27 25,-49 57,-49z"/>
  <path class="fil1" d="M5792 4953l-132 279c-38,80 -32,78 28,2l220 -281 89 1 -160 202c-52,90 40,80 93,31l7 -7c13,5 30,18 36,29 -81,81 -171,70 -197,25l-52 65c-76,98 -235,83 -169,-56l138 -291 99 1z"/>
  <path class="fil1" d="M6023 5198l-9 15c-46,67 -10,100 50,100 69,0 159,-55 230,-125l7 -6c13,5 30,17 36,29 -81,80 -191,154 -302,153 -116,0 -168,-82 -107,-172l103 -150c42,-61 105,-96 184,-96 80,1 131,59 78,136l-15 21c-73,108 -192,118 -255,95zm28 -41l0 0c37,12 100,14 147,-55l15 -20c58,-87 -41,-101 -98,-19l-64 94z"/>
  <path class="fil1" d="M6315 5385l6 0c22,0 51,-12 62,-28 -28,-4 -47,-19 -47,-40 0,-31 27,-44 50,-44 27,0 56,16 55,45 0,58 -67,99 -121,99l-7 0 2 -32z"/>
  <path class="fil1" d="M6948 5184c13,5 30,18 37,29 -81,80 -175,154 -256,154 -79,-1 -108,-58 -66,-120l318 -467 98 0 -332 489c-22,33 -10,46 12,46 43,0 112,-55 183,-125l6 -6z"/>
  <path class="fil1" d="M7190 5185c13,5 30,18 37,29 -82,80 -175,154 -256,154 -79,-1 -108,-58 -66,-120l197 -290 98 0 -211 312c-22,33 -10,46 11,46 44,0 113,-55 183,-125l7 -6zm23 -367l0 0c32,0 57,22 57,49 0,28 -25,48 -57,48 -32,0 -57,-21 -57,-48 0,-28 25,-49 57,-49z"/>
  <path class="fil1" d="M7396 4959l-132 278c-38,81 -31,79 28,3l221 -281 88 0 -160 203c-52,90 41,79 93,31l7 -7c13,5 30,18 37,29 -82,81 -172,70 -198,24l-51 66c-77,97 -236,82 -169,-57l137 -290 99 1z"/>
  <path class="fil1" d="M7628 5204l-10 15c-45,67 -10,99 51,100 68,0 159,-55 230,-125l6 -7c13,5 30,18 37,30 -81,80 -192,153 -303,153 -116,0 -168,-83 -106,-172l103 -150c41,-61 104,-96 183,-96 80,0 131,58 78,136l-14 20c-74,109 -192,119 -255,96zm28 -41l0 0c37,12 100,13 147,-55l14 -21c59,-86 -41,-100 -98,-18l-63 94z"/>
  <path class="fil1" d="M8285 4922l89 0 93 -137 97 1 -92 136 81 1 -29 40 -80 -1 -211 313c-22,33 -10,46 11,46 44,0 113,-55 183,-125l7 -7c13,5 30,18 37,29 -82,81 -175,154 -256,154 -79,0 -108,-57 -66,-119l197 -291 -89 0 28 -40z"/>
  <path class="fil1" d="M8675 5300c-133,142 -369,75 -245,-106l43 -62 48 -71c57,-84 115,-109 191,-109 92,0 146,84 86,171l-92 136c49,-1 103,-21 148,-62l6 -6c13,5 30,18 37,29 -50,51 -143,81 -201,81l-21 -1zm-28 -104l0 0 4 0 72 -105c60,-86 -34,-126 -103,-27l-47 69 -75 110c-59,86 53,100 99,32l1 -1c-5,-8 -9,-18 -9,-29 0,-27 26,-49 58,-49z"/>
  <path class="fil1" d="M9405 5103c12,-16 7,-33 -5,-47l-13 -15c-109,125 -245,279 -293,326 -14,-8 -28,-18 -37,-29 71,-70 220,-244 296,-334l-7 -9c-35,-38 -30,-86 26,-128l50 47c-20,16 -20,33 -6,49l55 56c32,33 47,63 13,114l-98 146c-23,33 -10,46 11,46 43,0 112,-55 183,-125l7 -7c13,5 30,18 36,30 -81,80 -174,154 -255,153 -79,0 -108,-57 -67,-119l104 -154z"/>
  <path class="fil1" d="M9829 5194c13,5 30,18 36,29 -81,81 -174,154 -255,154 -79,0 -108,-57 -67,-119l198 -291 98 0 -211 313c-23,33 -11,46 11,46 43,0 112,-55 183,-125l7 -7zm23 -367l0 0c32,0 57,22 57,50 0,27 -26,48 -58,48 -32,0 -56,-21 -56,-49 0,-27 25,-49 57,-49z"/>
  <path class="fil1" d="M10291 5196c13,5 30,18 36,29 -81,80 -174,154 -255,154 -50,0 -80,-23 -85,-55 -47,33 -96,54 -135,54 -80,0 -109,-58 -67,-119l138 -203c42,-61 115,-96 168,-96 40,0 72,21 89,44l145 -212 98 0 -333 489c-23,33 -11,46 11,46 43,1 112,-55 183,-125l7 -6zm-421 85l0 0c-23,33 -11,45 11,46 41,0 102,-40 161,-122l75 -109 -1 0c48,-76 -56,-96 -109,-19l-137 204z"/>
  <path class="fil1" d="M10377 5214l-9 15c-46,67 -10,99 50,99 69,1 159,-54 230,-124l7 -7c13,5 30,18 36,29 -81,81 -191,154 -302,154 -116,-1 -168,-83 -107,-172l103 -150c42,-61 105,-96 184,-96 80,0 131,58 78,135l-14 21c-74,109 -193,119 -256,96zm29 -41l0 0c36,12 99,13 147,-55l14 -21c58,-87 -41,-101 -98,-18l-63 94z"/>
  <polygon class="fil0" points="509,1043 3399,1043 3399,982 509,982 "/>
  <polygon class="fil0" points="509,851 3399,851 3399,820 509,820 "/>
  <polygon class="fil0" points="9555,1043 12445,1043 12445,982 9555,982 "/>
  <polygon class="fil0" points="9555,851 12445,851 12445,820 9555,820 "/>
 </g>
</svg>
