<?xml version="1.0" encoding="UTF-8"?>
<!DOCTYPE svg PUBLIC "-//W3C//DTD SVG 1.1//EN" "http://www.w3.org/Graphics/SVG/1.1/DTD/svg11.dtd">
<!-- Creator: CorelDRAW X7 -->
<svg xmlns="http://www.w3.org/2000/svg" xml:space="preserve" width="1.52533in" height="1.21111in" version="1.1" style="shape-rendering:geometricPrecision; text-rendering:geometricPrecision; image-rendering:optimizeQuality; fill-rule:evenodd; clip-rule:evenodd"
viewBox="0 0 2783 2209"
 xmlns:xlink="http://www.w3.org/1999/xlink">
 <defs>
  <style type="text/css">
   <![CDATA[
    .fil0 {fill:#282828;fill-rule:nonzero}
   ]]>
  </style>
 </defs>
 <g id="OBJECTS">
  <metadata id="CorelCorpID_0Corel-Layer"/>
  <path class="fil0" d="M1078 1840c11,3 16,5 27,8 8,2 14,3 20,3 6,-1 11,-2 15,-5 4,-2 7,-5 10,-9 3,-4 4,-8 6,-12 1,-5 1,-9 1,-14 -1,-4 -2,-9 -4,-13 -2,-4 -6,-8 -10,-11 -4,-3 -10,-6 -17,-8 -20,-6 -30,-9 -50,-16 -15,42 -22,63 -38,106 11,4 16,5 27,9 5,-15 8,-23 13,-38zm16 -51l0 0c8,3 12,4 20,6 3,1 5,2 8,3 2,2 4,3 6,5 2,2 3,4 4,6 0,3 0,6 -1,9 -1,4 -2,6 -4,8 -2,2 -4,3 -7,3 -2,1 -5,1 -8,1 -2,-1 -5,-1 -8,-2 -8,-3 -12,-4 -20,-7 4,-13 6,-19 10,-32z"/>
  <path class="fil0" d="M1176 1908c3,-14 5,-21 8,-36 1,-3 2,-7 3,-9 2,-3 3,-6 6,-8 2,-2 5,-3 8,-4 3,-1 7,0 12,0 1,1 2,1 4,1 2,1 3,1 4,2 1,-8 2,-13 4,-21 -2,-1 -4,-1 -5,-2 -3,0 -6,0 -9,0 -3,0 -6,1 -8,2 -3,1 -6,2 -8,4 -2,2 -4,4 -6,6 0,0 0,0 0,0 1,-6 2,-9 3,-15 -9,-2 -13,-3 -22,-5 -7,32 -11,48 -19,79 10,3 15,4 25,6z"/>
  <path class="fil0" d="M1219 1893c2,5 4,10 7,15 3,4 8,8 13,11 6,3 12,5 19,6 11,1 20,0 28,-3 8,-4 14,-10 18,-20 -9,0 -13,-1 -22,-2 -1,3 -3,5 -7,7 -4,1 -8,2 -13,1 -7,-1 -13,-3 -16,-7 -3,-4 -4,-9 -3,-16 25,4 38,5 64,8 1,-7 1,-13 0,-19 -1,-6 -3,-11 -6,-16 -3,-5 -8,-9 -13,-12 -5,-3 -11,-5 -18,-6 -6,-1 -12,-1 -18,0 -6,2 -11,4 -15,7 -5,3 -9,7 -12,12 -3,5 -5,10 -6,16 -1,6 -1,12 0,18zm28 -28l0 0c1,-1 2,-3 4,-5 1,-1 4,-2 6,-3 3,-1 6,-1 10,-1 6,1 10,3 12,6 3,4 4,8 5,14 -16,-2 -24,-3 -39,-5 0,-2 1,-4 2,-6z"/>
  <path class="fil0" d="M1347 1884c0,-4 1,-8 2,-10 2,-2 3,-4 5,-5 2,-2 4,-3 6,-3 1,0 3,-1 4,0 4,0 7,0 9,2 2,1 3,3 4,5 1,2 1,4 1,6 0,3 0,5 0,7 0,19 -1,28 -1,46 10,0 15,0 25,0 0,-18 0,-27 0,-45 0,-3 1,-5 1,-7 0,-3 1,-5 2,-7 2,-2 3,-4 5,-5 2,-1 5,-2 8,-2 4,0 6,1 8,2 2,1 4,2 5,4 1,2 2,4 2,6 0,2 1,5 1,8 0,18 0,28 1,46 10,0 15,0 25,-1 -1,-22 -1,-33 -3,-55 0,-5 -1,-9 -3,-13 -1,-4 -4,-6 -7,-9 -2,-2 -6,-3 -10,-4 -4,-1 -8,-2 -12,-2 -6,1 -11,2 -16,5 -4,3 -9,9 -10,9 0,0 -6,-8 -10,-10 -5,-2 -10,-4 -15,-4 -5,0 -11,1 -15,3 -4,2 -8,5 -12,9 0,0 0,0 0,0 0,-4 0,-6 1,-11 -9,0 -14,-1 -23,-1 -2,32 -3,49 -6,81 10,1 15,1 25,2 1,-19 2,-29 3,-47z"/>
  <path class="fil0" d="M1497 1834c0,-8 -1,-11 -1,-19 -9,1 -14,2 -23,2 0,8 1,11 1,19 10,-1 14,-1 23,-2z"/>
  <path class="fil0" d="M1481 1930c10,-1 15,-2 25,-2 -3,-33 -4,-49 -7,-82 -10,1 -14,2 -24,2 2,33 4,49 6,82z"/>
  <path class="fil0" d="M1526 1908c1,4 3,7 6,10 3,2 7,4 11,5 5,1 10,1 17,0 6,0 11,-2 15,-5 5,-3 9,-7 11,-13 0,0 0,0 0,0 1,5 2,7 2,11 10,-1 15,-2 24,-4 -6,-32 -9,-48 -16,-80 -9,2 -13,3 -23,4 3,17 5,26 8,42 1,9 0,15 -2,19 -2,4 -7,7 -14,8 -6,1 -10,-1 -13,-3 -3,-3 -4,-8 -5,-15 -3,-18 -4,-27 -7,-46 -9,2 -14,2 -23,3 2,20 3,30 6,50 0,5 1,10 3,14z"/>
  <path class="fil0" d="M1657 1902c-5,-18 -7,-27 -11,-46 -1,-4 -1,-7 -1,-10 1,-2 2,-4 3,-6 2,-2 3,-3 5,-4 1,-1 3,-2 4,-2 4,-1 7,-1 9,0 2,0 4,1 5,3 2,2 3,4 3,6 1,3 2,5 3,7 4,18 7,26 12,44 9,-3 14,-4 24,-7 -5,-17 -8,-26 -13,-43 0,-3 -1,-5 -1,-8 -1,-2 -1,-5 0,-7 1,-2 2,-4 3,-6 2,-2 4,-3 8,-4 3,-1 6,-1 8,-1 2,0 4,1 5,3 2,1 3,3 4,5 1,2 2,5 3,7 6,18 9,27 15,44 9,-3 14,-5 24,-8 -7,-21 -11,-31 -18,-52 -2,-5 -5,-9 -7,-12 -3,-3 -6,-5 -10,-6 -3,-1 -7,-2 -11,-1 -4,0 -8,1 -12,2 -6,2 -11,5 -14,9 -3,4 -7,12 -7,12 0,0 -8,-7 -13,-7 -5,-1 -10,-1 -15,1 -6,1 -10,3 -14,7 -4,3 -7,7 -9,12 0,0 0,0 0,0 -1,-4 -2,-6 -3,-11 -8,2 -13,3 -21,5 7,32 10,48 17,80 10,-2 15,-3 25,-6z"/>
  <path class="fil0" d="M2614 1629l133 -211 -229 20 0 -293 -3 1c0,-5 0,-10 0,-15 0,-623 -512,-1131 -1141,-1131 -629,0 -1141,508 -1141,1131 0,48 3,95 9,141l-2 0 0 302 -240 39 182 170 -119 216 442 -157c21,22 42,44 64,64 212,196 498,303 805,303 308,0 594,-107 806,-303 46,-43 88,-90 126,-139l477 41 -169 -179zm-1240 474l0 0c-328,0 -611,-129 -798,-340l-3 -65c29,38 62,73 98,105 184,169 434,263 703,263 270,0 520,-94 704,-263 60,-54 111,-115 153,-182l11 54c-181,262 -496,428 -868,428zm-506 -774l0 0c-39,2 -59,84 -56,140 2,42 11,59 45,57 20,-1 40,-9 51,-24 0,-53 17,-111 77,-115 7,0 16,2 21,7l2 -8 45 -3 -16 109c-1,3 -1,7 -1,10 0,7 4,12 17,11 5,0 11,-4 17,-9l19 -123 46 -3 -3 16c11,-9 23,-17 37,-18 14,0 23,7 24,19 0,11 -7,26 -23,26 -18,1 -10,-20 -19,-19 -10,0 -15,4 -22,11l-19 125 -45 3 3 -19c-12,11 -25,20 -36,21 -21,1 -35,-6 -40,-22 -9,14 -22,27 -42,28 -26,2 -37,-13 -40,-29 -19,27 -50,35 -74,36 -32,2 -70,-12 -73,-77 -4,-69 13,-160 97,-164 30,-2 56,8 58,39 0,17 -5,29 -21,30 -5,1 -12,0 -18,-7 7,-3 12,-19 12,-27 0,-5 -3,-22 -23,-21zm1353 243l0 0 0 4c-160,277 -472,458 -847,458 -334,0 -618,-144 -789,-371l1636 -91zm-517 -96l0 0c4,-1 8,-5 13,-13 -2,-26 9,-41 22,-43 10,-21 15,-50 19,-74l46 -12 0 4c3,52 25,67 28,104l0 7c2,-3 5,-6 7,-8l25 -161 47 -9 -13 81c13,-10 27,-19 41,-19 17,-2 37,17 38,38 0,2 1,4 0,7l-10 61c0,4 -1,9 -1,13 0,5 3,9 12,9 3,0 6,-1 8,-2 -7,28 -20,31 -31,31 -22,1 -33,-13 -34,-33 0,-5 0,-10 1,-16l9 -57c0,-3 0,-5 0,-8 -1,-10 -6,-19 -15,-18 -8,0 -14,3 -20,8l-20 129 -45 2 5 -38c-3,3 -6,6 -9,9 -7,18 -24,31 -54,33 -29,1 -46,-4 -53,-22 -11,15 -21,26 -31,26 -22,2 -34,-7 -39,-22 -9,14 -22,28 -42,29 -30,2 -40,-19 -41,-38 -3,-54 13,-121 76,-124 7,-1 16,2 21,6l2 -8 45 -2 -16 108c-1,5 -1,9 -1,12 0,7 3,10 10,10zm-198 40l0 0 -45 2 -9 -161 -55 165 -46 3 -12 -216c-34,12 -50,38 -48,73 1,16 5,18 5,21 -21,1 -34,-6 -35,-29 -3,-42 53,-85 106,-88 5,-1 9,0 13,0l14 194 55 -197 40 -3 11 194 59 -198 22 -1 -75 241zm832 -361l0 0 -1919 107c-6,-43 -9,-86 -9,-131 0,-527 433,-955 964,-955 532,0 964,428 964,955 0,8 0,16 0,24zm71 -4l0 0 -39 3c0,-8 0,-15 0,-23 0,-544 -447,-987 -996,-987 -549,0 -996,443 -996,987 0,45 3,89 10,132l-39 3c-6,-44 -9,-89 -9,-135 0,-565 464,-1025 1034,-1025 571,0 1035,460 1035,1025 0,7 0,14 0,20z"/>
  <path class="fil0" d="M1761 1483c11,-1 26,-15 24,-40 -1,-19 -16,-35 -19,-75 -4,16 -7,37 -13,53 7,2 10,7 11,17 1,12 -9,21 -20,21 -4,1 -7,0 -11,-1 0,1 0,3 0,5 0,13 16,20 28,20z"/>
  <path class="fil0" d="M1609 1463c1,19 12,22 20,21 7,0 13,-8 19,-17 0,-3 0,-7 1,-10l13 -85c-5,-4 -11,-5 -16,-5 -23,2 -40,53 -37,96z"/>
  <path class="fil0" d="M971 1522c7,0 13,-8 19,-17 0,-3 1,-7 1,-11l13 -84c-5,-5 -11,-5 -16,-5 -23,1 -39,52 -37,95 1,19 12,22 20,22z"/>
  <path class="fil0" d="M1079 956c-64,3 -113,57 -110,121 3,64 58,113 121,110 64,-3 113,-58 110,-121 -3,-64 -57,-113 -121,-110zm9 189l0 0c-40,2 -75,-29 -77,-70 -2,-41 29,-75 70,-77 41,-2 75,29 77,70 2,40 -29,75 -70,77z"/>
  <path class="fil0" d="M1082 1010c-34,2 -60,31 -58,64 1,34 30,60 64,58 33,-1 59,-30 58,-64 -2,-33 -31,-59 -64,-58z"/>
  <path class="fil0" d="M1590 931c-64,3 -113,57 -110,121 3,64 57,113 121,110 64,-3 113,-57 110,-121 -3,-64 -58,-113 -121,-110zm9 189l0 0c-41,2 -75,-29 -77,-70 -2,-41 29,-75 70,-77 40,-2 75,29 77,70 2,40 -29,75 -70,77z"/>
  <path class="fil0" d="M1592 985c-33,2 -59,31 -58,64 2,34 31,60 64,58 34,-1 60,-30 58,-64 -1,-33 -30,-59 -64,-58z"/>
  <path class="fil0" d="M2029 831l-302 -61 -11 -15 -3 -4c0,0 0,0 0,0l-7 -8c0,0 0,0 0,0l-126 -176 -1 -1 -1 0c0,-2 1,-4 1,-7 0,-28 -19,-51 -46,-56 -4,-24 -25,-42 -51,-43 -2,0 -5,0 -7,1 -2,-27 -24,-48 -51,-49l-1 0c-17,0 -32,8 -41,21 -1,-9 -5,-17 -11,-23 -7,-8 -16,-12 -27,-12 -20,0 -37,16 -39,36 -5,-3 -12,-4 -18,-4l-1 0c-28,0 -51,22 -52,50 0,4 1,8 1,11 -13,-5 -28,-7 -37,-7l-1 0c-28,0 -51,18 -59,44 -21,2 -37,19 -37,40 -1,7 1,14 4,20 0,0 1,1 1,1l-45 3 -89 214 -176 9 2 46 -44 2 8 163 -67 3 2 40 67 -3 1 21 180 -1c-1,-2 -1,-5 -1,-8 -4,-78 56,-144 134,-147 78,-4 144,56 147,133 0,3 0,6 0,9l3 0 227 -12c0,-2 0,-5 0,-8 -4,-77 56,-144 133,-147 78,-4 144,56 148,134 0,2 0,5 0,8l155 -8 148 -7 -10 -201 0 -1zm-887 -293l0 0 4 0 1 -4c5,-23 26,-39 50,-39l1 0c17,0 32,4 42,11 3,4 13,-4 9,-7 -3,-6 -4,-12 -4,-18 0,-23 19,-41 42,-41 0,0 0,0 0,0 7,0 15,3 21,7l11 7 -3 -12c0,-2 0,-4 0,-6 0,-15 13,-28 28,-28 0,0 0,0 0,0 8,1 15,4 20,9 5,5 8,12 7,20 0,4 -1,9 -3,13l-4 7 8 1c1,0 3,0 5,1l5 1 1 -5c4,-19 21,-32 41,-32 23,0 41,19 40,42l7 7c4,-1 8,-1 12,-2 21,1 38,17 40,38l1 4 4 1c23,2 41,22 40,46 0,3 0,5 -1,8l-123 6 -67 3 0 0 0 -1 0 1 0 0 -138 7 0 -1 -1 1 -120 6c0,-1 -1,-1 -1,-2 -4,-5 -6,-11 -6,-18 0,-17 14,-31 31,-31zm-124 265l0 0 75 -179 205 -9 8 175 -288 13zm327 -15l0 0 -8 -175 227 -11 113 170 -332 16z"/>
  <path class="fil0" d="M1560 423l1 0c13,0 24,-11 25,-24 0,-7 -3,-13 -7,-18 -5,-5 -11,-8 -18,-8 -13,0 -25,11 -25,24 0,14 11,25 24,26zm1 -39l0 0c4,0 8,1 10,4 3,3 4,6 4,10 0,8 -6,14 -14,14l0 6 0 -6c-8,0 -14,-6 -14,-14 0,-8 6,-14 14,-14z"/>
  <path class="fil0" d="M1500 242l1 0c11,0 20,-9 20,-20 0,-5 -2,-10 -5,-14 -4,-4 -9,-7 -15,-7 -11,0 -21,9 -21,20 0,6 2,11 6,15 4,4 9,6 14,6zm1 -32l0 0c3,0 6,1 8,4 3,2 4,5 4,8 -1,6 -6,12 -12,12l0 4 -1 -4c-3,0 -6,-2 -8,-4 -2,-2 -3,-5 -3,-8 0,-7 5,-12 12,-12z"/>
  <path class="fil0" d="M1324 251l1 0c13,0 24,-11 24,-25 1,-6 -2,-12 -6,-17 -5,-5 -11,-8 -18,-8 -14,0 -25,11 -25,24 0,7 2,13 7,18 4,5 11,7 17,8zm1 -39l0 0c4,0 7,1 10,4 3,3 4,6 4,10 0,8 -7,14 -14,14l0 5 -1 -5c-3,0 -7,-1 -10,-4 -2,-3 -4,-7 -4,-10 1,-8 7,-14 15,-14z"/>
  <path class="fil0" d="M1178 358l1 0c13,0 24,-11 24,-24 0,-7 -2,-13 -7,-18 -4,-5 -10,-7 -17,-7 -14,0 -25,10 -25,24 0,6 2,13 7,17 4,5 11,8 17,8zm1 -39l0 0c4,0 7,2 10,4 3,3 4,7 4,11 0,7 -7,13 -14,13l0 6 -1 -6c-3,0 -7,-1 -10,-4 -2,-3 -4,-6 -4,-10 1,-8 7,-14 15,-14z"/>
  <path class="fil0" d="M1710 340l1 0c8,0 16,-7 16,-15 0,-5 -2,-8 -5,-12 -3,-3 -7,-4 -11,-4 -9,0 -16,6 -16,15 0,4 2,8 4,11 3,3 7,5 11,5zm1 -25l0 0c2,0 5,1 6,3 2,2 3,4 3,7 0,4 -4,8 -9,8l0 4 0 -4c-3,0 -5,-1 -7,-2 -1,-2 -2,-4 -2,-7 0,-5 4,-9 9,-9z"/>
  <path class="fil0" d="M1408 375l1 0c23,0 42,-18 42,-41 1,-11 -4,-22 -11,-30 -8,-8 -19,-13 -30,-13l-1 0c-23,0 -42,19 -42,41 0,12 4,22 12,30 8,8 18,13 29,13zm2 -74l0 0c8,0 16,4 22,10 6,6 10,14 9,23 0,17 -14,31 -32,31l-1 0c-8,0 -16,-3 -22,-9 -6,-7 -9,-15 -9,-23 0,-18 15,-32 33,-32z"/>
  <path class="fil0" d="M1114 493l1 0c19,0 35,-16 35,-35 1,-20 -15,-36 -35,-36 -19,0 -35,15 -36,35 0,9 4,18 10,25 7,7 16,11 25,11zm1 -61l0 0c14,1 25,12 25,26 0,13 -12,24 -25,24l0 6 -1 -6c-6,0 -13,-2 -17,-7 -5,-5 -7,-11 -7,-18 0,-14 11,-25 25,-25z"/>
 </g>
</svg>
