<?xml version="1.0" encoding="UTF-8"?>
<!DOCTYPE svg PUBLIC "-//W3C//DTD SVG 1.1//EN" "http://www.w3.org/Graphics/SVG/1.1/DTD/svg11.dtd">
<!-- Creator: CorelDRAW X7 -->
<svg xmlns="http://www.w3.org/2000/svg" xml:space="preserve" width="18.1526in" height="3.5053in" version="1.1" style="shape-rendering:geometricPrecision; text-rendering:geometricPrecision; image-rendering:optimizeQuality; fill-rule:evenodd; clip-rule:evenodd"
viewBox="0 0 18306 3535"
 xmlns:xlink="http://www.w3.org/1999/xlink">
 <defs>
  <style type="text/css">
   <![CDATA[
    .fil3 {fill:black;fill-rule:nonzero}
    .fil5 {fill:#252525;fill-rule:nonzero}
    .fil0 {fill:#444444;fill-rule:nonzero}
    .fil1 {fill:#656666;fill-rule:nonzero}
    .fil7 {fill:#810303;fill-rule:nonzero}
    .fil6 {fill:#861515;fill-rule:nonzero}
    .fil4 {fill:#DD1919;fill-rule:nonzero}
    .fil2 {fill:white;fill-rule:nonzero}
   ]]>
  </style>
 </defs>
 <g id="Monkey_x0020_Wrench">
  <metadata id="CorelCorpID_0Corel-Layer"/>
  <polygon class="fil0" points="14468,3535 13787,3231 14468,3151 "/>
  <path class="fil1" d="M12306 681l-502 0 -54 108 -54 -108 -3 0 -55 108 -54 -108 -3 0 -54 108 -54 -108 -4 0 -54 108 -54 -108 -3 0 -54 108 -55 -108 -3 0 -54 108 -54 -108 -4 0 -54 108 -54 -108 -3 0 -54 108 -54 -108 -4 0 -54 108 -54 -108 -3 0 -54 108 -54 -108 -4 0 -54 108 -54 -108 -3 0 -54 108 -55 -108 -3 0 -54 108 -54 -108 -4 0 -54 108 -54 -108 -3 0 -54 108 -54 -108 -4 0 -54 108 -54 -108 -3 0 -54 108 -54 -108 -4 0 -54 108 -54 -108 -1 0c-284,0 -517,232 -517,516 0,284 233,517 517,517l12 0 -12 -11 55 -112 56 112 56 -112 56 112 55 -112 56 112 56 -112 56 112 55 -112 56 112 56 -112 56 112 56 -112 55 112 56 -112 56 112 56 -112 55 112 56 -112 56 112 56 -112 56 112 55 -112 56 112 56 -112 56 112 56 -112 55 112 56 -112 56 112 56 -112 56 112 55 -112 56 112 56 -112 56 112 -6 11 506 0c284,0 517,-233 517,-517 0,-284 -233,-516 -517,-516z"/>
  <path class="fil2" d="M12049 927l-2216 0c-24,0 -42,-18 -42,-42 0,-23 18,-42 42,-42l2216 0c23,0 42,19 42,42 0,24 -19,42 -42,42z"/>
  <polygon class="fil3" points="12640,1890 11628,1890 11628,505 12640,505 "/>
  <path class="fil4" d="M14468 3253l0 -1329 0 -1521c0,-223 -181,-403 -403,-403l-1022 0c-223,0 -403,180 -403,403l0 1521 -1012 0 0 -710 -609 536c-127,112 -290,174 -459,174 0,0 -4702,203 -6445,203 -1884,0 -3470,-203 -3470,-203 -355,0 -645,290 -645,648l0 16c0,366 299,665 665,665 368,0 1539,-217 3502,-217 3962,0 10301,217 10301,217zm-14097 -665l0 0c0,-154 126,-280 281,-280 155,0 280,126 280,280 0,155 -125,281 -280,281 -155,0 -281,-126 -281,-281z"/>
  <polygon class="fil1" points="15027,1909 14906,2024 15027,2141 14906,2257 15027,2373 14906,2489 15027,2605 14906,2721 15027,2837 14906,2954 15027,3070 14906,3186 15027,3302 14906,3419 15027,3535 14468,3535 14468,1909 "/>
  <path class="fil1" d="M17717 504l-3249 0 0 886 2302 0 0 519 -121 115 121 117 -121 116 121 116 -121 116 121 116 -121 116 121 116 -121 117 121 116 -121 116 121 116 -121 117 121 116 358 0c506,0 1178,-2442 1178,-2442 0,-326 -263,-589 -589,-589zm-589 895l0 0c0,-3 0,-6 0,-9l0 0 0 9z"/>
  <path class="fil5" d="M11680 538c-19,0 -33,-15 -33,-33 0,-19 14,-34 33,-34 18,0 33,15 33,34 0,18 -15,33 -33,33z"/>
  <path class="fil5" d="M11773 538c-18,0 -33,-15 -33,-33 0,-19 15,-34 33,-34 18,0 33,15 33,34 0,18 -15,33 -33,33z"/>
  <path class="fil5" d="M11866 538c-18,0 -33,-15 -33,-33 0,-19 15,-34 33,-34 19,0 34,15 34,34 0,18 -15,33 -34,33z"/>
  <path class="fil5" d="M11960 538c-19,0 -33,-15 -33,-33 0,-19 14,-34 33,-34 18,0 33,15 33,34 0,18 -15,33 -33,33z"/>
  <path class="fil5" d="M11680 614c-19,0 -33,-15 -33,-33 0,-19 14,-33 33,-33 18,0 33,14 33,33 0,18 -15,33 -33,33z"/>
  <path class="fil5" d="M11773 614c-18,0 -33,-15 -33,-33 0,-19 15,-33 33,-33 18,0 33,14 33,33 0,18 -15,33 -33,33z"/>
  <path class="fil5" d="M11866 614c-18,0 -33,-15 -33,-33 0,-19 15,-33 33,-33 19,0 34,14 34,33 0,18 -15,33 -34,33z"/>
  <path class="fil5" d="M11960 614c-19,0 -33,-15 -33,-33 0,-19 14,-33 33,-33 18,0 33,14 33,33 0,18 -15,33 -33,33z"/>
  <path class="fil5" d="M11680 690c-19,0 -33,-15 -33,-33 0,-18 14,-33 33,-33 18,0 33,15 33,33 0,18 -15,33 -33,33z"/>
  <path class="fil5" d="M11773 690c-18,0 -33,-15 -33,-33 0,-18 15,-33 33,-33 18,0 33,15 33,33 0,18 -15,33 -33,33z"/>
  <path class="fil5" d="M11866 690c-18,0 -33,-15 -33,-33 0,-18 15,-33 33,-33 19,0 34,15 34,33 0,18 -15,33 -34,33z"/>
  <path class="fil5" d="M11960 690c-19,0 -33,-15 -33,-33 0,-18 14,-33 33,-33 18,0 33,15 33,33 0,18 -15,33 -33,33z"/>
  <path class="fil5" d="M11680 766c-19,0 -33,-15 -33,-33 0,-18 14,-33 33,-33 18,0 33,15 33,33 0,18 -15,33 -33,33z"/>
  <path class="fil5" d="M11773 766c-18,0 -33,-15 -33,-33 0,-18 15,-33 33,-33 18,0 33,15 33,33 0,18 -15,33 -33,33z"/>
  <path class="fil5" d="M11866 766c-18,0 -33,-15 -33,-33 0,-18 15,-33 33,-33 19,0 34,15 34,33 0,18 -15,33 -34,33z"/>
  <path class="fil5" d="M11960 766c-19,0 -33,-15 -33,-33 0,-18 14,-33 33,-33 18,0 33,15 33,33 0,18 -15,33 -33,33z"/>
  <path class="fil5" d="M11680 842c-19,0 -33,-14 -33,-33 0,-18 14,-33 33,-33 18,0 33,15 33,33 0,19 -15,33 -33,33z"/>
  <path class="fil5" d="M11773 842c-18,0 -33,-14 -33,-33 0,-18 15,-33 33,-33 18,0 33,15 33,33 0,19 -15,33 -33,33z"/>
  <path class="fil5" d="M11866 842c-18,0 -33,-14 -33,-33 0,-18 15,-33 33,-33 19,0 34,15 34,33 0,19 -15,33 -34,33z"/>
  <path class="fil5" d="M11960 842c-19,0 -33,-14 -33,-33 0,-18 14,-33 33,-33 18,0 33,15 33,33 0,19 -15,33 -33,33z"/>
  <path class="fil5" d="M11680 919c-19,0 -33,-15 -33,-34 0,-18 14,-33 33,-33 18,0 33,15 33,33 0,19 -15,34 -33,34z"/>
  <path class="fil5" d="M11773 919c-18,0 -33,-15 -33,-34 0,-18 15,-33 33,-33 18,0 33,15 33,33 0,19 -15,34 -33,34z"/>
  <path class="fil5" d="M11866 919c-18,0 -33,-15 -33,-34 0,-18 15,-33 33,-33 19,0 34,15 34,33 0,19 -15,34 -34,34z"/>
  <path class="fil5" d="M11960 919c-19,0 -33,-15 -33,-34 0,-18 14,-33 33,-33 18,0 33,15 33,33 0,19 -15,34 -33,34z"/>
  <path class="fil5" d="M11680 995c-19,0 -33,-15 -33,-33 0,-19 14,-34 33,-34 18,0 33,15 33,34 0,18 -15,33 -33,33z"/>
  <path class="fil5" d="M11773 995c-18,0 -33,-15 -33,-33 0,-19 15,-34 33,-34 18,0 33,15 33,34 0,18 -15,33 -33,33z"/>
  <path class="fil5" d="M11866 995c-18,0 -33,-15 -33,-33 0,-19 15,-34 33,-34 19,0 34,15 34,34 0,18 -15,33 -34,33z"/>
  <path class="fil5" d="M11960 995c-19,0 -33,-15 -33,-33 0,-19 14,-34 33,-34 18,0 33,15 33,34 0,18 -15,33 -33,33z"/>
  <path class="fil5" d="M11680 1071c-19,0 -33,-15 -33,-33 0,-19 14,-33 33,-33 18,0 33,14 33,33 0,18 -15,33 -33,33z"/>
  <path class="fil5" d="M11773 1071c-18,0 -33,-15 -33,-33 0,-19 15,-33 33,-33 18,0 33,14 33,33 0,18 -15,33 -33,33z"/>
  <path class="fil5" d="M11866 1071c-18,0 -33,-15 -33,-33 0,-19 15,-33 33,-33 19,0 34,14 34,33 0,18 -15,33 -34,33z"/>
  <path class="fil5" d="M11960 1071c-19,0 -33,-15 -33,-33 0,-19 14,-33 33,-33 18,0 33,14 33,33 0,18 -15,33 -33,33z"/>
  <path class="fil5" d="M11680 1147c-19,0 -33,-15 -33,-33 0,-18 14,-33 33,-33 18,0 33,15 33,33 0,18 -15,33 -33,33z"/>
  <path class="fil5" d="M11773 1147c-18,0 -33,-15 -33,-33 0,-18 15,-33 33,-33 18,0 33,15 33,33 0,18 -15,33 -33,33z"/>
  <path class="fil5" d="M11866 1147c-18,0 -33,-15 -33,-33 0,-18 15,-33 33,-33 19,0 34,15 34,33 0,18 -15,33 -34,33z"/>
  <path class="fil5" d="M11960 1147c-19,0 -33,-15 -33,-33 0,-18 14,-33 33,-33 18,0 33,15 33,33 0,18 -15,33 -33,33z"/>
  <path class="fil5" d="M11680 1223c-19,0 -33,-15 -33,-33 0,-18 14,-33 33,-33 18,0 33,15 33,33 0,18 -15,33 -33,33z"/>
  <path class="fil5" d="M11773 1223c-18,0 -33,-15 -33,-33 0,-18 15,-33 33,-33 18,0 33,15 33,33 0,18 -15,33 -33,33z"/>
  <path class="fil5" d="M11866 1223c-18,0 -33,-15 -33,-33 0,-18 15,-33 33,-33 19,0 34,15 34,33 0,18 -15,33 -34,33z"/>
  <path class="fil5" d="M11960 1223c-19,0 -33,-15 -33,-33 0,-18 14,-33 33,-33 18,0 33,15 33,33 0,18 -15,33 -33,33z"/>
  <path class="fil5" d="M11680 1299c-19,0 -33,-15 -33,-33 0,-18 14,-33 33,-33 18,0 33,15 33,33 0,18 -15,33 -33,33z"/>
  <path class="fil5" d="M11773 1299c-18,0 -33,-15 -33,-33 0,-18 15,-33 33,-33 18,0 33,15 33,33 0,18 -15,33 -33,33z"/>
  <path class="fil5" d="M11866 1299c-18,0 -33,-15 -33,-33 0,-18 15,-33 33,-33 19,0 34,15 34,33 0,18 -15,33 -34,33z"/>
  <path class="fil5" d="M11960 1299c-19,0 -33,-15 -33,-33 0,-18 14,-33 33,-33 18,0 33,15 33,33 0,18 -15,33 -33,33z"/>
  <path class="fil5" d="M11680 1375c-19,0 -33,-14 -33,-33 0,-18 14,-33 33,-33 18,0 33,15 33,33 0,19 -15,33 -33,33z"/>
  <path class="fil5" d="M11773 1375c-18,0 -33,-14 -33,-33 0,-18 15,-33 33,-33 18,0 33,15 33,33 0,19 -15,33 -33,33z"/>
  <path class="fil5" d="M11866 1375c-18,0 -33,-14 -33,-33 0,-18 15,-33 33,-33 19,0 34,15 34,33 0,19 -15,33 -34,33z"/>
  <path class="fil5" d="M11960 1375c-19,0 -33,-14 -33,-33 0,-18 14,-33 33,-33 18,0 33,15 33,33 0,19 -15,33 -33,33z"/>
  <path class="fil5" d="M11680 1452c-19,0 -33,-15 -33,-34 0,-18 14,-33 33,-33 18,0 33,15 33,33 0,19 -15,34 -33,34z"/>
  <path class="fil5" d="M11773 1452c-18,0 -33,-15 -33,-34 0,-18 15,-33 33,-33 18,0 33,15 33,33 0,19 -15,34 -33,34z"/>
  <path class="fil5" d="M11866 1452c-18,0 -33,-15 -33,-34 0,-18 15,-33 33,-33 19,0 34,15 34,33 0,19 -15,34 -34,34z"/>
  <path class="fil5" d="M11960 1452c-19,0 -33,-15 -33,-34 0,-18 14,-33 33,-33 18,0 33,15 33,33 0,19 -15,34 -33,34z"/>
  <path class="fil5" d="M11680 1528c-19,0 -33,-15 -33,-33 0,-19 14,-34 33,-34 18,0 33,15 33,34 0,18 -15,33 -33,33z"/>
  <path class="fil5" d="M11773 1528c-18,0 -33,-15 -33,-33 0,-19 15,-34 33,-34 18,0 33,15 33,34 0,18 -15,33 -33,33z"/>
  <path class="fil5" d="M11866 1528c-18,0 -33,-15 -33,-33 0,-19 15,-34 33,-34 19,0 34,15 34,34 0,18 -15,33 -34,33z"/>
  <path class="fil5" d="M11960 1528c-19,0 -33,-15 -33,-33 0,-19 14,-34 33,-34 18,0 33,15 33,34 0,18 -15,33 -33,33z"/>
  <path class="fil5" d="M11680 1604c-19,0 -33,-15 -33,-33 0,-19 14,-33 33,-33 18,0 33,14 33,33 0,18 -15,33 -33,33z"/>
  <path class="fil5" d="M11773 1604c-18,0 -33,-15 -33,-33 0,-19 15,-33 33,-33 18,0 33,14 33,33 0,18 -15,33 -33,33z"/>
  <path class="fil5" d="M11866 1604c-18,0 -33,-15 -33,-33 0,-19 15,-33 33,-33 19,0 34,14 34,33 0,18 -15,33 -34,33z"/>
  <path class="fil5" d="M11960 1604c-19,0 -33,-15 -33,-33 0,-19 14,-33 33,-33 18,0 33,14 33,33 0,18 -15,33 -33,33z"/>
  <path class="fil5" d="M11680 1680c-19,0 -33,-15 -33,-33 0,-18 14,-33 33,-33 18,0 33,15 33,33 0,18 -15,33 -33,33z"/>
  <path class="fil5" d="M11773 1680c-18,0 -33,-15 -33,-33 0,-18 15,-33 33,-33 18,0 33,15 33,33 0,18 -15,33 -33,33z"/>
  <path class="fil5" d="M11866 1680c-18,0 -33,-15 -33,-33 0,-18 15,-33 33,-33 19,0 34,15 34,33 0,18 -15,33 -34,33z"/>
  <path class="fil5" d="M11960 1680c-19,0 -33,-15 -33,-33 0,-18 14,-33 33,-33 18,0 33,15 33,33 0,18 -15,33 -33,33z"/>
  <path class="fil5" d="M11680 1756c-19,0 -33,-15 -33,-33 0,-18 14,-33 33,-33 18,0 33,15 33,33 0,18 -15,33 -33,33z"/>
  <path class="fil5" d="M11773 1756c-18,0 -33,-15 -33,-33 0,-18 15,-33 33,-33 18,0 33,15 33,33 0,18 -15,33 -33,33z"/>
  <path class="fil5" d="M11866 1756c-18,0 -33,-15 -33,-33 0,-18 15,-33 33,-33 19,0 34,15 34,33 0,18 -15,33 -34,33z"/>
  <path class="fil5" d="M11960 1756c-19,0 -33,-15 -33,-33 0,-18 14,-33 33,-33 18,0 33,15 33,33 0,18 -15,33 -33,33z"/>
  <path class="fil5" d="M11680 1832c-19,0 -33,-14 -33,-33 0,-18 14,-33 33,-33 18,0 33,15 33,33 0,19 -15,33 -33,33z"/>
  <path class="fil5" d="M11773 1832c-18,0 -33,-14 -33,-33 0,-18 15,-33 33,-33 18,0 33,15 33,33 0,19 -15,33 -33,33z"/>
  <path class="fil5" d="M11866 1832c-18,0 -33,-14 -33,-33 0,-18 15,-33 33,-33 19,0 34,15 34,33 0,19 -15,33 -34,33z"/>
  <path class="fil5" d="M11960 1832c-19,0 -33,-14 -33,-33 0,-18 14,-33 33,-33 18,0 33,15 33,33 0,19 -15,33 -33,33z"/>
  <path class="fil5" d="M11680 1909c-19,0 -33,-15 -33,-34 0,-18 14,-33 33,-33 18,0 33,15 33,33 0,19 -15,34 -33,34z"/>
  <path class="fil5" d="M11773 1909c-18,0 -33,-15 -33,-34 0,-18 15,-33 33,-33 18,0 33,15 33,33 0,19 -15,34 -33,34z"/>
  <path class="fil5" d="M11866 1909c-18,0 -33,-15 -33,-34 0,-18 15,-33 33,-33 19,0 34,15 34,33 0,19 -15,34 -34,34z"/>
  <path class="fil5" d="M11960 1909c-19,0 -33,-15 -33,-34 0,-18 14,-33 33,-33 18,0 33,15 33,33 0,19 -15,34 -33,34z"/>
  <path class="fil5" d="M12049 538c-19,0 -34,-15 -34,-33 0,-19 15,-34 34,-34 18,0 33,15 33,34 0,18 -15,33 -33,33z"/>
  <path class="fil5" d="M12142 538c-18,0 -33,-15 -33,-33 0,-19 15,-34 33,-34 18,0 33,15 33,34 0,18 -15,33 -33,33z"/>
  <path class="fil5" d="M12235 538c-18,0 -33,-15 -33,-33 0,-19 15,-34 33,-34 19,0 34,15 34,34 0,18 -15,33 -34,33z"/>
  <path class="fil5" d="M12329 538c-19,0 -33,-15 -33,-33 0,-19 14,-34 33,-34 18,0 33,15 33,34 0,18 -15,33 -33,33z"/>
  <path class="fil5" d="M12049 614c-19,0 -34,-15 -34,-33 0,-19 15,-33 34,-33 18,0 33,14 33,33 0,18 -15,33 -33,33z"/>
  <path class="fil5" d="M12142 614c-18,0 -33,-15 -33,-33 0,-19 15,-33 33,-33 18,0 33,14 33,33 0,18 -15,33 -33,33z"/>
  <path class="fil5" d="M12235 614c-18,0 -33,-15 -33,-33 0,-19 15,-33 33,-33 19,0 34,14 34,33 0,18 -15,33 -34,33z"/>
  <path class="fil5" d="M12329 614c-19,0 -33,-15 -33,-33 0,-19 14,-33 33,-33 18,0 33,14 33,33 0,18 -15,33 -33,33z"/>
  <path class="fil5" d="M12049 690c-19,0 -34,-15 -34,-33 0,-18 15,-33 34,-33 18,0 33,15 33,33 0,18 -15,33 -33,33z"/>
  <path class="fil5" d="M12142 690c-18,0 -33,-15 -33,-33 0,-18 15,-33 33,-33 18,0 33,15 33,33 0,18 -15,33 -33,33z"/>
  <path class="fil5" d="M12235 690c-18,0 -33,-15 -33,-33 0,-18 15,-33 33,-33 19,0 34,15 34,33 0,18 -15,33 -34,33z"/>
  <path class="fil5" d="M12329 690c-19,0 -33,-15 -33,-33 0,-18 14,-33 33,-33 18,0 33,15 33,33 0,18 -15,33 -33,33z"/>
  <path class="fil5" d="M12049 766c-19,0 -34,-15 -34,-33 0,-18 15,-33 34,-33 18,0 33,15 33,33 0,18 -15,33 -33,33z"/>
  <path class="fil5" d="M12142 766c-18,0 -33,-15 -33,-33 0,-18 15,-33 33,-33 18,0 33,15 33,33 0,18 -15,33 -33,33z"/>
  <path class="fil5" d="M12235 766c-18,0 -33,-15 -33,-33 0,-18 15,-33 33,-33 19,0 34,15 34,33 0,18 -15,33 -34,33z"/>
  <path class="fil5" d="M12329 766c-19,0 -33,-15 -33,-33 0,-18 14,-33 33,-33 18,0 33,15 33,33 0,18 -15,33 -33,33z"/>
  <path class="fil5" d="M12049 842c-19,0 -34,-14 -34,-33 0,-18 15,-33 34,-33 18,0 33,15 33,33 0,19 -15,33 -33,33z"/>
  <path class="fil5" d="M12142 842c-18,0 -33,-14 -33,-33 0,-18 15,-33 33,-33 18,0 33,15 33,33 0,19 -15,33 -33,33z"/>
  <path class="fil5" d="M12235 842c-18,0 -33,-14 -33,-33 0,-18 15,-33 33,-33 19,0 34,15 34,33 0,19 -15,33 -34,33z"/>
  <path class="fil5" d="M12329 842c-19,0 -33,-14 -33,-33 0,-18 14,-33 33,-33 18,0 33,15 33,33 0,19 -15,33 -33,33z"/>
  <path class="fil5" d="M12049 919c-19,0 -34,-15 -34,-34 0,-18 15,-33 34,-33 18,0 33,15 33,33 0,19 -15,34 -33,34z"/>
  <path class="fil5" d="M12142 919c-18,0 -33,-15 -33,-34 0,-18 15,-33 33,-33 18,0 33,15 33,33 0,19 -15,34 -33,34z"/>
  <path class="fil5" d="M12235 919c-18,0 -33,-15 -33,-34 0,-18 15,-33 33,-33 19,0 34,15 34,33 0,19 -15,34 -34,34z"/>
  <path class="fil5" d="M12329 919c-19,0 -33,-15 -33,-34 0,-18 14,-33 33,-33 18,0 33,15 33,33 0,19 -15,34 -33,34z"/>
  <path class="fil5" d="M12049 995c-19,0 -34,-15 -34,-33 0,-19 15,-34 34,-34 18,0 33,15 33,34 0,18 -15,33 -33,33z"/>
  <path class="fil5" d="M12142 995c-18,0 -33,-15 -33,-33 0,-19 15,-34 33,-34 18,0 33,15 33,34 0,18 -15,33 -33,33z"/>
  <path class="fil5" d="M12235 995c-18,0 -33,-15 -33,-33 0,-19 15,-34 33,-34 19,0 34,15 34,34 0,18 -15,33 -34,33z"/>
  <path class="fil5" d="M12329 995c-19,0 -33,-15 -33,-33 0,-19 14,-34 33,-34 18,0 33,15 33,34 0,18 -15,33 -33,33z"/>
  <path class="fil5" d="M12049 1071c-19,0 -34,-15 -34,-33 0,-19 15,-33 34,-33 18,0 33,14 33,33 0,18 -15,33 -33,33z"/>
  <path class="fil5" d="M12142 1071c-18,0 -33,-15 -33,-33 0,-19 15,-33 33,-33 18,0 33,14 33,33 0,18 -15,33 -33,33z"/>
  <path class="fil5" d="M12235 1071c-18,0 -33,-15 -33,-33 0,-19 15,-33 33,-33 19,0 34,14 34,33 0,18 -15,33 -34,33z"/>
  <path class="fil5" d="M12329 1071c-19,0 -33,-15 -33,-33 0,-19 14,-33 33,-33 18,0 33,14 33,33 0,18 -15,33 -33,33z"/>
  <path class="fil5" d="M12049 1147c-19,0 -34,-15 -34,-33 0,-18 15,-33 34,-33 18,0 33,15 33,33 0,18 -15,33 -33,33z"/>
  <path class="fil5" d="M12142 1147c-18,0 -33,-15 -33,-33 0,-18 15,-33 33,-33 18,0 33,15 33,33 0,18 -15,33 -33,33z"/>
  <path class="fil5" d="M12235 1147c-18,0 -33,-15 -33,-33 0,-18 15,-33 33,-33 19,0 34,15 34,33 0,18 -15,33 -34,33z"/>
  <path class="fil5" d="M12329 1147c-19,0 -33,-15 -33,-33 0,-18 14,-33 33,-33 18,0 33,15 33,33 0,18 -15,33 -33,33z"/>
  <path class="fil5" d="M12049 1223c-19,0 -34,-15 -34,-33 0,-18 15,-33 34,-33 18,0 33,15 33,33 0,18 -15,33 -33,33z"/>
  <path class="fil5" d="M12142 1223c-18,0 -33,-15 -33,-33 0,-18 15,-33 33,-33 18,0 33,15 33,33 0,18 -15,33 -33,33z"/>
  <path class="fil5" d="M12235 1223c-18,0 -33,-15 -33,-33 0,-18 15,-33 33,-33 19,0 34,15 34,33 0,18 -15,33 -34,33z"/>
  <path class="fil5" d="M12329 1223c-19,0 -33,-15 -33,-33 0,-18 14,-33 33,-33 18,0 33,15 33,33 0,18 -15,33 -33,33z"/>
  <path class="fil5" d="M12049 1299c-19,0 -34,-15 -34,-33 0,-18 15,-33 34,-33 18,0 33,15 33,33 0,18 -15,33 -33,33z"/>
  <path class="fil5" d="M12142 1299c-18,0 -33,-15 -33,-33 0,-18 15,-33 33,-33 18,0 33,15 33,33 0,18 -15,33 -33,33z"/>
  <path class="fil5" d="M12235 1299c-18,0 -33,-15 -33,-33 0,-18 15,-33 33,-33 19,0 34,15 34,33 0,18 -15,33 -34,33z"/>
  <path class="fil5" d="M12329 1299c-19,0 -33,-15 -33,-33 0,-18 14,-33 33,-33 18,0 33,15 33,33 0,18 -15,33 -33,33z"/>
  <path class="fil5" d="M12049 1375c-19,0 -34,-14 -34,-33 0,-18 15,-33 34,-33 18,0 33,15 33,33 0,19 -15,33 -33,33z"/>
  <path class="fil5" d="M12142 1375c-18,0 -33,-14 -33,-33 0,-18 15,-33 33,-33 18,0 33,15 33,33 0,19 -15,33 -33,33z"/>
  <path class="fil5" d="M12235 1375c-18,0 -33,-14 -33,-33 0,-18 15,-33 33,-33 19,0 34,15 34,33 0,19 -15,33 -34,33z"/>
  <path class="fil5" d="M12329 1375c-19,0 -33,-14 -33,-33 0,-18 14,-33 33,-33 18,0 33,15 33,33 0,19 -15,33 -33,33z"/>
  <path class="fil5" d="M12049 1452c-19,0 -34,-15 -34,-34 0,-18 15,-33 34,-33 18,0 33,15 33,33 0,19 -15,34 -33,34z"/>
  <path class="fil5" d="M12142 1452c-18,0 -33,-15 -33,-34 0,-18 15,-33 33,-33 18,0 33,15 33,33 0,19 -15,34 -33,34z"/>
  <path class="fil5" d="M12235 1452c-18,0 -33,-15 -33,-34 0,-18 15,-33 33,-33 19,0 34,15 34,33 0,19 -15,34 -34,34z"/>
  <path class="fil5" d="M12329 1452c-19,0 -33,-15 -33,-34 0,-18 14,-33 33,-33 18,0 33,15 33,33 0,19 -15,34 -33,34z"/>
  <path class="fil5" d="M12049 1528c-19,0 -34,-15 -34,-33 0,-19 15,-34 34,-34 18,0 33,15 33,34 0,18 -15,33 -33,33z"/>
  <path class="fil5" d="M12142 1528c-18,0 -33,-15 -33,-33 0,-19 15,-34 33,-34 18,0 33,15 33,34 0,18 -15,33 -33,33z"/>
  <path class="fil5" d="M12235 1528c-18,0 -33,-15 -33,-33 0,-19 15,-34 33,-34 19,0 34,15 34,34 0,18 -15,33 -34,33z"/>
  <path class="fil5" d="M12329 1528c-19,0 -33,-15 -33,-33 0,-19 14,-34 33,-34 18,0 33,15 33,34 0,18 -15,33 -33,33z"/>
  <path class="fil5" d="M12049 1604c-19,0 -34,-15 -34,-33 0,-19 15,-33 34,-33 18,0 33,14 33,33 0,18 -15,33 -33,33z"/>
  <path class="fil5" d="M12142 1604c-18,0 -33,-15 -33,-33 0,-19 15,-33 33,-33 18,0 33,14 33,33 0,18 -15,33 -33,33z"/>
  <path class="fil5" d="M12235 1604c-18,0 -33,-15 -33,-33 0,-19 15,-33 33,-33 19,0 34,14 34,33 0,18 -15,33 -34,33z"/>
  <path class="fil5" d="M12329 1604c-19,0 -33,-15 -33,-33 0,-19 14,-33 33,-33 18,0 33,14 33,33 0,18 -15,33 -33,33z"/>
  <path class="fil5" d="M12049 1680c-19,0 -34,-15 -34,-33 0,-18 15,-33 34,-33 18,0 33,15 33,33 0,18 -15,33 -33,33z"/>
  <path class="fil5" d="M12142 1680c-18,0 -33,-15 -33,-33 0,-18 15,-33 33,-33 18,0 33,15 33,33 0,18 -15,33 -33,33z"/>
  <path class="fil5" d="M12235 1680c-18,0 -33,-15 -33,-33 0,-18 15,-33 33,-33 19,0 34,15 34,33 0,18 -15,33 -34,33z"/>
  <path class="fil5" d="M12329 1680c-19,0 -33,-15 -33,-33 0,-18 14,-33 33,-33 18,0 33,15 33,33 0,18 -15,33 -33,33z"/>
  <path class="fil5" d="M12049 1756c-19,0 -34,-15 -34,-33 0,-18 15,-33 34,-33 18,0 33,15 33,33 0,18 -15,33 -33,33z"/>
  <path class="fil5" d="M12142 1756c-18,0 -33,-15 -33,-33 0,-18 15,-33 33,-33 18,0 33,15 33,33 0,18 -15,33 -33,33z"/>
  <path class="fil5" d="M12235 1756c-18,0 -33,-15 -33,-33 0,-18 15,-33 33,-33 19,0 34,15 34,33 0,18 -15,33 -34,33z"/>
  <path class="fil5" d="M12329 1756c-19,0 -33,-15 -33,-33 0,-18 14,-33 33,-33 18,0 33,15 33,33 0,18 -15,33 -33,33z"/>
  <path class="fil5" d="M12049 1832c-19,0 -34,-14 -34,-33 0,-18 15,-33 34,-33 18,0 33,15 33,33 0,19 -15,33 -33,33z"/>
  <path class="fil5" d="M12142 1832c-18,0 -33,-14 -33,-33 0,-18 15,-33 33,-33 18,0 33,15 33,33 0,19 -15,33 -33,33z"/>
  <path class="fil5" d="M12235 1832c-18,0 -33,-14 -33,-33 0,-18 15,-33 33,-33 19,0 34,15 34,33 0,19 -15,33 -34,33z"/>
  <path class="fil5" d="M12329 1832c-19,0 -33,-14 -33,-33 0,-18 14,-33 33,-33 18,0 33,15 33,33 0,19 -15,33 -33,33z"/>
  <path class="fil5" d="M12049 1909c-19,0 -34,-15 -34,-34 0,-18 15,-33 34,-33 18,0 33,15 33,33 0,19 -15,34 -33,34z"/>
  <path class="fil5" d="M12142 1909c-18,0 -33,-15 -33,-34 0,-18 15,-33 33,-33 18,0 33,15 33,33 0,19 -15,34 -33,34z"/>
  <path class="fil5" d="M12235 1909c-18,0 -33,-15 -33,-34 0,-18 15,-33 33,-33 19,0 34,15 34,33 0,19 -15,34 -34,34z"/>
  <path class="fil5" d="M12329 1909c-19,0 -33,-15 -33,-34 0,-18 14,-33 33,-33 18,0 33,15 33,33 0,19 -15,34 -33,34z"/>
  <path class="fil5" d="M12418 538c-19,0 -34,-15 -34,-33 0,-19 15,-34 34,-34 18,0 33,15 33,34 0,18 -15,33 -33,33z"/>
  <path class="fil5" d="M12511 538c-18,0 -33,-15 -33,-33 0,-19 15,-34 33,-34 18,0 33,15 33,34 0,18 -15,33 -33,33z"/>
  <path class="fil5" d="M12604 538c-18,0 -33,-15 -33,-33 0,-19 15,-34 33,-34 19,0 33,15 33,34 0,18 -14,33 -33,33z"/>
  <path class="fil5" d="M12418 614c-19,0 -34,-15 -34,-33 0,-19 15,-33 34,-33 18,0 33,14 33,33 0,18 -15,33 -33,33z"/>
  <path class="fil5" d="M12511 614c-18,0 -33,-15 -33,-33 0,-19 15,-33 33,-33 18,0 33,14 33,33 0,18 -15,33 -33,33z"/>
  <path class="fil5" d="M12604 614c-18,0 -33,-15 -33,-33 0,-19 15,-33 33,-33 19,0 33,14 33,33 0,18 -14,33 -33,33z"/>
  <path class="fil5" d="M12418 690c-19,0 -34,-15 -34,-33 0,-18 15,-33 34,-33 18,0 33,15 33,33 0,18 -15,33 -33,33z"/>
  <path class="fil5" d="M12511 690c-18,0 -33,-15 -33,-33 0,-18 15,-33 33,-33 18,0 33,15 33,33 0,18 -15,33 -33,33z"/>
  <path class="fil5" d="M12604 690c-18,0 -33,-15 -33,-33 0,-18 15,-33 33,-33 19,0 33,15 33,33 0,18 -14,33 -33,33z"/>
  <path class="fil5" d="M12418 766c-19,0 -34,-15 -34,-33 0,-18 15,-33 34,-33 18,0 33,15 33,33 0,18 -15,33 -33,33z"/>
  <path class="fil5" d="M12511 766c-18,0 -33,-15 -33,-33 0,-18 15,-33 33,-33 18,0 33,15 33,33 0,18 -15,33 -33,33z"/>
  <path class="fil5" d="M12604 766c-18,0 -33,-15 -33,-33 0,-18 15,-33 33,-33 19,0 33,15 33,33 0,18 -14,33 -33,33z"/>
  <path class="fil5" d="M12418 842c-19,0 -34,-14 -34,-33 0,-18 15,-33 34,-33 18,0 33,15 33,33 0,19 -15,33 -33,33z"/>
  <path class="fil5" d="M12511 842c-18,0 -33,-14 -33,-33 0,-18 15,-33 33,-33 18,0 33,15 33,33 0,19 -15,33 -33,33z"/>
  <path class="fil5" d="M12604 842c-18,0 -33,-14 -33,-33 0,-18 15,-33 33,-33 19,0 33,15 33,33 0,19 -14,33 -33,33z"/>
  <path class="fil5" d="M12418 919c-19,0 -34,-15 -34,-34 0,-18 15,-33 34,-33 18,0 33,15 33,33 0,19 -15,34 -33,34z"/>
  <path class="fil5" d="M12511 919c-18,0 -33,-15 -33,-34 0,-18 15,-33 33,-33 18,0 33,15 33,33 0,19 -15,34 -33,34z"/>
  <path class="fil5" d="M12604 919c-18,0 -33,-15 -33,-34 0,-18 15,-33 33,-33 19,0 33,15 33,33 0,19 -14,34 -33,34z"/>
  <path class="fil5" d="M12418 995c-19,0 -34,-15 -34,-33 0,-19 15,-34 34,-34 18,0 33,15 33,34 0,18 -15,33 -33,33z"/>
  <path class="fil5" d="M12511 995c-18,0 -33,-15 -33,-33 0,-19 15,-34 33,-34 18,0 33,15 33,34 0,18 -15,33 -33,33z"/>
  <path class="fil5" d="M12604 995c-18,0 -33,-15 -33,-33 0,-19 15,-34 33,-34 19,0 33,15 33,34 0,18 -14,33 -33,33z"/>
  <path class="fil5" d="M12418 1071c-19,0 -34,-15 -34,-33 0,-19 15,-33 34,-33 18,0 33,14 33,33 0,18 -15,33 -33,33z"/>
  <path class="fil5" d="M12511 1071c-18,0 -33,-15 -33,-33 0,-19 15,-33 33,-33 18,0 33,14 33,33 0,18 -15,33 -33,33z"/>
  <path class="fil5" d="M12604 1071c-18,0 -33,-15 -33,-33 0,-19 15,-33 33,-33 19,0 33,14 33,33 0,18 -14,33 -33,33z"/>
  <path class="fil5" d="M12418 1147c-19,0 -34,-15 -34,-33 0,-18 15,-33 34,-33 18,0 33,15 33,33 0,18 -15,33 -33,33z"/>
  <path class="fil5" d="M12511 1147c-18,0 -33,-15 -33,-33 0,-18 15,-33 33,-33 18,0 33,15 33,33 0,18 -15,33 -33,33z"/>
  <path class="fil5" d="M12604 1147c-18,0 -33,-15 -33,-33 0,-18 15,-33 33,-33 19,0 33,15 33,33 0,18 -14,33 -33,33z"/>
  <path class="fil5" d="M12418 1223c-19,0 -34,-15 -34,-33 0,-18 15,-33 34,-33 18,0 33,15 33,33 0,18 -15,33 -33,33z"/>
  <path class="fil5" d="M12511 1223c-18,0 -33,-15 -33,-33 0,-18 15,-33 33,-33 18,0 33,15 33,33 0,18 -15,33 -33,33z"/>
  <path class="fil5" d="M12604 1223c-18,0 -33,-15 -33,-33 0,-18 15,-33 33,-33 19,0 33,15 33,33 0,18 -14,33 -33,33z"/>
  <path class="fil5" d="M12418 1299c-19,0 -34,-15 -34,-33 0,-18 15,-33 34,-33 18,0 33,15 33,33 0,18 -15,33 -33,33z"/>
  <path class="fil5" d="M12511 1299c-18,0 -33,-15 -33,-33 0,-18 15,-33 33,-33 18,0 33,15 33,33 0,18 -15,33 -33,33z"/>
  <path class="fil5" d="M12604 1299c-18,0 -33,-15 -33,-33 0,-18 15,-33 33,-33 19,0 33,15 33,33 0,18 -14,33 -33,33z"/>
  <path class="fil5" d="M12418 1375c-19,0 -34,-14 -34,-33 0,-18 15,-33 34,-33 18,0 33,15 33,33 0,19 -15,33 -33,33z"/>
  <path class="fil5" d="M12511 1375c-18,0 -33,-14 -33,-33 0,-18 15,-33 33,-33 18,0 33,15 33,33 0,19 -15,33 -33,33z"/>
  <path class="fil5" d="M12604 1375c-18,0 -33,-14 -33,-33 0,-18 15,-33 33,-33 19,0 33,15 33,33 0,19 -14,33 -33,33z"/>
  <path class="fil5" d="M12418 1452c-19,0 -34,-15 -34,-34 0,-18 15,-33 34,-33 18,0 33,15 33,33 0,19 -15,34 -33,34z"/>
  <path class="fil5" d="M12511 1452c-18,0 -33,-15 -33,-34 0,-18 15,-33 33,-33 18,0 33,15 33,33 0,19 -15,34 -33,34z"/>
  <path class="fil5" d="M12604 1452c-18,0 -33,-15 -33,-34 0,-18 15,-33 33,-33 19,0 33,15 33,33 0,19 -14,34 -33,34z"/>
  <path class="fil5" d="M12418 1528c-19,0 -34,-15 -34,-33 0,-19 15,-34 34,-34 18,0 33,15 33,34 0,18 -15,33 -33,33z"/>
  <path class="fil5" d="M12511 1528c-18,0 -33,-15 -33,-33 0,-19 15,-34 33,-34 18,0 33,15 33,34 0,18 -15,33 -33,33z"/>
  <path class="fil5" d="M12604 1528c-18,0 -33,-15 -33,-33 0,-19 15,-34 33,-34 19,0 33,15 33,34 0,18 -14,33 -33,33z"/>
  <path class="fil5" d="M12418 1604c-19,0 -34,-15 -34,-33 0,-19 15,-33 34,-33 18,0 33,14 33,33 0,18 -15,33 -33,33z"/>
  <path class="fil5" d="M12511 1604c-18,0 -33,-15 -33,-33 0,-19 15,-33 33,-33 18,0 33,14 33,33 0,18 -15,33 -33,33z"/>
  <path class="fil5" d="M12604 1604c-18,0 -33,-15 -33,-33 0,-19 15,-33 33,-33 19,0 33,14 33,33 0,18 -14,33 -33,33z"/>
  <path class="fil5" d="M12418 1680c-19,0 -34,-15 -34,-33 0,-18 15,-33 34,-33 18,0 33,15 33,33 0,18 -15,33 -33,33z"/>
  <path class="fil5" d="M12511 1680c-18,0 -33,-15 -33,-33 0,-18 15,-33 33,-33 18,0 33,15 33,33 0,18 -15,33 -33,33z"/>
  <path class="fil5" d="M12604 1680c-18,0 -33,-15 -33,-33 0,-18 15,-33 33,-33 19,0 33,15 33,33 0,18 -14,33 -33,33z"/>
  <path class="fil5" d="M12418 1756c-19,0 -34,-15 -34,-33 0,-18 15,-33 34,-33 18,0 33,15 33,33 0,18 -15,33 -33,33z"/>
  <path class="fil5" d="M12511 1756c-18,0 -33,-15 -33,-33 0,-18 15,-33 33,-33 18,0 33,15 33,33 0,18 -15,33 -33,33z"/>
  <path class="fil5" d="M12604 1756c-18,0 -33,-15 -33,-33 0,-18 15,-33 33,-33 19,0 33,15 33,33 0,18 -14,33 -33,33z"/>
  <path class="fil5" d="M12418 1832c-19,0 -34,-14 -34,-33 0,-18 15,-33 34,-33 18,0 33,15 33,33 0,19 -15,33 -33,33z"/>
  <path class="fil5" d="M12511 1832c-18,0 -33,-14 -33,-33 0,-18 15,-33 33,-33 18,0 33,15 33,33 0,19 -15,33 -33,33z"/>
  <path class="fil5" d="M12604 1832c-18,0 -33,-14 -33,-33 0,-18 15,-33 33,-33 19,0 33,15 33,33 0,19 -14,33 -33,33z"/>
  <path class="fil5" d="M12418 1909c-19,0 -34,-15 -34,-34 0,-18 15,-33 34,-33 18,0 33,15 33,33 0,19 -15,34 -33,34z"/>
  <path class="fil5" d="M12511 1909c-18,0 -33,-15 -33,-34 0,-18 15,-33 33,-33 18,0 33,15 33,33 0,19 -15,34 -33,34z"/>
  <path class="fil5" d="M12604 1909c-18,0 -33,-15 -33,-34 0,-18 15,-33 33,-33 19,0 33,15 33,33 0,19 -14,34 -33,34z"/>
  <path class="fil6" d="M14250 3151c-64,0 -116,-51 -116,-115 0,-64 52,-116 116,-116 64,0 116,52 116,116 0,64 -52,115 -116,115z"/>
  <path class="fil2" d="M14283 362c-24,0 -42,-19 -42,-42l0 -10c0,-79 -65,-144 -144,-144l-1085 0c-23,0 -42,-19 -42,-42 0,-23 19,-42 42,-42l1085 0c126,0 228,102 228,228l0 10c0,23 -19,42 -42,42z"/>
  <path class="fil2" d="M17822 665l-3317 0c-23,0 -42,-19 -42,-42 0,-23 19,-42 42,-42l3317 0c23,0 42,19 42,42 0,23 -19,42 -42,42z"/>
  <path class="fil7" d="M10970 2917l-4344 0c-181,0 -329,-148 -329,-329 0,-181 148,-329 329,-329l4344 0c181,0 329,148 329,329 0,181 -148,329 -329,329z"/>
  <path class="fil5" d="M7494 2043c-1264,44 -2610,84 -3379,84 -1884,0 -3470,-203 -3470,-203 -355,0 -645,290 -645,648l0 16c0,366 299,665 665,665 368,0 1539,-217 3502,-217 1004,0 2160,14 3327,34l0 -1027zm-6842 826l0 0c-155,0 -281,-126 -281,-281 0,-154 126,-280 281,-280 155,0 280,126 280,280 0,155 -125,281 -280,281z"/>
  <path class="fil6" d="M12949 511c0,47 -38,85 -85,85 -47,0 -85,-38 -85,-85 0,-47 38,-85 85,-85 47,0 85,38 85,85z"/>
  <path class="fil6" d="M13189 511c0,47 -38,85 -85,85 -47,0 -85,-38 -85,-85 0,-47 38,-85 85,-85 47,0 85,38 85,85z"/>
  <path class="fil6" d="M12949 766c0,47 -38,86 -85,86 -47,0 -85,-39 -85,-86 0,-47 38,-85 85,-85 47,0 85,38 85,85z"/>
 </g>
</svg>
