<?xml version="1.0" encoding="UTF-8"?>
<!DOCTYPE svg PUBLIC "-//W3C//DTD SVG 1.1//EN" "http://www.w3.org/Graphics/SVG/1.1/DTD/svg11.dtd">
<!-- Creator: CorelDRAW X7 -->
<svg xmlns="http://www.w3.org/2000/svg" xml:space="preserve" width="2.76228in" height="2.76228in" version="1.1" style="shape-rendering:geometricPrecision; text-rendering:geometricPrecision; image-rendering:optimizeQuality; fill-rule:evenodd; clip-rule:evenodd"
viewBox="0 0 1842 1842"
 xmlns:xlink="http://www.w3.org/1999/xlink">
 <defs>
  <style type="text/css">
   <![CDATA[
    .fil0 {fill:#333B47}
   ]]>
  </style>
 </defs>
 <g id="Layer_x0020_1">
  <metadata id="CorelCorpID_0Corel-Layer"/>
  <path class="fil0" d="M767 1605c-293,0 -530,-237 -530,-529 0,-293 237,-530 530,-530 292,0 529,237 529,530 0,292 -237,529 -529,529zm743 -610l-23 0c-24,0 -43,-17 -47,-39 -7,-40 -17,-78 -30,-114 -8,-22 1,-45 21,-57l19 -11c12,-7 16,-21 9,-32l-57 -99c-6,-11 -21,-15 -32,-9l-21 12c-19,12 -44,7 -59,-11 -25,-30 -53,-58 -83,-83 -18,-15 -22,-39 -11,-59l12 -21c6,-11 3,-25 -9,-32l-98 -57c-12,-6 -26,-2 -33,9l-11 20c-11,19 -35,28 -56,21 -37,-14 -75,-24 -114,-31 -23,-4 -40,-23 -40,-46l0 -23c0,-13 -10,-24 -23,-24l-114 0c-13,0 -24,11 -24,24l0 23c0,23 -17,42 -39,46 -40,7 -78,17 -114,31 -22,7 -45,-2 -57,-21l-11 -20c-7,-11 -21,-15 -32,-9l-99 57c-11,7 -15,21 -9,32l12 21c12,20 7,44 -11,59 -30,25 -58,53 -83,83 -15,18 -39,23 -59,11l-21 -12c-11,-6 -25,-2 -32,9l-57 99c-6,11 -2,25 9,32l20 11c19,12 28,35 21,57 -14,36 -24,74 -31,114 -4,22 -23,39 -46,39l-23 0c-13,0 -24,11 -24,24l0 114c0,13 11,23 24,23l23 0c23,0 42,17 46,40 7,39 17,77 31,114 7,21 -2,45 -21,56l-20 11c-11,7 -15,21 -9,33l57 98c7,12 21,15 32,9l21 -12c20,-11 44,-7 59,11 25,30 53,58 83,83 18,15 23,40 11,59l-12 21c-6,11 -2,26 9,32l99 57c11,7 25,3 32,-9l11 -19c12,-20 35,-29 57,-21 36,13 74,23 114,30 22,4 39,23 39,47l0 23c0,13 11,23 24,23l114 0c13,0 23,-10 23,-23l0 -23c0,-24 17,-43 40,-47 39,-7 77,-17 114,-30 21,-8 45,1 56,21l11 19c7,12 21,16 33,9l98 -57c12,-6 15,-21 9,-32l-12 -21c-11,-19 -7,-44 11,-59 30,-25 58,-53 83,-83 15,-18 40,-22 59,-11l21 12c11,6 26,3 32,-9l57 -98c7,-12 3,-26 -9,-33l-19 -11c-20,-11 -29,-35 -21,-56 13,-37 23,-75 30,-114 4,-23 23,-40 47,-40l23 0c13,0 23,-10 23,-23l0 -114c0,-13 -10,-24 -23,-24z"/>
  <path class="fil0" d="M1532 514c-103,0 -186,-83 -186,-186 0,-103 83,-187 186,-187 103,0 187,84 187,187 0,103 -84,186 -187,186zm273 -186c0,-23 -3,-45 -8,-67 -2,-8 2,-18 9,-22l31 -18c5,-3 7,-9 4,-14l-50 -87c-3,-5 -9,-6 -14,-4l-31 18c-8,5 -18,3 -24,-3 -32,-30 -71,-53 -114,-66 -9,-2 -15,-10 -15,-19l0 -36c0,-5 -5,-10 -10,-10l-101 0c-6,0 -10,5 -10,10l0 36c0,9 -6,17 -15,19 -43,13 -82,36 -114,66 -6,6 -16,8 -24,3l-31 -18c-5,-2 -11,-1 -14,4l-50 87c-3,5 -1,11 3,14l31 18c8,4 12,14 10,22 -6,22 -9,44 -9,67 0,22 3,44 8,65 3,9 -1,18 -9,23l-31 17c-4,3 -6,9 -3,14l50 88c3,4 9,6 14,3l30 -17c8,-5 18,-4 25,3 31,30 70,53 114,66 9,2 15,10 15,19l0 35c0,6 4,11 10,11l101 0c5,0 10,-5 10,-11l0 -35c0,-9 6,-17 15,-19 43,-13 82,-36 114,-66 7,-7 16,-8 24,-3l31 17c5,3 11,1 14,-3l50 -88c3,-5 1,-11 -4,-14l-30 -17c-8,-5 -12,-14 -10,-23 5,-21 8,-43 8,-65z"/>
 </g>
</svg>
