<?xml version="1.0" encoding="UTF-8"?>
<!DOCTYPE svg PUBLIC "-//W3C//DTD SVG 1.1//EN" "http://www.w3.org/Graphics/SVG/1.1/DTD/svg11.dtd">
<!-- Creator: CorelDRAW X7 -->
<svg xmlns="http://www.w3.org/2000/svg" xml:space="preserve" width="1.66285in" height="1.66284in" version="1.1" style="shape-rendering:geometricPrecision; text-rendering:geometricPrecision; image-rendering:optimizeQuality; fill-rule:evenodd; clip-rule:evenodd"
viewBox="0 0 547 547"
 xmlns:xlink="http://www.w3.org/1999/xlink">
 <defs>
  <style type="text/css">
   <![CDATA[
    .fil0 {fill:#1F464B;fill-rule:nonzero}
    .fil4 {fill:#2D3850;fill-rule:nonzero}
    .fil1 {fill:#3D546D;fill-rule:nonzero}
    .fil2 {fill:#BDC3C6;fill-rule:nonzero}
    .fil3 {fill:white;fill-rule:nonzero}
   ]]>
  </style>
 </defs>
 <g id="Objects">
  <metadata id="CorelCorpID_0Corel-Layer"/>
  <path class="fil0" d="M547 273c0,151 -123,274 -274,274 -150,0 -273,-123 -273,-274 0,-150 123,-273 273,-273 151,0 274,123 274,273z"/>
  <path class="fil1" d="M273 541c148,0 268,-120 268,-268 0,-147 -120,-267 -268,-267 -147,0 -267,120 -267,267 0,148 120,268 267,268z"/>
  <path class="fil2" d="M24 273c0,138 112,250 249,250 138,0 250,-112 250,-250 0,-137 -112,-249 -250,-249 -137,0 -249,112 -249,249z"/>
  <path class="fil3" d="M269 98c0,4 3,7 6,7 3,0 6,-3 6,-7l0 -53c0,-4 -3,-7 -6,-7 -3,0 -6,3 -6,7l0 53z"/>
  <path class="fil4" d="M321 83c-1,2 0,5 2,5 2,1 4,-1 5,-3l9 -32c0,-3 -1,-5 -3,-6 -2,0 -4,1 -4,4l-9 32z"/>
  <path class="fil4" d="M408 131c-2,2 -2,5 0,6 1,1 4,1 5,-1l24 -23c2,-2 2,-5 0,-6 -1,-1 -4,-1 -5,1l-24 23z"/>
  <path class="fil4" d="M460 217c-3,0 -4,2 -4,4 1,2 3,3 5,3l33 -9c2,-1 4,-3 3,-5 -1,-2 -3,-3 -5,-2l-32 9z"/>
  <path class="fil4" d="M56 325c-3,0 -4,3 -4,4 1,2 3,3 5,3l33 -9c2,0 4,-3 3,-4 -1,-2 -3,-3 -5,-3l-32 9z"/>
  <path class="fil4" d="M461 316c-2,0 -4,1 -5,3 0,1 1,4 4,4l32 9c2,0 4,-1 5,-3 1,-1 -1,-4 -3,-4l-33 -9z"/>
  <path class="fil4" d="M57 208c-2,-1 -4,0 -5,2 0,2 1,4 4,5l32 9c2,0 4,-1 5,-3 1,-2 -1,-4 -3,-4l-33 -9z"/>
  <path class="fil4" d="M118 108c-2,-2 -5,-2 -6,-1 -2,1 -1,4 0,6l24 23c2,2 4,2 6,1 1,-1 1,-4 -1,-6l-23 -23z"/>
  <path class="fil4" d="M220 51c-1,-3 -3,-4 -5,-4 -2,1 -3,3 -2,6l8 32c1,2 3,4 5,3 2,0 3,-3 2,-5l-8 -32z"/>
  <path class="fil3" d="M356 118c-2,4 -1,8 2,9 2,2 6,1 8,-3l27 -46c2,-3 1,-8 -2,-9 -2,-2 -6,0 -8,3l-27 46z"/>
  <path class="fil3" d="M421 179c-3,2 -5,6 -3,9 2,3 6,3 9,1l46 -26c4,-2 5,-6 4,-9 -2,-3 -6,-3 -10,-1l-46 26z"/>
  <path class="fil3" d="M77 378c-4,2 -5,6 -3,9 1,2 5,3 9,1l46 -26c3,-2 5,-6 3,-9 -1,-3 -6,-4 -9,-2l-46 27z"/>
  <path class="fil3" d="M447 265c-4,0 -7,2 -7,5 0,4 3,6 7,6l54 0c4,0 7,-2 7,-6 0,-3 -3,-5 -7,-5l-54 0z"/>
  <path class="fil3" d="M50 265c-4,0 -8,2 -8,5 0,4 4,6 8,6l53 0c4,0 7,-2 7,-6 0,-3 -3,-5 -7,-5l-53 0z"/>
  <path class="fil3" d="M427 351c-3,-2 -7,-1 -9,2 -2,3 0,7 3,9l46 26c4,2 8,1 10,-1 1,-3 0,-7 -4,-9l-46 -27z"/>
  <path class="fil3" d="M83 153c-4,-2 -8,-2 -9,1 -2,3 -1,7 3,9l46 26c3,2 8,2 9,-1 2,-3 0,-7 -3,-9l-46 -26z"/>
  <path class="fil3" d="M167 72c-2,-3 -5,-5 -8,-3 -3,1 -4,6 -2,9l27 46c2,4 6,5 9,3 2,-1 3,-5 1,-9l-27 -46z"/>
  <path class="fil4" d="M442 195c4,-2 8,-2 9,-1 0,2 -2,4 -7,7 -20,11 -168,80 -168,80 -2,1 -5,0 -6,-3l-2 -4c-2,-3 0,-6 2,-7 0,0 150,-65 172,-72z"/>
  <path class="fil1" d="M272 311c21,0 38,-17 38,-39 0,-21 -17,-38 -38,-38 -21,0 -39,17 -39,38 0,22 18,39 39,39z"/>
  <path class="fil4" d="M251 272c0,12 10,21 21,21 11,0 20,-9 20,-21 0,-11 -9,-20 -20,-20 -11,0 -21,9 -21,20z"/>
 </g>
</svg>
