<?xml version="1.0" encoding="UTF-8"?>
<!DOCTYPE svg PUBLIC "-//W3C//DTD SVG 1.1//EN" "http://www.w3.org/Graphics/SVG/1.1/DTD/svg11.dtd">
<!-- Creator: CorelDRAW X7 -->
<svg xmlns="http://www.w3.org/2000/svg" xml:space="preserve" width="5.06112in" height="3.00332in" version="1.1" style="shape-rendering:geometricPrecision; text-rendering:geometricPrecision; image-rendering:optimizeQuality; fill-rule:evenodd; clip-rule:evenodd"
viewBox="0 0 4239 2516"
 xmlns:xlink="http://www.w3.org/1999/xlink">
 <defs>
  <style type="text/css">
   <![CDATA[
    .fil2 {fill:#222324}
    .fil0 {fill:#4A4B4D}
    .fil1 {fill:#58595B}
   ]]>
  </style>
 </defs>
 <g id="Layer_x0020_1">
  <metadata id="CorelCorpID_0Corel-Layer"/>
  <path class="fil0" d="M2467 567l-2368 -567c0,0 -191,68 -42,226l2265 1015c0,0 404,214 1046,819l136 73c0,0 562,14 718,-463 0,0 -69,-142 -154,-73 0,0 -96,441 -633,259 0,0 -293,-459 -968,-1289z"/>
  <path class="fil1" d="M2502 1911l-2360 605c0,0 -191,-65 -45,-226l2250 -1051c0,0 399,-220 1032,-835l135 -74c0,0 562,-23 725,451 0,0 -67,143 -153,75 0,0 -103,-439 -637,-249 1,0 -286,464 -947,1304z"/>
  <path class="fil2" d="M2842 1358c-56,56 -147,56 -203,0l0 0c-56,-56 -56,-147 0,-204l0 0c56,-56 147,-56 203,1l0 0c56,56 56,147 0,203l0 0z"/>
 </g>
</svg>
