<?xml version="1.0" encoding="UTF-8"?>
<!DOCTYPE svg PUBLIC "-//W3C//DTD SVG 1.1//EN" "http://www.w3.org/Graphics/SVG/1.1/DTD/svg11.dtd">
<!-- Creator: CorelDRAW X7 -->
<svg xmlns="http://www.w3.org/2000/svg" xml:space="preserve" width="2.51632in" height="6.42281in" version="1.1" style="shape-rendering:geometricPrecision; text-rendering:geometricPrecision; image-rendering:optimizeQuality; fill-rule:evenodd; clip-rule:evenodd"
viewBox="0 0 2440 6229"
 xmlns:xlink="http://www.w3.org/1999/xlink">
 <defs>
  <style type="text/css">
   <![CDATA[
    .fil1 {fill:#FEFEFE}
    .fil2 {fill:#BDBFC1}
    .fil0 {fill:#848688}
    .fil3 {fill:#4B4B4D}
   ]]>
  </style>
 </defs>
 <g id="Layer_x0020_1">
  <metadata id="CorelCorpID_0Corel-Layer"/>
  <path class="fil0" d="M2060 1679c0,17 -8,35 -20,47 -13,13 -30,20 -48,20l-1544 0c-18,0 -35,-7 -48,-20 -12,-12 -19,-30 -19,-47l0 -819c0,-18 7,-35 19,-48 13,-12 30,-19 48,-19l1544 0c18,0 35,7 48,19 12,13 20,30 20,48l0 819zm246 -1021l-2171 0 0 1349c188,-54 382,-94 581,-119 22,-3 45,-6 67,-9 23,-2 45,-4 68,-6 122,-12 245,-18 369,-18 125,0 248,6 369,18 23,2 45,4 68,6 22,3 45,6 67,9 199,25 393,65 582,119l0 -1349z"/>
  <path class="fil1" d="M1306 1183c-22,-22 -52,-36 -86,-36 -34,0 -64,14 -86,36 -22,22 -36,52 -36,86 0,3 0,5 1,8l121 0 122 0c0,-3 0,-5 0,-8 0,-34 -13,-64 -36,-86z"/>
  <path class="fil1" d="M1099 1277c1,25 10,48 25,67l96 0 96 0c15,-19 24,-42 26,-67l-122 0 -121 0z"/>
  <path class="fil1" d="M1124 1344c3,4 6,8 10,12 22,22 52,35 86,35 34,0 64,-13 86,-35 4,-4 7,-8 10,-12l-96 0 -96 0z"/>
  <path class="fil2" d="M1476 1277c0,23 -4,46 -10,67 -8,24 -19,47 -32,67 -10,15 -20,28 -32,40 -47,46 -111,75 -182,75 -71,0 -135,-29 -181,-75 -12,-12 -23,-25 -33,-40 -13,-20 -24,-43 -31,-67 -7,-21 -10,-44 -11,-67 0,-3 -1,-5 -1,-8 0,-70 29,-135 76,-181 46,-46 110,-75 181,-75 71,0 135,29 182,75 46,46 75,111 75,181 0,3 -1,5 -1,8zm449 -350l-1410 0 0 684 1410 0 0 -684zm-1078 1081c-32,1119 -140,1926 -199,2296l1144 0c-59,-370 -167,-1177 -199,-2296 -123,-12 -247,-18 -373,-18 -126,0 -250,6 -373,18zm-712 -1611l0 127 2171 0 0 -127 -2171 0zm1818 4051c-22,-5 -46,-9 -70,-9 -2,0 -4,0 -5,0l-1315 0c-2,0 -4,0 -6,0 -24,0 -47,4 -70,9 -55,14 -105,43 -144,82 -57,57 -92,134 -92,220l0 449 297 0c16,-159 88,-303 195,-410 122,-122 291,-198 477,-198 186,0 356,76 477,198 108,107 179,251 195,410l297 0 0 -449c0,-86 -35,-163 -91,-220 -40,-39 -89,-68 -145,-82zm353 -4186l0 -127 -2171 0 0 127 2171 0zm-414 5072c-16,159 -87,303 -195,410 -121,122 -291,197 -477,197 -186,0 -355,-75 -477,-197 -107,-107 -179,-251 -195,-410l-297 0 0 449c0,86 35,163 92,220 56,56 133,91 220,91l1315 0c86,0 163,-35 220,-91 56,-57 91,-134 91,-220l0 -449 -297 0z"/>
  <path class="fil3" d="M135 262l0 -127 2171 0 0 127 -2171 0zm0 262l0 -127 2171 0 0 127 -2171 0zm1589 1364c-22,-3 -45,-6 -67,-9 -23,-2 -45,-4 -68,-6 -121,-12 -244,-18 -369,-18 -124,0 -247,6 -369,18 -23,2 -45,4 -68,6 -22,3 -45,6 -67,9 -199,25 -393,65 -581,119l0 -1349 2171 0 0 1349c-189,-54 -383,-94 -582,-119zm68 2416l-1144 0c59,-370 167,-1177 199,-2296 123,-12 247,-18 373,-18 126,0 250,6 373,18 32,1119 140,1926 199,2296zm91 135c24,0 48,4 70,9 56,14 105,43 145,82 56,57 91,134 91,220l0 449 -297 0c-16,-159 -87,-303 -195,-410 -121,-122 -291,-198 -477,-198 -186,0 -355,76 -477,198 -107,107 -179,251 -195,410l-297 0 0 -449c0,-86 35,-163 92,-220 39,-39 89,-68 144,-82 23,-5 46,-9 70,-9 2,0 4,0 6,0l1315 0c1,0 3,0 5,0zm-1203 827c0,-149 60,-284 158,-382 98,-98 233,-158 382,-158 150,0 284,60 382,158 98,98 158,233 158,382l0 0c0,150 -60,284 -158,382 -98,98 -232,159 -382,159 -149,0 -284,-61 -382,-159 -98,-98 -158,-232 -158,-382 0,0 0,0 0,0l0 0zm1418 737c-57,56 -134,91 -220,91l-1315 0c-87,0 -164,-35 -220,-91 -57,-57 -92,-134 -92,-220l0 -449 297 0c16,159 88,303 195,410 122,122 291,197 477,197 186,0 356,-75 477,-197 108,-107 179,-251 195,-410l297 0 0 449c0,86 -35,163 -91,220zm323 -5983c-13,-13 -30,-20 -48,-20l-2306 0c-17,0 -35,7 -47,20 -13,12 -20,30 -20,47l0 2030c0,22 10,42 27,54 18,13 40,17 60,10 202,-62 411,-109 625,-137 -20,664 -66,1216 -113,1630 -30,274 -61,487 -84,631 -1,8 -3,15 -4,22 -102,12 -195,59 -264,128 -80,80 -130,192 -130,315l0 1033c0,123 50,235 130,315 81,81 193,131 316,131l1315 0c123,0 234,-50 315,-131 81,-80 131,-192 131,-315l0 -1033c0,-123 -50,-235 -131,-315 -69,-69 -162,-116 -264,-128 -57,-351 -167,-1156 -201,-2283 214,28 423,75 625,137 20,7 43,3 60,-10 17,-12 27,-32 27,-54l0 -2030c0,-17 -7,-35 -19,-47zm-1287 1163c22,-22 52,-36 86,-36 34,0 64,14 86,36 23,22 36,52 36,86 0,3 0,5 0,8 -2,25 -11,48 -26,67 -3,4 -6,8 -10,12 -22,22 -52,35 -86,35 -34,0 -64,-13 -86,-35 -4,-4 -7,-8 -10,-12 -15,-19 -24,-42 -25,-67 -1,-3 -1,-5 -1,-8 0,-34 14,-64 36,-86zm-159 161c7,24 18,47 31,67 10,15 21,28 33,40 46,46 110,75 181,75 71,0 135,-29 182,-75 12,-12 22,-25 32,-40 13,-20 24,-43 32,-67 6,-21 10,-44 10,-67 0,-3 1,-5 1,-8 0,-70 -29,-135 -75,-181 -47,-46 -111,-75 -182,-75 -71,0 -135,29 -181,75 -47,46 -76,111 -76,181 1,3 1,5 1,8 1,23 4,46 11,67zm950 267l-1410 0 0 -684 1410 0 0 684zm67 -818l-1544 0c-18,0 -35,7 -48,19 -12,13 -19,30 -19,48l0 819c0,17 7,35 19,47 13,13 30,20 48,20l1544 0c18,0 35,-7 48,-20 12,-12 20,-30 20,-47l0 -819c0,-18 -8,-35 -20,-48 -13,-12 -30,-19 -48,-19z"/>
 </g>
</svg>
