<?xml version="1.0" encoding="UTF-8"?>
<!DOCTYPE svg PUBLIC "-//W3C//DTD SVG 1.1//EN" "http://www.w3.org/Graphics/SVG/1.1/DTD/svg11.dtd">
<!-- Creator: CorelDRAW X7 -->
<svg xmlns="http://www.w3.org/2000/svg" xml:space="preserve" width="2.36542in" height="2.36394in" version="1.1" style="shape-rendering:geometricPrecision; text-rendering:geometricPrecision; image-rendering:optimizeQuality; fill-rule:evenodd; clip-rule:evenodd"
viewBox="0 0 270 270"
 xmlns:xlink="http://www.w3.org/1999/xlink">
 <defs>
  <style type="text/css">
   <![CDATA[
    .fil0 {fill:#606062}
    .fil1 {fill:#525253}
   ]]>
  </style>
 </defs>
 <g id="Layer_x0020_1">
  <metadata id="CorelCorpID_0Corel-Layer"/>
  <path class="fil0" d="M116 160c-5,0 -8,-4 -8,-8l0 -34c0,-4 3,-8 8,-8l19 0 0 -105c-2,0 -3,-5 -5,-5 -2,0 -3,5 -4,6 -2,0 -4,-5 -6,-5 -1,0 -2,5 -4,6 -1,0 -4,-5 -6,-5 -1,0 -2,6 -3,6 -2,1 -5,-4 -6,-4 -2,1 -2,6 -3,7 -2,0 -5,-4 -7,-4 -1,1 -1,6 -2,7 -2,0 -5,-4 -7,-3 -1,0 -1,6 -2,6 -2,1 -5,-3 -7,-2 -1,1 0,6 -1,7 -2,1 -6,-3 -7,-2 -2,1 0,6 -2,7 -1,1 -5,-3 -7,-2 -1,1 1,6 0,7 -2,1 -6,-2 -7,-1 -2,1 1,6 -1,7 -1,1 -6,-1 -7,0 -1,1 2,6 1,7 -1,1 -6,-1 -8,0 -1,1 2,6 1,7 -1,1 -6,-1 -7,0 -1,2 2,6 2,7 -1,2 -7,0 -8,1 0,2 3,6 2,7 -1,2 -6,0 -7,2 -1,1 3,5 3,7 -1,1 -7,0 -7,2 -1,1 3,5 3,6 -1,2 -7,1 -7,3 -1,1 4,5 3,6 0,2 -6,1 -6,3 -1,2 4,5 3,6 0,2 -5,2 -6,4 0,1 5,4 4,5 0,2 -5,3 -6,4 0,2 5,4 5,6 0,1 -6,2 -6,4 0,2 5,4 5,5 0,2 -5,3 -5,5 0,2 5,3 5,5 0,1 -5,3 -5,5 0,1 6,3 6,4 0,2 -5,4 -5,6 1,1 6,2 6,4 1,1 -4,4 -4,5 1,2 6,2 6,4 1,1 -4,4 -3,6 0,1 6,1 6,3 1,1 -4,5 -3,6 0,2 6,1 7,3 0,1 -4,5 -3,6 0,2 6,1 7,2 0,2 -4,6 -3,7 1,1 6,0 7,2 1,1 -2,5 -2,6 1,2 7,0 8,1 0,2 -3,6 -2,7 1,2 6,0 7,1 1,1 -2,6 -1,7 2,1 6,-1 8,0 1,1 -2,6 -1,7 1,1 6,-2 7,0 2,1 -1,6 1,7 1,1 5,-2 7,-1 1,1 -1,6 0,7 2,1 6,-3 7,-2 2,1 0,6 2,7 1,1 5,-3 7,-2 1,1 0,6 1,7 2,1 5,-3 7,-3 1,1 1,7 2,7 2,1 5,-3 7,-3 1,1 1,6 2,7 2,0 5,-4 7,-4 1,1 1,6 3,7 1,0 4,-5 6,-4 1,0 2,5 3,6 2,0 5,-5 6,-5 2,1 3,6 4,6 2,0 4,-5 6,-5 1,0 2,6 4,6 2,0 3,-5 5,-5l0 -105 -19 0z"/>
  <path class="fil1" d="M140 270c2,0 3,-6 5,-6 1,0 3,5 5,5 1,0 2,-5 4,-6 2,0 4,5 6,5 1,-1 2,-6 3,-6 2,-1 5,4 6,4 2,-1 2,-6 3,-7 2,0 5,4 7,4 1,-1 1,-6 2,-7 2,0 5,4 7,3 1,0 1,-6 2,-7 2,0 5,4 7,3 1,-1 0,-6 2,-7 1,-1 5,3 6,2 2,-1 0,-6 2,-7 1,-1 5,3 7,2 1,-1 -1,-6 0,-7 2,-1 6,2 7,1 2,-1 -1,-6 1,-7 1,-1 6,1 7,0 1,-1 -2,-6 -1,-7 2,-1 7,1 8,0 1,-1 -2,-6 -1,-7 1,-1 6,1 7,-1 1,-1 -2,-5 -1,-7 0,-1 6,1 7,-1 1,-1 -3,-5 -2,-6 1,-2 6,-1 7,-2 1,-1 -3,-5 -3,-7 1,-1 7,0 7,-2 1,-1 -3,-5 -3,-6 1,-2 7,-1 7,-3 1,-1 -4,-5 -3,-6 0,-2 6,-2 6,-3 1,-2 -4,-5 -3,-6 0,-2 6,-2 6,-4 0,-1 -5,-4 -4,-5 0,-2 5,-3 6,-4 0,-2 -5,-4 -5,-6 0,-1 6,-3 6,-4 0,-2 -5,-4 -5,-5 0,-2 5,-3 5,-5 0,-2 -5,-3 -5,-5 0,-1 5,-3 5,-5 0,-2 -6,-3 -6,-4 0,-2 5,-4 5,-6 -1,-1 -6,-2 -6,-4 -1,-1 4,-4 4,-5 0,-2 -6,-2 -6,-4 -1,-1 4,-4 3,-6 0,-2 -6,-1 -6,-3 -1,-1 4,-5 3,-6 0,-2 -6,-1 -7,-3 0,-1 4,-5 3,-6 0,-2 -6,-1 -7,-2 0,-2 4,-6 3,-7 -1,-2 -6,0 -7,-2 -1,-1 3,-5 2,-7 -1,-1 -6,1 -7,-1 -1,-1 2,-5 1,-7 -1,-1 -6,1 -7,0 -1,-1 2,-6 1,-7 -1,-1 -6,1 -8,0 -1,-1 2,-6 1,-7 -1,-1 -6,1 -7,0 -2,-1 1,-6 -1,-7 -1,-1 -5,2 -7,1 -1,-1 1,-6 0,-7 -2,-1 -6,3 -7,2 -2,-1 0,-6 -2,-7 -1,-1 -5,3 -6,2 -2,-1 -1,-6 -2,-7 -2,-1 -5,3 -7,2 -1,0 -1,-6 -2,-6 -2,-1 -5,3 -7,3 -1,-1 -1,-6 -2,-7 -2,0 -5,4 -7,4 -1,-1 -1,-6 -3,-7 -1,0 -4,5 -6,4 -1,0 -2,-6 -3,-6 -2,0 -4,5 -6,5 -2,-1 -3,-6 -4,-6 -2,0 -4,5 -5,5 -2,-1 -3,-6 -5,-6 -2,0 -3,5 -5,5l0 105 14 0c4,0 8,4 8,8l0 34c0,4 -4,8 -8,8l-14 0 0 105c2,0 3,5 5,5z"/>
 </g>
</svg>
