<?xml version="1.0" encoding="UTF-8"?>
<!DOCTYPE svg PUBLIC "-//W3C//DTD SVG 1.1//EN" "http://www.w3.org/Graphics/SVG/1.1/DTD/svg11.dtd">
<!-- Creator: CorelDRAW X7 -->
<svg xmlns="http://www.w3.org/2000/svg" xml:space="preserve" width="0.589551in" height="0.589531in" version="1.1" style="shape-rendering:geometricPrecision; text-rendering:geometricPrecision; image-rendering:optimizeQuality; fill-rule:evenodd; clip-rule:evenodd"
viewBox="0 0 131 131"
 xmlns:xlink="http://www.w3.org/1999/xlink">
 <defs>
  <style type="text/css">
   <![CDATA[
    .fil0 {fill:#282828;fill-rule:nonzero}
   ]]>
  </style>
 </defs>
 <g id="OBJECTS">
  <metadata id="CorelCorpID_0Corel-Layer"/>
  <path class="fil0" d="M123 89c-6,-6 -15,-7 -23,-5l-19 -19 19 -19c8,3 17,1 22,-5 7,-6 10,-17 7,-25l-14 14c-3,3 -8,3 -10,0l-5 -4c-3,-3 -2,-8 1,-11l14 -14c-8,-3 -20,1 -26,7 -6,6 -7,15 -4,23l-19 19 -20 -19c3,-8 1,-17 -5,-23 -6,-6 -17,-10 -25,-7l14 14c3,4 3,8 0,11l-4 5c-3,2 -8,2 -11,-1l-14 -14c-3,8 1,19 7,25 6,7 15,8 23,5l19 19 -19 20c-8,-3 -17,-1 -23,5 -6,6 -10,17 -7,25l14 -14c4,-3 8,-3 11,-1l5 5c2,3 2,7 -1,11l-14 14c8,3 19,-1 25,-7 6,-6 8,-15 5,-23l20 -19 19 19c-3,8 -1,16 5,22 6,7 17,10 25,7l-14 -14c-3,-3 -3,-8 -1,-10l5 -5c3,-3 7,-2 11,1l14 14c3,-8 -1,-20 -7,-26z"/>
 </g>
</svg>
