<?xml version="1.0" encoding="UTF-8"?>
<!DOCTYPE svg PUBLIC "-//W3C//DTD SVG 1.1//EN" "http://www.w3.org/Graphics/SVG/1.1/DTD/svg11.dtd">
<!-- Creator: CorelDRAW X7 -->
<svg xmlns="http://www.w3.org/2000/svg" xml:space="preserve" width="2.73492in" height="2.70778in" version="1.1" style="shape-rendering:geometricPrecision; text-rendering:geometricPrecision; image-rendering:optimizeQuality; fill-rule:evenodd; clip-rule:evenodd"
viewBox="0 0 1174 1163"
 xmlns:xlink="http://www.w3.org/1999/xlink">
 <defs>
  <style type="text/css">
   <![CDATA[
    .fil0 {fill:#606062}
    .fil1 {fill:#525253}
   ]]>
  </style>
 </defs>
 <g id="Layer_x0020_1">
  <metadata id="CorelCorpID_0Corel-Layer"/>
  <path class="fil0" d="M462 581c0,-69 56,-125 125,-125l0 -336c-25,0 -59,-123 -83,-120 -25,4 -23,132 -47,139 -24,7 -91,-102 -114,-92 -23,11 16,133 -5,146 -21,14 -117,-72 -135,-55 -19,16 52,122 35,141 -16,19 -131,-36 -145,-15 -13,21 85,103 74,126 -10,22 -136,2 -143,26 -7,24 110,75 106,100 -3,24 -130,40 -130,65 0,26 127,42 130,66 4,25 -113,76 -106,100 7,24 133,3 143,26 11,23 -87,105 -74,126 14,21 129,-34 145,-16 17,19 -54,126 -35,142 18,16 114,-69 135,-55 21,13 -18,135 5,146 23,10 90,-99 114,-92 24,7 22,135 47,139 24,3 58,-120 83,-120l0 -336c-69,0 -125,-57 -125,-126z"/>
  <path class="fil1" d="M671 1163c25,-4 23,-132 46,-139 24,-7 92,102 114,92 23,-11 -15,-133 6,-146 21,-14 116,71 135,55 19,-16 -52,-123 -36,-142 16,-18 132,37 145,16 14,-21 -84,-103 -74,-126 10,-23 137,-2 144,-26 7,-24 -111,-75 -107,-100 3,-24 130,-40 130,-66 0,-25 -127,-41 -130,-65 -4,-25 114,-76 107,-100 -7,-24 -134,-4 -144,-26 -10,-23 88,-105 74,-126 -13,-21 -129,34 -145,15 -16,-19 55,-125 36,-141 -19,-17 -114,69 -135,55 -21,-13 17,-135 -6,-146 -22,-10 -90,99 -114,92 -23,-7 -21,-135 -46,-139 -25,-3 -58,120 -84,120l0 336c69,0 125,56 125,125 0,69 -56,126 -125,126l0 336c26,0 59,123 84,120z"/>
 </g>
</svg>
