<?xml version="1.0" encoding="UTF-8"?>
<!DOCTYPE svg PUBLIC "-//W3C//DTD SVG 1.1//EN" "http://www.w3.org/Graphics/SVG/1.1/DTD/svg11.dtd">
<!-- Creator: CorelDRAW X7 -->
<svg xmlns="http://www.w3.org/2000/svg" xml:space="preserve" width="3.98431in" height="1.894in" version="1.1" style="shape-rendering:geometricPrecision; text-rendering:geometricPrecision; image-rendering:optimizeQuality; fill-rule:evenodd; clip-rule:evenodd"
viewBox="0 0 3161 1503"
 xmlns:xlink="http://www.w3.org/1999/xlink">
 <defs>
  <style type="text/css">
   <![CDATA[
    .fil1 {fill:#BDBFC1}
    .fil0 {fill:#848688}
    .fil2 {fill:#4B4B4D}
   ]]>
  </style>
 </defs>
 <g id="Layer_x0020_1">
  <metadata id="CorelCorpID_0Corel-Layer"/>
  <path class="fil0" d="M2574 1326c0,6 -3,13 -7,17 -5,5 -11,7 -18,7l-1937 0c-6,0 -13,-2 -17,-7 -5,-4 -8,-11 -8,-17l0 -1149c0,-6 3,-13 8,-17 4,-5 11,-8 17,-8l1937 0c7,0 13,3 18,8 4,4 7,11 7,17l0 1149zm-2033 -987c-20,20 -48,32 -78,32 -31,0 -59,-12 -79,-32 -19,-20 -32,-48 -32,-78 0,-31 13,-58 32,-78 20,-20 48,-33 79,-33 30,0 58,13 78,33 19,20 32,47 32,78 0,30 -13,58 -32,78zm2264 -271c-12,-12 -28,-19 -45,-19l-2358 0c-18,0 -34,7 -46,19 -11,12 -18,28 -18,45l0 1276c0,18 7,34 18,46 12,11 28,19 46,19l2358 0c17,0 33,-8 45,-19 12,-12 19,-28 19,-46l0 -1276c0,-17 -7,-33 -19,-45z"/>
  <path class="fil1" d="M637 632l0 95 1888 0 0 -95 -1888 0zm0 -143l0 94 1888 0 0 -94 -1888 0zm0 -144l0 95 1888 0 0 -95 -1888 0zm2380 374l0 65 95 0 0 -65 -95 0zm-144 111l95 0 0 -157 -95 0 0 157zm-2236 -628l0 94 1888 0 0 -94 -1888 0zm1888 574l-1888 0 0 94 1888 0 0 -94zm-2476 8l95 0 0 -65 -95 0 0 65zm2476 136l-1888 0 0 94 1888 0 0 -94zm-2332 -226l0 0 0 115 0 21 95 0 0 -157 -95 0 0 21zm270 -494c-17,0 -33,6 -44,18 -11,11 -18,26 -18,43 0,17 7,32 18,43 11,11 27,18 44,18 16,0 32,-7 43,-18 11,-11 18,-26 18,-43 0,-17 -7,-32 -18,-43 -11,-12 -27,-18 -43,-18zm2062 863l-1888 0 0 95 1888 0 0 -95zm0 144l-1888 0 0 94 1888 0 0 -94z"/>
  <path class="fil2" d="M506 304c-11,11 -27,18 -43,18 -17,0 -33,-7 -44,-18 -11,-11 -18,-26 -18,-43 0,-17 7,-32 18,-43 11,-12 27,-18 44,-18 16,0 32,6 43,18 11,11 18,26 18,43 0,17 -7,32 -18,43zm-43 -154c-31,0 -59,13 -79,33 -19,20 -32,47 -32,78 0,30 13,58 32,78 20,20 48,32 79,32 30,0 58,-12 78,-32 19,-20 32,-48 32,-78 0,-31 -13,-58 -32,-78 -20,-20 -48,-33 -78,-33zm174 146l0 -94 1888 0 0 94 -1888 0zm0 144l0 -95 1888 0 0 95 -1888 0zm0 143l0 -94 1888 0 0 94 -1888 0zm0 144l0 -95 1888 0 0 95 -1888 0zm0 143l0 -94 1888 0 0 94 -1888 0zm0 144l0 -94 1888 0 0 94 -1888 0zm0 144l0 -95 1888 0 0 95 -1888 0zm0 143l0 -94 1888 0 0 94 -1888 0zm1912 -1149l-1937 0c-6,0 -13,3 -17,8 -5,4 -8,11 -8,17l0 1149c0,6 3,13 8,17 4,5 11,7 17,7l1937 0c7,0 13,-2 18,-7 4,-4 7,-11 7,-17l0 -1149c0,-6 -3,-13 -7,-17 -5,-5 -11,-8 -18,-8zm563 632l-95 0 0 -65 95 0 0 65zm-144 46l-95 0 0 -157 95 0 0 157zm-144 559c0,18 -7,34 -19,46 -12,11 -28,19 -45,19l-2358 0c-18,0 -34,-8 -46,-19 -11,-12 -18,-28 -18,-46l0 -1276c0,-17 7,-33 18,-45 12,-12 28,-19 46,-19l2358 0c17,0 33,7 45,19 12,12 19,28 19,45l0 1276zm-2536 -559l-95 0 0 -21 0 -115 0 0 0 -21 95 0 0 157zm-144 -46l-95 0 0 -65 95 0 0 65zm3010 -107c-4,-5 -11,-8 -17,-8l-120 0 0 -21c0,-6 -2,-13 -7,-17 -5,-5 -11,-7 -17,-7l-120 0 0 -511c0,-31 -13,-59 -33,-80 -21,-20 -49,-33 -80,-33l-2358 0c-32,0 -60,13 -80,33 -21,21 -34,49 -34,80l0 511 -119 0c-7,0 -13,2 -18,7 -4,4 -7,11 -7,17l0 21 -119 0c-7,0 -13,3 -18,8 -4,4 -7,10 -7,17l0 115c0,6 3,13 7,17 5,5 11,7 18,7l119 0 0 22c0,6 3,12 7,17 5,5 11,7 18,7l119 0 0 510c0,32 13,60 34,81 20,20 48,33 80,33l2358 0c31,0 59,-13 80,-33 20,-21 33,-49 33,-81l0 -510 120 0c6,0 12,-2 17,-7 5,-5 7,-11 7,-17l0 -22 120 0c6,0 13,-2 17,-7 5,-4 7,-11 7,-17l0 -115c0,-7 -2,-13 -7,-17z"/>
 </g>
</svg>
