<?xml version="1.0" encoding="UTF-8"?>
<!DOCTYPE svg PUBLIC "-//W3C//DTD SVG 1.1//EN" "http://www.w3.org/Graphics/SVG/1.1/DTD/svg11.dtd">
<!-- Creator: CorelDRAW X7 -->
<svg xmlns="http://www.w3.org/2000/svg" xml:space="preserve" width="0.56385in" height="0.314638in" version="1.1" style="shape-rendering:geometricPrecision; text-rendering:geometricPrecision; image-rendering:optimizeQuality; fill-rule:evenodd; clip-rule:evenodd"
viewBox="0 0 29 16"
 xmlns:xlink="http://www.w3.org/1999/xlink">
 <defs>
  <style type="text/css">
   <![CDATA[
    .fil0 {fill:#777876}
   ]]>
  </style>
 </defs>
 <g id="Layer_x0020_1">
  <metadata id="CorelCorpID_0Corel-Layer"/>
  <path class="fil0" d="M11 8l0 1c0,0 -1,1 -1,1l-1 0 0 -2 1 0c1,0 1,0 1,0l0 0zm18 -5l0 0 -7 0c1,-1 0,-1 0,-1l-1 0 0 -1c0,0 0,-1 0,-1l-3 0c0,0 0,1 0,1l0 0 -1 0 0 0c0,-1 0,-1 -1,-1l-16 0c0,0 0,0 0,0l0 3c0,0 0,0 0,0l1 0 0 1c0,0 0,0 0,0l0 10c0,0 0,1 0,1l1 0 0 1c0,0 0,0 0,0 1,0 1,0 2,0 0,0 0,0 0,0l0 -1 3 0c1,0 1,-1 1,-1l1 -3 1 0c0,0 1,-1 1,-2l0 -1c0,0 0,0 0,0l4 -1c0,0 1,0 1,-1l0 0c1,0 1,0 1,-1l0 0 1 0 0 0c0,0 0,1 0,1l3 0c0,0 0,-1 0,-1l0 -1 1 0c0,0 1,0 0,-1l7 0z"/>
 </g>
</svg>
