<?xml version="1.0" encoding="UTF-8"?>
<!DOCTYPE svg PUBLIC "-//W3C//DTD SVG 1.1//EN" "http://www.w3.org/Graphics/SVG/1.1/DTD/svg11.dtd">
<!-- Creator: CorelDRAW X7 -->
<svg xmlns="http://www.w3.org/2000/svg" xml:space="preserve" width="1.34848in" height="1.77361in" version="1.1" style="shape-rendering:geometricPrecision; text-rendering:geometricPrecision; image-rendering:optimizeQuality; fill-rule:evenodd; clip-rule:evenodd"
viewBox="0 0 468 615"
 xmlns:xlink="http://www.w3.org/1999/xlink">
 <defs>
  <style type="text/css">
   <![CDATA[
    .fil0 {fill:#0F3654;fill-rule:nonzero}
    .fil1 {fill:#164F77;fill-rule:nonzero}
    .fil4 {fill:#808285;fill-rule:nonzero}
    .fil3 {fill:#D6D6D6;fill-rule:nonzero}
    .fil5 {fill:#FD601F;fill-rule:nonzero}
    .fil2 {fill:white;fill-rule:nonzero}
   ]]>
  </style>
 </defs>
 <g id="Objects">
  <metadata id="CorelCorpID_0Corel-Layer"/>
  <path class="fil0" d="M468 594c0,12 -10,21 -21,21l-426 0c-12,0 -21,-9 -21,-21l0 -549c0,-11 9,-21 21,-21l426 0c11,0 21,10 21,21l0 549z"/>
  <path class="fil1" d="M468 578c0,12 -10,21 -21,21l-426 0c-12,0 -21,-9 -21,-21l0 -549c0,-11 9,-21 21,-21l426 0c11,0 21,10 21,21l0 549z"/>
  <polygon class="fil2" points="38,561 38,46 430,46 430,561 "/>
  <polygon class="fil3" points="38,561 38,545 430,545 430,561 "/>
  <path class="fil4" d="M325 74l0 -21c0,-7 -6,-13 -13,-13l-157 0c-7,0 -12,6 -12,13l0 21 182 0z"/>
  <path class="fil3" d="M325 64l0 -21c0,-7 -6,-12 -13,-12l-157 0c-7,0 -12,5 -12,12l0 21 182 0z"/>
  <path class="fil3" d="M263 29c0,17 -13,30 -29,30 -16,0 -30,-13 -30,-30 0,-16 14,-29 30,-29 16,0 29,13 29,29z"/>
  <path class="fil0" d="M246 29c0,7 -5,13 -12,13 -7,0 -13,-6 -13,-13 0,-7 6,-12 13,-12 7,0 12,5 12,12z"/>
  <polygon class="fil3" points="377,197 221,197 221,184 377,184 "/>
  <polygon class="fil3" points="377,250 221,250 221,237 377,237 "/>
  <polygon class="fil3" points="377,302 221,302 221,289 377,289 "/>
  <polygon class="fil3" points="377,355 221,355 221,342 377,342 "/>
  <polygon class="fil3" points="377,401 221,401 221,388 377,388 "/>
  <polygon class="fil3" points="377,454 221,454 221,441 377,441 "/>
  <polygon class="fil3" points="377,507 221,507 221,494 377,494 "/>
  <path class="fil5" d="M101 238c-3,0 -6,-2 -8,-4l-18 -19c-4,-4 -4,-11 0,-15 5,-4 11,-4 16,0l9 10 31 -38c4,-5 11,-5 16,-2 4,4 5,11 1,16l-39 48c-2,2 -5,3 -8,4 0,0 0,0 0,0z"/>
  <path class="fil5" d="M101 331c-3,0 -6,-1 -8,-3l-18 -19c-4,-4 -4,-11 0,-15 5,-4 11,-4 16,0l9 10 31 -38c4,-5 11,-6 16,-2 4,4 5,11 1,15l-39 48c-2,3 -5,4 -8,4 0,0 0,0 0,0z"/>
  <path class="fil5" d="M101 425c-3,0 -6,-1 -8,-3l-18 -19c-4,-4 -4,-11 0,-15 5,-5 11,-4 16,0l9 10 31 -39c4,-4 11,-5 16,-1 4,4 5,10 1,15l-39 48c-2,2 -5,4 -8,4 0,0 0,0 0,0z"/>
 </g>
</svg>
