<?xml version="1.0" encoding="UTF-8"?>
<!DOCTYPE svg PUBLIC "-//W3C//DTD SVG 1.1//EN" "http://www.w3.org/Graphics/SVG/1.1/DTD/svg11.dtd">
<!-- Creator: CorelDRAW X7 -->
<svg xmlns="http://www.w3.org/2000/svg" xml:space="preserve" width="2.28554in" height="2.49031in" version="1.1" style="shape-rendering:geometricPrecision; text-rendering:geometricPrecision; image-rendering:optimizeQuality; fill-rule:evenodd; clip-rule:evenodd"
viewBox="0 0 1027 1119"
 xmlns:xlink="http://www.w3.org/1999/xlink">
 <defs>
  <style type="text/css">
   <![CDATA[
    .fil0 {fill:#1A1A1A;fill-rule:nonzero}
   ]]>
  </style>
 </defs>
 <g id="Objects">
  <metadata id="CorelCorpID_0Corel-Layer"/>
  <path class="fil0" d="M127 583c16,-2 32,-3 48,-2 -7,-38 -11,-78 -11,-119 0,-28 2,-44 5,-71 97,25 210,28 330,28 120,0 233,-3 330,-28 4,27 6,43 6,71 0,22 -2,43 -4,64 33,1 61,6 75,22 10,-51 15,-104 15,-158 0,-36 -2,-72 -7,-108 -122,33 -264,51 -415,51 -151,0 -293,-18 -415,-51 -5,36 -7,72 -7,108 0,69 8,136 24,200 9,-3 17,-5 26,-7z"/>
  <path class="fil0" d="M695 872l-12 0c-51,61 -114,112 -184,150 -66,-36 -124,-83 -174,-139 -1,3 -3,6 -5,8 -12,17 -27,32 -43,44 63,74 138,136 222,184 90,-51 169,-119 234,-198 -15,-14 -27,-30 -38,-49z"/>
  <path class="fil0" d="M469 489c0,10 -8,18 -18,18l-81 0c-10,0 -18,-8 -18,-18 0,-10 8,-18 18,-18l81 0c10,0 18,8 18,18z"/>
  <path class="fil0" d="M252 478c-17,0 -31,21 -31,47 0,26 14,47 31,47 18,0 43,-21 43,-47 0,-26 -25,-47 -43,-47zm-6 79l0 0c-9,0 -16,-14 -16,-32 0,-18 7,-32 16,-32 9,0 16,14 16,32 0,18 -7,32 -16,32z"/>
  <path class="fil0" d="M399 520c-63,0 -85,26 -85,68 0,43 22,69 85,69 63,0 142,-10 142,-52 0,-42 -79,-85 -142,-85zm6 29l0 0c-44,0 -68,12 -79,33 3,-30 24,-48 73,-48 41,0 91,21 112,48 -29,-20 -70,-33 -106,-33z"/>
  <path class="fil0" d="M570 609c-6,72 -132,71 -132,71 0,0 -55,154 90,156 15,0 56,0 74,0 -6,-10 -35,-22 -30,-31 9,-16 31,-14 48,-15 18,-2 36,-2 53,-1 0,-10 0,-35 1,-58 4,-65 44,-93 44,-93l-148 -29zm-45 201l0 0c-97,-12 -68,-113 -68,-113 0,0 106,2 127,-64l93 20c0,0 -156,-5 -152,157z"/>
  <path class="fil0" d="M882 580c0,20 -49,32 -137,32 -88,0 -146,-12 -146,-32 0,-20 58,-18 146,-18 88,0 137,-2 137,18z"/>
  <path class="fil0" d="M904 784l-310 0c-15,0 -26,12 -26,26 0,14 11,26 26,26l310 0c14,0 26,-12 26,-26 0,-14 -12,-26 -26,-26zm-1 22l0 0 -279 0c-3,0 -6,-3 -6,-7 0,-3 3,-6 6,-6l279 0c4,0 7,3 7,6 0,4 -3,7 -7,7z"/>
  <path class="fil0" d="M252 704c12,15 21,33 24,54 11,64 -32,125 -96,135 -65,11 -126,-32 -136,-96 -11,-65 32,-125 96,-136 18,-3 35,-2 51,2l26 -35c-26,-10 -54,-14 -84,-9 -87,15 -145,98 -131,185 15,87 97,146 185,131 87,-15 145,-97 131,-184 -6,-32 -20,-60 -41,-83l-25 36z"/>
  <path class="fil0" d="M867 617c-86,0 -156,68 -160,153l43 0c3,-62 55,-111 117,-111 65,0 118,53 118,118 0,65 -53,118 -118,118 -37,0 -70,-17 -92,-44l-50 0c27,51 80,86 142,86 89,0 160,-71 160,-160 0,-88 -71,-160 -160,-160z"/>
  <path class="fil0" d="M383 476c-7,-7 -19,-7 -26,0l-213 286c-7,7 -7,18 0,25 7,7 19,7 26,0l213 -286c7,-7 7,-18 0,-25zm-46 45l0 0 -177 251c-2,2 -5,2 -7,0 -2,-2 -2,-6 0,-8l177 -251c2,-2 5,-2 7,0 2,2 2,6 0,8z"/>
  <path class="fil0" d="M84 261c122,32 262,51 413,51 151,0 295,-19 417,-51l0 -76c-122,33 -266,51 -417,51 -151,0 -291,-18 -413,-51l0 76z"/>
  <path class="fil0" d="M806 0c0,0 -46,47 -82,49 24,37 -43,67 -74,77 -62,20 -128,-16 -152,-60l0 0c0,0 0,0 0,0 0,0 0,0 0,0l0 0c-25,44 -91,80 -153,60 -30,-10 -97,-40 -74,-77 -36,-2 -82,-49 -82,-49l151 185c0,0 44,16 158,16 100,0 157,-16 157,-16l151 -185z"/>
  <polygon class="fil0" points="518,49 498,66 477,49 498,0 "/>
 </g>
</svg>
