<?xml version="1.0" encoding="UTF-8"?>
<!DOCTYPE svg PUBLIC "-//W3C//DTD SVG 1.1//EN" "http://www.w3.org/Graphics/SVG/1.1/DTD/svg11.dtd">
<!-- Creator: CorelDRAW X7 -->
<svg xmlns="http://www.w3.org/2000/svg" xml:space="preserve" width="9.15638in" height="3.0889in" version="1.1" style="shape-rendering:geometricPrecision; text-rendering:geometricPrecision; image-rendering:optimizeQuality; fill-rule:evenodd; clip-rule:evenodd"
viewBox="0 0 2643395 891747"
 xmlns:xlink="http://www.w3.org/1999/xlink">
 <defs>
  <style type="text/css">
   <![CDATA[
    .fil0 {fill:#292929;fill-rule:nonzero}
   ]]>
  </style>
 </defs>
 <g id="__x0023_Layer_x0020_1">
  <metadata id="CorelCorpID_0Corel-Layer"/>
  <path class="fil0" d="M1447186 21696c1950,306 3806,639 5501,1014 0,0 -1824,-409 -5501,-1014z"/>
  <path class="fil0" d="M1446548 21593c204,33 446,76 638,103 -212,-33 -423,-70 -638,-103z"/>
  <path class="fil0" d="M1010965 93127c90452,-27961 189327,-49134 271943,-61399l115363 -5818c8888,-2471 22833,-4173 40246,-5247 2854,264 5568,564 8031,930 -1880,-300 -4189,-633 -6958,-993 95898,-5723 295252,7324 349187,18119 115234,22406 316887,41612 297681,201652 697,19 1421,54 2130,74 -1888,18084 -4746,36001 -8732,53784 -10028,44703 -33318,79605 -54651,119073 -802,1449 1030,2791 2231,1723 31883,-28239 53778,-70357 66474,-110492 5869,-18540 11202,-40729 14107,-63346 86095,3363 174462,8787 260110,8787 -57615,-16007 -92824,-60820 -144038,-89632 -54407,-32000 -112019,-51206 -169634,-73612 -89634,-38415 -188852,-67218 -284889,-76821 -119517,-11951 -389639,-19704 -533098,17074 -44297,5774 -95796,14559 -155084,27738 -259271,57612 -419313,201651 -697791,268869l227266 -16001c0,0 224065,-160047 400106,-214462z"/>
  <path class="fil0" d="M1936628 683248c5354,-25489 14339,-50692 24869,-74438 20314,-45772 52181,-87155 93436,-115794 91235,-63318 218106,-29342 288098,50623 2449,3812 4801,7684 7029,11620 685,1196 2072,1328 3137,843 419,559 873,1087 1292,1647 736,995 2420,33 1687,-988 -575,-794 -1193,-1564 -1773,-2348 46,-325 278,-671 46,-1001 -167159,-230619 -373562,-74336 -424814,-6342 -38440,50999 -127259,41396 -211281,45398l-1072290 48009c0,0 19218,121635 16007,134435l1112179 -18309c15831,2442 32559,2122 47614,2036 21463,-122 50853,-2898 76685,-4081l27061 -445c3802,109 3426,-1763 1073,-4057 282,-86 610,-157 665,-494 3920,-22022 4668,-44338 9280,-66314z"/>
  <path class="fil0" d="M1507095 262778l28812 -238461c-7999,3198 -28812,0 -28812,0l-56021 254468c73615,1600 627368,-35215 627368,-35215l-571347 19208z"/>
  <path class="fil0" d="M1425462 595667c0,-136036 8007,-323286 8007,-323286l62420 -248064 -25609 1598 -54415 236863 -688578 37611 -7612 -804 -506 1246 -65101 3558c11089,1301 33146,1864 62874,1872l-22868 55745c-10279,51431 4209,185417 10314,236145 -6794,-75645 2495,-228143 2495,-228143l41078 -63909c207598,-2049 659900,-22517 659900,-22517 -9593,190451 17601,312085 17601,312085z"/>
  <path class="fil0" d="M704388 598151c658,7445 1484,14184 2495,19921 0,0 -1011,-7501 -2495,-19921z"/>
  <polygon class="fil0" points="1246222,356402 1359057,356402 1354256,334793 1248623,334793 "/>
  <polygon class="fil0" points="1846384,344396 1959215,344396 1954409,322793 1848781,322793 "/>
  <path class="fil0" d="M2643395 512439c-23056,-19213 -52212,-76785 -62956,-99034 -8564,-49074 2940,-145830 2940,-145830 -31211,-12000 -196845,-43212 -196845,-43212l165634 48018c-12002,9602 -40810,141636 -40810,141636l38632 1333c5885,50879 40594,87494 40594,87494 -64819,48010 -170441,57613 -170441,57613 62408,6066 108781,1472 142660,-6853 -1293,24836 -5412,68055 -18620,90073l-134432 64018c0,0 166443,-12811 198449,-38412l12033 -138370c16537,-10012 23162,-18474 23162,-18474z"/>
  <path class="fil0" d="M2158470 469235c-813,0 -1620,48 -2443,53 -142796,31909 -190834,177161 -204261,254920 20150,95695 105023,167539 206704,167539 116672,0 211251,-94586 211251,-211256 0,-116679 -94579,-211256 -211251,-211256zm2397 362492l0 0c-76896,0 -139241,-62336 -139241,-139236 0,-76904 62345,-139233 139241,-139233 76895,0 139241,62329 139241,139233 0,76900 -62346,139236 -139241,139236z"/>
  <path class="fil0" d="M2189671 583266l0 66014 67216 -18005c0,0 -13203,-39611 -67216,-48009z"/>
  <path class="fil0" d="M2132322 582252c0,0 -41761,318 -66442,49086l62797 20413 3645 -69499z"/>
  <path class="fil0" d="M2073356 763936l38809 -53413 -64962 -24947c0,0 -12604,39810 26153,78360z"/>
  <path class="fil0" d="M2119169 798453c0,0 33969,24293 82604,-650l-38807 -53417 -43797 54067z"/>
  <path class="fil0" d="M2248766 764903c0,0 33588,-24801 24892,-78767l-62792 20401 37900 58366z"/>
  <path class="fil0" d="M2120058 692491c0,22542 18266,40809 40809,40809 22543,0 40809,-18267 40809,-40809 0,-22536 -18266,-40810 -40809,-40810 -22543,0 -40809,18274 -40809,40810z"/>
  <path class="fil0" d="M413203 469235c-818,0 -1612,48 -2447,53 -188814,19147 -208012,180787 -204253,254920 20142,95695 105022,167539 206700,167539 116676,0 211254,-94586 211254,-211256 0,-116679 -94578,-211256 -211254,-211256zm2404 362492l0 0c-76903,0 -139245,-62336 -139245,-139236 0,-76904 62342,-139233 139245,-139233 76896,0 139234,62329 139234,139233 0,76900 -62338,139236 -139234,139236z"/>
  <path class="fil0" d="M444404 583266l0 66014 67224 -18005c0,0 -13204,-39611 -67224,-48009z"/>
  <path class="fil0" d="M387062 582252c0,0 -41764,318 -66449,49086l62800 20413 3649 -69499z"/>
  <path class="fil0" d="M328089 763936l38804 -53413 -64957 -24947c0,0 -12601,39810 26153,78360z"/>
  <path class="fil0" d="M373898 798453c0,0 33968,24293 82608,-650l-38811 -53417 -43797 54067z"/>
  <path class="fil0" d="M503499 764903c0,0 33588,-24801 24896,-78767l-62793 20401 37897 58366z"/>
  <path class="fil0" d="M374794 692491c0,22542 18271,40809 40813,40809 22535,0 40806,-18267 40806,-40809 0,-22536 -18271,-40810 -40806,-40810 -22542,0 -40813,18274 -40813,40810z"/>
  <path class="fil0" d="M42695 712496c0,0 -24946,-107334 3246,-199348 28866,-10563 101647,-31783 111980,-77529 5596,-24774 -7552,-33179 -25922,-30817 15366,-7726 32939,-13649 53140,-17192 0,0 -136034,6395 -172849,123231 -36810,116834 20800,225658 20800,225658l158439 3207 -6390 -30413 -142444 3203z"/>
 </g>
</svg>
