<?xml version="1.0" encoding="UTF-8"?>
<!DOCTYPE svg PUBLIC "-//W3C//DTD SVG 1.1//EN" "http://www.w3.org/Graphics/SVG/1.1/DTD/svg11.dtd">
<!-- Creator: CorelDRAW X7 -->
<svg xmlns="http://www.w3.org/2000/svg" xml:space="preserve" width="3.75039in" height="3.53533in" version="1.1" style="shape-rendering:geometricPrecision; text-rendering:geometricPrecision; image-rendering:optimizeQuality; fill-rule:evenodd; clip-rule:evenodd"
viewBox="0 0 2117 1995"
 xmlns:xlink="http://www.w3.org/1999/xlink">
 <defs>
  <style type="text/css">
   <![CDATA[
    .fil0 {fill:#606062}
   ]]>
  </style>
 </defs>
 <g id="Layer_x0020_1">
  <metadata id="CorelCorpID_0Corel-Layer"/>
  <path class="fil0" d="M1058 1794c-100,-145 -263,-387 -315,-498l107 -92c0,0 90,61 208,81 119,-20 209,-81 209,-81l107 92c-53,111 -215,353 -316,498zm-340 -993c-63,-5 -92,-97 -82,-150 10,-54 -19,-49 146,-175 165,-126 218,-10 174,0 -126,14 -257,131 -228,170 29,38 83,77 160,0 46,-46 118,-51 170,-48 52,-3 125,2 170,48 78,77 131,38 160,0 30,-39 90,-107 93,5 1,54 -20,145 -83,150 0,0 -99,382 -340,402 -241,-20 -340,-402 -340,-402zm340 -626c116,0 209,39 209,87 0,48 -93,88 -209,88 -115,0 -208,-40 -208,-88 0,-48 93,-87 208,-87zm892 1295l-586 -353 121 -277c0,0 78,-15 78,-141 0,-126 -53,-150 -53,-150 0,0 0,-224 -34,-306 -34,-83 -209,-219 -418,-243 -208,24 -383,160 -417,243 -34,82 -34,306 -34,306 0,0 -54,24 -54,150 0,126 78,141 78,141l121 277 -586 353c-62,37 -104,101 -115,173l-51 352 1058 0 1059 0 -52 -352c-10,-72 -52,-136 -115,-173z"/>
  <polygon class="fil0" points="971,226 1146,226 1146,294 971,294 "/>
 </g>
</svg>
