<?xml version="1.0" encoding="UTF-8"?>
<!DOCTYPE svg PUBLIC "-//W3C//DTD SVG 1.1//EN" "http://www.w3.org/Graphics/SVG/1.1/DTD/svg11.dtd">
<!-- Creator: CorelDRAW X7 -->
<svg xmlns="http://www.w3.org/2000/svg" xml:space="preserve" width="5.27934in" height="5.27934in" version="1.1" style="shape-rendering:geometricPrecision; text-rendering:geometricPrecision; image-rendering:optimizeQuality; fill-rule:evenodd; clip-rule:evenodd"
viewBox="0 0 1233 1233"
 xmlns:xlink="http://www.w3.org/1999/xlink">
 <defs>
  <style type="text/css">
   <![CDATA[
    .fil2 {fill:#F26B35;fill-rule:nonzero}
    .fil0 {fill:#29C0D8;fill-rule:nonzero}
    .fil1 {fill:#29A2B6;fill-rule:nonzero}
   ]]>
  </style>
 </defs>
 <g id="icons">
  <metadata id="CorelCorpID_0Corel-Layer"/>
  <path class="fil0" d="M530 172c-293,0 -530,237 -530,530 0,293 237,531 530,531 293,0 531,-238 531,-531 0,-293 -238,-530 -531,-530zm-446 574l0 0c-24,0 -43,-20 -43,-44 0,-24 19,-43 43,-43 24,0 44,19 44,43 0,24 -20,44 -44,44zm731 -390l0 0c17,-17 45,-17 62,0 17,17 17,45 0,62 -17,17 -45,17 -62,0 -17,-17 -17,-45 0,-62zm-91 91l0 0c17,-17 45,-17 62,0 17,17 17,44 0,61 -17,17 -45,17 -62,0 -17,-17 -17,-44 0,-61zm-194 -234l0 0c25,0 44,19 44,43 0,24 -19,44 -44,44 -24,0 -43,-20 -43,-44 0,-24 19,-43 43,-43zm0 128l0 0c25,0 44,20 44,44 0,24 -19,43 -44,43 -24,0 -43,-19 -43,-43 0,-24 19,-44 43,-44zm-255 106l0 0c17,-17 45,-17 62,0 17,17 17,44 0,61 -17,17 -45,17 -62,0 -17,-17 -17,-44 0,-61zm-29 602l0 0c-17,17 -45,17 -62,0 -17,-17 -17,-45 0,-62 17,-17 45,-17 62,0 17,17 17,45 0,62zm-77 -347l0 0c0,-24 20,-43 44,-43 24,0 43,19 43,43 0,24 -19,44 -43,44 -24,0 -44,-20 -44,-44zm77 -284l0 0c-17,17 -45,17 -62,0 -17,-17 -17,-45 0,-62 17,-17 45,-17 62,0 17,17 17,45 0,62zm91 540l0 0c-17,17 -45,17 -62,0 -17,-17 -17,-45 0,-62 17,-17 45,-17 62,0 17,17 17,45 0,62zm193 234l0 0c-24,0 -43,-19 -43,-43 0,-24 19,-44 43,-44 25,0 44,20 44,44 0,24 -19,43 -44,43zm0 -128l0 0c-24,0 -43,-20 -43,-44 0,-24 19,-43 43,-43 25,0 44,19 44,43 0,24 -19,44 -44,44zm0 -125l0 0c-130,0 -236,-106 -236,-237 0,-130 106,-236 236,-236 131,0 237,106 237,236 0,131 -106,237 -237,237zm256 19l0 0c-17,17 -45,17 -62,0 -17,-17 -17,-45 0,-62 17,-17 45,-17 62,0 17,17 17,45 0,62zm91 91l0 0c-17,17 -45,17 -62,0 -17,-17 -17,-45 0,-62 17,-17 45,-17 62,0 17,17 17,45 0,62zm-29 -303l0 0c-24,0 -43,-20 -43,-44 0,-24 19,-43 43,-43 24,0 44,19 44,43 0,24 -20,44 -44,44zm129 0l0 0c-24,0 -44,-20 -44,-44 0,-24 20,-43 44,-43 24,0 43,19 43,43 0,24 -19,44 -43,44z"/>
  <path class="fil1" d="M530 509c-106,0 -193,87 -193,193 0,107 87,194 193,194 107,0 194,-87 194,-194 0,-106 -87,-193 -194,-193zm0 251l0 0c-31,0 -57,-26 -57,-58 0,-31 26,-57 57,-57 32,0 58,26 58,57 0,32 -26,58 -58,58z"/>
  <path class="fil2" d="M530 0c-24,0 -48,1 -71,4l0 136c23,-3 47,-4 71,-4 313,0 567,254 567,566 0,80 -16,156 -46,224l10 13 131 0c26,-74 41,-154 41,-237 0,-388 -315,-702 -703,-702z"/>
  <path class="fil2" d="M530 150c-24,0 -48,1 -71,4l0 45 71 85c232,0 419,187 419,418 0,29 -3,58 -8,85l100 127c27,-65 42,-137 42,-212 0,-305 -247,-552 -553,-552z"/>
 </g>
</svg>
