<?xml version="1.0" encoding="UTF-8"?>
<!DOCTYPE svg PUBLIC "-//W3C//DTD SVG 1.1//EN" "http://www.w3.org/Graphics/SVG/1.1/DTD/svg11.dtd">
<!-- Creator: CorelDRAW X7 -->
<svg xmlns="http://www.w3.org/2000/svg" xml:space="preserve" width="2.28381in" height="2.28381in" version="1.1" style="shape-rendering:geometricPrecision; text-rendering:geometricPrecision; image-rendering:optimizeQuality; fill-rule:evenodd; clip-rule:evenodd"
viewBox="0 0 920 920"
 xmlns:xlink="http://www.w3.org/1999/xlink">
 <defs>
  <style type="text/css">
   <![CDATA[
    .fil0 {fill:#BDBFC1}
    .fil1 {fill:#848688}
    .fil2 {fill:#4B4B4D}
   ]]>
  </style>
 </defs>
 <g id="Layer_x0020_1">
  <metadata id="CorelCorpID_0Corel-Layer"/>
  <path class="fil0" d="M854 473l-63 0c-7,0 -12,-6 -12,-13 0,-7 5,-12 12,-12l63 0c7,0 12,5 12,12 0,7 -5,13 -12,13zm5 66c-2,7 -8,12 -15,10l-62 -12c-6,-1 -11,-8 -9,-15 1,-7 8,-11 14,-10l62 13c6,1 11,8 10,14zm-24 77c-2,6 -10,9 -16,6l-58 -24c-6,-2 -9,-10 -6,-16 2,-6 9,-9 16,-7l58 24c6,3 9,10 6,17zm-110 -333c-4,-6 -2,-13 3,-17l52 -35c6,-4 14,-2 18,3 4,6 2,14 -4,18l-52 35c-5,3 -13,2 -17,-4zm-40 -48c-4,-5 -4,-13 0,-18l45 -44c5,-5 12,-5 17,0 5,5 5,13 0,18l-44 44c-5,5 -13,5 -18,0zm-29 494c0,13 -6,25 -15,34 -9,9 -21,15 -34,15l-294 0c-13,0 -25,-6 -34,-15 -9,-9 -14,-21 -14,-34l0 -54c0,-13 5,-26 14,-34 9,-9 21,-15 34,-15l294 0c13,0 25,6 34,15 9,8 15,21 15,34l0 54zm-399 -472c5,-5 13,-5 18,0l136 136c14,-10 31,-16 49,-16 23,0 44,9 59,24 15,15 24,36 24,59 0,23 -9,44 -24,59 -15,15 -36,24 -59,24 -23,0 -44,-9 -59,-24 -15,-15 -24,-36 -24,-59 0,-18 6,-35 16,-49l-136 -136c-5,-5 -5,-13 0,-18zm-22 -22c-5,5 -13,5 -18,0l-44 -44c-5,-5 -5,-13 0,-18 5,-5 13,-5 18,0l44 44c5,5 5,13 0,18zm-40 48c-4,6 -11,7 -17,4l-52 -35c-6,-4 -7,-12 -4,-18 4,-5 12,-7 18,-3l52 35c5,4 7,11 3,17zm-29 55c-3,7 -10,10 -17,7l-57 -24c-7,-3 -10,-10 -7,-16 2,-7 10,-10 16,-7l58 24c6,2 9,10 7,16zm-7 260l-58 24c-6,3 -14,0 -16,-6 -3,-7 0,-14 7,-17l57 -24c7,-2 14,1 17,7 2,6 -1,14 -7,16zm-97 -59c-2,-6 3,-13 10,-14l61 -13c7,-1 13,3 15,10 1,7 -3,14 -10,15l-62 12c-6,2 -13,-3 -14,-10zm-8 -79c0,-7 6,-12 12,-12l63 0c7,0 12,5 12,12 0,7 -5,13 -12,13l-63 0c-6,0 -12,-6 -12,-13zm8 -79c1,-7 8,-11 14,-10l62 12c7,2 11,8 10,15 -2,7 -8,11 -15,10l-61 -12c-7,-2 -12,-8 -10,-15zm172 -259c6,-3 14,-2 18,4l35 52c3,6 2,13 -4,17 -6,4 -13,2 -17,-3l-35 -52c-4,-6 -2,-14 3,-18zm71 -37c6,-3 13,0 16,7l24 57c3,7 0,14 -7,17 -6,2 -14,-1 -16,-7l-24 -58c-3,-6 0,-14 7,-16zm76 -23c7,-2 13,3 15,10l12 61c1,7 -3,13 -10,15 -7,1 -13,-3 -15,-10l-12 -62c-1,-6 3,-13 10,-14zm67 4c0,-6 5,-12 12,-12 7,0 13,6 13,12l0 63c0,7 -6,12 -13,12 -7,0 -12,-5 -12,-12l0 -63zm64 67l13 -61c1,-7 8,-12 14,-10 7,1 12,8 10,14l-12 62c-1,7 -8,11 -15,10 -7,-2 -11,-8 -10,-15zm63 16l24 -57c3,-7 10,-10 17,-7 6,2 9,10 6,16l-24 58c-2,6 -10,9 -16,7 -6,-3 -9,-10 -7,-17zm59 29l34 -52c4,-6 12,-7 18,-4 6,4 7,12 3,18l-35 52c-3,5 -11,7 -17,3 -6,-4 -7,-11 -3,-17zm201 127c3,6 0,13 -6,16l-58 24c-7,3 -14,0 -16,-7 -3,-6 0,-14 6,-16l58 -24c6,-3 14,0 16,7zm24 76c1,7 -4,13 -10,15l-62 12c-6,1 -13,-3 -14,-10 -2,-7 3,-13 9,-15l62 -12c7,-1 13,3 15,10zm-91 -229c-79,-78 -188,-127 -308,-127 -120,0 -229,49 -308,127 -78,79 -127,188 -127,308 0,120 49,229 127,308 79,79 188,127 308,127 120,0 229,-48 308,-127 79,-79 127,-188 127,-308 0,-120 -48,-229 -127,-308z"/>
  <path class="fil1" d="M460 518c16,0 31,-6 41,-17 11,-10 17,-25 17,-41 0,-16 -6,-30 -17,-41 -10,-11 -25,-17 -41,-17 -11,0 -22,3 -31,9l40 40c5,5 5,13 0,18 -5,5 -13,5 -18,0l-40 -40c-6,9 -9,20 -9,31 0,16 6,31 17,41 11,11 25,17 41,17zm164 140c-5,-4 -11,-7 -17,-7l-294 0c-6,0 -12,3 -16,7 -5,5 -7,11 -7,17l0 54c0,6 2,12 7,17 4,4 10,7 16,7l294 0c6,0 12,-3 17,-7 4,-5 7,-11 7,-17l0 -54c0,-6 -3,-12 -7,-17z"/>
  <path class="fil2" d="M191 173c-5,-5 -13,-5 -18,0 -5,5 -5,13 0,18l44 44c5,5 13,5 18,0 5,-5 5,-13 0,-18l-44 -44zm-42 402l-57 24c-7,3 -10,10 -7,17 2,6 10,9 16,6l58 -24c6,-2 9,-10 7,-16 -3,-6 -10,-9 -17,-7zm482 154c0,6 -3,12 -7,17 -5,4 -11,7 -17,7l-294 0c-6,0 -12,-3 -16,-7 -5,-5 -7,-11 -7,-17l0 -54c0,-6 2,-12 7,-17 4,-4 10,-7 16,-7l294 0c6,0 12,3 17,7 4,5 7,11 7,17l0 54zm-24 -103l-294 0c-13,0 -25,6 -34,15 -9,8 -14,21 -14,34l0 54c0,13 5,25 14,34 9,9 21,15 34,15l294 0c13,0 25,-6 34,-15 9,-9 15,-21 15,-34l0 -54c0,-13 -6,-26 -15,-34 -9,-9 -21,-15 -34,-15zm-415 -360l-52 -35c-6,-4 -14,-2 -18,3 -3,6 -2,14 4,18l52 35c6,3 13,2 17,-4 4,-6 2,-13 -3,-17zm-33 56l-58 -24c-6,-3 -14,0 -16,7 -3,6 0,13 7,16l57 24c7,3 14,0 17,-7 2,-6 -1,-14 -7,-16zm252 107l40 40c5,5 13,5 18,0 5,-5 5,-13 0,-18l-40 -40c9,-6 20,-9 31,-9 16,0 31,6 41,17 11,11 17,25 17,41 0,16 -6,31 -17,41 -10,11 -25,17 -41,17 -16,0 -30,-6 -41,-17 -11,-10 -17,-25 -17,-41 0,-11 3,-22 9,-31zm-34 31c0,23 9,44 24,59 15,15 36,24 59,24 23,0 44,-9 59,-24 15,-15 24,-36 24,-59 0,-23 -9,-44 -24,-59 -15,-15 -36,-24 -59,-24 -18,0 -35,6 -49,16l-136 -136c-5,-5 -13,-5 -18,0 -5,5 -5,13 0,18l136 136c-10,14 -16,31 -16,49zm391 308c-79,79 -188,127 -308,127 -120,0 -229,-48 -308,-127 -78,-79 -127,-188 -127,-308 0,-120 49,-229 127,-308 79,-78 188,-127 308,-127 120,0 229,49 308,127 79,79 127,188 127,308 0,120 -48,229 -127,308zm17 -633c-83,-83 -198,-135 -325,-135 -127,0 -242,52 -325,135 -83,83 -135,198 -135,325 0,127 52,242 135,325 83,84 198,135 325,135 127,0 242,-51 325,-135 84,-83 135,-198 135,-325 0,-127 -51,-242 -135,-325zm69 313l-63 0c-7,0 -12,5 -12,12 0,7 5,13 12,13l63 0c7,0 12,-6 12,-13 0,-7 -5,-12 -12,-12zm-107 -275c-5,-5 -12,-5 -17,0l-45 44c-4,5 -4,13 0,18 5,5 13,5 18,0l44 -44c5,-5 5,-13 0,-18zm51 61c-4,-5 -12,-7 -18,-3l-52 35c-5,4 -7,11 -3,17 4,6 12,7 17,4l52 -35c6,-4 8,-12 4,-18zm51 291l-62 -13c-6,-1 -13,3 -14,10 -2,7 3,14 9,15l62 12c7,2 13,-3 15,-10 1,-6 -4,-13 -10,-14zm-20 74l-58 -24c-7,-2 -14,1 -16,7 -3,6 0,14 6,16l58 24c6,3 14,0 16,-6 3,-7 0,-14 -6,-17zm-74 -261c2,7 9,10 16,7l58 -24c6,-3 9,-10 6,-16 -2,-7 -10,-10 -16,-7l-58 24c-6,2 -9,10 -6,16zm-295 -197c7,0 13,-5 13,-12l0 -63c0,-6 -6,-12 -13,-12 -7,0 -12,6 -12,12l0 63c0,7 5,12 12,12zm313 257c1,7 8,11 14,10l62 -12c6,-2 11,-8 10,-15 -2,-7 -8,-11 -15,-10l-62 12c-6,2 -11,8 -9,15zm-251 -250c7,1 14,-3 15,-10l12 -62c2,-6 -3,-13 -10,-14 -6,-2 -13,3 -14,10l-13 61c-1,7 3,13 10,15zm115 47c6,4 14,2 17,-3l35 -52c4,-6 3,-14 -3,-18 -6,-3 -14,-2 -18,4l-34 52c-4,6 -3,13 3,17zm-55 -29c6,2 14,-1 16,-7l24 -58c3,-6 0,-14 -6,-16 -7,-3 -14,0 -17,7l-24 57c-2,7 1,14 7,17zm-199 -28c2,7 8,11 15,10 7,-2 11,-8 10,-15l-12 -61c-2,-7 -8,-12 -15,-10 -7,1 -11,8 -10,14l12 62zm-311 258l61 12c7,1 13,-3 15,-10 1,-7 -3,-13 -10,-15l-62 -12c-6,-1 -13,3 -14,10 -2,7 3,13 10,15zm57 77c7,0 12,-6 12,-13 0,-7 -5,-12 -12,-12l-63 0c-6,0 -12,5 -12,12 0,7 6,13 12,13l63 0zm137 -281c4,5 11,7 17,3 6,-4 7,-11 4,-17l-35 -52c-4,-6 -12,-7 -18,-4 -5,4 -7,12 -3,18l35 52zm56 -33c2,6 10,9 16,7 7,-3 10,-10 7,-17l-24 -57c-3,-7 -10,-10 -16,-7 -7,2 -10,10 -7,16l24 58zm-174 363c-2,-7 -8,-11 -15,-10l-61 13c-7,1 -12,8 -10,14 1,7 8,12 14,10l62 -12c7,-1 11,-8 10,-15z"/>
 </g>
</svg>
