<?xml version="1.0" encoding="UTF-8"?>
<!DOCTYPE svg PUBLIC "-//W3C//DTD SVG 1.1//EN" "http://www.w3.org/Graphics/SVG/1.1/DTD/svg11.dtd">
<!-- Creator: CorelDRAW X7 -->
<svg xmlns="http://www.w3.org/2000/svg" xml:space="preserve" width="1.69249in" height="1.6925in" version="1.1" style="shape-rendering:geometricPrecision; text-rendering:geometricPrecision; image-rendering:optimizeQuality; fill-rule:evenodd; clip-rule:evenodd"
viewBox="0 0 206 206"
 xmlns:xlink="http://www.w3.org/1999/xlink">
 <defs>
  <style type="text/css">
   <![CDATA[
    .fil0 {fill:#BDBFC1}
    .fil1 {fill:#848688}
    .fil2 {fill:#4B4B4D}
   ]]>
  </style>
 </defs>
 <g id="Layer_x0020_1">
  <metadata id="CorelCorpID_0Corel-Layer"/>
  <polygon class="fil0" points="188,14 175,23 113,85 108,91 98,101 106,108 116,98 118,96 121,93 183,31 192,19 "/>
  <path class="fil1" d="M103 116l-3 -2 -8 -8 -2 -3 -7 -6 -2 1 -1 1 -6 6 2 2 3 3 17 17 6 5 1 -1 3 -3 1 -1 3 -3 -4 -5 -3 -3zm82 58l-11 11c-1,1 -2,1 -3,1l-15 -4c-1,0 -2,-1 -2,-3l-4 -14c-1,-1 0,-3 1,-4l10 -10c1,-1 3,-2 4,-1l14 4c2,0 3,1 3,2l4 15c0,1 0,2 -1,3zm11 -18c-1,-3 -3,-7 -6,-10 -3,-3 -7,-5 -11,-7 -3,-1 -7,-2 -11,-2 -3,0 -6,1 -9,2 -2,0 -3,0 -4,-1l-34 -34 -10 10 7 7c1,1 1,2 1,3 0,1 0,2 -1,2l-4 5 24 24c1,1 1,2 1,4 -1,3 -2,6 -2,9 0,4 1,8 2,11 2,4 4,8 7,11 3,3 7,5 10,6 4,2 8,3 12,3 4,0 8,-1 11,-3 4,-1 8,-3 11,-6 3,-3 5,-7 6,-11 2,-3 3,-7 3,-11 0,-4 -1,-8 -3,-12zm-181 18l17 17 59 -59 -17 -17 -59 59zm35 -105c1,0 2,0 3,1l23 23 4 -4c2,-2 4,-2 6,0l6 6 10 -10 -32 -32c-1,-1 -1,-2 -1,-3l5 -18 -24 -24 -15 4 12 12 11 11c1,0 1,2 1,3l-4 14c0,2 -1,3 -3,3l-14 4c-1,0 -3,0 -3,-1l-11 -11 -12 -12 -4 15 24 24 18 -5z"/>
  <path class="fil2" d="M171 178l-11 -3 -2 -10 7 -7 10 2 3 11 -7 7zm11 -22c0,-1 -1,-2 -3,-2l-14 -4c-1,-1 -3,0 -4,1l-10 10c-1,1 -2,3 -1,4l4 14c0,2 1,3 2,3l15 4c1,0 2,0 3,-1l11 -11c1,-1 1,-2 1,-3l-4 -15zm14 23c-1,4 -3,8 -6,11 -3,3 -7,5 -11,6 -3,2 -7,3 -11,3 -4,0 -8,-1 -12,-3 -3,-1 -7,-3 -10,-6 -3,-3 -5,-7 -7,-11 -1,-3 -2,-7 -2,-11 0,-3 1,-6 2,-9 0,-2 0,-3 -1,-4l-24 -24 4 -5c1,0 1,-1 1,-2 0,-1 0,-2 -1,-3l-7 -7 10 -10 34 34c1,1 2,1 4,1 3,-1 6,-2 9,-2 4,0 8,1 11,2 4,2 8,4 11,7 3,3 5,7 6,10 2,4 3,8 3,12 0,4 -1,8 -3,11zm-89 -52l-1 1 -3 3 -1 1 -6 -5 -17 -17 -3 -3 -2 -2 6 -6 1 -1 2 -1 7 6 2 3 8 8 3 2 3 3 4 5 -3 3zm-75 64l-17 -17 59 -59 17 17 -59 59zm21 -121c-1,-1 -2,-1 -3,-1l-18 5 -24 -24 4 -15 12 12 11 11c0,1 2,1 3,1l14 -4c2,0 3,-1 3,-3l4 -14c0,-1 0,-3 -1,-3l-11 -11 -12 -12 15 -4 24 24 -5 18c0,1 0,2 1,3l32 32 -10 10 -6 -6c-2,-2 -4,-2 -6,0l-4 4 -23 -23zm55 21l5 -6 62 -62 13 -9 4 5 -9 12 -62 62 -3 3 -2 2 -10 10 -8 -7 10 -10zm95 62c-1,-4 -4,-8 -8,-12 -4,-4 -8,-7 -13,-9 -4,-1 -9,-2 -14,-2 -3,0 -6,0 -9,1l-33 -33 63 -62c0,0 0,0 0,0l11 -16c1,-1 1,-3 -1,-4l-8 -9c-2,-2 -4,-2 -5,-1l-15 11c-1,0 -1,1 -1,1l-62 62 -31 -31 5 -17c0,-1 0,-3 -1,-4l-27 -27c-1,-1 -3,-1 -4,-1l-23 6c-1,1 -2,2 -3,3 0,1 0,3 1,4l26 25 -3 10 -10 3 -9 -9 -16 -17c-1,-1 -3,-1 -4,-1 -1,1 -2,2 -3,3l-6 23c0,1 0,3 1,4l27 27c1,1 3,1 4,1l17 -5 22 21 -5 5c-1,1 -1,3 0,5l2 2 -61 62c-2,1 -2,3 0,5l22 22c1,1 2,2 3,2 1,0 2,-1 3,-2l61 -61 3 2c1,1 2,1 3,1 1,0 1,0 2,-1l4 -4 23 23c-1,3 -1,6 -1,9 0,5 1,10 2,14 2,5 5,9 9,13 4,4 8,7 12,8 5,2 10,3 15,3 5,0 10,-1 14,-3 5,-1 9,-4 13,-8 4,-4 7,-8 8,-13 2,-4 3,-9 3,-14 0,-5 -1,-10 -3,-15z"/>
 </g>
</svg>
