<?xml version="1.0" encoding="UTF-8"?>
<!DOCTYPE svg PUBLIC "-//W3C//DTD SVG 1.1//EN" "http://www.w3.org/Graphics/SVG/1.1/DTD/svg11.dtd">
<!-- Creator: CorelDRAW X7 -->
<svg xmlns="http://www.w3.org/2000/svg" xml:space="preserve" width="0.710823in" height="0.757929in" version="1.1" style="shape-rendering:geometricPrecision; text-rendering:geometricPrecision; image-rendering:optimizeQuality; fill-rule:evenodd; clip-rule:evenodd"
viewBox="0 0 524 559"
 xmlns:xlink="http://www.w3.org/1999/xlink">
 <defs>
  <style type="text/css">
   <![CDATA[
    .fil1 {fill:#74CBF2}
    .fil0 {fill:#777876}
   ]]>
  </style>
 </defs>
 <g id="Layer_x0020_1">
  <metadata id="CorelCorpID_0Corel-Layer"/>
  <path class="fil0" d="M523 306l0 0c-2,0 -5,0 -7,0l-5 0c-1,0 -2,0 -3,-1l0 -115c-15,16 -31,29 -52,38 8,-1 4,6 4,8 3,20 0,51 -1,70l-117 0c20,-26 38,-55 60,-79 63,12 113,-40 106,-94 0,-5 -1,-11 -7,-15 -24,8 -28,37 -49,49 -14,-4 -30,-6 -45,-10 -5,-16 2,-31 -5,-45 7,-8 1,-15 9,-24 5,-8 17,-17 14,-30 -65,-11 -109,61 -81,123 -25,31 -52,59 -77,92 8,11 25,19 25,33 -7,-1 -11,-10 -14,-14 -27,-30 -59,-58 -86,-85 -4,-5 -8,-15 -16,-10 -3,10 8,8 11,10 14,11 8,19 5,33 -3,14 -5,29 -10,41 4,10 19,17 20,25l-36 0c5,-24 19,-47 18,-74 16,-13 -6,-25 -18,-27 14,-47 29,-94 42,-142 14,-12 15,-34 18,-58 -8,-2 -14,-4 -21,-5 -2,12 -10,20 -13,31 -2,10 -1,21 -3,32 -10,47 -32,92 -43,138 -11,-9 -34,-5 -29,12 -17,25 -20,64 -32,93 -4,0 -7,0 -11,0l-5 0c-2,0 -4,0 -6,-1 8,-198 -47,-187 -47,-55l0 56 -13 0 -3 0 0 253 524 0 0 -253 -1 0z"/>
  <path class="fil1" d="M108 265l0 0c3,-12 6,-32 17,-33 19,0 7,25 4,34 -5,17 -7,27 -10,40l-23 0c4,-14 6,-25 12,-41l0 0z"/>
  <path class="fil1" d="M155 245l0 0c6,-4 15,-1 18,5 5,14 -16,41 -16,56l-22 0c11,-13 8,-51 20,-61l0 0z"/>
 </g>
</svg>
