<?xml version="1.0" encoding="UTF-8"?>
<!DOCTYPE svg PUBLIC "-//W3C//DTD SVG 1.1//EN" "http://www.w3.org/Graphics/SVG/1.1/DTD/svg11.dtd">
<!-- Creator: CorelDRAW X7 -->
<svg xmlns="http://www.w3.org/2000/svg" xml:space="preserve" width="5.3527in" height="2.24948in" version="1.1" style="shape-rendering:geometricPrecision; text-rendering:geometricPrecision; image-rendering:optimizeQuality; fill-rule:evenodd; clip-rule:evenodd"
viewBox="0 0 24425 10265"
 xmlns:xlink="http://www.w3.org/1999/xlink">
 <defs>
  <style type="text/css">
   <![CDATA[
    .fil1 {fill:#FEFEFE;fill-rule:nonzero}
    .fil0 {fill:#292929;fill-rule:nonzero}
   ]]>
  </style>
 </defs>
 <g id="__x0023_Layer_x0020_1">
  <metadata id="CorelCorpID_0Corel-Layer"/>
  <path class="fil0" d="M11576 4726c-870,-221 -1741,-441 -2588,-742 -361,-128 -717,-274 -1047,-470 -470,-278 -751,-770 -1049,-1211 -2553,-3773 -5488,-1801 -5589,-1687l2460 741c1084,1111 715,1970 435,2725 -464,1252 -1516,1481 -1516,1481l-2682 -811c0,0 661,1951 3276,2257 279,32 841,-31 1076,-112 1017,-350 1999,-824 3097,-799 744,17 1495,171 2220,352l1318 395c512,178 1025,363 1551,465 0,0 9467,2838 9505,2850 824,246 1964,94 2287,-845 363,-1056 -359,-2031 -1366,-2188l-11388 -2401zm9081 4435l0 0c352,115 700,266 1052,377 59,18 40,113 -19,94 -362,-114 -745,-190 -1109,-297 -839,-246 -1674,-506 -2515,-744 -1343,-380 -8329,-2395 -9121,-2629 -1152,-339 -2004,-260 -2967,3 -455,125 -932,230 -1366,410 -376,156 -721,252 -1114,340 -30,7 -40,-37 -11,-46 393,-120 1882,-901 2521,-1137 1657,-613 4693,704 12107,2820 855,244 1697,531 2542,809zm-15843 -5950l0 0c39,-517 -23,-1034 -315,-1480 -286,-436 -778,-702 -1269,-848 -9,-3 -7,-16 2,-17 620,-37 1152,189 1459,754 256,471 263,1079 139,1593 -2,9 -16,8 -16,-2zm18348 5728l0 0c-72,228 -315,355 -544,283 -228,-72 -355,-316 -283,-544 72,-229 316,-355 544,-283 228,72 355,315 283,544z"/>
  <path class="fil1" d="M6008 5532c-639,236 -2128,1017 -2521,1137 -29,9 -19,53 11,46 393,-88 738,-184 1114,-340 434,-180 911,-285 1366,-410 963,-263 1815,-342 2967,-3 792,234 7778,2249 9121,2629 841,238 1676,498 2515,744 364,107 747,183 1109,297 59,19 78,-76 19,-94 -352,-111 -700,-262 -1052,-377 -845,-278 -1687,-565 -2542,-809 -7414,-2116 -10450,-3433 -12107,-2820z"/>
  <path class="fil1" d="M4830 3213c124,-514 117,-1122 -139,-1593 -307,-565 -839,-791 -1459,-754 -9,1 -11,14 -2,17 491,146 983,412 1269,848 292,446 354,963 315,1480 0,10 14,11 16,2z"/>
 </g>
</svg>
