<?xml version="1.0" encoding="UTF-8"?>
<!DOCTYPE svg PUBLIC "-//W3C//DTD SVG 1.1//EN" "http://www.w3.org/Graphics/SVG/1.1/DTD/svg11.dtd">
<!-- Creator: CorelDRAW X7 -->
<svg xmlns="http://www.w3.org/2000/svg" xml:space="preserve" width="3.7877in" height="3.78769in" version="1.1" style="shape-rendering:geometricPrecision; text-rendering:geometricPrecision; image-rendering:optimizeQuality; fill-rule:evenodd; clip-rule:evenodd"
viewBox="0 0 10841 10841"
 xmlns:xlink="http://www.w3.org/1999/xlink">
 <defs>
  <style type="text/css">
   <![CDATA[
    .fil0 {fill:#BDBFC1}
    .fil1 {fill:#848688}
    .fil2 {fill:#4B4B4D}
   ]]>
  </style>
 </defs>
 <g id="Layer_x0020_1">
  <metadata id="CorelCorpID_0Corel-Layer"/>
  <polygon class="fil0" points="9861,753 9212,1222 5949,4484 5668,4765 5140,5293 5547,5701 6076,5172 6216,5032 6357,4891 9619,1629 10087,979 "/>
  <path class="fil1" d="M5407 6122l-141 -140 -407 -408 -140 -140 -354 -354 -94 94 -43 44 -314 313 106 106 140 140 904 904 274 274 75 -76 141 -141 46 -46 188 -188 -241 -241 -140 -141zm4319 3048l-556 556c-50,50 -123,69 -192,51l-758 -203c-69,-19 -122,-72 -141,-141l-203 -758c-18,-69 2,-142 52,-192l555 -555c50,-50 123,-70 192,-52l758 203c69,19 122,72 141,141l203 758c18,69 -1,142 -51,192zm599 -952c-79,-194 -197,-376 -355,-534 -158,-159 -340,-276 -535,-355 -194,-79 -401,-119 -608,-119 -164,0 -329,25 -487,75 -71,23 -148,4 -200,-49l-1783 -1783 -528 529 381 381c37,37 58,88 58,141 0,52 -21,103 -58,140l-235 235 1261 1261c53,52 71,129 49,200 -50,158 -75,323 -75,487 0,207 40,414 119,608 79,195 196,377 355,535 158,158 340,276 534,355 195,79 402,118 609,118 207,0 414,-39 608,-118 195,-79 376,-197 535,-355 158,-159 276,-340 355,-535 79,-194 118,-401 118,-608 0,-207 -39,-414 -118,-609zm-9551 945l904 903 3104 -3104 -903 -904 -3105 3105zm1829 -5516c69,-19 142,1 192,51l1195 1195 235 -234c77,-78 203,-78 281,0l353 353 528 -528 -1689 -1689c-50,-50 -70,-123 -51,-192l244 -912 -1270 -1271 -767 206 642 643 547 546c50,51 70,124 51,192l-200 747c-18,68 -72,122 -140,140l-747 200c-68,19 -141,-1 -192,-51l-546 -547 -643 -642 -206 767 1271 1270 912 -244z"/>
  <path class="fil2" d="M8970 9363l-536 -144 -144 -536 393 -393 536 144 144 536 -393 393zm604 -1143c-19,-69 -72,-122 -141,-140l-758 -204c-69,-18 -142,2 -192,52l-555 555c-50,50 -70,123 -52,192l204 758c18,69 71,122 140,141l758 203c69,18 142,-1 192,-51l556 -556c50,-50 69,-123 51,-192l-203 -758zm751 1215c-79,195 -197,376 -355,535 -159,158 -340,276 -535,355 -194,79 -401,118 -608,118 -207,0 -414,-39 -609,-118 -194,-79 -376,-197 -534,-355 -159,-158 -276,-340 -355,-535 -79,-194 -119,-401 -119,-608 0,-164 25,-329 75,-487 22,-71 4,-148 -49,-200l-1261 -1261 235 -235c37,-37 58,-88 58,-140 0,-53 -21,-104 -58,-141l-381 -381 528 -529 1783 1783c52,53 129,72 200,49 158,-50 323,-75 487,-75 207,0 414,40 608,119 195,79 377,196 535,355 158,158 276,340 355,534 79,195 118,402 118,609 0,207 -39,414 -118,608zm-4725 -2743l-46 46 -141 141 -75 76 -274 -274 -904 -904 -140 -140 -106 -106 314 -313 43 -44 94 -94 354 354 140 140 407 408 141 140 140 141 241 241 -188 188zm-3922 3374l-904 -903 3105 -3105 903 904 -3104 3104zm1117 -6368c-50,-50 -123,-70 -192,-51l-912 244 -1271 -1270 206 -767 643 642 546 547c51,50 124,70 192,51l747 -200c68,-18 122,-72 140,-140l200 -747c19,-68 -1,-141 -51,-192l-547 -546 -642 -643 767 -206 1270 1271 -244 912c-19,69 1,142 51,192l1689 1689 -528 528 -353 -353c-78,-78 -204,-78 -281,0l-235 234 -1195 -1195zm2873 1067l281 -281 3263 -3262 649 -469 226 226 -468 650 -3262 3262 -141 141 -140 140 -529 529 -407 -408 528 -528zm5025 3304c-98,-243 -246,-470 -442,-667 -196,-196 -424,-343 -666,-442 -243,-98 -500,-147 -758,-147 -164,0 -328,20 -488,60l-1701 -1701 3273 -3273c9,-8 14,-15 21,-24l577 -800c57,-80 48,-188 -21,-257l-465 -465c-69,-70 -178,-78 -257,-21l-800 577c-9,7 -16,12 -24,20l-3274 3274 -1607 -1608 244 -912c18,-69 -1,-142 -52,-192l-1432 -1433c-50,-50 -124,-70 -192,-51l-1211 324c-68,19 -122,72 -140,141 -19,68 1,141 51,192l1352 1351 -141 525 -525 141 -465 -466 -886 -886c-51,-50 -124,-70 -192,-51 -69,18 -122,72 -141,140l-324 1211c-19,68 1,142 51,192l1433 1432c50,51 123,70 192,52l912 -244 1114 1113 -216 217c-78,77 -78,203 0,281l105 105 -3245 3246c-78,77 -78,203 0,281l1184 1184c38,38 88,58 141,58 53,0 103,-20 140,-58l3246 -3245 133 133c37,37 88,58 141,58 52,0 103,-21 140,-58l216 -216 1179 1179c-40,160 -60,324 -60,488 0,258 49,515 147,758 99,242 246,470 442,666 197,196 424,344 667,442 242,99 500,148 758,148 257,0 515,-49 757,-148 243,-98 471,-246 667,-442 196,-196 344,-424 442,-667 99,-242 148,-500 148,-757 0,-258 -49,-516 -148,-758z"/>
 </g>
</svg>
