<?xml version="1.0" encoding="UTF-8"?>
<!DOCTYPE svg PUBLIC "-//W3C//DTD SVG 1.1//EN" "http://www.w3.org/Graphics/SVG/1.1/DTD/svg11.dtd">
<!-- Creator: CorelDRAW X7 -->
<svg xmlns="http://www.w3.org/2000/svg" xml:space="preserve" width="2.00131in" height="2.85357in" version="1.1" style="shape-rendering:geometricPrecision; text-rendering:geometricPrecision; image-rendering:optimizeQuality; fill-rule:evenodd; clip-rule:evenodd"
viewBox="0 0 1374 1959"
 xmlns:xlink="http://www.w3.org/1999/xlink">
 <defs>
  <style type="text/css">
   <![CDATA[
    .fil0 {fill:#3A9EA1;fill-rule:nonzero}
    .fil3 {fill:#3FACB1;fill-rule:nonzero}
    .fil2 {fill:#57595B;fill-rule:nonzero}
    .fil1 {fill:#6D6E70;fill-rule:nonzero}
    .fil5 {fill:#EDEFEF;fill-rule:nonzero}
    .fil4 {fill:#F0F2ED;fill-rule:nonzero}
   ]]>
  </style>
 </defs>
 <g id="object">
  <metadata id="CorelCorpID_0Corel-Layer"/>
  <polygon class="fil0" points="692,1668 132,1668 132,1596 692,1596 "/>
  <polygon class="fil1" points="658,1607 140,1607 140,1320 658,1320 "/>
  <polygon class="fil2" points="698,1410 100,1410 100,1372 698,1372 "/>
  <polygon class="fil2" points="698,1493 100,1493 100,1454 698,1454 "/>
  <polygon class="fil2" points="698,1575 100,1575 100,1537 698,1537 "/>
  <polygon class="fil3" points="1111,467 1049,279 1322,203 1374,398 "/>
  <polygon class="fil2" points="1364,400 1361,641 1333,648 1294,419 "/>
  <polygon class="fil2" points="1130,462 1251,670 1279,662 1200,443 "/>
  <polygon class="fil4" points="563,729 377,433 409,425 587,714 "/>
  <path class="fil2" d="M464 452c-125,0 -226,-101 -226,-226 0,-125 101,-226 226,-226 125,0 226,101 226,226 0,125 -101,226 -226,226zm0 -433l0 0c-114,0 -207,93 -207,207 0,114 93,207 207,207 114,0 207,-93 207,-207 0,-114 -93,-207 -207,-207z"/>
  <polygon class="fil0" points="851,838 583,1061 350,787 746,639 "/>
  <polygon class="fil3" points="583,1292 193,1292 193,953 583,953 "/>
  <polygon class="fil0" points="369,284 632,722 904,722 681,324 "/>
  <polygon class="fil3" points="1239,335 463,335 463,109 1239,109 "/>
  <path class="fil3" d="M906 741c0,63 -51,113 -113,113 -62,0 -112,-50 -112,-113 0,-62 50,-112 112,-112 62,0 113,50 113,112z"/>
  <path class="fil1" d="M851 741c0,32 -26,58 -58,58 -32,0 -57,-26 -57,-58 0,-31 25,-57 57,-57 32,0 58,26 58,57z"/>
  <path class="fil5" d="M821 741c0,16 -12,29 -28,29 -15,0 -28,-13 -28,-29 0,-15 13,-28 28,-28 16,0 28,13 28,28z"/>
  <path class="fil3" d="M575 222c0,62 -50,113 -112,113 -62,0 -113,-51 -113,-113 0,-62 51,-113 113,-113 62,0 112,51 112,113z"/>
  <path class="fil1" d="M520 222c0,32 -25,57 -57,57 -32,0 -58,-25 -58,-57 0,-32 26,-58 58,-58 32,0 57,26 57,58z"/>
  <path class="fil5" d="M491 222c0,16 -13,28 -28,28 -16,0 -28,-12 -28,-28 0,-16 12,-28 28,-28 15,0 28,12 28,28z"/>
  <path class="fil3" d="M1324 222c0,62 -51,113 -113,113 -62,0 -112,-51 -112,-113 0,-62 50,-113 112,-113 62,0 113,51 113,113z"/>
  <path class="fil1" d="M1269 222c0,32 -26,57 -58,57 -32,0 -57,-25 -57,-57 0,-32 25,-58 57,-58 32,0 58,26 58,58z"/>
  <path class="fil5" d="M1239 222c0,16 -12,28 -28,28 -15,0 -28,-12 -28,-28 0,-16 13,-28 28,-28 16,0 28,12 28,28z"/>
  <path class="fil3" d="M583 978c0,108 -88,195 -195,195 -108,0 -195,-87 -195,-195 0,-107 87,-195 195,-195 107,0 195,88 195,195z"/>
  <path class="fil1" d="M487 978c0,55 -44,100 -99,100 -55,0 -100,-45 -100,-100 0,-55 45,-99 100,-99 55,0 99,44 99,99z"/>
  <path class="fil5" d="M436 978c0,27 -21,49 -48,49 -27,0 -49,-22 -49,-49 0,-27 22,-48 49,-48 27,0 48,21 48,48z"/>
  <polygon class="fil3" points="720,1332 61,1332 61,1224 720,1224 "/>
  <polygon class="fil3" points="1172,1871 0,1871 0,1652 1172,1652 "/>
  <polygon class="fil0" points="1172,1959 0,1959 0,1871 1172,1871 "/>
  <polygon class="fil1" points="1128,1757 520,1757 520,1403 1128,1403 "/>
  <polygon class="fil4" points="1098,1740 550,1740 550,1420 1098,1420 "/>
  <polygon class="fil2" points="963,1814 692,1814 692,1757 963,1757 "/>
  <polygon class="fil2" points="111,1757 61,1757 61,1708 111,1708 "/>
  <polygon class="fil2" points="212,1757 162,1757 162,1708 212,1708 "/>
  <polygon class="fil2" points="313,1757 264,1757 264,1708 313,1708 "/>
  <polygon class="fil2" points="111,1838 61,1838 61,1789 111,1789 "/>
  <polygon class="fil2" points="212,1838 162,1838 162,1789 212,1789 "/>
  <polygon class="fil2" points="313,1838 264,1838 264,1789 313,1789 "/>
 </g>
</svg>
