<?xml version="1.0" encoding="UTF-8"?>
<!DOCTYPE svg PUBLIC "-//W3C//DTD SVG 1.1//EN" "http://www.w3.org/Graphics/SVG/1.1/DTD/svg11.dtd">
<!-- Creator: CorelDRAW X7 -->
<svg xmlns="http://www.w3.org/2000/svg" xml:space="preserve" width="5.55109in" height="5.5511in" version="1.1" style="shape-rendering:geometricPrecision; text-rendering:geometricPrecision; image-rendering:optimizeQuality; fill-rule:evenodd; clip-rule:evenodd"
viewBox="0 0 70037 70037"
 xmlns:xlink="http://www.w3.org/1999/xlink">
 <defs>
  <style type="text/css">
   <![CDATA[
    .fil2 {fill:#FEFEFE}
    .fil1 {fill:#BDBFC1}
    .fil0 {fill:#848688}
    .fil3 {fill:#4B4B4D}
   ]]>
  </style>
 </defs>
 <g id="Layer_x0020_1">
  <metadata id="CorelCorpID_0Corel-Layer"/>
  <path class="fil0" d="M43689 43689c-2216,2218 -5287,3592 -8671,3592 -3383,0 -6454,-1374 -8670,-3592 -2218,-2216 -3592,-5287 -3591,-8670 -1,-3384 1373,-6455 3591,-8671 2216,-2218 5287,-3592 8670,-3591 3384,-1 6455,1373 8671,3591 2218,2216 3592,5287 3591,8671 1,3383 -1373,6454 -3591,8670zm6706 -24047c-3938,-3937 -9369,-6369 -15377,-6369 -6007,0 -11438,2432 -15376,6369 -3937,3938 -6369,9369 -6369,15377 0,6007 2432,11438 6369,15376 3938,3937 9369,6369 15376,6369 6008,0 11439,-2432 15377,-6369 3937,-3938 6369,-9369 6369,-15376 0,-6008 -2433,-11439 -6369,-15377z"/>
  <path class="fil1" d="M51634 51634c-4249,4251 -10129,6883 -16616,6882 -6486,1 -12366,-2631 -16615,-6882 -4251,-4249 -6883,-10129 -6883,-16615 0,-6487 2632,-12366 6883,-16616 4249,-4251 10129,-6883 16615,-6883 6487,0 12367,2632 16616,6883 4251,4249 6883,10129 6882,16616 1,6486 -2631,12366 -6882,16615zm16584 -18824c-44,-47 -98,-76 -166,-83l-3368 -303c-460,-41 -880,-239 -1197,-539 -318,-300 -538,-706 -607,-1160 -125,-814 -284,-1617 -476,-2406 -39,-159 -58,-320 -58,-479 0,-366 100,-722 284,-1031 184,-309 455,-572 791,-747l2993 -1568c45,-24 77,-55 101,-95 24,-40 36,-86 36,-132 0,-32 -6,-64 -19,-97l-1559 -3763c-21,-51 -53,-88 -95,-116 -42,-27 -92,-42 -141,-42 -25,0 -50,3 -77,11l-3226 1009c-197,62 -399,92 -598,92 -346,-1 -682,-90 -979,-255 -296,-166 -554,-409 -739,-713 -426,-701 -881,-1381 -1364,-2039 -260,-354 -391,-774 -391,-1192 0,-455 156,-915 466,-1285l2168 -2596c41,-50 58,-104 59,-164 -1,-68 -24,-130 -75,-181l-2880 -2880c-51,-51 -113,-74 -181,-75 -60,1 -114,18 -164,59l-2596 2168c-370,310 -830,467 -1285,466 -417,0 -838,-131 -1192,-391 -658,-483 -1338,-938 -2039,-1364 -304,-185 -547,-443 -713,-739 -165,-297 -255,-633 -255,-979 0,-199 30,-401 92,-598l0 1 0 -1 1009 -3226c8,-27 11,-52 11,-77 1,-49 -15,-99 -42,-141 -28,-42 -65,-74 -116,-95l-3763 -1559c-33,-14 -65,-19 -97,-19 -45,0 -92,12 -132,36 -40,24 -71,56 -95,101l-1567 2993c-176,336 -439,607 -748,791 -309,184 -665,284 -1031,284 -159,0 -320,-19 -479,-58 -789,-192 -1592,-351 -2406,-476 -454,-69 -860,-289 -1160,-607 -300,-317 -498,-737 -539,-1197l-303 -3368c-7,-68 -36,-122 -83,-165 -47,-43 -104,-67 -172,-68l-4073 0c-68,1 -125,25 -173,68 -46,43 -75,97 -82,165l-303 3368c-41,460 -239,880 -539,1197 -300,318 -706,538 -1160,607 -814,125 -1617,284 -2406,476 -159,39 -320,58 -479,58 -366,0 -722,-100 -1031,-284 -309,-184 -572,-455 -748,-791l-1567 -2993c-24,-45 -55,-77 -95,-101 -40,-24 -87,-36 -132,-36 -32,0 -64,6 -97,19l-3763 1559c-51,21 -88,53 -116,95 -27,42 -43,92 -42,141 0,25 3,50 11,77l1009 3227c62,196 92,398 92,597 -1,346 -90,682 -256,979 -165,296 -408,554 -712,739 -701,426 -1381,881 -2039,1364 -354,260 -775,391 -1192,391 -456,1 -915,-156 -1285,-466l-2596 -2168c-50,-41 -104,-58 -164,-59 -68,1 -130,24 -181,75l-2880 2880c-51,51 -74,113 -75,181 1,60 18,114 59,164l2168 2596c310,370 466,830 466,1285 0,418 -131,838 -391,1192 -483,658 -938,1338 -1364,2039 -185,304 -443,547 -739,713 -297,165 -633,255 -979,255 -199,0 -401,-30 -598,-92l-3226 -1009c-27,-8 -52,-11 -77,-11 -49,-1 -99,15 -141,42 -42,28 -74,65 -95,116l-1559 3763c-14,33 -19,65 -19,97 0,45 12,92 36,132 24,40 56,71 101,95l2993 1567c336,176 607,439 791,748 184,309 284,665 284,1031 0,159 -19,320 -58,479 -192,789 -351,1592 -476,2406 -69,454 -289,860 -607,1160 -317,300 -737,498 -1197,539l-3368 303c-68,7 -122,36 -165,83 -43,47 -67,104 -68,172l0 4073c1,68 25,125 68,173 43,46 97,75 165,82l3368 303c460,41 880,239 1197,539 318,300 538,706 607,1161 125,813 284,1616 476,2405 39,159 58,320 58,479 0,366 -100,722 -284,1031 -184,309 -455,572 -791,748l-2993 1567c-45,24 -77,55 -101,95 -24,40 -37,87 -36,132 0,32 5,64 19,97l1559 3763c21,51 53,88 95,116 42,27 92,43 141,42 25,0 50,-3 77,-11l3226 -1009c197,-62 399,-92 598,-92 346,0 682,90 979,256 296,165 554,408 739,712 426,701 881,1381 1364,2039 260,354 391,775 391,1192 1,456 -157,915 -466,1285l-2168 2596c-41,50 -59,104 -59,164 1,68 24,130 75,181l2880 2880c51,51 113,74 181,75 60,0 114,-18 164,-59l2596 -2168c370,-310 829,-466 1285,-466 417,0 838,131 1192,391 658,483 1338,938 2039,1364 304,185 547,443 712,739 166,297 255,633 256,979 0,199 -30,401 -92,598l-1009 3226c-8,27 -11,52 -11,77 -1,49 14,99 42,141 28,42 65,74 116,95l3763 1559c33,14 65,19 97,19 45,0 92,-12 132,-36 40,-24 71,-56 95,-101l1567 -2993c176,-336 439,-607 748,-791 309,-184 665,-284 1031,-284 159,0 320,19 479,58 789,192 1592,351 2406,476 454,69 860,289 1160,607 300,317 498,737 539,1197l324 3601 4307 0c68,-1 125,-25 172,-67 47,-44 76,-98 83,-166l303 -3368c41,-460 239,-880 539,-1197 300,-318 706,-538 1160,-607 814,-125 1617,-284 2406,-476 159,-39 320,-58 479,-58 366,0 722,100 1031,284 309,184 572,455 748,791l1675 3200 3979 -1648c51,-21 88,-53 116,-95 27,-42 43,-92 42,-141 0,-25 -3,-50 -11,-76l-1009 -3227c-62,-197 -92,-399 -92,-598 0,-346 90,-682 255,-979 166,-296 409,-554 713,-739 701,-426 1381,-881 2039,-1364 354,-260 775,-391 1192,-391 455,0 915,156 1285,466l2596 2168c50,41 104,59 164,59 68,-1 130,-24 181,-75l2880 -2880c51,-51 74,-113 75,-181 0,-60 -18,-114 -59,-164l-2168 -2596c-309,-370 -467,-829 -466,-1285 0,-417 131,-838 391,-1192 483,-658 938,-1338 1364,-2039 185,-304 443,-547 739,-712 297,-166 633,-256 979,-256 199,0 401,30 597,92l3227 1009c27,8 52,11 77,11 49,1 99,-15 141,-42 42,-29 74,-65 95,-116l1559 -3763c13,-33 19,-65 19,-97 0,-45 -12,-92 -36,-132 -24,-40 -56,-71 -101,-95l-2993 -1567c-336,-176 -607,-439 -791,-748 -184,-309 -284,-665 -284,-1031 0,-159 19,-320 58,-479 192,-789 351,-1592 476,-2405 69,-455 289,-861 607,-1161 317,-300 737,-498 1197,-539l3368 -303c68,-7 122,-36 166,-82 42,-48 66,-105 67,-173l0 -4073c-1,-68 -25,-125 -67,-172zm-28363 7045c-1235,1237 -2950,2004 -4837,2004 -1886,0 -3601,-767 -4836,-2004 -1237,-1235 -2004,-2950 -2004,-4836 0,-1886 767,-3602 2004,-4837 1235,-1237 2950,-2004 4836,-2003 1887,-1 3602,767 4837,2003 1237,1235 2004,2951 2004,4837 0,1886 -767,3601 -2004,4836zm-4836 -15346c-2906,0 -5527,1175 -7432,3078 -1903,1905 -3078,4527 -3078,7432 0,2905 1175,5526 3078,7431 1905,1903 4526,3078 7431,3078 2906,0 5527,-1175 7432,-3078 1903,-1905 3078,-4526 3078,-7431 0,-2905 -1175,-5527 -3078,-7432 -1905,-1903 -4526,-3078 -7431,-3078z"/>
  <path class="fil2" d="M35019 29931c-1408,0 -2675,568 -3598,1490 -922,924 -1490,2190 -1490,3598 0,1407 568,2674 1490,3597 923,922 2190,1490 3597,1490 1408,0 2675,-568 3598,-1490 922,-923 1490,-2190 1490,-3597 0,-1408 -568,-2674 -1490,-3598 -923,-922 -2190,-1490 -3597,-1490z"/>
  <path class="fil3" d="M42450 42450c-1905,1903 -4526,3078 -7432,3078 -2905,0 -5526,-1175 -7431,-3078 -1903,-1905 -3078,-4526 -3078,-7431 0,-2905 1175,-5527 3078,-7432 1905,-1903 4526,-3078 7431,-3078 2906,0 5527,1175 7432,3078 1903,1905 3078,4527 3078,7432 0,2905 -1175,5526 -3078,7431zm-7431 -19693c-3384,-1 -6455,1373 -8671,3591 -2218,2216 -3592,5287 -3591,8671 -1,3383 1373,6454 3591,8670 2216,2218 5287,3592 8670,3592 3384,0 6455,-1374 8671,-3592 2218,-2216 3592,-5287 3591,-8670 1,-3384 -1373,-6455 -3591,-8671 -2216,-2218 -5287,-3592 -8670,-3591zm3597 15859c-923,922 -2190,1490 -3598,1490 -1407,0 -2674,-568 -3597,-1490 -922,-923 -1490,-2190 -1490,-3597 0,-1408 568,-2674 1490,-3598 923,-922 2190,-1490 3597,-1490 1408,0 2675,568 3598,1490 922,924 1490,2190 1490,3598 0,1407 -568,2674 -1490,3597zm-3597 -10438c-1887,0 -3602,768 -4837,2004 -1237,1235 -2004,2951 -2004,4837 0,1886 767,3601 2004,4836 1235,1237 2950,2004 4836,2004 1887,0 3602,-767 4837,-2004 1237,-1235 2004,-2950 2004,-4836 0,-1886 -767,-3602 -2004,-4837 -1235,-1237 -2950,-2004 -4836,-2004zm15376 22217c-3938,3937 -9369,6369 -15377,6369 -6007,0 -11438,-2432 -15376,-6369 -3937,-3938 -6369,-9369 -6369,-15376 0,-6008 2432,-11439 6369,-15377 3938,-3937 9369,-6369 15376,-6369 6008,0 11439,2432 15377,6369 3937,3938 6369,9369 6369,15377 0,6007 -2433,11438 -6369,15376zm-15376 -38875c-6487,0 -12367,2632 -16616,6883 -4251,4249 -6883,10129 -6883,16616 0,6486 2632,12366 6883,16615 4249,4251 10129,6883 16615,6882 6487,1 12367,-2631 16616,-6882 4251,-4249 6883,-10129 6882,-16615 1,-6487 -2631,-12366 -6882,-16616 -4249,-4251 -10129,-6883 -16615,-6883zm33266 25535c-1,68 -25,125 -67,173 -44,46 -98,75 -166,82l-3368 303c-460,41 -880,239 -1197,539 -318,300 -538,706 -607,1161 -125,813 -284,1616 -476,2405 -39,159 -58,320 -58,479 0,366 100,722 284,1031 184,309 455,572 791,748l2993 1567c45,24 77,55 101,95 24,40 36,87 36,132 0,32 -6,64 -19,97l-1559 3763c-21,51 -53,87 -95,116 -42,27 -92,43 -141,42 -25,0 -50,-3 -77,-11l-3226 -1009c-197,-62 -399,-92 -598,-92 -346,0 -682,90 -979,256 -296,165 -554,408 -739,712 -426,701 -881,1381 -1364,2039 -260,354 -391,775 -391,1192 0,456 156,915 466,1285l2168 2596c41,50 58,104 59,164 -1,68 -24,130 -75,181l-2880 2880c-51,51 -113,74 -181,75 -60,0 -114,-18 -164,-59l-2596 -2168c-370,-310 -830,-466 -1285,-466 -417,0 -838,131 -1192,391 -658,483 -1338,938 -2039,1364 -304,185 -547,443 -713,739 -165,297 -255,633 -255,979 0,199 30,401 92,598l1009 3226c8,27 11,52 11,77 1,49 -15,99 -42,141 -28,42 -65,74 -116,95l-3979 1648 -1675 -3200c-176,-336 -439,-607 -748,-791 -309,-184 -665,-284 -1031,-284 -159,0 -320,19 -479,58 -789,192 -1592,351 -2406,476 -454,69 -860,289 -1160,607 -300,317 -498,737 -539,1197l-303 3368c-7,68 -36,122 -83,166 -47,42 -104,66 -172,67l-4307 0 -324 -3601c-41,-460 -239,-880 -539,-1197 -300,-318 -706,-538 -1160,-607 -814,-125 -1617,-284 -2406,-476 -159,-39 -320,-58 -479,-58 -366,0 -722,100 -1031,284 -309,184 -572,455 -748,791l-1567 2993c-24,45 -55,77 -95,101 -40,24 -87,36 -132,36 -32,0 -64,-5 -97,-19l-3763 -1559c-51,-21 -88,-53 -116,-95 -27,-42 -43,-92 -42,-141 0,-25 3,-50 11,-76l1009 -3227c62,-197 92,-399 92,-598 -1,-346 -90,-682 -256,-979 -165,-296 -408,-554 -712,-739 -701,-426 -1381,-881 -2039,-1364 -354,-260 -775,-391 -1192,-391 -456,0 -915,156 -1285,466l-2596 2168c-50,41 -104,59 -164,59 -68,-1 -130,-24 -181,-75l-2880 -2880c-51,-51 -74,-113 -75,-181 1,-60 18,-114 59,-164l2168 -2596c310,-370 466,-829 466,-1285 0,-417 -131,-838 -391,-1192 -483,-658 -938,-1338 -1364,-2039 -185,-304 -443,-547 -739,-712 -297,-166 -633,-256 -979,-256 -199,0 -401,30 -598,92l-3226 1009c-27,8 -52,11 -77,11 -49,1 -99,-15 -141,-42 -42,-28 -74,-65 -95,-116l-1559 -3763c-14,-33 -19,-65 -19,-97 -1,-45 12,-92 36,-132 24,-40 56,-71 101,-95l2993 -1567c336,-176 607,-439 791,-748 184,-309 284,-665 284,-1031 0,-159 -19,-320 -58,-479 -192,-789 -351,-1592 -476,-2405 -69,-455 -289,-861 -607,-1161 -317,-300 -737,-498 -1197,-539l-3368 -303c-68,-7 -122,-36 -165,-82 -43,-48 -67,-105 -68,-173l0 -4073c1,-68 25,-125 68,-172 43,-47 97,-76 165,-83l3368 -303c460,-41 880,-239 1197,-539 318,-300 538,-706 607,-1160 125,-814 284,-1617 476,-2406 39,-159 58,-320 58,-479 0,-366 -100,-722 -284,-1031 -184,-309 -455,-572 -791,-747l-2993 -1568c-45,-24 -77,-55 -101,-95 -24,-40 -36,-86 -36,-132 0,-32 5,-64 19,-97l1559 -3763c21,-51 53,-88 95,-116 42,-27 92,-42 141,-42 25,0 50,3 77,11l3226 1009c197,62 399,92 598,92 346,-1 682,-90 979,-255 296,-166 554,-409 739,-713 426,-701 881,-1381 1364,-2039 260,-354 391,-774 391,-1192 1,-456 -157,-915 -466,-1285l-2168 -2596c-41,-50 -59,-104 -59,-164 1,-68 24,-130 75,-181l2880 -2880c51,-51 113,-74 181,-75 60,1 114,18 164,59l2596 2168c370,310 829,467 1285,466 417,0 838,-131 1192,-391 658,-483 1338,-938 2039,-1364 304,-185 547,-443 712,-739 166,-297 255,-633 256,-979 0,-199 -30,-401 -92,-597l-1009 -3227c-8,-27 -11,-52 -11,-77 -1,-49 14,-99 42,-141 28,-42 65,-74 116,-95l3763 -1559c33,-13 65,-19 97,-19 45,0 92,12 132,36 40,24 71,56 95,101l1567 2993c176,336 439,607 748,791 309,184 665,284 1031,284 159,0 320,-19 479,-58 789,-192 1592,-351 2406,-476 454,-69 860,-289 1160,-607 300,-317 498,-737 539,-1197l303 -3368c7,-68 36,-122 82,-165 48,-43 105,-67 173,-68l4073 0c68,1 125,25 172,68 47,43 76,97 83,165l303 3368c41,460 239,880 539,1197 300,318 706,538 1160,607 814,125 1617,284 2406,476 159,39 320,58 479,58 366,0 722,-100 1031,-284 309,-184 572,-455 748,-791l1567 -2993c24,-45 55,-77 95,-101 40,-24 87,-36 132,-36 32,0 64,5 97,19l3763 1559c51,21 88,53 116,95 27,42 43,92 42,141 0,25 -3,50 -11,77l-1009 3226c-62,197 -92,399 -92,598 0,346 90,682 255,979 166,296 409,554 713,739 701,426 1381,881 2039,1364 354,260 775,391 1192,391 455,1 915,-156 1285,-466l2596 -2168c50,-41 104,-58 164,-59 68,1 130,24 181,75l2880 2880c51,51 74,113 75,181 0,60 -18,114 -59,164l-2168 2596c-310,370 -467,830 -466,1285 0,418 131,838 391,1192 483,658 938,1338 1364,2039 185,304 443,547 739,713 297,165 633,255 979,255 199,0 401,-30 597,-92l3227 -1009c27,-8 52,-11 77,-11 49,-1 99,15 141,42 42,28 73,65 95,116l1559 3763c13,33 19,65 19,97 0,45 -12,92 -36,132 -24,40 -56,71 -101,95l-2993 1567c-336,176 -607,439 -791,748 -184,309 -284,665 -284,1031 0,159 19,320 58,479 192,789 351,1592 476,2406 69,454 289,860 607,1160 317,300 737,498 1197,539l3368 303c68,7 122,36 166,83 42,47 66,104 67,172l0 4073zm1226 -5428c-326,-357 -787,-599 -1302,-645l-3368 -303c-59,-6 -109,-29 -150,-68 -41,-39 -69,-89 -79,-151 -132,-865 -302,-1717 -506,-2556 -5,-22 -8,-43 -8,-64 0,-47 13,-93 37,-133 24,-39 55,-70 99,-93l2993 -1568c338,-176 610,-442 794,-751 184,-309 283,-664 283,-1028 0,-257 -50,-519 -153,-768l-1559 -3763c-158,-382 -426,-695 -750,-908 -324,-214 -707,-332 -1105,-332 -199,0 -402,30 -600,92l-3226 1009c-26,8 -51,11 -75,11 -43,0 -86,-11 -124,-32 -39,-22 -71,-52 -97,-94 -452,-743 -935,-1465 -1448,-2165 -35,-48 -51,-101 -52,-155 1,-60 19,-114 59,-162l2168 -2596c311,-372 467,-833 466,-1287 1,-513 -199,-1031 -588,-1420l-2880 -2880c-388,-389 -907,-589 -1420,-588 -454,-1 -915,155 -1287,466l-2596 2168c-48,40 -102,58 -162,59 -54,-1 -107,-16 -155,-52 -699,-513 -1422,-996 -2165,-1448 -42,-26 -72,-58 -94,-96 -21,-39 -32,-82 -32,-125 0,-24 3,-49 11,-74l0 -1 1009 -3227c62,-197 92,-400 92,-599 0,-398 -118,-780 -332,-1105 -213,-324 -526,-592 -908,-750l-3763 -1559c-249,-103 -511,-153 -768,-153 -364,0 -719,99 -1028,283 -309,184 -575,456 -751,794l-1568 2993c-23,44 -54,75 -93,99 -40,24 -86,37 -133,37 -21,0 -42,-2 -64,-8 -839,-205 -1691,-374 -2556,-506 -61,-9 -112,-38 -151,-79 -39,-41 -62,-91 -68,-150l-303 -3368c-46,-515 -288,-976 -645,-1302 -356,-327 -837,-526 -1355,-526l-4073 0c-518,0 -999,199 -1355,526 -357,326 -599,787 -645,1302l-303 3368c-6,59 -29,109 -68,150 -39,41 -90,70 -151,79 -865,132 -1717,302 -2556,506 -22,5 -43,8 -64,8 -47,0 -93,-13 -133,-37 -39,-24 -70,-55 -93,-99l-1568 -2993c-176,-338 -442,-610 -751,-794 -310,-184 -664,-282 -1028,-283 -257,0 -519,50 -768,154l-3763 1558c-382,158 -695,426 -908,750 -214,325 -332,707 -332,1105 0,199 30,402 92,600l1009 3226c8,26 11,51 11,75 0,43 -11,86 -32,125 -22,38 -52,70 -94,96 -743,452 -1466,935 -2165,1448 -48,35 -101,51 -155,52 -60,-1 -114,-19 -162,-59l-2596 -2168c-372,-311 -833,-467 -1287,-466 -513,-1 -1031,199 -1420,588l-2880 2880c-389,389 -589,907 -588,1420 -1,454 155,915 466,1287l2168 2596c40,48 58,102 59,162 -1,54 -17,107 -52,155 -513,700 -996,1422 -1448,2165 -26,42 -58,72 -97,94 -38,21 -81,32 -124,32 -24,0 -49,-3 -75,-11l-3227 -1009c-197,-62 -400,-92 -599,-92 -398,0 -781,118 -1105,332 -324,213 -592,526 -750,908l-1559 3763c-103,249 -153,511 -153,768 0,364 99,719 283,1028 184,309 456,575 794,751l2993 1568c44,23 75,54 99,93 24,40 37,86 37,133 0,21 -3,42 -8,64 -205,839 -374,1691 -506,2556 -10,62 -38,112 -79,151 -41,39 -91,62 -150,68l-3368 303c-515,46 -976,288 -1302,645 -327,356 -526,838 -526,1355l0 4073c0,518 199,999 526,1355 326,357 787,599 1302,645l3368 303c59,6 109,29 150,68 41,39 69,90 79,151 132,865 301,1718 506,2556 5,22 8,43 8,64 0,47 -13,93 -37,133 -24,39 -55,70 -99,93l-2993 1568c-338,176 -610,442 -794,751 -184,309 -283,664 -283,1028 0,257 50,519 153,768l1559 3763c158,382 426,695 750,908 324,214 707,332 1105,332 199,0 402,-30 599,-92l3227 -1009c26,-8 51,-11 75,-11 43,0 86,11 124,32 39,22 71,52 97,94 452,743 935,1466 1448,2165 35,48 51,101 52,155 -1,60 -19,114 -59,162l-2168 2596c-311,373 -467,833 -466,1287 -1,514 199,1032 588,1420l2880 2880c389,389 906,589 1420,588 454,1 914,-155 1287,-466l2596 -2168c48,-40 102,-58 162,-59 54,1 107,17 155,52 699,513 1422,996 2165,1448 42,26 72,58 94,97 21,38 32,81 32,124 0,24 -3,49 -11,75l-1009 3227c-62,197 -92,400 -92,599 0,398 118,781 332,1105 213,324 526,592 908,750l3763 1559c249,103 511,153 768,153 364,0 718,-99 1028,-283 309,-184 574,-456 751,-794l1568 -2993c23,-44 54,-75 93,-99 40,-24 86,-37 133,-37 21,0 42,3 64,8 839,205 1691,374 2556,506 62,10 112,38 151,79 39,42 62,91 68,150l396 4398 4 0c19,203 104,397 249,541 163,163 389,257 619,257l5108 0c518,0 999,-199 1355,-526 357,-326 599,-787 645,-1302l303 -3368c6,-59 29,-108 68,-150 39,-41 90,-69 151,-79 865,-132 1717,-301 2556,-506 22,-5 43,-8 64,-8 47,0 93,13 133,37 39,24 70,55 93,99l2048 3910c151,289 449,469 776,469l0 0c116,0 227,-22 335,-66l4719 -1955c382,-158 695,-426 908,-750 214,-324 332,-707 332,-1105 0,-199 -30,-402 -92,-599l-1009 -3227c-8,-26 -11,-51 -11,-75 0,-43 11,-86 32,-124 22,-39 52,-71 94,-97 743,-452 1466,-935 2165,-1448 48,-35 101,-51 155,-52 60,1 114,19 162,59l2596 2168c373,311 833,467 1287,466 514,1 1031,-199 1420,-588l2880 -2880c389,-388 589,-906 588,-1420 1,-454 -155,-914 -466,-1287l-2168 -2596c-40,-48 -58,-102 -59,-162 1,-54 16,-107 52,-155 513,-699 996,-1422 1448,-2165 26,-42 58,-72 97,-94 38,-21 81,-32 124,-32 24,0 49,3 74,11l3228 1009c197,62 400,92 599,92 398,0 781,-118 1105,-332 324,-213 592,-526 750,-908l1559 -3763c103,-249 153,-511 153,-768 0,-364 -99,-719 -283,-1028 -184,-309 -456,-575 -794,-751l-2993 -1568c-44,-23 -75,-54 -99,-93 -24,-40 -37,-86 -37,-133 0,-21 3,-42 8,-63 205,-839 374,-1692 506,-2557 10,-61 38,-112 79,-151 42,-39 91,-62 150,-68l3368 -303c515,-46 976,-288 1302,-645 327,-356 526,-837 526,-1355l0 -4073c0,-517 -199,-998 -526,-1355zm-20743 -23023l0 -1 0 1z"/>
 </g>
</svg>
