<?xml version="1.0" encoding="UTF-8"?>
<!DOCTYPE svg PUBLIC "-//W3C//DTD SVG 1.1//EN" "http://www.w3.org/Graphics/SVG/1.1/DTD/svg11.dtd">
<!-- Creator: CorelDRAW X7 -->
<svg xmlns="http://www.w3.org/2000/svg" xml:space="preserve" width="7.75695in" height="3.58681in" version="1.1" style="shape-rendering:geometricPrecision; text-rendering:geometricPrecision; image-rendering:optimizeQuality; fill-rule:evenodd; clip-rule:evenodd"
viewBox="0 0 22742 10516"
 xmlns:xlink="http://www.w3.org/1999/xlink">
 <defs>
  <style type="text/css">
   <![CDATA[
    .fil1 {fill:#BDBFC1}
    .fil0 {fill:#848688}
    .fil2 {fill:#4B4B4D}
   ]]>
  </style>
 </defs>
 <g id="Layer_x0020_1">
  <metadata id="CorelCorpID_0Corel-Layer"/>
  <path class="fil0" d="M20916 3056l0 -2649 -1032 0 0 5395 1032 0 0 -1060c-4,-16 -7,-32 -7,-49l0 -1588c0,-17 3,-33 7,-49zm-12718 2746l1032 0 0 -5395 -1032 0 0 5395z"/>
  <path class="fil1" d="M21316 3308l0 1181 1018 0 0 -1181 -1018 0zm-15561 481c-435,303 -776,732 -971,1233 -118,303 -183,630 -183,974l0 1425c0,415 -169,793 -441,1065 -272,273 -650,442 -1065,442l-2688 0 0 1180 2780 0c7,-1 14,-2 21,-2 546,-23 1049,-208 1464,-509 414,-301 739,-718 928,-1203 117,-302 182,-629 182,-973l0 -1425c0,-416 169,-793 441,-1065 272,-273 650,-442 1066,-442l502 0 0 -1181 -502 0c-571,0 -1099,178 -1534,481zm3882 1542l9840 0 0 -4452 -9840 0 0 4452z"/>
  <path class="fil2" d="M22334 4489l-1018 0 0 -1181 1018 0 0 1181zm-1418 -1433c-4,16 -7,32 -7,49l0 1588c0,17 3,33 7,49l0 1060 -1032 0 0 -5395 1032 0 0 2649zm-1439 2275l-9840 0 0 -4452 9840 0 0 4452zm-10247 471l-1032 0 0 -5395 1032 0 0 5395zm-1439 -1313l-502 0c-416,0 -794,169 -1066,442 -272,272 -441,649 -441,1065l0 1425c0,344 -65,671 -182,973 -189,485 -514,902 -928,1203 -415,301 -918,486 -1464,509 -7,0 -14,1 -21,2l-2780 0 0 -1180 2688 0c415,0 793,-169 1065,-442 272,-272 441,-650 441,-1065l0 -1425c0,-344 65,-671 183,-974 195,-501 536,-930 971,-1233 435,-303 963,-480 1534,-481l502 0 0 1181zm14891 -1528c-38,-38 -90,-60 -144,-60l-1215 0 0 -2697c0,-54 -22,-106 -60,-144 -37,-38 -90,-60 -143,-60l-1439 0c-54,0 -106,22 -144,60 -38,38 -60,90 -60,144l0 268 -9840 0 0 -268c0,-54 -22,-106 -60,-144 -38,-38 -90,-60 -144,-60l-1439 0c-53,0 -106,22 -143,60 -38,38 -60,90 -60,144l0 2697 -502 0c-656,0 -1266,205 -1767,554 -501,349 -893,842 -1118,1420 -135,347 -210,726 -210,1121l0 1425c0,304 -123,578 -322,777 -200,200 -473,322 -777,322l-2891 0c-54,0 -106,22 -144,60 -38,38 -60,90 -60,144l0 1588c0,54 22,106 60,144 38,38 90,60 144,60l3013 0c15,0 30,-2 44,-6 615,-32 1182,-244 1650,-584 477,-346 851,-826 1068,-1384 135,-348 210,-726 210,-1121l0 -1425c0,-304 123,-578 322,-778 200,-199 473,-321 778,-322l502 0 0 1110c0,54 22,106 60,144 37,38 90,60 143,60l1439 0c54,0 106,-22 144,-60 38,-38 60,-90 60,-144l0 -268 9840 0 0 268c0,54 22,106 60,144 38,38 90,60 144,60l1439 0c53,0 106,-22 143,-60 38,-38 60,-90 60,-144l0 -1110 1215 0c53,0 106,-21 144,-59 38,-38 59,-91 59,-144l1 -1588c0,-54 -22,-106 -60,-144z"/>
 </g>
</svg>
