<?xml version="1.0" encoding="UTF-8"?>
<!DOCTYPE svg PUBLIC "-//W3C//DTD SVG 1.1//EN" "http://www.w3.org/Graphics/SVG/1.1/DTD/svg11.dtd">
<!-- Creator: CorelDRAW X7 -->
<svg xmlns="http://www.w3.org/2000/svg" xml:space="preserve" width="0.727602in" height="0.75874in" version="1.1" style="shape-rendering:geometricPrecision; text-rendering:geometricPrecision; image-rendering:optimizeQuality; fill-rule:evenodd; clip-rule:evenodd"
viewBox="0 0 67 70"
 xmlns:xlink="http://www.w3.org/1999/xlink">
 <defs>
  <style type="text/css">
   <![CDATA[
    .fil1 {fill:#FEFEFE}
    .fil2 {fill:#74CBF2}
    .fil0 {fill:#777876}
   ]]>
  </style>
 </defs>
 <g id="Layer_x0020_1">
  <metadata id="CorelCorpID_0Corel-Layer"/>
  <path class="fil0" d="M60 0l-46 0c-4,0 -7,3 -7,7l0 46c0,1 0,2 0,3l-6 6 0 0c-1,2 -1,5 0,7 2,2 5,2 7,0l0 0 8 -8 44 0c4,0 7,-4 7,-8l0 -46c0,-4 -3,-7 -7,-7l0 0z"/>
  <polygon class="fil1" points="61,54 61,54 23,54 36,41 49,41 53,28 51,26 44,33 37,26 44,19 43,18 29,21 29,34 29,34 13,51 13,14 61,14 "/>
  <path class="fil2" d="M6 67l0 0c-1,1 -2,1 -3,0 -1,-1 -1,-2 0,-3 1,-1 2,-1 3,0 1,1 1,2 0,3l0 0z"/>
 </g>
</svg>
