<?xml version="1.0" encoding="UTF-8"?>
<!DOCTYPE svg PUBLIC "-//W3C//DTD SVG 1.1//EN" "http://www.w3.org/Graphics/SVG/1.1/DTD/svg11.dtd">
<!-- Creator: CorelDRAW X7 -->
<svg xmlns="http://www.w3.org/2000/svg" xml:space="preserve" width="4.46015in" height="1.14615in" version="1.1" style="shape-rendering:geometricPrecision; text-rendering:geometricPrecision; image-rendering:optimizeQuality; fill-rule:evenodd; clip-rule:evenodd"
viewBox="0 0 2247693 577600"
 xmlns:xlink="http://www.w3.org/1999/xlink">
 <defs>
  <style type="text/css">
   <![CDATA[
    .fil0 {fill:#2B3B3F}
   ]]>
  </style>
 </defs>
 <g id="Objects">
  <metadata id="CorelCorpID_0Corel-Layer"/>
  <path class="fil0" d="M508164 187150c-41128,-109345 -146657,-187150 -270383,-187150 -98619,0 -185680,49447 -237781,124886l261199 0c62878,109276 67799,218552 0,327826l-261199 0c52101,75441 139162,124888 237781,124888 123726,0 229255,-77807 270383,-187150l0 -203300z"/>
  <path class="fil0" d="M2044101 102379l-2482 48 0 104236c45372,0 82146,36774 82146,82140 0,45365 -36774,82140 -82138,82140l-8 0 0 104230 2482 48c271455,5680 271455,-378522 0,-372842zm-2482 48l0 0 -1629368 34114 0 304524 1629368 34108 0 -104230c-45365,0 -82139,-36775 -82139,-82140 0,-45366 36774,-82140 82139,-82140l0 -104236z"/>
 </g>
</svg>
