<?xml version="1.0" encoding="UTF-8"?>
<!DOCTYPE svg PUBLIC "-//W3C//DTD SVG 1.1//EN" "http://www.w3.org/Graphics/SVG/1.1/DTD/svg11.dtd">
<!-- Creator: CorelDRAW X7 -->
<svg xmlns="http://www.w3.org/2000/svg" xml:space="preserve" width="0.843197in" height="0.83876in" version="1.1" style="shape-rendering:geometricPrecision; text-rendering:geometricPrecision; image-rendering:optimizeQuality; fill-rule:evenodd; clip-rule:evenodd"
viewBox="0 0 84 84"
 xmlns:xlink="http://www.w3.org/1999/xlink">
 <defs>
  <style type="text/css">
   <![CDATA[
    .fil0 {fill:#282828;fill-rule:nonzero}
   ]]>
  </style>
 </defs>
 <g id="OBJECTS">
  <metadata id="CorelCorpID_0Corel-Layer"/>
  <path class="fil0" d="M83 44c2,-1 2,-3 0,-4 -2,-1 -2,-3 -1,-5 2,-1 2,-3 0,-3 -3,-1 -3,-3 -2,-5 2,-2 1,-3 -1,-3 -3,0 -4,-2 -3,-4 1,-2 0,-4 -2,-3 -2,0 -4,-2 -3,-4 1,-2 -1,-3 -3,-3 -2,1 -4,0 -4,-2 0,-3 -1,-3 -3,-2 -2,1 -4,0 -4,-2 -1,-2 -2,-3 -4,-1 -2,1 -4,1 -5,-1 0,-2 -2,-3 -3,-1 -2,2 -4,2 -5,0 -1,-2 -3,-1 -4,1 -1,2 -3,2 -4,1 -2,-2 -4,-1 -4,1 -1,2 -2,3 -4,2 -2,-1 -4,-1 -4,2 0,2 -1,3 -4,2 -2,0 -3,1 -2,3 0,2 -1,4 -4,4 -2,-1 -3,1 -2,3 1,2 0,4 -2,4 -2,0 -3,1 -2,3 2,2 1,4 -1,5 -2,0 -3,2 -1,3 2,2 2,4 0,5 -3,1 -3,3 0,4 2,1 2,3 0,5 -2,1 -1,3 1,3 2,1 3,3 1,5 -1,2 0,3 2,3 2,0 3,2 2,4 -1,2 0,4 2,4 3,-1 4,1 4,3 -1,2 0,3 2,3 3,-1 4,0 4,2 0,3 2,3 4,2 2,-1 3,0 4,2 0,2 2,3 4,1 1,-1 3,-1 4,1 1,2 3,3 4,1 1,-2 3,-2 5,0 1,2 3,1 3,-1 1,-2 3,-2 5,-1 2,2 3,1 4,-1 0,-2 2,-3 4,-2 2,1 3,1 3,-2 0,-2 2,-3 4,-2 2,0 4,-1 3,-3 -1,-2 1,-4 3,-3 2,0 3,-2 2,-4 -1,-2 0,-4 3,-4 2,0 3,-1 1,-3 -1,-2 -1,-4 2,-5 2,0 2,-2 0,-3 -1,-2 -1,-4 1,-5zm-41 33l0 0c-18,0 -34,-16 -34,-34 0,-19 16,-34 34,-34 19,0 35,15 35,34 0,18 -16,34 -35,34z"/>
  <path class="fil0" d="M56 55c0,0 1,1 2,1 0,0 1,-1 1,-2l1 -2c-2,1 -4,1 -4,3z"/>
  <path class="fil0" d="M42 10c-18,0 -33,15 -33,33 0,18 15,32 33,32 19,0 33,-14 33,-32 0,-18 -14,-33 -33,-33zm1 8l0 0 1 -4 1 4 5 0 -4 3 1 4 -3 -3 -3 3 1 -4 -4 -3 5 0zm-12 34l0 0c-2,0 -4,0 -4,-2 0,-1 1,-1 1,-2 0,1 1,1 2,1 1,0 3,-3 3,-6 0,-1 -1,-3 -3,-3 0,0 -1,0 -1,0l-3 11 -4 0 4 -19 4 0 -1 6 0 0c2,0 4,-2 4,-4 0,-2 -1,-4 -3,-4 -5,0 -8,3 -8,8 0,1 0,1 0,2 -2,0 -3,-1 -3,-3 0,-4 6,-8 11,-8 4,0 6,2 6,5 0,2 -1,3 -3,4 3,1 4,3 4,5 0,4 -3,9 -6,9zm16 18l0 0 -3 -2 -3 2 1 -4 -4 -2 5 0 1 -4 1 4 5 0 -4 2 1 4zm17 -16l0 0c-1,4 -4,5 -6,5 -1,0 -3,-2 -3,-4 0,-2 2,-3 5,-4l0 -2c-1,1 -2,2 -4,2 -2,0 -3,-1 -3,-2 -1,1 -3,2 -4,2 -2,0 -3,-1 -4,-2 -1,1 -3,2 -4,2 -2,0 -4,-1 -4,-3 0,0 0,-1 1,-2l2 -10 4 0 -2 10c0,1 0,1 0,1 0,1 0,1 1,1 1,0 2,0 2,-1 0,0 0,0 0,-1l3 -10 4 0 -2 10c0,1 0,1 0,1 0,1 0,1 1,1 1,0 1,0 2,0 0,-1 0,-1 0,-2l2 -10 4 0 -2 10c0,1 0,1 0,1 0,1 0,1 1,1 1,0 2,0 3,-1l2 -11 4 0 -3 18z"/>
 </g>
</svg>
