<?xml version="1.0" encoding="UTF-8"?>
<!DOCTYPE svg PUBLIC "-//W3C//DTD SVG 1.1//EN" "http://www.w3.org/Graphics/SVG/1.1/DTD/svg11.dtd">
<!-- Creator: CorelDRAW X7 -->
<svg xmlns="http://www.w3.org/2000/svg" xml:space="preserve" width="2.48044in" height="2.48044in" version="1.1" style="shape-rendering:geometricPrecision; text-rendering:geometricPrecision; image-rendering:optimizeQuality; fill-rule:evenodd; clip-rule:evenodd"
viewBox="0 0 1749 1749"
 xmlns:xlink="http://www.w3.org/1999/xlink">
 <defs>
  <style type="text/css">
   <![CDATA[
    .fil2 {fill:#FEFEFE}
    .fil1 {fill:#BDBFC1}
    .fil0 {fill:#848688}
    .fil3 {fill:#4B4B4D}
   ]]>
  </style>
 </defs>
 <g id="Layer_x0020_1">
  <metadata id="CorelCorpID_0Corel-Layer"/>
  <path class="fil0" d="M1091 1091c-55,55 -132,90 -216,90 -85,0 -162,-35 -217,-90 -55,-55 -90,-132 -90,-216 0,-85 35,-162 90,-217 55,-55 132,-90 217,-90 84,0 161,35 216,90 55,55 90,132 90,217 0,84 -35,161 -90,216zm168 -600c-99,-99 -234,-160 -384,-160 -150,0 -286,61 -384,160 -99,98 -160,234 -160,384 0,150 61,285 160,384 98,98 234,159 384,159 150,0 285,-61 384,-159 98,-99 159,-234 159,-384 0,-150 -61,-286 -159,-384z"/>
  <path class="fil1" d="M1289 1289c-106,107 -252,172 -414,172 -162,0 -309,-65 -415,-172 -107,-106 -172,-252 -172,-414 0,-162 65,-309 172,-415 106,-107 253,-172 415,-172 162,0 308,65 414,172 107,106 172,253 172,415 0,162 -65,308 -172,414zm415 -470c-1,-1 -3,-2 -5,-2l-84 -7c-11,-1 -22,-6 -30,-14 -7,-7 -13,-17 -15,-29 -3,-20 -7,-40 -12,-60 -1,-4 -1,-8 -1,-12 0,-9 2,-18 7,-25 5,-8 11,-15 20,-19l75 -39c1,-1 2,-2 2,-3 1,-1 1,-2 1,-3 0,-1 0,-2 0,-2l-39 -94c-1,-2 -2,-3 -3,-3 -1,-1 -2,-1 -3,-1 -1,0 -2,0 -2,0l-81 25c-5,2 -10,2 -15,2 -8,0 -17,-2 -24,-6 -8,-4 -14,-10 -19,-18 -10,-17 -22,-34 -34,-51 -6,-8 -9,-19 -9,-29 0,-12 3,-23 11,-32l54 -65c1,-2 2,-3 2,-4 0,-2 -1,-4 -2,-5l-72 -72c-1,-1 -3,-2 -4,-2 -2,0 -3,1 -5,2l-64 54c-10,8 -21,12 -33,12 -10,0 -20,-4 -29,-10 -17,-12 -34,-24 -51,-34 -8,-5 -14,-11 -18,-19 -4,-7 -6,-16 -6,-24 0,-5 0,-10 2,-15l0 0 0 0 0 0 25 -81c0,0 0,-1 0,-2 0,-1 0,-2 -1,-3 0,-1 -1,-2 -3,-3l-94 -38c0,-1 -1,-1 -2,-1 -1,0 -2,0 -3,1 -1,1 -2,1 -3,2l-39 75c-4,9 -11,15 -18,20 -8,5 -17,7 -26,7 -4,0 -8,0 -12,-1 -20,-5 -40,-9 -60,-12 -12,-2 -22,-7 -29,-15 -8,-8 -13,-19 -14,-30l-7 -84c0,-2 -1,-3 -2,-5 -1,-1 -3,-1 -5,-1l-101 0c-2,0 -3,0 -5,1 -1,2 -2,3 -2,5l-7 84c-1,11 -6,22 -14,30 -7,8 -17,13 -29,15 -20,3 -40,7 -60,12 -4,1 -8,1 -12,1 -9,0 -18,-2 -25,-7 -8,-5 -15,-11 -19,-20l-39 -75c-1,-1 -2,-1 -3,-2 -1,-1 -2,-1 -3,-1 -1,0 -2,0 -2,1l-94 38c-2,1 -3,2 -3,3 -1,1 -1,2 -1,3 0,1 0,2 0,2l25 81c2,5 2,10 2,15 0,8 -2,17 -6,24 -4,8 -10,14 -18,19 -17,10 -34,22 -51,34 -8,6 -19,10 -29,10 -12,0 -23,-4 -32,-12l-65 -54c-2,-1 -3,-2 -4,-2 -2,0 -4,1 -5,2l-72 72c-1,1 -2,3 -2,5 0,1 1,2 2,4l54 65c8,9 12,20 12,32 0,10 -4,21 -10,29 -12,17 -24,34 -34,51 -5,8 -11,14 -19,18 -7,4 -16,6 -24,6 -5,0 -10,0 -15,-2l-81 -25c0,0 -1,0 -2,0 -1,0 -2,0 -3,1 -1,0 -2,1 -3,3l-38 94c-1,0 -1,1 -1,2 0,1 0,2 1,3 1,1 1,2 2,3l75 39c9,4 15,11 20,19 5,7 7,16 7,25 0,4 0,8 -1,12 -5,20 -9,40 -12,60 -2,12 -7,22 -15,29 -8,8 -19,13 -30,14l-84 7c-2,0 -3,1 -5,2 -1,2 -1,3 -1,5l0 101c0,2 0,4 1,5 2,1 3,2 5,2l84 7c11,1 22,6 30,14 8,7 13,17 15,29 3,20 7,40 12,60 1,4 1,8 1,12 0,9 -2,18 -7,26 -5,7 -11,14 -20,18l-75 39c-1,1 -1,2 -2,3 -1,1 -1,2 -1,3 0,1 0,2 1,2l38 94c1,2 2,3 3,3 1,1 2,1 3,1 1,0 2,0 2,0l81 -25c5,-2 10,-2 15,-2 8,0 17,2 24,6 8,4 14,10 19,18 10,17 22,34 34,51 6,9 10,19 10,29 0,12 -4,23 -12,33l-54 64c-1,2 -2,3 -2,5 0,1 1,3 2,4l72 72c1,1 3,2 5,2 1,0 2,-1 4,-2l65 -54c9,-8 20,-11 32,-11 10,0 21,3 29,9 17,12 34,24 51,34 8,5 14,11 18,19 4,7 6,16 6,24 0,5 0,10 -2,15l-25 81c0,0 0,1 0,2 0,1 0,2 1,3 0,1 1,2 3,3l94 39c0,0 1,0 2,0 1,0 2,0 3,-1 1,0 2,-1 3,-2l39 -75c4,-9 11,-15 19,-20 7,-5 16,-7 25,-7 4,0 8,0 12,1 20,5 40,9 60,12 12,2 22,8 29,15 8,8 13,19 14,30l8 90 107 0c2,0 4,0 5,-1 1,-1 2,-3 2,-5l7 -84c1,-11 6,-22 14,-30 7,-7 17,-13 29,-15 20,-3 40,-7 60,-12 4,-1 8,-1 12,-1 9,0 18,2 26,7 7,5 14,11 18,20l42 80 99 -41c2,-1 3,-2 3,-3 1,-1 1,-2 1,-3 0,-1 0,-2 0,-2l-25 -81c-2,-5 -2,-10 -2,-15 0,-8 2,-17 6,-24 4,-8 10,-14 18,-19 17,-10 34,-22 51,-34 9,-6 19,-9 29,-9 12,0 23,3 33,11l64 54c2,1 3,2 5,2 1,0 3,-1 4,-2l72 -72c1,-1 2,-3 2,-4 0,-2 -1,-3 -2,-5l-54 -64c-8,-10 -11,-21 -11,-33 0,-10 3,-20 9,-29 12,-17 24,-34 34,-51 5,-8 11,-14 19,-18 7,-4 16,-6 24,-6 5,0 10,0 15,2l81 25c0,0 1,0 2,0 1,0 2,0 3,-1 1,0 2,-1 3,-3l39 -94c0,0 0,-1 0,-2 0,-1 0,-2 -1,-3 0,-1 -1,-2 -2,-3l-75 -39c-9,-4 -15,-11 -20,-18 -5,-8 -7,-17 -7,-26 0,-4 0,-8 1,-12 5,-20 9,-40 12,-60 2,-12 8,-22 15,-29 8,-8 19,-13 30,-14l84 -7c2,0 4,-1 5,-2 1,-1 1,-3 1,-5l0 -101c0,-2 0,-3 -1,-5zm-709 176c-31,31 -73,50 -120,50 -48,0 -90,-19 -121,-50 -31,-31 -50,-73 -50,-120 0,-48 19,-90 50,-121 31,-31 73,-50 121,-50 47,0 89,19 120,50 31,31 50,73 50,121 0,47 -19,89 -50,120zm-120 -383c-73,0 -138,29 -186,77 -48,48 -77,113 -77,186 0,72 29,138 77,185 48,48 113,77 186,77 72,0 138,-29 185,-77 48,-47 77,-113 77,-185 0,-73 -29,-138 -77,-186 -47,-48 -113,-77 -185,-77z"/>
  <path class="fil2" d="M875 747c-36,0 -67,15 -90,38 -23,23 -38,54 -38,90 0,35 15,66 38,89 23,23 54,38 90,38 35,0 66,-15 89,-38 23,-23 38,-54 38,-89 0,-36 -15,-67 -38,-90 -23,-23 -54,-38 -89,-38z"/>
  <path class="fil3" d="M1060 1060c-47,48 -113,77 -185,77 -73,0 -138,-29 -186,-77 -48,-47 -77,-113 -77,-185 0,-73 29,-138 77,-186 48,-48 113,-77 186,-77 72,0 138,29 185,77 48,48 77,113 77,186 0,72 -29,138 -77,185zm-185 -492c-85,0 -162,35 -217,90 -55,55 -90,132 -90,217 0,84 35,161 90,216 55,55 132,90 217,90 84,0 161,-35 216,-90 55,-55 90,-132 90,-216 0,-85 -35,-162 -90,-217 -55,-55 -132,-90 -216,-90zm89 396c-23,23 -54,38 -89,38 -36,0 -67,-15 -90,-38 -23,-23 -38,-54 -38,-89 0,-36 15,-67 38,-90 23,-23 54,-38 90,-38 35,0 66,15 89,38 23,23 38,54 38,90 0,35 -15,66 -38,89zm-89 -260c-48,0 -90,19 -121,50 -31,31 -50,73 -50,121 0,47 19,89 50,120 31,31 73,50 121,50 47,0 89,-19 120,-50 31,-31 50,-73 50,-120 0,-48 -19,-90 -50,-121 -31,-31 -73,-50 -120,-50zm384 555c-99,98 -234,159 -384,159 -150,0 -286,-61 -384,-159 -99,-99 -160,-234 -160,-384 0,-150 61,-286 160,-384 98,-99 234,-160 384,-160 150,0 285,61 384,160 98,98 159,234 159,384 0,150 -61,285 -159,384zm-384 -971c-162,0 -309,65 -415,172 -107,106 -172,253 -172,415 0,162 65,308 172,414 106,107 253,172 415,172 162,0 308,-65 414,-172 107,-106 172,-252 172,-414 0,-162 -65,-309 -172,-415 -106,-107 -252,-172 -414,-172zm830 637c0,2 0,4 -1,5 -1,1 -3,2 -5,2l-84 7c-11,1 -22,6 -30,14 -7,7 -13,17 -15,29 -3,20 -7,40 -12,60 -1,4 -1,8 -1,12 0,9 2,18 7,26 5,7 11,14 20,18l75 39c1,1 2,2 2,3 1,1 1,2 1,3 0,1 0,2 0,2l-39 94c-1,2 -2,3 -3,3 -1,1 -2,1 -3,1 -1,0 -2,0 -2,0l-81 -25c-5,-2 -10,-2 -15,-2 -8,0 -17,2 -24,6 -8,4 -14,10 -19,18 -10,17 -22,34 -34,51 -6,9 -9,19 -9,29 0,12 3,23 11,33l54 64c1,2 2,3 2,5 0,1 -1,3 -2,4l-72 72c-1,1 -3,2 -4,2 -2,0 -3,-1 -5,-2l-64 -54c-10,-8 -21,-11 -33,-11 -10,0 -20,3 -29,9 -17,12 -34,24 -51,34 -8,5 -14,11 -18,19 -4,7 -6,16 -6,24 0,5 0,10 2,15l25 81c0,0 0,1 0,2 0,1 0,2 -1,3 0,1 -1,2 -3,3l-99 41 -42 -80c-4,-9 -11,-15 -18,-20 -8,-5 -17,-7 -26,-7 -4,0 -8,0 -12,1 -20,5 -40,9 -60,12 -12,2 -22,8 -29,15 -8,8 -13,19 -14,30l-7 84c0,2 -1,4 -2,5 -1,1 -3,1 -5,1l-107 0 -8 -90c-1,-11 -6,-22 -14,-30 -7,-7 -17,-13 -29,-15 -20,-3 -40,-7 -60,-12 -4,-1 -8,-1 -12,-1 -9,0 -18,2 -25,7 -8,5 -15,11 -19,20l-39 75c-1,1 -2,2 -3,2 -1,1 -2,1 -3,1 -1,0 -2,0 -2,0l-94 -39c-2,-1 -3,-2 -3,-3 -1,-1 -1,-2 -1,-3 0,-1 0,-2 0,-2l25 -81c2,-5 2,-10 2,-15 0,-8 -2,-17 -6,-24 -4,-8 -10,-14 -18,-19 -17,-10 -34,-22 -51,-34 -8,-6 -19,-9 -29,-9 -12,0 -23,3 -32,11l-65 54c-2,1 -3,2 -4,2 -2,0 -4,-1 -5,-2l-72 -72c-1,-1 -2,-3 -2,-4 0,-2 1,-3 2,-5l54 -64c8,-10 12,-21 12,-33 0,-10 -4,-20 -10,-29 -12,-17 -24,-34 -34,-51 -5,-8 -11,-14 -19,-18 -7,-4 -16,-6 -24,-6 -5,0 -10,0 -15,2l-81 25c0,0 -1,0 -2,0 -1,0 -2,0 -3,-1 -1,0 -2,-1 -3,-3l-38 -94c-1,0 -1,-1 -1,-2 0,-1 0,-2 1,-3 1,-1 1,-2 2,-3l75 -39c9,-4 15,-11 20,-18 5,-8 7,-17 7,-26 0,-4 0,-8 -1,-12 -5,-20 -9,-40 -12,-60 -2,-12 -7,-22 -15,-29 -8,-8 -19,-13 -30,-14l-84 -7c-2,0 -3,-1 -5,-2 -1,-1 -1,-3 -1,-5l0 -101c0,-2 0,-3 1,-5 2,-1 3,-2 5,-2l84 -7c11,-1 22,-6 30,-14 8,-7 13,-17 15,-29 3,-20 7,-40 12,-60 1,-4 1,-8 1,-12 0,-9 -2,-18 -7,-25 -5,-8 -11,-15 -20,-19l-75 -39c-1,-1 -1,-2 -2,-3 -1,-1 -1,-2 -1,-3 0,-1 0,-2 1,-2l38 -94c1,-2 2,-3 3,-3 1,-1 2,-1 3,-1 1,0 2,0 2,0l81 25c5,2 10,2 15,2 8,0 17,-2 24,-6 8,-4 14,-10 19,-18 10,-17 22,-34 34,-51 6,-8 10,-19 10,-29 0,-12 -4,-23 -12,-32l-54 -65c-1,-2 -2,-3 -2,-4 0,-2 1,-4 2,-5l72 -72c1,-1 3,-2 5,-2 1,0 2,1 4,2l65 54c9,8 20,12 32,12 10,0 21,-4 29,-10 17,-12 34,-24 51,-34 8,-5 14,-11 18,-19 4,-7 6,-16 6,-24 0,-5 0,-10 -2,-15l-25 -81c0,0 0,-1 0,-2 0,-1 0,-2 1,-3 0,-1 1,-2 3,-3l94 -38c0,-1 1,-1 2,-1 1,0 2,0 3,1 1,1 2,1 3,2l39 75c4,9 11,15 19,20 7,5 16,7 25,7 4,0 8,0 12,-1 20,-5 40,-9 60,-12 12,-2 22,-7 29,-15 8,-8 13,-19 14,-30l7 -84c0,-2 1,-3 2,-5 2,-1 3,-1 5,-1l101 0c2,0 4,0 5,1 1,2 2,3 2,5l7 84c1,11 6,22 14,30 7,8 17,13 29,15 20,3 40,7 60,12 4,1 8,1 12,1 9,0 18,-2 26,-7 7,-5 14,-11 18,-20l39 -75c1,-1 2,-1 3,-2 1,-1 2,-1 3,-1 1,0 2,0 2,1l94 38c2,1 3,2 3,3 1,1 1,2 1,3 0,1 0,2 0,2l-25 81c-2,5 -2,10 -2,15 0,8 2,17 6,24 4,8 10,14 18,19 17,10 34,22 51,34 9,6 19,10 29,10 12,0 23,-4 33,-12l64 -54c2,-1 3,-2 5,-2 1,0 3,1 4,2l72 72c1,1 2,3 2,5 0,1 -1,2 -2,4l-54 65c-8,9 -11,20 -11,32 0,10 3,21 9,29 12,17 24,34 34,51 5,8 11,14 19,18 7,4 16,6 24,6 5,0 10,0 15,-2l81 -25c0,0 1,0 2,0 1,0 2,0 3,1 1,0 2,1 3,3l39 94c0,0 0,1 0,2 0,1 0,2 -1,3 0,1 -1,2 -2,3l-75 39c-9,4 -15,11 -20,19 -5,7 -7,16 -7,25 0,4 0,8 1,12 5,20 9,40 12,60 2,12 8,22 15,29 8,8 19,13 30,14l84 7c2,0 4,1 5,2 1,2 1,3 1,5l0 101zm31 -135c-8,-9 -20,-15 -33,-16l-84 -8c-1,0 -2,-1 -3,-2 -1,-1 -2,-2 -2,-3 -4,-22 -8,-43 -13,-64 0,-1 0,-1 0,-2 0,-1 0,-2 1,-3 0,-1 1,-2 2,-2l75 -40c8,-4 15,-11 20,-18 4,-8 7,-17 7,-26 0,-6 -1,-13 -4,-19l-39 -94c-4,-10 -11,-17 -19,-23 -8,-5 -17,-8 -27,-8 -5,0 -10,1 -15,2l-81 25c0,1 -1,1 -2,1 -1,0 -2,-1 -3,-1 -1,-1 -2,-1 -2,-2 -12,-19 -24,-37 -36,-55 -1,-1 -2,-2 -2,-3 0,-2 1,-3 2,-4l54 -65c8,-10 12,-21 12,-32 0,-13 -5,-26 -15,-36l-72 -72c-10,-10 -23,-15 -35,-14 -12,-1 -23,3 -33,11l-64 54c-2,1 -3,2 -5,2 -1,0 -2,-1 -3,-2 -18,-12 -36,-24 -54,-36 -1,0 -2,-1 -3,-2 0,-1 -1,-2 -1,-3 0,-1 0,-1 1,-2l0 0 25 -81c1,-5 2,-10 2,-15 0,-10 -3,-19 -8,-27 -5,-8 -13,-15 -23,-19l-94 -39c-6,-2 -13,-4 -19,-4 -9,0 -18,3 -26,7 -7,5 -14,12 -18,20l-40 75c0,1 -1,2 -2,2 -1,1 -2,1 -3,1 -1,0 -1,0 -2,0 -21,-5 -42,-9 -64,-13 -1,0 -2,0 -3,-1 -1,-2 -2,-3 -2,-4l-8 -84c-1,-13 -7,-25 -16,-33 -9,-8 -21,-13 -34,-13l-101 0c-13,0 -25,5 -34,13 -9,8 -15,20 -16,33l-8 84c0,1 -1,2 -2,4 -1,1 -2,1 -3,1 -22,4 -43,8 -64,13 -1,0 -1,0 -2,0 -1,0 -2,0 -3,-1 -1,0 -2,-1 -2,-2l-40 -75c-4,-8 -11,-15 -18,-20 -8,-4 -17,-7 -26,-7 -6,0 -13,2 -19,4l-94 39c-10,4 -17,11 -23,19 -5,8 -8,17 -8,27 0,5 1,10 2,15l25 81c1,1 1,1 1,2 0,1 -1,2 -1,3 -1,1 -1,2 -2,2 -19,12 -37,24 -55,36 -1,1 -2,2 -3,2 -2,0 -3,-1 -4,-2l-65 -54c-10,-8 -21,-12 -32,-12 -13,0 -26,5 -36,15l-72 72c-10,10 -15,23 -15,36 0,11 4,22 12,32l54 65c1,1 2,2 2,4 0,1 -1,2 -2,3 -12,18 -24,36 -36,55 0,1 -1,1 -2,2 -1,0 -2,1 -3,1 -1,0 -1,0 -2,-1l-81 -25c-5,-1 -10,-2 -15,-2 -10,0 -19,3 -27,8 -8,6 -15,13 -19,23l-39 94c-2,6 -4,13 -4,19 0,9 3,18 7,26 5,7 12,14 20,18l75 40c1,0 2,1 2,2 1,1 1,2 1,3 0,1 0,1 0,2 -5,21 -9,42 -13,64 0,1 0,2 -1,3 -2,1 -3,2 -4,2l-84 8c-13,1 -25,7 -33,16 -8,9 -13,21 -13,34l0 101c0,13 5,25 13,34 8,9 20,15 33,16l84 8c1,0 2,1 4,2 1,1 1,2 1,3 4,22 8,43 13,64 0,1 0,1 0,2 0,1 0,2 -1,3 0,1 -1,2 -2,2l-75 40c-8,4 -15,11 -20,18 -4,8 -7,17 -7,26 0,6 2,13 4,19l39 94c4,10 11,18 19,23 8,5 17,8 27,8 5,0 10,-1 15,-2l81 -25c1,-1 1,-1 2,-1 1,0 2,1 3,1 1,1 2,1 2,3 12,18 24,36 36,54 1,1 2,2 2,3 0,2 -1,3 -2,5l-54 64c-8,10 -12,21 -12,33 0,12 5,25 15,35l72 72c10,10 23,15 36,15 11,0 22,-4 32,-12l65 -54c1,-1 2,-2 4,-2 1,0 2,1 3,2 18,12 36,24 55,36 1,0 1,1 2,2 0,1 1,2 1,3 0,1 0,2 -1,2l-25 81c-1,5 -2,10 -2,15 0,10 3,19 8,27 6,8 13,15 23,19l94 39c6,3 13,4 19,4 9,0 18,-3 26,-7 7,-5 14,-12 18,-20l40 -75c0,-1 1,-2 2,-2 1,-1 2,-1 3,-1 1,0 1,0 2,0 21,5 42,9 64,13 1,0 2,1 3,2 1,1 2,2 2,3l10 110 0 0c1,5 3,10 6,14 4,4 10,6 16,6l127 0c13,0 25,-5 34,-13 9,-8 15,-20 16,-33l8 -84c0,-1 1,-2 2,-3 1,-1 2,-2 3,-2 22,-4 43,-8 64,-13 1,0 1,0 2,0 1,0 2,0 3,1 1,0 2,1 2,2l52 98c3,7 11,12 19,12l0 0c3,0 6,-1 8,-2l118 -49c10,-4 18,-11 23,-19 5,-8 8,-17 8,-27 0,-5 -1,-10 -2,-15l-25 -81c-1,0 -1,-1 -1,-2 0,-1 1,-2 1,-3 1,-1 1,-2 3,-2 18,-12 36,-24 54,-36 1,-1 2,-2 3,-2 2,0 3,1 5,2l64 54c10,8 21,12 33,12 12,0 25,-5 35,-15l72 -72c10,-10 15,-23 15,-35 0,-12 -4,-23 -12,-33l-54 -64c-1,-2 -2,-3 -2,-5 0,-1 1,-2 2,-3 12,-18 24,-36 36,-54 0,-2 1,-2 2,-3 1,0 2,-1 3,-1 1,0 2,0 2,1l81 25c5,1 10,2 15,2 10,0 19,-3 27,-8 8,-5 15,-13 19,-23l39 -94c3,-6 4,-13 4,-19 0,-9 -3,-18 -7,-26 -5,-7 -12,-14 -20,-18l-75 -40c-1,0 -2,-1 -2,-2 -1,-1 -1,-2 -1,-3 0,-1 0,-1 0,-2 5,-21 9,-42 13,-64 0,-1 1,-2 2,-3 1,-1 2,-2 3,-2l84 -8c13,-1 25,-7 33,-16 8,-9 13,-21 13,-34l0 -101c0,-13 -5,-25 -13,-34zm-518 -575l0 0 0 0 0 0z"/>
 </g>
</svg>
