<?xml version="1.0" encoding="UTF-8"?>
<!DOCTYPE svg PUBLIC "-//W3C//DTD SVG 1.1//EN" "http://www.w3.org/Graphics/SVG/1.1/DTD/svg11.dtd">
<!-- Creator: CorelDRAW X7 -->
<svg xmlns="http://www.w3.org/2000/svg" xml:space="preserve" width="2.36076in" height="2.76228in" version="1.1" style="shape-rendering:geometricPrecision; text-rendering:geometricPrecision; image-rendering:optimizeQuality; fill-rule:evenodd; clip-rule:evenodd"
viewBox="0 0 1213 1419"
 xmlns:xlink="http://www.w3.org/1999/xlink">
 <defs>
  <style type="text/css">
   <![CDATA[
    .fil0 {fill:#333B47}
   ]]>
  </style>
 </defs>
 <g id="Layer_x0020_1">
  <metadata id="CorelCorpID_0Corel-Layer"/>
  <path class="fil0" d="M706 838l73 41c20,12 46,1 51,-23 3,-15 4,-32 4,-48 0,-17 -1,-33 -4,-49 -5,-23 -31,-35 -51,-23l-73 42c-23,13 -23,46 0,60z"/>
  <path class="fil0" d="M484 906l-72 42c-20,11 -23,40 -6,55 25,22 53,38 85,49 22,8 45,-9 45,-33l0 -83c0,-27 -29,-44 -52,-30z"/>
  <path class="fil0" d="M667 710l72 -42c21,-12 24,-41 6,-56 -25,-21 -53,-38 -84,-49 -23,-8 -46,9 -46,33l0 84c0,26 29,43 52,30z"/>
  <path class="fil0" d="M739 948l-72 -42c-23,-14 -52,3 -52,30l0 83c0,24 23,41 46,33 31,-11 59,-27 84,-49 18,-15 15,-44 -6,-55z"/>
  <path class="fil0" d="M518 808c0,32 26,57 58,57 31,0 57,-25 57,-57 0,-32 -26,-58 -57,-58 -32,0 -58,26 -58,58z"/>
  <path class="fil0" d="M412 668l72 42c23,13 52,-4 52,-30l0 -84c0,-24 -23,-41 -45,-33 -32,11 -60,28 -85,49 -17,15 -14,44 6,56z"/>
  <path class="fil0" d="M201 780c0,-7 5,-12 11,-12l12 0c11,0 21,-8 22,-19 4,-19 9,-38 15,-56 4,-10 0,-22 -10,-27l-10 -6c-5,-3 -7,-10 -4,-16l28 -48c3,-5 10,-7 16,-4l10 6c9,5 22,3 29,-5 12,-15 26,-29 40,-41 9,-7 11,-20 6,-29l-6 -10c-3,-6 -1,-13 4,-16l48 -28c6,-3 13,-1 16,4l6 10c5,10 17,14 27,10 18,-6 37,-11 56,-14 11,-2 19,-12 19,-23l0 -11c0,-7 5,-12 12,-12l55 0c7,0 12,5 12,12l0 11c0,11 8,21 19,23 19,3 38,8 56,14 10,4 22,0 28,-10l5 -10c3,-5 10,-7 16,-4l48 28c6,3 7,10 4,16l-5 10c-6,9 -4,22 5,29 15,12 28,26 41,41 7,8 19,10 28,5l10 -6c6,-3 13,-1 16,4l28 48c3,6 1,13 -4,16l-10 6c-9,5 -14,17 -10,27 6,18 11,37 15,56 2,11 11,19 22,19l12 0c6,0 11,5 11,12l0 56c0,6 -5,11 -11,11l-12 0c-11,0 -20,8 -22,19 -4,20 -9,38 -15,56 -4,10 1,22 10,28l10 5c5,3 7,10 4,16l-28 48c-3,6 -10,8 -16,4l-10 -5c-9,-6 -21,-4 -28,5 -13,15 -26,28 -41,41 -9,7 -11,19 -5,29l5 10c3,5 2,12 -4,15l-48 28c-6,3 -13,1 -16,-4l-5 -10c-6,-9 -18,-14 -28,-10 -18,6 -37,11 -56,15 -11,2 -19,11 -19,23l0 11c0,6 -5,11 -12,11l-55 0c-7,0 -12,-5 -12,-11l0 -11c0,-12 -8,-21 -19,-23 -19,-4 -38,-9 -56,-15 -10,-4 -22,1 -27,10l-6 10c-3,5 -10,7 -16,4l-48 -28c-5,-3 -7,-10 -4,-15l6 -10c5,-10 3,-22 -6,-29 -14,-13 -28,-26 -40,-41 -7,-9 -20,-11 -29,-5l-10 5c-6,4 -13,2 -16,-4l-28 -48c-3,-6 -1,-13 4,-16l10 -5c10,-6 14,-18 10,-28 -6,-18 -11,-36 -15,-56 -1,-11 -11,-19 -22,-19l-12 0c-6,0 -11,-5 -11,-11l0 -56zm-100 -780c-56,0 -101,45 -101,101l0 1217c0,56 45,101 101,101l1044 0 0 -1255 -1044 0c-35,0 -63,-28 -63,-63 0,-35 28,-63 63,-63l1074 0 0 1198 38 0 0 -1236 -1112 0z"/>
  <path class="fil0" d="M373 879l72 -41c23,-14 23,-47 0,-60l-72 -42c-21,-12 -47,0 -52,23 -3,16 -4,32 -4,49 0,16 1,33 4,48 5,24 31,35 52,23z"/>
 </g>
</svg>
