<?xml version="1.0" encoding="UTF-8"?>
<!DOCTYPE svg PUBLIC "-//W3C//DTD SVG 1.1//EN" "http://www.w3.org/Graphics/SVG/1.1/DTD/svg11.dtd">
<!-- Creator: CorelDRAW X7 -->
<svg xmlns="http://www.w3.org/2000/svg" xml:space="preserve" width="2.60449in" height="3.50689in" version="1.1" style="shape-rendering:geometricPrecision; text-rendering:geometricPrecision; image-rendering:optimizeQuality; fill-rule:evenodd; clip-rule:evenodd"
viewBox="0 0 970 1306"
 xmlns:xlink="http://www.w3.org/1999/xlink">
 <defs>
  <style type="text/css">
   <![CDATA[
    .fil0 {fill:#413F42;fill-rule:nonzero}
   ]]>
  </style>
 </defs>
 <g id="__x0023_Layer_x0020_1">
  <metadata id="CorelCorpID_0Corel-Layer"/>
  <path class="fil0" d="M832 0l-694 0c-76,0 -138,62 -138,138l0 1030c0,77 62,138 138,138l694 0c76,0 138,-61 138,-138l0 -1030c0,-76 -62,-138 -138,-138zm112 138l0 0 0 316 -58 0 0 222 -859 0 0 -189 178 0c12,45 53,78 101,78 15,0 28,-3 41,-8l422 -139c84,-17 148,-92 148,-182 0,-102 -83,-185 -185,-185 -39,0 -75,12 -105,32l0 0 -2 2c-4,3 -8,5 -12,9l-255 195 0 -262 474 0c62,0 112,50 112,111zm0 329l0 0 0 337 -45 0 0 -337 45 0zm-58 270l0 0 -276 0 0 41 -583 0 0 -89 859 0 0 48zm-276 55l0 0 0 27 -583 0 0 -27 583 0zm23 -697l0 0c28,-19 62,-31 99,-31 95,0 172,77 172,172 0,95 -77,172 -172,172 -95,0 -172,-77 -172,-172 0,-53 24,-100 61,-132l12 -9zm-87 141l0 0c0,97 76,177 171,185l-333 109c17,-18 27,-43 27,-70 0,-39 -21,-72 -53,-91l0 -63 214 -164c-16,27 -26,60 -26,94zm-148 224l0 0c0,50 -41,91 -92,91 -50,0 -91,-41 -91,-91 0,-50 41,-91 91,-91 51,0 92,41 92,91zm-53 -97l0 0c-12,-5 -25,-7 -39,-7 -5,0 -9,0 -14,1l53 -41 0 47zm-96 10l0 0c-28,18 -47,51 -47,87 0,5 0,10 1,14l-27 0 0 -447 169 0 0 272 -96 74 0 0zm-111 -346l0 0 25 0 0 447 -136 0 0 -336c0,-61 50,-111 111,-111zm694 1253l0 0 -694 0c-61,0 -111,-50 -111,-112l0 -335 596 0 0 -83 263 0 0 67 58 0 0 351c0,62 -50,112 -112,112z"/>
  <path class="fil0" d="M732 368c73,0 132,-59 132,-132 0,-73 -59,-132 -132,-132 -73,0 -133,59 -133,132 0,73 60,132 133,132zm0 -251l0 0c65,0 119,53 119,119 0,66 -54,119 -119,119 -66,0 -119,-53 -119,-119 0,-66 53,-119 119,-119z"/>
  <path class="fil0" d="M779 958l-433 -77 0 0c-13,-3 -26,-4 -40,-4 -102,0 -185,83 -185,185 0,102 83,186 185,186 14,0 27,-2 40,-5l0 0 433 -77 0 0c52,-6 93,-50 93,-104 0,-53 -41,-97 -93,-104zm-645 104l0 0c0,-95 77,-172 172,-172 95,0 173,77 173,172 0,95 -78,172 -173,172 -95,0 -172,-77 -172,-172zm358 0l0 0c0,-66 -35,-124 -88,-157l329 59c-41,14 -71,53 -71,98 0,46 30,85 71,99l-329 58c53,-32 88,-91 88,-157zm275 91l0 0c-50,0 -91,-40 -91,-91 0,-50 41,-91 91,-91 50,0 91,41 91,91 0,51 -41,91 -91,91z"/>
  <path class="fil0" d="M306 990c-39,0 -72,32 -72,72 0,40 33,72 72,72 40,0 72,-32 72,-72 0,-40 -32,-72 -72,-72zm0 131l0 0c-32,0 -59,-26 -59,-59 0,-32 27,-59 59,-59 33,0 59,27 59,59 0,33 -26,59 -59,59z"/>
 </g>
</svg>
