<?xml version="1.0" encoding="UTF-8"?>
<!DOCTYPE svg PUBLIC "-//W3C//DTD SVG 1.1//EN" "http://www.w3.org/Graphics/SVG/1.1/DTD/svg11.dtd">
<!-- Creator: CorelDRAW X7 -->
<svg xmlns="http://www.w3.org/2000/svg" xml:space="preserve" width="2.69981in" height="1.32876in" version="1.1" style="shape-rendering:geometricPrecision; text-rendering:geometricPrecision; image-rendering:optimizeQuality; fill-rule:evenodd; clip-rule:evenodd"
viewBox="0 0 1460 718"
 xmlns:xlink="http://www.w3.org/1999/xlink">
 <defs>
  <style type="text/css">
   <![CDATA[
    .fil0 {fill:#282828;fill-rule:nonzero}
   ]]>
  </style>
 </defs>
 <g id="OBJECTS">
  <metadata id="CorelCorpID_0Corel-Layer"/>
  <polygon class="fil0" points="1229,412 1077,601 1130,643 1282,455 "/>
  <polygon class="fil0" points="1068,632 1105,662 1118,645 1081,616 "/>
  <path class="fil0" d="M1376 240c1,1 15,15 10,22 -6,7 -117,145 -117,145l-12 -10 -14 16 37 30 13 -16 -11 -10c0,0 114,-142 118,-146 3,-5 21,5 22,7 4,3 38,-63 38,-63l-32 -25c0,0 -56,47 -52,50z"/>
  <path class="fil0" d="M879 88c-44,0 -79,84 -79,187 0,103 35,186 79,186 43,0 78,-83 78,-186 0,-103 -35,-187 -78,-187z"/>
  <path class="fil0" d="M532 329c0,1 0,2 0,3 1,4 1,7 2,11 0,0 0,1 0,2 1,4 1,8 2,12 0,0 0,1 0,1 1,4 2,8 3,12 0,0 0,0 0,0 25,4 57,23 75,36 -1,-2 -1,-3 -2,-5 0,-1 0,-3 -1,-4 -1,-4 -2,-8 -3,-11 0,-1 0,-2 -1,-2 -2,-9 -4,-18 -5,-26 -11,-9 -42,-34 -71,-40 0,4 1,7 1,11z"/>
  <path class="fil0" d="M637 15l0 0c0,0 0,0 0,0 0,0 0,0 0,0z"/>
  <path class="fil0" d="M556 136c-1,3 -3,6 -4,10 0,1 -1,3 -1,5 -1,2 -2,5 -3,7 -1,2 -1,3 -2,5 0,3 -1,5 -2,8 0,2 -1,3 -1,5 -1,3 -2,6 -2,9 -1,0 -1,1 -1,2 26,3 46,24 57,37 0,0 0,-1 0,-1 0,-4 1,-7 1,-10 0,-2 1,-3 1,-4 0,-3 1,-6 1,-9 1,-3 1,-7 2,-11 0,0 0,-1 0,-1 1,-5 2,-9 3,-13 -5,-10 -21,-35 -49,-39z"/>
  <path class="fil0" d="M530 256c0,2 0,3 0,5 0,3 -1,6 -1,9 0,3 0,7 0,11 0,5 0,11 1,16 0,0 0,1 0,1 0,4 0,7 0,11 27,4 54,23 69,35 0,-1 0,-2 0,-3 -1,-2 -1,-4 -1,-6 0,-2 -1,-4 -1,-6 0,-2 0,-4 -1,-6 0,-2 0,-3 0,-5 -1,-5 -1,-9 -1,-14 0,-1 0,-2 0,-3 -14,-15 -42,-42 -65,-45z"/>
  <path class="fil0" d="M698 552c-1,0 -41,-27 -89,-41 2,2 3,4 5,6 1,0 1,1 2,1 1,1 2,3 3,4 1,0 2,1 3,2 1,1 2,2 3,3 1,0 2,1 2,2 1,0 2,1 4,2 0,1 1,2 2,2 1,1 2,2 3,2 1,1 2,2 3,2 1,1 2,2 3,2 1,1 2,2 3,2 1,1 2,2 3,2 1,1 2,1 3,2 1,1 2,1 3,2 1,0 2,1 3,1 1,1 2,1 3,2 1,0 2,1 3,1 1,1 2,1 3,2 1,0 2,1 3,1 1,0 2,1 4,1 0,0 0,0 1,1l27 0c-1,-2 -2,-3 -3,-4z"/>
  <path class="fil0" d="M692 1c-2,0 -4,1 -7,1 0,0 -1,0 -1,1 -3,0 -6,1 -9,2 -1,1 -2,1 -3,1 -2,1 -4,2 -7,3 -1,1 -3,2 -4,2 -2,1 -3,2 -5,3 -1,0 -2,1 -3,1 7,6 12,13 16,18 1,-1 1,-2 2,-3 1,-1 2,-3 4,-5 0,-1 1,-2 2,-3 2,-2 3,-4 4,-5 1,-2 3,-3 4,-5 1,-1 2,-2 3,-4 2,-2 4,-5 7,-7l-3 0z"/>
  <path class="fil0" d="M695 0c-1,0 -2,0 -3,1l3 0c0,-1 0,-1 0,-1z"/>
  <path class="fil0" d="M630 101c0,-1 1,-1 1,-2 2,-5 4,-9 7,-14 0,-1 1,-2 1,-3 2,-4 4,-8 7,-12 5,-10 11,-20 18,-30 -5,-6 -12,-14 -19,-20 0,0 -1,1 -1,1 -3,1 -5,3 -7,5 -1,0 -1,0 -1,0 -2,2 -4,3 -6,5 -1,0 -1,1 -2,1 -2,2 -3,3 -5,5 -1,0 -1,1 -2,2 -2,1 -3,2 -5,4 -1,1 -1,1 -2,2 -2,2 -3,3 -4,4 -1,1 -2,2 -3,3 -1,2 -2,3 -3,4 -1,1 -2,2 -3,4 -1,1 -2,2 -3,3 -1,1 -2,3 -4,4 0,1 0,1 -1,2 18,7 30,22 37,32z"/>
  <path class="fil0" d="M588 77c-2,2 -4,5 -6,8 -1,2 -2,4 -4,6 -1,2 -2,4 -4,7 -1,2 -2,3 -2,5 -2,2 -3,5 -5,8 -1,2 -1,3 -2,4 -1,4 -3,7 -4,10 -1,1 -1,2 -2,3 25,4 41,22 49,35 1,-3 2,-5 2,-8 1,-1 1,-2 1,-3 1,-3 3,-7 4,-11 0,-1 1,-2 1,-3 1,-4 2,-7 4,-11 1,-3 2,-6 3,-8 1,-3 2,-6 3,-8 -5,-8 -18,-28 -38,-34z"/>
  <path class="fil0" d="M555 445c0,0 -1,0 -1,0l1 1c0,-1 0,-1 0,-1z"/>
  <path class="fil0" d="M712 495c0,0 0,0 -1,-1 -10,-16 -19,-33 -26,-50 0,0 0,0 -1,-3 -9,-20 -16,-40 -21,-61 0,0 -8,-41 -10,-60 0,0 -3,-31 -3,-45 0,-8 1,-16 1,-24 0,0 5,-50 7,-60 3,-10 13,-51 22,-72 0,0 19,-43 29,-60 0,0 4,-6 6,-10 12,-17 24,-33 38,-48l-46 0 -5 5c-27,30 -50,66 -66,105 0,0 0,0 0,0l-1 0c-8,20 -21,65 -21,65 -7,32 -11,65 -11,99 0,7 0,23 0,23 1,19 7,58 7,58 4,20 10,40 16,59 1,2 1,2 1,2 8,23 18,45 30,66 2,2 35,51 56,73l46 0c-18,-19 -33,-39 -47,-61z"/>
  <path class="fil0" d="M538 196c-1,3 -1,6 -2,10 0,1 0,2 -1,4 0,3 -1,6 -1,8 0,2 0,3 -1,4 0,3 0,6 -1,9 0,2 0,3 0,4 -1,3 -1,6 -1,9 0,1 0,2 0,3 23,3 49,26 63,40 0,-4 0,-8 0,-12 0,-6 0,-13 0,-19 0,-6 1,-12 1,-17 0,-1 0,-1 0,-1 -5,-8 -27,-40 -57,-42z"/>
  <path class="fil0" d="M572 460c1,1 1,2 2,3 2,4 4,7 6,11 1,1 1,1 2,2 2,4 5,8 7,11 0,0 1,1 1,1 3,4 6,8 8,11 0,0 1,0 1,0 34,8 64,23 82,34 0,-1 -1,-1 -1,-2 -1,-1 -2,-2 -3,-4 -3,-3 -5,-6 -7,-9 -1,-2 -2,-3 -3,-4 -6,-8 -11,-16 -16,-25 -14,-9 -55,-35 -86,-42 2,4 5,8 7,13z"/>
  <path class="fil0" d="M544 390c1,2 1,5 2,7 1,2 2,5 2,8 1,2 2,4 3,7 1,2 1,4 2,6 1,3 2,6 3,8 1,2 2,4 3,6 0,2 1,3 2,5 26,4 60,23 81,35 -1,-1 -2,-3 -3,-4 -1,-2 -1,-3 -2,-5 -2,-4 -4,-7 -5,-10 -1,-2 -2,-3 -2,-5 -2,-5 -4,-10 -6,-15 -1,-1 -1,-2 -2,-3 -1,-3 -2,-6 -3,-10 -18,-13 -52,-35 -78,-40 1,3 2,7 3,10z"/>
  <path class="fil0" d="M787 72c8,-18 18,-34 29,-50 -21,2 -67,10 -94,33 0,0 0,1 -1,1l0 0c-2,4 -5,8 -7,13 0,0 -1,0 -1,0 -6,11 -11,21 -16,32 45,-34 83,-30 90,-29z"/>
  <path class="fil0" d="M762 134c6,-18 13,-36 21,-54 -12,0 -51,1 -94,39 -4,9 -7,19 -10,28 0,1 0,1 -1,2 -1,4 -2,9 -4,13 0,1 0,3 -1,4 0,2 0,3 -1,5 17,-17 47,-38 90,-37z"/>
  <path class="fil0" d="M747 196c3,-18 7,-36 12,-53 -50,-1 -81,33 -91,47 -3,14 -5,30 -7,45 16,-17 47,-43 86,-39z"/>
  <path class="fil0" d="M832 1l-67 0c-2,2 -4,4 -6,7 -2,1 -3,2 -4,3 -2,2 -3,5 -5,7 -2,1 -3,3 -4,4 -2,2 -4,5 -5,7 -1,1 -2,3 -3,4 -1,0 -1,1 -2,2 33,-18 74,-21 87,-22 3,-4 6,-8 9,-12z"/>
  <path class="fil0" d="M1014 277c0,-140 -49,-257 -112,-276l-57 0c-60,70 -97,174 -95,288 3,100 34,193 89,263 1,1 2,2 4,4l49 0c68,-10 122,-131 122,-279zm-239 -1l0 0c0,-128 47,-232 105,-232 59,0 106,104 106,232 0,128 -47,231 -106,231 -58,0 -105,-103 -105,-231z"/>
  <path class="fil0" d="M741 258c1,-18 2,-36 5,-53 -43,-4 -76,33 -86,45 0,4 0,7 -1,11 0,0 0,0 0,1 0,4 0,8 0,13 0,6 0,12 1,18 0,1 0,2 0,4 0,3 0,6 0,9 16,-20 49,-56 81,-48z"/>
  <path class="fil0" d="M742 321c-1,-11 -1,-21 -2,-32 0,-7 0,-14 0,-21 -31,-11 -68,37 -78,51 0,3 0,5 0,7 1,3 1,6 1,9 1,3 1,6 2,9 0,2 0,3 0,4 1,3 2,7 2,10 1,1 1,2 1,3 0,2 1,3 1,5 12,-18 39,-51 73,-45z"/>
  <path class="fil0" d="M795 503c-9,-18 -17,-35 -24,-54 -31,0 -46,32 -50,44 3,4 5,8 8,13 1,0 1,0 1,1 3,4 6,8 9,12 1,1 2,3 4,4 2,3 4,6 6,8 1,2 3,4 4,5 2,2 3,4 5,5 6,-13 20,-37 37,-38z"/>
  <path class="fil0" d="M800 510l-1 1c-13,-2 -28,23 -35,37 3,3 5,5 8,8l58 0c-11,-15 -21,-30 -30,-46z"/>
  <path class="fil0" d="M768 440c-6,-17 -11,-34 -15,-51 -36,-6 -54,37 -60,52 4,8 7,16 11,23 1,1 1,1 1,2 2,3 4,6 5,9 1,1 1,2 2,3 1,2 2,4 3,5 7,-15 23,-41 53,-43z"/>
  <path class="fil0" d="M751 379c-4,-16 -6,-32 -8,-49 -35,-7 -63,35 -71,49 1,2 1,5 2,7 1,4 2,8 3,11 1,3 2,6 3,8 0,2 1,4 2,7 1,2 2,4 2,7 1,2 2,4 3,6 0,1 1,3 1,4 9,-20 29,-52 63,-50z"/>
  <path class="fil0" d="M132 604l-66 -38 -66 39 1 76 66 37 65 -38 0 -76zm-66 69l0 0c-17,0 -30,-14 -30,-31 0,-17 13,-30 30,-30 17,0 31,13 31,30 0,17 -14,31 -31,31z"/>
  <path class="fil0" d="M337 160l-140 -79 -139 81 2 161 139 79 139 -81 -1 -161zm-139 146l0 0c-35,0 -64,-29 -64,-64 0,-36 29,-65 64,-65 36,0 65,29 65,65 0,35 -29,64 -65,64z"/>
 </g>
</svg>
