<?xml version="1.0" encoding="UTF-8"?>
<!DOCTYPE svg PUBLIC "-//W3C//DTD SVG 1.1//EN" "http://www.w3.org/Graphics/SVG/1.1/DTD/svg11.dtd">
<!-- Creator: CorelDRAW X7 -->
<svg xmlns="http://www.w3.org/2000/svg" xml:space="preserve" width="0.635287in" height="2.52254in" version="1.1" style="shape-rendering:geometricPrecision; text-rendering:geometricPrecision; image-rendering:optimizeQuality; fill-rule:evenodd; clip-rule:evenodd"
viewBox="0 0 17 67"
 xmlns:xlink="http://www.w3.org/1999/xlink">
 <defs>
  <style type="text/css">
   <![CDATA[
    .fil1 {fill:#BDBFC1}
    .fil0 {fill:#848688}
    .fil2 {fill:#4B4B4D}
   ]]>
  </style>
 </defs>
 <g id="Layer_x0020_1">
  <metadata id="CorelCorpID_0Corel-Layer"/>
  <path class="fil0" d="M14 54l-11 0 0 2c0,1 0,2 1,3 1,0 2,1 3,1l3 0c1,0 2,-1 3,-1 1,-1 1,-2 1,-3l0 -2zm-6 11c0,0 -1,-1 -1,-1 0,-1 1,-1 1,-1 1,0 1,0 1,1 0,0 0,1 -1,1zm0 -4c0,0 -1,1 -1,1 0,0 -1,1 -1,2 0,0 1,1 1,1 0,0 1,1 1,1 1,0 2,-1 2,-1 0,0 1,-1 1,-1 0,-1 -1,-2 -1,-2 0,0 -1,-1 -2,-1zm0 -58c1,0 2,1 2,1 0,1 -1,1 -2,1 0,0 -1,0 -1,-1 0,0 1,-1 1,-1zm0 4c1,0 2,0 2,-1 1,0 1,-1 1,-2 0,0 0,-1 -1,-2 0,0 -1,0 -2,0 0,0 -1,0 -1,0 -1,1 -1,2 -1,2 0,1 0,2 1,2 0,1 1,1 1,1z"/>
  <path class="fil1" d="M14 10c-1,-1 -2,-1 -4,-1l-3 0c-2,0 -3,0 -4,1 -1,1 -1,2 -1,3l0 22 13 0 0 -22c0,-1 0,-2 -1,-3z"/>
  <path class="fil2" d="M15 38l0 0 -13 0c0,0 -1,0 -1,1 0,0 0,1 1,1l6 1 -6 0c0,0 -1,0 -1,1 0,0 0,1 1,1l6 1 -6 0c0,0 -1,0 -1,1 0,0 0,0 1,1l6 1 -6 0c0,0 -1,0 -1,1 0,0 0,0 1,0l6 2 -6 0c0,0 -1,0 -1,1 0,0 1,0 1,0l13 0c0,0 1,0 1,0 0,-1 -1,-1 -1,-1l-6 -1 6 0c0,0 1,-1 1,-1 0,-1 -1,-1 -1,-1l-6 -1 6 0c0,0 1,-1 1,-1 0,-1 -1,-1 -1,-1l-6 -1 6 0c0,0 1,-1 1,-1 0,0 -1,-1 -1,-1l-6 -1 6 0c0,0 1,-1 1,-1 0,-1 -1,-1 -1,-1zm-7 -33c1,0 2,0 2,-1 0,0 -1,-1 -2,-1 0,0 -1,1 -1,1 0,1 1,1 1,1zm5 54c-1,0 -2,1 -3,1l-3 0c-1,0 -2,-1 -3,-1 -1,-1 -1,-2 -1,-3l0 -2 11 0 0 2c0,1 0,2 -1,3zm-3 6c0,0 -1,1 -2,1 0,0 -1,-1 -1,-1 0,0 -1,-1 -1,-1 0,-1 1,-2 1,-2 0,0 1,-1 1,-1 1,0 2,1 2,1 0,0 1,1 1,2 0,0 -1,1 -1,1zm5 -12l-13 0c0,0 0,0 -1,0 0,0 0,0 0,1l0 2c0,1 1,3 2,4 1,1 1,1 3,1 -1,1 -1,2 -1,3 0,1 0,1 1,2 1,1 1,1 2,1 1,0 2,0 3,-1 1,-1 1,-1 1,-2 0,-1 0,-2 -1,-3 1,0 2,0 3,-1 1,-1 2,-3 2,-4l0 -2c0,-1 0,-1 -1,-1 0,0 0,0 0,0zm-7 10c0,0 -1,0 -1,1 0,0 1,1 1,1 1,0 1,-1 1,-1 0,-1 0,-1 -1,-1zm7 -28l-13 0 0 -22c0,-1 0,-2 1,-3 1,-1 2,-1 4,-1l3 0c2,0 3,0 4,1 1,1 1,2 1,3l0 22zm-8 -33c0,0 1,0 1,0 1,0 2,0 2,0 1,1 1,2 1,2 0,1 0,2 -1,2 0,1 -1,1 -2,1 0,0 -1,0 -1,-1 -1,0 -1,-1 -1,-2 0,0 0,-1 1,-2zm8 7c-1,-1 -2,-2 -3,-2 0,-1 1,-2 1,-3 0,-1 -1,-2 -2,-3 0,-1 -1,-1 -3,-1 -1,0 -2,0 -3,1 0,1 -1,2 -1,3 0,1 1,2 1,3 -1,0 -2,1 -3,2 -1,1 -2,3 -2,4l0 23c0,0 0,0 0,1 0,0 1,0 1,0l15 0c0,0 1,0 1,0 0,-1 0,-1 0,-1l0 -23c0,-1 -1,-3 -2,-4z"/>
 </g>
</svg>
