<?xml version="1.0" encoding="UTF-8"?>
<!DOCTYPE svg PUBLIC "-//W3C//DTD SVG 1.1//EN" "http://www.w3.org/Graphics/SVG/1.1/DTD/svg11.dtd">
<!-- Creator: CorelDRAW X7 -->
<svg xmlns="http://www.w3.org/2000/svg" xml:space="preserve" width="5.33852in" height="1.99563in" version="1.1" style="shape-rendering:geometricPrecision; text-rendering:geometricPrecision; image-rendering:optimizeQuality; fill-rule:evenodd; clip-rule:evenodd"
viewBox="0 0 4114 1538"
 xmlns:xlink="http://www.w3.org/1999/xlink">
 <defs>
  <style type="text/css">
   <![CDATA[
    .fil0 {fill:#606062}
   ]]>
  </style>
 </defs>
 <g id="Layer_x0020_1">
  <metadata id="CorelCorpID_0Corel-Layer"/>
  <path class="fil0" d="M1604 1008c-285,0 -517,-131 -517,-292 0,-161 232,-292 517,-292 286,0 517,131 517,292 0,161 -231,292 -517,292zm-809 278c-285,0 -517,-232 -517,-517 0,-286 232,-517 517,-517l0 1034zm1644 -597l-238 -689 -1432 0c-425,0 -769,344 -769,769 0,425 344,769 769,769l1829 0 1233 -1154 0 -159 -1392 464z"/>
  <polygon class="fil0" points="1312,623 1816,623 1816,782 1312,782 "/>
  <path class="fil0" d="M3831 623c0,0 -322,336 -278,539 44,204 278,181 278,181 0,0 235,23 279,-181 44,-203 -279,-539 -279,-539z"/>
 </g>
</svg>
