<?xml version="1.0" encoding="UTF-8"?>
<!DOCTYPE svg PUBLIC "-//W3C//DTD SVG 1.1//EN" "http://www.w3.org/Graphics/SVG/1.1/DTD/svg11.dtd">
<!-- Creator: CorelDRAW X7 -->
<svg xmlns="http://www.w3.org/2000/svg" xml:space="preserve" width="5.67748in" height="5.67752in" version="1.1" style="shape-rendering:geometricPrecision; text-rendering:geometricPrecision; image-rendering:optimizeQuality; fill-rule:evenodd; clip-rule:evenodd"
viewBox="0 0 1439 1439"
 xmlns:xlink="http://www.w3.org/1999/xlink">
 <defs>
  <style type="text/css">
   <![CDATA[
    .fil0 {fill:#29C0D8;fill-rule:nonzero}
    .fil1 {fill:#29A2B6;fill-rule:nonzero}
   ]]>
  </style>
 </defs>
 <g id="icons">
  <metadata id="CorelCorpID_0Corel-Layer"/>
  <path class="fil0" d="M1138 452c79,25 170,6 233,-57 64,-63 83,-155 57,-235 -48,47 -60,59 -77,76 -41,41 -107,41 -148,0 -40,-41 -40,-107 1,-148 18,-18 31,-31 76,-76 -80,-27 -171,-8 -235,55 -64,63 -83,154 -57,234l-686 687c-80,-26 -171,-7 -234,56 -64,64 -83,155 -57,236 48,-48 60,-60 77,-77 41,-41 107,-41 148,0 41,41 41,108 0,148 -19,19 -32,31 -77,77 80,26 172,8 236,-56 63,-63 82,-154 57,-233l686 -687z"/>
  <path class="fil1" d="M986 375c-21,21 -609,613 -609,613 -21,21 -21,54 0,75 21,21 54,21 75,0 21,-21 609,-613 609,-613 21,-21 21,-54 0,-75 -21,-21 -54,-21 -75,0z"/>
 </g>
</svg>
