<?xml version="1.0" encoding="UTF-8"?>
<!DOCTYPE svg PUBLIC "-//W3C//DTD SVG 1.1//EN" "http://www.w3.org/Graphics/SVG/1.1/DTD/svg11.dtd">
<!-- Creator: CorelDRAW X7 -->
<svg xmlns="http://www.w3.org/2000/svg" xml:space="preserve" width="0.758815in" height="0.114594in" version="1.1" style="shape-rendering:geometricPrecision; text-rendering:geometricPrecision; image-rendering:optimizeQuality; fill-rule:evenodd; clip-rule:evenodd"
viewBox="0 0 83 13"
 xmlns:xlink="http://www.w3.org/1999/xlink">
 <defs>
  <style type="text/css">
   <![CDATA[
    .fil0 {fill:#777876}
   ]]>
  </style>
 </defs>
 <g id="Layer_x0020_1">
  <metadata id="CorelCorpID_0Corel-Layer"/>
  <path class="fil0" d="M75 10l0 0c0,0 -1,0 -1,0 0,0 -1,-1 -1,-1 0,-1 0,-1 0,-1 0,0 0,-1 0,-2 0,0 -1,-1 0,-1 0,0 0,0 0,-1 0,0 1,0 1,0 0,0 0,-1 0,-1 0,0 1,0 1,0 0,0 1,-1 1,-1 0,0 0,0 1,0 0,0 1,0 1,0 0,0 1,1 1,1 0,0 1,0 1,0 0,1 0,1 0,2 1,0 1,0 1,1 0,0 0,0 0,1 0,0 0,1 0,1 0,0 0,0 -1,1 0,0 0,1 0,1 0,0 -1,0 -1,0 0,0 -1,1 -1,1 0,0 -1,0 -1,0l-1 0c-1,0 -1,-1 -1,-1l0 0zm-67 -2l0 0c-1,0 -1,0 -1,1 0,0 -1,0 -1,0 0,0 -1,0 -1,0l-1 0c0,0 0,-1 -1,-1 0,0 0,0 0,0 0,0 -1,-1 -1,-1 0,0 0,-1 0,-1 0,0 0,0 0,-1 0,0 0,0 0,-1 0,0 0,0 0,0 0,0 1,0 1,-1 0,0 0,-1 0,-1 0,0 1,0 1,0 0,0 1,0 1,0 0,0 0,0 0,0 1,0 1,0 1,0 0,0 1,0 1,0 0,1 1,1 1,1 0,0 0,1 0,1 0,0 1,0 1,1 0,0 0,0 0,1 0,0 0,0 0,1 0,0 -1,0 -1,0 0,1 0,1 0,1l0 0zm74 2c0,-1 1,-1 1,-2 0,0 0,0 0,-1 0,0 1,-1 0,-2 0,-1 -1,-2 -1,-2 0,-1 -1,-1 -1,-1 -1,0 -2,-1 -3,-1 -1,-1 -2,0 -3,0 -1,0 -2,1 -3,2 0,0 -1,0 -1,0 0,0 -1,0 -1,0 -1,0 -1,1 -1,1 0,0 -1,0 -2,0 -1,0 -4,0 -5,0 -2,0 -7,0 -8,0 -2,0 -7,0 -8,0 -1,0 -6,-1 -6,-1 0,0 -1,0 -2,0 -1,0 -7,0 -8,0 -2,0 -6,0 -7,0 -2,0 -4,0 -5,0 -1,0 -2,0 -3,0 0,0 -1,0 -2,0 0,-1 -1,-1 -1,-1 -1,0 -1,0 -1,0 0,0 -1,-1 -2,-1 -1,-1 -2,-1 -2,-1 -2,0 -3,0 -4,1 -1,0 -2,1 -3,3 0,1 0,2 0,3 0,0 1,2 2,3 1,0 3,1 3,1 2,0 3,0 4,-1 1,0 1,0 2,-1 0,0 1,0 1,0 0,0 0,0 1,0 0,-1 1,-1 3,-1 1,0 2,0 3,0 1,0 3,0 5,0 3,0 5,0 6,0 1,0 3,0 5,0 1,0 4,0 5,0 2,0 5,0 7,1 1,0 4,0 5,0 1,0 4,0 5,0 2,0 4,0 5,0 1,0 3,0 4,0 1,0 3,0 3,0 0,0 0,0 0,0 1,1 1,1 1,1 0,0 1,0 1,0 1,0 1,1 2,2 1,0 2,0 2,0 2,1 3,1 4,0 1,0 2,-1 3,-2l0 0z"/>
 </g>
</svg>
