<?xml version="1.0" encoding="UTF-8"?>
<!DOCTYPE svg PUBLIC "-//W3C//DTD SVG 1.1//EN" "http://www.w3.org/Graphics/SVG/1.1/DTD/svg11.dtd">
<!-- Creator: CorelDRAW X7 -->
<svg xmlns="http://www.w3.org/2000/svg" xml:space="preserve" width="1.95977in" height="1.95941in" version="1.1" style="shape-rendering:geometricPrecision; text-rendering:geometricPrecision; image-rendering:optimizeQuality; fill-rule:evenodd; clip-rule:evenodd"
viewBox="0 0 415 415"
 xmlns:xlink="http://www.w3.org/1999/xlink">
 <defs>
  <style type="text/css">
   <![CDATA[
    .fil0 {fill:#1C608E}
    .fil2 {fill:#287EB6}
    .fil6 {fill:#2B3B44}
    .fil3 {fill:#939EA8}
    .fil5 {fill:#CDA80C}
    .fil1 {fill:#D8D8D8}
    .fil4 {fill:#F0C30F}
   ]]>
  </style>
 </defs>
 <g id="Objects">
  <metadata id="CorelCorpID_0Corel-Layer"/>
  <path class="fil0" d="M220 375l15 -130 -59 -2c0,0 6,124 7,138 2,15 37,-6 37,-6zm-13 -23l0 0c0,2 -2,4 -4,4l-1 0c-2,0 -4,-2 -4,-5l2 -62c0,-2 2,-4 4,-4l1 0c2,0 3,2 3,5l-1 62z"/>
  <path class="fil1" d="M337 160l-99 11 13 57c0,0 90,-29 100,-34 10,-4 -14,-34 -14,-34z"/>
  <path class="fil0" d="M337 163l-99 11 13 57c0,0 90,-29 100,-33 10,-5 -14,-35 -14,-35z"/>
  <path class="fil2" d="M207 0c114,0 206,93 206,207 0,115 -92,208 -206,208 -114,0 -206,-93 -206,-208 0,-114 92,-207 206,-207zm0 47l0 0c-88,0 -159,72 -159,160 0,89 71,160 159,160 88,0 159,-71 159,-160 0,-88 -71,-160 -159,-160z"/>
  <path class="fil1" d="M77 160l99 11 -13 57c0,0 -89,-29 -100,-34 -10,-4 14,-34 14,-34z"/>
  <path class="fil0" d="M77 163l99 11 -13 57c0,0 -89,-29 -100,-33 -10,-5 14,-35 14,-35z"/>
  <path class="fil3" d="M207 150c31,0 57,26 57,57 0,32 -26,57 -57,57 -32,0 -57,-25 -57,-57 0,-31 25,-57 57,-57z"/>
  <path class="fil4" d="M207 183c13,0 24,11 24,24 0,14 -11,24 -24,24 -13,0 -24,-10 -24,-24 0,-13 11,-24 24,-24z"/>
  <path class="fil5" d="M207 185c13,0 23,10 24,23 0,0 0,0 0,-1 0,-13 -11,-24 -24,-24 -13,0 -24,11 -24,24 0,1 0,1 0,1 0,-13 11,-23 24,-23z"/>
  <path class="fil6" d="M260 409c89,-24 155,-105 155,-202 0,-62 -28,-118 -71,-156 -5,-5 -12,-13 -19,-10 -3,0 -8,15 -14,25 -7,10 -13,19 6,32 19,12 39,47 36,51 -4,3 -4,8 -17,8 -14,1 -18,-7 -17,8 1,15 15,34 23,34 7,1 23,5 26,14 0,3 1,11 0,22 -7,44 -33,83 -68,107 -4,1 -4,1 -11,4 -8,4 -16,5 -14,13 1,8 0,30 -17,37 -16,7 -15,13 -10,14 3,1 8,0 12,-1l0 0z"/>
  <path class="fil6" d="M155 409c-89,-24 -155,-105 -155,-202 0,-62 28,-118 71,-156 5,-5 12,-13 19,-10 3,0 8,15 14,25 7,10 13,19 -6,32 -19,12 -39,47 -36,51 4,3 4,8 17,8 14,1 18,-7 17,8 -1,15 -15,34 -23,34 -7,1 -24,5 -26,14 -1,3 -1,11 0,22 7,44 33,83 68,107 4,1 4,1 11,4 8,4 16,5 14,13 -1,8 0,30 16,37 17,7 16,13 11,14 -3,1 -8,0 -12,-1l0 0z"/>
 </g>
</svg>
