<?xml version="1.0" encoding="UTF-8"?>
<!DOCTYPE svg PUBLIC "-//W3C//DTD SVG 1.1//EN" "http://www.w3.org/Graphics/SVG/1.1/DTD/svg11.dtd">
<!-- Creator: CorelDRAW X7 -->
<svg xmlns="http://www.w3.org/2000/svg" xml:space="preserve" width="4.06241in" height="3.80862in" version="1.1" style="shape-rendering:geometricPrecision; text-rendering:geometricPrecision; image-rendering:optimizeQuality; fill-rule:evenodd; clip-rule:evenodd"
viewBox="0 0 8587 8051"
 xmlns:xlink="http://www.w3.org/1999/xlink">
 <defs>
  <style type="text/css">
   <![CDATA[
    .fil0 {fill:#3A9EA1;fill-rule:nonzero}
    .fil2 {fill:#3FACB1;fill-rule:nonzero}
    .fil5 {fill:#57595B;fill-rule:nonzero}
    .fil1 {fill:#6D6E70;fill-rule:nonzero}
    .fil4 {fill:#C6CA36;fill-rule:nonzero}
    .fil6 {fill:#EDEFEF;fill-rule:nonzero}
    .fil3 {fill:#F0F2ED;fill-rule:nonzero}
   ]]>
  </style>
 </defs>
 <g id="object">
  <metadata id="CorelCorpID_0Corel-Layer"/>
  <polygon class="fil0" points="2129,2037 1671,1255 3815,0 7619,1013 7386,1889 3947,973 "/>
  <polygon class="fil1" points="7039,2175 7906,2175 7906,1425 7039,1425 "/>
  <path class="fil0" d="M5405 4664c0,-474 208,-899 536,-1191l2110 0c329,292 536,717 536,1191 0,475 -209,902 -539,1193l-2103 0c-331,-291 -540,-718 -540,-1193z"/>
  <polygon class="fil2" points="8397,6256 3447,6256 3447,8051 8397,8051 "/>
  <polygon class="fil3" points="3701,7229 5574,7229 5574,6467 3701,6467 "/>
  <polygon class="fil4" points="6448,6766 6738,6766 6738,6476 6448,6476 "/>
  <polygon class="fil4" points="5958,6766 6248,6766 6248,6476 5958,6476 "/>
  <polygon class="fil4" points="6448,7238 6738,7238 6738,6948 6448,6948 "/>
  <polygon class="fil4" points="5958,7238 6248,7238 6248,6948 5958,6948 "/>
  <polygon class="fil3" points="7889,7238 8161,7238 8161,6467 7889,6467 "/>
  <polygon class="fil3" points="7422,7238 7694,7238 7694,6467 7422,6467 "/>
  <polygon class="fil3" points="6955,7238 7227,7238 7227,6467 6955,6467 "/>
  <polygon class="fil5" points="8161,5986 5849,5986 5849,6256 8161,6256 "/>
  <path class="fil2" d="M7039 1425c0,239 194,433 434,433 239,0 433,-194 433,-433 0,-240 -194,-434 -433,-434 -240,0 -434,194 -434,434z"/>
  <path class="fil1" d="M7251 1425c0,122 99,221 222,221 122,0 221,-99 221,-221 0,-123 -99,-222 -221,-222 -123,0 -222,99 -222,222z"/>
  <path class="fil6" d="M7364 1425c0,60 49,108 109,108 60,0 108,-48 108,-108 0,-60 -48,-109 -108,-109 -60,0 -109,49 -109,109z"/>
  <path class="fil2" d="M3374 517c0,279 227,506 507,506 279,0 506,-227 506,-506 0,-280 -227,-506 -506,-506 -280,0 -507,226 -507,506z"/>
  <path class="fil1" d="M3622 517c0,143 116,258 259,258 142,0 258,-115 258,-258 0,-143 -116,-259 -258,-259 -143,0 -259,116 -259,259z"/>
  <path class="fil6" d="M3754 517c0,70 57,126 127,126 70,0 126,-56 126,-126 0,-70 -56,-127 -126,-127 -70,0 -127,57 -127,127z"/>
  <polygon class="fil2" points="7397,5686 8003,5065 6619,3645 5989,4246 "/>
  <path class="fil2" d="M5870 3946c0,239 195,433 434,433 240,0 434,-194 434,-433 0,-240 -194,-434 -434,-434 -239,0 -434,194 -434,434z"/>
  <path class="fil1" d="M6083 3946c0,122 99,221 221,221 122,0 222,-99 222,-221 0,-123 -100,-222 -222,-222 -122,0 -221,99 -221,222z"/>
  <path class="fil6" d="M6196 3946c0,60 48,108 108,108 60,0 109,-48 109,-108 0,-60 -49,-109 -109,-109 -60,0 -108,49 -108,109z"/>
  <path class="fil2" d="M7261 5370c0,240 194,434 433,434 240,0 434,-194 434,-434 0,-239 -194,-434 -434,-434 -239,0 -433,195 -433,434z"/>
  <path class="fil1" d="M7473 5370c0,122 99,222 221,222 123,0 222,-100 222,-222 0,-122 -99,-221 -222,-221 -122,0 -221,99 -221,221z"/>
  <path class="fil6" d="M7586 5370c0,60 48,108 108,108 60,0 109,-48 109,-108 0,-60 -49,-108 -109,-108 -60,0 -108,48 -108,108z"/>
  <polygon class="fil2" points="8025,5833 5958,5833 5958,5986 8025,5986 "/>
  <polygon class="fil1" points="8025,2545 5941,2545 5941,3473 8025,3473 "/>
  <polygon class="fil5" points="5822,2817 8149,2817 8149,2684 5822,2684 "/>
  <polygon class="fil5" points="5820,3045 8147,3045 8147,2912 5820,2912 "/>
  <polygon class="fil5" points="5817,3274 8144,3274 8144,3141 5817,3141 "/>
  <polygon class="fil0" points="5744,2545 8222,2545 8222,2055 5744,2055 "/>
  <polygon class="fil1" points="1336,2665 1200,2401 403,2864 448,2954 "/>
  <polygon class="fil1" points="752,1527 887,1791 46,2169 0,2080 "/>
  <polygon class="fil1" points="959,1931 1094,2195 229,2527 183,2437 "/>
  <polygon class="fil2" points="683,1393 1404,2799 1759,2617 1038,1211 "/>
  <polygon class="fil5" points="655,1501 1301,2759 1440,2688 794,1429 "/>
  <polygon class="fil1" points="985,1175 1758,2681 1854,2632 1080,1126 "/>
  <polygon class="fil2" points="1343,1084 2041,2443 1816,2559 1118,1199 "/>
  <polygon class="fil2" points="1714,1084 2238,2073 1918,2255 1393,1266 "/>
 </g>
</svg>
