<?xml version="1.0" encoding="UTF-8"?>
<!DOCTYPE svg PUBLIC "-//W3C//DTD SVG 1.1//EN" "http://www.w3.org/Graphics/SVG/1.1/DTD/svg11.dtd">
<!-- Creator: CorelDRAW X7 -->
<svg xmlns="http://www.w3.org/2000/svg" xml:space="preserve" width="2.3802in" height="2.3802in" version="1.1" style="shape-rendering:geometricPrecision; text-rendering:geometricPrecision; image-rendering:optimizeQuality; fill-rule:evenodd; clip-rule:evenodd"
viewBox="0 0 1507 1507"
 xmlns:xlink="http://www.w3.org/1999/xlink">
 <defs>
  <style type="text/css">
   <![CDATA[
    .fil0 {fill:#333B47}
   ]]>
  </style>
 </defs>
 <g id="Layer_x0020_1">
  <metadata id="CorelCorpID_0Corel-Layer"/>
  <path class="fil0" d="M555 1223l-70 69 -69 70c-7,6 -17,9 -26,6l-183 -49c-10,-2 -17,-10 -19,-19l-49 -183c-3,-9 0,-19 6,-26l70 -69 69 -70c7,-6 17,-9 26,-7l183 50c10,2 17,9 19,19l49 183c3,9 0,19 -6,26zm626 -532c47,12 96,-1 130,-35l156 -156c34,-34 48,-83 35,-130l-8 -30c-5,-20 -30,-27 -45,-12l-222 222c-7,7 -16,10 -26,7l-183 -49c-9,-3 -17,-10 -19,-19l-49 -183c-3,-10 0,-20 7,-26l222 -222c15,-15 8,-40 -12,-45l-30 -8c-47,-13 -96,0 -130,34l-156 157c-34,34 -48,83 -35,129l34 128 -392 393 -128 -34c-47,-13 -96,0 -130,34l-4 5 -152 151 -5 5c-34,34 -47,83 -34,130l57 213c12,46 48,83 95,95l213 57c47,13 96,-1 130,-35l4 -4 152 -152 5 -4c34,-34 47,-83 34,-130l-34 -128 392 -392 128 34z"/>
  <polygon class="fil0" points="263,375 582,695 695,582 375,263 372,152 156,44 44,156 152,372 "/>
  <path class="fil0" d="M1030 707l-323 323 410 409c32,32 83,32 114,0l208 -208c32,-31 32,-82 0,-114l-409 -410z"/>
 </g>
</svg>
