<?xml version="1.0" encoding="UTF-8"?>
<!DOCTYPE svg PUBLIC "-//W3C//DTD SVG 1.1//EN" "http://www.w3.org/Graphics/SVG/1.1/DTD/svg11.dtd">
<!-- Creator: CorelDRAW X7 -->
<svg xmlns="http://www.w3.org/2000/svg" xml:space="preserve" width="0.779311in" height="0.779311in" version="1.1" style="shape-rendering:geometricPrecision; text-rendering:geometricPrecision; image-rendering:optimizeQuality; fill-rule:evenodd; clip-rule:evenodd"
viewBox="0 0 3421 3421"
 xmlns:xlink="http://www.w3.org/1999/xlink">
 <defs>
  <style type="text/css">
   <![CDATA[
    .fil0 {fill:#292929;fill-rule:nonzero}
   ]]>
  </style>
 </defs>
 <g id="OBJECTS">
  <metadata id="CorelCorpID_0Corel-Layer"/>
  <path class="fil0" d="M1337 1711c0,-206 168,-373 374,-373 206,0 373,167 373,373 0,206 -167,373 -373,373 -206,0 -374,-167 -374,-373zm-1337 0l0 0c0,-945 766,-1711 1711,-1711 944,0 1710,766 1710,1711 0,945 -766,1710 -1710,1710 -945,0 -1711,-765 -1711,-1710zm627 0l0 0c0,598 485,1084 1084,1084 598,0 1084,-486 1084,-1084 0,-599 -486,-1085 -1084,-1085 -599,0 -1084,486 -1084,1085zm51 0l0 0c0,-571 462,-1033 1033,-1033 570,0 1033,462 1033,1033 0,570 -463,1033 -1033,1033 -571,0 -1033,-463 -1033,-1033zm428 -414l0 0c0,-51 -41,-92 -92,-92 -51,0 -92,41 -92,92 0,51 41,92 92,92 51,0 92,-41 92,-92zm231 -246l0 0c0,-51 -41,-92 -92,-92 -50,0 -92,41 -92,92 0,51 42,92 92,92 51,0 92,-41 92,-92zm301 -124l0 0c0,-51 -41,-92 -92,-92 -51,0 -92,41 -92,92 0,51 41,92 92,92 51,0 92,-41 92,-92zm364 0l0 0c0,-51 -42,-92 -92,-92 -51,0 -92,41 -92,92 0,51 41,92 92,92 50,0 92,-41 92,-92zm263 784l0 0c0,-306 -248,-554 -554,-554 -306,0 -554,248 -554,554 0,306 248,554 554,554 306,0 554,-248 554,-554zm54 -619l0 0c0,-50 -41,-92 -92,-92 -51,0 -92,42 -92,92 0,51 41,92 92,92 51,0 92,-41 92,-92zm198 245l0 0c0,-50 -42,-92 -92,-92 -51,0 -92,42 -92,92 0,51 41,92 92,92 50,0 92,-41 92,-92zm1 410l0 0c51,0 92,-41 92,-92 0,-51 -41,-92 -92,-92 -51,0 -92,41 -92,92 0,51 41,92 92,92zm-135 220l0 0c0,50 41,92 92,92 51,0 92,-42 92,-92 0,-51 -41,-92 -92,-92 -51,0 -92,41 -92,92zm-184 298l0 0c0,50 41,92 92,92 51,0 92,-42 92,-92 0,-51 -41,-93 -92,-93 -51,0 -92,42 -92,93zm-261 184l0 0c0,50 41,92 92,92 51,0 92,-42 92,-92 0,-51 -41,-92 -92,-92 -51,0 -92,41 -92,92zm-340 69l0 0c0,51 41,92 92,92 51,0 92,-41 92,-92 0,-51 -41,-92 -92,-92 -51,0 -92,41 -92,92zm-328 -92l0 0c0,51 41,92 92,92 51,0 92,-41 92,-92 0,-51 -41,-92 -92,-92 -51,0 -92,41 -92,92zm-256 -184l0 0c0,51 41,92 92,92 51,0 92,-41 92,-92 0,-51 -41,-92 -92,-92 -51,0 -92,41 -92,92zm-161 -275l0 0c0,50 41,92 92,92 51,0 92,-42 92,-92 0,-51 -41,-92 -92,-92 -51,0 -92,41 -92,92zm-42 -348l0 0c0,50 42,92 93,92 50,0 92,-42 92,-92 0,-51 -42,-92 -92,-92 -51,0 -93,41 -93,92z"/>
 </g>
</svg>
