<?xml version="1.0" encoding="UTF-8"?>
<!DOCTYPE svg PUBLIC "-//W3C//DTD SVG 1.1//EN" "http://www.w3.org/Graphics/SVG/1.1/DTD/svg11.dtd">
<!-- Creator: CorelDRAW X7 -->
<svg xmlns="http://www.w3.org/2000/svg" xml:space="preserve" width="0.906087in" height="2.85067in" version="1.1" style="shape-rendering:geometricPrecision; text-rendering:geometricPrecision; image-rendering:optimizeQuality; fill-rule:evenodd; clip-rule:evenodd"
viewBox="0 0 117 367"
 xmlns:xlink="http://www.w3.org/1999/xlink">
 <defs>
  <style type="text/css">
   <![CDATA[
    .fil0 {fill:#BDBFC1}
    .fil2 {fill:#848688}
    .fil1 {fill:#727376}
    .fil3 {fill:#4B4B4D}
   ]]>
  </style>
 </defs>
 <g id="Layer_x0020_1">
  <metadata id="CorelCorpID_0Corel-Layer"/>
  <path class="fil0" d="M90 250l-63 0c-3,0 -5,1 -6,3 -1,1 -2,3 -2,5l0 0c0,2 1,4 2,6 1,1 3,2 6,2l63 0c2,0 4,-1 6,-2 1,-2 2,-4 2,-6l0 0c0,-2 -1,-4 -2,-5 -2,-2 -4,-3 -6,-3zm0 24l-63 0c-3,0 -5,1 -6,2 -1,2 -2,4 -2,6l0 0c0,2 1,4 2,6 1,1 3,2 6,2l63 0c2,0 4,-1 6,-2 1,-2 2,-4 2,-6l0 0c0,-2 -1,-4 -2,-6 -2,-1 -4,-2 -6,-2zm8 -72l-79 0 0 32c0,2 1,4 2,6 1,1 3,2 6,2l63 0c2,0 4,-1 6,-2 1,-2 2,-4 2,-6l0 0 0 -32zm-8 96l-63 0c-3,0 -5,1 -6,2 -1,2 -2,4 -2,6l0 0c0,2 1,4 2,6 1,1 3,2 6,2l63 0c2,0 4,-1 6,-2 1,-2 2,-4 2,-6l0 0c0,-2 -1,-4 -2,-6 -2,-1 -4,-2 -6,-2zm0 24l-63 0c-3,0 -5,1 -6,2 -1,2 -2,4 -2,6l0 0c0,2 1,4 2,6 1,1 3,2 6,2l63 0c2,0 4,-1 6,-2 1,-2 2,-4 2,-6l0 0c0,-2 -1,-4 -2,-6 -2,-1 -4,-2 -6,-2z"/>
  <path class="fil1" d="M46 354c4,3 8,5 12,5 5,0 9,-2 12,-5 2,-2 4,-5 4,-8l-32 0c1,3 2,6 4,8z"/>
  <path class="fil2" d="M44 194l28 0 0 -40 -28 0 0 40zm36 0l29 0 0 -40 -29 0 0 40zm18 -48l0 -5 -79 0 0 5 79 0zm-90 8l0 40 28 0 0 -40 -28 0zm90 -129c0,-5 -2,-9 -5,-12 -3,-3 -8,-5 -12,-5l-29 0 0 4 29 0c3,0 7,1 9,4 2,2 4,6 4,9l0 16c0,0 0,0 0,0 0,0 0,0 0,0l0 0c0,1 -1,3 -2,3 0,1 -2,1 -3,1 0,0 0,0 0,0 0,0 0,0 0,0 -1,0 -1,0 -1,0l-59 0c-3,0 -5,1 -7,3 -2,2 -3,5 -3,7l0 51 79 0 0 -81zm-34 7l-12 0 0 5 12 0 0 -5zm45 82l-101 0 0 19 101 0 0 -19z"/>
  <path class="fil3" d="M8 133l0 -19 101 0 0 19 -101 0zm101 21l0 40 -29 0 0 -40 29 0zm-11 80c0,2 -1,4 -2,6 -2,1 -4,2 -6,2l-63 0c-3,0 -5,-1 -6,-2 -1,-2 -2,-4 -2,-6l0 0 0 -32 79 0 0 32zm0 24c0,2 -1,4 -2,6 -2,1 -4,2 -6,2l-63 0c-3,0 -5,-1 -6,-2 -1,-2 -2,-4 -2,-6l0 0c0,-2 1,-4 2,-5 1,-2 3,-3 6,-3l63 0c2,0 4,1 6,3 1,1 2,3 2,5l0 0zm0 24c0,2 -1,4 -2,6 -2,1 -4,2 -6,2l-63 0c-3,0 -5,-1 -6,-2 -1,-2 -2,-4 -2,-6l0 0c0,-2 1,-4 2,-6 1,-1 3,-2 6,-2l63 0c2,0 4,1 6,2 1,2 2,4 2,6l0 0zm0 24c0,2 -1,4 -2,6 -2,1 -4,2 -6,2l-63 0c-3,0 -5,-1 -6,-2 -1,-2 -2,-4 -2,-6l0 0c0,-2 1,-4 2,-6 1,-1 3,-2 6,-2l63 0c2,0 4,1 6,2 1,2 2,4 2,6l0 0zm0 24c0,2 -1,4 -2,6 -2,1 -4,2 -6,2l-63 0c-3,0 -5,-1 -6,-2 -1,-2 -2,-4 -2,-6l0 0c0,-2 1,-4 2,-6 1,-1 3,-2 6,-2l63 0c2,0 4,1 6,2 1,2 2,4 2,6l0 0zm-28 24c-3,3 -7,5 -12,5 -4,0 -8,-2 -12,-5 -2,-2 -3,-5 -4,-8l32 0c0,3 -2,6 -4,8zm2 -200l0 40 -28 0 0 -40 28 0zm-53 -8l0 -5 79 0 0 5 -79 0zm-11 48l0 -40 28 0 0 40 -28 0zm11 -139c0,-2 1,-5 3,-7 2,-2 4,-3 7,-3l59 0c0,0 0,0 1,0 0,0 0,0 0,0 0,0 0,0 0,0 1,0 3,0 3,-1 1,0 2,-2 2,-3l0 0c0,0 0,0 0,0 0,0 0,0 0,0l0 -16c0,-3 -2,-7 -4,-9 -2,-3 -6,-4 -9,-4l-29 0 0 -4 29 0c4,0 9,2 12,5 3,3 5,7 5,12l0 81 -79 0 0 -51zm33 -23l12 0 0 5 -12 0 0 -5zm61 109c1,0 2,-1 2,-2 1,0 2,-1 2,-2l0 -27c0,-1 -1,-2 -2,-3 0,-1 -1,-1 -2,-1l-7 0 0 -51 0 0 0 -30c0,-7 -3,-13 -8,-18 -4,-4 -10,-7 -17,-7l-33 0c-1,0 -2,0 -3,1 0,1 -1,2 -1,3l0 12c0,1 1,2 1,3 1,1 2,1 3,1l33 0c1,0 2,1 3,2 1,0 2,2 2,3l0 12 -14 0 0 -9c0,-1 0,-2 -1,-3 0,-1 -2,-1 -3,-1l-20 0c-1,0 -2,0 -3,1 0,1 -1,2 -1,3l0 9 -15 0c-5,0 -10,2 -13,5 -3,4 -5,8 -5,13l0 51 -7 0c-1,0 -2,0 -3,1 -1,1 -1,2 -1,3l0 27c0,1 0,2 1,2 1,1 2,2 3,2l7 0 0 5 -7 0c-1,0 -2,1 -3,2 -1,0 -1,1 -1,2l0 48c0,1 0,2 1,3 1,1 2,1 3,1l7 0 0 32c0,5 1,9 4,11 1,1 1,1 1,1 0,0 0,1 -1,1 -3,3 -4,7 -4,11l0 0c0,5 1,9 4,11 1,1 1,1 1,1 0,0 0,1 -1,1 -3,3 -4,7 -4,11l0 0c0,4 1,8 4,11 1,1 1,1 1,1 0,0 0,1 -1,1 -3,3 -4,7 -4,11l0 0c0,4 1,8 4,11 1,1 1,1 1,1 0,0 0,0 -1,1 -3,3 -4,7 -4,11l0 0c0,4 1,8 4,11 3,3 7,5 12,5l7 0c1,5 3,10 7,13 4,5 10,8 17,8 7,0 13,-3 18,-8 3,-3 6,-8 7,-13l7 0c4,0 8,-2 11,-5 3,-3 5,-7 5,-11l0 0c0,-4 -2,-8 -5,-11 0,-1 0,-1 -1,-1 1,0 1,0 1,-1 3,-3 5,-7 5,-11l0 0c0,-4 -2,-8 -5,-11 0,0 0,-1 -1,-1 1,0 1,0 1,-1 3,-3 5,-7 5,-11l0 0c0,-4 -2,-8 -5,-11 0,0 0,-1 -1,-1 1,0 1,0 1,-1 3,-2 5,-6 5,-11l0 0c0,-4 -2,-8 -5,-11 0,0 0,-1 -1,-1 1,0 1,0 1,-1 3,-2 5,-6 5,-11l0 0 0 -32 7 0c1,0 2,0 2,-1 1,-1 2,-2 2,-3l0 -48c0,-1 -1,-2 -2,-2 0,-1 -1,-2 -2,-2l-7 0 0 -5 7 0z"/>
 </g>
</svg>
