<?xml version="1.0" encoding="UTF-8"?>
<!DOCTYPE svg PUBLIC "-//W3C//DTD SVG 1.1//EN" "http://www.w3.org/Graphics/SVG/1.1/DTD/svg11.dtd">
<!-- Creator: CorelDRAW X7 -->
<svg xmlns="http://www.w3.org/2000/svg" xml:space="preserve" width="2.2357in" height="3.15604in" version="1.1" style="shape-rendering:geometricPrecision; text-rendering:geometricPrecision; image-rendering:optimizeQuality; fill-rule:evenodd; clip-rule:evenodd"
viewBox="0 0 6235 8801"
 xmlns:xlink="http://www.w3.org/1999/xlink">
 <defs>
  <style type="text/css">
   <![CDATA[
    .fil0 {fill:#2B3B3F}
   ]]>
  </style>
 </defs>
 <g id="Objects">
  <metadata id="CorelCorpID_0Corel-Layer"/>
  <path class="fil0" d="M4405 645c-121,187 -265,353 -426,502l-457 -469c161,-149 305,-315 425,-502l458 469zm-951 903l0 0c-190,121 -390,230 -592,330l-458 -469c202,-101 402,-209 593,-331l457 470zm-1223 621l0 0c-223,99 -438,193 -634,289l-458 -470c196,-96 411,-190 634,-288l458 469zm-1214 632l0 0c-201,157 -339,332 -383,547l-457 -469c43,-215 181,-391 382,-547l458 469z"/>
  <path class="fil0" d="M5320 1583c-121,188 -265,354 -426,503l-457 -470c160,-149 305,-315 425,-502l458 469zm-951 903l0 0c-190,122 -390,230 -593,330l-457 -469c202,-100 402,-209 593,-331l457 470zm-1224 622l0 0c-222,98 -437,192 -634,288l-457 -469c196,-96 411,-190 634,-289l457 470zm-1214 632l0 0c-201,156 -339,332 -382,546l-457 -469c43,-215 181,-390 382,-547l457 470z"/>
  <path class="fil0" d="M6235 2522c-121,187 -265,353 -426,502l-457 -469c160,-149 305,-315 425,-502l458 469zm-951 902l0 0c-190,122 -390,231 -593,331l-457 -470c202,-100 402,-208 593,-330l457 469zm-1224 622l0 0c-222,99 -437,193 -634,289l-457 -470c196,-96 411,-190 634,-288l457 469zm-1214 632l0 0c-201,157 -339,332 -382,547l-457 -470c43,-214 181,-390 382,-546l457 469z"/>
  <path class="fil0" d="M1017 2802l457 469c159,-124 358,-235 580,-344l-457 -469c-222,109 -421,220 -580,344zm915 938l0 0 457 469c159,-123 358,-235 580,-344l-457 -469c-223,109 -421,220 -580,344z"/>
  <path class="fil0" d="M2231 2169l457 469c207,-91 420,-186 631,-291l-457 -469c-211,105 -425,200 -631,291zm914 939l0 0 458 469c207,-91 420,-187 631,-291l-457 -469c-212,104 -425,199 -632,291z"/>
  <path class="fil0" d="M3455 1548l457 469c187,-120 364,-252 525,-401l-457 -469c-161,149 -339,281 -525,401zm914 938l0 0 458 469c187,-119 364,-251 525,-400l-458 -469c-160,149 -338,281 -525,400z"/>
  <path class="fil0" d="M6063 1408l-457 -470c-66,241 -164,454 -286,645l457 470c123,-192 221,-405 286,-645zm-915 -939l0 0 -457 -469c-65,240 -163,454 -286,645l457 469c123,-191 221,-405 286,-645z"/>
  <polygon class="fil0" points="177,2879 0,3051 5606,8801 5782,8629 "/>
 </g>
</svg>
