<?xml version="1.0" encoding="UTF-8"?>
<!DOCTYPE svg PUBLIC "-//W3C//DTD SVG 1.1//EN" "http://www.w3.org/Graphics/SVG/1.1/DTD/svg11.dtd">
<!-- Creator: CorelDRAW X7 -->
<svg xmlns="http://www.w3.org/2000/svg" xml:space="preserve" width="11.3511in" height="3.01572in" version="1.1" style="shape-rendering:geometricPrecision; text-rendering:geometricPrecision; image-rendering:optimizeQuality; fill-rule:evenodd; clip-rule:evenodd"
viewBox="0 0 22591 6002"
 xmlns:xlink="http://www.w3.org/1999/xlink">
 <defs>
  <style type="text/css">
   <![CDATA[
    .fil1 {fill:#151716}
    .fil0 {fill:#1F2120}
    .fil3 {fill:#282C2B}
    .fil2 {fill:#CC2620}
    .fil4 {fill:#E62B25}
   ]]>
  </style>
 </defs>
 <g id="Layer_x0020_1">
  <metadata id="CorelCorpID_0Corel-Layer"/>
  <path class="fil0" d="M1052 5489c0,0 -1354,-1185 -990,-3264 0,0 177,-1355 1744,-1300l1987 0 153 1648 -1394 0c0,0 -1085,-76 -1030,961l-470 1955z"/>
  <path class="fil1" d="M5832 870c-117,0 -213,95 -213,213l0 1375c0,117 96,212 213,212l1985 0 46 -1800 -2031 0z"/>
  <path class="fil0" d="M11886 870l-4023 0 -46 1800 4069 0c118,0 213,-95 213,-212l0 -1375c0,-118 -95,-213 -213,-213z"/>
  <path class="fil2" d="M21740 4427c-181,0 -328,-147 -328,-328 0,-181 147,-328 328,-328 181,0 328,147 328,328 0,181 -147,328 -328,328zm0 -874c-301,0 -545,244 -545,546 0,301 244,545 545,545 301,0 546,-244 546,-545 0,-302 -245,-546 -546,-546z"/>
  <path class="fil3" d="M3829 5429c0,220 -178,399 -398,399l0 0c-221,0 -399,-179 -399,-399l0 -2806c0,-220 178,-398 399,-398l0 0c220,0 398,178 398,398l0 2806z"/>
  <path class="fil3" d="M1669 5603c0,221 -178,399 -399,399l0 0c-220,0 -398,-178 -398,-399l0 -3204c0,-220 178,-399 398,-399l0 0c221,0 399,179 399,399l0 3204z"/>
  <path class="fil3" d="M7466 2786c0,85 -69,153 -153,153l-987 0c-84,0 -153,-68 -153,-153l0 -2131c0,-84 69,-153 153,-153l987 0c84,0 153,69 153,153l0 2131z"/>
  <path class="fil2" d="M7697 4631l-2977 0c-422,0 -386,-378 -386,-378l0 -1922 -233 -2331 -139 0c-222,0 -402,180 -402,402l287 1855 0 1085 0 474 0 1164 4338 0 228 0c-258,-341 -716,-349 -716,-349z"/>
  <path class="fil4" d="M21740 4644c-301,0 -545,-244 -545,-545 0,-302 244,-546 545,-546 301,0 546,244 546,546 0,301 -245,545 -546,545zm58 -1426l-8373 0 -3308 0c-568,0 -1028,-461 -1028,-1029l0 -250c0,-130 -106,-236 -236,-236l-959 0c-92,0 -170,53 -209,130 -11,22 -19,45 -23,71 -2,11 -4,23 -4,35l0 769 0 149c-44,96 -140,164 -254,164l-1143 0c-119,0 -220,-73 -261,-177l0 -2442c0,-36 -5,-72 -14,-105 -46,-171 -202,-297 -388,-297l-1497 0 233 2331 0 1922c0,0 -36,378 386,378l2977 0c0,0 458,8 716,349l676 0 12709 0c438,0 793,-355 793,-793l0 -176c0,-438 -355,-793 -793,-793z"/>
  <path class="fil2" d="M20564 4099c0,261 -212,473 -474,473l-9567 0c-262,0 -473,-212 -473,-473l0 0c0,-262 211,-473 473,-473l9567 0c262,0 474,211 474,473l0 0z"/>
  <polygon class="fil0" points="7466,804 6173,804 6173,656 7466,656 "/>
  <polygon class="fil0" points="7466,1134 6173,1134 6173,986 7466,986 "/>
  <polygon class="fil0" points="7466,1134 6173,1134 6173,986 7466,986 "/>
  <polygon class="fil0" points="7466,1464 6173,1464 6173,1317 7466,1317 "/>
  <polygon class="fil0" points="7466,1464 6173,1464 6173,1317 7466,1317 "/>
  <polygon class="fil0" points="7466,1795 6173,1795 6173,1647 7466,1647 "/>
  <polygon class="fil0" points="7466,1795 6173,1795 6173,1647 7466,1647 "/>
  <polygon class="fil0" points="7466,2125 6173,2125 6173,1977 7466,1977 "/>
  <polygon class="fil0" points="7466,2125 6173,2125 6173,1977 7466,1977 "/>
  <polygon class="fil0" points="7466,2455 6173,2455 6173,2307 7466,2307 "/>
  <polygon class="fil0" points="7466,2455 6173,2455 6173,2307 7466,2307 "/>
  <polygon class="fil0" points="7466,2785 6173,2785 6173,2638 7466,2638 "/>
 </g>
</svg>
