<?xml version="1.0" encoding="UTF-8"?>
<!DOCTYPE svg PUBLIC "-//W3C//DTD SVG 1.1//EN" "http://www.w3.org/Graphics/SVG/1.1/DTD/svg11.dtd">
<!-- Creator: CorelDRAW X7 -->
<svg xmlns="http://www.w3.org/2000/svg" xml:space="preserve" width="1.61636in" height="1.61241in" version="1.1" style="shape-rendering:geometricPrecision; text-rendering:geometricPrecision; image-rendering:optimizeQuality; fill-rule:evenodd; clip-rule:evenodd"
viewBox="0 0 722 720"
 xmlns:xlink="http://www.w3.org/1999/xlink">
 <defs>
  <style type="text/css">
   <![CDATA[
    .fil0 {fill:#282828;fill-rule:nonzero}
   ]]>
  </style>
 </defs>
 <g id="OBJECTS">
  <metadata id="CorelCorpID_0Corel-Layer"/>
  <path class="fil0" d="M193 186c2,-2 3,-4 5,-6 1,-2 2,-4 2,-7 1,-2 1,-4 1,-6 -1,-2 -2,-4 -3,-5 -2,-2 -5,-3 -7,-4 -3,0 -9,4 -9,4 0,0 1,-6 1,-8 0,-2 -1,-4 -2,-5 -2,-2 -3,-3 -5,-3 -2,0 -4,0 -5,1 -2,0 -4,1 -6,3 -3,2 -5,4 -7,6 -8,10 -12,15 -20,26 15,10 23,16 38,26 7,-10 10,-14 17,-22zm-39 -12l0 0c3,-4 5,-6 8,-10 1,-1 2,-2 3,-3 1,-1 2,-1 2,-2 1,0 2,0 3,0 1,0 2,0 3,1 1,1 2,3 1,4 0,2 -1,4 -3,6 -4,4 -5,6 -9,11 -3,-3 -5,-4 -8,-7zm23 0l0 0c2,-3 4,-4 6,-5 2,0 3,0 5,2 1,1 2,1 2,2 0,1 0,2 0,3 -1,1 -1,2 -2,3 0,1 -1,2 -2,3 -3,4 -5,6 -9,11 -4,-3 -6,-5 -10,-8 4,-5 6,-7 10,-11z"/>
  <path class="fil0" d="M199 156c2,2 4,3 6,4 2,1 5,1 7,1 2,0 5,0 7,-1 3,-1 5,-3 8,-4 3,-3 6,-6 7,-9 2,-3 2,-7 2,-11 -4,2 -5,3 -9,5 1,1 0,3 0,4 -1,2 -2,4 -4,5 -3,2 -5,3 -7,3 -2,0 -4,-1 -6,-3 9,-8 14,-12 24,-18 -1,-2 -3,-4 -5,-6 -2,-1 -4,-3 -6,-3 -3,-1 -5,-1 -8,0 -3,1 -6,2 -9,5 -3,2 -5,4 -7,7 -2,2 -3,5 -3,7 -1,3 -1,5 0,8 1,2 2,4 3,6zm7 -19l0 0c1,-1 2,-2 3,-4 3,-1 5,-2 7,-2 2,0 3,1 5,3 -6,4 -9,6 -15,11 0,0 -1,-1 -1,-2 0,-1 0,-2 0,-3 0,-1 0,-2 1,-3z"/>
  <path class="fil0" d="M237 124c1,0 3,0 4,0 1,0 3,0 4,0 2,-1 4,-1 5,-2 2,0 4,-1 5,-1 2,-1 3,-1 4,-1 2,0 2,0 3,0 1,0 1,1 2,1 0,1 0,2 0,2 0,1 -1,2 -1,2 -1,1 -1,1 -2,2 -1,0 -1,1 -2,1 -1,1 -2,1 -3,1 -1,1 -2,1 -3,1 0,0 -1,-1 -2,-1 -1,0 -1,-1 -2,-2 -4,2 -5,3 -9,5 1,2 3,3 4,4 2,1 4,1 6,1 2,0 4,0 6,-1 2,-1 4,-1 6,-2 2,-1 4,-2 5,-4 2,-1 4,-2 5,-4 1,-1 2,-3 2,-5 0,-1 0,-3 -1,-5 0,-2 -1,-3 -2,-3 -1,-1 -2,-2 -4,-2 -1,0 -3,0 -4,0 -2,1 -4,1 -5,1 -2,1 -3,1 -5,2 -2,0 -3,1 -4,1 -1,0 -2,0 -3,0 -1,0 -2,0 -2,-1 -1,-1 -1,-1 0,-2 0,0 0,-1 1,-1 0,-1 1,-1 1,-2 1,0 2,0 2,-1 2,-1 4,-1 5,-1 2,0 3,0 4,2 4,-2 6,-3 10,-5 -1,-1 -2,-3 -3,-4 -2,0 -4,-1 -6,-1 -2,0 -4,0 -6,1 -2,1 -4,2 -6,3 -2,1 -5,2 -6,3 -2,2 -4,3 -5,5 -1,1 -2,3 -2,5 0,2 0,3 1,5 1,1 2,2 3,3z"/>
  <path class="fil0" d="M270 100c2,-2 4,-2 6,-3 3,7 4,11 7,18 1,2 1,3 2,4 1,1 2,1 4,1 1,0 2,0 4,0 1,0 3,-1 4,-1 1,0 2,-1 3,-1 1,0 2,-1 3,-1 -1,-3 -1,-4 -2,-7 -1,1 -2,1 -3,1 -2,1 -3,1 -4,1 0,-1 -1,-2 -2,-3 -1,-6 -2,-9 -4,-16 3,-1 5,-1 8,-2 -1,-2 -1,-4 -2,-6 -3,1 -5,1 -8,3 -1,-4 -2,-6 -3,-10 -5,2 -7,2 -12,4 1,4 2,6 3,9 -2,1 -4,2 -6,3 1,2 1,3 2,6z"/>
  <path class="fil0" d="M334 72c0,-3 0,-4 0,-7 -5,0 -8,1 -13,2 1,2 1,4 1,7 5,-1 7,-1 12,-2z"/>
  <path class="fil0" d="M328 112c4,-1 6,-1 10,-2 -1,-13 -2,-19 -3,-33 -5,1 -7,1 -12,2 2,13 3,20 5,33z"/>
  <path class="fil0" d="M357 109c0,-7 0,-10 0,-17 -1,-4 0,-6 1,-8 2,-1 4,-2 7,-2 3,0 5,1 6,2 1,2 2,4 1,6 0,8 0,12 0,19 4,0 6,0 10,1 1,-8 1,-12 2,-20 0,-3 0,-4 0,-6 -1,-2 -1,-3 -3,-5 -1,-1 -2,-2 -4,-3 -2,0 -5,-1 -8,-1 -2,0 -5,0 -7,1 -3,1 -5,3 -6,5 0,0 0,0 0,0 0,-2 0,-3 0,-5 -5,0 -7,0 -12,1 1,13 2,19 3,33 4,-1 6,-1 10,-1z"/>
  <path class="fil0" d="M414 107c0,2 0,3 0,4 1,1 2,2 2,3 1,1 3,2 4,2 1,1 3,1 4,2 1,0 2,0 3,1 1,0 2,0 3,0 1,-3 1,-4 2,-7 -1,0 -2,0 -3,0 -2,-1 -3,-1 -3,-2 -1,-1 -1,-2 0,-3 1,-7 2,-10 4,-16 3,1 5,1 8,2 1,-2 1,-3 2,-5 -3,-1 -5,-2 -8,-3 1,-4 1,-6 2,-9 -5,-2 -7,-2 -12,-3 -1,3 -1,5 -2,9 -3,0 -4,-1 -7,-1 -1,2 -1,3 -1,6 3,0 4,1 7,1 -2,8 -3,12 -5,19z"/>
  <path class="fil0" d="M438 112c0,2 1,4 2,6 1,2 3,4 5,6 2,2 4,3 7,4 3,1 5,2 8,2 3,1 5,0 7,0 3,-1 5,-2 6,-3 2,-1 4,-3 5,-6 1,-2 2,-4 2,-7 0,-2 0,-4 -1,-7 -1,-2 -3,-4 -5,-6 -2,-2 -5,-4 -8,-5 -3,-1 -6,-2 -9,-2 -3,-1 -6,0 -8,1 -3,0 -5,2 -6,3 -2,2 -3,4 -4,7 -1,2 -1,5 -1,7zm11 0l0 0c0,-1 0,-2 1,-4 0,-1 1,-2 2,-3 0,-1 1,-2 2,-3 1,0 3,-1 4,-1 2,0 3,1 5,1 2,1 3,2 4,3 1,1 2,3 2,4 1,1 1,2 0,4 0,1 0,2 -1,3 -1,1 -1,3 -2,4 -1,1 -2,1 -3,2 -1,1 -2,1 -4,1 -1,0 -3,0 -4,-1 -2,-1 -3,-2 -4,-3 -1,-1 -2,-2 -2,-3 0,-1 0,-3 0,-4z"/>
  <path class="fil0" d="M512 136c0,0 0,0 0,0 -3,9 -5,14 -8,22 4,3 5,5 9,8 12,-7 19,-10 32,-15 -4,-4 -5,-6 -9,-9 -9,4 -13,7 -21,11 0,0 0,0 0,0 3,-8 5,-13 8,-22 -4,-3 -5,-4 -9,-7 -8,6 -12,8 -19,14 0,0 0,0 0,0 2,-9 3,-13 5,-23 -4,-3 -6,-4 -11,-6 -1,14 -2,21 -5,35 4,2 5,3 9,6 7,-6 11,-8 19,-14z"/>
  <path class="fil0" d="M533 186c5,-5 8,-7 13,-11 2,-3 5,-4 7,-4 2,1 4,2 6,5 2,2 3,4 3,6 -1,2 -2,4 -4,5 -6,5 -9,7 -15,11 3,4 4,6 7,10 6,-5 10,-7 16,-12 2,-1 4,-2 5,-3 1,-2 1,-3 2,-5 0,-2 0,-4 -1,-6 -1,-2 -3,-5 -5,-7 -1,-3 -3,-5 -6,-6 -2,-1 -5,-2 -7,-2 0,0 0,0 0,0 1,-2 2,-2 3,-3 -3,-4 -5,-6 -8,-9 -10,9 -14,13 -24,23 3,3 5,5 8,8z"/>
  <path class="fil0" d="M663 461c0,-1 -1,-1 -1,-1 -12,-15 -6,-31 12,-36 18,-5 21,-19 6,-31 -14,-12 -12,-29 4,-37 17,-9 17,-23 0,-32 -16,-8 -18,-25 -4,-37 15,-12 12,-26 -6,-31 -18,-5 -24,-21 -12,-36 12,-14 6,-27 -13,-28 -18,-1 -27,-16 -18,-33 8,-17 0,-28 -19,-25 -19,3 -30,-10 -25,-28 5,-18 -6,-28 -23,-21 -18,7 -32,-3 -31,-22 1,-19 -11,-26 -27,-16 -16,10 -31,3 -34,-15 -3,-19 -17,-23 -30,-10 -14,13 -30,10 -37,-8 -7,-17 -21,-19 -31,-3 -11,16 -28,16 -38,0 -10,-16 -24,-14 -31,3 -7,18 -24,21 -37,8 -13,-13 -27,-9 -30,10 -3,18 -18,25 -34,15 -16,-10 -28,-3 -27,16 1,19 -13,29 -31,22 -17,-7 -28,3 -23,21 5,18 -7,31 -25,28 -19,-3 -27,8 -19,25 9,17 0,32 -19,33 -18,1 -24,14 -12,28 11,15 6,31 -12,36 -18,5 -21,19 -7,31 15,12 13,29 -3,37 -17,9 -17,23 0,32 16,8 18,25 3,37 -14,12 -11,26 7,31 18,5 23,21 12,36 -2,2 -4,4 -5,6l-43 7 0 192 386 55 336 -55 0 -192 -59 -12zm-615 -115l0 0c0,-169 138,-306 308,-306 170,0 308,137 308,306 0,40 -8,77 -22,112l-89 -10c15,-29 23,-63 23,-98 0,-121 -99,-220 -220,-220 -122,0 -220,99 -220,220 0,37 9,72 25,103l-89 10c-16,-36 -24,-76 -24,-117zm403 38l0 0c13,24 -2,32 -7,34 -1,1 -2,1 -2,1 3,1 11,7 10,16l-77 -8 -111 13 -9 -79c0,0 18,-5 34,-26 7,-10 13,-27 17,-42 4,-8 3,-12 21,-20 11,-6 30,-20 38,-41 2,-10 -3,-32 16,-31 21,0 20,19 21,32 -1,22 -19,44 -19,44l-16 25c0,0 6,0 24,1 15,1 30,-2 50,4 46,24 7,40 7,40 25,18 3,37 3,37zm253 274l0 0 -319 46 -366 -46 0 -174 358 -41 0 0 327 41 0 174z"/>
  <path class="fil0" d="M411 601c3,0 5,-3 8,-6 0,-2 0,-3 1,-5l7 -34c-2,-2 -5,-2 -6,-2 -10,0 -18,20 -18,38 0,8 4,9 8,9z"/>
  <path class="fil0" d="M554 559c0,-3 -1,-7 -5,-7 -7,0 -13,14 -16,27 12,0 20,-11 21,-20z"/>
  <path class="fil0" d="M289 592c0,8 5,9 8,9 3,0 6,-3 8,-6 0,-2 1,-3 1,-5l7 -34c-2,-2 -4,-2 -6,-2 -10,0 -18,20 -18,38z"/>
  <path class="fil0" d="M25 490l0 162 360 45 313 -45 0 -162 -321 -40 -352 40zm225 30l0 0c-14,0 -28,24 -28,45 0,11 4,21 15,21 4,0 8,-1 11,-5l5 -24 17 0 -11 49c-4,19 -12,32 -33,32 -12,0 -18,-9 -18,-18 0,-9 6,-18 16,-18 5,0 13,1 13,9 0,1 -1,3 -1,5 -3,-3 -5,-3 -8,-3 -6,0 -9,5 -9,10 0,4 3,8 8,8 6,0 10,-2 13,-16l5 -23c-7,4 -14,5 -15,5 -22,0 -28,-15 -28,-33 0,-25 17,-50 46,-50 12,0 24,4 24,17 0,7 -3,12 -9,12 -2,0 -7,-1 -9,-3 3,-1 5,-8 5,-11 0,-2 0,-9 -9,-9zm170 26l0 0c3,0 6,2 8,3l1 -3 19 0 -10 44c0,2 0,3 0,4 0,3 1,5 6,5 2,0 4,-1 6,-2 0,-1 0,-2 0,-3 0,-18 7,-48 32,-48 5,0 8,3 10,6l2 -6 18 0 -12 58c5,-3 10,-6 14,-11 0,-1 0,-2 0,-3 0,-16 7,-45 31,-45 10,0 16,4 16,13 0,16 -17,25 -29,27 0,2 0,4 0,6 0,8 4,11 9,11 6,0 11,-4 17,-9 0,14 -12,18 -25,18 -8,0 -14,-4 -17,-10 -4,4 -10,7 -17,10l-3 10c-3,19 -14,22 -23,22 -8,0 -15,-4 -15,-12 0,-11 10,-15 22,-19l1 -6c-4,3 -9,6 -15,6 -8,0 -13,-5 -15,-10 -5,5 -11,9 -16,9 -8,0 -14,-3 -16,-10 -4,5 -9,11 -17,11 -13,0 -16,-9 -16,-17 0,-22 8,-49 34,-49zm-29 8l0 0c0,5 -4,11 -10,11 -7,0 -4,-9 -8,-9 -4,0 -6,1 -9,4l-10 51 -19 0 2 -8c-6,5 -11,8 -16,8 -8,0 -14,-3 -15,-10 -4,5 -10,11 -18,11 -13,0 -16,-9 -16,-17 0,-22 8,-49 34,-49 3,0 6,2 9,3l0 -3 19 0 -9 44c-1,2 -1,3 -1,4 0,3 1,5 7,5 2,0 5,-1 7,-3l11 -50 18 0 -1 7c5,-4 10,-7 15,-7 6,0 10,3 10,8z"/>
  <path class="fil0" d="M466 629c0,2 1,4 4,4 3,0 6,-4 8,-11l0 -4c-7,3 -12,6 -12,11z"/>
  <path class="fil0" d="M475 600c3,0 6,-2 8,-5l8 -36c-2,-4 -5,-5 -8,-5 -12,0 -17,26 -17,37 0,7 4,9 9,9z"/>
  <path class="fil0" d="M622 351c9,0 17,-7 17,-17 0,-9 -8,-17 -17,-17 -9,0 -17,8 -17,17 0,10 8,17 17,17z"/>
  <path class="fil0" d="M92 352c9,0 16,-8 16,-17 0,-9 -7,-17 -16,-17 -10,0 -17,8 -17,17 0,9 7,17 17,17z"/>
 </g>
</svg>
