<?xml version="1.0" encoding="UTF-8"?>
<!DOCTYPE svg PUBLIC "-//W3C//DTD SVG 1.1//EN" "http://www.w3.org/Graphics/SVG/1.1/DTD/svg11.dtd">
<!-- Creator: CorelDRAW X7 -->
<svg xmlns="http://www.w3.org/2000/svg" xml:space="preserve" width="2.82943in" height="3.1558in" version="1.1" style="shape-rendering:geometricPrecision; text-rendering:geometricPrecision; image-rendering:optimizeQuality; fill-rule:evenodd; clip-rule:evenodd"
viewBox="0 0 1656 1847"
 xmlns:xlink="http://www.w3.org/1999/xlink">
 <defs>
  <style type="text/css">
   <![CDATA[
    .fil0 {fill:#282828;fill-rule:nonzero}
   ]]>
  </style>
 </defs>
 <g id="OBJECTS">
  <metadata id="CorelCorpID_0Corel-Layer"/>
  <path class="fil0" d="M1000 1463l2 43c1,12 11,22 24,21l229 -10c12,-1 22,-11 21,-24l-2 -43c0,-12 -11,-22 -23,-21l-229 11c-13,0 -22,11 -22,23z"/>
  <path class="fil0" d="M947 1427c-2,-34 -31,-61 -65,-59 -34,1 -60,30 -59,64 2,35 31,61 65,59 34,-1 60,-30 59,-64z"/>
  <path class="fil0" d="M1129 1378c2,16 5,27 5,27 0,0 2,-11 3,-27 1,-8 1,-18 2,-28 0,-11 -1,-21 -1,-32 -1,-11 -1,-22 -3,-32 -1,-10 -2,-20 -3,-28 -3,-16 -6,-27 -6,-27 0,0 -2,11 -3,27 -1,9 -1,18 -1,28 0,11 0,22 0,32 1,11 2,22 3,32 1,11 2,20 4,28z"/>
  <path class="fil0" d="M866 1600l-41 2 45 41c-2,-5 -3,-10 -3,-16l-1 -27z"/>
  <path class="fil0" d="M1389 1344c-34,2 -61,31 -59,65 1,34 30,60 64,59 35,-2 61,-31 59,-65 -1,-34 -30,-61 -64,-59z"/>
  <path class="fil0" d="M1226 1079c-135,6 -133,6 -232,11 -99,4 -90,122 -90,122l449 -21c0,0 9,-119 -127,-112z"/>
  <path class="fil0" d="M902 744c-4,17 -7,38 -13,55 8,2 12,8 13,18 0,12 -9,22 -21,23 -3,0 -7,-1 -12,-2 2,19 13,27 31,25 11,-1 26,-16 24,-41 -2,-20 -18,-37 -22,-78z"/>
  <path class="fil0" d="M1620 1202l-1030 -920c-1,-1 -2,-2 -3,-2 0,-1 -3,-3 -3,-3l-161 9c-20,103 -38,183 -71,219 24,34 22,81 -7,113 -34,38 -92,41 -129,8 -38,-34 -42,-92 -8,-130 4,-4 8,-8 12,-11 5,8 10,14 16,20 16,16 36,24 60,24 8,0 16,-1 24,-3l0 0c12,-3 23,-10 32,-20 -5,-7 -11,-14 -16,-20 0,0 0,0 0,0 26,-32 44,-109 61,-198l-139 8c-1,0 -1,0 -1,0 29,-24 75,-46 123,-69 11,-5 21,-11 32,-16 -3,15 -6,29 -8,43 -2,11 -4,22 -6,32l25 -1c2,-9 3,-17 5,-26 4,-20 8,-41 12,-62 59,-30 111,-64 137,-109l-22 -12c-20,35 -61,63 -108,89 11,-52 24,-106 40,-158l-24 -7c-19,59 -33,121 -45,180 -16,8 -33,16 -49,24 -61,30 -120,58 -149,94 0,0 0,0 0,0l-220 12 33 585c0,0 2,2 3,2 0,1 1,1 2,2l133 119 668 0 0 11 -656 0 22 19 603 0 0 11 -591 0 26 24 527 0 0 11 -514 0 21 19 462 0 0 11 -449 0 20 18 382 0 0 11 -370 0 22 20 317 0 0 11 -304 0 21 19 239 0 0 11 -227 0 372 332c3,-12 12,-23 23,-29 -18,-22 -29,-49 -30,-79 -3,-68 44,-127 109,-140l-2 -36c-4,2 -8,3 -12,3 -21,1 -39,-14 -40,-33 -1,-19 15,-36 37,-37 4,0 8,1 12,2 -1,-83 65,-146 149,-150l222 -10c84,-4 155,51 162,134 3,-1 5,-1 7,-1 22,-1 40,13 41,32 1,20 -16,36 -37,37 -3,0 -5,0 -7,0l2 35c62,10 111,63 114,128 2,30 -6,58 -21,81 6,2 11,6 16,10l121 -136c41,-45 37,-115 -8,-155zm-1423 -812l0 0c1,4 1,7 1,11 0,-4 0,-7 -1,-11zm1 15l0 0c0,2 0,5 0,7 0,-2 0,-5 0,-7zm1 12l0 0c0,2 0,4 1,5 -1,-1 -1,-3 -1,-5zm1 11l0 0c1,1 1,3 1,4 0,-1 0,-3 -1,-4zm2 10l0 0c1,1 1,2 1,4 0,-2 0,-3 -1,-4zm7 24l0 0c0,0 1,1 1,2 0,-1 -1,-2 -1,-2zm3 8l0 0c1,1 1,2 1,2 0,0 0,-1 -1,-2zm4 8l0 0c0,0 1,1 1,2 0,-1 -1,-2 -1,-2zm120 9l0 0c-7,8 -14,13 -22,15 -25,5 -46,0 -61,-15 -13,-12 -21,-31 -26,-54 3,15 8,29 14,39 31,-12 68,-8 95,15zm-113 -94l0 0c0,5 0,9 0,14 0,-5 0,-9 0,-14zm0 14l0 0c0,2 0,4 1,7 0,-3 -1,-5 -1,-7zm1 9l0 0c0,2 1,4 1,7 0,-3 -1,-5 -1,-7zm1 9l0 0c1,2 1,4 1,6 0,-2 0,-4 -1,-6zm22 -120l0 0c0,0 -1,1 -1,1 0,0 1,-1 1,-1zm7 -7l0 0c0,1 -1,1 -2,2 1,-1 2,-1 2,-2zm-3 3l0 0c-1,1 -1,2 -2,2 1,0 1,-1 2,-2zm-9 10l0 0c0,-1 1,-1 1,-2 0,1 -1,1 -1,2zm-2 1l0 0c0,1 -1,1 -1,2 0,-1 1,-1 1,-2zm-3 4l0 0c0,0 0,1 -1,1 1,0 1,-1 1,-1zm-3 4l0 0c0,1 0,1 0,1 0,0 0,0 0,-1zm-2 4l0 0c0,0 0,1 0,1 0,0 0,-1 0,-1zm-2 4l0 0c0,0 0,0 0,0 0,0 0,0 0,0zm-1 4l0 0c-1,0 -1,0 -1,1 0,-1 0,-1 1,-1zm-2 3l0 0c0,1 0,1 0,1 0,0 0,0 0,-1zm-5 48l0 0c0,2 0,4 0,5 0,-1 0,-3 0,-5zm3 -32l0 0c0,1 -1,3 -1,4 0,-1 1,-3 1,-4zm-1 11l0 0c-1,2 -1,3 -1,5 0,-2 0,-3 1,-5zm-1 11l0 0c0,1 0,3 0,5 0,-2 0,-4 0,-5zm-6 -71l0 0c0,0 0,0 0,0 0,0 0,0 0,0zm-3 5l0 0c0,0 0,0 0,0 0,0 0,0 0,0zm-10 19l0 0c0,0 0,0 0,0 0,0 0,0 0,0zm-1 5l0 0c0,0 0,0 0,0 0,0 0,0 0,0zm-3 18l0 0c1,-4 1,-9 2,-13 -1,4 -1,9 -2,13zm-2 37l0 0c0,-3 0,-5 0,-8 0,3 0,5 0,8zm0 -13l0 0c0,-2 0,-5 0,-7 0,2 0,5 0,7zm1 -12l0 0c0,-3 0,-5 1,-8 -1,3 -1,5 -1,8zm196 564l0 0c-26,2 -73,0 -77,-48 -2,-30 19,-49 45,-51 14,-1 24,3 27,15 -26,4 -37,16 -35,39 2,22 20,30 35,29 26,-2 34,-25 32,-50 -5,-62 -77,-69 -81,-118 -2,-35 35,-65 74,-68 17,-1 55,-1 58,35 2,19 -7,34 -24,36 -6,0 -11,-1 -16,-6 9,-6 14,-19 13,-29 -1,-12 -9,-22 -26,-21 -18,2 -30,13 -28,31 4,52 78,49 84,122 4,47 -28,79 -81,84zm518 -43l0 0c-32,2 -51,-4 -58,-25 -12,18 -28,32 -55,34 -24,2 -40,-11 -48,-29 -15,17 -34,35 -50,36 -21,2 -36,-5 -41,-22 -14,15 -30,28 -43,29 -22,2 -37,-5 -42,-22 -9,15 -23,29 -43,31 -31,2 -42,-19 -44,-39 -4,-56 11,-125 76,-131 8,0 17,2 23,7l1 -9 48 -4 -15 114c-1,4 -1,7 -1,10 1,7 5,12 18,11 6,0 13,-5 20,-11 -1,-4 0,-8 0,-13l23 -174 48 -10 -23 180c-1,5 -1,8 -1,11 0,7 4,12 17,11 8,-1 17,-8 26,-17 -1,-2 -1,-5 -2,-8 -3,-41 9,-116 69,-121 27,-2 43,8 45,31 3,40 -38,66 -69,73 -1,5 0,10 0,14 2,22 16,27 29,26 13,-1 23,-11 32,-27 -1,-23 9,-37 22,-39 9,-22 13,-52 17,-77l47 -14 0 5c5,54 30,68 33,106 2,31 -15,59 -59,63z"/>
  <path class="fil0" d="M569 763c-24,2 -40,55 -36,100 1,20 13,22 21,22 7,-1 14,-9 19,-18 1,-4 1,-7 2,-11l11 -89c-6,-4 -12,-5 -17,-4z"/>
  <path class="fil0" d="M841 755c-1,-7 -3,-18 -13,-17 -18,1 -31,39 -35,71 30,-3 50,-30 48,-54z"/>
  <path class="fil0" d="M1299 1597l-1 -17 -305 14 1 27c2,31 -26,57 -61,58 -9,1 -18,-1 -26,-3l161 143c45,41 115,37 155,-8l144 -162c0,0 -1,0 -2,0 -35,2 -65,-21 -66,-52z"/>
 </g>
</svg>
