<?xml version="1.0" encoding="UTF-8"?>
<!DOCTYPE svg PUBLIC "-//W3C//DTD SVG 1.1//EN" "http://www.w3.org/Graphics/SVG/1.1/DTD/svg11.dtd">
<!-- Creator: CorelDRAW X7 -->
<svg xmlns="http://www.w3.org/2000/svg" xml:space="preserve" width="3.05039in" height="2.64174in" version="1.1" style="shape-rendering:geometricPrecision; text-rendering:geometricPrecision; image-rendering:optimizeQuality; fill-rule:evenodd; clip-rule:evenodd"
viewBox="0 0 1717 1487"
 xmlns:xlink="http://www.w3.org/1999/xlink">
 <defs>
  <style type="text/css">
   <![CDATA[
    .fil0 {fill:#231F20}
   ]]>
  </style>
 </defs>
 <g id="Layer_x0020_1">
  <metadata id="CorelCorpID_0Corel-Layer"/>
  <path class="fil0" d="M1199 1333l-189 0 -6 -259 204 -185 0 -320 -188 -195 0 390 -162 0 -161 0 0 -390 -189 195 0 320 205 185 -7 259 -188 0 -340 -590 340 -589 681 0 340 589 -340 590zm89 -1333l-859 0 -429 743 429 744 274 0 311 0 274 0 429 -744 -429 -743z"/>
 </g>
</svg>
