<?xml version="1.0" encoding="UTF-8"?>
<!DOCTYPE svg PUBLIC "-//W3C//DTD SVG 1.1//EN" "http://www.w3.org/Graphics/SVG/1.1/DTD/svg11.dtd">
<!-- Creator: CorelDRAW X7 -->
<svg xmlns="http://www.w3.org/2000/svg" xml:space="preserve" width="3.44073in" height="3.48372in" version="1.1" style="shape-rendering:geometricPrecision; text-rendering:geometricPrecision; image-rendering:optimizeQuality; fill-rule:evenodd; clip-rule:evenodd"
viewBox="0 0 850 860"
 xmlns:xlink="http://www.w3.org/1999/xlink">
 <defs>
  <style type="text/css">
   <![CDATA[
    .fil0 {fill:#606062}
   ]]>
  </style>
 </defs>
 <g id="Layer_x0020_1">
  <metadata id="CorelCorpID_0Corel-Layer"/>
  <path class="fil0" d="M691 697c-28,0 -51,-22 -51,-50 0,-29 23,-51 51,-51 28,0 51,22 51,51 0,28 -23,50 -51,50zm-559 -192c0,0 7,-142 72,-167 49,-19 165,-19 221,-18 56,-1 172,-1 221,18 65,25 72,167 72,167 -75,-29 -237,-34 -293,-35 -56,1 -219,6 -293,35zm27 192c-29,0 -51,-22 -51,-50 0,-29 22,-51 51,-51 28,0 51,22 51,51 0,28 -23,50 -51,50zm673 -134l-54 -56c-9,-9 -14,-20 -17,-32l-22 -112c-11,-53 -57,-90 -110,-90l-204 0 -204 0c-54,0 -100,37 -110,90l-22 112c-3,12 -9,23 -17,32l-54 56c-12,12 -18,28 -18,44l0 112c0,15 12,27 26,27l31 0 0 47c0,37 30,67 67,67 37,0 67,-30 67,-67l0 -53 234 0 234 0 0 53c0,37 30,67 67,67 37,0 67,-30 67,-67l0 -47 31 0c14,0 26,-12 26,-27l0 -112c0,-16 -7,-32 -18,-44z"/>
  <path class="fil0" d="M450 58c-4,-36 -34,-58 -34,-58 0,0 -31,22 -35,58 -4,37 19,42 35,42 16,0 38,-5 34,-42z"/>
  <path class="fil0" d="M613 58c-17,-33 -53,-44 -53,-44 0,0 -20,31 -12,67 8,35 31,32 46,27 15,-5 35,-18 19,-50z"/>
  <path class="fil0" d="M662 183c-16,-32 -52,-43 -52,-43 0,0 -21,31 -13,66 8,36 31,33 46,28 15,-6 35,-18 19,-51z"/>
  <path class="fil0" d="M227 58c16,-33 52,-44 52,-44 0,0 21,31 13,67 -8,35 -31,32 -46,27 -15,-5 -35,-18 -19,-50z"/>
  <path class="fil0" d="M178 183c16,-32 52,-43 52,-43 0,0 21,31 13,66 -9,36 -32,33 -47,28 -15,-6 -34,-18 -18,-51z"/>
  <path class="fil0" d="M450 188c-4,-36 -34,-59 -34,-59 0,0 -31,23 -35,59 -4,36 19,41 35,41 16,0 38,-5 34,-41z"/>
 </g>
</svg>
