<?xml version="1.0" encoding="UTF-8"?>
<!DOCTYPE svg PUBLIC "-//W3C//DTD SVG 1.1//EN" "http://www.w3.org/Graphics/SVG/1.1/DTD/svg11.dtd">
<!-- Creator: CorelDRAW X7 -->
<svg xmlns="http://www.w3.org/2000/svg" xml:space="preserve" width="6.17226in" height="3.59444in" version="1.1" style="shape-rendering:geometricPrecision; text-rendering:geometricPrecision; image-rendering:optimizeQuality; fill-rule:evenodd; clip-rule:evenodd"
viewBox="0 0 2672 1556"
 xmlns:xlink="http://www.w3.org/1999/xlink">
 <defs>
  <style type="text/css">
   <![CDATA[
    .fil0 {fill:#4C4C4D;fill-rule:nonzero}
   ]]>
  </style>
 </defs>
 <g id="__x0023_Layer_x0020_1">
  <metadata id="CorelCorpID_0Corel-Layer"/>
  <polygon class="fil0" points="377,324 407,416 504,416 426,473 455,565 377,509 299,565 328,473 250,416 347,416 "/>
  <polygon class="fil0" points="2295,324 2326,416 2422,416 2344,473 2373,565 2295,509 2217,565 2246,473 2169,416 2265,416 "/>
  <path class="fil0" d="M1825 321c0,-1 23,-6 21,-15 -53,-9 -103,7 -143,34 -3,-2 -4,-5 -6,-7 -2,-1 -5,-3 -7,-1 -24,-33 -46,-67 -69,-101 2,0 3,-2 4,-2 1,-1 2,-3 1,-5l-10 -15c-3,-6 -7,1 -10,1 -1,-1 -2,-3 -3,-4 -3,0 -5,-4 -6,-6l3 -2c0,-3 -1,-7 -3,-10 1,-4 0,-8 4,-11 1,0 3,1 4,2 3,-1 5,-4 5,-7 8,-12 12,-25 13,-39 -1,-13 2,-29 -6,-40 -2,-5 -8,-7 -12,-10 -3,-8 -6,3 -11,3 -4,-4 -3,-10 -8,-13 1,-3 -3,-5 0,-6 -3,-11 -1,-25 -6,-35 -4,-6 -11,-8 -17,-11 -4,0 -8,-4 -13,-4 -4,-2 -9,-2 -14,-3 -8,2 -9,12 -12,19l-9 -10c-3,-3 -11,-3 -9,-10 -1,-4 0,-9 -2,-13l-23 1c-7,-3 -12,3 -18,5l0 12 -1 0c-1,-2 -5,-1 -7,0 -6,3 2,8 -1,12 -2,-2 -4,-1 -5,-4 -9,4 -17,10 -25,15 -2,3 -3,6 -5,9l-26 19c-7,7 -20,9 -22,20 1,4 3,8 6,11 -2,3 -4,4 -7,6 -1,1 -2,0 -2,-1 -2,-1 -4,0 -5,1 -1,6 5,10 7,14 1,2 4,5 6,5 4,0 4,-4 6,-6 14,-11 29,-21 43,-31 2,4 4,7 5,10 6,3 7,-5 12,-6 0,1 1,1 1,1 1,0 1,1 2,1 1,2 2,3 1,5 0,2 -1,5 2,7 1,1 3,2 6,1 2,0 4,-3 4,-5 1,-3 -3,-6 0,-8 9,7 21,6 29,14 10,5 12,16 18,24 4,-1 4,4 6,5 1,2 3,0 4,2 1,2 -2,4 -3,5 -8,7 -14,17 -23,23 -5,-9 -9,-17 -17,-24 -13,-13 -30,-21 -49,-16 -9,5 -15,2 -20,5 -11,8 -27,12 -33,27 -42,31 -84,61 -117,103 -6,8 -13,15 -16,23 -4,-2 -9,-3 -14,-3 -10,1 -66,10 -83,12 -10,1 -49,-1 -68,-10 -14,-2 -44,-46 -80,-56 -12,-2 -83,7 -115,-19 -9,-6 -21,-7 -31,-4 -4,2 -23,20 -25,19 -16,-18 -24,-43 -46,-55 -4,-1 -11,-2 -13,2 -2,3 -2,9 0,14 22,30 34,63 46,98 -1,0 -5,0 -7,2 -4,9 -3,20 -2,29 -11,9 -21,19 -32,28 -1,-3 -6,-2 -6,-5 -17,-4 -35,-6 -52,-6 -1,-2 -15,2 -16,0l-23 1 -4 2c-4,1 -4,5 -6,8 -2,10 -9,20 -5,30 1,4 4,6 8,7 13,0 27,1 40,0 4,2 4,9 6,14 -7,3 -16,-3 -22,4 0,5 -1,16 0,16 5,-2 42,20 104,-11 111,-81 208,-25 214,-18 -2,1 -2,2 -3,3 -21,-10 -44,-17 -68,-20 -78,-8 -149,35 -183,101 -38,67 -26,144 15,196 3,5 8,9 11,14 30,35 70,56 114,62 76,8 147,-25 187,-90l10 -21c2,-3 1,-6 4,-9 47,0 118,1 170,-2 0,0 2,9 5,12 3,-1 7,0 10,-3 5,-1 8,-7 9,-12 6,1 10,1 15,2 2,2 4,4 5,7 10,-2 21,-1 32,-1l96 -2c5,3 8,-6 13,-6 5,-7 13,-5 19,-7 32,-6 59,-27 81,-53 25,-32 26,-83 10,-119 2,-1 2,-4 3,-7 -1,-2 -3,0 -3,-1 -4,-4 -7,-10 -13,-13 -2,-4 4,-4 5,-7 0,-3 5,-5 2,-8 0,-3 4,-3 5,-6 6,-6 6,-17 3,-24 0,-2 1,-5 2,-7 0,-5 5,-11 -2,-14l6 -28c0,-2 1,-6 -3,-7 -2,-8 -11,-10 -13,-18 10,-14 15,-30 23,-46 3,1 4,6 8,4 3,-2 7,-3 10,-7 3,-1 4,-4 7,-4 2,4 5,0 7,2 -1,3 2,4 3,6 2,6 0,13 -3,18 -12,22 -10,52 -1,75 3,14 17,19 28,24 1,12 2,24 2,36 -2,6 -1,13 -2,20 -1,3 1,4 1,7 -5,14 -10,27 -13,41 0,6 -5,12 -1,16 3,0 10,-7 12,-8 0,1 -4,28 -4,28 -1,81 40,152 116,185 74,32 148,19 209,-32 154,-161 6,-350 -126,-340zm-210 -224l0 0c7,16 7,36 2,52 -2,-15 -1,-34 -2,-51l0 -1zm-12 -11l0 0c3,2 8,6 10,8l0 58c-2,3 -5,20 -7,22 -1,-1 -3,-71 -3,-88zm-225 12l0 0c-3,-4 -6,-7 -4,-12 1,0 1,-1 2,-1 4,2 7,6 7,11 -1,1 -3,3 -5,2zm8 -3l0 0c0,0 0,-1 0,-2 10,-7 19,-14 29,-20 0,0 10,-6 13,-10 0,0 2,-1 2,2 -14,10 -28,21 -44,30zm46 -1l0 0c-3,-1 -3,-5 -4,-8 2,-3 8,-3 7,-8 1,-1 1,-1 2,-1 3,3 3,7 3,10 -2,3 -4,7 -8,7zm4 -20l0 0c-1,-4 -5,-3 -6,-5 4,0 2,-6 3,-8 -1,-5 -3,-10 -8,-11l-3 -1c2,-2 2,-7 6,-8 5,1 10,2 12,6 2,8 3,16 3,24 -2,1 -4,4 -7,3zm11 13l0 0c0,-2 2,-3 3,-4l2 0c0,3 1,7 2,10 -6,4 -5,-4 -7,-6zm-757 314l0 0c0,-1 0,-3 0,-4 3,2 6,-1 9,0 3,0 6,1 9,1 -5,2 -11,4 -18,3zm1029 -43l0 0c24,-15 71,-34 104,-39 -32,18 -82,40 -107,49 2,-5 2,-8 3,-10zm20 55l0 0 61 90c6,13 16,26 25,38l0 1c-5,4 -10,6 -16,9l-90 -137 -36 -54 0 -1c5,-3 10,-7 15,-9l41 63zm-43 6l0 0 -15 -21c2,-3 6,-6 10,-7 1,-1 1,-3 2,-3 12,13 19,30 30,43l0 1c-4,3 -9,6 -14,7l-12 -17c2,-5 8,-7 12,-10 -1,-1 -13,7 -13,7zm-73 -145l0 0c15,23 31,45 45,67 0,1 -1,1 -1,2l-2 -1 -41 -61c-1,-2 0,-5 -1,-7zm47 70l0 0c2,3 6,5 4,9l3 6c-2,3 -3,7 -7,9 -5,-2 -6,-8 -9,-13 0,-1 -1,-3 0,-4 2,-3 6,-5 9,-7zm8 19l0 0 1 -1c5,7 10,14 14,21 -1,3 -4,3 -6,6 -5,-6 -11,-12 -17,-15 2,-4 6,-7 8,-11zm48 78l0 0c5,5 5,12 10,17 -2,1 -4,6 -3,11 1,3 4,5 6,6 -1,2 -2,5 -3,7 -3,-1 -6,0 -9,2l-2 2c-3,-3 1,-7 -3,-9 -2,-12 -4,-24 -6,-36l2 -2c1,-1 2,-3 4,-3l8 41c1,1 1,2 2,1l1 -1c-2,-13 -5,-22 -7,-36zm-1 -7l0 0c1,0 1,0 2,-1l15 23 -4 1c-4,-8 -8,-15 -13,-23zm-14 11l0 0c5,0 3,8 5,12l3 16c-6,-1 -11,-4 -16,-7 1,-7 5,-14 8,-21zm-5 32l0 0 14 4c1,0 2,1 1,2 -8,-1 -16,-2 -23,-4 1,-4 6,-1 8,-2zm-6 12l0 0c5,-2 10,1 15,2 3,1 9,1 9,1l1 3c-3,1 -6,1 -6,4l0 5c-2,0 -5,2 -6,4 2,5 1,11 4,16 -1,5 -2,10 0,15 2,2 6,2 8,4 -8,-1 -16,-2 -24,-5l-1 -3c-2,-13 -3,-27 -2,-40l2 -6zm33 61l0 0 7 -5c8,19 22,31 22,31 -6,9 -18,20 -26,29 -6,-9 -25,-24 -32,-56 9,2 20,2 29,1zm44 37l0 0c9,4 18,8 28,10 20,3 40,-2 57,-11 5,12 14,27 22,38 -18,12 -70,25 -128,-1 8,-14 14,-25 21,-36zm100 -9l0 0c21,-14 37,-51 25,-86 12,-4 27,-10 40,-14 13,53 -9,107 -43,133 -6,-8 -17,-24 -22,-33zm16 -104l0 0c-13,-24 -40,-43 -66,-44 1,-14 1,-26 2,-40 49,-4 95,42 102,66 -13,5 -26,14 -38,18zm2 15l0 0c2,8 16,47 -18,80 -1,1 -34,32 -80,20 -14,-5 -44,-23 -54,-52 8,-7 16,-13 23,-21 2,1 -2,8 3,6l2 -1c1,9 5,18 11,25 12,14 30,19 47,17 15,-3 31,-14 37,-29 10,-17 6,-42 -7,-56 -12,-14 -30,-19 -49,-16 -8,2 -16,7 -24,11 -5,-8 -11,-15 -16,-23 63,-39 115,11 125,39zm-63 12l0 0 -7 -9c-1,0 -2,-1 -2,-1 1,-4 0,-9 4,-11 7,2 14,7 18,13 -4,4 -8,9 -13,8zm15 7l0 0c1,0 3,1 4,-1 3,6 0,13 -2,18 -1,4 -4,7 -6,9 -5,-1 -11,-4 -14,-9 2,-4 5,-7 9,-9 0,-5 6,-5 9,-8zm-36 -12l0 0c-1,1 -3,3 -6,3 -4,-1 -6,-7 -9,-11 3,-4 8,-5 12,-7 4,3 1,10 3,15zm-43 -49l0 0c-8,-11 -15,-26 -23,-38 18,-18 49,-20 56,-20 2,13 5,38 6,42 -20,0 -39,16 -39,16zm-156 -237l0 0c4,4 7,11 11,16 0,2 -3,2 -4,3 -5,-4 -7,-11 -11,-17l4 -2zm-14 -4l0 0 0 1c-4,2 -7,6 -11,8l-51 -76 -3 -4c3,-3 8,-6 12,-7 18,26 36,52 53,78zm-72 77l0 0c-6,-2 -13,2 -18,-2 11,0 28,-12 29,-24 6,2 11,8 11,14 0,3 -2,6 -3,8 -6,3 -13,3 -19,4zm-8 113l0 0c-14,2 -27,-7 -29,-21 -3,-14 7,-27 21,-29 13,-3 26,7 29,21 2,13 -7,26 -21,29zm52 -290l0 0 1 0 4 37 -1 3c-8,-2 -15,-9 -16,-17 -1,-10 4,-18 12,-23zm5 -1l0 0c2,0 2,2 2,3 3,13 6,25 4,38l-3 1c-1,-13 0,-29 -3,-42zm16 21l0 0c0,8 -1,17 -6,19l-1 0c1,-13 -1,-26 -4,-37 5,2 10,10 11,18zm-8 -36l0 0c-3,6 -5,14 -13,14l-4 1c5,-6 8,-13 12,-20 2,0 3,3 5,5zm-47 -69l0 0c7,-2 11,3 17,4 8,5 19,6 23,17 1,7 4,15 3,23 -2,2 -5,2 -5,-3 -2,-5 0,-22 -5,-25 -8,-5 -17,-8 -26,-11 -5,0 -13,7 -13,7 0,-2 2,-5 -2,-5 2,-5 6,-5 8,-7zm6 95l0 0c2,2 3,5 4,7l-17 10c-3,-1 1,-6 -3,-7 5,-4 10,-8 16,-10zm-17 -65l0 0c0,6 -3,13 -4,20 -2,7 -2,14 -3,21 1,1 2,1 2,2 -4,0 -8,-2 -11,-3 -5,-3 -8,-7 -10,-12l3 -1c4,-1 8,-1 11,-3 1,6 -1,13 3,18 2,-4 -1,-6 0,-10 -1,-8 2,-14 4,-22 2,-3 2,-8 5,-10zm-17 57l0 0c0,1 -1,3 -3,4 -1,-1 -1,-3 -3,-4 -10,-9 -21,-17 -33,-22l0 -1c4,-1 8,0 11,-1 6,13 23,9 27,22l0 1c1,0 1,1 1,1zm1 -75l0 0c6,3 7,11 13,15l-2 5c-6,1 -11,4 -17,4 0,0 0,0 -1,-1 -5,3 -11,2 -17,4 7,-5 13,-10 20,-15 0,-3 0,-6 -1,-8l5 -4zm-27 12l0 0c-5,2 -11,-3 -15,-6 0,-1 1,-2 1,-4 6,0 12,5 14,10zm-6 -42l0 0c2,2 0,6 1,8l-1 19 -3 0c1,-7 1,-15 1,-23 -3,-3 -5,3 -8,2 0,0 5,-6 10,-6zm-13 18l0 0 1 6c-2,1 -2,0 -4,0 2,-3 0,-6 3,-6zm-6 46l0 0c13,-6 24,-18 37,-25 1,-1 1,-3 3,-3l4 5c-12,9 -25,22 -40,28 0,-1 -1,-4 -3,-3 0,0 -1,-1 -1,-2zm-2 17l0 0 0 -2c16,-4 34,-11 50,-13 1,-3 -2,-2 0,-5 3,-1 6,-2 9,-2 0,-2 2,-1 3,-2 0,4 -1,7 -3,10 -19,3 -39,10 -59,14zm45 32l0 0c-5,0 -5,-7 -10,-9 -7,-6 -16,-11 -26,-13 -3,0 -6,-5 -6,-5 2,0 4,-4 6,0 11,9 27,9 36,22 1,1 0,5 0,5zm2 3l0 0c2,-4 7,-4 10,-8l1 1c1,4 6,7 5,11 -3,3 -6,6 -10,6l-6 -10zm8 13l0 0c0,-1 3,-1 4,-2 3,-1 6,-2 7,-5 0,1 1,3 2,3 -1,4 -5,3 -7,7 -2,2 -4,-1 -6,-3zm2 105l0 0c10,0 18,8 18,18 0,10 -8,18 -18,18 -10,0 -18,-8 -18,-18 0,-10 8,-18 18,-18zm-21 -65l0 0c0,-1 1,-2 2,-3l1 0c5,13 4,34 2,46 -2,9 -10,31 -14,40l-10 1c16,-24 26,-53 19,-84zm-10 107l0 0c5,11 5,25 2,37 -4,9 -7,19 -15,26 -64,4 -99,-1 -104,-4 -10,-3 -17,-13 -18,-24 -1,-10 4,-20 13,-25 6,-3 13,-4 19,-7 28,-6 54,-11 83,-11 8,0 16,-1 20,8zm-475 298l0 0 0 14c-9,3 -19,7 -28,11 -2,-2 -4,-2 -4,-4 -2,-5 6,-4 4,-9 4,-8 8,-15 9,-24l26 0c-1,1 0,4 -2,5 -1,2 -5,1 -6,4l1 3zm-82 -17l0 0 -1 -41c0,0 174,4 220,6 11,3 21,12 22,24 2,5 -3,8 -6,11 -3,2 -8,3 -13,3l-222 -3zm-73 26l0 0c5,5 10,12 15,18 -2,3 -9,14 -10,16 -11,-3 -15,-15 -21,-22 -9,-18 -15,-38 -12,-61 6,-3 13,2 19,4 -1,17 3,32 9,45zm-5 -69l0 0 0 1c-6,-2 -11,-5 -17,-7l0 -2c11,-26 36,-48 63,-55 4,-1 6,3 7,5l2 19c-23,5 -42,19 -55,39zm74 -12l0 0c3,2 9,0 9,5 -12,-3 -23,-4 -34,1 -9,3 -14,10 -19,17l0 1 -5 -4c11,-16 30,-24 49,-20zm20 -20l0 0 2 -3 20 13 -3 3 -2 -1c0,0 -7,10 -11,15 -6,-2 -10,-6 -14,-10 3,-5 9,-13 9,-13l-1 -4zm0 -8l0 0c0,0 -13,-1 -15,-1 -1,-8 -1,-16 -2,-25l1 0c10,1 21,3 30,7 1,1 -14,19 -14,19zm14 92l0 0c-2,9 -10,18 -18,24 -12,8 -31,10 -44,4 -6,-3 -12,-7 -16,-12 2,-1 76,-15 78,-16zm-77 57l0 0c3,-1 3,-8 7,-6 1,0 3,0 4,-1 1,1 3,0 3,2 6,-2 8,5 14,2 0,3 3,4 3,7 2,-1 4,1 6,3 4,2 9,3 14,1 2,-2 4,-2 6,-5 11,-3 21,-7 31,-11 3,3 7,7 5,11 -2,4 -7,6 -11,8 -19,10 -46,13 -67,6 -6,-1 -10,-3 -15,-5 -2,-4 -3,-9 0,-12zm157 -235l0 0c-7,0 -12,-5 -12,-12 0,-7 5,-12 12,-12 7,0 12,5 12,12 0,7 -5,12 -12,12zm22 19l0 0c6,12 12,24 15,36 -9,-16 -19,-31 -33,-44 2,0 3,2 5,3 4,2 12,-2 13,5zm-18 107l0 0 -18 1c0,0 -6,-32 -34,-51 4,-5 6,-7 11,-12 33,21 41,62 41,62zm-35 -17l0 0c-1,3 -5,6 -8,8 -5,2 -13,4 -17,0 -3,-5 -9,-8 -13,-13 4,-4 10,-18 13,-20 2,0 6,3 7,3 8,6 13,14 18,22zm91 -81l0 0 1 3c4,16 13,32 16,48 13,17 33,10 54,8 10,-3 13,-2 17,-12 1,-2 7,1 8,-1 -2,10 -12,21 -22,24 -7,4 -17,2 -25,1 -13,-2 -23,3 -33,-7 -6,-9 -19,-43 -21,-54 -2,-8 6,-1 5,-10zm-1 -14l0 0c2,-1 3,-3 5,-4 26,-11 53,-21 80,-31 1,0 3,1 3,3 0,21 1,44 -7,63 -12,14 -30,17 -48,13 -18,0 -21,-20 -29,-31 -2,-5 -6,-9 -4,-13zm70 114l0 0c0,-11 8,-19 18,-19 10,0 19,8 19,19 0,10 -9,18 -19,18 -10,0 -18,-8 -18,-18zm31 -27l0 0 14 -34 23 20 -10 21 -27 -7zm48 -78l0 0c-3,1 -9,7 -9,7l6 9 -21 16 -12 -16c0,0 -11,-69 38,-88 -40,57 -2,72 -2,72zm-25 103l0 0c8,1 10,8 15,13 1,3 6,6 4,9 -3,1 -4,4 -6,7 -7,-7 -13,-15 -20,-22 1,-4 4,-5 7,-7zm23 28l0 0c2,-1 4,1 6,2 2,2 1,4 1,7 -2,2 -4,4 -7,3 -2,-1 -4,-2 -5,-4 0,-4 1,-7 5,-8zm6 -72l0 0c0,-11 9,-20 21,-20 11,0 21,9 21,20 0,12 -10,21 -21,21 -12,0 -21,-9 -21,-21zm45 -77l0 0 27 34 7 -5 -24 -30c0,0 16,3 26,-18l23 28 6 -3 -26 -33c0,0 3,-12 -6,-28l6 -6 21 14 41 75 -57 45 -66 -61 -7 -24 6 -5c0,0 11,14 23,17zm-18 -35l0 0c0,-14 11,-25 25,-25 14,0 26,11 26,25 0,14 -12,26 -26,26 -14,0 -25,-12 -25,-26zm93 122l0 0 -24 -12 51 -40 6 27 -33 25zm58 2l0 0c7,7 11,16 10,27 -2,11 -9,22 -20,26 -13,4 -26,0 -34,-9 -9,-11 -10,-27 -3,-39 3,-4 7,-7 11,-10 12,-6 26,-4 36,5zm-60 52l0 0c-3,15 -17,29 -33,32 -18,4 -36,-3 -47,-18 -8,-13 -9,-31 -3,-45 4,-6 50,-25 62,-18 16,11 25,29 21,49zm-107 18l0 0 43 25 117 -2c0,0 35,-14 68,-44l17 7c0,0 -26,36 -80,48l-126 0 -43 -27 4 -7zm178 -69l0 0 -30 -29 8 -26 47 44 -25 11zm-47 -334l0 0c7,-3 14,-10 20,-16l2 0c0,3 -2,5 -4,8 -9,7 -19,12 -31,14l0 0c3,-4 9,-3 13,-6zm-133 136l0 0c34,-44 82,-77 125,-109 14,-9 28,-18 42,-26 1,-4 4,0 7,-1 8,-3 15,3 19,10 7,16 4,36 -3,51 -5,10 -12,21 -21,27 -2,3 -6,5 -9,7 -36,22 -78,32 -117,45 -15,4 -30,8 -45,10 0,0 3,-13 2,-14zm-7 29l0 0c3,-2 6,-3 10,-2 2,1 1,4 4,5 0,3 1,7 -2,9 -2,3 -6,2 -9,2 -2,-1 -4,-4 -5,-6 -1,-3 0,-6 2,-8zm-281 -84l0 0c41,-3 72,34 79,40 44,48 162,18 166,16 10,-2 32,5 33,7 2,7 -4,11 -9,13 -18,3 -129,9 -134,9 -47,2 -80,-65 -136,-68 -12,-3 -8,-16 1,-17zm-97 -17l0 0c30,21 65,16 78,21 4,0 7,10 0,11 -6,-1 -64,6 -94,-20 -16,-14 0,-24 16,-12zm-50 85l0 0c2,7 1,15 -4,20 -1,3 -4,3 -6,5 -2,-4 -3,-38 -3,-38 6,2 11,7 13,13zm-19 -8l0 0 1 -6 3 0c-3,14 -2,27 2,40 0,0 -1,1 -1,1 -4,-12 -7,-22 -5,-35zm-91 84l0 0 16 -6 30 -29 7 6 -47 42 -6 -13zm67 5l0 0c-14,8 -42,14 -58,15l19 -17c3,-1 15,3 26,-1 35,-13 58,-28 86,-42 1,-1 2,-2 2,-3l5 0c-20,10 -59,39 -80,48zm101 -56l0 0c-9,3 -20,0 -29,0 -9,-1 -18,-3 -27,-5 -3,-1 2,-4 1,-7l1 -6c6,0 11,3 17,3 16,1 33,2 48,3l2 -1c1,7 -8,10 -13,13zm4 -32l0 0c-55,-4 -51,-48 -58,-66 1,-1 3,-2 3,-2 12,63 34,60 57,63 46,-4 121,8 203,90 41,-17 152,-62 154,-62l0 2c-31,16 -138,60 -155,66 -3,-3 -91,-100 -204,-91zm121 57l0 0c-14,-10 -29,-17 -44,-24 3,-4 10,-14 10,-14 18,9 38,18 55,31 0,6 -7,8 -12,10 -4,2 -6,-2 -9,-3zm9 32l0 0 20 15 -7 11 -21 -16 8 -10zm-8 14l0 0 16 12 -59 81 -14 -10 57 -83zm-13 254l0 0c-117,71 -209,-36 -196,-119 23,-108 131,-119 173,-95 0,0 -4,8 -8,15 -26,-13 -63,-11 -89,3 -32,15 -55,49 -58,88 -1,89 66,113 104,114 69,-5 88,-42 88,-42l19 0c0,0 -14,26 -33,36zm295 -42l0 0c-1,2 -3,3 -5,4 -64,1 -270,-2 -270,-2l0 -34 208 -2 59 18c1,0 5,-5 10,5 2,4 1,8 -2,11zm261 -163l0 0c-1,1 1,3 1,5 8,37 8,82 -20,108 -27,30 -96,52 -96,49l-136 4 -1 -9 2 -1 138 -3c6,-3 73,-26 94,-66 14,-28 15,-59 13,-78 3,-3 -4,-4 0,-6 2,-1 3,-3 5,-3zm-13 -25l0 0 -67 52 -53 -49 49 -75 22 -11 6 6c0,0 -11,13 -12,25l-30 33 6 5 26 -28c0,0 0,16 22,22l-25 27 5 6 29 -31c0,0 11,1 26,-10l7 5 -11 23zm19 -53l0 0c-1,7 -6,13 -9,19l-3 -1c3,-8 6,-14 8,-22 1,1 3,3 4,4zm-3 -104l0 0c-1,-2 -5,-3 -4,-6 5,-8 11,-14 17,-20l6 9c-7,6 -13,11 -19,17zm43 -21l0 0c-5,3 -9,6 -13,8 -5,-6 -10,-11 -14,-18 6,-5 11,-10 16,-14 4,7 8,14 13,21l0 1c-1,-1 -1,1 -2,2zm8 -2l0 0c-6,-6 -11,-14 -15,-22 5,-4 10,-7 16,-10 6,7 9,14 14,22 -5,3 -9,8 -15,10zm5 2l0 0 0 -2c4,-2 7,-5 11,-7l25 36 45 67c3,0 4,-2 6,-3 3,2 4,5 5,8 -5,4 -12,8 -18,12l-1 -4 -57 -84 -16 -23zm11 105l0 0c-8,-10 -11,-22 -12,-34 -1,-17 1,-33 10,-46 1,9 2,19 5,28 1,3 1,7 1,11l2 2c3,14 5,30 7,45 -5,-1 -9,-3 -13,-6zm9 -58l0 0c12,18 26,36 36,56 -1,1 -3,2 -5,4 -1,8 6,12 7,19 1,1 3,2 3,3 -9,-5 -19,-10 -29,-13 -1,-24 -7,-47 -12,-69zm12 82l0 0 0 -1c8,2 16,5 23,10 -3,1 -2,4 -5,6 -7,10 -13,21 -18,31 0,-14 1,-30 0,-46zm-16 112l0 0 -2 0c-1,-2 -2,-6 0,-5 22,-21 24,-46 46,-75 3,-4 7,-5 9,-8 1,1 2,2 2,3 -23,27 -27,62 -55,85zm83 119l0 0c-65,-81 -9,-176 -9,-176 4,4 12,15 12,15 -57,87 17,183 54,192 203,73 263,-211 88,-253 -6,0 -78,-12 -111,24 -4,-6 -9,-16 -9,-16 138,-77 266,23 236,159 -31,124 -196,156 -261,55z"/>
  <path class="fil0" d="M225 1023l-11 0 -11 -2 -4 -1 -1 -4 -1 -12 -1 -13 0 -12 1 -13 1 -3 0 -1 2 -2 2 -1 9 1 9 0 3 -1 2 0 1 -3 0 -1 0 -15 -1 -15 0 -15 1 -30 0 -15 -1 -3 -1 -2 -3 0 -2 2 -9 12 -9 12 -9 12 -9 13 -8 12 -9 13 -2 1 -4 0 -2 -1 -2 -2 -7 -8 -8 -9 -6 -11 -7 -10 -7 -9 -7 -9 -6 -11 -4 -7 -2 -4 -1 -1 -2 1 -2 1 -1 2 0 16 1 16 0 16 0 16 -1 16 1 16 1 2 0 2 2 1 2 1 9 0 5 -1 5 0 1 1 2 2 1 4 1 12 0 12 1 13 -1 13 0 3 -1 1 -2 2 -2 1 -11 1 -12 -1 -11 -2 -12 -1 -11 2 -11 1 -24 -3 -11 1 -11 -1 -4 -1 -2 -1 0 -2 -1 -7 1 -6 1 -13 -1 -12 -1 -8 1 -5 2 -3 4 -2 21 1 2 -3 0 -4 -1 -14 0 -15 0 -14 0 -14 1 -14 1 -14 -1 -15 -1 -14 1 -14 -1 -14 0 -4 -1 -2 -2 -1 -4 -1 -5 2 -5 1 -5 -1 -2 0 -2 -2 -1 -1 0 -3 -1 -7 0 -6 2 -12 -2 -13 0 -5 0 -7 2 -4 2 -1 2 0 8 -1 3 -1 12 1 11 0 34 0 12 -1 11 0 2 1 2 3 7 9 7 10 13 22 7 10 8 9 4 6 2 5 8 9 1 1 2 1 2 -1 2 -1 8 -9 7 -10 13 -21 15 -20 6 -11 3 -6 3 -4 2 -2 3 -1 11 1 12 1 11 -1 12 0 23 0 11 -2 6 0 6 1 1 0 3 2 1 2 1 2 1 13 -1 13 -1 12 -2 13 0 1 -1 2 -1 1 -2 0 -9 2 -8 1 -4 1 -2 2 0 2 -1 14 1 14 2 29 -1 14 0 14 -1 14 0 14 0 15 1 13 1 4 2 0 2 1 17 2 3 1 1 1 2 1 0 2 1 13 0 12 0 13 0 7 -1 6 0 3 -1 1 -2 2 -2 1 -6 1 -6 0 -11 -2 -23 1 -11 -1 -12 -2 -11 1 -12 1zm-82 -35l0 0 2 12 -1 13 -1 25 0 3 -1 2 -2 2 -2 0 -10 1 -12 -1 -11 -2 -11 0 -12 1 -11 1 -11 -1 -23 -1 -12 -1 -4 -1 -1 -1 -1 -2 -1 -7 11 -1 11 2 13 1 12 -1 10 -2 11 1 11 2 13 1 11 0 3 0 3 -1 2 -1 3 -2 1 -4 1 -4 0 -3 0 -2 1 -13 -1 -13 0 -10 5 0 2 1 1 2 1 4zm-90 -128l0 0 -1 0 -2 0 -1 3 1 -1 2 -2 0 1 1 0 0 -1zm0 116l0 0 0 -2 -1 0 -2 0 1 2 1 2 1 -2zm0 -61l0 0 -1 0 -1 1 1 0 0 0 1 0 0 -1zm1 6l0 0 1 0 1 0 0 -2 -1 0 -1 0 0 1 0 1zm3 26l0 0 0 -2 -1 -1 0 0 -1 1 1 1 0 2 1 0 0 -1zm3 -60l0 0 0 1 1 1 1 3 2 0 3 -2 -2 -1 -1 0 -3 -2 0 0 0 -4 1 -2 1 -3 2 -2 -1 -1 -2 -1 -1 2 -1 1 1 1 0 2 -2 0 -1 -1 -1 2 -1 1 1 1 0 1 1 -2 1 0 0 1 1 2 0 2zm-3 -69l0 0 0 1 1 -1 1 -1 -2 0 0 1 0 0zm2 148l0 0 -1 -2 0 0 0 0 0 2 0 1 1 -1zm4 -126l0 0 -2 0 -3 0 0 1 1 0 2 1 2 -2zm-4 -31l0 0 1 1 0 -1 0 -1 0 -1 0 -1 0 0 -1 1 0 2zm2 10l0 0 -1 1 2 0 1 -2 0 -1 0 -1 -2 0 0 2 0 1zm1 154l0 0 0 0 -1 0 -1 1 1 2 1 -1 0 -2zm-1 -191l0 0 1 1 0 0 1 0 0 0 0 -1 -1 0 0 0 -1 0zm1 149l0 0 -1 1 1 3 2 -1 0 -2 -2 -3 0 2zm6 29l0 0 2 -2 0 -3 -2 -1 -1 1 -1 0 -3 -1 -2 1 3 2 2 -2 0 3 1 2 -1 2 0 2 1 0 0 0 1 -1 0 -3zm0 -110l0 0 -1 -1 -1 0 0 1 1 1 -1 3 -1 1 0 1 -1 2 -1 2 -1 0 0 1 0 1 1 0 2 -2 3 -2 0 0 1 -1 0 1 1 -1 1 -2 -2 -1 0 1 0 1 0 0 0 1 0 -2 -1 0 0 -1 0 0 0 -2 1 -1 0 0 0 -1 0 0 -1 0zm-6 61l0 0 1 0 1 0 0 -1 0 -1 -1 -1 -1 1 0 1 0 1zm0 29l0 0 3 0 -2 -2 -1 2zm2 -146l0 0 0 1 2 0 1 0 0 -1 -1 -1 -1 0 -1 0 0 1zm3 180l0 0 -1 -1 -1 0 0 1 1 0 1 0 0 0zm0 12l0 0 -1 0 -1 1 0 0 1 1 1 0 0 -2zm-1 5l0 0 0 0 -1 1 0 1 1 0 0 0 0 -2zm0 -206l0 0 0 0 1 0 0 -2 -1 0 0 1 0 1zm0 121l0 0 0 0 0 2 0 1 1 0 0 0 1 -1 -1 -1 0 -1 0 0 0 -2 0 0 -1 0 0 2zm0 -132l0 0 1 0 0 1 0 0 1 -1 0 0 -1 -1 0 0 -1 1zm3 30l0 0 2 2 0 -2 -1 -3 0 -2 0 -3 1 -1 2 0 0 2 2 0 1 -1 -1 -1 0 -2 1 -2 0 -1 -1 0 -1 -1 -1 1 -3 0 0 3 0 3 -1 3 0 5zm3 144l0 0 -1 -1 -1 1 -1 2 1 3 1 -2 1 -1 1 -1 -1 -1zm1 20l0 0 1 0 1 -2 -1 0 -1 0 -2 -1 -1 0 1 2 2 1zm-1 -88l0 0 1 1 1 2 2 0 0 -1 -1 -1 -1 -2 0 -1 1 -2 1 -2 -2 1 -2 -1 -1 0 -1 0 0 2 3 1 -2 2 1 1zm0 -58l0 0 1 -1 -1 -1 -1 0 0 2 1 0zm-1 -46l0 0 1 1 1 0 0 -2 -1 0 -1 -1 0 2zm2 164l0 0 1 0 0 0 0 -2 -1 0 -1 1 -1 1 1 0 1 0zm4 -12l0 0 -2 -2 -2 0 -1 1 1 2 0 2 0 1 1 -1 2 0 1 -1 0 -2zm-2 61l0 0 -1 0 0 1 0 1 0 0 1 0 0 -1 0 -1zm0 -209l0 0 1 2 1 4 1 -4 -1 -2 -1 -1 -1 1zm1 63l0 0 0 -1 0 0 -1 1 0 1 1 0 0 -1zm1 -9l0 0 2 -2 -2 0 -1 0 -1 1 1 1 1 0zm3 98l0 0 -1 -2 -1 0 -1 1 1 2 1 1 1 -2zm1 -130l0 0 1 -2 -1 -1 -1 0 -2 1 0 3 3 -1zm0 -11l0 0 0 1 1 0 1 0 0 -1 0 -1 -1 0 -1 0 0 1zm4 16l0 0 -1 -1 -2 1 0 2 1 1 1 -1 1 -2zm3 -2l0 0 1 4 5 2 -3 -4 -2 -3 -1 -3 -3 -2 1 3 1 2 1 1zm-2 -10l0 0 2 2 2 0 4 -1 4 -1 -5 -3 -5 -1 -2 1 0 3zm1 -7l0 0 2 0 0 -1 0 0 -1 -1 0 0 -1 1 0 1zm2 27l0 0 2 1 2 2 -1 -3 -2 -1 -1 0 0 1zm3 12l0 0 3 1 -2 -3 3 -2 0 -2 1 -1 -7 0 0 2 2 2 0 3zm11 5l0 0 0 -2 0 -3 -2 -2 -2 0 -1 2 -1 1 -1 1 -1 0 -1 1 1 2 1 0 3 1 3 0 1 -1zm-5 -29l0 0 0 4 2 -3 -5 -5 0 3 3 1zm-3 -15l0 0 1 3 1 1 2 0 0 -2 -1 -2 -2 -1 -1 1zm3 28l0 0 -1 -1 -1 0 0 1 0 1 1 1 1 0 0 -1 0 -1zm0 -33l0 0 0 1 2 1 1 -1 0 -1 0 -1 -3 0 0 1zm7 40l0 0 2 1 3 1 3 -1 0 -1 0 -1 -3 0 -2 0 -2 -1 -2 -1 -2 0 -1 1 0 2 1 1 1 0 1 -1 1 0zm-4 -22l0 0 2 2 2 3 1 3 2 -4 -2 -5 -1 0 -2 -1 -2 2zm2 -4l0 0 0 1 2 1 2 0 3 1 0 -1 -3 -2 -2 -2 -1 -1 -1 2 0 1zm2 16l0 0 -1 0 -1 2 1 2 1 -2 0 -2zm0 110l0 0 0 -32 0 -12 2 4 1 1 5 9 0 3 1 16 0 16 0 16 0 7 -1 0 -4 0 -4 1 -1 -13 1 -16zm4 -91l0 0 1 -2 0 -2 0 -1 -1 -1 -1 1 0 2 -1 1 0 0 -2 1 0 2 2 1 1 -2 0 0 1 0zm14 -11l0 0 1 -2 -1 -1 -2 0 -1 -1 0 -2 1 -2 1 -3 2 -1 -1 -2 2 -4 -3 -4 -5 -2 1 3 2 3 1 2 1 3 0 2 -2 2 -2 2 -4 0 -3 1 -4 -1 0 3 1 3 5 0 0 -3 2 -1 2 3 1 2 3 1 2 -1zm-3 18l0 0 -4 1 -4 -1 0 -2 -1 0 -1 2 1 1 1 2 1 2 -1 1 1 2 2 2 2 0 1 -1 -2 -2 1 -2 1 -1 1 -2 1 -2zm-8 -38l0 0 0 5 1 3 3 0 2 -5 -3 -4 -3 -1 0 2zm1 33l0 0 0 1 1 1 0 1 1 -1 1 -1 0 -1 -1 -1 -2 1zm11 11l0 0 -1 0 -1 0 -1 1 0 1 2 1 1 -1 0 -2zm1 -28l0 0 1 1 1 1 -1 -2 0 -1 0 -1 -1 0 0 2zm0 6l0 0 2 1 2 0 0 -1 -1 -1 -1 -2 -1 1 -1 1 0 1zm11 24l0 0 2 0 -2 -3 -3 0 -1 2 -1 2 -2 1 -2 1 -1 1 0 3 1 1 1 -1 5 -5 1 -3 2 1zm-4 17l0 0 -1 0 -1 0 0 1 1 1 1 -1 0 0 0 -1zm8 -4l0 0 0 -2 -2 -2 1 -2 -1 -2 -2 4 2 4 1 1 1 -1zm1 -20l0 0 1 2 1 -1 1 -1 -2 -3 -2 0 0 2 1 1zm4 28l0 0 -1 -1 -1 0 -1 1 0 1 1 1 1 -1 1 -1zm4 -16l0 0 -1 0 -1 0 -1 0 0 0 1 1 1 1 1 -1 0 -1zm6 24l0 0 -1 -2 -2 -2 1 3 1 2 1 0 0 -1zm4 -28l0 0 -1 -1 -1 1 0 1 0 1 1 1 0 0 1 -1 0 -2zm43 68l0 0 -8 13 -16 20 -3 2 -3 0 -3 -1 -1 -2 -1 -1 0 0 1 -2 5 -3 8 -13 9 -13 17 -24 9 -12 2 -3 0 2 -1 15 -7 10 -8 12zm-24 -73l0 0 1 0 2 -1 -1 -2 -2 -1 -3 2 0 2 2 0 1 0zm3 26l0 0 -1 -1 -1 1 0 1 0 1 1 0 1 0 0 -2zm3 -39l0 0 1 0 0 -2 -1 -1 0 0 0 0 -1 -2 -2 0 -1 1 1 1 1 1 1 0 0 0 1 2zm3 26l0 0 -2 1 -1 2 2 -1 1 -2zm-2 -4l0 0 2 3 -1 -3 0 -3 -1 3zm1 -14l0 0 1 1 1 -2 2 -1 2 -1 -3 -1 -3 1 0 1 0 0 0 2zm3 25l0 0 -1 -1 0 0 -1 0 0 1 1 0 1 0zm11 -33l0 0 -1 4 2 0 2 -1 0 -2 -1 -2 -1 0 -1 -1 1 -2 2 -1 0 -1 -1 -2 -1 -1 -1 1 1 1 -1 1 -1 0 -3 -2 -1 -2 -1 1 -3 -1 -1 2 -1 3 2 0 1 -1 1 -1 2 -1 1 0 1 2 1 1 0 3 2 2zm-11 12l0 0 1 0 1 -1 0 -1 -1 0 -1 0 0 2zm2 16l0 0 -1 1 0 1 0 0 1 -1 2 0 -2 -1zm5 9l0 0 -2 2 -2 2 -1 1 -1 1 1 0 1 -1 1 0 0 -1 2 0 1 -4zm-3 -17l0 0 1 1 0 -1 -1 -1 0 0 0 1 0 0zm6 1l0 0 0 -2 -1 -3 -1 -4 -2 5 0 3 1 2 2 0 1 -1zm-2 4l0 0 -1 -1 -1 0 0 1 1 1 0 -1 0 0 1 0zm-1 -16l0 0 1 0 1 0 0 -1 0 -3 1 -1 -1 0 -1 1 -1 2 0 1 0 1zm4 6l0 0 1 0 0 -3 3 0 -2 -1 -2 4zm3 13l0 0 0 -2 -2 -1 -1 2 2 1 1 0zm-2 16l0 0 0 -1 -1 -1 0 1 1 1zm26 -35l0 0 2 -4 1 0 1 -1 0 -1 -1 0 0 -2 0 -1 0 0 1 1 1 -1 3 0 2 -1 -1 -2 -2 1 -2 0 -1 -1 -1 1 -1 0 -2 -1 -1 -2 0 0 -1 -1 1 -2 -2 -2 0 0 -2 -3 -2 -1 -1 0 -1 2 0 0 0 0 -2 -1 -2 -1 -1 -3 2 -1 1 0 0 1 1 1 0 1 1 -1 0 -2 0 -3 0 -1 0 -1 1 -1 -1 -1 0 0 1 -1 0 0 1 1 1 1 0 0 0 0 1 1 2 0 0 2 0 0 0 4 2 2 1 -1 2 0 1 -2 0 -2 -2 -1 -1 1 0 1 -1 1 -1 -2 0 -2 0 -1 -1 -2 -2 0 -1 -2 -2 -1 -1 0 0 -1 0 -1 0 0 -1 0 0 1 0 2 -1 1 0 1 0 0 -2 0 -1 2 -1 0 0 1 -2 -1 -2 0 -1 2 -1 -1 -1 -1 0 2 1 2 -1 0 0 1 0 0 -1 1 -1 0 -1 0 1 1 1 0 1 0 2 0 1 3 1 2 1 -2 0 -3 0 -2 1 -1 1 3 0 3 -1 2 0 2 0 2 1 1 1 1 1 2 3 0 2 -1 0 -3 0 -1 1 -2 0 0 2 4 0 1 1 0 1 2 2 0 1 3 1 3 0 1 0 0 -1 1 -1 1 -2 0 0 -1 0 -1 -1 0 -1 0 0 1 1 2 0 1 -1 0 -2 0 0 0 0 1 0 1 1 1 0 1 1 1 1 -1 0 0 0 -1 1 0 3 -2zm-19 6l0 0 -2 1 -2 2 2 -1 2 -2zm-1 10l0 0 -1 -1 -1 -1 -1 1 1 1 1 0 1 0zm-1 -26l0 0 0 1 -1 2 0 1 1 1 1 0 1 0 0 -2 -1 0 0 -1 0 -1 1 -3 -1 -2 -1 0 0 2 0 2zm1 -7l0 0 1 0 0 -1 0 0 -1 0 -1 0 0 1 1 0zm1 17l0 0 1 -1 -1 -1 -1 0 0 1 1 1zm0 5l0 0 1 0 0 1 1 -1 0 0 0 -1 -1 0 0 0 -1 1zm5 11l0 0 0 -2 -1 -1 -1 0 -1 0 -1 2 0 1 1 1 1 1 0 1 0 1 1 0 1 0 0 -2 0 -2zm-4 -54l0 0 2 -1 0 -1 0 0 -1 0 -1 2zm3 -12l0 0 0 0 1 0 0 -1 0 -1 -1 0 0 1 0 1zm7 61l0 0 0 -2 0 1 -1 0 -1 0 -1 -2 0 0 -1 0 0 2 1 3 1 0 0 -1 2 -1zm122 150l0 0 0 13 0 12 0 8 -1 4 -1 3 -1 2 -1 1 -3 2 -5 0 -5 0 -12 0 -23 0 -11 -1 -11 -1 -12 0 -11 2 -12 -1 -11 -2 -3 -1 -1 -3 -1 -6 9 1 12 -2 11 0 23 2 22 0 12 1 6 0 9 0 5 -1 3 -2 2 -3 1 -3 0 -13 0 -8 0 -13 0 -9 4 0 1 1 2 1 1 1 1 3 1 12zm-123 -169l0 0 1 1 0 -1 1 -1 -1 -1 -1 0 -1 1 1 1zm3 -20l0 0 -1 0 0 0 -1 1 1 2 0 0 1 0 0 -2 0 -1zm0 41l0 0 -1 1 -1 1 0 1 1 0 0 -1 1 -2zm6 -50l0 0 1 1 1 -1 1 -1 0 -1 -1 0 -2 1 0 1zm4 17l0 0 0 2 0 3 -1 0 0 1 1 1 1 -1 1 -1 0 0 2 0 1 0 0 -2 1 -1 -1 -1 -1 1 -1 -1 -1 0 -1 -1 -1 0zm1 -13l0 0 0 2 3 2 0 1 1 2 1 1 1 0 1 -1 -1 -1 -1 -2 -2 -2 -2 -1 1 -1 -1 -2 -1 2zm4 190l0 0 -1 -2 0 0 -1 0 1 -4 0 -1 -1 0 1 -3 -1 -1 0 -1 -1 4 0 2 0 1 0 2 -1 3 0 0 3 0 1 0 0 0zm-4 -207l0 0 1 1 1 0 0 -1 0 0 -1 -1 -1 0 0 1zm3 26l0 0 -1 0 0 0 -1 1 1 1 0 0 1 0 0 -1 0 -1zm1 -11l0 0 3 2 2 -2 1 0 -1 -1 -1 0 -1 1 -2 0 -1 0zm7 149l0 0 -2 0 -1 1 2 1 1 0 0 -2zm1 -143l0 0 0 0 1 1 0 0 0 -1 0 -1 -1 0 0 1zm1 -10l0 0 0 1 1 0 0 0 0 -1 0 0 -1 0 0 0 0 0zm5 104l0 0 1 -2 1 -2 -1 0 0 0 -1 1 0 3zm3 18l0 0 -1 1 0 2 1 1 1 1 0 1 1 -2 0 -2 0 0 0 0 1 -2 -1 0 -2 0zm3 62l0 0 -3 0 0 1 0 1 0 1 1 0 1 0 1 0 1 -1 0 -1 0 -1 -1 0zm2 -15l0 0 0 0 0 2 0 2 1 0 0 -1 1 0 1 -1 1 -1 0 -1 1 0 0 -1 -2 -1 0 0 -1 0 -1 0 0 -1 -1 1 0 1 0 1zm0 32l0 0 3 2 2 -1 1 -1 0 -2 0 -2 -5 -3 0 2 0 1 0 2 -1 1 0 1zm1 -65l0 0 1 1 2 1 1 1 1 2 1 2 1 0 0 -1 -1 -3 -2 -2 -1 0 0 -2 0 -1 -1 -1 -1 0 0 1 -1 2zm7 -5l0 0 0 0 1 0 0 -1 0 -1 0 0 -1 0 0 1 0 1zm4 39l0 0 1 0 0 1 0 -1 1 0 -1 -1 0 1 -1 0zm5 40l0 0 3 0 1 1 1 0 0 -1 -1 -1 -2 -1 -2 2zm1 -50l0 0 1 0 0 0 0 0 -1 0zm10 41l0 0 1 0 0 1 1 1 2 -1 -1 -2 -1 -1 -2 0 0 2zm36 -188l0 0 3 -1 2 -4 1 -3 0 -1 2 -14 1 -13 1 -12 2 0 1 0 3 2 2 2 0 3 1 12 -1 13 0 13 -2 8 0 1 -2 3 -1 0 -2 1 -7 1 -9 1 -4 2 -1 1 -1 2 0 18 1 14 1 29 -1 14 0 14 -1 14 0 15 0 3 -3 0 -6 -1 -1 -10 0 -14 0 -14 1 -14 0 -14 1 -15 -2 -28 0 -1 0 -23 8 -1 8 -1 1 0 1 -1 3 -1z"/>
  <path class="fil0" d="M408 1013l-11 -6 -9 -7 -9 -9 -7 -10 -9 -10 -7 -10 -4 -13 -4 -12 -3 -13 -2 -12 -2 -14 0 -13 0 -13 2 -14 2 -13 4 -12 4 -15 4 -10 8 -14 5 -8 10 -9 9 -7 10 -8 9 -6 12 -6 9 -3 13 -3 10 -2 12 -2 11 -1 10 0 13 2 12 2 11 3 10 3 12 5 11 7 9 7 10 10 7 8 7 12 5 11 6 12 5 11 3 14 2 12 1 14 1 13 -2 14 -2 12 -1 14 -2 13 -5 13 -12 23 -6 10 -9 10 -8 8 -10 7 -10 7 -11 4 -11 4 -11 3 -12 4 -11 0 -12 0 -12 0 -11 -2 -9 -2 -24 -8 -11 -5zm-40 -72l0 0 -1 0 -1 -1 0 1 0 1 0 0 1 0 1 0 0 -1zm4 -12l0 0 -1 -2 0 0 -1 -1 1 2 1 1zm17 15l0 0 0 -1 -1 -1 -1 -1 0 -2 -1 -1 -1 -1 -2 1 0 2 -1 1 1 2 2 1 2 0 1 0 1 0zm-3 -54l0 0 1 1 1 0 0 -1 1 -1 0 -2 -1 0 -2 1 0 2zm5 32l0 0 -2 0 -1 1 0 2 1 0 1 0 1 -1 0 -2zm8 -9l0 0 -2 0 -1 1 -2 0 -1 2 0 0 2 -1 0 -1 2 0 1 -1 1 0 0 0zm-3 -111l0 0 0 0 1 0 0 0 0 -1 0 0 0 0 -1 0 0 1zm2 94l0 0 1 -1 0 -1 -1 0 0 2 0 2 1 1 0 -2 -1 -1zm10 76l0 0 0 1 2 -1 0 -1 0 -1 -1 -1 -2 0 -1 1 -2 1 -2 0 -1 0 -1 0 0 0 0 1 0 1 3 0 2 -1 1 -1 2 1zm-7 -190l0 0 1 3 2 0 1 2 3 -2 2 -2 0 0 0 0 1 0 4 -3 2 -2 1 -1 1 -1 1 -1 -3 1 -1 0 -2 2 -2 3 -2 1 0 1 -1 0 -1 0 -1 -1 1 -2 -1 -1 -1 -1 -1 2 -1 1 -2 1 -1 0zm3 13l0 0 0 1 1 0 0 -1 -1 -1 0 0 -1 0 1 1zm-1 127l0 0 1 1 1 1 0 2 2 0 0 -2 -1 -2 0 -2 -1 -1 -1 0 0 0 -1 3zm3 -121l0 0 0 0 1 -1 -1 -1 0 0 -1 1 0 0 1 1zm220 98l0 0 0 19 -3 18 -4 16 -6 17 -7 16 -9 14 -10 11 -15 14 -18 11 -10 5 -11 3 -11 3 -19 3 -15 1 -10 -1 -15 -1 -16 -4 -10 -4 -10 -6 -19 -13 15 7 12 5 18 3 15 2 10 0 15 0 19 -3 11 -3 11 -4 11 -4 17 -11 16 -14 9 -11 9 -14 8 -16 6 -17 3 -17 3 -17 0 -19 0 -13 -1 -15 -3 -17 -4 -14 -6 -15 9 15 2 5 4 10 2 10 4 12 1 2 1 3 1 15 0 13zm-216 80l0 0 0 0 -1 -1 -1 1 0 0 1 1 0 1 1 -1 0 -1zm1 -35l0 0 -1 0 -1 -1 0 1 0 1 1 1 1 0 0 -1 0 -1zm15 -117l0 0 -7 11 -3 7 -3 9 -2 8 -1 11 -1 11 1 12 2 10 2 8 3 8 5 9 6 8 11 10 11 7 11 4 14 2 14 -1 12 -3 12 -9 9 -10 8 -11 6 -14 3 -15 1 -15 -1 -13 -2 -17 -6 -14 -8 -12 -9 -10 -12 -9 -11 -3 -16 -1 -12 1 -14 4 -13 8 -10 9zm-14 -36l0 0 1 -1 0 -1 -1 -1 -1 -1 -1 0 0 2 2 2zm14 52l0 0 7 -10 10 -9 10 -6 12 -4 13 -2 12 2 8 2 12 6 1 1 -4 -1 -14 -2 -14 2 -14 5 -12 7 -10 10 -8 11 -7 15 -3 15 -2 19 1 12 2 12 -3 -4 -4 -12 -3 -16 0 -10 1 -17 3 -13 6 -13zm-4 125l0 0 -1 -1 -2 1 -1 0 -1 0 1 2 2 1 0 0 0 0 1 1 0 0 1 -2 0 -2zm2 -181l0 0 0 0 3 0 1 -2 -1 1 -1 1 -1 -1 0 0 -1 1zm9 -6l0 0 0 1 2 0 1 0 1 1 0 -3 -2 0 -1 0 -1 1zm1 -13l0 0 0 1 1 1 0 -2 -1 0 0 0 0 0zm2 17l0 0 -1 0 0 2 1 0 1 0 -1 -2zm5 193l0 0 -1 -1 -1 -1 0 2 1 1 1 0 0 -1zm5 -220l0 0 0 2 1 0 1 0 1 -1 0 -1 -2 -1 -1 0 0 1 0 0zm9 20l0 0 1 3 0 1 2 -4 -2 -2 -1 2zm2 -18l0 0 1 1 1 0 0 -1 -1 -1 -1 1 0 0zm7 13l0 0 1 -1 1 0 2 0 2 1 0 0 0 0 2 2 2 2 0 0 1 0 1 0 -1 -3 -1 0 0 -1 0 0 -2 -3 0 -1 -1 0 1 -1 0 -1 -2 -1 -2 2 1 0 1 0 1 0 -1 1 -1 1 0 0 -1 0 0 0 -2 0 0 -1 -1 -1 0 0 -1 1 0 1 0 3zm10 18l0 0 0 1 0 0 1 0 1 1 -1 -1 0 -1 -1 -1 0 -1 0 0 1 -1 -1 0 0 0 -1 0 0 2 1 1zm13 -13l0 0 1 2 2 1 1 -1 1 1 0 2 -1 1 1 2 1 1 2 0 0 -1 -1 -1 0 -1 1 -1 2 0 1 0 2 0 0 -1 2 0 1 0 0 -4 0 -1 0 -1 -1 -1 -1 2 0 2 -1 1 -1 2 -1 0 -3 0 -2 -2 -2 -2 -1 -2 -2 1 -1 1zm1 -10l0 0 1 0 0 1 1 0 1 -2 2 1 1 0 1 -1 2 -2 0 -2 -1 0 -1 2 -1 0 -1 0 -2 -2 -2 -1 1 3 -1 2 -1 1zm27 12l0 0 1 1 1 0 0 1 1 0 1 0 1 0 1 -1 0 0 -1 -1 -2 0 -1 0 -1 -1 -1 1zm5 5l0 0 -1 0 -1 0 1 2 1 0 1 0 0 0 0 -2 -1 0zm3 198l0 0 -1 -1 -1 1 -1 0 2 1 1 0 0 -1zm-2 -184l0 0 0 1 0 0 0 1 1 -1 0 0 -1 -1zm4 1l0 0 1 0 0 -2 0 0 -1 0 0 1 0 1zm8 182l0 0 -3 -2 -3 0 -1 1 0 1 3 0 4 0zm4 -23l0 0 1 -2 -1 -1 0 -1 -1 1 -1 1 0 2 2 0zm0 -163l0 0 1 1 1 2 2 0 1 -2 -2 -2 -3 1zm1 176l0 0 0 -1 0 -1 0 -1 -1 0 0 1 0 1 0 0 1 1zm3 6l0 0 0 -1 -1 0 0 -1 -1 1 -1 1 0 1 1 0 0 0 1 0 0 -1 1 0zm-1 -15l0 0 2 -1 1 -1 0 -2 -1 0 -2 0 -1 1 0 2 1 1zm0 -180l0 0 1 1 1 0 2 0 1 1 0 -3 0 -1 -2 -1 -2 1 -1 2zm4 191l0 0 2 -1 0 -3 0 -4 0 -3 -1 -2 0 0 0 1 0 0 -1 1 -2 3 -1 5 1 3 2 0zm3 -175l0 0 -2 0 0 2 1 -1 1 -1zm-2 155l0 0 0 1 1 1 1 0 1 -1 0 -2 0 -2 1 -3 -1 0 -3 5 0 1zm1 -144l0 0 -1 0 0 0 0 2 1 0 1 1 1 -1 0 -1 -2 -1zm0 -31l0 0 0 1 2 1 2 0 -1 -2 -2 -1 -1 1zm7 153l0 0 -1 1 -2 -1 -2 0 -1 2 -1 2 0 0 1 1 0 0 -1 0 0 1 0 1 2 -1 0 0 0 1 1 -1 0 -1 4 -3 1 0 1 0 1 1 2 2 1 4 2 3 0 4 0 1 2 0 0 0 3 -2 -1 -4 0 -2 -2 1 -2 -2 2 -3 2 -2 0 -1 -1 -2 0 -1 -1 0 0 0 -1 -1 -1 1 0 0 0 0 0 2 0 1 -2 0 -2 -1 -2 0 -2 -1zm-4 49l0 0 -2 -2 0 1 -1 1 1 2 2 1 0 -3zm10 -16l0 0 -3 3 0 0 -2 3 -2 1 0 0 -1 0 0 1 -1 0 -3 2 3 0 2 -1 0 0 0 0 1 -1 2 -1 1 -1 1 -1 1 0 0 0 1 -5zm-3 -22l0 0 -1 -2 -2 -1 -2 0 0 0 -1 1 0 0 -1 0 0 1 -1 3 2 0 2 -1 1 0 1 0 0 0 1 0 0 -1 1 0zm1 8l0 0 -3 -2 -4 3 -1 1 0 0 0 3 2 1 3 -4 3 -2zm-4 7l0 0 -2 3 -2 3 0 0 0 0 3 0 0 -2 0 -2 2 0 2 0 -3 -2zm-3 -170l0 0 -1 1 0 2 1 1 1 -1 0 -1 0 0 1 -1 0 -1 -2 0zm6 191l0 0 -1 -3 -2 2 0 2 2 1 1 -1 0 -1zm-3 -84l0 0 1 1 1 -1 0 -1 1 0 0 0 -1 0 0 0 -1 0 0 1 -1 0 0 0zm3 -81l0 0 3 -2 0 -2 -2 1 -1 3zm2 -14l0 0 1 3 2 1 0 -2 0 -2 -1 -1 -1 -1 -1 1 0 1zm1 128l0 0 0 0 -1 0 0 1 0 0 1 0 0 0 1 0 0 -1 -1 0zm1 -90l0 0 2 0 0 -2 -1 -1 -1 0 -1 1 1 2zm2 -32l0 0 -1 1 -1 2 0 0 -1 0 3 2 2 1 0 2 2 1 0 0 0 0 0 -2 -1 -1 0 -1 0 0 -1 -3 -2 -2zm-1 18l0 0 1 1 -1 -2 0 0 -1 0 0 0 1 1zm0 129l0 0 1 1 1 -1 1 -1 -1 -1 -1 0 0 0 -2 1 0 1 1 0zm0 -26l0 0 0 1 1 0 1 1 0 -1 0 -2 -1 -2 -1 0 0 2 0 1zm5 39l0 0 -3 0 -1 2 0 1 1 1 1 -2 2 -2zm-2 -55l0 0 1 -2 0 -3 0 0 -1 0 0 -1 -1 1 -1 0 0 1 1 2 1 2zm0 48l0 0 -1 1 0 1 0 1 0 0 2 -2 0 -1 -1 0zm2 -62l0 0 0 -1 0 0 -1 -2 -1 0 0 2 1 1 1 0zm0 -24l0 0 -1 -2 0 0 -1 0 1 2 1 3 0 -3zm1 88l0 0 0 3 1 4 1 0 1 -2 2 0 0 -1 1 0 0 -1 1 -1 1 -2 0 -1 0 -1 -1 2 -1 1 -1 1 -2 -2 -1 0 -1 0 -1 0zm1 -15l0 0 0 3 -1 2 0 1 0 1 2 1 0 0 0 0 1 0 1 -1 0 -2 -2 0 0 -2 0 -2 1 -4 -2 -3 0 0 -1 1 0 3 1 2zm0 -116l0 0 1 1 0 -2 0 -1 -1 0 0 0 0 2zm1 -17l0 0 0 0 1 1 1 0 2 0 1 0 1 -2 -1 -2 -1 0 -1 1 -2 1 -1 1zm6 93l0 0 -1 1 -1 0 -1 -1 0 -1 -1 0 0 3 1 2 5 -1 2 0 1 1 2 0 2 -2 -1 -2 -8 0zm-2 -81l0 0 -1 0 -1 0 1 1 1 0 0 0 0 -1zm3 119l0 0 0 -1 0 0 -1 -1 -1 -1 -2 1 -1 1 0 0 1 2 2 0 0 0 1 0 1 2 2 -1 0 -2 -1 0 -1 0zm-3 -63l0 0 -1 1 0 1 0 1 0 0 1 0 1 0 0 -1 0 0 0 -1 -1 -1zm5 72l0 0 0 -3 -1 -1 -2 1 -2 1 -1 2 0 3 2 0 1 1 1 1 1 1 1 0 0 -1 0 -5zm-2 -55l0 0 -1 -5 0 -1 -1 0 -1 2 1 3 -1 1 0 1 0 2 2 -2 1 -1zm2 34l0 0 -2 0 0 0 -1 1 0 1 1 1 0 1 1 0 1 -2 0 0 0 -2zm-3 27l0 0 0 0 0 0zm11 -37l0 0 -2 4 -1 0 -1 0 -2 0 -2 0 2 3 1 4 -1 2 0 0 0 1 2 0 0 -2 1 -2 1 -1 2 0 1 -2 0 -2 1 -2 0 -2 -1 -1 0 0 -1 0zm-8 -84l0 0 1 1 0 0 1 -1 0 -1 -1 0 0 0 -1 1 0 0zm3 81l0 0 0 0 1 1 1 0 0 -1 0 0 0 -3 -2 -2 0 1 -1 1 1 3zm0 -76l0 0 0 1 1 0 0 -1 0 -1 -1 0 0 0 0 0 0 1zm1 49l0 0 1 1 0 0 1 0 0 -1 0 -1 -1 0 -1 0 0 1zm5 -57l0 0 1 1 0 0 1 -1 0 0 -1 -1 0 0 0 1 -1 0z"/>
  <path class="fil0" d="M849 745l2 1 1 1 1 4 1 16 0 16 0 16 -1 16 1 16 1 5 -1 11 -1 2 -1 2 -1 1 -2 0 -5 1 -7 0 -12 -2 -12 2 -5 1 -7 -1 -2 -1 -1 -1 0 -2 -1 -2 -2 -14 -1 -14 -1 -3 -1 -2 -2 -2 -2 -1 -5 1 -5 0 -4 2 -1 1 -1 4 1 13 0 14 0 27 0 14 0 14 -1 13 0 14 0 13 1 14 -1 4 1 3 11 0 12 -1 3 0 1 3 1 5 0 8 -2 13 0 14 1 13 0 4 -2 1 -6 1 -6 0 -12 -1 -12 0 -12 0 -48 2 -13 1 -5 0 -7 -1 -2 -3 0 -4 0 -13 0 -12 -1 -13 0 -5 1 -7 1 -3 1 -1 3 -1 7 -1 4 0 11 0 1 -2 0 -4 0 -14 0 -14 1 -13 1 -14 0 -68 -1 -14 0 -3 -1 -1 -3 -2 -2 -1 -6 1 -6 1 -3 1 -1 3 0 15 0 9 -1 6 -1 3 -1 2 -2 1 -2 1 -6 1 -6 -1 -12 -1 -12 1 -11 -2 -3 0 -1 -1 -1 -2 0 -2 -1 -16 1 -16 -1 -16 -1 -16 0 -16 2 -16 0 -2 1 -2 2 0 2 -1 12 -1 12 0 12 0 13 -1 12 1 12 1 12 0 13 -1 37 1 12 0 12 1 13 0 24 -1 13 -1 6 -1 6 1zm-168 129l0 0 6 0 6 0 3 -1 1 -1 0 -51 -4 0 -3 1 0 10 0 9 -1 6 0 4 0 3 -1 3 -1 2 -1 2 -2 1 -2 0 -1 0 -2 1 -2 0 -7 1 -19 -2 -10 0 1 6 0 3 1 1 1 1 2 1 12 1 11 -1 12 0zm135 109l0 0 -3 -1 -5 1 -1 8 0 13 1 13 0 8 -1 3 -2 3 -3 0 -3 0 -7 2 -6 -1 -12 -1 -12 0 -12 0 -48 2 -8 1 0 9 2 2 6 1 6 0 12 -1 48 -2 12 0 12 0 13 1 6 1 5 -2 2 -1 0 -4 0 -13 -1 -14 2 -13 0 -8 -1 -5 -2 -2zm-115 22l0 0 0 1 2 1 1 -1 -1 0 -2 -1zm17 -9l0 0 -1 0 0 0 0 2 1 1 2 0 0 -2 1 -1 1 0 -2 -1 -2 1zm1 -169l0 0 1 0 1 -2 0 0 -1 -1 -1 0 -1 1 0 2 1 0zm6 57l0 0 0 0 1 -1 5 0 3 3 4 1 2 5 2 -2 1 -4 -2 -2 -2 -2 -1 2 -3 0 0 -4 1 -3 -2 -2 -2 -2 -2 1 0 2 2 1 0 2 -1 1 -3 1 -2 1 -2 0 -1 2 -3 1 -2 1 1 5 2 6 2 -4 0 -3 1 -3 1 -3zm-4 99l0 0 0 0 -1 -1 0 0 -1 0 0 1 0 0 1 0 1 0zm8 -3l0 0 -2 2 -1 2 0 2 -1 0 -1 0 0 1 0 1 1 1 1 -1 1 -1 0 -1 1 -2 1 -1 1 -2 0 -1 -1 0zm0 -83l0 0 2 -3 1 -3 -2 -2 -4 2 -1 5 1 3 3 -2zm-3 22l0 0 0 2 0 1 1 2 1 -2 0 -1 0 -1 -1 -1 -1 0zm1 -43l0 0 1 0 0 -3 -1 -1 -1 3 0 0 1 1zm1 -27l0 0 1 -2 0 -2 0 -2 -1 -1 -2 2 0 1 1 2 1 2zm1 18l0 0 -1 0 0 2 0 2 2 0 1 0 0 -1 0 -2 -2 -1zm3 42l0 0 1 -1 0 -2 -1 0 -1 -3 -2 -2 0 0 1 8 1 0 1 0zm-1 -77l0 0 1 0 -1 -3 -1 0 0 1 0 0 1 2zm2 84l0 0 -1 0 -1 3 1 1 0 2 2 -2 1 -2 -1 -1 -1 -1zm2 -146l0 0 2 0 -1 -1 -1 -1 -1 -1 -1 1 0 2 2 0zm3 126l0 0 -4 1 -1 6 0 1 0 0 2 3 2 -1 0 -2 0 -1 0 -4 1 -3zm8 26l0 0 0 -2 -6 -4 -5 -2 3 6 3 5 3 0 2 -3zm-10 -76l0 0 2 2 2 -1 3 -1 2 1 2 0 2 0 1 -2 0 -1 -2 -1 -7 1 -1 0 -1 1 -2 -2 -1 -1 0 4zm3 80l0 0 -1 0 0 1 0 1 0 0 1 0 1 0 -1 -1 0 -1zm1 -117l0 0 -1 -3 0 0 -1 -1 0 3 1 3 1 -2zm-1 26l0 0 -1 3 5 -2 0 -5 0 -2 -1 0 -2 2 1 3 -2 1zm1 72l0 0 2 -2 1 -1 -3 1 1 8 2 -3 -3 -3zm2 -148l0 0 2 1 2 -2 -2 0 -1 0 -1 -1 -1 0 0 1 1 1zm8 132l0 0 1 -1 0 -2 -1 -1 -1 0 -2 -1 0 -2 -2 -3 -3 -2 -1 0 0 2 2 2 2 1 1 3 1 2 1 2 2 0zm-6 1l0 0 -2 0 -1 2 1 1 0 0 2 -1 0 -2zm-1 -73l0 0 -1 1 0 1 1 1 0 0 1 -1 1 -1 -1 -1 -1 0zm0 123l0 0 1 1 1 0 0 -2 2 -4 -3 2 -1 3zm2 9l0 0 0 -1 1 -1 -1 -1 -1 0 0 0 0 1 0 1 1 1zm0 48l0 0 -1 1 0 1 1 1 0 -1 1 -1 -1 -1 0 0zm1 -71l0 0 -1 1 0 1 1 1 1 -1 0 -1 -1 -1 0 0zm3 -57l0 0 0 -2 0 -1 -3 0 0 1 0 2 2 1 1 -1zm-1 10l0 0 2 -2 0 0 1 0 2 1 1 -2 -1 -2 -2 1 0 0 -1 0 -2 -1 -2 2 0 1 0 1 2 1zm1 -25l0 0 0 -1 0 -2 -1 -1 -2 2 1 1 1 1 1 0zm4 4l0 0 -2 0 -1 0 -2 1 -2 1 3 2 3 4 -1 2 1 1 1 -1 0 -2 1 -2 0 -2 2 -1 0 -2 0 -2 -1 -2 -2 0 0 3zm-3 54l0 0 2 -5 -3 -4 -1 4 1 5 -1 3 0 3 2 -3 0 -1 0 -1 0 -1zm0 -18l0 0 -1 0 0 3 1 1 1 -1 0 -2 -1 -1zm1 -63l0 0 2 0 0 -1 0 -1 -1 0 -1 0 0 1 0 1zm4 143l0 0 0 -2 -1 1 -2 2 -1 2 0 1 0 1 1 0 1 -1 2 -1 1 1 1 -2 0 -1 -2 -1zm-3 -52l0 0 0 1 3 0 1 -2 -2 -2 -2 2 0 1zm2 -34l0 0 2 -1 3 0 1 1 1 -1 0 -1 -1 -1 -1 -3 -3 -3 -2 0 0 2 -2 2 1 3 1 2zm6 4l0 0 -1 -3 0 3 -2 0 -2 0 -3 2 3 2 3 2 1 -1 0 -3 1 -2zm-5 12l0 0 0 -3 0 -3 -2 2 1 3 1 1 0 0zm1 8l0 0 -2 0 0 3 2 0 1 -1 0 -2 -1 0zm5 -145l0 0 -1 -3 0 -2 0 -1 0 -1 -1 0 -2 1 0 0 0 0 1 4 3 2zm-2 28l0 0 1 0 1 -1 -1 0 -1 1zm4 206l0 0 0 -1 0 -1 0 0 -1 0 -1 1 -1 0 -1 1 1 1 1 -1 1 0 0 0 1 0zm-2 -42l0 0 1 0 1 0 0 0 1 -1 0 -1 -1 0 0 0 -1 0 -1 1 0 1zm3 25l0 0 -1 1 0 1 0 0 1 1 1 1 0 -1 0 -1 0 -2 -1 0zm2 -179l0 0 -1 0 0 1 0 1 1 0 1 -1 -1 -1 0 0zm1 -31l0 0 -1 -1 -1 1 0 1 0 1 1 1 1 -1 1 -1 -1 -1zm2 193l0 0 -1 1 1 0 1 -1 -1 0zm1 26l0 0 1 2 0 4 1 0 1 -2 0 0 0 -3 -3 -1zm3 -232l0 0 2 0 2 0 1 -1 -1 -1 -2 1 0 0 -1 -1 -1 -1 -1 0 0 2 1 1zm5 26l0 0 -2 0 -2 -1 -1 1 0 2 1 1 0 2 2 0 2 -2 1 -2 1 0 0 -1 -1 -1 -1 1zm3 164l0 0 3 0 5 -1 0 -3 0 -14 1 -13 0 -14 1 -14 0 -27 -1 -11 0 -2 -1 -5 -2 -15 -1 -13 -2 0 -4 1 1 10 0 13 0 28 0 28 -1 13 0 14 0 13 1 12zm6 48l0 0 -2 0 -1 2 1 0 1 -1 1 1 1 0 0 -1 -1 -1zm6 -230l0 0 0 -1 0 -2 -2 2 0 1 2 0zm1 220l0 0 -3 0 1 2 1 0 1 1 1 -1 -1 -2zm16 -201l0 0 -2 0 -1 1 -1 2 0 2 -2 0 -2 2 0 0 1 1 2 -1 2 -2 0 -2 2 0 1 0 0 -1 0 -1 0 -1zm4 8l0 0 -2 0 0 1 0 0 1 1 1 0 0 -1 0 -1zm58 54l0 0 -1 -16 0 -16 1 -16 0 -16 -1 -16 -1 -4 -1 -1 -2 -1 -5 -1 0 2 0 16 0 16 -1 16 1 15 1 5 -1 12 -1 4 0 1 -1 1 0 2 -2 3 -4 2 -1 1 -1 0 -2 1 -6 0 -8 0 -11 -1 -10 1 1 5 0 2 1 2 1 1 2 0 7 1 5 0 12 -2 11 1 7 1 5 -1 1 0 2 -1 1 -2 0 -3 1 -9 0 -5zm-54 -70l0 0 -1 1 -1 1 -1 1 1 1 3 -1 0 0 1 1 1 -1 0 -2 -1 -1 -2 0zm20 -3l0 0 -1 0 1 2 1 1 1 -1 0 -1 -2 -1z"/>
  <path class="fil0" d="M945 1013l-11 -6 -10 -7 -8 -9 -8 -10 -9 -10 -6 -10 -5 -13 -3 -12 -4 -13 -2 -12 -1 -14 -1 -13 1 -13 1 -14 3 -13 3 -12 5 -15 4 -10 7 -14 6 -8 10 -9 8 -7 10 -8 10 -6 11 -6 10 -3 13 -3 10 -2 11 -2 12 -1 9 0 14 2 11 2 11 3 11 3 11 5 11 7 9 7 10 10 7 8 8 12 5 11 6 12 5 11 3 14 1 12 2 14 0 13 -1 14 -2 12 -1 14 -2 13 -5 13 -12 23 -7 10 -8 10 -9 8 -10 7 -10 7 -11 4 -11 4 -11 3 -11 4 -11 0 -12 0 -12 0 -12 -2 -9 -2 -23 -8 -11 -5zm-41 -72l0 0 -1 0 0 -1 -1 1 0 1 1 0 1 0 0 0 0 -1zm4 -12l0 0 0 -2 -1 0 -1 -1 1 2 1 1zm18 15l0 0 -1 -1 -1 -1 0 -1 -1 -2 0 -1 -2 -1 -1 1 -1 2 0 1 0 2 3 1 2 0 1 0 1 0zm-3 -54l0 0 0 1 2 0 0 -1 0 -1 1 -2 -2 0 -1 1 0 2zm5 32l0 0 -2 0 -1 1 0 2 1 0 1 0 1 -1 0 -2zm8 -9l0 0 -2 0 -2 1 -1 0 -1 2 0 0 1 -1 1 -1 2 0 1 -1 1 0 0 0zm-3 -111l0 0 0 0 1 0 0 0 0 -1 0 0 -1 0 0 0 0 1zm2 94l0 0 1 -1 0 -1 -1 0 -1 2 0 2 2 1 0 -2 -1 -1zm9 76l0 0 1 1 1 -1 1 -1 -1 -1 -1 -1 -1 0 -2 1 -1 1 -2 0 -1 0 -1 0 0 0 0 1 0 1 3 0 2 -1 1 -1 1 1zm-6 -190l0 0 1 3 1 0 2 2 3 -2 1 -2 1 0 0 0 1 0 4 -3 1 -2 1 -1 2 -1 1 -1 -4 1 0 0 -2 2 -2 3 -2 1 -1 1 0 0 -1 0 -1 -1 0 -2 -1 -1 -1 -1 0 2 -2 1 -2 1 0 0zm2 13l0 0 1 1 0 0 0 -1 0 -1 0 0 -1 0 0 1zm0 127l0 0 1 1 1 1 0 2 1 0 1 -2 -2 -2 0 -2 -1 -1 0 0 -1 0 0 3zm2 -121l0 0 1 0 0 -1 0 -1 -1 0 0 1 0 0 0 1zm221 98l0 0 -1 19 -2 18 -4 16 -6 17 -8 16 -9 14 -9 11 -15 14 -18 11 -11 5 -10 3 -12 3 -18 3 -15 1 -10 -1 -16 -1 -16 -4 -10 -4 -10 -6 -18 -13 14 7 13 5 17 3 16 2 10 0 15 0 19 -3 11 -3 10 -4 11 -4 18 -11 15 -14 10 -11 9 -14 7 -16 6 -17 4 -17 2 -17 1 -19 0 -13 -2 -15 -3 -17 -3 -14 -6 -15 8 15 3 5 3 10 3 10 4 12 1 2 0 3 1 15 1 13zm-216 80l0 0 -1 0 0 -1 -1 1 0 0 0 1 1 1 1 -1 0 -1zm1 -35l0 0 -1 0 -1 -1 -1 1 0 1 1 1 1 0 1 -1 0 -1zm15 -117l0 0 -7 11 -3 7 -3 9 -2 8 -2 11 0 11 1 12 1 10 2 8 4 8 5 9 6 8 10 10 11 7 12 4 14 2 14 -1 12 -3 12 -9 9 -10 7 -11 6 -14 3 -15 1 -15 0 -13 -3 -17 -6 -14 -8 -12 -8 -10 -13 -9 -10 -3 -16 -1 -13 1 -14 4 -13 8 -9 9zm-14 -36l0 0 0 -1 1 -1 -1 -1 -1 -1 -1 0 0 2 2 2zm14 52l0 0 7 -10 9 -9 10 -6 13 -4 12 -2 12 2 9 2 12 6 1 1 -5 -1 -13 -2 -14 2 -15 5 -11 7 -11 10 -8 11 -6 15 -4 15 -1 19 0 12 2 12 -2 -4 -4 -12 -3 -16 0 -10 1 -17 3 -13 6 -13zm-4 125l0 0 -2 -1 -1 1 -1 0 -1 0 0 2 2 1 0 0 1 0 0 1 1 0 1 -2 0 -2zm2 -181l0 0 0 0 3 0 1 -2 -1 1 -1 1 -1 -1 0 0 -1 1zm8 -6l0 0 1 1 1 0 2 0 1 1 -1 -3 -2 0 -1 0 -1 1zm1 -13l0 0 1 1 1 1 0 -2 -1 0 -1 0 0 0zm2 17l0 0 -1 0 0 2 1 0 1 0 -1 -2zm5 193l0 0 0 -1 -2 -1 0 2 1 1 1 0 0 -1zm5 -220l0 0 1 2 1 0 1 0 0 -1 0 -1 -1 -1 -2 0 0 1 0 0zm10 20l0 0 0 3 1 1 1 -4 -2 -2 0 2zm2 -18l0 0 0 1 2 0 -1 -1 -1 -1 0 1 0 0zm6 13l0 0 1 -1 1 0 2 0 2 1 0 0 1 0 1 2 3 2 0 0 1 0 0 0 -1 -3 0 0 0 -1 0 0 -2 -3 -1 -1 0 0 0 -1 0 -1 -2 -1 -1 2 1 0 1 0 0 0 -1 1 -1 1 0 0 -1 0 0 0 -1 0 -1 -1 0 -1 -1 0 0 1 0 1 -1 3zm11 18l0 0 0 1 0 0 1 0 0 1 0 -1 0 -1 -1 -1 0 -1 0 0 0 -1 0 0 0 0 -1 0 0 2 1 1zm13 -13l0 0 1 2 1 1 1 -1 2 1 0 2 -1 1 1 2 1 1 1 0 1 -1 -1 -1 0 -1 1 -1 1 0 2 0 1 0 1 -1 1 0 2 0 0 -4 0 -1 -1 -1 0 -1 -1 2 -1 2 0 1 -1 2 -1 0 -3 0 -2 -2 -2 -2 -2 -2 -1 1 -1 1zm1 -10l0 0 0 0 1 1 0 0 2 -2 2 1 1 0 1 -1 1 -2 1 -2 -1 0 -1 2 -2 0 -1 0 -1 -2 -2 -1 1 3 -2 2 0 1zm27 12l0 0 0 1 2 0 0 1 0 0 2 0 1 0 0 -1 0 0 -1 -1 -1 0 -1 0 -1 -1 -1 1zm5 5l0 0 -1 0 -1 0 0 2 1 0 1 0 1 0 0 -2 -1 0zm2 198l0 0 0 -1 -1 1 -1 0 1 1 1 0 0 -1zm-1 -184l0 0 0 1 0 0 0 1 0 -1 1 0 -1 -1zm4 1l0 0 0 0 1 -2 0 0 -1 0 0 1 0 1zm7 182l0 0 -3 -2 -2 0 -1 1 0 1 2 0 4 0zm4 -23l0 0 1 -2 0 -1 -1 -1 -1 1 0 1 -1 2 2 0zm0 -163l0 0 2 1 0 2 3 0 0 -2 -2 -2 -3 1zm1 176l0 0 1 -1 0 -1 -1 -1 0 0 -1 1 0 1 1 0 0 1zm3 6l0 0 0 -1 0 0 -1 -1 -1 1 0 1 0 1 0 0 0 0 1 0 1 -1 0 0zm0 -15l0 0 2 -1 0 -1 1 -2 -2 0 -1 0 -1 1 -1 2 2 1zm-1 -180l0 0 1 1 2 0 1 0 1 1 0 -3 0 -1 -1 -1 -2 1 -2 2zm5 191l0 0 2 -1 -1 -3 0 -4 0 -3 0 -2 -1 0 0 1 0 0 -1 1 -1 3 -2 5 1 3 3 0zm2 -175l0 0 -2 0 1 2 0 -1 1 -1zm-2 155l0 0 1 1 0 1 1 0 1 -1 0 -2 1 -2 0 -3 -1 0 -2 5 -1 1zm2 -144l0 0 -1 0 -1 0 0 2 2 0 1 1 0 -1 0 -1 -1 -1zm-1 -31l0 0 1 1 1 1 2 0 -1 -2 -2 -1 -1 1zm8 153l0 0 -2 1 -2 -1 -2 0 -1 2 -1 2 1 0 0 1 0 0 0 0 0 1 -1 1 2 -1 0 0 1 1 0 -1 0 -1 4 -3 1 0 1 0 2 1 2 2 0 4 3 3 0 4 -1 1 2 0 1 0 2 -2 0 -4 -1 -2 -2 1 -1 -2 1 -3 2 -2 0 -1 0 -2 -1 -1 0 0 -1 0 -1 -1 -1 1 0 0 1 0 0 2 -1 1 -1 0 -2 -1 -3 0 -1 -1zm-4 49l0 0 -2 -2 -1 1 -1 1 1 2 3 1 0 -3zm10 -16l0 0 -4 3 0 0 -2 3 -1 1 -1 0 0 0 -1 1 -1 0 -2 2 2 0 2 -1 0 0 0 0 1 -1 2 -1 2 -1 1 -1 0 0 0 0 2 -5zm-4 -22l0 0 -1 -2 -2 -1 -1 0 -1 0 -1 1 0 0 0 0 -1 1 -1 3 3 0 1 -1 1 0 1 0 1 0 0 0 1 -1 0 0zm2 8l0 0 -4 -2 -4 3 0 1 0 0 -1 3 2 1 4 -4 3 -2zm-5 7l0 0 -1 3 -3 3 0 0 1 0 2 0 0 -2 1 -2 1 0 2 0 -3 -2zm-2 -170l0 0 -1 1 0 2 1 1 0 -1 0 -1 1 0 0 -1 0 -1 -1 0zm6 191l0 0 -2 -3 -2 2 0 2 2 1 1 -1 1 -1zm-3 -84l0 0 1 1 1 -1 0 -1 0 0 0 0 0 0 -1 0 -1 0 0 1 0 0 0 0zm3 -81l0 0 2 -2 1 -2 -3 1 0 3zm1 -14l0 0 1 3 2 1 0 -2 0 -2 0 -1 -2 -1 -1 1 0 1zm1 128l0 0 0 0 -1 0 0 1 1 0 0 0 0 0 1 0 0 -1 -1 0zm1 -90l0 0 2 0 0 -2 -1 -1 -1 0 -1 1 1 2zm3 -32l0 0 -2 1 0 2 -1 0 0 0 2 2 2 1 1 2 1 1 0 0 1 0 0 -2 -2 -1 0 -1 0 0 0 -3 -2 -2zm-2 18l0 0 1 1 0 -2 -1 0 -1 0 0 0 1 1zm1 129l0 0 0 1 2 -1 0 -1 -1 -1 0 0 -1 0 -1 1 0 1 1 0zm-1 -26l0 0 0 1 1 0 1 1 1 -1 0 -2 -1 -2 -1 0 -1 2 0 1zm5 39l0 0 -2 0 -2 2 0 1 1 1 1 -2 2 -2zm-2 -55l0 0 1 -2 0 -3 0 0 0 0 -1 -1 -1 1 0 0 0 1 0 2 1 2zm0 48l0 0 0 1 -1 1 0 1 1 0 1 -2 0 -1 -1 0zm2 -62l0 0 0 -1 0 0 -1 -2 -1 0 0 2 1 1 1 0zm1 -24l0 0 -1 -2 -1 0 0 0 0 2 1 3 1 -3zm0 88l0 0 1 3 0 4 2 0 1 -2 1 0 1 -1 0 0 1 -1 1 -1 0 -2 1 -1 0 -1 -1 2 -1 1 -1 1 -3 -2 -1 0 -1 0 -1 0zm1 -15l0 0 0 3 -1 2 1 1 0 1 1 1 0 0 1 0 0 0 1 -1 0 -2 -1 0 -1 -2 1 -2 0 -4 -2 -3 0 0 -1 1 0 3 1 2zm0 -116l0 0 1 1 1 -2 -1 -1 0 0 -1 0 0 2zm1 -17l0 0 0 0 2 1 1 0 1 0 2 0 1 -2 -1 -2 -2 0 0 1 -2 1 -2 1zm7 93l0 0 -1 1 -1 0 -1 -1 -1 -1 -1 0 0 3 2 2 5 -1 1 0 2 1 2 0 1 -2 0 -2 -8 0zm-2 -81l0 0 -1 0 -1 0 1 1 1 0 0 0 0 -1zm3 119l0 0 0 -1 -1 0 -1 -1 0 -1 -2 1 -1 1 0 0 1 2 1 0 1 0 1 0 1 2 1 -1 0 -2 0 0 -1 0zm-3 -63l0 0 -1 1 0 1 0 1 0 0 0 0 1 0 0 -1 1 0 0 -1 -1 -1zm5 72l0 0 -1 -3 -1 -1 -1 1 -2 1 -1 2 0 3 2 0 1 1 1 1 0 1 2 0 0 -1 0 -5zm-2 -55l0 0 -1 -5 -1 -1 -1 0 0 2 1 3 -1 1 0 1 -1 2 2 -2 2 -1zm2 34l0 0 -2 0 -1 0 0 1 0 1 1 1 0 1 1 0 1 -2 0 0 0 -2zm-3 27l0 0 0 0 0 0zm10 -37l0 0 -1 4 -1 0 -2 0 -1 0 -2 0 2 3 1 4 -1 2 0 0 0 1 1 0 1 -2 1 -2 1 -1 1 0 2 -2 0 -2 0 -2 0 -2 0 -1 -1 0 -1 0zm-7 -84l0 0 1 1 0 0 0 -1 0 -1 0 0 -1 0 0 1 0 0zm3 81l0 0 0 0 1 1 0 0 1 -1 0 0 -1 -3 -1 -2 -1 1 0 1 1 3zm-1 -76l0 0 1 1 0 0 1 -1 0 -1 -1 0 0 0 -1 0 0 1zm2 49l0 0 0 1 1 0 1 0 0 -1 -1 -1 0 0 -1 0 0 1zm5 -57l0 0 1 1 0 0 0 -1 0 0 0 -1 -1 0 0 1 0 0z"/>
  <path class="fil0" d="M1415 1003l-1 13 1 4 -2 3 -12 1 -12 -1 -11 -1 -12 -1 -12 1 -11 1 -12 1 -12 -2 -2 -2 -1 -4 1 -16 1 -16 0 -2 -1 -2 -6 -11 -7 -11 -15 -21 -3 -3 -3 -1 -6 -1 -6 0 -3 0 -3 -1 -1 1 -1 1 -1 4 0 22 1 4 1 1 1 0 9 0 9 1 2 1 2 1 1 2 1 7 0 7 -1 11 0 11 0 11 -1 2 -1 2 -4 1 -11 1 -12 1 -12 -1 -12 -1 -23 2 -24 0 -12 0 -12 -1 -1 -2 0 -4 1 -14 0 -14 0 -14 1 -14 1 -2 3 1 9 1 10 -1 3 -1 1 -2 0 -2 1 -14 -1 -14 1 -15 0 -14 -1 -28 1 -15 1 -14 -1 -14 -1 -14 0 -5 0 -2 -1 0 -19 2 -6 -1 -2 -2 0 -4 -1 -13 0 -24 1 -13 1 -2 1 -2 3 -2 3 -1 23 2 24 0 11 0 12 0 11 0 12 0 23 -1 35 1 11 2 12 3 11 4 10 6 10 8 8 10 6 11 7 11 5 13 2 13 0 14 -1 16 -4 16 -5 14 -9 14 -10 9 -13 8 -2 2 -1 3 0 3 1 2 10 16 10 15 2 2 3 0 12 -1 11 1 4 2 1 1 0 3 1 7 0 5 0 25zm-108 -12l0 0 -2 -3 -1 -1 -2 -1 -5 -1 -1 9 0 11 0 11 -1 4 0 3 0 3 -1 2 -3 2 -3 0 -4 1 -13 0 -12 1 -13 -1 -11 -1 -23 2 -24 0 -6 0 0 5 -1 4 1 2 12 2 12 -1 24 0 24 -2 11 1 12 1 12 -1 12 -1 4 -1 1 -2 0 -2 1 -11 0 -11 1 -11 0 -6 -1 -7zm-102 -90l0 0 0 1 0 0 1 1 0 0 0 -1 0 0 -1 -1zm9 -82l0 0 1 -2 1 -1 0 -2 -1 -2 -2 1 -1 0 -1 -1 -1 0 -1 0 0 1 0 1 2 3 2 1 1 1zm-3 -8l0 0 0 -2 3 0 1 -1 1 0 -4 -4 -1 1 0 2 -1 2 1 2zm4 26l0 0 0 -2 1 -1 2 0 1 0 2 -1 -3 -2 -2 -2 1 -2 -1 -1 -1 1 0 1 -1 2 0 1 -1 1 -1 2 0 1 1 2 2 0zm-1 -44l0 0 2 1 0 -2 -2 -1 -1 1 0 1 1 0zm1 62l0 0 0 -1 -1 0 0 0 -1 0 0 1 1 0 1 0 0 0zm3 -68l0 0 0 0 -1 -2 -2 0 -1 2 2 1 2 -1zm-3 13l0 0 -1 0 0 2 1 2 1 -2 0 -2 -1 0zm0 96l0 0 -1 -2 0 2 1 1 0 -1zm6 -75l0 0 1 -1 -1 0 -1 -1 -1 1 -1 0 -1 0 -1 -1 -1 1 0 2 2 0 0 0 1 0 2 0 1 -1zm-5 128l0 0 -1 1 0 1 0 0 0 1 1 -1 0 -1 0 -1zm4 -5l0 0 -1 -1 -1 -2 -1 -2 -1 0 0 1 1 3 2 1 1 0 0 2 0 1 1 1 1 0 0 -1 0 -2 0 -1 -2 0zm5 -97l0 0 2 -1 1 2 1 1 0 -3 -1 -2 -2 1 -3 0 -1 0 -2 -1 -2 0 -1 1 0 1 1 1 4 0 3 0zm-6 -53l0 0 -1 3 2 4 0 -4 0 -3 1 -2 0 -3 -1 2 -1 2 0 0 0 1zm1 17l0 0 -1 1 -1 0 0 1 0 1 2 0 1 1 0 2 2 2 2 2 1 -1 0 0 -1 -2 -2 -1 -1 -2 -1 -2 -1 -2zm2 98l0 0 -2 0 -1 1 -1 0 0 2 1 2 2 1 0 1 1 0 1 -1 -1 -1 0 -2 1 -2 -1 -1zm-3 -102l0 0 1 -1 0 -1 -1 0 -1 0 0 2 1 1 0 -1zm0 33l0 0 2 0 -1 -2 -1 0 -1 0 0 0 0 2 1 0zm0 -11l0 0 2 0 1 -1 -1 -1 -1 -1 -1 0 0 2 0 1zm1 34l0 0 0 1 -1 0 1 1 1 0 1 -1 -1 -1 -1 0zm2 -7l0 0 0 1 1 1 1 -2 0 -2 1 0 1 -2 -4 0 0 4zm1 -72l0 0 1 -1 0 0 0 -1 -1 0 0 0 -1 0 1 1 0 1zm3 -11l0 0 -1 -1 0 0 -1 2 -1 3 2 -2 1 -2zm-3 101l0 0 0 1 0 1 0 0 1 -2 0 -2 -1 2zm0 -86l0 0 0 2 2 1 3 2 4 2 -2 -5 -3 -4 -2 0 -2 2zm1 21l0 0 0 2 1 0 1 -2 0 0 -1 0 -1 0zm1 -40l0 0 1 -1 -1 -1 0 0 -1 0 0 1 1 1zm10 55l0 0 -1 -2 0 -1 1 -1 2 0 2 -1 2 0 1 -1 2 -1 2 0 -1 -4 -1 -4 -2 2 0 3 -2 3 0 1 -1 1 -2 -1 -2 0 -3 -2 -3 -1 -2 -4 -2 1 -1 3 2 2 2 2 1 -2 2 1 0 2 -1 2 2 2 1 1 2 0 0 -1zm-8 -29l0 0 -1 2 1 3 -2 2 3 0 -1 -7zm2 159l0 0 -1 -1 0 -1 -1 2 0 2 0 0 0 1 0 1 2 0 1 -2 0 -1 -1 -1zm0 -169l0 0 1 0 0 0 0 -1 -1 0 -1 0 1 1 0 0zm1 16l0 0 0 2 0 2 -1 3 4 -1 1 -4 0 -1 -2 -2 -2 1zm2 99l0 0 -2 1 0 1 0 0 1 1 2 -1 0 -1 -1 0 0 -1zm0 -41l0 0 1 0 0 -1 -1 -1 0 0 -1 0 0 1 1 1 0 0zm0 116l0 0 -1 2 1 0 0 0 1 -1 0 -2 -1 1zm2 -182l0 0 1 0 1 -1 -1 -2 0 -1 -2 1 0 2 0 1 1 0zm0 6l0 0 0 0 0 1 0 1 2 2 1 2 0 0 0 0 0 -3 0 -2 -1 -1 -1 0 -1 0zm3 31l0 0 0 -1 0 -1 -1 -1 -1 0 -1 1 0 2 2 0 1 0zm0 -23l0 0 -1 2 -1 1 -1 3 2 1 4 -1 0 -4 -1 -3 -2 1zm0 42l0 0 0 -2 0 -1 -1 -1 -1 1 0 1 0 2 1 1 1 -1zm0 17l0 0 -2 1 0 4 2 -1 0 -1 1 -2 -1 -1zm1 -42l0 0 -1 1 0 0 1 1 1 -1 0 -1 -1 0 0 0zm0 103l0 0 0 0 0 2 1 0 1 -1 -1 -1 -1 0zm6 -34l0 0 -1 -2 -1 0 -3 1 -1 4 2 -2 4 0 0 -1zm-4 -102l0 0 0 0 1 -1 -2 -2 0 0 -1 1 0 2 2 0zm1 71l0 0 -1 1 0 1 0 0 1 0 1 -1 0 -1 0 0 -1 0zm4 47l0 0 1 -1 0 -2 -1 0 0 0 -2 1 1 2 0 1 -1 2 1 0 1 -1 0 -1 0 -1zm2 -35l0 0 -1 0 -1 2 0 2 1 1 0 -2 1 -1 0 -2zm83 -11l0 0 3 -5 2 -5 1 -6 0 -7 0 -6 -1 -6 -3 -6 -3 -5 -3 -4 -4 -3 -5 -3 -6 -1 -7 1 -5 0 -4 1 -7 0 -6 0 -5 -1 -4 -1 -7 0 -2 1 -1 1 -1 2 0 3 0 8 -1 6 0 5 0 8 0 14 0 5 1 8 0 3 1 2 1 1 2 1 7 0 4 0 5 0 6 1 7 -1 5 -1 5 -1 12 0 5 -2 4 -3 4 -4zm-61 -10l0 0 0 6 0 6 4 0 4 0 1 0 0 -4 1 -8 0 -5 0 -6 0 -10 1 -3 1 -1 2 -1 8 0 9 0 7 1 6 -1 5 0 4 1 4 -1 0 0 -3 -4 -2 -3 -3 -3 -3 -1 -4 -1 -6 1 -4 0 -6 1 -7 0 -7 0 -5 -1 -4 -1 -2 0 0 6 -1 6 0 6 0 7 0 13zm10 96l0 0 1 0 8 0 -5 -6 -1 -1 -1 0 -4 0 -7 0 0 12 5 0 4 1 0 -6zm12 -53l0 0 0 -1 -2 0 0 1 -1 0 2 1 1 0 0 -1 0 0zm1 -5l0 0 -1 0 0 2 0 0 0 1 1 0 1 0 -1 -2 0 -1zm8 29l0 0 0 -2 -2 -1 0 3 1 0 0 0 1 3 2 1 -1 -2 -1 -2zm0 -6l0 0 1 0 0 -1 -1 -2 0 1 -1 0 1 2 0 0zm4 -16l0 0 1 0 1 -3 -2 1 -1 1 -1 -1 -1 0 0 2 3 0zm1 14l0 0 0 0 0 -1 -1 0 0 0 0 1 1 0zm3 12l0 0 1 0 0 -2 1 0 -1 -1 0 -1 1 -1 1 0 0 -1 0 -1 -1 0 -1 -1 0 -1 -2 0 -2 1 -1 1 0 2 2 3 2 2zm-1 9l0 0 0 -1 -1 0 -1 0 0 0 0 1 1 0 0 0 1 0zm0 11l0 0 0 0 -1 1 1 1 1 0 0 -1 -1 -1zm3 -36l0 0 0 0 1 -1 0 0 -1 -2 -1 0 -1 1 0 1 0 2 -1 0 2 0 1 -1zm-3 27l0 0 0 1 1 0 1 0 1 -1 -1 0 -2 0zm2 -33l0 0 1 0 0 0 0 -1 -1 1 0 0zm3 30l0 0 -1 0 0 2 1 0 1 -2 -1 0 0 0zm4 4l0 0 -1 -1 -1 1 -1 3 1 2 2 0 0 -2 1 -2 2 0 -2 -1 -1 0zm7 -34l0 0 1 -1 1 -2 -2 -2 -1 1 -1 1 -1 2 1 0 2 1zm1 6l0 0 -1 -3 -2 -1 0 2 0 3 0 2 2 0 1 -3zm-3 27l0 0 0 2 1 1 1 -2 1 -2 -2 0 -1 1zm1 22l0 0 -1 0 0 1 1 1 0 -1 0 -1 0 0zm2 -32l0 0 -2 -2 0 3 0 1 0 1 0 1 2 0 1 0 0 -2 -1 -2zm5 -3l0 0 -1 -1 -1 1 0 2 -1 2 0 1 1 1 0 0 1 -1 1 -1 1 0 1 -1 0 -1 -1 -2 -1 0zm5 -9l0 0 -1 1 0 1 -1 1 -1 0 0 1 1 1 1 -1 0 0 1 -1 1 -2 -1 -1zm-3 20l0 0 0 1 1 1 0 -1 1 0 0 -2 -2 1zm2 -12l0 0 -1 0 0 2 1 0 1 0 0 -1 0 0 -1 -1zm2 -52l0 0 1 -2 0 -2 -1 1 0 2 -2 0 0 1 1 1 1 -1zm99 125l0 0 -1 -7 -1 -3 -1 -1 -3 -2 -5 0 0 10 0 12 -1 13 0 4 1 3 -1 4 -1 3 -4 2 -3 0 -13 1 -12 -1 -12 -1 -11 0 -23 2 -8 0 0 4 0 4 3 2 11 2 12 0 12 -2 11 0 12 0 12 1 12 1 11 -1 2 -3 -1 -4 1 -12 0 -13 1 -13 0 -5zm-97 -40l0 0 -1 1 -1 1 2 1 1 -1 1 0 0 -2 -1 0 -1 0zm2 -35l0 0 0 0 0 0 -2 -1 -1 1 1 2 1 2 0 2 2 -3 -1 -3zm0 -36l0 0 1 -2 0 -1 -2 0 -1 1 0 2 2 0zm-2 56l0 0 0 1 0 1 1 1 1 0 0 -2 -1 -1 -1 0zm4 9l0 0 -1 -1 -1 -1 -1 0 0 1 1 1 0 2 1 0 1 -2zm-1 34l0 0 0 0 0 1 0 0 1 0 0 -1 -1 0zm3 -17l0 0 0 -1 -1 -1 0 1 0 2 0 0 1 -1zm0 -28l0 0 0 0 0 -1 0 0 0 -1 -1 1 0 1 1 0zm0 31l0 0 -1 1 1 2 2 2 0 -4 -2 -1zm4 -114l0 0 -1 -1 -1 -1 -1 2 1 2 0 0 0 0 3 1 3 -2 -2 0 -2 -1zm-2 85l0 0 -1 0 1 1 0 2 0 1 1 -1 0 -2 -1 -1zm2 -147l0 0 0 -2 -1 0 0 0 0 2 1 2 0 -2zm3 189l0 0 -2 0 -1 1 2 0 1 -1 0 0zm-1 -32l0 0 0 -1 0 0 0 -1 -1 0 -1 1 1 1 0 0 1 0zm-1 22l0 0 0 2 1 1 1 0 0 -1 0 -2 -2 0zm5 -133l0 0 0 0 1 -1 0 -1 0 -1 -1 0 -1 2 0 1 -2 1 0 1 0 1 1 0 1 -1 1 -2zm1 149l0 0 0 -1 -1 2 -1 1 2 0 0 -2zm1 8l0 0 -1 0 -1 0 1 1 0 0 1 -1 0 0zm2 -30l0 0 -1 1 0 0 2 1 1 -1 -1 -1 -1 0zm3 -155l0 0 2 2 0 -2 -2 -2 0 -1 -1 -1 -1 1 -1 2 1 1 2 0zm-2 44l0 0 1 1 1 0 1 -1 0 -1 -1 -1 -1 0 -1 1 0 1zm1 -20l0 0 1 0 1 1 0 -1 0 0 -2 0 0 0zm1 153l0 0 -1 1 0 1 1 2 1 0 1 0 0 -2 -1 -1 -1 -1zm0 14l0 0 -1 1 0 0 0 1 1 0 1 0 0 0 0 -1 -1 -1zm0 -32l0 0 0 1 1 1 2 -1 1 -1 -1 -1 -1 0 -2 1zm2 22l0 0 1 3 1 2 1 -2 -1 -1 -2 -2zm4 -6l0 0 -1 -1 -1 0 0 1 1 1 1 0 0 -1 0 0zm1 8l0 0 0 1 0 1 0 0 1 -1 -1 0 0 -1zm1 -3l0 0 0 0 0 1 0 1 0 0 1 0 0 -1 -1 -1zm19 -63l0 0 11 -9 10 -16 7 -17 3 -16 1 -19 0 -14 -2 -12 -1 -2 -6 -12 3 15 0 14 -1 20 -4 15 -6 18 -11 15 -10 9 -12 8 6 10 12 -7zm-14 -113l0 0 -1 0 -1 0 0 -2 -1 0 -1 1 0 1 0 1 1 0 4 0 1 2 2 0 1 0 0 -1 -2 -2 -3 0zm-3 57l0 0 1 -2 0 -1 -1 1 0 2zm6 -24l0 0 0 -1 0 -1 -1 0 -1 1 0 1 -1 3 -1 0 -1 1 1 1 1 2 2 0 1 0 0 -1 0 0 0 0 0 -2 1 -2 -1 -1 0 -1zm-3 -40l0 0 0 0 0 -2 0 0 -1 0 0 0 1 2zm0 181l0 0 -1 0 1 3 1 1 0 0 0 -2 0 -2 -1 0zm9 -120l0 0 0 0 -1 1 1 1 0 0 1 -1 -1 -1z"/>
  <path class="fil0" d="M1657 979l1 2 0 2 -1 2 -2 2 -10 10 -10 8 -6 4 -5 4 -12 5 -12 4 -13 3 -13 2 -6 1 -7 1 -13 -1 -13 -1 -13 -3 -18 -7 -12 -5 -12 -8 -10 -9 -9 -11 -9 -11 -7 -12 -6 -13 -5 -14 -3 -14 -2 -8 0 -7 -2 -15 0 -15 1 -15 3 -15 4 -14 10 -27 3 -6 4 -6 5 -5 10 -9 9 -10 11 -9 12 -7 12 -5 12 -4 13 -3 13 -1 13 -1 11 1 11 2 12 3 11 3 10 5 11 7 9 8 8 8 2 3 1 1 0 11 0 7 -1 7 0 11 0 10 1 8 1 7 -1 11 0 3 -2 1 -2 2 -2 0 -7 1 -17 -1 -7 1 -10 -1 -7 -1 -2 -1 -2 0 -1 -1 -1 -3 -1 -10 1 -7 1 -7 0 -10 -1 -3 -2 -1 -1 -1 -2 -2 -6 -2 -6 -1 -4 0 -5 1 -7 0 -7 0 -6 1 -6 2 -6 3 -6 4 -5 5 -5 5 -4 5 -4 6 -3 7 -3 7 -2 6 -2 8 -1 7 -1 8 1 8 1 8 2 7 1 7 3 8 3 7 3 6 4 6 5 5 6 3 18 9 13 4 7 0 7 0 8 -1 7 -2 8 -3 6 -3 7 -4 6 -5 6 -5 2 -1 1 0 1 0 2 1 6 6 7 8 5 7 5 6 7 8 5 7zm-204 -107l0 0 -1 0 0 0 0 1 1 0 1 1 0 -2 -1 0zm3 5l0 0 -1 1 0 1 2 0 0 -1 0 -1 -1 0zm3 27l0 0 -1 1 -1 1 1 1 1 1 1 1 0 -2 -1 -2 0 -1zm3 35l0 0 0 1 1 1 2 1 0 -2 -1 -1 -2 0zm4 -128l0 0 1 1 0 0 1 -1 -1 -1 -3 0 -1 2 2 0 1 -1zm1 24l0 0 -1 -1 -3 2 0 2 1 0 1 -1 1 0 0 2 0 1 0 3 -1 1 1 1 0 3 2 1 4 0 -1 -1 0 -1 0 0 -2 -1 -1 -1 -1 -2 0 -2 1 -2 2 -2 1 -2 3 -1 -1 -2 -1 -2 -2 2 -1 0 1 2 -1 2 -2 -1zm-3 55l0 0 -1 1 1 3 2 -1 0 -2 -2 -3 0 2zm2 -23l0 0 -1 -1 0 0 -1 2 0 1 1 0 1 0 0 -1 0 -1zm-2 59l0 0 0 0 1 1 1 1 0 -2 -1 0 -1 0zm3 -28l0 0 0 0 -1 -1 -1 1 -1 1 3 0 0 -1zm-1 18l0 0 3 0 -1 -2 -2 2zm4 -55l0 0 -1 1 0 2 0 0 -1 2 1 1 1 1 0 -1 1 -1 -1 -1 0 -1 1 -2 -1 -1zm2 70l0 0 -1 1 0 2 1 1 1 -2 -1 -2 0 0zm2 -12l0 0 1 -1 1 -2 -1 -3 -2 -1 -1 2 0 0 0 3 1 1 0 1 1 0 -1 1 0 1 0 1 1 -1 0 0 0 -1 0 -1zm1 -8l0 0 1 -2 1 -2 0 -1 0 -2 -2 0 -1 1 0 3 1 3zm0 -13l0 0 1 -1 1 0 1 0 -1 0 -1 0 -1 0 0 0 -1 0 0 1 1 0zm0 31l0 0 1 1 1 0 0 0 0 -1 -1 0 -1 0zm2 -39l0 0 2 -1 1 -1 0 -2 -2 -2 -2 0 -1 2 2 3 0 1zm11 -79l0 0 -1 -1 -1 -1 -1 0 0 0 0 0 -1 1 1 1 -2 2 -1 1 -1 1 0 0 -2 1 -2 1 -1 0 0 1 0 1 1 0 3 0 3 0 1 0 0 -1 1 1 0 0 2 -1 -1 -3 -1 1 0 2 0 -2 0 -1 1 -3 1 0 1 0 0 0 0 -1 0 0zm-6 108l0 0 -1 0 -1 0 -2 1 -2 1 1 0 1 0 1 0 3 -2 0 0zm0 -85l0 0 -1 0 -1 0 0 0 0 1 2 2 -2 2 0 1 1 2 1 2 2 1 0 -1 -1 -2 -1 -2 1 -1 2 -2 1 -2 -2 1 -2 -2zm1 57l0 0 0 -3 -1 0 -1 1 0 2 2 2 0 -2zm0 50l0 0 -1 0 0 1 0 1 1 0 0 0 0 0 0 -1 0 -1zm0 -143l0 0 0 1 0 1 2 1 1 0 0 -1 -1 -1 -2 -2 0 0 0 1zm2 148l0 0 -1 0 0 1 0 1 1 0 0 1 1 -1 -1 -1 0 -1zm8 -7l0 0 -1 0 0 1 0 1 1 0 0 -1 0 -1 0 0zm23 97l0 0 6 2 7 3 12 4 6 2 4 1 4 0 7 1 7 0 7 -1 7 -1 7 -1 12 -3 7 -1 6 -2 7 -2 7 -3 6 -4 6 -4 6 -4 5 -4 6 -4 5 -5 5 -5 4 -5 0 -2 -1 -4 -4 -5 -2 -2 -1 2 -3 5 -6 6 -5 4 -6 5 -5 4 -6 4 -6 4 -6 3 -7 3 -6 3 -7 2 -19 3 -13 3 -8 0 -7 0 -7 0 -13 -2 -7 -1 -7 -2 -6 -2 -7 -3 -6 -2 -4 -2 2 2 5 4 6 3 6 3zm-14 -255l0 0 -1 -1 -1 0 -1 0 1 1 1 1 1 -1zm1 4l0 0 -2 0 -1 0 1 2 3 -2 1 -1 -1 -1 -1 2zm-2 24l0 0 -1 0 0 1 1 1 2 1 -1 -2 -1 -1zm14 117l0 0 -2 -7 -2 -7 -1 -6 -1 -7 0 -7 0 -6 1 -7 2 -7 2 -6 2 -6 3 -5 3 -5 4 -5 5 -5 4 -4 4 -4 5 -2 5 -1 6 -2 7 0 6 0 5 0 4 0 3 0 0 -1 0 -7 -5 -2 -4 0 -4 0 -5 0 -7 0 -6 0 -6 2 -5 1 -5 2 -4 4 -5 4 -4 5 -4 5 -3 5 -3 5 -4 12 -2 7 -1 7 -1 6 1 7 1 7 3 13 2 7 3 6 3 6 2 3 -1 -3 -1 -2zm-9 -130l0 0 1 1 1 1 0 -1 0 0 -1 0 -1 -1zm5 -21l0 0 -3 1 0 1 0 1 0 -1 1 -1 1 0 0 1 1 -1 0 -1zm3 194l0 0 -1 -2 -2 -1 0 0 -1 0 1 2 3 1zm-2 22l0 0 -1 0 0 0 0 0 1 2 1 2 1 0 0 -1 -1 -2 -1 -1zm18 -201l0 0 1 0 -1 -2 0 -1 -1 -1 -1 -3 -3 0 -1 1 -1 1 -3 -1 -2 1 -2 1 0 1 0 1 2 -1 3 -2 2 0 1 1 1 2 -1 1 0 1 1 2 1 -2 2 0 2 0zm-7 -10l0 0 1 0 0 -1 0 -2 -1 -1 -1 0 0 1 0 2 1 1zm0 194l0 0 0 0 0 -1 0 -1 -1 0 0 0 0 1 0 1 1 0zm1 13l0 0 -2 0 0 1 0 0 0 0 1 1 1 0 1 -1 0 0 -1 -1zm8 -7l0 0 -4 -2 -1 0 0 0 -1 0 1 1 0 1 3 1 0 2 2 1 0 -4zm-1 -8l0 0 1 0 1 -1 0 0 -1 -2 -1 1 0 0 0 1 0 1zm1 -200l0 0 1 -1 0 -1 -1 0 0 0 0 1 0 1zm0 3l0 0 0 0 0 2 0 0 1 0 0 -1 0 -1 -1 0zm4 221l0 0 -2 -1 0 0 -1 0 -1 -1 0 2 0 1 2 1 0 0 2 0 1 0 -1 -2 0 0zm4 -19l0 0 -1 0 0 0 0 1 -2 7 0 0 0 1 0 1 0 0 -2 0 -1 1 1 1 1 0 1 1 0 0 2 -1 0 -3 0 -2 2 -3 1 -2 -2 -2zm2 -204l0 0 -1 0 0 1 1 0 0 -1 0 0 0 0zm4 207l0 0 -1 1 0 1 1 0 1 0 1 -1 0 -1 0 0 -2 0zm11 -2l0 0 1 1 1 -1 -1 -1 -1 0 -2 -1 -1 0 -1 -2 -3 1 0 2 0 0 0 0 0 3 1 1 0 1 1 1 2 -2 3 -3zm1 20l0 0 -2 0 -1 2 0 1 2 0 1 0 1 -2 0 -1 -1 0zm0 -17l0 0 -1 0 0 3 0 0 2 0 1 -1 -1 -2 -1 0zm3 20l0 0 -1 0 0 1 1 1 1 0 0 0 1 0 -1 -1 -1 -1zm15 5l0 0 -1 0 0 -1 -2 0 -4 -4 0 -2 1 -2 1 0 0 -1 0 0 1 0 0 -2 0 -2 2 -1 2 -2 -2 -1 -2 0 -1 -1 0 0 -1 2 -2 2 2 1 -1 2 -3 0 -2 0 -2 1 -1 2 0 2 2 0 1 -1 2 0 0 1 1 2 1 2 0 2 2 1 0 2 0 1 1 0 0 1 2 0 2 0 0 0 0 0 1 0 2 -1 4 -2 -3 -1 -3 0zm-12 -26l0 0 0 3 1 1 2 0 0 -1 -1 -2 0 -1 0 -1 1 -1 -2 -1 -1 1 0 1 0 1 0 0zm7 3l0 0 0 0 0 1 -1 0 -3 1 -1 3 0 1 1 0 2 -1 1 -3 1 0 0 0 1 0 0 -1 0 0 1 0 0 -1 0 0 2 -1 -1 -2 -1 -1 -1 0 0 1 0 1 0 2 -1 0zm-2 -6l0 0 4 -1 -1 -1 0 -1 0 -2 0 -1 0 -1 -1 0 0 2 -1 1 -2 2 -1 1 2 1zm7 -5l0 0 0 1 0 2 1 1 1 1 2 -3 1 -3 -1 0 -2 0 -2 0 -3 1 1 0 2 0zm6 27l0 0 -3 -1 -3 -1 -1 2 2 4 5 0 2 -2 -2 -2zm-6 -13l0 0 0 1 2 1 1 -1 -1 -1 -2 0zm3 -7l0 0 -1 1 1 0 2 0 1 -1 -1 0 -2 0zm1 11l0 0 2 4 4 1 1 -1 1 0 1 0 1 -2 -1 -1 -1 0 0 0 -2 0 -3 0 -3 -1zm1 -15l0 0 3 1 0 -1 1 0 0 -1 -1 0 0 0 -3 1zm11 19l0 0 0 -1 -1 0 -1 1 0 0 -1 1 0 0 -1 1 -2 1 -1 1 0 1 1 0 1 -1 1 0 1 0 2 -1 0 0 1 -1 0 0 1 -1 0 -1 -1 0zm3 -18l0 0 -2 -1 -1 1 -4 0 -2 2 -1 1 0 0 2 0 2 0 3 -2 3 0 2 -1 -2 0zm-5 10l0 0 -2 0 -2 -1 1 3 1 0 5 -3 -2 -1 -1 2zm1 -13l0 0 2 -1 0 -2 -2 -1 -1 1 1 1 0 2zm10 10l0 0 2 -2 -1 -1 0 -1 -2 -2 -2 1 -1 3 -1 4 -1 4 5 -4 1 -2zm-2 -11l0 0 0 0 0 -1 0 0 0 -2 -1 -1 0 0 -1 0 0 2 2 2zm2 17l0 0 -2 0 -1 1 -1 1 2 1 1 0 1 -1 2 -2 -2 0zm4 4l0 0 -1 0 -2 1 0 2 1 0 1 0 1 -1 0 -1 0 0 0 0 0 -1zm-2 -17l0 0 1 0 0 0 0 -1 0 0 0 -1 -1 0 0 2 0 0zm3 5l0 0 -1 0 0 0 0 1 0 1 0 0 1 0 0 0 0 -1 0 -1 0 0zm50 -193l0 0 0 2 -1 15 0 10 0 9 2 8 0 7 0 13 0 2 0 2 -2 4 0 2 -3 2 -3 1 -2 1 -3 0 -8 1 -6 0 -5 0 -7 0 -7 0 -5 0 0 5 1 3 1 1 2 1 2 1 7 0 6 0 4 0 7 -1 8 0 4 1 5 0 6 -1 2 -1 2 -1 2 -2 0 -3 1 -8 -1 -8 -1 -7 0 -11 0 -11 1 -7 0 -7 0 -11 -2 -2 -3 -6 -4 -4zm-46 181l0 0 -3 2 4 0 2 -2 0 0 0 -1 -3 1zm7 -6l0 0 -1 0 -1 1 0 1 2 0 0 -1 0 -1 0 0z"/>
  <path class="fil0" d="M1740 1022l-2 -1 -2 0 -1 -2 -1 -3 0 -12 1 -13 -1 -12 1 -13 0 -2 1 -2 2 -2 2 -1 4 0 5 1 9 0 3 0 1 -1 2 -2 1 -2 1 -14 -2 -8 -3 -13 -3 -6 -7 -11 -7 -12 -7 -12 -14 -22 -7 -12 -7 -11 -7 -11 -7 -12 -3 -3 -1 -1 -2 0 -3 0 -5 0 -8 -2 -4 -1 -2 -2 -1 -2 0 -6 0 -6 0 -13 0 -12 1 -13 0 -2 2 -1 2 -1 2 -1 9 -1 5 1 13 0 27 1 14 -1 27 -2 8 0 6 1 3 1 1 1 1 3 0 2 2 14 -1 13 1 15 -1 14 -3 1 -2 -1 -2 -1 -3 1 -2 2 0 3 0 3 8 14 7 13 3 5 2 2 3 0 3 -3 2 -3 8 -14 7 -15 1 -3 -1 -2 -1 -1 -2 -1 -5 1 -2 -2 -1 -6 -1 -7 1 -15 0 -13 2 -14 1 -4 1 -1 2 -1 13 -2 14 1 27 0 28 1 13 -1 14 1 1 1 2 1 1 2 1 2 0 6 0 6 -1 12 1 13 -1 12 0 2 -1 3 -1 1 -2 1 -4 1 -5 0 -8 0 -4 0 -3 2 -1 2 -5 9 -6 12 -7 11 -7 12 -6 11 -6 12 -8 11 -7 11 -12 25 -1 1 0 3 -1 12 0 11 1 3 1 2 2 2 2 1 9 -2 8 1 2 1 2 1 1 2 1 2 0 13 -1 12 1 13 -1 12 0 2 -1 3 -2 1 -2 0 -11 2 -12 -1 -23 -2 -11 0 -12 1 -23 -1 -12 2 -4 0 -7 -1zm-24 -201l0 0 0 0 0 1 0 0 1 0 0 0 0 -1 -1 0zm4 -11l0 0 0 2 1 0 0 -1 -1 -1zm3 -35l0 0 0 2 0 1 1 1 1 -1 0 -1 0 0 0 -2 -2 0zm11 47l0 0 0 -1 -1 -1 0 -2 -1 0 -2 1 0 1 -1 1 1 1 2 1 2 0 1 1 0 -1 0 -1 -1 0zm0 -44l0 0 0 2 2 0 -2 -2 1 -1 -1 -1 -1 1 1 1zm1 27l0 0 -1 1 0 1 2 0 1 -1 0 -1 -2 0zm4 -13l0 0 0 0 0 0 -2 2 1 4 1 -2 1 -1 1 -1 0 -2 -2 0zm10 54l0 0 -4 0 -1 -1 -2 0 0 1 1 1 3 0 1 0 0 1 1 1 1 0 0 0 0 -2 0 -1zm-3 8l0 0 0 0 0 0 0 1 0 0 1 0 0 0 0 -1 -1 0zm3 -49l0 0 0 -2 -1 -1 -1 1 0 1 1 2 0 0 1 2 1 0 0 -2 -1 -1 0 0zm3 17l0 0 0 1 0 1 1 1 0 -1 1 -1 -1 0 -1 -1zm127 166l0 0 0 -3 -1 -2 -2 -1 -2 -1 -5 0 -1 10 1 12 -1 15 0 3 0 4 -1 3 -1 1 -2 1 -2 1 -3 0 -2 1 -12 1 -13 0 -23 -3 -11 1 -12 0 -23 0 -10 1 0 6 0 2 1 2 2 1 2 0 7 1 5 0 12 -1 23 0 11 0 12 -1 23 3 11 0 12 -2 2 0 2 -1 1 -3 0 -1 1 -13 -1 -12 1 -13 -1 -12zm-122 -138l0 0 0 -1 -1 0 0 1 1 2 0 0 0 1 1 1 1 -2 1 -1 -1 -1 -2 0zm10 49l0 0 -1 0 0 2 2 2 0 -2 -1 -2zm2 -34l0 0 1 2 0 -1 1 0 0 -1 -1 -2 -1 2zm6 126l0 0 0 1 -1 1 0 1 1 0 1 -3 -1 -2 0 2zm0 -34l0 0 0 1 0 2 0 0 1 0 1 -2 0 -2 0 0 0 -2 -1 -1 -1 1 1 2 -1 0 0 1zm3 16l0 0 -1 0 0 2 1 1 0 0 0 0 4 -1 1 -4 -2 2 -3 0zm4 -38l0 0 -1 0 0 1 0 1 1 0 1 0 0 -2 -1 0zm2 -23l0 0 0 0 0 -1 -1 0 -1 1 -1 2 1 1 2 0 1 0 1 1 0 -2 -2 -2zm1 87l0 0 -1 1 0 1 -1 1 2 1 1 0 0 -4 -1 0zm5 -36l0 0 -2 1 0 1 1 1 0 0 2 0 0 -1 0 -1 -1 -1zm8 -129l0 0 5 -9 2 -6 1 -4 0 0 -2 -1 -3 -1 -1 -3 -1 -1 -1 2 -1 2 -2 1 -2 1 -1 1 -1 1 -1 0 0 1 3 7 5 9zm5 83l0 0 -1 -1 -4 0 0 0 -1 0 -1 -1 -1 -1 -1 0 -1 1 1 1 0 1 1 0 1 0 1 0 1 0 2 0 1 1 1 1 2 0 0 1 1 -1 0 0 -2 -2zm-7 -9l0 0 0 0 1 -1 -1 -1 -1 0 0 1 1 1zm6 43l0 0 -2 -1 -1 -1 0 0 -1 1 1 1 0 3 -1 1 1 1 2 1 1 -1 1 -1 0 -1 -1 -3zm4 20l0 0 1 1 0 -1 -1 -2 0 2zm5 -98l0 0 -1 1 0 2 0 1 1 0 1 -1 0 -2 -1 -1 0 0zm2 33l0 0 0 0 0 1 0 2 1 -1 0 -1 0 -1 -1 0zm3 57l0 0 -1 0 0 0 0 1 1 1 0 -1 0 -1 0 0zm1 -85l0 0 1 -2 0 -1 0 -1 -1 0 -2 1 0 1 0 2 2 0zm-2 23l0 0 0 1 1 0 2 -1 2 -3 -3 1 -2 2zm5 -54l0 0 4 -3 2 -1 2 1 2 2 1 4 2 3 1 5 2 -1 2 -2 -1 -3 0 -3 -2 1 -2 -1 1 -3 2 -2 0 -3 -1 -2 -2 -1 -1 2 1 2 -1 1 -1 1 -3 -2 -2 0 -2 -1 -1 1 -2 0 -2 -1 -2 5 -1 6 3 -3 1 -2zm-2 39l0 0 0 -1 -1 0 0 2 1 0 0 0 0 -1zm2 -18l0 0 1 -1 1 -1 0 -1 -1 -3 0 -3 -1 0 0 3 -1 3 -1 2 1 0 1 1zm5 -14l0 0 2 -2 -1 -2 -4 -1 -3 5 0 3 3 -1 2 -1 1 -1zm-2 24l0 0 -2 -5 -1 7 1 5 1 2 3 -1 1 -2 -1 -2 -2 -4zm-1 13l0 0 0 0 0 1 0 1 1 0 0 -1 1 -1 -1 0 -1 0zm3 -24l0 0 1 0 0 -2 2 -3 2 -2 -4 -1 -3 4 0 1 0 0 0 3 2 0zm2 4l0 0 2 -1 2 -1 -3 -1 -3 8 3 -2 -1 -3zm5 12l0 0 0 -2 3 -2 0 -6 -2 4 -2 4 -2 1 -1 4 2 -2 2 -1zm-2 -45l0 0 1 -1 0 -2 -1 1 -1 0 0 2 1 0zm0 51l0 0 0 2 0 1 1 1 3 -1 -2 -2 -2 -1zm5 -53l0 0 0 -1 1 -2 -1 -1 -1 -1 -1 1 0 2 1 1 1 1zm-2 24l0 0 0 1 1 1 1 0 2 -2 -2 -1 -2 1zm2 24l0 0 -1 2 2 1 2 0 0 -1 -1 -1 -2 -1zm5 -17l0 0 -1 -1 0 1 -1 0 0 2 0 1 1 0 0 -1 1 -2zm0 -13l0 0 0 3 0 3 0 2 2 0 1 0 1 -1 -1 -2 -1 0 -1 -2 1 -2 0 -4 -2 -3 -1 1 0 3 1 2zm-1 22l0 0 0 1 1 0 1 -2 1 -3 -2 2 -1 2zm108 -98l0 0 -1 -6 0 -2 -2 -2 -1 -1 -2 0 -5 -1 -1 9 1 13 -1 14 0 2 0 3 -1 3 0 3 -2 1 -2 1 -4 1 -11 1 -9 0 -1 0 -5 9 -13 24 -7 11 -6 11 -7 13 -8 11 -7 10 -5 11 -6 14 -1 11 0 9 3 -1 5 1 0 -2 1 -13 4 -9 4 -7 7 -12 7 -11 7 -11 6 -12 7 -12 6 -11 7 -12 5 -9 1 -2 11 1 3 0 9 0 4 0 4 -1 2 -1 1 -1 1 -3 1 -2 0 -12 -1 -12 1 -13 1 -6zm-103 37l0 0 1 -1 0 -2 -1 -2 -1 1 -1 1 -1 2 1 1 2 0zm3 54l0 0 -1 0 -2 -1 -2 0 1 3 1 3 2 0 1 -2 2 -2 0 -3 -1 1 -1 1zm1 -17l0 0 0 -1 -2 -1 -2 0 -1 1 0 1 1 1 2 0 1 0 0 0 1 2 2 -1 0 -2 -2 0zm-2 -58l0 0 1 -1 1 0 0 -1 -1 0 -2 0 0 1 0 1 1 0zm6 67l0 0 -1 -3 -2 -1 -1 1 -2 1 -1 3 1 2 1 0 1 1 2 0 0 2 1 0 1 -1 0 -1 0 -4zm-3 -18l0 0 -1 -1 -1 0 0 2 1 1 1 0 1 -1 0 -1 -1 0zm8 -21l0 0 -3 -3 -2 0 0 -2 -1 -2 -2 3 1 3 4 1 2 2 1 1 1 2 2 -1 1 -1 -1 -1 -3 -2zm1 15l0 0 -1 2 -2 -1 -1 -1 -2 0 -1 0 1 4 1 4 -2 1 1 1 1 0 1 -2 1 0 1 -2 2 0 1 -1 1 -3 0 -2 -2 0zm-6 -32l0 0 1 0 0 -1 0 -1 0 -1 -1 0 0 0 0 3zm3 29l0 0 1 -1 0 -2 0 -1 -1 0 -1 0 0 2 1 1 0 1zm4 -24l0 0 -1 2 -2 0 -1 1 4 2 2 -4 1 -2 -1 0 -2 1zm9 -6l0 0 0 -2 -1 0 -1 0 -1 0 0 2 1 0 1 0 1 0zm0 12l0 0 -1 0 -1 1 1 1 1 1 1 -1 0 -1 -1 -1zm2 -28l0 0 0 0 -2 2 0 3 1 -2 1 -1 0 -2z"/>
  <path class="fil0" d="M2168 979l1 2 1 2 -1 2 -2 2 -10 10 -11 8 -5 4 -6 4 -12 5 -12 4 -13 3 -12 2 -7 1 -6 1 -14 -1 -13 -1 -12 -3 -19 -7 -12 -5 -12 -8 -9 -9 -10 -11 -9 -11 -7 -12 -6 -13 -5 -14 -3 -14 -1 -8 -1 -7 -1 -15 -1 -15 1 -15 3 -15 4 -14 10 -27 3 -6 4 -6 5 -5 11 -9 9 -10 11 -9 11 -7 12 -5 13 -4 12 -3 13 -1 14 -1 11 1 11 2 11 3 11 3 11 5 10 7 9 8 8 8 3 3 0 1 0 11 0 7 -1 7 0 11 1 10 1 8 0 7 0 11 -1 3 -1 1 -2 2 -3 0 -7 1 -17 -1 -7 1 -10 -1 -7 -1 -2 -1 -2 0 -1 -1 -1 -3 -1 -10 1 -7 1 -7 0 -10 -1 -3 -1 -1 -1 -1 -2 -2 -7 -2 -5 -1 -5 0 -4 1 -8 0 -7 0 -6 1 -6 2 -6 3 -6 4 -5 5 -5 5 -4 5 -4 6 -3 7 -3 7 -2 6 -1 8 -2 7 0 8 0 8 1 8 2 7 2 7 2 8 3 7 3 6 5 6 4 5 6 3 19 9 12 4 8 0 7 0 7 -1 8 -2 7 -3 7 -3 6 -4 6 -5 6 -5 2 -1 1 0 2 0 2 1 5 6 7 8 5 7 5 6 8 8 4 7zm-204 -107l0 0 0 0 -1 0 1 1 0 0 1 1 0 -2 -1 0zm3 5l0 0 -1 1 1 1 1 0 0 -1 0 -1 -1 0zm3 27l0 0 -1 1 0 1 1 1 0 1 1 1 1 -2 -1 -2 -1 -1zm4 35l0 0 -1 1 2 1 2 1 0 -2 -1 -1 -2 0zm4 -128l0 0 0 1 1 0 1 -1 -2 -1 -2 0 -2 2 2 0 2 -1zm1 24l0 0 -2 -1 -2 2 0 2 1 0 1 -1 1 0 0 2 0 1 0 3 -1 1 1 1 0 3 1 1 5 0 -1 -1 -1 -1 0 0 -1 -1 -1 -1 -2 -2 1 -2 0 -2 2 -2 2 -2 3 -1 -1 -2 -1 -2 -2 2 -1 0 0 2 -1 2 -1 -1zm-4 55l0 0 0 1 1 3 2 -1 0 -2 -2 -3 -1 2zm3 -23l0 0 -1 -1 -1 0 0 2 0 1 1 0 1 0 0 -1 0 -1zm-2 59l0 0 0 0 0 1 1 1 0 -2 -1 0 0 0zm3 -28l0 0 -1 0 -1 -1 0 1 -1 1 2 0 1 -1zm-1 18l0 0 3 0 -1 -2 -2 2zm4 -55l0 0 -1 1 0 2 -1 0 0 2 1 1 0 1 1 -1 0 -1 0 -1 0 -1 0 -2 0 -1zm1 70l0 0 0 1 0 2 1 1 0 -2 0 -2 -1 0zm3 -12l0 0 1 -1 1 -2 -1 -3 -2 -1 -1 2 -1 0 1 3 1 1 0 1 0 0 -1 1 0 1 1 1 0 -1 1 0 0 -1 0 -1zm1 -8l0 0 1 -2 1 -2 0 -1 -1 -2 -1 0 -1 1 -1 3 2 3zm0 -13l0 0 1 -1 1 0 1 0 -1 0 -1 0 -1 0 -1 0 0 0 0 1 1 0zm-1 31l0 0 1 1 2 0 0 0 0 -1 -1 0 -2 0zm2 -39l0 0 2 -1 2 -1 0 -2 -2 -2 -2 0 -1 2 1 3 0 1zm11 -79l0 0 0 -1 -1 -1 -1 0 0 0 -1 0 0 1 1 1 -2 2 -2 1 0 1 0 0 -2 1 -2 1 -1 0 -1 1 1 1 0 0 4 0 3 0 0 0 1 -1 0 1 1 0 2 -1 -1 -3 -1 1 0 2 0 -2 -1 -1 2 -3 1 0 0 0 1 0 0 -1 -1 0zm-6 108l0 0 0 0 -1 0 -2 1 -2 1 1 0 0 0 2 0 2 -2 0 0zm0 -85l0 0 0 0 -1 0 0 0 0 1 2 2 -2 2 -1 1 1 2 1 2 3 1 -1 -1 -1 -2 0 -2 1 -1 2 -2 1 -2 -3 1 -2 -2zm2 57l0 0 0 -3 -1 0 -1 1 0 2 1 2 1 -2zm0 50l0 0 -1 0 0 1 0 1 0 0 1 0 0 0 0 -1 0 -1zm-1 -143l0 0 1 1 0 1 2 1 1 0 -1 -1 0 -1 -2 -2 -1 0 0 1zm3 148l0 0 -1 0 0 1 0 1 0 0 1 1 0 -1 0 -1 0 -1zm7 -7l0 0 -1 0 0 1 1 1 0 0 0 -1 0 -1 0 0zm23 97l0 0 7 2 6 3 12 4 6 2 4 1 4 0 8 1 6 0 8 -1 6 -1 7 -1 13 -3 6 -1 7 -2 7 -2 7 -3 5 -4 6 -4 6 -4 5 -4 7 -4 5 -5 5 -5 3 -5 1 -2 -1 -4 -4 -5 -2 -2 -1 2 -4 5 -5 6 -5 4 -6 5 -6 4 -5 4 -6 4 -6 3 -7 3 -7 3 -6 2 -19 3 -13 3 -8 0 -8 0 -6 0 -14 -2 -7 -1 -7 -2 -6 -2 -6 -3 -7 -2 -4 -2 2 2 6 4 5 3 6 3zm-14 -255l0 0 -1 -1 -1 0 0 0 0 1 1 1 1 -1zm1 4l0 0 -1 0 -2 0 1 2 4 -2 0 -1 -1 -1 -1 2zm-2 24l0 0 0 0 0 1 0 1 2 1 0 -2 -2 -1zm15 117l0 0 -2 -7 -2 -7 -2 -6 -1 -7 0 -7 0 -6 1 -7 2 -7 2 -6 2 -6 3 -5 4 -5 4 -5 4 -5 4 -4 5 -4 5 -2 5 -1 6 -2 6 0 7 0 5 0 4 0 3 0 0 -1 0 -7 -5 -2 -4 0 -4 0 -5 0 -7 0 -7 0 -5 2 -5 1 -5 2 -5 4 -4 4 -5 5 -4 5 -3 5 -3 5 -4 12 -2 7 -1 7 0 6 0 7 1 7 3 13 3 7 2 6 3 6 2 3 0 -3 -1 -2zm-10 -130l0 0 1 1 1 1 1 -1 0 0 -1 0 -2 -1zm5 -21l0 0 -3 1 0 1 0 1 1 -1 0 -1 1 0 1 1 0 -1 0 -1zm3 194l0 0 -1 -2 -1 -1 -1 0 0 0 1 2 2 1zm-2 22l0 0 0 0 -1 0 0 0 1 2 2 2 1 0 0 -1 -2 -2 -1 -1zm18 -201l0 0 1 0 0 -2 -1 -1 -1 -1 0 -3 -4 0 -1 1 -1 1 -2 -1 -3 1 -2 1 0 1 0 1 3 -1 2 -2 2 0 2 1 0 2 -1 1 0 1 1 2 1 -2 2 0 2 0zm-7 -10l0 0 1 0 1 -1 -1 -2 0 -1 -1 0 -1 1 1 2 0 1zm0 194l0 0 0 0 1 -1 -1 -1 -1 0 0 0 0 1 0 1 1 0zm1 13l0 0 -1 0 -1 1 0 0 0 0 1 1 1 0 1 -1 0 0 -1 -1zm8 -7l0 0 -4 -2 -1 0 0 0 -1 0 1 1 1 1 2 1 1 2 1 1 0 -4zm0 -8l0 0 1 0 0 -1 0 0 0 -2 -1 1 -1 0 0 1 1 1zm1 -200l0 0 0 -1 0 -1 0 0 -1 0 0 1 1 1zm0 3l0 0 -1 0 0 2 0 0 1 0 0 -1 0 -1 0 0zm3 221l0 0 -1 -1 0 0 -1 0 -1 -1 -1 2 0 1 2 1 0 0 2 0 1 0 0 -2 -1 0zm5 -19l0 0 -1 0 -1 0 0 1 -2 7 0 0 1 1 0 1 -1 0 -1 0 -2 1 1 1 1 0 1 1 1 0 2 -1 0 -3 -1 -2 2 -3 1 -2 -1 -2zm1 -204l0 0 -1 0 0 1 1 0 1 -1 0 0 -1 0zm4 207l0 0 -1 1 1 1 0 0 2 0 0 -1 1 -1 -1 0 -2 0zm11 -2l0 0 2 1 1 -1 -1 -1 -1 0 -2 -1 -2 0 -1 -2 -3 1 0 2 0 0 1 0 0 3 0 1 0 1 1 1 2 -2 3 -3zm1 20l0 0 -1 0 -2 2 1 1 1 0 2 0 0 -2 0 -1 -1 0zm0 -17l0 0 -1 0 0 3 1 0 2 0 0 -1 0 -2 -2 0zm4 20l0 0 -1 0 -1 1 1 1 1 0 1 0 0 0 0 -1 -1 -1zm15 5l0 0 -1 0 -1 -1 -2 0 -4 -4 0 -2 2 -2 0 0 0 -1 1 0 0 0 1 -2 0 -2 2 -1 2 -2 -2 -1 -2 0 -1 -1 0 0 -2 2 -1 2 2 1 -1 2 -3 0 -3 0 -1 1 -2 2 1 2 1 0 2 -1 1 0 1 1 0 2 1 2 0 2 2 1 1 2 0 1 0 0 1 1 2 0 1 0 1 0 0 0 1 0 1 -1 5 -2 -3 -1 -3 0zm-13 -26l0 0 0 3 2 1 1 0 1 -1 -1 -2 0 -1 -1 -1 1 -1 -1 -1 -2 1 1 1 0 1 -1 0zm8 3l0 0 0 0 -1 1 0 0 -3 1 -2 3 1 1 0 0 3 -1 1 -3 0 0 0 0 1 0 0 -1 1 0 0 0 1 -1 0 0 1 -1 0 -2 -1 -1 -1 0 0 1 -1 1 0 2 0 0zm-2 -6l0 0 4 -1 -1 -1 -1 -1 0 -2 1 -1 -1 -1 0 0 0 2 -2 1 -2 2 0 1 2 1zm6 -5l0 0 1 1 0 2 1 1 1 1 1 -3 2 -3 -2 0 -1 0 -3 0 -2 1 1 0 1 0zm7 27l0 0 -4 -1 -2 -1 -2 2 2 4 5 0 3 -2 -2 -2zm-7 -13l0 0 1 1 2 1 0 -1 -1 -1 -2 0zm4 -7l0 0 -1 1 1 0 2 0 0 -1 0 0 -2 0zm1 11l0 0 1 4 5 1 1 -1 0 0 1 0 1 -2 -1 -1 0 0 -1 0 -1 0 -3 0 -3 -1zm1 -15l0 0 3 1 0 -1 0 0 0 -1 0 0 0 0 -3 1zm11 19l0 0 -1 -1 -1 0 -1 1 0 0 0 1 -1 0 -1 1 -1 1 -2 1 1 1 1 0 0 -1 1 0 1 0 2 -1 1 0 0 -1 0 0 1 -1 0 -1 0 0zm2 -18l0 0 -2 -1 -1 1 -4 0 -1 2 -1 1 0 0 1 0 2 0 3 -2 3 0 3 -1 -3 0zm-5 10l0 0 -2 0 -2 -1 2 3 0 0 6 -3 -3 -1 -1 2zm1 -13l0 0 2 -1 1 -2 -2 -1 -1 1 0 1 0 2zm11 10l0 0 1 -2 0 -1 0 -1 -3 -2 -2 1 0 3 -1 4 -1 4 4 -4 2 -2zm-3 -11l0 0 0 0 1 -1 0 0 -1 -2 -1 -1 0 0 0 0 -1 2 2 2zm3 17l0 0 -3 0 -1 1 0 1 1 1 2 0 1 -1 1 -2 -1 0zm3 4l0 0 -1 0 -1 1 0 2 0 0 1 0 1 -1 0 -1 1 0 0 0 -1 -1zm-2 -17l0 0 1 0 1 0 0 -1 -1 0 0 -1 -1 0 0 2 0 0zm3 5l0 0 0 0 0 0 -1 1 0 1 0 0 1 0 1 0 0 -1 -1 -1 0 0zm51 -193l0 0 0 2 -1 15 0 10 0 9 1 8 1 7 0 13 0 2 -1 2 -1 4 0 2 -3 2 -4 1 -1 1 -4 0 -8 1 -6 0 -5 0 -7 0 -7 0 -5 0 1 5 0 3 2 1 1 1 3 1 7 0 5 0 5 0 7 -1 7 0 5 1 5 0 6 -1 2 -1 2 -1 1 -2 1 -3 1 -8 -1 -8 -1 -7 0 -11 0 -11 0 -7 1 -7 -1 -11 -1 -2 -4 -6 -3 -4zm-46 181l0 0 -3 2 3 0 2 -2 0 0 0 -1 -2 1zm6 -6l0 0 -1 0 0 1 0 1 1 0 0 -1 1 -1 -1 0z"/>
  <path class="fil0" d="M2223 1023l-13 1 -13 -1 -4 -2 -1 -4 -1 -13 1 -13 -1 -12 1 -12 1 -5 4 -2 8 0 7 1 3 -1 2 -2 2 -15 0 -15 -1 -15 -1 -15 0 -15 0 -15 0 -15 1 -15 1 -15 -1 -15 -2 -1 -4 1 -8 0 -8 -2 -4 -1 -2 -4 0 -13 0 -12 -1 -13 1 -12 1 -4 4 -2 12 -1 11 2 23 -1 11 1 12 0 11 -1 23 -2 12 1 4 2 2 5 0 12 -2 13 1 13 0 12 -2 4 -3 2 -9 1 -10 0 -3 0 -2 1 0 14 1 14 -1 14 -1 13 1 42 1 13 -1 14 0 14 0 6 2 3 13 2 13 -1 13 -1 13 -2 4 0 2 -3 0 -17 1 -17 2 -4 3 -2 13 -1 12 1 13 -1 12 1 4 2 1 5 1 16 -1 17 0 16 -1 17 2 16 0 17 -2 4 -4 1 -13 1 -13 -1 -12 1 -26 0 -26 -1 -13 -1 -12 0 -13 0 -13 1 -13 1 -25 0zm201 -18l0 0 2 16 -1 17 -2 4 -4 1 -11 1 -13 -1 -13 1 -26 0 -25 -1 -13 -1 -13 0 -13 1 -12 0 -13 2 -26 -1 -13 1 -13 0 -4 -3 -1 -4 0 -5 13 -1 26 1 25 -3 25 0 13 1 26 1 13 0 25 -1 13 1 13 -1 6 0 4 -1 3 -2 1 -4 0 -5 0 -21 -2 -15 1 -16 0 -16 1 -17 0 -3 4 1 4 2 1 5 1 16 -1 17 0 16 -1 17zm-193 -180l0 0 1 0 0 -1 -1 0 0 1zm6 163l0 0 1 1 1 0 0 -1 0 -1 -1 0 -1 1 0 0zm2 -169l0 0 0 1 0 -1 0 -1 0 1zm1 48l0 0 1 0 0 -2 0 0 -1 0 0 1 0 1zm1 -10l0 0 0 2 2 1 1 1 0 1 0 1 1 1 0 -1 1 -1 0 -1 -1 -1 -1 0 -1 -1 -1 -2 -1 -1 0 1 0 0zm0 -26l0 0 1 1 1 2 1 1 1 1 0 0 0 -1 0 -1 0 -2 0 -1 0 -1 -2 0 -1 1 -1 0zm4 146l0 0 0 -2 -2 0 1 1 1 1zm5 -107l0 0 0 0 0 1 -1 0 1 1 1 0 1 -1 0 -2 -1 0 0 -1 -1 -1 -1 1 1 2zm3 63l0 0 -1 0 -1 2 0 2 1 1 1 -2 0 0 0 -3zm-2 -109l0 0 0 0 1 0 1 0 1 -1 -2 -1 -1 0 0 2zm3 63l0 0 0 1 0 1 0 0 1 -2 0 -1 -1 1zm1 -91l0 0 1 -1 0 0 0 0 1 -2 -1 0 -1 0 0 3zm2 188l0 0 -1 0 0 2 0 1 0 1 -1 0 1 2 1 0 2 1 1 0 2 0 1 -1 -1 -2 0 0 -1 0 -1 -2 0 -2 -1 -1 -1 0 -1 1zm0 -166l0 0 2 -1 2 0 1 0 0 0 1 -2 -2 -1 0 0 0 0 -3 1 -1 3zm2 27l0 0 -1 0 0 0 0 2 1 0 0 0 1 -1 -1 -1zm4 -15l0 0 -1 2 1 0 1 0 -1 -2 1 0 0 -1 0 -1 0 -1 -1 0 -1 1 0 2 1 0zm3 137l0 0 -2 0 -1 1 -1 1 0 1 3 0 1 -1 0 -2zm-3 -165l0 0 1 2 -1 -3 1 -1 0 -1 -1 1 0 0 0 2zm2 134l0 0 0 2 3 0 -1 -1 -1 -1 0 -2 0 0 -1 0 0 2zm5 16l0 0 -3 3 1 4 1 -3 3 -2 1 0 -1 -2 -2 -1 0 1 0 0zm8 13l0 0 1 0 0 0 0 0 1 -1 0 0 1 -1 0 0 -1 0 0 0 -1 1 0 0 0 0 -1 1zm0 8l0 0 1 0 0 -1 0 -2 0 1 0 0 0 1 -1 0 0 1zm4 11l0 0 -1 1 -1 0 0 1 2 0 2 0 -2 -2zm3 17l0 0 -1 2 0 1 0 0 3 0 2 -3 0 -1 1 -1 1 1 1 -1 0 -1 0 -1 -1 -1 -2 1 -2 4 -2 0zm5 -20l0 0 0 2 1 0 0 -1 0 -2 -1 -1 0 1 0 1zm3 25l0 0 -1 0 0 1 0 2 1 1 1 0 0 -1 0 -1 0 0 1 -1 0 -1 -1 0 -1 0 0 0 0 1 0 -1zm22 -190l0 0 3 -1 2 -1 2 -2 1 -3 -1 -6 1 -1 0 -14 -1 -12 1 -11 4 0 4 2 2 5 0 13 -1 12 1 13 -1 10 -1 5 -4 1 -8 1 -11 0 -3 0 0 2 -1 15 1 14 0 14 -1 14 1 41 0 14 0 7 -4 0 -7 -1 0 -13 1 -15 -1 -27 -1 -27 1 -14 1 -14 -1 -14 0 -6 7 0 7 0 7 -1zm-19 180l0 0 0 1 1 -1 0 -1 0 0 0 0 -1 0 0 1zm0 -12l0 0 1 1 2 0 1 2 2 1 -1 0 -1 2 -1 0 -2 1 2 1 2 0 0 1 1 0 1 0 0 -3 -1 -2 0 0 -1 -5 -5 0 0 1zm2 -11l0 0 0 0 0 1 1 -1 0 -2 0 0 -1 0 0 2zm6 18l0 0 3 0 1 -2 0 -3 -1 -2 1 -5 0 -2 -1 -2 -1 0 0 11 0 2 -1 1 -1 2zm0 9l0 0 1 2 3 0 0 -1 -1 -2 -1 -1 -1 1 -1 1zm7 -22l0 0 0 1 1 0 1 0 0 -2 1 -1 -1 0 -1 0 -1 2zm3 -8l0 0 0 2 2 0 0 2 0 1 1 3 1 1 1 -3 2 -3 2 1 0 -1 0 -2 -2 0 -1 0 -1 0 -1 -2 -1 -1 -2 0 -1 2zm6 19l0 0 1 2 0 -1 0 -1 -1 -1 -1 0 1 1zm4 9l0 0 0 -1 -1 -1 -1 1 -1 2 0 1 1 0 2 -1 0 -1zm0 -20l0 0 -1 -1 -1 -1 0 1 0 2 0 1 1 -1 1 -1zm1 23l0 0 1 0 0 1 1 0 0 0 0 -1 -1 -1 -1 0 0 1zm0 -6l0 0 1 2 1 1 1 -2 1 0 1 1 0 3 1 3 0 2 2 1 0 2 1 2 3 0 4 -2 -3 -2 -2 0 -3 -3 -1 0 0 -1 0 -5 2 -4 0 -4 3 -3 -1 -2 -2 -2 -2 3 -1 2 1 2 0 2 -2 0 -2 0 -2 2 -1 2zm2 -18l0 0 1 2 1 0 1 0 0 -2 -1 -1 0 -2 0 0 0 -2 -1 -1 -1 1 0 2 0 0 0 1 0 2zm9 -2l0 0 0 -1 -1 0 -1 1 0 1 0 2 -2 1 -2 2 -1 3 1 1 1 -2 1 -2 4 -3 1 -1 -1 -2zm-6 -5l0 0 1 1 2 1 1 0 2 -2 -1 -2 0 -3 1 -2 -1 -1 -1 0 0 1 -2 2 -2 3 0 2zm7 25l0 0 -2 3 2 4 4 1 2 -2 -2 -2 -1 -1 -1 -2 -2 -1zm-1 -30l0 0 1 0 1 0 0 4 1 2 1 1 1 -3 2 -4 -2 -1 -1 0 -2 -1 -2 2zm3 19l0 0 0 0 0 0 0 -2 -2 -1 1 2 1 1zm3 -10l0 0 -2 0 0 1 0 1 1 0 1 0 0 -1 0 -1zm-2 14l0 0 1 5 4 1 0 0 1 0 1 -2 0 -3 -4 0 -3 -1zm2 -19l0 0 2 2 2 -1 0 -1 0 0 -1 0 -3 0zm7 27l0 0 0 -2 -1 0 -1 -1 0 1 -4 4 1 1 4 -1 1 -1 0 -1zm2 -11l0 0 -2 -2 -2 2 -2 -3 1 4 5 -1zm-5 -9l0 0 3 0 3 0 2 1 2 -1 -2 -1 -1 -1 -1 0 0 0 -3 -1 -3 3zm6 -6l0 0 2 0 0 -2 -1 -2 -1 0 0 4zm8 11l0 0 -2 -2 -2 0 -1 3 -1 4 -2 5 5 -3 2 -4 1 -3zm-4 15l0 0 1 -1 1 -1 -1 -1 -2 -1 -1 1 -1 1 1 1 2 1zm3 4l0 0 -1 -1 0 0 -2 0 0 3 1 0 1 -1 1 -1zm-2 -30l0 0 1 2 1 0 0 -1 0 -2 -1 -2 -1 3zm4 18l0 0 0 0 1 0 0 -1 0 0 0 -1 -1 0 0 1 0 1zm1 -9l0 0 0 1 0 0 1 -1 0 -1 0 0 -1 0 0 1zm5 -1l0 0 2 3 2 1 1 -1 0 -1 -2 -1 -3 -1zm8 2l0 0 0 1 1 0 1 -1 -1 -1 -1 0 0 1z"/>
  <path class="fil0" d="M2460 1024l-11 -1 -7 -1 -3 -1 -2 0 -1 -1 -1 -3 -1 -7 1 -11 0 -15 1 -10 1 -7 0 -3 1 -1 1 -2 2 -1 5 0 7 2 5 0 2 -1 1 -1 1 -2 1 -3 1 -8 0 -12 0 -17 -1 -11 -1 -17 0 -29 1 -11 0 -17 1 -12 -1 -8 0 -3 -1 -1 -2 -2 -2 0 -5 -1 -7 1 -4 -1 -2 -1 -2 -1 0 -1 -1 -2 -1 -8 -1 -10 0 -14 1 -10 1 -7 0 -3 1 -2 1 -2 2 -1 8 -1 10 3 8 1 17 0 8 0 12 -1 5 -1 20 0 13 0 13 0 5 0 15 1 5 0 12 1 13 -1 13 0 7 -1 10 -1 8 1 2 0 1 2 1 2 2 16 0 22 0 10 0 22 -2 13 0 3 -1 2 -1 2 -2 1 -6 1 -9 -1 -6 0 -6 0 -9 -1 -8 -1 -1 -1 -1 -2 -1 -2 -1 -5 1 -7 0 -5 0 -4 0 -2 -1 0 -9 -1 -12 1 -9 1 -21 -1 -9 1 -2 0 -1 2 -1 1 -1 3 0 9 0 12 1 9 1 3 0 2 2 0 2 1 7 1 5 0 5 0 7 0 7 0 4 -1 5 1 9 1 2 1 2 1 0 2 1 8 -1 10 0 7 0 8 1 10 -1 7 -1 3 -2 3 -3 1 -6 0 -9 -1 -7 -1 -6 0 -4 1 -12 1 -3 0 -3 2 -3 3 0 4 0 8 0 6 1 5 0 9 0 1 1 2 1 1 1 1 9 -1 12 -1 24 0 7 1 8 0 2 0 1 1 1 0 1 -2 1 -6 0 -4 -1 -5 1 -7 1 -2 1 -1 1 -1 3 -1 6 0 8 0 6 0 11 -2 4 0 7 1 2 1 2 1 1 2 0 3 1 8 -2 11 -1 9 1 8 0 10 0 9 1 8 1 11 -1 8 -1 3 -1 2 -1 1 -3 1 -7 1 -6 0 -5 0 -8 -1 -58 0 -11 -1 -8 0 -7 0 -11 1 -7 0 -18 0 -16 0 -10 -1 -15 1zm-11 -23l0 0 -1 -1 -2 -1 0 1 0 0 1 1 2 0zm222 23l0 0 1 6 -1 8 -1 3 -1 2 -1 1 -3 1 -7 1 -5 0 -6 -1 -8 0 -58 0 -6 -1 -12 -1 -8 1 -11 1 -20 0 -21 0 -10 -1 -8 0 -7 1 -5 0 -16 -3 -1 0 -2 -2 0 -2 -1 -5 7 0 7 -1 13 1 20 0 5 0 21 0 11 -1 7 -1 12 1 6 1 66 0 6 1 6 0 9 -1 3 -2 2 -1 2 -1 1 -1 1 -2 1 -2 1 -2 0 -4 1 -8 0 -7 -1 -6 0 -16 -1 -12 0 -7 1 -7 1 -5 0 -2 5 1 2 0 2 2 1 2 0 3 1 8 -2 11 -1 8 1 8 0 11 0 9 1 8 0 5zm-214 -260l0 0 0 -1 -1 0 0 1 0 1 1 0 0 -1 0 0zm6 6l0 0 -1 -4 -1 -1 -1 0 0 1 1 1 2 3zm0 227l0 0 1 2 1 -1 1 -1 0 -1 1 0 -1 -1 -2 0 0 0 -1 -1 0 1 0 2zm3 -225l0 0 0 0 1 0 1 -1 0 0 -1 -1 -1 0 0 1 0 1zm0 8l0 0 0 2 2 -2 0 -2 -1 0 -1 2zm3 203l0 0 -1 0 0 0 0 0 0 1 0 0 1 0 0 -1 0 0zm1 -200l0 0 0 2 1 0 1 -1 0 -1 -1 -1 -1 1zm0 -16l0 0 1 0 0 -1 0 -1 0 0 -1 0 0 2zm0 4l0 0 1 2 1 1 1 -1 3 -3 3 -3 -4 0 -4 1 -1 3zm9 11l0 0 -2 -2 -3 -2 -1 -1 -2 -1 1 2 1 1 1 0 2 3 3 0zm-3 -18l0 0 1 1 1 0 1 0 0 -2 -1 -1 -1 0 -1 0 0 2zm2 23l0 0 2 1 -1 -2 -2 -1 -1 1 0 1 2 0zm-1 -30l0 0 0 2 1 0 1 -1 0 -1 0 0 -1 0 -1 0zm6 16l0 0 -5 -1 1 2 2 -1 0 2 1 2 1 -4zm0 20l0 0 1 -1 1 -1 0 0 0 -1 1 0 0 -1 -1 0 -1 0 0 1 -1 1 0 1 -2 2 0 -1 1 0 0 -1 0 -1 1 0 0 -3 0 -1 -2 2 -3 2 1 1 1 1 1 1 0 1 0 0 0 0 1 -1 0 -1 1 0zm0 -10l0 0 -1 0 -1 1 0 1 1 0 1 0 1 0 0 -1 -1 -1zm0 -16l0 0 1 1 1 -1 2 0 2 -1 -1 0 0 -1 -2 0 -1 0 -1 0 -1 0 0 2zm0 4l0 0 1 1 2 1 2 2 0 -4 -2 -3 -1 0 -2 1 0 2zm2 201l0 0 -1 0 0 0 1 0zm4 -178l0 0 1 0 1 0 0 0 2 -1 -2 0 -1 0 -1 -1 -1 0 0 0 0 0 -1 0 0 0 0 1 0 0 -1 1 0 0 -1 0 0 1 -1 0 1 0 1 2 1 -1 0 -1 1 0 1 -1zm-2 -10l0 0 -1 1 0 1 0 1 -1 0 1 0 0 0 1 0 0 -1 1 -1 0 0 1 0 2 0 1 0 1 -1 2 -1 0 -1 0 0 -1 0 -2 0 -2 2 -2 0 -1 0 0 0zm4 3l0 0 1 -1 0 -1 -1 0 -1 1 0 1 -1 0 -1 2 -1 1 -1 0 0 1 1 -1 0 0 1 0 1 -1 0 -1 2 -1zm-4 -6l0 0 0 0 1 1 0 -2 0 0 0 -1 0 -1 -1 0 0 1 0 1 0 1zm2 31l0 0 -2 0 0 0 0 1 1 1 1 -1 0 -1zm0 -32l0 0 1 1 0 1 2 0 1 -1 2 -1 0 0 0 -1 2 -2 0 1 -1 1 -1 2 2 1 1 1 1 -1 2 1 0 2 -1 2 3 2 1 -1 0 -1 -1 -1 0 -1 1 0 1 0 0 0 1 1 1 -1 0 -1 2 0 0 -2 2 0 1 0 0 -4 -1 -3 -2 2 0 2 -1 2 0 1 -1 1 0 -1 -1 0 0 0 -1 0 0 1 -1 0 -2 -2 -3 -1 -2 -2 2 0 1 2 1 0 1 0 1 1 1 0 1 -2 0 -2 -2 0 -1 0 0 -1 0 -1 1 0 0 -2 1 0 0 -1 1 -2 -2 -2 1 -1 0 -1 0 -1 1 -1 -7 -2 -2 -1 -2 0 0 1 1 0 0 1 0 0 0 0 3 2 3 3 1 2 0 0 1 1 -2 2 -1 1 -2 1 -2 0 -3 3 -2 0 -2 0 0 2zm12 24l0 0 -1 -2 -4 1 -2 0 -1 -1 -2 0 -1 2 0 1 7 0 1 -1 1 0 1 1 1 1 0 -2zm-11 -37l0 0 2 3 2 2 1 0 1 -1 0 -2 0 -2 -2 -2 0 0 -1 0 0 0 0 -1 -1 0 -2 0 0 3zm0 24l0 0 2 0 1 -1 0 0 0 -1 0 0 -1 0 -1 1 0 0 -1 1zm2 6l0 0 -1 0 -1 0 0 0 1 2 1 0 0 0 1 -1 -1 -1zm2 25l0 0 1 -1 0 -1 -2 0 0 1 1 1 0 0zm5 -13l0 0 -4 1 0 4 0 1 1 0 1 -1 0 -2 1 -1 1 -2zm-2 22l0 0 0 1 1 0 0 -2 0 -2 -1 2 0 1zm8 -16l0 0 0 -1 -1 0 0 0 0 0 0 1 1 0 0 0 0 0zm0 -31l0 0 0 -1 2 0 0 0 0 1 0 0 -2 1 0 0 0 -1zm4 20l0 0 0 -1 -1 -1 -1 1 -1 1 1 2 1 0 1 -1 0 -1zm-2 -26l0 0 1 1 0 -1 1 -2 0 -1 -1 0 -1 1 0 2zm6 18l0 0 -1 1 -1 0 -1 -1 -1 0 0 1 1 0 2 1 1 -2zm-4 190l0 0 1 0 0 0 1 0 0 -1 0 -1 -1 0 0 1 -1 1zm5 19l0 0 -3 -2 -1 1 0 0 1 2 2 0 0 0 1 -1zm-1 -52l0 0 0 -2 -1 0 -1 0 0 2 0 1 1 0 1 -1zm-2 -184l0 0 1 1 1 0 0 0 2 0 1 -1 0 -1 -1 0 -1 1 -1 0 -1 -1 -1 1zm1 227l0 0 -1 0 1 1 1 0 0 -1 -1 0zm2 -179l0 0 -1 0 -1 2 0 0 1 0 1 0 0 0 0 -2 0 0zm0 182l0 0 0 0 0 -1 -1 1 0 0 0 1 1 0 0 -1zm3 -5l0 0 -2 -1 -2 0 0 0 0 1 2 0 2 0zm-2 -191l0 0 0 -1 1 0 -2 0 0 1 1 2 3 1 -2 -1 -1 -2zm2 -31l0 0 -1 1 -1 1 1 1 1 0 1 0 0 -1 0 -1 -1 -1zm4 220l0 0 -1 -1 -1 0 -1 1 0 1 1 1 1 0 1 0 0 -2zm-3 -7l0 0 0 0 1 -1 0 -1 -1 0 0 2zm3 14l0 0 -1 0 -1 0 0 0 0 1 0 0 1 0 0 0 1 -1zm-2 -204l0 0 2 0 1 0 1 2 0 -3 -2 -1 -1 0 -1 0 0 2zm0 166l0 0 1 2 0 -2 0 -1 1 -1 0 -1 -1 0 -1 1 0 2zm2 -161l0 0 0 -1 -1 -1 0 2 1 0 0 0 0 0zm0 -13l0 0 1 1 0 0 0 0 1 -1 -1 0 -1 0zm3 198l0 0 -1 2 1 1 0 0 1 0 0 -2 -1 -1zm0 -222l0 0 1 1 0 3 3 1 2 0 2 1 5 0 2 -2 -2 0 -2 0 -2 1 -3 -1 -1 -1 0 -2 2 -1 0 -1 -1 -2 -1 1 -2 0 -2 -1 -1 0 0 3zm2 22l0 0 0 0 1 0 0 -2 -1 0 0 0 -1 1 1 1zm1 15l0 0 1 -2 -2 -3 0 3 0 3 1 0 0 -1zm8 -24l0 0 -3 0 0 1 1 1 0 0 -1 -1 -1 0 0 0 0 0 0 -1 -1 -1 0 -2 1 0 -1 -1 0 0 -1 1 -2 0 -1 0 1 2 1 0 1 2 0 3 1 1 0 2 -1 2 0 2 0 0 1 1 0 -1 2 -3 1 -3 0 -2 1 0 1 -1 0 -2zm-6 28l0 0 -1 -1 -1 0 1 2 1 0 0 -1zm1 184l0 0 1 0 1 -2 0 -2 -1 2 -1 2zm2 16l0 0 0 2 0 1 1 -1 1 0 0 -2 -1 -1 -1 1zm0 -242l0 0 2 0 1 -1 1 0 2 0 -1 -1 0 -2 -1 -1 1 -1 -2 -1 -2 1 0 1 0 1 -1 1 0 3zm1 -4l0 0 1 -1 2 0 0 0 -1 1 -2 0zm2 220l0 0 0 1 1 -1 0 -1 0 0 -1 0 0 0 0 1zm5 -205l0 0 -2 0 -3 2 2 1 1 0 2 -1 0 -2zm-4 218l0 0 0 0 0 1 2 1 2 -2 -2 -1 -2 1zm3 11l0 0 -1 0 0 -1 -1 2 0 1 1 0 1 -2zm69 -115l0 0 -1 18 0 7 1 5 0 3 -3 0 -5 1 -4 2 -2 3 -2 5 0 6 -2 -1 -4 0 -7 -1 -6 0 -4 0 -5 0 -6 0 -4 0 -4 1 -2 2 -1 4 1 5 -6 1 -3 0 0 -4 -1 -7 -1 -5 0 -7 3 0 6 -1 9 -1 6 0 6 1 4 0 5 1 1 0 7 -1 3 -1 2 0 2 -2 2 -3 3 -4 0 -4 1 -9 0 -17 0 -7 0 -2 4 1 2 0 2 1 2 1 0 2 1 7zm-20 -67l0 0 -1 4 0 8 -4 0 -9 0 -6 -1 -6 0 -8 1 -3 0 -1 2 -1 1 0 2 0 8 -6 0 -5 -1 0 -7 0 -11 0 -7 12 0 6 1 9 0 9 -1 7 -1 5 0 2 0 0 2zm-47 -23l0 0 -2 -2 0 2 0 2 1 1 0 -1 1 -2zm-2 190l0 0 3 2 2 -1 0 0 0 -1 -2 0 -3 0zm4 -225l0 0 1 1 1 1 1 -1 -1 -2 1 -1 -1 0 -1 0 -1 2zm2 11l0 0 0 -1 -1 1 1 2 0 -2zm1 216l0 0 1 1 2 0 -1 -1 -2 -1 0 1zm2 -190l0 0 1 1 1 -1 -1 0 0 0 -1 0zm3 -7l0 0 -1 2 0 1 0 1 1 0 1 0 1 -3 2 2 1 0 1 -2 1 -2 1 -3 -1 2 -1 1 -2 1 -1 0 -2 -2 -2 -1 1 3zm2 -28l0 0 0 1 2 2 3 -2 -2 -1 -1 -1 -1 -1 -1 1 0 1zm2 240l0 0 0 0 1 0 1 0 0 -1 -1 0 -1 0 0 1zm1 -15l0 0 0 2 1 0 1 0 0 -2 -1 -1 0 -1 -1 1 0 1zm3 -215l0 0 1 3 1 -4 -2 1zm0 221l0 0 1 1 2 0 0 0 1 -1 -1 -1 -2 0 -1 1zm0 -227l0 0 1 2 0 0 3 0 2 -1 1 1 2 0 1 0 -2 -2 -2 0 -2 -3 -3 1 -1 2zm6 237l0 0 -2 0 -1 -1 -1 0 0 1 2 1 1 0 1 -1zm-2 -31l0 0 0 0 1 0 0 0 0 -1 -1 0 0 0 0 1zm2 25l0 0 1 0 1 0 1 0 0 -1 0 0 -1 -1 -1 1 -1 1zm3 6l0 0 0 -1 -1 0 0 0 -1 1 2 1 0 -1zm1 -230l0 0 -1 0 0 1 1 1 1 -1 2 0 0 -1 -1 -1 -2 1zm2 5l0 0 -1 0 -1 0 0 1 1 0 1 -1zm-2 -14l0 0 2 -1 1 -3 0 -2 -1 0 -1 0 0 2 -1 2 0 2zm5 232l0 0 2 0 0 -2 -1 -1 -1 0 0 3zm2 -226l0 0 2 0 0 -2 0 0 0 0 -1 1 -1 1zm3 4l0 0 -2 0 0 0 0 1 1 1 1 0 0 -2zm1 11l0 0 -2 0 0 2 0 1 2 0 1 -2 -1 -1zm-2 198l0 0 0 2 2 1 1 -1 -1 -2 -1 -1 -1 1zm6 24l0 0 -1 -1 -3 0 -2 -2 1 4 3 1 0 0 0 -1 2 -1zm-5 -32l0 0 1 2 0 1 0 2 1 -1 2 0 1 -2 0 -1 -2 -2 -2 0 -1 1zm1 -10l0 0 1 1 1 -1 -1 -1 0 0 -1 1zm6 31l0 0 -1 -2 -2 -1 0 -1 -1 0 0 1 0 1 0 1 0 2 1 2 1 0 1 -1 1 -1 0 -1zm-2 5l0 0 -1 0 0 0 -1 0 0 1 0 0 1 0 0 0 1 -1zm0 -13l0 0 -1 1 0 1 0 1 1 0 2 0 2 0 -3 -2 0 -1 -1 0zm2 -15l0 0 1 -1 1 -1 -1 -1 0 0 -1 1 0 2zm1 1l0 0 -1 1 1 1 0 1 0 -1 1 -1 -1 -1zm2 32l0 0 -1 -1 0 -1 0 -2 0 0 -1 0 0 2 0 0 0 2 1 2 1 0 0 -2zm1 -237l0 0 0 1 1 0 0 0 0 -2 -1 0 0 0 0 1zm0 202l0 0 0 0 1 0 0 -1 0 -1 0 0 -1 1 0 1zm3 -212l0 0 0 0 1 -1 0 0 -1 -1 0 0 0 2zm1 10l0 0 1 1 1 0 0 0 0 -1 -1 -1 0 0 -1 1zm0 209l0 0 1 1 1 0 1 0 1 1 0 1 0 1 0 1 1 0 0 0 2 -1 1 0 0 -1 1 -2 0 -2 -2 -1 -3 0 -3 1 -1 1zm8 22l0 0 -1 -1 -2 -2 -1 -1 -1 2 1 3 3 0 1 -1zm-4 -29l0 0 2 1 3 -1 1 1 2 0 -1 -1 -1 -1 -1 1 0 0 -3 -2 -2 2zm9 33l0 0 -1 -2 0 -1 -2 0 -1 2 0 2 1 1 2 0 1 -2zm0 -23l0 0 0 -1 -1 -1 -1 2 2 0zm2 7l0 0 -1 -1 -1 -1 -1 -2 -1 2 1 1 0 0 -1 2 1 0 1 0 2 -1zm-2 -12l0 0 0 0 1 1 0 0 1 -1 -1 -1 -1 0 0 0 0 1zm2 15l0 0 1 0 1 0 0 -1 0 0 -1 0 0 0 -1 1zm38 -144l0 0 4 -2 2 -2 0 -2 1 -4 1 -3 0 -4 2 -13 0 -14 -1 -14 0 -26 5 0 2 1 1 2 1 2 2 16 0 21 0 19 0 8 -1 11 -1 7 0 3 -1 2 -1 2 -2 0 -6 1 -21 0 -9 0 -8 -1 -1 -2 -1 -1 -1 -2 -1 -5 8 0 15 1 8 -1 3 0zm-31 142l0 0 1 2 0 -2 1 -2 1 -1 1 0 -2 -1 -2 2 0 2zm8 -13l0 0 0 0 0 1 1 0 0 -1 1 0 0 -2 -1 1 -1 1zm2 1l0 0 0 1 -1 1 2 1 1 1 0 -1 0 -1 -1 0 0 -1 0 -1 -1 0z"/>
  <path class="fil0" d="M230 1418l164 -283 44 0 -65 111c51,24 99,-2 121,-49 27,-55 -13,-96 -62,-96 -75,0 -87,76 -87,76l-37 -5c0,0 17,-109 124,-109 165,0 129,216 -9,218 21,21 23,52 -1,92l-65 112c-6,11 -8,32 6,39l-18 32c-36,-18 -38,-58 -20,-89l64 -112c23,-40 13,-68 -26,-84l-3 -2 -86 149 -44 0z"/>
  <path class="fil0" d="M542 1336l-5 7c-20,35 -4,52 23,52 31,0 71,-29 103,-65l2 -4c6,3 14,10 17,16 -36,42 -85,80 -135,80 -52,0 -75,-43 -48,-89l46 -79c18,-32 47,-50 82,-50 36,0 58,30 35,70l-7 11c-32,57 -85,62 -113,51zm12 -22l0 0c17,6 45,7 66,-29l6 -11c26,-45 -18,-52 -44,-9l-28 49z"/>
  <path class="fil0" d="M560 1510l174 -302 44 0 -9 15c44,-40 110,-17 69,53l-48 82c-5,10 -11,22 -18,33 27,-9 55,-33 80,-61l3 -4c6,2 14,9 16,16 -36,41 -77,79 -140,80l-3 0c-40,0 -48,-35 -48,-35l25 -12c8,16 24,13 31,0l66 -114c12,-20 -19,-44 -68,22l-130 227 -44 0z"/>
  <path class="fil0" d="M1061 1326c6,3 13,10 16,16 -36,42 -77,80 -114,80 -22,0 -35,-12 -37,-28 -21,17 -43,28 -61,28 -35,0 -48,-30 -30,-62l62 -106c18,-32 51,-50 74,-50 29,0 48,25 46,44l25 0 -71 123c-10,18 -4,24 5,24 20,0 50,-29 82,-65l3 -4zm-188 45l0 0c-10,18 -4,24 5,24 18,0 44,-19 71,-61l34 -60c21,-39 -25,-50 -49,-9l-61 106z"/>
  <path class="fil0" d="M1169 1326c6,3 13,10 16,16 -36,42 -78,80 -114,80 -35,0 -48,-30 -29,-62l87 -152 44 0 -94 163c-10,18 -4,24 5,24 20,0 50,-29 82,-65l3 -4zm9 -191l0 0c15,0 26,11 26,26 0,14 -11,25 -26,25 -14,0 -25,-11 -25,-25 0,-15 11,-26 25,-26z"/>
  <path class="fil0" d="M1266 1280c5,-9 3,-18 -3,-25l-6 -7c-35,47 -51,69 -72,94 -6,-5 -13,-10 -16,-16 28,-33 54,-70 74,-97l-4 -5c-16,-21 -14,-45 11,-68l23 25c-9,9 -9,17 -3,25l25 30c14,17 21,32 6,59l-44 76c-10,18 -4,24 5,24 20,0 50,-29 82,-65l3 -4c6,3 13,10 16,16 -36,42 -78,80 -114,80 -35,0 -48,-30 -30,-62l47 -80z"/>
  <path class="fil0" d="M1492 1379c17,12 39,16 62,12 -25,-65 11,-150 98,-150 24,0 43,9 58,23l61 -61c6,-84 25,-135 80,-135 41,0 54,44 10,86l-50 50c-1,20 -2,45 -2,72 0,102 -48,186 -140,186 -49,0 -83,-20 -102,-47 -33,8 -64,2 -88,-19l13 -17zm96 -2l0 0c10,-6 19,-13 29,-22l73 -71c-10,-8 -24,-13 -38,-13 -57,0 -82,60 -64,106zm14 23l0 0c14,16 36,27 67,27 67,0 100,-64 100,-151l0 -32 -42 43c15,31 12,70 -17,94l-18 -18c19,-19 21,-40 14,-57l-66 65c-13,12 -25,22 -38,29zm213 -239l0 0 17 -18c28,-26 25,-42 12,-42 -14,0 -23,18 -29,60z"/>
  <path class="fil0" d="M2050 1326c6,3 14,10 16,16 -36,42 -77,80 -113,80 -36,0 -49,-30 -30,-62l57 -99c18,-32 -11,-43 -78,41l-67 116 -44 0 174 -302 44 0 -70 121c22,-23 42,-33 61,-33 25,0 43,24 24,57l-63 110c-10,18 -5,24 5,24 19,0 50,-29 81,-65l3 -4z"/>
  <path class="fil0" d="M2158 1384c-59,74 -165,39 -110,-55l19 -32 22 -38c25,-43 51,-57 85,-57 41,0 65,43 39,89l-42 71c22,0 47,-11 66,-32l3 -4c6,3 14,10 17,16 -23,26 -64,42 -90,42l-9 0zm-13 -55l0 0 2 0 32 -54c26,-46 -16,-66 -46,-14l-21 36 -33 57c-26,45 24,52 44,17l1 -1c-3,-4 -5,-9 -5,-15 0,-14 12,-26 26,-26z"/>
  <path class="fil0" d="M2134 1510l175 -302 43 0 -9 15c45,-40 111,-17 70,53l-48 82c-6,10 -11,22 -18,33 26,-9 55,-33 80,-61l3 -4c6,2 13,9 16,16 -36,41 -77,79 -141,80l-2 0c-40,0 -48,-35 -48,-35l25 -12c8,16 24,13 31,0l66 -114c11,-20 -19,-44 -68,22l-130 227 -45 0z"/>
 </g>
</svg>
