<?xml version="1.0" encoding="UTF-8"?>
<!DOCTYPE svg PUBLIC "-//W3C//DTD SVG 1.1//EN" "http://www.w3.org/Graphics/SVG/1.1/DTD/svg11.dtd">
<!-- Creator: CorelDRAW X7 -->
<svg xmlns="http://www.w3.org/2000/svg" xml:space="preserve" width="0.734303in" height="0.627012in" version="1.1" style="shape-rendering:geometricPrecision; text-rendering:geometricPrecision; image-rendering:optimizeQuality; fill-rule:evenodd; clip-rule:evenodd"
viewBox="0 0 546 466"
 xmlns:xlink="http://www.w3.org/1999/xlink">
 <defs>
  <style type="text/css">
   <![CDATA[
    .fil1 {fill:#74CBF2}
    .fil0 {fill:#777876}
   ]]>
  </style>
 </defs>
 <g id="Layer_x0020_1">
  <metadata id="CorelCorpID_0Corel-Layer"/>
  <path class="fil0" d="M545 143l-69 21 -35 30 -45 104 -14 42 -4 0 0 1 -9 0 -73 94 -13 1c-1,0 -93,-69 -116,-85l-60 3 -12 17c11,10 18,24 18,41 0,29 -25,54 -55,54 -30,0 -54,-25 -54,-54 0,-30 24,-55 54,-55 7,0 14,2 20,3l11 -13c-28,-46 -58,-91 -85,-137 -2,-2 -6,-5 -2,-8l424 -18 0 0 4 -5c13,-6 26,-22 39,-28 23,-11 45,-12 69,-24 8,4 9,9 7,16l0 0zm-345 206c28,21 69,52 87,65l56 -72 -143 7z"/>
  <path class="fil1" d="M79 173l275 -18c6,0 12,-3 13,-7 1,-5 0,-8 -3,-11 -45,-33 -118,-45 -118,-112l-1 -1c-11,-9 -29,-25 -45,-24 -1,0 -3,0 -4,1 -44,13 -142,150 -128,169 3,4 9,3 11,3l0 0z"/>
 </g>
</svg>
