<?xml version="1.0" encoding="UTF-8"?>
<!DOCTYPE svg PUBLIC "-//W3C//DTD SVG 1.1//EN" "http://www.w3.org/Graphics/SVG/1.1/DTD/svg11.dtd">
<!-- Creator: CorelDRAW X7 -->
<svg xmlns="http://www.w3.org/2000/svg" xml:space="preserve" width="2.09786in" height="1.22335in" version="1.1" style="shape-rendering:geometricPrecision; text-rendering:geometricPrecision; image-rendering:optimizeQuality; fill-rule:evenodd; clip-rule:evenodd"
viewBox="0 0 1435 837"
 xmlns:xlink="http://www.w3.org/1999/xlink">
 <defs>
  <style type="text/css">
   <![CDATA[
    .fil1 {fill:#2B3B3F}
    .fil0 {fill:#AA363B}
    .fil2 {fill:#FFF6E4}
    .fil3 {fill:#4B7C8F;fill-rule:nonzero}
   ]]>
  </style>
 </defs>
 <g id="Objects">
  <metadata id="CorelCorpID_0Corel-Layer"/>
  <path class="fil0" d="M158 517c373,-115 746,-123 1119,0 0,77 0,155 0,232 -373,-119 -746,-103 -1119,0 0,-77 0,-155 0,-232z"/>
  <path class="fil1" d="M1220 261c-13,-6 -26,-13 -38,-22l26 -35c12,8 24,16 38,22l-26 35zm-70 -52l0 0c-10,-11 -19,-23 -28,-35l25 -35c9,12 18,24 29,35l-26 35zm-55 -73l0 0c-9,-13 -17,-26 -26,-38l25 -36c9,12 18,25 27,39l-26 35zm-55 -72l0 0c-13,-12 -26,-19 -41,-19l26 -35c14,0 28,7 40,18l-25 36z"/>
  <path class="fil1" d="M1169 332c-13,-6 -26,-13 -38,-22l26 -36c12,9 24,17 38,23l-26 35zm-70 -52l0 0c-10,-11 -19,-23 -28,-35l25 -35c9,12 18,24 29,35l-26 35zm-55 -73l0 0c-9,-13 -17,-26 -26,-38l25 -36c9,12 18,25 27,39l-26 35zm-55 -72l0 0c-13,-12 -26,-19 -41,-19l26 -36c14,1 28,8 40,19l-25 36z"/>
  <path class="fil1" d="M1118 403c-13,-6 -26,-13 -37,-22l25 -36c12,9 24,17 38,22l-26 36zm-70 -52l0 0c-10,-11 -19,-23 -28,-35l25 -35c9,12 18,23 29,35l-26 35zm-55 -73l0 0c-9,-14 -17,-27 -26,-38l25 -36c9,12 18,25 27,38l-26 36zm-55 -72l0 0c-13,-12 -26,-19 -41,-19l26 -36c15,1 28,8 40,19l-25 36z"/>
  <path class="fil1" d="M1040 64l-26 35c10,9 20,21 29,34l26 -35c-10,-13 -19,-25 -29,-34zm-51 71l0 0 -26 35c10,9 20,21 29,34l26 -35c-10,-14 -19,-25 -29,-34z"/>
  <path class="fil1" d="M1095 136l-25 35 0 1c8,13 17,25 26,38l26 -36c-10,-12 -18,-25 -27,-38zm-25 110l0 0 0 -2 1 1 -1 1zm0 -75l0 0 0 1 0 0 0 -1zm0 73l0 0 0 2 -25 35c-9,-13 -18,-26 -26,-39l25 -35c8,12 17,25 26,37z"/>
  <path class="fil1" d="M1150 209l-25 36c10,11 20,21 32,30l25 -36c-11,-9 -22,-19 -32,-30zm-51 71l0 0 -25 36c10,10 20,21 32,29l25 -35c-11,-9 -22,-19 -32,-30z"/>
  <path class="fil1" d="M1190 379l25 -36c-17,-1 -32,-5 -46,-11l-25 35c14,6 29,10 46,12zm51 -71l0 0 25 -36c-17,-1 -32,-5 -46,-11l-25 36c14,5 29,9 46,11z"/>
  <polygon class="fil1" points="1025,10 1012,0 699,434 712,444 "/>
  <path class="fil1" d="M214 261c14,-6 27,-13 38,-22l-25 -35c-12,8 -24,16 -38,22l25 35zm71 -52l0 0c10,-11 19,-23 28,-35l-25 -35c-9,12 -19,24 -29,35l26 35zm55 -73l0 0c9,-13 17,-26 26,-38l-26 -36c-8,12 -17,25 -26,39l26 35zm55 -72l0 0c13,-12 26,-19 40,-19l-25 -35c-15,0 -28,7 -40,18l25 36z"/>
  <path class="fil1" d="M265 332c14,-6 27,-13 38,-22l-25 -35c-12,8 -24,16 -38,22l25 35zm71 -52l0 0c10,-11 19,-23 28,-35l-25 -35c-9,12 -19,24 -29,35l26 35zm55 -73l0 0c9,-13 17,-26 26,-38l-26 -36c-8,12 -17,25 -26,39l26 35zm55 -72l0 0c13,-12 26,-19 40,-19l-25 -36c-15,1 -28,8 -40,19l25 36z"/>
  <path class="fil1" d="M316 403c14,-6 27,-13 38,-22l-25 -36c-12,9 -24,17 -38,22l25 36zm71 -52l0 0c10,-11 19,-23 28,-35l-25 -35c-9,12 -19,23 -29,35l26 35zm55 -73l0 0c9,-14 17,-27 26,-38l-26 -36c-8,12 -17,25 -26,38l26 36zm55 -72l0 0c13,-12 26,-19 40,-19l-25 -36c-15,1 -28,8 -40,19l25 36z"/>
  <path class="fil1" d="M395 64l26 35c-10,9 -20,21 -30,34l-25 -35c9,-13 19,-25 29,-34zm51 71l0 0 26 35c-10,9 -20,21 -30,34l-25 -35c9,-14 19,-25 29,-34z"/>
  <path class="fil1" d="M365 171l0 1 0 0 0 -1zm0 75l0 0 0 -2c9,-12 17,-25 26,-37l25 35c-8,13 -17,26 -26,39l-25 -35zm-25 -110l0 0 25 35 0 1c-9,13 -17,25 -26,38l-26 -36c9,-12 18,-25 27,-38zm25 108l0 0 0 2 -1 -1 1 -1z"/>
  <path class="fil1" d="M285 209l25 36c-10,11 -21,21 -32,30l-26 -36c12,-9 23,-19 33,-30zm51 71l0 0 25 36c-10,10 -21,21 -32,29l-26 -35c12,-9 23,-19 33,-30z"/>
  <path class="fil1" d="M245 379l-25 -36c16,-1 31,-5 45,-11l26 35c-14,6 -29,10 -46,12zm-51 -71l0 0 -25 -36c16,-1 31,-5 45,-11l26 36c-14,5 -29,9 -46,11z"/>
  <polygon class="fil1" points="410,10 423,0 736,434 722,444 "/>
  <path class="fil0" d="M717 660c116,0 211,-94 211,-210 0,-117 -95,-211 -211,-211 -116,0 -210,94 -210,211 0,116 94,210 210,210z"/>
  <path class="fil2" d="M717 626c97,0 177,-79 177,-176 0,-97 -80,-177 -177,-177 -97,0 -176,80 -176,177 0,97 79,176 176,176z"/>
  <path class="fil0" d="M0 604c44,-13 89,-26 133,-36l0 236c-44,9 -89,20 -133,33l71 -132 -71 -101z"/>
  <path class="fil0" d="M1435 604c-45,-13 -89,-26 -133,-36l0 236c44,9 88,20 133,33l-71 -132 71 -101z"/>
  <path class="fil3" d="M770 585l-26 0 0 -166c-6,6 -15,12 -25,18 -10,6 -19,10 -27,13l0 -25c14,-7 27,-15 38,-25 11,-10 19,-19 23,-28l17 0 0 213z"/>
 </g>
</svg>
