<?xml version="1.0" encoding="UTF-8"?>
<!DOCTYPE svg PUBLIC "-//W3C//DTD SVG 1.1//EN" "http://www.w3.org/Graphics/SVG/1.1/DTD/svg11.dtd">
<!-- Creator: CorelDRAW X7 -->
<svg xmlns="http://www.w3.org/2000/svg" xml:space="preserve" width="3.14803in" height="1.71267in" version="1.1" style="shape-rendering:geometricPrecision; text-rendering:geometricPrecision; image-rendering:optimizeQuality; fill-rule:evenodd; clip-rule:evenodd"
viewBox="0 0 3492 1900"
 xmlns:xlink="http://www.w3.org/1999/xlink">
 <defs>
  <style type="text/css">
   <![CDATA[
    .fil0 {fill:#4C4C4D;fill-rule:nonzero}
   ]]>
  </style>
 </defs>
 <g id="__x0023_Layer_x0020_1">
  <metadata id="CorelCorpID_0Corel-Layer"/>
  <path class="fil0" d="M3000 822c2,-3 59,-14 54,-37 -135,-24 -262,18 -367,87 -6,-6 -9,-13 -15,-19 -5,-3 -11,-8 -16,-2 -62,-85 -119,-173 -178,-258 4,-2 7,-5 11,-7 2,-3 5,-7 2,-11l-27 -40c-7,-14 -16,2 -24,3 -3,-3 -6,-6 -8,-11 -8,2 -12,-9 -15,-15l7 -4c1,-10 -3,-19 -6,-27 2,-10 -2,-21 8,-27 5,0 9,2 12,6 7,-3 11,-13 13,-20 20,-29 30,-63 32,-99 -2,-35 5,-73 -14,-103 -6,-12 -21,-18 -30,-26 -9,-19 -18,8 -29,7 -10,-9 -10,-23 -21,-33 2,-5 -8,-12 -1,-15 -6,-28 -2,-62 -15,-88 -10,-16 -28,-21 -42,-30 -13,0 -21,-10 -33,-8 -12,-7 -24,-8 -37,-10 -21,7 -23,32 -31,50l-23 -27c-9,-7 -28,-6 -23,-24 -3,-10 0,-23 -4,-33l-61 1c-17,-8 -30,9 -45,13l-1 32 -1 -1c-5,-5 -13,-2 -19,1 -16,7 4,20 -4,29 -3,-5 -9,-3 -11,-9 -22,10 -43,24 -63,37 -6,8 -8,17 -15,24l-67 48c-18,18 -50,24 -55,52 1,11 8,21 15,29 -5,6 -11,10 -18,14 -2,2 -5,-1 -6,-3 -4,-2 -8,0 -11,4 -2,14 11,25 18,36 2,6 9,12 15,12 10,0 9,-9 14,-15 37,-27 75,-54 112,-79 4,9 9,17 13,25 14,7 18,-13 30,-14 0,1 2,1 1,2 3,0 5,1 6,3 2,3 7,7 2,11 1,6 0,14 5,18 5,3 9,5 15,4 8,-1 11,-8 13,-14 2,-8 -8,-14 -1,-20 23,17 53,16 74,37 24,12 31,40 45,61 12,-4 11,8 17,13 3,4 8,0 10,5 2,6 -6,8 -7,13 -21,16 -38,42 -59,57 -14,-21 -24,-43 -43,-61 -36,-33 -79,-53 -128,-40 -22,13 -37,6 -49,13 -29,20 -70,31 -84,69 -110,78 -217,155 -303,264 -15,20 -31,38 -40,59 -9,-5 -23,-9 -34,-9 -28,4 -169,25 -213,31 -26,3 -127,-2 -176,-24 -35,-7 -112,-120 -203,-144 -32,-6 -215,18 -296,-48 -23,-16 -53,-21 -80,-13 -9,6 -59,52 -64,51 -40,-47 -60,-112 -118,-142 -9,-1 -27,-5 -32,5 -6,9 -7,24 0,36 55,78 88,162 116,252 -2,0 -12,0 -17,4 -10,23 -8,50 -4,76 -28,22 -56,48 -83,71 -2,-9 -15,-5 -16,-14 -42,-9 -89,-15 -133,-15 -3,-5 -39,6 -41,-1l-59 4 -11 4c-8,4 -9,14 -14,20 -5,26 -24,52 -12,79 2,10 9,16 19,17 33,1 70,3 104,-1 11,7 9,25 14,37 -16,7 -41,-6 -55,9 -1,14 -3,42 0,42 11,-5 107,52 265,-29 285,-207 533,-63 548,-44 -3,2 -4,5 -7,7 -54,-26 -111,-43 -173,-51 -200,-21 -382,89 -469,259 -97,170 -67,367 38,502 7,13 21,23 27,35 77,90 181,143 294,160 194,21 375,-66 479,-233l25 -52c4,-7 3,-17 9,-23 122,-1 304,1 437,-7 0,0 6,25 12,32 9,-1 19,-1 26,-7 13,-4 21,-18 24,-30 14,1 25,1 37,4 6,4 11,11 14,17 26,-4 54,-1 82,-2l245 -4c14,8 21,-15 34,-15 12,-18 33,-13 49,-19 82,-15 151,-69 206,-137 65,-81 67,-211 26,-303 6,-5 5,-12 7,-18 0,-5 -5,-1 -8,-3 -10,-11 -17,-26 -31,-34 -5,-9 9,-10 13,-17 -1,-8 11,-12 4,-21 -1,-9 10,-8 13,-16 14,-16 16,-43 7,-62 0,-5 2,-12 7,-17 -2,-13 10,-28 -6,-36l14 -70c0,-7 3,-18 -6,-19 -7,-20 -30,-26 -35,-47 26,-36 40,-77 60,-116 7,1 9,13 19,9 10,-6 20,-8 28,-18 8,-2 10,-10 18,-10 5,10 12,-2 17,5 -2,7 6,9 8,15 4,15 -1,33 -8,47 -31,56 -27,133 -4,192 9,36 45,48 74,61 1,31 4,61 3,93 -3,15 -2,33 -3,49 -4,8 1,12 2,20 -13,35 -25,69 -33,105 -1,14 -13,31 -2,41 6,0 24,-18 29,-20 2,1 -9,70 -9,70 -3,207 102,389 295,474 191,83 381,48 538,-81 392,-413 14,-896 -325,-872zm-536 -573l0 0c16,40 17,92 3,133 -4,-39 -2,-87 -5,-130l2 -3zm-32 -30l0 0c7,7 20,17 26,23l0 149c-4,7 -13,49 -19,55 -1,-3 -7,-181 -7,-227zm-576 31l0 0c-7,-8 -15,-18 -10,-29 1,-2 3,-3 4,-4 10,5 19,17 19,29 -3,4 -8,8 -13,4zm21 -6l0 0c-1,-2 -1,-4 -1,-7 25,-16 48,-34 74,-51 0,0 25,-15 33,-26 1,2 7,0 5,5 -36,28 -72,56 -111,79zm117 -2l0 0c-7,-5 -8,-15 -9,-22 5,-8 21,-8 17,-21 1,-2 3,-1 5,-1 7,7 9,17 9,26 -7,7 -11,16 -22,18zm10 -54l0 0c-2,-8 -13,-5 -15,-12 11,0 5,-13 8,-20 -3,-11 -9,-25 -22,-28l-6 -1c5,-7 6,-18 16,-21 11,2 24,4 29,16 5,18 8,40 9,60 -7,1 -11,10 -19,6zm28 35l0 0c1,-4 6,-8 9,-11l5 -1c-1,9 1,19 4,28 -14,9 -13,-11 -18,-16zm-1939 805l0 0c0,-3 -1,-7 1,-10 7,5 14,-3 23,0 7,-2 15,2 22,2 -12,4 -29,11 -46,8zm2637 -111l0 0c62,-39 180,-86 266,-99 -83,47 -210,101 -275,125 7,-13 6,-20 9,-26zm52 141l0 0 155 231c16,33 41,67 65,97l0 3c-13,10 -28,16 -41,24l-232 -352 -92 -139 1 -2c13,-8 25,-17 38,-23l106 161zm-111 17l0 0 -38 -54c4,-9 14,-17 24,-19 2,-3 3,-7 6,-7 31,34 49,76 77,110l0 2c-12,7 -24,16 -37,17l-29 -43c5,-12 20,-16 29,-25 -2,-4 -32,19 -32,19zm-188 -372l0 0c40,57 81,114 116,172 -1,0 -3,2 -4,4l-4 -2 -106 -158c-1,-5 1,-11 -2,-16zm122 179l0 0c3,6 14,13 9,22l8 15c-5,8 -9,19 -17,25 -13,-7 -18,-22 -25,-33 0,-5 0,-9 0,-12 6,-8 16,-11 25,-17zm19 49l0 0 3 -3c13,17 26,35 36,54 -3,7 -11,8 -16,14 -12,-15 -27,-30 -44,-39 6,-9 17,-15 21,-26zm124 200l0 0c11,12 13,31 25,42 -5,3 -10,17 -7,28 2,8 11,13 14,17 -3,5 -5,11 -7,17 -7,-2 -15,-1 -22,4l-6 6c-7,-7 3,-17 -7,-24 -6,-29 -12,-60 -16,-90l4 -7c4,-2 7,-6 12,-6l20 105c3,1 3,3 6,3l1 -3c-4,-34 -13,-57 -17,-92zm-3 -19l0 0c2,0 3,0 4,-1l39 58 -9 1c-12,-20 -23,-38 -34,-58zm-37 29l0 0c14,-1 8,20 13,29l9 42c-16,-3 -29,-10 -43,-17 5,-20 14,-36 21,-54zm-12 82l0 0 37 8c1,2 4,5 0,7 -18,-2 -39,-4 -57,-12 2,-8 16,-1 20,-3zm-15 31l0 0c12,-6 25,2 37,4 8,3 24,2 24,2l2 9c-6,1 -14,1 -16,9l0 14c-5,1 -12,3 -13,9 4,15 2,28 8,42 -1,12 -3,26 3,37 4,6 12,6 18,12 -20,-4 -41,-7 -61,-13l-3 -9c-5,-33 -7,-68 -4,-102l5 -14zm84 155l0 0 18 -12c21,49 56,79 56,79 -15,24 -44,51 -66,73 -16,-22 -64,-60 -82,-143 23,5 50,7 74,3zm113 95l0 0c24,9 46,21 72,26 51,7 103,-7 146,-29 13,31 36,71 55,98 -45,31 -179,63 -325,-2 19,-36 34,-66 52,-93zm257 -22l0 0c53,-38 95,-131 62,-221 32,-12 70,-26 103,-36 34,136 -21,275 -109,341 -15,-22 -45,-61 -56,-84zm40 -268l0 0c-34,-62 -103,-110 -168,-113 1,-35 3,-66 5,-102 124,-11 242,109 261,170 -34,13 -66,34 -98,45zm5 39l0 0c7,21 42,121 -46,206 -3,1 -88,80 -205,50 -36,-14 -112,-59 -139,-132 22,-18 43,-35 60,-56 4,3 -5,21 9,17l3 -3c4,24 14,46 30,63 29,36 75,51 119,44 40,-6 79,-35 96,-73 24,-44 13,-108 -20,-145 -31,-34 -77,-49 -123,-41 -23,6 -42,18 -62,30 -14,-21 -29,-38 -41,-60 160,-100 294,28 319,100zm-162 31l0 0 -17 -23c-3,1 -4,-2 -5,-4 2,-9 1,-22 11,-28 17,5 35,18 45,35 -10,8 -20,22 -34,20zm39 19l0 0c4,-1 9,2 11,-3 7,15 -1,32 -5,46 -4,8 -10,16 -16,22 -13,-3 -29,-10 -35,-24 5,-8 13,-17 22,-21 -1,-13 15,-15 23,-20zm-91 -33l0 0c-4,4 -10,9 -16,7 -10,-2 -15,-17 -22,-26 6,-11 20,-15 31,-20 8,10 1,28 7,39zm-111 -125l0 0c-20,-29 -38,-68 -58,-97 44,-45 125,-50 143,-51 4,33 12,97 15,107 -51,0 -100,41 -100,41zm-401 -607l0 0c13,12 18,28 28,41 2,6 -6,5 -9,8 -12,-12 -19,-29 -28,-43l9 -6zm-34 -9l0 0 -1 2c-10,5 -18,15 -29,19l-130 -193 -7 -11c9,-8 20,-15 31,-19 46,67 92,135 136,202zm-186 195l0 0c-15,-4 -33,7 -45,-5 29,2 72,-30 75,-61 15,7 28,21 28,37 -2,8 -5,15 -10,21 -14,7 -31,8 -48,8zm-20 290l0 0c-36,6 -69,-18 -75,-54 -6,-35 18,-69 54,-75 35,-5 69,19 75,54 5,36 -19,69 -54,75zm134 -741l0 0 2 0 10 94 -2 7c-20,-4 -38,-24 -41,-44 -2,-25 10,-46 31,-57zm12 -4l0 0c5,-1 5,5 6,8 7,32 14,65 9,98l-7 1c-3,-32 0,-75 -8,-107zm40 53l0 0c2,20 -2,43 -14,49l-2 0c3,-32 -3,-66 -10,-95 12,6 24,26 26,46zm-20 -91l0 0c-8,14 -13,35 -34,34l-9 5c13,-17 22,-34 31,-53 5,2 8,9 12,14zm-119 -176l0 0c18,-6 28,7 43,10 20,13 49,15 58,42 4,20 10,39 9,59 -4,5 -12,5 -14,-6 -3,-14 2,-59 -13,-65 -20,-13 -42,-20 -65,-27 -14,-1 -34,16 -34,16 1,-5 5,-11 -4,-12 5,-13 13,-13 20,-17zm15 242l0 0c6,5 7,12 10,18l-43 26c-8,-3 1,-15 -8,-19 13,-9 27,-18 41,-25zm-44 -167l0 0c0,17 -7,34 -10,51 -4,18 -6,37 -7,55 2,1 5,1 5,4 -10,1 -20,-5 -30,-8 -11,-6 -20,-18 -24,-29l7 -4c10,-1 20,-3 30,-6 1,15 -5,33 6,44 5,-8 -3,-14 -1,-24 -1,-21 8,-37 12,-57 5,-8 5,-20 12,-26zm-42 148l0 0c-1,2 -4,7 -8,8 -4,-1 -4,-6 -8,-9 -26,-24 -54,-44 -85,-57l0 -1c9,-3 20,-2 28,-5 15,34 59,23 69,59l-1 1c3,0 4,2 5,4zm2 -195l0 0c15,10 18,31 33,41l-5 13c-15,1 -28,9 -43,10 0,-2 -2,-2 -3,-3 -14,6 -30,6 -44,11 17,-15 34,-27 52,-41 -2,-6 0,-13 -5,-18l15 -13zm-69 32l0 0c-14,6 -28,-7 -39,-15 -1,-3 2,-5 3,-9 15,-1 30,11 36,24zm-16 -107l0 0c5,6 0,14 2,20l-1 49 -8 0c1,-18 1,-38 2,-58 -7,-9 -12,6 -21,4 0,0 12,-15 26,-15zm-34 45l0 0 2 17c-3,3 -5,-2 -8,-2 3,-5 -2,-13 6,-15zm-14 120l0 0c33,-18 61,-47 93,-66 3,-2 4,-6 9,-6l11 13c-33,22 -65,55 -103,71 -2,-3 -2,-12 -9,-8 0,-1 -2,-2 -1,-4zm-5 42l0 0 0 -4c41,-10 85,-28 126,-35 5,-6 -4,-5 0,-12 8,-3 15,-6 24,-5 1,-4 6,-2 9,-4 -1,8 -4,16 -8,23 -50,9 -100,27 -151,37zm115 81l0 0c-14,2 -14,-17 -26,-23 -18,-15 -42,-26 -66,-32 -8,-1 -16,-12 -16,-12 5,-1 11,-10 16,-2 27,24 69,23 91,58 2,2 1,11 1,11zm3 8l0 0c8,-9 20,-8 26,-18l3 0c3,11 17,19 14,29 -7,7 -15,15 -26,15l-17 -26zm23 35l0 0c0,-3 7,-3 10,-5 6,-4 15,-5 17,-14 -1,3 1,7 5,8 -2,10 -14,7 -18,17 -6,5 -11,-1 -14,-6zm3 268l0 0c26,0 46,21 46,47 0,25 -20,46 -46,46 -25,0 -46,-21 -46,-46 0,-26 21,-47 46,-47zm-53 -166l0 0c0,-3 3,-5 5,-7l2 0c13,31 12,85 6,118 -4,22 -27,80 -36,100l-26 5c42,-62 68,-138 49,-216zm-26 274l0 0c13,27 14,64 5,94 -10,23 -17,50 -39,67 -162,10 -252,-3 -266,-10 -25,-8 -44,-34 -46,-62 -1,-26 11,-50 33,-64 17,-7 33,-10 51,-17 69,-15 136,-28 212,-29 19,0 41,-1 50,21zm-1216 763l0 0 -1 36c-24,9 -48,18 -72,27 -4,-3 -9,-4 -9,-9 -5,-14 14,-10 9,-23 10,-20 21,-39 23,-62l67 0c-2,4 0,11 -4,14 -4,5 -14,3 -15,10l2 7zm-211 -42l0 0 -1 -106c0,0 445,9 563,14 27,10 54,31 57,62 4,14 -8,20 -16,28 -9,6 -21,8 -33,8l-570 -6zm-186 66l0 0c12,14 25,31 37,45 -5,9 -22,37 -25,41 -27,-7 -37,-37 -53,-56 -24,-46 -40,-98 -32,-155 17,-9 33,4 48,10 -2,43 8,81 25,115zm-14 -178l0 0 0 2c-15,-3 -28,-11 -43,-17l-1 -4c28,-67 94,-125 163,-142 10,-3 14,7 18,12l4 50c-58,13 -106,50 -141,99zm191 -31l0 0c8,5 23,1 22,15 -29,-10 -59,-12 -88,2 -21,6 -34,25 -48,42l0 3 -11 -10c26,-42 76,-62 125,-52zm49 -49l0 0 6 -10 51 35 -7 7 -5 -3c0,0 -18,26 -29,38 -13,-4 -24,-14 -34,-24 6,-12 22,-35 22,-35l-4 -8zm1 -22l0 0c0,0 -32,-3 -38,-2 -3,-21 -3,-43 -5,-64l2 -1c27,2 54,7 78,18 1,3 -37,49 -37,49zm37 236l0 0c-5,24 -25,46 -46,61 -31,21 -80,27 -114,9 -15,-7 -30,-17 -40,-29 5,-3 194,-40 200,-41zm-198 145l0 0c8,-1 8,-21 18,-14 3,-1 8,0 10,-4 2,3 8,1 8,5 15,-4 21,15 35,7 0,7 9,9 9,16 6,0 10,4 14,8 11,5 24,8 36,4 5,-5 12,-6 16,-13 27,-9 54,-19 81,-27 5,7 16,16 11,26 -4,10 -18,15 -29,20 -49,26 -116,34 -171,16 -14,-3 -26,-8 -38,-13 -6,-9 -8,-23 0,-31zm402 -600l0 0c-17,0 -31,-14 -31,-31 0,-18 14,-32 31,-32 17,0 31,14 31,32 0,17 -14,31 -31,31zm57 48l0 0c14,30 29,61 39,91 -25,-39 -51,-79 -85,-113 5,0 8,7 12,8 11,6 31,-4 34,14zm-46 274l0 0 -46 1c0,0 -17,-82 -87,-129 10,-13 16,-18 28,-31 84,54 105,159 105,159zm-90 -45l0 0c-3,10 -13,16 -22,22 -12,4 -31,10 -42,-1 -9,-13 -23,-21 -33,-32 11,-12 24,-48 32,-53 6,0 16,8 19,8 19,17 34,36 46,56zm232 -207l0 0 5 7c8,41 31,82 39,124 35,45 86,25 138,21 25,-8 34,-6 45,-32 3,-4 17,3 20,-1 -6,25 -30,53 -56,61 -19,10 -43,5 -64,2 -33,-4 -60,7 -86,-17 -15,-24 -47,-112 -52,-139 -5,-21 15,-4 11,-26zm-2 -36l0 0c6,-1 8,-7 13,-9 68,-28 136,-54 204,-80 5,0 8,3 10,7 -1,55 1,115 -18,163 -31,35 -79,42 -124,33 -46,-2 -53,-52 -75,-80 -4,-12 -15,-22 -10,-34zm179 292l0 0c0,-26 21,-47 47,-47 26,0 48,21 48,47 0,26 -22,47 -48,47 -26,0 -47,-21 -47,-47zm81 -69l0 0 35 -86 60 50 -27 55 -68 -19zm123 -198l0 0c-10,2 -24,17 -24,17l15 22 -52 42 -31 -40c0,0 -29,-178 97,-226 -102,146 -5,185 -5,185zm-65 264l0 0c20,2 26,19 39,32 3,7 14,14 10,23 -7,3 -10,11 -16,17 -18,-17 -32,-38 -50,-55 1,-9 9,-14 17,-17zm58 71l0 0c6,-2 12,1 16,5 5,5 2,11 2,17 -4,6 -10,11 -18,8 -5,-2 -9,-6 -11,-11 -1,-8 3,-18 11,-19zm17 -184l0 0c0,-30 24,-53 53,-53 30,0 53,23 53,53 0,29 -23,53 -53,53 -29,0 -53,-24 -53,-53zm114 -199l0 0 71 88 18 -13 -62 -77c0,0 41,7 65,-46l59 73 16 -10 -66 -85c0,0 7,-28 -15,-71l15 -14 54 35 105 192 -146 115 -171 -155 -18 -62 17 -13c0,0 28,35 58,43zm-46 -88l0 0c0,-36 30,-65 65,-65 36,0 66,29 66,65 0,36 -30,65 -66,65 -35,0 -65,-29 -65,-65zm239 311l0 0 -62 -31 130 -102 18 69 -86 64zm148 5l0 0c18,18 29,41 25,69 -4,29 -23,56 -51,67 -32,11 -66,1 -87,-23 -23,-28 -25,-69 -7,-100 7,-10 18,-18 28,-25 31,-15 66,-11 92,12zm-154 133l0 0c-8,40 -43,75 -83,84 -46,10 -93,-9 -120,-48 -22,-33 -24,-78 -8,-114 10,-17 128,-64 158,-47 42,28 64,74 53,125zm-274 46l0 0 110 66 301 -6c0,0 90,-36 173,-113l45 17c0,0 -66,93 -205,125l-323 0 -110 -71 9 -18zm456 -176l0 0 -77 -74 21 -66 122 112 -66 28zm-120 -855l0 0c19,-9 37,-27 51,-41l4 -1c3,9 -5,14 -9,21 -22,18 -49,31 -78,37l-1 -2c8,-9 22,-8 33,-14zm-340 348l0 0c87,-113 208,-198 321,-279 36,-22 70,-46 107,-66 1,-10 11,0 16,-5 22,-5 39,9 50,26 17,41 9,93 -9,132 -10,27 -30,53 -54,69 -5,8 -14,13 -22,18 -93,55 -198,81 -300,116 -38,9 -75,19 -114,26 0,0 6,-35 5,-37zm-18 74l0 0c7,-4 16,-8 25,-4 6,1 4,8 9,11 2,8 3,18 -4,23 -4,8 -15,6 -23,6 -6,-3 -11,-10 -14,-15 -1,-9 2,-15 7,-21zm-720 -215l0 0c104,-8 184,86 202,103 113,123 414,45 426,41 26,-5 82,12 83,18 5,17 -9,28 -23,32 -45,8 -330,23 -342,24 -121,4 -206,-166 -350,-175 -29,-7 -19,-41 4,-43zm-248 -44l0 0c76,55 165,41 199,54 11,1 19,26 0,28 -16,-1 -163,16 -240,-50 -42,-36 -2,-62 41,-32zm-129 218l0 0c4,18 3,38 -10,52 -4,6 -10,8 -14,12 -7,-11 -10,-97 -10,-97 15,5 29,18 34,33zm-49 -19l0 0 4 -16 5 0c-5,35 -3,69 7,102 -1,1 -2,2 -4,2 -9,-30 -16,-56 -12,-88zm-233 214l0 0 41 -15 78 -75 16 15 -120 109 -15 -34zm172 13l0 0c-35,19 -108,36 -149,37l50 -42c7,-4 37,8 65,-2 90,-35 149,-74 222,-109 3,-2 5,-5 5,-7l13 1c-51,25 -153,99 -206,122zm258 -144l0 0c-23,8 -50,-1 -75,-1 -21,-2 -45,-6 -67,-11 -9,-4 3,-12 2,-18l3 -17c14,2 27,9 43,9 41,2 84,4 124,7l4 -2c2,18 -21,25 -34,33zm10 -82l0 0c-140,-9 -131,-123 -148,-170 4,-2 7,-5 7,-5 33,163 89,156 147,163 118,-11 310,20 520,231 105,-45 390,-160 394,-160l2 6c-80,39 -354,154 -397,168 -9,-6 -235,-257 -525,-233zm311 146l0 0c-35,-24 -74,-43 -113,-61 8,-11 25,-36 25,-36 48,24 99,45 141,79 1,15 -18,21 -30,26 -9,4 -15,-6 -23,-8zm23 82l0 0 52 39 -19 27 -54 -40 21 -26zm-19 36l0 0 40 32 -151 207 -35 -25 146 -214zm-35 651l0 0c-299,183 -536,-93 -502,-304 58,-278 336,-305 444,-243 0,0 -12,20 -20,37 -68,-33 -164,-28 -230,9 -80,38 -141,125 -147,223 -4,228 168,292 265,293 176,-11 227,-108 227,-108l47 0c0,0 -36,67 -84,93zm757 -107l0 0c-3,6 -10,6 -15,9 -162,2 -691,-4 -691,-4l0 -89 532 -5 152 48c2,-1 13,-14 27,13 4,10 1,20 -5,28zm667 -419l0 0c-2,5 4,9 4,15 19,94 20,208 -53,276 -67,77 -244,132 -244,125l-349 10 -2 -23 4 -3 353 -7c16,-8 188,-68 241,-170 37,-70 38,-150 33,-200 8,-6 -10,-9 1,-15 4,-2 7,-7 12,-8zm-32 -63l0 0 -172 134 -137 -126 126 -193 58 -28 15 14c0,0 -30,34 -33,65l-75 84 16 15 66 -73c0,0 0,42 55,57l-62 69 12 15 73 -79c0,0 30,2 69,-26l16 13 -27 59zm49 -137l0 0c-3,19 -15,35 -25,50l-7 -4c8,-18 15,-36 20,-55 4,2 9,6 12,9zm-9 -266l0 0c-3,-5 -12,-8 -9,-15 12,-20 27,-36 43,-51l14 22c-16,16 -32,29 -48,44zm110 -54l0 0c-11,7 -22,17 -34,22 -11,-15 -24,-30 -33,-46 13,-13 26,-26 40,-36 10,17 19,36 34,52l0 3c-5,-2 -5,3 -7,5zm22 -5l0 0c-17,-16 -28,-35 -40,-56 13,-9 26,-19 40,-26 17,18 26,37 37,57 -12,8 -24,20 -37,25zm11 5l0 0 0 -4c10,-6 20,-13 30,-18l64 92 116 172c5,0 9,-7 15,-8 7,4 8,13 12,19 -13,13 -32,22 -47,33l-3 -12 -144 -214 -43 -60zm28 269l0 0c-19,-25 -26,-55 -31,-87 0,-43 5,-85 28,-118 3,25 4,49 11,72 3,8 3,19 4,27l3 6c10,37 15,77 18,117 -12,-3 -22,-9 -33,-17zm24 -148l0 0c31,47 66,93 94,143 -5,2 -10,6 -13,11 -5,21 14,30 17,47 2,3 7,5 7,9 -24,-13 -49,-25 -74,-34 -4,-61 -18,-119 -31,-176zm31 211l0 0 -1 -3c20,5 43,12 61,25 -9,2 -7,12 -14,17 -18,25 -34,51 -47,78 2,-37 3,-78 1,-117zm-42 285l0 0 -5 2c-2,-6 -4,-15 2,-15 56,-52 60,-118 117,-191 7,-9 17,-11 23,-20 3,2 4,5 4,8 -58,68 -68,158 -141,216zm213 307l0 0c-165,-210 -24,-452 -24,-452 11,10 31,37 34,39 -149,223 43,469 136,492 521,187 675,-541 226,-648 -15,-2 -200,-31 -284,61 -11,-15 -24,-41 -24,-41 353,-198 681,58 606,407 -81,319 -504,400 -670,142z"/>
 </g>
</svg>
