<?xml version="1.0" encoding="UTF-8"?>
<!DOCTYPE svg PUBLIC "-//W3C//DTD SVG 1.1//EN" "http://www.w3.org/Graphics/SVG/1.1/DTD/svg11.dtd">
<!-- Creator: CorelDRAW X7 -->
<svg xmlns="http://www.w3.org/2000/svg" xml:space="preserve" width="3.31314in" height="0.841283in" version="1.1" style="shape-rendering:geometricPrecision; text-rendering:geometricPrecision; image-rendering:optimizeQuality; fill-rule:evenodd; clip-rule:evenodd"
viewBox="0 0 1263 321"
 xmlns:xlink="http://www.w3.org/1999/xlink">
 <defs>
  <style type="text/css">
   <![CDATA[
    .fil0 {fill:#2B3B3F}
    .fil1 {fill:#FFF6E4}
   ]]>
  </style>
 </defs>
 <g id="Objects">
  <metadata id="CorelCorpID_0Corel-Layer"/>
  <path class="fil0" d="M312 177c-39,0 -72,32 -72,72 0,40 33,72 72,72 40,0 72,-32 72,-72 0,-40 -32,-72 -72,-72z"/>
  <path class="fil0" d="M1253 131l0 0 0 0 0 0zm2 92l0 0c0,0 -1,0 -1,1 0,-1 1,-1 1,-1zm-1 1l0 0c0,1 -1,1 -1,1 0,0 1,0 1,-1zm-2 -95l0 0c0,1 1,1 1,2l0 0c0,2 -1,3 -1,4l0 -6zm1 96l0 0 0 0 0 0zm-1 1l0 0 0 1 0 -1zm-2 -99l0 0c0,1 1,1 2,2l0 6c-1,2 -2,5 -2,7l0 -15zm2 100l0 0 -1 0 1 0zm-1 0l0 0c0,1 -1,1 -1,2 0,-1 1,-1 1,-2zm-1233 11l0 0c-1,-32 6,-83 12,-100 104,-22 134,-40 264,-57 10,-1 21,-5 29,-12l54 -42c5,-5 10,-8 24,-10 105,-16 208,-21 308,-13 25,2 96,59 118,76 3,3 8,3 13,3 180,6 250,11 406,42 1,1 2,1 4,2l0 15c-4,18 -6,47 -2,88l0 0c-3,2 -6,3 -9,3l-114 6c0,-18 -26,-82 -93,-75 -43,5 -82,38 -75,102l-561 1c12,-63 -38,-104 -84,-104 -52,0 -87,39 -85,95l-208 -20c0,0 -1,0 -1,0zm1232 -9l0 0c-1,0 -1,0 -2,1 1,-1 1,-1 2,-1z"/>
  <path class="fil1" d="M312 193c-31,0 -56,25 -56,56 0,31 25,56 56,56 31,0 56,-25 56,-56 0,-31 -25,-56 -56,-56z"/>
  <path class="fil0" d="M312 211c-21,0 -38,17 -38,38 0,21 17,38 38,38 21,0 39,-17 39,-38 0,-21 -18,-38 -39,-38z"/>
  <path class="fil0" d="M19 238c-6,-1 -20,-9 -19,-15l7 -65c1,-8 9,-17 18,-19l7 -1c-6,16 -14,70 -13,100z"/>
  <path class="fil0" d="M1247 126c10,4 15,14 15,18l1 68c0,6 -10,16 -20,21 -4,-51 -3,-92 4,-107z"/>
  <polygon class="fil1" points="360,257 348,281 312,249 "/>
  <polygon class="fil1" points="264,241 276,217 312,249 "/>
  <path class="fil0" d="M1041 177c-40,0 -72,32 -72,72 0,40 32,72 72,72 39,0 71,-32 71,-72 0,-40 -32,-72 -71,-72z"/>
  <path class="fil1" d="M1041 193c-31,0 -56,25 -56,56 0,31 25,56 56,56 30,0 55,-25 55,-56 0,-31 -25,-56 -55,-56z"/>
  <path class="fil0" d="M1041 211c-22,0 -39,17 -39,38 0,21 17,38 39,38 21,0 38,-17 38,-38 0,-21 -17,-38 -38,-38z"/>
  <polygon class="fil1" points="1089,257 1077,281 1041,249 "/>
  <polygon class="fil1" points="992,241 1004,217 1041,249 "/>
  <path class="fil1" d="M703 14c37,22 71,51 104,80 -113,5 -211,9 -323,14l-57 -15c1,-26 4,-49 11,-62 85,-18 176,-16 265,-17z"/>
 </g>
</svg>
