<?xml version="1.0" encoding="UTF-8"?>
<!DOCTYPE svg PUBLIC "-//W3C//DTD SVG 1.1//EN" "http://www.w3.org/Graphics/SVG/1.1/DTD/svg11.dtd">
<!-- Creator: CorelDRAW X7 -->
<svg xmlns="http://www.w3.org/2000/svg" xml:space="preserve" width="6.88526in" height="1.86722in" version="1.1" style="shape-rendering:geometricPrecision; text-rendering:geometricPrecision; image-rendering:optimizeQuality; fill-rule:evenodd; clip-rule:evenodd"
viewBox="0 0 7865 2133"
 xmlns:xlink="http://www.w3.org/1999/xlink">
 <defs>
  <style type="text/css">
   <![CDATA[
    .fil0 {fill:#1A1A1A;fill-rule:nonzero}
   ]]>
  </style>
 </defs>
 <g id="Objects">
  <metadata id="CorelCorpID_0Corel-Layer"/>
  <path class="fil0" d="M2479 83c0,45 -37,82 -82,82l-371 0c-46,0 -83,-37 -83,-82 0,-46 37,-83 83,-83l371 0c45,0 82,37 82,83z"/>
  <path class="fil0" d="M1487 36c-79,0 -143,95 -143,213 0,118 64,214 143,214 79,0 193,-96 193,-214 0,-118 -114,-213 -193,-213zm-30 361l0 0c-40,0 -73,-66 -73,-148 0,-81 33,-147 73,-147 41,0 74,66 74,147 0,82 -33,148 -74,148z"/>
  <path class="fil0" d="M2156 228c-287,0 -389,118 -389,311 0,193 102,311 389,311 288,0 652,-43 652,-236 0,-193 -364,-386 -652,-386zm29 129l0 0c-200,0 -311,56 -362,154 15,-139 108,-223 333,-223 190,0 419,98 515,219 -134,-89 -322,-150 -486,-150z"/>
  <path class="fil0" d="M2940 634c-28,327 -607,321 -607,321 0,0 -249,704 416,716 67,1 255,1 334,2 -26,-48 -156,-102 -134,-144 41,-74 142,-63 221,-71 80,-8 161,-6 242,-1 -2,-46 -3,-160 3,-265 19,-299 200,-426 200,-426l-675 -132zm-205 918l0 0c-447,-56 -314,-516 -314,-516 0,0 485,10 584,-292l424 90c0,0 -715,-23 -694,718z"/>
  <path class="fil0" d="M4363 500c0,92 -221,145 -624,145 -404,0 -668,-53 -668,-145 0,-93 264,-82 668,-82 403,0 624,-11 624,82z"/>
  <path class="fil0" d="M4467 1435l-1420 0c-65,0 -118,52 -118,117 0,65 53,118 118,118l1420 0c65,0 118,-53 118,-118 0,-65 -53,-117 -118,-117zm-4 98l0 0 -1275 0c-17,0 -31,-14 -31,-30 0,-17 14,-31 31,-31l1275 0c17,0 31,14 31,31 0,16 -14,30 -31,30z"/>
  <path class="fil0" d="M1203 1140c43,77 68,167 68,261 0,298 -242,540 -540,540 -297,0 -539,-242 -539,-540 0,-297 242,-539 539,-539 82,0 159,18 228,51l142 -143c-108,-63 -235,-100 -370,-100 -404,0 -731,328 -731,731 0,404 327,732 731,732 404,0 732,-328 732,-732 0,-148 -44,-286 -120,-401l-140 140z"/>
  <path class="fil0" d="M4298 670c-393,0 -713,309 -731,697l193 0c18,-282 252,-505 538,-505 298,0 539,242 539,539 0,298 -241,540 -539,540 -171,0 -323,-80 -422,-204l-227 0c121,235 366,396 649,396 404,0 731,-328 731,-732 0,-403 -327,-731 -731,-731z"/>
  <path class="fil0" d="M2083 24c-32,-32 -84,-32 -117,0l-1307 1307c-32,32 -32,85 0,117 33,32 85,32 117,0l1307 -1307c32,-32 32,-85 0,-117zm-207 205l0 0 -1143 1147c-9,9 -24,9 -33,0 -9,-9 -9,-24 0,-33l1142 -1148c10,-9 24,-9 34,0 9,10 9,24 0,34z"/>
  <path class="fil0" d="M7865 826l-2678 -250 1426 -294 -4060 -181c-6,48 -33,90 -72,115 188,70 350,193 392,330l0 -1 147 29c-15,-21 -24,-45 -24,-74 0,-118 142,-138 189,-144 80,-11 193,-14 347,-14 31,0 63,0 96,1 71,0 151,0 221,0 32,-1 63,-1 92,-1 151,0 252,3 326,14 114,18 171,66 171,144 0,39 -15,72 -45,101 400,47 711,388 711,800 0,223 -90,424 -236,570l2512 -534 -1692 -129 2177 -482z"/>
 </g>
</svg>
