<?xml version="1.0" encoding="UTF-8"?>
<!DOCTYPE svg PUBLIC "-//W3C//DTD SVG 1.1//EN" "http://www.w3.org/Graphics/SVG/1.1/DTD/svg11.dtd">
<!-- Creator: CorelDRAW X7 -->
<svg xmlns="http://www.w3.org/2000/svg" xml:space="preserve" width="3.56125in" height="3.70164in" version="1.1" style="shape-rendering:geometricPrecision; text-rendering:geometricPrecision; image-rendering:optimizeQuality; fill-rule:evenodd; clip-rule:evenodd"
viewBox="0 0 594 617"
 xmlns:xlink="http://www.w3.org/1999/xlink">
 <defs>
  <style type="text/css">
   <![CDATA[
    .fil0 {fill:#606062}
   ]]>
  </style>
 </defs>
 <g id="Layer_x0020_1">
  <metadata id="CorelCorpID_0Corel-Layer"/>
  <path class="fil0" d="M476 287c-19,0 -34,-16 -34,-35 0,-19 15,-34 34,-34 19,0 35,15 35,34 0,19 -16,35 -35,35zm-377 -130c0,0 5,-96 49,-113 32,-13 111,-13 149,-12 38,-1 116,-1 149,12 44,17 49,113 49,113 -51,-19 -160,-23 -198,-24 -38,1 -148,5 -198,24zm18 130c-19,0 -34,-16 -34,-35 0,-19 15,-34 34,-34 19,0 34,15 34,34 1,19 -15,35 -34,35zm454 -91l-36 -38c-6,-6 -10,-13 -11,-21l-15 -76c-7,-36 -38,-61 -75,-61l-137 0 -138 0c-36,0 -67,25 -74,61l-15 76c-2,8 -6,15 -11,21l-37 38c-8,8 -12,19 -12,30l0 76c0,9 8,17 18,17l20 0 0 32c0,25 21,46 46,46 25,0 45,-21 45,-46l0 -36 158 0 157 0 0 36c0,25 21,46 46,46 25,0 45,-21 45,-46l0 -32 21 0c10,0 17,-8 17,-17l0 -76c0,-11 -4,-22 -12,-30z"/>
  <polygon class="fil0" points="594,412 0,412 0,455 242,455 242,617 351,617 351,455 594,455 "/>
 </g>
</svg>
