<?xml version="1.0" encoding="UTF-8"?>
<!DOCTYPE svg PUBLIC "-//W3C//DTD SVG 1.1//EN" "http://www.w3.org/Graphics/SVG/1.1/DTD/svg11.dtd">
<!-- Creator: CorelDRAW X7 -->
<svg xmlns="http://www.w3.org/2000/svg" xml:space="preserve" width="1.5423in" height="1.39024in" version="1.1" style="shape-rendering:geometricPrecision; text-rendering:geometricPrecision; image-rendering:optimizeQuality; fill-rule:evenodd; clip-rule:evenodd"
viewBox="0 0 3254 2933"
 xmlns:xlink="http://www.w3.org/1999/xlink">
 <defs>
  <style type="text/css">
   <![CDATA[
    .fil3 {fill:#21344D;fill-rule:nonzero}
    .fil4 {fill:#B8C4BF;fill-rule:nonzero}
    .fil2 {fill:#BD382A;fill-rule:nonzero}
    .fil5 {fill:#CDDDD4;fill-rule:nonzero}
    .fil1 {fill:#D16718;fill-rule:nonzero}
    .fil0 {fill:#E67C21;fill-rule:nonzero}
    .fil6 {fill:#EBC10A;fill-rule:nonzero}
    .fil7 {fill:#F6CD21;fill-rule:nonzero}
    .fil8 {fill:white;fill-rule:nonzero}
   ]]>
  </style>
 </defs>
 <g id="Objects">
  <metadata id="CorelCorpID_0Corel-Layer"/>
  <polygon class="fil0" points="3166,2727 88,2727 88,657 3166,657 "/>
  <polygon class="fil1" points="3254,2727 0,2727 0,2933 3254,2933 "/>
  <polygon class="fil2" points="3254,2882 0,2882 0,2933 3254,2933 "/>
  <polygon class="fil1" points="3235,382 19,382 19,657 3235,657 "/>
  <polygon class="fil3" points="1816,1169 1532,1631 2044,1631 1271,2337 1658,1775 1210,1775 "/>
  <polygon class="fil4" points="825,0 290,0 290,382 825,382 "/>
  <polygon class="fil5" points="558,0 290,0 290,382 558,382 "/>
  <polygon class="fil6" points="2842,0 2307,0 2307,382 2842,382 "/>
  <polygon class="fil7" points="2574,0 2307,0 2307,382 2574,382 "/>
  <polygon class="fil8" points="711,881 404,881 404,956 711,956 "/>
  <polygon class="fil8" points="2718,845 2430,845 2430,916 2718,916 "/>
  <polygon class="fil8" points="2610,1025 2610,737 2539,737 2539,1025 "/>
 </g>
</svg>
