<?xml version="1.0" encoding="UTF-8"?>
<!DOCTYPE svg PUBLIC "-//W3C//DTD SVG 1.1//EN" "http://www.w3.org/Graphics/SVG/1.1/DTD/svg11.dtd">
<!-- Creator: CorelDRAW X7 -->
<svg xmlns="http://www.w3.org/2000/svg" xml:space="preserve" width="4.1637in" height="4.1637in" version="1.1" style="shape-rendering:geometricPrecision; text-rendering:geometricPrecision; image-rendering:optimizeQuality; fill-rule:evenodd; clip-rule:evenodd"
viewBox="0 0 2890 2890"
 xmlns:xlink="http://www.w3.org/1999/xlink">
 <defs>
  <style type="text/css">
   <![CDATA[
    .fil1 {fill:#FEFEFE;fill-rule:nonzero}
    .fil0 {fill:#4C4C4D;fill-rule:nonzero}
   ]]>
  </style>
 </defs>
 <g id="__x0023_Layer_x0020_1">
  <metadata id="CorelCorpID_0Corel-Layer"/>
  <path class="fil0" d="M1445 0c-798,0 -1445,647 -1445,1445 0,798 647,1445 1445,1445 798,0 1445,-647 1445,-1445 0,-798 -647,-1445 -1445,-1445zm0 57l0 0c688,0 1260,501 1369,1159l-424 0c-105,-419 -483,-729 -934,-729 -451,0 -830,310 -934,729l-447 0c110,-658 681,-1159 1370,-1159zm0 2776l0 0c-689,0 -1260,-502 -1370,-1159l444 0c101,423 482,738 937,738 454,0 835,-315 936,-738l422 0c-109,657 -681,1159 -1369,1159z"/>
  <polygon class="fil0" points="2486,1501 2486,1483 2790,1483 2790,1501 "/>
  <polygon class="fil0" points="2486,1592 2486,1574 2790,1574 2790,1592 "/>
  <polygon class="fil0" points="2486,1315 2486,1298 2790,1298 2790,1315 "/>
  <polygon class="fil0" points="2486,1407 2486,1389 2790,1389 2790,1407 "/>
  <polygon class="fil0" points="100,1501 100,1483 403,1483 403,1501 "/>
  <polygon class="fil0" points="100,1592 100,1574 403,1574 403,1592 "/>
  <polygon class="fil0" points="100,1315 100,1298 403,1298 403,1315 "/>
  <polygon class="fil0" points="100,1407 100,1389 403,1389 403,1407 "/>
  <path class="fil1" d="M1945 1155c0,0 -6,9 -6,16 0,6 10,19 10,19 24,28 64,29 64,29l64 -108c0,0 3,-1 0,-8 -3,-8 -64,19 -86,28 -25,9 -46,24 -46,24z"/>
  <path class="fil1" d="M2317 1205c-54,16 -114,22 -171,26 -62,-3 -158,14 -193,-23 -15,-16 -21,-33 -21,-33 -16,27 -24,56 -40,84l-122 267 -13 19c-1,12 4,20 6,31 51,92 153,86 239,74 54,-10 107,-23 153,-56 58,-128 168,-384 169,-387 1,-4 -7,-2 -7,-2zm-161 129l0 0 -33 67 -88 -9c0,0 19,-47 25,-62 36,4 59,5 96,4zm-164 -89l0 0 79 4 -19 67 -79 -22 19 -49zm31 157l0 0c-14,32 -16,43 -31,73 -36,3 -75,-9 -97,-25l36 -73c23,16 46,25 92,25zm-136 -79l0 0 29 -67c11,17 27,32 44,38 -9,23 -28,70 -31,68 -51,-28 -42,-39 -42,-39zm-83 174l0 0 36 -75 41 37c-15,33 -22,44 -38,77 -35,-15 -39,-39 -39,-39zm117 135l0 0c-35,5 -83,-5 -104,-30 11,-17 17,-37 28,-54 33,10 54,13 108,13 -9,24 -18,49 -32,71zm46 -76l0 0c16,-27 23,-44 31,-69 0,0 33,5 88,-1 4,0 -33,72 -33,72l-86 -2zm178 28l0 0c-16,10 -48,26 -118,43l29 -60c41,-1 72,-11 105,-20 -4,16 -11,33 -16,37zm47 -113l0 0c-32,11 -56,11 -88,13 10,-25 17,-46 29,-71 36,-2 51,-3 91,-14 -13,26 -20,46 -32,72zm70 -162l0 0 -89 17c17,-28 27,-52 35,-78l90 -17c-6,15 -29,65 -36,78z"/>
  <path class="fil1" d="M1449 1474c0,0 -12,14 3,14 102,-22 214,-16 319,2 16,-19 30,-57 42,-78 0,0 -24,-1 -40,-8 15,-24 28,-48 44,-76 6,2 20,2 25,4 14,-24 35,-64 46,-89 -6,-3 -7,1 -12,-3 15,-30 39,-62 51,-86 43,-37 140,-55 142,-65 0,-12 -10,-14 -17,-19 -92,-50 -229,-46 -328,-17l-139 216 -136 205zm274 -12l0 0 -112 -8c0,0 33,-45 44,-63l99 18c-6,11 -31,53 -31,53zm83 -150l0 0 -102 -17c15,-25 28,-53 43,-75l109 18c-19,23 -34,47 -50,74zm29 -250l0 0c39,-11 82,-5 121,1 -18,27 -35,54 -48,84 -37,-10 -62,-16 -110,-16l37 -69zm-146 79l0 0 91 1c-13,25 -29,49 -41,69l-93 -1 43 -69zm-3 163l0 0c-17,24 -28,54 -44,79 -34,-6 -73,-4 -108,-2l52 -78c57,-9 100,1 100,1z"/>
  <path class="fil1" d="M1162 1839c0,0 2,9 8,14 7,6 17,6 17,6l229 -352 173 353c0,0 11,0 17,-7 7,-8 9,-11 9,-11l-178 -357c0,0 236,-369 279,-428 2,-15 -12,-18 -21,-19 -4,5 -5,9 -8,13l-271 405c0,0 -181,-404 -185,-410 -2,0 -4,-26 -24,-13 -7,4 -11,4 -11,14 0,10 198,437 198,437l-232 355z"/>
  <path class="fil1" d="M924 1193c24,-2 49,-1 70,-13 4,-6 13,-10 11,-20 -37,-33 -77,-56 -122,-65 -10,0 -9,7 -7,14 13,30 24,63 48,84z"/>
  <path class="fil1" d="M906 1645c12,7 18,-2 29,2 29,-4 58,-4 82,-17 40,-9 92,-46 100,-101l-61 -197 0 -10 4 6c4,2 8,1 12,-3 10,25 17,52 26,78l-13 5c11,29 19,61 29,90 74,-6 119,-12 220,-7 28,2 50,4 50,-11 -1,-15 -200,-433 -200,-433l-48 -3c-81,-12 -159,-14 -227,26 -4,5 -12,8 -14,14 47,17 111,63 122,75 7,24 16,47 21,74l-11 2 -15 -57 -2 -1c-18,20 -42,22 -68,23 -188,-16 -349,-37 -352,-35 -4,3 1,8 1,8 13,23 20,47 29,73l86 267 27 93c53,20 112,41 173,39zm-59 -18l0 0 -16 -53c31,4 70,12 103,7 13,10 14,33 21,49 -38,13 -74,3 -108,-3zm-39 -136l0 0 -27 -85c31,3 70,1 102,9 15,18 20,54 30,80l0 4c-35,4 -70,-6 -105,-8zm143 80l0 0c-8,-18 -13,-38 -20,-56 25,-1 52,-4 72,-10 7,-2 5,-1 7,7 7,16 10,34 14,52 -23,5 -48,12 -73,7zm140 -48l0 0c8,15 3,29 -4,43 -9,11 -18,21 -29,26l-10 -25c17,-9 31,-25 43,-44zm42 -44l0 0 -17 -68 92 -2c10,20 24,39 26,63l-101 7zm208 -75l0 0c-36,-5 -72,-15 -114,-11l-25 -71c39,-3 74,4 108,13 11,23 22,45 31,69zm-115 -252l0 0 33 73c-32,-4 -63,-14 -96,-10l-24 -68c27,-6 61,-4 87,5zm-77 76l0 0c14,24 19,51 28,78 -32,2 -68,0 -100,8l-28 -78c35,-10 61,-8 100,-8zm-132 -90l0 0 -24 -67c34,1 66,-9 101,-3 10,19 22,45 29,67l-106 3zm27 227l0 0c2,36 47,81 -3,107l-20 11 -25 -80c5,-7 15,-7 21,-12l27 -26zm-46 -150l0 0 17 53c-7,22 -29,29 -48,33 -9,-24 -17,-49 -23,-73 20,2 38,-4 54,-13zm-46 102l0 0c19,22 17,59 30,86 -27,14 -64,8 -91,-2l-29 -86 90 2zm-136 -104l0 0 33 96c-34,8 -65,-7 -98,-7 -7,-33 -20,-64 -28,-97 27,4 62,4 93,8zm-140 157l0 0c-9,-24 -14,-49 -24,-73l85 17c10,23 16,49 25,72 -29,10 -66,6 -86,-16zm123 135l0 0c9,18 12,42 18,61 -24,0 -56,0 -79,-9l-22 -68c26,10 55,16 83,16z"/>
  <polygon class="fil0" points="797,677 768,702 602,510 644,474 790,589 697,429 736,394 903,586 874,611 769,491 848,633 825,653 693,557 "/>
  <path class="fil0" d="M857 316c15,-9 30,-11 46,-6 17,4 29,14 37,28l69 121c8,14 10,30 6,46 -5,16 -14,28 -29,37 -15,8 -30,10 -46,5 -16,-4 -28,-14 -37,-28l-68 -120c-9,-15 -11,-31 -6,-47 4,-16 14,-28 28,-36zm48 41l0 0c-3,-5 -7,-8 -13,-10 -6,-1 -12,-1 -17,2 -5,3 -9,8 -10,14 -2,5 -1,11 2,16l69 121c3,5 7,9 13,10 6,2 11,1 17,-2 5,-3 8,-7 10,-13 2,-6 1,-11 -2,-17l-69 -121z"/>
  <polygon class="fil0" points="1023,282 985,296 972,260 1083,218 1097,254 1059,268 1135,470 1100,483 "/>
  <path class="fil0" d="M1205 184c17,-4 32,-1 46,8 14,10 23,22 26,39l28 135c4,17 1,32 -8,46 -9,14 -22,23 -39,26 -16,4 -31,1 -45,-8 -14,-10 -23,-22 -26,-39l-29 -135c-3,-17 0,-32 9,-46 9,-14 22,-23 38,-26zm33 54l0 0c-1,-6 -5,-10 -10,-14 -5,-3 -10,-4 -16,-3 -6,1 -11,5 -14,10 -3,5 -4,10 -3,16l28 136c1,6 5,11 10,14 5,3 10,4 16,3 6,-1 11,-4 14,-9 3,-6 4,-11 3,-17l-28 -136z"/>
  <path class="fil0" d="M1401 162c21,-1 37,4 47,16 10,10 15,24 15,42l2 37c1,18 -6,33 -19,46l33 110 -41 2 -27 -95c-1,0 -2,0 -4,0l-22 1 4 96 -38 1 -11 -253 61 -3zm25 60l0 0c-1,-14 -8,-22 -23,-21l-23 1 4 81 23 -1c6,0 11,-2 15,-7 4,-4 6,-10 6,-16l-2 -37z"/>
  <path class="fil0" d="M1566 425c-17,-2 -31,-10 -41,-23 -10,-13 -15,-28 -13,-45l17 -137c2,-17 10,-31 23,-41 13,-10 28,-14 45,-12 16,2 30,9 40,22 10,14 14,28 12,45l-3 29 -39 -5 3 -29c1,-6 -1,-12 -4,-17 -4,-5 -9,-7 -15,-8 -6,-1 -12,1 -16,5 -5,3 -8,8 -9,14l-16 138c-1,6 1,12 4,16 4,5 9,8 15,9 6,0 12,-1 16,-5 5,-4 8,-8 9,-14l4 -35 39 4 -4 36c-2,16 -10,30 -23,40 -13,10 -28,15 -44,13z"/>
  <polygon class="fil0" points="1719,342 1710,186 1750,198 1753,293 1804,213 1845,224 1756,353 1727,455 1690,445 "/>
  <path class="fil0" d="M1846 504c-15,-7 -26,-19 -32,-34 -6,-16 -5,-32 2,-47l58 -126c7,-15 18,-26 34,-31 16,-6 31,-5 46,1 16,8 26,19 32,35 5,15 5,31 -2,46l-12 26 -36 -16 12 -27c3,-6 3,-11 1,-17 -2,-6 -6,-10 -12,-13 -5,-2 -11,-2 -16,0 -6,2 -10,6 -13,11l-58 127c-2,5 -2,11 0,16 2,6 6,10 11,13 6,2 11,2 17,0 6,-2 10,-6 12,-11l15 -32 36 17 -15 32c-7,15 -18,26 -34,31 -16,6 -31,5 -46,-1z"/>
  <polygon class="fil0" points="2017,599 1930,542 2069,330 2101,351 1983,531 2038,567 "/>
  <polygon class="fil0" points="2038,615 2206,424 2288,496 2262,525 2209,478 2163,531 2202,565 2177,593 2138,559 2092,612 2145,658 2120,687 "/>
  <path class="fil0" d="M797 2224c16,15 23,29 23,45 0,13 -7,27 -19,41l-24 27c-12,14 -27,20 -46,21l-52 101 -31 -27 46 -87c-1,-1 -2,-2 -3,-2l-16 -15 -64 71 -28 -25 168 -190 46 40zm-24 61l0 0c10,-11 9,-21 -2,-31l-17 -15 -54 61 17 15c5,4 10,6 16,5 6,0 11,-2 15,-7l25 -28z"/>
  <path class="fil0" d="M813 2482l-39 45 -34 -21 171 -193 44 28 -97 238 -35 -22 24 -54 -34 -21zm89 -106l0 0 -65 78 24 15 41 -93z"/>
  <path class="fil0" d="M976 2637c-15,-7 -26,-18 -33,-33 -6,-16 -6,-31 0,-46l53 -129c6,-15 17,-26 33,-33 15,-6 31,-6 46,0 16,7 27,18 33,33 7,16 7,31 0,47l-11 26 -37 -15 12 -27c2,-6 2,-12 0,-17 -3,-6 -7,-10 -12,-12 -6,-2 -12,-2 -17,0 -6,2 -10,6 -12,12l-53 129c-2,5 -2,11 0,16 2,6 6,10 12,12 6,2 11,2 17,0 6,-2 9,-6 12,-12l13 -32 37 15 -14 33c-6,15 -17,26 -32,33 -16,6 -31,6 -47,0z"/>
  <polygon class="fil0" points="1131,2685 1094,2675 1162,2431 1199,2441 "/>
  <polygon class="fil0" points="1277,2457 1302,2633 1327,2465 1365,2470 1328,2722 1287,2716 1259,2547 1235,2708 1197,2702 1234,2451 "/>
  <path class="fil0" d="M1469 2728c-17,0 -32,-6 -44,-17 -12,-12 -18,-26 -19,-42l-3 -139c-1,-17 5,-31 17,-43 11,-13 25,-19 42,-19 17,-1 31,5 43,17 13,11 19,25 19,42l1 29 -40 1 -1 -30c0,-6 -2,-11 -6,-15 -5,-4 -10,-7 -16,-6 -6,0 -11,2 -15,7 -5,4 -7,9 -6,15l3 139c0,6 2,11 7,16 4,4 9,6 15,6 7,-1 12,-3 16,-7 4,-5 6,-10 6,-16l-1 -50 -22 1 0 -39 60 -1 3 89c0,16 -6,31 -17,43 -12,12 -26,18 -42,19z"/>
  <polygon class="fil0" points="1626,2492 1586,2500 1578,2463 1695,2438 1703,2476 1663,2484 1707,2695 1670,2703 "/>
  <polygon class="fil0" points="1816,2666 1727,2428 1829,2390 1842,2426 1776,2451 1801,2516 1849,2498 1862,2534 1814,2552 1838,2617 1905,2592 1918,2628 "/>
  <path class="fil0" d="M1995 2524l21 56 -35 19 -88 -241 46 -26 162 199 -34 20 -37 -46 -35 19zm-50 -129l0 0 37 94 24 -14 -61 -80z"/>
  <polygon class="fil0" points="2202,2457 2173,2482 2006,2291 2047,2255 2194,2368 2100,2209 2139,2174 2307,2365 2278,2390 2173,2270 2253,2412 2230,2432 2097,2337 "/>
  <polygon class="fil1" points="1382,2094 1384,2144 1385,2162 1374,2175 1343,2214 1391,2227 1408,2232 1418,2247 1445,2288 1472,2247 1482,2232 1499,2227 1547,2214 1516,2175 1505,2162 1505,2144 1508,2094 1461,2112 1445,2118 1428,2112 "/>
  <polygon class="fil1" points="1734,2107 1736,2141 1736,2152 1729,2161 1708,2187 1740,2196 1751,2199 1758,2209 1776,2237 1794,2209 1801,2199 1812,2196 1844,2188 1823,2162 1816,2152 1816,2141 1818,2108 1787,2119 1776,2124 1765,2119 "/>
  <polygon class="fil1" points="2004,2014 1965,2004 1991,1972 1989,1932 2026,1946 2064,1932 2062,1972 2087,2004 2048,2014 2026,2048 "/>
  <polygon class="fil1" points="841,2014 803,2004 828,1972 826,1932 863,1946 901,1932 899,1972 924,2004 885,2014 863,2048 "/>
  <polygon class="fil1" points="1072,2107 1073,2141 1074,2152 1067,2161 1046,2187 1078,2196 1089,2199 1095,2209 1114,2237 1132,2209 1138,2199 1150,2196 1182,2188 1161,2162 1153,2152 1154,2141 1156,2108 1125,2119 1114,2124 1103,2119 "/>
  <polygon class="fil1" points="1382,795 1384,746 1385,728 1374,714 1343,676 1391,662 1408,658 1418,643 1445,601 1472,643 1482,658 1499,662 1547,675 1516,714 1505,728 1505,745 1508,795 1461,777 1445,771 1428,778 "/>
  <polygon class="fil1" points="1734,782 1736,749 1736,737 1729,728 1708,702 1740,694 1751,690 1758,681 1776,653 1794,681 1801,690 1812,693 1844,702 1823,728 1816,737 1816,749 1818,782 1787,770 1776,766 1765,770 "/>
  <polygon class="fil1" points="2004,875 1965,886 1991,917 1989,957 2026,943 2064,957 2062,917 2087,886 2048,875 2026,842 "/>
  <polygon class="fil1" points="841,875 803,886 828,917 826,957 863,943 901,957 899,917 924,886 885,875 863,842 "/>
  <polygon class="fil1" points="1072,782 1073,749 1074,737 1067,728 1046,702 1078,694 1089,690 1095,681 1114,653 1132,681 1138,690 1150,693 1182,702 1161,728 1153,737 1154,749 1156,782 1125,770 1114,766 1103,770 "/>
  <path class="fil0" d="M1445 109c660,0 1210,481 1317,1111l18 0c-108,-640 -666,-1129 -1335,-1129 -670,0 -1227,489 -1335,1129l18 0c107,-630 657,-1111 1317,-1111zm0 2672l0 0c-660,0 -1210,-481 -1317,-1111l-18 0c108,640 665,1128 1335,1128 669,0 1227,-488 1335,-1128l-18 0c-107,630 -657,1111 -1317,1111z"/>
 </g>
</svg>
