<?xml version="1.0" encoding="UTF-8"?>
<!DOCTYPE svg PUBLIC "-//W3C//DTD SVG 1.1//EN" "http://www.w3.org/Graphics/SVG/1.1/DTD/svg11.dtd">
<!-- Creator: CorelDRAW X7 -->
<svg xmlns="http://www.w3.org/2000/svg" xml:space="preserve" width="6.05839in" height="6.05902in" version="1.1" style="shape-rendering:geometricPrecision; text-rendering:geometricPrecision; image-rendering:optimizeQuality; fill-rule:evenodd; clip-rule:evenodd"
viewBox="0 0 38721 38725"
 xmlns:xlink="http://www.w3.org/1999/xlink">
 <defs>
  <style type="text/css">
   <![CDATA[
    .fil0 {fill:#BDBFC1}
    .fil1 {fill:#848688}
    .fil2 {fill:#4B4B4D}
   ]]>
  </style>
 </defs>
 <g id="Layer_x0020_1">
  <metadata id="CorelCorpID_0Corel-Layer"/>
  <path class="fil0" d="M35698 25098c-291,356 -589,697 -895,1023l0 0c-167,179 -448,189 -627,21 -179,-168 -188,-448 -21,-627 292,-312 577,-638 857,-980 155,-189 435,-217 625,-61 189,155 217,435 61,624zm-2305 -5261c-234,-71 -366,-320 -295,-554 127,-414 233,-831 321,-1250 49,-240 284,-394 524,-344 240,50 395,285 345,525 -93,445 -206,888 -341,1328 -71,235 -319,367 -554,295zm635 -7277c244,-24 461,154 486,398 45,458 76,910 91,1357 8,245 -184,450 -429,458 -245,9 -450,-183 -459,-428 -14,-427 -43,-860 -87,-1299 -24,-244 154,-462 398,-486zm-1676 10554c-226,381 -470,763 -733,1146l0 0c-139,202 -415,253 -617,115 -203,-139 -254,-416 -115,-618 252,-367 486,-732 701,-1095 125,-211 397,-281 608,-156 211,125 281,397 156,608zm-530 5538c-380,249 -773,482 -1179,698 -216,115 -485,33 -600,-184 -115,-216 -33,-485 183,-600 383,-203 752,-422 1110,-656 205,-135 480,-77 614,128 135,205 77,480 -128,614zm-1617 -15040c238,-61 480,82 540,320 110,429 208,872 292,1328l0 0c45,241 -114,473 -355,517 -241,45 -473,-114 -518,-355 -81,-438 -174,-861 -279,-1270 -60,-238 83,-479 320,-540zm-3130 13463c-1825,1826 -4221,2740 -6614,2740 -2392,0 -4788,-914 -6614,-2740 -1825,-1825 -2740,-4221 -2739,-6614 -1,-2392 914,-4788 2739,-6614 1826,-1825 4222,-2740 6614,-2739 2393,-1 4789,914 6614,2739 1826,1826 2740,4222 2740,6614 0,2393 -914,4789 -2740,6614zm2105 199c-298,322 -610,645 -935,971l0 0c-174,173 -455,173 -628,0 -173,-174 -173,-455 0,-628 318,-318 622,-634 912,-946 167,-180 448,-191 628,-24 179,167 190,448 23,627zm-1215 7240c-458,45 -910,76 -1357,90l0 1c-245,8 -451,-184 -459,-429 -8,-245 184,-451 429,-459 427,-14 859,-43 1299,-87 244,-24 461,154 486,398 24,244 -154,461 -398,486zm-2820 -3832c-44,-241 115,-473 356,-518 438,-81 861,-174 1270,-279 237,-60 479,83 540,320 61,238 -82,480 -320,540 -429,110 -872,208 -1328,292l0 0c-241,45 -473,-114 -518,-355zm-1911 3261c-50,240 -285,395 -525,345 -446,-93 -888,-206 -1329,-341 -234,-71 -366,-319 -294,-554 71,-234 319,-366 554,-295 414,127 830,233 1250,321 240,49 394,285 344,524zm-2773 -2474l0 0c-245,0 -443,-199 -443,-444 0,-245 198,-444 443,-444 450,0 888,-8 1314,-24 245,-9 451,182 460,427 10,245 -182,451 -427,460 -437,16 -886,25 -1347,25zm-2044 727c-125,211 -397,281 -608,156 -382,-226 -763,-470 -1146,-733l0 0c-202,-139 -254,-416 -115,-618 139,-202 415,-253 617,-114 367,252 733,486 1096,701 211,125 281,397 156,608zm-1968 3441c-155,189 -435,217 -624,61 -356,-291 -697,-589 -1024,-895l0 0c-179,-167 -188,-448 -20,-627 167,-179 448,-188 627,-21 311,292 638,577 979,857 190,155 218,435 62,625zm-2173 -6480c-167,179 -448,190 -628,23 -321,-298 -644,-610 -970,-935l0 0c-173,-174 -173,-455 0,-628 173,-173 455,-173 628,0 318,318 633,622 946,912 180,167 190,448 24,628zm-1391 2793c-205,135 -480,77 -614,-128 -249,-380 -482,-773 -698,-1179l0 0c-115,-216 -33,-485 184,-600 216,-115 485,-33 600,183 203,383 422,752 656,1110 135,205 77,480 -128,614zm-2167 -4639c-238,61 -480,-82 -541,-320 -110,-429 -207,-872 -291,-1328l0 0c-45,-241 114,-473 355,-518 241,-44 473,115 517,356 82,438 175,861 279,1270 61,237 -82,479 -319,540zm-1239 -5503c-17,-437 -25,-886 -25,-1347l0 0c0,-245 199,-443 444,-443 245,0 444,198 444,443 0,450 8,888 24,1314 9,245 -182,451 -427,460 -245,9 -451,-182 -460,-427zm-752 -3391c-211,-125 -281,-397 -156,-608 226,-382 470,-764 733,-1146l0 0c139,-202 415,-254 617,-115 202,139 254,415 115,617 -252,367 -486,732 -701,1096 -125,211 -397,281 -608,156zm3016 -4769c298,-321 610,-644 935,-970l0 0c173,-173 455,-173 628,0 173,173 173,455 0,628 -318,318 -622,633 -913,946 -166,180 -447,190 -627,24 -179,-167 -190,-448 -23,-628zm2189 -3471c429,-109 872,-207 1328,-291l0 0c241,-45 473,114 517,355 45,241 -114,473 -355,517 -438,82 -861,175 -1270,279 -238,61 -479,-82 -540,-319 -61,-238 82,-480 320,-541zm5182 -698c438,-17 887,-25 1347,-25l0 0c245,0 444,199 444,444 0,245 -199,444 -444,444 -449,0 -887,8 -1313,24 -245,9 -451,-182 -461,-427 -9,-245 182,-451 427,-460zm3392 -752c125,-211 397,-281 608,-156 381,226 763,470 1146,733l0 0c202,139 253,415 115,617 -139,202 -415,254 -618,115 -367,-252 -732,-486 -1095,-701 -211,-125 -281,-397 -156,-608zm1968 -3441c155,-189 435,-217 624,-62 356,292 697,590 1023,896 179,167 189,448 21,627 -168,179 -448,188 -627,21 -312,-292 -638,-577 -980,-857 -189,-156 -217,-435 -61,-625zm2173 6480c167,-179 448,-190 627,-23 322,298 645,610 971,935l0 0c173,174 173,455 0,628 -174,173 -455,173 -628,0 -318,-318 -634,-622 -946,-913 -180,-166 -191,-447 -24,-627zm1391 -2794c205,-134 480,-77 614,128 249,381 482,773 698,1180l0 0c115,216 33,485 -184,600 -216,115 -485,33 -600,-184 -203,-382 -422,-751 -657,-1109 -134,-205 -76,-480 129,-615zm3406 10142c16,438 25,887 25,1347l0 0c0,245 -199,444 -444,444 -245,0 -444,-199 -444,-444 0,-449 -8,-887 -24,-1313 -9,-245 182,-451 427,-461 245,-9 451,182 460,427zm-23620 2526c-126,414 -233,830 -320,1250 -50,240 -285,394 -525,344 -240,-50 -394,-285 -344,-525 93,-446 206,-888 340,-1329 72,-234 320,-366 555,-294 234,71 366,319 294,554zm-929 6723c-244,24 -462,-154 -486,-398 -45,-458 -76,-910 -91,-1357l0 0c-8,-245 184,-451 429,-459 245,-8 450,184 458,429 15,427 44,859 88,1299 24,244 -154,462 -398,486zm30935 -8008c1,-91 3,-182 3,-274 0,-3807 -1391,-7600 -3993,-10711 -44,147 -161,268 -321,306 -238,57 -477,-90 -534,-329 -98,-410 -205,-828 -320,-1253 -2968,-2929 -6723,-4572 -10579,-4932 74,135 77,304 -9,445 -129,209 -402,274 -611,145 -53,-33 -109,-65 -163,-98l-2568 3100c270,66 539,139 807,221l0 0c235,72 367,320 295,555 -71,234 -320,366 -554,294 -392,-119 -786,-220 -1182,-305l-96 116c-64,78 -151,130 -249,151 -2368,503 -4619,1672 -6459,3511 -146,147 -287,297 -425,448 3,4 6,7 8,12 115,216 33,485 -184,600 -211,112 -417,229 -620,351 -1146,1531 -1909,3256 -2290,5048 -21,98 -73,185 -151,249l-4518 3742c202,3500 1571,6942 3965,9806 44,-148 161,-268 321,-306 239,-57 478,90 535,328 98,411 205,829 320,1254 2967,2928 6723,4572 10578,4932 -73,-135 -76,-304 10,-445 129,-209 402,-274 611,-145 362,223 735,444 1120,665 3903,-27 7796,-1358 10972,-3997 -145,-44 -265,-161 -302,-320 -57,-238 90,-477 328,-534 411,-98 829,-205 1253,-320 1701,-1724 2946,-3713 3768,-5837 590,-1522 962,-3114 1131,-4723 -129,56 -282,51 -411,-28 -209,-129 -274,-402 -145,-611 221,-359 440,-729 659,-1111z"/>
  <path class="fil1" d="M21860 1123c-43,-71 -104,-128 -178,-164 -50,-24 -106,-40 -174,-43 -348,-19 -697,-28 -1045,-28 -5012,0 -10019,1909 -13843,5732 -3824,3824 -5732,8832 -5732,13844 0,173 2,346 7,519 3,106 26,195 63,275 37,80 89,150 154,209 128,118 307,188 482,187 151,-1 299,-46 439,-161l178 -147 439 -365 312 -258 5 -4 125 -104 3861 -3198c364,-1621 1023,-3190 1975,-4621 173,-258 354,-512 546,-761 364,-474 761,-931 1196,-1365 1923,-1924 4275,-3162 6747,-3717l3113 -3758 89 -107 362 -438 123 -148 235 -283 486 -588c74,-90 101,-179 102,-274 0,-80 -23,-163 -67,-234z"/>
  <path class="fil2" d="M26448 26448c-1655,1654 -3819,2479 -5987,2479 -2168,0 -4332,-825 -5986,-2479 -1654,-1655 -2479,-3819 -2480,-5987 1,-2168 826,-4332 2480,-5986 1654,-1654 3818,-2479 5986,-2480 2168,1 4332,826 5987,2480 1654,1654 2479,3818 2479,5986 0,2168 -825,4332 -2479,5987zm-5987 -15340c-2392,-1 -4788,914 -6614,2739 -1825,1826 -2740,4222 -2739,6614 -1,2393 914,4789 2739,6614 1826,1826 4222,2740 6614,2740 2393,0 4789,-914 6614,-2740 1826,-1825 2740,-4221 2740,-6614 0,-2392 -914,-4788 -2740,-6614 -1825,-1825 -4221,-2740 -6614,-2739zm7416 22522c-440,44 -872,73 -1299,87 -245,8 -437,214 -429,459 8,245 214,437 459,429l0 -1c447,-14 899,-45 1357,-90 244,-25 422,-242 398,-486 -25,-244 -242,-422 -486,-398zm652 -6959c-290,312 -594,628 -912,946 -173,173 -173,454 0,628 173,173 454,173 628,0l0 0c325,-326 637,-649 935,-971 167,-179 156,-460 -23,-627 -180,-167 -461,-156 -628,24zm-1538 4074c238,-60 381,-302 320,-540 -61,-237 -303,-380 -540,-320 -409,105 -832,198 -1270,279 -241,45 -400,277 -356,518 45,241 277,400 518,355l0 0c456,-84 899,-182 1328,-292zm-4101 2674c-420,-88 -836,-194 -1250,-321 -235,-71 -483,61 -554,295 -72,235 60,483 294,554 441,135 883,248 1329,341 240,50 475,-105 525,-345 50,-240 -104,-475 -344,-524zm-4629 -1831c-363,-215 -729,-449 -1096,-701 -202,-139 -478,-88 -617,114 -139,202 -87,479 115,618l0 0c383,263 764,507 1146,733 211,125 483,55 608,-156 125,-211 55,-483 -156,-608zm3974 -604c-9,-245 -215,-436 -460,-427 -426,16 -864,24 -1314,24 -245,0 -443,199 -443,444 0,245 198,444 443,444l0 0c461,0 910,-9 1347,-25 245,-9 437,-215 427,-460zm9961 -8478c-211,-125 -483,-55 -608,156 -215,363 -449,728 -701,1095 -139,202 -88,479 115,618 202,138 478,87 617,-115l0 0c263,-383 507,-765 733,-1146 125,-211 55,-483 -156,-608zm2816 2029c-280,342 -565,668 -857,980 -167,179 -158,459 21,627 179,168 460,158 627,-21l0 0c306,-326 604,-667 895,-1023 156,-189 128,-469 -61,-624 -190,-156 -470,-128 -625,61zm2304 -2458c129,79 282,84 411,28 -169,1609 -541,3201 -1131,4723 -822,2124 -2067,4113 -3768,5837 -424,115 -842,222 -1253,320 -238,57 -385,296 -328,534 37,159 157,276 302,320 -3176,2639 -7069,3970 -10972,3997 -385,-221 -758,-442 -1120,-665 -209,-129 -482,-64 -611,145 -86,141 -83,310 -10,445 -3855,-360 -7611,-2004 -10578,-4932 -115,-425 -222,-843 -320,-1254 -57,-238 -296,-385 -535,-328 -160,38 -277,159 -321,306 -2394,-2864 -3763,-6306 -3965,-9806l4518 -3742c78,-64 130,-151 151,-249 381,-1792 1144,-3517 2290,-5048 203,-122 409,-239 620,-351 217,-115 299,-384 184,-600 -2,-5 -5,-8 -8,-12 138,-151 279,-301 425,-448 1840,-1839 4091,-3008 6459,-3511 98,-21 185,-73 249,-151l96 -116c397,85 790,186 1182,305 234,72 483,-60 554,-294 72,-235 -60,-483 -295,-555l0 0c-268,-82 -537,-155 -807,-221l2568 -3100c54,33 110,65 163,98 209,129 482,64 611,-145 86,-141 83,-310 9,-445 3856,360 7611,2003 10579,4932 115,425 222,843 320,1253 57,239 296,386 534,329 160,-38 277,-159 321,-306 2602,3111 3993,6904 3993,10711 0,92 -2,183 -3,274 -219,382 -438,752 -659,1111 -129,209 -64,482 145,611zm-34349 -1358c-2,1 -3,3 -5,4l-312 258 -439 365 -178 147c-140,115 -288,160 -439,161 -175,1 -354,-69 -482,-187 -65,-59 -117,-129 -154,-209 -37,-80 -60,-169 -63,-275 -5,-173 -7,-346 -7,-519 0,-5012 1908,-10020 5732,-13844 3824,-3823 8831,-5732 13843,-5732 348,0 697,9 1045,28 68,3 124,19 174,43 74,36 135,93 178,164 44,71 67,154 67,234 -1,95 -28,184 -102,274l-486 588 -235 283 -123 148 -362 438 -89 107 -3113 3758c-2472,555 -4824,1793 -6747,3717 -434,434 -832,891 -1196,1365 -192,249 -373,503 -546,761 -952,1431 -1611,3000 -1975,4621l-3861 3198 -125 104zm30409 -13172l0 0c-3066,-3066 -6955,-4814 -10955,-5243l88 -106c207,-249 307,-552 306,-841 -1,-332 -125,-649 -344,-894 -110,-122 -245,-226 -401,-302 -154,-76 -330,-122 -514,-132 -364,-19 -729,-29 -1093,-29 -5236,-1 -10476,1997 -14471,5992 -3995,3995 -5992,9236 -5992,14472 0,181 2,362 7,543 6,225 58,439 147,627 133,284 345,512 596,667 251,155 542,241 844,241 228,1 462,-52 681,-158 375,4021 2202,7921 5272,10992 3565,3565 8242,5349 12914,5349 4673,0 9349,-1784 12914,-5349 1834,-1834 3172,-3961 4049,-6228 878,-2267 1297,-4672 1297,-7067 0,-4555 -1883,-9072 -5345,-12534zm-2694 8230c241,-44 400,-276 355,-517l0 0c-84,-456 -182,-899 -292,-1328 -60,-238 -302,-381 -540,-320 -237,61 -380,302 -320,540 105,409 198,832 279,1270 45,241 277,400 518,355zm3261 1912c-239,-50 -475,104 -524,344 -88,419 -194,836 -321,1250 -71,234 61,483 295,554 235,72 483,-60 554,-295 135,-440 248,-883 341,-1328 50,-240 -105,-475 -345,-525zm-2607 10220c-358,235 -727,454 -1110,657 -216,115 -298,384 -183,600 115,217 384,299 600,184 406,-216 799,-449 1179,-698 205,-134 263,-409 128,-614 -134,-205 -409,-263 -614,-129zm2840 -13136c245,-8 437,-213 429,-458 -15,-447 -46,-899 -91,-1357 -25,-244 -242,-422 -486,-398 -244,24 -422,242 -398,486 44,439 73,872 87,1299 9,245 214,437 459,428zm-18768 19382c-179,-167 -460,-158 -627,21 -168,179 -159,460 20,627l0 0c327,306 668,604 1024,895 189,156 469,128 624,-61 156,-190 128,-470 -62,-625 -341,-280 -668,-565 -979,-857zm3740 -23789c426,-16 864,-24 1313,-24 245,0 444,-199 444,-444 0,-245 -199,-444 -444,-444l0 0c-460,0 -909,8 -1347,25 -245,9 -436,215 -427,460 10,245 216,436 461,427zm8469 2940c173,173 454,173 628,0 173,-173 173,-454 0,-628l0 0c-326,-325 -649,-637 -971,-935 -179,-167 -460,-156 -627,23 -167,180 -156,461 24,627 312,291 628,595 946,913zm-4955 -3971c363,215 728,449 1095,701 203,139 479,87 618,-115 138,-202 87,-478 -115,-617l0 0c-383,-263 -765,-507 -1146,-733 -211,-125 -483,-55 -608,156 -125,211 -55,483 156,608zm5904 1361c115,217 384,299 600,184 217,-115 299,-384 184,-600l0 0c-216,-407 -449,-799 -698,-1180 -134,-205 -409,-262 -614,-128 -205,135 -263,410 -129,615 235,358 454,727 657,1109zm-3051 -3928c179,167 459,158 627,-21 168,-179 158,-460 -21,-627 -326,-306 -667,-604 -1023,-896 -189,-155 -469,-127 -624,62 -156,190 -128,469 61,625 342,280 668,565 980,857zm-18768 19381c-245,8 -437,214 -429,459l0 0c15,447 46,899 91,1357 24,244 242,422 486,398 244,-25 422,-242 398,-486 -44,-440 -73,-872 -88,-1299 -8,-245 -213,-437 -458,-429zm23810 -7001c16,426 24,864 24,1313 0,245 199,444 444,444 245,0 444,-199 444,-444l0 0c0,-460 -9,-909 -25,-1347 -9,-245 -215,-436 -460,-427 -245,10 -436,216 -427,461zm-23027 1938c-235,-72 -483,60 -555,294 -134,441 -247,883 -340,1329 -50,240 104,475 344,525 240,50 475,-104 525,-344 87,-420 194,-836 320,-1250 72,-235 -60,-483 -294,-554zm3228 4415c-44,-241 -276,-400 -517,-356 -241,45 -400,277 -355,518l0 0c84,456 181,899 291,1328 61,238 303,381 541,320 237,-61 380,-303 319,-540 -104,-409 -197,-832 -279,-1270zm-392 -3726c-16,-426 -24,-864 -24,-1314 0,-245 -199,-443 -444,-443 -245,0 -444,198 -444,443l0 0c0,461 8,910 25,1347 9,245 215,436 460,427 245,-9 436,-215 427,-460zm2940 5842c-173,-173 -455,-173 -628,0 -173,173 -173,454 0,628l0 0c326,325 649,637 970,935 180,167 461,156 628,-23 166,-180 156,-461 -24,-628 -313,-290 -628,-594 -946,-912zm-949 2609c-115,-216 -384,-298 -600,-183 -217,115 -299,384 -184,600l0 0c216,406 449,799 698,1179 134,205 409,263 614,128 205,-134 263,-409 128,-614 -234,-358 -453,-727 -656,-1110zm1795 -19189c409,-104 832,-197 1270,-279 241,-44 400,-276 355,-517 -44,-241 -276,-400 -517,-355l0 0c-456,84 -899,182 -1328,291 -238,61 -381,303 -320,541 61,237 302,380 540,319zm-1759 3215c291,-313 595,-628 913,-946 173,-173 173,-455 0,-628 -173,-173 -455,-173 -628,0l0 0c-325,326 -637,649 -935,970 -167,180 -156,461 23,628 180,166 461,156 627,-24zm-2472 2296c-202,-139 -478,-87 -617,115l0 0c-263,382 -507,764 -733,1146 -125,211 -55,483 156,608 211,125 483,55 608,-156 215,-364 449,-729 701,-1096 139,-202 87,-478 -115,-617z"/>
 </g>
</svg>
