<?xml version="1.0" encoding="UTF-8"?>
<!DOCTYPE svg PUBLIC "-//W3C//DTD SVG 1.1//EN" "http://www.w3.org/Graphics/SVG/1.1/DTD/svg11.dtd">
<!-- Creator: CorelDRAW X7 -->
<svg xmlns="http://www.w3.org/2000/svg" xml:space="preserve" width="2.7496in" height="2.74781in" version="1.1" style="shape-rendering:geometricPrecision; text-rendering:geometricPrecision; image-rendering:optimizeQuality; fill-rule:evenodd; clip-rule:evenodd"
viewBox="0 0 549 548"
 xmlns:xlink="http://www.w3.org/1999/xlink">
 <defs>
  <style type="text/css">
   <![CDATA[
    .fil0 {fill:#606062}
    .fil1 {fill:#525253}
   ]]>
  </style>
 </defs>
 <g id="Layer_x0020_1">
  <metadata id="CorelCorpID_0Corel-Layer"/>
  <path class="fil0" d="M75 299c-1,-8 -2,-16 -2,-25 0,-8 1,-17 2,-25l126 0c2,2 4,5 7,7 0,0 0,1 0,1 -20,5 -33,11 -33,17 0,7 13,13 33,17 0,1 0,2 0,3 -2,2 -3,4 -5,5l-128 0zm11 45l136 0c-1,9 0,15 3,17 6,3 16,-4 28,-17l5 0c4,18 10,30 16,30l0 -75 -33 0c-5,-7 -8,-15 -8,-25 0,-9 3,-18 8,-25l33 0 0 -74c-6,0 -12,11 -16,29l-7 0c-12,-12 -22,-18 -28,-15 -3,2 -4,7 -3,15l-134 0c28,-76 102,-131 188,-131l0 -62c-3,0 -6,-11 -10,-11 -3,0 -6,11 -9,11 -3,1 -7,-10 -11,-10 -3,1 -5,12 -8,12 -3,1 -8,-9 -11,-9 -4,1 -5,12 -8,13 -3,1 -9,-9 -12,-8 -3,1 -3,12 -7,13 -3,1 -9,-9 -12,-8 -3,2 -3,13 -6,14 -3,1 -10,-8 -13,-6 -3,1 -2,12 -5,13 -2,2 -10,-6 -13,-5 -3,2 -1,13 -4,14 -2,2 -11,-6 -14,-4 -2,2 1,12 -2,14 -3,2 -12,-5 -14,-3 -3,2 1,13 -2,15 -2,2 -12,-5 -14,-3 -3,2 2,13 -1,15 -2,2 -12,-4 -14,-1 -2,2 3,12 1,14 -3,3 -13,-2 -15,0 -2,3 4,12 2,15 -2,2 -13,-2 -15,0 -2,3 5,12 3,15 -2,2 -13,-1 -14,2 -2,3 5,11 3,14 -1,3 -12,0 -14,3 -2,3 6,11 5,14 -2,3 -13,1 -14,4 -1,3 7,10 6,13 -2,3 -13,2 -14,5 -1,3 8,10 7,13 -1,3 -12,3 -13,6 -1,3 8,9 7,12 -1,4 -12,4 -12,8 -1,3 9,8 8,11 0,4 -12,5 -12,8 -1,3 10,8 9,11 0,4 -11,6 -11,9 -1,3 10,7 10,11 0,3 -11,6 -11,9 0,4 11,7 11,10 0,3 -11,7 -10,10 0,4 11,6 11,9 1,3 -10,8 -9,11 0,3 12,5 12,8 1,3 -9,9 -8,12 0,3 11,4 12,7 1,3 -8,9 -7,12 1,3 12,3 13,6 1,3 -8,10 -7,13 1,3 12,2 14,5 1,3 -8,11 -6,14 1,3 12,1 14,4 1,3 -7,11 -5,14 2,2 13,0 14,3 2,2 -5,11 -3,14 1,2 12,-1 14,2 2,2 -5,11 -3,14 2,3 13,-2 15,1 2,2 -4,12 -2,14 2,3 12,-2 15,0 2,3 -3,12 -1,15 2,2 12,-4 14,-1 3,2 -2,12 1,14 2,2 12,-4 14,-2 3,2 -1,12 2,14 2,2 11,-5 14,-3 3,2 0,13 2,14 3,2 11,-5 14,-4 3,2 1,13 4,14 3,2 10,-6 13,-5 3,1 2,13 5,14 3,1 10,-8 13,-6 3,1 3,12 6,13 3,1 9,-8 12,-7 4,1 4,12 7,13 3,1 9,-9 12,-8 3,0 4,12 8,12 3,1 8,-9 11,-9 3,1 5,12 8,12 4,0 8,-10 11,-10 3,0 6,11 9,11 4,1 7,-10 10,-10l0 -63c-86,0 -160,-54 -188,-131z"/>
  <path class="fil0" d="M249 274c0,14 12,25 25,25l0 -14c-6,0 -11,-5 -11,-11 0,-6 5,-11 11,-11l0 -14c-13,0 -25,11 -25,25z"/>
  <path class="fil1" d="M348 299c-2,-2 -5,-4 -7,-7 0,0 0,-1 0,-1 20,-4 33,-10 33,-17 0,-6 -13,-12 -33,-17 0,-1 0,-2 -1,-3 2,-1 4,-3 6,-5l128 0c1,8 2,17 2,25 0,9 -1,17 -2,25l-126 0zm-64 249c4,0 6,-11 10,-11 3,0 7,10 10,10 4,0 6,-11 9,-12 3,0 8,10 11,9 3,0 5,-12 8,-12 3,-1 9,9 12,8 3,-1 3,-12 6,-13 4,-1 10,8 13,7 3,-1 3,-12 6,-13 3,-2 10,7 13,6 3,-1 1,-13 4,-14 3,-1 11,7 14,5 3,-1 1,-12 3,-14 3,-1 12,6 14,4 3,-1 0,-12 3,-14 3,-2 11,5 14,3 3,-1 -1,-12 2,-14 2,-2 11,4 14,2 2,-2 -2,-12 0,-14 3,-3 12,3 15,1 2,-3 -3,-12 -1,-15 2,-2 13,3 15,0 2,-2 -4,-12 -2,-14 2,-3 13,2 15,-1 2,-3 -5,-12 -3,-14 2,-3 12,0 14,-2 2,-3 -5,-12 -4,-14 2,-3 13,-1 15,-3 1,-3 -7,-11 -5,-14 1,-3 13,-1 14,-4 1,-3 -7,-11 -6,-14 1,-3 13,-2 14,-5 1,-3 -8,-10 -7,-13 1,-3 12,-3 13,-6 1,-3 -8,-9 -7,-12 0,-3 12,-4 12,-7 1,-3 -9,-9 -8,-12 0,-3 11,-5 12,-8 0,-3 -10,-8 -10,-11 1,-3 12,-5 12,-9 0,-3 -10,-7 -10,-10 0,-3 11,-6 11,-10 0,-3 -11,-6 -11,-9 0,-4 10,-8 10,-11 0,-3 -11,-5 -12,-9 0,-3 10,-8 10,-11 -1,-3 -12,-4 -12,-8 -1,-3 9,-8 8,-11 0,-4 -12,-4 -12,-7 -1,-4 8,-10 7,-13 -1,-3 -12,-3 -13,-6 -1,-3 8,-10 7,-13 -1,-3 -13,-2 -14,-5 -1,-3 7,-10 6,-13 -1,-3 -13,-1 -14,-4 -2,-3 6,-11 5,-14 -2,-3 -13,0 -15,-3 -1,-3 6,-11 4,-14 -2,-3 -12,0 -14,-2 -2,-3 5,-12 3,-14 -2,-3 -13,1 -15,-1 -2,-3 4,-12 2,-15 -2,-2 -13,3 -15,0 -2,-2 3,-12 1,-14 -2,-3 -12,3 -15,1 -2,-2 2,-13 0,-15 -3,-2 -12,5 -14,3 -3,-2 1,-13 -2,-15 -3,-2 -11,5 -14,3 -3,-1 0,-12 -3,-14 -2,-2 -11,6 -14,4 -2,-1 0,-12 -3,-14 -3,-1 -11,7 -14,5 -3,-1 -1,-12 -4,-13 -3,-2 -10,7 -13,6 -3,-1 -3,-12 -6,-14 -3,-1 -9,9 -13,8 -3,-1 -3,-12 -6,-13 -3,-1 -9,9 -12,8 -3,-1 -5,-12 -8,-13 -3,0 -8,10 -11,9 -3,0 -5,-11 -9,-12 -3,0 -7,11 -10,10 -4,0 -6,-11 -10,-11 -3,0 -6,11 -10,11l0 62c87,0 161,55 189,131l-136 0c1,-9 0,-15 -4,-17 -5,-3 -15,4 -27,17l-6 0c-4,-18 -9,-29 -16,-29l0 74 34 0c5,7 8,16 8,25 0,10 -3,18 -8,25l-34 0 0 75c7,0 12,-12 16,-30l8 0c12,13 22,19 27,16 4,-2 5,-8 3,-16l135 0c-28,77 -102,131 -189,131l0 63c4,0 7,11 10,10z"/>
  <path class="fil1" d="M285 274c0,6 -5,11 -11,11l0 14c14,0 25,-11 25,-25 0,-14 -11,-25 -25,-25l0 14c6,0 11,5 11,11z"/>
 </g>
</svg>
