<?xml version="1.0" encoding="UTF-8"?>
<!DOCTYPE svg PUBLIC "-//W3C//DTD SVG 1.1//EN" "http://www.w3.org/Graphics/SVG/1.1/DTD/svg11.dtd">
<!-- Creator: CorelDRAW X7 -->
<svg xmlns="http://www.w3.org/2000/svg" xml:space="preserve" width="3.33944in" height="3.3155in" version="1.1" style="shape-rendering:geometricPrecision; text-rendering:geometricPrecision; image-rendering:optimizeQuality; fill-rule:evenodd; clip-rule:evenodd"
viewBox="0 0 2217 2201"
 xmlns:xlink="http://www.w3.org/1999/xlink">
 <defs>
  <style type="text/css">
   <![CDATA[
    .fil0 {fill:#606062}
   ]]>
  </style>
 </defs>
 <g id="Layer_x0020_1">
  <metadata id="CorelCorpID_0Corel-Layer"/>
  <polygon class="fil0" points="1493,1305 1289,1095 1499,891 1321,708 1111,912 907,702 724,880 928,1090 718,1295 896,1477 1106,1273 1310,1483 "/>
  <polygon class="fil0" points="2217,290 1927,0 1684,242 1636,395 1423,608 1609,794 1822,581 1975,533 "/>
  <polygon class="fil0" points="1911,2201 2201,1911 1959,1669 1806,1620 1593,1407 1407,1593 1620,1806 1669,1959 "/>
  <polygon class="fil0" points="0,1895 290,2185 533,1943 581,1790 794,1577 608,1391 395,1604 242,1653 "/>
  <polygon class="fil0" points="306,30 16,320 258,562 411,611 624,824 810,638 597,425 548,272 "/>
 </g>
</svg>
