<?xml version="1.0" encoding="UTF-8"?>
<!DOCTYPE svg PUBLIC "-//W3C//DTD SVG 1.1//EN" "http://www.w3.org/Graphics/SVG/1.1/DTD/svg11.dtd">
<!-- Creator: CorelDRAW X7 -->
<svg xmlns="http://www.w3.org/2000/svg" xml:space="preserve" width="5.68196in" height="5.68195in" version="1.1" style="shape-rendering:geometricPrecision; text-rendering:geometricPrecision; image-rendering:optimizeQuality; fill-rule:evenodd; clip-rule:evenodd"
viewBox="0 0 4463 4463"
 xmlns:xlink="http://www.w3.org/1999/xlink">
 <defs>
  <style type="text/css">
   <![CDATA[
    .fil2 {fill:#F26B35;fill-rule:nonzero}
    .fil1 {fill:#29C0D8;fill-rule:nonzero}
    .fil0 {fill:#29A2B6;fill-rule:nonzero}
   ]]>
  </style>
 </defs>
 <g id="icons">
  <metadata id="CorelCorpID_0Corel-Layer"/>
  <path class="fil0" d="M1553 4098l328 -328c24,-25 24,-65 0,-89 -301,-301 64,-776 284,-996l805 -804c107,-107 107,-281 0,-388 -108,-107 -281,-107 -388,0l-805 804c-220,220 -695,585 -995,285 -25,-25 -65,-25 -89,0l-328 328 62 62 -22 21 -62 -61 -325 325c-24,24 -24,64 0,88l132 132c-25,220 47,450 216,619 170,170 399,242 620,217l131 131c25,25 65,25 89,0l325 -324 -62 -62 22 -22 62 62zm-874 -314l0 0c-148,-148 -148,-388 0,-536 148,-148 388,-148 535,0 148,148 148,388 0,536 -147,148 -387,148 -535,0z"/>
  <path class="fil1" d="M4450 1328l-1316 -1315c-16,-17 -44,-17 -61,0l-122 122c-17,17 -17,44 0,61l1316 1316c16,17 44,17 61,0l122 -123c17,-16 17,-44 0,-61zm-428 429l0 0 -1316 -1316c-17,-17 -44,-17 -61,0l-857 857c-17,16 -17,44 0,61l1316 1315c17,17 44,17 61,0l857 -856c17,-17 17,-45 0,-61zm183 -184l0 0 -1315 -1316c-17,-16 -45,-16 -61,0l-62 62c-16,16 -16,44 0,61l1316 1315c17,17 44,17 61,0l61 -61c17,-17 17,-44 0,-61z"/>
  <path class="fil2" d="M2954 1868c-99,99 -260,99 -359,0 -99,-100 -99,-260 0,-360 99,-99 260,-99 359,0 100,100 100,260 0,360z"/>
 </g>
</svg>
