<?xml version="1.0" encoding="UTF-8"?>
<!DOCTYPE svg PUBLIC "-//W3C//DTD SVG 1.1//EN" "http://www.w3.org/Graphics/SVG/1.1/DTD/svg11.dtd">
<!-- Creator: CorelDRAW X7 -->
<svg xmlns="http://www.w3.org/2000/svg" xml:space="preserve" width="0.498358in" height="0.498386in" version="1.1" style="shape-rendering:geometricPrecision; text-rendering:geometricPrecision; image-rendering:optimizeQuality; fill-rule:evenodd; clip-rule:evenodd"
viewBox="0 0 331 331"
 xmlns:xlink="http://www.w3.org/1999/xlink">
 <defs>
  <style type="text/css">
   <![CDATA[
    .fil1 {fill:#FEFEFE}
    .fil2 {fill:#74CBF2}
    .fil0 {fill:#777876}
   ]]>
  </style>
 </defs>
 <g id="Layer_x0020_1">
  <metadata id="CorelCorpID_0Corel-Layer"/>
  <path class="fil0" d="M331 186l0 -41 -45 -8c-3,-13 -9,-26 -15,-37l26 -37 -29 -29 -37 26c-11,-7 -24,-12 -37,-15l-8 -45 -41 0 -8 45c-14,3 -26,8 -37,15l-37 -26 -29 29 26 37c-7,11 -13,24 -16,37l-44 8 0 41 44 8c3,13 9,26 16,37l-26 37 29 29 37 -26c11,6 23,12 37,15l8 45 41 0 8 -45c13,-3 26,-9 37,-15l37 26 29 -29 -26 -37c6,-11 12,-24 15,-37l45 -8z"/>
  <path class="fil1" d="M165 248c-45,0 -83,-37 -83,-83 0,-45 38,-83 83,-83 46,0 83,38 83,83 0,46 -37,83 -83,83l0 0z"/>
  <path class="fil2" d="M165 88c43,0 77,35 77,77 0,43 -34,78 -77,78 -43,0 -77,-35 -77,-78 0,-42 34,-77 77,-77l0 0z"/>
  <path class="fil1" d="M165 133c19,0 33,14 33,32 0,19 -14,33 -33,33 -18,0 -33,-14 -33,-33 0,-18 15,-32 33,-32l0 0z"/>
 </g>
</svg>
