<?xml version="1.0" encoding="UTF-8"?>
<!DOCTYPE svg PUBLIC "-//W3C//DTD SVG 1.1//EN" "http://www.w3.org/Graphics/SVG/1.1/DTD/svg11.dtd">
<!-- Creator: CorelDRAW X7 -->
<svg xmlns="http://www.w3.org/2000/svg" xml:space="preserve" width="0.495917in" height="1.16613in" version="1.1" style="shape-rendering:geometricPrecision; text-rendering:geometricPrecision; image-rendering:optimizeQuality; fill-rule:evenodd; clip-rule:evenodd"
viewBox="0 0 37 88"
 xmlns:xlink="http://www.w3.org/1999/xlink">
 <defs>
  <style type="text/css">
   <![CDATA[
    .fil0 {fill:#282828;fill-rule:nonzero}
   ]]>
  </style>
 </defs>
 <g id="OBJECTS">
  <metadata id="CorelCorpID_0Corel-Layer"/>
  <polygon class="fil0" points="14,48 27,84 37,80 24,44 "/>
  <polygon class="fil0" points="30,88 37,85 36,82 29,85 "/>
  <path class="fil0" d="M2 13c1,0 4,0 4,1 1,1 10,28 10,28l-2 1 1 3 7 -3 -1 -3 -2 1c0,0 -10,-27 -10,-28 -1,-1 2,-3 2,-3 1,0 -5,-10 -5,-10l-6 2c0,0 2,12 2,11z"/>
 </g>
</svg>
