<?xml version="1.0" encoding="UTF-8"?>
<!DOCTYPE svg PUBLIC "-//W3C//DTD SVG 1.1//EN" "http://www.w3.org/Graphics/SVG/1.1/DTD/svg11.dtd">
<!-- Creator: CorelDRAW X7 -->
<svg xmlns="http://www.w3.org/2000/svg" xml:space="preserve" width="0.582236in" height="0.72111in" version="1.1" style="shape-rendering:geometricPrecision; text-rendering:geometricPrecision; image-rendering:optimizeQuality; fill-rule:evenodd; clip-rule:evenodd"
viewBox="0 0 31 38"
 xmlns:xlink="http://www.w3.org/1999/xlink">
 <defs>
  <style type="text/css">
   <![CDATA[
    .fil0 {fill:#74CBF2}
    .fil1 {fill:#777876}
   ]]>
  </style>
 </defs>
 <g id="Layer_x0020_1">
  <metadata id="CorelCorpID_0Corel-Layer"/>
  <path class="fil0" d="M10 3c0,0 0,-1 0,-1 1,0 1,0 1,0l2 1c0,1 0,1 0,1 -1,0 -1,1 -1,1 0,0 0,-1 0,-1l-2 -1z"/>
  <path class="fil0" d="M18 4c0,0 0,0 0,0l2 -2c0,0 0,0 1,0 0,0 0,1 0,1l-2 1c0,1 0,1 0,1 0,0 -1,0 -1,-1l0 0z"/>
  <path class="fil1" d="M0 13l12 0 0 -5 1 0c0,0 0,-1 0,-1l0 0c0,-2 1,-3 2,-3l0 0c2,0 3,1 3,3l0 0c0,0 0,1 0,1l1 0 0 5 11 0 1 0 0 0 0 11 0 0 -1 0 -2 0 0 12 2 0c0,0 0,0 1,0l0 0c0,1 0,1 0,1 0,1 0,1 0,1 -1,0 -1,0 -1,0l-7 0c0,0 0,0 0,0l0 0c0,0 -1,0 -1,-1 0,0 1,0 1,-1l0 0c0,0 0,0 0,0l3 0 0 -4 -21 0 0 4 2 0c1,0 1,0 1,0l0 0c0,1 0,1 0,1 0,1 0,1 0,1 0,0 0,0 -1,0l-6 0c0,0 -1,0 -1,0l0 0c0,0 0,0 0,-1 0,0 0,0 0,-1l0 0c0,0 1,0 1,0l2 0 0 -12 -3 0 0 0 0 0 0 -11 0 0 0 0zm26 17l0 -6 -21 0 0 6 21 0zm-22 -16l-3 5 0 4 2 0 6 -9 -5 0zm26 0l-5 0 -6 9 5 0 6 -9zm-7 0l-5 0 -6 9 5 0 6 -9zm-7 0l-5 0 -6 9 5 0 6 -9z"/>
  <path class="fil0" d="M15 3l0 -2c0,-1 0,-1 0,-1 1,0 1,0 1,1l0 2c0,0 0,0 -1,0 0,0 0,0 0,0l0 0z"/>
 </g>
</svg>
