<?xml version="1.0" encoding="UTF-8"?>
<!DOCTYPE svg PUBLIC "-//W3C//DTD SVG 1.1//EN" "http://www.w3.org/Graphics/SVG/1.1/DTD/svg11.dtd">
<!-- Creator: CorelDRAW X8 -->
<svg xmlns="http://www.w3.org/2000/svg" xml:space="preserve" width="0.590169in" height="0.738094in" version="1.1" style="shape-rendering:geometricPrecision; text-rendering:geometricPrecision; image-rendering:optimizeQuality; fill-rule:evenodd; clip-rule:evenodd"
viewBox="0 0 532 666"
 xmlns:xlink="http://www.w3.org/1999/xlink">
 <defs>
  <style type="text/css">
   <![CDATA[
    .fil1 {fill:#74CBF2}
    .fil0 {fill:#777876}
   ]]>
  </style>
 </defs>
 <g id="Layer_x0020_1">
  <metadata id="CorelCorpID_0Corel-Layer"/>
  <path class="fil0" d="M532 141c-2,-16 -14,-36 -30,-43l-210 -93c-7,-3 -17,-5 -26,-5 -10,0 -18,2 -25,5l-211 93c-16,7 -29,27 -29,43 -1,9 -7,216 31,284 39,67 210,230 217,235 7,4 17,6 26,6 10,0 18,-2 26,-6 7,-4 161,-168 201,-235 38,-68 30,-275 30,-284l0 0z"/>
  <path class="fil1" d="M308 275c0,-9 -5,-18 -12,-25 -9,-6 -18,-9 -30,-9 -12,0 -22,3 -30,9 -9,7 -11,34 -11,43 0,6 -2,11 -7,15 -5,5 -11,6 -18,6 -7,0 -13,-1 -18,-6 -5,-4 -7,-9 -7,-15 0,-10 1,-38 6,-47 5,-10 10,-18 19,-24 8,-8 18,-14 30,-17 11,-4 23,-6 36,-6 12,0 24,2 36,6 10,3 20,9 28,17 9,6 15,14 20,24 4,9 7,19 7,29 0,6 -3,11 -7,15 -5,5 -11,6 -17,6 -7,0 -13,-1 -18,-6 -5,-4 -7,-9 -7,-15l0 0z"/>
  <path class="fil1" d="M263 120c26,0 49,3 71,11 23,8 42,19 59,33 16,13 30,30 39,48 10,19 15,38 15,60 0,18 -4,35 -11,53 -1,1 -3,2 -3,3 -4,7 -9,15 -14,21 -5,6 -10,11 -14,18 -5,7 -10,11 -15,16 -1,1 -2,3 -3,3 -1,1 -3,2 -4,4 -6,5 -11,11 -13,15 -4,3 -5,11 -4,20 0,19 2,34 0,43 0,9 -1,16 -2,22 -4,19 -14,33 -30,43 -122,77 4,-171 19,-192 4,-4 7,-8 11,-13 2,-5 6,-8 8,-13 4,-4 6,-7 9,-11 2,-5 3,-9 5,-15 1,-6 1,-11 1,-17 0,-15 -3,-28 -10,-41 -6,-12 -15,-23 -26,-32 -12,-10 -24,-17 -40,-22 -15,-6 -31,-8 -48,-8 -18,0 -33,2 -49,8 -14,5 -27,12 -39,22 -11,9 -19,20 -27,32 -6,13 -2,-7 -2,6 0,7 -4,13 -8,18 -6,5 -14,7 -22,7 -8,0 -16,-2 -22,-7 -6,-5 -8,-11 -8,-18 0,-20 -2,-6 7,-25 10,-18 23,-35 40,-48 17,-14 36,-25 58,-33 22,-8 46,-11 72,-11l0 0z"/>
 </g>
</svg>
