<?xml version="1.0" encoding="UTF-8"?>
<!DOCTYPE svg PUBLIC "-//W3C//DTD SVG 1.1//EN" "http://www.w3.org/Graphics/SVG/1.1/DTD/svg11.dtd">
<!-- Creator: CorelDRAW X8 -->
<svg xmlns="http://www.w3.org/2000/svg" xml:space="preserve" width="6.64253in" height="2.50013in" version="1.1" style="shape-rendering:geometricPrecision; text-rendering:geometricPrecision; image-rendering:optimizeQuality; fill-rule:evenodd; clip-rule:evenodd"
viewBox="0 0 6656 2505"
 xmlns:xlink="http://www.w3.org/1999/xlink">
 <defs>
  <style type="text/css">
   <![CDATA[
    .fil3 {fill:#FEFEFE;fill-rule:nonzero}
    .fil2 {fill:#3BABAC;fill-rule:nonzero}
    .fil1 {fill:#5673B3;fill-rule:nonzero}
    .fil0 {fill:#3F4D6F;fill-rule:nonzero}
   ]]>
  </style>
 </defs>
 <g id="Layer_x0020_1">
  <metadata id="CorelCorpID_0Corel-Layer"/>
  <path class="fil0" d="M2074 527c0,0 -377,-8 -350,-245 27,-237 -99,-363 -297,-225 -198,138 -348,123 -348,123 0,0 3,198 309,285 306,87 377,278 676,284l10 -222z"/>
  <path class="fil1" d="M2018 555l0 167c0,0 -96,-11 -183,-57 0,0 69,22 106,25 0,0 -111,-34 -144,-55 0,0 98,21 117,23 0,0 -107,-40 -140,-56 0,0 105,19 128,23 0,0 -124,-49 -165,-73 0,0 115,33 139,38 0,0 -118,-37 -182,-97 0,0 69,28 161,62 0,0 -127,-57 -168,-116 0,0 96,59 191,87 95,29 140,29 140,29z"/>
  <path class="fil1" d="M1117 212c0,0 2,-1 4,-1 2,0 6,0 11,-1 9,-1 23,-4 40,-7 17,-4 38,-9 61,-17 23,-8 49,-18 76,-30 27,-13 56,-29 85,-47 7,-4 15,-9 22,-14 7,-5 15,-10 22,-15 4,-3 8,-5 11,-8 4,-2 8,-5 12,-7 8,-5 17,-10 25,-15 9,-4 18,-8 27,-12 9,-4 18,-7 28,-9 20,-5 41,-7 62,-2 11,3 21,7 30,13 2,1 4,3 7,4 2,2 4,4 6,5 2,2 4,4 6,6 1,1 2,2 3,3l1 1c0,0 1,1 1,1l0 0 0 1 5 6c1,1 2,2 3,3l2 3c3,5 6,9 8,14 2,2 3,5 4,7 1,2 2,5 3,7 2,5 4,10 6,15 6,20 10,40 13,60 2,21 2,41 2,61 -1,3 -1,5 -1,8l0 7c-1,5 -1,10 -1,15 -1,5 -1,10 -2,15 0,2 0,5 -1,7 0,3 0,5 0,7 -1,10 -1,19 0,28 0,3 0,5 1,7l0 4 0 3c1,2 1,5 1,7 1,2 1,4 2,7 3,17 10,34 18,50 8,15 18,29 30,42 11,12 24,23 37,32 13,9 26,17 39,24 14,7 27,13 40,18 12,5 25,9 36,13 24,7 44,12 62,15 17,4 31,6 40,7 9,1 14,2 14,2 0,0 -5,0 -14,-1 -10,-1 -23,-2 -41,-5 -17,-2 -39,-6 -62,-12 -24,-7 -51,-15 -79,-28 -27,-14 -56,-31 -81,-57 -12,-13 -23,-27 -33,-44 -2,-4 -4,-8 -6,-12 -1,-3 -2,-5 -3,-7 -1,-2 -2,-4 -3,-7 -1,-2 -1,-4 -2,-6 -1,-3 -2,-5 -2,-7 -1,-3 -2,-5 -2,-7 -1,-2 -1,-3 -1,-4l-1 -3c-1,-3 -1,-5 -2,-8 0,-2 0,-4 -1,-7l0 -4 -1 -3c0,-3 0,-5 0,-8 -1,-10 -2,-19 -1,-30 0,-2 0,-5 0,-7 1,-3 1,-5 1,-7 0,-5 1,-10 1,-15 1,-5 1,-10 1,-15l1 -7c0,-2 0,-5 0,-7 1,-20 0,-39 -2,-59 -2,-19 -6,-39 -12,-57 -2,-5 -4,-9 -5,-14 -1,-2 -2,-4 -3,-6 -2,-2 -2,-4 -4,-7 -2,-4 -4,-8 -7,-12l-2 -2c0,-1 -1,-2 -2,-3l-5 -6 0 -1 -1 0c0,0 1,0 0,0l-1 -2c-1,0 -1,-1 -2,-2 -2,-2 -4,-3 -5,-5 -2,-1 -4,-3 -6,-4 -2,-2 -3,-3 -5,-4 -4,-3 -8,-5 -12,-6 -5,-2 -9,-4 -13,-5 -5,-1 -9,-1 -14,-2 -2,0 -4,0 -7,0l-2 0 -1 0 0 0 -4 0c-9,0 -18,1 -27,3 -9,2 -18,5 -27,9 -9,3 -17,7 -25,11 -9,4 -17,8 -24,13 -4,3 -8,5 -12,7 -4,3 -8,5 -11,8 -8,5 -16,10 -23,15 -8,4 -15,9 -23,14 -30,17 -59,32 -87,44 -4,1 -7,3 -11,4 -3,2 -6,3 -10,4 -7,3 -13,6 -20,8 -6,2 -13,4 -19,6 -6,2 -12,4 -18,6 -24,7 -45,11 -62,14 -5,1 -9,1 -13,2 -4,0 -7,1 -11,1 -7,1 -13,1 -17,2 -5,0 -9,0 -11,0 -2,1 -4,1 -4,1z"/>
  <path class="fil0" d="M1058 234c0,0 -581,198 -1058,156 0,0 71,246 418,216 346,-30 709,-252 709,-252 0,0 -48,-51 -69,-120z"/>
  <path class="fil1" d="M361 576c-8,0 -15,0 -23,0l-11 0c-4,0 -8,0 -11,0l-12 -1c-2,0 -3,0 -5,-1l-6 0 -11 -2c-4,0 -8,-1 -11,-1 -4,-1 -8,-1 -11,-2l-12 -2 -5 -2 -6 -1 -11 -3c-3,-1 -7,-2 -10,-3l-6 -2 -2 -1 -3 -1c-7,-2 -14,-5 -21,-8 -4,-2 -7,-3 -11,-5l-10 -5c-3,-2 -7,-3 -10,-5 -3,-2 -7,-4 -10,-6l-9 -6c-2,-1 -4,-2 -5,-4l-5 -3c-3,-2 -6,-4 -9,-7l-9 -7c-1,-1 -3,-2 -4,-4l-4 -4 -9 -7c-2,-3 -5,-6 -8,-9 -2,-2 -5,-5 -7,-8 -10,-12 -19,-24 -27,-37l-7 -10 12 0c21,1 42,1 63,2 10,0 21,0 31,-1l31 0c6,0 11,0 16,-1l15 0 16 -1c5,0 10,0 16,-1l31 -1 31 -3c10,-1 21,-2 31,-3 10,-1 21,-1 31,-3l31 -3c11,-1 21,-2 31,-4l16 -1 15 -3c11,-1 21,-2 31,-4l31 -4 31 -5c10,-2 21,-4 31,-5 10,-2 20,-4 31,-6 10,-2 20,-3 30,-5l31 -6 31 -6 31 -7c20,-4 40,-8 61,-13 20,-4 40,-9 61,-14 20,-5 40,-10 61,-15 20,-5 40,-10 60,-16 20,-5 41,-10 61,-16 -20,7 -40,13 -60,20 -20,6 -40,12 -60,18 -20,6 -40,12 -60,17 -20,6 -41,11 -61,16 -20,5 -40,10 -61,15l-30 7 -31 7c-21,4 -41,8 -62,12 -10,2 -20,4 -31,6 -10,2 -20,4 -30,5 -11,2 -21,4 -31,6l-32 4c-10,2 -20,3 -31,5l-15 2 -16 2c-10,1 -21,3 -31,4l-31 3c-11,1 -21,2 -31,3 -11,1 -21,2 -32,3l-31 2 -32 2c-5,0 -10,0 -15,0l-16 1 -16 0c-5,0 -10,1 -16,1l-31 0c-10,0 -21,0 -31,-1 -21,0 -42,-1 -63,-2l6 -10c7,13 15,25 25,36 2,3 5,6 7,8 2,3 5,6 8,9l7 7 4 4c2,1 3,3 4,4l9 7c3,2 6,5 8,7l5 3c1,1 3,2 4,4l9 6c3,2 7,4 10,6 3,2 6,4 9,5l10 6c3,1 7,3 10,4 7,4 14,6 20,9l3 1 3 1 5 2c3,1 7,3 10,4l11 3 5 2 6 1 11 3c3,1 7,1 11,2 3,1 7,2 11,2l11 2 5 1c2,0 4,1 6,1l11 1c4,1 7,1 11,1l11 1c8,1 15,1 23,1z"/>
  <path class="fil0" d="M1135 361c0,0 -530,311 -1005,366 0,0 119,227 453,127 333,-99 661,-406 661,-406 0,0 -62,-34 -109,-87z"/>
  <path class="fil1" d="M423 848c-5,0 -11,0 -16,0l-8 0c-3,0 -6,0 -9,-1 -5,0 -11,0 -16,-1l-8 -1c-3,0 -6,-1 -8,-1 -6,-1 -11,-2 -16,-3l-4 -1 -4 0 -8 -2c-6,-2 -11,-3 -16,-5 -5,-2 -11,-3 -16,-5l-8 -3c-2,-1 -5,-2 -7,-3 -5,-3 -10,-5 -15,-7 -3,-2 -5,-3 -7,-4 -3,-2 -5,-3 -8,-4l-7 -5 -3 -2c-1,-1 -3,-1 -4,-2l-7 -5c-2,-1 -4,-3 -6,-5 -5,-3 -9,-6 -13,-10 -9,-7 -17,-14 -25,-22l-7 -8 11 -2 30 -5c6,-1 11,-2 16,-3l15 -3 16 -3c5,-2 10,-3 15,-4l31 -7 7 -2 8 -1 15 -4c10,-3 20,-5 31,-8l30 -8 30 -9 15 -4 15 -5c10,-3 20,-6 30,-9l30 -10c10,-3 20,-7 30,-10 20,-7 39,-14 59,-21 20,-7 40,-14 59,-22 10,-4 20,-7 29,-11 10,-4 20,-8 30,-12l29 -12 29 -12 29 -12c9,-4 19,-8 29,-12l29 -13 28 -13c19,-9 38,-17 57,-26 19,-9 38,-18 57,-27 10,-5 19,-10 29,-14l28 -14c19,-10 37,-19 56,-29 -18,11 -36,22 -54,32 -19,10 -37,20 -56,30 -18,10 -37,20 -56,30 -18,9 -37,19 -56,28l-29 14 -28 13c-19,9 -38,17 -58,26l-29 12 -29 13c-9,4 -19,8 -29,12l-15 6 -14 5c-20,8 -40,15 -59,23 -20,7 -40,14 -60,21 -20,7 -40,13 -60,20 -10,3 -20,6 -30,9l-16 4 -15 5c-10,3 -20,5 -30,8l-31 8c-10,3 -20,5 -31,8l-15 3 -8 2 -7 2 -31 6c-5,1 -11,2 -16,3l-15 3 -16 3c-5,1 -10,2 -16,2l-31 5 3 -9c8,8 15,16 23,23 4,3 8,7 13,10 2,1 4,3 6,5l6 4c1,1 3,2 4,3l3 2 7 4c2,2 4,3 7,4 2,2 4,3 7,4 4,3 9,6 14,8 2,1 5,2 7,3l8 4c4,2 10,3 15,5 5,2 10,4 15,6l8 2 4 1 4 1c5,1 10,2 15,3 3,1 6,1 8,2l8 1c6,1 11,2 17,2 2,1 5,1 8,1l8 1c5,0 11,0 16,1z"/>
  <path class="fil0" d="M1262 454c0,0 -421,423 -868,593 0,0 171,190 470,12 299,-178 555,-546 555,-546 0,0 -90,-19 -157,-59z"/>
  <path class="fil1" d="M618 1103l-11 0c-3,0 -7,0 -10,0l-6 0 -5 -1c-4,0 -7,0 -11,0 -3,-1 -7,-1 -10,-2l-11 -2 -11 -2c-3,0 -7,-1 -10,-2 -4,-1 -7,-2 -11,-3 -3,-1 -6,-2 -10,-3 -3,-2 -7,-3 -10,-4 -3,-1 -7,-3 -10,-4 -3,-2 -7,-3 -10,-5 -3,-1 -7,-3 -10,-4l-5 -3 -4 -3c-3,-1 -7,-3 -10,-5l-7 -4 8 -4 28 -13c5,-2 10,-4 14,-6l14 -7c9,-5 19,-9 28,-14l27 -14c10,-5 18,-10 28,-15 9,-5 18,-9 27,-14l27 -16c9,-5 17,-10 26,-15l14 -8 13 -8 26 -16c18,-11 35,-22 52,-34 18,-11 35,-23 52,-34 17,-12 34,-23 51,-35 17,-12 33,-24 50,-36l25 -19 25 -18c16,-13 32,-25 49,-38 16,-13 32,-26 48,-38 16,-14 32,-26 48,-40 16,-13 32,-26 48,-39 16,-14 31,-27 47,-41 16,-13 31,-27 46,-41 -14,15 -29,30 -43,44 -15,15 -30,29 -46,43 -15,14 -30,28 -46,41 -15,14 -31,28 -46,41 -16,14 -32,27 -48,40 -16,13 -33,26 -49,39l-24 19 -25 19c-8,6 -17,12 -25,18 -8,6 -17,12 -25,18 -17,13 -34,24 -51,36 -17,12 -35,23 -52,35 -17,11 -35,22 -53,33 -18,10 -35,21 -53,31 -9,6 -18,11 -27,16l-28 15c-9,5 -18,9 -27,14 -9,5 -19,10 -28,14l-28 14c-9,4 -19,8 -28,13l-14 6c-5,2 -10,4 -15,6l-29 12 1 -8c3,2 6,4 9,6l5 3 4 3c3,1 6,3 9,5 3,1 7,3 10,4 3,2 6,3 9,5 4,1 7,3 10,4 4,1 7,2 10,4 4,1 7,2 10,3 4,1 7,2 10,3l11 3 10 2c4,1 7,1 11,2 3,0 7,1 10,1l5 1 6 1c3,0 7,0 10,0l11 1z"/>
  <path class="fil0" d="M1429 515c0,0 -205,402 -503,573 0,0 188,166 369,-6 180,-173 269,-507 269,-507 0,0 -36,-32 -135,-60z"/>
  <path class="fil1" d="M1115 1128l-9 0c-2,0 -5,0 -8,0 -3,0 -6,0 -9,-1 -3,0 -6,0 -8,-1l-5 0 -4 -1c-3,0 -6,-1 -9,-1 -2,-1 -5,-1 -8,-2 -3,-1 -6,-1 -8,-2 -3,-1 -6,-2 -9,-3 -3,0 -5,-1 -8,-2 -3,-1 -6,-2 -8,-3 -3,-1 -6,-2 -8,-3 -3,-2 -6,-3 -8,-4 -3,-1 -6,-2 -8,-4 -3,-1 -6,-2 -8,-3 -3,-2 -5,-3 -8,-5l-6 -3 6 -5 18 -12c3,-3 6,-5 9,-7l9 -7c6,-4 11,-9 17,-13l9 -7 8 -7c12,-10 23,-19 34,-29l16 -15c6,-5 11,-10 16,-15l8 -8 8 -8c5,-5 11,-10 16,-16l15 -16c5,-5 10,-10 15,-16l8 -8 7 -8c5,-6 10,-11 15,-17 9,-11 19,-22 29,-33 9,-12 18,-23 28,-35 4,-6 9,-11 13,-17 5,-6 9,-12 14,-18 9,-12 18,-23 27,-35l13 -18 13 -18c8,-12 17,-25 25,-37 8,-12 17,-24 25,-37 16,-24 32,-49 48,-75 -7,14 -14,27 -21,40 -7,13 -14,26 -21,39 -4,6 -8,13 -12,19 -4,7 -7,13 -11,19 -4,7 -8,13 -12,19 -4,7 -8,13 -12,19l-12 19 -13 18c-4,6 -8,12 -13,18l-13 19c-4,6 -9,12 -13,18 -5,6 -9,12 -14,17 -9,12 -18,24 -27,35 -10,12 -20,23 -29,35 -5,5 -10,11 -15,17l-8 8 -7 8c-5,5 -10,11 -16,16l-15 16c-5,6 -11,11 -16,16l-8 8 -8 8c-6,5 -11,10 -17,15l-17 14c-11,10 -23,20 -35,29l-8 7 -9 6c-6,5 -12,9 -19,13 -6,5 -12,9 -18,13l-19 12 0 -8c2,2 5,3 7,5 3,1 5,3 8,4 2,1 5,3 7,4 3,1 5,2 8,4 2,1 5,2 7,3 3,1 6,2 8,4 3,1 5,2 8,3 3,1 5,2 8,3 3,1 6,1 8,2 3,1 6,2 8,3 3,0 6,1 9,2l4 1 4 1c3,0 6,1 8,1 3,0 6,1 9,1 3,1 6,1 8,1l9 1z"/>
  <path class="fil0" d="M1574 580c0,0 -72,382 -285,549 0,0 191,141 302,-21 110,-162 115,-434 115,-434 0,0 -47,-51 -132,-94z"/>
  <path class="fil1" d="M1450 1154l-7 0c-2,0 -4,0 -7,0 -2,0 -4,0 -7,0 -2,0 -4,0 -7,-1 -2,0 -4,0 -7,0 -2,-1 -4,-1 -7,-2 -2,0 -4,0 -7,-1 -2,0 -4,-1 -7,-2 -2,0 -4,-1 -6,-1 -3,-1 -5,-2 -7,-2 -2,-1 -5,-2 -7,-3 -2,0 -4,-1 -7,-2 -2,-1 -4,-2 -6,-2 -3,-1 -5,-2 -7,-3 -4,-2 -9,-4 -13,-6l-6 -3 5 -5 12 -12c4,-5 8,-9 12,-13 4,-4 7,-9 11,-13l6 -7 5 -7 6 -7 2 -3 3 -4 10 -14 10 -14 3 -3 2 -4 5 -7 5 -8c1,-2 3,-5 5,-7 3,-5 6,-10 9,-15l9 -15c3,-5 5,-10 8,-15 6,-10 11,-21 17,-31l8 -15 4 -8 3 -8 8 -16 7 -16 4 -8 3 -8 7 -16 7 -16c2,-6 5,-11 7,-16 4,-11 8,-22 12,-33 5,-11 9,-22 13,-33 4,-11 7,-22 11,-33 4,-11 8,-22 11,-33l11 -34c-4,23 -9,46 -15,69 -3,11 -6,23 -10,34 -3,11 -6,23 -10,34 -4,11 -7,22 -11,33 -4,11 -8,22 -13,33l-6 17 -4 8 -3 8 -7 16 -7 17 -4 8 -4 8 -8 15c-6,11 -11,21 -17,32 -6,10 -12,20 -18,30 -3,5 -6,10 -9,15 -2,3 -4,5 -5,8l-5 7 -5 7 -3 4 -3 4 -10 14c-8,9 -15,19 -23,27l-6 7 -6 7c-4,4 -7,8 -12,13 -4,4 -8,8 -12,12l-13 12 -1 -7c4,2 8,4 12,6 4,2 8,4 12,6 2,1 4,2 7,3 2,1 4,1 6,2 2,1 4,2 6,3 3,1 5,1 7,2 2,1 4,1 7,2 2,1 4,2 6,2 3,1 5,1 7,2 2,0 5,1 7,1 2,1 4,1 7,2 2,0 4,1 7,1 2,0 4,0 6,1l7 0z"/>
  <path class="fil0" d="M1719 686c0,0 13,292 -121,449 0,0 206,61 249,-69 49,-149 9,-316 9,-316 0,0 -61,-23 -137,-64z"/>
  <path class="fil1" d="M1774 1104l-3 2 -4 1c-2,2 -4,3 -7,4 -2,1 -5,1 -7,2 -3,1 -5,2 -8,2 -2,1 -5,2 -7,2 -3,1 -5,1 -8,2 -5,1 -10,1 -15,2 -6,0 -11,1 -16,1 -3,0 -5,0 -8,0 -2,0 -5,0 -8,0 -5,0 -10,0 -15,-1 -5,0 -11,-1 -16,-1l-9 -1 5 -8 12 -22 1 -2 2 -3 2 -5 6 -11 2 -6 3 -5 5 -11c1,-4 3,-7 4,-11l5 -12 4 -11 4 -11c3,-8 5,-16 7,-23 3,-8 5,-16 7,-24l4 -11c1,-4 2,-8 3,-12 1,-8 3,-16 5,-24 2,-8 4,-16 5,-24l5 -23 4 -25c1,-8 3,-16 4,-24 1,-8 2,-16 3,-24 1,-8 2,-16 3,-24l3 -25c0,9 1,17 1,25l0 12 -1 13c0,8 0,16 -1,24 0,8 -1,17 -1,25 -1,8 -2,16 -3,24l-3 25c-2,8 -3,16 -5,24 -1,8 -3,16 -5,24 0,4 -1,8 -2,12l-4 12 -1 6c-1,2 -1,4 -2,6l-3 12c-2,4 -3,8 -4,12l-4 12 -4 12 -5 11c-3,8 -6,16 -10,23l-5 11 -3 6 -2 5 -6 11 -3 6 -2 2 -2 3 -13 21 -4 -9c5,1 10,1 15,2 5,1 10,1 15,2 2,0 5,0 7,0 3,1 5,1 8,1 5,0 10,0 15,0 5,0 10,0 15,0 3,0 5,-1 8,-1 2,0 5,0 7,-1 3,0 6,0 8,-1 3,0 5,-1 7,-2 3,0 5,-1 8,-2 2,0 5,-1 7,-2z"/>
  <path class="fil0" d="M1872 757c0,0 52,163 0,305 2,5 173,19 172,-156 0,-84 5,-109 6,-120 0,0 -118,-4 -178,-29z"/>
  <path class="fil1" d="M1981 1000c-1,1 -2,2 -3,4 -1,1 -2,2 -4,3 -1,1 -2,2 -3,3 -1,2 -2,3 -4,4 -1,1 -2,2 -3,3 -2,0 -3,1 -4,2 -2,1 -3,2 -4,3 -2,1 -3,2 -4,2 -2,1 -3,2 -5,2 -1,1 -3,2 -4,2 -3,2 -6,3 -9,4 -6,2 -12,4 -19,5l-8 2 1 -9 3 -14c1,-5 1,-10 2,-14 1,-5 1,-10 2,-14 0,-3 0,-5 0,-7l1 -8 1 -7c0,-2 0,-4 0,-7 1,-4 1,-9 1,-14 0,-4 1,-9 1,-14 0,-5 0,-9 0,-14 0,-5 0,-10 0,-14 0,-5 0,-10 0,-15 0,-4 0,-9 0,-14l0 -14c-1,-5 -1,-10 -1,-14l-1 -15 -1 -14c0,-5 0,-10 0,-15 1,5 3,10 4,14l2 7 1 7c1,5 3,10 3,15 1,4 2,9 3,14 1,5 1,9 2,14 1,5 1,10 2,15 0,5 0,9 1,14 0,5 0,10 0,15 1,5 0,10 1,14 0,5 -1,10 -1,15 0,5 0,10 -1,15 0,2 0,4 0,7l-1 7 -1 7c0,3 -1,5 -1,8 -1,4 -2,9 -3,14 -1,5 -2,10 -3,14l-4 14 -7 -7c3,0 6,-1 9,-1 2,0 3,-1 5,-1 1,0 3,-1 4,-1 3,0 6,-1 9,-2 1,0 3,-1 4,-1 2,-1 3,-1 4,-2 2,0 3,-1 5,-1 1,-1 2,-1 4,-2 1,-1 3,-1 4,-2 1,-1 3,-1 4,-2 1,-1 3,-1 4,-2 1,-1 3,-2 4,-3 1,-1 3,-1 4,-2 1,-1 2,-2 4,-3z"/>
  <path class="fil1" d="M945 302c0,0 -62,17 -117,31 0,0 102,-13 134,-23l-84 34c0,0 91,-16 115,-20l-70 27c0,0 70,-9 87,-13l-54 21 85 -16 -51 18 73 -11 -35 17 54 -9 -59 43c0,0 82,-40 90,-45 0,0 -40,-48 -64,-87l-104 33z"/>
  <path class="fil1" d="M1136 394c0,0 -175,97 -225,120 0,0 67,-17 97,-32l-38 26c0,0 55,-14 86,-31l-41 24c0,0 51,-17 75,-28l-39 28c0,0 61,-22 83,-35l-34 27c0,0 47,-17 67,-29l-27 23c0,0 38,-13 56,-25l-24 34c0,0 52,-40 56,-45 0,0 -69,-36 -92,-57z"/>
  <path class="fil1" d="M1272 483c0,0 -111,110 -175,162 0,0 71,-45 96,-65l-45 52c0,0 66,-41 85,-59l-46 51c0,0 55,-34 76,-53l-35 40c0,0 51,-27 68,-43l-33 35c0,0 35,-19 53,-39l-19 27c0,0 29,-16 53,-40l-14 29c0,0 47,-39 60,-54 0,0 -92,-21 -124,-43z"/>
  <path class="fil1" d="M1445 545c0,0 -57,99 -108,175 0,0 41,-37 61,-65l-27 65c0,0 46,-52 58,-70l-24 52c0,0 34,-39 50,-60l-16 50c0,0 22,-26 41,-55l-10 42c0,0 28,-34 39,-61l1 55c0,0 16,-48 33,-82 0,0 -54,-39 -98,-46z"/>
  <path class="fil1" d="M1596 624c0,0 -43,156 -70,217 0,0 38,-57 53,-100 0,0 -12,61 -15,77 0,0 22,-40 34,-86 0,0 -4,50 -7,62 0,0 21,-45 29,-72 0,0 0,50 -3,61 0,0 19,-44 23,-67 0,0 0,34 0,48 0,0 17,-32 20,-59 0,0 2,32 0,44 0,0 13,-35 15,-59 0,0 7,33 5,45 0,0 12,-23 14,-47 0,0 -48,-43 -98,-64z"/>
  <path class="fil1" d="M1750 729c0,0 1,85 -12,159 0,0 20,-35 23,-75 0,0 2,32 -2,53 0,0 16,-34 19,-61 0,0 2,22 0,41 0,0 10,-26 13,-52 0,0 -1,21 -2,35 0,0 13,-24 14,-43 0,0 2,23 1,34 0,0 9,-18 10,-40 0,0 6,18 5,33 0,0 7,-23 8,-39l8 20c0,0 4,-16 5,-29 0,0 -70,-25 -90,-36z"/>
  <path class="fil1" d="M1908 789c0,0 11,15 19,122 0,0 7,-21 11,-60 0,0 5,26 6,41 0,0 10,-29 10,-47 0,0 4,16 7,28 0,0 8,-29 9,-44 0,0 4,20 4,32 0,0 9,-20 9,-38 0,0 2,17 4,27 0,0 9,-22 11,-35l7 26c0,0 8,-29 26,-34 0,0 -62,1 -123,-18z"/>
  <path class="fil1" d="M1550 61c0,0 -244,194 -431,169 0,0 76,19 154,10 0,0 -53,12 -90,13 0,0 84,20 172,-9 0,0 -43,22 -66,25 0,0 64,-1 111,-24 0,0 -19,16 -28,20 0,0 73,-10 124,-73 0,0 -15,12 -26,17 0,0 39,-39 57,-68 0,0 -48,39 -65,48 0,0 63,-54 81,-86 0,0 -39,30 -78,50 0,0 49,-33 85,-92z"/>
  <path class="fil0" d="M4582 527c0,0 377,-8 350,-245 -27,-237 99,-363 297,-225 198,138 347,123 347,123 0,0 -3,198 -308,285 -306,87 -377,278 -677,284l-9 -222z"/>
  <path class="fil1" d="M4637 555l0 167c0,0 97,-11 183,-57 0,0 -69,22 -105,25 0,0 111,-34 144,-55 0,0 -99,21 -118,23 0,0 108,-40 140,-56 0,0 -105,19 -127,23 0,0 123,-49 165,-73 0,0 -115,33 -140,38 0,0 118,-37 182,-97 0,0 -68,28 -161,62 0,0 127,-57 168,-116 0,0 -95,59 -190,87 -95,29 -141,29 -141,29z"/>
  <path class="fil1" d="M5538 212c0,0 -1,-1 -3,-1 -3,0 -7,0 -11,-1 -10,-1 -23,-4 -40,-7 -18,-4 -38,-9 -61,-17 -24,-8 -49,-18 -77,-30 -27,-13 -55,-29 -85,-47 -7,-4 -14,-9 -22,-14 -7,-5 -14,-10 -22,-15 -3,-3 -7,-5 -11,-8 -4,-2 -8,-5 -12,-7 -8,-5 -16,-10 -25,-15 -8,-4 -17,-8 -26,-12 -9,-4 -19,-7 -29,-9 -19,-5 -41,-7 -62,-2 -10,3 -20,7 -29,13 -3,1 -5,3 -7,4 -2,2 -4,4 -6,5 -2,2 -4,4 -6,6 -1,1 -2,2 -3,3l-2 1c1,0 0,1 0,1l0 0 -1 1 -5 6c-1,1 -1,2 -2,3l-2 3c-4,5 -6,9 -9,14 -1,2 -2,5 -3,7 -1,2 -3,5 -4,7 -2,5 -4,10 -5,15 -7,20 -11,40 -13,60 -2,21 -3,41 -2,61 0,3 0,5 0,8l1 7c0,5 0,10 1,15 1,5 1,10 2,15 0,2 0,5 0,7 1,3 1,5 1,7 0,10 0,19 0,28 -1,3 -1,5 -1,7l0 4 -1 3c0,2 -1,5 -1,7 0,2 -1,4 -1,7 -4,17 -10,34 -18,50 -9,15 -19,29 -30,42 -12,12 -24,23 -37,32 -13,9 -27,17 -40,24 -13,7 -26,13 -39,18 -13,5 -25,9 -37,13 -23,7 -44,12 -61,15 -17,4 -31,6 -40,7 -10,1 -15,2 -15,2 0,0 5,0 15,-1 9,-1 23,-2 40,-5 18,-2 39,-6 63,-12 24,-7 51,-15 78,-28 28,-14 56,-31 81,-57 13,-13 24,-27 33,-44 2,-4 5,-8 7,-12 1,-3 2,-5 3,-7 0,-2 1,-4 2,-7 1,-2 2,-4 3,-6 0,-3 1,-5 2,-7 1,-3 1,-5 2,-7 0,-2 0,-3 1,-4l1 -3c0,-3 1,-5 1,-8 0,-2 1,-4 1,-7l1 -4 0 -3c0,-3 1,-5 1,-8 1,-10 1,-19 1,-30 -1,-2 -1,-5 -1,-7 0,-3 0,-5 0,-7 -1,-5 -1,-10 -2,-15 0,-5 -1,-10 -1,-15l0 -7c0,-2 0,-5 -1,-7 0,-20 0,-39 3,-59 2,-19 6,-39 12,-57 1,-5 3,-9 5,-14 1,-2 2,-4 3,-6 1,-2 2,-4 3,-7 3,-4 5,-8 7,-12l2 -2c1,-1 2,-2 2,-3l5 -6 1 -1 0 0c0,0 0,0 0,0l1 -2c1,0 2,-1 3,-2 1,-2 3,-3 5,-5 2,-1 3,-3 5,-4 2,-2 4,-3 6,-4 4,-3 8,-5 12,-6 4,-2 9,-4 13,-5 4,-1 9,-1 13,-2 3,0 5,0 7,0l2 0 1 0 1 0 3 0c9,0 19,1 28,3 9,2 18,5 27,9 8,3 17,7 25,11 8,4 16,8 24,13 4,3 8,5 11,7 4,3 8,5 12,8 8,5 15,10 23,15 7,4 15,9 22,14 30,17 60,32 88,44 3,1 7,3 10,4 4,2 7,3 10,4 7,3 14,6 20,8 7,2 13,4 19,6 7,2 13,4 19,6 23,7 45,11 62,14 4,1 9,1 12,2 4,0 8,1 11,1 7,1 13,1 18,2 4,0 8,0 10,0 3,1 4,1 4,1z"/>
  <path class="fil0" d="M5597 234c0,0 582,198 1059,156 0,0 -71,246 -418,216 -347,-30 -710,-252 -710,-252 0,0 48,-51 69,-120z"/>
  <path class="fil1" d="M6295 576c7,0 15,0 22,0l12 0c3,0 7,0 11,0l11 -1c2,0 4,0 6,-1l5 0 12 -2c3,0 7,-1 11,-1 4,-1 7,-1 11,-2l11 -2 6 -2 5 -1 11 -3c4,-1 7,-2 11,-3l5 -2 3 -1 3 -1c7,-2 14,-5 21,-8 3,-2 7,-3 10,-5l10 -5c4,-2 7,-3 10,-5 4,-2 7,-4 10,-6l10 -6c1,-1 3,-2 5,-4l4 -3c3,-2 6,-4 9,-7l9 -7c2,-1 3,-2 5,-4l4 -4 8 -7c3,-3 6,-6 8,-9 3,-2 5,-5 8,-8 10,-12 19,-24 27,-37l6 -10 -12 0c-21,1 -41,1 -62,2 -11,0 -21,0 -31,-1l-32 0c-5,0 -10,0 -15,-1l-16 0 -16 -1c-5,0 -10,0 -15,-1l-31 -1 -31 -3c-11,-1 -21,-2 -32,-3 -10,-1 -20,-1 -31,-3l-31 -3c-10,-1 -20,-2 -31,-4l-15 -1 -16 -3c-10,-1 -20,-2 -31,-4l-31 -4 -31 -5c-10,-2 -20,-4 -30,-5 -11,-2 -21,-4 -31,-6 -10,-2 -21,-3 -31,-5l-31 -6 -30 -6 -31 -7c-20,-4 -41,-8 -61,-13 -21,-4 -41,-9 -61,-14 -21,-5 -41,-10 -61,-15 -20,-5 -41,-10 -61,-16 -20,-5 -40,-10 -60,-16 20,7 39,13 59,20 20,6 40,12 60,18 20,6 41,12 61,17 20,6 40,11 60,16 21,5 41,10 61,15l31 7 31 7c20,4 41,8 61,12 10,2 21,4 31,6 10,2 21,4 31,5 10,2 21,4 31,6l31 4c10,2 21,3 31,5l16 2 15 2c11,1 21,3 31,4l32 3c10,1 21,2 31,3 10,1 21,2 31,3l32 2 31 2c5,0 11,0 16,0l16 1 15 0c6,0 11,1 16,1l31 0c11,0 21,0 32,-1 21,0 42,-1 63,-2l-6 -10c-7,13 -16,25 -25,36 -3,3 -5,6 -7,8 -3,3 -5,6 -8,9l-8 7 -4 4c-1,1 -3,3 -4,4l-8 7c-3,2 -6,5 -9,7l-4 3c-2,1 -3,2 -5,4l-9 6c-3,2 -6,4 -9,6 -3,2 -7,4 -10,5l-10 6c-3,1 -6,3 -10,4 -6,4 -13,6 -20,9l-2 1 -3 1 -5 2c-4,1 -7,3 -11,4l-11 3 -5 2 -5 1 -11 3c-4,1 -7,1 -11,2 -4,1 -7,2 -11,2l-11 2 -6 1c-1,0 -3,1 -5,1l-11 1c-4,1 -8,1 -11,1l-12 1c-7,1 -15,1 -22,1z"/>
  <path class="fil0" d="M5521 361c0,0 529,311 1004,366 0,0 -119,227 -452,127 -334,-99 -662,-406 -662,-406 0,0 63,-34 110,-87z"/>
  <path class="fil1" d="M6232 848c6,0 11,0 17,0l8 0c3,0 5,0 8,-1 6,0 11,0 16,-1l9 -1c2,0 5,-1 8,-1 5,-1 11,-2 16,-3l4 -1 4 0 8 -2c5,-2 11,-3 16,-5 5,-2 10,-3 15,-5l8 -3c3,-1 5,-2 8,-3 5,-3 10,-5 15,-7 2,-2 5,-3 7,-4 2,-2 5,-3 7,-4l7 -5 4 -2c1,-1 2,-1 3,-2l7 -5c2,-1 5,-3 7,-5 4,-3 9,-6 13,-10 8,-7 17,-14 24,-22l7 -8 -10 -2 -31 -5c-5,-1 -10,-2 -15,-3l-16 -3 -15 -3c-5,-2 -10,-3 -15,-4l-31 -7 -8 -2 -7 -1 -16 -4c-10,-3 -20,-5 -30,-8l-30 -8 -30 -9 -16 -4 -15 -5c-10,-3 -20,-6 -30,-9l-29 -10c-10,-3 -20,-7 -30,-10 -20,-7 -40,-14 -60,-21 -19,-7 -39,-14 -59,-22 -9,-4 -19,-7 -29,-11 -10,-4 -19,-8 -29,-12l-29 -12 -29 -12 -29 -12c-10,-4 -20,-8 -29,-12l-29 -13 -29 -13c-19,-9 -38,-17 -57,-26 -19,-9 -38,-18 -57,-27 -9,-5 -19,-10 -28,-14l-28 -14c-19,-10 -38,-19 -57,-29 18,11 37,22 55,32 18,10 37,20 55,30 19,10 37,20 56,30 19,9 38,19 57,28l28 14 29 13c19,9 38,17 57,26l29 12 29 13c10,4 20,8 30,12l14 6 15 5c20,8 39,15 59,23 20,7 40,14 60,21 19,7 40,13 60,20 10,3 20,6 30,9l15 4 15 5c10,3 21,5 31,8l30 8c10,3 21,5 31,8l15 3 8 2 8 2 31 6c5,1 10,2 15,3l16 3 15 3c6,1 11,2 16,2l31 5 -3 -9c-7,8 -15,16 -23,23 -4,3 -8,7 -12,10 -2,1 -4,3 -6,5l-7 4c-1,1 -2,2 -3,3l-3 2 -7 4c-2,2 -5,3 -7,4 -2,2 -5,3 -7,4 -5,3 -9,6 -14,8 -3,1 -5,2 -8,3l-7 4c-5,2 -10,3 -15,5 -5,2 -10,4 -15,6l-8 2 -4 1 -4 1c-5,1 -11,2 -16,3 -3,1 -5,1 -8,2l-8 1c-5,1 -11,2 -16,2 -3,1 -5,1 -8,1l-8 1c-6,0 -11,0 -17,1z"/>
  <path class="fil0" d="M5393 454c0,0 422,423 869,593 0,0 -171,190 -470,12 -299,-178 -555,-546 -555,-546 0,0 90,-19 156,-59z"/>
  <path class="fil1" d="M6037 1103l11 0c4,0 7,0 11,0l5 0 6 -1c3,0 7,0 10,0 4,-1 7,-1 11,-2l11 -2 10 -2c4,0 7,-1 11,-2 3,-1 7,-2 10,-3 4,-1 7,-2 10,-3 4,-2 7,-3 11,-4 3,-1 6,-3 10,-4 3,-2 6,-3 10,-5 3,-1 6,-3 9,-4l5 -3 5 -3c3,-1 6,-3 9,-5l7 -4 -8 -4 -28 -13c-4,-2 -9,-4 -14,-6l-14 -7c-9,-5 -18,-9 -27,-14l-28 -14c-9,-5 -18,-10 -27,-15 -9,-5 -18,-9 -27,-14l-27 -16c-9,-5 -18,-10 -27,-15l-13 -8 -13 -8 -27 -16c-17,-11 -35,-22 -52,-34 -17,-11 -34,-23 -51,-34 -17,-12 -34,-23 -51,-35 -17,-12 -34,-24 -50,-36l-25 -19 -25 -18c-17,-13 -33,-25 -49,-38 -16,-13 -33,-26 -49,-38 -16,-14 -32,-26 -48,-40 -16,-13 -32,-26 -47,-39 -16,-14 -32,-27 -47,-41 -16,-13 -32,-27 -47,-41 14,15 29,30 44,44 15,15 30,29 45,43 15,14 31,28 46,41 16,14 31,28 47,41 16,14 32,27 48,40 16,13 32,26 48,39l25 19 25 19c8,6 16,12 25,18 8,6 16,12 25,18 17,13 34,24 51,36 17,12 34,23 52,35 17,11 35,22 52,33 18,10 36,21 54,31 9,6 18,11 27,16l27 15c9,5 19,9 28,14 9,5 18,10 28,14l28 14c9,4 18,8 28,13l14 6c5,2 10,4 14,6l29 12 -1 -8c-3,2 -5,4 -8,6l-5 3 -5 3c-3,1 -6,3 -9,5 -3,1 -6,3 -9,4 -3,2 -7,3 -10,5 -3,1 -6,3 -10,4 -3,1 -6,2 -10,4 -3,1 -6,2 -10,3 -3,1 -6,2 -10,3l-10 3 -11 2c-3,1 -7,1 -10,2 -4,0 -7,1 -11,1l-5 1 -5 1c-4,0 -7,0 -11,0l-11 1z"/>
  <path class="fil0" d="M5227 515c0,0 204,402 502,573 0,0 -188,166 -368,-6 -180,-173 -269,-507 -269,-507 0,0 35,-32 135,-60z"/>
  <path class="fil1" d="M5540 1128l9 0c3,0 6,0 9,0 3,0 5,0 8,-1 3,0 6,0 9,-1l4 0 5 -1c2,0 5,-1 8,-1 3,-1 6,-1 9,-2 2,-1 5,-1 8,-2 3,-1 6,-2 8,-3 3,0 6,-1 9,-2 2,-1 5,-2 8,-3 3,-1 5,-2 8,-3 3,-2 5,-3 8,-4 3,-1 5,-2 8,-4 3,-1 5,-2 8,-3 2,-2 5,-3 7,-5l7 -3 -6 -5 -18 -12c-3,-3 -6,-5 -9,-7l-9 -7c-6,-4 -12,-9 -18,-13l-8 -7 -9 -7c-11,-10 -22,-19 -33,-29l-17 -15c-5,-5 -10,-10 -16,-15l-8 -8 -8 -8c-5,-5 -10,-10 -15,-16l-16 -16c-5,-5 -10,-10 -15,-16l-7 -8 -8 -8c-4,-6 -9,-11 -14,-17 -10,-11 -20,-22 -29,-33 -10,-12 -19,-23 -28,-35 -5,-6 -9,-11 -14,-17 -4,-6 -9,-12 -13,-18 -9,-12 -18,-23 -27,-35l-13 -18 -13 -18c-9,-12 -17,-25 -25,-37 -9,-12 -17,-24 -25,-37 -17,-24 -33,-49 -48,-75 6,14 13,27 20,40 7,13 14,26 22,39 4,6 7,13 11,19 4,7 8,13 12,19 4,7 8,13 12,19 4,7 8,13 12,19l12 19 13 18c4,6 8,12 12,18l13 19c5,6 9,12 14,18 4,6 9,12 13,17 9,12 18,24 28,35 9,12 19,23 29,35 5,5 10,11 15,17l7 8 8 8c5,5 10,11 15,16l16 16c5,6 10,11 16,16l8 8 8 8c5,5 11,10 17,15l16 14c12,10 23,20 35,29l9 7 9 6c6,5 12,9 18,13 6,5 12,9 19,13l18 12 1 -8c-3,2 -5,3 -8,5 -2,1 -5,3 -7,4 -3,1 -5,3 -8,4 -2,1 -5,2 -7,4 -3,1 -5,2 -8,3 -2,1 -5,2 -8,4 -2,1 -5,2 -8,3 -2,1 -5,2 -8,3 -2,1 -5,1 -8,2 -2,1 -5,2 -8,3 -3,0 -5,1 -8,2l-4 1 -5 1c-2,0 -5,1 -8,1 -3,0 -6,1 -8,1 -3,1 -6,1 -9,1l-9 1z"/>
  <path class="fil0" d="M5082 580c0,0 72,382 284,549 0,0 -191,141 -301,-21 -110,-162 -115,-434 -115,-434 0,0 47,-51 132,-94z"/>
  <path class="fil1" d="M5205 1154l7 0c2,0 5,0 7,0 2,0 5,0 7,0 3,0 5,0 7,-1 3,0 5,0 7,0 3,-1 5,-1 7,-2 3,0 5,0 7,-1 2,0 5,-1 7,-2 2,0 5,-1 7,-1 2,-1 4,-2 7,-2 2,-1 4,-2 6,-3 3,0 5,-1 7,-2 2,-1 5,-2 7,-2 2,-1 4,-2 6,-3 5,-2 9,-4 13,-6l6 -3 -5 -5 -12 -12c-4,-5 -7,-9 -11,-13 -4,-4 -8,-9 -12,-13l-5 -7 -6 -7 -5 -7 -3 -3 -2 -4 -11 -14 -10 -14 -2 -3 -3 -4 -5 -7 -4 -8c-2,-2 -3,-5 -5,-7 -3,-5 -6,-10 -9,-15l-9 -15c-3,-5 -6,-10 -9,-15 -6,-10 -11,-21 -16,-31l-8 -15 -4 -8 -4 -8 -7 -16 -8 -16 -3 -8 -4 -8 -7 -16 -7 -16c-2,-6 -4,-11 -6,-16 -5,-11 -9,-22 -13,-33 -4,-11 -8,-22 -12,-33 -4,-11 -8,-22 -12,-33 -3,-11 -7,-22 -11,-33l-10 -34c4,23 9,46 15,69 3,11 6,23 9,34 3,11 7,23 10,34 4,11 8,22 12,33 4,11 8,22 12,33l7 17 3 8 4 8 7 16 7 17 4 8 4 8 8 15c5,11 10,21 16,32 6,10 12,20 18,30 4,5 7,10 10,15 2,3 3,5 5,8l5 7 5 7 3 4 2 4 11 14c7,9 14,19 22,27l6 7 6 7c4,4 8,8 12,13 4,4 9,8 13,12l13 12 1 -7c-4,2 -8,4 -12,6 -4,2 -9,4 -13,6 -2,1 -4,2 -6,3 -2,1 -4,1 -6,2 -3,1 -5,2 -7,3 -2,1 -4,1 -6,2 -3,1 -5,1 -7,2 -2,1 -5,2 -7,2 -2,1 -4,1 -6,2 -3,0 -5,1 -7,1 -3,1 -5,1 -7,2 -2,0 -5,1 -7,1 -2,0 -5,0 -7,1l-7 0z"/>
  <path class="fil0" d="M4937 686c0,0 -13,292 121,449 0,0 -207,61 -250,-69 -49,-149 -9,-316 -9,-316 0,0 61,-23 138,-64z"/>
  <path class="fil1" d="M4881 1104l4 2 3 1c3,2 5,3 7,4 3,1 5,1 8,2 2,1 5,2 7,2 3,1 5,2 8,2 2,1 5,1 7,2 6,1 11,1 16,2 5,0 10,1 16,1 2,0 5,0 7,0 3,0 6,0 8,0 5,0 11,0 16,-1 5,0 10,-1 15,-1l9 -1 -4 -8 -12 -22 -2 -2 -1 -3 -3 -5 -5 -11 -3 -6 -2 -5 -5 -11c-2,-4 -3,-7 -5,-11l-4 -12 -5 -11 -3 -11c-3,-8 -6,-16 -8,-23 -2,-8 -5,-16 -7,-24l-3 -11c-1,-4 -2,-8 -3,-12 -2,-8 -4,-16 -6,-24 -1,-8 -3,-16 -5,-24l-4 -23 -4 -25c-2,-8 -3,-16 -4,-24 -1,-8 -3,-16 -4,-24 -1,-8 -2,-16 -3,-24l-2 -25c-1,9 -1,17 -1,25l0 12 0 13c0,8 1,16 1,24 1,8 1,17 2,25 1,8 2,16 3,24l3 25c1,8 3,16 4,24 2,8 3,16 5,24 1,4 2,8 3,12l3 12 2 6c0,2 1,4 1,6l4 12c1,4 2,8 3,12l5 12 4 12 4 11c3,8 6,16 10,23l5 11 3 6 3 5 6 11 3 6 1 2 2 3 13 21 5 -9c-5,1 -10,1 -15,2 -5,1 -10,1 -15,2 -3,0 -5,0 -8,0 -3,1 -5,1 -8,1 -5,0 -10,0 -15,0 -5,0 -10,0 -15,0 -2,0 -5,-1 -7,-1 -3,0 -5,0 -8,-1 -2,0 -5,0 -7,-1 -3,0 -5,-1 -8,-2 -2,0 -5,-1 -7,-2 -3,0 -5,-1 -8,-2z"/>
  <path class="fil0" d="M4784 757c0,0 -52,163 0,305 -2,5 -173,19 -173,-156 1,-84 -4,-109 -6,-120 0,0 119,-4 179,-29z"/>
  <path class="fil1" d="M4675 1000c1,1 2,2 3,4 1,1 2,2 3,3 1,1 2,2 3,3 2,2 3,3 4,4 1,1 3,2 4,3 1,0 2,1 4,2 1,1 2,2 4,3 1,1 3,2 4,2 1,1 3,2 4,2 2,1 3,2 5,2 3,2 6,3 9,4 6,2 12,4 18,5l9 2 -2 -9 -2 -14c-1,-5 -2,-10 -2,-14 -1,-5 -2,-10 -2,-14 0,-3 -1,-5 -1,-7l-1 -8 0 -7c-1,-2 -1,-4 -1,-7 0,-4 -1,-9 -1,-14 0,-4 0,-9 0,-14 0,-5 -1,-9 -1,-14 0,-5 0,-10 0,-14 0,-5 0,-10 0,-15 0,-4 0,-9 1,-14l0 -14c0,-5 0,-10 1,-14l0 -15 1 -14c0,-5 1,-10 1,-15 -1,5 -3,10 -4,14l-2 7 -2 7c-1,5 -2,10 -3,15 -1,4 -2,9 -2,14 -1,5 -2,9 -3,14 0,5 -1,10 -1,15 -1,5 -1,9 -1,14 -1,5 -1,10 -1,15 0,5 0,10 0,14 0,5 0,10 0,15 1,5 1,10 1,15 1,2 1,4 1,7l1 7 1 7c0,3 0,5 1,8 1,4 1,9 2,14 1,5 2,10 3,14l4 14 7 -7c-3,0 -6,-1 -9,-1 -1,0 -3,-1 -4,-1 -2,0 -3,-1 -5,-1 -3,0 -5,-1 -8,-2 -2,0 -3,-1 -5,-1 -1,-1 -2,-1 -4,-2 -1,0 -3,-1 -4,-1 -2,-1 -3,-1 -4,-2 -2,-1 -3,-1 -4,-2 -2,-1 -3,-1 -5,-2 -1,-1 -2,-1 -3,-2 -2,-1 -3,-2 -4,-3 -2,-1 -3,-1 -4,-2 -2,-1 -3,-2 -4,-3z"/>
  <path class="fil1" d="M5710 302c0,0 62,17 118,31 0,0 -102,-13 -135,-23l84 34c0,0 -90,-16 -114,-20l69 27c0,0 -70,-9 -87,-13l55 21 -86 -16 51 18 -73 -11 36 17 -54 -9 59 43c0,0 -83,-40 -90,-45 0,0 39,-48 63,-87l104 33z"/>
  <path class="fil1" d="M5519 394c0,0 175,97 225,120 0,0 -67,-17 -97,-32l38 26c0,0 -54,-14 -86,-31l42 24c0,0 -51,-17 -76,-28l40 28c0,0 -61,-22 -83,-35l33 27c0,0 -47,-17 -66,-29l27 23c0,0 -39,-13 -57,-25l24 34c0,0 -51,-40 -55,-45 0,0 68,-36 91,-57z"/>
  <path class="fil1" d="M5383 483c0,0 112,110 176,162 0,0 -72,-45 -96,-65l44 52c0,0 -66,-41 -85,-59l46 51c0,0 -55,-34 -75,-53l35 40c0,0 -52,-27 -69,-43l33 35c0,0 -35,-19 -52,-39l18 27c0,0 -28,-16 -52,-40l13 29c0,0 -47,-39 -59,-54 0,0 92,-21 123,-43z"/>
  <path class="fil1" d="M5211 545c0,0 57,99 108,175 0,0 -41,-37 -61,-65l26 65c0,0 -46,-52 -57,-70l24 52c0,0 -35,-39 -51,-60l16 50c0,0 -22,-26 -40,-55l10 42c0,0 -28,-34 -40,-61l0 55c0,0 -17,-48 -33,-82 0,0 54,-39 98,-46z"/>
  <path class="fil1" d="M5060 624c0,0 42,156 69,217 0,0 -38,-57 -52,-100 0,0 12,61 15,77 0,0 -22,-40 -34,-86 0,0 4,50 6,62 0,0 -21,-45 -29,-72 0,0 1,50 3,61 0,0 -19,-44 -22,-67 0,0 -1,34 0,48 0,0 -17,-32 -20,-59 0,0 -2,32 0,44 0,0 -13,-35 -16,-59 0,0 -6,33 -5,45 0,0 -11,-23 -14,-47 0,0 48,-43 99,-64z"/>
  <path class="fil1" d="M4906 729c0,0 -1,85 12,159 0,0 -20,-35 -23,-75 0,0 -3,32 2,53 0,0 -16,-34 -19,-61 0,0 -2,22 0,41 0,0 -10,-26 -13,-52 0,0 0,21 2,35 0,0 -13,-24 -14,-43 0,0 -2,23 -1,34 0,0 -10,-18 -11,-40 0,0 -6,18 -5,33 0,0 -6,-23 -8,-39l-7 20c0,0 -5,-16 -5,-29 0,0 69,-25 90,-36z"/>
  <path class="fil1" d="M4748 789c0,0 -12,15 -19,122 0,0 -8,-21 -12,-60 0,0 -4,26 -6,41 0,0 -9,-29 -10,-47 0,0 -3,16 -6,28 0,0 -9,-29 -10,-44 0,0 -4,20 -4,32 0,0 -8,-20 -8,-38 0,0 -3,17 -4,27 0,0 -10,-22 -12,-35l-6 26c0,0 -9,-29 -26,-34 0,0 62,1 123,-18z"/>
  <path class="fil1" d="M5105 61c0,0 245,194 431,169 0,0 -75,19 -154,10 0,0 53,12 91,13 0,0 -84,20 -172,-9 0,0 42,22 65,25 0,0 -64,-1 -111,-24 0,0 19,16 29,20 0,0 -73,-10 -125,-73 0,0 16,12 27,17 0,0 -40,-39 -57,-68 0,0 48,39 64,48 0,0 -62,-54 -80,-86 0,0 38,30 78,50 0,0 -49,-33 -86,-92z"/>
  <path class="fil0" d="M3328 1829c-392,0 -709,-318 -709,-709 0,-392 317,-709 709,-709 391,0 709,317 709,709 0,391 -318,709 -709,709zm1198 -1449c-436,-726 -1198,-140 -1198,-140 0,0 -763,-586 -1199,140 -403,670 891,1740 1199,2125 314,-428 1601,-1455 1198,-2125z"/>
  <path class="fil1" d="M3328 377c-410,0 -743,333 -743,743 0,409 333,743 743,743 409,0 742,-334 742,-743 0,-410 -333,-743 -742,-743zm0 1515c-426,0 -772,-347 -772,-772 0,-426 346,-772 772,-772 425,0 771,346 771,772 0,425 -346,772 -771,772zm-617 -1813c-218,0 -396,112 -528,333 -299,496 459,1280 911,1748 91,95 171,177 232,246 75,-91 177,-199 295,-323 235,-247 528,-554 718,-858 214,-341 257,-607 134,-813 -133,-221 -311,-333 -529,-333 -299,0 -575,209 -578,211l-38 29 -39 -29c-2,-2 -278,-211 -578,-211zm616 2372l-12 -13c-61,-71 -145,-158 -241,-258 -459,-474 -1226,-1267 -916,-1783 138,-230 324,-347 553,-347 310,0 593,215 596,217l21 16 20 -16c3,-2 286,-217 596,-217 229,0 415,117 553,347 130,217 87,492 -133,843 -193,306 -486,615 -722,863 -123,130 -230,242 -305,334l-10 14z"/>
  <path class="fil2" d="M3979 1120c0,359 -292,651 -651,651 -360,0 -651,-292 -651,-651 0,-360 291,-651 651,-651 359,0 651,291 651,651z"/>
  <path class="fil1" d="M3328 301c0,0 -168,-93 -375,-104 0,0 85,-5 119,2 0,0 -62,-29 -260,-25 0,0 107,-22 192,-10 0,0 -157,-45 -296,-27 0,0 125,-35 224,-20 0,0 -209,-36 -344,2 0,0 118,-55 262,-43 0,0 274,60 478,225z"/>
  <path class="fil1" d="M3328 301c0,0 167,-93 375,-104 0,0 -86,-5 -120,2 0,0 62,-29 261,-25 0,0 -108,-22 -193,-10 0,0 158,-45 297,-27 0,0 -125,-35 -224,-20 0,0 209,-36 344,2 0,0 -119,-55 -262,-43 0,0 -275,60 -478,225z"/>
  <path class="fil1" d="M2995 1801c0,0 136,83 339,78 202,-6 367,-93 367,-93 0,0 -151,141 -367,141 -216,0 -339,-126 -339,-126z"/>
  <path class="fil1" d="M3037 1855c0,0 120,64 299,66 178,2 323,-78 323,-78 0,0 -133,118 -323,118 -190,0 -299,-106 -299,-106z"/>
  <path class="fil1" d="M3089 1905c0,0 100,56 249,56 149,0 269,-67 269,-67 0,0 -111,102 -269,102 -159,0 -249,-91 -249,-91z"/>
  <polygon class="fil1" points="3452,2246 3486,2183 3393,2309 3410,2202 3354,2329 3326,2188 3304,2329 3242,2202 3269,2310 3154,2181 3201,2258 3083,2147 3326,2428 3570,2147 "/>
  <path class="fil3" d="M3755 1024l0 191c0,47 -37,84 -83,84l-165 0 0 165c0,46 -38,83 -84,83l-191 0c-46,0 -83,-37 -83,-83l0 -165 -165 0c-46,0 -84,-37 -84,-84l0 -191c0,-46 38,-83 84,-83l165 0 0 -165c0,-46 37,-84 83,-84l191 0c46,0 84,38 84,84l0 165 165 0c46,0 83,37 83,83z"/>
 </g>
</svg>
