<?xml version="1.0" encoding="UTF-8"?>
<!DOCTYPE svg PUBLIC "-//W3C//DTD SVG 1.1//EN" "http://www.w3.org/Graphics/SVG/1.1/DTD/svg11.dtd">
<!-- Creator: CorelDRAW X8 -->
<svg xmlns="http://www.w3.org/2000/svg" xml:space="preserve" width="4.50967in" height="9.79488in" version="1.1" style="shape-rendering:geometricPrecision; text-rendering:geometricPrecision; image-rendering:optimizeQuality; fill-rule:evenodd; clip-rule:evenodd"
viewBox="0 0 834 1812"
 xmlns:xlink="http://www.w3.org/1999/xlink">
 <defs>
  <style type="text/css">
   <![CDATA[
    .fil7 {fill:#FEFEFE;fill-rule:nonzero}
    .fil11 {fill:#B5B7B9;fill-rule:nonzero}
    .fil16 {fill:#F8E1D5;fill-rule:nonzero}
    .fil4 {fill:#F5CDBB;fill-rule:nonzero}
    .fil13 {fill:#F1B79E;fill-rule:nonzero}
    .fil5 {fill:#EEA789;fill-rule:nonzero}
    .fil15 {fill:#EC9576;fill-rule:nonzero}
    .fil8 {fill:#E8E7E8;fill-rule:nonzero}
    .fil9 {fill:#DBC3A9;fill-rule:nonzero}
    .fil3 {fill:#A7D9ED;fill-rule:nonzero}
    .fil17 {fill:#ABBFB5;fill-rule:nonzero}
    .fil10 {fill:#A9ACAF;fill-rule:nonzero}
    .fil6 {fill:#8ACCE6;fill-rule:nonzero}
    .fil14 {fill:#47352F;fill-rule:nonzero}
    .fil12 {fill:#483830;fill-rule:nonzero}
    .fil2 {fill:#363435;fill-rule:nonzero}
    .fil0 {fill:#4E4C57;fill-rule:nonzero}
    .fil1 {fill:#3E3E46;fill-rule:nonzero}
   ]]>
  </style>
 </defs>
 <g id="Layer_x0020_1">
  <metadata id="CorelCorpID_0Corel-Layer"/>
  <path class="fil0" d="M188 1800c-35,0 -64,-28 -64,-64l0 -410c0,-35 29,-64 64,-64 36,0 64,29 64,64l0 410c0,36 -28,64 -64,64z"/>
  <polygon class="fil1" points="252,1388 124,1343 124,1340 252,1340 "/>
  <path class="fil2" d="M267 1782c0,40 -180,40 -180,0 0,-40 40,-62 90,-62 49,0 90,22 90,62z"/>
  <path class="fil0" d="M359 1800c-35,0 -64,-28 -64,-64l0 -410c0,-35 29,-64 64,-64 36,0 65,29 65,64l0 410c0,36 -29,64 -65,64z"/>
  <polygon class="fil1" points="424,1388 295,1343 295,1340 424,1340 "/>
  <path class="fil2" d="M462 1782c0,40 -180,40 -180,0 0,-40 40,-62 90,-62 50,0 90,22 90,62z"/>
  <path class="fil3" d="M487 664c0,100 -93,181 -209,181 -115,0 -209,-81 -209,-181 0,-100 94,-182 209,-182 116,0 209,82 209,182z"/>
  <polygon class="fil4" points="215,527 333,527 333,412 215,412 "/>
  <path class="fil5" d="M333 472l-118 -41 0 -5c18,9 38,14 59,14l0 0 0 0c22,0 42,-5 59,-14l0 46z"/>
  <polygon class="fil0" points="302,546 291,568 257,568 246,546 274,523 "/>
  <polygon class="fil6" points="215,468 274,523 238,561 186,484 "/>
  <polygon class="fil6" points="333,468 274,523 310,561 363,484 "/>
  <polygon class="fil0" points="291,573 305,774 274,808 243,774 257,573 "/>
  <path class="fil7" d="M349 477l-75 302 -74 -302c-90,22 -157,103 -157,199l0 663 463 0 0 -663c0,-96 -67,-177 -157,-199z"/>
  <polygon class="fil8" points="363,573 411,545 349,477 277,769 272,769 200,477 137,545 186,573 159,597 269,771 269,1339 279,1339 279,771 390,597 "/>
  <polygon class="fil8" points="81,1063 233,1063 233,1047 81,1047 "/>
  <polygon class="fil7" points="81,1205 233,1205 233,1063 81,1063 "/>
  <polygon class="fil8" points="315,1063 468,1063 468,1047 315,1047 "/>
  <polygon class="fil7" points="315,1205 468,1205 468,1063 315,1063 "/>
  <polygon class="fil9" points="306,1213 84,1085 251,795 473,924 "/>
  <polygon class="fil10" points="366,917 310,885 320,836 403,883 "/>
  <path class="fil4" d="M368 1133c15,-34 10,-32 -24,-59 16,3 27,3 30,-6 5,-18 -38,-24 -90,-39 -4,-1 -7,-2 -11,-3l-61 -40 -42 65 82 54c9,9 20,17 32,25 44,29 69,38 84,3z"/>
  <path class="fil8" d="M168 939c-70,-96 -110,-219 -9,-313 -88,94 -49,205 21,291l-12 22z"/>
  <path class="fil7" d="M174 1078c-117,-106 -175,-214 -174,-322 1,-128 90,-212 94,-215l65 85 0 0c-2,2 -56,51 -56,133 0,76 47,158 140,243l-69 76z"/>
  <path class="fil4" d="M829 517c-14,-14 -48,-4 -82,23 7,-15 9,-26 1,-30 -16,-9 -32,32 -58,79 -2,3 -4,6 -5,10l-53 51 53 55 72 -68c10,-7 21,-15 31,-25 38,-37 56,-79 41,-95z"/>
  <polygon class="fil8" points="506,797 456,699 506,725 "/>
  <path class="fil7" d="M586 814l0 0c-14,-1 -28,-7 -38,-17l-92 -98 -9 -167 140 155 87 -94 75 70 -125 134c-10,11 -24,17 -38,17z"/>
  <path class="fil10" d="M401 596c-1,-5 -6,-120 -68,-137l0 11c52,18 57,125 57,127l1 5 10 -1 0 -5z"/>
  <path class="fil11" d="M215 469l0 -11 -1 0c-96,32 -58,268 -57,278l1 5 10 -2 0 -5c-1,-2 -38,-234 47,-265z"/>
  <path class="fil10" d="M355 649c1,-14 6,-48 41,-48 34,0 39,34 40,48 2,34 -14,73 -40,94 -27,-21 -43,-60 -41,-94zm76 108c-10,-1 -19,-4 -27,-9 28,-23 44,-64 42,-99 -2,-36 -21,-58 -50,-58 -30,0 -49,22 -51,58 -2,35 14,76 42,99 -8,5 -17,8 -27,9 -3,0 -5,3 -4,6 0,2 2,4 5,4l0 0c13,-1 24,-5 35,-12 10,7 21,11 34,12l0 0c3,0 5,-2 5,-4 1,-3 -1,-6 -4,-6z"/>
  <path class="fil0" d="M438 770c-3,0 -6,0 -9,0 -4,-1 -7,-4 -6,-9 0,-4 4,-7 8,-6 5,0 10,0 15,0 4,-1 8,2 8,6 1,5 -2,8 -7,9 -3,0 -6,0 -9,0z"/>
  <path class="fil0" d="M353 770c-3,0 -6,0 -9,0 -5,-1 -8,-4 -7,-9 0,-4 4,-7 8,-6 5,0 10,0 15,0 4,-1 8,2 8,6 1,5 -2,8 -6,9 -3,0 -6,0 -9,0z"/>
  <path class="fil8" d="M193 736c0,17 -13,31 -30,31 -17,0 -31,-14 -31,-31 0,-17 14,-31 31,-31 17,0 30,14 30,31z"/>
  <path class="fil10" d="M163 695c-23,0 -42,19 -42,41 0,23 19,41 42,41 22,0 41,-18 41,-41 0,-22 -19,-41 -41,-41zm0 10c17,0 30,14 30,31 0,17 -13,31 -30,31 -17,0 -31,-14 -31,-31 0,-17 14,-31 31,-31z"/>
  <path class="fil10" d="M185 736c0,12 -10,22 -22,22 -13,0 -22,-10 -22,-22 0,-12 9,-22 22,-22 12,0 22,10 22,22z"/>
  <path class="fil4" d="M274 49c-71,0 -128,58 -128,129l0 133c0,71 57,129 128,129 71,0 129,-58 129,-129l0 -133c0,-71 -58,-129 -129,-129z"/>
  <path class="fil12" d="M414 83c9,-14 15,-30 14,-48 -31,-1 -60,-11 -72,-17 -23,-12 -46,-19 -82,-18 -108,0 -139,83 -139,83 -24,57 -18,135 11,208 1,1 1,3 2,4 -2,-6 -2,-12 -3,-18 0,-23 0,-67 3,-64 22,-29 27,-80 27,-80 0,0 46,10 99,12 54,-2 100,-12 100,-12 0,0 5,51 27,80 3,-3 2,41 3,64 -1,6 -2,12 -3,18 1,-1 1,-3 2,-4 28,-73 35,-151 11,-208z"/>
  <path class="fil5" d="M215 268c-11,0 -20,-9 -20,-20 0,-11 8,-21 20,-21 0,0 0,0 0,0 11,0 20,9 21,20 0,11 -9,20 -20,21 0,0 -1,0 -1,0z"/>
  <path class="fil12" d="M236 241c0,12 -9,21 -20,21 -11,1 -21,-8 -21,-19 0,-11 8,-21 20,-21 11,0 20,8 21,19z"/>
  <path class="fil7" d="M227 236c0,2 -2,5 -5,5 -3,0 -5,-2 -5,-5 0,-3 2,-5 5,-5 3,0 5,2 5,5z"/>
  <path class="fil12" d="M354 241c0,12 -9,21 -20,21 -11,1 -20,-8 -21,-19 0,-11 9,-21 20,-21 11,0 20,8 21,19z"/>
  <path class="fil7" d="M345 236c0,2 -2,5 -4,5 -3,0 -6,-2 -6,-5 0,-3 2,-5 5,-5 3,0 5,2 5,5z"/>
  <path class="fil4" d="M146 231c-14,0 -26,12 -26,26l0 27c0,14 12,25 26,25 14,0 26,-11 26,-25l0 -27c0,-14 -12,-26 -26,-26z"/>
  <path class="fil4" d="M403 231c-14,0 -26,12 -26,26l0 27c0,14 12,25 26,25 14,0 26,-11 26,-25l0 -27c0,-14 -12,-26 -26,-26z"/>
  <path class="fil13" d="M274 440l0 -111 -31 0c0,0 13,-57 31,-97l0 -87c54,-2 100,-12 100,-12 0,0 5,51 27,80l0 0c0,0 0,0 0,0 0,0 0,0 0,0 1,0 1,6 2,15l0 3c-14,0 -26,12 -26,26l0 27c0,14 12,25 26,25l0 2c0,8 -1,15 -2,22 -10,61 -63,107 -127,107zm39 -195c0,1 0,2 0,3 1,11 10,20 20,20 1,0 1,0 1,0 11,-1 20,-10 20,-21 0,-1 0,-2 0,-2 0,-1 0,-2 0,-4 -1,-10 -10,-19 -21,-19 0,0 0,0 0,0 -11,0 -20,10 -20,21 0,1 0,1 0,2z"/>
  <path class="fil14" d="M401 213c0,0 0,0 0,0 0,0 0,0 0,0z"/>
  <path class="fil15" d="M333 268c-10,0 -19,-9 -20,-20 0,-1 0,-2 0,-3 2,10 10,18 20,18 1,0 1,-1 1,-1 10,0 18,-8 20,-17 0,0 0,1 0,2 0,11 -9,20 -20,21 0,0 0,0 -1,0z"/>
  <path class="fil14" d="M333 263c-10,0 -18,-8 -20,-18 0,-1 0,-1 0,-2 0,-11 9,-21 20,-21 0,0 0,0 0,0 11,0 20,9 21,19 0,2 0,3 0,4 -2,9 -10,17 -20,17 0,0 0,1 -1,1zm7 -32c0,0 0,0 0,0 -3,0 -5,2 -5,5 0,3 3,5 5,5 0,0 0,0 1,0 2,0 4,-3 4,-5 0,-3 -2,-5 -5,-5z"/>
  <path class="fil16" d="M340 241c-2,0 -5,-2 -5,-5 0,-3 2,-5 5,-5 0,0 0,0 0,0 3,0 5,2 5,5 0,2 -2,5 -4,5 -1,0 -1,0 -1,0z"/>
  <path class="fil17" d="M429 257c0,0 0,0 0,0 0,0 0,0 0,0zm0 0c0,0 0,0 0,0 0,0 0,0 0,0z"/>
  <path class="fil13" d="M403 309l0 0c-14,0 -26,-11 -26,-25l0 -27c0,-14 12,-26 26,-26l0 0 0 0c6,0 12,3 16,7 6,4 9,11 10,19 0,0 0,0 0,0 0,0 0,0 0,0 0,0 0,0 0,0 0,0 0,0 0,0l0 27c0,14 -12,25 -26,25z"/>
  <path class="fil7" d="M369 262l0 1c0,8 -7,15 -15,15l-41 0c-9,0 -16,-7 -16,-15l-5 -31c1,-9 7,-15 16,-15l51 0c9,0 15,6 16,15l-1 2c0,1 0,1 0,2l-5 26zm-118 0l0 1c0,8 -7,15 -15,15l-41 0c-9,0 -16,-7 -16,-15l-4 -27c0,-1 0,-1 0,-2l-1 -2c0,-9 7,-15 16,-15l51 0c8,0 15,6 15,15l-5 30zm151 -36l-17 4c-2,-13 -13,-24 -26,-24l-51 0c-14,0 -25,11 -26,25l-15 0c-1,-14 -12,-25 -26,-25l-51 0c-14,0 -25,11 -26,24l-17 -4c-3,0 -6,2 -6,4 -1,3 1,6 4,6l20 4 4 23c0,14 12,25 26,25l41 0c14,0 25,-11 25,-25l4 -22 19 0 3 22c0,14 12,25 26,25l41 0c14,0 25,-11 26,-25l4 -23 20 -4c3,0 4,-3 4,-6 -1,-2 -3,-4 -6,-4z"/>
 </g>
</svg>
