<?xml version="1.0" encoding="UTF-8"?>
<!DOCTYPE svg PUBLIC "-//W3C//DTD SVG 1.1//EN" "http://www.w3.org/Graphics/SVG/1.1/DTD/svg11.dtd">
<!-- Creator: CorelDRAW X8 -->
<svg xmlns="http://www.w3.org/2000/svg" xml:space="preserve" width="1.51857in" height="1.77262in" version="1.1" style="shape-rendering:geometricPrecision; text-rendering:geometricPrecision; image-rendering:optimizeQuality; fill-rule:evenodd; clip-rule:evenodd"
viewBox="0 0 236 275"
 xmlns:xlink="http://www.w3.org/1999/xlink">
 <defs>
  <style type="text/css">
   <![CDATA[
    .fil0 {fill:#00A1AC;fill-rule:nonzero}
    .fil1 {fill:white;fill-rule:nonzero}
   ]]>
  </style>
 </defs>
 <g id="Object">
  <metadata id="CorelCorpID_0Corel-Layer"/>
  <path class="fil0" d="M137 141c-15,11 -31,15 -47,13 -44,-5 -72,-58 -73,-61 0,0 0,-1 0,-1 -3,0 -4,-1 -5,-3 0,-3 -3,-9 -5,-13l-6 -8c-2,-4 -1,-8 4,-10l13 -5c5,-1 9,2 9,7l0 8c0,5 2,11 3,14 2,2 1,4 -2,6 3,5 28,50 64,54 12,2 25,-2 38,-10l7 9c0,0 0,0 0,0z"/>
  <path class="fil0" d="M147 37c-26,-29 -81,-22 -81,-22 0,0 0,0 -1,0 0,0 1,1 1,3 0,1 -2,2 -5,2 -4,0 -10,2 -14,5l-6 5c-4,3 -9,1 -10,-4l-4 -13c-2,-5 1,-9 6,-9l9 0c5,0 11,-1 14,-3 3,-1 5,-1 6,0l0 3c1,0 1,-1 2,-1 3,0 62,-8 92,26 10,11 15,25 16,42l-12 0c-1,-14 -5,-25 -13,-34z"/>
  <path class="fil0" d="M57 229c0,-1 0,-2 0,-3 0,0 0,0 0,0l1 -7c0,0 0,0 0,0 3,-13 9,-23 18,-29 18,-11 42,-6 60,0 2,1 5,2 8,3 29,10 58,21 75,-12 0,-1 0,-1 1,-2 4,-9 5,-18 1,-25 -6,-14 -24,-22 -32,-24 0,0 0,0 0,0l4 -13c0,0 0,1 0,1 9,3 31,12 40,31 4,11 4,23 -2,35 -1,1 -1,2 -1,2 -23,43 -60,29 -91,18 -2,-1 -5,-2 -8,-3 -20,-7 -38,-7 -48,0 -6,3 -9,8 -12,16 0,0 0,0 0,0l-1 6c0,0 0,0 0,0 -1,2 -1,4 -1,7 0,3 -3,6 -7,5 -3,0 -6,-3 -5,-6z"/>
  <path class="fil1" d="M28 261c0,-3 2,-3 7,0 6,4 17,9 32,6 20,-4 30,-11 35,-16 4,-4 5,-5 5,-1 0,4 -2,11 -7,13 -5,4 -15,8 -30,11 -17,3 -28,0 -35,-3 -4,-2 -7,-7 -7,-10z"/>
  <path class="fil1" d="M27 248c-2,-11 11,-24 31,-29l-1 7c-5,2 -8,6 -7,9 1,5 8,7 17,6 8,-2 14,-7 13,-12 -1,-3 -5,-5 -10,-6l1 -6c19,-1 34,5 36,16 2,13 -14,26 -36,30 -22,5 -42,-2 -44,-15z"/>
  <path class="fil1" d="M20 51c0,-1 -2,-2 -3,-3 -5,-3 -12,-1 -14,4 -1,2 -2,4 -1,6l18 -7z"/>
  <path class="fil1" d="M30 29l-5 -19c-2,1 -4,2 -4,4 -3,5 -1,11 4,14 2,1 3,1 5,1z"/>
  <path class="fil1" d="M178 131l-15 -7 -14 15c-3,3 -8,4 -12,2l-7 -9c0,0 0,0 0,0 0,-3 1,-6 3,-9l18 -18 4 -26c1,-3 2,-6 5,-7 0,0 0,0 0,-1l12 0c0,0 0,0 0,1 4,2 6,6 5,11l-4 21 14 7c3,1 6,5 7,7l-5 12c-3,2 -8,3 -11,1z"/>
 </g>
</svg>
