<?xml version="1.0" encoding="UTF-8"?>
<!DOCTYPE svg PUBLIC "-//W3C//DTD SVG 1.1//EN" "http://www.w3.org/Graphics/SVG/1.1/DTD/svg11.dtd">
<!-- Creator: CorelDRAW X8 -->
<svg xmlns="http://www.w3.org/2000/svg" xml:space="preserve" width="1.95323in" height="2.29236in" version="1.1" style="shape-rendering:geometricPrecision; text-rendering:geometricPrecision; image-rendering:optimizeQuality; fill-rule:evenodd; clip-rule:evenodd"
viewBox="0 0 392 460"
 xmlns:xlink="http://www.w3.org/1999/xlink">
 <defs>
  <style type="text/css">
   <![CDATA[
    .fil3 {fill:#413F42;fill-rule:nonzero}
    .fil1 {fill:#57595B;fill-rule:nonzero}
    .fil0 {fill:#8CC43F;fill-rule:nonzero}
    .fil2 {fill:#919397;fill-rule:nonzero}
   ]]>
  </style>
 </defs>
 <g id="_3">
  <metadata id="CorelCorpID_0Corel-Layer"/>
  <path class="fil0" d="M39 39c4,6 11,9 17,7l23 -7c7,-2 9,-8 6,-14l-10 -19c-3,-6 -10,-8 -15,-4l-21 13c-4,3 -6,8 -5,13l5 12c0,0 0,-1 0,-1z"/>
  <path class="fil0" d="M208 28c1,-5 -1,-10 -5,-13l-21 -13c-5,-4 -12,-2 -15,4l-10 19c-3,6 0,12 6,14l23 7c6,2 14,-1 17,-7 0,1 0,1 0,1l5 -12c0,0 0,0 0,0z"/>
  <path class="fil1" d="M208 28l-5 12c9,10 23,32 18,73l12 2c6,-51 -13,-76 -25,-87z"/>
  <path class="fil1" d="M21 113c-5,-42 9,-64 18,-73l-5 -12c0,0 0,0 0,0 -12,11 -30,36 -25,87l13 -1c-1,0 -1,-1 -1,-1z"/>
  <path class="fil2" d="M392 145c0,-35 -28,-63 -63,-63 -34,0 -62,28 -62,63 0,5 0,10 1,14 0,0 0,0 0,0 7,26 29,46 57,49 1,0 3,0 4,0 35,0 63,-28 63,-63zm-87 0l0 0c0,-14 11,-24 24,-24 14,0 25,10 25,24 0,14 -11,25 -25,25 -13,0 -24,-11 -24,-25z"/>
  <path class="fil0" d="M60 243c1,9 7,18 15,23 6,3 13,6 19,8 10,2 20,3 30,3 4,0 7,0 11,0 10,-2 20,-5 29,-10 9,-5 15,-13 16,-22 41,-38 60,-106 62,-110 2,-8 -2,-16 -9,-20 0,0 0,0 0,0l-12 -2c0,0 0,0 0,0 -6,2 -12,6 -14,13 -5,20 -22,62 -46,87 -8,-3 -16,-2 -24,2 -5,3 -10,4 -16,4l-1 0c-5,0 -10,-2 -16,-5 -8,-4 -16,-4 -24,-2 -24,-25 -40,-66 -45,-86 -2,-6 -7,-11 -13,-12l-13 1c0,0 0,0 0,0 -7,4 -11,12 -8,20 1,4 19,70 59,108z"/>
  <path class="fil3" d="M288 190c-9,-8 -15,-19 -19,-30 -25,20 -53,62 -32,127 13,42 9,86 -11,113 -8,11 -24,25 -48,25 -32,0 -63,-17 -76,-40 -5,-9 -9,-23 -1,-36 18,-28 27,-55 32,-72 -3,0 -6,0 -9,0 -9,0 -18,-1 -27,-3 -4,15 -12,35 -26,56 -13,22 -13,48 0,72 19,35 62,58 107,58 31,0 58,-14 77,-39 26,-37 32,-91 15,-145 -14,-47 4,-74 18,-86z"/>
 </g>
</svg>
