<?xml version="1.0" encoding="UTF-8"?>
<!DOCTYPE svg PUBLIC "-//W3C//DTD SVG 1.1//EN" "http://www.w3.org/Graphics/SVG/1.1/DTD/svg11.dtd">
<!-- Creator: CorelDRAW X8 -->
<svg xmlns="http://www.w3.org/2000/svg" xml:space="preserve" width="1.96861in" height="1.96861in" version="1.1" style="shape-rendering:geometricPrecision; text-rendering:geometricPrecision; image-rendering:optimizeQuality; fill-rule:evenodd; clip-rule:evenodd"
viewBox="0 0 669 669"
 xmlns:xlink="http://www.w3.org/1999/xlink">
 <defs>
  <style type="text/css">
   <![CDATA[
    .fil0 {fill:#00C852;fill-rule:nonzero}
    .fil1 {fill:white;fill-rule:nonzero}
   ]]>
  </style>
 </defs>
 <g id="objects">
  <metadata id="CorelCorpID_0Corel-Layer"/>
  <path class="fil0" d="M669 334c0,185 -150,335 -335,335 -184,0 -334,-150 -334,-335 0,-184 150,-334 334,-334 185,0 335,150 335,334z"/>
  <path class="fil1" d="M459 318l60 -67c17,-19 15,-49 -4,-65l-53 -48c-19,-17 -49,-15 -65,3l-60 68 122 109z"/>
  <path class="fil1" d="M210 351l-60 67c-17,19 -15,49 4,65l53 48c19,17 49,15 65,-4l60 -67 -122 -109z"/>
  <path class="fil1" d="M325 222l-103 116 122 109 103 -116 -122 -109zm-60 126l0 0c-5,-4 -5,-12 -1,-17 5,-5 12,-5 17,-1 5,4 6,12 1,17 -4,5 -12,6 -17,1zm29 -33l0 0c-5,-4 -5,-12 -1,-17 5,-5 13,-6 18,-1 5,4 5,12 1,17 -5,5 -12,6 -18,1zm30 -33l0 0c-5,-4 -6,-12 -1,-17 4,-5 12,-6 17,-1 5,4 6,12 1,17 -4,5 -12,6 -17,1zm-27 95l0 0c-5,-5 -6,-13 -1,-18 4,-5 12,-5 17,-1 5,5 6,13 1,18 -4,5 -12,5 -17,1zm29 -33l0 0c-5,-5 -5,-13 -1,-18 5,-5 13,-5 18,-1 5,5 5,13 1,18 -5,5 -13,5 -18,1zm30 -33l0 0c-5,-5 -6,-13 -1,-18 4,-5 12,-5 17,-1 5,5 5,13 1,18 -4,5 -12,5 -17,1zm-27 94l0 0c-5,-4 -6,-12 -1,-17 4,-5 12,-6 17,-1 5,4 5,12 1,17 -4,5 -12,5 -17,1zm29 -33l0 0c-5,-4 -5,-12 -1,-17 5,-5 12,-6 17,-1 5,4 6,12 1,17 -4,5 -12,5 -17,1zm30 -33l0 0c-5,-5 -6,-12 -1,-17 4,-5 12,-6 17,-1 5,4 5,12 1,17 -5,5 -12,5 -17,1z"/>
 </g>
</svg>
