<?xml version="1.0" encoding="UTF-8"?>
<!DOCTYPE svg PUBLIC "-//W3C//DTD SVG 1.1//EN" "http://www.w3.org/Graphics/SVG/1.1/DTD/svg11.dtd">
<!-- Creator: CorelDRAW X8 -->
<svg xmlns="http://www.w3.org/2000/svg" xml:space="preserve" width="1.8378in" height="1.99603in" version="1.1" style="shape-rendering:geometricPrecision; text-rendering:geometricPrecision; image-rendering:optimizeQuality; fill-rule:evenodd; clip-rule:evenodd"
viewBox="0 0 708 769"
 xmlns:xlink="http://www.w3.org/1999/xlink">
 <defs>
  <style type="text/css">
   <![CDATA[
    .fil0 {fill:#00BABA;fill-rule:nonzero}
    .fil1 {fill:url(#id0)}
   ]]>
  </style>
  <linearGradient id="id0" gradientUnits="userSpaceOnUse" x1="246.949" y1="240.957" x2="246.949" y2="-629.009">
   <stop offset="0" style="stop-opacity:1; stop-color:#00BABA"/>
   <stop offset="0.541176" style="stop-opacity:1; stop-color:#00BABA"/>
   <stop offset="1" style="stop-opacity:1; stop-color:#00BABA"/>
  </linearGradient>
 </defs>
 <g id="Layer_x0020_1">
  <metadata id="CorelCorpID_0Corel-Layer"/>
  <path class="fil0" d="M601 74c-17,4 -32,6 -47,17 -16,10 -30,23 -46,33 -7,5 -13,12 -21,7 -23,-16 29,-64 41,-73 21,-14 51,-26 76,-18 11,3 16,7 18,12 3,8 -5,17 -21,22zm-29 -66c-130,45 -153,128 -185,285 -19,98 -82,219 -180,259 -126,53 -159,90 -207,217 129,-217 154,-138 260,-207 89,-57 119,-159 198,-225 74,-63 182,-75 232,-167 50,-92 -9,-200 -118,-162z"/>
  <path class="fil1" d="M403 221c10,-44 22,-80 38,-110l79 -46c-19,16 -53,52 -33,66 2,1 4,2 6,2 5,0 10,-5 15,-9 16,-10 30,-23 46,-33 15,-11 30,-13 47,-17 16,-5 24,-14 21,-22 -2,-5 -7,-9 -18,-12 -5,-2 -11,-3 -17,-3 -10,0 -20,2 -30,6l26 -15 -12 -20c1,0 1,0 1,0 9,-3 17,-5 25,-7l8 14 17 -10c3,-2 7,-3 10,-4 11,2 20,6 28,10 4,4 7,7 10,12 10,18 7,41 -8,50l-247 144c-4,2 -8,3 -12,4z"/>
 </g>
</svg>
