<?xml version="1.0" encoding="UTF-8"?>
<!DOCTYPE svg PUBLIC "-//W3C//DTD SVG 1.1//EN" "http://www.w3.org/Graphics/SVG/1.1/DTD/svg11.dtd">
<!-- Creator: CorelDRAW X8 -->
<svg xmlns="http://www.w3.org/2000/svg" xml:space="preserve" width="1.11111in" height="1.11113in" version="1.1" style="shape-rendering:geometricPrecision; text-rendering:geometricPrecision; image-rendering:optimizeQuality; fill-rule:evenodd; clip-rule:evenodd"
viewBox="0 0 138 138"
 xmlns:xlink="http://www.w3.org/1999/xlink">
 <defs>
  <style type="text/css">
   <![CDATA[
    .fil2 {fill:#FEFEFE;fill-rule:nonzero}
    .fil3 {fill:#E8E7E8;fill-rule:nonzero}
    .fil0 {fill:#6DC0E2;fill-rule:nonzero}
    .fil1 {fill:#3B91C7;fill-rule:nonzero}
   ]]>
  </style>
 </defs>
 <g id="Layer_x0020_1">
  <metadata id="CorelCorpID_0Corel-Layer"/>
  <path class="fil0" d="M138 67c1,38 -29,70 -67,71 -38,1 -70,-29 -71,-67 -1,-38 29,-70 67,-71 38,-1 70,29 71,67z"/>
  <path class="fil1" d="M81 137l-28 -26c0,0 -2,-68 42,-79l43 41c-2,32 -26,59 -57,64z"/>
  <path class="fil2" d="M80 26c-4,0 -10,5 -12,5 -2,0 -8,-5 -13,-5 -16,1 -25,20 -19,37 9,22 11,50 21,49 6,0 4,-36 12,-36 8,0 8,36 14,36 10,-1 11,-28 18,-51 6,-16 -4,-36 -21,-35z"/>
  <path class="fil3" d="M86 31c-3,-4 -16,4 -18,4 -2,0 -15,-8 -17,-3 -1,2 3,4 17,6 15,-2 19,-5 18,-7z"/>
 </g>
</svg>
