<?xml version="1.0" encoding="UTF-8"?>
<!DOCTYPE svg PUBLIC "-//W3C//DTD SVG 1.1//EN" "http://www.w3.org/Graphics/SVG/1.1/DTD/svg11.dtd">
<!-- Creator: CorelDRAW X8 -->
<svg xmlns="http://www.w3.org/2000/svg" xml:space="preserve" width="0.874185in" height="1.21995in" version="1.1" style="shape-rendering:geometricPrecision; text-rendering:geometricPrecision; image-rendering:optimizeQuality; fill-rule:evenodd; clip-rule:evenodd"
viewBox="0 0 96 134"
 xmlns:xlink="http://www.w3.org/1999/xlink">
 <defs>
  <style type="text/css">
   <![CDATA[
    .fil0 {fill:#00A1AC;fill-rule:nonzero}
    .fil1 {fill:white;fill-rule:nonzero}
   ]]>
  </style>
 </defs>
 <g id="Object">
  <metadata id="CorelCorpID_0Corel-Layer"/>
  <path class="fil0" d="M53 3c-1,-2 -3,-3 -5,-3 -2,0 -4,1 -5,3 -12,17 -43,62 -43,83 0,27 22,48 48,48 27,0 48,-21 48,-48 0,-21 -31,-66 -43,-83z"/>
  <path class="fil1" d="M31 113c-1,2 -3,3 -5,3 -1,0 -3,-1 -4,-2 -19,-16 -13,-39 -12,-40 1,-4 4,-6 8,-5 3,1 5,5 4,8 0,1 -4,17 8,27 3,2 4,6 1,9z"/>
  <path class="fil1" d="M44 127c-4,0 -7,-4 -7,-8 0,-3 3,-7 7,-7 4,0 7,4 7,7 0,4 -3,8 -7,8z"/>
 </g>
</svg>
