<?xml version="1.0" encoding="UTF-8"?>
<!DOCTYPE svg PUBLIC "-//W3C//DTD SVG 1.1//EN" "http://www.w3.org/Graphics/SVG/1.1/DTD/svg11.dtd">
<!-- Creator: CorelDRAW X8 -->
<svg xmlns="http://www.w3.org/2000/svg" xml:space="preserve" width="1.49065in" height="4.82264in" version="1.1" style="shape-rendering:geometricPrecision; text-rendering:geometricPrecision; image-rendering:optimizeQuality; fill-rule:evenodd; clip-rule:evenodd"
viewBox="0 0 184 594"
 xmlns:xlink="http://www.w3.org/1999/xlink">
 <defs>
  <style type="text/css">
   <![CDATA[
    .fil6 {fill:#FEFEFE;fill-rule:nonzero}
    .fil4 {fill:#F7A192;fill-rule:nonzero}
    .fil5 {fill:#F1644F;fill-rule:nonzero}
    .fil0 {fill:#F5CDBB;fill-rule:nonzero}
    .fil10 {fill:#F1B79E;fill-rule:nonzero}
    .fil1 {fill:#EEA789;fill-rule:nonzero}
    .fil13 {fill:#EA9576;fill-rule:nonzero}
    .fil7 {fill:#E8E7E8;fill-rule:nonzero}
    .fil11 {fill:#ABBFB5;fill-rule:nonzero}
    .fil3 {fill:#ABAF9F;fill-rule:nonzero}
    .fil8 {fill:#A9ACAF;fill-rule:nonzero}
    .fil12 {fill:#47352F;fill-rule:nonzero}
    .fil9 {fill:#483830;fill-rule:nonzero}
    .fil2 {fill:#4E4C57;fill-rule:nonzero}
   ]]>
  </style>
 </defs>
 <g id="Layer_x0020_1">
  <metadata id="CorelCorpID_0Corel-Layer"/>
  <polygon class="fil0" points="85,582 64,582 59,434 90,434 "/>
  <polygon class="fil1" points="89,456 59,442 59,440 90,440 "/>
  <path class="fil2" d="M90 588c0,9 -41,9 -41,0 0,-10 9,-14 21,-14 11,0 20,4 20,14z"/>
  <polygon class="fil0" points="121,582 100,582 95,434 126,434 "/>
  <polygon class="fil0" points="121,582 100,582 95,434 126,434 "/>
  <polygon class="fil3" points="95,442 95,442 95,440 "/>
  <polygon class="fil1" points="125,456 95,442 95,440 126,440 "/>
  <path class="fil2" d="M135 588c0,9 -42,9 -42,0 0,-10 10,-14 21,-14 11,0 21,4 21,14z"/>
  <path class="fil4" d="M161 217c0,33 -31,60 -70,60 -38,0 -69,-27 -69,-60 0,-34 31,-61 69,-61 39,0 70,27 70,61z"/>
  <polygon class="fil0" points="72,171 112,171 112,133 72,133 "/>
  <path class="fil1" d="M112 153l-40 -14 0 -3 1 0c7,4 13,7 20,7l0 0c6,0 12,-2 19,-6l0 16z"/>
  <polygon class="fil2" points="101,177 98,185 86,185 82,177 92,170 "/>
  <polygon class="fil5" points="72,151 92,170 80,182 62,157 "/>
  <polygon class="fil5" points="112,151 92,170 104,182 121,157 "/>
  <polygon class="fil2" points="98,186 102,253 92,265 82,253 86,186 "/>
  <path class="fil6" d="M162 211c0,-30 -20,-54 -48,-61l-22 92 -23 -92c-27,7 -47,31 -47,61l-6 210 152 0 -6 -210z"/>
  <polygon class="fil2" points="19,421 18,442 165,442 165,421 "/>
  <polygon class="fil7" points="120,181 136,172 115,149 93,238 91,238 69,149 48,172 64,181 55,189 90,239 90,421 94,421 94,239 129,189 "/>
  <polygon class="fil0" points="72,351 56,365 37,343 53,329 "/>
  <polygon class="fil7" points="27,350 78,350 78,344 27,344 "/>
  <polygon class="fil6" points="27,397 78,397 78,350 27,350 "/>
  <path class="fil7" d="M62 330c-28,-37 -54,-98 -5,-131 -45,35 -17,90 13,124 -3,3 -6,5 -8,7z"/>
  <path class="fil6" d="M39 348c-33,-40 -43,-79 -37,-114 6,-42 41,-71 43,-71l12 36 0 0c-1,0 -21,14 -25,41 -4,25 7,54 34,87l-27 21z"/>
  <polygon class="fil0" points="112,351 128,365 147,343 130,329 "/>
  <polygon class="fil7" points="106,350 156,350 156,344 106,344 "/>
  <polygon class="fil6" points="106,397 156,397 156,350 106,350 "/>
  <path class="fil7" d="M122 330c-3,-2 -5,-4 -8,-7 30,-34 57,-89 13,-124 49,33 23,94 -5,131z"/>
  <path class="fil6" d="M145 348c33,-40 43,-79 37,-114 -7,-42 -40,-70 -42,-71l-13 36 0 0c1,0 21,14 25,41 4,25 -8,54 -34,87l27 21z"/>
  <path class="fil8" d="M134 194c0,-2 -2,-40 -22,-46l0 4c17,6 19,42 19,42l0 2 3 0 0 -2z"/>
  <path class="fil8" d="M72 152l0 -4 0 0c-32,11 -20,89 -19,92l0 2 4 0 -1 -2c0,-1 -12,-78 16,-88z"/>
  <path class="fil8" d="M119 212c0,-5 2,-16 13,-16 12,0 13,11 14,16 0,11 -5,24 -14,31 -9,-7 -14,-20 -13,-31zm25 36c-3,-1 -6,-2 -9,-3 9,-8 15,-22 14,-33 0,-12 -7,-20 -17,-20 -10,0 -16,8 -17,20 0,11 5,25 14,33 -2,1 -5,2 -9,3 0,0 -1,1 -1,2 0,0 1,1 2,1l0 0c4,0 8,-2 11,-4 4,2 7,4 12,4l0 0c1,0 1,-1 2,-1 0,-1 -1,-2 -2,-2z"/>
  <path class="fil2" d="M118 252c-1,0 -2,0 -3,0 -1,0 -2,-2 -2,-3 0,-1 1,-2 3,-2 1,0 3,0 4,0 2,0 3,1 3,2 0,1 -1,3 -2,3 -1,0 -2,0 -3,0z"/>
  <path class="fil2" d="M146 252c-1,0 -1,0 -2,0 -2,0 -3,-2 -3,-3 0,-1 2,-2 3,-2 2,0 3,0 5,0 1,0 3,1 3,2 0,1 -1,3 -3,3 -1,0 -2,0 -3,0z"/>
  <path class="fil7" d="M65 241c0,5 -5,10 -10,10 -6,0 -11,-5 -11,-10 0,-6 5,-11 11,-11 5,0 10,5 10,11z"/>
  <path class="fil8" d="M55 227c-8,0 -14,6 -14,14 0,7 6,13 14,13 7,0 13,-6 13,-13 0,-8 -6,-14 -13,-14zm0 3c5,0 10,5 10,11 0,5 -5,10 -10,10 -6,0 -11,-5 -11,-10 0,-6 5,-11 11,-11z"/>
  <path class="fil8" d="M62 241c0,4 -3,7 -7,7 -4,0 -8,-3 -8,-7 0,-4 4,-8 8,-8 4,0 7,4 7,8z"/>
  <path class="fil9" d="M154 130c-10,-8 -11,-21 -12,-33 -2,-17 -2,-21 -2,-39 0,-3 -36,-21 -47,-21 -12,0 -48,18 -48,21 0,18 0,22 -1,39 -1,12 -3,25 -13,33 4,2 27,14 42,4 6,3 13,5 20,5 7,0 14,-2 20,-5 14,10 37,-2 41,-4z"/>
  <path class="fil0" d="M93 13c-19,0 -43,24 -43,43l0 44c0,19 24,43 43,43 19,0 42,-24 42,-43l0 -44c0,-19 -23,-43 -42,-43z"/>
  <path class="fil9" d="M93 0c-63,0 -59,81 -43,94 0,0 -13,-63 43,-63 55,0 42,63 42,63 16,-13 21,-94 -42,-94z"/>
  <path class="fil0" d="M50 74c-5,0 -9,3 -9,8l0 9c0,5 4,9 9,9 5,0 8,-4 8,-9l0 -9c0,-5 -3,-8 -8,-8z"/>
  <path class="fil0" d="M135 74c-4,0 -8,3 -8,8l0 9c0,5 4,9 8,9 5,0 9,-4 9,-9l0 -9c0,-5 -4,-8 -9,-8z"/>
  <path class="fil9" d="M125 67c-4,-3 -7,-7 -9,-11 7,6 16,10 24,10 -10,-16 -3,-32 -13,-38 -50,-33 -75,10 -75,10 0,0 -15,36 -2,36 8,-1 19,-20 26,-34 6,9 16,18 26,22 -4,-4 -7,-9 -8,-13 7,8 19,15 31,18z"/>
  <path class="fil10" d="M93 143l0 -32 -9 -1c0,0 2,-14 9,-28l0 -25c2,2 5,3 7,4 1,1 1,1 2,1l0 0 0 0 0 0c-4,-4 -7,-9 -8,-13 7,8 19,15 31,18l0 0c-4,-3 -7,-7 -9,-11 0,0 0,0 0,0 0,0 0,1 0,1 0,0 0,0 0,0 0,0 0,0 0,0 0,0 0,0 0,0 0,0 0,0 0,0 0,0 0,0 0,0 6,4 13,7 19,8l0 9c-4,0 -8,3 -8,8l0 9c0,5 4,9 8,9l0 0c0,12 -9,26 -21,35 -7,5 -14,8 -21,8zm21 -65c0,0 0,0 0,0 -4,1 -7,4 -7,7 0,4 3,7 7,7 0,0 0,0 0,0 4,0 7,-3 7,-7 0,-4 -3,-7 -7,-7z"/>
  <path class="fil11" d="M144 82c0,0 0,0 0,0 0,0 0,0 0,0z"/>
  <path class="fil10" d="M135 100l0 0c-4,0 -8,-4 -8,-9l0 -9c0,-5 4,-8 8,-8l0 0c1,0 1,0 2,0 3,0 6,3 7,6 0,1 0,1 0,2 0,0 0,0 0,0l0 9c0,5 -4,8 -8,9 0,0 0,0 -1,0z"/>
  <path class="fil12" d="M125 67l0 0c-4,-3 -7,-7 -9,-11l0 0c2,4 5,8 9,11zm10 -2l0 0c-6,-1 -13,-4 -19,-8 6,4 13,7 19,8l0 0zm-33 -3l0 0c-4,-4 -7,-9 -8,-13l0 0c1,4 4,9 8,13zm-2 -1c-2,-1 -5,-2 -7,-4l0 0c2,2 5,3 7,4zm16 -4c0,0 0,0 0,0 0,0 0,0 0,0zm0 0c0,0 0,0 0,0 0,0 0,0 0,0zm0 0c0,0 0,-1 0,-1 0,0 0,1 0,1z"/>
  <path class="fil1" d="M71 92c-3,0 -6,-3 -6,-7 -1,-3 2,-6 6,-7 0,0 0,0 0,0 4,0 7,3 7,7 0,4 -3,7 -6,7 -1,0 -1,0 -1,0z"/>
  <path class="fil9" d="M78 83c0,4 -3,7 -6,7 -4,0 -7,-3 -7,-6 -1,-4 2,-7 6,-7 4,0 7,2 7,6z"/>
  <path class="fil6" d="M75 81c0,1 0,2 -1,2 -1,0 -2,-1 -2,-2 0,-1 1,-1 2,-1 0,0 1,0 1,1z"/>
  <path class="fil9" d="M80 78c-2,-3 -5,-5 -8,-5 -3,-1 -7,0 -10,4l0 0c0,0 0,0 -1,0 0,0 -1,0 -1,0 -1,-1 -2,-2 -2,-2l0 0 0 1c0,0 0,0 0,0 0,1 1,1 1,2 1,0 1,1 2,1 0,0 0,0 0,0 1,0 1,0 1,0 0,0 1,0 1,0 2,-3 5,-5 8,-5 3,1 6,2 7,5 0,0 1,0 1,0 1,0 1,-1 1,-1z"/>
  <path class="fil13" d="M114 92c-4,0 -7,-3 -7,-7 0,-3 3,-6 7,-7 0,0 0,0 0,0 4,0 7,3 7,7 0,4 -3,7 -7,7 0,0 0,0 0,0z"/>
  <path class="fil9" d="M121 83c0,4 -3,7 -7,7 -3,0 -7,-3 -7,-6 0,-4 3,-7 7,-7 4,0 7,2 7,6z"/>
  <path class="fil6" d="M118 81c0,1 -1,2 -2,2 0,0 -1,-1 -1,-2 0,-1 0,-1 1,-1 1,0 2,0 2,1z"/>
  <path class="fil9" d="M106 78c1,-3 4,-5 8,-5 2,-1 6,0 9,4l1 0c0,0 0,0 0,0 0,0 1,0 1,0 2,-1 2,-2 2,-2l1 0 0 1c0,0 0,0 -1,0 0,1 0,1 -1,2 0,0 -1,1 -1,1 -1,0 -1,0 -1,0 0,0 0,0 0,0 -1,0 -1,0 -1,0 -3,-3 -6,-5 -9,-5 -3,1 -6,2 -7,5 0,0 0,0 -1,0 0,0 0,-1 0,-1z"/>
 </g>
</svg>
