<?xml version="1.0" encoding="UTF-8"?>
<!DOCTYPE svg PUBLIC "-//W3C//DTD SVG 1.1//EN" "http://www.w3.org/Graphics/SVG/1.1/DTD/svg11.dtd">
<!-- Creator: CorelDRAW X8 -->
<svg xmlns="http://www.w3.org/2000/svg" xml:space="preserve" width="1.1527in" height="2.01504in" version="1.1" style="shape-rendering:geometricPrecision; text-rendering:geometricPrecision; image-rendering:optimizeQuality; fill-rule:evenodd; clip-rule:evenodd"
viewBox="0 0 305 533"
 xmlns:xlink="http://www.w3.org/1999/xlink">
 <defs>
  <style type="text/css">
   <![CDATA[
    .fil0 {fill:#00BABA;fill-rule:nonzero}
   ]]>
  </style>
 </defs>
 <g id="Layer_x0020_1">
  <metadata id="CorelCorpID_0Corel-Layer"/>
  <path class="fil0" d="M258 383c-2,22 -17,76 -30,28 -12,-47 -5,-99 -10,-147 -6,-52 -22,-100 -39,-149 2,5 88,163 79,268zm22 -155c-34,-90 -94,-161 -166,-224l-4 -4c-23,75 -54,146 -80,220 -29,81 -53,185 7,258 53,65 155,75 216,17 71,-68 58,-183 27,-267z"/>
 </g>
</svg>
