<?xml version="1.0" encoding="UTF-8"?>
<!DOCTYPE svg PUBLIC "-//W3C//DTD SVG 1.1//EN" "http://www.w3.org/Graphics/SVG/1.1/DTD/svg11.dtd">
<!-- Creator: CorelDRAW X8 -->
<svg xmlns="http://www.w3.org/2000/svg" xml:space="preserve" width="0.675031in" height="0.482449in" version="1.1" style="shape-rendering:geometricPrecision; text-rendering:geometricPrecision; image-rendering:optimizeQuality; fill-rule:evenodd; clip-rule:evenodd"
viewBox="0 0 80 57"
 xmlns:xlink="http://www.w3.org/1999/xlink">
 <defs>
  <style type="text/css">
   <![CDATA[
    .fil0 {fill:#74CBF2}
    .fil1 {fill:#727371}
   ]]>
  </style>
 </defs>
 <g id="Layer_x0020_1">
  <metadata id="CorelCorpID_0Corel-Layer"/>
  <path class="fil0" d="M2 27c13,7 26,10 39,10 10,0 20,-3 30,-7l0 0c2,-1 4,-2 6,-3 2,1 3,1 2,3 -1,1 -2,1 -3,1l0 15c0,1 -1,2 -2,2l-1 0c-2,0 -2,-1 -2,-2l0 -12c-3,1 -6,2 -10,3l0 16c0,1 0,2 -1,2l-2 0c-1,0 -2,-1 -2,-2l0 -14c-4,0 -9,1 -13,1l0 15c0,1 -1,2 -2,2l-2 0c-1,0 -2,-1 -2,-2l0 -15c-4,0 -8,-1 -12,-1l0 14c0,1 -1,2 -2,2l-2 0c-1,0 -1,-1 -1,-2l0 -16c-4,-1 -8,-2 -11,-3l0 12c0,1 -1,2 -2,2l-2 0c-1,0 -2,-1 -2,-2l0 -15c-1,0 -2,0 -2,-1 -2,-2 -1,-3 1,-3l0 0z"/>
  <path class="fil1" d="M16 2c3,-1 5,-1 8,-2 3,0 5,0 8,0 3,0 6,0 9,1 3,0 6,0 9,1 1,0 2,0 4,0 1,1 2,1 4,2 2,0 5,1 7,2 2,1 4,2 6,3 2,1 4,2 5,3 3,1 1,0 4,2 -17,24 -58,26 -77,2 -8,-6 9,-12 13,-14l0 0z"/>
 </g>
</svg>
