<?xml version="1.0" encoding="UTF-8"?>
<!DOCTYPE svg PUBLIC "-//W3C//DTD SVG 1.1//EN" "http://www.w3.org/Graphics/SVG/1.1/DTD/svg11.dtd">
<!-- Creator: CorelDRAW X8 -->
<svg xmlns="http://www.w3.org/2000/svg" xml:space="preserve" width="0.610094in" height="0.862339in" version="1.1" style="shape-rendering:geometricPrecision; text-rendering:geometricPrecision; image-rendering:optimizeQuality; fill-rule:evenodd; clip-rule:evenodd"
viewBox="0 0 98 138"
 xmlns:xlink="http://www.w3.org/1999/xlink">
 <defs>
  <style type="text/css">
   <![CDATA[
    .fil1 {fill:#74CBF2}
    .fil0 {fill:#777876}
   ]]>
  </style>
 </defs>
 <g id="Layer_x0020_1">
  <metadata id="CorelCorpID_0Corel-Layer"/>
  <path class="fil0" d="M97 25l0 0c3,-5 1,-11 -5,-14l-17 -10c-5,-3 -12,-1 -15,5l-21 38 36 20 22 -39z"/>
  <path class="fil1" d="M38 46l0 0c-1,0 -3,0 -3,1l-13 23c0,1 0,2 1,3l36 19c2,1 3,1 3,0l13 -23c0,-1 0,-3 -1,-3l-36 -20z"/>
  <path class="fil0" d="M1 113c-3,5 -1,12 5,15l17 9c5,3 12,1 14,-4l22 -39 -37 -20 -21 39z"/>
  <path class="fil1" d="M68 13l0 0c1,1 2,3 1,4 -1,2 -3,2 -4,1 -2,0 -3,0 -4,2 -1,1 -1,3 1,4 1,0 2,2 1,4 -1,1 -3,2 -4,0 -1,0 -2,-2 -1,-3 1,-2 2,-2 4,-1 1,0 3,0 4,-2 1,-1 0,-3 -1,-4 -2,0 -2,-2 -1,-4 1,-1 2,-2 4,-1l0 0z"/>
  <path class="fil1" d="M74 17l0 0c1,1 2,3 1,4 -1,1 -2,2 -4,1 -1,-1 -3,0 -4,1 -1,1 0,3 1,4 2,1 2,3 1,4 -1,2 -2,2 -4,1 -1,-1 -2,-2 -1,-4 1,-1 3,-2 4,-1 2,1 3,0 4,-1 1,-1 1,-3 -1,-4 -1,-1 -2,-3 -1,-4 1,-1 3,-2 4,-1l0 0z"/>
  <path class="fil1" d="M80 20l0 0c2,1 2,3 1,4 0,2 -2,2 -4,1 -1,0 -3,0 -3,2 -1,1 -1,3 1,4 1,0 2,2 1,4 -1,1 -3,2 -4,1 -2,-1 -2,-3 -1,-4 0,-2 2,-2 4,-1 1,0 3,0 4,-1 0,-2 0,-4 -2,-5 -1,0 -2,-2 -1,-4 1,-1 3,-1 4,-1l0 0z"/>
  <path class="fil1" d="M87 24l0 0c1,1 2,3 1,4 -1,2 -3,2 -4,1 -2,-1 -3,0 -4,1 -1,2 -1,3 1,4 1,1 2,3 1,4 -1,2 -3,2 -4,1 -1,0 -2,-2 -1,-3 1,-2 2,-3 4,-2 1,1 3,1 4,-1 1,-1 0,-3 -1,-4 -2,-1 -2,-2 -1,-4 1,-1 2,-2 4,-1l0 0z"/>
  <path class="fil1" d="M23 107l0 0c2,1 2,2 1,4 0,1 -2,2 -4,1 -1,-1 -1,-3 -1,-4 1,-2 3,-2 4,-1 2,1 4,0 4,-1 1,-2 1,-3 0,-4 -2,-1 -2,-3 -1,-4 0,-2 2,-2 4,-1 1,1 2,2 0,4 0,1 -2,2 -3,1 -2,-1 -4,-1 -4,1 -1,1 -1,3 0,4l0 0z"/>
  <path class="fil1" d="M30 111l0 0c1,0 2,2 1,4 -1,1 -3,1 -4,1 -2,-1 -2,-3 -1,-4 0,-2 2,-2 4,-1 1,0 3,0 4,-1 1,-2 0,-4 -1,-4 -2,-1 -2,-3 -1,-5 1,-1 3,-1 4,0 1,0 2,2 1,4 -1,1 -3,1 -4,1 -2,-1 -3,-1 -4,0 -1,2 -1,4 1,5l0 0z"/>
  <path class="fil1" d="M36 114l0 0c1,1 2,3 1,4 -1,2 -3,2 -4,1 -2,0 -2,-2 -1,-4 1,-1 3,-2 4,-1 1,1 3,1 4,-1 1,-1 0,-3 -1,-4 -1,0 -2,-2 -1,-4 1,-1 3,-2 4,-1 1,1 2,3 1,4 -1,2 -3,2 -4,1 -1,0 -3,0 -4,1 -1,2 0,3 1,4l0 0z"/>
  <path class="fil1" d="M23 93l0 0c2,1 2,3 1,4 -1,1 -2,2 -4,1 -1,-1 -3,0 -4,1 0,1 0,3 1,4 2,1 2,3 1,4 -1,1 -2,2 -4,1 -1,-1 -2,-3 -1,-4 1,-1 3,-2 4,-1 2,1 3,0 4,-1 1,-1 1,-3 -1,-4 -1,-1 -1,-3 -1,-4 1,-2 3,-2 4,-1l0 0z"/>
 </g>
</svg>
