<?xml version="1.0" encoding="UTF-8"?>
<!DOCTYPE svg PUBLIC "-//W3C//DTD SVG 1.1//EN" "http://www.w3.org/Graphics/SVG/1.1/DTD/svg11.dtd">
<!-- Creator: CorelDRAW X8 -->
<svg xmlns="http://www.w3.org/2000/svg" xml:space="preserve" width="0.63502in" height="0.861594in" version="1.1" style="shape-rendering:geometricPrecision; text-rendering:geometricPrecision; image-rendering:optimizeQuality; fill-rule:evenodd; clip-rule:evenodd"
viewBox="0 0 40 54"
 xmlns:xlink="http://www.w3.org/1999/xlink">
 <defs>
  <style type="text/css">
   <![CDATA[
    .fil0 {fill:#74CBF2}
    .fil1 {fill:#727371}
   ]]>
  </style>
 </defs>
 <g id="Layer_x0020_1">
  <metadata id="CorelCorpID_0Corel-Layer"/>
  <path class="fil0" d="M18 14l0 0 -14 15c0,0 -1,1 -2,3 0,0 0,0 0,1l-1 1c-5,10 7,6 10,2l15 -14 -8 -8z"/>
  <path class="fil1" d="M40 7l0 0c0,-2 -1,-4 -2,-5 -1,-1 -3,-2 -5,-2l0 0c-2,0 -3,1 -5,2l-2 3 -1 -1c0,0 -1,0 -2,0 -1,0 -2,0 -2,0l-3 3c0,1 -1,1 -1,2 0,1 0,1 0,1l13 12 0 0c0,1 0,1 1,1 1,0 1,-1 2,-1l3 -3c0,0 0,-1 0,-2 0,-1 0,-2 0,-2l-1 -1 3 -2c1,-2 2,-3 2,-5l0 0z"/>
  <path class="fil0" d="M8 50l-4 -8 -4 8c0,2 2,4 4,4 3,0 5,-2 4,-4l0 0z"/>
 </g>
</svg>
