<?xml version="1.0" encoding="UTF-8"?>
<!DOCTYPE svg PUBLIC "-//W3C//DTD SVG 1.1//EN" "http://www.w3.org/Graphics/SVG/1.1/DTD/svg11.dtd">
<!-- Creator: CorelDRAW X8 -->
<svg xmlns="http://www.w3.org/2000/svg" xml:space="preserve" width="0.821067in" height="0.862535in" version="1.1" style="shape-rendering:geometricPrecision; text-rendering:geometricPrecision; image-rendering:optimizeQuality; fill-rule:evenodd; clip-rule:evenodd"
viewBox="0 0 66 69"
 xmlns:xlink="http://www.w3.org/1999/xlink">
 <defs>
  <style type="text/css">
   <![CDATA[
    .fil1 {fill:#74CBF2}
    .fil0 {fill:#727371}
   ]]>
  </style>
 </defs>
 <g id="Layer_x0020_1">
  <metadata id="CorelCorpID_0Corel-Layer"/>
  <path class="fil0" d="M28 42l0 0 18 23c5,-5 6,-13 2,-19 -5,-6 -13,-7 -20,-4l0 0z"/>
  <path class="fil1" d="M34 31l0 0 13 10c3,2 6,3 8,2 3,0 6,-2 8,-4l0 -1c3,-3 3,-7 2,-10 -1,-2 -2,-4 -4,-5l-13 -11 -14 19z"/>
  <path class="fil0" d="M18 5l0 0 0 0c-2,3 -3,7 -2,11 1,2 2,4 4,5l12 9 14 -19 -12 -9c-5,-3 -12,-2 -16,3l0 0z"/>
  <path class="fil1" d="M1 47l0 0 26 -11c-4,-6 -12,-9 -18,-6 -7,3 -10,10 -8,17l0 0z"/>
  <path class="fil1" d="M43 67l0 0c-6,4 -14,2 -19,-4 -4,-5 -3,-14 2,-19l17 23z"/>
  <path class="fil0" d="M26 43l-1 1c-3,3 -5,8 -5,12 0,1 0,1 0,1 -7,3 -15,0 -18,-7l26 -11c0,1 0,2 0,2 0,0 0,0 0,1l-1 0 -1 1z"/>
 </g>
</svg>
