<?xml version="1.0" encoding="UTF-8"?>
<!DOCTYPE svg PUBLIC "-//W3C//DTD SVG 1.1//EN" "http://www.w3.org/Graphics/SVG/1.1/DTD/svg11.dtd">
<!-- Creator: CorelDRAW X8 -->
<svg xmlns="http://www.w3.org/2000/svg" xml:space="preserve" width="2.14612in" height="2.14611in" version="1.1" style="shape-rendering:geometricPrecision; text-rendering:geometricPrecision; image-rendering:optimizeQuality; fill-rule:evenodd; clip-rule:evenodd"
viewBox="0 0 2146 2146"
 xmlns:xlink="http://www.w3.org/1999/xlink">
 <defs>
  <style type="text/css">
   <![CDATA[
    .fil0 {fill:#292E33;fill-rule:nonzero}
   ]]>
  </style>
 </defs>
 <g id="Layer_x0020_1">
  <metadata id="CorelCorpID_0Corel-Layer"/>
  <path class="fil0" d="M1572 375c-40,40 -105,40 -145,0 -40,-40 -40,-105 0,-145 40,-40 105,-40 145,0 40,40 40,105 0,145zm-134 1063l-442 442c-201,201 -528,201 -729,0 -202,-202 -202,-529 -1,-730l442 -442 730 730zm-370 -1253l-883 883c-247,247 -247,646 0,893l0 0c247,247 646,247 893,0l883 -883c247,-247 247,-646 0,-893l0 0c-247,-247 -646,-247 -893,0z"/>
 </g>
</svg>
