<?xml version="1.0" encoding="UTF-8"?>
<!DOCTYPE svg PUBLIC "-//W3C//DTD SVG 1.1//EN" "http://www.w3.org/Graphics/SVG/1.1/DTD/svg11.dtd">
<!-- Creator: CorelDRAW X8 -->
<svg xmlns="http://www.w3.org/2000/svg" xml:space="preserve" width="0.493807in" height="0.680941in" version="1.1" style="shape-rendering:geometricPrecision; text-rendering:geometricPrecision; image-rendering:optimizeQuality; fill-rule:evenodd; clip-rule:evenodd"
viewBox="0 0 36 49"
 xmlns:xlink="http://www.w3.org/1999/xlink">
 <defs>
  <style type="text/css">
   <![CDATA[
    .fil1 {fill:#FEFEFE}
    .fil2 {fill:#74CBF2}
    .fil0 {fill:#777876}
   ]]>
  </style>
 </defs>
 <g id="Layer_x0020_1">
  <metadata id="CorelCorpID_0Corel-Layer"/>
  <path class="fil0" d="M36 24c0,-3 -1,-4 -3,-5l0 0c-1,-1 -3,-3 -4,-4 0,0 -1,0 -1,0l0 -6 2 0 0 -3c0,-9 -24,-7 -24,0l0 3 1 0 0 6c0,0 0,0 0,0 -1,1 -3,3 -5,4l0 0c-1,1 -2,2 -2,5 0,1 0,6 0,10 0,5 0,9 0,10 0,2 2,5 5,5l13 0c0,0 11,0 12,0 4,0 6,-2 6,-5l0 -9c0,-5 0,-10 0,-11l0 0z"/>
  <path class="fil1" d="M30 46c-1,0 -12,0 -12,0l-13 0c-1,0 -2,-1 -2,-2 0,-1 0,-5 0,-10 0,-4 0,-9 0,-10 0,-1 0,-1 2,-2l0 0c1,-2 3,-3 4,-4 1,-1 2,-2 2,-3l0 -6 14 0 0 6c0,1 1,2 2,3 1,1 2,2 4,4l0 0c1,1 1,1 1,2 0,1 0,6 0,11l0 9c0,1 0,2 -2,2l0 0z"/>
  <polygon class="fil2" points="8,43 29,43 29,28 8,28 "/>
 </g>
</svg>
