<?xml version="1.0" encoding="UTF-8"?>
<!DOCTYPE svg PUBLIC "-//W3C//DTD SVG 1.1//EN" "http://www.w3.org/Graphics/SVG/1.1/DTD/svg11.dtd">
<!-- Creator: CorelDRAW X8 -->
<svg xmlns="http://www.w3.org/2000/svg" xml:space="preserve" width="1.96861in" height="1.96861in" version="1.1" style="shape-rendering:geometricPrecision; text-rendering:geometricPrecision; image-rendering:optimizeQuality; fill-rule:evenodd; clip-rule:evenodd"
viewBox="0 0 6264 6264"
 xmlns:xlink="http://www.w3.org/1999/xlink">
 <defs>
  <style type="text/css">
   <![CDATA[
    .fil0 {fill:#FF6D00;fill-rule:nonzero}
    .fil1 {fill:white;fill-rule:nonzero}
   ]]>
  </style>
 </defs>
 <g id="objects">
  <metadata id="CorelCorpID_0Corel-Layer"/>
  <path class="fil0" d="M6264 3132c0,1730 -1402,3132 -3132,3132 -1730,0 -3132,-1402 -3132,-3132 0,-1730 1402,-3132 3132,-3132 1730,0 3132,1402 3132,3132z"/>
  <path class="fil1" d="M3391 5077l-1314 0c-134,0 -243,-109 -243,-243l0 -3025c0,-134 109,-243 243,-243l2110 0c134,0 243,109 243,243l0 2229c0,71 -28,137 -78,187l-774 774c-50,50 -116,78 -187,78zm-1314 -3399l0 0c-72,0 -131,59 -131,131l0 3025c0,72 59,131 131,131l1314 0c41,0 79,-16 108,-45l774 -774c29,-29 45,-67 45,-108l0 -2229c0,-72 -59,-131 -131,-131l-2110 0z"/>
  <path class="fil1" d="M3477 5021l897 -897 -757 0c-77,0 -140,63 -140,140l0 757z"/>
  <path class="fil1" d="M3477 5039c-2,0 -4,0 -7,-1 -7,-3 -11,-10 -11,-17l0 -757c0,-87 71,-158 158,-158l757 0c7,0 14,4 17,11 3,7 1,15 -4,21l-896 896c-4,4 -9,5 -14,5zm140 -896l0 0c-66,0 -121,54 -121,121l0 712 833 -833 -712 0z"/>
  <path class="fil1" d="M3991 3377l-1718 0c-31,0 -56,-25 -56,-56 0,-31 25,-56 56,-56l1718 0c31,0 56,25 56,56 0,31 -25,56 -56,56z"/>
  <path class="fil1" d="M3991 3023l-1718 0c-31,0 -56,-26 -56,-56 0,-31 25,-56 56,-56l1718 0c31,0 56,25 56,56 0,30 -25,56 -56,56z"/>
  <path class="fil1" d="M3991 2668l-1718 0c-31,0 -56,-25 -56,-56 0,-31 25,-56 56,-56l1718 0c31,0 56,25 56,56 0,31 -25,56 -56,56z"/>
  <path class="fil1" d="M3991 2313l-1718 0c-31,0 -56,-25 -56,-56 0,-31 25,-56 56,-56l1718 0c31,0 56,25 56,56 0,31 -25,56 -56,56z"/>
  <path class="fil1" d="M2689 4741c-41,0 -74,-34 -74,-75l0 -542c0,-41 33,-74 74,-74 42,0 75,33 75,74l0 542c0,41 -33,75 -75,75z"/>
  <path class="fil1" d="M2960 4470l-541 0c-42,0 -75,-34 -75,-75 0,-41 33,-75 75,-75l541 0c41,0 75,34 75,75 0,41 -34,75 -75,75z"/>
  <path class="fil1" d="M3501 1403l-164 0c0,-3 0,-7 0,-11 0,-113 -92,-205 -205,-205 -114,0 -206,92 -206,205 0,4 1,8 1,11l-164 0c-49,0 -89,40 -89,89l0 260c0,49 40,89 89,89l738 0c49,0 88,-40 88,-89l0 -260c0,-49 -39,-89 -88,-89zm-369 90l0 0c-56,0 -100,-45 -100,-101 0,-55 44,-100 100,-100 55,0 100,45 100,100 0,56 -45,101 -100,101z"/>
 </g>
</svg>
