<?xml version="1.0" encoding="UTF-8"?>
<!DOCTYPE svg PUBLIC "-//W3C//DTD SVG 1.1//EN" "http://www.w3.org/Graphics/SVG/1.1/DTD/svg11.dtd">
<!-- Creator: CorelDRAW X8 -->
<svg xmlns="http://www.w3.org/2000/svg" xml:space="preserve" width="2.13703in" height="2.13694in" version="1.1" style="shape-rendering:geometricPrecision; text-rendering:geometricPrecision; image-rendering:optimizeQuality; fill-rule:evenodd; clip-rule:evenodd"
viewBox="0 0 515 515"
 xmlns:xlink="http://www.w3.org/1999/xlink">
 <defs>
  <style type="text/css">
   <![CDATA[
    .fil3 {fill:#FEFEFE;fill-rule:nonzero}
    .fil2 {fill:#3BABAC;fill-rule:nonzero}
    .fil1 {fill:#5673B3;fill-rule:nonzero}
    .fil0 {fill:#3F4D6F;fill-rule:nonzero}
   ]]>
  </style>
 </defs>
 <g id="Layer_x0020_1">
  <metadata id="CorelCorpID_0Corel-Layer"/>
  <path class="fil0" d="M288 374c-12,12 -23,23 -31,33 -6,-7 -14,-16 -23,-25 -49,-51 -131,-135 -99,-188 14,-23 33,-35 56,-35 31,0 61,22 61,23l6 4 5 -4c0,-1 30,-23 62,-23 23,0 41,12 55,35 31,51 -43,128 -92,180zm211 -214c-10,-10 -24,-17 -39,-17 -25,0 -47,-9 -62,-25 -16,-16 -26,-38 -26,-62 0,-31 -25,-56 -56,-56l-117 0c-15,0 -29,6 -39,16 -10,10 -17,24 -17,40 0,48 -39,87 -87,87l0 0c-31,0 -56,25 -56,56l0 117c0,31 25,56 56,56l0 0c24,0 46,10 62,26 16,15 25,37 25,62 0,30 25,55 56,55l117 0c16,0 30,-6 40,-16 10,-10 16,-24 16,-39 0,-25 10,-47 26,-62 15,-16 37,-26 62,-26 30,0 55,-25 55,-56l0 -117c0,-15 -6,-29 -16,-39z"/>
  <path class="fil1" d="M191 145c-20,0 -47,8 -68,42 -17,28 -10,65 20,109 23,36 57,70 81,95l2 2c8,9 15,16 21,23l11 12 10 -12c8,-10 18,-20 30,-33 52,-54 130,-137 94,-196 -21,-34 -48,-42 -67,-42 -29,0 -56,16 -66,23l-1 1 -2 -1c-10,-7 -36,-23 -65,-23zm67 290l-14 -16c-6,-6 -14,-14 -22,-22l-1 -2c-25,-26 -59,-60 -82,-96 -31,-46 -38,-85 -20,-114 22,-37 51,-44 72,-44 29,0 55,15 67,22 11,-7 38,-22 67,-22 20,0 49,7 71,44 38,62 -42,146 -95,201 -12,13 -22,24 -29,33l-14 16zm-59 -416c-10,0 -19,3 -26,10 -7,7 -11,17 -11,27 0,58 -48,106 -106,106 -21,0 -37,17 -37,37l0 117c0,21 16,37 37,37 28,0 55,11 75,32 20,20 31,46 31,75 0,20 17,37 37,37l117 0c10,0 20,-4 27,-11 7,-7 10,-17 10,-26 0,-29 11,-55 32,-75 20,-21 46,-32 75,-32 20,0 37,-16 37,-37l0 -117c0,-10 -4,-19 -11,-26 -7,-7 -16,-11 -26,-11 -29,0 -55,-11 -75,-31 -21,-20 -32,-47 -32,-75 0,-21 -16,-37 -37,-37l-117 0zm117 483l-117 0c-23,0 -42,-19 -42,-42 0,-27 -10,-53 -30,-72 -19,-19 -44,-30 -71,-30 -23,0 -42,-19 -42,-42l0 -117c0,-23 19,-42 42,-42 56,0 101,-45 101,-101 0,-12 4,-22 12,-30 8,-8 19,-12 30,-12l117 0c23,0 42,19 42,42 0,27 11,52 30,71 19,19 45,30 72,30 11,0 21,4 29,12 8,8 13,19 13,30l0 117c0,23 -19,42 -42,42 -27,0 -53,11 -72,30 -19,19 -30,45 -30,72 0,11 -4,21 -12,29 -8,8 -19,13 -30,13z"/>
  <path class="fil1" d="M69 162c0,0 26,-3 52,-25 26,-22 38,-51 38,-51 0,0 -5,35 -33,57 -28,23 -57,19 -57,19z"/>
  <path class="fil1" d="M80 165c0,0 22,-4 46,-23 23,-18 34,-44 34,-44 0,0 -5,30 -30,50 -25,19 -50,17 -50,17z"/>
  <path class="fil1" d="M92 166c0,0 19,-3 38,-19 20,-15 28,-37 28,-37 0,0 -4,25 -24,42 -21,16 -42,14 -42,14z"/>
  <path class="fil1" d="M446 162c0,0 -26,-3 -52,-25 -26,-22 -38,-51 -38,-51 0,0 5,35 33,57 28,23 57,19 57,19z"/>
  <path class="fil1" d="M435 165c0,0 -22,-4 -46,-23 -23,-18 -34,-44 -34,-44 0,0 5,30 30,50 25,19 50,17 50,17z"/>
  <path class="fil1" d="M423 166c0,0 -19,-3 -38,-19 -20,-15 -28,-37 -28,-37 0,0 3,25 24,42 21,16 42,14 42,14z"/>
  <path class="fil1" d="M71 357c0,0 26,3 52,25 26,22 38,50 38,50 0,0 -5,-34 -33,-56 -28,-23 -57,-19 -57,-19z"/>
  <path class="fil1" d="M82 354c0,0 22,4 46,23 23,18 34,44 34,44 0,0 -5,-30 -30,-50 -25,-20 -50,-17 -50,-17z"/>
  <path class="fil1" d="M94 353c0,0 19,3 38,19 20,15 28,37 28,37 0,0 -4,-25 -24,-42 -21,-17 -42,-14 -42,-14z"/>
  <path class="fil1" d="M444 357c0,0 -27,3 -52,25 -26,22 -39,50 -39,50 0,0 5,-34 34,-56 28,-23 57,-19 57,-19z"/>
  <path class="fil1" d="M433 354c0,0 -23,4 -46,23 -24,18 -34,44 -34,44 0,0 5,-30 30,-50 25,-20 50,-17 50,-17z"/>
  <path class="fil1" d="M421 353c0,0 -19,3 -39,19 -19,15 -28,37 -28,37 0,0 4,-25 25,-42 21,-17 42,-14 42,-14z"/>
  <path class="fil2" d="M257 388c-4,-5 -9,-10 -14,-15 -43,-45 -124,-128 -97,-172 12,-20 26,-29 45,-29 27,0 53,20 53,20l14 10 13 -10c0,0 27,-20 54,-20 18,0 33,9 44,29 26,42 -47,118 -90,164 -8,8 -15,15 -22,23z"/>
  <path class="fil3" d="M313 257l0 25c0,5 -5,10 -11,10l-22 0 0 22c0,6 -4,11 -10,11l-25 0c-6,0 -11,-5 -11,-11l0 -22 -21 0c-6,0 -11,-5 -11,-10l0 -25c0,-6 5,-11 11,-11l21 0 0 -21c0,-6 5,-11 11,-11l25 0c6,0 10,5 10,11l0 21 22 0c6,0 11,5 11,11z"/>
 </g>
</svg>
