<?xml version="1.0" encoding="UTF-8"?>
<!DOCTYPE svg PUBLIC "-//W3C//DTD SVG 1.1//EN" "http://www.w3.org/Graphics/SVG/1.1/DTD/svg11.dtd">
<!-- Creator: CorelDRAW X8 -->
<svg xmlns="http://www.w3.org/2000/svg" xml:space="preserve" width="1.10585in" height="0.758071in" version="1.1" style="shape-rendering:geometricPrecision; text-rendering:geometricPrecision; image-rendering:optimizeQuality; fill-rule:evenodd; clip-rule:evenodd"
viewBox="0 0 169 116"
 xmlns:xlink="http://www.w3.org/1999/xlink">
 <defs>
  <style type="text/css">
   <![CDATA[
    .fil1 {fill:#74CBF2}
    .fil0 {fill:#777876}
   ]]>
  </style>
 </defs>
 <g id="Layer_x0020_1">
  <metadata id="CorelCorpID_0Corel-Layer"/>
  <path class="fil0" d="M145 51l0 0c0,0 0,0 0,1l1 1c-2,0 -3,1 -4,1l0 0 0 -2c0,0 0,-1 -1,-1l0 0c0,0 0,1 0,1l0 2c0,0 0,0 0,0 -2,0 -3,-1 -4,-1l0 0 1 -1c0,-1 0,-1 0,-1l0 0c0,0 -1,0 -1,0l-1 1 0 1c-1,-1 -1,-1 -2,-2l1 -1c0,0 0,-1 0,-1 0,0 -1,0 -1,0l-1 1c-1,-1 -1,-2 -2,-3l2 0c0,0 0,-1 0,-1 0,0 -1,0 -1,0l-1 0c-1,-1 -1,-2 -1,-3l2 0c0,0 0,0 0,0 0,-1 0,-1 0,-1l-2 0c0,-1 0,-2 1,-3l1 1c0,0 0,0 0,0 1,0 1,-1 1,-1 0,0 0,0 0,0l-2 -1c1,-1 1,-2 2,-2l1 1c0,0 0,0 0,0 1,0 1,0 1,0 0,-1 0,-1 0,-1l-1 -1c1,-1 2,-2 3,-2l0 1c0,0 0,1 1,1l0 0c0,-1 0,-1 0,-1l-1 -2c1,0 2,0 4,0l0 1c0,1 0,1 0,1 1,0 1,0 1,-1l0 -1c1,0 2,0 3,0l-1 2c0,0 0,0 1,1l0 0c0,0 0,-1 0,-1l1 -1c1,0 2,1 2,2l-1 1c0,0 0,0 0,1 0,0 1,0 1,0 0,0 0,0 0,0l1 -1c1,0 2,1 2,2l-1 1c-1,0 -1,0 -1,0 0,1 1,1 1,1l0 0 1 -1c1,1 1,2 1,3l-2 0c0,0 0,0 0,1 0,0 0,0 0,0l2 0c0,1 0,2 -1,3l-1 0c0,0 -1,0 -1,0 0,0 0,1 1,1l1 0c0,1 -1,2 -2,3l-1 -1c0,0 0,0 -1,0 0,0 0,1 0,1l1 1c0,1 -1,1 -2,1l0 -1c-1,0 -1,0 -1,0l0 0zm-4 -21c-7,0 -12,6 -12,13 0,6 4,10 9,12l0 9 -6 0 0 -4c0,-1 -1,-1 -1,-1 0,-1 -1,-1 -1,-1l-5 0c-1,0 -1,0 -1,1 -1,0 -1,0 -1,1l0 11c0,0 0,1 1,1 0,0 0,1 1,1l5 0c0,0 1,-1 1,-1 0,0 1,-1 1,-1l0 -3 6 0 0 10c0,0 0,0 0,0l0 2c-4,2 -8,9 -8,16 0,8 4,14 8,17l0 2c0,0 0,1 0,1 0,0 0,0 1,0l5 0c0,0 0,0 1,0 0,0 0,-1 0,-1l0 -3c4,-2 7,-8 7,-16 0,-7 -3,-13 -7,-15l0 -3c0,0 0,0 0,0l0 -6 4 0c1,0 1,-1 1,-2l0 -2 10 0c3,0 5,-1 6,-2l0 0c2,-2 3,-4 3,-7l0 -50c0,-3 -1,-5 -3,-6l0 0c-1,-2 -3,-3 -6,-3l-95 0c-2,0 -4,1 -6,3l0 0c-2,1 -3,3 -3,6l0 13 -37 0 0 70 82 0 0 -70 -40 0 0 -13c0,-1 0,-3 1,-3l0 0c1,-1 2,-2 3,-2l95 0c2,0 3,1 4,2l0 0c0,0 1,2 1,3l0 50c0,2 -1,3 -1,4l0 0c-1,1 -2,1 -4,1l-10 0 0 -2c0,-1 0,-1 -1,-1l-4 0 0 -6c5,-2 9,-7 9,-12 0,-7 -6,-13 -13,-13l0 0z"/>
  <polygon class="fil0" points="0,92 16,92 16,22 0,22 "/>
  <path class="fil1" d="M143 44l5 2 -5 -3c0,-1 0,-2 -1,-2 -1,0 -2,0 -3,1 0,1 0,2 1,3 1,0 2,0 3,-1l0 0z"/>
 </g>
</svg>
