<?xml version="1.0" encoding="UTF-8"?>
<!DOCTYPE svg PUBLIC "-//W3C//DTD SVG 1.1//EN" "http://www.w3.org/Graphics/SVG/1.1/DTD/svg11.dtd">
<!-- Creator: CorelDRAW X8 -->
<svg xmlns="http://www.w3.org/2000/svg" xml:space="preserve" width="0.827083in" height="0.662445in" version="1.1" style="shape-rendering:geometricPrecision; text-rendering:geometricPrecision; image-rendering:optimizeQuality; fill-rule:evenodd; clip-rule:evenodd"
viewBox="0 0 79 63"
 xmlns:xlink="http://www.w3.org/1999/xlink">
 <defs>
  <style type="text/css">
   <![CDATA[
    .fil1 {fill:#74CBF2}
    .fil0 {fill:#777876}
   ]]>
  </style>
 </defs>
 <g id="Layer_x0020_1">
  <metadata id="CorelCorpID_0Corel-Layer"/>
  <path class="fil0" d="M73 6c-2,-1 -4,-2 -6,-2 -3,0 -5,1 -6,2 -2,2 -3,4 -3,6 0,3 1,5 3,6 1,2 3,3 6,3 2,0 4,-1 6,-3 1,-1 2,-3 2,-6 0,-2 -1,-4 -2,-6l0 0zm-18 46l2 0c0,0 1,0 1,0 0,0 0,0 0,0 6,-4 11,-14 9,-28 -4,0 -7,-1 -9,-3 -2,-2 -3,-5 -3,-9 0,-3 1,-6 3,-8 3,-2 5,-4 9,-4 3,0 6,2 8,4 3,2 4,5 4,8 0,4 -1,7 -4,9 -1,2 -4,3 -6,3 2,16 -3,26 -10,31l-1 0 0 1c0,0 0,0 0,0 0,1 0,1 0,1l0 0 -1 0c-1,1 -2,3 -4,4 -3,1 -6,2 -9,2 -4,0 -7,-1 -9,-2 -3,-1 -4,-3 -4,-4l0 0c0,0 -1,0 -1,0l-1 0 0 -1c0,0 -1,0 0,0l0 0 -1 0c0,-1 0,-1 0,-1 -7,-4 -11,-11 -10,-21l-10 0c-5,0 -8,-4 -8,-8l0 -18c0,-5 3,-8 8,-8l30 0c4,0 8,3 8,8l0 18c0,4 -4,8 -8,8l-18 0c-1,8 3,15 9,19l0 0 0 0 0 0c0,-1 0,-1 0,-1 0,0 0,0 1,0l2 0 0 0 0 0c1,-1 2,-1 3,-2 2,-1 5,-2 9,-2 3,0 6,1 9,2 1,1 1,1 2,2l0 0z"/>
  <path class="fil1" d="M67 14l6 2 -5 -4c0,-1 0,-2 -1,-2 -1,-1 -2,-1 -3,0 -1,2 0,3 1,4 0,0 1,0 2,0l0 0z"/>
 </g>
</svg>
