<?xml version="1.0" encoding="UTF-8"?>
<!DOCTYPE svg PUBLIC "-//W3C//DTD SVG 1.1//EN" "http://www.w3.org/Graphics/SVG/1.1/DTD/svg11.dtd">
<!-- Creator: CorelDRAW X8 -->
<svg xmlns="http://www.w3.org/2000/svg" xml:space="preserve" width="0.862854in" height="0.825764in" version="1.1" style="shape-rendering:geometricPrecision; text-rendering:geometricPrecision; image-rendering:optimizeQuality; fill-rule:evenodd; clip-rule:evenodd"
viewBox="0 0 140 134"
 xmlns:xlink="http://www.w3.org/1999/xlink">
 <defs>
  <style type="text/css">
   <![CDATA[
    .fil0 {fill:#74CBF2}
    .fil1 {fill:#777876}
   ]]>
  </style>
 </defs>
 <g id="Layer_x0020_1">
  <metadata id="CorelCorpID_0Corel-Layer"/>
  <path class="fil0" d="M0 19l0 0c-1,6 1,9 4,9 3,1 6,-2 7,-7 1,-6 -3,-14 -3,-14 0,0 -7,6 -8,12l0 0z"/>
  <polygon class="fil1" points="106,134 106,134 103,131 110,125 94,108 114,92 130,109 137,104 140,107 "/>
  <polygon class="fil1" points="119,86 117,84 112,88 51,22 50,22 30,18 13,0 13,0 12,2 28,20 28,40 90,106 86,109 88,111 114,89 "/>
  <polygon class="fil0" points="59,35 59,35 50,42 52,44 61,36 64,40 59,44 61,46 66,42 69,45 64,49 66,51 71,47 74,50 65,58 66,59 75,52 79,55 74,59 75,61 80,57 84,60 78,65 80,66 85,62 89,66 80,74 81,75 91,68 93,71 88,75 90,76 95,72 98,76 93,80 95,81 100,78 110,89 92,104 31,39 30,20 49,24 "/>
 </g>
</svg>
