<?xml version="1.0" encoding="UTF-8"?>
<!DOCTYPE svg PUBLIC "-//W3C//DTD SVG 1.1//EN" "http://www.w3.org/Graphics/SVG/1.1/DTD/svg11.dtd">
<!-- Creator: CorelDRAW X8 -->
<svg xmlns="http://www.w3.org/2000/svg" xml:space="preserve" width="2.09451in" height="4.86875in" version="1.1" style="shape-rendering:geometricPrecision; text-rendering:geometricPrecision; image-rendering:optimizeQuality; fill-rule:evenodd; clip-rule:evenodd"
viewBox="0 0 1711 3976"
 xmlns:xlink="http://www.w3.org/1999/xlink">
 <defs>
  <style type="text/css">
   <![CDATA[
    .fil0 {fill:#FEFEFE;fill-rule:nonzero}
    .fil5 {fill:#E8E9EA;fill-rule:nonzero}
    .fil13 {fill:#F8E1D5;fill-rule:nonzero}
    .fil3 {fill:#F5CDBB;fill-rule:nonzero}
    .fil10 {fill:#F1B79E;fill-rule:nonzero}
    .fil4 {fill:#EEA789;fill-rule:nonzero}
    .fil12 {fill:#EC9576;fill-rule:nonzero}
    .fil2 {fill:#E8E7E8;fill-rule:nonzero}
    .fil14 {fill:#ABBFB5;fill-rule:nonzero}
    .fil7 {fill:#A9ACAF;fill-rule:nonzero}
    .fil1 {fill:#9FC4C6;fill-rule:nonzero}
    .fil11 {fill:#47352F;fill-rule:nonzero}
    .fil9 {fill:#483830;fill-rule:nonzero}
    .fil6 {fill:#6CC7BC;fill-rule:nonzero}
    .fil8 {fill:#4E4C57;fill-rule:nonzero}
   ]]>
  </style>
 </defs>
 <g id="Layer_x0020_1">
  <metadata id="CorelCorpID_0Corel-Layer"/>
  <polygon class="fil0" points="318,3858 601,3858 601,2561 318,2561 "/>
  <polygon class="fil1" points="318,2652 317,2652 317,2645 318,2645 "/>
  <polygon class="fil2" points="601,2772 318,2652 318,2645 601,2645 "/>
  <path class="fil2" d="M630 3909c0,90 -397,90 -397,0 0,-89 89,-127 198,-127 110,0 199,38 199,127z"/>
  <polygon class="fil0" points="685,3858 968,3858 968,2561 685,2561 "/>
  <path class="fil1" d="M969 2772l-1 0 0 -127 1 0 0 127zm-284 -120l-1 0 0 -7 1 0 0 7z"/>
  <polygon class="fil2" points="968,2772 685,2652 685,2645 968,2645 "/>
  <path class="fil2" d="M1059 3909c0,90 -397,90 -397,0 0,-89 89,-127 199,-127 109,0 198,38 198,127z"/>
  <polygon class="fil3" points="511,1401 772,1401 772,909 511,909 "/>
  <path class="fil4" d="M772 1042l-261 -91 0 -12c39,20 83,32 130,32l0 0c47,0 92,-12 131,-32l0 103z"/>
  <path class="fil0" d="M772 1024c0,0 11,188 -131,188 -141,0 -130,-188 -130,-188 -220,0 -408,207 -408,401l102 40 0 1085 872 0 0 -1085 103 -40c0,-194 -188,-401 -408,-401z"/>
  <path class="fil0" d="M806 1024l-165 566 -164 -566c-199,49 -312,228 -312,441l0 1180 953 0 0 -1180c0,-213 -114,-392 -312,-441z"/>
  <polygon class="fil1" points="1118,1741 1118,1684 1118,1684 "/>
  <polygon class="fil2" points="998,1795 920,1541 1118,1684 1118,1744 "/>
  <polygon class="fil1" points="165,1727 165,1684 165,1684 "/>
  <polygon class="fil2" points="284,1795 165,1744 165,1727 165,1684 363,1541 "/>
  <polygon class="fil5" points="837,1236 944,1176 806,1024 647,1567 636,1567 477,1024 339,1176 446,1236 386,1290 630,1572 630,2645 653,2645 653,1572 896,1290 "/>
  <polygon class="fil2" points="214,2239 551,2239 551,2204 214,2204 "/>
  <polygon class="fil0" points="214,2552 551,2552 551,2239 214,2239 "/>
  <polygon class="fil2" points="732,2239 1069,2239 1069,2204 732,2204 "/>
  <polygon class="fil0" points="732,2552 1069,2552 1069,2239 732,2239 "/>
  <path class="fil3" d="M381 2405c-10,0 -20,-5 -25,-14 -27,-46 -80,-70 -81,-70 -14,-7 -21,-23 -14,-38 6,-14 23,-21 37,-15 3,2 70,32 107,94 8,14 3,31 -10,39 -5,2 -9,4 -14,4z"/>
  <path class="fil3" d="M301 2559c-31,0 -61,-17 -76,-46 -367,-717 -99,-1085 -88,-1100 29,-37 82,-45 119,-16 38,28 45,81 17,118 -10,14 -210,308 104,920 21,42 4,93 -37,115 -13,6 -26,9 -39,9z"/>
  <polygon class="fil0" points="274,1746 0,1606 136,1281 439,1358 "/>
  <path class="fil3" d="M1699 1130c-23,-41 -75,-55 -116,-32l-221 142 -70 374 -84 -109 -135 103 200 260c16,21 41,33 67,33 7,0 14,-1 20,-2 33,-8 58,-34 64,-67l78 -483 166 -103c41,-23 55,-75 31,-116z"/>
  <polygon class="fil0" points="1448,838 1637,838 1637,750 1448,750 "/>
  <path class="fil0" d="M1627 1179l-170 0c-31,0 -57,-25 -57,-57l0 -228c0,-31 26,-56 57,-56l170 0c31,0 57,25 57,56l0 228c0,32 -26,57 -57,57z"/>
  <polygon class="fil2" points="1472,836 1483,836 1483,750 1472,750 "/>
  <polygon class="fil2" points="1504,836 1515,836 1515,750 1504,750 "/>
  <polygon class="fil2" points="1536,836 1548,836 1548,750 1536,750 "/>
  <polygon class="fil2" points="1569,836 1580,836 1580,750 1569,750 "/>
  <polygon class="fil2" points="1601,836 1612,836 1612,750 1601,750 "/>
  <polygon class="fil6" points="1623,962 1577,962 1577,916 1507,916 1507,962 1461,962 1461,1032 1507,1032 1507,1078 1577,1078 1577,1032 1623,1032 "/>
  <polygon class="fil4" points="1292,1744 1259,1571 1292,1614 "/>
  <path class="fil3" d="M1392 1266c-5,0 -10,-1 -15,-4 -13,-8 -17,-26 -9,-39 1,-3 36,-59 71,-103 10,-12 28,-14 40,-4 12,10 14,28 4,40 -33,41 -66,96 -67,96 -5,9 -14,14 -24,14z"/>
  <polygon class="fil0" points="1008,1746 1282,1606 1147,1281 844,1358 "/>
  <path class="fil7" d="M897 1317c0,-10 -11,-235 -125,-293l0 26c92,61 102,266 103,268l0 12 23 -1 -1 -12z"/>
  <path class="fil7" d="M511 1048l0 -27c-187,95 -109,583 -105,604l2 11 22 -3 -2 -11c0,-5 -76,-473 83,-574z"/>
  <path class="fil7" d="M796 1434c2,-31 14,-105 90,-105 76,0 88,74 89,105 5,75 -30,161 -89,207 -59,-46 -94,-132 -90,-207zm168 239c-21,-3 -41,-9 -59,-19 62,-52 97,-142 93,-221 -4,-78 -47,-126 -112,-126 -65,0 -108,48 -112,126 -5,79 31,169 92,221 -17,10 -37,16 -58,19 -6,0 -11,6 -10,12 1,6 6,10 11,10l1 0c28,-3 53,-12 76,-27 22,15 48,24 75,27l2 0c5,0 10,-4 11,-10 1,-6 -4,-12 -10,-12z"/>
  <path class="fil8" d="M792 1702c-7,0 -14,0 -20,-1 -10,-1 -17,-9 -16,-19 1,-9 10,-16 19,-15 11,1 22,1 32,0 10,-1 18,6 19,15 1,9 -6,18 -15,19 -6,1 -13,1 -19,1z"/>
  <path class="fil8" d="M980 1702c-6,0 -13,0 -19,-1 -10,-1 -16,-10 -15,-19 1,-9 9,-16 18,-15 11,1 22,1 33,0 9,-1 17,6 18,15 1,10 -5,18 -15,19 -6,1 -13,1 -20,1z"/>
  <path class="fil2" d="M485 1627c0,37 -30,68 -68,68 -37,0 -68,-31 -68,-68 0,-38 31,-68 68,-68 38,0 68,30 68,68z"/>
  <path class="fil7" d="M417 1536c-50,0 -91,41 -91,91 0,50 41,90 91,90 50,0 91,-40 91,-90 0,-50 -41,-91 -91,-91zm0 23c38,0 68,30 68,68 0,37 -30,68 -68,68 -37,0 -68,-31 -68,-68 0,-38 31,-68 68,-68z"/>
  <path class="fil7" d="M466 1627c0,26 -22,48 -49,48 -27,0 -48,-22 -48,-48 0,-27 21,-49 48,-49 27,0 49,22 49,49z"/>
  <path class="fil3" d="M641 109c-156,0 -283,127 -283,283l0 295c0,157 127,284 283,284 157,0 284,-127 284,-284l0 -295c0,-156 -127,-283 -284,-283z"/>
  <path class="fil9" d="M949 183c0,0 -69,-183 -308,-183 -238,0 -307,183 -307,183 -54,125 -39,298 24,459 1,3 2,6 4,8 -3,-12 -5,-25 -6,-39 1,-51 0,-148 7,-142 48,-64 59,-175 59,-175 0,0 101,21 219,26 119,-5 219,-26 219,-26 0,0 12,111 60,175 6,-6 6,91 6,142 -1,14 -3,27 -5,39 1,-2 2,-5 3,-8 63,-161 78,-334 25,-459z"/>
  <path class="fil4" d="M511 590c-24,0 -44,-19 -45,-43 -1,-24 18,-45 43,-46 1,0 1,0 2,0 24,0 44,19 45,43 0,25 -19,46 -44,46 0,0 -1,0 -1,0z"/>
  <path class="fil9" d="M556 533c0,25 -19,45 -44,46 -24,1 -45,-18 -46,-43 -1,-25 18,-46 43,-46 25,-1 46,18 47,43z"/>
  <path class="fil0" d="M537 520c0,6 -4,11 -11,12 -6,0 -11,-5 -11,-11 0,-6 4,-12 11,-12 6,0 11,5 11,11z"/>
  <path class="fil9" d="M816 533c1,25 -18,45 -43,46 -24,1 -45,-18 -46,-43 -1,-25 18,-46 43,-46 25,-1 46,18 46,43z"/>
  <path class="fil0" d="M798 520c0,6 -5,11 -11,12 -6,0 -11,-5 -11,-11 -1,-6 4,-12 10,-12 7,0 12,5 12,11z"/>
  <path class="fil3" d="M358 510c-32,0 -57,26 -57,57l0 59c0,31 25,57 57,57 31,0 56,-26 56,-57l0 -59c0,-31 -25,-57 -56,-57z"/>
  <path class="fil3" d="M925 510c-32,0 -57,26 -57,57l0 59c0,31 25,57 57,57 31,0 57,-26 57,-57l0 -59c0,-31 -26,-57 -57,-57z"/>
  <path class="fil10" d="M641 971l0 -244 -68 0c0,0 27,-128 68,-216l0 -191c119,-5 219,-26 219,-26 0,0 0,0 0,0 1,3 13,112 60,175l0 0c0,0 0,0 0,0l0 0c0,0 0,0 0,0 0,0 0,0 0,0 3,0 4,14 5,34l0 7c-32,0 -57,26 -57,57l0 59c0,31 25,57 57,57l0 4c0,157 -127,284 -284,284zm86 -431c0,2 0,5 0,7 1,24 21,43 45,43 0,0 1,0 1,0 25,0 44,-21 43,-46 0,-1 0,-3 0,-4 0,-2 1,-5 0,-7 0,-24 -20,-43 -44,-43 -1,0 -1,0 -2,0 -25,0 -44,21 -43,46 0,1 0,3 0,4z"/>
  <path class="fil11" d="M920 469c0,0 0,0 0,0 0,0 0,0 0,0zm0 0c-47,-63 -59,-172 -60,-175 1,3 13,112 60,175zm0 0c0,0 0,0 0,0 0,0 0,0 0,0z"/>
  <path class="fil12" d="M772 590c-24,0 -44,-19 -45,-43 0,-2 0,-5 0,-7 3,22 22,39 45,39 0,0 1,0 1,0 23,-1 40,-18 43,-39 0,1 0,3 0,4 1,25 -18,46 -43,46 0,0 -1,0 -1,0z"/>
  <path class="fil11" d="M772 579c-23,0 -42,-17 -45,-39 0,-1 0,-3 0,-4 -1,-25 18,-46 43,-46 1,0 1,0 2,0 24,0 44,19 44,43 1,2 0,5 0,7 -3,21 -20,38 -43,39 0,0 -1,0 -1,0zm15 -70c0,0 0,0 -1,0 -6,0 -11,6 -10,12 0,6 5,11 11,11 0,0 0,0 0,0 6,-1 11,-6 11,-12 0,-6 -5,-11 -11,-11z"/>
  <path class="fil13" d="M787 532c-6,0 -11,-5 -11,-11 -1,-6 4,-12 10,-12 1,0 1,0 1,0 6,0 11,5 11,11 0,6 -5,11 -11,12 0,0 0,0 0,0z"/>
  <path class="fil14" d="M982 567c0,0 0,0 0,0 0,0 0,0 0,0zm0 -1l0 0 0 0z"/>
  <path class="fil10" d="M925 683l0 0c-32,0 -57,-26 -57,-57l0 -59c0,-31 25,-57 57,-57l0 0 0 0c14,0 27,6 36,14 12,10 20,25 21,42l0 0c0,0 0,0 0,1 0,0 0,0 0,0 0,0 0,0 0,0l0 59c0,31 -26,57 -57,57z"/>
  <path class="fil8" d="M851 573l0 2c0,19 -15,34 -34,34l-91 0c-18,0 -34,-15 -34,-34l-11 -69c0,-18 16,-33 34,-33l113 0c19,0 34,15 34,33l0 6c-1,1 -1,3 -1,5l-10 56zm-261 0l0 2c0,19 -15,34 -34,34l-91 0c-18,0 -34,-15 -34,-34l-9 -58c0,-2 0,-4 -1,-5l-1 -6c1,-18 16,-33 34,-33l114 0c18,0 33,15 34,33l-12 67zm333 -78l-38 7c-3,-29 -27,-51 -57,-51l-113 0c-30,0 -55,24 -56,54l-35 0c-1,-30 -26,-54 -56,-54l-114 0c-29,0 -53,22 -56,51l-38 -7c-6,-1 -12,3 -13,9 -2,6 2,12 9,13l44 9 9 50c0,31 26,56 56,56l91 0c31,0 56,-25 57,-56l8 -49 41 0 8 49c0,31 25,56 56,56l91 0c31,0 56,-25 57,-56l8 -51 45 -8c6,-1 10,-7 9,-13 -1,-6 -7,-10 -13,-9z"/>
 </g>
</svg>
