<?xml version="1.0" encoding="UTF-8"?>
<!DOCTYPE svg PUBLIC "-//W3C//DTD SVG 1.1//EN" "http://www.w3.org/Graphics/SVG/1.1/DTD/svg11.dtd">
<!-- Creator: CorelDRAW X8 -->
<svg xmlns="http://www.w3.org/2000/svg" xml:space="preserve" width="0.373012in" height="0.862945in" version="1.1" style="shape-rendering:geometricPrecision; text-rendering:geometricPrecision; image-rendering:optimizeQuality; fill-rule:evenodd; clip-rule:evenodd"
viewBox="0 0 52 120"
 xmlns:xlink="http://www.w3.org/1999/xlink">
 <defs>
  <style type="text/css">
   <![CDATA[
    .fil1 {fill:#74CBF2;fill-rule:nonzero}
    .fil0 {fill:#727371;fill-rule:nonzero}
   ]]>
  </style>
 </defs>
 <g id="Layer_x0020_1">
  <metadata id="CorelCorpID_0Corel-Layer"/>
  <path class="fil0" d="M39 71l0 0c8,5 13,13 13,23 0,14 -12,26 -26,26 -14,0 -26,-12 -26,-26 0,-9 4,-17 11,-22l0 -58c0,-8 6,-14 14,-14 8,0 14,6 14,14l0 57z"/>
  <path class="fil1" d="M26 112l0 0c10,0 19,-8 19,-18 0,-9 -6,-16 -14,-18l0 -15 -1 0 0 -3 1 0 0 -8 -1 0 0 -3 1 0 0 -7 -1 0 0 -3 1 0 0 -23c0,-4 -2,-7 -6,-7 -3,0 -6,3 -6,7l0 62c-7,3 -12,10 -12,18 0,10 8,18 19,18l0 0z"/>
  <path class="fil0" d="M30 81c5,2 9,7 9,12 0,8 -6,13 -13,13 -7,0 -13,-5 -13,-13 0,-5 3,-9 8,-11l1 -1 0 -41c0,-1 2,-2 3,-2 2,0 3,1 3,2l0 41 2 0z"/>
 </g>
</svg>
