<?xml version="1.0" encoding="UTF-8"?>
<!DOCTYPE svg PUBLIC "-//W3C//DTD SVG 1.1//EN" "http://www.w3.org/Graphics/SVG/1.1/DTD/svg11.dtd">
<!-- Creator: CorelDRAW X8 -->
<svg xmlns="http://www.w3.org/2000/svg" xml:space="preserve" width="0.377043in" height="0.86161in" version="1.1" style="shape-rendering:geometricPrecision; text-rendering:geometricPrecision; image-rendering:optimizeQuality; fill-rule:evenodd; clip-rule:evenodd"
viewBox="0 0 21 49"
 xmlns:xlink="http://www.w3.org/1999/xlink">
 <defs>
  <style type="text/css">
   <![CDATA[
    .fil1 {fill:#74CBF2}
    .fil0 {fill:#777876}
   ]]>
  </style>
 </defs>
 <g id="Layer_x0020_1">
  <metadata id="CorelCorpID_0Corel-Layer"/>
  <path class="fil0" d="M10 20l1 0c1,0 1,1 1,1 0,1 0,2 -1,2l-1 0c0,-1 0,-2 0,-3l0 0z"/>
  <path class="fil1" d="M2 23l1 -12c0,0 1,0 3,0l3 9c0,1 1,2 1,3 0,0 0,0 -1,0l-7 0z"/>
  <path class="fil0" d="M5 26c0,7 0,13 0,20 -1,3 5,3 5,0 1,-6 1,-7 1,-13 0,0 0,0 1,0 0,6 0,7 0,13 0,3 6,3 6,0 -1,-7 -1,-13 -1,-20l0 -12 1 0 0 11c0,1 1,2 2,2 0,0 1,-1 1,-2l0 -10c0,-5 -6,-5 -6,-5l-8 0 2 9 2 0c1,0 2,1 2,2 0,2 -1,2 -2,2l-6 0 0 3z"/>
  <path class="fil0" d="M11 0c3,0 5,2 5,5 0,2 -2,4 -5,4 -3,0 -5,-2 -5,-4 0,-3 2,-5 5,-5l0 0z"/>
  <path class="fil0" d="M2 23l-1 0c0,0 0,0 -1,0 0,-1 0,-1 0,-2l0 -7c0,0 0,-1 2,-2l0 11z"/>
 </g>
</svg>
