<?xml version="1.0" encoding="UTF-8"?>
<!DOCTYPE svg PUBLIC "-//W3C//DTD SVG 1.1//EN" "http://www.w3.org/Graphics/SVG/1.1/DTD/svg11.dtd">
<!-- Creator: CorelDRAW X8 -->
<svg xmlns="http://www.w3.org/2000/svg" xml:space="preserve" width="1.11301in" height="0.791996in" version="1.1" style="shape-rendering:geometricPrecision; text-rendering:geometricPrecision; image-rendering:optimizeQuality; fill-rule:evenodd; clip-rule:evenodd"
viewBox="0 0 1053 749"
 xmlns:xlink="http://www.w3.org/1999/xlink">
 <defs>
  <style type="text/css">
   <![CDATA[
    .fil1 {fill:#FEFEFE}
    .fil0 {fill:#74CBF2}
   ]]>
  </style>
 </defs>
 <g id="Layer_x0020_1">
  <metadata id="CorelCorpID_0Corel-Layer"/>
  <path class="fil0" d="M967 507c21,14 41,34 56,59 35,56 37,107 19,139 -7,14 -18,25 -30,33 -13,8 -26,11 -43,11 -38,2 -83,-22 -117,-79 -16,-25 -25,-53 -27,-78l0 -1c-3,-24 2,-46 12,-64l-6 -10c-1,-1 -3,-4 -3,-6l0 0c0,-3 0,-5 0,-8l0 0c2,-2 3,-4 4,-6l0 0c1,-1 3,-4 5,-5l0 0 4 -1 -82 -139c-12,-22 -34,-36 -57,-42 -24,-7 -49,-4 -72,10 -23,14 -38,34 -43,58 -6,23 -3,49 10,71 8,13 15,25 23,39 7,13 14,25 23,38l0 1c18,31 22,68 13,102 -7,32 -29,63 -61,81l0 2c-33,18 -69,22 -102,13 -34,-8 -64,-30 -83,-61l0 0 -79 -147c-118,31 -246,-23 -303,-136 -65,-129 -14,-287 116,-353 129,-65 288,-13 353,116 65,129 14,288 -116,353 -4,2 -7,4 -11,5 23,28 48,83 63,118l0 0c5,10 7,18 10,23 14,22 35,37 59,44 24,5 50,2 73,-11 22,-13 37,-35 42,-57 7,-24 4,-49 -10,-72 -7,-12 -15,-25 -22,-39 -8,-12 -14,-25 -23,-39l0 0c-19,-31 -22,-68 -14,-102 8,-33 29,-64 62,-82l0 0c33,-19 69,-23 102,-14 34,7 64,29 83,61l0 0 80 137c2,-1 4,-1 5,-1l0 0c2,-1 5,-1 6,0l0 0c3,0 5,1 7,2l0 0c2,2 3,3 5,6l1 0 6 11c20,0 42,7 62,20l0 0z"/>
  <path class="fil1" d="M121 351l-2 -5 -13 6 -2 -5 3 -23 5 -3 9 18 4 -2 3 4 -4 3 2 5 -5 2zm132 -102l-87 -32 72 59c-1,12 5,24 16,30 15,10 36,4 46,-13 8,-15 3,-36 -12,-45 -11,-6 -24,-6 -35,1l0 0zm158 134l0 0c-2,5 -1,10 4,12l28 16c-18,21 -38,39 -62,53 -1,-1 -1,-1 -1,-2l-15 -30c-4,-7 -11,-9 -18,-7l0 0c-6,4 -10,12 -6,18l15 30c0,1 1,3 1,3 -23,11 -49,17 -75,20l0 -2 5 -35c0,-5 -4,-10 -9,-10l0 0c-5,0 -10,4 -11,10l-4 34c0,1 0,3 0,4 -20,0 -40,-3 -59,-8l10 -32c3,-8 -1,-15 -9,-18 -8,-2 -16,1 -18,9l-10 31c-22,-7 -42,-20 -59,-34l21 -25c4,-4 4,-10 -1,-14 -4,-3 -10,-2 -14,2l-22 25c-16,-15 -30,-33 -41,-52l30 -15c6,-4 10,-12 6,-20 -3,-7 -12,-10 -20,-6l-29 15c-10,-21 -15,-44 -17,-67l32 -1c2,-1 3,-1 4,-1 4,-3 7,-5 5,-10 0,-5 -5,-9 -10,-9l-32 3c-2,-23 1,-44 7,-66l32 10c3,1 7,1 10,-1 3,-1 6,-4 7,-9 3,-7 -1,-15 -9,-17l-31 -10c7,-22 20,-42 34,-59l25 21c4,2 7,2 11,1 0,0 2,-1 3,-2 4,-4 2,-10 -1,-14l-26 -22c15,-16 33,-30 52,-41l15 30c4,6 12,10 20,6 8,-3 10,-12 6,-20l-15 -29c22,-10 44,-15 67,-17l1 33c1,5 5,10 11,8 2,0 3,0 4,-1 3,-1 5,-5 5,-9l-2 -34c22,0 44,3 65,8l-10 33c-3,7 1,15 10,17 4,1 8,1 10,-1 4,-1 6,-4 8,-8l10 -31c21,7 41,19 59,34l-22 25c-3,4 -2,10 2,14 2,2 7,2 10,1 1,0 2,-1 3,-2l22 -26c16,15 30,33 41,52l-30 15c-6,4 -10,13 -6,20 4,8 12,10 20,6l30 -15c9,22 14,44 16,66l-32 2c-5,1 -10,5 -9,11 0,5 5,9 10,9l34 -2c0,22 -3,44 -8,65l-31 -10c-9,-3 -16,1 -19,10 -2,8 1,15 9,18l31 10c-6,16 -14,32 -24,46l-29 -16c-5,-3 -11,-1 -15,4l0 0zm-194 17c2,-1 5,-1 7,0 4,1 7,4 9,10 3,5 4,9 3,13 0,2 -2,5 -4,6 -4,1 -6,1 -9,0 -3,-1 -5,-5 -9,-10 -2,-5 -4,-10 -2,-13 0,-2 2,-5 5,-6l0 0zm2 4c-1,1 -1,1 -1,2 -1,0 -1,2 0,3 0,1 1,4 2,7 2,3 3,5 4,7 2,1 3,1 3,1 1,1 1,0 2,0 0,0 2,0 2,-1 0,-2 0,-2 0,-3 0,-2 -2,-4 -4,-7 -1,-4 -3,-7 -4,-7 0,-1 -1,-2 -3,-2l-1 0 0 0zm196 -104c3,-2 5,-2 8,-2 3,3 6,5 9,12 2,5 3,8 3,12 -1,3 -2,5 -5,7 -2,1 -6,1 -9,0 -2,-2 -5,-5 -7,-11 -3,-5 -4,-10 -4,-12 1,-4 3,-5 5,-6l0 0zm3 3c-2,2 -2,2 -2,2 0,1 0,2 0,3 0,2 2,4 3,8 2,2 4,5 4,6 1,2 2,2 2,2 1,0 1,0 3,0l1 -2c0,-1 0,-1 0,-2 0,-3 -1,-5 -3,-8 -2,-4 -3,-6 -3,-6 -2,-1 -3,-3 -3,-3 -1,0 -2,0 -2,0l0 0zm-9 36l-3 -7 -11 7 -2 -5 2 -24 5 -3 9 18 4 -1 2 3 -4 3 3 5 -5 4zm-5 -12l-5 -9 -1 13 6 -4zm-11 13l2 5 -19 10c-1,-3 -1,-4 -1,-6 0,-3 1,-7 2,-10 2,-4 3,-7 3,-7 0,-2 0,-3 0,-5 -1,-1 -3,-1 -3,-1 -1,-1 -2,-1 -3,0 -2,0 -2,1 -3,3 0,1 0,2 1,3l-6 3c-1,-4 -1,-6 0,-9 1,-1 3,-4 5,-5 4,-1 6,-1 9,-1 1,1 4,2 5,5 0,1 1,2 1,4 0,1 0,2 -1,5 0,1 0,2 -1,5 -1,2 -1,3 -1,5 -2,1 -2,1 -2,2l12 -6zm15 -168c2,-2 5,-2 7,-2 3,3 6,5 9,12 2,5 4,8 2,12 0,3 -1,5 -5,6 -2,2 -5,2 -7,0 -3,-1 -6,-5 -9,-10 -2,-5 -4,-10 -2,-12 0,-4 2,-5 5,-6l0 0zm2 3c-1,2 -1,2 -2,3 0,0 0,1 0,2 1,2 1,4 3,8 2,2 3,5 4,6 1,1 1,1 3,1 1,0 1,0 2,0 0,0 0,-1 1,-1 0,-1 0,-1 0,-2 -1,-3 -1,-4 -3,-8 -2,-4 -3,-6 -4,-6 -1,-1 -1,-3 -3,-3l-1 0 0 0zm-25 8c3,-3 6,-3 9,-1 2,1 5,5 7,10 4,6 4,10 4,13 -1,3 -2,4 -5,7 -2,1 -5,1 -9,0 -2,-2 -5,-5 -7,-10 -3,-7 -4,-10 -4,-14 1,-3 3,-4 5,-5l0 0zm3 4l-2 1c0,1 0,2 0,4 0,1 2,3 3,6 2,4 4,6 5,7 0,2 1,2 2,2l2 0c1,0 1,-2 1,-2 0,-1 0,-1 0,-2 0,-3 -1,-5 -3,-8 -1,-3 -3,-6 -3,-7 -2,0 -3,-1 -3,-1 -1,0 -1,0 -2,0l0 0zm-3 25l3 5 -21 10c0,-3 0,-4 0,-6 0,-3 2,-6 3,-11 1,-3 1,-6 2,-6 0,-2 0,-4 -1,-5 0,0 -1,-1 -2,-1 -2,-1 -2,-1 -3,0 -1,0 -2,1 -2,2 0,2 0,3 0,4l-5 3c-2,-4 -2,-7 0,-9 1,-1 2,-4 5,-5 2,-1 5,-1 7,-1 3,1 4,2 5,5 1,1 1,2 1,3 0,2 0,4 0,5 0,2 -1,3 -1,5 -1,3 -2,4 -2,5 0,2 0,2 0,3l11 -6zm-78 -122c3,-1 5,-1 8,0 2,1 6,5 9,10 2,5 3,10 2,13 0,2 -2,5 -5,6 -3,1 -5,1 -8,0 -2,-1 -6,-4 -8,-10 -3,-5 -4,-9 -3,-13 0,-2 3,-5 5,-6l0 0zm3 5c-2,0 -2,0 -3,1 0,0 0,1 0,3 1,1 1,3 4,7 1,4 2,5 4,7 1,1 1,2 2,2 0,0 1,0 3,-1 0,0 0,0 1,-1 0,0 0,-2 0,-3 -1,-1 -1,-4 -4,-8 -1,-2 -2,-5 -4,-6 -1,-1 -1,-1 -2,-2 0,0 -1,0 -1,1l0 0zm-13 9l-5 2 -1 -1c-1,0 -3,0 -3,0 -1,1 -2,1 -2,4 0,1 0,4 1,6 1,-2 3,-4 4,-5 2,-1 5,-1 7,0 3,1 5,3 7,5 1,4 1,6 0,9 0,2 -3,5 -5,6 -3,1 -5,1 -9,0 -3,-1 -5,-5 -8,-10 -2,-5 -3,-9 -2,-13 0,-2 2,-5 5,-7 2,0 5,-1 6,0 3,0 4,1 5,4l0 0zm-6 17c1,3 2,3 4,4 1,0 2,0 3,0 2,0 2,-1 2,-2 1,-2 0,-3 0,-4 -2,-3 -3,-4 -4,-4 -1,-1 -3,-1 -4,0 0,0 -1,1 -1,3 0,1 0,2 0,3l0 0zm-9 17l-5 3 -11 -21c0,4 -3,6 -4,8l-3 -5c0,0 2,-3 3,-4 1,-3 1,-5 1,-6l5 -3 14 28zm-80 -47c3,-1 6,-1 8,-1 3,2 5,5 9,10 3,6 4,10 3,14 0,2 -3,5 -5,6 -3,1 -5,1 -8,0 -4,-1 -6,-5 -9,-10 -2,-5 -3,-10 -2,-13 0,-3 1,-5 4,-6l0 0zm2 4c0,1 -1,1 -1,1 0,1 0,3 0,4 0,1 1,4 4,7 1,3 2,6 3,7 0,1 2,1 3,1l1 0c1,0 1,-1 1,-1 2,-1 2,-1 0,-3 0,-2 -1,-5 -2,-7 -1,-4 -3,-7 -4,-7 -1,-1 -2,-2 -2,-2 -2,0 -2,0 -3,0l0 0zm-2 25l2 5 -19 10c-1,-2 -1,-4 -1,-6 0,-3 1,-5 3,-10 1,-4 2,-5 2,-6 0,-3 0,-4 -1,-4 0,-2 -1,-3 -3,-3 0,0 -1,0 -2,0 -1,1 -3,1 -3,3 0,1 0,2 2,4l-7 2c-1,-4 -1,-6 0,-8 2,-2 3,-5 5,-6 3,-1 5,-1 8,0 2,0 5,1 5,4 1,1 1,2 1,4 0,1 0,4 0,5 0,1 -1,2 -1,5 -1,2 -1,5 -3,5 0,1 0,1 0,2l12 -6zm-24 19l-7 2 -10 -20c-1,3 -2,5 -5,8l-2 -5c1,-1 2,-3 4,-5 1,-3 1,-4 1,-6l4 -3 15 29zm-57 45c3,-1 5,-1 8,0 4,1 6,4 9,10 2,5 3,9 2,13 0,2 -1,5 -4,6 -3,1 -6,1 -8,0 -3,-1 -5,-5 -9,-10 -3,-5 -4,-10 -3,-13 0,-2 3,-5 5,-6l0 0zm3 4c-1,1 -1,1 -1,2 -2,0 -2,2 0,3 0,1 1,4 2,7 1,3 3,5 4,7 1,1 2,1 2,1 2,1 2,1 3,0 0,0 1,0 1,-1 0,0 0,-2 0,-3 0,-1 -1,-4 -4,-7 -1,-4 -2,-5 -3,-7 0,-1 -2,-2 -3,-2l-1 0 0 0zm-23 22c-1,0 -2,0 -4,-1 -1,0 -2,-1 -2,-2 -1,-3 -1,-4 -1,-7 1,-2 2,-3 5,-5 3,-1 5,-2 7,-1 3,0 4,1 5,4 1,1 1,2 1,4 0,1 -1,2 -2,3 2,0 4,0 5,2 1,1 3,2 4,3 1,3 1,5 1,8 -1,3 -4,4 -6,6 -3,2 -5,2 -8,2 -2,-2 -5,-3 -6,-5 0,-3 -1,-4 -1,-6 1,-2 1,-3 2,-5l0 0zm-1 -6c0,1 1,3 2,3 0,0 2,0 3,0 1,-2 1,-2 1,-3 1,-1 1,-2 0,-4 0,0 -1,-1 -2,-1 0,0 -2,0 -3,0 -1,1 -1,1 -1,3 -1,1 -1,1 0,2l0 0zm5 13c1,1 2,2 4,2 1,2 1,2 2,0 1,0 3,-1 3,-2 0,-2 0,-3 0,-4 -2,-1 -3,-3 -4,-3 -1,-1 -1,-1 -3,0 -1,0 -2,2 -2,3 0,1 0,2 0,4l0 0zm23 96c2,-1 5,-2 7,-1 3,1 6,5 9,10 2,7 4,10 2,14 0,3 -1,5 -5,6 -2,2 -5,2 -7,0 -3,-1 -6,-5 -9,-10 -2,-5 -4,-10 -2,-14 0,-2 2,-3 5,-5l0 0zm2 4c-1,0 -1,1 -2,1 0,2 0,3 0,4 1,2 1,4 3,7 2,3 3,6 4,7 1,1 1,1 3,1 0,0 1,0 2,0 0,0 0,-1 1,-1 0,-1 0,-1 0,-2 -1,-3 -1,-5 -3,-8 -2,-4 -3,-6 -4,-8 -1,0 -1,-1 -3,-1l-1 0 0 0zm-14 24l-5 -10 -1 14 6 -4z"/>
 </g>
</svg>
