<?xml version="1.0" encoding="UTF-8"?>
<!DOCTYPE svg PUBLIC "-//W3C//DTD SVG 1.1//EN" "http://www.w3.org/Graphics/SVG/1.1/DTD/svg11.dtd">
<!-- Creator: CorelDRAW X8 -->
<svg xmlns="http://www.w3.org/2000/svg" xml:space="preserve" width="1.18213in" height="1.05139in" version="1.1" style="shape-rendering:geometricPrecision; text-rendering:geometricPrecision; image-rendering:optimizeQuality; fill-rule:evenodd; clip-rule:evenodd"
viewBox="0 0 279 248"
 xmlns:xlink="http://www.w3.org/1999/xlink">
 <defs>
  <style type="text/css">
   <![CDATA[
    .fil1 {fill:#74CBF2}
    .fil0 {fill:#777876}
   ]]>
  </style>
 </defs>
 <g id="Layer_x0020_1">
  <metadata id="CorelCorpID_0Corel-Layer"/>
  <g>
   <path class="fil0" d="M82 222c-1,0 -2,0 -2,-1l2 1zm-2 -1c-1,0 -1,-1 -1,-2l0 0 1 2zm-1 -2l0 0zm2 -12l0 -1 0 1zm-2 12l0 -1 0 1zm2 -13l0 0zm0 0c0,-1 0,-1 1,-2l-1 2zm1 -2c1,-1 2,-1 3,-1l-3 1zm3 -1l10 1 -10 -1zm4 20l-7 -1 0 0 7 1zm167 -200c-7,-5 -15,-9 -24,-9 -10,0 -18,4 -24,9 -6,7 -10,15 -10,24 0,10 4,18 10,24 6,6 14,10 24,10 9,0 17,-4 24,-10 5,-6 9,-14 9,-24 0,-9 -4,-17 -9,-24l0 0zm-72 181l9 -1c1,0 2,0 2,1 1,0 2,1 2,2 26,-20 42,-56 33,-111 -12,-1 -24,-6 -32,-14 -9,-9 -14,-21 -14,-34 0,-13 5,-25 14,-33 9,-9 21,-14 34,-14 13,0 25,5 33,14 9,8 14,20 14,33 0,13 -5,25 -14,34 -6,6 -15,11 -24,13 9,62 -11,102 -42,123l-1 0 1 2c0,1 0,2 -1,2 -1,1 -1,1 -2,1l0 0 -5 1c-2,7 -7,12 -15,17 -9,5 -22,8 -36,8 -14,0 -27,-3 -36,-8 -8,-5 -13,-10 -15,-17l0 0c0,0 -1,-1 -1,-1l-5 0 -1 0c-1,0 -2,-2 -2,-3l0 0 0 -1 -1 0c0,-1 -1,-1 -1,-1 -25,-16 -42,-43 -41,-78l-10 0 18 -121 34 3c10,1 18,9 17,17l-13 90c-2,9 -11,15 -21,14l-15 -2c0,30 13,52 34,67l0 0 1 0 0 -1c0,0 0,0 0,0 1,-1 1,-2 3,-2l9 1c0,0 1,0 1,-1l0 0c2,-2 5,-4 9,-6 9,-5 22,-8 36,-8 14,0 27,3 36,8 3,2 6,4 8,6l0 0zm-184 -84l13 -90c2,-8 11,-15 21,-13l2 0 -18 121 -2 0c-10,-2 -17,-9 -16,-18l0 0z"/>
  </g>
  <path class="fil1" d="M221 40c-3,4 -2,10 2,13 3,2 7,2 10,0l24 10 -19 -17c0,-4 -1,-7 -4,-9 -4,-3 -10,-2 -13,3l0 0z"/>
 </g>
</svg>
