<?xml version="1.0" encoding="UTF-8"?>
<!DOCTYPE svg PUBLIC "-//W3C//DTD SVG 1.1//EN" "http://www.w3.org/Graphics/SVG/1.1/DTD/svg11.dtd">
<!-- Creator: CorelDRAW X8 -->
<svg xmlns="http://www.w3.org/2000/svg" xml:space="preserve" width="2.16674in" height="4.86032in" version="1.1" style="shape-rendering:geometricPrecision; text-rendering:geometricPrecision; image-rendering:optimizeQuality; fill-rule:evenodd; clip-rule:evenodd"
viewBox="0 0 1619 3631"
 xmlns:xlink="http://www.w3.org/1999/xlink">
 <defs>
  <style type="text/css">
   <![CDATA[
    .fil7 {fill:#FEFEFE;fill-rule:nonzero}
    .fil10 {fill:#FBF0D1;fill-rule:nonzero}
    .fil21 {fill:#F8E1D5;fill-rule:nonzero}
    .fil15 {fill:#F7F7F8;fill-rule:nonzero}
    .fil4 {fill:#F5CDBB;fill-rule:nonzero}
    .fil18 {fill:#F1B79E;fill-rule:nonzero}
    .fil25 {fill:#F2F3F2;fill-rule:nonzero}
    .fil5 {fill:#EEA789;fill-rule:nonzero}
    .fil20 {fill:#EC9576;fill-rule:nonzero}
    .fil9 {fill:#E8E7E8;fill-rule:nonzero}
    .fil11 {fill:#E2D9BE;fill-rule:nonzero}
    .fil13 {fill:#DDDEDE;fill-rule:nonzero}
    .fil16 {fill:#DEBBAB;fill-rule:nonzero}
    .fil23 {fill:#D7D7D6;fill-rule:nonzero}
    .fil14 {fill:#D2D2D3;fill-rule:nonzero}
    .fil12 {fill:#BFC0C1;fill-rule:nonzero}
    .fil3 {fill:#A7DBD6;fill-rule:nonzero}
    .fil22 {fill:#ABBFB5;fill-rule:nonzero}
    .fil24 {fill:#A9ACAF;fill-rule:nonzero}
    .fil8 {fill:#9FC4C6;fill-rule:nonzero}
    .fil19 {fill:#47352F;fill-rule:nonzero}
    .fil17 {fill:#483830;fill-rule:nonzero}
    .fil6 {fill:#6CC7BC;fill-rule:nonzero}
    .fil2 {fill:#363435;fill-rule:nonzero}
    .fil0 {fill:#4E4C57;fill-rule:nonzero}
    .fil1 {fill:#3E3E46;fill-rule:nonzero}
   ]]>
  </style>
 </defs>
 <g id="Layer_x0020_1">
  <metadata id="CorelCorpID_0Corel-Layer"/>
  <path class="fil0" d="M493 3607c-72,0 -130,-58 -130,-130l0 -828c0,-72 58,-130 130,-130 71,0 129,58 129,130l0 828c0,72 -58,130 -129,130z"/>
  <polygon class="fil1" points="622,2796 363,2705 363,2704 622,2704 "/>
  <path class="fil2" d="M657 3570c0,81 -363,81 -363,0 0,-82 81,-125 181,-125 101,0 182,43 182,125z"/>
  <path class="fil0" d="M839 3607c-72,0 -130,-58 -130,-130l0 -828c0,-72 58,-130 130,-130 71,0 129,58 129,130l0 828c0,72 -58,130 -129,130z"/>
  <polygon class="fil1" points="968,2796 709,2705 709,2704 968,2704 "/>
  <path class="fil2" d="M1041 3570c0,81 -363,81 -363,0 0,-82 81,-125 181,-125 101,0 182,43 182,125z"/>
  <path class="fil3" d="M1074 1353c0,202 -189,366 -422,366 -233,0 -422,-164 -422,-366 0,-203 189,-367 422,-367 233,0 422,164 422,367z"/>
  <polygon class="fil4" points="532,1064 771,1064 771,831 532,831 "/>
  <path class="fil5" d="M771 953l-239 -83 0 -11c36,19 77,29 120,29l0 0c43,0 83,-10 119,-29l0 94z"/>
  <polygon class="fil0" points="709,1102 686,1146 617,1146 595,1102 652,1056 "/>
  <polygon class="fil6" points="532,945 652,1056 579,1132 473,977 "/>
  <polygon class="fil6" points="771,945 652,1056 724,1132 831,977 "/>
  <polygon class="fil0" points="686,1156 714,1562 652,1631 590,1562 617,1156 "/>
  <path class="fil7" d="M802 962l-150 611 -151 -611c-181,45 -316,208 -316,403l0 1339 934 0 0 -1339c0,-195 -135,-358 -317,-403z"/>
  <polygon class="fil8" points="1119,1681 1119,1680 1119,1602 1119,1602 "/>
  <polygon class="fil9" points="1119,1680 1072,1536 1119,1602 "/>
  <polygon class="fil9" points="831,1156 929,1101 802,962 657,1552 647,1552 501,962 375,1101 473,1156 418,1205 641,1557 641,2704 662,2704 662,1557 885,1205 "/>
  <polygon class="fil9" points="261,2146 569,2146 569,2113 261,2113 "/>
  <polygon class="fil7" points="261,2432 569,2432 569,2146 261,2146 "/>
  <polygon class="fil9" points="735,2146 1043,2146 1043,2113 735,2113 "/>
  <polygon class="fil7" points="735,2432 1043,2432 1043,2146 735,2146 "/>
  <polygon class="fil4" points="1378,1203 1226,1171 1263,997 1415,1029 "/>
  <path class="fil10" d="M1258 1018l12 -55 212 -129c37,-22 85,-9 106,29 22,37 9,84 -29,106l-151 94 -7 34 -143 -79z"/>
  <path class="fil11" d="M1470 934c-62,0 -112,-6 -112,-13 0,-6 50,-12 112,-12 62,0 112,6 112,12 0,7 -50,13 -112,13z"/>
  <path class="fil7" d="M1520 528c-20,0 -46,24 -57,24 -11,0 -37,-24 -57,-24 -74,0 -118,90 -90,166 36,101 40,227 90,227 24,0 20,-163 57,-163 37,0 33,163 57,163 50,0 54,-126 90,-227 28,-76 -16,-166 -90,-166z"/>
  <path class="fil9" d="M1543 554c-10,-21 -71,18 -79,18 -9,0 -70,-39 -80,-18 -4,8 13,21 80,30 67,-9 83,-22 79,-30z"/>
  <path class="fil10" d="M1297 987c-5,0 -9,-1 -14,-4 -12,-7 -16,-23 -8,-36 1,-2 33,-53 65,-93 9,-11 25,-13 36,-4 11,9 13,25 4,36 -30,37 -61,88 -61,88 -5,8 -13,13 -22,13z"/>
  <path class="fil7" d="M1218 1667c-33,0 -65,-16 -85,-44l-268 -385 169 -124 134 196 54 -242 203 45 -106 473c-9,40 -40,71 -81,79 -6,2 -13,2 -20,2z"/>
  <polygon class="fil12" points="724,1625 695,1596 850,1440 880,1470 "/>
  <polygon class="fil0" points="588,1768 552,1732 759,1525 795,1562 "/>
  <path class="fil13" d="M930 1494c-20,0 -40,-6 -57,-17l7 -7 -15 -15 89 -89 60 85c-4,5 -7,9 -11,13 -20,20 -47,30 -73,30z"/>
  <path class="fil13" d="M1014 1451l-60 -85 49 -49c-20,-20 -47,-30 -73,-30 -10,0 -19,1 -28,3l0 0c9,-2 18,-3 28,-3 26,0 53,10 73,30 37,37 40,94 11,134z"/>
  <path class="fil14" d="M873 1477c-6,-4 -12,-8 -17,-13l9 -9 15 15 -7 7z"/>
  <path class="fil15" d="M865 1455l-15 -15 -7 8c-11,-18 -17,-38 -17,-58 0,-26 10,-53 30,-73 13,-13 29,-22 46,-27l52 76 -89 89z"/>
  <path class="fil15" d="M954 1366l-52 -76c9,-2 18,-3 28,-3 26,0 53,10 73,30l-49 49z"/>
  <path class="fil15" d="M856 1464l0 0c-5,-5 -9,-11 -13,-16l7 -8 15 15 -9 9z"/>
  <path class="fil0" d="M987 1333c-32,-31 -83,-31 -114,0 -32,32 -32,83 0,114 31,32 82,32 114,0 31,-31 31,-82 0,-114zm-131 131c-40,-41 -40,-107 0,-147 41,-41 107,-41 147,0 41,40 41,106 0,147 -40,40 -106,40 -147,0z"/>
  <path class="fil10" d="M503 1837l32 -1c54,26 171,46 185,-79 17,-151 -35,-78 -78,-77l-141 1 2 156z"/>
  <polygon class="fil4" points="501,1681 373,1681 377,1837 503,1837 "/>
  <path class="fil10" d="M548 1730c-4,-1 -9,-3 -13,-6 -10,-10 -11,-26 -2,-37 6,-7 60,-65 116,-56 14,2 23,16 21,30 -2,14 -16,24 -30,21 -22,-3 -56,26 -68,39 -6,7 -15,10 -24,9z"/>
  <polygon class="fil7" points="429,1249 251,1537 501,1662 "/>
  <polygon class="fil9" points="429,1249 261,1543 257,1527 510,1643 492,1681 246,1547 235,1541 242,1531 "/>
  <polygon class="fil9" points="408,1847 185,1773 185,1713 377,1829 377,1837 390,1837 "/>
  <polygon class="fil16" points="377,1837 377,1829 390,1837 "/>
  <path class="fil7" d="M408 1847l-351 -175c-26,-13 -45,-37 -53,-65 -8,-28 -4,-58 11,-82l247 -400 167 124 -178 288 250 125 -93 185z"/>
  <path class="fil4" d="M652 100c-143,0 -260,116 -260,259l0 270c0,143 117,259 260,259 143,0 259,-116 259,-259l0 -270c0,-143 -116,-259 -259,-259z"/>
  <path class="fil17" d="M933 167c18,-27 31,-60 29,-97 -18,4 -34,6 -49,5 11,-14 14,-29 15,-36 0,-2 -2,-3 -4,-3 -53,26 -119,-5 -119,-5l0 0c-43,-21 -87,-33 -153,-31 -218,0 -282,167 -282,167 -48,115 -35,273 23,421 1,2 2,5 3,7 -2,-12 -4,-24 -5,-36 1,-47 -5,-97 1,-92 44,-59 59,-177 59,-177 0,0 93,19 201,24 108,-5 200,-24 200,-24 0,0 15,118 59,177 6,-5 1,45 2,92 -1,12 -3,24 -5,36 1,-2 2,-5 3,-7 57,-148 71,-306 22,-421z"/>
  <path class="fil5" d="M532 540c-22,0 -40,-17 -40,-39 -1,-23 16,-42 39,-43 1,0 1,0 2,0 21,0 40,18 40,40 1,23 -16,41 -39,42 -1,0 -1,0 -2,0z"/>
  <path class="fil17" d="M573 488c1,22 -16,41 -39,42 -23,1 -42,-17 -42,-40 -1,-22 16,-41 39,-42 23,-1 42,17 42,40z"/>
  <path class="fil7" d="M557 476c0,5 -5,10 -10,10 -6,1 -11,-4 -11,-9 0,-6 4,-11 10,-11 6,0 10,4 11,10z"/>
  <path class="fil17" d="M812 488c1,22 -17,41 -39,42 -23,1 -42,-17 -43,-40 -1,-22 17,-41 40,-42 22,-1 41,17 42,40z"/>
  <path class="fil7" d="M795 476c0,5 -4,10 -10,10 -5,1 -10,-4 -10,-9 0,-6 4,-11 10,-11 5,0 10,4 10,10z"/>
  <path class="fil4" d="M392 467c-28,0 -51,23 -51,52l0 54c0,28 23,52 51,52 29,0 52,-24 52,-52l0 -54c0,-29 -23,-52 -52,-52z"/>
  <path class="fil4" d="M911 467c-28,0 -52,23 -52,52l0 54c0,28 24,52 52,52 29,0 52,-24 52,-52l0 -54c0,-29 -23,-52 -52,-52z"/>
  <path class="fil18" d="M652 888l0 -223 -62 0c0,0 24,-117 62,-197l0 -154c0,0 0,0 0,0l0 0c108,-5 200,-24 200,-24 0,0 15,118 59,177 -28,0 -52,23 -52,52l0 54c0,28 24,52 52,52l0 4c0,143 -116,259 -259,259zm78 -394c0,2 0,4 0,7 1,22 19,39 41,39 1,0 1,0 2,0 22,-1 40,-19 39,-42 0,-1 0,-3 0,-4 0,-2 0,-4 0,-6 -1,-23 -19,-40 -41,-40 0,0 -1,0 -1,0 -23,1 -41,20 -40,42 0,2 0,3 0,4z"/>
  <path class="fil19" d="M652 314c0,0 0,0 0,0l0 0z"/>
  <path class="fil20" d="M771 540c-22,0 -40,-17 -41,-39 0,-3 0,-5 0,-7 3,20 20,36 41,36 1,0 1,0 2,0 20,-1 36,-16 39,-36 0,1 0,3 0,4 1,23 -17,41 -39,42 -1,0 -1,0 -2,0z"/>
  <path class="fil19" d="M771 530c-21,0 -38,-16 -41,-36 0,-1 0,-2 0,-4 -1,-22 17,-41 40,-42 0,0 1,0 1,0 22,0 40,17 41,40 0,2 0,4 0,6 -3,20 -19,35 -39,36 -1,0 -1,0 -2,0zm14 -64c0,0 0,0 0,0 -6,0 -10,5 -10,11 0,5 5,9 10,9 0,0 0,0 0,0 6,0 10,-5 10,-10 0,-6 -4,-10 -10,-10z"/>
  <path class="fil21" d="M785 486c-5,0 -10,-4 -10,-9 0,-6 4,-11 10,-11 0,0 0,0 0,0 6,0 10,4 10,10 0,5 -4,10 -10,10 0,0 0,0 0,0z"/>
  <path class="fil22" d="M963 518c0,0 0,0 0,0 0,0 0,0 0,0zm0 0c0,0 0,0 0,0 0,0 0,0 0,0z"/>
  <path class="fil18" d="M911 625l0 0c-28,0 -52,-24 -52,-52l0 -54c0,-29 24,-52 52,-52l0 0 0 0 2 0c12,0 23,5 32,13l0 0c11,9 18,23 18,38 0,0 0,0 0,0 0,0 0,0 0,0 0,0 0,0 0,0 0,1 0,1 0,1l0 54c0,1 0,1 0,2 -1,28 -24,50 -52,50l0 0z"/>
  <path class="fil23" d="M346 257c-3,19 -4,38 -5,58 99,-46 338,-127 622,-1 -1,-20 -2,-40 -5,-59 -268,-108 -496,-47 -612,2z"/>
  <path class="fil23" d="M730 225c0,43 -35,78 -78,78 -43,0 -78,-35 -78,-78 0,-43 35,-78 78,-78 43,0 78,35 78,78z"/>
  <path class="fil24" d="M652 126c-54,0 -99,45 -99,99 0,54 45,99 99,99 54,0 99,-45 99,-99 0,-54 -45,-99 -99,-99zm0 21c43,0 78,35 78,78 0,43 -35,78 -78,78 -43,0 -78,-35 -78,-78 0,-43 35,-78 78,-78z"/>
  <path class="fil25" d="M685 225c0,18 -15,33 -33,33 -18,0 -33,-15 -33,-33 0,-18 15,-33 33,-33 18,0 33,15 33,33z"/>
 </g>
</svg>
