<?xml version="1.0" encoding="UTF-8"?>
<!DOCTYPE svg PUBLIC "-//W3C//DTD SVG 1.1//EN" "http://www.w3.org/Graphics/SVG/1.1/DTD/svg11.dtd">
<!-- Creator: CorelDRAW X8 -->
<svg xmlns="http://www.w3.org/2000/svg" xml:space="preserve" width="0.572165in" height="0.918665in" version="1.1" style="shape-rendering:geometricPrecision; text-rendering:geometricPrecision; image-rendering:optimizeQuality; fill-rule:evenodd; clip-rule:evenodd"
viewBox="0 0 87 140"
 xmlns:xlink="http://www.w3.org/1999/xlink">
 <defs>
  <style type="text/css">
   <![CDATA[
    .fil3 {fill:#FEFEFE}
    .fil1 {fill:#74CBF2}
    .fil2 {fill:#777876}
    .fil0 {fill:#363435}
   ]]>
  </style>
 </defs>
 <g id="Layer_x0020_1">
  <metadata id="CorelCorpID_0Corel-Layer"/>
  <path class="fil0" d="M37 66l15 0c1,0 1,0 1,1l0 7c0,1 0,1 -1,1l-15 0c-1,0 -1,0 -1,-1l0 -7c0,-1 0,-1 1,-1l0 0z"/>
  <path class="fil0" d="M60 66l15 0c0,0 1,0 1,1l0 7c0,1 -1,1 -1,1l-15 0c-1,0 -1,0 -1,-1l0 -7c0,-1 0,-1 1,-1l0 0z"/>
  <path class="fil0" d="M14 66l15 0c1,0 1,0 1,1l0 7c0,1 0,1 -1,1l-15 0c0,0 -1,0 -1,-1l0 -7c0,-1 1,-1 1,-1l0 0z"/>
  <polygon class="fil1" points="34,140 53,140 53,116 34,116 "/>
  <path class="fil1" d="M44 89l0 0c3,0 6,2 6,5l0 21 -13 0 0 -21c0,-3 3,-5 7,-5l0 0z"/>
  <path class="fil2" d="M0 0l87 0 0 86c0,19 -12,35 -28,41l0 -16 -3 0 0 -17c0,-6 -6,-11 -12,-11 -7,0 -13,5 -13,11l0 17 -2 0 0 16c-17,-6 -29,-22 -29,-41l0 -86z"/>
  <path class="fil3" d="M16 16l56 0c2,0 3,1 3,3l0 33c0,1 -1,2 -3,2l-56 0c-1,0 -2,-1 -2,-2l0 -33c0,-2 1,-3 2,-3l0 0z"/>
  <path class="fil3" d="M44 91c2,0 5,1 5,3 0,2 -3,3 -5,3 -3,0 -5,-1 -5,-3 0,-2 2,-3 5,-3l0 0z"/>
 </g>
</svg>
