<?xml version="1.0" encoding="UTF-8"?>
<!DOCTYPE svg PUBLIC "-//W3C//DTD SVG 1.1//EN" "http://www.w3.org/Graphics/SVG/1.1/DTD/svg11.dtd">
<!-- Creator: CorelDRAW X8 -->
<svg xmlns="http://www.w3.org/2000/svg" xml:space="preserve" width="2.13709in" height="2.13696in" version="1.1" style="shape-rendering:geometricPrecision; text-rendering:geometricPrecision; image-rendering:optimizeQuality; fill-rule:evenodd; clip-rule:evenodd"
viewBox="0 0 350 350"
 xmlns:xlink="http://www.w3.org/1999/xlink">
 <defs>
  <style type="text/css">
   <![CDATA[
    .fil3 {fill:#FEFEFE;fill-rule:nonzero}
    .fil2 {fill:#3BABAC;fill-rule:nonzero}
    .fil1 {fill:#5673B3;fill-rule:nonzero}
    .fil0 {fill:#3F4D6F;fill-rule:nonzero}
   ]]>
  </style>
 </defs>
 <g id="Layer_x0020_1">
  <metadata id="CorelCorpID_0Corel-Layer"/>
  <path class="fil0" d="M175 265c-50,0 -90,-41 -90,-90 0,-50 40,-90 90,-90 50,0 90,40 90,90 0,49 -40,90 -90,90zm164 -157c-7,-6 -16,-11 -27,-11 -16,0 -31,-6 -42,-17 -11,-11 -17,-26 -17,-42 0,-21 -17,-38 -38,-38l-80 0c-10,0 -20,4 -27,11 -6,7 -11,16 -11,27 0,33 -26,59 -59,59l0 0c-21,0 -38,17 -38,38l0 80c0,21 17,38 38,38l0 0c16,0 31,6 42,17 11,11 17,26 17,42 0,21 17,38 38,38l80 0c10,0 20,-4 27,-11 6,-7 11,-16 11,-27 0,-16 6,-31 17,-42 11,-11 26,-17 42,-17 21,0 38,-17 38,-38l0 -80c0,-10 -4,-20 -11,-27z"/>
  <path class="fil1" d="M175 76c-55,0 -99,44 -99,99 0,55 44,99 99,99 55,0 99,-44 99,-99 0,-55 -44,-99 -99,-99zm0 201c-56,0 -102,-46 -102,-102 0,-56 46,-102 102,-102 56,0 102,46 102,102 0,56 -46,102 -102,102zm-40 -264c-7,0 -13,2 -18,7 -4,5 -7,11 -7,18 0,40 -32,72 -72,72 -14,0 -25,11 -25,25l0 80c0,14 11,25 25,25 19,0 37,8 51,21 13,14 21,32 21,51 0,14 11,25 25,25l80 0c7,0 13,-2 18,-7 4,-5 7,-11 7,-18 0,-19 8,-37 21,-51 14,-13 32,-21 51,-21 14,0 25,-11 25,-25l0 -80c0,-7 -2,-13 -7,-18 -5,-4 -11,-7 -18,-7 -19,0 -37,-8 -51,-21 -13,-14 -21,-32 -21,-51 0,-14 -11,-25 -25,-25l-80 0zm80 328l-80 0c-16,0 -28,-13 -28,-29 0,-18 -8,-36 -21,-49 -13,-13 -30,-20 -48,-20 -16,0 -29,-13 -29,-28l0 -80c0,-16 13,-28 29,-28 38,0 69,-31 69,-69 0,-8 3,-15 8,-20 5,-6 13,-9 20,-9l80 0c15,0 28,13 28,29 0,18 7,35 20,48 13,13 31,21 49,21 8,0 15,3 20,8 6,5 9,13 9,20l0 80c0,15 -13,28 -29,28 -18,0 -36,7 -49,20 -13,13 -20,31 -20,49 0,8 -3,15 -8,20 -5,6 -13,9 -20,9z"/>
  <path class="fil2" d="M257 175c0,45 -37,82 -82,82 -45,0 -82,-37 -82,-82 0,-45 37,-82 82,-82 45,0 82,37 82,82z"/>
  <path class="fil3" d="M223 164l0 22c0,5 -4,9 -9,9l-19 0 0 19c0,5 -4,9 -9,9l-22 0c-5,0 -9,-4 -9,-9l0 -19 -19 0c-5,0 -10,-4 -10,-9l0 -22c0,-5 5,-9 10,-9l19 0 0 -19c0,-5 4,-10 9,-10l22 0c5,0 9,5 9,10l0 19 19 0c5,0 9,4 9,9z"/>
  <path class="fil1" d="M47 110c0,0 18,-2 35,-17 18,-15 26,-34 26,-34 0,0 -3,23 -22,38 -20,16 -39,13 -39,13z"/>
  <path class="fil1" d="M54 112c0,0 15,-3 31,-15 16,-13 23,-30 23,-30 0,0 -3,20 -20,33 -17,14 -34,12 -34,12z"/>
  <path class="fil1" d="M62 113c0,0 13,-2 26,-13 14,-11 19,-25 19,-25 0,0 -2,17 -16,28 -14,11 -29,10 -29,10z"/>
  <path class="fil1" d="M303 110c0,0 -18,-2 -36,-17 -17,-15 -26,-34 -26,-34 0,0 4,23 23,38 19,16 39,13 39,13z"/>
  <path class="fil1" d="M295 112c0,0 -15,-3 -31,-15 -16,-13 -23,-30 -23,-30 0,0 4,20 20,33 17,14 34,12 34,12z"/>
  <path class="fil1" d="M287 113c0,0 -13,-2 -26,-13 -13,-11 -19,-25 -19,-25 0,0 3,17 17,28 14,11 28,10 28,10z"/>
  <path class="fil1" d="M48 242c0,0 18,3 36,17 17,15 25,35 25,35 0,0 -3,-24 -22,-39 -19,-15 -39,-13 -39,-13z"/>
  <path class="fil1" d="M56 240c0,0 15,3 31,16 16,12 23,30 23,30 0,0 -4,-20 -20,-34 -17,-13 -34,-12 -34,-12z"/>
  <path class="fil1" d="M64 240c0,0 13,2 26,12 13,11 19,25 19,25 0,0 -3,-16 -17,-28 -14,-11 -28,-9 -28,-9z"/>
  <path class="fil1" d="M302 242c0,0 -19,3 -36,17 -18,15 -26,35 -26,35 0,0 3,-24 22,-39 20,-15 40,-13 40,-13z"/>
  <path class="fil1" d="M294 240c0,0 -15,3 -31,16 -16,12 -23,30 -23,30 0,0 3,-20 20,-34 17,-13 34,-12 34,-12z"/>
  <path class="fil1" d="M286 240c0,0 -13,2 -26,12 -14,11 -19,25 -19,25 0,0 2,-16 16,-28 14,-11 29,-9 29,-9z"/>
 </g>
</svg>
