<?xml version="1.0" encoding="UTF-8"?>
<!DOCTYPE svg PUBLIC "-//W3C//DTD SVG 1.1//EN" "http://www.w3.org/Graphics/SVG/1.1/DTD/svg11.dtd">
<!-- Creator: CorelDRAW X8 -->
<svg xmlns="http://www.w3.org/2000/svg" xml:space="preserve" width="1.12344in" height="0.555909in" version="1.1" style="shape-rendering:geometricPrecision; text-rendering:geometricPrecision; image-rendering:optimizeQuality; fill-rule:evenodd; clip-rule:evenodd"
viewBox="0 0 122 60"
 xmlns:xlink="http://www.w3.org/1999/xlink">
 <defs>
  <style type="text/css">
   <![CDATA[
    .fil1 {fill:#FEFEFE}
    .fil2 {fill:#74CBF2}
    .fil0 {fill:#777876}
   ]]>
  </style>
 </defs>
 <g id="Layer_x0020_1">
  <metadata id="CorelCorpID_0Corel-Layer"/>
  <path class="fil0" d="M107 43c1,2 5,2 8,0 3,-1 5,-5 4,-7 -1,-2 -5,-2 -8,0 -3,1 -5,5 -4,7l0 0zm-40 -9c-6,3 -9,11 -5,17 3,6 11,9 17,5l20 -11 0 0c0,0 0,-1 1,-1l4 -3c0,-3 2,-6 6,-7 4,-3 9,-2 11,1 2,4 0,8 -5,10 -3,2 -7,2 -9,1l-5 2c0,1 -1,1 -1,0l-1 0 -20 10c-7,4 -17,2 -21,-6 -3,-7 -1,-16 7,-20 3,-2 6,-4 9,-6 7,-3 9,-11 6,-17 -4,-6 -12,-9 -18,-5l-22 14c0,0 0,1 -1,1l0 0 3 6 -33 20 -9 -14c-2,-2 -1,-4 1,-6l6 -3c-1,-1 -2,-2 -2,-3 -2,-2 -2,-4 -2,-7 1,-2 2,-4 4,-6 3,-1 5,-2 8,-1 2,0 4,2 6,4 0,1 1,2 1,3l5 -3c2,-1 5,-1 6,1 1,2 2,4 4,7l1 -1c0,0 0,0 0,0l23 -14c8,-4 17,-1 21,6 4,7 1,17 -7,21 -3,1 -6,3 -9,5l0 0z"/>
  <path class="fil0" d="M11 48l0 -1 33 -21 0 1c1,2 1,4 -1,5l-26 17c-2,1 -5,1 -6,-1l0 0z"/>
  <path class="fil1" d="M15 8l0 -1c-1,0 -2,0 -2,0l-1 0c0,1 -1,1 -2,1l0 1c-1,0 -1,0 -2,1l0 0c0,1 -1,2 -1,2l0 1c0,1 0,1 0,2l0 0c0,1 0,2 1,2l0 1c0,0 1,1 1,1l1 1c0,0 1,0 2,0l0 1c1,0 2,0 2,0l1 -1c1,0 1,0 2,0l0 -1c1,0 1,0 2,-1l0 0c0,-1 1,-1 1,-2l0 -1c0,0 0,-1 0,-2l0 0c0,-1 0,-2 -1,-2 -1,1 -2,0 0,-1 -1,-1 -2,-2 -4,-2l0 0z"/>
  <path class="fil2" d="M16 18l0 0 0 0 0 0 0 0 0 0 0 0 0 0 0 0 0 0 0 0 0 0zm-3 -4l-1 3 2 -2c0,0 1,-1 1,-1 0,0 0,-1 -1,-1 0,0 -1,0 -1,0 0,1 0,1 0,1l0 0zm4 1c0,0 0,0 0,0 0,0 1,0 1,-1 0,0 0,0 0,0 0,0 0,0 0,0 0,1 0,1 0,1 0,0 0,0 0,0 0,0 0,0 0,0 0,0 0,0 -1,0l0 0zm1 0c0,0 0,0 0,0 0,0 0,0 0,0 0,0 0,0 0,0 0,0 0,0 0,0l0 0 0 0c0,0 0,0 0,0 0,0 0,0 0,0l0 0zm-4 -5c0,-1 0,-1 0,-1 0,0 0,0 0,0 1,0 1,0 1,0 0,0 0,0 0,0 0,0 0,0 0,0 0,0 0,0 0,1 0,0 -1,0 -1,0l0 0 0 0zm0 -1l0 0c0,1 0,1 0,0 0,0 0,0 1,0 0,0 0,0 0,0 0,0 0,0 0,0l0 0c0,0 0,0 0,0l0 0c0,0 0,0 -1,0 0,0 0,0 0,0 0,0 0,0 0,0l0 0zm1 1l0 0 0 0 0 0 -1 0 0 0 1 0 0 0 0 -1 0 1 0 -1 0 1zm0 0l0 0 0 0 0 0zm0 0l0 0 1 0c0,1 0,1 0,1 0,0 -1,0 -1,-1l0 0 0 1c0,0 0,0 0,0l0 0 0 0c0,0 0,0 0,0l0 0c0,0 0,0 0,-1 0,0 0,0 0,0l0 0c0,0 0,0 0,0l0 0c0,0 0,0 0,0l1 0 -1 0zm-4 0c0,0 0,0 0,0 0,0 0,0 0,0 0,0 0,-1 0,-1 0,1 0,1 0,1 0,0 0,0 0,0 0,0 0,0 0,0 0,0 0,0 0,0l0 0 0 0zm0 0l0 0c0,0 0,0 0,0 0,0 0,0 0,0l0 0 0 0c0,0 0,0 0,0 0,0 0,0 0,0l0 0zm0 1c0,0 0,0 0,-1 0,0 0,0 0,0 0,0 0,0 1,0l0 0c0,0 0,0 0,0 0,1 0,1 -1,1 0,0 0,0 0,0 0,0 0,0 0,0l0 0zm0 0c0,0 0,0 0,0 0,0 0,0 0,0 0,0 0,0 0,0 0,-1 1,-1 1,-1l0 0c0,0 0,0 -1,0 0,0 0,0 0,0 0,0 0,0 0,0 0,1 0,1 0,1 0,0 0,0 0,0l0 0zm1 0l0 0 0 0c0,0 0,0 0,0 0,0 0,0 0,0l0 0c0,0 0,0 -1,0l0 0c0,0 0,0 1,0l0 0 0 1c0,0 0,0 -1,0 0,0 0,-1 0,-1 0,0 0,0 0,0 0,0 0,0 0,0l0 0c1,0 1,0 1,0 0,0 0,0 0,0 0,0 0,0 0,0 0,0 0,0 0,0l0 0zm-4 2c0,0 0,0 0,0 0,0 1,0 1,0 0,0 0,0 0,0 0,0 0,0 0,0 0,0 0,0 0,0 0,0 0,0 0,0 0,0 0,0 0,0l-1 0 0 0zm1 0c0,0 0,0 0,0l0 0 0 0c0,0 0,0 0,0 0,0 0,0 0,0l0 0 0 0c0,0 0,0 0,0l0 0c0,0 0,0 0,0l0 0zm0 0l0 1c0,0 0,0 0,0l0 0c0,0 0,0 0,0 0,0 0,0 0,0 0,0 0,0 0,0 0,0 0,0 0,-1l0 0c0,0 0,0 1,0l0 0c0,0 0,1 0,1 0,0 0,0 -1,0 0,0 0,0 0,0 0,0 0,0 0,0 0,0 0,0 0,0 0,0 0,0 0,-1l0 0zm1 1l0 0c0,-1 0,-1 0,-1l0 0c-1,0 -1,0 -1,0 0,0 0,0 0,1l0 0c0,0 0,0 0,0 0,0 0,0 1,0l0 0zm0 0l0 0 0 0 0 0 0 1c0,-1 0,-1 -1,-1 0,0 0,0 0,0l0 0 1 0zm-1 2l0 0c0,0 0,0 0,0 0,0 0,0 0,0 1,0 1,0 1,0 0,0 0,0 0,0 0,0 0,0 -1,0 0,0 0,0 0,0 0,0 0,0 0,0l0 0zm0 0l0 0c0,0 0,0 0,0 0,0 0,0 0,0 1,0 1,0 1,0l0 0c0,0 0,0 -1,0l0 0c0,0 0,0 0,0l0 0 0 0c0,0 0,0 0,0l0 0zm1 0l0 0 0 1 0 0c0,0 0,0 0,0 0,0 0,0 0,0 -1,0 -1,0 -1,0l0 0c0,0 0,0 0,0l1 0 0 0c0,0 -1,0 -1,0 0,0 0,0 0,0 0,0 0,0 0,0 0,-1 0,-1 0,-1l0 0c0,0 0,0 1,0 0,0 0,0 0,0l0 0 0 0 0 0zm0 1l0 0 0 0c0,0 0,0 0,0l0 0c0,0 0,0 0,0 0,0 0,0 0,0l0 0 0 0zm2 1c0,0 0,0 0,0 0,0 0,0 0,0 0,0 0,0 0,0 0,0 0,0 0,0 1,0 1,0 1,0 -1,0 -1,0 -1,0 0,0 0,0 0,0l0 0 0 0zm0 0l0 0c0,0 0,0 0,0 0,0 0,0 0,0 0,0 0,0 0,0 0,0 0,0 0,0 0,0 0,0 0,0l0 0c0,0 0,0 0,0 0,0 0,0 0,0 0,0 0,0 0,0l0 0zm0 1c1,0 1,0 0,0l0 0c0,0 0,0 0,0 0,0 0,0 0,0 0,0 0,0 0,0 0,0 0,-1 0,-1 0,0 0,0 0,0l0 0c0,0 0,0 0,0l0 0c1,0 1,0 1,0l0 0c0,0 0,0 0,1 0,0 0,0 0,0 0,0 0,0 0,0 0,0 0,0 -1,0l0 0zm0 0c0,0 0,0 0,0 0,0 0,0 0,0 0,0 0,0 0,0l0 0c0,0 0,0 0,0l0 0 0 0zm1 0c0,0 0,0 0,-1l0 0c0,0 0,0 0,0 0,0 0,0 0,0 -1,0 -1,0 -1,0l0 1c1,0 1,0 1,0 0,0 0,0 0,0l0 0zm2 -1c0,0 0,0 0,-1 0,0 0,0 1,0 0,0 0,0 0,0 0,0 0,0 0,0 0,0 0,0 0,0 0,1 0,1 0,1 0,0 0,0 -1,0l0 0 0 0zm0 0c0,0 0,0 0,0l1 0 0 0c0,-1 0,-1 0,-1 0,0 0,0 0,0l0 0 0 0c0,0 0,0 0,0l-1 0c0,1 0,1 0,1l0 0zm1 0l0 0 0 0 0 0z"/>
 </g>
</svg>
