<?xml version="1.0" encoding="UTF-8"?>
<!DOCTYPE svg PUBLIC "-//W3C//DTD SVG 1.1//EN" "http://www.w3.org/Graphics/SVG/1.1/DTD/svg11.dtd">
<!-- Creator: CorelDRAW X8 -->
<svg xmlns="http://www.w3.org/2000/svg" xml:space="preserve" width="4.94214in" height="3.46524in" version="1.1" style="shape-rendering:geometricPrecision; text-rendering:geometricPrecision; image-rendering:optimizeQuality; fill-rule:evenodd; clip-rule:evenodd"
viewBox="0 0 26755 18760"
 xmlns:xlink="http://www.w3.org/1999/xlink">
 <defs>
  <style type="text/css">
   <![CDATA[
    .fil1 {fill:#373435;fill-rule:nonzero}
    .fil0 {fill:#ED3237;fill-rule:nonzero}
   ]]>
  </style>
 </defs>
 <g id="Layer_x0020_1">
  <metadata id="CorelCorpID_0Corel-Layer"/>
  <path class="fil0" d="M6517 7542l937 -1613c138,-238 394,-386 667,-386l76 4c296,28 554,228 655,510l225 631 809 -3326c84,-348 392,-591 747,-591l70 3c376,29 674,327 706,708l353 4302c143,-188 369,-306 616,-306l1032 0c148,0 289,42 409,116l518 -1988c89,-340 395,-579 744,-579l44 2c356,15 662,285 724,642l341 2000 7592 0c526,-2051 9,-3994 -444,-4900 -773,-1547 -5544,-5609 -9928,452 -4384,-6061 -9155,-1999 -9929,-452 -443,887 -948,2768 -475,4771l3511 0z"/>
  <path class="fil0" d="M15537 9218c-188,0 -361,-66 -496,-179l-367 1406c-89,341 -397,578 -748,578 -354,0 -662,-239 -750,-580l-284 -1101 -797 3038c-89,340 -397,577 -748,577l-72 -3c-372,-32 -668,-329 -699,-707l-318 -3866 -287 1182c-80,329 -373,572 -711,590l-41 1c-326,0 -619,-207 -728,-514l-535 -1494 -324 558c-138,237 -394,385 -669,385l-3386 0c510,983 1318,1941 2548,2773 4384,2965 7285,6898 7285,6898 0,0 2901,-3933 7285,-6898 1175,-795 1963,-1706 2476,-2644l-7634 0z"/>
  <path class="fil1" d="M11347 12571c-11,0 -22,-1 -34,-2 -188,-16 -336,-166 -352,-354l-513 -6252 -853 3508c-40,166 -185,286 -355,296 -173,9 -327,-96 -385,-257l-815 -2279 -743 1279c-69,119 -196,192 -334,192l-6576 0c-214,0 -387,-173 -387,-386 0,-214 173,-387 387,-387l6353 0 1049 -1806c76,-131 221,-206 370,-191 149,14 278,113 328,255l661 1847 1114 -4581c44,-184 217,-311 406,-294 189,15 340,165 355,354l524 6383 457 -1743c45,-170 198,-289 374,-289l1032 0c176,0 330,120 374,291l143 555 785 -3006c46,-177 210,-300 391,-289 182,8 334,141 364,321l397 2322 10504 0c214,0 387,173 387,387 0,214 -173,387 -387,387l-10831 0c-188,0 -349,-136 -381,-322l-149 -873 -707 2710c-45,170 -198,289 -374,289l-1 0c-176,0 -330,-119 -374,-290l-441 -1708 -433 0 -956 3644c-45,171 -200,289 -374,289z"/>
 </g>
</svg>
