<?xml version="1.0" encoding="UTF-8"?>
<!DOCTYPE svg PUBLIC "-//W3C//DTD SVG 1.1//EN" "http://www.w3.org/Graphics/SVG/1.1/DTD/svg11.dtd">
<!-- Creator: CorelDRAW X8 -->
<svg xmlns="http://www.w3.org/2000/svg" xml:space="preserve" width="2.1221in" height="2.52831in" version="1.1" style="shape-rendering:geometricPrecision; text-rendering:geometricPrecision; image-rendering:optimizeQuality; fill-rule:evenodd; clip-rule:evenodd"
viewBox="0 0 759 904"
 xmlns:xlink="http://www.w3.org/1999/xlink">
 <defs>
  <style type="text/css">
   <![CDATA[
    .fil0 {fill:#413F42;fill-rule:nonzero}
    .fil4 {fill:#57595B;fill-rule:nonzero}
    .fil3 {fill:#8CC43F;fill-rule:nonzero}
    .fil1 {fill:#919397;fill-rule:nonzero}
    .fil2 {fill:#F2792A;fill-rule:nonzero}
   ]]>
  </style>
 </defs>
 <g id="_3">
  <metadata id="CorelCorpID_0Corel-Layer"/>
  <g id="_905406974272">
   <polygon class="fil0" points="535,318 224,318 224,273 535,273 "/>
   <path class="fil1" d="M716 306l0 -54 33 0 0 -64 -247 0 0 64 33 0 0 336c0,22 18,86 96,86 26,0 47,-7 62,-22 15,-15 23,-38 23,-64l0 -222 0 0 0 -60 0 0zm-31 282l0 0c0,18 -5,33 -14,42 -9,9 -23,14 -40,14 -63,0 -65,-56 -65,-56l0 -336 119 0 0 336z"/>
   <path class="fil2" d="M591 590c0,5 5,32 37,32 32,0 32,-29 32,-32 0,-4 0,-173 0,-173l-69 0c0,0 0,167 0,173z"/>
   <path class="fil2" d="M645 141c0,21 17,38 38,38 21,0 39,-17 39,-38 0,-21 -18,-39 -39,-39 -21,0 -38,18 -38,39zm38 -8l0 0c4,0 8,4 8,8 0,4 -4,7 -8,7 -4,0 -7,-3 -7,-7 0,-4 3,-8 7,-8z"/>
   <path class="fil2" d="M583 171c5,0 11,-1 16,-3 12,-4 22,-12 27,-24 6,-11 7,-24 3,-37 -7,-19 -25,-32 -46,-32 -5,0 -10,0 -15,2 -12,4 -22,13 -28,24 -6,12 -7,25 -3,37 7,20 25,33 46,33zm-15 -56l0 0c2,-4 5,-7 10,-9 1,0 3,-1 5,-1 8,0 14,5 17,12 1,5 1,9 -1,13 -2,5 -6,8 -10,9 -9,3 -19,-2 -22,-11 -2,-4 -1,-9 1,-13z"/>
   <path class="fil2" d="M652 54c3,0 6,-1 9,-2 14,-4 22,-20 17,-34 -5,-14 -21,-21 -34,-17 -7,3 -12,7 -16,14 -3,6 -3,14 -1,20 4,11 14,19 25,19zm-1 -31l0 0c1,0 1,0 1,0 2,0 4,1 4,3 1,1 0,2 0,3 0,1 -1,1 -4,2 -1,0 -3,-1 -3,-3 -1,-2 0,-4 2,-5z"/>
   <path class="fil1" d="M232 306l0 -54 33 0 0 -64 -247 0 0 64 33 0 0 336c0,22 18,86 96,86 26,0 47,-7 62,-22 15,-15 23,-38 23,-64l0 -222 0 0 0 -60 0 0zm-31 282l0 0c0,18 -5,33 -14,42 -9,9 -23,14 -40,14 -63,0 -65,-56 -65,-56l0 -336 119 0 0 336z"/>
   <path class="fil3" d="M107 590c0,5 5,32 37,32 32,0 32,-29 32,-32 0,-4 0,-173 0,-173l-69 0c0,0 0,167 0,173z"/>
   <path class="fil3" d="M161 141c0,21 17,38 38,38 21,0 39,-17 39,-38 0,-21 -18,-39 -39,-39 -21,0 -38,18 -38,39zm38 -8l0 0c4,0 8,4 8,8 0,4 -4,7 -8,7 -4,0 -7,-3 -7,-7 0,-4 3,-8 7,-8z"/>
   <path class="fil3" d="M99 171c5,0 11,-1 16,-3 12,-4 22,-12 27,-24 6,-11 7,-24 3,-37 -7,-19 -25,-32 -46,-32 -5,0 -10,0 -15,2 -12,4 -22,13 -28,24 -6,12 -7,25 -3,37 7,20 25,33 46,33zm-15 -56l0 0c2,-4 5,-7 10,-9 1,0 3,-1 5,-1 8,0 14,5 17,12 1,5 1,9 -1,13 -2,5 -6,8 -10,9 -9,3 -19,-2 -22,-11 -2,-4 -1,-9 1,-13z"/>
   <path class="fil3" d="M168 54c3,0 6,-1 9,-2 14,-4 22,-20 17,-34 -5,-14 -21,-21 -34,-17 -7,3 -12,7 -16,14 -3,6 -3,14 -1,20 4,11 14,19 25,19zm-1 -31l0 0c1,0 1,0 1,0 2,0 4,1 4,3 1,1 0,2 0,3 0,1 -1,1 -4,2 -1,0 -3,-1 -3,-3 -1,-2 0,-4 2,-5z"/>
   <polygon class="fil0" points="705,850 705,816 54,816 54,850 0,850 0,904 759,904 759,850 "/>
   <polygon class="fil0" points="412,851 366,851 366,299 412,299 "/>
   <polygon class="fil4" points="432,380 346,380 346,317 432,317 "/>
  </g>
 </g>
</svg>
