<?xml version="1.0" encoding="UTF-8"?>
<!DOCTYPE svg PUBLIC "-//W3C//DTD SVG 1.1//EN" "http://www.w3.org/Graphics/SVG/1.1/DTD/svg11.dtd">
<!-- Creator: CorelDRAW X8 -->
<svg xmlns="http://www.w3.org/2000/svg" xml:space="preserve" width="1.11268in" height="0.527055in" version="1.1" style="shape-rendering:geometricPrecision; text-rendering:geometricPrecision; image-rendering:optimizeQuality; fill-rule:evenodd; clip-rule:evenodd"
viewBox="0 0 119 57"
 xmlns:xlink="http://www.w3.org/1999/xlink">
 <defs>
  <style type="text/css">
   <![CDATA[
    .fil2 {fill:#FEFEFE}
    .fil1 {fill:#74CBF2}
    .fil0 {fill:#777876}
   ]]>
  </style>
 </defs>
 <g id="Layer_x0020_1">
  <metadata id="CorelCorpID_0Corel-Layer"/>
  <path class="fil0" d="M118 48c-1,0 -3,0 -3,1 0,0 -2,2 -5,2l-4 0 0 -4 3 0c3,0 5,-2 5,-5l0 0c0,-12 -5,-21 -15,-26 -5,-3 -12,-4 -18,-5l0 -6 19 0c2,0 3,-1 3,-2 0,-2 -1,-3 -3,-3l-44 0c-2,0 -3,1 -3,3 0,1 1,2 3,2l20 0 0 6c-6,0 -10,1 -10,1 -2,0 -4,2 -4,4l-3 9 -30 4 -13 -10c-1,-1 0,-4 0,-5 0,-1 1,-1 1,-2 0,-2 -1,-4 -3,-6 -1,-1 -3,-2 -6,-2 -2,0 -4,1 -6,2 -1,2 -2,4 -2,6 0,2 1,4 2,6 2,1 4,2 6,2 1,0 1,0 2,0l0 12c0,3 2,5 5,5l40 0 8 8c1,1 2,2 4,2l9 0 0 4 -11 0c-1,0 -2,2 -2,3 0,1 1,3 2,3l45 0c5,0 8,-3 9,-5 1,-1 0,-3 -1,-4l0 0z"/>
  <path class="fil1" d="M12 9c-1,-1 -2,-2 -4,-2 -1,0 -2,1 -3,2 -1,0 -2,2 -2,3 0,2 1,3 2,4 1,1 2,1 3,1 2,0 3,0 4,-1 1,-1 1,-2 1,-4 0,-1 0,-3 -1,-3l0 0z"/>
  <polygon class="fil1" points="17,31 13,31 13,28 17,28 17,24 20,24 20,28 24,28 24,31 20,31 20,35 17,35 "/>
  <polygon class="fil2" points="82,51 100,51 100,47 82,47 "/>
  <path class="fil1" d="M68 31l0 -16c9,1 37,8 38,17l-38 -1z"/>
 </g>
</svg>
