<?xml version="1.0" encoding="UTF-8"?>
<!DOCTYPE svg PUBLIC "-//W3C//DTD SVG 1.1//EN" "http://www.w3.org/Graphics/SVG/1.1/DTD/svg11.dtd">
<!-- Creator: CorelDRAW X8 -->
<svg xmlns="http://www.w3.org/2000/svg" xml:space="preserve" width="0.743012in" height="0.861583in" version="1.1" style="shape-rendering:geometricPrecision; text-rendering:geometricPrecision; image-rendering:optimizeQuality; fill-rule:evenodd; clip-rule:evenodd"
viewBox="0 0 80 93"
 xmlns:xlink="http://www.w3.org/1999/xlink">
 <defs>
  <style type="text/css">
   <![CDATA[
    .fil1 {fill:#74CBF2;fill-rule:nonzero}
    .fil0 {fill:#727371;fill-rule:nonzero}
   ]]>
  </style>
 </defs>
 <g id="Layer_x0020_1">
  <metadata id="CorelCorpID_0Corel-Layer"/>
  <path class="fil0" d="M80 83l0 0 -12 -26c-1,-3 -5,-5 -8,-4l-23 5 0 -25c0,-4 -3,-7 -7,-7 -4,0 -7,3 -7,7l0 34c0,2 1,4 3,5 1,2 3,2 5,2l27 -6 9 21c1,3 4,4 6,4 1,0 2,0 3,0 4,-2 5,-6 4,-10l0 0z"/>
  <path class="fil0" d="M43 11l0 0c0,-6 -5,-11 -11,-11 -6,0 -11,5 -11,11 0,6 5,11 11,11 6,0 11,-5 11,-11l0 0z"/>
  <path class="fil1" d="M49 77c2,-1 5,-1 7,-1 0,0 1,1 1,2 -6,9 -15,15 -26,15 -17,0 -31,-14 -31,-31 0,-12 7,-22 17,-27l0 8c-6,4 -10,11 -10,19 0,13 11,24 24,24 7,0 14,-4 18,-9l0 0z"/>
 </g>
</svg>
