<?xml version="1.0" encoding="UTF-8"?>
<!DOCTYPE svg PUBLIC "-//W3C//DTD SVG 1.1//EN" "http://www.w3.org/Graphics/SVG/1.1/DTD/svg11.dtd">
<!-- Creator: CorelDRAW X8 -->
<svg xmlns="http://www.w3.org/2000/svg" xml:space="preserve" width="1.13941in" height="1.44701in" version="1.1" style="shape-rendering:geometricPrecision; text-rendering:geometricPrecision; image-rendering:optimizeQuality; fill-rule:evenodd; clip-rule:evenodd"
viewBox="0 0 131 167"
 xmlns:xlink="http://www.w3.org/1999/xlink">
 <defs>
  <style type="text/css">
   <![CDATA[
    .fil0 {fill:#00A1AC;fill-rule:nonzero}
    .fil1 {fill:white;fill-rule:nonzero}
   ]]>
  </style>
 </defs>
 <g id="Object">
  <metadata id="CorelCorpID_0Corel-Layer"/>
  <path class="fil0" d="M102 64l9 -29 16 5 4 -14 -29 -9 -12 38c0,0 0,0 0,0l-5 14c16,11 24,32 18,52 -7,23 -33,37 -57,29 -24,-7 -37,-33 -29,-57 6,-19 24,-32 44,-31l4 -15c0,0 0,0 0,0l12 -38 -29 -9 -5 14 16 5 -9 29c-22,4 -40,19 -47,41 -10,31 7,65 39,75 31,10 65,-8 75,-39 7,-22 0,-45 -15,-61z"/>
  <path class="fil1" d="M20 95c-7,22 5,45 27,52 22,7 46,-5 53,-27 -16,0 -25,-17 -43,-14 -19,3 -27,2 -37,-11zm64 28l0 0c3,1 5,5 4,8 -1,3 -5,5 -8,4 -4,-1 -5,-4 -4,-8 1,-3 4,-5 8,-4zm-21 15l0 0c2,1 2,2 2,3 -1,1 -2,2 -3,1 -1,0 -1,-1 -1,-2 0,-1 1,-2 2,-2zm2 -18l0 0c1,0 2,1 2,2 -1,1 -2,1 -3,1 -1,0 -1,-1 -1,-2 0,-1 1,-2 2,-1zm-14 12l0 0c3,1 4,4 3,7 -1,3 -4,5 -7,4 -3,-1 -4,-4 -3,-7 0,-3 4,-5 7,-4zm-2 -9l0 0c1,0 2,1 1,2 0,1 -1,2 -2,1 -1,0 -2,-1 -1,-2 0,-1 1,-1 2,-1zm-13 -5l0 0c0,2 -3,3 -5,3 -2,-1 -3,-3 -2,-5 1,-2 3,-3 5,-3 2,1 3,3 2,5z"/>
 </g>
</svg>
