<?xml version="1.0" encoding="UTF-8"?>
<!DOCTYPE svg PUBLIC "-//W3C//DTD SVG 1.1//EN" "http://www.w3.org/Graphics/SVG/1.1/DTD/svg11.dtd">
<!-- Creator: CorelDRAW X8 -->
<svg xmlns="http://www.w3.org/2000/svg" xml:space="preserve" width="2.43544in" height="3.44196in" version="1.1" style="shape-rendering:geometricPrecision; text-rendering:geometricPrecision; image-rendering:optimizeQuality; fill-rule:evenodd; clip-rule:evenodd"
viewBox="0 0 2747 3882"
 xmlns:xlink="http://www.w3.org/1999/xlink">
 <defs>
  <style type="text/css">
   <![CDATA[
    .fil0 {fill:#26C6DA;fill-rule:nonzero}
    .fil3 {fill:#606060;fill-rule:nonzero}
    .fil1 {fill:#C8C8C8;fill-rule:nonzero}
    .fil2 {fill:#DFDFDF;fill-rule:nonzero}
    .fil5 {fill:#EDEDED;fill-rule:nonzero}
    .fil4 {fill:#212121;fill-rule:nonzero;fill-opacity:0.101961}
   ]]>
  </style>
 </defs>
 <g id="BACKGROUND">
  <metadata id="CorelCorpID_0Corel-Layer"/>
  <path class="fil0" d="M887 2664c57,10 97,62 97,120l0 305c0,419 326,777 745,793 441,17 805,-337 805,-774l0 -2295 0 -30 2 0c8,0 14,-7 14,-15l0 -59c114,-32 197,-136 197,-259 0,-149 -121,-270 -270,-270 -149,0 -269,121 -269,270 0,123 83,227 196,259l0 59c0,8 7,15 15,15l2 0 0 30 0 2277c0,370 -303,686 -673,679 -360,-6 -651,-300 -651,-661l0 -324c0,-58 40,-110 97,-120 410,-72 723,-426 731,-854 0,-9 -7,-17 -17,-17l-2 0 0 -27 0 -773c0,-67 -54,-122 -122,-122l0 75c26,0 47,21 47,47l0 773 0 27 -3 0c-9,0 -16,7 -16,16 -8,418 -351,756 -771,756 -421,0 -763,-338 -772,-756 0,-9 -7,-16 -16,-16l-3 0 0 -27 0 -773c0,-26 21,-47 47,-47l0 35c0,22 18,40 40,40l21 0c11,0 20,-9 20,-20l0 -185c0,-11 -9,-20 -20,-20l-21 0c-22,0 -40,18 -40,40l0 35c-68,0 -122,55 -122,122l0 773 0 27 -2 0c-10,0 -17,8 -17,17 8,428 321,782 731,854z"/>
  <path class="fil0" d="M1723 1021l21 0c22,0 40,-18 40,-40l0 -145c0,-22 -18,-40 -40,-40l-21 0c-11,0 -20,9 -20,20l0 185c0,11 9,20 20,20z"/>
 </g>
 <g id="OBJECTS">
  <metadata id="CorelCorpID_1Corel-Layer"/>
  <path class="fil1" d="M2591 270c0,149 -121,270 -270,270 -149,0 -270,-121 -270,-270 0,-149 121,-270 270,-270 149,0 270,121 270,270z"/>
  <path class="fil2" d="M19 813l0 800 75 0 0 -800c0,-26 21,-47 47,-47l0 -75c-68,0 -122,55 -122,122z"/>
  <path class="fil2" d="M1628 691l0 75c26,0 47,21 47,47l0 800 75 0 0 -800c0,-67 -54,-122 -122,-122z"/>
  <path class="fil3" d="M2321 213c-31,0 -56,26 -56,57l0 2640c0,370 -303,686 -673,679 -360,-6 -651,-300 -651,-661l0 -325c0,-57 40,-109 97,-119 410,-72 723,-426 731,-854 0,-9 -7,-17 -17,-17l-80 0c-9,0 -16,7 -16,16 -8,418 -351,756 -772,756 -420,0 -763,-338 -771,-756 0,-9 -7,-16 -16,-16l-80 0c-10,0 -17,8 -17,17 8,428 321,782 731,854 57,10 97,62 97,119l0 306c0,419 326,777 745,793 441,17 805,-337 805,-774l0 -2658c0,-31 -26,-57 -57,-57z"/>
  <path class="fil2" d="M2248 356l0 232c0,8 7,15 15,15l117 0c8,0 14,-7 14,-15l0 -232 -146 0z"/>
  <polygon class="fil4" points="94,1613 19,1613 19,1586 94,1586 "/>
  <polygon class="fil4" points="1750,1613 1675,1613 1675,1586 1750,1586 "/>
  <path class="fil5" d="M2494 270c0,95 -77,172 -173,172 -95,0 -172,-77 -172,-172 0,-96 77,-173 172,-173 96,0 173,77 173,173z"/>
  <polygon class="fil4" points="2378,633 2265,633 2265,603 2378,603 "/>
  <path class="fil5" d="M202 616l-21 0c-22,0 -40,18 -40,40l0 145c0,22 18,40 40,40l21 0c11,0 20,-9 20,-20l0 -185c0,-11 -9,-20 -20,-20z"/>
  <path class="fil5" d="M1588 616l-21 0c-11,0 -20,9 -20,20l0 185c0,11 9,20 20,20l21 0c22,0 40,-18 40,-40l0 -145c0,-22 -18,-40 -40,-40z"/>
 </g>
</svg>
