<?xml version="1.0" encoding="UTF-8"?>
<!DOCTYPE svg PUBLIC "-//W3C//DTD SVG 1.1//EN" "http://www.w3.org/Graphics/SVG/1.1/DTD/svg11.dtd">
<!-- Creator: CorelDRAW X8 -->
<svg xmlns="http://www.w3.org/2000/svg" xml:space="preserve" width="0.86215in" height="0.774961in" version="1.1" style="shape-rendering:geometricPrecision; text-rendering:geometricPrecision; image-rendering:optimizeQuality; fill-rule:evenodd; clip-rule:evenodd"
viewBox="0 0 802 721"
 xmlns:xlink="http://www.w3.org/1999/xlink">
 <defs>
  <style type="text/css">
   <![CDATA[
    .fil1 {fill:#74CBF2}
    .fil0 {fill:#777876}
   ]]>
  </style>
 </defs>
 <g id="Layer_x0020_1">
  <metadata id="CorelCorpID_0Corel-Layer"/>
  <path class="fil0" d="M592 0l0 0c-54,0 -103,20 -141,52 -38,32 -67,32 -105,0 -37,-31 -86,-51 -140,-51 -84,0 -157,46 -191,113 -21,43 -18,121 -3,166 5,21 16,46 28,72 2,-1 6,-1 9,-1l115 0 61 -117c4,-7 10,-10 18,-10 7,1 12,5 16,11l133 307 37 -92c3,-6 10,-10 18,-10l233 0c5,0 10,2 12,5 7,-8 13,-16 19,-25 17,-21 53,-72 68,-116 23,-63 23,-109 23,-109 0,-109 -94,-195 -210,-195l0 0z"/>
  <path class="fil1" d="M459 473l-50 121c-2,7 -9,11 -17,11l0 0c-7,0 -13,-4 -16,-11l-136 -312 -49 92c-3,7 -9,10 -15,10l-117 0c1,3 2,4 3,6l31 42c9,10 17,19 26,29 105,105 178,184 222,233 33,36 85,36 117,0 43,-48 111,-122 208,-221l-207 0z"/>
  <path class="fil1" d="M517 190l0 0c30,0 53,20 53,44 0,7 6,12 14,12 7,0 15,-5 15,-12 0,-39 -38,-70 -82,-70 -7,0 -14,5 -14,13 0,7 7,13 14,13l0 0z"/>
  <path class="fil1" d="M549 147l0 0c36,0 66,25 66,54 0,9 7,16 17,16 10,0 18,-7 18,-16 0,-47 -45,-86 -101,-86 -9,0 -17,7 -17,16 0,10 8,16 17,16l0 0z"/>
  <path class="fil1" d="M581 100l0 0c50,0 92,33 92,75 0,13 11,24 24,24 13,0 25,-11 25,-24 0,-66 -63,-121 -141,-121 -13,0 -25,10 -25,23 0,13 12,23 25,23l0 0z"/>
 </g>
</svg>
