<?xml version="1.0" encoding="UTF-8"?>
<!DOCTYPE svg PUBLIC "-//W3C//DTD SVG 1.1//EN" "http://www.w3.org/Graphics/SVG/1.1/DTD/svg11.dtd">
<!-- Creator: CorelDRAW X8 -->
<svg xmlns="http://www.w3.org/2000/svg" xml:space="preserve" width="1.96861in" height="1.96861in" version="1.1" style="shape-rendering:geometricPrecision; text-rendering:geometricPrecision; image-rendering:optimizeQuality; fill-rule:evenodd; clip-rule:evenodd"
viewBox="0 0 6264 6264"
 xmlns:xlink="http://www.w3.org/1999/xlink">
 <defs>
  <style type="text/css">
   <![CDATA[
    .fil0 {fill:#00C852;fill-rule:nonzero}
    .fil1 {fill:white;fill-rule:nonzero}
   ]]>
  </style>
 </defs>
 <g id="objects">
  <metadata id="CorelCorpID_0Corel-Layer"/>
  <path class="fil0" d="M6264 3132c0,1730 -1402,3132 -3132,3132 -1730,0 -3132,-1402 -3132,-3132 0,-1730 1402,-3132 3132,-3132 1730,0 3132,1402 3132,3132z"/>
  <path class="fil1" d="M4234 2232c-3,-73 23,-149 72,-214l209 -274c93,-123 83,-288 -22,-368 -105,-80 -267,-45 -360,78l-209 274c-49,64 -115,109 -187,126 -95,23 -182,81 -245,164l-1701 2236c-134,176 -121,412 28,526l107 81c150,114 380,63 514,-113l1702 -2236c63,-83 96,-183 92,-280zm-461 510l0 0c18,14 22,40 8,59 -15,18 -41,22 -60,8l-86 -66 -118 155 86 66c19,14 23,40 8,59 -14,19 -40,22 -59,8l-86 -66 -118 156 86 65c19,14 23,41 8,59 -14,19 -40,22 -59,8l-86 -65 -118 155 86 65c19,15 22,41 8,59 -14,19 -40,23 -59,9l-86 -66 -118 155 86 66c19,14 22,40 8,59 -14,18 -40,22 -59,8l-86 -66 -118 155 86 66c19,14 22,40 8,59 -14,18 -40,22 -59,8l-86 -66 -118 156 86 65c19,14 22,41 8,59 -14,19 -40,22 -59,8l-86 -65 -118 155 86 65c19,14 22,41 8,59 -14,19 -40,23 -59,8l-86 -65 -118 155 86 66c19,14 22,40 8,59 -14,18 -40,22 -59,8l-86 -66 -5 7c-49,64 -140,75 -204,25 -1,0 -1,-1 -2,-2 -62,-48 -72,-137 -25,-199l5 -7 -86 -65c-19,-14 -22,-41 -8,-59 14,-19 40,-22 59,-8l86 65 118 -155 -86 -65c-19,-14 -22,-41 -8,-59 14,-19 40,-23 59,-8l86 65 118 -155 -86 -66c-19,-14 -22,-40 -8,-59 14,-18 40,-22 59,-8l86 66 118 -155 -86 -66c-19,-14 -22,-40 -8,-59 14,-18 40,-22 59,-8l86 66 118 -155 -86 -66c-19,-14 -22,-41 -8,-59 14,-19 40,-22 59,-8l86 65 118 -155 -86 -65c-18,-14 -22,-41 -8,-59 14,-19 41,-22 59,-8l86 65 118 -155 -86 -65c-18,-15 -22,-41 -8,-60 14,-18 41,-22 59,-8l86 66 118 -155 -86 -66c-18,-14 -22,-40 -8,-59 14,-18 41,-22 59,-8l86 66 118 -155 -86 -66c-18,-14 -22,-40 -8,-59 14,-19 41,-22 59,-8l86 65 118 -155 -86 -65c-18,-14 -22,-41 -8,-59 14,-19 41,-22 59,-8l86 65 376 -493 208 -274c61,-80 165,-107 228,-59 62,47 64,155 3,235l-208 274 -376 493 87 66c18,14 22,40 8,59 -14,18 -41,22 -59,8l-87 -66 -118 155 87 66z"/>
 </g>
</svg>
