<?xml version="1.0" encoding="UTF-8"?>
<!DOCTYPE svg PUBLIC "-//W3C//DTD SVG 1.1//EN" "http://www.w3.org/Graphics/SVG/1.1/DTD/svg11.dtd">
<!-- Creator: CorelDRAW X8 -->
<svg xmlns="http://www.w3.org/2000/svg" xml:space="preserve" width="4.34496in" height="3.92944in" version="1.1" style="shape-rendering:geometricPrecision; text-rendering:geometricPrecision; image-rendering:optimizeQuality; fill-rule:evenodd; clip-rule:evenodd"
viewBox="0 0 2837 2566"
 xmlns:xlink="http://www.w3.org/1999/xlink">
 <defs>
  <style type="text/css">
   <![CDATA[
    .fil7 {fill:#FEFEFE;fill-rule:nonzero}
    .fil8 {fill:#728EC7;fill-rule:nonzero}
    .fil6 {fill:#3BABAC;fill-rule:nonzero}
    .fil3 {fill:#5673B3;fill-rule:nonzero}
    .fil5 {fill:#435379;fill-rule:nonzero}
    .fil1 {fill:#3E4D6D;fill-rule:nonzero}
    .fil2 {fill:#3F4D6F;fill-rule:nonzero}
    .fil4 {fill:#3B4661;fill-rule:nonzero}
    .fil0 {fill:#363F54;fill-rule:nonzero}
   ]]>
  </style>
 </defs>
 <g id="Layer_x0020_1">
  <metadata id="CorelCorpID_0Corel-Layer"/>
  <path class="fil0" d="M999 948c30,-52 80,-89 138,-105 15,-4 31,-7 47,-9 8,0 15,-1 22,-1 4,0 68,-1 92,9 10,4 20,11 23,22 4,13 -1,30 -9,39 -22,25 -56,27 -56,27 0,0 -1,4 -3,6 -5,7 -12,12 -21,13 -7,1 -15,0 -22,0 -10,0 -19,0 -28,1 -25,3 -50,8 -73,19 -26,11 -49,29 -64,54 -19,33 -20,73 -14,111 3,22 8,44 21,64 7,12 17,22 28,31 12,11 28,17 42,24 62,27 130,39 196,51 68,13 136,23 203,38 61,14 123,32 175,67 44,30 77,73 87,126 2,14 3,27 3,40 0,26 -3,52 -9,78 -8,32 -22,62 -42,88 -20,26 -47,46 -76,61 -61,31 -130,38 -197,46 -33,4 -67,7 -100,16 -28,7 -58,20 -69,49 -6,18 -9,39 -9,58 1,15 4,30 13,42 9,13 23,21 37,26 31,12 65,16 98,19 35,3 69,4 103,10 30,4 65,12 83,39 13,18 13,44 7,65 -10,32 -38,51 -60,73 -24,23 -41,51 -52,82 -9,25 -15,51 -20,78 0,-36 3,-71 14,-105 6,-20 15,-39 27,-57 12,-18 27,-33 40,-50 11,-14 17,-29 15,-47 0,-3 0,-5 -1,-8 -3,-8 -13,-12 -21,-15 -20,-5 -41,-5 -62,-5 -21,0 -43,1 -64,1 -80,0 -182,-5 -221,-87 -17,-35 -18,-76 -12,-114 4,-30 14,-59 34,-82 27,-33 67,-51 107,-62 42,-11 86,-16 130,-23 42,-6 85,-12 124,-30 18,-7 36,-18 49,-33 13,-14 22,-31 28,-49 6,-19 9,-38 9,-58 1,-8 1,-17 0,-25 -5,-42 -38,-68 -73,-86 -37,-19 -79,-32 -120,-43 -43,-11 -87,-20 -130,-30 -86,-19 -173,-38 -253,-75 -37,-17 -73,-39 -101,-69 -29,-31 -46,-62 -52,-113 -10,-84 8,-139 39,-192z"/>
  <path class="fil1" d="M1294 850c0,0 -2,-1 -7,-3 -6,-1 -13,-2 -24,-3 -10,-1 -22,-2 -37,-2 -15,0 -32,0 -51,3 -19,3 -40,8 -61,16 -21,9 -42,22 -62,39 -10,9 -20,19 -28,30 -9,11 -16,23 -23,37 -7,13 -13,27 -18,41 -5,15 -9,31 -11,47 -5,32 -3,66 2,100 4,18 9,35 17,50 9,16 20,30 33,44 26,26 60,46 95,62 36,17 74,30 113,41 39,11 80,20 121,29 10,2 21,5 31,7 10,2 21,5 31,7 21,5 42,10 63,15 20,4 42,10 62,16 21,7 42,14 62,23 10,4 20,9 29,15 10,5 19,11 28,18 9,7 17,15 24,25 7,9 12,19 15,30 4,11 5,22 5,33 0,12 -1,23 -2,34 -3,22 -8,44 -19,64 -5,10 -11,19 -19,27 -7,9 -16,16 -25,22 -18,13 -39,21 -60,27 -21,7 -42,11 -63,14 -21,4 -42,7 -63,10 -41,6 -83,12 -121,25 -19,7 -37,15 -53,27 -16,11 -30,25 -39,42 -10,17 -16,35 -19,54 -3,19 -4,37 -3,56 1,18 5,36 12,53 8,16 18,30 32,41 13,11 28,19 44,25 16,6 32,10 48,12 32,5 63,5 93,5 15,0 30,0 44,-1 14,0 28,0 41,1 13,1 26,2 39,6 6,1 12,4 17,7 5,4 9,9 10,15 3,11 3,23 0,33 -3,10 -8,20 -13,27 -6,8 -12,14 -18,21 -5,7 -11,12 -15,18 -10,12 -16,23 -21,32 -5,9 -8,16 -10,21 -2,5 -3,7 -3,7 0,0 1,-2 3,-7 2,-5 5,-12 10,-22 4,-9 11,-20 20,-31 5,-6 10,-12 15,-19 6,-6 12,-13 17,-21 6,-7 11,-16 13,-26 3,-10 3,-22 0,-33 -2,-5 -5,-9 -10,-13 -5,-3 -10,-5 -16,-7 -12,-3 -25,-4 -38,-5 -13,0 -27,0 -41,0 -14,0 -29,1 -44,1 -30,1 -61,0 -94,-4 -16,-3 -33,-6 -49,-12 -16,-6 -32,-14 -46,-26 -14,-11 -25,-26 -33,-43 -8,-17 -12,-36 -14,-55 -1,-19 0,-38 3,-57 4,-20 9,-39 19,-57 10,-17 25,-32 41,-44 17,-12 36,-21 56,-28 78,-27 165,-25 247,-50 20,-6 40,-14 57,-26 18,-11 32,-27 42,-46 10,-19 15,-40 17,-61 1,-11 2,-22 2,-33 0,-10 -1,-21 -4,-31 -6,-20 -20,-37 -36,-50 -9,-7 -18,-13 -27,-18 -9,-5 -19,-10 -29,-14 -19,-9 -40,-16 -60,-23 -21,-6 -41,-12 -62,-16 -21,-5 -42,-10 -63,-15 -10,-3 -20,-5 -31,-7 -10,-3 -20,-5 -31,-7 -41,-9 -82,-19 -121,-30 -40,-11 -78,-24 -114,-41 -36,-17 -69,-37 -96,-65 -13,-13 -25,-28 -34,-45 -9,-16 -14,-34 -17,-52 -6,-35 -7,-69 -2,-102 2,-16 6,-32 11,-47 6,-15 12,-29 19,-42 7,-13 15,-26 24,-37 9,-11 19,-21 29,-30 20,-18 42,-30 64,-39 21,-8 42,-13 61,-16 19,-2 36,-2 51,-2 15,1 27,1 37,2 11,2 18,3 24,4 5,2 7,3 7,3z"/>
  <path class="fil1" d="M1256 921c0,0 7,-2 17,-6 2,-1 5,-2 7,-4 3,-1 5,-3 8,-4 3,-2 5,-4 8,-6 2,-2 5,-5 7,-7 1,-3 3,-6 4,-9 1,-3 2,-6 3,-9 0,-2 0,-5 0,-8 0,0 0,-1 -1,-2 0,0 0,-1 0,-1 -1,-1 -1,-2 -2,-3 -3,-5 -6,-7 -9,-9 -2,-2 -4,-3 -4,-3 0,0 2,0 5,1 3,1 7,3 12,7 1,1 2,2 3,4 0,0 1,1 1,2 1,1 1,1 1,2 1,4 2,8 2,11 -1,4 -2,8 -3,11 -1,4 -3,8 -6,11 -2,3 -5,6 -8,8 -3,2 -6,4 -9,6 -3,2 -6,3 -9,4 -3,2 -6,2 -9,3 -5,1 -10,1 -13,1 -3,0 -5,0 -5,0z"/>
  <path class="fil1" d="M1216 859c0,5 6,11 10,11 4,0 8,-4 8,-8 0,-4 -18,-7 -18,-3z"/>
  <path class="fil1" d="M1585 1447c0,0 -186,-56 -328,-84 0,0 65,8 101,15l-60 -17c0,0 68,8 100,16l-56 -16c0,0 87,4 175,40l-57 -12c0,0 57,16 89,34l-82 -21c0,0 69,21 118,45z"/>
  <path class="fil1" d="M1558 1746c0,0 -101,13 -156,26 -54,12 -81,14 -123,42 0,0 30,-12 58,-17 0,0 -17,5 -31,11 0,0 42,-12 77,-17 0,0 -8,5 -26,11 0,0 62,-16 128,-22 0,0 -24,-3 -38,-3 0,0 61,-10 80,-12 0,0 -30,2 -51,4l82 -23z"/>
  <path class="fil1" d="M1518 2109c0,0 -146,7 -201,-11 0,0 24,5 42,4 0,0 -21,-6 -31,-9 0,0 52,4 61,5l-31 -7c0,0 73,6 115,6 0,0 -17,3 -29,4l50 2 -26 2 50 4z"/>
  <path class="fil2" d="M1244 433c0,0 -215,-3 -198,-147 16,-144 -60,-220 -180,-136 -120,83 -211,74 -211,74 0,0 2,120 187,173 186,53 220,169 402,172l0 -136z"/>
  <path class="fil3" d="M1225 451l0 102c0,0 -59,-7 -111,-35 0,0 41,13 64,15 0,0 -68,-20 -88,-33 0,0 60,13 72,14 0,0 -66,-24 -86,-34 0,0 64,11 78,14 0,0 -75,-30 -100,-44 0,0 70,20 84,23 0,0 -71,-22 -110,-59 0,0 41,17 98,38 0,0 -78,-35 -102,-71 0,0 58,36 115,53 58,17 86,17 86,17z"/>
  <path class="fil3" d="M678 243c0,0 1,0 2,0 2,0 4,0 7,-1 5,-1 14,-2 24,-4 10,-2 23,-6 37,-10 14,-5 30,-11 46,-19 17,-7 34,-17 52,-28 4,-3 9,-5 13,-8 5,-3 9,-7 14,-10 2,-1 4,-3 6,-4 3,-2 5,-3 8,-5 5,-3 10,-6 15,-9 5,-2 10,-5 16,-7 5,-2 11,-4 17,-6 12,-3 25,-4 38,-1 6,2 12,4 18,8 1,1 3,2 4,3 1,1 2,2 4,3 1,1 2,2 3,3 1,1 1,1 2,2l1 1c0,0 0,0 0,0l0 0 1 1 3 3c0,1 1,2 1,2l1 2c2,3 4,6 5,9 1,1 2,2 3,4 0,1 1,3 2,4 1,3 2,6 3,9 4,12 6,25 8,37 1,12 1,25 1,37 0,1 0,3 0,4l0 5c-1,3 -1,6 -1,9 -1,3 -1,6 -1,9 0,1 0,3 -1,4 0,2 0,3 0,5 0,5 0,11 0,17 0,1 0,2 1,4l0 2 0 2c0,1 1,3 1,4 0,1 0,3 1,4 2,11 6,21 11,31 5,9 11,18 18,25 7,8 14,14 22,20 8,5 16,10 24,14 8,5 16,8 24,11 8,3 15,6 22,8 14,4 27,7 37,9 11,2 19,4 25,4 6,1 9,1 9,1 0,0 -3,0 -9,0 -6,-1 -14,-1 -25,-3 -10,-1 -23,-4 -38,-8 -14,-3 -31,-9 -47,-17 -17,-8 -34,-18 -50,-34 -7,-8 -14,-17 -19,-27 -2,-2 -3,-5 -4,-7 -1,-2 -2,-3 -2,-4 -1,-2 -1,-3 -2,-4 0,-1 -1,-3 -1,-4 -1,-2 -1,-3 -2,-4 0,-2 0,-3 -1,-5 0,0 0,-1 0,-2l-1 -2c0,-2 0,-3 -1,-4 0,-2 0,-3 0,-5l-1 -2 0 -2c0,-2 0,-3 -1,-5 0,-6 0,-12 0,-18 0,-1 0,-3 0,-4 1,-2 1,-3 1,-5 0,-3 0,-6 1,-9 0,-3 0,-6 0,-9l0 -4c1,-1 1,-3 1,-4 0,-12 0,-24 -2,-36 -1,-12 -3,-24 -7,-35 -1,-3 -2,-5 -3,-8 -1,-1 -1,-3 -2,-4 -1,-1 -1,-3 -2,-4 -1,-2 -3,-5 -4,-7l-2 -2c0,0 0,-1 -1,-2l-3 -3 0 -1 0 0c0,0 0,0 0,0l-1 -1c0,0 -1,-1 -1,-1 -1,-1 -2,-2 -4,-3 -1,-1 -2,-2 -3,-3 -1,-1 -2,-1 -3,-2 -3,-2 -5,-3 -8,-4 -2,-1 -5,-2 -7,-3 -3,0 -6,-1 -9,-1 -1,0 -2,0 -4,0l-1 0 -1 0 0 0 -2 0c-6,0 -11,1 -17,2 -5,1 -11,3 -16,5 -5,2 -10,4 -15,7 -5,2 -10,5 -15,8 -2,1 -5,3 -7,4 -2,2 -5,3 -7,5 -4,3 -9,6 -14,9 -4,3 -9,6 -13,8 -19,11 -37,20 -53,27 -3,1 -5,2 -7,3 -2,1 -4,2 -6,2 -4,2 -8,4 -12,5 -4,1 -8,3 -12,4 -4,1 -7,2 -11,3 -14,4 -27,7 -38,9 -2,0 -5,0 -7,1 -2,0 -5,0 -7,1 -4,0 -7,0 -10,1 -3,0 -5,0 -7,0 -1,0 -2,0 -2,0z"/>
  <path class="fil2" d="M642 257c0,0 -353,120 -642,94 0,0 43,149 253,131 211,-18 431,-152 431,-152 0,0 -29,-31 -42,-73z"/>
  <path class="fil3" d="M219 464c-5,0 -9,1 -14,1l-7 -1c-2,0 -4,0 -7,0l-6 0c-1,-1 -3,-1 -4,-1l-3 0 -7 -1c-2,0 -4,-1 -7,-1 -2,0 -4,-1 -7,-1l-6 -1 -4 -1 -3 -1 -7 -2c-2,0 -4,-1 -6,-2l-3 -1 -2 0 -2 -1c-4,-2 -8,-3 -13,-5 -2,-1 -4,-2 -6,-3l-6 -3c-2,-1 -4,-2 -6,-3 -2,-1 -4,-3 -6,-4l-6 -4c-1,0 -2,-1 -3,-1l-3 -3c-1,-1 -3,-2 -5,-4l-5 -4c-1,-1 -2,-1 -3,-2l-3 -3 -5 -4c-1,-2 -3,-4 -5,-5 -1,-2 -3,-4 -4,-6 -6,-7 -12,-14 -17,-22l-4 -6 8 0c12,1 25,1 38,1 6,0 12,0 19,0l19 0c3,0 6,-1 9,-1l9 0 10 0c3,-1 6,-1 9,-1l19 -1 19 -2c7,0 13,-1 19,-1 6,-1 13,-1 19,-2l19 -2c6,-1 12,-2 19,-2l9 -1 9 -2c7,-1 13,-1 19,-2l19 -3 19 -3c6,-1 12,-2 18,-3 7,-1 13,-2 19,-3 6,-1 13,-3 19,-4l18 -3 19 -4 19 -4c12,-2 24,-5 37,-8 12,-3 25,-5 37,-8 12,-3 24,-6 37,-9 12,-4 24,-7 37,-10 12,-3 24,-7 36,-10 -12,4 -24,8 -36,12 -12,4 -24,8 -36,11 -12,4 -25,7 -37,11 -12,3 -24,6 -37,9 -12,3 -24,6 -37,9l-18 5 -19 4c-12,2 -25,5 -37,7 -6,1 -13,2 -19,4 -6,1 -12,2 -19,3 -6,1 -12,2 -19,3l-18 3c-7,1 -13,2 -19,3l-10 1 -9 1c-6,1 -13,2 -19,3l-19 2c-6,0 -13,1 -19,1 -6,1 -13,2 -19,2l-19 1 -19 1c-3,1 -6,1 -10,1l-9 0 -10 0c-3,0 -6,1 -9,1l-19 0c-7,0 -13,0 -19,-1 -13,0 -26,0 -39,-1l4 -6c4,8 10,15 15,22 2,1 3,3 5,5 1,2 3,3 4,5l5 4 2 3c1,1 2,1 3,2l5 4c2,2 3,3 5,5l3 2c1,0 2,1 3,2l5 3c2,2 4,3 6,4 2,1 4,2 6,3l5 4c2,1 4,2 6,3 5,2 9,3 13,5l1 1 2 0 3 1c2,1 4,2 7,3l6 1 3 1 4 1 6 2c2,0 5,1 7,1 2,1 4,1 6,2l7 1 3 0c2,0 3,1 4,1l7 1c2,0 4,0 6,0l7 1c5,0 9,0 14,0z"/>
  <path class="fil2" d="M689 334c0,0 -322,189 -610,222 0,0 72,138 275,77 202,-60 401,-247 401,-247 0,0 -38,-20 -66,-52z"/>
  <path class="fil3" d="M257 629c-4,0 -7,0 -10,0l-5 0c-2,0 -3,0 -5,0 -3,0 -7,0 -10,-1l-5 0c-2,-1 -3,-1 -5,-1 -3,-1 -6,-1 -10,-2l-2 0 -3 -1 -4 -1c-4,-1 -7,-2 -10,-3 -3,-1 -6,-2 -10,-3l-4 -2c-2,0 -3,-1 -5,-2 -3,-1 -6,-3 -9,-4 -1,-1 -3,-2 -4,-2 -2,-1 -3,-2 -5,-3l-4 -2 -2 -2c-1,0 -2,-1 -2,-1l-4 -3c-2,-1 -3,-2 -4,-3 -3,-2 -6,-4 -8,-6 -6,-4 -11,-9 -15,-14l-4 -4 6 -1 19 -4c3,0 6,-1 9,-1l9 -2 10 -2c3,-1 6,-2 9,-2l18 -5 5 -1 5 -1 9 -2c6,-2 12,-3 18,-5l19 -5 18 -5 9 -3 9 -3c6,-2 13,-3 19,-5l18 -6c6,-2 12,-4 18,-6 12,-4 24,-9 36,-13 12,-4 24,-9 36,-13 6,-2 11,-5 17,-7 6,-2 12,-5 18,-7l18 -7 17 -8 18 -7c6,-3 12,-5 18,-8l17 -7 17 -8c12,-5 24,-11 35,-16 12,-6 23,-11 35,-17 5,-2 11,-5 17,-8l17 -8c11,-6 23,-12 34,-18 -11,7 -22,13 -33,20 -11,6 -22,12 -34,18 -11,6 -22,12 -33,18 -12,6 -23,11 -35,17l-17 8 -17 8c-12,6 -24,11 -35,16l-18 8 -18 7c-5,3 -11,5 -17,7l-9 4 -9 3c-12,5 -24,10 -36,14 -12,4 -24,9 -36,13 -12,4 -24,8 -37,12 -6,2 -12,3 -18,5l-9 3 -9 3c-6,1 -13,3 -19,5l-18 5c-7,1 -13,3 -19,4l-9 2 -5 2 -5 1 -18 4c-4,0 -7,1 -10,1l-9 2 -10 2c-3,0 -6,1 -9,1l-19 3 2 -5c4,4 9,9 14,13 2,3 4,5 7,7 1,1 3,2 4,3l4 2c1,1 1,1 2,2l2 1 4 3c1,1 3,2 4,2 2,1 3,2 4,3 3,1 6,3 9,4 2,1 3,2 4,2l5 2c3,2 6,3 9,4 3,1 6,2 9,3l5 1 2 1 3 1c3,0 6,1 9,2 2,0 4,0 5,1l5 0c3,1 7,1 10,2 2,0 3,0 5,0l5 1c3,0 6,0 10,0z"/>
  <path class="fil2" d="M766 390c0,0 -256,257 -527,360 0,0 104,115 285,7 181,-108 337,-331 337,-331 0,0 -55,-11 -95,-36z"/>
  <path class="fil3" d="M375 784l-6 0c-3,0 -5,0 -7,0l-3 0 -3 0c-3,0 -5,0 -7,-1 -2,0 -4,0 -6,-1l-7 -1 -6 -1c-2,0 -5,-1 -7,-1 -2,-1 -4,-2 -6,-2 -2,-1 -4,-2 -6,-2 -2,-1 -4,-2 -6,-3 -2,0 -5,-1 -7,-2 -2,-1 -4,-2 -6,-3 -2,-1 -4,-2 -5,-3l-3 -1 -3 -2c-2,-1 -4,-2 -6,-3l-4 -3 5 -2 17 -8c2,-1 5,-2 8,-4l8 -4c6,-3 12,-5 17,-8l17 -9c6,-2 11,-6 17,-8 5,-4 11,-6 16,-10l16 -9c6,-3 11,-6 16,-9l9 -5 8 -5 16 -10c10,-6 21,-13 31,-20 11,-7 21,-14 31,-21 11,-7 21,-14 31,-21 11,-7 21,-15 31,-22l15 -11 15 -11c10,-8 20,-16 30,-23 10,-8 19,-16 29,-24 10,-8 20,-15 29,-23 10,-8 20,-16 29,-25 10,-8 19,-16 29,-24 9,-8 19,-17 28,-25 -9,9 -18,18 -27,27 -9,8 -18,17 -27,26 -9,8 -18,17 -28,25 -9,8 -19,16 -28,25 -10,8 -20,16 -29,24 -10,8 -20,16 -30,23l-15 12 -15 11c-5,4 -10,8 -15,12 -5,3 -10,7 -15,11 -10,7 -21,14 -31,21 -11,7 -21,14 -32,21 -10,7 -21,14 -31,20 -11,7 -22,13 -33,19 -5,4 -11,7 -16,10l-17 9c-5,3 -11,6 -17,9 -5,2 -11,5 -17,8l-17 8c-5,3 -11,6 -17,8l-8 4c-3,1 -6,3 -9,4l-17 7 0 -5c2,2 4,3 5,4l3 2 3 1c2,1 4,2 5,3 2,1 4,2 6,3 2,1 4,2 6,3 2,1 4,1 6,2 2,1 4,2 6,3 2,0 4,1 6,2 2,0 4,1 6,1l7 2 6 1c2,1 4,1 6,2 2,0 5,0 7,0l3 1 3 0c2,0 4,1 7,1l6 0z"/>
  <path class="fil2" d="M867 427c0,0 -124,244 -305,348 0,0 114,101 223,-4 110,-105 164,-307 164,-307 0,0 -22,-20 -82,-37z"/>
  <path class="fil3" d="M677 799l-6 0c-1,0 -3,0 -5,0 -2,0 -3,0 -5,0 -2,0 -4,0 -5,-1l-3 0 -3 0c-1,-1 -3,-1 -5,-1 -1,-1 -3,-1 -5,-1 -2,-1 -3,-1 -5,-2 -2,0 -3,-1 -5,-1 -2,-1 -3,-1 -5,-2 -2,0 -3,-1 -5,-2 -2,0 -3,-1 -5,-2 -2,0 -3,-1 -5,-2 -1,0 -3,-1 -5,-2 -1,-1 -3,-1 -4,-2 -2,-1 -4,-2 -5,-3l-4 -2 4 -3 11 -7c2,-2 3,-3 5,-4l5 -5c4,-2 8,-5 11,-8l5 -4 5 -4c7,-6 14,-12 21,-18l10 -9c3,-3 6,-6 9,-9l5 -5 5 -4c3,-4 6,-7 10,-10l9 -10c3,-3 6,-6 9,-9l5 -5 4 -5c3,-4 6,-7 9,-11 6,-6 12,-13 17,-20 6,-7 12,-14 17,-21 3,-3 6,-7 9,-10 3,-4 5,-7 8,-11 5,-7 11,-14 16,-22l8 -10 8 -11c5,-8 10,-15 15,-23 6,-7 11,-14 16,-22 9,-15 19,-30 29,-45 -4,8 -8,16 -13,24 -4,8 -8,15 -13,23 -2,4 -5,8 -7,12 -2,4 -4,8 -7,12 -2,3 -5,7 -7,11 -2,4 -5,8 -7,11l-8 12 -7 11c-3,4 -5,7 -8,11l-8 11c-3,4 -5,7 -8,11 -3,4 -6,7 -8,11 -6,7 -11,14 -17,21 -6,7 -12,14 -18,21 -3,3 -6,7 -9,10l-4 5 -5 5c-3,3 -6,7 -9,10l-10 10c-3,3 -6,6 -9,9l-5 5 -5 5c-4,3 -7,6 -10,9l-11 9c-6,6 -13,11 -21,17l-5 4 -5 4c-4,3 -8,6 -11,8 -4,3 -8,5 -12,8l-11 7 0 -5c1,1 3,2 4,3 2,1 3,2 5,3 1,0 3,1 4,2 2,1 3,2 5,2 1,1 3,2 5,2 1,1 3,2 4,2 2,1 3,2 5,2 2,1 3,2 5,2 2,1 3,1 5,2 2,0 3,1 5,1 1,1 3,1 5,1l2 1 3 0c2,1 3,1 5,1 2,1 3,1 5,1 2,0 4,1 5,1l6 0z"/>
  <path class="fil2" d="M955 467c0,0 -44,232 -173,333 0,0 116,86 183,-13 67,-98 70,-263 70,-263 0,0 -29,-31 -80,-57z"/>
  <path class="fil3" d="M880 815l-4 0c-2,0 -3,0 -4,0 -2,0 -3,0 -5,0 -1,0 -3,0 -4,0 -1,0 -3,-1 -4,-1 -2,0 -3,0 -5,-1 -1,0 -2,0 -4,0 -1,-1 -3,-1 -4,-1 -1,-1 -3,-1 -4,-1 -1,-1 -3,-1 -4,-2 -2,0 -3,-1 -4,-1 -2,0 -3,-1 -4,-1 -2,-1 -3,-1 -4,-2 -2,-1 -3,-1 -4,-2 -3,-1 -6,-2 -8,-3l-4 -2 3 -3 7 -7c3,-3 5,-6 8,-8 2,-3 4,-6 6,-8l4 -4 3 -5 3 -4 2 -2 2 -2 6 -8 6 -9 2 -2 1 -2 3 -5 3 -4c1,-2 2,-3 3,-5 1,-3 3,-6 5,-9l6 -9c1,-3 3,-6 5,-9 3,-6 7,-12 10,-19l5 -9 2 -5 2 -5 5 -9 4 -10 3 -5 2 -5 4 -9 4 -10c1,-3 3,-7 4,-10 3,-7 5,-13 8,-20 2,-7 5,-13 7,-20 2,-7 5,-13 7,-20 2,-7 5,-13 7,-20l6 -21c-2,14 -5,28 -9,42 -2,7 -4,14 -6,21 -2,7 -4,14 -6,20 -2,7 -4,14 -7,21 -2,7 -5,13 -7,20l-4 10 -2 5 -2 5 -5 10 -4 9 -2 5 -3 5 -5 10c-3,6 -6,12 -10,19 -3,6 -7,12 -11,18 -2,3 -4,6 -6,9 0,2 -1,3 -2,5l-4 4 -3 5 -1 2 -2 2 -6 9c-5,5 -9,11 -14,17l-3 4 -4 4c-2,2 -5,5 -7,7 -3,3 -5,6 -8,8l-8 7 -1 -4c3,1 5,2 8,4 2,1 5,2 7,3 2,1 3,1 4,2 2,0 3,1 4,1 1,1 3,1 4,2 1,0 3,1 4,1 1,1 3,1 4,2 1,0 3,0 4,1 1,0 3,1 4,1 2,0 3,1 4,1 2,0 3,0 4,1 2,0 3,0 5,0 1,0 2,1 4,1l4 0z"/>
  <path class="fil2" d="M1043 531c0,0 8,177 -74,273 0,0 126,37 152,-42 30,-91 5,-192 5,-192 0,0 -37,-14 -83,-39z"/>
  <path class="fil3" d="M1076 785l-2 1 -2 1c-1,0 -3,1 -4,2 -1,0 -3,1 -4,1 -2,1 -3,1 -5,2 -2,0 -3,0 -5,1 -1,0 -3,0 -4,1 -3,0 -7,1 -10,1 -3,0 -6,0 -9,0 -2,0 -3,1 -5,1 -1,0 -3,0 -5,0 -3,-1 -6,-1 -9,-1 -3,0 -6,0 -10,-1l-5 0 3 -5 7 -13 1 -2 1 -1 1 -4 4 -6 1 -4 2 -3 3 -7c1,-2 2,-4 3,-6l2 -7 3 -7 2 -7c2,-5 3,-9 5,-14 1,-5 3,-9 4,-14l2 -7c1,-3 1,-5 2,-7 1,-5 2,-10 3,-15 1,-5 2,-9 3,-14l3 -15 3 -14c0,-5 1,-10 2,-15 0,-5 1,-10 2,-15 0,-5 1,-9 2,-14l1 -15c1,5 1,10 1,15l0 7 0 8c0,5 -1,10 -1,15 0,5 -1,10 -1,15 -1,5 -1,9 -2,14l-2 15c0,5 -1,10 -2,15 -1,5 -2,10 -3,15 -1,2 -1,5 -2,7l-2 7 -1 4c0,1 0,2 -1,4l-2 7c-1,2 -1,5 -2,7l-3 7 -2 7 -3 7c-2,5 -4,10 -6,14l-3 7 -2 3 -2 4 -3 6 -2 4 -1 1 -1 2 -8 13 -3 -6c4,1 7,1 10,1 3,1 6,1 9,1 1,1 3,1 4,1 2,0 3,0 5,0 3,0 6,0 9,0 3,0 6,0 9,0 2,0 3,0 5,0 1,-1 3,-1 4,-1 2,0 4,0 5,-1 2,0 3,0 5,-1 1,0 3,0 4,-1 2,0 3,-1 4,-1z"/>
  <path class="fil2" d="M1136 574c0,0 31,99 0,185 1,3 105,12 104,-94 0,-52 3,-66 4,-73 0,0 -72,-3 -108,-18z"/>
  <path class="fil3" d="M1202 722c-1,0 -1,1 -2,2 -1,0 -1,1 -2,2 -1,1 -1,1 -2,2 -1,1 -2,1 -2,2 -1,0 -2,1 -3,2 0,0 -1,1 -2,1 -1,1 -2,1 -2,2 -1,0 -2,1 -3,1 -1,1 -2,1 -3,2 0,0 -1,0 -2,1 -2,1 -4,1 -6,2 -3,1 -7,2 -11,3l-5 1 1 -5 1 -9c1,-3 1,-6 2,-8 0,-3 0,-6 1,-9 0,-1 0,-3 0,-4l1 -5 0 -4c0,-1 0,-3 0,-4 1,-3 1,-6 1,-9 0,-3 0,-5 0,-8 0,-3 0,-6 0,-9 1,-3 1,-6 1,-8 0,-3 0,-6 0,-9 -1,-3 -1,-6 -1,-9l0 -8c0,-3 0,-6 0,-9l-1 -9 0 -9c0,-2 -1,-5 -1,-8 1,3 2,5 3,8l1 4 1 5c1,3 1,5 2,8 0,3 1,6 1,9 1,3 1,6 2,9 0,3 0,5 1,8 0,3 0,6 0,9 1,3 1,6 1,9 0,3 0,6 0,9 0,3 0,6 0,9 -1,3 -1,6 -1,9 0,1 0,3 0,4l-1 5 0 4c-1,1 -1,3 -1,4 -1,3 -1,6 -2,9 0,3 -1,6 -2,9l-2 8 -4 -4c2,-1 4,-1 5,-1 1,0 2,0 3,0 1,-1 2,-1 3,-1 1,0 3,-1 5,-1 1,-1 2,-1 3,-1 0,0 1,-1 2,-1 1,0 2,-1 3,-1 1,0 1,-1 2,-1 1,0 2,-1 3,-1 1,-1 1,-1 2,-1 1,-1 2,-1 3,-2 0,0 1,-1 2,-1 1,-1 2,-1 2,-2 1,0 2,-1 3,-1z"/>
  <path class="fil3" d="M574 298c0,0 -38,11 -72,19 0,0 62,-8 82,-14l-51 20c0,0 55,-9 69,-11l-42 16c0,0 43,-6 53,-8l-33 13 52 -10 -31 11 44 -7 -22 10 33 -5 -36 26c0,0 50,-24 55,-27 0,0 -24,-29 -38,-53l-63 20z"/>
  <path class="fil3" d="M689 354c0,0 -106,59 -136,72 0,0 41,-10 59,-19l-23 16c0,0 33,-9 52,-19l-25 15c0,0 31,-10 46,-17l-24 17c0,0 36,-14 50,-22l-20 17c0,0 28,-11 40,-18l-17 14c0,0 24,-8 35,-15l-15 21c0,0 32,-24 34,-28 0,0 -42,-21 -56,-34z"/>
  <path class="fil3" d="M772 408c0,0 -68,67 -106,98 0,0 43,-27 58,-39l-27 31c0,0 40,-25 51,-35l-28 31c0,0 34,-21 46,-33l-21 24c0,0 31,-16 42,-26l-20 22c0,0 21,-12 31,-24l-11 16c0,0 17,-10 32,-24l-8 18c0,0 28,-24 36,-33 0,0 -56,-13 -75,-26z"/>
  <path class="fil3" d="M877 445c0,0 -35,61 -66,107 0,0 25,-23 37,-40l-16 40c0,0 28,-32 35,-43l-15 32c0,0 21,-24 31,-37l-10 31c0,0 14,-16 25,-34l-6 26c0,0 17,-21 24,-37l0 33c0,0 10,-29 20,-50 0,0 -33,-23 -59,-28z"/>
  <path class="fil3" d="M968 494c0,0 -25,94 -42,131 0,0 23,-35 32,-61 0,0 -7,37 -9,47 0,0 13,-24 20,-52 0,0 -2,30 -4,38 0,0 13,-28 18,-44 0,0 0,30 -2,37 0,0 12,-27 14,-41 0,0 0,21 0,29 0,0 10,-19 12,-35 0,0 1,19 0,26 0,0 8,-21 9,-36 0,0 4,20 3,28 0,0 7,-14 9,-29 0,0 -29,-26 -60,-38z"/>
  <path class="fil3" d="M1062 557c0,0 0,52 -7,97 0,0 11,-22 13,-46 0,0 2,19 -1,32 0,0 10,-20 12,-37 0,0 1,14 0,25 0,0 6,-16 7,-31 0,0 0,12 -1,21 0,0 8,-15 9,-27 0,0 1,15 0,21 0,0 6,-11 7,-24 0,0 3,11 3,20 0,0 4,-14 5,-24l4 13c0,0 3,-10 3,-18 0,0 -42,-15 -54,-22z"/>
  <path class="fil3" d="M1157 594c0,0 8,9 12,73 0,0 5,-12 7,-36 0,0 3,16 4,25 0,0 5,-17 6,-29 0,0 2,10 4,18 0,0 5,-18 5,-27 0,0 3,12 3,19 0,0 5,-12 5,-23 0,0 2,10 3,17 0,0 5,-14 6,-22l4 16c0,0 6,-17 16,-21 0,0 -37,1 -75,-10z"/>
  <path class="fil3" d="M941 152c0,0 -149,117 -262,102 0,0 46,12 94,6 0,0 -33,8 -55,8 0,0 51,12 104,-5 0,0 -26,13 -40,15 0,0 39,-1 68,-15 0,0 -12,10 -18,13 0,0 45,-6 76,-44 0,0 -9,7 -16,10 0,0 24,-24 34,-42 0,0 -29,24 -39,30 0,0 38,-33 49,-52 0,0 -23,18 -47,30 0,0 29,-20 52,-56z"/>
  <path class="fil2" d="M1593 433c0,0 215,-3 199,-147 -17,-144 60,-220 180,-136 120,83 211,74 211,74 0,0 -2,120 -188,173 -185,53 -220,169 -402,172l0 -136z"/>
  <path class="fil3" d="M1613 451l0 102c0,0 58,-7 111,-35 0,0 -42,13 -64,15 0,0 67,-20 87,-33 0,0 -60,13 -71,14 0,0 65,-24 85,-34 0,0 -64,11 -78,14 0,0 75,-30 100,-44 0,0 -69,20 -84,23 0,0 71,-22 110,-59 0,0 -41,17 -98,38 0,0 78,-35 103,-71 0,0 -58,36 -116,53 -58,17 -85,17 -85,17z"/>
  <path class="fil3" d="M2159 243c0,0 0,0 -2,0 -1,0 -4,0 -6,-1 -6,-1 -14,-2 -25,-4 -10,-2 -23,-6 -37,-10 -14,-5 -29,-11 -46,-19 -16,-7 -34,-17 -52,-28 -4,-3 -8,-5 -13,-8 -4,-3 -9,-7 -13,-10 -3,-1 -5,-3 -7,-4 -3,-2 -5,-3 -7,-5 -5,-3 -10,-6 -15,-9 -6,-2 -11,-5 -17,-7 -5,-2 -11,-4 -17,-6 -12,-3 -25,-4 -37,-1 -7,2 -13,4 -18,8 -2,1 -3,2 -5,3 -1,1 -2,2 -3,3 -2,1 -3,2 -4,3 -1,1 -1,1 -2,2l-1 1c1,0 0,0 0,0l0 0 0 1 -3 3c-1,1 -1,2 -2,2l-1 2c-2,3 -4,6 -5,9 -1,1 -2,2 -2,4 -1,1 -2,3 -2,4 -2,3 -3,6 -4,9 -4,12 -6,25 -8,37 -1,12 -1,25 -1,37 0,1 0,3 0,4l1 5c0,3 0,6 0,9 1,3 1,6 1,9 1,1 1,3 1,4 0,2 0,3 0,5 0,5 0,11 0,17 0,1 0,2 0,4l-1 2 0 2c0,1 0,3 0,4 -1,1 -1,3 -1,4 -2,11 -6,21 -11,31 -5,9 -12,18 -19,25 -6,8 -14,14 -22,20 -8,5 -16,10 -24,14 -8,5 -16,8 -24,11 -7,3 -15,6 -22,8 -14,4 -27,7 -37,9 -11,2 -19,4 -25,4 -5,1 -8,1 -8,1 0,0 3,0 8,0 6,-1 15,-1 25,-3 11,-1 24,-4 38,-8 15,-3 31,-9 48,-17 16,-8 34,-18 49,-34 7,-8 14,-17 20,-27 1,-2 2,-5 4,-7 0,-2 1,-3 1,-4 1,-2 1,-3 2,-4 1,-1 1,-3 2,-4 0,-2 0,-3 1,-4 0,-2 1,-3 1,-5 0,0 0,-1 1,-2l0 -2c0,-2 1,-3 1,-4 0,-2 0,-3 1,-5l0 -2 0 -2c0,-2 1,-3 1,-5 0,-6 0,-12 0,-18 0,-1 0,-3 0,-4 0,-2 0,-3 0,-5 -1,-3 -1,-6 -1,-9 -1,-3 -1,-6 -1,-9l0 -4c0,-1 0,-3 0,-4 -1,-12 0,-24 1,-36 1,-12 4,-24 7,-35 1,-3 2,-5 4,-8 0,-1 1,-3 1,-4 1,-1 2,-3 2,-4 2,-2 3,-5 5,-7l1 -2c0,0 1,-1 1,-2l3 -3 0 -1 1 0c0,0 -1,0 0,0l0 -1c1,0 1,-1 2,-1 1,-1 2,-2 3,-3 1,-1 2,-2 3,-3 1,-1 2,-1 4,-2 2,-2 4,-3 7,-4 2,-1 5,-2 8,-3 2,0 5,-1 8,-1 1,0 3,0 4,0l1 0 1 0 0 0 2 0c6,0 12,1 17,2 6,1 11,3 16,5 5,2 11,4 16,7 5,2 10,5 14,8 3,1 5,3 7,4 3,2 5,3 7,5 5,3 9,6 14,9 5,3 9,6 14,8 18,11 36,20 53,27 2,1 4,2 6,3 2,1 4,2 6,2 4,2 8,4 12,5 4,1 8,3 12,4 4,1 7,2 11,3 15,4 27,7 38,9 3,0 5,0 7,1 3,0 5,0 7,1 4,0 8,0 11,1 2,0 5,0 6,0 2,0 2,0 2,0z"/>
  <path class="fil2" d="M2195 257c0,0 353,120 642,94l0 1c-4,12 -52,148 -253,130 -211,-18 -431,-152 -431,-152 0,0 30,-31 42,-73z"/>
  <path class="fil3" d="M2619 464c4,0 9,1 13,1l7 -1c2,0 5,0 7,0l7 0c1,-1 2,-1 3,-1l3 0 7 -1c2,0 5,-1 7,-1 2,0 5,-1 7,-1l7 -1 3 -1 3 -1 7 -2c2,0 4,-1 6,-2l4 -1 1 0 2 -1c4,-2 9,-3 13,-5 2,-1 4,-2 6,-3l6 -3c2,-1 4,-2 6,-3 2,-1 4,-3 6,-4l6 -4c1,0 2,-1 3,-1l3 -3c2,-1 4,-2 5,-4l6 -4c1,-1 2,-1 2,-2l3 -3 5 -4c2,-2 3,-4 5,-5 1,-2 3,-4 5,-6 6,-7 11,-14 16,-22l4 -6 -8 0c-12,1 -25,1 -37,1 -7,0 -13,0 -19,0l-19 0c-3,0 -7,-1 -10,-1l-9 0 -10 0c-3,-1 -6,-1 -9,-1l-19 -1 -19 -2c-6,0 -13,-1 -19,-1 -6,-1 -12,-1 -19,-2l-19 -2c-6,-1 -12,-2 -18,-2l-10 -1 -9 -2c-6,-1 -13,-1 -19,-2l-19 -3 -18 -3c-7,-1 -13,-2 -19,-3 -6,-1 -13,-2 -19,-3 -6,-1 -12,-3 -19,-4l-18 -3 -19 -4 -18 -4c-13,-2 -25,-5 -38,-8 -12,-3 -24,-5 -37,-8 -12,-3 -24,-6 -36,-9 -13,-4 -25,-7 -37,-10 -13,-3 -25,-7 -37,-10 12,4 24,8 36,12 12,4 24,8 37,11 12,4 24,7 36,11 12,3 25,6 37,9 12,3 25,6 37,9l19 5 18 4c13,2 25,5 38,7 6,1 12,2 18,4 7,1 13,2 19,3 6,1 13,2 19,3l19 3c6,1 12,2 19,3l9 1 9 1c7,1 13,2 19,3l19 2c7,0 13,1 19,1 7,1 13,2 19,2l19 1 19 1c4,1 7,1 10,1l9 0 10 0c3,0 6,1 10,1l19 0c6,0 12,0 19,-1 12,0 25,0 38,-1l-4 -6c-4,8 -9,15 -15,22 -1,1 -3,3 -4,5 -2,2 -3,3 -5,5l-5 4 -2 3c-1,1 -2,1 -3,2l-5 4c-1,2 -3,3 -5,5l-2 2c-1,0 -2,1 -3,2l-6 3c-2,2 -4,3 -5,4 -2,1 -4,2 -6,3l-6 4c-2,1 -4,2 -6,3 -4,2 -8,3 -13,5l-1 1 -2 0 -3 1c-2,1 -4,2 -6,3l-7 1 -3 1 -3 1 -7 2c-2,0 -4,1 -6,1 -3,1 -5,1 -7,2l-7 1 -3 0c-1,0 -2,1 -4,1l-6 1c-3,0 -5,0 -7,0l-7 1c-4,0 -9,0 -13,0z"/>
  <path class="fil2" d="M2149 334c0,0 321,189 609,222 0,0 -72,138 -274,77 -203,-60 -402,-247 -402,-247 0,0 38,-20 67,-52z"/>
  <path class="fil3" d="M2581 629c3,0 6,0 9,0l5 0c2,0 4,0 5,0 4,0 7,0 10,-1l5 0c2,-1 4,-1 5,-1 3,-1 7,-1 10,-2l2 0 3 -1 5 -1c3,-1 6,-2 9,-3 4,-1 7,-2 10,-3l4 -2c2,0 4,-1 5,-2 3,-1 6,-3 9,-4 2,-1 3,-2 5,-2 1,-1 3,-2 4,-3l4 -2 2 -2c1,0 2,-1 2,-1l5 -3c1,-1 2,-2 4,-3 2,-2 5,-4 8,-6 5,-4 10,-9 14,-14l5 -4 -6 -1 -19 -4c-3,0 -7,-1 -10,-1l-9 -2 -9 -2c-3,-1 -7,-2 -10,-2l-18 -5 -5 -1 -4 -1 -10 -2c-6,-2 -12,-3 -18,-5l-19 -5 -18 -5 -9 -3 -9 -3c-6,-2 -12,-3 -18,-5l-18 -6c-7,-2 -12,-4 -19,-6 -12,-4 -24,-9 -36,-13 -11,-4 -23,-9 -35,-13 -6,-2 -12,-5 -18,-7 -6,-2 -12,-5 -18,-7l-18 -7 -17 -8 -18 -7c-6,-3 -11,-5 -17,-8l-18 -7 -17 -8c-12,-5 -23,-11 -35,-16 -11,-6 -23,-11 -34,-17 -6,-2 -12,-5 -18,-8l-17 -8c-11,-6 -22,-12 -34,-18 11,7 22,13 33,20 11,6 23,12 34,18 11,6 22,12 34,18 11,6 23,11 34,17l17 8 18 8c11,6 23,11 35,16l17 8 18 7c6,3 12,5 18,7l8 4 9 3c12,5 24,10 36,14 12,4 24,9 36,13 12,4 25,8 37,12 6,2 12,3 18,5l9 3 10 3c6,1 12,3 18,5l19 5c6,1 12,3 18,4l10 2 4 2 5 1 19 4c3,0 6,1 9,1l10 2 9 2c3,0 6,1 9,1l20 3 -2 -5c-5,4 -9,9 -14,13 -3,3 -5,5 -8,7 -1,1 -2,2 -4,3l-4 2c0,1 -1,1 -2,2l-2 1 -4 3c-1,1 -2,2 -4,2 -1,1 -3,2 -4,3 -3,1 -6,3 -9,4 -1,1 -3,2 -4,2l-5 2c-3,2 -6,3 -9,4 -3,1 -6,2 -9,3l-5 1 -2 1 -3 1c-3,0 -6,1 -9,2 -2,0 -3,0 -5,1l-5 0c-3,1 -6,1 -10,2 -1,0 -3,0 -5,0l-5 1c-3,0 -6,0 -9,0z"/>
  <path class="fil2" d="M2071 390c0,0 256,257 527,360 0,0 -103,115 -285,7 -181,-108 -337,-331 -337,-331 0,0 55,-11 95,-36z"/>
  <path class="fil3" d="M2462 784l7 0c2,0 4,0 6,0l3 0 4 0c2,0 4,0 6,-1 2,0 5,0 7,-1l6 -1 7 -1c2,0 4,-1 6,-1 2,-1 4,-2 6,-2 2,-1 4,-2 7,-2 2,-1 4,-2 6,-3 2,0 4,-1 6,-2 2,-1 4,-2 6,-3 2,-1 4,-2 6,-3l3 -1 2 -2c2,-1 4,-2 6,-3l4 -3 -4 -2 -17 -8c-3,-1 -6,-2 -9,-4l-8 -4c-6,-3 -12,-5 -17,-8l-17 -9c-5,-2 -11,-6 -16,-8 -6,-4 -11,-6 -17,-10l-16 -9c-6,-3 -11,-6 -16,-9l-8 -5 -8 -5 -16 -10c-11,-6 -22,-13 -32,-20 -10,-7 -21,-14 -31,-21 -10,-7 -21,-14 -31,-21 -10,-7 -20,-15 -31,-22l-15 -11 -15 -11c-10,-8 -20,-16 -29,-23 -10,-8 -20,-16 -30,-24 -10,-8 -19,-15 -29,-23 -10,-8 -19,-16 -29,-25 -10,-8 -19,-16 -29,-24 -9,-8 -18,-17 -28,-25 9,9 18,18 27,27 9,8 18,17 27,26 9,8 19,17 28,25 10,8 19,16 29,25 9,8 19,16 29,24 9,8 19,16 29,23l15 12 15 11c5,4 10,8 15,12 5,3 10,7 15,11 11,7 21,14 31,21 11,7 21,14 32,21 10,7 21,14 32,20 11,7 21,13 32,19 6,4 11,7 17,10l16 9c6,3 11,6 17,9 6,2 11,5 17,8l17 8c5,3 11,6 17,8l9 4c2,1 5,3 8,4l18 7 -1 -5c-2,2 -3,3 -5,4l-3 2 -3 1c-1,1 -3,2 -5,3 -2,1 -4,2 -6,3 -2,1 -4,2 -6,3 -2,1 -4,1 -6,2 -2,1 -4,2 -6,3 -2,0 -4,1 -6,2 -2,0 -4,1 -6,1l-6 2 -7 1c-2,1 -4,1 -6,2 -2,0 -4,0 -6,0l-4 1 -3 0c-2,0 -4,1 -6,1l-7 0z"/>
  <path class="fil2" d="M1970 427c0,0 125,244 305,348 0,0 -114,101 -223,-4 -110,-105 -164,-307 -164,-307 0,0 22,-20 82,-37z"/>
  <path class="fil3" d="M2161 799l5 0c2,0 3,0 5,0 2,0 4,0 5,0 2,0 4,0 6,-1l2 0 3 0c2,-1 3,-1 5,-1 2,-1 3,-1 5,-1 2,-1 4,-1 5,-2 2,0 4,-1 5,-1 2,-1 4,-1 5,-2 2,0 4,-1 5,-2 2,0 4,-1 5,-2 2,0 4,-1 5,-2 2,0 3,-1 5,-2 2,-1 3,-1 5,-2 1,-1 3,-2 4,-3l4 -2 -4 -3 -10 -7c-2,-2 -4,-3 -6,-4l-5 -5c-4,-2 -7,-5 -11,-8l-5 -4 -5 -4c-7,-6 -14,-12 -21,-18l-9 -9c-4,-3 -7,-6 -10,-9l-5 -5 -5 -4c-3,-4 -6,-7 -9,-10l-10 -10c-3,-3 -6,-6 -9,-9l-4 -5 -5 -5c-3,-4 -6,-7 -9,-11 -6,-6 -12,-13 -17,-20 -6,-7 -12,-14 -17,-21 -3,-3 -6,-7 -9,-10 -2,-4 -5,-7 -8,-11 -5,-7 -11,-14 -16,-22l-8 -10 -8 -11c-5,-8 -10,-15 -15,-23 -5,-7 -10,-14 -15,-22 -10,-15 -20,-30 -29,-45 4,8 8,16 12,24 4,8 9,15 13,23 3,4 5,8 7,12 2,4 5,8 7,12 2,3 5,7 7,11 3,4 5,8 8,11l7 12 8 11c2,4 5,7 7,11l8 11c3,4 6,7 8,11 3,4 6,7 9,11 5,7 11,14 17,21 5,7 11,14 17,21 3,3 6,7 9,10l4 5 5 5c3,3 6,7 9,10l10 10c3,3 6,6 10,9l4 5 6 5c3,3 6,6 10,9l10 9c7,6 14,11 21,17l5 4 6 4c3,3 7,6 11,8 3,3 7,5 11,8l11 7 0 -5c-1,1 -2,2 -4,3 -1,1 -3,2 -4,3 -2,0 -3,1 -5,2 -2,1 -3,2 -5,2 -1,1 -3,2 -4,2 -2,1 -3,2 -5,2 -2,1 -3,2 -5,2 -1,1 -3,2 -5,2 -1,1 -3,1 -5,2 -1,0 -3,1 -5,1 -1,1 -3,1 -5,1l-2 1 -3 0c-1,1 -3,1 -5,1 -1,1 -3,1 -5,1 -2,0 -3,1 -5,1l-5 0z"/>
  <path class="fil2" d="M1882 467c0,0 44,232 173,333 0,0 -116,86 -183,-13 -67,-98 -70,-263 -70,-263 0,0 29,-31 80,-57z"/>
  <path class="fil3" d="M1957 815l4 0c2,0 3,0 5,0 1,0 3,0 4,0 1,0 3,0 4,0 2,0 3,-1 5,-1 1,0 2,0 4,-1 1,0 3,0 4,0 1,-1 3,-1 4,-1 2,-1 3,-1 4,-1 2,-1 3,-1 4,-2 2,0 3,-1 5,-1 1,0 2,-1 4,-1 1,-1 2,-1 4,-2 1,-1 2,-1 4,-2 2,-1 5,-2 8,-3l3 -2 -3 -3 -7 -7c-3,-3 -5,-6 -7,-8 -3,-3 -5,-6 -7,-8l-4 -4 -3 -5 -3 -4 -2 -2 -1 -2 -7 -8 -6 -9 -1 -2 -2 -2 -3 -5 -3 -4c-1,-2 -1,-3 -2,-5 -2,-3 -4,-6 -6,-9l-5 -9c-2,-3 -4,-6 -6,-9 -3,-6 -6,-12 -10,-19l-4 -9 -3 -5 -2 -5 -5 -9 -4 -10 -2 -5 -2 -5 -5 -9 -4 -10c-1,-3 -2,-7 -4,-10 -2,-7 -5,-13 -7,-20 -3,-7 -5,-13 -8,-20 -2,-7 -5,-13 -7,-20 -2,-7 -4,-13 -7,-20l-6 -21c3,14 6,28 9,42 2,7 4,14 6,21 2,7 4,14 6,20 2,7 5,14 7,21 2,7 5,13 7,20l4 10 2 5 3 5 4 10 4 9 3 5 2 5 5 10c3,6 6,12 10,19 4,6 7,12 11,18 2,3 4,6 6,9 1,2 2,3 3,5l3 4 3 5 1 2 2 2 6 9c5,5 9,11 14,17l4 4 3 4c3,2 5,5 8,7 2,3 5,6 7,8l8 7 1 -4c-3,1 -5,2 -8,4 -2,1 -5,2 -7,3 -1,1 -3,1 -4,2 -1,0 -3,1 -4,1 -1,1 -3,1 -4,2 -1,0 -2,1 -4,1 -1,1 -2,1 -4,2 -1,0 -2,0 -4,1 -1,0 -3,1 -4,1 -1,0 -3,1 -4,1 -1,0 -3,0 -4,1 -2,0 -3,0 -4,0 -2,0 -3,1 -5,1l-4 0z"/>
  <path class="fil2" d="M1794 531c0,0 -8,177 74,273 0,0 -126,37 -152,-42 -29,-91 -5,-192 -5,-192 0,0 37,-14 83,-39z"/>
  <path class="fil3" d="M1761 785l2 1 2 1c1,0 3,1 4,2 2,0 3,1 5,1 1,1 3,1 4,2 2,0 3,0 5,1 1,0 3,0 5,1 3,0 6,1 9,1 3,0 6,0 9,0 2,0 4,1 5,1 2,0 3,0 5,0 3,-1 6,-1 9,-1 4,0 7,0 10,-1l5 0 -3 -5 -7 -13 -1 -2 -1 -1 -1 -4 -3 -6 -2 -4 -2 -3 -2 -7c-1,-2 -2,-4 -3,-6l-3 -7 -3 -7 -2 -7c-2,-5 -3,-9 -5,-14 -1,-5 -2,-9 -4,-14l-2 -7c0,-3 -1,-5 -1,-7 -2,-5 -3,-10 -4,-15 -1,-5 -2,-9 -3,-14l-3 -15 -2 -14c-1,-5 -2,-10 -3,-15 0,-5 -1,-10 -2,-15 0,-5 -1,-9 -1,-14l-2 -15c0,5 0,10 0,15l-1 7 1 8c0,5 0,10 0,15 1,5 1,10 1,15 1,5 1,9 2,14l2 15c1,5 2,10 3,15 0,5 2,10 3,15 0,2 1,5 1,7l2 7 1 4c0,1 1,2 1,4l2 7c1,2 2,5 2,7l3 7 2 7 3 7c2,5 4,10 6,14l3 7 2 3 2 4 3 6 2 4 1 1 1 2 8 13 3 -6c-3,1 -6,1 -9,1 -3,1 -6,1 -9,1 -2,1 -4,1 -5,1 -2,0 -3,0 -5,0 -3,0 -6,0 -9,0 -3,0 -6,0 -9,0 -2,0 -3,0 -5,0 -1,-1 -3,-1 -4,-1 -2,0 -3,0 -5,-1 -1,0 -3,0 -4,-1 -2,0 -3,0 -5,-1 -1,0 -3,-1 -4,-1z"/>
  <path class="fil2" d="M1702 574c0,0 -32,99 0,185 -1,3 -105,12 -105,-94 0,-52 -3,-66 -4,-73 0,0 72,-3 109,-18z"/>
  <path class="fil3" d="M1636 722c0,0 1,1 1,2 1,0 2,1 2,2 1,1 2,1 2,2 1,1 2,1 3,2 0,0 1,1 2,2 1,0 1,1 2,1 1,1 2,1 3,2 0,0 1,1 2,1 1,1 2,1 3,2 1,0 2,0 2,1 2,1 4,1 6,2 4,1 7,2 11,3l5 1 -1 -5 -1 -9c-1,-3 -1,-6 -1,-8 -1,-3 -1,-6 -1,-9 -1,-1 -1,-3 -1,-4l0 -5 -1 -4c0,-1 0,-3 0,-4 0,-3 -1,-6 -1,-9 0,-3 0,-5 0,-8 0,-3 0,-6 0,-9 0,-3 0,-6 0,-8 0,-3 0,-6 0,-9 0,-3 0,-6 0,-9l0 -8c0,-3 0,-6 1,-9l0 -9 1 -9c0,-2 0,-5 0,-8 -1,3 -2,5 -3,8l-1 4 -1 5c0,3 -1,5 -2,8 0,3 -1,6 -1,9 -1,3 -1,6 -1,9 -1,3 -1,5 -1,8 -1,3 -1,6 -1,9 0,3 0,6 0,9 -1,3 0,6 -1,9 0,3 1,6 1,9 0,3 0,6 0,9 0,1 1,3 1,4l0 5 1 4c0,1 0,3 0,4 1,3 1,6 2,9 1,3 1,6 2,9l2 8 4 -4c-1,-1 -3,-1 -5,-1 -1,0 -2,0 -3,0 -1,-1 -2,-1 -2,-1 -2,0 -4,-1 -6,-1 -1,-1 -1,-1 -2,-1 -1,0 -2,-1 -3,-1 -1,0 -2,-1 -2,-1 -1,0 -2,-1 -3,-1 -1,0 -2,-1 -3,-1 0,-1 -1,-1 -2,-1 -1,-1 -2,-1 -2,-2 -1,0 -2,-1 -3,-1 -1,-1 -1,-1 -2,-2 -1,0 -2,-1 -2,-1z"/>
  <path class="fil3" d="M2264 298c0,0 37,11 71,19 0,0 -62,-8 -82,-14l51 20c0,0 -54,-9 -69,-11l42 16c0,0 -42,-6 -53,-8l33 13 -52 -10 32 11 -45 -7 22 10 -33 -5 36 26c0,0 -50,-24 -55,-27 0,0 24,-29 39,-53l63 20z"/>
  <path class="fil3" d="M2148 354c0,0 106,59 136,72 0,0 -40,-10 -59,-19l24 16c0,0 -34,-9 -53,-19l25 15c0,0 -31,-10 -45,-17l24 17c0,0 -37,-14 -51,-22l21 17c0,0 -29,-11 -41,-18l17 14c0,0 -24,-8 -35,-15l15 21c0,0 -31,-24 -34,-28 0,0 42,-21 56,-34z"/>
  <path class="fil3" d="M2065 408c0,0 68,67 107,98 0,0 -44,-27 -59,-39l27 31c0,0 -40,-25 -51,-35l28 31c0,0 -34,-21 -46,-33l21 24c0,0 -31,-16 -41,-26l20 22c0,0 -22,-12 -32,-24l11 16c0,0 -17,-10 -32,-24l8 18c0,0 -28,-24 -36,-33 0,0 56,-13 75,-26z"/>
  <path class="fil3" d="M1961 445c0,0 34,61 65,107 0,0 -25,-23 -37,-40l16 40c0,0 -28,-32 -35,-43l15 32c0,0 -21,-24 -31,-37l10 31c0,0 -13,-16 -25,-34l7 26c0,0 -18,-21 -24,-37l-1 33c0,0 -10,-29 -20,-50 0,0 33,-23 60,-28z"/>
  <path class="fil3" d="M1869 494c0,0 26,94 42,131 0,0 -23,-35 -32,-61 0,0 8,37 9,47 0,0 -13,-24 -20,-52 0,0 2,30 4,38 0,0 -13,-28 -18,-44 0,0 1,30 2,37 0,0 -11,-27 -14,-41 0,0 0,21 0,29 0,0 -10,-19 -12,-35 0,0 -1,19 0,26 0,0 -8,-21 -9,-36 0,0 -4,20 -3,28 0,0 -7,-14 -9,-29 0,0 29,-26 60,-38z"/>
  <path class="fil3" d="M1775 557c0,0 0,52 8,97 0,0 -12,-22 -14,-46 0,0 -2,19 1,32 0,0 -10,-20 -11,-37 0,0 -2,14 0,25 0,0 -7,-16 -8,-31 0,0 0,12 1,21 0,0 -8,-15 -8,-27 0,0 -2,15 -1,21 0,0 -6,-11 -7,-24 0,0 -3,11 -3,20 0,0 -3,-14 -4,-24l-5 13c0,0 -3,-10 -3,-18 0,0 42,-15 54,-22z"/>
  <path class="fil3" d="M1680 594c0,0 -7,9 -12,73 0,0 -4,-12 -7,-36 0,0 -3,16 -3,25 0,0 -6,-17 -6,-29 0,0 -3,10 -5,18 0,0 -5,-18 -5,-27 0,0 -3,12 -3,19 0,0 -5,-12 -5,-23 0,0 -1,10 -2,17 0,0 -6,-14 -7,-22l-4 16c0,0 -5,-17 -16,-21 0,0 38,1 75,-10z"/>
  <path class="fil3" d="M1896 152c0,0 149,117 262,102 0,0 -46,12 -93,6 0,0 32,8 55,8 0,0 -51,12 -105,-5 0,0 26,13 40,15 0,0 -39,-1 -67,-15 0,0 11,10 17,13 0,0 -44,-6 -76,-44 0,0 10,7 17,10 0,0 -24,-24 -35,-42 0,0 29,24 39,30 0,0 -38,-33 -49,-52 0,0 24,18 48,30 0,0 -30,-20 -53,-56z"/>
  <path class="fil2" d="M1419 625l-55 0c-14,0 -25,11 -25,25l66 1903c1,17 26,17 27,0l66 -1903c0,-14 -11,-25 -25,-25l-54 0z"/>
  <path class="fil3" d="M1385 649c-7,0 -13,6 -13,13l44 1876 -3 -1889 -28 0z"/>
  <polygon class="fil3" points="1413,649 1435,651 1413,653 "/>
  <polygon class="fil3" points="1413,657 1434,659 1413,662 "/>
  <polygon class="fil3" points="1413,666 1434,668 1413,670 "/>
  <polygon class="fil3" points="1413,675 1434,677 1413,679 "/>
  <polygon class="fil3" points="1413,683 1434,686 1413,688 "/>
  <polygon class="fil3" points="1413,692 1434,694 1413,696 "/>
  <polygon class="fil3" points="1413,701 1434,703 1413,705 "/>
  <polygon class="fil3" points="1413,710 1434,712 1413,714 "/>
  <polygon class="fil3" points="1413,718 1434,720 1413,723 "/>
  <polygon class="fil3" points="1413,727 1434,729 1413,731 "/>
  <polygon class="fil3" points="1413,736 1434,738 1413,740 "/>
  <polygon class="fil3" points="1413,744 1434,747 1413,749 "/>
  <polygon class="fil3" points="1413,753 1434,755 1413,757 "/>
  <polygon class="fil3" points="1413,762 1434,764 1413,766 "/>
  <polygon class="fil3" points="1413,771 1434,773 1413,775 "/>
  <polygon class="fil3" points="1413,779 1434,781 1413,784 "/>
  <polygon class="fil3" points="1413,788 1434,790 1413,792 "/>
  <polygon class="fil3" points="1413,797 1434,799 1413,801 "/>
  <polygon class="fil3" points="1413,805 1433,808 1413,810 "/>
  <polygon class="fil3" points="1413,814 1433,816 1413,819 "/>
  <polygon class="fil3" points="1413,823 1433,825 1413,827 "/>
  <polygon class="fil3" points="1413,832 1433,834 1413,836 "/>
  <polygon class="fil3" points="1413,840 1433,842 1413,845 "/>
  <polygon class="fil3" points="1413,849 1433,851 1413,853 "/>
  <polygon class="fil3" points="1413,858 1433,860 1413,862 "/>
  <polygon class="fil3" points="1413,866 1433,869 1413,871 "/>
  <polygon class="fil3" points="1413,875 1433,877 1413,879 "/>
  <polygon class="fil3" points="1413,884 1433,886 1413,888 "/>
  <polygon class="fil3" points="1413,893 1433,895 1413,897 "/>
  <polygon class="fil3" points="1413,901 1433,903 1413,906 "/>
  <polygon class="fil3" points="1413,910 1433,912 1413,914 "/>
  <polygon class="fil3" points="1413,919 1433,921 1413,923 "/>
  <polygon class="fil3" points="1413,927 1433,930 1413,932 "/>
  <polygon class="fil3" points="1413,936 1433,938 1413,940 "/>
  <polygon class="fil3" points="1413,945 1433,947 1413,949 "/>
  <polygon class="fil3" points="1413,954 1432,956 1413,958 "/>
  <polygon class="fil3" points="1413,962 1432,964 1413,967 "/>
  <polygon class="fil3" points="1413,971 1432,973 1413,975 "/>
  <polygon class="fil3" points="1413,980 1432,982 1413,984 "/>
  <polygon class="fil3" points="1413,988 1432,991 1413,993 "/>
  <polygon class="fil3" points="1413,997 1432,999 1413,1002 "/>
  <polygon class="fil3" points="1413,1006 1432,1008 1413,1010 "/>
  <polygon class="fil3" points="1413,1015 1432,1017 1413,1019 "/>
  <polygon class="fil3" points="1413,1023 1432,1025 1413,1028 "/>
  <polygon class="fil3" points="1413,1032 1432,1034 1413,1036 "/>
  <polygon class="fil3" points="1413,1041 1432,1043 1413,1045 "/>
  <polygon class="fil3" points="1413,1049 1432,1052 1413,1054 "/>
  <polygon class="fil3" points="1413,1058 1432,1060 1413,1062 "/>
  <polygon class="fil3" points="1413,1067 1432,1069 1413,1071 "/>
  <polygon class="fil3" points="1413,1076 1432,1078 1413,1080 "/>
  <polygon class="fil3" points="1413,1084 1432,1086 1413,1089 "/>
  <polygon class="fil3" points="1413,1093 1431,1095 1413,1097 "/>
  <polygon class="fil3" points="1413,1102 1431,1104 1413,1106 "/>
  <polygon class="fil3" points="1413,1110 1431,1113 1413,1115 "/>
  <polygon class="fil3" points="1413,1119 1431,1121 1413,1124 "/>
  <polygon class="fil3" points="1413,1128 1431,1130 1413,1132 "/>
  <polygon class="fil3" points="1413,1137 1431,1139 1413,1141 "/>
  <polygon class="fil3" points="1413,1145 1431,1147 1413,1150 "/>
  <polygon class="fil3" points="1413,1154 1431,1156 1413,1158 "/>
  <polygon class="fil3" points="1414,1163 1431,1165 1414,1167 "/>
  <polygon class="fil3" points="1414,1171 1431,1174 1414,1176 "/>
  <polygon class="fil3" points="1414,1180 1431,1182 1414,1185 "/>
  <polygon class="fil3" points="1414,1189 1431,1191 1414,1193 "/>
  <polygon class="fil3" points="1414,1198 1431,1200 1414,1202 "/>
  <polygon class="fil3" points="1414,1206 1431,1208 1414,1211 "/>
  <polygon class="fil3" points="1414,1215 1431,1217 1414,1219 "/>
  <polygon class="fil3" points="1414,1224 1431,1226 1414,1228 "/>
  <polygon class="fil3" points="1414,1232 1431,1235 1414,1237 "/>
  <polygon class="fil3" points="1414,1241 1430,1243 1414,1246 "/>
  <polygon class="fil3" points="1414,1250 1430,1252 1414,1254 "/>
  <polygon class="fil3" points="1414,1259 1430,1261 1414,1263 "/>
  <polygon class="fil3" points="1414,1267 1430,1269 1414,1272 "/>
  <polygon class="fil3" points="1414,1276 1430,1278 1414,1280 "/>
  <polygon class="fil3" points="1414,1285 1430,1287 1414,1289 "/>
  <polygon class="fil3" points="1414,1293 1430,1296 1414,1298 "/>
  <polygon class="fil3" points="1414,1302 1430,1304 1414,1307 "/>
  <polygon class="fil3" points="1414,1311 1430,1313 1414,1315 "/>
  <polygon class="fil3" points="1414,1320 1430,1322 1414,1324 "/>
  <polygon class="fil3" points="1414,1328 1430,1330 1414,1333 "/>
  <polygon class="fil3" points="1414,1337 1430,1339 1414,1341 "/>
  <polygon class="fil3" points="1414,1346 1430,1348 1414,1350 "/>
  <polygon class="fil3" points="1414,1354 1430,1357 1414,1359 "/>
  <polygon class="fil3" points="1414,1363 1430,1365 1414,1368 "/>
  <polygon class="fil3" points="1414,1372 1430,1374 1414,1376 "/>
  <polygon class="fil3" points="1414,1381 1429,1383 1414,1385 "/>
  <polygon class="fil3" points="1414,1389 1429,1391 1414,1394 "/>
  <polygon class="fil3" points="1414,1398 1429,1400 1414,1402 "/>
  <polygon class="fil3" points="1414,1407 1429,1409 1414,1411 "/>
  <polygon class="fil3" points="1414,1415 1429,1418 1414,1420 "/>
  <polygon class="fil3" points="1414,1424 1429,1426 1414,1429 "/>
  <polygon class="fil3" points="1414,1433 1429,1435 1414,1437 "/>
  <polygon class="fil3" points="1414,1442 1429,1444 1414,1446 "/>
  <polygon class="fil3" points="1414,1450 1429,1453 1414,1455 "/>
  <polygon class="fil3" points="1414,1459 1429,1461 1414,1463 "/>
  <polygon class="fil3" points="1414,1468 1429,1470 1414,1472 "/>
  <polygon class="fil3" points="1414,1476 1429,1479 1414,1481 "/>
  <polygon class="fil3" points="1414,1485 1429,1487 1414,1490 "/>
  <polygon class="fil3" points="1414,1494 1429,1496 1414,1498 "/>
  <polygon class="fil3" points="1414,1503 1429,1505 1414,1507 "/>
  <polygon class="fil3" points="1414,1511 1429,1514 1414,1516 "/>
  <polygon class="fil3" points="1414,1520 1429,1522 1414,1524 "/>
  <polygon class="fil3" points="1414,1529 1428,1531 1414,1533 "/>
  <polygon class="fil3" points="1414,1537 1428,1540 1414,1542 "/>
  <polygon class="fil3" points="1414,1546 1428,1548 1414,1551 "/>
  <polygon class="fil3" points="1414,1555 1428,1557 1414,1559 "/>
  <polygon class="fil3" points="1414,1564 1428,1566 1414,1568 "/>
  <polygon class="fil3" points="1414,1572 1428,1575 1414,1577 "/>
  <polygon class="fil3" points="1414,1581 1428,1583 1414,1585 "/>
  <polygon class="fil3" points="1414,1590 1428,1592 1414,1594 "/>
  <polygon class="fil3" points="1414,1598 1428,1601 1414,1603 "/>
  <polygon class="fil3" points="1414,1607 1428,1609 1414,1612 "/>
  <polygon class="fil3" points="1414,1616 1428,1618 1414,1620 "/>
  <polygon class="fil3" points="1414,1625 1428,1627 1414,1629 "/>
  <polygon class="fil3" points="1414,1633 1428,1636 1414,1638 "/>
  <polygon class="fil3" points="1414,1642 1428,1644 1414,1646 "/>
  <polygon class="fil3" points="1414,1651 1428,1653 1414,1655 "/>
  <polygon class="fil3" points="1414,1659 1428,1662 1414,1664 "/>
  <polygon class="fil3" points="1414,1668 1428,1670 1414,1673 "/>
  <polygon class="fil3" points="1414,1677 1427,1679 1414,1681 "/>
  <polygon class="fil3" points="1414,1686 1427,1688 1414,1690 "/>
  <polygon class="fil3" points="1414,1694 1427,1697 1414,1699 "/>
  <polygon class="fil3" points="1415,1703 1427,1705 1415,1707 "/>
  <polygon class="fil3" points="1415,1712 1427,1714 1415,1716 "/>
  <polygon class="fil3" points="1415,1720 1427,1723 1415,1725 "/>
  <polygon class="fil3" points="1415,1729 1427,1731 1415,1734 "/>
  <polygon class="fil3" points="1415,1738 1427,1740 1415,1742 "/>
  <polygon class="fil3" points="1415,1747 1427,1749 1415,1751 "/>
  <polygon class="fil3" points="1415,1755 1427,1758 1415,1760 "/>
  <polygon class="fil3" points="1415,1764 1427,1766 1415,1768 "/>
  <polygon class="fil3" points="1415,1773 1427,1775 1415,1777 "/>
  <polygon class="fil3" points="1415,1781 1427,1784 1415,1786 "/>
  <polygon class="fil3" points="1415,1790 1427,1792 1415,1795 "/>
  <polygon class="fil3" points="1415,1799 1427,1801 1415,1803 "/>
  <polygon class="fil3" points="1415,1808 1427,1810 1415,1812 "/>
  <polygon class="fil3" points="1415,1816 1426,1819 1415,1821 "/>
  <polygon class="fil3" points="1415,1825 1426,1827 1415,1829 "/>
  <polygon class="fil3" points="1415,1834 1426,1836 1415,1838 "/>
  <polygon class="fil3" points="1415,1842 1426,1845 1415,1847 "/>
  <polygon class="fil3" points="1415,1851 1426,1853 1415,1856 "/>
  <polygon class="fil3" points="1415,1860 1426,1862 1415,1864 "/>
  <polygon class="fil3" points="1415,1869 1426,1871 1415,1873 "/>
  <polygon class="fil3" points="1415,1877 1426,1880 1415,1882 "/>
  <polygon class="fil3" points="1415,1886 1426,1888 1415,1890 "/>
  <polygon class="fil3" points="1415,1895 1426,1897 1415,1899 "/>
  <polygon class="fil3" points="1415,1903 1426,1906 1415,1908 "/>
  <polygon class="fil3" points="1415,1912 1426,1914 1415,1917 "/>
  <polygon class="fil3" points="1415,1921 1426,1923 1415,1925 "/>
  <polygon class="fil3" points="1415,1930 1426,1932 1415,1934 "/>
  <polygon class="fil3" points="1415,1938 1426,1941 1415,1943 "/>
  <polygon class="fil3" points="1415,1947 1426,1949 1415,1951 "/>
  <polygon class="fil3" points="1415,1956 1426,1958 1415,1960 "/>
  <polygon class="fil3" points="1415,1964 1425,1967 1415,1969 "/>
  <polygon class="fil3" points="1415,1973 1425,1975 1415,1978 "/>
  <polygon class="fil3" points="1415,1982 1425,1984 1415,1986 "/>
  <polygon class="fil3" points="1415,1991 1425,1993 1415,1995 "/>
  <polygon class="fil3" points="1415,1999 1425,2002 1415,2004 "/>
  <polygon class="fil3" points="1415,2008 1425,2010 1415,2012 "/>
  <polygon class="fil3" points="1415,2017 1425,2019 1415,2021 "/>
  <polygon class="fil3" points="1415,2025 1425,2028 1415,2030 "/>
  <polygon class="fil3" points="1415,2034 1425,2036 1415,2039 "/>
  <polygon class="fil3" points="1415,2043 1425,2045 1415,2047 "/>
  <polygon class="fil3" points="1415,2052 1425,2054 1415,2056 "/>
  <polygon class="fil3" points="1415,2060 1425,2063 1415,2065 "/>
  <polygon class="fil3" points="1415,2069 1425,2071 1415,2073 "/>
  <polygon class="fil3" points="1415,2078 1425,2080 1415,2082 "/>
  <polygon class="fil3" points="1415,2086 1425,2089 1415,2091 "/>
  <polygon class="fil3" points="1415,2095 1425,2097 1415,2100 "/>
  <polygon class="fil3" points="1415,2104 1424,2106 1415,2108 "/>
  <polygon class="fil3" points="1415,2113 1424,2115 1415,2117 "/>
  <polygon class="fil3" points="1415,2121 1424,2124 1415,2126 "/>
  <polygon class="fil3" points="1415,2130 1424,2132 1415,2134 "/>
  <polygon class="fil3" points="1415,2139 1424,2141 1415,2143 "/>
  <polygon class="fil3" points="1415,2148 1424,2150 1415,2152 "/>
  <polygon class="fil3" points="1415,2156 1424,2158 1415,2161 "/>
  <polygon class="fil3" points="1415,2165 1424,2167 1415,2169 "/>
  <polygon class="fil3" points="1415,2174 1424,2176 1415,2178 "/>
  <polygon class="fil3" points="1415,2182 1424,2185 1415,2187 "/>
  <polygon class="fil3" points="1415,2191 1424,2193 1415,2195 "/>
  <polygon class="fil3" points="1415,2200 1424,2202 1415,2204 "/>
  <polygon class="fil3" points="1415,2209 1424,2211 1415,2213 "/>
  <polygon class="fil3" points="1415,2217 1424,2219 1415,2222 "/>
  <polygon class="fil3" points="1415,2226 1424,2228 1415,2230 "/>
  <polygon class="fil3" points="1415,2235 1424,2237 1415,2239 "/>
  <polygon class="fil3" points="1416,2243 1424,2246 1416,2248 "/>
  <polygon class="fil3" points="1416,2252 1423,2254 1416,2256 "/>
  <polygon class="fil3" points="1416,2261 1423,2263 1416,2265 "/>
  <polygon class="fil3" points="1416,2270 1423,2272 1416,2274 "/>
  <polygon class="fil3" points="1416,2278 1423,2280 1416,2283 "/>
  <polygon class="fil3" points="1416,2287 1423,2289 1416,2291 "/>
  <polygon class="fil3" points="1416,2296 1423,2298 1416,2300 "/>
  <polygon class="fil3" points="1416,2304 1423,2307 1416,2309 "/>
  <polygon class="fil3" points="1416,2313 1423,2315 1416,2317 "/>
  <polygon class="fil3" points="1416,2322 1423,2324 1416,2326 "/>
  <polygon class="fil3" points="1416,2331 1423,2333 1416,2335 "/>
  <polygon class="fil3" points="1416,2339 1423,2341 1416,2344 "/>
  <polygon class="fil3" points="1416,2348 1423,2350 1416,2352 "/>
  <polygon class="fil3" points="1416,2357 1423,2359 1416,2361 "/>
  <polygon class="fil3" points="1416,2365 1423,2368 1416,2370 "/>
  <polygon class="fil3" points="1416,2374 1423,2376 1416,2378 "/>
  <polygon class="fil3" points="1416,2383 1423,2385 1416,2387 "/>
  <polygon class="fil3" points="1416,2392 1423,2394 1416,2396 "/>
  <polygon class="fil3" points="1416,2400 1422,2402 1416,2405 "/>
  <polygon class="fil3" points="1416,2409 1422,2411 1416,2413 "/>
  <polygon class="fil3" points="1416,2418 1422,2420 1416,2422 "/>
  <polygon class="fil3" points="1416,2426 1422,2429 1416,2431 "/>
  <polygon class="fil3" points="1416,2435 1422,2437 1416,2439 "/>
  <polygon class="fil3" points="1416,2444 1422,2446 1416,2448 "/>
  <polygon class="fil3" points="1416,2453 1422,2455 1416,2457 "/>
  <polygon class="fil3" points="1416,2461 1422,2463 1416,2466 "/>
  <polygon class="fil3" points="1416,2470 1422,2472 1416,2474 "/>
  <polygon class="fil3" points="1416,2479 1422,2481 1416,2483 "/>
  <polygon class="fil3" points="1416,2487 1422,2490 1416,2492 "/>
  <polygon class="fil3" points="1416,2496 1422,2498 1416,2500 "/>
  <polygon class="fil3" points="1416,2505 1422,2507 1416,2509 "/>
  <polygon class="fil3" points="1416,2514 1422,2516 1416,2518 "/>
  <polygon class="fil3" points="1416,2522 1422,2524 1416,2527 "/>
  <polygon class="fil3" points="1416,2531 1422,2533 1416,2535 "/>
  <path class="fil4" d="M1842 948c-30,-52 -80,-89 -138,-105 -15,-4 -31,-7 -47,-9 -7,0 -15,-1 -22,-1 -4,0 -67,-1 -92,9 -10,4 -20,11 -23,22 -4,13 1,30 9,39 22,25 56,27 56,27 0,0 1,4 3,6 5,7 12,12 21,13 7,1 15,0 22,0 10,0 19,0 28,1 25,3 50,8 73,19 26,11 49,29 64,54 19,33 20,73 14,111 -3,22 -8,44 -21,64 -7,12 -17,22 -28,31 -12,11 -28,17 -42,24 -62,27 -130,39 -196,51 -68,13 -136,23 -203,38 -61,14 -123,32 -175,67 -44,30 -77,73 -87,126 -2,14 -3,27 -3,40 1,26 3,52 9,78 8,32 22,62 42,88 20,26 47,46 76,61 61,31 130,38 197,46 33,4 67,7 100,16 28,7 58,20 69,49 6,18 9,39 9,58 -1,15 -4,30 -13,42 -9,13 -23,21 -37,26 -31,12 -65,16 -98,19 -34,3 -69,4 -103,10 -30,4 -65,12 -83,39 -13,18 -13,44 -7,65 10,32 38,51 60,73 24,23 41,51 52,82 9,25 15,51 20,78 0,-36 -3,-71 -14,-105 -6,-20 -15,-39 -27,-57 -12,-18 -27,-33 -40,-50 -11,-14 -17,-29 -15,-47 0,-3 0,-5 1,-8 3,-8 13,-12 21,-15 20,-5 41,-5 62,-5 21,0 43,1 64,1 80,0 182,-5 221,-87 17,-35 18,-76 12,-114 -4,-30 -14,-59 -34,-82 -27,-33 -67,-51 -107,-62 -42,-11 -86,-16 -130,-23 -42,-6 -85,-12 -124,-30 -18,-7 -36,-18 -49,-33 -13,-14 -22,-31 -28,-49 -6,-19 -9,-38 -9,-58 -1,-8 -1,-17 0,-25 5,-42 38,-68 73,-86 37,-19 79,-32 120,-43 43,-11 87,-20 130,-30 86,-19 173,-38 253,-75 37,-17 73,-39 101,-69 29,-31 46,-62 52,-113 10,-84 -8,-139 -39,-192z"/>
  <path class="fil5" d="M1547 850c0,0 2,-1 7,-3 6,-1 13,-2 24,-4 10,-1 22,-1 37,-2 15,0 32,0 51,2 19,3 40,8 62,16 21,9 43,21 63,39 11,9 20,19 29,30 9,11 17,24 24,37 7,13 13,27 19,42 5,15 9,31 11,47 5,33 4,67 -2,102 -3,18 -8,36 -17,52 -9,17 -21,32 -34,45 -27,28 -60,48 -96,65 -36,17 -74,30 -114,41 -39,11 -80,21 -121,30 -11,2 -21,4 -31,7 -10,2 -21,4 -31,7 -21,5 -42,10 -63,15 -21,4 -41,10 -62,16 -20,7 -41,14 -60,23 -10,4 -20,9 -29,14 -9,5 -18,11 -27,18 -16,13 -30,30 -36,50 -3,10 -4,21 -4,31 0,11 1,22 2,33 2,21 8,42 17,61 10,19 24,35 42,46 17,12 37,20 57,26 82,25 169,23 247,50 20,7 39,16 56,28 16,12 31,27 41,44 10,18 15,37 19,57 3,19 4,38 3,57 -2,19 -6,38 -14,55 -8,17 -19,32 -33,43 -14,12 -30,20 -46,26 -16,6 -33,9 -49,12 -33,4 -64,5 -94,4 -15,0 -30,-1 -44,-1 -14,0 -28,0 -41,0 -13,1 -26,2 -38,5 -6,2 -11,4 -16,7 -5,4 -8,8 -10,13 -3,11 -3,23 0,33 2,10 7,19 13,26 5,8 11,15 17,21 5,7 10,13 15,19 9,11 16,22 20,31 5,10 8,17 10,22 2,5 3,7 3,7 0,0 -1,-2 -3,-7 -2,-5 -5,-12 -10,-21 -5,-9 -11,-20 -21,-32 -4,-6 -10,-11 -15,-18 -6,-7 -12,-13 -18,-21 -5,-7 -10,-17 -13,-27 -3,-10 -3,-22 0,-33 1,-6 5,-11 10,-15 6,-3 11,-6 18,-7 12,-4 25,-5 38,-6 13,-1 27,-1 41,-1 14,1 29,1 44,1 30,0 61,0 93,-5 16,-2 32,-6 48,-12 16,-6 31,-14 44,-25 14,-11 24,-25 32,-41 7,-17 11,-35 12,-53 2,-19 0,-37 -3,-56 -3,-19 -9,-37 -19,-54 -9,-17 -23,-31 -39,-42 -16,-12 -34,-20 -53,-27 -38,-13 -80,-19 -121,-25 -21,-3 -42,-6 -63,-10 -21,-3 -42,-7 -63,-14 -21,-6 -42,-14 -60,-27 -9,-6 -18,-13 -25,-22 -8,-8 -14,-17 -19,-27 -11,-20 -16,-42 -19,-64 -1,-11 -1,-22 -2,-34 0,-11 1,-22 5,-33 3,-11 9,-21 15,-30 7,-10 15,-18 24,-25 9,-7 18,-13 28,-18 9,-6 19,-11 29,-15 20,-9 41,-16 62,-23 20,-6 42,-12 62,-16 21,-5 42,-10 63,-15 10,-2 21,-5 31,-7 10,-2 21,-5 31,-7 41,-9 82,-18 121,-29 39,-11 77,-24 113,-41 35,-16 69,-36 95,-62 13,-14 24,-28 33,-44 8,-15 13,-32 17,-50 5,-34 7,-68 2,-100 -2,-16 -6,-32 -11,-47 -5,-14 -11,-28 -18,-41 -7,-14 -14,-26 -23,-37 -8,-11 -18,-21 -28,-30 -20,-17 -41,-30 -62,-39 -21,-8 -42,-13 -61,-16 -19,-3 -36,-3 -51,-3 -15,0 -27,1 -37,2 -11,1 -18,2 -23,3 -6,2 -8,3 -8,3z"/>
  <path class="fil5" d="M1585 921c0,0 -2,0 -5,0 -3,0 -8,0 -13,-1 -3,-1 -6,-1 -9,-3 -3,-1 -6,-2 -9,-4 -3,-2 -6,-4 -9,-6 -3,-2 -6,-5 -8,-8 -3,-3 -5,-7 -6,-11 -1,-3 -2,-7 -3,-11 0,-3 1,-7 2,-11 0,-1 0,-1 1,-2 0,-1 1,-2 1,-2 1,-2 2,-3 3,-4 5,-4 9,-6 12,-7 3,-1 5,-1 5,-1 0,0 -2,1 -4,3 -3,2 -6,4 -9,9 -1,1 -1,2 -2,3 0,0 0,1 0,1 -1,1 -1,2 -1,2 0,3 0,6 0,8 1,3 2,6 3,9 1,3 3,6 4,9 2,2 5,5 7,7 3,2 5,4 8,6 3,1 5,3 8,4 2,2 5,3 7,4 10,4 17,6 17,6z"/>
  <path class="fil5" d="M1625 859c0,5 -6,11 -10,11 -4,0 -8,-4 -8,-8 0,-4 18,-7 18,-3z"/>
  <path class="fil5" d="M1256 1447c0,0 186,-56 328,-84 0,0 -65,8 -101,15l60 -17c0,0 -68,8 -100,16l56 -16c0,0 -87,4 -175,40l57 -12c0,0 -57,16 -89,34l82 -21c0,0 -69,21 -118,45z"/>
  <path class="fil5" d="M1283 1746c0,0 101,13 156,26 54,12 81,14 123,42 0,0 -30,-12 -58,-17 0,0 17,5 31,11 0,0 -42,-12 -77,-17 0,0 8,5 26,11 0,0 -62,-16 -128,-22 0,0 24,-3 38,-3 0,0 -61,-10 -80,-12 0,0 30,2 51,4l-82 -23z"/>
  <path class="fil5" d="M1323 2109c0,0 146,7 201,-11 0,0 -24,5 -42,4 0,0 21,-6 31,-9 0,0 -52,4 -61,5l31 -7c0,0 -73,6 -115,6 0,0 17,3 29,4l-50 2 26 2 -50 4z"/>
  <path class="fil2" d="M1419 619c-67,0 -121,-54 -121,-121 0,-66 54,-120 121,-120 66,0 120,54 120,120 0,67 -54,121 -120,121zm220 -210c-9,-9 -22,-15 -36,-15 -22,0 -42,-9 -57,-23 -14,-15 -23,-35 -23,-57 0,-28 -23,-51 -51,-51l-107 0c-14,0 -27,6 -36,15 -9,9 -15,22 -15,36 0,44 -36,80 -80,80l0 0c-28,0 -51,23 -51,51l0 107c0,28 23,51 51,51l0 0c22,0 42,9 57,23 14,15 23,35 23,57 0,28 23,51 51,51l107 0c14,0 27,-6 36,-15 9,-9 15,-22 15,-36 0,-22 9,-42 23,-57 15,-14 35,-23 57,-23 28,0 51,-23 51,-51l0 -107c0,-14 -6,-27 -15,-36z"/>
  <path class="fil3" d="M1419 367c-73,0 -131,59 -131,131 0,73 58,131 131,131 72,0 131,-58 131,-131 0,-72 -59,-131 -131,-131zm0 271c-77,0 -140,-63 -140,-140 0,-77 63,-139 140,-139 77,0 139,62 139,139 0,77 -62,140 -139,140zm-54 -356c-8,0 -16,4 -22,10 -6,6 -10,14 -10,22 0,55 -44,99 -99,99 -17,0 -32,14 -32,32l0 107c0,18 15,32 32,32 27,0 52,10 70,29 19,19 29,43 29,70 0,17 15,32 32,32l107 0c9,0 17,-4 23,-10 6,-6 9,-14 9,-22 0,-27 10,-51 29,-70 19,-19 44,-29 70,-29 18,0 32,-14 32,-32l0 -107c0,-9 -3,-17 -9,-22 -6,-7 -14,-10 -23,-10 -26,0 -51,-10 -70,-29 -19,-19 -29,-43 -29,-70 0,-17 -14,-32 -32,-32l-107 0zm107 441l-107 0c-22,0 -40,-18 -40,-40 0,-24 -10,-47 -27,-64 -17,-17 -40,-26 -64,-26 -22,0 -40,-19 -40,-41l0 -107c0,-22 18,-41 40,-41 50,0 91,-40 91,-90 0,-11 4,-21 11,-29 8,-7 18,-11 29,-11l107 0c23,0 41,18 41,40 0,24 9,47 26,64 17,17 40,26 64,26 11,0 21,5 29,12 7,8 12,18 12,29l0 107c0,22 -19,41 -41,41 -24,0 -47,9 -64,26 -17,17 -26,40 -26,64 0,11 -5,21 -12,29 -8,7 -18,11 -29,11z"/>
  <path class="fil6" d="M1529 498c0,62 -49,111 -110,111 -61,0 -111,-49 -111,-111 0,-61 50,-110 111,-110 61,0 110,49 110,110z"/>
  <path class="fil7" d="M1484 484l0 29c0,7 -6,13 -13,13l-25 0 0 25c0,7 -6,13 -13,13l-29 0c-7,0 -13,-6 -13,-13l0 -25 -25 0c-7,0 -13,-6 -13,-13l0 -29c0,-7 6,-13 13,-13l25 0 0 -25c0,-7 6,-13 13,-13l29 0c7,0 13,6 13,13l0 25 25 0c7,0 13,6 13,13z"/>
  <path class="fil3" d="M1246 411c0,0 24,-3 48,-23 23,-20 35,-46 35,-46 0,0 -5,31 -31,52 -25,21 -52,17 -52,17z"/>
  <path class="fil3" d="M1256 414c0,0 21,-4 42,-21 22,-17 31,-40 31,-40 0,0 -4,27 -27,45 -23,18 -46,16 -46,16z"/>
  <path class="fil3" d="M1267 415c0,0 17,-3 35,-17 18,-14 26,-34 26,-34 0,0 -4,23 -22,38 -19,15 -39,13 -39,13z"/>
  <path class="fil3" d="M1591 411c0,0 -24,-3 -48,-23 -24,-20 -35,-46 -35,-46 0,0 5,31 30,52 26,21 53,17 53,17z"/>
  <path class="fil3" d="M1581 414c0,0 -21,-4 -42,-21 -22,-17 -31,-40 -31,-40 0,0 4,27 27,45 23,18 46,16 46,16z"/>
  <path class="fil3" d="M1570 415c0,0 -18,-3 -35,-17 -18,-14 -26,-34 -26,-34 0,0 3,23 22,38 19,15 39,13 39,13z"/>
  <path class="fil3" d="M1248 589c0,0 24,3 48,23 23,20 35,46 35,46 0,0 -5,-31 -31,-52 -25,-20 -52,-17 -52,-17z"/>
  <path class="fil3" d="M1258 586c0,0 20,4 42,21 21,17 31,40 31,40 0,0 -5,-27 -27,-45 -23,-18 -46,-16 -46,-16z"/>
  <path class="fil3" d="M1269 586c0,0 17,2 35,17 18,14 26,33 26,33 0,0 -4,-23 -23,-38 -19,-15 -38,-12 -38,-12z"/>
  <path class="fil3" d="M1589 589c0,0 -24,3 -48,23 -24,20 -35,46 -35,46 0,0 5,-31 30,-52 26,-20 53,-17 53,-17z"/>
  <path class="fil3" d="M1579 586c0,0 -21,4 -42,21 -22,17 -31,40 -31,40 0,0 4,-27 27,-45 22,-18 46,-16 46,-16z"/>
  <path class="fil3" d="M1568 586c0,0 -18,2 -35,17 -18,14 -26,33 -26,33 0,0 3,-23 22,-38 19,-15 39,-12 39,-12z"/>
  <path class="fil2" d="M1533 115c0,63 -51,115 -114,115 -64,0 -115,-52 -115,-115 0,-64 51,-115 115,-115 63,0 114,51 114,115z"/>
  <path class="fil3" d="M1419 211c0,0 -2,0 -5,0 -2,0 -4,1 -7,1 -2,-1 -5,-1 -8,-1 -3,0 -7,-1 -11,-2 -1,0 -3,-1 -5,-1 -2,-1 -5,-1 -7,-2 -8,-3 -17,-8 -26,-15 -9,-7 -17,-17 -24,-28 -6,-12 -11,-25 -13,-40 0,-2 0,-3 0,-5l0 -3 0 -3 0 -5 0 -3 0 -3c1,-4 1,-8 2,-11 1,-4 2,-8 3,-11 5,-15 14,-29 25,-40 11,-11 25,-20 39,-24 15,-6 31,-7 45,-6 15,2 28,7 40,13 11,7 20,15 27,24 8,9 13,18 16,27 0,2 1,4 2,6 0,2 1,4 1,6 1,3 1,7 2,10 0,3 0,6 0,8 1,3 0,5 0,7 0,3 0,5 0,5 0,0 -1,-2 -1,-5 0,-2 -1,-4 -1,-6 -1,-3 -2,-5 -2,-8 -1,-3 -2,-6 -4,-9 -2,-4 -3,-7 -5,-11 -4,-7 -10,-15 -17,-21 -7,-7 -16,-14 -26,-18 -10,-5 -22,-8 -33,-8l-5 0 -3 0 0 0c1,0 0,0 0,0l0 0 0 0 -1 0c-3,0 -7,0 -10,1 -3,0 -6,1 -9,2 -3,0 -5,1 -8,2 -12,5 -23,12 -32,21 -9,8 -15,19 -20,31 -1,3 -2,6 -3,9 -1,3 -1,5 -1,8l-1 2 0 3 0 5 -1 1 0 1 0 0c0,0 0,1 0,0l0 0 0 2 0 5c1,12 4,23 9,33 4,10 10,19 17,26 7,7 15,13 22,17 3,3 7,4 10,5 4,2 7,3 10,4 3,1 5,1 8,2 2,1 4,1 6,1 3,1 5,1 5,1z"/>
  <path class="fil3" d="M1408 192c0,0 -1,0 -4,1 -3,0 -7,0 -13,0 -2,-1 -5,-1 -9,-2 -3,-1 -6,-1 -10,-3 -7,-3 -15,-7 -23,-13 -8,-6 -15,-14 -21,-24 -5,-10 -9,-22 -11,-35l0 -4 0 -3 0 -3 0 -4 0 -2 0 -3c1,-7 2,-13 5,-19 4,-13 11,-25 21,-35 9,-10 21,-18 34,-22 12,-5 26,-6 38,-4 13,1 25,5 35,11 10,6 18,14 24,21 6,8 10,16 12,23 1,2 2,4 2,6 1,2 1,3 1,5 1,3 1,6 2,9 0,5 0,10 0,13 -1,2 -1,4 -1,4 0,0 0,-2 -1,-4 0,-2 0,-3 -1,-5 0,-2 -1,-5 -2,-7 -1,-3 -2,-5 -3,-8 -1,-3 -2,-6 -4,-9 -4,-6 -9,-12 -15,-18 -6,-6 -13,-12 -22,-15 -8,-4 -18,-7 -28,-7l-4 0 -2 0 0 0c1,0 0,0 0,0l0 0 0 0 -1 0c-3,0 -5,0 -8,1 -3,0 -5,1 -8,1 -2,1 -4,2 -7,3 -9,4 -19,9 -26,17 -7,8 -13,17 -17,27 -1,2 -1,5 -2,7 -1,2 -1,5 -1,7l-1 2 0 2 0 4 0 2 0 0 0 0c0,0 0,1 0,0l0 0 0 2 0 4c0,10 2,20 6,28 4,9 9,17 15,23 5,6 11,11 18,14 2,3 6,4 8,5 3,1 6,2 8,3 3,1 5,2 7,2 2,1 4,1 5,1 3,1 4,1 4,1z"/>
  <path class="fil3" d="M1397 160c0,0 -1,1 -3,1 -2,0 -6,0 -10,0 -2,0 -5,0 -7,-1 -3,0 -6,-1 -9,-2 -6,-2 -12,-5 -19,-10 -6,-5 -12,-12 -17,-20 -4,-8 -8,-18 -9,-28l0 -4 -1 -2 0 -2 1 -3 0 -2 0 -2c0,-6 1,-11 3,-17 4,-10 10,-20 17,-28 8,-8 18,-14 29,-18 10,-4 21,-5 31,-3 11,1 20,4 28,9 8,5 15,11 20,18 4,6 8,13 9,19 1,3 2,6 3,8 0,3 0,5 0,8 1,4 0,7 0,10 0,2 0,3 0,3 0,0 -1,-1 -1,-3 0,-1 -1,-3 -1,-4 -1,-2 -1,-4 -2,-6 -1,-2 -1,-4 -2,-6 -2,-2 -3,-5 -4,-7 -3,-5 -7,-9 -12,-14 -5,-4 -11,-8 -17,-11 -7,-3 -14,-5 -22,-5l-3 0 -2 0 0 0c1,0 0,0 0,0l0 0 0 0 -1 0c-2,0 -4,0 -6,1 -2,0 -4,0 -5,1 -2,0 -4,1 -6,2 -7,3 -14,7 -20,13 -6,6 -10,13 -13,20 -1,4 -2,8 -3,12l0 1 0 2 -1 3 0 1 0 0 0 1c0,-1 0,0 0,-1l0 2 0 3c0,7 2,15 5,22 3,7 7,12 11,17 4,5 9,9 14,12 2,2 4,3 6,4 3,1 5,2 7,3 2,1 3,1 5,2 1,0 3,0 4,1 2,0 3,0 3,0z"/>
  <path class="fil8" d="M1422 89c0,18 -14,33 -32,33 -18,0 -32,-15 -32,-33 0,-17 14,-32 32,-32 18,0 32,15 32,32z"/>
 </g>
</svg>
