<?xml version="1.0" encoding="UTF-8"?>
<!DOCTYPE svg PUBLIC "-//W3C//DTD SVG 1.1//EN" "http://www.w3.org/Graphics/SVG/1.1/DTD/svg11.dtd">
<!-- Creator: CorelDRAW X8 -->
<svg xmlns="http://www.w3.org/2000/svg" xml:space="preserve" width="1.95956in" height="1.65296in" version="1.1" style="shape-rendering:geometricPrecision; text-rendering:geometricPrecision; image-rendering:optimizeQuality; fill-rule:evenodd; clip-rule:evenodd"
viewBox="0 0 656 553"
 xmlns:xlink="http://www.w3.org/1999/xlink">
 <defs>
  <style type="text/css">
   <![CDATA[
    .fil1 {fill:#57595B;fill-rule:nonzero}
    .fil2 {fill:#8CC43F;fill-rule:nonzero}
    .fil3 {fill:#919397;fill-rule:nonzero}
    .fil0 {fill:white;fill-rule:nonzero}
   ]]>
  </style>
 </defs>
 <g id="_3">
  <metadata id="CorelCorpID_0Corel-Layer"/>
  <g id="_905546437616">
   <path class="fil0" d="M427 369c0,50 -46,90 -102,90 -56,0 -102,-40 -102,-90 0,-49 46,-89 102,-89 56,0 102,40 102,89z"/>
   <g>
    <polygon class="fil1" points="656,62 555,0 409,227 550,227 "/>
    <path class="fil2" d="M281 145c-55,54 -46,122 -30,144 1,-2 2,-3 3,-5 4,-6 8,-13 12,-20 5,-7 10,-14 15,-21 3,-4 6,-8 8,-11l5 -5c1,-3 3,-4 4,-6l9 -10c3,-3 6,-6 10,-9 6,-6 12,-12 19,-18 12,-11 24,-21 35,-29 21,-17 36,-26 36,-26 0,0 -3,3 -7,9 -5,7 -12,15 -21,25 -4,5 -9,11 -14,17 -5,5 -10,12 -16,18 -5,6 -10,12 -16,19 -6,6 -11,13 -17,20 -5,6 -10,13 -16,20 -5,7 -14,17 -19,24 -6,8 -10,13 -14,18 -12,20 -19,41 -23,62l20 9c3,-22 10,-43 22,-63 0,-1 0,-2 1,-2 28,4 70,-3 109,-53 58,-74 45,-113 77,-178 -36,24 -132,12 -192,71z"/>
    <path class="fil2" d="M232 309c0,0 0,0 0,0 -7,-6 -13,-13 -20,-20 -6,-6 -12,-12 -18,-18 -6,-6 -12,-13 -18,-18 -7,-6 -13,-12 -19,-18 -7,-6 -13,-11 -19,-17 -6,-5 -12,-11 -18,-16 -6,-5 -11,-10 -16,-14 -9,-9 -18,-17 -23,-23 -6,-5 -9,-9 -9,-9 0,0 17,8 40,22 11,7 24,15 38,25 7,5 14,10 21,15 3,3 7,6 11,9l10 8c1,2 3,3 5,5l5 5c3,3 6,6 9,9 6,7 12,13 17,20 6,6 11,12 15,19 1,1 2,2 3,3 14,-23 15,-92 -47,-139 -67,-50 -160,-28 -199,-46 39,60 32,100 98,167 45,44 86,47 114,39 15,15 27,32 36,50l10 -25c-7,-11 -16,-23 -26,-33z"/>
    <polygon class="fil1" points="60,553 590,553 590,510 60,510 "/>
    <polygon class="fil3" points="14,246 58,488 590,488 644,246 "/>
    <polygon class="fil0" points="399,351 351,351 351,303 306,303 306,351 258,351 258,396 306,396 306,444 351,444 351,396 399,396 "/>
   </g>
  </g>
 </g>
</svg>
