<?xml version="1.0" encoding="UTF-8"?>
<!DOCTYPE svg PUBLIC "-//W3C//DTD SVG 1.1//EN" "http://www.w3.org/Graphics/SVG/1.1/DTD/svg11.dtd">
<!-- Creator: CorelDRAW X8 -->
<svg xmlns="http://www.w3.org/2000/svg" xml:space="preserve" width="2.13002in" height="2.13002in" version="1.1" style="shape-rendering:geometricPrecision; text-rendering:geometricPrecision; image-rendering:optimizeQuality; fill-rule:evenodd; clip-rule:evenodd"
viewBox="0 0 975 975"
 xmlns:xlink="http://www.w3.org/1999/xlink">
 <defs>
  <style type="text/css">
   <![CDATA[
    .fil1 {fill:#59BAEF;fill-rule:nonzero}
    .fil2 {fill:#C1242F;fill-rule:nonzero}
    .fil0 {fill:#D3D1D1;fill-rule:nonzero}
   ]]>
  </style>
 </defs>
 <g id="Objects">
  <metadata id="CorelCorpID_0Corel-Layer"/>
  <path class="fil0" d="M655 505l-49 0c17,-15 30,-33 29,-57 -3,-46 -56,-75 -85,-90 -4,-2 -8,-4 -10,-5 -14,-9 -23,-7 -29,-4 -6,4 -10,10 -10,17 0,11 7,21 19,29 3,2 7,4 12,6 13,7 37,18 40,30 2,9 -1,13 -11,22l-2 1c-16,14 -33,24 -51,33 -23,-18 -38,-45 -38,-77l0 -90c0,-52 -43,-95 -95,-95l0 0c-52,0 -95,43 -95,95l0 90c0,53 -42,95 -95,95l-90 0c-53,0 -95,43 -95,95 0,52 42,95 95,95l32 0c-2,3 -4,7 -6,11 -21,51 12,98 96,140 3,1 4,2 6,3 6,3 11,4 15,4 11,0 15,-7 17,-9 8,-17 -13,-38 -22,-43 -2,0 -3,-1 -5,-2 -14,-7 -44,-22 -50,-42 -2,-7 -1,-15 4,-24 9,-14 20,-25 33,-33 38,12 65,48 65,90l0 90c0,52 43,95 95,95l0 0c52,0 95,-43 95,-95l0 -90c0,-53 42,-95 95,-95l90 0c52,0 95,-43 95,-95 0,-52 -43,-95 -95,-95z"/>
  <path class="fil0" d="M660 501l-50 0c18,-15 30,-34 29,-58 -2,-46 -56,-74 -85,-89 -4,-3 -8,-5 -10,-6 -13,-8 -23,-6 -28,-3 -6,3 -10,9 -11,17 0,10 7,21 19,28 4,2 8,4 13,7 13,6 37,18 40,30 2,9 -2,13 -12,21l-2 2c-16,13 -33,23 -50,32 -23,-17 -39,-45 -39,-76l0 -91c0,-52 -42,-94 -95,-94l0 0c-52,0 -94,42 -94,94l0 91c0,52 -43,95 -95,95l-91 0c-52,0 -94,42 -94,95 0,52 42,94 94,94l33 0c-2,4 -4,8 -6,12 -21,51 11,98 96,140 2,1 4,2 5,2 6,4 12,5 16,5 10,0 15,-8 16,-10 9,-17 -12,-37 -22,-42 -1,-1 -3,-2 -5,-3 -13,-6 -44,-21 -50,-41 -2,-8 0,-16 5,-25 8,-14 20,-24 32,-33 38,13 66,48 66,90l0 91c0,52 42,94 94,94l0 0c53,0 95,-42 95,-94l0 -91c0,-52 43,-95 95,-95l91 0c52,0 94,-42 94,-94 0,-53 -42,-95 -94,-95z"/>
  <path class="fil0" d="M664 496l-49 0c17,-15 30,-33 29,-57 -3,-46 -56,-75 -85,-90 -4,-2 -8,-4 -10,-5 -14,-9 -23,-7 -29,-4 -6,4 -10,10 -10,17 0,11 7,21 19,29 3,2 7,4 12,6 13,7 37,18 40,30 2,9 -1,13 -11,22l-2 1c-16,14 -33,24 -51,33 -23,-18 -38,-45 -38,-77l0 -90c0,-52 -43,-95 -95,-95l0 0c-52,0 -95,43 -95,95l0 90c0,53 -42,95 -95,95l-90 0c-53,0 -95,43 -95,95 0,52 42,95 95,95l32 0c-2,3 -4,7 -6,11 -21,51 12,98 96,140 3,1 4,2 6,3 6,3 11,4 15,4 11,0 15,-7 17,-9 8,-17 -13,-38 -22,-43 -2,0 -3,-1 -5,-2 -14,-7 -44,-22 -50,-42 -2,-7 -1,-15 4,-24 9,-14 20,-25 33,-33 38,12 65,48 65,90l0 90c0,52 43,95 95,95l0 0c52,0 95,-43 95,-95l0 -90c0,-53 42,-95 95,-95l90 0c52,0 95,-43 95,-95 0,-52 -43,-95 -95,-95z"/>
  <path class="fil0" d="M669 492l-50 0c18,-15 30,-34 29,-58 -2,-46 -56,-74 -85,-89 -4,-3 -8,-5 -10,-6 -13,-8 -23,-6 -28,-3 -6,3 -10,9 -11,17 0,10 7,21 19,28 4,2 8,4 13,7 13,6 37,18 40,30 2,9 -2,13 -12,21l-2 2c-16,13 -33,23 -50,32 -23,-17 -39,-45 -39,-76l0 -91c0,-52 -42,-94 -95,-94l0 0c-52,0 -94,42 -94,94l0 91c0,52 -43,95 -95,95l-91 0c-52,0 -94,42 -94,95 0,52 42,94 94,94l33 0c-2,4 -4,8 -6,12 -21,51 11,98 96,140 2,1 4,2 5,2 6,4 12,5 16,5 10,0 15,-8 16,-10 9,-17 -12,-37 -22,-42 -1,-1 -3,-2 -5,-3 -13,-6 -44,-21 -50,-41 -2,-8 0,-16 5,-25 8,-14 20,-24 32,-33 38,13 66,48 66,90l0 91c0,52 42,94 94,94l0 0c53,0 95,-42 95,-94l0 -91c0,-52 43,-95 95,-95l91 0c52,0 94,-42 94,-94 0,-53 -42,-95 -94,-95z"/>
  <path class="fil0" d="M673 487l-49 0c17,-15 30,-33 29,-57 -3,-46 -56,-75 -85,-90 -4,-2 -8,-4 -10,-5 -14,-9 -23,-7 -29,-4 -6,4 -10,10 -10,17 0,11 7,21 19,29 3,2 7,4 12,6 13,7 37,18 40,30 2,9 -1,13 -11,22l-2 1c-16,14 -33,24 -51,33 -23,-18 -38,-45 -38,-77l0 -90c0,-52 -43,-95 -95,-95l0 0c-52,0 -95,43 -95,95l0 90c0,53 -42,95 -95,95l-90 0c-53,0 -95,43 -95,95 0,52 42,95 95,95l32 0c-2,3 -4,7 -6,11 -21,51 12,98 96,140 3,1 4,2 6,3 6,3 11,4 15,4 11,0 15,-7 17,-9 8,-17 -13,-38 -22,-43 -2,0 -3,-1 -5,-2 -14,-7 -44,-22 -50,-42 -2,-7 -1,-15 4,-24 9,-14 20,-25 33,-33 38,12 65,48 65,90l0 90c0,52 43,95 95,95l0 0c52,0 95,-43 95,-95l0 -90c0,-53 42,-95 95,-95l90 0c52,0 95,-43 95,-95 0,-52 -43,-95 -95,-95z"/>
  <path class="fil0" d="M678 483l-50 0c18,-15 30,-34 29,-58 -2,-46 -56,-74 -85,-89 -4,-3 -8,-5 -10,-6 -13,-8 -23,-6 -28,-3 -6,3 -10,9 -11,17 0,10 7,21 19,28 4,2 8,4 13,7 13,6 37,18 40,30 2,9 -2,13 -12,21l-2 2c-16,13 -33,23 -50,32 -23,-17 -39,-45 -39,-76l0 -91c0,-52 -42,-94 -95,-94l0 0c-52,0 -94,42 -94,94l0 91c0,52 -43,95 -95,95l-91 0c-52,0 -94,42 -94,94 0,53 42,95 94,95l33 0c-2,4 -4,8 -6,12 -21,51 11,98 96,140 2,1 4,2 5,2 7,4 12,5 16,5 10,0 15,-8 16,-10 9,-17 -12,-37 -22,-42 -1,-1 -3,-2 -5,-3 -13,-6 -44,-21 -50,-41 -2,-8 0,-16 5,-25 8,-14 20,-24 32,-33 38,13 66,48 66,90l0 91c0,52 42,94 94,94l0 0c53,0 95,-42 95,-94l0 -91c0,-52 43,-95 95,-95l91 0c52,0 94,-42 94,-95 0,-52 -42,-94 -94,-94z"/>
  <path class="fil0" d="M682 478l-49 0c17,-15 30,-33 29,-57 -3,-46 -56,-75 -85,-90 -4,-2 -8,-4 -10,-5 -14,-9 -23,-7 -29,-4 -6,4 -10,10 -10,17 0,11 7,21 19,29 3,2 7,4 12,6 13,7 37,18 40,30 2,9 -1,13 -11,22l-2 1c-16,14 -33,24 -51,33 -23,-18 -38,-45 -38,-77l0 -90c0,-52 -43,-95 -95,-95l0 0c-52,0 -95,43 -95,95l0 90c0,53 -42,95 -95,95l-90 0c-53,0 -95,43 -95,95 0,52 42,95 95,95l32 0c-2,3 -4,7 -6,11 -21,51 12,98 96,140 3,1 4,2 6,3 6,3 11,4 15,4 11,0 15,-7 17,-9 8,-17 -13,-38 -22,-43 -2,0 -3,-1 -5,-2 -14,-7 -44,-22 -50,-42 -2,-7 -1,-15 4,-24 9,-14 20,-25 33,-33 38,12 65,48 65,90l0 90c0,52 43,95 95,95l0 0c52,0 95,-43 95,-95l0 -90c0,-53 42,-95 95,-95l90 0c52,0 95,-43 95,-95 0,-52 -43,-95 -95,-95z"/>
  <path class="fil0" d="M687 474l-50 0c18,-15 30,-34 29,-58 -2,-46 -56,-74 -85,-89 -4,-3 -8,-5 -10,-6 -13,-8 -23,-6 -28,-3 -6,3 -10,9 -11,17 0,10 7,21 19,28 4,2 8,4 13,7 13,6 37,18 40,30 2,9 -2,13 -12,21l-2 2c-16,13 -33,23 -50,32 -23,-17 -39,-45 -39,-76l0 -91c0,-52 -42,-94 -95,-94l0 0c-52,0 -94,42 -94,94l0 91c0,52 -43,95 -95,95l-91 0c-52,0 -94,42 -94,94 0,53 42,95 94,95l33 0c-2,4 -4,8 -6,12 -21,51 11,98 96,140 2,1 4,2 5,2 7,4 12,5 16,5 10,0 15,-8 16,-10 9,-17 -12,-37 -22,-42 -1,-1 -3,-2 -5,-3 -13,-6 -44,-21 -50,-41 -2,-8 0,-16 5,-25 8,-14 20,-24 33,-33 37,13 65,48 65,90l0 91c0,52 42,94 94,94l0 0c53,0 95,-42 95,-94l0 -91c0,-52 43,-95 95,-95l91 0c52,0 94,-42 94,-95 0,-52 -42,-94 -94,-94z"/>
  <path class="fil0" d="M691 469l-49 0c17,-15 30,-33 29,-57 -3,-46 -56,-75 -85,-90 -4,-2 -8,-4 -10,-5 -14,-9 -23,-7 -29,-4 -6,4 -10,10 -10,17 0,11 7,21 19,29 3,2 7,4 12,6 13,7 37,18 40,30 2,9 -1,13 -11,22l-2 1c-16,14 -33,24 -51,33 -23,-18 -38,-45 -38,-77l0 -90c0,-52 -43,-95 -95,-95l0 0c-52,0 -95,43 -95,95l0 90c0,53 -42,95 -95,95l-90 0c-53,0 -95,43 -95,95 0,52 42,95 95,95l32 0c-2,3 -4,7 -6,11 -21,51 12,98 96,140 3,1 4,2 6,3 6,3 11,4 15,4 11,0 15,-7 17,-9 8,-17 -13,-38 -22,-43 -2,0 -3,-1 -5,-2 -14,-7 -44,-22 -50,-42 -2,-7 -1,-15 4,-24 9,-14 20,-25 33,-33 38,12 65,48 65,90l0 90c0,52 43,95 95,95l0 0c52,0 95,-43 95,-95l0 -90c0,-53 42,-95 95,-95l90 0c52,0 95,-43 95,-95 0,-52 -43,-95 -95,-95z"/>
  <path class="fil0" d="M696 465l-50 0c18,-15 30,-34 29,-58 -2,-46 -56,-74 -85,-89 -4,-3 -8,-5 -10,-6 -13,-8 -23,-6 -28,-3 -6,3 -10,9 -10,17 -1,10 6,21 18,28 4,2 8,4 13,7 13,6 37,18 40,30 2,9 -2,13 -12,21l-2 2c-16,13 -33,23 -50,32 -23,-17 -39,-45 -39,-76l0 -91c0,-52 -42,-94 -95,-94l0 0c-52,0 -94,42 -94,94l0 91c0,52 -43,95 -95,95l-91 0c-52,0 -94,42 -94,94 0,53 42,95 94,95l33 0c-2,4 -4,8 -6,12 -21,51 11,98 96,140 2,1 4,2 5,2 7,4 12,5 16,5 10,0 15,-8 16,-10 9,-17 -12,-37 -22,-42 -1,-1 -3,-2 -5,-3 -13,-6 -44,-21 -50,-41 -2,-8 0,-16 5,-25 8,-14 20,-24 33,-33 37,13 65,48 65,90l0 91c0,52 42,94 94,94l0 0c53,0 95,-42 95,-94l0 -91c0,-52 43,-95 95,-95l91 0c52,0 94,-42 94,-95 0,-52 -42,-94 -94,-94z"/>
  <path class="fil0" d="M700 460l-49 0c17,-15 30,-33 29,-57 -3,-46 -56,-75 -85,-90 -4,-2 -8,-4 -10,-5 -14,-9 -23,-7 -29,-4 -6,4 -10,10 -10,17 0,11 7,21 19,29 3,2 7,4 12,6 13,7 37,18 40,30 2,9 -1,13 -11,21l-2 2c-16,14 -33,24 -51,33 -23,-18 -38,-45 -38,-77l0 -90c0,-52 -43,-95 -95,-95l0 0c-52,0 -95,43 -95,95l0 90c0,53 -42,95 -95,95l-90 0c-53,0 -95,43 -95,95 0,52 42,95 95,95l32 0c-2,3 -4,7 -6,11 -21,51 12,98 96,140 3,1 4,2 6,3 6,3 11,4 15,4 11,0 15,-7 17,-9 8,-17 -13,-38 -22,-43 -2,0 -3,-1 -5,-2 -13,-7 -44,-22 -50,-42 -2,-7 -1,-15 4,-24 9,-14 21,-25 33,-33 38,12 65,48 65,90l0 90c0,52 43,95 95,95l0 0c52,0 95,-43 95,-95l0 -90c0,-53 42,-95 95,-95l90 0c52,0 95,-43 95,-95 0,-52 -43,-95 -95,-95z"/>
  <path class="fil0" d="M705 456l-50 0c18,-15 30,-34 29,-58 -2,-46 -56,-74 -85,-89 -4,-3 -8,-5 -10,-6 -13,-8 -23,-6 -28,-3 -6,3 -10,9 -10,17 -1,10 6,21 18,28 4,2 8,4 13,7 13,6 37,18 40,30 2,9 -2,13 -12,21l-2 2c-16,13 -33,23 -50,32 -23,-17 -39,-45 -39,-76l0 -91c0,-52 -42,-94 -95,-94l0 0c-52,0 -94,42 -94,94l0 91c0,52 -43,95 -95,95l-91 0c-52,0 -94,42 -94,94 0,53 42,95 94,95l33 0c-2,4 -4,8 -6,12 -21,51 11,98 96,140 2,1 4,2 5,2 7,4 12,5 16,5 10,0 15,-8 16,-10 9,-17 -12,-37 -22,-42 -1,-1 -3,-2 -5,-3 -13,-6 -44,-21 -50,-41 -2,-8 0,-16 5,-25 8,-14 20,-24 33,-33 37,13 65,48 65,90l0 91c0,52 42,94 94,94l0 0c53,0 95,-42 95,-94l0 -91c0,-52 43,-95 95,-95l91 0c52,0 94,-42 94,-95 0,-52 -42,-94 -94,-94z"/>
  <path class="fil0" d="M709 451l-49 0c17,-15 30,-33 29,-57 -3,-46 -56,-75 -85,-90 -4,-2 -8,-4 -10,-5 -14,-9 -23,-7 -29,-4 -6,4 -10,10 -10,17 0,11 7,21 19,29 3,2 7,4 12,6 13,7 37,18 40,30 2,9 -1,13 -11,21l-2 2c-16,14 -33,24 -50,33 -24,-18 -39,-45 -39,-77l0 -90c0,-52 -43,-95 -95,-95l0 0c-52,0 -95,43 -95,95l0 90c0,53 -42,95 -95,95l-90 0c-53,0 -95,43 -95,95 0,52 42,95 95,95l32 0c-2,3 -4,7 -6,11 -21,51 12,98 96,140 3,1 4,2 6,3 6,3 11,4 15,4 11,0 15,-7 17,-9 8,-17 -13,-38 -22,-43 -2,0 -3,-1 -5,-2 -13,-7 -44,-22 -50,-42 -2,-7 -1,-15 4,-24 9,-15 21,-25 33,-33 38,12 65,48 65,90l0 90c0,52 43,95 95,95l0 0c52,0 95,-43 95,-95l0 -90c0,-53 42,-95 95,-95l90 0c52,0 95,-43 95,-95 0,-52 -43,-95 -95,-95z"/>
  <path class="fil0" d="M714 447l-50 0c18,-15 30,-34 29,-58 -2,-46 -56,-74 -85,-89 -4,-3 -8,-5 -10,-6 -13,-8 -23,-6 -28,-3 -6,3 -10,9 -10,17 -1,10 6,21 18,28 4,2 8,4 13,7 13,6 37,18 40,30 2,9 -2,13 -12,21l-2 2c-16,13 -33,23 -50,32 -23,-17 -39,-45 -39,-76l0 -91c0,-52 -42,-94 -95,-94l0 0c-52,0 -94,42 -94,94l0 91c0,52 -43,95 -95,95l-91 0c-52,0 -94,42 -94,94 0,53 42,95 94,95l33 0c-2,4 -4,8 -6,12 -21,51 11,98 96,140 2,1 4,2 5,2 7,4 12,5 16,5 10,0 15,-8 16,-10 9,-17 -12,-37 -22,-42 -1,-1 -3,-2 -5,-3 -13,-6 -44,-21 -50,-41 -2,-8 0,-16 5,-25 8,-14 20,-24 33,-33 37,13 65,48 65,90l0 91c0,52 42,94 94,94l0 0c53,0 95,-42 95,-94l0 -91c0,-52 43,-95 95,-95l91 0c52,0 94,-42 94,-95 0,-52 -42,-94 -94,-94z"/>
  <path class="fil0" d="M718 442l-49 0c17,-15 30,-33 29,-57 -3,-46 -56,-75 -85,-90 -4,-2 -8,-4 -10,-5 -14,-9 -23,-7 -29,-4 -6,4 -10,10 -10,17 0,11 7,21 19,29 3,2 7,4 12,6 13,7 37,18 40,30 2,9 -1,13 -11,21l-2 2c-16,14 -33,24 -50,33 -24,-18 -39,-45 -39,-77l0 -90c0,-52 -43,-95 -95,-95l0 0c-52,0 -95,43 -95,95l0 90c0,53 -42,95 -95,95l-90 0c-53,0 -95,43 -95,95 0,52 42,95 95,95l32 0c-2,3 -4,7 -6,11 -21,51 12,98 96,140 3,1 4,2 6,3 6,3 11,4 15,4 11,0 15,-7 17,-9 8,-17 -13,-38 -22,-43 -2,0 -3,-1 -5,-2 -13,-7 -44,-22 -50,-42 -2,-7 -1,-15 4,-24 9,-15 21,-25 33,-33 38,12 65,48 65,90l0 90c0,52 43,95 95,95l0 0c52,0 95,-43 95,-95l0 -90c0,-53 42,-95 95,-95l90 0c52,0 95,-43 95,-95 0,-52 -43,-95 -95,-95z"/>
  <path class="fil0" d="M723 438l-50 0c18,-15 30,-34 29,-58 -2,-46 -56,-74 -85,-89 -4,-3 -8,-5 -10,-6 -13,-8 -23,-6 -28,-3 -6,3 -10,9 -10,17 -1,10 6,21 18,28 4,2 8,4 13,7 13,6 37,18 40,30 2,9 -2,13 -12,21l-2 2c-15,13 -33,23 -50,32 -23,-17 -39,-45 -39,-76l0 -91c0,-52 -42,-94 -95,-94l0 0c-52,0 -94,42 -94,94l0 91c0,52 -43,95 -95,95l-91 0c-52,0 -94,42 -94,94 0,53 42,95 94,95l33 0c-2,4 -4,8 -6,12 -21,51 11,98 96,140 2,1 4,2 5,2 7,4 12,5 16,5 10,0 15,-8 16,-10 9,-17 -12,-37 -22,-42 -1,-1 -3,-2 -5,-3 -13,-6 -44,-21 -50,-41 -2,-8 0,-16 5,-25 8,-14 20,-24 33,-33 37,13 65,48 65,90l0 91c0,52 42,94 94,94l0 0c53,0 95,-42 95,-94l0 -91c0,-52 43,-95 95,-95l91 0c52,0 94,-42 94,-95 0,-52 -42,-94 -94,-94z"/>
  <path class="fil0" d="M727 433l-49 0c17,-15 30,-33 29,-57 -3,-46 -56,-75 -85,-90 -4,-2 -8,-4 -10,-5 -14,-9 -23,-7 -29,-4 -6,4 -10,10 -10,17 0,11 7,21 19,29 3,2 7,4 12,6 13,7 37,18 40,30 2,9 -1,13 -11,21l-2 2c-16,14 -33,24 -50,33 -24,-18 -39,-45 -39,-77l0 -90c0,-52 -43,-95 -95,-95l0 0c-52,0 -95,43 -95,95l0 90c0,53 -42,95 -95,95l-90 0c-53,0 -95,43 -95,95 0,52 42,95 95,95l32 0c-2,3 -4,7 -6,11 -21,51 12,98 96,140 3,1 4,2 6,3 6,3 11,4 15,4 11,0 15,-7 17,-9 8,-17 -13,-38 -22,-43 -2,0 -3,-1 -5,-2 -13,-7 -44,-22 -50,-42 -2,-7 -1,-15 4,-24 9,-15 21,-25 33,-33 38,12 65,48 65,90l0 90c0,52 43,95 95,95l0 0c52,0 95,-43 95,-95l0 -90c0,-53 42,-95 95,-95l90 0c52,0 95,-43 95,-95 0,-52 -43,-95 -95,-95z"/>
  <path class="fil0" d="M732 429l-50 0c18,-15 30,-34 29,-58 -2,-46 -56,-74 -85,-89 -4,-3 -8,-5 -10,-6 -13,-8 -23,-6 -28,-3 -6,3 -10,9 -10,17 -1,10 6,21 18,28 4,2 8,4 13,7 13,6 37,18 40,30 2,9 -2,13 -12,21l-2 2c-15,13 -33,23 -50,32 -23,-17 -39,-45 -39,-76l0 -91c0,-52 -42,-94 -95,-94l0 0c-52,0 -94,42 -94,94l0 91c0,52 -43,95 -95,95l-91 0c-52,0 -94,42 -94,94 0,53 42,95 94,95l33 0c-2,4 -4,8 -6,12 -21,51 11,98 96,140 2,1 4,2 5,2 7,4 12,5 16,5 10,0 15,-8 16,-10 9,-17 -12,-37 -22,-42 -1,-1 -3,-2 -5,-3 -13,-6 -44,-21 -50,-41 -2,-8 0,-16 5,-25 8,-14 20,-24 33,-33 37,13 65,48 65,90l0 91c0,52 42,94 94,94l0 0c53,0 95,-42 95,-94l0 -91c0,-52 43,-95 95,-95l91 0c52,0 94,-42 94,-95 0,-52 -42,-94 -94,-94z"/>
  <path class="fil0" d="M736 424l-49 0c17,-15 30,-33 29,-57 -3,-46 -56,-75 -85,-90 -4,-2 -8,-4 -10,-5 -14,-9 -23,-7 -29,-4 -6,4 -10,10 -10,17 0,11 7,21 19,29 3,2 7,4 12,6 13,7 37,18 40,30 2,9 -1,13 -11,21l-2 2c-16,14 -33,24 -50,33 -24,-18 -39,-45 -39,-77l0 -90c0,-52 -43,-95 -95,-95l0 0c-52,0 -95,43 -95,95l0 90c0,53 -42,95 -95,95l-90 0c-53,0 -95,43 -95,95 0,52 42,95 95,95l32 0c-2,3 -4,7 -5,11 -22,51 11,98 95,140 3,1 4,2 6,3 6,3 11,4 15,4 11,0 16,-7 17,-9 8,-17 -13,-38 -22,-43 -2,0 -3,-1 -5,-2 -13,-7 -44,-22 -50,-42 -2,-7 -1,-15 4,-24 9,-15 21,-25 33,-33 38,12 65,48 65,90l0 90c0,52 43,95 95,95l0 0c52,0 95,-43 95,-95l0 -90c0,-53 42,-95 95,-95l90 0c52,0 95,-43 95,-95 0,-52 -43,-95 -95,-95z"/>
  <path class="fil0" d="M741 420l-50 0c18,-15 30,-34 29,-58 -2,-46 -56,-74 -85,-89 -4,-3 -8,-5 -10,-6 -13,-8 -23,-6 -28,-3 -6,3 -10,9 -10,17 -1,10 6,21 18,28 4,2 8,4 13,7 13,6 37,18 40,30 2,9 -2,13 -12,21l-2 2c-15,13 -33,23 -50,32 -23,-17 -39,-45 -39,-76l0 -91c0,-52 -42,-94 -95,-94 -52,0 -94,42 -94,94l0 91c0,52 -43,95 -95,95l-91 0c-52,0 -94,42 -94,94 0,53 42,95 94,95l33 0c-2,4 -4,8 -6,12 -21,51 11,98 96,140 2,1 4,2 5,2 7,4 12,5 16,5 10,0 15,-8 16,-10 9,-17 -12,-37 -22,-42 -1,-1 -3,-2 -5,-3 -13,-6 -44,-21 -50,-41 -2,-8 0,-16 5,-25 8,-14 20,-24 33,-33 37,13 65,48 65,90l0 91c0,52 42,94 94,94 53,0 95,-42 95,-94l0 -91c0,-52 43,-95 95,-95l91 0c52,0 94,-42 94,-95 0,-52 -42,-94 -94,-94z"/>
  <path class="fil0" d="M745 415l-49 0c17,-15 30,-33 29,-57 -3,-46 -56,-75 -85,-90 -4,-2 -8,-4 -10,-5 -14,-9 -23,-7 -29,-4 -6,4 -10,10 -10,17 0,11 7,21 19,29 3,2 7,4 12,6 13,7 37,18 40,30 2,9 -1,13 -11,21l-2 2c-16,14 -33,24 -50,33 -24,-18 -39,-45 -39,-77l0 -90c0,-52 -43,-95 -95,-95 -52,0 -95,43 -95,95l0 90c0,53 -42,95 -95,95l-90 0c-52,0 -95,43 -95,95 0,52 43,95 95,95l32 0c-2,3 -4,7 -5,11 -22,51 11,98 95,140 3,1 4,2 6,3 6,3 11,4 15,4 11,0 16,-7 17,-9 8,-17 -13,-38 -22,-43 -2,0 -3,-1 -5,-2 -13,-7 -44,-22 -50,-42 -2,-7 -1,-15 4,-24 9,-15 21,-25 33,-33 38,12 65,48 65,90l0 90c0,52 43,95 95,95 52,0 95,-43 95,-95l0 -90c0,-53 42,-95 95,-95l90 0c52,0 95,-43 95,-95 0,-52 -43,-95 -95,-95z"/>
  <path class="fil0" d="M750 411l-50 0c18,-15 30,-34 29,-58 -2,-46 -56,-74 -85,-89 -4,-3 -8,-5 -10,-6 -13,-8 -23,-6 -28,-3 -6,3 -10,9 -10,17 -1,10 6,21 18,28 4,2 8,4 13,7 13,6 37,18 40,30 2,9 -2,13 -12,21l-2 2c-15,13 -33,23 -50,32 -23,-17 -39,-45 -39,-76l0 -91c0,-52 -42,-94 -95,-94 -52,0 -94,42 -94,94l0 91c0,52 -43,95 -95,95l-91 0c-52,0 -94,42 -94,94 0,53 42,95 94,95l33 0c-2,4 -4,8 -6,12 -21,51 11,98 96,140 2,1 4,2 5,2 7,4 12,5 16,5 10,0 15,-8 16,-10 9,-17 -12,-37 -22,-42 -1,-1 -3,-2 -5,-3 -13,-6 -44,-21 -50,-41 -2,-8 0,-16 5,-25 8,-14 20,-24 33,-33 37,13 65,48 65,90l0 91c0,52 42,94 94,94 53,0 95,-42 95,-94l0 -91c0,-52 43,-95 95,-95l91 0c52,0 94,-42 94,-95 0,-52 -42,-94 -94,-94z"/>
  <path class="fil0" d="M754 406l-49 0c17,-15 30,-33 29,-57 -3,-46 -56,-75 -85,-90 -4,-2 -8,-4 -10,-5 -14,-9 -23,-7 -29,-4 -6,4 -10,10 -10,17 0,11 7,21 19,29 3,2 7,4 12,6 13,7 37,18 40,30 2,9 -1,13 -11,21l-2 2c-16,14 -33,24 -50,33 -24,-18 -39,-45 -39,-77l0 -90c0,-52 -43,-95 -95,-95 -52,0 -95,43 -95,95l0 90c0,53 -42,95 -95,95l-90 0c-52,0 -95,43 -95,95 0,52 43,95 95,95l32 0c-2,3 -4,7 -5,11 -22,51 11,98 95,140 3,1 4,2 6,3 6,3 11,4 15,4 11,0 16,-7 17,-9 8,-17 -13,-38 -22,-43 -2,0 -3,-1 -5,-2 -13,-7 -44,-22 -50,-42 -2,-7 -1,-15 4,-24 9,-15 21,-25 33,-33 38,12 65,48 65,90l0 90c0,52 43,95 95,95 52,0 95,-43 95,-95l0 -90c0,-53 42,-95 95,-95l90 0c52,0 95,-43 95,-95 0,-52 -43,-95 -95,-95z"/>
  <path class="fil0" d="M759 402l-50 0c18,-15 30,-34 29,-58 -2,-46 -56,-74 -85,-89 -4,-3 -8,-5 -10,-6 -13,-8 -23,-6 -28,-3 -6,3 -10,9 -10,17 -1,10 6,21 18,28 4,2 8,4 13,7 13,6 37,18 40,30 2,9 -2,13 -12,21l-2 2c-15,13 -33,23 -50,32 -23,-17 -39,-45 -39,-76l0 -91c0,-52 -42,-94 -95,-94 -52,0 -94,42 -94,94l0 91c0,52 -43,95 -95,95l-91 0c-52,0 -94,42 -94,94 0,53 42,95 94,95l33 0c-2,4 -4,8 -6,12 -21,51 11,98 96,140 2,1 4,2 5,2 7,4 12,5 16,5 10,0 15,-8 16,-10 9,-17 -12,-37 -22,-42 -1,-1 -3,-2 -5,-3 -13,-6 -44,-21 -50,-41 -2,-8 0,-16 5,-25 8,-14 20,-24 33,-33 37,13 65,48 65,90l0 91c0,52 42,94 94,94 53,0 95,-42 95,-94l0 -91c0,-52 43,-95 95,-95l91 0c52,0 94,-42 94,-95 0,-52 -42,-94 -94,-94z"/>
  <path class="fil0" d="M763 397l-49 0c17,-15 30,-33 29,-57 -3,-46 -56,-75 -85,-90 -4,-2 -8,-4 -10,-5 -14,-9 -23,-7 -29,-4 -6,4 -10,10 -10,17 0,11 7,21 19,29 3,2 7,4 12,6 13,7 37,18 40,30 2,9 -1,13 -11,21l-2 2c-16,14 -33,24 -50,33 -24,-18 -39,-45 -39,-77l0 -90c0,-52 -43,-95 -95,-95 -52,0 -95,43 -95,95l0 90c0,53 -42,95 -95,95l-90 0c-52,0 -95,43 -95,95 0,52 43,95 95,95l32 0c-2,3 -4,7 -5,11 -22,51 11,98 95,140 3,1 4,2 6,3 6,3 11,4 15,4 11,0 16,-7 17,-9 8,-17 -13,-38 -22,-43 -2,0 -3,-1 -5,-2 -13,-7 -44,-22 -50,-42 -2,-7 -1,-15 4,-24 9,-15 21,-25 33,-33 38,12 65,48 65,90l0 90c0,52 43,95 95,95 52,0 95,-43 95,-95l0 -90c0,-53 42,-95 95,-95l90 0c52,0 95,-43 95,-95 0,-52 -43,-95 -95,-95z"/>
  <path class="fil0" d="M768 393l-50 0c18,-15 30,-34 29,-58 -2,-46 -56,-74 -85,-89 -4,-3 -8,-5 -10,-6 -13,-8 -23,-6 -28,-3 -6,3 -10,9 -10,17 -1,10 6,21 18,28 4,2 8,4 13,7 13,6 37,18 40,30 2,9 -2,13 -12,21l-2 2c-15,13 -33,23 -50,32 -23,-17 -39,-45 -39,-76l0 -91c0,-52 -42,-94 -95,-94 -52,0 -94,42 -94,94l0 91c0,52 -43,95 -95,95l-91 0c-52,0 -94,42 -94,94 0,53 42,95 94,95l33 0c-2,4 -4,8 -6,12 -21,51 11,98 96,140 2,1 4,2 5,2 7,4 12,5 16,5 10,0 15,-8 16,-10 9,-17 -12,-37 -22,-42 -1,-1 -3,-2 -5,-3 -13,-6 -44,-21 -50,-41 -2,-8 0,-16 5,-25 8,-14 20,-24 33,-33 37,13 65,48 65,90l0 91c0,52 42,94 94,94 53,0 95,-42 95,-94l0 -91c0,-52 43,-95 95,-95l91 0c52,0 94,-42 94,-95 0,-52 -42,-94 -94,-94z"/>
  <path class="fil0" d="M772 388l-49 0c17,-15 30,-33 29,-57 -3,-46 -56,-75 -85,-90 -4,-2 -8,-4 -10,-5 -14,-9 -23,-7 -29,-4 -6,4 -10,10 -10,17 0,11 7,21 19,29 3,2 7,4 12,6 13,7 37,18 40,30 2,9 -1,13 -11,21l-2 2c-16,14 -33,24 -50,33 -24,-18 -39,-45 -39,-77l0 -90c0,-52 -43,-95 -95,-95 -52,0 -95,43 -95,95l0 90c0,53 -42,95 -95,95l-90 0c-52,0 -95,43 -95,95 0,52 43,95 95,95l32 0c-2,3 -4,7 -5,11 -22,51 11,98 95,140 3,1 4,2 6,3 6,3 11,4 15,4 11,0 16,-7 17,-9 8,-17 -13,-38 -22,-43 -2,0 -3,-1 -5,-2 -13,-7 -44,-22 -50,-42 -2,-7 -1,-15 4,-24 9,-15 21,-25 33,-33 38,12 65,48 65,90l0 90c0,52 43,95 95,95 52,0 95,-43 95,-95l0 -90c0,-53 42,-95 95,-95l90 0c52,0 95,-43 95,-95 0,-52 -43,-95 -95,-95z"/>
  <path class="fil0" d="M777 384l-50 0c18,-15 30,-34 29,-58 -2,-46 -56,-74 -85,-89 -4,-3 -8,-5 -10,-6 -13,-8 -23,-6 -28,-3 -6,3 -10,9 -10,17 -1,10 6,21 18,28 4,2 8,4 13,7 13,6 37,18 40,30 2,9 -2,13 -12,21l-2 2c-15,13 -33,23 -50,32 -23,-17 -39,-45 -39,-76l0 -91c0,-52 -42,-94 -95,-94 -52,0 -94,42 -94,94l0 91c0,52 -43,95 -95,95l-91 0c-52,0 -94,42 -94,94 0,53 42,95 94,95l33 0c-2,4 -4,8 -6,12 -21,51 11,98 96,140 2,1 4,2 5,2 7,4 12,5 16,5 10,0 15,-8 16,-10 9,-17 -12,-37 -22,-42 -1,-1 -3,-2 -5,-3 -13,-6 -44,-21 -50,-41 -2,-8 0,-16 5,-25 8,-14 20,-24 33,-33 37,13 65,48 65,90l0 91c0,52 42,94 94,94 53,0 95,-42 95,-94l0 -91c0,-52 43,-95 95,-95l91 0c52,0 94,-42 94,-95 0,-52 -42,-94 -94,-94z"/>
  <path class="fil0" d="M781 379l-49 0c17,-15 30,-33 29,-57 -3,-46 -56,-75 -85,-90 -4,-2 -8,-4 -10,-5 -14,-9 -23,-7 -29,-4 -6,4 -10,10 -10,17 0,11 7,21 19,29 3,2 7,4 12,6 13,7 37,18 40,30 2,9 -1,13 -11,21l-2 2c-16,14 -33,24 -50,33 -24,-18 -39,-45 -39,-77l0 -90c0,-52 -43,-95 -95,-95 -52,0 -95,43 -95,95l0 90c0,53 -42,95 -95,95l-90 0c-52,0 -95,43 -95,95 0,52 43,95 95,95l32 0c-2,3 -4,7 -5,11 -22,51 11,98 95,140 3,1 4,2 6,3 6,3 11,4 15,4 11,0 16,-7 17,-9 8,-17 -13,-38 -22,-43 -2,0 -3,-1 -5,-2 -13,-7 -44,-22 -50,-42 -2,-7 -1,-15 4,-24 9,-15 21,-25 33,-33 38,12 65,48 65,90l0 90c0,52 43,95 95,95 52,0 95,-43 95,-95l0 -90c0,-53 42,-95 95,-95l90 0c52,0 95,-43 95,-95 0,-52 -43,-95 -95,-95z"/>
  <path class="fil0" d="M786 375l-50 0c18,-15 30,-34 29,-58 -2,-46 -56,-74 -85,-89 -4,-3 -8,-5 -10,-6 -13,-8 -23,-6 -28,-3 -6,3 -10,9 -10,17 -1,10 6,21 18,28 4,2 8,4 13,7 13,6 37,18 40,30 2,9 -2,13 -12,21l-2 2c-15,13 -33,23 -50,32 -23,-17 -39,-45 -39,-76l0 -91c0,-52 -42,-94 -95,-94 -52,0 -94,42 -94,94l0 91c0,52 -43,95 -95,95l-91 0c-52,0 -94,42 -94,94 0,53 42,95 94,95l33 0c-2,4 -4,8 -6,12 -21,51 11,98 96,140 2,1 4,2 5,2 7,4 12,5 16,5 10,0 15,-8 16,-10 9,-17 -12,-37 -22,-42 -1,-1 -3,-2 -5,-3 -13,-6 -44,-21 -50,-41 -2,-8 0,-16 5,-25 8,-14 20,-24 33,-33 37,13 65,48 65,90l0 91c0,52 42,94 94,94 53,0 95,-42 95,-94l0 -91c0,-52 43,-95 95,-95l91 0c52,0 94,-42 94,-95 0,-52 -42,-94 -94,-94z"/>
  <path class="fil0" d="M790 370l-49 0c17,-15 30,-33 29,-57 -3,-46 -56,-75 -85,-90 -4,-2 -8,-4 -10,-5 -14,-9 -23,-7 -29,-4 -6,4 -10,10 -10,17 0,11 7,21 19,29 3,2 7,4 12,6 13,7 37,18 40,30 2,9 -1,13 -11,21l-2 2c-16,14 -33,24 -50,33 -24,-18 -39,-45 -39,-77l0 -90c0,-52 -43,-95 -95,-95 -52,0 -95,43 -95,95l0 90c0,53 -42,95 -95,95l-90 0c-52,0 -95,43 -95,95 0,52 43,95 95,95l32 0c-2,3 -4,7 -5,11 -22,51 11,98 95,140 3,1 4,2 6,3 6,3 11,4 15,4 11,0 16,-7 17,-9 8,-17 -13,-38 -22,-43 -2,0 -3,-1 -5,-2 -13,-7 -44,-22 -50,-42 -2,-7 -1,-15 4,-24 9,-15 21,-25 33,-33 38,12 65,48 65,90l0 90c0,52 43,95 95,95 52,0 95,-43 95,-95l0 -90c0,-53 42,-95 95,-95l90 0c52,0 95,-43 95,-95 0,-52 -43,-95 -95,-95z"/>
  <path class="fil0" d="M795 366l-50 0c18,-15 30,-34 29,-58 -2,-46 -56,-74 -85,-89 -4,-3 -8,-5 -10,-6 -13,-8 -23,-6 -28,-3 -6,3 -10,9 -10,17 -1,10 6,21 18,28 4,2 8,4 13,7 13,6 37,18 40,30 2,9 -2,13 -12,21l-2 2c-15,13 -33,23 -50,32 -23,-17 -39,-45 -39,-76l0 -91c0,-52 -42,-94 -95,-94 -52,0 -94,42 -94,94l0 91c0,52 -43,95 -95,95l-91 0c-52,0 -94,42 -94,94 0,53 42,95 94,95l33 0c-2,4 -4,8 -6,12 -21,51 11,98 96,140 2,1 4,2 5,2 7,4 12,5 16,5 10,0 15,-8 16,-10 9,-17 -12,-37 -22,-42 -1,-1 -3,-2 -5,-3 -13,-6 -44,-21 -50,-41 -2,-8 0,-16 5,-25 8,-14 20,-24 33,-33 37,13 65,48 65,90l0 91c0,52 42,94 94,94 53,0 95,-42 95,-94l0 -91c0,-52 43,-95 95,-95l91 0c52,0 94,-42 94,-95 0,-52 -42,-94 -94,-94z"/>
  <path class="fil0" d="M799 361l-49 0c17,-15 30,-33 29,-57 -3,-46 -56,-75 -85,-90 -4,-2 -8,-4 -10,-5 -14,-9 -23,-7 -29,-4 -6,4 -10,10 -10,17 0,11 7,21 19,29 3,2 7,4 12,6 13,7 37,18 40,30 2,9 -1,13 -11,21l-2 2c-16,14 -33,24 -50,33 -24,-18 -39,-45 -39,-77l0 -90c0,-53 -43,-95 -95,-95 -52,0 -95,42 -95,95l0 90c0,53 -42,95 -95,95l-90 0c-52,0 -95,43 -95,95 0,52 43,95 95,95l32 0c-2,3 -4,7 -5,11 -22,51 11,98 95,140 3,1 4,2 6,3 6,3 11,4 15,4 11,0 16,-7 17,-9 8,-17 -13,-38 -22,-43 -2,0 -3,-1 -5,-2 -13,-7 -44,-22 -50,-42 -2,-7 -1,-15 4,-24 9,-15 21,-25 33,-33 38,12 65,48 65,90l0 90c0,52 43,95 95,95 52,0 95,-43 95,-95l0 -90c0,-53 42,-95 95,-95l90 0c52,0 95,-43 95,-95 0,-52 -43,-95 -95,-95z"/>
  <path class="fil0" d="M804 357l-50 0c18,-15 30,-34 29,-58 -2,-46 -56,-74 -85,-89 -4,-3 -8,-5 -10,-6 -13,-8 -23,-6 -28,-3 -6,3 -10,9 -10,17 -1,10 6,21 18,28 4,2 8,4 13,7 13,6 37,18 40,30 2,9 -2,13 -12,21l-2 2c-15,13 -33,23 -50,32 -23,-17 -39,-45 -39,-76l0 -91c0,-52 -42,-94 -95,-94 -52,0 -94,42 -94,94l0 91c0,52 -43,95 -95,95l-91 0c-52,0 -94,42 -94,94 0,53 42,95 94,95l33 0c-2,4 -4,8 -6,12 -21,51 11,98 96,140 2,1 4,2 5,2 7,4 12,5 16,5 10,0 15,-8 16,-10 9,-17 -12,-37 -22,-42 -1,-1 -3,-2 -5,-3 -13,-6 -44,-21 -50,-41 -2,-8 0,-16 5,-25 8,-14 20,-24 33,-33 37,13 65,48 65,90l0 91c0,52 42,94 94,94 53,0 95,-42 95,-94l0 -91c0,-52 43,-95 95,-95l91 0c52,0 94,-42 94,-95 0,-52 -42,-94 -94,-94z"/>
  <path class="fil0" d="M808 352l-49 0c17,-15 30,-33 29,-57 -3,-46 -56,-75 -85,-90 -4,-2 -8,-4 -10,-5 -14,-9 -23,-7 -29,-4 -6,4 -10,10 -10,17 0,11 7,21 19,29 3,2 7,4 12,6 13,7 37,18 40,30 2,9 -1,13 -11,21l-2 2c-16,14 -33,24 -50,33 -24,-18 -39,-45 -39,-77l0 -90c0,-53 -43,-95 -95,-95l0 0c-52,0 -95,42 -95,95l0 90c0,53 -42,95 -95,95l-90 0c-52,0 -95,43 -95,95 0,52 43,95 95,95l32 0c-2,3 -4,7 -5,11 -22,51 11,98 95,140 3,1 4,2 6,3 6,3 11,4 15,4 11,0 16,-7 17,-9 8,-17 -13,-38 -22,-43 -2,0 -3,-1 -5,-2 -13,-7 -44,-22 -50,-42 -2,-7 -1,-15 4,-24 9,-15 21,-25 33,-33 38,12 65,48 65,90l0 90c0,52 43,95 95,95l0 0c52,0 95,-43 95,-95l0 -90c0,-53 42,-95 95,-95l90 0c52,0 95,-43 95,-95 0,-52 -43,-95 -95,-95z"/>
  <path class="fil0" d="M813 348l-50 0c18,-15 30,-34 29,-58 -2,-46 -56,-74 -85,-89 -4,-3 -8,-5 -10,-6 -13,-8 -23,-6 -28,-3 -6,3 -10,9 -10,17 -1,10 6,21 18,28 4,2 8,4 13,7 13,6 37,18 40,30 2,9 -2,13 -12,21l-2 2c-15,13 -33,23 -50,32 -23,-17 -39,-45 -39,-76l0 -91c0,-52 -42,-94 -95,-94l0 0c-52,0 -94,42 -94,94l0 91c0,52 -43,95 -95,95l-91 0c-52,0 -94,42 -94,94 0,53 42,95 94,95l33 0c-2,4 -4,8 -6,12 -21,51 11,98 96,140 2,1 4,2 5,2 7,4 12,5 16,5 10,0 15,-8 16,-10 9,-17 -12,-37 -22,-42 -1,-1 -3,-2 -5,-3 -13,-6 -44,-21 -50,-41 -2,-8 0,-16 5,-25 8,-14 20,-24 33,-33 37,13 65,48 65,90l0 91c0,52 42,94 94,94l0 0c53,0 95,-42 95,-94l0 -91c0,-52 43,-95 95,-95l91 0c52,0 94,-42 94,-95 0,-52 -42,-94 -94,-94z"/>
  <path class="fil0" d="M817 343l-49 0c17,-15 30,-33 29,-57 -3,-46 -56,-75 -85,-90 -4,-2 -8,-4 -10,-5 -14,-9 -23,-7 -29,-4 -6,4 -10,10 -10,17 0,11 7,21 19,29 3,2 7,4 12,6 13,7 37,18 40,30 2,9 -1,13 -11,21l-2 2c-16,14 -33,24 -50,33 -24,-18 -39,-45 -39,-77l0 -90c0,-53 -43,-95 -95,-95l0 0c-52,0 -95,42 -95,95l0 90c0,53 -42,95 -95,95l-90 0c-52,0 -95,43 -95,95 0,52 43,95 95,95l32 0c-2,3 -4,7 -5,11 -22,51 11,98 95,140 3,1 5,2 6,3 6,3 11,4 15,4 11,0 16,-7 17,-9 8,-17 -13,-38 -22,-43 -2,0 -3,-1 -5,-2 -13,-7 -44,-22 -50,-42 -2,-7 -1,-15 4,-24 9,-15 21,-25 33,-33 38,12 65,48 65,90l0 90c0,52 43,95 95,95l0 0c52,0 95,-43 95,-95l0 -90c0,-53 42,-95 95,-95l90 0c52,0 95,-43 95,-95 0,-52 -43,-95 -95,-95z"/>
  <path class="fil0" d="M822 339l-50 0c18,-15 30,-34 29,-58 -2,-46 -56,-74 -85,-89 -4,-3 -8,-5 -10,-6 -13,-8 -23,-6 -28,-3 -6,3 -10,9 -10,17 -1,10 6,21 18,28 4,2 8,4 13,7 13,6 37,18 40,30 2,9 -2,13 -12,21l-2 2c-15,13 -33,23 -50,32 -23,-17 -39,-45 -39,-76l0 -91c0,-52 -42,-94 -95,-94l0 0c-52,0 -94,42 -94,94l0 91c0,52 -43,95 -95,95l-91 0c-52,0 -94,42 -94,94 0,53 42,95 94,95l33 0c-2,4 -4,8 -6,12 -21,51 11,98 96,140 2,1 4,2 5,2 7,4 12,5 16,5 10,0 15,-8 16,-10 9,-17 -12,-37 -22,-42 -1,-1 -3,-2 -5,-3 -13,-6 -44,-21 -50,-41 -2,-8 0,-16 5,-25 8,-14 20,-24 33,-33 37,13 65,48 65,90l0 91c0,52 42,94 94,94l0 0c53,0 95,-42 95,-94l0 -91c0,-52 43,-95 95,-95l91 0c52,0 94,-42 94,-95 0,-52 -42,-94 -94,-94z"/>
  <path class="fil0" d="M826 334l-49 0c17,-15 30,-33 29,-57 -3,-46 -56,-75 -85,-90 -4,-2 -8,-4 -10,-5 -14,-9 -23,-7 -29,-4 -6,4 -10,10 -10,17 0,11 7,21 19,29 3,2 7,4 12,6 13,7 37,18 40,30 2,9 -1,13 -11,21l-2 2c-16,14 -33,24 -50,33 -24,-18 -39,-45 -39,-77l0 -90c0,-53 -43,-95 -95,-95l0 0c-52,0 -95,42 -95,95l0 90c0,53 -42,95 -95,95l-90 0c-52,0 -95,43 -95,95 0,52 43,95 95,95l32 0c-2,3 -4,7 -5,11 -22,51 11,98 95,140 3,1 5,2 6,3 6,3 11,4 15,4 11,0 16,-7 17,-9 8,-17 -13,-38 -22,-43 -2,0 -3,-1 -5,-2 -13,-7 -44,-22 -50,-42 -2,-7 -1,-15 4,-24 9,-15 21,-25 33,-33 38,12 65,48 65,90l0 90c0,52 43,95 95,95l0 0c52,0 95,-43 95,-95l0 -90c0,-53 42,-95 95,-95l90 0c52,0 95,-43 95,-95 0,-52 -43,-95 -95,-95z"/>
  <path class="fil0" d="M831 330l-50 0c18,-15 30,-34 29,-58 -2,-46 -56,-74 -85,-89 -4,-3 -8,-5 -10,-6 -13,-8 -23,-6 -28,-3 -6,3 -10,9 -10,17 -1,10 6,21 18,28 4,2 8,4 13,7 13,6 37,18 40,30 2,9 -2,13 -12,21l-2 2c-15,13 -33,23 -50,32 -23,-17 -39,-45 -39,-76l0 -91c0,-52 -42,-94 -95,-94l0 0c-52,0 -94,42 -94,94l0 91c0,52 -43,95 -95,95l-91 0c-52,0 -94,42 -94,94 0,53 42,95 94,95l33 0c-2,4 -4,8 -6,12 -21,51 11,98 96,140 2,1 4,2 5,2 7,4 12,5 16,5 10,0 15,-8 16,-10 9,-17 -12,-37 -22,-42 -1,-1 -3,-2 -5,-3 -13,-6 -44,-21 -50,-41 -2,-8 0,-16 5,-25 8,-14 20,-24 33,-33 37,13 65,48 65,90l0 91c0,52 42,94 94,94l0 0c53,0 95,-42 95,-94l0 -91c0,-52 43,-95 95,-95l91 0c52,0 94,-42 94,-95 0,-52 -42,-94 -94,-94z"/>
  <path class="fil0" d="M835 325l-49 0c17,-15 30,-33 29,-57 -3,-46 -56,-75 -85,-90 -4,-2 -8,-4 -10,-5 -14,-9 -23,-7 -29,-4 -6,4 -10,10 -10,17 0,11 7,21 19,29 3,2 7,4 12,6 13,7 37,18 40,30 2,9 -1,13 -11,21l-2 2c-16,14 -33,24 -50,33 -24,-18 -39,-45 -39,-77l0 -90c0,-53 -43,-95 -95,-95l0 0c-52,0 -95,42 -95,95l0 90c0,53 -42,95 -95,95l-90 0c-52,0 -95,43 -95,95 0,52 43,95 95,95l32 0c-2,3 -4,7 -5,11 -22,51 11,98 95,140 3,1 5,2 6,3 6,3 11,4 15,4 11,0 16,-7 17,-9 8,-17 -13,-38 -22,-43 -2,0 -3,-1 -5,-2 -13,-7 -44,-22 -50,-42 -2,-7 -1,-15 4,-24 9,-15 21,-25 33,-33 38,12 65,48 65,90l0 90c0,52 43,95 95,95l0 0c52,0 95,-43 95,-95l0 -90c0,-53 42,-95 95,-95l90 0c52,0 95,-43 95,-95 0,-52 -43,-95 -95,-95z"/>
  <path class="fil0" d="M840 321l-50 0c18,-15 30,-34 29,-58 -2,-46 -56,-74 -85,-89 -4,-3 -8,-5 -10,-6 -13,-8 -23,-6 -28,-3 -6,3 -10,9 -10,17 -1,10 6,21 18,28 4,2 8,4 13,7 13,6 37,18 40,30 2,9 -2,13 -12,21l-2 2c-15,13 -33,23 -50,32 -23,-17 -39,-45 -39,-76l0 -91c0,-52 -42,-94 -95,-94l0 0c-52,0 -94,42 -94,94l0 91c0,52 -43,95 -95,95l-91 0c-52,0 -94,42 -94,94 0,53 42,95 94,95l33 0c-2,4 -4,8 -6,12 -21,51 11,98 96,140 2,1 4,2 5,2 7,4 12,5 16,5 10,0 15,-8 16,-10 9,-17 -12,-37 -22,-42 -1,-1 -3,-2 -5,-3 -13,-6 -44,-21 -50,-41 -2,-8 0,-16 5,-25 8,-14 20,-24 33,-33 37,13 65,48 65,90l0 91c0,52 42,94 94,94l0 0c53,0 95,-42 95,-94l0 -91c0,-52 43,-95 95,-95l91 0c52,0 94,-42 94,-95 0,-52 -42,-94 -94,-94z"/>
  <path class="fil0" d="M844 316l-49 0c17,-15 30,-33 29,-57 -3,-46 -56,-75 -85,-90 -4,-2 -8,-4 -10,-5 -14,-9 -23,-7 -29,-4 -6,4 -10,10 -10,17 0,11 7,21 19,29 3,2 7,4 12,6 13,7 37,18 40,30 2,9 -1,13 -11,21l-2 2c-16,14 -33,24 -50,33 -24,-18 -39,-45 -39,-77l0 -90c0,-53 -43,-95 -95,-95l0 0c-52,0 -95,42 -95,95l0 90c0,53 -42,95 -95,95l-90 0c-52,0 -95,43 -95,95 0,52 43,95 95,95l32 0c-2,3 -4,7 -5,11 -22,51 11,98 95,140 3,1 5,2 6,3 6,3 11,4 15,4 11,0 16,-7 17,-9 8,-17 -13,-38 -22,-43 -2,0 -3,-1 -5,-2 -13,-7 -44,-22 -50,-42 -2,-7 -1,-15 4,-24 9,-15 21,-25 33,-33 38,12 65,48 65,90l0 90c0,52 43,95 95,95l0 0c52,0 95,-43 95,-95l0 -90c0,-53 42,-95 95,-95l90 0c52,0 95,-43 95,-95 0,-52 -43,-95 -95,-95z"/>
  <path class="fil0" d="M849 312l-50 0c18,-15 30,-34 29,-58 -2,-46 -56,-74 -85,-89 -4,-3 -8,-5 -10,-6 -13,-8 -23,-6 -28,-3 -6,3 -10,9 -10,17 -1,10 6,21 18,28 4,2 8,4 13,7 13,6 37,18 40,30 2,9 -2,13 -12,21l-2 2c-15,13 -33,23 -50,32 -23,-17 -39,-45 -39,-76l0 -91c0,-52 -42,-94 -95,-94l0 0c-52,0 -94,42 -94,94l0 91c0,52 -43,95 -95,95l-91 0c-52,0 -94,42 -94,94 0,53 42,95 94,95l33 0c-2,4 -4,8 -6,12 -21,51 11,98 96,140 2,1 4,2 5,2 7,4 12,5 16,5 10,0 15,-8 16,-10 9,-17 -12,-37 -22,-42 -1,-1 -3,-2 -5,-3 -13,-6 -44,-21 -50,-41 -2,-8 0,-16 5,-25 8,-14 20,-24 33,-33 37,13 65,48 65,90l0 91c0,52 42,94 94,94l0 0c53,0 95,-42 95,-94l0 -91c0,-52 43,-95 95,-95l91 0c52,0 94,-42 94,-95 0,-52 -42,-94 -94,-94z"/>
  <path class="fil0" d="M853 307l-49 0c17,-15 30,-33 29,-57 -3,-46 -56,-75 -85,-90 -4,-2 -8,-4 -10,-5 -14,-9 -23,-7 -29,-4 -6,4 -10,10 -10,17 0,11 7,21 19,29 3,2 7,4 12,6 13,7 37,18 40,30 2,9 -1,13 -11,21l-2 2c-16,14 -33,24 -50,33 -24,-18 -39,-45 -39,-77l0 -90c0,-53 -43,-95 -95,-95l0 0c-52,0 -95,42 -95,95l0 90c0,53 -42,95 -95,95l-90 0c-52,0 -95,43 -95,95 0,52 43,95 95,95l32 0c-2,3 -4,7 -5,11 -22,51 11,98 95,140 3,1 5,2 6,3 6,3 11,4 15,4 11,0 16,-7 17,-9 8,-17 -13,-38 -22,-43 -2,0 -3,-1 -5,-2 -13,-7 -44,-22 -50,-42 -2,-7 -1,-15 4,-24 9,-15 21,-25 33,-33 38,12 65,48 65,90l0 90c0,52 43,95 95,95l0 0c52,0 95,-43 95,-95l0 -90c0,-53 42,-95 95,-95l90 0c52,0 95,-43 95,-95 0,-52 -43,-95 -95,-95z"/>
  <path class="fil0" d="M858 303l-50 0c18,-15 30,-34 29,-58 -2,-46 -56,-74 -85,-89 -4,-3 -8,-5 -10,-6 -13,-8 -23,-6 -28,-3 -6,3 -10,9 -10,17 -1,10 6,21 18,28 4,2 8,4 13,7 13,6 37,18 40,30 2,9 -2,13 -12,21l-2 2c-15,13 -33,23 -50,32 -23,-17 -39,-45 -39,-76l0 -91c0,-52 -42,-94 -95,-94l0 0c-52,0 -94,42 -94,94l0 91c0,52 -43,95 -95,95l-91 0c-52,0 -94,42 -94,94 0,53 42,95 94,95l33 0c-2,4 -4,8 -6,12 -21,51 11,98 96,140 2,1 4,2 5,2 7,4 12,5 16,5 10,0 15,-8 16,-10 9,-17 -12,-37 -22,-42 -1,-1 -3,-2 -5,-3 -13,-6 -44,-21 -50,-41 -2,-8 0,-16 5,-25 8,-14 20,-24 33,-33 37,13 65,48 65,90l0 91c0,52 42,94 94,94l0 0c53,0 95,-42 95,-94l0 -91c0,-52 43,-95 95,-95l91 0c52,0 94,-42 94,-95 0,-52 -42,-94 -94,-94z"/>
  <path class="fil0" d="M862 298l-49 0c17,-15 30,-33 29,-57 -3,-47 -56,-75 -85,-90 -4,-2 -8,-4 -10,-5 -14,-9 -23,-7 -29,-4 -6,4 -10,10 -10,17 0,11 7,21 19,29 3,2 7,4 12,6 13,7 37,18 40,30 2,9 -1,13 -11,21l-2 2c-16,14 -33,24 -50,33 -24,-18 -39,-45 -39,-77l0 -90c0,-53 -43,-95 -95,-95l0 0c-52,0 -95,42 -95,95l0 90c0,53 -42,95 -95,95l-90 0c-52,0 -95,43 -95,95 0,52 43,95 95,95l32 0c-2,3 -4,7 -5,11 -22,51 11,98 95,140 3,1 5,2 6,3 6,3 11,4 15,4 11,0 16,-7 17,-9 8,-17 -13,-38 -22,-43 -2,0 -3,-1 -5,-2 -13,-7 -44,-22 -50,-42 -2,-7 -1,-15 4,-24 9,-15 21,-25 33,-33 38,12 65,48 65,90l0 90c0,52 43,95 95,95l0 0c52,0 95,-43 95,-95l0 -90c0,-53 42,-95 95,-95l90 0c52,0 95,-43 95,-95 0,-52 -43,-95 -95,-95z"/>
  <path class="fil0" d="M867 294l-50 0c18,-15 30,-34 29,-58 -2,-46 -56,-74 -85,-89 -4,-3 -8,-5 -10,-6 -13,-8 -23,-6 -28,-3 -6,3 -10,9 -10,17 -1,10 6,21 19,28 3,2 7,4 12,7 13,6 37,18 40,30 2,9 -2,13 -12,21l-2 2c-15,13 -33,23 -50,32 -23,-17 -39,-45 -39,-76l0 -91c0,-52 -42,-94 -94,-94l0 0c-53,0 -95,42 -95,94l0 91c0,52 -43,95 -95,95l-91 0c-52,0 -94,42 -94,94 0,53 42,95 94,95l33 0c-2,4 -4,8 -6,12 -21,51 11,98 96,140 2,1 4,2 5,2 7,4 12,5 16,5 10,0 15,-8 16,-10 9,-17 -12,-37 -22,-42 -1,-1 -3,-2 -5,-3 -13,-6 -44,-21 -50,-41 -2,-8 0,-16 5,-25 8,-14 20,-24 33,-33 37,13 65,48 65,90l0 91c0,52 42,94 95,94l0 0c52,0 94,-42 94,-94l0 -91c0,-52 43,-95 95,-95l91 0c52,0 94,-42 94,-95 0,-52 -42,-94 -94,-94z"/>
  <path class="fil0" d="M871 289l-49 0c17,-15 30,-33 29,-57 -3,-47 -56,-75 -85,-90 -4,-2 -8,-4 -10,-5 -14,-9 -23,-7 -29,-4 -6,4 -10,10 -10,17 0,11 7,21 19,29 3,2 7,4 12,6 13,7 37,18 40,30 2,9 -1,13 -11,21l-2 2c-16,14 -33,24 -50,33 -24,-18 -39,-45 -39,-77l0 -90c0,-53 -43,-95 -95,-95l0 0c-52,0 -95,42 -95,95l0 90c0,53 -42,95 -95,95l-90 0c-52,0 -95,43 -95,95 0,52 43,95 95,95l32 0c-2,3 -4,7 -5,11 -22,51 11,98 95,140 3,1 5,2 6,3 6,3 11,4 15,4 11,0 16,-7 17,-9 8,-17 -13,-38 -22,-43 -2,0 -3,-1 -5,-2 -13,-7 -44,-22 -50,-42 -2,-7 -1,-15 4,-24 9,-15 21,-25 33,-33 38,12 65,48 65,90l0 90c0,52 43,95 95,95l0 0c52,0 95,-43 95,-95l0 -90c0,-53 42,-95 95,-95l90 0c52,0 95,-43 95,-95 0,-52 -43,-95 -95,-95z"/>
  <path class="fil0" d="M876 285l-50 0c18,-15 30,-34 29,-58 -2,-46 -56,-74 -85,-89 -4,-3 -8,-5 -10,-6 -13,-8 -23,-6 -28,-3 -6,3 -10,9 -10,17 -1,10 6,21 19,28 3,2 7,4 12,7 13,6 37,18 40,30 2,9 -2,13 -12,21l-2 2c-15,13 -33,23 -50,32 -23,-17 -39,-45 -39,-76l0 -91c0,-52 -42,-94 -94,-94l0 0c-53,0 -95,42 -95,94l0 91c0,52 -43,95 -95,95l-91 0c-52,0 -94,42 -94,94 0,53 42,95 94,95l33 0c-2,4 -4,8 -6,12 -21,51 11,98 96,140 2,1 4,2 5,2 7,4 12,5 16,5 10,0 15,-8 16,-10 9,-17 -12,-37 -22,-42 -1,-1 -3,-2 -5,-3 -13,-6 -44,-21 -50,-41 -2,-8 0,-16 5,-25 8,-14 20,-24 33,-33 37,13 65,48 65,90l0 91c0,52 42,94 95,94l0 0c52,0 94,-42 94,-94l0 -91c0,-52 43,-95 95,-95l91 0c52,0 94,-42 94,-95 0,-52 -42,-94 -94,-94z"/>
  <path class="fil0" d="M880 280l-49 0c17,-15 30,-33 29,-57 -3,-47 -56,-75 -85,-90 -4,-2 -8,-4 -10,-5 -14,-9 -23,-7 -29,-4 -6,4 -10,10 -10,17 0,11 7,21 19,29 3,2 7,4 12,6 13,7 37,18 40,30 2,9 -1,13 -11,21l-2 2c-16,14 -33,24 -50,33 -24,-18 -39,-45 -39,-77l0 -90c0,-53 -43,-95 -95,-95l0 0c-52,0 -95,42 -95,95l0 90c0,53 -42,95 -95,95l-90 0c-52,0 -95,43 -95,95 0,52 43,95 95,95l32 0c-2,3 -4,7 -5,11 -22,51 11,98 95,140 3,1 5,2 6,3 6,3 11,4 15,4 11,0 16,-7 17,-9 8,-17 -13,-38 -22,-43 -2,0 -3,-1 -5,-2 -13,-7 -44,-22 -50,-42 -2,-7 -1,-15 4,-24 9,-15 21,-25 33,-33 38,12 65,48 65,90l0 90c0,52 43,95 95,95l0 0c52,0 95,-43 95,-95l0 -90c0,-53 42,-95 95,-95l90 0c52,0 95,-43 95,-95 0,-52 -43,-95 -95,-95z"/>
  <path class="fil1" d="M880 280l-90 0c-53,0 -95,-42 -95,-95l0 -90c0,-53 -43,-95 -95,-95l0 0c-52,0 -95,42 -95,95l0 90c0,53 -42,95 -95,95l-90 0c-52,0 -95,43 -95,95 0,52 43,95 95,95l90 0c53,0 95,42 95,95l0 90c0,52 43,95 95,95l0 0c52,0 95,-43 95,-95l0 -90c0,-53 42,-95 95,-95l90 0c52,0 95,-43 95,-95 0,-52 -43,-95 -95,-95z"/>
  <path class="fil2" d="M860 223c-3,-47 -56,-75 -85,-90 -4,-2 -8,-4 -10,-5 -14,-9 -23,-7 -29,-4 -6,4 -10,10 -10,17 0,11 7,21 19,29 3,2 7,4 12,6 13,7 37,18 40,30 2,9 -1,13 -11,21l-2 2c-25,21 -52,34 -79,46 -5,3 -11,5 -16,8 -31,15 -63,29 -94,43 -18,8 -36,17 -55,25l-2 1c-39,18 -80,37 -119,61 -3,2 -5,4 -9,5 -21,13 -49,30 -63,63 -22,51 11,98 95,140 3,1 5,2 6,3 6,3 11,4 15,4 11,0 16,-7 17,-9 8,-17 -13,-38 -22,-43 -2,0 -3,-1 -5,-2 -13,-7 -44,-22 -50,-42 -2,-7 -1,-15 4,-24 15,-25 39,-38 60,-50 4,-2 8,-4 12,-6 53,-30 108,-55 162,-78 36,-17 74,-33 110,-52 2,-1 6,-2 10,-4 33,-13 101,-41 99,-95z"/>
 </g>
</svg>
