<?xml version="1.0" encoding="UTF-8"?>
<!DOCTYPE svg PUBLIC "-//W3C//DTD SVG 1.1//EN" "http://www.w3.org/Graphics/SVG/1.1/DTD/svg11.dtd">
<!-- Creator: CorelDRAW X8 -->
<svg xmlns="http://www.w3.org/2000/svg" xml:space="preserve" width="0.862461in" height="0.669165in" version="1.1" style="shape-rendering:geometricPrecision; text-rendering:geometricPrecision; image-rendering:optimizeQuality; fill-rule:evenodd; clip-rule:evenodd"
viewBox="0 0 311 241"
 xmlns:xlink="http://www.w3.org/1999/xlink">
 <defs>
  <style type="text/css">
   <![CDATA[
    .fil0 {fill:#727371}
   ]]>
  </style>
 </defs>
 <g id="Layer_x0020_1">
  <metadata id="CorelCorpID_0Corel-Layer"/>
  <path class="fil0" d="M59 89c35,11 49,16 57,21 -2,3 -4,6 -6,8 0,1 -1,2 0,4 0,1 1,2 2,3l161 113c8,5 18,3 23,-4l11 -17c3,-3 4,-8 3,-12 0,-4 -3,-8 -6,-10l-162 -113c-2,-2 -5,-1 -7,1 -1,2 -3,4 -5,7l-127 -90c-1,-1 -3,0 -3,1 0,5 -1,14 1,26 2,9 5,19 11,29 3,4 7,8 11,13 9,8 20,16 36,20l0 0z"/>
 </g>
</svg>
