<?xml version="1.0" encoding="UTF-8"?>
<!DOCTYPE svg PUBLIC "-//W3C//DTD SVG 1.1//EN" "http://www.w3.org/Graphics/SVG/1.1/DTD/svg11.dtd">
<!-- Creator: CorelDRAW X8 -->
<svg xmlns="http://www.w3.org/2000/svg" xml:space="preserve" width="2.30818in" height="1.95379in" version="1.1" style="shape-rendering:geometricPrecision; text-rendering:geometricPrecision; image-rendering:optimizeQuality; fill-rule:evenodd; clip-rule:evenodd"
viewBox="0 0 2846 2409"
 xmlns:xlink="http://www.w3.org/1999/xlink">
 <defs>
  <style type="text/css">
   <![CDATA[
    .fil0 {fill:#00BABA;fill-rule:nonzero}
   ]]>
  </style>
 </defs>
 <g id="Layer_x0020_1">
  <metadata id="CorelCorpID_0Corel-Layer"/>
  <path class="fil0" d="M2417 1062l-455 0 -152 481 0 -894 -389 709 -81 -386 -266 607 0 -776 -274 356 -372 0 0 -495c0,-136 139,-246 311,-246l1368 0c171,0 310,110 310,246l0 398zm0 684c0,135 -139,245 -310,245l-1368 0c-172,0 -311,-110 -311,-245l0 -545 392 0 212 -275 0 853 294 -670 77 368 365 -665 0 1003 225 -711 424 0 0 642zm-16 -1746l-1956 0c-246,0 -445,169 -445,377l0 1656c0,208 199,376 445,376l1956 0c246,0 445,-168 445,-376l0 -1656c0,-208 -199,-377 -445,-377z"/>
 </g>
</svg>
