<?xml version="1.0" encoding="UTF-8"?>
<!DOCTYPE svg PUBLIC "-//W3C//DTD SVG 1.1//EN" "http://www.w3.org/Graphics/SVG/1.1/DTD/svg11.dtd">
<!-- Creator: CorelDRAW X8 -->
<svg xmlns="http://www.w3.org/2000/svg" xml:space="preserve" width="0.751815in" height="1.31615in" version="1.1" style="shape-rendering:geometricPrecision; text-rendering:geometricPrecision; image-rendering:optimizeQuality; fill-rule:evenodd; clip-rule:evenodd"
viewBox="0 0 138 241"
 xmlns:xlink="http://www.w3.org/1999/xlink">
 <defs>
  <style type="text/css">
   <![CDATA[
    .fil0 {fill:#00A1AC;fill-rule:nonzero}
    .fil1 {fill:white;fill-rule:nonzero}
   ]]>
  </style>
 </defs>
 <g id="Object">
  <metadata id="CorelCorpID_0Corel-Layer"/>
  <path class="fil0" d="M136 115l-23 -46c-1,-2 -4,-4 -6,-4l-34 0 -8 0 -34 0c-2,0 -5,2 -6,4l-23 46c-1,2 -2,5 -2,8l0 114c0,2 2,4 4,4l64 0 2 0 64 0c2,0 4,-2 4,-4l0 -114c0,-3 -1,-6 -2,-8z"/>
  <path class="fil1" d="M105 168c-2,4 -5,9 -7,12 -1,1 -2,3 -3,4 -10,10 -17,19 -21,24 -3,3 -8,3 -11,0 -4,-6 -11,-14 -21,-24 -1,-1 -2,-2 -2,-3l-3 -5c-3,-4 -4,-8 -5,-11 -2,-5 -2,-13 0,-17 3,-7 10,-11 18,-11 5,-1 10,1 14,5 3,3 6,3 10,0 3,-4 8,-6 13,-6 11,0 20,9 20,20 0,0 0,5 -2,12z"/>
  <path class="fil0" d="M84 168l-9 0c-1,0 -1,0 -1,-1l0 -9c0,-1 -1,-1 -1,-1l-8 0c-1,0 -1,0 -1,1l0 9c0,1 -1,1 -1,1l-10 0c0,0 -1,1 -1,2l0 7c0,1 1,1 1,1l10 0c0,0 1,1 1,2l0 9c0,1 0,1 1,1l8 0c0,0 1,0 1,-1l0 -9c0,-1 0,-2 1,-2l9 0c1,0 1,0 1,-1l0 -7c0,-1 0,-2 -1,-2z"/>
  <path class="fil0" d="M19 50l100 0c2,0 4,-2 4,-4l0 -42c0,-2 -2,-4 -4,-4l-100 0c-2,0 -4,2 -4,4l0 42c0,2 2,4 4,4z"/>
 </g>
</svg>
