<?xml version="1.0" encoding="UTF-8"?>
<!DOCTYPE svg PUBLIC "-//W3C//DTD SVG 1.1//EN" "http://www.w3.org/Graphics/SVG/1.1/DTD/svg11.dtd">
<!-- Creator: CorelDRAW X8 -->
<svg xmlns="http://www.w3.org/2000/svg" xml:space="preserve" width="2.08372in" height="1.87793in" version="1.1" style="shape-rendering:geometricPrecision; text-rendering:geometricPrecision; image-rendering:optimizeQuality; fill-rule:evenodd; clip-rule:evenodd"
viewBox="0 0 241 217"
 xmlns:xlink="http://www.w3.org/1999/xlink">
 <defs>
  <style type="text/css">
   <![CDATA[
    .fil4 {fill:#59BAEF;fill-rule:nonzero}
    .fil2 {fill:#66B305;fill-rule:nonzero}
    .fil0 {fill:#D3D1D1;fill-rule:nonzero}
    .fil1 {fill:#E40103;fill-rule:nonzero}
    .fil3 {fill:white;fill-rule:nonzero}
   ]]>
  </style>
 </defs>
 <g id="Objects">
  <metadata id="CorelCorpID_0Corel-Layer"/>
  <path class="fil0" d="M113 100c0,-17 -17,-39 -20,-43 -1,0 -1,0 -2,0 -3,4 -20,26 -20,43 0,20 9,28 21,28 12,0 21,-8 21,-28z"/>
  <path class="fil0" d="M151 112c-1,0 -2,0 -4,1 -1,1 -3,1 -5,2 -6,2 -11,5 -17,8 -10,5 -20,10 -29,16l30 61c7,15 26,21 41,14 15,-8 21,-26 14,-41l-30 -61z"/>
  <path class="fil0" d="M42 115c-2,-1 -4,-1 -6,-2 -1,-1 -2,-1 -3,-1l-30 61c-7,15 -1,33 14,41 15,7 34,1 41,-14l30 -61c-9,-6 -19,-11 -29,-16 -6,-3 -12,-6 -17,-8z"/>
  <path class="fil0" d="M114 99c0,-17 -17,-39 -20,-43 -1,0 -1,0 -2,0 -3,4 -20,26 -20,43 0,20 9,28 21,28 12,0 21,-8 21,-28z"/>
  <path class="fil0" d="M152 110c-1,1 -2,1 -3,2 -2,0 -4,1 -6,2 -6,2 -11,5 -17,8 -10,5 -20,10 -29,16l30 61c7,15 26,21 41,14 15,-8 21,-26 14,-42l-30 -61z"/>
  <path class="fil0" d="M43 114c-2,-1 -4,-2 -6,-2 -1,-1 -2,-1 -3,-1l-30 61c-7,15 -1,33 14,41 16,7 34,1 42,-14l29 -61c-9,-6 -19,-11 -29,-17 -6,-2 -12,-5 -17,-7z"/>
  <path class="fil0" d="M116 98c0,-17 -18,-39 -21,-43 0,-1 -1,-1 -1,0 -4,4 -21,26 -21,43 0,19 9,28 21,28 12,0 22,-9 22,-28z"/>
  <path class="fil0" d="M153 109c-1,1 -2,1 -3,2 -2,0 -4,1 -6,2 -5,2 -11,5 -17,7 -10,5 -20,11 -29,17l30 61c7,15 26,21 41,14 15,-8 22,-26 14,-42l-30 -61z"/>
  <path class="fil0" d="M44 113c-2,-1 -4,-2 -6,-2 -1,-1 -2,-1 -3,-2l-30 61c-7,16 -1,34 15,42 15,7 33,1 41,-15l29 -60c-9,-6 -19,-12 -29,-17 -6,-2 -11,-5 -17,-7z"/>
  <path class="fil0" d="M117 97c0,-18 -17,-39 -21,-43 0,-1 -1,-1 -1,0 -4,4 -21,25 -21,43 0,19 10,28 21,28 12,0 22,-9 22,-28z"/>
  <path class="fil0" d="M154 108c-1,1 -2,1 -3,1 -2,1 -4,2 -6,3 -5,2 -11,4 -17,7 -10,5 -20,11 -29,17l30 60c7,16 26,22 41,14 15,-7 22,-26 14,-41l-30 -61z"/>
  <path class="fil0" d="M45 112c-2,-1 -4,-2 -5,-2 -2,-1 -3,-1 -4,-2l-29 61c-8,16 -2,34 14,41 15,8 33,2 41,-14l29 -60c-9,-6 -19,-12 -29,-17 -6,-3 -11,-5 -17,-7z"/>
  <path class="fil0" d="M118 96c0,-18 -17,-39 -21,-43 0,-1 -1,-1 -1,0 -4,4 -21,25 -21,43 0,19 10,28 22,28 11,0 21,-9 21,-28z"/>
  <path class="fil0" d="M155 107c-1,0 -2,1 -3,1 -2,1 -4,2 -5,3 -6,2 -12,4 -17,7 -11,5 -20,11 -30,17l30 60c8,15 26,22 41,14 16,-7 22,-26 14,-41l-30 -61z"/>
  <path class="fil0" d="M46 111c-2,-1 -3,-2 -5,-3 -1,0 -2,0 -4,-1l-29 61c-8,15 -1,34 14,41 15,8 34,1 41,-14l29 -60c-9,-6 -18,-12 -29,-17 -5,-3 -11,-5 -17,-7z"/>
  <path class="fil0" d="M119 95c0,-18 -17,-39 -21,-44 0,0 -1,0 -1,0 -4,5 -21,26 -21,44 0,19 10,28 22,28 11,0 21,-9 21,-28z"/>
  <path class="fil0" d="M156 106c-1,0 -2,1 -3,1 -2,1 -3,2 -5,2 -6,3 -12,5 -17,8 -11,5 -20,11 -29,17l29 60c8,15 26,22 41,14 16,-7 22,-26 14,-41l-30 -61z"/>
  <path class="fil0" d="M47 109c-1,0 -3,-1 -5,-2 -1,0 -2,-1 -3,-1l-30 61c-8,15 -1,34 14,41 15,8 34,1 41,-14l30 -60c-10,-6 -19,-12 -30,-17 -5,-3 -11,-5 -17,-8z"/>
  <path class="fil0" d="M120 93c0,-17 -17,-38 -21,-43 0,0 -1,0 -1,0 -3,5 -21,26 -21,43 0,20 10,28 22,28 12,0 21,-8 21,-28z"/>
  <path class="fil0" d="M158 105c-1,0 -3,1 -4,1 -2,1 -3,1 -5,2 -6,3 -12,5 -17,8 -10,5 -20,11 -29,17l29 60c8,15 26,21 42,14 15,-7 21,-26 14,-41l-30 -61z"/>
  <path class="fil0" d="M48 108c-1,0 -3,-1 -5,-2 -1,0 -2,-1 -3,-1l-30 61c-8,15 -1,34 14,41 15,7 34,1 41,-14l30 -61c-9,-6 -19,-11 -29,-16 -6,-3 -12,-5 -18,-8z"/>
  <path class="fil0" d="M121 92c0,-17 -17,-39 -20,-43 -1,0 -1,0 -2,0 -3,4 -20,26 -20,43 0,20 9,28 21,28 12,0 21,-8 21,-28z"/>
  <path class="fil0" d="M159 104c-1,0 -2,1 -4,1 -1,1 -3,1 -5,2 -6,2 -11,5 -17,8 -10,5 -20,10 -29,16l30 61c7,15 26,21 41,14 15,-8 21,-26 14,-41l-30 -61z"/>
  <path class="fil0" d="M50 107c-2,-1 -4,-1 -6,-2 -1,0 -2,-1 -3,-1l-30 61c-7,15 -1,34 14,41 15,7 34,1 41,-14l30 -61c-9,-6 -19,-11 -29,-16 -6,-3 -12,-6 -17,-8z"/>
  <path class="fil0" d="M122 91c0,-17 -17,-39 -20,-43 -1,0 -1,0 -2,0 -3,4 -20,26 -20,43 0,20 9,28 21,28 12,0 21,-8 21,-28z"/>
  <path class="fil0" d="M160 103c-1,0 -2,0 -3,1 -2,1 -4,1 -6,2 -6,2 -11,5 -17,8 -10,5 -20,10 -29,16l30 61c7,15 26,21 41,14 15,-8 21,-26 14,-41l-30 -61z"/>
  <path class="fil0" d="M51 106c-2,-1 -4,-1 -6,-2 -1,-1 -2,-1 -3,-1l-30 61c-7,15 -1,33 14,41 16,7 34,1 41,-14l30 -61c-9,-6 -19,-11 -29,-16 -6,-3 -12,-6 -17,-8z"/>
  <path class="fil0" d="M124 90c0,-17 -18,-39 -21,-43 0,-1 -1,-1 -1,0 -4,4 -21,26 -21,43 0,20 9,28 21,28 12,0 22,-8 22,-28z"/>
  <path class="fil0" d="M161 101c-1,1 -2,1 -3,2 -2,0 -4,1 -6,2 -5,2 -11,5 -17,7 -10,6 -20,11 -29,17l30 61c7,15 26,21 41,14 15,-8 22,-26 14,-42l-30 -61z"/>
  <path class="fil0" d="M52 105c-2,-1 -4,-2 -6,-2 -1,-1 -2,-1 -3,-2l-30 62c-7,15 -1,33 14,41 16,7 34,1 42,-15l29 -60c-9,-6 -19,-12 -29,-17 -6,-2 -11,-5 -17,-7z"/>
  <path class="fil0" d="M125 89c0,-18 -17,-39 -21,-43 0,-1 -1,-1 -1,0 -4,4 -21,25 -21,43 0,19 10,28 21,28 12,0 22,-9 22,-28z"/>
  <path class="fil0" d="M162 100c-1,1 -2,1 -3,2 -2,0 -4,1 -6,2 -5,2 -11,5 -17,7 -10,5 -20,11 -29,17l30 60c7,16 26,22 41,14 15,-7 22,-26 14,-41l-30 -61z"/>
  <path class="fil0" d="M53 104c-2,-1 -4,-2 -5,-2 -2,-1 -3,-1 -4,-2l-30 61c-7,16 -1,34 15,42 15,7 33,1 41,-15l29 -60c-9,-6 -19,-12 -29,-17 -6,-3 -11,-5 -17,-7z"/>
  <path class="fil0" d="M126 88c0,-18 -17,-39 -21,-43 0,-1 -1,-1 -1,0 -4,4 -21,25 -21,43 0,19 10,28 21,28 12,0 22,-9 22,-28z"/>
  <path class="fil0" d="M163 99c-1,1 -2,1 -3,1 -2,1 -4,2 -5,3 -6,2 -12,4 -17,7 -11,5 -20,11 -30,17l30 60c8,15 26,22 41,14 15,-7 22,-26 14,-41l-30 -61z"/>
  <path class="fil0" d="M54 103c-2,-1 -3,-2 -5,-3 -1,0 -3,0 -4,-1l-29 61c-8,15 -1,34 14,41 15,8 33,1 41,-14l29 -60c-9,-6 -19,-12 -29,-17 -5,-3 -11,-5 -17,-7z"/>
  <path class="fil0" d="M127 87c0,-18 -17,-39 -21,-44 0,0 -1,0 -1,0 -4,5 -21,26 -21,44 0,19 10,28 22,28 11,0 21,-9 21,-28z"/>
  <path class="fil0" d="M164 98c-1,0 -2,1 -3,1 -2,1 -4,2 -5,2 -6,3 -12,5 -17,8 -11,5 -20,11 -29,17l29 60c8,15 26,22 41,14 16,-7 22,-26 14,-41l-30 -61z"/>
  <path class="fil0" d="M55 101c-2,0 -3,-1 -5,-2 -1,0 -2,-1 -3,-1l-30 61c-8,15 -1,34 14,41 15,8 34,1 41,-14l30 -60c-10,-6 -19,-12 -30,-17 -5,-3 -11,-5 -17,-8z"/>
  <path class="fil0" d="M128 85c0,-17 -17,-38 -21,-43 0,0 -1,0 -1,0 -3,5 -21,26 -21,43 0,20 10,29 22,29 12,0 21,-9 21,-29z"/>
  <path class="fil0" d="M166 97c-2,0 -3,1 -4,1 -2,1 -3,2 -5,2 -6,3 -12,5 -17,8 -10,5 -20,11 -29,17l29 60c8,15 26,22 42,14 15,-7 21,-26 14,-41l-30 -61z"/>
  <path class="fil0" d="M56 100c-1,0 -3,-1 -5,-2 -1,0 -2,-1 -3,-1l-30 61c-8,15 -1,34 14,41 15,8 34,1 41,-14l30 -61c-9,-6 -19,-11 -30,-16 -5,-3 -11,-5 -17,-8z"/>
  <path class="fil0" d="M129 84c0,-17 -17,-39 -20,-43 -1,0 -1,0 -2,0 -3,4 -20,26 -20,43 0,20 9,28 21,28 12,0 21,-8 21,-28z"/>
  <path class="fil0" d="M167 96c-1,0 -2,1 -4,1 -1,1 -3,1 -5,2 -6,2 -11,5 -17,8 -10,5 -20,10 -29,16l30 61c7,15 26,21 41,14 15,-8 21,-26 14,-41l-30 -61z"/>
  <path class="fil0" d="M58 99c-2,-1 -4,-1 -6,-2 -1,0 -2,-1 -3,-1l-30 61c-7,15 -1,34 14,41 15,7 34,1 41,-14l30 -61c-9,-6 -19,-11 -29,-16 -6,-3 -12,-6 -17,-8z"/>
  <path class="fil0" d="M130 83c0,-17 -17,-39 -20,-43 -1,0 -1,0 -2,0 -3,4 -20,26 -20,43 0,20 9,28 21,28 12,0 21,-8 21,-28z"/>
  <path class="fil0" d="M168 95c-1,0 -2,0 -3,1 -2,1 -4,1 -6,2 -6,2 -11,5 -17,8 -10,5 -20,10 -29,16l30 61c7,15 26,21 41,14 15,-8 21,-26 14,-41l-30 -61z"/>
  <path class="fil0" d="M59 98c-2,-1 -4,-1 -6,-2 -1,-1 -2,-1 -3,-1l-30 61c-7,15 -1,33 14,41 16,7 34,1 41,-14l30 -61c-9,-6 -19,-11 -29,-16 -6,-3 -12,-6 -17,-8z"/>
  <path class="fil0" d="M131 82c0,-17 -17,-39 -20,-43 -1,0 -1,0 -1,0 -4,4 -21,26 -21,43 0,20 9,28 21,28 12,0 21,-8 21,-28z"/>
  <path class="fil0" d="M169 93c-1,1 -2,1 -3,2 -2,0 -4,1 -6,2 -5,2 -11,5 -17,8 -10,5 -20,10 -29,16l30 61c7,15 26,21 41,14 15,-8 21,-26 14,-42l-30 -61z"/>
  <path class="fil0" d="M60 97c-2,-1 -4,-2 -6,-2 -1,-1 -2,-1 -3,-2l-30 62c-7,15 -1,33 14,41 16,7 34,1 42,-14l29 -61c-9,-6 -19,-12 -29,-17 -6,-2 -11,-5 -17,-7z"/>
  <path class="fil0" d="M133 81c0,-17 -17,-39 -21,-43 0,-1 -1,-1 -1,0 -4,4 -21,26 -21,43 0,19 10,28 21,28 12,0 22,-9 22,-28z"/>
  <path class="fil0" d="M170 92c-1,1 -2,1 -3,2 -2,0 -4,1 -6,2 -5,2 -11,5 -17,7 -10,5 -20,11 -29,17l30 60c7,16 26,22 41,14 15,-7 22,-26 14,-41l-30 -61z"/>
  <path class="fil0" d="M61 96c-2,-1 -4,-2 -5,-2 -2,-1 -3,-1 -4,-2l-30 61c-7,16 -1,34 15,42 15,7 33,1 41,-15l29 -60c-9,-6 -19,-12 -29,-17 -6,-2 -11,-5 -17,-7z"/>
  <path class="fil0" d="M134 80c0,-18 -17,-39 -21,-43 0,-1 -1,-1 -1,0 -4,4 -21,25 -21,43 0,19 10,28 21,28 12,0 22,-9 22,-28z"/>
  <path class="fil0" d="M171 91c-1,1 -2,1 -3,1 -2,1 -4,2 -6,3 -5,2 -11,4 -17,7 -10,5 -20,11 -29,17l30 60c8,16 26,22 41,14 15,-7 22,-26 14,-41l-30 -61z"/>
  <path class="fil0" d="M62 95c-2,-1 -4,-2 -5,-3 -1,0 -3,0 -4,-1l-29 61c-8,16 -1,34 14,41 15,8 33,1 41,-14l29 -60c-9,-6 -19,-12 -29,-17 -6,-3 -11,-5 -17,-7z"/>
  <path class="fil0" d="M135 79c0,-18 -17,-39 -21,-43 0,-1 -1,-1 -1,0 -4,4 -21,25 -21,43 0,19 10,28 22,28 11,0 21,-9 21,-28z"/>
  <path class="fil0" d="M172 90c-1,0 -2,1 -3,1 -2,1 -4,2 -5,2 -6,3 -12,5 -17,8 -11,5 -20,11 -30,17l30 60c8,15 26,22 41,14 16,-7 22,-26 14,-41l-30 -61z"/>
  <path class="fil0" d="M63 93c-2,0 -3,-1 -5,-2 -1,0 -2,-1 -4,-1l-29 61c-8,15 -1,34 14,41 15,8 34,1 41,-14l29 -60c-9,-6 -18,-12 -29,-17 -5,-3 -11,-5 -17,-8z"/>
  <path class="fil0" d="M136 78c0,-18 -17,-39 -21,-44 0,0 -1,0 -1,0 -4,5 -21,26 -21,44 0,19 10,28 22,28 11,0 21,-9 21,-28z"/>
  <path class="fil0" d="M174 89c-2,0 -3,1 -4,1 -2,1 -3,2 -5,2 -6,3 -12,5 -17,8 -11,5 -20,11 -29,17l29 60c8,15 26,22 42,14 15,-7 21,-26 14,-41l-30 -61z"/>
  <path class="fil0" d="M64 92c-1,0 -3,-1 -5,-2 -1,0 -2,-1 -3,-1l-30 61c-8,15 -1,34 14,41 15,8 34,1 41,-14l30 -61c-10,-6 -19,-11 -30,-16 -5,-3 -11,-5 -17,-8z"/>
  <path class="fil0" d="M137 76c0,-17 -17,-38 -21,-43 0,0 0,0 -1,0 -3,5 -21,26 -21,43 0,20 10,28 22,28 12,0 21,-8 21,-28z"/>
  <path class="fil0" d="M175 88c-1,0 -3,1 -4,1 -1,1 -3,1 -5,2 -6,3 -11,5 -17,8 -10,5 -20,10 -29,17l29 60c8,15 26,21 42,14 15,-8 21,-26 14,-41l-30 -61z"/>
  <path class="fil0" d="M66 91c-2,-1 -4,-1 -6,-2 -1,0 -2,-1 -3,-1l-30 61c-7,15 -1,34 14,41 15,7 34,1 41,-14l30 -61c-9,-6 -19,-11 -29,-16 -6,-3 -12,-6 -17,-8z"/>
  <path class="fil0" d="M138 75c0,-17 -17,-39 -20,-43 -1,0 -1,0 -2,0 -3,4 -20,26 -20,43 0,20 9,28 21,28 12,0 21,-8 21,-28z"/>
  <path class="fil0" d="M176 87c-1,0 -2,0 -4,1 -1,1 -3,1 -5,2 -6,2 -11,5 -17,8 -10,5 -20,10 -29,16l30 61c7,15 26,21 41,14 15,-8 21,-26 14,-41l-30 -61z"/>
  <path class="fil0" d="M67 90c-2,-1 -4,-1 -6,-2 -1,-1 -2,-1 -3,-1l-30 61c-7,15 -1,33 14,41 15,7 34,1 41,-14l30 -61c-9,-6 -19,-11 -29,-16 -6,-3 -12,-6 -17,-8z"/>
  <path class="fil0" d="M139 74c0,-17 -17,-39 -20,-43 -1,0 -1,0 -2,0 -3,4 -20,26 -20,43 0,20 9,28 21,28 12,0 21,-8 21,-28z"/>
  <path class="fil0" d="M177 85c-1,1 -2,1 -3,2 -2,0 -4,1 -6,2 -6,2 -11,5 -17,8 -10,5 -20,10 -29,16l30 61c7,15 26,21 41,14 15,-8 21,-26 14,-42l-30 -61z"/>
  <path class="fil0" d="M68 89c-2,-1 -4,-2 -6,-2 -1,-1 -2,-1 -3,-1l-30 61c-7,15 -1,33 14,41 16,7 34,1 42,-14l29 -61c-9,-6 -19,-11 -29,-17 -6,-2 -12,-5 -17,-7z"/>
  <path class="fil0" d="M141 73c0,-17 -18,-39 -21,-43 0,-1 -1,-1 -1,0 -4,4 -21,26 -21,43 0,19 9,28 21,28 12,0 22,-9 22,-28z"/>
  <path class="fil0" d="M178 84c-1,1 -2,1 -3,2 -2,0 -4,1 -6,2 -5,2 -11,5 -17,7 -10,5 -20,11 -29,17l30 61c7,15 26,21 41,14 15,-8 22,-26 14,-42l-30 -61z"/>
  <path class="fil0" d="M69 88c-2,-1 -4,-2 -6,-2 -1,-1 -2,-1 -3,-2l-30 61c-7,16 -1,34 15,42 15,7 33,1 41,-15l29 -60c-9,-6 -19,-12 -29,-17 -6,-2 -11,-5 -17,-7z"/>
  <path class="fil0" d="M142 72c0,-18 -17,-39 -21,-43 0,-1 -1,-1 -1,0 -4,4 -21,25 -21,43 0,19 10,28 21,28 12,0 22,-9 22,-28z"/>
  <path class="fil0" d="M179 83c-1,1 -2,1 -3,1 -2,1 -4,2 -6,3 -5,2 -11,4 -17,7 -10,5 -20,11 -29,17l30 60c7,16 26,22 41,14 15,-7 22,-26 14,-41l-30 -61z"/>
  <path class="fil0" d="M70 87c-2,-1 -4,-2 -5,-2 -2,-1 -3,-1 -4,-2l-29 61c-8,16 -2,34 14,41 15,8 33,2 41,-14l29 -60c-9,-6 -19,-12 -29,-17 -6,-3 -11,-5 -17,-7z"/>
  <path class="fil0" d="M143 71c0,-18 -17,-39 -21,-43 0,-1 -1,-1 -1,0 -4,4 -21,25 -21,43 0,19 10,28 22,28 11,0 21,-9 21,-28z"/>
  <path class="fil0" d="M180 82c-1,0 -2,1 -3,1 -2,1 -4,2 -5,3 -6,2 -12,4 -17,7 -11,5 -20,11 -30,17l30 60c8,15 26,22 41,14 16,-7 22,-26 14,-41l-30 -61z"/>
  <path class="fil0" d="M71 86c-2,-1 -3,-2 -5,-3 -1,0 -2,0 -4,-1l-29 61c-8,15 -1,34 14,41 15,8 34,1 41,-14l29 -60c-9,-6 -18,-12 -29,-17 -5,-3 -11,-5 -17,-7z"/>
  <path class="fil0" d="M144 70c0,-18 -17,-39 -21,-44 0,0 -1,0 -1,0 -4,5 -21,26 -21,44 0,19 10,28 22,28 11,0 21,-9 21,-28z"/>
  <path class="fil0" d="M181 81c-1,0 -2,1 -3,1 -2,1 -3,2 -5,2 -6,3 -12,5 -17,8 -11,5 -20,11 -29,17l29 60c8,15 26,22 41,14 16,-7 22,-26 14,-41l-30 -61z"/>
  <path class="fil0" d="M72 84c-1,0 -3,-1 -5,-2 -1,0 -2,-1 -3,-1l-30 61c-8,15 -1,34 14,41 15,8 34,1 41,-14l30 -60c-10,-6 -19,-12 -30,-17 -5,-3 -11,-5 -17,-8z"/>
  <path class="fil0" d="M145 68c0,-17 -17,-38 -21,-43 0,0 -1,0 -1,0 -3,5 -21,26 -21,43 0,20 10,28 22,28 12,0 21,-8 21,-28z"/>
  <path class="fil0" d="M183 80c-1,0 -3,1 -4,1 -2,1 -3,1 -5,2 -6,3 -12,5 -17,8 -10,5 -20,11 -29,17l29 60c8,15 26,21 42,14 15,-7 21,-26 14,-41l-30 -61z"/>
  <path class="fil0" d="M73 83c-1,0 -3,-1 -5,-2 -1,0 -2,-1 -3,-1l-30 61c-8,15 -1,34 14,41 15,7 34,1 41,-14l30 -61c-9,-6 -19,-11 -29,-16 -6,-3 -12,-5 -18,-8z"/>
  <path class="fil0" d="M146 67c0,-17 -17,-39 -20,-43 -1,0 -1,0 -2,0 -3,4 -20,26 -20,43 0,20 9,28 21,28 12,0 21,-8 21,-28z"/>
  <path class="fil0" d="M184 79c-1,0 -2,1 -4,1 -1,1 -3,1 -5,2 -6,2 -11,5 -17,8 -10,5 -20,10 -29,16l30 61c7,15 26,21 41,14 15,-8 21,-26 14,-41l-30 -61z"/>
  <path class="fil0" d="M75 82c-2,-1 -4,-1 -6,-2 -1,0 -2,-1 -3,-1l-30 61c-7,15 -1,34 14,41 15,7 34,1 41,-14l30 -61c-9,-6 -19,-11 -29,-16 -6,-3 -12,-6 -17,-8z"/>
  <path class="fil0" d="M147 66c0,-17 -17,-39 -20,-43 -1,0 -1,0 -2,0 -3,4 -20,26 -20,43 0,20 9,28 21,28 12,0 21,-8 21,-28z"/>
  <path class="fil0" d="M185 78c-1,0 -2,0 -3,1 -2,1 -4,1 -6,2 -6,2 -11,5 -17,8 -10,5 -20,10 -29,16l30 61c7,15 26,21 41,14 15,-8 21,-26 14,-41l-30 -61z"/>
  <path class="fil0" d="M76 81c-2,-1 -4,-1 -6,-2 -1,-1 -2,-1 -3,-1l-30 61c-7,15 -1,33 14,41 16,7 34,1 41,-14l30 -61c-9,-6 -19,-11 -29,-16 -6,-3 -12,-6 -17,-8z"/>
  <path class="fil0" d="M149 65c0,-17 -18,-39 -21,-43 0,-1 -1,-1 -1,0 -4,4 -21,26 -21,43 0,20 9,28 21,28 12,0 22,-8 22,-28z"/>
  <path class="fil0" d="M186 76c-1,1 -2,1 -3,2 -2,0 -4,1 -6,2 -5,2 -11,5 -17,7 -10,6 -20,11 -29,17l30 61c7,15 26,21 41,14 15,-8 22,-26 14,-42l-30 -61z"/>
  <path class="fil0" d="M77 80c-2,-1 -4,-2 -6,-2 -1,-1 -2,-1 -3,-2l-30 62c-7,15 -1,33 14,41 16,7 34,1 42,-15l29 -60c-9,-6 -19,-12 -29,-17 -6,-2 -11,-5 -17,-7z"/>
  <path class="fil0" d="M150 64c0,-18 -17,-39 -21,-43 0,-1 -1,-1 -1,0 -4,4 -21,25 -21,43 0,19 10,28 21,28 12,0 22,-9 22,-28z"/>
  <path class="fil0" d="M187 75c-1,1 -2,1 -3,2 -2,0 -4,1 -6,2 -5,2 -11,5 -17,7 -10,5 -20,11 -29,17l30 60c7,16 26,22 41,14 15,-7 22,-26 14,-41l-30 -61z"/>
  <path class="fil0" d="M78 79c-2,-1 -4,-2 -5,-2 -2,-1 -3,-1 -4,-2l-30 61c-7,16 -1,34 15,42 15,7 33,1 41,-15l29 -60c-9,-6 -19,-12 -29,-17 -6,-3 -11,-5 -17,-7z"/>
  <path class="fil0" d="M151 63c0,-18 -17,-39 -21,-43 0,-1 -1,-1 -1,0 -4,4 -21,25 -21,43 0,19 10,28 21,28 12,0 22,-9 22,-28z"/>
  <path class="fil0" d="M188 74c-1,1 -2,1 -3,1 -2,1 -4,2 -5,3 -6,2 -12,4 -17,7 -11,5 -20,11 -30,17l30 60c8,15 26,22 41,14 15,-7 22,-26 14,-41l-30 -61z"/>
  <path class="fil0" d="M79 78c-2,-1 -3,-2 -5,-3 -1,0 -3,0 -4,-1l-29 61c-8,15 -1,34 14,41 15,8 33,1 41,-14l29 -60c-9,-6 -19,-12 -29,-17 -5,-3 -11,-5 -17,-7z"/>
  <path class="fil0" d="M152 62c0,-18 -17,-39 -21,-44 0,0 -1,0 -1,0 -4,5 -21,26 -21,44 0,19 10,28 22,28 11,0 21,-9 21,-28z"/>
  <path class="fil0" d="M189 73c-1,0 -2,1 -3,1 -2,1 -4,2 -5,2 -6,3 -12,5 -17,8 -11,5 -20,11 -29,17l29 60c8,15 26,22 41,14 16,-7 22,-26 14,-41l-30 -61z"/>
  <path class="fil0" d="M80 76c-2,0 -3,-1 -5,-2 -1,0 -2,-1 -3,-1l-30 61c-8,15 -1,34 14,41 15,8 34,1 41,-14l30 -60c-10,-6 -19,-12 -30,-17 -5,-3 -11,-5 -17,-8z"/>
  <path class="fil0" d="M153 60c0,-17 -17,-38 -21,-43 0,0 -1,0 -1,0 -3,5 -21,26 -21,43 0,20 10,29 22,29 12,0 21,-9 21,-29z"/>
  <path class="fil0" d="M191 72c-2,0 -3,1 -4,1 -2,1 -3,2 -5,2 -6,3 -12,5 -17,8 -10,5 -20,11 -29,17l29 60c8,15 26,22 42,14 15,-7 21,-26 14,-41l-30 -61z"/>
  <path class="fil0" d="M81 75c-1,0 -3,-1 -5,-2 -1,0 -2,-1 -3,-1l-30 61c-8,15 -1,34 14,41 15,8 34,1 41,-14l30 -61c-9,-6 -19,-11 -30,-16 -5,-3 -11,-5 -17,-8z"/>
  <path class="fil0" d="M154 59c0,-17 -17,-39 -20,-43 -1,0 -1,0 -2,0 -3,4 -20,26 -20,43 0,20 9,28 21,28 12,0 21,-8 21,-28z"/>
  <path class="fil0" d="M192 71c-1,0 -2,1 -4,1 -1,1 -3,1 -5,2 -6,2 -11,5 -17,8 -10,5 -20,10 -29,16l30 61c7,15 26,21 41,14 15,-8 21,-26 14,-41l-30 -61z"/>
  <path class="fil0" d="M83 74c-2,-1 -4,-1 -6,-2 -1,0 -2,-1 -3,-1l-30 61c-7,15 -1,34 14,41 15,7 34,1 41,-14l30 -61c-9,-6 -19,-11 -29,-16 -6,-3 -12,-6 -17,-8z"/>
  <path class="fil0" d="M155 58c0,-17 -17,-39 -20,-43 -1,0 -1,0 -2,0 -3,4 -20,26 -20,43 0,20 9,28 21,28 12,0 21,-8 21,-28z"/>
  <path class="fil0" d="M193 70c-1,0 -2,0 -3,1 -2,1 -4,1 -6,2 -6,2 -11,5 -17,8 -10,5 -20,10 -29,16l30 61c7,15 26,21 41,14 15,-8 21,-26 14,-41l-30 -61z"/>
  <path class="fil0" d="M84 73c-2,-1 -4,-1 -6,-2 -1,-1 -2,-1 -3,-1l-30 61c-7,15 -1,33 14,41 16,7 34,1 41,-14l30 -61c-9,-6 -19,-11 -29,-16 -6,-3 -12,-6 -17,-8z"/>
  <path class="fil0" d="M156 57c0,-17 -17,-39 -20,-43 -1,0 -1,0 -1,0 -4,4 -21,26 -21,43 0,20 9,28 21,28 12,0 21,-8 21,-28z"/>
  <path class="fil0" d="M194 68c-1,1 -2,1 -3,2 -2,0 -4,1 -6,2 -5,2 -11,5 -17,8 -10,5 -20,10 -29,16l30 61c7,15 26,21 41,14 15,-8 21,-26 14,-42l-30 -61z"/>
  <path class="fil0" d="M85 72c-2,-1 -4,-2 -6,-2 -1,-1 -2,-1 -3,-2l-30 62c-7,15 -1,33 14,41 16,7 34,1 42,-14l29 -61c-9,-6 -19,-12 -29,-17 -6,-2 -11,-5 -17,-7z"/>
  <path class="fil0" d="M158 56c0,-17 -17,-39 -21,-43 0,-1 -1,-1 -1,0 -4,4 -21,26 -21,43 0,19 10,28 21,28 12,0 22,-9 22,-28z"/>
  <path class="fil0" d="M195 67c-1,1 -2,1 -3,2 -2,0 -4,1 -6,2 -5,2 -11,5 -17,7 -10,5 -20,11 -29,17l30 60c7,16 26,22 41,14 15,-7 22,-26 14,-41l-30 -61z"/>
  <path class="fil0" d="M86 71c-2,-1 -4,-2 -5,-2 -2,-1 -3,-1 -4,-2l-30 61c-7,16 -1,34 15,42 15,7 33,1 41,-15l29 -60c-9,-6 -19,-12 -29,-17 -6,-2 -11,-5 -17,-7z"/>
  <path class="fil0" d="M159 55c0,-18 -17,-39 -21,-43 0,-1 -1,-1 -1,0 -4,4 -21,25 -21,43 0,19 10,28 21,28 12,0 22,-9 22,-28z"/>
  <path class="fil0" d="M196 66c-1,1 -2,1 -3,1 -2,1 -4,2 -6,3 -5,2 -11,4 -17,7 -10,5 -20,11 -29,17l30 60c8,16 26,22 41,14 15,-7 22,-26 14,-41l-30 -61z"/>
  <path class="fil0" d="M87 70c-2,-1 -4,-2 -5,-3 -1,0 -3,0 -4,-1l-29 61c-8,16 -1,34 14,41 15,8 33,1 41,-14l29 -60c-9,-6 -19,-12 -29,-17 -6,-3 -11,-5 -17,-7z"/>
  <path class="fil0" d="M160 54c0,-18 -17,-39 -21,-43 0,-1 -1,-1 -1,0 -4,4 -21,25 -21,43 0,19 10,28 22,28 11,0 21,-9 21,-28z"/>
  <path class="fil0" d="M197 65c-1,0 -2,1 -3,1 -2,1 -4,2 -5,2 -6,3 -12,5 -17,8 -11,5 -20,11 -30,17l30 60c8,15 26,22 41,14 16,-7 22,-26 14,-41l-30 -61z"/>
  <path class="fil0" d="M88 68c-2,0 -3,-1 -5,-2 -1,0 -2,-1 -4,-1l-29 61c-8,15 -1,34 14,41 15,8 34,1 41,-14l29 -60c-9,-6 -18,-12 -29,-17 -5,-3 -11,-5 -17,-8z"/>
  <path class="fil0" d="M161 53c0,-18 -17,-39 -21,-44 0,0 -1,0 -1,0 -4,5 -21,26 -21,44 0,19 10,28 22,28 11,0 21,-9 21,-28z"/>
  <path class="fil0" d="M199 64c-2,0 -3,1 -4,1 -2,1 -3,2 -5,2 -6,3 -12,5 -17,8 -11,5 -20,11 -29,17l29 60c8,15 26,22 42,14 15,-7 21,-26 14,-41l-30 -61z"/>
  <path class="fil0" d="M89 67c-1,0 -3,-1 -5,-2 -1,0 -2,-1 -3,-1l-30 61c-8,15 -1,34 14,41 15,8 34,1 41,-14l30 -61c-10,-6 -19,-11 -30,-16 -5,-3 -11,-5 -17,-8z"/>
  <path class="fil0" d="M162 51c0,-17 -17,-38 -21,-43 0,0 0,0 -1,0 -3,5 -21,26 -21,43 0,20 10,28 22,28 12,0 21,-8 21,-28z"/>
  <path class="fil0" d="M200 63c-1,0 -3,1 -4,1 -1,1 -3,1 -5,2 -6,3 -11,5 -17,8 -10,5 -20,10 -29,17l29 60c8,15 26,21 42,14 15,-8 21,-26 14,-41l-30 -61z"/>
  <path class="fil0" d="M91 66c-2,-1 -4,-1 -6,-2 -1,0 -2,-1 -3,-1l-30 61c-7,15 -1,34 14,41 15,7 34,1 41,-14l30 -61c-9,-6 -19,-11 -29,-16 -6,-3 -12,-6 -17,-8z"/>
  <path class="fil0" d="M163 50c0,-17 -17,-39 -20,-43 -1,0 -1,0 -2,0 -3,4 -20,26 -20,43 0,20 9,28 21,28 12,0 21,-8 21,-28z"/>
  <path class="fil0" d="M201 62c-1,0 -2,0 -4,1 -1,1 -3,1 -5,2 -6,2 -11,5 -17,8 -10,5 -20,10 -29,16l30 61c7,15 26,21 41,14 15,-8 21,-26 14,-41l-30 -61z"/>
  <path class="fil0" d="M92 65c-2,-1 -4,-1 -6,-2 -1,-1 -2,-1 -3,-1l-30 61c-7,15 -1,33 14,41 15,7 34,1 41,-14l30 -61c-9,-6 -19,-11 -29,-16 -6,-3 -12,-6 -17,-8z"/>
  <path class="fil0" d="M164 49c0,-17 -17,-39 -20,-43 -1,0 -1,0 -2,0 -3,4 -20,26 -20,43 0,20 9,28 21,28 12,0 21,-8 21,-28z"/>
  <path class="fil0" d="M202 60c-1,1 -2,1 -3,2 -2,0 -4,1 -6,2 -6,2 -11,5 -17,8 -10,5 -20,10 -29,16l30 61c7,15 26,21 41,14 15,-8 21,-26 14,-42l-30 -61z"/>
  <path class="fil0" d="M93 64c-2,-1 -4,-2 -6,-2 -1,-1 -2,-1 -3,-1l-30 61c-7,15 -1,33 14,41 16,7 34,1 42,-14l29 -61c-9,-6 -19,-11 -29,-17 -6,-2 -12,-5 -17,-7z"/>
  <path class="fil0" d="M166 48c0,-17 -18,-39 -21,-43 0,-1 -1,-1 -1,0 -4,4 -21,26 -21,43 0,19 9,28 21,28 12,0 22,-9 22,-28z"/>
  <path class="fil0" d="M203 59c-1,1 -2,1 -3,2 -2,0 -4,1 -6,2 -5,2 -11,5 -17,7 -10,5 -20,11 -29,17l30 61c7,15 26,21 41,14 15,-8 22,-26 14,-42l-30 -61z"/>
  <path class="fil0" d="M94 63c-2,-1 -4,-2 -6,-2 -1,-1 -2,-1 -3,-2l-30 61c-7,16 -1,34 15,42 15,7 33,1 41,-15l29 -60c-9,-6 -19,-12 -29,-17 -6,-2 -11,-5 -17,-7z"/>
  <path class="fil0" d="M167 47c0,-18 -17,-39 -21,-43 0,-1 -1,-1 -1,0 -4,4 -21,25 -21,43 0,19 10,28 21,28 12,0 22,-9 22,-28z"/>
  <path class="fil0" d="M204 58c-1,1 -2,1 -3,1 -2,1 -4,2 -6,3 -5,2 -11,4 -17,7 -10,5 -20,11 -29,17l30 60c7,16 26,22 41,14 15,-7 22,-26 14,-41l-30 -61z"/>
  <path class="fil0" d="M95 62c-2,-1 -4,-2 -5,-2 -2,-1 -3,-1 -4,-2l-29 61c-8,16 -2,34 14,41 15,8 33,2 41,-14l29 -60c-9,-6 -19,-12 -29,-17 -6,-3 -11,-5 -17,-7z"/>
  <path class="fil0" d="M168 46c0,-18 -17,-39 -21,-43 0,-1 -1,-1 -1,0 -4,4 -21,25 -21,43 0,19 10,28 22,28 11,0 21,-9 21,-28z"/>
  <path class="fil0" d="M205 57c-1,0 -2,1 -3,1 -2,1 -4,2 -5,3 -6,2 -12,4 -17,7 -11,5 -20,11 -30,17l30 60c8,15 26,22 41,14 16,-7 22,-26 14,-41l-30 -61z"/>
  <path class="fil0" d="M96 61c-2,-1 -3,-2 -5,-3 -1,0 -2,0 -4,-1l-29 61c-8,15 -1,34 14,41 15,8 34,1 41,-14l29 -60c-9,-6 -18,-12 -29,-17 -5,-3 -11,-5 -17,-7z"/>
  <path class="fil0" d="M169 45c0,-18 -17,-39 -21,-44 0,0 -1,0 -1,0 -4,5 -21,26 -21,44 0,19 10,28 22,28 11,0 21,-9 21,-28z"/>
  <path class="fil0" d="M206 56c-1,0 -2,1 -3,1 -2,1 -3,2 -5,2 -6,3 -12,5 -17,8 -11,5 -20,11 -29,17l29 60c8,15 26,22 41,14 16,-7 22,-26 14,-41l-30 -61z"/>
  <path class="fil0" d="M97 59c-1,0 -3,-1 -5,-2 -1,0 -2,-1 -3,-1l-30 61c-8,15 -1,34 14,41 15,8 34,1 41,-14l30 -60c-10,-6 -19,-12 -30,-17 -5,-3 -11,-5 -17,-8z"/>
  <path class="fil0" d="M170 43c0,-17 -17,-38 -21,-43 0,0 -1,0 -1,0 -3,5 -21,26 -21,43 0,20 10,28 22,28 12,0 21,-8 21,-28z"/>
  <path class="fil0" d="M208 55c-1,0 -3,1 -4,1 -2,1 -3,1 -5,2 -6,3 -12,5 -17,8 -10,5 -20,11 -29,17l29 60c8,15 26,21 42,14 15,-7 21,-26 14,-41l-30 -61z"/>
  <path class="fil0" d="M98 58c-1,0 -3,-1 -5,-2 -1,0 -2,-1 -3,-1l-30 61c-8,15 -1,34 14,41 15,7 34,1 41,-14l30 -61c-9,-6 -19,-11 -29,-16 -6,-3 -12,-5 -18,-8z"/>
  <path class="fil1" d="M149 0c0,0 -1,0 -1,0 -3,5 -21,26 -21,43 0,20 10,28 22,28 12,0 21,-8 21,-28 0,-17 -17,-38 -21,-43z"/>
  <path class="fil2" d="M224 157c15,-7 21,-26 14,-41l-30 -61c-1,0 -3,1 -4,1l0 0 30 60c7,14 1,32 -14,40 -3,1 -7,2 -10,3 1,-1 3,-1 4,-2 15,-7 21,-25 14,-40l-29 -59c-6,3 -12,5 -17,8 -10,5 -20,11 -29,17l29 60c8,15 26,21 42,14z"/>
  <path class="fil3" d="M214 157c-1,1 -3,1 -4,2 3,-1 7,-2 10,-3 15,-8 21,-26 14,-40l-30 -60 0 0c-2,1 -3,1 -5,2l29 59c7,15 1,33 -14,40z"/>
  <path class="fil4" d="M74 157c-15,-7 -22,-26 -14,-41l30 -61c1,0 2,1 3,1l0 0 -29 60c-7,15 -1,33 14,40 3,1 6,2 10,3 -2,-1 -3,-1 -4,-2 -15,-7 -21,-25 -14,-40l28 -59c6,3 12,5 18,8 10,5 20,10 29,16l-30 61c-7,15 -26,21 -41,14z"/>
  <path class="fil3" d="M84 157c1,1 2,1 4,2 -4,-1 -7,-2 -10,-3 -15,-7 -21,-25 -14,-40l29 -60 0 0c2,1 4,2 5,2l-28 59c-7,15 -1,33 14,40z"/>
 </g>
</svg>
