<?xml version="1.0" encoding="UTF-8"?>
<!DOCTYPE svg PUBLIC "-//W3C//DTD SVG 1.1//EN" "http://www.w3.org/Graphics/SVG/1.1/DTD/svg11.dtd">
<!-- Creator: CorelDRAW X8 -->
<svg xmlns="http://www.w3.org/2000/svg" xml:space="preserve" width="0.620421in" height="0.930299in" version="1.1" style="shape-rendering:geometricPrecision; text-rendering:geometricPrecision; image-rendering:optimizeQuality; fill-rule:evenodd; clip-rule:evenodd"
viewBox="0 0 44 66"
 xmlns:xlink="http://www.w3.org/1999/xlink">
 <defs>
  <style type="text/css">
   <![CDATA[
    .fil1 {fill:#74CBF2;fill-rule:nonzero}
    .fil0 {fill:#727371;fill-rule:nonzero}
   ]]>
  </style>
 </defs>
 <g id="Layer_x0020_1">
  <metadata id="CorelCorpID_0Corel-Layer"/>
  <path class="fil0" d="M43 63l-19 0c-1,0 -2,-1 -2,-2l0 -5c0,-2 2,-4 3,-5 1,0 1,-1 1,-1l-2 -5c0,-1 0,-1 1,-1l14 -6c0,0 1,0 1,-1 0,0 0,-1 0,-1 0,-1 -2,-1 -2,-1l-22 8c-1,1 -1,1 -1,2l0 1c0,0 0,0 0,1 0,0 -1,0 -1,0 -2,0 -6,-2 -7,-8 -2,-9 6,-13 11,-15 0,0 0,0 1,0 1,1 1,1 1,1l-1 1c0,0 0,0 0,0 0,1 0,1 1,1 0,0 0,0 0,0l0 -1c1,1 2,2 3,2l0 1c0,0 0,1 0,1 0,0 0,0 0,0 1,0 1,0 1,-1l0 0c0,0 1,0 1,0 1,0 1,0 2,-1l0 1c0,0 0,0 1,0 0,0 0,0 0,0 0,0 0,0 0,0l0 -1c1,-1 1,-2 1,-2l1 0c0,0 0,0 0,0 1,0 1,0 1,0 0,0 0,-1 0,-1l-1 0c0,-1 0,-1 0,-1 0,-1 0,-2 0,-2l0 -1c0,0 1,0 0,0 0,-1 0,-1 0,-1l-1 1c0,-1 -1,-1 -1,-2 0,0 -1,0 -1,0l-6 -14c-1,-1 -2,-2 -3,-1 0,0 -1,0 -1,-1l-1 -2c0,-1 -1,-1 -2,-1 -1,1 -1,1 -1,2l1 3c0,0 0,0 0,0 0,0 0,1 0,1 -1,0 -1,0 -1,1 -1,0 -1,1 0,2l2 4c0,1 -1,1 -1,2 -5,2 -16,9 -14,24 2,8 6,11 9,13 2,0 3,2 3,4l0 4c0,2 -1,3 -2,3l-5 0c-1,0 -1,0 -1,1l0 2 40 0 0 -2c0,-1 0,-1 -1,-1l0 0z"/>
  <path class="fil1" d="M17 51l0 0c1,0 1,0 1,0 0,1 0,1 -1,1 0,0 -1,0 -1,-1 0,0 1,0 1,0l0 0z"/>
  <path class="fil1" d="M16 17l0 0c1,0 1,1 1,1 0,1 0,1 -1,1 0,0 -1,0 -1,-1 0,0 1,-1 1,-1l0 0z"/>
 </g>
</svg>
