<?xml version="1.0" encoding="UTF-8"?>
<!DOCTYPE svg PUBLIC "-//W3C//DTD SVG 1.1//EN" "http://www.w3.org/Graphics/SVG/1.1/DTD/svg11.dtd">
<!-- Creator: CorelDRAW X8 -->
<svg xmlns="http://www.w3.org/2000/svg" xml:space="preserve" width="2.13757in" height="1.98217in" version="1.1" style="shape-rendering:geometricPrecision; text-rendering:geometricPrecision; image-rendering:optimizeQuality; fill-rule:evenodd; clip-rule:evenodd"
viewBox="0 0 348 322"
 xmlns:xlink="http://www.w3.org/1999/xlink">
 <defs>
  <style type="text/css">
   <![CDATA[
    .fil0 {fill:#00BABA;fill-rule:nonzero}
   ]]>
  </style>
 </defs>
 <g id="Layer_x0020_1">
  <metadata id="CorelCorpID_0Corel-Layer"/>
  <path class="fil0" d="M309 310c-15,0 -28,-12 -28,-28 0,-10 6,-19 15,-24 4,-2 8,-3 13,-3 4,0 8,1 12,3 9,4 15,14 15,24 0,16 -12,28 -27,28zm-73 -169c-21,-27 -54,-46 -91,-46 -7,0 -13,1 -18,2l-2 -5 119 0c13,0 27,5 37,15 9,10 14,22 15,34l-60 0zm8 81c0,1 0,2 0,2 0,1 0,1 0,1 -1,1 -1,2 -1,2 0,1 0,1 0,2 0,0 0,1 0,2l-1 0c0,1 0,2 0,3 0,1 0,1 -1,1 0,1 0,1 0,1 0,1 0,1 0,2 -1,1 -1,2 -2,4 0,1 0,2 -1,3 0,1 0,2 -1,3l0 0c0,1 -1,2 -1,3 0,0 0,0 -1,1 0,0 0,1 0,1l0 0c-1,1 -1,1 -1,2 -1,0 -1,1 -1,2 0,0 -1,1 -1,2 -1,0 -1,1 -2,2 0,1 -1,2 -2,3 0,1 -1,2 -2,3 0,1 0,1 -1,1l0 1c0,0 -1,1 -1,2l0 0c-1,1 -2,2 -3,4 -1,0 -2,1 -2,2 -2,1 -3,3 -5,4 0,1 -1,1 -2,2 0,1 -1,1 -2,2 -1,1 -2,1 -2,2 -1,0 -2,1 -3,2 -2,2 -5,3 -7,5l-32 -65c3,-3 5,-7 6,-12l20 -1 53 0c0,2 -1,4 -1,6zm-99 87c-17,0 -33,-4 -47,-11l41 -61c2,1 4,1 6,1 2,0 4,0 6,-1l41 60c-14,8 -30,12 -47,12zm-101 -97l73 5c1,5 4,9 7,12l-32 65c-28,-17 -46,-47 -48,-82zm46 -87l33 65c-3,3 -5,7 -6,11l-73 5c2,-34 20,-64 46,-81zm75 63l23 -47 9 -18c8,5 15,11 22,18 15,17 25,40 26,65l-73 -5c-1,-5 -4,-9 -7,-13zm-55 -73c1,0 2,-1 3,-1 1,-1 2,-1 3,-1 1,-1 2,-1 3,-1 2,-1 5,-1 7,-2 1,0 2,0 2,0 1,0 2,0 3,0 2,-1 5,-1 7,-1 1,0 2,0 2,0 2,0 3,0 5,0 16,0 32,4 46,11l-15 21 -21 32 0 0 -5 8c-2,-1 -4,-1 -5,-1 -3,0 -6,0 -9,1l-6 -10 -5 -7 0 0 -18 -48c1,0 2,-1 3,-1zm211 130l0 -104c0,-19 -7,-38 -22,-52 -14,-15 -33,-22 -52,-22l-132 0 -20 -54c-1,-4 -4,-7 -7,-9 -4,-3 -8,-4 -12,-4l-67 0c-3,0 -5,1 -6,3 -2,1 -3,3 -3,6l0 7c0,3 1,5 3,7 1,1 4,2 6,2l53 0c3,0 6,1 9,3 3,2 5,4 6,7l25 69c-41,16 -71,57 -71,105 0,63 51,113 114,113 60,0 109,-47 113,-106l38 0 0 30c-15,5 -26,19 -26,36 0,22 17,39 39,39 21,0 39,-17 39,-39 0,-17 -11,-31 -27,-37z"/>
  <path class="fil0" d="M321 280c0,0 0,-1 0,-1 0,0 0,-1 0,-1 0,0 -1,-1 -1,-2l0 0c0,0 0,-1 -1,-1 0,0 0,0 0,-1 -1,0 -1,0 -1,-1l0 0c-1,0 -1,0 -1,0 -1,-1 -1,-1 -2,-2 0,0 -1,0 -1,0 0,0 -1,-1 -1,-1l-1 0c0,0 0,0 -1,0 0,0 0,0 -1,0 0,0 -1,0 -1,0 -1,0 -1,0 -1,0 -1,0 -1,0 -2,0 0,0 -1,0 -1,0l0 0c0,0 -1,0 -1,1 -1,0 -2,0 -2,1 -1,0 -1,0 -1,1 -1,0 -1,0 -1,0 0,1 -1,1 -1,1l0 1c0,0 -1,0 -1,0 0,0 0,1 0,1l0 0 0 1c-1,0 -1,1 -1,1 0,1 0,1 0,1 -1,1 -1,1 -1,1l0 0 0 0c0,1 0,2 0,2 0,7 6,13 13,13 7,0 13,-6 13,-13 0,0 0,-1 0,-1 0,0 -1,-1 -1,-1z"/>
 </g>
</svg>
