<?xml version="1.0" encoding="UTF-8"?>
<!DOCTYPE svg PUBLIC "-//W3C//DTD SVG 1.1//EN" "http://www.w3.org/Graphics/SVG/1.1/DTD/svg11.dtd">
<!-- Creator: CorelDRAW X8 -->
<svg xmlns="http://www.w3.org/2000/svg" xml:space="preserve" width="0.737098in" height="0.547469in" version="1.1" style="shape-rendering:geometricPrecision; text-rendering:geometricPrecision; image-rendering:optimizeQuality; fill-rule:evenodd; clip-rule:evenodd"
viewBox="0 0 63 47"
 xmlns:xlink="http://www.w3.org/1999/xlink">
 <defs>
  <style type="text/css">
   <![CDATA[
    .fil0 {fill:#777876}
   ]]>
  </style>
 </defs>
 <g id="Layer_x0020_1">
  <metadata id="CorelCorpID_0Corel-Layer"/>
  <path class="fil0" d="M9 10c-7,10 -9,26 -9,32 0,1 1,3 2,4 1,1 2,1 4,1l14 -2c8,-1 6,-15 6,-21 2,-1 3,-3 5,-6 3,3 5,5 6,6 1,6 -1,20 7,21l13 2c2,0 3,0 4,-1 2,-1 2,-3 2,-4 0,-6 -1,-22 -9,-32 -16,-21 -17,-5 -17,12 -2,-3 -3,-5 -3,-5l0 -12 -4 0 0 12c0,0 -2,2 -4,4 1,-16 -1,-32 -17,-11l0 0z"/>
 </g>
</svg>
