<?xml version="1.0" encoding="UTF-8"?>
<!DOCTYPE svg PUBLIC "-//W3C//DTD SVG 1.1//EN" "http://www.w3.org/Graphics/SVG/1.1/DTD/svg11.dtd">
<!-- Creator: CorelDRAW X8 -->
<svg xmlns="http://www.w3.org/2000/svg" xml:space="preserve" width="1.33181in" height="1.18205in" version="1.1" style="shape-rendering:geometricPrecision; text-rendering:geometricPrecision; image-rendering:optimizeQuality; fill-rule:evenodd; clip-rule:evenodd"
viewBox="0 0 1181 1048"
 xmlns:xlink="http://www.w3.org/1999/xlink">
 <defs>
  <style type="text/css">
   <![CDATA[
    .fil0 {fill:#F2792A;fill-rule:nonzero}
   ]]>
  </style>
 </defs>
 <g id="_3">
  <metadata id="CorelCorpID_0Corel-Layer"/>
  <path class="fil0" d="M686 894l0 -140c0,-18 -14,-33 -32,-33l-140 0c-18,0 -32,-14 -32,-32l0 -144c0,-18 14,-33 32,-33l140 0c18,0 32,-14 32,-32l0 -140c0,-18 15,-32 33,-32l144 0c18,0 33,14 33,32l0 140c0,18 14,32 32,32l140 0c12,0 23,7 28,17 57,-79 85,-155 85,-230 0,-221 -143,-299 -265,-299 -113,0 -221,62 -287,166l-1 1 -1 1c-8,11 -21,18 -35,19l-2 0 -1 0c-14,-1 -27,-8 -36,-18l-1 -2 0 -1c-67,-104 -174,-166 -288,-166 -122,0 -264,78 -264,299 0,145 102,293 321,464 143,111 229,224 269,285 22,-33 56,-79 105,-133 -5,-6 -9,-13 -9,-21z"/>
 </g>
</svg>
