<?xml version="1.0" encoding="UTF-8"?>
<!DOCTYPE svg PUBLIC "-//W3C//DTD SVG 1.1//EN" "http://www.w3.org/Graphics/SVG/1.1/DTD/svg11.dtd">
<!-- Creator: CorelDRAW X8 -->
<svg xmlns="http://www.w3.org/2000/svg" xml:space="preserve" width="2.9922in" height="1.32507in" version="1.1" style="shape-rendering:geometricPrecision; text-rendering:geometricPrecision; image-rendering:optimizeQuality; fill-rule:evenodd; clip-rule:evenodd"
viewBox="0 0 3091 1369"
 xmlns:xlink="http://www.w3.org/1999/xlink">
 <defs>
  <style type="text/css">
   <![CDATA[
    .fil0 {fill:#8CC43F;fill-rule:nonzero}
    .fil1 {fill:white;fill-rule:nonzero}
   ]]>
  </style>
 </defs>
 <g id="_3">
  <metadata id="CorelCorpID_0Corel-Layer"/>
  <g id="_905406990144">
   <g>
    <path class="fil0" d="M2830 796c0,0 -265,47 -279,50 -22,6 -30,17 -20,32l1 3c53,91 80,251 63,382 -1,8 -5,26 18,22 23,-4 296,-54 296,-54 120,-22 200,-137 178,-257 -21,-120 -137,-200 -257,-178z"/>
    <path class="fil1" d="M1915 1187c-21,-120 59,-236 179,-257 0,0 267,-46 322,-59 56,-13 63,4 79,31 50,85 73,238 58,355 -4,27 -9,38 -52,49 -43,10 -328,59 -328,59 -120,22 -236,-58 -258,-178z"/>
   </g>
   <g>
    <path class="fil0" d="M1425 318c0,0 -266,47 -279,51 -22,5 -30,16 -21,31l2 3c53,91 80,251 63,382 -1,9 -5,26 18,22 23,-4 296,-53 296,-53 120,-22 200,-138 178,-258 -22,-120 -137,-200 -257,-178z"/>
    <path class="fil1" d="M510 709c-22,-120 58,-235 178,-257 0,0 268,-46 323,-59 55,-13 63,4 79,32 50,84 73,237 58,354 -4,28 -10,39 -52,49 -43,10 -328,59 -328,59 -120,22 -236,-58 -258,-178z"/>
   </g>
   <g>
    <path class="fil0" d="M1282 940c0,0 216,-160 228,-168 19,-12 32,-10 37,7l1 3c30,101 128,230 235,307 7,6 23,15 4,29 -19,14 -242,179 -242,179 -98,72 -237,51 -310,-47 -72,-98 -51,-237 47,-310z"/>
    <path class="fil1" d="M2194 542c-73,-98 -212,-119 -310,-46 0,0 -217,164 -264,195 -47,31 -40,48 -31,79 27,94 123,216 219,285 22,16 34,19 71,-5 37,-24 268,-198 268,-198 98,-72 119,-211 47,-310z"/>
   </g>
   <g>
    <path class="fil0" d="M2230 28c0,0 235,131 247,139 19,12 23,25 9,37l-2 2c-80,68 -158,211 -184,340 -2,9 -4,27 -25,16 -20,-12 -262,-147 -262,-147 -106,-60 -144,-195 -85,-302 60,-106 195,-144 302,-85z"/>
    <path class="fil1" d="M2967 696c60,-107 22,-242 -85,-302 0,0 -238,-130 -286,-160 -47,-31 -60,-17 -85,4 -74,64 -146,201 -169,317 -6,27 -4,39 33,63 37,23 291,162 291,162 106,60 242,22 301,-84z"/>
   </g>
   <g>
    <path class="fil0" d="M234 848c0,0 269,14 283,15 22,3 31,13 24,29l-1 3c-42,97 -48,260 -16,387 3,9 9,26 -15,25 -23,-2 -300,-17 -300,-17 -122,-7 -215,-112 -209,-234 7,-122 112,-215 234,-208z"/>
    <path class="fil1" d="M1190 1123c6,-122 -87,-227 -209,-234 0,0 -271,-12 -328,-18 -56,-6 -61,12 -74,41 -39,90 -43,245 -13,359 7,27 14,37 58,42 43,5 332,19 332,19 122,6 227,-87 234,-209z"/>
   </g>
  </g>
 </g>
</svg>
