<?xml version="1.0" encoding="UTF-8"?>
<!DOCTYPE svg PUBLIC "-//W3C//DTD SVG 1.1//EN" "http://www.w3.org/Graphics/SVG/1.1/DTD/svg11.dtd">
<!-- Creator: CorelDRAW X8 -->
<svg xmlns="http://www.w3.org/2000/svg" xml:space="preserve" width="0.474638in" height="0.670417in" version="1.1" style="shape-rendering:geometricPrecision; text-rendering:geometricPrecision; image-rendering:optimizeQuality; fill-rule:evenodd; clip-rule:evenodd"
viewBox="0 0 23 32"
 xmlns:xlink="http://www.w3.org/1999/xlink">
 <defs>
  <style type="text/css">
   <![CDATA[
    .fil1 {fill:#74CBF2}
    .fil0 {fill:#777876}
   ]]>
  </style>
 </defs>
 <g id="Layer_x0020_1">
  <metadata id="CorelCorpID_0Corel-Layer"/>
  <path class="fil0" d="M16 23c1,1 3,2 4,2 1,-3 3,-7 3,-10 0,-1 0,-2 -1,-3 -2,8 -10,7 -6,11l0 0z"/>
  <path class="fil1" d="M22 10c-1,-1 -2,-2 -3,-2 0,0 0,0 0,0 0,0 -1,-2 0,-4 0,-1 1,-2 1,-2 0,0 0,-1 0,-1 0,0 -1,0 -1,0l-2 -1c0,0 0,1 0,1 -1,2 -2,6 -3,6 0,0 0,0 0,0 0,0 0,0 0,-1 -1,0 0,-4 0,-5 0,0 0,-1 0,-1 0,0 -1,0 -1,0l-1 0c-1,0 -1,0 -1,1 0,0 0,3 0,5 -1,0 -1,2 -1,2 0,0 0,0 -1,0 0,-1 -1,-3 -1,-4 0,-2 -1,-3 -1,-3 0,0 0,0 0,0 0,0 0,0 0,0l-2 0c-1,0 -1,1 -1,1 0,0 1,1 1,3 0,1 0,2 -1,2 0,0 0,0 0,1 -1,0 -1,0 -1,1 7,2 15,19 19,1l0 0z"/>
  <path class="fil0" d="M19 26c-1,2 -2,4 -3,5 -1,1 -2,1 -3,1 -2,0 -5,-2 -9,-5 -3,-3 -4,-7 -4,-10 0,-3 0,-6 1,-7l0 0c0,0 1,0 1,0 11,2 8,9 13,14 1,1 3,2 4,2l0 0z"/>
 </g>
</svg>
