<?xml version="1.0" encoding="UTF-8"?>
<!DOCTYPE svg PUBLIC "-//W3C//DTD SVG 1.1//EN" "http://www.w3.org/Graphics/SVG/1.1/DTD/svg11.dtd">
<!-- Creator: CorelDRAW X8 -->
<svg xmlns="http://www.w3.org/2000/svg" xml:space="preserve" width="1.24178in" height="2.60254in" version="1.1" style="shape-rendering:geometricPrecision; text-rendering:geometricPrecision; image-rendering:optimizeQuality; fill-rule:evenodd; clip-rule:evenodd"
viewBox="0 0 263 551"
 xmlns:xlink="http://www.w3.org/1999/xlink">
 <defs>
  <style type="text/css">
   <![CDATA[
    .fil0 {fill:#00A1AC;fill-rule:nonzero}
    .fil1 {fill:white;fill-rule:nonzero}
   ]]>
  </style>
 </defs>
 <g id="Object">
  <metadata id="CorelCorpID_0Corel-Layer"/>
  <path class="fil0" d="M210 6l-5 -2c-41,-14 -85,8 -99,49l-92 276c-11,32 0,66 26,86l-40 118 53 18 40 -118c32,0 62,-21 73,-53l93 -276c14,-40 -8,-84 -49,-98zm31 77l0 0c-1,3 -4,4 -7,3l-34 -11 -17 53 33 11c3,1 5,4 4,7 -1,3 -4,5 -7,4l-34 -11 -18 52 34 12c3,1 5,4 4,7 -2,3 -5,5 -8,4l-34 -12 -17 53 33 11c3,1 5,5 4,8 -1,3 -4,4 -7,3l-34 -11 -18 53 34 11c3,1 5,4 4,8 -1,3 -5,4 -8,3l-34 -11 -62 187c-3,8 -12,12 -20,10 -8,-3 -13,-12 -10,-20l63 -187 -27 -9c-3,-1 -5,-5 -4,-8 1,-3 4,-4 7,-3l28 9 18 -53 -28 -9c-3,-1 -5,-4 -4,-7 1,-3 5,-5 8,-4l27 9 18 -52 -28 -10c-3,-1 -4,-4 -3,-7 1,-3 4,-5 7,-4l28 9 17 -52 -27 -10c-3,-1 -5,-4 -4,-7 1,-3 5,-5 8,-4l27 10 18 -53 -28 -9c-3,-1 -4,-5 -3,-8 1,-3 4,-4 7,-3l28 9 2 -7c3,-8 11,-12 19,-10 9,3 13,12 10,20l-2 7 34 11c3,1 4,5 3,8z"/>
  <path class="fil1" d="M47 514c-2,5 -8,8 -13,6 -4,-1 -8,-7 -6,-12l151 -453c2,-5 8,-9 15,-7 6,2 7,10 6,15l-153 451z"/>
 </g>
</svg>
