<?xml version="1.0" encoding="UTF-8"?>
<!DOCTYPE svg PUBLIC "-//W3C//DTD SVG 1.1//EN" "http://www.w3.org/Graphics/SVG/1.1/DTD/svg11.dtd">
<!-- Creator: CorelDRAW X8 -->
<svg xmlns="http://www.w3.org/2000/svg" xml:space="preserve" width="2.18145in" height="1.27878in" version="1.1" style="shape-rendering:geometricPrecision; text-rendering:geometricPrecision; image-rendering:optimizeQuality; fill-rule:evenodd; clip-rule:evenodd"
viewBox="0 0 2316 1358"
 xmlns:xlink="http://www.w3.org/1999/xlink">
 <defs>
  <style type="text/css">
   <![CDATA[
    .fil1 {fill:#8CC43F;fill-rule:nonzero}
    .fil0 {fill:#F2792A;fill-rule:nonzero}
   ]]>
  </style>
 </defs>
 <g id="_3">
  <metadata id="CorelCorpID_0Corel-Layer"/>
  <g id="_905517214304">
   <path class="fil0" d="M734 692c-56,-18 -113,-25 -169,-25 -39,0 -77,4 -115,9 19,30 41,61 67,92l0 0 1 2c4,4 8,9 12,14l1 0 40 44 -1 0c3,3 6,6 8,8l2 2 0 0c25,27 53,53 83,81 16,4 32,9 48,15 15,5 31,10 46,15l45 18c8,3 14,5 23,9l22 11c15,6 30,13 44,21 28,14 56,29 82,45 26,15 51,30 74,46 5,3 9,6 14,10 21,-96 -61,-333 -327,-417z"/>
   <path class="fil0" d="M1113 1120l-5 25 5 9c12,7 24,15 36,23 17,-12 34,-24 52,-35l7 -11 -5 -25c-26,-122 72,-386 362,-478 58,-19 120,-28 186,-28 51,0 101,6 150,15 36,-72 53,-142 53,-212 0,-297 -192,-403 -356,-403 -154,0 -298,84 -388,224l-1 2 -1 1c-11,15 -29,24 -48,25l-2 0 -2 0c-19,-1 -37,-10 -48,-25l-1 -1 -1 -2c-90,-140 -234,-224 -388,-224 -164,0 -356,106 -356,403 0,74 19,148 59,224 47,-8 95,-13 144,-13 66,0 128,9 186,27 290,92 388,357 362,479z"/>
   <path class="fil1" d="M1582 681c-266,85 -348,321 -327,417 5,-3 9,-6 14,-10 23,-15 48,-30 74,-46 26,-16 54,-30 82,-45 14,-7 29,-14 44,-21l22 -10c9,-5 15,-7 23,-10l45 -17c15,-6 31,-11 46,-16 31,-10 61,-19 90,-27 58,-16 113,-29 160,-39 95,-19 160,-25 160,-25 0,0 -15,7 -40,20 -26,12 -63,28 -107,48 -22,9 -46,19 -71,30 -25,10 -52,21 -79,33 -28,11 -56,23 -84,34 -29,12 -58,24 -87,37 -27,12 -56,28 -83,40 -28,15 -56,27 -82,40 -33,16 -64,30 -93,43 0,0 0,0 0,1 -48,22 -91,50 -131,82l0 -3c-40,-31 -83,-46 -131,-69 0,0 0,0 0,0 -29,-13 -60,-27 -93,-43 -18,-9 -38,-18 -57,-28 -8,-4 -16,-8 -25,-12 -27,-13 -56,-28 -83,-40 -29,-13 -58,-26 -87,-37 -28,-12 -56,-23 -84,-35 -27,-11 -54,-22 -79,-33 -25,-10 -49,-20 -71,-30 -44,-19 -81,-36 -107,-48 -25,-12 -40,-19 -40,-19 0,0 65,6 160,25 47,10 102,22 160,39 29,7 59,16 90,27 15,5 31,10 46,15l45 18c8,3 14,5 23,9l22 11c15,6 30,13 44,21 28,14 56,29 82,45 26,15 51,30 74,46 5,3 9,6 14,10 21,-96 -61,-333 -327,-417 -288,-92 -578,98 -734,82 207,158 230,304 535,449 205,97 349,57 434,-3 70,32 136,86 189,138 53,-52 119,-117 189,-149 85,60 229,101 434,3 305,-145 328,-291 535,-449 -156,17 -446,-173 -734,-82z"/>
  </g>
 </g>
</svg>
