<?xml version="1.0" encoding="UTF-8"?>
<!DOCTYPE svg PUBLIC "-//W3C//DTD SVG 1.1//EN" "http://www.w3.org/Graphics/SVG/1.1/DTD/svg11.dtd">
<!-- Creator: CorelDRAW X8 -->
<svg xmlns="http://www.w3.org/2000/svg" xml:space="preserve" width="0.977693in" height="0.862437in" version="1.1" style="shape-rendering:geometricPrecision; text-rendering:geometricPrecision; image-rendering:optimizeQuality; fill-rule:evenodd; clip-rule:evenodd"
viewBox="0 0 917 809"
 xmlns:xlink="http://www.w3.org/1999/xlink">
 <defs>
  <style type="text/css">
   <![CDATA[
    .fil0 {fill:#777876;fill-rule:nonzero}
   ]]>
  </style>
 </defs>
 <g id="Layer_x0020_1">
  <metadata id="CorelCorpID_0Corel-Layer"/>
  <path class="fil0" d="M917 438c-45,33 -89,54 -132,65 -45,11 -89,11 -131,-4l-8 -3 -61 -60 -208 215 106 103c76,43 167,5 221,-58 17,0 25,9 27,25 -65,76 -177,118 -269,62l-4 -2 -458 -441 26 -27 79 76 209 -216 -151 -146 25 -27 183 178c97,-67 168,-80 226,-58 58,22 98,79 137,148 5,8 2,20 -7,25 -8,5 -20,1 -25,-8 -34,-61 -71,-112 -118,-131 -45,-17 -103,-6 -185,50l270 262c35,11 71,11 107,2 39,-10 78,-31 120,-59 17,1 23,12 21,29l0 0z"/>
 </g>
</svg>
