<?xml version="1.0" encoding="UTF-8"?>
<!DOCTYPE svg PUBLIC "-//W3C//DTD SVG 1.1//EN" "http://www.w3.org/Graphics/SVG/1.1/DTD/svg11.dtd">
<!-- Creator: CorelDRAW X8 -->
<svg xmlns="http://www.w3.org/2000/svg" xml:space="preserve" width="2.78459in" height="2.48931in" version="1.1" style="shape-rendering:geometricPrecision; text-rendering:geometricPrecision; image-rendering:optimizeQuality; fill-rule:evenodd; clip-rule:evenodd"
viewBox="0 0 2798 2501"
 xmlns:xlink="http://www.w3.org/1999/xlink">
 <defs>
  <style type="text/css">
   <![CDATA[
    .fil3 {fill:#FEFEFE;fill-rule:nonzero}
    .fil2 {fill:#3BABAC;fill-rule:nonzero}
    .fil1 {fill:#5673B3;fill-rule:nonzero}
    .fil0 {fill:#3F4D6F;fill-rule:nonzero}
   ]]>
  </style>
 </defs>
 <g id="Layer_x0020_1">
  <metadata id="CorelCorpID_0Corel-Layer"/>
  <path class="fil0" d="M1628 1691c-96,102 -181,190 -229,256 0,0 0,0 0,0l0 0c-199,-248 -1032,-937 -772,-1369 280,-467 772,-90 772,-90 0,0 491,-377 772,90 197,329 -235,790 -543,1113zm832 -1691l-2122 0c-260,0 -422,281 -292,506l1055 1826c129,225 452,225 583,2l1067 -1826c131,-225 -31,-508 -291,-508z"/>
  <path class="fil1" d="M1002 291c-121,0 -292,45 -422,260 -101,169 -66,389 105,655 139,215 345,428 496,584 74,77 138,143 175,190l43 57 43 -58c45,-61 123,-143 214,-239l11 -12c307,-322 771,-810 550,-1177 -102,-171 -248,-260 -421,-260 -166,0 -316,80 -390,127l-7 5 -8 -5c-74,-47 -224,-127 -389,-127zm398 1791l-65 -85c-37,-46 -100,-112 -174,-188 -151,-157 -358,-371 -499,-589 -177,-274 -212,-504 -105,-683 136,-226 317,-273 445,-273 167,0 318,77 397,127 79,-50 229,-127 397,-127 183,0 337,94 444,273 231,385 -241,881 -553,1210l-11 11c-91,95 -169,177 -212,237l-64 87zm-1062 -2001c-93,0 -176,48 -223,128 -46,80 -46,176 1,257l1054 1826c47,80 130,128 223,128 92,0 175,-47 222,-127l1067 -1826c46,-81 47,-177 0,-257 -46,-81 -129,-129 -222,-129l-2122 0zm1055 2366l0 0c-103,0 -195,-53 -246,-141l-1055 -1827c-51,-89 -51,-195 0,-283 51,-89 143,-142 246,-142l2122 0c103,0 195,53 246,142 51,89 51,196 -1,284l-1067 1827c-52,88 -143,140 -245,140z"/>
  <path class="fil2" d="M1397 1863c-38,-43 -86,-92 -139,-147 -289,-299 -772,-799 -585,-1110 82,-138 193,-208 329,-208 189,0 362,132 364,133l33 25 32 -25c2,-1 177,-133 365,-133 135,0 246,70 329,208 179,297 -258,756 -547,1060 -70,74 -133,140 -181,197z"/>
  <path class="fil3" d="M1807 964l0 182c0,44 -35,80 -80,80l-157 0 0 157c0,45 -36,80 -80,80l-182 0c-45,0 -80,-35 -80,-80l0 -157 -158 0c-44,0 -80,-36 -80,-80l0 -182c0,-44 36,-80 80,-80l158 0 0 -158c0,-44 35,-80 80,-80l182 0c44,0 80,36 80,80l0 158 157 0c45,0 80,36 80,80z"/>
  <path class="fil1" d="M743 67l1312 0c0,0 -224,23 -411,25l238 0c0,0 -188,25 -401,26l281 13c0,0 -415,30 -783,4l268 -7c0,0 -237,-13 -360,-24l322 -2c0,0 -312,-13 -466,-35z"/>
 </g>
</svg>
