<?xml version="1.0" encoding="UTF-8"?>
<!DOCTYPE svg PUBLIC "-//W3C//DTD SVG 1.1//EN" "http://www.w3.org/Graphics/SVG/1.1/DTD/svg11.dtd">
<!-- Creator: CorelDRAW X8 -->
<svg xmlns="http://www.w3.org/2000/svg" xml:space="preserve" width="3.27146in" height="3.2994in" version="1.1" style="shape-rendering:geometricPrecision; text-rendering:geometricPrecision; image-rendering:optimizeQuality; fill-rule:evenodd; clip-rule:evenodd"
viewBox="0 0 7833 7900"
 xmlns:xlink="http://www.w3.org/1999/xlink">
 <defs>
  <style type="text/css">
   <![CDATA[
    .fil0 {fill:#373435;fill-rule:nonzero}
    .fil1 {fill:#ED3237;fill-rule:nonzero}
   ]]>
  </style>
 </defs>
 <g id="Layer_x0020_1">
  <metadata id="CorelCorpID_0Corel-Layer"/>
  <path class="fil0" d="M7179 6768c-73,139 -211,223 -368,223l-4291 0c12,-65 19,-131 19,-199l0 -1971 1253 -1807c35,-50 54,-111 54,-172l0 -2236 947 0 0 2236c0,61 19,122 54,172l2305 3324c90,129 100,290 27,430zm-5247 -2136l0 2160c0,70 -15,138 -41,199 -77,178 -255,303 -461,303 -277,0 -502,-225 -502,-502l0 -4935 1004 0 0 2775zm5718 1360l-2251 -3245 0 -2141 76 0c167,0 303,-135 303,-303 0,-167 -136,-303 -303,-303l-2311 0c-168,0 -303,136 -303,303 0,168 135,303 303,303l76 0 0 2141 -701 1011 0 -1901 19 0c167,0 303,-136 303,-304 0,-167 -136,-303 -303,-303l-2255 0c-167,0 -303,136 -303,303 0,168 136,304 303,304l19 0 0 4935c0,611 497,1108 1108,1108 294,0 561,-116 760,-303l4621 0c381,0 728,-210 905,-548 177,-338 152,-743 -66,-1057z"/>
  <path class="fil1" d="M5248 4035l-1705 0 -705 962c-47,64 -72,142 -72,222l0 1308c0,120 97,217 218,217l3616 0c176,0 283,-195 186,-343l-1538 -2366z"/>
  <path class="fil1" d="M1421 6744c188,0 341,-152 341,-341l0 -2791 -682 0 0 663 328 0c53,0 95,43 95,95 0,52 -42,95 -95,95l-328 0 0 524 328 0c53,0 95,42 95,95 0,52 -42,94 -95,94l-328 0 0 524 328 0c53,0 95,43 95,95 0,52 -42,95 -95,95l-328 0 0 511c0,189 153,341 341,341z"/>
 </g>
</svg>
