<?xml version="1.0" encoding="UTF-8"?>
<!DOCTYPE svg PUBLIC "-//W3C//DTD SVG 1.1//EN" "http://www.w3.org/Graphics/SVG/1.1/DTD/svg11.dtd">
<!-- Creator: CorelDRAW X8 -->
<svg xmlns="http://www.w3.org/2000/svg" xml:space="preserve" width="1.11785in" height="0.657138in" version="1.1" style="shape-rendering:geometricPrecision; text-rendering:geometricPrecision; image-rendering:optimizeQuality; fill-rule:evenodd; clip-rule:evenodd"
viewBox="0 0 1265 743"
 xmlns:xlink="http://www.w3.org/1999/xlink">
 <defs>
  <style type="text/css">
   <![CDATA[
    .fil1 {fill:#74CBF2}
    .fil0 {fill:#777876}
   ]]>
  </style>
 </defs>
 <g id="Layer_x0020_1">
  <metadata id="CorelCorpID_0Corel-Layer"/>
  <path class="fil0" d="M1264 338c0,57 -24,105 -57,122l0 15c0,1 -1,4 -3,4 0,2 -3,3 -4,3l-5 0 0 122c0,43 -3,75 -9,97 -7,26 -21,38 -40,42l-2 0 -395 -4c-52,-35 -49,-83 -48,-162 2,-17 2,-149 2,-175l-15 0 0 256c0,27 -2,46 -8,60 -9,15 -21,22 -40,25l-2 0 -378 -3c-51,-21 -48,-51 -47,-99l0 -7 -63 0c-6,0 -12,-6 -12,-14l0 -12 -33 0 0 -608 269 0c33,0 61,27 61,62l0 485c0,34 -28,61 -61,61l-77 0 0 12c0,8 -6,14 -13,14l-45 0c0,3 0,6 0,9 -2,36 1,63 30,75l368 0c10,-2 16,-5 21,-12 4,-9 6,-24 6,-48l0 -256 -29 0c-6,0 -10,-3 -15,-6l0 0c-4,-4 -6,-10 -6,-15l0 -153c0,-6 2,-12 6,-15l0 0c5,-4 9,-7 15,-7l125 0c6,0 10,3 15,7l0 0c3,3 6,9 6,15l0 153c0,5 -3,11 -6,15l0 0c-5,3 -9,6 -15,6l-32 0c0,26 -1,160 -1,176 -2,60 1,104 30,123l386 0c10,-1 18,-7 21,-18 4,-16 6,-42 6,-79l0 -122 -9 0c-2,0 -3,-1 -5,-3 0,-1 -1,-3 -1,-4l0 -18c-30,-18 -53,-65 -51,-121 0,-55 22,-102 54,-120l0 -19c0,-2 0,-3 1,-5 2,-1 3,-3 5,-3l39 2c1,0 3,0 4,1 2,2 3,3 3,6l-1 17c33,16 57,66 55,123l0 0z"/>
  <path class="fil0" d="M62 0l16 0 0 608 -16 0c-33,0 -62,-27 -62,-61l0 -485c0,-35 29,-62 62,-62l0 0z"/>
  <path class="fil1" d="M679 324c-3,-3 -8,-4 -12,-4 -5,0 -9,1 -12,4 -3,3 -6,8 -6,12 0,6 3,11 6,14 3,3 7,4 12,4 4,0 9,-1 12,-4 4,-3 6,-8 6,-14 0,-4 -2,-9 -6,-12l0 0z"/>
  <polygon class="fil1" points="638,308 757,308 757,239 638,239 "/>
  <path class="fil1" d="M743 324c-3,-3 -7,-4 -13,-4 -5,0 -9,1 -12,4 -3,3 -5,8 -5,12 0,6 2,11 5,14 3,3 7,4 12,4 6,0 10,-1 13,-4 3,-3 5,-8 5,-14 0,-4 -2,-9 -5,-12l0 0z"/>
 </g>
</svg>
