<?xml version="1.0" encoding="UTF-8"?>
<!DOCTYPE svg PUBLIC "-//W3C//DTD SVG 1.1//EN" "http://www.w3.org/Graphics/SVG/1.1/DTD/svg11.dtd">
<!-- Creator: CorelDRAW X8 -->
<svg xmlns="http://www.w3.org/2000/svg" xml:space="preserve" width="2.40217in" height="2.74071in" version="1.1" style="shape-rendering:geometricPrecision; text-rendering:geometricPrecision; image-rendering:optimizeQuality; fill-rule:evenodd; clip-rule:evenodd"
viewBox="0 0 1255 1431"
 xmlns:xlink="http://www.w3.org/1999/xlink">
 <defs>
  <style type="text/css">
   <![CDATA[
    .fil0 {fill:#26C6DA;fill-rule:nonzero}
    .fil6 {fill:#424242;fill-rule:nonzero}
    .fil2 {fill:#90A3AE;fill-rule:nonzero}
    .fil3 {fill:#AFBDC4;fill-rule:nonzero}
    .fil8 {fill:#BCBCBC;fill-rule:nonzero}
    .fil1 {fill:#EDEDED;fill-rule:nonzero}
    .fil4 {fill:#F7BACF;fill-rule:nonzero}
    .fil5 {fill:#F9F9F9;fill-rule:nonzero}
    .fil7 {fill:#FCE3EB;fill-rule:nonzero}
   ]]>
  </style>
 </defs>
 <g id="BACKGROUND">
  <metadata id="CorelCorpID_0Corel-Layer"/>
  <path class="fil0" d="M1251 918c0,-3 0,-5 1,-8 2,-20 3,-39 3,-59 0,-10 -1,-20 -1,-30 0,0 0,0 0,-1 -1,-17 -3,-35 -5,-52 0,-2 -1,-4 -1,-5 0,0 0,-1 0,-1 -1,-2 -1,-4 -1,-7 -1,-6 -3,-13 -4,-20 -1,-3 -1,-6 -2,-10 -1,-5 -3,-11 -4,-16 -1,-4 -2,-7 -3,-10 -1,-6 -3,-12 -4,-17 -1,-3 -2,-6 -3,-9 -2,-7 -5,-14 -7,-21 -1,-2 -1,-3 -2,-4 -3,-9 -6,-17 -9,-25 -1,-2 -2,-5 -3,-7 -3,-6 -5,-12 -8,-17 -1,-3 -3,-6 -4,-9 -3,-5 -6,-11 -8,-16 -2,-2 -3,-5 -4,-7 -4,-7 -8,-13 -11,-19 0,0 0,0 0,0l9 -58 0 -3 21 -130 1 -2 21 -131 0 -2 16 -95c1,-10 -1,-20 -7,-28 -12,-16 -36,-22 -55,-7l-1 1 -45 37 0 1 -86 70 0 0 -34 28 -85 70 -17 14c-3,-1 -7,-2 -10,-4 -2,-1 -5,-2 -7,-3 -8,-4 -17,-7 -25,-10 -1,0 -3,-1 -4,-1 -7,-3 -14,-5 -21,-7 -3,-1 -6,-2 -10,-3 -5,-2 -10,-3 -16,-5 -3,-1 -7,-2 -10,-3 -6,-1 -11,-2 -16,-3 -4,-1 -7,-2 -11,-2 -6,-2 -13,-3 -19,-4 -3,0 -5,-1 -8,-1 0,0 0,0 0,0 -2,-1 -3,-1 -5,-1 -17,-2 -35,-4 -52,-5 -1,0 -1,0 -2,0 -10,-1 -20,-1 -30,-1 -20,0 -40,1 -59,3 -2,0 -4,1 -6,1 -7,1 -15,2 -22,3 -4,0 -9,1 -13,2 -3,0 -7,1 -11,2 -1,0 -2,0 -4,0 -1,1 -1,1 -2,1 -2,0 -4,1 -5,1 -7,1 -14,3 -21,5 -3,0 -5,1 -7,2 -8,2 -16,4 -25,6 -1,1 -2,1 -4,2 -6,2 -13,4 -20,7 -2,1 -5,2 -8,2 -6,3 -12,5 -19,8 -2,1 -5,2 -7,3 -4,2 -8,4 -12,5l-269 -221c-26,-22 -66,1 -61,35l68 421c-53,88 -84,192 -84,303 0,321 260,580 580,580l22 0c225,0 420,-127 516,-314l0 0c11,-21 21,-43 29,-66 0,0 0,0 0,0 7,-18 12,-35 17,-53 0,-1 0,-2 1,-4 2,-9 4,-18 6,-28 1,-1 1,-2 1,-3 1,-4 1,-8 2,-12 1,-5 1,-9 2,-13 1,-7 2,-13 3,-20z"/>
 </g>
 <g id="OBJECTS">
  <metadata id="CorelCorpID_1Corel-Layer"/>
  <path class="fil1" d="M1105 9c27,-22 67,1 61,35l-81 501 -317 -258 337 -278z"/>
  <path class="fil2" d="M1166 44l-15 94 0 3 -94 -93 2 -1 46 -38c27,-22 67,1 61,35z"/>
  <polygon class="fil3" points="1151,138 1151,141 1130,271 1129,274 973,118 975,116 1057,48 1059,47 "/>
  <polygon class="fil2" points="1130,271 1129,274 1108,404 1108,407 888,187 890,186 973,118 975,116 "/>
  <polygon class="fil3" points="1108,404 1108,407 1086,540 804,257 888,187 890,186 "/>
  <path class="fil1" d="M77 9c-27,-22 -67,1 -61,35l81 501 317 -258 -337 -278z"/>
  <path class="fil4" d="M122 95c-18,-15 -45,1 -41,24l55 337 213 -174 -227 -187z"/>
  <path class="fil5" d="M591 177c-326,0 -591,264 -591,591l0 0c0,320 260,580 580,580l22 0c321,0 580,-260 580,-580l0 0c0,-327 -264,-591 -591,-591z"/>
  <path class="fil6" d="M297 524c-22,0 -40,18 -40,41l0 165c0,22 18,40 40,40 23,0 41,-18 41,-40l0 -165c0,-23 -18,-41 -41,-41z"/>
  <path class="fil7" d="M1074 829c0,18 -42,32 -94,32 -53,0 -95,-14 -95,-32 0,-17 42,-31 95,-31 52,0 94,14 94,31z"/>
  <path class="fil7" d="M108 829c0,18 42,32 95,32 52,0 94,-14 94,-32 0,-17 -42,-31 -94,-31 -53,0 -95,14 -95,31z"/>
  <path class="fil8" d="M729 1062c-5,-4 -12,-2 -15,3 -11,18 -30,29 -51,29 -34,0 -61,-27 -61,-61l0 -106c0,-6 -5,-11 -11,-11 -6,0 -11,5 -11,11l0 106c0,34 -27,61 -60,61 -22,0 -41,-11 -52,-29 -3,-5 -10,-7 -15,-3 -5,3 -7,10 -4,15 16,24 42,39 71,39 30,0 57,-17 71,-42 14,25 41,42 72,42 28,0 55,-15 70,-39 3,-5 1,-12 -4,-15z"/>
  <path class="fil4" d="M654 886l-125 0c-12,0 -20,10 -18,21 10,35 42,61 80,61 38,0 70,-26 80,-61 3,-11 -6,-21 -17,-21z"/>
  <path class="fil2" d="M1176 684l-501 -501c1,0 3,0 5,0 127,20 242,80 329,167 87,87 147,202 167,329 0,2 0,4 0,5z"/>
  <path class="fil3" d="M1182 768c0,38 -3,75 -10,111 -1,1 -1,3 -1,4l-695 -695c1,0 3,-1 4,-1 36,-7 73,-10 111,-10 29,0 56,2 84,6 1,0 3,0 5,0l496 496c0,2 0,4 0,5 4,28 6,56 6,84z"/>
  <path class="fil2" d="M1172 879c-1,1 -1,3 -1,4 -11,53 -29,104 -53,151l-793 -794c47,-24 98,-41 151,-52 1,0 3,-1 4,-1l692 692z"/>
 </g>
</svg>
