<?xml version="1.0" encoding="UTF-8"?>
<!DOCTYPE svg PUBLIC "-//W3C//DTD SVG 1.1//EN" "http://www.w3.org/Graphics/SVG/1.1/DTD/svg11.dtd">
<!-- Creator: CorelDRAW X8 -->
<svg xmlns="http://www.w3.org/2000/svg" xml:space="preserve" width="1.20257in" height="0.966803in" version="1.1" style="shape-rendering:geometricPrecision; text-rendering:geometricPrecision; image-rendering:optimizeQuality; fill-rule:evenodd; clip-rule:evenodd"
viewBox="0 0 1184 952"
 xmlns:xlink="http://www.w3.org/1999/xlink">
 <defs>
  <style type="text/css">
   <![CDATA[
    .fil0 {fill:#00A1AC;fill-rule:nonzero}
    .fil1 {fill:white;fill-rule:nonzero}
   ]]>
  </style>
 </defs>
 <g id="Object">
  <metadata id="CorelCorpID_0Corel-Layer"/>
  <path class="fil0" d="M1182 340c1,-10 2,-20 2,-31 0,-170 -139,-309 -310,-309 -126,0 -234,75 -282,183 -49,-108 -157,-183 -283,-183 -170,0 -309,139 -309,309 0,11 1,21 2,31 0,0 6,305 594,612 588,-307 586,-612 586,-612z"/>
  <path class="fil1" d="M318 68c28,0 51,23 51,51 0,28 -23,51 -51,51 -28,0 -50,-23 -50,-51 -1,-28 22,-51 50,-51z"/>
  <path class="fil1" d="M159 448c-4,1 -9,2 -14,2 -23,0 -44,-15 -51,-39 -8,-28 -11,-54 -12,-78 -5,-125 72,-187 76,-190 23,-18 56,-13 74,10 18,23 14,55 -9,73 -2,3 -36,33 -36,97 1,17 3,37 9,60 8,28 -8,57 -37,65z"/>
 </g>
</svg>
