<?xml version="1.0" encoding="UTF-8"?>
<!DOCTYPE svg PUBLIC "-//W3C//DTD SVG 1.1//EN" "http://www.w3.org/Graphics/SVG/1.1/DTD/svg11.dtd">
<!-- Creator: CorelDRAW X8 -->
<svg xmlns="http://www.w3.org/2000/svg" xml:space="preserve" width="1.11111in" height="1.11111in" version="1.1" style="shape-rendering:geometricPrecision; text-rendering:geometricPrecision; image-rendering:optimizeQuality; fill-rule:evenodd; clip-rule:evenodd"
viewBox="0 0 226 226"
 xmlns:xlink="http://www.w3.org/1999/xlink">
 <defs>
  <style type="text/css">
   <![CDATA[
    .fil3 {fill:#FEFEFE;fill-rule:nonzero}
    .fil4 {fill:#E8E7E8;fill-rule:nonzero}
    .fil1 {fill:#79B7B7;fill-rule:nonzero}
    .fil0 {fill:#6CC7BC;fill-rule:nonzero}
    .fil2 {fill:#379C8D;fill-rule:nonzero}
   ]]>
  </style>
 </defs>
 <g id="Layer_x0020_1">
  <metadata id="CorelCorpID_0Corel-Layer"/>
  <path class="fil0" d="M226 113c0,62 -51,113 -113,113 -62,0 -113,-51 -113,-113 0,-62 51,-113 113,-113 62,0 113,51 113,113z"/>
  <path class="fil1" d="M113 226l0 0c0,0 0,0 0,0 0,0 0,0 0,0zm0 0c0,0 0,0 0,0 0,0 0,0 0,0zm0 0c0,0 0,0 0,0 0,0 0,0 0,0zm0 0c1,0 1,0 1,0 0,0 0,0 -1,0zm1 0c0,0 0,0 0,0 0,0 0,0 0,0zm0 0c0,0 0,0 0,0 0,0 0,0 0,0zm0 0c0,0 0,0 0,0 0,0 0,0 0,0zm0 0c0,0 0,0 0,0 0,0 0,0 0,0zm0 0c0,0 0,0 1,0 -1,0 -1,0 -1,0zm1 0c0,0 0,0 0,0 0,0 0,0 0,0zm0 0c0,0 0,0 0,0 0,0 0,0 0,0zm0 0c0,0 0,0 0,0 0,0 0,0 0,0zm0 0c0,0 0,0 0,0 0,0 0,0 0,0zm0 0c0,0 0,0 0,0 0,0 0,0 0,0zm0 0c1,0 1,0 1,0 0,0 0,0 -1,0zm1 0c0,0 0,0 0,0 0,0 0,0 0,0zm0 0c0,0 0,0 0,0 0,0 0,0 0,0zm0 0c0,0 0,0 0,0 0,0 0,0 0,0zm0 0c0,0 0,0 0,0 0,0 0,0 0,0zm0 0c0,0 0,0 0,0 0,0 0,0 0,0zm1 0c0,0 0,0 0,0 0,0 0,0 0,0zm0 0c0,0 0,0 0,0 0,0 0,0 0,0zm0 0c0,0 0,0 0,0 0,0 0,0 0,0zm0 0c0,0 0,0 0,0 0,0 0,0 0,0zm0 0c0,0 0,0 0,0 0,0 0,0 0,0zm0 0c0,0 1,0 1,0 0,0 -1,0 -1,0zm1 0c0,0 0,0 0,0 0,0 0,0 0,0zm0 0c0,0 0,0 0,0 0,0 0,0 0,0zm0 0c0,0 0,0 0,0 0,0 0,0 0,0zm0 0c0,0 0,0 0,0 0,0 0,0 0,0zm0 0c0,0 0,0 0,0 0,0 0,0 0,0zm1 0c0,0 0,0 0,0 0,0 0,0 0,0zm2 0c0,0 0,0 0,0 0,0 0,0 0,0zm0 0l0 0c0,0 0,0 0,0zm0 -1c0,0 0,0 0,0 0,0 0,0 0,0zm0 0c0,0 0,0 0,0 0,0 0,0 0,0zm0 0c0,0 0,0 0,0 0,0 0,0 0,0zm1 0c0,0 0,0 0,0 0,0 0,0 0,0zm0 0c0,0 0,0 0,0 0,0 0,0 0,0zm0 0c0,0 0,0 0,0l0 0zm0 0c0,0 0,0 0,0 0,0 0,0 0,0zm0 0c0,0 0,0 0,0l0 0z"/>
  <path class="fil2" d="M113 226l0 0c-1,0 -2,0 -3,0l-40 -41 76 -147 80 80c-3,57 -47,103 -104,107 0,0 0,0 0,0 0,0 0,0 0,0 0,0 0,0 0,0 0,0 0,0 0,0 0,0 0,0 0,0 0,0 0,0 0,0 0,0 0,0 0,0 0,0 0,0 0,0 0,0 0,0 0,0 -1,0 -1,0 -1,0 0,0 0,0 0,0 0,0 0,0 0,0 0,0 0,0 0,0 0,0 0,0 0,0 0,0 0,0 0,0 0,0 0,0 0,1l0 0c0,0 0,0 0,0 0,0 0,0 0,0 -1,0 -2,0 -2,0 0,0 0,0 0,0 -1,0 -1,0 -1,0 0,0 0,0 0,0 0,0 0,0 0,0 0,0 0,0 0,0 0,0 0,0 0,0 0,0 0,0 0,0 0,0 0,0 0,0 0,0 0,0 0,0 0,0 0,0 0,0 0,0 0,0 0,0 0,0 0,0 0,0 0,0 -1,0 -1,0 0,0 0,0 0,0 0,0 0,0 0,0 0,0 0,0 0,0 0,0 0,0 0,0 0,0 0,0 0,0 0,0 0,0 0,0 0,0 0,0 0,0 0,0 0,0 0,0 0,0 0,0 0,0 0,0 0,0 0,0 0,0 0,0 -1,0 0,0 0,0 0,0 0,0 0,0 0,0 0,0 0,0 0,0 0,0 0,0 0,0 0,0 0,0 0,0 0,0 0,0 0,0 0,0 0,0 0,0 0,0 0,0 0,0 0,0 0,0 0,0 0,0 0,0 0,0 0,0 0,0 -1,0 0,0 0,0 0,0 0,0 0,0 0,0 0,0 0,0 0,0 0,0 0,0 0,0 0,0 0,0 0,0 0,0 0,0 0,0 0,0 0,0 0,0 0,0 0,0 0,0 0,0 0,0 0,0 0,0 0,0 0,0 0,0 0,0 0,0 -1,0 -1,0 -1,0 0,0 0,0 0,0 0,0 0,0 0,0 0,0 0,0 0,0 0,0 0,0 0,0 0,0 0,0 0,0 0,0 0,0 0,0 0,0 0,0 0,0 0,0 0,0 0,0 0,0 0,0 0,0 0,0 0,0 -1,0 0,0 0,0 0,0 0,0 0,0 0,0 0,0 0,0 0,0 0,0 0,0 0,0 0,0 0,0 0,0 0,0 0,0 0,0z"/>
  <polygon class="fil3" points="80,69 146,69 146,38 80,38 "/>
  <path class="fil3" d="M148 188l-70 0c-8,0 -15,-7 -15,-14l0 -91c0,-8 7,-14 15,-14l70 0c8,0 14,6 14,14l0 91c0,7 -6,14 -14,14z"/>
  <polygon class="fil4" points="88,68 92,68 92,38 88,38 "/>
  <polygon class="fil4" points="100,68 104,68 104,38 100,38 "/>
  <polygon class="fil4" points="111,68 115,68 115,38 111,38 "/>
  <polygon class="fil4" points="122,68 126,68 126,38 122,38 "/>
  <polygon class="fil4" points="133,68 137,68 137,38 133,38 "/>
  <polygon class="fil0" points="141,112 125,112 125,96 101,96 101,112 85,112 85,136 101,136 101,152 125,152 125,136 141,136 "/>
 </g>
</svg>
