<?xml version="1.0" encoding="UTF-8"?>
<!DOCTYPE svg PUBLIC "-//W3C//DTD SVG 1.1//EN" "http://www.w3.org/Graphics/SVG/1.1/DTD/svg11.dtd">
<!-- Creator: CorelDRAW X8 -->
<svg xmlns="http://www.w3.org/2000/svg" xml:space="preserve" width="0.386276in" height="0.862567in" version="1.1" style="shape-rendering:geometricPrecision; text-rendering:geometricPrecision; image-rendering:optimizeQuality; fill-rule:evenodd; clip-rule:evenodd"
viewBox="0 0 17 37"
 xmlns:xlink="http://www.w3.org/1999/xlink">
 <defs>
  <style type="text/css">
   <![CDATA[
    .fil1 {fill:#74CBF2}
    .fil0 {fill:#777876}
   ]]>
  </style>
 </defs>
 <g id="Layer_x0020_1">
  <metadata id="CorelCorpID_0Corel-Layer"/>
  <path class="fil0" d="M8 15l1 0c0,0 1,0 1,1 0,1 -1,1 -1,1l-1 0c0,0 0,-1 0,-2l0 0z"/>
  <path class="fil1" d="M2 17l0 0 0 -9c0,0 1,0 3,-1l2 8c0,1 1,2 1,2 0,0 0,0 -1,0l-5 0z"/>
  <path class="fil0" d="M9 0l0 0c2,0 4,2 4,4 0,2 -2,3 -4,3l3 0c0,0 4,0 5,4l0 8c0,1 -1,1 -2,1 0,0 -1,0 -1,-1l0 -9 0 0 0 10c0,5 0,10 0,15 0,3 -5,3 -5,0 0,-4 0,-9 0,-14 0,0 0,0 -1,0 0,5 0,10 0,14 0,3 -4,3 -4,0 0,-5 0,-10 0,-15l0 -2 5 0c1,0 1,-1 1,-2 0,-1 0,-2 -1,-2l-2 0 -2 -7 4 0c-3,0 -4,-1 -4,-3 0,-2 2,-4 4,-4l0 0z"/>
  <path class="fil0" d="M1 17l0 0c0,0 0,0 -1,0 0,0 0,-1 0,-1l0 -6c0,0 0,-1 1,-2l0 9z"/>
 </g>
</svg>
