<?xml version="1.0" encoding="UTF-8"?>
<!DOCTYPE svg PUBLIC "-//W3C//DTD SVG 1.1//EN" "http://www.w3.org/Graphics/SVG/1.1/DTD/svg11.dtd">
<!-- Creator: CorelDRAW X8 -->
<svg xmlns="http://www.w3.org/2000/svg" xml:space="preserve" width="0.861583in" height="0.314669in" version="1.1" style="shape-rendering:geometricPrecision; text-rendering:geometricPrecision; image-rendering:optimizeQuality; fill-rule:evenodd; clip-rule:evenodd"
viewBox="0 0 183 67"
 xmlns:xlink="http://www.w3.org/1999/xlink">
 <defs>
  <style type="text/css">
   <![CDATA[
    .fil1 {fill:#FEFEFE;fill-rule:nonzero}
    .fil2 {fill:#74CBF2;fill-rule:nonzero}
    .fil0 {fill:#727371;fill-rule:nonzero}
   ]]>
  </style>
 </defs>
 <g id="Layer_x0020_1">
  <metadata id="CorelCorpID_0Corel-Layer"/>
  <path class="fil0" d="M182 67l0 -12c-4,0 -8,-1 -11,-2l1 -37c3,0 7,-1 11,-1l0 -12c-22,0 -35,11 -46,22 -10,-11 -23,-23 -45,-23 -22,-1 -35,10 -46,22 -10,-12 -23,-23 -45,-24l0 12c5,0 9,1 13,2l0 36c-4,1 -9,2 -14,2l0 12c22,0 35,-11 46,-22 10,12 23,23 45,23 22,1 35,-10 46,-22 10,12 23,24 45,24l0 0z"/>
  <path class="fil1" d="M145 34l0 0c5,-5 10,-10 16,-14l0 29c-6,-4 -11,-9 -16,-15l0 0z"/>
  <path class="fil2" d="M103 52l0 0c-4,1 -8,1 -12,1 -3,0 -5,0 -8,-1l1 -38c2,0 5,0 8,0 4,0 8,0 11,1l0 37z"/>
  <path class="fil2" d="M54 33l0 0c6,-6 12,-12 19,-16l0 32c-8,-4 -13,-9 -19,-16l0 0z"/>
  <path class="fil1" d="M24 19l0 0c5,4 10,9 14,14 -5,5 -9,9 -14,12l0 -26z"/>
  <path class="fil2" d="M129 34l0 0c-5,6 -10,11 -16,14l0 -29c6,4 11,10 16,15l0 0z"/>
 </g>
</svg>
