<?xml version="1.0" encoding="UTF-8"?>
<!DOCTYPE svg PUBLIC "-//W3C//DTD SVG 1.1//EN" "http://www.w3.org/Graphics/SVG/1.1/DTD/svg11.dtd">
<!-- Creator: CorelDRAW X8 -->
<svg xmlns="http://www.w3.org/2000/svg" xml:space="preserve" width="0.536283in" height="0.564193in" version="1.1" style="shape-rendering:geometricPrecision; text-rendering:geometricPrecision; image-rendering:optimizeQuality; fill-rule:evenodd; clip-rule:evenodd"
viewBox="0 0 32 34"
 xmlns:xlink="http://www.w3.org/1999/xlink">
 <defs>
  <style type="text/css">
   <![CDATA[
    .fil1 {fill:#74CBF2}
    .fil0 {fill:#777876}
   ]]>
  </style>
 </defs>
 <g id="Layer_x0020_1">
  <metadata id="CorelCorpID_0Corel-Layer"/>
  <path class="fil0" d="M29 13c0,-4 -3,-8 -6,-11 -2,-1 -5,-2 -7,-2 -6,-1 -13,2 -15,8 -2,6 0,11 3,15 2,1 2,4 2,6l0 4c0,0 0,1 1,1l14 0c0,0 1,-1 1,-1 0,-1 0,-2 0,-2 0,-3 5,0 7,-2 0,0 0,-2 0,-2 -3,1 -2,-4 0,-2 1,1 1,-2 1,-2 0,0 3,-1 2,-2 -3,-3 -3,-4 -3,-4 0,-1 0,-3 0,-4l0 0z"/>
  <path class="fil1" d="M24 7c0,-1 -1,-1 -1,-1 0,0 0,-1 0,-1 -1,-1 -4,-2 -5,-2 -1,0 -2,0 -2,0 -2,0 -3,0 -4,0 -2,0 -4,1 -4,2 -2,0 -3,2 -3,3 -1,1 -2,3 -2,4 -1,2 0,5 2,5 1,0 0,5 5,3l0 0c0,1 1,1 1,1 2,3 5,-6 4,-4 1,1 2,0 4,-1 1,0 2,-1 2,-2 1,0 2,-1 3,-1 0,-1 0,-1 0,-1 2,-1 1,-4 0,-5l0 0z"/>
 </g>
</svg>
