<?xml version="1.0" encoding="UTF-8"?>
<!DOCTYPE svg PUBLIC "-//W3C//DTD SVG 1.1//EN" "http://www.w3.org/Graphics/SVG/1.1/DTD/svg11.dtd">
<!-- Creator: CorelDRAW X8 -->
<svg xmlns="http://www.w3.org/2000/svg" xml:space="preserve" width="1.52156in" height="2.39673in" version="1.1" style="shape-rendering:geometricPrecision; text-rendering:geometricPrecision; image-rendering:optimizeQuality; fill-rule:evenodd; clip-rule:evenodd"
viewBox="0 0 175 276"
 xmlns:xlink="http://www.w3.org/1999/xlink">
 <defs>
  <style type="text/css">
   <![CDATA[
    .fil1 {fill:#41A8C3;fill-rule:nonzero}
    .fil2 {fill:#463842;fill-rule:nonzero}
    .fil0 {fill:#D3D1D1;fill-rule:nonzero}
    .fil3 {fill:#E40103;fill-rule:nonzero}
   ]]>
  </style>
 </defs>
 <g id="Objects">
  <metadata id="CorelCorpID_0Corel-Layer"/>
  <path class="fil0" d="M85 194c0,-9 7,-16 15,-16 9,0 16,7 16,16 0,8 -7,15 -16,15 -8,0 -15,-7 -15,-15zm-12 82l0 0c18,0 30,-11 30,-27l0 -38c9,-1 15,-8 15,-17 0,-10 -8,-19 -18,-19 -10,0 -18,9 -18,19 0,9 7,16 16,17l0 38c0,13 -10,22 -25,22 -12,0 -21,-10 -21,-22l0 -69c4,0 22,-1 28,-17 8,-20 14,-36 15,-59 2,-20 -2,-24 -9,-32 -1,-1 -2,-2 -2,-3 0,0 0,-1 0,-3 0,-5 -4,-9 -10,-9 -5,0 -10,4 -10,9 0,6 5,10 10,10 4,0 7,-1 8,-4 1,1 1,1 2,2 7,7 10,11 9,29 -1,6 -1,12 -2,17 -1,2 -1,3 -2,5 -8,20 -25,23 -41,23 -16,0 -36,-3 -43,-29 -1,-5 -2,-10 -2,-16 -2,-18 2,-22 9,-29 0,-1 1,-1 1,-2 2,3 5,4 9,4 5,0 10,-4 10,-10 0,-5 -5,-9 -10,-9 -6,0 -10,4 -10,9 0,2 0,3 0,3 -1,1 -1,2 -2,3 -7,8 -11,12 -10,32 2,23 8,39 16,59 6,16 24,17 28,17 0,0 0,0 0,0l3 0 0 69c0,15 11,27 26,27zm-25 -126l0 0 0 0c0,0 0,0 0,0 0,0 0,0 0,0l0 0c13,0 28,-3 37,-15 -2,5 -5,10 -9,17 -4,6 -8,9 -9,10 -2,1 -3,2 -5,2l-14 0 0 0 -14 0c-2,0 -3,-1 -5,-2 -2,-1 -6,-4 -9,-10 -5,-7 -7,-12 -10,-18 10,13 25,16 38,16z"/>
  <path class="fil0" d="M112 194c0,-7 -5,-12 -12,-12 -6,0 -12,5 -12,12 0,6 6,11 12,11 7,0 12,-5 12,-11z"/>
  <path class="fil0" d="M86 192c0,-8 7,-15 15,-15 9,0 16,7 16,15 0,9 -7,16 -16,16 -8,0 -15,-7 -15,-16zm-12 83l0 0c18,0 30,-11 30,-28l0 -37c9,-1 16,-8 16,-18 0,-10 -9,-18 -19,-18 -10,0 -18,8 -18,18 0,10 7,17 16,18l0 37c0,14 -9,23 -25,23 -12,0 -21,-10 -21,-22l0 -69c4,0 22,-1 28,-17 8,-20 14,-37 16,-60 1,-19 -3,-23 -10,-31 -1,-1 -1,-2 -2,-3 0,-1 0,-2 0,-3 0,-5 -4,-10 -10,-10 -5,0 -10,5 -10,10 0,6 5,10 10,10 4,0 7,-2 9,-4 0,0 1,1 1,1 7,8 11,12 9,30 0,6 -1,11 -2,17 -1,1 -1,3 -2,5 -8,20 -25,23 -41,23 -16,0 -36,-4 -43,-29 -1,-5 -2,-10 -2,-16 -2,-18 2,-22 9,-30 0,0 1,-1 2,-1 1,2 4,4 8,4 5,0 10,-4 10,-10 0,-5 -5,-10 -10,-10 -6,0 -10,5 -10,10 0,1 0,2 0,3 0,1 -1,2 -2,3 -7,8 -11,12 -10,31 2,23 8,40 16,60 7,16 24,17 28,17 0,0 0,0 0,0l3 0 0 69c0,15 11,27 26,27zm-25 -126l0 0 0 0c0,0 0,0 0,0 0,0 1,0 1,0l0 0c12,-1 27,-3 37,-16 -3,6 -6,11 -10,18 -3,6 -7,9 -9,10 -2,1 -3,2 -5,2l-14 0 0 0 -14 0c-2,0 -3,-1 -5,-2 -2,-1 -6,-4 -9,-10 -4,-7 -7,-12 -10,-18 10,13 25,15 38,16z"/>
  <path class="fil0" d="M113 192c0,-6 -5,-12 -12,-12 -6,0 -11,6 -11,12 0,7 5,12 11,12 7,0 12,-5 12,-12z"/>
  <path class="fil0" d="M87 191c0,-8 7,-15 16,-15 8,0 15,7 15,15 0,9 -7,16 -15,16 -9,0 -16,-7 -16,-16zm-12 82l0 0c18,0 30,-10 30,-27l0 -37c9,-1 16,-9 16,-18 0,-10 -8,-18 -18,-18 -10,0 -19,8 -19,18 0,9 7,17 16,18l0 37c0,14 -9,22 -25,22 -12,0 -20,-9 -20,-21l0 -69c3,0 21,-1 27,-17 8,-20 14,-37 16,-60 1,-19 -3,-24 -10,-31 -1,-1 -1,-2 -2,-3 0,-1 0,-2 0,-3 0,-5 -4,-10 -10,-10 -5,0 -9,5 -9,10 0,6 4,10 9,10 4,0 7,-2 9,-4 0,0 1,1 1,1 7,8 11,12 9,30 0,6 -1,11 -2,16 -1,2 -1,4 -2,6 -8,20 -25,23 -41,23 -15,0 -36,-4 -43,-30 -1,-4 -1,-10 -2,-15 -1,-18 2,-22 9,-30 1,0 1,-1 2,-1 1,2 4,4 8,4 5,0 10,-4 10,-10 0,-5 -5,-10 -10,-10 -6,0 -10,5 -10,10 0,1 0,2 0,3 0,1 -1,2 -2,3 -7,7 -11,12 -9,31 2,23 7,40 15,60 7,16 25,17 28,17 0,0 0,0 0,0l3 0 0 69c0,15 11,26 26,26zm-25 -126l0 0 0 0c0,0 0,0 0,0 1,0 1,0 1,0l0 0c12,0 27,-2 37,-15 -3,6 -5,11 -10,18 -3,6 -7,9 -9,10 -1,1 -3,1 -5,1l-13 0 -1 0 -14 0c-2,0 -3,0 -4,-1 -2,-1 -6,-4 -10,-10 -4,-7 -7,-12 -10,-18 10,13 26,15 38,15z"/>
  <path class="fil0" d="M115 191c0,-6 -6,-12 -12,-12 -7,0 -12,6 -12,12 0,7 5,12 12,12 6,0 12,-5 12,-12z"/>
  <path class="fil0" d="M88 190c0,-8 7,-15 16,-15 8,0 15,7 15,15 0,9 -7,16 -15,16 -9,0 -16,-7 -16,-16zm-12 82l0 0c18,0 30,-10 30,-27l0 -37c9,-1 16,-9 16,-18 0,-10 -8,-18 -18,-18 -10,0 -18,8 -18,18 0,9 6,17 15,18l0 37c0,14 -9,22 -25,22 -12,0 -20,-9 -20,-22l0 -69c3,0 21,-1 27,-16 9,-20 14,-37 16,-60 1,-19 -3,-24 -10,-32 0,0 -1,-1 -2,-2 0,-1 0,-2 0,-3 0,-5 -4,-10 -9,-10 -6,0 -10,5 -10,10 0,6 4,10 10,10 3,0 6,-2 8,-4 0,0 1,1 1,1 7,8 11,12 9,30 0,6 -1,11 -2,16 0,2 -1,4 -2,6 -8,20 -25,23 -40,23 -16,0 -37,-4 -44,-30 -1,-5 -1,-10 -2,-15 -1,-18 2,-22 9,-30 1,0 1,-1 2,-1 2,2 5,4 8,4 6,0 10,-4 10,-10 0,-5 -4,-10 -10,-10 -5,0 -10,5 -10,10 0,1 0,2 1,3 -1,1 -2,2 -3,2 -7,8 -11,13 -9,32 2,23 7,40 15,60 7,16 25,16 28,16 0,0 1,0 1,0l3 0 0 69c0,16 10,27 25,27zm-25 -126l0 0 0 0c0,0 0,0 1,0 0,0 0,0 0,0l0 0c12,0 27,-2 37,-15 -3,6 -5,11 -9,18 -4,6 -8,8 -10,10 -1,1 -3,1 -4,1l-14 0 -1 0 -14 0c-2,0 -3,0 -4,-1 -2,-2 -6,-4 -10,-10 -4,-7 -7,-12 -9,-18 9,13 25,15 37,15z"/>
  <path class="fil0" d="M116 190c0,-6 -6,-12 -12,-12 -7,0 -12,6 -12,12 0,7 5,12 12,12 6,0 12,-5 12,-12z"/>
  <path class="fil0" d="M89 189c0,-9 7,-16 16,-16 8,0 15,7 15,16 0,9 -7,16 -15,16 -9,0 -16,-7 -16,-16zm-12 82l0 0c19,0 30,-10 30,-27l0 -37c9,-1 16,-9 16,-18 0,-10 -8,-18 -18,-18 -10,0 -18,8 -18,18 0,9 7,17 15,18l0 37c0,14 -9,22 -25,22 -12,0 -20,-9 -20,-22l0 -69c3,0 21,-1 28,-16 8,-20 13,-37 15,-60 2,-19 -2,-24 -10,-32 0,0 -1,-1 -2,-2 0,-1 1,-2 1,-3 0,-6 -5,-10 -10,-10 -6,0 -10,4 -10,10 0,5 4,10 10,10 3,0 6,-2 8,-5 1,1 1,2 1,2 7,8 11,11 9,30 0,6 -1,11 -2,16 0,2 -1,4 -1,6 -9,19 -26,23 -41,23 -16,0 -37,-4 -44,-30 0,-5 -1,-10 -2,-15 -1,-19 2,-22 9,-30 1,0 1,-1 2,-2 2,3 5,5 8,5 6,0 10,-5 10,-10 0,-6 -4,-10 -10,-10 -5,0 -10,4 -10,10 0,1 0,2 1,3 -1,1 -2,2 -2,2 -8,8 -12,13 -10,32 2,23 7,40 15,60 7,15 25,16 28,16 1,0 1,0 1,0l3 0 0 69c0,16 11,27 25,27zm-25 -126l0 0 0 0c1,0 1,0 1,0 0,0 0,0 0,0l0 0c12,0 27,-2 37,-15 -2,6 -5,11 -9,18 -4,6 -8,8 -10,10 -1,1 -3,1 -4,1l-14 0 -1 0 -14 0c-1,0 -3,0 -4,-1 -2,-2 -6,-4 -10,-10 -4,-7 -7,-12 -9,-19 9,14 25,16 37,16z"/>
  <path class="fil0" d="M117 189c0,-7 -6,-12 -12,-12 -7,0 -12,5 -12,12 0,7 5,12 12,12 6,0 12,-5 12,-12z"/>
  <path class="fil0" d="M90 188c0,-9 7,-16 16,-16 9,0 16,7 16,16 0,8 -7,15 -16,15 -9,0 -16,-7 -16,-15zm-11 82l0 0c18,0 30,-11 30,-27l0 -37c8,-1 15,-9 15,-18 0,-10 -8,-18 -18,-18 -10,0 -18,8 -18,18 0,9 7,17 15,18l0 37c0,14 -9,22 -24,22 -12,0 -21,-9 -21,-22l0 -69c4,0 21,-1 28,-16 8,-20 13,-37 15,-60 2,-20 -2,-24 -10,-32 0,-1 -1,-1 -2,-2 1,-1 1,-2 1,-3 0,-6 -5,-10 -10,-10 -6,0 -10,4 -10,10 0,5 4,10 10,10 3,0 6,-2 8,-5 1,1 1,1 2,2 7,8 10,11 9,30 -1,5 -2,11 -3,16 0,2 -1,4 -1,5 -8,20 -26,23 -41,23 -16,0 -36,-3 -44,-29 0,-5 -1,-10 -1,-15 -2,-19 2,-22 9,-30 0,-1 1,-1 1,-2 2,3 5,5 8,5 6,0 10,-5 10,-10 0,-6 -4,-10 -10,-10 -5,0 -10,4 -10,10 0,1 1,2 1,3 -1,1 -2,1 -2,2 -8,8 -12,12 -10,32 2,23 7,40 16,60 6,15 24,16 27,16 1,0 1,0 1,0l3 0 0 69c0,16 11,27 26,27zm-25 -126l0 0 0 0c0,0 0,0 0,0 0,0 0,0 0,0l0 0c12,0 28,-2 37,-15 -2,6 -5,11 -9,18 -4,6 -8,8 -10,10 -1,1 -3,1 -4,1l-14 0 0 0 -15 0c-1,0 -3,0 -4,-1 -2,-2 -6,-4 -10,-10 -4,-7 -7,-13 -9,-19 10,14 25,16 38,16z"/>
  <path class="fil0" d="M118 188c0,-7 -5,-12 -12,-12 -7,0 -12,5 -12,12 0,6 5,12 12,12 7,0 12,-6 12,-12z"/>
  <path class="fil0" d="M92 187c0,-9 7,-16 15,-16 9,0 16,7 16,16 0,8 -7,15 -16,15 -8,0 -15,-7 -15,-15zm-12 82l0 0c18,0 30,-11 30,-27l0 -37c8,-2 15,-9 15,-18 0,-10 -8,-18 -18,-18 -10,0 -18,8 -18,18 0,9 7,16 16,18l0 37c0,14 -10,22 -25,22 -12,0 -21,-9 -21,-22l0 -69c4,0 21,-1 28,-17 8,-19 13,-36 15,-59 2,-20 -2,-24 -9,-32 -1,-1 -2,-1 -3,-2 1,-1 1,-2 1,-3 0,-6 -5,-10 -10,-10 -6,0 -10,4 -10,10 0,5 4,10 10,10 3,0 6,-2 8,-5 1,1 1,1 2,2 7,7 10,11 9,30 -1,5 -1,11 -2,16 -1,2 -2,4 -2,5 -8,20 -26,23 -41,23 -16,0 -36,-3 -43,-29 -1,-5 -2,-10 -2,-15 -2,-19 2,-23 9,-30 0,-1 1,-1 1,-2 2,3 5,5 8,5 6,0 10,-5 10,-10 0,-6 -4,-10 -10,-10 -5,0 -9,4 -9,10 0,1 0,2 0,3 -1,1 -2,1 -2,2 -7,8 -11,12 -10,32 2,23 7,40 16,59 6,16 24,17 27,17 1,0 1,0 1,0l3 0 0 69c0,16 11,27 26,27zm-25 -126l0 0 0 0c0,0 0,0 0,0 0,0 0,0 0,0l0 0c13,0 28,-2 37,-15 -2,6 -5,11 -9,18 -4,6 -8,8 -10,9 -1,1 -2,2 -4,2l-14 0 0 0 -15 0c-1,0 -3,-1 -4,-2 -2,-1 -6,-3 -9,-9 -5,-8 -8,-13 -10,-19 10,14 25,16 38,16z"/>
  <path class="fil0" d="M119 187c0,-7 -5,-12 -12,-12 -6,0 -12,5 -12,12 0,6 6,12 12,12 7,0 12,-6 12,-12z"/>
  <path class="fil0" d="M93 186c0,-9 7,-16 15,-16 9,0 16,7 16,16 0,8 -7,15 -16,15 -8,0 -15,-7 -15,-15zm-12 82l0 0c18,0 30,-11 30,-27l0 -37c9,-2 15,-9 15,-18 0,-10 -8,-19 -18,-19 -10,0 -18,9 -18,19 0,9 7,16 16,18l0 37c0,13 -10,22 -25,22 -12,0 -21,-9 -21,-22l0 -69c4,0 21,-1 28,-17 8,-19 13,-36 15,-59 2,-20 -2,-24 -9,-32 -1,-1 -2,-2 -2,-2 0,-1 0,-2 0,-3 0,-6 -4,-10 -10,-10 -5,0 -10,4 -10,10 0,5 5,9 10,9 4,0 7,-1 8,-4 1,1 1,1 2,2 7,7 10,11 9,29 -1,6 -1,12 -2,17 -1,2 -1,3 -2,5 -8,20 -25,23 -41,23 -16,0 -36,-3 -43,-29 -1,-5 -2,-10 -2,-16 -2,-18 2,-22 9,-29 0,-1 1,-1 1,-2 2,3 5,4 9,4 5,0 9,-4 9,-9 0,-6 -4,-10 -9,-10 -6,0 -10,4 -10,10 0,1 0,2 0,3 -1,0 -1,1 -2,2 -7,8 -11,12 -10,32 2,23 8,40 16,59 6,16 24,17 28,17 0,0 0,0 0,0l3 0 0 69c0,16 11,27 26,27zm-25 -126l0 0 0 0c0,0 0,0 0,0 0,0 0,0 0,0l0 0c13,0 28,-2 37,-15 -2,5 -5,11 -9,18 -4,5 -8,8 -10,9 -1,1 -2,2 -4,2l-14 0 0 0 -14 0c-2,0 -4,-1 -5,-2 -2,-1 -6,-4 -9,-9 -5,-8 -7,-13 -10,-19 10,13 25,16 38,16z"/>
  <path class="fil0" d="M120 186c0,-7 -5,-12 -12,-12 -6,0 -12,5 -12,12 0,6 6,12 12,12 7,0 12,-6 12,-12z"/>
  <path class="fil0" d="M94 184c0,-8 7,-15 15,-15 9,0 16,7 16,15 0,9 -7,16 -16,16 -8,0 -15,-7 -15,-16zm-12 83l0 0c18,0 30,-11 30,-28l0 -37c9,-1 16,-8 16,-18 0,-10 -9,-18 -19,-18 -10,0 -18,8 -18,18 0,10 7,17 16,18l0 37c0,14 -9,23 -25,23 -12,0 -21,-10 -21,-22l0 -69c4,0 22,-1 28,-17 8,-20 14,-36 16,-60 1,-19 -3,-23 -10,-31 -1,-1 -2,-2 -2,-3 0,-1 0,-2 0,-3 0,-5 -4,-9 -10,-9 -5,0 -10,4 -10,9 0,6 5,10 10,10 4,0 7,-1 9,-4 0,0 1,1 1,2 7,7 11,11 9,29 0,6 -1,12 -2,17 -1,2 -1,3 -2,5 -8,20 -25,23 -41,23 -16,0 -36,-3 -43,-29 -1,-5 -2,-10 -2,-16 -2,-18 2,-22 9,-29 0,-1 1,-2 1,-2 2,3 5,4 9,4 5,0 10,-4 10,-10 0,-5 -5,-9 -10,-9 -6,0 -10,4 -10,9 0,1 0,2 0,3 -1,1 -1,2 -2,3 -7,8 -11,12 -10,31 2,24 8,40 16,60 6,16 24,17 28,17 0,0 0,0 0,0l3 0 0 69c0,15 11,27 26,27zm-25 -126l0 0 0 0c0,0 0,0 0,0 0,0 0,0 1,0l0 0c12,0 27,-3 37,-16 -3,6 -6,11 -10,18 -3,6 -7,9 -9,10 -2,1 -3,2 -5,2l-14 0 0 0 -14 0c-2,0 -3,-1 -5,-2 -2,-1 -6,-4 -9,-10 -5,-7 -7,-12 -10,-18 10,13 25,16 38,16z"/>
  <path class="fil0" d="M121 184c0,-6 -5,-11 -12,-11 -6,0 -12,5 -12,11 0,7 6,12 12,12 7,0 12,-5 12,-12z"/>
  <path class="fil0" d="M95 183c0,-8 7,-15 16,-15 8,0 15,7 15,15 0,9 -7,16 -15,16 -9,0 -16,-7 -16,-16zm-12 83l0 0c18,0 30,-11 30,-28l0 -37c9,-1 16,-9 16,-18 0,-10 -8,-18 -18,-18 -10,0 -19,8 -19,18 0,9 7,17 16,18l0 37c0,14 -9,22 -25,22 -12,0 -21,-9 -21,-21l0 -69c4,0 22,-1 28,-17 8,-20 14,-37 16,-60 1,-19 -3,-23 -10,-31 -1,-1 -1,-2 -2,-3 0,-1 0,-2 0,-3 0,-5 -4,-10 -10,-10 -5,0 -10,5 -10,10 0,6 5,10 10,10 4,0 7,-2 9,-4 0,0 1,1 1,1 7,8 11,12 9,30 0,6 -1,11 -2,17 -1,1 -1,3 -2,5 -8,20 -25,23 -41,23 -15,0 -36,-4 -43,-29 -1,-5 -1,-10 -2,-16 -1,-18 2,-22 9,-30 1,0 1,-1 2,-1 1,2 4,4 8,4 5,0 10,-4 10,-10 0,-5 -5,-10 -10,-10 -6,0 -10,5 -10,10 0,1 0,2 0,3 0,1 -1,2 -2,3 -7,8 -11,12 -9,31 1,23 7,40 15,60 7,16 24,17 28,17 0,0 0,0 0,0l3 0 0 69c0,15 11,27 26,27zm-25 -127l0 0 0 0c0,0 0,0 0,0 0,0 1,0 1,0l0 0c12,0 27,-2 37,-15 -3,6 -5,11 -10,18 -3,6 -7,9 -9,10 -2,1 -3,2 -5,2l-14 0 0 0 -14 0c-2,0 -3,-1 -5,-2 -1,-1 -5,-4 -9,-10 -4,-7 -7,-12 -10,-18 10,13 25,15 38,15z"/>
  <path class="fil0" d="M122 183c0,-6 -5,-12 -11,-12 -7,0 -12,6 -12,12 0,7 5,12 12,12 6,0 11,-5 11,-12z"/>
  <path class="fil0" d="M96 182c0,-8 7,-15 16,-15 8,0 15,7 15,15 0,9 -7,16 -15,16 -9,0 -16,-7 -16,-16zm-12 82l0 0c18,0 30,-10 30,-27l0 -37c9,-1 16,-9 16,-18 0,-10 -8,-18 -18,-18 -10,0 -18,8 -18,18 0,9 6,17 15,18l0 37c0,14 -9,22 -25,22 -12,0 -20,-9 -20,-21l0 -70c3,0 21,0 27,-16 8,-20 14,-37 16,-60 1,-19 -3,-24 -10,-31 -1,-1 -1,-2 -2,-3 0,-1 0,-2 0,-3 0,-5 -4,-10 -10,-10 -5,0 -9,5 -9,10 0,6 4,10 9,10 4,0 7,-2 9,-4 0,0 1,1 1,1 7,8 11,12 9,30 0,6 -1,11 -2,16 0,2 -1,4 -2,6 -8,20 -25,23 -40,23 -16,0 -37,-4 -44,-30 -1,-4 -1,-10 -2,-15 -1,-18 2,-22 9,-30 1,0 1,-1 2,-1 1,2 5,4 8,4 5,0 10,-4 10,-10 0,-5 -5,-10 -10,-10 -6,0 -10,5 -10,10 0,1 0,2 1,3 -1,1 -2,2 -3,3 -7,7 -11,12 -9,31 2,23 7,40 15,60 7,16 25,16 28,16 0,0 1,0 1,0l2 0 0 70c0,15 11,26 26,26zm-25 -126l0 0 0 0c0,0 0,0 1,0 0,0 0,0 0,0l0 0c12,0 27,-2 37,-15 -3,6 -5,11 -10,18 -3,6 -7,8 -9,10 -1,1 -3,1 -5,1l-13 0 -1 0 -14 0c-2,0 -3,0 -4,-1 -2,-2 -6,-4 -10,-10 -4,-7 -7,-12 -10,-18 10,13 26,15 38,15z"/>
  <path class="fil0" d="M124 182c0,-6 -6,-12 -12,-12 -7,0 -12,6 -12,12 0,7 5,12 12,12 6,0 12,-5 12,-12z"/>
  <path class="fil0" d="M97 181c0,-9 7,-16 16,-16 8,0 15,7 15,16 0,9 -7,16 -15,16 -9,0 -16,-7 -16,-16zm-12 82l0 0c19,0 30,-10 30,-27l0 -37c9,-1 16,-9 16,-18 0,-10 -8,-18 -18,-18 -10,0 -18,8 -18,18 0,9 6,17 15,18l0 37c0,14 -9,22 -25,22 -12,0 -20,-9 -20,-22l0 -69c3,0 21,-1 27,-16 9,-20 14,-37 16,-60 2,-19 -2,-24 -10,-32 0,0 -1,-1 -2,-2 0,-1 1,-2 1,-3 0,-5 -5,-10 -10,-10 -6,0 -10,5 -10,10 0,6 4,10 10,10 3,0 6,-2 8,-5 0,1 1,2 1,2 7,8 11,12 9,30 0,6 -1,11 -2,16 0,2 -1,4 -2,6 -8,19 -25,23 -40,23 -16,0 -37,-4 -44,-30 -1,-5 -1,-10 -2,-15 -1,-18 2,-22 9,-30 1,0 1,-1 2,-2 2,3 5,5 8,5 6,0 10,-4 10,-10 0,-5 -4,-10 -10,-10 -5,0 -10,5 -10,10 0,1 0,2 1,3 -1,1 -2,2 -3,2 -7,8 -11,13 -9,32 2,23 7,40 15,60 7,16 25,16 28,16 0,0 1,0 1,0l3 0 0 69c0,16 10,27 25,27zm-25 -126l0 0 0 0c0,0 1,0 1,0 0,0 0,0 0,0l0 0c12,0 27,-2 37,-15 -3,6 -5,11 -9,18 -4,6 -8,8 -10,10 -1,1 -3,1 -4,1l-14 0 -1 0 -14 0c-1,0 -3,0 -4,-1 -2,-2 -6,-4 -10,-10 -4,-7 -7,-12 -9,-18 9,13 25,15 37,15z"/>
  <path class="fil0" d="M125 181c0,-7 -6,-12 -12,-12 -7,0 -12,5 -12,12 0,7 5,12 12,12 6,0 12,-5 12,-12z"/>
  <path class="fil0" d="M98 180c0,-9 7,-16 16,-16 9,0 16,7 16,16 0,9 -7,16 -16,16 -9,0 -16,-7 -16,-16zm-12 82l0 0c19,0 30,-11 30,-27l0 -37c9,-1 16,-9 16,-18 0,-10 -8,-18 -18,-18 -10,0 -18,8 -18,18 0,9 7,17 15,18l0 37c0,14 -9,22 -25,22 -12,0 -20,-9 -20,-22l0 -69c4,0 21,-1 28,-16 8,-20 13,-37 15,-60 2,-20 -2,-24 -10,-32 0,0 -1,-1 -2,-2 1,-1 1,-2 1,-3 0,-6 -5,-10 -10,-10 -6,0 -10,4 -10,10 0,5 4,10 10,10 3,0 6,-2 8,-5 1,1 1,1 2,2 7,8 10,11 9,30 -1,6 -2,11 -3,16 0,2 -1,4 -1,5 -8,20 -26,24 -41,24 -16,0 -37,-4 -44,-30 0,-5 -1,-10 -2,-15 -1,-19 2,-22 9,-30 1,-1 1,-1 2,-2 2,3 5,5 8,5 6,0 10,-5 10,-10 0,-6 -4,-10 -10,-10 -5,0 -10,4 -10,10 0,1 0,2 1,3 -1,1 -2,2 -2,2 -8,8 -12,12 -10,32 2,23 7,40 15,60 7,15 25,16 28,16 1,0 1,0 1,0l3 0 0 69c0,16 11,27 25,27zm-25 -126l0 0 0 0c1,0 1,0 1,0 0,0 0,0 0,0l0 0c12,0 27,-2 37,-15 -2,6 -5,11 -9,18 -4,6 -8,8 -10,10 -1,1 -3,1 -4,1l-14 0 -1 0 -14 0c-1,0 -3,0 -4,-1 -2,-2 -6,-4 -10,-10 -4,-7 -7,-12 -9,-19 9,14 25,16 37,16z"/>
  <path class="fil0" d="M126 180c0,-7 -6,-12 -12,-12 -7,0 -12,5 -12,12 0,7 5,12 12,12 6,0 12,-5 12,-12z"/>
  <path class="fil0" d="M99 179c0,-9 7,-16 16,-16 9,0 16,7 16,16 0,8 -7,15 -16,15 -9,0 -16,-7 -16,-15zm-11 82l0 0c18,0 30,-11 30,-27l0 -37c8,-1 15,-9 15,-18 0,-10 -8,-18 -18,-18 -10,0 -18,8 -18,18 0,9 7,17 16,18l0 37c0,14 -10,22 -25,22 -12,0 -21,-9 -21,-22l0 -69c4,0 21,-1 28,-17 8,-19 13,-36 15,-59 2,-20 -2,-24 -9,-32 -1,-1 -2,-1 -3,-2 1,-1 1,-2 1,-3 0,-6 -5,-10 -10,-10 -6,0 -10,4 -10,10 0,5 4,10 10,10 3,0 6,-2 8,-5 1,1 1,1 2,2 7,7 10,11 9,30 -1,5 -2,11 -2,16 -1,2 -2,4 -2,5 -8,20 -26,23 -41,23 -16,0 -36,-3 -43,-29 -1,-5 -2,-10 -2,-15 -2,-19 2,-23 9,-30 0,-1 1,-1 1,-2 2,3 5,5 8,5 6,0 10,-5 10,-10 0,-6 -4,-10 -10,-10 -5,0 -10,4 -10,10 0,1 1,2 1,3 -1,1 -2,1 -2,2 -8,8 -12,12 -10,32 2,23 7,40 16,59 6,16 24,17 27,17 1,0 1,0 1,0l3 0 0 69c0,16 11,27 26,27zm-25 -126l0 0 0 0c0,0 0,0 0,0 0,0 0,0 0,0l0 0c13,0 28,-2 37,-15 -2,6 -5,11 -9,18 -4,6 -8,8 -10,10 -1,0 -3,1 -4,1l-14 0 0 0 -15 0c-1,0 -3,-1 -4,-1 -2,-2 -6,-4 -10,-10 -4,-7 -7,-13 -9,-19 10,14 25,16 38,16z"/>
  <path class="fil0" d="M127 179c0,-7 -5,-12 -12,-12 -7,0 -12,5 -12,12 0,6 5,12 12,12 7,0 12,-6 12,-12z"/>
  <path class="fil0" d="M101 178c0,-9 7,-16 15,-16 9,0 16,7 16,16 0,8 -7,15 -16,15 -8,0 -15,-7 -15,-15zm-12 82l0 0c18,0 30,-11 30,-27l0 -37c9,-2 15,-9 15,-18 0,-10 -8,-18 -18,-18 -10,0 -18,8 -18,18 0,9 7,16 16,18l0 37c0,14 -10,22 -25,22 -12,0 -21,-9 -21,-22l0 -69c4,0 21,-1 28,-17 8,-19 13,-36 15,-59 2,-20 -2,-24 -9,-32 -1,-1 -2,-2 -3,-2 1,-1 1,-2 1,-3 0,-6 -5,-10 -10,-10 -5,0 -10,4 -10,10 0,5 5,10 10,10 3,0 7,-2 8,-5 1,1 1,1 2,2 7,7 10,11 9,29 -1,6 -1,12 -2,17 -1,2 -2,4 -2,5 -8,20 -26,23 -41,23 -16,0 -36,-3 -43,-29 -1,-5 -2,-10 -2,-16 -2,-18 2,-22 9,-29 0,-1 1,-1 1,-2 2,3 5,5 8,5 6,0 10,-5 10,-10 0,-6 -4,-10 -10,-10 -5,0 -9,4 -9,10 0,1 0,2 0,3 -1,0 -1,1 -2,2 -7,8 -11,12 -10,32 2,23 8,40 16,59 6,16 24,17 28,17 0,0 0,0 0,0l3 0 0 69c0,16 11,27 26,27zm-25 -126l0 0 0 0c0,0 0,0 0,0 0,0 0,0 0,0l0 0c13,0 28,-2 37,-15 -2,6 -5,11 -9,18 -4,6 -8,8 -10,9 -1,1 -2,2 -4,2l-14 0 0 0 -14 0c-2,0 -4,-1 -5,-2 -2,-1 -6,-3 -9,-9 -5,-8 -8,-13 -10,-19 10,14 25,16 38,16z"/>
  <path class="fil0" d="M128 178c0,-7 -5,-12 -12,-12 -6,0 -12,5 -12,12 0,6 6,12 12,12 7,0 12,-6 12,-12z"/>
  <path class="fil0" d="M102 177c0,-9 7,-16 15,-16 9,0 16,7 16,16 0,8 -7,15 -16,15 -8,0 -15,-7 -15,-15zm-12 82l0 0c18,0 30,-11 30,-27l0 -38c9,-1 15,-8 15,-17 0,-10 -8,-19 -18,-19 -10,0 -18,9 -18,19 0,9 7,16 16,17l0 38c0,13 -10,22 -25,22 -12,0 -21,-9 -21,-22l0 -69c4,0 21,-1 28,-17 8,-20 14,-36 15,-59 2,-20 -2,-24 -9,-32 -1,-1 -2,-2 -2,-3 0,0 0,-1 0,-2 0,-6 -4,-10 -10,-10 -5,0 -10,4 -10,10 0,5 5,9 10,9 4,0 7,-1 8,-4 1,1 1,1 2,2 7,7 10,11 9,29 -1,6 -1,12 -2,17 -1,2 -1,3 -2,5 -8,20 -25,23 -41,23 -16,0 -36,-3 -43,-29 -1,-5 -2,-10 -2,-16 -2,-18 2,-22 9,-29 0,-1 1,-1 1,-2 2,3 5,4 9,4 5,0 10,-4 10,-9 0,-6 -5,-10 -10,-10 -6,0 -10,4 -10,10 0,1 0,2 0,2 -1,1 -1,2 -2,3 -7,8 -11,12 -10,32 2,23 8,39 16,59 6,16 24,17 28,17 0,0 0,0 0,0l3 0 0 69c0,15 11,27 26,27zm-25 -126l0 0 0 0c0,0 0,0 0,0 0,0 0,0 0,0l0 0c13,0 28,-3 37,-15 -2,5 -5,10 -9,17 -4,6 -8,9 -9,10 -2,1 -3,2 -5,2l-14 0 0 0 -14 0c-2,0 -3,-1 -5,-2 -2,-1 -6,-4 -9,-10 -5,-7 -7,-12 -10,-18 10,13 25,16 38,16z"/>
  <path class="fil0" d="M129 177c0,-7 -5,-12 -12,-12 -6,0 -12,5 -12,12 0,6 6,11 12,11 7,0 12,-5 12,-11z"/>
  <path class="fil0" d="M103 175c0,-8 7,-15 15,-15 9,0 16,7 16,15 0,9 -7,16 -16,16 -8,0 -15,-7 -15,-16zm-12 83l0 0c18,0 30,-11 30,-28l0 -37c9,-1 16,-8 16,-18 0,-10 -9,-18 -19,-18 -10,0 -18,8 -18,18 0,10 7,17 16,18l0 37c0,14 -9,23 -25,23 -12,0 -21,-10 -21,-22l0 -69c4,0 22,-1 28,-17 8,-20 14,-37 16,-60 1,-19 -3,-23 -10,-31 -1,-1 -1,-2 -2,-3 0,-1 0,-2 0,-3 0,-5 -4,-10 -10,-10 -5,0 -10,5 -10,10 0,6 5,10 10,10 4,0 7,-1 9,-4 0,0 1,1 1,1 7,8 11,12 9,30 0,6 -1,11 -2,17 -1,2 -1,3 -2,5 -8,20 -25,23 -41,23 -16,0 -36,-4 -43,-29 -1,-5 -2,-10 -2,-16 -2,-18 2,-22 9,-30 0,0 1,-1 1,-1 2,3 5,4 9,4 5,0 10,-4 10,-10 0,-5 -5,-10 -10,-10 -6,0 -10,5 -10,10 0,1 0,2 0,3 0,1 -1,2 -2,3 -7,8 -11,12 -10,31 2,23 8,40 16,60 6,16 24,17 28,17 0,0 0,0 0,0l3 0 0 69c0,15 11,27 26,27zm-25 -126l0 0 0 0c0,0 0,0 0,0 0,0 0,0 1,0l0 0c12,0 27,-3 37,-16 -3,6 -6,11 -10,18 -3,6 -7,9 -9,10 -2,1 -3,2 -5,2l-14 0 0 0 -14 0c-2,0 -3,-1 -5,-2 -2,-1 -6,-4 -9,-10 -5,-7 -7,-12 -10,-18 10,13 25,16 38,16z"/>
  <path class="fil0" d="M130 175c0,-6 -5,-11 -12,-11 -6,0 -11,5 -11,11 0,7 5,12 11,12 7,0 12,-5 12,-12z"/>
  <path class="fil0" d="M104 174c0,-8 7,-15 16,-15 8,0 15,7 15,15 0,9 -7,16 -15,16 -9,0 -16,-7 -16,-16zm-12 83l0 0c18,0 30,-11 30,-28l0 -37c9,-1 16,-9 16,-18 0,-10 -8,-18 -18,-18 -10,0 -19,8 -19,18 0,9 7,17 16,18l0 37c0,14 -9,22 -25,22 -12,0 -21,-9 -21,-21l0 -69c4,0 22,-1 28,-17 8,-20 14,-37 16,-60 1,-19 -3,-23 -10,-31 -1,-1 -1,-2 -2,-3 0,-1 0,-2 0,-3 0,-5 -4,-10 -10,-10 -5,0 -9,5 -9,10 0,6 4,10 9,10 4,0 7,-2 9,-4 0,0 1,1 1,1 7,8 11,12 9,30 0,6 -1,11 -2,17 -1,1 -1,3 -2,5 -8,20 -25,23 -41,23 -15,0 -36,-4 -43,-30 -1,-4 -1,-9 -2,-15 -1,-18 2,-22 9,-30 1,0 1,-1 2,-1 1,2 4,4 8,4 5,0 10,-4 10,-10 0,-5 -5,-10 -10,-10 -6,0 -10,5 -10,10 0,1 0,2 0,3 0,1 -1,2 -2,3 -7,8 -11,12 -9,31 2,23 7,40 15,60 7,16 24,17 28,17 0,0 0,0 0,0l3 0 0 69c0,15 11,27 26,27zm-25 -127l0 0 0 0c0,0 0,0 0,0 1,0 1,0 1,0l0 0c12,0 27,-2 37,-15 -3,6 -5,11 -10,18 -3,6 -7,9 -9,10 -1,1 -3,1 -5,1l-13 0 -1 0 -14 0c-2,0 -3,0 -5,-1 -1,-1 -5,-4 -9,-10 -4,-7 -7,-12 -10,-18 10,13 26,15 38,15z"/>
  <path class="fil0" d="M131 174c0,-6 -5,-12 -11,-12 -7,0 -12,6 -12,12 0,7 5,12 12,12 6,0 11,-5 11,-12z"/>
  <path class="fil0" d="M105 173c0,-8 7,-15 16,-15 8,0 15,7 15,15 0,9 -7,16 -15,16 -9,0 -16,-7 -16,-16zm-12 82l0 0c18,0 30,-10 30,-27l0 -37c9,-1 16,-9 16,-18 0,-10 -8,-18 -18,-18 -10,0 -18,8 -18,18 0,9 6,17 15,18l0 37c0,14 -9,22 -25,22 -12,0 -20,-9 -20,-22l0 -69c3,0 21,-1 27,-16 8,-20 14,-37 16,-60 1,-19 -3,-24 -10,-32 -1,0 -1,-1 -2,-2 0,-1 0,-2 0,-3 0,-5 -4,-10 -9,-10 -6,0 -10,5 -10,10 0,6 4,10 10,10 3,0 6,-2 8,-4 0,0 1,1 1,1 7,8 11,12 9,30 0,6 -1,11 -2,16 0,2 -1,4 -2,6 -8,20 -25,23 -40,23 -16,0 -37,-4 -44,-30 -1,-5 -1,-10 -2,-15 -1,-18 2,-22 9,-30 1,0 1,-1 2,-1 2,2 5,4 8,4 6,0 10,-4 10,-10 0,-5 -4,-10 -10,-10 -5,0 -10,5 -10,10 0,1 0,2 1,3 -1,1 -2,2 -3,2 -7,8 -11,13 -9,32 2,23 7,40 15,60 7,16 25,16 28,16 0,0 1,0 1,0l3 0 0 69c0,16 10,27 25,27zm-25 -126l0 0 0 0c0,0 0,0 1,0 0,0 0,0 0,0l0 0c12,0 27,-2 37,-15 -3,6 -5,11 -10,18 -3,6 -7,8 -9,10 -1,1 -3,1 -4,1l-14 0 -1 0 -14 0c-2,0 -3,0 -4,-1 -2,-2 -6,-4 -10,-10 -4,-7 -7,-12 -9,-18 9,13 25,15 37,15z"/>
  <path class="fil0" d="M133 173c0,-6 -6,-12 -12,-12 -7,0 -12,6 -12,12 0,7 5,12 12,12 6,0 12,-5 12,-12z"/>
  <path class="fil0" d="M106 172c0,-9 7,-16 16,-16 8,0 15,7 15,16 0,9 -7,16 -15,16 -9,0 -16,-7 -16,-16zm-12 82l0 0c19,0 30,-10 30,-27l0 -37c9,-1 16,-9 16,-18 0,-10 -8,-18 -18,-18 -10,0 -18,8 -18,18 0,9 7,17 15,18l0 37c0,14 -9,22 -25,22 -12,0 -20,-9 -20,-22l0 -69c3,0 21,-1 27,-16 9,-20 14,-37 16,-60 2,-19 -2,-24 -10,-32 0,0 -1,-1 -2,-2 0,-1 1,-2 1,-3 0,-5 -5,-10 -10,-10 -6,0 -10,5 -10,10 0,5 4,10 10,10 3,0 6,-2 8,-5 0,1 1,2 1,2 7,8 11,11 9,30 0,6 -1,11 -2,16 0,2 -1,4 -1,6 -9,19 -26,23 -41,23 -16,0 -37,-4 -44,-30 -1,-5 -1,-10 -2,-15 -1,-19 2,-22 9,-30 1,0 1,-1 2,-2 2,3 5,5 8,5 6,0 10,-5 10,-10 0,-5 -4,-10 -10,-10 -5,0 -10,5 -10,10 0,1 0,2 1,3 -1,1 -2,2 -2,2 -8,8 -12,13 -10,32 2,23 7,40 15,60 7,16 25,16 28,16 1,0 1,0 1,0l3 0 0 69c0,16 10,27 25,27zm-25 -126l0 0 0 0c1,0 1,0 1,0 0,0 0,0 0,0l0 0c12,0 27,-2 37,-15 -2,6 -5,11 -9,18 -4,6 -8,8 -10,10 -1,1 -3,1 -4,1l-14 0 -1 0 -14 0c-1,0 -3,0 -4,-1 -2,-2 -6,-4 -10,-10 -4,-7 -7,-12 -9,-18 9,13 25,15 37,15z"/>
  <path class="fil0" d="M134 172c0,-7 -6,-12 -12,-12 -7,0 -12,5 -12,12 0,7 5,12 12,12 6,0 12,-5 12,-12z"/>
  <path class="fil0" d="M107 171c0,-9 7,-16 16,-16 9,0 16,7 16,16 0,9 -7,16 -16,16 -9,0 -16,-7 -16,-16zm-12 82l0 0c19,0 31,-11 31,-27l0 -37c8,-1 15,-9 15,-18 0,-10 -8,-18 -18,-18 -10,0 -18,8 -18,18 0,9 7,17 15,18l0 37c0,14 -9,22 -25,22 -11,0 -20,-9 -20,-22l0 -69c4,0 21,-1 28,-16 8,-20 13,-37 15,-60 2,-20 -2,-24 -10,-32 0,-1 -1,-1 -2,-2 1,-1 1,-2 1,-3 0,-6 -5,-10 -10,-10 -6,0 -10,4 -10,10 0,5 4,10 10,10 3,0 6,-2 8,-5 1,1 1,1 2,2 7,8 10,11 9,30 -1,5 -2,11 -3,16 0,2 -1,4 -1,5 -8,20 -26,23 -41,23 -16,0 -36,-3 -44,-29 0,-5 -1,-10 -1,-15 -2,-19 1,-22 9,-30 0,-1 0,-1 1,-2 2,3 5,5 8,5 6,0 10,-5 10,-10 0,-6 -4,-10 -10,-10 -5,0 -10,4 -10,10 0,1 1,2 1,3 -1,1 -2,1 -2,2 -8,8 -12,12 -10,32 2,23 7,40 15,60 7,15 25,16 28,16 1,0 1,0 1,0l3 0 0 69c0,16 11,27 25,27zm-24 -126l0 0 0 0c0,0 0,0 0,0 0,0 0,0 0,0l0 0c12,0 27,-2 37,-15 -2,6 -5,11 -9,18 -4,6 -8,8 -10,10 -1,1 -3,1 -4,1l-14 0 0 0 -15 0c-1,0 -3,0 -4,-1 -2,-2 -6,-4 -10,-10 -4,-7 -7,-13 -9,-19 9,14 25,16 38,16z"/>
  <path class="fil0" d="M135 171c0,-7 -5,-12 -12,-12 -7,0 -12,5 -12,12 0,6 5,12 12,12 7,0 12,-6 12,-12z"/>
  <path class="fil0" d="M108 170c0,-9 7,-16 16,-16 9,0 16,7 16,16 0,8 -7,15 -16,15 -9,0 -16,-7 -16,-15zm-11 82l0 0c18,0 30,-11 30,-27l0 -37c8,-2 15,-9 15,-18 0,-10 -8,-18 -18,-18 -10,0 -18,8 -18,18 0,9 7,16 16,18l0 37c0,14 -10,22 -25,22 -12,0 -21,-9 -21,-22l0 -69c4,0 21,-1 28,-17 8,-19 13,-36 15,-59 2,-20 -2,-24 -9,-32 -1,-1 -2,-1 -3,-2 1,-1 1,-2 1,-3 0,-6 -5,-10 -10,-10 -6,0 -10,4 -10,10 0,5 4,10 10,10 3,0 6,-2 8,-5 1,1 1,1 2,2 7,7 10,11 9,30 -1,5 -1,11 -2,16 -1,2 -2,4 -2,5 -8,20 -26,23 -41,23 -16,0 -36,-3 -43,-29 -1,-5 -2,-10 -2,-15 -2,-19 2,-23 9,-30 0,-1 1,-1 1,-2 2,3 5,5 8,5 6,0 10,-5 10,-10 0,-6 -4,-10 -10,-10 -5,0 -9,4 -9,10 0,1 0,2 0,3 -1,1 -2,1 -2,2 -7,8 -12,12 -10,32 2,23 7,40 16,59 6,16 24,17 27,17 1,0 1,0 1,0l3 0 0 69c0,16 11,27 26,27zm-25 -126l0 0 0 0c0,0 0,0 0,0 0,0 0,0 0,0l0 0c13,0 28,-2 37,-15 -2,6 -5,11 -9,18 -4,6 -8,8 -10,9 -1,1 -2,2 -4,2l-14 0 0 0 -15 0c-1,0 -3,-1 -4,-2 -2,-1 -6,-3 -10,-9 -4,-8 -7,-13 -9,-19 10,14 25,16 38,16z"/>
  <path class="fil0" d="M136 170c0,-7 -5,-12 -12,-12 -6,0 -12,5 -12,12 0,6 6,12 12,12 7,0 12,-6 12,-12z"/>
  <path class="fil0" d="M110 169c0,-9 7,-16 15,-16 9,0 16,7 16,16 0,8 -7,15 -16,15 -8,0 -15,-7 -15,-15zm-12 82l0 0c18,0 30,-11 30,-27l0 -37c9,-2 15,-9 15,-18 0,-10 -8,-19 -18,-19 -10,0 -18,9 -18,19 0,9 7,16 16,18l0 37c0,14 -10,22 -25,22 -12,0 -21,-9 -21,-22l0 -69c4,0 21,-1 28,-17 8,-19 13,-36 15,-59 2,-20 -2,-24 -9,-32 -1,-1 -2,-2 -2,-2 0,-1 0,-2 0,-3 0,-6 -4,-10 -10,-10 -5,0 -10,4 -10,10 0,5 5,10 10,10 4,0 7,-2 8,-5 1,1 1,1 2,2 7,7 10,11 9,29 -1,6 -1,12 -2,17 -1,2 -1,4 -2,5 -8,20 -26,23 -41,23 -16,0 -36,-3 -43,-29 -1,-5 -2,-10 -2,-16 -2,-18 2,-22 9,-29 0,-1 1,-1 1,-2 2,3 5,5 9,5 5,0 9,-5 9,-10 0,-6 -4,-10 -9,-10 -6,0 -10,4 -10,10 0,1 0,2 0,3 -1,0 -1,1 -2,2 -7,8 -11,12 -10,32 2,23 8,40 16,59 6,16 24,17 28,17 0,0 0,0 0,0l3 0 0 69c0,16 11,27 26,27zm-25 -126l0 0 0 0c0,0 0,0 0,0 0,0 0,0 0,0l0 0c13,0 28,-2 37,-15 -2,5 -5,11 -9,18 -4,5 -8,8 -10,9 -1,1 -2,2 -4,2l-14 0 0 0 -14 0c-2,0 -4,-1 -5,-2 -2,-1 -6,-4 -9,-9 -5,-8 -7,-13 -10,-19 10,13 25,16 38,16z"/>
  <path class="fil0" d="M137 169c0,-7 -5,-12 -12,-12 -6,0 -12,5 -12,12 0,6 6,12 12,12 7,0 12,-6 12,-12z"/>
  <path class="fil0" d="M111 168c0,-9 7,-16 15,-16 9,0 16,7 16,16 0,8 -7,15 -16,15 -8,0 -15,-7 -15,-15zm-12 82l0 0c18,0 30,-11 30,-27l0 -38c9,-1 16,-8 16,-17 0,-10 -9,-19 -19,-19 -10,0 -18,9 -18,19 0,9 7,16 16,17l0 38c0,13 -9,22 -25,22 -12,0 -21,-10 -21,-22l0 -69c4,0 22,-1 28,-17 8,-20 14,-36 16,-60 1,-19 -3,-23 -10,-31 -1,-1 -2,-2 -2,-3 0,0 0,-1 0,-3 0,-5 -4,-9 -10,-9 -5,0 -10,4 -10,9 0,6 5,10 10,10 4,0 7,-1 8,-4 1,0 2,1 2,2 7,7 11,11 9,29 -1,6 -1,12 -2,17 -1,2 -1,3 -2,5 -8,20 -25,23 -41,23 -16,0 -36,-3 -43,-29 -1,-5 -2,-10 -2,-16 -2,-18 2,-22 9,-29 0,-1 1,-2 1,-2 2,3 5,4 9,4 5,0 10,-4 10,-10 0,-5 -5,-9 -10,-9 -6,0 -10,4 -10,9 0,2 0,3 0,3 -1,1 -1,2 -2,3 -7,8 -11,12 -10,31 2,24 8,40 16,60 6,16 24,17 28,17 0,0 0,0 0,0l3 0 0 69c0,15 11,27 26,27zm-25 -126l0 0 0 0c0,0 0,0 0,0 0,0 0,0 0,0l0 0c13,0 28,-3 38,-16 -3,6 -6,11 -10,18 -3,6 -7,9 -9,10 -2,1 -3,2 -5,2l-14 0 0 0 -14 0c-2,0 -3,-1 -5,-2 -2,-1 -6,-4 -9,-10 -5,-7 -7,-12 -10,-18 10,13 25,16 38,16z"/>
  <path class="fil0" d="M138 168c0,-7 -5,-12 -12,-12 -6,0 -12,5 -12,12 0,6 6,11 12,11 7,0 12,-5 12,-11z"/>
  <path class="fil0" d="M112 166c0,-8 7,-15 15,-15 9,0 16,7 16,15 0,9 -7,16 -16,16 -8,0 -15,-7 -15,-16zm-12 83l0 0c18,0 30,-11 30,-28l0 -37c9,-1 16,-8 16,-18 0,-10 -9,-18 -19,-18 -10,0 -18,8 -18,18 0,10 7,17 16,18l0 37c0,14 -9,23 -25,23 -12,0 -21,-10 -21,-22l0 -69c4,0 22,-1 28,-17 8,-20 14,-37 16,-60 1,-19 -3,-23 -10,-31 -1,-1 -1,-2 -2,-3 0,-1 0,-2 0,-3 0,-5 -4,-10 -10,-10 -5,0 -10,5 -10,10 0,6 5,10 10,10 4,0 7,-2 9,-4 0,0 1,1 1,1 7,8 11,12 9,30 0,6 -1,11 -2,17 -1,1 -1,3 -2,5 -8,20 -25,23 -41,23 -15,0 -36,-4 -43,-29 -1,-5 -2,-10 -2,-16 -1,-18 2,-22 9,-30 1,0 1,-1 2,-1 1,2 4,4 8,4 5,0 10,-4 10,-10 0,-5 -5,-10 -10,-10 -6,0 -10,5 -10,10 0,1 0,2 0,3 0,1 -1,2 -2,3 -7,8 -11,12 -9,31 1,23 7,40 15,60 7,16 24,17 28,17 0,0 0,0 0,0l3 0 0 69c0,15 11,27 26,27zm-25 -126l0 0 0 0c0,0 0,0 0,0 0,0 1,0 1,0l0 0c12,-1 27,-3 37,-16 -3,6 -5,11 -10,18 -3,6 -7,9 -9,10 -2,1 -3,2 -5,2l-14 0 0 0 -14 0c-2,0 -3,-1 -5,-2 -1,-1 -5,-4 -9,-10 -4,-7 -7,-12 -10,-18 10,13 25,15 38,16z"/>
  <path class="fil0" d="M139 166c0,-6 -5,-12 -12,-12 -6,0 -11,6 -11,12 0,7 5,12 11,12 7,0 12,-5 12,-12z"/>
  <path class="fil0" d="M113 165c0,-8 7,-15 16,-15 8,0 15,7 15,15 0,9 -7,16 -15,16 -9,0 -16,-7 -16,-16zm-12 82l0 0c18,0 30,-10 30,-27l0 -37c9,-1 16,-9 16,-18 0,-10 -8,-18 -18,-18 -10,0 -19,8 -19,18 0,9 7,17 16,18l0 37c0,14 -9,22 -25,22 -12,0 -20,-9 -20,-21l0 -69c3,-1 21,-1 27,-17 8,-20 14,-37 16,-60 1,-19 -3,-24 -10,-31 -1,-1 -1,-2 -2,-3 0,-1 0,-2 0,-3 0,-5 -4,-10 -10,-10 -5,0 -9,5 -9,10 0,6 4,10 9,10 4,0 7,-2 9,-4 0,0 1,1 1,1 7,8 11,12 9,30 0,6 -1,11 -2,16 -1,2 -1,4 -2,6 -8,20 -25,23 -41,23 -15,0 -36,-4 -43,-30 -1,-4 -1,-10 -2,-15 -1,-18 2,-22 9,-30 1,0 1,-1 2,-1 1,2 4,4 8,4 5,0 10,-4 10,-10 0,-5 -5,-10 -10,-10 -6,0 -10,5 -10,10 0,1 0,2 0,3 0,1 -1,2 -2,3 -7,7 -11,12 -9,31 2,23 7,40 15,60 7,16 25,17 28,17 0,0 1,-1 1,-1l2 0 0 70c0,15 11,26 26,26zm-25 -126l0 0 0 0c0,0 0,0 0,0 1,0 1,0 1,0l0 0c12,0 27,-2 37,-15 -3,6 -5,11 -10,18 -3,6 -7,8 -9,10 -1,1 -3,1 -5,1l-13 0 -1 0 -14 0c-2,0 -3,0 -4,-1 -2,-2 -6,-4 -10,-10 -4,-7 -7,-12 -10,-18 10,13 26,15 38,15z"/>
  <path class="fil0" d="M141 165c0,-6 -6,-12 -12,-12 -7,0 -12,6 -12,12 0,7 5,12 12,12 6,0 12,-5 12,-12z"/>
  <path class="fil0" d="M114 164c0,-8 7,-16 16,-16 8,0 15,8 15,16 0,9 -7,16 -15,16 -9,0 -16,-7 -16,-16zm-12 82l0 0c19,0 30,-10 30,-27l0 -37c9,-1 16,-9 16,-18 0,-10 -8,-18 -18,-18 -10,0 -18,8 -18,18 0,9 6,17 15,18l0 37c0,14 -9,22 -25,22 -12,0 -20,-9 -20,-22l0 -69c3,0 21,-1 27,-16 9,-20 14,-37 16,-60 2,-19 -2,-24 -10,-32 0,0 -1,-1 -2,-2 0,-1 1,-2 1,-3 0,-5 -5,-10 -10,-10 -6,0 -10,5 -10,10 0,6 4,10 10,10 3,0 6,-2 8,-4 0,0 1,1 1,1 7,8 11,12 9,30 0,6 -1,11 -2,16 0,2 -1,4 -2,6 -8,20 -25,23 -40,23 -16,0 -37,-4 -44,-30 -1,-5 -1,-10 -2,-15 -1,-18 2,-22 9,-30 1,0 1,-1 2,-1 2,2 5,4 8,4 6,0 10,-4 10,-10 0,-5 -4,-10 -10,-10 -5,0 -10,5 -10,10 0,1 0,2 1,3 -1,1 -2,2 -3,2 -7,8 -11,13 -9,32 2,23 7,40 15,60 7,16 25,16 28,16 0,0 1,0 1,0l3 0 0 69c0,16 10,27 25,27zm-25 -126l0 0 0 0c0,0 1,0 1,0 0,0 0,0 0,0l0 0c12,0 27,-2 37,-15 -3,6 -5,11 -9,18 -4,6 -8,8 -10,10 -1,1 -3,1 -4,1l-14 0 -1 0 -14 0c-1,0 -3,0 -4,-1 -2,-2 -6,-4 -10,-10 -4,-7 -7,-12 -9,-18 9,13 25,15 37,15z"/>
  <path class="fil0" d="M142 164c0,-6 -6,-12 -12,-12 -7,0 -12,6 -12,12 0,7 5,12 12,12 6,0 12,-5 12,-12z"/>
  <path class="fil0" d="M115 163c0,-9 7,-16 16,-16 8,0 15,7 15,16 0,9 -7,16 -15,16 -9,0 -16,-7 -16,-16zm-12 82l0 0c19,0 30,-10 30,-27l0 -37c9,-1 16,-9 16,-18 0,-10 -8,-18 -18,-18 -10,0 -18,8 -18,18 0,9 7,17 15,18l0 37c0,14 -9,22 -25,22 -12,0 -20,-9 -20,-22l0 -69c3,0 21,-1 28,-16 8,-20 13,-37 15,-60 2,-19 -2,-24 -10,-32 0,0 -1,-1 -2,-2 0,-1 1,-2 1,-3 0,-6 -5,-10 -10,-10 -6,0 -10,4 -10,10 0,5 4,10 10,10 3,0 6,-2 8,-5 1,1 1,2 2,2 7,8 10,11 9,30 -1,6 -2,11 -3,16 0,2 -1,4 -1,5 -8,20 -26,24 -41,24 -16,0 -37,-4 -44,-30 0,-5 -1,-10 -2,-15 -1,-19 2,-22 9,-30 1,0 1,-1 2,-2 2,3 5,5 8,5 6,0 10,-5 10,-10 0,-6 -4,-10 -10,-10 -5,0 -10,4 -10,10 0,1 0,2 1,3 -1,1 -2,2 -2,2 -8,8 -12,13 -10,32 2,23 7,40 15,60 7,15 25,16 28,16 1,0 1,0 1,0l3 0 0 69c0,16 11,27 25,27zm-25 -126l0 0 0 0c1,0 1,0 1,0 0,0 0,0 0,0l0 0c12,0 27,-2 37,-15 -2,6 -5,11 -9,18 -4,6 -8,8 -10,10 -1,1 -3,1 -4,1l-14 0 -1 0 -14 0c-1,0 -3,0 -4,-1 -2,-2 -6,-4 -10,-10 -4,-7 -7,-12 -9,-19 9,14 25,16 37,16z"/>
  <path class="fil0" d="M143 163c0,-7 -6,-12 -12,-12 -7,0 -12,5 -12,12 0,7 5,12 12,12 6,0 12,-5 12,-12z"/>
  <path class="fil0" d="M116 162c0,-9 7,-16 16,-16 9,0 16,7 16,16 0,8 -7,15 -16,15 -9,0 -16,-7 -16,-15zm-11 82l0 0c18,0 30,-11 30,-27l0 -37c8,-1 15,-9 15,-18 0,-10 -8,-18 -18,-18 -10,0 -18,8 -18,18 0,9 7,17 15,18l0 37c0,14 -9,22 -24,22 -12,0 -21,-9 -21,-22l0 -69c4,0 21,-1 28,-17 8,-19 13,-36 15,-59 2,-20 -2,-24 -9,-32 -1,-1 -2,-1 -3,-2 1,-1 1,-2 1,-3 0,-6 -5,-10 -10,-10 -6,0 -10,4 -10,10 0,5 4,10 10,10 3,0 6,-2 8,-5 1,1 1,1 2,2 7,7 10,11 9,30 -1,5 -2,11 -2,16 -1,2 -2,4 -2,5 -8,20 -26,23 -41,23 -16,0 -36,-3 -43,-29 -1,-5 -2,-10 -2,-15 -2,-19 2,-23 9,-30 0,-1 1,-1 1,-2 2,3 5,5 8,5 6,0 10,-5 10,-10 0,-6 -4,-10 -10,-10 -5,0 -10,4 -10,10 0,1 1,2 1,3 -1,1 -2,1 -2,2 -8,8 -12,12 -10,32 2,23 7,40 16,59 6,16 24,17 27,17 1,0 1,0 1,0l3 0 0 69c0,16 11,27 26,27zm-25 -126l0 0 0 0c0,0 0,0 0,0 0,0 0,0 0,0l0 0c13,0 28,-2 37,-15 -2,6 -5,11 -9,18 -4,6 -8,8 -10,10 -1,1 -3,1 -4,1l-14 0 0 0 -15 0c-1,0 -3,0 -4,-1 -2,-2 -6,-4 -10,-10 -4,-7 -7,-13 -9,-19 10,14 25,16 38,16z"/>
  <path class="fil0" d="M144 162c0,-7 -5,-12 -12,-12 -7,0 -12,5 -12,12 0,6 5,12 12,12 7,0 12,-6 12,-12z"/>
  <path class="fil0" d="M118 161c0,-9 7,-16 15,-16 9,0 16,7 16,16 0,8 -7,15 -16,15 -8,0 -15,-7 -15,-15zm-12 82l0 0c18,0 30,-11 30,-27l0 -37c8,-2 15,-9 15,-18 0,-10 -8,-18 -18,-18 -10,0 -18,8 -18,18 0,9 7,16 16,18l0 37c0,14 -10,22 -25,22 -12,0 -21,-9 -21,-22l0 -69c4,0 21,-1 28,-17 8,-19 13,-36 15,-59 2,-20 -2,-24 -9,-32 -1,-1 -2,-1 -3,-2 1,-1 1,-2 1,-3 0,-6 -5,-10 -10,-10 -5,0 -10,4 -10,10 0,5 5,10 10,10 3,0 6,-2 8,-5 1,1 1,1 2,2 7,7 10,11 9,29 -1,6 -1,12 -2,17 -1,2 -2,4 -2,5 -8,20 -26,23 -41,23 -16,0 -36,-3 -43,-29 -1,-5 -2,-10 -2,-16 -2,-18 2,-22 9,-29 0,-1 1,-1 1,-2 2,3 5,5 8,5 6,0 10,-5 10,-10 0,-6 -4,-10 -10,-10 -5,0 -9,4 -9,10 0,1 0,2 0,3 -1,1 -1,1 -2,2 -7,8 -11,12 -10,32 2,23 8,40 16,59 6,16 24,17 27,17 1,0 1,0 1,0l3 0 0 69c0,16 11,27 26,27zm-25 -126l0 0 0 0c0,0 0,0 0,0 0,0 0,0 0,0l0 0c13,0 28,-2 37,-15 -2,6 -5,11 -9,18 -4,6 -8,8 -10,9 -1,1 -2,2 -4,2l-14 0 0 0 -14 0c-2,0 -4,-1 -5,-2 -2,-1 -6,-3 -9,-9 -5,-8 -8,-13 -10,-19 10,14 25,16 38,16z"/>
  <path class="fil0" d="M145 161c0,-7 -5,-12 -12,-12 -6,0 -12,5 -12,12 0,6 6,12 12,12 7,0 12,-6 12,-12z"/>
  <path class="fil0" d="M119 160c0,-9 7,-16 15,-16 9,0 16,7 16,16 0,8 -7,15 -16,15 -8,0 -15,-7 -15,-15zm-12 82l0 0c18,0 30,-11 30,-27l0 -37c9,-2 15,-9 15,-18 0,-10 -8,-19 -18,-19 -10,0 -18,9 -18,19 0,9 7,16 16,18l0 37c0,13 -10,22 -25,22 -12,0 -21,-9 -21,-22l0 -69c4,0 21,-1 28,-17 8,-20 14,-36 15,-59 2,-20 -2,-24 -9,-32 -1,-1 -2,-2 -2,-2 0,-1 0,-2 0,-3 0,-6 -4,-10 -10,-10 -5,0 -10,4 -10,10 0,5 5,9 10,9 4,0 7,-1 8,-4 1,1 1,1 2,2 7,7 10,11 9,29 -1,6 -1,12 -2,17 -1,2 -1,3 -2,5 -8,20 -25,23 -41,23 -16,0 -36,-3 -43,-29 -1,-5 -2,-10 -2,-16 -2,-18 2,-22 9,-29 0,-1 1,-1 1,-2 2,3 5,4 9,4 5,0 10,-4 10,-9 0,-6 -5,-10 -10,-10 -6,0 -10,4 -10,10 0,1 0,2 0,3 -1,0 -1,1 -2,2 -7,8 -11,12 -10,32 2,23 8,39 16,59 6,16 24,17 28,17 0,0 0,0 0,0l3 0 0 69c0,15 11,27 26,27zm-25 -126l0 0 0 0c0,0 0,0 0,0 0,0 0,0 0,0l0 0c13,0 28,-3 37,-15 -2,5 -5,10 -9,17 -4,6 -8,9 -9,10 -2,1 -3,2 -5,2l-14 0 0 0 -14 0c-2,0 -4,-1 -5,-2 -2,-1 -6,-4 -9,-10 -5,-7 -7,-12 -10,-18 10,13 25,16 38,16z"/>
  <path class="fil0" d="M146 160c0,-7 -5,-12 -12,-12 -6,0 -12,5 -12,12 0,6 6,12 12,12 7,0 12,-6 12,-12z"/>
  <path class="fil0" d="M120 158c0,-8 7,-15 15,-15 9,0 16,7 16,15 0,9 -7,16 -16,16 -8,0 -15,-7 -15,-16zm-12 83l0 0c18,0 30,-11 30,-28l0 -37c9,-1 16,-8 16,-18 0,-10 -9,-18 -19,-18 -10,0 -18,8 -18,18 0,10 7,17 16,18l0 37c0,14 -9,23 -25,23 -12,0 -21,-10 -21,-22l0 -69c4,0 22,-1 28,-17 8,-20 14,-37 16,-60 1,-19 -3,-23 -10,-31 -1,-1 -2,-2 -2,-3 0,-1 0,-2 0,-3 0,-5 -4,-10 -10,-10 -5,0 -10,5 -10,10 0,6 5,10 10,10 4,0 7,-1 9,-4 0,0 1,1 1,2 7,7 11,11 9,29 0,6 -1,11 -2,17 -1,2 -1,3 -2,5 -8,20 -25,23 -41,23 -16,0 -36,-3 -43,-29 -1,-5 -2,-10 -2,-16 -2,-18 2,-22 9,-29 0,-1 1,-2 1,-2 2,3 5,4 9,4 5,0 10,-4 10,-10 0,-5 -5,-10 -10,-10 -6,0 -10,5 -10,10 0,1 0,2 0,3 0,1 -1,2 -2,3 -7,8 -11,12 -10,31 2,23 8,40 16,60 6,16 24,17 28,17 0,0 0,0 0,0l3 0 0 69c0,15 11,27 26,27zm-25 -126l0 0 0 0c0,0 0,0 0,0 0,0 0,0 1,0l0 0c12,0 27,-3 37,-16 -3,6 -6,11 -10,18 -3,6 -7,9 -9,10 -2,1 -3,2 -5,2l-14 0 0 0 -14 0c-2,0 -3,-1 -5,-2 -2,-1 -6,-4 -9,-10 -5,-7 -7,-12 -10,-18 10,13 25,16 38,16z"/>
  <path class="fil0" d="M147 158c0,-6 -5,-11 -12,-11 -6,0 -12,5 -12,11 0,7 6,12 12,12 7,0 12,-5 12,-12z"/>
  <path class="fil0" d="M121 157c0,-8 7,-15 16,-15 8,0 15,7 15,15 0,9 -7,16 -15,16 -9,0 -16,-7 -16,-16zm-12 83l0 0c18,0 30,-11 30,-28l0 -37c9,-1 16,-9 16,-18 0,-10 -8,-18 -18,-18 -10,0 -19,8 -19,18 0,9 7,17 16,18l0 37c0,14 -9,22 -25,22 -12,0 -21,-9 -21,-21l0 -69c4,0 22,-1 28,-17 8,-20 14,-37 16,-60 1,-19 -3,-23 -10,-31 -1,-1 -1,-2 -2,-3 0,-1 0,-2 0,-3 0,-5 -4,-10 -10,-10 -5,0 -10,5 -10,10 0,6 5,10 10,10 4,0 7,-2 9,-4 0,0 1,1 1,1 7,8 11,12 9,30 0,6 -1,11 -2,17 -1,1 -1,3 -2,5 -8,20 -25,23 -41,23 -15,0 -36,-4 -43,-30 -1,-4 -1,-9 -2,-15 -1,-18 2,-22 9,-30 1,0 1,-1 2,-1 1,2 4,4 8,4 5,0 10,-4 10,-10 0,-5 -5,-10 -10,-10 -6,0 -10,5 -10,10 0,1 0,2 0,3 0,1 -1,2 -2,3 -7,8 -11,12 -9,31 1,23 7,40 15,60 7,16 24,17 28,17 0,0 0,0 0,0l3 0 0 69c0,15 11,27 26,27zm-25 -127l0 0 0 0c0,0 0,0 0,0 0,0 1,0 1,0l0 0c12,0 27,-2 37,-15 -3,6 -5,11 -10,18 -3,6 -7,9 -9,10 -1,1 -3,2 -5,2l-14 0 0 0 -14 0c-2,0 -3,-1 -5,-2 -1,-1 -5,-4 -9,-10 -4,-7 -7,-12 -10,-18 10,13 25,15 38,15z"/>
  <path class="fil0" d="M148 157c0,-6 -5,-12 -11,-12 -7,0 -12,6 -12,12 0,7 5,12 12,12 6,0 11,-5 11,-12z"/>
  <path class="fil0" d="M122 156c0,-8 7,-15 16,-15 8,0 15,7 15,15 0,9 -7,16 -15,16 -9,0 -16,-7 -16,-16zm-12 82l0 0c18,0 30,-10 30,-27l0 -37c9,-1 16,-9 16,-18 0,-10 -8,-18 -18,-18 -10,0 -18,8 -18,18 0,9 6,17 15,18l0 37c0,14 -9,22 -25,22 -12,0 -20,-9 -20,-21l0 -70c3,0 21,0 27,-16 8,-20 14,-37 16,-60 1,-19 -3,-24 -10,-31 -1,-1 -1,-2 -2,-3 0,-1 0,-2 0,-3 0,-5 -4,-10 -9,-10 -6,0 -10,5 -10,10 0,6 4,10 10,10 3,0 6,-2 8,-4 0,0 1,1 1,1 7,8 11,12 9,30 0,6 -1,11 -2,16 0,2 -1,4 -2,6 -8,20 -25,23 -40,23 -16,0 -37,-4 -44,-30 -1,-5 -1,-10 -2,-15 -1,-18 2,-22 9,-30 1,0 1,-1 2,-1 1,2 5,4 8,4 5,0 10,-4 10,-10 0,-5 -5,-10 -10,-10 -5,0 -10,5 -10,10 0,1 0,2 1,3 -1,1 -2,2 -3,3 -7,7 -11,12 -9,31 2,23 7,40 15,60 7,16 25,16 28,16 0,0 1,0 1,0l3 0 0 70c0,15 10,26 25,26zm-25 -126l0 0 0 0c0,0 0,0 1,0 0,0 0,0 0,0l0 0c12,0 27,-2 37,-15 -3,6 -5,11 -10,18 -3,6 -7,8 -9,10 -1,1 -3,1 -5,1l-13 0 -1 0 -14 0c-2,0 -3,0 -4,-1 -2,-2 -6,-4 -10,-10 -4,-7 -7,-12 -10,-18 10,13 26,15 38,15z"/>
  <path class="fil0" d="M150 156c0,-6 -6,-12 -12,-12 -7,0 -12,6 -12,12 0,7 5,12 12,12 6,0 12,-5 12,-12z"/>
  <path class="fil0" d="M123 155c0,-9 7,-16 16,-16 8,0 15,7 15,16 0,9 -7,16 -15,16 -9,0 -16,-7 -16,-16zm-12 82l0 0c19,0 30,-10 30,-27l0 -37c9,-1 16,-9 16,-18 0,-10 -8,-18 -18,-18 -10,0 -18,8 -18,18 0,9 6,17 15,18l0 37c0,14 -9,22 -25,22 -12,0 -20,-9 -20,-22l0 -69c3,0 21,-1 27,-16 9,-20 14,-37 16,-60 2,-19 -2,-24 -10,-32 0,0 -1,-1 -2,-2 0,-1 1,-2 1,-3 0,-5 -5,-10 -10,-10 -6,0 -10,5 -10,10 0,5 4,10 10,10 3,0 6,-2 8,-5 0,1 1,2 1,2 7,8 11,12 9,30 0,6 -1,11 -2,16 0,2 -1,4 -1,6 -9,19 -26,23 -41,23 -16,0 -37,-4 -44,-30 -1,-5 -1,-10 -2,-15 -1,-18 2,-22 9,-30 1,0 1,-1 2,-2 2,3 5,5 8,5 6,0 10,-5 10,-10 0,-5 -4,-10 -10,-10 -5,0 -10,5 -10,10 0,1 0,2 1,3 -1,1 -2,2 -3,2 -7,8 -11,13 -9,32 2,23 7,40 15,60 7,16 25,16 28,16 0,0 1,0 1,0l3 0 0 69c0,16 10,27 25,27zm-25 -126l0 0 0 0c0,0 1,0 1,0 0,0 0,0 0,0l0 0c12,0 27,-2 37,-15 -2,6 -5,11 -9,18 -4,6 -8,8 -10,10 -1,1 -3,1 -4,1l-14 0 -1 0 -14 0c-1,0 -3,0 -4,-1 -2,-2 -6,-4 -10,-10 -4,-7 -7,-12 -9,-18 9,13 25,15 37,15z"/>
  <path class="fil0" d="M151 155c0,-7 -6,-12 -12,-12 -7,0 -12,5 -12,12 0,7 5,12 12,12 6,0 12,-5 12,-12z"/>
  <path class="fil0" d="M124 154c0,-9 7,-16 16,-16 9,0 16,7 16,16 0,9 -7,16 -16,16 -9,0 -16,-7 -16,-16zm-12 82l0 0c19,0 30,-11 30,-27l0 -37c9,-1 16,-9 16,-18 0,-10 -8,-18 -18,-18 -10,0 -18,8 -18,18 0,9 7,17 15,18l0 37c0,14 -9,22 -25,22 -11,0 -20,-9 -20,-22l0 -69c4,0 21,-1 28,-16 8,-20 13,-37 15,-60 2,-20 -2,-24 -10,-32 0,0 -1,-1 -2,-2 1,-1 1,-2 1,-3 0,-6 -5,-10 -10,-10 -6,0 -10,4 -10,10 0,5 4,10 10,10 3,0 6,-2 8,-5 1,1 1,1 2,2 7,8 10,11 9,30 -1,6 -2,11 -3,16 0,2 -1,4 -1,5 -8,20 -26,23 -41,23 -16,0 -36,-3 -44,-29 0,-5 -1,-10 -2,-15 -1,-19 2,-22 9,-30 1,-1 1,-1 2,-2 2,3 5,5 8,5 6,0 10,-5 10,-10 0,-6 -4,-10 -10,-10 -5,0 -10,4 -10,10 0,1 1,2 1,3 -1,1 -2,2 -2,2 -8,8 -12,12 -10,32 2,23 7,40 15,60 7,15 25,16 28,16 1,0 1,0 1,0l3 0 0 69c0,16 11,27 25,27zm-24 -126l0 0 0 0c0,0 0,0 0,0 0,0 0,0 0,0l0 0c12,0 27,-2 37,-15 -2,6 -5,11 -9,18 -4,6 -8,8 -10,10 -1,1 -3,1 -4,1l-14 0 0 0 -15 0c-1,0 -3,0 -4,-1 -2,-2 -6,-4 -10,-10 -4,-7 -7,-12 -9,-19 9,14 25,16 38,16z"/>
  <path class="fil0" d="M152 154c0,-7 -5,-12 -12,-12 -7,0 -12,5 -12,12 0,7 5,12 12,12 7,0 12,-5 12,-12z"/>
  <path class="fil0" d="M125 153c0,-9 7,-16 16,-16 9,0 16,7 16,16 0,8 -7,15 -16,15 -9,0 -16,-7 -16,-15zm-11 82l0 0c18,0 30,-11 30,-27l0 -37c8,-1 15,-9 15,-18 0,-10 -8,-18 -18,-18 -10,0 -18,8 -18,18 0,9 7,17 16,18l0 37c0,14 -10,22 -25,22 -12,0 -21,-9 -21,-22l0 -69c4,0 21,-1 28,-17 8,-19 13,-36 15,-59 2,-20 -2,-24 -9,-32 -1,-1 -2,-1 -3,-2 1,-1 1,-2 1,-3 0,-6 -5,-10 -10,-10 -6,0 -10,4 -10,10 0,5 4,10 10,10 3,0 6,-2 8,-5 1,1 1,1 2,2 7,7 10,11 9,30 -1,5 -2,11 -2,16 -1,2 -2,4 -2,5 -8,20 -26,23 -41,23 -16,0 -36,-3 -43,-29 -1,-5 -2,-10 -2,-15 -2,-19 2,-23 9,-30 0,-1 1,-1 1,-2 2,3 5,5 8,5 6,0 10,-5 10,-10 0,-6 -4,-10 -10,-10 -5,0 -10,4 -10,10 0,1 1,2 1,3 -1,1 -2,1 -2,2 -8,8 -12,12 -10,32 2,23 7,40 16,59 6,16 24,17 27,17 1,0 1,0 1,0l3 0 0 69c0,16 11,27 26,27zm-25 -126l0 0 0 0c0,0 0,0 0,0 0,0 0,0 0,0l0 0c13,0 28,-2 37,-15 -2,6 -5,11 -9,18 -4,6 -8,8 -10,9 -1,1 -3,2 -4,2l-14 0 0 0 -15 0c-1,0 -3,-1 -4,-2 -2,-1 -6,-3 -10,-9 -4,-7 -7,-13 -9,-19 10,14 25,16 38,16z"/>
  <path class="fil0" d="M153 153c0,-7 -5,-12 -12,-12 -7,0 -12,5 -12,12 0,6 5,12 12,12 7,0 12,-6 12,-12z"/>
  <path class="fil0" d="M127 152c0,-9 7,-16 15,-16 9,0 16,7 16,16 0,8 -7,15 -16,15 -8,0 -15,-7 -15,-15zm-12 82l0 0c18,0 30,-11 30,-27l0 -37c9,-2 15,-9 15,-18 0,-10 -8,-18 -18,-18 -10,0 -18,8 -18,18 0,9 7,16 16,18l0 37c0,14 -10,22 -25,22 -12,0 -21,-9 -21,-22l0 -69c4,0 21,-1 28,-17 8,-19 13,-36 15,-59 2,-20 -2,-24 -9,-32 -1,-1 -2,-2 -2,-2 0,-1 0,-2 0,-3 0,-6 -4,-10 -10,-10 -5,0 -10,4 -10,10 0,5 5,10 10,10 4,0 7,-2 8,-5 1,1 1,1 2,2 7,7 10,11 9,29 -1,6 -1,12 -2,17 -1,2 -2,4 -2,5 -8,20 -26,23 -41,23 -16,0 -36,-3 -43,-29 -1,-5 -2,-10 -2,-16 -2,-18 2,-22 9,-29 0,-1 1,-1 1,-2 2,3 5,5 9,5 5,0 9,-5 9,-10 0,-6 -4,-10 -9,-10 -6,0 -10,4 -10,10 0,1 0,2 0,3 -1,0 -1,1 -2,2 -7,8 -11,12 -10,32 2,23 8,40 16,59 6,16 24,17 28,17 0,0 0,0 0,0l3 0 0 69c0,16 11,27 26,27zm-25 -126l0 0 0 0c0,0 0,0 0,0 0,0 0,0 0,0l0 0c13,0 28,-2 37,-15 -2,6 -5,11 -9,18 -4,6 -8,8 -10,9 -1,1 -2,2 -4,2l-14 0 0 0 -14 0c-2,0 -4,-1 -5,-2 -2,-1 -6,-3 -9,-9 -5,-8 -7,-13 -10,-19 10,14 25,16 38,16z"/>
  <path class="fil0" d="M154 152c0,-7 -5,-12 -12,-12 -6,0 -12,5 -12,12 0,6 6,12 12,12 7,0 12,-6 12,-12z"/>
  <path class="fil0" d="M128 151c0,-9 7,-16 15,-16 9,0 16,7 16,16 0,8 -7,15 -16,15 -8,0 -15,-7 -15,-15zm-12 82l0 0c18,0 30,-11 30,-27l0 -38c9,-1 15,-8 15,-17 0,-10 -8,-19 -18,-19 -10,0 -18,9 -18,19 0,9 7,16 16,17l0 38c0,13 -10,22 -25,22 -12,0 -21,-9 -21,-22l0 -69c4,0 22,-1 28,-17 8,-20 14,-36 15,-59 2,-20 -2,-24 -9,-32 -1,-1 -2,-2 -2,-3 0,0 0,-1 0,-3 0,-5 -4,-9 -10,-9 -5,0 -10,4 -10,9 0,6 5,10 10,10 4,0 7,-1 8,-4 1,1 1,1 2,2 7,7 10,11 9,29 -1,6 -1,12 -2,17 -1,2 -1,3 -2,5 -8,20 -25,23 -41,23 -16,0 -36,-3 -43,-29 -1,-5 -2,-10 -2,-16 -2,-18 2,-22 9,-29 0,-1 1,-1 1,-2 2,3 5,4 9,4 5,0 10,-4 10,-10 0,-5 -5,-9 -10,-9 -6,0 -10,4 -10,9 0,2 0,3 0,3 -1,1 -1,2 -2,3 -7,8 -11,12 -10,32 2,23 8,39 16,59 6,16 24,17 28,17 0,0 0,0 0,0l3 0 0 69c0,15 11,27 26,27zm-25 -126l0 0 0 0c0,0 0,0 0,0 0,0 0,0 0,0l0 0c13,0 28,-3 37,-15 -2,5 -5,10 -9,17 -4,6 -8,9 -9,10 -2,1 -3,2 -5,2l-14 0 0 0 -14 0c-2,0 -3,-1 -5,-2 -2,-1 -6,-4 -9,-10 -5,-7 -7,-12 -10,-18 10,13 25,16 38,16z"/>
  <path class="fil0" d="M155 151c0,-7 -5,-12 -12,-12 -6,0 -12,5 -12,12 0,6 6,11 12,11 7,0 12,-5 12,-11z"/>
  <path class="fil0" d="M129 149c0,-8 7,-15 15,-15 9,0 16,7 16,15 0,9 -7,16 -16,16 -8,0 -15,-7 -15,-16zm-12 83l0 0c18,0 30,-11 30,-28l0 -37c9,-1 16,-8 16,-18 0,-10 -9,-18 -19,-18 -10,0 -18,8 -18,18 0,10 7,17 16,18l0 37c0,14 -9,23 -25,23 -12,0 -21,-10 -21,-22l0 -69c4,0 22,-1 28,-17 8,-20 14,-37 16,-60 1,-19 -3,-23 -10,-31 -1,-1 -1,-2 -2,-3 0,-1 0,-2 0,-3 0,-5 -4,-10 -10,-10 -5,0 -10,5 -10,10 0,6 5,10 10,10 4,0 7,-2 9,-4 0,0 1,1 1,1 7,8 11,12 9,30 0,6 -1,11 -2,17 -1,2 -1,3 -2,5 -8,20 -25,23 -41,23 -16,0 -36,-4 -43,-29 -1,-5 -2,-10 -2,-16 -2,-18 2,-22 9,-30 0,0 1,-1 2,-1 1,2 4,4 8,4 5,0 10,-4 10,-10 0,-5 -5,-10 -10,-10 -6,0 -10,5 -10,10 0,1 0,2 0,3 0,1 -1,2 -2,3 -7,8 -11,12 -10,31 2,23 8,40 16,60 7,16 24,17 28,17 0,0 0,0 0,0l3 0 0 69c0,15 11,27 26,27zm-25 -126l0 0 0 0c0,0 0,0 0,0 0,0 1,0 1,0l0 0c12,-1 27,-3 37,-16 -3,6 -6,11 -10,18 -3,6 -7,9 -9,10 -2,1 -3,2 -5,2l-14 0 0 0 -14 0c-2,0 -3,-1 -5,-2 -2,-1 -6,-4 -9,-10 -4,-7 -7,-12 -10,-18 10,13 25,15 38,16z"/>
  <path class="fil0" d="M156 149c0,-6 -5,-12 -12,-12 -6,0 -11,6 -11,12 0,7 5,12 11,12 7,0 12,-5 12,-12z"/>
  <path class="fil0" d="M130 148c0,-8 7,-15 16,-15 8,0 15,7 15,15 0,9 -7,16 -15,16 -9,0 -16,-7 -16,-16zm-12 82l0 0c18,0 30,-10 30,-27l0 -37c9,-1 16,-9 16,-18 0,-10 -8,-18 -18,-18 -10,0 -19,8 -19,18 0,9 7,17 16,18l0 37c0,14 -9,22 -25,22 -12,0 -20,-9 -20,-21l0 -69c3,0 21,-1 27,-17 8,-20 14,-37 16,-60 1,-19 -3,-24 -10,-31 -1,-1 -1,-2 -2,-3 0,-1 0,-2 0,-3 0,-5 -4,-10 -10,-10 -5,0 -9,5 -9,10 0,6 4,10 9,10 4,0 7,-2 9,-4 0,0 1,1 1,1 7,8 11,12 9,30 0,6 -1,11 -2,16 -1,2 -1,4 -2,6 -8,20 -25,23 -41,23 -15,0 -36,-4 -43,-30 -1,-4 -1,-10 -2,-15 -1,-18 2,-22 9,-30 1,0 1,-1 2,-1 1,2 4,4 8,4 5,0 10,-4 10,-10 0,-5 -5,-10 -10,-10 -6,0 -10,5 -10,10 0,1 0,2 0,3 0,1 -1,2 -2,3 -7,7 -11,12 -9,31 2,23 7,40 15,60 7,16 25,17 28,17 0,0 0,0 0,0l3 0 0 69c0,15 11,26 26,26zm-25 -126l0 0 0 0c0,0 0,0 0,0 1,0 1,0 1,0l0 0c12,0 27,-2 37,-15 -3,6 -5,11 -10,18 -3,6 -7,9 -9,10 -1,1 -3,1 -5,1l-13 0 -1 0 -14 0c-2,0 -3,0 -4,-1 -2,-1 -6,-4 -10,-10 -4,-7 -7,-12 -10,-18 10,13 26,15 38,15z"/>
  <path class="fil0" d="M158 148c0,-6 -6,-12 -12,-12 -7,0 -12,6 -12,12 0,7 5,12 12,12 6,0 12,-5 12,-12z"/>
  <path class="fil0" d="M131 147c0,-8 7,-15 16,-15 8,0 15,7 15,15 0,9 -7,16 -15,16 -9,0 -16,-7 -16,-16zm-12 82l0 0c18,0 30,-10 30,-27l0 -37c9,-1 16,-9 16,-18 0,-10 -8,-18 -18,-18 -10,0 -18,8 -18,18 0,9 6,17 15,18l0 37c0,14 -9,22 -25,22 -12,0 -20,-9 -20,-22l0 -69c3,0 21,-1 27,-16 9,-20 14,-37 16,-60 1,-19 -3,-24 -10,-32 0,0 -1,-1 -2,-2 0,-1 0,-2 0,-3 0,-5 -4,-10 -9,-10 -6,0 -10,5 -10,10 0,6 4,10 10,10 3,0 6,-2 8,-4 0,0 1,1 1,1 7,8 11,12 9,30 0,6 -1,11 -2,16 0,2 -1,4 -2,6 -8,20 -25,23 -40,23 -16,0 -37,-4 -44,-30 -1,-5 -1,-10 -2,-15 -1,-18 2,-22 9,-30 1,0 1,-1 2,-1 2,2 5,4 8,4 6,0 10,-4 10,-10 0,-5 -4,-10 -10,-10 -5,0 -10,5 -10,10 0,1 0,2 1,3 -1,1 -2,2 -3,2 -7,8 -11,13 -9,32 2,23 7,40 15,60 7,16 25,16 28,16 0,0 1,0 1,0l3 0 0 69c0,16 10,27 25,27zm-25 -126l0 0 0 0c0,0 0,0 1,0 0,0 0,0 0,0l0 0c12,0 27,-2 37,-15 -3,6 -5,11 -10,18 -3,6 -7,8 -9,10 -1,1 -3,1 -4,1l-14 0 -1 0 -14 0c-2,0 -3,0 -4,-1 -2,-2 -6,-4 -10,-10 -4,-7 -7,-12 -9,-18 9,13 25,15 37,15z"/>
  <path class="fil0" d="M159 147c0,-6 -6,-12 -12,-12 -7,0 -12,6 -12,12 0,7 5,12 12,12 6,0 12,-5 12,-12z"/>
  <path class="fil0" d="M132 146c0,-9 7,-16 16,-16 8,0 15,7 15,16 0,9 -7,16 -15,16 -9,0 -16,-7 -16,-16zm-12 82l0 0c19,0 30,-10 30,-27l0 -37c9,-1 16,-9 16,-18 0,-10 -8,-18 -18,-18 -10,0 -18,8 -18,18 0,9 7,17 15,18l0 37c0,14 -9,22 -25,22 -12,0 -20,-9 -20,-22l0 -69c3,0 21,-1 28,-16 8,-20 13,-37 15,-60 2,-19 -2,-24 -10,-32 0,0 -1,-1 -2,-2 0,-1 1,-2 1,-3 0,-6 -5,-10 -10,-10 -6,0 -10,4 -10,10 0,5 4,10 10,10 3,0 6,-2 8,-5 0,1 1,2 1,2 7,8 11,11 9,30 0,6 -1,11 -2,16 0,2 -1,4 -1,6 -9,19 -26,23 -41,23 -16,0 -37,-4 -44,-30 0,-5 -1,-10 -2,-15 -1,-19 2,-22 9,-30 1,0 1,-1 2,-2 2,3 5,5 8,5 6,0 10,-5 10,-10 0,-6 -4,-10 -10,-10 -5,0 -10,4 -10,10 0,1 0,2 1,3 -1,1 -2,2 -2,2 -8,8 -12,13 -10,32 2,23 7,40 15,60 7,15 25,16 28,16 1,0 1,0 1,0l3 0 0 69c0,16 11,27 25,27zm-25 -126l0 0 0 0c1,0 1,0 1,0 0,0 0,0 0,0l0 0c12,0 27,-2 37,-15 -2,6 -5,11 -9,18 -4,6 -8,8 -10,10 -1,1 -3,1 -4,1l-14 0 -1 0 -14 0c-1,0 -3,0 -4,-1 -2,-2 -6,-4 -10,-10 -4,-7 -7,-12 -9,-18 9,13 25,15 37,15z"/>
  <path class="fil0" d="M160 146c0,-7 -6,-12 -12,-12 -7,0 -12,5 -12,12 0,7 5,12 12,12 6,0 12,-5 12,-12z"/>
  <path class="fil0" d="M133 145c0,-9 7,-16 16,-16 9,0 16,7 16,16 0,8 -7,15 -16,15 -9,0 -16,-7 -16,-15zm-11 82l0 0c18,0 30,-11 30,-27l0 -37c8,-1 15,-9 15,-18 0,-10 -8,-18 -18,-18 -10,0 -18,8 -18,18 0,9 7,17 15,18l0 37c0,14 -9,22 -24,22 -12,0 -21,-9 -21,-22l0 -69c4,0 21,-1 28,-16 8,-20 13,-37 15,-60 2,-20 -2,-24 -10,-32 0,-1 -1,-1 -2,-2 1,-1 1,-2 1,-3 0,-6 -5,-10 -10,-10 -6,0 -10,4 -10,10 0,5 4,10 10,10 3,0 6,-2 8,-5 1,1 1,1 2,2 7,8 10,11 9,30 -1,5 -2,11 -3,16 0,2 -1,4 -1,5 -8,20 -26,23 -41,23 -16,0 -36,-3 -44,-29 0,-5 -1,-10 -1,-15 -2,-19 2,-22 9,-30 0,-1 1,-1 1,-2 2,3 5,5 8,5 6,0 10,-5 10,-10 0,-6 -4,-10 -10,-10 -5,0 -10,4 -10,10 0,1 1,2 1,3 -1,1 -2,1 -2,2 -8,8 -12,12 -10,32 2,23 7,40 16,60 6,15 24,16 27,16 1,0 1,0 1,0l3 0 0 69c0,16 11,27 26,27zm-25 -126l0 0 0 0c0,0 0,0 0,0 0,0 0,0 0,0l0 0c12,0 28,-2 37,-15 -2,6 -5,11 -9,18 -4,6 -8,8 -10,10 -1,1 -3,1 -4,1l-14 0 0 0 -15 0c-1,0 -3,0 -4,-1 -2,-2 -6,-4 -10,-10 -4,-7 -7,-13 -9,-19 10,14 25,16 38,16z"/>
  <path class="fil0" d="M161 145c0,-7 -5,-12 -12,-12 -7,0 -12,5 -12,12 0,6 5,12 12,12 7,0 12,-6 12,-12z"/>
  <path class="fil0" d="M135 144c0,-9 7,-16 15,-16 9,0 16,7 16,16 0,8 -7,15 -16,15 -8,0 -15,-7 -15,-15zm-12 82l0 0c18,0 30,-11 30,-27l0 -37c8,-2 15,-9 15,-18 0,-10 -8,-18 -18,-18 -10,0 -18,8 -18,18 0,9 7,16 16,18l0 37c0,14 -10,22 -25,22 -12,0 -21,-9 -21,-22l0 -69c4,0 21,-1 28,-17 8,-19 13,-36 15,-59 2,-20 -2,-24 -9,-32 -1,-1 -2,-1 -3,-2 1,-1 1,-2 1,-3 0,-6 -5,-10 -10,-10 -6,0 -10,4 -10,10 0,5 4,10 10,10 3,0 6,-2 8,-5 1,1 1,1 2,2 7,7 10,11 9,30 -1,5 -1,11 -2,16 -1,2 -2,4 -2,5 -8,20 -26,23 -41,23 -16,0 -36,-3 -43,-29 -1,-5 -2,-10 -2,-15 -2,-19 2,-23 9,-30 0,-1 1,-1 1,-2 2,3 5,5 8,5 6,0 10,-5 10,-10 0,-6 -4,-10 -10,-10 -5,0 -9,4 -9,10 0,1 0,2 0,3 -1,1 -2,1 -2,2 -7,8 -11,12 -10,32 2,23 7,40 16,59 6,16 24,17 27,17 1,0 1,0 1,0l3 0 0 69c0,16 11,27 26,27zm-25 -126l0 0 0 0c0,0 0,0 0,0 0,0 0,0 0,0l0 0c13,0 28,-2 37,-15 -2,6 -5,11 -9,18 -4,6 -8,8 -10,9 -1,1 -2,2 -4,2l-14 0 0 0 -15 0c-1,0 -3,-1 -4,-2 -2,-1 -6,-3 -9,-9 -5,-8 -8,-13 -10,-19 10,14 25,16 38,16z"/>
  <path class="fil0" d="M162 144c0,-7 -5,-12 -12,-12 -6,0 -12,5 -12,12 0,6 6,12 12,12 7,0 12,-6 12,-12z"/>
  <path class="fil0" d="M136 143c0,-9 7,-16 15,-16 9,0 16,7 16,16 0,8 -7,15 -16,15 -8,0 -15,-7 -15,-15zm-12 82l0 0c18,0 30,-11 30,-27l0 -37c9,-2 15,-9 15,-18 0,-10 -8,-19 -18,-19 -10,0 -18,9 -18,19 0,9 7,16 16,18l0 37c0,13 -10,22 -25,22 -12,0 -21,-9 -21,-22l0 -69c4,0 21,-1 28,-17 8,-19 13,-36 15,-59 2,-20 -2,-24 -9,-32 -1,-1 -2,-2 -2,-2 0,-1 0,-2 0,-3 0,-6 -4,-10 -10,-10 -5,0 -10,4 -10,10 0,5 5,9 10,9 4,0 7,-1 8,-4 1,1 1,1 2,2 7,7 10,11 9,29 -1,6 -1,12 -2,17 -1,2 -1,3 -2,5 -8,20 -25,23 -41,23 -16,0 -36,-3 -43,-29 -1,-5 -2,-10 -2,-16 -2,-18 2,-22 9,-29 0,-1 1,-1 1,-2 2,3 5,4 9,4 5,0 9,-4 9,-9 0,-6 -4,-10 -9,-10 -6,0 -10,4 -10,10 0,1 0,2 0,3 -1,0 -1,1 -2,2 -7,8 -11,12 -10,32 2,23 8,40 16,59 6,16 24,17 28,17 0,0 0,0 0,0l3 0 0 69c0,16 11,27 26,27zm-25 -126l0 0 0 0c0,0 0,0 0,0 0,0 0,0 0,0l0 0c13,0 28,-2 37,-15 -2,5 -5,11 -9,18 -4,5 -8,8 -10,9 -1,1 -2,2 -4,2l-14 0 0 0 -14 0c-2,0 -4,-1 -5,-2 -2,-1 -6,-4 -9,-9 -5,-8 -7,-13 -10,-19 10,13 25,16 38,16z"/>
  <path class="fil0" d="M163 143c0,-7 -5,-12 -12,-12 -6,0 -12,5 -12,12 0,6 6,12 12,12 7,0 12,-6 12,-12z"/>
  <path class="fil0" d="M137 141c0,-8 7,-15 15,-15 9,0 16,7 16,15 0,9 -7,16 -16,16 -8,0 -15,-7 -15,-16zm-12 83l0 0c18,0 30,-11 30,-28l0 -37c9,-1 16,-8 16,-18 0,-10 -9,-18 -19,-18 -10,0 -18,8 -18,18 0,10 7,17 16,18l0 37c0,14 -9,23 -25,23 -12,0 -21,-10 -21,-22l0 -69c4,0 22,-1 28,-17 8,-20 14,-36 16,-60 1,-19 -3,-23 -10,-31 -1,-1 -2,-2 -2,-3 0,-1 0,-2 0,-3 0,-5 -4,-9 -10,-9 -5,0 -10,4 -10,9 0,6 5,10 10,10 4,0 7,-1 9,-4 0,0 1,1 1,2 7,7 11,11 9,29 0,6 -1,12 -2,17 -1,2 -1,3 -2,5 -8,20 -25,23 -41,23 -16,0 -36,-3 -43,-29 -1,-5 -2,-10 -2,-16 -2,-18 2,-22 9,-29 0,-1 1,-2 1,-2 2,3 5,4 9,4 5,0 10,-4 10,-10 0,-5 -5,-9 -10,-9 -6,0 -10,4 -10,9 0,1 0,2 0,3 -1,1 -1,2 -2,3 -7,8 -11,12 -10,31 2,24 8,40 16,60 6,16 24,17 28,17 0,0 0,0 0,0l3 0 0 69c0,15 11,27 26,27zm-25 -126l0 0 0 0c0,0 0,0 0,0 0,0 0,0 1,0l0 0c12,0 27,-3 37,-16 -3,6 -6,11 -10,18 -3,6 -7,9 -9,10 -2,1 -3,2 -5,2l-14 0 0 0 -14 0c-2,0 -3,-1 -5,-2 -2,-1 -6,-4 -9,-10 -5,-7 -7,-12 -10,-18 10,13 25,16 38,16z"/>
  <path class="fil0" d="M164 141c0,-6 -5,-11 -12,-11 -6,0 -12,5 -12,11 0,7 6,12 12,12 7,0 12,-5 12,-12z"/>
  <path class="fil0" d="M138 140c0,-8 7,-15 16,-15 8,0 15,7 15,15 0,9 -7,16 -15,16 -9,0 -16,-7 -16,-16zm-12 83l0 0c18,0 30,-11 30,-28l0 -37c9,-1 16,-9 16,-18 0,-10 -8,-18 -18,-18 -10,0 -19,8 -19,18 0,9 7,17 16,18l0 37c0,14 -9,23 -25,23 -12,0 -21,-10 -21,-22l0 -69c4,0 22,-1 28,-17 8,-20 14,-37 16,-60 1,-19 -3,-23 -10,-31 -1,-1 -1,-2 -2,-3 0,-1 0,-2 0,-3 0,-5 -4,-10 -10,-10 -5,0 -10,5 -10,10 0,6 5,10 10,10 4,0 7,-2 9,-4 0,0 1,1 1,1 7,8 11,12 9,30 0,6 -1,11 -2,17 -1,1 -1,3 -2,5 -8,20 -25,23 -41,23 -15,0 -36,-4 -43,-29 -1,-5 -1,-10 -2,-16 -1,-18 2,-22 9,-30 1,0 1,-1 2,-1 1,2 4,4 8,4 5,0 10,-4 10,-10 0,-5 -5,-10 -10,-10 -6,0 -10,5 -10,10 0,1 0,2 0,3 0,1 -1,2 -2,3 -7,8 -11,12 -9,31 1,23 7,40 15,60 7,16 24,17 28,17 0,0 0,0 0,0l3 0 0 69c0,15 11,27 26,27zm-25 -127l0 0 0 0c0,0 0,0 0,0 0,0 1,0 1,0l0 0c12,0 27,-2 37,-15 -3,6 -5,11 -10,18 -3,6 -7,9 -9,10 -2,1 -3,2 -5,2l-14 0 0 0 -14 0c-2,0 -3,-1 -5,-2 -1,-1 -5,-4 -9,-10 -4,-7 -7,-12 -10,-18 10,13 25,15 38,15z"/>
  <path class="fil0" d="M165 140c0,-6 -5,-12 -11,-12 -7,0 -12,6 -12,12 0,7 5,12 12,12 6,0 11,-5 11,-12z"/>
  <path class="fil0" d="M139 139c0,-8 7,-15 16,-15 8,0 15,7 15,15 0,9 -7,16 -15,16 -9,0 -16,-7 -16,-16zm-12 82l0 0c18,0 30,-10 30,-27l0 -37c9,-1 16,-9 16,-18 0,-10 -8,-18 -18,-18 -10,0 -18,8 -18,18 0,9 6,17 15,18l0 37c0,14 -9,22 -25,22 -12,0 -20,-9 -20,-21l0 -70c3,0 21,0 27,-16 8,-20 14,-37 16,-60 1,-19 -3,-24 -10,-31 -1,-1 -1,-2 -2,-3 0,-1 0,-2 0,-3 0,-5 -4,-10 -10,-10 -5,0 -9,5 -9,10 0,6 4,10 9,10 4,0 7,-2 9,-4 0,0 1,1 1,1 7,8 11,12 9,30 0,6 -1,11 -2,16 0,2 -1,4 -2,6 -8,20 -25,23 -40,23 -16,0 -37,-4 -44,-30 -1,-4 -1,-10 -2,-15 -1,-18 2,-22 9,-30 1,0 1,-1 2,-1 1,2 5,4 8,4 5,0 10,-4 10,-10 0,-5 -5,-10 -10,-10 -6,0 -10,5 -10,10 0,1 0,2 1,3 -1,1 -2,2 -3,3 -7,7 -11,12 -9,31 2,23 7,40 15,60 7,16 25,16 28,16 0,0 1,0 1,0l2 0 0 70c0,15 11,26 26,26zm-25 -126l0 0 0 0c0,0 0,0 1,0 0,0 0,0 0,0l0 0c12,0 27,-2 37,-15 -3,6 -5,11 -10,18 -3,6 -7,8 -9,10 -1,1 -3,1 -5,1l-13 0 -1 0 -14 0c-2,0 -3,0 -4,-1 -2,-2 -6,-4 -10,-10 -4,-7 -7,-12 -10,-18 10,13 26,15 38,15z"/>
  <path class="fil0" d="M167 139c0,-6 -6,-12 -12,-12 -7,0 -12,6 -12,12 0,7 5,12 12,12 6,0 12,-5 12,-12z"/>
  <path class="fil0" d="M140 138c0,-9 7,-16 16,-16 8,0 15,7 15,16 0,9 -7,16 -15,16 -9,0 -16,-7 -16,-16zm-12 82l0 0c19,0 30,-10 30,-27l0 -37c9,-1 16,-9 16,-18 0,-10 -8,-18 -18,-18 -10,0 -18,8 -18,18 0,9 6,17 15,18l0 37c0,14 -9,22 -25,22 -12,0 -20,-9 -20,-22l0 -69c3,0 21,-1 27,-16 9,-20 14,-37 16,-60 2,-19 -2,-24 -10,-32 0,0 -1,-1 -2,-2 0,-1 1,-2 1,-3 0,-5 -5,-10 -10,-10 -6,0 -10,5 -10,10 0,6 4,10 10,10 3,0 6,-2 8,-5 0,1 1,2 1,2 7,8 11,12 9,30 0,6 -1,11 -2,16 0,2 -1,4 -2,6 -8,19 -25,23 -40,23 -16,0 -37,-4 -44,-30 -1,-5 -1,-10 -2,-15 -1,-18 2,-22 9,-30 1,0 1,-1 2,-2 2,3 5,5 8,5 6,0 10,-4 10,-10 0,-5 -4,-10 -10,-10 -5,0 -10,5 -10,10 0,1 0,2 1,3 -1,1 -2,2 -3,2 -7,8 -11,13 -9,32 2,23 7,40 15,60 7,16 25,16 28,16 0,0 1,0 1,0l3 0 0 69c0,16 10,27 25,27zm-25 -126l0 0 0 0c0,0 1,0 1,0 0,0 0,0 0,0l0 0c12,0 27,-2 37,-15 -3,6 -5,11 -9,18 -4,6 -8,8 -10,10 -1,1 -3,1 -4,1l-14 0 -1 0 -14 0c-1,0 -3,0 -4,-1 -2,-2 -6,-4 -10,-10 -4,-7 -7,-12 -9,-18 9,13 25,15 37,15z"/>
  <path class="fil0" d="M168 138c0,-6 -6,-12 -12,-12 -7,0 -12,6 -12,12 0,7 5,12 12,12 6,0 12,-5 12,-12z"/>
  <path class="fil0" d="M141 137c0,-9 7,-16 16,-16 9,0 16,7 16,16 0,9 -7,16 -16,16 -9,0 -16,-7 -16,-16zm-12 82l0 0c19,0 30,-11 30,-27l0 -37c9,-1 16,-9 16,-18 0,-10 -8,-18 -18,-18 -10,0 -18,8 -18,18 0,9 7,17 15,18l0 37c0,14 -9,22 -25,22 -12,0 -20,-9 -20,-22l0 -69c4,0 21,-1 28,-16 8,-20 13,-37 15,-60 2,-20 -2,-24 -10,-32 0,0 -1,-1 -2,-2 1,-1 1,-2 1,-3 0,-6 -5,-10 -10,-10 -6,0 -10,4 -10,10 0,5 4,10 10,10 3,0 6,-2 8,-5 1,1 1,1 2,2 7,8 10,11 9,30 -1,6 -2,11 -3,16 0,2 -1,4 -1,5 -8,20 -26,23 -41,24 -16,-1 -37,-4 -44,-30 0,-5 -1,-10 -2,-15 -1,-19 2,-22 9,-30 1,-1 1,-1 2,-2 2,3 5,5 8,5 6,0 10,-5 10,-10 0,-6 -4,-10 -10,-10 -5,0 -10,4 -10,10 0,1 0,2 1,3 -1,1 -2,2 -2,2 -8,8 -12,12 -10,32 2,23 7,40 15,60 7,15 25,16 28,16 1,0 1,0 1,0l3 0 0 69c0,16 11,27 25,27zm-25 -126l0 0 0 0c1,0 1,0 1,0 0,0 0,0 0,0l0 0c12,0 27,-2 37,-15 -2,6 -5,11 -9,18 -4,6 -8,8 -10,10 -1,1 -3,1 -4,1l-14 0 -1 0 -14 0c-1,0 -3,0 -4,-1 -2,-2 -6,-4 -10,-10 -4,-7 -7,-12 -9,-19 9,14 25,16 37,16z"/>
  <path class="fil0" d="M169 137c0,-7 -6,-12 -12,-12 -7,0 -12,5 -12,12 0,7 5,12 12,12 6,0 12,-5 12,-12z"/>
  <path class="fil1" d="M129 219c-14,0 -25,-11 -25,-27l0 -73c0,-2 1,-3 2,-3 2,0 3,1 3,3l0 73c0,13 8,22 20,22 16,0 25,-8 25,-22l0 -38c0,-1 2,-1 3,-1 1,0 2,0 2,1l0 38c0,16 -11,27 -30,27z"/>
  <path class="fil2" d="M157 155c-10,0 -18,-8 -18,-18 0,-10 8,-18 18,-18 10,0 18,8 18,18 0,10 -8,18 -18,18zm0 -34l0 0c-9,0 -16,7 -16,16 0,9 7,16 16,16 9,0 16,-7 16,-16 0,-9 -7,-16 -16,-16z"/>
  <path class="fil2" d="M169 137c0,7 -6,12 -12,12 -7,0 -12,-5 -12,-12 0,-7 5,-12 12,-12 6,0 12,5 12,12z"/>
  <path class="fil1" d="M100 123c-3,0 -21,-1 -28,-16 -8,-20 -13,-37 -15,-60 -2,-20 2,-24 10,-32 1,-1 3,-3 4,-5l2 2c-1,2 -3,3 -5,5 -7,8 -10,11 -9,30 2,22 8,39 16,59 6,15 26,15 26,15l7 0c0,0 20,0 26,-15 8,-20 14,-37 16,-59 1,-19 -2,-22 -9,-30 -2,-2 -4,-3 -5,-5l2 -2c1,2 3,4 4,5 8,8 12,12 10,32 -2,23 -7,40 -15,60 -8,17 -29,16 -29,16l-7 0c0,0 0,0 -1,0z"/>
  <path class="fil2" d="M88 10c0,5 -4,10 -10,10 -5,0 -10,-5 -10,-10 0,-6 5,-10 10,-10 6,0 10,4 10,10z"/>
  <path class="fil2" d="M121 10c0,5 4,10 10,10 5,0 10,-5 10,-10 0,-6 -5,-10 -10,-10 -6,0 -10,4 -10,10z"/>
  <path class="fil3" d="M133 96c-4,6 -8,8 -10,10 -1,1 -3,1 -4,1l-14 0 -1 0 -14 0c-1,0 -3,0 -4,-1 -2,-2 -6,-4 -10,-10 -8,-14 -10,-20 -17,-40 0,0 4,21 8,32 3,11 6,24 17,30 4,2 10,4 18,4 1,0 16,0 23,-4 10,-6 14,-19 17,-30 4,-11 8,-32 8,-32 -7,20 -9,26 -17,40z"/>
  <path class="fil1" d="M105 93c-19,0 -44,-5 -47,-44l1 0c3,38 28,43 46,43l0 1z"/>
  <path class="fil1" d="M104 93l0 -1c20,0 43,-5 46,-43l2 0c-4,39 -29,44 -48,44z"/>
 </g>
</svg>
