<?xml version="1.0" encoding="UTF-8"?>
<!DOCTYPE svg PUBLIC "-//W3C//DTD SVG 1.1//EN" "http://www.w3.org/Graphics/SVG/1.1/DTD/svg11.dtd">
<!-- Creator: CorelDRAW X8 -->
<svg xmlns="http://www.w3.org/2000/svg" xml:space="preserve" width="1.65347in" height="2.524in" version="1.1" style="shape-rendering:geometricPrecision; text-rendering:geometricPrecision; image-rendering:optimizeQuality; fill-rule:evenodd; clip-rule:evenodd"
viewBox="0 0 410 627"
 xmlns:xlink="http://www.w3.org/1999/xlink">
 <defs>
  <style type="text/css">
   <![CDATA[
    .fil0 {fill:#292E33;fill-rule:nonzero}
   ]]>
  </style>
 </defs>
 <g id="Layer_x0020_1">
  <metadata id="CorelCorpID_0Corel-Layer"/>
  <path class="fil0" d="M304 280l0 -80c20,3 34,19 34,40 0,20 -14,37 -34,40zm0 294l0 -80c20,3 34,20 34,40 0,20 -14,37 -34,40zm-35 -159c-14,-14 -15,-36 -4,-52l57 57c-16,11 -38,10 -53,-5zm23 159c-20,-3 -35,-20 -35,-40 0,-20 15,-37 35,-40l0 80zm-173 -147l0 -80c19,3 34,20 34,40 0,20 -15,37 -34,40zm22 136c-14,14 -36,15 -52,4l56 -57c12,16 10,38 -4,53zm-57 -58c14,-14 36,-15 52,-4l-56 57c-12,-16 -10,-38 4,-53zm22 -158l0 80c-19,-3 -34,-20 -34,-40 0,-20 15,-37 34,-40zm-22 -283c14,-14 36,-16 52,-4l-56 56c-12,-16 -10,-38 4,-52zm68 182c-3,19 -19,34 -39,34 -21,0 -37,-15 -40,-34l79 0zm-79 -13c3,-19 19,-34 40,-34 20,0 36,15 39,34l-79 0zm68 -112c-14,14 -36,16 -52,4l56 -56c12,16 10,38 -4,52zm151 79l0 80c-20,-3 -35,-20 -35,-40 0,-21 15,-37 35,-40zm35 158c14,15 15,37 4,53l-57 -57c16,-11 38,-10 53,4zm11 -259c-3,19 -20,34 -40,34 -20,0 -37,-15 -40,-34l80 0zm-40 -47c20,0 37,15 40,34l-80 0c3,-19 20,-34 40,-34zm78 -52l-342 0c-19,0 -34,15 -34,34l0 558c0,19 15,35 34,35l342 0c19,0 34,-16 34,-35l0 -558c0,-19 -15,-34 -34,-34z"/>
 </g>
</svg>
