<?xml version="1.0" encoding="UTF-8"?>
<!DOCTYPE svg PUBLIC "-//W3C//DTD SVG 1.1//EN" "http://www.w3.org/Graphics/SVG/1.1/DTD/svg11.dtd">
<!-- Creator: CorelDRAW X8 -->
<svg xmlns="http://www.w3.org/2000/svg" xml:space="preserve" width="0.862917in" height="0.740846in" version="1.1" style="shape-rendering:geometricPrecision; text-rendering:geometricPrecision; image-rendering:optimizeQuality; fill-rule:evenodd; clip-rule:evenodd"
viewBox="0 0 104 89"
 xmlns:xlink="http://www.w3.org/1999/xlink">
 <defs>
  <style type="text/css">
   <![CDATA[
    .fil1 {fill:#74CBF2;fill-rule:nonzero}
    .fil0 {fill:#777876;fill-rule:nonzero}
   ]]>
  </style>
 </defs>
 <g id="Layer_x0020_1">
  <metadata id="CorelCorpID_0Corel-Layer"/>
  <path class="fil0" d="M101 51l-13 0 -9 -16c-1,-1 -2,-1 -2,-1l-19 0 -8 -15 9 -15c1,-2 0,-3 -1,-4 -1,0 -2,0 -3,1l-9 16 -17 0 -9 -16c-1,-1 -2,-1 -3,-1 -1,1 -2,2 -1,4l9 15 -9 16c0,1 0,2 0,2l9 16 -8 14 -15 0c-1,0 -2,2 -2,3 0,1 1,2 2,2l15 0 9 16c0,1 1,1 2,1l19 0c1,0 2,0 2,-1l9 -16 19 0c0,0 1,0 2,-1l9 -16 13 0c2,0 3,-1 3,-2 0,-1 -1,-2 -3,-2l0 0z"/>
  <polygon class="fil1" points="29,22 46,22 54,36 46,51 29,51 21,36 "/>
  <polygon class="fil1" points="46,84 29,84 21,70 29,55 46,55 54,70 "/>
 </g>
</svg>
