<?xml version="1.0" encoding="UTF-8"?>
<!DOCTYPE svg PUBLIC "-//W3C//DTD SVG 1.1//EN" "http://www.w3.org/Graphics/SVG/1.1/DTD/svg11.dtd">
<!-- Creator: CorelDRAW X8 -->
<svg xmlns="http://www.w3.org/2000/svg" xml:space="preserve" width="0.81789in" height="0.862236in" version="1.1" style="shape-rendering:geometricPrecision; text-rendering:geometricPrecision; image-rendering:optimizeQuality; fill-rule:evenodd; clip-rule:evenodd"
viewBox="0 0 167 176"
 xmlns:xlink="http://www.w3.org/1999/xlink">
 <defs>
  <style type="text/css">
   <![CDATA[
    .fil2 {fill:#FEFEFE;fill-rule:nonzero}
    .fil1 {fill:#74CBF2;fill-rule:nonzero}
    .fil0 {fill:#727371;fill-rule:nonzero}
   ]]>
  </style>
 </defs>
 <g id="Layer_x0020_1">
  <metadata id="CorelCorpID_0Corel-Layer"/>
  <path class="fil0" d="M146 45l2 -4c2,-3 1,-8 -2,-9l-9 -6c1,-1 3,-2 4,-5 4,-6 2,-15 -5,-19 -7,-4 -16,-2 -20,5 -1,2 -1,4 -2,7l-12 -7c-3,-2 -7,-1 -9,2l-2 4 -16 -9c-5,-3 -12,-1 -15,4l-59 101c-3,6 -1,13 5,16l86 50c5,3 12,1 15,-5l58 -101c4,-5 2,-12 -4,-15l-15 -9z"/>
  <path class="fil1" d="M100 159l0 0c-2,3 -5,4 -8,2l-75 -43c-3,-2 -4,-6 -2,-8l52 -90c2,-3 5,-4 8,-3l10 6c-2,3 -1,7 2,8l45 26c3,2 6,1 8,-2l10 6c3,1 4,5 2,8l-52 90z"/>
  <path class="fil2" d="M121 10l0 0c3,-4 8,-6 12,-3 4,2 5,7 3,12 -1,2 -3,3 -6,4l-9 -6c-1,-2 -1,-5 0,-7l0 0z"/>
  <path class="fil2" d="M84 119l0 0c-17,0 -31,-14 -31,-31 0,-17 14,-30 31,-30 17,0 31,13 31,30 0,17 -14,31 -31,31l0 0z"/>
  <path class="fil0" d="M84 46l0 0c-23,0 -42,19 -42,42 0,24 19,43 42,43 23,0 42,-19 42,-43 0,-23 -19,-42 -42,-42l0 0z"/>
  <path class="fil1" d="M96 75l0 0c0,-1 2,-1 3,-1 1,0 2,0 3,1l2 2c2,2 2,4 0,6l-22 23c0,1 -1,1 -3,1 -1,0 -2,0 -3,-1l-12 -12c-2,-2 -2,-5 0,-6l2 -3c1,0 2,-1 3,-1 1,0 2,1 3,1l7 7 17 -17z"/>
 </g>
</svg>
