<?xml version="1.0" encoding="UTF-8"?>
<!DOCTYPE svg PUBLIC "-//W3C//DTD SVG 1.1//EN" "http://www.w3.org/Graphics/SVG/1.1/DTD/svg11.dtd">
<!-- Creator: CorelDRAW X8 -->
<svg xmlns="http://www.w3.org/2000/svg" xml:space="preserve" width="1.73528in" height="1.09379in" version="1.1" style="shape-rendering:geometricPrecision; text-rendering:geometricPrecision; image-rendering:optimizeQuality; fill-rule:evenodd; clip-rule:evenodd"
viewBox="0 0 670 422"
 xmlns:xlink="http://www.w3.org/1999/xlink">
 <defs>
  <style type="text/css">
   <![CDATA[
    .fil0 {fill:#00A1AC;fill-rule:nonzero}
    .fil1 {fill:white;fill-rule:nonzero}
   ]]>
  </style>
 </defs>
 <g id="Object">
  <metadata id="CorelCorpID_0Corel-Layer"/>
  <path class="fil0" d="M602 36l-355 0 0 -3c0,-18 -15,-33 -33,-33 -18,0 -33,15 -33,33l0 3 -21 0c-56,0 -107,25 -126,101l-34 141c0,44 29,82 69,96 -1,-4 -1,-8 -1,-12 0,-40 32,-73 73,-73 40,0 73,33 73,73 0,6 -1,12 -2,17l223 0c-1,-5 -2,-11 -2,-17 0,-40 33,-73 74,-73 40,0 73,33 73,73 0,6 -1,12 -2,17 51,-5 92,-48 92,-101l0 -141c0,-56 -12,-101 -68,-101z"/>
  <path class="fil1" d="M211 190l-129 0 -9 0 18 -69c0,-2 1,-7 4,-14 6,-35 45,-32 45,-32l71 0 0 115z"/>
  <polygon class="fil1" points="490,220 427,220 427,283 367,283 367,220 304,220 304,159 367,159 367,97 427,97 427,159 490,159 "/>
  <path class="fil0" d="M140 307c32,0 57,26 57,58 0,31 -25,57 -57,57 -32,0 -58,-26 -58,-57 0,-32 26,-58 58,-58z"/>
  <path class="fil0" d="M510 307c31,0 57,26 57,58 0,31 -26,57 -57,57 -32,0 -58,-26 -58,-57 0,-32 26,-58 58,-58z"/>
 </g>
</svg>
