<?xml version="1.0" encoding="UTF-8"?>
<!DOCTYPE svg PUBLIC "-//W3C//DTD SVG 1.1//EN" "http://www.w3.org/Graphics/SVG/1.1/DTD/svg11.dtd">
<!-- Creator: CorelDRAW X8 -->
<svg xmlns="http://www.w3.org/2000/svg" xml:space="preserve" width="1.78101in" height="2.42472in" version="1.1" style="shape-rendering:geometricPrecision; text-rendering:geometricPrecision; image-rendering:optimizeQuality; fill-rule:evenodd; clip-rule:evenodd"
viewBox="0 0 160 218"
 xmlns:xlink="http://www.w3.org/1999/xlink">
 <defs>
  <style type="text/css">
   <![CDATA[
    .fil4 {fill:#463842;fill-rule:nonzero}
    .fil1 {fill:#4FC6E2;fill-rule:nonzero}
    .fil0 {fill:#D3D1D1;fill-rule:nonzero}
    .fil3 {fill:#E40103;fill-rule:nonzero}
    .fil2 {fill:white;fill-rule:nonzero}
   ]]>
  </style>
 </defs>
 <g id="Objects">
  <metadata id="CorelCorpID_0Corel-Layer"/>
  <path class="fil0" d="M58 218c32,0 58,-26 58,-58 0,-26 -17,-48 -41,-55l0 -26 2 0c3,0 4,-2 4,-4 0,-2 -1,-4 -4,-4l-5 0c1,-1 1,-1 1,-2 0,-3 -3,-6 -6,-6 -3,0 -6,3 -6,6 0,1 1,1 1,2l-24 0c-2,0 -3,2 -3,4 0,2 1,4 3,4l3 0 0 26c-24,7 -41,29 -41,55 0,32 26,58 58,58z"/>
  <path class="fil0" d="M67 48c0,2 2,4 4,4 2,0 4,-2 4,-4 0,-2 -2,-4 -4,-4 -2,0 -4,2 -4,4z"/>
  <path class="fil0" d="M43 55c0,3 3,6 6,6 4,0 7,-3 7,-6 0,-4 -3,-7 -7,-7 -3,0 -6,3 -6,7z"/>
  <path class="fil0" d="M59 217c32,0 58,-26 58,-58 0,-26 -17,-48 -41,-55l0 -26 2 0c2,0 4,-2 4,-4 0,-2 -2,-4 -4,-4l-5 0c0,0 1,-1 1,-2 0,-3 -3,-6 -6,-6 -3,0 -6,3 -6,6 0,1 0,2 1,2l-24 0c-2,0 -3,2 -3,4 0,2 1,4 3,4l3 0 0 26c-24,7 -41,29 -41,55 0,32 26,58 58,58z"/>
  <path class="fil0" d="M68 47c0,2 2,4 4,4 2,0 4,-2 4,-4 0,-2 -2,-4 -4,-4 -2,0 -4,2 -4,4z"/>
  <path class="fil0" d="M44 54c0,3 2,6 6,6 4,0 7,-3 7,-6 0,-4 -3,-7 -7,-7 -4,0 -6,3 -6,7z"/>
  <path class="fil0" d="M60 216c32,0 58,-26 58,-58 0,-26 -18,-48 -41,-55l0 -26 2 0c2,0 4,-2 4,-4 0,-2 -2,-4 -4,-4l-5 0c0,0 0,-1 0,-2 0,-3 -2,-5 -5,-5 -3,0 -6,2 -6,5 0,1 0,2 1,2l-24 0c-2,0 -4,2 -4,4 0,2 2,4 4,4l3 0 0 26c-24,7 -41,29 -41,55 0,32 26,58 58,58z"/>
  <path class="fil0" d="M69 46c0,2 2,4 4,4 2,0 3,-2 3,-4 0,-2 -1,-4 -3,-4 -2,0 -4,2 -4,4z"/>
  <path class="fil0" d="M44 53c0,4 3,7 7,7 4,0 7,-3 7,-7 0,-4 -3,-7 -7,-7 -4,0 -7,3 -7,7z"/>
  <path class="fil0" d="M61 215c32,0 58,-26 58,-58 0,-26 -18,-48 -41,-55l0 -26 2 0c2,0 4,-2 4,-4 0,-2 -2,-4 -4,-4l-5 0c0,0 0,-1 0,-2 0,-3 -2,-5 -5,-5 -3,0 -6,2 -6,5 0,1 0,2 0,2l-23 0c-2,0 -4,2 -4,4 0,2 2,4 4,4l3 0 0 26c-24,7 -41,29 -41,55 0,32 26,58 58,58z"/>
  <path class="fil0" d="M70 45c0,3 1,4 4,4 2,0 3,-1 3,-4 0,-2 -1,-3 -3,-3 -3,0 -4,1 -4,3z"/>
  <path class="fil0" d="M45 52c0,4 3,7 7,7 4,0 7,-3 7,-7 0,-4 -3,-7 -7,-7 -4,0 -7,3 -7,7z"/>
  <path class="fil0" d="M61 214c32,0 58,-26 58,-58 0,-26 -17,-48 -40,-55l0 -26 2 0c2,0 4,-2 4,-4 0,-2 -2,-3 -4,-3l-5 0c0,-1 0,-2 0,-3 0,-3 -2,-5 -5,-5 -4,0 -6,2 -6,5 0,1 0,2 0,3l-23 0c-2,0 -4,1 -4,3 0,2 2,4 4,4l2 0 0 26c-23,7 -40,29 -40,55 0,32 25,58 57,58z"/>
  <path class="fil0" d="M71 45c0,2 1,3 3,3 3,0 4,-1 4,-3 0,-3 -1,-4 -4,-4 -2,0 -3,1 -3,4z"/>
  <path class="fil0" d="M46 51c0,4 3,7 7,7 3,0 6,-3 6,-7 0,-4 -3,-6 -6,-6 -4,0 -7,2 -7,6z"/>
  <path class="fil0" d="M62 214c32,0 58,-26 58,-58 0,-26 -17,-49 -41,-56l0 -26 3 0c2,0 4,-1 4,-4 0,-2 -2,-3 -4,-3l-5 0c0,-1 0,-2 0,-2 0,-4 -2,-6 -6,-6 -3,0 -5,2 -5,6 0,0 0,1 0,2l-23 0c-2,0 -4,1 -4,3 0,3 2,4 4,4l2 0 0 26c-23,7 -41,30 -41,56 0,32 26,58 58,58z"/>
  <path class="fil0" d="M71 44c0,2 2,3 4,3 2,0 4,-1 4,-3 0,-2 -2,-4 -4,-4 -2,0 -4,2 -4,4z"/>
  <path class="fil0" d="M47 50c0,4 3,7 7,7 3,0 6,-3 6,-7 0,-3 -3,-6 -6,-6 -4,0 -7,3 -7,6z"/>
  <path class="fil0" d="M63 213c32,0 58,-26 58,-58 0,-26 -17,-48 -41,-56l0 -26 3 0c2,0 4,-1 4,-3 0,-3 -2,-4 -4,-4l-5 0c0,-1 0,-2 0,-2 0,-3 -3,-6 -6,-6 -3,0 -5,3 -5,6 0,0 0,1 0,2l-23 0c-2,0 -4,1 -4,4 0,2 2,3 4,3l2 0 0 26c-23,8 -41,30 -41,56 0,32 26,58 58,58z"/>
  <path class="fil0" d="M72 43c0,2 2,4 4,4 2,0 4,-2 4,-4 0,-2 -2,-4 -4,-4 -2,0 -4,2 -4,4z"/>
  <path class="fil0" d="M48 49c0,4 3,7 7,7 3,0 6,-3 6,-7 0,-3 -3,-6 -6,-6 -4,0 -7,3 -7,6z"/>
  <path class="fil0" d="M64 212c32,0 58,-26 58,-58 0,-26 -17,-48 -41,-56l0 -26 3 0c2,0 3,-1 3,-3 0,-2 -1,-4 -3,-4l-6 0c1,-1 1,-1 1,-2 0,-3 -3,-6 -6,-6 -3,0 -5,3 -5,6 0,1 0,1 0,2l-23 0c-2,0 -4,2 -4,4 0,2 2,3 4,3l2 0 0 26c-24,8 -41,30 -41,56 0,32 26,58 58,58z"/>
  <path class="fil0" d="M73 42c0,2 2,4 4,4 2,0 4,-2 4,-4 0,-2 -2,-4 -4,-4 -2,0 -4,2 -4,4z"/>
  <path class="fil0" d="M49 48c0,4 3,7 6,7 4,0 7,-3 7,-7 0,-3 -3,-6 -7,-6 -3,0 -6,3 -6,6z"/>
  <path class="fil0" d="M65 211c32,0 58,-26 58,-58 0,-26 -17,-48 -41,-55l0 -26 3 0c2,0 3,-2 3,-4 0,-2 -1,-4 -3,-4l-6 0c1,-1 1,-1 1,-2 0,-3 -3,-6 -6,-6 -3,0 -6,3 -6,6 0,1 1,1 1,2l-23 0c-3,0 -4,2 -4,4 0,2 1,4 4,4l2 0 0 26c-24,7 -41,29 -41,55 0,32 26,58 58,58z"/>
  <path class="fil0" d="M74 41c0,2 2,4 4,4 2,0 4,-2 4,-4 0,-2 -2,-4 -4,-4 -2,0 -4,2 -4,4z"/>
  <path class="fil0" d="M50 48c0,3 3,6 6,6 4,0 7,-3 7,-6 0,-4 -3,-7 -7,-7 -3,0 -6,3 -6,7z"/>
  <path class="fil0" d="M66 210c32,0 58,-26 58,-58 0,-26 -17,-48 -41,-55l0 -26 2 0c2,0 4,-2 4,-4 0,-2 -2,-4 -4,-4l-5 0c0,0 1,-1 1,-2 0,-3 -3,-6 -6,-6 -3,0 -6,3 -6,6 0,1 0,2 1,2l-24 0c-2,0 -3,2 -3,4 0,2 1,4 3,4l3 0 0 26c-24,7 -41,29 -41,55 0,32 26,58 58,58z"/>
  <path class="fil0" d="M75 40c0,2 2,4 4,4 2,0 4,-2 4,-4 0,-2 -2,-4 -4,-4 -2,0 -4,2 -4,4z"/>
  <path class="fil0" d="M51 47c0,3 3,6 6,6 4,0 7,-3 7,-6 0,-4 -3,-7 -7,-7 -3,0 -6,3 -6,7z"/>
  <path class="fil0" d="M67 209c32,0 58,-26 58,-58 0,-26 -17,-48 -41,-55l0 -26 2 0c2,0 4,-2 4,-4 0,-2 -2,-4 -4,-4l-5 0c0,0 1,-1 1,-2 0,-3 -3,-5 -6,-5 -3,0 -6,2 -6,5 0,1 0,2 1,2l-24 0c-2,0 -3,2 -3,4 0,2 1,4 3,4l3 0 0 26c-24,7 -41,29 -41,55 0,32 26,58 58,58z"/>
  <path class="fil0" d="M76 39c0,2 2,4 4,4 2,0 4,-2 4,-4 0,-2 -2,-4 -4,-4 -2,0 -4,2 -4,4z"/>
  <path class="fil0" d="M51 46c0,3 3,6 7,6 4,0 7,-3 7,-6 0,-4 -3,-7 -7,-7 -4,0 -7,3 -7,7z"/>
  <path class="fil0" d="M68 208c32,0 58,-26 58,-58 0,-26 -18,-48 -41,-55l0 -26 2 0c2,0 4,-2 4,-4 0,-2 -2,-4 -4,-4l-5 0c0,0 0,-1 0,-2 0,-3 -2,-5 -5,-5 -3,0 -6,2 -6,5 0,1 0,2 0,2l-23 0c-2,0 -4,2 -4,4 0,2 2,4 4,4l3 0 0 26c-24,7 -41,29 -41,55 0,32 26,58 58,58z"/>
  <path class="fil0" d="M77 38c0,2 1,4 4,4 2,0 3,-2 3,-4 0,-2 -1,-4 -3,-4 -3,0 -4,2 -4,4z"/>
  <path class="fil0" d="M52 45c0,4 3,7 7,7 4,0 7,-3 7,-7 0,-4 -3,-7 -7,-7 -4,0 -7,3 -7,7z"/>
  <path class="fil0" d="M69 207c32,0 58,-26 58,-58 0,-26 -18,-48 -41,-55l0 -26 2 0c2,0 4,-2 4,-4 0,-2 -2,-4 -4,-4l-5 0c0,0 0,-1 0,-2 0,-3 -2,-5 -5,-5 -4,0 -6,2 -6,5 0,1 0,2 0,2l-23 0c-2,0 -4,2 -4,4 0,2 2,4 4,4l2 0 0 26c-23,7 -40,29 -40,55 0,32 26,58 58,58z"/>
  <path class="fil0" d="M78 37c0,3 1,4 3,4 3,0 4,-1 4,-4 0,-2 -1,-3 -4,-3 -2,0 -3,1 -3,3z"/>
  <path class="fil0" d="M53 44c0,4 3,7 7,7 4,0 6,-3 6,-7 0,-4 -2,-7 -6,-7 -4,0 -7,3 -7,7z"/>
  <path class="fil0" d="M69 206c32,0 58,-25 58,-57 0,-27 -17,-49 -40,-56l0 -26 2 0c2,0 4,-2 4,-4 0,-2 -2,-3 -4,-3l-5 0c0,-1 0,-2 0,-2 0,-4 -2,-6 -5,-6 -4,0 -6,2 -6,6 0,0 0,1 0,2l-23 0c-2,0 -4,1 -4,3 0,2 2,4 4,4l2 0 0 26c-23,7 -41,29 -41,56 0,32 26,57 58,57z"/>
  <path class="fil0" d="M79 37c0,2 1,3 3,3 2,0 4,-1 4,-3 0,-3 -2,-4 -4,-4 -2,0 -3,1 -3,4z"/>
  <path class="fil0" d="M54 43c0,4 3,7 7,7 3,0 6,-3 6,-7 0,-3 -3,-6 -6,-6 -4,0 -7,3 -7,6z"/>
  <path class="fil0" d="M70 206c32,0 58,-26 58,-58 0,-26 -17,-48 -41,-56l0 -26 3 0c2,0 4,-1 4,-4 0,-2 -2,-3 -4,-3l-5 0c0,-1 0,-2 0,-2 0,-3 -2,-6 -6,-6 -3,0 -5,3 -5,6 0,0 0,1 0,2l-23 0c-2,0 -4,1 -4,3 0,3 2,4 4,4l2 0 0 26c-23,8 -41,30 -41,56 0,32 26,58 58,58z"/>
  <path class="fil0" d="M79 36c0,2 2,4 4,4 2,0 4,-2 4,-4 0,-2 -2,-4 -4,-4 -2,0 -4,2 -4,4z"/>
  <path class="fil0" d="M55 42c0,4 3,7 7,7 3,0 6,-3 6,-7 0,-3 -3,-6 -6,-6 -4,0 -7,3 -7,6z"/>
  <path class="fil0" d="M71 205c32,0 58,-26 58,-58 0,-26 -17,-48 -41,-56l0 -26 3 0c2,0 3,-1 3,-3 0,-2 -1,-4 -3,-4l-5 0c0,-1 0,-1 0,-2 0,-3 -3,-6 -6,-6 -3,0 -5,3 -5,6 0,1 0,1 0,2l-23 0c-2,0 -4,2 -4,4 0,2 2,3 4,3l2 0 0 26c-24,8 -41,30 -41,56 0,32 26,58 58,58z"/>
  <path class="fil0" d="M80 35c0,2 2,4 4,4 2,0 4,-2 4,-4 0,-2 -2,-4 -4,-4 -2,0 -4,2 -4,4z"/>
  <path class="fil0" d="M56 41c0,4 3,7 7,7 3,0 6,-3 6,-7 0,-3 -3,-6 -6,-6 -4,0 -7,3 -7,6z"/>
  <path class="fil0" d="M72 204c32,0 58,-26 58,-58 0,-26 -17,-48 -41,-56l0 -26 3 0c2,0 3,-1 3,-3 0,-2 -1,-4 -3,-4l-6 0c1,-1 1,-1 1,-2 0,-3 -3,-6 -6,-6 -3,0 -5,3 -5,6 0,1 0,1 0,2l-23 0c-2,0 -4,2 -4,4 0,2 2,3 4,3l2 0 0 26c-24,8 -41,30 -41,56 0,32 26,58 58,58z"/>
  <path class="fil0" d="M81 34c0,2 2,4 4,4 2,0 4,-2 4,-4 0,-2 -2,-4 -4,-4 -2,0 -4,2 -4,4z"/>
  <path class="fil0" d="M57 41c0,3 3,6 6,6 4,0 7,-3 7,-6 0,-4 -3,-7 -7,-7 -3,0 -6,3 -6,7z"/>
  <path class="fil0" d="M73 203c32,0 58,-26 58,-58 0,-26 -17,-48 -41,-55l0 -26 2 0c3,0 4,-2 4,-4 0,-2 -1,-4 -4,-4l-5 0c1,-1 1,-1 1,-2 0,-3 -3,-6 -6,-6 -3,0 -6,3 -6,6 0,1 1,1 1,2l-24 0c-2,0 -3,2 -3,4 0,2 1,4 3,4l3 0 0 26c-24,7 -41,29 -41,55 0,32 26,58 58,58z"/>
  <path class="fil0" d="M82 33c0,2 2,4 4,4 2,0 4,-2 4,-4 0,-2 -2,-4 -4,-4 -2,0 -4,2 -4,4z"/>
  <path class="fil0" d="M58 40c0,3 3,6 6,6 4,0 7,-3 7,-6 0,-4 -3,-7 -7,-7 -3,0 -6,3 -6,7z"/>
  <path class="fil0" d="M74 202c32,0 58,-26 58,-58 0,-26 -17,-48 -41,-55l0 -26 2 0c2,0 4,-2 4,-4 0,-2 -2,-4 -4,-4l-5 0c0,0 1,-1 1,-2 0,-3 -3,-6 -6,-6 -3,0 -6,3 -6,6 0,1 0,2 1,2l-24 0c-2,0 -3,2 -3,4 0,2 1,4 3,4l3 0 0 26c-24,7 -41,29 -41,55 0,32 26,58 58,58z"/>
  <path class="fil0" d="M83 32c0,2 2,4 4,4 2,0 4,-2 4,-4 0,-2 -2,-4 -4,-4 -2,0 -4,2 -4,4z"/>
  <path class="fil0" d="M59 39c0,3 3,6 6,6 4,0 7,-3 7,-6 0,-4 -3,-7 -7,-7 -3,0 -6,3 -6,7z"/>
  <path class="fil0" d="M75 201c32,0 58,-26 58,-58 0,-26 -18,-48 -41,-55l0 -26 2 0c2,0 4,-2 4,-4 0,-2 -2,-4 -4,-4l-5 0c0,0 0,-1 0,-2 0,-3 -2,-5 -5,-5 -3,0 -6,2 -6,5 0,1 0,2 1,2l-24 0c-2,0 -4,2 -4,4 0,2 2,4 4,4l3 0 0 26c-24,7 -41,29 -41,55 0,32 26,58 58,58z"/>
  <path class="fil0" d="M84 31c0,2 2,4 4,4 2,0 4,-2 4,-4 0,-2 -2,-4 -4,-4 -2,0 -4,2 -4,4z"/>
  <path class="fil0" d="M59 38c0,4 3,7 7,7 4,0 7,-3 7,-7 0,-4 -3,-7 -7,-7 -4,0 -7,3 -7,7z"/>
  <path class="fil0" d="M76 200c32,0 58,-26 58,-58 0,-26 -18,-48 -41,-55l0 -26 2 0c2,0 4,-2 4,-4 0,-2 -2,-4 -4,-4l-5 0c0,0 0,-1 0,-2 0,-3 -2,-5 -5,-5 -3,0 -6,2 -6,5 0,1 0,2 0,2l-23 0c-2,0 -4,2 -4,4 0,2 2,4 4,4l3 0 0 26c-24,7 -41,29 -41,55 0,32 26,58 58,58z"/>
  <path class="fil0" d="M85 30c0,2 1,4 4,4 2,0 3,-2 3,-4 0,-2 -1,-3 -3,-3 -3,0 -4,1 -4,3z"/>
  <path class="fil0" d="M60 37c0,4 3,7 7,7 4,0 7,-3 7,-7 0,-4 -3,-7 -7,-7 -4,0 -7,3 -7,7z"/>
  <path class="fil0" d="M77 199c32,0 57,-26 57,-58 0,-26 -17,-48 -40,-55l0 -26 2 0c2,0 4,-2 4,-4 0,-2 -2,-3 -4,-3l-5 0c0,-1 0,-2 0,-3 0,-3 -2,-5 -5,-5 -4,0 -6,2 -6,5 0,1 0,2 0,3l-23 0c-2,0 -4,1 -4,3 0,2 2,4 4,4l2 0 0 26c-23,7 -40,29 -40,55 0,32 26,58 58,58z"/>
  <path class="fil0" d="M86 29c0,3 1,4 3,4 3,0 4,-1 4,-4 0,-2 -1,-3 -4,-3 -2,0 -3,1 -3,3z"/>
  <path class="fil0" d="M61 36c0,4 3,7 7,7 3,0 6,-3 6,-7 0,-4 -3,-7 -6,-7 -4,0 -7,3 -7,7z"/>
  <path class="fil0" d="M77 199c32,0 58,-26 58,-58 0,-26 -17,-49 -41,-56l0 -26 3 0c2,0 4,-2 4,-4 0,-2 -2,-3 -4,-3l-5 0c0,-1 0,-2 0,-2 0,-4 -2,-6 -6,-6 -3,0 -5,2 -5,6 0,0 0,1 0,2l-23 0c-2,0 -4,1 -4,3 0,2 2,4 4,4l2 0 0 26c-23,7 -41,30 -41,56 0,32 26,58 58,58z"/>
  <path class="fil0" d="M86 29c0,2 2,3 4,3 2,0 4,-1 4,-3 0,-3 -2,-4 -4,-4 -2,0 -4,1 -4,4z"/>
  <path class="fil0" d="M62 35c0,4 3,7 7,7 3,0 6,-3 6,-7 0,-3 -3,-6 -6,-6 -4,0 -7,3 -7,6z"/>
  <path class="fil0" d="M78 198c32,0 58,-26 58,-58 0,-26 -17,-48 -41,-56l0 -26 3 0c2,0 4,-1 4,-3 0,-3 -2,-4 -4,-4l-5 0c0,-1 0,-2 0,-2 0,-3 -3,-6 -6,-6 -3,0 -5,3 -5,6 0,0 0,1 0,2l-23 0c-2,0 -4,1 -4,4 0,2 2,3 4,3l2 0 0 26c-23,8 -41,30 -41,56 0,32 26,58 58,58z"/>
  <path class="fil0" d="M87 28c0,2 2,4 4,4 2,0 4,-2 4,-4 0,-2 -2,-4 -4,-4 -2,0 -4,2 -4,4z"/>
  <path class="fil0" d="M63 34c0,4 3,7 7,7 3,0 6,-3 6,-7 0,-3 -3,-6 -6,-6 -4,0 -7,3 -7,6z"/>
  <path class="fil0" d="M79 197c32,0 58,-26 58,-58 0,-26 -17,-48 -41,-56l0 -26 3 0c2,0 3,-1 3,-3 0,-2 -1,-4 -3,-4l-6 0c1,-1 1,-1 1,-2 0,-3 -3,-6 -6,-6 -3,0 -5,3 -5,6 0,1 0,1 0,2l-23 0c-2,0 -4,2 -4,4 0,2 2,3 4,3l2 0 0 26c-24,8 -41,30 -41,56 0,32 26,58 58,58z"/>
  <path class="fil0" d="M88 27c0,2 2,4 4,4 2,0 4,-2 4,-4 0,-2 -2,-4 -4,-4 -2,0 -4,2 -4,4z"/>
  <path class="fil0" d="M64 33c0,4 3,7 6,7 4,0 7,-3 7,-7 0,-3 -3,-6 -7,-6 -3,0 -6,3 -6,6z"/>
  <path class="fil0" d="M80 196c32,0 58,-26 58,-58 0,-26 -17,-48 -41,-55l0 -26 3 0c2,0 3,-2 3,-4 0,-2 -1,-4 -3,-4l-6 0c1,-1 1,-1 1,-2 0,-3 -3,-6 -6,-6 -3,0 -6,3 -6,6 0,1 1,1 1,2l-23 0c-3,0 -4,2 -4,4 0,2 1,4 4,4l2 0 0 26c-24,7 -41,29 -41,55 0,32 26,58 58,58z"/>
  <path class="fil0" d="M89 26c0,2 2,4 4,4 2,0 4,-2 4,-4 0,-2 -2,-4 -4,-4 -2,0 -4,2 -4,4z"/>
  <path class="fil0" d="M65 33c0,3 3,6 6,6 4,0 7,-3 7,-6 0,-4 -3,-7 -7,-7 -3,0 -6,3 -6,7z"/>
  <path class="fil0" d="M81 195c32,0 58,-26 58,-58 0,-26 -17,-48 -41,-55l0 -26 2 0c2,0 4,-2 4,-4 0,-2 -2,-4 -4,-4l-5 0c0,-1 1,-1 1,-2 0,-3 -3,-6 -6,-6 -3,0 -6,3 -6,6 0,1 0,1 1,2l-24 0c-2,0 -3,2 -3,4 0,2 1,4 3,4l3 0 0 26c-24,7 -41,29 -41,55 0,32 26,58 58,58z"/>
  <path class="fil0" d="M90 25c0,2 2,4 4,4 2,0 4,-2 4,-4 0,-2 -2,-4 -4,-4 -2,0 -4,2 -4,4z"/>
  <path class="fil0" d="M66 32c0,3 3,6 6,6 4,0 7,-3 7,-6 0,-4 -3,-7 -7,-7 -3,0 -6,3 -6,7z"/>
  <path class="fil0" d="M82 194c32,0 58,-26 58,-58 0,-26 -17,-48 -41,-55l0 -26 2 0c2,0 4,-2 4,-4 0,-2 -2,-4 -4,-4l-5 0c0,0 1,-1 1,-2 0,-3 -3,-5 -6,-5 -3,0 -6,2 -6,5 0,1 0,2 1,2l-24 0c-2,0 -3,2 -3,4 0,2 1,4 3,4l3 0 0 26c-24,7 -41,29 -41,55 0,32 26,58 58,58z"/>
  <path class="fil0" d="M91 24c0,2 2,4 4,4 2,0 4,-2 4,-4 0,-2 -2,-4 -4,-4 -2,0 -4,2 -4,4z"/>
  <path class="fil0" d="M66 31c0,3 3,6 7,6 4,0 7,-3 7,-6 0,-4 -3,-7 -7,-7 -4,0 -7,3 -7,7z"/>
  <path class="fil0" d="M83 193c32,0 58,-26 58,-58 0,-26 -18,-48 -41,-55l0 -26 2 0c2,0 4,-2 4,-4 0,-2 -2,-4 -4,-4l-5 0c0,0 0,-1 0,-2 0,-3 -2,-5 -5,-5 -3,0 -6,2 -6,5 0,1 0,2 1,2l-24 0c-2,0 -4,2 -4,4 0,2 2,4 4,4l3 0 0 26c-24,7 -41,29 -41,55 0,32 26,58 58,58z"/>
  <path class="fil0" d="M92 23c0,2 1,4 4,4 2,0 3,-2 3,-4 0,-2 -1,-4 -3,-4 -3,0 -4,2 -4,4z"/>
  <path class="fil0" d="M67 30c0,4 3,7 7,7 4,0 7,-3 7,-7 0,-4 -3,-7 -7,-7 -4,0 -7,3 -7,7z"/>
  <path class="fil0" d="M84 192c32,0 58,-26 58,-58 0,-26 -18,-48 -41,-55l0 -26 2 0c2,0 4,-2 4,-4 0,-2 -2,-4 -4,-4l-5 0c0,0 0,-1 0,-2 0,-3 -2,-5 -5,-5 -3,0 -6,2 -6,5 0,1 0,2 0,2l-23 0c-2,0 -4,2 -4,4 0,2 2,4 4,4l3 0 0 26c-24,7 -41,29 -41,55 0,32 26,58 58,58z"/>
  <path class="fil0" d="M93 22c0,3 1,4 3,4 3,0 4,-1 4,-4 0,-2 -1,-3 -4,-3 -2,0 -3,1 -3,3z"/>
  <path class="fil0" d="M68 29c0,4 3,7 7,7 4,0 7,-3 7,-7 0,-4 -3,-7 -7,-7 -4,0 -7,3 -7,7z"/>
  <path class="fil0" d="M84 191c32,0 58,-26 58,-58 0,-26 -17,-48 -40,-55l0 -26 2 0c2,0 4,-2 4,-4 0,-2 -2,-3 -4,-3l-5 0c0,-1 0,-2 0,-2 0,-4 -2,-6 -5,-6 -4,0 -6,2 -6,6 0,0 0,1 0,2l-23 0c-2,0 -4,1 -4,3 0,2 2,4 4,4l2 0 0 26c-23,7 -40,29 -40,55 0,32 25,58 57,58z"/>
  <path class="fil0" d="M94 22c0,2 1,3 3,3 3,0 4,-1 4,-3 0,-3 -1,-4 -4,-4 -2,0 -3,1 -3,4z"/>
  <path class="fil0" d="M69 28c0,4 3,7 7,7 3,0 6,-3 6,-7 0,-4 -3,-6 -6,-6 -4,0 -7,2 -7,6z"/>
  <path class="fil0" d="M85 191c32,0 58,-26 58,-58 0,-26 -17,-48 -41,-56l0 -26 3 0c2,0 4,-1 4,-4 0,-2 -2,-3 -4,-3l-5 0c0,-1 0,-2 0,-2 0,-3 -2,-6 -6,-6 -3,0 -5,3 -5,6 0,0 0,1 0,2l-23 0c-2,0 -4,1 -4,3 0,3 2,4 4,4l2 0 0 26c-23,8 -41,30 -41,56 0,32 26,58 58,58z"/>
  <path class="fil0" d="M94 21c0,2 2,3 4,3 2,0 4,-1 4,-3 0,-2 -2,-4 -4,-4 -2,0 -4,2 -4,4z"/>
  <path class="fil0" d="M70 27c0,4 3,7 7,7 3,0 6,-3 6,-7 0,-3 -3,-6 -6,-6 -4,0 -7,3 -7,6z"/>
  <path class="fil0" d="M86 190c32,0 58,-26 58,-58 0,-26 -17,-48 -41,-56l0 -26 3 0c2,0 3,-1 3,-3 0,-2 -1,-4 -3,-4l-5 0c0,-1 0,-2 0,-2 0,-3 -3,-6 -6,-6 -3,0 -5,3 -5,6 0,0 0,1 0,2l-23 0c-2,0 -4,2 -4,4 0,2 2,3 4,3l2 0 0 26c-24,8 -41,30 -41,56 0,32 26,58 58,58z"/>
  <path class="fil0" d="M95 20c0,2 2,4 4,4 2,0 4,-2 4,-4 0,-2 -2,-4 -4,-4 -2,0 -4,2 -4,4z"/>
  <path class="fil0" d="M71 26c0,4 3,7 7,7 3,0 6,-3 6,-7 0,-3 -3,-6 -6,-6 -4,0 -7,3 -7,6z"/>
  <path class="fil0" d="M87 189c32,0 58,-26 58,-58 0,-26 -17,-48 -41,-56l0 -26 3 0c2,0 3,-1 3,-3 0,-2 -1,-4 -3,-4l-6 0c1,-1 1,-1 1,-2 0,-3 -3,-6 -6,-6 -3,0 -5,3 -5,6 0,1 0,1 0,2l-23 0c-2,0 -4,2 -4,4 0,2 2,3 4,3l2 0 0 26c-24,8 -41,30 -41,56 0,32 26,58 58,58z"/>
  <path class="fil0" d="M96 19c0,2 2,4 4,4 2,0 4,-2 4,-4 0,-2 -2,-4 -4,-4 -2,0 -4,2 -4,4z"/>
  <path class="fil0" d="M72 26c0,3 3,6 6,6 4,0 7,-3 7,-6 0,-4 -3,-7 -7,-7 -3,0 -6,3 -6,7z"/>
  <path class="fil0" d="M88 188c32,0 58,-26 58,-58 0,-26 -17,-48 -41,-55l0 -26 2 0c3,0 4,-2 4,-4 0,-2 -1,-4 -4,-4l-5 0c1,-1 1,-1 1,-2 0,-3 -3,-6 -6,-6 -3,0 -6,3 -6,6 0,1 1,1 1,2l-23 0c-3,0 -4,2 -4,4 0,2 1,4 4,4l2 0 0 26c-24,7 -41,29 -41,55 0,32 26,58 58,58z"/>
  <path class="fil0" d="M97 18c0,2 2,4 4,4 2,0 4,-2 4,-4 0,-2 -2,-4 -4,-4 -2,0 -4,2 -4,4z"/>
  <path class="fil0" d="M73 25c0,3 3,6 6,6 4,0 7,-3 7,-6 0,-4 -3,-7 -7,-7 -3,0 -6,3 -6,7z"/>
  <path class="fil0" d="M89 187c32,0 58,-26 58,-58 0,-26 -17,-48 -41,-55l0 -26 2 0c2,0 4,-2 4,-4 0,-2 -2,-4 -4,-4l-5 0c0,0 1,-1 1,-2 0,-3 -3,-6 -6,-6 -3,0 -6,3 -6,6 0,1 0,2 1,2l-24 0c-2,0 -3,2 -3,4 0,2 1,4 3,4l3 0 0 26c-24,7 -41,29 -41,55 0,32 26,58 58,58z"/>
  <path class="fil0" d="M98 17c0,2 2,4 4,4 2,0 4,-2 4,-4 0,-2 -2,-4 -4,-4 -2,0 -4,2 -4,4z"/>
  <path class="fil0" d="M74 24c0,3 3,6 6,6 4,0 7,-3 7,-6 0,-4 -3,-7 -7,-7 -3,0 -6,3 -6,7z"/>
  <path class="fil0" d="M90 186c32,0 58,-26 58,-58 0,-26 -17,-48 -41,-55l0 -26 2 0c2,0 4,-2 4,-4 0,-2 -2,-4 -4,-4l-5 0c0,0 0,-1 0,-2 0,-3 -2,-5 -5,-5 -3,0 -6,2 -6,5 0,1 0,2 1,2l-24 0c-2,0 -3,2 -3,4 0,2 1,4 3,4l3 0 0 26c-24,7 -41,29 -41,55 0,32 26,58 58,58z"/>
  <path class="fil0" d="M99 16c0,2 2,4 4,4 2,0 4,-2 4,-4 0,-2 -2,-4 -4,-4 -2,0 -4,2 -4,4z"/>
  <path class="fil0" d="M74 23c0,4 3,6 7,6 4,0 7,-2 7,-6 0,-4 -3,-7 -7,-7 -4,0 -7,3 -7,7z"/>
  <path class="fil0" d="M91 185c32,0 58,-26 58,-58 0,-26 -18,-48 -41,-55l0 -26 2 0c2,0 4,-2 4,-4 0,-2 -2,-4 -4,-4l-5 0c0,0 0,-1 0,-2 0,-3 -2,-5 -5,-5 -3,0 -6,2 -6,5 0,1 0,2 0,2l-23 0c-2,0 -4,2 -4,4 0,2 2,4 4,4l3 0 0 26c-24,7 -41,29 -41,55 0,32 26,58 58,58z"/>
  <path class="fil0" d="M100 15c0,2 1,4 4,4 2,0 3,-2 3,-4 0,-2 -1,-4 -3,-4 -3,0 -4,2 -4,4z"/>
  <path class="fil0" d="M75 22c0,4 3,7 7,7 4,0 7,-3 7,-7 0,-4 -3,-7 -7,-7 -4,0 -7,3 -7,7z"/>
  <path class="fil0" d="M92 184c32,0 57,-26 57,-58 0,-26 -17,-48 -40,-55l0 -26 2 0c2,0 4,-2 4,-4 0,-2 -2,-3 -4,-3l-5 0c0,-1 0,-2 0,-3 0,-3 -2,-5 -5,-5 -4,0 -6,2 -6,5 0,1 0,2 0,3l-23 0c-2,0 -4,1 -4,3 0,2 2,4 4,4l2 0 0 26c-23,7 -40,29 -40,55 0,32 26,58 58,58z"/>
  <path class="fil0" d="M101 14c0,3 1,4 3,4 3,0 4,-1 4,-4 0,-2 -1,-3 -4,-3 -2,0 -3,1 -3,3z"/>
  <path class="fil0" d="M76 21c0,4 3,7 7,7 4,0 6,-3 6,-7 0,-4 -2,-7 -6,-7 -4,0 -7,3 -7,7z"/>
  <path class="fil0" d="M92 183c32,0 58,-25 58,-57 0,-27 -17,-49 -41,-56l0 -26 3 0c2,0 4,-2 4,-4 0,-2 -2,-3 -4,-3l-5 0c0,-1 0,-2 0,-2 0,-4 -2,-6 -6,-6 -3,0 -5,2 -5,6 0,0 0,1 0,2l-23 0c-2,0 -4,1 -4,3 0,2 2,4 4,4l2 0 0 26c-23,7 -41,29 -41,56 0,32 26,57 58,57z"/>
  <path class="fil0" d="M101 14c0,2 2,3 4,3 2,0 4,-1 4,-3 0,-3 -2,-4 -4,-4 -2,0 -4,1 -4,4z"/>
  <path class="fil0" d="M77 20c0,4 3,7 7,7 3,0 6,-3 6,-7 0,-3 -3,-6 -6,-6 -4,0 -7,3 -7,6z"/>
  <path class="fil0" d="M93 183c32,0 58,-26 58,-58 0,-26 -17,-48 -41,-56l0 -26 3 0c2,0 4,-1 4,-3 0,-3 -2,-4 -4,-4l-5 0c0,-1 0,-2 0,-2 0,-3 -3,-6 -6,-6 -3,0 -5,3 -5,6 0,0 0,1 0,2l-23 0c-2,0 -4,1 -4,4 0,2 2,3 4,3l2 0 0 26c-23,8 -41,30 -41,56 0,32 26,58 58,58z"/>
  <path class="fil0" d="M102 13c0,2 2,4 4,4 2,0 4,-2 4,-4 0,-2 -2,-4 -4,-4 -2,0 -4,2 -4,4z"/>
  <path class="fil0" d="M78 19c0,4 3,7 7,7 3,0 6,-3 6,-7 0,-3 -3,-6 -6,-6 -4,0 -7,3 -7,6z"/>
  <path class="fil0" d="M94 182c32,0 58,-26 58,-58 0,-26 -17,-48 -41,-56l0 -26 3 0c2,0 3,-1 3,-3 0,-2 -1,-4 -3,-4l-5 0c0,-1 0,-1 0,-2 0,-3 -3,-6 -6,-6 -3,0 -5,3 -5,6 0,1 0,1 0,2l-23 0c-2,0 -4,2 -4,4 0,2 2,3 4,3l2 0 0 26c-24,8 -41,30 -41,56 0,32 26,58 58,58z"/>
  <path class="fil0" d="M103 12c0,2 2,4 4,4 2,0 4,-2 4,-4 0,-2 -2,-4 -4,-4 -2,0 -4,2 -4,4z"/>
  <path class="fil0" d="M79 18c0,4 3,7 6,7 4,0 7,-3 7,-7 0,-3 -3,-6 -7,-6 -3,0 -6,3 -6,6z"/>
  <path class="fil0" d="M95 181c32,0 58,-26 58,-58 0,-26 -17,-48 -41,-56l0 -25 3 0c2,0 3,-2 3,-4 0,-2 -1,-4 -3,-4l-6 0c1,-1 1,-1 1,-2 0,-3 -3,-6 -6,-6 -3,0 -6,3 -6,6 0,1 1,1 1,2l-23 0c-2,0 -4,2 -4,4 0,2 2,4 4,4l2 0 0 25c-24,8 -41,30 -41,56 0,32 26,58 58,58z"/>
  <path class="fil0" d="M104 11c0,2 2,4 4,4 2,0 4,-2 4,-4 0,-2 -2,-4 -4,-4 -2,0 -4,2 -4,4z"/>
  <path class="fil0" d="M80 18c0,3 3,6 6,6 4,0 7,-3 7,-6 0,-4 -3,-7 -7,-7 -3,0 -6,3 -6,7z"/>
  <path class="fil0" d="M96 180c32,0 58,-26 58,-58 0,-26 -17,-48 -41,-55l0 -26 2 0c3,0 4,-2 4,-4 0,-2 -1,-4 -4,-4l-5 0c1,-1 1,-1 1,-2 0,-3 -3,-6 -6,-6 -3,0 -6,3 -6,6 0,1 1,1 1,2l-24 0c-2,0 -3,2 -3,4 0,2 1,4 3,4l3 0 0 26c-24,7 -41,29 -41,55 0,32 26,58 58,58z"/>
  <path class="fil0" d="M105 10c0,2 2,4 4,4 2,0 4,-2 4,-4 0,-2 -2,-4 -4,-4 -2,0 -4,2 -4,4z"/>
  <path class="fil0" d="M81 17c0,3 3,6 6,6 4,0 7,-3 7,-6 0,-4 -3,-7 -7,-7 -3,0 -6,3 -6,7z"/>
  <path class="fil0" d="M97 179c32,0 58,-26 58,-58 0,-26 -17,-48 -41,-55l0 -26 2 0c2,0 4,-2 4,-4 0,-2 -2,-4 -4,-4l-5 0c0,0 1,-1 1,-2 0,-3 -3,-6 -6,-6 -3,0 -6,3 -6,6 0,1 0,2 1,2l-24 0c-2,0 -3,2 -3,4 0,2 1,4 3,4l3 0 0 26c-24,7 -41,29 -41,55 0,32 26,58 58,58z"/>
  <path class="fil0" d="M106 9c0,2 2,4 4,4 2,0 4,-2 4,-4 0,-2 -2,-4 -4,-4 -2,0 -4,2 -4,4z"/>
  <path class="fil0" d="M82 16c0,3 2,6 6,6 4,0 7,-3 7,-6 0,-4 -3,-7 -7,-7 -4,0 -6,3 -6,7z"/>
  <path class="fil0" d="M98 178c32,0 58,-26 58,-58 0,-26 -18,-48 -41,-55l0 -26 2 0c2,0 4,-2 4,-4 0,-2 -2,-4 -4,-4l-5 0c0,0 0,-1 0,-2 0,-3 -2,-5 -5,-5 -3,0 -6,2 -6,5 0,1 0,2 1,2l-24 0c-2,0 -4,2 -4,4 0,2 2,4 4,4l3 0 0 26c-24,7 -41,29 -41,55 0,32 26,58 58,58z"/>
  <path class="fil0" d="M107 8c0,2 2,4 4,4 2,0 3,-2 3,-4 0,-2 -1,-4 -3,-4 -2,0 -4,2 -4,4z"/>
  <path class="fil0" d="M82 15c0,4 3,7 7,7 4,0 7,-3 7,-7 0,-4 -3,-7 -7,-7 -4,0 -7,3 -7,7z"/>
  <path class="fil0" d="M99 177c32,0 58,-26 58,-58 0,-26 -18,-48 -41,-55l0 -26 2 0c2,0 4,-2 4,-4 0,-2 -2,-4 -4,-4l-5 0c0,0 0,-1 0,-2 0,-3 -2,-5 -5,-5 -3,0 -6,2 -6,5 0,1 0,2 0,2l-23 0c-2,0 -4,2 -4,4 0,2 2,4 4,4l3 0 0 26c-24,7 -41,29 -41,55 0,32 26,58 58,58z"/>
  <path class="fil0" d="M108 7c0,3 1,4 4,4 2,0 3,-1 3,-4 0,-2 -1,-3 -3,-3 -3,0 -4,1 -4,3z"/>
  <path class="fil0" d="M83 14c0,4 3,7 7,7 4,0 7,-3 7,-7 0,-4 -3,-7 -7,-7 -4,0 -7,3 -7,7z"/>
  <path class="fil0" d="M99 176c33,0 58,-26 58,-58 0,-26 -17,-48 -40,-55l0 -26 2 0c2,0 4,-2 4,-4 0,-2 -2,-3 -4,-3l-5 0c0,-1 0,-2 0,-3 0,-3 -2,-5 -5,-5 -4,0 -6,2 -6,5 0,1 0,2 0,3l-23 0c-2,0 -4,1 -4,3 0,2 2,4 4,4l2 0 0 26c-23,7 -40,29 -40,55 0,32 25,58 57,58z"/>
  <path class="fil0" d="M109 7c0,2 1,3 3,3 3,0 4,-1 4,-3 0,-3 -1,-4 -4,-4 -2,0 -3,1 -3,4z"/>
  <path class="fil0" d="M84 13c0,4 3,7 7,7 3,0 6,-3 6,-7 0,-4 -3,-6 -6,-6 -4,0 -7,2 -7,6z"/>
  <path class="fil0" d="M100 176c32,0 58,-26 58,-58 0,-26 -17,-49 -41,-56l0 -26 3 0c2,0 4,-1 4,-4 0,-2 -2,-3 -4,-3l-5 0c0,-1 0,-2 0,-2 0,-4 -2,-6 -6,-6 -3,0 -5,2 -5,6 0,0 0,1 0,2l-23 0c-2,0 -4,1 -4,3 0,3 2,4 4,4l2 0 0 26c-23,7 -41,30 -41,56 0,32 26,58 58,58z"/>
  <path class="fil0" d="M109 6c0,2 2,3 4,3 2,0 4,-1 4,-3 0,-3 -2,-4 -4,-4 -2,0 -4,1 -4,4z"/>
  <path class="fil0" d="M85 12c0,4 3,7 7,7 3,0 6,-3 6,-7 0,-3 -3,-6 -6,-6 -4,0 -7,3 -7,6z"/>
  <path class="fil0" d="M101 175c32,0 58,-26 58,-58 0,-26 -17,-48 -41,-56l0 -26 3 0c2,0 4,-1 4,-3 0,-3 -2,-4 -4,-4l-5 0c0,-1 0,-2 0,-2 0,-3 -3,-6 -6,-6 -3,0 -5,3 -5,6 0,0 0,1 0,2l-23 0c-2,0 -4,1 -4,4 0,2 2,3 4,3l2 0 0 26c-23,8 -41,30 -41,56 0,32 26,58 58,58z"/>
  <path class="fil0" d="M110 5c0,2 2,4 4,4 2,0 4,-2 4,-4 0,-2 -2,-4 -4,-4 -2,0 -4,2 -4,4z"/>
  <path class="fil0" d="M86 11c0,4 3,7 7,7 3,0 6,-3 6,-7 0,-3 -3,-6 -6,-6 -4,0 -7,3 -7,6z"/>
  <path class="fil0" d="M102 174c32,0 58,-26 58,-58 0,-26 -17,-48 -41,-56l0 -26 3 0c2,0 3,-1 3,-3 0,-2 -1,-4 -3,-4l-6 0c1,-1 1,-1 1,-2 0,-3 -3,-6 -6,-6 -3,0 -5,3 -5,6 0,1 0,1 0,2l-23 0c-2,0 -4,2 -4,4 0,2 2,3 4,3l2 0 0 26c-24,8 -41,30 -41,56 0,32 26,58 58,58z"/>
  <path class="fil0" d="M111 4c0,2 2,4 4,4 2,0 4,-2 4,-4 0,-2 -2,-4 -4,-4 -2,0 -4,2 -4,4z"/>
  <path class="fil0" d="M87 10c0,4 3,7 6,7 4,0 7,-3 7,-7 0,-3 -3,-6 -7,-6 -3,0 -6,3 -6,6z"/>
  <path class="fil1" d="M119 60l0 -26 -34 0 0 26c-24,8 -41,30 -41,56 0,32 26,58 58,58 32,0 58,-26 58,-58 0,-26 -17,-48 -41,-56z"/>
  <path class="fil2" d="M115 69l0 -35 -26 0 0 35c-18,6 -31,23 -31,42 0,25 20,44 44,44 24,0 44,-19 44,-44 0,-19 -13,-36 -31,-42z"/>
  <path class="fil3" d="M58 116c3,22 21,39 44,39 21,0 38,-14 43,-33 -4,0 -9,0 -13,-2 -13,-4 -33,11 -46,3 -8,-5 -17,-9 -28,-7z"/>
  <path class="fil4" d="M122 34c2,0 3,-1 3,-3 0,-2 -1,-4 -3,-4l-39 0c-2,0 -4,2 -4,4 0,2 2,3 4,3l2 0 34 0 3 0z"/>
  <path class="fil4" d="M106 115c0,3 -2,5 -4,5 -3,0 -5,-2 -5,-5 0,-2 2,-4 5,-4 2,0 4,2 4,4z"/>
  <path class="fil4" d="M92 109c0,3 -2,4 -4,4 -3,0 -4,-1 -4,-4 0,-2 1,-4 4,-4 2,0 4,2 4,4z"/>
  <path class="fil4" d="M133 133c0,3 -1,5 -4,5 -2,0 -4,-2 -4,-5 0,-2 2,-4 4,-4 3,0 4,2 4,4z"/>
  <path class="fil4" d="M122 107c0,2 -2,4 -5,4 -2,0 -4,-2 -4,-4 0,-3 2,-4 4,-4 3,0 5,1 5,4z"/>
  <path class="fil4" d="M86 135c0,3 -2,5 -4,5 -3,0 -5,-2 -5,-5 0,-2 2,-4 5,-4 2,0 4,2 4,4z"/>
  <path class="fil4" d="M119 132c0,3 -3,6 -6,6 -3,0 -6,-3 -6,-6 0,-3 3,-6 6,-6 3,0 6,3 6,6z"/>
  <path class="fil4" d="M142 111c0,3 -3,5 -5,5 -3,0 -5,-2 -5,-5 0,-3 2,-5 5,-5 2,0 5,2 5,5z"/>
  <path class="fil4" d="M73 124c0,2 -1,4 -4,4 -2,0 -4,-2 -4,-4 0,-3 2,-4 4,-4 3,0 4,1 4,4z"/>
  <path class="fil4" d="M73 103c0,2 -1,4 -4,4 -2,0 -4,-2 -4,-4 0,-3 2,-4 4,-4 3,0 4,1 4,4z"/>
  <path class="fil4" d="M104 139c0,4 -3,7 -7,7 -3,0 -6,-3 -6,-7 0,-3 3,-6 6,-6 4,0 7,3 7,6z"/>
  <path class="fil3" d="M117 25c0,3 -3,5 -6,5 -3,0 -5,-2 -5,-5 0,-3 2,-6 5,-6 3,0 6,3 6,6z"/>
  <path class="fil3" d="M119 4c0,2 -2,4 -4,4 -2,0 -4,-2 -4,-4 0,-2 2,-4 4,-4 2,0 4,2 4,4z"/>
  <path class="fil3" d="M100 10c0,4 -3,7 -7,7 -3,0 -6,-3 -6,-7 0,-3 3,-6 6,-6 4,0 7,3 7,6z"/>
 </g>
</svg>
