<?xml version="1.0" encoding="UTF-8"?>
<!DOCTYPE svg PUBLIC "-//W3C//DTD SVG 1.1//EN" "http://www.w3.org/Graphics/SVG/1.1/DTD/svg11.dtd">
<!-- Creator: CorelDRAW X8 -->
<svg xmlns="http://www.w3.org/2000/svg" xml:space="preserve" width="1.96861in" height="1.96861in" version="1.1" style="shape-rendering:geometricPrecision; text-rendering:geometricPrecision; image-rendering:optimizeQuality; fill-rule:evenodd; clip-rule:evenodd"
viewBox="0 0 851 851"
 xmlns:xlink="http://www.w3.org/1999/xlink">
 <defs>
  <style type="text/css">
   <![CDATA[
    .fil0 {fill:#FF1644;fill-rule:nonzero}
    .fil1 {fill:white;fill-rule:nonzero}
   ]]>
  </style>
 </defs>
 <g id="objects">
  <metadata id="CorelCorpID_0Corel-Layer"/>
  <path class="fil0" d="M851 425c0,235 -191,426 -426,426 -235,0 -425,-191 -425,-426 0,-235 190,-425 425,-425 235,0 426,190 426,425z"/>
  <path class="fil1" d="M589 493c-32,0 -57,25 -57,57 0,17 7,32 19,42 0,1 0,1 0,1 -31,47 -71,69 -109,58 -39,-11 -66,-56 -68,-115 1,0 3,0 4,-1 2,0 4,-1 6,-2 7,-3 14,-7 20,-11 13,-8 23,-18 33,-28 19,-20 35,-43 47,-66 13,-23 22,-48 27,-71 3,-12 5,-24 6,-35 0,-6 1,-12 1,-17l0 -4 0 -2 0 -1 0 -1c-1,-3 -1,-6 -1,-8 0,-11 -1,-21 -3,-31 -2,-9 -5,-19 -9,-27 -2,-5 -5,-8 -7,-12 -3,-4 -5,-7 -9,-10 -3,-3 -6,-6 -9,-8 -3,-2 -7,-4 -10,-5 -5,-2 -10,-4 -14,-5 -3,-10 -13,-18 -24,-18l0 15c-1,0 -1,0 -1,0 -5,0 -10,3 -10,9 -1,5 3,10 8,10 0,0 1,0 2,1 0,0 1,0 1,0l0 14c8,0 15,-4 20,-10 3,1 6,2 9,3 4,3 9,6 13,10 2,2 3,4 5,7 2,2 4,5 5,8 5,13 8,30 8,50 0,2 0,4 0,7l0 1 0 0c0,0 0,0 0,0l0 0 0 2 0 4c0,6 -1,10 -1,15 -2,10 -4,21 -6,31 -6,22 -15,43 -26,64 -12,21 -26,42 -43,60 -9,8 -18,17 -28,23 -10,7 -21,12 -28,11l-3 0c0,0 -1,-1 -1,-1 -1,0 -2,0 -3,0 -3,-1 -5,-2 -8,-3 -5,-2 -10,-5 -15,-8 -10,-6 -19,-15 -28,-24 -17,-18 -30,-38 -41,-60 -11,-21 -19,-43 -24,-64 -3,-11 -4,-21 -5,-32 0,-2 -1,-5 -1,-7 0,-3 0,-5 0,-8l0 -2 0 -1c0,1 0,0 0,1l0 -1 0 0 0 -4c0,-3 0,-5 0,-8 0,-18 3,-36 9,-48 6,-13 15,-20 24,-24 4,-1 8,-2 12,-3 4,7 12,11 21,11l0 -15 0 0c5,0 9,-5 8,-10 0,-5 -3,-9 -8,-9l0 -15c-11,0 -21,7 -24,17 -5,1 -11,2 -17,5 -3,1 -7,2 -10,4 -2,1 -3,2 -5,3 -2,2 -3,3 -5,4 -7,5 -12,13 -17,21 -1,2 -2,5 -3,7 -1,2 -2,4 -2,7 -2,4 -3,9 -5,14 -1,5 -1,10 -2,15 -1,5 -1,11 -1,16 -1,2 -1,5 -1,7l0 4 0 1 0 1 0 3c0,2 0,5 0,8 0,3 0,6 1,8 0,12 2,24 4,35 5,24 13,49 25,72 12,24 27,47 46,68 10,10 20,20 33,28 6,4 12,8 20,11 3,1 7,3 11,4 1,0 3,0 5,1 3,69 36,123 85,137 9,3 17,4 26,4 40,0 81,-26 110,-72 0,-1 0,-1 1,-2 5,2 11,3 17,3 31,0 57,-26 57,-57 0,-32 -26,-57 -57,-57zm0 97l0 0c-22,0 -40,-18 -40,-40 0,-22 18,-40 40,-40 22,0 40,18 40,40 0,22 -18,40 -40,40z"/>
  <path class="fil1" d="M589 523c-15,0 -27,12 -27,27 0,15 12,27 27,27 14,0 26,-12 26,-27 0,-15 -12,-27 -26,-27z"/>
 </g>
</svg>
