<?xml version="1.0" encoding="UTF-8"?>
<!DOCTYPE svg PUBLIC "-//W3C//DTD SVG 1.1//EN" "http://www.w3.org/Graphics/SVG/1.1/DTD/svg11.dtd">
<!-- Creator: CorelDRAW X8 -->
<svg xmlns="http://www.w3.org/2000/svg" xml:space="preserve" width="0.819039in" height="0.861594in" version="1.1" style="shape-rendering:geometricPrecision; text-rendering:geometricPrecision; image-rendering:optimizeQuality; fill-rule:evenodd; clip-rule:evenodd"
viewBox="0 0 125 131"
 xmlns:xlink="http://www.w3.org/1999/xlink">
 <defs>
  <style type="text/css">
   <![CDATA[
    .fil1 {fill:#FEFEFE}
    .fil2 {fill:#74CBF2}
    .fil0 {fill:#727371}
   ]]>
  </style>
 </defs>
 <g id="Layer_x0020_1">
  <metadata id="CorelCorpID_0Corel-Layer"/>
  <path class="fil0" d="M88 77c8,-1 15,-5 22,-12 1,-2 1,-3 1,-4 9,-11 14,-25 14,-36 0,-18 -8,-19 -22,-22l0 0c-1,-2 -3,-3 -5,-3 -2,0 -5,2 -5,5 0,2 3,5 5,5 2,0 3,-1 3,-1l1 0c13,3 16,3 16,16 0,9 -4,23 -12,32 -1,0 -3,1 -4,2 -3,4 -10,9 -17,9 -7,0 -14,-5 -17,-9 -1,-1 -3,-2 -4,-2 -8,-9 -13,-23 -13,-32 0,-13 4,-13 17,-16l0 0c1,0 2,1 4,1 2,0 5,-3 5,-5 0,-3 -3,-5 -5,-5 -3,0 -4,1 -5,3l0 0c-14,3 -22,4 -22,22 0,11 5,25 14,36 0,1 0,3 1,4 7,6 14,11 21,12l0 21c0,15 -13,28 -29,28 -16,0 -29,-13 -29,-28l0 -19c9,-1 16,-9 16,-18 0,-10 -8,-18 -19,-18 -11,0 -20,8 -20,18 0,9 7,17 16,18l0 19c0,19 16,33 36,33 20,0 36,-14 36,-33l0 -21 0 0z"/>
  <path class="fil1" d="M20 73l0 0c7,0 13,-5 13,-12 0,-7 -6,-12 -13,-12 -7,0 -13,5 -13,12 0,7 6,12 13,12l0 0z"/>
  <path class="fil2" d="M19 52l0 0c6,0 10,4 10,9 0,5 -4,10 -10,10 -5,0 -9,-5 -9,-10 0,-5 4,-9 9,-9l0 0z"/>
 </g>
</svg>
