<?xml version="1.0" encoding="UTF-8"?>
<!DOCTYPE svg PUBLIC "-//W3C//DTD SVG 1.1//EN" "http://www.w3.org/Graphics/SVG/1.1/DTD/svg11.dtd">
<!-- Creator: CorelDRAW X8 -->
<svg xmlns="http://www.w3.org/2000/svg" xml:space="preserve" width="1.04137in" height="2.25825in" version="1.1" style="shape-rendering:geometricPrecision; text-rendering:geometricPrecision; image-rendering:optimizeQuality; fill-rule:evenodd; clip-rule:evenodd"
viewBox="0 0 771 1672"
 xmlns:xlink="http://www.w3.org/1999/xlink">
 <defs>
  <style type="text/css">
   <![CDATA[
    .fil0 {fill:#00A1AC;fill-rule:nonzero}
    .fil1 {fill:white;fill-rule:nonzero}
   ]]>
  </style>
 </defs>
 <g id="Object">
  <metadata id="CorelCorpID_0Corel-Layer"/>
  <path class="fil0" d="M716 1598c0,-35 -27,-64 -62,-64l-164 -4 4 -193 213 5c34,0 63,-27 64,-62l0 -19c1,-34 -27,-63 -61,-64l-27 0 15 -696c0,-19 -9,-37 -25,-48l-185 -120 5 -249c1,-45 -35,-83 -81,-84 -45,-1 -83,35 -84,81l-5 251c0,2 1,3 1,4l-190 105c-17,10 -27,28 -28,47l-15 696 -27 -1c-34,0 -63,27 -64,62l0 19c0,16 6,33 17,45 12,11 28,18 44,19l213 4 -4 194 -165 -4c-16,0 -32,6 -44,17 -12,12 -19,28 -20,44l0 13c-1,35 27,64 62,64l548 12c17,1 33,-6 45,-17 12,-12 19,-28 19,-44l1 -13z"/>
  <path class="fil1" d="M404 416c3,0 6,-1 8,-1l175 114 -14 659 -372 -8 4 -169 131 2c15,1 28,-11 28,-26 0,-15 -12,-28 -27,-28l-131 -3 1 -55 131 3c15,0 28,-12 28,-27 1,-15 -11,-28 -27,-28l-131 -3 1 -55 132 3c15,1 27,-11 28,-27 0,-15 -12,-27 -27,-28l-131 -2 1 -55 131 3c15,0 28,-12 28,-27 0,-15 -12,-28 -27,-28l-131 -3 2 -105 189 -106z"/>
 </g>
</svg>
