<?xml version="1.0" encoding="UTF-8"?>
<!DOCTYPE svg PUBLIC "-//W3C//DTD SVG 1.1//EN" "http://www.w3.org/Graphics/SVG/1.1/DTD/svg11.dtd">
<!-- Creator: CorelDRAW X8 -->
<svg xmlns="http://www.w3.org/2000/svg" xml:space="preserve" width="1.82465in" height="4.86591in" version="1.1" style="shape-rendering:geometricPrecision; text-rendering:geometricPrecision; image-rendering:optimizeQuality; fill-rule:evenodd; clip-rule:evenodd"
viewBox="0 0 456 1217"
 xmlns:xlink="http://www.w3.org/1999/xlink">
 <defs>
  <style type="text/css">
   <![CDATA[
    .fil3 {fill:#FEFEFE;fill-rule:nonzero}
    .fil6 {fill:#FBF0D1;fill-rule:nonzero}
    .fil4 {fill:#F5CDBB;fill-rule:nonzero}
    .fil9 {fill:#F1B79E;fill-rule:nonzero}
    .fil5 {fill:#EEA789;fill-rule:nonzero}
    .fil12 {fill:#EA9576;fill-rule:nonzero}
    .fil10 {fill:#47352F;fill-rule:nonzero}
    .fil8 {fill:#483830;fill-rule:nonzero}
    .fil0 {fill:#6DC0E2;fill-rule:nonzero}
    .fil1 {fill:#75B8CA;fill-rule:nonzero}
    .fil7 {fill:#3E332E;fill-rule:nonzero}
    .fil11 {fill:#3D322E;fill-rule:nonzero}
    .fil2 {fill:#4CA3D1;fill-rule:nonzero}
   ]]>
  </style>
 </defs>
 <g id="Layer_x0020_1">
  <metadata id="CorelCorpID_0Corel-Layer"/>
  <polygon class="fil0" points="181,1181 268,1181 268,756 181,756 "/>
  <polygon class="fil1" points="181,763 181,763 181,763 "/>
  <polygon class="fil2" points="268,800 181,763 181,763 268,763 "/>
  <path class="fil3" d="M268 1202c0,20 -91,20 -91,0 0,-21 21,-29 46,-29 25,0 45,8 45,29z"/>
  <polygon class="fil0" points="279,1181 366,1181 366,756 279,756 "/>
  <path class="fil1" d="M366 800l0 0 0 -37 0 0 0 37zm-87 -37l0 0 0 0 0 0z"/>
  <polygon class="fil2" points="366,800 279,763 279,763 366,763 "/>
  <path class="fil3" d="M368 1202c0,20 -90,20 -90,0 0,-21 20,-29 45,-29 25,0 45,8 45,29z"/>
  <path class="fil4" d="M70 568c7,0 14,-3 19,-9l58 -75 -39 -30 -25 32 -12 -66 -48 9 23 120c1,9 9,17 18,19 2,0 4,0 6,0z"/>
  <polygon class="fil5" points="88,512 83,486 92,474 "/>
  <path class="fil6" d="M16 323c12,-3 27,14 37,40 1,-11 3,-17 9,-17 12,0 8,28 7,62 -1,2 1,7 1,9l3 13 -48 11 -12 -28c-3,-7 -6,-15 -9,-24 -9,-32 -2,-62 12,-66z"/>
  <path class="fil4" d="M379 693c7,0 14,-3 19,-9 85,-107 56,-197 40,-225 0,-1 -1,-2 -2,-3l0 0c1,1 1,1 2,2 -2,-3 -4,-5 -5,-7 -9,-8 -23,-9 -33,-1 -8,7 -12,20 -5,32 4,6 42,75 -35,172 -8,11 -6,26 4,34 5,4 10,5 15,5z"/>
  <polygon class="fil4" points="233,439 313,439 313,278 233,278 "/>
  <path class="fil5" d="M313 319l-80 -28 0 -6 2 0c13,9 27,14 40,14l0 0c12,0 25,-5 38,-13l0 33 0 0z"/>
  <path class="fil0" d="M139 436c0,-59 24,-122 92,-122l42 92 42 -92c68,0 92,63 92,122l-18 12 18 315 -268 0 18 -315 -18 -12z"/>
  <polygon class="fil1" points="395,562 395,562 391,488 391,488 "/>
  <polygon class="fil2" points="395,562 339,439 391,488 "/>
  <polygon class="fil2" points="151,562 152,539 155,488 207,439 "/>
  <polygon class="fil0" points="385,513 456,464 386,352 302,393 "/>
  <polygon class="fil0" points="147,512 80,457 163,348 240,400 "/>
  <path class="fil7" d="M415 196c0,27 -21,48 -48,48 -26,0 -47,-21 -47,-48 0,-26 21,-47 47,-47 27,0 48,21 48,47z"/>
  <path class="fil4" d="M275 35c-39,0 -87,49 -87,87l0 91c0,38 48,86 87,86 38,0 87,-48 87,-86l0 -91c0,-38 -49,-87 -87,-87z"/>
  <path class="fil8" d="M275 9c-128,0 -116,164 -84,190 0,0 -29,-127 84,-127 113,0 83,127 83,127 32,-26 45,-190 -83,-190z"/>
  <path class="fil4" d="M188 158c-10,0 -17,8 -17,18l0 18c0,9 7,17 17,17 9,0 17,-8 17,-17l0 -18c0,-10 -8,-18 -17,-18z"/>
  <path class="fil4" d="M362 158c-10,0 -18,8 -18,18l0 18c0,9 8,17 18,17 9,0 17,-8 17,-17l0 -18c0,-10 -8,-18 -17,-18z"/>
  <path class="fil8" d="M340 145c-8,-6 -15,-14 -18,-21 13,11 33,18 49,18 -21,-31 -29,-53 -27,-77 -96,-80 -152,20 -152,20 0,0 -31,74 -4,73 17,0 39,-39 53,-67 13,18 32,35 52,44 -8,-8 -14,-17 -15,-26 14,17 38,30 62,36z"/>
  <path class="fil9" d="M275 299l0 -64 -18 -3c0,0 5,-29 18,-56l0 -52c5,4 11,8 17,11 0,0 0,0 0,0 0,0 0,0 0,0 1,0 1,0 1,0 0,0 0,0 0,0 0,0 0,0 0,0 0,0 0,0 0,0 0,0 0,0 0,0l0 0c-8,-8 -14,-17 -15,-26 14,17 38,30 62,36l0 0c-8,-6 -15,-14 -18,-21 0,0 0,0 0,0 0,0 0,0 0,0 0,0 0,0 0,0 0,0 0,0 0,0 0,0 0,0 0,0 0,0 0,0 0,0 0,0 0,0 0,0 11,9 25,15 38,17 1,6 1,12 1,17 -9,0 -17,8 -17,18l0 18c0,9 8,17 18,17l0 2c0,9 -3,19 -8,29 -16,30 -50,57 -79,57zm43 -131c0,0 0,0 0,0 -8,0 -14,7 -14,14 1,8 7,14 14,14 0,0 0,0 1,0 7,-1 13,-7 13,-15 0,-7 -7,-13 -14,-13z"/>
  <path class="fil10" d="M361 158c0,-5 0,-11 -1,-17 0,0 1,0 2,0l0 17c-1,0 -1,0 -1,0z"/>
  <path class="fil11" d="M379 176c0,0 0,0 0,0 0,0 0,0 0,0z"/>
  <path class="fil9" d="M362 211l0 0c-10,0 -18,-8 -18,-17l0 -18c0,-10 8,-18 17,-18 0,0 0,0 1,0l0 0c0,0 1,1 2,1 7,1 13,6 14,13 1,1 1,2 1,4 0,0 0,0 0,0l0 18c0,9 -8,17 -17,17z"/>
  <path class="fil10" d="M340 145l0 0c-8,-6 -15,-14 -18,-21l0 0c3,7 10,15 18,21zm22 -4c-1,0 -2,0 -2,0 -13,-2 -27,-8 -38,-17 11,9 26,15 40,17l0 0zm-69 -6l0 0c-8,-8 -14,-17 -15,-26l0 0c1,9 7,18 15,26zm0 0c0,0 0,0 0,0 0,0 0,0 0,0zm0 0c0,0 0,0 0,0 0,0 0,0 0,0zm-1 0c0,0 0,0 0,0 0,0 0,0 0,0zm0 0c-6,-3 -12,-7 -17,-11l0 0c5,4 11,8 17,11zm30 -11c0,0 0,0 0,0 0,0 0,0 0,0zm0 0c0,0 0,0 0,0 0,0 0,0 0,0zm0 0c0,0 0,0 0,0 0,0 0,0 0,0z"/>
  <path class="fil5" d="M231 196c-7,0 -13,-6 -13,-14 -1,-7 5,-14 13,-14 0,0 0,0 0,0 8,0 14,6 14,13 0,8 -6,14 -13,15 0,0 -1,0 -1,0z"/>
  <path class="fil8" d="M245 178c0,8 -6,14 -13,14 -8,0 -14,-6 -14,-13 -1,-8 5,-14 13,-14 7,-1 14,5 14,13z"/>
  <path class="fil3" d="M239 174c0,2 -1,4 -3,4 -2,0 -3,-2 -3,-4 -1,-2 1,-3 3,-3 2,0 3,1 3,3z"/>
  <path class="fil8" d="M248 167c-3,-5 -9,-10 -16,-11 -5,0 -13,1 -20,9l0 1c0,0 0,0 -1,-1 -1,0 -2,0 -3,0 -2,-1 -4,-3 -4,-3l0 0 0 0c0,0 0,1 0,2 1,1 2,2 3,3 1,1 2,2 3,2 0,0 1,1 1,1 1,0 1,0 1,0 1,0 2,0 2,-1 5,-7 11,-10 17,-9 6,0 12,4 14,9 0,1 1,1 2,1 1,-1 1,-2 1,-3z"/>
  <path class="fil12" d="M318 196c-7,0 -13,-6 -14,-14 0,-7 6,-14 14,-14 0,0 0,0 0,0 7,0 14,6 14,13 0,8 -6,14 -13,15 -1,0 -1,0 -1,0z"/>
  <path class="fil8" d="M332 178c0,8 -6,14 -13,14 -8,0 -14,-6 -15,-13 0,-8 6,-14 14,-14 7,-1 14,5 14,13z"/>
  <path class="fil3" d="M326 174c0,2 -1,4 -3,4 -2,0 -4,-2 -4,-4 0,-2 2,-3 4,-3 2,0 3,1 3,3z"/>
  <path class="fil8" d="M301 167c3,-5 9,-10 17,-11 4,0 12,1 19,9l0 1c0,0 1,0 1,-1 1,0 2,0 3,0 2,-1 4,-3 4,-3l1 0 0 0c0,0 0,1 -1,2 -1,1 -1,2 -2,3 -1,1 -3,2 -4,2 0,0 -1,1 -1,1 0,0 -1,0 0,0 -1,0 -2,0 -3,-1 -4,-7 -10,-10 -17,-9 -6,0 -11,4 -13,9 -1,1 -2,1 -3,1 -1,-1 -1,-2 -1,-3z"/>
  <path class="fil0" d="M360 211c-2,14 -4,23 -6,28 -10,-15 -15,-30 -16,-36l25 -44c1,-1 0,-2 -1,-2 0,-1 -2,0 -2,1l-25 43 -120 0 -26 -43c0,-1 -1,-2 -2,-1 -1,0 -1,1 -1,2l26 44c-2,6 -7,21 -17,36 -1,-5 -4,-14 -5,-28 -1,0 -1,0 -2,0 -1,0 -1,0 -2,0 3,23 8,33 8,34l0 0c13,32 51,54 81,54 29,0 67,-22 80,-54l0 0c1,-1 5,-11 8,-34 0,0 -1,0 -1,0 -1,0 -2,0 -2,0z"/>
  <path class="fil0" d="M369 56c0,0 -21,-56 -94,-56 -73,0 -94,56 -94,56 -10,23 -15,52 -11,82 6,-4 18,-9 30,-13 20,-9 47,-17 75,-17 27,0 54,7 74,14 12,4 24,8 31,12 3,-29 -1,-56 -11,-78z"/>
 </g>
</svg>
