<?xml version="1.0" encoding="UTF-8"?>
<!DOCTYPE svg PUBLIC "-//W3C//DTD SVG 1.1//EN" "http://www.w3.org/Graphics/SVG/1.1/DTD/svg11.dtd">
<!-- Creator: CorelDRAW X8 -->
<svg xmlns="http://www.w3.org/2000/svg" xml:space="preserve" width="1.47964in" height="4.88656in" version="1.1" style="shape-rendering:geometricPrecision; text-rendering:geometricPrecision; image-rendering:optimizeQuality; fill-rule:evenodd; clip-rule:evenodd"
viewBox="0 0 1171 3866"
 xmlns:xlink="http://www.w3.org/1999/xlink">
 <defs>
  <style type="text/css">
   <![CDATA[
    .fil3 {fill:#FEFEFE;fill-rule:nonzero}
    .fil7 {fill:#F1644F;fill-rule:nonzero}
    .fil0 {fill:#F5CDBB;fill-rule:nonzero}
    .fil14 {fill:#F1B79E;fill-rule:nonzero}
    .fil17 {fill:#F2F3F2;fill-rule:nonzero}
    .fil2 {fill:#EEA789;fill-rule:nonzero}
    .fil16 {fill:#EA9576;fill-rule:nonzero}
    .fil4 {fill:#E8E7E8;fill-rule:nonzero}
    .fil6 {fill:#D7D7D6;fill-rule:nonzero}
    .fil5 {fill:#D2D4D5;fill-rule:nonzero}
    .fil1 {fill:#ABAF9F;fill-rule:nonzero}
    .fil9 {fill:#A9ACAF;fill-rule:nonzero}
    .fil10 {fill:#9FC4C6;fill-rule:nonzero}
    .fil15 {fill:#47352F;fill-rule:nonzero}
    .fil12 {fill:#483830;fill-rule:nonzero}
    .fil18 {fill:#6CC7BC;fill-rule:nonzero}
    .fil11 {fill:#3E332E;fill-rule:nonzero}
    .fil13 {fill:#3D322E;fill-rule:nonzero}
    .fil8 {fill:#4E4C57;fill-rule:nonzero}
   ]]>
  </style>
 </defs>
 <g id="Layer_x0020_1">
  <metadata id="CorelCorpID_0Corel-Layer"/>
  <polygon class="fil0" points="516,3786 385,3786 341,2663 560,2663 "/>
  <path class="fil1" d="M556 2775l0 0 3 -85 -3 85zm-214 -84l-1 -1 1 0 0 1z"/>
  <polygon class="fil2" points="556,2775 342,2691 342,2690 559,2690 "/>
  <polygon class="fil3" points="522,3647 379,3647 384,3783 517,3783 "/>
  <path class="fil4" d="M551 3822c0,59 -263,59 -263,0 0,-59 59,-85 131,-85 73,0 132,26 132,85z"/>
  <polygon class="fil0" points="769,3753 637,3753 593,2663 813,2663 "/>
  <path class="fil1" d="M809 2775l0 0 3 -85 0 0 -3 85zm-215 -84l-1 -1 1 0 0 1z"/>
  <polygon class="fil2" points="809,2775 594,2691 594,2690 812,2690 "/>
  <polygon class="fil3" points="775,3647 632,3647 637,3783 769,3783 "/>
  <path class="fil4" d="M857 3822c0,59 -264,59 -264,0 0,-59 59,-85 132,-85 73,0 132,26 132,85z"/>
  <polygon class="fil0" points="451,1412 704,1412 704,902 451,902 "/>
  <path class="fil2" d="M704 1031l-253 -88 0 -18 2 0c40,27 84,44 125,44l0 0c40,0 84,-17 125,-44l1 0 0 106z"/>
  <path class="fil3" d="M990 1402c62,-193 -62,-388 -267,-388l-145 214 -145 -214c-205,0 -330,195 -267,388l53 38c0,0 94,108 -34,624l785 0c-128,-516 -33,-624 -33,-624l53 -38z"/>
  <path class="fil3" d="M880 1910l-605 0c0,0 -148,129 -3,773 1,5 7,7 11,7l589 0c5,0 10,-2 11,-7 146,-644 -3,-773 -3,-773z"/>
  <path class="fil4" d="M947 2192l-729 -128 0 0 720 0c5,35 9,77 9,128z"/>
  <path class="fil4" d="M605 1365c0,15 -12,27 -27,27 -15,0 -28,-12 -28,-27 0,-15 13,-28 28,-28 15,0 27,13 27,28z"/>
  <path class="fil4" d="M606 1286c0,15 -12,28 -27,28 -15,0 -28,-13 -28,-28 0,-15 13,-27 28,-27 15,0 27,12 27,27z"/>
  <path class="fil4" d="M444 1014c-17,0 -44,2 -59,4 3,114 29,337 193,210l-134 -214z"/>
  <path class="fil4" d="M712 1014c16,0 43,2 58,4 -2,114 -28,337 -192,210l134 -214z"/>
  <polygon class="fil5" points="476,1383 464,1390 376,1238 369,1199 "/>
  <polygon class="fil6" points="720,1672 592,1746 415,1440 461,1371 544,1366 "/>
  <polygon class="fil7" points="587,1700 435,1437 470,1387 531,1382 683,1645 "/>
  <polygon class="fil5" points="727,1795 695,1814 639,1717 672,1699 "/>
  <polygon class="fil8" points="693,1661 596,1716 561,1655 657,1600 "/>
  <polygon class="fil5" points="796,1803 668,1877 642,1833 770,1758 "/>
  <polygon class="fil5" points="720,1671 591,1745 566,1701 694,1627 "/>
  <polygon class="fil9" points="556,1387 540,1396 534,1386 550,1377 "/>
  <polygon class="fil9" points="662,1571 646,1581 641,1571 657,1562 "/>
  <polygon class="fil9" points="582,1433 566,1442 561,1433 577,1423 "/>
  <polygon class="fil9" points="609,1479 593,1488 587,1479 604,1470 "/>
  <polygon class="fil9" points="636,1525 620,1534 614,1525 630,1516 "/>
  <path class="fil0" d="M1168 1784l-68 -264 -149 38 50 192 -268 75c-41,12 -65,55 -53,96 10,33 41,55 74,55 7,0 15,-1 22,-3l339 -96c40,-12 64,-53 53,-93z"/>
  <path class="fil0" d="M857 1853c-7,0 -15,-3 -20,-9 -11,-12 -27,-23 -33,-23l-1 0c-14,3 -29,-7 -32,-21 -3,-15 7,-30 21,-33 38,-8 75,29 86,40 10,12 9,29 -2,39 -6,5 -12,7 -19,7z"/>
  <polygon class="fil2" points="1001,1750 1001,1750 992,1718 1077,1729 "/>
  <path class="fil10" d="M908 1721l0 0c-11,-121 -2,-194 9,-234l0 0c-11,41 -20,113 -9,234z"/>
  <path class="fil4" d="M908 1721l-73 -404 82 170 0 0c-11,40 -20,113 -9,234z"/>
  <path class="fil3" d="M925 1565c-44,-185 -129,-280 -130,-281l142 -174c12,14 133,162 191,403l-203 52z"/>
  <path class="fil10" d="M251 1657c4,-84 -4,-137 -13,-170l0 0c9,33 17,86 13,170l0 0z"/>
  <path class="fil4" d="M251 1657c4,-84 -4,-137 -13,-170l83 -170 -62 337 -8 3z"/>
  <path class="fil0" d="M607 1625c-13,-41 -56,-63 -96,-50l-332 105 25 -133 -150 -36 -52 266c-6,27 3,55 23,73 15,13 33,20 52,20 8,0 16,-2 23,-4l457 -145c40,-13 63,-56 50,-96z"/>
  <path class="fil0" d="M444 1661c-2,0 -4,0 -7,-1 -14,-4 -23,-19 -19,-33 5,-20 16,-56 33,-70 11,-10 29,-9 39,2 10,12 8,29 -3,39 -3,4 -12,25 -16,43 -3,12 -15,20 -27,20z"/>
  <polygon class="fil1" points="179,1680 186,1639 186,1639 "/>
  <polygon class="fil2" points="95,1710 186,1639 179,1680 "/>
  <path class="fil3" d="M230 1565l-203 -52c59,-241 193,-404 205,-418l128 190 0 -1c-1,1 -85,96 -130,281z"/>
  <path class="fil11" d="M1021 643c0,83 -67,150 -150,150 -83,0 -150,-67 -150,-150 0,-83 67,-150 150,-150 83,0 150,67 150,150z"/>
  <path class="fil0" d="M578 134c-122,0 -275,153 -275,275l0 285c0,122 153,275 275,275 121,0 274,-153 274,-275l0 -285c0,-122 -153,-275 -274,-275z"/>
  <path class="fil12" d="M578 51c-405,0 -367,518 -264,600 0,0 -94,-401 264,-400 358,-1 263,400 263,400 103,-82 142,-600 -263,-600z"/>
  <path class="fil0" d="M303 523c-30,0 -55,25 -55,55l0 57c0,30 25,55 55,55 30,0 55,-25 55,-55l0 -57c0,-30 -25,-55 -55,-55z"/>
  <path class="fil0" d="M852 523c-30,0 -55,25 -55,55l0 57c0,30 25,55 55,55 31,0 55,-25 55,-55l0 -57c0,-30 -24,-55 -55,-55z"/>
  <path class="fil12" d="M783 482c-25,-21 -45,-45 -56,-69 42,35 105,59 156,58 -68,-99 -39,-269 -106,-305 -356,-193 -459,126 -459,126 0,0 -100,234 -15,231 55,-2 125,-125 168,-213 40,56 101,110 165,139 -26,-26 -44,-55 -48,-82 46,52 121,96 195,115z"/>
  <path class="fil13" d="M827 787l0 0c16,-31 25,-63 25,-93l0 -4c31,0 55,-25 55,-55l0 -57 0 57c0,30 -24,55 -55,55l0 4c0,30 -9,62 -25,93zm80 -209c0,0 0,0 0,0 0,0 0,0 0,0z"/>
  <path class="fil14" d="M578 969l0 -203 -55 -11c0,0 15,-91 55,-176l0 -164c18,14 38,25 58,34l0 0 0 0c0,0 0,0 0,0 -26,-26 -44,-55 -48,-82 46,52 121,96 195,115l0 0c-25,-21 -45,-45 -56,-69 0,0 0,0 0,0 0,0 0,0 1,0 0,0 0,0 0,1 0,0 0,0 0,0 0,0 0,0 0,0 0,0 0,0 1,0 0,0 0,0 0,0 32,27 76,47 118,54 3,19 4,37 5,55 -30,0 -55,25 -55,55l0 57c0,30 25,55 55,55l0 4c0,30 -9,62 -25,93 -48,95 -158,182 -249,182zm137 -415c0,0 -1,0 -1,0 -24,1 -43,21 -42,45 0,23 20,42 43,42 1,0 1,0 2,0 24,-1 42,-21 41,-45 0,-24 -20,-42 -43,-42z"/>
  <path class="fil15" d="M852 523c-1,-18 -2,-36 -5,-55 2,0 4,1 5,1l0 54c0,0 0,0 0,0z"/>
  <path class="fil14" d="M852 690l0 0c-30,0 -55,-25 -55,-55l0 -57c0,-30 25,-55 55,-55 0,0 0,0 0,0l0 0c3,0 5,0 8,1 22,3 41,19 46,42 1,3 1,7 1,12 0,0 0,0 0,0l0 57c0,30 -24,55 -55,55z"/>
  <path class="fil15" d="M783 482l0 0c-25,-21 -45,-45 -56,-69l0 0c11,24 31,48 56,69zm0 0c-74,-19 -149,-63 -195,-115l0 0c46,52 121,96 195,115zm69 -13c-1,0 -3,-1 -5,-1 -42,-7 -86,-27 -118,-54 34,28 80,48 123,55l0 0zm-216 -20c-20,-9 -40,-20 -58,-34l0 0c18,14 38,25 58,34l0 0zm93 -35c-1,0 -1,0 -1,0 0,0 0,0 1,0zm-1 0c0,0 0,0 0,0 0,0 0,0 0,0zm0 -1c-1,0 -1,0 -1,0 0,0 0,0 1,0z"/>
  <path class="fil2" d="M440 641c-23,0 -42,-19 -43,-42 -1,-24 18,-44 42,-45 0,0 1,0 1,0 24,0 43,18 44,42 1,24 -18,44 -42,45 -1,0 -1,0 -2,0z"/>
  <path class="fil12" d="M484 585c1,24 -18,44 -42,45 -24,1 -44,-18 -45,-42 -1,-24 18,-44 42,-45 24,-1 44,18 45,42z"/>
  <path class="fil3" d="M466 572c0,6 -5,11 -11,12 -6,0 -11,-5 -11,-11 0,-6 5,-11 11,-11 6,0 11,4 11,10z"/>
  <path class="fil12" d="M493 552c-8,-19 -28,-33 -51,-35 -14,-2 -40,0 -62,28l0 0c-1,0 -2,0 -3,0 -3,0 -6,-1 -9,-2 -7,-3 -13,-9 -13,-9l-2 0 0 2c0,0 1,2 2,4 2,3 4,7 8,10 3,3 7,6 10,7 2,1 3,2 4,2 1,0 2,0 2,0 3,1 6,-1 7,-3 15,-21 34,-31 55,-29 18,2 36,14 42,29 1,3 4,4 7,3 3,-1 4,-5 3,-7z"/>
  <path class="fil16" d="M715 641c-23,0 -43,-19 -43,-42 -1,-24 18,-44 42,-45 0,0 1,0 1,0 23,0 43,18 43,42 1,24 -17,44 -41,45 -1,0 -1,0 -2,0z"/>
  <path class="fil12" d="M758 585c1,24 -17,44 -41,45 -24,1 -44,-18 -45,-42 -1,-24 18,-44 42,-45 23,-1 44,18 44,42z"/>
  <path class="fil3" d="M741 572c0,6 -5,11 -11,12 -6,0 -11,-5 -11,-11 0,-6 4,-11 10,-11 6,0 11,4 12,10z"/>
  <path class="fil12" d="M662 552c8,-19 29,-33 51,-35 14,-2 40,0 62,28l1 0c0,0 1,0 3,0 2,0 6,-1 9,-2 7,-3 12,-9 12,-9l2 0 1 2c0,0 -1,2 -3,4 -2,3 -4,7 -7,10 -4,3 -7,6 -11,7 -1,1 -3,2 -4,2 -1,0 -2,0 -2,0 -3,1 -5,-1 -7,-3 -14,-21 -34,-31 -55,-29 -18,2 -35,14 -42,29 -1,3 -4,4 -7,3 -3,-1 -4,-5 -3,-7z"/>
  <path class="fil17" d="M773 296c-127,-39 -263,-39 -391,0 -29,-84 -59,-167 -90,-251 186,-60 386,-60 571,0 -31,84 -61,167 -90,251z"/>
  <polygon class="fil18" points="660,105 609,105 609,54 546,54 546,105 495,105 495,168 546,168 546,219 609,219 609,168 660,168 "/>
 </g>
</svg>
