<?xml version="1.0" encoding="UTF-8"?>
<!DOCTYPE svg PUBLIC "-//W3C//DTD SVG 1.1//EN" "http://www.w3.org/Graphics/SVG/1.1/DTD/svg11.dtd">
<!-- Creator: CorelDRAW X8 -->
<svg xmlns="http://www.w3.org/2000/svg" xml:space="preserve" width="1.66851in" height="1.7376in" version="1.1" style="shape-rendering:geometricPrecision; text-rendering:geometricPrecision; image-rendering:optimizeQuality; fill-rule:evenodd; clip-rule:evenodd"
viewBox="0 0 292 305"
 xmlns:xlink="http://www.w3.org/1999/xlink">
 <defs>
  <style type="text/css">
   <![CDATA[
    .fil0 {fill:#00A1AC;fill-rule:nonzero}
   ]]>
  </style>
 </defs>
 <g id="Object">
  <metadata id="CorelCorpID_0Corel-Layer"/>
  <path class="fil0" d="M113 224l-40 34c-2,2 -5,2 -8,0 0,0 0,0 0,0 -2,-1 -4,-4 -3,-6l18 -136 -34 24c-3,1 -5,1 -8,0l-38 -22c0,1 0,2 0,3l2 21c1,5 1,10 3,15 13,56 21,98 26,124 3,18 20,28 37,21 24,-9 62,-22 114,-39l-69 -39z"/>
  <path class="fil0" d="M252 82c-18,-10 -38,-12 -56,-8 -19,4 -29,-1 -35,-19 -6,-18 -18,-35 -36,-45 -27,-15 -60,-13 -85,5 -15,11 -30,39 -35,58 -2,8 -4,19 -5,31 1,0 2,0 3,0l38 22 44 -30c2,-1 5,-1 7,0 3,1 4,4 4,7l-18 133 30 -25c3,-2 6,-2 8,-1l77 44c1,1 2,2 3,4 3,-2 7,-3 11,-5 10,-5 31,-16 46,-29 20,-17 29,-34 29,-34 22,-38 8,-86 -30,-108z"/>
 </g>
</svg>
