<?xml version="1.0" encoding="UTF-8"?>
<!DOCTYPE svg PUBLIC "-//W3C//DTD SVG 1.1//EN" "http://www.w3.org/Graphics/SVG/1.1/DTD/svg11.dtd">
<!-- Creator: CorelDRAW X8 -->
<svg xmlns="http://www.w3.org/2000/svg" xml:space="preserve" width="1.96861in" height="1.96861in" version="1.1" style="shape-rendering:geometricPrecision; text-rendering:geometricPrecision; image-rendering:optimizeQuality; fill-rule:evenodd; clip-rule:evenodd"
viewBox="0 0 398 398"
 xmlns:xlink="http://www.w3.org/1999/xlink">
 <defs>
  <style type="text/css">
   <![CDATA[
    .fil0 {fill:#FFD600;fill-rule:nonzero}
    .fil1 {fill:white;fill-rule:nonzero}
   ]]>
  </style>
 </defs>
 <g id="objects">
  <metadata id="CorelCorpID_0Corel-Layer"/>
  <path class="fil0" d="M398 199c0,110 -89,199 -199,199 -110,0 -199,-89 -199,-199 0,-110 89,-199 199,-199 110,0 199,89 199,199z"/>
  <path class="fil1" d="M130 287c0,13 -10,23 -22,23 -12,0 -22,-10 -22,-23 0,-12 10,-22 22,-22 12,0 22,10 22,22z"/>
  <path class="fil1" d="M270 287c0,13 -10,23 -22,23 -12,0 -22,-10 -22,-23 0,-12 10,-22 22,-22 12,0 22,10 22,22z"/>
  <path class="fil1" d="M309 89l-39 0c-2,0 -4,1 -4,3l-13 71c-1,5 -6,9 -11,9l-143 0c-7,0 -12,6 -11,12l13 67c0,2 2,3 4,3 1,0 2,0 3,0 18,0 33,15 33,33l73 0c0,-18 15,-33 34,-33 1,0 2,0 3,0 2,0 3,-1 4,-3l2 -13 0 0 25 -128c0,-1 1,-3 3,-3l24 0c2,0 3,-1 3,-3l0 -12c0,-2 -1,-3 -3,-3zm-131 175l0 0c-21,0 -38,-17 -38,-38 0,-22 17,-39 38,-39 21,0 38,17 38,39 0,21 -17,38 -38,38z"/>
  <path class="fil1" d="M178 255c-4,0 -7,-3 -7,-7l0 -45c0,-4 3,-7 7,-7 4,0 7,3 7,7l0 45c0,4 -3,7 -7,7z"/>
  <path class="fil1" d="M200 232l-45 0c-4,0 -7,-3 -7,-7 0,-4 3,-7 7,-7l45 0c4,0 7,3 7,7 0,4 -3,7 -7,7z"/>
 </g>
</svg>
