<?xml version="1.0" encoding="UTF-8"?>
<!DOCTYPE svg PUBLIC "-//W3C//DTD SVG 1.1//EN" "http://www.w3.org/Graphics/SVG/1.1/DTD/svg11.dtd">
<!-- Creator: CorelDRAW X8 -->
<svg xmlns="http://www.w3.org/2000/svg" xml:space="preserve" width="1.24344in" height="1.10357in" version="1.1" style="shape-rendering:geometricPrecision; text-rendering:geometricPrecision; image-rendering:optimizeQuality; fill-rule:evenodd; clip-rule:evenodd"
viewBox="0 0 447 396"
 xmlns:xlink="http://www.w3.org/1999/xlink">
 <defs>
  <style type="text/css">
   <![CDATA[
    .fil0 {fill:#8CC43F;fill-rule:nonzero}
   ]]>
  </style>
 </defs>
 <g id="_3">
  <metadata id="CorelCorpID_0Corel-Layer"/>
  <g id="_905406983360">
   <path class="fil0" d="M362 234c-3,0 -6,-2 -6,-5l-18 -85 -32 100c-1,3 -3,4 -6,4 -3,0 -5,-2 -6,-5l-18 -134 -27 227c0,3 -3,6 -6,6 0,0 0,0 0,0 -3,0 -6,-3 -6,-6l-23 -177 -23 104c0,3 -3,5 -6,5 -3,0 -5,-2 -6,-5l-35 -148 -25 112c-1,3 -3,5 -6,5l-55 0c17,18 38,37 63,57 54,42 87,84 102,107 16,-23 48,-65 102,-107 25,-20 45,-38 62,-55l-25 0z"/>
   <path class="fil0" d="M108 220l30 -134c1,-3 3,-5 6,-5 3,0 5,2 6,5l35 148 25 -112c0,-3 3,-5 6,-5 3,0 5,2 6,5l21 164 27 -226c0,-3 3,-5 6,-5 0,0 0,0 0,0 3,0 5,2 6,5l21 154 30 -96c1,-3 3,-4 6,-4 3,0 5,2 6,5l22 102 31 0c33,-38 49,-73 49,-108 0,-83 -54,-113 -100,-113 -43,0 -84,24 -109,63l0 0 -1 1c-3,4 -8,6 -13,7l-1 0 0 0c-6,-1 -10,-3 -14,-7l0 -1 0 0c-25,-39 -66,-63 -109,-63 -46,0 -100,30 -100,113 0,35 15,70 47,107l61 0z"/>
  </g>
 </g>
</svg>
