<?xml version="1.0" encoding="UTF-8"?>
<!DOCTYPE svg PUBLIC "-//W3C//DTD SVG 1.1//EN" "http://www.w3.org/Graphics/SVG/1.1/DTD/svg11.dtd">
<!-- Creator: CorelDRAW X8 -->
<svg xmlns="http://www.w3.org/2000/svg" xml:space="preserve" width="0.756736in" height="0.861583in" version="1.1" style="shape-rendering:geometricPrecision; text-rendering:geometricPrecision; image-rendering:optimizeQuality; fill-rule:evenodd; clip-rule:evenodd"
viewBox="0 0 105 120"
 xmlns:xlink="http://www.w3.org/1999/xlink">
 <defs>
  <style type="text/css">
   <![CDATA[
    .fil1 {fill:#FEFEFE;fill-rule:nonzero}
    .fil2 {fill:#74CBF2;fill-rule:nonzero}
    .fil0 {fill:#727371;fill-rule:nonzero}
   ]]>
  </style>
 </defs>
 <g id="Layer_x0020_1">
  <metadata id="CorelCorpID_0Corel-Layer"/>
  <path class="fil0" d="M105 56c0,-9 -7,-17 -16,-17 -9,0 -17,8 -17,17 0,8 6,15 14,16l0 18c0,13 -11,24 -25,24 -13,0 -24,-11 -24,-24l0 -20c6,-1 12,-5 18,-11 1,-1 1,-2 1,-4 7,-9 12,-22 12,-33 0,-15 -7,-17 -19,-20 -1,-1 -2,-2 -4,-2 -2,0 -4,2 -4,4 0,3 2,5 4,5 1,0 2,-1 3,-1l0 0c11,3 14,3 14,14 0,9 -4,21 -10,30 -2,0 -2,0 -3,1 -4,4 -9,9 -15,9 -6,0 -11,-5 -15,-9 -1,-1 -2,-1 -3,-1 -6,-9 -10,-21 -10,-30 0,-11 2,-12 14,-14 1,0 1,1 3,1 2,0 4,-2 4,-5 0,-2 -2,-4 -4,-4 -2,0 -4,1 -5,2 -11,3 -18,5 -18,20 0,11 4,24 12,33 0,2 0,3 1,4 5,6 12,10 18,11l0 20c0,16 14,30 30,30 17,0 31,-14 31,-30l0 -18c7,-1 13,-8 13,-16l0 0z"/>
  <path class="fil1" d="M89 67l0 0c-6,0 -11,-5 -11,-11 0,-6 5,-11 11,-11 6,0 11,5 11,11 0,6 -5,11 -11,11l0 0z"/>
  <path class="fil2" d="M89 48l0 0c4,0 8,3 8,8 0,4 -4,8 -8,8 -5,0 -9,-4 -9,-8 0,-5 4,-8 9,-8l0 0z"/>
 </g>
</svg>
