<?xml version="1.0" encoding="UTF-8"?>
<!DOCTYPE svg PUBLIC "-//W3C//DTD SVG 1.1//EN" "http://www.w3.org/Graphics/SVG/1.1/DTD/svg11.dtd">
<!-- Creator: CorelDRAW X8 -->
<svg xmlns="http://www.w3.org/2000/svg" xml:space="preserve" width="1.7685in" height="3.48144in" version="1.1" style="shape-rendering:geometricPrecision; text-rendering:geometricPrecision; image-rendering:optimizeQuality; fill-rule:evenodd; clip-rule:evenodd"
viewBox="0 0 348 685"
 xmlns:xlink="http://www.w3.org/1999/xlink">
 <defs>
  <style type="text/css">
   <![CDATA[
    .fil0 {fill:#F1F1F2;fill-rule:nonzero}
    .fil1 {fill:#373435;fill-rule:nonzero}
   ]]>
  </style>
 </defs>
 <g id="Layer_x0020_1">
  <metadata id="CorelCorpID_0Corel-Layer"/>
  <path class="fil0" d="M102 468l50 0 0 50c0,5 5,10 10,10l57 0c5,0 10,-5 10,-10l0 -50 50 0c5,0 9,-4 9,-10l0 -57c0,-5 -4,-9 -9,-9l-50 0 0 -51c0,-5 -5,-9 -10,-9l-57 0c-5,0 -10,4 -10,9l0 51 -50 0c-5,0 -9,4 -9,9l0 57c0,6 4,10 9,10z"/>
  <path class="fil1" d="M321 513c0,30 -25,55 -56,55l-182 0c-31,0 -56,-25 -56,-55l0 -144c0,-31 25,-56 56,-56l182 0c31,0 56,25 56,56l0 144zm-29 -317l-16 0c2,-5 4,-9 4,-14 15,-2 27,-15 27,-31l0 -120c0,-17 -14,-31 -31,-31l-204 0c-17,0 -31,14 -31,31l0 120c0,16 12,29 27,31 1,5 2,9 4,14l-16 0c-31,0 -56,25 -56,56l0 378c0,30 25,55 56,55l236 0c31,0 56,-25 56,-55l0 -378c0,-31 -25,-56 -56,-56z"/>
  <path class="fil1" d="M263 403l-51 0 0 -51c0,-5 -4,-9 -9,-9l-57 0c-6,0 -10,4 -10,9l0 51 -50 0c-6,0 -10,4 -10,9l0 57c0,5 4,10 10,10l50 0 0 50c0,5 4,10 10,10l57 0c5,0 9,-5 9,-10l0 -50 51 0c5,0 9,-5 9,-10l0 -57c0,-5 -4,-9 -9,-9z"/>
 </g>
</svg>
