<?xml version="1.0" encoding="UTF-8"?>
<!DOCTYPE svg PUBLIC "-//W3C//DTD SVG 1.1//EN" "http://www.w3.org/Graphics/SVG/1.1/DTD/svg11.dtd">
<!-- Creator: CorelDRAW X8 -->
<svg xmlns="http://www.w3.org/2000/svg" xml:space="preserve" width="1.96861in" height="1.96861in" version="1.1" style="shape-rendering:geometricPrecision; text-rendering:geometricPrecision; image-rendering:optimizeQuality; fill-rule:evenodd; clip-rule:evenodd"
viewBox="0 0 851 851"
 xmlns:xlink="http://www.w3.org/1999/xlink">
 <defs>
  <style type="text/css">
   <![CDATA[
    .fil0 {fill:#00C852;fill-rule:nonzero}
    .fil1 {fill:white;fill-rule:nonzero}
   ]]>
  </style>
 </defs>
 <g id="objects">
  <metadata id="CorelCorpID_0Corel-Layer"/>
  <path class="fil0" d="M851 425c0,235 -191,426 -426,426 -235,0 -425,-191 -425,-426 0,-235 190,-425 425,-425 235,0 426,190 426,425z"/>
  <path class="fil1" d="M416 297c0,0 0,-2 0,-6 0,-1 0,-2 0,-3 0,-2 1,-3 1,-5 0,-3 1,-7 1,-11 1,-1 1,-3 2,-5 0,-2 1,-4 2,-7 1,-4 3,-8 5,-12 3,-5 5,-9 8,-13 3,-5 6,-8 10,-12 3,-4 7,-8 11,-11 4,-3 8,-6 12,-9 5,-2 9,-4 13,-6 2,-1 4,-2 6,-2 2,-1 4,-2 6,-2 4,-1 8,-2 11,-2 2,-1 3,-1 4,-1 2,0 3,-1 4,-1 5,0 8,0 8,0 7,-1 14,5 15,13 0,7 -6,14 -13,15 -1,0 -1,0 -1,0l-1 0c0,0 -2,0 -6,0 -1,0 -2,0 -3,0 -1,0 -2,0 -3,0 -3,0 -5,1 -8,1 -2,1 -3,1 -5,1 -1,1 -3,2 -4,2 -4,1 -7,3 -11,4 -3,2 -6,4 -9,6 -4,2 -7,5 -10,8 -3,3 -6,6 -8,9 -3,3 -5,6 -7,10 -2,3 -4,6 -5,10 0,1 -1,3 -2,5 0,1 -1,3 -1,4 -1,3 -2,6 -2,8 0,1 0,3 -1,4 0,1 0,2 0,3 0,4 0,6 0,6 -1,5 -5,9 -10,9 -5,-1 -9,-5 -9,-10z"/>
  <path class="fil1" d="M411 213c9,27 -5,50 -12,58 -1,1 -3,2 -5,1 -10,-1 -45,-9 -53,-36 -9,-25 5,-70 11,-87 1,-4 6,-5 9,-3 15,11 42,42 50,67z"/>
  <path class="fil1" d="M634 406c-12,-27 -28,-52 -49,-72 -20,-21 -54,-31 -81,-28 -27,4 -47,22 -79,22 -31,0 -51,-18 -79,-22 -27,-3 -60,7 -81,28 -20,20 -37,45 -48,72 -12,27 -18,57 -18,88 0,31 6,61 18,88 11,27 28,52 48,72 21,21 45,37 72,49 27,11 57,-15 88,-15 32,0 61,26 88,15 28,-12 52,-28 72,-49 21,-20 37,-45 49,-72 11,-27 18,-57 18,-88 0,-31 -7,-61 -18,-88zm-318 208l0 0c1,3 -3,5 -4,3 -100,-139 -34,-213 2,-242 2,-1 5,0 5,3 -11,73 -36,121 -3,236z"/>
 </g>
</svg>
