<?xml version="1.0" encoding="UTF-8"?>
<!DOCTYPE svg PUBLIC "-//W3C//DTD SVG 1.1//EN" "http://www.w3.org/Graphics/SVG/1.1/DTD/svg11.dtd">
<!-- Creator: CorelDRAW X8 -->
<svg xmlns="http://www.w3.org/2000/svg" xml:space="preserve" width="1.91724in" height="2.17562in" version="1.1" style="shape-rendering:geometricPrecision; text-rendering:geometricPrecision; image-rendering:optimizeQuality; fill-rule:evenodd; clip-rule:evenodd"
viewBox="0 0 717 814"
 xmlns:xlink="http://www.w3.org/1999/xlink">
 <defs>
  <style type="text/css">
   <![CDATA[
    .fil0 {fill:#00BABA;fill-rule:nonzero}
    .fil2 {fill:url(#id0)}
    .fil1 {fill:url(#id1)}
   ]]>
  </style>
  <linearGradient id="id0" gradientUnits="userSpaceOnUse" x1="311.623" y1="370.752" x2="311.623" y2="-473.766">
   <stop offset="0" style="stop-opacity:1; stop-color:#00BABA"/>
   <stop offset="0.541176" style="stop-opacity:1; stop-color:#00BABA"/>
   <stop offset="1" style="stop-opacity:1; stop-color:#00BABA"/>
  </linearGradient>
  <linearGradient id="id1" gradientUnits="userSpaceOnUse" xlink:href="#id0" x1="310.015" y1="370.752" x2="310.015" y2="-473.766">
  </linearGradient>
 </defs>
 <g id="Layer_x0020_1">
  <metadata id="CorelCorpID_0Corel-Layer"/>
  <path class="fil0" d="M207 775c-23,6 -49,4 -76,-5l-2 -1c-29,-10 -51,-23 -67,-38 -9,-10 -17,-20 -21,-30 -5,-11 -7,-23 -6,-35 1,-24 13,-48 31,-66 7,-6 18,-14 29,-16 4,0 7,0 11,1 0,0 1,0 1,1 5,1 9,5 14,9 10,9 20,19 28,30 6,7 12,14 18,22l10 12c18,22 37,45 60,66 9,8 17,15 25,21 -17,15 -36,25 -55,29zm393 -99c-6,-2 -11,-5 -15,-9 -4,7 -9,14 -14,21 -5,7 -11,13 -17,19 -19,19 -42,33 -68,43 -24,9 -51,14 -81,14 -22,0 -43,-3 -64,-10 -5,-2 -10,-4 -14,-6 -4,-2 -8,-4 -12,-6 14,-16 26,-34 38,-55 14,-25 26,-52 38,-83 5,-13 10,-28 14,-42 2,-7 4,-15 6,-22l3 -11 2 -9 1 -5 -3 -4c-1,-2 -4,-4 -8,-6l-1 0 -8 -2 -2 0c-3,0 -6,0 -8,2 -2,0 -3,2 -5,4 0,1 -1,2 -1,4l-2 8 -3 10c-2,7 -3,14 -5,21 -4,13 -9,27 -14,40 -10,29 -22,54 -35,77 -11,21 -24,39 -37,54 -8,-6 -17,-14 -26,-22 -21,-20 -40,-42 -56,-63l-10 -12c-6,-7 -12,-15 -18,-22 -10,-12 -20,-24 -32,-34 -5,-5 -13,-11 -22,-15 -1,-1 -3,-1 -4,-2 -9,-3 -18,-4 -27,-2 -16,2 -32,10 -47,24 -25,24 -41,56 -43,89 -1,17 2,35 9,50 6,15 16,29 29,42 20,19 46,34 81,46l2 1c23,8 58,16 95,6 27,-6 53,-21 77,-43 7,4 14,8 21,11 5,2 9,4 14,6 25,8 52,13 78,12 33,-1 63,-7 90,-17 40,-15 75,-42 100,-76 5,-7 11,-15 15,-24 -4,0 -8,0 -11,-2z"/>
  <path class="fil0" d="M389 419c-16,-6 -32,-17 -46,-33 -14,-16 -24,-37 -30,-60 -10,-37 -10,-77 -1,-128 4,-20 8,-40 15,-61 3,-10 6,-20 10,-29 4,-12 8,-22 12,-30 11,-24 25,-41 42,-52 21,-15 47,-20 70,-13l11 4 -10 26 -10 -3c-6,-2 -15,-3 -23,-1 -7,1 -15,4 -22,9 -13,9 -24,23 -33,42 -8,17 -14,35 -20,55 -5,20 -10,39 -13,58 -7,45 -6,83 3,114 5,19 13,35 24,47 11,12 24,20 39,29l13 8 -8 23 -9 -2c-4,0 -9,-2 -14,-3z"/>
  <path class="fil0" d="M465 445c-4,-1 -8,-3 -11,-5l-8 -4 8 -24 9 2c19,4 37,7 54,4 16,-3 33,-10 49,-22 26,-19 51,-47 74,-87 9,-17 18,-35 26,-53 8,-20 15,-37 20,-55 4,-21 5,-39 0,-54 -2,-8 -6,-15 -11,-21 -5,-6 -12,-11 -19,-14l-9 -4 9 -26 10 4c22,9 40,29 47,54 5,19 5,41 0,67 -2,9 -5,19 -9,31 -4,9 -8,19 -12,29 -8,20 -17,39 -27,56 -25,45 -50,76 -81,99 -19,14 -40,23 -61,27 -21,4 -40,2 -58,-4z"/>
  <path class="fil0" d="M441 16c3,-11 10,-17 15,-16l29 20c3,1 4,7 1,14l-2 6c-2,6 -7,11 -10,10l-34 -3c-5,-2 -6,-12 -3,-22l4 -9z"/>
  <path class="fil0" d="M681 101c4,-10 2,-20 -3,-22l-35 -3c-4,-2 -8,3 -11,10l-2 6c-2,6 -1,13 2,14l30 20c5,1 12,-6 16,-16l3 -9z"/>
  <path class="fil0" d="M412 522c-11,-1 -19,-4 -28,-10 -6,-2 -10,-89 -8,-108 2,-15 20,-21 34,-16l60 21c13,5 23,21 16,33 -10,17 -68,82 -74,80z"/>
  <path class="fil0" d="M644 655c-5,15 -19,23 -33,23 -4,0 -8,0 -11,-2 -6,-2 -11,-5 -15,-9 -8,-10 -11,-23 -6,-35 6,-18 26,-27 44,-21 18,7 27,26 21,44zm-12 -68c-32,-11 -66,5 -78,37 -8,23 -1,48 17,64 5,6 12,10 20,13 2,0 3,1 5,1 30,8 62,-8 72,-38 11,-31 -5,-66 -36,-77z"/>
  <path class="fil1" d="M306 275c-1,-24 1,-49 6,-77 4,-20 8,-40 15,-61 3,-10 6,-20 10,-29 4,-12 8,-22 12,-30 11,-24 25,-41 42,-52 12,-9 26,-14 41,-15 -3,9 -6,19 -9,29 -6,2 -11,5 -16,8 -13,9 -24,23 -33,42 -8,17 -14,35 -20,55 -5,20 -10,39 -13,58 -2,15 -3,30 -4,43 -10,10 -21,19 -31,29z"/>
  <path class="fil2" d="M475 50c0,0 0,0 -1,0l-34 -3c-3,-1 -4,-4 -5,-9 5,-11 11,-24 16,-37 1,-1 3,-1 4,-1 0,0 1,0 1,0l29 20c3,1 4,7 1,14l-2 6c-2,6 -6,10 -9,10z"/>
 </g>
</svg>
