<?xml version="1.0" encoding="UTF-8"?>
<!DOCTYPE svg PUBLIC "-//W3C//DTD SVG 1.1//EN" "http://www.w3.org/Graphics/SVG/1.1/DTD/svg11.dtd">
<!-- Creator: CorelDRAW X8 -->
<svg xmlns="http://www.w3.org/2000/svg" xml:space="preserve" width="1.96861in" height="1.96861in" version="1.1" style="shape-rendering:geometricPrecision; text-rendering:geometricPrecision; image-rendering:optimizeQuality; fill-rule:evenodd; clip-rule:evenodd"
viewBox="0 0 6264 6264"
 xmlns:xlink="http://www.w3.org/1999/xlink">
 <defs>
  <style type="text/css">
   <![CDATA[
    .fil0 {fill:#00B8D4;fill-rule:nonzero}
    .fil1 {fill:white;fill-rule:nonzero}
   ]]>
  </style>
 </defs>
 <g id="objects">
  <metadata id="CorelCorpID_0Corel-Layer"/>
  <path class="fil0" d="M6264 3132c0,1730 -1402,3132 -3132,3132 -1730,0 -3132,-1402 -3132,-3132 0,-1730 1402,-3132 3132,-3132 1730,0 3132,1402 3132,3132z"/>
  <path class="fil1" d="M2517 2018l0 -224c0,-92 74,-166 166,-166l898 0c91,0 166,74 166,166l0 224 252 0 0 -224c0,-231 -188,-419 -418,-419l-898 0c-231,0 -418,188 -418,419l0 224 252 0z"/>
  <path class="fil1" d="M2211 3423c43,-471 439,-841 921,-841 482,0 878,370 921,841l892 0 0 -1006c0,-161 -130,-291 -290,-291l-3046 0c-161,0 -291,130 -291,291l0 1006 893 0z"/>
  <path class="fil1" d="M4053 3591c-43,472 -439,841 -921,841 -482,0 -878,-369 -921,-841l-893 0 0 1007c0,160 130,290 291,290l3046 0c160,0 290,-130 290,-290l0 -1007 -892 0z"/>
  <path class="fil1" d="M3735 3375l-425 0c-25,0 -46,-20 -46,-46l0 -425c0,-25 -20,-45 -46,-45l-172 0c-26,0 -46,20 -46,45l0 425c0,26 -21,46 -46,46l-425 0c-25,0 -46,21 -46,46l0 173c0,25 21,45 46,45l425 0c25,0 46,21 46,46l0 425c0,25 20,46 46,46l172 0c26,0 46,-21 46,-46l0 -425c0,-25 21,-46 46,-46l425 0c25,0 45,-20 45,-45l0 -173c0,-25 -20,-46 -45,-46z"/>
 </g>
</svg>
