<?xml version="1.0" encoding="UTF-8"?>
<!DOCTYPE svg PUBLIC "-//W3C//DTD SVG 1.1//EN" "http://www.w3.org/Graphics/SVG/1.1/DTD/svg11.dtd">
<!-- Creator: CorelDRAW X8 -->
<svg xmlns="http://www.w3.org/2000/svg" xml:space="preserve" width="0.651181in" height="0.861583in" version="1.1" style="shape-rendering:geometricPrecision; text-rendering:geometricPrecision; image-rendering:optimizeQuality; fill-rule:evenodd; clip-rule:evenodd"
viewBox="0 0 813 1076"
 xmlns:xlink="http://www.w3.org/1999/xlink">
 <defs>
  <style type="text/css">
   <![CDATA[
    .fil0 {fill:#727371;fill-rule:nonzero}
   ]]>
  </style>
 </defs>
 <g id="Layer_x0020_1">
  <metadata id="CorelCorpID_0Corel-Layer"/>
  <path class="fil0" d="M806 149c10,45 10,90 -1,135 -12,44 -29,89 -50,136 -20,46 -33,82 -37,109 -3,13 -5,50 -3,110 2,58 0,114 -7,167 -24,181 -64,270 -119,270 -13,0 -22,-3 -32,-8 -8,-8 -16,-18 -19,-33 -5,-15 -9,-30 -10,-43 -2,-15 -4,-33 -4,-57 0,-24 0,-44 2,-58 2,-15 3,-34 5,-59 3,-43 3,-72 2,-88 -9,-100 -52,-148 -125,-148 -76,0 -118,48 -126,148 -1,15 -1,43 2,88 1,25 3,44 3,59 2,14 2,34 3,58 0,24 0,42 -3,57 -2,13 -5,28 -10,43 -5,15 -10,25 -20,33 -8,5 -20,8 -31,8 -55,0 -95,-89 -120,-270 -6,-55 -8,-111 -6,-167 1,-57 0,-92 -4,-110 -3,-27 -16,-63 -36,-109 -22,-47 -37,-92 -50,-136 -11,-45 -13,-90 -5,-135 18,-73 55,-119 113,-139 40,-15 91,-13 153,7 61,19 107,28 137,28 28,0 73,-9 136,-28 62,-20 113,-22 154,-7 57,20 93,66 108,139l0 0z"/>
 </g>
</svg>
