<?xml version="1.0" encoding="UTF-8"?>
<!DOCTYPE svg PUBLIC "-//W3C//DTD SVG 1.1//EN" "http://www.w3.org/Graphics/SVG/1.1/DTD/svg11.dtd">
<!-- Creator: CorelDRAW X8 -->
<svg xmlns="http://www.w3.org/2000/svg" xml:space="preserve" width="0.374386in" height="0.862929in" version="1.1" style="shape-rendering:geometricPrecision; text-rendering:geometricPrecision; image-rendering:optimizeQuality; fill-rule:evenodd; clip-rule:evenodd"
viewBox="0 0 49 112"
 xmlns:xlink="http://www.w3.org/1999/xlink">
 <defs>
  <style type="text/css">
   <![CDATA[
    .fil1 {fill:#74CBF2;fill-rule:nonzero}
    .fil0 {fill:#727371;fill-rule:nonzero}
   ]]>
  </style>
 </defs>
 <g id="Layer_x0020_1">
  <metadata id="CorelCorpID_0Corel-Layer"/>
  <path class="fil0" d="M36 67l0 0c8,4 13,12 13,21 0,13 -11,24 -25,24 -13,0 -24,-11 -24,-24 0,-9 4,-16 11,-21l0 -54c0,-7 6,-13 13,-13 7,0 12,6 12,13l0 54z"/>
  <path class="fil1" d="M24 105l0 0c10,0 18,-8 18,-17 0,-8 -5,-15 -12,-17l0 -14 -2 0 0 -2 2 0 0 -8 -2 0 0 -3 2 0 0 -7 -2 0 0 -2 2 0 0 -22c0,-4 -3,-6 -6,-6 -4,0 -6,2 -6,6l0 59c-7,2 -11,8 -11,16 0,9 8,17 17,17l0 0z"/>
  <path class="fil0" d="M28 76c5,2 8,6 8,12 0,6 -5,12 -12,12 -6,0 -12,-6 -12,-12 0,-5 3,-10 8,-12l1 0 0 -38c0,-2 1,-3 3,-3 1,0 2,1 2,3l0 38 2 0z"/>
 </g>
</svg>
