<?xml version="1.0" encoding="UTF-8"?>
<!DOCTYPE svg PUBLIC "-//W3C//DTD SVG 1.1//EN" "http://www.w3.org/Graphics/SVG/1.1/DTD/svg11.dtd">
<!-- Creator: CorelDRAW X8 -->
<svg xmlns="http://www.w3.org/2000/svg" xml:space="preserve" width="2.524in" height="2.10789in" version="1.1" style="shape-rendering:geometricPrecision; text-rendering:geometricPrecision; image-rendering:optimizeQuality; fill-rule:evenodd; clip-rule:evenodd"
viewBox="0 0 588 491"
 xmlns:xlink="http://www.w3.org/1999/xlink">
 <defs>
  <style type="text/css">
   <![CDATA[
    .fil0 {fill:#292E33;fill-rule:nonzero}
   ]]>
  </style>
 </defs>
 <g id="Layer_x0020_1">
  <metadata id="CorelCorpID_0Corel-Layer"/>
  <path class="fil0" d="M540 382l-492 0c-6,0 -10,-4 -10,-10l0 -150 111 0c7,0 14,-3 18,-9l34 -56c2,-2 3,-2 4,-2 1,1 2,1 3,3l32 106c3,9 10,15 20,15 9,0 17,-7 19,-16l31 -127c0,-2 2,-3 3,-3 1,0 3,1 3,3l34 141c2,9 9,15 17,16 1,0 2,0 3,0 7,0 14,-4 18,-10l34 -59c0,-1 1,-2 3,-2l125 0 0 150c0,6 -5,10 -10,10zm-492 -346l492 0c5,0 10,4 10,10l0 159 -125 0c-8,0 -14,4 -18,11l-34 58c-1,2 -3,2 -4,2 0,0 -2,-1 -2,-3l-34 -141c-2,-9 -10,-16 -20,-16 -10,0 -18,7 -20,16l-30 127c-1,3 -3,3 -4,3 -1,0 -2,0 -3,-2l-32 -107c-2,-8 -9,-13 -17,-14 -8,-1 -16,2 -20,9l-35 56c0,1 -1,1 -3,1l-111 0 0 -159c0,-6 4,-10 10,-10zm516 -36l-540 0c-13,0 -24,11 -24,24l0 394c0,13 11,24 24,24l98 0 0 37c0,7 6,12 12,12l320 0c6,0 11,-5 11,-12l0 -37 99 0c13,0 24,-11 24,-24l0 -394c0,-13 -11,-24 -24,-24z"/>
 </g>
</svg>
