<?xml version="1.0" encoding="UTF-8"?>
<!DOCTYPE svg PUBLIC "-//W3C//DTD SVG 1.1//EN" "http://www.w3.org/Graphics/SVG/1.1/DTD/svg11.dtd">
<!-- Creator: CorelDRAW X8 -->
<svg xmlns="http://www.w3.org/2000/svg" xml:space="preserve" width="0.862902in" height="0.788941in" version="1.1" style="shape-rendering:geometricPrecision; text-rendering:geometricPrecision; image-rendering:optimizeQuality; fill-rule:evenodd; clip-rule:evenodd"
viewBox="0 0 86 79"
 xmlns:xlink="http://www.w3.org/1999/xlink">
 <defs>
  <style type="text/css">
   <![CDATA[
    .fil0 {fill:#727371;fill-rule:nonzero}
   ]]>
  </style>
 </defs>
 <g id="Layer_x0020_1">
  <metadata id="CorelCorpID_0Corel-Layer"/>
  <path class="fil0" d="M83 56c4,5 4,12 0,16 -5,5 -12,5 -16,0 -3,-2 -4,-6 -4,-9l-14 -9c0,0 -1,0 -1,0 -2,2 -4,3 -6,3l0 5c2,0 3,1 5,3 3,3 3,7 0,10 -3,3 -8,3 -11,0 -3,-3 -3,-7 0,-10 1,-1 2,-2 3,-2l-1 -6c-2,0 -4,-1 -6,-3l-10 10c2,4 1,8 -2,11 -5,5 -12,5 -17,0 -4,-4 -4,-11 0,-16 4,-4 10,-4 15,-1l11 -8c0,-2 0,-5 0,-7l-8 -4c-2,1 -5,1 -6,-1 -2,-1 -2,-4 0,-6 1,-1 4,-1 6,0 1,1 1,2 1,4l9 4c0,-1 1,-1 1,-2 1,-1 3,-2 4,-3l-2 -12c-3,0 -5,-2 -7,-4 -5,-4 -5,-11 0,-16 4,-4 11,-4 16,0 4,5 4,12 0,16 -1,2 -2,2 -3,3l1 13c2,0 4,1 6,2l3 -2c-2,-3 -2,-8 1,-10 3,-4 8,-4 12,0 3,3 3,8 0,11 -3,3 -7,3 -11,1l-2 3c1,2 2,6 1,9l16 7c4,-4 11,-4 16,0l0 0z"/>
 </g>
</svg>
