<?xml version="1.0" encoding="UTF-8"?>
<!DOCTYPE svg PUBLIC "-//W3C//DTD SVG 1.1//EN" "http://www.w3.org/Graphics/SVG/1.1/DTD/svg11.dtd">
<!-- Creator: CorelDRAW X8 -->
<svg xmlns="http://www.w3.org/2000/svg" xml:space="preserve" width="1.6267in" height="2.00779in" version="1.1" style="shape-rendering:geometricPrecision; text-rendering:geometricPrecision; image-rendering:optimizeQuality; fill-rule:evenodd; clip-rule:evenodd"
viewBox="0 0 138 170"
 xmlns:xlink="http://www.w3.org/1999/xlink">
 <defs>
  <style type="text/css">
   <![CDATA[
    .fil0 {fill:#00BABA;fill-rule:nonzero}
   ]]>
  </style>
 </defs>
 <g id="Layer_x0020_1">
  <metadata id="CorelCorpID_0Corel-Layer"/>
  <path class="fil0" d="M117 62c3,-10 5,-20 3,-30 -1,-3 -2,-7 -4,-10 -3,-6 -8,-11 -14,-12 -1,0 -3,0 -4,-1 4,0 8,0 11,1 5,1 9,4 12,9 1,3 2,6 2,8 3,12 -1,24 -6,35zm20 -39c-1,-4 -2,-7 -3,-11 -3,-6 -8,-10 -15,-11 -11,-3 -25,1 -35,5 -15,5 -32,-2 -47,-5 -13,-2 -27,-2 -33,11 -1,4 -3,7 -3,11 -4,19 6,39 13,56 3,6 6,12 8,18 6,14 8,30 9,45 1,12 1,28 18,28 6,0 -6,-43 7,-58 5,-5 9,-7 13,-7 4,0 8,2 13,7 13,15 1,58 7,58 16,0 17,-16 18,-28 0,-9 1,-19 4,-27 2,-7 5,-15 7,-22 8,-23 24,-46 19,-70z"/>
 </g>
</svg>
