<?xml version="1.0" encoding="UTF-8"?>
<!DOCTYPE svg PUBLIC "-//W3C//DTD SVG 1.1//EN" "http://www.w3.org/Graphics/SVG/1.1/DTD/svg11.dtd">
<!-- Creator: CorelDRAW X8 -->
<svg xmlns="http://www.w3.org/2000/svg" xml:space="preserve" width="0.712965in" height="0.862528in" version="1.1" style="shape-rendering:geometricPrecision; text-rendering:geometricPrecision; image-rendering:optimizeQuality; fill-rule:evenodd; clip-rule:evenodd"
viewBox="0 0 50 61"
 xmlns:xlink="http://www.w3.org/1999/xlink">
 <defs>
  <style type="text/css">
   <![CDATA[
    .fil1 {fill:#74CBF2}
    .fil0 {fill:#777876}
   ]]>
  </style>
 </defs>
 <g id="Layer_x0020_1">
  <metadata id="CorelCorpID_0Corel-Layer"/>
  <path class="fil0" d="M37 19l0 0c0,-3 -1,-11 -3,-16 -1,0 -1,0 -1,0 -1,-1 -4,-3 -7,-3 -4,0 -6,2 -7,3 0,0 -1,0 -1,0 -2,5 -3,13 -3,16 0,0 0,0 1,1l2 3 6 -8 -2 -4c-1,0 0,-1 1,-2 1,0 3,-2 3,-2 0,0 2,2 3,2 1,1 2,2 1,2l-4 5c-2,3 -28,35 -26,38l6 6c1,1 8,-8 9,-9l21 -31c1,-1 1,-1 1,-1l0 0z"/>
  <path class="fil1" d="M34 27l-7 10 10 14c1,1 6,6 7,6l6 -7c1,-1 -3,-7 -4,-8l-12 -15z"/>
 </g>
</svg>
