<?xml version="1.0" encoding="UTF-8"?>
<!DOCTYPE svg PUBLIC "-//W3C//DTD SVG 1.1//EN" "http://www.w3.org/Graphics/SVG/1.1/DTD/svg11.dtd">
<!-- Creator: CorelDRAW X8 -->
<svg xmlns="http://www.w3.org/2000/svg" xml:space="preserve" width="1.24154in" height="1.24153in" version="1.1" style="shape-rendering:geometricPrecision; text-rendering:geometricPrecision; image-rendering:optimizeQuality; fill-rule:evenodd; clip-rule:evenodd"
viewBox="0 0 186 186"
 xmlns:xlink="http://www.w3.org/1999/xlink">
 <defs>
  <style type="text/css">
   <![CDATA[
    .fil0 {fill:#57595B;fill-rule:nonzero}
    .fil1 {fill:#F2792A;fill-rule:nonzero}
   ]]>
  </style>
 </defs>
 <g id="_3">
  <metadata id="CorelCorpID_0Corel-Layer"/>
  <g id="_905406994624">
   <path class="fil0" d="M12 12c-16,15 -16,41 0,57l16 17 59 -57 -17 -17c-16,-16 -42,-16 -58,0z"/>
   <path class="fil0" d="M154 98l-59 57 18 19c16,16 42,16 58,0 8,-8 12,-18 12,-29 0,-10 -3,-20 -11,-28l-18 -19z"/>
   <path class="fil1" d="M117 12l-105 101c-16,16 -16,42 0,58 8,8 18,12 29,12 10,0 20,-3 28,-11l105 -102c16,-16 16,-42 0,-58 -15,-16 -41,-16 -57,0zm5 18l0 0c3,0 5,2 5,5 0,3 -2,5 -5,5 -3,0 -5,-2 -5,-5 0,-3 2,-5 5,-5zm-100 134l0 0c-3,-1 -5,-3 -5,-6 1,-3 3,-5 6,-5 3,1 5,3 5,6 -1,3 -3,5 -6,5zm7 -16l0 0c-3,-1 -5,-3 -5,-6 0,-3 3,-5 5,-5 3,1 5,3 5,6 0,3 -3,5 -5,5zm3 -19l0 0c-3,0 -5,-2 -5,-5 1,-3 3,-5 6,-5 3,0 5,3 5,6 -1,2 -3,5 -6,4zm10 33l0 0c-3,0 -5,-3 -5,-6 0,-2 3,-4 5,-4 3,0 5,3 5,5 0,3 -3,5 -5,5zm3 -18l0 0c-3,0 -5,-3 -5,-6 1,-3 3,-5 6,-5 3,1 5,3 5,6 -1,3 -3,5 -6,5zm13 15l0 0c-3,-1 -5,-3 -5,-6 0,-3 3,-5 5,-5 3,1 5,3 5,6 0,3 -3,5 -5,5zm64 -59l0 0 -21 20c-10,9 -26,8 -36,-2l0 -1c-10,-10 -9,-26 1,-36l20 -20c10,-9 26,-9 35,1l2 3c10,10 9,26 -1,35zm13 -46l0 0c-2,0 -5,-2 -5,-5 0,-3 3,-5 5,-5 3,0 6,2 6,5 0,3 -3,5 -6,5zm0 -21l0 0c0,-3 3,-5 6,-5 2,0 5,2 5,5 0,3 -3,5 -5,5 -3,0 -6,-2 -6,-5zm14 35l0 0c-3,0 -5,-2 -5,-5 0,-3 2,-5 5,-5 3,0 5,2 5,5 0,3 -2,5 -5,5zm5 -16l0 0c-3,0 -5,-2 -5,-5 0,-3 2,-5 5,-5 3,0 5,2 5,5 0,3 -2,5 -5,5zm3 -19l0 0c-3,0 -5,-2 -5,-5 0,-3 2,-5 5,-5 3,0 5,2 5,5 0,3 -2,5 -5,5z"/>
  </g>
 </g>
</svg>
