<?xml version="1.0" encoding="UTF-8"?>
<!DOCTYPE svg PUBLIC "-//W3C//DTD SVG 1.1//EN" "http://www.w3.org/Graphics/SVG/1.1/DTD/svg11.dtd">
<!-- Creator: CorelDRAW X8 -->
<svg xmlns="http://www.w3.org/2000/svg" xml:space="preserve" width="8.5in" height="11in" version="1.1" style="shape-rendering:geometricPrecision; text-rendering:geometricPrecision; image-rendering:optimizeQuality; fill-rule:evenodd; clip-rule:evenodd"
viewBox="0 0 8500 11000"
 xmlns:xlink="http://www.w3.org/1999/xlink">
 <defs>
  <style type="text/css">
   <![CDATA[
    .fil0 {fill:#090968}
   ]]>
  </style>
 </defs>
 <g id="Layer_x0020_1">
  <metadata id="CorelCorpID_0Corel-Layer"/>
  <g id="_105073243104">
   <path class="fil0" d="M2555 6452c94,-24 47,133 26,152 -56,-3 -11,-108 -26,-152z"/>
   <path class="fil0" d="M7834 2619c84,82 30,-119 152,-76 50,57 23,191 0,254 22,63 177,-7 203,51 -37,89 -173,80 -253,127 -152,1139 -341,2786 -432,4035 -15,35 -97,4 -101,51 -8,79 73,-65 76,25 17,85 -53,41 -76,25 75,240 256,421 254,635 -2,123 -125,399 -203,482 -168,178 -628,258 -965,254 -438,-6 -1007,-114 -1269,-482 -54,-76 -284,-475 -279,-584 8,-166 183,-232 330,-381 81,-82 137,-210 203,-253 481,-317 1476,69 1802,253 125,-973 236,-1982 330,-3045 -1407,-40 -2998,88 -4315,51 -238,1177 -365,2476 -533,3781 -82,31 -19,-82 -101,-51 -174,165 -397,417 -635,483 -824,225 -1482,-267 -1700,-813 -95,-718 412,-831 761,-1040 710,10 1348,91 1574,584 82,-359 74,-913 76,-1269 -91,171 -64,460 -127,660 -54,-453 142,-971 203,-1523 83,-742 26,-1569 330,-2056 19,-131 -235,-89 -152,-203 1547,-49 3308,-69 4847,-76 35,58 -65,95 0,101zm-4340 127l0 0c32,113 350,64 407,-25 -186,25 -310,7 -407,25zm1777 0l0 0c501,12 1059,108 1472,0 -487,29 -1105,-78 -1472,0zm-837 203l0 0c103,-40 303,16 355,-76 -134,10 -319,-31 -355,76zm3121 51l0 0c10,75 111,58 152,102 -21,-72 36,-66 26,-127 -68,0 -145,-10 -178,25zm-1269 51l0 0c-67,-36 -290,-47 -355,0 66,40 305,104 355,0zm-2208 25l0 0c171,-12 259,43 381,-25 -107,13 -399,-28 -381,25zm-761 26l0 0c0,25 0,50 0,76 127,29 230,-56 304,0 17,-136 -224,-118 -304,-76zm2944 101l0 0c4,-10 304,177 355,0 -111,22 -307,-109 -355,0zm0 102l0 0c-244,72 -301,-106 -508,-26 159,1 419,195 508,26zm-2716 76l0 0c-139,37 -138,-65 -203,-102 -13,38 -37,64 -51,102 52,23 264,42 254,0zm-25 101l0 0c-69,16 -202,-32 -229,26 58,50 179,10 229,-26zm-229 279l0 0c110,0 220,0 330,0 -84,-67 -219,-85 -304,-152 -29,30 -29,90 -26,152zm2665 -101l0 0c105,5 249,-29 229,101 71,-30 175,-27 279,-25 -103,-96 -442,-167 -508,-76zm-863 127l0 0c-135,16 -338,-33 -431,25 136,-16 338,34 431,-25zm1371 76l0 0c216,-29 486,-4 685,-51 -219,-54 -510,-17 -685,51zm-3046 102l0 0c-23,-62 -65,-104 -127,-127 -71,79 21,147 127,127zm3858 -77l0 0c102,-16 270,33 330,-25 -100,6 -283,-86 -330,25zm-3299 77l0 0c-306,-18 17,76 101,0 -50,-43 -32,2 -101,0zm-2894 2563l0 0c102,0 203,0 305,0 -10,-109 -213,-24 -305,-51 0,17 0,34 0,51zm-355 127l0 0c60,-1 75,43 152,25 -1,-35 12,-56 26,-76 -95,38 -145,-27 -178,51zm1269 279l0 0c53,-15 167,31 178,-26 -75,-94 -24,-122 -178,-152 0,59 0,119 0,178zm-888 0l0 0c120,-24 213,-75 279,-152 -122,21 -271,16 -279,152zm-711 127l0 0c98,5 137,-149 26,-153 18,78 -44,75 -26,153zm1218 -26l0 0c137,-25 199,31 254,-76 -56,-46 -226,10 -254,76zm-862 51l0 0c33,34 134,6 152,-51 -73,-5 -129,7 -152,51zm1598 76l0 0c-67,0 -135,0 -203,0 -10,136 199,116 203,0zm-1928 229l0 0c93,40 118,-193 25,-178 20,88 -38,98 -25,178zm1370 -153l0 0c-22,81 40,79 51,127 103,2 184,-19 203,-101 -54,-76 -161,-44 -254,-26zm4644 76l0 0c78,9 250,-18 178,-76 -19,66 -188,-18 -178,76zm-4111 102l0 0c126,-25 67,136 178,127 -13,-114 0,-255 -102,-279 -14,62 -98,54 -76,152zm2944 25l0 0c-15,-44 31,-149 -25,-152 -34,54 -82,141 25,152zm178 -25l0 0c64,-3 98,-37 101,-102 -64,4 -98,37 -101,102zm964 25l0 0c141,-20 323,2 406,-76 -154,30 -355,8 -406,76zm-5456 26l0 0c-11,130 192,70 177,-26 -82,-14 -118,18 -177,26zm4923 25l0 0c77,-8 197,28 203,-51 -89,-4 -162,7 -203,51zm1447 127l0 0c40,-142 -88,-115 -153,-152 3,99 103,100 153,152zm-1675 -51l0 0c7,-67 -35,-83 -102,-76 -7,67 35,83 102,76zm-76 203l0 0c7,-117 -84,-136 -153,-177 19,91 59,161 153,177zm-3960 0l0 0c80,67 170,-18 254,-25 6,-48 -28,-56 -25,-102 -112,7 -242,-5 -229,127zm4163 -76l0 0c34,8 48,36 101,26 0,-26 0,-51 0,-77 -58,-7 -95,7 -101,51zm-3782 127l0 0c50,50 145,16 203,0 10,-131 -183,-61 -203,0zm102 127l0 0c146,-31 288,-67 355,-178 -51,33 -273,95 -355,178zm4492 -76l0 0c142,-1 301,14 380,-51 -83,-30 -304,-7 -380,51zm-5533 127l0 0c-53,-57 -84,-136 -203,-127 -19,113 130,190 203,127zm4670 254l0 0c-150,-88 -306,-304 -432,-330 120,117 276,333 432,330zm-3934 -229l0 0c-2,-59 -111,-139 -152,-76 62,17 68,158 152,76zm-508 76l0 0c1,-50 70,-32 51,-101 -53,-15 -72,-63 -152,-51 30,54 48,121 101,152zm178 -51l0 0c30,22 68,34 127,26 12,-80 -22,-113 -101,-102 1,35 -12,56 -26,76zm5127 77l0 0c75,-7 154,71 177,-26 -40,-40 -136,-7 -177,26zm507 177l0 0c137,-15 258,-47 305,-152 -143,9 -245,60 -305,152z"/>
  </g>
 </g>
</svg>
