<?xml version="1.0" encoding="UTF-8"?>
<!DOCTYPE svg PUBLIC "-//W3C//DTD SVG 1.1//EN" "http://www.w3.org/Graphics/SVG/1.1/DTD/svg11.dtd">
<!-- Creator: CorelDRAW X8 -->
<svg xmlns="http://www.w3.org/2000/svg" xml:space="preserve" width="8.5in" height="11in" version="1.1" style="shape-rendering:geometricPrecision; text-rendering:geometricPrecision; image-rendering:optimizeQuality; fill-rule:evenodd; clip-rule:evenodd"
viewBox="0 0 8500 11000"
 xmlns:xlink="http://www.w3.org/1999/xlink">
 <defs>
  <style type="text/css">
   <![CDATA[
    .fil0 {fill:#090968}
   ]]>
  </style>
 </defs>
 <g id="Layer_x0020_1">
  <metadata id="CorelCorpID_0Corel-Layer"/>
  <g id="_68808230208">
   <path class="fil0" d="M2748 1854c22,14 1,403 -23,298 10,-97 -22,-236 23,-298z"/>
   <path class="fil0" d="M4697 10705c-233,-202 -568,-303 -802,-504 -184,-351 -518,-981 -161,-1468 152,-70 240,-203 390,-275 99,40 226,63 344,23 83,177 214,306 275,505 -94,203 -115,481 -275,619 44,204 152,211 321,298 90,37 8,-99 69,-92 97,-8 20,99 23,138 142,-23 315,37 321,-161 318,24 453,-324 550,-596 -21,-77 -42,-12 -114,-23 98,-399 -156,-816 -298,-1124 -21,-17 -52,-24 -92,-23 -398,-572 -779,-1162 -1215,-1696 -564,789 -1028,1678 -1583,2476 -286,601 -685,1089 -963,1697 -110,4 -183,46 -229,115 -88,4 -8,-19 -23,-69 -172,-56 -183,65 -275,46 -92,-226 159,-435 321,-688 163,-255 348,-602 550,-940 417,-697 791,-1380 1261,-1995 114,-211 233,-453 367,-665 92,-145 281,-282 230,-482 -87,-33 -44,63 -115,46 32,-14 3,-88 46,-92 -175,-268 -411,-476 -573,-756 -47,-55 -91,31 -138,-23 -16,-369 -443,-519 -550,-872 -54,10 -62,102 -115,46 -17,-70 39,-67 23,-137 -219,-324 -461,-625 -528,-1101 -44,9 -18,89 -91,69 77,-311 -97,-742 23,-1124 6,-90 -98,-70 -92,-160 72,-27 56,35 92,45 184,-335 321,-717 642,-917 9,-55 -42,-50 -23,-115 140,45 286,-108 252,-183 300,6 504,-239 825,-252 97,-4 238,53 344,68 331,50 719,53 918,230 273,243 273,615 481,940 -118,338 -114,707 -344,894 -201,164 -818,219 -894,-68 -84,-317 -214,-844 252,-941 -28,-56 -33,-157 46,-91 -23,-161 -166,-201 -206,-344 -74,-29 -18,74 -92,46 -15,-69 -46,-123 -92,-161 -94,70 -150,32 -206,-46 -534,9 -682,419 -894,688 -190,913 320,1428 642,1972 70,-16 67,40 137,23 -76,118 217,342 367,528 62,77 122,175 184,252 152,191 245,287 366,504 913,-1274 1691,-2681 2569,-3990 30,-57 -91,-72 -23,-91 148,-147 473,-109 642,-46 -968,1485 -1904,3003 -2844,4517 642,810 1240,1665 1835,2522 115,470 252,962 206,1468 -31,76 -83,131 -137,183 -64,288 -152,552 -321,734 -350,140 -611,368 -963,505 -5,19 9,21 22,23 -165,-112 -396,135 -642,22 -87,-4 -8,19 -23,69zm-1261 -10089l0 0c-52,-86 -139,-136 -229,-184 12,126 152,124 229,184zm551 -23l0 0c-60,-2 -25,-98 -115,-69 -30,78 90,121 115,69zm-803 137l0 0c-15,-53 -41,-96 -115,-91 3,66 29,109 115,91zm-390 46l0 0c56,-9 50,42 115,23 -2,-40 5,-71 23,-91 -70,61 -90,-82 -161,0 27,3 25,36 23,68zm321 23l0 0c-14,-13 -108,-53 -114,0 34,27 96,81 114,0zm1376 69l0 0c88,18 88,-110 0,-92 0,31 0,62 0,92zm-229 46l0 0c59,59 97,-19 114,-69 -29,-1 -31,-29 -68,-23 38,86 -5,45 -46,92zm-1628 137l0 0c43,10 57,50 114,46 19,-87 -48,-88 -91,-114 1,31 -11,50 -23,68zm2155 24l0 0c-40,-21 -67,-56 -114,-69 -12,59 81,130 114,69zm-46 206l0 0c150,14 -57,140 92,183 18,-122 4,-255 -92,-321 0,46 0,92 0,138zm2271 69l0 0c-4,-67 132,-111 68,-161 -10,52 -126,116 -68,161zm-4403 -23l0 0c-8,-54 -24,-99 -69,-115 -28,66 -12,105 69,115zm3852 435l0 0c122,-153 295,-378 321,-550 -112,179 -225,355 -321,550zm-3875 -412l0 0c-65,19 -59,-33 -115,-23 -22,92 123,135 115,23zm1834 206l0 0c8,-31 33,-44 23,-92 -23,0 -46,0 -69,0 -6,53 6,87 46,92zm253 -46l0 0c-16,0 -31,0 -46,0 3,58 33,89 91,92 1,-32 -10,-50 -23,-69 28,-3 55,-7 46,-46 -42,22 -76,-69 -91,0 14,1 27,4 23,23zm-2225 92l0 0c3,-28 7,-54 46,-46 4,-50 -19,-73 -69,-69 13,34 -26,119 23,115zm4105 252l0 0c76,-44 247,-219 160,-275 -13,132 -131,159 -160,275zm-4632 -160l0 0c12,-59 39,-89 -46,-92 -12,58 -39,89 46,92zm2431 0l0 0c7,-31 32,-44 22,-92 -22,0 -45,0 -68,0 -7,52 5,86 46,92zm206 -69l0 0c4,64 40,98 115,92 -1,-32 10,-51 22,-69 -46,-17 -90,-72 -137,-23zm-2247 92l0 0c-4,57 35,71 69,91 21,-34 36,-165 -23,-91 53,38 -9,-3 -46,0zm2178 45l0 0c5,64 73,65 92,115 31,-29 31,-108 0,-138 -40,-1 -71,6 -92,23zm-2499 92l0 0c90,28 123,-80 46,-92 -12,34 -34,58 -46,92zm-69 92l0 0c36,-34 33,-131 -46,-115 -48,46 -1,98 46,115zm4540 69l0 0c67,11 122,-106 69,-138 14,83 -70,68 -69,138zm-1926 -46l0 0c23,-77 -32,-75 -92,-69 -7,60 32,75 92,69zm206 -23l0 0c-3,75 94,110 138,69 -11,-62 -89,-115 -138,-69zm-2820 183l0 0c-10,-66 -48,-104 -115,-114 21,55 60,93 115,114zm2774 -69l0 0c-6,61 32,76 92,69 -1,-61 -52,-110 -92,-69zm1583 299l0 0c40,-106 198,-214 160,-321 -41,104 -191,220 -160,321zm-4403 -115l0 0c11,-72 -29,-94 -69,-115 -59,59 19,97 69,115zm688 92l0 0c-8,-69 -13,-140 -69,-161 -59,66 -2,155 69,161zm-665 0l0 0c62,-2 110,-53 69,-92 -61,-7 -75,32 -69,92zm2385 91l0 0c-35,-80 -100,-129 -184,-160 37,78 111,118 184,160zm-2202 69l0 0c89,25 114,-115 46,-114 -10,43 -65,41 -46,114zm574 46l0 0c3,-57 4,-111 -46,-115 -37,35 -34,131 46,115zm-230 206l0 0c-1,-75 10,-162 -68,-160 -57,62 -60,173 68,160zm-481 115l0 0c13,-76 -77,-166 -115,-115 42,35 57,96 115,115zm504 -23l0 0c94,24 123,-136 23,-114 19,64 -32,59 -23,114zm184 115l0 0c-10,-55 42,-50 23,-115 -30,-1 -32,-29 -69,-23 -16,54 -53,146 46,138zm-390 -23l0 0c-72,15 53,140 69,69 -27,-4 -25,-37 -23,-69 -15,0 -31,0 -46,0zm115 23l0 0c35,-91 -78,-149 -115,-92 33,36 58,80 115,92zm412 91l0 0c5,-65 3,-125 -68,-114 -5,66 -3,125 68,114zm-688 0l0 0c89,19 89,-109 0,-91 0,30 0,61 0,91zm413 69l0 0c23,0 46,0 69,0 6,-60 -8,-98 -69,-91 0,30 0,61 0,91zm413 92l0 0c15,-52 45,-138 0,-183 -23,0 -46,0 -69,0 -4,99 -43,164 69,183zm-642 -23l0 0c44,-44 24,-140 -69,-115 -11,72 29,94 69,115zm-229 69l0 0c5,-18 19,-27 45,-23 0,-46 0,-92 0,-138 -23,0 -45,0 -68,0 19,82 -67,138 23,161zm573 -115l0 0c13,56 19,118 92,115 72,-67 -43,-169 -92,-115zm367 184l0 0c92,22 92,-137 0,-115 0,38 0,76 0,115zm-826 46l0 0c101,19 82,-149 0,-138 -2,86 -26,65 0,138zm688 23l0 0c50,-57 17,-170 -69,-161 -23,92 -16,131 69,161zm-367 0l0 0c50,-49 9,-125 -46,-138 -33,71 4,89 46,138zm413 68l0 0c32,-1 50,11 69,23 31,-29 40,-137 -23,-137 -10,43 -50,57 -46,114zm-275 69l0 0c49,-56 17,-170 -69,-160 -14,90 34,119 69,160zm481 115l0 0c44,-5 51,26 92,23 0,-54 40,-68 23,-138 -81,-11 -81,-103 -183,-92 18,80 -43,97 0,138 78,17 29,-93 114,-69 30,91 -75,47 -46,138zm-321 0l0 0c54,-91 -23,-110 -68,-161 -60,66 -3,155 68,161zm-183 0l0 0c-36,-26 -48,-75 -115,-69 -35,83 84,127 115,69zm688 206l0 0c-17,-55 147,-226 -23,-252 -25,67 -98,236 23,252zm-390 -115l0 0c3,-56 4,-111 -46,-114 -36,34 -33,131 46,114zm-183 69l0 0c48,-48 -31,-86 -69,-114 -37,36 11,105 69,114zm229 23l0 0c88,18 88,-110 0,-92 0,31 0,62 0,92zm69 46l0 0c45,0 29,63 91,46 2,-72 46,-127 -23,-161 30,91 -66,56 -68,115zm435 46l0 0c-4,-65 20,-158 -46,-161 -14,59 -102,209 23,207 -2,-64 -43,-79 23,-46zm-298 0l0 0c-6,75 27,110 92,115 6,-75 -27,-111 -92,-115zm413 183l0 0c-30,-71 6,-65 0,-160 -23,0 -46,0 -69,0 -11,87 10,143 69,160zm-848 -23l0 0c22,0 45,0 68,0 7,-52 -5,-86 -46,-91 -7,31 -32,44 -22,91zm664 69l0 0c-20,-67 -29,-79 23,-114 -14,-13 -69,-94 -91,-23 42,44 -76,128 68,137zm230 23l0 0c45,0 29,63 92,46 -23,-115 -33,-124 45,-138 -40,-20 -37,-84 -91,-91 19,96 -45,108 -46,183zm-734 23l0 0c36,-34 34,-131 -46,-115 -36,35 1,97 46,115zm-183 161l0 0c-12,-111 -89,-157 -161,-207 8,115 68,177 161,207zm1054 -92l0 0c38,46 62,106 138,114 46,-117 -27,-164 -92,-229 -10,44 -49,58 -46,115zm1124 573l0 0c119,-225 357,-453 390,-688 -111,233 -340,470 -390,688zm-1880 -550l0 0c36,-35 33,-131 -46,-115 -4,57 -4,111 46,115zm137 114l0 0c13,-81 -19,-118 -68,-137 -13,81 19,118 68,137zm734 115l0 0c-12,-102 -72,-158 -160,-183 1,113 90,138 160,183zm-596 0l0 0c-5,-43 26,-50 23,-92 -55,10 -50,-42 -115,-23 13,56 54,84 92,115zm-184 0l0 0c42,-39 -7,-90 -68,-92 9,44 8,99 68,92zm1009 46l0 0c-17,-74 -63,-120 -137,-138 8,84 78,105 137,138zm-688 46l0 0c8,-53 -3,-88 -23,-115 -22,0 -45,0 -68,0 -19,88 49,89 91,115zm-275 -46l0 0c54,7 43,80 115,69 13,-81 -102,-150 -115,-69zm-68 69l0 0c-31,-23 -46,-62 -92,-69 -30,71 65,130 92,69zm1008 68l0 0c20,-57 30,-122 -68,-114 -5,66 -3,125 68,114zm-504 0l0 0c-10,-51 -41,-81 -92,-91 -68,59 52,139 92,91zm-482 24l0 0c36,25 48,74 115,68 13,-80 -102,-149 -115,-68zm1078 91l0 0c13,-48 57,-65 46,-137 -23,0 -46,0 -69,0 9,69 -60,116 23,137zm-413 69l0 0c-4,-201 -62,-102 -160,-160 -8,114 103,111 160,160zm-229 0l0 0c19,-103 -41,-127 -115,-138 -9,94 24,145 115,138zm803 69l0 0c40,-21 50,-72 46,-138 -71,17 -28,-79 -115,-46 -75,53 -8,156 69,184zm-1055 23l0 0c-63,-75 -108,-167 -229,-184 59,78 138,137 229,184zm46 -69l0 0c0,-31 0,-61 0,-92 -89,-18 -89,110 0,92zm229 46l0 0c55,37 101,82 161,114 14,-129 -51,-179 -138,-206 2,40 -5,71 -23,92zm-69 69l0 0c14,-98 -62,-107 -114,-138 -5,89 36,132 114,138zm459 -69l0 0c-40,-1 -59,17 -69,46 47,6 45,62 92,68 96,-65 -79,-212 -46,-137 14,1 27,3 23,23zm367 92l0 0c-12,-65 -66,-88 -115,-115 -6,83 67,156 115,115zm-619 137l0 0c0,-107 -91,-123 -161,-160 -4,111 87,127 161,160zm367 -46l0 0c19,-26 30,-61 22,-114 -84,-23 -91,112 -22,114zm-138 92l0 0c1,-70 13,-151 -69,-138 -14,83 8,130 69,138zm206 0l0 0c59,-3 89,-33 92,-92 -31,0 -61,0 -92,0 0,31 0,61 0,92zm-229 115l0 0c11,-72 -20,-103 -92,-92 3,58 34,89 92,92zm-252 91l0 0c-19,-88 -92,-122 -161,-160 25,82 99,115 161,160zm1192 92l0 0c33,-40 -22,-131 -92,-138 -3,129 53,80 92,138zm-23 183l0 0c3,-86 -45,-123 -114,-137 -19,102 40,127 114,137zm-1009 23l0 0c8,-53 -3,-88 -23,-114 -23,0 -46,0 -68,0 -6,74 27,110 91,114zm1216 161l0 0c-20,-58 -107,-167 -161,-115 60,32 87,97 161,115zm-230 -23l0 0c-60,12 -78,-133 -137,-46 38,10 103,108 137,46zm207 46l0 0c-60,-9 -69,-69 -138,-69 4,67 121,152 138,69zm-367 69l0 0c15,53 41,96 114,91 -32,-40 19,-135 -23,-91 -15,68 -49,-22 -91,0zm619 183l0 0c4,-119 -113,-116 -184,-160 25,90 90,139 184,160zm-275 46l0 0c-61,-31 -87,-97 -161,-115 -13,91 111,164 161,115zm321 23l0 0c60,31 87,96 160,115 16,-71 16,-44 0,-115 -71,64 -98,-73 -160,0zm-574 46l0 0c10,-94 -84,-84 -114,-138 -55,66 81,89 114,138zm-527 0l0 0c5,-66 3,-125 -69,-115 -11,72 29,94 69,115zm505 137l0 0c28,-118 -81,-65 -92,-91 -2,-36 3,-80 -46,-69 2,97 62,137 138,160zm504 0l0 0c-15,-100 -117,-111 -183,-160 -35,69 78,158 183,160zm-711 -46l0 0c16,-76 -38,-83 -92,-91 -15,77 39,84 92,91zm275 -68l0 0c18,82 97,102 161,137 -18,-76 -89,-186 -161,-137zm-275 229l0 0c-4,-80 -53,-115 -114,-138 -10,94 23,145 114,138zm1147 -46l0 0c-33,-15 -71,-140 -115,-69 24,24 89,122 115,69zm-963 46l0 0c22,-107 -95,-74 -138,-115 21,63 72,96 138,115zm229 69l0 0c8,-122 -68,-161 -161,-184 2,113 91,139 161,184zm527 0l0 0c-21,-94 -81,-148 -183,-161 27,88 75,155 183,161zm-252 23l0 0c-43,-72 -98,-131 -183,-161 32,83 77,153 183,161zm642 137l0 0c-46,-84 -104,-155 -160,-229 8,122 82,178 160,229zm-2453 46l0 0c82,-33 177,-173 137,-252 -20,110 -91,169 -137,252zm1284 -114l0 0c10,-87 -49,-105 -92,-138 22,54 7,145 92,138zm229 45l0 0c-8,-106 -78,-151 -161,-183 -7,122 111,119 161,183zm252 46l0 0c17,-139 -109,-135 -160,-206 -70,110 84,168 160,206zm505 -23l0 0c-14,-93 -83,-131 -161,-160 5,96 100,192 161,160zm-413 -114l0 0c-53,76 98,105 138,160 -16,-84 -85,-114 -138,-160zm-344 229l0 0c-14,-93 -82,-132 -161,-161 0,108 76,139 161,161zm206 46l0 0c40,-69 -78,-141 -137,-184 -64,93 113,107 137,184zm92 -46l0 0c91,-6 70,98 161,92 -2,-40 5,-72 23,-92 -60,-32 -106,-78 -161,-115 -19,27 -30,62 -23,115zm275 0l0 0c23,0 28,-19 46,-23 46,0 29,63 92,46 -2,-90 -93,-91 -138,-138 -5,44 26,51 23,92 -24,-1 -58,11 -23,23zm413 92l0 0c-98,-33 -74,-186 -183,-207 -26,141 127,224 183,207zm-803 91l0 0c-2,-97 -61,-137 -137,-160 -4,103 75,123 137,160zm253 46l0 0c-2,-113 -121,-108 -161,-183 -43,78 108,129 161,183zm91 -23l0 0c83,-14 68,70 138,69 -5,-43 26,-51 23,-92 -50,-41 -94,-89 -161,-114 0,46 0,91 0,137zm413 23l0 0c-22,-85 -53,-161 -160,-160 13,93 82,131 160,160zm-779 69l0 0c-3,-89 -63,-121 -138,-138 17,75 63,120 138,138zm68 -92l0 0c17,106 125,120 184,184 -1,-114 -115,-211 -184,-184zm-91 207l0 0c-7,-79 -112,-178 -161,-138 68,32 93,106 161,138zm527 -46l0 0c-75,-17 -96,-88 -161,-115 1,77 103,172 161,115zm69 23l0 0c81,-13 56,81 137,69 52,-104 -44,-180 -137,-207 0,46 0,92 0,138zm-344 114l0 0c-26,-96 -90,-154 -184,-183 33,89 94,151 184,183zm183 -45l0 0c-9,39 -29,-5 -69,0 -13,61 95,116 115,68 -76,-22 26,-45 23,-68 -60,-10 -69,-69 -138,-69 0,30 -40,21 -45,46 27,56 86,-47 114,23zm413 0l0 0c-30,0 -21,40 -46,45 25,91 90,140 184,161 21,-136 -63,-167 -138,-206zm-619 160l0 0c-4,-103 -79,-135 -161,-160 26,81 79,135 161,160zm1055 23l0 0c-18,-68 -96,-193 -138,-161 67,33 52,147 138,161zm-3646 848l0 0c252,-275 395,-659 642,-940 -4,-27 4,-65 -23,-69 -246,298 -415,671 -619,1009zm275 -710l0 0c100,-30 190,-192 160,-276 -46,99 -104,186 -160,276zm2545 -92l0 0c-4,-103 -73,-141 -160,-161 10,97 112,102 160,161zm207 -92l0 0c-62,0 -50,-72 -115,-69 -11,60 81,130 115,69zm-505 92l0 0c-8,-76 -69,-100 -115,-138 0,85 67,102 115,138zm275 115l0 0c-15,-85 -84,-115 -137,-161 -51,95 60,128 137,161zm711 22l0 0c8,-99 -31,-151 -92,-183 -12,104 13,171 92,183zm-550 -45l0 0c7,-61 -32,-76 -92,-69 -7,60 32,75 92,69zm711 23l0 0c35,102 82,314 183,275 -98,-95 -114,-271 -137,-321 -3,28 -7,54 -46,46zm-619 91l0 0c28,-66 11,-104 -69,-114 -11,72 28,93 69,114zm252 23l0 0c-15,-84 -79,-120 -161,-137 19,80 92,107 161,137zm-528 23l0 0c50,-43 -82,-180 -137,-115 39,45 70,98 137,115zm321 0l0 0c68,32 93,106 161,138 42,-71 -88,-132 -138,-184 0,23 -18,27 -23,46zm-68 92l0 0c0,-56 -81,-147 -115,-92 33,36 58,80 115,92zm-276 46l0 0c-1,-75 -29,-124 -91,-138 14,62 45,107 91,138zm711 0l0 0c17,-101 -49,-119 -114,-138 -14,97 61,106 114,138zm-458 91l0 0c-8,-76 -69,-99 -115,-137 8,76 69,99 115,137zm642 -23l0 0c0,-55 -81,-146 -115,-91 66,3 40,97 115,91zm-413 69l0 0c-12,-66 -98,-175 -161,-114 61,31 87,96 161,114zm92 0l0 0c43,-43 57,-2 114,0 -8,-76 -68,-99 -114,-137 -21,54 18,120 0,137zm-344 69l0 0c11,-111 -68,-131 -138,-160 0,99 93,105 138,160zm802 92l0 0c1,-77 -31,-122 -68,-161 -61,67 16,136 68,161zm-229 46l0 0c6,-76 57,-173 -46,-184 9,43 -68,183 46,184zm-367 46l0 0c4,-112 -86,-128 -160,-161 25,82 78,135 160,161zm780 137l0 0c5,-135 -12,-248 -92,-298 23,107 42,218 92,298zm-573 -137l0 0c1,-78 -68,-86 -115,-115 0,76 39,114 115,115zm252 137l0 0c77,-26 66,-59 137,-23 -19,-95 -54,-175 -137,-206 -7,116 -26,159 0,229zm-482 -23l0 0c-13,-72 -98,-190 -160,-137 70,29 61,137 160,137zm184 69l0 0c38,-39 18,-135 -69,-115 -11,72 28,94 69,115zm183 -69l0 0c-3,-58 -33,-89 -92,-92 -10,77 49,136 92,92zm-390 161l0 0c10,-102 -38,-145 -114,-161 28,63 51,132 114,161zm528 45l0 0c-19,-64 32,-59 23,-114 -86,24 -37,-86 -115,-69 -17,108 48,136 92,183zm-321 -45l0 0c-12,-65 -66,-88 -115,-115 -5,82 33,120 115,115zm458 137l0 0c27,-70 35,-223 -46,-252 51,69 -102,218 46,252zm-321 -114l0 0c-2,-59 -4,-118 -69,-115 -48,48 31,86 69,115zm-183 114l0 0c39,-46 -36,-116 -92,-137 -10,86 48,104 92,137zm160 0l0 0c6,-75 -27,-110 -91,-114 1,67 52,85 91,114zm184 46l0 0c18,-103 -41,-127 -115,-138 8,77 69,100 115,138zm298 0l0 0c-50,4 -11,-81 -23,-114 -70,-9 -48,74 -69,114 52,-31 86,59 92,0zm-642 46l0 0c-8,-61 -60,-77 -115,-92 4,65 40,98 115,92zm-1582 -46l0 0c6,92 33,165 137,161 -2,-82 -11,-158 -69,-184 -4,27 -36,25 -68,23zm1719 69l0 0c30,-71 -65,-130 -91,-69 44,9 2,105 91,69zm207 0l0 0c-62,-14 -57,-96 -138,-92 -3,79 117,177 138,92zm114 23l0 0c0,-31 0,-61 0,-92 -23,0 -45,0 -68,0 -7,60 8,99 68,92zm-504 114l0 0c1,-69 13,-150 -69,-137 -1,70 21,117 69,137zm367 23l0 0c2,-101 -87,-112 -138,-160 -9,109 51,147 138,160zm229 -23l0 0c34,37 119,80 115,-22 -54,-8 -99,-50 -115,22zm-481 115l0 0c15,-86 28,-123 -69,-137 29,86 -33,123 69,137zm229 -23l0 0c-60,-16 -70,-82 -138,-92 10,54 97,146 138,92zm-1789 46l0 0c48,-45 1,-98 -46,-115 -3,57 -4,112 46,115zm1926 0l0 0c30,-71 -65,-130 -91,-69 44,10 18,89 91,69zm-321 46l0 0c49,35 86,83 138,115 -1,-54 39,-68 23,-138 -81,12 -56,-81 -138,-69 5,44 -26,51 -23,92zm-2247 23l0 0c7,-60 -8,-99 -69,-92 -6,60 9,99 69,92zm413 46l0 0c-14,-48 37,-160 -46,-138 14,47 -37,159 46,138zm1766 0l0 0c18,-80 -22,-101 -69,-115 -5,66 -3,125 69,115zm-1560 46l0 0c33,-70 19,-133 -68,-138 -2,70 20,117 68,138zm2064 23l0 0c23,0 46,0 69,0 -5,-41 23,-115 -46,-92 -7,31 -33,44 -23,92zm-321 91l0 0c7,-99 -77,-107 -115,-160 -68,85 43,144 115,160zm138 0l0 0c-10,-55 42,-50 23,-114 -33,-6 -39,-38 -69,-46 -2,71 10,127 46,160zm-2293 0l0 0c10,-86 -71,-82 -115,-114 23,53 46,106 115,114zm183 46l0 0c11,-72 -29,-94 -69,-115 3,59 5,118 69,115zm-206 69l0 0c13,-98 -62,-107 -115,-138 8,76 69,100 115,138zm2132 23l0 0c55,-71 -70,-117 -114,-161 10,82 83,101 114,161zm230 -23l0 0c-10,78 7,131 91,115 -66,-104 27,-152 -46,-207 -5,41 23,115 -45,92zm-2385 115l0 0c6,-75 -27,-111 -92,-115 -6,75 27,110 92,115zm390 45l0 0c18,-18 24,-140 -46,-137 2,59 13,109 46,137zm-3073 505l0 0c90,-154 190,-299 252,-482 -110,120 -260,321 -252,482zm2660 -436l0 0c-2,-67 -53,-85 -92,-114 -5,73 38,99 92,114zm2132 46l0 0c10,-86 -48,-104 -91,-138 -5,81 54,99 91,138zm230 0l0 0c97,-4 109,-121 23,-138 16,70 -24,84 -23,138zm-436 0l0 0c-13,-56 -20,-118 -92,-115 -6,75 28,111 92,115zm-1743 23l0 0c0,-38 0,-76 0,-115 -23,0 -46,0 -69,0 -10,72 29,94 69,115zm1743 115l0 0c-15,-85 -85,-114 -138,-161 14,86 60,140 138,161zm-1445 23l0 0c5,-104 -93,-106 -137,-161 15,84 84,114 137,161zm1628 -46l0 0c-35,-26 -47,-75 -114,-69 -17,65 75,136 114,69zm-1651 160l0 0c-2,-97 -61,-137 -137,-160 22,77 64,134 137,160zm-298 -23l0 0c-2,-58 -42,-80 -68,-114 -54,53 -6,122 68,114zm1537 23l0 0c14,-106 -88,-96 -138,-137 18,74 64,120 138,137zm229 23l0 0c-2,-97 -62,-137 -138,-160 -15,115 56,143 138,160zm138 -46l0 0c57,75 174,-70 68,-91 20,73 -59,47 -68,91zm-1606 138l0 0c-21,-78 -86,-112 -137,-161 11,89 47,152 137,161zm367 -69l0 0c-2,-58 -33,-89 -91,-92 2,59 33,89 91,92zm574 23l0 0c-1,-76 -39,-114 -115,-115 21,56 59,94 115,115zm68 -23l0 0c81,0 143,172 207,46 -79,-28 -101,-114 -184,-138 2,40 -5,72 -23,92zm436 46l0 0c-63,-21 -98,-70 -160,-92 -29,98 105,153 160,92zm-1238 92l0 0c-12,-80 -78,-106 -138,-138 1,91 47,137 138,138zm734 23l0 0c-30,-70 -84,-116 -161,-138 22,78 81,118 161,138zm-4082 114l0 0c113,-9 101,-143 137,-229 -99,23 -105,139 -137,229zm3508 -68l0 0c7,-99 -66,-117 -114,-161 9,82 37,146 114,161zm69 -24l0 0c60,70 101,159 206,184 -102,-94 -146,-186 -183,-298 -63,48 81,86 -23,114zm711 -22l0 0c-62,-15 -57,-96 -138,-92 -14,76 119,124 138,92zm-940 114l0 0c2,-72 -119,-139 -138,-114 52,32 76,92 138,114zm711 23l0 0c22,-121 -122,-77 -138,-160 4,95 73,126 138,160zm-4197 -23l0 0c72,11 65,-58 92,-92 -23,0 -46,0 -69,0 5,44 -26,51 -23,92zm3692 69l0 0c-10,-97 -112,-102 -160,-161 -4,112 86,128 160,161z"/>
   <path class="fil0" d="M7656 4033c99,288 50,695 -230,710 -760,43 -472,-1074 230,-710z"/>
   <path class="fil0" d="M1441 7518c-264,61 -515,-57 -642,-206 -34,-449 401,-685 734,-436 92,192 17,509 -92,642zm-252 -413l0 0c66,-73 126,-163 229,-137 -65,-19 -121,-47 -183,-69 21,105 -38,130 -46,206z"/>
  </g>
 </g>
</svg>
