<?xml version="1.0" encoding="UTF-8"?>
<!DOCTYPE svg PUBLIC "-//W3C//DTD SVG 1.1//EN" "http://www.w3.org/Graphics/SVG/1.1/DTD/svg11.dtd">
<!-- Creator: CorelDRAW X8 -->
<svg xmlns="http://www.w3.org/2000/svg" xml:space="preserve" width="8.5in" height="11in" version="1.1" style="shape-rendering:geometricPrecision; text-rendering:geometricPrecision; image-rendering:optimizeQuality; fill-rule:evenodd; clip-rule:evenodd"
viewBox="0 0 8500 11000"
 xmlns:xlink="http://www.w3.org/1999/xlink">
 <defs>
  <style type="text/css">
   <![CDATA[
    .fil0 {fill:black}
   ]]>
  </style>
 </defs>
 <g id="Layer_x0020_1">
  <metadata id="CorelCorpID_0Corel-Layer"/>
  <g id="_105073233472">
   <path class="fil0" d="M7295 3052l0 -879c-1421,519 -2842,1035 -4263,1553l0 879c1421,-519 2842,-1037 4263,-1553zm-126 -109l0 0 -4010 1462 0 -581 4010 -1460 0 579z"/>
   <path class="fil0" d="M2259 8245c-25,126 -57,221 -86,319 -100,-16 -199,-32 -319,-36 -122,-3 -261,6 -403,47 -140,39 -285,107 -398,202 -111,95 -193,217 -233,341 -43,125 -46,252 -18,365 29,113 88,210 190,283 102,72 246,120 389,129 142,9 283,-21 427,-86 145,-66 295,-168 433,-312 140,-148 271,-338 364,-523 93,-186 147,-367 188,-562 95,-471 102,-892 102,-1360 0,-211 0,-419 0,-630l0 -2854c1513,-553 3025,-1102 4536,-1655l0 3423c0,403 11,783 -70,1184 -27,127 -57,221 -86,319 -102,-16 -201,-32 -321,-36 -120,-3 -261,7 -403,47 -140,39 -285,107 -396,202 -113,95 -195,217 -235,341 -43,125 -46,252 -16,365 27,113 88,210 190,283 102,72 244,120 387,129 142,9 285,-21 429,-86 145,-66 292,-168 433,-315 138,-145 271,-335 364,-520 93,-186 145,-367 186,-562 97,-471 101,-892 101,-1360l-11 -4294c-1889,688 -3763,1371 -5652,2060 0,1115 0,2232 0,3347 0,207 0,415 0,621 0,403 12,783 -72,1184z"/>
   <path class="fil0" d="M2046 2877c11,1193 20,2384 29,3575 3,197 5,394 7,591 3,396 23,767 -81,1154 -129,-2 -256,-4 -410,14 -154,18 -332,56 -497,120 -166,65 -313,156 -439,267 -127,113 -231,247 -301,387 -70,140 -109,287 -109,432 0,147 34,295 97,428 61,134 150,254 270,351 120,97 269,174 434,210 165,34 344,30 534,-9 188,-38 385,-111 575,-235 188,-122 371,-301 520,-523 149,-222 267,-489 337,-733 68,-245 91,-467 107,-704 15,-236 24,-487 31,-695 16,-365 18,-720 16,-1082l-11 -1497 3998 -1494 13 1843c5,394 23,765 -79,1152 -129,-2 -256,-4 -409,14 -154,18 -335,56 -498,122 -165,63 -312,154 -439,265 -127,113 -231,246 -301,387 -72,140 -109,287 -109,435 -2,147 34,294 95,427 64,132 152,252 272,349 120,97 269,174 434,211 165,36 344,29 532,-9 190,-39 387,-109 577,-234 188,-124 371,-303 520,-525 150,-222 267,-489 337,-733 68,-245 91,-467 107,-702 13,-238 25,-489 31,-697 12,-285 21,-519 19,-802l-37 -4366c-2056,769 -4113,1539 -6172,2306zm149 3550l0 0 0 -3466c1980,-722 3949,-1440 5928,-2162l10 4184c0,393 -16,785 -37,1179 -13,249 -27,444 -59,641 -33,197 -83,391 -169,599 -86,209 -208,428 -351,598 -143,172 -308,292 -468,378 -163,88 -324,143 -500,163 -175,18 -365,3 -521,-54 -156,-54 -280,-152 -369,-254 -88,-104 -142,-212 -176,-323 -34,-111 -48,-222 -34,-340 16,-118 59,-242 131,-362 73,-118 172,-231 297,-326 122,-95 269,-172 411,-224 141,-50 274,-75 396,-89 123,-11 231,-11 313,-6 83,4 138,11 192,20 100,-430 106,-849 106,-1288l0 -2042c-1421,516 -2842,1035 -4263,1553 0,539 0,1078 0,1616 0,492 -11,974 -36,1465 -13,249 -27,444 -61,641 -31,197 -81,391 -167,599 -86,209 -208,428 -351,598 -142,172 -307,292 -471,378 -160,88 -321,143 -497,163 -174,18 -365,2 -521,-54 -156,-55 -280,-152 -369,-254 -90,-104 -142,-212 -176,-323 -34,-111 -50,-222 -34,-340 16,-118 59,-242 131,-362 73,-118 172,-231 294,-326 125,-95 272,-172 412,-224 141,-50 276,-75 396,-89 122,-11 233,-11 315,-6 83,4 138,11 192,20 97,-430 104,-849 104,-1288 0,-199 2,-394 2,-593z"/>
  </g>
 </g>
</svg>
