<?xml version="1.0" encoding="UTF-8"?>
<!DOCTYPE svg PUBLIC "-//W3C//DTD SVG 1.1//EN" "http://www.w3.org/Graphics/SVG/1.1/DTD/svg11.dtd">
<!-- Creator: CorelDRAW X8 -->
<svg xmlns="http://www.w3.org/2000/svg" xml:space="preserve" width="8.5in" height="11in" version="1.1" style="shape-rendering:geometricPrecision; text-rendering:geometricPrecision; image-rendering:optimizeQuality; fill-rule:evenodd; clip-rule:evenodd"
viewBox="0 0 8500 11000"
 xmlns:xlink="http://www.w3.org/1999/xlink">
 <defs>
  <style type="text/css">
   <![CDATA[
    .fil0 {fill:#090968}
   ]]>
  </style>
 </defs>
 <g id="Layer_x0020_1">
  <metadata id="CorelCorpID_0Corel-Layer"/>
  <g id="_105193499696">
   <path class="fil0" d="M4859 5299c13,-45 41,135 -14,113 -3,-45 25,-60 14,-113z"/>
   <path class="fil0" d="M4845 5640c12,7 23,14 43,14 0,28 0,57 0,85 -12,-8 -23,-15 -43,-14 13,-42 13,-44 0,-85z"/>
   <path class="fil0" d="M3723 5895c5,38 -19,47 -56,43 -5,-38 19,-47 56,-43z"/>
   <path class="fil0" d="M4590 6492c64,17 -6,80 28,127 -61,-26 -29,-80 -28,-127z"/>
   <path class="fil0" d="M4661 7258c20,4 33,117 -15,100 25,-42 -4,-72 15,-100z"/>
   <path class="fil0" d="M4646 7471c57,29 23,199 -14,228 24,-73 19,-160 14,-228z"/>
   <path class="fil0" d="M2928 6222c27,-27 26,8 71,0 -17,-97 63,-98 71,-171 32,-7 20,28 43,29 -13,-74 122,-196 213,-256 -2,20 -3,40 14,43 71,-29 -20,-39 -14,-85 96,-88 205,-190 312,-284 53,-47 84,-125 128,-171 103,-107 211,-189 298,-298 39,-49 47,-118 85,-170 19,-26 68,-36 86,-57 45,-55 68,-145 113,-199 25,-29 95,-76 114,-142 23,-82 -20,-173 -14,-256 2,-32 28,-21 28,-14 -23,-436 -61,-870 -99,-1250 2,-16 26,-12 42,-14 -10,-13 -26,-21 -42,-28 67,-73 -63,-214 28,-298 -1,89 17,110 -14,170 67,-179 43,-624 71,-824 27,-191 124,-458 199,-681 82,-246 264,-427 383,-653 23,-4 24,13 43,14 135,-134 272,-267 411,-398 72,38 73,145 142,185 39,-53 -54,-97 -56,-156 58,-2 103,70 127,113 78,136 122,285 171,483 8,32 22,-17 42,14 -2,17 -25,12 -42,14 10,273 94,487 0,739 44,260 8,626 -57,909 -28,121 -99,240 -156,383 -107,269 -216,575 -313,781 -21,47 -109,190 -127,171 14,66 -50,54 -29,127 -125,83 -196,318 -341,455 -14,133 -36,263 0,355 -32,72 -9,93 0,184 10,39 -29,28 -42,43 1,50 47,-30 42,14 -89,226 -28,582 -42,781 34,14 47,-64 28,-57 13,-38 45,30 14,43 47,38 144,27 228,28 99,76 224,126 340,185 -6,30 10,38 15,57 318,79 485,429 525,696 -42,-133 -114,-236 -170,-355 -38,153 132,289 156,468 62,-10 -17,-79 28,-113 28,24 23,135 -14,142 51,539 -218,757 -383,1079 -43,-9 13,-30 0,-57 -60,21 -149,135 -213,199 60,36 77,-93 142,-99 -114,199 -371,253 -540,397 16,59 -14,204 0,284 18,107 17,480 14,724 -2,177 -29,372 -99,526 -3,95 -6,108 0,199 -210,211 -421,421 -696,568 -257,-84 -465,88 -767,14 -297,-73 -504,-236 -639,-511 -16,167 156,332 270,411 -248,-108 -447,-470 -384,-866 16,-96 43,-229 100,-255 -58,140 -129,536 28,695 54,-40 -9,-143 -56,-170 -3,-220 19,-388 71,-554 -15,-39 -25,65 -57,14 49,-135 190,-178 227,-326 214,-106 679,-287 909,-71 41,-12 -19,-36 0,-71 104,24 79,176 213,170 40,49 44,136 57,213 64,-15 -27,-95 42,-99 4,89 -8,162 -42,213 55,301 -236,409 -384,511 -220,-49 -382,6 -625,-57 3,17 -3,25 -14,29 35,54 75,287 242,298 27,63 81,98 113,156 141,16 312,60 355,-71 37,3 -19,24 0,57 149,-11 190,-49 313,-71 -35,70 -149,59 -213,99 259,23 383,-213 553,-326 42,-196 171,-362 199,-526 -32,-240 114,-485 14,-724 59,-117 41,-310 29,-426 -257,77 -704,274 -966,43 -57,0 -113,0 -170,0 -108,-63 -256,-161 -369,-171 -46,-23 -12,-72 -86,-42 -75,-114 -217,-162 -298,-270 4,-16 28,-10 29,-29 -13,-38 -27,38 -71,15 -46,-83 -93,-164 -157,-228 87,-29 107,130 171,171 19,-87 -119,-137 -128,-242 -27,71 -31,10 -71,-14 -32,49 14,122 42,156 -126,-75 9,-242 -70,-369 -65,-26 -20,57 -72,43 7,-58 6,-97 -28,-114 -5,-24 11,-27 28,-28 -77,-189 19,-450 57,-668 96,-60 93,-220 213,-255 6,-25 -11,-27 -28,-29 36,-54 112,-67 156,-113 -12,-21 34,-49 0,-128zm1647 3862l0 0c16,-26 36,-49 43,-85 -35,-2 -44,22 -71,29 3,25 -14,71 28,56zm781 -9656l0 0c46,-12 30,37 57,43 -11,-53 58,-98 0,-114 -2,40 -46,39 -57,71zm412 213l0 0c1,-48 0,-95 -57,-85 4,44 40,55 57,85zm-184 0l0 0c-30,-4 -4,-63 -43,-57 -15,41 15,106 43,57zm-668 327l0 0c97,-46 185,-175 185,-270 -64,87 -131,172 -185,270zm284 -142l0 0c41,-3 94,-75 43,-86 -6,37 -43,43 -43,86zm-128 227l0 0c15,-71 124,-122 100,-185 -31,55 -124,123 -100,185zm-14 255l0 0c-2,-69 73,-135 43,-184 -11,55 -73,135 -43,184zm199 100l0 0c38,-5 48,-37 57,-71 -40,2 -61,24 -57,71zm71 99l0 0c-30,-31 -46,2 -71,14 -176,352 -373,853 -369,1349 0,60 53,117 0,171 1,-25 -11,-37 -29,-43 -52,277 5,472 0,696 376,-441 568,-1273 625,-2144 -39,-51 -59,-121 -128,-142 -31,23 -35,38 -56,42 26,3 8,48 28,57zm454 398l0 0c32,-92 66,-249 15,-341 20,121 -70,253 -15,341zm-894 -199l0 0c-10,-44 66,-74 14,-114 4,39 -59,82 -14,114zm696 298l0 0c24,-97 69,-249 0,-326 12,128 -24,267 0,326zm-1009 171l0 0c2,-117 80,-233 57,-327 -18,100 -85,227 -57,327zm-14 298l0 0c47,-38 78,-168 43,-242 -23,91 -29,176 -43,242zm270 142l0 0c2,-57 53,-130 14,-227 1,71 -77,184 -14,227zm824 -14l0 0c6,-31 85,-111 14,-128 -7,32 -44,106 -14,128zm-1136 1107l0 0c-34,-299 15,-605 -57,-951 31,276 -36,730 57,951zm71 15l0 0c31,-62 8,-175 -15,-228 10,72 -18,180 15,228zm440 184l0 0c52,-61 92,-135 113,-227 -77,36 -89,138 -113,227zm-384 213l0 0c2,-73 -2,-140 -28,-184 11,60 -26,168 28,184zm228 -42l0 0c-3,-51 74,-95 28,-142 -4,48 -90,116 -28,142zm-15 56l0 0c12,48 -11,125 -56,185 111,-36 160,-209 170,-298 -35,40 -50,101 -114,113zm-184 228l0 0c23,-23 -13,-60 0,-114 -53,5 -48,104 0,114zm-341 383l0 0c46,-44 85,-95 142,-128 -8,-21 17,-73 -14,-71 -23,77 -146,128 -128,199zm312 540l0 0c-17,-101 36,-273 -28,-327 6,144 -8,224 28,327zm-880 383l0 0c-50,74 -212,184 -185,241 78,-36 124,-179 199,-170 -298,327 -701,715 -681,1207 3,-13 52,-48 56,-14 -172,88 -30,528 114,639 -11,3 -28,0 -28,14 64,-17 175,99 241,170 64,71 123,164 156,228 59,-2 178,118 256,99 10,39 -67,-10 -57,28 183,90 564,133 781,57 -2,-148 2,-291 28,-412 39,112 -40,270 15,398 9,-29 66,-9 71,-43 -18,-1 -34,-4 -29,-28 51,2 -10,-45 71,-28 -6,-108 24,-309 -42,-313 26,-269 -5,-496 -57,-767 -29,97 24,172 -14,270 -3,-101 -12,-196 -29,-284 22,-1 49,2 43,-28 10,-39 -67,10 -57,-29 126,-15 20,13 0,-28 -34,-68 -5,-163 -14,-199 41,7 -13,108 28,114 45,-76 -16,-182 0,-327 -91,-20 -130,87 -199,43 26,-65 162,-18 142,-128 -241,53 -471,189 -539,369 -73,-21 -71,34 -114,43 -4,66 55,-19 57,42 -75,2 -42,110 -71,157 -66,-88 -6,-148 -85,-228 -29,-151 90,-156 113,-255 -43,-31 -33,-33 -42,-85 170,-214 377,-390 653,-497 -25,-335 -2,-654 -57,-952 -131,151 -220,289 -355,426 -27,-6 -11,-55 -57,-42 -3,11 0,28 -14,28 -23,56 61,5 57,43 -80,90 -126,215 -241,269 22,-87 156,-137 127,-227 -89,58 -92,201 -241,199zm-312 2158l0 0c17,64 68,93 127,114 -18,-57 -72,-140 -127,-114zm610 -2513l0 0c130,-18 93,-135 213,-142 -11,-68 47,-67 43,-128 -118,57 -192,159 -256,270zm668 85l0 0c3,-41 -4,-72 -29,-85 9,29 -23,99 29,85zm0 142l0 0c-26,1 27,-71 -29,-71 -20,4 1,119 29,71zm-923 43l0 0c32,-5 15,41 42,42 11,-19 32,-99 14,-99 -1,37 -55,20 -56,57zm766 312l0 0c58,-27 45,-320 -14,-369 -4,162 15,263 14,369zm142 -28l0 0c48,-91 43,-218 -14,-298 -22,103 -21,218 14,298zm171 57l0 0c15,71 129,58 170,28 4,58 144,54 171,43 -113,-57 -214,-44 -341,-71zm-554 198l0 0c61,-24 151,-19 185,-71 -69,-39 -162,18 -185,71zm1264 142l0 0c-2,-36 -21,-55 -57,-56 2,36 21,55 57,56zm-1165 0l0 0c3,61 104,9 128,0 -51,-6 -82,-23 -128,0zm1293 100l0 0c-8,-40 -70,-100 -100,-71 44,13 45,69 100,71zm-1619 57l0 0c82,1 86,-75 113,-128 -74,6 -87,73 -113,128zm1022 -71l0 0c-60,-40 -151,-48 -255,-43 37,50 204,98 255,43zm497 880l0 0c0,-14 -11,-17 -14,-28 -1,-82 29,-133 43,-199 -108,-92 -208,-233 -185,-412 -158,-98 -349,-163 -582,-185 4,121 -8,216 -14,270 0,-14 25,-18 28,0 33,508 42,923 85,1364 192,-122 387,-238 511,-427 -33,-12 -61,50 -71,15 135,-124 197,-314 228,-483 -28,10 3,79 -29,85zm0 -341l0 0c-23,-95 -37,-199 -128,-227 -8,127 80,158 128,227zm-3010 156l0 0c20,-108 144,-260 99,-340 -9,105 -126,211 -99,340zm2016 -184l0 0c55,11 55,-68 0,-57 0,19 0,38 0,57zm-1746 355l0 0c10,3 28,0 28,14 66,-33 58,-216 57,-270 -30,84 -52,175 -85,256zm-299 28l0 0c11,-61 55,-135 0,-184 -4,48 -36,143 0,184zm2230 171l0 0c24,111 13,-49 14,-86 2,-63 10,-163 -14,-198 -14,110 -20,195 0,284zm-1662 142l0 0c-45,-126 -132,-208 -128,-384 -16,2 -40,-2 -42,14 55,148 33,296 170,370zm2528 42l0 0c25,-58 110,-182 43,-241 18,94 -57,168 -43,241zm-2812 -85l0 0c72,-1 28,-55 0,-71 0,24 0,47 0,71zm2500 412l0 0c138,-33 283,-134 298,-241 -102,77 -208,152 -298,241zm-1946 -128l0 0c-5,-61 -47,-85 -99,-99 24,42 57,75 99,99zm-497 71l0 0c-25,-55 -67,-93 -113,-128 -24,54 72,94 113,128zm-14 114l0 0c10,-36 38,26 71,14 -3,-49 -42,-62 -85,-71 2,21 -5,52 14,57zm639 156l0 0c-67,-71 -180,-171 -270,-170 92,52 183,156 270,170zm1690 -99l0 0c44,-13 78,-36 99,-71 -41,15 -96,17 -99,71zm-1889 70l0 0c-24,-61 -135,-110 -170,-113 59,35 104,85 170,113zm1860 57l0 0c38,-66 131,-77 157,-156 -59,37 -169,97 -157,156zm-2002 29l0 0c-38,-36 7,-16 43,-15 -32,-63 -105,-84 -171,-113 55,51 63,137 128,128zm682 369l0 0c21,7 36,21 57,28 -23,-61 120,-30 85,-56 -81,2 -106,-24 -142,28zm994 256l0 0c56,-54 77,-291 -14,-256 32,57 5,175 14,256zm-1818 383l0 0c37,-15 95,-9 114,-43 -42,10 -100,4 -114,43zm1846 199l0 0c-13,-77 30,-210 -28,-242 17,102 -11,182 28,242zm-1107 -142l0 0c-30,-13 -42,-43 -86,-43 -7,42 66,75 86,43zm-824 241l0 0c53,43 45,-70 114,-57 -1,-43 25,-75 0,-113 -38,88 -77,86 -114,170zm980 57l0 0c4,-19 64,-86 0,-85 15,36 -43,67 0,85zm85 43l0 0c-5,-40 41,-100 0,-128 -16,18 -29,112 0,128zm-582 28l0 0c69,-16 122,-49 128,-128 -29,0 -57,0 -86,0 -43,40 -5,77 -42,128zm326 28l0 0c45,-17 96,-102 71,-142 -19,52 -62,80 -71,142zm114 71l0 0c55,11 90,-79 43,-85 20,63 -48,37 -43,85zm128 86l0 0c36,-8 85,-75 57,-100 -17,36 -57,48 -57,100zm-1207 213l0 0c15,-59 25,-207 -29,-270 -8,48 -43,225 29,270zm1874 -142l0 0c-11,-53 52,-73 14,-128 3,42 -56,94 -14,128zm-1335 -15l0 0c-71,1 -150,-66 -213,-28 55,37 148,81 213,28zm-227 313l0 0c-38,-57 0,-189 -71,-213 10,75 14,232 71,213zm1576 -14l0 0c10,-34 65,-96 29,-128 11,54 -68,92 -29,128zm-14 156l0 0c58,-68 183,-161 142,-242 -56,63 -158,154 -142,242zm-142 14l0 0c40,-4 63,-97 43,-114 -16,35 -71,79 -43,114zm-1462 0l0 0c9,0 18,0 28,0 24,-28 -1,-18 0,-57 -10,0 -19,0 -28,0 1,39 -24,29 0,57zm156 71l0 0c-46,-11 -62,-52 -100,-71 -12,61 77,93 100,71zm57 114l0 0c-51,16 -81,-60 -114,-15 3,31 95,46 114,15zm-43 113l0 0c-58,-18 -68,-83 -142,-85 22,44 85,123 142,85zm937 -14l0 0c58,1 112,-2 114,-57 -44,13 -98,16 -114,57zm-738 71l0 0c-18,-44 -115,-83 -156,-57 49,21 97,45 156,57z"/>
   <path class="fil0" d="M4845 5498c79,40 -11,80 43,127 -57,1 -40,-74 -43,-127z"/>
  </g>
 </g>
</svg>
