<?xml version="1.0" encoding="UTF-8"?>
<!DOCTYPE svg PUBLIC "-//W3C//DTD SVG 1.1//EN" "http://www.w3.org/Graphics/SVG/1.1/DTD/svg11.dtd">
<!-- Creator: CorelDRAW X8 -->
<svg xmlns="http://www.w3.org/2000/svg" xml:space="preserve" width="8.5in" height="11in" version="1.1" style="shape-rendering:geometricPrecision; text-rendering:geometricPrecision; image-rendering:optimizeQuality; fill-rule:evenodd; clip-rule:evenodd"
viewBox="0 0 8500 11000"
 xmlns:xlink="http://www.w3.org/1999/xlink">
 <defs>
  <style type="text/css">
   <![CDATA[
    .fil0 {fill:#090968}
   ]]>
  </style>
 </defs>
 <g id="Layer_x0020_1">
  <metadata id="CorelCorpID_0Corel-Layer"/>
  <path class="fil0" d="M512 6315c253,-35 492,-87 650,66 29,-82 -56,-49 -53,-106 49,-682 160,-1451 120,-2190 25,-19 58,-30 53,-80 1284,35 2629,-52 3929,0 185,8 384,40 584,40 445,0 884,-35 1314,-13 331,16 692,44 1075,66 48,817 86,1828 -13,2602 -119,-40 -115,101 -199,133 -95,-11 -150,18 -186,66 -227,42 -542,70 -730,-26 -6,-132 -83,-230 -40,-359 25,-72 179,-246 279,-279 65,-21 126,15 225,14 105,-2 195,-39 266,-27 71,13 129,65 186,66 78,-455 15,-982 26,-1420 -735,5 -1295,-36 -2057,-40 11,380 5,971 -40,1368 0,48 69,28 53,92 -6,106 -37,195 -66,279 -25,73 -36,174 -80,239 -110,161 -651,257 -876,93 -61,-44 -69,-139 -159,-146 26,-70 -35,-109 -27,-173 29,-229 663,-441 903,-265 20,-435 39,-990 13,-1473 -655,-66 -1449,-26 -2031,-93 -41,32 -30,138 0,199 20,353 -33,617 -53,1048 -14,312 23,613 -146,784 -86,44 -146,144 -252,159 -49,7 -103,-24 -173,-27 -83,-2 -162,28 -225,14 -159,-37 -254,-194 -372,-213 19,-163 88,-385 199,-464 165,-119 439,-48 664,-14 5,-436 82,-973 106,-1473 -570,3 -1234,10 -1845,-40 -39,406 -131,823 -146,1235 -5,149 15,289 -13,438 -18,93 -80,193 -53,345 -25,-2 -10,-44 -40,-40 -1,101 -128,76 -106,199 -27,-40 -103,-17 -133,13 12,8 24,16 26,0 -107,62 -408,148 -584,67 -82,-38 -203,-188 -212,-226 -45,-198 173,-294 239,-438zm2296 -2203l0 0c-15,-12 -35,-18 -66,-14 -7,55 47,35 66,14zm1912 13l0 0c110,-8 234,40 332,0 -89,-6 -293,-32 -332,0zm1407 13l0 0c109,29 177,-46 0,0zm-1885 27l0 0c59,-20 78,0 146,0 1,-48 -145,-37 -146,0zm-2708 53l0 0c-18,35 -13,184 -13,278 717,38 1630,71 2389,67 -47,12 -23,-44 0,-40 96,48 210,66 319,13 710,27 1482,109 2176,67 -169,-38 -343,1 -504,-53 707,47 1424,9 2058,26 -16,-78 -15,-171 -14,-265 -99,-36 -319,-50 -398,13 -556,-71 -1211,8 -1739,-93 -233,107 -495,-25 -770,27 21,1 46,-2 40,26 -198,-27 -523,-52 -810,-26 -3,56 103,3 80,79 -843,-149 -1952,-74 -2814,-119zm2615 53l0 0c46,-6 74,5 106,13 4,-51 -92,-44 -106,-13zm3863 225l0 0c1,-15 45,-161 -14,-185 9,57 -17,150 14,185zm-6571 -13l0 0c46,14 32,-99 13,-106 -31,38 9,71 -13,106zm5230 199l0 0c-58,9 -150,-17 -186,14 58,-9 150,17 186,-14zm-1367 27l0 0c61,-16 117,41 159,0 -20,-21 -183,-21 -159,0zm-3863 26l0 0c-26,140 44,186 0,0zm2018 133l0 0c3,-24 43,-120 -14,-119 23,45 -20,80 14,119zm2296 305l0 0c-5,-35 12,-161 -13,-132 5,35 -12,161 13,132zm-4513 120l0 0c-14,254 55,-62 13,-120 -6,55 -10,66 -13,120zm4487 345l0 0c4,-127 62,-332 0,-438 6,171 -17,319 0,438zm-4514 305l0 0c18,-57 46,-175 14,-239 -6,87 -15,126 -14,239zm2323 399l0 0c-14,-48 30,-154 -26,-160 9,53 -23,147 26,160zm-942 -14l0 0c48,-27 109,-41 146,-79 -61,14 -127,23 -146,79zm239 106l0 0c57,-27 96,-72 133,-119 -60,24 -97,72 -133,119zm4725 133l0 0c34,-65 161,-172 133,-212 -28,78 -147,135 -133,212zm-2044 -172l0 0c-13,44 41,20 66,26 3,-38 -53,-40 -66,-26zm1938 146l0 0c56,-41 93,-102 133,-160 -63,35 -99,96 -133,160zm-2495 132l0 0c68,-99 153,-183 225,-278 -85,74 -211,177 -225,278zm2588 107l0 0c49,-125 247,-289 226,-385 -57,130 -244,267 -226,385zm-2376 -266l0 0c6,-28 102,-82 40,-93 11,47 -82,58 -40,93zm-2323 0l0 0c43,-6 116,-51 93,-80 -23,35 -86,29 -93,80zm4991 133l0 0c25,-77 177,-153 133,-213 -37,70 -148,135 -133,213zm-7128 -80l0 0c51,-24 82,-69 106,-119 -56,19 -91,59 -106,119zm4447 67l0 0c24,-66 184,-132 132,-186 -22,75 -145,119 -132,186zm-2151 -40l0 0c27,36 142,-60 173,-106 -87,6 -99,86 -173,106zm-2190 -27l0 0c44,-4 58,-40 80,-66 -44,5 -58,40 -80,66zm4606 120l0 0c15,7 147,-90 186,-146 -80,30 -120,101 -186,146zm1912 -40l0 0c3,-28 91,-83 26,-93 12,44 -65,66 -26,93zm-6531 93l0 0c37,-51 95,-82 119,-146 -55,24 -126,103 -119,146zm1872 -80l0 0c32,-7 68,-11 66,-53 -39,1 -49,30 -66,53zm-2323 106l0 0c-13,-55 46,-123 -14,-146 2,71 -35,115 14,146zm504 40l0 0c57,-23 100,-59 133,-106 -57,23 -100,60 -133,106z"/>
 </g>
</svg>
