<?xml version="1.0" encoding="UTF-8"?>
<!DOCTYPE svg PUBLIC "-//W3C//DTD SVG 1.1//EN" "http://www.w3.org/Graphics/SVG/1.1/DTD/svg11.dtd">
<!-- Creator: CorelDRAW X8 -->
<svg xmlns="http://www.w3.org/2000/svg" xml:space="preserve" width="8.5in" height="11in" version="1.1" style="shape-rendering:geometricPrecision; text-rendering:geometricPrecision; image-rendering:optimizeQuality; fill-rule:evenodd; clip-rule:evenodd"
viewBox="0 0 8500 11000"
 xmlns:xlink="http://www.w3.org/1999/xlink">
 <defs>
  <style type="text/css">
   <![CDATA[
    .fil0 {fill:black}
   ]]>
  </style>
 </defs>
 <g id="Layer_x0020_1">
  <metadata id="CorelCorpID_0Corel-Layer"/>
  <path class="fil0" d="M2506 10596c900,0 1628,-461 1628,-1027l0 -6083c55,50 113,91 168,131 235,163 466,240 769,326 307,82 692,177 986,308 299,131 511,294 652,475 135,181 198,376 208,561 13,186 -23,367 -59,548 135,-118 271,-236 384,-362 118,-132 208,-276 272,-439 67,-168 108,-353 108,-575 5,-217 -32,-466 -144,-711 -114,-249 -299,-489 -566,-715 -267,-226 -611,-439 -1022,-670 -412,-235 -892,-493 -1290,-823 -393,-331 -705,-729 -1017,-1136 0,851 0,1697 0,2543l0 5852c-285,-158 -666,-258 -1077,-258 -900,0 -1629,462 -1629,1028 0,566 729,1027 1629,1027z"/>
 </g>
</svg>
