<?xml version="1.0" encoding="UTF-8"?>
<!DOCTYPE svg PUBLIC "-//W3C//DTD SVG 1.1//EN" "http://www.w3.org/Graphics/SVG/1.1/DTD/svg11.dtd">
<!-- Creator: CorelDRAW X8 -->
<svg xmlns="http://www.w3.org/2000/svg" xml:space="preserve" width="8.5in" height="11in" version="1.1" style="shape-rendering:geometricPrecision; text-rendering:geometricPrecision; image-rendering:optimizeQuality; fill-rule:evenodd; clip-rule:evenodd"
viewBox="0 0 8500 11000"
 xmlns:xlink="http://www.w3.org/1999/xlink">
 <defs>
  <style type="text/css">
   <![CDATA[
    .fil0 {fill:black}
   ]]>
  </style>
 </defs>
 <g id="Layer_x0020_1">
  <metadata id="CorelCorpID_0Corel-Layer"/>
  <path class="fil0" d="M6655 8604c664,0 1207,-339 1207,-762l0 -5446 -5218 0 0 4875c-215,-117 -493,-187 -799,-187 -667,0 -1207,339 -1207,758 0,423 540,762 1207,762 664,0 1204,-339 1204,-762l0 -4204 4404 0 0 3633c-215,-117 -493,-187 -798,-187 -668,0 -1208,339 -1208,758 0,423 540,762 1208,762z"/>
 </g>
</svg>
