<?xml version="1.0" encoding="UTF-8"?>
<!DOCTYPE svg PUBLIC "-//W3C//DTD SVG 1.1//EN" "http://www.w3.org/Graphics/SVG/1.1/DTD/svg11.dtd">
<!-- Creator: CorelDRAW X8 -->
<svg xmlns="http://www.w3.org/2000/svg" xml:space="preserve" width="8.5in" height="11in" version="1.1" style="shape-rendering:geometricPrecision; text-rendering:geometricPrecision; image-rendering:optimizeQuality; fill-rule:evenodd; clip-rule:evenodd"
viewBox="0 0 8500 11000"
 xmlns:xlink="http://www.w3.org/1999/xlink">
 <defs>
  <style type="text/css">
   <![CDATA[
    .fil0 {fill:black}
   ]]>
  </style>
 </defs>
 <g id="Layer_x0020_1">
  <metadata id="CorelCorpID_0Corel-Layer"/>
  <g id="_105081694304">
   <path class="fil0" d="M7157 5633c-44,89 -87,179 -121,253 -35,73 -61,131 -90,178 -27,46 -56,83 -84,104 -28,22 -54,28 -77,26 -22,-2 -39,-13 -49,-25 -11,-13 -14,-29 -14,-42 1,-13 4,-24 9,-35 20,3 41,7 63,4 22,-4 47,-14 64,-32 16,-19 26,-46 27,-69 1,-23 -6,-43 -17,-59 -11,-17 -26,-31 -45,-39 -19,-9 -41,-13 -64,-11 -25,1 -51,8 -76,22 -27,15 -53,39 -73,70 -20,31 -34,69 -40,110 -5,42 0,88 15,127 15,39 41,71 73,93 31,23 70,35 115,38 44,3 95,-4 143,-29 47,-26 93,-70 138,-130 46,-60 91,-136 164,-265 66,-117 132,-236 194,-355l220 0c15,0 28,-12 28,-28l0 -78c0,-16 -13,-28 -28,-28l-151 0c11,-22 22,-44 33,-65 43,-90 86,-180 120,-253 35,-74 63,-132 90,-179 28,-46 56,-83 85,-104 27,-22 54,-28 76,-26 22,2 39,13 50,26 10,12 14,28 14,41 -1,13 -5,24 -10,36 -20,-4 -40,-8 -62,-5 -23,4 -48,14 -65,32 -16,19 -25,46 -26,69 -1,23 5,43 16,60 11,16 26,30 45,38 19,9 41,12 65,11 24,-1 50,-7 76,-22 26,-15 53,-39 73,-70 19,-31 34,-69 39,-110 5,-42 0,-88 -15,-127 -15,-39 -41,-71 -73,-93 -31,-23 -70,-34 -114,-38 -45,-3 -95,4 -144,29 -47,26 -92,70 -138,130 -45,61 -91,136 -164,265 -66,118 -132,236 -194,355l-220 0c-15,0 -27,12 -27,28l0 78c0,16 12,28 27,28l152 0c-12,22 -23,43 -33,66z"/>
   <path class="fil0" d="M4852 4113l0 2774 121 0 0 -489 258 0 0 489 121 0 0 -489 258 0 0 489 121 0 0 -489 259 0 0 489 120 0 0 -2774c-419,0 -839,0 -1258,0zm379 268l0 0 0 282 -258 0 0 -282 258 0zm0 387l0 0 0 303 -258 0 0 -303 258 0zm0 408l0 0 0 302 -258 0 0 -302 258 0zm0 406l0 0 0 303 -258 0 0 -303 258 0zm0 408l0 0 0 303 -258 0 0 -303 258 0zm121 303l0 0 0 -303 258 0 0 303 -258 0zm0 -408l0 0 0 -303 258 0 0 303 -258 0zm0 -407l0 0 0 -302 258 0 0 302 -258 0zm0 -407l0 0 0 -303 258 0 0 303 -258 0zm0 -408l0 0 0 -282 258 0 0 282 -258 0zm638 -282l0 0 0 282 -259 0 0 -282 259 0zm-259 1609l0 0 259 0 0 303 -259 0 0 -303zm0 -408l0 0 259 0 0 303 -259 0 0 -303zm0 -406l0 0 259 0 0 302 -259 0 0 -302zm0 -408l0 0 259 0 0 303 -259 0 0 -303z"/>
   <path class="fil0" d="M4129 4379l-131 0 0 517 -340 167 0 -684 -131 0 0 749 -261 128 0 298 261 -129 0 446 -261 128 0 298 261 -128 0 452 131 0 0 -517 340 -167 0 684 131 0 0 -749 260 -128 0 -298 -260 129 0 -446 260 -129 0 -297 -260 128 0 -452zm-471 1428l0 0 0 -447 340 -168 0 447 -340 168z"/>
   <polygon class="fil0" points="398,6621 648,6621 648,4379 398,4379 "/>
   <path class="fil0" d="M819 4379l-80 0 0 2242 80 0 0 -1009c19,8 38,16 56,29 31,19 61,47 80,74 20,26 29,50 35,74 6,23 9,46 11,68 34,-29 69,-58 108,-77 39,-18 85,-25 131,-26 47,0 96,5 142,21 45,17 88,45 120,79 33,34 56,75 71,123 15,49 24,104 22,153 -3,50 -16,95 -32,134 -18,39 -37,73 -58,100 -23,29 -49,51 -80,67 -31,17 -69,25 -102,25 -27,1 -50,-5 -72,-10 21,-32 35,-69 35,-111 0,-107 -87,-195 -194,-195 -109,0 -195,88 -195,195 0,31 7,60 19,85 21,43 53,78 91,106 33,24 80,50 128,68 49,17 100,25 156,25 57,1 120,-5 178,-33 57,-26 111,-74 152,-133 41,-58 68,-130 85,-204 16,-73 19,-150 9,-223 -10,-73 -34,-142 -69,-202 -36,-61 -84,-113 -138,-150 -52,-37 -109,-58 -162,-68 -53,-10 -102,-9 -135,-4 -34,5 -54,12 -73,20 -17,-30 -34,-59 -54,-85 -12,-13 -25,-25 -38,-37 13,-12 26,-24 38,-38 20,-25 37,-54 54,-85 19,9 39,16 73,21 33,4 82,6 135,-5 53,-9 110,-30 162,-67 54,-37 102,-89 138,-150 35,-60 59,-129 69,-202 10,-73 7,-150 -9,-224 -17,-74 -44,-144 -85,-204 -41,-59 -95,-106 -152,-132 -58,-28 -121,-34 -178,-34 -56,1 -107,9 -156,26 -48,17 -95,44 -128,68 -38,28 -70,63 -91,106 -12,26 -19,54 -19,84 0,108 86,195 195,195 107,0 194,-87 194,-195 0,-41 -14,-78 -35,-110 22,-6 45,-11 72,-11 33,1 71,9 102,25 31,17 57,39 80,67 21,28 40,62 58,101 16,39 29,84 32,133 2,50 -7,105 -22,154 -15,47 -38,89 -71,123 -32,34 -75,62 -120,79 -46,16 -95,21 -142,20 -46,-1 -92,-7 -131,-26 -39,-18 -74,-48 -108,-77 -2,23 -5,46 -11,69 -6,23 -15,48 -35,74 -19,26 -49,54 -80,74 -18,12 -37,21 -56,29l0 -1009z"/>
   <polygon class="fil0" points="2304,6621 2554,6621 2554,4379 2304,4379 "/>
   <polygon class="fil0" points="2644,6621 2724,6621 2724,4379 2644,4379 "/>
   <path class="fil0" d="M2885 5238c41,0 75,33 75,75 0,41 -34,76 -75,76 -41,0 -75,-35 -75,-76 0,-42 34,-75 75,-75z"/>
   <path class="fil0" d="M2885 5611c41,0 75,34 75,75 0,42 -34,76 -75,76 -41,0 -75,-34 -75,-76 0,-41 34,-75 75,-75z"/>
  </g>
 </g>
</svg>
