<?xml version="1.0" encoding="UTF-8"?>
<!DOCTYPE svg PUBLIC "-//W3C//DTD SVG 1.1//EN" "http://www.w3.org/Graphics/SVG/1.1/DTD/svg11.dtd">
<!-- Creator: CorelDRAW X8 -->
<svg xmlns="http://www.w3.org/2000/svg" xml:space="preserve" width="8.5in" height="11in" version="1.1" style="shape-rendering:geometricPrecision; text-rendering:geometricPrecision; image-rendering:optimizeQuality; fill-rule:evenodd; clip-rule:evenodd"
viewBox="0 0 8500 11000"
 xmlns:xlink="http://www.w3.org/1999/xlink">
 <defs>
  <style type="text/css">
   <![CDATA[
    .fil0 {fill:#090968}
   ]]>
  </style>
 </defs>
 <g id="Layer_x0020_1">
  <metadata id="CorelCorpID_0Corel-Layer"/>
  <g id="_105086179056">
   <path class="fil0" d="M3223 3596c-111,-56 -211,-124 -286,-217 106,9 207,137 286,217z"/>
   <path class="fil0" d="M7900 1230c9,0 18,0 27,0 98,515 37,1219 68,1890 31,674 21,1404 0,1999 -17,509 -23,939 -68,1414 -22,235 -130,496 -217,735 -118,322 -271,496 -503,666 -142,104 -351,212 -571,231 -32,14 -29,62 -68,68 -267,31 -476,1 -680,-82 -4,40 30,42 27,82 -56,-3 -61,-57 -68,-109 -80,-51 -114,-149 -231,-163 -51,-154 -174,-202 -204,-353 -172,-849 657,-1426 1536,-1347 161,-758 109,-1713 68,-2610 -216,46 -433,92 -584,204 -164,12 -312,68 -449,122 -136,54 -288,81 -394,177 -34,-12 -73,-18 -123,-14 -269,90 -552,181 -802,286 -118,49 -201,113 -326,109 -139,82 -294,136 -463,217 -114,55 -393,147 -435,231 -77,155 16,487 27,694 18,311 7,715 14,992 10,400 -56,824 -136,1183 -25,112 -8,218 -27,313 -35,174 -117,362 -191,517 -80,171 -137,344 -244,462 -60,66 -165,107 -245,177 -103,89 -168,192 -286,285 -161,-8 -266,136 -435,164 -226,-88 -470,48 -680,-28 -125,-45 -260,-184 -394,-272 -124,-81 -218,-81 -272,-231 -20,-57 -10,-144 -27,-217 -15,-63 -50,-110 -54,-150 -47,-451 277,-794 557,-965 41,-9 21,-79 54,-95 412,-222 1131,-135 1455,108 93,-260 -9,-497 41,-816 -42,-82 -34,-327 -27,-475 34,-783 -28,-1617 -27,-2462 -72,150 12,362 -27,531 -62,-436 -24,-1147 -68,-1469 701,-325 1436,-597 2189,-897 449,-180 908,-268 1387,-463 195,-79 395,-152 598,-217 431,-139 878,-264 1278,-422zm-5425 8159l0 0c81,-24 169,-157 244,-231 -9,-42 -9,-26 0,-68 599,-589 739,-1857 640,-2937 29,-9 43,38 40,-14 -103,-319 2,-787 -68,-1142 45,-26 59,-2 55,-82 234,-37 473,-291 680,-326 173,-30 371,-143 557,-218 179,-72 375,-121 558,-190 613,-232 1360,-514 1917,-598 0,354 78,1069 54,1577 -5,109 -14,321 -41,204 -24,342 17,666 -68,897 -25,-1 -9,-45 -40,-40 -10,60 34,95 -14,122 -32,-9 -258,-77 -285,27 -123,-43 -337,-10 -422,27 -36,16 -60,62 -109,82 -102,42 -177,36 -244,82 -50,33 -71,105 -136,149 -15,10 -52,1 -68,14 -11,8 -2,44 -14,54 -86,71 -157,153 -163,286 25,13 45,-41 54,0 -75,59 -155,220 -136,367 11,26 48,-41 68,13 -58,68 26,179 68,232 -52,202 216,188 245,353 99,-47 155,45 218,41 -4,28 -61,3 -55,41 619,105 1130,-118 1346,-503 2,16 4,32 27,27 220,-284 429,-812 463,-1224 5,-60 -33,-247 13,-286 -13,12 13,59 14,55 16,-75 -16,-149 -14,-218 5,-173 96,-356 41,-530 -1,17 -4,32 -27,27 28,-232 71,-572 41,-775 -1,41 1,83 -41,82 18,-101 30,-206 27,-327 -20,-2 -50,5 -54,-13 -6,-33 62,7 41,-41 23,-852 4,-1757 27,-2651 -105,-80 18,-303 -41,-422 -266,51 -500,177 -707,245 3,-17 21,-28 -14,-27 -87,52 -217,64 -299,122 -644,166 -1177,452 -1768,639 24,1 35,-10 41,-27 -878,305 -1740,625 -2570,979 33,213 -36,402 41,598 11,402 2,902 41,1237 0,-49 -5,-105 54,-95 -63,863 40,1985 -54,2978 12,52 71,56 54,136 -41,-10 -40,24 -81,14 -23,-86 -66,-152 -150,-177 4,31 -3,51 -27,54 -89,-61 -144,-155 -286,-163 -7,56 97,46 55,95 -113,-74 -275,-208 -449,-136 -1,-21 2,-47 -27,-40 -155,-14 -245,36 -340,81 8,-13 32,-50 -14,-41 -59,95 -178,130 -285,177 -26,15 -19,63 -41,82 -147,48 -197,192 -285,299 -19,0 -30,-7 -41,-14 -10,47 55,18 41,68 -56,24 -26,92 -41,150 -32,-39 -53,-56 -55,-95 -70,87 -39,234 -13,299 -48,-7 -33,-76 -68,-95 -35,45 -4,114 41,122 -72,101 45,194 54,299 16,34 51,-28 68,14 -6,21 -43,11 -27,54 77,222 368,230 489,408 53,15 49,-48 82,-14 -32,77 95,101 149,136 -18,-53 225,-3 150,0 74,15 90,-27 150,-27 -4,21 -21,23 13,27 286,34 590,-251 762,-326 4,31 -40,15 -41,41zm448 -530l0 0c-66,92 -130,186 -204,271 106,-44 189,-183 204,-271zm1768 -6473l0 0c47,-16 106,-21 136,-54 -56,7 -114,12 -136,54zm3236 1183l0 0c-8,-64 18,-163 -13,-204 10,61 -54,175 13,204zm-5384 558l0 0c-36,-6 7,-161 -27,-123 4,37 -17,170 27,123zm95 1169l0 0c-5,-37 12,-165 -14,-136 5,37 -12,166 14,136zm-41 1482l0 0c-5,-40 13,-175 -13,-149 5,40 -14,175 13,149zm0 231l0 0c10,-64 13,-180 -13,-190 8,59 -18,154 13,190zm245 2108l0 0c144,-186 7,-83 0,0zm-1768 367l0 0c-77,-36 -125,-101 -217,-122 50,54 142,138 217,122zm367 231l0 0c-88,-25 -178,-49 -272,-68 36,69 188,93 272,68z"/>
   <path class="fil0" d="M1156 8287c125,-174 578,-365 979,-231 10,12 14,31 13,55 195,40 289,182 408,299 253,-246 208,-652 232,-1170 37,-831 0,-1749 -28,-2420 -58,11 13,66 -27,95 13,-497 -87,-1193 0,-1618 115,-21 216,-56 313,-95 2,-29 -48,-6 -68,-14 751,-228 1442,-516 2175,-761 48,-4 -34,-51 14,-54 859,-230 1482,-589 2325,-789 53,-22 28,35 55,41 38,2 -12,-84 27,-82 42,26 66,70 122,82 8,58 -73,26 -54,95 7,43 15,85 54,95 52,1111 76,2279 82,3331 3,531 -30,1199 -191,1619 -11,65 60,49 41,122 -24,8 -80,-17 -81,14 -37,57 40,26 27,95 -87,4 -90,91 -109,163 -113,36 -153,146 -204,245 -169,116 -305,265 -503,353 -139,-15 -225,46 -340,41 -466,-21 -674,-506 -408,-911 108,-76 186,-196 313,-258 69,-35 176,-14 204,-109 68,42 118,67 204,54 64,-10 105,-69 163,-68 77,2 94,68 177,82 97,-147 117,-372 190,-544 -18,9 -25,29 -27,54 89,-492 63,-1024 54,-1550 -1,-82 31,-163 27,-245 -25,-664 -98,-1349 -122,-1944 -262,53 -508,163 -761,245 -250,81 -514,142 -721,285 -226,24 -536,123 -762,218 -593,251 -1220,496 -1822,734 27,116 14,159 55,218 -21,1305 193,2576 0,3780 -41,-16 10,-124 -14,-123 -50,302 -110,613 -245,898 -180,383 -500,777 -951,897 -190,51 -341,-19 -490,-81 -72,-2 -141,-2 -204,-41 -96,-60 -262,-298 -285,-354 -124,-295 45,-561 176,-748 -4,0 -9,0 -13,0zm6146 -2461l0 0c8,-151 -71,139 -27,163 -3,-51 24,-120 27,-163zm95 -4052l0 0c11,3 16,12 14,27 50,5 56,-33 68,-67 -42,-1 -70,12 -82,40zm177 313l0 0c0,-50 0,-100 0,-150 -111,-38 -167,-132 -272,-176 -24,130 170,267 272,326zm-109 -245l0 0c47,3 52,48 95,55 -15,-56 -30,-51 0,-96 -42,11 -26,-37 -68,-27 -14,18 -13,50 -27,68zm41 340l0 0c-118,-127 -167,-322 -354,-381 33,159 236,263 354,381zm68 150l0 0c-22,-110 -138,-184 -218,-191 -79,-116 -195,-194 -272,-312 -2,20 -33,12 -54,13 152,214 365,329 544,490zm-367 -231l0 0c-91,-78 -137,-199 -272,-232 59,100 180,210 272,232zm-164 -14l0 0c-41,-81 -95,-150 -176,-190 27,95 115,129 176,190zm-67 41l0 0c-52,-62 -108,-192 -191,-177 64,59 118,127 191,177zm-164 258l0 0c108,-15 179,-66 286,-81 -118,-127 -270,-220 -381,-354 -2,16 -21,15 -41,14 78,114 200,235 313,272 -2,16 2,38 -13,40 -176,-51 -218,-235 -408,-272 64,149 224,202 312,327 -120,-8 -208,-163 -299,-245 -27,-4 -27,18 -41,27 12,-58 -104,-108 -108,-27 92,66 164,153 258,218 10,-37 -27,-28 -27,-55 67,28 79,111 149,136zm789 313l0 0c0,-54 0,-109 0,-163 -172,-150 -332,-312 -517,-449 172,194 326,407 517,612zm-1033 -299l0 0c-86,-23 -157,-134 -232,-123 26,20 61,31 55,82 -80,-36 -146,-279 -245,-163 123,113 250,180 367,272 82,-14 143,-48 231,-55 -84,-119 -226,-182 -326,-285 -2,61 89,100 68,136 -58,-38 -83,-108 -122,-163 -42,4 -93,-2 -96,40 81,65 188,175 272,191 -13,0 -17,-24 0,-27 8,44 90,55 28,95zm1006 -218l0 0c-3,-20 5,-50 -14,-54 -4,32 -36,-16 -54,-14 6,40 28,62 68,68zm-136 82l0 0c-53,-48 -138,-133 -191,-95 141,63 189,219 340,272 -31,-54 -90,-124 -149,-177zm-1550 13l0 0c77,37 143,156 217,150 -72,-40 -114,-228 -217,-150zm108 313l0 0c-10,-3 -15,-11 -13,-27 24,3 31,23 27,54 168,-27 313,-76 449,-136 -128,-56 -214,-217 -354,-217 -6,-40 -28,-62 -68,-68 -3,15 -15,21 -27,27 93,154 277,159 340,286 -125,7 -190,-176 -272,-123 42,13 67,34 41,82 58,-22 112,32 68,68 -80,-2 -99,-106 -177,-68 -32,-36 -130,-179 -231,-177 99,164 256,196 353,272 -19,3 -22,22 -40,27 -57,-5 -108,-114 -136,-27 -26,-26 -2,-34 0,-68 -126,-5 -159,-196 -313,-163 88,106 237,225 353,258zm-611 -190l0 0c140,128 348,177 475,285 39,-16 90,-19 109,-54 -158,-89 -349,-277 -435,-245 128,81 283,135 367,259 -64,-49 -141,-85 -217,-123 -19,48 82,43 41,68 -116,-61 -165,-189 -340,-190zm353 326l0 0c12,-29 70,-11 82,-41 -212,-52 -343,-238 -544,-258 121,133 301,207 462,299zm1863 231l0 0c0,-68 0,-136 0,-204 -101,-53 -160,-148 -231,-231 -17,-34 -70,-128 -95,-68 73,149 229,288 299,395 -87,-24 -130,-158 -204,-150 33,-40 -32,-69 -68,-82 24,230 178,267 285,395 -24,-89 -99,-127 -136,-204 64,35 84,115 150,149zm-2434 -476l0 0c-11,3 -16,12 -14,28 172,56 335,261 517,217 -177,-64 -302,-250 -503,-245zm-163 68l0 0c119,108 305,149 435,245 -242,-9 -370,-256 -585,-204 193,160 467,368 707,163 -215,-23 -360,-293 -557,-204zm1101 96l0 0c39,-8 142,-20 109,-55 -29,26 -90,19 -109,55zm-1291 -28l0 0c-46,0 -72,19 -96,41 179,65 283,307 517,231 -124,-107 -303,-159 -421,-272zm2841 191l0 0c0,72 0,145 0,217 32,-100 5,-258 14,-380 -3,-16 -15,-22 -27,-28 -3,71 0,136 13,191zm-3045 -109l0 0c82,49 171,150 271,136 58,55 163,179 245,122 -109,10 -182,-170 -299,-149 11,3 27,0 27,13 -96,-16 -148,-193 -244,-122zm-109 41l0 0c168,73 322,302 516,258 -142,-97 -388,-207 -448,-299 -18,19 -67,6 -68,41zm-313 149l0 0c103,74 214,140 340,191 40,23 71,112 136,68 -104,-119 -279,-166 -394,-272 158,16 286,174 435,244 69,-17 125,-46 190,-67 -163,-102 -307,-288 -530,-286 107,137 337,152 435,299 -239,-74 -438,-386 -707,-190 61,19 121,-33 136,-14 -16,7 -31,15 -41,27zm3413 218l0 0c4,-58 -39,-69 -68,-95 15,39 17,92 68,95zm-299 -313l0 0c6,184 148,233 245,326 -47,-143 -144,-237 -245,-326zm-2149 150l0 0c63,-10 118,-28 164,-55 -64,9 -130,15 -164,55zm-734 272l0 0c55,-13 93,-44 163,-41 -104,-104 -269,-147 -394,-231 46,122 184,151 231,272zm-530 -218l0 0c118,79 229,304 394,245 -139,-57 -234,-298 -394,-245zm421 177l0 0c6,47 48,97 82,41 -125,-79 -226,-182 -367,-245 75,84 172,201 285,204zm3264 122l0 0c12,-33 41,-50 27,-109 -116,-51 -190,-145 -286,-217 0,142 153,245 259,326zm-3739 -299l0 0c-1,22 -38,8 -41,27 112,110 210,234 380,286 -101,-116 -232,-203 -339,-313zm-14 136l0 0c-39,-25 -50,-77 -95,-95 10,44 73,107 95,95zm54 204l0 0c-138,-52 -239,-257 -394,-204 101,112 263,163 354,286 56,-21 112,-42 163,-68 -147,-71 -192,-244 -381,-272 51,113 249,148 258,258zm3712 136l0 0c0,-41 0,-82 0,-122 -48,-5 -49,-37 -95,-14 -34,-97 -109,-154 -177,-218 -8,201 165,237 272,354zm-4215 -299l0 0c139,80 255,350 449,245 -133,-94 -286,-168 -394,-286 -4,28 -51,13 -55,41zm476 -14l0 0c51,85 119,153 231,177 -56,-72 -157,-167 -231,-177zm-544 41l0 0c-28,40 -100,36 -136,68 145,66 238,250 395,258 -48,-125 -255,-160 -259,-285 122,78 189,210 340,258 -50,-126 -231,-218 -340,-299zm-245 95l0 0c86,105 207,175 300,272 51,-24 87,21 108,-27 -121,-83 -220,-188 -353,-258 -19,4 -26,19 -55,13zm4474 259l0 0c-48,-93 -134,-220 -218,-232 64,87 127,173 218,232zm-4623 -164l0 0c119,105 263,368 449,204 -148,-50 -304,-367 -449,-204zm4732 68l0 0c-4,-29 10,-145 -14,-108 4,29 -10,145 14,108zm-3739 0l0 0c100,-12 180,-46 258,-81 -109,5 -191,35 -258,81zm-789 259l0 0c18,-14 41,-23 54,-41 -104,-86 -203,-178 -299,-272 25,107 155,225 245,313zm4201 -286l0 0c70,84 128,181 218,245 -56,-90 -135,-226 -218,-245zm-4364 245l0 0c-73,-68 -71,-210 -191,-231 10,49 19,99 14,163 136,41 191,235 299,258 -27,-59 -113,-131 -95,-190 50,29 51,143 122,109 -33,-99 -120,-142 -177,-218 -10,47 72,72 28,109zm761 -136l0 0c44,-37 131,-32 163,-82 -47,26 -176,41 -163,82zm3835 41l0 0c38,2 39,-34 40,-68 -13,0 -27,0 -40,0 0,22 0,45 0,68zm-136 163l0 0c36,46 165,146 176,122 -87,-116 -156,-251 -272,-340 27,63 46,156 96,218zm-4338 503l0 0c-72,-146 -183,-252 -245,-408 14,0 27,0 41,0 -11,-57 -48,-88 -81,-122 2,101 -22,217 27,299 78,22 181,208 258,231zm4555 -245l0 0c2,17 4,33 27,27 -15,-63 -46,-72 -95,-40 -16,-97 -149,-184 -217,-272 17,118 209,347 285,285zm-4541 41l0 0c-21,-160 -140,-223 -232,-313 53,129 136,228 232,313zm4419 14l0 0c-25,-57 -63,-101 -109,-136 19,62 66,97 109,136zm95 231l0 0c-62,-137 -167,-232 -258,-340 17,182 151,248 258,340zm41 -136l0 0c-24,-49 -61,-85 -123,-95 20,53 78,67 123,95zm-4528 231l0 0c-69,-147 -222,-225 -313,-313 9,82 19,162 14,259 84,1 66,105 136,122 17,-34 -40,-56 0,-68 47,67 82,145 149,190 15,-88 -106,-213 -190,-204 0,-74 -129,-111 -55,-176 58,65 109,136 177,190 -16,-106 -167,-150 -149,-245 61,89 153,218 231,245zm-41 -218l0 0c-6,-48 -34,-74 -68,-95 2,53 31,79 68,95zm4433 164l0 0c-60,-44 -71,-138 -150,-164 49,119 155,254 259,272 -31,-5 -49,-24 -55,-54 70,3 59,86 123,95 -20,-139 -175,-214 -245,-258 13,37 83,88 68,109zm177 -28l0 0c-17,-33 -66,-105 -96,-81 42,17 37,81 96,81zm0 313l0 0c12,-68 -58,-106 -96,-81 -61,-66 -137,-189 -204,-204 95,100 167,223 300,285zm-4637 109l0 0c-2,-57 30,-9 41,0 -2,-34 21,-42 27,-68 -87,-15 -126,-200 -204,-136 -41,-31 -35,-110 -95,-122 20,165 141,230 231,326zm4324 -286l0 0c41,167 199,261 313,313 -40,-159 -221,-250 -313,-313zm-4270 490l0 0c8,-176 -194,-259 -285,-381 32,190 180,264 285,381zm4283 -354l0 0c64,145 171,247 300,327 -10,-143 -169,-199 -232,-245 24,-20 -38,-69 -68,-82zm14 136l0 0c-5,186 175,260 258,313 -12,-4 -45,-51 -13,-54 -2,24 13,32 41,27 -10,-76 -105,-110 -136,-122 3,-54 -101,-117 -150,-164zm-4283 422l0 0c29,-251 -184,-260 -272,-394 -2,224 143,301 272,394zm4297 -245l0 0c28,85 115,111 149,190 27,5 27,-18 41,-27 19,35 32,77 82,82 -75,-108 -183,-134 -272,-245zm244 422l0 0c-97,-103 -143,-256 -258,-340 0,41 0,81 0,122 101,49 172,200 258,218zm-4528 40l0 0c-20,-47 -12,-124 -13,-190 -117,-29 -145,-145 -259,-177 17,197 156,271 272,367zm4216 -108l0 0c-5,-37 12,-166 -14,-136 5,36 -12,165 14,136zm326 27l0 0c11,-97 -67,-106 -109,-150 20,67 61,112 109,150zm-286 -55l0 0c69,50 110,127 191,164 -36,-101 -111,-161 -177,-232 4,32 -2,53 -14,68zm-4256 313l0 0c17,-221 -172,-235 -258,-353 -9,213 142,266 258,353zm4460 27l0 0c-59,-90 -136,-163 -190,-258 -28,135 92,186 190,258zm68 -149l0 0c5,-59 -70,-111 -95,-95 39,24 50,77 95,95zm0 163l0 0c8,-130 -138,-179 -190,-204 68,64 112,151 190,204zm-4528 122l0 0c-1,-193 -181,-208 -258,-326 23,172 167,223 258,326zm4406 -27l0 0c-40,-73 -84,-143 -150,-190 23,90 81,146 150,190zm109 55l0 0c12,-117 -118,-164 -163,-177 57,55 91,135 163,177zm-4501 122l0 0c-7,-179 -160,-212 -258,-299 29,156 170,201 258,299zm4487 13l0 0c0,-27 0,-54 0,-81 -124,-17 -176,-169 -258,-150 29,103 137,199 204,218 -5,-37 -77,-77 -55,-95 48,24 61,84 109,108zm-4460 136l0 0c-41,-166 -181,-235 -285,-339 14,190 198,264 285,339zm4501 -81l0 0c17,-52 25,-183 14,-218 -14,55 -32,177 -14,218zm-54 95l0 0c-5,-31 2,-52 13,-68 -78,-71 -174,-125 -258,-190 4,113 144,197 245,258zm-4732 -68l0 0c98,65 172,155 285,204 1,-60 5,-148 -27,-68 -30,-147 -186,-167 -258,-272 0,45 0,91 0,136zm4677 136l0 0c-82,-58 -118,-163 -217,-204 22,109 145,190 217,204zm109 -14l0 0c-10,-30 24,-106 -27,-95 2,39 -12,94 27,95zm-82 150l0 0c-21,-18 -61,-47 -27,-82 -101,23 -135,-123 -231,-149 17,137 175,205 258,231zm-4704 -122l0 0c127,54 174,188 285,258 0,-54 0,-109 0,-163 -104,-55 -194,-123 -285,-191 -12,49 30,66 0,96zm4745 204l0 0c-50,0 -92,-79 -122,-55 35,32 88,141 122,55zm-313 -177l0 0c41,145 186,186 286,272 -65,-121 -171,-201 -286,-272zm-4256 217l0 0c-78,-44 -103,-141 -176,-190 45,145 153,228 258,313 -12,-44 12,-52 27,-68 -68,-36 -91,-118 -163,-150 -9,59 68,32 54,95zm4324 55l0 0c114,-5 132,85 218,109 -78,-117 -195,-195 -299,-286 7,110 73,75 81,177zm-4242 217l0 0c-8,-182 -162,-219 -245,-326 -7,198 166,215 245,326zm4433 -54l0 0c6,-38 -79,-99 -82,-41 48,-7 34,48 82,41zm-299 -204l0 0c22,128 179,192 258,218 -82,-69 -170,-201 -258,-218zm-4406 272l0 0c48,-22 10,-189 0,-190 15,69 -23,157 0,190zm4637 0l0 0c-89,-57 -156,-134 -259,-177 48,88 168,177 259,177zm-4351 95l0 0c-20,-139 -148,-170 -232,-245 56,103 152,167 232,245zm4038 -95l0 0c119,32 204,166 313,163 -71,-115 -177,-195 -286,-272 -4,41 -42,49 -27,109zm-4038 258l0 0c0,-45 0,-90 0,-136 -106,-44 -154,-145 -245,-204 5,190 142,248 245,340zm54 41l0 0c2,-86 28,-243 -27,-353 22,116 -13,260 27,353zm3767 -95l0 0c-94,-52 -170,-193 -286,-177 110,36 187,176 286,177zm339 149l0 0c-94,-100 -249,-331 -448,-326 121,138 304,213 448,326zm-190 150l0 0c33,42 -24,-29 14,-27 60,34 97,92 163,122 -10,-50 23,-58 13,-109 -227,-112 -410,-269 -611,-407 95,175 378,281 421,421zm-245 -204l0 0c-113,-94 -197,-259 -353,-258 -8,48 48,33 41,81 206,84 331,249 516,354 -44,-80 -130,-116 -204,-177zm259 -190l0 0c119,27 236,197 312,177 -97,-89 -186,-185 -299,-259 -15,16 -15,48 -13,82zm380 0l0 0c16,-48 -52,-83 -68,-55 32,10 37,46 68,55zm-775 190l0 0c-100,-92 -257,-243 -353,-204 206,206 469,356 707,530 5,-23 -20,-34 0,-40 48,28 71,82 136,95 -10,-37 27,-28 27,-55 -193,-61 -313,-266 -489,-299 104,82 218,154 299,259 -135,-74 -195,-165 -327,-286zm-3589 95l0 0c-1,-172 -151,-193 -232,-285 9,164 156,189 232,285zm3481 -54l0 0c-3,20 -33,12 -55,13 -69,-81 -180,-190 -272,-203 67,91 263,244 381,285 -15,-9 -71,-45 -41,-54 171,124 297,292 503,380 -4,-26 19,-27 27,-40 -186,-122 -366,-250 -543,-381zm843 -95l0 0c-10,-54 -69,-59 -109,-82 11,52 61,66 109,82zm-1265 -41l0 0c101,139 274,207 408,313 -98,-139 -246,-226 -367,-340 -22,1 -11,34 -41,27zm789 41l0 0c119,13 205,174 340,217 23,-84 -96,-99 -150,-136 -70,-47 -124,-124 -204,-136 -4,27 18,27 27,41 -14,0 -34,7 -13,14zm-3848 272l0 0c-11,-171 -169,-194 -245,-299 -8,137 155,213 245,299zm4242 -191l0 0c-40,-27 -76,-60 -122,-81 16,43 99,131 122,81zm-1020 109l0 0c-79,-57 -134,-138 -231,-177 29,98 149,177 231,177zm123 163l0 0c-159,-31 -246,-205 -408,-272 -4,62 38,116 68,136 141,100 357,220 462,286 -8,0 -15,-11 0,-14 111,57 158,177 299,204 -111,-111 -282,-235 -394,-299 6,35 93,60 68,82 -39,-29 -155,-81 -95,-123zm-3345 95l0 0c0,-40 0,-81 0,-122 -90,-74 -168,-158 -259,-231 -22,243 168,255 259,353zm3494 -27l0 0c121,93 271,248 394,177 -254,-100 -432,-347 -666,-422 106,68 172,168 272,245zm-625 -217l0 0c26,104 146,116 204,190 -43,-89 -137,-127 -204,-190zm435 353l0 0c116,13 211,147 326,204 -6,-43 62,-10 68,-41 -260,-152 -508,-389 -761,-503 104,118 236,208 340,327 2,-16 -3,-39 13,-41 13,51 62,40 14,54zm639 0l0 0c-151,-116 -335,-272 -490,-340 154,114 300,308 490,340zm-3957 41l0 0c0,-41 0,-82 0,-122 -102,-39 -146,-136 -245,-177 -14,195 140,223 245,299zm2978 -122l0 0c-74,-26 -107,-93 -136,-164 -32,120 99,201 136,164zm109 0l0 0c-49,-70 -119,-118 -191,-164 23,96 126,110 191,164zm-3101 217l0 0c-30,-128 -163,-153 -244,-231 20,139 161,156 244,231zm3237 -41l0 0c84,62 165,145 258,164 -124,-135 -302,-215 -435,-340 -16,62 106,125 177,176zm353 150l0 0c-107,-129 -268,-203 -408,-299 78,104 250,231 408,299zm-353 -95l0 0c-92,-58 -178,-122 -272,-177 59,73 180,226 272,177zm-3332 81l0 0c48,-33 52,37 95,0 -41,-113 -160,-147 -244,-217 25,96 163,123 149,217zm3196 -68l0 0c-55,-35 -108,-73 -177,-95 20,62 107,128 177,95zm-3155 150l0 0c2,58 8,78 0,136 -87,-32 -158,-148 -245,-136 49,96 140,150 231,204 53,-33 33,-139 55,-204 -95,-32 -141,-113 -231,-150 25,89 119,108 190,150zm3304 -95l0 0c55,22 84,70 163,68 -33,-41 -115,-125 -163,-68zm-81 13l0 0c28,4 3,60 27,68 32,-8 98,17 109,-13 -61,-57 -217,-92 -313,-68 80,43 138,98 177,13zm-3264 136l0 0c-47,-61 -106,-111 -177,-149 29,80 94,124 177,149zm0 245l0 0c-1,-34 -25,-42 0,-68 -78,-34 -127,-99 -204,-136 36,100 117,155 204,204zm-81 -14l0 0c-54,4 -42,-58 -96,-54 9,56 79,121 137,82 -24,-33 -73,23 -41,-28zm-82 544l0 0c84,-120 95,-277 163,-435 -102,-1 -126,-82 -204,-109 -20,112 93,89 136,136 1,24 -10,35 -27,41 -37,-21 -67,-50 -109,-68 -25,93 74,63 95,109 -25,3 8,22 -13,27 -48,16 -78,-57 -109,-13 20,11 53,10 41,54 41,-1 89,-8 81,41 -106,11 -101,-89 -190,-95 -29,84 101,100 150,149 2,-16 -3,-38 13,-41 6,26 39,25 27,68 -119,22 -158,-100 -231,-81 22,91 120,107 177,163 -108,8 -128,-72 -204,-95 42,76 120,115 204,149zm-680 -231l0 0c-142,-76 -205,-302 -448,-231 108,146 269,238 421,340 -47,-41 -8,-110 -82,-82 4,-100 -236,-142 -231,-244 116,61 240,186 340,217zm-598 -217l0 0c-19,-1 -30,6 -41,13 -10,3 -16,12 -13,27 266,228 545,443 843,640 58,54 162,194 244,136 -359,-258 -713,-520 -1033,-816zm353 258l0 0c20,-25 -62,-84 -108,-122 -56,-47 -120,-90 -163,-123 60,112 182,162 271,245zm204 -136l0 0c-17,-50 -55,-80 -108,-95 28,40 62,74 108,95zm368 802l0 0c5,-17 17,-27 40,-27 -181,-163 -372,-316 -584,-449 -122,-110 -276,-228 -408,-326 -35,-25 -64,-93 -123,-54 108,150 277,240 422,353 13,-25 -41,-45 0,-54 18,48 -1,50 14,95 57,10 79,57 122,82 5,-24 -20,-35 0,-41 36,12 54,50 13,68 26,3 30,-16 55,-14 -28,32 5,31 27,14 24,8 -1,64 27,68 3,-16 15,-21 27,-27 103,124 231,222 368,312zm-1197 -761l0 0c89,179 287,251 435,367 210,163 392,369 626,503 -219,-231 -518,-431 -762,-625 -78,-63 -186,-131 -204,-232 345,300 667,559 1034,816 -139,-176 -332,-305 -504,-448 -174,-145 -361,-273 -530,-422 -13,65 -42,77 -95,41zm1088 136l0 0c3,-76 -69,-149 -123,-123 56,26 31,133 123,123zm-1142 -27l0 0c296,219 578,476 856,693 58,45 145,140 231,95 -370,-273 -713,-573 -1087,-843 -16,20 -16,35 0,55zm408 408l0 0c209,154 353,327 530,380 -287,-210 -597,-493 -870,-707 -32,-24 -88,-62 -123,-54 53,145 278,244 463,381zm1060 -14l0 0c-212,-105 -368,-266 -557,-394 158,177 327,344 543,462 26,-34 64,-55 82,-95 -58,-33 -103,-79 -163,-109 -3,71 147,61 95,136zm-299 -272l0 0c28,25 114,102 190,122 -74,-49 -291,-213 -190,-122zm354 109l0 0c-90,21 -136,-73 -191,-41 78,24 168,174 231,122 -18,-12 -23,-46 0,-108 -85,-29 -114,-113 -217,-123 -2,110 143,75 177,150zm-109 272l0 0c-193,-116 -378,-311 -558,-395 196,113 345,344 558,395zm-1510 -327l0 0c204,214 491,344 694,558 135,-23 204,209 326,109 -340,-226 -631,-502 -992,-707 0,23 -11,34 -28,40zm-54 109l0 0c-32,-4 -8,-60 14,-54 88,120 235,184 353,272 166,122 293,308 503,367 3,51 66,92 95,41 -329,-224 -627,-479 -965,-694 -42,-1 -27,109 0,68zm707 544l0 0c-153,-130 -355,-275 -517,-394 -53,-40 -109,-114 -163,-95 212,169 459,375 680,489zm-734 -408l0 0c249,173 483,360 748,517 -35,-75 -126,-147 -204,-204 -159,-115 -365,-209 -490,-354 -17,0 -19,-17 -41,-13 -7,27 -40,26 -13,54zm-27 109l0 0c199,145 362,326 625,408 -6,42 12,60 55,54 -66,-97 -191,-191 -313,-272 -128,-84 -270,-155 -381,-244 -1,23 3,42 14,54zm394 340l0 0c-114,-31 -187,-175 -299,-163 103,36 216,196 299,163zm122 81l0 0c-56,11 -41,-49 -95,-40 11,33 75,99 95,40zm367 28l0 0c-28,-12 -40,-42 -81,-41 -8,41 57,77 81,41z"/>
   <path class="fil0" d="M7111 3324c-508,169 -1099,367 -1658,531 -25,16 -40,42 -68,54 -499,118 -972,340 -1442,530 -207,85 -393,193 -625,218 83,-80 25,-433 54,-639 5,-36 -76,13 -54,-41 36,-42 51,36 81,0 -2,-16 -24,-11 -40,-14 1030,-525 2307,-875 3440,-1305 71,-27 163,-10 244,-41 -4,50 97,66 68,96 -9,0 -18,0 -27,0 -14,-13 -4,-51 -41,-41 87,135 -38,505 68,652zm-122 -543l0 0c-44,11 -19,-45 -54,-41 -130,38 -238,37 -395,95 -53,7 54,20 0,27 -200,50 -463,129 -707,218 -418,151 -818,291 -1196,448 -448,186 -908,287 -1197,558 -17,151 -14,321 -13,489 1140,-473 2324,-975 3589,-1278 -63,-113 -9,-437 -27,-530 0,5 0,9 0,14z"/>
  </g>
 </g>
</svg>
