<?xml version="1.0" encoding="UTF-8"?>
<!DOCTYPE svg PUBLIC "-//W3C//DTD SVG 1.1//EN" "http://www.w3.org/Graphics/SVG/1.1/DTD/svg11.dtd">
<!-- Creator: CorelDRAW X8 -->
<svg xmlns="http://www.w3.org/2000/svg" xml:space="preserve" width="8.5in" height="11in" version="1.1" style="shape-rendering:geometricPrecision; text-rendering:geometricPrecision; image-rendering:optimizeQuality; fill-rule:evenodd; clip-rule:evenodd"
viewBox="0 0 8500 11000"
 xmlns:xlink="http://www.w3.org/1999/xlink">
 <defs>
  <style type="text/css">
   <![CDATA[
    .fil0 {fill:#090968}
   ]]>
  </style>
 </defs>
 <g id="Layer_x0020_1">
  <metadata id="CorelCorpID_0Corel-Layer"/>
  <g id="_105197887184">
   <path class="fil0" d="M3471 9401c115,87 -71,438 79,358 107,97 -120,147 -159,40 66,-166 -22,-253 80,-398z"/>
   <path class="fil0" d="M3709 9043c-20,126 -117,175 -119,318 -83,-115 54,-314 119,-318z"/>
   <path class="fil0" d="M3749 9043c74,128 10,266 0,478 187,-198 99,-670 239,-915 -139,87 -110,341 -239,437 -58,-472 318,-983 517,-1551 188,-536 422,-1116 557,-1670 183,-755 83,-1185 -80,-1909 -193,-860 -465,-1577 -1193,-1870 -41,135 360,169 358,398 -319,-291 -1010,-642 -1511,-278 0,-40 0,-80 0,-120 -326,71 -468,205 -597,358 -95,-194 182,-235 239,-397 -436,240 -751,601 -915,1113 -6,112 112,100 159,159 -34,94 -174,-33 -239,-39 -7,232 161,290 239,437 853,-442 1857,170 1631,994 -175,637 -966,709 -1671,557 6,-98 6,-191 -40,-238 -419,-18 -707,-440 -914,-796 16,-1093 -44,-2255 716,-2784 257,-179 1493,-632 1988,-676 591,-52 924,190 1313,358 197,241 381,494 755,557 28,224 223,281 279,477 -57,-3 -113,-7 -120,40 53,133 74,297 199,358 144,-109 -167,-307 -79,-358 230,9 132,345 358,358 530,1439 409,3562 -239,4812 228,-699 392,-1392 438,-2426 -163,1454 -794,2441 -1154,3699 -53,0 -106,0 -159,0 -44,275 -199,570 -397,795 -249,282 -407,583 -637,875 123,-480 97,-693 199,-1233zm-1710 -7238l0 0c89,-136 430,-20 477,-199 -129,-53 -498,112 -477,199zm-637 159l0 0c19,-116 221,-254 159,-318 -66,68 -269,205 -159,318zm1711 -199l0 0c-83,-26 -273,-149 -358,-40 117,-8 263,158 358,40zm2465 1830l0 0c-60,-139 -19,-379 -159,-438 32,168 11,387 159,438zm-4096 238l0 0c133,-39 310,-35 358,-159 -165,-11 -155,52 -279,0 -20,59 -58,100 -79,159zm835 756l0 0c142,9 239,-27 279,-119 -103,-97 -140,-258 -319,-279 -13,159 71,221 40,398zm-278 0l0 0c104,11 171,-15 159,-119 -51,-3 -55,-51 -120,-40 -12,54 -56,76 -39,159zm2943 954l0 0c128,-19 159,-342 79,-437 -17,155 -30,315 -79,437zm159 478l0 0c52,-96 143,-359 40,-478 -27,121 -142,360 -40,478z"/>
   <path class="fil0" d="M8203 1924c-234,216 -397,504 -596,756 -173,-99 -319,-45 -517,-159 -315,-511 -90,-1124 119,-1353 292,-319 1090,45 994,756zm-1034 -159l0 0c152,-47 182,-216 319,-278 -260,-5 -318,111 -319,278zm358 199l0 0c-33,-104 121,-218 0,-278 -40,71 -152,244 0,278zm0 40l0 0c-1,54 19,87 40,119 105,12 131,-55 120,-159 -70,-3 -124,9 -160,40zm40 437l0 0c-97,-61 -259,-59 -398,-79 51,158 338,222 398,79z"/>
   <path class="fil0" d="M7726 5464c-273,-34 -471,-65 -676,-80 -153,-125 -130,-427 -278,-556 88,-499 650,-1018 1113,-478 124,416 -21,834 -159,1114z"/>
  </g>
 </g>
</svg>
