<?xml version="1.0" encoding="UTF-8"?>
<!DOCTYPE svg PUBLIC "-//W3C//DTD SVG 1.1//EN" "http://www.w3.org/Graphics/SVG/1.1/DTD/svg11.dtd">
<!-- Creator: CorelDRAW X8 -->
<svg xmlns="http://www.w3.org/2000/svg" xml:space="preserve" width="8.5in" height="11in" version="1.1" style="shape-rendering:geometricPrecision; text-rendering:geometricPrecision; image-rendering:optimizeQuality; fill-rule:evenodd; clip-rule:evenodd"
viewBox="0 0 8500 11000"
 xmlns:xlink="http://www.w3.org/1999/xlink">
 <defs>
  <style type="text/css">
   <![CDATA[
    .fil0 {fill:black}
   ]]>
  </style>
 </defs>
 <g id="Layer_x0020_1">
  <metadata id="CorelCorpID_0Corel-Layer"/>
  <path class="fil0" d="M1901 3568l3069 182 0 2522c-147,-83 -338,-131 -550,-131 -455,0 -826,233 -826,523 0,287 371,520 826,520 458,0 828,-233 828,-520l0 -2898 2729 159 0 2844c-148,-80 -339,-128 -550,-128 -456,0 -826,232 -826,520 0,290 370,522 826,522 458,0 828,-232 828,-522 0,-1200 0,-2401 0,-3602l-6634 -389c0,1249 0,2497 0,3747 -145,-81 -336,-132 -548,-132 -458,0 -828,235 -828,523 0,287 370,522 828,522 458,0 828,-235 828,-522l0 -3740z"/>
 </g>
</svg>
