<?xml version="1.0" encoding="UTF-8"?>
<!DOCTYPE svg PUBLIC "-//W3C//DTD SVG 1.1//EN" "http://www.w3.org/Graphics/SVG/1.1/DTD/svg11.dtd">
<!-- Creator: CorelDRAW X8 -->
<svg xmlns="http://www.w3.org/2000/svg" xml:space="preserve" width="8.5in" height="11in" version="1.1" style="shape-rendering:geometricPrecision; text-rendering:geometricPrecision; image-rendering:optimizeQuality; fill-rule:evenodd; clip-rule:evenodd"
viewBox="0 0 8500 11000"
 xmlns:xlink="http://www.w3.org/1999/xlink">
 <defs>
  <style type="text/css">
   <![CDATA[
    .fil0 {fill:black}
   ]]>
  </style>
 </defs>
 <g id="Layer_x0020_1">
  <metadata id="CorelCorpID_0Corel-Layer"/>
  <g id="_105030042704">
   <path class="fil0" d="M3652 7009l0 494c0,375 11,724 -67,1095 -23,117 -52,207 -79,295 -92,-15 -184,-29 -297,-32 -111,-4 -239,7 -370,42 -132,36 -264,99 -369,189 -102,87 -177,200 -215,316 -40,115 -42,232 -17,335 27,104 82,194 176,261 94,69 228,113 360,122 132,8 261,-21 395,-82 134,-61 272,-155 400,-289 129,-136 251,-310 336,-481 86,-174 136,-342 174,-519 88,-438 94,-825 94,-1258l0 -488c0,-632 0,-1266 0,-1898l19 17c77,67 190,163 301,261 111,99 218,197 335,266 119,69 245,113 391,138 146,25 312,32 464,63 155,31 295,86 411,151 115,64 200,140 261,207 59,69 92,128 124,188 -7,-90 -15,-178 -47,-268 -33,-88 -90,-176 -158,-251 -70,-75 -151,-138 -241,-197 -92,-56 -195,-111 -312,-167 -119,-57 -257,-115 -391,-178 -134,-61 -268,-126 -383,-201 -113,-73 -209,-159 -289,-251 -79,-90 -142,-188 -186,-301 -46,-113 -73,-243 -90,-369 -16,-125 -23,-249 -31,-372 98,83 195,167 305,253 111,88 237,176 360,241 122,67 243,108 396,159 152,50 338,106 489,165 151,57 266,117 356,176 90,58 154,115 198,163 47,46 72,84 97,119 -23,-121 -46,-240 -90,-353 -44,-113 -109,-220 -203,-323 -92,-102 -211,-205 -354,-286 -142,-82 -307,-147 -464,-220 -159,-73 -310,-155 -450,-245 -138,-90 -265,-190 -366,-312 -102,-121 -176,-266 -222,-410 -48,-142 -67,-283 -73,-394 -8,-112 -4,-196 0,-278 117,105 236,209 366,304 130,92 270,173 416,236 147,61 302,105 479,178 178,71 381,174 528,268 146,94 236,182 303,266 65,83 105,161 147,240 4,-113 10,-224 -15,-343 -25,-119 -82,-245 -155,-356 -75,-109 -170,-205 -293,-288 -123,-86 -278,-160 -448,-239 -167,-80 -349,-165 -512,-255 -161,-90 -303,-187 -437,-285 -375,-274 -709,-582 -1057,-890 0,1957 0,3914 0,5871z"/>
   <path class="fil0" d="M3410 7003l0 469c0,364 14,709 -84,1065 -117,-4 -236,-6 -379,8 -142,17 -309,51 -460,109 -153,59 -291,140 -408,243 -119,105 -215,226 -282,356 -67,129 -103,264 -103,399 -2,136 30,273 86,396 55,124 136,234 247,327 109,92 247,163 399,196 153,36 318,32 494,-2 174,-35 356,-100 534,-213 175,-113 345,-277 485,-480 140,-205 251,-450 316,-676 67,-226 88,-431 104,-648 15,-220 28,-452 36,-645 12,-264 21,-477 21,-741l0 -146c0,-461 0,-921 0,-1382 65,61 130,122 211,178 86,59 193,111 312,145 117,33 249,46 395,64 147,21 310,46 446,92 138,47 247,111 335,185 89,73 156,152 205,257 46,103 73,228 98,352 77,-86 153,-174 201,-291 48,-117 66,-264 56,-404 -12,-140 -54,-274 -130,-394 -73,-119 -177,-223 -316,-322 -138,-96 -309,-184 -474,-255 -166,-71 -323,-126 -458,-189 -134,-60 -245,-129 -337,-211 -92,-82 -165,-176 -218,-255 -50,-78 -77,-141 -104,-203 102,77 205,155 364,219 161,63 376,113 583,187 207,73 402,167 542,255 142,90 228,176 287,260 60,83 94,165 119,242 27,78 46,149 63,220 39,-88 77,-176 104,-295 29,-119 46,-268 38,-414 -9,-149 -44,-293 -94,-423 -53,-130 -119,-243 -208,-345 -85,-103 -192,-195 -324,-281 -131,-86 -288,-163 -435,-230 -144,-65 -278,-122 -399,-189 -120,-69 -228,-148 -323,-240 -96,-90 -179,-193 -240,-283 -61,-90 -98,-171 -136,-251 88,71 176,142 345,216 168,75 416,152 630,245 215,92 395,198 537,320 145,123 251,261 325,374 75,116 115,203 146,279 29,75 48,138 67,198 55,-175 107,-353 140,-544 36,-188 51,-391 21,-567 -27,-173 -100,-320 -205,-454 -105,-136 -240,-259 -418,-377 -178,-115 -400,-226 -594,-322 -195,-96 -364,-182 -548,-301 -605,-392 -1145,-942 -1615,-1482 0,2199 0,4399 0,6599zm891 6l0 0 0 168c0,366 -15,726 -36,1090 -10,230 -23,412 -54,592 -29,182 -75,364 -155,557 -79,191 -192,396 -324,553 -132,157 -285,267 -435,349 -149,80 -297,130 -461,149 -161,16 -336,2 -481,-48 -144,-53 -259,-141 -341,-237 -83,-94 -131,-197 -163,-299 -31,-103 -46,-205 -31,-314 15,-109 54,-224 121,-333 67,-111 159,-216 272,-304 115,-87 251,-159 381,-205 129,-48 255,-71 366,-81 113,-13 215,-11 291,-6 75,2 127,10 177,16 91,-397 97,-785 97,-1191l0 -473c0,-2086 0,-4175 0,-6262 372,421 776,796 1240,1128 134,97 283,191 438,274 154,84 334,168 491,243 155,76 287,143 412,224 126,84 245,183 343,295 98,113 174,241 214,375 41,136 48,278 33,423 -12,146 -44,297 -75,448 -36,-82 -71,-163 -141,-266 -66,-103 -167,-226 -282,-333 -117,-107 -249,-195 -416,-276 -169,-82 -375,-157 -548,-222 -176,-65 -320,-119 -446,-195 -125,-77 -234,-171 -343,-268 17,109 32,216 67,316 34,101 86,191 144,277 59,86 122,163 205,245 86,81 191,165 302,234 113,69 230,122 361,180 132,61 281,128 398,191 119,64 209,125 297,203 86,75 169,169 236,276 70,107 120,226 153,341 31,113 46,220 44,322 -4,105 -23,205 -42,306 -27,-69 -52,-136 -100,-210 -50,-71 -122,-146 -207,-215 -84,-67 -182,-128 -295,-186 -115,-57 -245,-109 -398,-159 -154,-49 -332,-97 -470,-149 -140,-52 -243,-109 -345,-180 -101,-69 -203,-153 -304,-236 21,121 40,244 92,368 52,123 134,245 228,345 96,101 203,180 312,241 107,61 215,105 333,153 117,48 242,98 357,153 115,54 222,112 320,179 101,70 195,149 262,227 65,79 100,156 127,232 28,75 44,151 47,234 2,84 -9,178 -28,249 -19,71 -44,118 -69,164 -10,-55 -21,-109 -46,-166 -25,-54 -63,-111 -109,-169 -46,-57 -100,-115 -186,-176 -83,-59 -199,-119 -324,-159 -128,-42 -266,-63 -412,-82 -147,-19 -301,-33 -433,-71 -132,-40 -239,-103 -372,-209 -88,-69 -187,-157 -289,-251 0,538 0,1075 0,1611z"/>
  </g>
 </g>
</svg>
