<?xml version="1.0" encoding="UTF-8"?>
<!DOCTYPE svg PUBLIC "-//W3C//DTD SVG 1.1//EN" "http://www.w3.org/Graphics/SVG/1.1/DTD/svg11.dtd">
<!-- Creator: CorelDRAW X8 -->
<svg xmlns="http://www.w3.org/2000/svg" xml:space="preserve" width="8.5in" height="11in" version="1.1" style="shape-rendering:geometricPrecision; text-rendering:geometricPrecision; image-rendering:optimizeQuality; fill-rule:evenodd; clip-rule:evenodd"
viewBox="0 0 8500 11000"
 xmlns:xlink="http://www.w3.org/1999/xlink">
 <defs>
  <style type="text/css">
   <![CDATA[
    .fil0 {fill:#090968}
   ]]>
  </style>
 </defs>
 <g id="Layer_x0020_1">
  <metadata id="CorelCorpID_0Corel-Layer"/>
  <g id="_68751680016">
   <path class="fil0" d="M7176 4897c5,-26 23,-13 23,0 67,20 -83,-220 -134,-289 -81,-110 -213,-195 -244,-289 -227,-81 -360,-336 -623,-423 -363,-120 -791,-90 -1112,-289 -60,1177 147,2334 111,3581 -19,666 -16,1354 -245,1868 -30,68 -154,121 -133,267 -493,515 -930,1087 -1824,1201 10,49 110,9 156,22 -447,77 -1044,130 -1468,-45 -138,-57 -225,-181 -356,-289 -265,-217 -314,-205 -400,-556 -39,-158 -138,-298 -134,-422 3,-92 57,-110 89,-200 54,-151 68,-274 156,-423 365,-619 1114,-1036 2046,-956 365,31 626,190 867,422 145,-1010 63,-2206 45,-3314 6,-82 -69,15 -89,-66 5,-602 30,-1299 22,-1980 -11,-63 -33,36 -44,45 30,-777 -31,-1671 89,-2380 335,118 278,409 467,623 589,665 1581,879 2268,1445 588,484 1104,1192 979,2358 -173,131 -129,479 -311,600 -80,-157 -47,-427 -201,-511zm-5248 3158l0 0c-258,-32 -381,371 -601,378 -235,276 -433,617 -334,1068 84,376 533,677 823,822 2,61 -37,45 0,89 447,193 836,31 1179,-44 158,-35 339,-42 467,-89 728,-265 1172,-905 1446,-1579 13,-72 -15,-104 -22,-156 82,24 43,-75 89,-89 24,-568 -5,-1399 -23,-1935 99,-129 48,-267 45,-400 -18,-716 -12,-1650 -89,-2513 126,-35 -8,-197 133,-223 72,40 76,147 178,156 417,124 877,206 1312,311 2,61 -37,45 0,89 205,70 289,260 467,356 146,262 350,466 423,801 115,-136 -110,-228 22,-356 13,39 -27,131 23,134 17,-155 65,-441 66,-579 0,-41 -47,-77 -44,-111 7,-91 51,-160 44,-245 -43,-542 -630,-884 -823,-1312 -94,55 -86,-79 -200,-66 -342,-398 -901,-462 -1357,-757 -209,-136 -464,-255 -622,-444 -192,-229 -263,-484 -467,-735 -78,928 -43,1873 0,2781 80,1731 182,3398 66,5004 -313,-206 -646,-391 -1045,-512 -104,-19 31,58 -44,67 -488,-113 -940,104 -1313,245 121,-139 372,-148 512,-267 -144,-72 -229,53 -311,111zm3536 -6161l0 0c-68,-22 -144,-151 -223,-89 98,-7 154,142 223,89zm-3203 6050l0 0c48,32 174,-48 267,-45 -3,-26 4,-63 -22,-66 -63,48 -315,1 -245,111z"/>
   <path class="fil0" d="M4174 1405c111,-8 155,52 267,44 437,616 1365,829 1935,1313 163,138 431,372 511,578 66,171 73,303 178,445 -87,-35 -46,57 -89,66 -85,-53 -73,-165 -244,-133 6,-30 55,-19 89,-22 -185,-268 -533,-372 -935,-423 -59,-15 -43,46 -66,67 -387,-95 -775,-189 -1090,-356 -26,1757 31,3360 44,5160 -63,-3 -40,-93 -44,-156 -72,90 -19,238 0,356 -113,131 -194,473 -89,623 -33,67 -100,-17 -89,-67 -197,306 -401,676 -734,845 -123,63 -277,38 -356,178 -112,-28 -311,4 -356,111 -134,-44 -253,13 -422,0 -504,-39 -1040,-232 -1135,-689 -140,-681 633,-1240 1357,-1157 148,17 287,98 445,89 149,252 549,252 689,512 319,-378 374,-1020 356,-1735 -35,173 -55,13 -66,-156 -59,-882 82,-2040 -23,-2824 -117,-881 -17,-1707 -66,-2469 2,-91 -89,-89 -67,-200zm356 689l0 0c19,-66 -87,-172 -156,-222 23,103 103,149 156,222zm22 201l0 0c-47,-117 -108,-218 -200,-290 7,156 123,203 200,290zm556 489l0 0c-186,-222 -339,-477 -534,-690 141,253 355,550 534,690zm356 289l0 0c-223,-288 -472,-670 -712,-867 242,284 428,624 712,867zm-868 -511l0 0c-82,-154 -111,-228 -222,-356 11,70 -40,78 -22,155 135,6 151,130 200,223 80,45 110,-103 67,-45 -2,14 -4,27 -23,23zm1135 578l0 0c-300,-242 -507,-695 -801,-868 272,270 458,743 801,868zm-23 -156l0 0c-185,-178 -343,-502 -533,-600 179,183 332,512 533,600zm-533 45l0 0c-150,-221 -325,-417 -490,-623 139,232 260,481 490,623zm867 200l0 0c60,-14 177,28 200,-22 -227,-121 -379,-437 -556,-534 102,181 343,337 378,511 -279,-187 -459,-593 -711,-734 221,268 441,538 689,779zm-1379 -534l0 0c3,-27 7,-53 45,-45 34,74 20,112 44,156 6,-78 83,56 89,-22 -50,-54 -86,-122 -133,-178 -61,-2 -45,37 -89,0 -7,51 5,84 44,89zm-44 156l0 0c-31,-2 -24,-57 22,-45 -31,-73 -58,-150 -133,-178 -26,43 62,256 111,223zm0 422l0 0c-37,-156 -86,-299 -178,-400 39,154 85,300 178,400zm-89 223l0 0c-70,-49 -60,-178 -134,-223 47,198 89,401 200,534 -3,-129 -68,-337 23,-423 -115,-92 -108,-307 -223,-400 16,185 137,382 134,512zm66 600l0 0c34,-163 -88,-354 -155,-489 -13,142 95,347 155,489zm-111 289l0 0c-53,-104 -3,-236 -66,-289 -3,121 7,230 66,289zm111 -111l0 0c-7,-52 4,-85 23,-111 -39,1 -70,-5 -89,-22 -1,67 20,113 66,133zm0 423l0 0c14,-133 -77,-161 -66,-290 -22,0 -45,0 -67,0 64,77 35,247 133,290zm45 600l0 0c-47,-191 -89,-385 -178,-534 28,195 107,456 178,534zm0 200l0 0c-28,-150 -87,-269 -156,-378 -4,183 61,295 156,378zm-111 245l0 0c41,45 -1,-165 -45,-178 -6,80 41,107 45,178zm111 400l0 0c-18,-117 2,-193 -89,-267 32,87 9,229 89,267zm-45 312l0 0c-69,-64 -50,-217 -111,-289 -10,129 33,322 111,289zm23 333l0 0c1,-105 11,-219 -67,-244 13,90 10,197 67,244zm22 401l0 0c13,209 32,-78 22,-156 -108,-78 -64,-306 -178,-378 38,192 91,369 156,534zm22 422l0 0c-4,-247 -71,-488 -178,-689 41,248 90,489 178,689zm-22 356l0 0c-3,-175 11,-367 -111,-423 20,158 74,282 111,423zm-133 -556l0 0c2,55 3,107 -23,133 96,16 73,-115 23,-133zm111 734l0 0c-35,-106 -18,-264 -111,-311 37,103 31,250 111,311zm-45 267l0 0c40,-115 0,-221 -66,-289 30,104 -13,203 66,289zm-66 133l0 0c-7,-67 24,-173 -45,-178 7,68 -25,173 45,178zm-1113 934l0 0c-218,-226 -431,-522 -644,-756 -31,-1 -49,11 -67,22 -38,-55 -168,-318 -289,-289 415,385 692,909 1156,1246 36,-114 -96,-161 -156,-223zm-444 -867l0 0c-114,1 -111,-230 -223,-156 111,2 124,216 223,156zm422 178l0 0c-90,-117 -213,-202 -267,-356 -33,4 -82,-8 -89,22 120,96 229,319 356,334zm-956 -178l0 0c-42,-42 -75,-135 -134,-111 411,397 676,940 1157,1267 -306,-377 -689,-821 -1023,-1156zm200 -133l0 0c0,22 0,44 0,66 154,104 102,1 0,-66zm667 1356l0 0c-298,-428 -698,-947 -1134,-1312 345,471 760,871 1134,1312zm401 -889l0 0c-144,-116 -203,-317 -379,-401 113,133 240,368 379,401zm556 -178l0 0c-11,-44 59,-114 66,-67 -3,101 -18,87 0,178 123,-8 63,-281 0,-311 7,81 -137,128 -66,200zm-2291 -134l0 0c-2,35 -57,18 -45,67 159,-58 325,304 467,467 203,232 414,441 556,600 -275,-428 -600,-808 -978,-1134zm1623 957l0 0c29,20 132,86 156,22 -330,-264 -654,-769 -912,-957 262,243 481,737 756,935zm245 -45l0 0c-276,-243 -583,-691 -801,-845 236,298 498,688 801,845zm-1134 -200l0 0c142,183 293,405 511,511 -299,-368 -640,-812 -978,-1067 184,159 316,362 467,556zm-645 -356l0 0c10,23 -14,68 0,89 178,281 508,517 712,756 -234,-337 -507,-635 -779,-934 12,32 -26,115 22,111 -1,-41 17,-47 45,-22zm89 289l0 0c-41,-89 -205,-279 -223,-244 72,83 148,163 223,244zm2046 -133l0 0c30,-29 39,-133 -22,-134 12,39 -27,131 22,134zm-156 267l0 0c-141,-59 -233,-286 -356,-290 127,74 212,308 356,290zm89 -67l0 0c-4,-91 -213,-193 -178,-178 43,76 121,116 178,178zm-1957 44l0 0c-89,-30 -149,-205 -222,-178 94,25 139,216 222,178zm111 356l0 0c-72,-99 -264,-388 -400,-422 146,128 219,329 400,422zm134 -44l0 0c-30,-87 -175,-278 -223,-200 101,40 114,167 223,200zm200 155l0 0c-76,-28 -85,-123 -178,-133 9,81 100,195 178,133zm467 45l0 0c-10,-64 -47,-101 -111,-111 -4,78 78,70 111,111z"/>
  </g>
 </g>
</svg>
