<?xml version="1.0" encoding="UTF-8"?>
<!DOCTYPE svg PUBLIC "-//W3C//DTD SVG 1.1//EN" "http://www.w3.org/Graphics/SVG/1.1/DTD/svg11.dtd">
<!-- Creator: CorelDRAW X8 -->
<svg xmlns="http://www.w3.org/2000/svg" xml:space="preserve" width="8.5in" height="11in" version="1.1" style="shape-rendering:geometricPrecision; text-rendering:geometricPrecision; image-rendering:optimizeQuality; fill-rule:evenodd; clip-rule:evenodd"
viewBox="0 0 8500 11000"
 xmlns:xlink="http://www.w3.org/1999/xlink">
 <defs>
  <style type="text/css">
   <![CDATA[
    .fil0 {fill:black}
   ]]>
  </style>
 </defs>
 <g id="Layer_x0020_1">
  <metadata id="CorelCorpID_0Corel-Layer"/>
  <path class="fil0" d="M5653 273l-610 0 0 2409 -1586 782 0 -3191 -610 0 0 3492 -1215 597 0 1387 1215 -600 0 2081 -1215 597 0 1388 1215 -597 0 2109 610 0 0 -2409 1586 -783 0 3192 610 0 0 -3492 1215 -597 0 -1388 -1215 601 0 -2081 1215 -602 0 -1383 -1215 596 0 -2108zm-2196 6657l0 0 0 -2082 1586 -782 0 2081 -1586 783z"/>
 </g>
</svg>
