<?xml version="1.0" encoding="UTF-8"?>
<!DOCTYPE svg PUBLIC "-//W3C//DTD SVG 1.1//EN" "http://www.w3.org/Graphics/SVG/1.1/DTD/svg11.dtd">
<!-- Creator: CorelDRAW X8 -->
<svg xmlns="http://www.w3.org/2000/svg" xml:space="preserve" width="8.5in" height="11in" version="1.1" style="shape-rendering:geometricPrecision; text-rendering:geometricPrecision; image-rendering:optimizeQuality; fill-rule:evenodd; clip-rule:evenodd"
viewBox="0 0 8500 11000"
 xmlns:xlink="http://www.w3.org/1999/xlink">
 <defs>
  <style type="text/css">
   <![CDATA[
    .fil0 {fill:black}
   ]]>
  </style>
 </defs>
 <g id="Layer_x0020_1">
  <metadata id="CorelCorpID_0Corel-Layer"/>
  <g id="_105083314288">
   <polygon class="fil0" points="1154,10749 2325,10749 2325,251 1154,251 "/>
   <path class="fil0" d="M3124 251l-373 0 0 10498 373 0 0 -4723c89,35 177,76 266,133 142,89 284,222 373,346 93,125 137,235 164,347 26,111 40,217 49,319 159,-133 323,-270 506,-359 186,-85 399,-120 616,-125 217,0 448,27 661,102 213,80 413,209 563,369 156,160 262,350 333,577 71,226 111,484 102,714 -13,236 -75,444 -150,627 -81,182 -169,341 -271,470 -107,133 -226,240 -373,315 -146,76 -324,115 -479,115 -124,5 -231,-22 -337,-48 102,-147 164,-324 164,-520 0,-501 -408,-910 -909,-910 -506,0 -910,409 -910,910 0,147 31,280 89,400 97,200 248,364 426,497 155,111 372,231 599,315 230,80 465,120 732,120 266,4 559,-27 829,-155 271,-125 524,-346 714,-622 191,-275 320,-608 395,-954 76,-346 89,-706 45,-1048 -49,-341 -160,-665 -324,-945 -169,-284 -395,-529 -643,-701 -244,-174 -515,-271 -759,-320 -249,-45 -479,-40 -634,-18 -160,22 -253,58 -342,93 -80,-137 -160,-275 -253,-395 -58,-62 -116,-120 -177,-177 61,-53 119,-111 177,-178 93,-115 173,-253 253,-395 89,40 182,76 342,98 155,18 385,27 634,-22 244,-45 515,-142 759,-316 248,-173 474,-417 643,-701 164,-284 275,-604 324,-945 44,-342 31,-702 -45,-1052 -75,-346 -204,-675 -395,-955 -190,-275 -443,-492 -714,-617 -270,-129 -563,-159 -829,-159 -267,4 -502,44 -732,124 -227,80 -444,204 -599,315 -178,133 -329,297 -426,497 -58,120 -89,253 -89,395 0,506 404,910 910,910 501,0 909,-404 909,-910 0,-191 -62,-368 -164,-515 106,-31 213,-53 337,-53 155,5 333,44 479,120 147,75 266,182 373,311 102,133 190,292 271,474 75,183 137,391 150,622 9,235 -31,493 -102,719 -71,222 -177,417 -333,577 -150,160 -350,289 -563,369 -213,75 -444,101 -661,97 -217,-4 -430,-35 -616,-124 -183,-85 -347,-222 -506,-360 -9,107 -23,213 -49,324 -27,107 -71,222 -164,346 -89,120 -231,254 -373,347 -89,57 -177,97 -266,133l0 -4723z"/>
  </g>
 </g>
</svg>
