<?xml version="1.0" encoding="UTF-8"?>
<!DOCTYPE svg PUBLIC "-//W3C//DTD SVG 1.1//EN" "http://www.w3.org/Graphics/SVG/1.1/DTD/svg11.dtd">
<!-- Creator: CorelDRAW X8 -->
<svg xmlns="http://www.w3.org/2000/svg" xml:space="preserve" width="8.5in" height="11in" version="1.1" style="shape-rendering:geometricPrecision; text-rendering:geometricPrecision; image-rendering:optimizeQuality; fill-rule:evenodd; clip-rule:evenodd"
viewBox="0 0 8500 11000"
 xmlns:xlink="http://www.w3.org/1999/xlink">
 <defs>
  <style type="text/css">
   <![CDATA[
    .fil0 {fill:#090968}
   ]]>
  </style>
 </defs>
 <g id="Layer_x0020_1">
  <metadata id="CorelCorpID_0Corel-Layer"/>
  <g id="_68802585552">
   <path class="fil0" d="M3349 337c116,38 34,268 28,489 -52,2205 0,4567 0,6755 0,990 -116,2156 58,2874 -95,88 -308,56 -460,87 -12,-86 28,-371 -29,-317 -45,86 -21,-94 29,-86 35,-2843 -24,-6153 58,-8566 15,-453 -202,-1344 316,-1236zm-230 1064l0 0c1,96 -2,141 0,201 9,343 12,1 29,-230 19,-276 11,-720 0,-863 -79,171 -3,591 -29,892zm29 1897l0 0c47,-309 47,-966 0,-1179 2,330 -83,892 0,1179zm143 373l0 0c0,-76 0,-153 0,-229 -88,20 -117,239 0,229zm-28 1064l0 0c-13,-254 78,-456 0,-719 -48,159 -48,656 0,719zm-58 4398l0 0c-6,-175 90,-534 0,-604 29,212 -89,428 0,604z"/>
   <path class="fil0" d="M4364 330c252,-71 695,163 949,0 243,92 8,660 172,892 -89,457 -121,1196 29,1638 -180,395 -99,1208 -29,1696 14,90 -36,118 -86,144 96,498 -55,1243 86,1696 21,117 -93,99 -57,230 -27,132 71,139 57,258 -106,201 -39,574 -57,863 -45,102 97,17 86,86 -75,203 -161,670 -29,891 -67,172 -127,681 29,805 -110,322 -26,419 -58,805 -44,121 160,-6 115,115 -259,219 -694,218 -1063,115 -103,-19 -30,201 -144,86 -134,-21 74,-376 -86,-431 117,-1128 -10,-2383 29,-3852 -92,71 -114,213 -173,316 -58,-167 134,-281 173,-488 81,-440 -55,-1016 -29,-1466 -34,4 -24,52 -29,86 55,-1136 -31,-2607 29,-3967 6,-146 -37,-309 0,-403 20,-50 144,-43 86,-115zm86 1811l0 0c126,-3 75,-170 0,-201 0,67 0,134 0,201zm489 -28l0 0c-21,-89 79,-56 57,-144 -28,0 -57,0 -86,0 -15,73 -38,101 29,144zm-115 230l0 0c12,-64 66,-156 -29,-173 -12,64 -66,156 29,173zm431 -29l0 0c4,-71 6,-140 -57,-144 -60,57 -1,123 57,144zm-57 144l0 0c45,-46 -14,-132 -87,-144 -5,82 -3,157 87,144zm-259 57l0 0c-17,-50 35,-169 -29,-172 -39,36 -50,172 29,172zm-489 115l0 0c60,-32 116,-274 -28,-259 17,78 -37,228 28,259zm259 -29l0 0c22,-63 60,-112 57,-201 -28,0 -57,0 -86,0 -39,39 -55,201 29,201zm287 -28l0 0c5,43 -10,106 29,115 10,-77 72,-101 86,-173 -93,-35 -22,93 -115,58zm-230 201l0 0c88,3 124,-192 29,-201 -9,67 -45,108 -29,201zm-143 0l0 0c6,-22 1,-57 28,-58 5,-72 -44,-90 -86,-115 -20,68 -66,183 58,173zm-230 230l0 0c102,-45 17,97 86,86 23,-92 85,-145 86,-259 -45,-2 -22,-73 -86,-57 38,143 -88,122 -86,230zm575 29l0 0c-6,-75 91,-193 28,-230 -35,113 -89,21 -115,-29 -87,89 -15,208 87,259zm-317 -87l0 0c97,20 106,-48 115,-115 -36,-1 -39,-36 -86,-28 12,69 -52,62 -29,143zm230 288l0 0c33,-119 -8,-185 -86,-259 -16,135 -25,202 86,259zm-373 -86l0 0c-5,72 44,90 86,115 -5,-91 76,-97 57,-202 -45,-2 -22,-73 -86,-57 17,68 44,134 -57,144zm575 86l0 0c44,-41 28,-150 -58,-144 -46,43 1,121 58,144zm-575 603l0 0c136,-20 141,-145 115,-258 -74,-31 -137,87 -173,0 96,-123 35,-335 -57,-431 -20,340 22,512 115,689zm632 -459l0 0c78,-47 138,-112 144,-230 -103,21 -94,155 -144,230zm-517 28l0 0c113,-5 -10,44 57,87 159,-5 58,-139 144,-173 -44,-32 -71,-83 -115,-115 -32,64 -48,144 -86,201zm258 -86l0 0c68,9 65,89 115,115 -6,-54 33,-63 29,-115 -43,-33 -121,-101 -144,0zm-28 374l0 0c8,-78 37,-136 86,-173 -69,12 16,-131 -86,-86 -51,80 -148,213 0,259zm460 143l0 0c11,-116 -11,-200 -115,-201 -41,55 50,163 115,201zm-604 173l0 0c21,-67 73,-215 -58,-201 -6,44 -83,194 58,201zm259 -86l0 0c9,-39 41,-55 28,-115 -28,0 -57,0 -86,0 -8,65 7,108 58,115zm-489 143l0 0c-3,-102 -13,-197 -86,-230 -8,114 11,200 86,230zm604 29l0 0c54,-55 3,-72 0,-144 36,2 39,37 86,29 36,-83 15,-131 -86,-144 35,125 -144,199 0,259zm-173 -29l0 0c-3,-73 -5,-148 -86,-143 -14,90 36,117 86,143zm-86 173l0 0c6,-22 1,-57 29,-58 -4,-53 -19,-96 -58,-115 -67,54 -55,133 29,173zm489 29l0 0c-21,-66 51,-225 -58,-202 -59,63 -10,179 58,202zm-317 0l0 0c24,-34 38,-77 29,-144 -105,-28 -114,141 -29,144zm-28 201l0 0c6,-102 -20,-172 -87,-201 -13,109 13,179 87,201zm-259 0l0 0c46,-43 -1,-121 -58,-144 -45,43 1,121 58,144zm431 57l0 0c12,-54 62,-72 58,-143 -37,-2 -40,-37 -87,-29 -39,37 -50,172 29,172zm-345 58l0 0c-1,-30 -37,-23 -29,29 72,-4 89,-54 144,0 2,-88 -26,-147 -86,-173 -16,42 34,149 -29,144zm-172 86l0 0c-4,-73 -6,-148 -86,-144 26,50 -1,155 86,144zm-201 58l0 0c39,-37 50,-172 -29,-173 16,51 -35,169 29,173zm776 -87l0 0c32,73 47,163 115,201 -28,-87 61,-291 -58,-287 2,50 -22,74 -57,86zm-374 144l0 0c-59,-18 -8,-145 -115,-115 6,54 74,191 115,115zm201 29l0 0c49,-48 23,-169 -86,-144 10,67 29,124 86,144zm58 143l0 0c110,23 110,-137 0,-115 0,39 0,77 0,115zm-489 202l0 0c120,31 120,-204 0,-173 -63,60 14,82 0,173zm-86 258l0 0c39,-49 120,-237 -29,-229 -17,63 -72,214 29,229zm230 -57l0 0c12,-55 62,-72 57,-144 -36,-1 -40,-37 -86,-28 -40,36 -50,171 29,172zm-144 287l0 0c29,-79 152,-203 0,-230 -22,63 -113,203 0,230zm-172 87l0 0c12,55 10,123 86,115 -16,-42 33,-149 -29,-144 -6,22 -24,33 -57,29zm316 575l0 0c-13,-55 39,-174 -58,-144 -18,70 -58,148 58,144zm-87 201l0 0c31,-78 19,-135 -57,-173 -47,47 -35,181 57,173zm115 230l0 0c47,-47 35,-181 -57,-173 -31,78 -18,135 57,173zm-172 287l0 0c253,-89 -35,-279 -57,-431 -41,117 -11,289 57,431zm517 -201l0 0c68,19 134,-170 29,-144 12,69 -52,63 -29,144zm-488 747l0 0c89,-6 89,-102 115,-172 -29,0 -58,0 -87,0 1,68 -49,85 -28,172zm-58 288l0 0c21,-67 79,-245 -57,-230 -2,98 -9,200 57,230zm-115 517l0 0c-9,-69 25,-328 -28,-258 9,69 -25,328 28,258zm230 316l0 0c61,-41 92,-196 -29,-201 -15,63 -69,186 29,201zm-143 432l0 0c67,-33 19,-190 -29,-202 5,110 -74,190 29,202zm-87 86l0 0c-8,-62 22,-307 -28,-230 7,61 -23,307 28,230zm115 546l0 0c-12,-55 -10,-124 -86,-115 -8,75 -10,144 86,115zm86 201l0 0c40,-37 50,-172 -28,-172 11,87 -76,146 28,172zm-201 144l0 0c83,36 131,15 144,-86 -59,-60 -146,0 -144,86z"/>
   <path class="fil0" d="M4297 4908c-399,74 -669,-191 -575,-489 155,-487 1027,95 575,489zm-316 -144l0 0c48,0 96,0 144,0 -28,-54 86,-96 0,-115 -11,114 -153,-45 -144,115z"/>
   <path class="fil0" d="M3866 6546c-56,-89 31,-144 -86,-172 37,-282 163,-504 431,-460 484,78 230,984 -345,632zm115 -287l0 0c20,-67 96,-77 115,-144 -96,-27 -192,92 -115,144z"/>
  </g>
 </g>
</svg>
