<?xml version="1.0" encoding="UTF-8"?>
<!DOCTYPE svg PUBLIC "-//W3C//DTD SVG 1.1//EN" "http://www.w3.org/Graphics/SVG/1.1/DTD/svg11.dtd">
<!-- Creator: CorelDRAW X8 -->
<svg xmlns="http://www.w3.org/2000/svg" xml:space="preserve" width="8.5in" height="11in" version="1.1" style="shape-rendering:geometricPrecision; text-rendering:geometricPrecision; image-rendering:optimizeQuality; fill-rule:evenodd; clip-rule:evenodd"
viewBox="0 0 8500 11000"
 xmlns:xlink="http://www.w3.org/1999/xlink">
 <defs>
  <style type="text/css">
   <![CDATA[
    .fil0 {fill:#090968}
   ]]>
  </style>
 </defs>
 <g id="Layer_x0020_1">
  <metadata id="CorelCorpID_0Corel-Layer"/>
  <g id="_68754558128">
   <path class="fil0" d="M1784 3635c-377,181 -874,244 -1318,358 58,388 -41,675 97,960 -42,29 -33,108 -32,179 415,-133 1002,-180 1383,-293 50,67 -10,169 -16,261 -12,199 43,430 16,618 9,25 17,1 17,-16 31,471 32,909 32,1432 -533,40 -997,281 -1530,375 -7,-72 50,-54 17,-114 486,-116 937,-267 1448,-358 -54,-649 -67,-1428 -65,-2067 -446,58 -980,216 -1351,195 -84,-185 11,-624 -146,-684 111,-60 51,-334 16,-504 69,-7 77,-75 114,-114 425,-1 901,-228 1318,-228z"/>
   <path class="fil0" d="M2907 4286c-86,15 -201,-66 -293,-130 -143,-100 -262,-215 -423,-293 3,-19 -3,-29 -16,-33 -5,-20 47,-56 49,-16 218,167 442,328 683,472z"/>
   <path class="fil0" d="M3363 7737c-90,40 -185,-51 -260,-98 -241,-151 -525,-328 -765,-488 3,-29 28,-38 65,-33 287,239 617,435 960,619z"/>
   <path class="fil0" d="M5381 9348c-5,-43 23,-54 65,-49 5,43 -22,53 -65,49z"/>
   <path class="fil0" d="M2045 10031c-70,-407 -16,-939 -33,-1399 -533,-49 -1004,188 -1481,195 -108,-360 -77,-942 -130,-1302 183,122 113,396 114,586 0,184 44,373 48,570 467,38 1045,-166 1449,-245 34,37 99,42 130,82 -74,366 -36,976 33,1416 373,-40 694,-131 1058,-179 -75,-514 1,-1093 -65,-1595 651,-201 1412,-291 2067,-489 22,552 53,1236 81,1677 358,-4 749,-106 1042,-228 -88,-544 30,-1205 0,-1742 -95,9 -176,31 -244,66 54,148 13,126 0,293 11,59 116,25 113,97 -58,10 -78,-19 -113,-32 -6,386 3,844 49,1123 -217,21 -427,101 -635,81 -63,-423 -52,-1053 -65,-1514 -57,9 -50,81 -98,98 -654,45 -1255,145 -1823,277 121,50 237,-45 391,-17 -302,84 -672,99 -944,212 35,203 12,318 81,440 -32,-1 -21,-45 -65,-33 -51,352 143,725 -33,977 -240,-2 -404,73 -602,113 3,-95 -48,-136 -98,-179 8,-409 -39,-763 -48,-1155 -420,50 -1012,214 -1400,244 -31,-58 58,-113 -65,-81 -29,-211 -21,-457 -49,-668 403,-169 1044,-234 1530,-374 -49,-726 -129,-1630 -98,-2311 23,-83 -74,-45 -65,-114 29,-31 48,19 82,-17 -18,-91 -34,-183 -33,-293 -433,50 -784,182 -1237,212 -146,-146 -89,-427 -114,-667 83,-59 61,106 179,65 -20,-29 -94,-3 -65,-82 331,-146 841,-200 1204,-260 -57,-567 -25,-1114 -32,-1774 216,-41 504,-61 683,-49 -39,602 -16,1142 33,1709 812,-233 1820,-387 2718,-586 -21,-559 7,-1261 98,-1806 184,-41 432,-38 602,0 25,209 -101,602 0,781 24,62 -73,3 -49,65 86,135 -81,315 65,456 -149,90 -8,292 33,390 509,-34 969,-202 1465,-195 -26,58 55,10 49,49 12,66 -53,56 -98,65 -3,127 -21,271 81,293 -5,80 -42,-14 -81,0 -22,87 23,107 49,146 -50,51 -46,119 -131,163 58,40 151,-23 245,0 -557,117 -1123,224 -1693,326 -15,417 16,800 0,1253 -13,67 78,30 65,98 8,66 -41,-1 -65,0 37,180 -52,337 65,455 -23,36 -40,-20 -49,17 38,244 -38,438 33,634 -29,46 -56,140 0,179 451,-17 1035,-210 1530,-130 50,16 63,-86 97,-32 60,87 -45,338 65,374 -46,98 -38,229 0,309 -240,371 -1075,96 -1448,358 0,38 0,76 0,114 47,73 116,-40 130,33 -14,12 -37,17 -65,16 356,-23 718,-115 1123,-163 -65,-37 -200,-5 -293,-16 222,-70 464,-32 732,-65 -139,-311 48,-822 -48,-1139 -506,-81 -1116,81 -1579,97 -96,-662 -8,-1606 0,-2230 359,-164 935,-181 1416,-276 67,-14 123,-72 195,-49 2,-360 -28,-688 -16,-1058 -573,-22 -1038,232 -1579,163 -123,-525 -12,-1315 0,-1807 -351,88 -701,178 -1090,228 -54,544 -89,1196 -98,1725 -682,229 -1492,331 -2246,488 14,-87 28,-73 -65,-65 22,-492 -9,-1057 16,-1530 5,-91 25,-165 -33,-228 -305,61 -685,35 -943,131 -160,59 -135,130 -147,341 -20,367 -40,968 16,1351 -60,0 -36,83 -65,114 -73,-77 -73,-228 -81,-341 -33,-479 69,-993 49,-1433 14,-34 69,-28 65,-81 437,-10 828,-232 1237,-163 -10,507 -38,1332 0,1823 672,-179 1374,-329 2148,-407 -49,-604 20,-1134 82,-1693 15,-59 -80,-7 -49,-81 397,-123 853,-188 1286,-277 -15,628 -80,1270 -17,1807 341,-28 811,-140 1254,-163 140,-7 292,-17 406,65 -10,34 -82,5 -65,65 -18,377 32,821 0,1107 -78,-32 -74,-33 -97,49 -71,11 -92,-28 -163,-16 -293,94 -990,133 -1351,260 -32,582 6,1086 33,1644 25,58 -56,10 -49,49 25,121 4,289 32,407 454,-122 1070,-111 1595,-130 54,315 -41,779 65,1041 -119,17 -11,271 -16,277 -366,122 -863,157 -1286,212 -150,19 -294,94 -423,48 36,474 -53,1115 49,1514 -333,172 -813,196 -1221,293 11,-75 -9,-94 -65,-65 9,-546 -5,-1070 -49,-1563 -618,136 -1285,223 -1888,375 54,460 -1,1120 49,1579 -252,91 -855,187 -1123,244 -50,10 -55,-12 -146,-17zm3824 -8528l0 0c81,39 172,67 212,146 -56,12 -86,-86 -130,-32 55,26 69,93 146,97 -21,-103 36,-213 0,-276 -51,46 -194,1 -228,65zm-211 130l0 0c146,65 236,187 374,260 -96,-158 -262,-248 -374,-390 0,43 0,87 0,130zm277 0l0 0c-4,-83 -121,-140 -179,-114 77,20 101,94 179,114zm162 244l0 0c0,-32 0,-65 0,-98 -93,-14 -140,-76 -211,-114 57,85 120,162 211,212zm-65 326l0 0c-7,-46 61,40 65,-17 -103,-187 -388,-181 -407,-390 117,62 220,225 342,228 -128,-117 -253,-235 -390,-342 -3,84 10,184 -17,244 134,33 193,213 342,179 -33,43 98,49 65,98zm65 -163l0 0c8,-57 -78,-105 -97,-82 46,14 45,75 97,82zm-488 228l0 0c150,61 224,199 391,244 -89,-144 -251,-216 -342,-358 129,-35 218,193 342,163 -21,-7 -34,-21 -33,-49 46,19 61,69 114,81 -124,-153 -311,-242 -456,-374 4,107 -28,177 -16,293zm-3092 -114l0 0c33,53 64,110 146,114 -16,-75 -31,-126 33,-163 -72,-51 -84,72 -179,49zm32 195l0 0c-36,-7 -58,-29 -65,-65 119,-10 75,142 179,146 -9,-125 -188,-301 -342,-227 72,33 186,190 228,146zm114 260l0 0c-15,-47 -15,-50 0,-97 -192,-68 -262,-259 -472,-309 113,179 316,270 472,406zm0 180l0 0c16,-115 -99,-176 -163,-228 -110,-91 -228,-170 -309,-261 -1,-10 -2,-19 -16,-16 63,268 285,376 488,505zm2946 -180l0 0c133,122 289,221 472,293 0,-37 0,-75 0,-113 -170,-115 -347,-127 -456,-310 130,-45 224,166 326,147 -121,-91 -213,-211 -342,-293 0,92 0,184 0,276zm472 -81l0 0c12,-115 -129,-163 -179,-163 64,51 117,111 179,163zm-3597 244l0 0c-63,-91 -196,-217 -325,-293 59,137 214,263 325,293zm33 212l0 0c38,40 30,-24 81,-16 2,21 -66,49 -16,65 2,-77 23,17 65,0 -6,-54 -49,-71 -82,-98 3,29 -16,38 -48,33 -89,-150 -238,-240 -358,-359 73,171 247,242 358,375zm130 195l0 0c-118,-186 -330,-278 -472,-439 55,175 295,386 472,439zm3011 -358l0 0c143,43 117,177 277,163 -28,81 132,103 179,163 0,-55 0,-109 0,-163 -167,-67 -302,-165 -456,-244 0,27 0,54 0,81zm-3125 49l0 0c70,-68 46,32 130,32 -9,-61 -63,-77 -114,-97 4,31 -18,36 -16,65zm3548 293l0 0c-174,-24 -312,-217 -472,-309 -5,59 3,106 16,146 242,111 477,316 700,391 -99,-59 -201,-113 -244,-228zm667 439l0 0c7,24 20,28 0,49 43,-17 109,-10 131,-49 -266,-97 -510,-304 -749,-374 195,136 388,274 618,374zm-4459 -618l0 0c-38,-31 -93,-81 -114,-65 134,169 303,304 472,439 -42,-156 -249,-283 -358,-374zm-130 114l0 0c167,125 315,270 488,390 0,-32 0,-65 0,-97 -205,-88 -324,-263 -488,-391 0,33 0,65 0,98zm4948 0l0 0c110,47 198,117 309,163 -14,-84 -117,-79 -114,-179 116,8 168,81 276,97 81,-313 -321,-104 -471,-81zm-1368 65l0 0c-45,-23 -120,-142 -162,-65 150,50 217,184 406,195 88,79 211,158 326,228 113,69 246,180 374,130 -360,-107 -610,-408 -944,-488zm1026 -49l0 0c24,3 60,-6 65,16 -24,3 -60,-5 -65,17 176,46 342,189 504,195 -149,-93 -281,-357 -504,-228zm276 244l0 0c-184,-141 -438,-303 -699,-195 155,51 322,226 471,179 124,82 298,270 472,195 -235,-69 -437,-255 -667,-276 -5,-58 -124,-60 -81,-114 165,63 364,178 504,211zm-1481 -179l0 0c59,30 -22,51 -32,65 24,14 51,25 49,65 337,95 532,389 895,407 -166,-125 -369,-289 -570,-325 -1,-45 27,-33 0,-65 -155,32 -191,-167 -342,-147zm651 17l0 0c53,17 158,139 196,65 -58,23 -127,-158 -196,-65zm1221 276l0 0c-122,-3 -224,-112 -309,-98 128,71 252,214 439,131 0,-38 0,-76 0,-114 -149,-68 -282,-152 -423,-228 33,168 260,141 293,309zm146 -163l0 0c0,-27 0,-54 0,-81 -76,6 -133,-94 -195,-49 66,43 118,99 195,130zm-5419 -32l0 0c169,107 343,296 504,358 -107,-213 -322,-318 -504,-456 0,33 0,65 0,98zm3906 553l0 0c0,-27 0,-54 0,-81 -264,-123 -514,-244 -700,-407 151,26 288,184 439,195 -16,0 -20,-28 0,-32 151,52 286,286 456,211 -196,-70 -341,-190 -521,-276 -29,43 72,31 17,48 -119,-60 -193,-165 -310,-227 -77,14 -98,86 -179,97 -8,-71 -132,-11 -162,0 49,15 126,-23 130,0 -2,26 -42,13 -33,49 186,102 371,204 554,309 -51,-101 -238,-153 -245,-244 173,131 328,280 554,358zm1025 -260l0 0c-229,-85 -421,-208 -651,-293 185,110 408,350 651,293zm-3890 667l0 0c-174,-70 -253,-235 -439,-293 -148,-205 -441,-265 -570,-488 105,70 166,123 293,211 71,50 156,138 212,163 16,7 66,-8 81,0 224,127 475,447 700,375 -200,-74 -435,-361 -635,-391 -66,-10 -35,-3 -81,-33 -26,-16 -68,11 -82,0 -35,-27 -55,-118 -114,-162 -119,-90 -286,-172 -406,-261 6,111 -15,161 0,244 286,229 601,430 895,651 -349,-145 -576,-411 -895,-586 -4,37 -4,208 0,245 232,136 419,317 651,455 134,-55 331,-48 472,-97 3,-54 -137,-119 -82,-33zm1774 -797l0 0c61,31 136,48 163,114 32,4 32,-22 49,-33 79,138 258,175 391,260 -44,-88 -200,-127 -196,-211 -136,27 -246,-277 -407,-130zm-97 -17l0 0c-109,44 -273,31 -375,82 262,123 514,256 749,407 39,-10 118,20 130,-17 -166,-68 -349,-271 -504,-244 -1,-22 7,-36 16,-49 -78,38 -147,-23 -147,-114 309,83 480,370 814,375 -191,-208 -512,-201 -683,-440zm-342 358l0 0c-53,-39 -151,-119 -147,-162 189,120 344,412 635,325 -246,-93 -613,-491 -879,-374 130,60 284,183 391,211zm537 163l0 0c49,-10 140,21 163,-16 -245,-114 -475,-242 -716,-358 158,151 390,228 553,374zm-1156 -325l0 0c108,60 206,130 326,179 -102,-66 -171,-264 -326,-179zm2132 390l0 0c0,-38 0,-76 0,-114 -230,-57 -425,-236 -618,-276 198,138 374,298 618,390zm-1871 -195l0 0c-128,-75 -314,-217 -456,-163 91,99 233,147 342,228 11,-40 -79,-59 -33,-81 67,72 218,109 179,195 97,-81 161,137 293,33 -109,-33 -197,-136 -325,-212zm553 163l0 0c-209,-100 -420,-285 -618,-342 183,116 376,392 618,342zm-1204 -293l0 0c29,73 112,94 179,130 -56,-128 21,-122 -179,-130zm-196 49l0 0c112,81 231,230 391,211 1,175 356,224 521,114 -181,-91 -356,-274 -537,-309 118,121 282,195 407,309 -212,15 -344,-187 -537,-244 -13,67 78,31 65,98 -122,-40 -146,-232 -310,-179zm-227 81l0 0c260,85 452,382 748,325 -254,-81 -465,-431 -748,-325zm520 374l0 0c-194,-147 -428,-255 -634,-390 -11,0 -22,0 -33,0 207,145 391,314 667,390zm2279 -81l0 0c25,58 -55,10 -49,49 68,35 96,110 179,130 0,-65 0,-130 0,-195 -165,-52 -268,-166 -439,-212 35,144 174,184 309,228zm-3792 -179l0 0c5,37 -47,18 -49,49 207,221 466,391 700,586 -16,-43 -32,-140 0,-179 -222,-148 -414,-324 -651,-456zm3385 114l0 0c147,168 356,360 537,439 -195,-147 -281,-403 -521,-504 4,31 -18,36 -16,65zm-504 2685l0 0c9,0 18,14 0,17 -9,0 -19,13 0,16 131,-25 304,-62 406,-65 -57,-99 -15,-149 -16,-293 -2,-741 -27,-1670 65,-2393 -797,163 -1665,255 -2392,489 -67,12 -56,-53 -131,-33 -31,34 -62,68 -113,81 69,477 -18,1002 32,1514 6,64 43,136 49,212 22,305 7,555 49,846 241,-31 413,-53 602,-114 -54,-81 -136,-135 -179,-228 -60,-11 -70,28 -130,17 5,-77 -85,-57 -98,-114 -85,-633 -56,-1194 -81,-1921 72,-44 46,-74 81,-147 725,-91 1297,-316 2035,-341 78,238 12,446 0,732 -19,416 54,922 0,1188 -24,115 -45,203 0,277 -526,104 -1215,185 -1791,293 64,93 137,178 228,244 448,-77 965,-236 1384,-277zm-2247 -2002l0 0c0,-38 0,-76 0,-114 -242,-196 -450,-428 -748,-569 -11,0 -22,0 -33,0 222,267 533,443 781,683zm-911 -651l0 0c133,160 337,249 505,375 -148,-136 -330,-321 -505,-375zm863 863l0 0c-106,-52 -211,-190 -310,-195 121,91 232,192 358,276 0,-54 0,-108 0,-162 -275,-300 -657,-493 -960,-765 -137,-13 -197,52 -325,48 20,115 166,179 260,245 87,60 203,205 309,130 -136,-114 -383,-201 -423,-358 161,105 283,248 472,325 -101,-132 -285,-181 -358,-342 328,264 689,494 977,798zm3222 -293l0 0c-122,-187 -280,-338 -423,-505 0,245 283,346 423,505zm-1709 -439l0 0c55,-22 138,-15 179,-49 -67,-2 -191,25 -179,49zm-2897 0l0 0c171,133 282,325 554,358 -102,-176 -360,-194 -440,-391 -37,12 -127,-29 -114,33zm-456 97l0 0c0,39 28,48 17,98 24,3 60,-6 65,16 10,95 196,305 325,228 -102,-109 -317,-192 -325,-342 52,-14 22,54 65,49 -5,-42 6,-70 49,-65 93,162 270,240 423,342 -17,-133 -383,-220 -326,-375 106,144 291,296 456,326 -114,-97 -287,-136 -358,-277 16,0 19,-13 33,-16 100,123 296,234 407,293 -58,-133 -390,-217 -407,-391 -204,29 -289,78 -424,114zm5192 114l0 0c-40,-111 -139,-164 -227,-228 58,83 136,232 227,228zm0 277l0 0c0,-49 0,-98 0,-147 -157,-37 -262,-214 -374,-244 119,136 232,278 374,391zm-553 -342l0 0c-5,288 341,364 488,553 -33,-87 10,-54 65,-32 -14,-48 -14,-50 0,-98 -113,-38 -171,-132 -276,-179 37,110 158,135 195,244 -195,-125 -281,-358 -472,-488zm-4118 293l0 0c-92,-119 -244,-179 -358,-277 97,116 193,231 358,277zm1839 1742l0 0c2,-20 5,-39 33,-33 -24,42 -57,159 -16,212 -5,-43 -6,-82 49,-65 -31,85 20,141 65,195 538,-140 1126,-230 1725,-309 -29,-543 -4,-1401 65,-2002 -717,42 -1293,226 -1969,309 -27,90 -31,215 0,325 11,-86 -2,-145 16,-195 -2,463 2,1175 32,1563zm-748 -1823l0 0c-6,-60 -56,-75 -98,-98 12,54 62,68 98,98zm-1595 -33l0 0c-18,95 47,133 16,195 54,0 109,0 163,0 -35,-90 -123,-126 -179,-195zm5175 521l0 0c-138,-220 -395,-321 -569,-505 3,302 403,418 553,570 -103,-124 -295,-247 -342,-374 118,94 232,278 358,309zm-3287 130l0 0c-5,-38 -26,-61 -17,-114 -179,-114 -342,-329 -537,-374 87,260 367,265 554,488zm2718 -130l0 0c0,87 0,174 0,260 180,145 358,293 553,424 -22,-52 -3,-55 0,-114 -148,-134 -351,-213 -455,-391 117,44 248,266 325,195 46,35 74,89 130,114 -31,-148 -175,-182 -276,-260 7,74 108,54 97,146 -131,-119 -218,-281 -374,-374zm0 -309l0 0c-61,334 188,392 358,537 -60,-151 -287,-223 -309,-358 184,114 312,284 504,390 -163,-211 -369,-379 -553,-569zm553 488l0 0c-33,-124 -159,-156 -244,-228 69,89 141,174 244,228zm-3808 -228l0 0c174,113 346,315 520,374 -7,-55 7,-91 17,-130 -178,-142 -356,-284 -554,-407 17,43 20,100 17,163zm520 537l0 0c31,-29 -13,-41 0,-97 -124,-32 -238,-234 -325,-196 131,75 201,212 325,293zm-341 -342l0 0c-106,-16 -79,-80 -179,-113 6,210 219,214 325,325 -14,-102 -181,-111 -146,-212zm341 489l0 0c8,-129 -187,-191 -276,-277 -66,44 -115,-142 -244,-163 -2,86 70,163 130,212 76,62 189,134 260,146 -44,-37 -87,-75 -114,-130 109,43 132,172 244,212zm2735 -196l0 0c179,136 356,274 553,391 -4,-60 -86,-44 -81,-114 38,5 30,57 81,49 -169,-176 -365,-274 -553,-456 0,44 0,87 0,130zm-2930 261l0 0c32,5 32,-22 49,-33 46,52 80,115 163,131 -72,-141 -247,-262 -375,-293 -31,-72 -85,-122 -162,-147 18,204 223,222 325,342zm3434 293l0 0c-5,-77 -136,-113 -114,-163 72,26 86,110 163,130 -22,-151 -155,-192 -293,-228 -81,-81 -158,-166 -260,-227 61,269 337,324 504,488zm-3759 -407l0 0c207,102 318,300 537,391 -103,-256 -369,-299 -537,-456 0,21 0,43 0,65zm48 260l0 0c0,-17 -20,-13 -16,17 76,254 345,317 521,472 0,-44 0,-87 0,-131 -175,-113 -333,-241 -505,-358zm82 0l0 0c141,78 250,233 407,293 0,-32 0,-65 0,-97 -192,-124 -338,-292 -537,-407 23,82 -20,147 32,179 2,-20 5,-39 33,-33 -4,67 36,49 65,65zm3109 -81l0 0c170,187 398,318 602,472 0,-65 -33,-98 -33,-163 -200,-115 -361,-268 -553,-390 13,46 -23,42 -16,81zm0 130l0 0c0,16 0,33 0,49 119,155 308,239 472,342 50,32 86,127 162,81 -149,-209 -429,-373 -634,-472zm-2653 554l0 0c-133,-188 -367,-274 -554,-407 125,195 324,316 554,407zm3222 65l0 0c0,-38 0,-76 0,-114 -208,-85 -347,-239 -553,-326 118,213 357,305 553,440zm-586 -65l0 0c418,164 758,542 1221,716 -370,-292 -837,-574 -1172,-847 375,144 653,473 977,651 61,34 138,49 195,82 53,30 88,109 163,81 -387,-319 -928,-623 -1367,-944 26,75 -73,151 -17,261zm-2978 -147l0 0c-78,-20 -118,-78 -196,-98 118,198 366,265 538,407 -41,-193 -279,-238 -391,-309 28,-6 42,24 49,0zm358 488l0 0c14,-152 -140,-216 -228,-276 -103,-71 -222,-133 -326,-196 53,233 359,331 554,472zm4655 -309l0 0c100,30 146,114 260,130 -19,-45 -18,-112 -16,-179 -42,33 -196,-17 -244,49zm-114 -16l0 0c-85,8 -177,7 -244,32 55,0 103,91 146,49 -40,26 -48,-55 -16,-49 66,11 88,64 163,65 8,-57 -58,-40 -49,-97zm358 260l0 0c-53,-143 -226,-164 -326,-260 52,143 199,192 326,260zm-1221 440l0 0c-366,-215 -693,-468 -1058,-684 43,235 311,243 423,407 51,-56 145,10 82,49 63,18 83,79 146,97 22,-40 -64,-50 -16,-65 138,58 238,240 423,196zm-3662 -196l0 0c-196,-101 -370,-226 -537,-358 -19,20 -18,58 -16,98 207,113 362,278 569,391 0,-76 0,-152 0,-228 -187,-128 -363,-266 -569,-375 105,237 400,283 553,472zm4427 -260l0 0c4,-13 1,-32 16,-33 144,74 284,306 440,261 -106,-135 -357,-218 -521,-326 -76,-50 -126,-171 -244,-97 112,55 204,132 309,195zm-569 -147l0 0c162,84 316,170 488,277 -102,-121 -231,-214 -342,-325 -177,40 -390,44 -521,130 324,143 525,310 863,439 -208,-193 -512,-291 -716,-488 238,92 428,233 635,358 -104,-152 -362,-234 -407,-391zm439 407l0 0c93,-52 162,169 260,65 -161,-87 -300,-198 -455,-292 22,113 199,139 195,227zm130 -130l0 0c99,76 194,209 342,179 -176,-182 -419,-297 -635,-439 65,109 191,181 293,260zm423 -16l0 0c-95,-117 -238,-185 -390,-244 104,96 279,209 390,244zm-683 293l0 0c-215,-192 -495,-320 -749,-472 -13,3 -32,0 -33,16 269,124 459,348 782,456zm-1481 -440l0 0c-43,7 -90,9 -114,33 306,150 568,459 862,521 -221,-213 -525,-343 -748,-554zm-2718 570l0 0c41,40 87,75 162,81 97,80 230,161 358,228 128,67 267,179 391,147 -286,-127 -515,-309 -749,-488 0,-22 0,-44 0,-66 -64,-20 -39,48 -81,49 -191,-156 -383,-311 -602,-439 9,167 -1,258 0,439 352,200 711,448 1058,602 91,-6 147,-47 244,-48 -444,-202 -824,-468 -1221,-717 19,-47 -78,-60 -32,-81 166,79 314,259 472,293zm3271 65l0 0c-9,-65 58,18 49,-65 -238,-178 -465,-303 -684,-472 -49,0 -97,0 -146,0 155,165 374,266 553,407 7,-67 -133,-72 -81,-130 97,92 207,172 309,260zm-244 -16l0 0c67,41 123,117 195,98 -244,-194 -591,-531 -944,-570 227,151 520,332 749,472zm-407 81l0 0c-58,-20 -43,-53 -33,-114 -234,-163 -501,-183 -651,-358 67,-1 67,64 131,65 -64,-67 -19,-102 -17,-146 -150,74 -329,36 -488,114 120,65 233,136 358,195 -18,-85 -134,-72 -130,-179 16,0 19,-13 32,-16 156,30 265,189 424,163 14,97 237,116 309,244 -251,-21 -439,-244 -684,-326 186,179 419,425 749,358zm-358 -504l0 0c-36,-4 -88,-74 -114,-33 28,22 80,114 114,33zm732 472l0 0c-92,-86 -245,-164 -374,-244 -122,-76 -251,-211 -374,-163 269,105 518,317 748,407zm-32 114l0 0c92,60 188,163 260,146 -8,-126 -159,-147 -244,-195 -283,-161 -573,-381 -862,-472 270,167 587,353 846,521zm-700 -33l0 0c-203,-215 -551,-284 -765,-488 -42,6 -89,8 -114,32 197,76 360,267 553,293 23,21 8,80 49,82 7,-28 -24,-42 0,-49 66,71 180,140 277,130zm-960 -456l0 0c-29,15 -82,6 -98,33 293,146 548,331 863,456 -227,-191 -521,-315 -765,-489zm-82 147l0 0c-58,-39 -83,-112 -179,-114 22,65 140,120 179,114zm-341 16l0 0c9,0 19,3 16,16 -48,-34 -120,-129 -212,-65 275,143 482,354 814,440 1,21 21,22 16,49 87,-12 155,-41 244,-49 -284,-166 -526,-374 -862,-489 102,85 222,155 342,228 124,76 280,129 358,228 -259,-44 -512,-357 -716,-358zm943 326l0 0c0,16 0,32 0,48 39,1 48,-28 98,-16 -201,-152 -468,-324 -700,-390 196,124 344,296 602,358zm-1220 -277l0 0c177,148 421,226 618,358 -344,34 -575,-487 -895,-358 268,123 496,372 781,423 3,25 -5,60 17,65 89,-46 248,-23 325,-81 -129,-71 -273,-158 -423,-244 -157,-91 -374,-245 -488,-228 56,-30 42,46 65,65zm390 521l0 0c5,-34 73,-4 66,-49 -300,-103 -527,-363 -814,-423 250,157 467,346 748,472zm-1318 -309l0 0c31,-28 -113,-120 -130,-49 280,186 549,384 911,488 -248,-159 -490,-324 -781,-439zm3548 325l0 0c-151,-152 -383,-311 -569,-374 180,123 389,304 569,374zm-3727 -358l0 0c-28,-1 -51,4 -65,16 -18,4 -25,18 -33,33 235,134 437,301 700,407 36,60 101,80 163,32 -223,-195 -547,-288 -765,-488zm3630 81l0 0c-2,-37 -72,-89 -98,-48 33,15 64,33 98,48zm-3988 33l0 0c308,100 578,452 879,521 25,6 76,39 81,-17 -242,-210 -674,-310 -814,-569 -29,41 -132,8 -146,65zm602 228l0 0c127,80 253,239 407,179 -311,-91 -534,-355 -814,-423 101,108 271,158 407,244zm-407 65l0 0c-53,-57 -268,-102 -179,-195 287,223 618,402 928,602 0,-38 0,-76 0,-114 -267,-97 -465,-275 -700,-407 -123,-69 -270,-177 -423,-163 65,141 257,242 374,277zm3890 146l0 0c0,-43 0,-86 0,-130 -180,-86 -308,-223 -488,-309 9,252 250,271 374,407 -22,-92 -183,-131 -162,-212 81,93 190,157 276,244zm-4492 -390l0 0c259,257 656,460 944,635 73,171 274,214 423,309 -9,-82 1,-80 -16,-147 -395,-268 -892,-517 -1204,-814 -41,14 -88,22 -147,17zm-114 32l0 0c-28,-1 -42,13 -49,33 240,184 515,331 749,521 -3,-36 58,-8 81,-17 -197,-241 -528,-350 -781,-537zm-146 17l0 0c-53,39 -144,40 -228,48 174,233 483,331 716,505 -380,-80 -535,-392 -895,-472 -2,92 151,161 260,195 202,143 400,397 749,293 -210,-202 -521,-303 -733,-504 308,80 555,440 912,472 -237,-203 -547,-332 -781,-537zm195 634l0 0c5,-54 77,49 65,-32 -251,-167 -533,-303 -749,-505 30,271 544,402 684,537zm4508 -97l0 0c-152,-119 -262,-281 -406,-407 -4,264 279,328 406,407zm-3662 -244l0 0c-49,2 -142,-96 -130,-49 25,25 91,92 130,49zm-895 341l0 0c-236,-78 -424,-291 -635,-341 112,143 349,374 635,341zm4606 -130l0 0c-21,-126 -180,-200 -260,-211 98,59 134,180 260,211zm-3711 -179l0 0c185,125 347,272 570,358 -160,-139 -383,-299 -570,-358zm3532 326l0 0c-37,-80 -194,-117 -146,-228 -75,4 -68,-74 -147,-65 14,171 204,251 293,293zm-4639 32l0 0c-110,-90 -278,-209 -390,-244 106,104 223,252 390,244zm4818 49l0 0c0,-33 0,-65 0,-98 -122,-41 -203,-122 -309,-179 71,125 182,209 309,277zm-4964 -49l0 0c-108,-33 -157,-125 -260,-163 23,108 131,216 260,163zm4688 98l0 0c7,-62 -76,-33 -49,-114 90,100 227,239 341,260 -35,-2 -6,-69 -16,-97 -170,-88 -301,-175 -455,-244 -33,103 136,116 179,195zm-3386 32l0 0c206,66 333,210 537,277 0,-49 0,-98 0,-146 -195,-98 -365,-221 -553,-326 -13,83 23,118 16,195zm3353 0l0 0c-63,-13 -96,-123 -163,-81 16,33 32,66 49,98 2,-71 102,22 114,-17zm-2832 489l0 0c29,-31 12,-108 16,-163 -188,-88 -349,-205 -537,-293 21,305 342,309 521,456zm3141 -49l0 0c-56,-226 -287,-277 -439,-407 23,259 259,305 439,407zm16 -163l0 0c-28,-82 -192,-164 -292,-228 64,109 177,170 292,228zm-3678 33l0 0c171,117 321,254 521,341 0,-43 0,-86 0,-130 -204,-62 -324,-208 -521,-276 0,21 0,43 0,65zm3304 65l0 0c89,-2 157,102 228,65 -75,-50 -148,-102 -228,-147 12,51 12,32 0,82zm-3011 309l0 0c82,53 188,128 244,98 -36,-2 -7,-69 -16,-98 -208,-63 -325,-218 -521,-293 36,144 172,215 293,293zm3044 -195l0 0c21,-55 -64,-86 -82,-49 26,18 34,53 82,49zm-2800 455l0 0c-15,-47 -15,-50 0,-97 -194,-77 -331,-211 -521,-293 68,236 327,281 521,390zm-114 -16l0 0c-143,-46 -274,-192 -407,-195 126,65 239,228 407,195zm-374 82l0 0c30,-24 108,-1 130,-33 -41,-24 -121,-9 -114,-81 67,4 135,92 196,48 -88,-32 -136,-102 -228,-130 5,78 9,98 16,196zm-326 520l0 0c-5,-49 19,-126 -32,-130 5,49 -18,127 32,130z"/>
  </g>
 </g>
</svg>
