<?xml version="1.0" encoding="UTF-8"?>
<!DOCTYPE svg PUBLIC "-//W3C//DTD SVG 1.1//EN" "http://www.w3.org/Graphics/SVG/1.1/DTD/svg11.dtd">
<!-- Creator: CorelDRAW X8 -->
<svg xmlns="http://www.w3.org/2000/svg" xml:space="preserve" width="8.5in" height="11in" version="1.1" style="shape-rendering:geometricPrecision; text-rendering:geometricPrecision; image-rendering:optimizeQuality; fill-rule:evenodd; clip-rule:evenodd"
viewBox="0 0 8500 11000"
 xmlns:xlink="http://www.w3.org/1999/xlink">
 <defs>
  <style type="text/css">
   <![CDATA[
    .fil0 {fill:#090968}
   ]]>
  </style>
 </defs>
 <g id="Layer_x0020_1">
  <metadata id="CorelCorpID_0Corel-Layer"/>
  <g id="_68798975264">
   <path class="fil0" d="M5001 1641c26,-9 12,24 16,39 -24,2 -29,-28 -16,-39z"/>
   <path class="fil0" d="M4389 4920c-20,-36 -42,-152 -32,-167 9,58 29,104 32,167z"/>
   <path class="fil0" d="M2952 5897c0,26 -26,27 -24,55 -17,-12 -12,-70 24,-55z"/>
   <path class="fil0" d="M2833 6183c31,-3 13,60 -8,55 -4,-25 14,-28 8,-55z"/>
   <path class="fil0" d="M3007 6199c25,14 -6,102 -31,119 16,-40 -9,-93 31,-119z"/>
   <path class="fil0" d="M3095 6342c10,24 -22,73 -48,87 0,-16 0,-32 0,-48 19,-28 43,-4 48,-39z"/>
   <path class="fil0" d="M5056 9240c29,16 16,74 24,111 -27,-18 -10,-80 -24,-111z"/>
   <path class="fil0" d="M3500 2800c46,102 56,240 87,357 11,-146 -54,-353 -95,-500 -1,-28 -26,17 -24,-8 -40,-215 -71,-425 -119,-635 -15,-67 -48,-128 -56,-199 -15,-155 -98,-277 -55,-484 17,-83 56,-177 95,-254 59,-118 79,-234 135,-350 142,-294 478,-687 866,-714 126,-9 214,16 293,79 575,79 903,467 1009,1040 -8,195 73,390 40,628 41,-23 29,-98 47,-143 -4,210 -112,409 -166,635 2,12 13,-7 15,8 -63,156 -128,311 -198,461 -20,19 17,16 8,47 -143,154 -240,349 -358,524 -117,175 -246,339 -389,485 -12,65 -49,120 -79,174 -29,53 -47,123 -103,151 6,-65 42,-101 63,-151 -68,83 -121,181 -190,262 -3,69 8,125 16,183 -13,3 -7,25 -32,16 35,219 96,412 135,627 205,-20 470,-53 619,40 280,-177 486,157 651,365 187,236 379,444 413,747 11,100 -21,167 -24,230 -3,76 27,160 24,238 -8,270 -113,480 -317,612 192,-143 334,-443 278,-794 -2,324 -63,588 -278,698 -108,235 -208,475 -477,548 249,-105 370,-340 469,-595 -51,17 -53,79 -72,119 -56,119 -144,232 -238,325 -20,-1 -25,13 -40,16 -134,146 -315,246 -516,326 37,606 133,1174 214,1667 -24,20 -44,-100 -15,-87 -24,-104 -34,-177 -56,-286 -47,-9 -64,-108 -79,-174 -5,177 41,302 31,492 -9,7 -21,10 -39,8 -1,68 13,135 0,206 -3,16 -19,23 -24,40 -39,119 11,287 -95,349 -70,293 -165,561 -389,699 20,-49 51,-86 71,-135 -59,47 -131,51 -207,88 -20,9 -23,33 -47,47 -125,77 -256,145 -429,151 -43,2 -91,-18 -143,-16 -109,5 -211,34 -318,24 -182,-17 -290,-99 -428,-175 -171,-93 -288,-192 -413,-325 -269,-374 -303,-1256 111,-1501 24,-8 14,18 16,32 100,-98 184,-262 373,-286 45,-6 86,9 135,8 106,-3 216,-60 326,-56 107,5 208,65 285,103 180,-8 258,146 342,262 62,86 105,152 55,239 3,346 -118,570 -341,691 -39,289 -437,85 -548,0 -258,-5 -287,-170 -365,-405 -26,-78 -64,-198 -24,-310 -87,25 -101,80 -143,119 27,90 72,161 127,222 -102,-49 -126,-175 -175,-278 -48,92 23,254 88,310 -90,-6 -100,-160 -135,-246 -23,28 8,52 -48,63 -1,49 65,31 72,72 -16,16 -46,5 -64,0 28,115 86,199 167,262 -110,-34 -134,-152 -191,-238 -28,161 112,290 207,381 -111,-30 -177,-173 -231,-286 -16,13 -2,56 -15,71 7,27 14,4 39,8 8,40 -32,32 -39,56 77,179 166,374 373,461 -145,-12 -228,-154 -302,-262 -47,13 -13,107 24,79 50,126 189,227 349,270 -29,37 -90,-17 -127,-24 -41,46 20,114 56,135 16,-17 50,-11 87,-24 19,36 -57,36 -55,80 51,46 142,53 238,55 -35,35 -116,7 -159,0 6,27 67,65 111,80 31,12 3,-35 24,-32 27,-3 24,24 40,32 28,-26 -8,-18 16,0 34,26 103,-16 150,-16 -19,30 -68,32 -119,32 70,50 160,81 246,71 20,-2 46,-32 56,-32 13,0 9,26 24,32 46,17 180,-6 222,-32 18,12 -10,20 8,24 87,-13 161,-40 215,-87 -6,6 -13,21 0,24 31,2 39,-19 71,-16 4,-25 -24,-18 -16,-48 20,4 28,19 40,32 110,-14 163,-86 222,-151 -72,33 -116,163 -222,111 -3,-53 1,-100 16,-135 17,18 -23,103 16,119 83,-205 146,-431 254,-611 31,-173 74,-429 111,-636 -35,-13 -21,-70 -16,-111 18,17 3,66 8,96 22,-387 -38,-892 -111,-1263 -122,-7 -204,22 -318,16 -507,-29 -878,-298 -1183,-548 1,-50 -49,-67 -40,-111 95,33 160,94 231,151 -56,-14 -132,-75 -191,-112 100,108 255,200 413,286 -37,-61 -173,-91 -215,-174 34,24 68,49 104,71 -108,-114 -223,-243 -326,-389 -57,-80 -120,-159 -175,-238 81,144 146,304 262,413 -31,8 -57,-58 -111,-32 -91,-91 -182,-182 -254,-302 -72,-121 -100,-255 -143,-405 -38,-136 -80,-253 -71,-405 11,-197 69,-382 111,-572 -18,38 -37,75 -40,128 -28,-84 51,-159 72,-239 20,-76 -7,-161 47,-222 11,-11 38,-11 48,0 93,-119 131,-293 222,-413 16,0 32,0 48,0 90,-84 147,-202 246,-278 15,-55 41,-127 72,-190 22,-48 47,-150 111,-112 5,41 -17,12 -40,16 -41,60 -61,140 -95,207 39,-32 138,-114 119,-183 11,3 7,20 8,32 127,-106 118,-348 294,-405 50,-106 110,-180 63,-326 32,60 29,45 40,127 11,19 30,-47 55,-16 -37,-199 -74,-369 -134,-555 -17,54 29,113 31,174 -51,-73 -50,-199 -87,-286 20,181 63,359 103,548 -41,23 -54,-55 -24,-31 -28,-114 -48,-190 -71,-310 45,39 -9,1 -16,-16 -30,-68 -48,-214 -64,-286 -18,-83 -37,-166 -47,-246zm2549 3804l0 0c-3,32 -6,63 -24,79 -19,-25 31,-83 0,-119 -35,108 -18,219 -40,310 -27,117 -102,176 -159,278 149,-102 241,-332 223,-548zm-1104 3128l0 0c-13,110 -44,268 -56,374 48,-91 78,-241 56,-374zm-2343 -4232l0 0c10,-46 65,-89 40,-143 -1,12 -19,7 -32,8 4,46 -24,102 -8,135zm1517 -5424l0 0c-290,109 -500,448 -635,683 129,-157 263,-309 445,-413 102,-207 365,-254 659,-270 -129,-71 -334,-51 -469,0zm246 40l0 0c-174,25 -330,86 -365,190 172,-100 383,-162 667,-150 -39,-76 -195,-55 -302,-40zm540 63l0 0c-71,-26 -143,-53 -230,-63 22,70 170,57 230,63zm-246 0l0 0c-176,-20 -342,15 -468,56 -98,31 -199,82 -231,135 182,-121 487,-230 771,-151 -11,-51 -45,-37 -72,-40zm88 32l0 0c236,29 400,129 547,246 -111,-166 -309,-246 -555,-278 -1,14 1,25 8,32zm-802 286l0 0c135,-99 350,-231 563,-175 -255,-24 -452,111 -611,231 0,26 0,53 0,79 86,-39 160,-157 262,-206 35,-12 21,26 48,23 26,-34 31,-90 87,-95 25,12 40,34 71,40 69,-43 134,-49 247,-40 15,-48 40,-87 95,-95 20,14 16,53 16,87 21,-8 73,-21 63,24 24,-2 29,-25 64,-16 85,71 242,113 325,159 -55,-48 -104,-102 -166,-143 -11,29 43,35 23,48 -16,-21 -50,-24 -47,-64 -68,7 -117,-60 -183,-79 -6,20 31,36 8,47 -40,-140 -201,-34 -270,-16 12,-51 89,-38 111,-79 -358,-48 -611,116 -706,270zm1572 349l0 0c-105,-320 -354,-541 -707,-587 210,79 379,197 469,397 71,50 93,150 119,246 12,14 46,6 47,32 86,212 35,467 80,722 53,-291 -2,-611 -80,-857 -19,-33 -58,28 -55,-8 57,-73 94,51 103,79 54,168 61,400 87,620 21,-248 32,-508 -63,-667 10,0 10,22 0,23zm-810 -524l0 0c1,-22 1,-43 -24,-39 -21,20 7,33 24,39zm-64 16l0 0c-11,26 48,20 48,8 -24,2 -27,-29 -48,-8zm-603 8l0 0c-39,19 -121,38 -95,95 24,-38 66,-60 95,-95zm-580 500l0 0c23,11 28,-25 40,-39 123,-156 263,-306 413,-421 -190,115 -339,270 -453,460zm977 -420l0 0c29,-6 30,17 55,15 0,-15 0,-31 0,-47 -29,0 -54,3 -55,32zm71 31l0 0c9,-21 32,-26 40,-47 -6,-7 -44,-18 -48,0 29,7 -16,45 8,47zm167 8l0 0c-2,-25 14,-33 8,-63 -16,0 -32,0 -48,0 -5,40 22,47 40,63zm24 24l0 0c32,2 45,24 79,24 15,-60 -23,-67 -31,-103 -22,-1 -16,13 -32,0 -4,28 -18,46 -16,79zm-810 24l0 0c-2,-31 0,-59 8,-79 -148,93 -254,228 -365,357 -1,14 1,25 8,32 -21,3 -29,19 -24,47 -50,40 -76,147 -72,215 16,-67 30,-134 80,-167 10,0 7,14 16,16 104,-176 186,-292 349,-421zm659 -56l0 0c25,9 18,1 48,0 0,-8 0,-16 0,-23 -18,6 -43,4 -48,23zm-421 16l0 0c20,8 55,15 56,-16 -14,-21 -55,-2 -56,16zm715 0l0 0c24,58 55,109 95,151 8,-34 16,-69 32,-95 -18,-43 -66,-56 -103,-80 -5,12 -13,20 -24,24zm182 -8l0 0c-21,-8 -41,-16 -71,-16 2,27 61,48 71,16zm-611 48l0 0c27,4 35,28 72,24 -1,-19 13,-24 7,-48 -28,6 -68,1 -79,24zm397 32l0 0c-6,-18 14,-62 -16,-56 -17,18 -5,52 16,56zm-302 8l0 0c21,26 47,48 80,63 0,-26 0,-53 0,-79 -28,-9 -34,-40 -72,-40 -2,19 -12,30 -8,56zm159 16l0 0c0,-24 0,-48 0,-72 -10,0 -21,0 -32,0 3,32 3,66 32,72zm-580 -16l0 0c26,4 64,-20 40,-40 1,27 -40,13 -40,40zm1057 23l0 0c-24,-24 -36,-59 -80,-63 12,31 64,63 80,63zm-453 24l0 0c41,33 74,116 111,127 11,-88 -58,-149 -111,-198 0,24 0,47 0,71zm-405 8l0 0c29,3 44,20 71,24 6,-29 11,-58 8,-95 -33,10 -74,15 -79,71zm516 -8l0 0c9,-40 -39,-66 -55,-55 22,14 28,45 55,55zm159 246l0 0c14,-149 -72,-210 -127,-309 30,134 48,208 127,309zm175 -31l0 0c-6,-64 7,-110 8,-167 -44,-31 -91,-100 -135,-103 57,75 80,184 127,270zm-739 -262l0 0c3,37 -2,66 -8,95 25,9 42,27 72,32 0,-40 6,-74 16,-104 -17,-7 -24,-24 -48,-23 2,27 15,43 24,63 -37,-3 -24,-56 -56,-63zm215 16l0 0c-11,70 18,119 55,119 -3,-34 12,-87 -24,-88 -7,29 23,62 8,72 -18,-30 -9,-86 -39,-103zm-1120 635l0 0c14,16 41,-65 79,-24 -94,68 -99,179 -103,341 29,-1 31,-10 56,0 18,19 9,65 39,72 -21,-90 8,-175 -8,-246 73,-71 -20,-259 88,-294 51,-158 129,-289 238,-389 -15,-22 -4,-71 -32,-80 -186,184 -377,406 -413,715 30,-55 20,-150 72,-183 -12,-25 -3,-34 0,-63 41,3 55,-111 95,-111 -32,87 -73,164 -111,262zm1628 -143l0 0c20,-221 -53,-350 -127,-477 -33,203 83,324 127,477zm-635 -365l0 0c56,49 86,125 119,198 -10,-73 -22,-143 -16,-230 -27,-26 -57,-49 -88,-72 -9,30 -16,64 -15,104zm365 -32l0 0c2,-28 -6,-48 -24,-56 -5,31 12,41 24,56zm413 -24l0 0c-14,-7 -13,-29 -32,-32 -6,23 17,56 32,32zm-1295 0l0 0c-3,27 3,44 8,64 15,1 18,-9 32,-8 -5,-32 8,-46 8,-72 -30,-8 -23,20 -48,16zm993 40l0 0c-5,-17 10,-52 -8,-56 -14,14 -9,49 8,56zm-889 24l0 0c16,-18 26,-43 63,-40 0,-11 0,-21 0,-32 -8,0 -16,0 -24,0 3,35 -75,30 -39,72zm198 39l0 0c-12,-1 -6,-20 -24,-16 -7,117 -26,170 0,254 32,3 31,-27 48,-39 4,33 -19,39 -32,55 -19,20 -15,-12 -40,-8 -16,20 18,36 32,48 98,-64 87,-236 103,-381 -35,1 -46,-22 -87,-16 -22,37 12,82 0,103zm477 175l0 0c21,16 32,42 71,40 -6,-137 -46,-240 -127,-302 -16,122 55,156 56,262zm-580 -127l0 0c5,0 10,0 16,0 0,-42 0,-85 0,-127 -6,0 -11,0 -16,0 0,42 0,85 0,127zm-254 -8l0 0c18,-17 25,-85 16,-103 -20,22 -65,84 -16,103zm230 -56l0 0c-24,0 11,-58 -24,-47 -5,24 7,71 24,47zm214 191l0 0c44,-4 58,-38 96,-48 0,-53 0,-106 0,-159 -30,-4 -30,-39 -72,-31 -7,89 -19,164 -24,238zm993 -72l0 0c-21,-61 -43,-163 -103,-158 36,51 71,103 103,158zm-723 48l0 0c19,8 39,14 64,16 -15,-86 -19,-182 -79,-222 -6,79 8,164 15,206zm278 151l0 0c22,24 39,52 72,64 -2,-186 -63,-313 -151,-413 -18,156 106,210 79,349zm-762 40l0 0c58,-97 10,-309 -56,-381 -44,95 -45,336 56,381zm334 -223l0 0c42,-3 39,-2 79,-8 -16,-50 -42,-90 -79,-119 0,43 0,85 0,127zm-525 -47l0 0c29,-1 32,-27 32,-56 -38,-9 -32,26 -32,56zm1327 174l0 0c-31,-57 -24,-193 -80,-198 40,47 47,170 80,198zm-24 397l0 0c82,-202 -14,-412 -80,-579 -16,204 72,372 80,579zm-1303 -412l0 0c5,119 8,241 56,317 5,-129 -19,-229 -56,-317zm88 325l0 0c17,-12 3,-55 24,-63 8,60 32,-32 47,-40 -125,-39 -93,-235 -111,-381 -51,4 -59,94 -40,143 2,-10 -1,-23 8,-24 32,114 35,256 72,365zm1016 -143l0 0c-17,24 -5,31 -16,64 72,177 10,480 32,683 45,-367 83,-835 -87,-1088 -11,148 57,218 71,341zm278 -151l0 0c23,-76 -23,-136 -55,-182 14,65 17,141 55,182zm-1437 -111l0 0c18,-20 33,-49 0,-63 -9,8 -17,56 0,63zm826 24l0 0c1,-28 -2,-51 -16,-64 -1,27 -3,56 16,64zm119 71l0 0c25,-3 21,22 40,24 -7,-60 -18,-115 -56,-143 8,37 20,71 16,119zm-1009 -23l0 0c36,8 29,-67 16,-80 -12,34 -16,30 -16,80zm278 206l0 0c11,-13 7,-41 24,-48 4,10 9,18 16,24 4,-29 65,-63 24,-87 -17,15 -13,50 -48,48 -79,-20 -77,-161 -95,-215 6,113 -1,239 79,278zm254 -191l0 0c24,-29 80,-26 96,-63 -11,0 -8,-14 -16,-16 -22,26 -101,36 -80,79zm-960 80l0 0c18,-36 56,-132 39,-151 -26,37 -33,94 -39,151zm1167 -143l0 0c-16,-11 -80,-15 -95,0 10,26 70,7 95,0zm-842 95l0 0c33,-9 45,-80 8,-95 -1,34 -13,55 -8,95zm262 421l0 0c11,-43 10,-68 16,-103 -79,-80 -85,-274 -79,-413 -8,0 -16,0 -24,0 -29,168 -15,426 87,516zm1477 -230l0 0c-11,-98 -9,-208 -63,-262 22,86 36,181 63,262zm-810 -246l0 0c-25,3 46,15 8,31 -28,-3 -28,-35 -55,-39 -29,17 -78,36 -120,16 -17,64 49,89 32,127 -33,-28 -50,-72 -55,-127 -47,4 -67,33 -112,39 -3,104 9,193 56,246 28,7 41,-20 48,8 -19,0 -24,14 -48,8 -55,-37 -74,-111 -79,-198 -33,21 -75,-15 -96,16 1,28 13,45 24,63 6,-15 59,-12 56,8 -16,16 -51,13 -72,24 -1,47 44,69 72,64 -40,50 -70,-26 -104,-32 -29,29 -5,37 -15,63 -23,0 19,-21 -16,-16 1,59 -108,160 -64,254 -26,0 -21,11 -24,24 -32,156 12,424 0,548 -1,-9 2,-22 -8,-24 15,391 6,916 151,1247 24,-29 -17,-55 8,-87 10,20 18,24 8,47 142,-155 202,-391 342,-547 30,-75 40,-140 55,-215 -1,28 -11,38 8,56 8,-32 23,-24 32,0 -7,-29 18,-39 0,-56 10,1 11,10 24,8 17,-20 -8,-45 8,-56 1,7 0,16 8,16 86,-266 160,-543 262,-794 4,58 -50,160 -32,215 123,-150 126,-597 -24,-699 -19,-3 -17,14 -40,8 -46,-86 -63,-202 -166,-230 2,60 38,88 71,119 -96,4 -56,-130 -143,-135zm524 349l0 0c-8,-106 -19,-251 -39,-318 -9,140 0,239 39,318zm-1318 -230l0 0c-8,-24 17,-81 -16,-80 -1,33 -1,65 16,80zm421 -24l0 0c14,20 65,-14 40,-32 -7,18 -38,10 -40,32zm738 119l0 0c2,-57 -12,-99 -31,-135 -1,56 4,107 31,135zm-1342 -95l0 0c8,0 16,0 24,0 -2,-14 8,-40 -16,-32 -2,11 -11,15 -8,32zm1700 699l0 0c24,-251 45,-526 -32,-731 -8,0 -16,0 -24,0 44,218 45,480 56,731zm-2033 -493l0 0c9,26 9,-21 8,-32 11,-60 23,-119 40,-174 -16,-3 -7,-31 -32,-24 -22,60 -15,149 -16,230zm548 254l0 0c27,-3 13,-24 32,0 11,-12 6,-41 23,-47 6,45 -11,68 -39,79 -6,24 13,23 8,48 -9,15 -37,11 -48,24 23,1 14,33 40,31 23,-5 5,-53 32,-55 -5,17 -20,51 7,55 11,-82 33,-152 56,-222 -155,1 -98,-277 -175,-381 14,189 7,313 64,468zm-278 -357l0 0c14,-4 33,-4 40,-16 -24,-8 7,-71 -16,-79 -5,35 -16,63 -24,95zm1270 -16l0 0c28,-11 54,46 88,24 -29,-24 -28,-78 -72,-87 -7,19 -18,34 -16,63zm-1588 302l0 0c17,-98 35,-235 24,-334 -36,88 -57,245 -24,334zm397 -254l0 0c-5,-30 38,-57 0,-72 -5,25 -30,55 0,72zm80 16l0 0c-8,-27 17,-87 -16,-88 3,30 -30,86 16,88zm341 135l0 0c26,-65 59,-122 95,-175 -82,2 -105,107 -95,175zm-460 -24l0 0c14,-30 16,-64 0,-95 -18,26 -16,64 0,95zm254 540l0 0c13,-61 19,-129 32,-191 -168,22 -134,-288 -191,-429 27,238 45,490 159,620zm1231 -445l0 0c6,-61 25,-124 -16,-167 15,62 -37,143 16,167zm-1771 -95l0 0c27,8 19,-60 8,-64 3,28 -3,45 -8,64zm444 437l0 0c-5,-59 -38,-129 -55,-215 -21,-106 -7,-226 -64,-262 34,165 58,339 119,477zm1573 198l0 0c48,-184 77,-455 39,-675 6,256 -45,508 -39,675zm-1366 -564l0 0c0,-22 39,-76 0,-87 2,39 -13,59 0,87zm1207 96l0 0c12,-59 -1,-139 -24,-183 10,36 17,214 24,183zm-1946 174l0 0c-14,-112 -2,-252 -31,-349 -14,117 -16,269 31,349zm1970 -47l0 0c25,-47 37,-217 32,-294 -22,87 -17,186 -32,294zm-1168 -207l0 0c1,-34 -3,-63 -8,-71 -10,13 -17,70 8,71zm-8 8l0 0c-1,-9 -8,-12 -15,-16 -38,90 -16,201 -16,270 -2,232 -27,541 39,818 -24,-337 -36,-729 -8,-1072zm-389 -24l0 0c0,-23 1,-48 -23,-47 3,20 11,36 23,47zm1882 373l0 0c-10,0 -21,0 -31,0 -6,28 32,11 23,40 -75,269 -206,561 -317,810 -39,87 -85,170 -111,254 213,-458 619,-827 500,-1501 1,155 -37,271 -64,397zm-270 -87l0 0c13,-88 31,-212 16,-302 -3,97 -26,218 -16,302zm-1405 405l0 0c0,-34 0,-69 0,-103 -119,-143 -142,-382 -222,-564 57,239 107,486 222,667zm-286 -595l0 0c-1,-24 29,-58 0,-64 -8,8 -16,57 0,64zm1977 150l0 0c14,-74 35,-135 16,-214 5,76 -35,150 -16,214zm-437 342l0 0c16,-178 41,-409 24,-548 -16,163 -23,356 -24,548zm-31 -437l0 0c6,133 15,-51 16,-87 -2,-9 -9,-13 -16,-16 1,38 -2,73 0,103zm-1755 207l0 0c-28,-87 -17,-211 -40,-302 -16,92 -32,282 40,302zm524 -159l0 0c34,-44 -37,-101 -56,-143 19,64 11,107 56,143zm-214 198l0 0c25,80 49,219 79,334 35,132 75,275 143,349 20,-174 -51,-280 -88,-389 -70,-209 -100,-405 -166,-611 -13,114 4,233 32,317zm285 48l0 0c14,-108 50,-236 48,-334 -18,101 -78,237 -48,334zm1263 -230l0 0c26,5 26,-85 0,-80 -5,39 10,56 0,80zm-1826 -8l0 0c-7,-20 15,-69 -16,-64 5,21 3,50 16,64zm182 222l0 0c16,-134 -18,-220 -71,-286 2,117 21,217 71,286zm1835 175l0 0c70,-87 61,-336 55,-445 -4,151 -26,287 -55,445zm-1898 -183l0 0c-17,-26 -55,-72 -40,-103 12,28 22,57 48,71 -26,-64 -31,-149 -56,-214 -17,110 -34,208 24,310 1,-29 29,-29 24,-64zm1723 373l0 0c136,-79 100,-405 95,-587 -54,170 -95,388 -95,587zm-103 143l0 0c49,-171 92,-463 55,-643 -2,254 -56,433 -55,643zm-1477 -492l0 0c-3,-37 -11,-69 -24,-95 0,39 -1,80 24,95zm1373 588l0 0c66,-203 94,-396 96,-660 -2,-6 -7,-9 -16,-7 -20,223 -64,466 -80,667zm-1127 -477l0 0c11,-81 -64,-113 -88,-183 25,66 51,129 88,183zm1763 -127l0 0c1,-13 35,-55 0,-56 10,25 -24,45 0,56zm-2271 222l0 0c-21,-80 -6,-238 -64,-254 33,87 19,195 64,254zm659 1192l0 0c3,38 9,136 23,174 15,39 12,15 48,32 -11,-33 -8,-103 8,-119 1,9 -1,22 8,24 11,-32 -14,-28 -24,-40 -31,-495 -78,-1009 -111,-1477 -19,398 7,982 48,1406zm-405 -1382l0 0c7,83 42,49 0,0zm1366 182l0 0c-2,-14 7,-18 23,-15 -14,-56 26,-136 -8,-159 7,71 -53,120 -15,174zm-1485 270l0 0c25,-27 64,24 63,-7 -36,-147 -69,-297 -135,-413 2,162 38,290 72,420zm1238 135l0 0c93,-158 180,-323 215,-540 -2,-6 -7,-9 -16,-7 -81,162 -148,382 -199,547zm-818 -444l0 0c-5,-32 14,-88 -15,-96 -9,19 -24,100 15,96zm-357 87l0 0c-6,-60 -25,-107 -48,-151 10,57 27,106 48,151zm40 -16l0 0c-4,25 21,21 24,40 24,169 83,357 127,540 44,184 82,379 182,500 0,-32 -16,-47 -16,-79 12,2 14,13 24,16 -6,-61 -22,-143 -16,-191 -24,-8 -33,-30 -47,-48 -125,-269 -191,-598 -278,-905 0,43 0,85 0,127zm317 778l0 0c1,-114 -25,-213 -47,-341 -147,-102 -150,-348 -223,-524 72,307 134,623 270,865zm1422 -802l0 0c2,-14 20,-52 0,-63 4,21 -24,50 0,63zm-1429 104l0 0c1,6 0,15 7,16 6,-34 16,-123 -7,-56 -4,-36 4,-60 7,-87 -15,1 -17,-9 -31,-8 2,48 -22,140 24,135zm-56 -16l0 0c-30,-26 -37,-74 -64,-103 21,53 29,119 64,158 0,-18 0,-37 0,-55zm1120 47l0 0c17,-12 30,-69 15,-87 -7,22 -15,85 -15,87zm-112 1136l0 0c281,-346 567,-731 675,-1223 -203,429 -441,824 -675,1223zm80 -484l0 0c-2,30 -35,71 -16,95 52,-65 53,-150 79,-270 34,-151 87,-377 72,-500 -5,162 -156,423 -151,587 1,32 32,62 0,16 12,43 -29,109 16,72zm238 -612l0 0c13,-3 13,-60 0,-63 -3,13 -26,71 0,63zm-1286 32l0 0c1,-28 -2,-51 -16,-64 6,20 -16,69 16,64zm1413 79l0 0c8,-45 50,-98 40,-135 -12,41 -53,95 -40,135zm-468 246l0 0c6,-22 12,-45 47,-39 -6,-126 31,-243 8,-334 -25,131 -60,248 -55,373zm373 -301l0 0c4,-20 40,-50 16,-72 -13,12 -41,49 -16,72zm-1580 24l0 0c-6,-34 -6,-75 -32,-88 5,34 13,67 32,88zm1318 0l0 0c5,-30 19,-50 24,-80 -24,6 -32,68 -24,80zm270 103l0 0c6,-54 63,-137 32,-175 -14,61 -75,125 -32,175zm-1747 167l0 0c-21,-120 -44,-237 -88,-334 30,111 45,236 88,334zm1683 -183l0 0c21,-35 40,-72 32,-135 -8,0 -16,0 -24,0 8,51 -29,97 -8,135zm-1278 -103l0 0c-14,115 19,196 16,293 29,-65 18,-247 8,-301 -2,9 -13,8 -24,8zm-310 238l0 0c-5,-61 13,-145 -16,-183 -8,0 -16,0 -24,0 -22,71 21,128 40,183zm1167 278l0 0c68,-110 72,-283 104,-429 -53,120 -93,294 -104,429zm191 -310l0 0c-2,17 2,112 8,48 5,-48 32,-117 16,-159 6,27 -20,71 -24,111zm190 111l0 0c25,-65 95,-127 64,-222 -58,57 -68,156 -64,222zm-476 429l0 0c59,-179 111,-448 151,-643 -71,189 -141,420 -151,643zm-1080 -349l0 0c-18,-67 -56,-183 -87,-262 22,89 33,231 87,262zm381 953l0 0c62,-69 8,-138 -16,-191 -126,-286 -173,-676 -309,-953 52,437 162,817 325,1144zm1199 -1017l0 0c36,-17 71,-77 64,-111 -24,34 -41,76 -64,111zm-452 -87l0 0c-59,185 -208,512 -238,754 70,-84 137,-164 158,-302 22,-140 71,-293 96,-428 4,0 9,-7 0,-8 -11,29 -2,-24 -16,-16zm341 190l0 0c12,-52 46,-98 16,-150 1,51 -33,109 -16,150zm-246 239l0 0c35,-116 57,-245 95,-358 -1,-9 -2,-19 -16,-16 -29,122 -100,249 -79,374zm326 -294l0 0c1,31 -23,77 0,103 9,-40 71,-106 47,-127 -4,19 -30,18 -47,24zm-1509 302l0 0c-29,-101 -50,-210 -88,-302 19,111 38,222 88,302zm-8 -159l0 0c-1,-31 6,-70 -16,-80 1,32 4,60 16,80zm381 143l0 0c1,-57 -4,-150 -16,-167 -1,57 4,149 16,167zm905 198l0 0c68,-107 184,-207 175,-365 -76,104 -108,252 -175,365zm-103 -39l0 0c80,-31 85,-180 79,-270 -42,91 -44,175 -79,270zm397 -159l0 0c4,-33 53,-64 40,-88 -10,28 -55,62 -40,88zm-445 39l0 0c-48,33 -38,116 -39,167 59,-46 54,-157 71,-246 -40,6 11,-29 -16,-32 -1,65 -35,64 -16,111zm32 445l0 0c111,-172 212,-354 326,-524 -1,-10 -3,-19 -16,-16 -87,191 -246,353 -310,540zm-1064 -318l0 0c-11,-76 -29,-146 -55,-206 0,82 31,175 55,206zm675 96l0 0c22,-28 54,-47 87,-64 3,-79 68,-180 48,-230 -34,104 -134,183 -135,294zm-389 -175l0 0c-2,-17 6,-85 -8,-63 2,17 -6,84 8,63zm-334 127l0 0c-8,-39 -2,-93 -31,-111 10,37 9,86 31,111zm493 175l0 0c22,1 18,-24 39,-24 -26,-80 -39,-172 -71,-246 6,94 24,177 32,270zm524 333l0 0c154,-187 298,-384 429,-595 -152,185 -314,400 -429,595zm-707 -373l0 0c-43,-44 -66,-109 -95,-167 10,67 56,235 103,318 -12,-41 -7,-99 -8,-151zm842 -16l0 0c7,-44 69,-106 32,-143 -3,50 -43,105 -32,143zm-135 -16l0 0c-8,0 -10,-6 -16,-8 -5,22 16,16 24,24 21,-40 72,-78 40,-127 4,0 9,-6 0,-8 -26,30 -47,65 -48,119zm71 64l0 0c27,-38 71,-140 48,-175 -41,33 -37,111 -48,175zm-373 246l0 0c109,-95 187,-263 215,-413 -90,119 -172,247 -215,413zm-564 -127l0 0c25,75 41,175 72,151 4,39 8,81 32,119 8,-11 7,-30 23,-32 -66,-171 -133,-343 -198,-516 10,109 41,184 71,278zm143 -222l0 0c0,-14 0,-27 0,-40 -11,0 -17,-4 -24,-8 0,24 8,40 24,48zm381 174l0 0c78,-34 103,-120 120,-214 -63,25 -109,66 -112,151 3,16 22,-12 24,16 -4,22 -27,25 -32,47zm-23 -127l0 0c18,-10 52,-47 31,-71 7,36 -51,49 -31,71zm-564 103l0 0c-1,-68 -24,-114 -48,-158 11,58 23,114 48,158zm500 48l0 0c25,-29 100,-88 64,-127 -20,56 -79,69 -64,127zm421 8l0 0c13,-42 28,-83 32,-135 -45,24 -40,122 -32,135zm48 -40l0 0c1,-9 2,-18 15,-16 11,-110 -26,-13 -15,16zm-120 8l0 0c8,-16 32,-58 16,-71 -6,17 -26,62 -16,71zm24 104l0 0c30,-36 35,-94 24,-135 -22,25 -30,107 -24,135zm-373 238l0 0c38,-126 141,-230 143,-366 -95,70 -137,234 -143,366zm-484 -270l0 0c0,-30 -6,-94 -32,-72 18,17 17,52 32,72zm786 127l0 0c0,-31 -5,-46 24,-32 6,-41 33,-104 23,-135 -26,37 -78,124 -47,167zm-32 -88l0 0c-1,-25 35,-54 16,-71 3,27 -40,50 -16,71zm-643 247l0 0c-26,-93 -44,-195 -88,-270 21,98 31,207 88,270zm468 -32l0 0c52,-72 112,-137 143,-230 -67,52 -135,144 -143,230zm-143 -135l0 0c0,50 0,101 24,127 2,-67 43,-137 32,-191 -14,26 -34,46 -56,64zm-397 127l0 0c-3,-60 -20,-107 -39,-151 5,58 20,107 39,151zm278 -87l0 0c15,-4 60,-45 24,-48 4,28 -28,20 -24,48zm366 79l0 0c16,-34 48,-94 39,-127 -17,33 -60,83 -39,127zm143 -32l0 0c6,-23 45,-54 23,-79 -2,28 -21,-28 -23,0 17,8 -25,64 0,79zm-278 0l0 0c8,-20 50,-50 23,-79 1,30 -39,60 -23,79zm198 96l0 0c36,-36 75,-111 56,-175 -44,28 -60,125 -56,175zm119 -96l0 0c7,-24 27,-37 32,-63 -24,3 -46,49 -32,63zm-190 183l0 0c45,-36 68,-136 47,-175 -5,63 -52,128 -47,175zm-326 -64l0 0c4,-38 17,-67 24,-103 -47,-9 -54,86 -24,103zm199 72l0 0c29,-53 98,-108 87,-175 -22,60 -112,95 -87,175zm-143 -48l0 0c-6,26 9,60 8,16 6,-51 -10,-81 -8,-127 -2,-6 -7,-9 -16,-8 4,54 3,69 16,119zm63 24l0 0c38,-19 98,-97 72,-127 -22,45 -61,72 -72,127zm254 8l0 0c37,-12 118,-84 64,-111 -13,45 -60,56 -64,111zm-357 63l0 0c36,-20 24,-92 8,-127 -11,29 -46,101 -8,127zm-476 112l0 0c43,-60 89,-117 127,-183 -10,-1 -9,-13 -8,-24 -8,0 -16,0 -24,0 -27,69 -91,142 -95,207zm682 -48l0 0c55,-21 61,-87 48,-143 -8,56 -36,91 -48,143zm-341 79l0 0c75,-19 61,-151 24,-206 -4,43 35,126 -8,135 -27,-27 16,-122 -24,-135 -41,54 -15,150 8,206zm262 -127l0 0c8,-19 34,-61 16,-79 -11,28 -47,51 -16,79zm214 -71l0 0c-49,77 -227,197 -174,310 69,-93 132,-192 198,-286 -47,10 -11,7 -24,-24zm-143 55l0 0c-10,-2 -15,-11 -31,-7 -17,20 -5,69 -32,79 2,-10 -1,-49 -8,-24 -4,31 14,39 8,72 45,-13 21,-95 56,-120 0,5 6,10 7,0zm-690 294l0 0c54,-83 153,-164 182,-246 -51,87 -166,152 -182,246zm619 -111l0 0c-6,-38 -1,-89 -24,-111 -3,20 -14,107 24,111zm-278 -8l0 0c-10,-32 -17,-67 -32,-95 5,38 2,83 32,95zm-381 -63l0 0c-60,67 -105,149 -143,238 51,-65 164,-153 143,-238zm611 127l0 0c20,-18 11,-106 -16,-127 -6,36 -7,99 16,127zm-516 262l0 0c64,-102 236,-200 151,-373 -74,95 -129,252 -151,373zm477 -207l0 0c19,-26 21,-84 0,-111 -4,29 -20,86 0,111zm-135 -39l0 0c26,-2 57,-52 23,-64 -10,18 -31,26 -23,64zm103 79l0 0c-6,-47 -2,-104 -24,-135 3,50 0,106 24,135zm-421 -64l0 0c20,-4 45,-44 32,-55 -4,25 -30,28 -32,55zm556 24l0 0c8,-23 7,-72 -24,-79 2,33 -6,75 24,79zm-64 40l0 0c54,10 26,-75 8,-87 -14,32 -15,46 -8,87zm-516 -32l0 0c32,9 -13,68 -39,72 5,-24 25,-33 31,-56 -51,33 -75,94 -111,143 20,11 25,-31 32,-8 -10,29 -13,16 -40,24 -8,84 -40,145 -55,222 126,-83 176,-242 214,-413 -18,-2 -30,2 -32,16zm381 72l0 0c-18,-3 -14,-28 -39,-24 -35,27 7,50 0,95 57,-19 82,-103 39,-159 -21,23 29,58 0,88zm175 -8l0 0c-58,30 -22,105 -16,159 14,128 34,284 24,397 -15,-216 -40,-421 -71,-620 -32,46 -21,135 -8,231 26,199 59,410 87,611 44,-11 89,-22 127,-40 -6,-28 -36,-74 -16,-103 0,14 6,20 16,24 -44,-223 -106,-429 -143,-659zm40 16l0 0c6,-2 8,-66 -16,-64 6,20 -16,69 16,64zm-739 31l0 0c10,-23 60,-68 24,-87 4,36 -50,56 -24,87zm104 207l0 0c51,-81 155,-152 166,-246 -44,88 -159,148 -166,246zm492 -191l0 0c-12,-115 -14,29 8,40 0,-31 -6,-20 -8,-40zm-310 64l0 0c11,-28 89,-67 48,-95 -6,37 -70,56 -48,95zm310 286l0 0c-22,-119 -16,-265 -56,-366 -82,88 35,284 56,366zm-834 -40l0 0c54,-100 165,-184 183,-294 -51,103 -154,196 -183,294zm453 32l0 0c60,-88 210,-191 135,-318 -76,70 -136,198 -135,318zm214 -254l0 0c-5,-17 10,-53 -8,-56 -7,20 -13,45 8,56zm-548 262l0 0c57,-13 86,-160 64,-175 7,-30 56,-60 31,-95 -53,78 -49,177 -95,270zm747 -151l0 0c-10,-38 -6,-90 -24,-119 -6,24 2,96 24,119zm-453 0l0 0c12,-41 81,-67 63,-111 -14,38 -71,76 -63,111zm445 548l0 0c-32,-204 -100,-441 -159,-643 12,255 85,449 159,643zm-961 -405l0 0c35,-55 81,-99 111,-159 -58,23 -119,122 -111,159zm381 47l0 0c-56,80 -59,178 -111,270 4,-65 27,-110 40,-166 -103,61 -117,211 -143,349 128,-144 224,-321 357,-461 1,-70 43,-142 32,-198 -53,73 -122,130 -175,206zm-326 120l0 0c54,-105 168,-193 183,-310 -52,107 -162,198 -183,310zm461 -72l0 0c-10,0 -11,-10 -24,-8 -253,342 -498,693 -667,1120 -2,-84 68,-161 87,-246 23,-104 11,-214 16,-302 -12,60 -89,107 -111,182 -34,120 10,271 -24,358 -23,-93 7,-227 -8,-310 -15,35 -41,102 -63,103 39,-98 92,-182 95,-317 -136,120 -212,468 -127,643 -11,40 24,76 0,103 -62,-99 -39,-258 -63,-381 -97,188 -106,481 -32,707 6,-53 -31,-133 8,-167 0,42 0,85 0,127 12,1 29,-3 32,8 -48,210 66,264 95,445 -24,-32 -46,-66 -72,-96 23,-7 12,-39 0,-55 1,8 -3,20 -8,8 -86,-152 -92,-384 -135,-580 -42,279 26,593 175,770 -13,13 -2,43 8,56 0,-9 4,-20 8,-8 20,63 32,107 79,127 26,-21 -19,-66 8,-87 19,42 30,147 104,159 -1,88 103,139 166,190 -27,-20 5,-51 -23,-63 0,14 -7,16 -16,8 -101,-140 -222,-261 -286,-437 89,122 159,264 262,373 -98,-190 -286,-388 -254,-675 -1,10 -3,19 -16,16 7,-75 -1,-164 24,-238 -6,343 128,734 317,961 15,15 1,19 0,39 23,27 48,7 56,40 -10,-2 -16,-12 -16,8 92,80 214,130 341,175 -265,-272 -559,-622 -619,-1065 81,389 331,752 588,1001 20,19 35,57 55,71 123,87 324,69 501,80 -41,-28 -127,-12 -159,-48 139,19 237,47 373,56 7,14 3,39 16,47 -74,-588 -158,-1209 -254,-1786 -4,-16 -31,-7 -24,-32 -4,-31 14,-39 8,-71 -59,18 -113,41 -151,79 5,16 47,-5 40,24 -194,-59 -134,185 -119,246 -23,-12 -29,-40 -32,-72 -28,2 -30,29 -56,32 -36,-8 -53,-37 -79,-55 2,34 -11,52 -32,63 -17,20 -35,-7 -48,8 -47,83 -220,268 -71,350 12,-25 12,-62 32,-80 12,118 -36,169 -64,215 105,-1 60,-79 88,-135 20,70 -3,145 -72,166 29,6 53,16 87,16 31,-1 13,-51 48,-47 0,18 -14,23 -8,47 56,-5 91,-30 103,-79 23,105 -122,110 -230,111 54,59 215,165 278,71 7,17 0,48 32,40 26,-12 -32,-33 8,-40 29,49 71,-2 103,8 13,-13 -5,-58 24,-55 13,60 -28,101 -80,119 39,101 -98,82 -166,71 -235,-36 -418,-185 -437,-421 -94,-108 -28,-257 -48,-420 5,-22 20,-34 24,-56 -6,-61 8,-103 8,-159 19,-9 38,-45 63,-24 -28,36 -63,106 -39,167 29,-67 48,-116 63,-190 43,-214 246,-322 397,-437 46,-97 145,-142 223,-207 -42,-189 -78,-382 -96,-595 -219,265 -401,568 -587,865 128,-316 370,-561 516,-833 -46,68 -116,111 -143,198zm-270 87l0 0c70,-75 139,-194 143,-309 -60,85 -156,177 -143,309zm143 -190l0 0c25,-15 67,-55 56,-80 -20,26 -57,34 -56,80zm588 349l0 0c-6,-147 -43,-265 -88,-373 30,124 57,250 88,373zm-159 -254l0 0c-1,-44 -6,-84 -24,-111 4,41 4,85 24,111zm-771 135l0 0c36,-89 163,-128 151,-238 -44,80 -129,162 -151,238zm-119 -48l0 0c22,-60 88,-118 96,-166 -31,52 -100,106 -96,166zm24 -103l0 0c3,-13 38,-35 16,-47 -3,13 -37,35 -16,47zm-40 199l0 0c32,-90 131,-156 135,-246 -35,86 -127,158 -135,246zm-63 -119l0 0c6,-33 67,-90 48,-96 -76,67 -129,183 -199,231 3,43 -60,61 -40,95 67,-73 103,-178 191,-230zm310 127l0 0c56,-30 82,-169 71,-215 -40,55 -51,140 -71,215zm-421 143l0 0c48,-108 148,-207 167,-318 -53,104 -154,201 -167,318zm246 119l0 0c74,-112 159,-211 183,-373 -93,87 -190,212 -183,373zm48 -246l0 0c15,-41 74,-80 71,-112 -18,38 -88,66 -71,112zm-72 8l0 0c10,-33 61,-66 48,-96 -17,26 -58,70 -48,96zm937 135l0 0c30,-60 -26,-162 -40,-231 6,56 -1,172 40,231zm-1191 142l0 0c43,-132 147,-245 175,-365 -51,124 -164,228 -175,365zm-87 -222l0 0c15,-45 56,-65 71,-111 -49,6 -76,78 -71,111zm278 -24l0 0c-2,-23 45,-38 23,-55 -3,18 -43,40 -23,55zm1302 0l0 0c5,-5 9,-56 -16,-55 14,26 -8,39 16,55zm-159 48l0 0c-7,-27 -3,-66 -24,-79 7,40 -5,56 24,79zm-1310 -64l0 0c-62,129 -217,207 -191,397 47,-138 165,-290 191,-397zm357 318l0 0c70,-62 85,-222 88,-326 -64,69 -74,234 -88,326zm-230 -103l0 0c42,-29 67,-76 87,-127 14,-14 71,-57 32,-72 -35,71 -80,132 -119,199zm1795 -183l0 0c-33,-10 -100,-27 -135,-8 33,14 89,6 135,8zm-429 8l0 0c-1,20 4,33 16,40 14,-23 51,-23 63,-48 -38,3 -32,8 -79,8zm16 111l0 0c103,12 142,-83 230,-111 -106,-16 -213,15 -230,111zm1111 135l0 0c-73,-108 -294,-339 -452,-222 178,36 368,145 452,222zm-1286 -214l0 0c0,35 7,62 16,87 45,6 66,-13 111,-8 12,-30 25,-59 24,-103 -69,-10 -90,27 -151,24zm881 103l0 0c2,-35 -78,-86 -127,-71 -5,-67 -139,-46 -190,-40 109,34 186,100 317,111zm-603 -8l0 0c125,32 265,-42 397,-32 -102,-81 -337,-103 -397,32zm-1660 278l0 0c39,-136 178,-239 167,-373 -67,108 -170,222 -167,373zm1374 -278l0 0c-5,-29 3,-72 -24,-79 19,16 -9,78 24,79zm-1128 421l0 0c65,-67 88,-177 151,-246 -30,-83 36,-174 16,-246 -106,113 -160,279 -167,492zm2073 -468l0 0c-34,4 -67,-34 -87,-16 23,7 65,56 87,16zm-1024 63l0 0c19,-17 -4,-59 -16,-71 -13,16 -9,67 16,71zm-1136 270l0 0c41,-97 163,-197 111,-333 -47,91 -153,205 -111,333zm1048 -246l0 0c19,3 17,-15 40,-8 3,-27 -3,-45 -8,-64 -8,0 -16,0 -24,0 -23,18 -3,33 -8,72zm-1358 325l0 0c56,-121 148,-249 159,-389 -44,134 -163,234 -159,389zm2502 -349l0 0c32,-10 70,-1 87,-8 -32,-10 -70,-48 -111,-24 -7,26 26,11 24,32zm-921 0l0 0c8,32 -3,38 0,79 19,-1 38,-1 47,8 -8,-45 14,-60 16,-95 -29,-6 -34,14 -63,8zm71 87l0 0c92,23 167,-10 199,-71 -83,-57 -96,53 -143,48 3,-32 57,-45 39,-72 -87,-23 -89,38 -95,95zm278 -63l0 0c43,14 107,-14 143,-32 -52,7 -115,1 -143,32zm127 55l0 0c64,-74 246,-21 326,-23 -84,-99 -287,-57 -390,0 22,7 56,2 72,16 -8,-1 -20,3 -8,7zm-921 48l0 0c54,-28 109,-55 167,-79 0,-16 0,-32 0,-48 -74,19 -140,88 -167,127zm1294 -79l0 0c2,-26 -55,-34 -63,-24 26,2 37,46 63,24zm326 143l0 0c5,-30 22,-47 32,-72 -65,-41 -144,-110 -247,-87 70,60 161,72 215,159zm-2613 182l0 0c22,-88 83,-188 119,-262 12,-23 43,-90 24,-63 -48,102 -150,194 -143,325zm1310 -278l0 0c14,-13 20,-33 16,-63 -11,4 -41,-9 -39,8 16,10 5,48 23,55zm374 -16l0 0c51,7 84,-5 103,-31 -41,-32 -72,10 -103,31zm-461 -31l0 0c-6,29 20,44 0,63 19,0 37,0 56,0 6,-33 -12,-41 -8,-71 -25,-6 -24,13 -48,8zm183 31l0 0c-1,-20 -2,-40 -24,-39 0,21 -7,50 24,39zm889 -15l0 0c11,36 72,65 103,55 -33,-16 -56,-78 -103,-55zm-317 0l0 0c6,30 -39,9 -32,39 102,-3 247,57 309,16 14,50 85,43 120,72 -58,-114 -251,-128 -397,-127zm-826 8l0 0c-76,59 -230,82 -239,182 66,-66 176,-124 262,-143 -7,-14 1,-42 -23,-39zm508 55l0 0c29,15 66,7 79,-16 -27,4 -75,-12 -79,16zm95 8l0 0c18,20 60,-4 72,-16 -32,2 -60,-17 -72,16zm786 32l0 0c-2,-27 -23,-35 -39,-48 2,26 23,35 39,48zm-1016 -8l0 0c38,12 74,1 95,-24 -26,-14 -93,-11 -95,24zm238 24l0 0c38,4 44,41 80,47 41,-29 115,-27 174,-39 -43,-63 -200,-61 -254,-8zm874 39l0 0c37,-5 51,13 79,16 -11,-39 -18,-82 -56,-95 -13,25 -36,51 -23,79zm-1041 -39l0 0c28,20 87,-12 72,-32 -11,24 -66,3 -72,32zm715 39l0 0c-30,-44 -113,-77 -175,-63 60,15 121,70 175,63zm262 32l0 0c-14,-43 -89,-106 -103,-95 34,32 57,76 103,95zm-1167 -16l0 0c10,0 21,0 32,0 0,-29 -8,-50 -16,-71 -8,0 -16,0 -24,0 7,20 10,42 8,71zm63 0l0 0c3,-18 28,-15 24,-39 -30,6 -5,-43 -40,-32 4,25 -10,68 16,71zm1048 8l0 0c-39,-28 -82,-64 -111,-63 33,20 69,79 111,63zm-1516 -24l0 0c33,-4 54,-20 71,-39 -34,3 -57,16 -71,39zm79 0l0 0c-7,41 -28,68 -32,112 61,-35 113,-79 143,-143 -27,-11 -80,20 -111,31zm604 0l0 0c34,12 55,36 87,48 22,-5 37,-16 48,-32 -31,-16 -57,-38 -88,-55 -14,15 -33,24 -47,39zm-334 16l0 0c5,-17 12,-44 -16,-47 -1,22 2,40 16,47zm159 0l0 0c42,26 88,-5 103,-32 -47,-18 -82,3 -103,32zm1048 183l0 0c-56,-92 -121,-218 -246,-215 72,82 162,145 246,215zm-2851 71l0 0c-27,158 52,352 64,493 12,-108 33,-206 56,-302 -38,-54 -7,-152 0,-230 -29,-23 -47,67 -80,39 2,-108 109,-191 72,-286 -23,93 -93,176 -112,286zm1549 -246l0 0c13,0 26,0 40,0 -5,-11 9,-41 -8,-40 -10,15 -42,6 -32,40zm897 48l0 0c22,-5 63,10 72,-8 -51,-18 -95,-85 -151,-72 40,13 61,45 79,80zm-286 -48l0 0c-2,29 24,29 24,56 -23,-11 -30,-39 -63,-40 -3,19 -28,15 -24,40 30,17 55,40 71,71 81,-3 119,-85 199,-63 -10,-30 -45,-35 -56,-64 23,-11 41,22 48,0 -41,-48 -149,-15 -199,0zm-1913 -8l0 0c-52,106 -119,217 -96,350 17,-121 78,-282 96,-350zm627 350l0 0c69,-143 201,-223 302,-334 -2,-9 1,-22 -8,-24 -117,95 -267,199 -294,358zm333 -239l0 0c39,-22 64,-57 120,-63 1,-13 26,-41 8,-48 -30,45 -129,62 -128,111zm731 -71l0 0c40,2 45,40 87,40 4,-12 12,-20 16,-32 -25,-20 -50,-40 -87,-48 -4,15 -17,20 -16,40zm1080 0l0 0c0,-29 -42,-16 -56,-32 0,30 32,27 56,32zm-1358 48l0 0c-6,-18 14,-62 -16,-56 3,21 4,44 16,56zm175 -56l0 0c-12,4 -41,-9 -40,8 13,13 37,23 40,-8zm826 64l0 0c-11,-26 -81,-70 -88,-48 33,12 46,44 88,48zm-1057 15l0 0c5,-30 -14,-38 -7,-71 -8,0 -16,0 -24,0 -14,22 -14,84 31,71zm231 -15l0 0c28,22 38,123 0,142 9,-44 5,-86 -8,-127 -31,7 -38,36 -48,64 28,-5 -16,37 0,71 21,11 54,10 80,16 36,-59 73,-117 135,-151 -5,-38 -48,-37 -72,-55 -29,16 -31,59 -55,79 -25,-33 39,-71 23,-95 -32,5 -45,29 -55,56zm-1588 39l0 0c-4,-33 42,-58 15,-87 3,32 -43,57 -15,87zm1524 -8l0 0c9,-20 29,-29 32,-55 -14,-7 -23,-19 -40,-24 5,24 -10,68 8,79zm1080 0l0 0c15,-52 -38,-77 -55,-71 20,22 33,51 55,71zm-1675 88l0 0c54,-35 174,-84 135,-159 -49,49 -139,57 -135,159zm1874 -64l0 0c-17,-31 -3,-93 -56,-87 13,29 41,86 56,87zm-1565 -48l0 0c8,0 16,0 24,0 2,-18 -2,-29 -16,-31 -2,10 -11,15 -8,31zm254 80l0 0c17,-28 9,-90 -7,-111 -25,19 -15,91 7,111zm358 -8l0 0c14,-15 55,-3 55,-32 -33,-19 -49,-57 -87,-71 -59,21 4,77 32,103zm667 135l0 0c-71,-112 -128,-237 -318,-230 41,65 151,129 231,182 3,-25 -38,-47 -16,-63 16,55 53,90 103,111zm-437 -207l0 0c34,56 62,119 143,128 -15,-73 -58,-149 -143,-128zm977 604l0 0c4,-287 -78,-488 -238,-611 17,261 221,375 238,611zm-3224 -516l0 0c29,0 46,-54 32,-72 -11,24 -23,46 -32,72zm1382 -40l0 0c20,-3 36,-11 47,-24 -21,-8 -52,-12 -47,24zm246 95l0 0c14,-33 1,-99 -16,-127 0,48 3,92 16,127zm174 16l0 0c38,19 88,24 135,32 15,-33 39,-56 56,-87 -45,-21 -53,42 -103,39 -3,-58 59,-52 87,-79 -55,-111 -119,62 -175,95zm310 -95l0 0c48,37 97,95 175,79 -13,-48 -65,-57 -88,-95 2,-12 20,-7 32,-8 -17,-52 -95,8 -119,24zm524 16l0 0c-6,-21 -27,-67 -47,-48 21,10 22,41 47,48zm-1389 -16l0 0c5,24 -11,68 8,79 19,-51 97,-45 103,-111 -56,-8 -70,26 -111,32zm1445 24l0 0c-10,1 -19,2 -16,16 50,115 116,204 175,325 -26,-9 -20,-49 -48,-55 20,85 54,158 71,246 71,-32 64,-158 56,-215 -23,-164 -172,-292 -270,-373 -2,32 34,25 32,56zm-2629 246l0 0c44,-86 114,-188 112,-294 -54,82 -90,181 -112,294zm2835 -103l0 0c-36,-62 -59,-137 -103,-191 9,58 66,135 103,191zm-1564 0l0 0c29,-30 89,-27 127,-48 -10,-45 -8,-103 -32,-135 -69,19 -107,109 -95,183zm-318 -56l0 0c47,0 82,-91 48,-119 -46,10 -38,73 -48,119zm493 -40l0 0c26,3 13,-34 23,-47 -11,-4 -20,-12 -31,-16 4,19 11,36 8,63zm1492 175l0 0c-19,-99 -87,-193 -142,-230 58,66 68,180 142,230zm-1913 -135l0 0c6,41 -11,58 -8,95 42,-29 168,-85 135,-190 -48,27 -81,68 -127,95zm913 32l0 0c44,42 82,2 127,-16 6,-35 -11,-48 -8,-79 -75,-41 -120,16 -119,95zm413 -79l0 0c8,0 16,0 24,0 1,-20 -13,-25 -24,-32 -13,16 1,10 0,32zm-1509 158l0 0c31,-53 120,-92 87,-182 -41,43 -117,94 -87,182zm334 -111l0 0c0,24 0,48 0,72 18,-3 29,-13 55,-8 -3,-49 37,-95 24,-127 -18,29 -48,47 -79,63zm913 0l0 0c24,1 40,-7 47,-24 -23,4 -39,-39 -55,-16 17,-1 3,29 8,40zm437 215l0 0c-50,-81 -69,-224 -159,-239 -15,95 58,238 159,239zm-199 -88l0 0c-1,-67 -60,-78 -71,-135 -16,0 -32,0 -48,0 33,52 75,94 119,135zm294 72l0 0c-33,-89 -89,-155 -159,-207 46,76 101,142 159,207zm-548 -135l0 0c-17,-18 -30,-17 -40,8 63,48 153,69 262,71 -40,-66 -154,-205 -222,-79zm-111 849l0 0c-6,0 -11,0 -16,0 10,203 41,484 87,699 -18,-221 -68,-511 -24,-683 8,222 28,571 72,818 10,-27 28,-46 40,-71 -13,-197 -68,-471 0,-628 -26,204 -6,388 15,596 4,23 35,-33 40,-8 -22,34 -42,70 -32,135 64,-2 43,-52 32,-95 18,6 11,37 32,39 18,-35 34,-72 63,-95 -4,28 -8,40 -23,72 59,-42 78,-166 63,-254 -26,29 -57,54 -119,47 4,-18 -24,-43 -8,-47 35,61 99,-12 127,-32 10,-26 -26,-6 -16,-32 133,-29 145,-179 151,-334 27,16 6,80 24,104 49,-102 111,-328 0,-413 11,0 21,0 32,0 -12,-76 -35,-140 -72,-191 -2,27 -9,49 -39,48 5,-34 22,-57 31,-88 -28,-27 -42,-68 -63,-103 -107,-8 -150,46 -183,111 -6,-101 64,-126 151,-135 -40,-87 -113,-140 -191,-190 5,20 14,31 -15,32 -16,-11 -31,-22 -24,-56 -37,-21 -90,-27 -127,-48 -14,21 -12,58 -32,72 -33,-34 -2,-69 16,-95 -26,-18 -52,18 -88,15 -10,-10 -7,-34 -7,-55 -36,-17 -79,-28 -135,-24 -23,31 -36,80 0,87 -14,10 -57,31 -64,0 0,-37 26,-48 24,-87 -27,-3 -24,24 -40,32 24,179 44,363 72,540 7,14 19,23 23,39 38,206 105,444 143,675 33,195 21,417 143,532 6,-268 -87,-565 -95,-825 -1,-42 -12,-98 32,-127 23,-10 34,33 16,39 -1,-5 -2,-9 -8,-8 9,-16 8,-16 -8,-8zm-890 -810l0 0c29,-8 55,-19 80,-31 -4,-15 11,-48 -16,-40 -20,25 -45,45 -64,71zm175 -15l0 0c5,14 -10,46 8,47 40,-45 131,-38 151,-103 -66,5 -93,50 -159,56zm-310 95l0 0c54,0 75,-114 48,-143 -26,37 -61,66 -48,143zm1771 71l0 0c-22,-86 -54,-204 -135,-206 47,67 82,145 135,206zm-1969 -24l0 0c23,-50 97,-93 63,-174 -34,42 -85,124 -63,174zm730 -158l0 0c70,326 89,705 191,1016 53,305 86,619 159,874 -106,-641 -200,-1294 -334,-1906 0,10 -14,7 -16,16zm191 778l0 0c-39,-273 -67,-557 -143,-794 57,253 71,540 143,794zm1691 -199l0 0c35,-256 -72,-433 -166,-587 94,191 108,362 166,587zm-1532 1104l0 0c1,-24 -4,-44 -16,-55 2,77 22,137 32,206 18,-20 43,19 55,16 -27,-285 -136,-582 -151,-889 -9,-196 -14,-380 -71,-525 -22,-117 -43,-300 -79,-428 -5,11 9,41 -8,39 -11,-10 -4,-39 -24,-39 88,524 202,1123 262,1675zm-802 -1525l0 0c40,-44 100,-68 127,-127 -60,26 -133,37 -127,127zm151 -47l0 0c26,0 27,-26 55,-24 0,-16 0,-32 0,-48 -38,4 -63,22 -55,72zm1453 111l0 0c-31,-69 -71,-130 -119,-183 28,73 49,152 119,183zm-1787 -87l0 0c2,-25 48,-47 32,-64 -7,20 -53,42 -32,64zm8 103l0 0c27,-40 105,-111 64,-167 -21,57 -99,102 -64,167zm183 -24l0 0c38,-36 134,-56 111,-127 -30,50 -98,61 -111,127zm-1120 445l0 0c10,-207 -28,-389 -71,-564 -67,164 15,405 71,564zm2478 -413l0 0c16,0 29,43 39,24 -36,-52 -56,-119 -103,-159 3,21 -11,26 -32,24 -5,-22 16,-16 16,-32 -28,-4 -86,-20 -111,0 84,26 93,155 191,143zm516 -40l0 0c1,-9 12,-8 24,-8 -4,-46 -29,-72 -48,-103 5,40 14,76 24,111zm-429 95l0 0c-28,-59 -57,-160 -103,-174 47,56 58,109 103,174zm-1517 -55l0 0c13,-30 64,-64 32,-111 -30,26 -65,63 -32,111zm-246 -40l0 0c-5,-19 10,-57 -8,-63 -15,16 -5,52 8,63zm32 103l0 0c30,-38 48,-89 63,-143 -1,-6 -6,-9 -15,-8 0,67 -53,80 -48,151zm1834 16l0 0c-7,-48 -26,-84 -32,-135 -25,-11 -56,-18 -79,-32 32,61 34,151 111,167zm524 -111l0 0c-12,-17 -9,-49 -31,-56 4,20 22,68 31,56zm-2056 32l0 0c11,54 66,54 103,24 -9,-31 18,-98 -16,-104 -21,36 -68,44 -87,80zm1620 -80l0 0c23,69 56,130 95,183 -19,-74 -57,-128 -95,-183zm341 80l0 0c-2,-33 -1,-68 -24,-80 -3,38 6,63 24,80zm-175 159l0 0c25,86 84,139 127,206 -12,-138 38,-339 -55,-397 12,99 -29,133 -72,191zm-1858 -135l0 0c14,-11 58,-37 24,-48 1,20 -42,62 -24,48zm-103 71l0 0c36,-8 81,-76 40,-111 -12,35 -66,64 -40,111zm1834 48l0 0c-12,-83 -66,-125 -127,-159 11,79 52,171 127,159zm-2739 206l0 0c-21,-132 35,-271 16,-349 -7,111 -73,248 -16,349zm818 -262l0 0c-2,-33 51,-54 23,-87 -8,23 -38,67 -23,87zm-88 0l0 0c20,-1 38,-72 8,-71 0,26 -13,39 -8,71zm1707 -47l0 0c-16,-8 -23,-25 -47,-24 -5,24 33,45 47,24zm-2676 428l0 0c-8,-132 6,-327 0,-421 -21,126 -40,302 0,421zm3399 -349l0 0c3,-32 -10,-49 -24,-64 10,20 -3,62 24,64zm-2366 71l0 0c35,-20 61,-92 55,-127 -9,51 -53,69 -55,127zm2469 104l0 0c-3,-85 -9,-166 -31,-231 -1,88 -6,181 31,231zm-786 -135l0 0c11,0 18,-4 24,-8 5,-1 9,-1 8,-8 -27,-16 -39,-88 -79,-64 17,26 38,47 47,80zm826 333l0 0c48,-120 4,-296 -32,-405 28,145 8,260 32,405zm-2462 -254l0 0c-36,-5 -20,43 -23,72 36,-57 54,-131 87,-191 -22,6 -16,-16 -32,-16 -13,42 -64,96 -32,135zm1787 -56l0 0c7,-36 -10,-89 -40,-63 19,16 17,52 40,63zm183 32l0 0c-21,-32 -24,-82 -64,-95 3,45 35,103 64,95zm317 -39l0 0c-3,-21 -4,-44 -16,-56 6,18 -14,62 16,56zm-2453 7l0 0c36,-7 45,14 71,16 0,-18 -14,-23 -8,-47 -28,-20 -72,-22 -63,31zm2072 159l0 0c12,-123 -9,-169 -95,-198 -1,98 70,125 95,198zm453 -79l0 0c8,-35 8,-87 -24,-103 -12,26 15,72 24,103zm-620 71l0 0c-29,-47 -20,-133 -79,-151 17,55 54,132 79,151zm-2707 72l0 0c41,-16 17,-70 8,-111 -9,-37 -19,-100 -40,-96 15,54 5,145 32,207zm3192 175l0 0c25,-123 18,-303 -40,-390 5,151 -57,305 40,390zm-2382 -366l0 0c-2,26 14,34 8,64 58,3 17,-42 47,-64 -22,-8 -33,-8 -55,0zm2152 318l0 0c-3,-117 18,-257 -64,-294 -10,129 11,227 64,294zm-104 -32l0 0c39,-96 -25,-180 -71,-238 19,84 46,161 71,238zm175 -159l0 0c-3,-33 -14,-60 -32,-79 -5,42 15,59 32,79zm-3018 334l0 0c-36,-102 -37,-257 -55,-397 -10,-1 -11,-10 -24,-8 -10,171 18,305 79,405zm739 -334l0 0c7,-22 29,-60 -8,-63 3,31 -19,48 8,63zm2636 127l0 0c4,-69 -9,-123 -31,-166 1,65 -2,134 31,166zm-2509 -39l0 0c24,-31 2,-77 24,-119 -91,-15 -62,93 -24,119zm40 79l0 0c5,-49 35,-136 0,-175 5,59 -24,125 0,175zm2191 -63l0 0c10,-55 -25,-107 -47,-104 25,25 14,87 47,104zm-381 47l0 0c-8,-55 -21,-105 -47,-143 2,62 23,103 47,143zm596 -71l0 0c-2,-17 6,-85 -8,-64 2,17 -6,85 8,64zm-3200 47l0 0c-16,-26 -14,-71 -32,-95 7,30 4,112 32,95zm2922 350l0 0c21,-128 75,-362 -32,-437 35,151 -46,335 32,437zm-238 -151l0 0c62,-73 7,-205 -24,-278 2,94 38,194 24,278zm-2533 397l0 0c-78,-214 -172,-411 -231,-643 -10,-1 -11,-10 -24,-8 -29,269 139,474 255,651zm667 -524l0 0c22,-7 20,11 39,8 -2,-19 -17,-34 8,-40 0,8 0,16 0,24 33,-4 38,-36 48,-64 -26,0 -60,-13 -80,-39 -10,32 -14,70 -15,111zm1945 214l0 0c48,-87 74,-210 0,-286 -22,86 -15,197 0,286zm437 -16l0 0c14,-52 53,-128 24,-174 43,0 10,-76 0,-96 1,94 -28,201 -24,270zm-3065 207l0 0c15,-65 -30,-136 -56,-207 -27,-73 -56,-145 -71,-222 -2,-9 -9,-12 -16,-16 13,162 97,306 143,445zm1802 532l0 0c5,43 0,96 24,119 55,-10 18,-60 16,-87 -31,-343 -106,-690 -175,-977 57,295 102,624 135,945zm921 -874l0 0c-4,-19 10,-57 -8,-63 -7,20 -14,53 8,63zm318 -16l0 0c-12,85 32,4 8,-47 2,31 -6,30 -8,47zm-2192 215l0 0c-102,-59 -225,-182 -270,-246 54,113 162,214 270,246zm1978 32l0 0c42,-78 133,-210 39,-286 -7,91 -58,221 -39,286zm-2637 -32l0 0c-15,-65 -26,-133 -47,-191 0,79 15,143 47,191zm2200 246l0 0c28,-133 98,-267 79,-421 -7,154 -87,278 -79,421zm214 72l0 0c62,-116 140,-324 88,-477 -40,143 -130,264 -88,477zm397 -302l0 0c-9,-65 31,-123 8,-175 -7,55 -35,132 -8,175zm40 63l0 0c41,-67 83,-151 71,-230 -10,85 -68,164 -71,230zm-1271 453l0 0c-27,-235 -59,-465 -111,-675 14,248 63,462 111,675zm683 -381l0 0c24,-92 110,-193 48,-278 4,107 -57,191 -48,278zm135 -135l0 0c-5,-45 11,-111 -8,-143 -11,37 -34,120 8,143zm-2866 -127l0 0c39,188 161,405 294,500 -114,-141 -164,-345 -263,-500 13,51 58,111 48,159 -27,-52 -33,-126 -79,-159zm3073 190l0 0c3,62 -3,91 16,127 50,-76 94,-202 103,-293 -28,67 -51,139 -119,166zm-1707 -95l0 0c-83,27 -200,-9 -247,-16 47,53 190,83 247,16zm1286 135l0 0c26,-17 48,-79 32,-111 -6,42 -34,62 -32,111zm286 199l0 0c48,-84 123,-205 79,-310 6,115 -62,223 -79,310zm349 -88l0 0c40,-61 98,-146 96,-222 -30,71 -114,129 -96,222zm-1993 -182l0 0c34,8 92,19 87,-32 -31,8 -60,19 -87,32zm-1239 71l0 0c-4,-27 -15,-49 -31,-64 7,25 9,55 31,64zm3153 103l0 0c15,-34 73,-105 32,-143 1,55 -42,106 -32,143zm-1382 16l0 0c11,-32 -6,-98 -24,-127 4,47 11,89 24,127zm-1715 -40l0 0c-15,-24 -41,-61 -56,-55 76,104 141,262 254,302 -80,-57 -145,-161 -198,-247zm2636 64l0 0c19,-32 57,-86 32,-135 -5,50 -70,90 -32,135zm-222 32l0 0c24,79 -31,157 -16,214 55,-54 188,-235 103,-318 9,-3 31,-31 8,-39 -26,53 -64,94 -95,143zm-2168 39l0 0c119,133 223,313 357,429 26,22 65,47 104,40 -226,-158 -376,-392 -509,-643 -25,69 46,107 48,174zm2430 24l0 0c5,-66 58,-127 40,-190 -16,55 -49,137 -40,190zm326 -47l0 0c45,-12 75,-120 55,-143 -10,56 -33,99 -55,143zm111 -32l0 0c24,-16 40,-81 31,-103 -10,29 -42,79 -31,103zm-207 -24l0 0c25,6 16,-22 40,-16 1,-25 -4,-44 -16,-56 8,40 -25,39 -24,72zm80 32l0 0c4,-34 46,-70 31,-96 -4,33 -62,78 -31,96zm-2573 103l0 0c-28,-11 -49,-52 -72,-79 -21,-26 -53,-68 -63,-56 46,62 78,139 143,183 6,-25 -14,-24 -8,-48zm1366 333l0 0c7,44 6,107 47,128 61,-18 16,-95 8,-135 -32,-157 -56,-340 -111,-461 19,154 32,333 56,468zm778 -317l0 0c17,-39 58,-96 40,-143 -9,47 -73,80 -40,143zm159 -72l0 0c33,10 29,-60 16,-71 -2,27 -21,38 -16,71zm174 -63l0 0c4,25 -24,18 -15,48 35,-8 60,-24 71,-56 -25,-4 -28,14 -56,8zm-1048 127l0 0c-1,-41 -3,-82 -24,-103 5,37 2,82 24,103zm755 16l0 0c14,-28 57,-70 39,-103 -7,34 -54,72 -39,103zm111 182l0 0c-5,57 -56,109 -48,151 45,-74 175,-139 151,-230 15,-2 17,9 32,8 27,-67 127,-146 87,-206 -109,49 -129,263 -222,277zm341 -270l0 0c-46,108 -156,194 -174,302 73,-74 157,-223 174,-302zm-278 135l0 0c12,-48 44,-78 56,-127 -36,20 -58,96 -56,127zm215 -71l0 0c6,-20 21,-31 23,-56 -30,-9 -28,56 -23,56zm-501 413l0 0c133,-80 262,-264 231,-453 -65,163 -183,273 -231,453zm32 -357l0 0c-2,-19 1,-31 8,-40 -27,-3 -45,44 -8,40zm-643 127l0 0c4,-38 -15,-117 -32,-159 2,61 12,115 32,159zm-619 373l0 0c-330,-111 -588,-315 -810,-508 167,251 461,443 810,508zm1278 -350l0 0c26,-39 65,-110 64,-150 -47,20 -70,104 -64,150zm-127 0l0 0c43,-36 89,-70 111,-127 -63,-46 -92,105 -111,127zm246 183l0 0c-44,36 -104,54 -119,103 159,-68 268,-187 349,-333 -93,51 -147,163 -230,230zm-222 -95l0 0c55,-6 84,-80 71,-127 -23,43 -49,83 -71,127zm-1771 47l0 0c-46,-57 -113,-135 -175,-150 62,47 104,113 175,150zm1676 -63l0 0c19,7 34,18 63,16 -3,-37 55,-56 32,-88 -21,35 -73,39 -95,72zm-183 40l0 0c28,4 19,-29 48,-24 -3,-27 -4,-54 -16,-72 -9,31 -55,59 -32,96zm-755 254l0 0c54,3 243,0 223,-80 -49,-19 -165,-3 -223,-8 -241,-17 -434,-150 -627,-214 140,102 407,288 627,302zm636 -199l0 0c17,18 23,-10 47,-8 -10,-32 -36,-48 -55,-71 -3,32 14,44 8,79zm214 72l0 0c33,-4 35,23 72,16 19,-50 36,-102 63,-143 -22,-7 -32,-26 -63,-24 -10,65 -52,96 -72,151zm167 -127l0 0c-19,34 -33,72 -56,103 53,-33 95,-75 127,-127 -24,8 -42,21 -71,24zm-1350 230l0 0c-143,-53 -262,-130 -381,-207 80,111 229,195 381,207zm1096 -151l0 0c29,3 33,-20 40,-40 -12,5 -42,-9 -40,8 20,1 2,27 0,32zm198 64l0 0c77,13 118,-52 104,-104 -26,44 -72,67 -104,104zm-309 23l0 0c44,-14 71,-45 71,-103 -73,31 -38,69 -71,103zm-1215 112l0 0c-102,-68 -246,-136 -342,-183 101,74 217,132 342,183zm1651 -135l0 0c38,0 53,-22 64,-48 -26,11 -54,21 -64,48zm-1778 0l0 0c35,33 117,62 166,55 -58,-9 -114,-115 -166,-55zm690 -8l0 0c-43,6 -88,-28 -119,-8 35,2 87,29 119,8zm120 0l0 0c29,-3 51,1 71,8 10,-31 -95,-16 -71,-8zm659 31l0 0c21,-2 27,-20 31,-39 -29,-6 -35,12 -31,39zm182 88l0 0c60,-16 136,-54 135,-104 -67,12 -69,90 -135,104zm-16 -80l0 0c10,2 9,13 8,24 -14,-1 -18,8 -15,24 51,-1 66,-40 95,-64 -46,15 -58,16 -88,16zm-675 32l0 0c34,5 56,-3 48,-40 -18,0 -37,0 -55,0 -7,23 11,21 7,40zm580 79l0 0c37,9 27,-31 64,-23 1,-15 -9,-18 -8,-32 -38,-1 -62,12 -56,55zm32 -63l0 0c4,-25 -17,-25 -40,-24 0,11 0,21 0,32 19,2 31,-1 40,-8zm-254 71l0 0c-2,-31 46,-68 8,-87 -17,10 -26,69 -8,87zm159 -39l0 0c32,3 46,-13 39,-48 -13,0 -26,0 -39,0 0,16 0,32 0,48zm-310 0l0 0c-4,-15 11,-48 -16,-40 1,26 -19,38 16,40zm-1112 8l0 0c-29,-5 -94,-51 -95,-32 28,9 62,54 95,32zm429 119l0 0c12,-33 30,-60 48,-88 -147,5 -259,-69 -389,-55 106,55 230,92 341,143zm453 -111l0 0c24,-5 68,10 79,-8 -16,-3 -2,-36 -24,-32 -16,15 -49,14 -55,40zm460 8l0 0c19,3 17,-15 40,-8 0,-8 0,-16 0,-24 -23,0 -30,18 -40,32zm88 -8l0 0c0,15 0,31 0,47 23,-15 25,-3 39,-24 -33,2 0,-12 0,-23 -15,-15 -20,-1 -39,0zm-1088 135l0 0c-71,-38 -202,-85 -302,-120 77,60 184,85 302,120zm1151 -64l0 0c40,-16 90,-21 111,-56 -42,14 -90,21 -111,56zm-190 -32l0 0c-6,25 8,29 7,48 38,3 52,-17 80,-24 6,-22 -11,-20 -8,-40 -30,2 -57,7 -79,16zm-842 80l0 0c147,7 263,-18 357,-64 -105,-11 -349,-83 -357,64zm802 -16l0 0c15,-2 27,-46 8,-56 2,19 -35,39 -8,56zm-675 55l0 0c73,8 110,12 175,16 2,-15 -11,-15 -16,-24 53,-10 192,11 230,-7 6,-36 -11,-48 -8,-80 -89,-12 -128,25 -191,40 9,19 118,-20 135,0 -65,22 -129,-3 -182,32 9,1 19,2 16,15 -51,28 -119,-54 -159,8zm587 -47l0 0c-22,1 10,-52 -23,-40 -7,24 8,65 23,40zm143 16l0 0c15,6 72,-13 80,-40 -25,15 -69,11 -80,40zm-293 16l0 0c17,-1 3,-34 8,-48 -8,0 -16,0 -24,0 5,16 -13,55 16,48zm420 -8l0 0c16,93 33,217 48,309 5,29 -3,76 24,80 -29,-128 -12,-301 -56,-413 -5,0 -10,0 -16,0 0,8 0,16 0,24zm-127 15l0 0c82,542 148,1037 215,1612 -6,-460 -83,-936 -159,-1342 -7,-36 -49,-120 24,-135 10,246 50,471 87,723 16,108 30,218 40,326 10,113 5,231 48,317 -39,-502 -110,-1031 -183,-1524 -21,11 -38,25 -72,23zm-63 32l0 0c88,518 122,1090 175,1644 33,-609 -59,-1152 -143,-1668 -8,0 -16,0 -24,0 -1,11 -10,11 -8,24zm-143 8l0 0c-2,142 8,375 63,508 12,-151 -47,-288 -47,-420 16,50 24,107 40,158 10,-69 -16,-162 -16,-246 -14,0 -27,0 -40,0zm-48 151l0 0c-24,-31 -1,-110 -31,-135 4,46 5,137 31,135zm175 1064l0 0c34,9 40,45 79,48 -34,-429 -47,-879 -143,-1247 11,375 57,778 64,1199zm40 -762l0 0c11,65 5,-96 -8,-48 1,-4 7,42 8,48zm317 651l0 0c-19,-229 -53,-412 -111,-611 37,222 48,421 111,611zm-397 -143l0 0c-10,0 -7,-14 -16,-16 24,72 2,189 32,254 8,-189 -3,-492 -47,-643 5,130 11,250 31,405zm-976 -175l0 0c1,-14 13,-18 31,-16 -22,-38 -109,-54 -158,-39 57,3 80,41 127,55zm-842 119l0 0c10,1 19,3 16,16 -41,7 -70,26 -72,72 73,-21 103,-93 159,-135 64,-48 145,-63 207,-119 -151,8 -237,81 -310,166zm516 -127l0 0c35,1 57,-11 71,-31 -27,7 -64,4 -71,31zm238 32l0 0c-29,-26 -72,-39 -111,-55 -2,15 9,17 8,31 56,-18 78,38 103,24zm1207 397l0 0c-2,-151 -4,-303 -32,-429 4,119 11,302 32,429zm-1096 -405l0 0c22,11 52,41 72,8 -27,-5 -53,-39 -72,-8zm366 135l0 0c-47,-56 -113,-136 -199,-127 70,34 140,109 199,127zm-818 -119l0 0c-15,3 -34,3 -32,24 27,2 64,-6 79,8 -1,-20 13,-25 16,-40 -21,-2 -51,53 -63,8zm635 111l0 0c-33,-25 -51,-107 -111,-79 41,17 75,83 111,79zm-866 -16l0 0c47,2 95,-38 88,-63 -23,27 -65,35 -88,63zm437 32l0 0c6,105 49,173 111,223 -8,-85 -31,-187 -79,-207 23,-24 46,-49 48,-95 -38,-23 -42,-5 -72,8 14,10 31,16 32,39 -26,14 -38,-38 -40,0 -2,26 31,17 32,40 -15,2 -18,-9 -32,-8zm246 -24l0 0c-2,-29 9,-44 16,-63 -51,-33 -58,53 -16,63zm-444 -47l0 0c-14,0 -27,0 -40,0 -12,24 52,24 40,0zm468 55l0 0c31,-1 58,43 80,24 -25,-23 -37,-59 -72,-71 6,24 -8,29 -8,47zm326 183l0 0c-14,-105 -85,-196 -159,-214 67,57 115,133 159,214zm-493 -103l0 0c13,-21 33,-96 0,-111 -8,40 -11,88 0,111zm-389 -16l0 0c54,3 59,-42 72,-80 -29,-7 -7,36 -32,32 2,-21 -3,-34 -24,-32 -3,29 -17,46 -16,80zm-151 63l0 0c62,-6 49,-89 80,-127 -2,-6 -7,-9 -16,-8 -10,56 -64,69 -64,135zm938 32l0 0c-26,-65 -84,-139 -136,-151 33,63 81,110 136,151zm-1080 -24l0 0c24,13 63,-18 111,-8 2,-42 65,-101 39,-119 -53,35 -163,51 -150,127zm420 -55l0 0c-15,-14 7,-65 -23,-64 -8,21 -21,74 23,64zm810 55l0 0c7,-67 -60,-104 -87,-111 36,30 59,74 87,111zm-698 -111l0 0c-12,9 -20,23 -40,24 5,146 113,189 190,262 -58,-87 -105,-185 -150,-286zm452 191l0 0c-1,-107 -44,-173 -135,-191 4,105 63,154 135,191zm-770 -104l0 0c4,-12 30,-42 8,-55 -2,14 -29,44 -8,55zm945 104l0 0c-19,-61 -42,-117 -87,-151 23,56 42,116 87,151zm-1501 24l0 0c-58,99 -105,228 -111,341 53,-199 203,-342 270,-500 -66,7 -119,90 -159,159zm1048 -96l0 0c0,-21 33,-51 8,-71 -12,23 -36,47 -8,71zm48 8l0 0c8,-15 38,-49 8,-55 -9,7 -30,43 -8,55zm-389 64l0 0c14,-40 16,-72 -8,-104 -2,28 -25,91 8,104zm651 31l0 0c25,18 50,35 95,32 7,-89 -72,-133 -111,-151 15,31 17,73 16,119zm238 199l0 0c7,-139 2,-267 -71,-326 52,94 37,230 71,326zm-1382 -199l0 0c45,-26 77,-66 112,-103 -53,-11 -78,70 -112,103zm898 8l0 0c41,-9 56,-88 16,-111 -35,29 -33,63 -16,111zm-1025 64l0 0c53,-40 75,-111 112,-167 -57,36 -85,101 -112,167zm167 -48l0 0c36,-34 148,-94 135,-119 -51,28 -138,63 -135,119zm223 -87l0 0c18,-3 37,-5 31,-32 -13,0 -26,0 -39,0 -2,15 9,18 8,32zm349 71l0 0c-24,-28 -7,-99 -56,-103 -5,0 -10,0 -16,0 11,43 43,105 72,103zm834 40l0 0c-19,-42 -19,-103 -48,-135 0,56 23,130 48,135zm-1287 -71l0 0c32,-2 32,-11 72,-16 -5,-12 9,-41 -8,-40 -18,22 -65,15 -64,56zm516 230l0 0c-27,-110 -100,-175 -158,-254 -8,117 99,178 158,254zm1200 -183l0 0c-1,-26 -5,-49 -16,-63 6,20 -16,68 16,63zm-961 0l0 0c35,47 74,90 119,127 40,-44 -51,-123 -80,-174 -7,21 -28,29 -39,47zm182 24l0 0c-1,-15 9,-17 8,-32 -21,-11 -27,-36 -55,-39 12,27 14,65 47,71zm-198 24l0 0c-25,-23 -18,-77 -56,-87 -28,45 26,101 56,87zm-95 71l0 0c3,-60 -87,-134 -135,-143 43,50 85,100 135,143zm539 -79l0 0c1,-30 -3,-55 -15,-71 0,28 -5,62 15,71zm-1310 79l0 0c60,-46 150,-62 183,-135 -78,28 -161,52 -183,135zm2097 636l0 0c15,-75 49,-131 39,-231 82,-147 10,-383 -8,-532 16,261 -26,529 -31,763zm-1311 -540l0 0c-26,-104 -121,-139 -174,-215 22,108 104,155 174,215zm-325 -119l0 0c1,-33 -14,-50 -8,-88 -8,0 -16,0 -24,0 9,31 8,71 32,88zm627 -40l0 0c22,34 56,55 111,55 21,-24 -5,-59 8,-79 -21,21 -71,-10 -103,-24 2,23 -18,25 -16,48zm770 738l0 0c50,-112 96,-256 96,-373 10,-28 50,4 47,-24 -1,-146 11,-307 -87,-357 -15,259 -34,520 -56,754zm-1215 -405l0 0c-12,-68 18,-93 40,-127 -82,-58 -130,-150 -206,-214 37,132 88,250 166,341zm636 215l0 0c21,-46 87,-111 55,-159 73,-83 106,-274 48,-397 -15,228 -52,418 -103,556zm-1088 -405l0 0c39,-17 38,-115 40,-143 -39,30 -57,77 -40,143zm651 -103l0 0c-10,-17 -13,-41 -40,-40 -6,27 60,51 40,40zm1008 63l0 0c-21,-10 6,-111 -15,-95 5,27 -14,118 15,95zm-1421 79l0 0c-19,-55 -15,-132 -56,-166 -1,70 24,156 56,166zm1429 159l0 0c16,-90 27,-227 8,-325 18,143 -49,243 -8,325zm-897 -262l0 0c-15,-22 -37,-37 -55,-55 5,26 36,69 55,55zm-1207 32l0 0c13,-21 18,-50 32,-71 -24,5 -41,59 -32,71zm596 0l0 0c-11,-27 -10,-65 -40,-71 3,34 16,57 40,71zm802 40l0 0c-25,-39 -44,-126 -104,-104 39,30 58,81 104,104zm-350 -48l0 0c63,35 111,85 175,119 -21,-92 -101,-126 -175,-167 0,16 0,32 0,48zm215 -32l0 0c1,25 41,54 55,40 -22,-8 -29,-60 -55,-40zm-397 318l0 0c-67,-100 -124,-210 -183,-318 30,137 87,247 183,318zm595 -222l0 0c7,-23 -11,-21 -8,-40 23,1 14,34 40,32 2,-7 7,-10 16,-8 -14,-34 5,-40 -8,-64 -41,22 -95,-17 -127,0 44,12 28,84 87,80zm-1286 992l0 0c-82,-77 -117,-201 -151,-325 -35,6 -32,-27 -48,-40 -11,-96 -62,-146 -71,-230 -19,-171 41,-332 63,-469 -85,166 -143,436 -55,643 2,27 24,-31 31,0 -20,170 130,346 231,421zm818 -937l0 0c52,-39 -60,-112 -88,-119 33,36 29,109 88,119zm-397 24l0 0c-14,-53 -34,-99 -64,-135 17,49 23,110 64,135zm-532 -24l0 0c-3,-27 42,-80 0,-95 -15,15 -31,84 0,95zm1358 72l0 0c0,-33 -14,-50 -8,-88 -71,0 -136,-49 -191,-39 38,70 91,126 199,127zm-779 -40l0 0c1,-27 -23,-72 -39,-56 27,5 14,50 39,56zm453 -32l0 0c73,35 141,118 222,119 -53,-66 -127,-110 -206,-151 0,16 -22,11 -16,32zm-87 32l0 0c10,0 17,4 23,8 7,-15 30,-41 0,-48 0,21 -34,9 -23,40zm-493 48l0 0c-9,-28 -17,-57 -39,-72 9,28 17,57 39,72zm56 15l0 0c3,-35 -8,-55 -24,-71 -2,34 1,63 24,71zm413 120l0 0c-32,-55 -34,-119 -40,-183 -2,-6 -7,-9 -16,-8 -45,76 -3,155 56,191zm198 -80l0 0c-12,-54 -65,-109 -111,-103 14,58 60,83 111,103zm342 -63l0 0c23,9 34,-34 16,-40 -9,10 -23,14 -16,40zm-842 87l0 0c-31,-35 -45,-87 -79,-119 7,54 56,107 79,119zm349 -56l0 0c6,-34 -17,-41 -39,-47 8,21 6,52 39,47zm953 247l0 0c20,-81 43,-201 32,-286 -6,91 -56,217 -32,286zm-611 -207l0 0c15,-14 -7,-20 0,-48 -18,-6 -31,-16 -56,-15 7,32 41,38 56,63zm-794 103l0 0c-21,-61 -55,-109 -96,-151 15,63 65,132 96,151zm834 -87l0 0c11,-12 12,-35 15,-56 -24,6 -29,-8 -47,-8 13,19 -4,68 32,64zm103 -56l0 0c11,28 -9,38 8,56 14,-7 38,-46 16,-64 -2,10 -13,9 -24,8zm-842 127l0 0c-11,-54 -49,-83 -79,-119 -13,49 52,85 79,119zm389 16l0 0c-27,-46 -47,-100 -87,-135 12,62 48,101 87,135zm294 -71l0 0c-58,-13 -96,-47 -151,-64 8,59 91,84 151,64zm-183 127l0 0c-1,-26 14,-34 8,-64 -72,-12 -120,-91 -159,-111 34,75 100,117 151,175zm-286 40l0 0c33,-56 -38,-73 -63,-96 -39,-35 -56,-84 -95,-111 18,103 89,154 158,207zm-47 -143l0 0c-30,-13 -34,-52 -64,-64 11,27 45,72 64,64zm1469 79l0 0c21,-38 13,-104 0,-135 9,49 -25,97 0,135zm-1096 -55l0 0c0,-40 -45,-77 -71,-64 29,16 37,52 71,64zm286 39l0 0c2,-29 20,-44 24,-71 -30,-6 -30,79 -24,71zm-246 -24l0 0c31,-8 98,19 103,-15 -22,-21 -74,-12 -103,-24 0,13 0,26 0,39zm953 64l0 0c0,-36 20,-54 16,-95 -26,6 -21,84 -16,95zm-882 87l0 0c80,3 107,-46 111,-119 19,12 57,-47 24,-55 -31,71 -86,120 -135,174zm-1374 -55l0 0c-5,-32 11,-85 -8,-104 -9,36 -28,84 8,104zm795 -32l0 0c-11,-32 -37,-48 -56,-72 2,41 35,50 56,72zm1286 -56l0 0c4,179 -88,351 -127,509 -8,31 -14,77 0,103 63,-125 188,-231 151,-429 -1,38 -23,76 -32,111 -10,41 5,106 -48,119 20,-117 91,-275 72,-429 -1,10 -3,19 -16,16zm-1302 207l0 0c-82,-49 -123,-137 -191,-199 31,93 97,195 191,199zm532 -143l0 0c29,-8 60,-14 71,-40 -32,6 -45,-7 -71,-8 -1,30 -9,23 0,48zm1032 -8l0 0c-16,174 -83,341 -95,492 74,-134 141,-319 127,-516 -7,12 -12,25 -32,24zm-1390 63l0 0c27,14 51,5 64,-15 -9,-29 -43,-31 -64,-48 0,21 0,42 0,63zm501 40l0 0c45,-5 65,-77 63,-103 -23,33 -35,76 -63,103zm-1454 16l0 0c11,-14 20,-79 -15,-71 5,39 -4,45 15,71zm1009 -32l0 0c17,23 53,26 79,40 23,-20 62,-23 72,-56 -64,12 -136,-63 -151,16zm1191 239l0 0c63,-43 77,-178 64,-270 -33,96 -32,177 -64,270zm-1334 -191l0 0c-25,-8 -53,-53 -71,-40 22,10 48,58 71,40zm262 0l0 0c45,-3 95,0 103,-40 -42,-19 -79,16 -103,40zm-985 48l0 0c5,-17 17,-26 24,-40 -18,-9 -14,-39 -32,-48 -11,33 -10,61 8,88zm2073 -88l0 0c-33,89 10,70 0,0zm-2184 88l0 0c16,2 21,16 32,23 7,-21 7,-94 -32,-95 0,24 0,48 0,72zm1310 -16l0 0c8,-22 44,-15 32,-56 -13,0 -26,0 -40,0 5,17 -9,52 8,56zm-166 16l0 0c52,2 78,-23 103,-48 -35,15 -80,21 -103,48zm810 127l0 0c-2,-53 42,-101 24,-143 -15,36 -39,104 -24,143zm389 -24l0 0c34,2 30,-76 24,-88 -12,26 -20,55 -24,88zm-238 95l0 0c18,-48 55,-119 39,-175 -15,52 -65,109 -39,175zm-2065 -87l0 0c-6,-30 10,-38 8,-64 -19,-9 -21,2 -40,-16 4,33 -3,77 32,80zm993 -16l0 0c89,43 305,82 309,-64 -94,31 -198,51 -309,64zm690 476l0 0c111,-127 205,-314 207,-524 -75,164 -157,362 -207,524zm-1556 -254l0 0c-26,-64 -32,-190 -79,-206 22,73 35,155 79,206zm2136 8l0 0c4,-69 71,-154 32,-214 -10,67 -45,151 -32,214zm-2104 -87l0 0c14,25 27,-27 39,0 -21,90 81,118 127,167 -11,-36 -9,-70 8,-96 -93,-44 -152,-122 -222,-190 6,49 37,74 48,119zm-111 222l0 0c18,23 56,65 87,40 -21,-65 -81,-102 -119,-151 -40,-52 -68,-108 -96,-175 -1,-6 -6,-9 -15,-8 40,106 81,218 143,294zm2017 -111l0 0c25,-56 46,-117 71,-175 -15,2 -18,-9 -32,-8 -4,62 -71,137 -39,183zm-1859 40l0 0c-26,-45 -38,-105 -71,-143 19,45 17,115 71,143zm1898 -24l0 0c5,-25 41,-93 24,-87 -3,28 -45,60 -24,87zm-8 262l0 0c68,-100 152,-192 135,-357 -26,133 -120,240 -135,357zm-222 -167l0 0c38,-45 114,-133 95,-182 -15,72 -98,118 -95,182zm64 16l0 0c19,-52 70,-114 71,-159 -27,45 -70,116 -71,159zm-1541 40l0 0c-23,-75 -112,-126 -167,-143 36,67 97,110 167,143zm1342 24l0 0c48,-40 118,-99 103,-175 -34,58 -63,122 -103,175zm341 8l0 0c-58,94 -164,149 -206,230 166,-54 238,-244 286,-389 -36,48 -48,107 -80,159zm-1850 -64l0 0c3,-32 0,-58 -24,-64 -4,33 15,44 24,64zm1723 175l0 0c42,-70 141,-125 135,-215 -29,92 -107,140 -135,215zm-1635 -119l0 0c-20,-23 -29,-57 -56,-72 -4,38 64,81 56,72zm-8 119l0 0c-47,-63 -82,-136 -151,-175 -48,103 92,128 151,175zm1675 -80l0 0c10,-29 69,-52 48,-87 -21,19 -63,59 -48,87zm-1548 40l0 0c-7,-32 -2,-27 0,-64 -13,-16 -59,1 -72,-15 14,36 44,56 72,79zm1373 -40l0 0c23,0 57,-22 24,-31 -3,15 -31,6 -24,31zm-1334 56l0 0c36,-9 62,33 88,8 -39,-14 -56,-50 -96,-64 -4,26 6,37 8,56zm-103 111l0 0c0,-16 0,-32 0,-48 -89,-8 -152,-85 -214,-95 56,63 128,110 214,143zm1636 32l0 0c22,-11 60,-37 79,-64 22,-30 57,-112 48,-119 -45,59 -103,104 -127,183zm-1509 -64l0 0c-46,-46 -141,-86 -190,-103 56,42 87,108 190,103zm1152 -24l0 0c11,62 -59,85 -48,120 84,-43 115,-140 206,-175 -7,-15 24,-27 0,-32 -58,23 -105,59 -158,87zm-1001 8l0 0c-34,-16 -103,-39 -143,-23 40,8 103,66 143,23zm8 24l0 0c47,26 188,96 286,48 -112,6 -205,-49 -286,-48zm834 48l0 0c24,7 25,38 55,40 31,-28 67,-51 80,-96 -48,16 -91,37 -135,56zm-580 71l0 0c-96,-37 -215,-25 -310,-63 -41,-17 -77,-66 -135,-32 128,64 278,137 445,95zm-413 -47l0 0c-35,-10 -56,-34 -87,-48 4,36 67,55 87,48zm667 55l0 0c41,8 57,2 88,-16 7,-28 -21,-41 7,-47 -3,25 12,31 16,47 41,-20 98,-24 104,-79 -108,-4 -165,42 -215,95zm135 8l0 0c86,4 166,2 215,-32 -46,-113 -154,0 -215,32zm-397 -47l0 0c90,28 195,12 262,-24 -109,0 -188,-15 -262,24zm-159 87l0 0c-85,-26 -198,-67 -278,-72 73,39 183,83 278,72zm516 79l0 0c189,-1 343,-39 429,-143 -146,14 -277,109 -429,143zm-325 -87l0 0c-8,0 -6,10 8,8 39,35 145,10 190,0 -58,-7 -136,-31 -198,-8zm-64 8l0 0c-6,-8 -50,-17 -55,0 14,0 46,21 55,0zm286 63l0 0c103,0 177,-29 246,-63 -79,23 -164,42 -246,63zm-39 8l0 0c-138,-40 -368,-30 -501,-47 117,59 346,103 501,47z"/>
   <path class="fil0" d="M4969 1386c24,22 -8,56 -8,80 -18,-16 15,-48 8,-80z"/>
   <path class="fil0" d="M5636 2061c23,11 -2,40 -8,48 -16,53 2,-29 8,-48z"/>
   <path class="fil0" d="M3476 2673c21,16 12,62 24,87 -12,6 -25,-54 -24,-87z"/>
   <path class="fil0" d="M2912 6143c7,6 18,9 32,8 0,12 -30,32 -8,40 -12,18 -24,-28 -24,-48z"/>
  </g>
 </g>
</svg>
