<?xml version="1.0" encoding="UTF-8"?>
<!DOCTYPE svg PUBLIC "-//W3C//DTD SVG 1.1//EN" "http://www.w3.org/Graphics/SVG/1.1/DTD/svg11.dtd">
<!-- Creator: CorelDRAW X8 -->
<svg xmlns="http://www.w3.org/2000/svg" xml:space="preserve" width="8.5in" height="11in" version="1.1" style="shape-rendering:geometricPrecision; text-rendering:geometricPrecision; image-rendering:optimizeQuality; fill-rule:evenodd; clip-rule:evenodd"
viewBox="0 0 8500 11000"
 xmlns:xlink="http://www.w3.org/1999/xlink">
 <defs>
  <style type="text/css">
   <![CDATA[
    .fil0 {fill:#090968}
   ]]>
  </style>
 </defs>
 <g id="Layer_x0020_1">
  <metadata id="CorelCorpID_0Corel-Layer"/>
  <path class="fil0" d="M3562 255c-23,1659 -43,3351 -27,4967 319,-78 763,-345 1242,-216 228,61 486,342 647,513 127,134 220,790 189,1107 -132,1374 -1347,2844 -2105,3670 -42,106 13,169 -27,243 -181,-218 -252,329 -486,216 -105,-316 -54,-734 -54,-1160 0,-712 14,-1467 27,-2160 22,-103 -79,-83 -81,-162 -40,-102 121,-5 81,-108 9,-2324 95,-4729 81,-6883 174,52 308,-114 513,-27zm-108 2915l0 0c33,-194 -68,-256 -162,-323 -35,154 -17,291 108,350 13,-78 -112,-155 -54,-189 42,49 74,106 108,162zm-81 -2159l0 0c0,-72 15,-159 -54,-162 0,72 -15,159 54,162zm-135 81l0 0c0,-72 15,-159 -54,-162 16,56 -43,188 54,162zm108 216l0 0c37,-36 51,-189 -27,-189 16,56 -33,177 27,189zm-108 378l0 0c-3,-96 20,-218 -81,-216 9,90 28,170 81,216zm108 459l0 0c0,-72 15,-159 -54,-162 0,71 -15,159 54,162zm108 405l0 0c-15,-40 32,-140 -27,-135 -86,92 -46,-168 -135,-162 -59,115 94,221 162,297zm-54 243l0 0c-30,-105 -29,-241 -135,-270 -18,153 40,229 135,270zm-54 647l0 0c-8,-53 36,-53 54,-81 -155,-6 -97,-226 -216,-269 1,169 105,237 162,350zm-27 324l0 0c-33,-110 -40,-248 -135,-297 37,108 54,235 135,297zm-54 216l0 0c-23,-66 7,-187 -81,-189 1,89 -11,191 81,189zm-189 81l0 0c83,41 83,-176 0,-135 0,45 0,90 0,135zm270 378l0 0c-9,-62 4,-104 27,-135 -35,-1 -37,-34 -81,-27 -46,46 16,122 54,162zm-54 324l0 0c85,35 85,-224 0,-189 0,63 0,126 0,189zm54 567l0 0c-3,-69 -5,-139 -81,-135 -13,85 34,110 81,135zm0 243l0 0c-10,-81 -16,-165 -81,-189 1,89 -11,191 81,189zm1431 -27l0 0c2,-85 -120,-185 -162,-135 79,20 52,146 162,135zm-27 297l0 0c1,-128 -99,-154 -162,-216 59,66 15,236 162,216zm-918 81l0 0c-36,67 107,84 27,108 -176,-42 -215,55 -324,81 35,785 -118,1565 54,2483 -130,162 1,444 -27,675 208,-79 241,-328 351,-486 183,-263 397,-498 540,-783 14,-118 8,-89 27,-189 182,-169 226,-475 297,-756 -1,-35 -48,-24 -54,-54 164,-357 49,-1071 -378,-998 -14,-86 134,-10 108,-108 -45,-55 -91,-108 -189,-108 -86,13 -81,117 -162,135 39,-246 -175,-66 -270,0zm1404 189l0 0c-24,-130 -155,-295 -243,-270 53,117 110,232 243,270zm-163 270l0 0c-46,-163 -146,-284 -188,-378 -26,126 63,318 188,378zm-1727 -54l0 0c15,-96 -23,-139 -81,-162 -23,104 45,116 81,162zm108 54l0 0c-16,-56 33,-178 -27,-189 -37,36 -51,188 27,189zm1755 512l0 0c138,12 75,-205 -27,-189 8,64 42,102 27,189zm-1863 27l0 0c-71,-19 -26,-154 -108,-162 -29,103 50,236 108,162zm108 81l0 0c-41,-97 52,-172 -81,-189 45,45 -17,198 81,189zm-216 405l0 0c144,3 45,-150 0,-189 -61,59 22,92 0,189zm1835 135l0 0c104,22 32,-130 136,-108 -31,39 -30,66 27,81 -7,-51 30,-59 27,-108 -155,14 -3,-124 -81,-162 -37,126 -70,142 -109,297zm-1781 135l0 0c15,-95 -23,-139 -81,-162 -48,51 34,125 81,162zm1755 54l0 0c50,-48 59,-106 0,-162 -22,19 -61,151 0,162zm-297 27l0 0c-43,40 -40,154 54,135 -31,-124 130,-239 0,-297 -9,71 30,247 -54,162zm189 135l0 0c76,-22 69,38 134,27 5,-68 -60,-65 -80,-108 -7,39 -45,46 -54,81zm-1863 189l0 0c-16,-64 34,-196 -27,-216 -36,40 -55,214 27,216zm1917 0l0 0c-2,-37 12,-59 27,-81 -65,11 -59,-49 -135,-27 -19,91 45,99 108,108zm-1809 108l0 0c63,-131 -6,111 81,108 6,-113 10,-226 -81,-243 -15,16 -63,128 0,135zm1647 -54l0 0c-5,59 22,86 81,81 30,-120 -83,-97 -135,-135 -8,79 6,93 54,54zm-1755 216l0 0c-16,-56 44,-188 -54,-162 16,56 -43,188 54,162zm1512 54l0 0c5,-78 -7,-137 -54,-162 -55,70 -67,153 54,162zm-1350 135l0 0c23,-31 36,-72 27,-135 -27,0 -54,0 -81,0 -4,67 14,112 54,135zm1107 27l0 0c73,-20 54,54 108,54 11,-52 58,-68 54,-135 -57,-80 -177,-52 -162,81zm324 -27l0 0c72,-2 129,-62 81,-108 -71,-8 -70,56 -81,108zm-351 270l0 0c40,-23 58,-68 54,-135 -32,-23 -73,-36 -135,-27 -1,82 -16,178 81,162zm-189 81l0 0c-5,67 41,84 81,108 11,-52 58,-68 54,-135 -76,-22 -70,38 -135,27zm-135 243l0 0c35,34 99,34 135,0 30,-157 -148,-113 -135,0zm189 108l0 0c72,-2 130,-62 81,-108 -71,-8 -89,37 -81,108zm-270 108l0 0c67,19 114,-116 54,-135 -31,32 -77,49 -54,135zm162 81l0 0c18,0 36,0 54,0 -3,-74 45,-55 0,-108 -18,0 -36,0 -54,0 -45,53 2,34 0,108zm-189 -27l0 0c-83,19 -80,-47 -162,-27 9,119 153,183 162,27zm-648 324l0 0c1,-127 14,-267 -108,-270 35,91 -6,258 108,270zm729 -81l0 0c16,-68 169,-153 54,-189 -54,29 -179,142 -54,189zm-243 27l0 0c58,-58 10,-148 -54,-162 -72,52 -60,159 54,162zm-189 27l0 0c-8,71 37,88 108,81 -2,-73 -62,-130 -108,-81zm27 189l0 0c4,-68 -42,-85 -81,-108 -22,136 -18,194 81,108z"/>
 </g>
</svg>
