<?xml version="1.0" encoding="UTF-8"?>
<!DOCTYPE svg PUBLIC "-//W3C//DTD SVG 1.1//EN" "http://www.w3.org/Graphics/SVG/1.1/DTD/svg11.dtd">
<!-- Creator: CorelDRAW X8 -->
<svg xmlns="http://www.w3.org/2000/svg" xml:space="preserve" width="8.5in" height="11in" version="1.1" style="shape-rendering:geometricPrecision; text-rendering:geometricPrecision; image-rendering:optimizeQuality; fill-rule:evenodd; clip-rule:evenodd"
viewBox="0 0 8500 11000"
 xmlns:xlink="http://www.w3.org/1999/xlink">
 <defs>
  <style type="text/css">
   <![CDATA[
    .fil0 {fill:black}
   ]]>
  </style>
 </defs>
 <g id="Layer_x0020_1">
  <metadata id="CorelCorpID_0Corel-Layer"/>
  <g id="_105075654544">
   <path class="fil0" d="M1917 3959c-6,-65 -24,-135 -55,-198 -31,-62 -75,-118 -130,-161 -54,-44 -119,-76 -187,-96 -69,-19 -143,-28 -224,-22 -83,6 -176,25 -263,64 -85,37 -167,94 -235,167 -69,72 -125,163 -160,268 -34,106 -46,229 -31,361 17,134 62,277 163,448 101,171 258,369 444,610 197,255 383,507 580,748 115,141 197,245 258,338 60,95 99,178 122,254 25,76 34,146 29,214 -5,67 -25,133 -58,191 -33,57 -80,109 -139,141 -58,33 -127,47 -186,42 -59,-7 -109,-31 -144,-62 -35,-31 -55,-68 -66,-108 -2,-10 -5,-21 -6,-31 90,-32 155,-119 155,-221 0,-131 -106,-237 -237,-237 -103,0 -191,67 -222,160 -21,59 -21,158 -16,213 7,64 25,134 56,198 31,62 74,118 128,160 54,44 119,75 188,96 69,19 142,27 225,22 83,-6 175,-26 261,-63 87,-38 167,-95 236,-167 68,-74 125,-163 159,-270 35,-106 48,-228 31,-361 -16,-132 -61,-277 -162,-447 -101,-171 -259,-369 -445,-609 -197,-255 -383,-508 -578,-749 -116,-141 -198,-244 -258,-339 -61,-93 -100,-176 -124,-254 -23,-76 -33,-145 -27,-212 5,-69 24,-133 57,-192 33,-58 80,-108 138,-142 58,-32 128,-45 188,-40 59,6 107,31 142,62 35,31 56,67 67,107 3,11 4,20 5,30 -90,34 -153,121 -153,223 0,131 104,235 235,235 104,0 191,-66 224,-159 19,-58 19,-159 15,-212z"/>
   <polygon class="fil0" points="425,7518 2926,3482 2700,3482 201,7518 "/>
   <path class="fil0" d="M2825 4877c84,0 151,69 151,153 0,84 -67,152 -151,152 -84,0 -153,-68 -153,-152 0,-84 69,-153 153,-153z"/>
   <path class="fil0" d="M455 5953c84,0 151,68 151,153 0,84 -67,151 -151,151 -84,0 -153,-67 -153,-151 0,-85 69,-153 153,-153z"/>
   <polygon class="fil0" points="8299,6732 7364,4268 6453,6732 6665,6732 7275,5085 7899,6732 "/>
   <path class="fil0" d="M5265 3825c0,1129 0,2257 0,3386l0 26c152,-144 285,-284 412,-451 85,-114 181,-256 255,-393 73,-136 125,-266 155,-378 30,-114 39,-210 32,-289 -6,-80 -28,-145 -58,-198 -31,-55 -70,-100 -111,-131 -43,-30 -88,-48 -140,-56 -50,-9 -109,-9 -163,0 -54,10 -107,28 -171,61 -10,7 -22,13 -33,20l0 -1659 -178 62zm178 1866l0 0c36,-30 73,-60 112,-79 40,-19 83,-28 122,-27 39,1 72,13 101,37 28,24 50,60 64,100 16,40 24,84 24,143 -2,58 -9,130 -30,209 -21,79 -54,163 -102,253 -48,89 -108,185 -159,259 -51,73 -91,128 -132,181 0,-359 0,-717 0,-1076z"/>
   <path class="fil0" d="M4209 5185l0 446c-176,63 -352,123 -529,186l0 -448c177,-63 353,-123 529,-184zm0 782l0 0 0 1107 193 -68 0 -2224c-241,84 -481,167 -722,251l0 -1107 -192 68 0 2224c241,-83 482,-167 721,-251z"/>
  </g>
 </g>
</svg>
