<?xml version="1.0" encoding="UTF-8"?>
<!DOCTYPE svg PUBLIC "-//W3C//DTD SVG 1.1//EN" "http://www.w3.org/Graphics/SVG/1.1/DTD/svg11.dtd">
<!-- Creator: CorelDRAW X8 -->
<svg xmlns="http://www.w3.org/2000/svg" xml:space="preserve" width="8.5in" height="11in" version="1.1" style="shape-rendering:geometricPrecision; text-rendering:geometricPrecision; image-rendering:optimizeQuality; fill-rule:evenodd; clip-rule:evenodd"
viewBox="0 0 8500 11000"
 xmlns:xlink="http://www.w3.org/1999/xlink">
 <defs>
  <style type="text/css">
   <![CDATA[
    .fil0 {fill:#090968}
   ]]>
  </style>
 </defs>
 <g id="Layer_x0020_1">
  <metadata id="CorelCorpID_0Corel-Layer"/>
  <path class="fil0" d="M6252 10400c-47,-38 -22,199 -143,167 -55,-548 -8,-1197 -23,-1784 -209,0 -447,-35 -762,-24 39,484 -93,1394 95,1736 -173,69 -379,-38 -404,167 -118,-233 -74,-608 -71,-952 2,-328 9,-630 0,-951 -412,-1 -834,9 -1213,-24 -38,497 -23,1156 23,1784 -132,48 -354,74 -475,0 -10,-682 25,-1112 23,-1760 -347,-2 -722,10 -975,-24 -62,600 -3,1278 0,1832 -221,-123 -202,37 -428,0 -35,-3239 -38,-7469 -24,-10205 1180,-15 3265,15 4758,-24 -141,2313 -48,5759 -48,8659 0,281 -10,539 0,832 11,336 75,790 -143,809 -96,-29 -96,-118 -190,-95 -72,-30 26,-82 0,-143zm-2854 -1284l0 0c89,-23 51,-297 23,-357 -81,200 34,131 -23,357zm23 -8659l0 0c97,42 297,24 476,24 147,0 421,19 381,-24 -160,17 -261,-24 -405,-24 -114,44 -301,17 -452,24zm2165 428l0 0c-25,2 -19,31 24,24 259,14 297,-24 47,-47 -32,-1 -52,11 -71,23zm809 191l0 0c14,-57 36,-111 -48,-119 -3,59 -4,115 48,119zm-2617 -48l0 0c141,16 382,-11 309,-24 -84,-15 -327,-29 -333,48 2,-15 4,-28 24,-24zm833 119l0 0c159,-28 224,10 333,-24 -120,-23 -278,-52 -333,24zm1475 -48l0 0c-73,15 -205,-30 -238,24 72,-15 205,31 238,-24zm190 381l0 0c27,-30 48,-188 0,-214 8,66 -68,167 0,214zm-3996 1023l0 0c426,-25 714,58 1070,0 14,-382 -29,-823 24,-1166 -357,-8 -751,21 -1071,-23 -6,405 -28,914 -23,1189zm3068 -1166l0 0c-43,253 7,813 -47,1190 312,-5 536,10 808,0 0,-389 0,-777 0,-1166 -212,-45 -582,-20 -761,-24zm-1712 547l0 0c-1,-183 13,-326 23,-547 -23,0 -47,0 -71,0 33,187 -27,326 48,547zm95 -475l0 0c54,78 13,691 23,1118 435,-1 747,-20 1166,0 104,-312 2,-856 48,-1190 -413,0 -825,0 -1237,0 0,24 0,48 0,72zm1332 594l0 0c-16,-214 31,-491 -24,-666 -38,208 -38,541 24,666zm-3093 -237l0 0c94,-9 47,-388 24,-357 4,130 3,256 -24,357zm1618 499l0 0c116,-19 -5,-274 71,-333 -23,0 -47,0 -71,0 42,103 22,287 0,333zm2283 523l0 0c87,-7 155,4 215,24 30,-92 -285,-46 -215,-24zm-3591 95l0 0c0,341 0,682 0,1023 381,6 817,-11 1046,24 36,-296 -39,-693 24,-1047 -382,13 -818,-20 -1070,0zm1474 0l0 0c-42,176 -12,765 -23,1047 438,16 821,-32 1213,0 0,-349 0,-698 0,-1047 -397,0 -793,0 -1190,0zm1570 1047l0 0c273,-11 481,42 762,24 33,-370 -26,-766 23,-1047 -263,9 -564,-69 -808,0 37,315 -22,740 23,1023zm-1688 -642l0 0c-16,-119 31,-301 -24,-381 -11,95 -74,329 24,381zm-24 357l0 0c2,-79 74,-258 -24,-333 36,106 -40,226 24,333zm-1570 523l0 0c93,-168 48,-601 24,-809 -33,118 -26,600 -24,809zm-119 -48l0 0c28,67 26,165 24,262 35,-169 76,-533 0,-737 -9,158 21,354 -24,475zm2069 -119l0 0c-51,7 -253,-18 -190,24 249,-40 559,104 737,-24 -182,0 -364,0 -547,0zm1499 48l0 0c177,-8 504,78 595,0 -129,-41 -545,-37 -595,0zm-3425 428l0 0c44,-68 30,-242 -24,-285 15,88 -31,237 24,285zm214 -143l0 0c0,365 0,730 0,1095 451,-5 598,25 1022,23 45,-259 16,-748 24,-1118 -349,0 -697,0 -1046,0zm1474 24l0 0c-55,317 -8,738 -23,1094 408,50 863,-36 1213,24 0,-365 0,-729 0,-1094 -321,-13 -854,-36 -1190,-24zm1547 1118l0 0c261,0 523,0 785,0 -16,-357 31,-777 -24,-1094 -263,65 -522,-9 -761,0 15,360 -8,690 0,1094zm1117 -666l0 0c-34,-44 0,-157 -47,-190 20,60 -46,205 47,190zm48 690l0 0c-2,33 5,91 24,48 0,-40 0,-80 0,-119 0,-80 0,-159 0,-238 13,-52 57,-154 -24,-167 0,159 0,317 0,476zm-2973 -48l0 0c27,-84 62,-357 -24,-404 15,127 -31,317 24,404zm-619 167l0 0c150,0 311,-9 428,24 -30,-94 -437,-47 -428,-24zm1428 -24l0 0c-183,16 -428,-31 -571,24 182,-16 428,31 571,-24zm2116 1213l0 0c-15,-325 32,-713 -23,-999 3,281 -65,757 23,999zm-4138 48l0 0c300,57 665,48 1022,47 0,-348 0,-697 0,-1046 -397,3 -685,-4 -1022,-24 0,341 0,682 0,1023zm1498 -999l0 0c-30,9 -48,30 -47,71 0,333 0,666 0,999 404,0 808,0 1213,0 0,-341 0,-682 0,-1023 -366,-38 -786,-23 -1166,-47zm1523 47l0 0c11,348 -5,637 0,1023 261,0 523,0 785,0 0,-357 0,-713 0,-1070 -279,11 -639,-30 -785,47zm-3235 571l0 0c-13,-107 26,-390 -24,-380 12,107 -27,390 24,380zm1498 428l0 0c3,-137 -4,-265 -47,-356 -8,112 -46,287 47,356zm-1617 690l0 0c-8,48 3,247 23,119 -6,-272 28,-647 -23,-832 0,238 0,475 0,713zm356 714l0 0c326,0 651,0 976,0 36,-241 19,-636 23,-975 -351,-42 -632,-14 -1022,-24 -5,368 4,786 23,999zm1428 -975l0 0c-26,291 5,684 0,975 404,0 808,0 1213,0 -15,-318 30,-697 -24,-975 -426,20 -746,-1 -1189,0zm1403 975l0 0c-29,-304 60,-727 -47,-952 50,263 -65,698 47,952zm190 0l0 0c276,-14 507,17 762,24 0,-325 0,-651 0,-976 -262,0 -524,0 -785,0 30,224 23,625 23,952zm-1784 -619l0 0c-33,-54 -5,-294 -47,-261 24,79 -53,258 47,261zm-1403 595l0 0c-24,-143 53,-512 -48,-500 77,158 -37,379 48,500zm3092 -119l0 0c-10,-78 24,-324 -24,-285 14,126 -59,212 24,285zm1023 119l0 0c-11,-92 26,-358 -24,-333 12,92 -25,358 24,333zm-1427 119l0 0c-175,16 -412,-32 -547,24 174,-16 412,31 547,-24zm1046 190l0 0c66,-21 224,49 215,-47 -48,25 -257,11 -215,47zm-3401 24l0 0c-50,-1 -127,-73 -167,24 285,6 449,-16 167,-24zm832 0l0 0c-140,-61 -438,3 -547,-24 79,80 386,56 547,24zm1000 48l0 0c-43,-53 -387,-10 -548,-24 -1,-15 -3,-28 -23,-24 98,108 394,18 571,48zm761 666l0 0c-11,-86 25,-341 -24,-310 11,86 -25,341 24,310zm1427 547l0 0c-13,-123 28,-424 -24,-428 10,181 -37,285 24,428zm-262 -24l0 0c-8,-64 22,-290 -24,-238 9,64 -21,290 24,238zm-1165 357l0 0c-11,-85 25,-341 -24,-309 11,85 -25,340 24,309zm1189 142l0 0c3,-145 -1,-284 -48,-380 -3,146 2,284 48,380zm-2854 -23l0 0c11,252 58,-226 0,-262 -41,81 -17,174 0,262z"/>
 </g>
</svg>
