<?xml version="1.0" encoding="UTF-8"?>
<!DOCTYPE svg PUBLIC "-//W3C//DTD SVG 1.1//EN" "http://www.w3.org/Graphics/SVG/1.1/DTD/svg11.dtd">
<!-- Creator: CorelDRAW X8 -->
<svg xmlns="http://www.w3.org/2000/svg" xml:space="preserve" width="8.5in" height="11in" version="1.1" style="shape-rendering:geometricPrecision; text-rendering:geometricPrecision; image-rendering:optimizeQuality; fill-rule:evenodd; clip-rule:evenodd"
viewBox="0 0 8500 11000"
 xmlns:xlink="http://www.w3.org/1999/xlink">
 <defs>
  <style type="text/css">
   <![CDATA[
    .fil0 {fill:black}
   ]]>
  </style>
 </defs>
 <g id="Layer_x0020_1">
  <metadata id="CorelCorpID_0Corel-Layer"/>
  <path class="fil0" d="M3297 6211c-233,475 -460,955 -642,1350 -187,390 -329,698 -481,946 -146,248 -298,445 -450,556 -146,117 -288,152 -409,142 -116,-15 -207,-71 -263,-136 -56,-71 -76,-152 -76,-223 5,-70 26,-126 51,-187 106,15 217,35 334,20 121,-20 252,-76 343,-172 86,-101 137,-243 142,-364 5,-127 -30,-233 -86,-319 -61,-91 -142,-162 -243,-207 -101,-46 -217,-66 -344,-56 -131,5 -267,41 -404,117 -142,81 -283,207 -390,374 -105,162 -181,364 -212,587 -25,222 0,470 81,678 81,207 218,379 389,495 168,122 375,187 612,203 238,15 506,-20 764,-157 252,-137 495,-375 738,-693 242,-319 486,-724 874,-1412 355,-627 704,-1259 1037,-1896l1173 0c81,0 147,-66 147,-147l0 -420c0,-81 -66,-147 -147,-147l-809 0c61,-116 121,-233 177,-349 233,-480 460,-961 642,-1350 187,-395 334,-704 480,-951 147,-248 298,-446 451,-557 146,-116 288,-151 409,-136 116,10 207,65 263,136 56,66 76,147 76,218 -5,71 -26,131 -51,192 -106,-20 -217,-40 -333,-25 -122,20 -253,76 -344,172 -86,101 -137,242 -142,364 -5,126 30,232 86,323 61,87 142,157 243,203 101,45 217,66 343,55 132,-4 269,-35 405,-116 141,-81 283,-207 389,-374 106,-162 182,-364 213,-587 25,-223 0,-470 -81,-678 -81,-207 -218,-379 -390,-495 -166,-122 -373,-182 -612,-203 -237,-15 -505,21 -763,157 -253,137 -495,374 -738,693 -243,324 -485,723 -874,1411 -355,632 -704,1260 -1037,1897l-1173 0c-81,0 -147,66 -147,147l0 420c0,81 66,147 147,147l809 0c-61,116 -121,232 -177,354z"/>
 </g>
</svg>
