<?xml version="1.0" encoding="UTF-8"?>
<!DOCTYPE svg PUBLIC "-//W3C//DTD SVG 1.1//EN" "http://www.w3.org/Graphics/SVG/1.1/DTD/svg11.dtd">
<!-- Creator: CorelDRAW X8 -->
<svg xmlns="http://www.w3.org/2000/svg" xml:space="preserve" width="8.5in" height="11in" version="1.1" style="shape-rendering:geometricPrecision; text-rendering:geometricPrecision; image-rendering:optimizeQuality; fill-rule:evenodd; clip-rule:evenodd"
viewBox="0 0 8500 11000"
 xmlns:xlink="http://www.w3.org/1999/xlink">
 <defs>
  <style type="text/css">
   <![CDATA[
    .fil0 {fill:#090968}
   ]]>
  </style>
 </defs>
 <g id="Layer_x0020_1">
  <metadata id="CorelCorpID_0Corel-Layer"/>
  <path class="fil0" d="M5429 290c14,14 35,22 24,60 352,102 436,685 431,1125 -6,547 -311,1088 -490,1508 -200,232 -358,504 -599,694 -10,14 -16,32 -12,60 -90,53 -170,117 -239,191 12,323 18,692 24,1054 212,-28 405,11 610,24 268,194 638,288 790,598 5,18 15,-5 36,0 159,377 279,807 132,1281 -29,28 29,31 12,83 -35,50 -61,107 -108,144 -247,579 -718,934 -1389,1089 -19,235 36,441 0,611 42,240 69,620 36,933 -24,234 -151,435 -155,611 -98,56 -167,196 -299,263 -62,31 -161,36 -240,60 -104,31 -288,77 -443,24 -72,-25 -258,-141 -251,-204 -31,-31 -9,20 -48,12 -59,-77 -132,-139 -155,-251 -154,-101 -174,-425 -132,-646 15,-17 56,-8 72,-24 38,-194 215,-248 455,-240 248,120 251,701 -180,623 2,197 108,291 203,395 34,2 30,-34 48,-48 42,27 -28,42 -12,84 54,9 67,-22 72,-60 47,11 14,75 0,95 122,30 147,-35 252,12 35,-7 -12,-25 0,-47 55,76 51,-31 131,-24 9,-37 -33,-23 -24,-60 46,-6 38,42 60,60 464,-295 251,-1109 347,-1700 -70,74 -6,281 -72,359 16,-260 35,-516 36,-790 -34,-38 -124,-20 -191,-24 92,32 -76,32 -156,24 -524,-49 -1070,-371 -1257,-718 -161,-114 -204,-347 -335,-491 45,-93 -67,-61 -12,-119 -11,-17 -40,-16 -48,-36 0,-126 -47,-247 12,-335 -21,-18 -27,-11 -24,24 -38,-190 -54,-297 -35,-515 11,-134 82,-279 107,-407 62,-318 347,-599 479,-862 203,-108 285,-337 503,-431 249,-305 565,-543 826,-838 -23,-773 -14,-1608 131,-2298 -26,-29 -30,65 -48,84 -4,-84 35,-228 120,-263 -4,-16 -30,-10 -48,-12 102,-315 334,-615 647,-730 116,-43 258,-31 406,-12zm-191 144l0 0c114,-15 210,52 275,47 -71,-43 -215,-95 -275,-47zm275 191l0 0c-10,-50 -42,-78 -72,-108 -11,71 32,88 72,108zm-143 -48l0 0c-6,-50 -102,-51 -84,-36 24,16 57,23 84,36zm-623 48l0 0c29,-27 70,-42 84,-84 -33,16 -106,53 -84,84zm826 598l0 0c1,-180 -6,-353 -108,-430 48,-16 -3,-25 0,-60 -80,-36 -106,-125 -203,-144 -3,21 -21,27 -48,24 -94,-119 -295,15 -383,84 13,86 -28,127 -84,84 -33,96 -111,167 -96,251 -7,-31 5,-43 36,-36 -22,85 -110,105 -107,215 -23,-9 -9,-35 -36,-12 -22,42 -5,123 -36,156 32,-8 23,25 36,36 -41,129 -95,304 -72,467 5,36 32,72 36,107 42,424 -85,927 -24,1353 229,-253 479,-487 670,-778 -4,16 -17,23 -12,48 39,-9 52,-44 48,-96 94,-161 202,-308 239,-527 17,-3 23,-17 48,-11 -5,-39 -61,-27 -60,-72 30,1 38,22 60,0 13,-90 68,-173 24,-252 87,-61 61,-234 84,-359 -29,3 -44,49 -60,0 18,-14 34,-30 48,-48zm48 -538l0 0c-29,-8 -48,-87 -72,-60 24,13 38,97 72,60zm-36 108l0 0c-3,-45 -19,-77 -48,-96 6,42 21,74 48,96zm180 71l0 0c-10,-74 -40,-127 -84,-167 28,55 34,133 84,167zm36 168l0 0c-4,-48 6,-110 -36,-120 11,41 5,99 36,120zm-1305 179l0 0c6,-78 80,-150 60,-215 -4,80 -98,134 -60,215zm-24 -107l0 0c26,-25 6,-57 -24,-60 -2,30 6,50 24,60zm1257 431l0 0c8,-135 41,-297 -12,-407 27,136 -14,277 12,407zm-84 -240l0 0c44,-12 20,-91 36,-131 -12,0 -24,0 -36,0 24,44 1,80 0,131zm-1281 144l0 0c-3,-75 62,-146 24,-216 -5,67 -55,153 -24,216zm-24 251l0 0c-13,-66 41,-110 -12,-143 8,69 -23,102 12,143zm1293 335l0 0c62,-22 66,-165 72,-203 -38,54 -56,127 -72,203zm-1269 204l0 0c7,-26 29,-98 0,-120 2,48 -19,82 0,120zm1089 24l0 0c-13,-43 51,-68 12,-96 -1,28 -51,67 -12,96zm-239 479l0 0c5,57 4,-15 36,0 68,-120 174,-265 191,-395 -75,131 -129,285 -227,395zm299 -216l0 0c-9,-46 58,-77 24,-108 -1,36 -61,74 -24,108zm-107 84l0 0c6,-58 83,-108 47,-168 6,69 -94,135 -47,168zm-1042 203l0 0c61,-44 48,-285 12,-347 4,124 -2,238 -12,347zm-12 168l0 0c56,0 49,-53 24,-84 -10,26 -31,41 -24,84zm778 144l0 0c19,-38 53,-59 72,-96 -35,13 -90,69 -72,96zm-60 203l0 0c37,-64 83,-117 120,-180 -64,28 -119,128 -120,180zm-466 60l0 0c44,-8 59,-44 83,-72 -44,8 -59,44 -83,72zm36 215l0 0c84,-67 152,-151 215,-239 -74,76 -186,155 -215,239zm323 -143l0 0c3,-22 63,-47 24,-72 -4,21 -64,47 -24,72zm-443 24l0 0c34,1 30,-34 48,-48 -16,0 -32,0 -48,0 0,16 0,32 0,48zm-886 933l0 0c115,-67 193,-189 287,-287 80,-82 204,-133 228,-239 -178,169 -350,344 -515,526zm694 -191l0 0c43,1 33,-131 0,-132 0,44 0,88 0,132zm-1556 2118l0 0c8,36 26,-11 48,0 -5,71 -3,72 60,60 -83,88 -8,241 36,311 -16,0 -11,-21 -24,-24 9,31 -2,93 24,132 29,43 8,-6 12,60 10,164 278,350 251,431 101,61 225,283 335,335 -15,-41 -29,-87 -23,-120 34,29 69,109 47,156 100,65 185,76 312,119 -9,23 -36,9 -12,36 19,25 60,28 107,24 1,17 -5,26 -12,36 145,18 231,30 371,60 17,-391 9,-753 0,-1077 -22,-12 -40,36 -47,0 101,-398 0,-922 12,-1233 -193,102 -353,261 -443,443 -37,74 -34,157 -72,239 -1,3 -36,12 -36,12 -5,23 21,23 24,48 7,69 -40,186 0,251 3,43 32,-42 36,0 10,47 -29,43 -36,72 72,127 145,254 299,299 -53,36 -6,34 -12,108 -34,2 -78,-6 -96,12 -67,-105 -209,-96 -299,-179 -100,-93 -219,-284 -215,-431 -108,-95 -17,-340 -72,-467 73,-238 151,-471 347,-587 0,-24 0,-47 0,-71 125,-75 219,-180 371,-228 2,-18 -4,-44 12,-48 50,7 67,-21 108,-24 43,-264 48,-630 36,-909 -52,31 -75,92 -120,131 -255,63 -331,363 -599,479 5,29 -21,26 -11,60 -254,210 -410,516 -575,814 12,47 -26,69 0,96 -104,95 -83,261 -120,371 0,-7 -9,-14 -12,0 16,79 -15,145 -12,203zm994 -1879l0 0c27,-65 138,-109 131,-168 -41,51 -144,103 -131,168zm-108 96l0 0c43,2 93,-100 72,-84 -26,26 -54,49 -72,84zm-933 634l0 0c61,-6 76,-59 95,-108 106,-117 257,-253 323,-371 -148,151 -285,313 -418,479zm95 48l0 0c45,-55 70,-129 144,-156 42,-65 90,-159 143,-227 21,-26 109,-59 60,-96 -108,159 -295,303 -347,479zm168 -144l0 0c63,-54 177,-180 155,-239 -46,85 -110,153 -155,239zm1675 -24l0 0c34,-2 83,11 84,-24 -16,-14 -82,-12 -84,24zm-83 72l0 0c19,14 145,-17 143,-24 -52,4 -125,-13 -143,24zm-1664 48l0 0c36,0 50,-21 60,-48 -15,0 -17,-15 -36,-12 9,37 -33,23 -24,60zm1915 -24l0 0c65,-17 117,42 156,12 -53,-4 -118,-65 -156,-12zm-2262 359l0 0c16,-106 152,-211 120,-287 -27,95 -164,200 -120,287zm2274 -263l0 0c99,5 201,70 287,48 -74,-26 -223,-91 -287,-48zm-2095 191l0 0c53,-36 124,-177 120,-191 -38,66 -98,109 -120,191zm1844 -59l0 0c108,-24 203,63 275,0 -58,-20 -257,-20 -275,0zm814 95l0 0c-53,-31 -131,-100 -192,-83 67,16 142,89 192,83zm-276 -36l0 0c-55,-5 -101,-18 -167,-12 4,69 124,17 167,12zm-993 48l0 0c21,18 68,-11 72,-48 -38,3 -72,9 -72,48zm1269 72l0 0c-41,-51 -128,-119 -204,-96 79,21 135,65 204,96zm167 275l0 0c-218,-196 -595,-449 -993,-311 17,773 66,1525 83,2394 212,-82 425,-98 575,-215 152,-120 228,-302 395,-431 -17,-43 -44,-40 -24,-96 24,-4 24,16 36,24 92,-188 158,-400 167,-670 -50,-19 3,66 -47,47 -9,-36 12,-43 12,-71 -25,-8 -84,19 -72,-24 3,-25 52,-4 60,-24 18,-290 -115,-428 -192,-623zm-1628 -107l0 0c89,-16 155,-156 300,-156 -109,-91 -231,90 -300,156zm1413 -120l0 0c-17,-32 -73,-86 -108,-60 35,9 122,79 108,60zm383 0l0 0c-8,-36 -47,-41 -60,-72 -2,45 23,65 60,72zm155 120l0 0c-32,-71 -62,-146 -119,-192 13,83 84,171 119,192zm-1592 -60l0 0c31,11 59,-68 12,-60 10,34 -17,31 -12,60zm-670 84l0 0c37,-39 90,-62 108,-120 -51,17 -118,81 -108,120zm395 -24l0 0c27,-7 87,-40 60,-60 -18,22 -50,30 -60,60zm-1257 107l0 0c2,-54 25,-86 36,-131 -15,-1 -16,-16 -36,-12 3,49 -30,88 0,143zm2837 -36l0 0c-4,-59 -46,-81 -96,-95 8,56 36,92 96,95zm-2956 0l0 0c9,-8 26,-66 0,-71 -10,8 -27,66 0,71zm-144 312l0 0c-10,28 17,55 12,12 0,-24 0,-48 0,-72 18,-66 28,-140 48,-204 -3,-9 -10,-14 -24,-12 -29,76 -44,164 -36,276zm958 -36l0 0c35,-52 56,-183 47,-240 -27,69 -56,135 -47,240zm131 -96l0 0c-25,-53 18,-99 36,-144 -55,8 -92,132 -36,144zm2394 251l0 0c-6,-149 -54,-257 -120,-347 51,105 80,232 120,347zm-2358 -215l0 0c5,-23 34,-22 24,-60 -36,-14 -51,51 -24,60zm-1161 491l0 0c14,-113 -6,-269 -24,-347 -20,120 -33,256 24,347zm180 0l0 0c-13,-76 27,-203 -24,-240 -15,78 -19,187 24,240zm1005 36l0 0c-11,-68 18,-158 0,-192 -9,60 -45,147 0,192zm2238 0l0 0c-10,-46 -5,-170 -24,-168 -1,74 -23,126 24,168zm-2441 -108l0 0c5,-38 -15,-49 -36,-60 -3,34 -2,65 36,60zm-814 371l0 0c-16,-148 -28,-300 -72,-419 10,154 15,312 72,419zm3303 -132l0 0c0,-70 38,-203 -24,-263 23,90 -21,172 24,263zm-2430 -84l0 0c-22,-33 -10,-101 -35,-131 -26,33 13,128 35,131zm168 96l0 0c14,-25 -10,-96 -24,-131 -21,55 -25,-15 -60,-12 14,61 46,105 84,143zm2190 108l0 0c2,-73 39,-201 -12,-251 26,81 -22,171 12,251zm-3375 -12l0 0c-29,-39 -13,-123 -48,-156 16,45 -2,186 48,156zm275 -12l0 0c-7,-56 9,-136 -47,-144 17,47 4,123 47,144zm1066 180l0 0c-48,-72 -94,-146 -168,-192 40,80 103,137 168,192zm-216 -60l0 0c46,-10 37,35 72,36 -13,-40 4,-41 -12,-84 -24,-4 -24,16 -36,24 -16,-29 -55,-96 -84,-72 18,34 67,37 60,96zm2167 299l0 0c48,-79 96,-247 47,-347 30,91 -38,265 -47,347zm95 -192l0 0c79,52 82,-131 84,-155 -52,27 -21,138 -84,155zm-1328 60l0 0c16,-15 21,-71 -12,-72 7,21 -15,71 12,72zm-1568 216l0 0c-52,-92 -104,-184 -180,-252 33,111 99,189 180,252zm-275 131l0 0c-44,-72 -100,-195 -156,-215 53,71 75,172 156,215zm2992 -83l0 0c-36,-33 46,-74 -12,-84 -2,34 -54,81 12,84zm-2813 47l0 0c-47,-9 -66,-109 -108,-83 23,29 106,113 108,83zm2765 120l0 0c77,-43 122,-117 167,-191 -73,46 -105,134 -167,191zm-180 24l0 0c-95,80 111,-63 72,-108 -22,38 -63,57 -72,108zm-1017 335l0 0c-10,-101 20,-304 -24,-407 -1,193 -31,271 24,407zm-1149 -108l0 0c-83,-58 -234,-225 -299,-203 92,68 208,174 299,203zm1221 60l0 0c-15,-65 -3,-220 -24,-239 14,73 -30,205 24,239zm885 -72l0 0c38,-9 61,-34 84,-59 -51,-4 -61,34 -84,59zm-2286 84l0 0c-35,6 -58,-59 -83,-24 20,9 55,64 83,24zm719 120l0 0c-3,-34 -21,-51 -60,-48 -3,39 42,29 60,48zm-455 24l0 0c-45,4 -32,-49 -84,-36 -8,41 60,67 84,36zm514 -12l0 0c43,69 156,67 240,96 -53,-52 -199,-71 -240,-96zm12 108l0 0c14,-62 -86,-73 -119,-48 33,22 82,29 119,48zm-107 71l0 0c-28,-43 -105,-39 -156,-59 32,39 95,48 156,59zm694 874l0 0c-6,-122 4,-240 -24,-347 5,119 -15,262 24,347zm108 383l0 0c28,-149 32,-414 -24,-526 33,144 -10,357 24,526zm-216 -287l0 0c8,-48 28,-147 0,-192 -2,54 -31,144 0,192zm12 120l0 0c-36,-32 25,-107 -24,-108 17,54 -39,109 24,108zm-1173 550l0 0c-15,-81 30,-221 -24,-263 6,90 -16,207 24,263zm1377 24l0 0c18,-69 58,-180 24,-263 -1,87 -60,179 -24,263zm-1245 -84l0 0c-12,-39 26,-130 -24,-131 -1,52 -5,108 24,131zm1125 264l0 0c32,-33 60,-131 36,-180 -12,60 -24,120 -36,180zm-96 -60l0 0c33,30 10,46 12,96 52,-8 25,-95 48,-132 -28,4 -52,12 -60,36zm-1221 131l0 0c-8,-63 5,-98 -36,-143 14,46 6,114 36,143zm168 348l0 0c-42,-125 -139,-223 -132,-383 -62,61 19,195 0,251 113,-33 5,127 132,132zm1125 -276l0 0c1,-28 51,-67 12,-96 13,43 -50,69 -12,96zm-251 228l0 0c25,-47 131,-49 95,-120 15,-1 29,-4 24,-24 -51,29 -120,103 -119,144zm-958 107l0 0c-34,-10 -58,-93 -84,-71 27,17 51,99 84,71zm850 24l0 0c23,3 26,-13 48,-12 0,-20 0,-40 0,-59 -12,0 -24,0 -36,0 9,36 -21,35 -12,71zm-72 60l0 0c21,-6 50,-6 60,-24 -32,0 -26,-38 -60,-36 0,20 0,40 0,60zm-275 72l0 0c-71,-5 -118,-34 -180,-48 23,46 122,78 180,48zm96 84l0 0c-37,7 -104,-16 -120,12 36,-8 103,15 120,-12z"/>
 </g>
</svg>
