<?xml version="1.0" encoding="UTF-8"?>
<!DOCTYPE svg PUBLIC "-//W3C//DTD SVG 1.1//EN" "http://www.w3.org/Graphics/SVG/1.1/DTD/svg11.dtd">
<!-- Creator: CorelDRAW X8 -->
<svg xmlns="http://www.w3.org/2000/svg" xml:space="preserve" width="8.5in" height="11in" version="1.1" style="shape-rendering:geometricPrecision; text-rendering:geometricPrecision; image-rendering:optimizeQuality; fill-rule:evenodd; clip-rule:evenodd"
viewBox="0 0 8500 11000"
 xmlns:xlink="http://www.w3.org/1999/xlink">
 <defs>
  <style type="text/css">
   <![CDATA[
    .fil0 {fill:#090968}
   ]]>
  </style>
 </defs>
 <g id="Layer_x0020_1">
  <metadata id="CorelCorpID_0Corel-Layer"/>
  <path class="fil0" d="M2171 7606c-674,82 -1202,310 -1891,378 45,-153 -76,-140 -54,-271 662,-348 1523,-779 2269,-864 9,-153 99,-225 108,-378 -19,-85 -95,47 -108,-54 202,-624 271,-1109 594,-1783 -714,-64 -1637,412 -2323,378 -40,-203 207,-118 216,-270 -16,-93 -187,70 -162,-162 740,-96 1632,-488 2486,-649 185,-661 257,-1436 648,-1891 138,165 167,239 486,108 -67,636 -361,1044 -432,1675 387,-45 1153,-180 1675,-270 278,-604 164,-1602 811,-1837 151,-227 190,-566 486,-648 87,373 31,1230 -54,1729 -131,-104 78,-282 -54,-433 -291,160 -258,643 -432,919 549,74 1635,-382 1837,216 -155,79 -455,14 -432,270 -453,-39 -1136,64 -1568,216 -337,581 -437,1400 -702,2054 463,25 1258,-359 1891,-163 -45,190 -248,220 -486,216 212,164 102,250 0,487 -519,21 -1020,63 -1567,270 -314,641 -464,1446 -702,2161 -241,48 -471,106 -433,433 -221,-802 291,-1650 487,-2378 -599,122 -1178,264 -1783,378 -463,726 -427,1951 -1081,2486 -4,-86 26,-206 -54,-216 -147,-39 39,254 -108,216 -230,-382 262,-958 270,-1459 -198,18 -48,384 -270,378 179,-379 270,-846 432,-1242zm2323 -3188l0 0c-70,-172 -365,105 -648,54 -279,694 -403,1542 -702,2215 606,-150 1117,-396 1837,-432 158,-688 511,-1470 486,-2162 -328,193 -749,-4 -973,325z"/>
 </g>
</svg>
