<?xml version="1.0" encoding="UTF-8"?>
<!DOCTYPE svg PUBLIC "-//W3C//DTD SVG 1.1//EN" "http://www.w3.org/Graphics/SVG/1.1/DTD/svg11.dtd">
<!-- Creator: CorelDRAW X8 -->
<svg xmlns="http://www.w3.org/2000/svg" xml:space="preserve" width="8.5in" height="11in" version="1.1" style="shape-rendering:geometricPrecision; text-rendering:geometricPrecision; image-rendering:optimizeQuality; fill-rule:evenodd; clip-rule:evenodd"
viewBox="0 0 8500 11000"
 xmlns:xlink="http://www.w3.org/1999/xlink">
 <defs>
  <style type="text/css">
   <![CDATA[
    .fil0 {fill:#090968}
   ]]>
  </style>
 </defs>
 <g id="Layer_x0020_1">
  <metadata id="CorelCorpID_0Corel-Layer"/>
  <path class="fil0" d="M5346 251c14,63 -42,56 -89,59 -8,146 170,106 266,148 -109,502 -20,1202 -89,1745 364,-199 992,-389 1302,-740 115,40 153,-15 236,30 -61,37 -121,76 -148,148 -46,618 102,1070 0,1449 -481,218 -936,463 -1419,680 -12,508 21,1313 0,1833 437,-243 1027,-333 1271,-769 99,40 141,136 267,148 -39,338 83,902 -148,1153 -46,105 100,18 88,89 -445,323 -943,617 -1449,798 27,1118 -36,2246 30,3371 27,81 104,-52 148,30 -111,260 -545,147 -739,148 -3,-974 2,-2156 0,-3223 -155,23 -444,166 -562,325 -424,40 -625,301 -976,414 -20,880 55,1814 30,2602 -93,14 -132,-26 -119,-118 -63,25 -25,152 -88,177 -121,9 -16,-62 -30,-118 -138,0 -276,0 -414,0 0,-739 0,-1479 0,-2218 -361,142 -724,282 -976,532 -176,-255 -74,-866 -29,-1182 -25,-106 -153,76 -178,-30 287,-344 759,-503 1183,-710 3,-633 8,-1269 -59,-1833 -350,143 -669,317 -1035,444 42,-130 18,-193 -89,-237 14,-370 -31,-800 30,-1124 354,-208 723,-400 1094,-591 0,-1141 57,-2139 30,-3282 143,-103 409,-83 620,-118 -34,945 -26,1904 0,3045 540,-249 1037,-540 1568,-798 18,-702 -37,-1476 29,-2129 247,18 273,-57 444,-148zm-2395 857l0 0c31,-126 68,-397 -30,-414 -5,136 -3,774 30,414zm2040 1065l0 0c44,-346 24,-821 -30,-1094 20,355 -39,788 30,1094zm-1804 30l0 0c-15,-125 33,-466 -29,-444 14,124 -33,465 29,444zm2839 -119l0 0c111,-7 190,-46 236,-118 -98,20 -209,27 -236,118zm-355 178l0 0c97,-11 148,-69 207,-119 -94,-4 -224,109 -207,119zm-2750 887l0 0c-18,-288 38,-806 -29,-946 18,287 -38,806 29,946zm3164 -680l0 0c82,-58 224,-209 177,-296 -70,87 -107,208 -177,296zm384 473l0 0c85,-6 108,-225 89,-237 -37,72 -73,144 -89,237zm-1035 -59l0 0c74,20 126,-127 60,-148 -13,56 -85,53 -60,148zm30 591l0 0c-32,-338 302,-466 296,-680 -134,159 -446,432 -296,680zm828 -266l0 0c128,-40 200,-136 296,-207 -140,28 -249,86 -296,207zm-2040 59l0 0c138,-20 212,-103 266,-207 -130,28 -228,88 -266,207zm-326 148l0 0c107,-12 189,-48 207,-148 -37,-2 -41,-38 -88,-30 5,104 -100,98 -119,178zm60 650l0 0c130,-167 452,-450 384,-621 -128,188 -344,444 -384,621zm-296 -177l0 0c61,-98 277,-195 207,-325 -98,61 -253,219 -207,325zm828 59l0 0c118,-69 152,-222 236,-325 -124,51 -220,262 -236,325zm207 -118l0 0c115,47 224,-163 88,-178 0,89 -76,101 -88,178zm-828 -59l0 0c-12,205 -168,265 -207,443 164,-151 267,-363 414,-532 -134,-35 -66,131 -207,89zm414 148l0 0c11,-45 168,-170 29,-178 48,100 -125,126 -29,178zm-976 561l0 0c82,-194 337,-372 325,-561 -141,134 -333,376 -325,561zm-828 -325l0 0c87,6 180,-132 118,-177 -36,62 -82,115 -118,177zm2306 -89l0 0c-172,168 -440,169 -621,296 -71,50 -104,140 -177,178 -38,19 -105,-16 -148,0 -188,66 -364,226 -562,295 -31,655 56,1363 0,1863 536,-252 1057,-520 1568,-798 0,-611 0,-1223 0,-1834 -20,0 -40,0 -60,0zm-2868 296l0 0c99,7 224,-230 119,-236 -6,112 -125,112 -119,236zm148 651l0 0c96,-242 413,-570 355,-769 -98,257 -365,502 -355,769zm118 88l0 0c178,-246 342,-506 444,-828 -202,202 -387,579 -444,828zm-355 -88l0 0c188,-138 336,-473 385,-651 -156,189 -254,437 -385,651zm-147 0l0 0c70,-186 166,-347 236,-533 -220,17 -228,402 -236,533zm3252 236l0 0c0,163 -21,605 30,532 5,-152 -18,-333 30,-443 -86,-181 26,-559 -60,-739 0,164 0,422 0,650zm-1774 1479l0 0c2,31 38,23 30,-30 -18,-465 38,-1260 -30,-1774 -11,494 -37,1171 0,1804zm-1478 -1361l0 0c24,-28 156,-95 59,-147 1,54 -152,100 -59,147zm5056 414l0 0c7,-55 76,-196 0,-236 -6,55 -76,196 0,236zm-680 414l0 0c-110,-172 364,-441 266,-591 -145,151 -236,355 -355,532 58,-9 59,40 89,59zm-148 385l0 0c184,-211 450,-496 473,-769 -141,272 -333,495 -473,769zm-3105 0l0 0c51,167 28,-149 30,-207 4,-138 -3,-317 0,-444 -49,0 -17,-82 -59,-89 33,383 -34,528 29,740zm3608 -385l0 0c42,-77 180,-212 89,-325 16,136 -167,226 -89,325zm-59 207l0 0c73,5 91,-46 148,-59 -17,-43 34,-153 -30,-148 -51,57 -67,150 -118,207zm-1686 30l0 0c118,18 231,-122 148,-207 -22,97 -138,99 -148,207zm-591 148l0 0c62,-57 131,-105 148,-207 -105,-4 -181,172 -148,207zm296 0l0 0c143,5 164,-112 207,-207 -125,13 -142,134 -207,207zm1271 207l0 0c139,-30 228,-264 207,-355 -64,123 -152,223 -207,355zm-1952 -30l0 0c101,-19 261,-132 178,-236 -38,100 -164,112 -178,236zm799 -59l0 0c103,-35 222,-54 236,-177 -88,49 -226,49 -236,177zm207 207l0 0c17,-92 204,-169 118,-266 -20,90 -180,193 -118,266zm-887 -30l0 0c76,-23 250,-102 177,-177 -65,53 -146,91 -177,177zm414 -29l0 0c100,2 110,-87 148,-148 -106,-7 -155,43 -148,148zm-887 177l0 0c19,-128 137,-158 147,-295 -111,18 -228,184 -147,295zm827 207l0 0c139,-5 256,-272 355,-414 -212,44 -193,319 -355,414zm-502 -118l0 0c93,14 121,-37 148,-89 -62,-62 -111,39 -148,89zm917 148l0 0c68,-32 292,-60 206,-148 -73,45 -183,53 -206,148zm680 769l0 0c25,-296 74,-691 -30,-917 20,296 -39,670 30,917zm-1745 -651l0 0c80,-1 199,-114 118,-177 -33,65 -99,98 -118,177zm444 59l0 0c93,5 101,-76 118,-148 -93,-4 -102,76 -118,148zm-1982 710l0 0c179,-216 374,-572 444,-798 -190,224 -305,523 -444,798zm1390 -680l0 0c-36,-96 96,-23 59,-118 -39,0 -79,0 -118,0 4,55 20,98 59,118zm-59 503l0 0c120,-121 338,-446 266,-562 -57,219 -235,317 -266,562zm-828 -178l0 0c52,-125 153,-202 207,-325 -105,53 -259,213 -207,325zm89 118l0 0c-10,-100 177,-155 89,-236 -26,65 -158,175 -89,236zm532 2041l0 0c-26,-396 49,-956 -30,-1213 30,412 -55,931 30,1213zm2070 443l0 0c108,-205 73,-774 30,-946 -8,317 22,673 -30,946zm-2129 119l0 0c33,-105 66,-266 -59,-267 12,96 -39,256 59,267z"/>
 </g>
</svg>
