<?xml version="1.0" encoding="UTF-8"?>
<!DOCTYPE svg PUBLIC "-//W3C//DTD SVG 1.1//EN" "http://www.w3.org/Graphics/SVG/1.1/DTD/svg11.dtd">
<!-- Creator: CorelDRAW X8 -->
<svg xmlns="http://www.w3.org/2000/svg" xml:space="preserve" width="8.5in" height="11in" version="1.1" style="shape-rendering:geometricPrecision; text-rendering:geometricPrecision; image-rendering:optimizeQuality; fill-rule:evenodd; clip-rule:evenodd"
viewBox="0 0 8500 11000"
 xmlns:xlink="http://www.w3.org/1999/xlink">
 <defs>
  <style type="text/css">
   <![CDATA[
    .fil0 {fill:#090968}
   ]]>
  </style>
 </defs>
 <g id="Layer_x0020_1">
  <metadata id="CorelCorpID_0Corel-Layer"/>
  <g id="_68751688848">
   <path class="fil0" d="M5207 671c36,51 63,109 89,170 -44,-42 -69,-104 -89,-170z"/>
   <path class="fil0" d="M4422 4043c51,196 26,467 98,642 21,-30 74,-3 107,0 244,19 462,-21 660,53 222,84 493,233 616,384 127,157 180,341 258,526 57,135 116,251 134,401 20,161 15,322 -18,482 -85,410 -326,707 -571,981 -220,148 -434,303 -740,366 72,511 209,941 178,1561 -6,133 -9,332 -44,446 -91,295 -317,513 -562,669 -86,54 -184,105 -348,107 -94,1 -261,57 -321,26 -172,-88 -464,-188 -607,-365 -164,-204 -301,-573 -178,-919 27,-77 78,-240 152,-267 3,-2 24,8 35,0 44,-30 73,-95 116,-116 49,-25 207,-81 268,-90 117,-17 180,24 267,54 60,20 122,18 152,36 82,46 113,142 179,232 9,175 11,360 -81,508 -80,128 -277,206 -455,178 -12,101 105,144 152,214 120,51 210,50 366,27 48,-50 129,-80 169,-152 204,-364 131,-1070 71,-1560 -18,-154 -67,-311 -80,-446 -216,9 -386,-14 -588,-54 -107,-21 -217,-32 -304,-62 -46,-16 -82,-55 -125,-72 -48,-19 -100,-15 -142,-35 -107,-52 -255,-165 -348,-250 -111,-101 -205,-203 -286,-312 -267,-364 -449,-735 -401,-1374 44,-578 358,-969 660,-1302 225,-247 514,-451 785,-687 72,-62 238,-155 259,-232 22,-82 -43,-356 -54,-455 -17,-161 -9,-338 -9,-481 2,-646 -105,-1380 152,-1847 13,-24 47,-54 71,-89 66,-94 112,-146 205,-232 143,-131 292,-205 544,-232 99,-10 194,19 304,9 163,66 298,159 419,268 9,87 98,128 134,196 26,51 11,120 71,152 95,315 28,771 -36,1052 -24,108 -34,177 -71,286 -17,49 -34,114 -54,151 -19,38 -59,61 -80,98 -65,121 -111,243 -178,357 -67,112 -131,222 -205,330 -72,105 -151,204 -232,304 -152,185 -262,395 -464,535zm9 383l0 0c-12,-160 -35,-280 -45,-419 181,-167 348,-348 482,-562 27,7 17,-24 45,-18 143,-261 369,-439 445,-767 70,-72 85,-161 134,-267 85,-182 180,-397 214,-607 22,-133 55,-213 45,-375 -12,-189 -85,-395 -161,-597 -23,-63 -57,-136 -80,-178 -54,-99 -218,-115 -267,-206 -106,11 -183,-55 -250,-53 11,1 21,3 18,18 -34,11 -77,-33 -107,-36 -46,-5 -70,26 -72,27 -53,33 -116,-17 -178,-9 -77,9 -173,68 -205,116 -98,1 -183,91 -223,178 -44,-21 -82,48 -63,89 -22,-1 -43,-1 -53,9 -1,72 -56,113 -72,143 -28,12 13,44 -8,54 -125,136 -119,348 -170,553 4,17 35,7 27,35 -29,70 -21,176 -36,259 -3,21 41,-5 27,27 -11,91 -44,204 0,276 -9,12 -9,33 -18,45 58,392 45,1064 89,1462 12,22 45,21 45,54 -184,149 -367,299 -562,437 -11,28 -1,26 -18,54 -28,4 -36,-21 -44,8 16,0 18,7 8,18 -378,280 -753,643 -972,1088 -16,34 -31,71 -9,90 -52,41 -55,104 -44,178 -24,32 -30,-8 -54,9 -45,220 -52,461 -27,669 -13,1 -32,-3 -35,9 37,173 36,248 71,401 17,9 30,-27 36,0 15,86 53,293 134,286 41,117 100,261 196,294 44,84 109,146 160,223 29,11 7,-29 36,-18 77,95 171,174 277,241 13,29 15,-40 35,-9 261,230 730,334 1249,312 25,36 16,72 18,125 2,88 44,202 62,321 16,107 38,225 45,339 33,523 95,1172 -205,1400 -90,39 -164,104 -277,98 -123,-6 -296,-77 -366,-178 -51,-74 -119,-193 -44,-259 13,56 82,107 187,98 2,-37 -51,-20 -36,-71 103,92 187,-35 232,-107 10,8 3,33 27,27 212,-183 155,-586 -71,-705 -67,1 -153,-90 -223,-9 -9,-12 -9,-33 -27,-35 -153,-18 -274,28 -366,71 -48,74 -133,110 -160,205 -72,34 -142,150 -107,232 -12,36 -38,58 -45,98 10,27 34,85 9,116 -3,-98 -14,23 -9,63 17,8 30,-27 36,0 -32,133 37,233 80,321 22,3 19,-17 45,-9 -5,34 2,57 18,71 -7,24 42,-6 35,18 15,72 107,181 205,169 6,60 96,59 72,98 60,-7 54,37 71,45 27,13 58,13 116,27 -1,14 -23,7 -18,27 255,81 609,37 794,-81 1,10 -13,14 0,18 230,-107 358,-290 482,-517 14,-28 -34,-37 -9,-45 17,-6 6,-26 26,-9 68,-236 66,-541 63,-847 -19,-10 -19,-10 -9,9 -11,49 22,141 -18,161 -5,-451 -83,-951 -134,-1356 -24,0 -17,-39 0,-72 281,-47 508,-223 723,-365 14,-15 19,-40 35,-54 165,-100 283,-246 366,-428 96,-130 179,-321 187,-508 -8,21 -2,56 -35,53 70,-142 43,-398 18,-571 -1,-14 -25,-5 -27,-17 -15,-185 -65,-334 -161,-438 12,-3 19,-11 18,-26 -17,-2 -20,10 -35,9 -8,-80 -57,-116 -81,-179 -3,11 -11,19 -27,18 -78,-189 -236,-337 -419,-392 11,-2 26,1 27,-9 -196,-136 -644,-248 -999,-143 -88,-48 -77,-190 -89,-348zm1275 -3362l0 0c1,9 12,7 9,-9 -20,-42 -23,-101 -53,-134 10,52 35,89 44,143zm-1998 7920l0 0c12,7 93,3 81,-9 -42,8 -65,-21 -81,9zm-508 241l0 0c12,-30 34,-50 54,-72 -34,3 -68,51 -54,72z"/>
   <path class="fil0" d="M4128 1073c55,-29 13,-94 26,-134 27,-9 16,20 18,35 33,-19 42,-63 27,-107 15,0 30,0 45,0 2,-5 22,-34 0,-35 61,-15 99,-109 151,-161 25,-1 38,-33 63,-9 74,-114 239,-161 401,-160 19,4 17,-13 18,-27 69,41 194,26 258,71 32,-1 -18,-29 9,-26 113,98 247,175 313,321 25,30 21,-6 44,9 77,268 190,545 134,865 -39,222 -131,437 -178,633 -19,26 -36,54 -54,80 0,21 15,27 9,54 -17,1 -30,6 -36,18 -219,488 -536,878 -874,1248 0,21 -15,27 -9,54 -50,-9 -48,35 -71,53 -11,29 29,7 18,36 -60,-38 -96,59 -143,89 63,303 47,685 152,946 39,1 -1,-22 9,-45 27,-1 25,28 62,18 141,-15 281,-44 437,-36 359,19 611,197 821,375 42,137 161,248 232,392 89,183 161,466 142,749 -4,35 32,28 45,45 1,40 -36,5 -45,0 -52,516 -348,787 -651,1053 -90,49 -186,93 -250,169 -157,44 -267,137 -437,169 47,279 119,645 152,1008 26,291 115,655 18,910 -11,29 -35,124 -45,187 -4,19 13,17 27,18 -11,23 -18,28 -45,18 -87,147 -165,304 -321,384 -12,2 -7,22 -9,35 -225,92 -513,247 -784,143 -291,-112 -592,-325 -607,-714 34,-321 140,-545 419,-651 25,-9 51,-33 63,-35 81,-13 166,40 232,44 187,85 143,481 -9,571 -33,3 -58,-1 -81,-9 -34,7 -28,55 -62,63 -80,-13 -167,-18 -214,-63 -97,83 33,307 116,411 52,65 147,133 232,124 74,110 271,-24 357,18 201,-90 388,-241 392,-499 112,-605 -73,-1398 -125,-1927 -38,10 -79,16 -107,36 -105,-23 -225,3 -348,-18 -61,-10 -129,-48 -187,-62 -194,-50 -361,-99 -535,-179 -218,-100 -397,-277 -544,-455 -122,-147 -326,-403 -357,-633 -4,-31 10,-58 9,-89 -4,-87 -48,-162 -54,-241 -12,-175 9,-345 36,-499 24,-139 85,-263 116,-384 25,-97 103,-214 160,-303 59,-92 137,-178 206,-250 -29,-47 152,-136 151,-214 59,6 86,-61 125,-98 110,-105 261,-221 348,-330 33,6 47,-6 62,-18 149,-122 277,-264 437,-375 -61,-498 -77,-1086 -89,-1525 0,-18 16,-20 18,-35 16,-113 -14,-258 -9,-375 3,-68 31,-123 0,-178 33,-28 45,-105 18,-143 39,-26 43,-105 27,-161 27,-9 16,20 18,36 59,-43 25,-154 26,-214 32,-14 6,30 27,27 53,-48 26,-97 27,-152 19,-16 21,15 27,54zm820 -482l0 0c-34,-14 -69,-89 -116,-36 116,140 214,345 393,393 -100,-106 -171,-240 -277,-339 -8,16 27,30 0,35 -19,-28 -13,-26 0,-53zm98 -27l0 0c-36,6 -79,-27 -98,-9 73,97 148,191 223,286 2,-11 -1,-26 9,-27 49,106 119,190 178,285 -14,1 -30,-1 -26,18 86,32 106,171 116,250 73,40 67,158 133,205 10,-362 -266,-572 -428,-821 -12,21 23,34 0,36 -36,-73 -78,-141 -107,-223zm-258 -9l0 0c-33,-6 -39,15 -72,9 35,71 108,161 179,223 3,-31 -45,-55 -18,-80 19,61 59,101 80,160 47,-2 53,15 89,9 -82,-112 -178,-233 -258,-321zm651 544l0 0c13,2 33,-3 35,9 20,79 54,143 90,205 -16,-109 -43,-244 -116,-267 0,-14 22,-7 18,-27 -13,-20 -22,11 -27,-9 -69,-163 -169,-380 -330,-392 4,-28 -11,-37 -27,-45 99,195 240,349 357,526zm-607 -249l0 0c27,-3 70,9 72,-18 -76,-56 -122,-140 -188,-205 -3,39 26,45 27,80 -34,-28 -45,-80 -62,-125 -22,-4 -20,16 -45,9 22,79 76,126 125,178 7,-23 -35,-41 -9,-53 21,50 50,92 80,134zm-294 -197l0 0c64,67 105,157 178,214 -37,-87 -76,-173 -125,-249 -6,23 -50,8 -53,35zm-36 9l0 0c-6,21 -29,24 -35,45 36,62 89,143 142,214 45,3 74,-10 89,-36 -62,-50 -92,-133 -160,-178 14,51 39,92 53,143 -44,-48 -51,-133 -89,-188zm232 214l0 0c28,5 35,-12 54,-18 -45,-62 -90,-124 -143,-178 18,77 74,116 89,196zm-214 90l0 0c38,2 45,-26 71,-36 -38,-56 -72,-118 -124,-161 6,27 37,75 26,89 -37,-28 -45,-87 -44,-133 -22,-2 -28,14 -45,18 28,85 80,146 116,223zm-71 62l0 0c30,-8 43,-34 62,-54 -39,-73 -96,-129 -143,-196 -18,94 68,158 81,250zm-72 -18l0 0c-2,32 17,43 18,71 31,7 12,-36 45,-26 -35,-75 -63,-158 -107,-223 -54,48 7,202 44,178zm1124 -9l0 0c-23,-51 -54,-142 -98,-143 42,38 54,107 98,143zm-642 -98l0 0c24,-20 45,13 62,-9 -14,0 -65,-29 -62,9zm-499 232l0 0c0,-18 24,-11 17,-36 -52,-56 -53,-153 -116,-178 0,69 48,166 99,214zm142 0l0 0c-29,-3 -18,-47 -53,-45 -410,380 -292,1333 -232,2025 1,-14 -1,-31 18,-27 32,152 9,360 71,482 121,-141 310,-260 375,-428 45,-16 33,-49 80,-72 -5,-19 -23,-66 9,-71 18,3 8,33 27,36 44,-83 139,-155 142,-250 59,28 35,-58 72,-80 11,0 8,15 17,18 2,-46 41,-41 18,-90 12,-12 42,-5 54,-17 28,-44 -47,-87 0,-116 27,-1 8,45 35,44 41,-34 8,-99 36,-134 22,-3 -5,41 27,27 11,-116 113,-183 107,-312 57,-12 21,-121 71,-116 -8,-57 12,-152 36,-214 47,-150 -6,-315 -9,-491 -107,-214 -269,-399 -580,-383 -26,10 -33,38 -71,36 -11,-29 29,-7 18,-36 -125,29 -321,91 -268,214zm-303 -98l0 0c29,57 53,119 89,169 25,-8 31,-34 45,-53 -43,-64 -66,-134 -107,-179 -3,28 -20,41 -27,63zm54 250l0 0c8,-19 13,-40 26,-54 -42,-44 -56,-116 -98,-160 -40,75 18,176 72,214zm-54 124l0 0c-4,-45 24,-58 27,-98 -37,-41 -46,-108 -89,-142 -55,87 8,185 62,240zm-45 170l0 0c27,-133 14,-198 -62,-277 -57,108 4,210 62,277zm1338 89l0 0c44,13 26,87 72,98 29,-72 -37,-121 9,-178 -60,-44 -87,-122 -125,-187 -5,105 90,177 44,267zm-1355 80l0 0c34,-124 -35,-225 -99,-303 -30,134 50,220 99,303zm-125 -151l0 0c-8,138 60,201 116,276 12,-77 -14,-117 -36,-160 -18,-3 -18,12 -27,18 21,-55 -25,-101 -53,-134zm1525 330l0 0c32,-103 2,-168 -54,-223 -30,69 -14,198 54,223zm-1534 -161l0 0c-16,97 51,170 98,232 1,-28 -40,-61 -18,-80 13,23 15,56 36,71 -7,-42 14,-57 9,-98 -46,5 -34,-50 -72,-53 -10,31 38,50 9,71 -15,-53 -28,-109 -62,-143zm1471 304l0 0c81,-54 23,-163 -26,-206 -50,80 8,127 26,206zm-1373 98l0 0c-1,-12 -12,-13 -9,-27 64,-26 -52,-182 -80,-223 2,26 -3,31 -18,18 12,94 73,188 107,232zm1356 0l0 0c38,-69 -17,-126 -54,-170 -17,81 17,121 54,170zm-1347 160l0 0c19,-80 -44,-189 -89,-205 -6,-30 -7,-65 -27,-80 -22,177 37,272 107,357 21,-28 -39,-89 -18,-116 3,20 9,38 27,44zm1302 -44l0 0c45,-75 4,-139 -36,-197 -40,68 -3,139 36,197zm-45 124l0 0c50,-65 6,-155 -35,-205 -46,59 -21,173 35,205zm-1257 125l0 0c45,-86 -74,-156 -107,-223 -20,162 62,223 125,304 4,-38 -26,-40 -18,-81zm1213 -53l0 0c-13,-50 -8,-117 -54,-134 -10,56 7,100 54,134zm-54 125l0 0c30,-23 -24,-65 0,-81 22,-3 -5,41 27,27 2,-7 0,-17 9,-18 -13,-23 -31,-93 -54,-53 -8,-16 1,-48 -26,-45 -38,68 4,122 44,170zm-1177 80l0 0c5,37 26,57 45,80 20,-104 -69,-172 -125,-267 -17,97 34,210 80,187zm1061 -80l0 0c27,27 26,81 72,89 39,-58 -4,-131 -45,-161 -1,32 -25,40 -27,72zm-53 89l0 0c14,31 60,29 62,71 26,0 33,-20 45,-35 -34,-26 -40,-80 -80,-99 -8,23 -25,35 -27,63zm-1088 80l0 0c52,58 88,132 142,187 -3,-41 -58,-78 -35,-116 10,23 15,51 35,63 -13,-103 -67,-165 -133,-214 4,34 -16,43 -9,80zm1025 0l0 0c31,23 35,73 63,98 37,-1 37,-40 53,-62 -35,-24 -42,-77 -80,-98 -4,28 -34,31 -36,62zm27 170l0 0c66,-44 -28,-115 -53,-152 -40,53 11,126 53,152zm-892 151l0 0c-15,-130 -98,-193 -160,-276 23,122 104,187 160,276zm812 -80l0 0c3,-25 31,-19 27,9 1,19 -32,4 -45,9 -19,-26 -23,-67 -53,-81 -11,20 -19,41 -27,63 32,21 42,65 53,107 58,-25 75,-92 107,-143 -40,-25 -37,-94 -89,-107 -37,43 9,101 27,143zm-847 160l0 0c2,-44 -30,-53 -36,-89 44,25 46,91 80,125 0,-27 0,-53 0,-80 -75,-36 -85,-150 -151,-170 -2,109 53,161 107,214zm731 63l0 0c-27,-1 -30,-70 -54,-45 16,17 30,36 27,72 -9,0 -10,7 -18,9 -28,7 -12,-30 -35,-27 -8,37 32,27 26,62 -16,18 -42,5 -62,0 7,23 9,51 27,63 44,-84 130,-126 151,-232 -29,-30 -32,-87 -80,-98 6,36 -38,22 -36,53 6,54 57,110 54,143zm-678 160l0 0c17,-165 -92,-205 -152,-294 -24,173 89,209 152,294zm571 -231l0 0c36,-4 16,49 44,53 -5,-43 12,-63 0,-89 -8,0 -17,0 -26,0 -5,13 -13,22 -18,36zm9 89l0 0c1,-37 -1,-70 -36,-72 4,32 16,56 36,72zm-18 116l0 0c-13,-52 -25,-107 -54,-143 -44,51 23,111 54,143zm-508 196l0 0c-19,-136 -113,-197 -197,-268 19,137 143,167 197,268zm472 -125l0 0c58,-33 -44,-116 -80,-143 -26,56 32,98 62,125 13,-20 -23,-33 0,-35 8,15 25,22 18,53zm-44 71l0 0c5,-12 14,-21 26,-26 -34,-49 -69,-97 -116,-134 -11,69 51,135 90,160zm-616 -62l0 0c55,-4 64,37 81,71 -16,-12 -21,-8 -18,18 20,18 10,-2 26,-9 19,71 80,99 108,161 17,0 35,0 53,0 21,54 59,89 98,125 9,-12 9,-34 27,-36 -17,-49 -59,-72 -80,-116 -46,12 -59,-8 -107,-9 0,-18 24,-11 17,-36 -69,-69 -142,-184 -214,-223 20,2 4,38 9,54zm446 0l0 0c31,38 60,77 80,125 34,0 52,-14 63,-36 -57,-24 -86,-199 -143,-89zm-80 89l0 0c48,32 65,96 116,125 11,-18 14,-45 44,-45 -26,-62 -67,-111 -115,-151 -6,33 -41,36 -45,71zm-330 -9l0 0c-24,11 -23,-43 -27,0 14,19 19,47 18,81 81,73 179,177 223,258 -90,-58 -137,-160 -223,-223 7,127 94,174 161,241 1,-37 -56,-63 -36,-89 31,38 75,97 71,143 16,-35 57,-45 72,-81 -80,-117 -184,-209 -259,-330zm259 81l0 0c31,51 55,111 116,133 12,-23 40,-30 44,-62 -46,-38 -116,-190 -160,-71zm35 231l0 0c-31,-52 -65,-101 -116,-133 21,62 72,94 116,133zm-321 -44l0 0c33,68 87,115 143,160 5,-46 21,10 36,9 -1,-81 -100,-129 -152,-187 -2,13 -20,10 -27,18zm232 535l0 0c2,-29 -16,-38 -9,-71 -120,-83 -252,-200 -303,-321 102,103 198,212 303,312 -13,-80 -32,-153 -35,-241 -103,-34 -138,-136 -223,-187 -16,11 -36,18 -36,44 72,47 126,112 169,187 36,11 100,28 81,81 -109,-73 -178,-185 -277,-268 -36,35 -74,69 -116,98 21,77 89,155 143,170 -26,-41 -128,-87 -80,-143 11,41 59,101 116,125 7,-71 -109,-92 -116,-178 28,-5 24,-41 53,-45 3,33 -36,23 -27,62 128,116 235,253 357,375zm-321 -152l0 0c-57,-59 -107,-125 -161,-187 26,83 83,214 161,187zm-223 -107l0 0c42,54 85,106 116,170 21,-6 41,-12 45,-36 -56,-48 -79,-129 -134,-178 -3,21 -31,16 -27,44zm71 214l0 0c3,-18 24,-17 36,-26 -43,-65 -88,-127 -143,-179 -43,82 78,139 107,205zm-196 -133l0 0c29,75 76,132 134,178 13,-5 22,-13 36,-18 -33,-72 -78,-130 -134,-178 9,27 -20,16 -36,18zm678 276l0 0c10,-50 -68,-133 -107,-134 44,37 63,98 107,134zm-214 -285l0 0c-29,1 -39,20 -36,53 75,10 99,136 179,170 -45,-78 -105,-140 -143,-223zm-384 241l0 0c5,-13 14,-22 27,-27 -45,-62 -93,-121 -142,-179 -29,70 44,178 115,206zm-811 2122l0 0c42,98 57,223 134,286 -1,25 -25,-22 -18,18 53,85 126,109 125,196 152,148 278,322 481,419 185,70 537,198 830,143 47,-219 -60,-454 -72,-687 -24,-507 -115,-1023 -214,-1481 -113,21 -178,90 -258,143 -6,30 -3,69 -45,62 -36,-241 118,-415 250,-544 25,-128 -14,-256 -27,-374 -7,-28 31,-11 18,-45 -33,-148 -40,-322 -89,-455 -38,67 -162,83 -161,161 -17,2 -20,-10 -36,-9 -399,344 -817,717 -972,1275 1,-9 11,-7 9,9 -30,290 -50,579 36,848 4,14 64,17 36,35 -16,4 -23,-13 -27,0zm624 -2212l0 0c51,35 67,143 143,125 -38,-66 -68,-140 -134,-178 -10,10 -10,31 -9,53zm562 36l0 0c76,40 119,161 187,178 -8,-15 -36,-18 -17,-35 41,38 42,62 80,98 0,-21 0,-42 0,-63 -100,-78 -167,-190 -268,-267 -2,38 24,48 18,89zm-607 -36l0 0c-51,82 78,120 90,197 29,-4 38,-27 53,-45 -58,-40 -75,-121 -143,-152zm-80 98l0 0c40,53 54,131 125,152 15,-11 35,-18 36,-45 -55,-40 -80,-110 -134,-151 -3,21 -31,16 -27,44zm45 188l0 0c11,-1 12,-12 27,-9 -18,-72 -65,-114 -107,-161 -36,56 42,130 80,170zm910 160l0 0c19,-153 -133,-212 -206,-303 -1,11 2,25 -8,27 -6,-24 -18,-42 -36,-54 3,94 69,157 125,170 -24,60 105,76 125,160zm-1089 -276l0 0c27,7 58,-24 36,-36 -8,16 -33,15 -36,36zm125 160l0 0c25,2 26,-22 27,-44 -42,-26 -59,-78 -89,-116 -76,23 19,110 45,142 11,-22 -27,-37 0,-44 -2,28 23,30 17,62zm-178 -98l0 0c23,72 72,118 116,170 11,-22 41,-24 45,-54 -57,-42 -72,-125 -125,-169 -2,28 -33,26 -36,53zm1106 303l0 0c12,-20 -23,-33 0,-35 20,1 4,38 9,53 29,6 12,-32 36,-9 0,-20 0,-41 0,-62 -96,-53 -159,-186 -241,-223 12,145 128,187 196,276zm-1151 -276l0 0c-35,68 66,138 107,187 14,-1 7,-22 27,-18 -34,-66 -74,-128 -134,-169zm-9 107l0 0c-5,-24 -17,-42 -35,-54 -3,33 -2,62 35,54zm-107 18l0 0c25,82 75,140 134,187 1,-23 17,-31 27,-44 -41,-61 -73,-130 -125,-179 -15,9 -18,30 -36,36zm197 98l0 0c-21,-45 -42,-90 -90,-107 5,57 46,118 90,107zm918 36l0 0c134,126 253,216 384,339 33,6 38,-16 71,-9 -76,-61 -139,-135 -241,-170 -24,-142 -164,-168 -232,-267 -3,44 21,62 18,107zm-1257 35l0 0c-110,67 54,178 89,241 6,-27 19,9 36,0 44,-71 103,-128 133,-214 -88,-18 -86,-166 -178,-152 1,120 140,114 125,206 -67,-34 -102,-101 -143,-161 -28,-4 -23,24 -44,27 6,83 68,110 89,178 31,14 5,-30 26,-27 -9,39 50,65 9,81 -68,-39 -99,-115 -142,-179zm1543 348l0 0c38,6 36,-29 71,-27 -128,-95 -232,-214 -348,-321 2,169 204,251 277,348zm562 -303l0 0c30,17 80,15 116,27 21,7 41,-13 8,-9 -75,-5 -159,-49 -231,-27 26,12 68,9 107,9zm-2212 80l0 0c39,88 94,162 169,214 4,-28 28,-37 27,-71 -59,-22 -91,-155 -143,-125 -19,-31 11,-55 -18,-71 -10,19 -29,29 -35,53zm2033 9l0 0c160,69 274,231 437,268 -144,-103 -262,-231 -428,-313 -19,19 8,29 -9,45zm54 107l0 0c81,66 132,117 232,134 -95,-120 -252,-176 -366,-277 -6,0 -12,0 -18,0 35,52 91,93 152,143zm53 -125l0 0c67,28 110,119 179,116 82,96 179,178 294,241 177,216 401,384 607,571 0,-21 0,-42 0,-63 -16,-27 -41,-2 -54,-17 4,-17 19,-23 18,-45 -328,-224 -608,-544 -963,-767 -3,-18 12,-18 17,-27 -28,7 -78,-42 -98,-9zm-321 9l0 0c111,68 187,218 348,205 -78,-39 -131,-146 -223,-142 4,-34 -76,-109 -125,-63zm919 321l0 0c134,118 269,231 374,366 -125,-99 -231,-223 -356,-330 -152,-130 -315,-283 -509,-357 313,253 631,499 928,767 -106,-400 -519,-492 -749,-767 -44,8 -80,-39 -116,-9 159,86 296,215 428,330zm-732 -142l0 0c-82,-28 -120,-137 -214,-125 -8,-17 27,-30 0,-36 -38,15 -67,-2 -107,-18 74,87 161,209 321,179zm-481 8l0 0c-9,56 66,100 107,134 -2,-31 30,-29 36,-53 -107,-78 -184,-185 -295,-259 12,96 87,164 152,178zm-1445 197l0 0c63,-120 -173,-202 -107,-295 40,77 75,157 143,206 16,-14 21,-39 35,-54 -75,-56 -117,-145 -178,-214 -113,117 -13,297 107,357zm2917 53l0 0c-14,-40 -59,-48 -63,-98 -159,-82 -247,-234 -410,-312 6,49 -53,-21 -45,27 187,118 377,245 518,383zm-1365 -18l0 0c0,-20 0,-41 0,-62 -87,-73 -150,-172 -250,-232 6,22 18,46 -18,45 0,-27 1,-55 -26,-54 52,147 179,219 294,303zm-89 9l0 0c32,45 60,95 107,125 1,-51 -11,-90 -27,-125 -132,-37 -237,-178 -330,-285 -11,28 -39,39 -45,71 25,32 55,58 90,81 0,-15 -2,-31 17,-27 56,53 120,177 188,160zm1266 -249l0 0c-28,6 -38,-50 -62,-18 19,2 48,40 62,18zm-2809 249l0 0c-2,-10 -16,-20 0,-26 17,3 7,34 35,26 -15,-74 -97,-158 -151,-223 -26,68 77,191 116,223zm1195 -142l0 0c73,10 75,91 151,98 -6,-28 25,-17 18,-45 -56,-24 -81,-79 -142,-98 4,28 -24,24 -27,45zm1222 80l0 0c-177,-118 -532,-144 -749,-45 65,397 125,872 178,1311 10,23 25,40 36,63 3,21 -41,-5 -27,27 50,255 77,535 125,793 269,-45 463,-167 606,-339 17,17 7,17 36,9 55,-96 153,-150 160,-294 17,-4 23,-19 45,-18 87,-206 128,-451 98,-740 3,14 -12,24 -18,9 -9,-52 31,-12 27,-45 -9,-14 -16,-124 -36,-205 -16,-65 -48,-99 -71,-143 -36,-67 -61,-145 -107,-205 -23,-30 -68,-34 -71,-80 -91,-30 -110,-79 -188,-116 -17,17 -14,32 -44,18zm-2596 -54l0 0c51,82 82,186 188,232 -6,-29 6,-41 9,-62 -77,-55 -108,-154 -179,-214 -5,16 -4,37 -18,44zm1329 90l0 0c38,-2 38,17 63,44 5,-24 37,-22 35,-53 -37,-14 -40,-61 -80,-72 5,37 -26,40 -18,81zm-1168 240l0 0c5,-126 -127,-186 -179,-285 -2,122 103,212 179,285zm1302 -240l0 0c0,-22 -31,-57 -45,-36 26,1 12,42 45,36zm303 205l0 0c16,14 88,56 54,89 -57,-50 -108,-106 -170,-152 35,117 139,165 214,241 -8,-66 -20,-128 -26,-196 -88,-38 -126,-124 -205,-170 -5,99 81,141 133,188zm-481 -90l0 0c16,-25 54,-29 71,-53 -22,-5 -19,-35 -54,-27 1,28 -39,61 -17,80zm-1338 9l0 0c72,68 114,166 196,223 2,-27 9,-50 18,-71 -83,-57 -120,-159 -205,-214 4,28 -16,31 -9,62zm196 259l0 0c-83,-54 -134,-187 -214,-214 46,124 134,205 214,294 0,-26 0,-53 0,-80zm3211 -134l0 0c-20,-19 -16,-61 -45,-71 4,30 23,90 45,71zm-3470 89l0 0c90,80 148,192 250,259 26,-153 -142,-252 -223,-357 -10,32 -28,56 -27,98zm1989 170l0 0c12,-15 -7,-52 0,-89 -86,-42 -124,-132 -205,-179 20,138 132,183 205,268zm1178 -223l0 0c63,178 246,236 365,357 -33,-181 -201,-227 -303,-339 -3,42 69,56 54,80 -60,-6 -55,-124 -116,-98zm-1151 357l0 0c-16,-148 -139,-188 -214,-277 22,142 116,212 214,277zm-1926 -45l0 0c53,62 119,107 151,161 36,-26 18,-54 18,-107 -93,-92 -178,-191 -277,-277 -19,84 56,164 108,223zm196 -9l0 0c14,-29 14,-161 0,-160 11,59 -28,115 0,160zm2952 -71l0 0c119,80 212,187 330,267 7,-39 -12,-53 -9,-89 -116,-82 -222,-177 -330,-267 -3,35 16,49 9,89zm-3300 62l0 0c-3,12 -13,17 -9,36 132,132 250,279 392,401 -7,-60 -27,-110 -26,-178 -120,-109 -210,-248 -339,-348 -18,12 -5,55 -18,71 99,119 262,220 321,348 -104,-112 -217,-216 -321,-330zm2007 98l0 0c-1,12 -12,13 -9,27 40,-7 59,43 89,72 -3,-155 -134,-182 -205,-268 12,86 55,141 125,169zm1641 286l0 0c-12,-184 -268,-172 -286,-321 100,63 175,152 277,214 -19,-77 -101,-109 -152,-152 -57,-48 -104,-107 -169,-143 7,237 203,285 330,402zm-1534 -36l0 0c-18,-39 1,-114 -27,-143 -73,5 -105,-108 -178,-133 24,135 125,195 205,276zm-1980 -89l0 0c24,53 86,95 133,143 43,42 99,127 134,116 -119,-163 -263,-302 -410,-437 20,87 70,143 143,178zm116 232l0 0c36,36 74,75 107,107 33,34 67,97 98,80 -108,-216 -307,-342 -464,-508 41,150 160,223 259,321zm1873 -18l0 0c9,-39 -18,-69 0,-89 -87,-36 -115,-129 -188,-179 27,125 122,182 188,268zm1543 27l0 0c0,-21 0,-42 0,-63 -22,1 -28,17 -45,0 26,-58 -149,-149 -169,-160 67,78 141,150 214,223zm-312 -295l0 0c23,96 116,170 187,188 -69,-57 -116,-135 -187,-188zm-3336 161l0 0c158,142 311,289 472,428 -128,-198 -323,-331 -481,-499 8,28 27,39 9,71zm2131 259l0 0c4,-154 -131,-218 -214,-313 -1,155 137,212 214,313zm1365 -134l0 0c-64,-47 -94,-126 -152,-179 0,30 -15,45 -8,81 69,43 143,130 205,151 -10,-20 -43,-16 -36,-53 49,28 68,86 116,116 11,-27 18,-57 9,-80 -86,-36 -145,-147 -223,-161 28,43 65,78 89,125zm-3461 53l0 0c179,167 365,325 553,482 -59,-109 -175,-174 -267,-259 -93,-84 -199,-166 -250,-267 145,134 289,270 446,392 -144,-179 -331,-317 -499,-473 3,44 11,84 17,125zm3292 -71l0 0c72,98 157,182 267,241 -7,-31 13,-34 9,-63 -77,-83 -165,-155 -267,-214 -3,12 -13,17 -9,36zm-1178 268l0 0c-4,-136 -158,-182 -214,-277 18,145 125,202 214,277zm1258 -90l0 0c-9,-63 -32,-87 -89,-116 4,64 53,84 89,116zm9 90l0 0c-42,-42 -66,-101 -116,-134 -26,69 81,126 116,134zm0 -81l0 0c45,41 100,72 125,134 -61,-20 -102,-106 -152,-107 53,42 77,113 143,143 27,-17 34,-55 44,-89 -60,-32 -115,-117 -169,-125 21,19 35,45 9,44zm-3336 36l0 0c16,17 26,-11 45,9 217,199 482,398 695,571 -235,-238 -502,-444 -758,-660 -3,35 21,45 18,80zm2051 143l0 0c-23,34 19,16 36,44 -15,-142 -131,-184 -205,-267 8,122 90,171 169,223zm1267 -18l0 0c-13,-20 -52,-42 -27,-72 -55,5 -50,-50 -89,-62 -19,62 85,122 116,134zm-3220 53l0 0c125,88 233,170 357,268 167,132 330,269 490,410 143,125 244,264 455,268 -116,-66 -210,-200 -321,-241 38,39 93,62 116,116 -393,-317 -771,-650 -1168,-963 2,69 47,95 71,142zm2007 116l0 0c-31,-118 -140,-157 -205,-241 18,92 128,208 205,241zm1061 -196l0 0c64,61 116,134 205,170 -6,-28 10,-33 9,-54 -90,-68 -130,-79 -205,-152 1,16 -2,28 -9,36zm250 116l0 0c-7,-27 25,-17 18,-45 -42,-35 -77,-77 -134,-98 31,55 76,97 116,143zm-285 18l0 0c54,56 92,127 178,152 13,-29 33,-50 45,-81 -66,-59 -130,-120 -206,-169 6,66 91,100 90,142 -39,-29 -57,-80 -107,-98 -21,36 -43,71 -54,116 45,25 130,173 143,90 13,19 10,55 36,62 -7,-24 18,-17 26,-27 -36,-81 -187,-88 -151,-187zm-999 223l0 0c-19,-154 -146,-200 -223,-294 22,150 155,190 223,294zm-1731 -27l0 0c-98,-50 -184,-160 -276,-187 81,67 181,164 276,187zm1499 -143l0 0c60,75 145,199 250,259 7,-31 -14,-34 -9,-62 -88,-20 -112,-150 -188,-152 8,-33 -46,-84 -53,-45zm-1097 616l0 0c94,51 211,127 321,134 -319,-249 -587,-494 -946,-705 75,158 246,229 384,339 118,94 234,176 321,268 -30,-4 -56,-57 -80,-36zm2328 -455l0 0c-9,-54 -57,-69 -81,-107 -12,42 49,80 81,107zm80 27l0 0c4,-42 -71,-77 -107,-107 30,41 48,95 107,107zm-1044 187l0 0c-48,-130 -156,-200 -249,-285 37,140 161,195 249,285zm821 -205l0 0c44,30 75,73 125,98 3,-28 -45,-49 -27,-62 33,9 41,41 54,71 25,-7 23,12 44,9 -6,-25 18,-18 18,-36 -49,-3 -76,-77 -143,-107 -6,22 40,37 9,54 -13,-32 -25,-64 -53,-81 -4,24 -27,27 -27,54zm-1053 116l0 0c93,59 159,145 241,214 -3,-105 -85,-174 -151,-187 -13,-59 -55,-88 -98,-116 -7,39 15,50 8,89zm973 -27l0 0c39,38 90,65 133,98 -21,-62 -56,-110 -89,-160 -8,27 -43,28 -44,62zm151 98l0 0c37,-5 61,-23 81,-44 -52,-32 -100,-68 -152,-99 11,61 69,74 71,143zm-2319 214l0 0c-120,-135 -280,-230 -428,-339 119,137 265,247 428,339zm2194 -214l0 0c-29,-15 -37,-51 -62,-71 -3,18 -24,17 -27,35 41,14 101,109 116,63 20,15 32,39 72,36 3,-17 25,-17 17,-45 -46,-7 -97,-57 -124,-54 8,3 23,40 8,36zm-972 170l0 0c18,172 182,199 259,312 56,-36 154,-31 214,-63 -56,-71 -116,-139 -223,-160 34,61 103,87 125,160 -114,-121 -252,-218 -357,-347 84,24 118,141 205,133 -33,-91 -166,-160 -241,-241 -5,271 260,318 339,473 -123,-72 -192,-200 -321,-267zm803 -125l0 0c54,20 85,64 143,80 -33,-40 -99,-188 -143,-80zm178 89l0 0c10,-17 35,-19 45,-36 -45,-23 -94,-90 -143,-80 28,29 56,57 72,98 56,-11 13,1 26,18zm-258 -36l0 0c44,21 67,63 116,81 -19,-48 -37,-95 -81,-116 -8,15 -32,14 -35,35zm169 98l0 0c28,-2 35,-24 54,-35 -44,-28 -90,-53 -134,-81 16,50 49,83 80,116zm-2230 -17l0 0c-43,-11 -69,-85 -107,-72 35,19 76,79 107,72zm1971 -36l0 0c25,53 95,60 134,98 -2,-43 -68,-68 -53,-98 45,22 83,157 142,80 -78,-35 -130,-132 -223,-80zm-1150 357l0 0c32,-5 74,26 98,0 -160,-114 -327,-221 -482,-339 -10,1 -25,-2 -26,9 147,99 273,220 410,330zm1150 -268l0 0c-28,-14 -19,-64 -62,-62 4,31 48,70 62,62zm-169 -18l0 0c54,15 67,70 116,89 -12,-41 -41,-66 -54,-107 -28,-1 -53,0 -62,18zm250 89l0 0c22,-4 36,-16 53,-26 -33,-36 -72,-65 -125,-81 11,49 52,68 72,107zm-312 -80l0 0c30,12 33,50 71,54 -9,-30 -37,-41 -45,-72 0,15 -24,5 -26,18zm223 125l0 0c27,6 26,-15 53,-9 -8,-66 -91,-105 -125,-116 22,42 76,85 72,125zm-955 187l0 0c22,-5 41,-13 72,-9 -154,-99 -283,-222 -473,-285 119,113 266,198 401,294zm741 -240l0 0c-1,11 -16,8 -18,17 26,27 33,19 71,27 -32,35 32,28 27,63 33,6 38,-16 71,-9 -45,-62 -117,-97 -178,-143 -4,44 -14,-32 -54,-9 8,37 50,39 81,54zm142 26l0 0c2,-24 -71,-52 -53,-35 15,15 23,36 53,35zm-267 241l0 0c-28,-12 16,-40 -9,-53 -110,-57 -176,-205 -304,-214 86,102 223,199 313,267zm-491 -45l0 0c-107,-71 -201,-155 -321,-214 93,80 216,177 321,214zm223 0l0 0c14,-6 -2,-43 27,-35 -9,64 47,70 89,62 -55,-67 -182,-109 -196,-187 120,94 235,192 357,285 -15,-51 -71,-103 -116,-142 -50,-43 -202,-172 -250,-179 -47,-7 -101,50 -152,9 -34,24 46,30 18,45 -47,-16 -59,-66 -134,-54 75,68 165,121 250,179 -152,-29 -194,-169 -357,-188 130,79 216,247 428,214 -22,-52 -119,-76 -124,-116 60,29 95,84 160,107zm553 -151l0 0c17,-1 30,-6 36,-18 -21,-3 -17,-31 -45,-27 -7,26 13,23 9,45zm-482 401l0 0c7,77 26,141 36,214 96,53 157,141 250,197 0,-21 0,-42 0,-63 -86,-63 -211,-134 -241,-223 82,61 144,141 232,196 6,-45 -15,-62 -9,-107 -104,-57 -178,-143 -268,-214zm-9 -187l0 0c-54,180 166,276 268,383 -14,-127 -212,-182 -250,-285 87,53 148,132 232,187 -23,-176 -172,-225 -276,-321 -8,29 23,19 26,36zm232 143l0 0c-2,-21 -14,-34 -9,-63 -80,-8 -88,-90 -169,-98 45,68 119,107 178,161zm81 553l0 0c-37,-136 -173,-173 -259,-259 42,131 168,177 259,259zm18 116l0 0c10,-50 -29,-49 -18,-99 -101,-39 -153,-126 -241,-178 36,142 163,193 259,277zm-241 -63l0 0c88,66 145,164 258,205 4,-42 -16,-61 -9,-107 -97,-51 -151,-145 -249,-196 0,33 0,65 0,98zm258 312l0 0c0,-20 0,-41 0,-62 -92,-66 -175,-140 -258,-214 -5,34 16,43 9,80 99,50 157,140 249,196zm0 98l0 0c14,-25 0,-27 9,-62 -55,-17 -136,-154 -160,-89 -26,-39 -55,-76 -89,-107 10,162 157,195 240,258zm18 143l0 0c0,-27 0,-53 0,-80 -88,-54 -147,-139 -241,-187 15,155 162,177 241,267zm-107 -53l0 0c-40,-35 -83,-106 -125,-81 48,98 146,146 232,206 7,-63 -68,-92 -107,-125zm107 214l0 0c-22,-127 -159,-139 -223,-223 4,111 147,183 223,223zm-999 44l0 0c-9,-48 18,-59 18,-98 -10,-22 -34,18 -45,-9 21,-24 -18,-64 -35,-44 10,2 14,10 18,18 -16,-1 -28,2 -36,8 -3,-20 1,-34 9,-44 -29,-21 -61,-40 -116,-36 54,77 116,146 187,205zm-187 -89l0 0c17,3 18,-12 27,-18 48,71 106,178 178,196 -64,-119 -167,-202 -268,-285 -8,0 -17,0 -26,0 15,50 66,65 89,107zm-125 -80l0 0c-8,83 135,180 134,160 44,66 98,122 151,179 38,-30 -20,-89 -62,-134 -55,-60 -150,-154 -152,-116 -26,-27 -32,-75 -71,-89zm1311 187l0 0c-62,-78 -149,-130 -232,-187 54,60 119,160 232,187zm-1061 179l0 0c-101,-128 -197,-261 -348,-339 126,103 217,240 348,339zm-375 -268l0 0c131,74 223,235 330,303 -69,-124 -218,-245 -339,-348 -7,26 13,23 9,45zm1436 178l0 0c-2,-58 -63,-87 -98,-116 -41,-33 -84,-65 -125,-98 8,136 156,167 223,214zm-1489 -187l0 0c98,134 228,236 348,348 -98,-154 -241,-247 -348,-348zm303 366l0 0c-96,-124 -212,-229 -339,-321 101,118 201,238 339,321zm241 -223l0 0c0,-39 3,-81 -18,-98 5,33 -15,91 18,98zm-625 -27l0 0c107,66 163,230 304,232 -101,-84 -178,-191 -286,-268 0,18 -24,12 -18,36zm1365 36l0 0c70,36 113,101 178,142 -21,-35 4,-56 27,-71 -74,-45 -140,-98 -214,-143 -2,29 16,38 9,72zm-1231 187l0 0c-1,-16 9,-21 27,-18 -44,-77 -119,-125 -178,-187 -4,88 93,150 151,205zm1409 0l0 0c6,-35 -20,-40 -44,-45 -2,11 1,26 -9,27 -11,-60 -72,-93 -125,-134 0,24 0,48 0,72 60,38 110,86 170,125 -2,-47 -33,-37 8,-45zm-1507 -62l0 0c-11,-12 -11,-25 -36,-36 35,68 97,100 36,36zm-80 0l0 0c16,52 89,125 142,169 16,-86 -77,-166 -142,-169zm134 285l0 0c8,-158 -116,-182 -179,-268 -17,136 113,187 179,268zm1391 -107l0 0c26,7 17,-12 54,9 0,-18 0,-36 0,-54 -47,-24 -83,-60 -125,-89 -1,14 1,31 -18,27 -3,-21 -6,-42 -36,-36 8,66 73,76 98,125 32,14 6,-30 27,-27 24,21 -24,24 0,45zm-1266 -54l0 0c1,-28 -23,-30 -45,-35 -1,28 23,30 45,35zm1284 152l0 0c26,-98 -106,-114 -152,-169 -15,101 58,115 107,151 12,-22 -35,-28 -9,-36 21,16 29,43 54,54zm-1615 9l0 0c12,23 44,-8 45,9 30,26 -36,21 -9,44 34,13 17,-24 45,-17 46,75 105,138 178,187 -55,-117 -194,-151 -223,-294 -34,7 -10,-43 -44,-36 -6,45 8,69 8,107zm223 62l0 0c-65,-53 -96,-141 -187,-169 53,59 126,155 187,169zm1365 18l0 0c45,-81 -86,-116 -143,-151 14,84 88,109 143,151zm-169 -62l0 0c17,75 92,92 142,134 -2,-27 20,-28 18,-54 -44,4 -66,-79 -89,-18 -5,-33 -34,-44 -36,-80 -9,0 -18,0 -26,0 -2,7 -1,18 -9,18zm-1187 125l0 0c-16,-53 -73,-111 -116,-107 46,29 71,78 116,107zm-187 9l0 0c158,115 285,309 455,383 -164,-143 -313,-300 -473,-446 -1,28 24,30 18,63zm1454 62l0 0c-45,-33 -41,-113 -107,-125 -34,77 69,121 107,125zm-1195 107l0 0c-47,-93 -143,-137 -205,-214 54,85 136,143 205,214zm1222 -116l0 0c21,-37 -35,-64 -63,-80 12,36 28,67 63,80zm-45 71l0 0c-20,-57 -88,-93 -125,-107 -24,82 93,86 125,107zm-187 -8l0 0c47,6 54,52 98,62 -14,-40 -77,-164 -98,-62zm-865 258l0 0c-119,-90 -222,-195 -330,-294 75,127 204,247 330,294zm802 -196l0 0c55,26 61,45 125,62 -12,-53 -39,-91 -80,-116 -9,24 -35,30 -45,54zm205 -9l0 0c-3,-26 -30,-29 -44,-45 4,26 22,65 44,45zm-267 80l0 0c42,9 56,45 98,54 27,-27 -53,-56 -27,-81 26,19 35,55 72,63 2,-12 12,-17 8,-36 -63,-14 -118,-89 -151,0zm-642 125l0 0c-17,-72 -90,-89 -134,-134 32,57 80,98 134,134zm571 -98l0 0c43,10 65,42 107,53 -14,-39 -40,-67 -81,-80 0,-5 -1,-10 -9,-9 0,18 -24,12 -17,36zm-473 80l0 0c-23,-21 -28,-61 -63,-71 -21,28 49,79 63,71zm410 -53l0 0c8,40 44,51 80,62 -4,-53 23,2 54,-9 -15,-42 -62,-51 -98,-71 -13,5 -23,13 -36,18zm-232 98l0 0c-32,-30 -72,-100 -134,-72 51,12 85,88 134,72zm98 -63l0 0c44,10 66,68 116,45 1,-28 -11,-43 -18,-62 -29,9 -97,-20 -98,17zm-89 107l0 0c-64,-34 -114,-81 -178,-116 33,58 91,172 178,116zm-18 -98l0 0c65,20 111,131 170,54 -29,-6 -53,-64 -72,-27 -14,-18 -24,-41 -53,-45 -6,16 -42,0 -45,18zm-258 27l0 0c20,45 80,98 142,71 -46,-23 -85,-113 -142,-71zm356 63l0 0c-18,-8 -26,-28 -53,-27 -5,27 37,50 53,27z"/>
   <path class="fil0" d="M4823 600c15,33 33,62 45,98 -21,-24 -60,-67 -45,-98z"/>
   <path class="fil0" d="M4351 1527c12,-232 198,-366 374,-463 147,-2 268,-3 366,44 72,35 178,182 205,268 29,95 23,214 18,348 -17,431 -280,867 -482,1150 -43,61 -96,120 -142,188 -39,55 -78,116 -143,187 -52,56 -130,165 -179,151 -45,-12 -59,-186 -71,-276 -17,-129 -9,-225 -27,-312 -67,-342 -54,-1004 81,-1285zm615 1053l0 0c130,-284 288,-544 285,-937 12,0 13,-11 27,-9 -10,-87 -48,-148 -53,-240 -16,-4 -23,13 -27,0 13,-30 10,-77 -18,-90 -15,6 1,43 -18,45 -12,-31 25,-57 0,-71 -23,16 -21,-68 -62,-63 -2,55 10,78 -9,107 -35,-68 -47,-111 -71,-178 -49,3 -99,-38 -143,-9 43,29 115,28 143,71 -115,-20 -200,-143 -304,-53 30,16 110,33 98,-9 43,29 67,76 116,98 -84,-48 -155,-58 -258,-89 -29,16 -63,27 -81,53 14,1 31,-1 27,18 -67,-7 -84,35 -98,80 51,3 78,-64 107,-53 -31,21 -67,78 -116,53 -51,163 -181,239 -169,438 -27,-26 -36,61 -18,80 -13,3 -15,10 -27,0 -28,541 17,991 63,1498 55,-19 148,-98 160,-178 11,0 12,11 27,9 72,-125 223,-255 250,-366 16,-2 19,10 35,9 46,-92 74,-132 125,-241 6,20 -25,29 9,27z"/>
   <path class="fil0" d="M4645 1233c-26,15 24,-14 27,-27 99,-2 4,14 -27,27z"/>
   <path class="fil0" d="M4092 2125c-32,-13 -19,-70 -45,-89 16,-7 37,58 45,89z"/>
   <path class="fil0" d="M4235 4810c24,44 70,66 80,125 -33,-36 -65,-72 -80,-125z"/>
   <path class="fil0" d="M4904 7396c-2,-55 -7,-91 -63,-107 -30,-171 -36,-388 -89,-562 -27,17 10,43 0,72 -49,-310 -78,-587 -116,-910 14,-32 -30,-5 -27,-27 38,-130 -53,-306 -9,-473 67,-40 214,-47 277,-62 61,24 134,23 223,36 110,74 233,135 312,241 8,24 31,-16 45,8 34,75 65,154 98,241 28,77 78,167 89,241 14,92 -17,255 -27,330 -9,65 -2,129 -18,187 -32,122 -93,218 -142,330 -8,19 0,46 -9,63 -63,120 -219,267 -348,339 -69,38 -107,56 -196,53zm669 -1239l0 0c-48,-6 -8,-143 -36,-197 -76,-145 -164,-344 -286,-383 5,-18 27,-18 9,-36 -154,-131 -389,-145 -615,-116 -11,29 29,7 18,36 -12,0 -24,0 -36,0 78,632 231,1291 294,1864 53,4 71,-72 107,-54 1,40 -41,36 -44,72 102,-4 128,-125 205,-125 -3,-45 22,-61 54,-71 4,12 -35,21 -9,26 199,-142 263,-377 330,-660 1,14 -4,33 9,36 15,-123 5,-250 0,-392zm-188 -527l0 0c15,-25 -24,-61 -53,-71 14,27 36,47 53,71zm-642 955l0 0c19,-26 3,-76 -9,-98 6,30 -11,82 9,98z"/>
   <path class="fil0" d="M3949 4435c70,152 71,415 107,571 -178,148 -282,411 -285,705 103,-30 197,-187 357,-161 26,28 -29,23 -27,54 -4,24 48,-7 44,17 57,608 180,1352 223,1873 -34,14 -18,-23 -35,-26 -352,19 -629,-114 -839,-268 -29,5 -41,-6 -62,-9 -369,-341 -513,-842 -428,-1445 33,-235 160,-463 303,-669 181,-260 377,-466 607,-633 8,-6 15,-15 26,-18 8,-1 9,4 9,9zm-802 1079l0 0c13,80 -49,149 -72,232 -39,145 -15,318 0,491 13,28 43,40 45,80 -39,20 -47,-63 -54,-18 30,78 41,174 81,241 -22,161 115,305 169,428 17,9 30,-27 36,0 18,62 46,114 124,116 97,195 396,187 589,286 5,1 112,-32 125,8 -25,13 -84,-7 -116,18 72,36 166,-4 250,18 -103,-576 -136,-1182 -268,-1739 33,-17 29,-59 9,-89 -126,51 -201,155 -321,214 -49,-52 -53,-133 -36,-214 43,-195 164,-438 250,-562 4,10 10,20 18,27 8,-31 36,-42 45,-72 -38,-161 -72,-327 -116,-481 -313,279 -608,576 -758,1016z"/>
  </g>
 </g>
</svg>
