<?xml version="1.0" encoding="UTF-8"?>
<!DOCTYPE svg PUBLIC "-//W3C//DTD SVG 1.1//EN" "http://www.w3.org/Graphics/SVG/1.1/DTD/svg11.dtd">
<!-- Creator: CorelDRAW X8 -->
<svg xmlns="http://www.w3.org/2000/svg" xml:space="preserve" width="8.5in" height="11in" version="1.1" style="shape-rendering:geometricPrecision; text-rendering:geometricPrecision; image-rendering:optimizeQuality; fill-rule:evenodd; clip-rule:evenodd"
viewBox="0 0 8500 11000"
 xmlns:xlink="http://www.w3.org/1999/xlink">
 <defs>
  <style type="text/css">
   <![CDATA[
    .fil0 {fill:black}
   ]]>
  </style>
 </defs>
 <g id="Layer_x0020_1">
  <metadata id="CorelCorpID_0Corel-Layer"/>
  <path class="fil0" d="M6916 8943c740,0 1339,-379 1339,-844l0 -6042 -5786 0 0 5409c-235,-134 -547,-212 -885,-212 -740,0 -1339,379 -1339,845 0,465 599,844 1339,844 740,0 1338,-379 1338,-844l0 -3639 4879 0 0 3006c-234,-134 -546,-212 -885,-212 -740,0 -1338,379 -1338,845 0,465 598,844 1338,844zm-3994 -4918l0 0 0 -592 4879 0 0 592 -4879 0z"/>
 </g>
</svg>
