<?xml version="1.0" encoding="UTF-8"?>
<!DOCTYPE svg PUBLIC "-//W3C//DTD SVG 1.1//EN" "http://www.w3.org/Graphics/SVG/1.1/DTD/svg11.dtd">
<!-- Creator: CorelDRAW X8 -->
<svg xmlns="http://www.w3.org/2000/svg" xml:space="preserve" width="8.5in" height="11in" version="1.1" style="shape-rendering:geometricPrecision; text-rendering:geometricPrecision; image-rendering:optimizeQuality; fill-rule:evenodd; clip-rule:evenodd"
viewBox="0 0 8500 11000"
 xmlns:xlink="http://www.w3.org/1999/xlink">
 <defs>
  <style type="text/css">
   <![CDATA[
    .fil0 {fill:black}
   ]]>
  </style>
 </defs>
 <g id="Layer_x0020_1">
  <metadata id="CorelCorpID_0Corel-Layer"/>
  <g id="_104746383968">
   <path class="fil0" d="M4790 600c-191,268 -382,535 -505,810 -125,276 -182,560 -158,854 22,297 123,606 218,892 96,289 188,559 229,813 41,251 30,488 -27,701 -57,215 -163,406 -278,542 -117,134 -240,210 -365,287 101,-172 201,-341 270,-516 68,-172 103,-346 100,-531 0,-186 -38,-385 -106,-617 -68,-235 -166,-505 -248,-753 -79,-248 -142,-474 -177,-679 -38,-204 -46,-387 -6,-586 41,-199 131,-415 254,-587 123,-171 278,-297 414,-392 139,-99 262,-170 385,-238z"/>
   <path class="fil0" d="M4790 10400c-191,-267 -382,-537 -505,-813 -125,-275 -182,-556 -158,-854 22,-294 123,-602 218,-891 96,-287 188,-557 229,-811 41,-250 30,-488 -27,-700 -57,-216 -163,-407 -278,-543 -117,-134 -240,-210 -365,-289 101,172 201,343 270,518 68,172 103,346 100,532 0,185 -38,382 -106,616 -68,235 -166,505 -248,753 -79,248 -142,472 -177,676 -38,205 -46,388 -6,589 41,200 131,415 254,587 123,169 278,294 414,392 139,99 262,167 385,238z"/>
  </g>
 </g>
</svg>
