<?xml version="1.0" encoding="UTF-8"?>
<!DOCTYPE svg PUBLIC "-//W3C//DTD SVG 1.1//EN" "http://www.w3.org/Graphics/SVG/1.1/DTD/svg11.dtd">
<!-- Creator: CorelDRAW X8 -->
<svg xmlns="http://www.w3.org/2000/svg" xml:space="preserve" width="8.5in" height="11in" version="1.1" style="shape-rendering:geometricPrecision; text-rendering:geometricPrecision; image-rendering:optimizeQuality; fill-rule:evenodd; clip-rule:evenodd"
viewBox="0 0 8500 11000"
 xmlns:xlink="http://www.w3.org/1999/xlink">
 <defs>
  <style type="text/css">
   <![CDATA[
    .fil0 {fill:black}
   ]]>
  </style>
 </defs>
 <g id="Layer_x0020_1">
  <metadata id="CorelCorpID_0Corel-Layer"/>
  <path class="fil0" d="M4891 7775c84,-316 210,-765 353,-1262 503,-138 951,-257 1268,-341 628,-168 736,-186 832,-227 102,-43 191,-114 251,-210 60,-96 96,-222 36,-269 -60,-43 -209,-6 -461,53 -257,60 -610,144 -1322,330 -137,36 -287,72 -448,113l293 -1023 203 -706c473,-126 891,-239 1190,-317 623,-168 730,-186 832,-228 96,-42 185,-114 251,-209 60,-96 90,-221 36,-269 -60,-43 -209,-6 -467,53 -251,60 -609,144 -1321,330 -114,24 -234,59 -365,89l388 -1358c168,-581 222,-767 126,-778 -90,-6 -329,155 -550,640 -180,383 -347,963 -539,1652 -544,144 -1142,299 -1704,448l407 -1424c167,-580 221,-766 125,-778 -90,-5 -329,156 -550,641 -186,389 -359,993 -557,1711 -717,186 -1322,347 -1716,527 -485,215 -652,449 -646,545 12,89 197,41 777,-114l1430 -389c-155,556 -323,1161 -473,1699 -694,180 -1274,342 -1657,515 -490,216 -658,449 -646,545 6,89 192,42 778,-114l1364 -371c-36,126 -66,251 -102,359 -191,712 -281,1065 -347,1323 -60,251 -101,401 -53,461 41,59 173,29 268,-31 96,-65 168,-155 210,-251 48,-95 66,-203 239,-826 84,-299 203,-718 335,-1185l712 -192 1023 -280c-42,161 -84,311 -120,442 -197,713 -287,1065 -347,1323 -66,251 -101,401 -59,461 47,60 173,30 268,-30 96,-66 168,-156 210,-252 48,-95 66,-203 245,-826zm-1770 -1214l0 0 311 -1083 179 -629 628 -167 1089 -294 -6 12c-150,557 -323,1161 -473,1706 -550,150 -1154,305 -1710,455l-18 0z"/>
 </g>
</svg>
