<?xml version="1.0" encoding="UTF-8"?>
<!DOCTYPE svg PUBLIC "-//W3C//DTD SVG 1.1//EN" "http://www.w3.org/Graphics/SVG/1.1/DTD/svg11.dtd">
<!-- Creator: CorelDRAW X8 -->
<svg xmlns="http://www.w3.org/2000/svg" xml:space="preserve" width="8.5in" height="11in" version="1.1" style="shape-rendering:geometricPrecision; text-rendering:geometricPrecision; image-rendering:optimizeQuality; fill-rule:evenodd; clip-rule:evenodd"
viewBox="0 0 8500 11000"
 xmlns:xlink="http://www.w3.org/1999/xlink">
 <defs>
  <style type="text/css">
   <![CDATA[
    .fil0 {fill:black}
   ]]>
  </style>
 </defs>
 <g id="Layer_x0020_1">
  <metadata id="CorelCorpID_0Corel-Layer"/>
  <path class="fil0" d="M1881 273l0 10454 453 0 0 -1843 975 0 0 1843 454 0 0 -1843 975 0 0 1843 453 0 0 -1843 975 0 0 1843 453 0 0 -10454c-1578,0 -3160,0 -4738,0zm1428 1011l0 0 0 1061 -975 0 0 -1061 975 0zm0 1458l0 0 0 1139 -975 0 0 -1139 975 0zm0 1536l0 0 0 1140 -975 0 0 -1140 975 0zm0 1533l0 0 0 1140 -975 0 0 -1140 975 0zm0 1536l0 0 0 1140 -975 0 0 -1140 975 0zm454 1140l0 0 0 -1140 975 0 0 1140 -975 0zm0 -1536l0 0 0 -1140 975 0 0 1140 -975 0zm0 -1533l0 0 0 -1140 975 0 0 1140 -975 0zm0 -1537l0 0 0 -1139 975 0 0 1139 -975 0zm0 -1536l0 0 0 -1061 975 0 0 1061 -975 0zm2403 -1061l0 0 0 1061 -975 0 0 -1061 975 0zm-975 6063l0 0 975 0 0 1140 -975 0 0 -1140zm0 -1536l0 0 975 0 0 1140 -975 0 0 -1140zm0 -1533l0 0 975 0 0 1140 -975 0 0 -1140zm0 -1536l0 0 975 0 0 1139 -975 0 0 -1139z"/>
 </g>
</svg>
