<?xml version="1.0" encoding="UTF-8"?>
<!DOCTYPE svg PUBLIC "-//W3C//DTD SVG 1.1//EN" "http://www.w3.org/Graphics/SVG/1.1/DTD/svg11.dtd">
<!-- Creator: CorelDRAW X8 -->
<svg xmlns="http://www.w3.org/2000/svg" xml:space="preserve" width="8.5in" height="11in" version="1.1" style="shape-rendering:geometricPrecision; text-rendering:geometricPrecision; image-rendering:optimizeQuality; fill-rule:evenodd; clip-rule:evenodd"
viewBox="0 0 8500 11000"
 xmlns:xlink="http://www.w3.org/1999/xlink">
 <defs>
  <style type="text/css">
   <![CDATA[
    .fil0 {fill:#090968}
   ]]>
  </style>
 </defs>
 <g id="Layer_x0020_1">
  <metadata id="CorelCorpID_0Corel-Layer"/>
  <g id="_68808227456">
   <path class="fil0" d="M1932 4304c21,7 6,49 5,89 -9,400 0,829 0,1226 0,180 -21,392 11,522 -17,16 -56,10 -84,16 -2,-16 5,-68 -5,-58 -8,16 -4,-17 5,-15 7,-516 -4,-1117 11,-1555 3,-82 -37,-244 57,-225zm-41 194l0 0c0,17 -1,25 0,36 1,62 2,0 5,-42 3,-50 2,-130 0,-156 -14,31 -1,107 -5,162zm5 344l0 0c8,-56 8,-175 0,-214 0,60 -15,162 0,214zm26 68l0 0c0,-14 0,-28 0,-42 -16,4 -21,43 0,42zm-5 193l0 0c-3,-46 14,-83 0,-131 -9,29 -9,119 0,131zm-11 798l0 0c-1,-32 17,-97 0,-109 5,38 -16,77 0,109z"/>
   <path class="fil0" d="M2117 4303c45,-13 126,30 172,0 44,17 1,120 31,162 -16,83 -22,217 5,297 -32,72 -18,220 -5,308 3,17 -6,22 -16,26 18,91 -10,226 16,308 4,21 -17,18 -10,42 -5,24 13,25 10,47 -19,36 -7,104 -10,156 -9,19 17,4 15,16 -13,37 -29,122 -5,162 -12,31 -23,124 5,146 -20,58 -4,76 -10,146 -8,22 29,-1 21,21 -47,40 -126,39 -193,21 -19,-4 -6,36 -26,15 -25,-3 13,-68 -16,-78 21,-205 -2,-432 5,-699 -16,13 -20,39 -31,57 -11,-30 24,-51 31,-88 15,-80 -10,-185 -5,-266 -6,0 -5,9 -5,15 10,-206 -6,-473 5,-720 1,-26 -7,-56 0,-73 3,-9 26,-8 16,-21zm15 329l0 0c23,-1 14,-31 0,-37 0,13 0,25 0,37zm89 -5l0 0c-4,-16 14,-10 10,-26 -5,0 -10,0 -15,0 -3,13 -7,18 5,26zm-21 42l0 0c2,-12 12,-29 -5,-32 -2,12 -12,29 5,32zm78 -6l0 0c1,-13 1,-25 -10,-26 -11,11 0,23 10,26zm-10 26l0 0c8,-8 -3,-24 -16,-26 -1,15 0,29 16,26zm-47 11l0 0c-3,-9 6,-31 -5,-31 -7,6 -9,31 5,31zm-89 21l0 0c11,-6 21,-50 -5,-47 3,14 -7,41 5,47zm47 -6l0 0c4,-11 11,-20 11,-36 -6,0 -11,0 -16,0 -7,7 -10,36 5,36zm52 -5l0 0c1,8 -2,20 6,21 1,-14 13,-18 15,-31 -17,-7 -4,17 -21,10zm-41 37l0 0c15,0 22,-35 5,-37 -2,13 -8,20 -5,37zm-26 0l0 0c1,-4 0,-10 5,-11 1,-13 -8,-16 -16,-21 -4,13 -12,34 11,32zm-42 42l0 0c18,-9 3,17 15,15 5,-17 16,-26 16,-47 -8,0 -4,-13 -16,-10 7,26 -16,22 -15,42zm104 5l0 0c-1,-14 17,-35 5,-42 -6,21 -16,4 -21,-5 -15,16 -2,38 16,47zm-57 -16l0 0c17,4 19,-9 21,-21 -7,0 -8,-6 -16,-5 2,13 -10,11 -5,26zm41 52l0 0c6,-21 -1,-33 -15,-47 -3,25 -5,37 15,47zm-67 -15l0 0c-1,13 8,16 15,20 -1,-16 14,-17 11,-36 -8,-1 -4,-13 -16,-10 3,12 8,24 -10,26zm104 15l0 0c8,-7 5,-27 -10,-26 -9,8 0,22 10,26zm-104 110l0 0c24,-4 25,-27 21,-47 -14,-6 -25,16 -32,0 18,-22 7,-61 -10,-78 -4,61 4,93 21,125zm114 -84l0 0c15,-8 25,-20 27,-41 -19,3 -18,28 -27,41zm-93 6l0 0c20,-1 -2,8 10,15 29,-1 10,-25 26,-31 -8,-6 -13,-15 -21,-21 -6,12 -8,26 -15,37zm46 -16l0 0c13,2 12,16 21,21 -1,-10 6,-12 6,-21 -8,-6 -22,-18 -27,0zm-5 68l0 0c2,-14 7,-25 16,-32 -13,3 3,-23 -16,-15 -9,14 -27,38 0,47zm84 26l0 0c2,-21 -2,-37 -21,-37 -8,10 9,30 21,37zm-110 31l0 0c4,-12 13,-39 -10,-36 -1,8 -15,35 10,36zm47 -15l0 0c2,-8 8,-10 5,-21 -5,0 -10,0 -15,0 -2,12 1,19 10,21zm-89 26l0 0c0,-19 -2,-36 -15,-42 -2,20 2,36 15,42zm110 5l0 0c10,-10 1,-13 0,-26 7,0 7,6 16,5 6,-15 2,-24 -16,-26 6,22 -26,36 0,47zm-31 -5l0 0c-1,-14 -1,-27 -16,-26 -2,16 7,21 16,26zm-16 31l0 0c1,-4 0,-10 5,-11 0,-9 -3,-17 -10,-20 -12,9 -10,24 5,31zm89 5l0 0c-4,-12 9,-41 -11,-36 -10,11 -1,32 11,36zm-58 0l0 0c5,-6 7,-14 6,-26 -20,-5 -21,26 -6,26zm-5 37l0 0c1,-19 -3,-32 -16,-37 -2,20 3,33 16,37zm-47 0l0 0c8,-8 0,-22 -10,-26 -9,7 0,22 10,26zm78 10l0 0c3,-10 12,-13 11,-26 -7,0 -7,-7 -16,-5 -7,6 -9,31 5,31zm-62 11l0 0c0,-6 -7,-5 -5,5 13,-1 16,-10 26,0 0,-16 -5,-27 -16,-32 -3,8 6,27 -5,27zm-31 15l0 0c-1,-13 -1,-27 -16,-26 5,9 0,28 16,26zm-37 11l0 0c7,-7 9,-32 -5,-32 3,9 -7,31 5,32zm141 -16l0 0c6,13 9,30 21,36 -5,-15 11,-52 -11,-52 1,9 -4,14 -10,16zm-68 26l0 0c-11,-3 -1,-26 -21,-21 1,10 14,35 21,21zm37 5l0 0c8,-9 4,-30 -16,-26 2,12 5,23 16,26zm10 26l0 0c20,4 20,-25 0,-21 0,7 0,14 0,21zm-89 37l0 0c22,6 22,-37 0,-31 -11,10 3,14 0,31zm-15 47l0 0c7,-9 22,-43 -6,-42 -3,12 -13,39 6,42zm41 -11l0 0c3,-10 12,-13 11,-26 -7,0 -7,-6 -16,-5 -7,7 -9,31 5,31zm-26 53l0 0c6,-15 28,-37 0,-42 -4,11 -20,37 0,42zm-31 15l0 0c2,10 2,23 16,21 -3,-7 6,-27 -6,-26 -1,4 -4,6 -10,5zm57 105l0 0c-2,-10 7,-32 -10,-27 -3,13 -11,27 10,27zm-15 36l0 0c5,-14 3,-24 -11,-31 -8,8 -6,33 11,31zm21 42l0 0c8,-9 6,-33 -11,-31 -5,14 -3,24 11,31zm-32 52l0 0c46,-16 -6,-51 -10,-78 -7,21 -2,52 10,78zm94 -37l0 0c12,4 24,-30 5,-26 3,13 -9,12 -5,26zm-88 136l0 0c16,-1 16,-18 20,-31 -5,0 -10,0 -15,0 0,12 -9,15 -5,31zm-11 52l0 0c4,-12 14,-44 -10,-41 -1,17 -2,36 10,41zm-21 94l0 0c-2,-12 5,-59 -5,-47 2,13 -4,60 5,47zm42 58l0 0c11,-8 17,-36 -5,-37 -3,11 -13,34 5,37zm-26 78l0 0c12,-6 3,-35 -5,-37 1,20 -14,35 5,37zm-16 16l0 0c-1,-12 4,-56 -5,-42 1,11 -4,55 5,42zm21 99l0 0c-2,-10 -2,-23 -16,-21 -1,13 -1,26 16,21zm16 36l0 0c7,-6 9,-31 -5,-31 2,16 -14,26 5,31zm-37 26l0 0c15,7 24,3 26,-15 -10,-11 -26,0 -26,15z"/>
   <path class="fil0" d="M7318 6137c16,-5 29,-14 29,-36 -57,164 -181,324 -279,471 -31,-41 -57,51 -103,80 -72,45 -140,41 -206,59 -48,-52 -165,-93 -199,-162 -67,-138 38,-280 96,-375 67,10 114,-46 191,-29 157,34 54,311 -103,243 -21,22 15,34 15,58 -27,12 -5,-25 -22,-22 -25,79 81,69 117,59 -32,-27 18,-28 52,-51 77,-53 132,-188 184,-280 69,-125 105,-263 176,-368 -49,-17 -130,-2 -191,-7 -17,-37 -4,-101 0,-140 71,-33 166,1 257,-7 172,-255 276,-577 560,-721 67,1 149,51 213,51 20,24 27,61 66,67 97,146 3,376 -118,456 -63,-12 -74,27 -110,29 -172,9 -126,-218 -22,-272 41,-1 79,-1 103,15 17,-13 3,-56 7,-81 -25,-3 -31,13 -44,22 -26,-16 -42,-42 -59,-66 -11,25 -15,39 -14,-8 -57,15 -116,59 -96,125 -12,2 -13,-7 -22,-7 -60,129 -136,247 -199,390 48,-3 135,9 192,0 21,41 4,108 7,162 -99,3 -188,-4 -280,-8 -69,115 -125,243 -198,353zm529 -1096l0 0c5,0 10,0 15,0 0,-19 0,-39 0,-58 -29,-5 -9,40 -15,58zm170 8l0 0c12,-13 8,-46 -8,-52 5,16 -9,49 8,52zm58 44l0 0c-5,-35 9,-51 8,-81 -10,1 -22,-30 -30,-7 22,1 2,92 22,88zm-110 -52l0 0c-3,-17 14,-16 7,-36 -7,0 -14,0 -22,0 -1,18 4,30 15,36zm118 155l0 0c0,-12 0,-25 0,-37 -33,1 -35,-29 -37,-59 -11,2 -27,-2 -29,8 29,22 32,70 66,88zm-361 -30l0 0c30,10 28,-49 15,-58 -1,23 -17,32 -15,58zm272 0l0 0c0,-23 -9,-39 -29,-44 3,22 13,37 29,44zm155 59l0 0c5,-19 7,-46 -7,-73 4,22 -10,63 7,73zm-383 8l0 0c6,-6 20,-51 -7,-44 4,12 -9,43 7,44zm-132 95l0 0c25,0 30,-58 15,-73 -18,12 -16,43 -15,73zm397 37l0 0c6,-18 27,-67 0,-73 -19,10 -39,68 0,73zm-441 66l0 0c10,-17 14,-79 0,-95 -15,22 -23,75 0,95zm463 -36l0 0c0,9 0,19 0,29 29,-1 64,-35 44,-59 1,25 -14,34 -44,30zm-529 169l0 0c10,-23 10,-59 -8,-74 -12,16 -1,56 8,74zm-111 29l0 0c32,2 20,-59 15,-44 -4,15 -18,21 -15,44zm74 37l0 0c-5,-22 9,-63 -7,-74 -14,15 -29,71 7,74zm-52 88l0 0c-4,-15 12,-51 -14,-44 4,15 -12,51 14,44zm-323 -7l0 0c6,7 47,16 51,0 -27,7 -42,-31 -51,0zm250 176l0 0c1,-23 19,-68 0,-88 -19,24 -20,79 0,88zm-81 15l0 0c-5,-20 9,-58 -7,-66 -2,13 -24,66 7,66zm-81 118l0 0c35,3 42,-92 22,-96 -16,23 -11,68 -22,96zm103 14l0 0c18,6 31,-31 15,-36 -3,14 -21,13 -15,36zm-81 89l0 0c15,-23 -7,-41 7,-59 -16,-6 -30,27 -14,29 21,-21 -12,33 7,30zm-544 154l0 0c24,9 18,-49 7,-51 -10,9 -7,32 -7,51zm110 8l0 0c0,-10 0,-20 0,-30 -7,0 -15,0 -22,0 3,14 3,32 22,30zm-125 51l0 0c-3,-19 -4,-40 -15,-51 6,16 -13,57 15,51zm390 -22l0 0c-1,26 2,47 15,59 13,-27 21,-70 0,-81 0,13 -6,19 -15,22zm-449 22l0 0c3,-9 10,-15 22,-15 2,30 -7,71 15,81 6,-40 -9,-59 -7,-95 -22,-7 -48,20 -30,29zm405 88l0 0c11,-8 38,-39 14,-58 -6,13 -36,40 -14,58zm-37 81l0 0c7,-6 33,-45 0,-44 8,19 -22,35 0,44zm-324 37l0 0c-6,-16 -8,-74 -29,-51 18,8 0,53 29,51zm52 59l0 0c31,6 25,-40 0,-37 5,23 5,14 0,37zm191 15l0 0c0,-15 0,-30 0,-44 -7,0 -15,0 -22,0 0,22 7,37 22,44zm-118 73l0 0c2,-23 61,12 52,-22 -23,-2 -73,5 -52,22z"/>
   <path class="fil0" d="M3912 4289c2,11 -8,10 -16,10 -1,26 30,19 47,26 -19,89 -3,212 -16,308 65,-35 176,-68 230,-130 20,7 27,-3 42,5 -11,6 -21,13 -26,26 -8,109 18,189 0,256 -85,38 -166,81 -251,120 -2,89 4,231 0,323 77,-43 182,-59 225,-136 17,7 24,24 47,27 -7,59 14,159 -26,203 -9,19 17,3 15,16 -78,57 -166,109 -256,141 5,197 -6,396 6,594 4,15 18,-9 26,6 -20,46 -96,26 -131,26 0,-172 1,-381 0,-569 -27,4 -78,29 -99,57 -74,7 -110,54 -172,73 -3,156 10,321 5,460 -16,2 -23,-5 -21,-21 -11,4 -4,27 -15,31 -22,2 -3,-11 -5,-21 -25,0 -49,0 -74,0 0,-130 0,-261 0,-391 -63,25 -127,50 -172,94 -31,-45 -13,-153 -5,-209 -4,-19 -27,13 -31,-5 50,-61 134,-89 208,-125 1,-112 2,-224 -10,-324 -62,25 -118,56 -183,78 8,-23 4,-34 -15,-41 2,-66 -6,-142 5,-199 62,-36 128,-70 193,-104 0,-201 10,-377 5,-579 26,-18 73,-15 110,-21 -6,167 -5,336 0,537 95,-44 183,-95 276,-141 4,-123 -6,-260 6,-375 43,3 48,-10 78,-26zm-423 151l0 0c6,-22 12,-70 -5,-73 -1,24 -1,137 5,73zm360 188l0 0c8,-61 4,-145 -5,-193 3,62 -7,139 5,193zm-318 5l0 0c-3,-22 6,-82 -5,-78 2,22 -6,82 5,78zm501 -21l0 0c19,-1 33,-8 42,-21 -18,4 -37,5 -42,21zm-63 32l0 0c17,-2 26,-13 37,-21 -17,-1 -40,19 -37,21zm-485 156l0 0c-3,-51 7,-142 -5,-167 3,51 -7,142 5,167zm558 -120l0 0c15,-10 40,-37 32,-52 -13,15 -19,37 -32,52zm68 84l0 0c15,-1 19,-40 16,-42 -7,12 -13,25 -16,42zm-183 -11l0 0c13,4 23,-22 11,-26 -2,10 -15,9 -11,26zm6 104l0 0c-6,-59 53,-82 52,-120 -24,29 -79,77 -52,120zm146 -47l0 0c22,-6 35,-23 52,-36 -25,5 -44,15 -52,36zm-360 11l0 0c24,-4 37,-18 47,-37 -23,5 -40,16 -47,37zm-58 26l0 0c19,-2 34,-8 37,-26 -7,0 -7,-7 -16,-5 1,18 -17,17 -21,31zm11 115l0 0c23,-30 80,-80 68,-110 -23,33 -61,79 -68,110zm-52 -32l0 0c10,-17 49,-34 36,-57 -17,11 -44,39 -36,57zm146 11l0 0c21,-12 27,-39 41,-57 -21,9 -38,46 -41,57zm36 -21l0 0c21,8 40,-29 16,-31 0,15 -14,17 -16,31zm-146 -10l0 0c-2,36 -30,46 -36,78 29,-27 47,-64 73,-94 -24,-6 -12,23 -37,16zm73 26l0 0c2,-8 30,-30 5,-32 9,18 -22,23 -5,32zm-172 99l0 0c14,-34 59,-66 57,-99 -25,23 -58,66 -57,99zm-146 -58l0 0c15,2 32,-23 21,-31 -7,11 -15,21 -21,31zm407 -15l0 0c-30,29 -78,30 -110,52 -12,9 -18,25 -31,31 -7,4 -19,-2 -26,0 -33,12 -64,40 -99,52 -6,116 10,241 0,329 94,-44 186,-92 276,-141 0,-108 0,-215 0,-323 -3,0 -7,0 -10,0zm-506 52l0 0c17,1 39,-41 21,-42 -1,20 -22,20 -21,42zm26 115l0 0c17,-43 73,-101 63,-136 -18,46 -65,89 -63,136zm21 15l0 0c31,-43 60,-89 78,-146 -36,36 -68,103 -78,146zm-63 -15l0 0c33,-25 59,-84 68,-115 -27,33 -45,77 -68,115zm-26 0l0 0c13,-33 29,-61 42,-94 -39,3 -41,71 -42,94zm574 42l0 0c0,28 -4,106 5,93 1,-27 -3,-58 5,-78 -15,-32 5,-99 -10,-130 0,29 0,74 0,115zm-313 260l0 0c0,6 7,5 5,-5 -3,-82 7,-222 -5,-313 -2,87 -7,207 0,318zm-261 -240l0 0c4,-5 28,-16 11,-26 0,10 -27,18 -11,26zm892 73l0 0c1,-9 14,-34 0,-41 -1,9 -13,34 0,41zm-120 73l0 0c-19,-30 65,-77 47,-104 -25,27 -41,63 -62,94 10,-2 10,7 15,10zm-26 68l0 0c33,-37 80,-87 84,-135 -25,48 -59,87 -84,135zm-548 0l0 0c9,30 5,-26 6,-36 0,-25 -1,-56 0,-78 -9,-1 -3,-15 -11,-16 6,67 -6,93 5,130zm637 -68l0 0c7,-13 32,-37 16,-57 2,24 -30,40 -16,57zm-11 37l0 0c13,1 17,-8 27,-10 -3,-8 6,-27 -6,-27 -9,11 -11,27 -21,37zm-297 5l0 0c21,3 41,-21 26,-36 -4,17 -24,17 -26,36zm-104 26l0 0c11,-10 23,-18 26,-36 -19,-1 -32,30 -26,36zm52 0l0 0c25,1 29,-19 36,-36 -22,2 -25,23 -36,36zm224 37l0 0c25,-5 40,-47 37,-63 -11,22 -27,40 -37,63zm-344 -5l0 0c18,-4 46,-24 31,-42 -6,18 -29,20 -31,42zm141 -11l0 0c18,-6 39,-9 41,-31 -15,9 -40,9 -41,31zm36 37l0 0c3,-17 36,-30 21,-47 -3,16 -32,34 -21,47zm-156 -6l0 0c13,-4 44,-18 31,-31 -11,10 -26,16 -31,31zm73 -5l0 0c18,1 19,-15 26,-26 -19,-1 -27,8 -26,26zm-157 32l0 0c4,-23 24,-28 26,-53 -19,4 -40,33 -26,53zm146 36l0 0c25,-1 45,-48 63,-73 -38,8 -34,56 -63,73zm-88 -21l0 0c16,3 21,-6 26,-15 -11,-11 -20,6 -26,15zm161 26l0 0c12,-5 52,-10 37,-26 -13,8 -33,10 -37,26zm120 136l0 0c5,-52 14,-122 -5,-162 4,52 -7,118 5,162zm-307 -115l0 0c14,0 35,-20 20,-31 -5,11 -17,17 -20,31zm78 11l0 0c16,0 18,-14 21,-26 -17,-1 -18,13 -21,26zm-350 125l0 0c32,-38 66,-101 79,-141 -34,40 -54,92 -79,141zm245 -120l0 0c-6,-17 17,-4 11,-21 -7,0 -14,0 -21,0 1,10 3,17 10,21zm-10 89l0 0c21,-22 60,-79 47,-100 -10,39 -41,56 -47,100zm-146 -32l0 0c9,-22 27,-35 36,-57 -18,9 -45,37 -36,57zm16 21l0 0c-2,-18 31,-27 15,-42 -4,12 -28,31 -15,42zm94 360l0 0c-5,-70 8,-169 -6,-214 6,73 -9,164 6,214zm365 78l0 0c19,-36 13,-136 5,-167 -1,56 4,119 -5,167zm-376 21l0 0c6,-18 12,-47 -10,-47 2,17 -7,45 10,47z"/>
   <path class="fil0" d="M5835 6496c-10,-8 -5,43 -31,36 -12,-120 -2,-262 -5,-391 -46,0 -98,-8 -167,-5 8,106 -21,306 21,381 -38,15 -84,-9 -89,36 -26,-51 -16,-133 -16,-209 1,-72 2,-138 0,-208 -90,0 -183,2 -266,-5 -8,109 -5,253 6,391 -30,10 -78,16 -105,0 -2,-150 6,-244 5,-386 -76,-1 -158,2 -214,-5 -13,131 0,280 0,401 -48,-26 -44,8 -93,0 -8,-710 -9,-1638 -6,-2238 259,-3 716,3 1044,-5 -31,507 -11,1263 -11,1899 0,62 -2,118 0,183 3,73 17,173 -31,177 -21,-6 -21,-26 -42,-21 -15,-6 6,-18 0,-31zm-626 -282l0 0c20,-5 12,-65 5,-78 -17,44 8,29 -5,78zm5 -1899l0 0c22,9 65,5 105,5 32,0 92,4 83,-5 -35,3 -57,-6 -88,-5 -26,9 -66,3 -100,5zm475 94l0 0c-5,0 -4,6 6,5 56,3 65,-5 10,-10 -7,-1 -12,2 -16,5zm178 41l0 0c3,-12 8,-24 -11,-26 -1,13 -1,26 11,26zm-574 -10l0 0c31,4 84,-2 68,-5 -19,-3 -72,-7 -73,10 0,-3 0,-6 5,-5zm182 26l0 0c35,-6 50,2 73,-5 -26,-5 -60,-12 -73,5zm324 -10l0 0c-16,3 -45,-7 -52,5 16,-3 45,7 52,-5zm42 83l0 0c6,-6 10,-41 0,-47 1,15 -15,37 0,47zm-877 225l0 0c94,-6 157,12 235,0 3,-84 -7,-181 5,-256 -78,-2 -165,4 -235,-5 -1,89 -6,200 -5,261zm673 -256l0 0c-9,55 2,178 -10,261 68,-1 117,2 177,0 0,-85 0,-171 0,-256 -46,-10 -128,-4 -167,-5zm-376 120l0 0c0,-40 3,-72 6,-120 -6,0 -11,0 -16,0 7,41 -6,71 10,120zm21 -104l0 0c12,17 3,151 6,245 95,0 163,-5 255,0 23,-69 1,-188 11,-261 -91,0 -181,0 -272,0 0,5 0,10 0,16zm292 130l0 0c-3,-47 7,-108 -5,-146 -8,45 -8,118 5,146zm-678 -52l0 0c21,-2 10,-85 5,-78 1,28 1,56 -5,78zm355 109l0 0c25,-4 -1,-60 16,-73 -6,0 -11,0 -16,0 9,23 5,63 0,73zm501 115l0 0c19,-1 34,1 47,5 7,-20 -62,-10 -47,-5zm-788 21l0 0c0,75 0,150 0,224 84,2 179,-2 230,6 8,-65 -9,-152 5,-230 -84,3 -180,-5 -235,0zm324 0l0 0c-10,39 -3,168 -6,230 96,3 181,-7 266,0 0,-77 0,-153 0,-230 -87,0 -174,0 -260,0zm344 230l0 0c60,-3 105,9 167,5 7,-81 -6,-168 5,-230 -58,2 -124,-15 -177,0 8,69 -5,162 5,225zm-371 -141l0 0c-3,-26 7,-66 -5,-84 -2,21 -16,72 5,84zm-5 78l0 0c1,-17 16,-57 -5,-73 8,23 -9,50 5,73zm-344 115l0 0c20,-37 10,-132 5,-178 -7,26 -5,132 -5,178zm-26 -11l0 0c6,15 5,36 5,58 8,-37 17,-117 0,-162 -2,35 5,78 -5,104zm454 -26l0 0c-11,2 -56,-4 -42,5 55,-8 122,23 162,-5 -40,0 -80,0 -120,0zm328 11l0 0c39,-2 111,17 131,0 -28,-9 -120,-9 -131,0zm-751 94l0 0c10,-15 7,-53 -5,-63 3,19 -7,52 5,63zm47 -32l0 0c0,80 0,160 0,240 99,-1 131,6 224,6 10,-57 4,-165 6,-246 -77,0 -153,0 -230,0zm324 6l0 0c-13,69 -2,161 -6,240 90,10 190,-8 266,5 0,-80 0,-160 0,-240 -70,-3 -187,-8 -260,-5zm339 245l0 0c57,0 114,0 172,0 -4,-79 7,-171 -5,-240 -58,14 -115,-2 -167,0 3,79 -2,151 0,240zm245 -146l0 0c-8,-10 0,-35 -11,-42 5,13 -10,45 11,42zm10 151l0 0c0,7 1,20 6,10 0,-8 0,-17 0,-26 0,-17 0,-34 0,-52 2,-11 12,-34 -6,-36 0,34 0,69 0,104zm-652 -10l0 0c6,-19 14,-79 -5,-89 3,28 -7,69 5,89zm-136 36l0 0c33,0 69,-2 94,5 -6,-20 -96,-10 -94,-5zm314 -5l0 0c-41,3 -94,-7 -126,5 40,-3 94,7 126,-5zm464 266l0 0c-4,-71 7,-157 -5,-219 0,61 -15,166 5,219zm-908 10l0 0c66,13 146,11 224,11 0,-77 0,-153 0,-230 -87,1 -150,-1 -224,-5 0,75 0,150 0,224zm329 -219l0 0c-7,2 -11,7 -11,16 0,73 0,146 0,219 89,0 178,0 266,0 0,-75 0,-150 0,-224 -80,-9 -172,-5 -255,-11zm334 11l0 0c2,76 -1,139 0,224 57,0 114,0 172,0 0,-78 0,-156 0,-235 -61,3 -140,-6 -172,11zm-710 125l0 0c-3,-24 6,-86 -5,-84 3,24 -6,86 5,84zm329 94l0 0c0,-30 -1,-58 -11,-78 -1,24 -10,63 11,78zm-355 151l0 0c-2,11 1,54 5,26 -1,-59 6,-142 -5,-182 0,52 0,104 0,156zm78 157l0 0c72,0 143,0 214,0 8,-53 4,-140 5,-214 -77,-9 -138,-3 -224,-5 -1,80 1,172 5,219zm313 -214l0 0c-5,64 1,150 0,214 89,0 178,0 266,0 -3,-70 7,-153 -5,-214 -93,4 -163,0 -261,0zm308 214l0 0c-6,-67 13,-160 -10,-209 11,58 -14,153 10,209zm42 0l0 0c60,-3 111,3 167,5 0,-71 0,-143 0,-214 -58,0 -115,0 -172,0 6,49 5,137 5,209zm-391 -136l0 0c-8,-12 -2,-65 -11,-57 5,17 -11,56 11,57zm-308 130l0 0c-6,-31 11,-112 -11,-109 17,34 -8,83 11,109zm678 -26l0 0c-2,-17 5,-71 -5,-62 3,28 -13,46 5,62zm224 26l0 0c-2,-20 6,-78 -5,-73 3,21 -5,79 5,73zm-313 27l0 0c-38,3 -90,-7 -120,5 39,-4 91,7 120,-5zm230 41l0 0c14,-4 49,11 47,-10 -11,5 -56,2 -47,10zm-746 5l0 0c-11,0 -28,-16 -37,6 63,1 99,-4 37,-6zm182 0l0 0c-31,-13 -96,1 -120,-5 18,18 85,12 120,5zm220 11l0 0c-10,-12 -85,-2 -120,-5 -1,-3 -1,-6 -6,-6 22,24 87,4 126,11zm166 146l0 0c-2,-19 6,-75 -5,-68 3,19 -5,75 5,68zm314 120l0 0c-3,-27 6,-93 -6,-94 3,40 -8,63 6,94zm-58 -5l0 0c-2,-14 5,-64 -5,-52 2,14 -5,63 5,52zm-256 78l0 0c-2,-19 6,-75 -5,-68 3,19 -5,75 5,68zm261 31l0 0c1,-32 0,-62 -10,-83 -1,32 0,62 10,83zm-626 -5l0 0c3,55 13,-49 0,-57 -9,17 -3,38 0,57z"/>
   <path class="fil0" d="M508 4393c13,59 6,136 5,198 0,30 4,44 0,79 -9,75 0,174 0,271 0,88 1,180 5,266 7,140 -17,283 16,381 7,25 -22,13 -16,37 0,161 15,426 5,620 -81,3 -181,3 -219,21 -17,-178 7,-362 -15,-511 14,-24 15,-58 15,-89 -1,-387 -6,-850 6,-1278 45,-10 135,1 198,5zm-11 115l0 0c0,-9 0,-17 0,-26 -7,1 -19,-2 -20,5 12,2 3,25 20,21zm-20 156l0 0c12,-1 24,-31 15,-36 -7,10 -14,21 -15,36zm-136 42l0 0c0,-8 22,-33 0,-31 6,13 -16,25 0,31zm156 26l0 0c-2,-10 8,-31 -10,-26 1,17 -12,25 10,26zm-78 26l0 0c9,-8 5,-26 -5,-31 -7,7 -9,31 5,31zm-94 68l0 0c5,-16 28,-41 16,-57 -9,5 -11,21 -21,10 2,24 -1,38 5,47zm115 -26l0 0c-2,-10 7,-31 -10,-26 -8,8 -5,27 10,26zm26 5l0 0c6,-6 6,-18 5,-31 -6,1 -14,-1 -15,5 14,-2 -4,29 10,26zm-68 11l0 0c11,-11 2,-33 -10,-37 -11,12 -2,33 10,37zm-10 26l0 0c0,-18 -7,-28 -16,-37 -1,19 4,32 16,37zm57 -5l0 0c19,1 19,-27 0,-26 -10,10 3,9 0,26zm-120 36l0 0c13,-2 34,-43 11,-47 2,22 -16,23 -11,47zm78 -15l0 0c15,0 16,-13 16,-27 -16,-2 -17,12 -16,27zm-31 15l0 0c11,-11 2,-32 -10,-36 -1,16 0,31 10,36zm58 32l0 0c4,-6 14,-46 -6,-42 -5,14 -4,30 6,42zm-42 10l0 0c8,-9 6,-33 -11,-31 0,13 -2,30 11,31zm-37 5l0 0c6,-7 3,-33 -15,-31 -1,16 4,26 15,31zm73 5l0 0c-1,-12 -5,-22 -15,-26 -1,15 -1,29 15,26zm-15 42l0 0c2,-24 6,-34 -16,-42 1,19 2,36 16,42zm-84 11l0 0c3,-18 15,-28 16,-47 -7,0 -14,0 -21,0 3,14 -7,41 5,47zm162 -11l0 0c17,7 13,-35 5,-36 3,16 -9,18 -5,36zm-21 0l0 0c-3,-9 6,-31 -5,-31 -9,7 -19,33 5,31zm-78 47l0 0c0,-17 2,-37 -16,-36 6,11 1,33 16,36zm-58 0l0 0c18,8 25,-35 6,-31 0,12 -9,15 -6,31zm105 26l0 0c4,-4 14,-36 -5,-31 -9,8 -3,24 5,31zm-73 42l0 0c17,-18 3,-47 -11,-63 -13,20 -2,53 11,63zm135 -26l0 0c-3,-11 9,-36 -10,-32 3,11 -8,37 10,32zm-10 36l0 0c7,-15 6,-32 -10,-36 0,15 -5,36 10,36zm-115 21l0 0c2,-7 24,-31 0,-31 7,15 -14,26 0,31zm42 0l0 0c-4,-11 -3,-28 -16,-31 3,13 0,31 16,31zm-63 11l0 0c0,-18 -7,-28 -15,-37 1,16 -1,36 15,37zm126 5l0 0c2,-19 6,-28 -11,-37 -9,10 -1,32 11,37zm-79 31l0 0c3,-18 12,-42 -10,-47 -8,11 -10,49 10,47zm79 73l0 0c28,-11 24,-83 15,-115 -6,22 -13,34 -5,58 -7,0 -7,-7 -16,-5 14,52 1,25 6,62zm-141 -26l0 0c18,-15 -7,-44 -16,-62 -3,29 5,47 16,62zm41 0l0 0c9,-10 9,-43 -10,-42 -1,19 1,34 10,42zm37 -5l0 0c4,-4 14,-41 -5,-37 -7,7 -10,37 5,37zm21 52l0 0c7,-8 11,-46 -5,-47 -17,12 -10,38 5,47zm-37 -5l0 0c9,-9 8,-38 -10,-37 1,15 -5,36 10,37zm-31 0l0 0c0,-16 -5,-27 -16,-31 3,13 0,31 16,31zm110 21l0 0c1,-21 -7,-32 -16,-42 -2,21 2,36 16,42zm-89 21l0 0c-3,-13 0,-32 -16,-32 0,16 0,32 16,32zm36 10l0 0c0,-18 4,-42 -15,-42 -8,16 2,33 15,42zm37 16l0 0c5,-22 7,-51 -16,-58 -4,21 -7,51 16,58zm-115 -11l0 0c6,-15 4,-34 -10,-41 -1,17 -2,36 10,41zm-26 52l0 0c25,-1 18,-53 0,-57 0,19 0,38 0,57zm37 -10l0 0c23,-1 16,-38 0,-42 -2,19 -8,25 0,42zm52 -5l0 0c0,-17 2,-37 -16,-37 -1,19 4,32 16,37zm41 10l0 0c2,-22 -8,-33 -15,-47 -11,15 1,42 15,47zm-57 42l0 0c5,-21 6,-41 -16,-47 -12,17 1,42 16,47zm-52 5l0 0c20,3 25,-51 0,-47 -3,19 -9,30 0,47zm99 -5l0 0c0,-16 -11,-47 -26,-31 12,7 4,34 26,31zm63 63l0 0c-4,-33 9,-83 -11,-100 -14,36 -10,75 11,100zm-131 -6l0 0c5,-15 14,-56 -10,-57 -7,17 -11,54 10,57zm47 -10l0 0c14,-18 -3,-39 -16,-47 -10,20 2,37 16,47zm-94 26l0 0c12,-22 22,-53 -5,-68 3,21 -7,56 5,68zm26 52l0 0c14,-23 10,-53 -5,-73 -12,22 -14,57 5,73zm47 -21l0 0c7,-16 5,-43 -10,-52 -14,19 -8,40 10,52zm47 -26l0 0c0,-7 0,-14 0,-21 -5,0 -10,0 -15,0 2,10 1,23 15,21zm-73 84l0 0c7,-13 21,-50 -5,-52 -3,26 -16,38 5,52zm52 -21l0 0c6,-14 4,-25 -10,-31 -9,8 -6,32 10,31zm-104 26l0 0c7,0 11,2 16,5 10,-13 -5,-34 -16,-42 0,13 0,25 0,37zm183 0l0 0c-6,-13 -3,-36 -21,-37 0,20 2,36 21,37zm-100 42l0 0c7,-16 11,-49 -10,-53 -8,18 -8,47 10,53zm89 -21l0 0c0,-13 -7,-20 -21,-21 -2,17 11,31 21,21zm-141 26l0 0c7,-7 10,-37 -5,-37 -5,14 -5,27 5,37zm21 5l0 0c-2,6 -5,12 -10,16 3,14 10,24 21,31 7,-16 5,-39 -11,-47zm63 42l0 0c1,-9 17,-43 -5,-42 -14,11 -12,36 5,42zm-68 52l0 0c10,-14 6,-48 -16,-47 -1,22 1,41 16,47zm120 -10l0 0c30,-2 9,-34 -5,-37 -4,18 8,20 5,37zm-162 5l0 0c0,-10 14,-31 0,-37 -5,5 -11,34 0,37zm94 15l0 0c8,-23 2,-37 -21,-41 -2,22 4,38 21,41zm68 11l0 0c0,-16 0,-32 -16,-31 0,15 -3,34 16,31zm-146 31l0 0c29,-6 21,-54 -5,-57 -1,21 -1,43 5,57zm68 5l0 0c2,-26 -4,-44 -21,-52 -11,22 1,46 21,52zm62 -5l0 0c9,-8 8,-30 -10,-26 -1,13 -1,25 10,26zm-130 58l0 0c-1,-26 0,-52 -21,-58 -1,27 0,53 21,58zm47 5l0 0c17,-23 3,-49 -16,-63 -16,26 -3,47 16,63zm42 -21l0 0c-3,-13 9,-11 5,-26 -7,0 -7,-7 -16,-5 -1,15 1,26 11,31zm73 16l0 0c-3,-17 6,-46 -11,-47 -8,16 -6,41 11,47zm-126 52l0 0c0,-26 -4,-48 -26,-52 -6,18 9,42 26,52zm26 -11l0 0c22,1 19,-36 6,-41 -7,14 -13,25 -6,41zm-41 42l0 0c8,-10 -5,-30 -16,-36 -7,8 6,28 16,36zm36 5l0 0c11,-11 2,-28 -10,-31 0,14 -3,31 10,31zm-47 37l0 0c8,-19 1,-48 -26,-47 6,18 9,40 26,47zm152 10l0 0c0,-15 0,-31 0,-47 -6,0 -11,0 -16,0 -11,21 5,34 16,47zm-84 0l0 0c16,8 16,-34 0,-26 0,9 0,18 0,26zm73 32l0 0c3,-21 -8,-28 -15,-37 -4,21 7,27 15,37zm-115 10l0 0c8,-16 8,-38 -10,-42 -14,16 4,31 10,42zm-15 73l0 0c11,-35 -19,-66 -42,-83 3,38 27,56 42,83zm41 -31l0 0c12,-12 4,-35 -10,-37 1,15 -4,36 10,37zm100 26l0 0c-11,-21 -16,-48 -37,-58 8,24 16,48 37,58zm0 -37l0 0c0,-7 0,-14 0,-21 -6,0 -11,0 -16,0 2,10 2,23 16,21zm-26 52l0 0c-4,-14 -11,-24 -21,-31 -3,20 11,24 21,31zm-42 0l0 0c1,-14 0,-28 -16,-26 -2,17 7,22 16,26zm-47 16l0 0c1,-12 -1,-20 -5,-26 -6,0 -11,0 -16,0 -1,17 6,25 21,26zm31 47l0 0c0,-16 -5,-26 -16,-31 -10,11 2,29 16,31zm84 11l0 0c-2,-19 -19,-47 -32,-37 16,7 16,30 32,37zm-152 20l0 0c-3,-22 -9,-43 -31,-47 3,24 15,38 31,47zm-26 58l0 0c26,-1 12,-54 -5,-37 12,3 2,26 5,37z"/>
   <path class="fil0" d="M795 5489c-9,12 23,82 -16,68 -23,0 12,-16 0,-37 -18,-63 -53,-111 -115,-130 -5,270 3,571 16,840 -21,28 -58,15 -94,21 -14,-538 6,-1254 -16,-1842 24,-25 69,-43 94,-11 -9,235 -17,542 -5,799 74,-34 112,-104 136,-188 42,26 80,56 125,78 202,-19 365,-67 350,-292 -11,-19 -5,23 -21,16 -5,-30 12,-37 15,-58 -11,-17 -15,16 -31,11 9,-19 30,-26 31,-53 -29,-40 -23,-113 -99,-93 3,-47 -28,-59 -57,-74 -7,2 -7,16 0,16 -10,8 -31,-17 -31,-36 -15,23 -36,9 -73,5 89,180 -118,355 -240,229 4,5 5,12 5,21 -37,-33 -46,-93 -52,-156 -18,6 -6,43 -27,47 13,-97 63,-179 131,-230 116,-87 336,-102 423,26 110,68 159,245 135,418 -26,193 -194,344 -412,339 -21,-1 -22,-23 -47,-21 -40,31 -50,92 -89,125 43,19 81,41 99,84 45,-13 96,-19 152,-21 11,11 -5,17 5,26 87,-4 136,51 177,104 46,59 71,58 89,136 6,26 28,52 31,83 5,43 16,99 6,136 -16,54 -64,154 -89,193 -2,2 -14,-2 -16,0 -5,7 0,19 -5,26 -45,73 -169,145 -266,151 -9,2 -12,9 -10,21 -20,-4 -28,-27 -37,0 -22,-13 -53,-25 -83,-15 -62,-78 -198,-160 -157,-308 9,-32 48,-45 37,-89 109,-81 303,-20 271,151 -5,19 -24,22 -31,37 89,8 208,-64 213,-157 33,-18 57,-97 42,-140 -1,-3 -16,-7 -15,-6 -1,-5 26,-13 10,-26 -12,0 -28,5 -16,-26 -6,-14 -27,-5 -31,-10 -2,-11 7,-10 16,-11 -23,-17 -22,-59 -63,-57 -2,-22 23,-5 31,-5 -6,-42 -70,-26 -88,-42 -5,-19 20,-7 31,-11 -33,-21 -101,-15 -141,-15 -1,-9 5,-9 5,-16 -80,9 -148,13 -182,58 -31,-18 6,-58 -21,-89zm412 -1033l0 0c-11,-35 -67,-52 -99,-47 39,9 61,36 99,47zm-313 -21l0 0c-70,27 13,7 52,-16 -18,-3 -37,10 -52,16zm240 42l0 0c0,-9 0,-18 0,-26 -14,-6 -41,-26 -57,-11 27,4 37,25 57,37zm-198 88l0 0c-28,-26 -23,-85 -63,-99 13,38 35,94 63,99zm41 -47l0 0c-30,-7 -38,-38 -62,-52 10,25 28,70 62,52zm-172 0l0 0c27,-14 42,46 63,68 2,-44 -43,-61 -31,-99 -6,0 -11,0 -16,0 3,19 -16,15 -16,31zm235 -20l0 0c-10,-3 -13,-12 -26,-11 -6,16 22,23 26,11zm157 46l0 0c-6,-24 -19,-40 -37,-52 6,24 24,35 37,52zm67 11l0 0c-9,-19 -30,-53 -47,-47 16,16 33,30 47,47zm-354 47l0 0c-16,-33 -28,-70 -53,-94 18,32 28,69 53,94zm-141 -37l0 0c26,9 24,46 47,58 -3,-36 -26,-51 -32,-84 -4,9 -12,15 -15,26zm224 79l0 0c15,-39 -31,-59 -47,-84 14,29 28,59 47,84zm193 -42l0 0c19,-19 -15,-49 -26,-37 18,3 13,29 26,37zm-256 120l0 0c-35,-45 -60,-128 -104,-146 47,51 54,120 104,146zm345 -115l0 0c-2,-15 -9,-26 -21,-31 2,15 9,26 21,31zm-334 21l0 0c12,48 35,25 0,0zm-63 125l0 0c-35,-25 -49,-123 -94,-104 47,16 55,99 94,104zm16 -21l0 0c-17,-28 -29,-61 -52,-83 14,31 24,66 52,83zm52 -31l0 0c-5,-19 -15,-33 -31,-42 7,18 11,38 31,42zm386 10l0 0c22,-2 12,-54 -5,-52 1,18 8,30 5,52zm-704 131l0 0c19,-3 11,-62 5,-73 -9,27 4,46 -5,73zm683 57l0 0c1,-9 17,-42 -5,-41 3,12 -6,37 5,41zm0 99l0 0c22,-30 43,-89 37,-130 -30,23 -36,96 -37,130zm-52 -15l0 0c3,-13 31,-28 16,-42 -3,13 -25,34 -16,42zm-21 83l0 0c14,-3 33,-29 21,-42 -10,11 -13,30 -21,42zm-381 94l0 0c-17,-30 -27,-66 -47,-94 10,38 18,76 47,94zm73 5l0 0c-16,-30 -30,-63 -62,-78 11,36 32,62 62,78zm68 -62l0 0c25,6 66,9 73,-16 -21,8 -58,0 -73,16zm199 26l0 0c21,-7 36,-20 47,-37 -18,11 -38,19 -47,37zm-340 94l0 0c-21,-34 -30,-109 -67,-110 31,28 32,87 67,110zm267 -89l0 0c0,-9 0,-17 0,-26 -7,0 -14,0 -21,0 0,15 2,29 21,26zm-84 5l0 0c6,6 18,6 31,6 6,-21 -31,-21 -31,-6zm-224 84l0 0c-7,-37 -21,-67 -42,-89 0,44 27,60 42,89zm334 -63l0 0c9,-1 17,-3 20,-10 -14,4 -10,-11 -20,-11 -9,11 0,7 0,21zm-334 99l0 0c-21,-29 -34,-67 -58,-94 20,40 24,78 58,94zm276 -88l0 0c-3,24 27,11 32,0 -7,-8 -25,-8 -32,0zm-302 99l0 0c-17,-29 -26,-65 -53,-84 12,34 25,66 53,84zm-100 -47l0 0c58,-8 64,102 110,104 -41,-24 -55,-145 -110,-104zm-20 26l0 0c34,37 64,78 94,120 36,27 48,108 93,109 -69,-78 -117,-178 -193,-250 0,9 2,16 6,21zm187 10l0 0c0,-15 -11,-19 -20,-26 -2,17 6,25 20,26zm-73 178l0 0c6,10 30,62 53,47 -57,-53 -90,-130 -147,-183 17,52 67,88 94,136zm73 -16l0 0c1,-25 -19,-30 -31,-42 0,25 19,30 31,42zm209 68l0 0c-7,-28 -27,-39 -26,-63 -11,3 -34,-6 -36,5 25,15 36,44 62,58zm-182 -5l0 0c0,-11 14,-7 10,-21 -22,0 -17,-25 -37,-26 7,17 16,33 27,47zm78 -16l0 0c-11,-7 -10,-25 -32,-21 4,11 24,32 32,21zm141 5l0 0c-3,-12 -5,-27 -21,-26 0,15 12,20 21,26zm83 58l0 0c-13,-36 -21,-77 -62,-84 16,32 39,58 62,84zm78 114l0 0c-10,-27 -15,-61 -41,-73 -10,25 37,63 41,73zm-647 47l0 0c-3,-21 7,-55 -5,-67 -6,12 -13,62 5,67zm27 16l0 0c9,54 3,-30 5,-63 -1,-5 -6,-8 -11,-10 -2,33 3,58 6,73zm646 162l0 0c13,-57 7,-138 -15,-178 11,62 16,131 15,178zm58 -84l0 0c18,6 12,-39 5,-41 4,19 -9,22 -5,41zm-5 115l0 0c4,-34 8,-68 15,-99 -5,0 -10,0 -15,0 1,31 -15,72 0,99zm-501 11l0 0c22,7 33,53 52,46 -18,-20 -26,-50 -37,-78 20,2 14,-21 37,-15 10,9 16,22 26,31 -4,-20 -11,-37 10,-42 -39,-9 -59,6 -88,5 16,23 -3,20 0,53zm151 46l0 0c8,-33 -14,-107 -57,-88 27,21 30,67 57,88zm-115 79l0 0c3,-31 -38,-120 -73,-136 17,53 57,82 73,136zm-41 -26l0 0c-17,-35 -32,-70 -53,-99 -2,33 35,69 53,99zm396 -58l0 0c17,5 16,-8 26,-10 1,-13 -3,-22 -10,-26 5,23 -18,17 -16,36zm-584 141l0 0c15,-46 -6,-126 -5,-167 -14,64 16,134 5,167zm621 -104l0 0c-1,-16 -2,-30 -21,-26 0,15 2,29 21,26zm-449 47l0 0c-5,-32 -21,-52 -42,-68 8,26 20,45 42,68zm125 -5l0 0c8,-26 -9,-43 -26,-58 -5,14 11,47 26,58zm245 -32l0 0c1,13 8,20 21,21 1,-4 5,-6 11,-5 1,-10 -6,-12 -6,-21 -14,-4 -13,7 -26,5zm-292 52l0 0c3,-27 11,13 21,11 -5,-25 -18,-42 -31,-58 13,14 2,52 10,47zm277 6l0 0c0,-16 3,-35 -16,-32 -2,18 9,23 16,32zm-21 41l0 0c8,-11 -7,-32 -11,-47 -5,0 -10,0 -15,0 1,24 13,36 26,47zm-198 -31l0 0c10,1 4,19 15,21 -1,-15 12,-16 11,-31 -13,-1 -26,-1 -26,10zm-47 110l0 0c-20,-45 -55,-74 -84,-110 21,43 53,76 84,110zm146 -26l0 0c-10,-31 -28,-53 -37,-84 -7,3 -27,-6 -26,5 39,9 30,64 63,79zm-115 -47l0 0c0,-16 -5,-27 -16,-32 0,16 5,27 16,32zm183 15l0 0c-4,-20 -9,-40 -27,-47 -12,19 9,41 27,47zm-293 16l0 0c-2,-12 -17,-38 -26,-26 17,0 4,31 26,26zm-182 78l0 0c-3,-20 5,-78 -5,-73 2,20 -6,79 5,73zm459 -47l0 0c10,9 7,0 21,0 4,-20 -25,-20 -21,0zm-104 26l0 0c-4,-15 -7,-32 -21,-36 6,12 4,34 21,36z"/>
   <path class="fil0" d="M2104 5134c-72,14 -121,-34 -104,-89 28,-88 186,18 104,89zm-57 -26l0 0c9,0 17,0 26,0 -5,-10 16,-17 0,-21 -2,21 -28,-8 -26,21z"/>
   <path class="fil0" d="M2026 5431c-10,-16 6,-26 -15,-31 6,-51 29,-91 78,-83 88,14 41,178 -63,114zm21 -52l0 0c4,-12 17,-14 21,-26 -18,-5 -35,17 -21,26z"/>
  </g>
 </g>
</svg>
