<?xml version="1.0" encoding="UTF-8"?>
<!DOCTYPE svg PUBLIC "-//W3C//DTD SVG 1.1//EN" "http://www.w3.org/Graphics/SVG/1.1/DTD/svg11.dtd">
<!-- Creator: CorelDRAW X8 -->
<svg xmlns="http://www.w3.org/2000/svg" xml:space="preserve" width="8.5in" height="11in" version="1.1" style="shape-rendering:geometricPrecision; text-rendering:geometricPrecision; image-rendering:optimizeQuality; fill-rule:evenodd; clip-rule:evenodd"
viewBox="0 0 8500 11000"
 xmlns:xlink="http://www.w3.org/1999/xlink">
 <defs>
  <style type="text/css">
   <![CDATA[
    .fil0 {fill:#090968}
   ]]>
  </style>
 </defs>
 <g id="Layer_x0020_1">
  <metadata id="CorelCorpID_0Corel-Layer"/>
  <path class="fil0" d="M8255 4557c-378,525 -66,1114 -153,1679 -162,1071 -1170,1537 -1526,2137 -867,328 -2325,211 -3129,382 -296,-10 -386,-225 -534,-382 -1264,-301 -3052,-1609 -2595,-3053 162,-512 549,-1126 763,-1603 110,-245 74,-498 153,-610 937,-1337 3164,-702 4961,-763 222,261 547,419 915,534 203,739 913,970 1145,1679zm-6487 -1526l0 0c246,-59 451,-160 611,-306 -284,22 -525,87 -611,306zm2366 152l0 0c315,10 478,-133 839,-76 -17,-362 -826,-239 -839,76zm-1221 1069l0 0c309,-73 408,-355 534,-611 -357,2 -601,428 -534,611zm2366 1679l0 0c487,53 329,-1351 152,-1756 -226,-180 -603,-211 -763,-458 -592,-82 -581,437 -1068,458 31,363 -261,401 -229,764 301,-57 612,-504 916,-306 -449,188 -866,407 -763,1145 89,12 216,-13 228,76 -41,1074 815,572 1374,611 101,-128 202,-256 153,-534zm1678 -1069l0 0c-75,-229 -56,-554 -304,-610 54,251 36,574 304,610zm-4502 77l0 0c39,-224 -350,-405 -458,-229 119,110 297,160 458,229zm-1908 458l0 0c-151,1045 347,344 0,0zm1832 534l0 0c248,57 472,138 686,229 -42,-136 -39,-317 -152,-382 -39,361 -436,-80 -534,153zm5037 763l0 0c50,-166 465,-651 76,-763 28,261 -342,517 -76,763zm-2290 992l0 0c302,23 466,-93 610,-229 -255,24 -480,79 -610,229zm-2442 305l0 0c-156,-102 -475,-435 -687,-229 161,98 520,391 687,229zm2137 382l0 0c191,-63 657,148 610,-153 -259,-5 -532,-24 -610,153z"/>
 </g>
</svg>
