<?xml version="1.0" encoding="UTF-8"?>
<!DOCTYPE svg PUBLIC "-//W3C//DTD SVG 1.1//EN" "http://www.w3.org/Graphics/SVG/1.1/DTD/svg11.dtd">
<!-- Creator: CorelDRAW X8 -->
<svg xmlns="http://www.w3.org/2000/svg" xml:space="preserve" width="8.5in" height="11in" version="1.1" style="shape-rendering:geometricPrecision; text-rendering:geometricPrecision; image-rendering:optimizeQuality; fill-rule:evenodd; clip-rule:evenodd"
viewBox="0 0 8500 11000"
 xmlns:xlink="http://www.w3.org/1999/xlink">
 <defs>
  <style type="text/css">
   <![CDATA[
    .fil0 {fill:#090968}
   ]]>
  </style>
 </defs>
 <g id="Layer_x0020_1">
  <metadata id="CorelCorpID_0Corel-Layer"/>
  <g id="_68760713712">
   <path class="fil0" d="M6543 3541c-472,530 -1045,959 -1503,1503 -427,-54 -792,49 -1153,0 -1697,-230 -2592,-2192 -1653,-3758 275,-209 539,-429 751,-701 598,98 1414,-726 2005,-251 586,472 1216,875 1452,1804 -77,450 194,828 -50,1202 -43,161 78,157 151,201zm-2756 -2856l0 0c-35,185 214,86 250,200 -213,-3 -350,-83 -601,-50 -377,431 -1070,547 -952,1353 -66,0 -133,0 -200,0 -127,359 -76,680 50,1002 100,122 214,-84 250,101 -198,632 457,1189 1002,1402 9,-75 -17,-185 51,-200 152,19 255,-132 300,50 -89,11 -251,-50 -200,100 482,-52 947,-122 1453,-150 259,-392 735,-567 751,-1202 67,0 46,87 100,100 528,-1363 -401,-2380 -1402,-2806 -95,5 -35,165 -151,150 -231,-120 -425,-170 -701,-50zm802 4159l0 0c70,-160 -300,-127 -301,-51 59,58 177,57 301,51z"/>
   <path class="fil0" d="M5290 6296c656,569 1411,1285 1353,2305 -50,870 -816,2124 -1704,2205 -602,55 -1200,-170 -1803,-451 -121,-427 -633,-600 -802,-1102 -286,-849 35,-2206 651,-2606 85,-54 359,-91 601,-200 537,-241 991,-510 1704,-151zm-1754 452l0 0c-62,162 163,38 101,200 -217,50 -279,-56 -401,-100 -8,320 -566,321 -351,701 -58,42 -134,66 -250,51 -163,488 -34,874 -51,1302 73,28 259,-58 251,50 -254,623 560,1263 952,1403 -112,-36 -24,-286 100,-251 0,84 0,167 0,251 585,85 1382,45 1754,-451 20,-121 -92,-109 -50,-251 450,17 405,-462 501,-801 104,15 -75,136 100,150 146,-1157 -304,-2082 -1152,-2405 -6,61 -15,119 -101,100 -108,-473 -584,40 -751,-50 -49,-142 319,-254 50,-300 -176,192 -425,310 -702,401zm1954 3607l0 0c65,-136 257,-144 301,-301 -147,23 -361,237 -301,301z"/>
   <path class="fil0" d="M4689 4042c-1130,-106 -2198,-768 -1904,-1954 71,-287 797,-753 1152,-852 728,-202 1574,358 1654,1153 78,784 -480,1245 -902,1653zm-601 -2004l0 0c44,-80 -188,-312 -351,-351 -73,111 -268,99 -301,250 506,297 1029,842 1554,953 -417,-352 -872,-666 -1303,-1003 69,-203 316,61 401,151zm851 300l0 0c-372,-95 -520,-681 -902,-601 330,138 615,588 902,601zm-50 852l0 0c-117,-284 -521,-410 -801,-601 -264,-180 -534,-546 -752,-451 553,315 972,765 1553,1052zm-300 301l0 0c-356,-480 -891,-780 -1403,-1102 248,587 878,791 1403,1102zm501 -752l0 0c-54,-132 -282,-350 -401,-250 141,75 213,221 401,250zm-1002 852l0 0c-225,-110 -365,-304 -602,-401 150,153 319,549 602,401zm250 0l0 0c-36,-200 -386,-347 -501,-300 199,67 273,261 501,300z"/>
   <path class="fil0" d="M4839 6948c1017,178 1300,2571 50,2756 -240,35 -836,-33 -1002,-101 -369,-148 -744,-903 -701,-1403 21,-251 241,-785 400,-951 279,-291 778,-282 1253,-301zm501 1102l0 0c-96,-422 -518,-784 -902,-751 300,252 593,510 902,751zm-801 -300l0 0c303,197 608,393 801,701 -50,0 -59,41 -100,50 -462,-378 -963,-811 -1403,-952 373,518 977,661 1403,1203 -399,46 -654,-435 -1002,-602 200,352 582,521 902,752 230,-70 219,-382 301,-601 -314,-139 -610,-559 -902,-551zm-1003 450l0 0c583,110 980,915 1454,802 -526,-372 -1012,-648 -1404,-1052 243,-73 383,215 502,100 -142,-75 -214,-220 -401,-250 -68,116 -202,166 -151,400zm602 602l0 0c25,-147 -230,-266 -301,-150 177,-28 123,177 301,150zm501 501l0 0c-283,-186 -669,-533 -1002,-501 271,177 669,714 1002,501zm150 -50l0 0c-11,-126 -258,-273 -301,-201 96,72 144,191 301,201z"/>
  </g>
 </g>
</svg>
