<?xml version="1.0" encoding="UTF-8"?>
<!DOCTYPE svg PUBLIC "-//W3C//DTD SVG 1.1//EN" "http://www.w3.org/Graphics/SVG/1.1/DTD/svg11.dtd">
<!-- Creator: CorelDRAW X8 -->
<svg xmlns="http://www.w3.org/2000/svg" xml:space="preserve" width="8.5in" height="11in" version="1.1" style="shape-rendering:geometricPrecision; text-rendering:geometricPrecision; image-rendering:optimizeQuality; fill-rule:evenodd; clip-rule:evenodd"
viewBox="0 0 8500 11000"
 xmlns:xlink="http://www.w3.org/1999/xlink">
 <defs>
  <style type="text/css">
   <![CDATA[
    .fil0 {fill:#090968}
   ]]>
  </style>
 </defs>
 <g id="Layer_x0020_1">
  <metadata id="CorelCorpID_0Corel-Layer"/>
  <g id="_105193502672">
   <path class="fil0" d="M3940 5336c28,-136 28,-191 0,-328 91,32 91,297 0,328z"/>
   <path class="fil0" d="M4432 253c-1,32 -40,26 -66,33 -77,43 -63,177 -98,262 -100,-60 38,-155 0,-262 79,13 71,-60 164,-33z"/>
   <path class="fil0" d="M4006 4418c-112,-24 -42,133 -164,98 207,-1054 410,-2491 328,-3837 99,0 31,166 131,164 38,-67 48,-368 98,-524 42,57 111,86 99,197 94,-108 -64,-242 -33,-394 150,-19 153,109 229,164 280,1601 1583,2178 2624,3017 33,153 91,281 229,328 -8,36 -65,22 -65,66 16,38 171,-39 131,131 -32,-1 -25,-40 -33,-66 14,346 397,746 525,1181 -100,582 -90,1072 -361,1475 -416,78 -554,1003 -1049,492 178,-203 353,-436 295,-787 74,200 100,-19 197,-65 34,86 39,201 32,328 385,-710 -108,-1369 -557,-1706 -948,-123 -1413,-729 -1935,-1279 -54,46 41,220 66,296 -249,2178 -427,4329 -787,6231 -250,208 -442,476 -754,623 -59,83 -94,191 -165,262 -169,78 -532,112 -655,-33 -262,81 -591,127 -820,0 8,-35 65,-22 65,-65 -177,13 -295,-34 -360,-132 -608,7 -600,-602 -820,-983 -123,30 -43,263 -66,393 -232,-869 708,-1666 1377,-1836 756,-193 1491,-188 1903,360 222,-310 24,-1215 196,-1672 -53,-258 -27,-461 0,-689 180,-165 122,-787 230,-1115 -267,-47 -130,-360 -131,-623zm1213 -2689l0 0c-27,-93 -74,-167 -164,-197 18,103 78,163 164,197zm-98 164l0 0c-41,-123 -76,-252 -197,-295 78,85 68,260 197,295zm393 197l0 0c-30,-178 -166,-249 -295,-328 70,138 138,278 295,328zm-918 -66l0 0c0,-87 18,-193 -66,-197 20,68 -52,228 66,197zm1640 656l0 0c-48,-95 -411,-281 -558,-459 336,506 865,818 1345,1180 -199,-368 -615,-380 -787,-721zm-919 -66l0 0c2,-100 -29,-167 -98,-196 -2,100 30,167 98,196zm-754 33l0 0c-3,102 15,182 66,230 33,-93 13,-217 0,-263 -7,26 -28,39 -66,33zm2460 525l0 0c-144,-97 -246,-235 -427,-295 56,163 309,302 427,295zm-230 525l0 0c-162,-221 -332,-608 -590,-623 237,145 362,577 590,623zm-2230 -328l0 0c150,-2 82,-279 -33,-295 -25,135 51,168 33,295zm984 65l0 0c4,-124 -64,-176 -164,-197 21,100 51,190 164,197zm-1410 1312l0 0c48,-518 100,-743 98,-1377 -71,261 -211,1000 -98,1377zm1771 -787l0 0c-228,-57 -400,-343 -591,-328 155,119 434,427 591,328zm-1574 1082l0 0c150,-355 146,-1027 98,-1312 -40,496 -90,834 -98,1312zm1869 -557l0 0c-170,-159 -466,-365 -656,-394 212,138 408,292 656,394zm1410 98l0 0c-42,-144 -15,-357 -197,-361 91,95 75,297 197,361zm230 1049l0 0c172,-119 95,-570 0,-655 2,271 40,405 0,655zm-263 66l0 0c-21,-143 43,-371 -33,-459 -66,116 -35,373 33,459zm-688 1312l0 0c100,1 167,-30 196,-99 -81,17 -198,-1 -196,99zm-2853 623l0 0c174,-128 60,-514 65,-689 -48,203 -50,453 -65,689zm-33 885l0 0c52,-188 121,-534 65,-721 -40,257 -132,527 -65,721zm-984 -328l0 0c-55,0 -109,0 -164,0 -50,101 214,101 164,0zm393 394l0 0c7,-97 -146,-200 -196,-131 72,37 109,109 196,131zm-196 197l0 0c-8,-62 37,-73 33,-131 -44,0 -88,0 -132,0 -9,85 12,141 99,131zm-459 131l0 0c0,-55 106,-240 -33,-230 -34,95 -106,221 33,230zm459 721l0 0c-75,-297 -114,-629 -230,-885 -61,336 125,695 230,885zm-2165 -426l0 0c57,-173 229,-231 295,-393 -143,65 -326,263 -295,393zm853 -33l0 0c73,-57 64,-198 98,-295 -165,10 -117,259 -98,295zm1935 197l0 0c48,-105 112,-194 98,-361 -47,-8 -55,-54 -98,-65 -40,154 -45,315 0,426zm-1870 0l0 0c132,41 126,-222 66,-262 -37,72 -85,134 -66,262zm361 -33l0 0c9,-118 8,-227 -131,-197 -9,119 -8,227 131,197zm263 99l0 0c2,-145 6,-291 -132,-296 30,113 51,234 132,296zm327 131l0 0c70,-139 -26,-269 -65,-394 -33,0 -66,0 -98,0 -51,140 11,358 163,394zm-688 33l0 0c-2,-108 13,-233 -99,-230 -36,89 -12,203 99,230zm-459 32l0 0c30,-27 70,-209 0,-229 0,58 -89,190 0,229zm721 99l0 0c-5,-148 12,-318 -131,-328 5,148 -11,317 131,328zm-1771 33l0 0c-45,-53 -27,-170 -98,-197 -73,48 81,246 98,197zm2394 164l0 0c-25,-128 -37,-269 -131,-328 -10,162 41,265 131,328zm-1213 -99l0 0c27,-24 88,-227 -33,-197 19,58 -39,193 33,197zm1804 230l0 0c134,-53 283,-324 164,-427 -22,175 -133,261 -164,427zm-1706 32l0 0c163,16 76,-203 0,-229 0,76 0,153 0,229zm328 99l0 0c55,-79 54,-321 -65,-328 17,114 -49,311 65,328zm295 -33l0 0c79,-50 104,-255 -65,-229 -6,103 -1,197 65,229zm-1475 -98l0 0c31,56 103,71 164,98 10,-76 -6,-126 -33,-164 -75,-9 -123,8 -131,66zm-66 393l0 0c-18,-146 -123,-204 -230,-262 34,130 77,251 230,262zm1377 -33l0 0c-30,-57 -11,-163 -65,-196 -38,85 -120,221 65,196zm656 -131l0 0c-153,-33 -109,132 -262,99 -100,1 -32,-165 -131,-164 -28,107 -240,155 -164,262 224,-143 416,53 557,-197zm-1344 295l0 0c-156,-96 -393,-284 -591,-229 251,22 304,243 591,229zm885 197l0 0c201,-6 434,19 459,-164 -144,64 -335,80 -459,164zm-853 0l0 0c104,49 248,30 328,-33 -83,-21 -218,-44 -328,33z"/>
  </g>
 </g>
</svg>
