<?xml version="1.0" encoding="UTF-8"?>
<!DOCTYPE svg PUBLIC "-//W3C//DTD SVG 1.1//EN" "http://www.w3.org/Graphics/SVG/1.1/DTD/svg11.dtd">
<!-- Creator: CorelDRAW X8 -->
<svg xmlns="http://www.w3.org/2000/svg" xml:space="preserve" width="8.5in" height="11in" version="1.1" style="shape-rendering:geometricPrecision; text-rendering:geometricPrecision; image-rendering:optimizeQuality; fill-rule:evenodd; clip-rule:evenodd"
viewBox="0 0 8500 11000"
 xmlns:xlink="http://www.w3.org/1999/xlink">
 <defs>
  <style type="text/css">
   <![CDATA[
    .fil0 {fill:#090968}
   ]]>
  </style>
 </defs>
 <g id="Layer_x0020_1">
  <metadata id="CorelCorpID_0Corel-Layer"/>
  <g id="_105126746112">
   <path class="fil0" d="M4742 338c142,46 -138,193 74,197 -54,164 -233,211 -319,344 -20,30 4,94 -25,147 -48,89 -149,166 -172,246 -14,47 15,120 0,172 -79,262 -181,471 -148,761 45,383 240,720 394,1057 30,79 -80,19 -49,98 257,434 206,1219 24,1720 -205,108 -299,452 -565,418 178,-223 186,-617 344,-860 83,-1013 -655,-1747 -614,-2629 38,-822 439,-1312 1056,-1671zm-688 1008l0 0c57,-47 168,-229 98,-246 -37,77 -82,147 -98,246zm-123 516l0 0c-1,-131 156,-345 50,-418 -24,116 -102,307 -50,418zm320 1056l0 0c-2,-97 -29,-168 -99,-197 17,82 23,175 99,197zm147 565l0 0c-7,-75 4,-168 -74,-172 29,54 5,159 74,172zm0 541l0 0c99,10 41,-167 0,-172 -20,88 56,118 0,172zm49 614l0 0c22,-102 89,-224 -24,-271 15,83 -32,229 24,271z"/>
   <path class="fil0" d="M3686 8991c-41,-882 697,-1616 614,-2629 -158,-243 -166,-637 -344,-860 266,-34 360,310 565,418 182,501 233,1286 -24,1720 -31,79 79,19 49,98 -154,337 -349,674 -394,1057 -33,290 69,499 148,761 15,52 -14,125 0,172 23,80 124,157 172,246 29,53 5,117 25,147 86,133 265,180 319,344 -212,4 68,151 -74,197 -617,-359 -1018,-849 -1056,-1671zm466 909l0 0c70,-17 -41,-199 -98,-246 16,99 61,169 98,246zm-171 -344l0 0c106,-73 -51,-287 -50,-418 -52,111 26,302 50,418zm171 -1277l0 0c70,-29 97,-100 99,-197 -76,22 -82,115 -99,197zm172 -590l0 0c78,-4 67,-97 74,-172 -69,13 -45,118 -74,172zm74 -541l0 0c41,-5 99,-182 0,-172 56,54 -20,84 0,172zm25 -515l0 0c113,-47 46,-168 24,-271 -56,42 -9,188 -24,271z"/>
  </g>
 </g>
</svg>
