<?xml version="1.0" encoding="UTF-8"?>
<!DOCTYPE svg PUBLIC "-//W3C//DTD SVG 1.1//EN" "http://www.w3.org/Graphics/SVG/1.1/DTD/svg11.dtd">
<!-- Creator: CorelDRAW X8 -->
<svg xmlns="http://www.w3.org/2000/svg" xml:space="preserve" width="8.5in" height="11in" version="1.1" style="shape-rendering:geometricPrecision; text-rendering:geometricPrecision; image-rendering:optimizeQuality; fill-rule:evenodd; clip-rule:evenodd"
viewBox="0 0 8500 11000"
 xmlns:xlink="http://www.w3.org/1999/xlink">
 <defs>
  <style type="text/css">
   <![CDATA[
    .fil0 {fill:#090968}
   ]]>
  </style>
 </defs>
 <g id="Layer_x0020_1">
  <metadata id="CorelCorpID_0Corel-Layer"/>
  <path class="fil0" d="M3969 7110c80,-29 145,-73 145,-181 -279,807 -889,1595 -1375,2316 -152,-198 -278,255 -507,397 -351,220 -684,199 -1013,290 -234,-255 -811,-457 -976,-796 -331,-680 188,-1378 470,-1845 333,47 563,-227 941,-145 771,168 267,1529 -507,1194 -102,113 72,169 72,290 -128,56 -21,-123 -108,-109 -122,387 402,340 579,289 -159,-131 87,-139 253,-253 382,-261 653,-921 905,-1375 342,-616 520,-1293 868,-1809 -242,-84 -639,-12 -941,-36 -83,-180 -22,-495 0,-687 350,-165 818,6 1266,-37 845,-1254 1358,-2839 2750,-3545 331,5 737,252 1049,253 100,118 136,299 326,326 479,718 12,1852 -579,2243 -311,-58 -367,136 -542,145 -846,41 -619,-1076 -109,-1339 200,-7 391,-5 506,72 83,-61 14,-276 37,-398 -123,-13 -155,63 -218,109 -127,-77 -205,-205 -289,-326 -57,124 -75,193 -72,-36 -278,71 -567,287 -471,615 -58,10 -62,-34 -108,-36 -296,632 -668,1216 -977,1917 235,-12 660,46 941,0 107,202 23,532 36,796 -488,18 -922,-19 -1375,-36 -343,562 -615,1195 -977,1737zm2605 -5391l0 0c24,0 48,0 73,0 0,-96 0,-193 0,-289 -143,-22 -43,198 -73,289zm832 36l0 0c63,-62 40,-223 -36,-253 22,75 -45,238 36,253zm289 217l0 0c-26,-171 41,-248 37,-398 -48,6 -109,-147 -145,-36 105,8 8,457 108,434zm-542 -253l0 0c-15,-87 66,-78 36,-181 -36,0 -72,0 -109,0 -5,90 19,150 73,181zm579 760l0 0c0,-60 0,-121 0,-181 -162,5 -171,-143 -181,-289 -54,6 -134,-13 -145,36 146,108 161,346 326,434zm-1773 -145l0 0c145,46 138,-244 72,-289 -5,115 -82,159 -72,289zm1339 0l0 0c-3,-118 -46,-195 -145,-217 13,108 63,179 145,217zm759 290l0 0c26,-94 36,-228 -36,-362 23,110 -46,311 36,362zm-1881 36l0 0c30,-26 97,-251 -36,-217 21,63 -44,212 36,217zm-651 470l0 0c123,1 145,-286 72,-362 -85,60 -78,211 -72,362zm1954 181l0 0c30,-88 133,-330 0,-362 -94,52 -192,335 0,362zm-2171 326l0 0c49,-85 67,-389 0,-471 -74,111 -114,371 0,471zm2279 -181l0 0c0,48 0,96 0,145 141,-6 311,-170 217,-290 5,125 -73,168 -217,145zm-2605 832l0 0c50,-110 50,-290 -36,-362 -61,79 -5,273 36,362zm-543 145l0 0c156,6 97,-291 73,-217 -21,75 -90,103 -73,217zm362 180l0 0c-22,-109 46,-311 -36,-361 -68,72 -138,349 36,361zm-253 435l0 0c-22,-75 58,-252 -72,-217 22,74 -59,251 72,217zm-1592 -36l0 0c31,33 231,77 253,0 -135,33 -207,-154 -253,0zm1230 868l0 0c8,-115 95,-338 0,-434 -91,117 -96,388 0,434zm-398 72l0 0c-22,-98 46,-287 -36,-325 -9,66 -117,327 36,325zm-398 579l0 0c174,18 209,-452 109,-470 -79,114 -52,333 -109,470zm507 72l0 0c90,26 153,-154 72,-181 -15,70 -103,66 -72,181zm-398 435l0 0c75,-114 -33,-202 36,-290 -80,-27 -149,133 -72,145 105,-105 -58,158 36,145zm-2678 759l0 0c121,45 89,-244 37,-253 -50,47 -36,157 -37,253zm543 37l0 0c0,-49 0,-97 0,-145 -36,0 -72,0 -108,0 15,69 13,156 108,145zm-615 253l0 0c-14,-95 -18,-199 -72,-253 26,82 -65,282 72,253zm1918 -109l0 0c-6,127 9,232 72,290 68,-132 106,-342 0,-398 2,62 -28,92 -72,108zm-2207 109l0 0c15,-46 46,-74 108,-72 9,147 -35,348 73,397 27,-196 -45,-293 -37,-470 -106,-31 -235,98 -144,145zm1990 434l0 0c57,-41 187,-195 72,-290 -34,65 -182,202 -72,290zm-181 398l0 0c32,-29 160,-222 0,-217 39,93 -110,172 0,217zm-1592 181l0 0c-33,-78 -43,-365 -145,-253 90,43 1,264 145,253zm253 289l0 0c153,29 124,-194 0,-181 25,112 25,70 0,181zm941 73l0 0c0,-73 0,-145 0,-217 -36,0 -73,0 -109,0 -1,110 33,184 109,217zm-579 361l0 0c9,-111 298,57 253,-108 -111,-12 -356,26 -253,108z"/>
 </g>
</svg>
