<?xml version="1.0" encoding="UTF-8"?>
<!DOCTYPE svg PUBLIC "-//W3C//DTD SVG 1.1//EN" "http://www.w3.org/Graphics/SVG/1.1/DTD/svg11.dtd">
<!-- Creator: CorelDRAW X8 -->
<svg xmlns="http://www.w3.org/2000/svg" xml:space="preserve" width="8.5in" height="11in" version="1.1" style="shape-rendering:geometricPrecision; text-rendering:geometricPrecision; image-rendering:optimizeQuality; fill-rule:evenodd; clip-rule:evenodd"
viewBox="0 0 8500 11000"
 xmlns:xlink="http://www.w3.org/1999/xlink">
 <defs>
  <style type="text/css">
   <![CDATA[
    .fil0 {fill:#090968}
   ]]>
  </style>
 </defs>
 <g id="Layer_x0020_1">
  <metadata id="CorelCorpID_0Corel-Layer"/>
  <g id="_68808228128">
   <path class="fil0" d="M5925 5577c10,-16 22,7 35,5 -11,16 -23,-7 -35,-5z"/>
   <path class="fil0" d="M7511 4613c33,0 37,-29 69,-30 -41,62 -110,97 -153,159 133,75 283,157 401,261 31,28 69,57 89,84 5,8 -9,27 14,20 -32,-3 -53,-30 -79,-49 -73,-54 -168,-103 -257,-144 -61,-52 -138,-89 -212,-128 -60,34 -96,92 -153,128 105,70 268,125 400,193 51,26 119,55 123,99 174,90 315,212 450,341 27,-2 46,3 59,15 -16,139 -79,249 -118,385 -3,18 17,12 15,30 -11,3 -7,-10 -15,-10 -43,81 -66,181 -94,277 77,71 148,148 232,212 11,70 84,77 104,139 -100,-82 -198,-165 -301,-243 -10,0 -20,0 -30,0 -8,-21 -32,-27 -45,-44 -37,52 -77,100 -118,148 -32,-12 -51,-16 -84,0 78,60 155,130 247,208 55,46 124,87 163,133 32,38 74,73 94,129 -14,-19 -35,-32 -50,-50 -6,11 13,19 0,20 -116,-98 -238,-190 -360,-282 -12,-10 -6,2 -15,5 -38,-40 -80,-75 -134,-99 13,-37 -28,-37 -44,-59 -6,24 29,23 15,40 -26,1 -25,-25 -35,-40 -91,-71 -183,-143 -286,-202 26,201 -328,365 -411,143 10,-32 11,-50 -5,-74 48,-100 173,-118 292,-134 -85,-54 -166,-131 -277,-143 -2,-11 10,-7 10,-15 -53,-41 -123,-65 -183,-99 -114,213 -153,644 -449,677 -36,4 -81,2 -114,-15 -30,-15 -35,-54 -84,-59 -25,-66 16,-204 74,-242 65,-42 273,-35 307,30 64,-138 120,-285 177,-430 -284,-140 -534,-265 -849,-346 -13,8 23,8 29,15 -91,-11 -194,-53 -296,-69 -60,183 -14,382 -99,533 -8,29 -41,32 -40,69 -41,-13 -59,41 -103,50 -19,4 -58,6 -79,5 -82,-5 -114,-65 -149,-129 2,-146 104,-192 218,-227 5,30 52,-9 69,15 -3,14 -12,17 15,29 18,-114 20,-247 34,-365 -305,-65 -690,-89 -1018,-74 -3,19 27,5 40,10 15,7 -22,4 -30,4 9,30 11,65 25,89 -24,33 -40,125 -5,159 -10,16 -12,-18 -20,-20 -55,71 -115,138 -197,183 -75,-25 -162,-65 -139,-178 12,-56 85,-157 129,-183 46,6 59,-20 103,-15 -19,-51 -98,-19 -153,-15 -110,9 -245,20 -346,35 1,6 9,4 15,5 -563,69 -1027,237 -1453,444 10,-21 41,-32 65,-44 71,-35 164,-67 237,-104 -126,39 -282,91 -420,134 -27,125 -107,216 -247,212 -7,-3 -1,-19 -10,-20 -30,0 -59,0 -89,0 -19,-19 -33,-42 -40,-74 -79,18 -154,40 -237,55 -14,4 7,13 -5,19 -91,0 -163,19 -247,25 9,18 -20,34 -49,69 -83,102 -222,187 -400,183 -53,186 -96,383 -243,474 -30,-2 -47,9 -59,25 -133,-5 -246,-31 -272,-143 5,-127 33,-266 149,-267 7,0 85,17 98,25 69,39 41,157 -14,212 -22,10 -45,22 -50,35 0,26 39,13 55,25 12,-2 -7,-9 0,-20 19,0 39,0 59,0 21,-6 20,-30 39,-25 68,-73 77,-229 139,-366 -154,-36 -275,-107 -351,-222 -168,-34 -293,-28 -435,-89 83,-360 181,-748 262,-1127 8,-17 -17,-3 -15,-14 23,-48 54,-88 64,-149 284,28 553,-13 835,-29 60,-186 103,-515 317,-544 38,-5 101,1 133,15 11,22 24,42 45,54 67,112 35,294 -30,386 290,-29 569,-113 835,-183 -14,16 -48,11 -64,25 17,5 51,-15 79,-15 9,-1 3,-17 10,-20 238,-53 471,-111 706,-168 13,-10 4,-43 20,-49 26,4 41,21 40,39 340,-73 675,-152 1072,-168 -25,-18 -99,13 -109,-20 286,9 660,5 974,25 117,8 224,41 351,50 152,9 329,51 489,89 165,39 321,80 449,128 58,22 120,55 188,79 136,47 240,86 376,148 62,29 140,86 178,84 56,-2 109,-118 197,-89 2,12 -1,19 -5,25zm-2337 -499l0 0c-24,-6 -94,-17 -104,-5 40,-3 64,9 104,5zm-702 0l0 0c-24,3 -62,-7 -79,5 25,-3 63,6 79,-5zm425 30l0 0c78,3 178,9 247,5 -72,-6 -142,-13 -222,-10 16,-26 -24,-10 -25,5zm420 -15l0 0c-12,3 -36,-6 -39,5 17,-4 34,15 39,-5zm341 49l0 0c-94,-30 -215,-35 -326,-49 93,29 229,41 326,49zm-1418 -34l0 0c8,-2 -51,0 -5,5 46,4 121,-9 158,-10 47,-2 117,-2 45,-5 -44,-2 -90,2 -129,5 -57,4 -39,-1 -69,5zm390 0l0 0c25,-4 63,6 80,-5 -15,-5 -73,-15 -80,5zm178 -10l0 0c-18,0 -36,0 -54,0 -3,7 43,7 54,5 10,11 10,-1 0,-5zm-884 29l0 0c19,-5 51,2 59,-14 -22,-1 -59,10 -59,14zm3325 574l0 0c-58,-37 -123,-75 -192,-104 -68,-29 -140,-59 -208,-69 3,4 27,12 15,14 -212,-119 -490,-172 -731,-261 -2,9 -45,4 -25,4 -52,-1 -132,-34 -203,-49 -174,-36 -372,-66 -578,-79 -102,-6 -211,-28 -311,-30 -275,-5 -570,-4 -825,30 -32,0 -22,2 -5,10 -126,4 -242,19 -336,54 6,1 14,-1 15,5 -158,21 -281,46 -420,84 39,71 85,135 108,223 315,-109 685,-163 1097,-173 33,-17 49,-50 89,-60 21,13 20,46 45,55 920,-6 1646,225 2327,474 27,-13 58,-51 89,-79 23,-21 96,-63 35,-69 5,3 25,16 14,20zm-1981 -559l0 0c20,-7 40,12 49,0 -5,-8 -61,-8 -49,0zm543 25l0 0c-36,-9 -79,-13 -113,-25 17,26 84,28 113,25zm-133 -5l0 0c-17,4 -37,-15 -49,0 20,-7 38,14 49,0zm-4131 35l0 0c12,-5 47,-13 35,-25 -8,12 -34,5 -35,25zm74 9l0 0c19,2 29,-4 30,-19 -14,2 -34,-1 -30,19zm4186 -14l0 0c20,-6 40,15 54,0 -12,-3 -54,-10 -54,0zm306 59l0 0c-94,-22 -160,-42 -247,-59 58,41 174,49 247,59zm-2644 -20l0 0c40,-5 81,-8 109,-25 -34,11 -79,10 -109,25zm-1729 45l0 0c-1,-24 -8,-42 -15,-60 -7,0 -13,0 -20,0 13,18 19,44 35,60zm-218 -5l0 0c27,-13 55,-24 70,-50 -32,9 -55,25 -70,50zm4739 -10l0 0c-28,-15 -72,-41 -109,-30 37,10 69,23 109,30zm-3049 24l0 0c21,1 41,1 50,-9 -21,4 -32,-3 -50,9zm-1779 104l0 0c9,-41 71,-80 65,-104 -19,32 -80,71 -65,104zm4996 -89l0 0c-16,0 -60,-19 -54,-10 13,6 37,26 54,10zm-3311 5l0 0c21,-3 64,-9 65,-15 -29,-1 -49,5 -65,15zm-1482 25l0 0c14,-4 12,-30 0,-35 -5,5 -11,32 0,35zm1522 5l0 0c35,-7 75,-7 99,-25 -34,7 -73,10 -99,25zm-1448 30l0 0c-4,-18 15,-38 0,-50 -3,11 -12,41 0,50zm1700 24l0 0c1,-24 -9,-37 -5,-64 -5,0 -10,0 -15,0 8,20 10,46 20,64zm-1764 -10l0 0c6,-6 10,-39 0,-44 -10,5 -18,41 0,44zm1720 40l0 0c-2,-36 -4,-72 -15,-84 -1,33 -2,68 15,84zm-312 -59l0 0c22,-3 46,-4 59,-15 -15,-8 -46,4 -59,15zm-1299 14l0 0c21,-1 13,-25 0,-29 0,10 0,20 0,29zm-267 5l0 0c5,-11 23,-10 20,-29 -5,0 -10,0 -15,0 7,16 -24,18 -5,29zm-94 643l0 0c327,-37 680,-91 978,-173 25,-66 13,-169 45,-227 28,11 45,34 49,69 59,17 80,72 124,103 169,-42 342,-82 494,-143 19,2 -6,17 15,15 44,-15 80,-38 133,-44 10,-96 31,-180 45,-272 -282,56 -554,141 -821,197 9,14 23,-19 35,0 -15,6 -43,17 -59,5 -102,41 -212,60 -312,94 -49,17 -103,38 -148,45 -123,19 -221,23 -331,49 -56,142 -160,177 -247,282zm1912 -549l0 0c5,-40 16,-88 15,-118 -6,-1 -7,-7 -15,-5 9,30 -14,89 0,123zm3266 -99l0 0c19,-2 43,11 75,25 -16,-43 -80,-43 -119,-49 5,12 30,27 44,24zm-3602 5l0 0c28,-3 58,-5 74,-19 -25,5 -58,4 -74,19zm504 30l0 0c-4,-19 -18,-54 -34,-44 17,8 17,35 34,44zm-2105 -5l0 0c14,-1 27,-29 15,-39 -7,11 -8,28 -15,39zm3731 -20l0 0c26,4 49,-7 10,-5 -23,0 -46,0 -69,0 -79,-12 -199,-7 -252,-14 81,28 206,14 311,19zm-3573 -10l0 0c-21,11 20,26 5,30 -18,-1 -19,-7 -34,0 -11,41 -36,66 -50,104 4,8 24,-1 20,15 -8,0 -16,0 -25,0 -6,30 -34,79 -10,108 3,-5 6,-11 10,-14 1,17 -3,29 -14,34 -13,0 -8,-19 -20,-20 -6,13 -12,25 -10,45 56,-21 169,-19 188,-54 0,8 -31,8 -30,0 71,-26 36,-142 35,-218 -20,-13 -45,-34 -60,-25 5,0 4,-6 -5,-5zm1720 243l0 0c26,-65 46,-162 39,-243 -10,84 -29,159 -39,243zm2480 -168l0 0c-64,-3 -145,-38 -197,-20 68,1 139,25 197,20zm840 271l0 0c-6,0 -10,3 -14,5 -169,-51 -340,-101 -529,-133 10,-3 32,6 35,-5 -138,-37 -297,-52 -440,-84 8,0 12,-4 15,-10 -237,-25 -545,-71 -801,-59 59,59 91,146 148,207 218,5 404,41 603,65 7,-55 -11,-123 30,-134 35,61 61,109 109,163 182,48 386,75 553,139 -25,-1 -53,-23 -74,-10 96,20 175,58 272,79 106,-122 293,1 321,123 83,-60 167,-119 247,-183 -58,-8 -104,-47 -153,-49 -17,-4 -1,-11 -10,-20 -104,-25 -207,-76 -312,-84 16,8 44,3 45,25 -13,-12 -59,-11 -45,-35zm-4961 -247l0 0c21,-1 7,-39 0,-44 5,19 5,25 0,44zm50 -10l0 0c-5,-8 -2,-24 -10,-29 -4,12 -9,28 10,29zm1922 149l0 0c-1,73 14,116 0,187 199,-60 426,-94 647,-133 -16,4 -7,-10 0,-10 25,4 35,-8 60,-5 90,-73 186,-139 271,-217 -350,35 -659,112 -978,178zm1067 -154l0 0c2,-9 11,-12 10,-24 -14,-6 -21,21 -10,24zm55 25l0 0c12,-4 22,-36 10,-49 -3,14 -22,37 -10,49zm-3351 -5l0 0c-2,-13 15,-31 0,-39 3,13 -14,31 0,39zm2511 -15l0 0c41,-6 88,-7 118,-24 -38,6 -102,13 -118,24zm-351 15l0 0c-4,-12 -5,-28 -15,-34 4,12 -1,34 15,34zm-50 45l0 0c-10,-21 -7,-56 -24,-69 9,22 4,58 24,69zm2056 -65l0 0c-50,0 80,20 15,10 64,10 151,17 193,20 -64,-13 -161,-29 -208,-30zm1621 114l0 0c-79,-44 -183,-90 -272,-109 92,35 174,80 272,109zm-2362 -74l0 0c1,-15 -14,-39 -25,-25 12,5 8,25 25,25zm1077 -20l0 0c-7,-8 -28,-1 -35,-10 -1,13 31,19 35,10zm-1270 30l0 0c18,-6 29,-17 35,-35 -22,2 -33,14 -35,35zm1769 89l0 0c-150,-54 -333,-76 -494,-119 148,53 341,88 494,119zm613 -79l0 0c-30,-2 -54,-35 -79,-25 25,6 56,32 79,25zm-3143 0l0 0c35,-5 69,-11 99,-20 -28,-5 -75,5 -99,20zm801 29l0 0c14,-15 34,-25 44,-44 -13,-7 -51,31 -44,44zm113 -9l0 0c19,0 29,-8 35,-20 -7,-3 -13,-8 -20,-10 -3,12 -19,10 -15,30zm-1378 34l0 0c8,7 28,-4 49,0 -11,-20 -20,-43 -39,-54 -3,19 -4,39 -10,54zm-1122 -30l0 0c27,0 47,-8 64,-19 -21,6 -49,6 -64,19zm1196 15l0 0c-10,-13 -14,-32 -35,-34 2,18 18,47 35,34zm1087 0l0 0c18,-3 24,-18 34,-29 -18,3 -24,18 -34,29zm158 79l0 0c49,-5 137,9 193,-5 -24,-37 -49,-73 -79,-103 -40,34 -85,64 -114,108zm-69 -59l0 0c25,-3 35,-20 44,-39 -19,8 -33,22 -44,39zm-2466 -10l0 0c26,-6 60,-6 79,-20 -29,5 -62,4 -79,20zm198 5l0 0c24,-5 58,-1 69,-20 -23,7 -54,5 -69,20zm-643 30l0 0c14,-3 24,-36 15,-45 -2,17 -13,27 -15,45zm2698 -5l0 0c8,-18 27,-26 40,-40 -19,4 -59,28 -40,40zm2688 -20l0 0c-19,-1 -59,-27 -59,-15 22,0 40,30 59,15zm-2530 30l0 0c12,-12 43,-30 35,-45 -11,12 -39,34 -35,45zm-943 -25l0 0c59,-2 34,-27 0,0zm-1962 40l0 0c3,-20 18,-28 20,-50 -18,2 -25,41 -20,50zm-287 59l0 0c10,-30 35,-71 25,-104 -7,32 -36,69 -25,104zm5836 -84l0 0c-17,0 -31,-28 -44,-15 17,-1 27,31 44,15zm-2594 25l0 0c20,2 39,-24 29,-35 -9,12 -27,15 -29,35zm2545 -20l0 0c-28,9 -37,-26 -55,-10 18,-1 47,33 55,10zm-2837 49l0 0c32,-11 55,-31 74,-54 -33,10 -53,32 -74,54zm228 -15l0 0c20,-4 34,-15 39,-34 -17,8 -33,16 -39,34zm1887 -19l0 0c-21,-1 -44,-26 -64,-10 23,-2 47,22 64,10zm-4511 64l0 0c99,-7 199,-42 286,-74 -94,25 -195,45 -286,74zm2545 -40l0 0c2,-11 31,-21 14,-34 -2,11 -31,21 -14,34zm1872 -5l0 0c12,10 34,9 50,15 8,1 12,-5 0,-5 -48,-7 -100,-35 -149,-24 40,-2 56,20 99,14zm-5025 45l0 0c3,-19 23,-44 5,-55 3,20 -19,40 -5,55zm2233 -15l0 0c-12,-16 2,-35 -14,-40 2,13 12,74 14,40zm-64 -25l0 0c-39,9 -90,21 -133,40 7,51 -21,133 -10,188 59,-20 119,-40 183,-55 3,-74 -24,-118 -40,-173zm1053 40l0 0c14,-1 28,-2 24,-20 -14,0 -18,11 -24,20zm1087 29l0 0c2,-14 33,-43 0,-49 16,26 -19,21 0,49zm-2456 -19l0 0c27,-5 52,-11 69,-25 -29,3 -54,8 -69,25zm119 187l0 0c21,-46 42,-144 29,-192 -7,67 -20,128 -29,192zm-50 -69l0 0c6,-29 25,-91 10,-108 -8,28 -16,83 -10,108zm-232 -59l0 0c49,-2 82,-20 114,-40 -37,15 -83,20 -114,40zm-287 321l0 0c177,-47 317,-131 504,-168 11,-57 -1,-136 10,-193 -49,3 -88,31 -133,45 -139,45 -305,80 -425,128 20,27 55,63 49,99 -16,-3 -5,-34 -24,-34 21,30 1,83 19,123zm1305 -316l0 0c62,-12 136,-12 188,-35 -80,9 -136,11 -188,35zm548 -30l0 0c-72,73 -176,127 -212,208 -28,-4 -37,13 -50,25 172,-30 369,-34 564,-40 26,-40 88,-64 143,-59 -31,-46 -62,-90 -89,-139 -117,3 -246,-6 -356,5zm494 10l0 0c10,38 30,93 50,104 -11,-40 -16,-87 -50,-104zm20 -5l0 0c24,69 61,134 64,237 139,18 284,56 411,70 5,-83 12,-162 24,-238 -19,-11 -62,0 -74,-19 30,-7 57,15 79,0 -180,-21 -334,-67 -533,-55 5,6 17,6 29,5zm1740 10l0 0c-26,1 -50,-26 -70,-15 20,3 68,27 70,15zm-5930 5l0 0c81,-6 178,4 252,-20 -78,13 -185,-4 -252,20zm-49 -5l0 0c-7,0 -10,-8 -20,-5 28,22 89,5 20,5zm6631 15l0 0c2,-14 -29,-20 -30,-15 11,5 15,15 30,15zm-6992 -10l0 0c-15,6 -19,4 -30,-5 -22,20 36,33 30,5zm6325 15l0 0c-20,-7 -52,-27 -74,-15 26,0 56,23 74,15zm-6246 -5l0 0c33,14 151,14 212,0 -60,2 -139,-13 -212,0zm3553 74l0 0c35,-14 74,-51 84,-74 -38,15 -58,48 -84,74zm-2906 -64l0 0c11,-2 53,-2 25,-5 -20,-2 -66,6 -89,5 4,13 -23,-4 -20,10 37,-1 58,-6 84,-10zm2649 257l0 0c-39,-3 -50,17 -74,10 79,-36 198,-33 301,-45 -5,-28 -6,-59 -20,-79 -12,-6 -15,20 -19,5 16,-73 79,-99 113,-153 -165,5 -288,51 -430,79 -15,9 14,15 0,20 -23,-6 -56,-13 -29,0 -6,4 -30,15 -35,5 0,-9 14,-3 15,-10 -37,6 -51,1 -20,20 -47,0 -75,20 -118,24 -19,39 -24,154 -84,104 0,-30 23,-39 24,-69 -58,-22 -121,32 -188,34 0,84 -37,131 -39,213 187,-67 390,-118 603,-158zm469 -213l0 0c6,-17 45,-27 30,-49 -3,20 -45,27 -30,49zm-59 5l0 0c8,-13 39,-30 25,-49 -3,19 -47,37 -25,49zm2663 -15l0 0c-30,-10 -75,-33 -104,-29 32,9 75,34 104,29zm-5549 -19l0 0c-19,20 3,82 -34,84 -1,-29 31,-67 9,-84 -12,46 -37,107 -34,153 58,-54 119,-105 173,-163 -62,2 -71,10 -114,10zm4433 -5l0 0c0,5 0,10 0,15 50,-15 104,32 153,19 -44,-14 -108,-28 -153,-34zm1680 5l0 0c17,4 39,29 54,19 -19,-3 -43,-40 -54,-19zm-4927 19l0 0c0,-14 -11,-18 -20,-24 3,12 5,25 20,24zm4610 65l0 0c31,-23 81,-51 84,-84 -25,31 -63,49 -84,84zm-3923 10l0 0c18,-21 21,-57 15,-89 -1,33 -13,56 -15,89zm-796 -55l0 0c-15,-1 0,-32 -19,-29 -6,18 9,43 19,29zm1735 50l0 0c4,-22 25,-54 15,-75 -10,17 -30,50 -15,75zm-3672 -35l0 0c8,-1 8,-34 0,-35 -1,9 -22,35 0,35zm70 -5l0 0c-13,42 -32,136 -30,193 77,9 235,14 341,10 38,-2 200,-7 148,10 45,0 90,1 129,-5 20,-75 49,-168 59,-238 -202,27 -412,48 -647,30zm6374 -10l0 0c38,10 83,39 118,35 -42,-13 -105,-38 -118,-50 8,2 3,11 0,15zm-1937 35l0 0c-6,-18 -11,-35 -25,-45 8,16 8,38 25,45zm613 5l0 0c3,0 6,0 9,0 0,-13 0,-27 0,-40 -19,-3 -5,27 -9,40zm163 -30l0 0c56,5 118,30 168,25 -20,-10 -55,-5 -65,-25 -12,26 -73,-28 -103,0zm-2209 25l0 0c38,-9 78,-14 109,-30 -40,3 -94,18 -109,30zm627 15l0 0c6,-9 19,-34 5,-45 -2,11 -17,35 -5,45zm-2702 34l0 0c31,-14 46,-45 64,-74 -31,15 -48,45 -64,74zm1121 -59l0 0c18,1 30,-3 35,-15 -13,4 -28,5 -35,15zm4368 5l0 0c-17,-4 -64,-26 -64,-15 23,0 46,26 64,15zm-1299 15l0 0c-2,-12 -5,-22 -15,-25 0,13 -5,31 15,25zm-1468 29l0 0c13,-13 32,-20 35,-44 -18,6 -41,32 -35,44zm1651 223l0 0c341,93 650,203 953,336 44,19 88,52 129,59 73,13 149,-5 222,-5 118,0 238,14 361,0 -206,-135 -450,-232 -682,-341 -3,9 6,29 -5,30 -32,12 -118,24 -124,64 -87,13 -162,-22 -212,-59 -31,-24 -73,-104 -74,-149 -1,-25 8,-22 -25,-39 -84,-43 -206,-62 -282,-79 -96,-41 -208,-65 -331,-79 0,-3 0,-6 -5,-5 37,77 72,155 75,267zm553 -134l0 0c-16,-16 -77,-11 -69,-34 -126,-5 -239,-92 -371,-89 148,37 297,99 440,123zm1226 -89l0 0c-13,-17 -48,-38 -65,-34 21,12 40,26 65,34zm-3375 -10l0 0c12,1 35,-13 19,-24 -3,11 -16,13 -19,24zm785 10l0 0c-1,-14 4,-34 -10,-34 1,14 -4,34 10,34zm-4590 45l0 0c1,-27 18,-38 19,-64 -1,-4 -4,-6 -9,-5 -3,20 -21,51 -10,69zm904 -5l0 0c10,-20 34,-25 40,-50 -24,3 -44,36 -40,50zm-198 104l0 0c19,-35 38,-120 30,-149 -1,52 -43,115 -30,149zm1073 -119l0 0c35,-9 84,-4 103,-30 -40,4 -75,14 -103,30zm2752 -15l0 0c0,8 0,17 0,25 6,0 13,0 20,0 -6,-16 15,-31 0,-40 -1,22 -12,7 -20,15zm-3706 74l0 0c19,-30 70,-55 74,-84 -20,29 -74,52 -74,84zm6434 -39l0 0c-21,-11 -45,-45 -70,-35 23,9 54,35 70,35zm-5179 -30l0 0c-7,0 -13,0 -20,0 -4,19 24,19 20,0zm4660 20l0 0c-4,-13 -11,-22 -30,-20 -2,18 18,15 30,20zm-4719 -10l0 0c-8,7 -22,8 -35,10 -7,84 -22,163 -25,237 66,-10 106,-46 168,-59 -22,-76 -62,-135 -108,-188zm1714 30l0 0c16,-4 26,-14 30,-30 -18,2 -23,17 -30,30zm1601 148l0 0c-32,-66 -57,-141 -118,-178 9,87 35,183 118,178zm-2495 -153l0 0c27,-3 54,-6 69,-20 -30,-1 -52,7 -69,20zm-1967 84l0 0c24,-16 35,-37 55,-60 12,-14 36,-30 24,-39 -26,33 -61,57 -79,99zm3207 -79l0 0c95,-6 212,13 272,-15 -64,-3 -212,0 -272,15zm-2139 222l0 0c7,-72 32,-179 19,-237 -6,67 -24,163 -19,237zm2500 -217l0 0c7,0 13,0 20,0 0,-7 0,-14 0,-20 -5,0 -10,0 -15,0 0,8 -1,15 -5,20zm662 93l0 0c23,-14 21,-81 15,-108 -2,39 -7,75 -15,108zm2496 391l0 0c-125,-69 -224,-187 -366,-223 -70,-65 -198,-122 -302,-168 -25,-11 -50,-26 -79,-39 -41,-18 -131,-72 -168,-69 -27,2 -43,33 -64,49 -62,48 -126,86 -173,139 266,104 494,247 727,385 170,-11 348,-20 513,0 -2,-32 -63,-48 -88,-74zm-6212 -460l0 0c81,-7 162,-13 228,-34 -74,14 -159,16 -228,34zm519 114l0 0c0,-48 24,-98 10,-143 -5,43 -21,100 -10,143zm-35 -133l0 0c-12,21 -31,8 -59,9 -294,85 -627,131 -983,154 -1,20 -30,12 -64,14 -18,85 -52,153 -60,247 27,6 39,-4 50,-14 278,-5 625,-70 855,-119 36,-8 117,-8 128,-30 -2,4 -23,-3 -10,-5 44,-9 84,-22 134,-24 5,-69 27,-173 9,-232zm-296 39l0 0c37,-11 116,-6 119,-35 -30,22 -90,13 -119,35zm2061 -15l0 0c11,0 14,-8 29,-5 1,-28 -23,0 -34,-15 -1,9 1,16 5,20zm-3771 188l0 0c8,-69 47,-134 40,-203 -10,68 -44,138 -40,203zm2263 -119l0 0c-6,-36 -23,-62 -44,-84 10,33 29,57 44,84zm4210 25l0 0c51,-3 98,-77 124,-104 -41,35 -90,61 -124,104zm-3350 -69l0 0c12,1 30,-31 10,-30 1,15 -11,15 -10,30zm3182 5l0 0c4,-12 13,-37 -9,-35 -1,16 2,28 9,35zm752 -20l0 0c-15,0 -32,-24 -45,-10 17,-2 31,25 45,10zm-5614 15l0 0c20,-2 78,-9 30,-5 -41,3 -75,9 -30,5zm608 474l0 0c71,13 158,-47 227,-59 5,-9 -15,-16 0,-20 70,-20 134,-47 203,-69 4,-38 30,-81 64,-109 24,-19 89,-55 114,-59 57,-9 96,24 148,40 8,-75 30,-135 39,-208 -168,61 -345,112 -508,178 -11,24 2,71 -10,94 -3,-7 5,-26 -5,-25 -10,62 -44,106 -89,84 10,-6 30,-3 29,-20 -39,0 -4,-39 -5,-59 -7,-6 -35,-16 -24,-25 11,3 25,10 34,0 -4,-14 7,-12 5,-24 -67,20 -130,44 -197,64 -6,72 -13,142 -25,207 66,-4 154,-53 217,-59 -68,27 -138,52 -217,69zm5198 -385l0 0c-52,-35 -124,-76 -183,-89 60,28 129,72 183,89zm-1863 -20l0 0c-13,-23 -17,-55 -44,-64 3,27 47,64 44,64zm-1438 -25l0 0c53,68 79,163 129,233 208,1 433,0 618,10 -35,0 -70,0 -104,0 190,21 395,31 558,64 2,-96 28,-167 40,-252 -62,-8 -101,-8 -158,-20 15,1 27,-2 34,-10 -92,-10 -185,-45 -277,-39 -18,37 -16,95 -59,108 18,-23 44,-64 35,-99 -31,89 -119,180 -242,164 -39,-6 -59,-32 -89,-55 -21,-5 0,30 -25,20 -14,-51 11,-104 10,-158 -150,1 -326,3 -470,34zm608 94l0 0c-10,-28 15,-102 -10,-128 6,40 -12,104 10,128zm59 -79l0 0c5,-12 7,-26 5,-44 -1,-4 -4,-6 -9,-5 -2,21 1,108 4,49zm-3098 -34l0 0c21,0 41,0 50,-10 -15,5 -39,1 -50,10zm539 138l0 0c-1,-51 19,-106 10,-148 -1,48 -24,101 -10,148zm2461 -79l0 0c20,-3 17,-60 -5,-69 7,17 4,45 5,69zm-830 -49l0 0c28,10 73,-2 98,-10 -21,-4 -77,-3 -98,10zm894 69l0 0c1,-22 19,-84 -5,-84 3,26 -7,66 5,84zm-4363 -69l0 0c-120,-6 87,18 108,0 -35,-8 -64,2 -108,0zm2653 34l0 0c-3,-13 15,-31 0,-39 3,13 -14,30 0,39zm-2199 -30l0 0c13,-9 -34,-4 -59,-4 -30,-1 -69,0 -89,0 -1,3 -4,5 -10,4 -3,1 -6,1 -5,5 60,4 105,-7 163,-5zm2881 15l0 0c37,-4 82,0 104,-19 -40,0 -72,10 -104,19zm1097 35l0 0c16,-3 20,-43 10,-54 -3,18 -10,33 -10,54zm-939 -30l0 0c30,-5 71,2 84,-20 -27,8 -63,7 -84,20zm969 30l0 0c2,-10 12,-37 0,-45 -2,10 -12,37 0,45zm479 -25l0 0c-43,6 -106,-25 -153,-15 49,3 115,34 153,15zm-4447 -5l0 0c25,-1 57,5 69,-10 -24,0 -69,4 -69,10zm-10 0l0 0c-66,-6 -47,15 0,0zm2352 376l0 0c23,-3 47,-6 59,-20 -19,8 -44,9 -59,20zm-479 123l0 0c12,-12 13,12 34,5 256,-102 554,-161 845,-227 14,-1 10,17 30,10 135,-43 299,-57 469,-64 -38,-87 -95,-156 -153,-223 -100,20 -196,16 -286,30 -25,4 -46,19 -70,25 -174,42 -368,86 -563,143 -17,32 -31,68 -35,114 -41,12 -83,70 -148,79 -84,11 -184,2 -202,-55 -144,64 -294,122 -450,173 8,50 -39,111 -35,188 202,-51 382,-118 564,-198zm1413 -410l0 0c-9,-30 -25,-80 -49,-79 12,30 28,57 49,79zm2545 -49l0 0c23,-4 32,-20 44,-35 -19,7 -39,13 -44,35zm855 44l0 0c-48,-28 -82,-66 -134,-69 48,17 89,66 134,69zm-7398 193l0 0c15,-89 59,-176 60,-262 -15,90 -57,177 -60,262zm3420 -237l0 0c30,-7 63,-9 89,-20 -44,3 -63,2 -89,20zm-3242 0l0 0c7,-17 -25,-21 -29,-10 15,-3 11,15 29,10zm119 -10l0 0c-39,2 -49,1 -89,0 5,27 75,11 89,0zm277 25l0 0c-75,-4 -1,15 24,0 -15,-4 -9,-4 -24,0zm69 5l0 0c15,-4 42,6 49,-5 -13,1 -47,-18 -49,5zm4571 49l0 0c0,-15 17,-58 0,-59 6,22 -11,49 0,59zm-579 -25l0 0c14,4 21,-24 10,-29 -3,10 -12,14 -10,29zm742 60l0 0c-19,-33 -27,-76 -70,-84 29,22 45,57 70,84zm74 -80l0 0c2,18 26,13 39,20 9,-27 -26,-29 -39,-20zm-5273 15l0 0c1,10 -12,1 -19,10 -28,34 -25,141 -50,193 106,12 218,19 321,34 93,-91 202,-167 307,-247 -171,25 -404,4 -564,0 4,1 6,5 5,10zm6098 25l0 0c-13,-9 -31,-12 -30,-35 -5,0 -10,0 -15,0 2,22 32,56 45,35zm-692 -5l0 0c-4,-17 -27,-15 -44,-20 2,19 34,9 44,20zm-2382 5l0 0c19,-3 36,-7 50,-15 -18,4 -43,0 -50,15zm3272 0l0 0c16,2 21,-9 29,-15 -12,3 -30,0 -29,15zm-1008 -5l0 0c10,22 18,48 29,69 9,-10 3,-36 5,-54 -13,-4 -23,-25 -34,-15zm-4690 59l0 0c10,-16 49,-30 40,-49 -6,21 -47,32 -40,49zm4512 154l0 0c44,12 91,24 143,29 0,-117 -65,-169 -119,-232 -11,73 -11,129 -24,203zm-4467 -65l0 0c7,-44 31,-96 29,-133 -11,39 -35,93 -29,133zm5361 74l0 0c-136,-29 -279,-93 -415,-138 -15,-4 -15,9 -30,5 -39,-43 -131,-31 -178,-54 13,-6 24,15 30,0 -12,-7 -30,-7 -39,-15 -7,31 -35,41 -50,64 43,63 -5,103 -5,173 66,10 124,28 188,40 5,6 13,9 15,19 156,29 265,104 420,134 1,10 10,13 15,19 110,35 195,95 296,139 32,-80 43,-182 99,-237 -94,-35 -164,-89 -272,-119 -4,16 35,14 15,30 -22,-28 -59,-40 -89,-60zm222 -192l0 0c-20,12 -29,-13 -44,0 11,8 36,18 44,0zm-3636 15l0 0c-9,-5 -15,-12 -25,-15 -6,16 19,26 25,15zm4437 242l0 0c-154,-80 -308,-186 -470,-242 163,70 314,180 470,242zm-4536 -188l0 0c-4,-17 20,-6 15,-25 -14,-2 -5,-28 -20,-29 -3,6 -3,43 5,54zm3592 -40l0 0c9,2 12,11 25,10 2,-16 -21,-28 -25,-10zm-5598 163l0 0c32,0 65,0 98,0 3,-28 15,-58 25,-89 9,-27 24,-60 20,-74 -46,57 -104,100 -143,163zm1220 -123l0 0c16,1 21,-9 40,-5 6,-18 -50,4 -40,5zm390 20l0 0c13,1 29,-36 10,-35 1,15 -6,24 -10,35zm2936 5l0 0c5,-6 10,-36 0,-40 7,17 -14,32 0,40zm-2614 5l0 0c3,-4 11,-28 0,-30 -4,3 -11,27 0,30zm-603 4l0 0c-5,0 -6,-4 -10,-4 -340,90 -672,188 -1072,197 23,24 53,16 79,30 76,40 111,128 168,188 99,-34 204,-38 311,-50 176,-20 338,-89 494,-123 4,-85 20,-158 30,-238zm-1221 89l0 0c20,-8 25,-57 20,-74 -10,22 -12,51 -20,74zm1265 89l0 0c3,-56 15,-104 15,-163 -5,0 -10,0 -15,0 6,57 -9,119 0,163zm781 -123l0 0c-4,-13 10,-43 -10,-40 -1,18 1,32 10,40zm1631 -35l0 0c-37,10 -73,-9 -104,0 13,4 81,25 104,0zm-455 10l0 0c-45,-13 -53,19 0,0zm885 25l0 0c12,-4 42,9 39,-10 -17,8 -31,-9 -39,10zm207 25l0 0c-18,-16 -74,-19 -99,-10 36,0 64,8 99,10zm-5080 93l0 0c3,-34 28,-74 20,-103 -7,30 -27,74 -20,103zm99 -89l0 0c0,-3 0,-6 0,-9 -1,-8 -12,-5 -20,-5 1,22 12,6 20,14zm2565 20l0 0c-1,-14 4,-34 -10,-34 7,18 -5,28 10,34zm1146 -10l0 0c57,-5 144,0 203,-14 -54,-20 -154,-4 -203,14zm-1131 20l0 0c12,1 15,-8 24,-10 -2,-9 -2,-20 -10,-24 7,22 -9,23 -14,34zm3547 -25l0 0c31,10 54,26 84,35 -12,-21 -79,-38 -84,-35zm-4857 25l0 0c43,-3 102,-16 124,-25 -43,8 -93,6 -124,25zm1636 74l0 0c136,-24 254,-65 385,-94 -138,22 -273,46 -385,94zm2144 -79l0 0c5,-18 -19,-7 -29,-10 -5,18 19,7 29,10zm-5084 0l0 0c33,16 106,19 148,10 -50,0 -106,-18 -148,-10zm286 30l0 0c20,-5 38,-12 40,-35 -12,3 -36,-6 -40,5 12,2 23,3 20,20 -9,1 -25,-5 -20,10zm3202 -20l0 0c42,-1 83,-3 114,-15 -44,0 -81,5 -114,15zm-2955 5l0 0c54,-1 110,1 148,-15 -49,6 -121,-13 -148,15zm3489 40l0 0c0,-15 -1,-31 15,-30 1,-16 -16,-14 -20,-25 -1,15 -13,40 5,55zm-2955 -15l0 0c26,-2 55,-1 69,-15 -21,7 -56,0 -69,15zm4259 15l0 0c1,-14 -30,-19 -34,-10 9,5 23,6 34,10zm-187 222l0 0c8,-71 45,-181 24,-232 0,81 -30,161 -24,232zm-35 -99l0 0c8,15 4,-21 5,-30 9,-26 6,-66 15,-93 -1,-4 -4,-6 -10,-5 0,38 -11,76 -10,128zm-5119 -84l0 0c3,-7 11,-34 5,-35 -3,8 -19,27 -5,35zm519 -25l0 0c54,-3 129,39 163,-5 -36,2 -120,-5 -163,5zm3473 60l0 0c4,-21 10,-40 10,-65 -6,0 -7,-6 -15,-5 -4,29 -10,55 5,70zm-44 -10l0 0c4,-8 14,-55 -5,-55 3,17 -6,46 5,55zm-3909 -20l0 0c-26,52 -37,118 -49,183 38,11 113,1 143,5 31,-74 74,-134 114,-198 -75,-3 -155,-14 -227,-20 -2,18 23,10 19,30zm2955 0l0 0c20,0 38,-1 45,-15 -15,6 -35,5 -45,15zm2491 5l0 0c-22,-7 -43,-14 -65,-20 7,18 52,25 65,20zm1704 -10l0 0c-7,-1 -23,-19 -29,-5 7,1 23,19 29,5zm-3167 104l0 0c5,-29 28,-92 0,-109 -5,28 -10,82 0,109zm-3563 -94l0 0c-49,70 -111,129 -143,217 62,2 96,6 173,5 -4,-68 44,-104 39,-158 21,-37 64,-51 104,-69 -51,-1 -123,-2 -173,5zm-192 74l0 0c28,-20 51,-47 69,-79 -33,11 -73,65 -69,79zm1734 -30l0 0c17,5 48,-17 64,-29 7,1 9,8 15,10 13,-14 40,-13 49,-30 -39,25 -106,2 -128,49zm1888 25l0 0c5,24 17,-75 5,-69 0,25 -9,41 -5,69zm-3118 -64l0 0c-5,16 15,8 24,10 1,-15 -20,-15 -24,-10zm143 44l0 0c-6,-33 -61,-44 -94,-34 45,-3 63,22 94,34zm6775 -34l0 0c-47,4 -85,-14 -119,5 35,-3 108,6 119,-5zm-3781 143l0 0c6,-39 18,-98 5,-138 -4,48 -11,106 -5,138zm2886 -128l0 0c6,-1 63,3 45,-5 -70,2 -153,-8 -203,15 45,2 113,-7 158,-10zm-6241 39l0 0c6,-17 46,-27 40,-39 -14,9 -57,16 -40,39zm213 -25l0 0c3,12 27,2 39,5 3,-24 -34,-23 -39,-5zm3098 99l0 0c19,-12 10,-104 5,-108 -8,37 -3,77 -5,108zm3320 -113l0 0c-61,1 -156,-5 -187,10 66,0 131,-1 187,-10zm-5326 34l0 0c17,-4 40,-3 44,-20 -15,7 -37,6 -44,20zm1986 134l0 0c26,-40 -6,-101 10,-144 -54,12 0,89 -10,144zm134 -65l0 0c-5,-28 23,-83 -5,-89 5,33 -11,77 5,89zm-4052 -39l0 0c12,0 26,-39 10,-35 -4,11 -5,25 -10,35zm5939 0l0 0c-9,-21 -59,-27 -74,-25 27,6 46,20 74,25zm593 20l0 0c3,-19 35,-35 25,-50 -12,10 -38,31 -25,50zm1295 -35l0 0c5,-5 59,11 59,-15 -22,0 -66,3 -59,15zm-6893 0l0 0c29,-2 49,32 69,25 -15,-13 -54,-44 -69,-25zm3078 -10l0 0c-14,45 23,21 0,0zm3103 10l0 0c57,6 186,-19 55,-5 -17,3 -46,-6 -55,5zm-3222 74l0 0c1,-17 9,-58 -9,-69 4,22 -10,62 9,69zm-3093 59l0 0c77,-3 166,5 227,-14 -46,-30 -77,-74 -148,-79 12,-25 51,8 69,-10 -33,-11 -70,-19 -118,-15 -12,38 -21,78 -30,118zm1137 -89l0 0c-256,58 -496,130 -766,173 20,68 -27,142 -10,188 158,-29 314,-61 459,-104 4,-20 24,-65 40,-74 89,-47 175,-109 282,-79 2,-39 35,-99 14,-128 -6,9 -15,14 -19,24zm2129 30l0 0c7,-9 10,-46 0,-54 6,20 -15,40 0,54zm-2050 30l0 0c-5,-28 31,-62 5,-79 7,32 -20,56 -5,79zm4042 -40l0 0c-15,-26 -70,-39 -99,-34 38,6 63,26 99,34zm1161 -10l0 0c55,-13 149,9 212,-14 -61,-2 -169,-11 -212,14zm-6612 84l0 0c32,0 63,0 94,0 8,-32 15,-64 20,-98 -50,21 -88,53 -114,98zm3420 -19l0 0c1,-14 12,-48 0,-70 -7,21 -14,56 0,70zm-2950 0l0 0c-13,-25 -27,-49 -50,-65 11,27 28,49 50,65zm-484 14l0 0c-8,-33 36,-58 14,-74 -8,18 -28,50 -14,74zm6018 -64l0 0c51,0 28,-24 0,0zm1166 0l0 0c36,-3 -12,-4 -24,-5 -13,0 -27,-10 -45,5 29,0 60,1 69,0zm-5391 30l0 0c22,-15 59,-14 74,-35 -28,8 -56,16 -74,35zm4734 -30l0 0c10,2 52,-1 25,-5 -11,0 -48,-2 -30,10 0,-3 1,-6 5,-5zm277 -5l0 0c-22,3 -56,-6 -69,5 21,-3 56,7 69,-5zm445 94l0 0c11,-32 28,-57 39,-89 -22,18 -42,64 -39,89zm-6261 -79l0 0c3,14 -23,-3 -20,10 23,9 92,-17 20,-10zm914 40l0 0c30,-13 67,-19 89,-40 -34,6 -81,24 -89,40zm3790 29l0 0c-47,-22 -148,-71 -183,-59 123,36 214,102 331,143 -36,-30 -93,-57 -148,-84zm1097 -44l0 0c39,-3 68,-6 128,-5 -25,-19 -102,-8 -128,5zm-6266 20l0 0c-3,-14 -9,-24 -19,-30 4,12 1,31 19,30zm835 34l0 0c15,-2 28,-52 10,-54 -1,20 -8,34 -10,54zm5031 40l0 0c-41,-26 -84,-68 -129,-84 -82,-31 -171,17 -276,5 -14,41 -34,75 -45,118 161,97 334,184 499,277 17,-87 61,-147 79,-232 -38,-33 -82,-55 -128,-84zm603 -89l0 0c37,55 118,66 153,123 -1,10 -17,4 -15,15 10,3 16,10 25,15 17,-50 34,-101 49,-153 -65,-8 -127,1 -212,0zm5 405l0 0c19,11 33,29 54,39 30,-95 70,-180 99,-276 -30,-28 -69,-53 -109,-84 -32,-25 -78,-77 -114,-84 -72,-14 -159,17 -242,10 -2,56 -37,81 -44,133 58,50 130,95 202,138 70,43 151,80 188,144 -11,-4 -24,-32 -34,-20zm-574 -390l0 0c47,17 82,46 124,69 10,-25 20,-50 30,-74 -40,0 -109,-5 -154,5zm104 133l0 0c-75,-44 -147,-116 -232,-133 80,38 152,111 232,133zm89 -15l0 0c25,-21 53,-106 49,-123 -26,31 -29,85 -49,123zm-5855 -89l0 0c39,-10 95,-3 118,-29 -39,10 -93,5 -118,29zm914 5l0 0c-2,6 -7,14 -20,20 -73,-2 -143,41 -208,64 127,-30 250,-64 356,-114 -37,-1 -71,28 -128,30zm2930 89l0 0c15,-24 30,-98 15,-119 -11,34 -8,81 -15,119zm2515 -30l0 0c-32,-19 -71,-57 -104,-59 34,18 63,66 104,59zm-7308 -49l0 0c41,-8 105,28 123,-5 -45,6 -97,-11 -123,5zm5890 20l0 0c-22,-8 -51,-35 -74,-25 27,2 53,33 74,25zm-5396 -10l0 0c9,10 152,6 128,-10 -37,8 -86,6 -128,10zm6191 10l0 0c-14,-1 -29,-26 -39,-15 11,4 31,25 39,15zm-7100 20l0 0c-3,-16 15,-12 10,-30 -17,-6 -21,25 -10,30zm840 0l0 0c37,-2 77,-3 108,-10 -29,-5 -80,-2 -108,10zm-148 9l0 0c-49,-25 -125,-11 -168,-19 41,21 115,9 168,19zm1185 5l0 0c26,2 36,-10 45,-24 -20,2 -34,12 -45,24zm-1887 149l0 0c65,7 136,8 202,14 -9,-47 -32,-107 -9,-158 -65,4 -95,-27 -159,-24 -12,54 -23,111 -34,168zm390 -149l0 0c-7,16 30,13 30,5 -11,-3 -22,-13 -30,-5zm405 15l0 0c-16,63 -36,122 -44,193 91,-10 198,-3 287,-15 9,-26 27,-45 34,-74 2,-15 -14,13 -15,-5 30,-33 10,-81 30,-109 -94,0 -191,3 -292,10zm-355 0l0 0c36,-6 98,13 118,-10 -37,6 -97,-11 -118,10zm-188 99l0 0c-17,-31 15,-79 -10,-99 -7,25 -5,80 10,99zm118 -15l0 0c14,23 0,59 15,69 7,-12 1,-39 20,-39 22,11 32,34 40,59 -23,-3 -18,-35 -40,-39 -10,27 -8,23 -5,54 89,-1 175,0 257,5 15,-57 36,-132 35,-188 -91,13 -198,13 -307,15 -9,11 -2,73 -15,64zm-484 -34l0 0c18,1 28,-36 10,-40 -1,16 -11,22 -10,40zm5095 29l0 0c2,-25 45,-52 24,-69 -3,25 -35,47 -24,69zm-4665 15l0 0c1,-27 0,-53 -10,-69 3,24 -7,60 10,69zm4803 69l0 0c19,-47 93,-81 69,-138 -1,65 -67,91 -69,138zm-4383 -84l0 0c12,-3 27,-49 10,-49 3,23 -11,28 -10,49zm6019 65l0 0c-43,-18 -80,-42 -129,-55 -14,-27 -66,-63 -89,-49 71,32 136,98 218,104zm-4907 -85l0 0c21,-3 37,-12 49,-24 -16,8 -42,6 -49,24zm3222 50l0 0c17,-19 33,-39 39,-69 -5,0 -10,0 -15,0 0,26 -42,55 -24,69zm34 10l0 0c25,-18 41,-45 50,-79 -25,18 -38,48 -50,79zm-4012 34l0 0c16,-20 41,-58 30,-89 -20,28 -24,71 -30,89zm835 -34l0 0c15,-8 37,-35 30,-50 -15,12 -26,27 -30,50zm-2006 15l0 0c15,-4 19,-43 10,-55 -2,20 -9,35 -10,55zm5282 5l0 0c3,-21 26,-47 20,-60 -7,16 -34,39 -20,60zm2080 -30l0 0c-19,-5 -35,-40 -59,-25 18,7 41,35 59,25zm-5430 10l0 0c16,-5 27,-16 34,-30 -18,3 -24,18 -34,30zm5287 25l0 0c2,-19 12,-28 15,-45 -12,5 -24,35 -15,45zm-10 182l0 0c77,59 154,117 237,168 -4,-19 -6,-39 -4,-64 -19,-4 -23,30 -30,20 3,-37 39,-40 39,-79 27,-51 115,-41 173,-59 -97,-82 -202,-157 -326,-213 -27,79 -58,153 -89,227zm-7244 -182l0 0c21,5 21,-35 15,-40 -9,9 -11,25 -15,40zm1873 14l0 0c11,-21 37,-28 54,-44 -17,-8 -85,19 -54,44zm119 0l0 0c22,-2 41,-34 34,-49 -12,16 -26,29 -34,49zm-1196 35l0 0c15,-13 28,-55 20,-74 -7,25 -19,44 -20,74zm731 -49l0 0c29,-13 87,4 99,-25 -30,8 -89,13 -99,25zm5767 24l0 0c6,-16 13,-33 19,-49 -14,6 -29,36 -19,49zm247 -10l0 0c-9,-21 -35,-24 -55,-34 10,20 36,23 55,34zm-2407 35l0 0c2,-21 44,-40 20,-54 -3,18 -30,38 -20,54zm-5178 -25l0 0c19,10 19,-22 10,-24 -2,9 -14,8 -10,24zm237 -5l0 0c48,-5 96,16 133,5 -22,-14 -114,-15 -133,-5zm1690 20l0 0c13,-5 28,-8 30,-25 -16,3 -26,11 -30,25zm3320 59l0 0c22,-12 29,-37 55,-44 -3,-10 6,-33 -5,-35 -9,31 -49,56 -50,79zm-3720 -59l0 0c15,-4 41,2 44,-15 -13,7 -38,2 -44,15zm6166 79l0 0c-33,-39 -78,-67 -123,-94 32,40 77,68 123,94zm-691 -59l0 0c-4,-20 -24,-23 -40,-30 5,19 26,20 40,30zm-5144 5l0 0c-11,-8 -12,-25 -30,-25 2,13 20,36 30,25zm5445 49l0 0c6,-23 16,-43 25,-64 -15,12 -34,45 -25,64zm-6216 -44l0 0c33,-3 50,8 74,-5 -33,-3 -53,-10 -74,5zm6819 84l0 0c5,-26 30,-60 20,-84 -3,29 -33,56 -20,84zm-7521 -69l0 0c-25,-3 -64,-19 -89,-5 31,-3 61,21 89,5zm1591 9l0 0c10,-3 35,8 30,-9 -13,0 -29,-3 -30,9zm5253 40l0 0c6,-8 21,-52 10,-45 0,16 -22,34 -10,45zm-6488 -15l0 0c18,-9 53,1 69,-10 -21,0 -56,-9 -69,10zm153 -5l0 0c20,8 43,3 69,-5 -21,-6 -59,-6 -69,5zm5618 40l0 0c4,-16 23,-40 15,-50 0,18 -29,34 -15,50zm-5727 44l0 0c-1,-23 10,-33 10,-54 -50,8 -99,-5 -143,-5 27,37 77,52 133,59zm15 5l0 0c21,-7 18,-39 25,-59 -5,0 -10,0 -15,0 -1,22 -10,36 -10,59zm74 5l0 0c52,26 85,-14 134,-20 -1,7 -8,9 -10,15 33,-10 65,-20 84,-44 -55,-2 -122,-11 -198,-15 2,26 -13,36 -10,64zm297 -10l0 0c19,-9 62,-45 49,-54 -15,19 -40,29 -49,54zm6028 -39l0 0c-6,-2 -18,-20 -24,-5 10,3 18,25 24,5zm-6107 143l0 0c28,-15 70,-37 99,-59 17,-14 45,-43 39,-55 -41,43 -94,74 -138,114zm-341 -94l0 0c-14,2 -30,-19 -40,-5 12,3 31,28 40,5zm5687 129l0 0c15,-45 56,-90 50,-139 -14,46 -58,87 -50,139zm-5885 -94l0 0c-4,-19 -30,-42 -49,-30 16,10 31,22 49,30zm504 -30l0 0c5,0 4,-6 -5,-5 -24,36 -93,25 -123,54 52,-7 108,-10 128,-49zm6266 20l0 0c-13,-8 -40,-24 -50,-15 46,24 95,70 139,79 -28,-13 -59,-46 -89,-64zm-6691 20l0 0c-30,-7 -29,-44 -69,-40 16,17 45,47 69,40zm6552 -35l0 0c-11,0 -23,0 -34,0 -6,21 40,21 34,0zm-6413 35l0 0c-21,-8 -59,-24 -79,-15 20,7 59,23 79,15zm6779 49l0 0c13,-13 43,-52 30,-59 -12,16 -38,39 -30,59zm-6784 -20l0 0c-6,-15 -28,-15 -45,-20 6,16 25,19 45,20zm6389 10l0 0c14,3 26,-23 15,-30 -5,10 -10,20 -15,30zm64 5l0 0c-1,-15 11,-15 10,-30 -17,-6 -21,25 -10,30zm578 10l0 0c17,-1 14,-22 25,-30 -19,-1 -18,19 -25,30zm-939 25l0 0c25,-4 39,-44 40,-55 -11,20 -38,25 -40,55zm104 -30l0 0c11,-2 18,-9 20,-20 -7,0 -13,0 -20,0 0,7 0,13 0,20zm613 39l0 0c17,-4 31,-38 25,-49 -10,16 -13,37 -25,49zm-6587 -24l0 0c9,15 47,-20 35,-10 -16,-1 -30,0 -35,10zm5381 -10l0 0c-16,3 -23,-3 -34,-5 -3,18 39,28 34,5zm1097 54l0 0c23,16 42,44 59,35 -28,-23 -91,-80 -138,-84 25,18 53,31 79,49zm-553 -29l0 0c15,2 15,-10 24,0 2,-13 -1,-22 -14,-20 -3,7 -8,12 -10,20zm99 -15l0 0c-7,0 -14,0 -20,0 -8,23 25,17 20,0zm736 20l0 0c8,0 4,12 15,9 -7,-12 14,-20 0,-24 1,11 -15,5 -15,15zm-1522 9l0 0c10,-3 32,7 34,-5 -10,-12 -32,-22 -34,5zm682 50l0 0c14,-7 24,-56 10,-59 -9,14 -13,33 -10,59zm-776 -15l0 0c20,2 31,-31 25,-40 -7,15 -24,19 -25,40zm-5332 0l0 0c1,-9 9,-11 20,-10 1,-13 -2,-21 -15,-20 -1,8 -16,26 -5,30zm6177 5l0 0c3,-7 29,-32 5,-35 3,13 -20,25 -5,35zm84 -20l0 0c13,16 32,-4 35,-15 -13,5 -35,-1 -35,15zm-5 45l0 0c1,-12 17,-10 15,-25 -6,0 -7,-6 -15,-5 5,13 -15,24 0,30zm-54 0l0 0c16,1 12,-18 19,-25 -15,-1 -17,13 -19,25zm-890 44l0 0c-2,-15 28,-40 5,-44 4,17 -19,33 -5,44zm1621 -25l0 0c19,3 22,-10 30,-19 -15,1 -25,8 -30,19zm-1665 25l0 0c20,2 13,-23 19,-35 -20,-2 -13,24 -19,35zm988 -10l0 0c6,4 13,7 25,5 5,-27 -22,-21 -25,-5zm-6280 64l0 0c12,-15 28,-53 19,-74 -1,27 -30,52 -19,74zm5529 -39l0 0c18,-4 30,-13 39,-25 -9,0 -19,0 -29,0 1,12 -8,16 -10,25zm-143 0l0 0c23,5 27,-9 34,-20 -20,-2 -34,2 -34,20zm1487 30l0 0c-15,-20 -41,-55 -69,-45 27,11 42,33 69,45zm-1438 -10l0 0c15,-2 20,-14 25,-25 -16,1 -24,9 -25,25zm-35 19l0 0c14,5 27,-29 10,-24 4,15 -13,9 -10,24zm119 -19l0 0c-3,13 10,9 15,15 1,-11 13,-10 15,-20 -12,0 -15,8 -30,5zm-148 24l0 0c13,4 30,-26 10,-24 0,12 -8,15 -10,24zm-5757 25l0 0c5,-10 15,-14 15,-30 -20,-8 -27,23 -15,30zm7402 69l0 0c-34,-24 -81,-85 -113,-79 47,14 73,75 113,79zm-1596 -49l0 0c11,11 60,-1 55,-5 -24,1 -41,-12 -55,5zm94 10l0 0c21,-2 38,-9 49,-20 -22,1 -40,5 -49,20zm-5836 34l0 0c0,-15 20,-35 5,-49 -2,13 -16,39 -5,49zm252 70l0 0c24,-36 50,-70 60,-119 -28,28 -54,85 -60,119zm-202 -15l0 0c4,-17 36,-71 10,-99 2,35 -21,71 -10,99zm-84 -25l0 0c-2,-20 18,-45 5,-59 -1,17 -18,44 -5,59zm-69 25l0 0c17,-9 37,-63 19,-74 -7,27 -12,39 -19,74zm-30 5l0 0c-3,-11 8,-35 -10,-30 3,10 -8,34 10,30zm84 24l0 0c-3,-12 23,-34 0,-34 6,15 -15,27 0,34zm15 65l0 0c11,1 9,17 24,14 3,-17 -21,-32 -24,-14zm-55 59l0 0c-21,-16 -34,-42 -54,-59 4,30 34,61 54,59zm223 -30l0 0c8,0 16,0 24,0 3,-7 8,-12 10,-20 -14,4 -30,6 -34,20zm29 30l0 0c25,-1 46,-31 40,-45 -12,16 -34,23 -40,45zm-108 25l0 0c17,-7 31,13 39,0 -12,-7 -27,-10 -29,-25 -8,3 -26,-6 -25,5 20,-1 20,6 15,20zm7590 9l0 0c-22,-3 -34,-42 -55,-29 21,4 33,43 55,29z"/>
  </g>
 </g>
</svg>
