<?xml version="1.0" encoding="UTF-8"?>
<!DOCTYPE svg PUBLIC "-//W3C//DTD SVG 1.1//EN" "http://www.w3.org/Graphics/SVG/1.1/DTD/svg11.dtd">
<!-- Creator: CorelDRAW X8 -->
<svg xmlns="http://www.w3.org/2000/svg" xml:space="preserve" width="8.5in" height="11in" version="1.1" style="shape-rendering:geometricPrecision; text-rendering:geometricPrecision; image-rendering:optimizeQuality; fill-rule:evenodd; clip-rule:evenodd"
viewBox="0 0 8500 11000"
 xmlns:xlink="http://www.w3.org/1999/xlink">
 <defs>
  <style type="text/css">
   <![CDATA[
    .fil0 {fill:#090968}
   ]]>
  </style>
 </defs>
 <g id="Layer_x0020_1">
  <metadata id="CorelCorpID_0Corel-Layer"/>
  <path class="fil0" d="M2375 8521c115,4 -112,99 -171,114 7,88 235,-45 200,85 -640,37 -1171,92 -1739,-28 -17,-93 19,-133 28,-200 -170,-39 -317,-101 -456,-171 -272,-534 -152,-1130 285,-1369 61,-33 211,-44 314,-85 292,-117 690,-138 1169,-57 112,39 144,159 313,142 63,-1218 142,-2768 86,-4133 3,-73 41,-111 114,-114 -62,-25 -66,-105 -57,-200 160,74 114,-22 142,-114 840,-41 2003,88 2766,-114 809,159 1680,-104 2594,-29 103,59 177,147 285,200 54,65 -18,168 29,257 67,-38 55,-155 85,-229 88,107 33,290 -28,400 -44,911 12,1751 -57,2622 -39,28 -37,97 -86,114 22,772 -121,1476 -228,2196 -12,63 -50,101 -114,114 63,148 -29,162 -28,313 -291,121 -556,499 -1027,400 -101,3 61,94 -28,85 -151,11 13,-116 -143,-85 -97,30 80,8 29,85 -691,54 -1038,-236 -1426,-485 -247,-659 157,-1347 827,-1368 73,-32 83,-126 143,-171 569,-9 1151,-30 1397,285 86,-987 246,-2140 142,-3136 -1700,-148 -3336,10 -4932,85 146,576 -73,1712 -86,2709 -9,735 237,1375 -199,1796 -109,-14 -182,8 -228,57 16,59 44,60 85,29zm5218 -6187l0 0c-96,18 -265,-37 -314,28 96,-18 265,37 314,-28zm-371 256l0 0c88,-36 204,-43 228,-142 -201,-17 -170,54 -228,142zm-684 -57l0 0c127,-79 278,134 342,-57 -83,87 -297,-94 -342,57zm-2110 86l0 0c101,15 147,-24 171,-86 -39,2 -63,-13 -85,-28 -9,58 -58,76 -86,114zm1340 -86l0 0c-35,6 -18,32 0,57 201,-52 347,12 485,-85 -157,14 -374,-32 -485,28zm-2110 172l0 0c121,-4 163,-85 228,-143 -95,-68 -162,91 -228,143zm1397 -86l0 0c71,-15 172,1 171,-86 -101,-15 -147,25 -171,86zm-2338 0l0 0c18,101 -135,177 0,228 18,-101 -25,-200 171,-171 27,-103 -112,-40 -171,-57zm171 114l0 0c95,-10 124,-85 171,-143 -107,-3 -153,56 -171,143zm3935 28l0 0c97,2 199,9 228,-56 -97,-2 -199,-9 -228,56zm798 115l0 0c-190,85 -374,177 -485,342 167,-110 330,-222 485,-342zm-1825 142l0 0c124,9 189,-39 229,-114 -112,3 -208,21 -229,114zm-2223 29l0 0c90,-6 170,-20 171,-114 -93,2 -154,36 -171,114zm285 -29l0 0c87,1 145,-26 171,-85 -85,0 -174,-3 -171,85zm1140 86l0 0c157,-15 308,-35 342,-171 -194,-24 -259,83 -342,171zm371 -29l0 0c102,-22 173,-73 228,-142 -126,-2 -179,68 -228,142zm-770 57l0 0c31,-56 232,-89 143,-171 -23,64 -230,92 -143,171zm-342 29l0 0c141,-12 226,-78 285,-171 -140,11 -218,86 -285,171zm3022 285l0 0c34,4 81,-5 86,28 194,-91 340,-229 484,-370 -233,-43 -381,245 -570,342zm-4334 -86l0 0c50,-102 163,-142 229,-228 -125,9 -267,151 -229,228zm200 57l0 0c159,-59 281,-156 371,-285 -183,36 -275,162 -371,285zm257 0l0 0c51,-72 156,-90 228,-142 -39,-9 -55,-41 -114,-29 22,100 -220,82 -114,171zm-485 228l0 0c47,0 95,0 142,0 8,-123 -121,-89 -56,-199 -131,12 -109,91 -86,199zm-342 200l0 0c33,-36 57,-225 0,-257 -12,57 -71,212 0,257zm399 -57l0 0c-88,21 -55,-78 -143,-57 -57,108 130,113 143,57zm-428 598l0 0c0,86 0,172 0,257 -12,57 12,263 29,114 -27,-331 58,-678 -29,-855 0,161 0,323 0,484zm-28 2082l0 0c24,-499 94,-1104 28,-1597 -9,556 -144,1156 -28,1597zm5246 599l0 0c85,-341 74,-1052 28,-1569 -26,540 -104,1163 -28,1569zm171 -200l0 0c-28,-204 59,-375 -29,-485 40,174 -72,432 29,485zm-1141 85l0 0c2,-97 -105,-84 -199,-85 -19,114 108,82 199,85zm-5645 115l0 0c99,-5 408,-25 571,-58 -191,-18 -305,-113 -514,-114 75,122 -38,78 -57,172zm5674 -115l0 0c339,-16 490,157 684,285 -89,-198 -450,-420 -684,-285zm-4505 143l0 0c-190,-10 -323,-228 -513,-143 172,21 412,237 513,143zm-1454 28l0 0c81,-4 196,25 200,-56 -81,4 -196,-25 -200,56zm770 86l0 0c-34,-33 -101,-32 -171,-28 -40,91 171,72 171,28zm-1283 228l0 0c104,-58 151,-172 314,-171 -80,-156 -414,55 -314,171zm1882 -57l0 0c-51,-9 -112,-151 -171,-57 48,12 128,134 171,57zm3164 171l0 0c109,58 165,-48 171,-171 -104,9 -148,80 -171,171zm-4390 57l0 0c129,-23 285,-18 285,-171 -140,13 -276,28 -285,171zm399 -114l0 0c232,-51 414,98 570,29 -140,-28 -442,-178 -570,-29zm4419 143l0 0c82,-42 134,-114 200,-171 -90,-62 -171,82 -200,171zm998 -114l0 0c56,47 225,35 228,-57 -97,-2 -199,-9 -228,57zm-4334 256l0 0c21,-68 76,-264 -28,-285 -58,117 -47,184 28,285zm5218 -57l0 0c4,-49 92,-233 -29,-228 17,68 -36,207 29,228zm-1625 29l0 0c114,29 296,-96 427,-143 -48,-11 6,-37 0,-85 -195,23 -331,105 -427,228zm513 -200l0 0c-3,119 190,22 199,-28 -92,-17 -132,19 -199,28zm-6130 228l0 0c79,1 99,-203 57,-228 -32,63 -73,117 -57,228zm6900 29l0 0c39,-20 122,-228 0,-228 40,99 -80,182 0,228zm-6415 -57l0 0c33,24 76,37 142,28 -37,-71 84,-118 0,-142 1,86 -143,27 -142,114zm313 0l0 0c193,55 388,122 514,-29 -157,-56 -425,-151 -514,29zm856 228l0 0c133,22 91,-202 0,-200 0,67 0,133 0,200zm-998 114l0 0c-20,-64 -105,-124 -29,-200 -36,-39 -134,-17 -171,-57 50,103 39,266 200,257zm4390 0l0 0c-92,-40 -48,-218 -142,-257 -52,66 25,364 142,257zm1939 -29l0 0c25,-71 181,-159 114,-228 -15,82 -191,149 -114,228zm-5787 57l0 0c155,7 465,-114 313,-228 -50,130 -234,128 -313,228zm-143 29l0 0c-87,18 -246,-37 -285,28 86,-18 245,37 285,-28zm4619 256l0 0c37,-105 -169,-113 -200,-57 89,-3 81,90 200,57zm-229 57l0 0c3,-88 -86,-84 -171,-85 -2,88 87,85 171,85zm770 58l0 0c-45,-112 74,-60 86,-115 -106,19 -284,-37 -342,29 17,96 201,26 256,86zm-5360 114l0 0c-375,-119 -317,105 0,0z"/>
 </g>
</svg>
