<?xml version="1.0" encoding="UTF-8"?>
<!DOCTYPE svg PUBLIC "-//W3C//DTD SVG 1.1//EN" "http://www.w3.org/Graphics/SVG/1.1/DTD/svg11.dtd">
<!-- Creator: CorelDRAW X8 -->
<svg xmlns="http://www.w3.org/2000/svg" xml:space="preserve" width="8.5in" height="11in" version="1.1" style="shape-rendering:geometricPrecision; text-rendering:geometricPrecision; image-rendering:optimizeQuality; fill-rule:evenodd; clip-rule:evenodd"
viewBox="0 0 8500 11000"
 xmlns:xlink="http://www.w3.org/1999/xlink">
 <defs>
  <style type="text/css">
   <![CDATA[
    .fil0 {fill:#090968}
   ]]>
  </style>
 </defs>
 <g id="Layer_x0020_1">
  <metadata id="CorelCorpID_0Corel-Layer"/>
  <path class="fil0" d="M4141 405c37,0 73,0 109,0 10,59 -34,62 -36,109 249,280 321,738 470,1120 37,95 143,121 180,217 30,102 -51,93 -36,180 24,84 92,125 145,181 153,762 428,1402 758,1987 -41,184 33,410 181,506 -5,645 443,1146 578,1771 81,40 25,215 181,180 -89,388 215,637 397,867 -137,30 -111,-105 -217,-108 148,346 313,676 579,903 -160,27 -148,-116 -253,-144 201,475 193,979 650,1228 -118,155 20,698 253,904 5,101 -88,104 -181,108 -24,97 75,70 109,109 -128,113 -216,-120 -325,-145 -461,58 -784,-47 -976,145 -91,-113 -229,-165 -398,-109 -800,-2271 -1658,-4484 -2493,-6721 -546,1466 -1190,3152 -1770,4734 -182,496 -296,1180 -578,1445 -44,238 -155,442 -109,579 -297,159 -565,-69 -831,144 -36,-48 -34,-135 -108,-144 1173,-3110 2306,-6234 3469,-9431 -25,-146 -236,-252 -145,-398 155,-35 63,178 181,181 104,-101 155,-254 216,-398zm3542 9648l0 0c-68,-174 -201,-281 -326,-398 79,187 114,417 290,506 47,-89 -107,-150 0,-180 8,28 0,71 36,72zm-3614 -8600l0 0c103,-49 1,-190 -72,-181 16,69 -49,218 72,181zm145 903l0 0c-15,-177 -109,-276 -217,-361 40,153 86,299 217,361zm-651 145l0 0c-26,-160 215,-394 37,-470 23,175 -214,370 -37,470zm1193 36l0 0c-29,-164 -124,-261 -217,-361 14,178 133,252 217,361zm-1482 687l0 0c35,-157 223,-295 73,-434 18,152 -231,377 -73,434zm904 -73l0 0c75,-130 -76,-296 -181,-361 38,142 82,279 181,361zm722 109l0 0c-102,-127 -155,-303 -289,-398 36,170 156,445 289,398zm-433 -36l0 0c-28,-129 -94,-220 -181,-289 8,148 90,223 181,289zm180 36l0 0c-27,-105 -57,-208 -144,-253 28,105 57,208 144,253zm651 361l0 0c-62,-239 -151,-452 -325,-578 26,274 165,437 325,578zm-759 0l0 0c1,-182 -70,-291 -181,-361 23,158 99,263 181,361zm-181 109l0 0c-54,-187 -155,-327 -289,-434 66,175 57,425 289,434zm-1156 -73l0 0c0,-96 0,-193 0,-289 -151,42 -183,284 0,289zm289 0l0 0c-10,-63 115,-194 -36,-180 -11,84 -77,155 36,180zm-289 181l0 0c112,25 151,-207 72,-253 -40,68 -46,171 -72,253zm1987 217l0 0c-7,-186 -126,-259 -216,-362 63,130 108,277 216,362zm-1915 0l0 0c128,-17 119,-171 145,-289 -112,33 -120,169 -145,289zm-253 180l0 0c33,-42 30,-270 -108,-253 13,108 21,220 108,253zm1699 73l0 0c-28,-93 -36,-205 -109,-253 31,89 -9,250 109,253zm-109 216l0 0c45,-80 -42,-278 -144,-325 8,149 76,237 144,325zm-1626 73l0 0c-21,-147 -69,-268 -144,-362 -75,120 -12,358 144,362zm1879 180l0 0c-19,-149 -37,-300 -180,-325 65,104 55,282 180,325zm-2096 109l0 0c-84,-12 -81,-112 -144,-145 -76,198 24,335 144,434 23,-132 181,-550 -72,-651 -29,151 203,229 72,362zm2674 36l0 0c-22,-170 -87,-298 -180,-398 41,152 75,310 180,398zm-433 289l0 0c24,-157 -65,-200 -145,-253 -17,149 86,180 145,253zm325 36l0 0c-13,-107 -63,-178 -145,-217 7,114 26,216 145,217zm-2674 289l0 0c70,-198 -24,-363 -145,-469 -68,166 7,400 145,469zm-72 253l0 0c-70,-123 -79,-307 -181,-397 -107,172 74,323 181,397zm2710 108l0 0c-139,-137 -123,-430 -362,-469 68,186 221,477 362,469zm217 -144l0 0c-8,-138 -109,-372 -217,-289 96,72 87,250 217,289zm-2783 -72l0 0c29,-68 61,-133 73,-217 -100,7 -195,202 -73,217zm3108 433l0 0c-54,-138 -53,-333 -217,-361 15,178 109,276 217,361zm-3505 -36l0 0c-12,-84 -37,-156 -109,-181 -75,75 1,184 109,181zm3505 434l0 0c-170,-222 -76,-496 -362,-615 117,186 163,632 362,615zm-398 -72l0 0c2,-68 -28,-77 -72,-37 24,-192 -45,-292 -145,-361 36,170 30,379 217,398zm615 361l0 0c-27,-250 -111,-443 -253,-578 49,228 133,420 253,578zm-3903 -325l0 0c6,-90 7,-176 -72,-181 -58,54 -53,206 72,181zm3577 397l0 0c1,-218 -81,-352 -180,-470 30,187 106,328 180,470zm-289 -144l0 0c-55,-89 -104,-185 -180,-253 11,111 117,314 180,253zm687 469l0 0c-128,-185 -173,-453 -362,-578 64,227 112,659 362,578zm-4011 -72l0 0c-5,-115 36,-276 -108,-253 -64,74 1,239 108,253zm3505 108l0 0c-4,-152 -107,-206 -181,-289 -10,167 76,238 181,289zm-3613 253l0 0c-27,-110 62,-106 36,-216 -114,17 -82,-111 -217,-73 18,139 86,228 181,289zm4408 181l0 0c-33,-160 -14,-371 -145,-434 26,167 73,313 145,434zm-542 217l0 0c-18,-200 -118,-508 -289,-434 84,157 152,330 289,434zm542 36l0 0c-138,-163 -171,-431 -397,-506 47,230 263,482 397,506zm-4553 -181l0 0c86,-103 -16,-251 -108,-289 33,153 -23,207 108,289zm-108 289l0 0c-30,-102 51,-93 36,-180 -75,-21 -117,-76 -181,-109 35,110 43,247 145,289zm4264 398l0 0c-16,-226 -94,-389 -217,-506 40,200 58,424 217,506zm469 -217l0 0c-88,-56 -94,-195 -217,-217 36,87 132,300 217,217zm615 253l0 0c-58,-123 -93,-269 -181,-361 12,168 77,283 181,361zm-5710 -36l0 0c42,-54 127,-152 0,-181 -21,22 -84,172 0,181zm4698 -145l0 0c16,153 142,195 108,398 96,0 92,100 145,144 -30,-235 -118,-412 -253,-542zm-5023 940l0 0c77,-200 331,-567 217,-723 -76,214 -235,535 -217,723zm5095 -325l0 0c-11,-121 -37,-228 -108,-289 25,106 10,255 108,289zm1120 0l0 0c-84,-73 -48,-265 -180,-289 33,100 78,376 180,289zm-5926 -73l0 0c112,14 147,-174 36,-180 -30,42 -47,97 -36,180zm5456 470l0 0c-109,-204 -168,-458 -325,-614 51,262 139,488 325,614zm-325 36l0 0c-17,-211 -66,-391 -217,-469 11,217 64,394 217,469zm-5131 -253l0 0c-16,-68 49,-217 -72,-180 -55,52 -35,188 72,180zm4878 253l0 0c-106,-86 -58,-327 -216,-361 13,156 106,422 216,361zm-4986 36l0 0c-22,-74 58,-251 -73,-216 0,117 -75,194 73,216zm253 109l0 0c-18,-138 125,-116 72,-289 -99,0 -141,241 -72,289zm5347 217l0 0c-50,-104 99,-184 0,-217 -140,126 -126,-209 -252,-217 0,36 0,72 0,108 131,62 89,297 252,326zm-108 144l0 0c33,-163 -213,-334 -325,-470 47,212 100,549 325,470zm-5565 -144l0 0c-6,-103 31,-248 -72,-253 -100,69 -91,257 72,253zm5095 -73l0 0c-27,136 44,173 36,289 189,-26 38,-223 -36,-289zm-5131 398l0 0c-85,-100 -3,-234 -180,-289 -69,104 54,266 180,289zm6071 -73l0 0c-68,-40 -77,-140 -145,-180 -8,95 54,303 145,180zm-434 -36l0 0c43,11 137,146 181,36 -76,-22 -136,-185 -181,-36zm-5962 325l0 0c54,19 91,54 145,73 50,-22 5,-139 72,-145 2,38 46,29 36,-36 -131,24 -101,-111 -217,-181 8,117 -64,153 -36,289zm5601 73l0 0c97,25 70,-75 108,-109 -73,-10 -71,-97 -144,-108 -40,140 128,128 36,217z"/>
 </g>
</svg>
