<?xml version="1.0" encoding="UTF-8"?>
<!DOCTYPE svg PUBLIC "-//W3C//DTD SVG 1.1//EN" "http://www.w3.org/Graphics/SVG/1.1/DTD/svg11.dtd">
<!-- Creator: CorelDRAW X8 -->
<svg xmlns="http://www.w3.org/2000/svg" xml:space="preserve" width="8.5in" height="11in" version="1.1" style="shape-rendering:geometricPrecision; text-rendering:geometricPrecision; image-rendering:optimizeQuality; fill-rule:evenodd; clip-rule:evenodd"
viewBox="0 0 8500 11000"
 xmlns:xlink="http://www.w3.org/1999/xlink">
 <defs>
  <style type="text/css">
   <![CDATA[
    .fil0 {fill:#090968}
   ]]>
  </style>
 </defs>
 <g id="Layer_x0020_1">
  <metadata id="CorelCorpID_0Corel-Layer"/>
  <path class="fil0" d="M7621 7315c-93,-895 110,-2014 119,-2905 -1519,-116 -3168,55 -4941,30 -128,1120 -68,1902 -120,3115 -3,103 59,141 90,209 -68,112 -143,226 0,300 -98,58 -237,143 -149,299 -350,419 -1132,643 -1857,419 -94,-175 -178,-361 -329,-479 -37,197 125,194 179,300 -265,7 -317,-475 -299,-749 25,-384 306,-640 599,-689 109,-19 115,65 209,60 400,-214 965,-50 1168,120 116,-1372 207,-3027 180,-4642 60,-37 130,32 150,-89 -27,-117 -111,99 -120,0 -29,-147 25,-229 30,-390 306,-152 856,94 1108,-90 1523,140 3143,-178 4551,150 -94,2104 23,4215 -419,5929 -454,450 -1422,795 -2036,300 -96,42 134,2 60,120 -202,-59 -441,-79 -479,-300 120,49 159,180 329,180 -170,-145 -473,-409 -419,-749 9,-55 285,-477 359,-539 131,-108 367,-114 479,-180 -14,216 -269,190 -359,330 180,4 550,-226 419,-240 234,-215 1216,-39 1498,180zm89 -4941l0 0c74,-4 145,-5 180,30 44,-151 -168,-86 -180,-30zm-119 120l0 0c62,17 96,85 149,30 18,-122 -123,-95 -149,-30zm-4612 299l0 0c68,-203 270,-214 359,-329 -214,-4 -351,227 -359,329zm1587 -120l0 0c152,23 230,-29 270,-119 -153,-23 -230,30 -270,119zm419 0l0 0c111,-8 206,-33 240,-119 -130,-11 -217,22 -240,119zm360 -29l0 0c98,-2 212,12 209,-90 -106,-7 -179,20 -209,90zm389 -60l0 0c-9,79 63,77 120,89 -9,-58 40,-59 60,-89 -39,-41 -142,-41 -180,0zm1527 239l0 0c94,21 281,-15 180,-90 -27,63 -169,11 -180,90zm-4671 359l0 0c-8,-67 101,-324 -30,-389 19,121 -39,319 30,389zm838 240l0 0c-72,12 17,-136 -90,-90 -230,-16 -248,93 -419,0 -89,211 -187,412 -150,749 143,33 111,-109 240,-90 1481,231 3256,-137 4731,30 -20,-260 30,-450 30,-689 -1285,116 -2760,-19 -4342,90zm4492 1408l0 0c-60,-207 118,-471 -30,-569 39,210 -73,480 30,569zm-120 2485l0 0c47,-275 52,-903 0,-1078 24,380 -107,886 0,1078zm-1527 -90l0 0c13,-57 86,-54 60,-149 -108,-1 -148,104 -60,149zm-4103 150l0 0c-150,-30 -264,-95 -419,-120 33,128 310,168 419,120zm-1677 240l0 0c67,-134 234,-167 300,-300 -151,30 -328,191 -300,300zm120 149l0 0c212,-48 433,-245 629,-209 -82,167 -386,113 -479,269 319,-100 618,-220 928,-329 -122,-80 -295,120 -419,30 9,-91 158,-42 180,-120 -174,3 -234,97 -360,0 -18,261 -418,141 -479,359zm4971 -30l0 0c110,-65 281,-325 390,-119 18,-152 80,-124 119,-210 -199,60 -544,133 -509,329zm180 0l0 0c-17,63 -86,97 -30,150 211,-42 528,-286 479,-389 -166,68 -269,365 -449,239zm-3923 90l0 0c170,-10 276,-83 359,-180 -134,90 -326,-33 -359,180zm4462 270l0 0c191,-78 388,-152 509,-300 -157,113 -394,145 -509,300zm359 89l0 0c200,-59 366,-153 479,-299 -173,86 -344,175 -479,299zm-5150 60l0 0c173,-116 433,-146 569,-299 -204,66 -533,166 -569,299zm4551 0l0 0c31,-88 202,-38 210,-149 -112,-11 -300,57 -210,149zm-89 210l0 0c103,-26 166,-93 239,-150 -132,-2 -188,72 -239,150z"/>
 </g>
</svg>
