<?xml version="1.0" encoding="UTF-8"?>
<!DOCTYPE svg PUBLIC "-//W3C//DTD SVG 1.1//EN" "http://www.w3.org/Graphics/SVG/1.1/DTD/svg11.dtd">
<!-- Creator: CorelDRAW X8 -->
<svg xmlns="http://www.w3.org/2000/svg" xml:space="preserve" width="8.5in" height="11in" version="1.1" style="shape-rendering:geometricPrecision; text-rendering:geometricPrecision; image-rendering:optimizeQuality; fill-rule:evenodd; clip-rule:evenodd"
viewBox="0 0 8500 11000"
 xmlns:xlink="http://www.w3.org/1999/xlink">
 <defs>
  <style type="text/css">
   <![CDATA[
    .fil0 {fill:#090968}
   ]]>
  </style>
 </defs>
 <g id="Layer_x0020_1">
  <metadata id="CorelCorpID_0Corel-Layer"/>
  <path class="fil0" d="M3493 339c24,-5 27,11 29,28 50,985 -129,2499 0,3563 -15,106 -93,150 -113,252 709,-374 1538,-476 2328,-785 -40,2672 -20,4822 0,7125 -200,43 -363,122 -588,140 -40,-1076 12,-2135 0,-3366 -725,182 -1433,381 -2160,561 -143,-40 -54,152 -197,112 79,-2203 -143,-4991 56,-7349 155,27 426,-199 645,-281zm-56 646l0 0c-16,-59 35,-185 -28,-197 -18,70 -55,155 28,197zm-280 140l0 0c-24,-126 -65,-235 -140,-309 -34,84 67,241 140,309zm0 280l0 0c-27,-123 -41,-258 -140,-308 26,123 53,245 140,308zm0 253l0 0c-21,-138 -54,-264 -168,-309 42,117 79,238 168,309zm280 56l0 0c-4,-80 24,-193 -56,-197 21,64 -50,219 56,197zm-140 505l0 0c-14,-70 1,-170 -84,-169 14,70 -1,170 84,169zm-393 280l0 0c101,9 76,-284 0,-280 0,93 0,187 0,280zm393 56l0 0c10,-112 0,-205 -84,-224 9,94 29,177 84,224zm-140 56l0 0c-1,-102 16,-221 -56,-252 -13,96 -35,199 56,252zm140 449l0 0c-3,-165 20,-356 -56,-449 -61,128 -18,366 56,449zm-140 -28l0 0c-29,-56 -13,-302 -56,-252 12,90 -37,242 56,252zm-168 196l0 0c2,-95 8,-195 -57,-224 9,85 -31,218 57,224zm308 169l0 0c2,-124 -2,-241 -84,-281 -13,135 20,223 84,281zm-168 392l0 0c0,-116 79,-274 -28,-336 18,103 -37,279 28,336zm168 -140l0 0c1,-85 -25,-143 -84,-168 14,70 -1,169 84,168zm2328 112l0 0c-15,-40 33,-145 -28,-140 -67,19 -86,156 28,140zm-2384 477l0 0c120,-82 55,-441 -28,-505 -14,192 50,306 28,505zm1879 -364l0 0c-10,87 97,199 169,112 -76,-9 -51,-118 -112,-140 -7,21 -24,32 -57,28zm169 364l0 0c-95,11 -44,-124 -169,-84 18,70 125,210 169,84zm-730 56l0 0c-3,-62 -119,-12 -168,-28 7,103 141,148 168,28zm-448 225l0 0c0,-37 49,-26 56,-56 -66,-9 -17,-133 -113,-112 -53,52 -3,145 57,168zm-309 -28l0 0c44,40 55,113 168,84 12,-68 -51,-61 -28,-140 -50,15 -116,14 -140,56zm1711 168l0 0c-19,-86 -19,-54 0,-140 -28,0 -56,0 -84,0 1,74 -26,176 84,140zm-701 0l0 0c87,3 155,-13 196,-56 -50,-47 -172,-7 -196,56zm-1375 617l0 0c-2,489 8,965 56,1403 0,-47 0,-94 0,-141 548,-162 1129,-292 1627,-505 -8,-464 39,-855 -28,-1290 -590,139 -1049,409 -1655,533zm1936 -449l0 0c-14,145 15,247 112,281 -79,-104 83,-284 -56,-337 -3,34 -9,67 -56,56zm-1880 169l0 0c114,0 217,-8 253,-85 -101,12 -235,-10 -253,85zm1964 364l0 0c73,-56 12,-216 -84,-196 8,85 -5,191 84,196zm-2188 449l0 0c102,-81 137,-511 28,-617 -7,235 -14,356 -28,617zm2020 -84l0 0c-9,-85 31,-218 -56,-224 -22,67 -24,186 56,224zm168 224l0 0c-1,-83 3,-171 -84,-168 0,84 -3,171 84,168zm-28 253l0 0c45,-42 41,-160 -56,-140 -4,69 -5,136 56,140zm-2497 112l0 0c-23,-70 55,-242 -56,-224 11,133 -59,184 56,224zm225 224l0 0c-47,-145 44,-269 -56,-336 10,156 -59,258 56,336zm1992 -84l0 0c-81,-12 -88,-99 -197,-84 -39,116 151,146 197,84zm-253 84l0 0c-16,-68 -24,-144 -112,-140 -42,45 13,152 112,140zm-196 57l0 0c7,-92 -34,-135 -113,-141 16,68 24,145 113,141zm-169 27l0 0c-3,-89 -63,-123 -168,-112 4,90 64,124 168,112zm-196 0l0 0c-74,9 -22,-108 -112,-84 -76,45 69,168 112,84zm757 -27l0 0c91,-35 22,90 113,56 0,-38 0,-75 0,-113 -64,-8 -106,7 -113,57zm-925 84l0 0c-66,7 -107,-151 -169,-57 56,27 125,183 169,57zm-169 56l0 0c-68,-16 -59,-109 -168,-84 3,64 123,154 168,84zm870 28l0 0c-10,-65 -18,-132 -112,-112 3,71 41,108 112,112zm-1066 28l0 0c19,-78 -139,-119 -168,-56 58,16 80,69 168,56zm-196 56l0 0c4,-88 -72,-96 -141,-112 -11,99 96,154 141,112zm-730 56l0 0c87,43 87,-183 0,-140 0,47 0,93 0,140zm1487 0l0 0c-1,-92 -80,-107 -168,-112 1,138 57,138 168,112zm-533 -28l0 0c35,77 88,136 196,140 5,-112 -137,-179 -196,-140zm-224 84l0 0c82,30 105,119 224,112 -20,-102 -164,-214 -224,-112zm-449 168l0 0c-1,-74 16,-165 -56,-168 17,58 -45,195 56,168zm393 0l0 0c-22,-90 -78,-146 -169,-168 1,112 70,155 169,168zm1711 982l0 0c44,-44 7,-150 -28,-196 -29,28 -11,153 28,196zm140 505l0 0c-33,351 116,-50 -28,-84 -1,39 13,62 28,84zm140 252l0 0c-20,-63 51,-218 -56,-196 -4,89 -1,169 56,196zm28 421l0 0c-9,-84 31,-218 -56,-224 9,85 -31,218 56,224zm-112 84l0 0c15,-126 -22,-202 -112,-224 25,87 49,176 112,224zm-84 169l0 0c8,104 32,192 112,224 -81,-92 67,-240 -56,-280 -62,40 35,68 -28,84 -2,-17 -4,-33 -28,-28zm-28 448l0 0c108,-24 46,123 168,85 -13,-156 -49,-288 -168,-337 0,84 0,168 0,252zm168 281l0 0c-21,-91 -78,-147 -168,-168 21,90 77,146 168,168zm-280 281l0 0c89,5 121,-47 140,-113 -53,7 -62,-31 -112,-28 9,65 -5,108 -28,141z"/>
 </g>
</svg>
