<?xml version="1.0" encoding="UTF-8"?>
<!DOCTYPE svg PUBLIC "-//W3C//DTD SVG 1.1//EN" "http://www.w3.org/Graphics/SVG/1.1/DTD/svg11.dtd">
<!-- Creator: CorelDRAW X8 -->
<svg xmlns="http://www.w3.org/2000/svg" xml:space="preserve" width="8.5in" height="11in" version="1.1" style="shape-rendering:geometricPrecision; text-rendering:geometricPrecision; image-rendering:optimizeQuality; fill-rule:evenodd; clip-rule:evenodd"
viewBox="0 0 8500 11000"
 xmlns:xlink="http://www.w3.org/1999/xlink">
 <defs>
  <style type="text/css">
   <![CDATA[
    .fil0 {fill:#090968}
   ]]>
  </style>
 </defs>
 <g id="Layer_x0020_1">
  <metadata id="CorelCorpID_0Corel-Layer"/>
  <g id="_105086245264">
   <path class="fil0" d="M2444 10430c-50,-341 285,-674 474,-926 198,-592 645,-935 926,-1445 -218,220 -395,478 -565,745 91,-323 347,-570 542,-835 588,-799 1137,-1680 1626,-2597 3,-56 -12,-94 -45,-113 20,-62 79,40 113,-23 181,-551 514,-1305 519,-2077 2,-365 -196,-747 -407,-1016 -144,-185 -536,-498 -745,-429 11,-42 -472,-161 -406,22 -68,23 -40,-50 -45,-90 -586,122 -1071,344 -1288,835 336,-87 688,99 926,249 329,832 -183,1757 -858,2010 -57,-3 -87,-33 -90,-91 -709,302 -1243,-285 -1739,-542 119,-225 -272,-486 -135,-767 -59,-62 -26,-215 -68,-294 87,-159 163,-431 158,-610 291,-524 768,-1075 1400,-1422 170,-94 446,-163 678,-249 286,-106 567,-238 903,-203 90,10 185,65 293,91 652,151 1401,406 1739,903 47,13 64,56 136,45 426,582 828,1189 835,2190 -61,16 16,-106 -45,-90 -11,1057 -464,1946 -903,2687 -121,204 -222,423 -294,655 -516,628 -1059,1229 -1581,1852 -32,-225 -363,315 -542,338 -359,393 -791,715 -1174,1084 -187,-46 -202,182 -338,113zm564 -497l0 0c1043,-899 2127,-1757 2823,-3003 61,-16 -16,107 45,90 526,-868 1259,-2038 1242,-3409 -9,-660 -210,-1251 -542,-1604 -291,-547 -812,-784 -1332,-1061 -70,-16 -67,39 -136,23 -263,-197 -932,-202 -1310,-136 -35,-10 -19,-71 -90,-45 -80,3 48,75 -23,68 -70,-63 -112,-21 -225,-23 -29,39 -90,45 -113,91 -654,204 -1140,576 -1558,1016 -19,64 31,58 22,113 -191,247 -340,488 -406,790 -27,120 32,220 22,338 -5,63 -48,73 -45,136 9,176 85,273 136,361 171,299 367,628 700,768 370,157 686,128 1038,-45 73,-5 96,40 181,23 85,-51 192,-79 226,-181 -52,6 -85,-6 -90,-45 431,-147 664,-1194 135,-1400 54,-67 -110,-99 23,-136 -78,-102 -326,-82 -407,0 -26,-59 70,-97 -22,-90 -102,-8 -183,89 -249,45 95,-772 919,-1078 1739,-1129 157,99 426,86 610,158 74,175 308,363 474,520 97,371 400,851 361,1309 -5,55 -55,115 -68,181 -33,172 43,480 -180,519 -147,491 -297,846 -407,1355 -47,20 -100,35 -135,68 -92,476 -416,783 -633,1106 -197,296 -307,650 -496,949 -131,206 -290,401 -429,609 -438,655 -897,1242 -1242,1897 160,-111 340,-322 474,-384 -3,88 -92,89 -113,158zm1084 -6955l0 0c-18,-87 -63,-147 -113,-203 8,97 47,164 113,203zm2077 587l0 0c-12,-115 35,-290 -45,-338 26,132 -22,257 45,338zm-2980 1107l0 0c61,-14 105,-45 135,-90 -71,4 -134,15 -135,90zm1851 1694l0 0c77,-150 154,-298 226,-452 -99,111 -221,320 -226,452z"/>
   <path class="fil0" d="M3392 9437c-113,-50 112,-121 68,-249 122,-73 170,-220 316,-271 60,-280 282,-620 474,-881 120,-162 174,-204 294,-383 140,-210 265,-440 451,-633 -22,-30 -76,-29 -90,-67 15,-68 48,21 90,0 469,-547 706,-1327 1016,-2033 -3,-64 -41,-94 -45,-158 62,-16 46,45 91,45 353,-919 381,-2091 -159,-2777 -385,-491 -1051,-862 -1874,-632 -236,162 -593,205 -813,384 -173,346 -490,548 -497,1061 500,-234 928,206 791,813 -70,307 -422,450 -610,632 -530,41 -764,-215 -1039,-429 -203,-276 -306,-748 -135,-1197 50,-131 196,-298 293,-452 323,-507 867,-967 1468,-1106 13,50 -43,32 -45,68 807,-365 2137,-207 2529,429 52,21 73,1 158,22 738,627 975,2190 565,3343 -134,376 -203,726 -474,903 -94,275 -235,503 -339,768 -47,49 -73,-20 -113,22 -306,613 -819,1017 -1174,1581 -27,3 -40,-5 -45,-23 15,29 -215,240 -317,361 -251,301 -543,596 -835,859zm-249 -5668l0 0c24,-30 23,-84 46,-113 -219,-113 -392,-391 -587,-452 193,176 353,384 541,565zm-948 -791l0 0c241,234 523,546 790,678 -240,-268 -557,-556 -790,-678zm1490 -1761l0 0c133,-17 317,15 384,-68 -176,9 -305,-54 -384,68zm1107 0l0 0c-159,-37 -414,-98 -565,-68 176,20 430,82 565,68zm-1332 271l0 0c-6,-77 -57,-109 -45,-203 -31,0 -61,0 -91,0 -29,142 81,144 136,203zm316 -203l0 0c-108,7 -180,2 -226,22 47,38 237,146 226,-22zm-226 180l0 0c58,-58 -19,-95 -68,-113 -4,65 -3,124 68,113zm-452 -67l0 0c24,104 111,145 181,203 29,-127 -97,-99 -68,-226 -52,-7 -86,4 -113,23zm294 158l0 0c7,-60 -47,-59 -90,-68 -23,75 31,74 90,68zm-474 -23l0 0c-33,94 122,173 180,249 36,-71 -70,-163 -67,-271 -53,-8 -87,3 -113,22zm203 158l0 0c52,7 87,-3 113,-22 -7,-76 -76,-90 -136,-113 -16,69 23,82 23,135zm2800 -45l0 0c-43,-12 -104,-119 -135,-68 30,24 80,143 135,68zm-3207 45l0 0c120,31 123,179 249,203 -62,-110 -81,-265 -226,-293 5,43 -25,50 -23,90zm3501 136l0 0c-69,-15 -141,-240 -181,-136 91,0 101,199 181,136zm-3410 180l0 0c-65,-101 -80,-251 -181,-316 -104,120 114,226 181,316zm248 -203l0 0c-33,-12 -57,-33 -90,-45 -28,89 79,121 90,45zm3297 519l0 0c-137,-201 -310,-367 -474,-541 113,225 289,388 474,541zm-3906 -406l0 0c94,94 194,302 316,293 -101,-118 -113,-323 -271,-383 -1,45 -62,28 -45,90zm451 113l0 0c49,-92 -29,-157 -113,-181 17,81 58,138 113,181zm3726 542l0 0c-90,-264 -205,-503 -384,-678 137,217 211,497 384,678zm-3997 -158l0 0c30,-29 44,-68 90,-23 -18,-64 32,-58 23,-113 -75,-22 -105,-90 -181,-112 -5,88 82,83 68,180 -131,-80 -125,-296 -271,-361 -82,152 165,319 271,429zm181 -248l0 0c51,-61 -46,-163 -91,-113 52,16 7,128 91,113zm-610 -23l0 0c81,198 230,327 384,451 -16,-75 47,-36 68,-22 16,-96 -92,-137 -113,-68 -81,-145 -193,-259 -294,-384 -5,18 -19,27 -45,23zm-181 361l0 0c157,17 241,301 407,384 -90,-181 -232,-310 -316,-497 22,0 27,-18 45,-22 52,0 121,175 135,67 -76,-36 -52,-173 -180,-158 -9,82 -129,172 -91,226zm4562 271l0 0c-42,-101 -98,-308 -203,-271 88,70 110,206 203,271zm-3974 23l0 0c-2,-40 5,-71 22,-91 -120,-52 -170,-175 -316,-203 93,103 201,190 294,294zm-181 225l0 0c-141,-145 -241,-330 -407,-451 -32,219 289,384 407,451zm4290 158l0 0c-66,-219 -192,-379 -316,-541 62,224 169,403 316,541zm-4087 -180l0 0c-31,-173 -180,-226 -271,-339 47,156 156,251 271,339zm4087 22l0 0c-5,-129 1,-271 -90,-316 46,90 32,239 90,316zm-4832 -135l0 0c212,97 290,327 497,429 -89,-212 -379,-318 -384,-542 -23,0 -45,0 -68,0 19,72 -35,70 -45,113zm948 45l0 0c98,15 140,-26 181,-68 -70,13 -172,-6 -181,68zm-925 45l0 0c152,254 392,421 609,610 -171,-235 -414,-399 -609,-610zm1106 452l0 0c-54,-144 -302,-206 -248,-384 -213,95 168,290 248,384zm113 -226l0 0c190,-15 -18,-199 -90,-135 51,24 82,68 90,135zm3681 226l0 0c10,-71 -28,-92 -68,-113 3,58 4,116 68,113zm-271 -384l0 0c-79,-9 -115,139 -68,181 160,-17 191,291 339,361 -58,-213 -202,-340 -271,-542zm-4133 587l0 0c-205,-171 -366,-386 -564,-564 16,69 -23,82 -23,135 58,69 109,-1 136,23 22,159 297,379 451,406zm791 -226l0 0c-10,-72 -49,-116 -113,-135 -5,87 62,103 113,135zm158 23l0 0c0,-76 -31,-120 -68,-158 -11,86 10,141 68,158zm3297 203l0 0c60,-58 -102,-271 -181,-339 17,157 131,216 181,339zm135 271l0 0c-103,-122 -263,-468 -361,-406 137,119 186,325 361,406zm-3387 -271l0 0c22,-82 -98,-23 -113,-68 -10,71 48,73 113,68zm3410 113l0 0c51,-60 -46,-162 -91,-113 43,26 48,88 91,113zm-4471 90l0 0c-100,-43 -191,-215 -294,-180 83,60 152,254 294,180zm4335 158l0 0c-19,-184 -136,-270 -248,-361 23,180 141,266 248,361zm-4110 -180l0 0c-8,-75 -67,-98 -112,-136 -18,101 74,91 112,136zm-112 22l0 0c-11,-73 -143,-142 -181,-113 84,14 92,104 181,113zm654 46l0 0c-22,-61 -135,-150 -180,-113 58,40 98,97 180,113zm3297 -23l0 0c43,3 -73,241 0,203 -3,-56 12,-94 45,-113 39,97 74,198 159,249 -33,-86 61,-44 45,-113 -32,-48 -79,-124 -113,-45 46,-74 -81,-177 -136,-181zm-3635 135l0 0c3,-26 35,-24 67,-22 26,-81 -105,-118 -113,-90 71,29 -49,107 46,112zm-136 91l0 0c-44,-67 -209,-235 -271,-136 84,27 287,158 271,136zm339 -68l0 0c-43,-10 -57,-49 -113,-45 0,81 79,112 113,45zm3613 316l0 0c9,-107 -47,-149 -113,-180 29,69 34,161 113,180zm-271 0l0 0c82,69 89,212 203,249 56,-222 -78,-283 -181,-407 19,79 -33,87 -22,158zm-68 203l0 0c-20,156 117,275 158,294 -64,-86 -45,-256 -158,-294zm203 249l0 0c18,-50 48,-88 46,-158 -71,-36 -119,-93 -181,-136 23,120 66,220 135,294zm68 113l0 0c-2,-76 105,-185 23,-203 20,82 -98,140 -23,203zm-158 203l0 0c-77,-111 105,-148 0,-203 -50,32 28,55 -23,68 -77,-36 -50,-176 -135,-204 -99,127 47,285 158,339zm-113 294l0 0c16,-84 -38,-97 -22,-181 52,-7 25,65 67,68 -16,-69 39,-67 23,-136 -91,16 -56,-95 -136,-90 -17,57 89,104 23,135 -56,-49 -41,-170 -113,-203 -105,168 54,314 158,407zm158 -271l0 0c63,15 96,-113 45,-136 -18,42 -37,83 -45,136zm-316 429l0 0c70,-16 44,-16 113,0 45,-96 -75,-227 -135,-204 21,19 75,117 22,136 -52,-46 -23,-173 -113,-181 4,117 95,146 113,249zm0 271l0 0c-31,-92 49,-72 45,-136 0,-45 -61,-29 -45,-90 -129,82 -58,-146 -181,-136 -50,155 87,280 181,362zm-113 203l0 0c-37,-136 -55,-291 -158,-361 -55,175 45,253 158,361zm68 -68l0 0c45,-57 -13,-155 -91,-158 11,72 29,138 91,158zm-226 203l0 0c84,24 64,-56 135,-45 -15,-69 -99,-175 -135,-90 -13,-55 -19,-116 -90,-113 -62,96 86,146 90,248zm-181 -45l0 0c-21,115 188,84 113,181 40,2 71,-5 91,-23 17,-69 -62,-43 -45,-113 -45,-6 -45,31 -68,46 -1,-68 2,-138 -68,-136 -5,18 -1,45 -23,45zm46 316l0 0c87,18 87,-108 0,-90 0,30 0,60 0,90zm0 -135l0 0c-45,-1 -29,-62 -91,-45 -62,96 38,194 91,248 -11,-81 -37,-130 0,-203zm-226 248l0 0c57,18 38,112 113,113 133,-68 67,-201 -91,-203 5,43 -25,50 -22,90zm-136 271l0 0c29,39 47,89 113,90 20,-71 86,-95 91,-180 -47,-7 -45,-61 -91,-68 -47,43 -100,80 -113,158zm-113 226l0 0c66,151 260,-66 113,-113 4,95 -50,15 -67,0 -10,43 -49,57 -46,113zm-22 248l0 0c0,-45 0,-90 0,-135 -23,0 -45,0 -68,0 -49,51 -8,141 68,135zm-407 452l0 0c66,-10 103,-48 113,-113 -77,-1 -84,67 -113,113z"/>
  </g>
 </g>
</svg>
