<?xml version="1.0" encoding="UTF-8"?>
<!DOCTYPE svg PUBLIC "-//W3C//DTD SVG 1.1//EN" "http://www.w3.org/Graphics/SVG/1.1/DTD/svg11.dtd">
<!-- Creator: CorelDRAW X8 -->
<svg xmlns="http://www.w3.org/2000/svg" xml:space="preserve" width="8.5in" height="11in" version="1.1" style="shape-rendering:geometricPrecision; text-rendering:geometricPrecision; image-rendering:optimizeQuality; fill-rule:evenodd; clip-rule:evenodd"
viewBox="0 0 8500 11000"
 xmlns:xlink="http://www.w3.org/1999/xlink">
 <defs>
  <style type="text/css">
   <![CDATA[
    .fil0 {fill:#090968}
   ]]>
  </style>
 </defs>
 <g id="Layer_x0020_1">
  <metadata id="CorelCorpID_0Corel-Layer"/>
  <path class="fil0" d="M7692 4958c-103,-38 -152,-38 -256,0 209,-1355 -1741,-1401 -2632,-2011 -147,701 -304,1947 -219,2815 -289,1028 -115,2518 -330,3620 -108,-135 36,-523 -73,-658 -66,525 -48,1103 -512,1463 -270,210 -538,191 -987,329 -237,73 -443,275 -877,183 95,-230 442,11 621,-110 -332,-82 -812,-17 -1060,-183 -98,88 180,110 183,220 -232,24 -272,-144 -439,-183 -128,-546 -905,-526 -732,-1317 26,-114 370,-718 512,-841 658,-564 2280,-506 2999,110 187,-2071 330,-4415 511,-6472 53,-588 -105,-1312 257,-1645 358,177 474,598 731,877 230,160 543,237 658,512 530,32 845,662 1389,695 -6,227 145,168 329,329 -15,194 135,323 293,439 5,320 168,775 37,1206 -84,276 -359,392 -403,622zm-1974 -2742l0 0c-273,-253 -532,-393 -878,-622 9,573 468,860 841,1060 730,391 1623,712 2048,1353 -28,-606 -427,-840 -658,-1243 -537,104 -914,-447 -1316,-475 42,54 151,43 146,146 -100,-59 -260,-57 -256,-219 41,-4 57,53 73,0zm548 -147l0 0c18,-94 -129,-207 -182,-109 64,32 106,88 182,109zm-1060 549l0 0c-92,-139 -218,-246 -439,-256 42,190 355,108 439,256zm2413 292l0 0c-75,-155 -189,-274 -365,-329 59,172 199,264 365,329zm-183 1207l0 0c-118,-211 -199,-459 -438,-548 124,205 278,379 438,548zm-3071 1060l0 0c111,-13 110,-326 73,-365 -79,66 7,299 -73,365zm0 74l0 0c-71,514 162,142 0,0zm-3401 3217l0 0c171,-39 289,96 403,0 14,-333 -313,-89 -403,0zm2889 110l0 0c-56,-140 -278,-306 -402,-256 149,70 185,253 402,256zm-841 -37l0 0c96,-50 274,-19 293,-146 -137,9 -235,57 -293,146zm-1572 110l0 0c94,-18 303,-108 219,-183 -53,81 -196,73 -219,183zm841 293l0 0c224,-142 513,-219 695,-403 -285,81 -494,238 -695,403zm-695 -74l0 0c76,-35 308,-104 220,-182 -51,83 -183,85 -220,182zm402 512l0 0c239,-224 610,-317 841,-548 -288,151 -767,305 -841,548zm768 -365l0 0c-123,246 -640,281 -658,512 341,-220 698,-424 1060,-622 -145,-68 -202,127 -402,110zm-621 767l0 0c378,-279 880,-436 1206,-767 -417,216 -987,475 -1206,767zm292 74l0 0c357,-167 695,-354 951,-622 -368,157 -651,397 -951,622z"/>
 </g>
</svg>
