<?xml version="1.0" encoding="UTF-8"?>
<!DOCTYPE svg PUBLIC "-//W3C//DTD SVG 1.1//EN" "http://www.w3.org/Graphics/SVG/1.1/DTD/svg11.dtd">
<!-- Creator: CorelDRAW X8 -->
<svg xmlns="http://www.w3.org/2000/svg" xml:space="preserve" width="8.5in" height="11in" version="1.1" style="shape-rendering:geometricPrecision; text-rendering:geometricPrecision; image-rendering:optimizeQuality; fill-rule:evenodd; clip-rule:evenodd"
viewBox="0 0 8500 11000"
 xmlns:xlink="http://www.w3.org/1999/xlink">
 <defs>
  <style type="text/css">
   <![CDATA[
    .fil0 {fill:#090968}
   ]]>
  </style>
 </defs>
 <g id="Layer_x0020_1">
  <metadata id="CorelCorpID_0Corel-Layer"/>
  <g id="_68809789312">
   <path class="fil0" d="M2425 4480c-4,321 -8,648 -5,960 61,-15 147,-66 240,-42 44,12 94,67 125,100 24,25 42,152 36,213 -25,266 -260,550 -406,710 -9,20 2,32 -6,47 -35,-42 -48,63 -94,42 -20,-62 -10,-142 -10,-225 0,-137 3,-283 5,-417 4,-20 -15,-16 -15,-31 -8,-20 23,-1 15,-21 2,-449 19,-914 16,-1330 33,9 59,-23 99,-6zm-21 564l0 0c6,-38 -13,-50 -31,-63 -7,30 -3,56 21,68 2,-15 -22,-30 -11,-37 8,10 15,21 21,32zm-16 -418l0 0c0,-13 3,-30 -10,-31 0,14 -3,31 10,31zm-26 16l0 0c0,-14 3,-31 -10,-31 3,10 -8,36 10,31zm21 42l0 0c7,-7 10,-37 -5,-37 3,11 -6,35 5,37zm-21 73l0 0c0,-19 4,-42 -15,-42 1,18 5,33 15,42zm21 88l0 0c0,-13 3,-30 -10,-31 0,14 -3,31 10,31zm21 79l0 0c-3,-8 6,-27 -5,-26 -17,18 -9,-33 -26,-32 -12,23 18,43 31,58zm-10 47l0 0c-6,-21 -6,-47 -26,-52 -4,29 7,44 26,52zm-11 125l0 0c-1,-10 7,-10 11,-16 -30,-1 -19,-44 -42,-52 0,33 20,46 31,68zm-5 62l0 0c-6,-21 -8,-47 -26,-57 7,21 10,45 26,57zm-10 42l0 0c-5,-13 1,-36 -16,-36 0,17 -2,37 16,36zm-37 16l0 0c16,8 16,-34 0,-26 0,8 0,17 0,26zm52 73l0 0c-1,-12 1,-20 5,-26 -6,0 -7,-7 -15,-5 -9,8 3,23 10,31zm-10 62l0 0c16,7 16,-43 0,-36 0,12 0,24 0,36zm10 110l0 0c0,-13 -1,-27 -15,-26 -3,16 6,21 15,26zm0 47l0 0c-2,-16 -3,-32 -15,-37 0,18 -3,37 15,37zm277 -5l0 0c0,-17 -23,-36 -32,-26 16,4 10,28 32,26zm-5 57l0 0c0,-24 -20,-29 -32,-42 12,13 3,46 32,42zm-178 16l0 0c-7,13 21,16 5,21 -34,-8 -41,10 -62,15 7,152 -23,303 10,480 -25,32 0,86 -5,131 40,-15 46,-64 68,-94 35,-51 77,-97 104,-152 3,-22 2,-17 5,-36 35,-33 44,-92 58,-146 0,-7 -9,-5 -11,-11 32,-69 10,-207 -73,-193 -2,-16 26,-1 21,-20 -8,-11 -17,-21 -36,-21 -17,2 -16,22 -32,26 8,-48 -34,-13 -52,0zm271 36l0 0c-4,-25 -30,-57 -47,-52 11,23 22,45 47,52zm-31 52l0 0c-9,-31 -28,-54 -36,-73 -5,25 12,62 36,73zm-334 -10l0 0c3,-18 -4,-27 -15,-31 -5,20 8,22 15,31zm21 10l0 0c-3,-10 7,-34 -5,-36 -7,7 -10,36 5,36zm339 100l0 0c27,2 15,-40 -5,-37 2,12 8,20 5,37zm-360 5l0 0c-13,-4 -5,-30 -21,-31 -5,19 10,45 21,31zm21 15l0 0c-8,-18 10,-33 -16,-36 9,9 -3,38 16,36zm-42 79l0 0c28,0 9,-29 0,-37 -11,11 5,18 0,37zm355 26l0 0c20,4 6,-25 26,-21 -6,7 -5,13 5,16 -1,-10 6,-12 6,-21 -30,2 -1,-24 -16,-32 -7,25 -14,28 -21,58zm-344 26l0 0c3,-19 -5,-27 -16,-31 -9,9 7,24 16,31zm339 10l0 0c10,-9 11,-20 0,-31 -4,4 -12,29 0,31zm-57 6l0 0c-9,7 -8,29 10,26 -6,-24 25,-47 0,-58 -2,14 6,48 -10,32zm36 26l0 0c15,-5 14,7 26,5 1,-13 -12,-13 -16,-21 -1,7 -8,9 -10,16zm-360 36l0 0c-3,-12 7,-38 -5,-42 -7,8 -11,42 5,42zm370 0l0 0c0,-7 3,-11 6,-16 -13,3 -12,-9 -26,-5 -4,18 8,19 20,21zm-349 21l0 0c12,-25 -1,21 16,21 1,-22 1,-44 -16,-47 -3,3 -12,25 0,26zm318 -10l0 0c-1,11 4,16 16,15 6,-23 -16,-19 -26,-26 -2,15 1,18 10,11zm-339 41l0 0c-3,-10 8,-36 -10,-31 3,11 -9,36 10,31zm292 11l0 0c1,-15 -1,-27 -10,-32 -11,14 -13,30 10,32zm-261 26l0 0c5,-6 7,-14 6,-26 -6,0 -11,0 -16,0 -1,13 3,21 10,26zm214 5l0 0c14,-4 11,10 21,10 2,-9 11,-13 11,-26 -11,-15 -35,-10 -32,16zm63 -5l0 0c14,-1 25,-12 16,-21 -14,-2 -14,11 -16,21zm-68 52l0 0c8,-4 11,-13 10,-26 -6,-4 -14,-7 -26,-5 0,16 -3,34 16,31zm-36 16l0 0c-1,13 8,16 15,20 2,-9 11,-13 11,-26 -15,-4 -14,8 -26,6zm-27 47l0 0c7,6 20,6 27,0 5,-31 -29,-22 -27,0zm37 20l0 0c14,0 25,-11 16,-20 -14,-2 -18,7 -16,20zm-52 21l0 0c13,4 22,-22 10,-26 -6,7 -15,10 -10,26zm31 16l0 0c4,0 7,0 11,0 -1,-14 8,-11 0,-21 -4,0 -7,0 -11,0 -9,10 1,7 0,21zm-36 -5l0 0c-16,4 -16,-9 -32,-5 2,23 30,35 32,5zm-126 62l0 0c0,-24 3,-51 -21,-52 7,18 -1,50 21,52zm141 -15l0 0c3,-13 33,-30 11,-37 -11,6 -35,28 -11,37zm-47 5l0 0c11,-11 2,-29 -10,-31 -14,10 -12,30 10,31zm-36 5l0 0c-2,14 7,17 21,16 -1,-14 -12,-25 -21,-16zm5 37l0 0c1,-13 -8,-17 -16,-21 -4,26 -3,37 16,21z"/>
   <path class="fil0" d="M3872 4605c7,0 13,0 19,0 2,10 -6,11 -6,19 44,49 56,129 82,195 7,17 25,21 32,38 5,18 -9,16 -7,32 4,14 16,21 25,31 27,133 75,245 133,347 -7,32 6,71 31,88 0,113 78,200 101,309 14,7 5,38 32,32 -16,67 37,111 69,151 -24,5 -19,-18 -38,-19 26,61 55,118 101,158 -28,4 -26,-21 -44,-25 35,83 34,170 114,214 -21,27 3,122 44,158 1,17 -16,18 -32,19 -4,16 13,12 19,18 -22,20 -37,-20 -57,-25 -80,10 -136,-8 -170,25 -16,-19 -40,-28 -69,-18 -140,-397 -290,-783 -435,-1173 -96,255 -208,550 -309,826 -32,86 -52,206 -101,252 -8,42 -27,77 -19,101 -52,28 -99,-12 -145,25 -7,-8 -6,-23 -19,-25 205,-543 402,-1088 605,-1646 -4,-25 -41,-44 -25,-69 27,-6 11,31 32,31 18,-17 27,-44 37,-69zm618 1683l0 0c-11,-30 -35,-49 -56,-69 13,33 19,73 50,88 8,-15 -18,-26 0,-31 2,5 0,12 6,12zm-630 -1500l0 0c18,-9 0,-33 -13,-32 3,12 -8,38 13,32zm25 157l0 0c-3,-31 -19,-48 -38,-63 7,27 15,52 38,63zm-113 26l0 0c-5,-28 37,-69 6,-82 4,30 -37,64 -6,82zm208 6l0 0c-5,-29 -22,-46 -38,-63 2,31 23,44 38,63zm-259 120l0 0c6,-28 39,-52 13,-76 3,27 -41,66 -13,76zm158 -13l0 0c13,-23 -13,-52 -32,-63 7,25 15,49 32,63zm126 19l0 0c-18,-22 -27,-53 -51,-69 7,29 28,77 51,69zm-76 -6l0 0c-5,-23 -16,-39 -31,-51 1,26 15,39 31,51zm32 6l0 0c-5,-18 -10,-36 -26,-44 5,18 10,36 26,44zm113 63l0 0c-11,-42 -26,-79 -57,-101 5,48 29,76 57,101zm-132 0l0 0c0,-32 -13,-51 -32,-63 4,28 17,46 32,63zm-32 19l0 0c-9,-33 -27,-57 -50,-76 11,31 10,74 50,76zm-202 -13l0 0c0,-16 0,-33 0,-50 -26,7 -31,49 0,50zm51 0l0 0c-2,-11 20,-34 -6,-31 -2,15 -14,27 6,31zm-51 32l0 0c20,4 27,-36 13,-44 -7,12 -8,29 -13,44zm347 38l0 0c-1,-33 -22,-46 -38,-63 12,22 19,48 38,63zm-334 0l0 0c22,-3 21,-30 25,-51 -19,6 -21,30 -25,51zm-44 31l0 0c6,-7 5,-47 -19,-44 2,19 4,38 19,44zm296 13l0 0c-5,-16 -6,-36 -19,-44 6,15 -1,43 19,44zm-19 38l0 0c8,-14 -7,-49 -25,-57 2,26 14,41 25,57zm-283 12l0 0c-4,-25 -13,-46 -26,-63 -13,21 -2,63 26,63zm328 32l0 0c-4,-26 -7,-53 -32,-57 11,18 10,49 32,57zm-366 19l0 0c-15,-2 -14,-20 -25,-26 -14,35 4,59 25,76 4,-23 31,-96 -13,-113 -5,26 36,40 13,63zm466 6l0 0c-4,-30 -15,-52 -31,-69 7,26 13,54 31,69zm-75 50l0 0c4,-27 -12,-34 -25,-44 -3,26 14,32 25,44zm57 7l0 0c-3,-19 -11,-31 -26,-38 1,20 5,38 26,38zm-467 50l0 0c12,-34 -4,-63 -25,-82 -12,29 1,70 25,82zm-13 44l0 0c-12,-21 -13,-53 -31,-69 -19,30 13,56 31,69zm473 19l0 0c-24,-24 -21,-75 -63,-82 12,33 39,84 63,82zm38 -25l0 0c-1,-24 -19,-65 -38,-50 17,12 15,43 38,50zm-486 -13l0 0c6,-11 11,-23 13,-37 -17,1 -34,35 -13,37zm543 76l0 0c-10,-24 -9,-58 -38,-63 3,31 19,48 38,63zm-612 -6l0 0c-2,-15 -6,-27 -19,-32 -13,13 0,32 19,32zm612 75l0 0c-30,-38 -13,-86 -63,-107 20,33 28,110 63,107zm-70 -12l0 0c1,-12 -4,-13 -12,-6 4,-34 -8,-51 -25,-63 6,29 5,66 37,69zm108 63l0 0c-5,-44 -20,-77 -45,-101 9,40 24,73 45,101zm-681 -57l0 0c1,-15 1,-30 -13,-31 -10,9 -9,36 13,31zm624 70l0 0c0,-38 -14,-62 -32,-82 6,32 19,57 32,82zm-51 -26l0 0c-9,-15 -18,-32 -31,-44 2,20 20,55 31,44zm120 82l0 0c-22,-32 -30,-79 -63,-101 11,40 20,115 63,101zm-700 -12l0 0c-1,-20 6,-49 -19,-44 -11,12 1,41 19,44zm612 19l0 0c-1,-27 -19,-36 -32,-51 -1,29 14,42 32,51zm-631 44l0 0c-4,-20 11,-19 7,-38 -20,3 -15,-19 -38,-13 3,24 15,40 31,51zm770 31l0 0c-6,-28 -3,-64 -26,-75 5,29 13,54 26,75zm-95 38l0 0c-3,-35 -20,-88 -50,-76 14,28 26,58 50,76zm95 6l0 0c-24,-28 -30,-75 -70,-88 9,40 46,84 70,88zm-795 -31l0 0c15,-18 -3,-44 -19,-51 6,27 -4,36 19,51zm-19 50l0 0c-5,-18 9,-16 7,-31 -14,-4 -21,-13 -32,-19 6,19 7,43 25,50zm744 70l0 0c-2,-40 -16,-68 -38,-89 8,35 11,74 38,89zm82 -38l0 0c-15,-10 -16,-34 -38,-38 7,15 23,52 38,38zm108 44l0 0c-11,-21 -17,-47 -32,-63 2,29 14,49 32,63zm-997 -6l0 0c7,-10 22,-27 0,-32 -3,4 -15,30 0,32zm820 -26l0 0c3,27 25,34 19,70 17,0 16,17 25,25 -5,-41 -20,-72 -44,-95zm-877 164l0 0c14,-35 58,-99 38,-126 -13,38 -41,94 -38,126zm890 -56l0 0c-2,-21 -7,-40 -19,-51 4,19 1,45 19,51zm195 0l0 0c-15,-13 -8,-47 -31,-51 5,18 13,66 31,51zm-1034 -13l0 0c19,2 26,-30 6,-31 -5,7 -8,16 -6,31zm952 82l0 0c-19,-36 -29,-80 -57,-107 9,46 24,85 57,107zm-57 6l0 0c-3,-37 -11,-68 -38,-82 2,38 12,69 38,82zm-895 -44l0 0c-3,-12 8,-38 -13,-31 -9,9 -6,33 13,31zm851 44l0 0c-18,-15 -10,-57 -38,-63 3,27 19,74 38,63zm-870 7l0 0c-4,-13 10,-44 -13,-38 0,20 -13,34 13,38zm44 19l0 0c-3,-25 22,-21 13,-51 -18,0 -25,42 -13,51zm933 37l0 0c-8,-18 18,-32 0,-37 -24,22 -22,-37 -44,-38 0,6 0,12 0,19 23,10 16,51 44,56zm-19 26l0 0c6,-29 -37,-59 -56,-82 8,37 17,95 56,82zm-971 -26l0 0c-1,-17 6,-43 -12,-44 -18,12 -16,45 12,44zm889 -12l0 0c-4,24 8,30 7,50 33,-4 6,-39 -7,-50zm-895 69l0 0c-15,-17 -1,-41 -32,-50 -12,18 10,46 32,50zm1059 -12l0 0c-11,-8 -13,-25 -25,-32 -1,17 10,53 25,32zm-75 -7l0 0c7,2 24,26 31,7 -13,-4 -23,-33 -31,-7zm-1041 57l0 0c10,3 16,9 25,13 9,-4 1,-25 13,-26 0,7 8,5 6,-6 -23,4 -17,-19 -37,-31 1,20 -12,26 -7,50zm978 13l0 0c17,4 12,-13 19,-19 -13,-2 -13,-17 -26,-19 -7,24 23,22 7,38z"/>
   <path class="fil0" d="M5486 4605c4,-1 5,2 5,5 9,183 -24,465 0,663 -3,20 -17,28 -21,47 132,-70 286,-89 433,-146 -7,497 -4,896 0,1325 -37,8 -67,23 -109,26 -8,-200 2,-397 0,-626 -135,34 -267,71 -402,104 -27,-7 -10,28 -37,21 15,-410 -26,-928 11,-1367 29,5 79,-37 120,-52zm-11 120l0 0c-3,-11 7,-34 -5,-37 -3,14 -10,29 5,37zm-52 26l0 0c-4,-23 -12,-44 -26,-57 -6,15 13,45 26,57zm0 52l0 0c-5,-23 -7,-48 -26,-57 5,23 10,46 26,57zm0 47l0 0c-4,-26 -10,-49 -31,-57 8,22 15,44 31,57zm52 11l0 0c-1,-15 5,-36 -10,-37 4,12 -10,41 10,37zm-26 94l0 0c-2,-13 0,-32 -15,-32 2,13 -1,32 15,32zm-73 52l0 0c19,1 14,-53 0,-52 0,17 0,34 0,52zm73 10l0 0c2,-21 0,-38 -15,-42 1,18 5,33 15,42zm-26 11l0 0c0,-19 3,-42 -10,-47 -3,18 -7,37 10,47zm26 83l0 0c0,-31 4,-66 -10,-83 -11,23 -4,68 10,83zm-26 -5l0 0c-5,-11 -2,-56 -10,-47 2,17 -7,45 10,47zm-31 36l0 0c0,-17 1,-36 -11,-41 2,15 -5,40 11,41zm57 32l0 0c1,-23 0,-45 -15,-53 -3,25 3,42 15,53zm-31 73l0 0c0,-22 15,-51 -5,-63 3,19 -7,52 5,63zm31 -26l0 0c0,-16 -5,-27 -15,-32 2,13 -1,32 15,32zm433 20l0 0c-3,-7 6,-27 -5,-26 -12,4 -16,29 5,26zm-443 89l0 0c22,-15 10,-82 -5,-94 -3,36 9,57 5,94zm349 -68l0 0c-2,16 18,37 32,21 -14,-1 -10,-22 -21,-26 -1,4 -5,6 -11,5zm32 68l0 0c-18,2 -9,-23 -32,-16 4,13 23,39 32,16zm-136 11l0 0c-1,-12 -22,-3 -31,-6 1,19 26,28 31,6zm-83 41l0 0c0,-7 9,-4 10,-10 -12,-2 -3,-25 -21,-21 -10,10 -1,27 11,31zm-58 -5l0 0c8,8 10,21 31,16 3,-13 -9,-12 -5,-26 -9,3 -21,2 -26,10zm318 31l0 0c-3,-16 -3,-10 0,-26 -5,0 -10,0 -15,0 0,14 -5,33 15,26zm-130 0l0 0c16,1 29,-2 36,-10 -9,-9 -32,-1 -36,10zm-256 115l0 0c0,91 2,180 11,261 0,-9 0,-17 0,-26 102,-30 210,-54 302,-94 -1,-86 7,-159 -5,-240 -110,26 -195,76 -308,99zm360 -83l0 0c-2,27 3,45 21,52 -15,-20 16,-53 -10,-63 -1,7 -2,13 -11,11zm-349 31l0 0c21,0 40,-2 47,-16 -19,2 -44,-2 -47,16zm365 68l0 0c13,-11 2,-40 -16,-37 2,16 -1,36 16,37zm-407 83l0 0c19,-15 25,-95 5,-115 -1,44 -2,67 -5,115zm376 -15l0 0c-2,-16 5,-41 -11,-42 -4,12 -4,35 11,42zm31 41l0 0c0,-15 0,-31 -16,-31 0,16 0,32 16,31zm-5 47l0 0c8,-8 7,-29 -11,-26 0,13 -1,26 11,26zm-465 21l0 0c-4,-13 11,-45 -10,-42 2,25 -11,35 10,42zm42 42l0 0c-9,-27 8,-50 -10,-63 2,29 -11,48 10,63zm371 -16l0 0c-15,-2 -17,-18 -37,-15 -7,21 28,27 37,15zm-47 16l0 0c-3,-13 -5,-27 -21,-26 -8,8 2,28 21,26zm-37 10l0 0c1,-17 -6,-25 -21,-26 3,13 5,27 21,26zm-31 6l0 0c-1,-17 -12,-23 -32,-21 1,16 12,23 32,21zm-37 0l0 0c-13,1 -4,-21 -21,-16 -14,8 13,31 21,16zm141 -6l0 0c17,-6 4,17 21,11 0,-7 0,-14 0,-21 -12,-2 -20,1 -21,10zm-172 16l0 0c-12,1 -20,-28 -31,-10 10,5 23,34 31,10zm-31 10l0 0c-13,-3 -11,-20 -32,-15 1,12 23,28 32,15zm161 6l0 0c-1,-13 -3,-25 -21,-21 1,13 8,20 21,21zm-198 5l0 0c4,-15 -26,-22 -31,-11 11,3 15,13 31,11zm-36 10l0 0c0,-16 -14,-18 -26,-21 -3,19 17,29 26,21zm-136 11l0 0c16,8 16,-34 0,-26 0,8 0,17 0,26zm276 0l0 0c0,-17 -14,-20 -31,-21 0,26 11,26 31,21zm-99 -6l0 0c7,15 17,26 37,27 1,-21 -26,-34 -37,-27zm-41 16l0 0c15,6 19,22 41,21 -3,-19 -30,-40 -41,-21zm-84 31l0 0c0,-13 3,-30 -10,-31 3,11 -9,36 10,31zm73 0l0 0c-4,-16 -14,-27 -31,-31 0,21 13,29 31,31zm318 183l0 0c9,-8 2,-28 -5,-37 -5,6 -2,29 5,37zm27 94l0 0c-7,65 21,-9 -6,-16 0,7 3,12 6,16zm26 47l0 0c-4,-12 9,-41 -11,-37 -1,17 0,32 11,37zm5 78l0 0c-2,-16 6,-40 -11,-42 2,16 -5,41 11,42zm-21 16l0 0c3,-24 -4,-38 -21,-42 5,16 9,33 21,42zm-16 31l0 0c2,19 6,36 21,42 -15,-17 13,-45 -10,-52 -12,7 6,12 -5,15 -1,-3 -1,-6 -6,-5zm-5 84l0 0c20,-5 9,22 31,15 -2,-29 -9,-53 -31,-62 0,15 0,31 0,47zm31 52l0 0c-4,-17 -14,-28 -31,-32 4,17 15,28 31,32zm-52 52l0 0c17,1 23,-9 26,-21 -10,1 -11,-6 -21,-5 2,12 0,20 -5,26z"/>
   <path class="fil0" d="M6550 6319c-15,14 -11,46 -26,59 -52,9 -72,4 -127,0 62,-285 206,-489 356,-686 7,-35 -13,-43 -8,-76 84,3 111,-52 144,-102 190,-66 398,-126 635,-101 94,58 201,104 314,144 -19,38 41,64 84,67 75,163 269,251 280,449 49,90 112,209 118,314 -63,-16 -128,5 -177,0 -5,-28 5,-39 8,-59 -54,-130 -130,-237 -195,-356 -11,-12 -40,-5 -51,-17 0,-11 0,-23 0,-34 -130,-140 -379,-271 -644,-195 0,-8 0,-17 0,-25 -212,61 -346,202 -500,322 0,14 0,28 0,42 -55,-28 -50,57 -93,68 4,56 -38,91 -59,135 -18,37 -15,107 -68,119 -6,-31 15,-36 9,-68zm788 -813l0 0c25,0 43,-8 50,-26 -18,-6 -33,-17 -59,-17 -3,20 2,33 9,43zm144 -26l0 0c-1,46 44,11 50,-8 -25,-6 -30,9 -50,8zm42 43l0 0c28,-4 55,-16 34,17 22,-1 30,-16 42,-26 -27,0 -32,-24 -68,-17 1,12 -3,19 -8,26zm-119 8l0 0c20,20 45,2 43,-25 -27,-4 -35,10 -43,25zm-338 0l0 0c2,37 44,24 42,-8 -20,-3 -33,1 -42,8zm389 34l0 0c34,9 68,-25 34,-34 -10,12 -34,12 -34,34zm127 0l0 0c32,1 69,7 60,-34 -28,4 -55,8 -60,34zm-516 0l0 0c-34,-11 -21,25 -43,26 -3,-15 13,-22 0,-26 -13,7 -12,27 -34,26 -6,-27 23,-17 17,-43 -23,5 -47,9 -42,43 37,16 102,49 102,-26zm110 -8l0 0c-14,0 -29,0 -43,0 -8,34 51,34 43,0zm347 42l0 0c25,0 52,1 51,-25 -33,-8 -37,14 -51,25zm-432 42l0 0c24,-3 39,-17 42,-42 -21,7 -45,11 -42,42zm42 9l0 0c22,-1 33,-12 34,-34 -21,1 -33,12 -34,34zm475 -9l0 0c13,13 58,15 51,-17 -23,-9 -40,-5 -51,17zm110 0l0 0c15,-7 45,1 42,-25 -21,1 -43,2 -42,25zm-771 34l0 0c26,-9 55,10 59,-34 -27,-22 -62,1 -59,34zm474 -34l0 0c-3,26 28,18 43,26 -1,-12 4,-19 8,-26 -11,-11 -40,-11 -51,0zm178 34l0 0c1,-24 -20,-24 -42,-25 -3,26 28,17 42,25zm-517 34l0 0c28,4 49,-36 17,-42 -3,16 -18,21 -17,42zm594 17l0 0c37,-2 69,-9 84,-34 -23,6 -17,-17 -34,-17 15,49 -47,21 -50,51zm-771 -17l0 0c-3,23 17,22 33,26 2,-13 14,-15 17,-26 -10,-11 -40,-11 -50,0zm-128 68l0 0c27,-10 37,-37 51,-59 -33,1 -65,36 -51,59zm966 -25l0 0c19,14 50,-13 68,-26 -12,-8 -67,-4 -68,26zm119 -26l0 0c5,42 29,13 59,26 -3,-39 -27,-33 -59,-26zm-1042 68l0 0c3,-22 25,-26 25,-51 -20,0 -49,34 -25,51zm42 8l0 0c5,-24 13,13 26,9 -5,-30 30,-21 25,-51 -23,6 -17,-17 -34,-17 -2,19 -38,46 -17,59zm932 -42l0 0c1,15 -2,26 -8,34 12,-5 43,10 42,-9 -15,1 -22,-6 -25,-17 11,1 18,-4 25,-8 3,7 17,43 25,17 -9,-2 -9,-13 -8,-25 -26,-7 -25,14 -51,8zm-1076 59l0 0c12,1 19,-4 26,-8 1,10 -2,24 8,25 4,-16 18,-21 17,-42 -32,14 -13,-5 -42,-9 1,16 -10,19 -9,34zm1254 9l0 0c12,-1 19,4 25,8 19,-18 4,-46 -16,-51 3,21 -16,19 -9,43zm-144 0l0 0c28,17 75,-7 85,-34 -28,12 -76,4 -85,34zm-1051 17l0 0c23,2 28,-12 26,-34 -22,-3 -28,12 -26,34zm1119 0l0 0c24,-2 58,7 59,-17 -24,-11 -49,-7 -59,17zm-1076 0l0 0c0,5 1,10 8,8 3,-13 19,-6 26,0 8,-28 -12,-28 -34,-25 0,5 0,11 0,17zm-144 42l0 0c17,-3 66,-18 42,-34 -3,11 -45,-3 -42,34zm1296 -8l0 0c26,-3 66,9 68,-17 -20,-18 -49,7 -68,17zm-1245 25l0 0c27,2 40,-10 42,-34 -32,-7 -33,18 -42,34zm1296 17l0 0c15,7 21,24 51,17 0,-11 0,-23 0,-34 -23,0 -50,-5 -51,17zm-1330 17l0 0c32,46 -60,55 -34,93 35,-21 62,-51 68,-102 -15,0 -27,2 -34,9zm1372 42l0 0c18,6 34,27 51,9 9,-33 -50,-34 -51,-9zm9 110l0 0c-16,-43 -23,-53 -17,-84 -60,5 -13,72 17,84zm84 -25l0 0c-4,-21 -7,-44 -33,-42 4,20 7,43 33,42zm34 93l0 0c13,-21 -1,-74 -34,-76 2,35 18,55 34,76zm-1660 34l0 0c21,-22 26,-58 42,-85 -22,15 -58,61 -42,85zm1618 -17l0 0c5,-20 13,-39 -17,-42 -1,21 -2,41 17,42zm51 26l0 0c-11,116 35,-7 -9,-26 0,12 4,19 9,26zm-1729 67l0 0c-37,82 18,64 0,0z"/>
   <path class="fil0" d="M7431 6438c-154,13 -244,-111 -161,-237 199,-125 359,169 161,237zm-76 -170l0 0c-3,-19 -6,-39 -34,-34 -6,29 14,31 34,34zm67 110l0 0c25,-6 70,-53 34,-67 -21,23 -35,41 -34,67z"/>
   <path class="fil0" d="M544 4812c4,3 0,75 -4,56 2,-18 -4,-44 4,-56z"/>
   <path class="fil0" d="M909 6467c-44,-37 -106,-56 -150,-94 -34,-65 -97,-183 -30,-274 28,-14 45,-38 73,-52 18,8 42,12 64,4 16,34 40,58 52,95 -18,38 -22,90 -52,116 8,38 29,39 60,55 17,7 2,-18 13,-17 18,-1 4,19 4,26 27,-4 59,7 60,-30 60,4 85,-61 103,-112 -4,-14 -8,-2 -21,-4 18,-74 -29,-153 -56,-210 -4,-3 -10,-5 -17,-4 -75,-107 -146,-218 -227,-318 -106,148 -193,314 -296,463 -54,113 -128,204 -180,318 -21,1 -35,8 -43,21 -17,1 -2,-3 -5,-13 -32,-10 -34,12 -51,9 -17,-42 30,-81 60,-129 30,-47 65,-112 103,-176 78,-130 148,-258 236,-373 21,-39 43,-84 68,-124 18,-27 53,-53 43,-90 -16,-6 -8,12 -21,9 6,-3 0,-17 8,-18 -32,-50 -76,-89 -107,-141 -9,-10 -17,6 -26,-4 -3,-69 -82,-97 -102,-163 -10,2 -12,19 -22,8 -3,-13 7,-12 4,-26 -41,-60 -86,-116 -98,-205 -9,1 -4,16 -17,13 14,-59 -18,-139 4,-211 1,-17 -18,-13 -17,-30 13,-5 10,7 17,9 34,-63 60,-134 120,-172 2,-10 -8,-9 -4,-21 26,8 53,-20 47,-34 56,1 94,-45 154,-48 18,0 45,10 65,13 61,10 134,10 171,43 51,46 51,115 90,176 -22,63 -21,132 -64,167 -38,31 -153,41 -167,-13 -16,-59 -40,-157 47,-175 -5,-11 -7,-30 8,-18 -4,-30 -31,-37 -38,-64 -14,-5 -4,14 -17,9 -3,-13 -9,-23 -18,-30 -17,13 -28,6 -38,-9 -100,2 -128,78 -167,129 -36,170 60,267 120,369 13,-4 12,7 25,4 -14,22 41,64 69,98 12,15 23,33 34,48 29,35 46,53 69,94 171,-238 316,-501 480,-746 6,-11 -17,-14 -4,-17 28,-28 88,-21 120,-9 -181,278 -356,562 -532,845 120,151 232,311 343,472 22,88 47,179 39,274 -6,14 -16,25 -26,34 -12,54 -28,104 -60,138 -65,26 -114,68 -180,94 -1,4 2,4 4,4 -31,-21 -74,26 -120,5 -16,-1 -1,3 -4,12zm-236 -1887l0 0c-10,-15 -26,-25 -43,-34 2,24 29,23 43,34zm103 -4l0 0c-11,0 -5,-18 -21,-13 -6,15 16,23 21,13zm-150 26l0 0c-3,-10 -8,-18 -22,-17 1,12 6,20 22,17zm-73 9l0 0c10,-2 9,7 21,4 0,-8 1,-14 5,-17 -13,11 -17,-16 -30,0 5,0 4,6 4,13zm60 4l0 0c-3,-3 -20,-10 -21,0 6,5 18,15 21,0zm257 13l0 0c17,3 17,-21 0,-17 0,5 0,11 0,17zm-43 8l0 0c11,11 19,-3 22,-13 -6,0 -6,-5 -13,-4 7,16 -1,8 -9,17zm-304 26l0 0c8,2 11,9 21,9 4,-17 -9,-17 -17,-22 0,6 -2,10 -4,13zm403 4l0 0c-7,-4 -12,-10 -21,-13 -2,11 15,25 21,13zm-8 39l0 0c27,3 -11,26 17,34 3,-23 0,-48 -17,-60 0,9 0,17 0,26zm424 13l0 0c-1,-13 25,-21 13,-30 -2,10 -24,21 -13,30zm-823 -5l0 0c-2,-10 -5,-18 -13,-21 -5,12 -2,20 13,21zm720 82l0 0c23,-29 55,-71 60,-103 -21,33 -42,66 -60,103zm-725 -77l0 0c-12,3 -11,-6 -21,-5 -4,18 23,26 21,5zm344 38l0 0c1,-5 6,-8 4,-17 -4,0 -9,0 -13,0 -1,10 1,16 9,17zm47 -8l0 0c-3,0 -6,0 -9,0 1,11 6,16 17,17 0,-6 -2,-10 -4,-13 5,0 10,-1 9,-9 -8,5 -15,-12 -18,0 3,1 5,1 5,5zm-416 17l0 0c0,-5 1,-10 8,-9 1,-9 -3,-13 -13,-13 3,7 -5,23 5,22zm767 47l0 0c15,-8 47,-41 30,-51 -2,24 -24,29 -30,51zm-866 -30l0 0c2,-11 7,-17 -9,-17 -2,11 -7,17 9,17zm455 0l0 0c1,-6 6,-8 4,-17 -4,0 -9,0 -13,0 -1,10 1,16 9,17zm38 -13l0 0c1,12 8,18 22,17 -1,-6 2,-9 4,-13 -9,-3 -17,-13 -26,-4zm-420 17l0 0c-1,11 7,14 13,17 4,-6 7,-30 -4,-17 10,7 -2,0 -9,0zm407 9l0 0c1,12 14,12 18,21 5,-5 5,-20 0,-25 -8,-1 -14,1 -18,4zm-467 17l0 0c17,5 23,-15 8,-17 -2,6 -6,11 -8,17zm-13 17l0 0c7,-6 6,-24 -9,-21 -8,8 0,18 9,21zm849 13l0 0c13,2 23,-20 13,-26 3,16 -13,13 -13,26zm-360 -8l0 0c4,-15 -6,-15 -17,-13 -2,11 6,14 17,13zm39 -5l0 0c-1,14 17,21 25,13 -2,-11 -16,-21 -25,-13zm-528 35l0 0c-2,-13 -9,-20 -21,-22 4,10 11,18 21,22zm519 -13l0 0c-1,11 6,14 17,13 0,-12 -10,-21 -17,-13zm296 55l0 0c7,-19 37,-40 30,-60 -8,20 -36,42 -30,60zm-824 -21l0 0c3,-13 -5,-18 -12,-21 -11,11 3,18 12,21zm129 17l0 0c-1,-13 -2,-26 -13,-30 -11,12 0,29 13,30zm-124 0l0 0c11,0 20,-10 13,-17 -12,-1 -14,6 -13,17zm446 17l0 0c-7,-15 -19,-24 -35,-30 7,15 21,22 35,30zm-412 13l0 0c17,5 21,-21 9,-21 -2,8 -13,7 -9,21zm107 9l0 0c1,-11 1,-21 -8,-22 -7,7 -7,25 8,22zm-43 38l0 0c0,-14 2,-30 -12,-30 -11,12 -12,33 12,30zm-90 22l0 0c3,-14 -14,-31 -21,-22 8,7 11,18 21,22zm95 -5l0 0c17,5 23,-25 4,-21 4,12 -6,11 -4,21zm34 22l0 0c-2,-10 8,-9 4,-22 -5,0 -6,-5 -13,-4 -3,10 -9,27 9,26zm-73 -4l0 0c-13,3 10,26 13,13 -5,-1 -5,-7 -4,-13 -3,0 -6,0 -9,0zm22 4l0 0c6,-17 -15,-28 -22,-17 6,6 11,15 22,17zm77 17l0 0c1,-12 0,-23 -13,-21 -1,12 -1,23 13,21zm-129 0l0 0c17,3 17,-20 0,-17 0,6 0,11 0,17zm77 13l0 0c5,0 9,0 13,0 1,-11 -1,-19 -13,-17 0,6 0,11 0,17zm77 17l0 0c3,-10 9,-26 0,-34 -4,0 -8,0 -12,0 -1,18 -8,31 12,34zm-120 -4l0 0c9,-8 5,-26 -12,-22 -3,14 5,18 12,22zm-43 13l0 0c1,-4 4,-5 9,-5 0,-8 0,-17 0,-25 -4,0 -9,0 -13,0 4,15 -12,25 4,30zm108 -22l0 0c2,11 3,22 17,22 13,-13 -8,-32 -17,-22zm68 35l0 0c18,4 18,-26 0,-22 0,7 0,14 0,22zm-154 8l0 0c19,4 15,-28 0,-26 0,16 -5,13 0,26zm129 4l0 0c9,-10 3,-31 -13,-30 -5,18 -3,25 13,30zm-69 0l0 0c9,-9 2,-23 -9,-25 -6,13 1,16 9,25zm77 13l0 0c6,0 10,2 13,5 6,-6 7,-26 -4,-26 -2,8 -9,11 -9,21zm-51 13l0 0c9,-10 3,-32 -13,-30 -3,17 6,22 13,30zm90 22l0 0c8,-1 9,4 17,4 0,-10 7,-13 4,-26 -15,-2 -15,-19 -34,-17 3,15 -8,18 0,26 15,3 5,-18 21,-13 6,17 -14,9 -8,26zm-60 0l0 0c10,-17 -5,-21 -13,-30 -11,12 -1,28 13,30zm-35 0l0 0c-6,-5 -9,-14 -21,-13 -7,15 16,23 21,13zm129 38l0 0c-3,-10 28,-42 -4,-47 -5,13 -18,44 4,47zm-73 -21l0 0c1,-11 1,-21 -8,-22 -7,7 -7,25 8,22zm-34 13l0 0c9,-9 -6,-17 -13,-22 -7,7 2,20 13,22zm43 4l0 0c16,3 16,-21 0,-17 0,5 0,11 0,17zm13 8l0 0c8,1 5,12 17,9 0,-13 8,-24 -5,-30 6,17 -12,10 -12,21zm81 9l0 0c-1,-12 4,-29 -8,-30 -3,11 -20,39 4,39 -1,-12 -8,-15 4,-9zm-56 0l0 0c-1,14 5,21 17,21 2,-14 -5,-20 -17,-21zm78 34l0 0c-6,-13 1,-12 0,-30 -5,0 -9,0 -13,0 -2,17 1,27 13,30zm-159 -4l0 0c4,0 8,0 13,0 1,-10 -1,-16 -9,-17 -1,6 -6,8 -4,17zm124 13l0 0c-4,-13 -5,-15 5,-22 -3,-2 -13,-17 -18,-4 8,8 -14,24 13,26zm43 4l0 0c9,0 6,12 17,9 -4,-22 -6,-23 9,-26 -8,-4 -7,-16 -17,-17 3,18 -9,20 -9,34zm-137 5l0 0c7,-7 6,-25 -9,-22 -7,7 0,18 9,22zm-34 30l0 0c-3,-21 -17,-30 -30,-39 1,21 12,33 30,39zm197 -18l0 0c7,9 11,20 26,22 8,-22 -6,-31 -18,-43 -1,8 -9,11 -8,21zm210 108l0 0c22,-42 67,-85 73,-129 -21,44 -64,88 -73,129zm-352 -103l0 0c7,-7 7,-25 -8,-22 -1,11 -1,21 8,22zm26 21l0 0c2,-15 -4,-22 -13,-26 -2,16 4,22 13,26zm137 22l0 0c-2,-20 -13,-30 -30,-35 1,21 17,26 30,35zm-111 0l0 0c-1,-9 5,-10 4,-18 -10,2 -9,-7 -21,-4 2,11 10,16 17,22zm-35 0l0 0c8,-8 -1,-17 -12,-18 1,9 1,19 12,18zm189 8l0 0c-3,-14 -12,-22 -26,-26 2,16 15,20 26,26zm-128 9l0 0c1,-10 -1,-17 -5,-22 -4,0 -8,0 -13,0 -3,17 9,17 18,22zm-52 -9l0 0c10,1 8,15 21,13 3,-15 -19,-28 -21,-13zm-13 13l0 0c-6,-4 -8,-12 -17,-13 -6,13 12,24 17,13zm189 13l0 0c4,-11 5,-23 -13,-22 -1,13 -1,24 13,22zm-94 0l0 0c-2,-10 -8,-15 -18,-17 -12,11 10,26 18,17zm-91 4l0 0c7,5 9,14 22,13 2,-15 -19,-28 -22,-13zm202 17l0 0c3,-9 11,-12 9,-25 -5,0 -9,0 -13,0 1,13 -12,21 4,25zm-77 13l0 0c-1,-38 -12,-19 -30,-30 -2,22 19,21 30,30zm-43 0l0 0c3,-19 -8,-24 -21,-26 -2,18 4,27 21,26zm150 13l0 0c8,-4 10,-13 9,-26 -14,3 -6,-14 -22,-8 -14,10 -1,29 13,34zm-197 4l0 0c-12,-14 -20,-31 -43,-34 11,15 26,26 43,34zm8 -13l0 0c0,-5 0,-11 0,-17 -16,-3 -16,21 0,17zm43 9l0 0c10,7 19,15 30,21 3,-24 -9,-33 -25,-38 0,7 -1,13 -5,17zm-13 13l0 0c3,-18 -11,-20 -21,-26 -1,17 7,25 21,26zm86 -13l0 0c-7,0 -11,3 -13,9 9,1 9,11 17,12 18,-12 -14,-39 -8,-25 2,0 5,0 4,4zm69 17l0 0c-2,-12 -12,-16 -22,-21 -1,15 13,29 22,21zm-116 26l0 0c0,-20 -17,-23 -30,-30 -1,21 16,24 30,30zm69 -9l0 0c3,-5 5,-11 4,-21 -16,-4 -17,21 -4,21zm-26 17l0 0c0,-13 2,-28 -13,-25 -3,15 2,24 13,25zm38 0l0 0c11,0 17,-6 18,-17 -6,0 -12,0 -18,0 0,6 0,12 0,17zm-42 22l0 0c2,-14 -4,-19 -18,-17 1,11 7,16 18,17zm-48 17l0 0c-3,-16 -17,-23 -30,-30 5,15 19,22 30,30zm223 17l0 0c7,-7 -4,-24 -17,-26 0,25 10,15 17,26zm-4 35l0 0c1,-17 -8,-24 -21,-26 -4,19 7,24 21,26zm-189 4l0 0c2,-10 0,-17 -4,-22 -4,0 -8,0 -13,0 -1,14 5,21 17,22zm228 30l0 0c-4,-11 -20,-31 -30,-22 11,6 16,18 30,22zm-43 -4l0 0c-11,2 -15,-25 -26,-9 7,2 19,20 26,9zm38 8l0 0c-11,-2 -13,-13 -25,-13 0,13 22,29 25,13zm-68 13l0 0c3,10 8,18 21,17 -6,-7 4,-25 -4,-17 -3,13 -9,-4 -17,0zm116 34l0 0c0,-22 -22,-21 -35,-30 5,17 17,26 35,30zm-52 9l0 0c-11,-6 -16,-18 -30,-22 -2,17 21,31 30,22zm60 4l0 0c11,6 16,18 30,22 3,-14 3,-9 0,-22 -13,12 -18,-14 -30,0zm-107 9l0 0c2,-18 -16,-16 -21,-26 -11,12 15,17 21,26zm-99 0l0 0c1,-13 1,-24 -13,-22 -2,14 6,18 13,22zm95 25l0 0c5,-22 -15,-12 -17,-17 -1,-6 0,-15 -9,-13 0,19 11,26 26,30zm94 0l0 0c-3,-18 -22,-20 -34,-30 -7,13 14,30 34,30zm-133 -8l0 0c3,-14 -7,-16 -17,-17 -3,14 7,15 17,17zm52 -13l0 0c3,15 18,19 30,26 -4,-15 -17,-35 -30,-26zm-52 43l0 0c-1,-15 -10,-22 -21,-26 -2,18 4,27 21,26zm214 -9l0 0c-6,-3 -13,-26 -21,-13 5,5 17,23 21,13zm-180 9l0 0c5,-20 -17,-14 -25,-22 4,12 13,18 25,22zm43 13l0 0c2,-23 -12,-30 -30,-35 1,22 17,26 30,35zm99 0l0 0c-4,-18 -15,-28 -34,-30 5,16 14,29 34,30zm-47 4l0 0c-8,-13 -19,-24 -35,-30 6,15 15,29 35,30zm120 26l0 0c-9,-16 -20,-29 -30,-43 1,23 15,33 30,43zm-459 8l0 0c15,-6 33,-32 26,-47 -4,21 -17,32 -26,47zm240 -21l0 0c2,-16 -9,-20 -17,-26 4,10 1,27 17,26zm43 9l0 0c-2,-20 -15,-29 -30,-35 -1,23 21,22 30,35zm47 8l0 0c3,-26 -20,-25 -30,-39 -13,21 16,32 30,39zm94 -4l0 0c-2,-18 -15,-25 -30,-30 1,18 19,36 30,30zm-77 -22l0 0c-10,15 19,20 26,30 -3,-15 -16,-21 -26,-30zm-64 43l0 0c-3,-17 -15,-24 -30,-30 0,20 14,26 30,30zm39 9l0 0c7,-13 -15,-27 -26,-34 -12,17 21,19 26,34zm17 -9l0 0c17,-1 13,19 30,17 -1,-7 1,-13 4,-17 -11,-6 -20,-14 -30,-21 -4,5 -6,11 -4,21zm51 0l0 0c4,0 5,-3 9,-4 8,0 5,12 17,9 0,-17 -17,-17 -26,-26 -1,8 5,9 4,17 -4,0 -10,2 -4,4zm77 17l0 0c-18,-6 -14,-34 -34,-38 -5,26 24,42 34,38zm-150 18l0 0c0,-19 -11,-26 -25,-30 -1,19 14,23 25,30zm47 8l0 0c0,-21 -22,-20 -30,-34 -8,14 21,24 30,34zm18 -4l0 0c15,-3 12,13 25,13 -1,-8 5,-10 5,-17 -10,-8 -18,-17 -30,-22 0,9 0,17 0,26zm77 4l0 0c-4,-16 -10,-30 -30,-30 2,18 15,25 30,30zm-146 13l0 0c0,-17 -12,-23 -26,-26 4,14 12,23 26,26zm13 -17l0 0c3,20 23,22 34,34 0,-21 -21,-39 -34,-34zm-17 38l0 0c-1,-14 -21,-33 -30,-25 12,6 17,19 30,25zm98 -8l0 0c-14,-3 -18,-16 -30,-22 0,15 19,32 30,22zm13 4l0 0c15,-2 11,15 26,13 10,-19 -8,-34 -26,-39 0,9 0,18 0,26zm-64 22l0 0c-5,-18 -17,-29 -34,-35 6,17 17,28 34,35zm34 -9l0 0c-2,7 -5,-1 -13,0 -2,12 18,22 22,13 -14,-4 5,-9 4,-13 -11,-2 -13,-13 -26,-13 0,6 -7,4 -8,9 5,10 16,-9 21,4zm77 0l0 0c-5,0 -4,8 -8,9 4,16 17,26 34,30 4,-26 -12,-32 -26,-39zm-115 30l0 0c-1,-19 -15,-25 -30,-30 4,15 14,25 30,30zm197 4l0 0c-3,-12 -18,-36 -26,-30 13,6 10,28 26,30zm-682 159l0 0c47,-51 74,-123 120,-176 -1,-5 1,-12 -4,-13 -46,56 -78,126 -116,189zm51 -133l0 0c19,-6 36,-36 30,-51 -8,18 -19,34 -30,51zm476 -17l0 0c0,-19 -13,-27 -30,-30 2,18 21,19 30,30zm39 -17l0 0c-11,0 -9,-14 -21,-13 -2,11 15,24 21,13zm-94 17l0 0c-2,-14 -13,-19 -22,-26 0,16 13,19 22,26zm51 21l0 0c-3,-15 -16,-21 -26,-30 -9,18 12,24 26,30zm133 5l0 0c2,-19 -6,-29 -17,-35 -2,20 2,32 17,35zm-103 -9l0 0c1,-11 -6,-14 -17,-13 -1,11 6,14 17,13zm133 4l0 0c7,19 16,59 34,52 -18,-18 -21,-51 -25,-60 -1,5 -2,10 -9,8zm-116 17l0 0c6,-12 3,-19 -13,-21 -2,14 6,18 13,21zm48 5l0 0c-3,-16 -15,-23 -30,-26 3,15 17,20 30,26zm-99 4l0 0c9,-8 -16,-34 -26,-21 7,8 13,18 26,21zm60 0l0 0c13,6 17,20 30,26 8,-13 -16,-25 -26,-35 0,5 -3,6 -4,9zm-13 17l0 0c0,-10 -15,-27 -21,-17 6,7 10,15 21,17zm-51 9l0 0c-1,-14 -6,-23 -18,-26 3,12 9,20 18,26zm133 0l0 0c3,-19 -10,-22 -22,-26 -2,18 12,20 22,26zm-86 17l0 0c-2,-14 -13,-19 -22,-26 2,14 13,19 22,26zm120 -4l0 0c0,-11 -15,-28 -22,-17 13,0 8,18 22,17zm-77 13l0 0c-3,-13 -19,-33 -30,-22 11,6 16,18 30,22zm17 0l0 0c8,-9 11,-1 21,0 -1,-15 -13,-19 -21,-26 -4,10 3,22 0,26zm-65 12l0 0c3,-20 -12,-24 -25,-30 0,19 17,20 25,30zm151 18l0 0c0,-15 -6,-23 -13,-30 -12,12 3,25 13,30zm-43 8l0 0c1,-14 10,-32 -9,-34 2,8 -13,34 9,34zm-69 9l0 0c1,-21 -16,-24 -30,-30 5,15 15,25 30,30zm146 25l0 0c1,-25 -2,-46 -17,-55 4,20 8,40 17,55zm-107 -25l0 0c0,-15 -13,-16 -22,-22 0,14 7,22 22,22zm47 25l0 0c14,-5 12,-11 26,-4 -4,-18 -11,-33 -26,-38 -1,21 -5,29 0,42zm-90 -4l0 0c-3,-13 -19,-35 -30,-26 13,6 11,26 30,26zm34 13l0 0c7,-7 4,-25 -13,-21 -2,13 6,17 13,21zm34 -13l0 0c0,-11 -6,-16 -17,-17 -2,14 9,25 17,17zm-72 30l0 0c1,-19 -8,-27 -22,-30 5,12 10,25 22,30zm98 9l0 0c-3,-12 6,-11 4,-22 -16,5 -6,-16 -21,-13 -3,21 9,26 17,35zm-60 -9l0 0c-2,-12 -12,-16 -21,-21 -1,15 6,22 21,21zm86 26l0 0c5,-13 6,-42 -9,-47 10,13 -19,40 9,47zm-60 -22l0 0c-1,-10 -1,-22 -13,-21 -9,9 6,16 13,21zm-34 22l0 0c7,-9 -7,-22 -18,-26 -1,16 9,20 18,26zm30 0l0 0c1,-14 -6,-21 -18,-22 1,13 10,16 18,22zm34 8l0 0c3,-19 -8,-23 -22,-25 2,14 13,18 22,25zm56 0l0 0c-10,1 -2,-15 -5,-21 -13,-2 -9,14 -13,21 10,-5 17,12 18,0zm-120 9l0 0c-2,-11 -12,-14 -22,-17 1,12 8,18 22,17zm-296 -9l0 0c1,18 6,31 25,30 0,-15 -2,-29 -12,-34 -1,5 -7,5 -13,4zm321 13l0 0c6,-13 -12,-24 -17,-13 8,2 0,20 17,13zm39 0l0 0c-12,-2 -11,-18 -26,-17 -1,15 22,33 26,17zm21 5l0 0c0,-6 0,-12 0,-18 -4,0 -8,0 -13,0 -1,12 2,19 13,18zm-94 21l0 0c0,-13 2,-28 -13,-26 0,13 4,22 13,26zm69 4l0 0c0,-19 -17,-21 -26,-30 -2,21 9,28 26,30zm42 -4l0 0c7,7 23,15 22,-4 -10,-2 -19,-9 -22,4zm-90 22l0 0c3,-17 6,-24 -12,-26 5,16 -7,23 12,26zm43 -5l0 0c-11,-3 -13,-15 -25,-17 1,10 18,27 25,17zm-334 9l0 0c9,-9 0,-19 -9,-22 0,11 -1,21 9,22zm360 0l0 0c6,-13 -12,-25 -17,-13 8,2 3,17 17,13zm-60 8l0 0c9,7 16,16 26,22 0,-10 7,-13 4,-26 -15,2 -11,-15 -26,-13 1,8 -5,10 -4,17zm-420 5l0 0c1,-12 -2,-19 -13,-17 -1,11 1,18 13,17zm77 8l0 0c-3,-9 7,-30 -9,-25 3,8 -7,29 9,25zm330 0l0 0c3,-15 -4,-19 -13,-21 -1,12 0,23 13,21zm-291 9l0 0c6,-13 3,-25 -13,-26 -1,13 4,22 13,26zm385 4l0 0c5,0 9,0 13,0 -1,-8 5,-21 -8,-17 -2,6 -6,8 -5,17zm-60 17l0 0c2,-18 -14,-20 -21,-30 -13,16 8,27 21,30zm26 0l0 0c-2,-10 8,-9 4,-21 -6,-1 -7,-7 -12,-9 -1,14 2,24 8,30zm-429 0l0 0c2,-16 -13,-15 -21,-21 4,10 8,20 21,21zm35 9l0 0c2,-14 -6,-18 -13,-22 0,11 1,22 13,22zm-39 13l0 0c3,-19 -12,-20 -21,-26 1,14 12,19 21,26zm399 4l0 0c10,-13 -13,-22 -22,-30 2,15 16,19 22,30zm43 -4l0 0c-2,14 1,24 17,21 -13,-19 5,-28 -9,-38 -1,7 5,21 -8,17zm-446 21l0 0c1,-14 -5,-21 -17,-21 -2,14 5,20 17,21zm73 9l0 0c3,-4 4,-27 -9,-26 1,11 2,20 9,26zm-575 94l0 0c17,-29 36,-56 47,-90 -20,22 -49,60 -47,90zm497 -81l0 0c0,-13 -9,-16 -17,-22 -1,14 7,19 17,22zm399 8l0 0c2,-16 -9,-19 -17,-26 -1,15 10,19 17,26zm43 0l0 0c18,-1 21,-23 4,-26 4,13 -4,16 -4,26zm-81 0l0 0c-3,-10 -4,-22 -17,-21 -2,14 5,20 17,21zm-326 4l0 0c0,-7 0,-14 0,-21 -5,0 -9,0 -13,0 -2,13 5,18 13,21zm326 22l0 0c-3,-16 -16,-21 -26,-30 2,16 11,26 26,30zm-270 4l0 0c0,-19 -18,-20 -26,-30 3,16 16,21 26,30zm304 -8l0 0c-7,-5 -9,-14 -21,-13 -4,12 14,25 21,13zm-309 30l0 0c0,-19 -11,-26 -26,-30 5,14 13,25 26,30zm-56 -5l0 0c0,-11 -7,-15 -12,-21 -10,10 -1,23 12,21zm288 5l0 0c2,-20 -17,-18 -26,-26 3,14 12,22 26,26zm43 4l0 0c-1,-18 -12,-26 -26,-30 -3,21 10,27 26,30zm25 -9l0 0c11,14 33,-13 13,-17 4,14 -11,9 -13,17zm-300 26l0 0c-4,-14 -16,-21 -26,-30 3,17 9,28 26,30zm69 -13l0 0c-1,-11 -6,-16 -17,-17 0,11 6,17 17,17zm107 5l0 0c0,-15 -7,-22 -21,-22 4,10 11,18 21,22zm13 -5l0 0c15,0 26,32 38,9 -14,-5 -18,-22 -34,-26 1,8 -1,13 -4,17zm81 9l0 0c-11,-4 -18,-13 -30,-17 -5,18 20,28 30,17zm-231 17l0 0c-2,-15 -15,-20 -26,-26 0,17 9,26 26,26zm137 4l0 0c-6,-13 -16,-21 -30,-25 4,14 15,22 30,25zm-763 22l0 0c21,-2 19,-27 25,-43 -18,4 -19,26 -25,43zm656 -13l0 0c1,-19 -13,-22 -22,-30 2,15 7,27 22,30zm13 -5l0 0c11,14 19,30 38,35 -19,-18 -27,-35 -34,-56 -12,9 15,16 -4,21zm133 -4l0 0c-12,-2 -11,-18 -26,-17 -3,14 22,23 26,17zm-176 22l0 0c0,-14 -22,-26 -26,-22 10,6 14,18 26,22zm133 4l0 0c4,-23 -23,-14 -26,-30 1,18 14,24 26,30zm-785 -4l0 0c13,2 12,-11 17,-18 -4,0 -8,0 -13,0 1,9 -5,10 -4,18zm690 13l0 0c-2,-19 -21,-20 -30,-31 0,21 17,24 30,31z"/>
   <path class="fil0" d="M1462 5219c19,55 10,130 -43,133 -142,8 -88,-201 43,-133z"/>
   <path class="fil0" d="M300 5871c-49,12 -96,-10 -120,-38 -6,-84 75,-128 137,-82 17,36 3,95 -17,120zm-47 -77l0 0c12,-14 23,-30 43,-26 -13,-3 -23,-8 -35,-12 4,19 -7,24 -8,38z"/>
  </g>
 </g>
</svg>
