<?xml version="1.0" encoding="UTF-8"?>
<!DOCTYPE svg PUBLIC "-//W3C//DTD SVG 1.1//EN" "http://www.w3.org/Graphics/SVG/1.1/DTD/svg11.dtd">
<!-- Creator: CorelDRAW X8 -->
<svg xmlns="http://www.w3.org/2000/svg" xml:space="preserve" width="8.18448in" height="1.9827in" version="1.1" style="shape-rendering:geometricPrecision; text-rendering:geometricPrecision; image-rendering:optimizeQuality; fill-rule:evenodd; clip-rule:evenodd"
viewBox="0 0 8185 1983"
 xmlns:xlink="http://www.w3.org/1999/xlink">
 <defs>
  <style type="text/css">
   <![CDATA[
    .fil0 {fill:#FBC808;fill-rule:nonzero}
   ]]>
  </style>
 </defs>
 <g id="Layer_x0020_1">
  <metadata id="CorelCorpID_0Corel-Layer"/>
  <g id="_972301900448">
   <path class="fil0" d="M3962 1125c0,0 -2,1 -6,4 -9,5 -28,14 -48,20 -15,4 -19,4 -31,6 -36,6 -66,6 -104,8 -72,1 -168,2 -289,18 -121,15 -266,46 -426,107 -80,31 -163,69 -249,115 -91,49 -189,102 -292,154 -206,106 -436,213 -693,299 -257,84 -547,153 -860,117 -155,-18 -314,-68 -453,-156 -139,-88 -256,-206 -343,-345 -87,-138 -148,-296 -164,-464 -17,-167 17,-344 104,-490 87,-145 205,-259 339,-350 134,-89 288,-153 452,-166 82,-6 166,2 245,26 10,2 20,6 29,9l16 6 13 5c16,7 35,15 53,24 36,18 71,37 103,59 132,88 234,217 287,360 54,143 62,298 26,440 -35,141 -119,272 -244,343 -124,74 -273,71 -393,33 -61,-19 -119,-43 -171,-77 -52,-35 -96,-79 -130,-127 -69,-97 -104,-211 -96,-319 6,-108 62,-204 138,-262 75,-59 170,-75 250,-62 81,11 150,46 201,88 52,44 87,95 102,145 16,50 12,96 4,131 -18,69 -47,98 -45,98 -2,0 27,-30 43,-99 7,-34 10,-80 -7,-128 -16,-49 -51,-98 -102,-140 -51,-40 -120,-72 -198,-82 -77,-10 -167,7 -236,65 -69,56 -118,148 -120,248 -3,99 34,205 100,291 34,43 75,81 122,110 49,29 104,50 160,65 113,30 240,26 341,-39 102,-63 171,-177 197,-302 27,-125 14,-261 -37,-382 -51,-122 -141,-227 -256,-297 -29,-18 -60,-34 -90,-48 -15,-6 -30,-12 -48,-19l-13 -5 -11 -3c-7,-2 -15,-5 -23,-7 -63,-17 -130,-21 -197,-13 -134,15 -265,74 -379,156 -114,82 -214,188 -279,307 -64,118 -84,255 -66,388 18,133 72,262 149,373 76,112 176,204 287,269 112,64 236,99 364,109 257,20 514,-47 748,-133 234,-88 448,-198 643,-307 98,-55 191,-109 280,-162 94,-55 189,-103 280,-141 183,-78 354,-122 496,-145 141,-24 255,-29 324,-33 34,-2 58,-5 59,-6 -4,1 0,0 -8,2 -14,3 -27,11 -32,14 4,-2 6,-3 6,-3l178 300z"/>
   <path class="fil0" d="M4164 1125c0,0 2,1 6,4 10,5 29,14 49,20 15,4 20,4 32,6 36,6 67,6 105,8 73,1 170,2 293,18 123,15 270,46 433,107 81,31 165,69 252,115 93,49 192,102 297,154 209,106 442,213 703,299 261,84 555,153 873,117 157,-18 318,-68 459,-156 141,-88 260,-206 348,-345 89,-138 150,-296 166,-464 17,-167 -17,-344 -105,-490 -88,-145 -208,-259 -344,-350 -136,-89 -292,-153 -459,-166 -83,-6 -168,2 -248,26 -11,2 -20,6 -30,9l-16 6 -13 5c-17,7 -35,15 -54,24 -37,18 -72,37 -105,59 -134,88 -237,217 -291,360 -55,143 -63,298 -26,440 35,141 121,272 247,343 126,74 277,71 399,33 62,-19 121,-43 174,-77 53,-35 98,-79 132,-127 70,-97 105,-211 98,-319 -7,-108 -64,-204 -141,-262 -76,-59 -173,-75 -254,-62 -82,11 -151,46 -204,88 -52,44 -87,95 -103,145 -16,50 -12,96 -4,131 18,69 47,98 45,98 2,0 -26,-30 -43,-99 -7,-34 -10,-80 7,-128 16,-49 52,-98 104,-140 52,-40 121,-72 200,-82 79,-10 169,7 240,65 70,56 120,148 121,248 4,99 -34,205 -101,291 -34,43 -76,81 -124,110 -49,29 -105,50 -162,65 -115,30 -244,26 -346,-39 -103,-63 -173,-177 -200,-302 -27,-125 -14,-261 38,-382 51,-122 143,-227 260,-297 29,-18 60,-34 91,-48 15,-6 30,-12 49,-19l13 -5 11 -3c7,-2 15,-5 23,-7 65,-17 132,-21 200,-13 136,15 270,74 385,156 115,82 217,188 283,307 64,118 85,255 67,388 -18,133 -74,262 -151,373 -77,112 -179,204 -292,269 -113,64 -240,99 -369,109 -260,20 -522,-47 -759,-133 -237,-88 -455,-198 -653,-307 -99,-55 -193,-109 -283,-162 -96,-55 -192,-103 -285,-141 -186,-78 -359,-122 -502,-145 -144,-24 -259,-29 -329,-33 -35,-2 -59,-5 -60,-6 3,1 0,0 8,2 13,3 27,11 32,14 -4,-2 -6,-3 -6,-3l-181 300z"/>
  </g>
 </g>
</svg>
