<?xml version="1.0" encoding="UTF-8"?>
<!DOCTYPE svg PUBLIC "-//W3C//DTD SVG 1.1//EN" "http://www.w3.org/Graphics/SVG/1.1/DTD/svg11.dtd">
<!-- Creator: CorelDRAW X8 -->
<svg xmlns="http://www.w3.org/2000/svg" xml:space="preserve" width="7.83526in" height="5.04691in" version="1.1" style="shape-rendering:geometricPrecision; text-rendering:geometricPrecision; image-rendering:optimizeQuality; fill-rule:evenodd; clip-rule:evenodd"
viewBox="0 0 7835 5047"
 xmlns:xlink="http://www.w3.org/1999/xlink">
 <defs>
  <style type="text/css">
   <![CDATA[
    .fil0 {fill:#FBC808;fill-rule:nonzero}
   ]]>
  </style>
 </defs>
 <g id="Layer_x0020_1">
  <metadata id="CorelCorpID_0Corel-Layer"/>
  <path class="fil0" d="M278 499c-409,266 -252,1553 -231,1980 28,584 -76,1499 -19,2080 53,536 810,756 1042,0 89,-290 -178,-938 -42,-1926 76,-552 209,-1031 789,-1249 634,-239 1417,-251 2091,-252 614,-2 1368,-44 1930,177 479,188 644,636 705,1117 65,512 19,1486 117,1991 64,327 630,822 1021,131 296,-525 79,-1433 57,-2029 -21,-566 -122,-1103 -184,-1663 -113,-1031 -937,-867 -2674,-813 -377,12 -798,75 -1465,76 -537,1 -1393,-133 -1921,-43 -445,76 -888,104 -1205,423l-11 0z"/>
 </g>
</svg>
