<?xml version="1.0" encoding="UTF-8"?>
<!DOCTYPE svg PUBLIC "-//W3C//DTD SVG 1.1//EN" "http://www.w3.org/Graphics/SVG/1.1/DTD/svg11.dtd">
<!-- Creator: CorelDRAW X8 -->
<svg xmlns="http://www.w3.org/2000/svg" xml:space="preserve" width="7.96624in" height="1.9834in" version="1.1" style="shape-rendering:geometricPrecision; text-rendering:geometricPrecision; image-rendering:optimizeQuality; fill-rule:evenodd; clip-rule:evenodd"
viewBox="0 0 7966 1983"
 xmlns:xlink="http://www.w3.org/1999/xlink">
 <defs>
  <style type="text/css">
   <![CDATA[
    .fil0 {fill:#FBC808;fill-rule:nonzero}
   ]]>
  </style>
 </defs>
 <g id="Layer_x0020_1">
  <metadata id="CorelCorpID_0Corel-Layer"/>
  <g id="_970802497680">
   <path class="fil0" d="M4011 495c-3,-488 -627,-534 -984,-475 -675,112 -713,718 -1196,1081 -319,240 -853,285 -1205,78 -337,-198 -496,-677 -106,-886 -513,-121 -617,530 -440,853 230,420 711,590 1147,709 929,256 2010,161 2706,-580 44,-46 77,-68 104,-129l-26 -651z"/>
   <path class="fil0" d="M3959 495c2,-488 625,-534 983,-475 674,112 713,718 1195,1081 318,240 852,285 1203,78 337,-198 496,-677 106,-886 513,-121 617,530 441,853 -230,420 -711,590 -1146,709 -929,256 -2010,161 -2705,-580 -43,-46 -76,-68 -103,-129l26 -651z"/>
  </g>
 </g>
</svg>
