<?xml version="1.0" encoding="UTF-8"?>
<!DOCTYPE svg PUBLIC "-//W3C//DTD SVG 1.1//EN" "http://www.w3.org/Graphics/SVG/1.1/DTD/svg11.dtd">
<!-- Creator: CorelDRAW X8 -->
<svg xmlns="http://www.w3.org/2000/svg" xml:space="preserve" width="8.00989in" height="3.03113in" version="1.1" style="shape-rendering:geometricPrecision; text-rendering:geometricPrecision; image-rendering:optimizeQuality; fill-rule:evenodd; clip-rule:evenodd"
viewBox="0 0 8010 3031"
 xmlns:xlink="http://www.w3.org/1999/xlink">
 <defs>
  <style type="text/css">
   <![CDATA[
    .fil0 {fill:#FBC808;fill-rule:nonzero}
   ]]>
  </style>
 </defs>
 <g id="Layer_x0020_1">
  <metadata id="CorelCorpID_0Corel-Layer"/>
  <g id="_970801529088">
   <path class="fil0" d="M4056 660c23,-221 -223,-497 -397,-596 -179,-102 -565,-70 -745,12 -795,360 -499,1086 -594,1618 -72,406 -350,705 -713,888 -202,102 -730,263 -1123,-172 287,43 375,-375 272,-574 -123,-239 -471,-261 -646,-72 -303,327 86,870 382,1041 845,489 2101,118 2782,-469 362,-312 789,-703 770,-1242l12 -434z"/>
   <path class="fil0" d="M3972 660c-22,-221 222,-497 396,-596 177,-102 563,-70 742,12 791,360 496,1086 590,1618 73,406 349,705 710,888 201,102 727,263 1118,-172 -285,43 -374,-375 -271,-574 123,-239 470,-261 644,-72 301,327 -87,870 -380,1041 -842,489 -2092,118 -2770,-469 -361,-312 -785,-703 -766,-1242l-13 -434z"/>
  </g>
 </g>
</svg>
