<?xml version="1.0" encoding="UTF-8"?>
<!DOCTYPE svg PUBLIC "-//W3C//DTD SVG 1.1//EN" "http://www.w3.org/Graphics/SVG/1.1/DTD/svg11.dtd">
<!-- Creator: CorelDRAW X8 -->
<svg xmlns="http://www.w3.org/2000/svg" xml:space="preserve" width="5.25735in" height="10.7599in" version="1.1" style="shape-rendering:geometricPrecision; text-rendering:geometricPrecision; image-rendering:optimizeQuality; fill-rule:evenodd; clip-rule:evenodd"
viewBox="0 0 5257 10760"
 xmlns:xlink="http://www.w3.org/1999/xlink">
 <defs>
  <style type="text/css">
   <![CDATA[
    .fil6 {fill:#FEFEFE;fill-rule:nonzero}
    .fil5 {fill:#373435;fill-rule:nonzero}
    .fil4 {fill:#FEE4CA;fill-rule:nonzero}
    .fil1 {fill:#F9EBDC;fill-rule:nonzero}
    .fil0 {fill:#F7DAC0;fill-rule:nonzero}
    .fil2 {fill:#F1CCAC;fill-rule:nonzero}
    .fil8 {fill:#AFA69E;fill-rule:nonzero}
    .fil7 {fill:#594039;fill-rule:nonzero}
    .fil3 {fill:#4D3933;fill-rule:nonzero}
   ]]>
  </style>
 </defs>
 <g id="Layer_x0020_1">
  <metadata id="CorelCorpID_0Corel-Layer"/>
  <g id="_970751757824">
   <path class="fil0" d="M4346 9493c-277,-626 -213,-2506 -213,-2506l-1461 586 -1461 -586c0,0 64,1880 -214,2506 15,52 1262,1053 1638,1228l37 -164c406,-53 1659,-1012 1674,-1064z"/>
   <path class="fil1" d="M1212 7887c0,0 0,0 0,0 12,-488 -1,-887 -1,-900 0,13 13,412 1,900zm2917 -762c2,-85 3,-136 4,-138 -1,2 -2,53 -4,138l0 0zm-2918 -138l0 0 0 0zm0 0l0 0 0 0zm0 0c0,0 0,0 0,0 0,0 0,0 0,0zm2922 0c0,0 0,0 0,0l0 0c0,0 0,0 0,0zm-2922 0c0,0 0,0 0,0 0,0 0,0 0,0zm0 0l0 0 0 0 0 0z"/>
   <path class="fil2" d="M2472 8643l0 0c-5,0 -9,-1 -13,-2 -5,1 -9,2 -13,2 0,0 0,0 0,0 -1,0 -1,-1 -2,-5 -593,-101 -981,-428 -1232,-751 12,-488 -1,-887 -1,-900 0,0 0,0 0,0l0 0c0,0 0,0 0,0l0 0c0,0 0,0 0,0 0,0 0,0 0,0 0,0 0,0 0,0 0,0 0,0 0,0l0 0 0 0 1461 586 1461 -586c0,0 0,0 0,0l0 0c-1,2 -2,53 -4,138 -4,9 -8,18 -12,25 -88,177 -454,1284 -1643,1488 -1,4 -2,5 -2,5z"/>
   <path class="fil3" d="M301 3932c-8,5 -170,-230 -188,-459 -19,-230 9,-370 0,-431 -10,-61 -108,-403 -113,-657 -5,-253 103,-403 103,-403 0,0 -32,-164 47,-248 80,-84 328,-178 333,-244 5,-65 19,-262 65,-346 47,-85 146,-113 146,-113 0,0 -10,-136 108,-262 117,-127 300,-164 300,-164 0,0 159,-268 313,-371 155,-103 338,-84 422,-140 85,-57 267,-94 478,-94 211,0 417,197 469,234 52,38 365,-187 473,-201 108,-14 211,37 324,145 112,108 70,136 192,155 122,19 440,42 609,225 169,182 122,211 202,267 79,56 257,258 323,426 66,169 47,371 52,502 4,131 9,164 93,281 85,117 236,337 200,623 -36,286 -31,375 -87,647 -57,272 -138,520 -141,564 -3,44 -366,690 -380,704 -14,14 -702,-1141 -773,-1198 -70,-56 -1982,-632 -2057,-642 -75,-9 -516,1069 -530,1092 -14,24 -399,600 -427,656 -27,57 -196,103 -205,89 -10,-14 -351,-637 -351,-637z"/>
   <path class="fil4" d="M5043 3912c-102,-25 -357,294 -357,294 0,0 -13,-1136 0,-1391 13,-255 -306,-677 -370,-728 -64,-51 -217,-12 -612,51 -349,57 -875,14 -995,3l0 -3c0,0 -5,1 -13,2 -8,-1 -13,-2 -13,-2l0 3c-121,11 -647,54 -995,-3 -395,-63 -548,-102 -612,-51 -64,51 -383,473 -370,728 13,255 0,1391 0,1391 0,0 -255,-319 -357,-294 -102,26 -281,179 -179,562 102,383 166,689 179,842 13,154 89,319 306,332 0,0 293,792 383,970 88,178 453,1284 1643,1488 1,4 1,6 2,5 4,0 8,-1 13,-2 4,1 8,2 13,2 0,1 1,-1 2,-5 1189,-204 1554,-1310 1643,-1488 89,-178 383,-970 383,-970 217,-13 293,-178 306,-332 13,-153 76,-459 178,-842 103,-383 -76,-536 -178,-562z"/>
   <path class="fil3" d="M2440 4135c-2,13 -90,-190 -265,-228 0,0 22,44 28,72 -5,-15 -253,-125 -437,-109 -185,15 -204,28 -204,28 0,0 69,-6 171,30 -9,-4 -158,-49 -292,-8 0,0 84,-10 149,15 -4,-1 -259,-31 -352,29 -93,60 -116,99 -116,99 0,0 73,-63 129,-56 0,0 -140,51 -203,128 -62,77 -50,141 -50,141l89 30c0,0 337,-124 542,-126 0,0 -62,-15 -94,-15 0,0 272,-41 366,29 93,71 140,55 143,55 2,0 169,-8 187,-9 19,-2 191,-13 191,-13l71 34c0,0 16,-127 -55,-219 0,0 6,70 2,93z"/>
   <path class="fil3" d="M3025 4135c2,13 91,-190 265,-228 0,0 -21,44 -28,72 5,-15 253,-125 438,-109 184,15 203,28 203,28 0,0 -69,-6 -171,30 9,-4 159,-49 292,-8 0,0 -84,-10 -149,15 4,-1 259,-31 352,29 93,60 116,99 116,99 0,0 -73,-63 -129,-56 0,0 141,51 203,128 62,77 50,141 50,141l-89 30c0,0 -336,-124 -542,-126 0,0 62,-15 94,-15 0,0 -272,-41 -365,29 -94,71 -141,55 -144,55 -2,0 -169,-8 -187,-9 -18,-2 -191,-13 -191,-13l-71 34c0,0 -15,-127 55,-219 0,0 -6,70 -2,93z"/>
   <path class="fil5" d="M2493 4276l0 -82 -1690 0c0,0 -41,10 -41,79 0,68 0,109 0,109 0,0 0,44 65,44 64,0 115,0 115,0 0,0 38,426 219,709 180,283 824,293 1060,89 203,-177 256,-501 269,-692l0 0c0,0 24,-144 170,-144 73,0 100,0 109,0l0 -112 -276 0z"/>
   <path class="fil6" d="M1610 4324c0,19 -15,34 -34,34l-231 0c-19,0 -34,-15 -34,-34 0,-19 15,-34 34,-34l231 0c19,0 34,15 34,34z"/>
   <path class="fil6" d="M1058 4315c0,14 -11,26 -25,26l-150 0c-14,0 -26,-12 -26,-26 0,-14 12,-25 26,-25l150 0c14,0 25,11 25,25z"/>
   <path class="fil5" d="M2913 4276l0 -82 1690 0c0,0 41,10 41,79 0,68 0,109 0,109 0,0 0,44 -65,44 -64,0 -116,0 -116,0 0,0 -37,426 -218,709 -180,283 -825,293 -1060,89 -203,-177 -256,-501 -269,-692l0 0c0,0 -24,-144 -170,-144 -73,0 -100,0 -110,0l0 -112 277 0z"/>
   <path class="fil6" d="M3795 4324c0,19 16,34 34,34l232 0c19,0 34,-15 34,-34 0,-19 -15,-34 -34,-34l-232 0c-18,0 -34,15 -34,34z"/>
   <path class="fil6" d="M4348 4315c0,14 11,26 25,26l150 0c14,0 26,-12 26,-26 0,-14 -12,-25 -26,-25l-150 0c-14,0 -25,11 -25,25z"/>
   <path class="fil7" d="M1643 2024c0,0 71,-878 -229,-1273 0,0 585,427 229,1273z"/>
   <path class="fil7" d="M1952 2024c0,0 148,-1249 -491,-1684 0,0 996,482 491,1684z"/>
   <path class="fil7" d="M892 972c0,0 372,411 332,838 0,0 198,-616 -332,-838z"/>
   <path class="fil8" d="M1058 8048l1073 834c0,0 237,169 256,388 20,218 242,1490 242,1490 0,0 -1854,-1252 -1867,-1282 -14,-29 167,-228 196,-526 29,-298 100,-904 100,-904z"/>
   <path class="fil8" d="M4199 8048l-1073 834c0,0 -236,169 -256,388 -20,218 -241,1490 -241,1490 0,0 1853,-1252 1867,-1282 13,-29 -167,-228 -196,-526 -29,-298 -101,-904 -101,-904z"/>
   <path class="fil3" d="M3973 6003c-223,46 -197,314 -13,360 183,46 160,-153 64,-159 0,0 62,34 34,88 -28,55 -132,39 -145,-44 -13,-82 78,-204 217,-126 140,77 106,367 -126,382 -233,16 -370,-147 -455,-294 -86,-148 -155,-429 -460,-484 -305,-54 -393,184 -393,184 0,0 -88,-238 -393,-184 -305,55 -375,336 -460,484 -85,147 -222,310 -455,294 -233,-15 -266,-305 -127,-382 140,-78 230,44 217,126 -12,83 -116,99 -144,44 -29,-54 33,-88 33,-88 -95,6 -119,205 65,159 183,-46 209,-314 -13,-360 -222,-47 -411,150 -380,401 31,250 408,519 912,369 504,-150 745,-512 745,-512 0,0 240,362 744,512 504,150 882,-119 913,-369 31,-251 -158,-448 -380,-401z"/>
  </g>
 </g>
</svg>
