<?xml version="1.0" encoding="UTF-8"?>
<!DOCTYPE svg PUBLIC "-//W3C//DTD SVG 1.1//EN" "http://www.w3.org/Graphics/SVG/1.1/DTD/svg11.dtd">
<!-- Creator: CorelDRAW X8 -->
<svg xmlns="http://www.w3.org/2000/svg" xml:space="preserve" width="5.12937in" height="10.498in" version="1.1" style="shape-rendering:geometricPrecision; text-rendering:geometricPrecision; image-rendering:optimizeQuality; fill-rule:evenodd; clip-rule:evenodd"
viewBox="0 0 5129 10498"
 xmlns:xlink="http://www.w3.org/1999/xlink">
 <defs>
  <style type="text/css">
   <![CDATA[
    .fil6 {fill:#FEFEFE;fill-rule:nonzero}
    .fil5 {fill:#373435;fill-rule:nonzero}
    .fil4 {fill:#FEE4CA;fill-rule:nonzero}
    .fil1 {fill:#F9EBDC;fill-rule:nonzero}
    .fil0 {fill:#F7DAC0;fill-rule:nonzero}
    .fil2 {fill:#F1CCAC;fill-rule:nonzero}
    .fil8 {fill:#AFA69E;fill-rule:nonzero}
    .fil7 {fill:#7A6068;fill-rule:nonzero}
    .fil3 {fill:#5F484E;fill-rule:nonzero}
   ]]>
  </style>
 </defs>
 <g id="Layer_x0020_1">
  <metadata id="CorelCorpID_0Corel-Layer"/>
  <g id="_970751720160">
   <path class="fil0" d="M4240 9262c-270,-611 -208,-2445 -208,-2445l-1425 572 -1426 -572c0,0 63,1834 -208,2445 14,50 1231,1027 1598,1198l36 -160c396,-51 1619,-988 1633,-1038z"/>
   <g>
    <path class="fil1" d="M1182 7695l0 0c13,-476 0,-865 -1,-878 1,13 14,402 1,878l0 0zm2847 -744c1,-83 3,-132 3,-134 0,2 -2,51 -3,134l0 0zm-2848 -134l0 0 0 0zm0 0l0 0 0 0zm0 0c0,0 0,0 0,0 0,0 0,0 0,0zm2851 0c0,0 0,0 0,0l0 0c0,0 0,0 0,0zm-2851 0c0,0 0,0 0,0 0,0 0,0 0,0zm0 0l0 0 0 0 0 0z"/>
   </g>
   <path class="fil2" d="M2411 8433c0,0 0,0 0,0 -4,-1 -8,-2 -12,-2 -4,0 -8,1 -12,2l-1 0c0,0 -1,-2 -1,-5 -579,-99 -958,-417 -1203,-733 13,-476 0,-865 -1,-878 0,0 0,0 0,0l0 0c0,0 0,0 0,0l0 0c0,0 0,0 0,0 0,0 0,0 0,0 0,0 0,0 0,0 0,0 0,0 0,0l0 0 0 0 1426 572 1425 -572c0,0 0,0 0,0l0 0c0,2 -2,51 -3,134 -5,9 -9,18 -12,25 -87,173 -443,1253 -1604,1452 0,3 -1,5 -2,5z"/>
   <path class="fil3" d="M294 3836c-9,5 -166,-224 -184,-448 -18,-224 9,-361 0,-420 -9,-60 -105,-394 -110,-641 -4,-247 101,-393 101,-393 0,0 -32,-160 46,-242 77,-82 320,-174 324,-238 5,-64 18,-256 64,-338 46,-83 142,-110 142,-110 0,0 -9,-133 105,-256 114,-124 293,-160 293,-160 0,0 155,-261 306,-361 151,-101 329,-83 412,-138 82,-54 260,-91 466,-91 206,0 407,192 457,229 50,36 357,-183 462,-197 105,-14 206,37 316,142 109,105 68,132 187,151 119,18 430,41 594,219 165,178 119,206 197,261 78,55 251,251 316,416 64,164 45,361 50,489 4,128 9,160 91,274 83,115 230,330 195,609 -35,279 -30,365 -85,631 -55,265 -134,507 -137,550 -3,43 -357,673 -371,687 -14,13 -685,-1114 -754,-1169 -69,-55 -1934,-617 -2007,-626 -73,-9 -503,1042 -517,1065 -14,23 -390,585 -417,640 -27,55 -191,101 -200,87 -9,-14 -342,-622 -342,-622z"/>
   <path class="fil4" d="M4920 3817c-99,-25 -348,287 -348,287 0,0 -13,-1109 0,-1358 12,-249 -299,-660 -361,-709 -62,-50 -212,-13 -598,49 -339,55 -853,14 -970,3l0 -3c0,0 -5,1 -13,2 -8,-1 -12,-2 -12,-2l0 3c-118,11 -631,52 -971,-3 -386,-62 -535,-99 -597,-49 -63,49 -374,460 -361,709 12,249 -1,1358 -1,1358 0,0 -248,-312 -348,-287 -99,25 -274,175 -174,548 100,374 162,673 174,822 13,149 87,311 299,324 0,0 286,772 373,946 87,173 443,1253 1604,1452 0,3 1,5 2,5 4,-1 8,-2 12,-2 4,0 8,1 13,2 0,0 1,-2 2,-5 1160,-199 1517,-1279 1603,-1452 87,-174 373,-946 373,-946 212,-13 287,-175 299,-324 13,-149 75,-448 174,-822 100,-373 -74,-523 -174,-548z"/>
   <path class="fil3" d="M2381 4034c-2,13 -89,-185 -259,-222 0,0 21,43 27,70 -4,-15 -246,-122 -426,-107 -180,16 -199,28 -199,28 0,0 67,-6 167,29 -9,-3 -155,-48 -285,-7 0,0 82,-10 146,14 -4,-1 -253,-30 -344,29 -91,58 -113,96 -113,96 0,0 71,-61 125,-54 0,0 -137,49 -197,124 -61,76 -49,138 -49,138l87 29c0,0 328,-121 528,-122 0,0 -60,-16 -91,-15 0,0 265,-41 356,28 92,69 138,54 140,54 2,0 165,-8 183,-9 18,-2 186,-13 186,-13l70 33c0,0 15,-124 -54,-213 0,0 6,68 2,90z"/>
   <path class="fil3" d="M2951 4034c2,13 89,-185 259,-222 0,0 -21,43 -27,70 4,-15 247,-122 427,-107 180,16 198,28 198,28 0,0 -67,-6 -167,29 9,-3 155,-48 285,-7 0,0 -82,-10 -146,14 5,-1 253,-30 344,29 91,58 113,96 113,96 0,0 -71,-61 -125,-54 0,0 137,49 197,124 61,76 49,138 49,138l-87 29c0,0 -328,-121 -528,-122 0,0 60,-16 92,-15 0,0 -266,-41 -357,28 -92,69 -137,54 -140,54 -2,0 -165,-8 -183,-9 -18,-2 -186,-13 -186,-13l-69 33c0,0 -15,-124 53,-213 0,0 -5,68 -2,90z"/>
   <path class="fil5" d="M2433 4172l0 -80 -1650 0c0,0 -40,10 -40,77 0,66 0,106 0,106 0,0 0,43 63,43 64,0 113,0 113,0 0,0 37,416 213,692 177,276 805,286 1035,86 198,-172 250,-488 262,-675l0 0c0,0 24,-139 167,-139 70,0 97,0 106,0l0 -110 -269 0z"/>
   <path class="fil6" d="M1571 4218c0,19 -15,34 -33,34l-226 0c-18,0 -33,-15 -33,-34 0,-18 15,-33 33,-33l226 0c18,0 33,15 33,33z"/>
   <path class="fil6" d="M1033 4210c0,14 -12,25 -25,25l-147 0c-14,0 -25,-11 -25,-25 0,-14 11,-25 25,-25l147 0c13,0 25,11 25,25z"/>
   <path class="fil5" d="M2842 4172l0 -80 1649 0c0,0 40,10 40,77 0,66 0,106 0,106 0,0 0,43 -63,43 -63,0 -113,0 -113,0 0,0 -37,416 -213,692 -176,276 -805,286 -1034,86 -199,-172 -250,-488 -263,-675l0 0c0,0 -23,-139 -166,-139 -71,0 -98,0 -107,0l0 -110 270 0z"/>
   <path class="fil6" d="M3703 4218c0,19 15,34 33,34l226 0c19,0 34,-15 34,-34 0,-18 -15,-33 -34,-33l-226 0c-18,0 -33,15 -33,33z"/>
   <path class="fil6" d="M4242 4210c0,14 11,25 25,25l146 0c14,0 25,-11 25,-25 0,-14 -11,-25 -25,-25l-146 0c-14,0 -25,11 -25,25z"/>
   <path class="fil7" d="M1603 1975c0,0 70,-857 -223,-1242 0,0 570,416 223,1242z"/>
   <path class="fil7" d="M1904 1975c0,0 145,-1219 -479,-1643 0,0 973,470 479,1643z"/>
   <path class="fil7" d="M871 949c0,0 362,401 323,817 0,0 193,-601 -323,-817z"/>
   <path class="fil8" d="M1033 7852l1046 814c0,0 231,165 250,378 20,213 236,1454 236,1454 0,0 -1809,-1221 -1822,-1250 -13,-29 163,-223 191,-514 29,-291 99,-882 99,-882z"/>
   <path class="fil8" d="M4097 7852l-1047 814c0,0 -230,165 -250,378 -19,213 -235,1454 -235,1454 0,0 1808,-1221 1821,-1250 13,-29 -163,-223 -191,-514 -28,-291 -98,-882 -98,-882z"/>
   <path class="fil3" d="M1382 6075c0,0 132,41 391,-53 259,-93 350,-166 536,-198 187,-32 257,70 259,130 3,59 0,450 0,450 0,0 -137,226 -456,228 -318,2 -673,-466 -730,-557z"/>
   <path class="fil3" d="M3824 6075c0,0 -131,41 -389,-53 -257,-93 -347,-166 -532,-198 -185,-32 -255,70 -257,130 -3,59 0,450 0,450 0,0 136,226 452,228 317,2 669,-466 726,-557z"/>
  </g>
 </g>
</svg>
