<?xml version="1.0" encoding="UTF-8"?>
<!DOCTYPE svg PUBLIC "-//W3C//DTD SVG 1.1//EN" "http://www.w3.org/Graphics/SVG/1.1/DTD/svg11.dtd">
<!-- Creator: CorelDRAW X8 -->
<svg xmlns="http://www.w3.org/2000/svg" xml:space="preserve" width="8.14087in" height="3.3741in" version="1.1" style="shape-rendering:geometricPrecision; text-rendering:geometricPrecision; image-rendering:optimizeQuality; fill-rule:evenodd; clip-rule:evenodd"
viewBox="0 0 8141 3374"
 xmlns:xlink="http://www.w3.org/1999/xlink">
 <defs>
  <style type="text/css">
   <![CDATA[
    .fil0 {fill:#FBC808;fill-rule:nonzero}
   ]]>
  </style>
 </defs>
 <g id="Layer_x0020_1">
  <metadata id="CorelCorpID_0Corel-Layer"/>
  <g id="_972161431504">
   <path class="fil0" d="M4065 1624c79,-611 -788,-491 -1089,-295 -460,300 -880,819 -1462,869 -1136,97 -1492,-1563 -430,-1886 171,-52 359,-30 542,-40 -355,-508 -886,-209 -1259,126 -385,346 -417,999 -322,1485 200,1035 1107,1523 2099,1490 685,-23 1673,-368 2007,-1032l-86 -717z"/>
   <path class="fil0" d="M4065 1624c-79,-611 790,-491 1092,-295 462,300 882,819 1466,869 1138,97 1496,-1563 431,-1886 -172,-52 -359,-30 -544,-40 356,-508 889,-209 1263,126 386,346 418,999 323,1485 -201,1035 -1110,1523 -2105,1490 -687,-23 -1677,-368 -2012,-1032l86 -717z"/>
  </g>
 </g>
</svg>
