<?xml version="1.0" encoding="UTF-8"?>
<!DOCTYPE svg PUBLIC "-//W3C//DTD SVG 1.1//EN" "http://www.w3.org/Graphics/SVG/1.1/DTD/svg11.dtd">
<!-- Creator: CorelDRAW X8 -->
<svg xmlns="http://www.w3.org/2000/svg" xml:space="preserve" width="5.27868in" height="10.8036in" version="1.1" style="shape-rendering:geometricPrecision; text-rendering:geometricPrecision; image-rendering:optimizeQuality; fill-rule:evenodd; clip-rule:evenodd"
viewBox="0 0 5279 10804"
 xmlns:xlink="http://www.w3.org/1999/xlink">
 <defs>
  <style type="text/css">
   <![CDATA[
    .fil6 {fill:#FEFEFE;fill-rule:nonzero}
    .fil5 {fill:#373435;fill-rule:nonzero}
    .fil4 {fill:#FEE4CA;fill-rule:nonzero}
    .fil1 {fill:#F9EBDC;fill-rule:nonzero}
    .fil0 {fill:#F7DAC0;fill-rule:nonzero}
    .fil2 {fill:#F1CCAC;fill-rule:nonzero}
    .fil8 {fill:#AFA69E;fill-rule:nonzero}
    .fil7 {fill:#A07A86;fill-rule:nonzero}
    .fil3 {fill:#815D68;fill-rule:nonzero}
   ]]>
  </style>
 </defs>
 <g id="Layer_x0020_1">
  <metadata id="CorelCorpID_0Corel-Layer"/>
  <g id="_970801524032">
   <path class="fil0" d="M4364 9531c-279,-628 -215,-2516 -215,-2516l-1466 589 -1467 -589c0,0 64,1888 -215,2516 15,52 1267,1058 1645,1233l37 -165c407,-52 1666,-1016 1681,-1068z"/>
   <path class="fil1" d="M1217 7919c0,0 0,0 0,0 12,-490 -1,-891 -1,-903 0,12 13,413 1,903zm2929 -765c2,-86 3,-136 3,-139 0,3 -1,53 -3,139 0,0 0,0 0,0zm-2930 -138c0,0 0,0 0,-1 0,1 0,1 0,1zm0 -1c0,0 0,0 0,0 0,0 0,0 0,0zm0 0c0,0 0,0 0,0 0,0 0,0 0,0zm2933 0c0,0 0,0 0,0l0 0c0,0 0,0 0,0zm-2933 0c0,0 0,0 0,0 0,0 0,0 0,0zm0 0l0 0 0 0 0 0z"/>
   <path class="fil2" d="M2482 8678c0,0 0,0 0,0 -5,0 -9,-1 -13,-2 -5,1 -9,2 -13,2l0 0c-1,0 -1,-1 -2,-5 -595,-102 -985,-429 -1237,-754 12,-490 -1,-891 -1,-903l0 0c0,0 0,0 0,-1 0,0 0,0 0,0 0,0 0,0 0,0 0,0 0,0 0,0 0,0 0,0 0,0l0 0c0,0 0,0 0,0l0 0 0 0 1467 589 1466 -589c0,0 0,0 0,0l0 0c0,3 -1,53 -3,139 -4,9 -9,18 -12,25 -89,178 -456,1289 -1650,1494 -1,4 -2,5 -2,5z"/>
   <path class="fil3" d="M302 3948c-8,5 -170,-231 -189,-461 -19,-231 10,-372 0,-433 -9,-61 -108,-405 -113,-659 -5,-254 104,-405 104,-405 0,0 -33,-164 47,-249 80,-85 329,-179 334,-245 5,-66 19,-263 66,-348 47,-85 146,-113 146,-113 0,0 -10,-136 108,-263 117,-127 301,-165 301,-165 0,0 160,-268 315,-372 156,-103 339,-84 424,-141 84,-56 268,-94 480,-94 211,0 419,198 470,235 52,38 367,-188 475,-202 109,-14 212,38 325,146 113,108 71,136 193,155 122,19 442,42 612,226 169,183 122,212 202,268 80,57 259,259 325,428 66,170 47,372 52,504 4,132 9,165 94,282 84,118 236,339 200,626 -36,287 -31,377 -87,649 -57,273 -138,523 -142,567 -3,44 -367,692 -381,706 -14,15 -705,-1146 -776,-1202 -71,-56 -1990,-635 -2066,-645 -75,-9 -517,1073 -532,1097 -14,23 -401,602 -428,659 -28,56 -197,103 -207,89 -9,-14 -352,-640 -352,-640z"/>
   <path class="fil4" d="M5063 3928c-102,-25 -358,295 -358,295 0,0 -13,-1140 0,-1397 13,-256 -308,-679 -372,-730 -64,-51 -217,-13 -614,51 -350,57 -878,14 -999,3l0 -3c0,0 -5,1 -13,1 -8,0 -13,-1 -13,-1l0 3c-121,11 -649,54 -999,-3 -397,-64 -551,-102 -615,-51 -64,51 -384,474 -371,730 13,257 -1,1397 -1,1397 0,0 -255,-320 -358,-295 -102,26 -282,180 -179,564 102,385 166,692 179,846 13,154 90,320 308,333 0,0 294,795 384,974 89,178 456,1289 1650,1494 1,4 1,5 2,5 4,0 8,-1 13,-2 4,1 8,2 13,2 0,0 1,-1 2,-5 1194,-205 1561,-1316 1650,-1494 89,-179 384,-974 384,-974 218,-13 295,-179 307,-333 13,-154 77,-461 180,-846 102,-384 -77,-538 -180,-564z"/>
   <path class="fil3" d="M2450 4152c-2,13 -91,-191 -266,-229 0,0 21,44 28,72 -5,-15 -254,-125 -439,-110 -186,16 -204,28 -204,28 0,0 69,-5 171,31 -9,-4 -159,-50 -293,-8 0,0 84,-10 150,15 -4,-1 -260,-31 -354,29 -93,60 -116,99 -116,99 0,0 73,-63 129,-55 0,0 -141,50 -203,128 -63,77 -50,142 -50,142l89 30c0,0 337,-125 543,-127 0,0 -61,-15 -94,-15 0,0 273,-42 367,29 94,71 142,55 144,55 3,0 170,-7 188,-9 19,-2 192,-13 192,-13l71 34c0,0 16,-128 -55,-219 0,0 6,69 2,93z"/>
   <path class="fil3" d="M3037 4152c2,13 91,-191 267,-229 0,0 -22,44 -28,72 4,-15 253,-125 439,-110 185,16 204,28 204,28 0,0 -69,-5 -172,31 10,-4 159,-50 294,-8 0,0 -85,-10 -151,15 5,-1 261,-31 354,29 93,60 117,99 117,99 0,0 -74,-63 -130,-55 0,0 141,50 204,128 62,77 50,142 50,142l-89 30c0,0 -338,-125 -544,-127 0,0 62,-15 94,-15 0,0 -273,-42 -367,29 -94,71 -141,55 -144,55 -2,0 -170,-7 -188,-9 -18,-2 -192,-13 -192,-13l-71 34c0,0 -15,-128 55,-219 0,0 -6,69 -2,93z"/>
   <path class="fil5" d="M2503 4293l0 -82 -1697 0c0,0 -41,10 -41,79 0,68 0,109 0,109 0,0 0,45 65,45 65,0 116,0 116,0 0,0 38,428 219,712 182,284 828,294 1065,89 204,-178 257,-503 270,-695l0 0c0,0 24,-144 171,-144 73,0 100,0 110,0l0 -113 -278 0z"/>
   <path class="fil6" d="M1617 4341c0,19 -15,34 -34,34l-233 0c-19,0 -34,-15 -34,-34 0,-19 15,-34 34,-34l233 0c19,0 34,15 34,34z"/>
   <path class="fil6" d="M1063 4333c0,14 -12,25 -26,25l-151 0c-14,0 -25,-11 -25,-25 0,-15 11,-26 25,-26l151 0c14,0 26,11 26,26z"/>
   <path class="fil5" d="M2924 4293l0 -82 1698 0c0,0 41,10 41,79 0,68 0,109 0,109 0,0 0,45 -65,45 -65,0 -117,0 -117,0 0,0 -37,428 -219,712 -181,284 -828,294 -1064,89 -204,-178 -257,-503 -270,-695l0 0c0,0 -24,-144 -171,-144 -73,0 -101,0 -110,0l0 -113 277 0z"/>
   <path class="fil6" d="M3811 4341c0,19 15,34 34,34l233 0c19,0 34,-15 34,-34 0,-19 -15,-34 -34,-34l-233 0c-19,0 -34,15 -34,34z"/>
   <path class="fil6" d="M4365 4333c0,14 12,25 26,25l150 0c15,0 26,-11 26,-25 0,-15 -11,-26 -26,-26l-150 0c-14,0 -26,11 -26,26z"/>
   <path class="fil7" d="M1650 2032c0,0 71,-881 -230,-1278 0,0 587,429 230,1278z"/>
   <path class="fil7" d="M1959 2032c0,0 149,-1254 -493,-1691 0,0 1001,485 493,1691z"/>
   <path class="fil7" d="M896 976c0,0 373,413 333,842 0,0 199,-619 -333,-842z"/>
   <path class="fil8" d="M1063 8081l1077 837c0,0 237,170 257,389 20,220 242,1497 242,1497 0,0 -1861,-1257 -1874,-1287 -14,-30 168,-230 197,-529 29,-299 101,-907 101,-907z"/>
   <path class="fil8" d="M4216 8081l-1077 837c0,0 -237,170 -257,389 -20,220 -243,1497 -243,1497 0,0 1861,-1257 1875,-1287 13,-30 -168,-230 -197,-529 -29,-299 -101,-907 -101,-907z"/>
   <path class="fil3" d="M3556 5877c-452,-168 -794,-87 -849,-42 -55,-45 -397,-126 -850,42 -495,183 -811,686 -811,686 0,0 289,261 983,117 531,-111 651,-379 678,-498 27,119 146,387 678,498 694,144 982,-117 982,-117 0,0 -316,-503 -811,-686z"/>
  </g>
 </g>
</svg>
