<?xml version="1.0" encoding="UTF-8"?>
<!DOCTYPE svg PUBLIC "-//W3C//DTD SVG 1.1//EN" "http://www.w3.org/Graphics/SVG/1.1/DTD/svg11.dtd">
<!-- Creator: CorelDRAW X8 -->
<svg xmlns="http://www.w3.org/2000/svg" xml:space="preserve" width="7.96626in" height="4.37922in" version="1.1" style="shape-rendering:geometricPrecision; text-rendering:geometricPrecision; image-rendering:optimizeQuality; fill-rule:evenodd; clip-rule:evenodd"
viewBox="0 0 7966 4379"
 xmlns:xlink="http://www.w3.org/1999/xlink">
 <defs>
  <style type="text/css">
   <![CDATA[
    .fil0 {fill:#FBC808;fill-rule:nonzero}
   ]]>
  </style>
 </defs>
 <g id="Layer_x0020_1">
  <metadata id="CorelCorpID_0Corel-Layer"/>
  <g id="_1006957477872">
   <path class="fil0" d="M314 4313c-70,-144 -220,-1474 1192,-2112 748,-339 2106,-334 1889,-1541 -76,-422 -437,-660 -858,-660 -455,0 -974,268 -1321,528 -677,508 -1059,1473 -1193,2289 -92,559 110,1073 269,1562l22 -66z"/>
   <path class="fil0" d="M7650 4313c70,-144 222,-1474 -1203,-2112 -755,-339 -2124,-334 -1905,-1541 77,-422 440,-660 865,-660 460,0 983,268 1332,528 684,508 1069,1473 1204,2289 92,559 -111,1073 -271,1562l-22 -66z"/>
  </g>
 </g>
</svg>
