<?xml version="1.0" encoding="UTF-8"?>
<!DOCTYPE svg PUBLIC "-//W3C//DTD SVG 1.1//EN" "http://www.w3.org/Graphics/SVG/1.1/DTD/svg11.dtd">
<!-- Creator: CorelDRAW X8 -->
<svg xmlns="http://www.w3.org/2000/svg" xml:space="preserve" width="8.2718in" height="10.8561in" version="1.1" style="shape-rendering:geometricPrecision; text-rendering:geometricPrecision; image-rendering:optimizeQuality; fill-rule:evenodd; clip-rule:evenodd"
viewBox="0 0 8272 10856"
 xmlns:xlink="http://www.w3.org/1999/xlink">
 <defs>
  <style type="text/css">
   <![CDATA[
    .fil0 {fill:#EBD1AD}
    .fil1 {fill:#976638}
    .fil4 {fill:#543E2E}
    .fil2 {fill:#976638;fill-rule:nonzero}
    .fil3 {fill:#755233;fill-rule:nonzero}
    .fil5 {fill:#543E2E;fill-rule:nonzero}
   ]]>
  </style>
 </defs>
 <g id="Layer_x0020_1">
  <metadata id="CorelCorpID_0Corel-Layer"/>
  <g id="_1006983205984">
   <path class="fil0" d="M7313 5855c0,1539 -615,2516 -1371,3721 -447,713 -1209,1098 -1809,1098 -506,0 -1350,-292 -1687,-978 -653,-1325 -1234,-2083 -1383,-3841 -226,-2652 1259,-4819 3070,-4819 1811,0 3180,2158 3180,4819z"/>
   <path class="fil1" d="M6946 7343c-434,-764 191,-2045 103,-2985 -76,-555 -1560,-198 -1633,-989 -148,809 -699,26 -691,1036 -304,-41 -459,-340 -411,-734 -542,-80 -738,362 -625,734 -683,-608 1,-495 -317,-1070 -434,257 -773,462 -720,898 -406,-281 -119,-919 -19,-1024 -2747,-74 -571,3092 -1190,4134 124,-282 -392,-988 -864,-864 -105,-781 464,-1573 -346,-1382 116,-285 397,-179 346,-519 -76,-256 -242,152 -519,0 286,-316 265,-646 346,-1555 -213,76 -355,221 -346,519 -119,-236 -40,-819 54,-1029 1154,-2592 3695,-2961 5649,-2089 213,95 222,369 222,369 0,0 231,-146 378,-56 1470,902 2440,2238 1594,4364 -111,295 -248,764 -122,1378 -579,-15 -717,507 -889,864z"/>
   <path class="fil2" d="M6592 7881c-502,1111 -1171,-92 -2212,-84l65 405c484,105 674,169 967,395 0,0 -39,626 -210,1137 -54,191 -362,241 -468,223 -242,-42 -303,-391 -486,-389 -182,-2 -243,347 -485,389 -106,18 -414,-32 -468,-223 -171,-511 -210,-1137 -210,-1137 293,-226 483,-290 967,-395l65 -405c-1041,-8 -1710,1195 -2212,84 -75,1515 464,1348 927,2591 0,0 98,384 1411,384 2,0 4,0 5,0 2,0 4,0 6,0 1313,0 1411,-384 1411,-384 463,-1243 1002,-1076 927,-2591z"/>
   <path class="fil3" d="M6621 3470c-887,4 -1205,-604 -1205,-604 0,162 -237,407 -502,533 -223,106 -348,399 -348,399 -136,-127 -155,-732 -155,-732 -356,-37 -749,444 -749,444 -238,-212 -273,-736 -273,-736 -195,-70 -524,369 -524,369 -73,-164 283,-534 283,-534 -1822,-286 -1909,1435 -1910,1442 99,-513 463,-863 1397,-837 -99,105 -387,743 20,1023 -54,-435 286,-640 719,-898 318,576 -366,463 317,1071 -112,-372 84,-815 625,-734 -48,394 108,693 412,734 -9,-1010 542,-227 691,-1036 73,791 1556,434 1632,989 22,234 0,490 -39,754 161,-412 293,-1650 -391,-1647z"/>
   <path class="fil4" d="M406 3023c12,-149 55,-333 183,-522 -213,75 -495,520 -537,808 -18,-36 -48,-243 -33,-402 -30,234 -29,495 41,635 -8,-277 117,-440 346,-519z"/>
   <path class="fil4" d="M7957 4598c-96,256 -212,643 -158,1143 29,-263 97,-478 158,-640 258,-649 347,-1224 304,-1736 -30,378 -127,788 -304,1233z"/>
   <path class="fil4" d="M636 5149c47,-270 77,-478 -55,-554 39,319 -234,222 -348,502 230,-54 348,-29 403,52z"/>
   <path class="fil4" d="M1218 4159c63,-536 394,-980 1415,-950 131,-270 312,-448 366,-505 -1274,-35 -1855,630 -1781,1455z"/>
   <path class="fil4" d="M134 4553c215,-252 278,-249 272,-475 -13,-161 14,-1057 0,-1055 -77,1305 -222,1399 -346,1555 107,59 197,34 272,-4 -31,5 -162,-30 -198,-21z"/>
   <path class="fil4" d="M1443 6839c-280,-282 -767,-374 -858,-865 -20,162 -29,334 -6,505 472,-124 988,582 864,864 120,-202 135,-485 101,-807 -17,114 -49,216 -101,303z"/>
   <path class="fil4" d="M7043 4333c16,-166 -89,-298 -252,-414 -162,-115 -1302,-262 -1375,-1053 -148,809 -815,425 -807,1435 -304,-42 -343,-739 -295,-1133 -343,45 -728,605 -745,1065 -239,-245 -89,-444 -110,-570 -29,236 -279,289 230,742 -113,-372 83,-814 625,-734 -48,394 107,693 411,734 -8,-1010 543,-227 691,-1036 72,779 1509,446 1627,964z"/>
   <path class="fil4" d="M6946 6839c-78,-137 -122,-292 -141,-458 -33,359 -12,693 141,962 172,-357 310,-879 889,-864 -37,-181 -51,-349 -49,-503 -253,506 -548,607 -840,863z"/>
   <path class="fil4" d="M3372 2831c-433,258 -695,662 -810,1206 -66,-101 -116,-326 -79,-516 -68,236 -79,540 169,712 -53,-436 287,-641 720,-898 6,11 11,22 17,32 -17,-139 -117,-263 -17,-536z"/>
   <path class="fil5" d="M5412 8597c12,-105 16,-171 16,-171 -294,-226 -499,-302 -983,-407l-35 -222c-10,0 -20,0 -30,0l65 405c475,103 683,179 967,395z"/>
   <path class="fil5" d="M5665 10289c0,0 -98,385 -1411,385 -2,0 -4,-1 -6,-1 -1,0 -3,1 -5,1 -1313,0 -1411,-385 -1411,-385 -422,-1133 -908,-1094 -932,-2229 -25,1324 489,1221 932,2412 0,0 98,384 1411,384 2,0 4,0 5,0 2,0 4,0 6,0 1313,0 1411,-384 1411,-384 443,-1191 957,-1088 932,-2413 -24,1136 -510,1097 -932,2230z"/>
   <path class="fil5" d="M3069 8426c0,0 4,65 15,171 285,-217 493,-292 968,-395l65 -405c-10,0 -20,0 -30,0l-35 222c-484,105 -690,181 -983,407z"/>
  </g>
 </g>
</svg>
