<?xml version="1.0" encoding="UTF-8"?>
<!DOCTYPE svg PUBLIC "-//W3C//DTD SVG 1.1//EN" "http://www.w3.org/Graphics/SVG/1.1/DTD/svg11.dtd">
<!-- Creator: CorelDRAW X8 -->
<svg xmlns="http://www.w3.org/2000/svg" xml:space="preserve" width="8.27861in" height="11.4306in" version="1.1" style="shape-rendering:geometricPrecision; text-rendering:geometricPrecision; image-rendering:optimizeQuality; fill-rule:evenodd; clip-rule:evenodd"
viewBox="0 0 8284 11439"
 xmlns:xlink="http://www.w3.org/1999/xlink">
 <defs>
  <style type="text/css">
   <![CDATA[
    .fil0 {fill:#EFB38C;fill-rule:nonzero}
    .fil1 {fill:#574539;fill-rule:nonzero}
   ]]>
  </style>
 </defs>
 <g id="Layer_x0020_1">
  <metadata id="CorelCorpID_0Corel-Layer"/>
  <path class="fil0" d="M7411 5330l-232 0 0 -979c0,-1630 -1482,-2952 -3309,-2952 -1828,0 -3309,1322 -3309,2952l0 979 -236 0c-179,0 -325,130 -325,290l0 739c0,357 142,702 402,973l155 163 4 -42 0 42c0,0 423,2810 2450,3757 476,223 818,273 1504,0 2230,-885 2664,-3757 2664,-3757l155 -163c259,-271 402,-616 402,-973l0 -739c0,-160 -146,-290 -325,-290z"/>
  <path class="fil1" d="M4817 8465l-887 0 35 421 1159 0 0 1265 -522 598 -538 0 0 -622 -392 0 0 622 -563 -15 -498 -631 0 -1217 1176 0 29 -421 -897 0c-480,0 -1182,1744 -1182,1744 1346,1621 2410,1226 2996,947 223,-105 737,-373 1314,-1072 0,0 -603,-1619 -1230,-1619z"/>
  <path class="fil1" d="M1517 2029c-131,-311 -252,-687 -15,-949 179,-197 497,-249 787,-274 1024,-87 2058,-9 3086,-52 1028,-42 2090,-222 2909,-754 -295,866 -790,1682 -1447,2388 -267,286 -566,558 -934,745 -533,270 -1174,342 -1794,333 -998,-15 -2052,-257 -2712,-897l120 -540z"/>
  <path class="fil1" d="M6557 2501c274,-418 491,-370 875,-170 71,37 144,79 178,146 30,60 23,129 14,194 -115,838 -166,2008 -445,2659 38,-463 -756,-2047 -1150,-2351l528 -478z"/>
  <path class="fil1" d="M1517 2029c-174,-125 -369,-234 -582,-296 -213,-61 -486,116 -645,258 -195,173 -178,455 -147,699 119,937 238,1875 357,2812 262,-916 530,-1846 1065,-2662l-48 -811z"/>
  <path class="fil1" d="M1244 5561l971 -462 768 0c55,0 100,48 100,106l0 75c0,59 -45,106 -100,106l-762 0 -977 175z"/>
  <path class="fil1" d="M6390 5561l-971 -462 -768 0c-55,0 -100,48 -100,106l0 75c0,59 45,106 100,106l762 0 977 175z"/>
 </g>
</svg>
