<?xml version="1.0" encoding="UTF-8"?>
<!DOCTYPE svg PUBLIC "-//W3C//DTD SVG 1.1//EN" "http://www.w3.org/Graphics/SVG/1.1/DTD/svg11.dtd">
<!-- Creator: CorelDRAW X8 -->
<svg xmlns="http://www.w3.org/2000/svg" xml:space="preserve" width="8.14087in" height="2.10949in" version="1.1" style="shape-rendering:geometricPrecision; text-rendering:geometricPrecision; image-rendering:optimizeQuality; fill-rule:evenodd; clip-rule:evenodd"
viewBox="0 0 8141 2109"
 xmlns:xlink="http://www.w3.org/1999/xlink">
 <defs>
  <style type="text/css">
   <![CDATA[
    .fil0 {fill:#FBC808;fill-rule:nonzero}
   ]]>
  </style>
 </defs>
 <g id="Layer_x0020_1">
  <metadata id="CorelCorpID_0Corel-Layer"/>
  <g id="_972161429264">
   <path class="fil0" d="M3416 0c-627,-16 -1407,470 -1907,823 -541,381 -1059,816 -1509,1286 511,-314 1067,-481 1642,-643 461,-130 959,-160 1400,-335 221,-88 711,-321 811,-554 110,-255 -270,-667 -499,-556l62 -21z"/>
   <path class="fil0" d="M4739 0c625,-16 1401,470 1899,823 538,381 1055,816 1503,1286 -509,-314 -1063,-481 -1636,-643 -458,-130 -954,-160 -1394,-335 -220,-88 -708,-321 -808,-554 -109,-255 269,-667 497,-556l-61 -21z"/>
  </g>
 </g>
</svg>
