<?xml version="1.0" encoding="UTF-8"?>
<!DOCTYPE svg PUBLIC "-//W3C//DTD SVG 1.1//EN" "http://www.w3.org/Graphics/SVG/1.1/DTD/svg11.dtd">
<!-- Creator: CorelDRAW X8 -->
<svg xmlns="http://www.w3.org/2000/svg" xml:space="preserve" width="8.14082in" height="4.78254in" version="1.1" style="shape-rendering:geometricPrecision; text-rendering:geometricPrecision; image-rendering:optimizeQuality; fill-rule:evenodd; clip-rule:evenodd"
viewBox="0 0 8141 4783"
 xmlns:xlink="http://www.w3.org/1999/xlink">
 <defs>
  <style type="text/css">
   <![CDATA[
    .fil0 {fill:#FBC808;fill-rule:nonzero}
   ]]>
  </style>
 </defs>
 <g id="Layer_x0020_1">
  <metadata id="CorelCorpID_0Corel-Layer"/>
  <g id="_1006957476080">
   <path class="fil0" d="M3393 78c-350,-160 -1063,-23 -1476,-23 -420,0 -752,-3 -1079,283 -329,287 -137,685 -120,1054 25,525 -52,1002 -162,1499 -84,381 -264,688 -437,1038 -139,280 -249,834 230,853 380,16 743,-554 895,-849 180,-350 207,-766 276,-1139 68,-363 72,-772 53,-1149 -24,-473 65,-668 575,-668 350,0 803,70 1131,-22 301,-86 510,-583 248,-826 -56,-52 -127,-76 -203,-74l69 23z"/>
   <path class="fil0" d="M4709 78c354,-160 1075,-23 1492,-23 426,0 761,-3 1092,283 333,287 139,685 121,1054 -25,525 53,1002 164,1499 86,381 267,688 443,1038 140,280 251,834 -234,853 -384,16 -750,-554 -904,-849 -182,-350 -209,-766 -280,-1139 -69,-363 -72,-772 -53,-1149 24,-473 -66,-668 -582,-668 -353,0 -812,70 -1143,-22 -305,-86 -516,-583 -251,-826 56,-52 128,-76 204,-74l-69 23z"/>
  </g>
 </g>
</svg>
