<?xml version="1.0" encoding="UTF-8"?>
<!DOCTYPE svg PUBLIC "-//W3C//DTD SVG 1.1//EN" "http://www.w3.org/Graphics/SVG/1.1/DTD/svg11.dtd">
<!-- Creator: CorelDRAW X8 -->
<svg xmlns="http://www.w3.org/2000/svg" xml:space="preserve" width="7.96626in" height="10.4638in" version="1.1" style="shape-rendering:geometricPrecision; text-rendering:geometricPrecision; image-rendering:optimizeQuality; fill-rule:evenodd; clip-rule:evenodd"
viewBox="0 0 7966 10464"
 xmlns:xlink="http://www.w3.org/1999/xlink">
 <defs>
  <style type="text/css">
   <![CDATA[
    .fil0 {fill:#EBD1AD}
    .fil1 {fill:#976638}
    .fil4 {fill:#543E2E}
    .fil2 {fill:#976638;fill-rule:nonzero}
    .fil5 {fill:#755233;fill-rule:nonzero}
    .fil3 {fill:#543E2E;fill-rule:nonzero}
   ]]>
  </style>
 </defs>
 <g id="Layer_x0020_1">
  <metadata id="CorelCorpID_0Corel-Layer"/>
  <g id="_970762375824">
   <path class="fil0" d="M6941 6003c0,1425 -498,2703 -1310,3445 -584,534 -1153,1016 -1726,1016 -483,0 -1107,-394 -1611,-905 -969,-981 -1270,-1349 -1412,-3556 -159,-2459 1294,-4460 3023,-4460 1729,0 3036,1997 3036,4460z"/>
   <path class="fil1" d="M6930 7112c-775,-434 162,-3858 -782,-3429 -1767,518 -2781,-660 -4603,-397 -599,596 -503,2651 -586,3722 -757,-1349 -1462,-4545 -459,-5307 159,-92 430,-22 430,-22 0,0 -119,-324 53,-487 3655,-3264 9331,661 5947,5920z"/>
   <path class="fil2" d="M5245 7590l-2679 0c-343,298 -589,2552 0,2000 297,-279 -287,-541 -157,-1208 30,-251 237,-519 237,-519 524,145 883,222 1259,222 377,0 736,-77 1259,-222 0,0 208,268 238,519 129,667 -454,929 -157,1208 589,552 343,-1702 0,-2000z"/>
   <path class="fil3" d="M5245 9468c-41,-39 -65,-78 -77,-117 -20,85 -7,163 77,242 270,253 364,-83 355,-550 -9,399 -110,655 -355,425z"/>
   <path class="fil3" d="M2566 9468c-246,230 -346,-26 -355,-425 -10,467 85,803 355,550 84,-79 97,-157 77,-242 -12,39 -36,78 -77,117z"/>
   <path class="fil3" d="M5402 8385c9,45 14,88 17,130 5,-78 1,-162 -17,-254 -30,-251 -238,-519 -238,-519 -523,145 -882,222 -1259,222 -376,0 -735,-77 -1259,-222 0,0 -207,268 -237,519 -18,92 -22,176 -17,254 3,-42 8,-85 17,-130 30,-251 237,-519 237,-519 524,145 883,222 1259,222 377,0 736,-77 1259,-222 0,0 208,268 238,519z"/>
   <path class="fil4" d="M6145 3334c-1767,518 -2781,-661 -4604,-397 -599,596 -502,2651 -586,3722 -466,-831 -912,-2361 -952,-3593 -46,1277 442,3029 952,3940 84,-1071 -13,-3126 586,-3723 1823,-263 2837,915 4604,398 362,-165 447,237 459,819 11,-757 -29,-1361 -459,-1166z"/>
   <path class="fil4" d="M6927 6763c-263,-147 -329,-637 -338,-1203 -10,704 23,1373 338,1549 771,-1199 1072,-2329 1032,-3321 -36,905 -349,1913 -1032,2975z"/>
   <path class="fil5" d="M4879 2761c-1588,-294 -2020,-1206 -3394,-710 -1115,403 -704,3184 -510,4219 48,-1120 31,-2803 564,-3333 1823,-264 2836,915 4603,397 182,-83 294,-22 362,132l68 -61c-139,-804 -105,-351 -1693,-644z"/>
   <path class="fil5" d="M6924 6762c710,-1103 1062,-2148 1036,-3080 -22,-784 -405,-1506 -405,-1506 312,1521 -339,3500 -535,3780 -145,208 -299,-203 -415,-540 -33,695 40,1190 319,1346z"/>
  </g>
 </g>
</svg>
