<?xml version="1.0" encoding="UTF-8"?>
<!DOCTYPE svg PUBLIC "-//W3C//DTD SVG 1.1//EN" "http://www.w3.org/Graphics/SVG/1.1/DTD/svg11.dtd">
<!-- Creator: CorelDRAW X8 -->
<svg xmlns="http://www.w3.org/2000/svg" xml:space="preserve" width="8.18452in" height="8.35548in" version="1.1" style="shape-rendering:geometricPrecision; text-rendering:geometricPrecision; image-rendering:optimizeQuality; fill-rule:evenodd; clip-rule:evenodd"
viewBox="0 0 8185 8355"
 xmlns:xlink="http://www.w3.org/1999/xlink">
 <defs>
  <style type="text/css">
   <![CDATA[
    .fil0 {fill:#EBD1AD}
    .fil1 {fill:#976638}
    .fil2 {fill:#976638;fill-rule:nonzero}
    .fil3 {fill:#755233;fill-rule:nonzero}
    .fil4 {fill:#543E2E;fill-rule:nonzero}
   ]]>
  </style>
 </defs>
 <g id="Layer_x0020_1">
  <metadata id="CorelCorpID_0Corel-Layer"/>
  <g id="_970771842560">
   <path class="fil0" d="M6971 4807c-211,1095 -504,2116 -1089,2697 -421,417 -832,795 -1244,795 -349,0 -966,-354 -1329,-754 -699,-768 -619,-1032 -908,-2738 -350,-2065 991,-3491 2237,-3491 2049,0 2699,1591 2333,3491z"/>
   <path class="fil1" d="M7739 1522c-42,-319 415,-415 415,-415 -807,-488 -1623,-455 -2351,-554 49,-98 163,-308 0,-553 -442,749 -1298,73 -1384,692 -379,-578 -1472,-347 -2075,-139 990,368 -320,476 -455,966 -341,1236 -438,2613 -1403,2811 192,196 452,205 452,205 -75,176 -700,341 -700,341 289,151 586,176 586,176 0,0 -334,348 -824,550 910,-14 1709,-193 1881,-249 10,90 30,276 30,276 81,501 607,620 607,620l-10 -1146c1301,-612 2038,-1560 2040,-1563 913,-1000 1333,-1876 1531,-774 1042,-358 247,2697 537,3483 292,-359 1221,-1205 1123,-1546 -342,-1516 1155,-2451 0,-3181z"/>
   <path class="fil2" d="M4838 5992c-129,-54 -136,71 -244,71 -108,0 -115,-125 -244,-71 -1004,418 -1095,477 -1022,665 63,161 305,53 787,-153 341,-147 249,77 479,77 231,0 138,-224 480,-77 481,206 724,314 786,153 73,-188 -18,-247 -1022,-665z"/>
   <path class="fil2" d="M6470 5974c-402,889 -975,1074 -1113,1483 -43,153 -289,193 -374,178 -194,-33 -584,-33 -778,0 -85,15 -331,-25 -374,-178 -137,-409 -711,-594 -1113,-1483 -60,1213 372,1079 742,2074 0,0 79,307 1130,307 1,0 3,0 4,0 2,0 3,0 5,0 1051,0 1129,-307 1129,-307 371,-995 802,-861 742,-2074z"/>
   <path class="fil3" d="M8154 1105c0,0 -921,-194 -1349,903 64,-250 362,-1283 -1417,-1375 210,-48 525,-283 490,-450l-75 -175c0,0 -99,522 -844,535 -238,4 -290,172 -290,215 0,43 -918,110 -1263,694 -357,603 -92,1028 -1182,2470 0,0 827,-798 1260,-2076 0,0 -428,1484 -811,2021 -375,526 -899,1207 -2673,1743 910,-14 1709,-193 1881,-250 10,91 30,277 30,277 4,22 9,44 14,65l586 -190 -3 -401c1301,-612 2038,-1561 2040,-1563 645,-706 1043,-1350 1292,-1280l1 -9c103,30 180,183 238,506 1042,-358 247,2696 537,3483 223,-275 820,-836 1044,-1236 -74,9 -203,59 -402,246 -348,326 -194,-168 -179,-894 14,-725 334,-816 445,-1712 111,-896 -137,-1127 -137,-1127 217,-80 352,-5 352,-5 -42,-319 415,-415 415,-415z"/>
   <path class="fil4" d="M5074 6347c-342,-147 -249,77 -480,77 -230,0 -138,-224 -479,-77 -477,204 -720,312 -785,157 -31,49 -25,95 -2,153 63,161 305,53 787,-153 341,-147 249,77 479,77 231,0 138,-224 480,-77 481,206 724,314 786,153 23,-58 30,-104 -2,-153 -65,155 -307,47 -784,-157z"/>
   <path class="fil4" d="M5728 7891c0,0 -78,308 -1129,308 -2,0 -3,0 -5,0 -1,0 -3,0 -4,0 -1051,0 -1130,-308 -1130,-308 -337,-906 -725,-877 -746,-1780 -22,1066 390,982 746,1937 0,0 79,307 1130,307 1,0 3,0 4,0 2,0 3,0 5,0 1051,0 1129,-307 1129,-307 356,-955 768,-871 747,-1937 -22,903 -410,874 -747,1780z"/>
   <path class="fil3" d="M5074 6214c-342,-147 -249,76 -480,76 -230,0 -138,-223 -479,-76 -373,159 -602,260 -716,223 0,0 -13,9 -34,28 -35,33 -40,48 -40,48 63,161 308,64 790,-142 341,-147 249,76 479,76 231,0 138,-223 480,-76 481,206 726,302 789,141 0,0 -8,-19 -34,-43 -18,-15 -39,-33 -39,-33 -114,38 -343,-62 -716,-222z"/>
   <path class="fil3" d="M5728 7758c0,0 -78,307 -1129,307 -2,0 -3,0 -5,0 -1,0 -3,0 -4,0 -1051,0 -1130,-307 -1130,-307 -337,-906 -725,-877 -746,-1780 -22,1066 390,981 746,1936 0,0 79,308 1130,308 1,0 3,0 4,0 2,0 3,0 5,0 1051,0 1129,-308 1129,-308 356,-955 768,-870 747,-1936 -22,903 -410,874 -747,1780z"/>
   <path class="fil4" d="M6907 2839c-110,-600 -665,-321 -665,-320 116,-231 197,-574 -161,-807 -583,-380 -1073,221 -1575,1237 -503,1017 -2257,2289 -4504,2652 910,-14 1709,-193 1881,-250 5,43 12,107 18,162 194,-41 399,-94 611,-162l-2 -249c1301,-612 2038,-1561 2040,-1563 895,-980 1316,-1841 1519,-838 4,21 8,42 12,64 12,-4 24,-7 35,-10 989,-277 215,2715 502,3493 116,-144 335,-365 549,-601 -831,665 -149,-2207 -260,-2808z"/>
   <path class="fil4" d="M7387 1525c0,0 167,-54 352,-3 -42,-319 415,-415 415,-415 0,0 -596,-40 -767,418z"/>
   <path class="fil4" d="M5388 633c118,-38 327,-84 615,-56 -68,-7 -134,-15 -200,-24 49,-98 163,-308 0,-553 0,0 142,381 -415,633z"/>
   <path class="fil4" d="M2344 553c540,201 396,324 131,475 555,-257 836,-257 836,-257 -163,-280 -967,-218 -967,-218z"/>
   <path class="fil4" d="M1024 4707l-786 169c289,151 586,176 586,176 0,0 -8,8 -23,22l0 0c159,-140 223,-367 223,-367z"/>
   <path class="fil4" d="M1164 4194c-179,241 -678,136 -678,136 57,59 121,101 182,131 134,60 270,74 270,74 147,-131 226,-341 226,-341z"/>
  </g>
 </g>
</svg>
