<?xml version="1.0" encoding="UTF-8"?>
<!DOCTYPE svg PUBLIC "-//W3C//DTD SVG 1.1//EN" "http://www.w3.org/Graphics/SVG/1.1/DTD/svg11.dtd">
<!-- Creator: CorelDRAW X8 -->
<svg xmlns="http://www.w3.org/2000/svg" xml:space="preserve" width="8.18448in" height="1.7308in" version="1.1" style="shape-rendering:geometricPrecision; text-rendering:geometricPrecision; image-rendering:optimizeQuality; fill-rule:evenodd; clip-rule:evenodd"
viewBox="0 0 8184 1731"
 xmlns:xlink="http://www.w3.org/1999/xlink">
 <defs>
  <style type="text/css">
   <![CDATA[
    .fil0 {fill:#FBC808;fill-rule:nonzero}
   ]]>
  </style>
 </defs>
 <g id="Layer_x0020_1">
  <metadata id="CorelCorpID_0Corel-Layer"/>
  <g id="_972254576544">
   <path class="fil0" d="M3866 1155c33,-337 -187,-574 -557,-453 -317,105 -666,463 -993,572 -526,176 -1483,336 -1887,-199 -226,-299 -20,-874 457,-774 294,61 173,192 197,356 23,158 172,233 300,100 237,-246 -102,-637 -334,-720 -263,-93 -653,-5 -859,199 -199,198 -247,654 -118,899 146,278 483,492 774,536 685,105 1459,40 2165,40 205,0 467,19 655,-41 244,-77 200,-282 200,-515z"/>
   <path class="fil0" d="M4309 1155c-33,-337 188,-574 558,-453 318,105 668,463 996,572 527,176 1486,336 1891,-199 227,-299 20,-874 -458,-774 -294,61 -173,192 -197,356 -23,158 -173,233 -300,100 -238,-246 101,-637 334,-720 264,-93 655,-5 861,199 199,198 248,654 119,899 -147,278 -485,492 -777,536 -687,105 -1462,40 -2170,40 -206,0 -468,19 -657,-41 -244,-77 -200,-282 -200,-515z"/>
  </g>
 </g>
</svg>
