<?xml version="1.0" encoding="UTF-8"?>
<!DOCTYPE svg PUBLIC "-//W3C//DTD SVG 1.1//EN" "http://www.w3.org/Graphics/SVG/1.1/DTD/svg11.dtd">
<!-- Creator: CorelDRAW X7 -->
<svg xmlns="http://www.w3.org/2000/svg" xml:space="preserve" width="1.46961in" height="1.47146in" version="1.1" style="shape-rendering:geometricPrecision; text-rendering:geometricPrecision; image-rendering:optimizeQuality; fill-rule:evenodd; clip-rule:evenodd"
viewBox="0 0 611 611"
 xmlns:xlink="http://www.w3.org/1999/xlink">
 <defs>
  <style type="text/css">
   <![CDATA[
    .fil0 {fill:black;fill-rule:nonzero}
   ]]>
  </style>
 </defs>
 <g id="Objects">
  <metadata id="CorelCorpID_0Corel-Layer"/>
  <path class="fil0" d="M332 69c0,-11 -9,-21 -21,-21l-81 0 0 -21c0,-15 -12,-27 -27,-27l-74 0c-15,0 -27,12 -27,27l0 21 -81 0c-12,0 -21,10 -21,21 0,12 9,21 21,21l0 431c-12,0 -21,10 -21,21 0,12 9,21 21,21l81 0 0 22c0,14 12,26 27,26l74 0c15,0 27,-12 27,-26l0 -22 81 0c12,0 21,-9 21,-21 0,-11 -9,-21 -21,-21l0 -431c12,0 21,-9 21,-21zm-230 435l0 0 -49 0 0 -397 49 0 0 397z"/>
  <path class="fil0" d="M355 111l0 396 115 0 6 -91c4,-72 63,-128 135,-128l0 -177 -256 0zm81 373l0 0 -47 0 0 -47 47 0 0 47zm0 -301l0 0 -47 0 0 -48 47 0 0 48zm74 0l0 0 -47 0 0 -48 47 0 0 48zm74 0l0 0 -47 0 0 -48 47 0 0 48z"/>
 </g>
</svg>
