<?xml version="1.0" encoding="UTF-8"?>
<!DOCTYPE svg PUBLIC "-//W3C//DTD SVG 1.1//EN" "http://www.w3.org/Graphics/SVG/1.1/DTD/svg11.dtd">
<!-- Creator: CorelDRAW X7 -->
<svg xmlns="http://www.w3.org/2000/svg" xml:space="preserve" width="0.877512in" height="0.611988in" version="1.1" style="shape-rendering:geometricPrecision; text-rendering:geometricPrecision; image-rendering:optimizeQuality; fill-rule:evenodd; clip-rule:evenodd"
viewBox="0 0 172 120"
 xmlns:xlink="http://www.w3.org/1999/xlink">
 <defs>
  <style type="text/css">
   <![CDATA[
    .fil1 {fill:#74CBF2}
    .fil0 {fill:#777876}
   ]]>
  </style>
 </defs>
 <g id="Layer_x0020_1">
  <metadata id="CorelCorpID_0Corel-Layer"/>
  <path class="fil0" d="M144 12c-2,-1 -4,-2 -6,-4l-1 -2c-2,-3 -6,-6 -10,-6l-24 0c-4,0 -9,3 -11,5l-1 3c-1,2 -4,3 -6,4l-32 0 -10 0 -8 0c-2,0 -3,-1 -3,-2 0,-2 -3,-4 -6,-4l-6 0c-4,0 -7,2 -7,4 0,1 0,2 -1,2l-1 0c-6,0 -11,5 -11,11l0 86c0,6 5,11 11,11l150 0c6,0 11,-5 11,-11l0 -86c0,-6 -5,-11 -11,-11l-17 0z"/>
  <path class="fil1" d="M107 109c-23,0 -42,-19 -42,-43 0,-23 19,-43 42,-43 24,0 43,20 43,43 0,24 -19,43 -43,43l0 0z"/>
  <path class="fil1" d="M23 36l-4 0c-4,0 -7,-3 -7,-6 0,-3 3,-6 7,-6l4 0c4,0 6,3 6,6 0,3 -2,6 -6,6l0 0z"/>
  <path class="fil0" d="M107 34c-17,0 -32,14 -32,32 0,18 15,33 32,33 18,0 33,-15 33,-33 0,-18 -15,-32 -33,-32l0 0z"/>
 </g>
</svg>
