<?xml version="1.0" encoding="UTF-8"?>
<!DOCTYPE svg PUBLIC "-//W3C//DTD SVG 1.1//EN" "http://www.w3.org/Graphics/SVG/1.1/DTD/svg11.dtd">
<!-- Creator: CorelDRAW X7 -->
<svg xmlns="http://www.w3.org/2000/svg" xml:space="preserve" width="2.53773in" height="1.77976in" version="1.1" style="shape-rendering:geometricPrecision; text-rendering:geometricPrecision; image-rendering:optimizeQuality; fill-rule:evenodd; clip-rule:evenodd"
viewBox="0 0 740 519"
 xmlns:xlink="http://www.w3.org/1999/xlink">
 <defs>
  <style type="text/css">
   <![CDATA[
    .fil0 {fill:black;fill-rule:nonzero}
   ]]>
  </style>
 </defs>
 <g id="Capa_x0020_1">
  <metadata id="CorelCorpID_0Corel-Layer"/>
  <path class="fil0" d="M483 471c-3,1 -7,2 -12,4 -3,1 -6,2 -9,3 -3,0 -7,1 -11,2 -19,5 -42,6 -60,5 -9,0 -17,-1 -23,-2 -5,-1 -8,-1 -8,-1 -6,0 -11,-1 -17,-2 -5,-1 -10,-2 -16,-3 -12,-2 -23,-5 -35,-9 -3,-1 -5,-2 -8,-3 -3,-1 -6,-2 -8,-4 -5,-2 -10,-5 -15,-7 -21,-12 -38,-27 -53,-46 -6,-7 -11,-15 -15,-23 -5,-8 -14,-34 -15,-35 -7,-11 -14,-13 -20,-12 -7,1 -12,5 -15,9 -1,1 -1,1 -1,2 -2,20 -6,39 -14,55 -4,10 -10,18 -17,23 -7,6 -15,9 -24,10 -5,1 -10,0 -15,0 -4,-1 -7,-2 -10,-4 -3,-1 -6,-4 -8,-7 -3,-4 -5,-8 -7,-13 -3,-9 -6,-20 -7,-32 -2,-11 -2,-23 -2,-35 0,-24 1,-49 3,-74l2 -19 0 -10 1 -9c0,-12 1,-24 2,-36 2,-12 4,-23 7,-34 3,-10 8,-19 14,-27 6,-7 13,-12 22,-15 9,-3 19,-4 30,-4 1,0 2,0 2,0 1,0 2,1 3,1 0,0 1,0 1,0l1 1c1,0 1,0 1,0 1,0 2,1 3,1l2 2c4,2 7,5 10,8 0,0 1,1 2,3 2,2 4,4 6,8 5,7 11,17 15,28 5,11 8,23 10,31 1,9 2,14 2,13 2,10 3,19 3,26 1,7 1,12 2,14 1,2 4,2 7,-4 4,-6 8,-17 9,-36 2,-21 -1,-47 -7,-67 -4,-11 -8,-19 -11,-26 -2,-3 -3,-5 -4,-7 -1,-1 -2,-2 -2,-2 -4,-6 -9,-12 -16,-17 -3,-2 -6,-5 -10,-7l-6 -3c-1,0 -2,0 -3,-1l-3 -1c-1,0 -2,0 -3,-1 -4,-1 -9,-1 -13,-2 -4,0 -8,0 -11,0 -8,1 -15,2 -23,3 -8,2 -15,5 -22,9 -8,4 -14,9 -20,14 -6,6 -11,13 -15,19 -4,7 -7,14 -9,21 -5,13 -8,27 -10,41 -2,13 -3,26 -4,40l-1 19c0,6 0,12 -1,18 -2,26 -4,52 -4,78 0,14 0,27 2,41 1,13 4,27 9,41 1,4 3,8 5,11 2,4 3,7 6,11 2,3 5,6 8,10 3,3 6,6 10,8 8,5 17,9 25,10l4 1 3 0 5 0c4,0 8,0 12,0 8,-1 16,-2 24,-5 8,-3 15,-8 22,-13 13,-10 21,-24 28,-37 1,-2 2,-5 3,-7 4,6 8,13 13,19 17,22 38,40 63,54 6,4 12,7 19,10 3,2 6,3 10,4 3,1 6,2 9,3 13,5 26,8 40,11 5,1 10,2 15,3 5,1 11,1 16,2 0,0 7,0 18,0 10,0 24,-1 38,-3 7,-1 14,-3 20,-4 6,-2 12,-4 16,-5 10,-4 15,-7 14,-6 5,-3 10,-6 14,-8 4,-3 8,-6 11,-8 6,-6 9,-10 10,-13 0,-2 -2,-3 -9,-1z"/>
  <path class="fil0" d="M739 262c-1,-16 -3,-32 -6,-49 -4,-16 -8,-32 -15,-48 -5,-9 -10,-17 -16,-24 -7,-7 -14,-13 -21,-18 -14,-10 -30,-18 -45,-24 -16,-6 -32,-10 -49,-13 -7,-2 -14,-2 -21,-3 1,-1 2,-2 3,-4 2,-2 3,-5 5,-8 2,-5 4,-9 6,-15 0,-1 0,-3 1,-4 0,-2 0,-3 0,-5 0,-2 0,-4 0,-6 0,-2 0,-4 -1,-6 -1,-7 -6,-13 -11,-18 -6,-5 -11,-7 -16,-9 -10,-4 -19,-5 -27,-6 -9,-1 -17,-1 -25,-1 -15,0 -29,0 -45,-1 -15,0 -30,0 -46,0 -8,1 -16,1 -24,3 -4,0 -8,0 -12,1 -5,1 -9,2 -14,3 -4,2 -9,3 -14,6 -5,3 -10,7 -14,13 -5,6 -7,14 -8,21 0,6 1,13 3,18 1,4 3,8 5,11 -2,0 -5,0 -7,0 0,0 -7,1 -18,2 -10,1 -24,2 -37,6 -14,3 -27,7 -36,11 -10,5 -16,9 -14,8 -5,4 -10,8 -14,13 -3,5 -5,11 -6,16 0,2 0,5 0,7 1,2 2,3 2,5 2,3 3,4 4,5 3,1 3,-2 4,-8 1,-3 2,-6 5,-9 3,-4 7,-7 14,-10 17,-6 40,-9 58,-9 10,0 18,0 23,0 6,1 9,1 9,1 11,0 22,0 33,2 6,1 13,2 18,4 0,0 18,11 28,-3 11,-13 -6,-29 -6,-29 -3,-2 -5,-4 -8,-6 -5,-5 -9,-10 -13,-15 -4,-5 -7,-10 -8,-14 -1,-2 -1,-3 -1,-4 0,-1 0,-1 0,-1 1,0 1,-1 3,-2 1,-1 4,-2 6,-3 3,0 6,-1 9,-2 3,0 7,-1 10,-1 7,-1 14,-1 22,-2 14,0 29,0 43,0 15,1 31,1 46,1 8,0 15,0 21,1 7,0 13,2 18,3 2,1 4,2 4,2 0,0 -1,0 0,0l-1 2c0,1 -1,4 -3,6 0,2 -1,3 -2,5 -1,1 -2,2 -3,3l-5 4c-1,1 -3,3 -5,4 -8,6 -30,16 -30,31 1,17 15,24 29,21 18,-3 38,-1 57,2 27,5 55,15 77,30 11,7 20,16 25,26 1,2 2,6 3,9l2 5 2 5c2,7 4,14 5,20 3,14 5,29 7,43 1,15 1,29 0,44 -1,29 -4,59 -12,87l-1 5c0,2 -1,3 -1,5 -1,2 -2,5 -3,8 -3,6 -6,11 -10,16 -2,3 -4,5 -7,8 -2,2 -4,4 -7,6 -4,5 -10,9 -15,13 -6,4 -12,7 -18,10 -6,2 -12,4 -18,6 -5,1 -11,1 -15,1 -1,-1 -2,-1 -2,-1 0,0 -1,0 -1,0 0,-1 -1,-1 -1,-1 0,0 0,0 0,0 0,0 0,0 0,0 0,-1 0,-1 -1,-2 0,0 0,-1 0,-2 0,-1 0,-2 0,-3 0,-2 1,-3 1,-4 0,-1 0,-2 0,-2l1 -2c1,-2 1,-3 1,-5 2,-3 3,-6 4,-9l2 -4 1 -3 2 -2c1,-4 3,-8 5,-11 3,-8 7,-15 9,-23 12,-30 19,-63 16,-97 0,-9 -1,-18 -3,-26 -2,-9 -5,-17 -8,-25 -7,-17 -18,-32 -31,-44 -7,-6 -14,-11 -21,-16 -8,-4 -15,-8 -23,-11 -7,-4 -15,-7 -23,-10 -8,-2 -16,-5 -24,-6 -64,-15 -134,-5 -191,31 -15,10 -28,24 -37,39 -5,8 -8,16 -11,25 -3,8 -5,16 -6,25 -6,34 -1,68 12,100 3,8 7,16 11,23l4 6c0,1 1,1 1,2l1 1 1 2 3 4 4 4c4,6 9,11 14,16 0,0 2,1 5,3 2,2 6,4 11,7 10,6 24,12 38,16 14,3 28,4 37,5 10,0 16,-1 15,-1 22,-1 39,-5 43,-9 2,-1 0,-3 -6,-5 -7,-2 -18,-4 -35,-7 -9,-2 -20,-4 -30,-7 -10,-3 -19,-7 -26,-11 -7,-4 -13,-8 -17,-12 -2,-2 -4,-3 -5,-4 -1,-1 -2,-1 -2,-1l-3 -3 -2 -2c-2,-2 -4,-4 -6,-6 -1,-2 -3,-4 -5,-6l-2 -3 -1 -2c0,1 -2,-1 -2,-3 -1,-1 -2,-2 -3,-4 -14,-23 -21,-52 -20,-79 1,-28 10,-55 28,-72 1,-1 2,-2 3,-3l4 -3c1,-1 2,-2 4,-3 1,-1 2,-2 4,-2l9 -6c3,-1 7,-3 10,-4l5 -3 5 -2c3,-1 6,-2 10,-3 6,-3 13,-5 20,-6 7,-2 14,-3 21,-4 8,-1 15,-2 22,-2 7,-1 14,0 21,0 7,1 15,1 22,3 7,1 14,2 21,4 6,2 13,4 20,7 7,2 13,5 20,8 6,3 12,7 17,10 5,4 10,9 15,13 4,5 8,10 11,16 6,11 11,24 13,37 4,27 -1,56 -10,83 -4,14 -10,28 -17,41 -1,3 -3,7 -5,11 -2,4 -4,9 -5,13 -1,4 -3,9 -3,14l-1 4c0,1 0,2 0,4 0,3 -1,5 0,8 0,3 0,6 2,10 0,1 1,3 1,4 1,2 2,4 3,5 1,4 4,6 7,9 1,1 3,2 4,3 1,1 3,3 5,3 3,2 6,3 9,4l4 1c2,0 3,0 4,0l4 1 4 0 4 0 4 -1c20,-2 36,-9 51,-18 15,-9 29,-20 41,-34 5,-6 11,-14 15,-22 5,-8 8,-17 11,-26 4,-16 7,-32 9,-48 3,-16 4,-32 5,-48 1,-16 1,-32 -1,-49z"/>
  <path class="fil0" d="M485 251c-9,-7 -18,-11 -25,-13 -3,-2 -6,-2 -8,-3 -2,0 -3,-1 -3,-1 -14,-2 -29,-2 -43,2 -14,4 -28,12 -37,24 -10,11 -15,25 -17,39 0,3 -1,6 -1,9l0 10 0 10c1,4 1,7 2,10 2,13 7,26 15,38 8,11 18,20 30,26 3,2 6,3 9,5 4,1 7,2 10,3 3,0 7,1 10,1 4,1 7,1 10,1 1,0 3,-1 4,-2 11,-9 11,-17 8,-23 -2,-6 -7,-10 -10,-12 -1,-1 -1,-1 -2,-1 -15,0 -29,-7 -38,-20 -9,-13 -13,-32 -10,-49 2,-9 5,-16 9,-22 5,-5 11,-9 18,-11 7,-2 14,-2 22,-1 0,0 2,0 4,0 2,0 5,1 9,2 8,1 19,5 27,11 9,6 15,15 18,21 4,6 4,11 4,10 3,10 2,20 1,27 12,10 16,-6 16,-7 3,-6 4,-12 4,-21 1,-12 -3,-25 -10,-36 -7,-12 -16,-21 -26,-27z"/>
 </g>
</svg>
