<?xml version="1.0" encoding="UTF-8"?>
<!DOCTYPE svg PUBLIC "-//W3C//DTD SVG 1.1//EN" "http://www.w3.org/Graphics/SVG/1.1/DTD/svg11.dtd">
<!-- Creator: CorelDRAW X7 -->
<svg xmlns="http://www.w3.org/2000/svg" xml:space="preserve" width="1.83107in" height="3.09873in" version="1.1" style="shape-rendering:geometricPrecision; text-rendering:geometricPrecision; image-rendering:optimizeQuality; fill-rule:evenodd; clip-rule:evenodd"
viewBox="0 0 631 1069"
 xmlns:xlink="http://www.w3.org/1999/xlink">
 <defs>
  <style type="text/css">
   <![CDATA[
    .fil0 {fill:#211D1A;fill-rule:nonzero}
    .fil1 {fill:#2F2A28;fill-rule:nonzero}
    .fil3 {fill:#5D5956;fill-rule:nonzero}
    .fil4 {fill:#D6D1CF;fill-rule:nonzero}
    .fil7 {fill:#F9EBD4;fill-rule:nonzero}
    .fil6 {fill:#D6D1CF;fill-rule:nonzero;fill-opacity:0.200000}
    .fil2 {fill:#5D5956;fill-rule:nonzero;fill-opacity:0.400000}
    .fil5 {fill:#2F2A28;fill-rule:nonzero;fill-opacity:0.600000}
    .fil8 {fill:#D6D1CF;fill-rule:nonzero;fill-opacity:0.600000}
   ]]>
  </style>
 </defs>
 <g id="Objects">
  <metadata id="CorelCorpID_0Corel-Layer"/>
  <polygon class="fil0" points="485,504 606,504 606,451 485,451 "/>
  <path class="fil1" d="M585 530c0,4 4,8 8,8l30 0c5,0 8,-4 8,-8l0 -104c0,-5 -3,-9 -8,-9l-30 0c-4,0 -8,4 -8,9l0 104z"/>
  <path class="fil1" d="M35 619c0,-3 -3,-6 -6,-6l-23 0c-3,0 -6,3 -6,6l0 79c0,3 3,6 6,6l23 0c3,0 6,-3 6,-6l0 -79z"/>
  <path class="fil1" d="M35 767c0,-4 -3,-7 -6,-7l-23 0c-3,0 -6,3 -6,7l0 78c0,4 3,7 6,7l23 0c3,0 6,-3 6,-7l0 -78z"/>
  <path class="fil0" d="M435 294l0 -258c0,-20 -16,-36 -36,-36l-224 0c-20,0 -36,16 -36,36l0 258 296 0z"/>
  <path class="fil2" d="M176 294l0 -257 222 0 0 257 14 0 0 -258c0,-8 -5,-14 -13,-14l-224 0c-8,0 -14,6 -14,14l0 258 15 0z"/>
  <path class="fil1" d="M337 190c0,4 -3,8 -7,8l-86 0c-4,0 -8,-4 -8,-8l0 -86c0,-4 4,-7 8,-7l86 0c4,0 7,3 7,7l0 86z"/>
  <path class="fil3" d="M326 147c0,22 -18,39 -39,39 -22,0 -39,-17 -39,-39 0,-21 17,-39 39,-39 21,0 39,18 39,39z"/>
  <path class="fil4" d="M308 147c0,12 -9,21 -21,21 -12,0 -21,-9 -21,-21 0,-12 9,-21 21,-21 12,0 21,9 21,21z"/>
  <path class="fil1" d="M245 113c-2,0 -5,-1 -6,-2l-46 -46c-4,-4 -4,-9 0,-12 3,-3 8,-3 12,0l46 46c3,3 3,8 0,12 -2,1 -4,2 -6,2z"/>
  <path class="fil1" d="M329 113c2,0 4,-1 6,-2l46 -46c3,-4 3,-9 0,-12 -3,-3 -8,-3 -12,0l-46 46c-3,3 -3,8 0,12 2,1 4,2 6,2z"/>
  <path class="fil1" d="M245 181c-2,0 -5,1 -6,2l-46 46c-4,4 -4,9 0,12 3,4 8,4 12,0l46 -46c3,-3 3,-8 0,-12 -2,-1 -4,-2 -6,-2z"/>
  <path class="fil1" d="M329 181c2,0 4,1 6,2l46 46c3,4 3,9 0,12 -3,4 -8,4 -12,0l-46 -46c-3,-3 -3,-8 0,-12 2,-1 4,-2 6,-2z"/>
  <path class="fil3" d="M437 1069c2,0 5,0 7,-1 -2,1 -5,1 -7,1l0 0zm-419 -689l0 0 0 569c0,56 38,103 89,116l0 -801c-51,13 -89,60 -89,116zm449 685l0 0 0 0c-3,0 -5,1 -7,1 2,0 4,-1 7,-1zm-7 -802l0 0c2,0 4,1 7,1l0 0c-3,0 -5,-1 -7,-1zm7 1l0 0 0 801c51,-13 89,-60 89,-116l0 -569c0,-56 -38,-102 -89,-116z"/>
  <path class="fil3" d="M437 1069c2,0 5,0 7,-1 -2,1 -5,1 -7,1l0 0zm-419 -689l0 0 0 569c0,56 38,103 89,116l0 -801c-51,13 -89,60 -89,116zm449 685l0 0 0 0c-3,0 -5,1 -7,1 2,0 4,-1 7,-1zm-7 -802l0 0c2,0 4,1 7,1l0 0c-3,0 -5,-1 -7,-1zm7 1l0 0 0 801c51,-13 89,-60 89,-116l0 -569c0,-56 -38,-102 -89,-116z"/>
  <path class="fil1" d="M467 264c-10,-2 -20,-3 -30,-3l-300 0c-10,0 -20,1 -30,3l0 801c10,2 20,4 30,4l300 0c10,0 20,-2 30,-4l0 -801z"/>
  <path class="fil4" d="M419 869c0,73 -59,132 -132,132 -73,0 -132,-59 -132,-132 0,-73 59,-132 132,-132 73,0 132,59 132,132z"/>
  <path class="fil5" d="M406 869c0,66 -53,119 -119,119 -66,0 -119,-53 -119,-119 0,-66 53,-119 119,-119 66,0 119,53 119,119z"/>
  <path class="fil6" d="M287 957c-49,0 -88,-39 -88,-88 0,-48 39,-88 88,-88 48,0 88,40 88,88 0,49 -40,88 -88,88z"/>
  <path class="fil5" d="M348 869c0,34 -27,61 -61,61 -34,0 -61,-27 -61,-61 0,-34 27,-61 61,-61 34,0 61,27 61,61z"/>
  <path class="fil1" d="M330 869c0,24 -19,43 -43,43 -24,0 -43,-19 -43,-43 0,-24 19,-43 43,-43 24,0 43,19 43,43z"/>
  <path class="fil7" d="M293 856c0,8 -6,14 -14,14 -8,0 -14,-6 -14,-14 0,-7 6,-13 14,-13 8,0 14,6 14,13z"/>
  <path class="fil4" d="M419 573c0,73 -59,132 -132,132 -73,0 -132,-59 -132,-132 0,-73 59,-132 132,-132 73,0 132,59 132,132z"/>
  <path class="fil5" d="M406 573c0,65 -53,119 -119,119 -66,0 -119,-54 -119,-119 0,-66 53,-119 119,-119 66,0 119,53 119,119z"/>
  <path class="fil6" d="M287 661c-49,0 -88,-40 -88,-88 0,-49 39,-88 88,-88 48,0 88,39 88,88 0,48 -40,88 -88,88z"/>
  <path class="fil5" d="M348 573c0,34 -27,61 -61,61 -34,0 -61,-27 -61,-61 0,-34 27,-61 61,-61 34,0 61,27 61,61z"/>
  <path class="fil1" d="M330 573c0,23 -19,43 -43,43 -24,0 -43,-20 -43,-43 0,-24 19,-43 43,-43 24,0 43,19 43,43z"/>
  <path class="fil7" d="M293 560c0,8 -6,14 -14,14 -8,0 -14,-6 -14,-14 0,-7 6,-14 14,-14 8,0 14,7 14,14z"/>
  <path class="fil8" d="M191 1012c0,16 -14,30 -30,30 -17,0 -30,-14 -30,-30 0,-17 13,-30 30,-30 16,0 30,13 30,30z"/>
  <path class="fil8" d="M209 412c0,10 -8,17 -17,17 -10,0 -17,-7 -17,-17 0,-9 7,-17 17,-17 9,0 17,8 17,17z"/>
  <path class="fil8" d="M399 412c0,10 -8,17 -17,17 -9,0 -17,-7 -17,-17 0,-9 8,-17 17,-17 9,0 17,8 17,17z"/>
  <path class="fil3" d="M412 303c0,2 -1,3 -3,3l-244 0c-2,0 -4,-1 -4,-3 0,-2 2,-4 4,-4l244 0c2,0 3,2 3,4z"/>
  <path class="fil3" d="M412 329c0,2 -1,4 -3,4l-244 0c-2,0 -4,-2 -4,-4 0,-2 2,-3 4,-3l244 0c2,0 3,1 3,3z"/>
  <path class="fil3" d="M412 356c0,2 -1,4 -3,4l-244 0c-2,0 -4,-2 -4,-4 0,-2 2,-4 4,-4l244 0c2,0 3,2 3,4z"/>
 </g>
</svg>
