<?xml version="1.0" encoding="UTF-8"?>
<!DOCTYPE svg PUBLIC "-//W3C//DTD SVG 1.1//EN" "http://www.w3.org/Graphics/SVG/1.1/DTD/svg11.dtd">
<!-- Creator: CorelDRAW X7 -->
<svg xmlns="http://www.w3.org/2000/svg" xml:space="preserve" width="1.61372in" height="0.977976in" version="1.1" style="shape-rendering:geometricPrecision; text-rendering:geometricPrecision; image-rendering:optimizeQuality; fill-rule:evenodd; clip-rule:evenodd"
viewBox="0 0 775 469"
 xmlns:xlink="http://www.w3.org/1999/xlink">
 <defs>
  <style type="text/css">
   <![CDATA[
    .fil0 {fill:#2B4446;fill-rule:nonzero}
   ]]>
  </style>
 </defs>
 <g id="__x0023_Layer_x0020_1">
  <metadata id="CorelCorpID_0Corel-Layer"/>
  <path class="fil0" d="M387 47c99,0 183,45 236,83 63,45 95,88 103,105 -8,16 -40,60 -103,105 -53,37 -137,83 -236,83 -99,0 -182,-46 -235,-83 -63,-45 -95,-89 -104,-105 9,-17 41,-60 104,-105 53,-38 136,-83 235,-83zm0 -47l0 0c-214,0 -387,188 -387,235 0,47 173,234 387,234 214,0 388,-187 388,-234 0,-47 -174,-235 -388,-235zm0 94l0 0c-77,0 -141,63 -141,141 0,78 64,141 141,141 78,0 141,-63 141,-141 0,-78 -63,-141 -141,-141zm-38 141l0 0c-32,0 -59,-27 -59,-60 0,-33 27,-59 59,-59 33,0 60,26 60,59 0,33 -27,60 -60,60z"/>
 </g>
</svg>
