<?xml version="1.0" encoding="UTF-8"?>
<!DOCTYPE svg PUBLIC "-//W3C//DTD SVG 1.1//EN" "http://www.w3.org/Graphics/SVG/1.1/DTD/svg11.dtd">
<!-- Creator: CorelDRAW X7 -->
<svg xmlns="http://www.w3.org/2000/svg" xml:space="preserve" width="1.36935in" height="1.94069in" version="1.1" style="shape-rendering:geometricPrecision; text-rendering:geometricPrecision; image-rendering:optimizeQuality; fill-rule:evenodd; clip-rule:evenodd"
viewBox="0 0 1396 1979"
 xmlns:xlink="http://www.w3.org/1999/xlink">
 <defs>
  <style type="text/css">
   <![CDATA[
    .fil0 {fill:black;fill-rule:nonzero}
   ]]>
  </style>
 </defs>
 <g id="Objects">
  <metadata id="CorelCorpID_0Corel-Layer"/>
  <path class="fil0" d="M1390 1883l-191 -404 57 -35c20,-12 26,-38 14,-58 -13,-20 -39,-26 -59,-14l-49 30 -188 -396c-11,-24 -35,-39 -61,-39l-51 0 0 -269c84,-14 147,-86 147,-173 0,-97 -79,-176 -176,-176l-116 0c-97,-145 -309,-250 -562,-268l0 -3c0,-43 -34,-78 -77,-78 -43,0 -78,35 -78,78l0 894c0,43 35,78 78,78 43,0 77,-35 77,-78l0 -3c253,-18 465,-123 562,-268l10 0 0 266 -50 0c-26,0 -50,15 -61,39l-188 396 -49 -30c-21,-12 -47,-6 -59,14 -12,20 -6,46 14,58l57 35 -191 404c-16,33 -2,74 32,89 34,16 74,2 90,-32l185 -390 266 163c6,4 14,6 22,6 8,0 15,-2 22,-6l266 -163 185 390c12,25 36,39 61,39 10,0 19,-2 29,-7 33,-15 48,-56 32,-89zm-557 -1453l0 0c52,0 94,43 94,95 0,52 -42,94 -94,94l-76 0c10,-30 16,-62 16,-94 0,-33 -6,-64 -16,-95l76 0zm-114 672l0 0 8 0 0 467c0,6 2,12 3,18l-186 -114 175 -371zm140 485l0 0c2,-6 3,-12 3,-18l0 -467 8 0 176 371 -187 114z"/>
 </g>
</svg>
