<?xml version="1.0" encoding="UTF-8"?>
<!DOCTYPE svg PUBLIC "-//W3C//DTD SVG 1.1//EN" "http://www.w3.org/Graphics/SVG/1.1/DTD/svg11.dtd">
<!-- Creator: CorelDRAW X7 -->
<svg xmlns="http://www.w3.org/2000/svg" xml:space="preserve" width="3.73763in" height="2.38779in" version="1.1" style="shape-rendering:geometricPrecision; text-rendering:geometricPrecision; image-rendering:optimizeQuality; fill-rule:evenodd; clip-rule:evenodd"
viewBox="0 0 7610 4862"
 xmlns:xlink="http://www.w3.org/1999/xlink">
 <defs>
  <style type="text/css">
   <![CDATA[
    .fil0 {fill:#4D4D4D}
    .fil1 {fill:#C1D6CF}
   ]]>
  </style>
 </defs>
 <g id="Objects">
  <metadata id="CorelCorpID_0Corel-Layer"/>
  <path class="fil0" d="M7297 1289c185,86 313,273 313,489l0 426c0,216 -128,404 -313,490l0 -1032 55 0c20,0 36,-16 36,-36l0 -110c0,-20 -16,-37 -36,-37l-55 0 0 -190zm-226 -51l0 0c80,0 157,18 226,51l0 190 -55 0c-20,0 -36,17 -36,37l0 110c0,20 16,36 36,36l55 0 0 1032c-69,32 -146,50 -226,50l-94 0 0 -1082 55 0c20,0 36,-16 36,-36l0 -110c0,-20 -16,-37 -36,-37l-55 0 0 -241 94 0zm-94 1506l0 0 -108 0c-75,0 -149,16 -213,50l0 -1132 55 0c20,0 36,-16 36,-36l0 -110c0,-20 -16,-37 -36,-37l-55 0 0 -241 321 0 0 241 -56 0c-19,0 -36,17 -36,37l0 110c0,20 17,36 36,36l56 0 0 1082zm-321 50l0 0c-121,64 -209,193 -209,402l0 359c0,123 -42,237 -112,328l0 -2221 55 0c20,0 36,-16 36,-36l0 -110c0,-20 -16,-37 -36,-37l-55 0 0 -241 321 0 0 241 -55 0c-20,0 -36,17 -36,37l0 110c0,20 16,36 36,36l55 0 0 1132zm-321 1089l0 0c-78,101 -191,175 -320,201l0 -175 55 0c20,0 36,-16 36,-36l0 -110c0,-20 -16,-36 -36,-36l-55 0 0 -2065 55 0c20,0 36,-16 36,-36l0 -110c0,-20 -16,-37 -36,-37l-55 0 0 -241 320 0 0 241 -55 0c-20,0 -36,17 -36,37l0 110c0,20 16,36 36,36l55 0 0 2221zm-320 201l0 0c-35,7 -71,11 -108,11l-213 0 0 -186 55 0c20,0 36,-16 36,-36l0 -110c0,-20 -16,-36 -36,-36l-55 0 0 -2065 55 0c20,0 36,-16 36,-36l0 -110c0,-20 -16,-37 -36,-37l-55 0 0 -241 321 0 0 241 -55 0c-20,0 -36,17 -36,37l0 110c0,20 16,36 36,36l55 0 0 2065 -55 0c-20,0 -36,16 -36,36l0 110c0,20 16,36 36,36l55 0 0 175zm-321 11l0 0 -321 0 0 -186 56 0c19,0 36,-16 36,-36l0 -110c0,-20 -17,-36 -36,-36l-56 0 0 -2065 56 0c19,0 36,-16 36,-36l0 -110c0,-20 -17,-37 -36,-37l-56 0 0 -241 321 0 0 241 -55 0c-20,0 -36,17 -36,37l0 110c0,20 16,36 36,36l55 0 0 2065 -55 0c-20,0 -36,16 -36,36l0 110c0,20 16,36 36,36l55 0 0 186zm-321 0l0 0 -320 0 0 -186 55 0c20,0 36,-16 36,-36l0 -110c0,-20 -16,-36 -36,-36l-55 0 0 -2065 55 0c20,0 36,-16 36,-36l0 -110c0,-20 -16,-37 -36,-37l-55 0 0 -241 320 0 0 241 -55 0c-20,0 -36,17 -36,37l0 110c0,20 16,36 36,36l55 0 0 2065 -55 0c-20,0 -36,16 -36,36l0 110c0,20 16,36 36,36l55 0 0 186zm-320 0l0 0 -321 0 0 -186 55 0c20,0 36,-16 36,-36l0 -110c0,-20 -16,-36 -36,-36l-55 0 0 -2065 55 0c20,0 36,-16 36,-36l0 -110c0,-20 -16,-37 -36,-37l-55 0 0 -241 321 0 0 241 -55 0c-20,0 -36,17 -36,37l0 110c0,20 16,36 36,36l55 0 0 2065 -55 0c-20,0 -36,16 -36,36l0 110c0,20 16,36 36,36l55 0 0 186zm-321 0l0 0 -321 0 0 -186 56 0c19,0 36,-16 36,-36l0 -110c0,-20 -17,-36 -36,-36l-56 0 0 -2065 56 0c19,0 36,-16 36,-36l0 -110c0,-20 -17,-37 -36,-37l-56 0 0 -241 321 0 0 241 -55 0c-20,0 -36,17 -36,37l0 110c0,20 16,36 36,36l55 0 0 2065 -55 0c-20,0 -36,16 -36,36l0 110c0,20 16,36 36,36l55 0 0 186zm-321 0l0 0 -320 0 0 -186 55 0c20,0 36,-16 36,-36l0 -110c0,-20 -16,-36 -36,-36l-55 0 0 -2065 55 0c20,0 36,-16 36,-36l0 -110c0,-20 -16,-37 -36,-37l-55 0 0 -241 320 0 0 241 -55 0c-19,0 -36,17 -36,37l0 110c0,20 17,36 36,36l55 0 0 2065 -55 0c-19,0 -36,16 -36,36l0 110c0,20 17,36 36,36l55 0 0 186zm-320 0l0 0 -321 0 0 -186 55 0c20,0 36,-16 36,-36l0 -110c0,-20 -16,-36 -36,-36l-55 0 0 -2065 55 0c20,0 36,-16 36,-36l0 -110c0,-20 -16,-37 -36,-37l-55 0 0 -241 321 0 0 241 -55 0c-20,0 -36,17 -36,37l0 110c0,20 16,36 36,36l55 0 0 2065 -55 0c-20,0 -36,16 -36,36l0 110c0,20 16,36 36,36l55 0 0 186zm-321 0l0 0 -320 0 0 -186 55 0c19,0 36,-16 36,-36l0 -110c0,-20 -17,-36 -36,-36l-55 0 0 -2065 55 0c19,0 36,-16 36,-36l0 -110c0,-20 -17,-37 -36,-37l-55 0 0 -241 320 0 0 241 -55 0c-20,0 -36,17 -36,37l0 110c0,20 16,36 36,36l55 0 0 2065 -55 0c-20,0 -36,16 -36,36l0 110c0,20 16,36 36,36l55 0 0 186zm-320 0l0 0 -321 0 0 -186 55 0c20,0 36,-16 36,-36l0 -110c0,-20 -16,-36 -36,-36l-55 0 0 -2065 55 0c20,0 36,-16 36,-36l0 -110c0,-20 -16,-37 -36,-37l-55 0 0 -241 321 0 0 241 -56 0c-19,0 -36,17 -36,37l0 110c0,20 17,36 36,36l56 0 0 2065 -56 0c-19,0 -36,16 -36,36l0 110c0,20 17,36 36,36l56 0 0 186zm-321 0l0 0 -321 0 0 -186 55 0c20,0 36,-16 36,-36l0 -110c0,-20 -16,-36 -36,-36l-55 0 0 -2065 55 0c20,0 36,-16 36,-36l0 -110c0,-20 -16,-37 -36,-37l-55 0 0 -241 321 0 0 241 -55 0c-20,0 -36,17 -36,37l0 110c0,20 16,36 36,36l55 0 0 2065 -55 0c-20,0 -36,16 -36,36l0 110c0,20 16,36 36,36l55 0 0 186zm-321 0l0 0 -421 0 0 -2857 421 0 0 241 -55 0c-20,0 -36,17 -36,37l0 110c0,20 16,36 36,36l55 0 0 2065 -55 0c-20,0 -36,16 -36,36l0 110c0,20 16,36 36,36l55 0 0 186z"/>
  <polygon class="fil0" points="236,4482 2612,4482 2612,852 236,852 "/>
  <polygon class="fil0" points="0,852 2847,852 2847,471 0,471 "/>
  <polygon class="fil1" points="0,966 2847,966 2847,852 0,852 "/>
  <polygon class="fil0" points="0,4862 2847,4862 2847,4482 0,4482 "/>
  <polygon class="fil1" points="0,4482 2847,4482 2847,4368 0,4368 "/>
  <polygon class="fil0" points="930,662 1918,662 1918,0 930,0 "/>
  <polygon class="fil1" points="930,471 1918,471 1918,357 930,357 "/>
  <path class="fil1" d="M1958 1251c245,0 445,187 445,415l0 2001c0,229 -200,416 -445,416 -847,0 -222,0 -1068,0 -245,0 -445,-187 -445,-416l0 -2001c0,-228 200,-415 445,-415 846,0 221,0 1068,0z"/>
 </g>
</svg>
