<?xml version="1.0" encoding="UTF-8"?>
<!DOCTYPE svg PUBLIC "-//W3C//DTD SVG 1.1//EN" "http://www.w3.org/Graphics/SVG/1.1/DTD/svg11.dtd">
<!-- Creator: CorelDRAW X7 -->
<svg xmlns="http://www.w3.org/2000/svg" xml:space="preserve" width="0.877516in" height="0.605402in" version="1.1" style="shape-rendering:geometricPrecision; text-rendering:geometricPrecision; image-rendering:optimizeQuality; fill-rule:evenodd; clip-rule:evenodd"
viewBox="0 0 101 70"
 xmlns:xlink="http://www.w3.org/1999/xlink">
 <defs>
  <style type="text/css">
   <![CDATA[
    .fil1 {fill:#74CBF2}
    .fil0 {fill:#777876}
   ]]>
  </style>
 </defs>
 <g id="Layer_x0020_1">
  <metadata id="CorelCorpID_0Corel-Layer"/>
  <path class="fil0" d="M67 16c0,-1 0,-2 0,-3l0 -7c0,-3 -2,-6 -6,-6l-41 0c-3,0 -6,3 -6,6 0,3 3,6 6,6l32 0c2,0 4,1 4,3 0,0 0,0 -1,1l-51 0c-2,0 -4,2 -4,4l0 46c0,2 2,4 4,4l72 0 0 -54 -9 0z"/>
  <path class="fil1" d="M62 21c3,0 6,3 6,6 0,3 -3,5 -6,5 -3,0 -6,-2 -6,-5 1,-3 3,-6 6,-6l0 0z"/>
  <polygon class="fil1" points="8,56 64,56 64,62 8,62 "/>
  <polygon class="fil0" points="97,19 97,19 78,31 78,54 97,66 101,66 101,19 "/>
 </g>
</svg>
