<?xml version="1.0" encoding="UTF-8"?>
<!DOCTYPE svg PUBLIC "-//W3C//DTD SVG 1.1//EN" "http://www.w3.org/Graphics/SVG/1.1/DTD/svg11.dtd">
<!-- Creator: CorelDRAW X7 -->
<svg xmlns="http://www.w3.org/2000/svg" xml:space="preserve" width="1.86361in" height="2.74407in" version="1.1" style="shape-rendering:geometricPrecision; text-rendering:geometricPrecision; image-rendering:optimizeQuality; fill-rule:evenodd; clip-rule:evenodd"
viewBox="0 0 383 565"
 xmlns:xlink="http://www.w3.org/1999/xlink">
 <defs>
  <style type="text/css">
   <![CDATA[
    .fil0 {fill:#050103}
   ]]>
  </style>
 </defs>
 <g id="objects">
  <metadata id="CorelCorpID_0Corel-Layer"/>
  <path class="fil0" d="M187 260c1,9 19,44 20,49 2,5 18,10 20,12 2,2 0,1 -1,2 -2,1 -4,2 -6,3 -2,0 -3,0 -8,-1 -4,-2 -4,-1 -9,-4 -5,-3 -24,-9 -47,-17 -23,-7 -59,-15 -59,-15 0,0 10,-7 20,-16 10,-10 33,-37 33,-37 0,0 4,3 6,3 2,1 6,2 10,-1 4,-3 5,-9 5,-10 0,-1 3,-1 4,2 2,4 2,7 7,12 5,6 3,9 5,18zm-33 -132l0 0c-18,5 -42,13 -46,14 -6,2 -17,5 -17,5l0 -15c0,-1 0,-3 0,-5l0 -28c2,0 5,-1 7,-2 0,0 1,0 2,1 1,0 2,2 2,4 0,2 -1,2 0,3 0,1 2,1 2,1 0,1 0,1 0,3 0,1 1,1 2,1 1,1 2,3 4,4 2,1 2,2 2,4 0,2 1,9 10,9 9,0 26,-5 27,-5 1,1 4,4 5,6zm-95 -3l0 0c-2,23 -4,48 -2,51 1,1 4,2 8,2 0,21 -1,43 0,50 2,16 7,28 8,33 1,6 0,14 1,18 2,4 2,5 2,5 0,0 -17,-1 -24,2 -7,4 -17,10 -20,18 -3,9 -2,27 2,35 4,8 36,82 42,100 7,19 10,32 10,37 0,5 6,8 6,10 1,3 2,6 2,8 0,2 0,6 1,9 1,3 19,6 19,6 0,0 -14,12 -21,14 -7,2 -22,7 -27,8 -5,1 -19,3 -21,4 -3,1 -3,7 -3,9 1,2 6,4 7,5 2,0 3,0 4,1 1,1 30,6 46,6 15,1 41,-1 55,3 14,4 36,1 37,-1 1,-2 1,-7 2,-11 1,-4 1,-15 -2,-23 -2,-7 -2,-9 -2,-9l78 4c10,0 11,3 22,4 11,1 20,5 21,3 2,-1 6,-5 6,-5 0,0 2,12 3,14 1,2 0,7 0,7 0,0 -12,3 -15,5 -3,1 -4,5 -4,6 -1,0 -1,4 0,6 1,3 29,8 38,5 10,-3 21,-20 25,-26 4,-6 2,-16 4,-23 2,-6 10,-26 14,-34 4,-8 3,-15 1,-17 -2,-2 -7,-2 -7,-4 0,-1 -5,-3 -12,-6 -7,-3 -18,-3 -21,-4 -2,0 -2,3 -4,3 -2,1 -22,4 -24,2 -2,-2 -4,-2 -9,-2 -4,0 -11,1 -15,1 -3,-1 -3,-2 -10,-1 -6,2 -34,3 -37,3 -3,1 -7,1 -7,1 0,0 31,-8 38,-10 6,-2 5,-3 7,-3 3,1 12,-1 12,-1 1,0 1,0 3,-1 2,-1 12,-7 18,-8 5,-2 23,-12 29,-20 7,-9 8,-13 7,-15 0,-1 1,-3 1,-3 0,0 3,-44 4,-46 0,-2 -3,-11 -6,-15 -3,-4 -4,-4 -4,-4 0,0 -2,-7 -4,-17 12,-7 20,-19 32,-38 7,-12 -14,-66 -23,-78 -10,-13 -9,-19 -9,-19 0,0 9,-12 5,-26 -4,-14 -15,-35 -27,-47 -12,-12 -16,-16 -34,-20 -7,-2 -12,0 -17,2 -8,-3 -17,0 -24,1 -3,1 -6,1 -9,2 -5,-3 -10,-4 -15,-5 0,-2 -1,-4 -2,-5 -1,-2 -4,-5 -5,-5 -1,0 -6,1 -6,1l-9 3c0,0 -6,-4 -5,-9 1,-4 -3,-37 -6,-46 -3,-10 -16,-21 -25,-24 -8,-2 -19,-1 -31,1 -10,2 -33,12 -33,24 -2,-1 -6,-4 -6,-4 0,0 0,-2 0,-3 -1,-1 -9,-3 -11,-2 -1,0 -2,-1 -4,-1 -1,1 -3,2 -5,3 -1,1 -14,11 -16,13 -2,3 -1,4 -2,6 -2,2 -1,5 -2,10 0,4 1,4 2,5l2 2c0,0 -2,0 -3,1 0,0 0,0 -1,0 0,0 -2,0 -3,0 0,-1 -1,-1 -1,-1 -1,0 -4,-1 -5,0 0,0 -1,0 -1,0 0,0 -1,-1 -2,-1 0,0 -16,-1 -17,-1 0,0 -2,1 -2,1l-1 0c0,0 -1,-2 -1,-3 0,0 -12,-1 -12,-1 -1,1 1,2 2,3 0,1 0,1 0,1 0,0 -5,2 -6,2 -2,1 -3,3 -3,3 0,1 0,25 0,26 0,1 8,4 8,4 0,0 0,0 0,1 -1,0 -3,1 -3,2 0,0 13,0 13,-1 0,0 1,-2 1,-2 0,0 1,1 1,1 0,0 1,1 1,1 1,0 13,0 13,0 0,0 11,10 14,14 3,4 4,5 5,9 0,2 3,6 6,11zm36 55l0 0c6,0 12,0 16,-1 5,0 11,-1 17,-2 -3,7 -4,12 -5,13 0,1 0,1 -2,3 -1,3 -3,6 -5,7 -1,1 -4,7 -5,8 -1,1 0,3 0,5 0,1 -9,13 -9,13 0,0 -1,-3 -3,-12 0,-4 -2,-18 -4,-34zm38 197l0 0c17,11 44,21 51,24 0,0 -7,5 -11,8 -4,3 -3,4 -9,7 -5,3 -21,16 -23,18 -2,2 -5,-18 -13,-38 -8,-20 -22,-38 -22,-38 0,0 11,8 27,19z"/>
 </g>
</svg>
