<?xml version="1.0" encoding="UTF-8"?>
<!DOCTYPE svg PUBLIC "-//W3C//DTD SVG 1.1//EN" "http://www.w3.org/Graphics/SVG/1.1/DTD/svg11.dtd">
<!-- Creator: CorelDRAW X7 -->
<svg xmlns="http://www.w3.org/2000/svg" xml:space="preserve" width="1.91418in" height="1.75472in" version="1.1" style="shape-rendering:geometricPrecision; text-rendering:geometricPrecision; image-rendering:optimizeQuality; fill-rule:evenodd; clip-rule:evenodd"
viewBox="0 0 397 364"
 xmlns:xlink="http://www.w3.org/1999/xlink">
 <defs>
  <style type="text/css">
   <![CDATA[
    .fil0 {fill:black;fill-rule:nonzero}
   ]]>
  </style>
 </defs>
 <g id="Objects">
  <metadata id="CorelCorpID_0Corel-Layer"/>
  <path class="fil0" d="M371 110l-12 0 0 -35 22 0c8,0 14,-5 14,-13l0 -49c0,-7 -6,-13 -14,-13l-121 0c-7,0 -13,6 -13,13l0 49c0,8 6,13 13,13l22 0 0 35 -39 0c52,19 90,69 90,127 0,59 -38,109 -90,127l128 0c15,0 26,-11 26,-26l0 -202c0,-14 -11,-26 -26,-26zm-101 -57l0 0 0 -30 102 0 0 30 -102 0zm87 113l0 0c-10,0 -18,-8 -18,-17 0,-10 8,-17 18,-17 9,0 17,7 17,17 0,9 -8,17 -17,17z"/>
  <path class="fil0" d="M64 237c0,-58 38,-108 90,-127l-36 0 0 -14c0,-7 -6,-12 -13,-12l-49 0c-7,0 -12,5 -12,12l0 14 -18 0c-14,0 -26,12 -26,26l0 202c0,15 12,26 26,26l128 0c-52,-18 -90,-68 -90,-127z"/>
  <path class="fil0" d="M310 237c0,-62 -50,-112 -111,-112 -62,0 -112,50 -112,112 0,62 50,112 112,112 61,0 111,-50 111,-112z"/>
 </g>
</svg>
