<?xml version="1.0" encoding="UTF-8"?>
<!DOCTYPE svg PUBLIC "-//W3C//DTD SVG 1.1//EN" "http://www.w3.org/Graphics/SVG/1.1/DTD/svg11.dtd">
<!-- Creator: CorelDRAW X7 -->
<svg xmlns="http://www.w3.org/2000/svg" xml:space="preserve" width="0.722248in" height="0.944524in" version="1.1" style="shape-rendering:geometricPrecision; text-rendering:geometricPrecision; image-rendering:optimizeQuality; fill-rule:evenodd; clip-rule:evenodd"
viewBox="0 0 82 107"
 xmlns:xlink="http://www.w3.org/1999/xlink">
 <defs>
  <style type="text/css">
   <![CDATA[
    .fil0 {fill:#2B4446;fill-rule:nonzero}
   ]]>
  </style>
 </defs>
 <g id="__x0023_Layer_x0020_1">
  <metadata id="CorelCorpID_0Corel-Layer"/>
  <path class="fil0" d="M73 54l-6 0c-1,0 -2,-1 -2,-2l-3 -5c-1,-3 -4,-4 -7,-4l-1 0 0 -2c1,0 1,0 1,-1l0 -2 4 0c4,0 6,-3 6,-7l0 -25c0,-3 -2,-6 -6,-6l-20 0c-4,0 -6,3 -6,6l0 25c0,4 2,7 6,7l4 0 0 2c0,1 0,1 1,1l0 2 -1 0c-3,0 -6,1 -7,4l-3 5c0,1 -1,2 -2,2l-11 0c-1,0 -1,0 -1,-1l-1 0c0,-1 -1,-1 -2,-1l-2 0c-1,0 -2,0 -2,1l0 0c-1,1 -1,1 -1,1l-2 0c-5,0 -9,4 -9,9l0 35c0,5 4,9 9,9l64 0c5,0 9,-4 9,-9l0 -35c0,-5 -4,-9 -9,-9zm-34 -35l0 0c-2,0 -4,-2 -4,-4l0 -9c0,-2 2,-3 4,-3l20 0c2,0 4,1 4,3l0 9c0,2 -2,4 -4,4l-20 0zm9 22l0 0 2 0 0 2 -2 0 0 -2zm-22 28l0 0c-2,0 -3,-1 -3,-3 0,-2 1,-3 3,-3 2,0 3,1 3,3 0,2 -1,3 -3,3zm22 30l0 0c-10,0 -19,-8 -19,-19 0,-11 9,-20 19,-20 11,0 20,9 20,20 0,11 -9,19 -20,19zm16 -19l0 0c0,8 -7,16 -16,16 -8,0 -15,-8 -15,-16 0,-9 7,-16 15,-16 9,0 16,7 16,16z"/>
 </g>
</svg>
