<?xml version="1.0" encoding="UTF-8"?>
<!DOCTYPE svg PUBLIC "-//W3C//DTD SVG 1.1//EN" "http://www.w3.org/Graphics/SVG/1.1/DTD/svg11.dtd">
<!-- Creator: CorelDRAW X7 -->
<svg xmlns="http://www.w3.org/2000/svg" xml:space="preserve" width="0.877559in" height="0.602713in" version="1.1" style="shape-rendering:geometricPrecision; text-rendering:geometricPrecision; image-rendering:optimizeQuality; fill-rule:evenodd; clip-rule:evenodd"
viewBox="0 0 434 298"
 xmlns:xlink="http://www.w3.org/1999/xlink">
 <defs>
  <style type="text/css">
   <![CDATA[
    .fil1 {fill:#FEFEFE}
    .fil2 {fill:#74CBF2}
    .fil0 {fill:#777876}
   ]]>
  </style>
 </defs>
 <g id="Layer_x0020_1">
  <metadata id="CorelCorpID_0Corel-Layer"/>
  <path class="fil0" d="M27 243l-27 0 0 -162 27 0c15,0 27,12 27,27l0 108c0,16 -12,27 -27,27l0 0z"/>
  <path class="fil0" d="M434 54l0 217c0,15 -13,27 -27,27l-380 0c-15,0 -27,-12 -27,-27l27 0c30,0 54,-24 54,-55l0 -108c0,-29 -24,-54 -54,-54l-27 0c0,-15 12,-27 27,-27l54 0 0 -14c0,-7 6,-13 14,-13l55 0c7,0 13,6 13,13l0 14 244 0c14,0 27,12 27,27l0 0z"/>
  <polygon class="fil1" points="400,70 373,70 373,43 400,43 "/>
  <path class="fil1" d="M281 275c-60,0 -108,-49 -108,-108 0,-61 48,-109 108,-109 59,0 108,48 108,109 0,59 -49,108 -108,108l0 0z"/>
  <path class="fil2" d="M281 85c-45,0 -82,37 -82,82 0,45 37,81 82,81 44,0 81,-36 81,-81 0,-45 -37,-82 -81,-82l0 0z"/>
 </g>
</svg>
