<?xml version="1.0" encoding="UTF-8"?>
<!DOCTYPE svg PUBLIC "-//W3C//DTD SVG 1.1//EN" "http://www.w3.org/Graphics/SVG/1.1/DTD/svg11.dtd">
<!-- Creator: CorelDRAW X7 -->
<svg xmlns="http://www.w3.org/2000/svg" xml:space="preserve" width="0.702461in" height="0.491827in" version="1.1" style="shape-rendering:geometricPrecision; text-rendering:geometricPrecision; image-rendering:optimizeQuality; fill-rule:evenodd; clip-rule:evenodd"
viewBox="0 0 79 55"
 xmlns:xlink="http://www.w3.org/1999/xlink">
 <defs>
  <style type="text/css">
   <![CDATA[
    .fil0 {fill:#7B7D7F}
   ]]>
  </style>
 </defs>
 <g id="Layer_x0020_1">
  <metadata id="CorelCorpID_0Corel-Layer"/>
  <path class="fil0" d="M31 23c-1,2 -1,5 -1,8 0,2 0,5 1,7 1,2 2,4 4,6l0 0c2,2 4,3 6,4 3,1 5,2 8,2 3,0 5,-1 7,-2 2,-1 5,-2 6,-4l0 0c2,-2 4,-4 5,-6 1,-2 1,-5 1,-7 0,-3 0,-6 -1,-8 -1,-2 -3,-4 -5,-6l0 0c-1,-2 -4,-3 -6,-4 -2,-1 -4,-2 -7,-2 -3,0 -5,1 -8,2 -2,1 -4,2 -6,4l0 0c-2,2 -3,4 -4,6l0 0zm31 13c0,2 -1,4 -3,5 -1,1 -3,3 -5,3 -1,1 -3,1 -5,1 -2,0 -4,0 -6,-1 -2,0 -3,-2 -5,-3l0 0c-1,-1 -2,-3 -3,-5 -1,-2 -1,-4 -1,-5 0,-3 0,-4 1,-6l0 0c1,-2 2,-4 3,-5 2,-1 3,-3 5,-3l0 0c2,-1 4,-2 6,-2 2,0 4,1 5,2 2,0 4,2 5,3l0 0c2,1 3,3 3,5 1,2 2,3 2,6 0,1 -1,3 -2,5l0 0zm17 -25l0 39c0,1 -1,3 -2,3 -1,1 -1,1 -2,2 0,0 -1,0 -2,0l-68 0c-1,0 -1,0 -2,0l0 0c-1,-1 -1,-1 -2,-2 0,0 0,0 -1,-1 0,-1 0,-1 0,-2l0 -39c0,-1 0,-1 0,-2l0 0c1,-1 1,-1 1,-2l0 0c1,0 1,0 2,-1l0 0c1,0 1,0 2,0l1 0c0,0 0,0 0,0l0 0c0,-1 0,-1 0,-1l0 0c0,0 0,0 0,0 0,0 0,-1 0,-1 1,0 1,0 1,-1 0,0 1,0 1,0 0,0 1,0 1,0l3 0c0,0 1,0 1,0 0,0 1,0 1,0 0,1 1,1 1,1l0 0c0,0 0,1 0,1l0 0c0,0 0,0 0,0 0,1 0,1 1,1l0 0c0,0 0,0 0,0l4 0 4 0 15 0c0,0 0,0 1,0 0,-1 0,-1 0,-1l0 0c1,-1 1,-1 1,-1l0 0 1 -1c0,-1 0,-1 1,-1 0,0 1,-1 1,-1 1,0 1,-1 1,-1 1,0 1,0 2,0l11 0c0,0 1,0 1,0 1,1 1,1 2,1 0,0 0,1 1,1 0,0 0,0 1,1l0 1c0,0 0,0 1,0 0,1 0,1 0,1 0,0 1,0 1,1l0 0c0,0 0,0 1,0l7 0c2,0 3,1 4,1 0,1 1,1 1,2 0,1 1,1 1,2l0 0zm-70 5l2 0c0,0 0,0 0,0 1,0 1,0 1,0l0 0c1,-1 1,-1 1,-1l0 0c0,0 0,-1 0,-1 0,0 0,-1 0,-1 0,0 0,0 -1,-1 0,0 0,0 -1,0 0,0 0,0 0,0l-2 0c-1,0 -1,0 -2,0 0,0 0,0 0,0l0 0c0,1 -1,1 -1,1l0 0c0,0 0,1 0,1 0,0 0,1 0,1l0 0c0,0 1,0 1,1l0 0c0,0 0,0 0,0 1,0 1,0 2,0l0 0zm1 7c0,0 0,0 0,0l0 0c0,0 0,0 0,0 -1,0 -1,0 -1,0 0,0 0,0 0,0 0,0 0,0 0,0l0 0c-1,0 -1,0 -1,0 0,0 0,0 0,0l0 0c0,0 0,0 0,0 0,1 0,1 0,1l-1 0 0 24c0,0 0,0 0,0l0 0 1 0 0 0c0,0 0,0 0,0l0 0 0 1c0,0 0,0 0,0 0,0 0,0 1,0l0 0c0,0 0,0 0,0 0,0 0,0 0,0 0,0 0,0 1,0 0,0 0,0 0,0l0 0c0,0 0,0 0,0 0,0 0,0 1,0l0 -1 0 0c0,0 0,0 0,0l0 -24 0 0c0,0 0,0 0,-1l0 0c-1,0 -1,0 -1,0l0 0z"/>
 </g>
</svg>
