<?xml version="1.0" encoding="UTF-8"?>
<!DOCTYPE svg PUBLIC "-//W3C//DTD SVG 1.1//EN" "http://www.w3.org/Graphics/SVG/1.1/DTD/svg11.dtd">
<!-- Creator: CorelDRAW X7 -->
<svg xmlns="http://www.w3.org/2000/svg" xml:space="preserve" width="2.81282in" height="2.71738in" version="1.1" style="shape-rendering:geometricPrecision; text-rendering:geometricPrecision; image-rendering:optimizeQuality; fill-rule:evenodd; clip-rule:evenodd"
viewBox="0 0 1509 1457"
 xmlns:xlink="http://www.w3.org/1999/xlink">
 <defs>
  <style type="text/css">
   <![CDATA[
    .fil1 {fill:#6D7578}
    .fil4 {fill:#676E70}
    .fil0 {fill:#5D6264}
    .fil2 {fill:#545B5C}
    .fil3 {fill:#515859}
   ]]>
  </style>
 </defs>
 <g id="Layer_x0020_1">
  <metadata id="CorelCorpID_0Corel-Layer"/>
  <path class="fil0" d="M1319 1457l-395 0c-19,0 -35,-15 -35,-34l0 -63c0,-19 16,-34 35,-34l395 0c19,0 35,15 35,34l0 63c0,19 -16,34 -35,34z"/>
  <path class="fil1" d="M912 1444l0 0c-5,0 -9,-4 -9,-9l0 -63c0,-5 4,-9 9,-9l0 0c5,0 9,4 9,9l0 63c0,5 -4,9 -9,9z"/>
  <path class="fil1" d="M950 1444l0 0c-5,0 -9,-4 -9,-9l0 -62c0,-6 4,-10 9,-10 5,0 9,4 9,10l0 62c0,5 -4,9 -9,9z"/>
  <path class="fil1" d="M988 1444l0 0c-5,0 -9,-4 -9,-9l0 -62c0,-6 4,-10 9,-10 5,0 9,4 9,10l0 62c0,5 -4,9 -9,9z"/>
  <path class="fil1" d="M1026 1444l0 0c-5,0 -9,-4 -9,-9l0 -62c0,-6 4,-10 9,-10 5,0 9,4 9,10l0 62c0,5 -4,9 -9,9z"/>
  <path class="fil1" d="M1064 1444l0 0c-5,0 -9,-4 -9,-9l0 -62c0,-6 4,-10 9,-10 5,0 10,4 10,10l0 62c0,5 -5,9 -10,9z"/>
  <path class="fil1" d="M1102 1444l0 0c-5,0 -9,-4 -9,-9l0 -62c0,-6 4,-10 9,-10 5,0 10,4 10,10l0 62c0,5 -5,9 -10,9z"/>
  <path class="fil1" d="M1140 1444l0 0c-5,0 -9,-4 -9,-9l0 -62c0,-6 4,-10 9,-10 5,0 10,4 10,10l0 62c0,5 -5,9 -10,9z"/>
  <path class="fil1" d="M1178 1444l0 0c-5,0 -9,-4 -9,-9l0 -62c0,-6 4,-10 9,-10 5,0 10,4 10,10l0 62c0,5 -5,9 -10,9z"/>
  <path class="fil1" d="M1216 1444l0 0c-5,0 -9,-4 -9,-9l0 -62c0,-6 4,-10 9,-10 5,0 10,4 10,10l0 62c0,5 -5,9 -10,9z"/>
  <path class="fil1" d="M1254 1444l0 0c-5,0 -9,-4 -9,-9l0 -62c0,-6 4,-10 9,-10 6,0 10,4 10,10l0 62c0,5 -4,9 -10,9z"/>
  <path class="fil1" d="M1292 1444l0 0c-5,0 -9,-4 -9,-9l0 -62c0,-6 4,-10 9,-10 6,0 10,4 10,10l0 62c0,5 -4,9 -10,9z"/>
  <path class="fil1" d="M1330 1444l0 0c-5,0 -9,-4 -9,-9l0 -62c0,-6 4,-10 9,-10 6,0 10,4 10,10l0 62c0,5 -4,9 -10,9z"/>
  <path class="fil2" d="M1365 1315l-487 0c-19,0 -35,-15 -35,-34l0 -92c0,-19 16,-35 35,-35l487 0c19,0 34,16 34,35l0 92c0,19 -15,34 -34,34z"/>
  <path class="fil0" d="M1388 1154l-534 0c-6,0 -11,4 -11,9l0 129 556 0 0 -129c0,-5 -5,-9 -11,-9z"/>
  <polygon class="fil2" points="1399,1268 843,1268 843,1258 1399,1258 "/>
  <polygon class="fil0" points="1400,1056 843,1056 843,894 1400,894 "/>
  <polygon class="fil0" points="1420,858 823,858 823,588 1420,588 "/>
  <path class="fil2" d="M1375 1162l-507 0c-19,0 -35,-16 -35,-35l0 -62c0,-19 16,-34 35,-34l507 0c19,0 34,15 34,34l0 62c0,19 -15,35 -34,35z"/>
  <polygon class="fil0" points="847,1149 842,1149 842,1043 847,1043 "/>
  <polygon class="fil0" points="895,1149 890,1149 890,1043 895,1043 "/>
  <polygon class="fil0" points="871,1149 866,1149 866,1043 871,1043 "/>
  <polygon class="fil0" points="919,1149 914,1149 914,1043 919,1043 "/>
  <polygon class="fil0" points="943,1149 938,1149 938,1043 943,1043 "/>
  <polygon class="fil0" points="967,1149 963,1149 963,1043 967,1043 "/>
  <polygon class="fil0" points="991,1149 987,1149 987,1043 991,1043 "/>
  <polygon class="fil0" points="1039,1149 1035,1149 1035,1043 1039,1043 "/>
  <polygon class="fil0" points="1015,1149 1011,1149 1011,1043 1015,1043 "/>
  <polygon class="fil0" points="1063,1149 1059,1149 1059,1043 1063,1043 "/>
  <polygon class="fil0" points="1088,1149 1083,1149 1083,1043 1088,1043 "/>
  <polygon class="fil0" points="1112,1149 1107,1149 1107,1043 1112,1043 "/>
  <polygon class="fil0" points="1160,1149 1155,1149 1155,1043 1160,1043 "/>
  <polygon class="fil0" points="1136,1149 1131,1149 1131,1043 1136,1043 "/>
  <polygon class="fil0" points="1184,1149 1179,1149 1179,1043 1184,1043 "/>
  <polygon class="fil0" points="1208,1149 1203,1149 1203,1043 1208,1043 "/>
  <polygon class="fil0" points="1256,1149 1251,1149 1251,1043 1256,1043 "/>
  <polygon class="fil0" points="1232,1149 1227,1149 1227,1043 1232,1043 "/>
  <polygon class="fil0" points="1280,1149 1275,1149 1275,1043 1280,1043 "/>
  <polygon class="fil0" points="1304,1149 1300,1149 1300,1043 1304,1043 "/>
  <polygon class="fil0" points="1328,1149 1324,1149 1324,1043 1328,1043 "/>
  <polygon class="fil0" points="1352,1149 1348,1149 1348,1043 1352,1043 "/>
  <polygon class="fil0" points="1376,1149 1372,1149 1372,1043 1376,1043 "/>
  <polygon class="fil0" points="1400,1149 1396,1149 1396,1043 1400,1043 "/>
  <polygon class="fil2" points="1402,894 1420,858 1121,858 823,858 841,894 "/>
  <path class="fil2" d="M1393 822l-543 0c-19,0 -35,-16 -35,-35l0 -70c0,-19 16,-34 35,-34l543 0c19,0 34,15 34,34l0 70c0,19 -15,35 -34,35z"/>
  <polygon class="fil0" points="830,809 825,809 825,696 830,696 "/>
  <polygon class="fil0" points="881,809 876,809 876,696 881,696 "/>
  <polygon class="fil0" points="855,809 850,809 850,696 855,696 "/>
  <polygon class="fil0" points="906,809 901,809 901,696 906,696 "/>
  <polygon class="fil0" points="932,809 927,809 927,696 932,696 "/>
  <polygon class="fil0" points="957,809 953,809 953,696 957,696 "/>
  <polygon class="fil0" points="983,809 978,809 978,696 983,696 "/>
  <polygon class="fil0" points="1034,809 1029,809 1029,696 1034,696 "/>
  <polygon class="fil0" points="1009,809 1004,809 1004,696 1009,696 "/>
  <polygon class="fil0" points="1060,809 1055,809 1055,696 1060,696 "/>
  <polygon class="fil0" points="1085,809 1080,809 1080,696 1085,696 "/>
  <polygon class="fil0" points="1111,809 1106,809 1106,696 1111,696 "/>
  <polygon class="fil0" points="1162,809 1157,809 1157,696 1162,696 "/>
  <polygon class="fil0" points="1137,809 1132,809 1132,696 1137,696 "/>
  <polygon class="fil0" points="1188,809 1183,809 1183,696 1188,696 "/>
  <polygon class="fil0" points="1213,809 1208,809 1208,696 1213,696 "/>
  <polygon class="fil0" points="1264,809 1260,809 1260,696 1264,696 "/>
  <polygon class="fil0" points="1239,809 1234,809 1234,696 1239,696 "/>
  <polygon class="fil0" points="1290,809 1285,809 1285,696 1290,696 "/>
  <polygon class="fil0" points="1316,809 1311,809 1311,696 1316,696 "/>
  <polygon class="fil0" points="1341,809 1336,809 1336,696 1341,696 "/>
  <polygon class="fil0" points="1367,809 1362,809 1362,696 1367,696 "/>
  <polygon class="fil0" points="1392,809 1388,809 1388,696 1392,696 "/>
  <polygon class="fil0" points="1418,809 1413,809 1413,696 1418,696 "/>
  <polygon class="fil0" points="821,554 826,584 1417,584 1421,554 "/>
  <path class="fil2" d="M1406 646l-569 0c-10,0 -18,-8 -18,-18l0 -31c0,-10 8,-17 18,-17l569 0c10,0 18,7 18,17l0 31c0,10 -8,18 -18,18z"/>
  <polygon class="fil0" points="1424,616 819,616 819,609 1424,609 "/>
  <path class="fil2" d="M1500 353c-7,0 -16,18 -21,28 -5,9 -14,29 -14,29 0,0 -8,21 -16,3 -8,-17 -52,-128 -52,-128 0,0 -31,-63 -72,-63 -42,0 -105,0 -105,0l-99 0 -98 0c0,0 -63,0 -105,0 -42,0 -72,63 -72,63 0,0 -45,111 -53,128 -7,18 -15,-3 -15,-3 0,0 -10,-20 -15,-29 -5,-10 -14,-28 -21,-28 -7,0 -8,8 -8,8l2 25c0,0 6,57 11,115 6,59 64,56 64,56l310 0 311 0c0,0 58,3 63,-56 6,-58 12,-115 12,-115l2 -25c0,0 -2,-8 -9,-8z"/>
  <path class="fil1" d="M1204 926l113 0c17,0 31,14 31,32l0 1c0,17 -14,32 -31,32l-113 0c-18,0 -32,-15 -32,-32l0 -1c0,-18 14,-32 32,-32z"/>
  <path class="fil2" d="M1205 929l111 0c16,0 29,13 29,29l0 1c0,16 -13,29 -29,29l-111 0c-16,0 -29,-13 -29,-29l0 -1c0,-16 13,-29 29,-29z"/>
  <polygon class="fil1" points="1329,929 1332,929 1332,949 1329,949 "/>
  <polygon class="fil1" points="1311,929 1314,929 1314,949 1311,949 "/>
  <polygon class="fil1" points="1294,929 1297,929 1297,949 1294,949 "/>
  <polygon class="fil1" points="1276,929 1279,929 1279,949 1276,949 "/>
  <polygon class="fil1" points="1259,929 1262,929 1262,949 1259,949 "/>
  <polygon class="fil1" points="1241,929 1244,929 1244,949 1241,949 "/>
  <polygon class="fil1" points="1224,929 1227,929 1227,949 1224,949 "/>
  <polygon class="fil1" points="1206,929 1209,929 1209,949 1206,949 "/>
  <polygon class="fil1" points="1189,929 1191,929 1191,949 1189,949 "/>
  <polygon class="fil1" points="1321,976 1324,976 1324,988 1321,988 "/>
  <polygon class="fil1" points="1290,968 1293,968 1293,988 1290,988 "/>
  <polygon class="fil1" points="1259,976 1262,976 1262,988 1259,988 "/>
  <polygon class="fil1" points="1228,968 1231,968 1231,988 1228,988 "/>
  <polygon class="fil1" points="1197,976 1199,976 1199,988 1197,988 "/>
  <path class="fil3" d="M1343 996l-1 0c-8,0 -16,-8 -16,-17l0 -42c0,-9 8,-16 16,-16l1 0c9,0 16,7 16,16l0 42c0,9 -7,17 -16,17z"/>
  <polygon class="fil0" points="1354,992 1349,992 1349,924 1354,924 "/>
  <path class="fil2" d="M991 1005l-63 0c-15,0 -28,-13 -28,-28l0 -2c0,-16 13,-29 28,-29l63 0c15,0 28,13 28,29l0 2c0,15 -13,28 -28,28z"/>
  <path class="fil1" d="M989 1003l-59 0c-15,0 -27,-12 -27,-26l0 -2c0,-14 12,-26 27,-26l59 0c15,0 27,12 27,26l0 2c0,14 -12,26 -27,26z"/>
  <path class="fil2" d="M981 1000l-56 0c-10,0 -18,-8 -18,-17l0 -14c0,-9 8,-17 18,-17l56 0c10,0 18,8 18,17l0 14c0,9 -8,17 -18,17z"/>
  <polygon class="fil0" points="950,1000 944,1000 944,952 950,952 "/>
  <polygon class="fil0" points="962,1000 956,1000 956,952 962,952 "/>
  <polygon class="fil2" points="1365,1356 1380,1311 1121,1311 862,1311 878,1356 "/>
  <path class="fil0" d="M447 1457l-329 0c-16,0 -29,-13 -29,-29l0 -53c0,-16 13,-29 29,-29l329 0c16,0 29,13 29,29l0 53c0,16 -13,29 -29,29z"/>
  <path class="fil1" d="M108 1446l0 0c-4,0 -7,-4 -7,-8l0 -53c0,-4 3,-7 7,-7 5,0 8,3 8,7l0 53c0,4 -3,8 -8,8z"/>
  <path class="fil1" d="M140 1446l0 0c-4,0 -8,-4 -8,-8l0 -53c0,-4 4,-7 8,-7 4,0 8,3 8,7l0 53c0,4 -4,8 -8,8z"/>
  <path class="fil1" d="M172 1446l0 0c-4,0 -8,-4 -8,-8l0 -53c0,-4 4,-7 8,-7 4,0 8,3 8,7l0 53c0,4 -4,8 -8,8z"/>
  <path class="fil1" d="M204 1446l0 0c-5,0 -8,-4 -8,-8l0 -53c0,-4 3,-7 8,-7 4,0 7,3 7,7l0 53c0,4 -3,8 -7,8z"/>
  <path class="fil1" d="M235 1446l0 0c-4,0 -7,-4 -7,-8l0 -53c0,-4 3,-7 7,-7 4,0 8,3 8,7l0 53c0,4 -4,8 -8,8z"/>
  <path class="fil1" d="M267 1446l0 0c-4,0 -8,-4 -8,-8l0 -53c0,-4 4,-7 8,-7 4,0 8,3 8,7l0 53c0,4 -4,8 -8,8z"/>
  <path class="fil1" d="M299 1446l0 0c-5,0 -8,-4 -8,-8l0 -53c0,-4 3,-7 8,-7 4,0 7,3 7,7l0 53c0,4 -3,8 -7,8z"/>
  <path class="fil1" d="M330 1446l0 0c-4,0 -7,-4 -7,-8l0 -53c0,-4 3,-7 7,-7 5,0 8,3 8,7l0 53c0,4 -3,8 -8,8z"/>
  <path class="fil1" d="M362 1446l0 0c-4,0 -8,-4 -8,-8l0 -53c0,-4 4,-7 8,-7 4,0 8,3 8,7l0 53c0,4 -4,8 -8,8z"/>
  <path class="fil1" d="M394 1446l0 0c-5,0 -8,-4 -8,-8l0 -53c0,-4 3,-7 8,-7 4,0 7,3 7,7l0 53c0,4 -3,8 -7,8z"/>
  <path class="fil1" d="M425 1446l0 0c-4,0 -7,-4 -7,-8l0 -53c0,-4 3,-7 7,-7 5,0 8,3 8,7l0 53c0,4 -3,8 -8,8z"/>
  <path class="fil1" d="M457 1446l0 0c-4,0 -8,-4 -8,-8l0 -53c0,-4 4,-7 8,-7 4,0 8,3 8,7l0 53c0,4 -4,8 -8,8z"/>
  <path class="fil2" d="M486 1337l-406 0c-16,0 -29,-13 -29,-29l0 -209c0,-16 13,-29 29,-29l406 0c15,0 28,13 28,29l0 209c0,16 -13,29 -28,29z"/>
  <path class="fil0" d="M505 1070l-445 0c-5,0 -9,7 -9,15l0 214 463 0 0 -214c0,-8 -4,-15 -9,-15z"/>
  <polygon class="fil2" points="514,1276 51,1276 51,1268 514,1268 "/>
  <polygon class="fil2" points="501,1363 514,1311 283,1311 51,1311 65,1363 "/>
  <polygon class="fil0" points="512,890 53,890 53,435 512,435 "/>
  <polygon class="fil0" points="53,344 57,395 509,395 512,344 "/>
  <path class="fil2" d="M559 141c-5,1 -11,20 -15,30 -3,10 -10,31 -10,31 0,0 -6,23 -12,4 -6,-19 -38,-138 -38,-138 0,0 -22,-68 -53,-68 -30,0 -76,0 -76,0l-72 0 -72 0c0,0 -46,0 -77,0 -30,0 -52,68 -52,68 0,0 -33,119 -39,138 -5,19 -11,-4 -11,-4 0,0 -7,-21 -11,-31 -3,-10 -10,-29 -15,-30 -5,0 -6,9 -6,9l1 27c0,0 4,60 9,123 4,63 46,60 46,60l227 0 226 0c0,0 43,3 47,-60 4,-63 8,-123 8,-123l1 -27c0,0 0,-9 -6,-9z"/>
  <path class="fil1" d="M246 784l-120 0c-16,0 -29,-13 -29,-29l0 -8c0,-16 13,-29 29,-29l120 0c16,0 29,13 29,29l0 8c0,16 -13,29 -29,29z"/>
  <path class="fil2" d="M243 782l-113 0c-16,0 -29,-14 -29,-29l0 -4c0,-16 13,-29 29,-29l113 0c16,0 29,13 29,29l0 4c0,15 -13,29 -29,29z"/>
  <polygon class="fil1" points="117,782 114,782 114,760 117,760 "/>
  <polygon class="fil1" points="134,782 132,782 132,760 134,760 "/>
  <polygon class="fil1" points="152,782 149,782 149,760 152,760 "/>
  <polygon class="fil1" points="170,782 167,782 167,760 170,760 "/>
  <polygon class="fil1" points="188,782 185,782 185,760 188,760 "/>
  <polygon class="fil1" points="206,782 203,782 203,760 206,760 "/>
  <polygon class="fil1" points="223,782 220,782 220,760 223,760 "/>
  <polygon class="fil1" points="241,782 238,782 238,760 241,760 "/>
  <polygon class="fil1" points="259,782 256,782 256,760 259,760 "/>
  <polygon class="fil1" points="125,733 122,733 122,720 125,720 "/>
  <polygon class="fil1" points="156,741 153,741 153,720 156,720 "/>
  <polygon class="fil1" points="188,733 185,733 185,720 188,720 "/>
  <polygon class="fil1" points="219,741 216,741 216,720 219,720 "/>
  <polygon class="fil1" points="251,733 248,733 248,720 251,720 "/>
  <path class="fil3" d="M100 713l5 0c8,0 14,6 14,14l0 48c0,8 -6,14 -14,14l-5 0c-8,0 -14,-6 -14,-14l0 -48c0,-8 6,-14 14,-14z"/>
  <polygon class="fil0" points="91,716 96,716 96,786 91,786 "/>
  <path class="fil4" d="M420 1245l-120 0c-16,0 -29,-13 -29,-29l0 -9c0,-16 13,-29 29,-29l120 0c16,0 29,13 29,29l0 9c0,16 -13,29 -29,29z"/>
  <path class="fil2" d="M417 1242l-113 0c-16,0 -29,-13 -29,-29l0 -3c0,-16 13,-29 29,-29l113 0c16,0 29,13 29,29l0 3c0,16 -13,29 -29,29z"/>
  <polygon class="fil1" points="291,1242 288,1242 288,1221 291,1221 "/>
  <polygon class="fil1" points="308,1242 306,1242 306,1221 308,1221 "/>
  <polygon class="fil1" points="326,1242 323,1242 323,1221 326,1221 "/>
  <polygon class="fil1" points="344,1242 341,1242 341,1221 344,1221 "/>
  <polygon class="fil1" points="362,1242 359,1242 359,1221 362,1221 "/>
  <polygon class="fil1" points="380,1242 377,1242 377,1221 380,1221 "/>
  <polygon class="fil1" points="397,1242 394,1242 394,1221 397,1221 "/>
  <polygon class="fil1" points="415,1242 412,1242 412,1221 415,1221 "/>
  <polygon class="fil1" points="433,1242 430,1242 430,1221 433,1221 "/>
  <polygon class="fil1" points="299,1193 296,1193 296,1181 299,1181 "/>
  <polygon class="fil1" points="330,1201 327,1201 327,1181 330,1181 "/>
  <polygon class="fil1" points="362,1193 359,1193 359,1181 362,1181 "/>
  <polygon class="fil1" points="393,1201 390,1201 390,1181 393,1181 "/>
  <polygon class="fil1" points="425,1193 422,1193 422,1181 425,1181 "/>
  <path class="fil2" d="M429 796l-51 0c-13,0 -24,-11 -24,-25l0 -1c0,-13 11,-24 24,-24l51 0c13,0 24,11 24,24l0 1c0,14 -11,25 -24,25z"/>
  <path class="fil1" d="M428 794l-49 0c-12,0 -23,-10 -23,-23l0 -1c0,-12 11,-22 23,-22l49 0c12,0 23,10 23,22l0 1c0,13 -11,23 -23,23z"/>
  <path class="fil2" d="M422 791l-47 0c-8,0 -15,-6 -15,-14l0 -12c0,-8 7,-15 15,-15l47 0c8,0 14,7 14,15l0 12c0,8 -6,14 -14,14z"/>
  <polygon class="fil0" points="396,791 391,791 391,750 396,750 "/>
  <polygon class="fil0" points="405,791 401,791 401,750 405,750 "/>
  <path class="fil2" d="M506 1091l-446 0c-8,0 -15,-6 -15,-14l0 -192c0,-8 7,-15 15,-15l446 0c8,0 14,7 14,15l0 192c0,8 -6,14 -14,14z"/>
  <polygon class="fil0" points="59,1084 55,1084 55,877 59,877 "/>
  <polygon class="fil0" points="100,1084 96,1084 96,877 100,877 "/>
  <polygon class="fil0" points="80,1084 76,1084 76,877 80,877 "/>
  <polygon class="fil0" points="121,1084 117,1084 117,877 121,877 "/>
  <polygon class="fil0" points="141,1084 137,1084 137,877 141,877 "/>
  <polygon class="fil0" points="162,1084 158,1084 158,877 162,877 "/>
  <polygon class="fil0" points="182,1084 178,1084 178,877 182,877 "/>
  <polygon class="fil0" points="223,1084 219,1084 219,877 223,877 "/>
  <polygon class="fil0" points="203,1084 199,1084 199,877 203,877 "/>
  <polygon class="fil0" points="244,1084 240,1084 240,877 244,877 "/>
  <polygon class="fil0" points="264,1084 260,1084 260,877 264,877 "/>
  <polygon class="fil0" points="285,1084 281,1084 281,877 285,877 "/>
  <polygon class="fil0" points="326,1084 322,1084 322,877 326,877 "/>
  <polygon class="fil0" points="305,1084 301,1084 301,877 305,877 "/>
  <polygon class="fil0" points="346,1084 342,1084 342,877 346,877 "/>
  <polygon class="fil0" points="367,1084 363,1084 363,877 367,877 "/>
  <polygon class="fil0" points="408,1084 404,1084 404,877 408,877 "/>
  <polygon class="fil0" points="387,1084 383,1084 383,877 387,877 "/>
  <polygon class="fil0" points="428,1084 424,1084 424,877 428,877 "/>
  <polygon class="fil0" points="449,1084 445,1084 445,877 449,877 "/>
  <polygon class="fil0" points="469,1084 465,1084 465,877 469,877 "/>
  <polygon class="fil0" points="490,1084 486,1084 486,877 490,877 "/>
  <polygon class="fil0" points="510,1084 506,1084 506,877 510,877 "/>
  <polygon class="fil2" points="514,1126 51,1126 51,1118 514,1118 "/>
  <polygon class="fil2" points="512,849 53,849 53,840 512,840 "/>
  <polygon class="fil2" points="512,664 53,664 53,655 512,655 "/>
  <polygon class="fil2" points="512,472 53,472 53,464 512,464 "/>
  <path class="fil2" d="M491 629l-416 0c-16,0 -29,-13 -29,-29l0 -60c0,-16 13,-29 29,-29l416 0c16,0 29,13 29,29l0 60c0,16 -13,29 -29,29z"/>
  <polygon class="fil0" points="57,618 53,618 53,522 57,522 "/>
  <polygon class="fil0" points="96,618 93,618 93,522 96,522 "/>
  <polygon class="fil0" points="77,618 73,618 73,522 77,522 "/>
  <polygon class="fil0" points="116,618 112,618 112,522 116,522 "/>
  <polygon class="fil0" points="136,618 132,618 132,522 136,522 "/>
  <polygon class="fil0" points="156,618 152,618 152,522 156,522 "/>
  <polygon class="fil0" points="176,618 172,618 172,522 176,522 "/>
  <polygon class="fil0" points="215,618 211,618 211,522 215,522 "/>
  <polygon class="fil0" points="195,618 192,618 192,522 195,522 "/>
  <polygon class="fil0" points="235,618 231,618 231,522 235,522 "/>
  <polygon class="fil0" points="255,618 251,618 251,522 255,522 "/>
  <polygon class="fil0" points="275,618 271,618 271,522 275,522 "/>
  <polygon class="fil0" points="314,618 311,618 311,522 314,522 "/>
  <polygon class="fil0" points="295,618 291,618 291,522 295,522 "/>
  <polygon class="fil0" points="334,618 330,618 330,522 334,522 "/>
  <polygon class="fil0" points="354,618 350,618 350,522 354,522 "/>
  <polygon class="fil0" points="394,618 390,618 390,522 394,522 "/>
  <polygon class="fil0" points="374,618 370,618 370,522 374,522 "/>
  <polygon class="fil0" points="413,618 410,618 410,522 413,522 "/>
  <polygon class="fil0" points="433,618 430,618 430,522 433,522 "/>
  <polygon class="fil0" points="453,618 449,618 449,522 453,522 "/>
  <polygon class="fil0" points="473,618 469,618 469,522 473,522 "/>
  <polygon class="fil0" points="493,618 489,618 489,522 493,522 "/>
  <polygon class="fil0" points="513,618 509,618 509,522 513,522 "/>
  <path class="fil2" d="M504 440l-442 0c-8,0 -15,-6 -15,-14l0 -25c0,-8 7,-14 15,-14l442 0c8,0 14,6 14,14l0 25c0,8 -6,14 -14,14z"/>
  <polygon class="fil0" points="518,416 47,416 47,411 518,411 "/>
  <polygon class="fil2" points="286,1118 280,1118 280,1100 286,1100 "/>
 </g>
</svg>
