<?xml version="1.0" encoding="UTF-8"?>
<!DOCTYPE svg PUBLIC "-//W3C//DTD SVG 1.1//EN" "http://www.w3.org/Graphics/SVG/1.1/DTD/svg11.dtd">
<!-- Creator: CorelDRAW X7 -->
<svg xmlns="http://www.w3.org/2000/svg" xml:space="preserve" width="1.63142in" height="2.87697in" version="1.1" style="shape-rendering:geometricPrecision; text-rendering:geometricPrecision; image-rendering:optimizeQuality; fill-rule:evenodd; clip-rule:evenodd"
viewBox="0 0 10066 17751"
 xmlns:xlink="http://www.w3.org/1999/xlink">
 <defs>
  <style type="text/css">
   <![CDATA[
    .fil0 {fill:#404D71}
    .fil1 {fill:#ED3C52}
   ]]>
  </style>
 </defs>
 <g id="Layer_x0020_1">
  <metadata id="CorelCorpID_0Corel-Layer"/>
  <path class="fil0" d="M9045 16567l-3896 -6748c169,-65 280,-175 280,-299 0,-199 -287,-361 -640,-361 -353,0 -639,162 -639,361 0,119 103,224 260,290l-3901 6757 281 162 3837 -6646 0 7668 325 0 0 -7625 3812 6603 281 -162z"/>
  <path class="fil1" d="M1299 5520c0,268 -219,487 -487,487l-325 0c-268,0 -487,-219 -487,-487l0 -649c0,-268 219,-487 487,-487l325 0c268,0 487,219 487,487l0 649z"/>
  <path class="fil1" d="M9335 6575c0,268 -219,487 -487,487l0 0c-268,0 -487,-219 -487,-487l0 -1704c0,-268 219,-487 487,-487l0 0c268,0 487,219 487,487l0 1704z"/>
  <path class="fil0" d="M10066 7022c0,268 -219,487 -487,487l0 0c-268,0 -487,-219 -487,-487l0 -2517c0,-268 219,-487 487,-487l0 0c268,0 487,219 487,487l0 2517z"/>
  <path class="fil1" d="M4911 1908c0,1053 -854,1907 -1908,1907 -1053,0 -1907,-854 -1907,-1907 0,-1054 854,-1908 1907,-1908 1054,0 1908,854 1908,1908z"/>
  <path class="fil0" d="M3957 1908c0,526 -427,953 -954,953 -526,0 -953,-427 -953,-953 0,-527 427,-954 953,-954 527,0 954,427 954,954z"/>
  <path class="fil1" d="M8483 1908c0,1053 -854,1907 -1908,1907 -1053,0 -1908,-854 -1908,-1907 1,-1054 855,-1908 1908,-1908 1054,0 1908,854 1908,1908z"/>
  <path class="fil0" d="M7529 1908c0,526 -427,953 -954,953 -527,0 -954,-427 -954,-953 0,-527 427,-954 954,-954 527,0 954,427 954,954z"/>
  <path class="fil1" d="M6575 9011c0,178 -219,324 -487,324l-2597 0c-268,0 -488,-146 -488,-324 0,-179 220,-325 488,-325l2597 0c268,0 487,146 487,325z"/>
  <path class="fil0" d="M8361 8199c0,268 -219,487 -487,487l-6535 0c-268,0 -487,-219 -487,-487l0 -3897c0,-268 219,-487 487,-487l6535 0c268,0 487,219 487,487l0 3897z"/>
 </g>
</svg>
