<?xml version="1.0" encoding="UTF-8"?>
<!DOCTYPE svg PUBLIC "-//W3C//DTD SVG 1.1//EN" "http://www.w3.org/Graphics/SVG/1.1/DTD/svg11.dtd">
<!-- Creator: CorelDRAW X7 -->
<svg xmlns="http://www.w3.org/2000/svg" xml:space="preserve" width="1.47295in" height="4.36911in" version="1.1" style="shape-rendering:geometricPrecision; text-rendering:geometricPrecision; image-rendering:optimizeQuality; fill-rule:evenodd; clip-rule:evenodd"
viewBox="0 0 570 1692"
 xmlns:xlink="http://www.w3.org/1999/xlink">
 <defs>
  <style type="text/css">
   <![CDATA[
    .fil1 {fill:#13110F;fill-rule:nonzero}
    .fil0 {fill:#2F2A28;fill-rule:nonzero}
    .fil3 {fill:#464442;fill-rule:nonzero}
    .fil2 {fill:#5D5956;fill-rule:nonzero}
    .fil4 {fill:#AAA19C;fill-rule:nonzero}
   ]]>
  </style>
 </defs>
 <g id="Objects">
  <metadata id="CorelCorpID_0Corel-Layer"/>
  <polygon class="fil0" points="304,269 271,385 214,385 181,269 "/>
  <polygon class="fil0" points="315,764 273,764 273,738 315,738 "/>
  <polygon class="fil1" points="313,1405 238,1451 243,1471 318,1424 "/>
  <polygon class="fil1" points="172,1405 247,1451 242,1471 167,1424 "/>
  <polygon class="fil1" points="366,1465 238,1540 249,1558 377,1483 "/>
  <polygon class="fil1" points="119,1465 108,1483 236,1558 247,1540 "/>
  <polygon class="fil0" points="262,1280 223,1280 223,404 262,404 "/>
  <path class="fil0" d="M242 1692c-7,0 -14,-6 -14,-14l0 -426c0,-8 7,-14 14,-14 8,0 14,6 14,14l0 426c0,8 -6,14 -14,14z"/>
  <path class="fil0" d="M483 1633l-229 -360c-4,-6 -13,-8 -19,-4 -7,4 -8,13 -4,19l228 360c4,6 13,8 19,4 7,-4 9,-13 5,-19z"/>
  <path class="fil0" d="M2 1633l229 -360c4,-6 12,-8 19,-4 6,4 8,13 4,19l-228 360c-4,6 -13,8 -20,4 -6,-4 -8,-13 -4,-19z"/>
  <path class="fil1" d="M242 340c-19,0 -35,16 -35,35l0 35 71 0 0 -35c0,-19 -16,-35 -36,-35z"/>
  <path class="fil1" d="M281 814c0,12 -10,22 -22,22l-33 0c-12,0 -22,-10 -22,-22l0 -125c0,-12 10,-22 22,-22l33 0c12,0 22,10 22,22l0 125z"/>
  <path class="fil1" d="M294 1336l0 -75c0,-12 -10,-22 -23,-22l-58 0c-12,0 -22,10 -22,22l0 75 103 0z"/>
  <path class="fil2" d="M305 1337c0,4 -3,8 -8,8l-109 0c-5,0 -9,-4 -9,-8 0,-5 4,-9 9,-9l109 0c5,0 8,4 8,9z"/>
  <path class="fil1" d="M340 787c0,11 -9,20 -19,20 -11,0 -20,-9 -20,-20l0 -71c0,-11 9,-20 20,-20 10,0 19,9 19,20l0 71z"/>
  <polygon class="fil3" points="368,329 234,303 234,159 368,132 "/>
  <path class="fil3" d="M234 159c-40,0 -72,32 -72,72 0,39 32,72 72,72l0 -144z"/>
  <path class="fil2" d="M243 303c0,5 -4,8 -8,8 -5,0 -8,-3 -8,-8l0 -145c0,-4 3,-8 8,-8 4,0 8,4 8,8l0 145z"/>
  <path class="fil3" d="M297 415c0,6 -5,11 -11,11l-87 0c-6,0 -11,-5 -11,-11 0,-6 5,-11 11,-11l87 0c6,0 11,5 11,11z"/>
  <path class="fil3" d="M259 370c0,8 -7,15 -16,15 -9,0 -16,-7 -16,-15 0,-9 7,-16 16,-16 9,0 16,7 16,16z"/>
  <path class="fil2" d="M561 14c-120,0 -217,97 -217,217 0,120 97,217 217,217l0 -434z"/>
  <path class="fil4" d="M570 451c0,6 -4,10 -10,10 -6,0 -11,-4 -11,-10l0 -440c0,-6 5,-11 11,-11 6,0 10,5 10,11l0 440z"/>
 </g>
</svg>
