<?xml version="1.0" encoding="UTF-8"?>
<!DOCTYPE svg PUBLIC "-//W3C//DTD SVG 1.1//EN" "http://www.w3.org/Graphics/SVG/1.1/DTD/svg11.dtd">
<!-- Creator: CorelDRAW X7 -->
<svg xmlns="http://www.w3.org/2000/svg" xml:space="preserve" width="0.877516in" height="0.493862in" version="1.1" style="shape-rendering:geometricPrecision; text-rendering:geometricPrecision; image-rendering:optimizeQuality; fill-rule:evenodd; clip-rule:evenodd"
viewBox="0 0 571 321"
 xmlns:xlink="http://www.w3.org/1999/xlink">
 <defs>
  <style type="text/css">
   <![CDATA[
    .fil1 {fill:#FEFEFE}
    .fil2 {fill:#74CBF2}
    .fil0 {fill:#777876}
   ]]>
  </style>
 </defs>
 <g id="Layer_x0020_1">
  <metadata id="CorelCorpID_0Corel-Layer"/>
  <path class="fil0" d="M500 36c0,-20 -16,-36 -36,-36l-9 0c343,0 -433,0 -89,0l-9 0c-20,0 -36,16 -36,36l-107 0c0,-20 -15,-36 -36,-36l-71 0c-20,0 -35,16 -35,36 -40,0 -72,32 -72,71l0 143c0,39 32,71 72,71l428 0c39,0 71,-32 71,-71l0 -143c0,-39 -32,-71 -71,-71l0 0z"/>
  <path class="fil1" d="M410 304c-69,0 -124,-57 -124,-125 0,-69 55,-125 124,-125 69,0 125,56 125,125 0,68 -56,125 -125,125l0 0z"/>
  <path class="fil1" d="M161 72l-37 0c-9,0 -17,-8 -17,-18 0,-10 8,-18 17,-18l37 0c10,0 17,8 17,18 0,10 -7,18 -17,18l0 0z"/>
  <path class="fil2" d="M410 90c-49,0 -89,40 -89,89 0,49 40,89 89,89 49,0 90,-40 90,-89 0,-49 -41,-89 -90,-89l0 0z"/>
 </g>
</svg>
