<?xml version="1.0" encoding="UTF-8"?>
<!DOCTYPE svg PUBLIC "-//W3C//DTD SVG 1.1//EN" "http://www.w3.org/Graphics/SVG/1.1/DTD/svg11.dtd">
<!-- Creator: CorelDRAW X7 -->
<svg xmlns="http://www.w3.org/2000/svg" xml:space="preserve" width="2.27324in" height="1.97811in" version="1.1" style="shape-rendering:geometricPrecision; text-rendering:geometricPrecision; image-rendering:optimizeQuality; fill-rule:evenodd; clip-rule:evenodd"
viewBox="0 0 916 797"
 xmlns:xlink="http://www.w3.org/1999/xlink">
 <defs>
  <style type="text/css">
   <![CDATA[
    .fil0 {fill:black;fill-rule:nonzero}
   ]]>
  </style>
 </defs>
 <g id="Capa_x0020_1">
  <metadata id="CorelCorpID_0Corel-Layer"/>
  <path class="fil0" d="M873 254c-5,-8 -11,-16 -19,-23 0,0 -1,0 -2,-2 -2,-1 -5,-3 -8,-5 -7,-4 -17,-10 -29,-13 -12,-3 -25,-5 -38,-5 -4,0 -7,0 -11,0 -1,0 -3,0 -5,0l-5 1c-6,0 -12,1 -18,1 -24,3 -46,5 -63,6 -16,1 -26,1 -24,1 -44,1 -60,-19 -48,-63 2,-8 5,-17 8,-27 3,-10 7,-20 8,-34 0,-7 -1,-15 -3,-23 -2,-8 -6,-16 -11,-22 -2,-4 -5,-6 -7,-9 -3,-2 -5,-5 -8,-7 -5,-4 -10,-7 -15,-10 -22,-11 -40,-15 -52,-17 -13,-2 -21,-3 -21,-3 -24,-1 -48,2 -71,6 -29,6 -56,14 -84,27 -14,6 -27,14 -41,25 -6,5 -13,12 -20,21 -6,9 -12,22 -13,35 -1,9 1,20 3,27 2,8 5,14 8,20 6,11 12,19 16,26 4,7 7,14 9,19 0,0 0,1 0,1 -9,7 -22,12 -38,15 -16,3 -34,5 -53,7 -26,3 -53,6 -83,14 -14,4 -29,9 -43,18 -8,4 -15,9 -21,14 -4,3 -7,6 -10,9 -3,3 -5,6 -8,9 -21,25 -33,53 -41,82 -8,28 -12,57 -12,85 0,28 2,56 7,84 5,27 12,54 23,81 6,13 12,27 20,40 4,7 8,12 12,17 3,6 7,11 11,17 8,11 16,22 26,33 9,11 20,21 32,31 13,10 27,19 43,25 16,5 32,8 49,9l13 0 9 -1 19 0c13,-1 26,-1 40,-2 13,-1 27,-2 41,-5 14,-2 28,-4 44,-10 2,-1 5,-2 8,-3l8 -4 9 -5c2,-2 4,-4 7,-6 9,-8 16,-19 18,-31l1 -4 1 -4c0,-2 0,-4 0,-5l0 -4c-1,-4 -2,-7 -2,-9 -1,-3 -2,-6 -3,-9l-4 -9c-1,-3 -3,-5 -5,-8l-2 -4 -1 -1 0 0 -1 -2 -3 -4c-9,-13 -19,-23 -28,-33 -9,-10 -19,-19 -28,-29l-7 -7 -4 -3 -3 -3c-2,-2 -4,-4 -6,-6 -1,-1 -3,-3 -5,-5 -6,-8 -12,-17 -17,-26 -2,-5 -4,-10 -6,-15 -1,-2 -2,-4 -3,-7 0,-2 -1,-5 -2,-8 -3,-11 -5,-22 -6,-33 -3,-23 -3,-45 1,-64 2,-7 4,-14 7,-19 1,-1 2,-3 3,-4l3 -5c2,-3 4,-6 6,-8 9,-11 21,-21 35,-29 26,-15 59,-24 92,-25 16,0 33,1 49,4 15,3 31,8 44,15 7,3 13,7 19,12 3,2 6,4 8,6 3,3 5,5 8,8 5,6 10,12 14,19 2,4 5,7 7,10l5 11 3 5 2 5 4 11 3 12 2 5c1,2 1,4 1,6l2 12 1 12 0 6 0 6 -1 12 -1 11 -1 6 -1 6 -3 12 -4 11c-1,2 -1,4 -2,6l-2 6 -5 11 -6 11 -3 5 -3 5 -7 10 -8 10c-5,7 -11,12 -16,18 -4,4 -5,5 -9,8l-9 8c-3,3 -7,6 -10,9 -13,14 -19,29 -18,46 1,16 12,31 24,42 7,6 14,11 23,14 2,1 4,1 7,2 2,0 4,1 6,1l7 1 4 1 2 0 6 1 4 0c3,0 6,0 8,0 6,0 11,0 16,0l14 -1 14 0c41,-1 81,-6 121,-18 10,-2 20,-6 30,-9 5,-2 10,-4 14,-6l8 -3c2,-1 5,-3 8,-4 22,-11 42,-29 55,-50 6,-11 11,-21 15,-32 4,-11 7,-22 9,-33 5,-22 6,-43 6,-63 0,-41 -25,-265 -43,-303zm-36 372l0 0c-2,7 -5,14 -9,20 -3,6 -7,11 -12,15 -5,5 -10,8 -16,12l-5 2 -6 3c-4,1 -8,3 -12,4 -32,12 -68,20 -104,22 -9,1 -18,1 -27,1 -12,0 -21,1 -30,1 -5,0 -9,0 -13,0 -4,0 -8,0 -8,0 0,0 0,0 0,0 0,0 0,0 0,0l3 -2 3 -3c1,-1 2,-2 3,-3l3 -3 3 -3 6 -6c4,-4 8,-8 11,-12l10 -13c4,-4 7,-9 10,-14 3,-4 6,-9 9,-14 5,-9 11,-19 15,-29 9,-21 15,-43 19,-65l2 -16c1,-6 1,-12 1,-17l1 -9c0,-3 -1,-6 -1,-8l-1 -17 -3 -17c0,-3 0,-6 -1,-9l-2 -8c-2,-5 -3,-11 -5,-16l-6 -16c-2,-6 -5,-11 -7,-16 -3,-5 -6,-10 -8,-15l-10 -14c-1,-2 -3,-5 -4,-7l-6 -7 -11 -13c-1,-2 -4,-4 -6,-6 -2,-2 -4,-5 -7,-7 -9,-8 -19,-14 -29,-21 -20,-11 -42,-20 -64,-24 -22,-5 -44,-8 -66,-7 -44,0 -89,10 -129,32 -20,12 -39,26 -55,45 -8,9 -15,19 -21,30 -6,11 -10,23 -13,35 -8,31 -7,61 -3,90 2,14 4,28 8,42 1,4 2,7 3,11 1,4 3,7 4,11 3,8 6,14 9,21 7,14 16,27 26,39 2,3 5,6 7,9 3,2 6,5 8,8l8 7 6 6c9,9 18,18 26,27 9,8 16,17 23,26 4,5 3,5 3,5l0 0 0 0 0 0 0 0c0,0 0,0 -1,1 -9,3 -20,5 -31,7 -12,1 -24,3 -36,3 -12,1 -25,2 -38,2l-19 1 -10 1c-2,-1 -5,-1 -7,-1 -9,0 -18,-2 -27,-5 -8,-3 -16,-7 -24,-14 -8,-6 -15,-13 -23,-22 -7,-9 -14,-18 -21,-28 -4,-5 -7,-10 -11,-15 -4,-5 -7,-11 -10,-15 -5,-9 -10,-19 -15,-29 -17,-43 -25,-91 -24,-138 0,-23 3,-46 9,-68 6,-21 15,-40 27,-55 2,-2 3,-4 5,-5 2,-2 3,-3 5,-5 3,-2 7,-5 11,-7 7,-5 17,-9 27,-11 21,-6 45,-9 71,-11 19,-2 39,-4 61,-9 97,-28 102,-55 89,-105 -4,-13 -10,-24 -15,-33 -6,-10 -11,-18 -14,-24 -2,-3 -3,-5 -3,-7 -1,-1 -1,-1 -1,-1l0 0c0,0 0,0 0,0 0,0 0,0 0,0 1,0 1,0 1,-1 1,-2 4,-5 8,-8 7,-5 16,-11 26,-16 20,-9 43,-16 67,-21 16,-3 33,-4 49,-5 0,0 2,0 7,0 4,0 11,0 18,0 8,0 16,1 24,3 4,1 8,2 11,4 4,1 7,3 9,5 2,2 3,3 4,4 1,2 2,4 2,7 1,7 0,17 -1,25 -9,103 -2,114 78,136 19,5 41,8 61,9 11,1 21,2 31,2 5,1 10,1 15,1 2,0 4,0 6,0l4 1 2 0c7,1 14,2 20,4 5,2 9,3 12,5 4,1 6,3 7,4 1,1 2,1 2,1 5,4 9,9 12,17 2,4 4,8 5,14l0 2c0,-1 1,2 1,4 1,2 1,4 1,6 2,8 3,17 3,26 2,19 4,39 6,59 4,40 10,78 12,115 3,37 2,73 -8,103z"/>
  <path class="fil0" d="M342 120c0,0 0,0 0,0 0,0 0,0 0,0z"/>
  <path class="fil0" d="M126 226c8,8 16,10 19,8 2,-1 2,-3 2,-6 -1,-2 -3,-7 -4,-12 -6,-25 30,-31 36,-31 59,-1 58,33 75,36 5,2 19,-4 15,-15 0,-4 -1,-8 -3,-12 -2,-4 -4,-8 -7,-11 -13,-14 -31,-24 -50,-29 -19,-5 -41,-6 -58,2 -5,3 -7,4 -10,6 -3,2 -5,4 -7,5 -2,1 -3,3 -4,4 -1,1 -1,1 -1,1 0,0 -1,1 -2,2 -1,1 -2,3 -4,5 -3,5 -6,13 -6,21 -1,8 2,16 4,20 3,5 5,7 5,6z"/>
  <path class="fil0" d="M526 611l4 -3 4 -2 8 -5c2,-1 5,-4 7,-5 20,-16 35,-38 42,-63 6,-22 3,-48 -7,-68 -1,-1 -2,-3 -3,-3 -12,-5 -18,-2 -22,2 -4,4 -6,10 -6,14 -1,1 -1,1 0,2 6,14 8,29 4,44 -5,17 -15,33 -29,44 -2,2 -4,3 -6,4l-6 4 -3 2 -3 2 -7 3c-8,4 -17,8 -26,9 -5,1 -10,1 -14,2 -5,-1 -9,0 -13,-1 -9,-1 -18,-4 -26,-8 -8,-4 -15,-10 -21,-16 -3,-3 -7,-6 -9,-11l-4 -5 -4 -6c-1,-2 -2,-4 -3,-6 -1,-1 -1,-3 -2,-5 -1,-3 -3,-7 -4,-11 0,0 -1,-5 -3,-13 -2,-8 -4,-19 -4,-30 -1,-11 0,-22 1,-29 1,-8 3,-12 2,-11 2,-4 3,-8 4,-11 2,-4 3,-7 5,-9 3,-5 7,-8 8,-10 1,-2 -1,-4 -8,-2 -3,0 -7,2 -12,6 -5,4 -10,10 -14,17 -11,18 -15,43 -15,62 -1,10 0,18 0,24 1,6 2,10 2,10 1,6 3,12 5,18 1,3 2,6 3,9 2,3 3,5 5,8 1,2 3,5 5,8l5 7c3,5 8,10 12,14 9,9 19,17 30,23 12,6 24,10 37,11 6,2 13,1 19,1 6,0 13,0 19,-2 12,-2 24,-6 35,-11l8 -4z"/>
 </g>
</svg>
