<?xml version="1.0" encoding="UTF-8"?>
<!DOCTYPE svg PUBLIC "-//W3C//DTD SVG 1.1//EN" "http://www.w3.org/Graphics/SVG/1.1/DTD/svg11.dtd">
<!-- Creator: CorelDRAW X7 -->
<svg xmlns="http://www.w3.org/2000/svg" xml:space="preserve" width="0.981795in" height="0.684709in" version="1.1" style="shape-rendering:geometricPrecision; text-rendering:geometricPrecision; image-rendering:optimizeQuality; fill-rule:evenodd; clip-rule:evenodd"
viewBox="0 0 1481 1033"
 xmlns:xlink="http://www.w3.org/1999/xlink">
 <defs>
  <style type="text/css">
   <![CDATA[
    .fil0 {fill:#2C2E31}
   ]]>
  </style>
 </defs>
 <g id="Layer_x0020_1">
  <metadata id="CorelCorpID_0Corel-Layer"/>
  <path class="fil0" d="M1377 984l-1273 0c-31,0 -56,-24 -56,-55l0 -111 525 0c49,30 106,48 167,48 62,0 119,-18 168,-48l524 0 0 111c0,31 -24,55 -55,55zm-1273 -862l163 0 260 0 584 0 0 166 -203 0c-49,-31 -106,-49 -168,-49 -61,0 -118,18 -167,49l-525 0 0 -111c0,-31 25,-55 56,-55zm211 -59c0,-8 7,-15 14,-15l135 0c8,0 14,7 14,15l0 10 -163 0 0 -10zm1062 59c31,0 55,24 55,55l0 111 -273 0 0 -166 218 0zm-864 647l-465 0 0 -432 465 0c-4,4 -7,9 -11,13 -2,2 -3,3 -4,5 -5,6 -10,12 -14,19 -2,1 -3,3 -4,5 -4,6 -8,13 -12,19 -1,3 -3,5 -4,7 -3,6 -6,12 -9,19 -1,3 -3,6 -4,9 -3,6 -5,12 -7,17 -1,4 -2,8 -4,12 -1,5 -3,11 -4,17 -1,4 -2,8 -3,12 -1,7 -2,13 -3,19 0,4 -1,8 -2,12 -1,10 -1,20 -1,31 0,10 0,21 1,31 1,4 2,8 2,11 1,7 2,13 3,20 1,4 2,8 3,12 1,6 3,11 5,17 1,4 2,7 3,11 2,6 4,12 7,18 1,3 3,6 4,9 3,6 6,13 9,19 1,2 3,4 4,6 4,7 7,14 12,20 1,2 2,3 3,5 5,6 10,13 15,19 1,2 2,3 3,4 4,5 8,10 12,14zm398 -13c-7,5 -13,10 -20,15 -43,30 -95,47 -151,47 -55,0 -107,-17 -150,-47 -7,-5 -14,-10 -20,-15 -3,-3 -6,-6 -10,-9 -4,-4 -7,-7 -11,-11 -3,-4 -6,-7 -10,-11 -3,-4 -6,-8 -9,-12 -3,-4 -6,-7 -8,-11 -5,-7 -10,-15 -15,-23 -1,-2 -2,-5 -3,-8 -4,-6 -7,-12 -9,-19 -2,-3 -3,-7 -4,-10 -2,-6 -4,-12 -6,-19 -1,-3 -2,-6 -3,-10 -1,-7 -2,-14 -3,-21 -1,-3 -1,-6 -2,-9 -1,-10 -2,-20 -2,-30 0,-10 1,-20 2,-30 1,-4 1,-6 2,-9 1,-7 2,-14 3,-21 1,-4 2,-7 3,-10 2,-7 4,-13 6,-19 1,-4 2,-7 4,-10 2,-7 5,-13 9,-20 1,-2 2,-5 3,-7 5,-8 10,-16 15,-24 2,-3 5,-6 7,-10 4,-4 7,-8 11,-13 3,-3 6,-6 9,-10 4,-4 7,-7 11,-11 4,-3 7,-6 10,-9 7,-5 14,-11 21,-16 42,-29 94,-46 149,-46 56,0 107,17 150,46 7,5 14,11 21,16 3,3 6,6 9,9 4,4 8,7 12,11 3,4 6,7 9,10 4,5 7,9 10,13 3,4 6,7 8,10 5,8 10,16 15,24 1,2 2,5 3,7 3,7 6,13 9,20 1,3 3,6 4,10 2,6 4,12 6,19 1,3 2,6 2,10 2,7 3,14 4,21 1,2 1,5 2,9 1,10 2,20 2,30 0,10 -1,20 -2,30 -1,3 -1,6 -2,9 -1,7 -2,14 -4,21 0,4 -1,7 -2,10 -2,7 -4,13 -6,19 -1,3 -3,7 -4,10 -3,7 -6,13 -9,19 -1,3 -2,6 -3,8 -5,8 -10,16 -15,23 -2,4 -5,7 -8,11 -3,4 -6,8 -10,12 -3,4 -6,7 -9,11 -4,4 -8,7 -11,11 -4,3 -7,6 -10,9zm521 13l-465 0c5,-4 9,-9 12,-14 2,-1 3,-2 4,-4 5,-6 10,-13 15,-19 1,-2 2,-3 3,-5 4,-6 8,-13 12,-20 1,-2 3,-4 4,-6 3,-6 6,-13 9,-19 1,-3 3,-6 4,-9 2,-6 5,-12 7,-18 1,-4 2,-7 3,-11 2,-6 3,-11 5,-17 1,-4 2,-8 3,-12 1,-7 2,-13 3,-20 0,-3 1,-7 1,-11 1,-10 2,-21 2,-31 0,-11 -1,-21 -2,-31 0,-4 -1,-8 -1,-12 -1,-6 -2,-12 -3,-19 -1,-4 -2,-8 -3,-12 -2,-6 -3,-12 -5,-17 -1,-4 -2,-8 -4,-12 -2,-5 -4,-11 -6,-17 -1,-3 -3,-6 -4,-9 -3,-7 -6,-13 -9,-19 -1,-2 -3,-4 -4,-7 -4,-6 -8,-13 -12,-19 -1,-2 -2,-3 -4,-5 -4,-7 -9,-13 -14,-19 -1,-2 -2,-3 -4,-5 -4,-4 -7,-9 -12,-13l168 0 297 0 0 432zm-55 -696l-242 0 -608 0 0 -10c0,-35 -28,-63 -63,-63l-135 0c-34,0 -62,28 -62,63l0 10 -163 0c-58,0 -104,47 -104,104l0 135 0 481 0 136c0,57 46,104 104,104l1273 0c57,0 104,-47 104,-104l0 -136 0 -481 0 -135c0,-57 -47,-104 -104,-104z"/>
  <path class="fil0" d="M740 717c-90,0 -164,-74 -164,-164 0,-91 74,-164 164,-164 91,0 164,73 164,164 0,90 -73,164 -164,164zm213 -164c0,-117 -95,-213 -213,-213 -117,0 -212,96 -212,213 0,117 95,212 212,212 118,0 213,-95 213,-212z"/>
  <path class="fil0" d="M740 423c-71,0 -129,58 -129,130 0,13 11,24 24,24 13,0 24,-11 24,-24 0,-45 37,-81 81,-81 14,0 25,-11 25,-24 0,-14 -11,-25 -25,-25z"/>
  <path class="fil0" d="M1216 263c4,0 8,-1 12,-4l84 -85c7,-6 7,-17 0,-23 -6,-6 -16,-6 -23,0l-84 85c-7,6 -7,16 0,23 3,3 7,4 11,4z"/>
  <path class="fil0" d="M1334 248c4,0 9,-2 12,-5l31 -32c7,-6 7,-16 0,-22 -6,-7 -16,-7 -22,0l-32 31c-6,7 -6,17 0,23 3,3 7,5 11,5z"/>
  <path class="fil0" d="M189 181c14,0 24,11 24,24 0,13 -10,24 -24,24 -13,0 -24,-11 -24,-24 0,-13 11,-24 24,-24zm0 96c40,0 73,-32 73,-72 0,-40 -33,-73 -73,-73 -40,0 -72,33 -72,73 0,40 32,72 72,72z"/>
  <path class="fil0" d="M245 879l-110 0c-14,0 -25,11 -25,24 0,13 11,24 25,24l110 0c13,0 24,-11 24,-24 0,-13 -11,-24 -24,-24z"/>
  <path class="fil0" d="M383 879l-46 0c-13,0 -24,11 -24,24 0,13 11,24 24,24l46 0c13,0 24,-11 24,-24 0,-13 -11,-24 -24,-24z"/>
 </g>
</svg>
