<?xml version="1.0" encoding="UTF-8"?>
<!DOCTYPE svg PUBLIC "-//W3C//DTD SVG 1.1//EN" "http://www.w3.org/Graphics/SVG/1.1/DTD/svg11.dtd">
<!-- Creator: CorelDRAW X7 -->
<svg xmlns="http://www.w3.org/2000/svg" xml:space="preserve" width="0.702461in" height="0.475067in" version="1.1" style="shape-rendering:geometricPrecision; text-rendering:geometricPrecision; image-rendering:optimizeQuality; fill-rule:evenodd; clip-rule:evenodd"
viewBox="0 0 79 53"
 xmlns:xlink="http://www.w3.org/1999/xlink">
 <defs>
  <style type="text/css">
   <![CDATA[
    .fil0 {fill:#7B7D7F}
   ]]>
  </style>
 </defs>
 <g id="Layer_x0020_1">
  <metadata id="CorelCorpID_0Corel-Layer"/>
  <path class="fil0" d="M79 53l0 -45 -15 7 0 4 0 0 -1 0 -9 0 0 0 0 -8 -6 0c0,0 0,0 0,-1 0,0 0,0 0,-1l0 -5c0,-1 -1,-2 -2,-3 0,0 -1,-1 -2,-1l-30 0c-1,0 -2,1 -3,1 0,1 -1,2 -1,3 0,1 1,2 1,3 1,1 2,1 3,1l23 0c1,0 2,0 2,1 1,0 1,1 1,1l0 1c0,0 0,0 0,0l0 0 -37 0c-1,0 -1,1 -2,1 -1,1 -1,2 -1,2l0 33c0,1 0,1 1,2 0,0 1,1 2,1l51 0 0 -8 9 0 1 0 0 4 15 7zm-74 -14l42 0 0 0 0 1 0 5 0 0 0 0 -42 0 0 0 0 0 0 -5 0 -1 0 0z"/>
 </g>
</svg>
