<?xml version="1.0" encoding="UTF-8"?>
<!DOCTYPE svg PUBLIC "-//W3C//DTD SVG 1.1//EN" "http://www.w3.org/Graphics/SVG/1.1/DTD/svg11.dtd">
<!-- Creator: CorelDRAW X7 -->
<svg xmlns="http://www.w3.org/2000/svg" xml:space="preserve" width="1.7181in" height="4.3338in" version="1.1" style="shape-rendering:geometricPrecision; text-rendering:geometricPrecision; image-rendering:optimizeQuality; fill-rule:evenodd; clip-rule:evenodd"
viewBox="0 0 12095 30508"
 xmlns:xlink="http://www.w3.org/1999/xlink">
 <defs>
  <style type="text/css">
   <![CDATA[
    .fil0 {fill:#050103}
   ]]>
  </style>
 </defs>
 <g id="objects">
  <metadata id="CorelCorpID_0Corel-Layer"/>
  <path class="fil0" d="M5405 4256c0,0 -80,101 -199,242 -53,-39 -107,-88 -153,-148 -149,-196 -157,-285 -167,-442 -2,-19 -3,-37 -3,-53 9,1 19,2 28,2 218,275 494,399 494,399zm2216 -3330l0 0c0,0 -255,-334 -314,-491 -59,-157 -49,-314 -481,-373 -431,-58 -911,-160 -1491,168 -580,329 -434,220 -512,353 -79,134 94,825 -49,795 -45,136 -63,294 -63,460l0 0c-3,117 -965,500 -1063,520 -177,35 31,49 405,49 -50,31 -89,76 -102,104 -17,37 -6,218 -6,218l-38 0 -11 -5 -34 -30 -232 -3 -23 20 -197 -7 -58 -30 -268 -6 -23 15 -31 0c0,0 -3,0 -23,-33 -20,-33 -95,-92 -154,-108 -59,-16 -1042,-106 -1088,-85 -47,22 -160,141 -154,179 6,38 111,85 130,99 20,14 38,51 34,89 -3,38 -68,68 -116,117 -47,50 -64,104 -68,207 -3,104 5,261 39,315 33,54 142,151 158,188 15,36 10,24 -1,49 -11,25 -136,86 -141,95 -6,10 -2,17 18,43 20,25 45,76 126,114 81,37 1047,-10 1047,-10 0,0 39,-8 77,-26 -39,221 -23,513 -49,654 -33,177 35,451 35,451 0,0 -240,412 -315,530 -74,118 -319,393 -319,393 0,0 -43,451 -181,1000 -138,550 -249,726 -335,1079 -86,354 -58,589 -108,844 -50,255 42,647 243,765 200,118 1175,-59 1389,-118 213,-58 654,-372 654,-372 0,0 -226,843 -316,1628 -91,785 -324,1413 -468,1766 -145,353 -120,510 -128,824 -9,314 134,471 100,628 -34,157 -534,2668 -673,4316 -138,1648 169,2571 72,3179 -96,608 -397,981 -544,1844 -146,863 -180,1570 -276,2198 -96,627 -168,1353 -168,1353 0,0 -134,99 -309,157 -174,59 -130,216 -126,314 3,98 41,608 41,608l-150 197c0,0 -355,235 -587,353 -231,118 -281,88 -365,216 -84,127 30,284 12,343 -17,59 -45,108 18,216 62,108 674,216 817,363 142,147 469,245 764,245 294,0 1068,-29 1150,-196 83,-167 39,-304 36,-373 -2,-69 -85,-481 -12,-628 74,-147 107,-304 133,-412 26,-108 208,-500 116,-618 -93,-118 -113,-147 -113,-147 0,0 333,-1403 700,-2148 366,-746 436,-1550 457,-2080 20,-530 323,-863 507,-1746 185,-883 823,-2296 1035,-2963 212,-667 304,-844 304,-844 0,0 807,2335 1395,3414 587,1079 688,1158 799,1531 111,372 491,588 642,961 150,373 1124,3826 1087,3885 -37,59 -123,118 -117,304 7,186 51,343 87,530 36,186 293,785 238,912 -54,128 -126,314 -137,569 -10,255 20,284 43,373 22,88 177,294 471,294 294,0 1549,-304 1606,-363 57,-59 2,-500 -3,-657 -6,-157 -465,-765 -467,-824 -2,-59 -93,-599 -149,-805 -57,-206 2,-215 -100,-323 -102,-108 -205,-246 -207,-295 -1,-49 -60,-3119 -383,-3943 -323,-824 -957,-1550 -1105,-2433 -149,-883 -323,-3914 -396,-4572 -72,-657 -269,-2225 -269,-2225 817,-328 313,-843 297,-1290 -8,-235 13,484 -24,-576 -5,-155 -11,-305 -17,-450 216,-73 428,-193 602,-378 592,-630 589,-1413 863,-2316 275,-902 -314,-1883 79,-2158 392,-274 353,-392 157,-1059 -196,-667 -236,-1531 -785,-1805 -454,-227 -1281,-534 -2086,-546 -86,-146 -147,-274 -147,-274 0,0 55,-590 71,-978l0 0c547,-82 945,-194 1043,-214 98,-19 -717,-266 -991,-325 -154,-33 -408,-761 -431,-773zm-2501 3673l0 0c-67,-58 -138,-133 -204,-230 -133,-195 -165,-393 -180,-528 -15,-4 -29,-7 -44,-9 -104,-10 -352,30 -440,30 -30,0 -61,-9 -90,-21 63,267 147,647 255,842 79,142 194,267 299,363 139,-143 283,-306 404,-447zm-577 615l0 0c-102,91 -192,159 -256,180 -291,98 -555,393 -555,393l101 -471c0,0 93,-157 145,-353 46,-176 132,203 132,-507 57,152 117,290 175,384 94,152 184,281 258,374z"/>
 </g>
</svg>
