<?xml version="1.0" encoding="UTF-8"?>
<!DOCTYPE svg PUBLIC "-//W3C//DTD SVG 1.1//EN" "http://www.w3.org/Graphics/SVG/1.1/DTD/svg11.dtd">
<!-- Creator: CorelDRAW X7 -->
<svg xmlns="http://www.w3.org/2000/svg" xml:space="preserve" width="0.877504in" height="0.641224in" version="1.1" style="shape-rendering:geometricPrecision; text-rendering:geometricPrecision; image-rendering:optimizeQuality; fill-rule:evenodd; clip-rule:evenodd"
viewBox="0 0 69 50"
 xmlns:xlink="http://www.w3.org/1999/xlink">
 <defs>
  <style type="text/css">
   <![CDATA[
    .fil2 {fill:#FEFEFE}
    .fil1 {fill:#74CBF2}
    .fil0 {fill:#777876}
   ]]>
  </style>
 </defs>
 <g id="Layer_x0020_1">
  <metadata id="CorelCorpID_0Corel-Layer"/>
  <polygon class="fil0" points="68,15 68,48 56,40 56,23 "/>
  <path class="fil0" d="M64 0l-22 0 0 3 -10 0c2,1 2,3 2,5l8 0 0 3 22 0c3,0 5,-3 5,-6 0,-3 -2,-5 -5,-5l0 0z"/>
  <path class="fil0" d="M53 19l0 26c0,3 -2,5 -5,5l-43 0c-3,0 -5,-2 -5,-5l0 -13 0 -13 0 -11c0,-3 2,-5 5,-5l21 0c3,0 6,2 6,5l0 5 16 0c3,0 5,3 5,6l0 0z"/>
  <polygon class="fil1" points="42,36 5,36 5,40 42,40 "/>
  <path class="fil2" d="M43 18c3,0 5,2 5,5 0,2 -2,5 -5,5 -2,0 -4,-3 -4,-5 0,-3 2,-5 4,-5l0 0z"/>
 </g>
</svg>
