<?xml version="1.0" encoding="UTF-8"?>
<!DOCTYPE svg PUBLIC "-//W3C//DTD SVG 1.1//EN" "http://www.w3.org/Graphics/SVG/1.1/DTD/svg11.dtd">
<!-- Creator: CorelDRAW X7 -->
<svg xmlns="http://www.w3.org/2000/svg" xml:space="preserve" width="2.59521in" height="2.59522in" version="1.1" style="shape-rendering:geometricPrecision; text-rendering:geometricPrecision; image-rendering:optimizeQuality; fill-rule:evenodd; clip-rule:evenodd"
viewBox="0 0 1831 1831"
 xmlns:xlink="http://www.w3.org/1999/xlink">
 <defs>
  <style type="text/css">
   <![CDATA[
    .fil1 {fill:#5E9FD6}
    .fil0 {fill:#32373E}
   ]]>
  </style>
 </defs>
 <g id="Layer_x0020_1">
  <metadata id="CorelCorpID_0Corel-Layer"/>
  <path class="fil0" d="M1831 915c0,506 -410,916 -916,916 -505,0 -915,-410 -915,-916 0,-505 410,-915 915,-915 506,0 916,410 916,915z"/>
  <path class="fil1" d="M1554 915c0,353 -286,639 -639,639 -352,0 -638,-286 -638,-639 0,-352 286,-638 638,-638 353,0 639,286 639,638z"/>
  <path class="fil0" d="M1335 915c0,232 -188,421 -420,421 -232,0 -420,-189 -420,-421 0,-232 188,-420 420,-420 232,0 420,188 420,420z"/>
  <path class="fil1" d="M851 710c0,92 -75,166 -167,166 -92,0 -166,-74 -166,-166 0,-92 74,-167 166,-167 92,0 167,75 167,167z"/>
  <path class="fil1" d="M1120 1120c0,28 -23,51 -51,51 -29,0 -51,-23 -51,-51 0,-28 22,-51 51,-51 28,0 51,23 51,51z"/>
 </g>
</svg>
