<?xml version="1.0" encoding="UTF-8"?>
<!DOCTYPE svg PUBLIC "-//W3C//DTD SVG 1.1//EN" "http://www.w3.org/Graphics/SVG/1.1/DTD/svg11.dtd">
<!-- Creator: CorelDRAW X7 -->
<svg xmlns="http://www.w3.org/2000/svg" xml:space="preserve" width="0.59078in" height="0.8775in" version="1.1" style="shape-rendering:geometricPrecision; text-rendering:geometricPrecision; image-rendering:optimizeQuality; fill-rule:evenodd; clip-rule:evenodd"
viewBox="0 0 169 251"
 xmlns:xlink="http://www.w3.org/1999/xlink">
 <defs>
  <style type="text/css">
   <![CDATA[
    .fil2 {fill:#74CBF2}
    .fil0 {fill:#777876}
    .fil1 {fill:#2A2A2A}
   ]]>
  </style>
 </defs>
 <g id="Layer_x0020_1">
  <metadata id="CorelCorpID_0Corel-Layer"/>
  <path class="fil0" d="M125 132l5 0 30 19 9 0 0 -89 -9 0 -35 22 0 -29 -108 0c-9,0 -17,7 -17,16l0 70c0,9 8,16 17,16l34 0 1 0 -38 94 14 0 33 -82 0 82 12 0 0 -82 34 82 14 0 -38 -94 42 0 0 -25z"/>
  <polygon class="fil1" points="125,129 130,132 125,132 "/>
  <path class="fil2" d="M97 10l0 0c11,0 20,9 20,20 0,11 -9,21 -20,21 -11,0 -21,-10 -21,-21 0,-11 10,-20 21,-20l0 0z"/>
  <path class="fil2" d="M44 0l0 0c14,0 25,11 25,25 0,14 -11,26 -25,26 -14,0 -26,-12 -26,-26 0,-14 12,-25 26,-25l0 0z"/>
 </g>
</svg>
