<?xml version="1.0" encoding="UTF-8"?>
<!DOCTYPE svg PUBLIC "-//W3C//DTD SVG 1.1//EN" "http://www.w3.org/Graphics/SVG/1.1/DTD/svg11.dtd">
<!-- Creator: CorelDRAW X7 -->
<svg xmlns="http://www.w3.org/2000/svg" xml:space="preserve" width="2.3766in" height="1.80008in" version="1.1" style="shape-rendering:geometricPrecision; text-rendering:geometricPrecision; image-rendering:optimizeQuality; fill-rule:evenodd; clip-rule:evenodd"
viewBox="0 0 662 501"
 xmlns:xlink="http://www.w3.org/1999/xlink">
 <defs>
  <style type="text/css">
   <![CDATA[
    .fil0 {fill:black;fill-rule:nonzero}
   ]]>
  </style>
 </defs>
 <g id="Capa_x0020_1">
  <metadata id="CorelCorpID_0Corel-Layer"/>
  <path class="fil0" d="M0 215c0,10 0,20 1,30 0,10 2,20 4,30 8,40 30,79 59,106 75,51 231,75 258,79 9,0 11,-2 10,-5 -1,-1 -3,-3 -6,-5 -2,-2 -6,-4 -10,-6 -1,-1 -4,-3 -6,-4 -2,-1 -4,-3 -6,-5 -2,0 -3,-1 -4,-2 -1,-1 -2,-2 -4,-2 -2,-2 -5,-4 -7,-6 0,0 -1,-1 -3,-2 -2,-2 -6,-5 -10,-8 -2,-2 -4,-4 -6,-6 -2,-2 -5,-5 -7,-7 -2,-3 -5,-5 -7,-8 -2,-3 -4,-6 -6,-9 -9,-12 -14,-25 -17,-35 -1,-5 -3,-9 -3,-12 0,-3 -1,-5 -1,-5 -1,-3 -1,-6 -1,-9l-1 -5c0,-1 0,-3 0,-4 0,-4 0,-7 0,-10l1 -6c0,-3 0,-5 1,-8l1 -7c1,-3 2,-5 2,-8 1,-5 4,-10 5,-15 5,-9 9,-19 16,-27 0,-1 1,-2 2,-4 -3,8 -6,17 -8,25 -3,13 -5,26 -4,39 0,13 1,27 6,40 4,13 12,26 23,35 11,9 24,15 36,19 3,1 6,2 10,3 3,1 6,2 9,2 6,2 13,3 20,3l3 0c0,0 1,0 2,0l3 0c2,-1 5,-1 7,-2 5,0 9,-2 14,-4 0,0 2,-1 6,-3 4,-3 9,-7 14,-12 5,-6 9,-13 12,-21 2,-7 3,-16 2,-23 -1,-6 -3,-11 -6,-15 -2,-3 -4,-5 -6,-7 -4,-2 -5,-2 -5,0 0,3 5,12 4,23 -1,0 -1,3 -2,7 -1,5 -4,11 -9,16 -4,5 -10,9 -14,11 -2,1 -4,2 -6,3 -1,0 -2,0 -2,0 -3,1 -6,2 -9,2 -3,1 -5,1 -11,1 -1,0 -2,0 -4,-1 -1,0 -2,0 -4,0l-8 -2 -8 -2 -8 -3c-10,-3 -19,-8 -26,-15 -7,-7 -12,-15 -15,-25 -3,-10 -4,-21 -4,-32 0,-3 0,-5 0,-8 0,-3 0,-6 1,-8 0,-6 1,-11 3,-16 5,-21 16,-42 31,-57 16,-14 33,-10 57,-6 22,4 43,12 62,22 19,11 36,24 46,41 11,16 14,34 11,54l0 3c0,2 -1,3 -1,5l-2 9c-1,5 -2,11 -4,16 -3,11 -6,20 -11,29 -14,30 -55,32 -60,47 -1,4 -1,9 0,13 2,5 6,10 14,15 0,0 3,2 5,2 16,-2 33,-7 48,-16 15,-10 27,-23 35,-37 7,-14 12,-28 16,-41 2,-7 3,-13 5,-20l1 -9 1 -2 0 -3 1 -6c2,-15 2,-30 -2,-46 -3,-15 -10,-29 -18,-42 -9,-12 -19,-23 -30,-32 -11,-10 -23,-17 -35,-24 -25,-13 -51,-22 -78,-27 -3,0 -7,-1 -10,-1l-5 -1c-2,0 -4,0 -6,0l-11 -1c-4,0 -8,0 -11,0 -8,1 -15,2 -23,4 -3,1 -7,2 -11,3l-5 2 -5 2c-14,6 -27,14 -38,24l-8 7c-3,3 -5,6 -8,9 -5,5 -9,11 -13,17 -2,3 -4,6 -6,9l-2 5 -3 5 -4 10 -4 10c-1,1 -2,3 -2,5l-2 5c0,3 -1,7 -2,10l-2 11 -1 5 -1 6 0 8c-1,2 -1,5 -1,7 0,5 0,9 1,14l1 13c1,5 2,10 3,14 0,0 0,1 1,4 1,2 2,5 4,10 1,2 2,4 3,6 1,3 3,5 4,8 3,5 7,11 11,17 8,11 19,22 31,31 -2,0 -4,-1 -5,-2 2,0 -28,-10 -56,-23 -14,-7 -28,-15 -37,-22 -5,-3 -9,-6 -12,-8 -2,-2 -4,-3 -4,-3 -9,-6 -18,-13 -26,-21 -24,-22 -40,-50 -46,-82 -2,-8 -3,-16 -3,-24 -1,-8 -1,-17 -1,-25 1,-16 3,-33 7,-47 4,-15 11,-28 21,-39 9,-10 21,-18 35,-22 14,-5 30,-7 46,-6 4,0 8,0 12,0l13 2 13 1c5,1 9,1 14,2l19 3c6,1 12,2 19,3 6,2 12,3 18,4l17 5c18,5 26,-2 28,-7 13,-22 -7,-56 -1,-65 14,-16 111,10 153,24 13,5 26,11 38,17 13,6 24,13 34,21 5,4 9,8 13,12 3,4 5,8 6,11 1,4 1,6 0,10 -1,1 -1,3 -2,5l-1 1 -1 2 -1 1 0 0 0 0 -1 1c-1,1 -2,3 -3,4l-2 3c0,1 -1,2 -1,3 -1,2 -2,4 -3,7 -1,2 -1,5 -1,8 0,1 0,2 0,4 0,1 0,2 0,4 1,1 1,2 1,3 0,2 1,3 1,4 1,1 1,2 2,3l1 2 1 3 2 2c4,5 8,9 11,12 4,3 7,6 10,8 13,10 25,18 34,26 4,4 7,9 10,12 0,2 1,4 2,6 0,0 0,1 0,2l0 1 1 1 0 3 1 9 0 10c0,2 0,3 0,5l-1 5c0,3 0,7 -1,10 -1,7 -2,14 -3,21l-2 10 -3 10c-1,7 -4,14 -6,21 -2,7 -4,13 -6,21l-5 13c-1,3 -2,7 -4,10 -2,6 -5,12 -8,17 0,0 -1,1 -1,2 -1,1 -1,2 -2,2 0,1 0,1 0,2 -1,0 -1,1 -1,1 -3,5 -8,9 -15,13 -2,1 -4,2 -6,3 -3,0 -5,1 -8,2 -3,0 -6,1 -9,1 -3,1 -7,1 -10,1 -13,2 -27,2 -40,2 -22,0 -36,1 -45,3 -3,1 -6,2 -7,3 -1,1 -2,2 -2,3 1,1 2,2 3,3 2,1 4,1 5,2 10,4 26,9 45,13 -2,0 6,2 18,4 12,1 29,4 48,3 10,0 21,-3 30,-7 10,-4 19,-10 25,-16 1,-2 3,-3 4,-4 1,-2 2,-3 3,-5 2,-1 2,-2 3,-3 1,-1 2,-2 3,-3 2,-4 3,-6 3,-6 5,-9 8,-17 11,-24 2,-4 3,-8 4,-12l3 -7c1,-4 2,-7 3,-11 10,-29 18,-59 21,-92 0,-4 1,-8 1,-12l0 -13c0,-2 0,-4 -1,-6l0 -6 -1 -7 0 -1c0,-1 0,-2 0,-2l-1 -4c-2,-12 -8,-22 -14,-29 -6,-8 -12,-15 -19,-20 -6,-6 -12,-11 -19,-15 -6,-4 -12,-9 -16,-13 -1,0 -2,-1 -3,-2l1 -2c6,-8 10,-19 12,-30 2,-12 0,-24 -5,-34 -4,-11 -10,-19 -16,-26 -6,-7 -13,-13 -20,-18 -13,-10 -27,-18 -42,-25 -14,-7 -29,-13 -43,-18 -30,-10 -60,-18 -90,-23 -16,-2 -31,-4 -47,-5 -9,0 -17,0 -26,1 -4,0 -9,1 -14,2 -1,0 -3,1 -5,2 -2,0 -3,1 -5,1 -3,2 -7,4 -10,6 -5,4 -9,9 -11,15l-2 5c-1,1 -2,3 -2,4 0,2 -1,4 -1,5 0,1 -1,3 -1,4 -1,8 0,15 0,22 -2,0 -3,-1 -5,-1 -7,-1 -14,-3 -21,-4 -5,-1 -9,-1 -14,-2 0,-4 -1,-9 -2,-11 -2,-4 -4,-6 -5,-8 -4,-3 -7,-5 -11,-7 -6,-5 -13,-8 -19,-10 -1,-1 -1,-1 -2,-1 -4,-2 -7,-3 -11,-4l-11 -4c0,0 -2,-1 -6,-1 -4,-1 -10,-3 -17,-3 -3,0 -7,0 -11,0 -4,0 -9,1 -13,3 -2,1 -3,2 -4,3 -1,0 -2,1 -2,2 -2,2 -4,3 -5,5 -2,4 -4,9 -4,13 0,7 3,13 6,16 2,2 4,4 6,5 -5,1 -9,2 -14,4 -21,7 -41,19 -56,36 -15,17 -25,37 -31,57 -6,20 -8,40 -9,60zm584 -38l0 0c0,0 0,0 0,0 0,0 0,0 0,0zm-1 10l0 0c0,0 0,0 0,0 0,0 0,0 0,0 0,0 0,0 0,0zm-467 -130l0 0c0,-2 -2,-4 -3,-7 -2,-3 -3,-8 -1,-12 0,1 0,-2 2,-4 1,-1 2,-1 3,-2 0,0 1,-1 1,-1 0,0 1,0 1,0 2,-1 5,-1 8,-1 7,1 14,3 19,5 6,2 10,4 10,4l8 3c3,1 6,2 9,3l2 1c5,2 11,5 16,8 1,1 2,2 4,3l-8 -1 -14 -2c-5,0 -10,0 -15,0 -10,-1 -20,0 -31,1 -3,1 -7,1 -11,2z"/>
  <path class="fil0" d="M140 166c0,0 1,-1 2,-1 3,-1 8,-2 11,0 4,2 6,6 7,13 0,1 0,2 0,2 -7,9 -12,21 -16,33 -1,2 -2,5 -3,8 -2,6 -4,13 -5,20 0,0 -1,2 -1,6 -1,3 -3,8 -4,14 -2,12 -3,26 -2,38 1,10 3,17 4,21 1,3 1,5 0,5 -2,0 -5,-2 -9,-6 -3,-4 -6,-11 -9,-18 1,1 -1,-3 -2,-9 -1,-6 -2,-15 -2,-24 -1,-17 2,-35 2,-35 2,-6 3,-13 5,-19 1,-3 2,-6 3,-9 5,-13 10,-26 19,-39z"/>
 </g>
</svg>
