<?xml version="1.0" encoding="UTF-8"?>
<!DOCTYPE svg PUBLIC "-//W3C//DTD SVG 1.1//EN" "http://www.w3.org/Graphics/SVG/1.1/DTD/svg11.dtd">
<!-- Creator: CorelDRAW X7 -->
<svg xmlns="http://www.w3.org/2000/svg" xml:space="preserve" width="2.39698in" height="1.83577in" version="1.1" style="shape-rendering:geometricPrecision; text-rendering:geometricPrecision; image-rendering:optimizeQuality; fill-rule:evenodd; clip-rule:evenodd"
viewBox="0 0 1479 1133"
 xmlns:xlink="http://www.w3.org/1999/xlink">
 <defs>
  <style type="text/css">
   <![CDATA[
    .fil0 {fill:black;fill-rule:nonzero}
   ]]>
  </style>
 </defs>
 <g id="Capa_x0020_1">
  <metadata id="CorelCorpID_0Corel-Layer"/>
  <path class="fil0" d="M154 342c0,0 1,0 0,0 0,0 0,0 0,0l0 0 0 0z"/>
  <path class="fil0" d="M339 380c-8,-7 -14,-10 -14,-10 0,0 -3,-1 -8,-3 -4,-1 -11,-3 -19,-4 -16,-3 -37,-3 -57,0 -20,3 -39,10 -53,15 -27,13 -21,65 20,50 11,-5 26,-10 41,-12 15,-3 29,-3 39,-1 11,1 17,4 17,4 0,0 2,0 5,0 1,0 3,1 4,1 2,0 4,1 6,1 2,1 4,1 5,2 2,1 4,1 5,2 3,1 4,2 4,2 7,2 13,5 19,4 2,0 5,-2 6,-5 1,-4 1,-10 -2,-18 -1,-5 -4,-10 -7,-15 -4,-5 -8,-10 -11,-13z"/>
  <path class="fil0" d="M1475 520c-3,-49 -8,-99 -15,-148l-2 -19c-1,-3 -2,-8 -2,-11 -1,-4 -2,-8 -3,-12 -4,-16 -11,-33 -21,-49 -11,-16 -25,-30 -40,-40 -16,-11 -32,-18 -48,-23 -7,-2 -14,-3 -21,-5 3,-1 5,-3 8,-5 3,-3 6,-6 9,-10l3 -3c0,-1 1,-2 2,-3 2,-3 3,-5 4,-8 4,-10 4,-20 3,-27 -1,-4 -2,-6 -3,-8 0,-2 -1,-3 -1,-3 0,0 -1,-1 -2,-4 -2,-2 -5,-6 -10,-9 -2,-2 -5,-3 -8,-5 -3,-2 -7,-4 -11,-5 -6,-2 -11,-3 -18,-4 -26,-4 -55,-1 -84,5 -8,1 -15,3 -22,5 -7,2 -13,3 -21,6 -6,2 -12,4 -17,6 -6,3 -27,13 -22,35 0,4 7,33 8,36 1,1 1,2 1,3l-4 0 -8 1c-7,0 -14,0 -21,0l-9 1 0 0c0,0 0,0 0,0l1 -2 0 -1 1 -3 2 -7c1,-4 2,-9 3,-14 1,-4 1,-9 2,-14 1,-19 -2,-39 -9,-57 -7,-19 -18,-35 -31,-48 -12,-14 -26,-24 -41,-32 -29,-16 -56,-24 -84,-29 -27,-6 -54,-8 -80,-9 -27,-2 -53,-1 -79,1 -26,2 -52,5 -78,10 -13,3 -26,6 -39,9 -7,2 -14,4 -21,6 -7,2 -13,6 -20,9 -9,3 -17,7 -25,11 -4,2 -8,5 -12,8 -4,2 -8,4 -12,7 -15,11 -31,25 -43,42 -13,17 -23,38 -28,60 -3,13 -4,25 -4,37 -8,2 -18,3 -27,4 -26,3 -55,4 -83,5l-98 1c-34,1 -68,2 -105,8 -18,3 -37,7 -58,15l-8 3 -8 4 -7 4 -9 5c-5,3 -10,7 -16,12l-4 4c-2,1 -3,3 -4,4 -3,3 -6,6 -8,10 -2,3 -5,7 -7,10 -1,3 -2,5 -4,8 -2,6 -5,11 -6,16 -4,9 -7,19 -9,28 -5,18 -9,35 -12,52 -10,54 -16,107 -20,160 -5,53 -7,105 -9,158 -1,53 -2,106 0,159 1,27 2,54 4,81 2,27 5,54 11,84 1,4 2,7 4,14 2,6 4,12 6,18 5,12 11,23 20,32 9,9 20,14 33,18 6,2 12,3 18,4l8 2 6 1c29,5 56,6 84,7 28,1 56,0 84,-2 15,-1 29,-3 44,-6 15,-3 30,-6 48,-13 23,-9 46,-25 56,-49l2 -4c1,-1 1,-3 2,-4 1,-4 2,-7 2,-10 1,-3 2,-6 2,-10l2 -8c1,-4 1,-7 1,-11l1 -10c2,-15 3,-28 4,-41 0,-7 0,-14 1,-21l0 -13c1,-26 2,-52 2,-79 0,0 -1,-19 -2,-47 -2,-28 -4,-65 -6,-101 -5,-74 -11,-145 -12,-139 -7,-59 -15,-108 -25,-118 -9,-11 -23,18 -34,115 -8,57 -14,126 -19,180 -4,55 -8,95 -8,95 0,26 -1,52 -2,78l0 21c-1,13 -2,25 -3,38 0,6 0,13 -1,18 -1,6 -1,13 -2,18l-1 3 0 0c0,0 0,0 0,0 -2,1 -7,3 -12,4 -9,3 -20,5 -32,6 -23,3 -48,4 -72,4 -25,0 -50,-1 -74,-4 -6,-1 -11,-2 -17,-3l-2 0c0,0 0,0 0,0l-1 -3c-1,-2 -1,-5 -2,-7 -1,-6 -2,-12 -3,-17 -1,-12 -3,-25 -4,-37 -2,-25 -3,-51 -4,-77 -2,-51 -2,-104 -1,-156 2,-52 5,-104 9,-156 4,-52 9,-104 18,-153 3,-15 6,-29 10,-43 2,-7 4,-13 6,-19 1,-2 2,-5 3,-7 1,0 1,-2 1,-2 1,0 0,0 0,0 0,0 0,0 0,0 0,0 0,0 0,0 0,0 1,0 1,0 0,-1 1,-2 3,-3 1,0 2,-1 2,-1l3 -2 3 -1 4 -2c10,-3 23,-7 37,-9 28,-4 59,-6 90,-6l98 -2c30,-1 61,-2 93,-5 16,-2 32,-4 49,-8 17,-4 35,-9 53,-18 3,-1 8,-7 9,-9 6,-9 9,-19 10,-27 1,-7 0,-55 2,-61 1,-7 4,-14 9,-20 5,-6 11,-13 20,-19 2,-1 4,-3 7,-4 2,-1 4,-3 7,-4 5,-3 9,-6 15,-8 4,-1 8,-3 13,-5 4,-1 8,-3 14,-4 9,-3 20,-5 30,-7 21,-4 43,-7 65,-9 22,-1 44,-2 65,-1 22,1 43,3 63,6 20,4 39,10 53,17 15,7 23,16 27,24 2,4 3,8 3,13 0,2 0,5 0,7 0,2 -1,3 -1,4l-1 2 0 1c0,0 0,0 0,1l-2 4c-2,4 -4,9 -7,14l-9 16c-1,2 -2,3 -3,4l-1 4 -4 8c-1,5 -3,10 -3,14 -1,9 0,16 2,23 2,7 7,17 12,23 11,14 29,22 50,27 20,5 44,6 67,5l20 -1c2,-1 5,-1 7,-1l10 0c14,0 26,-1 38,-2 24,-2 47,-4 69,-5 21,-1 42,0 58,3 9,2 16,4 21,7 6,3 10,6 13,9 7,7 12,18 14,36l10 69 6 69c6,92 6,185 -2,276 -4,46 -10,92 -18,137l-2 17c-1,6 -3,13 -4,18 -2,12 -4,22 -6,30 -2,9 -5,14 -6,15 -1,2 -1,2 -5,4 0,0 -1,0 -1,0l-2 1c-1,0 -2,1 -4,1 -1,0 -3,0 -4,0l-9 1c-10,1 -21,1 -32,2l-34 0 -35 0 -143 -1 -142 -1 -71 -1 -4 0 -4 0 -7 -1c-5,0 -10,0 -15,-1 -9,-1 -19,-4 -28,-6 -38,-10 -74,-29 -105,-55 -31,-25 -57,-58 -77,-94 -20,-36 -33,-76 -38,-116 -5,-40 -2,-81 10,-118 6,-18 15,-38 24,-56 10,-18 22,-35 34,-51 13,-15 27,-29 43,-41 15,-11 32,-21 50,-29 18,-8 38,-14 58,-18 20,-4 41,-7 62,-8 42,-2 83,3 121,16 19,6 37,15 54,25 4,3 9,6 13,8 4,3 8,6 12,9 9,7 16,13 24,20 28,25 49,60 63,97 15,38 22,79 20,119 -1,19 -5,35 -11,52 -7,17 -17,32 -28,47 -12,14 -26,28 -42,38 -4,3 -8,6 -12,8l-8 5 -5 3c-6,3 -12,6 -18,8l-10 5 -10 3c-6,2 -13,3 -20,5 0,0 -3,2 -9,3 -4,0 -7,1 -12,2 -4,1 -9,2 -15,3 -23,2 -56,2 -87,-4 -32,-6 -61,-17 -81,-28 -20,-10 -30,-20 -28,-17 -21,-15 -36,-33 -46,-48 -10,-16 -15,-29 -21,-33 -5,-5 -11,0 -14,19 -1,10 0,24 5,42 5,17 14,38 32,59 20,26 48,49 79,66 30,17 63,28 94,35 30,7 57,10 77,10 10,0 18,-1 24,-1 6,-1 9,-1 9,-1 20,-3 40,-9 60,-16 9,-4 19,-7 28,-12l14 -7c2,-1 4,-2 7,-4l13 -8c6,-4 12,-8 18,-12 47,-33 85,-80 107,-137l7 -22c2,-7 3,-14 5,-22 2,-7 2,-15 3,-23l1 -11 0 -10c1,-28 -2,-56 -7,-83 -10,-55 -30,-107 -63,-154 -16,-23 -36,-45 -58,-63l-8 -7 -8 -7c-5,-4 -10,-8 -16,-12 -6,-4 -12,-8 -18,-11l-18 -11c-49,-27 -104,-43 -159,-48 -27,-2 -55,-2 -81,0 -27,3 -53,6 -81,13 -53,14 -106,40 -149,78 -43,37 -75,84 -99,133 -11,24 -21,51 -28,79 -6,27 -10,55 -10,83 0,56 11,111 32,162 21,51 51,98 89,138 38,40 85,73 137,94 27,10 54,18 82,22 14,2 29,3 43,4l36 0 146 1 145 1c24,0 49,1 74,1l37 -1 40 -2 2 -1 4 0 6 -1c5,-1 9,-2 14,-3 9,-2 18,-6 28,-11 10,-5 19,-11 27,-19 4,-4 8,-8 11,-13l5 -6 4 -7c10,-18 15,-34 18,-48 4,-15 6,-27 8,-38l12 -74c3,-25 6,-50 9,-74 10,-100 11,-199 5,-299zm-218 -312l0 0c-22,0 -42,2 -62,3 0,0 0,-2 0,-3 -1,-3 -1,-6 -2,-9 -1,-4 -2,-8 -4,-14l0 0c3,0 5,-1 8,-2 3,-1 6,-2 9,-2 6,-2 12,-4 18,-5 25,-5 50,-7 65,-5 13,6 -2,34 -5,38 -9,-1 -18,-1 -27,-1z"/>
 </g>
</svg>
