<?xml version="1.0" encoding="UTF-8"?>
<!DOCTYPE svg PUBLIC "-//W3C//DTD SVG 1.1//EN" "http://www.w3.org/Graphics/SVG/1.1/DTD/svg11.dtd">
<!-- Creator: CorelDRAW X7 -->
<svg xmlns="http://www.w3.org/2000/svg" xml:space="preserve" width="0.877504in" height="0.768654in" version="1.1" style="shape-rendering:geometricPrecision; text-rendering:geometricPrecision; image-rendering:optimizeQuality; fill-rule:evenodd; clip-rule:evenodd"
viewBox="0 0 69 60"
 xmlns:xlink="http://www.w3.org/1999/xlink">
 <defs>
  <style type="text/css">
   <![CDATA[
    .fil1 {fill:#FEFEFE}
    .fil2 {fill:#74CBF2}
    .fil0 {fill:#777876}
   ]]>
  </style>
 </defs>
 <g id="Layer_x0020_1">
  <metadata id="CorelCorpID_0Corel-Layer"/>
  <path class="fil0" d="M69 17l0 35c0,5 -4,8 -9,8l-51 0c-5,0 -9,-3 -9,-8l0 -35c0,-4 4,-8 9,-8l13 0 0 -5c0,-2 1,-4 4,-4l17 0c2,0 4,2 4,4l0 5 13 0c5,0 9,4 9,8l0 0z"/>
  <polygon class="fil1" points="65,13 52,13 52,22 65,22 "/>
  <path class="fil1" d="M52 35c0,-10 -8,-18 -17,-18 -10,0 -18,8 -18,18 0,9 8,17 18,17 9,0 17,-8 17,-17l0 0z"/>
  <path class="fil2" d="M47 35c0,7 -5,12 -12,12 -8,0 -13,-5 -13,-12 0,-8 5,-13 13,-13 7,0 12,5 12,13l0 0z"/>
 </g>
</svg>
