<?xml version="1.0" encoding="UTF-8"?>
<!DOCTYPE svg PUBLIC "-//W3C//DTD SVG 1.1//EN" "http://www.w3.org/Graphics/SVG/1.1/DTD/svg11.dtd">
<!-- Creator: CorelDRAW X7 -->
<svg xmlns="http://www.w3.org/2000/svg" xml:space="preserve" width="0.877512in" height="0.665094in" version="1.1" style="shape-rendering:geometricPrecision; text-rendering:geometricPrecision; image-rendering:optimizeQuality; fill-rule:evenodd; clip-rule:evenodd"
viewBox="0 0 172 130"
 xmlns:xlink="http://www.w3.org/1999/xlink">
 <defs>
  <style type="text/css">
   <![CDATA[
    .fil0 {fill:#74CBF2}
    .fil1 {fill:#777876}
   ]]>
  </style>
 </defs>
 <g id="Layer_x0020_1">
  <metadata id="CorelCorpID_0Corel-Layer"/>
  <path class="fil0" d="M92 0c-14,0 -26,11 -26,25 0,15 12,26 26,26 14,0 25,-11 25,-26 0,-14 -11,-25 -25,-25l0 0z"/>
  <path class="fil0" d="M30 10c-11,0 -20,10 -20,20 0,12 9,21 20,21 12,0 21,-9 21,-21 0,-10 -9,-20 -21,-20l0 0z"/>
  <path class="fil1" d="M129 82l0 -16c0,-6 -5,-11 -11,-11l-27 0 -64 0 -16 0c-6,0 -11,5 -11,11l0 53c0,6 5,11 11,11l107 0c6,0 11,-5 11,-11l0 -16 43 27 0 -75 -43 27z"/>
 </g>
</svg>
