<?xml version="1.0" encoding="UTF-8"?>
<!DOCTYPE svg PUBLIC "-//W3C//DTD SVG 1.1//EN" "http://www.w3.org/Graphics/SVG/1.1/DTD/svg11.dtd">
<!-- Creator: CorelDRAW X7 -->
<svg xmlns="http://www.w3.org/2000/svg" xml:space="preserve" width="1.046in" height="0.931433in" version="1.1" style="shape-rendering:geometricPrecision; text-rendering:geometricPrecision; image-rendering:optimizeQuality; fill-rule:evenodd; clip-rule:evenodd"
viewBox="0 0 145 129"
 xmlns:xlink="http://www.w3.org/1999/xlink">
 <defs>
  <style type="text/css">
   <![CDATA[
    .fil0 {fill:#2B4446;fill-rule:nonzero}
   ]]>
  </style>
 </defs>
 <g id="__x0023_Layer_x0020_1">
  <metadata id="CorelCorpID_0Corel-Layer"/>
  <path class="fil0" d="M136 0l-127 0c-5,0 -9,5 -9,11l0 108c0,5 4,10 9,10l127 0c5,0 9,-5 9,-10l0 -108c0,-6 -4,-11 -9,-11zm0 11l0 0 0 76 -18 -19c-3,-3 -7,-2 -10,1l-18 21 -36 -50c-3,-4 -8,-4 -11,0l-34 45 0 -74 127 0zm-39 27l0 0c0,-8 5,-14 12,-14 7,0 13,6 13,14 0,8 -6,15 -13,15 -7,0 -12,-7 -12,-15z"/>
 </g>
</svg>
