<?xml version="1.0" encoding="UTF-8"?>
<!DOCTYPE svg PUBLIC "-//W3C//DTD SVG 1.1//EN" "http://www.w3.org/Graphics/SVG/1.1/DTD/svg11.dtd">
<!-- Creator: CorelDRAW X7 -->
<svg xmlns="http://www.w3.org/2000/svg" xml:space="preserve" width="4.0472in" height="4.04719in" version="1.1" style="shape-rendering:geometricPrecision; text-rendering:geometricPrecision; image-rendering:optimizeQuality; fill-rule:evenodd; clip-rule:evenodd"
viewBox="0 0 3377 3377"
 xmlns:xlink="http://www.w3.org/1999/xlink">
 <defs>
  <style type="text/css">
   <![CDATA[
    .fil0 {fill:#585757}
   ]]>
  </style>
 </defs>
 <g id="Layer_x0020_1">
  <metadata id="CorelCorpID_0Corel-Layer"/>
  <path class="fil0" d="M1689 869c-452,0 -820,368 -820,820 0,452 368,820 820,820 452,0 820,-368 820,-820 0,-452 -368,-820 -820,-820zm0 1869c-579,0 -1050,-471 -1050,-1049 0,-579 471,-1050 1050,-1050 578,0 1049,471 1049,1050 0,578 -471,1049 -1049,1049z"/>
  <polygon class="fil0" points="1574,558 1689,0 1803,558 "/>
  <polygon class="fil0" points="808,970 495,495 970,808 "/>
  <polygon class="fil0" points="558,1803 0,1689 558,1574 "/>
  <polygon class="fil0" points="970,2569 495,2883 808,2407 "/>
  <polygon class="fil0" points="1803,2819 1689,3377 1574,2819 "/>
  <polygon class="fil0" points="2569,2407 2883,2883 2407,2569 "/>
  <polygon class="fil0" points="2819,1574 3377,1689 2819,1803 "/>
  <polygon class="fil0" points="2407,808 2883,495 2569,970 "/>
 </g>
</svg>
