<?xml version="1.0" encoding="UTF-8"?>
<!DOCTYPE svg PUBLIC "-//W3C//DTD SVG 1.1//EN" "http://www.w3.org/Graphics/SVG/1.1/DTD/svg11.dtd">
<!-- Creator: CorelDRAW X7 -->
<svg xmlns="http://www.w3.org/2000/svg" xml:space="preserve" width="0.702457in" height="0.599335in" version="1.1" style="shape-rendering:geometricPrecision; text-rendering:geometricPrecision; image-rendering:optimizeQuality; fill-rule:evenodd; clip-rule:evenodd"
viewBox="0 0 200 171"
 xmlns:xlink="http://www.w3.org/1999/xlink">
 <defs>
  <style type="text/css">
   <![CDATA[
    .fil0 {fill:#7B7D7F}
   ]]>
  </style>
 </defs>
 <g id="Layer_x0020_1">
  <metadata id="CorelCorpID_0Corel-Layer"/>
  <path class="fil0" d="M145 61l0 21c0,1 0,5 1,5 0,0 0,0 2,2l4 2 0 29 -17 -10c-13,-8 -15,-17 -15,-24l-65 63 -42 -44c0,0 107,-105 107,-105l43 43 -18 18zm19 37l12 7 0 -15c0,-3 3,-6 6,-6l12 0c4,0 6,3 6,6l0 75c0,3 -2,6 -6,6l-12 0c-3,0 -6,-3 -6,-6l0 -30 -12 -8 0 -29zm-162 22l6 -6 38 42 -7 5 -6 -7 -7 6c-2,2 -5,2 -6,0l-19 -20c-1,-1 -1,-1 -1,-3l0 0c0,-1 0,-3 2,-3l6 -7 -6 -7z"/>
 </g>
</svg>
