<?xml version="1.0" encoding="UTF-8"?>
<!DOCTYPE svg PUBLIC "-//W3C//DTD SVG 1.1//EN" "http://www.w3.org/Graphics/SVG/1.1/DTD/svg11.dtd">
<!-- Creator: CorelDRAW X7 -->
<svg xmlns="http://www.w3.org/2000/svg" xml:space="preserve" width="2.81252in" height="2.14483in" version="1.1" style="shape-rendering:geometricPrecision; text-rendering:geometricPrecision; image-rendering:optimizeQuality; fill-rule:evenodd; clip-rule:evenodd"
viewBox="0 0 2892 2206"
 xmlns:xlink="http://www.w3.org/1999/xlink">
 <defs>
  <style type="text/css">
   <![CDATA[
    .fil2 {fill:#76B6D4}
    .fil0 {fill:#6A7173}
    .fil1 {fill:#5D6264}
   ]]>
  </style>
 </defs>
 <g id="Layer_x0020_1">
  <metadata id="CorelCorpID_0Corel-Layer"/>
  <path class="fil0" d="M1552 2016l0 32 -212 0 0 -32 -1340 0 0 37c0,84 40,153 89,153l2714 0c49,0 89,-69 89,-153l0 -37 -1340 0z"/>
  <path class="fil1" d="M2865 1942c0,14 -9,25 -21,25l-2796 0c-11,0 -21,-11 -21,-25l0 -1918c0,-13 10,-24 21,-24l2796 0c12,0 21,11 21,24l0 1918z"/>
  <path class="fil2" d="M2725 1805c0,16 -11,29 -25,29l-2508 0c-14,0 -25,-13 -25,-29l0 -1644c0,-15 11,-28 25,-28l2508 0c14,0 25,13 25,28l0 1644z"/>
 </g>
</svg>
