<?xml version="1.0" encoding="UTF-8"?>
<!DOCTYPE svg PUBLIC "-//W3C//DTD SVG 1.1//EN" "http://www.w3.org/Graphics/SVG/1.1/DTD/svg11.dtd">
<!-- Creator: CorelDRAW X7 -->
<svg xmlns="http://www.w3.org/2000/svg" xml:space="preserve" width="0.877512in" height="0.748748in" version="1.1" style="shape-rendering:geometricPrecision; text-rendering:geometricPrecision; image-rendering:optimizeQuality; fill-rule:evenodd; clip-rule:evenodd"
viewBox="0 0 172 147"
 xmlns:xlink="http://www.w3.org/1999/xlink">
 <defs>
  <style type="text/css">
   <![CDATA[
    .fil1 {fill:#74CBF2}
    .fil0 {fill:#777876}
   ]]>
  </style>
 </defs>
 <g id="Layer_x0020_1">
  <metadata id="CorelCorpID_0Corel-Layer"/>
  <path class="fil0" d="M125 52l0 19c0,1 0,3 0,4 0,0 1,0 2,1l4 3 0 25 -15 -9c-11,-7 -12,-15 -13,-21l-55 54 -36 -37c0,0 92,-91 91,-91l37 37 -15 15z"/>
  <path class="fil0" d="M141 85l10 6 0 -13c0,-3 3,-5 5,-5l11 0c3,0 5,2 5,5l0 64c0,3 -2,5 -5,5l-11 0c-2,0 -5,-2 -5,-5l0 -26 -10 -6 0 -25z"/>
  <path class="fil1" d="M2 104l5 -6 33 36 -6 5 -5 -6 -6 5c-2,2 -5,2 -6,0l-16 -17c-1,-1 -1,-2 -1,-3l0 0c0,-1 1,-2 1,-3l6 -5 -5 -6z"/>
 </g>
</svg>
