<?xml version="1.0" encoding="UTF-8"?>
<!DOCTYPE svg PUBLIC "-//W3C//DTD SVG 1.1//EN" "http://www.w3.org/Graphics/SVG/1.1/DTD/svg11.dtd">
<!-- Creator: CorelDRAW X7 -->
<svg xmlns="http://www.w3.org/2000/svg" xml:space="preserve" width="0.877559in" height="0.54828in" version="1.1" style="shape-rendering:geometricPrecision; text-rendering:geometricPrecision; image-rendering:optimizeQuality; fill-rule:evenodd; clip-rule:evenodd"
viewBox="0 0 434 271"
 xmlns:xlink="http://www.w3.org/1999/xlink">
 <defs>
  <style type="text/css">
   <![CDATA[
    .fil1 {fill:#74CBF2}
    .fil0 {fill:#777876}
   ]]>
  </style>
 </defs>
 <g id="Layer_x0020_1">
  <metadata id="CorelCorpID_0Corel-Layer"/>
  <path class="fil0" d="M260 62c0,-4 -1,-8 -1,-11l0 -27c0,-12 -8,-24 -21,-24l-161 0c-11,0 -21,11 -21,23 0,12 10,23 21,23l124 0c8,0 15,6 15,11 0,1 0,3 -1,5l-198 0c-9,0 -17,7 -17,16l0 177c0,9 7,16 16,16l280 0 0 -77 20 0 0 8c0,5 3,10 9,10l29 0 0 3c0,8 7,15 14,15l52 0c8,0 14,-7 14,-15l0 -10 -12 0c-9,0 -16,-7 -16,-15l0 -58c0,-8 7,-15 16,-15l12 0 0 -10c0,-8 -6,-14 -14,-14l-52 0c-7,0 -14,6 -14,14l0 3 -29 0c-6,0 -9,5 -9,11l0 7 -20 0 0 -66 -36 0z"/>
  <polygon class="fil1" points="31,94 264,94 264,241 31,241 "/>
  <path class="fil1" d="M84 13l138 0c4,0 7,3 7,6l0 6c0,3 -3,6 -7,6l-138 0c-3,0 -6,-3 -6,-6l0 -6c0,-3 3,-6 6,-6l0 0z"/>
  <polygon class="fil0" points="238,111 58,111 58,224 238,224 "/>
 </g>
</svg>
