<?xml version="1.0" encoding="UTF-8"?>
<!DOCTYPE svg PUBLIC "-//W3C//DTD SVG 1.1//EN" "http://www.w3.org/Graphics/SVG/1.1/DTD/svg11.dtd">
<!-- Creator: CorelDRAW X7 -->
<svg xmlns="http://www.w3.org/2000/svg" xml:space="preserve" width="3.25358in" height="2.41696in" version="1.1" style="shape-rendering:geometricPrecision; text-rendering:geometricPrecision; image-rendering:optimizeQuality; fill-rule:evenodd; clip-rule:evenodd"
viewBox="0 0 2610 1939"
 xmlns:xlink="http://www.w3.org/1999/xlink">
 <defs>
  <style type="text/css">
   <![CDATA[
    .fil0 {fill:#585757}
   ]]>
  </style>
 </defs>
 <g id="Layer_x0020_1">
  <metadata id="CorelCorpID_0Corel-Layer"/>
  <path class="fil0" d="M184 1755l2242 0 0 -1336 -2242 0 0 1336zm2266 184l-2291 0c-88,0 -159,-72 -159,-160l0 -1384c0,-88 71,-159 159,-159l2291 0c88,0 160,71 160,159l0 1384c0,88 -72,160 -160,160z"/>
  <path class="fil0" d="M2204 1087c0,309 -251,560 -560,560 -309,0 -559,-251 -559,-560 0,-309 250,-559 559,-559 309,0 560,250 560,559z"/>
  <path class="fil0" d="M986 327l-184 0 0 -143 -251 0 0 143 -183 0 0 -172c0,-85 69,-155 155,-155l308 0c86,0 155,70 155,155l0 172z"/>
  <polygon class="fil0" points="557,738 361,738 361,554 557,554 "/>
 </g>
</svg>
