<?xml version="1.0" encoding="UTF-8"?>
<!DOCTYPE svg PUBLIC "-//W3C//DTD SVG 1.1//EN" "http://www.w3.org/Graphics/SVG/1.1/DTD/svg11.dtd">
<!-- Creator: CorelDRAW X7 -->
<svg xmlns="http://www.w3.org/2000/svg" xml:space="preserve" width="0.877512in" height="0.642587in" version="1.1" style="shape-rendering:geometricPrecision; text-rendering:geometricPrecision; image-rendering:optimizeQuality; fill-rule:evenodd; clip-rule:evenodd"
viewBox="0 0 172 126"
 xmlns:xlink="http://www.w3.org/1999/xlink">
 <defs>
  <style type="text/css">
   <![CDATA[
    .fil1 {fill:#FEFEFE}
    .fil2 {fill:#74CBF2}
    .fil0 {fill:#777876}
   ]]>
  </style>
 </defs>
 <g id="Layer_x0020_1">
  <metadata id="CorelCorpID_0Corel-Layer"/>
  <path class="fil0" d="M11 104l-11 0 0 -64 11 0c6,0 11,5 11,10l0 44c0,6 -5,10 -11,10l0 0z"/>
  <path class="fil0" d="M155 18c-3,-2 -4,-4 -4,-7 0,-6 -10,-11 -23,-11l-18 0c-13,0 -23,5 -23,11 0,3 -1,5 -2,7l-4 0 -16 0 -33 0 -11 0 -10 0c-6,0 -11,5 -11,11l11 0c12,0 21,10 21,21l0 44c0,11 -9,21 -21,21l-11 0c0,6 5,11 11,11l150 0c6,0 11,-5 11,-11l0 -86c0,-6 -5,-11 -11,-11l-6 0z"/>
  <polygon class="fil1" points="150,29 129,29 129,40 150,40 "/>
  <path class="fil1" d="M86 36c5,0 11,1 15,4l0 0c5,1 9,5 13,8l0 0 0 0c4,4 6,8 9,13l0 0c2,5 3,10 3,15 0,5 -1,11 -3,15l0 0c-3,5 -5,10 -9,13l0 0c-4,4 -8,7 -13,9l0 0c-4,2 -10,3 -15,3 -5,0 -11,-1 -15,-3l0 0c-5,-2 -9,-5 -13,-9l0 0c-4,-3 -7,-8 -9,-13l0 0c-2,-4 -3,-10 -3,-15 0,-5 1,-10 3,-15l0 0c2,-5 5,-9 9,-13l0 0 0 0c4,-3 8,-7 13,-8l0 0c4,-3 10,-4 15,-4l0 0z"/>
  <path class="fil2" d="M105 57c-2,-2 -6,-4 -9,-5 -3,-2 -6,-3 -10,-3 -4,0 -7,1 -10,3 -3,1 -7,3 -9,5 -2,3 -5,6 -6,9 -1,3 -2,7 -2,10 0,4 1,7 2,10 1,4 4,7 6,9 2,3 6,5 9,6 3,1 6,2 10,2 4,0 7,-1 10,-2 3,-1 7,-3 9,-6 2,-2 5,-5 6,-9 1,-3 2,-6 2,-10 0,-3 -1,-7 -2,-10 -1,-3 -4,-6 -6,-9l0 0z"/>
  <path class="fil1" d="M86 57c2,0 5,1 7,2l0 0c3,1 5,2 6,4l0 0 0 0c2,2 4,4 4,6l1 0c0,2 1,5 1,7 0,3 -1,5 -1,8l-1 0c0,2 -2,4 -4,6l0 0c-1,1 -3,3 -6,4l0 0c-2,1 -5,1 -7,1 -2,0 -5,0 -7,-1l0 0c-3,-1 -5,-3 -6,-4l0 0c-2,-2 -4,-4 -5,-6l0 0c0,-3 -1,-5 -1,-8 0,-2 1,-5 1,-7l0 0c1,-2 3,-4 5,-6l0 0c1,-2 3,-3 6,-4l0 0c2,-1 5,-2 7,-2l0 0z"/>
  <path class="fil2" d="M95 67c-1,-1 -3,-2 -4,-2 -2,-1 -3,-2 -5,-2 -2,0 -4,1 -5,2 -2,0 -3,1 -4,2 -1,1 -2,3 -3,4 0,2 -1,3 -1,5 0,2 1,4 1,5 1,1 2,3 3,4 1,1 2,2 4,3 1,0 3,1 5,1 2,0 3,-1 5,-1 1,-1 3,-2 4,-3 1,-1 2,-3 3,-4 0,-1 1,-3 1,-5 0,-2 -1,-3 -1,-5 -1,-1 -2,-3 -3,-4l0 0z"/>
 </g>
</svg>
