<?xml version="1.0" encoding="UTF-8"?>
<!DOCTYPE svg PUBLIC "-//W3C//DTD SVG 1.1//EN" "http://www.w3.org/Graphics/SVG/1.1/DTD/svg11.dtd">
<!-- Creator: CorelDRAW X7 -->
<svg xmlns="http://www.w3.org/2000/svg" xml:space="preserve" width="1.9742in" height="1.21628in" version="1.1" style="shape-rendering:geometricPrecision; text-rendering:geometricPrecision; image-rendering:optimizeQuality; fill-rule:evenodd; clip-rule:evenodd"
viewBox="0 0 976 602"
 xmlns:xlink="http://www.w3.org/1999/xlink">
 <defs>
  <style type="text/css">
   <![CDATA[
    .fil0 {fill:black;fill-rule:nonzero}
   ]]>
  </style>
 </defs>
 <g id="Objects">
  <metadata id="CorelCorpID_0Corel-Layer"/>
  <path class="fil0" d="M964 285c-2,-3 -53,-72 -137,-142 -113,-94 -230,-143 -339,-143 -109,0 -226,49 -338,143 -84,70 -136,139 -138,142l-12 16 12 16c2,3 54,72 138,142 112,93 229,143 338,143 109,0 226,-50 339,-143 84,-70 135,-139 137,-142l12 -16 -12 -16zm-476 262l0 0c-199,0 -372,-189 -419,-246 47,-58 219,-246 419,-246 200,0 372,189 420,246 -48,57 -220,246 -420,246z"/>
  <path class="fil0" d="M488 66c-129,0 -234,105 -234,235 0,129 105,234 234,234 130,0 235,-105 235,-234 0,-130 -105,-235 -235,-235zm0 415l0 0c-99,0 -180,-81 -180,-180 0,-99 81,-180 180,-180 100,0 180,81 180,180 0,99 -80,180 -180,180z"/>
  <path class="fil0" d="M488 156c-80,0 -144,65 -144,145 0,80 64,144 144,144 80,0 145,-64 145,-144 0,-80 -65,-145 -145,-145zm-19 78l0 0c-26,0 -47,21 -47,47 0,9 -8,17 -17,17 -9,0 -16,-8 -16,-17 0,-44 36,-80 80,-80 9,0 16,8 16,17 0,9 -7,16 -16,16z"/>
 </g>
</svg>
