<?xml version="1.0" encoding="UTF-8"?>
<!DOCTYPE svg PUBLIC "-//W3C//DTD SVG 1.1//EN" "http://www.w3.org/Graphics/SVG/1.1/DTD/svg11.dtd">
<!-- Creator: CorelDRAW X7 -->
<svg xmlns="http://www.w3.org/2000/svg" xml:space="preserve" width="0.757299in" height="0.954185in" version="1.1" style="shape-rendering:geometricPrecision; text-rendering:geometricPrecision; image-rendering:optimizeQuality; fill-rule:evenodd; clip-rule:evenodd"
viewBox="0 0 90 114"
 xmlns:xlink="http://www.w3.org/1999/xlink">
 <defs>
  <style type="text/css">
   <![CDATA[
    .fil0 {fill:#2B4446;fill-rule:nonzero}
   ]]>
  </style>
 </defs>
 <g id="__x0023_Layer_x0020_1">
  <metadata id="CorelCorpID_0Corel-Layer"/>
  <path class="fil0" d="M88 21l-15 -19c-2,-1 -4,-2 -6,-2l-60 0c-4,0 -7,3 -7,7l0 100c0,4 3,7 7,7l76 0c4,0 7,-3 7,-7l0 -81c0,-2 0,-3 -2,-5zm-16 -12l0 0 6 5 0 9 -6 0 0 -14zm-11 -4l0 0 6 0 0 15 -6 0 0 -15zm-10 0l0 0 5 0 0 15 -5 0 0 -15zm-11 0l0 0 5 0 0 15 -5 0 0 -15zm-11 0l0 0 5 0 0 15 -5 0 0 -15zm-11 0l0 0 5 0 0 15 -5 0 0 -15zm-11 0l0 0 6 0 0 15 -6 0 0 -15zm74 100l0 0 -72 0 0 -45 72 0 0 45z"/>
 </g>
</svg>
