<?xml version="1.0" encoding="UTF-8"?>
<!DOCTYPE svg PUBLIC "-//W3C//DTD SVG 1.1//EN" "http://www.w3.org/Graphics/SVG/1.1/DTD/svg11.dtd">
<!-- Creator: CorelDRAW X7 -->
<svg xmlns="http://www.w3.org/2000/svg" xml:space="preserve" width="2.3272in" height="2.0228in" version="1.1" style="shape-rendering:geometricPrecision; text-rendering:geometricPrecision; image-rendering:optimizeQuality; fill-rule:evenodd; clip-rule:evenodd"
viewBox="0 0 2266 1970"
 xmlns:xlink="http://www.w3.org/1999/xlink">
 <defs>
  <style type="text/css">
   <![CDATA[
    .fil0 {fill:black;fill-rule:nonzero}
   ]]>
  </style>
 </defs>
 <g id="Capa_x0020_1">
  <metadata id="CorelCorpID_0Corel-Layer"/>
  <path class="fil0" d="M413 661c7,-5 18,-11 31,-15 18,-6 40,-11 63,-16l16 -3c6,-1 13,-3 19,-4 12,-3 23,-6 32,-8 2,-1 54,-7 45,-49 -9,-43 -107,-23 -112,-22l-18 4c-23,5 -46,10 -72,18 -18,7 -38,15 -57,30 -18,14 -34,37 -41,59 -7,21 -9,43 -9,62 0,19 2,37 5,55 1,10 4,19 6,29 1,5 3,10 5,15 2,5 3,10 6,15 8,20 26,42 49,55 23,13 48,16 68,16 21,0 39,-3 57,-6 23,-4 46,-10 66,-15 0,0 14,-3 34,-8 11,-3 24,-6 38,-10 15,-5 31,-10 48,-19 4,-3 9,-5 13,-8 4,-4 8,-8 12,-11 4,-5 7,-10 11,-14 3,-5 5,-10 7,-15 6,-20 6,-37 4,-49 -1,-13 -4,-22 -5,-28 -2,-6 -3,-8 -3,-7 -2,-6 -4,-12 -6,-17 -1,-3 -2,-6 -4,-11 -1,-2 -3,-4 -4,-6 -5,-9 -8,-17 -13,-24 -3,-7 -7,-13 -9,-18 -3,-4 -5,-7 -7,-9 -4,-4 -9,-1 -11,15 -1,8 -1,18 1,31 1,7 2,14 4,23 2,5 2,14 3,23 1,11 1,22 0,31 0,6 -2,10 -2,14 -1,2 -2,3 -3,5l-1 3 -1 1c-3,5 -7,7 -14,10 -3,1 -8,2 -12,3 -5,1 -9,2 -14,3 -18,3 -37,4 -50,6 -14,1 -22,2 -22,2 -14,3 -27,6 -39,9 -13,3 -25,5 -37,7 -14,3 -29,5 -41,5 -12,0 -21,-2 -27,-5 -5,-4 -10,-8 -14,-18 -1,-2 -2,-5 -3,-8 -1,-3 -2,-5 -3,-8 -1,-7 -3,-13 -4,-20 -5,-28 -6,-59 1,-77 3,-10 7,-15 14,-21z"/>
  <path class="fil0" d="M2265 1201c-1,-15 -1,-28 -2,-35 -1,-8 -2,-13 -2,-13 -5,-27 -10,-56 -18,-82l-10 -40c-4,-13 -8,-26 -12,-39 -24,-78 -150,-606 -176,-686 -12,-40 -29,-80 -46,-120l-30 -58c-2,-4 -7,-11 -10,-17l-12 -17c-9,-11 -20,-23 -30,-33 -27,-25 -62,-43 -96,-52 -35,-9 -67,-10 -97,-8 -59,5 -167,47 -167,48 -12,-3 -23,-5 -33,-4 -17,0 -33,3 -49,8 1,-6 2,-13 0,-18 -2,-7 -6,-13 -12,-18 -6,-4 -13,-8 -18,-10 -4,-1 -5,-1 -7,-1 -27,6 -51,14 -75,24 -23,9 -46,21 -67,33 -24,14 -48,31 -70,51 -11,9 -21,20 -31,34 -3,3 -5,7 -8,11 -2,-2 -214,37 -303,63l-44 13 -43 12 -89 24 -178 48c-60,16 -120,33 -179,50l-90 26 -22 6 -12 3 -13 5c-8,2 -17,6 -26,9 -9,4 -18,8 -26,12 -18,8 -36,19 -53,31 -17,13 -34,27 -49,45 -30,35 -49,81 -56,124 -7,42 -4,81 0,117 5,35 13,68 21,100 8,31 17,61 25,90l12 43 9 43c14,57 196,725 196,725l21 45 11 22c1,4 3,8 5,12l7 13c20,37 54,76 98,98 43,24 87,30 125,31 19,1 37,1 54,0 9,-1 17,-1 26,-2 8,-1 17,-2 26,-3 70,-9 688,-199 719,-207 63,-17 126,-39 189,-69 62,-30 123,-73 174,-131 3,-4 6,-8 9,-12l8 -12 17 -24c5,-8 10,-17 14,-26 5,-9 10,-18 13,-26 14,-34 24,-67 33,-100 16,-66 25,-133 27,-201 0,-17 1,-34 0,-51l-1 -26 -2 -26c-1,-17 -5,-34 -7,-52 -2,-9 -4,-17 -6,-26 -2,-9 -4,-18 -6,-27 -9,-35 -25,-71 -44,-105 -10,-15 -19,-30 -30,-45 -11,-14 -21,-29 -34,-43 -49,-54 -110,-99 -176,-129 -67,-29 -139,-45 -210,-48 -72,-3 -144,8 -213,31 -68,25 -133,62 -187,113 -54,52 -97,117 -120,190 -5,18 -11,36 -14,54l-5 27c-1,10 -2,19 -2,28 -1,9 -2,18 -2,28l0 17 0 12c0,16 2,32 3,47l3 24 5 23 4 23 3 11 3 12c0,0 3,8 8,22 3,7 6,16 10,25 5,10 10,21 16,32 5,12 13,24 21,37 4,6 8,13 13,19 5,6 10,13 15,19 5,7 10,13 16,20 6,6 12,12 18,18 6,6 12,12 19,18l21 16c7,5 13,11 21,15 7,5 15,9 22,13 14,10 30,15 45,22 14,7 29,10 42,14 7,2 13,4 20,6 6,1 12,2 18,3 24,5 43,5 55,6 13,1 19,1 16,0 26,-1 51,-2 74,-7 11,-2 21,-4 31,-7 10,-2 19,-5 28,-8 17,-5 30,-13 41,-18 10,-6 17,-12 20,-17 6,-10 -4,-16 -33,-19 -7,-1 -15,-1 -25,-2 -10,-1 -21,-2 -33,-2 -25,-2 -55,-6 -89,-12 -40,-10 -81,-26 -116,-49 -34,-23 -62,-51 -81,-80 -4,-7 -8,-15 -12,-21 -2,-4 -4,-7 -6,-11 -2,-3 -3,-7 -4,-10 -3,-7 -6,-13 -9,-19 -2,-6 -4,-12 -5,-17 -8,-20 -10,-34 -10,-34l-5 -16c-2,-5 -3,-11 -4,-17l-7 -33 -4 -34c-1,-6 0,-11 0,-17l0 -8 -1 -15 2 -18c2,-26 8,-49 15,-73 9,-22 18,-45 32,-64 13,-21 30,-39 48,-56 9,-8 18,-16 29,-23 5,-4 10,-8 15,-11l17 -10c43,-25 94,-40 146,-47 52,-6 105,-2 155,11 50,13 96,36 135,68 10,8 19,17 29,25 8,10 17,18 25,28 8,11 16,20 23,32l10 16c4,6 5,10 8,16l4 7c1,3 2,6 3,8 2,6 5,11 7,17 3,12 7,24 10,37 6,25 9,53 11,80 2,55 -1,112 -10,168 -5,27 -11,55 -19,81 -2,7 -5,13 -7,20 -2,6 -4,13 -6,18l-8 18 -7 15c-21,39 -58,73 -102,101 -45,28 -98,49 -153,67 -55,17 -655,201 -709,211 -51,9 -115,14 -149,5 -17,-5 -26,-11 -36,-22 -2,-3 -5,-6 -7,-10l-4 -6 -4 -8c-2,-5 -6,-12 -9,-19l-9 -20c-13,-26 -23,-54 -34,-81 -11,-28 -148,-560 -161,-623 -8,-32 -15,-64 -23,-95l-26 -91c-7,-29 -14,-57 -19,-83 -4,-27 -6,-51 -4,-72 2,-20 7,-35 16,-47 8,-13 23,-24 42,-35 4,-2 10,-5 15,-7l17 -7 18 -6 22 -6 89 -26 180 -51 181 -48 91 -25 46 -13 46 -13c89,-26 274,-78 276,-80 2,1 3,2 5,4 3,2 7,5 10,7l11 6c7,5 13,8 20,11 6,3 14,6 21,9 8,3 16,5 24,7 32,6 63,5 92,1 29,-4 56,-12 83,-22 27,-11 53,-25 78,-45 6,-5 13,-12 19,-18 5,-6 10,-12 14,-19 9,-13 17,-27 23,-41 1,-3 95,-32 128,-34 17,-1 31,0 42,2 10,3 18,8 25,14 3,4 6,6 10,10 1,3 3,5 4,8 2,2 3,4 5,8l25 47c13,32 27,65 38,100 22,70 153,612 176,684l9 31 8 30 8 30c3,10 4,20 6,30 0,0 2,6 5,17 1,6 4,13 5,21 1,7 3,16 5,26 1,9 3,19 5,30 1,4 1,9 1,13 0,4 1,8 0,12 0,17 -4,32 -13,46 -8,15 -23,29 -41,41 -17,13 -37,23 -54,31 -34,17 -58,26 -53,25 -42,18 -82,36 -113,52 -31,17 -51,34 -55,44 -4,11 6,15 35,14 15,-1 34,-2 60,-5 25,-3 56,-7 95,-14 46,-8 98,-18 151,-43 26,-13 53,-31 76,-54 23,-23 40,-53 51,-82 10,-30 14,-58 14,-82 0,-22 -1,-39 -1,-54zm-735 -1031l0 0c-7,18 -19,37 -32,47 -14,11 -35,23 -55,31 -41,16 -89,24 -126,17 -5,-1 -9,-2 -13,-4 -4,-2 -8,-3 -14,-6 -5,-2 -11,-5 -14,-7l-6 -4 -6 -4c-3,-2 -5,-5 -8,-7 -1,-2 -3,-4 -3,-6 -2,-3 -2,-5 -1,-10 1,-5 5,-12 11,-19 5,-8 12,-15 20,-22 16,-15 35,-28 55,-40 17,-10 35,-19 53,-27 -14,16 -20,27 -18,25 -47,66 -25,96 -4,77 9,-12 21,-28 39,-46 15,-14 33,-27 51,-36 19,-8 38,-12 54,-11 8,1 15,2 19,4 1,0 2,1 2,1 3,4 7,5 4,17 0,1 0,3 0,4 -1,8 -4,17 -8,26z"/>
  <path class="fil0" d="M1350 1235c-2,0 -5,1 -7,1 -2,1 -6,1 -8,2 -2,1 -4,1 -5,2 -2,2 -2,4 0,6 1,2 3,3 4,5 1,0 2,1 4,2 1,1 3,1 5,2 3,2 8,4 13,4 6,1 12,2 19,2 14,1 32,-1 53,-10 24,-11 48,-31 64,-56 16,-25 25,-52 30,-76 5,-25 6,-47 5,-63 0,-7 -1,-14 -1,-18 -1,-4 -1,-7 -1,-7 -6,-29 -16,-59 -33,-86 -13,-19 -28,-37 -48,-51 -10,-8 -22,-14 -31,-18 -9,-4 -19,-8 -29,-11 -39,-14 -82,-20 -126,-13 -7,1 -14,1 -21,3l-21 7c-7,1 -13,5 -20,8 -7,4 -13,6 -20,11 -14,9 -24,19 -35,29 -10,11 -19,23 -27,40 -1,3 -1,10 -1,11 1,5 2,11 4,15 1,5 3,9 6,12 2,3 5,5 7,6 3,2 5,2 7,3 30,8 73,-39 84,-45 3,-2 8,-4 11,-6 4,-2 8,-4 12,-5l13 -4c4,-1 9,-1 13,-2 28,-4 59,0 87,9 8,2 14,6 21,9 8,3 12,5 17,9 10,7 18,16 26,28 9,14 16,31 20,48 0,0 4,12 7,30 3,18 4,43 -1,67 -4,23 -14,44 -24,57 -10,12 -19,18 -16,17 -15,12 -32,19 -46,23 -4,1 -7,2 -11,3z"/>
 </g>
</svg>
