<?xml version="1.0" encoding="UTF-8"?>
<!DOCTYPE svg PUBLIC "-//W3C//DTD SVG 1.1//EN" "http://www.w3.org/Graphics/SVG/1.1/DTD/svg11.dtd">
<!-- Creator: CorelDRAW X7 -->
<svg xmlns="http://www.w3.org/2000/svg" xml:space="preserve" width="0.877504in" height="0.675752in" version="1.1" style="shape-rendering:geometricPrecision; text-rendering:geometricPrecision; image-rendering:optimizeQuality; fill-rule:evenodd; clip-rule:evenodd"
viewBox="0 0 69 53"
 xmlns:xlink="http://www.w3.org/1999/xlink">
 <defs>
  <style type="text/css">
   <![CDATA[
    .fil2 {fill:#74CBF2}
    .fil0 {fill:#777876}
    .fil1 {fill:#363435}
   ]]>
  </style>
 </defs>
 <g id="Layer_x0020_1">
  <metadata id="CorelCorpID_0Corel-Layer"/>
  <path class="fil0" d="M4 3c-2,0 -4,2 -4,5l0 34c0,2 2,4 4,4l3 0c-1,-1 -2,-2 -2,-3l0 0 -1 -1c-1,-3 -1,-6 -1,-8 0,-3 0,-6 1,-9l1 -1 0 0c1,-2 2,-4 4,-6l0 0c1,-1 3,-3 5,-4l0 0 2 0c2,-1 5,-2 8,-2 3,0 5,1 8,2l1 0c2,1 4,3 6,4l0 0c2,2 3,4 4,6l0 0 1 1c1,3 1,6 1,9 0,2 0,5 -1,8l-1 1 0 0c-1,1 -1,2 -2,3l24 0c2,0 4,-2 4,-4l0 -34c0,-3 -2,-4 -4,-5l-41 0 -1 -2c0,0 0,-1 -1,-1l-6 0 -5 0c-1,0 -1,1 -1,1l-1 2 -5 0z"/>
  <path class="fil1" d="M24 25c1,0 2,0 3,1l0 0c2,0 3,1 3,2l0 0c1,1 2,2 3,3l0 0c0,1 0,2 0,4 0,1 0,2 0,3l0 0c-1,1 -2,2 -3,3l0 0c0,1 -1,2 -3,2l0 0c-1,1 -2,1 -3,1 -1,0 -3,0 -4,-1 -1,0 -2,-1 -3,-2l0 0c-1,-1 -1,-2 -2,-3l0 0c0,-1 0,-2 0,-3 0,-2 0,-3 0,-4l0 0c1,-1 1,-2 2,-3l0 0c1,-1 2,-2 3,-2l0 0c1,-1 3,-1 4,-1l0 0z"/>
  <path class="fil0" d="M24 14c3,0 5,0 7,1l0 0c3,1 5,3 7,5l0 0c2,1 3,3 4,6l0 0c1,2 2,5 2,7 0,3 -1,6 -2,8l0 0c-1,2 -2,5 -4,6l0 0c-2,2 -4,4 -7,5l0 0c-2,1 -4,1 -7,1 -3,0 -5,0 -8,-1l0 0c-2,-1 -4,-3 -6,-5l0 0 0 0c-2,-1 -3,-4 -4,-6l0 0c-1,-2 -2,-5 -2,-8 0,-2 1,-5 2,-7l0 0c1,-3 2,-5 4,-6l0 0c2,-2 4,-4 6,-5l0 0c3,-1 5,-1 8,-1l0 0z"/>
  <path class="fil2" d="M33 25c-1,-1 -2,-2 -4,-3 -2,0 -3,-1 -5,-1 -2,0 -4,1 -5,1 -2,1 -3,2 -4,3 -2,2 -3,3 -3,5 -1,1 -1,3 -1,5 0,1 0,3 1,5 0,1 1,3 3,4 0,1 1,1 1,2l15 0c1,-1 2,-1 2,-2 2,-1 2,-3 3,-4 1,-2 1,-4 1,-5 0,-2 0,-4 -1,-5 -1,-2 -1,-3 -3,-5l0 0z"/>
  <path class="fil0" d="M16 46c1,0 2,1 3,1 1,1 3,1 5,1 2,0 3,0 5,-1 1,0 2,-1 2,-1l-7 0 -8 0z"/>
  <path class="fil0" d="M28 29c0,-1 -1,-1 -2,-1 -1,-1 -1,-1 -2,-1 -1,0 -2,0 -3,1 0,0 -1,0 -2,1 0,1 -1,1 -1,2 0,1 0,2 0,3 0,0 0,1 0,2 0,1 1,1 1,2 1,1 2,1 2,1 1,1 2,1 3,1 1,0 1,0 2,-1 1,0 2,0 2,-1 1,-1 1,-1 2,-2 0,-1 0,-2 0,-2 0,-1 0,-2 0,-3 -1,-1 -1,-1 -2,-2l0 0z"/>
  <path class="fil2" d="M12 5l8 0c1,0 1,1 1,1l0 3c0,1 0,1 -1,1l-8 0c-1,0 -1,0 -1,-1l0 -3c0,0 0,-1 1,-1l0 0z"/>
  <path class="fil2" d="M63 15l0 0c0,0 1,0 1,0l0 0c0,1 0,1 0,1l0 21c0,1 0,1 0,1l0 0c0,0 -1,1 -1,1l0 0c-1,0 -1,-1 -2,-1l0 0c0,0 0,0 0,-1l0 -21c0,0 0,0 0,-1l0 0c1,0 1,0 2,0l0 0z"/>
 </g>
</svg>
