<?xml version="1.0" encoding="UTF-8"?>
<!DOCTYPE svg PUBLIC "-//W3C//DTD SVG 1.1//EN" "http://www.w3.org/Graphics/SVG/1.1/DTD/svg11.dtd">
<!-- Creator: CorelDRAW X7 -->
<svg xmlns="http://www.w3.org/2000/svg" xml:space="preserve" width="1.40268in" height="0.798252in" version="1.1" style="shape-rendering:geometricPrecision; text-rendering:geometricPrecision; image-rendering:optimizeQuality; fill-rule:evenodd; clip-rule:evenodd"
viewBox="0 0 1292 735"
 xmlns:xlink="http://www.w3.org/1999/xlink">
 <defs>
  <style type="text/css">
   <![CDATA[
    .str0 {stroke:red;stroke-width:8.62051}
    .fil2 {fill:none;fill-rule:nonzero}
    .fil0 {fill:black;fill-rule:nonzero}
    .fil3 {fill:#CCCCCC;fill-rule:nonzero}
    .fil1 {fill:white;fill-rule:nonzero}
   ]]>
  </style>
 </defs>
 <g id="object">
  <metadata id="CorelCorpID_0Corel-Layer"/>
  <path class="fil0" d="M1138 713c-6,18 -26,27 -44,20l-478 -179c-17,-7 -26,-27 -20,-45l152 -403c6,-18 26,-27 44,-20l478 179c17,7 27,27 20,44l-152 404z"/>
  <path class="fil1" d="M1148 587c-5,13 -20,20 -33,15l-428 -161c-13,-5 -20,-20 -15,-33l99 -265c5,-13 20,-20 33,-15l428 161c14,5 21,20 16,33l-100 265z"/>
  <path class="fil2 str0" d="M1148 587c-5,13 -20,20 -33,15"/>
  <line class="fil2 str0" x1="1115" y1="602" x2="687" y2= "441" />
  <path class="fil2 str0" d="M687 441c-13,-5 -20,-20 -15,-33"/>
  <line class="fil2 str0" x1="672" y1="408" x2="771" y2= "143" />
  <path class="fil2 str0" d="M771 143c5,-13 20,-20 33,-15"/>
  <line class="fil2 str0" x1="804" y1="128" x2="1232" y2= "289" />
  <path class="fil2 str0" d="M1232 289c14,5 21,20 16,33"/>
  <line class="fil2 str0" x1="1248" y1="322" x2="1148" y2= "587" />
  <path class="fil0" d="M211 698c-23,0 -44,-15 -51,-37l-138 -408c-9,-28 6,-59 34,-68l483 -163c6,-2 12,-3 17,-3 23,0 44,15 51,37l138 408c9,28 -6,59 -34,68l-483 163c-6,2 -12,3 -17,3z"/>
  <path class="fil1" d="M556 38c15,0 28,9 33,24l138 408c6,18 -4,38 -22,44l-483 163c-4,1 -8,2 -11,2 -15,0 -28,-9 -33,-24l-138 -408c-6,-18 4,-38 22,-44l483 -163c4,-1 8,-2 11,-2zm0 -38l0 0c-8,0 -15,1 -23,4l-483 163c-19,6 -34,19 -42,36 -9,18 -10,38 -4,56l138 409c10,29 37,49 69,49 8,0 15,-1 23,-4l483 -163c19,-6 34,-19 42,-36 9,-18 10,-37 4,-56l-138 -408c-10,-30 -37,-50 -69,-50z"/>
  <path class="fil3" d="M655 366c4,14 -3,29 -17,33l-433 146c-13,5 -28,-3 -33,-16l-90 -268c-4,-13 3,-28 16,-33l434 -146c13,-4 28,3 32,17l91 267z"/>
  <path class="fil2 str0" d="M655 366c4,14 -3,29 -17,33"/>
  <line class="fil2 str0" x1="638" y1="399" x2="205" y2= "545" />
  <path class="fil2 str0" d="M205 545c-13,5 -28,-3 -33,-16"/>
  <line class="fil2 str0" x1="172" y1="529" x2="82" y2= "261" />
  <path class="fil2 str0" d="M82 261c-4,-13 3,-28 16,-33"/>
  <line class="fil2 str0" x1="98" y1="228" x2="532" y2= "82" />
  <path class="fil2 str0" d="M532 82c13,-4 28,3 32,17"/>
  <line class="fil2 str0" x1="564" y1="99" x2="655" y2= "366" />
 </g>
</svg>
