<?xml version="1.0" encoding="UTF-8"?>
<!DOCTYPE svg PUBLIC "-//W3C//DTD SVG 1.1//EN" "http://www.w3.org/Graphics/SVG/1.1/DTD/svg11.dtd">
<!-- Creator: CorelDRAW X7 -->
<svg xmlns="http://www.w3.org/2000/svg" xml:space="preserve" width="1.01066in" height="4.40784in" version="1.1" style="shape-rendering:geometricPrecision; text-rendering:geometricPrecision; image-rendering:optimizeQuality; fill-rule:evenodd; clip-rule:evenodd"
viewBox="0 0 71 311"
 xmlns:xlink="http://www.w3.org/1999/xlink">
 <defs>
  <style type="text/css">
   <![CDATA[
    .fil0 {fill:#FEFEFE}
    .fil2 {fill:#6F777B}
    .fil5 {fill:#76B6D4}
    .fil4 {fill:#6D7679}
    .fil3 {fill:#5D6264}
    .fil1 {fill:#575E5F}
    .fil6 {fill:#4F5556}
   ]]>
  </style>
 </defs>
 <g id="Layer_x0020_1">
  <metadata id="CorelCorpID_0Corel-Layer"/>
  <path class="fil0" d="M36 18l-1 0c-1,0 -2,-1 -2,-3l0 -12c0,-2 1,-3 2,-3l1 0c1,0 3,1 3,3l0 12c0,2 -2,3 -3,3z"/>
  <path class="fil1" d="M49 17l-27 0c-1,0 -3,-1 -3,-3l0 -4c0,-2 2,-3 3,-3l27 0c2,0 3,1 3,3l0 4c0,2 -1,3 -3,3z"/>
  <polygon class="fil1" points="41,23 30,23 30,12 41,12 "/>
  <path class="fil2" d="M45 43l0 -15c0,-5 -4,-8 -8,-8l-2 0c-5,0 -9,3 -9,8l0 15 19 0z"/>
  <polygon class="fil1" points="45,50 27,50 27,35 45,35 "/>
  <polygon class="fil2" points="52,49 45,43 26,43 19,49 3,64 36,64 68,64 "/>
  <polygon class="fil2" points="43,296 28,296 28,68 43,68 "/>
  <path class="fil3" d="M41 245l-11 0c-3,0 -5,-2 -5,-5l0 -7c0,-3 2,-6 5,-6l11 0c3,0 5,3 5,6l0 7c0,3 -2,5 -5,5z"/>
  <polygon class="fil4" points="27,244 26,244 26,229 27,229 "/>
  <polygon class="fil4" points="45,244 44,244 44,229 45,229 "/>
  <polygon class="fil4" points="43,244 42,244 42,229 43,229 "/>
  <polygon class="fil4" points="41,244 40,244 40,229 41,229 "/>
  <polygon class="fil4" points="38,244 38,244 38,229 38,229 "/>
  <polygon class="fil4" points="36,244 35,244 35,229 36,229 "/>
  <polygon class="fil4" points="34,244 33,244 33,229 34,229 "/>
  <polygon class="fil4" points="31,244 31,244 31,229 31,229 "/>
  <polygon class="fil4" points="29,244 28,244 28,229 29,229 "/>
  <path class="fil3" d="M41 265l-11 0c-3,0 -5,-3 -5,-6l0 -7c0,-3 2,-5 5,-5l11 0c3,0 5,2 5,5l0 7c0,3 -2,6 -5,6z"/>
  <polygon class="fil4" points="27,263 26,263 26,248 27,248 "/>
  <polygon class="fil4" points="45,263 44,263 44,248 45,248 "/>
  <polygon class="fil4" points="43,263 42,263 42,248 43,248 "/>
  <polygon class="fil4" points="41,263 40,263 40,248 41,248 "/>
  <polygon class="fil4" points="38,263 38,263 38,248 38,248 "/>
  <polygon class="fil4" points="36,263 35,263 35,248 36,248 "/>
  <polygon class="fil4" points="34,263 33,263 33,248 34,248 "/>
  <polygon class="fil4" points="31,263 31,263 31,248 31,248 "/>
  <polygon class="fil4" points="29,263 28,263 28,248 29,248 "/>
  <path class="fil3" d="M41 284l-11 0c-3,0 -5,-2 -5,-5l0 -8c0,-3 2,-5 5,-5l11 0c3,0 5,2 5,5l0 8c0,3 -2,5 -5,5z"/>
  <polygon class="fil4" points="27,283 26,283 26,268 27,268 "/>
  <polygon class="fil4" points="45,283 44,283 44,268 45,268 "/>
  <polygon class="fil4" points="43,283 42,283 42,268 43,268 "/>
  <polygon class="fil4" points="41,283 40,283 40,268 41,268 "/>
  <polygon class="fil4" points="38,283 38,283 38,268 38,268 "/>
  <polygon class="fil4" points="36,283 35,283 35,268 36,268 "/>
  <polygon class="fil4" points="34,283 33,283 33,268 34,268 "/>
  <polygon class="fil4" points="31,283 31,283 31,268 31,268 "/>
  <polygon class="fil4" points="29,283 28,283 28,268 29,268 "/>
  <path class="fil1" d="M45 75l0 -23c0,-3 -2,-6 -5,-6l-8 0c-4,0 -6,3 -6,6l0 23 19 0z"/>
  <path class="fil5" d="M38 71l-5 0c-2,0 -3,-1 -3,-2l0 -6c0,-1 1,-2 3,-2l5 0c2,0 3,1 3,2l0 6c0,1 -1,2 -3,2z"/>
  <path class="fil1" d="M37 311l-3 0c-6,0 -11,-5 -11,-11 0,-6 5,-11 11,-11l3 0c6,0 11,5 11,11 0,6 -5,11 -11,11z"/>
  <polygon class="fil2" points="67,282 53,282 53,69 67,69 "/>
  <path class="fil3" d="M65 234l-10 0c-3,0 -5,-2 -5,-5l0 -6c0,-3 2,-6 5,-6l10 0c3,0 5,3 5,6l0 6c0,3 -2,5 -5,5z"/>
  <polygon class="fil4" points="52,233 51,233 51,219 52,219 "/>
  <polygon class="fil4" points="69,233 68,233 68,219 69,219 "/>
  <polygon class="fil4" points="67,233 66,233 66,219 67,219 "/>
  <polygon class="fil4" points="64,233 64,233 64,219 64,219 "/>
  <polygon class="fil4" points="62,233 62,233 62,219 62,219 "/>
  <polygon class="fil4" points="60,233 59,233 59,219 60,219 "/>
  <polygon class="fil4" points="58,233 57,233 57,219 58,219 "/>
  <polygon class="fil4" points="56,233 55,233 55,219 56,219 "/>
  <polygon class="fil4" points="54,233 53,233 53,219 54,219 "/>
  <path class="fil3" d="M65 252l-10 0c-3,0 -5,-2 -5,-5l0 -6c0,-3 2,-5 5,-5l10 0c3,0 5,2 5,5l0 6c0,3 -2,5 -5,5z"/>
  <polygon class="fil4" points="52,251 51,251 51,237 52,237 "/>
  <polygon class="fil4" points="69,251 68,251 68,237 69,237 "/>
  <polygon class="fil4" points="67,251 66,251 66,237 67,237 "/>
  <polygon class="fil4" points="64,251 64,251 64,237 64,237 "/>
  <polygon class="fil4" points="62,251 62,251 62,237 62,237 "/>
  <polygon class="fil4" points="60,251 59,251 59,237 60,237 "/>
  <polygon class="fil4" points="58,251 57,251 57,237 58,237 "/>
  <polygon class="fil4" points="56,251 55,251 55,237 56,237 "/>
  <polygon class="fil4" points="54,251 53,251 53,237 54,237 "/>
  <path class="fil3" d="M65 270l-10 0c-3,0 -5,-2 -5,-5l0 -6c0,-3 2,-5 5,-5l10 0c3,0 5,2 5,5l0 6c0,3 -2,5 -5,5z"/>
  <polygon class="fil4" points="52,269 51,269 51,255 52,255 "/>
  <polygon class="fil4" points="69,269 68,269 68,255 69,255 "/>
  <polygon class="fil4" points="67,269 66,269 66,255 67,255 "/>
  <polygon class="fil4" points="64,269 64,269 64,255 64,255 "/>
  <polygon class="fil4" points="62,269 62,269 62,255 62,255 "/>
  <polygon class="fil4" points="60,269 59,269 59,255 60,255 "/>
  <polygon class="fil4" points="58,269 57,269 57,255 58,255 "/>
  <polygon class="fil4" points="56,269 55,269 55,255 56,255 "/>
  <polygon class="fil4" points="54,269 53,269 53,255 54,255 "/>
  <path class="fil1" d="M62 296l-4 0c-5,0 -10,-5 -10,-10l0 -1c0,-6 5,-10 10,-10l4 0c5,0 9,4 9,10l0 1c0,5 -4,10 -9,10z"/>
  <path class="fil1" d="M69 76l0 -22c0,-3 -2,-5 -5,-5l-8 0c-3,0 -5,2 -5,5l0 22 18 0z"/>
  <path class="fil2" d="M64 61c0,2 -2,4 -4,4 -2,0 -4,-2 -4,-4 0,-3 2,-4 4,-4 2,0 4,1 4,4z"/>
  <path class="fil6" d="M63 61c0,1 -1,3 -3,3 -2,0 -4,-2 -4,-3 0,-2 2,-4 4,-4 2,0 3,2 3,4z"/>
  <polygon class="fil2" points="19,282 4,282 4,69 19,69 "/>
  <path class="fil3" d="M16 234l-9 0c-3,0 -6,-2 -6,-5l0 -6c0,-3 3,-6 6,-6l9 0c3,0 6,3 6,6l0 6c0,3 -3,5 -6,5z"/>
  <polygon class="fil4" points="3,233 3,233 3,219 3,219 "/>
  <polygon class="fil4" points="20,233 20,233 20,219 20,219 "/>
  <polygon class="fil4" points="18,233 18,233 18,219 18,219 "/>
  <polygon class="fil4" points="16,233 15,233 15,219 16,219 "/>
  <polygon class="fil4" points="14,233 13,233 13,219 14,219 "/>
  <polygon class="fil4" points="12,233 11,233 11,219 12,219 "/>
  <polygon class="fil4" points="10,233 9,233 9,219 10,219 "/>
  <polygon class="fil4" points="8,233 7,233 7,219 8,219 "/>
  <polygon class="fil4" points="6,233 5,233 5,219 6,219 "/>
  <path class="fil3" d="M16 252l-9 0c-3,0 -6,-2 -6,-5l0 -6c0,-3 3,-5 6,-5l9 0c3,0 6,2 6,5l0 6c0,3 -3,5 -6,5z"/>
  <polygon class="fil4" points="3,251 3,251 3,237 3,237 "/>
  <polygon class="fil4" points="20,251 20,251 20,237 20,237 "/>
  <polygon class="fil4" points="18,251 18,251 18,237 18,237 "/>
  <polygon class="fil4" points="16,251 15,251 15,237 16,237 "/>
  <polygon class="fil4" points="14,251 13,251 13,237 14,237 "/>
  <polygon class="fil4" points="12,251 11,251 11,237 12,237 "/>
  <polygon class="fil4" points="10,251 9,251 9,237 10,237 "/>
  <polygon class="fil4" points="8,251 7,251 7,237 8,237 "/>
  <polygon class="fil4" points="6,251 5,251 5,237 6,237 "/>
  <path class="fil3" d="M16 270l-9 0c-3,0 -6,-2 -6,-5l0 -6c0,-3 3,-5 6,-5l9 0c3,0 6,2 6,5l0 6c0,3 -3,5 -6,5z"/>
  <polygon class="fil4" points="3,269 3,269 3,255 3,255 "/>
  <polygon class="fil4" points="20,269 20,269 20,255 20,255 "/>
  <polygon class="fil4" points="18,269 18,269 18,255 18,255 "/>
  <polygon class="fil4" points="16,269 15,269 15,255 16,255 "/>
  <polygon class="fil4" points="14,269 13,269 13,255 14,255 "/>
  <polygon class="fil4" points="12,269 11,269 11,255 12,255 "/>
  <polygon class="fil4" points="10,269 9,269 9,255 10,255 "/>
  <polygon class="fil4" points="8,269 7,269 7,255 8,255 "/>
  <polygon class="fil4" points="6,269 5,269 5,255 6,255 "/>
  <path class="fil1" d="M14 296l-4 0c-6,0 -10,-5 -10,-10l0 -1c0,-6 4,-10 10,-10l4 0c5,0 9,4 9,10l0 1c0,5 -4,10 -9,10z"/>
  <path class="fil1" d="M21 76l0 -22c0,-3 -3,-5 -6,-5l-7 0c-3,0 -6,2 -6,5l0 22 19 0z"/>
  <path class="fil2" d="M15 61c0,2 -1,4 -3,4 -3,0 -4,-2 -4,-4 0,-3 1,-4 4,-4 2,0 3,1 3,4z"/>
  <path class="fil6" d="M15 61c0,1 -2,3 -3,3 -2,0 -4,-2 -4,-3 0,-2 2,-4 4,-4 1,0 3,2 3,4z"/>
 </g>
</svg>
