<?xml version="1.0" encoding="UTF-8"?>
<!DOCTYPE svg PUBLIC "-//W3C//DTD SVG 1.1//EN" "http://www.w3.org/Graphics/SVG/1.1/DTD/svg11.dtd">
<!-- Creator: CorelDRAW X7 -->
<svg xmlns="http://www.w3.org/2000/svg" xml:space="preserve" width="0.60813in" height="1.01444in" version="1.1" style="shape-rendering:geometricPrecision; text-rendering:geometricPrecision; image-rendering:optimizeQuality; fill-rule:evenodd; clip-rule:evenodd"
viewBox="0 0 76 127"
 xmlns:xlink="http://www.w3.org/1999/xlink">
 <defs>
  <style type="text/css">
   <![CDATA[
    .fil0 {fill:#2C2E31}
   ]]>
  </style>
 </defs>
 <g id="Layer_x0020_1">
  <metadata id="CorelCorpID_0Corel-Layer"/>
  <path class="fil0" d="M72 68l-34 0c0,0 0,0 0,0 0,0 0,0 0,0l-19 0 0 -44 6 0 0 0 13 0c1,0 1,0 1,0l14 0c0,0 0,0 0,0l19 0 0 44zm-68 -44l5 0 6 0 0 44 -11 0 0 -44zm37 -6l10 0 0 2 -10 0 0 -2zm-4 -14l18 0 0 10 -2 0 -14 0 -2 0 0 -10zm35 16l-17 0 0 -2 2 0c1,0 2,-1 2,-2l0 -13c0,-2 -1,-3 -2,-3l-22 0c-1,0 -2,1 -2,3l0 13c0,1 1,2 2,2l2 0 0 2 -12 0c0,-2 -2,-4 -4,-4l-8 0c-2,0 -4,2 -4,4l-5 0c-2,0 -4,1 -4,4l0 44c0,3 2,4 4,4l15 0 17 0 0 4 -28 48c0,1 0,2 1,3 0,0 1,0 1,0 1,0 2,0 2,-1l24 -42 0 41c0,1 1,2 2,2 1,0 2,-1 2,-2l0 -41 24 42c1,1 1,1 2,1 0,0 1,0 1,0 1,-1 1,-2 1,-3l-28 -48 0 -4 32 0c2,0 4,-1 4,-4l0 -44c0,-3 -2,-4 -4,-4z"/>
  <path class="fil0" d="M46 60c-8,0 -14,-6 -14,-14 0,-8 6,-14 14,-14 7,0 14,6 14,14 0,8 -7,14 -14,14zm0 -32c-10,0 -18,8 -18,18 0,10 8,18 18,18 10,0 18,-8 18,-18 0,-10 -8,-18 -18,-18z"/>
  <path class="fil0" d="M46 36c-5,0 -10,5 -10,10 0,1 1,2 2,2 1,0 2,-1 2,-2 0,-3 3,-6 6,-6 1,0 2,-1 2,-2 0,-1 -1,-2 -2,-2z"/>
  <path class="fil0" d="M43 12c0,0 1,0 1,0 0,0 1,0 1,0l4 -4c1,-1 1,-1 0,-2 -1,0 -1,0 -2,0l-4 4c0,1 0,1 0,2z"/>
  <path class="fil0" d="M49 11c0,0 0,1 1,1 0,0 0,-1 0,-1l2 -1c0,-1 0,-2 0,-2 -1,-1 -1,-1 -2,0l-1 1c-1,1 -1,2 0,2z"/>
  <path class="fil0" d="M41 11c0,0 1,0 1,-1l1 -1c1,-1 1,-1 0,-2 0,0 -1,0 -2,0l-1 2c-1,0 -1,1 0,1 0,1 1,1 1,1z"/>
  <path class="fil0" d="M67 65c1,0 2,-2 2,-3 0,-2 -1,-3 -2,-3 -2,0 -3,1 -3,3 0,1 1,3 3,3z"/>
  <path class="fil0" d="M12 40l-5 0c-1,0 -2,1 -2,2 0,1 1,1 2,1l5 0c1,0 2,0 2,-1 0,-1 -1,-2 -2,-2z"/>
  <path class="fil0" d="M12 45l-5 0c-1,0 -2,0 -2,1 0,1 1,1 2,1l5 0c1,0 2,0 2,-1 0,-1 -1,-1 -2,-1z"/>
  <path class="fil0" d="M12 49l-5 0c-1,0 -2,0 -2,1 0,1 1,2 2,2l5 0c1,0 2,-1 2,-2 0,-1 -1,-1 -2,-1z"/>
 </g>
</svg>
