<?xml version="1.0" encoding="UTF-8"?>
<!DOCTYPE svg PUBLIC "-//W3C//DTD SVG 1.1//EN" "http://www.w3.org/Graphics/SVG/1.1/DTD/svg11.dtd">
<!-- Creator: CorelDRAW X7 -->
<svg xmlns="http://www.w3.org/2000/svg" xml:space="preserve" width="1.37818in" height="2.03965in" version="1.1" style="shape-rendering:geometricPrecision; text-rendering:geometricPrecision; image-rendering:optimizeQuality; fill-rule:evenodd; clip-rule:evenodd"
viewBox="0 0 559 828"
 xmlns:xlink="http://www.w3.org/1999/xlink">
 <defs>
  <style type="text/css">
   <![CDATA[
    .fil0 {fill:black;fill-rule:nonzero}
   ]]>
  </style>
 </defs>
 <g id="Objects">
  <metadata id="CorelCorpID_0Corel-Layer"/>
  <path class="fil0" d="M558 705l-202 -461c-3,-8 -11,-14 -20,-14l-34 0 0 -42 24 0c12,0 22,-10 22,-22 0,-9 -5,-17 -13,-21l20 0 23 0c3,0 6,0 8,-1 -4,7 -5,17 0,24l81 120c4,6 11,9 19,9 4,0 8,-1 12,-3 10,-7 13,-21 6,-31l-80 -120c-6,-9 -17,-12 -27,-8 2,-4 4,-8 4,-12 0,-12 -10,-22 -23,-22l-1 0 0 -79c0,-12 -10,-22 -22,-22l-151 0c-12,0 -22,10 -22,22l0 79 -1 0c-12,0 -22,10 -22,22 0,12 10,22 22,22l23 0 20 0c-7,4 -13,12 -13,21 0,12 10,22 23,22l23 0 0 42 -33 0c-9,0 -17,6 -21,14l-201 461c-5,11 0,24 11,29 3,2 6,2 9,2 9,0 17,-5 21,-13l62 -142 152 94 0 131c0,12 10,22 23,22 12,0 22,-10 22,-22l0 -131 153 -94 62 142c4,11 18,16 29,11 11,-5 16,-18 12,-29zm-331 -660l0 0 106 0 0 56 -106 0 0 -56zm-104 495l0 0 115 -265 19 0 0 347 -134 -82zm179 82l0 0 0 -347 19 0 116 265 -135 82z"/>
 </g>
</svg>
