<?xml version="1.0" encoding="UTF-8"?>
<!DOCTYPE svg PUBLIC "-//W3C//DTD SVG 1.1//EN" "http://www.w3.org/Graphics/SVG/1.1/DTD/svg11.dtd">
<!-- Creator: CorelDRAW X7 -->
<svg xmlns="http://www.w3.org/2000/svg" xml:space="preserve" width="3.8646in" height="0.430362in" version="1.1" style="shape-rendering:geometricPrecision; text-rendering:geometricPrecision; image-rendering:optimizeQuality; fill-rule:evenodd; clip-rule:evenodd"
viewBox="0 0 1487 166"
 xmlns:xlink="http://www.w3.org/1999/xlink">
 <defs>
  <style type="text/css">
   <![CDATA[
    .str0 {stroke:red;stroke-width:5.34405}
    .fil2 {fill:none;fill-rule:nonzero}
    .fil0 {fill:black;fill-rule:nonzero}
    .fil3 {fill:#CCCCCC;fill-rule:nonzero}
    .fil1 {fill:white;fill-rule:nonzero}
   ]]>
  </style>
 </defs>
 <g id="object">
  <metadata id="CorelCorpID_0Corel-Layer"/>
  <path class="fil0" d="M10 62l0 -61 16 0 0 61 -16 0zm70 -19c0,4 -1,8 -3,11 -2,2 -5,5 -9,6 -3,2 -7,3 -12,3 -4,0 -8,0 -11,-1 -2,-1 -5,-2 -8,-3l0 -15c3,2 6,3 10,4 3,1 6,1 9,1 2,0 4,0 5,-1 2,-1 2,-2 2,-3 0,-1 0,-2 -1,-2 0,-1 -1,-2 -2,-2 -1,-1 -4,-2 -8,-4 -4,-2 -7,-4 -9,-5 -2,-2 -3,-4 -4,-6 -1,-2 -2,-5 -2,-8 0,-6 2,-10 6,-13 4,-3 10,-5 17,-5 7,0 13,2 20,4l-5 13c-6,-2 -11,-4 -15,-4 -2,0 -4,1 -5,1 -1,1 -1,2 -1,3 0,1 0,2 1,3 2,1 5,3 11,6 5,2 8,5 11,7 2,3 3,6 3,10zm66 -12c0,11 -2,18 -7,24 -5,5 -13,8 -23,8 -9,0 -16,-3 -22,-8 -5,-6 -7,-13 -7,-24 0,-10 2,-18 7,-23 5,-5 13,-8 23,-8 9,0 17,3 22,8 5,5 7,13 7,23zm-42 0c0,12 4,18 12,18 5,0 8,-1 10,-4 2,-3 3,-8 3,-14 0,-6 -1,-10 -3,-13 -2,-3 -5,-4 -9,-4 -9,0 -13,5 -13,17z"/>
  <path class="fil0" d="M147 155c0,6 -5,11 -11,11l-125 0c-6,0 -11,-5 -11,-11l0 -66c0,-6 5,-11 11,-11l125 0c6,0 11,5 11,11l0 66z"/>
  <path class="fil1" d="M53 140l-6 0 0 -24c0,-3 0,-6 0,-7 -1,0 -1,1 -2,1 0,1 -2,2 -6,5l-3 -4 12 -9 5 0 0 38zm38 -19c0,7 -1,12 -3,15 -2,3 -5,5 -10,5 -4,0 -7,-2 -10,-5 -2,-3 -3,-8 -3,-15 0,-6 1,-11 3,-15 3,-3 6,-4 10,-4 4,0 8,1 10,5 2,3 3,8 3,14zm-20 0c0,5 1,9 2,11 1,3 3,4 5,4 2,0 4,-1 5,-4 1,-2 2,-6 2,-11 0,-5 -1,-9 -2,-11 -1,-2 -3,-3 -5,-3 -2,0 -4,1 -5,3 -1,2 -2,6 -2,11zm51 0c0,7 -1,12 -4,15 -2,3 -5,5 -9,5 -5,0 -8,-2 -10,-5 -2,-3 -3,-8 -3,-15 0,-6 1,-11 3,-15 2,-3 5,-4 10,-4 4,0 7,1 9,5 3,3 4,8 4,14zm-20 0c0,5 0,9 2,11 1,3 2,4 5,4 2,0 4,-1 5,-4 1,-2 1,-6 1,-11 0,-5 0,-9 -1,-11 -1,-2 -3,-3 -5,-3 -3,0 -4,1 -5,3 -2,2 -2,6 -2,11z"/>
  <line class="fil2 str0" x1="0" y1="80" x2="147" y2= "80" />
  <path class="fil0" d="M201 62l0 -61 17 0 0 61 -17 0zm70 -19c0,4 -1,8 -3,11 -2,2 -5,5 -8,6 -4,2 -8,3 -13,3 -4,0 -7,0 -10,-1 -3,-1 -6,-2 -9,-3l0 -15c3,2 7,3 10,4 3,1 7,1 9,1 3,0 5,0 6,-1 1,-1 2,-2 2,-3 0,-1 -1,-2 -1,-2 -1,-1 -1,-2 -2,-2 -1,-1 -4,-2 -9,-4 -4,-2 -6,-4 -8,-5 -2,-2 -4,-4 -5,-6 -1,-2 -1,-5 -1,-8 0,-6 2,-10 6,-13 4,-3 10,-5 17,-5 6,0 12,2 19,4l-5 13c-6,-2 -11,-4 -15,-4 -2,0 -4,1 -5,1 0,1 -1,2 -1,3 0,1 1,2 2,3 1,1 4,3 10,6 5,2 9,5 11,7 2,3 3,6 3,10zm67 -12c0,11 -3,18 -8,24 -5,5 -12,8 -22,8 -10,0 -17,-3 -22,-8 -5,-6 -8,-13 -8,-24 0,-10 3,-18 8,-23 5,-5 12,-8 22,-8 10,0 17,3 22,8 5,5 8,13 8,23zm-42 0c0,12 4,18 12,18 4,0 7,-1 9,-4 2,-3 3,-8 3,-14 0,-6 -1,-10 -3,-13 -2,-3 -5,-4 -9,-4 -8,0 -12,5 -12,17z"/>
  <path class="fil0" d="M339 155c0,6 -5,11 -11,11l-126 0c-6,0 -11,-5 -11,-11l0 -66c0,-6 5,-11 11,-11l126 0c6,0 11,5 11,11l0 66z"/>
  <path class="fil1" d="M252 140l-26 0 0 -4 10 -10c3,-3 5,-5 6,-7 1,-1 1,-2 2,-3 0,-1 0,-2 0,-4 0,-1 0,-3 -1,-4 -1,-1 -3,-1 -4,-1 -2,0 -3,0 -5,1 -1,0 -3,1 -4,3l-4 -4c2,-2 5,-3 7,-4 2,-1 4,-1 6,-1 3,0 6,1 8,2 3,2 4,5 4,8 0,2 -1,3 -1,5 -1,1 -2,3 -3,5 -1,1 -4,3 -6,6l-7 7 0 0 18 0 0 5zm31 -19c0,7 -2,12 -4,15 -2,3 -5,5 -9,5 -5,0 -8,-2 -10,-5 -2,-3 -3,-8 -3,-15 0,-6 1,-11 3,-15 2,-3 5,-4 10,-4 4,0 7,1 9,5 2,3 4,8 4,14zm-20 0c0,5 0,9 1,11 1,3 3,4 6,4 2,0 4,-1 5,-4 1,-2 1,-6 1,-11 0,-5 0,-9 -1,-11 -1,-2 -3,-3 -5,-3 -3,0 -5,1 -6,3 -1,2 -1,6 -1,11zm50 0c0,7 -1,12 -3,15 -2,3 -6,5 -10,5 -4,0 -7,-2 -10,-5 -2,-3 -3,-8 -3,-15 0,-6 1,-11 3,-15 2,-3 6,-4 10,-4 4,0 8,1 10,5 2,3 3,8 3,14zm-20 0c0,5 1,9 2,11 1,3 3,4 5,4 2,0 4,-1 5,-4 1,-2 2,-6 2,-11 0,-5 -1,-9 -2,-11 -1,-2 -3,-3 -5,-3 -2,0 -4,1 -5,3 -1,2 -2,6 -2,11z"/>
  <line class="fil2 str0" x1="191" y1="80" x2="339" y2= "80" />
  <path class="fil0" d="M393 62l0 -61 16 0 0 61 -16 0zm69 -19c0,4 -1,8 -2,11 -2,2 -5,5 -9,6 -3,2 -8,3 -13,3 -4,0 -7,0 -10,-1 -2,-1 -5,-2 -8,-3l0 -15c3,2 6,3 9,4 4,1 7,1 10,1 2,0 4,0 5,-1 1,-1 2,-2 2,-3 0,-1 0,-2 -1,-2 0,-1 -1,-2 -2,-2 -1,-1 -4,-2 -8,-4 -4,-2 -7,-4 -9,-5 -2,-2 -4,-4 -4,-6 -1,-2 -2,-5 -2,-8 0,-6 2,-10 6,-13 4,-3 10,-5 17,-5 6,0 13,2 19,4l-5 13c-5,-2 -10,-4 -14,-4 -3,0 -4,1 -5,1 -1,1 -2,2 -2,3 0,1 1,2 2,3 2,1 5,3 10,6 6,2 9,5 11,7 2,3 3,6 3,10zm67 -12c0,11 -3,18 -8,24 -5,5 -12,8 -22,8 -9,0 -17,-3 -22,-8 -5,-6 -7,-13 -7,-24 0,-10 2,-18 7,-23 5,-5 13,-8 22,-8 10,0 17,3 22,8 5,5 8,13 8,23zm-42 0c0,12 4,18 12,18 4,0 8,-1 10,-4 2,-3 3,-8 3,-14 0,-6 -1,-10 -3,-13 -3,-3 -6,-4 -10,-4 -8,0 -12,5 -12,17z"/>
  <path class="fil0" d="M530 155c0,6 -5,11 -11,11l-126 0c-5,0 -10,-5 -10,-11l0 -66c0,-6 5,-11 10,-11l126 0c6,0 11,5 11,11l0 66z"/>
  <path class="fil1" d="M445 132l-5 0 0 8 -6 0 0 -8 -18 0 0 -5 18 -25 6 0 0 25 5 0 0 5zm-11 -5l0 -10c0,-3 0,-6 0,-8l0 0c-1,1 -2,3 -3,4l-9 14 12 0zm40 -6c0,7 -1,12 -3,15 -2,3 -6,5 -10,5 -4,0 -8,-2 -10,-5 -2,-3 -3,-8 -3,-15 0,-6 1,-11 3,-15 2,-3 6,-4 10,-4 4,0 7,1 10,5 2,3 3,8 3,14zm-20 0c0,5 1,9 2,11 1,3 3,4 5,4 2,0 4,-1 5,-4 1,-2 2,-6 2,-11 0,-5 -1,-9 -2,-11 -1,-2 -3,-3 -5,-3 -2,0 -4,1 -5,3 -1,2 -2,6 -2,11zm50 0c0,7 -1,12 -3,15 -2,3 -5,5 -10,5 -4,0 -7,-2 -9,-5 -2,-3 -4,-8 -4,-15 0,-6 2,-11 4,-15 2,-3 5,-4 9,-4 5,0 8,1 10,5 2,3 3,8 3,14zm-19 0c0,5 0,9 1,11 1,3 3,4 5,4 3,0 5,-1 6,-4 1,-2 1,-6 1,-11 0,-5 0,-9 -1,-11 -1,-2 -3,-3 -6,-3 -2,0 -4,1 -5,3 -1,2 -1,6 -1,11z"/>
  <line class="fil2 str0" x1="383" y1="80" x2="530" y2= "80" />
  <path class="fil0" d="M584 62l0 -61 17 0 0 61 -17 0zm70 -19c0,4 -1,8 -3,11 -2,2 -5,5 -8,6 -4,2 -8,3 -13,3 -4,0 -8,0 -10,-1 -3,-1 -6,-2 -9,-3l0 -15c3,2 6,3 10,4 3,1 6,1 9,1 3,0 4,0 6,-1 1,-1 1,-2 1,-3 0,-1 0,-2 0,-2 -1,-1 -2,-2 -3,-2 -1,-1 -3,-2 -8,-4 -4,-2 -7,-4 -9,-5 -2,-2 -3,-4 -4,-6 -1,-2 -2,-5 -2,-8 0,-6 3,-10 7,-13 4,-3 9,-5 16,-5 7,0 13,2 20,4l-5 13c-6,-2 -11,-4 -15,-4 -2,0 -4,1 -5,1 -1,1 -1,2 -1,3 0,1 0,2 2,3 1,1 4,3 10,6 5,2 9,5 11,7 2,3 3,6 3,10zm66 -12c0,11 -2,18 -7,24 -5,5 -13,8 -22,8 -10,0 -17,-3 -22,-8 -5,-6 -8,-13 -8,-24 0,-10 3,-18 8,-23 5,-5 12,-8 22,-8 9,0 17,3 22,8 5,5 7,13 7,23zm-42 0c0,12 4,18 13,18 4,0 7,-1 9,-4 2,-3 3,-8 3,-14 0,-6 -1,-10 -3,-13 -2,-3 -5,-4 -9,-4 -9,0 -13,5 -13,17z"/>
  <path class="fil0" d="M721 155c0,6 -5,11 -10,11l-126 0c-6,0 -11,-5 -11,-11l0 -66c0,-6 5,-11 11,-11l126 0c5,0 10,5 10,11l0 66z"/>
  <path class="fil1" d="M622 102c3,0 6,1 8,2 3,2 4,4 4,7 0,4 -3,7 -7,9 3,2 5,3 6,5 1,2 2,3 2,5 0,4 -1,6 -4,8 -2,2 -5,3 -9,3 -4,0 -7,-1 -10,-3 -2,-2 -3,-4 -3,-7 0,-2 0,-4 2,-6 1,-2 3,-3 6,-5 -3,-1 -4,-2 -5,-4 -1,-2 -2,-3 -2,-5 0,-3 1,-5 3,-7 2,-1 5,-2 9,-2zm-7 28c0,2 0,4 2,5 1,1 3,1 5,1 2,0 4,0 5,-1 1,-1 2,-3 2,-5 0,-1 -1,-2 -2,-3 -1,-2 -3,-3 -5,-4l-1 0c-2,1 -4,2 -5,3 -1,2 -1,3 -1,4zm7 -24c-2,0 -3,1 -4,2 -1,1 -2,2 -2,3 0,1 0,2 1,3 0,0 0,1 1,2 1,0 2,1 4,2 2,-1 3,-2 4,-3 1,-1 2,-2 2,-4 0,-1 -1,-2 -2,-3 -1,-1 -2,-2 -4,-2zm43 15c0,7 -1,12 -3,15 -2,3 -5,5 -10,5 -4,0 -7,-2 -9,-5 -3,-3 -4,-8 -4,-15 0,-6 1,-11 4,-15 2,-3 5,-4 9,-4 5,0 8,1 10,5 2,3 3,8 3,14zm-19 0c0,5 0,9 1,11 1,3 3,4 5,4 3,0 4,-1 5,-4 2,-2 2,-6 2,-11 0,-5 0,-9 -2,-11 -1,-2 -2,-3 -5,-3 -2,0 -4,1 -5,3 -1,2 -1,6 -1,11zm50 0c0,7 -1,12 -3,15 -3,3 -6,5 -10,5 -4,0 -8,-2 -10,-5 -2,-3 -3,-8 -3,-15 0,-6 1,-11 3,-15 2,-3 5,-4 10,-4 4,0 7,1 10,5 2,3 3,8 3,14zm-20 0c0,5 1,9 2,11 1,3 2,4 5,4 2,0 4,-1 5,-4 1,-2 2,-6 2,-11 0,-5 -1,-9 -2,-11 -1,-2 -3,-3 -5,-3 -3,0 -4,1 -5,3 -1,2 -2,6 -2,11z"/>
  <line class="fil2 str0" x1="574" y1="80" x2="721" y2= "80" />
  <path class="fil0" d="M776 62l0 -61 16 0 0 61 -16 0zm69 -19c0,4 -1,8 -3,11 -2,2 -4,5 -8,6 -4,2 -8,3 -13,3 -4,0 -7,0 -10,-1 -3,-1 -6,-2 -9,-3l0 -15c4,2 7,3 10,4 4,1 7,1 10,1 2,0 4,0 5,-1 1,-1 2,-2 2,-3 0,-1 -1,-2 -1,-2 0,-1 -1,-2 -2,-2 -1,-1 -4,-2 -8,-4 -4,-2 -7,-4 -9,-5 -2,-2 -4,-4 -5,-6 -1,-2 -1,-5 -1,-8 0,-6 2,-10 6,-13 4,-3 10,-5 17,-5 6,0 13,2 19,4l-5 13c-6,-2 -10,-4 -15,-4 -2,0 -3,1 -4,1 -1,1 -2,2 -2,3 0,1 1,2 2,3 1,1 5,3 10,6 5,2 9,5 11,7 2,3 3,6 3,10zm67 -12c0,11 -3,18 -8,24 -5,5 -12,8 -22,8 -10,0 -17,-3 -22,-8 -5,-6 -8,-13 -8,-24 0,-10 3,-18 8,-23 5,-5 12,-8 22,-8 10,0 17,3 22,8 5,5 8,13 8,23zm-42 0c0,12 4,18 12,18 4,0 7,-1 9,-4 2,-3 3,-8 3,-14 0,-6 -1,-10 -3,-13 -2,-3 -5,-4 -9,-4 -8,0 -12,5 -12,17z"/>
  <path class="fil0" d="M913 155c0,6 -5,11 -11,11l-126 0c-6,0 -10,-5 -10,-11l0 -66c0,-6 4,-11 10,-11l126 0c6,0 11,5 11,11l0 66z"/>
  <path class="fil1" d="M803 140l-6 0 0 -24c0,-3 0,-6 0,-7 0,0 -1,1 -1,1 -1,1 -3,2 -6,5l-3 -4 11 -9 5 0 0 38zm13 -16c0,-15 6,-22 18,-22 2,0 3,0 5,0l0 5c-2,0 -3,0 -5,0 -4,0 -7,1 -9,3 -2,2 -3,6 -3,11l0 0c1,-2 2,-3 3,-4 2,-1 4,-1 6,-1 3,0 6,1 8,3 2,2 3,5 3,9 0,4 -2,7 -4,9 -2,3 -5,4 -9,4 -3,0 -5,-1 -7,-2 -2,-1 -4,-3 -5,-6 -1,-2 -1,-5 -1,-9zm13 12c2,0 4,-1 5,-2 1,-2 2,-4 2,-6 0,-2 -1,-4 -2,-5 -1,-1 -3,-2 -5,-2 -1,0 -2,0 -3,1 -2,0 -2,1 -3,2 -1,1 -1,2 -1,3 0,3 1,5 2,6 1,2 3,3 5,3zm43 -15c0,7 -1,12 -3,15 -2,3 -6,5 -10,5 -4,0 -7,-2 -10,-5 -2,-3 -3,-8 -3,-15 0,-6 1,-11 3,-15 2,-3 6,-4 10,-4 4,0 7,1 10,5 2,3 3,8 3,14zm-20 0c0,5 1,9 2,11 1,3 3,4 5,4 2,0 4,-1 5,-4 1,-2 2,-6 2,-11 0,-5 -1,-9 -2,-11 -1,-2 -3,-3 -5,-3 -2,0 -4,1 -5,3 -1,2 -2,6 -2,11zm50 0c0,7 -1,12 -3,15 -2,3 -5,5 -10,5 -4,0 -7,-2 -9,-5 -2,-3 -3,-8 -3,-15 0,-6 1,-11 3,-15 2,-3 5,-4 9,-4 5,0 8,1 10,5 2,3 3,8 3,14zm-19 0c0,5 0,9 1,11 1,3 3,4 5,4 3,0 5,-1 6,-4 1,-2 1,-6 1,-11 0,-5 0,-9 -1,-11 -1,-2 -3,-3 -6,-3 -2,0 -4,1 -5,3 -1,2 -1,6 -1,11z"/>
  <line class="fil2 str0" x1="766" y1="80" x2="913" y2= "80" />
  <path class="fil0" d="M967 62l0 -61 16 0 0 61 -16 0zm70 -19c0,4 -1,8 -3,11 -2,2 -5,5 -9,6 -3,2 -7,3 -12,3 -4,0 -8,0 -11,-1 -2,-1 -5,-2 -8,-3l0 -15c3,2 6,3 10,4 3,1 6,1 9,1 2,0 4,0 5,-1 2,-1 2,-2 2,-3 0,-1 0,-2 -1,-2 0,-1 -1,-2 -2,-2 -1,-1 -4,-2 -8,-4 -4,-2 -7,-4 -9,-5 -2,-2 -3,-4 -4,-6 -1,-2 -2,-5 -2,-8 0,-6 2,-10 6,-13 4,-3 10,-5 17,-5 7,0 13,2 20,4l-5 13c-6,-2 -11,-4 -15,-4 -2,0 -4,1 -5,1 -1,1 -1,2 -1,3 0,1 0,2 1,3 2,1 5,3 11,6 5,2 8,5 11,7 2,3 3,6 3,10zm66 -12c0,11 -2,18 -7,24 -5,5 -13,8 -23,8 -9,0 -16,-3 -22,-8 -5,-6 -7,-13 -7,-24 0,-10 2,-18 7,-23 5,-5 13,-8 23,-8 9,0 17,3 22,8 5,5 7,13 7,23zm-42 0c0,12 4,18 12,18 5,0 8,-1 10,-4 2,-3 3,-8 3,-14 0,-6 -1,-10 -3,-13 -2,-3 -5,-4 -9,-4 -9,0 -13,5 -13,17z"/>
  <path class="fil0" d="M1104 155c0,6 -5,11 -11,11l-125 0c-6,0 -11,-5 -11,-11l0 -66c0,-6 5,-11 11,-11l125 0c6,0 11,5 11,11l0 66z"/>
  <path class="fil1" d="M1001 111c0,2 -1,4 -2,6 -2,2 -4,3 -6,3l0 0c3,1 5,2 7,3 1,2 2,4 2,6 0,4 -1,7 -4,9 -2,2 -6,3 -11,3 -4,0 -8,-1 -11,-2l0 -6c2,1 4,2 6,2 1,1 3,1 5,1 3,0 5,-1 6,-2 2,-1 3,-3 3,-5 0,-2 -1,-3 -3,-4 -1,-1 -4,-2 -7,-2l-4 0 0 -5 4 0c6,0 9,-2 9,-6 0,-2 -1,-3 -2,-4 -1,-1 -3,-1 -5,-1 -1,0 -2,0 -4,0 -1,1 -3,2 -5,3l-3 -4c4,-3 8,-4 13,-4 4,0 7,0 9,2 2,2 3,4 3,7zm32 29l-26 0 0 -4 10 -10c3,-3 5,-5 6,-7 1,-1 1,-2 2,-3 0,-1 0,-2 0,-4 0,-1 0,-3 -1,-4 -1,-1 -3,-1 -5,-1 -1,0 -2,0 -4,1 -1,0 -3,1 -4,3l-4 -4c2,-2 4,-3 6,-4 2,-1 5,-1 7,-1 3,0 6,1 8,2 2,2 4,5 4,8 0,2 -1,3 -1,5 -1,1 -2,3 -3,5 -2,1 -4,3 -7,6l-6 7 0 0 18 0 0 5zm30 -19c0,7 -1,12 -3,15 -2,3 -5,5 -10,5 -4,0 -7,-2 -9,-5 -2,-3 -4,-8 -4,-15 0,-6 2,-11 4,-15 2,-3 5,-4 9,-4 5,0 8,1 10,5 2,3 3,8 3,14zm-19 0c0,5 0,9 1,11 1,3 3,4 5,4 3,0 4,-1 6,-4 1,-2 1,-6 1,-11 0,-5 0,-9 -1,-11 -2,-2 -3,-3 -6,-3 -2,0 -4,1 -5,3 -1,2 -1,6 -1,11zm50 0c0,7 -1,12 -3,15 -2,3 -6,5 -10,5 -4,0 -8,-2 -10,-5 -2,-3 -3,-8 -3,-15 0,-6 1,-11 3,-15 2,-3 6,-4 10,-4 4,0 7,1 10,5 2,3 3,8 3,14zm-20 0c0,5 1,9 2,11 1,3 3,4 5,4 2,0 4,-1 5,-4 1,-2 2,-6 2,-11 0,-5 -1,-9 -2,-11 -1,-2 -3,-3 -5,-3 -2,0 -4,1 -5,3 -1,2 -2,6 -2,11z"/>
  <line class="fil2 str0" x1="957" y1="80" x2="1104" y2= "80" />
  <path class="fil0" d="M1158 62l0 -61 17 0 0 61 -17 0zm70 -19c0,4 -1,8 -3,11 -2,2 -5,5 -8,6 -4,2 -8,3 -13,3 -4,0 -7,0 -10,-1 -3,-1 -6,-2 -9,-3l0 -15c3,2 7,3 10,4 3,1 7,1 9,1 3,0 5,0 6,-1 1,-1 2,-2 2,-3 0,-1 -1,-2 -1,-2 -1,-1 -1,-2 -2,-2 -1,-1 -4,-2 -9,-4 -4,-2 -6,-4 -8,-5 -2,-2 -4,-4 -5,-6 -1,-2 -1,-5 -1,-8 0,-6 2,-10 6,-13 4,-3 10,-5 17,-5 6,0 12,2 19,4l-5 13c-6,-2 -11,-4 -15,-4 -2,0 -4,1 -5,1 0,1 -1,2 -1,3 0,1 1,2 2,3 1,1 4,3 10,6 5,2 9,5 11,7 2,3 3,6 3,10zm67 -12c0,11 -3,18 -8,24 -5,5 -12,8 -22,8 -10,0 -17,-3 -22,-8 -5,-6 -8,-13 -8,-24 0,-10 3,-18 8,-23 5,-5 12,-8 22,-8 10,0 17,3 22,8 5,5 8,13 8,23zm-42 0c0,12 4,18 12,18 4,0 7,-1 9,-4 2,-3 3,-8 3,-14 0,-6 -1,-10 -3,-13 -2,-3 -5,-4 -9,-4 -8,0 -12,5 -12,17z"/>
  <path class="fil0" d="M1295 155c0,6 -4,11 -10,11l-126 0c-6,0 -11,-5 -11,-11l0 -66c0,-6 5,-11 11,-11l126 0c6,0 10,5 10,11l0 66z"/>
  <path class="fil1" d="M1168 124c0,-15 6,-22 18,-22 2,0 4,0 5,0l0 5c-1,0 -3,0 -5,0 -4,0 -7,1 -9,3 -2,2 -3,6 -3,11l0 0c1,-2 2,-3 4,-4 1,-1 3,-1 5,-1 3,0 6,1 8,3 2,2 3,5 3,9 0,4 -1,7 -3,9 -3,3 -6,4 -10,4 -2,0 -5,-1 -7,-2 -2,-1 -3,-3 -4,-6 -1,-2 -2,-5 -2,-9zm13 12c2,0 4,-1 5,-2 1,-2 2,-4 2,-6 0,-2 -1,-4 -2,-5 -1,-1 -2,-2 -5,-2 -1,0 -2,0 -3,1 -1,0 -2,1 -3,2 0,1 -1,2 -1,3 0,3 1,5 2,6 2,2 3,3 5,3zm45 -4l-6 0 0 8 -6 0 0 -8 -17 0 0 -5 17 -25 6 0 0 25 6 0 0 5zm-12 -5l0 -10c0,-3 1,-6 1,-8l0 0c-1,1 -2,3 -3,4l-9 14 11 0zm41 -6c0,7 -1,12 -3,15 -3,3 -6,5 -10,5 -4,0 -8,-2 -10,-5 -2,-3 -3,-8 -3,-15 0,-6 1,-11 3,-15 2,-3 5,-4 10,-4 4,0 7,1 9,5 3,3 4,8 4,14zm-20 0c0,5 1,9 2,11 1,3 2,4 5,4 2,0 4,-1 5,-4 1,-2 2,-6 2,-11 0,-5 -1,-9 -2,-11 -1,-2 -3,-3 -5,-3 -3,0 -4,1 -5,3 -1,2 -2,6 -2,11zm50 0c0,7 -1,12 -3,15 -2,3 -5,5 -10,5 -4,0 -7,-2 -9,-5 -3,-3 -4,-8 -4,-15 0,-6 1,-11 4,-15 2,-3 5,-4 9,-4 5,0 8,1 10,5 2,3 3,8 3,14zm-19 0c0,5 0,9 1,11 1,3 3,4 5,4 3,0 4,-1 5,-4 2,-2 2,-6 2,-11 0,-5 0,-9 -2,-11 -1,-2 -2,-3 -5,-3 -2,0 -4,1 -5,3 -1,2 -1,6 -1,11z"/>
  <line class="fil2 str0" x1="1148" y1="80" x2="1295" y2= "80" />
  <path class="fil0" d="M1350 62l0 -61 16 0 0 61 -16 0zm69 -19c0,4 -1,8 -2,11 -2,2 -5,5 -9,6 -3,2 -8,3 -13,3 -4,0 -7,0 -10,-1 -3,-1 -5,-2 -8,-3l0 -15c3,2 6,3 9,4 4,1 7,1 10,1 2,0 4,0 5,-1 1,-1 2,-2 2,-3 0,-1 0,-2 -1,-2 0,-1 -1,-2 -2,-2 -1,-1 -4,-2 -8,-4 -4,-2 -7,-4 -9,-5 -2,-2 -4,-4 -4,-6 -1,-2 -2,-5 -2,-8 0,-6 2,-10 6,-13 4,-3 10,-5 17,-5 6,0 13,2 19,4l-5 13c-5,-2 -10,-4 -14,-4 -3,0 -4,1 -5,1 -1,1 -2,2 -2,3 0,1 1,2 2,3 2,1 5,3 10,6 6,2 9,5 11,7 2,3 3,6 3,10zm67 -12c0,11 -3,18 -8,24 -5,5 -12,8 -22,8 -9,0 -17,-3 -22,-8 -5,-6 -7,-13 -7,-24 0,-10 2,-18 7,-23 5,-5 13,-8 22,-8 10,0 17,3 22,8 5,5 8,13 8,23zm-42 0c0,12 4,18 12,18 4,0 8,-1 10,-4 2,-3 3,-8 3,-14 0,-6 -1,-10 -3,-13 -3,-3 -6,-4 -10,-4 -8,0 -12,5 -12,17z"/>
  <path class="fil0" d="M1487 155c0,6 -5,11 -11,11l-126 0c-5,0 -10,-5 -10,-11l0 -66c0,-6 5,-11 10,-11l126 0c6,0 11,5 11,11l0 66z"/>
  <path class="fil3" d="M1381 138c-2,0 -3,-1 -3,-2 -1,-1 -1,-2 -1,-2 0,0 -1,1 -3,3 0,0 0,0 -1,0 -2,1 -3,1 -6,1 -2,0 -5,-1 -6,-2 -2,-2 -3,-4 -3,-7 0,-3 1,-5 4,-6 2,-2 5,-3 10,-3 2,0 5,0 5,-1 0,0 0,-2 -1,-4 0,0 0,0 -1,-1 0,-1 -2,-1 -4,-1 -1,0 -2,0 -4,1 -1,0 -2,1 -4,1 -1,-2 0,-5 2,-6 0,0 0,0 1,0 2,0 4,-1 6,-1 3,0 6,1 8,3 2,1 3,4 3,7 0,11 -1,20 -2,20zm-12 -4l0 0c3,0 4,-1 6,-2 1,-2 2,-3 2,-6 0,-1 -1,-2 -2,-2 -1,0 -4,0 -7,1 0,0 0,0 -1,1 -2,0 -2,2 -2,3 0,2 0,3 1,3 1,1 2,2 3,2z"/>
  <path class="fil3" d="M1414 138c-1,0 -2,-1 -3,-2 0,-1 0,-2 0,-2 0,0 -1,1 -3,2 0,0 0,0 -1,1 -2,1 -3,1 -5,1 -4,0 -7,-1 -8,-2 -2,-2 -3,-5 -3,-8 0,-11 2,-19 3,-19 2,0 3,4 3,9 0,5 0,10 1,12 0,0 0,0 1,2 1,1 2,1 4,1 2,0 4,-1 6,-2 1,-2 1,-4 1,-8 0,-8 2,-14 3,-14 2,0 4,6 4,14 0,8 -2,15 -3,15z"/>
  <path class="fil3" d="M1436 133c2,0 3,0 5,0 0,2 -1,4 -2,5 0,0 0,0 -1,0 -1,0 -2,0 -3,0 -6,0 -9,-3 -9,-9 0,-9 -1,-16 -2,-16 -1,0 -2,0 -2,-1 0,-1 1,-2 2,-2 1,-1 3,-3 3,-5 1,-1 2,-3 3,-3 1,0 2,2 2,4 0,1 2,3 4,3 2,0 4,1 4,2 0,1 -2,2 -4,2 -2,0 -4,4 -4,8 0,4 0,9 0,10 0,0 0,0 1,1 1,1 2,1 3,1z"/>
  <path class="fil3" d="M1472 123c0,5 -1,9 -4,11 -2,3 -6,4 -10,4 -3,0 -5,0 -7,-2 -2,-1 -4,-3 -5,-5 -1,-2 -1,-5 -1,-8 0,-4 1,-8 3,-11 3,-2 6,-4 10,-4 5,0 8,2 10,4 3,3 4,7 4,11zm-21 0l0 0c0,7 2,10 7,10 5,0 8,-3 8,-10 0,-6 -3,-10 -8,-10 -2,0 -4,1 -5,3 -2,2 -2,4 -2,7z"/>
  <path class="fil0" d="M201 62l0 -61 17 0 0 61 -17 0zm70 -19c0,4 -1,8 -3,11 -2,2 -5,5 -8,6 -4,2 -8,3 -13,3 -4,0 -7,0 -10,-1 -3,-1 -6,-2 -9,-3l0 -15c3,2 7,3 10,4 3,1 7,1 9,1 3,0 5,0 6,-1 1,-1 2,-2 2,-3 0,-1 -1,-2 -1,-2 -1,-1 -1,-2 -2,-2 -1,-1 -4,-2 -9,-4 -4,-2 -6,-4 -8,-5 -2,-2 -4,-4 -5,-6 -1,-2 -1,-5 -1,-8 0,-6 2,-10 6,-13 4,-3 10,-5 17,-5 6,0 12,2 19,4l-5 13c-6,-2 -11,-4 -15,-4 -2,0 -4,1 -5,1 0,1 -1,2 -1,3 0,1 1,2 2,3 1,1 4,3 10,6 5,2 9,5 11,7 2,3 3,6 3,10zm67 -12c0,11 -3,18 -8,24 -5,5 -12,8 -22,8 -10,0 -17,-3 -22,-8 -5,-6 -8,-13 -8,-24 0,-10 3,-18 8,-23 5,-5 12,-8 22,-8 10,0 17,3 22,8 5,5 8,13 8,23zm-42 0c0,12 4,18 12,18 4,0 7,-1 9,-4 2,-3 3,-8 3,-14 0,-6 -1,-10 -3,-13 -2,-3 -5,-4 -9,-4 -8,0 -12,5 -12,17z"/>
  <line class="fil2 str0" x1="1340" y1="80" x2="1487" y2= "80" />
 </g>
</svg>
