<?xml version="1.0" encoding="UTF-8"?>
<!DOCTYPE svg PUBLIC "-//W3C//DTD SVG 1.1//EN" "http://www.w3.org/Graphics/SVG/1.1/DTD/svg11.dtd">
<!-- Creator: CorelDRAW X7 -->
<svg xmlns="http://www.w3.org/2000/svg" xml:space="preserve" width="0.935126in" height="0.935118in" version="1.1" style="shape-rendering:geometricPrecision; text-rendering:geometricPrecision; image-rendering:optimizeQuality; fill-rule:evenodd; clip-rule:evenodd"
viewBox="0 0 142 142"
 xmlns:xlink="http://www.w3.org/1999/xlink">
 <defs>
  <style type="text/css">
   <![CDATA[
    .fil0 {fill:#2B4446;fill-rule:nonzero}
   ]]>
  </style>
 </defs>
 <g id="__x0023_Layer_x0020_1">
  <metadata id="CorelCorpID_0Corel-Layer"/>
  <path class="fil0" d="M71 37c-19,0 -34,16 -34,34 0,19 15,34 34,34 19,0 34,-15 34,-34 0,-18 -15,-34 -34,-34zm0 56l0 0c-12,0 -22,-10 -22,-22 0,-12 10,-21 22,-21 12,0 21,9 21,21 0,12 -9,22 -21,22zm6 -78l0 0c0,4 -3,7 -6,7l0 0c-4,0 -6,-3 -6,-7l0 -9c0,-3 2,-6 6,-6l0 0c3,0 6,3 6,6l0 9zm-41 21l0 0 0 0c-2,3 -6,3 -9,0l-6 -6c-3,-3 -3,-6 0,-9l0 0c2,-2 6,-2 8,0l7 7c2,2 2,6 0,8zm-14 35l0 0c0,3 -3,6 -7,6l-9 0c-3,0 -6,-3 -6,-6l0 0c0,-4 3,-6 6,-6l9 0c4,0 7,2 7,6l0 0zm14 35l0 0 0 0c2,3 2,6 0,9l-7 6c-2,3 -6,3 -8,0l0 0c-3,-2 -3,-6 0,-8l6 -7c3,-2 7,-2 9,0zm41 30l0 0c0,3 -3,6 -6,6l0 0c-4,0 -6,-3 -6,-6l0 -10c0,-3 2,-6 6,-6l0 0c3,0 6,3 6,6l0 10zm29 -30l0 0 0 0c2,-2 6,-2 8,0l7 7c2,2 2,6 0,8l0 0c-2,3 -6,3 -9,0l-6 -6c-3,-3 -3,-6 0,-9zm36 -35l0 0c0,3 -3,6 -6,6l-10 0c-3,0 -6,-3 -6,-6l0 0c0,-4 3,-6 6,-6l10 0c3,0 6,2 6,6l0 0zm-36 -35l0 0 0 0c-3,-2 -3,-6 0,-8l6 -7c3,-2 7,-2 9,0l0 0c2,3 2,6 0,9l-7 6c-2,3 -6,3 -8,0z"/>
 </g>
</svg>
