<?xml version="1.0" encoding="UTF-8"?>
<!DOCTYPE svg PUBLIC "-//W3C//DTD SVG 1.1//EN" "http://www.w3.org/Graphics/SVG/1.1/DTD/svg11.dtd">
<!-- Creator: CorelDRAW X7 -->
<svg xmlns="http://www.w3.org/2000/svg" xml:space="preserve" width="0.556657in" height="0.870638in" version="1.1" style="shape-rendering:geometricPrecision; text-rendering:geometricPrecision; image-rendering:optimizeQuality; fill-rule:evenodd; clip-rule:evenodd"
viewBox="0 0 288 450"
 xmlns:xlink="http://www.w3.org/1999/xlink">
 <defs>
  <style type="text/css">
   <![CDATA[
    .fil0 {fill:#2C2E31}
   ]]>
  </style>
 </defs>
 <g id="Layer_x0020_1">
  <metadata id="CorelCorpID_0Corel-Layer"/>
  <path class="fil0" d="M271 201c0,4 -3,7 -6,7l-242 0c-3,0 -6,-3 -6,-7l0 -142c0,-4 3,-7 6,-7l8 0 50 0 11 0 104 0 0 0 69 0c3,0 6,3 6,7l0 142zm-156 -184l58 0 9 18 -76 0 9 -18zm150 18l-64 0 -13 -26c-3,-6 -8,-9 -14,-9l-60 0c-6,0 -11,3 -14,9l-13 26 -7 0c-1,-4 -5,-10 -16,-10l-16 0c-11,0 -15,6 -16,10l-9 0c-13,0 -23,11 -23,24l0 142c0,13 10,23 23,23l113 0 0 16 -115 198c-2,4 -1,9 3,11 2,1 3,1 5,1 2,0 5,-1 7,-4l100 -173 0 169c0,5 3,8 8,8 5,0 8,-3 8,-8l0 -169 100 173c2,3 5,4 7,4 2,0 3,0 5,-1 4,-2 5,-7 3,-11l-115 -198 0 -16 113 0c12,0 23,-10 23,-23l0 -142c0,-13 -11,-24 -23,-24z"/>
  <path class="fil0" d="M144 175c-25,0 -45,-20 -45,-45 0,-25 20,-46 45,-46 25,0 45,21 45,46 0,25 -20,45 -45,45zm0 -107c-34,0 -62,28 -62,62 0,34 28,62 62,62 34,0 62,-28 62,-62 0,-34 -28,-62 -62,-62z"/>
  <path class="fil0" d="M144 94c-5,0 -8,4 -8,8 0,5 3,9 8,9 11,0 19,8 19,19 0,4 4,8 9,8 4,0 8,-4 8,-8 0,-20 -16,-36 -36,-36z"/>
  <path class="fil0" d="M66 83l-20 0 0 -9 20 0 0 9zm17 -15c0,-6 -5,-10 -11,-10l-32 0c-6,0 -11,4 -11,10l0 21c0,6 5,11 11,11l32 0c6,0 11,-5 11,-11l0 -21z"/>
 </g>
</svg>
