<?xml version="1.0" encoding="UTF-8"?>
<!DOCTYPE svg PUBLIC "-//W3C//DTD SVG 1.1//EN" "http://www.w3.org/Graphics/SVG/1.1/DTD/svg11.dtd">
<!-- Creator: CorelDRAW X7 -->
<svg xmlns="http://www.w3.org/2000/svg" xml:space="preserve" width="0.702362in" height="0.508028in" version="1.1" style="shape-rendering:geometricPrecision; text-rendering:geometricPrecision; image-rendering:optimizeQuality; fill-rule:evenodd; clip-rule:evenodd"
viewBox="0 0 258 187"
 xmlns:xlink="http://www.w3.org/1999/xlink">
 <defs>
  <style type="text/css">
   <![CDATA[
    .fil0 {fill:#7B7D7F}
   ]]>
  </style>
 </defs>
 <g id="Layer_x0020_1">
  <metadata id="CorelCorpID_0Corel-Layer"/>
  <path class="fil0" d="M15 26c-8,0 -15,7 -15,16l0 7 35 0 2 0 3 0 0 3 0 2 0 105 0 2 0 3 -3 0 -2 0 -35 0 0 6c0,10 7,17 16,17l227 0c8,0 15,-7 15,-17l0 -128c0,-9 -6,-16 -14,-16l-6 0 -4 -18c-1,-4 -5,-8 -10,-8l-31 0 -30 0c-6,0 -10,4 -11,8l-3 18 -134 0zm-15 32l0 97 30 0 0 -97 -30 0zm151 23c-5,-3 -11,-5 -17,-5 -18,0 -33,14 -33,33 0,13 10,25 22,29 -8,-5 -14,-15 -14,-26 0,-18 14,-32 32,-32 3,0 7,0 10,1l0 0zm-21 -33c7,0 15,2 22,5l0 0c7,3 14,7 19,12l0 0c6,5 10,12 13,19l0 0c3,7 4,14 4,23 0,8 -1,15 -4,22l0 0c-3,7 -7,13 -13,19 -5,5 -12,9 -19,12l0 0c-7,3 -15,5 -22,5 -8,0 -16,-2 -23,-5l0 0c-7,-3 -14,-7 -19,-12l0 0c-6,-6 -10,-12 -13,-19l0 0c-3,-7 -4,-14 -4,-22 0,-9 1,-16 4,-23l0 0c3,-7 7,-14 13,-19l0 0c5,-5 12,-9 19,-12l0 0c7,-3 15,-5 23,-5l0 0zm27 30c-4,-3 -8,-6 -13,-8 -4,-2 -9,-3 -14,-3 -6,0 -11,1 -15,3 -5,2 -9,5 -14,8 -4,4 -7,8 -9,13 -1,5 -2,10 -2,16 0,5 1,10 2,15 2,5 5,9 9,12 5,4 9,7 14,9 4,2 9,3 15,3 5,0 10,-1 14,-3 5,-2 9,-5 13,-9 4,-3 7,-7 9,-12 2,-5 4,-10 4,-15 0,-6 -2,-11 -4,-16 -2,-5 -5,-9 -9,-13l0 0z"/>
 </g>
</svg>
