<?xml version="1.0" encoding="UTF-8"?>
<!DOCTYPE svg PUBLIC "-//W3C//DTD SVG 1.1//EN" "http://www.w3.org/Graphics/SVG/1.1/DTD/svg11.dtd">
<!-- Creator: CorelDRAW X7 -->
<svg xmlns="http://www.w3.org/2000/svg" xml:space="preserve" width="3.03853in" height="1.50133in" version="1.1" style="shape-rendering:geometricPrecision; text-rendering:geometricPrecision; image-rendering:optimizeQuality; fill-rule:evenodd; clip-rule:evenodd"
viewBox="0 0 1086 537"
 xmlns:xlink="http://www.w3.org/1999/xlink">
 <defs>
  <style type="text/css">
   <![CDATA[
    .fil0 {fill:#404D71}
    .fil1 {fill:#ED3C52}
   ]]>
  </style>
 </defs>
 <g id="Layer_x0020_1">
  <metadata id="CorelCorpID_0Corel-Layer"/>
  <path class="fil0" d="M188 141l-28 -12c1,-3 1,-7 2,-11 0,-2 -1,-5 -4,-5 -2,0 -5,2 -5,4 -1,8 -3,18 -9,19 -8,2 -20,-7 -30,-18 -1,-6 -6,-12 -13,-15 -1,-1 -2,-1 -3,-1 -3,-1 -7,-2 -11,-2l-2 0 0 -12c15,-8 24,-23 24,-41 0,-26 -21,-47 -47,-47 -26,0 -47,21 -47,47 0,18 10,33 25,41l0 12 -4 0c-15,0 -27,9 -27,19 0,11 12,20 27,20l4 0 0 328 -25 0 0 33 -15 0 0 37 125 0 0 -37 -16 0 0 -33 -24 0 0 -328 2 0c10,0 19,-5 24,-11 9,9 21,18 31,18 1,0 3,0 4,-1 5,-1 8,-4 11,-10l28 13c1,0 1,0 2,0 1,0 2,-1 3,-2 1,-2 0,-4 -2,-5z"/>
  <path class="fil0" d="M1071 500l0 -33 -24 0 0 -328 3 0c15,0 27,-9 27,-20 0,-10 -12,-19 -27,-19l-3 0 0 -12c14,-8 24,-23 24,-41 0,-26 -21,-47 -47,-47 -26,0 -47,21 -47,47 0,18 10,33 24,41l0 12 -2 0c-4,0 -8,1 -11,2 -1,0 -2,0 -2,1 -8,3 -13,8 -14,15 -10,10 -22,20 -29,18 -6,-1 -9,-11 -10,-19 0,-2 -2,-4 -5,-4 -2,0 -4,3 -4,5 1,4 1,8 2,11l-28 12c-2,1 -3,3 -2,5 1,1 2,2 3,2 1,0 1,0 2,0l28 -13c3,6 7,9 11,10 2,1 3,1 4,1 11,0 22,-9 31,-18 5,6 14,11 24,11l2 0 0 328 -24 0 0 33 -15 0 0 37 124 0 0 -37 -15 0z"/>
  <path class="fil1" d="M554 231c-4,0 -8,0 -11,0 -129,-1 -302,-21 -366,-75 -6,-5 -7,-15 -2,-21 6,-7 15,-7 22,-2 46,39 186,66 346,68 164,1 297,-25 339,-67 6,-6 16,-6 22,0 6,6 6,15 0,21 -56,56 -215,76 -350,76z"/>
 </g>
</svg>
