<?xml version="1.0" encoding="UTF-8"?>
<!DOCTYPE svg PUBLIC "-//W3C//DTD SVG 1.1//EN" "http://www.w3.org/Graphics/SVG/1.1/DTD/svg11.dtd">
<!-- Creator: CorelDRAW X7 -->
<svg xmlns="http://www.w3.org/2000/svg" xml:space="preserve" width="0.702461in" height="0.643528in" version="1.1" style="shape-rendering:geometricPrecision; text-rendering:geometricPrecision; image-rendering:optimizeQuality; fill-rule:evenodd; clip-rule:evenodd"
viewBox="0 0 78 72"
 xmlns:xlink="http://www.w3.org/1999/xlink">
 <defs>
  <style type="text/css">
   <![CDATA[
    .fil0 {fill:#7B7D7F}
   ]]>
  </style>
 </defs>
 <g id="Layer_x0020_1">
  <metadata id="CorelCorpID_0Corel-Layer"/>
  <path class="fil0" d="M4 10c-2,0 -4,2 -4,4l0 40c0,2 2,4 5,4l18 0c0,0 0,0 -1,-1 -1,-3 -2,-6 -2,-10 0,-3 1,-6 2,-9 1,-3 3,-6 6,-8l0 0c2,-3 5,-5 8,-6 3,-1 7,-2 10,-2 3,0 6,1 10,2 3,1 5,3 8,6l0 0c2,2 4,5 5,8 2,3 2,6 2,9 0,4 0,7 -2,10 0,1 0,1 0,1l4 0c3,0 5,-2 5,-4l0 -40c0,-2 -2,-4 -4,-4l-18 0 -2 -7c0,-2 -2,-3 -3,-3l-12 0 -12 0c-1,0 -3,1 -3,3l-1 7 -19 0zm52 28c-2,-1 -3,-3 -5,-3 -2,-1 -3,-1 -5,-1 -2,0 -4,0 -5,1 -2,0 -4,2 -5,3 -1,1 -2,3 -3,4 -1,2 -1,4 -1,5 0,2 0,4 1,6 1,2 2,3 3,4 1,2 3,2 5,3 1,1 3,1 5,1 2,0 3,0 5,-1 2,-1 3,-1 5,-3 1,-1 2,-2 2,-4 1,-2 2,-4 2,-6 0,-1 -1,-3 -2,-5 0,-1 -1,-3 -2,-4l0 0zm-10 -15c3,0 6,1 9,2l0 0c3,2 6,3 8,6l0 0c2,2 4,4 5,7l0 0c1,3 2,6 2,9 0,4 -1,7 -2,10l0 0c-1,3 -3,5 -5,8l0 0c-2,2 -5,4 -8,5l0 0c-3,1 -6,2 -9,2 -3,0 -7,-1 -10,-2l0 0c-2,-1 -5,-3 -7,-5 -2,-3 -4,-5 -6,-8l0 0c-1,-3 -1,-6 -1,-10 0,-3 0,-6 1,-9l0 0c2,-3 4,-5 6,-7l0 0c2,-3 5,-4 7,-6l0 0c3,-1 7,-2 10,-2l0 0zm11 13c-1,-1 -3,-3 -5,-3 -2,-1 -4,-2 -6,-2 -2,0 -5,1 -7,2 -1,0 -3,2 -5,3 -1,2 -2,3 -3,5 -1,2 -1,4 -1,6 0,3 0,5 1,7 1,2 2,4 3,5 2,1 4,3 5,4 2,0 5,1 7,1 2,0 4,-1 6,-1 2,-1 4,-3 5,-4 2,-1 3,-3 4,-5 1,-2 1,-4 1,-7 0,-2 0,-4 -1,-6 -1,-2 -2,-3 -4,-5l0 0zm-36 -16l-2 0c-2,0 -4,-1 -4,-3 0,-2 2,-4 4,-4l2 0c2,0 4,2 4,4 0,2 -2,3 -4,3l0 0z"/>
 </g>
</svg>
