<?xml version="1.0" encoding="UTF-8"?>
<!DOCTYPE svg PUBLIC "-//W3C//DTD SVG 1.1//EN" "http://www.w3.org/Graphics/SVG/1.1/DTD/svg11.dtd">
<!-- Creator: CorelDRAW X7 -->
<svg xmlns="http://www.w3.org/2000/svg" xml:space="preserve" width="0.702909in" height="0.52189in" version="1.1" style="shape-rendering:geometricPrecision; text-rendering:geometricPrecision; image-rendering:optimizeQuality; fill-rule:evenodd; clip-rule:evenodd"
viewBox="0 0 46 34"
 xmlns:xlink="http://www.w3.org/1999/xlink">
 <defs>
  <style type="text/css">
   <![CDATA[
    .fil0 {fill:#7B7D7F}
   ]]>
  </style>
 </defs>
 <g id="Layer_x0020_1">
  <metadata id="CorelCorpID_0Corel-Layer"/>
  <path class="fil0" d="M3 6c-2,0 -3,1 -3,2l0 23c0,2 1,3 3,3l40 0c2,0 3,-1 3,-3l0 -23c0,-1 -1,-2 -2,-2l-11 0 -1 -4c0,-1 -1,-2 -2,-2l-7 0 -7 0c-1,0 -2,1 -2,2l-1 4 -10 0zm20 3c2,0 3,1 4,1l0 0c1,1 3,2 4,3l0 0c1,0 1,2 2,3l0 0c0,1 1,3 1,4 0,1 -1,3 -1,4l0 0c-1,1 -1,2 -2,3l0 0c-1,1 -3,2 -4,3l0 0c-1,0 -2,0 -4,0 -1,0 -3,0 -4,0l0 0c-1,-1 -2,-2 -3,-3l0 0c-1,-1 -2,-2 -3,-3l0 0c0,-1 0,-3 0,-4 0,-1 0,-3 0,-4l0 0c1,-1 2,-3 3,-3 1,-1 2,-2 3,-3l0 0c1,0 3,-1 4,-1l0 0zm-16 -1c1,0 1,1 1,2 0,1 0,2 -1,2 -2,0 -2,-1 -2,-2 0,-1 0,-2 2,-2l0 0zm21 7c0,-1 -1,-1 -2,-2 -1,0 -2,0 -3,0 -1,0 -2,0 -3,0 0,1 -1,1 -2,2 0,1 -1,1 -1,2 -1,1 -1,2 -1,3 0,1 0,2 1,3 0,0 1,1 1,2 1,1 2,1 2,2 1,0 2,0 3,0 1,0 2,0 3,0 1,-1 2,-1 2,-2 1,-1 1,-2 2,-2 0,-1 0,-2 0,-3 0,-1 0,-2 0,-3 -1,-1 -1,-1 -2,-2l0 0z"/>
 </g>
</svg>
