<?xml version="1.0" encoding="UTF-8"?>
<!DOCTYPE svg PUBLIC "-//W3C//DTD SVG 1.1//EN" "http://www.w3.org/Graphics/SVG/1.1/DTD/svg11.dtd">
<!-- Creator: CorelDRAW X7 -->
<svg xmlns="http://www.w3.org/2000/svg" xml:space="preserve" width="1.09396in" height="1.57142in" version="1.1" style="shape-rendering:geometricPrecision; text-rendering:geometricPrecision; image-rendering:optimizeQuality; fill-rule:evenodd; clip-rule:evenodd"
viewBox="0 0 111 159"
 xmlns:xlink="http://www.w3.org/1999/xlink">
 <defs>
  <style type="text/css">
   <![CDATA[
    .fil2 {fill:#85BCD9}
    .fil0 {fill:#5D6566}
    .fil1 {fill:#575E5F}
   ]]>
  </style>
 </defs>
 <g id="Layer_x0020_1">
  <metadata id="CorelCorpID_0Corel-Layer"/>
  <path class="fil0" d="M99 159l-88 0c-6,0 -11,-5 -11,-12l0 -136c0,-6 5,-11 11,-11l88 0c6,0 12,5 12,11l0 136c0,7 -6,12 -12,12z"/>
  <path class="fil1" d="M25 0l-22 0c-2,0 -3,1 -3,3l0 153c0,2 1,3 3,3l22 0 0 -159z"/>
  <path class="fil1" d="M86 159l22 0c1,0 3,-1 3,-3l0 -153c0,-2 -2,-3 -3,-3l-22 0 0 159z"/>
  <polygon class="fil2" points="55,11 59,17 62,22 55,22 49,22 52,17 "/>
  <polygon class="fil2" points="61,49 63,51 47,51 47,49 "/>
  <path class="fil2" d="M57 58c0,0 0,0 0,1 0,0 0,0 0,0 0,0 1,0 1,1 0,0 1,0 1,0 1,0 1,0 1,0 1,-1 1,-1 1,-1 0,0 0,0 0,0 1,-1 1,-1 1,-1 0,0 0,0 -1,-1 0,0 0,0 0,0 0,0 0,0 -1,0 0,-1 0,-1 -1,-1 0,0 -1,0 -1,1 0,0 -1,0 -1,0 0,0 0,0 0,0 0,1 0,1 0,1zm-8 0c0,0 0,1 0,1 0,0 0,0 1,1 0,0 0,0 1,0 0,0 0,0 1,0 0,0 1,0 1,0 1,0 1,0 1,0 0,-1 1,-1 1,-1 0,0 0,-1 0,-1 0,0 0,-1 0,-1 0,0 -1,0 -1,0 0,-1 0,-1 -1,-1 0,0 -1,0 -1,0 -1,0 -1,0 -1,0 -1,0 -1,0 -1,1 -1,0 -1,0 -1,0 0,0 0,1 0,1zm3 -4c0,0 1,0 1,0 1,0 1,0 1,1 1,0 1,0 1,0 1,0 1,1 1,1 0,-1 1,-1 1,-1 1,0 2,0 2,0 1,0 1,0 2,0 0,0 1,0 1,1 1,0 1,0 1,1 0,0 0,1 0,1 0,1 0,1 0,1 0,1 0,1 -1,1 0,1 -1,1 -1,1 -1,0 -1,1 -2,1 0,0 -1,-1 -2,-1 0,0 -1,0 -1,-1 0,0 0,1 -1,1 0,0 0,0 -1,1 0,0 0,0 -1,0 0,0 -1,0 -1,0 -1,0 -1,0 -2,0 -1,0 -1,-1 -2,-1 0,0 0,-1 0,-1 -1,-1 -1,-1 -1,-2 0,-1 0,-1 1,-2 0,0 0,0 0,-1 1,0 1,0 2,-1 1,0 1,0 2,0z"/>
  <path class="fil2" d="M49 69c0,0 0,0 0,1 0,0 1,0 1,0 1,1 1,1 2,1 1,0 2,0 3,0 1,0 2,0 3,0 1,0 2,0 2,-1 1,0 1,0 1,0 0,-1 0,-1 0,-1 0,0 0,-1 0,-1 0,0 0,-1 -1,-1 0,0 -1,0 -2,0 -1,0 -2,0 -3,0 -1,0 -2,0 -3,0 -1,0 -1,0 -2,0 0,0 -1,1 -1,1 0,0 0,1 0,1zm-2 0c0,-1 0,-1 1,-2 0,0 0,-1 1,-1 1,0 1,-1 2,-1 1,0 3,0 4,0 2,0 3,0 4,0 1,0 2,1 2,1 1,0 1,1 2,1 0,1 0,1 0,2 0,0 0,1 0,1 -1,1 -1,1 -2,2 0,0 -1,0 -2,1 -1,0 -2,0 -4,0 -1,0 -3,0 -4,0 -1,-1 -1,-1 -2,-1 -1,-1 -1,-1 -1,-2 -1,0 -1,-1 -1,-1z"/>
  <path class="fil2" d="M49 80c0,0 0,0 0,0 0,1 1,1 1,1 1,0 1,0 2,1 1,0 2,0 3,0 1,0 2,0 3,0 1,-1 2,-1 2,-1 1,0 1,0 1,-1 0,0 0,0 0,0 0,-1 0,-1 0,-1 0,0 0,-1 -1,-1 0,0 -1,0 -2,0 -1,-1 -2,-1 -3,-1 -1,0 -2,0 -3,1 -1,0 -1,0 -2,0 0,0 -1,1 -1,1 0,0 0,0 0,1zm-2 0c0,-1 0,-1 1,-2 0,0 0,-1 1,-1 1,-1 1,-1 2,-1 1,0 3,0 4,0 2,0 3,0 4,0 1,0 2,0 2,1 1,0 1,1 2,1 0,1 0,1 0,2 0,0 0,1 0,1 -1,1 -1,1 -2,1 0,1 -1,1 -2,1 -1,1 -2,1 -4,1 -1,0 -3,0 -4,-1 -1,0 -1,0 -2,-1 -1,0 -1,0 -1,-1 -1,0 -1,-1 -1,-1z"/>
  <path class="fil2" d="M58 86l-1 2c0,0 0,0 0,0 0,0 1,1 1,1 0,0 0,0 0,0 0,1 0,1 0,1 0,1 0,1 0,2 -1,0 -1,0 -1,1 0,0 0,0 0,0 0,0 0,0 1,1 0,0 0,0 0,0 0,1 0,1 0,1 0,1 0,2 -1,2 -1,1 -2,1 -3,1l-7 0 0 -1 7 0c1,0 1,-1 2,-1 0,0 0,-1 0,-1 0,0 0,-1 0,-1 0,0 0,-1 -1,-1l-8 0 0 -2 7 0c1,0 1,0 2,0 0,0 0,-1 0,-1 0,0 0,-1 0,-1 0,0 0,-1 -1,-1l-8 0 0 -2 11 0z"/>
  <path class="fil2" d="M52 106l4 -1 2 -1 -2 0 -4 -1 0 3zm11 -2l-16 5 0 -2 3 -1 0 -3 -3 -1 0 -2 16 4z"/>
  <path class="fil2" d="M63 111l0 1 -6 0c0,1 1,1 1,1 0,1 0,1 0,1 0,1 0,2 -1,3 -1,0 -2,1 -3,1l-7 0 0 -2 7 0c1,0 1,0 2,-1 0,0 0,0 0,-1 0,0 0,0 0,-1 0,0 0,0 -1,-1l-8 0 0 -1 16 0z"/>
 </g>
</svg>
