<?xml version="1.0" encoding="UTF-8"?>
<!DOCTYPE svg PUBLIC "-//W3C//DTD SVG 1.1//EN" "http://www.w3.org/Graphics/SVG/1.1/DTD/svg11.dtd">
<!-- Creator: CorelDRAW X7 -->
<svg xmlns="http://www.w3.org/2000/svg" xml:space="preserve" width="1.99123in" height="4.37615in" version="1.1" style="shape-rendering:geometricPrecision; text-rendering:geometricPrecision; image-rendering:optimizeQuality; fill-rule:evenodd; clip-rule:evenodd"
viewBox="0 0 788 1732"
 xmlns:xlink="http://www.w3.org/1999/xlink">
 <defs>
  <style type="text/css">
   <![CDATA[
    .fil4 {fill:#13110F;fill-rule:nonzero}
    .fil0 {fill:#2F2A28;fill-rule:nonzero}
    .fil7 {fill:#332F2F;fill-rule:nonzero}
    .fil5 {fill:#3B3431;fill-rule:nonzero}
    .fil3 {fill:#423F3D;fill-rule:nonzero}
    .fil6 {fill:#443F3F;fill-rule:nonzero}
    .fil1 {fill:#4F4B49;fill-rule:nonzero}
    .fil2 {fill:#5D5956;fill-rule:nonzero}
   ]]>
  </style>
 </defs>
 <g id="Objects">
  <metadata id="CorelCorpID_0Corel-Layer"/>
  <path class="fil0" d="M372 465l23 -7 22 -7c114,355 390,1229 370,1235 -20,7 -301,-866 -415,-1221z"/>
  <polygon class="fil1" points="479,831 543,811 427,448 363,468 "/>
  <path class="fil0" d="M416 465l-23 -7 -22 -7c-113,355 -390,1229 -370,1235 20,7 301,-866 415,-1221z"/>
  <polygon class="fil1" points="309,831 246,811 362,448 425,468 "/>
  <path class="fil0" d="M371 442l23 0 24 0c0,373 -3,1290 -24,1290 -21,0 -23,-917 -23,-1290z"/>
  <polygon class="fil2" points="361,824 427,824 427,442 361,442 "/>
  <path class="fil3" d="M264 443c-1,3 -2,6 -2,9l0 1c0,15 12,27 27,27l210 0c15,0 27,-12 27,-27l0 -1c0,-3 -1,-6 -2,-9l-260 0z"/>
  <polygon class="fil4" points="482,41 482,435 455,389 455,87 "/>
  <polygon class="fil0" points="455,87 455,389 432,410 432,66 "/>
  <polygon class="fil4" points="432,66 432,410 405,364 405,112 "/>
  <polygon class="fil0" points="405,112 405,364 382,385 382,91 "/>
  <polygon class="fil4" points="382,91 382,385 355,339 355,137 "/>
  <polygon class="fil0" points="355,137 355,339 332,361 332,115 "/>
  <polygon class="fil4" points="332,115 332,361 305,314 305,162 "/>
  <polygon class="fil4" points="282,140 282,336 256,290 256,187 "/>
  <polygon class="fil0" points="305,162 305,314 282,336 282,140 "/>
  <polygon class="fil0" points="482,448 506,448 506,27 482,27 "/>
  <polygon class="fil0" points="176,288 205,288 205,188 176,188 "/>
  <polygon class="fil4" points="83,401 319,401 319,424 83,424 "/>
  <path class="fil0" d="M515 36c0,8 7,15 15,15l50 0c8,0 14,-7 14,-15l0 -21c0,-8 -6,-15 -14,-15l-50 0c-8,0 -15,7 -15,15l0 21z"/>
  <polygon class="fil4" points="482,41 482,435 455,389 455,87 "/>
  <polygon class="fil0" points="455,87 455,389 432,410 432,66 "/>
  <polygon class="fil4" points="432,66 432,410 405,364 405,112 "/>
  <polygon class="fil0" points="405,112 405,364 382,385 382,91 "/>
  <polygon class="fil4" points="382,91 382,385 355,339 355,137 "/>
  <polygon class="fil0" points="355,137 355,339 332,361 332,115 "/>
  <polygon class="fil4" points="332,115 332,361 305,314 305,162 "/>
  <polygon class="fil4" points="282,140 282,336 256,290 256,187 "/>
  <polygon class="fil0" points="305,162 305,314 282,336 282,140 "/>
  <polygon class="fil2" points="516,254 326,434 360,434 550,254 "/>
  <path class="fil4" d="M506 27l111 0c13,0 23,11 23,23l0 376c0,12 -10,22 -23,22l-111 0 0 -421z"/>
  <polygon class="fil0" points="482,448 506,448 506,27 482,27 "/>
  <path class="fil5" d="M532 246c0,16 13,30 29,30 17,0 30,-14 30,-30 0,-16 -13,-29 -30,-29 -16,0 -29,13 -29,29z"/>
  <polygon class="fil0" points="220,415 257,415 257,140 220,140 "/>
  <polygon class="fil4" points="202,320 220,320 220,156 202,156 "/>
  <polygon class="fil6" points="336,431 401,431 401,408 336,408 "/>
  <polygon class="fil0" points="83,448 506,448 506,419 83,419 "/>
  <path class="fil2" d="M196 419c0,23 19,42 43,42 23,0 42,-19 42,-42 0,-23 -19,-42 -42,-42 -24,0 -43,19 -43,42z"/>
  <path class="fil7" d="M216 419c0,13 10,23 23,23 12,0 22,-10 22,-23 0,-12 -10,-22 -22,-22 -13,0 -23,10 -23,22z"/>
 </g>
</svg>
