<?xml version="1.0" encoding="UTF-8"?>
<!DOCTYPE svg PUBLIC "-//W3C//DTD SVG 1.1//EN" "http://www.w3.org/Graphics/SVG/1.1/DTD/svg11.dtd">
<!-- Creator: CorelDRAW X7 -->
<svg xmlns="http://www.w3.org/2000/svg" xml:space="preserve" width="1.05443in" height="0.907213in" version="1.1" style="shape-rendering:geometricPrecision; text-rendering:geometricPrecision; image-rendering:optimizeQuality; fill-rule:evenodd; clip-rule:evenodd"
viewBox="0 0 630 542"
 xmlns:xlink="http://www.w3.org/1999/xlink">
 <defs>
  <style type="text/css">
   <![CDATA[
    .fil4 {fill:#E0E3E7}
    .fil2 {fill:#6D7578}
    .fil3 {fill:#676E71}
    .fil1 {fill:#5D6264}
    .fil0 {fill:#545B5C}
   ]]>
  </style>
 </defs>
 <g id="Layer_x0020_1">
  <metadata id="CorelCorpID_0Corel-Layer"/>
  <path class="fil0" d="M18 279l0 0c-9,0 -15,-7 -15,-15l0 -40c0,-8 6,-15 15,-15l0 0c9,0 15,7 15,15l0 40c0,8 -6,15 -15,15z"/>
  <path class="fil1" d="M526 542l-422 0c-21,0 -38,-17 -38,-39l0 -64c0,-21 17,-38 38,-38l422 0c21,0 38,17 38,38l0 64c0,22 -17,39 -38,39z"/>
  <path class="fil2" d="M91 528l0 0c-6,0 -10,-5 -10,-10l0 -67c0,-5 4,-10 10,-10 5,0 10,5 10,10l0 67c0,5 -5,10 -10,10z"/>
  <path class="fil2" d="M132 528l-1 0c-5,0 -9,-5 -9,-10l0 -67c0,-5 4,-10 9,-10l1 0c5,0 9,5 9,10l0 67c0,5 -4,10 -9,10z"/>
  <path class="fil2" d="M172 528l0 0c-5,0 -10,-5 -10,-10l0 -67c0,-5 5,-10 10,-10 6,0 10,5 10,10l0 67c0,5 -4,10 -10,10z"/>
  <path class="fil2" d="M213 528l0 0c-5,0 -10,-5 -10,-10l0 -67c0,-5 5,-10 10,-10 5,0 10,5 10,10l0 67c0,5 -5,10 -10,10z"/>
  <path class="fil2" d="M254 528l0 0c-6,0 -10,-5 -10,-10l0 -67c0,-5 4,-10 10,-10 5,0 10,5 10,10l0 67c0,5 -5,10 -10,10z"/>
  <path class="fil2" d="M295 528l0 0c-6,0 -10,-5 -10,-10l0 -67c0,-5 4,-10 10,-10 5,0 10,5 10,10l0 67c0,5 -5,10 -10,10z"/>
  <path class="fil2" d="M335 528l0 0c-5,0 -10,-5 -10,-10l0 -67c0,-5 5,-10 10,-10 6,0 10,5 10,10l0 67c0,5 -4,10 -10,10z"/>
  <path class="fil2" d="M376 528l0 0c-5,0 -10,-5 -10,-10l0 -67c0,-5 5,-10 10,-10 6,0 10,5 10,10l0 67c0,5 -4,10 -10,10z"/>
  <path class="fil2" d="M417 528l0 0c-5,0 -10,-5 -10,-10l0 -67c0,-5 5,-10 10,-10 5,0 10,5 10,10l0 67c0,5 -5,10 -10,10z"/>
  <path class="fil2" d="M458 528l0 0c-6,0 -10,-5 -10,-10l0 -67c0,-5 4,-10 10,-10 5,0 10,5 10,10l0 67c0,5 -5,10 -10,10z"/>
  <path class="fil2" d="M499 528l0 0c-6,0 -10,-5 -10,-10l0 -67c0,-5 4,-10 10,-10 5,0 9,5 9,10l0 67c0,5 -4,10 -9,10z"/>
  <path class="fil2" d="M539 528l0 0c-5,0 -10,-5 -10,-10l0 -67c0,-5 5,-10 10,-10 6,0 10,5 10,10l0 67c0,5 -4,10 -10,10z"/>
  <path class="fil3" d="M575 390l-520 0c-21,0 -38,-18 -38,-39l0 -144c0,-22 17,-39 38,-39l520 0c21,0 38,17 38,39l0 144c0,21 -17,39 -38,39z"/>
  <path class="fil1" d="M602 168l-574 0c-6,0 -11,5 -11,12l0 178 596 0 0 -178c0,-7 -5,-12 -11,-12z"/>
  <polygon class="fil0" points="613,339 17,339 17,328 613,328 "/>
  <polygon class="fil2" points="37,0 19,43 315,43 611,43 593,0 "/>
  <polygon class="fil2" points="593,423 611,365 315,365 19,365 37,423 "/>
  <path class="fil0" d="M591 176l-552 0c-22,0 -39,-18 -39,-39l0 -63c0,-21 17,-39 39,-39l552 0c22,0 39,18 39,39l0 63c0,21 -17,39 -39,39z"/>
  <polygon class="fil1" points="15,163 10,163 10,48 15,48 "/>
  <polygon class="fil1" points="67,163 62,163 62,48 67,48 "/>
  <polygon class="fil1" points="41,163 36,163 36,48 41,48 "/>
  <polygon class="fil1" points="94,163 89,163 89,48 94,48 "/>
  <polygon class="fil1" points="120,163 115,163 115,48 120,48 "/>
  <polygon class="fil1" points="146,163 141,163 141,48 146,48 "/>
  <polygon class="fil1" points="173,163 168,163 168,48 173,48 "/>
  <polygon class="fil1" points="225,163 220,163 220,48 225,48 "/>
  <polygon class="fil1" points="199,163 194,163 194,48 199,48 "/>
  <polygon class="fil1" points="252,163 247,163 247,48 252,48 "/>
  <polygon class="fil1" points="278,163 273,163 273,48 278,48 "/>
  <polygon class="fil1" points="304,163 299,163 299,48 304,48 "/>
  <polygon class="fil1" points="357,163 352,163 352,48 357,48 "/>
  <polygon class="fil1" points="331,163 326,163 326,48 331,48 "/>
  <polygon class="fil1" points="383,163 378,163 378,48 383,48 "/>
  <polygon class="fil1" points="410,163 405,163 405,48 410,48 "/>
  <polygon class="fil1" points="462,163 457,163 457,48 462,48 "/>
  <polygon class="fil1" points="436,163 431,163 431,48 436,48 "/>
  <polygon class="fil1" points="489,163 484,163 484,48 489,48 "/>
  <polygon class="fil1" points="515,163 510,163 510,48 515,48 "/>
  <polygon class="fil1" points="541,163 536,163 536,48 541,48 "/>
  <polygon class="fil1" points="568,163 563,163 563,48 568,48 "/>
  <polygon class="fil1" points="594,163 589,163 589,48 594,48 "/>
  <polygon class="fil1" points="620,163 615,163 615,48 620,48 "/>
  <path class="fil4" d="M553 263c0,-9 7,-16 16,-16 9,0 16,7 16,16 0,9 -7,16 -16,16 -9,0 -16,-7 -16,-16z"/>
  <path class="fil2" d="M312 294l-165 0c-21,0 -38,-18 -38,-39l0 -11c0,-21 17,-39 38,-39l165 0c21,0 39,18 39,39l0 11c0,21 -18,39 -39,39z"/>
  <path class="fil0" d="M307 290l-155 0c-21,0 -39,-17 -39,-38l0 -5c0,-21 18,-38 39,-38l155 0c22,0 39,17 39,38l0 5c0,21 -17,38 -39,38z"/>
  <polygon class="fil2" points="135,290 131,290 131,262 135,262 "/>
  <polygon class="fil2" points="159,290 155,290 155,262 159,262 "/>
  <polygon class="fil2" points="183,290 179,290 179,262 183,262 "/>
  <polygon class="fil2" points="207,290 204,290 204,262 207,262 "/>
  <polygon class="fil2" points="232,290 228,290 228,262 232,262 "/>
  <polygon class="fil2" points="256,290 252,290 252,262 256,262 "/>
  <polygon class="fil2" points="280,290 276,290 276,262 280,262 "/>
  <polygon class="fil2" points="304,290 300,290 300,262 304,262 "/>
  <polygon class="fil2" points="328,290 324,290 324,262 328,262 "/>
  <polygon class="fil2" points="146,225 142,225 142,209 146,209 "/>
  <polygon class="fil2" points="189,236 185,236 185,209 189,209 "/>
  <polygon class="fil2" points="232,225 228,225 228,209 232,209 "/>
  <polygon class="fil2" points="274,236 270,236 270,209 274,209 "/>
  <polygon class="fil2" points="317,225 313,225 313,209 317,209 "/>
 </g>
</svg>
