<?xml version="1.0" encoding="UTF-8"?>
<!DOCTYPE svg PUBLIC "-//W3C//DTD SVG 1.1//EN" "http://www.w3.org/Graphics/SVG/1.1/DTD/svg11.dtd">
<!-- Creator: CorelDRAW X7 -->
<svg xmlns="http://www.w3.org/2000/svg" xml:space="preserve" width="0.702461in" height="0.461413in" version="1.1" style="shape-rendering:geometricPrecision; text-rendering:geometricPrecision; image-rendering:optimizeQuality; fill-rule:evenodd; clip-rule:evenodd"
viewBox="0 0 79 52"
 xmlns:xlink="http://www.w3.org/1999/xlink">
 <defs>
  <style type="text/css">
   <![CDATA[
    .fil0 {fill:#7B7D7F}
   ]]>
  </style>
 </defs>
 <g id="Layer_x0020_1">
  <metadata id="CorelCorpID_0Corel-Layer"/>
  <path class="fil0" d="M39 12l-10 0c0,-2 -2,-5 -4,-5l-10 0c-3,0 -5,3 -5,5 -6,0 -10,5 -10,10l0 20c0,5 4,10 10,10l59 0c5,0 10,-5 10,-10l0 -20c0,-5 -4,-9 -9,-10l-1 0 0 -7c0,-3 -3,-5 -5,-5l-18 0c-3,0 -5,2 -5,5l0 7 -2 0zm25 0l-19 0 0 -6c0,-1 1,-2 2,-2l15 0c1,0 2,1 2,2l0 6zm-7 8c-7,0 -13,5 -13,12 0,7 6,12 13,12 6,0 12,-5 12,-12 0,-7 -6,-12 -12,-12l0 0zm-35 -3l-5 0c-1,0 -2,-1 -2,-2 0,-2 1,-3 2,-3l5 0c1,0 3,1 3,3 0,1 -2,2 -3,2l0 0zm35 32c-10,0 -18,-8 -18,-17 0,-9 8,-17 18,-17 9,0 17,8 17,17 0,9 -8,17 -17,17l0 0zm-47 -27l0 0c0,0 1,0 1,0l0 0c0,0 0,1 0,1l0 20c0,0 0,0 0,1l0 0c0,0 -1,0 -1,0l0 0c0,0 -1,0 -1,0l0 0c0,-1 0,-1 0,-1l0 -20 0 -1c0,0 1,0 1,0l0 0z"/>
 </g>
</svg>
