<?xml version="1.0" encoding="UTF-8"?>
<!DOCTYPE svg PUBLIC "-//W3C//DTD SVG 1.1//EN" "http://www.w3.org/Graphics/SVG/1.1/DTD/svg11.dtd">
<!-- Creator: CorelDRAW X7 -->
<svg xmlns="http://www.w3.org/2000/svg" xml:space="preserve" width="1.36844in" height="1.53055in" version="1.1" style="shape-rendering:geometricPrecision; text-rendering:geometricPrecision; image-rendering:optimizeQuality; fill-rule:evenodd; clip-rule:evenodd"
viewBox="0 0 216 241"
 xmlns:xlink="http://www.w3.org/1999/xlink">
 <defs>
  <style type="text/css">
   <![CDATA[
    .fil0 {fill:black;fill-rule:nonzero}
   ]]>
  </style>
 </defs>
 <g id="Objects">
  <metadata id="CorelCorpID_0Corel-Layer"/>
  <path class="fil0" d="M194 0l-172 0c-12,0 -22,27 -22,61 0,33 10,60 22,60l24 0 5 84 31 0 0 36 52 0 0 -36 31 0 4 -84 25 0c12,0 22,-27 22,-60 0,-34 -10,-61 -22,-61zm-14 102l0 0 -145 0 0 -83 145 0 0 83z"/>
  <path class="fil0" d="M175 23l-134 0 0 75 134 0 0 -75zm-7 68l0 0 -120 0 0 -61 120 0 0 61z"/>
 </g>
</svg>
