<?xml version="1.0" encoding="UTF-8"?>
<!DOCTYPE svg PUBLIC "-//W3C//DTD SVG 1.1//EN" "http://www.w3.org/Graphics/SVG/1.1/DTD/svg11.dtd">
<!-- Creator: CorelDRAW X7 -->
<svg xmlns="http://www.w3.org/2000/svg" xml:space="preserve" width="1.91419in" height="1.44164in" version="1.1" style="shape-rendering:geometricPrecision; text-rendering:geometricPrecision; image-rendering:optimizeQuality; fill-rule:evenodd; clip-rule:evenodd"
viewBox="0 0 397 299"
 xmlns:xlink="http://www.w3.org/1999/xlink">
 <defs>
  <style type="text/css">
   <![CDATA[
    .fil0 {fill:black;fill-rule:nonzero}
   ]]>
  </style>
 </defs>
 <g id="Objects">
  <metadata id="CorelCorpID_0Corel-Layer"/>
  <path class="fil0" d="M364 33l-247 0 0 -8c0,-14 -12,-25 -25,-25l-33 0c-13,0 -24,11 -24,25l0 8 -1 0c-19,0 -34,15 -34,34l0 199c0,18 15,33 34,33l330 0c18,0 33,-15 33,-33l0 -199c0,-19 -15,-34 -33,-34zm-330 18l0 0 330 0c8,0 15,7 15,16l0 43 -108 0c-17,-22 -43,-36 -72,-36 -30,0 -56,14 -73,36l-108 0 0 -43c0,-9 7,-16 16,-16zm239 115l0 0c0,41 -34,74 -74,74 -41,0 -74,-33 -74,-74 0,-41 33,-74 74,-74 40,0 74,33 74,74zm91 115l0 0 -330 0c-9,0 -16,-7 -16,-15l0 -44 108 0c17,22 43,36 73,36 29,0 55,-14 72,-36l108 0 0 44c0,8 -7,15 -15,15z"/>
  <path class="fil0" d="M45 88c7,0 13,-6 13,-14 0,-7 -6,-13 -13,-13 -7,0 -13,6 -13,13 0,8 6,14 13,14z"/>
  <path class="fil0" d="M45 241c-7,0 -13,6 -13,14 0,7 6,13 13,13 7,0 13,-6 13,-13 0,-8 -6,-14 -13,-14z"/>
  <path class="fil0" d="M353 241c-8,0 -14,6 -14,14 0,7 6,13 14,13 7,0 13,-6 13,-13 0,-8 -6,-14 -13,-14z"/>
  <path class="fil0" d="M353 88c7,0 13,-6 13,-14 0,-7 -6,-13 -13,-13 -8,0 -14,6 -14,13 0,8 6,14 14,14z"/>
  <path class="fil0" d="M199 103c-35,0 -63,29 -63,63 0,35 28,63 63,63 34,0 62,-28 62,-63 0,-34 -28,-63 -62,-63zm0 119l0 0c-31,0 -56,-25 -56,-56 0,-31 25,-56 56,-56 30,0 55,25 55,56 0,31 -25,56 -55,56z"/>
 </g>
</svg>
