<?xml version="1.0" encoding="UTF-8"?>
<!DOCTYPE svg PUBLIC "-//W3C//DTD SVG 1.1//EN" "http://www.w3.org/Graphics/SVG/1.1/DTD/svg11.dtd">
<!-- Creator: CorelDRAW X7 -->
<svg xmlns="http://www.w3.org/2000/svg" xml:space="preserve" width="0.984232in" height="0.918917in" version="1.1" style="shape-rendering:geometricPrecision; text-rendering:geometricPrecision; image-rendering:optimizeQuality; fill-rule:evenodd; clip-rule:evenodd"
viewBox="0 0 140 131"
 xmlns:xlink="http://www.w3.org/1999/xlink">
 <defs>
  <style type="text/css">
   <![CDATA[
    .fil0 {fill:#2C2E31}
   ]]>
  </style>
 </defs>
 <g id="Layer_x0020_1">
  <metadata id="CorelCorpID_0Corel-Layer"/>
  <path class="fil0" d="M136 125c0,1 -1,1 -2,1l-101 0 0 -87 11 0 27 0 28 0 35 0c1,0 2,1 2,2l0 84zm-130 1c-1,0 -1,0 -1,-1l0 -84c0,-1 0,-2 1,-2l11 0 11 0 0 87 -22 0zm15 -92c0,-1 1,-2 2,-2l15 0c0,0 1,1 1,2l0 1 -6 0 -12 0 0 -1zm5 -7c0,-1 0,-1 1,-1l6 0c1,0 2,0 2,1l0 1 -9 0 0 -1zm47 4l23 0 0 4 -23 0 0 -4zm-7 -26l38 0 0 21 -5 0 -28 0 -5 0 0 -21zm68 30l-33 0 0 -4 5 0c1,0 2,-1 2,-2l0 -26c0,-1 -1,-3 -3,-3l-40 0c-2,0 -4,2 -4,3l0 26c0,1 1,2 3,2l5 0 0 4 -25 0 0 -1c0,-3 -2,-5 -4,-6l0 -1c0,-3 -3,-6 -7,-6l-6 0c-3,0 -6,3 -6,6l0 1c-3,1 -4,3 -4,6l0 1 -11 0c-3,0 -6,2 -6,6l0 84c0,3 3,6 6,6l27 0 101 0c4,0 6,-3 6,-6l0 -84c0,-4 -2,-6 -6,-6z"/>
  <path class="fil0" d="M85 113c-17,0 -30,-13 -30,-30 0,-17 13,-30 30,-30 16,0 30,13 30,30 0,17 -14,30 -30,30zm0 -65c-19,0 -35,16 -35,35 0,19 16,35 35,35 19,0 35,-16 35,-35 0,-19 -16,-35 -35,-35z"/>
  <path class="fil0" d="M85 103c-11,0 -21,-9 -21,-20 0,-11 10,-21 21,-21 11,0 20,10 20,21 0,11 -9,20 -20,20zm0 -45c-14,0 -25,11 -25,25 0,14 11,25 25,25 14,0 25,-11 25,-25 0,-14 -11,-25 -25,-25z"/>
  <path class="fil0" d="M85 68c-8,0 -15,7 -15,15 0,1 1,2 2,2 1,0 2,-1 2,-2 0,-6 5,-11 11,-11 1,0 2,-1 2,-2 0,-1 -1,-2 -2,-2z"/>
  <path class="fil0" d="M80 20c1,1 1,1 1,1 1,0 1,0 2,-1l7 -7c1,-1 1,-2 0,-2 -1,-1 -2,-1 -2,0l-8 7c0,1 0,2 0,2z"/>
  <path class="fil0" d="M89 19c1,0 1,0 2,0 0,0 0,0 1,0l2 -3c1,-1 1,-2 0,-2 0,-1 -1,-1 -2,0l-3 3c0,0 0,1 0,2z"/>
  <path class="fil0" d="M76 18c1,0 1,0 1,-1l3 -2c1,-1 1,-2 0,-3 0,0 -1,0 -2,0l-3 3c0,1 0,2 0,2 1,1 1,1 1,1z"/>
  <path class="fil0" d="M124 116c-2,0 -3,-2 -3,-3 0,-2 1,-3 3,-3 1,0 3,1 3,3 0,1 -2,3 -3,3zm0 -11c-4,0 -8,4 -8,8 0,4 4,7 8,7 4,0 7,-3 7,-7 0,-4 -3,-8 -7,-8z"/>
  <path class="fil0" d="M21 73l-10 0c-1,0 -2,1 -2,2 0,1 1,2 2,2l10 0c2,0 3,-1 3,-2 0,-1 -1,-2 -3,-2z"/>
  <path class="fil0" d="M21 81l-10 0c-1,0 -2,1 -2,2 0,1 1,2 2,2l10 0c2,0 3,-1 3,-2 0,-1 -1,-2 -3,-2z"/>
  <path class="fil0" d="M21 88l-10 0c-1,0 -2,2 -2,3 0,1 1,2 2,2l10 0c2,0 3,-1 3,-2 0,-1 -1,-3 -3,-3z"/>
 </g>
</svg>
