<?xml version="1.0" encoding="UTF-8"?>
<!DOCTYPE svg PUBLIC "-//W3C//DTD SVG 1.1//EN" "http://www.w3.org/Graphics/SVG/1.1/DTD/svg11.dtd">
<!-- Creator: CorelDRAW X7 -->
<svg xmlns="http://www.w3.org/2000/svg" xml:space="preserve" width="2.48839in" height="1.92551in" version="1.1" style="shape-rendering:geometricPrecision; text-rendering:geometricPrecision; image-rendering:optimizeQuality; fill-rule:evenodd; clip-rule:evenodd"
viewBox="0 0 736 569"
 xmlns:xlink="http://www.w3.org/1999/xlink">
 <defs>
  <style type="text/css">
   <![CDATA[
    .fil7 {fill:#FEFEFE}
    .fil4 {fill:#E8E9EC}
    .fil3 {fill:#7E858A}
    .fil6 {fill:#6A7173}
    .fil1 {fill:#575E5F}
    .fil2 {fill:#4F5556}
    .fil5 {fill:#4C5353}
    .fil0 {fill:#454C4C}
   ]]>
  </style>
 </defs>
 <g id="Layer_x0020_1">
  <metadata id="CorelCorpID_0Corel-Layer"/>
  <path class="fil0" d="M655 108l-68 0c-3,0 -5,-2 -5,-5l0 -19c0,-3 2,-5 5,-5l68 0c2,0 5,2 5,5l0 19c0,3 -3,5 -5,5z"/>
  <path class="fil1" d="M645 106l-52 0c-11,-4 -30,-11 -42,-23 -13,-12 -23,-26 -34,-41 -13,-17 -33,-28 -53,-34 -21,-7 -43,-8 -64,-8l0 0 0 0 -1 0 0 0c-21,0 -43,1 -64,8 -20,6 -40,17 -53,34 -11,15 -21,29 -34,41 -12,12 -31,19 -42,23l-116 0c-49,0 -90,40 -90,90l0 262c0,49 41,90 90,90l555 0c50,0 91,-41 91,-90l0 -262c0,-50 -41,-90 -91,-90z"/>
  <path class="fil2" d="M282 42c-3,4 -6,8 -8,11 6,20 24,34 46,34l158 0c22,0 40,-15 46,-35 -2,-3 -4,-6 -7,-10 -13,-17 -33,-28 -53,-34 -21,-7 -43,-8 -64,-8l0 0 0 0 -1 0 0 0c-21,0 -43,1 -64,8 -20,6 -40,17 -53,34z"/>
  <path class="fil0" d="M519 44c-6,19 -24,33 -45,33l-151 0c-20,0 -37,-13 -44,-31 -2,2 -3,5 -5,7 6,20 24,34 46,34l158 0c22,0 40,-15 46,-35 -2,-3 -3,-5 -5,-8z"/>
  <path class="fil0" d="M124 106l-34 0c-49,0 -90,40 -90,90l0 262c0,49 41,90 90,90l34 0 0 -442z"/>
  <path class="fil2" d="M36 216l87 0c38,0 70,-32 70,-70 0,-15 -5,-29 -13,-40l-90 0c-49,0 -90,40 -90,90l0 9c11,7 23,11 36,11z"/>
  <path class="fil2" d="M103 525l-4 0c-1,0 -3,-1 -3,-3l0 -289c0,-2 2,-3 3,-3l4 0c2,0 3,1 3,3l0 289c0,2 -1,3 -3,3z"/>
  <path class="fil3" d="M637 466l-60 0c-10,0 -19,-9 -19,-19l0 -1c0,-11 9,-19 19,-19l60 0c10,0 18,8 18,19l0 1c0,10 -8,19 -18,19z"/>
  <path class="fil4" d="M630 463l-46 0c-9,0 -16,-7 -16,-16l0 -1c0,-9 7,-16 16,-16l46 0c9,0 16,7 16,16l0 1c0,9 -7,16 -16,16z"/>
  <path class="fil0" d="M140 160c0,20 -16,37 -37,37 -20,0 -37,-17 -37,-37 0,-21 17,-37 37,-37 21,0 37,16 37,37z"/>
  <path class="fil1" d="M134 160c0,16 -14,30 -31,30 -16,0 -30,-14 -30,-30 0,-17 14,-31 30,-31 17,0 31,14 31,31z"/>
  <path class="fil2" d="M640 421l-48 0c-15,0 -28,-13 -28,-28l0 -154c0,-15 13,-27 28,-27l48 0c16,0 28,12 28,27l0 154c0,15 -12,28 -28,28z"/>
  <path class="fil5" d="M630 340c0,127 -103,229 -229,229 -127,0 -230,-102 -230,-229 0,-127 103,-230 230,-230 126,0 229,103 229,230z"/>
  <path class="fil6" d="M602 340c0,111 -90,201 -201,201 -112,0 -202,-90 -202,-201 0,-111 90,-202 202,-202 111,0 201,91 201,202z"/>
  <path class="fil4" d="M563 340c0,90 -72,163 -162,163 -90,0 -163,-73 -163,-163 0,-90 73,-163 163,-163 90,0 162,73 162,163z"/>
  <path class="fil7" d="M286 381c0,-86 70,-156 156,-156 33,0 63,10 88,27 -28,-42 -76,-69 -130,-69 -86,0 -156,70 -156,156 0,54 27,102 69,130 -17,-25 -27,-55 -27,-88z"/>
  <path class="fil4" d="M657 170c0,8 -6,15 -15,15 -8,0 -14,-7 -14,-15 0,-8 6,-14 14,-14 9,0 15,6 15,14z"/>
 </g>
</svg>
