<?xml version="1.0" encoding="UTF-8"?>
<!DOCTYPE svg PUBLIC "-//W3C//DTD SVG 1.1//EN" "http://www.w3.org/Graphics/SVG/1.1/DTD/svg11.dtd">
<!-- Creator: CorelDRAW X7 -->
<svg xmlns="http://www.w3.org/2000/svg" xml:space="preserve" width="0.708181in" height="0.90735in" version="1.1" style="shape-rendering:geometricPrecision; text-rendering:geometricPrecision; image-rendering:optimizeQuality; fill-rule:evenodd; clip-rule:evenodd"
viewBox="0 0 76 97"
 xmlns:xlink="http://www.w3.org/1999/xlink">
 <defs>
  <style type="text/css">
   <![CDATA[
    .fil0 {fill:#2C2E31}
   ]]>
  </style>
 </defs>
 <g id="Layer_x0020_1">
  <metadata id="CorelCorpID_0Corel-Layer"/>
  <path class="fil0" d="M38 30c6,0 11,5 11,11 0,6 -5,11 -11,11 -6,0 -11,-5 -11,-11 0,-6 5,-11 11,-11zm0 25c8,0 14,-6 14,-14 0,-8 -6,-14 -14,-14 -8,0 -15,6 -15,14 0,8 7,14 15,14z"/>
  <path class="fil0" d="M32 41c0,-3 3,-5 6,-5 1,0 2,-1 2,-2 0,-1 -1,-2 -2,-2 -5,0 -9,4 -9,9 0,1 1,2 2,2 1,0 1,-1 1,-2z"/>
  <path class="fil0" d="M67 87l-58 0c-1,0 -2,0 -2,1 0,1 1,2 2,2l58 0c1,0 1,-1 1,-2 0,-1 0,-1 -1,-1z"/>
  <path class="fil0" d="M72 93c0,0 0,0 0,0l-68 0c0,0 -1,0 -1,0l0 -9c0,-1 1,-1 1,-1l68 0c0,0 0,0 0,1l0 9zm-47 -36c0,1 1,1 2,2l0 14 -20 0c-1,0 -1,-1 -1,-2l0 -14 19 0zm-19 -47c0,-1 0,-1 1,-1l22 0 18 0 21 0c1,0 2,0 2,1l0 14 -19 0c-4,-2 -8,-4 -13,-4 -5,0 -10,2 -13,4l-19 0 0 -14zm26 -6c0,0 1,-1 1,-1l10 0c0,0 1,1 1,1l0 1 -12 0 0 -1zm38 67c0,1 -1,2 -2,2l-19 0 0 -14c1,-1 1,-1 2,-2l19 0 0 14zm-40 -10c0,0 1,0 1,0 0,0 0,0 1,0 0,0 0,0 0,0 1,0 1,0 1,0l0 12 -3 0 0 -12zm6 1c0,0 0,0 1,0 0,0 0,0 1,0 0,0 1,0 1,0 0,0 0,0 0,0l0 11 -3 0 0 -11zm10 -1l0 12 -3 0 0 -12c0,0 0,0 0,0 0,0 1,0 1,0 0,0 1,0 1,0 0,0 0,0 1,0zm8 -33l16 0 0 26 -16 0c1,-1 2,-2 2,-3 0,0 0,0 0,0 1,-1 1,-1 1,-2 0,0 0,0 0,0 1,-1 1,-1 1,-2 0,0 0,0 0,0 0,-1 0,-1 0,-1 0,-1 0,-1 1,-1 0,-1 0,-1 0,-1 0,-1 0,-1 0,-1 0,-1 0,-1 0,-2 0,-1 0,-1 0,-2 0,0 0,-1 0,-1 0,0 0,-1 0,-1 -1,0 -1,-1 -1,-1 0,0 0,-1 0,-1 0,0 0,0 0,-1 0,0 0,-1 -1,-1 0,0 0,0 0,0 0,-1 0,-2 -1,-2 0,0 0,0 0,0 0,-1 -1,-2 -2,-3zm-33 26l-15 0 0 -26 15 0c0,1 -1,2 -2,3 0,0 0,0 0,0 0,0 0,1 -1,2 0,0 0,0 0,0 0,0 0,1 0,1 0,1 0,1 0,1 -1,0 -1,1 -1,1 0,0 0,1 0,1 0,0 0,1 0,1 0,0 0,1 0,1 0,1 0,1 0,2 0,1 0,1 0,2 0,0 0,0 0,1 0,0 0,0 0,1 0,0 0,0 0,1 0,0 0,0 1,1 0,0 0,0 0,0 0,1 0,1 0,2 0,0 0,0 0,0 1,1 1,1 1,2 0,0 0,0 0,0 1,1 2,2 2,3zm5 0c0,0 -1,-1 -1,-1 0,0 0,0 0,0 -1,-1 -1,-1 -1,-1 0,0 0,-1 -1,-1 0,0 0,0 0,-1 0,0 0,0 -1,0 0,-1 0,-1 0,-1 0,0 0,-1 0,-1 0,0 -1,-1 -1,-1 0,0 0,0 0,-1 0,0 0,0 0,-1 0,0 0,0 0,0 -1,-1 -1,-1 -1,-2 0,0 0,0 0,0 0,-1 0,-1 0,-2 0,-1 0,-1 0,-2 0,0 0,0 0,-1 0,0 0,0 1,-1 0,0 0,0 0,0 0,-1 0,-1 0,-2 0,0 0,0 0,0 0,-1 1,-1 1,-1 0,-1 0,-1 0,-1 0,0 0,-1 0,-1 1,0 1,0 1,-1 0,0 0,0 0,0 1,-1 1,-1 1,-1 0,0 0,-1 1,-1 0,0 0,0 0,0 0,-1 1,-1 1,-1 3,-3 7,-5 12,-5 4,0 9,2 12,5 0,0 0,0 0,1 1,0 1,0 1,0 0,0 0,1 1,1 0,0 0,0 0,1 0,0 1,0 1,0 0,1 0,1 0,1 0,0 0,1 1,1 0,0 0,0 0,1 0,0 0,0 0,1 0,0 1,0 1,0 0,1 0,1 0,2 0,0 0,0 0,0 0,1 0,1 0,1 0,1 0,1 0,1 0,1 0,1 0,2 0,1 0,1 0,2 0,0 0,0 0,0 0,1 0,1 0,2 0,0 0,0 0,0 0,1 0,1 0,1 0,1 -1,1 -1,1 0,0 0,1 0,1 0,0 0,1 0,1 -1,0 -1,0 -1,1 0,0 0,0 0,0 0,1 -1,1 -1,1 0,0 0,1 0,1 -1,0 -1,0 -1,1 0,0 0,0 -1,0 0,0 0,1 0,1 -1,1 -2,2 -4,2 0,1 -1,1 -2,1 0,0 0,0 0,0 -4,2 -9,2 -13,0 0,0 0,0 0,0 0,0 -1,0 -2,-1 -1,0 -2,-1 -3,-2zm-20 23l1 0 20 0 6 0 10 0 6 0 19 0 2 0 1 3 -67 0 2 -3zm70 4l-3 -7c0,0 0,0 0,0 0,-1 1,-1 1,-3l0 -14 0 -33 0 -14c0,-3 -3,-5 -6,-5l-21 0 0 -1c0,-2 -2,-4 -4,-4l-10 0c-2,0 -4,2 -4,4l0 1 -22 0c-3,0 -5,2 -5,5l0 14 0 33 0 14c0,2 0,2 1,3 0,0 0,0 0,0l-3 7c0,0 0,0 0,1l0 2 0 9c0,2 2,4 4,4l68 0c2,0 4,-2 4,-4l0 -9 0 -2c0,-1 0,-1 0,-1z"/>
  <path class="fil0" d="M58 14l5 0 0 5 -5 0 0 -5zm-2 9l9 0c1,0 2,-1 2,-2l0 -9c0,-1 -1,-1 -2,-1l-9 0c0,0 -1,0 -1,1l0 9c0,1 1,2 1,2z"/>
 </g>
</svg>
