<?xml version="1.0" encoding="UTF-8"?>
<!DOCTYPE svg PUBLIC "-//W3C//DTD SVG 1.1//EN" "http://www.w3.org/Graphics/SVG/1.1/DTD/svg11.dtd">
<!-- Creator: CorelDRAW X7 -->
<svg xmlns="http://www.w3.org/2000/svg" xml:space="preserve" width="3.86029in" height="3.18183in" version="1.1" style="shape-rendering:geometricPrecision; text-rendering:geometricPrecision; image-rendering:optimizeQuality; fill-rule:evenodd; clip-rule:evenodd"
viewBox="0 0 734 605"
 xmlns:xlink="http://www.w3.org/1999/xlink">
 <defs>
  <style type="text/css">
   <![CDATA[
    .fil1 {fill:#5E9FD6}
    .fil0 {fill:#32373E}
   ]]>
  </style>
 </defs>
 <g id="Layer_x0020_1">
  <metadata id="CorelCorpID_0Corel-Layer"/>
  <path class="fil0" d="M714 510l-694 0c-11,0 -20,-8 -20,-19l0 -471c0,-11 9,-20 20,-20l694 0c11,0 20,9 20,20l0 471c0,11 -9,19 -20,19z"/>
  <path class="fil1" d="M682 429l-630 0c-5,0 -8,-3 -8,-8l0 -373c0,-5 3,-8 8,-8l630 0c4,0 8,3 8,8l0 373c0,5 -4,8 -8,8z"/>
  <polygon class="fil0" points="422,589 312,589 312,485 422,485 "/>
  <path class="fil0" d="M482 605l-230 0 0 -14c0,-21 17,-39 38,-39l153 0c22,0 39,18 39,39l0 14z"/>
  <path class="fil1" d="M376 478l-19 0c-2,0 -4,-1 -4,-4l0 -19c0,-2 2,-4 4,-4l19 0c3,0 5,2 5,4l0 19c0,3 -2,4 -5,4z"/>
  <path class="fil0" d="M574 164l-145 102 -134 -102 -209 141c-8,5 -12,14 -12,23l0 72 586 0 0 -167c0,-9 -5,-18 -13,-23l-73 -46z"/>
  <path class="fil0" d="M185 141c0,24 -19,42 -42,42 -23,0 -42,-18 -42,-42 0,-23 19,-41 42,-41 23,0 42,18 42,41z"/>
 </g>
</svg>
