<?xml version="1.0" encoding="UTF-8"?>
<!DOCTYPE svg PUBLIC "-//W3C//DTD SVG 1.1//EN" "http://www.w3.org/Graphics/SVG/1.1/DTD/svg11.dtd">
<!-- Creator: CorelDRAW X7 -->
<svg xmlns="http://www.w3.org/2000/svg" xml:space="preserve" width="0.666787in" height="0.918075in" version="1.1" style="shape-rendering:geometricPrecision; text-rendering:geometricPrecision; image-rendering:optimizeQuality; fill-rule:evenodd; clip-rule:evenodd"
viewBox="0 0 209 288"
 xmlns:xlink="http://www.w3.org/1999/xlink">
 <defs>
  <style type="text/css">
   <![CDATA[
    .fil0 {fill:#2B4446;fill-rule:nonzero}
   ]]>
  </style>
 </defs>
 <g id="__x0023_Layer_x0020_1">
  <metadata id="CorelCorpID_0Corel-Layer"/>
  <path class="fil0" d="M187 29l-15 0c-3,0 -5,-2 -6,-4l-6 -14c-4,-7 -10,-11 -18,-11l-33 0c-8,0 -14,4 -18,11l-6 14c-1,2 -3,4 -6,4l-16 0c-1,0 -2,-1 -3,-1l-3 -6c-2,-2 -4,-3 -6,-3l-12 0c-2,0 -4,1 -6,3l-3 6c-1,0 -2,1 -3,1l-4 0c-13,0 -23,10 -23,22l0 113c0,12 10,23 23,23l164 0c12,0 22,-11 22,-23l0 -113c0,-12 -10,-22 -22,-22zm-121 39l0 0c-4,0 -8,-4 -8,-8 0,-5 4,-9 8,-9 4,0 8,4 8,9 0,4 -4,8 -8,8zm58 90l0 0c-28,0 -50,-23 -50,-50 0,-28 22,-50 50,-50 27,0 50,22 50,50 0,27 -23,50 -50,50zm-40 -47l0 0c-2,0 -4,-1 -4,-3 0,-24 20,-44 44,-44 2,0 3,2 3,4 0,1 -1,3 -3,3 -21,0 -37,16 -37,37 0,2 -2,3 -3,3zm92 175l0 0c-2,1 -4,2 -6,2 -2,0 -4,-1 -5,-3l-52 -56 0 41c0,5 -4,8 -8,8 -5,0 -9,-3 -9,-8l0 -41 -51 56c-2,2 -4,3 -6,3 -2,0 -4,-1 -6,-2 -3,-3 -3,-8 0,-12l60 -65 -14 0c-1,0 -2,-1 -3,-1l-6 -10c-1,-2 1,-5 3,-5l63 0c2,0 4,3 3,5l-6 10c-1,0 -2,1 -3,1l-13 0 59 65c3,4 3,9 0,12z"/>
 </g>
</svg>
