<?xml version="1.0" encoding="UTF-8"?>
<!DOCTYPE svg PUBLIC "-//W3C//DTD SVG 1.1//EN" "http://www.w3.org/Graphics/SVG/1.1/DTD/svg11.dtd">
<!-- Creator: CorelDRAW X7 -->
<svg xmlns="http://www.w3.org/2000/svg" xml:space="preserve" width="2.41563in" height="1.65731in" version="1.1" style="shape-rendering:geometricPrecision; text-rendering:geometricPrecision; image-rendering:optimizeQuality; fill-rule:evenodd; clip-rule:evenodd"
viewBox="0 0 1509 1035"
 xmlns:xlink="http://www.w3.org/1999/xlink">
 <defs>
  <style type="text/css">
   <![CDATA[
    .fil0 {fill:black;fill-rule:nonzero}
   ]]>
  </style>
 </defs>
 <g id="Capa_x0020_1">
  <metadata id="CorelCorpID_0Corel-Layer"/>
  <path class="fil0" d="M1507 493c-4,-46 -18,-95 -44,-138 -25,-44 -64,-80 -107,-104 -9,-5 -19,-10 -29,-14 4,-2 10,-4 16,-9 7,-6 16,-16 18,-32 2,-9 2,-20 -2,-30 -2,-5 -5,-10 -8,-14 -1,-2 -2,-4 -5,-6 -2,-2 -4,-4 -6,-6 -9,-7 -19,-11 -28,-14 -9,-3 -17,-4 -25,-5 -16,-2 -29,-2 -38,-2 -9,1 -14,1 -14,1l-26 4c-8,1 -17,2 -25,4 -2,0 -4,1 -5,1 -16,3 -31,7 -47,13 -9,3 -17,7 -26,13 -5,3 -10,7 -14,14 -5,5 -9,14 -9,24 -12,-1 -23,-1 -34,-2 -16,0 -31,0 -47,0 -4,0 -8,0 -12,0 4,-15 8,-31 10,-49 0,-3 0,-6 0,-9 0,-3 0,-7 0,-11 0,-4 -1,-7 -2,-11l-2 -11c-4,-14 -10,-28 -20,-38 -5,-6 -12,-12 -19,-16 -3,-3 -6,-5 -10,-7 -4,-2 -8,-4 -10,-5 -11,-5 -21,-8 -31,-11 -19,-6 -37,-10 -55,-13 -36,-6 -71,-8 -106,-9 -70,-3 -139,1 -208,11 -35,5 -69,12 -104,21 -34,9 -69,20 -103,37 -17,8 -35,18 -52,31 -16,13 -33,28 -47,49 -13,20 -23,46 -24,73 -2,26 4,51 12,72l2 5c-2,1 -4,2 -7,4 -12,6 -27,13 -42,20 -16,7 -32,15 -48,24 -17,10 -34,21 -51,36 -16,15 -32,34 -42,58l-4 9c0,1 -1,3 -1,4l-1 3 -4 14 -4 14c-2,4 -3,9 -4,13l-5 28c-2,9 -2,18 -4,27 -8,73 -3,143 5,212 1,9 2,16 4,25l2 17c1,9 2,18 4,27 3,18 7,38 13,58 0,0 2,5 6,15 1,2 2,5 3,8 2,2 3,6 5,9 2,3 4,7 6,10 2,4 5,8 7,12 11,15 27,33 47,46 20,14 43,23 65,29 40,9 79,11 107,13 27,1 44,0 41,0 44,-2 81,-5 103,-9 4,-2 9,-2 13,-3 3,-1 6,-2 7,-4 1,-2 0,-5 -2,-8 -3,-3 -7,-7 -15,-10 -18,-8 -50,-16 -97,-26 -29,-6 -59,-13 -88,-21 -7,-3 -14,-5 -21,-7 -6,-2 -13,-5 -19,-7 -6,-3 -11,-5 -16,-8 -5,-3 -9,-5 -13,-8 -15,-12 -22,-24 -26,-35 -1,-1 -2,-2 -2,-3 0,-2 -1,-3 -1,-4 -1,-2 -2,-4 -2,-6 -1,-3 -2,-5 -2,-5 -4,-12 -8,-26 -11,-42 -1,-7 -2,-15 -4,-24l-4 -30c-2,-17 -4,-33 -6,-49 -1,-16 -3,-32 -4,-48l-1 -23 0 -24c-1,-16 1,-31 1,-46 1,-8 2,-16 3,-23l1 -11c1,-4 1,-8 2,-11l4 -22 6 -21 2 -5 1 -3 0 -1c1,-2 2,-4 3,-6 1,-3 4,-7 7,-11 6,-7 16,-14 27,-22 23,-15 52,-27 84,-42 9,-4 17,-9 26,-14 9,-5 19,-12 30,-22l5 -4 4 -5 4 -5c1,-2 3,-4 4,-6 2,-2 3,-5 4,-7 2,-2 3,-5 4,-8 1,-2 2,-5 3,-8 0,-3 1,-6 1,-9 2,-6 2,-12 1,-18 0,-7 -1,-12 -2,-17 -1,-2 -2,-5 -3,-7l-2 -6c-2,-4 -4,-9 -6,-12l-1 -2 -1 0 0 0 0 -2 -2 -4 -1 -3c-2,-5 -2,-9 -3,-13 0,-8 1,-14 4,-21 4,-7 10,-15 19,-22 9,-8 20,-15 33,-22 24,-13 53,-23 83,-31 30,-8 61,-15 93,-19 97,-13 322,-29 346,12 10,23 -49,89 -32,144 5,10 18,30 60,26l39 -3c15,0 29,0 43,0 15,0 29,0 43,0l44 2c9,1 19,1 29,2l30 3 30 3c9,1 18,2 27,3 36,6 69,17 98,33 29,17 52,38 68,65 16,27 25,59 29,94 3,34 1,71 -6,108 -3,18 -7,37 -12,54 -5,18 -11,35 -17,52 -28,66 -75,121 -136,160 -21,13 -44,25 -68,35 0,0 -4,2 -11,5 -6,4 -16,8 -28,13 -24,10 -57,21 -92,31 -68,18 -139,27 -132,28 -5,0 -9,1 -13,2 31,-16 59,-36 83,-57 11,-11 22,-21 31,-32 4,-5 8,-10 12,-15 3,-4 6,-9 9,-13 6,-9 10,-15 13,-20 3,-5 4,-8 4,-8 4,-9 9,-19 12,-28l10 -30c2,-10 4,-20 6,-30 1,-5 2,-10 2,-15l3 -19 1 -12 0 -12 0 -24c0,-8 -1,-17 -1,-25l-1 -12c-1,-4 -1,-8 -2,-12l-4 -24 -6 -23 -3 -12 -4 -12c-3,-7 -5,-15 -8,-23 -7,-14 -13,-30 -22,-44 -4,-7 -8,-14 -13,-21l-15 -20c-21,-26 -44,-50 -73,-69l-10 -7 -11 -6c-8,-4 -15,-8 -23,-12 -16,-6 -31,-14 -48,-17 -8,-2 -16,-5 -25,-6l-25 -4c-4,0 -8,-1 -12,-1l-12 -1c-7,0 -15,0 -23,0 -61,-1 -122,7 -182,25 -30,9 -60,20 -88,36 -28,16 -56,35 -80,59 -24,24 -45,53 -59,85 -14,32 -22,66 -24,100l-1 13 0 6 0 5 0 22c0,14 1,30 2,45 2,31 7,64 18,96 11,35 31,70 60,98 29,27 65,45 100,55 3,1 10,-1 11,-1 19,-7 30,-17 36,-27 6,-9 8,-19 7,-28 -4,-35 -94,-59 -112,-131 -7,-21 -11,-44 -12,-68 -1,-12 -2,-25 -2,-38l0 -20c0,-3 0,-8 0,-10l1 -8c1,-44 18,-83 48,-115 30,-31 73,-54 119,-69 46,-15 97,-22 147,-23 54,3 94,2 122,40 27,39 42,89 45,138 0,12 0,24 -1,36 0,6 -1,12 -2,18 -1,7 -2,13 -3,19 -5,24 -12,48 -23,68 -11,21 -25,37 -44,49 -18,12 -41,19 -65,22l-18 2 -19 1 -19 1c-3,0 -6,-1 -8,-1 -3,0 -6,0 -9,-1 -12,-1 -17,-3 -24,-5 -7,-2 -13,-5 -19,-9 0,0 -1,-1 -4,-2 -3,-2 -7,-4 -12,-8 -9,-6 -19,-17 -27,-31 -8,-13 -11,-28 -12,-38 -1,-11 0,-18 0,-17 2,-25 17,-42 18,-49 1,-4 -3,-5 -12,-1 -4,2 -10,6 -17,12 -6,7 -13,16 -18,30 -6,15 -8,34 -6,53 3,18 9,35 18,50 8,14 18,25 25,32 8,7 13,11 13,11 9,6 18,11 28,15 4,2 9,3 14,5l8 2c1,0 3,1 4,1l5 1c16,3 33,4 47,3 7,0 14,0 21,0 7,-1 15,-2 22,-2 29,-4 60,-12 88,-27 28,-16 51,-41 67,-68 15,-27 24,-56 30,-84 6,-28 9,-59 7,-88 0,-20 -3,-39 -7,-58 1,3 3,6 4,10 11,20 17,43 22,65 2,12 4,23 5,35 0,6 1,12 1,18l0 17c0,6 -1,12 -2,18l-1 13c-1,8 -3,14 -4,22 -1,3 -1,7 -2,10l-4 10c-2,7 -3,14 -7,20 0,0 -1,4 -3,10 -2,7 -7,15 -12,26 -10,20 -28,47 -52,69 -6,6 -11,11 -18,16 -6,5 -12,10 -18,15 -7,4 -13,8 -18,12 -6,4 -12,7 -17,10 -11,7 -20,11 -26,14 -5,3 -8,4 -7,4 -6,3 -12,6 -18,9 -3,1 -6,3 -9,4 -3,1 -6,2 -9,3 -6,3 -12,5 -17,7 -6,2 -11,4 -15,6 -10,4 -18,7 -25,10 -7,3 -11,6 -14,9 -4,6 0,11 20,15 60,2 414,18 601,-62 77,-48 142,-123 177,-208 9,-21 16,-43 22,-65 6,-22 11,-43 15,-65 7,-44 11,-90 6,-137zm-1275 -201l0 0c0,0 0,0 0,0 0,0 0,0 0,0zm-3 22l0 0c0,0 0,0 0,0 0,0 0,0 0,0 0,0 0,0 0,0zm1061 -91l0 0c-22,-8 -45,-13 -67,-17 -11,-2 -22,-3 -34,-5l-31 -3 -17 -1c3,-2 6,-3 10,-5 12,-4 25,-7 39,-10l4 -1c7,-1 14,-3 20,-4l21 -3c0,0 9,-2 22,-4 12,-2 30,-4 44,-2 7,1 14,2 17,4 1,1 2,1 3,2 1,1 2,2 3,2 1,2 3,4 4,5 4,7 3,12 4,11 1,9 -3,20 -8,27 -4,5 -8,9 -10,12 -8,-3 -16,-6 -24,-8z"/>
  <path class="fil0" d="M554 252c19,-5 44,-10 68,-13 25,-3 67,-1 68,-1 8,1 14,2 18,3 16,4 24,-18 26,-27 8,-25 -17,-26 -39,-30 -22,-3 -51,-2 -78,1 -27,4 -53,9 -72,13 -19,5 -46,14 -61,19 -14,6 -28,12 -26,12 -23,11 -37,26 5,29 26,3 72,-2 91,-6z"/>
 </g>
</svg>
