<?xml version="1.0" encoding="UTF-8"?>
<!DOCTYPE svg PUBLIC "-//W3C//DTD SVG 1.1//EN" "http://www.w3.org/Graphics/SVG/1.1/DTD/svg11.dtd">
<!-- Creator: CorelDRAW X7 -->
<svg xmlns="http://www.w3.org/2000/svg" xml:space="preserve" width="1.7066in" height="2.10092in" version="1.1" style="shape-rendering:geometricPrecision; text-rendering:geometricPrecision; image-rendering:optimizeQuality; fill-rule:evenodd; clip-rule:evenodd"
viewBox="0 0 175 216"
 xmlns:xlink="http://www.w3.org/1999/xlink">
 <defs>
  <style type="text/css">
   <![CDATA[
    .fil3 {fill:#FEFEFE}
    .fil2 {fill:#D0D4D8}
    .fil4 {fill:#CED1D7}
    .fil1 {fill:#76B6D4}
    .fil0 {fill:#5D6264}
   ]]>
  </style>
 </defs>
 <g id="Layer_x0020_1">
  <metadata id="CorelCorpID_0Corel-Layer"/>
  <path class="fil0" d="M165 216l-155 0c-5,0 -10,-5 -10,-11l0 -195c0,-5 5,-10 10,-10l155 0c6,0 10,5 10,10l0 195c0,6 -4,11 -10,11z"/>
  <polygon class="fil1" points="161,191 14,191 14,19 161,19 "/>
  <path class="fil2" d="M93 206c0,1 -1,2 -2,2l-7 0c-1,0 -1,-1 -1,-2l0 -7c0,-1 0,-1 1,-1l7 0c1,0 2,0 2,1l0 7z"/>
  <path class="fil3" d="M91 205c0,1 0,1 -1,1l-5 0c-1,0 -1,0 -1,-1l0 -5c0,0 0,-1 1,-1l5 0c1,0 1,1 1,1l0 5z"/>
  <path class="fil4" d="M102 12l-29 0c-1,0 -1,0 -1,-1l0 0c0,0 0,0 1,0l29 0c1,0 1,0 1,0l0 0c0,1 0,1 -1,1z"/>
 </g>
</svg>
