<?xml version="1.0" encoding="UTF-8"?>
<!DOCTYPE svg PUBLIC "-//W3C//DTD SVG 1.1//EN" "http://www.w3.org/Graphics/SVG/1.1/DTD/svg11.dtd">
<!-- Creator: CorelDRAW X7 -->
<svg xmlns="http://www.w3.org/2000/svg" xml:space="preserve" width="2.82381in" height="2.29008in" version="1.1" style="shape-rendering:geometricPrecision; text-rendering:geometricPrecision; image-rendering:optimizeQuality; fill-rule:evenodd; clip-rule:evenodd"
viewBox="0 0 2032 1648"
 xmlns:xlink="http://www.w3.org/1999/xlink">
 <defs>
  <style type="text/css">
   <![CDATA[
    .fil0 {fill:#4D4D4D}
    .fil1 {fill:#C1D6CF}
    .fil2 {fill:#4D4D4D;fill-rule:nonzero}
   ]]>
  </style>
 </defs>
 <g id="Objects">
  <metadata id="CorelCorpID_0Corel-Layer"/>
  <path class="fil0" d="M1227 498l59 0c3,0 6,3 6,7l0 44c0,3 -3,6 -6,6l-59 0c-3,0 -6,-3 -6,-6l0 -44c0,-4 3,-7 6,-7z"/>
  <path class="fil0" d="M991 457l101 0c1,0 9,1 15,11l48 82c0,6 -9,11 -20,11l-186 0c-11,0 -20,-5 -20,-11l48 -82c6,-10 14,-11 14,-11z"/>
  <path class="fil0" d="M724 536l563 0c32,0 59,27 59,59l0 425c0,32 -27,59 -59,59l-563 0c-32,0 -59,-27 -59,-59l0 -425c0,-32 27,-59 59,-59z"/>
  <path class="fil1" d="M1234 642l82 0c5,0 9,4 9,9l0 62c0,5 -4,9 -9,9l-82 0c-5,0 -9,-4 -9,-9l0 -62c0,-5 4,-9 9,-9z"/>
  <path class="fil0" d="M732 513l86 0c4,0 7,3 7,7l0 52c0,4 -3,7 -7,7l-86 0c-4,0 -7,-3 -7,-7l0 -52c0,-4 3,-7 7,-7z"/>
  <path class="fil0" d="M711 536l590 0c25,0 45,27 45,59l0 20 -681 0 0 -20c0,-32 21,-59 46,-59z"/>
  <path class="fil0" d="M1346 1000l0 20c0,32 -20,59 -45,59l-590 0c-25,0 -46,-27 -46,-59l0 -20 681 0z"/>
  <path class="fil1" d="M1009 487l66 0c2,0 4,1 4,4l0 29c0,2 -2,4 -4,4l-66 0c-2,0 -4,-2 -4,-4l0 -29c0,-3 2,-4 4,-4z"/>
  <path class="fil1" d="M1006 1020c116,0 212,-96 212,-212 0,-117 -96,-212 -212,-212 -117,0 -212,95 -212,212 0,116 95,212 212,212z"/>
  <path class="fil0" d="M1006 965c87,0 157,-71 157,-157 0,-87 -70,-158 -157,-158 -87,0 -158,71 -158,158 0,86 71,157 158,157z"/>
  <path class="fil1" d="M1059 678c4,12 6,25 6,38 0,70 -57,127 -126,127 -27,0 -52,-9 -73,-23 0,-4 0,-8 0,-12 0,-78 62,-140 140,-140 19,0 37,3 53,10z"/>
  <polygon class="fil0" points="0,1224 2032,1224 2032,1168 0,1168 "/>
  <polygon class="fil0" points="0,1648 2032,1648 2032,1592 0,1592 "/>
  <path class="fil2" d="M1044 301c0,16 -13,28 -28,28 -16,0 -29,-12 -29,-28l0 -273c0,-15 13,-28 29,-28 15,0 28,13 28,28l0 273z"/>
  <path class="fil2" d="M1406 462c-10,12 -28,14 -40,4 -12,-10 -13,-28 -3,-40l175 -209c10,-12 28,-14 40,-3 12,10 13,27 3,39l-175 209z"/>
  <path class="fil2" d="M1580 819c-15,2 -30,-8 -33,-23 -2,-16 8,-30 23,-33l269 -47c15,-3 30,7 32,23 3,15 -7,30 -23,32l-268 48z"/>
  <path class="fil2" d="M441 739c15,3 26,17 23,33 -3,15 -17,25 -33,23l-268 -48c-16,-2 -26,-17 -23,-32 3,-16 17,-26 33,-23l268 47z"/>
  <path class="fil2" d="M663 410c10,12 8,30 -4,40 -12,10 -29,9 -40,-3l-175 -209c-10,-12 -8,-30 4,-40 12,-10 30,-9 40,3l175 209z"/>
  <path class="fil2" d="M1238 351c-5,14 -22,22 -36,16 -15,-5 -23,-21 -17,-36l43 -118c5,-14 21,-22 36,-17 15,6 22,22 17,37l-43 118z"/>
  <path class="fil2" d="M1520 629c-13,8 -30,3 -38,-11 -8,-13 -3,-30 10,-38l114 -66c13,-7 31,-3 38,11 8,13 3,30 -10,38l-114 66z"/>
  <path class="fil2" d="M1554 1019c-15,-2 -25,-17 -23,-32 3,-16 18,-26 33,-23l138 24c15,3 26,17 23,33 -3,15 -17,25 -33,23l-138 -25z"/>
  <path class="fil2" d="M439 944c15,-3 30,7 33,23 2,15 -8,30 -23,32l-138 25c-16,2 -30,-8 -33,-23 -3,-16 8,-30 23,-33l138 -24z"/>
  <path class="fil2" d="M524 563c14,7 19,25 11,38 -8,14 -25,18 -39,10l-113 -65c-14,-8 -19,-25 -11,-39 8,-13 25,-18 39,-10l113 66z"/>
  <path class="fil2" d="M841 325c5,14 -3,30 -17,36 -15,5 -31,-3 -36,-17l-43 -118c-6,-15 2,-31 16,-37 15,-5 31,3 37,17l43 119z"/>
 </g>
</svg>
