<?xml version="1.0" encoding="UTF-8"?>
<!DOCTYPE svg PUBLIC "-//W3C//DTD SVG 1.1//EN" "http://www.w3.org/Graphics/SVG/1.1/DTD/svg11.dtd">
<!-- Creator: CorelDRAW X7 -->
<svg xmlns="http://www.w3.org/2000/svg" xml:space="preserve" width="3.31511in" height="2.31029in" version="1.1" style="shape-rendering:geometricPrecision; text-rendering:geometricPrecision; image-rendering:optimizeQuality; fill-rule:evenodd; clip-rule:evenodd"
viewBox="0 0 1789 1247"
 xmlns:xlink="http://www.w3.org/1999/xlink">
 <defs>
  <style type="text/css">
   <![CDATA[
    .fil1 {fill:#5E9FD6}
    .fil0 {fill:#32373E}
   ]]>
  </style>
 </defs>
 <g id="Layer_x0020_1">
  <metadata id="CorelCorpID_0Corel-Layer"/>
  <path class="fil0" d="M1707 1247l-1625 0c-45,0 -82,-37 -82,-83l0 -979c0,-46 37,-83 82,-83l1625 0c45,0 82,37 82,83l0 979c0,46 -37,83 -82,83z"/>
  <path class="fil1" d="M1568 674c0,232 -188,420 -419,420 -232,0 -420,-188 -420,-420 0,-231 188,-419 420,-419 231,0 419,188 419,419z"/>
  <path class="fil0" d="M1424 674c0,152 -123,275 -275,275 -152,0 -275,-123 -275,-275 0,-151 123,-274 275,-274 152,0 275,123 275,274z"/>
  <polygon class="fil1" points="360,347 162,347 162,255 360,255 "/>
  <path class="fil0" d="M602 102l-375 0 0 -60c0,-23 19,-42 42,-42l291 0c23,0 42,19 42,42l0 60z"/>
 </g>
</svg>
