<?xml version="1.0" encoding="UTF-8"?>
<!DOCTYPE svg PUBLIC "-//W3C//DTD SVG 1.1//EN" "http://www.w3.org/Graphics/SVG/1.1/DTD/svg11.dtd">
<!-- Creator: CorelDRAW X7 -->
<svg xmlns="http://www.w3.org/2000/svg" xml:space="preserve" width="0.877555in" height="0.546917in" version="1.1" style="shape-rendering:geometricPrecision; text-rendering:geometricPrecision; image-rendering:optimizeQuality; fill-rule:evenodd; clip-rule:evenodd"
viewBox="0 0 157 98"
 xmlns:xlink="http://www.w3.org/1999/xlink">
 <defs>
  <style type="text/css">
   <![CDATA[
    .fil1 {fill:#74CBF2}
    .fil0 {fill:#777876}
   ]]>
  </style>
 </defs>
 <g id="Layer_x0020_1">
  <metadata id="CorelCorpID_0Corel-Layer"/>
  <path class="fil0" d="M9 0c-5,0 -9,5 -9,10l0 78c0,6 5,10 10,10l137 0c6,0 10,-4 10,-10l0 -78c0,-5 -4,-10 -9,-10l-139 0z"/>
  <path class="fil1" d="M108 18c5,0 10,1 14,2l0 0c4,2 8,5 11,8l0 0c4,4 6,7 8,12l0 0c2,4 3,9 3,13 0,5 -1,10 -3,14l0 0c-2,5 -4,8 -8,12l0 0 0 0c-3,3 -7,6 -11,7l0 0c-4,2 -9,3 -14,3 -5,0 -9,-1 -14,-3l0 0c-4,-1 -8,-4 -11,-7l0 0 0 0c-3,-4 -6,-7 -8,-12l0 0c-2,-4 -3,-9 -3,-14 0,-4 1,-9 3,-13l0 0c2,-5 5,-8 8,-12l0 0c3,-3 7,-6 11,-8l0 0c5,-1 9,-2 14,-2l0 0z"/>
  <path class="fil1" d="M19 8l28 0c1,0 2,1 2,2l0 13c0,1 -1,1 -2,1l-28 0c-2,0 -3,0 -3,-1l0 -13c0,-1 1,-2 3,-2l0 0z"/>
  <path class="fil0" d="M125 37c-2,-3 -5,-5 -8,-6 -2,-1 -6,-2 -9,-2 -3,0 -6,1 -9,2 -3,1 -6,3 -8,6 -2,2 -4,4 -5,7 -1,3 -2,6 -2,9 0,4 1,7 2,10 1,3 3,5 5,8 2,2 5,4 8,5 3,1 6,2 9,2 3,0 7,-1 9,-2 3,-1 6,-3 8,-5 2,-3 4,-5 5,-8 1,-3 2,-6 2,-10 0,-3 -1,-6 -2,-9 -1,-3 -3,-5 -5,-7l0 0z"/>
 </g>
</svg>
