<?xml version="1.0" encoding="UTF-8"?>
<!DOCTYPE svg PUBLIC "-//W3C//DTD SVG 1.1//EN" "http://www.w3.org/Graphics/SVG/1.1/DTD/svg11.dtd">
<!-- Creator: CorelDRAW X7 -->
<svg xmlns="http://www.w3.org/2000/svg" xml:space="preserve" width="3.27306in" height="1.32392in" version="1.1" style="shape-rendering:geometricPrecision; text-rendering:geometricPrecision; image-rendering:optimizeQuality; fill-rule:evenodd; clip-rule:evenodd"
viewBox="0 0 1286 520"
 xmlns:xlink="http://www.w3.org/1999/xlink">
 <defs>
  <style type="text/css">
   <![CDATA[
    .fil0 {fill:#323232}
   ]]>
  </style>
 </defs>
 <g id="Layer_x0020_1">
  <metadata id="CorelCorpID_0Corel-Layer"/>
  <path class="fil0" d="M78 331c0,0 -1,-1 -1,-1 -1,0 -2,0 -3,1 0,0 1,1 1,1 1,0 2,-1 3,-1zm160 142c17,-2 34,-4 51,-6 83,-9 161,-36 232,-80 9,-5 26,-10 24,-19 -3,-12 -20,-14 -32,-16 -56,-10 -112,-9 -166,12 -29,11 -57,22 -71,54 -5,12 -19,14 -24,5 -10,-18 -27,-30 -43,-41 -51,-37 -118,-20 -156,10 -8,7 -10,13 0,19 56,39 117,61 185,62zm555 -46c-64,6 -121,-20 -179,-39 -19,-6 -32,-4 -47,8 -51,42 -109,75 -171,98 -80,29 -161,37 -242,8 -47,-17 -88,-44 -127,-74 -9,-7 -16,-16 -21,-26 -11,-24 -7,-43 15,-58 31,-23 64,-35 103,-27 36,7 73,11 102,36 10,8 19,16 28,25 6,7 10,8 15,-2 37,-77 140,-92 205,-77 31,7 62,16 92,25 23,7 41,4 61,-13 50,-42 97,-88 148,-129 41,-33 74,-75 119,-103 74,-46 151,-81 241,-79 23,0 42,9 62,21 60,34 88,86 89,153 1,68 -36,123 -91,146 -46,18 -113,-28 -114,-70 -2,-42 33,-74 71,-62 22,6 30,25 26,54 -4,20 -15,29 -35,28 -9,0 -16,-3 -19,-12 -3,-8 -3,-17 3,-24 5,-7 13,-6 21,-4 5,1 11,10 15,2 4,-7 2,-14 -3,-21 -9,-10 -20,-12 -32,-11 -12,2 -10,12 -13,20 -5,16 -4,33 -1,49 3,21 21,37 42,36 30,0 57,-8 70,-38 22,-51 25,-102 0,-152 -15,-32 -46,-43 -75,-56 -54,-24 -105,-8 -157,8 -66,19 -115,63 -164,108 -56,53 -118,100 -173,154 -4,3 -7,6 -10,9 -7,6 -5,11 2,13 35,14 70,28 107,33 47,7 94,2 141,-2 34,-4 59,-20 79,-47 21,-29 14,-83 -13,-106 -18,-15 -40,-17 -60,-7 -19,11 -28,28 -26,47 1,10 6,17 15,21 10,3 20,9 14,-10 -2,-8 0,-17 10,-21 9,-4 19,-6 28,-2 8,4 7,30 -3,38 -11,9 -24,17 -37,25 -4,2 -9,2 -14,0 -23,-9 -47,-44 -36,-71 16,-40 30,-59 94,-49 38,5 64,40 63,81 -2,58 -33,96 -85,118 -43,18 -86,35 -133,28z"/>
 </g>
</svg>
