<?xml version="1.0" encoding="UTF-8"?>
<!DOCTYPE svg PUBLIC "-//W3C//DTD SVG 1.1//EN" "http://www.w3.org/Graphics/SVG/1.1/DTD/svg11.dtd">
<!-- Creator: CorelDRAW X7 -->
<svg xmlns="http://www.w3.org/2000/svg" xml:space="preserve" width="3.08181in" height="1.03043in" version="1.1" style="shape-rendering:geometricPrecision; text-rendering:geometricPrecision; image-rendering:optimizeQuality; fill-rule:evenodd; clip-rule:evenodd"
viewBox="0 0 3776 1263"
 xmlns:xlink="http://www.w3.org/1999/xlink">
 <defs>
  <style type="text/css">
   <![CDATA[
    .fil0 {fill:#323232}
   ]]>
  </style>
 </defs>
 <g id="Layer_x0020_1">
  <metadata id="CorelCorpID_0Corel-Layer"/>
  <path class="fil0" d="M2065 650c-75,-37 -152,-75 -216,-133 -46,-41 -94,-79 -116,-140 -4,-10 -18,-23 -8,-32 9,-8 23,3 33,9 102,62 187,145 277,220 19,16 35,35 51,53 5,6 9,17 7,22 -6,13 -17,1 -28,1zm801 22c-179,-60 -295,-186 -390,-336 -5,-8 -12,-20 -3,-28 10,-9 18,4 25,9 134,101 262,208 380,327 8,9 24,16 16,29 -8,12 -22,-1 -28,-1zm-2339 -286c-110,-59 -215,-123 -285,-231 -11,-17 -21,-36 -20,-57 1,-36 21,-44 52,-25 122,71 184,199 282,292 7,6 9,18 1,21 -8,4 -19,0 -30,0zm779 232c-137,-60 -239,-158 -313,-287 -6,-11 -10,-23 -13,-34 -3,-14 -6,-31 8,-39 14,-8 20,10 29,16 121,86 205,210 315,307 11,9 27,26 15,41 -8,11 -26,-2 -41,-4zm-1171 71c-14,0 -25,1 -27,-7 -2,-10 9,-12 16,-16 62,-35 134,-48 199,-75 89,-38 180,-67 274,-88 21,-5 49,-8 56,8 9,21 -20,31 -35,41 -99,64 -206,108 -320,135 -55,13 -113,21 -163,2zm367 -244c12,7 33,13 35,22 3,22 -22,19 -35,25 -82,31 -165,61 -248,90 -56,19 -113,35 -170,51 -11,3 -26,10 -34,-1 -10,-13 -1,-27 8,-39 25,-33 55,-60 92,-79 96,-47 199,-62 303,-72 16,-1 32,2 49,3zm2057 -201c15,7 28,12 41,19 127,70 228,170 321,280 16,19 28,40 34,65 3,13 16,31 4,40 -17,12 -28,-9 -39,-19 -137,-122 -274,-244 -410,-367 -5,-4 -8,-8 -12,-13 7,-3 14,-10 21,-10 14,0 28,3 40,5zm-2165 -202c143,67 249,176 298,336 5,15 11,36 -6,44 -18,9 -37,0 -47,-18 -24,-38 -58,-68 -86,-103 -64,-80 -131,-156 -207,-225 -9,-9 -26,-20 -17,-35 8,-14 26,-5 39,-4 7,1 12,3 26,5zm1702 722c-14,12 -27,25 -42,36 -138,91 -273,187 -436,231 -22,6 -40,50 -57,25 -14,-22 26,-46 42,-68 8,-10 18,-17 27,-25 85,-82 190,-126 298,-165 48,-17 95,-37 146,-46 8,-2 16,-6 23,2 1,2 -1,6 -1,10zm-268 -497c117,60 225,132 304,240 22,29 39,62 59,93 11,18 7,40 -4,51 -11,10 -24,-9 -34,-18 -128,-110 -256,-220 -384,-330 -19,-17 -15,-24 5,-33 18,-8 35,-11 54,-3zm-714 -36c111,66 228,133 298,256 19,33 31,71 32,110 1,11 11,26 -5,32 -10,3 -19,-7 -26,-14 -111,-114 -223,-227 -334,-342 -11,-11 -37,-22 -23,-43 11,-17 33,-1 58,1zm-203 753c-10,-3 -21,-3 -18,-13 2,-7 9,-14 16,-17 45,-22 91,-45 137,-66 109,-47 205,-119 313,-166 27,-12 67,-42 88,-8 19,32 -22,55 -47,75 -115,91 -248,147 -389,185 -33,9 -68,13 -100,10zm1535 201c-8,-11 -1,-22 1,-33 25,-175 241,-349 409,-402 11,-4 25,-8 31,7 5,10 -5,18 -13,25 -81,76 -154,162 -228,245 -45,50 -99,91 -149,136 -14,13 -29,21 -51,22zm776 -1053c63,15 119,41 172,70 110,61 213,131 292,230 9,12 26,29 15,43 -13,16 -29,-4 -41,-11 -190,-107 -380,-215 -570,-323 -7,-4 -18,-6 -16,-14 1,-5 12,-10 20,-11 45,-9 89,-2 128,16zm307 378c-72,-23 -129,-50 -185,-79 -103,-54 -204,-112 -280,-203 -12,-14 -34,-34 -20,-52 15,-20 36,-2 54,7 166,82 319,187 481,276 23,13 46,27 68,42 6,4 14,13 13,18 -2,11 -14,15 -24,14 -40,-6 -80,-12 -107,-23zm-573 322c-22,76 -70,136 -113,197 -74,105 -179,165 -303,194 -9,2 -21,7 -28,-3 -8,-12 6,-17 13,-23 25,-26 51,-53 78,-78 107,-100 185,-229 304,-318 17,-13 36,-41 54,-29 20,14 -4,40 -5,60zm-1639 -146c-3,-1 4,2 12,5 -6,5 -11,12 -18,16 -141,90 -287,172 -447,225 -19,6 -43,29 -59,0 -15,-25 -10,-49 12,-72 135,-136 297,-197 500,-174zm888 116c-10,27 -19,54 -40,75 -98,95 -201,187 -330,239 -68,27 -140,43 -215,27 -11,-2 -27,-2 -30,-15 -4,-15 13,-19 22,-26 46,-34 96,-62 146,-89 135,-72 267,-149 390,-240 16,-11 34,-28 55,-11 13,10 7,26 2,40zm1164 324c-19,3 -25,-11 -30,-25 -22,-56 -7,-109 20,-158 55,-101 136,-183 207,-271 8,-10 19,-16 29,-23 5,-3 13,-8 16,-6 10,7 0,13 -4,19 -57,78 -87,170 -126,257 -32,73 -84,134 -114,208 23,11 46,22 62,-10 44,-91 101,-176 136,-272 26,-69 61,-133 108,-190 8,-9 17,-19 31,-14 12,4 9,16 8,26 -20,150 -70,288 -162,409 -32,42 -77,65 -128,80 -31,9 -46,0 -53,-30zm-2340 -574c-72,-31 -151,-38 -225,-60 -33,-10 -52,-23 -60,-59 -39,-186 -155,-315 -316,-408 -64,-36 -127,-27 -190,-10 -45,12 -63,63 -45,111 20,53 55,96 97,132 43,37 89,72 134,107 9,7 25,11 23,25 -3,17 -18,21 -33,24 -46,8 -92,18 -139,25 -61,11 -117,34 -171,64 -26,14 -48,32 -66,54 -64,76 -46,138 49,162 75,20 151,17 225,-3 135,-37 263,-90 375,-177 22,-18 42,-23 72,-18 144,24 279,80 420,114 7,2 19,3 14,14 -1,4 -14,4 -21,5 -139,15 -259,70 -362,166 -37,35 -68,75 -50,128 19,55 70,67 120,68 153,5 287,-59 419,-125 82,-42 157,-97 212,-173 15,-22 31,-22 51,-20 120,13 240,26 360,39 9,1 23,0 24,12 1,12 -13,12 -22,16 -50,21 -99,41 -148,62 -96,40 -173,106 -242,183 -53,59 -39,120 33,153 74,33 149,23 222,1 173,-52 301,-169 421,-297 10,-10 20,-23 22,-36 12,-82 67,-86 134,-83 116,6 232,5 348,-10 15,-1 38,-11 43,8 5,15 -18,19 -30,24 -110,54 -190,142 -266,233 -43,52 -55,118 -62,184 -4,32 10,51 38,61 27,9 54,19 84,12 150,-36 275,-106 366,-237 59,-85 98,-178 137,-272 7,-16 13,-26 32,-30 150,-31 300,-64 450,-95 14,-3 38,-7 40,-3 8,18 -12,27 -21,39 -61,84 -137,157 -190,248 -34,59 -56,122 -35,193 25,81 75,106 155,78 64,-23 106,-67 145,-124 114,-166 135,-359 175,-548 3,-14 -1,-28 -11,-40 -170,-192 -369,-341 -627,-392 -86,-18 -124,9 -133,75 -5,36 14,63 34,89 42,56 98,99 156,137 110,71 228,128 352,170 9,3 25,0 26,11 1,16 -17,16 -27,18 -50,12 -100,23 -150,33 -108,23 -216,47 -324,69 -20,4 -45,15 -56,-17 -62,-177 -209,-279 -343,-391 -37,-31 -79,-52 -125,-63 -38,-9 -79,-21 -107,18 -29,40 -23,82 3,121 84,125 184,235 316,311 12,7 35,19 34,22 -7,20 -27,12 -42,15 -140,22 -281,18 -422,15 -36,-1 -58,-10 -73,-47 -79,-187 -217,-319 -394,-414 -27,-14 -55,-28 -87,-23 -89,12 -123,81 -78,161 72,125 187,203 311,269 19,11 41,17 54,37 -22,10 -44,6 -66,6 -154,-3 -305,-32 -458,-43 -23,-1 -30,-18 -35,-36 -55,-190 -190,-310 -355,-404 -36,-20 -75,-32 -117,-30 -76,4 -111,57 -82,127 22,53 51,102 94,142 26,25 54,51 78,78 13,16 47,28 33,49 -12,18 -41,-2 -62,-7 -22,-5 -42,-15 -63,-23z"/>
 </g>
</svg>
