<?xml version="1.0" encoding="UTF-8"?>
<!DOCTYPE svg PUBLIC "-//W3C//DTD SVG 1.1//EN" "http://www.w3.org/Graphics/SVG/1.1/DTD/svg11.dtd">
<!-- Creator: CorelDRAW X7 -->
<svg xmlns="http://www.w3.org/2000/svg" xml:space="preserve" width="0.591874in" height="3.75545in" version="1.1" style="shape-rendering:geometricPrecision; text-rendering:geometricPrecision; image-rendering:optimizeQuality; fill-rule:evenodd; clip-rule:evenodd"
viewBox="0 0 69 437"
 xmlns:xlink="http://www.w3.org/1999/xlink">
 <defs>
  <style type="text/css">
   <![CDATA[
    .fil0 {fill:#323232}
   ]]>
  </style>
 </defs>
 <g id="Layer_x0020_1">
  <metadata id="CorelCorpID_0Corel-Layer"/>
  <path class="fil0" d="M32 34c0,0 0,0 0,0 0,-1 0,-2 0,-2 0,-3 0,-8 -1,-8 -3,0 -3,4 -4,7 -1,1 -1,2 -2,3 0,2 -2,3 1,4 1,1 3,2 5,2 2,0 1,-3 1,-4 0,-1 0,-2 0,-2zm13 73c6,0 11,-4 13,-8 0,-2 1,-4 -1,-5 -1,0 -3,1 -4,1 -3,3 -6,5 -10,7 -1,1 -2,2 -1,3 0,2 1,2 3,2zm-4 -84c-1,0 0,1 0,2 0,5 0,10 0,16 0,0 0,1 1,1 3,1 5,0 7,-2 1,-1 1,-2 0,-4 -2,-4 -4,-8 -6,-12 0,0 -1,-1 -2,-1zm0 35c0,5 1,6 5,5 3,-1 6,-3 8,-5 2,-1 2,-3 1,-5 -1,-2 0,-4 -2,-4 -3,-1 -12,6 -12,9zm-9 1c0,-6 0,-6 -3,-8 -3,-1 -5,-3 -8,-3 -4,0 -3,4 -4,7 -1,2 0,3 2,4 2,1 4,2 6,3 6,3 6,3 7,-3zm-13 48c2,0 5,-1 7,-4 2,-1 3,-3 0,-5 -5,-2 -10,-5 -15,-8 -1,-1 -2,-1 -3,0 -3,5 5,17 11,17zm40 -31c0,-6 -1,-7 -7,-4 -3,1 -5,3 -7,4 -5,2 -6,5 -5,10 1,2 2,3 4,2 4,-3 9,-5 13,-8 2,-1 1,-2 2,-4zm-27 6c0,-6 0,-6 -5,-8 -4,-1 -8,-3 -11,-4 -2,-1 -4,-3 -4,0 -1,3 -5,6 -1,8 6,4 12,7 17,10 2,1 3,1 3,-2 0,-1 1,-2 1,-4zm-6 303c0,-11 0,-23 1,-34 0,-2 0,-5 -3,-4 -5,2 -11,4 -14,9 -4,5 -3,12 3,15 3,2 3,3 1,5 -2,1 -3,2 -4,4 -5,3 -7,7 -6,13 1,6 5,7 10,6 3,0 4,2 2,5 -2,2 -4,3 -5,5 -7,5 -6,12 -2,18 3,4 7,6 12,5 4,-1 4,-5 4,-8 1,-3 2,-5 1,-8 0,-10 1,-20 0,-31zm11 -22c1,20 0,40 4,60 1,6 2,8 9,9 6,1 11,-1 12,-6 4,-8 2,-12 -6,-17 -2,0 -4,0 -3,-2 0,-2 1,-2 3,-3 9,-2 12,-10 6,-18 -3,-3 -6,-4 -10,-4 -1,0 -3,0 -3,-1 0,-2 1,-2 2,-3 6,-3 8,-6 6,-13 -1,-8 -8,-14 -15,-16 -3,-1 -4,0 -4,3 0,3 -1,7 -1,11zm-34 -272c0,-12 5,-23 9,-34 6,-16 12,-32 18,-49 2,-3 3,-8 6,-8 5,0 5,5 7,8 5,13 10,25 16,37 4,9 6,18 8,26 4,16 -1,29 -9,42 -3,4 -7,6 -12,5 -3,0 -4,1 -4,4 -1,19 -1,37 0,56 0,12 -1,25 -1,37 -1,20 -2,39 -2,59 0,20 -1,41 -1,62 0,5 2,8 7,10 8,3 14,9 16,19 0,3 1,6 -1,9 -2,4 0,6 2,8 8,7 9,14 2,22 -2,3 -2,4 0,7 6,6 5,17 0,22 -6,5 -19,5 -24,-1 -3,-3 -5,-2 -7,1 -5,5 -17,5 -24,0 -6,-5 -8,-13 -5,-20 1,-2 2,-3 2,-4 3,-3 4,-5 -1,-7 -5,-2 -6,-10 -4,-16 1,-1 2,-3 3,-4 3,-4 5,-7 2,-13 -4,-6 0,-13 5,-17 3,-3 7,-6 11,-7 4,-1 5,-3 5,-7 3,-27 -1,-54 0,-82 1,-10 1,-20 1,-30 1,-14 -1,-27 -1,-41 1,-13 3,-26 3,-38 0,-9 0,-17 0,-25 0,-5 0,-6 -5,-6 -7,1 -14,-1 -18,-7 -3,-6 -4,-12 -4,-18z"/>
 </g>
</svg>
