<?xml version="1.0" encoding="UTF-8"?>
<!DOCTYPE svg PUBLIC "-//W3C//DTD SVG 1.1//EN" "http://www.w3.org/Graphics/SVG/1.1/DTD/svg11.dtd">
<!-- Creator: CorelDRAW X7 -->
<svg xmlns="http://www.w3.org/2000/svg" xml:space="preserve" width="3.42958in" height="1.57608in" version="1.1" style="shape-rendering:geometricPrecision; text-rendering:geometricPrecision; image-rendering:optimizeQuality; fill-rule:evenodd; clip-rule:evenodd"
viewBox="0 0 1271 584"
 xmlns:xlink="http://www.w3.org/1999/xlink">
 <defs>
  <style type="text/css">
   <![CDATA[
    .fil0 {fill:#323232}
   ]]>
  </style>
 </defs>
 <g id="Layer_x0020_1">
  <metadata id="CorelCorpID_0Corel-Layer"/>
  <path class="fil0" d="M1149 319c-22,-8 -34,-28 -55,-36 -4,-1 -9,-6 -12,-3 -3,5 2,9 6,12 37,33 47,77 49,124 2,23 -6,44 -11,66 -6,25 -1,48 11,69 11,22 40,25 52,8 4,-6 7,-10 -4,-11 -9,-1 -17,-6 -18,-14 -1,-8 6,-16 13,-21 14,-8 23,-4 26,12 3,20 -3,37 -18,50 -17,17 -57,2 -66,-24 -4,-9 -2,-24 -11,-26 -7,-1 -12,13 -19,21 -22,24 -49,40 -83,38 -34,-2 -42,-16 -47,-50 -1,-10 2,-22 15,-23 11,-1 26,-1 32,12 6,10 -1,20 -8,28 -3,2 -9,2 -7,6 0,2 7,2 10,2 10,3 20,0 29,-4 32,-15 56,-38 68,-72 3,-8 3,-12 -7,-10 -9,2 -18,4 -28,4 -14,1 -27,-9 -29,-21 -1,-10 9,-27 20,-31 8,-3 14,3 19,8 7,6 7,15 2,22 -8,11 -1,10 7,9 15,-1 23,-10 27,-23 15,-56 -22,-131 -75,-154 -2,-1 -4,-2 -5,-2 -3,2 -1,4 0,7 10,20 10,41 6,63 -3,27 -30,50 -57,51 -11,0 -18,-4 -22,-14 -4,-11 -1,-21 6,-29 5,-6 10,-2 15,1 8,5 11,11 7,20 -1,3 -7,6 -3,10 4,3 8,-1 12,-2 42,-16 40,-89 9,-114 -20,-17 -42,-28 -66,-37 -30,-10 -61,-17 -92,-22 -4,0 -8,-3 -10,2 -2,4 3,6 6,8 19,16 35,34 43,59 7,22 6,43 -6,64 -7,12 -18,16 -30,16 -14,1 -25,-18 -20,-31 4,-7 22,-8 30,1 15,17 14,-1 16,-7 8,-39 -11,-67 -38,-91 -27,-25 -61,-31 -96,-34 -28,-2 -55,2 -83,4 -4,0 -10,0 -11,5 -1,3 5,5 8,7 23,19 45,40 59,68 10,17 4,42 -11,56 -14,12 -37,13 -54,2 -10,-6 -13,-15 -9,-25 3,-8 8,-15 18,-13 10,3 20,5 23,18 1,5 -5,15 4,14 9,-1 12,-10 12,-19 -2,-30 -23,-49 -45,-65 -45,-33 -96,-45 -152,-36 -33,4 -65,11 -97,17 -2,1 -6,2 -6,3 -1,4 3,4 6,5 21,5 40,16 58,28 19,14 23,32 16,56 -10,29 -25,42 -48,42 -10,1 -19,-4 -24,-12 -4,-8 -3,-18 1,-27 1,-4 6,-6 10,-5 10,2 18,6 24,16 2,4 -5,13 5,12 7,0 11,-6 14,-13 2,-8 6,-16 8,-24 5,-15 0,-27 -13,-36 -47,-33 -99,-36 -154,-22 -37,9 -74,16 -113,20 -12,1 -24,3 -36,5 -3,1 -7,1 -7,5 0,0 4,2 6,3 20,8 34,22 45,40 7,11 10,22 9,35 -2,26 -31,44 -55,34 -10,-4 -12,-13 -13,-23 -1,-8 3,-14 10,-18 7,-5 13,1 18,4 5,3 4,8 6,12 2,4 -9,11 2,12 9,1 15,-2 18,-11 5,-16 1,-32 -9,-45 -13,-18 -30,-29 -52,-33 -33,-6 -66,-10 -99,-9 -7,0 -14,0 -20,-2 -5,-1 -12,-3 -11,-11 2,-7 7,-11 15,-10 22,4 43,3 64,-3 37,-12 72,-28 100,-56 20,-20 27,-54 16,-78 -5,-11 -12,-17 -24,-17 -16,-2 -30,2 -43,9 -8,4 -15,9 -16,19 0,4 -3,8 0,11 5,3 5,-4 8,-5 10,-4 19,-5 28,3 4,3 6,7 4,12 -5,11 -13,15 -24,15 -11,0 -21,-5 -28,-15 -7,-10 -3,-19 2,-28 13,-24 53,-39 78,-31 19,6 31,26 31,48 -1,30 -13,55 -37,74 -13,10 -27,19 -42,27 -2,2 -6,3 -4,7 0,1 3,1 4,1 102,-19 202,-44 278,-121 15,-14 23,-33 19,-55 -4,-22 -37,-34 -55,-20 -4,3 -3,6 1,8 2,0 5,-1 7,0 10,3 22,4 18,19 -2,9 -20,16 -29,12 -9,-5 -20,-8 -19,-21 2,-13 9,-25 23,-29 15,-5 30,-3 45,2 10,3 16,11 18,22 4,23 -1,44 -16,62 -26,30 -59,51 -92,71 -3,3 -9,3 -9,9 4,-1 7,-1 11,-2 40,-12 82,-17 123,-27 58,-14 110,-40 157,-76 23,-17 42,-39 45,-70 3,-22 -22,-43 -44,-37 -2,1 -4,2 -4,4 -1,3 2,3 4,3 10,2 13,9 11,17 -3,10 -14,13 -23,16 -9,2 -15,-3 -18,-11 -5,-13 1,-27 14,-34 21,-10 40,-5 57,9 17,14 16,32 11,49 -7,23 -23,40 -40,55 -33,29 -73,47 -111,67 -3,1 -9,1 -7,6 1,4 6,2 9,2 65,-11 130,-10 195,-13 45,-3 88,-17 126,-45 20,-15 33,-35 31,-62 -1,-18 -15,-24 -28,-30 -11,-5 -21,-1 -29,7 -2,2 -4,4 -3,7 1,5 5,3 7,3 4,0 8,1 11,2 7,3 15,6 12,16 -2,8 -9,13 -18,13 -15,0 -28,-15 -26,-30 3,-18 20,-34 38,-30 45,8 59,30 41,74 -13,33 -43,48 -73,62 -9,4 -18,7 -27,11 -3,0 -6,2 -6,3 0,4 3,3 6,3 66,5 132,19 198,27 18,3 36,1 53,-3 14,-4 26,-9 34,-22 3,-5 7,-12 3,-17 -4,-4 -9,1 -13,3 -11,4 -20,2 -27,-7 -5,-7 1,-14 5,-19 7,-9 16,-13 26,-7 12,6 26,13 26,27 0,15 -11,28 -24,38 -16,12 -34,16 -54,17 -3,0 -9,-1 -10,3 -1,6 5,6 9,7 18,8 36,16 55,22 42,14 78,39 115,62 21,13 41,11 63,6 3,-1 8,-1 8,-6 0,-5 -5,-5 -8,-7 -15,-9 -18,-22 -5,-30 11,-6 24,-3 35,4 8,7 12,16 7,27 -8,17 -22,25 -40,29 -30,5 -57,-1 -80,-19z"/>
 </g>
</svg>
