<?xml version="1.0" encoding="UTF-8"?>
<!DOCTYPE svg PUBLIC "-//W3C//DTD SVG 1.1//EN" "http://www.w3.org/Graphics/SVG/1.1/DTD/svg11.dtd">
<!-- Creator: CorelDRAW X7 -->
<svg xmlns="http://www.w3.org/2000/svg" xml:space="preserve" width="2.83005in" height="0.62889in" version="1.1" style="shape-rendering:geometricPrecision; text-rendering:geometricPrecision; image-rendering:optimizeQuality; fill-rule:evenodd; clip-rule:evenodd"
viewBox="0 0 1006 223"
 xmlns:xlink="http://www.w3.org/1999/xlink">
 <defs>
  <style type="text/css">
   <![CDATA[
    .fil0 {fill:#323232}
   ]]>
  </style>
 </defs>
 <g id="Layer_x0020_1">
  <metadata id="CorelCorpID_0Corel-Layer"/>
  <path class="fil0" d="M98 131c-1,-1 -2,-2 -2,-3 0,0 0,-1 1,-2 1,-1 2,0 2,1 0,1 -1,3 -1,4zm376 -110c1,1 2,1 2,1 0,1 0,3 0,4 -1,-1 -2,-1 -2,-1 0,-1 0,-2 0,-4zm71 -7c2,-1 4,-1 5,-2 0,1 1,3 0,3 0,1 -2,2 -3,2 0,0 -1,-2 -2,-3zm-513 120c1,-2 2,-3 2,-4 2,2 5,2 7,4 2,2 0,3 -2,3 -2,0 -4,-2 -7,-3zm951 -53c-1,-4 1,-5 4,-5 4,0 6,4 6,8 0,3 -1,8 -4,7 -6,0 -4,-7 -6,-10zm-891 15c1,-3 3,-5 5,-5 7,2 11,7 13,13 1,3 0,4 -2,3 -6,-3 -11,-7 -16,-11zm526 -30c-13,-1 -26,-1 -39,-2 -9,0 -16,-1 -12,-13 4,-11 3,-22 1,-33 -2,-9 -6,-16 -16,-18 -10,-1 -17,3 -22,10 -7,11 -10,23 -14,35 -1,3 -1,7 -5,7 -4,1 -4,-3 -6,-6 -5,-12 -12,-22 -20,-31 -6,-6 -12,-12 -21,-9 -9,4 -14,10 -15,19 -1,5 -3,11 -1,16 4,18 -7,22 -22,22 -21,2 -43,3 -64,4 -13,0 -16,-5 -18,-15 -5,-24 -12,-28 -32,-31 -15,-1 -22,7 -28,18 -5,8 -9,10 -17,3 -3,-3 -8,-4 -12,-6 -17,-7 -27,-1 -29,16 -1,4 0,8 -1,12 0,9 10,19 3,26 -10,9 -22,17 -35,21 -15,5 -30,8 -43,14 -14,6 -21,4 -24,-11 -2,-10 -8,-19 -16,-27 -13,-12 -23,-11 -35,3 -9,11 -8,31 -18,35 -8,4 -23,-9 -36,-9 -8,1 -15,1 -19,9 -4,9 -1,16 5,23 19,21 44,36 68,50 12,7 25,12 36,21 12,8 18,5 22,-9 5,-18 4,-37 2,-55 -1,-8 0,-11 9,-13 28,-5 53,-17 77,-30 13,-7 22,-4 30,6 13,16 27,31 41,46 8,8 14,10 20,-3 10,-21 20,-42 27,-64 3,-10 9,-15 20,-16 27,-2 54,-4 82,-7 10,-1 18,3 24,10 14,15 26,30 33,49 4,8 7,18 19,17 12,0 11,-11 14,-18 22,-57 23,-58 78,-56 53,1 60,8 81,61 1,4 2,9 3,13 2,6 2,12 10,13 8,0 15,0 19,-7 9,-13 18,-26 26,-40 6,-11 14,-17 26,-15 37,3 70,16 105,27 8,3 12,10 14,18 3,13 6,25 9,38 3,17 14,22 29,13 15,-9 24,-23 33,-37 12,-19 24,-39 35,-59 6,-10 12,-22 -1,-32 -12,-8 -24,-5 -34,5 -7,7 -13,14 -20,21 -5,-7 -9,-15 -14,-23 -8,-13 -21,-19 -35,-14 -13,5 -14,20 -15,32 0,22 0,22 -21,17 -9,-2 -18,-5 -27,-6 -36,-5 -62,-19 -73,-57 -6,-18 -15,-19 -31,-5 -9,8 -14,10 -20,-2 -8,-15 -23,-14 -37,-11 -14,2 -16,15 -14,25 4,19 -6,18 -19,16 -7,-1 -13,-1 -20,-2 0,1 0,1 0,1z"/>
 </g>
</svg>
