<?xml version="1.0" encoding="UTF-8"?>
<!DOCTYPE svg PUBLIC "-//W3C//DTD SVG 1.1//EN" "http://www.w3.org/Graphics/SVG/1.1/DTD/svg11.dtd">
<!-- Creator: CorelDRAW X7 -->
<svg xmlns="http://www.w3.org/2000/svg" xml:space="preserve" width="1.73645in" height="0.477165in" version="1.1" style="shape-rendering:geometricPrecision; text-rendering:geometricPrecision; image-rendering:optimizeQuality; fill-rule:evenodd; clip-rule:evenodd"
viewBox="0 0 222 61"
 xmlns:xlink="http://www.w3.org/1999/xlink">
 <defs>
  <style type="text/css">
   <![CDATA[
    .fil0 {fill:#323232}
   ]]>
  </style>
 </defs>
 <g id="Layer_x0020_1">
  <metadata id="CorelCorpID_0Corel-Layer"/>
  <path class="fil0" d="M222 26c-2,-2 -4,-4 -6,-6 -4,-4 -4,-5 0,-11 2,-2 4,-4 5,-6 1,-1 2,-1 1,-2 -1,-1 -2,-1 -3,-1 -7,1 -13,2 -20,3 -3,1 -6,2 -8,4 -3,3 -7,7 -10,10 -1,2 -3,3 -6,4 -11,2 -22,4 -35,6 -19,4 -42,8 -67,13 -4,1 -6,1 -7,-1 -3,-5 -8,-6 -18,-2 -14,5 -27,11 -41,18 -3,1 -8,3 -7,5 2,2 7,1 11,1 17,-2 32,-3 46,-3 6,0 9,-3 10,-6 2,-7 2,-7 15,-9 4,-1 8,-2 12,-2 16,-4 31,-7 45,-10 14,-2 26,-5 38,-8 2,0 3,0 4,1 3,2 7,3 8,6 3,5 8,5 14,3 7,-1 12,-2 17,-4 2,-1 3,-2 2,-3z"/>
 </g>
</svg>
