<?xml version="1.0" encoding="UTF-8"?>
<!DOCTYPE svg PUBLIC "-//W3C//DTD SVG 1.1//EN" "http://www.w3.org/Graphics/SVG/1.1/DTD/svg11.dtd">
<!-- Creator: CorelDRAW X7 -->
<svg xmlns="http://www.w3.org/2000/svg" xml:space="preserve" width="3.37412in" height="2.12926in" version="1.1" style="shape-rendering:geometricPrecision; text-rendering:geometricPrecision; image-rendering:optimizeQuality; fill-rule:evenodd; clip-rule:evenodd"
viewBox="0 0 887 560"
 xmlns:xlink="http://www.w3.org/1999/xlink">
 <defs>
  <style type="text/css">
   <![CDATA[
    .fil0 {fill:#323232}
   ]]>
  </style>
 </defs>
 <g id="Layer_x0020_1">
  <metadata id="CorelCorpID_0Corel-Layer"/>
  <path class="fil0" d="M192 482c15,-14 24,-32 32,-51 1,-2 1,-4 -1,-5 -2,-2 -4,0 -6,1 -12,7 -24,15 -36,22 -28,15 -56,30 -84,46 -16,9 -28,23 -30,43 -2,10 3,11 11,7 9,-6 15,-14 18,-24 1,-4 0,-11 5,-12 6,-1 9,4 13,8 10,11 17,11 27,1 11,-10 17,-21 20,-35 1,-5 2,-11 8,-12 5,0 8,4 10,8 4,7 8,6 13,3zm-48 -45c-1,-1 -1,-3 -2,-4 21,-11 41,-23 62,-34 3,-2 7,-3 7,-7 -1,-4 -5,-4 -8,-5 -15,-8 -30,-13 -47,-9 -16,4 -21,9 -19,25 1,9 -3,10 -9,8 -7,-2 -14,-4 -22,-6 -11,-3 -22,0 -32,6 -5,3 -9,7 -4,13 4,4 8,7 5,13 -4,6 -11,4 -16,3 -12,-2 -23,1 -33,5 -7,3 -10,10 -9,17 0,7 5,12 12,13 21,2 41,3 61,-8 17,-11 36,-20 54,-30zm-121 -5c2,-1 7,-4 12,-4 10,-2 16,-4 18,-17 2,-13 17,-15 28,-19 5,-1 11,-1 16,-1 11,0 20,2 25,-14 4,-12 20,-16 35,-14 19,3 39,7 56,17 9,6 15,5 23,0 36,-23 73,-45 109,-67 44,-27 89,-52 132,-80 53,-35 108,-68 164,-100 5,-3 7,-7 8,-12 2,-14 6,-27 7,-40 1,-12 7,-18 19,-21 46,-11 91,-25 136,-39 16,-5 32,-11 48,-16 3,-2 7,-3 11,-4 6,-1 13,-3 16,4 3,6 -3,10 -7,12 -27,17 -46,42 -69,63 -20,20 -38,41 -57,62 -16,19 -33,30 -59,20 -12,-5 -26,-4 -38,-7 -6,-1 -10,2 -15,5 -50,30 -100,59 -149,91 -63,40 -126,80 -189,121 -19,13 -37,28 -58,39 -6,4 -8,8 -8,16 -2,39 -21,63 -58,70 -8,2 -10,8 -13,13 -8,11 -13,24 -27,30 -10,4 -19,6 -28,-2 -5,-5 -8,-3 -11,2 -5,6 -11,11 -19,15 -9,4 -18,8 -27,0 -9,-9 -12,-22 -7,-34 3,-7 13,-13 9,-20 -3,-4 -14,-2 -21,-3 -23,-4 -32,-11 -35,-29 -2,-13 7,-28 23,-37z"/>
 </g>
</svg>
