<?xml version="1.0" encoding="UTF-8"?>
<!DOCTYPE svg PUBLIC "-//W3C//DTD SVG 1.1//EN" "http://www.w3.org/Graphics/SVG/1.1/DTD/svg11.dtd">
<!-- Creator: CorelDRAW X7 -->
<svg xmlns="http://www.w3.org/2000/svg" xml:space="preserve" width="3.13537in" height="1.33613in" version="1.1" style="shape-rendering:geometricPrecision; text-rendering:geometricPrecision; image-rendering:optimizeQuality; fill-rule:evenodd; clip-rule:evenodd"
viewBox="0 0 1954 833"
 xmlns:xlink="http://www.w3.org/1999/xlink">
 <defs>
  <style type="text/css">
   <![CDATA[
    .fil0 {fill:#323232}
   ]]>
  </style>
 </defs>
 <g id="Layer_x0020_1">
  <metadata id="CorelCorpID_0Corel-Layer"/>
  <path class="fil0" d="M826 347c0,-1 2,-1 2,-1 -1,-2 -1,-3 -1,-5 -1,0 -2,1 -2,1 0,2 0,3 1,5zm-219 -311c0,-5 -2,-5 -5,-4 -5,2 -10,3 -10,10 0,3 1,6 5,4 6,-1 8,-6 10,-10zm40 -16c-4,5 -17,-3 -17,11 0,4 6,6 10,5 8,-2 20,-2 23,-11 2,-4 -9,-4 -16,-5zm-87 191c-1,-4 -2,-9 -3,-14 -11,3 -12,12 -15,21 -1,4 -1,11 5,11 12,1 9,-11 13,-18zm288 -22c-4,-21 -14,-39 -24,-58 0,-1 -3,-1 -4,-2 -1,3 -2,6 -1,8 6,18 14,35 21,52 1,2 4,3 6,5 1,-2 1,-4 2,-5zm18 204c0,-3 -1,-6 -1,-10 0,-4 0,-8 -1,-12 -5,4 -1,9 -2,13 -3,19 -7,39 -5,58 0,3 0,6 0,9 1,-2 2,-5 2,-7 0,-17 9,-34 7,-51zm-10 113c-1,0 -2,0 -2,-1 0,-5 1,-10 1,-15 0,-2 -2,-3 -2,-5 -1,2 -3,3 -3,5 -5,32 -10,65 -15,97 -1,3 1,8 2,9 6,1 6,-4 6,-8 5,-27 9,-55 13,-82zm-264 12c4,-23 -6,-45 -5,-67 1,-3 -2,-8 -3,-8 -6,-1 -4,5 -4,8 1,23 3,45 5,68 1,11 2,23 4,34 7,-11 2,-23 3,-35zm-31 -195c0,14 -1,29 -2,43 0,3 1,7 3,9 4,2 5,-3 5,-5 6,-48 18,-94 20,-142 1,-4 1,-9 -4,-9 -5,-1 -6,5 -7,9 -11,30 -15,62 -15,95zm49 49c-5,103 7,200 14,297 2,30 8,60 24,86 9,13 19,21 36,12 51,-25 84,-65 89,-120 12,-129 27,-258 13,-388 -7,-60 -10,-120 -45,-173 -15,-23 -34,-33 -59,-30 -26,2 -44,14 -50,43 -3,15 -6,30 -9,45 -14,77 -12,155 -13,228zm281 -27c-11,135 -16,264 -76,382 -27,52 -93,92 -150,89 -29,-2 -53,-13 -73,-36 -32,-36 -50,-79 -56,-126 -20,-164 -21,-328 -13,-492 0,-7 2,-14 1,-21 -16,-109 133,-175 214,-123 85,53 129,123 140,219 5,38 9,76 13,108z"/>
  <path class="fil0" d="M1671 528c0,-1 -1,-1 -2,-1 0,1 -1,2 -1,2 1,3 3,3 4,1 0,0 -1,-1 -1,-2zm0 -37c0,0 0,1 0,2 1,-1 1,-1 2,-2 -1,0 -1,0 -2,0zm-64 -191c-1,-2 -2,-4 -4,-6 0,2 -1,4 -1,5 0,2 1,4 2,5 1,-1 2,-2 3,-4zm87 -253c-3,0 -4,2 -2,3 1,0 2,0 3,0 3,-1 3,-2 1,-3 0,-1 -1,0 -2,0zm-46 15c1,-7 0,-11 -6,-10 -15,5 -14,18 -17,30 -1,4 1,11 4,10 15,-5 13,-22 19,-30zm53 37c-2,-6 3,-14 -6,-15 -8,-1 -8,8 -10,13 -3,5 -4,10 -6,15 -6,12 3,17 12,19 14,3 8,-9 9,-14 2,-6 1,-12 1,-18zm-93 659c-5,-7 2,-25 -17,-22 -11,1 -12,11 -11,19 2,11 11,19 22,20 12,1 4,-10 6,-17zm-12 -389c10,-3 5,-11 4,-18 0,0 -1,-1 -2,-1 -4,5 -3,11 -2,17 0,1 0,2 0,3 -3,4 -3,9 -2,14 0,0 3,-1 4,-1 -1,-4 -2,-9 -2,-14zm160 -348c55,-3 110,-5 165,-9 26,-3 28,18 32,33 4,18 -6,35 -12,51 -2,6 -6,9 -11,3 -40,-48 -94,-27 -143,-27 -64,1 -62,4 -68,68 -8,75 -12,151 -17,226 -1,19 2,26 23,26 43,-1 87,1 131,1 17,0 36,5 49,-17 5,-10 19,-8 21,7 1,9 2,17 2,25 0,44 -3,46 -45,35 -25,-6 -52,-4 -78,-3 -28,1 -56,5 -83,5 -20,0 -25,8 -26,26 -7,75 -7,151 -8,227 0,39 3,41 43,37 49,-5 97,-12 146,-5 18,2 20,-10 27,-20 4,-8 8,-19 20,-15 11,4 9,15 8,24 -1,18 -4,35 -6,53 -2,16 -14,19 -27,20 -26,2 -52,4 -78,4 -68,-1 -136,14 -205,7 -46,-5 -56,-13 -58,-59 -3,-51 6,-101 11,-152 7,-91 2,-182 9,-274 7,-75 19,-150 20,-226 1,-48 19,-63 68,-65 30,-2 60,-4 90,-6z"/>
  <path class="fil0" d="M1447 79c-2,-3 -3,-7 -7,-4 -2,1 -3,5 -2,8 0,3 2,6 6,3 2,-1 2,-4 3,-7zm-18 -17c-5,-7 -11,-13 -18,-11 -11,2 -11,13 -10,22 0,6 5,12 9,10 7,-6 13,-14 19,-21zm-449 1c1,3 -2,17 10,15 11,-2 6,-13 2,-20 -2,-6 0,-10 4,-14 3,-3 7,-6 3,-9 -3,-2 -8,-1 -12,1 -12,3 -11,13 -7,27zm484 14c2,35 -8,63 -15,91 -21,83 -41,165 -65,247 -36,120 -61,244 -119,357 -7,15 -11,32 -33,32 -21,0 -31,-13 -39,-30 -32,-72 -58,-147 -76,-224 -19,-83 -46,-164 -74,-244 -27,-79 -45,-162 -84,-237 -8,-16 -18,-34 9,-46 38,-16 55,-15 67,14 15,36 27,74 40,111 51,153 79,312 128,465 5,18 8,49 20,48 18,-2 19,-32 24,-50 23,-99 43,-199 68,-298 22,-87 50,-173 71,-261 6,-30 17,-32 44,-16 19,11 37,21 34,41z"/>
  <path class="fil0" d="M37 48c-5,1 -11,1 -13,7 -2,7 4,7 7,8 6,1 11,0 13,-6 2,-7 -3,-7 -7,-9zm60 7c-1,-6 -1,-14 -10,-15 -6,0 -10,5 -8,12 2,6 3,13 12,13 6,0 6,-5 6,-10zm12 115c-2,-19 -5,-41 -8,-63 -1,-4 -4,-7 -5,-11 -1,4 -3,8 -3,12 2,22 4,43 7,65 1,7 1,13 2,20 9,-5 3,-14 7,-23zm67 617c17,-1 39,-2 61,-4 5,-1 13,0 12,-8 -1,-4 -8,-3 -12,-2 -22,2 -44,4 -65,7 -5,1 -12,-2 -13,6 4,0 8,0 17,1zm-121 -649c-2,22 -1,44 4,66 1,6 2,14 11,14 8,0 8,-9 8,-15 -1,-22 0,-45 -4,-66 -2,-15 1,-43 -9,-41 -17,2 -7,27 -10,42zm11 570c-11,20 -5,41 -4,61 0,6 -1,16 9,14 7,-2 10,-12 6,-16 -17,-18 -9,-39 -11,-59 -7,-44 -2,-89 8,-131 12,-47 9,-92 5,-138 0,-4 -2,-8 -3,-12 -5,2 -7,6 -8,10 -1,7 -3,13 -4,20 -7,79 -4,158 -6,238 0,7 5,9 8,13zm66 -109c-3,43 -5,87 -8,130 -2,23 3,31 29,27 56,-9 112,-15 168,-20 15,-1 19,-5 21,-18 2,-10 3,-20 6,-29 8,-27 41,-42 67,-33 9,4 11,11 12,18 4,39 -3,76 -13,112 -5,21 -25,18 -42,19 -86,3 -173,2 -258,17 -9,2 -18,3 -26,5 -45,11 -49,8 -50,-36 -6,-180 -9,-361 -16,-542 -2,-51 -13,-103 -19,-155 -3,-22 -9,-50 12,-61 28,-15 62,-19 94,-10 19,6 15,28 16,44 5,80 10,160 7,240 -4,97 11,195 0,292z"/>
 </g>
</svg>
