<?xml version="1.0" encoding="UTF-8"?>
<!DOCTYPE svg PUBLIC "-//W3C//DTD SVG 1.1//EN" "http://www.w3.org/Graphics/SVG/1.1/DTD/svg11.dtd">
<!-- Creator: CorelDRAW X7 -->
<svg xmlns="http://www.w3.org/2000/svg" xml:space="preserve" width="0.649831in" height="3.72528in" version="1.1" style="shape-rendering:geometricPrecision; text-rendering:geometricPrecision; image-rendering:optimizeQuality; fill-rule:evenodd; clip-rule:evenodd"
viewBox="0 0 23 133"
 xmlns:xlink="http://www.w3.org/1999/xlink">
 <defs>
  <style type="text/css">
   <![CDATA[
    .fil0 {fill:#323232}
   ]]>
  </style>
 </defs>
 <g id="Layer_x0020_1">
  <metadata id="CorelCorpID_0Corel-Layer"/>
  <path class="fil0" d="M21 115c0,-5 -3,-10 -7,-12 0,0 -1,0 -1,0 0,1 0,1 0,2 0,0 1,0 1,1 0,0 1,1 2,1 2,2 2,4 2,7 -1,2 -3,2 -4,3 -1,0 -1,0 -1,0 -1,1 0,4 1,5 1,1 2,1 2,2 2,3 2,5 -2,5 0,1 -1,0 0,1 1,1 2,2 3,1 1,0 2,-1 2,-2 1,-2 1,-5 -1,-7 0,-1 0,-2 0,-3 2,-1 2,-3 3,-4zm-10 5c0,-1 0,-2 0,-3 0,-1 0,-1 -2,-1 -2,1 -3,0 -4,-2 -1,-2 0,-4 1,-6 1,-1 3,-2 4,-3 1,0 1,-1 1,-2 -1,-1 -1,0 -2,0 -2,1 -4,3 -6,5 -1,3 0,8 2,9 1,1 2,2 1,4 0,0 -1,1 -1,2 -1,1 -1,3 0,4 0,3 3,4 5,3 1,-1 1,-1 1,-2 0,0 -1,1 -1,1 -2,0 -3,0 -3,-2 0,-2 1,-4 3,-5 0,-1 1,-1 1,-2zm-8 -95c0,-2 1,-4 1,-7 1,-4 3,-9 5,-13 1,-2 1,-3 2,-4 1,-1 2,-1 3,0 1,3 3,6 4,10 1,5 2,9 3,14 1,4 1,8 -1,11 -1,2 -2,2 -4,2 0,0 -1,0 -1,0 -2,-1 -2,-1 -2,1 0,2 0,3 0,5 0,1 0,2 1,4 0,1 0,2 0,3 -2,2 -1,5 -1,7 0,1 0,1 1,1 1,1 1,3 0,5 -1,1 -1,2 -1,3 0,2 0,5 1,7 0,1 0,2 -1,3 0,1 0,2 0,2 0,1 0,2 1,2 0,0 1,0 1,0 0,1 0,1 -1,1 -1,0 -1,0 -1,1 0,1 -1,3 1,3 0,0 1,0 1,1 0,1 -1,1 -1,1 -2,1 -1,2 -1,3 0,1 1,1 1,1 1,0 1,0 1,1 1,0 0,0 0,1 -1,0 -2,0 -2,2 0,1 -1,3 2,4 4,3 7,7 8,13 0,2 0,5 -1,7 -1,1 -1,2 0,3 0,2 1,4 0,6 -1,4 -5,5 -8,3 -1,-1 -2,-1 -4,0 -4,1 -6,-1 -7,-5 -1,-2 0,-4 0,-7 0,-1 0,-1 -1,-2 -2,-2 -3,-4 -1,-7 1,-4 3,-7 6,-10 1,-1 1,-1 2,-2 2,0 2,-1 2,-2 0,-1 0,-3 -1,-4 -1,0 -1,-1 0,-1 1,-1 1,-3 -1,-4 0,0 -1,0 -1,-1 0,-1 1,-1 2,-1 1,0 1,-1 1,-2 0,-1 -1,-1 -1,-1 -1,0 -1,0 -2,-1 0,0 1,0 1,-1 2,0 2,-2 1,-3 -1,-1 -1,-2 -1,-3 2,-2 2,-5 2,-7 0,-2 0,-3 -1,-5 -1,-1 -1,-3 1,-4 0,-1 1,-1 1,-2 0,-1 0,-3 0,-5 0,0 -1,-1 -1,-1 -2,-2 -2,-3 0,-4 0,0 1,-1 1,-2 0,-2 0,-4 0,-7 0,0 0,-1 -1,0 -4,0 -6,-1 -7,-4 -1,-3 -1,-6 -1,-9z"/>
 </g>
</svg>
