<?xml version="1.0" encoding="UTF-8"?>
<!DOCTYPE svg PUBLIC "-//W3C//DTD SVG 1.1//EN" "http://www.w3.org/Graphics/SVG/1.1/DTD/svg11.dtd">
<!-- Creator: CorelDRAW X7 -->
<svg xmlns="http://www.w3.org/2000/svg" xml:space="preserve" width="2.02756in" height="1.22016in" version="1.1" style="shape-rendering:geometricPrecision; text-rendering:geometricPrecision; image-rendering:optimizeQuality; fill-rule:evenodd; clip-rule:evenodd"
viewBox="0 0 2534 1525"
 xmlns:xlink="http://www.w3.org/1999/xlink">
 <defs>
  <style type="text/css">
   <![CDATA[
    .fil0 {fill:#323232}
   ]]>
  </style>
 </defs>
 <g id="Layer_x0020_1">
  <metadata id="CorelCorpID_0Corel-Layer"/>
  <path class="fil0" d="M1815 796c25,-5 162,50 176,69 4,7 4,17 1,16 -31,-3 -49,32 -76,29 -63,-7 -109,-49 -152,-91 -10,-9 1,-13 9,-14 14,-4 29,1 42,-9zm-85 -296c7,43 -13,92 -32,139 -14,37 -42,42 -75,16 -31,-24 -64,-46 -96,-69 -51,-36 -78,-86 -88,-145 -11,-70 22,-130 81,-151 76,-28 126,-9 168,63 25,42 30,90 42,147zm380 716c4,48 -17,104 -63,152 -56,58 -151,58 -213,0 -58,-55 -59,-137 -5,-198 29,-34 66,-55 106,-74 124,-57 159,-37 175,120zm-1193 -923c9,53 -4,123 -39,190 -17,31 -31,43 -58,10 -32,-39 -67,-75 -97,-115 -40,-53 -74,-111 -89,-177 -15,-61 11,-118 61,-143 60,-30 112,-21 158,28 50,52 59,118 64,207zm19 1196c-111,11 -191,-51 -192,-151 0,-90 39,-160 116,-208 73,-45 154,-71 235,-97 21,-6 31,1 40,16 125,209 -20,411 -199,440zm39 -777c-8,1 -16,4 -24,3 -7,-1 -18,-8 -11,-16 7,-9 12,4 19,8 4,2 10,3 16,5 18,30 50,43 74,65 31,27 61,56 92,83 25,23 -4,42 -5,62 -2,15 -17,16 -30,10 -86,-34 -141,-108 -210,-163 -6,-5 -6,-25 -2,-36 8,-19 21,-3 29,2 28,15 42,2 52,-23zm-439 -437c7,153 64,274 172,371 54,50 54,54 4,107 -136,145 -303,190 -494,147 -80,-17 -144,-67 -160,-150 -20,-94 -4,-194 102,-234 24,-9 48,-12 73,-7 21,5 47,16 44,37 -4,20 -27,-1 -42,1 -41,4 -80,10 -90,60 -10,53 9,101 48,118 43,19 101,7 124,-29 35,-55 37,-112 6,-172 -31,-60 -81,-70 -142,-63 -106,12 -155,57 -174,164 -30,159 37,269 194,312 187,52 356,20 501,-113 9,-8 18,-17 27,-25 83,-75 68,-63 140,-5 60,49 122,94 175,151 41,46 42,45 -14,67 -89,35 -175,75 -253,134 -55,41 -60,93 -68,156 -22,187 180,257 294,208 198,-85 288,-225 270,-444 -5,-62 8,-95 71,-112 83,-22 160,-60 234,-102 13,-7 25,-18 41,-10 100,51 215,66 312,125 9,5 19,10 27,16 25,18 34,35 -1,53 -35,19 -68,41 -103,58 -52,25 -82,70 -111,116 -30,48 2,147 58,190 122,95 275,58 345,-80 44,-87 64,-177 43,-272 -9,-40 4,-56 37,-70 74,-32 138,-78 201,-127 92,-70 136,-242 86,-345 -21,-44 -53,-75 -101,-87 -121,-30 -223,11 -310,92 -45,42 -40,134 3,178 44,45 108,46 156,4 36,-32 42,-72 33,-115 -9,-41 -41,-54 -79,-58 -8,-1 -22,-1 -23,-4 -3,-11 7,-18 15,-25 64,-54 210,-31 250,44 44,79 54,206 -48,282 -66,49 -138,85 -214,116 -20,8 -40,11 -58,-7 -99,-107 -231,-154 -362,-202 -49,-18 -70,-34 -37,-89 64,-108 37,-218 -16,-322 -39,-77 -160,-92 -249,-42 -171,96 -148,273 -74,387 31,48 72,87 119,118 22,15 30,25 2,45 -72,52 -157,76 -234,116 -24,13 -41,0 -53,-19 -73,-110 -183,-181 -277,-270 -69,-66 -69,-71 -32,-157 56,-134 52,-271 -9,-401 -53,-112 -242,-120 -329,-23 -59,64 -61,138 -50,208z"/>
 </g>
</svg>
