<?xml version="1.0" encoding="UTF-8"?>
<!DOCTYPE svg PUBLIC "-//W3C//DTD SVG 1.1//EN" "http://www.w3.org/Graphics/SVG/1.1/DTD/svg11.dtd">
<!-- Creator: CorelDRAW X7 -->
<svg xmlns="http://www.w3.org/2000/svg" xml:space="preserve" width="1.63335in" height="1.07175in" version="1.1" style="shape-rendering:geometricPrecision; text-rendering:geometricPrecision; image-rendering:optimizeQuality; fill-rule:evenodd; clip-rule:evenodd"
viewBox="0 0 336 220"
 xmlns:xlink="http://www.w3.org/1999/xlink">
 <defs>
  <style type="text/css">
   <![CDATA[
    .fil0 {fill:#323232}
   ]]>
  </style>
 </defs>
 <g id="Layer_x0020_1">
  <metadata id="CorelCorpID_0Corel-Layer"/>
  <path class="fil0" d="M257 138c-1,-1 -1,-1 -2,-2 1,0 2,-1 3,-1 0,0 1,1 1,1 -1,1 -1,1 -2,2zm33 72c-1,-1 -3,-3 -3,-5 1,-8 -3,-16 -6,-23 -2,-5 -2,-9 -1,-13 0,-2 -1,-4 1,-5 2,0 3,2 3,4 5,13 7,26 10,40 0,2 0,4 -4,2zm-23 -64c-4,-3 -2,-5 1,-7 12,-6 23,-15 35,-20 2,-1 5,-1 6,1 3,3 -1,3 -3,5 -10,7 -21,13 -31,21 -2,1 -5,1 -8,0zm-34 -10c3,1 4,3 4,7 0,10 2,20 4,29 1,2 3,6 0,7 -4,1 -6,-1 -8,-5 -3,-11 -6,-22 -8,-33 -1,-7 2,-8 8,-5zm10 11c1,-2 2,-3 4,-3 2,1 6,2 6,5 1,12 6,24 6,37 0,2 1,5 -2,6 -3,0 -4,-2 -4,-4 -4,-11 -9,-21 -9,-32 0,-3 -1,-6 -1,-9zm45 9c-9,-3 -9,-5 -2,-10 9,-8 20,-13 30,-19 3,-1 6,-3 8,1 1,2 -2,4 -4,5 -9,9 -20,14 -28,23 -2,1 -3,2 -4,0zm-14 44c-3,-2 -7,-2 -8,-6 -2,-11 -6,-22 -4,-34 0,-2 -1,-6 3,-6 2,1 6,2 6,5 2,12 5,24 9,36 1,2 0,5 -1,6 -1,2 -3,0 -5,-1zm-35 -69c-2,-1 -6,-1 -6,-4 0,-3 3,-3 5,-4 4,-3 9,-5 13,-8 7,-4 14,-7 22,-9 3,-1 6,0 8,3 1,3 -2,4 -4,5 -8,7 -17,11 -26,16 -4,3 -8,2 -12,1zm29 -3c5,-3 11,-7 16,-10 1,-1 3,-1 3,0 1,0 1,2 0,2 -6,3 -11,11 -19,8 0,1 0,2 -1,3 0,1 -1,0 -1,-1 0,0 1,-1 2,-2zm21 -27c-12,-10 -25,-11 -39,5 -6,6 -17,9 -25,13 -3,2 -6,1 -9,0 -22,-12 -44,-24 -66,-36 -20,-11 -40,-21 -61,-32 -4,-3 -9,-5 -13,-8 -14,-7 -14,-7 -12,-22 1,-7 0,-12 -7,-12 -16,-1 -31,-5 -46,-8 -3,-1 -8,-2 -10,1 -2,4 1,7 3,10 9,13 18,27 28,40 9,9 15,9 21,-2 4,-5 6,-4 10,-2 29,16 58,31 86,46 20,11 40,22 59,32 6,3 9,6 11,13 2,12 6,24 10,36 2,8 7,13 13,16 17,9 33,18 49,27 3,1 6,4 10,1 3,-2 1,-6 0,-9 -2,-8 -4,-16 -5,-24 -5,-20 -4,-24 13,-36 8,-5 16,-10 23,-17 6,-4 5,-6 0,-10 -12,-9 -26,-15 -43,-22z"/>
 </g>
</svg>
