<?xml version="1.0" encoding="UTF-8"?>
<!DOCTYPE svg PUBLIC "-//W3C//DTD SVG 1.1//EN" "http://www.w3.org/Graphics/SVG/1.1/DTD/svg11.dtd">
<!-- Creator: CorelDRAW X7 -->
<svg xmlns="http://www.w3.org/2000/svg" xml:space="preserve" width="1.63907in" height="0.599488in" version="1.1" style="shape-rendering:geometricPrecision; text-rendering:geometricPrecision; image-rendering:optimizeQuality; fill-rule:evenodd; clip-rule:evenodd"
viewBox="0 0 190 70"
 xmlns:xlink="http://www.w3.org/1999/xlink">
 <defs>
  <style type="text/css">
   <![CDATA[
    .fil0 {fill:#323232}
   ]]>
  </style>
 </defs>
 <g id="Layer_x0020_1">
  <metadata id="CorelCorpID_0Corel-Layer"/>
  <path class="fil0" d="M152 67c-20,-1 -40,-7 -58,-22 -12,-10 -24,-20 -39,-26 -13,-5 -25,-6 -37,0 -12,6 -15,19 -8,29 4,4 13,6 17,3 1,-1 3,-2 2,-4 0,-2 -2,0 -3,0 -3,-1 -5,-2 -5,-5 -1,-5 3,-11 7,-11 5,-1 8,3 8,9 2,12 -3,17 -11,19 -10,2 -20,-4 -23,-13 -7,-19 6,-33 23,-38 9,-2 18,-2 28,-1 3,1 5,2 7,3 15,9 28,18 42,28 16,12 34,22 56,21 16,-2 29,-17 26,-33 -1,-2 -1,-4 -2,-5 -7,-6 -15,-12 -25,-11 -8,1 -15,7 -17,15 -2,7 3,9 6,11 4,2 9,3 12,0 2,-1 2,-2 0,-3 -3,0 -6,-2 -5,-6 1,-3 4,-3 7,-3 8,-1 11,3 8,11 -3,9 -12,14 -21,12 -9,-2 -14,-12 -12,-23 4,-19 17,-26 36,-20 17,5 21,16 18,35 -3,20 -14,28 -37,28z"/>
  <path class="fil0" d="M62 0c11,0 20,5 30,9 12,4 21,12 29,22 6,7 13,13 21,18 2,1 4,1 3,3 0,2 -3,1 -4,1 -4,0 -8,-1 -12,-3 -13,-6 -26,-14 -37,-23 -11,-10 -23,-17 -37,-22 -1,-1 -3,-1 -3,-3 1,-2 3,-1 4,-1 2,-1 4,-1 6,-1z"/>
  <path class="fil0" d="M36 18c14,0 26,7 37,14 7,5 13,10 20,16 5,4 11,9 18,12 0,0 1,1 1,1 3,2 6,4 4,7 -2,3 -5,1 -7,0 -18,-5 -32,-16 -46,-28 -6,-5 -13,-9 -20,-12 -5,-2 -10,-3 -16,-3 -1,0 -3,0 -3,-2 -1,-2 1,-3 2,-4 3,-1 7,-1 10,-1z"/>
 </g>
</svg>
