<?xml version="1.0" encoding="UTF-8"?>
<!DOCTYPE svg PUBLIC "-//W3C//DTD SVG 1.1//EN" "http://www.w3.org/Graphics/SVG/1.1/DTD/svg11.dtd">
<!-- Creator: CorelDRAW X7 -->
<svg xmlns="http://www.w3.org/2000/svg" xml:space="preserve" width="2.03672in" height="0.917862in" version="1.1" style="shape-rendering:geometricPrecision; text-rendering:geometricPrecision; image-rendering:optimizeQuality; fill-rule:evenodd; clip-rule:evenodd"
viewBox="0 0 540 243"
 xmlns:xlink="http://www.w3.org/1999/xlink">
 <defs>
  <style type="text/css">
   <![CDATA[
    .fil0 {fill:#323232}
   ]]>
  </style>
 </defs>
 <g id="Layer_x0020_1">
  <metadata id="CorelCorpID_0Corel-Layer"/>
  <path class="fil0" d="M274 87c0,-1 0,-1 0,-1 1,0 1,1 2,1 -1,0 -1,0 -1,0 -1,0 -1,0 -1,0zm-9 0c0,0 0,0 -1,0 1,0 1,-1 2,-1 0,0 0,0 0,1 0,0 0,0 -1,0zm40 99c1,1 1,1 2,2 0,0 -1,1 -1,1 -1,-1 -1,-1 -2,-1 0,-1 1,-1 1,-2zm-69 2c-1,0 -1,0 -2,1 0,0 -1,-1 -1,-1 1,-1 1,-1 2,-2 0,1 1,1 1,2zm66 -77c0,-1 1,-3 2,-3 2,0 3,1 3,3 1,1 0,2 -2,3 -1,-1 -2,-2 -3,-3zm-67 3c-2,-1 -3,-2 -2,-3 0,-2 1,-3 3,-3 1,0 2,2 2,3 -1,1 -2,2 -3,3zm283 -95c9,11 8,25 9,37 2,20 -3,39 -15,56 -1,1 -2,3 -3,3 -18,5 -8,14 -3,22 14,22 22,46 24,71 2,18 -1,22 -19,26 -25,4 -50,0 -75,-7 -11,-3 -21,-8 -32,-11 -28,-8 -47,-27 -70,-43 -3,-2 -5,-3 -3,-7 9,-17 1,-34 -3,-50 -1,-5 -4,-9 -6,-13 -8,-19 -8,-18 8,-32 35,-30 76,-50 121,-60 10,-2 21,-3 32,-3 12,1 25,0 35,11zm-461 -11c11,0 22,1 32,3 45,10 86,30 121,60 16,14 16,13 8,32 -2,4 -5,8 -6,13 -4,16 -12,33 -3,50 2,4 0,5 -3,7 -23,16 -42,35 -70,43 -11,3 -21,8 -32,11 -25,7 -50,11 -75,7 -18,-4 -21,-8 -19,-26 2,-25 10,-49 24,-71 5,-8 15,-17 -3,-22 -1,0 -2,-2 -3,-3 -11,-17 -17,-36 -15,-56 1,-12 0,-26 9,-37 10,-11 23,-10 35,-11zm213 70c-10,-1 -19,0 -29,3 -6,1 -9,-2 -13,-5 -27,-22 -54,-42 -85,-56 -32,-14 -65,-22 -99,-20 -22,2 -33,11 -37,33 -2,9 -3,19 -2,28 0,24 5,45 21,64 4,5 0,7 -2,10 -13,25 -22,52 -24,81 -1,17 5,23 23,26 29,4 58,-1 88,-6 32,-7 59,-22 85,-41 8,-7 15,-9 26,-4 16,8 32,12 48,11 16,1 32,-3 48,-11 11,-5 18,-3 26,4 26,19 53,34 85,41 30,5 59,10 88,6 18,-3 24,-9 23,-26 -2,-29 -11,-56 -24,-81 -2,-3 -6,-5 -2,-10 16,-19 21,-40 21,-64 1,-9 0,-19 -2,-28 -4,-22 -15,-31 -37,-33 -34,-2 -67,6 -99,20 -31,14 -58,34 -85,56 -4,3 -7,6 -13,5 -10,-3 -19,-4 -29,-3z"/>
  <path class="fil0" d="M64 16c-3,-1 -4,0 -4,1 0,1 0,2 1,3 1,1 3,2 5,3 37,15 74,31 105,56 1,2 3,3 4,2 3,-2 0,-4 -1,-5 -7,-9 -16,-15 -25,-20 -26,-14 -52,-28 -80,-38 -2,-1 -4,-2 -5,-2z"/>
  <path class="fil0" d="M477 16c2,-1 3,0 3,1 0,1 0,2 -1,3 -1,1 -3,2 -5,3 -37,15 -74,31 -105,56 -1,2 -3,3 -4,2 -3,-2 0,-4 1,-5 7,-9 16,-15 25,-20 26,-14 52,-28 80,-38 2,-1 4,-2 6,-2z"/>
  <path class="fil0" d="M63 197c-4,0 -11,-2 -11,1 0,6 7,4 11,4 6,0 11,0 16,-1 31,-10 62,-20 93,-30 4,-1 8,-3 12,-5 2,-1 5,-2 4,-4 -1,-2 -3,0 -5,0 -32,10 -65,20 -97,30 -8,3 -15,6 -23,5z"/>
  <path class="fil0" d="M477 197c4,0 11,-2 11,1 0,6 -7,4 -11,4 -5,0 -11,0 -16,-1 -31,-10 -62,-20 -93,-30 -4,-1 -8,-3 -12,-5 -2,-1 -5,-2 -4,-4 1,-2 3,0 5,0 32,10 65,20 97,30 8,3 15,6 23,5z"/>
  <path class="fil0" d="M65 34c-2,1 -3,1 -3,1 0,1 0,2 1,3 1,1 2,1 3,2 34,17 66,36 98,56 2,1 4,2 7,4 2,1 5,3 7,0 2,-3 -2,-4 -4,-5 -34,-20 -67,-41 -102,-58 -3,-1 -5,-2 -7,-3z"/>
  <path class="fil0" d="M475 34c2,1 3,1 3,1 0,1 0,2 -1,3 -1,1 -2,1 -3,2 -34,17 -66,36 -98,56 -2,1 -4,2 -7,4 -2,1 -5,3 -7,0 -2,-3 2,-4 4,-5 34,-20 67,-41 102,-58 3,-1 5,-2 7,-3z"/>
  <path class="fil0" d="M50 181c18,-2 35,-9 54,-13 16,-4 33,-7 50,-11 3,-1 8,0 8,-3 -1,-4 -6,-2 -9,-2 -18,4 -35,7 -52,11 -18,4 -35,8 -53,12 -3,1 -8,0 -8,5 0,2 6,1 10,1z"/>
  <path class="fil0" d="M490 181c-18,-2 -35,-9 -54,-13 -16,-4 -33,-7 -50,-11 -3,-1 -8,0 -7,-3 0,-4 5,-2 8,-2 18,4 35,7 52,11 18,4 35,8 53,12 3,1 8,0 8,5 0,2 -6,1 -10,1z"/>
  <path class="fil0" d="M146 139c-25,5 -50,8 -75,16 -3,0 -8,1 -7,6 1,2 6,1 9,0 24,-8 49,-11 73,-18 2,0 6,0 5,-3 0,-3 -3,-1 -5,-1z"/>
  <path class="fil0" d="M394 139c25,5 50,8 75,16 3,0 8,1 7,6 -1,2 -6,1 -9,0 -24,-8 -49,-11 -73,-18 -2,0 -6,0 -5,-3 0,-3 3,-1 5,-1z"/>
  <path class="fil0" d="M111 83c-1,0 -1,-1 -2,-2 -13,-7 -26,-16 -40,-21 -2,-1 -4,-1 -5,1 0,1 2,2 3,2 13,7 26,14 39,21 2,1 4,2 5,-1z"/>
  <path class="fil0" d="M429 83c1,0 1,-1 2,-2 13,-7 26,-16 40,-21 2,-1 4,-1 5,1 0,1 -2,2 -3,2 -13,7 -26,14 -39,21 -2,1 -4,2 -5,-1z"/>
  <path class="fil0" d="M96 89c-2,-1 -3,-2 -5,-3 -2,-1 -5,-2 -7,-2 -6,-1 -11,-6 -18,-4 1,1 1,3 2,3 8,5 16,9 26,9 0,0 1,-2 2,-3z"/>
  <path class="fil0" d="M444 89c2,-1 3,-2 5,-3 2,-1 5,-2 7,-2 6,-1 11,-6 18,-4 -1,1 -1,3 -2,3 -8,5 -16,9 -26,9 0,0 -1,-2 -2,-3z"/>
 </g>
</svg>
