<?xml version="1.0" encoding="UTF-8"?>
<!DOCTYPE svg PUBLIC "-//W3C//DTD SVG 1.1//EN" "http://www.w3.org/Graphics/SVG/1.1/DTD/svg11.dtd">
<!-- Creator: CorelDRAW X8 -->
<svg xmlns="http://www.w3.org/2000/svg" xml:space="preserve" width="7.83531in" height="7.8257in" version="1.1" style="shape-rendering:geometricPrecision; text-rendering:geometricPrecision; image-rendering:optimizeQuality; fill-rule:evenodd; clip-rule:evenodd"
viewBox="0 0 7835 7826"
 xmlns:xlink="http://www.w3.org/1999/xlink">
 <defs>
  <style type="text/css">
   <![CDATA[
    .fil0 {fill:#7B7D7F}
   ]]>
  </style>
 </defs>
 <g id="Layer_x0020_1">
  <metadata id="CorelCorpID_0Corel-Layer"/>
  <path class="fil0" d="M2406 0l3021 0c649,0 1268,275 1698,708 433,462 710,1052 710,1725l0 2989c0,678 -277,1264 -710,1696 -430,462 -1049,708 -1698,708l-3021 0c-649,0 -1266,-246 -1699,-708 -429,-432 -707,-1018 -707,-1696l0 -2989c0,-673 278,-1263 707,-1725 433,-433 1050,-708 1699,-708l0 0zm3021 403l-3021 0c-555,0 -1079,212 -1450,585 -371,369 -588,860 -588,1445l0 2989c0,556 217,1077 588,1450 371,369 895,585 1450,585l3021 0c558,0 1084,-216 1423,-585 368,-373 614,-894 614,-1450l0 -2989c0,-585 -246,-1076 -614,-1445 -339,-373 -865,-585 -1423,-585l0 0zm-2866 4867l2713 0 0 309 -2713 0 0 -309zm585 -2340l-985 -649 -187 246 1019 649 153 -246zm1543 0l152 246 1021 -649 -187 -246 -986 649z"/>
 </g>
</svg>
