<?xml version="1.0" encoding="UTF-8"?>
<!DOCTYPE svg PUBLIC "-//W3C//DTD SVG 1.1//EN" "http://www.w3.org/Graphics/SVG/1.1/DTD/svg11.dtd">
<!-- Creator: CorelDRAW X8 -->
<svg xmlns="http://www.w3.org/2000/svg" xml:space="preserve" width="8.22815in" height="8.22834in" version="1.1" style="shape-rendering:geometricPrecision; text-rendering:geometricPrecision; image-rendering:optimizeQuality; fill-rule:evenodd; clip-rule:evenodd"
viewBox="0 0 8228 8228"
 xmlns:xlink="http://www.w3.org/1999/xlink">
 <defs>
  <style type="text/css">
   <![CDATA[
    .fil0 {fill:#FCCE29;fill-rule:nonzero}
    .fil1 {fill:#5E3C30;fill-rule:nonzero}
   ]]>
  </style>
 </defs>
 <g id="Layer_x0020_1">
  <metadata id="CorelCorpID_0Corel-Layer"/>
  <g id="_310272466320">
   <path class="fil0" d="M8228 4114c0,2272 -1842,4114 -4114,4114 -2272,0 -4114,-1842 -4114,-4114 0,-2272 1842,-4114 4114,-4114 2272,0 4114,1842 4114,4114z"/>
   <path class="fil1" d="M5992 5485l-3755 0c-111,0 -201,-90 -201,-201 0,-111 90,-201 201,-201l3755 0c111,0 201,90 201,201 0,111 -90,201 -201,201z"/>
   <path class="fil1" d="M2644 3556l-907 0c-74,0 -134,-60 -134,-134 0,-74 60,-135 134,-135l907 0c74,0 134,61 134,135 0,74 -60,134 -134,134z"/>
   <path class="fil1" d="M6492 3556l-908 0c-74,0 -134,-60 -134,-134 0,-74 60,-135 134,-135l908 0c74,0 134,61 134,135 0,74 -60,134 -134,134z"/>
  </g>
 </g>
</svg>
