<?xml version="1.0" encoding="UTF-8"?>
<!DOCTYPE svg PUBLIC "-//W3C//DTD SVG 1.1//EN" "http://www.w3.org/Graphics/SVG/1.1/DTD/svg11.dtd">
<!-- Creator: CorelDRAW X8 -->
<svg xmlns="http://www.w3.org/2000/svg" xml:space="preserve" width="1.20215in" height="1.20217in" version="1.1" style="shape-rendering:geometricPrecision; text-rendering:geometricPrecision; image-rendering:optimizeQuality; fill-rule:evenodd; clip-rule:evenodd"
viewBox="0 0 187 187"
 xmlns:xlink="http://www.w3.org/1999/xlink">
 <defs>
  <style type="text/css">
   <![CDATA[
    .fil0 {fill:#FCCE29;fill-rule:nonzero}
    .fil1 {fill:#5E3C30;fill-rule:nonzero}
   ]]>
  </style>
 </defs>
 <g id="Layer_x0020_1">
  <metadata id="CorelCorpID_0Corel-Layer"/>
  <path class="fil0" d="M187 94c0,52 -42,93 -93,93 -52,0 -94,-41 -94,-93 0,-52 42,-94 94,-94 51,0 93,42 93,94z"/>
  <path class="fil1" d="M142 105c0,0 0,0 -1,0l-20 -6c-1,0 -2,-1 -2,-3 0,-1 1,-2 2,-3 0,0 15,-8 20,-10 2,-1 3,0 4,1 1,2 0,3 -1,4 -3,2 -9,5 -13,7l12 4c2,0 3,2 2,4 0,1 -1,2 -3,2z"/>
  <path class="fil1" d="M45 105c-1,0 -2,-1 -3,-2 0,-2 1,-4 2,-4l13 -4c-5,-2 -11,-5 -13,-7 -2,-1 -3,-2 -2,-4 1,-1 3,-2 4,-1 5,2 21,10 21,10 1,1 1,2 1,3 0,2 -1,3 -2,3l-20 6c0,0 -1,0 -1,0z"/>
  <path class="fil1" d="M154 66l0 0c-15,-2 -23,-14 -23,-15 -1,-1 -1,-3 1,-4 1,-1 3,-1 4,1 0,0 7,10 19,12 2,0 3,2 2,4 0,1 -1,2 -3,2z"/>
  <path class="fil1" d="M33 66c-1,0 -3,-1 -3,-2 0,-2 1,-4 3,-4 12,-2 18,-12 19,-12 0,-2 2,-2 4,-1 1,1 2,3 1,4 -1,1 -8,13 -23,15l-1 0z"/>
  <path class="fil1" d="M61 148c-1,0 -3,0 -3,-1l-9 -8c-2,-2 -2,-5 0,-7 2,-1 5,-1 7,0l5 5 13 -13c2,-1 5,-1 6,0l14 13 13 -13c2,-1 5,-1 6,0l14 13 5 -5c2,-1 5,-1 6,0 2,2 2,5 0,7l-8 8c-2,2 -5,2 -6,0l-14 -13 -13 13c-2,2 -5,2 -6,0l-14 -13 -13 13c-1,1 -2,1 -3,1z"/>
 </g>
</svg>
