<?xml version="1.0" encoding="UTF-8"?>
<!DOCTYPE svg PUBLIC "-//W3C//DTD SVG 1.1//EN" "http://www.w3.org/Graphics/SVG/1.1/DTD/svg11.dtd">
<!-- Creator: CorelDRAW X8 -->
<svg xmlns="http://www.w3.org/2000/svg" xml:space="preserve" width="7.66791in" height="7.66081in" version="1.1" style="shape-rendering:geometricPrecision; text-rendering:geometricPrecision; image-rendering:optimizeQuality; fill-rule:evenodd; clip-rule:evenodd"
viewBox="0 0 7668 7661"
 xmlns:xlink="http://www.w3.org/1999/xlink">
 <defs>
  <style type="text/css">
   <![CDATA[
    .fil0 {fill:#7B7D7F}
   ]]>
  </style>
 </defs>
 <g id="Layer_x0020_1">
  <metadata id="CorelCorpID_0Corel-Layer"/>
  <path class="fil0" d="M2353 0l2931 0c663,0 1236,269 1689,693 423,452 695,1030 695,1689l0 2926c0,664 -272,1236 -695,1660 -453,452 -1026,693 -1689,693l-2931 0c-664,0 -1237,-241 -1660,-693 -455,-424 -693,-996 -693,-1660l0 -2926c0,-659 238,-1237 693,-1689 423,-424 996,-693 1660,-693l0 0zm2931 395l-2931 0c-573,0 -1056,207 -1420,572 -363,361 -572,842 -572,1415l0 2926c0,544 209,1054 572,1419 364,361 847,573 1420,573l2931 0c572,0 1056,-212 1419,-573 361,-365 573,-875 573,-1419l0 -2926c0,-573 -212,-1054 -573,-1415 -363,-365 -847,-572 -1419,-572l0 0zm-2779 2714c-181,0 -304,-121 -304,-304 0,-149 123,-269 304,-269 151,0 300,120 300,269 0,183 -149,304 -300,304l0 0zm1328 1747c-1028,0 -1328,904 -1328,904 0,0 423,-298 1328,-298 876,0 1297,298 1297,298 0,0 -270,-904 -1297,-904l0 0zm1297 -2320c-150,0 -270,120 -270,269 0,183 120,304 270,304 182,0 303,-121 303,-304 0,-149 -121,-269 -303,-269l0 0z"/>
 </g>
</svg>
