<?xml version="1.0" encoding="UTF-8"?>
<!DOCTYPE svg PUBLIC "-//W3C//DTD SVG 1.1//EN" "http://www.w3.org/Graphics/SVG/1.1/DTD/svg11.dtd">
<!-- Creator: CorelDRAW X8 -->
<svg xmlns="http://www.w3.org/2000/svg" xml:space="preserve" width="8.31545in" height="8.31548in" version="1.1" style="shape-rendering:geometricPrecision; text-rendering:geometricPrecision; image-rendering:optimizeQuality; fill-rule:evenodd; clip-rule:evenodd"
viewBox="0 0 8315 8316"
 xmlns:xlink="http://www.w3.org/1999/xlink">
 <defs>
  <style type="text/css">
   <![CDATA[
    .fil2 {fill:#FEFEFE;fill-rule:nonzero}
    .fil0 {fill:#FCCE29;fill-rule:nonzero}
    .fil3 {fill:#F3A133;fill-rule:nonzero}
    .fil1 {fill:#5E3C30;fill-rule:nonzero}
   ]]>
  </style>
 </defs>
 <g id="Layer_x0020_1">
  <metadata id="CorelCorpID_0Corel-Layer"/>
  <g id="_310305880384">
   <path class="fil0" d="M8315 4158c0,2296 -1861,4158 -4157,4158 -2297,0 -4158,-1862 -4158,-4158 0,-2297 1861,-4158 4158,-4158 2296,0 4157,1861 4157,4158z"/>
   <path class="fil1" d="M4995 6167c-46,0 -93,-17 -129,-51 -174,-162 -412,-257 -669,-266 -287,-12 -558,85 -746,265 -76,72 -195,69 -267,-6 -72,-76 -69,-195 6,-267 262,-250 635,-385 1021,-370 348,13 672,144 912,368 77,71 81,191 10,267 -37,40 -88,60 -138,60z"/>
   <path class="fil1" d="M1646 2828c-33,0 -66,-14 -89,-41 -42,-49 -36,-123 13,-165 269,-230 610,-375 962,-406 66,-5 122,42 128,106 6,64 -42,121 -106,127 -304,27 -600,152 -831,351 -23,19 -50,28 -77,28z"/>
   <path class="fil1" d="M6669 2828c-27,0 -54,-9 -76,-28 -232,-199 -527,-324 -831,-351 -65,-6 -112,-63 -107,-127 6,-64 63,-111 128,-106 352,31 694,176 962,406 50,42 55,116 13,165 -23,27 -56,41 -89,41z"/>
   <path class="fil2" d="M6807 3917c0,502 -393,909 -878,909 -485,0 -878,-407 -878,-909 0,-502 393,-908 878,-908 485,0 878,406 878,908z"/>
   <path class="fil1" d="M6304 3917c0,214 -168,388 -375,388 -207,0 -375,-174 -375,-388 0,-214 168,-388 375,-388 207,0 375,174 375,388z"/>
   <path class="fil2" d="M3264 3917c0,502 -393,909 -878,909 -485,0 -878,-407 -878,-909 0,-502 393,-908 878,-908 485,0 878,406 878,908z"/>
   <path class="fil1" d="M2761 3917c0,214 -168,388 -375,388 -207,0 -375,-174 -375,-388 0,-214 168,-388 375,-388 207,0 375,174 375,388z"/>
   <path class="fil3" d="M6785 6301c-354,0 -641,-287 -641,-641 0,-354 287,-641 641,-641 354,0 641,287 641,641 0,354 -287,641 -641,641z"/>
   <path class="fil3" d="M1531 6301c-355,0 -641,-287 -641,-641 0,-354 286,-641 641,-641 353,0 641,287 641,641 0,354 -288,641 -641,641z"/>
  </g>
 </g>
</svg>
