<?xml version="1.0" encoding="UTF-8"?>
<!DOCTYPE svg PUBLIC "-//W3C//DTD SVG 1.1//EN" "http://www.w3.org/Graphics/SVG/1.1/DTD/svg11.dtd">
<!-- Creator: CorelDRAW X8 -->
<svg xmlns="http://www.w3.org/2000/svg" xml:space="preserve" width="7.84522in" height="7.83531in" version="1.1" style="shape-rendering:geometricPrecision; text-rendering:geometricPrecision; image-rendering:optimizeQuality; fill-rule:evenodd; clip-rule:evenodd"
viewBox="0 0 7845 7835"
 xmlns:xlink="http://www.w3.org/1999/xlink">
 <defs>
  <style type="text/css">
   <![CDATA[
    .fil0 {fill:#7B7D7F}
   ]]>
  </style>
 </defs>
 <g id="Layer_x0020_1">
  <metadata id="CorelCorpID_0Corel-Layer"/>
  <path class="fil0" d="M2409 0l2995 0c682,0 1270,276 1732,709 431,462 709,1053 709,1727l0 2992c0,680 -278,1265 -709,1698 -462,463 -1050,709 -1732,709l-2995 0c-679,0 -1267,-246 -1698,-709 -463,-433 -711,-1018 -711,-1698l0 -2992c0,-674 248,-1265 711,-1727 431,-433 1019,-709 1698,-709l0 0zm2995 404l-2995 0c-556,0 -1080,211 -1449,585 -372,369 -588,861 -588,1447l0 2992c0,586 216,1078 588,1452 369,369 893,586 1449,586l2995 0c588,0 1083,-217 1452,-586 372,-374 620,-866 620,-1452l0 -2992c0,-586 -248,-1078 -620,-1447 -369,-374 -864,-585 -1452,-585l0 0zm-2161 2559l-863 861 -219 -212 679 -649 -679 -650 219 -182 863 832zm682 1880c-1051,0 -1361,895 -1361,895 0,0 433,-280 1361,-280 893,0 1326,280 1326,280 0,0 -278,-895 -1326,-895l0 0zm1513 -2712l-866 832 866 861 214 -212 -647 -649 647 -650 -214 -182z"/>
 </g>
</svg>
