<?xml version="1.0" encoding="UTF-8"?>
<!DOCTYPE svg PUBLIC "-//W3C//DTD SVG 1.1//EN" "http://www.w3.org/Graphics/SVG/1.1/DTD/svg11.dtd">
<!-- Creator: CorelDRAW X8 -->
<svg xmlns="http://www.w3.org/2000/svg" xml:space="preserve" width="7.8353in" height="7.8353in" version="1.1" style="shape-rendering:geometricPrecision; text-rendering:geometricPrecision; image-rendering:optimizeQuality; fill-rule:evenodd; clip-rule:evenodd"
viewBox="0 0 7835 7835"
 xmlns:xlink="http://www.w3.org/1999/xlink">
 <defs>
  <style type="text/css">
   <![CDATA[
    .str1 {stroke:#3F3408;stroke-width:13.8898}
    .str0 {stroke:#3F3408;stroke-width:55.5552;stroke-linecap:round}
    .fil2 {fill:none;fill-rule:nonzero}
    .fil1 {fill:#3F3408;fill-rule:nonzero}
    .fil0 {fill:#FFD11F;fill-rule:nonzero}
   ]]>
  </style>
 </defs>
 <g id="Layer_x0020_1">
  <metadata id="CorelCorpID_0Corel-Layer"/>
  <g id="_310479316960">
   <path class="fil0" d="M7835 3918c0,2163 -1754,3917 -3917,3917 -2164,0 -3918,-1754 -3918,-3917 0,-2164 1754,-3918 3918,-3918 2163,0 3917,1754 3917,3918z"/>
   <path class="fil1" d="M2134 4077c-156,0 -284,-128 -284,-284l0 -683c0,-157 128,-285 284,-285 157,0 285,128 285,285l0 683c0,156 -128,284 -285,284z"/>
   <path class="fil1" d="M5701 4077c-156,0 -285,-128 -285,-284l0 -683c0,-157 129,-285 285,-285 157,0 285,128 285,285l0 683c0,156 -128,284 -285,284z"/>
   <path class="fil2 str0" d="M1696 2115c0,0 561,231 761,-272"/>
   <path class="fil2 str0" d="M6085 2115c0,0 -561,231 -761,-272"/>
   <path class="fil1 str1" d="M5317 6025c65,67 180,5 155,-84 0,-1 0,-2 -1,-3 -122,-408 -532,-1436 -1547,-1436 -1015,0 -1433,1035 -1560,1447 0,1 0,2 0,2 -26,90 90,152 154,85 205,-216 813,-562 1400,-562 587,0 1194,338 1399,551z"/>
   <path class="fil2 str1" d="M5317 6025c65,67 180,5 155,-84 0,-1 0,-2 -1,-3 -122,-408 -532,-1436 -1547,-1436 -1015,0 -1433,1035 -1560,1447 0,1 0,2 0,2 -26,90 90,152 154,85 205,-216 813,-562 1400,-562 587,0 1194,338 1399,551z"/>
  </g>
 </g>
</svg>
