<?xml version="1.0" encoding="UTF-8"?>
<!DOCTYPE svg PUBLIC "-//W3C//DTD SVG 1.1//EN" "http://www.w3.org/Graphics/SVG/1.1/DTD/svg11.dtd">
<!-- Creator: CorelDRAW X8 -->
<svg xmlns="http://www.w3.org/2000/svg" xml:space="preserve" width="7.80377in" height="7.79167in" version="1.1" style="shape-rendering:geometricPrecision; text-rendering:geometricPrecision; image-rendering:optimizeQuality; fill-rule:evenodd; clip-rule:evenodd"
viewBox="0 0 7804 7792"
 xmlns:xlink="http://www.w3.org/1999/xlink">
 <defs>
  <style type="text/css">
   <![CDATA[
    .fil0 {fill:#7B7D7F}
   ]]>
  </style>
 </defs>
 <g id="Layer_x0020_1">
  <metadata id="CorelCorpID_0Corel-Layer"/>
  <path class="fil0" d="M2395 0l2979 0c675,0 1260,274 1723,705 430,460 707,1047 707,1718l0 2975c0,676 -277,1259 -707,1689 -463,460 -1048,705 -1723,705l-2979 0c-675,0 -1257,-245 -1688,-705 -460,-430 -707,-1013 -707,-1689l0 -2975c0,-671 247,-1258 707,-1718 431,-431 1013,-705 1688,-705l0 0zm2979 402l-2979 0c-550,0 -1074,210 -1443,582 -367,367 -583,856 -583,1439l0 2975c0,554 216,1072 583,1444 369,367 893,583 1443,583l2979 0c585,0 1076,-216 1446,-583 369,-372 583,-890 583,-1444l0 -2975c0,-583 -214,-1072 -583,-1439 -370,-372 -861,-582 -1446,-582l0 0zm-2548 2760c0,152 -122,303 -276,303 -184,0 -308,-151 -308,-303 0,-157 124,-309 308,-309 154,0 276,152 276,309l0 0zm-183 -1199l-984 675 186 245 981 -676 -183 -244zm-401 3592l0 304c0,0 584,-612 1629,-612 1075,0 1659,612 1659,612l0 -304c0,0 -584,-617 -1659,-617 -1045,0 -1629,617 -1629,617l0 0zm3288 -2393c0,-157 -124,-309 -308,-309 -154,0 -276,152 -276,309 0,152 122,303 276,303 184,0 308,-151 308,-303l0 0zm-584 -955l983 676 184 -245 -984 -675 -183 244z"/>
 </g>
</svg>
