<?xml version="1.0" encoding="UTF-8"?>
<!DOCTYPE svg PUBLIC "-//W3C//DTD SVG 1.1//EN" "http://www.w3.org/Graphics/SVG/1.1/DTD/svg11.dtd">
<!-- Creator: CorelDRAW X8 -->
<svg xmlns="http://www.w3.org/2000/svg" xml:space="preserve" width="7.74802in" height="7.7385in" version="1.1" style="shape-rendering:geometricPrecision; text-rendering:geometricPrecision; image-rendering:optimizeQuality; fill-rule:evenodd; clip-rule:evenodd"
viewBox="0 0 7748 7739"
 xmlns:xlink="http://www.w3.org/1999/xlink">
 <defs>
  <style type="text/css">
   <![CDATA[
    .fil0 {fill:#7B7D7F}
   ]]>
  </style>
 </defs>
 <g id="Layer_x0020_1">
  <metadata id="CorelCorpID_0Corel-Layer"/>
  <path class="fil0" d="M2379 0l2990 0c639,0 1252,272 1679,700 426,457 700,1040 700,1706l0 2956c0,670 -274,1249 -700,1677 -427,456 -1040,700 -1679,700l-2990 0c-671,0 -1249,-244 -1677,-700 -428,-428 -702,-1007 -702,-1677l0 -2956c0,-666 274,-1249 702,-1706 428,-428 1006,-700 1677,-700l0 0zm2990 399l-2990 0c-549,0 -1067,209 -1434,578 -364,365 -578,851 -578,1429l0 2956c0,578 214,1064 578,1434 367,364 885,578 1434,578l2990 0c549,0 1038,-214 1402,-578 367,-370 613,-856 613,-1434l0 -2956c0,-578 -246,-1064 -613,-1429 -364,-369 -853,-578 -1402,-578l0 0zm-2441 1856l183 243 -975 642 -184 -243 976 -642zm1677 3107c0,427 -335,734 -731,734 -428,0 -763,-307 -763,-734 0,-428 335,-730 763,-730 396,0 731,302 731,730l0 0zm-303 0c0,-244 -214,-457 -428,-457 -243,0 -457,213 -457,457 0,243 214,457 457,457 214,0 428,-214 428,-457l0 0zm335 -2864l975 642 153 -243 -975 -642 -153 243z"/>
 </g>
</svg>
