<?xml version="1.0" encoding="UTF-8"?>
<!DOCTYPE svg PUBLIC "-//W3C//DTD SVG 1.1//EN" "http://www.w3.org/Graphics/SVG/1.1/DTD/svg11.dtd">
<!-- Creator: CorelDRAW X8 -->
<svg xmlns="http://www.w3.org/2000/svg" xml:space="preserve" width="7.96636in" height="7.95391in" version="1.1" style="shape-rendering:geometricPrecision; text-rendering:geometricPrecision; image-rendering:optimizeQuality; fill-rule:evenodd; clip-rule:evenodd"
viewBox="0 0 7966 7954"
 xmlns:xlink="http://www.w3.org/1999/xlink">
 <defs>
  <style type="text/css">
   <![CDATA[
    .fil0 {fill:#7B7D7F;fill-rule:nonzero}
   ]]>
  </style>
 </defs>
 <g id="Layer_x0020_1">
  <metadata id="CorelCorpID_0Corel-Layer"/>
  <path class="fil0" d="M5364 3917l0 0c124,0 219,315 219,405 0,125 -95,190 -190,190 -125,0 -187,-65 -187,-190 0,-90 62,-405 158,-405l0 0zm751 2348l0 0c-469,-659 -1221,-1099 -2101,-1099 -876,0 -1661,440 -2101,1099 253,-909 1097,-1569 2101,-1569 1005,0 1851,660 2101,1569l0 0zm-1379 -3257l0 0c0,-345 283,-595 628,-595 314,0 594,250 594,595 0,345 -280,624 -594,624 -345,0 -628,-279 -628,-624l0 0zm-2633 0l0 0c0,-345 280,-595 625,-595 347,0 597,250 597,595 0,345 -250,624 -597,624 -345,0 -625,-279 -625,-624l0 0zm1881 4631l0 0c-2038,0 -3669,-1624 -3669,-3632 0,-2034 1631,-3662 3669,-3662 2006,0 3668,1628 3668,3662 0,2008 -1662,3632 -3668,3632l0 0zm0 -7639c-2195,0 -3984,1789 -3984,4007 0,2193 1789,3947 3984,3947 2194,0 3982,-1754 3982,-3947 0,-2218 -1788,-4007 -3982,-4007l0 0z"/>
 </g>
</svg>
