<?xml version="1.0" encoding="UTF-8"?>
<!DOCTYPE svg PUBLIC "-//W3C//DTD SVG 1.1//EN" "http://www.w3.org/Graphics/SVG/1.1/DTD/svg11.dtd">
<!-- Creator: CorelDRAW X8 -->
<svg xmlns="http://www.w3.org/2000/svg" xml:space="preserve" width="7.84558in" height="7.83531in" version="1.1" style="shape-rendering:geometricPrecision; text-rendering:geometricPrecision; image-rendering:optimizeQuality; fill-rule:evenodd; clip-rule:evenodd"
viewBox="0 0 7846 7835"
 xmlns:xlink="http://www.w3.org/1999/xlink">
 <defs>
  <style type="text/css">
   <![CDATA[
    .fil0 {fill:#7B7D7F}
   ]]>
  </style>
 </defs>
 <g id="Layer_x0020_1">
  <metadata id="CorelCorpID_0Corel-Layer"/>
  <path class="fil0" d="M2407 0l3027 0c650,0 1270,276 1700,709 431,462 712,1053 712,1727l0 2993c0,679 -281,1265 -712,1698 -430,463 -1050,708 -1700,708l-3027 0c-679,0 -1265,-245 -1698,-708 -431,-433 -709,-1019 -709,-1698l0 -2993c0,-674 278,-1265 709,-1727 433,-433 1019,-709 1698,-709l0 0zm3027 404l-3027 0c-556,0 -1078,211 -1449,585 -372,369 -588,862 -588,1447l0 2993c0,585 216,1078 588,1452 371,369 893,585 1449,585l3027 0c556,0 1051,-216 1422,-585 369,-374 618,-867 618,-1452l0 -2993c0,-585 -249,-1078 -618,-1447 -371,-374 -866,-585 -1422,-585l0 0zm-1974 2465c0,-492 -403,-895 -898,-895 -524,0 -894,403 -894,895 0,522 370,926 894,926 495,0 898,-404 898,-926l0 0zm-898 616c-340,0 -618,-276 -618,-616 0,-310 278,-585 618,-585 340,0 588,275 588,585 0,340 -248,616 -588,616l0 0zm588 1791l1514 0 0 310 -1514 0 0 -310zm-278 -2407c0,188 -155,311 -310,311 -155,0 -308,-123 -308,-311 0,-152 153,-275 308,-275 155,0 310,123 310,275l0 0zm2377 -895c-495,0 -895,403 -895,895 0,522 400,926 895,926 527,0 928,-404 928,-926 0,-492 -401,-895 -928,-895l0 0zm0 1511c-310,0 -585,-276 -585,-616 0,-310 275,-585 585,-585 340,0 618,275 618,585 0,340 -278,616 -618,616l0 0zm308 -616c0,188 -123,311 -308,311 -155,0 -278,-123 -278,-311 0,-152 123,-275 278,-275 185,0 308,123 308,275l0 0z"/>
 </g>
</svg>
