<?xml version="1.0" encoding="UTF-8"?>
<!DOCTYPE svg PUBLIC "-//W3C//DTD SVG 1.1//EN" "http://www.w3.org/Graphics/SVG/1.1/DTD/svg11.dtd">
<!-- Creator: CorelDRAW X8 -->
<svg xmlns="http://www.w3.org/2000/svg" xml:space="preserve" width="8.5in" height="11in" version="1.1" style="shape-rendering:geometricPrecision; text-rendering:geometricPrecision; image-rendering:optimizeQuality; fill-rule:evenodd; clip-rule:evenodd"
viewBox="0 0 8500 11000"
 xmlns:xlink="http://www.w3.org/1999/xlink">
 <defs>
  <style type="text/css">
   <![CDATA[
    .str0 {stroke:#373435;stroke-width:6.94488}
    .fil2 {fill:#373435}
    .fil1 {fill:#3F3408;fill-rule:nonzero}
    .fil0 {fill:#FFD11F;fill-rule:nonzero}
   ]]>
  </style>
 </defs>
 <g id="Layer_x0020_1">
  <metadata id="CorelCorpID_0Corel-Layer"/>
  <path class="fil0" d="M8168 5500c0,2164 -1754,3918 -3918,3918 -2164,0 -3918,-1754 -3918,-3918 0,-2164 1754,-3918 3918,-3918 2164,0 3918,1754 3918,3918z"/>
  <path class="fil1" d="M3244 4760c0,156 -128,285 -284,285l-987 0c-156,0 -284,-129 -284,-285 0,-157 128,-285 284,-285l987 0c156,0 284,128 284,285z"/>
  <path class="fil1" d="M6811 4760c0,156 -128,285 -284,285l-987 0c-156,0 -284,-129 -284,-285 0,-157 128,-285 284,-285l987 0c156,0 284,128 284,285z"/>
  <polygon class="fil2 str0" points="1751,6796 6749,6796 6749,6844 1751,6844 "/>
 </g>
</svg>
