<?xml version="1.0" encoding="UTF-8"?>
<!DOCTYPE svg PUBLIC "-//W3C//DTD SVG 1.1//EN" "http://www.w3.org/Graphics/SVG/1.1/DTD/svg11.dtd">
<!-- Creator: CorelDRAW X8 -->
<svg xmlns="http://www.w3.org/2000/svg" xml:space="preserve" width="7.80124in" height="7.79167in" version="1.1" style="shape-rendering:geometricPrecision; text-rendering:geometricPrecision; image-rendering:optimizeQuality; fill-rule:evenodd; clip-rule:evenodd"
viewBox="0 0 7801 7792"
 xmlns:xlink="http://www.w3.org/1999/xlink">
 <defs>
  <style type="text/css">
   <![CDATA[
    .fil0 {fill:#7B7D7F}
   ]]>
  </style>
 </defs>
 <g id="Layer_x0020_1">
  <metadata id="CorelCorpID_0Corel-Layer"/>
  <path class="fil0" d="M2396 0l3012 0c676,0 1258,274 1689,705 428,460 704,1047 704,1718l0 2975c0,676 -276,1258 -704,1689 -431,460 -1013,705 -1689,705l-3012 0c-644,0 -1260,-245 -1689,-705 -431,-431 -707,-1013 -707,-1689l0 -2975c0,-671 276,-1258 707,-1718 429,-431 1045,-705 1689,-705l0 0zm3012 401l-3012 0c-551,0 -1043,211 -1412,583 -370,367 -615,856 -615,1439l0 2975c0,583 245,1072 615,1444 369,367 861,583 1412,583l3012 0c551,0 1072,-216 1441,-583 370,-372 585,-891 585,-1444l0 -2975c0,-583 -215,-1072 -585,-1439 -369,-372 -890,-583 -1441,-583l0 0zm-156 5458c0,0 -461,-304 -1351,-304 -891,0 -1351,304 -1351,304 0,0 308,-921 1351,-921 1042,0 1351,921 1351,921l0 0zm-2274 -3588l-981 646 154 245 981 -647 -154 -244zm1691 244l984 647 183 -245 -983 -646 -184 244z"/>
 </g>
</svg>
