<?xml version="1.0" encoding="UTF-8"?>
<!DOCTYPE svg PUBLIC "-//W3C//DTD SVG 1.1//EN" "http://www.w3.org/Graphics/SVG/1.1/DTD/svg11.dtd">
<!-- Creator: CorelDRAW X8 -->
<svg xmlns="http://www.w3.org/2000/svg" xml:space="preserve" width="7.4862in" height="7.47675in" version="1.1" style="shape-rendering:geometricPrecision; text-rendering:geometricPrecision; image-rendering:optimizeQuality; fill-rule:evenodd; clip-rule:evenodd"
viewBox="0 0 7486 7477"
 xmlns:xlink="http://www.w3.org/1999/xlink">
 <defs>
  <style type="text/css">
   <![CDATA[
    .fil0 {fill:#7B7D7F}
   ]]>
  </style>
 </defs>
 <g id="Layer_x0020_1">
  <metadata id="CorelCorpID_0Corel-Layer"/>
  <path class="fil0" d="M2299 0l2888 0c618,0 1207,263 1620,676 414,442 679,1005 679,1649l0 2855c0,648 -265,1207 -679,1621 -413,441 -1002,676 -1620,676l-2888 0c-620,0 -1209,-235 -1623,-676 -411,-414 -676,-973 -676,-1621l0 -2855c0,-644 265,-1207 676,-1649 414,-413 1003,-676 1623,-676l0 0zm2888 385l-2888 0c-531,0 -1003,202 -1357,559 -353,352 -590,822 -590,1381l0 2855c0,559 237,1029 590,1386 354,352 826,558 1357,558l2888 0c531,0 1031,-206 1386,-558 352,-357 559,-827 559,-1386l0 -2855c0,-559 -207,-1029 -559,-1381 -355,-357 -855,-559 -1386,-559l0 0zm-737 1498l1148 0 0 296 -1148 0 0 -296zm-1710 1151c0,146 -117,291 -295,291 -146,0 -263,-145 -263,-291 0,-150 117,-296 263,-296 178,0 295,146 295,296l0 0zm-854 -1151l1148 0 0 296 -1148 0 0 -296zm1857 2593c-413,0 -709,291 -709,704 0,413 296,709 709,709 411,0 707,-296 707,-709 0,-413 -296,-704 -707,-704l0 0zm0 1146c-237,0 -444,-207 -444,-442 0,-235 207,-441 444,-441 235,0 441,206 441,441 0,235 -206,442 -441,442l0 0zm1590 -2588c0,146 -146,291 -294,291 -178,0 -293,-145 -293,-291 0,-150 115,-296 293,-296 148,0 294,146 294,296l0 0z"/>
 </g>
</svg>
