<?xml version="1.0" encoding="UTF-8"?>
<!DOCTYPE svg PUBLIC "-//W3C//DTD SVG 1.1//EN" "http://www.w3.org/Graphics/SVG/1.1/DTD/svg11.dtd">
<!-- Creator: CorelDRAW X8 -->
<svg xmlns="http://www.w3.org/2000/svg" xml:space="preserve" width="7.74811in" height="7.73582in" version="1.1" style="shape-rendering:geometricPrecision; text-rendering:geometricPrecision; image-rendering:optimizeQuality; fill-rule:evenodd; clip-rule:evenodd"
viewBox="0 0 7748 7736"
 xmlns:xlink="http://www.w3.org/1999/xlink">
 <defs>
  <style type="text/css">
   <![CDATA[
    .fil0 {fill:#7B7D7F}
   ]]>
  </style>
 </defs>
 <g id="Layer_x0020_1">
  <metadata id="CorelCorpID_0Corel-Layer"/>
  <path class="fil0" d="M2381 0l2986 0c642,0 1251,272 1679,700 427,456 702,1040 702,1705l0 2954c0,671 -275,1249 -702,1677 -428,457 -1037,700 -1679,700l-2986 0c-641,0 -1249,-243 -1679,-700 -425,-428 -702,-1006 -702,-1677l0 -2954c0,-665 277,-1249 702,-1705 430,-428 1038,-700 1679,-700l0 0zm2986 398l-2986 0c-549,0 -1069,210 -1433,579 -367,364 -581,850 -581,1428l0 2954c0,550 214,1065 581,1434 364,364 884,578 1433,578l2986 0c552,0 1037,-214 1407,-578 364,-369 607,-884 607,-1434l0 -2954c0,-578 -243,-1064 -607,-1428 -370,-369 -855,-579 -1407,-579l0 0zm-2223 2435l-1190 0 0 -272 1190 0 0 272zm-612 2682l2685 0 0 -306 -2685 0 0 306zm2075 -2682l1190 0 0 -272 -1190 0 0 272z"/>
 </g>
</svg>
