<?xml version="1.0" encoding="UTF-8"?>
<!DOCTYPE svg PUBLIC "-//W3C//DTD SVG 1.1//EN" "http://www.w3.org/Graphics/SVG/1.1/DTD/svg11.dtd">
<!-- Creator: CorelDRAW X8 -->
<svg xmlns="http://www.w3.org/2000/svg" xml:space="preserve" width="7.74802in" height="7.7385in" version="1.1" style="shape-rendering:geometricPrecision; text-rendering:geometricPrecision; image-rendering:optimizeQuality; fill-rule:evenodd; clip-rule:evenodd"
viewBox="0 0 7748 7739"
 xmlns:xlink="http://www.w3.org/1999/xlink">
 <defs>
  <style type="text/css">
   <![CDATA[
    .fil0 {fill:#7B7D7F}
   ]]>
  </style>
 </defs>
 <g id="Layer_x0020_1">
  <metadata id="CorelCorpID_0Corel-Layer"/>
  <path class="fil0" d="M2379 0l2990 0c671,0 1249,272 1677,700 428,457 702,1040 702,1706l0 2955c0,671 -274,1249 -702,1677 -428,457 -1006,701 -1677,701l-2990 0c-641,0 -1252,-244 -1677,-701 -428,-428 -702,-1006 -702,-1677l0 -2955c0,-666 274,-1249 702,-1706 425,-428 1036,-700 1677,-700l0 0zm2990 398l-2990 0c-549,0 -1038,210 -1404,579 -365,364 -608,850 -608,1429l0 2955c0,550 243,1065 608,1434 366,365 855,579 1404,579l2990 0c549,0 1067,-214 1434,-579 367,-369 578,-884 578,-1434l0 -2955c0,-579 -211,-1065 -578,-1429 -367,-369 -885,-579 -1434,-579l0 0zm-3204 3321l640 -671 -640 -608 183 -214 884 822 -884 850 -183 -179zm93 1798c0,637 364,-306 1616,-306 1249,0 1648,943 1648,306 0,0 -610,-612 -1648,-612 -1038,0 -1616,612 -1616,612l0 0zm3142 -3291l-884 822 884 850 212 -179 -671 -671 671 -608 -212 -214z"/>
 </g>
</svg>
