<?xml version="1.0" encoding="UTF-8"?>
<!DOCTYPE svg PUBLIC "-//W3C//DTD SVG 1.1//EN" "http://www.w3.org/Graphics/SVG/1.1/DTD/svg11.dtd">
<!-- Creator: CorelDRAW X8 -->
<svg xmlns="http://www.w3.org/2000/svg" xml:space="preserve" width="7.62643in" height="7.61706in" version="1.1" style="shape-rendering:geometricPrecision; text-rendering:geometricPrecision; image-rendering:optimizeQuality; fill-rule:evenodd; clip-rule:evenodd"
viewBox="0 0 7626 7617"
 xmlns:xlink="http://www.w3.org/1999/xlink">
 <defs>
  <style type="text/css">
   <![CDATA[
    .fil0 {fill:#7B7D7F}
   ]]>
  </style>
 </defs>
 <g id="Layer_x0020_1">
  <metadata id="CorelCorpID_0Corel-Layer"/>
  <path class="fil0" d="M2342 0l2943 0c629,0 1232,268 1650,689 419,450 691,1024 691,1679l0 2909c0,661 -272,1230 -691,1651 -418,450 -1021,689 -1650,689l-2943 0c-632,0 -1232,-239 -1653,-689 -419,-421 -689,-990 -689,-1651l0 -2909c0,-655 270,-1229 689,-1679 421,-421 1021,-689 1653,-689l0 0zm2943 392l-2943 0c-543,0 -1050,206 -1380,570 -361,358 -603,837 -603,1406l0 2909c0,541 242,1048 603,1412 330,359 837,569 1380,569l2943 0c540,0 1050,-210 1380,-569 390,-364 600,-871 600,-1412l0 -2909c0,-569 -210,-1048 -600,-1406 -330,-364 -840,-570 -1380,-570l0 0zm-2795 2995c-148,0 -299,-119 -299,-296 0,-153 151,-273 299,-273 182,0 302,120 302,273 0,177 -120,296 -302,296l0 0zm1323 1469c-1021,0 -1323,871 -1323,871 0,0 452,-297 1323,-297 871,0 1321,297 1321,297 0,0 -299,-871 -1321,-871l0 0zm-1200 -2938l-962 661 148 239 961 -660 -147 -240zm2521 900c-182,0 -299,120 -299,273 0,177 117,296 299,296 151,0 270,-119 270,-296 0,-153 -119,-273 -270,-273l0 0zm-271 -660l962 660 151 -239 -962 -661 -151 240z"/>
 </g>
</svg>
