<?xml version="1.0" encoding="UTF-8"?>
<!DOCTYPE svg PUBLIC "-//W3C//DTD SVG 1.1//EN" "http://www.w3.org/Graphics/SVG/1.1/DTD/svg11.dtd">
<!-- Creator: CorelDRAW X8 -->
<svg xmlns="http://www.w3.org/2000/svg" xml:space="preserve" width="7.96627in" height="7.96637in" version="1.1" style="shape-rendering:geometricPrecision; text-rendering:geometricPrecision; image-rendering:optimizeQuality; fill-rule:evenodd; clip-rule:evenodd"
viewBox="0 0 7966 7966"
 xmlns:xlink="http://www.w3.org/1999/xlink">
 <defs>
  <style type="text/css">
   <![CDATA[
    .fil1 {fill:#5E3C30;fill-rule:nonzero}
    .fil2 {fill:#68C2ED;fill-rule:nonzero}
    .fil0 {fill:url(#id0)}
   ]]>
  </style>
  <linearGradient id="id0" gradientUnits="userSpaceOnUse" x1="3983.08" y1="-852" x2="3983.08" y2="7256.95">
   <stop offset="0" style="stop-opacity:1; stop-color:#5B91CC"/>
   <stop offset="0.521569" style="stop-opacity:1; stop-color:#7BBFBF"/>
   <stop offset="0.811765" style="stop-opacity:1; stop-color:#F6CE2E"/>
   <stop offset="1" style="stop-opacity:1; stop-color:#FCCE29"/>
  </linearGradient>
 </defs>
 <g id="Layer_x0020_1">
  <metadata id="CorelCorpID_0Corel-Layer"/>
  <g id="_309882993776">
   <path class="fil0" d="M7966 3983c0,2200 -1783,3983 -3983,3983 -2200,0 -3983,-1783 -3983,-3983 0,-2200 1783,-3983 3983,-3983 2200,0 3983,1783 3983,3983z"/>
   <path class="fil1" d="M2773 4093c0,321 -183,581 -409,581 -226,0 -409,-260 -409,-581 0,-320 183,-580 409,-580 226,0 409,260 409,580z"/>
   <path class="fil1" d="M6090 4093c0,321 -183,581 -409,581 -226,0 -409,-260 -409,-581 0,-320 183,-580 409,-580 226,0 409,260 409,580z"/>
   <path class="fil1" d="M5214 6293c103,22 174,-133 106,-234 -302,-445 -771,-731 -1298,-731 -526,0 -995,286 -1297,731 -68,101 3,256 106,234 358,-73 763,-114 1191,-114 429,0 834,41 1192,114z"/>
   <path class="fil1" d="M6421 3055l-20 -1c-647,-100 -972,-626 -986,-648 -37,-61 -17,-141 44,-178 61,-38 141,-18 178,43 5,8 281,445 804,526 71,11 120,77 109,148 -10,64 -66,110 -129,110z"/>
   <path class="fil1" d="M1624 3055c-63,0 -119,-46 -129,-110 -11,-71 38,-137 109,-148 529,-82 801,-521 803,-526 38,-61 117,-81 179,-43 61,37 81,117 44,178 -14,22 -339,548 -986,648l-20 1z"/>
   <path class="fil2" d="M2364 5941c0,312 -253,565 -565,565 -312,0 -564,-253 -564,-565 0,-238 330,-803 485,-1057 36,-59 122,-59 158,0 156,254 486,819 486,1057z"/>
  </g>
 </g>
</svg>
