<?xml version="1.0" standalone="no"?>
<!DOCTYPE svg PUBLIC "-//W3C//DTD SVG 20010904//EN"
 "http://www.w3.org/TR/2001/REC-SVG-20010904/DTD/svg10.dtd">
<svg version="1.0" xmlns="http://www.w3.org/2000/svg"
 width="933.000000pt" height="1280.000000pt" viewBox="0 0 933.000000 1280.000000"
 preserveAspectRatio="xMidYMid meet">
<metadata>
Created by potrace 1.15, written by Peter Selinger 2001-2017
</metadata>
<g transform="translate(0.000000,1280.000000) scale(0.100000,-0.100000)"
fill="#000000" stroke="none">
<path d="M4305 12790 c-762 -63 -1521 -347 -2200 -824 -726 -511 -1343 -1221
-1729 -1993 -207 -414 -329 -808 -366 -1186 -9 -89 -9 -737 -1 -2635 6 -1384
13 -3196 17 -4027 3 -950 9 -1522 16 -1542 13 -45 57 -73 123 -80 45 -5 63 -1
107 20 62 30 58 24 209 304 267 497 565 945 875 1318 142 172 497 525 654 651
231 186 421 315 640 433 145 79 161 95 168 159 4 44 1 54 -20 75 -16 16 -45
29 -79 35 -237 45 -299 58 -421 93 -839 237 -1390 791 -1542 1549 -135 673 73
1417 543 1946 235 266 522 451 868 561 l118 38 3225 5 3225 5 65 35 c250 135
434 497 506 995 22 150 25 558 6 715 -113 917 -540 1705 -1238 2284 -241 200
-456 340 -764 494 -620 313 -1289 485 -2160 557 -219 19 -699 27 -845 15z
m3335 -2799 c244 -84 409 -314 410 -572 0 -287 -203 -535 -490 -595 -293 -62
-600 125 -693 421 -34 109 -31 253 9 365 17 47 47 112 68 143 77 115 215 213
356 252 81 22 255 15 340 -14z"/>
<path d="M4235 2514 c-481 -87 -1116 -409 -1650 -839 -444 -358 -806 -767
-1086 -1228 -52 -86 -58 -111 -34 -157 37 -71 114 -90 191 -46 23 13 97 66
165 117 429 327 937 638 1319 809 355 159 601 240 1205 394 318 82 403 110
465 153 98 69 150 175 150 302 0 136 -50 251 -155 357 -73 74 -144 117 -230
140 -64 18 -237 16 -340 -2z"/>
<path d="M5055 1154 c-128 -18 -190 -29 -255 -46 -357 -92 -706 -315 -984
-627 -161 -181 -286 -357 -286 -403 0 -36 40 -78 73 -78 13 0 93 33 178 74
434 209 703 286 1332 381 364 55 468 86 542 162 60 61 70 88 70 183 0 70 -4
93 -24 129 -53 101 -150 175 -267 206 -57 15 -316 28 -379 19z"/>
</g>
</svg>
