<?xml version="1.0" standalone="no"?>
<!DOCTYPE svg PUBLIC "-//W3C//DTD SVG 20010904//EN"
 "http://www.w3.org/TR/2001/REC-SVG-20010904/DTD/svg10.dtd">
<svg version="1.0" xmlns="http://www.w3.org/2000/svg"
 width="1280.000000pt" height="1105.000000pt" viewBox="0 0 1280.000000 1105.000000"
 preserveAspectRatio="xMidYMid meet">
<metadata>
Created by potrace 1.15, written by Peter Selinger 2001-2017
</metadata>
<g transform="translate(0.000000,1105.000000) scale(0.100000,-0.100000)"
fill="#000000" stroke="none">
<path d="M2354 11025 c-54 -27 -108 -84 -166 -175 -103 -161 -292 -601 -392
-910 -59 -185 -102 -274 -137 -285 -32 -11 -71 24 -92 81 -16 44 -17 76 -12
309 4 203 2 273 -8 318 -29 117 -97 177 -200 177 -69 0 -124 -37 -157 -105
-23 -47 -23 -50 -14 -279 5 -127 9 -334 9 -461 l0 -230 -47 -180 c-57 -217
-87 -377 -95 -505 -9 -154 25 -254 157 -460 99 -154 124 -210 118 -268 -7 -65
-120 -299 -213 -438 -97 -145 -229 -311 -565 -704 -420 -492 -527 -639 -537
-735 -13 -124 72 -215 247 -266 66 -19 103 -22 307 -24 255 -3 341 -12 573
-56 140 -26 666 -105 879 -131 80 -10 173 -3 224 17 15 6 17 -1 17 -83 0 -219
48 -548 120 -827 126 -489 335 -926 635 -1331 591 -797 1471 -1339 2448 -1508
l37 -7 0 -113 c0 -137 -19 -243 -65 -368 -19 -51 -40 -128 -47 -171 -38 -252
109 -654 306 -834 79 -72 347 -266 453 -327 198 -115 514 -173 713 -131 127
27 382 137 495 215 107 74 169 182 169 295 0 58 -5 82 -32 140 -28 59 -53 90
-171 205 -236 231 -353 384 -425 556 -65 154 -106 339 -106 475 l0 66 113 23
c320 65 649 181 960 336 71 36 130 64 132 62 1 -2 12 -23 25 -47 12 -24 41
-74 65 -111 24 -37 97 -159 163 -271 66 -112 171 -283 234 -380 133 -204 206
-341 283 -534 106 -264 230 -397 375 -399 43 -1 65 5 100 26 43 25 49 34 110
170 85 192 348 710 444 878 189 327 336 540 507 736 205 234 192 228 409 193
182 -30 341 -32 420 -5 98 33 452 219 577 303 191 129 249 155 583 268 308
104 377 132 422 173 51 46 69 82 70 142 0 60 -29 116 -79 150 -33 22 -47 25
-127 24 -99 0 -131 -11 -425 -144 -131 -59 -231 -84 -280 -70 -112 32 -76 97
157 294 167 140 511 486 619 621 146 183 192 315 142 404 -40 71 -140 123
-205 107 -57 -15 -84 -44 -199 -225 -57 -91 -124 -162 -280 -299 -66 -58 -167
-151 -225 -207 -61 -59 -135 -119 -176 -144 -79 -46 -179 -85 -200 -77 -47 18
20 110 251 346 105 107 245 258 310 335 65 77 164 187 220 245 128 133 158
172 197 257 40 85 46 177 13 213 -67 75 -189 65 -329 -28 -97 -64 -367 -330
-510 -503 -223 -270 -468 -533 -489 -526 -41 13 65 299 165 445 18 26 66 92
108 147 42 55 114 156 161 225 60 90 118 160 206 247 101 102 124 132 138 174
41 123 -23 235 -134 233 -98 -1 -208 -89 -409 -327 -153 -182 -197 -239 -289
-377 -176 -263 -291 -492 -334 -665 -27 -108 -38 -133 -61 -140 -45 -15 -102
59 -198 258 -52 108 -68 133 -120 180 -126 114 -280 157 -380 105 -44 -22
-110 -103 -110 -133 0 -8 24 -27 53 -44 99 -56 191 -171 222 -275 22 -71 47
-312 40 -366 -4 -25 -32 -108 -62 -185 -55 -136 -57 -144 -61 -254 -7 -181 21
-327 103 -530 21 -52 34 -98 31 -109 -12 -37 -94 -143 -288 -373 -109 -129
-236 -283 -283 -344 -182 -234 -364 -531 -441 -720 -22 -52 -42 -95 -46 -95
-9 0 -108 169 -162 277 -46 92 -128 289 -240 574 -32 81 -75 174 -97 206 -43
67 -146 175 -202 213 -20 14 -37 27 -37 30 0 3 23 24 52 45 186 141 480 430
631 620 687 863 972 1908 817 2995 -67 475 -246 977 -496 1397 -394 661 -973
1191 -1658 1518 -579 277 -1187 400 -1846 373 -162 -7 -210 -11 -405 -39 -700
-100 -1404 -427 -1954 -906 -46 -40 -87 -73 -91 -73 -4 0 -13 14 -20 30 -18
44 -118 132 -186 165 -53 25 -75 29 -204 36 -237 13 -302 28 -315 70 -11 33
19 64 179 183 148 111 214 173 261 246 173 269 456 800 506 950 33 101 41 189
20 228 -33 62 -129 79 -217 38 -68 -32 -114 -89 -152 -190 -18 -46 -69 -144
-113 -218 -90 -147 -157 -259 -232 -388 -93 -159 -218 -301 -332 -380 -89 -61
-87 -33 14 179 43 91 89 191 102 221 12 30 62 130 111 221 48 91 99 194 114
230 14 35 59 134 99 219 73 153 105 245 105 305 0 108 -75 195 -167 195 -114
-1 -242 -117 -303 -275 -12 -33 -84 -186 -160 -340 -75 -154 -170 -363 -210
-463 -142 -356 -244 -442 -224 -192 9 118 30 193 93 334 33 72 93 207 135 300
42 92 110 225 150 295 114 194 130 270 71 347 -67 88 -162 114 -251 69z m770
-2616 c78 -7 143 -14 146 -16 2 -2 0 -7 -5 -11 -25 -17 -161 -181 -252 -303
-235 -314 -429 -682 -566 -1074 -75 -216 -153 -565 -173 -777 -4 -38 -9 -68
-12 -68 -3 0 -39 22 -81 48 -208 132 -322 154 -736 144 -148 -4 -335 -4 -415
0 -140 6 -335 30 -347 42 -3 3 37 50 90 105 220 230 407 518 672 1036 139 273
212 402 240 425 11 9 59 14 146 16 152 4 272 22 384 60 143 47 208 88 325 205
178 177 243 195 584 168z"/>
</g>
</svg>
