<?xml version="1.0" standalone="no"?>
<!DOCTYPE svg PUBLIC "-//W3C//DTD SVG 20010904//EN"
 "http://www.w3.org/TR/2001/REC-SVG-20010904/DTD/svg10.dtd">
<svg version="1.0" xmlns="http://www.w3.org/2000/svg"
 width="1280.000000pt" height="718.000000pt" viewBox="0 0 1280.000000 718.000000"
 preserveAspectRatio="xMidYMid meet">
<metadata>
Created by potrace 1.15, written by Peter Selinger 2001-2017
</metadata>
<g transform="translate(0.000000,718.000000) scale(0.100000,-0.100000)"
fill="#000000" stroke="none">
<path d="M4140 7151 c622 -122 1048 -373 1377 -809 l54 -72 62 47 c34 25 64
48 66 49 16 13 -185 223 -308 323 -336 270 -806 447 -1257 475 l-89 6 95 -19z"/>
<path d="M8589 6990 c-384 -118 -672 -292 -1008 -607 l-94 -88 65 -57 66 -58
81 100 c272 332 583 565 949 710 73 29 97 42 75 39 -5 0 -65 -18 -134 -39z"/>
<path d="M3645 6603 c-325 -17 -680 -91 -945 -198 -525 -210 -903 -571 -1172
-1118 l-34 -69 -50 40 c-119 94 -222 228 -327 427 -63 120 -67 107 -15 -50 60
-179 158 -342 289 -479 l69 -73 -23 -114 c-27 -134 -22 -131 -153 -80 -100 39
-235 116 -339 194 -95 71 -319 294 -428 425 -42 51 -77 89 -77 84 0 -22 111
-225 168 -309 110 -160 275 -320 442 -429 54 -35 161 -91 310 -162 38 -18
-131 -6 -252 19 -344 69 -666 272 -949 596 -52 59 -105 121 -117 137 -78 103
70 -154 167 -287 175 -243 404 -444 636 -559 183 -91 349 -139 597 -173 46 -6
47 -7 78 -73 95 -203 252 -433 404 -590 320 -331 709 -516 1251 -594 59 -8
194 -13 390 -13 275 1 315 3 480 28 480 74 819 183 1116 360 155 92 251 167
385 301 184 185 305 370 409 626 29 72 55 134 58 136 2 3 38 -9 78 -25 113
-45 166 -55 195 -36 32 21 30 37 -7 80 -29 33 -131 89 -261 144 -47 19 -48 21
-48 63 0 64 -27 236 -50 327 -52 203 -147 411 -268 581 -85 121 -280 317 -402
407 -446 327 -1011 488 -1605 456z m600 -158 c365 -57 704 -195 983 -401 126
-94 327 -303 410 -428 151 -226 247 -481 268 -717 6 -60 5 -71 -7 -66 -8 3
-69 31 -137 62 -662 302 -1281 365 -2172 219 -210 -34 -603 -113 -840 -169
-249 -58 -327 -64 -485 -36 -171 31 -363 90 -477 147 l-47 24 30 82 c128 354
351 648 665 874 107 77 390 220 530 268 197 67 443 121 689 152 138 17 452 11
590 -11z m-2444 -1559 c52 -23 128 -56 169 -71 76 -28 119 -54 70 -41 -14 3
-101 6 -193 6 -155 0 -168 1 -163 18 2 9 7 43 11 75 3 31 8 57 9 57 2 0 45
-20 97 -44z m3160 3 c153 -46 205 -241 98 -363 -99 -112 -273 -100 -356 26
-25 37 -28 51 -28 123 0 74 3 86 29 123 58 85 159 120 257 91z m-1106 -336 c0
-203 6 -238 66 -395 144 -373 543 -612 949 -569 47 5 86 8 88 7 4 -5 -222
-114 -303 -146 -280 -112 -528 -169 -827 -191 -266 -20 -567 11 -854 86 -187
49 -215 59 -354 132 -365 191 -649 445 -838 748 -62 101 -105 185 -98 193 4 3
97 16 209 29 489 55 1094 143 1602 233 182 32 337 58 345 59 13 1 15 -26 15
-186z m1962 132 c9 -3 8 -13 -6 -37 -11 -18 -32 -64 -47 -103 -15 -38 -30 -73
-33 -77 -3 -4 -6 25 -6 65 0 40 -3 97 -7 129 l-8 56 48 -14 c26 -8 53 -16 59
-19z"/>
<path d="M9250 6264 c-313 -36 -499 -74 -712 -145 -522 -174 -927 -472 -1190
-874 -110 -167 -212 -405 -252 -585 l-17 -75 -169 -110 c-94 -61 -170 -114
-170 -118 0 -4 7 -21 15 -36 l14 -28 162 55 c134 46 164 53 171 41 215 -374
422 -613 703 -810 303 -213 676 -344 1111 -389 162 -17 514 -15 679 4 724 85
1248 297 1609 653 181 179 309 375 396 605 l33 87 46 10 c70 15 225 65 331
105 338 131 613 351 751 601 l33 60 -92 -87 c-157 -149 -361 -272 -587 -353
-83 -30 -239 -75 -261 -75 -5 0 28 37 72 83 191 195 306 376 368 577 23 75 50
217 38 206 -2 -3 -23 -48 -47 -100 -71 -159 -161 -284 -309 -431 -144 -143
-361 -309 -375 -286 -5 7 -14 37 -20 67 -12 54 -12 55 18 89 90 103 159 236
191 368 24 99 39 304 22 293 -7 -4 -12 -13 -12 -21 0 -32 -55 -186 -97 -273
-39 -79 -153 -252 -167 -252 -2 0 -25 39 -51 87 -252 475 -721 826 -1308 983
-227 60 -327 72 -622 75 -148 2 -286 1 -305 -1z m720 -134 c408 -68 780 -238
1063 -485 147 -129 295 -320 379 -490 58 -115 59 -106 -24 -169 -40 -30 -127
-87 -193 -126 -139 -83 -90 -80 -445 -26 -1612 246 -2698 214 -3367 -99 -73
-34 -93 -40 -89 -27 3 9 8 31 11 47 30 138 117 337 209 474 348 519 1013 849
1866 925 121 11 469 -3 590 -24z m1543 -1277 c4 -21 3 -41 -1 -44 -7 -7 -151
-49 -166 -49 -10 0 146 129 155 130 4 0 9 -17 12 -37z m-2714 -153 c112 -6
245 -15 295 -20 163 -17 411 -52 417 -59 4 -3 -2 -46 -13 -96 -24 -111 -29
-340 -9 -430 33 -151 104 -278 214 -381 118 -111 259 -182 447 -225 52 -12
102 -24 110 -26 21 -6 -34 -28 -175 -69 -501 -143 -1032 -160 -1494 -47 -394
95 -736 290 -958 544 -125 144 -234 332 -293 507 l-30 87 38 17 c65 29 308 96
460 127 230 47 416 66 752 79 19 1 127 -3 239 -8z m1801 -171 c94 -7 158 -15
163 -22 8 -13 0 -73 -14 -99 -28 -53 -169 -71 -244 -31 -22 12 -52 34 -66 50
-24 25 -69 103 -69 118 0 4 17 4 38 1 20 -3 107 -11 192 -17z m764 -51 c-3
-13 -14 -39 -24 -57 l-17 -35 -12 52 c-6 29 -11 55 -11 57 0 3 16 5 36 5 32 0
35 -2 28 -22z"/>
<path d="M5509 3091 c-229 -42 -456 -243 -550 -486 -44 -114 -59 -194 -59
-326 0 -129 17 -238 55 -349 14 -40 24 -75 22 -77 -2 -1 -70 20 -152 47 -171
57 -215 63 -215 27 0 -13 8 -31 18 -39 9 -8 112 -65 227 -127 116 -63 216
-118 223 -124 8 -6 25 -34 39 -61 78 -154 321 -535 523 -816 141 -197 445
-602 480 -640 26 -28 32 -30 52 -19 13 6 27 18 32 27 6 11 18 4 58 -34 27 -27
54 -59 59 -71 5 -13 16 -23 25 -23 34 0 554 378 818 594 443 364 721 672 846
939 l39 83 98 33 c279 95 604 304 632 408 21 75 -6 71 -149 -21 -218 -140
-374 -216 -454 -224 -48 -5 -49 -4 -42 19 64 228 91 498 65 659 -22 137 -102
244 -225 302 -121 57 -308 50 -514 -18 -167 -56 -407 -175 -625 -312 -135 -84
-160 -94 -197 -78 -14 6 -79 70 -145 141 -190 205 -388 373 -549 465 -145 83
-315 122 -435 101z"/>
</g>
</svg>
