<?xml version="1.0" standalone="no"?>
<!DOCTYPE svg PUBLIC "-//W3C//DTD SVG 20010904//EN"
 "http://www.w3.org/TR/2001/REC-SVG-20010904/DTD/svg10.dtd">
<svg version="1.0" xmlns="http://www.w3.org/2000/svg"
 width="1202.000000pt" height="1280.000000pt" viewBox="0 0 1202.000000 1280.000000"
 preserveAspectRatio="xMidYMid meet">
<metadata>
Created by potrace 1.15, written by Peter Selinger 2001-2017
</metadata>
<g transform="translate(0.000000,1280.000000) scale(0.100000,-0.100000)"
fill="#000000" stroke="none">
<path d="M3985 12786 c-747 -102 -1322 -679 -1545 -1552 -61 -237 -81 -391
-87 -675 -8 -346 18 -576 100 -904 l42 -170 7 195 c36 1060 412 1891 1051
2324 219 148 473 243 741 276 120 15 386 8 504 -14 444 -82 873 -310 1260
-672 l84 -77 -53 84 c-293 464 -715 844 -1149 1034 -319 139 -652 192 -955
151z"/>
<path d="M9960 12759 c-634 -81 -1255 -517 -1675 -1174 -62 -97 -64 -98 67 22
346 316 778 545 1174 623 213 41 480 42 682 0 221 -45 458 -147 642 -278 112
-79 297 -255 387 -367 201 -251 366 -574 473 -925 48 -159 103 -424 125 -599
18 -154 39 -533 31 -575 -4 -18 -3 -27 3 -21 15 17 79 293 105 455 73 455 57
881 -49 1295 -220 856 -796 1438 -1525 1540 -117 16 -331 18 -440 4z"/>
<path d="M4975 10633 c-16 -2 -61 -13 -100 -25 -512 -150 -982 -791 -1261
-1721 -206 -688 -308 -1424 -308 -2232 0 -855 118 -1651 345 -2345 290 -884
725 -1454 1225 -1606 78 -24 106 -28 229 -28 160 -1 237 16 382 84 294 138
599 476 815 904 21 43 41 76 43 75 2 -2 13 -42 25 -89 90 -353 237 -681 407
-908 162 -215 364 -358 582 -413 110 -28 314 -23 433 10 504 139 1012 671
1427 1493 400 794 679 1778 780 2753 32 310 36 401 36 830 0 471 -9 610 -55
925 -147 994 -532 1651 -1057 1802 -106 31 -332 33 -438 4 -260 -70 -473 -204
-725 -456 -206 -206 -363 -410 -538 -700 -130 -215 -292 -541 -393 -790 -21
-52 -40 -88 -42 -80 -2 8 -16 78 -31 155 -234 1199 -750 2089 -1339 2309 -130
49 -304 68 -442 49z"/>
<path d="M643 1979 c-354 -308 -643 -564 -642 -567 0 -6 354 -315 473 -414
l32 -26 219 253 c121 139 222 254 225 254 3 1 22 -32 43 -73 111 -216 328
-502 517 -680 417 -392 936 -637 1500 -708 155 -19 525 -16 675 6 464 68 874
223 1270 481 116 76 297 214 380 291 54 50 52 49 -100 -46 -608 -381 -1335
-529 -2010 -410 -425 75 -852 270 -1195 546 -192 154 -402 388 -553 615 -65
98 -197 334 -197 352 0 3 84 101 186 218 102 116 182 215 177 219 -16 15 -350
250 -354 250 -2 0 -293 -253 -646 -561z"/>
</g>
</svg>
