<?xml version="1.0" encoding="UTF-8"?>
<!DOCTYPE svg PUBLIC "-//W3C//DTD SVG 1.1//EN" "http://www.w3.org/Graphics/SVG/1.1/DTD/svg11.dtd">
<!-- Creator: CorelDRAW X8 -->
<svg xmlns="http://www.w3.org/2000/svg" xml:space="preserve" width="8.07178in" height="7.45061in" version="1.1" style="shape-rendering:geometricPrecision; text-rendering:geometricPrecision; image-rendering:optimizeQuality; fill-rule:evenodd; clip-rule:evenodd"
viewBox="0 0 7883 7277"
 xmlns:xlink="http://www.w3.org/1999/xlink">
 <defs>
  <style type="text/css">
   <![CDATA[
    .fil2 {fill:#22180A;fill-rule:nonzero}
    .fil3 {fill:#F4A600;fill-rule:nonzero}
    .fil0 {fill:#F8F8F8;fill-rule:nonzero}
    .fil1 {fill:#FCCC00;fill-rule:nonzero}
   ]]>
  </style>
 </defs>
 <g id="Layer_x0020_1">
  <metadata id="CorelCorpID_0Corel-Layer"/>
  <path class="fil0" d="M7812 3241c-147,-732 -492,-1459 -996,-2013 -572,-628 -1375,-1048 -2212,-1179 -127,-20 -254,-33 -382,-39 -689,-55 -1418,128 -2014,446 -753,402 -1349,1071 -1734,1827 -413,810 -600,1762 -383,2656 190,785 684,1506 1404,1890 863,461 1901,490 2853,418 761,-58 1520,-207 2169,-631 1114,-729 1552,-2093 1295,-3375zm-3079 2488l0 0c-403,-13 -804,3 -1207,23 -384,19 -775,40 -1158,-4 -152,-17 -313,-50 -444,-134 -181,-116 -229,-314 -226,-518 1,-8 1,-17 1,-25 119,6 239,11 358,15 -5,114 -8,229 -7,343 0,65 97,64 100,0 6,-113 9,-226 10,-339 194,6 387,11 582,14 -1,113 -3,227 -4,341 -1,72 108,71 111,0 5,-113 5,-227 3,-340 242,3 484,2 726,-1 -1,88 -1,176 0,263 1,70 104,69 108,0 5,-87 7,-176 6,-264 82,-2 165,-3 247,-5 157,-4 313,-12 470,-23 1,114 4,227 10,339 4,69 109,70 108,0 0,-115 -3,-231 -9,-346 188,-13 376,-28 564,-38 0,0 0,1 0,2 4,111 7,223 11,336 2,71 116,71 111,0 -7,-115 -14,-229 -22,-344 170,-8 340,-12 510,-8 -3,133 -6,265 -11,398 -3,73 110,73 114,0 6,-131 7,-263 5,-395 126,6 252,16 378,32 2,1 3,0 5,0 -37,203 -181,389 -358,497 -326,199 -722,192 -1092,181z"/>
  <path class="fil0" d="M5886 4867c1,0 2,0 4,0 -32,175 -157,338 -311,431 -284,173 -628,167 -949,157 -351,-11 -699,3 -1050,20 -334,17 -673,35 -1006,-3 -133,-15 -272,-44 -386,-116 -158,-101 -200,-273 -196,-451 0,-7 0,-14 0,-21 104,5 208,9 312,13 -4,99 -7,199 -7,298 0,56 84,56 87,0 5,-98 8,-196 9,-295 168,6 337,10 506,12 -1,99 -2,198 -4,297 -1,62 95,62 97,0 4,-99 5,-197 3,-296 210,2 421,2 630,-1 0,77 -1,153 0,229 1,61 91,60 94,0 5,-75 6,-153 6,-230 71,-1 143,-2 215,-4 136,-3 272,-11 408,-20 0,99 3,197 9,295 3,59 94,61 94,0 -1,-100 -3,-201 -8,-301 163,-11 327,-24 490,-33 0,0 0,1 0,1 3,97 6,195 9,292 2,63 101,62 97,0 -6,-99 -13,-199 -19,-298 147,-7 295,-10 443,-7 -2,115 -5,230 -9,346 -3,64 95,63 98,0 5,-114 7,-229 5,-343 110,4 219,13 329,28z"/>
  <path class="fil1" d="M4932 3658c53,31 122,50 183,49 68,-1 123,-24 170,-62 5,-3 9,-5 13,-8 207,-134 199,-456 -8,-586 -226,-142 -514,35 -538,285 -13,132 70,257 180,322zm-969 -3075l0 0c741,-4 1474,244 2054,709 483,387 828,921 1039,1501 388,1068 240,2342 -638,3122 -412,365 -936,575 -1472,678 -394,75 -804,101 -1204,109 -415,8 -838,-40 -1240,-142 -718,-181 -1295,-618 -1620,-1288 -329,-681 -330,-1469 -105,-2182 247,-782 752,-1508 1432,-1971 484,-330 1103,-547 1708,-564 8,16 22,28 46,28zm-1349 3075l0 0c53,31 121,50 182,49 69,-1 124,-24 170,-62 5,-3 9,-5 13,-8 207,-134 199,-456 -7,-586 -226,-142 -515,35 -539,285 -12,132 70,257 181,322zm-506 1764l0 0c258,187 643,172 944,171 441,-2 880,-48 1321,-44 368,4 751,53 1101,-87 257,-103 477,-306 515,-591 39,-289 -119,-524 -394,-612 -183,-58 -386,-69 -576,-86 -237,-21 -475,-30 -713,-32 -424,-2 -849,16 -1272,47 -158,7 -314,17 -470,33 -261,27 -531,115 -626,383 -95,267 -75,640 170,818z"/>
  <path class="fil0" d="M2831 4296c5,1 11,2 18,2 690,-31 1377,-83 2068,-31 282,20 756,5 920,287 42,72 60,149 61,224 -4,-1 -8,-2 -12,-3 -111,-14 -221,-22 -332,-26 -2,-63 -6,-126 -12,-188 -4,-48 -75,-50 -75,0 -1,62 -2,124 -3,186 -150,-3 -300,1 -450,8 -2,-58 9,-156 -33,-197 -13,-12 -37,-15 -50,0 -1,2 -3,4 -4,6 -11,13 -16,35 -2,48 1,7 2,16 3,29 1,28 1,55 2,83 0,12 0,24 1,36 -165,9 -329,22 -493,33 -4,-73 -9,-146 -16,-219 -3,-45 -70,-47 -71,0 -3,75 -3,150 -4,226 -135,9 -271,16 -407,19 -73,2 -145,3 -217,4 -3,-93 -10,-186 -20,-276 -4,-43 -66,-45 -68,0 -4,92 -7,184 -9,276 -211,0 -423,-3 -634,-7 -4,-85 -9,-170 -16,-255 -3,-51 -80,-52 -79,0 2,84 2,169 2,254 -168,-4 -337,-6 -505,-7 0,-78 0,-156 -1,-234 0,-47 -70,-46 -73,0 -4,78 -9,156 -12,233 -104,0 -207,1 -311,3 15,-150 63,-295 199,-382 130,-84 293,-105 443,-117 64,-6 128,-11 192,-15z"/>
  <path class="fil2" d="M4752 3336c24,-250 312,-427 538,-285 207,130 215,452 8,586 -4,3 -8,5 -13,8 -47,38 -102,61 -170,62 -61,1 -130,-18 -183,-49 -110,-65 -193,-190 -180,-322z"/>
  <path class="fil2" d="M2435 873c518,-277 1151,-436 1750,-389 111,6 222,17 332,34 728,115 1426,479 1923,1025 438,482 738,1114 866,1750 223,1114 -158,2300 -1126,2934 -564,368 -1224,498 -1886,548 -827,62 -1729,37 -2479,-363 -626,-334 -1055,-961 -1220,-1643 -189,-777 -26,-1605 333,-2309 334,-657 852,-1238 1507,-1587zm-1553 4399l0 0c325,670 902,1107 1620,1288 402,102 825,150 1240,142 400,-8 810,-34 1204,-109 536,-103 1060,-313 1472,-678 878,-780 1026,-2054 638,-3122 -211,-580 -556,-1114 -1039,-1501 -580,-465 -1313,-713 -2054,-709 -24,0 -38,-12 -46,-28 -605,17 -1224,234 -1708,564 -680,463 -1185,1189 -1432,1971 -225,713 -224,1501 105,2182z"/>
  <path class="fil2" d="M2433 3336c24,-250 313,-427 539,-285 206,130 214,452 7,586 -4,3 -8,5 -13,8 -46,38 -101,61 -170,62 -61,1 -129,-18 -182,-49 -111,-65 -193,-190 -181,-322z"/>
  <path class="fil2" d="M5019 4173c190,17 393,28 576,86 275,88 433,323 394,612 -38,285 -258,488 -515,591 -350,140 -733,91 -1101,87 -441,-4 -880,42 -1321,44 -301,1 -686,16 -944,-171 -245,-178 -265,-551 -170,-818 95,-268 365,-356 626,-383 156,-16 312,-26 470,-33 423,-31 848,-49 1272,-47 238,2 476,11 713,32zm-2715 724l0 0c-104,-4 -208,-8 -312,-13 0,7 0,14 0,21 -4,178 38,350 196,451 114,72 253,101 386,116 333,38 672,20 1006,3 351,-17 699,-31 1050,-20 321,10 665,16 949,-157 154,-93 279,-256 311,-431 -2,0 -3,0 -4,0 -110,-15 -219,-24 -329,-28 2,114 0,229 -5,343 -3,63 -101,64 -98,0 4,-116 7,-231 9,-346 -148,-3 -296,0 -443,7 6,99 13,199 19,298 4,62 -95,63 -97,0 -3,-97 -6,-195 -9,-292 0,0 0,-1 0,-1 -163,9 -327,22 -490,33 5,100 7,201 8,301 0,61 -91,59 -94,0 -6,-98 -9,-196 -9,-295 -136,9 -272,17 -408,20 -72,2 -144,3 -215,4 0,77 -1,155 -6,230 -3,60 -93,61 -94,0 -1,-76 0,-152 0,-229 -209,3 -420,3 -630,1 2,99 1,197 -3,296 -2,62 -98,62 -97,0 2,-99 3,-198 4,-297 -169,-2 -338,-6 -506,-12 -1,99 -4,197 -9,295 -3,56 -87,56 -87,0 0,-99 3,-199 7,-298zm-307 -87l0 0c104,-2 207,-3 311,-3 3,-77 8,-155 12,-233 3,-46 73,-47 73,0 1,78 1,156 1,234 168,1 337,3 505,7 0,-85 0,-170 -2,-254 -1,-52 76,-51 79,0 7,85 12,170 16,255 211,4 423,7 634,7 2,-92 5,-184 9,-276 2,-45 64,-43 68,0 10,90 17,183 20,276 72,-1 144,-2 217,-4 136,-3 272,-10 407,-19 1,-76 1,-151 4,-226 1,-47 68,-45 71,0 7,73 12,146 16,219 164,-11 328,-24 493,-33 -1,-12 -1,-24 -1,-36 -1,-28 -1,-55 -2,-83 -1,-13 -2,-22 -3,-29 -14,-13 -9,-35 2,-48 1,-2 3,-4 4,-6 13,-15 37,-12 50,0 42,41 31,139 33,197 150,-7 300,-11 450,-8 1,-62 2,-124 3,-186 0,-50 71,-48 75,0 6,62 10,125 12,188 111,4 221,12 332,26 4,1 8,2 12,3 -1,-75 -19,-152 -61,-224 -164,-282 -638,-267 -920,-287 -691,-52 -1378,0 -2068,31 -7,0 -13,-1 -18,-2 -64,4 -128,9 -192,15 -150,12 -313,33 -443,117 -136,87 -184,232 -199,382z"/>
  <path class="fil3" d="M1256 4774c-32,-184 -33,-379 -39,-566 -7,-177 -5,-352 16,-529 43,-366 155,-699 287,-1040 61,-157 -184,-251 -266,-112 -196,335 -299,744 -329,1130 -15,195 -14,394 12,589 26,203 91,381 162,571 37,99 175,61 157,-43z"/>
  <path class="fil3" d="M1410 2212c0,9 1,18 3,27 -1,10 1,19 5,27 5,13 11,26 17,39 10,20 24,35 42,47 28,21 64,37 101,35 29,-1 57,-8 83,-22 19,-11 35,-25 46,-43 15,-16 25,-35 30,-56 4,-8 6,-17 5,-27 2,-9 3,-18 3,-27 -2,-44 -18,-87 -49,-119 -29,-29 -77,-51 -118,-49 -44,2 -89,17 -119,49 -30,34 -47,73 -49,119z"/>
  <path class="fil3" d="M6824 4431c-31,92 -80,175 -126,261 -33,63 -16,144 48,181 58,34 151,18 182,-47 56,-119 71,-243 62,-373 -7,-94 -135,-115 -166,-22z"/>
  <path class="fil2" d="M2785 593c90,-54 190,-75 293,-91 47,-7 36,-86 -11,-83 -117,6 -220,52 -316,116 -36,24 -4,80 34,58z"/>
  <path class="fil2" d="M3468 389c90,-22 180,-32 273,-36 57,-2 57,-91 0,-88 -99,5 -197,25 -292,54 -45,14 -26,82 19,70z"/>
  <path class="fil2" d="M4240 345c75,2 146,17 218,33 53,12 76,-67 23,-81 -78,-22 -161,-26 -241,-22 -44,3 -45,68 0,70z"/>
  <path class="fil2" d="M2118 901c83,-64 174,-118 267,-166 48,-24 5,-99 -43,-73 -98,55 -185,120 -270,193 -32,28 14,71 46,46z"/>
  <path class="fil2" d="M1530 1299c44,-63 100,-108 165,-147 45,-26 6,-92 -40,-68 -76,40 -139,107 -183,181 -23,38 34,70 58,34z"/>
  <path class="fil2" d="M1056 1892c70,-108 158,-191 245,-284 37,-40 -18,-91 -59,-59 -101,80 -178,200 -242,310 -21,36 34,68 56,33z"/>
  <path class="fil2" d="M758 2345c-43,75 -89,149 -128,226 -23,45 43,84 68,40 43,-76 79,-155 117,-233 18,-37 -35,-69 -57,-33z"/>
  <path class="fil2" d="M499 2883c-44,81 -79,169 -86,261 -3,43 67,53 75,10 15,-82 30,-162 65,-239 17,-36 -35,-68 -54,-32z"/>
  <path class="fil2" d="M295 3661c-36,108 -55,221 -41,334 7,52 89,54 84,0 -10,-108 -8,-211 21,-316 12,-42 -51,-58 -64,-18z"/>
  <path class="fil2" d="M312 4574c-5,122 1,247 44,362 18,50 95,30 80,-22 -30,-113 -57,-222 -57,-340 -1,-43 -65,-43 -67,0z"/>
  <path class="fil2" d="M491 5206c24,104 65,203 121,295 28,47 102,4 73,-42 -54,-86 -95,-176 -124,-273 -13,-45 -81,-26 -70,20z"/>
  <path class="fil2" d="M782 5968c54,51 97,107 140,167 33,47 110,4 78,-45 -44,-67 -101,-126 -162,-177 -38,-32 -93,20 -56,55z"/>
  <path class="fil2" d="M1338 6474c80,50 162,97 247,140 50,25 95,-49 44,-77 -82,-47 -168,-88 -254,-126 -42,-18 -77,37 -37,63z"/>
  <path class="fil2" d="M2040 6845c90,11 181,25 271,28 59,1 56,-84 0,-90 -90,-11 -181,-10 -271,-12 -48,-1 -45,68 0,74z"/>
  <path class="fil2" d="M2868 6998c111,38 229,74 346,81 50,3 62,-77 12,-88 -113,-24 -226,-37 -338,-67 -48,-13 -67,58 -20,74z"/>
  <path class="fil2" d="M3714 7087c121,8 244,0 362,-31 57,-15 32,-99 -24,-87 -113,23 -223,42 -338,51 -43,3 -43,64 0,67z"/>
  <path class="fil2" d="M4843 6982c95,-30 190,-49 286,-71 50,-12 40,-97 -12,-91 -104,14 -208,52 -300,99 -35,18 -11,75 26,63z"/>
  <path class="fil2" d="M5706 6763c108,-30 222,-53 326,-97 52,-22 34,-99 -23,-86 -111,26 -217,74 -323,113 -43,16 -26,83 20,70z"/>
  <path class="fil2" d="M6357 6489c70,-57 145,-107 211,-167 43,-40 -20,-99 -64,-64 -70,55 -132,121 -198,179 -36,32 16,81 51,52z"/>
  <path class="fil2" d="M6884 5990c28,-23 56,-47 85,-70 28,-24 59,-45 84,-71 32,-34 -12,-99 -53,-68 -60,45 -113,105 -168,158 -34,33 16,81 52,51z"/>
  <path class="fil2" d="M7396 5369c83,-82 152,-183 179,-297 13,-56 -69,-79 -86,-24 -33,100 -73,191 -143,270 -30,34 17,83 50,51z"/>
  <path class="fil2" d="M7664 4574c-11,-84 3,-161 25,-242 15,-57 -65,-75 -85,-24 -36,88 -33,185 -12,276 9,40 77,32 72,-10z"/>
  <path class="fil2" d="M7682 3967c-7,-97 -6,-200 -27,-295 -11,-50 -90,-39 -89,12 2,97 27,197 42,293 7,41 78,32 74,-10z"/>
  <path class="fil2" d="M7567 3229c-25,-81 -45,-170 -85,-245 -23,-43 -99,-13 -81,35 27,78 71,150 102,228 15,39 77,24 64,-18z"/>
  <path class="fil2" d="M7374 2704c-20,-90 -41,-177 -75,-262 -22,-56 -112,-32 -90,24 33,85 70,170 99,256 13,43 77,25 66,-18z"/>
  <path class="fil2" d="M7071 2146c4,-76 -15,-159 -64,-218 -34,-40 -102,13 -73,56 35,52 62,97 65,162 3,46 70,46 72,0z"/>
  <path class="fil2" d="M6808 1638c-20,-95 -60,-179 -138,-238 -43,-33 -84,34 -54,69 49,58 98,116 125,187 15,42 76,26 67,-18z"/>
  <path class="fil2" d="M6360 1132c-60,-56 -117,-118 -182,-169 -44,-34 -105,22 -63,63 59,58 127,107 191,160 37,30 89,-19 54,-54z"/>
  <path class="fil2" d="M5779 728c-78,-81 -185,-151 -298,-168 -54,-8 -78,66 -23,84 100,32 188,67 270,135 35,28 83,-17 51,-51z"/>
  <path class="fil2" d="M5136 468c-98,-50 -196,-85 -303,-110 -58,-13 -81,79 -24,88 98,16 197,46 289,87 43,19 82,-43 38,-65z"/>
 </g>
</svg>
