<?xml version="1.0" encoding="UTF-8"?>
<!DOCTYPE svg PUBLIC "-//W3C//DTD SVG 1.1//EN" "http://www.w3.org/Graphics/SVG/1.1/DTD/svg11.dtd">
<!-- Creator: CorelDRAW X8 -->
<svg xmlns="http://www.w3.org/2000/svg" xml:space="preserve" width="8.00993in" height="7.3935in" version="1.1" style="shape-rendering:geometricPrecision; text-rendering:geometricPrecision; image-rendering:optimizeQuality; fill-rule:evenodd; clip-rule:evenodd"
viewBox="0 0 8010 7393"
 xmlns:xlink="http://www.w3.org/1999/xlink">
 <defs>
  <style type="text/css">
   <![CDATA[
    .fil2 {fill:#22180A;fill-rule:nonzero}
    .fil3 {fill:#F4A600;fill-rule:nonzero}
    .fil0 {fill:#F8F8F8;fill-rule:nonzero}
    .fil1 {fill:#FCCC00;fill-rule:nonzero}
   ]]>
  </style>
 </defs>
 <g id="Layer_x0020_1">
  <metadata id="CorelCorpID_0Corel-Layer"/>
  <path class="fil0" d="M7937 3293c-149,-744 -499,-1482 -1012,-2045 -581,-638 -1397,-1065 -2247,-1198 -129,-20 -258,-33 -388,-40 -700,-56 -1441,130 -2047,454 -765,408 -1370,1088 -1761,1855 -420,823 -610,1791 -390,2700 193,797 695,1529 1427,1920 877,468 1931,497 2898,424 774,-58 1545,-210 2204,-641 1132,-741 1578,-2126 1316,-3429z"/>
  <path class="fil1" d="M7169 2837c394,1086 244,2380 -649,3172 -418,372 -950,586 -1495,689 -400,77 -817,103 -1223,111 -422,8 -851,-41 -1260,-144 -729,-184 -1316,-627 -1645,-1309 -335,-692 -336,-1492 -108,-2217 251,-794 765,-1531 1456,-2002 492,-335 1120,-556 1735,-573 7,16 22,28 46,28 753,-4 1499,248 2087,720 491,394 842,937 1056,1525zm-1367 231l0 0c62,58 164,-16 120,-92 -125,-213 -318,-385 -557,-456 -205,-60 -574,-105 -737,68 -65,69 -48,218 62,235 107,16 198,-23 305,-31 90,-7 181,-3 270,16 198,44 387,121 537,260zm-246 888l0 0c118,20 251,-75 208,-209 -83,-253 -426,-353 -668,-350 -245,3 -520,86 -677,282 -86,108 18,247 145,189 161,-73 323,-125 501,-100 82,12 169,34 244,70 83,41 153,101 247,118zm-1670 1637l0 0c339,0 809,-274 765,-668 -9,-85 -98,-126 -164,-68 -183,157 -339,351 -601,369 -258,17 -458,-162 -625,-334 -56,-58 -176,-17 -168,70 33,386 428,632 793,631zm-1161 -1470l0 0c83,257 438,148 397,-110 -19,-113 -29,-229 -42,-345 9,-83 30,-165 24,-247 -9,-140 -203,-262 -310,-128 -181,223 -153,570 -69,830zm187 -1653l0 0c89,-61 93,-226 -32,-251 -199,-39 -418,102 -557,235 -139,134 -256,332 -245,530 5,84 105,107 152,41 90,-126 164,-250 285,-351 56,-46 116,-86 183,-116 71,-32 149,-43 214,-88z"/>
  <path class="fil2" d="M7740 3728c25,127 22,255 -6,381 -13,60 -100,33 -90,-25 19,-116 25,-229 21,-346 -1,-42 67,-52 75,-10z"/>
  <path class="fil2" d="M7585 4494c11,-53 99,-41 94,13 -14,140 -43,283 -75,420 -10,41 -79,33 -76,-11 11,-139 28,-285 57,-422z"/>
  <path class="fil2" d="M7596 2918c48,118 85,238 91,367 2,53 -83,65 -92,13 -21,-121 -36,-243 -68,-362 -12,-45 52,-59 69,-18z"/>
  <path class="fil2" d="M7369 5388c22,-50 104,-13 88,37 -50,154 -151,278 -272,382 -36,31 -88,-19 -53,-52 109,-103 178,-231 237,-367z"/>
  <path class="fil2" d="M2474 886c527,-281 1170,-442 1779,-394 112,6 225,17 337,34 739,117 1448,487 1953,1042 446,489 750,1131 880,1778 227,1132 -160,2336 -1144,2980 -573,375 -1243,507 -1916,558 -840,63 -1756,38 -2519,-369 -636,-340 -1072,-976 -1240,-1670 -191,-789 -26,-1630 338,-2346 340,-667 867,-1258 1532,-1613zm1506 -322l0 0c-615,17 -1243,238 -1735,573 -691,471 -1205,1208 -1456,2002 -228,725 -227,1525 108,2217 329,682 916,1125 1645,1309 409,103 838,152 1260,144 406,-8 823,-34 1223,-111 545,-103 1077,-317 1495,-689 893,-792 1043,-2086 649,-3172 -214,-588 -565,-1131 -1056,-1525 -588,-472 -1334,-724 -2087,-720 -24,0 -39,-12 -46,-28z"/>
  <path class="fil2" d="M7160 2023c116,137 220,282 300,443 26,54 -51,101 -82,48 -88,-152 -174,-304 -272,-449 -21,-33 30,-72 54,-42z"/>
  <path class="fil2" d="M6523 6476c146,-86 274,-193 410,-293 43,-31 92,37 56,73 -121,121 -277,209 -429,283 -42,21 -78,-39 -37,-63z"/>
  <path class="fil2" d="M6499 1202c127,129 264,249 389,380 40,41 -20,100 -63,62 -136,-119 -255,-257 -373,-394 -29,-32 17,-79 47,-48z"/>
  <path class="fil2" d="M5922 2976c44,76 -58,150 -120,92 -150,-139 -339,-216 -537,-260 -89,-19 -180,-23 -270,-16 -107,8 -198,47 -305,31 -110,-17 -127,-166 -62,-235 163,-173 532,-128 737,-68 239,71 432,243 557,456z"/>
  <path class="fil2" d="M5764 3747c43,134 -90,229 -208,209 -94,-17 -164,-77 -247,-118 -75,-36 -162,-58 -244,-70 -178,-25 -340,27 -501,100 -127,58 -231,-81 -145,-189 157,-196 432,-279 677,-282 242,-3 585,97 668,350z"/>
  <path class="fil2" d="M5608 637c163,49 317,132 446,243 41,36 -16,109 -59,76 -130,-100 -264,-184 -414,-254 -37,-17 -10,-76 27,-65z"/>
  <path class="fil2" d="M5531 6871c125,-51 252,-110 383,-143 48,-13 83,62 35,83 -127,56 -266,91 -399,129 -45,13 -60,-52 -19,-69z"/>
  <path class="fil2" d="M4673 313c180,26 354,66 523,130 58,22 35,114 -25,94 -171,-57 -342,-114 -515,-161 -42,-12 -23,-69 17,-63z"/>
  <path class="fil2" d="M4651 4925c44,394 -426,668 -765,668 -365,1 -760,-245 -793,-631 -8,-87 112,-128 168,-70 167,172 367,351 625,334 262,-18 418,-212 601,-369 66,-58 155,-17 164,68z"/>
  <path class="fil2" d="M4536 7144c-50,8 -72,-65 -22,-77 162,-39 326,-72 492,-82 50,-4 61,79 12,87 -161,27 -322,45 -482,72z"/>
  <path class="fil2" d="M3839 301c136,-22 270,-27 406,3 57,12 32,97 -25,87 -123,-22 -246,-33 -371,-19 -41,5 -50,-65 -10,-71z"/>
  <path class="fil2" d="M3455 7099c168,14 332,-13 496,-49 58,-12 81,71 24,89 -170,55 -343,55 -520,33 -45,-6 -47,-77 0,-73z"/>
  <path class="fil2" d="M3183 420c105,-43 223,-83 337,-86 46,-1 56,71 11,81 -111,24 -221,38 -330,72 -44,14 -59,-51 -18,-67z"/>
  <path class="fil2" d="M3122 4013c41,258 -314,367 -397,110 -84,-260 -112,-607 69,-830 107,-134 301,-12 310,128 6,82 -15,164 -24,247 13,116 23,232 42,345z"/>
  <path class="fil2" d="M2880 2219c125,25 121,190 32,251 -65,45 -143,56 -214,88 -67,30 -127,70 -183,116 -121,101 -195,225 -285,351 -47,66 -147,43 -152,-41 -11,-198 106,-396 245,-530 139,-133 358,-274 557,-235z"/>
  <path class="fil2" d="M2278 787c128,-97 270,-188 426,-234 47,-13 80,61 34,81 -148,64 -292,122 -425,213 -38,25 -70,-33 -35,-60z"/>
  <path class="fil2" d="M2276 6956c167,41 338,59 509,79 59,7 62,99 0,95 -182,-9 -355,-52 -529,-101 -47,-14 -27,-85 20,-73z"/>
  <path class="fil2" d="M1669 1196c85,-79 172,-161 272,-220 49,-29 89,43 44,74 -90,64 -184,122 -268,195 -33,28 -80,-18 -48,-49z"/>
  <path class="fil2" d="M1357 6601c169,30 329,104 458,219 41,37 -15,109 -59,77 -131,-95 -265,-171 -420,-221 -48,-16 -28,-84 21,-75z"/>
  <path class="fil2" d="M1481 1447c-65,79 -146,148 -218,220 -33,33 -82,-16 -51,-50 69,-76 135,-160 211,-228 40,-36 91,18 58,58z"/>
  <path class="fil2" d="M1126 1914c-70,78 -130,159 -181,251 -20,37 -74,4 -56,-33 47,-99 107,-194 177,-278 35,-42 98,19 60,60z"/>
  <path class="fil2" d="M830 2469c-66,83 -101,178 -128,280 -15,54 -91,30 -83,-23 18,-117 83,-220 167,-302 29,-29 68,14 44,45z"/>
  <path class="fil2" d="M712 5865c84,95 173,184 250,284 37,47 -25,113 -66,67 -84,-95 -156,-201 -234,-300 -27,-36 19,-86 50,-51z"/>
  <path class="fil2" d="M435 3222c15,-45 81,-27 70,19 -24,101 -50,202 -82,301 -17,52 -97,31 -83,-22 27,-101 60,-200 95,-298z"/>
  <path class="fil2" d="M417 5045c29,107 67,209 108,312 19,48 -62,82 -83,35 -45,-105 -75,-215 -94,-328 -8,-45 57,-65 69,-19z"/>
  <path class="fil2" d="M332 4025c-3,115 18,223 52,333 17,54 -64,74 -84,23 -44,-113 -54,-235 -39,-356 6,-44 72,-47 71,0z"/>
  <path class="fil3" d="M886 3573c-92,365 -125,714 -51,1086 67,330 238,773 518,978 147,109 287,-94 225,-225 -65,-141 -181,-262 -257,-399 -80,-145 -141,-299 -193,-457 -98,-305 -156,-646 -116,-966 9,-73 -109,-86 -126,-17z"/>
  <path class="fil3" d="M1746 6046c15,14 31,30 48,39 14,8 30,15 45,20 14,5 36,6 53,7 15,-2 29,-4 44,-6 13,-6 26,-11 39,-17 31,-18 53,-45 67,-78 7,-13 11,-27 11,-41 4,-15 4,-29 0,-44 0,-15 -4,-28 -11,-41 -7,-21 -18,-38 -34,-53 -27,-31 -65,-48 -105,-56 -14,-2 -28,-4 -43,-6 -22,-1 -43,4 -62,14 -31,13 -61,35 -77,66 -14,26 -21,53 -23,82 0,22 4,43 14,62 7,20 18,38 34,52z"/>
 </g>
</svg>
