<?xml version="1.0" standalone="no"?>
<!DOCTYPE svg PUBLIC "-//W3C//DTD SVG 20010904//EN"
 "http://www.w3.org/TR/2001/REC-SVG-20010904/DTD/svg10.dtd">
<svg version="1.0" xmlns="http://www.w3.org/2000/svg"
 width="1280.000000pt" height="770.000000pt" viewBox="0 0 1280.000000 770.000000"
 preserveAspectRatio="xMidYMid meet">
<metadata>
Created by potrace 1.15, written by Peter Selinger 2001-2017
</metadata>
<g transform="translate(0.000000,770.000000) scale(0.100000,-0.100000)"
fill="#000000" stroke="none">
<path d="M1805 7690 c-565 -41 -941 -148 -1217 -347 -101 -73 -257 -235 -326
-338 -241 -362 -318 -812 -216 -1271 138 -622 527 -1222 1084 -1669 971 -780
2367 -1092 3525 -790 505 132 929 367 1260 700 193 193 347 410 470 659 68
140 165 386 165 421 0 8 5 15 10 15 6 0 10 -9 10 -20 0 -40 92 -297 146 -410
402 -836 1350 -1405 2554 -1532 164 -17 667 -17 825 0 796 86 1443 364 1896
812 325 323 623 844 740 1298 142 550 62 1006 -231 1315 -112 119 -216 195
-375 272 -494 242 -1378 405 -2199 405 -821 0 -1560 -119 -2086 -334 -309
-127 -615 -332 -768 -515 -36 -43 -42 -54 -31 -67 10 -13 25 -2 103 74 149
145 273 230 492 340 383 192 863 303 1519 353 207 16 886 16 1080 0 281 -22
803 -96 823 -116 3 -3 -17 -5 -44 -5 -27 0 -89 -7 -139 -15 -249 -41 -432
-127 -592 -278 -83 -79 -141 -164 -179 -262 -36 -93 -44 -248 -19 -345 121
-467 765 -736 1365 -570 100 28 279 116 361 178 279 212 364 530 217 814 -45
87 -136 191 -222 255 -32 24 -54 43 -49 43 13 0 265 -92 367 -134 252 -105
420 -302 488 -572 29 -116 31 -370 4 -509 -96 -500 -409 -1083 -798 -1491 -99
-103 -183 -160 -413 -280 -411 -214 -849 -349 -1330 -411 -198 -25 -682 -25
-880 0 -663 85 -1276 327 -1700 672 -195 158 -409 404 -530 606 -176 297 -306
668 -356 1019 -11 77 -29 131 -29 87 0 -48 -105 -432 -166 -608 -223 -643
-586 -1087 -1149 -1406 -327 -186 -744 -313 -1168 -358 -188 -19 -530 -19
-727 0 -917 92 -1725 463 -2306 1057 -432 443 -724 986 -805 1503 -7 44 -13
152 -13 240 1 136 5 177 27 273 54 233 154 412 323 578 254 251 589 369 1174
414 900 68 1948 0 3250 -212 l135 -22 -100 -17 c-580 -96 -926 -518 -775 -946
90 -258 379 -469 740 -540 130 -26 375 -23 510 6 500 107 819 478 736 855 -44
197 -189 376 -399 491 -37 20 -67 38 -67 40 0 7 196 -40 295 -72 312 -100 461
-235 473 -425 5 -86 -6 -144 -45 -231 -14 -31 -23 -60 -21 -63 11 -10 74 24
90 48 37 56 50 135 46 267 -3 113 -7 133 -31 182 -80 164 -239 280 -492 358
-192 60 -963 223 -1490 315 -573 100 -1196 175 -1725 206 -239 14 -948 21
-1095 10z"/>
<path d="M4758 3054 c-336 -61 -635 -300 -870 -696 -176 -299 -325 -715 -419
-1172 -17 -83 -33 -153 -35 -155 -16 -17 -512 228 -738 364 -333 201 -624 422
-895 680 -124 117 -124 117 -16 -15 308 -374 648 -709 990 -975 425 -331 901
-593 1415 -781 531 -193 1022 -285 1615 -301 861 -23 1581 185 2135 616 107
83 270 229 270 242 0 6 -4 8 -9 5 -21 -13 -412 -108 -616 -149 -485 -99 -883
-147 -1385 -168 -262 -10 -540 -5 -540 12 0 4 16 90 35 191 52 264 101 561
126 749 30 232 38 621 15 777 -68 459 -287 708 -685 777 -103 18 -290 18 -393
-1z"/>
</g>
</svg>
