<?xml version="1.0" encoding="UTF-8"?>
<!DOCTYPE svg PUBLIC "-//W3C//DTD SVG 1.1//EN" "http://www.w3.org/Graphics/SVG/1.1/DTD/svg11.dtd">
<!-- Creator: CorelDRAW X8 -->
<svg xmlns="http://www.w3.org/2000/svg" xml:space="preserve" width="8.22817in" height="7.47158in" version="1.1" style="shape-rendering:geometricPrecision; text-rendering:geometricPrecision; image-rendering:optimizeQuality; fill-rule:evenodd; clip-rule:evenodd"
viewBox="0 0 8228 7472"
 xmlns:xlink="http://www.w3.org/1999/xlink">
 <defs>
  <style type="text/css">
   <![CDATA[
    .fil0 {fill:#46464B;fill-rule:nonzero}
   ]]>
  </style>
 </defs>
 <g id="Layer_x0020_1">
  <metadata id="CorelCorpID_0Corel-Layer"/>
  <path class="fil0" d="M6780 894c-22,-27 -24,-8 -29,-10 41,40 31,6 29,10z"/>
  <polygon class="fil0" points="7170,1308 7160,1304 7222,1362 "/>
  <path class="fil0" d="M7466 1751c-5,-55 -103,-163 -149,-246l-5 -16 -40 -24c70,91 158,213 194,286z"/>
  <path class="fil0" d="M7555 2024c0,-20 34,51 -27,-60 2,6 2,8 3,12 5,10 12,24 24,48z"/>
  <path class="fil0" d="M7531 1976c-25,-49 9,36 0,0z"/>
  <path class="fil0" d="M7645 2205l-37 -64c1,17 26,76 13,56 34,66 33,50 24,8z"/>
  <path class="fil0" d="M7688 2262l-18 -34c1,7 4,17 18,34z"/>
  <path class="fil0" d="M7631 2158l39 70c-1,-11 6,-15 -17,-32 9,3 -4,-9 -22,-38z"/>
  <path class="fil0" d="M7616 2114c-12,-39 -34,-88 7,-25 -66,-125 -70,-99 -7,25z"/>
  <path class="fil0" d="M7501 1763l-22 -52 -32 -37c17,18 49,95 54,89z"/>
  <path class="fil0" d="M7788 2635c7,2 6,-27 10,-35l-22 -49c5,27 18,78 12,84z"/>
  <path class="fil0" d="M7798 2600c0,0 9,19 16,38 7,19 14,38 14,38 -16,-71 -27,-81 -30,-76z"/>
  <path class="fil0" d="M7718 2264l-70 -115c0,0 20,34 40,69 10,17 20,35 28,48 7,13 11,22 11,22l-9 -24z"/>
  <polygon class="fil0" points="7859,2932 7839,2890 7872,2966 "/>
  <path class="fil0" d="M7895 3132c-15,-32 -9,47 -20,13 8,54 20,100 32,141 -9,-44 -11,-92 -12,-154z"/>
  <path class="fil0" d="M7923 3356c-3,-22 -9,-45 -16,-70 5,24 10,47 16,70z"/>
  <path class="fil0" d="M7861 2809c-2,7 -7,21 -1,66l7 -34c-2,-10 -4,-21 -6,-32z"/>
  <path class="fil0" d="M7867 2839l0 2c7,33 11,57 13,67 -1,-9 -5,-29 -13,-69z"/>
  <path class="fil0" d="M7859 2802c1,2 1,5 2,7 1,-3 1,-5 -2,-7z"/>
  <path class="fil0" d="M7780 2468c22,43 61,136 43,40 -20,-30 -10,25 -43,-40z"/>
  <path class="fil0" d="M7866 2759l-19 -84c-3,3 -4,19 -14,-3l33 87z"/>
  <polygon class="fil0" points="7881,2799 7866,2759 7873,2790 "/>
  <path class="fil0" d="M7923 3209c10,37 15,77 20,122 -1,-49 -6,-99 -10,-147 -5,-7 -15,-27 -10,25z"/>
  <path class="fil0" d="M7902 3029c1,2 2,5 3,8 0,-5 0,-9 -3,-8z"/>
  <polygon class="fil0" points="7944,3781 7947,3774 7945,3772 "/>
  <path class="fil0" d="M7935 3175c-1,-37 -9,-58 -16,-78 5,27 11,55 14,87 2,2 3,3 2,-9z"/>
  <path class="fil0" d="M7936 3481c2,-19 4,-41 5,-64 -4,19 -9,57 -5,64z"/>
  <path class="fil0" d="M7903 3050c-1,-2 -1,-4 -2,-6 -1,13 0,11 2,6z"/>
  <path class="fil0" d="M7903 3050c4,18 10,32 16,47 -5,-22 -10,-43 -14,-60 -1,4 -2,9 -2,13z"/>
  <path class="fil0" d="M8023 3927c-12,-9 -13,-108 3,-192 -5,-85 -51,-31 -79,39 5,3 12,3 13,89 11,-29 27,-188 36,-116 1,115 -10,93 -23,148 21,-46 9,146 35,125 0,0 1,-25 1,-51 1,-25 1,-50 1,-50 4,-2 6,35 13,8z"/>
  <path class="fil0" d="M7955 3613l-2 -35c-3,40 -6,68 -20,120 3,58 8,70 12,74 0,0 3,-43 5,-85 3,-43 3,-86 3,-86l2 12z"/>
  <path class="fil0" d="M7950 3422c15,26 25,110 38,58 -6,-103 -15,-72 -24,-133 11,166 -11,-47 -13,73 -4,-32 -6,-61 -8,-89 0,30 -1,59 -2,86 0,-2 0,-3 0,-4l0 -1 1 0c1,-7 2,-9 1,-1 0,1 1,2 1,3 2,1 4,4 6,8 -1,47 -4,7 -6,-8 -1,0 -2,-1 -2,-2l-1 1c0,0 4,41 8,82 2,42 4,83 4,83 2,-35 3,-79 -3,-156z"/>
  <path class="fil0" d="M7879 2584c1,6 0,6 -1,6 5,10 7,14 1,-6z"/>
  <path class="fil0" d="M7890 2654c-6,-12 -13,-20 -23,-59 -6,-34 7,-2 11,-5 -11,-21 -36,-77 -19,-3l5 11c14,66 18,155 13,144 8,-22 12,-41 13,-88z"/>
  <path class="fil0" d="M7946 3042c0,0 7,34 14,68 8,34 12,69 12,69 0,0 2,-18 3,-36 0,-18 1,-36 1,-36l-7 4c-10,-79 -16,-60 -23,-69z"/>
  <path class="fil0" d="M7936 3796l-14 -19c0,0 4,20 9,41 4,20 7,40 7,40 0,0 0,-15 0,-31 -1,-15 -2,-31 -2,-31z"/>
  <path class="fil0" d="M7921 3974l-12 -8c0,0 0,12 1,24 1,12 1,24 1,24 0,0 3,-10 5,-20 3,-10 5,-20 5,-20z"/>
  <path class="fil0" d="M190 4860l-18 -39c8,18 14,30 18,39z"/>
  <path class="fil0" d="M309 5145l9 4c-10,-11 -15,-15 -9,-4z"/>
  <path class="fil0" d="M5121 7035c-60,2 -128,-1 -118,12l21 10c39,-13 70,-19 97,-22z"/>
  <path class="fil0" d="M2151 6756c4,4 9,8 14,12 15,2 29,4 42,5 -17,-5 -36,-11 -56,-17z"/>
  <path class="fil0" d="M2086 6789l-67 -47c15,12 36,27 67,47z"/>
  <path class="fil0" d="M160 3197l2 -52c-25,74 -6,44 -2,52z"/>
  <path class="fil0" d="M7229 5648c-36,37 -64,67 -86,94 44,-43 86,-73 86,-94z"/>
  <path class="fil0" d="M373 4916c-10,-22 -17,-31 -20,-29 11,23 19,36 20,29z"/>
  <path class="fil0" d="M7047 5853c7,-6 14,-11 20,-18 23,-29 47,-58 76,-93 -33,32 -71,67 -96,111z"/>
  <path class="fil0" d="M4915 114c4,0 9,1 14,2 1,-2 -5,-2 -14,-2z"/>
  <path class="fil0" d="M6528 723c-15,-7 -39,-20 -61,-33 10,7 29,17 61,33z"/>
  <path class="fil0" d="M7749 4670c13,-36 1,-6 0,0z"/>
  <path class="fil0" d="M7861 4511c-1,8 -1,15 2,17 -2,-4 -3,-10 -2,-17z"/>
  <path class="fil0" d="M6843 6189c-1,1 -2,1 -3,2 11,-6 9,-5 3,-2z"/>
  <path class="fil0" d="M7774 4618c-6,14 -12,29 -20,45 4,-7 11,-20 20,-45z"/>
  <path class="fil0" d="M7765 4623c5,-12 8,-21 12,-31 -1,-5 -4,-1 -12,31z"/>
  <path class="fil0" d="M7732 4720c7,-21 15,-39 22,-57 -3,6 -5,9 -5,7 -3,11 -9,25 -17,50z"/>
  <path class="fil0" d="M1892 1055c3,-1 5,-2 8,-3 29,-28 15,-17 -8,3z"/>
  <path class="fil0" d="M4143 7311c1,0 2,0 4,-1 -2,0 -4,0 -6,0l2 1z"/>
  <path class="fil0" d="M4000 7320c61,-15 95,-13 141,-10l-46 -41c0,0 -24,14 -47,26 -24,12 -48,25 -48,25z"/>
  <path class="fil0" d="M45 4135c0,0 -3,26 -4,51 -1,26 -2,51 -2,51 -17,-60 -21,-113 -25,-139 -3,-26 -6,-24 -14,25 21,6 29,105 40,204 15,98 32,196 57,197l6 68c-4,-19 -7,-22 -11,-40 7,132 52,87 93,247 15,56 24,96 5,61l56 117c14,34 3,29 -11,-6 0,0 21,45 42,90 10,22 21,44 29,61 7,17 14,28 14,28l-2 -1c20,22 59,72 77,97 18,47 -15,-19 -14,-5 0,0 15,22 30,45 16,21 33,43 33,43 14,43 -46,-26 -78,-94 4,56 17,75 42,104 26,28 54,71 108,168 0,0 -16,-21 -32,-41 -16,-20 -30,-42 -30,-42 6,36 24,68 47,105 22,37 48,79 79,130 -13,-25 -104,-214 -27,-123 17,29 40,67 88,110 -12,10 29,57 79,116l-19 10c61,59 65,47 105,77 61,71 65,94 70,120 105,108 -55,-91 74,30 41,48 81,82 125,117 44,35 91,71 153,111 64,59 -20,1 1,25l71 34c14,12 6,12 2,13 55,34 16,-12 102,42 35,-3 147,151 269,196 22,22 -20,2 -16,14 153,80 132,68 264,121 0,0 24,19 49,35 25,18 49,35 49,35 -70,-56 39,-19 132,14 -24,-21 -44,-40 -58,-51 0,0 35,16 71,32 36,14 72,29 72,29 16,11 -2,11 -29,7 11,3 21,6 28,8 47,32 16,30 -25,23 -15,-12 -31,-24 -45,-36 -41,-6 -79,-11 -78,4 10,2 29,10 48,19 -10,-2 -17,-2 -14,2 3,5 20,8 46,14l22 37 12 -4c0,0 45,25 90,51 22,14 45,26 62,34 18,9 29,15 29,15 73,18 142,34 221,49 40,8 82,17 127,29 46,10 97,22 153,37 -61,-1 -21,23 -30,42 -27,-20 -71,-32 -122,-44 -51,-14 -109,-29 -166,-52 59,24 43,28 26,26 0,0 53,14 105,29 53,14 106,25 106,25 -9,14 40,26 92,50 -31,-43 162,24 250,35 3,12 -21,20 -124,-12 109,57 158,-1 267,46 -26,-5 -39,-10 -51,-7 62,6 208,38 172,42l-26 -5c85,19 217,37 331,46 115,6 210,5 224,-10 2,4 -24,33 -35,38 0,0 78,-21 157,-41 77,-23 153,-49 153,-49 -27,25 80,81 -65,96 42,3 94,9 181,-5 -28,-2 -72,-31 -33,-36 107,20 74,13 207,24 -43,-1 1,-44 67,-49 -10,6 9,36 -15,43 0,0 41,-14 82,-27 40,-16 79,-31 79,-31 -40,13 -2,32 36,37 -9,-2 27,-7 71,-14 43,-7 94,-16 116,-22l-71 5c93,-15 136,-37 178,-62 42,-25 84,-46 172,-72 -19,14 -41,62 52,39 38,-30 158,-141 302,-215l33 -1c0,0 28,-13 55,-29 28,-15 55,-30 55,-30 -57,60 -242,193 -352,253 70,-15 23,5 124,-30 39,-2 -50,34 -80,44 0,0 59,-18 119,-36 59,-21 117,-42 117,-42 -17,-15 167,-94 150,-108 0,0 -59,32 -118,64 -61,30 -121,59 -121,59 -18,-17 122,-112 281,-181 43,-11 -13,50 -8,55 19,-15 143,-86 160,-88l-61 44c92,-35 128,-99 241,-137 35,-20 118,-38 117,-53 -70,13 -120,-49 -94,-87 14,-3 188,-91 233,-107 65,-21 -55,95 1,77 -2,-6 25,-32 35,-43 38,-21 -3,25 70,-31 -1,-27 151,-110 24,-41 68,-59 78,-55 160,-121 -34,10 40,-99 102,-163 0,8 20,0 29,-4 67,-62 120,-108 169,-156 50,-47 97,-95 153,-159 15,-8 72,-68 57,-34 13,-22 21,-44 54,-86 79,-67 -72,94 -5,48 -3,-7 15,-37 39,-72 23,-37 50,-80 69,-113 -15,4 -41,38 -68,80 -28,41 -60,88 -80,120 -22,-18 40,-136 130,-286 71,-120 48,-41 59,-63 145,-220 77,-214 195,-396 54,-69 34,12 54,1 -44,106 -92,151 -129,218 0,0 15,-19 27,-39 14,-20 27,-40 27,-40 -6,18 -17,44 -30,70 -14,25 -30,50 -43,67 27,-27 84,-123 143,-238 58,-114 117,-247 158,-341 7,-36 24,-97 6,-72l-20 62c-34,50 24,-121 -11,-47 11,-41 19,-87 30,-136 11,-48 25,-100 44,-158l25 -17c-7,1 -31,74 -35,108 4,-50 76,-172 60,-233 0,0 -8,20 -16,40 -7,20 -17,39 -17,39 10,-86 12,-193 33,-297 -28,45 -2,25 -37,95 43,-58 -56,264 -5,168 -46,69 -42,128 -95,217 7,-1 23,-30 -7,53 0,5 0,15 -1,21 -1,2 -1,3 -2,5 1,-1 2,-2 2,-4 0,4 0,4 1,-2 9,-19 18,-34 24,-40 3,48 -47,181 -57,229 -23,48 1,-24 -16,1l-17 70c-17,1 -78,120 -37,2 0,0 -11,26 -22,51 -11,26 -24,51 -24,51 -36,56 -78,135 -100,186 -27,45 -51,124 -38,79 0,0 -20,39 -41,77 -21,39 -42,78 -42,78l-4 -1c-95,144 -185,308 -336,440 -17,24 -36,47 -58,74 -23,26 -50,54 -86,88l-22 4c-49,57 -170,146 -186,176 -80,31 -285,224 -399,291l6 17c-75,50 -147,99 -241,162l14 10c-40,28 -96,57 -160,86 -64,28 -135,58 -205,88 7,-9 43,-23 70,-32 -179,47 -349,173 -518,200 -38,16 -67,23 -96,27 3,-1 7,-2 9,-3 -4,1 -10,3 -16,4 -19,3 -37,6 -58,8 18,0 35,-3 49,-5 -31,9 -77,23 -123,37l-23 -10c-4,1 -7,1 -11,3 -46,5 -35,16 -8,22 -22,8 -43,16 -59,23 -43,-19 -122,33 -178,14 -15,9 -74,20 -132,33 -58,12 -116,23 -127,39 -2,-4 -16,-4 10,-7 -54,3 -107,4 -155,14l-24 -19c0,0 -28,8 -57,17 -29,9 -58,15 -58,15 -72,-11 -101,-18 -31,-35 -169,27 -137,9 -283,28l8 -12c-52,-1 -135,7 -166,-5 -28,-8 -78,-17 -140,-28 -32,-5 -67,-10 -104,-15 -37,-7 -76,-14 -117,-22 -82,-13 -167,-36 -251,-56 -83,-25 -164,-47 -232,-76 43,55 -126,-59 -146,-34 -14,-14 -50,-34 -3,-25 -72,-22 -124,-45 -171,-65 -46,-19 -87,-38 -140,-47 -12,-15 35,1 23,-10 -12,-3 -47,-12 -59,-23 -12,-11 23,2 46,8 -141,-59 -165,-46 -188,-25 -65,-46 -101,-61 -159,-73 -20,-21 -56,-51 30,-8 -23,-13 -95,-54 -161,-92 -66,-40 -128,-74 -136,-66 -11,-14 -64,-40 -77,-47 -101,-68 -109,-74 -209,-141l25 22c-53,-7 -84,-54 -164,-108l4 0c-83,-75 -101,-89 -121,-102 -19,-14 -41,-24 -115,-104l-2 19c-18,7 -52,-29 -93,-76 -41,-46 -85,-108 -135,-147l26 38c-60,-38 -99,-172 -141,-224 -8,-13 19,14 35,28 -102,-148 -32,-3 -121,-103 -6,-26 42,6 -12,-64 -12,-20 -54,-68 -104,-124 -50,-56 -97,-127 -120,-184 7,27 13,55 -24,4 -23,-41 -48,-101 -71,-160 -20,-60 -45,-116 -73,-151 -2,-12 -1,-17 0,-19 -15,-33 -40,-86 -60,-138 -19,-52 -39,-100 -52,-120 20,-40 -17,-146 -36,-249 -13,-51 -22,-101 -24,-138 -3,-37 -1,-61 12,-61 0,0 -2,-14 -3,-35 -1,-21 -2,-48 -3,-76 0,-28 -2,-56 -2,-77 1,-21 1,-35 1,-35l5 6c7,-142 5,-193 -3,-245 7,-32 9,-8 12,-4 41,-206 43,-225 64,-402l21 -13c0,-51 114,-281 186,-474 0,3 2,8 -3,24 38,-110 115,-226 182,-326 68,-99 124,-183 125,-234 0,0 19,-34 38,-67 19,-34 40,-66 40,-66 -122,157 -3,-40 -60,20 45,-65 138,-151 82,-72l-12 10c2,24 41,-25 84,-75 43,-49 87,-102 94,-93 255,-297 553,-540 851,-752l-49 5 106 -73c30,-15 47,-10 -28,42 46,-18 119,-97 119,-102 155,-90 -43,62 4,32l61 -42 -16 7c45,-42 44,-54 138,-110 62,-32 38,-5 62,-19 1,2 9,-3 37,-20l141 -77 -65 15c57,-44 134,-70 58,-56 56,-10 191,-76 324,-136 66,-29 132,-57 184,-79 54,-21 95,-36 111,-39 44,-25 90,-44 140,-62 49,-19 102,-37 161,-52 -30,5 -54,-11 48,-38 -25,51 192,-35 283,-21 -39,-2 33,-19 101,-36 67,-18 130,-29 69,-35 87,-11 8,16 75,15 204,-53 459,-51 715,-57 4,-5 -39,-14 16,-23 0,0 35,7 69,15 34,7 67,16 67,16 51,0 49,-31 141,-6 -13,-6 -32,-14 2,-14 252,32 507,69 758,136 251,67 496,165 711,306 -57,-41 -15,-22 32,3 -29,-19 7,-12 5,-22 0,0 44,31 89,61 45,30 87,64 87,64 23,1 72,31 119,60 47,30 90,62 106,59l-58 -36c44,16 25,-13 -1,-50 -27,-34 -63,-75 -49,-85 -52,-14 -103,-62 -167,-105 -32,-22 -66,-46 -102,-66 -37,-20 -77,-35 -120,-45 -31,-22 34,5 19,-10 -46,-7 -93,-28 -180,-70l11 1c-253,-100 -360,-152 -657,-233l18 21c-63,-18 -76,-23 -106,-34 -39,5 6,14 52,24 46,10 92,23 56,27 -38,-27 -153,-49 -263,-68 -56,-9 -111,-17 -155,-26 -45,-7 -79,-15 -93,-26 -101,-10 28,21 -73,11l-26 -12 -26 11c-66,-5 -99,-19 -102,-27 17,1 47,-1 64,0 -86,-19 -244,-4 -274,-7l98 6c-277,4 -617,22 -876,92l21 4c-99,24 -138,33 -182,39 -43,5 -88,13 -195,44l7 -4c-41,17 -97,39 -156,55 52,-24 -107,14 -39,-16 -205,82 -100,44 -229,118l-35 0c-42,28 -45,34 -146,78 80,-45 -73,11 16,-42 -113,33 -191,73 -252,109 -63,34 -111,61 -167,69 -40,39 7,20 58,-4 51,-24 107,-51 81,-35 50,-12 -69,59 -135,91 -66,32 -133,18 -296,113 16,-9 16,-13 32,-22 -65,29 -112,81 -193,115 -29,44 -94,61 -91,90 0,0 35,-25 70,-49 35,-26 71,-50 71,-50 -79,59 -139,133 -277,214 7,-11 42,-44 66,-67 -43,21 -71,57 -115,79 -4,-29 166,-127 245,-200 -50,18 -155,126 -127,73 -42,73 -156,103 -240,204l-3 -17c-14,14 -43,45 -71,69l39 -59c-69,79 -165,114 -233,188 156,-138 47,-16 122,-65 -179,184 -141,63 -343,269 25,-30 112,-94 72,-48 -42,35 -96,84 -126,102 -131,139 32,-10 -17,55 -59,33 -58,74 -109,140l-12 -10c-148,159 -14,64 -145,207 0,0 8,-20 16,-39 9,-20 18,-39 18,-39 0,0 -16,20 -30,41 -14,21 -29,42 -29,42l-1 -28c-58,97 -81,122 -147,208 24,-13 14,27 -37,108 -43,50 7,-39 -64,77 8,-31 15,-66 60,-108 -1,-8 7,-32 7,-39 -47,54 -100,147 -123,191 10,-16 22,-35 30,-44 0,0 -20,46 -40,91 -10,23 -20,46 -28,63 -8,17 -12,29 -12,29 -19,25 -12,0 -5,-24 -17,37 -23,65 -49,118 -5,-19 -18,-22 15,-100 0,0 -19,44 -37,88 -20,43 -35,88 -35,88 -11,9 -55,83 -49,58 -52,94 -76,249 -127,379 0,8 -2,23 -8,52 -10,31 -20,62 -30,92 -9,31 -17,62 -26,93 -17,63 -27,131 -31,210 0,0 -10,21 -17,42 -8,22 -16,43 -16,43 -8,123 41,-116 29,87 -1,144 -23,53 -32,103 5,37 11,87 18,143 4,28 6,58 6,90 2,31 3,64 1,97 -7,-43 -9,-78 -11,-119zm507 1399l0 0c-20,-22 -62,-64 -66,-87 34,18 41,43 66,87zm1780 1344l0 0c-21,-4 -50,-21 -80,-43 24,11 51,25 80,43zm5267 -1821l0 0c0,2 0,2 -1,4 -32,52 -20,34 1,-4zm62 -113l0 0c3,-12 1,-12 -4,-8 1,10 -11,36 -27,65 8,-7 18,-20 31,-57zm-5362 -4021l0 0 -24 9c46,-33 35,-21 24,-9z"/>
  <path class="fil0" d="M2094 6785c-6,-6 -6,-10 -7,-13 -11,-3 -12,-1 7,13z"/>
  <path class="fil0" d="M160 3207l2 -5c-1,-2 -1,-4 -2,-5l0 10z"/>
  <path class="fil0" d="M6471 6569c-23,15 -38,20 -48,23 0,4 13,1 48,-23z"/>
  <path class="fil0" d="M7851 4293c0,0 -2,20 -7,40 -4,20 -8,40 -8,40 9,-38 17,-51 23,-70 -4,1 -13,15 -8,-10z"/>
  <path class="fil0" d="M8031 3590c-2,-12 0,-26 -2,-38l-8 3c1,52 6,89 10,35z"/>
  <path class="fil0" d="M7919 4229c14,-4 22,-55 27,-114l-1 11c-16,-21 -18,42 -26,103z"/>
  <path class="fil0" d="M7948 4102c2,-18 5,-36 8,-53 -6,-8 -5,21 -8,53z"/>
  <path class="fil0" d="M7716 4791c13,-25 -10,-23 1,-35 -3,-34 -49,176 -1,35z"/>
  <polygon class="fil0" points="7972,4191 7951,4209 7958,4244 "/>
  <path class="fil0" d="M7843 4638l33 -89c-3,1 -1,-11 2,-25 -18,55 -40,114 -35,114z"/>
  <path class="fil0" d="M7878 4524c10,-29 15,-57 17,-74 -3,16 -11,50 -17,74z"/>
  <path class="fil0" d="M7950 4318l-9 27 -18 64c0,0 7,-23 14,-45 8,-23 13,-46 13,-46z"/>
  <path class="fil0" d="M7389 5535c0,0 -13,22 -27,43 -15,22 -29,43 -29,43 -1,12 18,-9 39,-41 12,-22 30,-55 17,-45z"/>
  <path class="fil0" d="M7594 5296c-17,22 -22,22 -35,32l16 14 19 -46z"/>
  <path class="fil0" d="M7437 5554c0,12 -74,133 1,24 2,-12 55,-101 -1,-24z"/>
  <polygon class="fil0" points="6306,6612 6328,6597 6307,6571 "/>
  <path class="fil0" d="M5072 7224c123,-22 24,-26 135,-45 26,-15 -91,16 -64,1 -70,26 -110,30 -71,44z"/>
  <path class="fil0" d="M5143 7180c12,-4 24,-8 36,-14 -20,7 -30,11 -36,14z"/>
  <polygon class="fil0" points="6761,883 6820,933 6786,895 "/>
  <path class="fil0" d="M6896 947l3 28 49 10c-15,-9 -43,-27 -52,-38z"/>
  <path class="fil0" d="M654 5738l8 1c-4,-13 -15,-28 -38,-58l30 57z"/>
  <polygon class="fil0" points="138,4769 143,4788 152,4748 "/>
  <path class="fil0" d="M7 3851c-3,38 0,83 -3,121 0,-83 27,-130 3,-121z"/>
  <path class="fil0" d="M1381 6354c23,27 29,3 35,4 -44,-38 -38,1 -35,-4z"/>
  <polygon class="fil0" points="959,5954 972,5956 902,5902 "/>
  <path class="fil0" d="M649 5507c-3,32 26,72 59,117 33,44 72,91 96,133l3 18 48 19c-74,-91 -171,-211 -206,-287z"/>
  <path class="fil0" d="M580 5219c-4,22 -38,-49 26,61 -2,-6 -2,-8 -3,-12 -5,-10 -12,-24 -23,-49z"/>
  <path class="fil0" d="M603 5268c26,49 -6,-38 0,0z"/>
  <path class="fil0" d="M487 5037l40 63c2,-17 -22,-78 -7,-58 -36,-66 -37,-49 -33,-5z"/>
  <path class="fil0" d="M436 4983l20 33c0,-7 -3,-17 -20,-33z"/>
  <path class="fil0" d="M498 5087l-42 -71c-1,12 -11,18 18,33 -12,-2 3,9 24,38z"/>
  <path class="fil0" d="M511 5131c10,41 31,91 -14,30 68,125 80,95 14,-30z"/>
  <path class="fil0" d="M604 5502c0,0 5,14 10,27 4,14 10,28 10,28l36 35c-19,-17 -49,-99 -56,-90z"/>
  <path class="fil0" d="M357 4600c-9,-2 -13,29 -21,37l24 50c-3,-29 -14,-80 -3,-87z"/>
  <path class="fil0" d="M336 4637c0,0 -9,-19 -16,-38 -8,-19 -16,-38 -16,-38 15,72 26,82 32,76z"/>
  <path class="fil0" d="M394 4985l78 114c0,0 -22,-34 -44,-69 -11,-17 -22,-34 -30,-47 -8,-14 -13,-23 -13,-23l9 25z"/>
  <polygon class="fil0" points="297,4299 322,4341 283,4265 "/>
  <path class="fil0" d="M270 4097c17,32 22,-48 33,-13 -5,-54 -20,-100 -33,-143 9,45 9,93 0,156z"/>
  <path class="fil0" d="M254 3870c3,23 8,46 16,71 -5,-23 -8,-47 -16,-71z"/>
  <path class="fil0" d="M278 4424c3,-7 13,-21 11,-66l-16 35c2,9 3,20 5,31z"/>
  <path class="fil0" d="M273 4394l0 -1c-5,-35 -9,-59 -10,-69 1,9 4,30 10,70z"/>
  <path class="fil0" d="M279 4432c0,-3 -1,-5 -1,-8 -2,4 -2,6 1,8z"/>
  <path class="fil0" d="M341 4774c-25,-42 -66,-137 -56,-37 24,29 18,-28 56,37z"/>
  <path class="fil0" d="M261 4477l15 86c5,-3 10,-20 21,2l-36 -88z"/>
  <path class="fil0" d="M246 4436c0,0 3,11 7,21 4,10 8,20 8,20l-5 -32 -10 -9z"/>
  <path class="fil0" d="M238 4018c-10,-37 -16,-78 -16,-124 -6,49 -2,101 -1,150 7,6 20,27 17,-26z"/>
  <path class="fil0" d="M247 4201c-1,-2 -2,-6 -2,-8 -2,5 -2,9 2,8z"/>
  <polygon class="fil0" points="255,3440 250,3447 253,3449 "/>
  <path class="fil0" d="M218 4052c-3,38 4,60 13,80 -6,-27 -8,-57 -10,-88 -3,-3 -5,-4 -3,8z"/>
  <path class="fil0" d="M246 3744c-6,19 -9,41 -13,64 7,-19 17,-57 13,-64z"/>
  <path class="fil0" d="M249 4180c1,2 1,3 2,5 3,-12 1,-10 -2,-5z"/>
  <path class="fil0" d="M249 4180c-5,-19 -12,-33 -18,-48 4,23 9,43 14,61 1,-5 2,-10 4,-13z"/>
  <path class="fil0" d="M145 3278c20,11 14,113 -15,197 4,88 75,38 120,-28 -8,-4 -18,-5 -13,-92 -19,27 -53,187 -61,112 5,-117 22,-93 41,-147 -16,21 -18,-17 -21,-58 -3,-42 -3,-86 -24,-77 0,0 -3,25 -5,51 -2,26 -4,53 -4,53 -6,0 -7,-38 -18,-11z"/>
  <path class="fil0" d="M228 3609l0 35c6,-39 16,-68 39,-118 -2,-59 -8,-72 -14,-77 0,0 -6,43 -12,86 -7,43 -10,86 -10,86l-3 -12z"/>
  <path class="fil0" d="M220 3802c-22,-27 -25,-114 -52,-62 -1,105 17,74 25,136 -4,-168 11,49 25,-72 3,33 4,62 4,90 3,-30 7,-59 11,-86 -1,1 -1,2 -1,4l0 0 -1 0c-2,7 -4,10 -2,2 -1,-1 -1,-3 -1,-4 -3,-1 -5,-4 -8,-8 5,-48 6,-7 8,8 1,1 2,2 3,2l1 0c0,0 -1,-11 -2,-26 -1,-16 -2,-37 -2,-58 0,-42 0,-84 0,-84 -4,36 -10,80 -8,158z"/>
  <path class="fil0" d="M215 4661c0,-6 2,-6 3,-7 -5,-10 -8,-13 -3,7z"/>
  <path class="fil0" d="M211 4589c6,11 16,19 24,59 3,36 -10,3 -17,6 13,23 39,79 28,2l-7 -10c-8,-70 -2,-162 4,-150 -15,23 -24,43 -32,93z"/>
  <path class="fil0" d="M184 4188c0,0 -7,-35 -13,-70 -6,-35 -10,-71 -10,-71 0,0 -3,19 -7,37 -4,19 -7,37 -7,37l11 -5c4,82 16,63 26,72z"/>
  <path class="fil0" d="M267 3426l20 22c0,0 -6,-21 -10,-42 -4,-21 -8,-42 -8,-42l-2 62z"/>
  <polygon class="fil0" points="298,3248 315,3259 315,3210 "/>
  <path class="fil0" d="M8061 3015l14 41c-6,-20 -10,-32 -14,-41z"/>
  <path class="fil0" d="M7982 2707l-11 -4c9,12 14,17 11,4z"/>
  <path class="fil0" d="M3397 332c63,3 134,19 123,-1l-23 -18c-40,11 -72,18 -100,19z"/>
  <path class="fil0" d="M6398 753c-4,-5 -8,-11 -11,-16 -17,-2 -33,-4 -47,-6 18,7 38,13 58,22z"/>
  <path class="fil0" d="M6484 705l60 60c-12,-15 -31,-34 -60,-60z"/>
  <path class="fil0" d="M8093 4738l10 56c18,-80 -1,-47 -10,-56z"/>
  <path class="fil0" d="M1161 1622c42,-32 73,-59 99,-85 -52,37 -101,61 -99,85z"/>
  <path class="fil0" d="M7810 2949c10,23 17,33 21,31 -9,-25 -17,-38 -21,-31z"/>
  <path class="fil0" d="M1367 1432c-8,6 -16,10 -24,16 -25,28 -51,57 -83,89 38,-27 80,-59 107,-105z"/>
  <path class="fil0" d="M3096 7343c-4,-2 -9,-4 -13,-6 -2,2 4,4 13,6z"/>
  <path class="fil0" d="M1555 6438c15,8 39,23 62,36 -10,-8 -29,-19 -62,-36z"/>
  <path class="fil0" d="M542 2565c-15,35 0,6 0,0z"/>
  <path class="fil0" d="M389 2704c1,-9 0,-16 -4,-19 3,5 4,11 4,19z"/>
  <path class="fil0" d="M1574 1074c1,0 2,-1 3,-2 -12,4 -10,4 -3,2z"/>
  <path class="fil0" d="M509 2613c8,-12 17,-26 27,-42 -5,7 -14,19 -27,42z"/>
  <path class="fil0" d="M521 2610c-7,11 -11,21 -15,30 1,6 4,2 15,-30z"/>
  <path class="fil0" d="M565 2516c-10,20 -19,38 -29,55 4,-6 7,-8 6,-6 5,-10 12,-25 23,-49z"/>
  <path class="fil0" d="M6330 6943c-3,0 -6,1 -9,2 -32,27 -16,18 9,-2z"/>
  <path class="fil0" d="M4403 9c-1,1 -2,1 -4,1 2,0 4,1 6,1l-2 -2z"/>
  <path class="fil0" d="M4551 0c-64,24 -99,19 -146,11l46 64 100 -75z"/>
  <path class="fil0" d="M8161 3766c0,0 5,-26 7,-52 4,-26 7,-52 7,-52 40,123 27,217 53,117 -32,-7 -39,-108 -48,-209 -11,-101 -25,-202 -59,-204l4 -70c3,20 7,22 9,41 10,-136 -59,-91 -84,-258 -6,-60 -5,-103 11,-64 0,0 -11,-32 -23,-63 -12,-31 -24,-63 -24,-63 -8,-37 5,-31 13,7 0,0 -12,-49 -27,-98 -16,-48 -32,-96 -32,-96l3 1c-18,-25 -53,-82 -71,-110 -7,-51 15,22 19,7l-52 -100c2,-49 48,33 71,107 28,-121 -42,-83 -91,-307l47 96c6,-39 -3,-77 -16,-120 -14,-43 -33,-91 -48,-151 2,32 45,245 -20,140 -10,-33 -26,-76 -66,-130 22,-11 -13,-66 -51,-137l30 -10c-47,-74 -61,-58 -98,-96 -46,-85 -36,-115 -31,-146 -82,-134 26,112 -81,-40 -29,-58 -62,-102 -100,-147 -37,-45 -82,-88 -139,-141 -49,-77 25,0 12,-31 0,0 -18,-12 -36,-23 -18,-11 -36,-22 -36,-22 -13,-15 -3,-15 2,-15 -53,-44 -27,17 -105,-55 -21,1 -51,-45 -90,-100 -38,-55 -88,-119 -151,-146 -18,-28 25,-5 26,-20 -151,-100 -129,-87 -265,-150 0,0 -21,-24 -42,-47 -22,-22 -45,-44 -45,-44 61,72 -51,27 -146,-12 19,28 36,52 48,66 0,0 -35,-19 -70,-39 -35,-19 -71,-36 -71,-36 -14,-15 6,-15 35,-13 -11,-3 -21,-6 -29,-9 -42,-40 -7,-40 38,-33 12,16 25,32 38,48 43,7 86,11 89,-9 -10,-3 -29,-12 -48,-24 12,2 20,2 18,-3 -3,-6 -20,-11 -48,-18l-12 -50 -15 7c0,0 -42,-33 -85,-67 -21,-17 -43,-33 -59,-44 -17,-12 -28,-20 -28,-20 -76,-22 -148,-39 -232,-56 -41,-9 -83,-22 -131,-35 -47,-12 -98,-27 -155,-47 65,-1 28,-34 43,-62 48,56 179,60 289,125 -58,-32 -39,-39 -21,-36 0,0 -54,-19 -108,-37 -55,-15 -110,-31 -110,-31 15,-20 -36,-37 -87,-68 12,31 -31,24 -87,8 -28,-9 -60,-19 -91,-29 -31,-9 -60,-15 -83,-19 -1,-16 26,-29 131,12 -52,-40 -96,-35 -138,-33 -43,4 -83,5 -137,-24 26,6 39,12 52,7 -65,-3 -212,-51 -174,-56l27 6c-44,-14 -100,-25 -159,-37 -30,-5 -61,-10 -91,-16 -31,-3 -62,-7 -91,-10 -118,-13 -218,-6 -233,12 -1,-5 28,-48 40,-56 0,0 -21,7 -52,18 -32,9 -73,25 -114,41 -40,16 -80,32 -110,44 -30,12 -50,22 -50,22 29,-36 -79,-124 72,-142 -43,-8 -97,-12 -188,1 30,5 73,52 34,55 -111,-40 -76,-20 -214,-49 45,7 -1,64 -69,68 10,-9 -11,-55 14,-64l-166 72c41,-13 2,-48 -39,-58 20,9 -149,19 -193,33 0,0 18,0 37,0 19,1 37,1 37,1 -194,25 -175,109 -361,149 20,-16 40,-82 -58,-66 -38,40 -156,184 -304,258l-35 -4 -113 62c57,-69 241,-231 355,-296 -74,8 -26,-15 -130,20 -42,-3 50,-42 82,-50 0,0 -63,15 -125,33 -31,9 -62,18 -86,24 -23,7 -38,12 -38,12 21,28 -173,100 -153,123 0,0 15,-9 38,-21 23,-12 54,-28 85,-44 62,-34 126,-62 126,-62 20,28 -122,138 -287,202 -47,5 8,-68 1,-77 -17,20 -150,86 -167,87 0,0 15,-12 31,-24 16,-12 31,-24 31,-24 -97,31 -131,107 -252,134 -38,17 -132,19 -128,41 79,1 144,100 119,145 -14,3 -203,71 -252,82 -73,10 49,-115 -13,-107 3,10 -24,39 -35,51 -41,16 1,-34 -78,20 4,35 -162,105 -22,48 -71,60 -86,49 -174,113 41,-3 -35,117 -100,180 -1,-10 -24,-6 -35,-4 -74,58 -132,100 -187,144 -57,43 -109,88 -173,149 -18,4 -84,59 -69,22 -13,23 -21,48 -58,87 -94,56 81,-90 0,-57 4,10 -15,40 -41,76 -26,36 -57,79 -78,112 19,1 50,-31 81,-72 31,-41 66,-88 88,-120 30,29 -33,154 -134,303 -82,117 -60,31 -71,54 -172,209 -81,224 -228,391 -68,61 -47,-25 -74,-18 55,-105 113,-143 158,-207 0,0 -17,18 -34,36 -16,18 -32,37 -32,37 12,-37 54,-104 86,-134 -16,11 -42,40 -73,79 -29,41 -64,92 -101,147 -68,113 -145,240 -201,331 -8,38 -27,100 -4,77l25 -62c45,-45 -27,125 18,54 -25,86 -42,185 -97,295l-36 11c9,1 43,-69 49,-104 -4,26 -30,66 -53,109 -22,43 -44,88 -32,121 0,0 10,-19 23,-38 13,-18 25,-37 25,-37 -9,44 -12,94 -18,146 -7,51 -16,104 -32,155 41,-40 1,-25 56,-89 -31,25 -11,-40 8,-101 17,-61 40,-115 -1,-73 66,-60 61,-123 134,-203 -10,-1 -32,26 8,-55 -1,-5 -1,-16 -1,-22 2,-2 2,-3 4,-5 -2,1 -2,2 -4,4 1,-4 1,-5 -1,1 -12,18 -24,32 -32,37 -5,-52 60,-182 72,-231 30,-45 -1,25 23,4l19 -72c23,3 100,-108 51,9 0,0 14,-24 28,-49 15,-24 30,-48 30,-48 22,-26 46,-57 67,-89 23,-31 43,-63 55,-89 32,-42 57,-125 44,-77 0,0 23,-38 47,-76 12,-19 24,-38 33,-52 9,-14 16,-23 16,-23l5 2c109,-137 208,-304 381,-416 39,-46 79,-94 159,-154l27 2c53,-55 188,-131 202,-165 95,-11 307,-205 428,-265l-8 -24c80,-45 153,-95 252,-156l-17 -16c81,-63 238,-98 382,-159 -7,12 -44,26 -72,32 190,-25 358,-176 535,-184 38,-19 69,-24 99,-25 -3,1 -7,2 -10,3 5,0 11,-2 17,-3 20,-1 39,-1 60,-2 -18,-1 -36,-2 -50,0 31,-8 79,-23 125,-38l25 19c4,-1 7,-1 11,-2 48,0 36,-19 7,-32 23,-8 45,-17 61,-26 44,30 124,-33 183,0 29,-27 241,-41 264,-84 2,5 17,7 -10,9 55,2 110,4 159,-10l24 30 119 -41c72,17 101,31 29,52 87,-16 122,-16 154,-18 32,-3 61,-4 136,-14l-9 18c53,4 140,-13 169,9 57,26 200,48 363,90 165,37 346,103 480,172 -32,-76 118,79 147,43 10,19 45,42 -4,34 144,54 196,119 305,139 9,20 -38,1 -28,16 12,3 48,13 58,28 9,15 -26,-1 -50,-7 69,35 110,50 140,50 29,0 46,-14 61,-27 58,58 92,78 154,91 16,27 45,64 -37,11 21,18 89,68 149,117 61,49 120,91 132,80 9,17 57,53 70,59 93,84 99,92 188,176l-20 -27c60,7 81,63 150,133l-5 0c67,92 84,108 101,125 17,17 36,33 90,130l12 -24c27,-7 50,38 78,95 28,58 55,131 99,179l-14 -46c27,24 37,77 44,129 7,53 12,106 24,139 3,15 -17,-18 -30,-35 57,175 38,6 107,124 -4,30 -51,-11 -16,73 7,45 160,221 167,352 4,-30 7,-60 37,-3 19,45 27,112 37,176 12,64 24,126 54,164 0,13 -3,19 -6,20 15,35 32,93 49,148 17,55 34,106 48,127 -35,41 -7,153 13,259 22,106 37,205 0,206 0,0 2,14 2,36 1,21 2,50 3,78 1,29 2,58 3,79 0,22 0,36 0,36l-8 -6c-7,146 7,199 21,252 -8,34 -13,8 -17,5 -33,213 -35,232 -28,417l-28 14c1,25 -22,100 -54,192 -17,46 -32,97 -49,149 -18,52 -32,105 -43,157 -2,-3 -4,-8 -2,-25 -14,57 -38,117 -65,177 -30,57 -61,115 -92,167 -33,52 -59,101 -79,142 -20,42 -29,79 -21,109 0,0 -14,37 -32,72 -17,35 -34,71 -34,71 119,-165 15,46 74,-15 -20,35 -55,75 -79,95 -24,18 -36,19 -8,-22l12 -10c-14,-55 -165,192 -189,164 -127,153 -272,281 -431,393 -156,116 -319,213 -479,307 0,0 14,2 28,5 14,2 28,4 28,4 0,0 -7,5 -18,11 -11,6 -25,13 -39,21 -29,15 -58,30 -58,30 -34,9 -54,-3 28,-46 -53,5 -128,90 -127,98 -170,66 45,-68 -6,-45 0,0 -17,9 -33,18 -17,8 -34,17 -34,17l18 -3c-49,39 -47,57 -149,102 -68,20 -42,-7 -68,2 -1,-2 -10,0 -40,15 0,0 -38,15 -76,30 -38,13 -77,26 -77,26l72 5c-64,38 -147,50 -64,55 -61,-3 -207,40 -350,77 -143,37 -283,65 -318,63 -48,21 -98,30 -151,41 -53,10 -109,15 -172,19 32,3 54,33 -55,39 35,-68 -200,-16 -288,-65 39,16 -37,18 -108,21 -71,4 -137,3 -76,30 -90,-10 -5,-25 -72,-44 -216,15 -468,-57 -726,-102 -6,8 35,30 -24,31 0,0 -31,-18 -63,-36 -32,-17 -63,-36 -63,-36 -52,-9 -59,37 -144,-16 11,10 28,26 -7,20 -245,-88 -498,-166 -745,-268 -246,-102 -486,-227 -688,-399 52,52 10,28 -36,0 28,22 -12,18 -13,32 0,0 -43,-35 -84,-73 -42,-37 -83,-75 -83,-75 -52,5 -194,-134 -230,-124l59 38c-98,-26 58,143 20,174 110,26 201,211 384,248 29,28 -36,-3 -24,16 50,4 97,30 181,84l-12 -1c249,127 349,197 637,328l-13 -31c62,28 73,39 101,56 85,-5 -178,-69 -97,-81 33,39 144,82 254,120 109,39 216,72 238,106 100,30 -22,-35 78,-5l23 21 31 -12c65,20 94,47 94,59 -16,-5 -47,-8 -65,-11 82,41 247,51 276,63l-97 -30c281,49 627,113 905,91l-20 -12c105,-6 147,-5 192,0 44,6 92,10 207,0l-8 3c45,-12 106,-22 169,-27 -57,18 112,16 37,37 226,-47 111,-31 254,-91l37 13c48,-26 51,-36 162,-61 -89,33 78,14 -22,54 123,-5 209,-37 278,-64 69,-29 122,-50 184,-38 45,-44 -6,-30 -63,-17 -57,15 -118,36 -90,22 -54,-2 78,-61 150,-80 72,-27 147,23 327,-56 -18,7 -18,11 -36,19 37,-8 68,-26 102,-44 33,-19 68,-39 113,-48 32,-50 106,-49 100,-92 0,0 -9,6 -23,15 -15,8 -35,18 -54,29 -40,21 -79,43 -79,43 44,-27 82,-60 128,-94 45,-36 99,-73 177,-103 -7,13 -45,46 -72,68 48,-15 79,-51 127,-68 5,22 -41,51 -99,83 -58,33 -126,71 -169,107 56,-6 169,-122 141,-58 22,-43 65,-64 115,-88 48,-26 103,-55 148,-107l5 24c16,-14 47,-46 79,-68 0,0 -10,16 -21,32 -9,17 -21,32 -21,32 39,-40 83,-66 130,-89 46,-24 94,-46 130,-84 -174,130 -56,6 -140,46 50,-44 84,-69 111,-86 27,-16 48,-22 70,-28 44,-13 95,-22 205,-129 -29,30 -125,92 -84,41 46,-35 110,-78 144,-95 138,-147 -39,5 11,-66 68,-29 62,-77 111,-149l19 15c81,-81 79,-102 77,-119 -2,-17 -6,-31 63,-106l-25 88 57 -90 9 34c27,-53 43,-88 65,-119 21,-32 45,-61 76,-109 -28,14 -30,-35 20,-121 44,-53 3,45 65,-83 -2,35 0,77 -50,120 3,9 -4,35 0,44 54,-55 91,-163 115,-209 -10,18 -22,39 -30,48 0,0 4,-13 10,-31 6,-19 14,-44 20,-69 14,-51 27,-101 27,-101 22,-26 18,0 14,26 15,-39 16,-70 35,-128 12,22 34,26 9,111 0,0 3,-12 9,-30 5,-18 11,-42 18,-67 12,-48 25,-96 25,-96 13,-9 53,-89 52,-62 23,-51 36,-118 45,-190 5,-36 10,-72 17,-109 6,-36 13,-73 25,-107 -2,-8 -3,-24 1,-55 16,-66 31,-128 46,-194 11,-66 20,-137 14,-218l41 -89c1,-126 -52,121 -51,-89 -8,-148 31,-54 42,-106 -7,-37 -20,-88 -30,-146 -8,-58 -12,-123 -3,-192 9,45 8,80 11,122zm-350 -1498l0 0c18,25 53,75 48,101 -38,-22 -34,-52 -48,-101zm-1576 -1674l0 0c22,5 49,26 77,54 -25,-13 -51,-30 -77,-54zm-5507 1591l0 0c0,-1 0,-2 0,-3 42,-48 26,-32 0,3zm-77 107l0 0c-4,13 0,14 5,11 0,-11 15,-37 34,-64 -11,4 -23,17 -39,53zm5227 4690l0 0 26 -4c-51,28 -38,16 -26,4z"/>
  <path class="fil0" d="M6474 710c4,8 3,13 2,18 12,3 15,0 -2,-18z"/>
  <path class="fil0" d="M8091 4728l-1 5c1,3 2,4 3,5l-2 -10z"/>
  <path class="fil0" d="M1965 685c26,-12 42,-17 53,-19 -2,-5 -15,-3 -53,19z"/>
  <path class="fil0" d="M404 2936l22 -80c-12,38 -22,50 -32,68 6,0 19,-13 10,12z"/>
  <path class="fil0" d="M113 3623c2,13 -1,27 1,40l11 -3c3,-54 -3,-92 -12,-37z"/>
  <path class="fil0" d="M306 2986c-21,0 -31,53 -43,112l3 -10c22,23 30,-39 40,-102z"/>
  <path class="fil0" d="M261 3111c-4,18 -7,37 -13,54 10,9 8,-21 13,-54z"/>
  <path class="fil0" d="M583 2444c-18,22 15,27 1,37 7,39 60,-177 -1,-37z"/>
  <polygon class="fil0" points="228,3013 258,3000 249,2962 "/>
  <path class="fil0" d="M409 2572l-43 86c4,1 2,13 -2,27 23,-54 53,-112 45,-113z"/>
  <path class="fil0" d="M364 2685c-13,29 -24,56 -25,74 4,-16 18,-50 25,-74z"/>
  <polygon class="fil0" points="260,2884 274,2859 299,2795 "/>
  <path class="fil0" d="M965 1703c0,0 15,-22 31,-42 16,-21 32,-42 32,-42 1,-14 -22,4 -45,36 -13,22 -35,55 -18,48z"/>
  <path class="fil0" d="M715 1915c22,-20 27,-19 43,-27l-23 -21 -20 48z"/>
  <path class="fil0" d="M900 1663c-1,-14 83,-133 -5,-29 -1,14 -63,102 5,29z"/>
  <polygon class="fil0" points="2151,673 2127,687 2156,729 "/>
  <path class="fil0" d="M3437 59c-129,16 -23,37 -140,48 -27,19 95,-9 67,8 73,-31 115,-29 73,-56z"/>
  <path class="fil0" d="M3364 115c-11,5 -24,10 -36,16 21,-8 30,-12 36,-16z"/>
  <path class="fil0" d="M1332 6252c0,0 -14,-13 -29,-27 -14,-13 -28,-27 -28,-27 0,0 7,11 15,22 8,11 15,21 15,21l27 11z"/>
  <path class="fil0" d="M1188 6192l5 -37 -55 -6c15,10 44,29 50,43z"/>
  <path class="fil0" d="M7770 2030l-10 -2c-2,16 7,33 24,69l-14 -67z"/>
  <polygon class="fil0" points="8112,3111 8109,3092 8087,3133 "/>
  <path class="fil0" d="M8222 4057c3,-39 -3,-85 0,-124 3,85 -36,134 0,124z"/>
  <path class="fil0" d="M1750 1848c0,0 -1,2 -1,3 2,-7 1,-3 1,-3z"/>
  <polygon class="fil0" points="1762,1788 1763,1790 1762,1781 "/>
  <path class="fil0" d="M1778 1735c-9,4 -5,19 -10,29l-2 1 3 5c3,-12 4,-27 9,-35z"/>
  <path class="fil0" d="M1807 1712c-4,1 0,-6 -4,6 0,0 1,-1 1,-1 0,-1 1,-2 3,-5z"/>
  <path class="fil0" d="M1804 1717c-2,5 5,-2 0,0z"/>
  <path class="fil0" d="M1816 1694l-1 7c3,0 7,-6 8,-3 2,-7 -1,-7 -7,-4z"/>
  <path class="fil0" d="M1811 1685l0 4c1,0 2,-1 0,-4z"/>
  <path class="fil0" d="M1810 1697l1 -8c-2,1 -6,0 -1,4 -2,-2 0,1 0,4z"/>
  <path class="fil0" d="M1806 1701c-4,3 -8,8 -8,0 -5,13 2,13 8,0z"/>
  <path class="fil0" d="M1771 1731l-4 5 1 5c0,-2 5,-10 3,-10z"/>
  <path class="fil0" d="M1845 1657c-2,-2 -8,-1 -12,-2l0 6c3,-2 8,-6 12,-4z"/>
  <path class="fil0" d="M1833 1655l0 -8c-5,6 -3,8 0,8z"/>
  <polygon class="fil0" points="1800,1680 1802,1695 1801,1678 "/>
  <polygon class="fil0" points="1864,1632 1868,1639 1863,1628 "/>
  <path class="fil0" d="M1875 1616c4,5 12,1 14,5 2,-4 0,-10 -2,-16 0,5 -4,8 -12,11z"/>
  <path class="fil0" d="M1885 1597c0,2 1,5 2,8 0,-2 0,-5 -2,-8z"/>
  <path class="fil0" d="M1842 1636c2,0 7,1 12,-2l-10 -1 -2 3z"/>
  <path class="fil0" d="M1844 1633l0 0c2,-3 4,-5 4,-6 0,1 -2,3 -4,6z"/>
  <path class="fil0" d="M1842 1636l0 0c-1,0 -1,0 0,0z"/>
  <path class="fil0" d="M1815 1663c-2,-6 -2,-17 -12,-10 4,5 9,1 12,10z"/>
  <path class="fil0" d="M1830 1636l-7 6c2,1 6,1 7,4l0 -10z"/>
  <polygon class="fil0" points="1829,1631 1830,1636 1832,1633 "/>
  <path class="fil0" d="M1868 1603c-2,-4 0,-8 2,-12 -4,3 -9,7 -11,11 2,2 6,6 9,1z"/>
  <path class="fil0" d="M1855 1617l0 -1c-1,1 -1,1 0,1z"/>
  <polygon class="fil0" points="1898,1556 1896,1556 1898,1557 "/>
  <path class="fil0" d="M1857 1602c-4,2 -3,5 -1,8 0,-3 1,-5 3,-8 -1,-1 -2,-1 -2,0z"/>
  <path class="fil0" d="M1889 1585c-3,0 -6,1 -9,2 4,0 11,0 9,-2z"/>
  <path class="fil0" d="M1858 1616l0 1c3,0 2,0 0,-1z"/>
  <path class="fil0" d="M1858 1616c0,-2 -1,-4 -2,-6 -1,2 -1,4 -1,6 1,0 2,0 3,0z"/>
  <path class="fil0" d="M1844 1506c8,6 11,20 -3,22 3,11 34,23 55,28 -4,-3 -7,-5 -8,-15 -6,-1 -22,9 -26,-2 2,-13 8,-7 17,-8 -15,-3 -8,-22 -26,-32l0 13c-3,-2 -5,-7 -9,-6z"/>
  <path class="fil0" d="M1885 1568l-1 3c4,-2 9,-2 20,-2 -1,-7 -4,-10 -6,-12l-12 13 -1 -2z"/>
  <path class="fil0" d="M1875 1584c-8,-7 -7,-17 -20,-18 -5,9 4,10 4,17 8,-14 2,7 15,0 -1,3 -2,6 -4,8 3,-1 7,-3 10,-4l-1 0 0 0 0 0c-2,0 -2,0 -1,-1l0 0c-1,-1 -2,-2 -3,-2 5,-3 3,0 3,2l1 1 0 0 5 -16c-3,2 -5,6 -9,13z"/>
  <path class="fil0" d="M1791 1638c0,0 1,0 1,1 0,-2 0,-2 -1,-1z"/>
  <path class="fil0" d="M1798 1634c1,1 3,3 1,7 -4,2 -4,-2 -7,-2 1,3 3,10 9,4l0 -2c5,-5 19,-9 20,-8 -8,-1 -14,-1 -23,1z"/>
  <path class="fil0" d="M1832 1604l2 -14 -10 3 4 1c-5,7 1,8 4,10z"/>
  <polygon class="fil0" points="1904,1558 1913,1566 1903,1551 "/>
  <polygon class="fil0" points="1914,1544 1923,1551 1921,1544 "/>
  <path class="fil0" d="M2818 994l5 -5c-2,1 -4,3 -5,5z"/>
  <path class="fil0" d="M2783 985l-2 10c3,-5 4,-9 2,-10z"/>
  <path class="fil0" d="M2259 1296c13,13 30,33 20,16l-10 -17c-2,5 -6,4 -10,1z"/>
  <path class="fil0" d="M2510 1094l-3 -7c-1,8 -1,15 -2,21 2,-4 3,-9 5,-14z"/>
  <path class="fil0" d="M2503 1005l11 13c-3,-4 -6,-9 -11,-13z"/>
  <path class="fil0" d="M3006 1027l12 -17c-9,-3 -8,8 -12,17z"/>
  <path class="fil0" d="M2043 1420c8,2 13,1 16,0 -11,-3 -24,-10 -16,0z"/>
  <path class="fil0" d="M2768 1211c3,-3 4,-7 5,-12 -3,3 -5,7 -5,12z"/>
  <path class="fil0" d="M2071 1412c-2,-1 -3,-1 -5,-2 -1,5 -2,8 -7,10 9,3 16,3 12,-8z"/>
  <path class="fil0" d="M3521 1439c0,0 0,1 0,1 1,0 1,-1 0,-1z"/>
  <path class="fil0" d="M3609 1609c-2,-2 -4,-3 -6,-5 1,1 3,3 6,5z"/>
  <path class="fil0" d="M1969 1498c-3,3 0,1 0,0z"/>
  <path class="fil0" d="M1913 1478c0,-2 -1,-3 -4,-5 3,2 4,3 4,5z"/>
  <path class="fil0" d="M2034 1308l0 0c-3,-2 -3,-1 0,0z"/>
  <path class="fil0" d="M1960 1498c2,0 4,0 6,-1 -1,0 -3,0 -6,1z"/>
  <path class="fil0" d="M1965 1501c-1,1 -2,1 -3,2 1,1 3,2 3,-2z"/>
  <path class="fil0" d="M1972 1494c-2,1 -4,2 -6,3 2,0 2,0 3,1 0,-1 1,-2 3,-4z"/>
  <path class="fil0" d="M3248 1233c0,0 0,1 0,2 7,-4 5,-4 0,-2z"/>
  <polygon class="fil0" points="2265,1063 2265,1064 2266,1065 "/>
  <path class="fil0" d="M2274 1042c3,27 -1,26 -8,23l27 53 -19 -76z"/>
  <path class="fil0" d="M2900 1007l-6 -22c21,-25 28,-11 24,-40 -17,60 -47,-6 -62,57l-5 -15c2,2 3,-2 5,-1 -8,-34 -20,44 -36,31 -5,-6 -8,-17 -2,-23l-17 13c-4,-2 -2,-13 2,-11l-22 0 0 -1c-4,9 -14,24 -18,30 -4,-11 4,-7 4,-15l-14 14c-3,-18 9,-33 17,-29 -3,-68 -12,14 -33,-26l13 -8c-3,-38 -14,-25 -26,-50 2,13 22,62 6,77 -3,-5 -8,-8 -16,5 2,-24 -6,-18 -15,-18l3 -31c-11,8 -11,24 -17,38 -11,-4 -12,-28 -14,-49 -17,-6 11,40 -10,45 -14,-13 -25,-1 -41,17 -10,-10 1,-20 -2,-28l-9 26c-2,-1 -2,-9 -1,-13 -7,11 0,32 -11,42 -2,35 -26,-50 -38,-9 -4,-9 0,-20 -2,-32 -18,28 -15,21 -28,57l-15 -20c12,23 3,52 -4,76 4,11 9,20 11,25l-14 18c-3,-5 -2,-16 -2,-29 0,3 -1,5 -2,8 -7,-11 -7,-30 -5,-47 3,6 6,12 9,18 1,-19 3,-40 0,-59 -1,4 -3,7 -5,9 0,-5 1,-10 0,-13 -1,-3 -2,4 -4,12l-9 -34 1 14c0,0 -7,-6 -13,-10 -7,-4 -14,-8 -14,-8 -11,39 -14,93 -35,112 1,-26 -8,-41 -14,-71 14,30 17,-18 32,-14 -8,-2 -9,-17 -8,-22l-18 34c-5,-24 -9,-17 -18,-25 16,47 -10,36 -16,53 -5,-16 -7,-33 6,-32 -22,-32 -2,60 -22,32 2,-1 4,1 3,-7 -2,16 -21,9 -22,-6l3 -1c-21,-2 -58,20 -46,58 -2,-5 -15,-47 -17,-55 0,0 4,35 8,70 6,35 11,69 11,69 -10,-33 -53,-104 -45,-129 -6,-2 -14,-5 -18,10 5,3 26,43 24,47 -26,-30 -16,-16 -42,-39 7,5 24,56 17,58 -2,-8 -22,-48 -22,-54l5 55c0,-10 -18,-40 -28,-51 6,8 -15,7 -17,14l12 7c-22,3 16,74 -3,81 -3,-10 -25,-60 -38,-60 8,25 43,118 40,143l-11 -11 -2 20c-13,-35 -35,-117 -39,-152 -12,-6 -10,-14 -20,-7 -10,-9 -5,-21 -2,-24l-28 9c16,24 -2,37 12,57l8 -43c16,25 29,82 11,87 -10,-7 -25,-46 -30,-54 3,10 -5,27 -10,22l-2 -18c-15,-3 7,43 -19,28 -4,1 -31,-22 -22,-8 24,22 82,104 92,126 -2,-1 -35,-13 -48,-23 -21,-16 -27,-54 -44,-68 4,6 7,16 7,19 -7,-2 -12,-20 -18,-10 15,23 -17,11 10,22 -2,12 -11,2 -19,10 14,12 29,54 27,65 -4,-5 -11,-11 -14,-14 -17,10 -32,9 -46,21 -5,-4 -16,-3 -21,-14 1,5 5,13 1,18 -22,-9 7,-12 -17,-25 10,11 3,25 4,37 17,14 16,-9 16,-22 22,24 33,56 30,78 -5,15 -18,-9 -17,-5 -23,16 21,51 -11,51 -19,-6 -27,-24 -38,-31 3,-13 21,-5 26,-11l-13 1c-2,-7 0,-16 7,-15 -18,-7 -35,31 -59,39 2,7 3,15 10,17l3 -6c14,4 6,21 17,19 2,13 6,28 -8,33l-16 -9c5,3 14,0 12,-6 3,9 -32,0 -16,19l15 0c2,13 11,31 -1,36 17,6 0,-3 22,3 -25,-10 19,-19 -10,-27 25,9 16,-4 41,2 -5,-3 -12,-5 -3,-8 -1,-2 -3,-4 -3,-5 0,0 0,0 1,0l-1 0c-1,-1 -1,-1 -1,0 -3,-1 -7,-2 -10,-3 -9,-12 2,-22 -1,-31 6,-1 4,7 12,9l-4 -12c12,9 28,6 26,20l9 -7c10,1 20,-2 19,-9 7,-1 -2,-20 3,-9l7 -18 3 3c14,-9 8,-42 44,-31 2,-6 3,-14 14,-16l11 11c3,-9 28,0 21,-14 33,29 34,-11 50,-11l-12 -17c9,-3 12,-13 17,-25l-11 -16c-1,-18 28,-1 41,-9 3,6 -2,7 -7,4 40,30 17,-46 48,-25 0,-8 4,-7 9,-4 0,0 0,1 0,2 0,0 1,-1 2,-1 3,2 7,5 10,7 -4,-3 -8,-6 -10,-7 3,-2 6,-6 8,-13l12 19c0,-1 0,-1 0,-1 8,5 -1,-11 -11,-25 0,-4 0,-9 -1,-14 20,30 6,-16 28,16 -5,-18 15,-21 1,-59 2,5 4,7 2,8 7,2 14,4 13,-8l14 26 -4 -40c13,14 19,22 21,45 3,-37 8,-16 9,-53l6 18c4,-2 3,-29 11,-15 21,30 56,-9 92,19 -17,-55 18,22 10,-21 5,12 10,19 8,32 11,-16 24,17 27,-23 4,14 1,21 4,28 0,-3 2,-12 5,-5 2,8 -1,12 -2,18 13,-5 9,-46 4,-85 11,18 14,15 17,-11 4,13 10,26 1,31 6,1 34,17 31,-15 3,8 8,2 9,-2 12,1 13,4 25,0l-4 -5c3,-39 10,-9 19,-15l0 4c22,26 10,-15 31,18l-1 -24c3,-51 19,31 32,12l-4 -14c8,-17 16,71 21,77 1,5 -3,7 -5,10 15,31 4,-30 18,-37 1,17 -6,42 2,46 2,13 30,-54 38,-21 -1,-13 -2,-26 5,-34 10,-3 17,51 32,13 1,4 1,7 0,10 9,-9 26,-13 34,-33 -10,79 54,-31 37,41l22 2 -2 7c12,8 22,-7 31,-22 2,5 -2,11 -3,14 16,20 18,17 46,-12l-5 22c9,-11 17,41 45,25 -1,2 -3,6 -6,8 32,-15 28,72 68,4l22 -12c-16,-13 17,-29 15,-43 9,-1 9,30 -2,29l0 -4c-20,34 17,23 5,47 37,15 63,47 94,66l11 -25 10 7c0,7 -7,20 -14,15 -4,15 20,-4 24,-8 10,17 -23,23 -19,26l8 1 0 -3c12,-6 18,-16 27,-9 4,7 -5,15 -3,17 -1,1 -1,2 3,2l14 9 5 -19c12,-5 13,9 19,-14 -10,34 46,42 46,54 17,-5 25,0 35,9 -1,-5 9,-21 17,-13 -27,29 6,25 -3,51 4,-18 29,13 34,-12 5,7 -8,10 -7,20 26,2 34,33 60,44 3,-2 3,-9 11,-10l0 22c6,1 17,-12 18,2 0,-3 1,-7 5,-6 16,22 40,35 63,51 22,16 43,35 61,55 -5,-6 0,-3 4,0 -2,-2 2,-1 3,-3l15 17c5,1 19,16 22,17l-6 -5c8,6 -6,-12 -3,-14 -9,-6 -11,-28 -26,-38 -2,-4 3,1 3,-1 -4,-2 -8,-6 -13,-15l1 0c-18,-22 -22,-35 -39,-64l-3 7c-4,-6 -3,-9 -4,-13 -12,2 12,16 -1,18 5,-17 -31,-36 -22,-56 -7,-8 -5,10 -12,2l2 -7 -6 4c-4,-6 -2,-14 2,-18 0,1 4,2 5,4 -1,-13 -18,-19 -19,-23l4 11c-23,-17 -40,-53 -71,-60l-2 6c-23,-6 -8,-17 -29,-29l2 -1c-8,2 -14,0 -19,-5 9,-2 1,-20 12,-21 -25,-5 -15,0 -42,11l4 -12c-10,5 -14,10 -25,5 14,-2 5,-19 21,-23 -4,-38 -44,-2 -30,-42 -29,21 6,30 -4,32 -2,12 -21,15 -26,7 -6,-5 15,-45 -2,-57 2,2 3,-1 5,1 -1,-13 -19,2 -19,-17 -16,16 -9,-8 -25,16l18 4c-12,0 -38,24 -44,1 5,-5 13,-8 18,-10 0,-10 -11,-1 -11,-11 17,-25 22,7 43,-5 2,-14 -28,5 -7,-18 -28,29 -14,-17 -41,2l10 -15c-4,1 -12,6 -15,3l18 -16c-19,11 -9,-29 -24,-25 20,12 -6,23 -5,39 -36,8 10,-51 -21,-60 5,0 8,19 -2,23 -3,-7 -6,-17 -5,-28 -20,-8 -6,19 -19,25 4,-25 -13,3 -25,5l9 -18c-15,-23 -24,35 -35,10l20 -21 -13 1 12 -20c-18,9 -19,4 -28,-7 -3,14 -16,33 -26,30 -2,-15 11,-17 -3,-20 8,-11 18,-24 16,-4 4,-6 9,-10 12,-16 -1,-17 -17,-12 -22,-14 2,1 4,4 4,7l-31 17c-1,-8 4,-13 9,-18 -5,0 -11,8 -18,7 8,-15 15,-32 26,-36l-26 9c1,-8 -3,-24 2,-29 -7,-15 -38,19 -48,1 -2,3 -5,5 -9,7 -12,-9 -18,-35 -42,-17l0 -35c-15,3 1,44 -24,49 -18,5 2,-29 -1,-40 -13,13 -34,42 -41,11 6,-5 8,2 13,1zm-169 -18l0 0c3,-5 12,-20 13,-6 -7,27 -8,14 -13,6zm-251 62l0 0c1,-8 5,-5 11,3 -3,2 -6,2 -11,-3zm-491 411l0 0c0,0 -1,0 -1,-1 10,1 6,1 1,1zm-15 4l0 0c1,3 3,4 5,5 -3,-3 -1,-5 2,-7 -3,-2 -7,-3 -7,2zm1249 -112l0 0 0 -5c8,-1 4,2 0,5z"/>
  <path class="fil0" d="M2504 1015c1,4 2,9 3,13 0,-4 0,-8 -3,-13z"/>
  <polygon class="fil0" points="3004,1030 3004,1031 3006,1027 "/>
  <path class="fil0" d="M2030 1211c4,0 8,2 11,5 -3,-4 -6,-7 -11,-5z"/>
  <path class="fil0" d="M1946 1528l3 -8c-2,3 -6,3 -9,3 3,1 8,3 6,5z"/>
  <path class="fil0" d="M1834 1541c0,2 -2,2 -1,4l5 3c3,-5 1,-11 -4,-7z"/>
  <path class="fil0" d="M1903 1506c-10,-6 -10,1 -12,6 0,0 0,0 1,0 12,10 12,2 11,-6z"/>
  <path class="fil0" d="M1891 1514c-1,1 -2,3 -4,4 5,4 3,-1 4,-4z"/>
  <path class="fil0" d="M1969 1483c-4,0 12,12 7,9 10,13 -3,-25 -7,-9z"/>
  <polygon class="fil0" points="1869,1488 1882,1494 1874,1485 "/>
  <path class="fil0" d="M1907 1456l-10 5c2,1 2,3 2,5 5,-4 11,-7 8,-10z"/>
  <path class="fil0" d="M1899 1466c-2,2 -3,5 -3,8 1,-2 3,-5 3,-8z"/>
  <polygon class="fil0" points="1873,1474 1877,1474 1882,1469 "/>
  <path class="fil0" d="M1980 1382l4 -11c-3,-5 -8,-6 -9,-2 1,5 0,10 5,13z"/>
  <path class="fil0" d="M1923 1372c5,0 8,3 13,5l-16 -15 3 10z"/>
  <path class="fil0" d="M1941 1344c-4,-5 -2,-25 -10,-13 3,5 0,17 10,13z"/>
  <polygon class="fil0" points="2086,1258 2084,1260 2109,1294 "/>
  <path class="fil0" d="M2156 1083c-17,-2 11,27 -7,22 3,11 15,4 16,14 2,-14 9,-11 -9,-36z"/>
  <path class="fil0" d="M2165 1119c0,3 0,5 0,9 1,-4 1,-7 0,-9z"/>
  <polygon class="fil0" points="3632,1629 3639,1634 3635,1630 "/>
  <path class="fil0" d="M3646 1638l1 1 4 3c-1,-1 -1,-1 -5,-4z"/>
  <path class="fil0" d="M2710 923l-1 7c1,9 3,9 7,11l-6 -18z"/>
  <polygon class="fil0" points="2834,966 2832,965 2831,994 "/>
  <path class="fil0" d="M2946 960c-4,-3 -10,2 -14,-1 10,-2 6,34 14,1z"/>
  <path class="fil0" d="M3642 3317c0,0 2,-1 2,-1 -4,3 -2,1 -2,1z"/>
  <polygon class="fil0" points="3606,3346 3606,3345 3603,3351 "/>
  <path class="fil0" d="M3572 3371c8,3 12,-10 19,-13l2 1 0 -6c-7,6 -14,16 -21,18z"/>
  <path class="fil0" d="M3539 3368c4,2 -2,4 6,-2 -1,0 -1,0 -2,0 0,0 -1,1 -4,2z"/>
  <path class="fil0" d="M3543 3366c4,-2 -4,-1 0,0z"/>
  <path class="fil0" d="M3526 3376l3 -5c-3,-2 -8,0 -7,-2 -5,3 -2,5 4,7z"/>
  <path class="fil0" d="M3526 3384l2 -2c-2,-1 -2,-1 -2,2z"/>
  <path class="fil0" d="M3531 3376l-3 6c2,1 4,3 2,-3 1,3 0,0 1,-3z"/>
  <path class="fil0" d="M3536 3376c4,0 9,0 6,5 9,-7 3,-10 -6,-5z"/>
  <path class="fil0" d="M3576 3378l5 -1 1 -5c-1,3 -8,4 -6,6z"/>
  <path class="fil0" d="M3489 3385c1,2 6,5 9,8l2 -4c-3,-1 -8,-1 -11,-4z"/>
  <path class="fil0" d="M3498 3393l-3 6c6,-2 5,-4 3,-6z"/>
  <polygon class="fil0" points="3533,3394 3537,3383 3531,3395 "/>
  <polygon class="fil0" points="3466,3393 3465,3386 3465,3397 "/>
  <path class="fil0" d="M3452 3399c-2,-6 -10,-8 -10,-12 -3,2 -3,8 -4,13 2,-3 6,-4 14,-1z"/>
  <path class="fil0" d="M3437 3408c1,-2 1,-5 1,-8 -1,2 -1,4 -1,8z"/>
  <path class="fil0" d="M3484 3402c-1,-1 -5,-4 -9,-5l7 6 2 -1z"/>
  <path class="fil0" d="M3482 3403l0 0c-3,1 -4,2 -5,2 0,0 2,-1 5,-2z"/>
  <path class="fil0" d="M3485 3402l-1 0c1,1 1,1 1,0z"/>
  <path class="fil0" d="M3515 3398c-1,5 -5,13 6,14 -1,-6 -7,-7 -6,-14z"/>
  <path class="fil0" d="M3494 3409l7 -1c-1,-2 -4,-4 -4,-7l-3 8z"/>
  <polygon class="fil0" points="3493,3413 3494,3409 3491,3410 "/>
  <path class="fil0" d="M3453 3412c0,4 -3,6 -6,8 5,0 9,-1 13,-2 -2,-3 -3,-8 -7,-6z"/>
  <path class="fil0" d="M3468 3409l0 0c0,1 1,1 0,0z"/>
  <polygon class="fil0" points="3415,3432 3417,3434 3416,3432 "/>
  <path class="fil0" d="M3461 3419c4,0 4,-2 4,-5 -1,1 -3,3 -5,4 0,1 1,2 1,1z"/>
  <path class="fil0" d="M3431 3415c2,1 5,2 7,3 -3,-2 -8,-6 -7,-3z"/>
  <path class="fil0" d="M3465 3408l0 -1c-2,-1 -1,0 0,1z"/>
  <path class="fil0" d="M3465 3408c0,1 0,3 0,6 1,-2 2,-3 3,-5 -1,0 -2,-1 -3,-1z"/>
  <path class="fil0" d="M3444 3500c-5,-10 -4,-22 8,-16 1,-10 -20,-36 -35,-50 2,4 4,7 1,15 5,4 20,5 20,16 -4,8 -8,0 -15,-3 11,10 1,22 12,39l4 -10c1,2 2,8 5,9z"/>
  <path class="fil0" d="M3429 3430l1 -2c-3,-1 -8,-3 -16,-9 -1,6 0,10 2,13l13 -4 0 2z"/>
  <path class="fil0" d="M3442 3423c3,10 0,16 10,24 7,-4 0,-10 2,-15 -10,7 0,-6 -12,-8 2,-2 4,-3 5,-4 -3,-1 -5,-1 -9,-2l1 0 0 0 0 0c1,1 2,2 1,1l0 1c1,1 1,2 2,3 -5,0 -3,-2 -2,-3l-1 -2 0 0 -9 10c4,0 7,-2 12,-5z"/>
  <path class="fil0" d="M3525 3429c0,-1 -1,-1 -1,-1 0,1 0,2 1,1z"/>
  <path class="fil0" d="M3518 3428c0,-1 -1,-4 2,-5 4,0 2,3 4,5 0,-3 2,-9 -5,-8l-1 1c-6,1 -18,-4 -18,-5 6,5 11,8 18,12z"/>
  <path class="fil0" d="M3482 3431l-7 9 10 4 -3 -4c6,-2 1,-6 0,-9z"/>
  <polygon class="fil0" points="3411,3428 3406,3417 3409,3434 "/>
  <polygon class="fil0" points="3399,3434 3394,3424 3394,3431 "/>
  <path class="fil0" d="M2623 3706l-4 5c1,-1 3,-3 4,-5z"/>
  <path class="fil0" d="M2647 3713l2 -9c-2,5 -3,8 -2,9z"/>
  <path class="fil0" d="M3084 3500c-7,-16 -15,-42 -11,-22l4 20c2,-4 5,-2 7,2z"/>
  <path class="fil0" d="M2859 3626l1 7c2,-8 3,-14 4,-21 -1,5 -3,9 -5,14z"/>
  <path class="fil0" d="M2850 3714l-6 -14c1,5 3,10 6,14z"/>
  <path class="fil0" d="M2487 3693l-9 18c6,2 6,-9 9,-18z"/>
  <path class="fil0" d="M3270 3476c-6,-5 -10,-7 -13,-7 8,8 16,20 13,7z"/>
  <path class="fil0" d="M2672 3489c-3,3 -4,7 -5,12 2,-4 4,-7 5,-12z"/>
  <path class="fil0" d="M3246 3471c2,2 3,2 4,3 1,-3 3,-5 7,-5 -6,-6 -11,-9 -11,2z"/>
  <path class="fil0" d="M2056 3449c-1,0 -1,0 -1,-1 0,1 0,1 1,1z"/>
  <path class="fil0" d="M1964 3331c2,0 4,1 6,2 -1,-1 -3,-1 -6,-2z"/>
  <path class="fil0" d="M3345 3445c2,-2 -1,-1 0,0z"/>
  <path class="fil0" d="M3382 3487c0,2 1,4 2,7 -1,-3 -2,-5 -2,-7z"/>
  <path class="fil0" d="M3253 3578l-1 0c2,3 2,3 1,0z"/>
  <path class="fil0" d="M3352 3449c-2,-1 -4,-2 -6,-2 1,1 3,1 6,2z"/>
  <path class="fil0" d="M3348 3444c1,0 2,0 3,0 -1,-2 -2,-3 -3,0z"/>
  <path class="fil0" d="M3341 3447c2,-1 3,-1 5,0 -1,-1 -1,-2 -1,-2 -1,0 -2,1 -4,2z"/>
  <path class="fil0" d="M2292 3551c0,0 0,-1 0,-1 -5,5 -3,4 0,1z"/>
  <polygon class="fil0" points="3030,3715 3030,3714 3030,3714 "/>
  <path class="fil0" d="M3019 3732c3,-26 6,-23 11,-18l-9 -59 -2 77z"/>
  <path class="fil0" d="M2564 3699l4 20c-16,28 -21,15 -18,43 14,-63 32,1 46,-62l2 14c-1,-1 -2,3 -3,2 4,33 16,-45 27,-33 4,6 5,16 1,23l13 -13c3,1 0,13 -3,11l17 -2 -1 2c4,-10 12,-25 15,-31 3,10 -3,6 -3,15l11 -14c1,17 -9,32 -15,29 -2,67 10,-15 21,26l-9 7c-1,38 8,26 14,51 -1,-13 -10,-62 2,-77 2,5 5,8 12,-4 -3,23 2,18 9,18l-5 31c8,-8 10,-24 16,-37 7,4 5,29 4,49 11,7 -3,-40 12,-44 8,14 17,2 31,-15 6,12 -3,19 -2,29l9 -25c2,1 0,9 0,13 6,-9 4,-32 13,-40 6,-34 12,53 27,14 1,9 -4,19 -4,32 17,-25 14,-18 29,-52l8 21c-6,-24 6,-51 15,-74 -2,-12 -3,-22 -4,-27l13 -16c1,6 -1,16 -4,29 1,-2 2,-5 3,-7 4,12 1,30 -4,48 -1,-7 -2,-14 -3,-20 -4,19 -9,40 -9,58 1,-3 3,-6 5,-8 -2,5 -2,10 -2,13 0,3 2,-4 4,-12l1 36 2 -14 16 23c14,-34 26,-87 45,-101 -5,25 -2,42 -3,72 -4,-32 -15,14 -25,8 5,3 4,17 2,22l19 -29c-1,25 4,18 8,28 -3,-48 14,-32 21,-48 1,17 -1,34 -10,30 10,36 12,-58 22,-27 -2,1 -3,-2 -4,6 5,-14 18,-3 15,11l-2 1c15,5 44,-2 44,-43 0,5 1,49 1,57 0,0 4,-35 8,-69 3,-35 6,-69 6,-69 1,35 17,115 6,136 4,5 9,10 15,-3 -3,-5 -10,-49 -7,-53 12,38 8,20 22,51 -4,-7 -6,-61 -1,-59 0,8 7,52 5,58l8 -54c-2,10 5,44 10,58 -3,-10 12,-1 15,-6l-8 -11c17,5 5,-75 20,-75 0,11 6,65 15,69 0,-26 -6,-126 2,-146l5 14 6 -17c3,37 1,120 -4,154 8,10 4,17 13,13 6,13 -1,22 -4,23l23 3c-7,-29 10,-33 4,-57l-16 36c-6,-29 -3,-86 11,-83 6,10 8,51 11,61 0,-11 9,-22 12,-16l-3 17c11,8 5,-41 20,-18 4,1 19,32 15,16 -13,-29 -38,-127 -41,-151 1,2 23,26 31,40 12,23 8,60 18,79 -2,-7 -2,-17 -1,-20 5,5 5,23 11,17 -6,-28 15,-3 -3,-24 5,-10 9,3 17,-1 -8,-16 -10,-60 -6,-69 1,7 6,15 8,18 14,-2 25,6 38,2 3,5 12,9 13,21 1,-5 -1,-14 3,-16 15,17 -8,7 8,29 -5,-14 3,-24 5,-34 -10,-20 -15,1 -17,12 -11,-30 -13,-64 -6,-81 8,-10 12,17 12,12 21,-3 -4,-53 20,-39 14,15 15,33 22,44 -5,10 -17,-5 -23,-2l11 5c0,7 -4,14 -9,10 12,13 33,-11 54,-5 0,-7 2,-14 -3,-19l-4 4c-10,-10 0,-21 -8,-24 1,-12 1,-27 13,-24l11 15c-3,-4 -11,-7 -11,-1 0,-8 25,16 17,-7l-12 -8c2,-11 0,-30 11,-28 -12,-13 -1,3 -16,-13 17,20 -21,5 0,26 -17,-19 -14,-5 -31,-22 3,6 8,10 0,9 1,2 1,4 1,6l0 -1 0 1c0,1 0,1 0,0 3,2 6,4 8,7 4,14 -7,18 -7,26 -5,-2 -1,-7 -7,-13l0 12c-7,-13 -21,-19 -15,-29l-9 1c-8,-6 -16,-8 -17,-1 -5,-2 -3,18 -4,6l-9 13 -1 -4c-13,2 -17,32 -41,6 -3,5 -6,11 -14,8l-6 -14c-4,7 -21,-11 -18,5 -19,-40 -29,-7 -40,-13l5 21c-7,0 -11,6 -17,16l5 19c-4,17 -21,-10 -32,-8 -1,-7 2,-6 5,-1 -22,-43 -22,34 -40,4 -2,7 -4,5 -7,0 0,0 0,0 0,-1 0,0 -1,0 -1,0 -2,-3 -4,-7 -6,-10 2,4 4,8 5,10 -2,1 -5,4 -8,9l-4 -21c-1,0 -1,0 -1,0 -4,-7 -1,11 3,27 -1,4 -2,8 -3,14 -7,-35 -7,12 -16,-25 0,18 -16,14 -14,54 0,-5 -2,-8 0,-8 -4,-4 -9,-9 -11,3l-5 -29 -5 39c-7,-17 -10,-27 -6,-50 -10,35 -9,14 -18,49l-1 -19c-3,1 -8,27 -11,11 -11,-36 -44,-6 -66,-40 4,57 -10,-26 -11,18 -1,-13 -4,-21 0,-32 -12,13 -16,-22 -25,14 -1,-13 3,-19 2,-27 0,2 -4,11 -4,3 -1,-8 2,-11 4,-17 -11,1 -15,43 -18,82 -5,-19 -7,-17 -14,9 -1,-13 -3,-27 4,-31 -4,-2 -23,-21 -26,10 -1,-8 -5,-2 -7,1 -9,-3 -9,-5 -19,-3l2 5c-7,38 -8,8 -16,12l1 -4c-14,-29 -9,12 -22,-21l-2 24c-9,50 -11,-32 -24,-14l2 14c-8,16 -5,-71 -9,-78 -1,-4 3,-7 5,-10 -10,-31 -7,31 -18,37 1,-17 9,-42 2,-46 -1,-14 -28,51 -32,18 0,13 0,26 -7,35 -8,3 -11,-51 -25,-12 0,-4 0,-7 1,-10 -8,9 -21,14 -29,34 10,-79 -42,32 -28,-39l-18 1 2 -7c-10,-7 -17,9 -25,25 -1,-5 2,-11 3,-15 -13,-17 -15,-14 -37,17l4 -22c-7,12 -15,-38 -37,-16 1,-2 3,-6 5,-9 -25,20 -27,-66 -54,8l-17 16c14,9 -11,31 -8,45 -8,3 -10,-26 -1,-28l0 4c14,-37 -15,-18 -7,-44 -30,-6 -53,-31 -80,-38l-5 26 -9 -4c-1,-7 3,-21 10,-18 1,-15 -16,9 -18,15 -10,-14 15,-28 11,-30l-6 1 0 3c-8,9 -12,20 -20,16 -3,-6 3,-15 1,-17 1,-1 0,-2 -3,-1l-11 -5 -2 20c-9,8 -11,-5 -14,18 4,-35 -40,-24 -42,-35 -12,10 -19,7 -28,2 1,4 -5,22 -12,17 18,-34 -8,-20 -4,-46 -1,17 -24,-3 -25,22 -5,-5 5,-12 4,-21 -21,6 -32,-18 -54,-19 -1,3 -1,9 -7,13l-3 -20c-4,1 -12,17 -14,4 0,3 -1,7 -4,7 -15,-13 -36,-17 -56,-23 -20,-6 -38,-16 -56,-27 5,4 1,3 -3,2 2,1 -2,2 -2,3l-14 -9c-5,1 -18,-7 -20,-7l5 2c-7,-3 7,8 4,10 8,3 12,21 26,25 1,3 -3,0 -3,2 4,0 8,2 13,9l-1 0c17,13 22,23 39,43l1 -7c4,4 4,6 5,10 10,-6 -11,-11 -1,-17 -2,17 30,22 24,42 7,5 3,-11 10,-6l-1 6 5 -5c4,4 2,13 0,17 0,-1 -3,-1 -4,-2 2,11 16,11 17,14l-5 -8c21,8 39,33 64,31l1 -6c19,-2 9,12 26,17l-1 1c6,-4 11,-5 15,-2 -7,5 2,18 -7,23 21,-3 12,-5 32,-23l-2 12c7,-8 10,-13 19,-12 -10,6 -2,19 -14,28 7,33 35,-13 28,28 20,-28 -8,-25 -1,-30 1,-12 16,-20 20,-15 5,3 -7,46 7,52 -1,0 -2,2 -3,1 2,12 14,-7 15,11 11,-20 8,5 19,-22l-15 1c10,-4 28,-33 34,-13 -3,5 -9,11 -13,14 1,10 9,-2 9,8 -10,27 -17,-1 -32,16 -1,13 21,-13 7,15 19,-35 12,12 32,-13l-7 16c3,-2 8,-8 11,-7l-13 20c14,-15 10,24 21,17 -16,-6 3,-23 1,-38 27,-16 -4,51 20,52 -4,1 -8,-16 0,-22 3,5 6,15 5,25 16,3 4,-20 14,-28 -2,24 10,-7 18,-12l-6 20c13,19 16,-39 27,-18l-14 24 9 -4 -8 22c14,-13 15,-8 22,1 2,-15 11,-36 18,-34 2,14 -8,18 3,19 -5,12 -12,27 -12,6 -2,7 -6,12 -8,18 2,16 13,9 17,10 -2,-1 -3,-3 -3,-6l23 -23c0,8 -3,14 -7,19 4,-1 8,-10 13,-10 -5,16 -10,34 -18,39l19 -13c-1,8 3,23 -1,29 6,13 29,-27 36,-10 1,-3 3,-6 6,-8 9,7 14,31 31,11l0 34c11,-5 0,-43 18,-51 13,-7 -2,29 0,39 9,-15 26,-45 31,-17 -5,6 -7,0 -10,2zm121 10l0 0c-3,5 -10,19 -10,5 7,-26 7,-13 10,-5zm189 -36l0 0c-2,8 -5,4 -7,-5 2,-2 4,-1 7,5zm446 -209l0 0 0 1c-7,-4 -4,-2 0,-1zm12 4l0 0c0,-2 -1,-4 -2,-6 1,4 -1,5 -4,4 3,4 5,6 6,2zm-1031 -37l0 0 0 4c-6,4 -3,0 0,-4z"/>
  <path class="fil0" d="M2851 3704c0,-4 0,-8 0,-13 -1,4 -2,9 0,13z"/>
  <polygon class="fil0" points="2488,3689 2488,3689 2487,3693 "/>
  <path class="fil0" d="M3234 3666c-3,-2 -5,-5 -7,-9 1,5 3,9 7,9z"/>
  <path class="fil0" d="M3369 3430l-4 6c3,-2 5,0 8,2 -2,-3 -5,-7 -4,-8z"/>
  <path class="fil0" d="M3462 3478c0,-2 1,-1 1,-3l-3 -5c-3,3 -3,8 2,8z"/>
  <path class="fil0" d="M3398 3470c6,10 8,5 11,1l-1 0c-7,-14 -9,-8 -10,-1z"/>
  <path class="fil0" d="M3410 3470c1,-1 2,-2 3,-2 -2,-6 -2,0 -3,2z"/>
  <path class="fil0" d="M3340 3457c4,3 -6,-15 -2,-11 -5,-15 -5,22 2,11z"/>
  <polygon class="fil0" points="3420,3502 3412,3490 3415,3501 "/>
  <path class="fil0" d="M3383 3509l8 1c-1,-3 -1,-4 -1,-6 -4,2 -10,1 -7,5z"/>
  <path class="fil0" d="M3390 3504c3,-1 4,-2 4,-5 -1,1 -3,2 -4,5z"/>
  <polygon class="fil0" points="3413,3510 3410,3509 3405,3510 "/>
  <path class="fil0" d="M3309 3537l-6 8c2,6 5,9 7,5 0,-4 2,-7 -1,-13z"/>
  <path class="fil0" d="M3350 3572c-3,-3 -5,-6 -8,-11l8 20 0 -9z"/>
  <path class="fil0" d="M3330 3588c2,6 -4,21 5,16 -1,-6 4,-15 -5,-16z"/>
  <polygon class="fil0" points="3203,3601 3205,3600 3193,3559 "/>
  <path class="fil0" d="M3113 3734c12,9 -2,-29 9,-17 1,-12 -9,-9 -8,-19 -4,12 -9,7 -1,36z"/>
  <path class="fil0" d="M3114 3698c1,-2 1,-5 2,-8 -1,3 -2,6 -2,8z"/>
  <polygon class="fil0" points="1943,3322 1937,3320 1941,3321 "/>
  <path class="fil0" d="M1931 3318l-1 0 -4 -2c2,1 1,0 5,2z"/>
  <path class="fil0" d="M2693 3776l2 -7c0,-9 -1,-10 -4,-12l2 19z"/>
  <polygon class="fil0" points="2609,3735 2611,3736 2613,3707 "/>
  <path class="fil0" d="M2529 3751c3,2 8,-3 11,-1 -8,3 -4,-33 -11,1z"/>
  <path class="fil0" d="M6706 1848c0,0 0,2 0,3 1,-7 0,-3 0,-3z"/>
  <polygon class="fil0" points="6711,1787 6712,1788 6710,1779 "/>
  <path class="fil0" d="M6709 1729c-7,7 3,20 1,31l-1 2 5 4c-1,-13 -6,-28 -5,-37z"/>
  <path class="fil0" d="M6726 1692c-3,3 -3,-6 -1,8 1,0 1,-1 1,-1 0,-2 0,-3 0,-7z"/>
  <path class="fil0" d="M6726 1699c0,6 3,-5 0,0z"/>
  <path class="fil0" d="M6722 1670l4 7c2,-2 2,-10 4,-8 -2,-8 -5,-6 -8,1z"/>
  <path class="fil0" d="M6713 1664l3 4c0,-1 1,-3 -3,-4z"/>
  <path class="fil0" d="M6720 1676l-4 -8c-2,1 -5,2 1,4 -3,0 0,1 3,4z"/>
  <path class="fil0" d="M6719 1682c-2,5 -2,11 -7,4 4,15 10,11 7,-4z"/>
  <path class="fil0" d="M6701 1727l-2 7 3 4c-1,-2 1,-12 -1,-11z"/>
  <path class="fil0" d="M6722 1614c-3,0 -7,5 -10,7l4 5c2,-4 2,-10 6,-12z"/>
  <path class="fil0" d="M6712 1621l-7 -7c2,8 4,9 7,7z"/>
  <polygon class="fil0" points="6701,1666 6712,1678 6701,1663 "/>
  <polygon class="fil0" points="6714,1578 6722,1580 6710,1575 "/>
  <path class="fil0" d="M6707 1554c7,1 9,-10 14,-8 -3,-6 -9,-9 -16,-12 5,4 5,10 2,20z"/>
  <path class="fil0" d="M6696 1530c2,2 6,3 9,4 -2,-2 -5,-3 -9,-4z"/>
  <path class="fil0" d="M6703 1598c1,-1 5,-5 6,-11l-7 7 1 4z"/>
  <path class="fil0" d="M6702 1595l0 -1c-1,-4 -2,-6 -2,-8 0,1 1,4 2,9z"/>
  <path class="fil0" d="M6703 1599l0 -1c-1,1 -1,1 0,1z"/>
  <path class="fil0" d="M6703 1640c-5,-4 -12,-13 -15,0 5,2 8,-5 15,0z"/>
  <path class="fil0" d="M6694 1607l1 10c2,-1 5,-4 8,-2l-9 -8z"/>
  <polygon class="fil0" points="6691,1604 6694,1607 6694,1604 "/>
  <path class="fil0" d="M6693 1550c-5,-2 -7,-6 -10,-11 1,7 2,12 4,18 3,-1 8,-1 6,-7z"/>
  <path class="fil0" d="M6697 1572l-1 0c-1,1 -1,1 1,0z"/>
  <polygon class="fil0" points="6663,1490 6662,1492 6664,1492 "/>
  <path class="fil0" d="M6685 1559c0,5 3,6 6,7 -2,-3 -3,-6 -4,-9 -2,0 -2,0 -2,2z"/>
  <path class="fil0" d="M6686 1518c-1,3 -2,7 -2,10 2,-4 5,-10 2,-10z"/>
  <path class="fil0" d="M6698 1569l0 1c2,-3 1,-2 0,-1z"/>
  <path class="fil0" d="M6698 1569c-2,-1 -5,-2 -7,-3 1,2 3,4 5,6 0,-1 1,-2 2,-3z"/>
  <path class="fil0" d="M6594 1516c10,-5 23,-1 18,13 11,3 37,-19 50,-37 -4,2 -8,5 -17,-1 -3,6 -2,26 -14,24 -10,-8 -1,-11 1,-19 -9,11 -25,-3 -41,10l12 5c-2,2 -8,2 -9,5z"/>
  <path class="fil0" d="M6669 1510l2 3c0,-5 2,-10 7,-20 -7,-4 -11,-3 -14,-1l6 19 -1 -1z"/>
  <path class="fil0" d="M6678 1530c-10,2 -18,-4 -26,7 6,10 11,3 18,7 -10,-16 7,3 7,-13 3,3 5,6 6,8 0,-3 0,-7 1,-11l0 1 0 0 -1 0c0,1 -1,2 -1,1l0 -1c-1,1 -3,1 -4,1 0,-6 2,-2 4,-1l1 0 1 0 -13 -16c0,5 3,10 7,17z"/>
  <path class="fil0" d="M6669 1636c1,0 1,0 2,-1 -2,0 -2,-1 -2,1z"/>
  <path class="fil0" d="M6671 1628c2,1 5,1 6,5 -1,4 -4,1 -6,2 3,2 8,7 9,-2l-1 -1c-1,-8 6,-21 8,-20 -7,5 -11,9 -16,16z"/>
  <path class="fil0" d="M6672 1581l-10 -12 -5 11 5 -3c1,9 6,5 10,4z"/>
  <polygon class="fil0" points="6668,1486 6679,1481 6661,1482 "/>
  <polygon class="fil0" points="6657,1467 6667,1462 6659,1461 "/>
  <path class="fil0" d="M5677 1220l-2 6c1,-2 2,-4 2,-6z"/>
  <path class="fil0" d="M5705 1217l-1 -10c0,6 0,10 1,10z"/>
  <path class="fil0" d="M6303 1097c2,-18 7,-45 -1,-27l-8 19c6,-1 8,3 9,8z"/>
  <path class="fil0" d="M5944 1103l1 7c2,-7 5,-14 7,-20 -3,4 -5,9 -8,13z"/>
  <path class="fil0" d="M5928 1191l-5 -14c1,5 3,10 5,14z"/>
  <path class="fil0" d="M5534 1272l2 20c7,-2 1,-11 -2,-20z"/>
  <path class="fil0" d="M6532 1292c1,-8 -1,-14 -3,-18 -2,13 -7,27 3,18z"/>
  <path class="fil0" d="M5652 998c-2,4 -3,9 -2,13 2,-4 3,-8 2,-13z"/>
  <path class="fil0" d="M6517 1262c-1,2 0,3 -1,5 5,1 10,3 13,7 1,-9 0,-17 -12,-12z"/>
  <path class="fil0" d="M4998 1510c0,0 -1,0 -1,0 0,1 1,0 1,0z"/>
  <path class="fil0" d="M4831 1596c1,-2 2,-5 4,-7 -1,1 -2,3 -4,7z"/>
  <path class="fil0" d="M6620 1390c3,3 2,-1 0,0z"/>
  <path class="fil0" d="M6590 1440c-1,0 -3,1 -6,3 3,-2 5,-3 6,-3z"/>
  <path class="fil0" d="M6418 1312l0 0c-1,3 -1,3 0,0z"/>
  <path class="fil0" d="M6619 1399c0,-2 0,-5 0,-7 0,1 -1,4 0,7z"/>
  <path class="fil0" d="M6623 1394c1,2 1,3 1,5 3,-1 3,-3 -1,-5z"/>
  <path class="fil0" d="M6616 1385c2,2 2,4 3,7 0,-1 1,-2 1,-2 -1,-1 -2,-3 -4,-5z"/>
  <path class="fil0" d="M5257 1316c0,-1 -1,-1 -1,-1 0,7 1,6 1,1z"/>
  <polygon class="fil0" points="6118,1240 6119,1239 6119,1238 "/>
  <path class="fil0" d="M6101 1250c14,-22 16,-18 18,-12l18 -56 -36 68z"/>
  <path class="fil0" d="M5613 1236l13 16c-3,32 -13,24 1,47 -14,-64 32,-11 19,-75l9 13c-2,-1 -1,3 -3,3 17,29 -1,-48 16,-41 6,4 12,13 9,21l9 -18c4,1 5,12 1,12l17 -9 0 2c1,-10 5,-27 7,-34 6,8 -1,7 1,15l8 -18c6,17 0,34 -7,33 17,64 6,-18 30,20l-8 9c10,37 15,23 27,47 -3,-13 -26,-59 -17,-76 4,5 8,7 12,-6 3,23 8,17 14,16l2 31c7,-9 5,-25 9,-40 8,3 11,27 14,48 13,4 -11,-39 5,-46 11,12 18,-2 32,-21 8,11 -1,19 2,28l7 -24c2,1 1,8 0,12 7,-9 2,-31 11,-39 5,-35 18,52 31,14 3,9 -2,19 -2,31 17,-25 14,-18 31,-52l10 22c-6,-24 8,-51 21,-74 -2,-11 -3,-21 -5,-26l19 -16c2,6 -2,16 -6,29 1,-2 3,-5 4,-7 4,12 -2,30 -8,47 -1,-7 -2,-13 -3,-20 -7,19 -13,40 -14,58 1,-3 3,-6 6,-8 -2,5 -3,10 -3,13 0,3 2,-4 6,-12l-1 36 2 -14c1,-1 16,25 16,25 19,-33 41,-81 68,-90 -12,24 -10,41 -17,71 0,-33 -20,9 -30,1 5,4 1,18 -1,23l26 -25c-6,24 0,19 3,30 6,-48 22,-28 34,-41 -4,16 -10,32 -19,26 2,38 29,-53 32,-20 -3,0 -3,-3 -6,5 9,-13 20,1 13,14l-2 0c15,8 46,14 63,-24 -2,5 -19,45 -23,53 0,0 19,-30 39,-59 20,-28 40,-56 40,-56 -16,31 -38,110 -58,123 2,6 4,13 16,5 0,-6 13,-49 18,-50 -5,39 -1,21 -3,56 -1,-9 26,-56 31,-51 -4,7 -22,48 -26,52l37 -41c-8,7 -20,40 -23,54 3,-9 12,6 18,4l-1 -14c13,15 50,-56 66,-44 -7,8 -36,54 -31,63 16,-21 78,-100 104,-106l-5 15 20 -7c-27,27 -88,84 -114,108 0,13 -7,16 3,19 -4,13 -15,15 -18,15l15 18c15,-26 31,-17 43,-39l-38 15c14,-27 56,-66 69,-52 -2,12 -31,43 -35,51 7,-7 24,-9 21,-2l-14 10c2,13 34,-24 28,4 2,4 -11,36 -1,23 14,-30 69,-114 87,-131 0,3 1,39 -5,54 -9,24 -43,43 -51,63 5,-6 13,-12 16,-13 0,7 -15,18 -6,20 18,-22 14,13 18,-16 12,-2 4,10 13,15 9,-16 45,-42 58,-42 -5,5 -9,14 -11,17 14,14 13,30 26,42 -3,5 -2,16 -12,22 5,-2 13,-7 17,-4 -7,23 -11,-5 -23,20 10,-11 25,-7 36,-8 14,-18 -10,-15 -22,-13 21,-23 54,-39 77,-34 16,6 -9,19 -5,18 16,24 54,-17 55,16 -8,20 -27,24 -35,35 -14,-5 -5,-22 -11,-28l1 14c-7,1 -16,-1 -16,-8 -6,16 30,36 33,62 6,-1 15,1 19,-6l-7 -4c7,-14 23,-2 23,-13 13,2 31,1 32,18l-13 13c4,-4 4,-14 -3,-14 10,0 -8,32 14,23l5 -16c13,3 34,3 35,17 12,-14 -3,-1 10,-20 -17,21 -14,-29 -31,-3 16,-22 2,-20 12,-43 -5,5 -7,11 -11,1 -1,0 -4,1 -5,1l0 -1 0 1c-1,0 -2,0 -1,0 0,4 -2,8 -4,11 -14,4 -23,-9 -32,-8 -2,-7 7,-3 10,-10l-13 1c10,-10 9,-30 24,-23l-7 -12c2,-12 -2,-23 -11,-24 -1,-8 -22,-1 -10,-5l-20 -9 3 -3c-11,-19 -46,-12 -42,-51 -7,-2 -15,-3 -20,-15l8 -13c-9,-3 -10,-31 -22,-21 19,-39 -26,-38 -34,-53l-13 16c-7,-7 -19,-9 -34,-10l-10 16c-18,7 -15,-29 -31,-37 5,-6 7,-1 7,4 6,-50 -53,2 -53,-36 -8,4 -10,0 -10,-6 0,0 1,0 1,0 0,-1 -1,-1 -1,-2 0,-4 0,-8 -1,-13 0,6 -1,10 0,13 -4,-2 -10,-2 -17,-1l8 -20c0,0 0,-1 -1,0 -1,-11 -9,7 -14,23 -4,1 -8,4 -12,8 12,-34 -18,4 -6,-33 -12,15 -32,-1 -51,34 2,-4 2,-7 5,-6 -4,-7 -7,-14 -17,-6l9 -27 -27 30c-1,-19 0,-31 16,-48 -31,24 -20,5 -47,31l7 -17c-6,-2 -23,19 -21,3 -2,-41 -61,-23 -87,-64 -6,57 -10,-29 -21,14 1,-13 -2,-22 6,-32 -20,9 -23,-28 -42,7 1,-14 7,-19 7,-28 -2,3 -8,11 -8,2 -1,-8 4,-10 8,-15 -19,-3 -27,39 -33,78 -7,-19 -12,-17 -21,8 -2,-13 -5,-27 6,-30 -6,-3 -36,-23 -39,9 -2,-8 -9,-3 -11,1 -13,-3 -14,-6 -28,-4l4 5c-8,38 -12,8 -23,11l1 -3c-25,-29 -11,11 -35,-19l1 23c-2,52 -22,-28 -36,-8l6 13c-7,18 -25,-68 -34,-73 -2,-5 2,-8 5,-11 -24,-28 -1,31 -16,39 -5,-16 0,-42 -11,-45 -7,-12 -26,56 -44,27 5,12 9,24 4,35 -10,6 -37,-42 -40,0 -2,-3 -3,-7 -4,-10 -7,12 -24,23 -25,45 -24,-76 -41,47 -58,-23l-23 12 -2 -8c-17,1 -17,20 -18,38 -5,-4 -4,-11 -5,-15 -27,-6 -29,-2 -36,38l-9 -21c-1,13 -45,-22 -57,13 -1,-2 -2,-6 -1,-10 -14,34 -82,-27 -59,48l-7 25c22,-4 11,31 25,39 -6,7 -29,-11 -22,-19l3 2c-14,-38 -30,1 -41,-23 -36,23 -84,25 -117,50l18 20 -12 7c-7,-3 -15,-15 -7,-20 -12,-10 -7,21 -4,26 -22,2 -10,-31 -15,-28l-6 7 3 1c1,13 6,23 -4,29 -9,0 -12,-11 -15,-10 -1,-2 -2,-2 -4,2l-16 9 17 12c-1,13 -14,10 5,23 -28,-21 -58,32 -69,28 -1,18 -10,23 -20,31 4,1 17,15 7,20 -20,-33 -25,1 -49,-14 17,8 -20,27 4,36 -9,4 -9,-10 -19,-11 -9,25 -40,30 -56,55 2,3 9,4 9,12l-22 -2c-3,6 10,18 -5,17 3,1 7,3 5,6 -23,15 -38,40 -55,62 -16,24 -36,44 -53,65 5,-5 3,-1 0,4 2,-3 2,2 3,2 0,0 -16,17 -15,17 -1,5 -13,22 -14,25l4 -7c-5,9 11,-8 13,-5 5,-10 27,-14 35,-30 4,-1 -1,4 2,4 1,-5 5,-9 14,-15l-1 2c22,-18 34,-24 63,-38l-7 -4c6,-3 9,-2 13,-3 -1,-12 -16,11 -18,-2 17,5 37,-29 55,-18 9,-6 -9,-6 0,-12l6 3 -3 -7c6,-3 14,0 18,4 -2,1 -3,4 -5,5 13,1 20,-15 24,-15l-11 3c20,-21 54,-32 68,-58l-6 -3c11,-20 18,-4 34,-21l0 2c0,-8 3,-14 9,-16 0,9 18,6 17,16 11,-22 3,-13 0,-41l10 7c-2,-11 -5,-16 3,-24 -2,13 17,10 16,27 35,9 14,-40 46,-13 -10,-34 -28,-6 -27,-15 -11,-6 -7,-26 1,-27 7,-4 36,30 52,21 -1,1 0,3 -2,4 11,5 6,-17 21,-8 -7,-21 11,-3 -3,-29l-12 14c5,-11 -5,-44 18,-38 2,5 2,15 1,20 9,5 5,-10 14,-4 14,26 -15,15 -13,39 11,8 7,-27 19,2 -15,-38 19,-3 14,-36l8 16c1,-3 0,-13 3,-14l6 23c-1,-22 27,7 30,-5 -18,7 -15,-18 -30,-27 11,-32 38,37 59,19 -3,4 -19,-4 -17,-14 6,1 16,5 24,13 15,-11 -12,-17 -10,-30 16,18 4,-13 8,-23l9 18c25,3 -14,-40 11,-34l4 29 6 -11 8 22c3,-20 8,-17 20,-14 -8,-12 -14,-35 -5,-38 11,9 5,19 16,12 2,13 6,29 -7,13 2,7 2,13 4,19 12,11 18,-2 22,-3 -2,-1 -5,-1 -7,-3l7 -34c5,7 6,14 6,20 3,-3 1,-13 6,-17 5,17 12,33 8,43l9 -23c4,7 16,17 17,23 12,8 10,-40 27,-29 0,-4 0,-7 2,-10 13,1 30,20 36,-7l17 29c9,-10 -22,-37 -8,-53 10,-14 13,25 20,33 1,-17 4,-54 22,-30 -2,7 -6,3 -9,6zm132 -33l0 0c-2,5 -6,20 -9,6 0,-27 4,-14 9,-6zm214 -52l0 0c-3,8 -6,3 -8,-6 3,-2 6,-1 8,6zm624 206l0 0c0,0 0,0 -1,0 1,-10 0,-6 1,0zm3 17l0 0c3,0 4,-2 6,-4 -4,2 -6,-1 -7,-5 -3,4 -4,8 1,9zm-1428 -134l0 0 5 2c-3,8 -4,3 -5,-2z"/>
  <path class="fil0" d="M5930 1181c0,-4 0,-8 1,-13 -2,4 -2,9 -1,13z"/>
  <polygon class="fil0" points="5534,1268 5533,1268 5534,1272 "/>
  <path class="fil0" d="M6328 1342c0,-3 1,-7 2,-11 -3,4 -4,8 -2,11z"/>
  <path class="fil0" d="M6649 1426l-8 -6c3,3 1,7 1,10 2,-2 5,-6 7,-4z"/>
  <path class="fil0" d="M6619 1542c2,0 2,2 4,3l4 -4c-3,-4 -9,-5 -8,1z"/>
  <path class="fil0" d="M6615 1461c-9,8 -3,10 2,15 0,-1 0,-1 0,-1 14,-8 6,-11 -2,-14z"/>
  <path class="fil0" d="M6618 1477c2,1 3,3 4,5 5,-3 0,-3 -4,-5z"/>
  <path class="fil0" d="M6604 1384c-1,5 14,-9 11,-4 14,-8 -28,-5 -11,4z"/>
  <polygon class="fil0" points="6586,1488 6597,1478 6585,1482 "/>
  <path class="fil0" d="M6566 1442l3 10c2,-2 4,-2 6,-1 -3,-5 -5,-13 -9,-9z"/>
  <path class="fil0" d="M6575 1451c2,2 4,5 7,5 -1,-1 -4,-4 -7,-5z"/>
  <polygon class="fil0" points="6575,1479 6576,1475 6573,1469 "/>
  <path class="fil0" d="M6498 1358l-11 -4c-5,4 -6,8 -1,10 5,-2 9,-1 12,-6z"/>
  <path class="fil0" d="M6486 1415c1,-4 3,-7 6,-12l-15 14 9 -2z"/>
  <path class="fil0" d="M6460 1398c-5,4 -23,3 -12,10 5,-3 16,0 12,-10z"/>
  <polygon class="fil0" points="6356,1276 6359,1277 6383,1242 "/>
  <path class="fil0" d="M6184 1301c5,15 15,-24 18,-7 8,-9 -2,-14 5,-21 -12,7 -12,0 -23,28z"/>
  <path class="fil0" d="M6207 1273c2,-1 4,-3 7,-5 -4,2 -6,3 -7,5z"/>
  <polygon class="fil0" points="4814,1621 4810,1628 4813,1624 "/>
  <path class="fil0" d="M4807 1636l-1 2 -2 4c0,-1 0,-1 3,-6z"/>
  <path class="fil0" d="M5770 1266l0 -8c-2,-8 -4,-8 -7,-10l7 18z"/>
  <polygon class="fil0" points="5674,1252 5676,1252 5667,1225 "/>
  <path class="fil0" d="M5604 1300c4,0 6,-7 9,-6 -5,6 -19,-27 -9,6z"/>
  <path class="fil0" d="M4811 3318c0,0 0,-1 0,-2 1,5 0,2 0,2z"/>
  <polygon class="fil0" points="4835,3359 4834,3359 4840,3363 "/>
  <path class="fil0" d="M4861 3394c2,-8 -11,-11 -14,-19l0 -2 -5 0c5,8 16,15 19,21z"/>
  <path class="fil0" d="M4861 3428c2,-4 5,2 -2,-6 0,1 0,1 0,2 1,1 1,2 2,4z"/>
  <path class="fil0" d="M4859 3424c-3,-4 0,5 0,0z"/>
  <path class="fil0" d="M4873 3441l-6 -2c-1,3 2,8 -1,8 5,4 6,1 7,-6z"/>
  <path class="fil0" d="M4881 3440l-3 -1c0,1 0,2 3,1z"/>
  <path class="fil0" d="M4872 3436l6 3c1,-2 3,-5 -2,-2 2,-2 -1,-1 -4,-1z"/>
  <path class="fil0" d="M4871 3431c-1,-4 -3,-9 4,-7 -8,-8 -12,-2 -4,7z"/>
  <path class="fil0" d="M4868 3390l-2 -5 -4 -1c2,1 4,8 6,6z"/>
  <path class="fil0" d="M4893 3479c2,-2 3,-8 5,-11l-5 -1c0,3 2,8 0,12z"/>
  <path class="fil0" d="M4898 3468l7 2c-4,-5 -6,-5 -7,-2z"/>
  <polygon class="fil0" points="4890,3431 4878,3429 4892,3433 "/>
  <polygon class="fil0" points="4910,3501 4903,3503 4914,3500 "/>
  <path class="fil0" d="M4922 3514c-6,3 -4,12 -8,13 4,3 10,2 15,1 -4,-1 -6,-5 -7,-14z"/>
  <path class="fil0" d="M4938 3526c-2,0 -5,1 -9,2 3,0 5,0 9,-2z"/>
  <path class="fil0" d="M4912 3480c0,1 -3,6 -1,11l3 -9 -2 -2z"/>
  <path class="fil0" d="M4914 3481l0 1c2,2 3,4 4,5 -1,-1 -2,-3 -4,-6z"/>
  <path class="fil0" d="M4912 3479l0 1c1,-1 1,-2 0,-1z"/>
  <path class="fil0" d="M4898 3450c5,0 14,2 12,-9 -5,2 -4,8 -12,9z"/>
  <path class="fil0" d="M4916 3468l-4 -6c-1,1 -2,5 -5,5l9 1z"/>
  <polygon class="fil0" points="4920,3469 4916,3468 4917,3471 "/>
  <path class="fil0" d="M4934 3509c5,-1 8,1 11,3 -2,-5 -5,-8 -8,-11 -2,2 -6,5 -3,8z"/>
  <path class="fil0" d="M4925 3495l1 0c0,-1 0,-2 -1,0z"/>
  <polygon class="fil0" points="4974,3539 4974,3537 4973,3538 "/>
  <path class="fil0" d="M4938 3499c-1,-4 -4,-4 -7,-3 2,1 4,3 6,5 1,-1 2,-2 1,-2z"/>
  <path class="fil0" d="M4948 3530c0,-3 0,-6 0,-9 -1,4 -1,11 0,9z"/>
  <path class="fil0" d="M4925 3498l-1 0c0,2 0,1 1,0z"/>
  <path class="fil0" d="M4925 3498c2,0 4,-1 6,-2 -2,-1 -3,-1 -5,-1 0,1 -1,2 -1,3z"/>
  <path class="fil0" d="M5021 3483c-6,9 -17,13 -17,0 -10,3 -24,33 -30,54 3,-4 5,-7 14,-8 1,-7 -5,-22 4,-26 11,1 5,8 5,16 4,-14 20,-10 29,-29l-11 2c2,-3 7,-6 6,-9z"/>
  <path class="fil0" d="M4964 3526l-3 0c2,3 2,8 1,18 6,0 9,-3 11,-6l-10 -11 1 -1z"/>
  <path class="fil0" d="M4951 3516c8,-7 16,-6 19,-18 -7,-5 -10,3 -16,3 12,8 -6,2 -2,14 -3,0 -5,-2 -7,-3 1,3 2,6 3,9l0 -1 0 0 0 0c0,-1 0,-2 0,-1l1 0c1,-1 2,-2 2,-3 2,5 -1,3 -2,3l-1 1 0 0 13 6c-1,-4 -4,-6 -10,-10z"/>
  <path class="fil0" d="M4926 3433c0,1 0,1 -1,2 2,-1 2,-1 1,-2z"/>
  <path class="fil0" d="M4927 3440c-1,0 -4,2 -6,0 0,-4 3,-3 4,-5 -3,0 -8,0 -6,7l1 -1c3,6 2,19 0,19 4,-7 6,-12 7,-20z"/>
  <path class="fil0" d="M4942 3474l11 4 0 -10 -2 4c-4,-6 -7,0 -9,2z"/>
  <polygon class="fil0" points="4972,3545 4964,3554 4978,3544 "/>
  <polygon class="fil0" points="4984,3554 4978,3563 4985,3560 "/>
  <path class="fil0" d="M5791 3480l2 -6c-1,2 -2,4 -2,6z"/>
  <path class="fil0" d="M5768 3482l1 10c0,-6 0,-9 -1,-10z"/>
  <path class="fil0" d="M5336 3723c2,18 4,45 7,25l1 -20c-4,2 -7,0 -8,-5z"/>
  <path class="fil0" d="M5595 3616l-2 -6c0,7 -1,14 -2,21 2,-5 3,-10 4,-15z"/>
  <path class="fil0" d="M5593 3527l6 14c-1,-5 -3,-10 -6,-14z"/>
  <path class="fil0" d="M5907 3441l-1 -20c-5,1 0,10 1,20z"/>
  <path class="fil0" d="M5122 3640c1,8 4,12 6,14 -1,-11 0,-26 -6,-14z"/>
  <path class="fil0" d="M5821 3702c1,-5 1,-9 1,-14 -2,4 -2,9 -1,14z"/>
  <path class="fil0" d="M5140 3660c0,-2 0,-3 -1,-5 -4,1 -7,2 -11,-1 1,8 4,15 12,6z"/>
  <path class="fil0" d="M6356 3365c0,0 0,0 1,0 0,-1 -1,-1 -1,0z"/>
  <path class="fil0" d="M6501 3347c-1,2 -3,3 -4,4 1,0 2,-2 4,-4z"/>
  <path class="fil0" d="M5032 3599c-3,-2 -1,1 0,0z"/>
  <path class="fil0" d="M5044 3542c1,-1 2,-2 4,-5 -2,3 -3,4 -4,5z"/>
  <path class="fil0" d="M5204 3574l0 0c0,-4 0,-3 0,0z"/>
  <path class="fil0" d="M5031 3590c0,2 1,4 2,6 -1,-1 -1,-3 -2,-6z"/>
  <path class="fil0" d="M5029 3596c-1,-1 -2,-2 -2,-3 -2,2 -2,3 2,3z"/>
  <path class="fil0" d="M5036 3601c-1,-1 -2,-3 -3,-5 0,1 0,2 -1,3 1,0 2,1 4,2z"/>
  <path class="fil0" d="M6130 3460c1,0 1,0 1,1 1,-7 0,-6 -1,-1z"/>
  <polygon class="fil0" points="5440,3525 5439,3526 5440,3527 "/>
  <path class="fil0" d="M5451 3510c-6,26 -8,22 -11,17l-1 59 12 -76z"/>
  <path class="fil0" d="M5843 3467l-11 -17c3,-31 11,-22 -1,-46 12,63 -27,9 -15,73l-8 -13c2,1 1,-3 3,-3 -15,-29 2,48 -12,41 -5,-5 -10,-14 -8,-22l-7 18c-3,-1 -4,-13 -1,-12l-14 8 0 -2c0,10 -2,27 -3,34 -5,-9 0,-7 -2,-15l-5 17c-6,-17 -2,-34 3,-32 -18,-65 -3,17 -26,-19l6 -10c-10,-36 -14,-22 -26,-45 4,12 26,57 20,75 -3,-5 -7,-7 -9,7 -4,-24 -7,-17 -13,-15l-4 -31c-5,9 -2,25 -4,40 -7,-3 -12,-27 -16,-47 -12,-4 13,38 1,46 -11,-11 -16,2 -24,23 -8,-10 -2,-20 -5,-28l-3 26c-1,-1 -1,-9 -2,-13 -3,11 4,32 -3,41 2,35 -20,-49 -25,-9 -3,-9 -1,-20 -3,-32 -10,27 -9,20 -16,56l-11 -20c9,23 2,52 -4,75 3,11 6,21 8,26l-12 18c-2,-5 -1,-16 0,-29 0,2 -1,5 -1,7 -6,-11 -4,-29 -2,-47 2,6 4,12 5,19 2,-20 4,-41 2,-59 -1,3 -2,6 -4,8 1,-5 1,-10 1,-13 -1,-3 -2,4 -3,12l-5 -35 0 14 -16 -20c-9,37 -17,88 -35,102 4,-25 1,-41 0,-72 6,32 14,-13 22,-7 -4,-3 -4,-18 -3,-23l-15 29c0,-24 -3,-18 -7,-28 3,49 -12,32 -19,48 0,-17 2,-34 10,-30 -9,-36 -12,58 -20,27 2,-1 3,2 4,-7 -5,15 -16,4 -13,-11l2 0c-13,-5 -39,0 -43,40 0,-5 5,-49 6,-57 0,0 -8,34 -16,67 -9,33 -18,67 -18,67 5,-35 4,-117 16,-136 -2,-5 -5,-11 -13,1 2,5 1,50 -2,53 -4,-39 -4,-21 -10,-54 2,8 -7,61 -11,59 1,-8 5,-53 7,-58l-18 51c4,-9 6,-44 5,-58 0,10 -10,-2 -14,3l3 12c-12,-8 -23,70 -37,65 3,-10 14,-63 8,-70 -7,25 -35,120 -52,136l0 -15 -14 14c16,-36 48,-112 61,-142 -3,-12 1,-17 -6,-17 0,-14 7,-20 10,-21l-16 -10c-4,30 -18,28 -23,52l25 -28c-5,30 -27,82 -39,74 -1,-12 13,-50 15,-60 -4,10 -16,18 -16,10l9 -14c-5,-11 -20,35 -22,7 -2,-2 1,-37 -4,-21 -4,32 -27,130 -36,153 -1,-3 -9,-35 -8,-51 2,-25 23,-56 24,-77 -2,7 -7,15 -9,18 -1,-7 8,-22 0,-20 -8,26 -13,-5 -9,22 -9,6 -6,-7 -14,-8 -2,18 -24,57 -34,61 3,-6 4,-15 5,-19 -13,-8 -16,-21 -29,-26 1,-6 -2,-15 4,-24 -3,3 -8,11 -12,10 1,-22 10,0 14,-27 -6,14 -17,16 -26,23 -7,21 11,8 20,1 -11,30 -33,57 -52,64 -13,2 3,-20 0,-17 -17,-14 -37,38 -45,10 1,-20 15,-33 19,-46 11,-2 8,17 14,19l-3 -11c5,-4 12,-6 13,0 1,-18 -31,-18 -39,-37 -5,4 -12,7 -13,14l5 0c-2,15 -17,13 -14,22 -10,5 -24,13 -29,1l7 -18c-2,5 0,14 5,10 -7,5 -1,-30 -16,-11l0 15c-11,4 -27,14 -32,4 -5,17 3,-1 -2,21 8,-25 18,16 24,-13 -6,25 5,15 2,40 3,-6 3,-13 8,-5 1,-1 3,-3 4,-4l0 1 0 -1c1,-1 1,-1 0,0 0,-4 0,-8 1,-11 10,-11 20,-3 27,-9 2,6 -5,6 -6,14l10 -8c-6,14 0,29 -13,31l8 6c1,11 7,19 14,15 3,6 17,-9 9,0l17 -1 -2 4c13,10 38,-12 43,25 6,-1 13,-4 19,4l-3 15c8,-2 13,24 21,10 -6,43 28,21 37,33l6 -20c8,4 17,1 28,-4l4 -19c12,-12 18,21 31,22 -2,7 -5,4 -6,-1 7,48 39,-23 47,12 5,-6 7,-3 9,3 -1,-1 -1,0 -1,0 0,1 1,1 1,1 1,4 3,8 4,12 -1,-5 -2,-10 -3,-12 3,0 7,-1 12,-5l-1 22c0,0 0,0 1,-1 3,10 5,-9 5,-26 2,-3 5,-7 7,-12 -1,36 12,-10 12,29 5,-19 22,-11 29,-51 -1,5 0,8 -2,8 4,5 8,10 13,0l-1 28 14 -37c4,18 6,29 -2,50 17,-32 13,-11 27,-44l-1 19c4,0 12,-25 14,-9 9,37 48,7 74,41 -6,-57 12,26 12,-18 2,13 6,21 2,33 13,-13 21,22 28,-16 2,13 -2,20 0,28 1,-3 4,-12 5,-4 2,8 -1,11 -3,17 14,-3 13,-45 12,-84 7,18 11,15 13,-11 4,13 8,26 1,31 4,2 29,17 27,-15 2,8 7,2 7,-2 11,1 12,4 22,0l-4 -5c0,-38 8,-9 15,-14l0 4c22,25 6,-14 28,15l-4 -24c-5,-51 19,28 27,7l-5 -13c3,-18 25,66 32,72 2,4 -1,7 -3,11 20,27 -2,-31 8,-40 4,16 4,42 12,44 5,12 13,-57 28,-27 -4,-13 -8,-25 -5,-35 7,-6 29,43 29,2 2,3 3,6 4,9 4,-11 16,-21 15,-42 21,76 30,-46 44,26l17 -9 1 7c13,2 13,-16 14,-34 3,4 3,11 3,15 20,9 22,6 28,-32l6 22c1,-14 33,27 43,-4 0,3 1,7 1,10 11,-30 60,43 45,-35l7 -22c-17,-1 -7,-33 -17,-43 5,-6 22,18 16,24l-2 -4c8,40 23,7 30,33 30,-13 66,-4 93,-17l-12 -25 11 -2c4,4 10,18 3,20 8,13 7,-17 5,-23 17,4 5,32 10,31l5 -5 -3 -2c1,-13 -2,-24 6,-26 7,2 9,14 11,14 1,1 2,2 3,-1l13 -4 -12 -16c2,-12 12,-5 -2,-23 21,28 49,-11 58,-4 2,-16 9,-19 19,-23 -4,-2 -13,-19 -4,-20 12,37 20,8 37,28 -12,-12 20,-16 1,-33 8,-1 6,12 14,16 9,-20 35,-14 51,-30 -1,-4 -7,-7 -6,-14l18 9c2,-4 -6,-20 5,-14 -2,-2 -5,-5 -3,-7 21,-5 36,-21 52,-36 16,-15 34,-26 51,-38 -5,3 -3,0 0,-4 -2,2 -1,-2 -2,-3 0,1 14,-9 14,-10 1,-4 13,-14 13,-16l-3 4c5,-5 -10,4 -11,0 -5,8 -24,4 -32,14 -4,0 1,-2 -2,-3 -1,3 -4,6 -12,7l0 -1c-19,9 -30,9 -55,12l5 5c-5,1 -7,0 -11,-1 0,11 14,-4 15,8 -13,-11 -33,13 -47,-3 -8,2 7,8 -1,10l-4 -4 1 7c-5,1 -11,-5 -13,-9 1,0 2,-3 4,-3 -10,-5 -17,7 -21,5l9 2c-18,11 -47,8 -60,28l4 5c-11,15 -15,-2 -29,7l0 -1c-1,6 -4,11 -9,12 1,-9 -13,-12 -11,-21 -11,16 -4,11 -5,38l-7 -10c0,11 2,16 -5,22 3,-12 -12,-15 -9,-30 -27,-20 -16,32 -38,-2 4,34 21,13 20,21 7,9 2,26 -4,25 -6,1 -25,-39 -39,-35 1,0 1,-3 2,-3 -8,-8 -6,14 -17,1 4,22 -9,1 -1,29l11 -10c-5,8 0,43 -18,31 -1,-6 0,-15 1,-19 -6,-8 -4,7 -11,0 -9,-29 13,-11 14,-33 -8,-11 -8,23 -14,-8 7,40 -16,-2 -15,30l-5 -17c-1,3 -1,12 -4,12l-3 -23c-1,21 -20,-15 -24,-3 16,-3 11,21 22,32 -12,28 -26,-44 -45,-32 2,-3 14,9 13,19 -6,-3 -13,-9 -19,-19 -12,7 8,19 6,31 -12,-21 -4,11 -8,20l-6 -19c-19,-9 8,41 -11,29l-2 -28 -5 8 -5 -22c-3,18 -7,14 -17,9 6,14 9,36 2,39 -8,-11 -2,-20 -11,-15 -2,-13 -4,-30 6,-12 -1,-6 -2,-13 -3,-19 -9,-13 -13,-1 -17,0 2,0 4,1 5,4l-7 31c-4,-8 -4,-14 -4,-21 -2,3 -2,13 -5,16 -4,-17 -8,-35 -4,-44l-9 21c-3,-7 -12,-19 -12,-25 -10,-9 -11,36 -24,24 0,3 0,7 -1,10 -11,-3 -24,-23 -30,3l-13 -31c-8,8 17,39 5,53 -8,12 -10,-27 -15,-35 -2,17 -4,52 -19,27 2,-7 5,-2 8,-5zm-107 30l0 0c2,-5 4,-21 7,-7 2,27 -2,14 -7,7zm-160 75l0 0c1,-8 4,-4 7,4 -2,2 -4,2 -7,-4zm-507 35l0 0c0,0 0,0 0,0 2,9 2,5 0,0zm-7 -12l0 0c-2,2 -3,4 -3,6 2,-3 4,-2 6,0 1,-4 1,-7 -3,-6zm1139 -37l0 0 -4 -3c3,-7 3,-2 4,3z"/>
  <path class="fil0" d="M5593 3538c1,4 1,8 2,13 0,-5 0,-9 -2,-13z"/>
  <polygon class="fil0" points="5908,3445 5908,3445 5907,3441 "/>
  <path class="fil0" d="M5264 3509c2,3 2,7 1,11 2,-5 2,-9 -1,-11z"/>
  <path class="fil0" d="M5001 3583l8 1c-3,-2 -3,-5 -3,-8 -2,3 -3,8 -5,7z"/>
  <path class="fil0" d="M4994 3476c-1,1 -2,-1 -3,0l-3 5c4,2 9,0 6,-5z"/>
  <path class="fil0" d="M5019 3538c5,-11 0,-10 -6,-11l1 1c-9,13 -2,11 5,10z"/>
  <path class="fil0" d="M5012 3527c-1,0 -3,-1 -4,-2 -3,5 1,2 4,2z"/>
  <path class="fil0" d="M5046 3595c0,-4 -9,15 -7,9 -10,13 22,-9 7,-9z"/>
  <polygon class="fil0" points="5035,3502 5029,3515 5037,3506 "/>
  <path class="fil0" d="M5062 3530l-5 -8c-1,3 -3,3 -4,4 4,3 7,8 9,4z"/>
  <path class="fil0" d="M5053 3526c-2,-2 -4,-3 -7,-1 2,0 4,1 7,1z"/>
  <polygon class="fil0" points="5046,3503 5046,3507 5050,3510 "/>
  <path class="fil0" d="M5133 3569l10 -2c3,-6 2,-10 -2,-9 -3,3 -7,5 -8,11z"/>
  <path class="fil0" d="M5130 3514c0,4 -1,8 -2,14l8 -20 -6 6z"/>
  <path class="fil0" d="M5153 3518c3,-6 17,-14 7,-15 -3,6 -12,8 -7,15z"/>
  <polygon class="fil0" points="5258,3580 5256,3580 5245,3621 "/>
  <path class="fil0" d="M5378 3491c-6,-12 -6,28 -11,13 -4,11 4,12 1,21 7,-10 8,-4 10,-34z"/>
  <path class="fil0" d="M5368 3525c-2,2 -3,4 -4,7 2,-3 3,-5 4,-7z"/>
  <polygon class="fil0" points="6518,3331 6522,3326 6519,3328 "/>
  <path class="fil0" d="M6525 3320l1 -1 2 -3c0,1 0,1 -3,4z"/>
  <path class="fil0" d="M5711 3435l0 8c2,8 4,9 7,10l-7 -18z"/>
  <polygon class="fil0" points="5792,3449 5791,3449 5799,3476 "/>
  <path class="fil0" d="M5851 3406c-3,-1 -5,5 -8,5 5,-6 16,28 8,-5z"/>
  <path class="fil0" d="M2197 4584c-2,-7 -13,1 -16,1 9,10 20,-3 16,-1z"/>
  <polygon class="fil0" points="2283,4674 2277,4675 2298,4683 "/>
  <path class="fil0" d="M2341 4769c14,-22 -26,-31 -29,-53l3 -5 -21 2c14,20 44,38 47,56z"/>
  <path class="fil0" d="M2333 4847c6,-8 14,6 -5,-13 0,1 -1,2 -1,3 2,2 4,5 6,10z"/>
  <path class="fil0" d="M2327 4837c-7,-9 -2,11 0,0z"/>
  <path class="fil0" d="M2363 4880l-15 -8c-3,6 4,18 -2,16 13,11 15,5 17,-8z"/>
  <path class="fil0" d="M2385 4882l-7 -5c-1,3 0,5 7,5z"/>
  <path class="fil0" d="M2362 4867l16 10c2,-4 8,-9 -7,-5 7,-3 -1,-1 -9,-5z"/>
  <path class="fil0" d="M2360 4857c-1,-10 -5,-21 10,-13 -19,-23 -30,-10 -10,13z"/>
  <path class="fil0" d="M2365 4760l-1 -13 -12 -4c6,2 7,21 13,17z"/>
  <path class="fil0" d="M2416 4964c5,-2 7,-12 11,-17l-12 -6c1,7 6,18 1,23z"/>
  <path class="fil0" d="M2427 4947l18 7c-9,-12 -14,-12 -18,-7z"/>
  <path class="fil0" d="M2408 4868l-31 -12c0,0 34,17 35,16l-4 -4z"/>
  <polygon class="fil0" points="2459,5016 2444,5017 2469,5018 "/>
  <path class="fil0" d="M2491 5048c-12,1 -5,18 -14,17 10,7 23,9 35,10 -10,-4 -17,-12 -21,-27z"/>
  <path class="fil0" d="M2531 5078c-5,-1 -12,-2 -19,-3 5,2 11,4 19,3z"/>
  <path class="fil0" d="M2462 4979c-1,3 -6,10 -2,20l6 -15c-1,-1 -2,-3 -4,-5z"/>
  <path class="fil0" d="M2467 4984l-1 0c5,6 8,10 9,12 -1,-2 -3,-5 -8,-12z"/>
  <path class="fil0" d="M2461 4977l1 2c1,-2 1,-2 -1,-2z"/>
  <path class="fil0" d="M2427 4911c13,2 32,13 29,-10 -12,0 -10,14 -29,10z"/>
  <path class="fil0" d="M2469 4959l-9 -16c-3,3 -5,9 -11,8l20 8z"/>
  <polygon class="fil0" points="2478,4963 2469,4959 2472,4965 "/>
  <path class="fil0" d="M2517 5047c11,1 17,7 25,13 -6,-9 -12,-18 -20,-25 -4,2 -13,4 -5,12z"/>
  <path class="fil0" d="M2492 5017l2 0c0,-1 0,-2 -2,0z"/>
  <polygon class="fil0" points="2611,5128 2612,5125 2610,5127 "/>
  <path class="fil0" d="M2523 5032c-4,-8 -10,-9 -16,-9 5,3 10,7 15,12 2,-1 3,-2 1,-3z"/>
  <path class="fil0" d="M2555 5093c-1,-5 -3,-10 -5,-15 0,6 1,16 5,15z"/>
  <path class="fil0" d="M2493 5022l-1 -1c-1,4 0,3 1,1z"/>
  <path class="fil0" d="M2493 5022c5,1 9,1 14,1 -4,-2 -9,-4 -13,-6 0,2 0,3 -1,5z"/>
  <path class="fil0" d="M2693 5078c-9,9 -34,7 -36,-17 -19,-4 -40,35 -45,64 4,-4 7,-7 26,-2 -1,-9 -18,-39 1,-37 21,11 11,16 15,28 4,-18 39,1 51,-20l-22 -7c3,-3 12,-3 10,-9z"/>
  <path class="fil0" d="M2588 5100l-7 -4c5,7 6,15 7,31 13,4 18,2 22,0l-25 -28 3 1z"/>
  <path class="fil0" d="M2557 5072c14,-6 31,2 34,-17 -16,-14 -19,-2 -32,-6 27,22 -13,-2 -1,22 -6,-3 -11,-7 -16,-11 3,6 6,12 8,18l1 -2 -1 0 1 0c0,-2 0,-3 1,-1l0 0c2,-1 4,-2 5,-3 6,10 -1,4 -5,3l-1 1 0 0 30 20c-4,-7 -11,-13 -24,-24z"/>
  <path class="fil0" d="M2491 4895c0,2 -1,3 -2,3 3,1 5,1 2,-3z"/>
  <path class="fil0" d="M2494 4912c-3,-1 -9,1 -13,-6 -1,-8 5,-4 8,-8 -6,-1 -18,-6 -14,10l3 1c5,13 3,39 0,38 7,-11 12,-20 16,-35z"/>
  <path class="fil0" d="M2525 4992l26 15 -2 -19 -4 6c-10,-14 -14,-5 -20,-2z"/>
  <polygon class="fil0" points="2609,5136 2596,5144 2623,5139 "/>
  <polygon class="fil0" points="2640,5159 2630,5168 2643,5168 "/>
  <path class="fil0" d="M4644 5399l7 -5c-3,2 -6,3 -7,5z"/>
  <path class="fil0" d="M4587 5412l0 6c2,-4 2,-6 0,-6z"/>
  <path class="fil0" d="M3480 5570c10,14 19,35 21,21l-1 -15c-9,1 -15,-2 -20,-6z"/>
  <path class="fil0" d="M4113 5544l-3 -4c-3,5 -6,10 -8,14 3,-3 7,-6 11,-10z"/>
  <path class="fil0" d="M4120 5485l16 9c-4,-4 -9,-6 -16,-9z"/>
  <path class="fil0" d="M4945 5294l4 -17c-14,5 -6,10 -4,17z"/>
  <path class="fil0" d="M2969 5375c7,11 13,17 20,21 -8,-13 -11,-29 -20,-21z"/>
  <path class="fil0" d="M4655 5553c4,-4 6,-7 5,-10 -5,3 -7,7 -5,10z"/>
  <path class="fil0" d="M3017 5411c-1,-2 -3,-3 -4,-5 -8,-2 -16,-4 -24,-10 6,10 14,19 28,15z"/>
  <path class="fil0" d="M5851 4643c1,0 2,-1 3,-1 -1,-1 -2,0 -3,1z"/>
  <path class="fil0" d="M6113 4379c1,4 0,9 -1,15 1,-2 2,-7 1,-15z"/>
  <path class="fil0" d="M2759 5260c-8,-4 -2,0 0,0z"/>
  <path class="fil0" d="M2760 5191c2,0 5,-1 7,-3 -3,2 -5,3 -7,3z"/>
  <path class="fil0" d="M3127 5363l1 0c-1,-3 -1,-3 -1,0z"/>
  <path class="fil0" d="M2752 5248c2,3 4,6 6,9 0,-2 -2,-5 -6,-9z"/>
  <path class="fil0" d="M2750 5254c-2,-2 -4,-4 -6,-5 -2,1 -2,3 6,5z"/>
  <path class="fil0" d="M2769 5265c-4,-2 -8,-5 -11,-8 1,2 1,3 1,3 2,1 5,3 10,5z"/>
  <path class="fil0" d="M5447 5098c1,0 1,0 2,0 3,-9 1,-7 -2,0z"/>
  <polygon class="fil0" points="3708,5459 3707,5460 3708,5460 "/>
  <path class="fil0" d="M3736 5452c-14,16 -20,13 -28,8l3 42 25 -50z"/>
  <path class="fil0" d="M4778 5360l-21 -7c16,-27 33,-25 12,-37 9,44 -69,26 -61,68l-14 -6c3,0 3,-3 7,-3 -29,-16 -10,35 -43,36 -11,0 -20,-5 -14,-12l-21 17c-8,0 -8,-8 0,-8l-36 12 0 -2c-4,9 -14,22 -19,27 -10,-5 4,-5 1,-10l-19 14c-11,-10 4,-24 19,-25 -28,-41 -15,14 -61,-4l18 -9c-17,-23 -30,-12 -54,-23 6,7 50,31 30,46 -7,-2 -16,-2 -26,9 -3,-16 -14,-10 -28,-6l-3 -21c-14,8 -11,19 -19,30 -18,0 -24,-16 -30,-29 -29,0 23,24 -10,32 -25,-6 -40,5 -67,21 -18,-5 1,-13 -6,-19l-12 19c-4,0 -3,-5 -3,-8 -12,8 1,21 -18,29 -4,24 -43,-31 -66,-3 -6,-6 2,-13 0,-21 -32,19 -28,14 -54,39l-24 -12c18,14 -3,35 -23,50 7,8 12,15 16,18l-31 11c-4,-3 -1,-10 4,-19 -2,2 -4,3 -6,5 -11,-8 -6,-20 2,-32 4,4 8,9 12,13 7,-13 14,-27 12,-39 -2,2 -6,4 -10,5 2,-3 3,-6 2,-8 -1,-3 -4,2 -9,8l-8 -24 -1 9 -40 -14c-29,23 -55,59 -101,68 12,-17 3,-29 4,-49 12,23 36,-9 59,-4 -12,-3 -9,-12 -6,-16l-43 20c2,-17 -8,-13 -19,-21 7,34 -32,21 -50,30 0,-11 5,-23 25,-19 -21,-26 -32,37 -53,15 5,0 8,2 10,-4 -13,9 -41,0 -34,-9l5 0c-33,-5 -102,-11 -111,17 0,-4 9,-33 11,-39 0,0 -18,22 -36,43 -18,22 -37,43 -37,43 9,-23 -3,-82 27,-92 -8,-5 -17,-10 -35,-4 5,4 8,37 0,38 -16,-29 -12,-16 -33,-43 7,6 -8,42 -21,38 3,-5 5,-37 11,-40l-39 30c10,-5 7,-30 2,-42 2,8 -27,-6 -36,-4l12 11c-35,-13 -47,45 -83,34 6,-6 22,-43 5,-52 -12,16 -59,79 -95,84l-4 -12 -28 5c24,-23 82,-70 110,-86 -11,-12 0,-14 -20,-18 -4,-12 15,-12 20,-11l-43 -19c-4,22 -41,12 -44,31l56 -9c-4,22 -46,53 -78,40 -6,-11 17,-36 19,-43 -7,6 -35,5 -36,-2l17 -7c-15,-14 -38,18 -53,-9 -7,-4 -12,-35 -18,-23 3,28 -20,103 -34,118 -2,-2 -32,-37 -37,-52 -5,-22 36,-37 31,-57 -2,5 -12,10 -15,11 -6,-7 10,-16 -8,-19 -11,20 -33,-16 -15,15 -19,-1 -15,-12 -35,-20 1,17 -36,39 -55,37 3,-5 3,-13 2,-17 -32,-17 -47,-33 -76,-49 -1,-6 -12,-20 -1,-25 -6,1 -14,6 -23,1 -9,-27 21,9 19,-20 -7,11 -32,4 -49,4 -5,20 29,20 45,19 -12,25 -49,39 -87,32 -29,-8 -2,-21 -9,-20 -45,-30 -66,19 -93,-23 -5,-25 18,-31 22,-44 23,8 24,30 37,38 0,0 -11,-18 -11,-18 9,-1 24,4 29,12 -5,-20 -74,-52 -100,-87 -9,1 -23,-1 -23,8l13 6c2,18 -32,2 -22,17 -21,-2 -47,0 -61,-23l8 -19c-3,5 6,20 15,19 -14,1 -13,-46 -38,-32l5 22c-21,-3 -52,-1 -65,-20 -5,22 5,2 3,30 7,-31 45,38 46,0 -4,31 15,27 18,59 4,-6 2,-15 15,-1 2,-1 6,-2 7,-3l1 2 0 -2c1,0 1,0 0,0 -2,-5 -3,-10 -2,-14 16,-7 41,10 54,9 8,9 -8,4 -7,13l19 -1c-7,13 11,37 -16,29l20 14c7,15 22,29 35,30 8,10 33,2 18,7l38 10 -1 3c32,20 78,15 103,60 13,2 27,3 44,15l-2 14c17,2 39,31 51,21 2,39 69,40 94,53l7 -15c18,7 37,9 62,11l3 -15c23,-5 46,29 79,35 -4,5 -12,1 -16,-3 28,42 85,-3 113,30 10,-3 16,0 21,6 -1,0 -2,0 -3,0 1,0 3,1 4,1 3,3 6,7 10,11 -3,-5 -6,-8 -8,-11 6,2 17,2 28,1l0 16c1,0 2,0 3,0 8,8 9,-6 7,-19 5,-1 10,-3 15,-6 2,26 27,-4 32,25 10,-12 52,0 62,-27 -1,4 2,6 -3,5 10,5 20,11 32,5l1 20 28 -24c13,14 18,22 1,36 39,-20 30,-6 63,-26l-3 13c11,1 29,-14 35,-3 21,30 117,12 178,40 -11,-39 28,18 31,-12 4,9 12,14 2,22 32,-9 48,14 70,-11 3,9 -7,13 -4,19 3,-2 10,-8 14,-3 3,6 -5,8 -10,12 33,-2 35,-30 37,-56 17,12 25,11 36,-7 6,8 16,17 -4,21 11,1 69,9 69,-13 4,6 16,1 18,-2 25,0 28,2 52,-2l-7 -3c8,-26 20,-6 40,-11l-1 2c47,13 19,-11 66,5l-5 -16c0,-34 42,16 66,0l-10 -8c12,-13 46,41 61,42 3,3 -4,6 -8,9 40,13 1,-22 28,-31 7,10 -2,29 17,28 12,7 48,-46 78,-29 -8,-8 -15,-15 -3,-24 19,-6 59,21 71,-10 3,2 5,4 5,6 13,-11 46,-23 51,-39 28,51 84,-50 97,-2l45 -16 0 6c30,-6 36,-20 43,-35 7,1 4,7 4,10 45,-4 49,-8 75,-44l9 14c5,-13 69,4 102,-32 0,2 0,5 -2,9 37,-37 126,-4 117,-66l22 -28c-38,14 -5,-26 -25,-27 13,-11 45,-3 29,9l-4 -1c7,31 50,-13 59,6 36,-18 73,-35 109,-52 37,-16 74,-31 105,-53l-20 -15 23 -14c9,1 18,10 2,20 16,6 20,-28 17,-32 37,-13 4,31 14,25l12 -10 -5 0c5,-16 0,-25 19,-37 15,-4 15,8 21,6 1,1 3,1 7,-5l28 -19 -22 -7c6,-17 25,-19 0,-27 38,13 106,-68 121,-72 6,-24 21,-38 41,-54 -7,1 -25,-12 -7,-25 26,38 42,-14 77,-7 -27,-2 38,-51 -1,-52 15,-11 13,10 30,7 18,-43 70,-71 99,-119 -4,-4 -17,-1 -17,-16 0,0 10,-1 20,-3 10,-3 20,-5 20,-5 3,-11 -23,-27 4,-33 -6,0 -14,-1 -12,-8 20,-19 35,-42 49,-66 12,-25 21,-52 31,-78 22,-51 32,-105 76,-153 -15,12 -13,2 -11,-9 -4,7 -14,-3 -22,-3l29 -42c-20,-12 6,-50 -14,-57l2 15c-22,-22 -59,18 -90,10 24,25 -46,43 -18,82 -8,6 -8,-8 -16,-6 11,11 11,21 0,37l-3 -3c-10,51 -32,66 -63,114l16 3c-7,10 -12,10 -18,14 16,23 15,-31 33,-8 -18,0 -25,21 -36,39 -11,18 -23,35 -41,31 -10,16 18,4 8,20l-10 0 8 10c-8,10 -22,9 -29,5 2,-2 2,-9 3,-12 -16,8 -20,40 -27,42l16 -11c-24,47 -68,91 -89,140l8 2c-16,39 -27,18 -50,54l-1 -2c0,11 -6,21 -15,29 1,-14 -27,2 -23,-15 -21,40 -7,23 -9,62l-13 -4c0,14 4,19 -10,37 6,-20 -23,-5 -17,-29 -51,9 -35,63 -76,46 5,39 43,-10 38,3 15,2 3,30 -11,37 -12,8 -45,-18 -74,3 3,-2 2,-4 5,-6 -16,1 -15,25 -37,23 4,22 -18,11 -6,34l24 -24c-11,16 -9,52 -43,57 -1,-5 3,-16 6,-23 -12,-2 -12,14 -24,13 -12,-24 30,-28 36,-56 -15,-4 -21,37 -29,8 8,38 -31,16 -37,53l-7 -14c-2,4 -5,14 -11,18l0 -24c-8,24 -40,6 -52,24 34,-21 18,11 38,13 -32,43 -45,-21 -88,13 5,-6 28,-6 22,6 -11,2 -26,4 -35,0 -31,19 13,12 3,27 -20,-11 -12,15 -23,28l-8 -14c-42,9 5,34 -34,40l4 -27 -15 14 -4 -18c-13,22 -21,22 -41,26 9,9 10,28 -7,36 -16,-4 0,-17 -23,-5 1,-11 2,-25 18,-16 -1,-5 2,-11 1,-17 -17,-4 -33,11 -41,15 3,-1 8,-1 11,0l-26 35c-8,-3 -6,-10 -3,-16 -7,5 -9,14 -19,19 -2,-13 -8,-25 5,-37l-28 28c-4,-4 -23,-7 -20,-14 -21,2 -37,41 -65,41 0,3 -2,6 -7,9 -24,6 -50,-1 -72,25l-23 -17c-21,12 30,21 -4,41 -24,15 -16,-16 -27,-20 -9,15 -25,45 -54,34 6,-7 13,-5 20,-9zm-276 75l0 0c5,-5 14,-17 20,-8 -3,19 -9,11 -20,8zm-432 79l0 0c4,-5 10,-3 18,3 -6,2 -12,1 -18,-3zm-1229 -215l0 0 0 0c8,12 6,7 0,0zm-20 -21l0 0c-3,0 -4,2 -4,5 3,-3 9,0 14,5 1,-4 -1,-9 -10,-10zm2757 -140l0 0 -7 0c7,-11 7,-5 7,0z"/>
  <path class="fil0" d="M4119 5492c2,3 2,6 3,9 2,-3 2,-6 -3,-9z"/>
  <path class="fil0" d="M4944 5297c0,0 1,0 1,0 0,-1 0,-2 0,-3l-1 3z"/>
  <path class="fil0" d="M3247 5345c4,4 5,7 6,11 2,-4 1,-8 -6,-11z"/>
  <path class="fil0" d="M2687 5214l16 8c-7,-5 -7,-10 -9,-14 -2,3 -3,9 -7,6z"/>
  <path class="fil0" d="M2636 5041c-3,0 -4,-4 -7,-4l-4 6c8,7 17,8 11,-2z"/>
  <path class="fil0" d="M2707 5162c7,-11 -4,-14 -15,-20 1,0 1,1 2,1 -15,12 -1,16 13,19z"/>
  <path class="fil0" d="M2689 5140c-3,-1 -6,-4 -8,-6 -6,4 2,4 8,6z"/>
  <path class="fil0" d="M2787 5266c-3,-6 -13,12 -12,5 -15,11 44,5 12,-5z"/>
  <polygon class="fil0" points="2727,5122 2720,5137 2734,5131 "/>
  <path class="fil0" d="M2793 5189c0,0 -13,-14 -12,-14 -2,2 -5,2 -8,1 9,8 18,17 20,13z"/>
  <path class="fil0" d="M2773 5176c-4,-4 -9,-8 -13,-8 2,2 8,6 13,8z"/>
  <polygon class="fil0" points="2750,5134 2752,5140 2762,5150 "/>
  <path class="fil0" d="M2965 5301l21 6c4,-4 1,-9 -7,-11 -6,1 -14,-1 -14,5z"/>
  <path class="fil0" d="M2933 5232c3,6 2,9 2,15l11 -17 -13 2z"/>
  <path class="fil0" d="M2988 5257c4,-4 33,-1 10,-12 -4,4 -24,-1 -10,12z"/>
  <polygon class="fil0" points="3257,5408 3251,5406 3241,5438 "/>
  <path class="fil0" d="M3536 5406c-21,-13 -10,20 -29,5 -7,6 16,12 8,17 16,-5 23,1 21,-22z"/>
  <path class="fil0" d="M3515 5428c-2,1 -4,2 -8,4 5,-1 7,-3 8,-4z"/>
  <polygon class="fil0" points="6141,4320 6150,4304 6138,4314 "/>
  <path class="fil0" d="M6121 4285l22 -2 -18 -12c1,4 1,12 -4,14z"/>
  <path class="fil0" d="M4453 5399l0 6c3,5 7,4 14,4l-14 -10z"/>
  <polygon class="fil0" points="4658,5374 4654,5375 4665,5392 "/>
  <path class="fil0" d="M4817 5305c-7,1 -13,8 -20,9 13,-8 29,14 20,-9z"/>
 </g>
</svg>
