<?xml version="1.0" encoding="UTF-8"?>
<!DOCTYPE svg PUBLIC "-//W3C//DTD SVG 1.1//EN" "http://www.w3.org/Graphics/SVG/1.1/DTD/svg11.dtd">
<!-- Creator: CorelDRAW X8 -->
<svg xmlns="http://www.w3.org/2000/svg" xml:space="preserve" width="8.14087in" height="7.39231in" version="1.1" style="shape-rendering:geometricPrecision; text-rendering:geometricPrecision; image-rendering:optimizeQuality; fill-rule:evenodd; clip-rule:evenodd"
viewBox="0 0 8141 7392"
 xmlns:xlink="http://www.w3.org/1999/xlink">
 <defs>
  <style type="text/css">
   <![CDATA[
    .fil1 {fill:#2A2A31;fill-rule:nonzero}
    .fil0 {fill:#46464B;fill-rule:nonzero}
   ]]>
  </style>
 </defs>
 <g id="Layer_x0020_1">
  <metadata id="CorelCorpID_0Corel-Layer"/>
  <path class="fil0" d="M6708 884c-22,-26 -24,-7 -29,-10 40,40 31,7 29,10z"/>
  <polygon class="fil0" points="7094,1294 7084,1290 7145,1348 "/>
  <path class="fil0" d="M7387 1733c-5,-55 -102,-162 -148,-244l-5 -16 -39 -24c69,91 156,211 192,284z"/>
  <path class="fil0" d="M7474 2003c1,-20 34,50 -26,-60 2,6 2,8 3,12 5,10 12,24 23,48z"/>
  <path class="fil0" d="M7451 1955c-25,-49 9,36 0,0z"/>
  <path class="fil0" d="M7564 2182l-37 -63c2,16 26,75 13,55 34,65 32,50 24,8z"/>
  <path class="fil0" d="M7607 2238l-18 -33c0,7 3,16 18,33z"/>
  <path class="fil0" d="M7550 2135l39 70c-1,-11 5,-15 -17,-33 9,3 -4,-8 -22,-37z"/>
  <path class="fil0" d="M7535 2092c-11,-39 -33,-87 7,-26 -65,-123 -70,-97 -7,26z"/>
  <path class="fil0" d="M7421 1744l-21 -51 -32 -37c17,18 49,95 53,88z"/>
  <path class="fil0" d="M7706 2607c6,3 5,-27 9,-34l-21 -49c5,27 18,77 12,83z"/>
  <path class="fil0" d="M7715 2573c0,0 9,18 16,37 7,19 14,37 14,37 -16,-69 -26,-80 -30,-74z"/>
  <path class="fil0" d="M7636 2240l-69 -114c0,0 20,34 40,68 10,18 19,35 27,48 7,13 11,22 11,22l-9 -24z"/>
  <polygon class="fil0" points="7776,2901 7755,2859 7789,2934 "/>
  <path class="fil0" d="M7811 3098c-14,-31 -9,47 -20,14 8,53 20,98 32,139 -9,-44 -11,-91 -12,-153z"/>
  <path class="fil0" d="M7839 3321c-3,-23 -9,-45 -16,-70 5,24 10,46 16,70z"/>
  <path class="fil0" d="M7777 2780c-1,6 -6,20 -1,64l8 -34c-2,-9 -4,-20 -7,-30z"/>
  <path class="fil0" d="M7784 2809l0 1c6,34 11,57 13,67 -2,-9 -6,-29 -13,-68z"/>
  <path class="fil0" d="M7776 2772c0,3 1,5 1,8 1,-4 1,-6 -1,-8z"/>
  <path class="fil0" d="M7698 2442c21,42 59,134 42,39 -20,-29 -10,25 -42,-39z"/>
  <path class="fil0" d="M7783 2730l-19 -83c-3,2 -4,18 -14,-3l33 86z"/>
  <polygon class="fil0" points="7798,2769 7783,2730 7790,2761 "/>
  <path class="fil0" d="M7839 3175c10,36 15,76 20,121 -1,-49 -6,-99 -10,-146 -5,-6 -15,-26 -10,25z"/>
  <path class="fil0" d="M7819 2997c0,2 1,5 2,8 0,-6 0,-10 -2,-8z"/>
  <polygon class="fil0" points="7860,3741 7863,3734 7860,3732 "/>
  <path class="fil0" d="M7850 3141c0,-36 -8,-57 -15,-77 5,27 11,55 14,86 2,3 3,3 1,-9z"/>
  <path class="fil0" d="M7852 3444c2,-19 3,-41 5,-63 -4,18 -9,56 -5,63z"/>
  <path class="fil0" d="M7819 3017c-1,-1 -1,-3 -2,-5 -1,12 0,11 2,5z"/>
  <path class="fil0" d="M7819 3017c5,18 10,33 16,47 -5,-22 -10,-42 -14,-59 -1,4 -1,9 -2,12z"/>
  <path class="fil0" d="M7937 3885c-11,-8 -12,-106 4,-190 -5,-84 -51,-30 -78,39 5,3 12,3 12,88 12,-29 28,-186 36,-114 1,113 -10,92 -22,145 21,-45 8,145 34,124 0,0 1,-25 1,-50 1,-25 1,-50 1,-50 4,-1 6,35 12,8z"/>
  <path class="fil0" d="M7870 3575l-1 -35c-3,39 -6,68 -20,119 3,57 7,69 11,73 0,0 3,-42 6,-84 3,-43 2,-85 2,-85l2 12z"/>
  <path class="fil0" d="M7865 3385c16,26 26,110 39,58 -6,-102 -16,-71 -25,-131 12,164 -10,-47 -12,72 -4,-32 -6,-61 -8,-88 0,29 -1,58 -2,85 0,-2 0,-3 0,-4l0 -1 0 0c2,-7 3,-9 2,-1 0,0 0,2 1,3 2,1 3,4 5,7 0,48 -3,8 -5,-7 -1,0 -2,-2 -3,-2l0 1c0,0 4,41 8,81 2,41 4,82 4,82 1,-35 3,-78 -4,-155z"/>
  <path class="fil0" d="M7796 2557c0,5 -1,5 -2,6 5,10 7,13 2,-6z"/>
  <path class="fil0" d="M7806 2625c-5,-11 -12,-19 -22,-57 -7,-34 6,-2 10,-5 -11,-22 -35,-76 -19,-3l6 10c13,66 17,154 13,143 7,-22 11,-41 12,-88z"/>
  <path class="fil0" d="M7862 3010c0,0 7,33 14,67 7,34 12,68 12,68 0,0 1,-18 2,-36 1,-17 1,-35 1,-35l-7 4c-9,-78 -15,-60 -22,-68z"/>
  <path class="fil0" d="M7852 3756l-14 -19c0,0 4,20 9,40 4,20 7,40 7,40 0,0 0,-15 -1,-30 0,-16 -1,-31 -1,-31z"/>
  <path class="fil0" d="M7837 3932l-12 -8c0,0 0,12 1,24 1,11 1,23 1,23 0,0 3,-10 5,-19 3,-10 5,-20 5,-20z"/>
  <path class="fil0" d="M188 4808l-18 -38c8,18 14,30 18,38z"/>
  <path class="fil0" d="M305 5090l10 4c-10,-11 -15,-15 -10,-4z"/>
  <path class="fil0" d="M5067 6961c-60,2 -127,-1 -117,11l20 10c40,-12 70,-18 97,-21z"/>
  <path class="fil0" d="M2128 6685c4,3 9,7 14,11 15,2 29,4 42,5 -17,-5 -36,-10 -56,-16z"/>
  <path class="fil0" d="M2064 6717l-66 -46c14,11 35,26 66,46z"/>
  <path class="fil0" d="M158 3163l2 -51c-25,73 -6,43 -2,51z"/>
  <path class="fil0" d="M7152 5588c-35,37 -63,66 -85,93 44,-42 85,-73 85,-93z"/>
  <path class="fil0" d="M369 4864c-10,-22 -17,-30 -19,-29 11,23 18,35 19,29z"/>
  <path class="fil0" d="M6972 5791c7,-6 14,-11 20,-17 23,-30 47,-58 75,-93 -32,32 -70,67 -95,110z"/>
  <path class="fil0" d="M4863 112c4,1 9,2 13,3 2,-2 -4,-2 -13,-3z"/>
  <path class="fil0" d="M6459 715c-15,-7 -38,-20 -61,-32 11,7 29,17 61,32z"/>
  <path class="fil0" d="M7667 4621c12,-36 1,-7 0,0z"/>
  <path class="fil0" d="M7777 4463c-1,8 0,15 2,17 -2,-4 -2,-10 -2,-17z"/>
  <path class="fil0" d="M6770 6123c-1,1 -1,2 -2,3 10,-6 8,-5 2,-3z"/>
  <path class="fil0" d="M7692 4569c-6,13 -13,28 -20,44 4,-7 11,-20 20,-44z"/>
  <path class="fil0" d="M7683 4574c4,-12 8,-21 11,-30 -1,-6 -3,-2 -11,30z"/>
  <path class="fil0" d="M7650 4670c7,-20 15,-39 22,-57 -3,7 -5,10 -5,8 -4,10 -9,24 -17,49z"/>
  <path class="fil0" d="M1872 1044c2,-1 5,-2 8,-3 28,-28 15,-17 -8,3z"/>
  <path class="fil0" d="M4099 7234c1,-1 2,-1 4,-1 -2,0 -4,0 -6,-1l2 2z"/>
  <path class="fil0" d="M3958 7242c60,-15 94,-12 139,-10l-46 -40c0,0 -23,14 -46,26 -24,12 -47,24 -47,24z"/>
  <path class="fil0" d="M45 4091c0,0 -4,25 -4,51 -1,25 -2,50 -2,50 -17,-59 -22,-112 -25,-137 -3,-26 -6,-24 -14,24 21,6 29,104 39,202 16,97 32,194 57,195l6 67c-4,-19 -7,-21 -11,-40 7,132 52,86 92,245 15,55 24,95 5,60l55 116c15,34 3,29 -10,-5 0,0 20,44 41,88 10,22 21,44 28,61 8,17 15,27 15,27l-2 -1c19,22 58,72 76,97 18,46 -15,-20 -14,-6 0,0 15,22 30,45 16,21 32,42 32,42 14,43 -46,-25 -77,-93 4,56 17,74 42,103 25,28 53,71 106,166 0,0 -15,-20 -31,-40 -16,-20 -30,-41 -30,-41 6,35 24,67 47,104 22,36 47,77 78,128 -13,-25 -103,-212 -27,-122 17,29 39,67 87,109 -12,10 29,56 79,115l-20 10c61,58 65,46 104,76 60,70 65,93 70,118 104,107 -55,-90 73,31 41,46 80,81 124,115 43,34 89,70 151,110 63,59 -19,0 1,24l70 34c14,12 6,13 2,13 55,34 16,-12 101,42 35,-3 146,149 266,193 22,22 -19,3 -16,15 152,79 131,66 262,119 0,0 23,19 48,35 24,17 49,35 49,35 -69,-56 38,-19 130,14 -24,-22 -43,-40 -57,-51 0,0 35,16 70,31 36,15 72,29 72,29 15,11 -2,11 -29,7 10,3 20,6 28,8 46,31 15,30 -26,23 -15,-12 -30,-24 -44,-36 -40,-6 -78,-11 -77,4 10,3 28,10 48,19 -11,-2 -18,-2 -15,2 4,5 21,8 46,14l22 37 11 -5c0,0 45,26 89,51 22,13 45,25 62,34 17,9 29,15 29,15 72,18 140,33 219,47 39,8 80,17 125,29 46,10 96,22 151,37 -59,-1 -20,23 -29,42 -27,-20 -70,-32 -121,-44 -51,-13 -108,-29 -164,-52 58,25 42,29 26,26 0,0 52,15 104,29 52,14 105,25 105,25 -10,14 39,26 91,50 -32,-43 160,23 247,34 3,12 -21,20 -123,-12 108,56 157,-1 264,46 -26,-6 -39,-10 -50,-7 61,6 206,37 170,41l-26 -4c84,18 215,36 328,45 113,6 208,5 221,-10 2,4 -24,33 -35,38 0,0 78,-21 156,-41 77,-23 151,-48 151,-48 -26,24 79,80 -64,95 41,2 93,9 179,-6 -28,-2 -71,-31 -33,-35 106,20 74,13 205,23 -43,-1 1,-43 66,-48 -9,6 10,36 -14,42 0,0 40,-13 80,-26 40,-16 79,-31 79,-31 -39,13 -2,32 36,37 -9,-2 27,-7 70,-13 43,-8 93,-17 115,-23l-71 5c92,-15 135,-36 176,-61 42,-25 83,-45 171,-71 -19,13 -41,61 51,39 38,-30 157,-141 299,-213l33 -1c0,0 28,-14 54,-29 27,-15 54,-30 54,-30 -56,60 -239,191 -348,250 70,-14 23,6 122,-29 39,-2 -49,33 -78,44 0,0 58,-19 117,-37 58,-20 116,-41 116,-41 -17,-15 166,-93 149,-107 0,0 -59,32 -117,64 -60,29 -120,58 -120,58 -18,-17 121,-111 278,-179 43,-11 -13,50 -7,54 18,-15 141,-85 158,-87l-61 43c92,-34 127,-97 238,-135 35,-19 117,-38 116,-52 -69,12 -119,-48 -92,-86 13,-4 185,-90 229,-106 65,-21 -54,94 1,76 -1,-6 25,-32 36,-43 37,-20 -3,26 69,-30 -1,-27 149,-109 23,-41 68,-58 77,-54 159,-120 -34,11 39,-98 101,-160 0,8 19,-1 28,-5 66,-61 119,-106 167,-154 50,-46 96,-94 152,-158 15,-7 72,-66 57,-33 12,-22 20,-44 53,-85 78,-67 -71,93 -5,47 -3,-6 15,-36 39,-71 22,-36 49,-79 68,-111 -15,3 -41,37 -68,78 -28,41 -59,87 -79,119 -21,-17 39,-134 129,-283 71,-119 48,-40 58,-62 144,-218 76,-212 194,-392 52,-69 33,12 52,1 -43,105 -90,149 -127,216 0,0 14,-19 27,-39 13,-19 26,-39 26,-39 -6,17 -17,43 -29,69 -14,25 -30,50 -42,66 26,-26 82,-122 141,-235 57,-113 115,-244 156,-337 7,-36 23,-97 6,-71l-20 60c-33,50 24,-119 -11,-46 11,-41 19,-86 30,-134 11,-48 25,-100 43,-157l25 -16c-6,1 -31,72 -34,106 4,-50 75,-170 59,-230 0,0 -8,19 -16,39 -7,20 -16,39 -16,39 9,-85 11,-191 32,-294 -27,44 -2,25 -36,94 42,-58 -57,261 -5,167 -46,67 -42,126 -95,214 7,-1 23,-30 -7,53 1,4 0,14 0,20 -1,2 -1,3 -2,5 1,-1 1,-2 2,-4 0,4 0,4 1,-2 9,-19 17,-34 23,-39 3,47 -47,178 -56,226 -22,48 1,-23 -16,1l-17 70c-16,1 -77,118 -37,1 0,0 -11,26 -21,51 -11,26 -24,50 -24,50 -35,55 -77,134 -99,184 -27,45 -50,123 -37,78 0,0 -21,39 -41,77 -20,38 -42,76 -42,76l-4 0c-93,142 -182,305 -332,436 -17,22 -35,46 -57,72 -23,26 -50,54 -85,87l-22 5c-49,55 -169,144 -185,174 -79,30 -281,221 -394,287l5 17c-74,50 -145,98 -237,161l13 9c-40,28 -95,57 -158,85 -64,28 -133,58 -203,88 7,-10 43,-23 69,-32 -177,47 -345,171 -512,197 -37,17 -67,23 -95,28 3,-1 6,-2 9,-4 -4,1 -10,3 -16,5 -18,2 -37,5 -57,8 18,-1 34,-3 48,-6 -30,10 -76,23 -121,37l-24 -10c-3,1 -6,2 -10,3 -46,5 -34,16 -8,21 -22,9 -43,17 -59,23 -42,-18 -120,34 -176,14 -14,9 -73,20 -130,33 -57,12 -115,23 -126,39 -2,-4 -16,-4 10,-7 -53,3 -106,4 -153,14l-24 -19c0,0 -28,8 -57,17 -28,8 -57,15 -57,15 -71,-12 -100,-19 -30,-35 -168,26 -136,9 -280,28l7 -13c-51,-1 -134,8 -164,-5 -28,-7 -77,-16 -139,-27 -31,-4 -65,-10 -102,-15 -37,-7 -75,-14 -116,-21 -81,-13 -165,-36 -248,-56 -82,-24 -162,-47 -230,-75 43,54 -124,-59 -144,-34 -14,-14 -50,-34 -3,-24 -71,-22 -123,-45 -169,-64 -46,-20 -87,-38 -139,-47 -12,-15 34,1 23,-10 -12,-3 -47,-12 -59,-23 -12,-11 23,2 46,7 -140,-58 -164,-44 -186,-24 -65,-45 -100,-60 -157,-72 -20,-21 -56,-50 30,-8 -24,-13 -95,-53 -160,-91 -65,-39 -126,-73 -134,-66 -12,-13 -64,-39 -77,-46 -99,-67 -108,-73 -206,-140l25 22c-53,-6 -84,-53 -163,-106l4 -1c-82,-73 -100,-87 -120,-100 -19,-14 -41,-24 -114,-104l-1 20c-19,6 -52,-29 -92,-75 -41,-47 -85,-107 -134,-146l25 38c-59,-38 -97,-170 -139,-222 -8,-13 19,14 34,28 -100,-147 -31,-3 -119,-103 -6,-25 42,7 -12,-63 -11,-19 -54,-67 -103,-122 -49,-56 -95,-126 -118,-183 6,27 12,55 -25,5 -22,-41 -47,-101 -69,-159 -21,-59 -45,-115 -73,-149 -2,-12 -1,-17 1,-19 -15,-32 -41,-85 -60,-136 -19,-52 -39,-100 -52,-119 20,-40 -16,-145 -36,-247 -12,-50 -21,-99 -23,-136 -3,-36 -1,-60 12,-60 0,0 -2,-14 -3,-35 -1,-20 -2,-48 -2,-76 -1,-27 -3,-55 -3,-75 1,-21 1,-35 1,-35l5 6c7,-141 5,-191 -3,-242 7,-32 9,-8 12,-5 40,-203 43,-222 63,-397l21 -13c0,-50 112,-278 184,-469 0,3 2,8 -3,24 38,-109 114,-224 180,-323 67,-98 123,-181 124,-232 0,0 19,-33 38,-66 18,-33 39,-65 39,-65 -121,155 -3,-40 -60,20 45,-65 137,-150 81,-72l-11 10c2,24 40,-24 83,-73 42,-49 86,-102 93,-93 253,-294 547,-534 842,-743l-48 4 104 -72c30,-14 47,-10 -27,41 46,-17 118,-95 118,-101 153,-88 -43,62 3,32l60 -41 -15 6c44,-41 43,-53 137,-108 61,-31 37,-5 61,-19 1,2 9,-3 36,-20l140 -75 -65 14c57,-44 134,-69 58,-55 56,-11 189,-76 320,-135 66,-28 131,-56 183,-78 53,-21 93,-35 110,-39 43,-25 89,-44 138,-62 49,-18 100,-35 159,-51 -30,5 -54,-10 48,-38 -25,52 190,-33 280,-20 -39,-2 33,-19 100,-35 66,-18 129,-30 67,-35 87,-11 9,15 75,14 202,-51 454,-50 708,-55 4,-6 -39,-15 16,-23 0,0 33,7 67,14 34,7 67,17 67,17 50,-1 48,-31 139,-7 -13,-5 -32,-14 2,-14 249,32 502,69 751,135 247,66 490,163 702,303 -56,-40 -14,-22 32,3 -29,-19 7,-12 5,-22 0,0 44,30 88,61 45,29 87,63 87,63 22,0 71,30 117,59 47,30 90,61 105,58l-58 -35c44,16 26,-14 0,-49 -27,-35 -63,-75 -49,-84 -51,-15 -102,-62 -165,-105 -31,-22 -65,-45 -101,-65 -36,-20 -76,-34 -118,-44 -31,-22 33,5 18,-11 -45,-6 -92,-28 -178,-69l11 1c-251,-99 -356,-150 -650,-230l18 21c-63,-19 -76,-23 -105,-34 -39,4 6,14 52,23 45,10 91,24 55,28 -38,-27 -151,-49 -261,-68 -55,-9 -109,-17 -153,-26 -44,-7 -78,-15 -92,-25 -100,-10 28,20 -72,11l-26 -13 -26 12c-65,-6 -98,-19 -100,-28 16,2 46,0 63,0 -85,-18 -242,-3 -271,-6l97 6c-274,4 -611,22 -867,91l21 4c-98,24 -137,33 -180,38 -42,5 -87,13 -193,44l7 -4c-41,17 -97,38 -155,54 51,-24 -105,14 -38,-16 -203,81 -100,44 -226,117l-35 0c-42,28 -45,34 -145,78 79,-45 -72,10 16,-42 -111,33 -189,72 -250,107 -61,35 -109,61 -165,69 -39,39 7,20 58,-4 50,-24 106,-51 80,-35 50,-11 -69,59 -133,90 -66,32 -132,19 -293,112 16,-9 15,-12 31,-21 -64,28 -111,80 -191,114 -29,43 -93,60 -90,89 0,0 34,-25 69,-50 35,-24 70,-48 70,-48 -78,58 -137,131 -274,211 7,-11 42,-44 66,-66 -42,21 -70,56 -114,78 -4,-29 165,-126 242,-197 -49,17 -153,124 -126,72 -40,72 -153,102 -236,201l-3 -17c-15,14 -43,45 -71,68l39 -57c-69,77 -164,112 -231,186 155,-137 47,-17 121,-65 -177,182 -139,63 -340,266 25,-30 111,-93 72,-47 -42,34 -95,82 -125,100 -129,138 32,-9 -17,55 -58,33 -57,73 -107,138l-13 -10c-146,158 -13,63 -143,205 0,0 8,-19 16,-39 9,-19 18,-38 18,-38 0,0 -16,20 -30,41 -14,21 -28,42 -28,42l-2 -28c-56,95 -80,120 -145,206 24,-14 14,26 -37,107 -42,49 7,-39 -63,76 8,-31 15,-66 59,-108 -1,-8 8,-31 7,-38 -46,53 -99,146 -122,189 11,-16 22,-35 30,-44 0,0 -20,46 -40,91 -9,22 -19,45 -27,62 -7,17 -11,28 -11,28 -20,25 -13,1 -6,-23 -16,36 -23,64 -48,116 -5,-19 -18,-21 15,-98 0,0 -19,43 -37,87 -20,42 -35,87 -35,87 -10,9 -54,81 -48,57 -51,93 -75,247 -126,375 0,8 -1,23 -8,51 -10,31 -20,61 -29,92 -9,30 -17,61 -26,92 -17,62 -27,129 -30,207 0,0 -10,21 -18,42 -8,21 -16,43 -16,43 -7,121 41,-115 29,86 0,142 -22,52 -31,102 5,36 11,86 18,141 3,28 5,58 6,89 1,31 3,63 1,96 -8,-43 -10,-77 -11,-118zm501 1384l0 0c-19,-22 -61,-63 -65,-85 33,17 41,42 65,85zm1761 1330l0 0c-21,-4 -49,-21 -79,-42 24,10 51,24 79,42zm5211 -1801l0 0c0,1 0,2 0,3 -32,52 -21,34 0,-3zm62 -112l0 0c3,-13 0,-13 -4,-9 1,10 -12,36 -27,65 8,-7 18,-20 31,-56zm-5306 -3979l0 0 -23 9c46,-33 35,-20 23,-9z"/>
  <path class="fil0" d="M2072 6713c-6,-6 -7,-10 -7,-13 -11,-3 -12,0 7,13z"/>
  <path class="fil0" d="M159 3173l1 -5c0,-2 -1,-4 -2,-5l1 10z"/>
  <path class="fil0" d="M6402 6500c-23,14 -38,19 -48,22 1,4 14,1 48,-22z"/>
  <path class="fil0" d="M7768 4247c0,0 -3,20 -7,40 -4,20 -8,40 -8,40 9,-38 16,-51 22,-70 -4,1 -12,15 -7,-10z"/>
  <path class="fil0" d="M7946 3552c-2,-12 -1,-26 -3,-38l-7 3c0,52 6,88 10,35z"/>
  <path class="fil0" d="M7835 4184c14,-3 22,-55 27,-112l-2 10c-15,-20 -17,42 -25,102z"/>
  <path class="fil0" d="M7864 4058c2,-17 4,-35 8,-52 -7,-8 -5,21 -8,52z"/>
  <path class="fil0" d="M7634 4740c13,-24 -9,-22 1,-35 -3,-33 -49,175 -1,35z"/>
  <polygon class="fil0" points="7887,4147 7867,4164 7873,4199 "/>
  <path class="fil0" d="M7760 4588l32 -87c-3,1 -1,-11 2,-25 -18,54 -40,113 -34,112z"/>
  <path class="fil0" d="M7794 4476c10,-28 16,-56 18,-73 -4,16 -12,49 -18,73z"/>
  <path class="fil0" d="M7866 4273l-9 26 -18 63c0,0 7,-22 14,-44 8,-23 13,-45 13,-45z"/>
  <path class="fil0" d="M7311 5476c0,0 -13,22 -27,43 -15,21 -29,42 -29,42 -1,12 18,-8 39,-40 11,-22 29,-55 17,-45z"/>
  <path class="fil0" d="M7513 5240c-17,22 -21,21 -34,32l16 13 18 -45z"/>
  <path class="fil0" d="M7358 5495c0,12 -73,131 1,24 2,-12 55,-100 -1,-24z"/>
  <polygon class="fil0" points="6239,6542 6261,6527 6240,6501 "/>
  <path class="fil0" d="M5018 7147c122,-22 24,-25 134,-45 25,-14 -90,16 -63,2 -70,25 -109,30 -71,43z"/>
  <path class="fil0" d="M5089 7104c11,-4 23,-9 35,-14 -20,7 -30,11 -35,14z"/>
  <polygon class="fil0" points="6689,874 6748,923 6714,885 "/>
  <path class="fil0" d="M6823 937l3 27 49 11c-15,-9 -44,-27 -52,-38z"/>
  <path class="fil0" d="M647 5677l8 1c-4,-13 -15,-28 -38,-57l30 56z"/>
  <polygon class="fil0" points="137,4719 142,4737 150,4697 "/>
  <path class="fil0" d="M7 3810c-3,38 0,82 -3,120 0,-83 27,-129 3,-120z"/>
  <path class="fil0" d="M1366 6287c23,26 29,3 35,4 -43,-38 -38,1 -35,-4z"/>
  <polygon class="fil0" points="949,5890 962,5893 893,5839 "/>
  <path class="fil0" d="M642 5449c-3,31 26,71 59,115 33,44 71,90 94,132l3 18 48 18c-73,-90 -169,-208 -204,-283z"/>
  <path class="fil0" d="M574 5164c-5,21 -37,-49 25,60 -1,-6 -1,-8 -2,-12 -5,-10 -12,-24 -23,-48z"/>
  <path class="fil0" d="M597 5212c25,49 -6,-38 0,0z"/>
  <path class="fil0" d="M482 4984l40 62c1,-17 -22,-77 -8,-57 -35,-66 -36,-49 -32,-5z"/>
  <path class="fil0" d="M431 4930l20 33c0,-8 -2,-17 -20,-33z"/>
  <path class="fil0" d="M493 5033l-42 -70c-1,12 -11,17 18,32 -12,-2 3,9 24,38z"/>
  <path class="fil0" d="M505 5077c10,40 31,90 -13,29 67,124 79,95 13,-29z"/>
  <path class="fil0" d="M598 5443c0,0 4,14 9,28 5,13 10,27 10,27l36 35c-19,-17 -49,-98 -55,-90z"/>
  <path class="fil0" d="M353 4551c-8,-2 -13,29 -20,37l23 49c-2,-28 -14,-79 -3,-86z"/>
  <path class="fil0" d="M333 4588c0,0 -9,-19 -17,-38 -7,-19 -15,-37 -15,-37 14,70 25,81 32,75z"/>
  <path class="fil0" d="M390 4932l77 113c0,0 -22,-34 -43,-68 -11,-17 -22,-34 -31,-47 -7,-13 -12,-22 -12,-22l9 24z"/>
  <polygon class="fil0" points="294,4253 319,4295 280,4220 "/>
  <path class="fil0" d="M268 4054c16,32 21,-48 32,-13 -5,-54 -20,-100 -33,-141 9,44 9,91 1,154z"/>
  <path class="fil0" d="M251 3829c4,23 8,46 16,71 -5,-24 -8,-47 -16,-71z"/>
  <path class="fil0" d="M275 4377c3,-6 13,-21 11,-66l-16 35c2,10 3,21 5,31z"/>
  <path class="fil0" d="M270 4347l0 -1c-5,-34 -9,-57 -10,-68 1,9 4,30 10,69z"/>
  <path class="fil0" d="M276 4385c0,-2 -1,-5 -1,-8 -1,4 -2,6 1,8z"/>
  <path class="fil0" d="M337 4723c-24,-42 -65,-135 -55,-37 24,30 18,-27 55,37z"/>
  <path class="fil0" d="M259 4429l15 86c4,-3 9,-20 20,1l-35 -87z"/>
  <path class="fil0" d="M244 4389c0,0 3,10 7,20 4,10 8,20 8,20l-5 -31 -10 -9z"/>
  <path class="fil0" d="M235 3975c-10,-36 -15,-77 -15,-122 -6,49 -3,99 -1,148 7,6 19,26 16,-26z"/>
  <path class="fil0" d="M244 4157c-1,-3 -1,-6 -2,-8 -1,5 -1,9 2,8z"/>
  <polygon class="fil0" points="252,3404 247,3410 251,3413 "/>
  <path class="fil0" d="M215 4009c-3,37 4,59 14,79 -6,-27 -9,-56 -10,-87 -3,-3 -5,-4 -4,8z"/>
  <path class="fil0" d="M244 3704c-7,19 -9,41 -13,63 6,-18 17,-56 13,-63z"/>
  <path class="fil0" d="M246 4136c1,1 1,3 2,5 3,-12 1,-11 -2,-5z"/>
  <path class="fil0" d="M246 4136c-5,-19 -11,-33 -17,-48 4,23 8,43 13,61 1,-5 3,-10 4,-13z"/>
  <path class="fil0" d="M144 3243c19,11 14,112 -15,195 3,87 74,38 118,-28 -7,-3 -18,-5 -13,-91 -18,27 -52,186 -60,111 5,-116 22,-92 41,-145 -16,21 -18,-17 -21,-58 -3,-41 -3,-84 -24,-76 0,0 -2,25 -5,51 -2,26 -3,52 -3,52 -6,0 -8,-38 -18,-11z"/>
  <path class="fil0" d="M226 3571l0 35c6,-40 16,-67 38,-117 -2,-58 -7,-72 -13,-76 0,0 -6,42 -13,85 -7,42 -10,85 -10,85l-2 -12z"/>
  <path class="fil0" d="M218 3762c-23,-28 -25,-113 -52,-62 -1,104 17,73 25,135 -4,-166 11,48 24,-72 4,33 4,62 5,90 3,-30 6,-59 11,-86 -1,2 -1,3 -2,4l0 1 0 0c-3,7 -4,9 -3,1 0,0 0,-2 0,-3 -3,-1 -6,-5 -8,-8 5,-48 5,-7 8,8 1,0 2,2 3,2l0 -1c0,0 0,-10 -1,-26 -2,-15 -2,-36 -2,-56 0,-42 0,-83 0,-83 -4,34 -11,78 -8,156z"/>
  <path class="fil0" d="M213 4612c0,-6 2,-6 3,-7 -6,-10 -8,-13 -3,7z"/>
  <path class="fil0" d="M209 4540c5,11 16,20 23,59 4,35 -10,3 -16,6 12,22 39,78 27,2l-6 -11c-9,-68 -2,-159 3,-148 -14,23 -23,43 -31,92z"/>
  <path class="fil0" d="M182 4143c0,0 -7,-34 -13,-69 -6,-35 -9,-70 -9,-70 0,0 -4,18 -8,37 -4,18 -6,36 -6,36l10 -4c5,80 16,61 26,70z"/>
  <path class="fil0" d="M264 3390l20 21c0,0 -6,-21 -9,-41 -5,-21 -9,-42 -9,-42l-2 62z"/>
  <polygon class="fil0" points="295,3214 312,3224 312,3176 "/>
  <path class="fil0" d="M7975 2983l14 41c-6,-20 -10,-32 -14,-41z"/>
  <path class="fil0" d="M7897 2679l-11 -5c9,12 15,17 11,5z"/>
  <path class="fil0" d="M3361 328c62,3 132,20 121,0l-22 -18c-40,11 -71,17 -99,18z"/>
  <path class="fil0" d="M6330 745c-4,-5 -7,-11 -11,-16 -17,-2 -32,-4 -46,-5 17,6 37,12 57,21z"/>
  <path class="fil0" d="M6416 698l59 59c-12,-15 -31,-34 -59,-59z"/>
  <path class="fil0" d="M8007 4688l11 55c16,-79 -2,-47 -11,-55z"/>
  <path class="fil0" d="M1149 1605c41,-32 72,-59 98,-84 -52,36 -100,60 -98,84z"/>
  <path class="fil0" d="M7727 2917c10,24 17,33 21,31 -9,-24 -17,-37 -21,-31z"/>
  <path class="fil0" d="M1352 1417c-8,5 -15,10 -23,15 -25,29 -50,57 -82,89 37,-27 79,-58 105,-104z"/>
  <path class="fil0" d="M3063 7265c-4,-2 -9,-4 -13,-6 -2,2 4,4 13,6z"/>
  <path class="fil0" d="M1538 6370c16,8 39,22 62,36 -10,-8 -29,-19 -62,-36z"/>
  <path class="fil0" d="M537 2538c-15,34 -1,6 0,0z"/>
  <path class="fil0" d="M384 2675c1,-9 1,-16 -3,-18 3,4 4,11 3,18z"/>
  <path class="fil0" d="M1557 1063c1,-1 2,-1 3,-2 -12,4 -10,3 -3,2z"/>
  <path class="fil0" d="M503 2585c9,-12 18,-26 27,-41 -5,6 -13,19 -27,41z"/>
  <path class="fil0" d="M516 2582c-7,12 -11,21 -16,30 2,6 5,2 16,-30z"/>
  <path class="fil0" d="M559 2489c-10,20 -19,38 -29,55 5,-6 7,-9 7,-6 4,-11 11,-25 22,-49z"/>
  <path class="fil0" d="M6262 6869c-2,1 -5,1 -8,2 -31,28 -16,18 8,-2z"/>
  <path class="fil0" d="M4357 9c-2,0 -3,1 -5,1 2,0 4,1 6,1l-1 -2z"/>
  <path class="fil0" d="M4503 0c-64,24 -98,19 -145,11l45 64 100 -75z"/>
  <path class="fil0" d="M8074 3726c0,0 5,-26 8,-51 3,-26 6,-52 6,-52 40,122 27,214 53,116 -32,-7 -39,-107 -48,-207 -10,-100 -24,-199 -58,-202l4 -69c2,19 7,22 9,41 10,-135 -59,-90 -83,-256 -7,-59 -5,-101 10,-63 0,0 -10,-32 -23,-63 -11,-30 -23,-61 -23,-61 -8,-38 5,-31 13,6 0,0 -12,-49 -27,-97 -16,-47 -31,-95 -31,-95l2 1c-17,-25 -52,-81 -70,-108 -7,-51 15,21 19,7l-51 -99c1,-49 47,32 70,106 28,-120 -42,-83 -90,-304l47 94c5,-38 -4,-76 -16,-119 -14,-42 -33,-89 -48,-149 2,32 45,243 -20,139 -9,-33 -26,-75 -65,-128 22,-12 -13,-66 -51,-136l30 -10c-47,-73 -60,-58 -97,-95 -45,-84 -35,-114 -31,-144 -80,-133 26,110 -79,-40 -29,-57 -62,-101 -100,-145 -36,-45 -81,-88 -137,-140 -48,-76 25,-1 11,-31 0,0 -17,-11 -35,-23 -18,-10 -36,-21 -36,-21 -12,-15 -2,-15 3,-15 -53,-43 -27,16 -104,-54 -22,0 -51,-45 -89,-99 -38,-55 -87,-118 -150,-145 -17,-28 25,-4 26,-20 -150,-98 -128,-85 -262,-148 0,0 -21,-23 -42,-46 -22,-22 -44,-44 -44,-44 60,71 -51,26 -145,-12 19,28 35,51 47,65 0,0 -34,-19 -69,-38 -34,-19 -70,-36 -70,-36 -13,-15 6,-15 35,-12 -11,-4 -21,-7 -29,-9 -41,-40 -7,-40 37,-33 13,16 26,32 38,47 43,7 85,11 89,-9 -11,-3 -29,-12 -48,-23 11,1 19,1 17,-4 -3,-5 -20,-11 -47,-18l-11 -49 -16 7c0,0 -42,-33 -84,-66 -20,-17 -42,-33 -58,-44 -17,-11 -28,-19 -28,-19 -75,-22 -147,-39 -229,-56 -41,-9 -83,-22 -130,-34 -47,-12 -97,-27 -153,-47 64,-1 28,-34 42,-61 48,55 177,59 286,123 -57,-32 -38,-38 -21,-36 0,0 -53,-18 -106,-36 -55,-15 -109,-30 -109,-30 14,-21 -36,-37 -86,-68 11,31 -31,24 -87,8 -27,-9 -59,-19 -89,-29 -31,-8 -60,-15 -83,-18 -1,-16 27,-29 130,12 -51,-40 -95,-36 -136,-33 -43,3 -83,5 -136,-24 26,6 39,12 51,7 -64,-3 -210,-50 -172,-56l27 6c-43,-13 -99,-24 -158,-36 -29,-5 -59,-10 -90,-16 -30,-3 -60,-6 -90,-10 -116,-13 -215,-6 -230,12 -1,-5 28,-48 39,-55 0,0 -20,7 -51,17 -31,10 -72,25 -112,41 -40,16 -80,32 -110,44 -29,12 -48,21 -48,21 28,-35 -79,-123 70,-140 -42,-8 -96,-12 -186,0 30,5 73,52 34,55 -109,-40 -76,-19 -212,-48 44,6 -1,63 -68,67 10,-9 -11,-55 14,-63l-165 71c41,-13 3,-48 -38,-58 20,9 -147,19 -191,33 0,0 18,0 37,0 18,1 37,2 37,2 -193,24 -174,107 -358,147 19,-16 39,-81 -57,-65 -38,39 -154,182 -301,255l-35 -4 -111 61c56,-68 238,-228 351,-293 -74,8 -26,-14 -129,20 -41,-3 50,-41 81,-49 0,0 -62,14 -124,32 -30,9 -61,18 -84,24 -23,7 -38,12 -38,12 21,27 -172,98 -152,121 0,0 15,-8 38,-20 23,-12 54,-28 85,-44 61,-33 124,-61 124,-61 20,27 -121,136 -284,199 -47,6 8,-67 1,-76 -17,20 -148,85 -166,87 0,0 16,-13 31,-25 16,-11 31,-23 31,-23 -96,30 -130,106 -250,133 -37,17 -129,19 -126,40 78,1 143,99 118,144 -14,3 -201,70 -250,80 -72,11 49,-113 -12,-105 2,9 -24,39 -35,50 -41,16 0,-33 -77,20 4,35 -160,104 -22,48 -70,59 -85,48 -172,111 40,-2 -34,116 -99,179 -1,-10 -24,-6 -35,-4 -73,57 -131,99 -185,142 -56,42 -108,87 -171,147 -17,5 -83,58 -68,23 -13,22 -21,46 -58,86 -93,55 80,-90 0,-57 5,10 -15,39 -41,75 -25,36 -55,79 -76,111 19,1 49,-31 80,-71 31,-40 65,-87 87,-119 30,29 -33,152 -133,300 -81,116 -59,30 -70,53 -170,207 -80,222 -225,387 -68,61 -47,-24 -73,-18 54,-104 111,-141 156,-205 0,0 -17,18 -34,36 -16,18 -32,36 -32,36 12,-36 54,-103 85,-132 -16,11 -41,40 -72,79 -29,40 -63,90 -100,144 -67,112 -144,238 -198,328 -8,37 -28,99 -5,76l25 -61c45,-44 -26,124 18,54 -25,85 -42,182 -96,291l-36 12c9,0 43,-70 49,-104 -4,26 -30,65 -52,108 -22,43 -44,87 -32,120 0,0 10,-19 23,-37 12,-19 24,-37 24,-37 -8,43 -11,93 -17,144 -7,51 -16,103 -32,154 40,-40 1,-26 55,-89 -30,26 -10,-39 8,-99 17,-61 40,-115 -1,-73 65,-59 61,-121 133,-201 -11,-1 -31,26 7,-54 -1,-5 -1,-15 0,-22 1,-2 2,-3 3,-5 -1,2 -2,3 -3,4 0,-4 0,-4 -1,2 -12,17 -24,31 -32,35 -5,-50 59,-179 71,-228 29,-45 -1,25 23,5l18 -72c23,3 100,-107 51,9 0,0 14,-24 28,-49 14,-24 29,-48 29,-48 23,-25 46,-56 67,-87 23,-31 42,-62 54,-88 32,-42 57,-124 44,-76 0,0 23,-38 46,-75 12,-19 24,-38 33,-52 9,-14 15,-23 15,-23l6 2c108,-135 205,-300 377,-412 38,-45 78,-92 157,-152l27 2c52,-54 185,-129 200,-163 93,-11 303,-203 423,-262l-8 -24c80,-44 152,-94 249,-154l-16 -17c80,-62 235,-96 378,-156 -7,12 -44,25 -72,31 188,-25 355,-174 530,-181 38,-20 68,-25 98,-26 -4,1 -7,2 -10,4 4,-1 11,-2 17,-4 19,0 38,-1 59,-2 -18,-1 -35,-1 -50,0 31,-8 78,-22 124,-37l25 19c4,-1 7,-2 11,-3 48,0 35,-18 7,-30 23,-9 44,-17 60,-26 44,29 123,-34 181,-1 29,-26 238,-41 262,-83 2,5 16,7 -10,9 54,2 108,4 156,-10l24 30 118 -41c72,18 100,31 29,52 86,-16 121,-16 153,-18 31,-3 60,-4 134,-14l-9 18c52,4 139,-13 168,9 55,25 197,48 359,89 162,37 342,102 474,170 -32,-75 117,78 145,42 11,19 45,43 -4,34 143,53 194,118 303,138 8,20 -38,1 -29,16 12,3 48,13 58,27 9,15 -25,-1 -49,-7 68,35 109,50 138,50 29,0 45,-14 61,-27 57,57 91,77 152,90 15,26 45,64 -37,11 21,18 88,67 148,116 60,48 118,89 130,79 9,16 56,52 70,59 91,82 98,91 186,174l-21 -28c60,8 81,63 149,132l-5 1c66,90 83,106 100,123 17,17 35,32 90,129l11 -24c26,-7 50,37 77,94 28,57 54,130 98,177l-14 -45c27,24 37,75 44,127 7,53 11,105 24,137 3,16 -17,-17 -30,-34 56,173 38,6 106,123 -4,29 -50,-11 -16,72 7,45 158,218 165,349 4,-30 7,-61 36,-4 19,45 28,111 38,175 12,63 23,124 53,162 -1,13 -3,18 -6,19 15,35 32,92 48,147 17,54 34,105 47,125 -34,41 -6,152 14,257 22,105 36,203 0,203 0,0 2,15 2,36 1,21 2,49 3,78 1,28 2,57 3,78 0,21 0,35 0,35l-8 -6c-7,145 7,197 20,249 -7,34 -12,9 -16,6 -33,210 -35,229 -28,412l-27 14c1,25 -22,99 -54,190 -16,45 -32,96 -49,147 -17,51 -31,104 -42,156 -2,-3 -4,-9 -2,-25 -14,56 -37,116 -64,175 -30,57 -61,114 -92,165 -32,51 -58,100 -78,141 -19,41 -28,77 -20,107 0,0 -14,37 -32,71 -17,36 -34,71 -34,71 118,-163 15,46 74,-15 -21,35 -55,75 -78,94 -25,18 -36,19 -8,-22l12 -10c-15,-54 -164,190 -188,163 -125,151 -269,278 -427,388 -153,115 -314,211 -473,304 0,0 14,3 28,5 14,3 27,5 27,5 0,0 -7,4 -17,10 -11,6 -25,13 -39,21 -29,15 -58,30 -58,30 -33,9 -53,-3 28,-46 -52,5 -126,89 -125,97 -169,65 44,-67 -7,-45 0,0 -16,9 -32,18 -17,9 -33,17 -33,17l17 -3c-48,39 -46,56 -147,101 -67,20 -42,-7 -68,2 -1,-2 -10,0 -39,15 0,0 -37,15 -75,30 -38,13 -76,25 -76,25l71 5c-63,37 -145,50 -63,55 -61,-3 -206,40 -347,76 -142,36 -280,64 -314,63 -48,20 -98,29 -150,39 -52,11 -108,16 -170,19 31,3 53,33 -55,39 35,-67 -197,-16 -284,-64 38,16 -37,17 -107,20 -70,5 -135,4 -76,30 -89,-10 -4,-25 -71,-44 -213,16 -462,-55 -718,-100 -6,8 34,30 -23,31 0,0 -32,-18 -63,-36 -32,-17 -63,-36 -63,-36 -50,-9 -58,37 -142,-16 11,11 28,26 -7,20 -242,-87 -493,-164 -737,-265 -243,-101 -480,-225 -681,-395 51,52 11,28 -35,1 27,21 -12,17 -13,31 0,0 -43,-35 -83,-72 -41,-37 -82,-74 -82,-74 -52,5 -192,-133 -228,-123l59 37c-98,-25 57,142 20,172 108,27 198,209 380,246 28,27 -36,-3 -24,16 49,4 96,29 178,83l-12 -1c248,125 346,195 631,325l-13 -31c61,28 73,39 100,55 84,-5 -176,-68 -96,-80 33,39 143,81 251,119 108,38 214,71 236,105 99,29 -22,-35 77,-5l23 21 30 -12c65,20 94,46 93,58 -16,-5 -46,-8 -64,-11 81,40 244,50 273,62l-96 -30c278,49 621,113 896,91l-20 -12c104,-6 145,-5 189,0 45,6 92,10 206,0l-9 3c46,-12 106,-22 168,-27 -56,18 111,16 37,36 223,-45 110,-30 251,-89l37 12c47,-25 50,-35 160,-60 -89,32 77,14 -22,53 122,-5 207,-36 275,-63 68,-28 121,-49 182,-37 45,-43 -6,-30 -62,-17 -56,14 -117,35 -89,21 -54,-2 77,-60 148,-79 71,-26 145,23 324,-55 -18,7 -18,11 -36,19 36,-8 67,-26 101,-43 33,-19 67,-39 112,-48 31,-49 105,-48 99,-91 0,0 -9,6 -24,15 -14,7 -33,18 -53,29 -39,21 -78,42 -78,42 43,-27 81,-60 127,-93 45,-36 98,-72 175,-102 -7,13 -45,46 -72,67 48,-14 79,-50 127,-67 4,21 -42,50 -99,82 -57,33 -124,70 -167,106 56,-6 167,-121 140,-57 21,-43 64,-64 113,-87 48,-26 103,-55 147,-106l5 24c16,-14 47,-46 78,-68 0,0 -10,16 -20,32 -10,17 -21,32 -21,32 38,-40 82,-66 128,-89 46,-23 93,-45 128,-83 -171,129 -55,7 -138,46 50,-44 83,-69 110,-85 27,-16 47,-22 69,-28 44,-12 94,-21 203,-128 -28,30 -124,91 -83,41 45,-35 109,-77 142,-94 138,-145 -38,5 12,-66 67,-28 61,-76 109,-147l19 15c80,-80 78,-100 76,-117 -2,-17 -5,-32 63,-106l-26 88 58 -89 8 33c27,-53 43,-87 64,-118 21,-31 45,-60 76,-107 -28,14 -30,-35 20,-120 43,-53 2,45 63,-82 -1,35 1,76 -49,119 3,9 -3,34 0,43 54,-54 90,-161 115,-206 -10,17 -22,37 -31,47 0,0 4,-13 10,-31 7,-19 14,-43 20,-69 14,-49 27,-99 27,-99 21,-26 17,0 13,26 16,-39 17,-70 36,-127 12,21 33,26 8,109 0,0 4,-11 9,-29 5,-18 11,-42 17,-66 13,-47 25,-95 25,-95 13,-9 53,-88 53,-61 22,-51 35,-117 43,-188 5,-36 10,-72 18,-108 5,-36 13,-72 24,-106 -2,-9 -2,-24 1,-54 16,-66 30,-128 46,-193 11,-65 19,-135 14,-215l40 -88c1,-125 -51,119 -51,-88 -7,-147 31,-54 42,-105 -7,-37 -20,-87 -29,-144 -8,-58 -12,-123 -3,-190 9,44 7,79 10,120zm-346 -1482l0 0c18,24 52,74 48,99 -38,-21 -34,-50 -48,-99zm-1559 -1657l0 0c22,5 49,27 76,55 -25,-13 -50,-31 -76,-55zm-5449 1575l0 0c0,-1 1,-2 1,-3 41,-48 25,-32 -1,3zm-76 106l0 0c-4,12 0,13 5,10 0,-11 15,-36 33,-63 -10,4 -22,17 -38,53zm5171 4640l0 0 26 -4c-50,28 -38,16 -26,4z"/>
  <path class="fil0" d="M6405 702c4,9 4,14 3,18 11,4 14,0 -3,-18z"/>
  <path class="fil0" d="M8005 4678l-1 5c1,2 2,4 3,5l-2 -10z"/>
  <path class="fil0" d="M1944 678c26,-12 42,-17 53,-19 -2,-5 -15,-3 -53,19z"/>
  <path class="fil0" d="M400 2905l22 -79c-12,37 -22,49 -32,67 5,0 18,-13 10,12z"/>
  <path class="fil0" d="M112 3585c2,12 -2,26 0,39l12 -3c3,-53 -4,-91 -12,-36z"/>
  <path class="fil0" d="M303 2954c-21,1 -31,53 -42,111l2 -10c22,23 30,-39 40,-101z"/>
  <path class="fil0" d="M258 3078c-3,18 -7,36 -12,53 9,10 7,-20 12,-53z"/>
  <path class="fil0" d="M577 2418c-18,22 14,27 0,37 7,38 60,-175 0,-37z"/>
  <polygon class="fil0" points="226,2981 256,2968 246,2930 "/>
  <path class="fil0" d="M405 2545l-43 85c4,0 2,12 -2,27 23,-54 52,-111 45,-112z"/>
  <path class="fil0" d="M360 2657c-12,28 -24,55 -25,72 5,-16 18,-48 25,-72z"/>
  <polygon class="fil0" points="257,2854 272,2829 296,2766 "/>
  <path class="fil0" d="M954 1685c0,0 15,-22 32,-42 15,-21 31,-41 31,-41 1,-14 -22,4 -45,35 -12,23 -34,55 -18,48z"/>
  <path class="fil0" d="M708 1895c21,-21 26,-19 42,-27l-22 -21 -20 48z"/>
  <path class="fil0" d="M890 1646c-1,-15 82,-132 -5,-30 0,14 -61,101 5,30z"/>
  <polygon class="fil0" points="2128,666 2105,680 2133,721 "/>
  <path class="fil0" d="M3400 59c-127,15 -23,36 -138,47 -26,19 94,-9 67,8 71,-31 113,-29 71,-55z"/>
  <path class="fil0" d="M3329 114c-12,4 -24,10 -37,16 21,-8 31,-13 37,-16z"/>
  <path class="fil0" d="M1318 6186c0,0 -14,-13 -29,-27 -14,-13 -28,-27 -28,-27 0,0 8,11 15,22 8,10 16,21 16,21l26 11z"/>
  <path class="fil0" d="M1176 6126l5 -36 -55 -6c15,9 43,28 50,42z"/>
  <path class="fil0" d="M7687 2009l-9 -2c-2,15 7,32 23,68l-14 -66z"/>
  <polygon class="fil0" points="8026,3078 8023,3059 8002,3100 "/>
  <path class="fil0" d="M8135 4014c2,-39 -3,-84 -1,-123 3,85 -35,132 1,123z"/>
  <path class="fil1" d="M3145 3507c0,241 -74,436 -164,436 -90,0 -163,-195 -163,-436 0,-241 73,-436 163,-436 90,0 164,195 164,436z"/>
  <path class="fil0" d="M3184 3505c0,3 7,2 8,2 -2,-5 -9,-2 -8,-2z"/>
  <polygon class="fil0" points="3168,3456 3171,3456 3163,3449 "/>
  <path class="fil0" d="M3165 3410c-11,5 3,16 -1,25l-2 1 9 3c-2,-10 -8,-22 -6,-29z"/>
  <path class="fil0" d="M3188 3382c-5,2 -5,-5 -1,6 0,0 0,0 1,-1 0,-1 0,-2 0,-5z"/>
  <path class="fil0" d="M3188 3387c1,5 3,-4 0,0z"/>
  <path class="fil0" d="M3183 3365l5 6c2,-2 2,-8 4,-6 -3,-7 -5,-5 -9,0z"/>
  <path class="fil0" d="M3173 3360l3 3c1,-1 1,-2 -3,-3z"/>
  <path class="fil0" d="M3180 3369l-4 -6c-2,1 -6,1 1,3 -3,0 0,1 3,3z"/>
  <path class="fil0" d="M3179 3374c-2,3 -3,8 -8,2 3,12 11,10 8,-2z"/>
  <path class="fil0" d="M3153 3408l-3 5 4 4c-2,-2 2,-9 -1,-9z"/>
  <path class="fil0" d="M3183 3323c-3,0 -6,3 -9,4l3 5c2,-3 2,-8 6,-9z"/>
  <path class="fil0" d="M3174 3327l-6 -6c1,6 3,7 6,6z"/>
  <polygon class="fil0" points="3160,3360 3171,3371 3160,3358 "/>
  <polygon class="fil0" points="3178,3295 3185,3298 3175,3293 "/>
  <path class="fil0" d="M3173 3277c6,2 7,-6 11,-3 -2,-5 -7,-8 -11,-11 2,3 3,8 0,14z"/>
  <path class="fil0" d="M3166 3258c1,1 4,3 7,5 -2,-2 -4,-4 -7,-5z"/>
  <path class="fil0" d="M3167 3309c2,-1 5,-3 6,-7l-6 4 0 3z"/>
  <path class="fil0" d="M3167 3306l0 0c-1,-3 -1,-5 -1,-6 0,0 0,2 1,6z"/>
  <path class="fil0" d="M3167 3309l0 0c0,0 -1,0 0,0z"/>
  <path class="fil0" d="M3164 3341c-4,-4 -10,-12 -14,-3 5,3 7,-3 14,3z"/>
  <path class="fil0" d="M3159 3314l0 8c2,0 4,-2 7,0l-7 -8z"/>
  <polygon class="fil0" points="3156,3311 3159,3314 3159,3311 "/>
  <path class="fil0" d="M3162 3272c-3,-2 -4,-6 -6,-10 0,5 0,10 1,14 2,0 7,1 5,-4z"/>
  <path class="fil0" d="M3164 3289c0,0 0,-1 0,-1 -1,1 -1,1 0,1z"/>
  <polygon class="fil0" points="3146,3223 3145,3224 3146,3224 "/>
  <path class="fil0" d="M3156 3277c-1,3 2,5 4,6 -1,-2 -2,-5 -3,-7 -1,0 -2,0 -1,1z"/>
  <path class="fil0" d="M3160 3247c-1,2 -2,5 -2,7 1,-2 4,-6 2,-7z"/>
  <path class="fil0" d="M3165 3287l1 0c1,-1 0,-1 -1,0z"/>
  <path class="fil0" d="M3165 3287c-1,-2 -3,-3 -5,-4 1,2 2,4 4,5 0,0 1,-1 1,-1z"/>
  <path class="fil0" d="M3099 3225c7,-2 15,4 10,13 7,6 26,-4 36,-14 -3,0 -5,1 -11,-5 -3,4 -4,18 -11,14 -6,-8 0,-8 2,-14 -7,6 -16,-8 -26,-2l7 6c-2,1 -6,-1 -7,2z"/>
  <path class="fil0" d="M3148 3238l2 3c0,-4 2,-7 5,-13 -4,-4 -7,-5 -9,-4l3 15 -1 -1z"/>
  <path class="fil0" d="M3153 3255c-7,-1 -12,-7 -18,-1 3,8 7,5 11,9 -5,-14 5,3 7,-8 1,2 2,5 3,7 0,-3 1,-5 2,-8l-1 0 0 0 0 0c0,1 -1,2 -1,1l0 0c-1,0 -2,0 -3,0 1,-5 2,-2 3,0l1 -1 0 0 -7 -13c0,3 1,7 3,14z"/>
  <path class="fil0" d="M3133 3333c1,0 1,0 2,-1 -1,0 -2,-1 -2,1z"/>
  <path class="fil0" d="M3137 3327c1,1 4,1 4,4 -2,4 -4,1 -6,1 2,2 6,7 8,0l-1 -1c2,-6 9,-15 10,-14 -6,3 -10,5 -15,10z"/>
  <path class="fil0" d="M3144 3291l-6 -11 -5 7 4 -1c0,7 4,5 7,5z"/>
  <polygon class="fil0" points="3149,3220 3156,3220 3144,3216 "/>
  <polygon class="fil0" points="3143,3205 3149,3204 3144,3201 "/>
  <path class="fil0" d="M2869 3669l2 3c-1,-1 -2,-2 -2,-3z"/>
  <path class="fil0" d="M2866 3645l-4 0c2,1 4,1 4,0z"/>
  <path class="fil0" d="M2830 3177c-8,3 -19,6 -11,8l7 1c0,-4 2,-7 4,-9z"/>
  <path class="fil0" d="M2821 3445l2 -1c-2,-2 -4,-3 -6,-4l4 5z"/>
  <path class="fil0" d="M2850 3450l-5 6c2,-1 4,-3 5,-6z"/>
  <path class="fil0" d="M2907 3793l8 1c-2,-6 -5,-2 -8,-1z"/>
  <path class="fil0" d="M3045 3054c-3,-6 -7,-9 -11,-12 5,8 6,16 11,12z"/>
  <path class="fil0" d="M2793 3671c1,2 3,2 4,2 -1,-2 -3,-3 -4,-2z"/>
  <path class="fil0" d="M3016 3034c1,1 2,2 3,3 5,1 10,2 15,5 -4,-5 -10,-10 -18,-8z"/>
  <path class="fil0" d="M3089 3687l1 -1c-1,-1 -1,0 -1,1z"/>
  <path class="fil0" d="M3175 3551c0,1 0,3 0,6 1,-1 1,-3 0,-6z"/>
  <path class="fil0" d="M3120 3141c2,3 1,0 0,0z"/>
  <path class="fil0" d="M3102 3169c-1,-1 -2,-1 -4,0 2,-1 3,-1 4,0z"/>
  <path class="fil0" d="M2971 3074l-1 0c1,1 1,1 1,0z"/>
  <path class="fil0" d="M3120 3148c0,-2 0,-4 0,-6 -1,1 -1,3 0,6z"/>
  <path class="fil0" d="M3122 3145c1,2 1,3 1,4 2,0 2,-1 -1,-4z"/>
  <path class="fil0" d="M3118 3137c1,2 1,4 2,5 0,0 0,-1 0,-1 0,-1 -1,-2 -2,-4z"/>
  <path class="fil0" d="M3008 3912c0,0 1,1 1,1 1,-4 0,-3 -1,-1z"/>
  <polygon class="fil0" points="2875,3281 2875,3280 2875,3281 "/>
  <path class="fil0" d="M2878 3293c-8,-7 -6,-9 -3,-12l-21 -1 24 13z"/>
  <path class="fil0" d="M2881 3725l5 -9c12,7 10,14 17,5 -22,4 -8,-28 -30,-25l4 -6c0,2 1,2 1,3 9,-12 -17,-4 -16,-18 1,-5 4,-8 7,-6l-7 -9c0,-3 4,-3 4,0l-4 -15 0 0c-3,-2 -9,-6 -12,-8 3,-4 3,2 5,0l-6 -8c5,-4 11,3 11,9 21,-11 -6,-7 5,-25l4 7c12,-6 7,-12 14,-22 -4,3 -18,20 -25,12 2,-3 2,-7 -3,-11 8,-1 6,-6 5,-12l10 0c-3,-7 -8,-6 -13,-9 0,-8 8,-10 15,-12 1,-12 -12,9 -15,-5 3,-10 -1,-17 -8,-28 4,-7 7,1 10,-2l-9 -6c0,-1 3,-1 4,-1 -3,-5 -10,0 -13,-8 -12,-2 17,-17 4,-27 3,-3 6,1 10,1 -8,-14 -6,-12 -17,-24l7 -10c-8,7 -17,-2 -24,-11 -4,2 -7,4 -9,6l-5 -14c2,-1 5,0 10,3l-3 -3c4,-4 10,-1 16,2l-7 5c6,3 13,6 19,6 -1,-1 -2,-2 -2,-4 2,1 3,1 4,1 1,0 -1,-2 -4,-4l12 -2 -4 -1 8 -16c-11,-13 -27,-25 -30,-45 8,6 14,3 24,4 -11,4 3,15 0,25 2,-5 6,-4 8,-2l-8 -19c8,2 6,-3 10,-7 -16,2 -9,-14 -13,-22 6,0 11,3 9,11 13,-7 -18,-15 -6,-23 0,3 -1,4 1,5 -4,-6 2,-17 6,-14l0 2c4,-13 8,-41 -5,-46 2,0 16,5 18,6 0,0 -10,-8 -20,-17 -10,-9 -20,-18 -20,-18 12,5 41,4 45,16 2,-2 5,-6 3,-14 -2,2 -18,2 -19,-2 16,-5 9,-4 23,-11 -4,3 -21,-6 -19,-11 3,2 18,5 20,7l-14 -18c2,4 14,5 20,4 -4,0 4,-10 4,-14l-6 4c7,-13 -20,-23 -13,-37 3,3 20,13 25,7 -8,-7 -36,-33 -35,-49l6 0 -1 -13c9,14 27,43 35,56 6,-3 6,1 9,-6 6,-1 5,6 4,9 0,-1 11,-15 11,-15 -10,-4 -3,-17 -11,-21 -1,0 0,23 0,23 -10,-4 -23,-25 -13,-36 5,-1 15,12 19,14 -3,-3 0,-14 3,-14l2 8c7,-4 -6,-18 8,-18 2,-2 15,2 11,-2 -12,-5 -43,-29 -48,-38 1,-1 23,-6 29,-4 10,4 10,23 19,27 -2,-3 -2,-7 -2,-9 3,0 5,8 8,3 -5,-9 11,-5 -3,-9 3,-6 6,-2 12,-5 -5,-5 -4,-26 5,-30 0,3 2,6 4,8 7,-1 13,0 18,3 5,1 9,4 15,7 0,3 4,8 0,11 2,-1 5,-4 9,-2 0,13 -8,-3 -9,10 3,-5 12,-3 19,-2 5,-9 -10,-9 -16,-9 6,-12 24,-19 41,-12 12,7 -2,10 1,11 14,19 33,0 37,23 -3,12 -15,10 -19,15 -8,-7 -4,-16 -9,-21l2 9c-4,-1 -10,-4 -10,-9 -2,10 21,32 22,51 4,1 9,4 11,1l-4 -5c4,-8 14,5 14,-3 8,5 19,10 19,21l-9 6c3,-1 3,-9 -1,-10 6,2 -6,20 8,19l3 -9c8,5 22,10 22,21 8,-8 -2,-2 7,-13 -12,11 -9,-23 -20,-9 10,-11 1,-13 8,-27 -3,2 -4,6 -7,-2 -1,0 -2,-1 -3,-1l0 0 0 0c-1,0 -1,0 0,0 -1,3 -2,5 -3,6 -9,0 -14,-12 -20,-14 -1,-5 4,0 6,-4l-8 -3c6,-4 4,-18 14,-10l-6 -9c0,-8 -3,-17 -9,-20 -2,-5 -15,-6 -8,-6 0,0 -14,-11 -15,-11l1 -1c-14,-15 -34,-18 -53,-39 -8,-1 -16,-1 -29,-4l-3 -7c-10,0 -34,-4 -37,4 -7,-6 -22,-2 -32,5 -11,8 -20,18 -26,22l5 7c-8,7 -13,15 -17,27l6 4c-2,11 -19,16 -26,30 -2,-2 1,-5 4,-7 -24,8 -7,38 -24,47 1,4 -1,7 -3,8 0,0 0,0 0,-1l-1 2c-2,1 -4,2 -6,3 2,0 4,-1 6,-2 -1,2 -2,7 -2,12l-8 -1c0,0 0,0 0,1 -4,3 2,4 8,4 1,3 2,5 3,7 -13,-1 0,12 -14,12 5,5 -2,22 11,28 -2,0 -3,1 -2,-1 -3,4 -6,8 -3,13l-10 -1 10 13c-7,5 -11,7 -17,-1 8,17 1,13 10,28l-6 -2c-1,4 6,13 0,15 -14,7 -10,48 -24,72 19,-2 -10,11 5,14 -5,1 -8,4 -11,0 3,14 -9,19 2,29 -4,2 -6,-3 -9,-2 1,1 4,5 1,6 -3,1 -4,-2 -6,-5 0,14 14,16 27,18 -6,6 -6,10 2,15 -4,2 -9,6 -10,-2 -1,4 -7,28 3,29 -2,1 0,7 1,8 -1,10 -2,11 -1,21l1 -2c13,4 3,8 5,16l-1 0c-9,19 4,8 -6,27l8 -1c17,1 -9,17 -2,28l4 -5c6,6 -22,18 -24,25 -1,1 -2,-2 -3,-4 -9,17 10,1 13,13 -5,3 -14,-2 -14,6 -4,5 20,22 10,34 4,-3 8,-6 12,-1 3,8 -13,25 1,30 -1,1 -2,2 -3,2 4,6 9,20 17,22 -26,11 21,37 -4,42l6 19 -2 0c1,13 8,16 15,18 -1,4 -3,2 -5,2 0,20 2,21 19,32l-7 4c5,3 -2,31 14,44 -1,1 -3,1 -4,0 16,14 5,58 35,49l14 7c-9,-16 12,-5 11,-14 6,4 4,19 -2,14l0 -2c-14,7 11,20 4,27 14,14 32,27 54,34 23,8 49,3 69,-6l-10 -9c1,1 12,-6 12,-6 5,0 10,5 1,10 8,3 11,-14 9,-16 18,-8 3,16 7,12 0,0 7,-6 6,-6l-2 0c2,-8 -2,-12 7,-19 6,-4 8,2 10,0 1,1 2,1 3,-3l11 -12 -12 0c1,-9 9,-12 -3,-12 20,1 33,-44 39,-48 -2,-11 1,-19 6,-28 -3,1 -13,-1 -9,-9 20,11 15,-13 32,-15 -12,3 6,-26 -12,-20 4,-7 8,2 15,-3 -3,-20 15,-38 17,-61 -2,-1 -7,2 -11,-4l17 -9c-1,-4 -16,-7 -5,-13 -2,1 -6,2 -7,-1 22,-42 1,-90 29,-133 -5,5 -6,1 -6,-3 -1,3 -7,-1 -11,0l12 -19c-11,-3 -1,-20 -11,-22l2 6c-12,-8 -28,11 -43,9 13,9 -21,22 -2,36 -4,3 -5,-3 -9,-1 7,4 8,8 4,16l-1 -1c0,22 -8,31 -15,55l8 -1c-2,5 -4,6 -6,8 11,7 2,-15 14,-8 -16,5 -5,37 -23,39 -2,8 9,-1 7,7l-5 2 6 3c-2,5 -8,6 -12,6 0,-1 -1,-4 -1,-5 -7,5 -2,19 -4,21l5 -7c0,22 -13,46 -9,69l4 0c2,17 -8,11 -11,28l0 0c2,4 3,9 0,14 -2,-6 -11,4 -13,-3 0,19 2,10 10,26l-6 0c3,6 5,7 3,16 -2,-9 -11,1 -14,-9 -19,9 -1,29 -21,26 9,16 15,-8 16,-2 7,-1 7,12 3,16 -4,5 -24,-4 -31,6 1,-1 0,-2 1,-3 -6,1 -2,11 -11,10 4,10 -5,4 2,14 0,1 6,-10 6,-10 -1,8 2,24 -12,24 0,-3 1,-8 1,-11 -4,-1 -3,6 -8,4 -5,-11 10,-9 8,-21 -5,-2 -3,14 -9,1 6,18 -8,2 -8,17l-2 -8c0,2 -1,5 -3,6l1 -10c-3,8 -7,-6 -8,-3 5,1 0,10 3,15 -13,9 -3,-20 -11,-19 1,-1 2,6 -1,8 -1,-2 -3,-5 -2,-10 -7,-4 -3,7 -9,9 3,-10 -6,1 -12,-1l5 -6c-6,-13 -14,10 -19,-5 0,0 12,-2 12,-3 0,1 -6,-3 -6,-3l7 -5c-9,-1 -10,-4 -12,-11 -3,4 -12,7 -16,1 2,-7 8,-2 2,-10 5,0 12,-2 8,6 2,-1 5,-1 7,-2 2,-7 -5,-11 -7,-14 0,1 1,3 0,4 0,1 -16,-7 -16,-7 2,-4 5,-3 7,-3 -2,-2 -6,-2 -8,-6 6,-2 12,-5 17,-1l-12 -9c2,-2 4,-9 7,-9 1,-8 -19,-12 -18,-24 -1,0 -3,-1 -4,-3 -2,-10 2,-20 -9,-29l9 -10c-5,-8 -11,13 -20,-1 -6,-10 9,-6 11,-11 -7,-4 -21,-10 -14,-22 3,2 2,5 3,8zm-23 -115l0 0c2,2 8,6 3,8 -9,-2 -5,-4 -3,-8zm-21 -182l0 0c3,2 1,4 -2,7 0,-2 0,-4 2,-7zm258 -319l0 0 -1 0c0,-7 0,-4 1,0zm3 12l0 0c2,1 3,0 4,-1 -3,1 -4,-2 -5,-5 -2,2 -2,4 1,6zm-28 807l0 0 -3 1c1,-6 2,-3 3,-1z"/>
  <path class="fil0" d="M2847 3449c-2,1 -3,1 -5,1 2,1 3,1 5,-1z"/>
  <polygon class="fil0" points="2905,3793 2905,3793 2907,3793 "/>
  <path class="fil0" d="M2952 3116c-2,1 -3,0 -5,0 1,1 3,2 5,0z"/>
  <path class="fil0" d="M3139 3174l-5 -6c2,3 0,5 0,7 2,-1 4,-3 5,-1z"/>
  <path class="fil0" d="M3112 3250c1,1 1,2 2,3l4 -1c-2,-4 -5,-7 -6,-2z"/>
  <path class="fil0" d="M3117 3190c-6,3 -3,6 0,11l0 -1c9,-2 5,-6 0,-10z"/>
  <path class="fil0" d="M3118 3202c1,1 1,3 2,4 3,0 0,-2 -2,-4z"/>
  <path class="fil0" d="M3110 3133c0,3 8,-2 7,0 8,-1 -17,-11 -7,0z"/>
  <polygon class="fil0" points="3098,3202 3105,3197 3098,3197 "/>
  <path class="fil0" d="M3088 3163l1 8c2,0 3,0 4,1 -2,-5 -3,-10 -5,-9z"/>
  <path class="fil0" d="M3093 3172c1,2 2,5 3,5 0,-1 -1,-3 -3,-5z"/>
  <polygon class="fil0" points="3091,3192 3092,3190 3091,3184 "/>
  <path class="fil0" d="M3040 3090c0,0 -8,-4 -8,-4 -2,2 -1,4 1,6 3,0 6,1 7,-2z"/>
  <path class="fil0" d="M3041 3124c0,-2 1,-4 2,-6l-8 6 6 0z"/>
  <path class="fil0" d="M3024 3109c-3,1 -13,-1 -6,5 2,-2 9,2 6,-5z"/>
  <polygon class="fil0" points="2925,3104 2926,3102 2914,3091 "/>
  <path class="fil0" d="M2907 3215c7,-7 -9,-6 -1,-12 -3,-3 -7,5 -9,2 2,7 -2,9 10,10z"/>
  <path class="fil0" d="M2897 3205c0,-1 -1,-2 -1,-4 0,2 0,3 1,4z"/>
  <polygon class="fil0" points="3184,3526 3188,3519 3182,3524 "/>
  <path class="fil0" d="M3172 3513l11 -2 -10 -4c1,2 2,5 -1,6z"/>
  <path class="fil0" d="M2878 3591l-3 -1c-2,2 -2,3 -3,6l6 -5z"/>
  <polygon class="fil0" points="2880,3675 2880,3674 2871,3678 "/>
  <path class="fil0" d="M2906 3741c0,-3 -3,-5 -3,-8 3,5 -8,12 3,8z"/>
  <path class="fil1" d="M5207 3507c0,241 74,436 164,436 90,0 163,-195 163,-436 0,-241 -73,-436 -163,-436 -90,0 -164,195 -164,436z"/>
  <path class="fil0" d="M5247 3505c-1,3 6,2 8,2 -2,-4 -10,-2 -8,-2z"/>
  <polygon class="fil0" points="5233,3458 5235,3459 5229,3451 "/>
  <path class="fil0" d="M5236 3414c-13,3 0,16 -4,23l-3 1 9 5c-1,-10 -6,-23 -2,-29z"/>
  <path class="fil0" d="M5263 3393c-5,1 -3,-5 -2,5 1,0 1,-1 1,-1 0,-1 0,-2 1,-4z"/>
  <path class="fil0" d="M5262 3397c0,5 4,-2 0,0z"/>
  <path class="fil0" d="M5262 3376l3 6c3,0 4,-6 6,-3 -1,-7 -4,-6 -9,-3z"/>
  <path class="fil0" d="M5254 3369l2 4c1,-1 1,-1 -2,-4z"/>
  <path class="fil0" d="M5258 3380l-2 -7c-2,0 -6,0 1,3 -4,-1 -1,1 1,4z"/>
  <path class="fil0" d="M5256 3383c-3,3 -5,7 -8,1 0,12 9,11 8,-1z"/>
  <path class="fil0" d="M5224 3410l-4 5 3 4c-1,-2 5,-9 1,-9z"/>
  <path class="fil0" d="M5273 3340c-2,0 -7,1 -10,1l2 5c2,-2 5,-6 8,-6z"/>
  <path class="fil0" d="M5263 3341l-3 -7c-1,6 0,7 3,7z"/>
  <polygon class="fil0" points="5242,3367 5249,3379 5242,3365 "/>
  <polygon class="fil0" points="5278,3316 5283,3321 5276,3312 "/>
  <path class="fil0" d="M5280 3300c4,3 9,-2 11,1 0,-4 -3,-9 -6,-13 2,4 0,8 -5,12z"/>
  <path class="fil0" d="M5282 3281c0,2 2,4 3,7 0,-2 -1,-4 -3,-7z"/>
  <path class="fil0" d="M5263 3323c2,0 6,0 8,-4l-7 2 -1 2z"/>
  <path class="fil0" d="M5264 3321l0 0c1,-3 1,-5 1,-6 0,1 0,2 -1,6z"/>
  <path class="fil0" d="M5263 3324l0 -1c0,0 -1,0 0,1z"/>
  <path class="fil0" d="M5250 3350c-3,-4 -6,-13 -13,-6 4,3 8,-1 13,6z"/>
  <path class="fil0" d="M5254 3325l-3 7c2,0 5,-1 6,2l-3 -9z"/>
  <polygon class="fil0" points="5252,3322 5254,3325 5255,3323 "/>
  <path class="fil0" d="M5273 3291c-3,-3 -2,-7 -2,-10 -2,3 -4,7 -5,11 2,1 6,3 7,-1z"/>
  <path class="fil0" d="M5267 3305l0 -1c-1,1 -1,1 0,1z"/>
  <polygon class="fil0" points="5281,3245 5279,3246 5280,3246 "/>
  <path class="fil0" d="M5265 3292c-2,3 -1,5 1,7 0,-2 0,-5 0,-7 -1,-1 -1,-1 -1,0z"/>
  <path class="fil0" d="M5281 3271c-2,1 -4,2 -5,4 2,-1 6,-3 5,-4z"/>
  <path class="fil0" d="M5269 3304l0 0c2,0 1,0 0,0z"/>
  <path class="fil0" d="M5269 3304c0,-2 -2,-3 -3,-5 0,2 0,4 1,5 1,0 2,0 2,0z"/>
  <path class="fil0" d="M5241 3221c6,3 9,12 1,17 3,8 24,10 37,8 -2,-1 -5,-2 -7,-10 -4,1 -12,13 -16,5 -1,-10 4,-7 9,-10 -9,1 -7,-15 -19,-17l1 10c-2,-1 -3,-5 -6,-3z"/>
  <path class="fil0" d="M5275 3258l0 3c2,-3 5,-4 11,-7 -2,-5 -4,-7 -6,-8l-4 13 -1 -1z"/>
  <path class="fil0" d="M5272 3273c-7,-4 -8,-11 -16,-9 -2,8 4,7 6,13 1,-14 3,5 9,-4 0,3 0,5 0,8 1,-3 3,-5 5,-6l-1 0 0 0 0 0c-1,0 -1,0 -1,0l0 -1c-1,0 -2,0 -2,-1 2,-3 2,0 2,1l1 1 0 0 0 -14c-2,2 -2,6 -3,12z"/>
  <path class="fil0" d="M5223 3334c1,0 1,0 2,0 -1,-1 -1,-2 -2,0z"/>
  <path class="fil0" d="M5228 3329c1,1 4,2 3,6 -3,2 -4,-1 -6,-1 1,2 4,7 8,2l-1 -1c4,-5 14,-11 14,-10 -6,1 -11,1 -18,4z"/>
  <path class="fil0" d="M5248 3299l-1 -12 -7 5 3 0c-2,7 2,6 5,7z"/>
  <polygon class="fil0" points="5284,3245 5291,3249 5283,3240 "/>
  <polygon class="fil0" points="5288,3231 5294,3234 5291,3229 "/>
  <path class="fil0" d="M5560 3681l1 4c0,-2 0,-3 -1,-4z"/>
  <path class="fil0" d="M5564 3655l-3 -1c2,2 3,3 3,1z"/>
  <path class="fil0" d="M5446 3207c-4,7 -11,15 -4,12l6 -4c-2,-3 -3,-5 -2,-8z"/>
  <path class="fil0" d="M5534 3445l2 -2c-2,-1 -5,-2 -7,-3l5 5z"/>
  <path class="fil0" d="M5564 3447l-4 7c1,-2 2,-4 4,-7z"/>
  <path class="fil0" d="M5533 3824l5 7c2,-7 -2,-5 -5,-7z"/>
  <path class="fil0" d="M5351 3118c4,1 6,0 8,0 -5,-2 -10,-5 -8,0z"/>
  <path class="fil0" d="M5487 3660c1,2 2,4 4,4 -1,-3 -2,-4 -4,-4z"/>
  <path class="fil0" d="M5364 3116c-1,-1 -1,-1 -2,-1 -1,1 -2,3 -3,3 3,2 5,3 5,-2z"/>
  <path class="fil0" d="M5183 3701c0,-1 1,-1 1,-2 -1,0 -1,1 -1,2z"/>
  <path class="fil0" d="M5239 3548c1,2 1,4 1,6 0,-1 0,-3 -1,-6z"/>
  <path class="fil0" d="M5312 3181c-1,2 0,0 0,0z"/>
  <path class="fil0" d="M5280 3182c0,-1 -1,-2 -3,-3 2,1 3,2 3,3z"/>
  <path class="fil0" d="M5382 3071l0 1c-1,-2 -1,-2 0,-1z"/>
  <path class="fil0" d="M5307 3183c1,-1 2,-1 3,-2 0,0 -2,1 -3,2z"/>
  <path class="fil0" d="M5310 3184c-1,1 -1,1 -2,2 1,1 2,1 2,-2z"/>
  <path class="fil0" d="M5313 3177c-1,1 -2,3 -3,4 1,-1 2,0 2,0 0,-1 0,-2 1,-4z"/>
  <path class="fil0" d="M5320 3949c0,-1 0,-1 0,-1 -5,0 -3,0 0,1z"/>
  <polygon class="fil0" points="5541,3266 5540,3265 5540,3266 "/>
  <path class="fil0" d="M5549 3276c-10,-3 -10,-6 -9,-10l-19 8 28 2z"/>
  <path class="fil0" d="M5550 3744l8 -8c8,13 3,20 14,14 -22,-6 5,-34 -17,-40l5 -4c0,1 1,2 1,3 12,-9 -15,-11 -9,-24 3,-4 6,-7 8,-4l-4 -11c1,-3 5,-2 4,1l0 -17 1 0c-3,-2 -8,-8 -10,-11 4,-4 2,2 5,1l-4 -9c6,-3 11,5 9,11 24,-6 -4,-8 10,-25l2 9c13,-5 10,-12 18,-21 -4,2 -21,18 -26,7 2,-2 3,-6 -1,-12 8,1 7,-5 7,-11l10 1c-2,-7 -8,-7 -12,-12 1,-7 9,-9 16,-10 3,-13 -13,8 -14,-7 4,-11 0,-18 -6,-31 4,-7 7,2 10,-1l-9 -7c1,-1 3,-1 5,0 -4,-6 -11,-1 -14,-10 -11,-2 17,-17 4,-28 3,-3 6,1 10,0 -8,-14 -6,-12 -18,-24l7 -10c-8,8 -18,-2 -26,-9 -3,3 -7,5 -8,6l-6 -12c1,-2 5,-1 9,1l-2 -2c3,-5 9,-3 15,0l-6 5c7,3 14,6 20,5 -1,-1 -2,-3 -3,-4 2,0 3,1 4,0 1,0 -1,-1 -4,-3l12 -4 -5 -1 6 -18c-12,-11 -31,-21 -37,-39 9,3 14,-1 24,-2 -11,7 6,15 4,26 1,-6 6,-5 8,-4l-12 -17c9,-1 6,-5 9,-10 -16,5 -13,-13 -19,-19 6,-2 12,0 11,9 11,-12 -20,-10 -11,-22 0,2 -1,4 2,4 -5,-4 -3,-17 2,-15l0 2c0,-15 -8,-45 -22,-44 2,0 17,-1 20,-1 0,0 -13,-4 -26,-8 -13,-4 -26,-7 -26,-7 12,-1 38,-16 47,-6 1,-4 2,-9 -4,-15 -1,3 -15,10 -17,7 10,-12 5,-7 13,-21 -1,4 -20,5 -21,0 3,0 17,-6 20,-5l-22 -8c4,2 15,-4 19,-9 -3,3 -4,-12 -7,-15l-2 7c-3,-16 -29,-6 -34,-21 4,0 23,-4 22,-13 -10,0 -48,2 -60,-5l4 -5 -10 -6c15,-2 50,2 65,7 1,-7 6,-4 1,-12 3,-6 9,1 10,4 1,0 -7,-22 -7,-22 -9,5 -17,-11 -25,-5 0,-1 21,16 21,16 -10,5 -33,1 -40,-12 2,-6 19,-8 22,-10 -5,0 -14,-9 -13,-12l9 3c-2,-10 -20,-4 -19,-19 -2,-3 4,-18 -2,-15 -5,14 -35,39 -44,43 1,-2 -2,-19 0,-27 2,-12 21,-11 23,-21 -2,2 -7,2 -9,2 -1,-5 8,-6 -1,-11 -8,8 -15,-11 -9,5 -9,-2 -6,-7 -17,-11 0,8 -17,18 -24,21 1,-3 0,-7 0,-9 -8,-1 -14,-3 -20,-3 -6,-1 -13,-1 -20,2 -2,-2 -11,-1 -10,-7 -2,3 -2,7 -5,10 -14,-2 8,-7 -4,-13 3,6 -7,15 -10,22 8,7 14,-7 18,-15 7,13 5,30 0,43 -4,10 -9,-3 -9,0 -16,13 8,27 -9,35 -11,0 -15,-10 -21,-12 2,-10 12,-9 16,-14l-8 4c-1,-4 1,-11 5,-12 -10,0 -23,29 -37,42 2,4 2,10 6,9l2 -5c8,-1 4,13 10,9 1,8 5,18 -2,26l-10 -3c3,1 8,-3 6,-7 3,5 -18,9 -8,18l9 -4c2,9 9,20 4,27 10,0 -1,-2 12,-4 -16,0 8,-19 -9,-17 15,-1 9,-8 23,-11 -3,-1 -7,0 -3,-5 0,-1 -1,-2 -2,-3l1 0 -1 0c0,0 0,0 0,0 -2,1 -4,2 -6,1 -5,-6 0,-16 -2,-21 3,-3 3,3 7,3l-3 -8c7,3 16,-3 15,7l5 -7c6,-1 10,-6 10,-11 3,-1 -1,-12 2,-6 0,0 3,-12 4,-12l1 2c7,-6 10,-26 23,-16 1,-3 3,-6 7,-4l1 6c2,-2 4,7 6,1 -1,9 0,9 3,10 3,2 9,2 10,6l6 -6c4,4 9,6 16,10l6 -5c9,2 6,18 12,27 -3,1 -3,-2 -3,-4 -7,19 25,20 19,38 4,1 4,4 3,7 0,0 0,-1 -1,-1l1 2c-1,1 -2,3 -2,5 1,-2 2,-3 2,-5 1,2 3,6 7,8l-7 5c0,0 0,0 0,0 -1,5 5,2 10,-2 2,1 4,3 6,3 -11,7 7,9 -4,17 7,0 10,17 24,15 -2,1 -2,2 -3,0 0,5 -1,9 4,12l-9 4 16 6c-5,8 -8,11 -17,7 15,11 7,10 21,19l-6 1c1,4 11,9 6,12 -10,12 7,47 -2,73 19,-7 -7,12 7,12 -4,2 -6,5 -10,2 5,12 -6,19 7,26 -4,2 -6,-2 -9,0 1,1 4,3 2,5 -3,1 -4,-2 -6,-4 1,13 15,13 28,13 -6,7 -5,11 4,15 -4,2 -8,6 -10,-2 0,5 -5,28 5,28 -2,2 -1,6 1,8 -1,10 -2,11 0,21l1 -3c13,4 3,8 4,16l-1 0c-9,18 4,8 -6,26l7 -1c17,2 -10,16 -4,26l4 -3c6,6 -23,15 -26,20 -1,1 -2,-2 -3,-4 -11,14 10,3 12,14 -6,2 -14,-4 -16,4 -5,3 16,23 4,32 5,-2 9,-4 12,2 0,8 -19,19 -7,28 -1,1 -2,1 -3,1 3,6 3,20 9,25 -27,0 6,40 -19,34l-3 19 -2 -2c-4,11 0,17 5,22 -3,3 -4,0 -6,-1 -9,16 -9,17 -1,35l-9 -1c4,5 -20,18 -17,36 -1,0 -3,-1 -3,-3 1,22 -39,26 -18,47l-1 13c12,-10 9,10 17,8 -3,6 -17,7 -14,0l2 0c-10,-11 -16,11 -24,3 -9,10 -21,13 -29,13 -9,1 -16,-5 -24,-8l-3 11c0,1 -7,-4 -7,-4 0,-4 4,-10 7,-6 2,-8 -10,-1 -12,1 -6,-11 12,-8 10,-11l-4 -2 0 2c-6,1 -10,5 -15,-1 -2,-5 4,-6 3,-8 0,-1 0,-1 -2,-3l-6 -9 -5 9c-7,-1 -6,-9 -11,2 7,-16 -19,-44 -17,-51 -9,-5 -12,-12 -15,-22 -1,3 -10,9 -12,0 21,-5 3,-18 16,-30 -8,9 -10,-22 -21,-9 0,-7 8,-2 11,-9 -13,-14 -4,-38 -11,-57 -3,0 -7,4 -12,1l12 -14c-2,-4 -17,-1 -8,-10 -2,1 -6,3 -7,1 7,-43 -23,-85 1,-129 -5,6 -6,2 -6,-2 -1,3 -7,0 -11,1l10 -18c-11,-3 -1,-19 -11,-21l2 6c-13,-8 -27,11 -43,10 14,8 -20,24 1,38 -3,3 -5,-3 -9,-1 7,3 9,8 6,16l-2 -1c3,23 -2,33 -4,60l8 -3c0,6 -3,7 -4,10 12,5 -2,-16 12,-11 -15,9 5,39 -12,46 2,9 9,-4 10,5l-4 3 6 1c0,6 -5,10 -9,11 0,-2 -2,-4 -3,-5 -4,8 6,20 5,23l1 -9c9,22 10,53 26,72l3 -3c11,15 0,15 9,32l-1 0c5,2 8,7 10,12 -6,-3 -4,11 -11,7 14,16 9,7 26,13l-4 5c7,2 9,1 15,9 -8,-5 -5,10 -16,5 -2,25 27,20 16,39 19,-1 -2,-21 4,-18 2,-6 15,0 17,6 3,6 -11,22 0,36 -1,-1 -2,0 -3,-2 1,8 14,6 15,17 10,-4 9,8 18,-1 0,0 -15,-9 -15,-9 10,5 26,-2 34,12 -2,2 -8,2 -12,2 2,6 9,3 12,8 -8,12 -20,-9 -35,-8 0,8 23,5 10,13 16,-10 19,14 38,7l-3 7c2,0 9,-3 13,-2l-11 8c15,-6 27,12 41,5 -28,3 -7,-8 -18,-14 29,-13 22,21 58,3 -5,3 -20,3 -14,-3 7,-1 16,-2 22,-1 18,-15 -8,-5 -2,-15 11,4 7,-8 10,-16l5 5c20,-12 -6,-15 10,-25 0,0 4,13 4,13 0,1 4,-9 4,-9l5 7c2,-13 6,-14 14,-21 -6,-1 -11,-9 -7,-17 7,-2 5,7 10,-4 3,5 7,11 -3,12 2,1 3,5 5,7 8,-3 10,-14 12,-18 -1,1 -2,3 -4,3 1,0 -1,-21 -1,-21 4,-1 5,2 6,5 1,-4 -1,-8 1,-13 5,4 11,7 10,15l2 -19c2,0 10,-5 11,-2 7,-7 -2,-26 6,-36 -1,-1 -1,-2 -1,-5 5,-11 16,-18 11,-34l13 -4c0,-11 -17,6 -16,-12 0,-13 11,-2 15,-5 -4,-8 -13,-21 -2,-30 1,4 -1,7 -1,11zm15 -127l0 0c1,2 6,8 1,9 -9,-4 -4,-6 -1,-9zm-17 -191l0 0c3,1 2,4 -1,7 -1,-2 -1,-4 1,-7zm-227 -275l0 0 0 -1c5,-2 3,-1 0,1zm-8 6l0 0c1,1 2,2 3,2 -2,-2 -1,-3 1,-5 -2,-1 -4,0 -4,3zm17 730l0 0 -1 3c-4,-2 -2,-2 1,-3z"/>
  <path class="fil0" d="M5560 3446c-1,1 -2,2 -4,2 1,1 3,1 4,-2z"/>
  <polygon class="fil0" points="5532,3823 5531,3823 5533,3824 "/>
  <path class="fil0" d="M5441 3067c2,3 2,5 1,7 2,-2 2,-4 -1,-7z"/>
  <path class="fil0" d="M5303 3209l0 -6c0,3 -2,3 -4,4 2,1 4,1 4,2z"/>
  <path class="fil0" d="M5238 3250c1,1 0,2 0,3l4 1c1,-4 -1,-8 -4,-4z"/>
  <path class="fil0" d="M5276 3206c-6,-2 -6,3 -6,7l0 0c9,4 7,-2 6,-7z"/>
  <path class="fil0" d="M5270 3215c0,1 -1,3 -1,4 3,2 1,-2 1,-4z"/>
  <path class="fil0" d="M5311 3170c-2,1 7,5 4,5 6,6 -3,-18 -4,-5z"/>
  <polygon class="fil0" points="5254,3202 5263,3203 5257,3198 "/>
  <path class="fil0" d="M5275 3168l-6 6c2,1 2,2 2,3 2,-4 6,-8 4,-9z"/>
  <path class="fil0" d="M5271 3177c-1,3 -2,5 -1,7 0,-2 1,-4 1,-7z"/>
  <polygon class="fil0" points="5256,3191 5258,3189 5261,3184 "/>
  <path class="fil0" d="M5322 3101c0,0 4,-7 5,-7 -2,-3 -5,-3 -6,1 0,2 -2,5 1,6z"/>
  <path class="fil0" d="M5288 3106c3,-1 4,0 7,1l-8 -7 1 6z"/>
  <path class="fil0" d="M5304 3084c-1,-3 6,-16 -3,-7 1,3 -5,12 3,7z"/>
  <polygon class="fil0" points="5433,3098 5431,3096 5420,3108 "/>
  <path class="fil0" d="M5528 3184c0,-12 -10,1 -10,-10 -4,-1 0,9 -4,8 6,5 5,9 14,2z"/>
  <path class="fil0" d="M5514 3182c-1,-1 -3,-1 -4,-2 2,1 3,2 4,2z"/>
  <polygon class="fil0" points="5248,3525 5251,3518 5246,3523 "/>
  <path class="fil0" d="M5235 3513l11 -2 -10 -4c0,2 1,5 -1,6z"/>
  <path class="fil0" d="M5588 3599l-2 0c-3,1 -4,2 -4,5l6 -5z"/>
  <polygon class="fil0" points="5569,3692 5569,3690 5559,3691 "/>
  <path class="fil0" d="M5564 3772c2,-3 1,-7 2,-10 0,7 -13,8 -2,10z"/>
  <path class="fil0" d="M3500 5057c-2,-2 -5,12 -6,14 6,-2 7,-17 6,-14z"/>
  <polygon class="fil0" points="3558,5037 3556,5042 3567,5030 "/>
  <path class="fil0" d="M3606 5046c0,-24 -18,1 -25,-9l0 -6 -8 18c11,-1 27,-11 33,-3z"/>
  <path class="fil0" d="M3621 5101c1,-10 8,-7 -5,-4 0,1 0,1 1,2 1,0 2,1 4,2z"/>
  <path class="fil0" d="M3617 5099c-6,0 2,8 0,0z"/>
  <path class="fil0" d="M3641 5099l-8 6c0,6 6,8 3,12 8,-3 7,-9 5,-18z"/>
  <path class="fil0" d="M3650 5083l-4 3c1,2 1,3 4,-3z"/>
  <path class="fil0" d="M3638 5092l8 -6c0,-4 1,-12 -3,2 1,-7 -1,-1 -5,4z"/>
  <path class="fil0" d="M3634 5087c-3,-5 -7,-10 1,-16 -13,0 -14,17 -1,16z"/>
  <path class="fil0" d="M3613 5023l-4 -8 -5 7c2,-3 8,8 9,1z"/>
  <path class="fil0" d="M3681 5119c1,-5 0,-14 0,-20l-6 4c2,4 7,8 6,16z"/>
  <path class="fil0" d="M3681 5099l9 -7c-6,-2 -8,1 -9,7z"/>
  <polygon class="fil0" points="3656,5058 3641,5073 3658,5058 "/>
  <polygon class="fil0" points="3709,5125 3703,5135 3713,5120 "/>
  <path class="fil0" d="M3728 5126c-4,9 3,17 -2,22 6,0 11,-8 16,-15 -4,3 -9,3 -14,-7z"/>
  <path class="fil0" d="M3751 5123c-3,2 -6,6 -9,10 3,-2 6,-5 9,-10z"/>
  <path class="fil0" d="M3702 5097c0,3 0,11 4,15l-1 -15 -3 0z"/>
  <path class="fil0" d="M3705 5097l0 0c3,1 5,2 6,2 -1,0 -2,-1 -6,-2z"/>
  <path class="fil0" d="M3701 5096l1 1c0,-2 0,-2 -1,-1z"/>
  <path class="fil0" d="M3673 5074c6,-7 16,-13 9,-27 -4,9 -1,17 -9,27z"/>
  <path class="fil0" d="M3700 5078l-7 -4c0,4 0,9 -2,13l9 -9z"/>
  <polygon class="fil0" points="3705,5075 3700,5078 3703,5080 "/>
  <path class="fil0" d="M3738 5109c5,-6 9,-6 13,-7 -4,-3 -9,-5 -13,-5 -1,4 -5,12 0,12z"/>
  <path class="fil0" d="M3722 5102l1 -1c0,-1 0,-1 -1,1z"/>
  <polygon class="fil0" points="3793,5105 3792,5103 3792,5105 "/>
  <path class="fil0" d="M3737 5094c-3,-3 -5,0 -8,4 3,-1 6,-1 9,-1 0,-2 1,-3 -1,-3z"/>
  <path class="fil0" d="M3763 5117c-1,-3 -3,-6 -5,-8 1,5 4,12 5,8z"/>
  <path class="fil0" d="M3724 5105l-1 1c1,3 1,2 1,-1z"/>
  <path class="fil0" d="M3724 5105c2,-1 4,-4 5,-7 -2,0 -4,2 -6,3 0,1 1,3 1,4z"/>
  <path class="fil0" d="M3814 5017c-2,13 -12,24 -18,10 -8,9 -8,52 -4,76 1,-6 2,-11 10,-18 -2,-7 -15,-18 -7,-29 10,-6 7,5 12,12 -3,-16 15,-22 15,-46l-10 8c1,-4 4,-9 2,-13z"/>
  <path class="fil0" d="M3778 5100l-4 2c4,2 6,8 9,18 7,-6 8,-11 9,-15l-16 -3 2 -2z"/>
  <path class="fil0" d="M3760 5101c4,-14 12,-20 9,-35 -9,0 -8,11 -14,17 16,-3 -5,7 5,16 -4,2 -6,3 -9,3 2,2 5,4 7,7l0 -1 0 0 0 0c-1,-2 -1,-3 0,-2l0 0c1,-2 1,-4 2,-5 4,3 0,3 -2,5l0 2 0 0 16 -6c-3,-3 -7,-2 -14,-1z"/>
  <path class="fil0" d="M3695 5019c0,1 0,2 0,3 1,-1 2,-3 0,-3z"/>
  <path class="fil0" d="M3700 5028c-2,2 -4,7 -7,5 -2,-4 1,-6 2,-11 -3,3 -9,9 -4,17l2 -2c5,6 10,25 8,26 1,-12 1,-22 -1,-35z"/>
  <path class="fil0" d="M3730 5062l13 -4 -5 -14 0 8c-7,-4 -7,5 -8,10z"/>
  <polygon class="fil0" points="3794,5112 3790,5127 3800,5107 "/>
  <polygon class="fil0" points="3810,5112 3809,5125 3814,5117 "/>
  <path class="fil0" d="M4651 4791l1 -5c-1,1 -1,3 -1,5z"/>
  <path class="fil0" d="M4629 4802l3 6c-1,-4 -2,-6 -3,-6z"/>
  <path class="fil0" d="M4222 5102c7,11 16,28 13,14l-4 -14c-3,4 -6,3 -9,0z"/>
  <path class="fil0" d="M4470 4955l-3 -3c0,5 0,9 1,13 0,-3 1,-6 2,-10z"/>
  <path class="fil0" d="M4453 4899l10 7c-3,-3 -6,-5 -10,-7z"/>
  <path class="fil0" d="M4757 4706l-6 -14c-4,4 2,8 6,14z"/>
  <path class="fil0" d="M3982 5117c4,5 8,7 12,8 -6,-8 -11,-20 -12,-8z"/>
  <path class="fil0" d="M4715 4927c1,-3 1,-6 -1,-9 -1,3 -1,6 1,9z"/>
  <path class="fil0" d="M4007 5124c-1,-1 -1,-2 -2,-3 -4,2 -7,4 -11,4 4,6 9,9 13,-1z"/>
  <path class="fil0" d="M5110 4372c1,0 1,0 2,0 -1,-1 -2,-1 -2,0z"/>
  <path class="fil0" d="M5312 4322c0,2 -1,4 -2,6 1,0 2,-2 2,-6z"/>
  <path class="fil0" d="M3877 5123c-3,1 0,2 0,0z"/>
  <path class="fil0" d="M3864 5066c1,-2 1,-4 2,-7 -1,4 -2,6 -2,7z"/>
  <path class="fil0" d="M4040 5034l0 0c-1,-2 -1,-2 0,0z"/>
  <path class="fil0" d="M3872 5116c2,2 3,4 5,5 -1,-1 -2,-3 -5,-5z"/>
  <path class="fil0" d="M3873 5123c-2,0 -3,-1 -3,-1 -1,2 -1,3 3,1z"/>
  <path class="fil0" d="M3882 5123c-2,0 -4,-1 -5,-2 0,1 0,2 0,2 1,0 3,0 5,0z"/>
  <path class="fil0" d="M4965 4598c0,0 1,0 1,1 -1,-7 -2,-5 -1,-1z"/>
  <polygon class="fil0" points="4283,4942 4283,4943 4283,4943 "/>
  <path class="fil0" d="M4292 4930c-1,18 -4,16 -9,13l13 40 -4 -53z"/>
  <path class="fil0" d="M4700 4758l-13 -7c-3,-23 7,-20 -9,-32 22,39 -24,19 -3,58l-9 -5c1,-1 0,-3 2,-3 -20,-14 9,31 -5,32 -6,0 -12,-4 -12,-10l-4 14c-3,1 -6,-6 -3,-7l-12 11 0 -1c1,7 1,19 1,25 -6,-4 0,-6 -4,-10l-2 14c-9,-8 -7,-22 -1,-23 -28,-36 -2,13 -29,-1l5 -9c-16,-20 -18,-9 -33,-19 6,7 34,27 31,41 -4,-2 -8,-2 -9,8 -7,-14 -10,-8 -15,-5l-9 -19c-3,8 2,18 2,28 -8,1 -16,-13 -23,-25 -12,2 18,20 7,30 -13,-4 -15,7 -22,23 -9,-4 -4,-12 -8,-17l1 18c-2,0 -4,-4 -4,-7 -3,8 7,20 2,28 6,22 -29,-24 -28,4 -5,-4 -4,-12 -8,-19 -6,21 -6,16 -9,42l-14 -9c12,12 10,32 7,49 5,7 9,12 12,15l-10 14c-3,-2 -4,-10 -4,-19 -1,2 -1,4 -1,6 -7,-6 -9,-18 -9,-30 3,3 6,7 9,11 -1,-13 -3,-27 -8,-39 0,3 -1,5 -2,7 0,-4 -1,-7 -2,-9 -1,-2 -1,3 -1,9l-11 -21 2 9 -21 -9c-4,25 -4,61 -20,77 0,-18 -7,-28 -13,-47 12,19 12,-13 23,-12 -6,0 -8,-10 -7,-14l-12 24c-4,-16 -7,-11 -13,-16 12,31 -7,25 -11,37 -4,-11 -5,-22 4,-22 -16,-21 -2,41 -17,23 2,-1 4,1 3,-5 -2,11 -16,7 -16,-3l2 -1c-14,1 -42,12 -38,39 -1,-4 -6,-33 -6,-39 0,0 -2,24 -3,48 -2,24 -4,48 -4,48 -2,-24 -22,-78 -13,-93 -4,-3 -9,-6 -15,3 3,3 13,33 10,36 -14,-25 -9,-13 -24,-34 5,5 8,42 2,42 0,-5 -7,-36 -6,-40l-7 38c2,-7 -5,-31 -10,-40 3,7 -12,1 -15,5l7 8c-16,-3 -7,53 -23,54 1,-8 -2,-47 -11,-50 0,19 -3,92 -16,109l-4 -10 -10 14c4,-29 16,-92 22,-116 -7,-8 -3,-13 -12,-10 -4,-10 3,-16 5,-17l-20 -3c3,22 -13,24 -10,42l19 -26c4,21 -5,65 -20,62 -5,-8 -2,-39 -3,-46 -1,8 -12,15 -14,10l5 -12c-9,-8 -10,29 -22,9 -3,-1 -12,-28 -12,-15 8,25 15,102 13,121 -1,-2 -20,-23 -25,-35 -7,-20 5,-47 -1,-64 0,6 -2,13 -3,16 -4,-5 0,-19 -8,-16 1,23 -15,-1 -2,19 -7,7 -8,-4 -17,-3 3,15 -6,50 -14,57 1,-6 -1,-13 -2,-17 -16,-1 -25,-11 -40,-10 -1,-6 -8,-12 -5,-22 -2,4 -4,12 -9,13 -8,-19 10,-4 4,-26 -1,13 -12,18 -18,26 2,20 15,3 21,-5 0,28 -11,57 -27,71 -13,7 -5,-18 -8,-14 -23,-6 -21,47 -40,25 -7,-18 1,-35 0,-47 10,-6 15,12 22,12l-9 -9c4,-6 11,-10 14,-4 -6,-17 -39,-6 -56,-22 -3,5 -9,11 -7,18l6 -2c4,15 -12,19 -5,26 -8,10 -18,25 -28,16l-1 -20c0,5 6,12 10,6 -6,9 -15,-28 -22,-2l7 14c-9,10 -20,30 -30,23 3,20 3,-2 8,21 -4,-29 25,4 18,-27 5,27 11,12 19,36 0,-7 -3,-13 6,-9 0,-2 1,-5 2,-6l0 0 0 0c0,-1 0,-2 0,-1 -2,-3 -3,-6 -4,-10 5,-15 18,-13 23,-21 5,4 -2,8 0,15l7 -11c0,14 12,25 0,33l10 1c6,9 14,13 20,7 5,3 13,-15 8,-4l17 -8 0 3c16,3 33,-25 52,1 5,-4 11,-9 20,-5l2 13c7,-5 22,11 24,-2 10,34 35,6 48,11l-1 -16c9,0 17,-5 27,-12l-2 -15c8,-12 24,10 38,7 0,6 -4,5 -7,2 21,31 33,-30 51,-8 3,-6 6,-5 9,-2 0,0 0,1 0,1 0,0 1,0 1,0 2,2 4,5 7,7 -2,-3 -4,-6 -6,-7 3,-1 7,-3 11,-8l4 15c1,0 1,0 1,0 5,5 2,-8 -2,-19 2,-3 4,-7 5,-11 7,25 10,-10 19,16 1,-14 20,-14 17,-42 1,4 3,5 0,6 6,2 11,5 14,-4l6 20 5 -29c9,11 13,18 10,34 10,-26 10,-11 18,-36l3 12c4,-1 8,-19 13,-9 16,21 50,-12 83,2 -16,-35 17,13 10,-16 4,9 9,12 7,21 11,-12 25,8 26,-19 5,8 2,13 5,18 0,-2 1,-9 5,-4 3,5 0,8 -1,12 14,-5 6,-32 -2,-57 11,9 14,7 13,-11 6,7 13,15 5,20 6,1 33,2 26,-18 3,4 7,-1 7,-4 11,-3 13,-2 22,-8l-4 -2c-6,-25 6,-9 13,-15l0 2c26,9 5,-11 31,0l-7 -14c-12,-32 24,11 29,-5l-7 -7c0,-12 35,35 43,36 3,2 0,5 -1,8 24,11 -7,-19 3,-29 7,9 9,27 18,25 9,7 6,-43 25,-30 -6,-6 -12,-12 -10,-21 6,-7 36,17 30,-11 2,1 4,3 5,5 3,-9 13,-21 10,-36 33,44 22,-43 48,0l17 -13 2 5c13,-4 10,-18 7,-30 5,1 5,6 7,9 21,-3 22,-6 20,-36l11 12c-2,-10 38,5 42,-22 1,2 3,5 3,7 6,-27 70,6 38,-46l2 -21c-17,8 -14,-21 -26,-24 3,-7 25,2 20,10l-3 -2c18,26 24,-6 37,11 26,-25 66,-34 90,-58l-20 -14 9 -8c6,2 16,11 10,16 12,7 2,-18 -2,-22 19,-5 15,25 19,21l4 -6 -3 -1c-3,-11 -10,-18 -2,-25 8,-1 13,9 15,7 1,2 2,2 3,-2l12 -9 -18 -9c-2,-11 11,-9 -10,-19 32,16 47,-31 58,-30 -4,-16 1,-22 10,-30 -5,0 -22,-13 -14,-18 31,31 26,-1 55,13 -20,-8 14,-24 -16,-34 8,-4 13,9 25,11 -2,-25 34,-27 44,-49 -4,-4 -14,-6 -18,-15l31 7c1,-6 -24,-23 -3,-18 -4,-2 -11,-5 -11,-9 50,-23 33,-90 102,-104 -13,0 -12,-4 -9,-9 -4,2 -13,-7 -20,-10l29 -7c-18,-14 9,-20 -9,-32l1 8c-18,-19 -54,-15 -81,-31 20,21 -46,0 -19,31 -7,0 -8,-7 -15,-9 10,10 10,15 1,19l-2 -3c-9,21 -25,22 -47,38l14 7c-5,4 -9,2 -14,2 16,18 10,-12 28,7 -30,-11 -22,32 -54,16 -5,6 16,8 11,15l-9 -4 9 9c-5,3 -17,-2 -23,-7 1,0 0,-4 0,-5 -13,-1 -9,18 -13,17l10 -2c-7,23 -33,38 -32,67l7 4c0,21 -15,5 -22,23l-1 -2c3,8 3,14 -1,17 -4,-9 -19,-4 -22,-15 -1,24 3,15 15,42l-11 -6c6,10 10,15 6,24 -3,-13 -17,-8 -22,-24 -32,-3 0,40 -35,20 18,29 26,0 28,9 11,4 13,22 6,25 -5,4 -39,-22 -49,-11 1,-1 -1,-3 0,-4 -10,-2 1,16 -14,12 11,17 -8,6 10,25l6 -15c-1,11 14,38 -5,37 -3,-4 -5,-12 -6,-17 -8,-2 -2,9 -10,7 -17,-20 8,-17 0,-37 -10,-5 2,25 -15,2 21,30 -13,7 -2,34l-10 -11c0,3 3,10 1,12l-10 -18c6,18 -23,-1 -22,12 12,-12 15,11 28,15 -2,29 -36,-22 -49,-2 1,-4 15,-1 16,8 -5,1 -13,0 -21,-4 -9,12 12,10 14,21 -17,-10 -1,11 -2,20l-11 -12c-20,4 18,29 -2,30l-9 -21 -3 9 -10 -15c2,17 -3,16 -12,18 8,7 17,23 11,28 -10,-4 -7,-13 -14,-5 -4,-9 -10,-20 3,-12 -3,-4 -5,-9 -7,-14 -11,-4 -13,8 -16,10 1,-1 3,-1 6,0l0 27c-6,-3 -7,-8 -8,-13 -2,3 1,10 -3,14 -6,-11 -14,-21 -13,-30l-3 20c-5,-4 -16,-8 -17,-13 -11,-1 -2,32 -17,31 1,2 1,5 0,8 -10,4 -26,-4 -26,18l-19 -15c-5,10 24,18 15,35 -5,13 -14,-14 -21,-17 2,12 5,37 -14,27 1,-6 5,-4 7,-7zm-100 69l0 0c1,-4 0,-16 6,-8 6,17 0,10 -6,8zm-158 105l0 0c0,-6 3,-4 8,1 -1,2 -4,2 -8,-1zm-525 181l0 0c0,0 0,0 0,0 5,6 4,4 0,0zm-12 -7l0 0c-1,2 -1,4 -1,6 1,-4 4,-4 7,-2 -1,-5 -2,-8 -6,-4zm1161 -459l0 0 -5 -1c1,-7 2,-3 5,1z"/>
  <path class="fil0" d="M4455 4905c2,3 3,5 4,8 0,-3 -1,-5 -4,-8z"/>
  <polygon class="fil0" points="4758,4709 4758,4709 4757,4706 "/>
  <path class="fil0" d="M4081 4970c3,2 4,5 5,8 0,-4 -1,-7 -5,-8z"/>
  <path class="fil0" d="M3840 5128l8 -4c-4,1 -5,-3 -7,-6 0,4 1,10 -1,10z"/>
  <path class="fil0" d="M3784 5025c-1,2 -2,0 -4,2l0 8c4,-1 8,-6 4,-10z"/>
  <path class="fil0" d="M3837 5075c1,-13 -5,-9 -10,-7 0,0 1,0 1,0 -3,18 3,12 9,7z"/>
  <path class="fil0" d="M3826 5068c-2,1 -4,1 -5,0 -1,7 2,2 5,0z"/>
  <path class="fil0" d="M3889 5113c-2,-3 -2,17 -3,12 -4,16 18,-20 3,-12z"/>
  <polygon class="fil0" points="3836,5031 3837,5047 3841,5034 "/>
  <path class="fil0" d="M3876 5046l-8 -5c0,3 -1,4 -2,5 5,1 10,5 10,0z"/>
  <path class="fil0" d="M3866 5046c-3,0 -5,0 -7,2 1,0 4,0 7,-2z"/>
  <polygon class="fil0" points="3848,5027 3850,5030 3856,5032 "/>
  <path class="fil0" d="M3965 5055l9 -5c1,-6 -1,-9 -5,-7 -2,4 -5,7 -4,12z"/>
  <path class="fil0" d="M3939 5009c2,4 2,7 3,13l1 -21 -4 8z"/>
  <path class="fil0" d="M3965 5005c1,-5 12,-16 1,-15 -1,6 -9,11 -1,15z"/>
  <polygon class="fil0" points="4099,5025 4096,5025 4099,5059 "/>
  <path class="fil0" d="M4204 4933c-11,-7 1,20 -10,12 -1,8 9,7 8,14 4,-9 8,-5 2,-26z"/>
  <path class="fil0" d="M4202 4959c-1,1 -2,3 -3,6 2,-3 2,-5 3,-6z"/>
  <path class="fil0" d="M5340 4306c0,0 10,-3 10,-3l-12 -1 2 4z"/>
  <path class="fil0" d="M5325 4282l20 8 -15 -13c0,2 0,6 -5,5z"/>
  <path class="fil0" d="M4565 4795l2 5c3,5 5,4 8,4l-10 -9z"/>
  <polygon class="fil0" points="4648,4768 4646,4769 4658,4784 "/>
  <path class="fil0" d="M4697 4712c-3,1 -3,6 -6,7 3,-6 20,12 6,-7z"/>
  <path class="fil0" d="M2315 2672l-2 -2c3,4 2,2 2,2z"/>
  <polygon class="fil0" points="2344,2700 2343,2700 2349,2702 "/>
  <path class="fil0" d="M2372 2725c1,-8 -11,-8 -15,-14l0 -2 -5 2c6,5 16,9 20,14z"/>
  <path class="fil0" d="M2376 2756c1,-4 4,1 -3,-5 0,1 0,1 0,2 1,1 2,1 3,3z"/>
  <path class="fil0" d="M2373 2753c-2,-3 0,5 0,0z"/>
  <path class="fil0" d="M2386 2766l-5 -1c0,3 2,7 0,7 5,3 5,0 5,-6z"/>
  <path class="fil0" d="M2394 2763l-3 -1c0,2 0,3 3,1z"/>
  <path class="fil0" d="M2386 2761l5 1c1,-2 2,-5 -2,-1 2,-2 -1,0 -3,0z"/>
  <path class="fil0" d="M2384 2757c0,-4 -2,-8 3,-7 -8,-6 -10,0 -3,7z"/>
  <path class="fil0" d="M2377 2720l-2 -4 -4 0c2,0 5,6 6,4z"/>
  <path class="fil0" d="M2405 2797c2,-3 3,-8 4,-11l-4 -1c1,3 2,8 0,12z"/>
  <path class="fil0" d="M2409 2786l7 0c-3,-4 -5,-3 -7,0z"/>
  <polygon class="fil0" points="2401,2753 2390,2754 2403,2754 "/>
  <polygon class="fil0" points="2420,2814 2414,2818 2423,2813 "/>
  <path class="fil0" d="M2430 2825c-5,3 -3,12 -7,13 3,2 8,0 13,-2 -4,0 -6,-3 -6,-11z"/>
  <path class="fil0" d="M2443 2834c-2,0 -4,1 -7,2 2,0 4,0 7,-2z"/>
  <path class="fil0" d="M2422 2794c0,2 -2,7 -1,11l3 -9 -2 -2z"/>
  <path class="fil0" d="M2424 2796l0 0c1,2 3,3 3,4 0,-1 -1,-2 -3,-4z"/>
  <path class="fil0" d="M2422 2794l0 0c1,-1 1,-1 0,0z"/>
  <path class="fil0" d="M2409 2769c5,-1 13,-1 11,-11 -5,3 -4,9 -11,11z"/>
  <path class="fil0" d="M2425 2783l-3 -6c-1,2 -2,5 -5,6l8 0z"/>
  <polygon class="fil0" points="2429,2783 2425,2783 2427,2785 "/>
  <path class="fil0" d="M2441 2818c4,-1 6,0 9,2 -2,-4 -4,-8 -6,-10 -2,2 -6,6 -3,8z"/>
  <path class="fil0" d="M2433 2806l1 0c0,-1 0,-1 -1,0z"/>
  <polygon class="fil0" points="2473,2843 2474,2840 2473,2842 "/>
  <path class="fil0" d="M2444 2808c-1,-3 -3,-2 -5,-1 1,1 3,1 5,3 1,-1 1,-2 0,-2z"/>
  <path class="fil0" d="M2452 2837c0,-3 0,-6 0,-9 -1,4 -2,11 0,9z"/>
  <path class="fil0" d="M2433 2809l0 0c-1,3 0,2 0,0z"/>
  <path class="fil0" d="M2433 2809c2,0 4,-1 6,-2 -2,-1 -4,-1 -5,-1 0,1 -1,2 -1,3z"/>
  <path class="fil0" d="M2519 2786c-6,9 -16,14 -16,1 -9,4 -23,34 -29,53 2,-3 5,-7 12,-8 2,-6 -3,-20 6,-24 9,0 3,6 3,14 5,-14 19,-11 28,-29l-10 2c2,-2 7,-5 6,-9z"/>
  <path class="fil0" d="M2466 2832l-2 -1c1,4 0,8 -1,18 5,-2 8,-4 10,-7l-8 -10 1 0z"/>
  <path class="fil0" d="M2455 2823c7,-7 14,-7 17,-19 -6,-4 -8,4 -14,5 10,6 -5,2 -2,13 -3,0 -4,-1 -6,-2 1,3 1,5 2,8l0 0 0 0 0 -1c0,-1 1,-2 1,-1l0 0 2 -3c2,5 -1,3 -2,3l-1 1 0 1 12 3c-2,-3 -4,-5 -9,-8z"/>
  <path class="fil0" d="M2433 2748c0,1 0,1 0,2 1,-1 2,-1 0,-2z"/>
  <path class="fil0" d="M2435 2755c-1,0 -4,2 -5,0 -1,-3 2,-3 3,-5 -3,1 -8,1 -6,7l2 0c2,5 1,17 0,18 3,-7 5,-13 6,-20z"/>
  <path class="fil0" d="M2448 2785l10 2 0 -10 -2 5c-3,-5 -6,0 -8,3z"/>
  <polygon class="fil0" points="2471,2848 2464,2857 2477,2847 "/>
  <polygon class="fil0" points="2481,2856 2475,2865 2481,2861 "/>
  <path class="fil0" d="M3175 3069l4 -4c-2,1 -3,2 -4,4z"/>
  <path class="fil0" d="M3165 3062l-6 7c4,-4 6,-7 6,-7z"/>
  <path class="fil0" d="M2722 3055c-6,16 -16,41 -6,24l10 -18c-4,2 -5,-2 -4,-6z"/>
  <path class="fil0" d="M2963 3067l2 -6c-4,6 -9,11 -13,16 4,-3 7,-7 11,-10z"/>
  <path class="fil0" d="M3012 2994l-3 14c2,-4 2,-9 3,-14z"/>
  <path class="fil0" d="M3238 3073l3 -20c-2,0 -2,10 -3,20z"/>
  <path class="fil0" d="M2582 2938c-1,8 0,12 1,15 2,-11 6,-25 -1,-15z"/>
  <path class="fil0" d="M3063 3259c4,-2 7,-5 9,-9 -4,2 -7,5 -9,9z"/>
  <path class="fil0" d="M2591 2959c1,-2 1,-3 1,-4 -4,0 -7,1 -9,-2 -1,7 0,14 8,6z"/>
  <path class="fil0" d="M3469 2965c1,0 1,0 2,-1 -2,0 -2,0 -2,1z"/>
  <path class="fil0" d="M3501 2850c1,1 2,2 4,4 -1,-1 -2,-2 -4,-4z"/>
  <path class="fil0" d="M2516 2896c-3,-1 -1,1 0,0z"/>
  <path class="fil0" d="M2534 2843c1,-1 2,-3 4,-5 -2,3 -3,4 -4,5z"/>
  <path class="fil0" d="M2667 2887l1 0c1,-3 1,-3 -1,0z"/>
  <path class="fil0" d="M2516 2888c0,2 0,4 0,6 1,-2 1,-3 0,-6z"/>
  <path class="fil0" d="M2513 2894c0,-1 -1,-2 -1,-3 -1,2 -2,3 1,3z"/>
  <path class="fil0" d="M2519 2898c-1,-1 -2,-2 -3,-4 0,1 0,2 0,2 1,0 1,1 3,2z"/>
  <path class="fil0" d="M3381 3112c0,0 1,1 1,1 -1,-6 -2,-5 -1,-1z"/>
  <polygon class="fil0" points="2889,2916 2888,2917 2888,2918 "/>
  <path class="fil0" d="M2906 2908c-17,19 -18,16 -18,10l-28 51 46 -61z"/>
  <path class="fil0" d="M3202 3077l3 -19c12,-27 11,-16 16,-42 -19,61 -10,1 -35,60l3 -13c1,1 2,-3 3,-2 8,-30 -22,41 -25,29 0,-6 3,-15 8,-21l-13 11c0,-2 6,-11 6,-9 0,0 -9,0 -10,0l1 -2c-7,8 -18,19 -24,24 2,-10 5,-5 9,-13l-15 10c7,-16 21,-27 24,-22 28,-60 -14,11 -6,-30l10 -3c16,-35 4,-26 10,-50 -5,11 -18,58 -33,68 1,-5 -1,-9 -11,0 12,-20 6,-17 1,-19l16 -27c-9,5 -17,19 -27,29 -4,-6 8,-27 17,-46 -6,-9 -15,37 -28,36 0,-15 -12,-7 -31,4 1,-13 11,-16 14,-25l-17 19c-1,-2 3,-8 6,-11 -9,6 -17,26 -27,30 -20,28 14,-50 -14,-22 3,-8 11,-15 17,-26 -23,16 -18,11 -45,35l4 -22c-7,23 -28,43 -46,59 -4,11 -8,20 -9,25l-18 8c1,-5 8,-13 16,-23 -2,2 -4,3 -5,5 2,-12 14,-26 25,-40 -2,6 -4,13 -7,19 13,-15 26,-31 35,-47 -3,2 -5,4 -8,5 4,-4 7,-8 8,-11 1,-3 -3,3 -9,9l16 -31 -7 11 -1 -26c-27,25 -62,64 -83,68 17,-19 23,-35 39,-60 -13,29 18,-5 21,4 -2,-5 7,-16 10,-20l-28 17c14,-21 7,-17 9,-28 -23,43 -26,22 -39,32 8,-14 18,-28 22,-21 13,-35 -38,43 -29,13 2,1 1,3 6,-3 -11,10 -14,-5 -4,-16l1 1c-7,-11 -31,-19 -53,15 3,-5 27,-41 31,-47l-89 103c20,-28 57,-101 75,-112 0,-6 0,-12 -11,-5 -1,5 -22,44 -26,46 14,-36 6,-20 16,-52 -2,8 -32,51 -35,47 4,-6 27,-44 31,-48l-37 38c7,-6 23,-37 29,-50 -4,9 -8,-5 -14,-3l-2 13c-7,-13 -48,54 -58,45 7,-8 37,-52 35,-61 -16,21 -76,99 -96,108l6 -13 -16 9c24,-29 79,-89 103,-112 2,-12 8,-15 1,-17 5,-13 15,-16 17,-16l-11 -15c-15,26 -27,20 -39,41l32 -18c-15,26 -53,66 -60,56 3,-12 29,-43 34,-52 -7,8 -20,11 -18,5l13 -11c0,-12 -30,27 -22,1 -2,-3 11,-35 2,-21 -13,29 -64,114 -79,133 0,-2 4,-34 9,-49 9,-23 37,-46 45,-66 -4,6 -11,13 -14,15 1,-7 14,-19 6,-19 -15,23 -10,-8 -15,18 -9,4 -2,-8 -9,-10 -8,16 -37,47 -46,50 3,-5 7,-13 8,-17 -9,-9 -8,-22 -18,-28 2,-6 1,-15 9,-23 -4,3 -10,9 -13,8 5,-22 8,1 17,-24 -8,12 -18,13 -28,18 -10,20 8,10 18,4 -17,27 -41,50 -59,54 -11,1 7,-18 4,-16 -13,-14 -40,34 -41,7 5,-19 19,-30 24,-42 11,-2 5,16 9,19l-1 -11c6,-4 13,-5 12,1 5,-17 -24,-19 -29,-39 -5,4 -12,7 -13,13l5 1c-4,14 -17,11 -16,20 -10,5 -23,13 -26,1l9 -16c-3,4 -1,12 3,9 -7,5 3,-28 -13,-11l-2 14c-9,5 -25,15 -27,6 -7,16 2,-1 -4,20 9,-25 13,14 22,-14 -9,24 2,15 -4,38 3,-5 4,-12 7,-5 1,-1 3,-3 4,-4l0 1 0 -1c1,0 1,-1 0,0 1,-4 1,-7 3,-10 10,-10 17,-4 24,-8 1,5 -5,5 -7,12l10 -6c-7,12 -5,27 -17,28l6 6c-1,10 2,18 8,15 1,5 16,-8 8,0l14 0 -2 3c8,10 34,-7 29,28 5,-1 11,-3 14,6l-7 13c7,-1 5,23 15,11 -18,39 14,25 18,37l11 -17c4,5 12,3 23,1l10 -16c13,-9 7,22 16,27 -4,5 -5,2 -5,-3 -13,45 39,-11 32,23 6,-4 6,-1 5,5 0,0 0,0 -1,0 0,1 1,1 1,1 -1,4 -2,8 -2,12 1,-5 2,-9 2,-11 3,0 7,0 12,-2l-10 19c0,0 0,0 1,0 -2,9 7,-7 14,-22 4,-2 7,-5 11,-9 -16,32 13,-5 -4,30 12,-15 22,-3 44,-35 -3,4 -3,7 -5,6 1,6 1,12 10,4l-14 25 27 -28c-5,18 -8,28 -24,44 28,-22 15,-6 41,-29l-10 16c3,1 21,-17 15,-3 -13,35 30,26 30,66 26,-50 -5,27 18,-10 -6,12 -7,20 -16,28 16,-5 2,27 27,-1 -6,13 -12,16 -15,23 2,-2 9,-8 6,0 -4,7 -8,8 -12,12 10,4 33,-30 54,-63 -5,19 -1,18 15,-2 -5,12 -9,25 -17,25 2,4 9,29 26,2 -3,7 3,5 6,2 6,6 6,9 14,11l1 -6c23,-30 10,-3 18,-3l-2 3c-1,31 13,-8 9,26l12 -20c28,-42 -5,32 13,21l4 -14c14,-12 -24,66 -23,73 -2,5 -5,6 -8,8 -5,31 17,-26 29,-27 -7,15 -24,35 -20,40 -4,13 44,-36 35,-5 5,-11 10,-23 18,-29 5,0 2,12 2,21 2,9 6,15 19,-1 -1,4 -2,7 -3,10 11,-6 27,-5 39,-23 -14,37 1,32 13,25 13,-6 23,-14 12,20 0,1 22,1 22,1l-3 7c12,7 21,-8 28,-24 2,5 -1,11 -2,15 16,17 20,13 38,-20l0 23c4,-12 26,35 45,8 0,2 0,6 -2,9 18,-25 60,50 55,-27l8 -22c-16,-2 -5,-33 -14,-44 4,-5 20,19 14,24l-2 -3c7,39 22,8 29,33 30,-14 69,-11 95,-32l-17 -20 9 -6c6,4 15,15 8,19 12,10 3,-19 0,-23 18,-2 13,28 17,26l4 -6 -3 -2c-2,-12 -9,-21 -1,-26 7,-1 12,9 14,8 1,2 2,2 3,-2l11 -9 -17 -10c-3,-12 9,-9 -10,-20 30,18 39,-31 48,-30 -6,-15 -2,-21 3,-29 -4,0 -21,-8 -15,-14 33,22 20,-6 46,-2 -17,-1 4,-25 -21,-25 5,-5 12,5 21,2 -9,-21 15,-36 9,-59 -4,-1 -9,2 -14,-3l17 -9c-2,-4 -19,-6 -8,-12 -3,1 -7,2 -8,-1 7,-19 -1,-40 -9,-59 -8,-19 -15,-37 -26,-54 3,5 0,3 -3,0 1,2 -2,1 -3,2 0,0 -9,-13 -9,-13 -4,-1 -14,-10 -16,-10l4 3c-5,-4 4,8 0,9 7,4 2,21 11,28 -1,3 -3,-1 -4,1 3,1 5,4 5,11l-1 -1c4,17 0,26 -7,44l7 -2c-2,4 -4,5 -6,7 10,4 2,-11 13,-8 -15,7 -3,29 -24,31 -2,6 11,-1 9,5l-6 1 7 2c-3,4 -11,5 -16,4 1,0 0,-2 0,-3 -9,4 -4,13 -7,14l7 -4c0,16 -20,29 -13,46l6 2c4,14 -11,5 -13,17l-1 -1c4,5 5,10 2,12 -5,-6 -17,-3 -22,-11 3,16 5,9 21,30l-11 -5c7,8 11,12 9,19 -4,-10 -17,-9 -23,-20 -30,-10 5,30 -28,7 20,27 22,6 25,13 10,5 15,21 9,21 -4,3 -37,-27 -44,-21 1,-1 -1,-3 0,-3 -9,-6 2,13 -11,4 11,18 -6,1 10,24l4 -10c0,8 15,39 -3,31 -2,-6 -4,-14 -5,-18 -7,-6 -1,7 -8,1 -16,-25 6,-11 -2,-30 -9,-9 3,21 -13,-6 20,34 -10,-1 0,28l-8 -16c0,3 3,11 1,11l-9 -21c5,19 -17,-13 -16,-2 9,-3 12,19 22,29 -1,27 -28,-39 -36,-30 1,-3 11,9 12,18 -4,-4 -10,-10 -15,-19 -7,5 8,18 9,30 -11,-21 -1,10 -3,18l-6 -19c-14,-11 9,40 -6,27l-3 -27 -3 7 -4 -22c-1,17 -4,13 -10,7 4,14 6,36 1,37 -5,-12 -1,-19 -7,-16 0,-13 -2,-29 4,-10 0,-7 -1,-13 -2,-19 -5,-14 -7,-4 -9,-4 0,1 1,2 2,5 0,0 -1,7 -2,14 -2,8 -3,15 -3,15 -2,-8 -2,-14 -1,-20 -2,2 -2,12 -5,13 0,-17 -1,-34 1,-42 0,0 -6,18 -6,18 -1,-8 -4,-22 -4,-28 -3,-12 -9,33 -14,18 -1,3 -1,6 -3,8 -5,-5 -5,-27 -15,-5l4 -33c-6,6 -4,42 -14,51 -9,8 4,-28 5,-37 -6,15 -22,46 -18,17 3,-5 3,1 5,-1zm-68 -24l0 0c4,-3 15,-13 9,-1 -16,22 -11,10 -9,1zm-160 -32l0 0c5,-6 5,-2 3,7 -3,1 -4,-1 -3,-7zm-429 -116l0 0 0 0c0,8 0,5 0,0zm-4 -12l0 0c-2,2 -3,4 -4,6 3,-3 5,-2 6,0 2,-4 2,-7 -2,-6zm934 292l0 0 -4 -2c0,-7 2,-3 4,2z"/>
  <path class="fil0" d="M3006 3002c-2,4 -4,8 -6,12 3,-3 5,-7 6,-12z"/>
  <polygon class="fil0" points="3238,3076 3238,3077 3238,3073 "/>
  <path class="fil0" d="M2739 2840c0,3 -1,6 -2,10 3,-4 4,-8 2,-10z"/>
  <path class="fil0" d="M2492 2882l6 1c-2,-1 -1,-5 -1,-7 -2,2 -4,7 -5,6z"/>
  <path class="fil0" d="M2495 2782c-1,1 -2,-1 -3,0l-3 5c3,1 8,-1 6,-5z"/>
  <path class="fil0" d="M2512 2839c6,-10 1,-9 -3,-10l0 1c-9,13 -3,11 3,9z"/>
  <path class="fil0" d="M2508 2829c-2,0 -3,-1 -3,-2 -4,5 0,2 3,2z"/>
  <path class="fil0" d="M2528 2893c0,-4 -10,13 -8,8 -10,13 20,-8 8,-8z"/>
  <polygon class="fil0" points="2530,2805 2523,2818 2531,2809 "/>
  <path class="fil0" d="M2551 2831l-3 -7c-1,2 -3,3 -4,3 3,3 5,8 7,4z"/>
  <path class="fil0" d="M2544 2827c-2,-1 -4,-2 -6,0 1,0 3,1 6,0z"/>
  <polygon class="fil0" points="2540,2805 2540,2809 2543,2812 "/>
  <path class="fil0" d="M2607 2872l9 0c4,-5 4,-9 1,-9 -4,3 -7,4 -10,9z"/>
  <path class="fil0" d="M2614 2820c0,4 -2,8 -4,13l12 -18 -8 5z"/>
  <path class="fil0" d="M2635 2826c4,-5 19,-11 10,-13 -4,4 -13,5 -10,13z"/>
  <polygon class="fil0" points="2712,2904 2710,2904 2688,2940 "/>
  <path class="fil0" d="M2850 2860c-2,-14 -17,23 -16,8 -8,8 -1,12 -7,19 10,-7 9,-1 23,-27z"/>
  <path class="fil0" d="M2827 2887c-2,1 -4,3 -6,5 3,-2 4,-4 6,-5z"/>
  <polygon class="fil0" points="3485,2836 3480,2833 3483,2835 "/>
  <path class="fil0" d="M3475 2831l-1 -1 -3 -2c1,1 0,1 4,3z"/>
  <path class="fil0" d="M3155 2991l-5 6c-3,8 -2,9 -1,12l6 -18z"/>
  <polygon class="fil0" points="3191,3044 3191,3043 3180,3069 "/>
  <path class="fil0" d="M3226 3024c-1,-2 -3,4 -4,2 3,-4 -4,31 4,-2z"/>
  <path class="fil0" d="M6036 2671c0,0 2,0 3,-1 -5,1 -3,1 -3,1z"/>
  <polygon class="fil0" points="5995,2687 5996,2686 5991,2690 "/>
  <path class="fil0" d="M5957 2702c8,5 13,-7 21,-7l2 0 1 -5c-8,4 -17,11 -24,12z"/>
  <path class="fil0" d="M5926 2693c4,3 -3,4 6,0 -1,0 -1,0 -1,-1 -1,1 -2,1 -5,1z"/>
  <path class="fil0" d="M5931 2692c4,-1 -5,-2 0,0z"/>
  <path class="fil0" d="M5912 2699l4 -4c-3,-2 -8,-1 -7,-3 -5,3 -3,5 3,7z"/>
  <path class="fil0" d="M5911 2707l2 -2c-1,-1 -2,-1 -2,2z"/>
  <path class="fil0" d="M5917 2701l-4 4c1,1 3,4 2,-2 1,3 1,0 2,-2z"/>
  <path class="fil0" d="M5921 2701c5,1 9,1 6,5 9,-4 4,-9 -6,-5z"/>
  <path class="fil0" d="M5960 2710l5 0 1 -4c0,2 -8,2 -6,4z"/>
  <path class="fil0" d="M5873 2704c2,2 6,6 8,8l3 -4c-3,0 -8,-1 -11,-4z"/>
  <path class="fil0" d="M5881 2712l-3 7c6,-2 5,-4 3,-7z"/>
  <polygon class="fil0" points="5916,2718 5921,2708 5914,2719 "/>
  <polygon class="fil0" points="5849,2710 5849,2703 5849,2714 "/>
  <path class="fil0" d="M5834 2716c0,-6 -9,-9 -8,-13 -4,2 -5,8 -5,13 2,-3 6,-3 13,0z"/>
  <path class="fil0" d="M5819 2724c1,-2 1,-5 2,-8 -1,2 -2,4 -2,8z"/>
  <path class="fil0" d="M5867 2721c-1,-1 -5,-5 -9,-6l7 7 2 -1z"/>
  <path class="fil0" d="M5865 2722l0 0c-3,0 -5,1 -6,1 1,0 3,0 6,-1z"/>
  <path class="fil0" d="M5868 2721l-1 0c1,1 1,1 1,0z"/>
  <path class="fil0" d="M5898 2719c-2,5 -6,12 4,15 0,-6 -6,-7 -4,-15z"/>
  <path class="fil0" d="M5876 2728l7 0c-1,-2 -4,-4 -3,-7l-4 7z"/>
  <polygon class="fil0" points="5874,2732 5876,2728 5873,2729 "/>
  <path class="fil0" d="M5835 2728c-1,5 -3,6 -6,8 4,1 9,0 12,-1 -1,-3 -2,-8 -6,-7z"/>
  <path class="fil0" d="M5850 2726l0 1c0,0 1,0 0,-1z"/>
  <polygon class="fil0" points="5796,2749 5797,2750 5796,2748 "/>
  <path class="fil0" d="M5843 2736c3,0 4,-2 4,-5 -2,1 -4,3 -6,4 1,1 1,2 2,1z"/>
  <path class="fil0" d="M5812 2731c3,2 5,3 8,3 -3,-2 -9,-5 -8,-3z"/>
  <path class="fil0" d="M5847 2725l1 -1c-2,-1 -2,0 -1,1z"/>
  <path class="fil0" d="M5847 2725c0,1 0,4 0,6 1,-1 2,-3 3,-4 -1,-1 -2,-1 -3,-2z"/>
  <path class="fil0" d="M5825 2815c-6,-9 -4,-21 7,-15 1,-10 -19,-36 -35,-50 2,4 5,8 2,15 5,5 20,5 20,16 -5,8 -8,0 -15,-3 10,10 1,22 13,38l3 -10c1,2 2,8 5,9z"/>
  <path class="fil0" d="M5809 2746l2 -2c-3,0 -8,-3 -16,-8 -1,6 0,9 1,12l14 -3 -1 1z"/>
  <path class="fil0" d="M5823 2740c3,9 0,16 9,24 7,-4 1,-10 3,-16 -11,8 0,-6 -12,-7 2,-3 4,-4 6,-5 -3,0 -6,-1 -9,-2l0 1 0 0 1 0c1,1 1,1 0,1l0 0c1,2 1,3 2,4 -5,-1 -2,-2 -2,-4l0 -1 -1 0 -9 9c4,0 7,-1 12,-4z"/>
  <path class="fil0" d="M5905 2751c-1,-1 -1,-1 -2,-2 0,2 0,2 2,2z"/>
  <path class="fil0" d="M5898 2749c0,-1 -1,-4 2,-5 3,1 2,3 3,5 1,-2 3,-7 -4,-8l0 1c-6,1 -18,-5 -17,-7 5,6 9,10 16,14z"/>
  <path class="fil0" d="M5862 2749l-7 8 9 5 -2 -4c6,-1 2,-6 0,-9z"/>
  <polygon class="fil0" points="5791,2744 5787,2734 5790,2750 "/>
  <polygon class="fil0" points="5779,2751 5774,2741 5774,2748 "/>
  <path class="fil0" d="M5214 3317l-1 7c1,-2 1,-4 1,-7z"/>
  <path class="fil0" d="M5238 3306l-5 -8c2,5 3,8 5,8z"/>
  <path class="fil0" d="M5470 2893c-13,-12 -31,-32 -20,-15l12 16c1,-4 4,-4 8,-1z"/>
  <path class="fil0" d="M5335 3114l5 5c-3,-7 -6,-13 -8,-19 1,5 2,9 3,14z"/>
  <path class="fil0" d="M5379 3191l-12 -9c4,3 8,6 12,9z"/>
  <path class="fil0" d="M5047 3382l-4 19c9,0 4,-10 4,-19z"/>
  <path class="fil0" d="M5650 2810c-6,-3 -11,-4 -14,-4 10,6 20,16 14,4z"/>
  <path class="fil0" d="M5108 3124c1,4 3,8 5,12 -1,-4 -2,-8 -5,-12z"/>
  <path class="fil0" d="M5626 2811c2,1 2,1 4,2 1,-3 3,-6 6,-7 -7,-4 -13,-7 -10,5z"/>
  <path class="fil0" d="M4720 2969c0,0 0,0 1,-1 -1,0 -1,1 -1,1z"/>
  <path class="fil0" d="M4822 2862c0,2 -1,4 -1,5 0,0 1,-2 1,-5z"/>
  <path class="fil0" d="M5724 2766c2,-2 -1,-1 0,0z"/>
  <path class="fil0" d="M5765 2805c0,2 0,3 2,6 -1,-3 -2,-5 -2,-6z"/>
  <path class="fil0" d="M5655 2912l0 0c2,3 2,2 0,0z"/>
  <path class="fil0" d="M5731 2770c-2,-1 -4,-2 -5,-2 1,0 2,1 5,2z"/>
  <path class="fil0" d="M5727 2765c2,0 2,0 3,0 -1,-2 -2,-3 -3,0z"/>
  <path class="fil0" d="M5720 2768c2,0 4,0 6,0 -1,-1 -2,-1 -2,-2 -1,1 -2,1 -4,2z"/>
  <path class="fil0" d="M4818 3225c0,0 0,-1 0,-1 -6,2 -5,2 0,1z"/>
  <polygon class="fil0" points="5515,3108 5514,3107 5514,3107 "/>
  <path class="fil0" d="M5514 3127c-10,-24 -6,-23 0,-20l-34 -48 34 68z"/>
  <path class="fil0" d="M5145 3352l16 14c-3,33 -17,26 2,47 -19,-61 44,-20 18,-80l12 9c-2,0 -1,4 -3,4 27,22 -11,-46 8,-45 7,2 16,8 16,16 0,0 4,-20 3,-19 3,-1 8,9 5,10l10 -12 1 2c-4,-10 -8,-26 -10,-33 8,6 2,7 8,13l-2 -17c12,13 15,30 9,31 41,52 -3,-18 31,7l-2 11c24,29 22,15 41,30 -8,-9 -45,-41 -47,-60 5,3 9,4 6,-10 13,20 13,13 18,9l16 26c0,-10 -8,-24 -13,-37 8,-1 22,19 34,35 12,-1 -27,-29 -19,-41 14,6 13,-9 12,-30 11,6 9,17 16,23l-8 -24c1,0 5,6 7,10 -1,-11 -17,-27 -15,-38 -16,-31 40,35 27,-4 7,7 9,17 17,27 -3,-29 -1,-22 -11,-57l19 13c-18,-16 -26,-44 -32,-68 -8,-8 -15,-15 -18,-19l1 -20c4,3 9,13 14,25 -1,-2 -2,-5 -2,-7 9,7 17,24 24,40 -5,-4 -9,-9 -14,-14 8,18 16,37 27,52 -2,-3 -2,-7 -2,-9 2,5 4,9 6,11 3,3 0,-3 -3,-11l21 28 -7 -12 25 10c-10,-36 -29,-84 -22,-106 10,24 22,36 37,61 -21,-24 -4,19 -15,19 6,0 12,13 14,18l-2 -34c13,21 13,14 22,20 -29,-39 -7,-34 -10,-50 9,14 17,29 8,30 27,26 -20,-55 3,-33 -1,1 -3,0 0,7 -4,-14 12,-11 17,2l-1 2c13,-3 33,-22 13,-57 3,5 24,42 28,49l-52 -126c17,30 66,95 67,117 5,2 12,5 11,-9 -5,-3 -31,-39 -30,-43 27,28 15,14 40,36 -6,-4 -31,-51 -26,-52 3,7 28,44 29,49l-17 -51c2,10 23,38 33,49 -7,-8 9,-6 9,-12l-11 -7c16,-2 -26,-69 -13,-74 4,10 31,57 40,58 -11,-24 -53,-112 -53,-134l10 11 0 -19c14,35 42,111 52,143 10,7 10,14 16,8 9,10 7,20 6,23l19 -4c-16,-25 -4,-34 -18,-54l0 38c-16,-25 -34,-78 -21,-80 9,8 25,45 31,53 -4,-9 0,-23 4,-18l4 16c12,5 -10,-39 11,-21 3,0 26,25 18,11 -21,-24 -74,-108 -84,-130 2,1 30,18 41,29 17,19 25,54 39,70 -4,-6 -6,-16 -7,-19 6,3 11,20 15,13 -14,-24 13,-6 -10,-21 2,-11 9,0 15,-5 -11,-14 -26,-55 -24,-64 3,6 9,12 12,15 13,-5 25,1 36,-6 4,5 13,8 17,19 -1,-5 -4,-14 -1,-16 18,14 -6,8 13,26 -7,-12 -2,-23 -2,-33 -13,-18 -13,3 -13,14 -17,-26 -26,-59 -21,-77 5,-11 14,14 13,10 20,-6 -11,-52 14,-41 16,12 20,30 28,40 -4,10 -18,-3 -23,1l11 3c1,7 -1,14 -7,11 14,11 31,-15 51,-11 -1,-6 0,-14 -5,-18l-3 4c-11,-9 -2,-20 -11,-23 1,-11 0,-27 12,-24l11 14c-3,-4 -11,-6 -10,0 -1,-9 25,14 16,-8l-12 -8c1,-10 -1,-29 9,-28 -12,-13 0,3 -17,-12 18,19 -20,7 2,26 -18,-18 -15,-4 -33,-19 3,5 8,9 0,9 1,1 2,4 2,5l-1 0 1 0c0,1 0,1 0,0 3,2 6,4 8,7 5,14 -5,18 -5,26 -5,-1 -2,-7 -8,-12l2 12c-9,-12 -23,-16 -19,-27l-8 3c-9,-5 -18,-6 -18,1 -6,-1 -1,19 -4,7l-7 14 -3 -3c-13,3 -10,34 -40,15 -2,5 -3,12 -13,11l-9 -12c-3,7 -24,-6 -18,9 -28,-33 -30,3 -44,1l11 18c-7,2 -10,10 -13,21l10 16c2,17 -24,-3 -33,4 -4,-6 0,-6 4,-3 -35,-31 -9,41 -37,19 1,8 -3,7 -7,4 0,0 0,-1 0,-1 -1,0 -1,0 -1,0 -3,-2 -7,-5 -10,-7 4,4 7,6 9,7 -2,2 -4,6 -4,12l-13 -18c0,1 -1,1 -1,1 -7,-5 3,10 14,23 0,4 1,8 2,14 -21,-29 -2,14 -25,-16 7,17 -9,21 10,55 -3,-4 -5,-6 -3,-7 -6,-2 -12,-3 -9,8l-17 -23 13 37c-14,-12 -22,-20 -29,-41 7,35 -2,16 6,50l-9 -16c-3,2 5,27 -5,15 -27,-26 -40,18 -78,1 34,45 -22,-16 0,21 -8,-10 -14,-15 -17,-27 -3,17 -27,-9 -14,26 -8,-10 -8,-18 -13,-24 0,3 3,12 -3,6 -5,-6 -4,-11 -6,-17 -9,8 12,44 32,78 -15,-13 -16,-9 -6,15 -8,-10 -18,-19 -15,-27 -4,1 -31,-3 -15,24 -5,-6 -6,1 -5,5 -9,3 -11,1 -17,8l5 3c17,34 -2,11 -6,19l-2 -3c-28,-14 1,15 -29,-3l13 20c25,43 -28,-18 -26,4l10 9c5,18 -49,-50 -56,-53 -4,-3 -3,-7 -3,-10 -27,-18 15,27 10,38 -10,-13 -20,-37 -28,-35 -10,-10 12,56 -13,34 9,10 17,20 18,30 -4,8 -42,-29 -26,8 -2,-3 -4,-6 -6,-8 2,10 -2,20 5,41 -19,-35 -19,-23 -21,-11 -1,11 -3,24 -15,-10l-9 8 -2 -7c-8,-3 -6,14 -6,32 -2,-4 -2,-11 -3,-15 -14,-11 -12,-7 -20,28l-2 -22c-3,13 -17,-32 -28,-7 0,-3 1,-7 2,-10 -7,13 -13,-1 -17,-10 -5,-9 -9,-10 -20,26 0,0 -14,17 -14,17 10,8 -11,31 -10,45 -7,2 -7,-27 1,-28l0 3c14,-36 -11,-17 -2,-42 -23,-5 -33,-32 -48,-42l-15 23 -6 -6c3,-6 12,-17 15,-14 8,-13 -15,5 -19,9 -1,-14 24,-20 22,-23l-5 0 -1 2c-10,6 -19,14 -23,9 1,-6 10,-12 10,-14 1,-1 1,-2 -1,-2l-6 -7 -12 15c-11,4 -6,-7 -20,11 21,-25 -14,-36 -8,-45 -15,1 -18,-5 -20,-12 -2,2 -19,11 -21,3 37,-10 12,-17 35,-29 -15,9 -13,-15 -33,-4 1,-6 13,-3 20,-8 -16,-11 -2,-28 -8,-44 -4,-1 -9,2 -15,-2l17 -7c-3,-4 -20,-6 -9,-11 -3,1 -7,2 -8,-1 8,-16 5,-34 8,-53 2,-19 11,-36 21,-51 -4,4 -3,0 -1,-4 -2,3 -2,-1 -4,-1 1,0 10,-13 10,-13 -1,-4 8,-16 8,-18l-3 4c4,-6 -8,6 -10,3 -2,8 -21,10 -25,23 -3,2 0,-3 -2,-2 -1,4 -2,7 -9,12l0 -1c-12,18 -21,23 -39,44l8 1c-4,4 -6,5 -9,6 7,9 7,-13 15,-4 -17,1 -14,34 -34,35 -3,9 11,0 8,8l-6 1 6 3c-3,5 -10,7 -15,7 1,-1 0,-4 0,-6 -9,7 -4,22 -6,24l5 -8c0,23 -12,56 4,77l5 -2c14,15 -4,15 4,34l-1 -1c6,2 10,7 11,12 -8,-3 -10,14 -20,11 18,14 12,6 39,7l-9 8c11,-1 15,-2 22,4 -12,-2 -12,14 -28,13 -12,33 36,13 10,44 32,-12 6,-27 15,-27 7,-10 23,-7 25,-1 3,5 -29,36 -18,51 -1,-2 -3,0 -4,-2 -2,12 17,2 12,19 18,-13 6,9 26,-12l-15 -6c12,2 39,-18 38,3 -4,4 -12,7 -17,8 -3,10 9,2 7,11 -20,22 -18,-8 -39,1 -5,12 27,-2 3,18 31,-25 9,18 37,1l-11 14c3,-1 11,-6 14,-3l-19 15c20,-10 6,27 20,25 -17,-13 8,-22 9,-39 31,-6 -14,50 16,59 -5,0 -8,-18 1,-22 3,6 6,16 5,27 19,7 6,-19 18,-26 -4,25 12,-4 21,-8l-7 19c15,20 19,-37 31,-16l-16 24 11 -3 -9 21c16,-12 17,-7 26,3 1,-15 11,-36 19,-34 4,13 -7,18 6,18 -5,12 -12,27 -14,7 -2,6 -6,12 -8,18 4,16 18,8 23,10 -2,-2 -4,-3 -5,-7 0,0 24,-23 24,-24 2,8 -1,14 -5,20 5,-2 9,-11 14,-12 -3,17 -4,35 -14,41l22 -16c0,8 9,23 6,29 12,12 29,-32 44,-18 0,-4 2,-7 5,-10 13,5 30,26 42,-2l16 31c12,-9 -21,-38 -2,-54 11,-12 12,26 20,34 4,-18 5,-53 26,-32 -2,7 -7,4 -10,7zm116 -72l0 0c1,5 5,20 -4,10 -12,-24 -3,-15 4,-10zm112 -136l0 0c3,8 -1,6 -8,0 0,-3 3,-4 8,0zm327 -355l0 0 1 1c-8,-3 -5,-2 -1,-1zm13 2l0 0c0,-2 -1,-4 -3,-6 2,4 0,5 -3,5 3,4 5,5 6,1zm-836 331l0 0 -3 4c-6,1 -2,-1 3,-4z"/>
  <path class="fil0" d="M5374 3182c-2,-3 -5,-7 -7,-11 1,4 3,8 7,11z"/>
  <polygon class="fil0" points="5048,3378 5048,3378 5047,3382 "/>
  <path class="fil0" d="M5663 2999c-3,-1 -6,-3 -9,-6 3,4 6,7 9,6z"/>
  <path class="fil0" d="M5749 2750l-4 5c2,-2 5,1 8,2 -2,-3 -6,-7 -4,-7z"/>
  <path class="fil0" d="M5842 2794c0,-1 1,-1 1,-2l-3 -5c-3,2 -3,8 2,7z"/>
  <path class="fil0" d="M5779 2787c7,9 8,4 11,0l-1 1c-7,-14 -9,-8 -10,-1z"/>
  <path class="fil0" d="M5791 2787c1,-1 2,-2 3,-2 -3,-6 -2,-1 -3,2z"/>
  <path class="fil0" d="M5720 2779c4,2 -7,-15 -3,-11 -7,-15 -3,23 3,11z"/>
  <polygon class="fil0" points="5802,2817 5793,2806 5797,2817 "/>
  <path class="fil0" d="M5767 2826l8 0c-1,-2 -1,-4 -1,-5 -4,2 -10,2 -7,5z"/>
  <path class="fil0" d="M5774 2821c2,-1 4,-2 4,-5 -1,1 -3,2 -4,5z"/>
  <polygon class="fil0" points="5796,2826 5793,2825 5788,2827 "/>
  <path class="fil0" d="M5699 2862l-4 8c3,6 7,8 8,5 -1,-5 1,-8 -4,-13z"/>
  <path class="fil0" d="M5744 2890c-3,-2 -5,-5 -9,-9l11 18 -2 -9z"/>
  <path class="fil0" d="M5729 2908c2,5 0,21 7,14 -2,-5 1,-14 -7,-14z"/>
  <polygon class="fil0" points="5616,2947 5617,2945 5595,2910 "/>
  <path class="fil0" d="M5588 3095c13,4 -14,-25 0,-19 -4,-10 -11,-5 -14,-14 1,12 -4,9 14,33z"/>
  <path class="fil0" d="M5574 3062c0,-2 -1,-5 -2,-8 1,3 1,6 2,8z"/>
  <polygon class="fil0" points="4832,2844 4835,2838 4833,2841 "/>
  <path class="fil0" d="M4837 2833l1 -1 2 -4c-1,1 0,1 -3,5z"/>
  <path class="fil0" d="M5309 3326l-4 -7c-5,-6 -7,-6 -10,-6l14 13z"/>
  <polygon class="fil0" points="5219,3349 5221,3348 5204,3326 "/>
  <path class="fil0" d="M5130 3416c5,1 9,-6 13,-6 -8,7 -22,-27 -13,6z"/>
 </g>
</svg>
