<?xml version="1.0" standalone="no"?>
<!DOCTYPE svg PUBLIC "-//W3C//DTD SVG 20010904//EN"
 "http://www.w3.org/TR/2001/REC-SVG-20010904/DTD/svg10.dtd">
<svg version="1.0" xmlns="http://www.w3.org/2000/svg"
 width="904.000000pt" height="1280.000000pt" viewBox="0 0 904.000000 1280.000000"
 preserveAspectRatio="xMidYMid meet">
<metadata>
Created by potrace 1.15, written by Peter Selinger 2001-2017
</metadata>
<g transform="translate(0.000000,1280.000000) scale(0.100000,-0.100000)"
fill="#000000" stroke="none">
<path d="M7944 12781 c-23 -10 -79 -52 -125 -93 -95 -85 -133 -106 -239 -138
-186 -56 -226 -108 -265 -348 -9 -51 -36 -150 -61 -220 -59 -163 -62 -227 -18
-299 l30 -49 -95 -23 c-241 -59 -721 -233 -1091 -397 -1126 -497 -2436 -1356
-3008 -1971 -55 -59 -517 -607 -1028 -1218 l-927 -1110 -96 -1 c-75 -1 -112
-7 -169 -27 -244 -85 -439 -305 -516 -582 -49 -176 -56 -275 -31 -418 29 -169
87 -294 182 -397 74 -80 144 -124 236 -146 l64 -16 -81 -102 c-396 -492 -645
-1120 -695 -1755 -105 -1315 604 -2559 1789 -3140 324 -159 642 -255 1020
-307 175 -25 604 -25 783 -1 614 82 1156 313 1632 694 141 112 365 337 478
478 568 709 813 1616 677 2509 -11 71 -20 132 -20 137 0 4 30 -6 67 -23 80
-36 187 -47 276 -28 198 41 417 231 522 451 92 195 120 447 71 642 -30 117
-92 240 -158 313 l-50 54 -259 1482 c-142 816 -268 1547 -279 1625 -34 240
-45 505 -32 718 49 744 316 1353 940 2143 l18 23 31 -45 c47 -66 90 -84 247
-100 137 -15 146 -17 326 -97 92 -40 164 -44 225 -12 22 12 75 53 118 92 90
82 118 98 247 140 190 62 205 85 206 326 1 190 7 212 84 305 105 127 95 184
-62 347 -98 101 -107 117 -138 250 -42 179 -70 197 -369 233 -79 9 -112 19
-205 62 -129 60 -188 70 -252 39z"/>
</g>
</svg>
