<?xml version="1.0" standalone="no"?>
<!DOCTYPE svg PUBLIC "-//W3C//DTD SVG 20010904//EN"
 "http://www.w3.org/TR/2001/REC-SVG-20010904/DTD/svg10.dtd">
<svg version="1.0" xmlns="http://www.w3.org/2000/svg"
 width="1280.000000pt" height="996.000000pt" viewBox="0 0 1280.000000 996.000000"
 preserveAspectRatio="xMidYMid meet">
<metadata>
Created by potrace 1.15, written by Peter Selinger 2001-2017
</metadata>
<g transform="translate(0.000000,996.000000) scale(0.100000,-0.100000)"
fill="#000000" stroke="none">
<path d="M4660 9949 c-648 -48 -1211 -191 -1780 -453 -934 -430 -1738 -1176
-2247 -2086 -99 -177 -143 -266 -227 -463 -514 -1201 -539 -2554 -71 -3762
256 -659 625 -1225 1125 -1725 564 -564 1223 -969 1975 -1213 1008 -328 2080
-328 3090 0 551 178 1069 455 1530 819 427 336 566 523 567 764 1 168 -80 318
-274 505 -173 168 -332 282 -846 609 -651 414 -900 596 -1151 841 -219 214
-328 358 -431 570 -99 204 -134 359 -133 580 1 318 90 603 297 952 298 500
822 1050 1586 1664 196 158 568 436 815 609 105 73 193 136 198 140 4 3 -66
80 -155 171 -615 620 -1329 1048 -2152 1288 -540 158 -1186 230 -1716 190z
m-4453 -3691 c-3 -8 -6 -5 -6 6 -1 11 2 17 5 13 3 -3 4 -12 1 -19z m-20 -70
c-3 -8 -6 -5 -6 6 -1 11 2 17 5 13 3 -3 4 -12 1 -19z m-10 -40 c-3 -8 -6 -5
-6 6 -1 11 2 17 5 13 3 -3 4 -12 1 -19z m20 0 c-3 -8 -6 -5 -6 6 -1 11 2 17 5
13 3 -3 4 -12 1 -19z m-30 -50 c-3 -7 -5 -2 -5 12 0 14 2 19 5 13 2 -7 2 -19
0 -25z m-10 -40 c-3 -8 -6 -5 -6 6 -1 11 2 17 5 13 3 -3 4 -12 1 -19z m20 -10
c-3 -7 -5 -2 -5 12 0 14 2 19 5 13 2 -7 2 -19 0 -25z m-30 -40 c-3 -7 -5 -2
-5 12 0 14 2 19 5 13 2 -7 2 -19 0 -25z m20 0 c-3 -8 -6 -5 -6 6 -1 11 2 17 5
13 3 -3 4 -12 1 -19z m-30 -40 c-3 -8 -6 -5 -6 6 -1 11 2 17 5 13 3 -3 4 -12
1 -19z m20 -20 c-3 -7 -5 -2 -5 12 0 14 2 19 5 13 2 -7 2 -19 0 -25z m-30 -35
c-3 -10 -5 -4 -5 12 0 17 2 24 5 18 2 -7 2 -21 0 -30z m20 -25 c-3 -7 -5 -2
-5 12 0 14 2 19 5 13 2 -7 2 -19 0 -25z m-30 -40 c-3 -7 -5 -2 -5 12 0 14 2
19 5 13 2 -7 2 -19 0 -25z m20 -30 c-2 -13 -4 -5 -4 17 -1 22 1 32 4 23 2 -10
2 -28 0 -40z m-30 -25 c-3 -10 -5 -4 -5 12 0 17 2 24 5 18 2 -7 2 -21 0 -30z
m20 -60 c-3 -10 -5 -2 -5 17 0 19 2 27 5 18 2 -10 2 -26 0 -35z m-30 5 c-3 -7
-5 -2 -5 12 0 14 2 19 5 13 2 -7 2 -19 0 -25z m-10 -80 c-2 -13 -4 -3 -4 22 0
25 2 35 4 23 2 -13 2 -33 0 -45z m30 -275 c-1 -59 -3 -13 -3 102 0 116 2 164
3 108 2 -56 2 -151 0 -210z m-40 200 c-3 -10 -5 -2 -5 17 0 19 2 27 5 18 2
-10 2 -26 0 -35z m-10 -85 c-2 -13 -4 -3 -4 22 0 25 2 35 4 23 2 -13 2 -33 0
-45z m-10 -95 c-2 -16 -4 -5 -4 22 0 28 2 40 4 28 2 -13 2 -35 0 -50z m-10
-155 c-2 -24 -4 -7 -4 37 0 44 2 63 4 43 2 -21 2 -57 0 -80z m80 -30 c-2 -13
-4 -5 -4 17 -1 22 1 32 4 23 2 -10 2 -28 0 -40z m10 -75 c-3 -10 -5 -2 -5 17
0 19 2 27 5 18 2 -10 2 -26 0 -35z m-100 -281 c-1 -53 -3 -7 -3 103 0 110 2
154 3 97 2 -57 2 -147 0 -200z m110 226 c-3 -7 -5 -2 -5 12 0 14 2 19 5 13 2
-7 2 -19 0 -25z m21 -78 c0 -9 -3 -7 -8 5 -5 11 -8 29 -8 40 0 16 2 15 8 -5 4
-14 8 -32 8 -40z m31 -115 c-1 -18 -27 59 -28 80 0 11 7 0 15 -25 7 -25 13
-49 13 -55z m25 -65 c5 -17 4 -20 -2 -10 -5 8 -13 26 -16 40 -5 17 -4 20 2 10
5 -8 13 -26 16 -40z m26 -65 c0 -5 -5 -3 -10 5 -5 8 -10 20 -10 25 0 6 5 3 10
-5 5 -8 10 -19 10 -25z m-198 -150 c4 -83 3 -108 -2 -70 -8 62 -13 211 -6 204
2 -2 6 -62 8 -134z m212 119 c3 -8 2 -12 -4 -9 -6 3 -10 10 -10 16 0 14 7 11
14 -7z m30 -61 c9 -18 14 -33 12 -33 -6 0 -36 55 -36 66 0 11 5 3 24 -33z m55
-95 c18 -28 26 -47 19 -40 -14 11 -62 92 -55 92 2 0 19 -23 36 -52z m76 -108
c10 -11 16 -20 13 -20 -3 0 -13 9 -23 20 -10 11 -16 20 -13 20 3 0 13 -9 23
-20z m-352 -75 c4 -60 3 -69 -3 -35 -9 46 -13 127 -6 119 2 -2 6 -40 9 -84z
m452 -35 c44 -44 77 -80 75 -80 -3 0 -41 36 -85 80 -44 44 -77 80 -75 80 3 0
41 -36 85 -80z m-438 -102 c-2 -13 -4 -5 -4 17 -1 22 1 32 4 23 2 -10 2 -28 0
-40z m554 -5 c13 -16 12 -17 -3 -4 -17 13 -22 21 -14 21 2 0 10 -8 17 -17z
m40 -30 c13 -16 12 -17 -3 -4 -10 7 -18 15 -18 17 0 8 8 3 21 -13z m-584 -25
c-3 -7 -5 -2 -5 12 0 14 2 19 5 13 2 -7 2 -19 0 -25z m10 -65 c-3 -10 -5 -2
-5 17 0 19 2 27 5 18 2 -10 2 -26 0 -35z m10 -55 c-3 -7 -5 -2 -5 12 0 14 2
19 5 13 2 -7 2 -19 0 -25z m42 -188 c-1 -22 -38 131 -38 155 1 11 9 -16 20
-60 10 -44 18 -87 18 -95z m14 -65 c5 -28 4 -34 -3 -20 -8 19 -14 73 -6 64 2
-2 6 -22 9 -44z m14 -67 c-3 -8 -6 -5 -6 6 -1 11 2 17 5 13 3 -3 4 -12 1 -19z
m27 -88 c4 -24 3 -29 -3 -15 -4 11 -11 36 -15 55 -4 24 -3 29 3 15 4 -11 11
-36 15 -55z m13 -62 c-3 -8 -6 -5 -6 6 -1 11 2 17 5 13 3 -3 4 -12 1 -19z m62
-192 c0 -6 -11 20 -25 58 -13 39 -24 75 -23 80 0 6 11 -20 25 -58 13 -39 24
-75 23 -80z m20 -56 c0 -10 -3 -8 -9 5 -12 27 -12 43 0 25 5 -8 9 -22 9 -30z
m45 -120 c3 -14 -2 -7 -13 15 -10 22 -21 51 -25 65 -3 14 2 7 13 -15 10 -22
21 -51 25 -65z m52 -147 c-4 -4 -36 73 -35 85 0 4 9 -13 20 -37 11 -24 18 -46
15 -48z m33 -68 c0 -5 -6 1 -14 15 -8 14 -14 30 -14 35 0 6 6 -1 14 -15 8 -14
14 -29 14 -35z m30 -70 c0 -5 -6 1 -14 15 -8 14 -14 30 -14 35 0 6 6 -1 14
-15 8 -14 14 -29 14 -35z m80 -170 c0 -5 -15 19 -34 55 -19 36 -34 70 -34 75
0 6 15 -19 34 -55 19 -36 34 -69 34 -75z m19 -40 c-3 -3 -9 2 -12 12 -6 14 -5
15 5 6 7 -7 10 -15 7 -18z m20 -40 c-3 -3 -9 2 -12 12 -6 14 -5 15 5 6 7 -7
10 -15 7 -18z m27 -45 c9 -16 13 -30 11 -30 -3 0 -12 14 -21 30 -9 17 -13 30
-11 30 3 0 12 -13 21 -30z m50 -90 c9 -16 13 -30 11 -30 -3 0 -12 14 -21 30
-9 17 -13 30 -11 30 3 0 12 -13 21 -30z m50 -90 c9 -16 13 -30 11 -30 -3 0
-12 14 -21 30 -9 17 -13 30 -11 30 3 0 12 -13 21 -30z m55 -90 c6 -11 8 -20 6
-20 -3 0 -10 9 -16 20 -6 11 -8 20 -6 20 3 0 10 -9 16 -20z m241 -357 c13 -16
12 -17 -3 -4 -10 7 -18 15 -18 17 0 8 8 3 21 -13z m30 -40 c13 -16 12 -17 -3
-4 -10 7 -18 15 -18 17 0 8 8 3 21 -13z m160 -200 c13 -16 12 -17 -3 -4 -10 7
-18 15 -18 17 0 8 8 3 21 -13z m60 -70 c13 -16 12 -17 -3 -4 -10 7 -18 15 -18
17 0 8 8 3 21 -13z m69 -78 c13 -14 21 -25 18 -25 -2 0 -15 11 -28 25 -13 14
-21 25 -18 25 2 0 15 -11 28 -25z"/>
<path d="M11892 5950 c-189 -50 -365 -192 -454 -366 -71 -137 -92 -223 -92
-374 0 -147 21 -238 85 -360 274 -528 998 -533 1274 -9 138 263 122 554 -46
829 l-21 35 22 -28 c12 -15 26 -24 31 -21 6 3 17 0 26 -8 14 -11 16 -11 8 2
-28 51 -88 118 -140 157 -178 136 -481 198 -693 143z"/>
<path d="M10255 5934 c-294 -66 -509 -296 -571 -612 -34 -175 3 -378 97 -539
48 -82 190 -222 269 -266 135 -74 288 -105 429 -88 304 38 539 253 627 571 25
89 24 289 0 380 -24 87 -60 172 -103 239 -29 47 -31 52 -11 33 14 -13 30 -22
36 -20 6 2 18 -6 27 -17 13 -16 13 -13 -2 15 -35 67 -152 172 -243 218 -167
84 -402 120 -555 86z"/>
<path d="M8623 5919 c-260 -29 -484 -205 -588 -460 -44 -109 -58 -199 -52
-333 6 -139 26 -217 90 -341 55 -106 190 -244 292 -297 220 -114 438 -117 655
-10 154 75 288 222 356 391 57 141 70 357 30 506 -18 66 -74 189 -108 238 -21
30 -21 31 -1 14 11 -10 25 -17 31 -15 6 2 18 -6 27 -17 15 -19 15 -18 1 11
-24 50 -110 138 -179 183 -144 93 -380 149 -554 130z"/>
</g>
</svg>
