<?xml version="1.0" encoding="UTF-8"?>
<!DOCTYPE svg PUBLIC "-//W3C//DTD SVG 1.1//EN" "http://www.w3.org/Graphics/SVG/1.1/DTD/svg11.dtd">
<!-- Creator: CorelDRAW X8 -->
<svg xmlns="http://www.w3.org/2000/svg" xml:space="preserve" width="8.09722in" height="7.35268in" version="1.1" style="shape-rendering:geometricPrecision; text-rendering:geometricPrecision; image-rendering:optimizeQuality; fill-rule:evenodd; clip-rule:evenodd"
viewBox="0 0 8097 7353"
 xmlns:xlink="http://www.w3.org/1999/xlink">
 <defs>
  <style type="text/css">
   <![CDATA[
    .fil1 {fill:#2A2A31;fill-rule:nonzero}
    .fil0 {fill:#46464B;fill-rule:nonzero}
   ]]>
  </style>
 </defs>
 <g id="Layer_x0020_1">
  <metadata id="CorelCorpID_0Corel-Layer"/>
  <path class="fil0" d="M6672 879c-22,-26 -24,-7 -29,-9 40,39 31,6 29,9z"/>
  <polygon class="fil0" points="7056,1287 7046,1283 7107,1341 "/>
  <path class="fil0" d="M7347 1723c-5,-54 -101,-161 -147,-242l-4 -15 -40 -25c69,91 156,211 191,282z"/>
  <path class="fil0" d="M7434 1992c1,-19 34,50 -26,-59 2,6 2,8 3,11 5,10 12,24 23,48z"/>
  <path class="fil0" d="M7411 1944c-24,-48 9,36 0,0z"/>
  <path class="fil0" d="M7523 2170l-36 -63c1,16 26,75 13,55 33,65 32,50 23,8z"/>
  <path class="fil0" d="M7566 2226l-18 -33c1,7 4,16 18,33z"/>
  <path class="fil0" d="M7510 2123l38 70c-1,-11 6,-15 -17,-32 9,3 -3,-9 -21,-38z"/>
  <path class="fil0" d="M7495 2081c-12,-39 -33,-87 7,-26 -65,-122 -70,-97 -7,26z"/>
  <path class="fil0" d="M7381 1735l-21 -51 -31 -37c16,18 48,94 52,88z"/>
  <path class="fil0" d="M7664 2593c7,3 6,-27 10,-34l-22 -49c6,27 18,77 12,83z"/>
  <path class="fil0" d="M7674 2559c0,0 9,18 16,37 7,18 14,37 14,37 -17,-69 -27,-80 -30,-74z"/>
  <path class="fil0" d="M7595 2228l-69 -114c0,0 20,34 40,69 10,17 20,34 27,47 7,13 11,22 11,22l-9 -24z"/>
  <polygon class="fil0" points="7734,2885 7714,2844 7747,2918 "/>
  <path class="fil0" d="M7769 3082c-14,-31 -9,47 -20,13 9,53 20,98 32,139 -9,-44 -11,-91 -12,-152z"/>
  <path class="fil0" d="M7797 3303c-3,-22 -9,-45 -16,-69 5,23 10,46 16,69z"/>
  <path class="fil0" d="M7736 2765c-2,6 -7,20 -1,64l7 -34c-2,-9 -4,-20 -6,-30z"/>
  <path class="fil0" d="M7742 2794l0 1c6,34 11,57 13,67 -2,-9 -6,-29 -13,-68z"/>
  <path class="fil0" d="M7734 2757c1,3 1,5 2,8 0,-4 1,-5 -2,-8z"/>
  <path class="fil0" d="M7656 2429c22,42 60,133 42,39 -19,-29 -9,25 -42,-39z"/>
  <path class="fil0" d="M7741 2715l-18 -83c-4,3 -5,19 -15,-2l33 85z"/>
  <polygon class="fil0" points="7756,2754 7741,2715 7748,2746 "/>
  <path class="fil0" d="M7797 3158c10,36 15,76 20,120 -2,-48 -6,-98 -11,-145 -4,-6 -14,-26 -9,25z"/>
  <path class="fil0" d="M7777 2981c0,2 1,5 2,7 0,-5 0,-9 -2,-7z"/>
  <polygon class="fil0" points="7818,3721 7821,3714 7818,3712 "/>
  <path class="fil0" d="M7808 3125c0,-37 -9,-58 -15,-78 5,27 11,55 13,86 3,3 4,3 2,-8z"/>
  <path class="fil0" d="M7810 3425c2,-19 3,-40 4,-63 -3,19 -8,57 -4,63z"/>
  <path class="fil0" d="M7777 3001c-1,-2 -1,-3 -2,-5 -1,12 0,10 2,5z"/>
  <path class="fil0" d="M7777 3001c5,18 10,32 16,46 -5,-21 -10,-41 -14,-59 -1,5 -1,10 -2,13z"/>
  <path class="fil0" d="M7895 3864c-12,-8 -13,-105 4,-189 -5,-83 -51,-30 -78,39 4,3 12,3 12,87 11,-28 27,-185 36,-113 1,112 -10,91 -23,145 21,-45 9,144 34,123 0,0 1,-25 2,-50 0,-25 1,-50 1,-50 4,-1 6,35 12,8z"/>
  <path class="fil0" d="M7828 3555l-2 -34c-3,39 -5,67 -19,118 3,57 7,69 11,73 0,0 3,-42 6,-84 3,-42 2,-84 2,-84l2 11z"/>
  <path class="fil0" d="M7823 3367c16,26 25,109 38,58 -6,-102 -15,-71 -24,-131 11,163 -10,-46 -12,72 -4,-32 -6,-61 -8,-88 -1,30 -1,58 -3,84 1,-1 1,-2 1,-3l0 -1 0 0c2,-7 3,-9 2,-1 0,0 0,2 0,3 2,1 4,4 6,7 0,47 -3,8 -6,-7 0,0 -1,-2 -2,-2l0 1c0,0 4,40 8,81 2,40 3,81 3,81 2,-34 4,-78 -3,-154z"/>
  <path class="fil0" d="M7754 2543c0,5 -1,6 -2,6 5,10 8,14 2,-6z"/>
  <path class="fil0" d="M7764 2611c-5,-11 -12,-19 -22,-57 -6,-34 6,-2 10,-5 -10,-21 -35,-76 -18,-3l5 10c14,66 18,153 13,142 7,-22 12,-40 12,-87z"/>
  <path class="fil0" d="M7819 2993c0,0 7,34 14,68 8,33 13,67 13,67 0,0 1,-17 2,-35 0,-18 1,-36 1,-36l-7 5c-9,-78 -16,-60 -23,-69z"/>
  <path class="fil0" d="M7810 3736l-14 -19c0,0 4,20 8,40 5,20 7,39 7,39 0,0 0,-15 0,-30 0,-15 -1,-30 -1,-30z"/>
  <path class="fil0" d="M7795 3911l-12 -8c0,0 1,12 1,23 1,12 1,24 1,24 0,0 3,-10 5,-19 3,-10 5,-20 5,-20z"/>
  <path class="fil0" d="M187 4782l-18 -38c8,18 14,30 18,38z"/>
  <path class="fil0" d="M304 5063l9 4c-10,-11 -15,-15 -9,-4z"/>
  <path class="fil0" d="M5040 6923c-60,2 -127,-1 -117,12l21 9c39,-12 69,-18 96,-21z"/>
  <path class="fil0" d="M2117 6649c4,3 9,7 13,11 15,2 30,4 42,6 -16,-6 -35,-11 -55,-17z"/>
  <path class="fil0" d="M2053 6680l-66 -45c14,11 35,26 66,45z"/>
  <path class="fil0" d="M158 3146l1 -51c-25,73 -6,43 -1,51z"/>
  <path class="fil0" d="M7114 5558c-35,36 -63,66 -85,92 44,-41 85,-72 85,-92z"/>
  <path class="fil0" d="M367 4838c-10,-22 -17,-30 -19,-29 11,23 18,35 19,29z"/>
  <path class="fil0" d="M6935 5760c7,-6 13,-11 20,-17 22,-29 46,-58 74,-93 -32,32 -69,67 -94,110z"/>
  <path class="fil0" d="M4837 112c4,1 9,1 13,2 2,-2 -4,-2 -13,-2z"/>
  <path class="fil0" d="M6425 712c-15,-8 -39,-21 -61,-33 10,7 28,17 61,33z"/>
  <path class="fil0" d="M7626 4596c12,-35 1,-6 0,0z"/>
  <path class="fil0" d="M7736 4439c-1,8 -1,15 2,17 -3,-4 -3,-10 -2,-17z"/>
  <path class="fil0" d="M6734 6090c-1,1 -2,2 -3,3 11,-6 9,-5 3,-3z"/>
  <path class="fil0" d="M7650 4545c-5,13 -12,28 -19,44 4,-7 10,-20 19,-44z"/>
  <path class="fil0" d="M7642 4550c4,-12 8,-22 11,-31 -1,-5 -3,-1 -11,31z"/>
  <path class="fil0" d="M7609 4645c7,-20 14,-39 22,-56 -3,6 -5,9 -5,7 -4,10 -9,25 -17,49z"/>
  <path class="fil0" d="M1862 1039c2,-2 5,-3 8,-4 28,-27 15,-17 -8,4z"/>
  <path class="fil0" d="M4077 7195c1,0 2,-1 4,-1 -2,0 -4,0 -6,0l2 1z"/>
  <path class="fil0" d="M3937 7203c60,-14 93,-12 138,-9l-46 -41c0,0 -22,14 -46,26 -23,12 -46,24 -46,24z"/>
  <path class="fil0" d="M44 4069c0,0 -3,25 -3,50 -1,26 -2,51 -2,51 -17,-60 -22,-112 -25,-137 -4,-25 -6,-24 -14,24 20,6 29,104 39,201 15,96 32,193 57,194l5 67c-4,-19 -7,-21 -10,-40 7,131 51,86 91,244 15,55 24,94 5,59l55 116c14,34 3,29 -11,-6 0,0 21,44 41,88 11,22 21,44 29,61 7,16 14,27 14,27l-2 -1c19,21 58,71 76,96 18,46 -16,-19 -14,-6 0,0 14,22 29,45 17,21 33,42 33,42 14,43 -46,-25 -77,-92 4,55 17,73 41,102 26,28 54,70 107,165 0,0 -16,-20 -32,-40 -16,-20 -30,-41 -30,-41 6,35 24,67 47,103 22,37 47,78 78,128 -13,-25 -102,-211 -27,-121 17,28 39,66 86,108 -11,10 30,56 79,115l-19 9c60,58 64,46 103,76 60,70 64,92 69,118 104,106 -54,-90 73,30 40,46 80,80 123,115 43,34 89,69 151,109 62,58 -20,0 0,24l70 34c14,12 6,12 2,12 55,34 16,-11 100,42 35,-3 146,149 265,193 22,21 -19,2 -16,14 151,79 131,66 260,119 0,0 24,18 49,35 24,17 48,34 48,34 -69,-55 38,-19 130,14 -24,-22 -44,-40 -58,-51 0,0 35,16 70,32 36,14 72,28 72,28 15,11 -2,11 -29,8 11,2 20,5 28,7 46,31 15,30 -26,23 -14,-12 -29,-24 -44,-36 -40,-5 -77,-11 -76,4 10,3 28,10 47,19 -10,-2 -17,-2 -14,2 4,5 20,8 45,14l22 36 12 -4c0,0 44,25 88,51 22,13 45,25 62,33 17,9 28,15 28,15 72,18 139,33 218,47 39,8 80,17 125,29 45,10 95,22 150,37 -59,-1 -20,23 -29,41 -27,-20 -70,-32 -121,-43 -50,-14 -107,-29 -162,-52 57,24 41,28 25,26 0,0 52,14 103,29 52,13 105,24 105,24 -10,14 39,26 90,50 -31,-42 160,23 246,34 3,11 -20,19 -122,-12 107,56 156,-1 262,46 -25,-6 -38,-11 -49,-7 60,6 204,37 168,40l-25 -4c84,19 214,37 326,45 113,6 207,5 220,-10 2,4 -24,33 -35,38 0,0 78,-20 155,-41 77,-23 151,-47 151,-47 -26,24 79,79 -64,94 41,2 92,9 178,-6 -28,-1 -70,-30 -33,-34 106,19 73,12 204,23 -42,-1 1,-43 66,-49 -10,7 10,36 -14,43 0,0 40,-14 80,-27 39,-15 78,-30 78,-30 -39,12 -2,32 36,36 -9,-2 26,-7 69,-13 43,-8 93,-16 114,-22l-70 5c92,-15 135,-36 176,-61 41,-25 82,-45 169,-71 -19,14 -40,61 52,39 36,-30 155,-140 296,-212l33 -1c0,0 28,-13 54,-28 27,-16 54,-31 54,-31 -56,60 -238,190 -346,249 69,-14 22,6 121,-28 39,-3 -49,32 -78,43 0,0 58,-18 117,-36 58,-21 116,-42 116,-42 -18,-14 164,-92 147,-106 0,0 -58,32 -116,63 -60,30 -120,59 -120,59 -17,-17 121,-111 277,-178 43,-11 -13,49 -7,53 18,-14 140,-84 157,-86l-60 43c91,-34 125,-98 237,-135 34,-19 116,-37 115,-52 -69,13 -118,-48 -92,-85 13,-4 184,-90 228,-105 65,-21 -54,93 1,75 -1,-6 25,-31 36,-43 36,-20 -4,26 68,-30 0,-26 149,-108 23,-40 68,-58 77,-54 158,-119 -34,10 39,-98 100,-160 0,8 20,0 29,-5 66,-60 118,-105 166,-153 50,-46 96,-94 151,-157 15,-7 71,-66 57,-33 12,-22 20,-44 52,-84 78,-67 -70,92 -4,46 -3,-6 15,-35 38,-70 22,-36 49,-79 68,-111 -15,3 -41,37 -68,78 -27,41 -58,87 -78,118 -22,-17 39,-133 128,-281 70,-118 47,-40 57,-62 144,-217 77,-211 193,-389 53,-69 33,11 53,0 -44,105 -91,148 -127,215 0,0 14,-19 27,-38 13,-20 26,-40 26,-40 -6,17 -17,43 -30,69 -13,25 -28,50 -41,66 26,-26 82,-122 140,-234 57,-113 115,-243 156,-336 7,-35 23,-95 6,-70l-20 60c-33,50 23,-118 -11,-46 11,-41 19,-85 29,-133 12,-48 25,-99 43,-156l25 -17c-6,1 -30,73 -34,106 4,-49 75,-169 59,-229 0,0 -8,20 -16,39 -7,20 -16,39 -16,39 9,-85 11,-190 32,-292 -27,43 -2,24 -36,93 42,-57 -56,260 -5,166 -46,67 -42,125 -94,213 7,-1 22,-30 -7,52 1,5 0,14 0,20 -1,3 -2,4 -3,6 1,-2 2,-3 3,-4 -1,3 0,4 0,-2 9,-19 18,-34 23,-39 4,46 -46,177 -55,225 -22,47 1,-24 -16,0l-17 70c-16,1 -76,117 -36,1 0,0 -11,26 -22,51 -10,25 -23,50 -23,50 -36,55 -77,133 -99,183 -27,44 -50,122 -37,78 0,0 -20,38 -41,76 -20,38 -41,76 -41,76l-4 -1c-93,142 -181,304 -330,434 -18,22 -35,46 -57,72 -23,25 -50,53 -85,86l-22 5c-49,55 -167,144 -183,173 -79,30 -280,220 -392,286l5 16c-74,50 -145,98 -237,161l14 9c-40,28 -95,56 -157,85 -64,27 -133,57 -203,87 7,-10 43,-23 69,-32 -176,46 -343,170 -509,196 -37,17 -66,23 -95,28 4,-2 7,-3 10,-4 -4,1 -10,3 -17,5 -18,2 -36,5 -56,7 17,0 34,-2 48,-5 -30,9 -76,23 -121,37l-23 -11c-4,1 -7,2 -11,3 -45,5 -34,16 -7,22 -23,8 -43,16 -59,23 -42,-19 -120,33 -175,14 -14,9 -72,20 -130,32 -57,12 -114,23 -125,38 -2,-3 -16,-3 10,-6 -53,3 -106,4 -152,13l-24 -18c0,0 -28,8 -56,16 -29,9 -58,15 -58,15 -70,-11 -98,-18 -30,-34 -166,26 -135,9 -278,28l8 -13c-51,-1 -134,8 -163,-5 -28,-8 -77,-16 -139,-27 -31,-4 -65,-10 -102,-15 -36,-7 -75,-14 -115,-21 -80,-13 -164,-36 -247,-55 -81,-25 -161,-47 -228,-75 42,53 -124,-58 -144,-34 -13,-14 -49,-33 -3,-24 -71,-22 -122,-45 -168,-64 -46,-19 -86,-38 -138,-46 -12,-15 34,0 22,-11 -11,-2 -46,-11 -58,-22 -12,-11 23,2 46,7 -139,-58 -163,-44 -185,-24 -64,-45 -100,-60 -156,-72 -20,-20 -55,-49 29,-7 -23,-13 -94,-54 -159,-91 -64,-39 -125,-73 -133,-65 -12,-13 -63,-40 -76,-46 -99,-67 -108,-73 -205,-139l24 22c-52,-7 -83,-53 -162,-106l4 -1c-81,-73 -99,-87 -119,-100 -18,-13 -40,-23 -113,-103l-1 20c-19,6 -52,-30 -92,-75 -41,-46 -84,-106 -133,-145l25 38c-59,-38 -97,-170 -139,-221 -7,-13 19,14 35,28 -100,-146 -31,-4 -119,-102 -6,-26 42,6 -12,-63 -11,-19 -53,-67 -102,-122 -49,-55 -95,-125 -118,-181 6,27 12,54 -24,4 -23,-41 -47,-100 -70,-158 -20,-59 -44,-114 -72,-148 -2,-12 -1,-17 1,-19 -15,-32 -40,-84 -60,-136 -19,-51 -38,-98 -51,-117 20,-40 -16,-145 -36,-246 -12,-50 -21,-99 -23,-135 -3,-37 -1,-60 12,-61 0,0 -2,-13 -3,-34 -1,-20 -2,-48 -2,-75 -1,-28 -3,-55 -3,-76 1,-20 1,-34 1,-34l5 6c7,-140 5,-190 -3,-241 7,-32 9,-8 11,-5 41,-202 43,-221 64,-395l20 -13c0,-50 112,-276 183,-466 1,3 2,8 -3,24 38,-108 114,-223 179,-321 67,-98 123,-180 124,-231 0,0 19,-33 37,-66 19,-33 40,-65 40,-65 -121,155 -4,-39 -60,20 45,-64 136,-148 81,-71l-12 10c2,24 40,-24 83,-73 42,-49 86,-101 92,-92 252,-293 545,-532 838,-740l-48 5 104 -72c30,-14 46,-10 -27,41 45,-17 117,-95 117,-100 152,-89 -42,61 3,31l60 -41 -15 7c44,-41 43,-53 136,-108 61,-31 37,-5 61,-19 1,2 8,-3 36,-20l139 -75 -64 14c56,-43 132,-69 57,-54 55,-11 188,-76 318,-135 66,-28 130,-55 182,-78 53,-20 93,-34 109,-38 44,-24 89,-43 138,-61 48,-18 100,-36 158,-51 -30,5 -53,-10 48,-38 -25,51 189,-33 278,-20 -39,-2 33,-19 99,-35 66,-18 129,-29 68,-35 86,-11 8,16 74,15 201,-52 451,-50 704,-56 4,-5 -39,-14 16,-23 0,0 33,8 67,15 33,6 66,16 66,16 50,0 48,-31 139,-6 -13,-6 -32,-14 2,-14 248,31 499,68 746,134 247,66 488,162 699,301 -56,-40 -14,-22 32,3 -29,-18 7,-12 5,-22 0,0 44,30 88,61 44,29 85,62 85,62 22,1 71,31 118,59 46,30 88,61 103,59l-57 -36c44,16 26,-13 0,-49 -27,-34 -63,-73 -49,-83 -51,-15 -101,-61 -164,-104 -31,-22 -64,-45 -100,-65 -36,-20 -76,-34 -118,-44 -31,-22 33,5 18,-10 -45,-7 -91,-28 -177,-69l11 1c-249,-98 -354,-150 -647,-229l18 20c-62,-18 -75,-23 -104,-33 -39,4 6,13 51,23 46,10 91,23 55,27 -38,-26 -150,-48 -259,-67 -55,-9 -109,-17 -152,-26 -44,-7 -78,-15 -91,-25 -100,-10 27,21 -72,11l-26 -12 -26 11c-65,-5 -98,-19 -100,-27 16,1 46,0 63,0 -85,-18 -241,-3 -270,-7l97 7c-273,3 -608,21 -863,90l21 4c-97,24 -136,33 -178,38 -43,5 -87,13 -193,43l7 -4c-41,17 -96,38 -154,54 51,-23 -104,14 -37,-15 -203,80 -100,43 -226,116l-35 0c-41,28 -44,33 -144,77 79,-45 -71,10 17,-42 -111,33 -188,72 -249,107 -61,34 -108,61 -164,68 -39,39 7,21 57,-3 50,-24 105,-51 80,-35 49,-11 -68,58 -133,89 -65,32 -131,19 -291,112 16,-9 15,-13 31,-21 -63,28 -110,79 -189,113 -29,43 -94,59 -91,88 0,0 35,-24 69,-49 35,-24 70,-48 70,-48 -77,58 -136,130 -273,210 7,-11 42,-44 66,-65 -42,20 -70,55 -113,77 -4,-29 163,-125 240,-196 -48,17 -152,123 -125,71 -40,72 -152,102 -235,201l-3 -17c-14,13 -42,44 -71,68l40 -58c-69,78 -163,112 -230,185 154,-136 47,-16 120,-64 -176,181 -139,62 -338,265 25,-30 110,-93 72,-47 -42,34 -95,82 -124,100 -129,137 31,-10 -18,54 -58,33 -56,73 -107,137l-12 -10c-145,157 -13,63 -142,205 0,0 8,-20 16,-39 9,-19 17,-38 17,-38 0,0 -15,19 -29,40 -14,21 -28,42 -28,42l-2 -28c-56,95 -79,120 -145,205 25,-13 14,26 -36,106 -42,49 7,-38 -63,76 8,-31 15,-66 59,-107 -1,-8 8,-31 7,-38 -46,53 -98,145 -121,188 10,-16 21,-35 30,-43 0,0 -20,45 -40,90 -10,22 -20,44 -27,61 -8,17 -12,29 -12,29 -19,24 -12,0 -5,-24 -17,36 -23,64 -48,116 -5,-19 -18,-22 15,-98 0,0 -19,43 -37,86 -19,43 -35,87 -35,87 -10,9 -54,81 -48,57 -51,93 -74,245 -125,373 0,8 -1,23 -7,51 -10,31 -20,61 -30,91 -8,30 -17,61 -25,91 -18,62 -27,130 -31,207 0,0 -10,20 -17,42 -8,21 -16,42 -16,42 -7,121 41,-114 29,86 -1,141 -22,51 -31,101 4,36 11,85 18,140 3,28 5,58 6,89 1,30 2,62 0,95 -7,-42 -9,-76 -11,-117zm499 1377l0 0c-19,-22 -61,-63 -65,-85 34,17 41,42 65,85zm1752 1323l0 0c-21,-5 -49,-21 -79,-42 24,10 51,24 79,42zm5183 -1792l0 0c0,1 0,2 -1,3 -32,52 -20,34 1,-3zm61 -111l0 0c3,-13 1,-13 -4,-9 1,10 -11,36 -26,64 7,-6 17,-19 30,-55zm-5277 -3958l0 0 -23 9c45,-33 34,-20 23,-9z"/>
  <path class="fil0" d="M2061 6677c-6,-6 -7,-10 -7,-13 -11,-3 -13,0 7,13z"/>
  <path class="fil0" d="M158 3156l1 -5c0,-2 -1,-4 -1,-5l0 10z"/>
  <path class="fil0" d="M6368 6465c-23,14 -38,19 -48,22 1,4 14,1 48,-22z"/>
  <path class="fil0" d="M7726 4224c0,0 -2,20 -6,40 -5,20 -9,40 -9,40 9,-38 17,-51 23,-70 -4,1 -13,15 -8,-10z"/>
  <path class="fil0" d="M7903 3533c-2,-12 0,-26 -2,-38l-7 4c0,51 6,87 9,34z"/>
  <path class="fil0" d="M7793 4162c14,-4 21,-55 27,-112l-2 10c-16,-20 -17,41 -25,102z"/>
  <path class="fil0" d="M7822 4037c2,-18 4,-36 8,-53 -7,-7 -5,21 -8,53z"/>
  <path class="fil0" d="M7594 4714c12,-24 -10,-21 0,-34 -3,-33 -49,174 0,34z"/>
  <polygon class="fil0" points="7845,4125 7825,4142 7831,4176 "/>
  <path class="fil0" d="M7718 4564l32 -87c-3,1 -1,-11 2,-25 -17,54 -39,112 -34,112z"/>
  <path class="fil0" d="M7752 4452c10,-28 16,-56 18,-73 -4,16 -12,49 -18,73z"/>
  <path class="fil0" d="M7824 4250l-9 26 -18 63c0,0 7,-22 14,-45 8,-22 13,-44 13,-44z"/>
  <path class="fil0" d="M7271 5447c0,0 -12,22 -27,42 -14,21 -28,42 -28,42 -1,12 18,-8 38,-40 12,-21 30,-54 17,-44z"/>
  <path class="fil0" d="M7473 5211c-17,22 -21,22 -34,33l16 13 18 -46z"/>
  <path class="fil0" d="M7318 5466c0,12 -73,130 2,24 1,-12 54,-100 -2,-24z"/>
  <polygon class="fil0" points="6206,6507 6227,6492 6206,6467 "/>
  <path class="fil0" d="M4991 7109c121,-22 24,-26 133,-45 26,-14 -89,16 -63,2 -69,25 -108,30 -70,43z"/>
  <path class="fil0" d="M5061 7066c11,-5 23,-9 35,-14 -19,7 -29,11 -35,14z"/>
  <polygon class="fil0" points="6653,869 6712,918 6678,881 "/>
  <path class="fil0" d="M6787 932l2 27 49 11c-15,-10 -43,-27 -51,-38z"/>
  <path class="fil0" d="M644 5646l7 2c-3,-13 -14,-28 -37,-58l30 56z"/>
  <polygon class="fil0" points="136,4693 141,4711 149,4672 "/>
  <path class="fil0" d="M7 3790c-3,37 0,81 -3,119 0,-82 27,-128 3,-119z"/>
  <path class="fil0" d="M1359 6253c23,26 28,3 35,4 -44,-38 -38,1 -35,-4z"/>
  <polygon class="fil0" points="944,5859 957,5862 888,5808 "/>
  <path class="fil0" d="M639 5420c-3,31 26,71 58,114 33,44 70,90 94,132l3 17 48 19c-73,-90 -168,-208 -203,-282z"/>
  <path class="fil0" d="M571 5136c-5,22 -37,-49 25,60 -2,-6 -2,-8 -2,-12 -5,-10 -12,-24 -23,-48z"/>
  <path class="fil0" d="M594 5184c25,49 -6,-37 0,0z"/>
  <path class="fil0" d="M480 4957l39 62c1,-17 -22,-77 -7,-57 -35,-65 -37,-49 -32,-5z"/>
  <path class="fil0" d="M429 4903l20 33c0,-7 -3,-17 -20,-33z"/>
  <path class="fil0" d="M490 5006l-41 -70c-2,12 -11,18 18,33 -13,-2 3,8 23,37z"/>
  <path class="fil0" d="M503 5049c9,41 30,90 -14,29 67,124 78,95 14,-29z"/>
  <path class="fil0" d="M594 5414c0,0 5,14 10,27 4,14 10,27 10,27l36 35c-19,-17 -49,-97 -56,-89z"/>
  <path class="fil0" d="M351 4527c-8,-2 -13,28 -20,36l23 49c-2,-28 -13,-79 -3,-85z"/>
  <path class="fil0" d="M331 4563c0,0 -9,-18 -16,-37 -8,-19 -15,-38 -15,-38 13,71 25,81 31,75z"/>
  <path class="fil0" d="M388 4906l77 112c0,0 -22,-34 -44,-68 -11,-17 -22,-34 -30,-47 -7,-13 -12,-22 -12,-22l9 25z"/>
  <polygon class="fil0" points="293,4231 317,4272 278,4197 "/>
  <path class="fil0" d="M266 4032c17,32 21,-47 32,-13 -5,-53 -19,-99 -32,-140 8,44 9,91 0,153z"/>
  <path class="fil0" d="M250 3809c3,22 8,45 16,70 -5,-24 -8,-47 -16,-70z"/>
  <path class="fil0" d="M274 4354c3,-7 12,-21 10,-66l-15 35c1,9 3,20 5,31z"/>
  <path class="fil0" d="M268 4324l1 -1c-5,-34 -9,-57 -11,-68 2,9 5,30 10,69z"/>
  <path class="fil0" d="M275 4362c-1,-3 -1,-5 -1,-8 -2,3 -2,5 1,8z"/>
  <path class="fil0" d="M335 4698c-24,-42 -65,-135 -54,-37 23,29 17,-27 54,37z"/>
  <path class="fil0" d="M257 4406l15 84c5,-2 9,-19 20,2l-35 -86z"/>
  <path class="fil0" d="M242 4366c0,0 3,10 7,20 4,10 8,20 8,20l-5 -32 -10 -8z"/>
  <path class="fil0" d="M234 3954c-10,-36 -16,-77 -15,-122 -6,49 -3,99 -1,147 6,7 19,27 16,-25z"/>
  <path class="fil0" d="M243 4134c-1,-2 -2,-5 -2,-8 -1,6 -2,10 2,8z"/>
  <polygon class="fil0" points="251,3385 246,3392 249,3394 "/>
  <path class="fil0" d="M214 3988c-3,37 4,58 13,78 -5,-27 -8,-56 -9,-87 -4,-3 -6,-3 -4,9z"/>
  <path class="fil0" d="M242 3685c-6,18 -9,40 -13,62 7,-18 17,-56 13,-62z"/>
  <path class="fil0" d="M245 4113c1,2 1,4 2,6 3,-13 1,-11 -2,-6z"/>
  <path class="fil0" d="M245 4113c-5,-18 -12,-32 -18,-47 4,23 9,43 14,60 1,-4 2,-9 4,-13z"/>
  <path class="fil0" d="M143 3226c19,11 14,111 -15,194 3,86 74,37 118,-28 -7,-4 -18,-5 -13,-91 -18,27 -52,185 -60,110 5,-115 22,-91 41,-144 -16,21 -18,-16 -21,-57 -3,-41 -3,-84 -23,-76 0,0 -3,25 -6,51 -2,26 -3,51 -3,51 -6,1 -8,-37 -18,-10z"/>
  <path class="fil0" d="M225 3552l0 34c5,-39 16,-66 38,-116 -2,-58 -8,-71 -14,-76 0,0 -6,43 -12,85 -7,42 -10,85 -10,85l-2 -12z"/>
  <path class="fil0" d="M217 3742c-23,-28 -25,-112 -52,-62 -1,104 17,73 25,135 -4,-166 11,47 24,-72 3,33 4,62 5,89 3,-30 6,-58 10,-85 0,2 -1,3 -1,4l0 1 0 0c-3,7 -5,9 -3,1 0,-1 0,-3 0,-3 -3,-2 -6,-5 -8,-8 5,-47 5,-7 8,8 1,0 2,1 3,2l0 -1c0,0 -1,-10 -2,-26 -1,-15 -2,-36 -1,-56 0,-41 0,-83 0,-83 -4,35 -11,79 -8,156z"/>
  <path class="fil0" d="M212 4587c0,-6 2,-6 3,-7 -6,-10 -9,-13 -3,7z"/>
  <path class="fil0" d="M208 4516c5,11 15,19 23,58 4,35 -10,3 -16,6 12,22 38,78 27,2l-6 -10c-9,-69 -3,-159 3,-148 -14,23 -24,43 -31,92z"/>
  <path class="fil0" d="M181 4121c0,0 -7,-34 -13,-69 -6,-34 -9,-69 -9,-69 0,0 -4,18 -8,36 -4,18 -6,36 -6,36l10 -4c5,80 16,61 26,70z"/>
  <path class="fil0" d="M263 3372l20 21c0,0 -6,-21 -10,-41 -4,-21 -8,-42 -8,-42l-2 62z"/>
  <polygon class="fil0" points="293,3196 310,3207 310,3159 "/>
  <path class="fil0" d="M7932 2967l14 41c-5,-20 -10,-32 -14,-41z"/>
  <path class="fil0" d="M7855 2664l-11 -4c9,12 14,17 11,4z"/>
  <path class="fil0" d="M3343 327c62,3 132,19 121,-1l-22 -18c-40,11 -71,17 -99,19z"/>
  <path class="fil0" d="M6296 741c-4,-5 -7,-11 -11,-16 -16,-2 -32,-4 -46,-5 17,6 37,12 57,21z"/>
  <path class="fil0" d="M6381 694l59 59c-12,-15 -31,-34 -59,-59z"/>
  <path class="fil0" d="M7964 4663l11 54c16,-78 -2,-46 -11,-54z"/>
  <path class="fil0" d="M1142 1596c42,-31 73,-58 98,-83 -51,36 -100,59 -98,83z"/>
  <path class="fil0" d="M7686 2902c10,23 16,32 21,30 -10,-24 -17,-37 -21,-30z"/>
  <path class="fil0" d="M1345 1410c-8,5 -15,10 -23,15 -25,28 -50,56 -82,88 37,-27 79,-58 105,-103z"/>
  <path class="fil0" d="M3047 7226c-4,-2 -9,-4 -13,-6 -2,2 4,4 13,6z"/>
  <path class="fil0" d="M1530 6335c15,8 39,23 61,36 -10,-8 -28,-19 -61,-36z"/>
  <path class="fil0" d="M534 2524c-15,35 -1,6 0,0z"/>
  <path class="fil0" d="M382 2661c1,-9 1,-16 -3,-19 3,5 4,11 3,19z"/>
  <path class="fil0" d="M1549 1057c1,0 2,-1 3,-2 -12,4 -10,4 -3,2z"/>
  <path class="fil0" d="M500 2571c9,-11 18,-25 27,-41 -5,7 -13,19 -27,41z"/>
  <path class="fil0" d="M513 2568c-7,12 -11,21 -15,30 1,6 4,2 15,-30z"/>
  <path class="fil0" d="M556 2476c-9,20 -19,37 -29,54 5,-6 7,-8 7,-6 4,-10 11,-24 22,-48z"/>
  <path class="fil0" d="M6229 6832c-3,1 -6,2 -9,2 -31,28 -16,18 9,-2z"/>
  <path class="fil0" d="M4333 9c-1,0 -3,1 -4,1 2,0 4,1 6,1l-2 -2z"/>
  <path class="fil0" d="M4479 0c-63,23 -98,19 -144,11l45 63 99 -74z"/>
  <path class="fil0" d="M8031 3706c0,0 5,-25 7,-51 3,-26 7,-52 7,-52 39,122 26,214 52,116 -32,-7 -39,-106 -47,-206 -11,-99 -25,-198 -58,-201l4 -68c2,19 7,21 9,40 10,-134 -59,-89 -83,-254 -6,-59 -5,-101 10,-63 0,0 -10,-32 -22,-62 -12,-31 -24,-62 -24,-62 -8,-37 6,-31 14,6 0,0 -13,-48 -28,-95 -15,-48 -30,-95 -30,-95l2 1c-18,-25 -52,-81 -69,-108 -8,-50 14,22 18,7l-51 -98c2,-49 47,32 70,105 27,-119 -42,-82 -90,-303l47 95c5,-39 -4,-76 -16,-119 -14,-42 -33,-89 -47,-148 1,32 44,241 -20,138 -10,-33 -26,-75 -65,-128 22,-11 -13,-65 -51,-134l30 -10c-47,-73 -60,-58 -97,-95 -45,-84 -34,-114 -30,-143 -80,-133 25,109 -79,-40 -29,-57 -62,-101 -99,-145 -36,-44 -81,-86 -136,-139 -49,-76 24,0 11,-30 0,0 -18,-12 -35,-23 -18,-11 -36,-21 -36,-21 -13,-15 -3,-15 2,-15 -52,-43 -27,16 -103,-54 -21,1 -50,-44 -88,-99 -38,-54 -87,-117 -149,-144 -18,-27 24,-4 25,-19 -148,-98 -127,-85 -260,-148 0,0 -21,-23 -42,-46 -22,-22 -44,-43 -44,-43 60,71 -51,26 -144,-12 19,27 35,51 47,65 0,0 -34,-19 -69,-38 -34,-19 -70,-36 -70,-36 -13,-14 6,-15 35,-12 -10,-4 -20,-7 -28,-9 -42,-40 -8,-40 36,-33 13,16 26,32 38,47 42,7 85,11 88,-9 -10,-3 -28,-12 -47,-23 11,2 19,2 17,-4 -3,-5 -20,-10 -47,-17l-11 -49 -15 7c0,0 -42,-33 -84,-66 -21,-17 -42,-33 -58,-44 -17,-11 -28,-19 -28,-19 -75,-22 -146,-38 -228,-56 -40,-8 -82,-21 -129,-33 -47,-12 -97,-27 -152,-47 63,-1 27,-34 41,-60 48,54 177,59 285,122 -57,-32 -38,-38 -21,-36 0,0 -53,-18 -106,-36 -54,-15 -107,-30 -107,-30 14,-20 -36,-36 -87,-67 12,30 -30,24 -85,7 -28,-8 -60,-18 -90,-28 -30,-8 -59,-15 -81,-18 -1,-16 26,-29 128,12 -51,-40 -94,-36 -135,-33 -42,3 -82,5 -135,-24 26,6 39,12 51,7 -64,-3 -209,-50 -171,-55l26 6c-43,-14 -98,-25 -156,-36 -30,-5 -60,-11 -90,-16 -30,-3 -60,-7 -89,-10 -116,-13 -215,-6 -229,12 -2,-6 27,-48 39,-55 0,0 -21,7 -52,17 -30,10 -71,25 -111,41 -40,16 -79,31 -109,43 -29,12 -48,21 -48,21 28,-35 -78,-122 70,-139 -42,-8 -96,-12 -185,0 29,5 72,52 33,55 -108,-40 -75,-20 -210,-48 44,6 -1,63 -68,67 9,-10 -11,-55 14,-63l-164 71c41,-14 2,-48 -38,-58 20,9 -146,19 -190,33 0,0 18,0 36,0 19,1 37,1 37,1 -191,24 -173,107 -355,147 19,-16 39,-81 -58,-65 -37,39 -153,181 -298,254l-35 -5 -111 61c56,-67 237,-227 349,-291 -73,8 -25,-14 -128,20 -41,-3 49,-41 80,-49 0,0 -61,14 -122,32 -31,9 -61,18 -84,24 -23,7 -38,12 -38,12 21,27 -171,98 -151,121 0,0 15,-9 38,-21 23,-12 53,-27 84,-43 60,-33 123,-61 123,-61 20,27 -119,136 -282,198 -47,6 8,-67 1,-76 -17,20 -148,85 -165,86 0,0 15,-12 31,-24 15,-11 31,-23 31,-23 -96,30 -129,105 -249,132 -37,17 -129,19 -126,40 78,1 142,99 118,143 -14,3 -200,70 -248,80 -73,11 48,-112 -13,-104 2,9 -23,38 -35,49 -40,17 1,-33 -76,20 4,35 -159,103 -22,47 -70,60 -84,49 -171,111 40,-2 -34,116 -99,178 -1,-10 -23,-6 -34,-4 -73,57 -130,98 -185,142 -55,42 -107,86 -169,146 -18,4 -83,58 -68,22 -13,22 -21,47 -57,86 -93,55 79,-89 -1,-56 5,9 -14,39 -40,74 -25,36 -56,78 -76,111 19,1 49,-31 79,-71 31,-40 65,-87 87,-119 30,29 -32,152 -132,298 -81,116 -59,31 -70,54 -169,205 -79,220 -224,385 -67,60 -47,-25 -73,-18 54,-104 111,-141 156,-204 0,0 -17,18 -34,35 -16,18 -32,37 -32,37 13,-36 53,-103 85,-132 -16,11 -41,40 -71,78 -29,40 -64,90 -100,144 -67,111 -143,237 -197,326 -9,37 -28,98 -5,76l25 -61c44,-44 -27,123 18,54 -26,84 -42,181 -96,290l-36 11c10,0 43,-69 49,-104 -4,26 -30,66 -52,108 -22,43 -44,87 -32,119 0,0 10,-19 23,-37 12,-18 24,-36 24,-36 -8,42 -11,92 -17,143 -7,50 -16,102 -32,153 41,-39 1,-25 55,-88 -30,25 -10,-39 8,-99 17,-60 40,-114 0,-72 64,-59 59,-121 131,-200 -10,-1 -31,25 8,-54 -1,-5 -1,-15 -1,-22 2,-2 2,-3 3,-5 -1,2 -2,3 -3,4 1,-4 0,-4 -1,2 -12,17 -23,31 -31,35 -6,-50 58,-178 70,-226 29,-45 -1,24 23,4l18 -72c23,4 99,-106 51,10 0,0 14,-25 27,-49 15,-24 29,-48 29,-48 23,-25 46,-56 67,-87 23,-30 42,-61 54,-87 32,-42 56,-123 43,-76 0,0 23,-37 47,-75 11,-18 23,-37 32,-51 9,-14 15,-23 15,-23l6 2c107,-134 204,-299 375,-409 38,-45 77,-92 156,-151l26 1c53,-54 185,-129 200,-162 93,-11 301,-202 421,-260l-9 -24c80,-44 152,-94 248,-154l-16 -16c79,-62 234,-96 376,-156 -7,12 -43,25 -71,31 187,-24 353,-173 526,-180 38,-20 69,-25 98,-25 -3,1 -7,2 -9,3 4,-1 10,-2 16,-4 19,0 39,-1 59,-1 -18,-2 -35,-2 -50,-1 32,-7 78,-22 124,-37l25 19c3,-1 6,-1 10,-2 48,0 35,-18 7,-31 23,-8 44,-17 60,-26 44,29 123,-33 180,0 29,-27 237,-41 260,-83 2,5 17,7 -9,9 54,2 107,4 155,-10l24 29 117 -40c71,18 100,31 29,52 85,-16 120,-16 152,-18 31,-3 59,-4 134,-14l-9 18c51,4 137,-13 166,9 55,25 197,47 357,88 162,37 340,101 472,170 -31,-75 116,78 145,42 10,19 44,42 -4,34 142,52 193,116 301,136 8,20 -38,1 -29,16 12,3 48,13 57,28 9,14 -25,-1 -48,-8 67,35 108,50 137,50 29,0 45,-14 60,-27 58,57 91,77 152,89 15,27 44,64 -37,12 21,17 88,66 147,115 60,48 118,89 130,79 9,16 56,51 69,58 91,82 98,90 185,173l-20 -27c59,7 80,62 147,131l-4 0c65,90 82,106 99,123 17,17 35,32 89,128l12 -24c26,-7 49,37 76,94 28,57 54,129 97,176l-13 -45c27,24 37,75 44,127 7,52 11,104 23,136 3,16 -17,-17 -30,-34 56,172 38,6 106,122 -4,29 -50,-11 -16,72 7,44 157,217 165,347 3,-30 6,-60 35,-4 19,45 27,110 37,174 12,63 24,124 53,161 0,13 -2,18 -5,19 14,35 31,92 47,146 17,54 34,104 47,125 -34,40 -6,151 14,255 21,105 36,202 0,203 0,0 1,14 2,35 1,21 2,49 3,77 1,29 2,57 3,78 0,21 0,35 0,35l-8 -6c-7,144 6,196 20,248 -7,33 -12,8 -16,5 -33,210 -35,228 -28,411l-27 13c1,25 -22,98 -53,189 -17,46 -32,96 -49,147 -18,51 -31,103 -42,154 -2,-3 -4,-8 -2,-25 -14,57 -37,116 -64,174 -30,57 -60,114 -91,165 -32,51 -58,99 -77,140 -20,41 -29,77 -21,107 0,0 -14,37 -32,71 -16,35 -33,70 -33,70 117,-162 15,46 73,-15 -20,35 -54,74 -78,93 -24,19 -35,19 -8,-21l12 -10c-14,-54 -162,189 -186,162 -125,150 -268,276 -425,386 -152,114 -313,210 -470,302 0,0 14,3 27,5 14,3 27,5 27,5 0,0 -7,4 -17,10 -11,6 -25,13 -39,21 -28,15 -57,30 -57,30 -33,9 -53,-3 28,-46 -52,5 -126,89 -125,97 -168,64 44,-68 -6,-45 0,0 -16,9 -33,18 -16,8 -32,17 -32,17l16 -4c-47,39 -45,57 -146,101 -67,20 -41,-7 -67,2 -1,-2 -10,0 -39,15 0,0 -37,15 -74,30 -38,12 -76,25 -76,25l70 5c-63,37 -144,49 -63,54 -59,-3 -204,40 -345,76 -140,36 -278,63 -312,62 -47,21 -97,30 -149,40 -52,10 -107,15 -169,18 31,4 53,34 -54,39 34,-66 -197,-16 -283,-64 38,16 -37,18 -107,21 -70,4 -134,3 -75,29 -88,-10 -5,-25 -71,-43 -212,15 -460,-56 -714,-100 -6,8 34,30 -23,30 0,0 -31,-17 -63,-35 -31,-17 -62,-36 -62,-36 -50,-8 -58,37 -141,-15 11,10 27,25 -7,19 -241,-86 -490,-163 -733,-264 -242,-100 -478,-223 -677,-392 50,51 10,28 -36,0 28,22 -12,18 -12,31 0,0 -43,-34 -83,-72 -41,-36 -82,-73 -82,-73 -51,5 -191,-132 -226,-122l58 37c-97,-25 57,141 20,171 108,26 197,208 378,244 28,28 -36,-3 -24,17 49,4 95,28 178,82l-12 -1c246,124 343,194 627,323l-13 -30c61,27 72,38 99,54 84,-5 -174,-68 -95,-79 32,38 142,80 250,118 107,38 213,70 234,104 99,29 -21,-34 77,-5l23 21 30 -12c64,20 93,46 92,58 -15,-5 -46,-8 -63,-11 81,40 243,50 271,62l-95 -30c276,49 617,112 891,90l-20 -12c103,-5 144,-5 188,1 44,5 91,9 204,0l-8 2c45,-11 105,-22 167,-26 -56,18 110,15 36,36 222,-46 110,-30 251,-89l36 12c47,-25 49,-35 159,-60 -88,32 77,14 -21,53 121,-5 206,-36 273,-63 68,-28 120,-48 181,-37 44,-43 -6,-30 -62,-17 -56,15 -116,35 -88,22 -54,-2 76,-60 147,-79 71,-26 145,23 322,-55 -18,7 -18,11 -35,19 35,-8 67,-26 100,-43 32,-19 67,-38 111,-48 31,-49 105,-48 99,-90 0,0 -10,6 -24,14 -14,8 -33,19 -53,29 -38,21 -77,42 -77,42 43,-26 80,-59 126,-92 45,-36 97,-72 174,-101 -7,13 -44,45 -71,66 47,-14 78,-49 125,-66 5,21 -41,50 -98,81 -56,33 -123,70 -166,105 56,-6 167,-120 139,-56 22,-43 64,-64 113,-87 47,-26 102,-54 146,-105l5 24c16,-14 46,-46 77,-68 0,0 -10,16 -20,32 -9,17 -20,32 -20,32 38,-40 81,-66 127,-88 46,-24 93,-45 128,-83 -171,128 -55,6 -138,45 50,-43 83,-68 109,-84 27,-16 48,-22 69,-28 44,-12 94,-21 202,-127 -28,30 -123,90 -82,40 45,-34 108,-76 141,-93 137,-144 -38,5 11,-65 67,-28 61,-76 110,-147l18 15c80,-79 78,-100 76,-117 -2,-17 -6,-31 62,-104l-25 86 57 -88 8 33c26,-52 43,-86 64,-117 21,-31 44,-60 75,-107 -27,14 -29,-34 20,-119 43,-53 2,44 63,-81 -2,34 1,75 -49,117 4,9 -3,35 0,44 54,-54 90,-161 114,-206 -10,17 -22,38 -30,47 0,0 4,-12 10,-31 6,-18 14,-43 20,-68 13,-49 26,-99 26,-99 21,-26 18,0 14,26 15,-38 16,-69 35,-126 12,21 33,26 8,109 0,0 4,-12 9,-29 5,-18 11,-42 17,-66 13,-47 25,-94 25,-94 13,-10 53,-88 52,-62 22,-50 35,-116 44,-187 4,-35 10,-71 17,-107 5,-36 13,-71 24,-106 -2,-8 -2,-23 1,-53 16,-65 30,-127 46,-191 11,-66 19,-135 13,-215l41 -87c1,-125 -51,118 -51,-88 -7,-145 31,-53 42,-104 -7,-37 -20,-87 -30,-144 -8,-57 -11,-121 -3,-189 9,44 8,79 11,120zm-345 -1474l0 0c18,24 53,74 48,99 -38,-21 -34,-50 -48,-99zm-1550 -1648l0 0c22,5 48,26 75,54 -24,-13 -50,-30 -75,-54zm-5420 1566l0 0c1,-1 1,-2 1,-3 41,-47 25,-31 -1,3zm-75 105l0 0c-4,13 -1,14 5,11 -1,-11 14,-36 33,-63 -10,5 -23,17 -38,52zm5143 4616l0 0 26 -4c-50,28 -38,16 -26,4z"/>
  <path class="fil0" d="M6371 699c4,8 3,13 2,17 12,4 15,0 -2,-17z"/>
  <path class="fil0" d="M7962 4653l-1 4c1,3 2,5 3,6l-2 -10z"/>
  <path class="fil0" d="M1934 674c25,-12 41,-16 52,-18 -2,-6 -15,-3 -52,18z"/>
  <path class="fil0" d="M398 2889l22 -79c-13,38 -22,49 -33,67 6,0 19,-12 11,12z"/>
  <path class="fil0" d="M111 3565c2,13 -1,27 1,39l11 -2c3,-53 -3,-91 -12,-37z"/>
  <path class="fil0" d="M301 2938c-20,1 -31,53 -42,110l3 -10c22,24 29,-38 39,-100z"/>
  <path class="fil0" d="M257 3062c-4,18 -7,36 -13,53 10,9 8,-21 13,-53z"/>
  <path class="fil0" d="M574 2405c-18,22 14,27 0,37 7,38 60,-174 0,-37z"/>
  <polygon class="fil0" points="225,2965 254,2952 245,2914 "/>
  <path class="fil0" d="M403 2531l-43 85c4,0 2,12 -2,27 23,-54 52,-111 45,-112z"/>
  <path class="fil0" d="M358 2643c-12,27 -23,54 -25,72 5,-16 18,-49 25,-72z"/>
  <polygon class="fil0" points="256,2839 270,2814 295,2751 "/>
  <path class="fil0" d="M949 1676c0,0 15,-22 31,-42 16,-20 32,-41 32,-41 1,-13 -22,4 -45,36 -13,22 -34,54 -18,47z"/>
  <path class="fil0" d="M704 1884c21,-20 26,-18 42,-26l-22 -20 -20 46z"/>
  <path class="fil0" d="M885 1637c-1,-14 82,-132 -4,-29 -1,13 -62,100 4,29z"/>
  <polygon class="fil0" points="2116,663 2094,676 2122,717 "/>
  <path class="fil0" d="M3382 59c-127,15 -23,36 -138,47 -26,18 94,-10 67,7 71,-30 112,-28 71,-54z"/>
  <path class="fil0" d="M3311 113c-12,5 -24,10 -36,16 20,-8 30,-12 36,-16z"/>
  <path class="fil0" d="M1311 6153c0,0 -14,-13 -29,-27 -14,-13 -27,-27 -27,-27 0,0 7,11 14,22 8,10 16,21 16,21l26 11z"/>
  <path class="fil0" d="M1169 6093l5 -36 -54 -6c15,10 43,28 49,42z"/>
  <path class="fil0" d="M7646 1998l-10 -2c-1,15 7,32 24,67l-14 -65z"/>
  <polygon class="fil0" points="7983,3061 7980,3042 7959,3083 "/>
  <path class="fil0" d="M8092 3993c2,-39 -3,-84 -1,-123 3,84 -35,132 1,123z"/>
  <path class="fil1" d="M5167 3488c0,240 73,434 163,434 90,0 163,-194 163,-434 0,-239 -73,-433 -163,-433 -90,0 -163,194 -163,433z"/>
  <path class="fil0" d="M5207 3486c-1,3 6,2 7,2 -1,-4 -9,-2 -7,-2z"/>
  <polygon class="fil0" points="5193,3439 5195,3440 5189,3433 "/>
  <path class="fil0" d="M5195 3395c-12,4 1,16 -3,24l-3 1 9 4c-1,-9 -7,-22 -3,-29z"/>
  <path class="fil0" d="M5223 3375c-5,1 -4,-6 -2,5 0,-1 1,-1 1,-1 0,-1 0,-2 1,-4z"/>
  <path class="fil0" d="M5222 3379c0,5 4,-3 0,0z"/>
  <path class="fil0" d="M5222 3358l3 6c3,-1 4,-6 6,-4 -2,-6 -4,-5 -9,-2z"/>
  <path class="fil0" d="M5214 3351l1 4c2,-1 2,-2 -1,-4z"/>
  <path class="fil0" d="M5218 3362l-3 -7c-2,0 -5,0 1,3 -3,-1 0,1 2,4z"/>
  <path class="fil0" d="M5216 3365c-3,3 -5,7 -8,1 0,11 8,11 8,-1z"/>
  <path class="fil0" d="M5184 3392l-4 4 3 5c-1,-2 4,-9 1,-9z"/>
  <path class="fil0" d="M5233 3322c-2,0 -7,1 -10,1l2 5c2,-2 4,-6 8,-6z"/>
  <path class="fil0" d="M5223 3323l-3 -7c-2,6 0,7 3,7z"/>
  <polygon class="fil0" points="5201,3349 5209,3361 5202,3346 "/>
  <polygon class="fil0" points="5238,3298 5243,3303 5235,3295 "/>
  <path class="fil0" d="M5240 3282c4,4 9,-2 11,1 0,-4 -3,-9 -6,-13 1,4 0,8 -5,12z"/>
  <path class="fil0" d="M5241 3264c1,2 2,4 4,6 -1,-2 -2,-4 -4,-6z"/>
  <path class="fil0" d="M5223 3305c2,0 6,0 8,-4l-7 2 -1 2z"/>
  <path class="fil0" d="M5223 3303l1 0c0,-3 1,-5 1,-6 0,1 -1,3 -2,6z"/>
  <path class="fil0" d="M5223 3306l0 -1c-1,0 -1,0 0,1z"/>
  <path class="fil0" d="M5210 3332c-3,-4 -6,-13 -13,-6 4,3 8,-1 13,6z"/>
  <path class="fil0" d="M5214 3307l-3 7c2,0 5,0 6,2l-3 -9z"/>
  <polygon class="fil0" points="5212,3304 5214,3307 5215,3305 "/>
  <path class="fil0" d="M5232 3274c-2,-4 -2,-7 -1,-11 -2,4 -4,7 -5,11 2,1 5,4 6,0z"/>
  <path class="fil0" d="M5227 3287l0 0c-1,0 -1,0 0,0z"/>
  <polygon class="fil0" points="5240,3228 5239,3228 5240,3229 "/>
  <path class="fil0" d="M5225 3275c-2,2 -1,4 1,6 -1,-2 0,-4 0,-7 -1,0 -1,0 -1,1z"/>
  <path class="fil0" d="M5240 3253c-1,1 -3,2 -5,4 3,-1 7,-3 5,-4z"/>
  <path class="fil0" d="M5229 3286l0 1c2,-1 1,-1 0,-1z"/>
  <path class="fil0" d="M5229 3286c-1,-2 -2,-3 -3,-5 0,2 0,4 1,6 0,-1 1,-1 2,-1z"/>
  <path class="fil0" d="M5201 3204c6,2 9,12 1,17 2,8 24,9 37,7 -3,-1 -5,-2 -7,-9 -4,1 -12,12 -16,5 -1,-10 4,-7 9,-10 -9,1 -7,-15 -19,-17l1 9c-2,0 -4,-4 -6,-2z"/>
  <path class="fil0" d="M5235 3240l0 3c2,-2 5,-4 11,-7 -2,-5 -4,-6 -6,-7l-5 13 0 -2z"/>
  <path class="fil0" d="M5231 3256c-6,-4 -7,-12 -15,-10 -2,9 4,8 6,13 1,-13 3,5 9,-4 0,3 0,6 0,8 1,-2 3,-4 4,-6l0 0 0 0 0 0c-1,1 -2,1 -1,0l0 0c-1,-1 -2,-1 -3,-1 3,-4 2,-1 3,1l1 0 0 0 0 -14c-2,3 -3,6 -4,13z"/>
  <path class="fil0" d="M5183 3316c1,0 1,0 2,0 -1,-1 -1,-2 -2,0z"/>
  <path class="fil0" d="M5188 3311c1,1 4,3 2,6 -2,2 -3,-1 -5,-1 1,2 4,8 8,2l-1 -1c4,-5 13,-11 14,-10 -6,1 -11,1 -18,4z"/>
  <path class="fil0" d="M5208 3282l-1 -12 -7 4 3 1c-3,6 2,5 5,7z"/>
  <polygon class="fil0" points="5244,3228 5251,3231 5242,3222 "/>
  <polygon class="fil0" points="5247,3214 5253,3217 5251,3212 "/>
  <path class="fil0" d="M5518 3662l2 3c-1,-1 -1,-3 -2,-3z"/>
  <path class="fil0" d="M5522 3636l-3 -1c2,1 3,2 3,1z"/>
  <path class="fil0" d="M5405 3190c-4,6 -11,14 -5,11l7 -3c-3,-3 -3,-6 -2,-8z"/>
  <path class="fil0" d="M5492 3426l2 -1c-2,-1 -4,-2 -6,-3l4 4z"/>
  <path class="fil0" d="M5522 3428l-4 7c1,-1 3,-3 4,-7z"/>
  <path class="fil0" d="M5491 3804l5 6c2,-6 -2,-5 -5,-6z"/>
  <path class="fil0" d="M5310 3101c4,1 6,1 8,0 -4,-2 -10,-5 -8,0z"/>
  <path class="fil0" d="M5446 3641c1,2 2,3 3,3 0,-2 -2,-4 -3,-3z"/>
  <path class="fil0" d="M5323 3099c-1,0 -1,-1 -2,-1 -1,2 -1,3 -3,3 3,2 5,4 5,-2z"/>
  <path class="fil0" d="M5143 3681c1,-1 1,-1 1,-1 -1,0 -1,0 -1,1z"/>
  <path class="fil0" d="M5199 3529c0,2 1,4 1,6 0,-1 0,-3 -1,-6z"/>
  <path class="fil0" d="M5271 3164c-1,2 1,0 0,0z"/>
  <path class="fil0" d="M5240 3165c-1,-1 -2,-2 -3,-3 1,1 2,2 3,3z"/>
  <path class="fil0" d="M5341 3055l0 0c-1,-1 0,-1 0,0z"/>
  <path class="fil0" d="M5266 3166c2,-1 3,-1 4,-2 -1,0 -2,1 -4,2z"/>
  <path class="fil0" d="M5270 3167c-1,1 -2,1 -2,2 1,1 2,1 2,-2z"/>
  <path class="fil0" d="M5273 3160c-1,1 -2,3 -3,4 0,-1 1,0 1,0 0,-1 1,-2 2,-4z"/>
  <path class="fil0" d="M5280 3927c0,0 0,0 -1,-1 -4,1 -3,1 1,1z"/>
  <polygon class="fil0" points="5499,3248 5499,3248 5498,3248 "/>
  <path class="fil0" d="M5507 3259c-10,-3 -10,-6 -9,-11l-18 9 27 2z"/>
  <path class="fil0" d="M5508 3723l8 -7c8,13 3,20 14,14 -22,-6 5,-34 -17,-40l6 -4c-1,1 0,2 0,3 12,-9 -15,-11 -9,-24 3,-4 6,-7 8,-3l-4 -12c1,-3 5,-2 4,1l1 -16 0 0c-3,-3 -8,-9 -9,-12 3,-3 2,3 5,2l-5 -10c6,-3 11,5 9,12 24,-6 -4,-9 10,-26l2 9c13,-4 10,-11 18,-21 -4,3 -21,18 -26,8 2,-3 3,-6 -1,-12 8,1 7,-5 7,-11l10 1c-2,-8 -8,-7 -12,-12 1,-8 9,-9 16,-10 3,-13 -13,8 -14,-7 5,-11 0,-18 -6,-31 4,-7 7,2 10,-1l-8 -7c0,-1 2,-1 4,0 -4,-6 -11,-1 -14,-10 -11,-2 17,-17 4,-28 3,-2 6,2 10,1 -8,-15 -6,-13 -18,-24l7 -11c-8,8 -18,-1 -26,-9 -3,3 -6,5 -8,7l-6 -13c1,-1 5,0 10,2l-3 -3c3,-4 10,-2 16,1l-7 5c7,3 14,5 20,4 -1,-1 -2,-2 -3,-4 2,1 3,1 4,1 2,-1 -1,-2 -4,-4l12 -4 -5 0 6 -18c-12,-12 -31,-21 -37,-40 9,4 14,0 24,-1 -10,7 6,15 5,25 0,-5 5,-4 7,-3l-12 -18c9,0 6,-4 9,-9 -16,5 -13,-13 -19,-19 6,-1 12,0 12,9 10,-12 -21,-10 -12,-22 0,3 0,4 2,4 -5,-4 -3,-17 2,-15l0 2c0,-15 -7,-44 -22,-43 2,-1 17,-2 20,-2 0,0 -13,-4 -26,-8 -13,-3 -25,-7 -25,-7 12,0 37,-16 47,-5 0,-4 2,-9 -5,-15 -1,3 -15,10 -17,7 11,-12 6,-8 13,-22 -1,5 -20,6 -21,0 3,0 17,-5 20,-4l-22 -8c5,2 15,-4 19,-9 -3,2 -3,-12 -6,-15l-2 7c-3,-17 -30,-7 -35,-21 4,0 24,-4 23,-13 -11,0 -48,2 -60,-5l3 -5 -9 -6c14,-2 50,2 64,7 2,-7 6,-4 1,-12 3,-5 10,1 11,4 0,0 -7,-22 -7,-22 -10,6 -18,-11 -26,-5 1,-1 22,16 22,16 -10,6 -34,1 -40,-12 2,-5 18,-7 21,-9 -4,0 -14,-10 -12,-12l8 2c-1,-10 -20,-4 -18,-19 -2,-3 3,-18 -2,-14 -5,13 -35,38 -44,42 1,-2 -2,-19 -1,-27 3,-11 22,-11 24,-21 -2,2 -7,3 -9,3 -1,-5 8,-6 -1,-11 -8,8 -15,-12 -9,5 -9,-2 -6,-8 -17,-12 0,8 -17,19 -24,21 1,-2 0,-6 0,-8 -8,-2 -14,-4 -20,-4 -6,-1 -13,0 -20,3 -2,-2 -11,-2 -10,-7 -1,2 -1,7 -5,10 -13,-3 9,-8 -4,-14 3,6 -6,16 -9,23 8,6 13,-7 18,-15 6,12 4,30 0,43 -5,9 -10,-4 -10,-1 -15,14 8,27 -9,35 -11,1 -15,-9 -21,-12 2,-10 13,-8 16,-13l-8 3c0,-4 2,-10 6,-11 -10,-1 -24,28 -37,41 1,4 2,10 6,9l1 -5c9,-1 5,13 11,9 1,8 5,18 -3,25l-10 -2c3,1 8,-3 7,-7 2,5 -19,9 -8,18l9 -4c2,8 9,20 3,27 11,-1 0,-2 12,-4 -15,-1 9,-20 -8,-17 14,-1 9,-8 22,-11 -3,-1 -7,0 -2,-5 -1,-1 -2,-2 -2,-3l0 0 0 0c-1,0 -1,0 0,0 -2,1 -5,1 -6,1 -6,-6 -1,-16 -2,-21 3,-3 2,3 6,3l-2 -8c6,3 16,-3 15,7l4 -6c6,-2 10,-7 10,-11 4,-2 -1,-12 2,-6 0,0 4,-13 4,-12l1 1c7,-6 10,-26 23,-16 2,-3 4,-5 7,-4l1 7c2,-3 4,6 6,0 -1,9 0,10 3,11 3,1 9,1 10,5l6 -5c3,3 9,5 16,10l5 -5c10,1 7,17 13,26 -3,1 -4,-2 -3,-4 -8,19 25,20 19,37 3,2 4,5 3,8 0,0 -1,-1 -1,-1l0 1c0,2 -1,4 -1,6 1,-2 2,-4 2,-5 1,2 3,5 6,8l-6 5c0,0 0,0 0,0 -2,5 4,2 9,-2 2,1 4,2 6,3 -11,7 8,8 -4,16 8,1 11,17 24,16 -1,0 -2,2 -2,0 -1,4 -1,9 4,12l-9 4 15 6c-5,7 -8,10 -16,6 14,11 7,10 21,19l-7 1c1,4 11,9 6,13 -10,11 7,46 -2,72 19,-7 -7,12 8,11 -4,2 -7,6 -11,2 6,12 -5,19 8,27 -4,2 -7,-2 -9,-1 1,1 4,4 1,5 -2,2 -4,-1 -6,-3 2,13 16,13 29,13 -6,7 -5,10 4,14 -5,3 -9,7 -11,-1 0,4 -5,27 6,27 -3,2 -1,7 0,8 0,10 -1,11 0,21l2 -3c12,4 2,8 4,16l-2 0c-9,18 5,8 -6,26l8 -1c17,2 -11,16 -5,26l5 -3c5,6 -24,14 -26,20 -2,1 -3,-2 -4,-4 -10,14 11,3 12,14 -6,1 -14,-4 -15,3 -5,3 15,23 4,32 4,-1 9,-3 11,2 1,8 -18,19 -6,28 -1,1 -3,1 -4,1 3,7 3,20 9,25 -27,1 6,40 -18,34l-3 18 -2 -1c-5,11 0,17 4,22 -2,2 -4,0 -5,-1 -9,16 -9,17 -2,35l-8 -2c3,6 -20,19 -18,37 -1,-1 -2,-2 -2,-3 0,22 -39,25 -18,46l-1 13c11,-10 9,10 17,8 -3,6 -17,7 -14,0l2 0c-10,-11 -16,11 -24,3 -9,10 -21,13 -29,13 -9,1 -16,-5 -23,-8l-4 11c0,1 -6,-4 -6,-4 -1,-4 3,-10 7,-6 1,-8 -11,-1 -13,1 -5,-11 12,-8 10,-11l-4 -1 0 1c-6,1 -10,5 -15,-1 -1,-5 4,-6 3,-8 1,-1 1,-1 -2,-3l-6 -9 -4 9c-7,-1 -7,-9 -12,2 8,-15 -19,-43 -16,-51 -10,-4 -13,-12 -16,-21 0,3 -10,8 -12,0 22,-5 4,-19 17,-30 -9,9 -10,-22 -21,-9 0,-7 7,-3 11,-9 -13,-14 -4,-38 -11,-57 -3,0 -7,4 -12,1l12 -14c-2,-4 -17,-1 -8,-10 -2,1 -6,4 -7,1 7,-43 -23,-84 1,-128 -5,6 -6,2 -6,-2 -1,3 -7,0 -11,1l10 -18c-11,-3 -1,-19 -11,-21l2 6c-13,-8 -27,11 -43,10 14,8 -20,24 1,37 -3,4 -5,-2 -9,0 7,3 9,7 6,16l-1 -1c2,23 -3,33 -4,59l7 -2c0,5 -3,7 -4,10 12,4 -2,-16 12,-12 -15,9 5,39 -12,47 2,8 9,-4 10,4l-4 3 6 1c0,6 -5,10 -9,11 0,-2 -2,-4 -3,-5 -4,8 6,20 5,23l1 -9c9,22 10,52 26,72l3 -3c11,15 0,15 9,32l-1 0c5,2 8,6 10,11 -6,-3 -4,12 -11,8 14,15 9,6 26,13l-4 5c6,1 9,1 15,8 -8,-4 -6,10 -16,5 -2,25 27,21 16,39 19,-1 -2,-20 4,-18 2,-6 14,0 16,6 3,6 -11,22 1,36 -1,-1 -2,0 -3,-2 1,8 14,6 15,17 10,-4 8,8 18,-1 -1,0 -15,-9 -15,-9 9,5 25,-2 33,12 -2,1 -7,2 -11,1 2,6 8,4 12,9 -8,11 -21,-9 -35,-8 0,8 23,5 10,13 15,-10 18,14 37,6l-3 7c3,0 9,-3 13,-2l-10 9c14,-6 26,12 40,4 -28,3 -7,-8 -18,-13 29,-13 22,21 57,3 -4,3 -19,3 -13,-3 7,-1 16,-3 21,-2 18,-14 -7,-4 -1,-14 11,4 7,-9 10,-17l5 6c20,-12 -6,-15 10,-25 0,0 4,13 3,13 1,0 4,-9 4,-9l6 7c2,-13 5,-14 13,-21 -6,-1 -11,-9 -7,-17 8,-2 5,7 11,-4 2,5 6,11 -3,12 2,1 3,5 4,7 8,-3 10,-14 13,-18 -1,1 -3,3 -5,3 1,0 -1,-21 -1,-21 4,-1 5,2 6,5 1,-4 -1,-8 1,-13 5,4 11,7 10,15l2 -18c3,0 10,-5 11,-2 7,-8 -2,-27 7,-36 -1,-1 -2,-3 -2,-6 5,-10 16,-17 11,-33l13 -4c1,-11 -16,6 -16,-12 0,-13 11,-2 15,-5 -4,-8 -13,-21 -2,-30 2,4 -1,7 -1,10zm15 -126l0 0c1,3 6,8 1,9 -8,-3 -4,-5 -1,-9zm-17 -190l0 0c3,2 2,5 -1,8 -1,-2 0,-5 1,-8zm-226 -273l0 0 0 -1c5,-2 3,-1 0,1zm-7 6l0 0c0,1 1,2 2,2 -1,-2 0,-3 2,-5 -3,-1 -4,0 -4,3zm16 726l0 0 0 3c-4,-2 -2,-2 0,-3z"/>
  <path class="fil0" d="M5518 3428c-1,1 -2,1 -4,1 2,1 3,1 4,-1z"/>
  <polygon class="fil0" points="5490,3802 5490,3803 5491,3804 "/>
  <path class="fil0" d="M5400 3051c1,2 1,5 1,6 2,-1 2,-3 -1,-6z"/>
  <path class="fil0" d="M5262 3192l1 -6c-1,3 -3,3 -5,4 2,1 5,0 4,2z"/>
  <path class="fil0" d="M5198 3232c1,2 0,2 0,4l4 0c1,-4 -1,-8 -4,-4z"/>
  <path class="fil0" d="M5236 3188c-7,-2 -6,3 -6,8l0 -1c8,5 7,-1 6,-7z"/>
  <path class="fil0" d="M5230 3197c-1,2 -1,3 -2,5 4,1 2,-2 2,-5z"/>
  <path class="fil0" d="M5270 3153c-2,1 7,5 4,5 7,6 -2,-17 -4,-5z"/>
  <polygon class="fil0" points="5214,3184 5222,3186 5217,3181 "/>
  <path class="fil0" d="M5234 3151l-5 6c1,1 2,2 2,3 2,-4 6,-8 3,-9z"/>
  <path class="fil0" d="M5231 3160c-1,3 -2,5 -1,7 0,-2 1,-4 1,-7z"/>
  <polygon class="fil0" points="5216,3174 5218,3172 5221,3167 "/>
  <path class="fil0" d="M5281 3085c0,0 5,-8 5,-7 -1,-3 -4,-3 -6,0 0,3 -1,6 1,7z"/>
  <path class="fil0" d="M5247 3089c3,0 5,1 8,1l-8 -6 0 5z"/>
  <path class="fil0" d="M5264 3067c-1,-2 5,-16 -4,-6 1,3 -4,11 4,6z"/>
  <polygon class="fil0" points="5392,3081 5390,3080 5379,3092 "/>
  <path class="fil0" d="M5486 3167c0,-12 -10,1 -9,-10 -5,-1 -1,9 -5,8 6,5 5,9 14,2z"/>
  <path class="fil0" d="M5472 3165c-1,-1 -2,-2 -4,-2 2,1 3,2 4,2z"/>
  <polygon class="fil0" points="5207,3506 5211,3500 5205,3504 "/>
  <path class="fil0" d="M5195 3494l10 -2 -9 -4c0,2 1,5 -1,6z"/>
  <path class="fil0" d="M5546 3580l-2 -1c-3,1 -4,3 -4,6l6 -5z"/>
  <polygon class="fil0" points="5527,3672 5528,3670 5518,3672 "/>
  <path class="fil0" d="M5523 3752c1,-3 0,-7 1,-10 0,7 -13,8 -1,10z"/>
  <path class="fil0" d="M6435 2059c0,0 0,2 0,2 0,-5 0,-2 0,-2z"/>
  <polygon class="fil0" points="6423,2011 6424,2011 6419,2005 "/>
  <path class="fil0" d="M6405 1967c-4,8 8,15 9,24l-1 2 6 1c-4,-9 -13,-19 -14,-27z"/>
  <path class="fil0" d="M6409 1933c-2,4 -4,-3 2,7 0,-1 0,-1 0,-2 0,-1 -1,-2 -2,-5z"/>
  <path class="fil0" d="M6411 1938c2,5 1,-5 0,0z"/>
  <path class="fil0" d="M6400 1917l6 4c1,-2 -1,-9 2,-7 -4,-6 -6,-3 -8,3z"/>
  <path class="fil0" d="M6392 1916l2 2c1,-1 1,-2 -2,-2z"/>
  <path class="fil0" d="M6400 1923l-6 -5c-1,2 -3,4 3,3 -3,1 0,1 3,2z"/>
  <path class="fil0" d="M6400 1928c0,5 1,10 -4,6 6,10 10,5 4,-6z"/>
  <path class="fil0" d="M6397 1970l1 5 4 2c-2,-1 -3,-9 -5,-7z"/>
  <path class="fil0" d="M6387 1875c-3,1 -5,7 -7,9l5 3c0,-4 -1,-9 2,-12z"/>
  <path class="fil0" d="M6380 1884l-7 -3c2,6 5,6 7,3z"/>
  <polygon class="fil0" points="6381,1923 6393,1928 6380,1921 "/>
  <polygon class="fil0" points="6374,1849 6381,1848 6370,1848 "/>
  <path class="fil0" d="M6364 1833c6,-2 6,-11 10,-11 -3,-4 -9,-4 -15,-4 4,2 6,6 5,15z"/>
  <path class="fil0" d="M6350 1818c2,0 6,0 9,0 -2,-1 -5,-1 -9,0z"/>
  <path class="fil0" d="M6367 1869c1,-1 4,-5 4,-10l-5 8 1 2z"/>
  <path class="fil0" d="M6366 1867l0 0c-1,-3 -2,-5 -3,-6 0,1 1,3 3,6z"/>
  <path class="fil0" d="M6368 1870l-1 -1c0,1 0,2 1,1z"/>
  <path class="fil0" d="M6377 1902c-6,-1 -14,-5 -14,6 5,-1 5,-7 14,-6z"/>
  <path class="fil0" d="M6362 1880l3 8c1,-2 3,-5 5,-5l-8 -3z"/>
  <polygon class="fil0" points="6358,1878 6362,1880 6361,1877 "/>
  <path class="fil0" d="M6351 1835c-5,0 -7,-3 -10,-6 1,6 3,10 5,14 3,-2 8,-4 5,-8z"/>
  <path class="fil0" d="M6358 1851l-1 0c-1,1 0,1 1,0z"/>
  <polygon class="fil0" points="6317,1796 6316,1798 6318,1797 "/>
  <path class="fil0" d="M6345 1844c1,4 4,4 7,4 -2,-1 -4,-3 -6,-5 -1,0 -2,1 -1,1z"/>
  <path class="fil0" d="M6341 1811c-1,3 -1,6 -1,9 1,-4 3,-10 1,-9z"/>
  <path class="fil0" d="M6358 1848l1 0c1,-2 0,-1 -1,0z"/>
  <path class="fil0" d="M6358 1848c-2,-1 -4,0 -6,0 1,1 3,2 5,3 0,-1 1,-2 1,-3z"/>
  <path class="fil0" d="M6259 1839c8,-8 20,-9 17,4 11,0 31,-26 40,-45 -3,3 -6,6 -15,4 -2,6 1,22 -9,24 -10,-3 -3,-8 -2,-16 -6,12 -22,5 -34,21l11 0c-2,3 -8,4 -8,8z"/>
  <path class="fil0" d="M6324 1810l3 2c-1,-4 0,-9 3,-18 -6,-1 -10,0 -12,3l8 13 -2 0z"/>
  <path class="fil0" d="M6335 1824c-9,5 -16,2 -22,13 6,7 10,-1 17,1 -11,-10 6,-1 4,-13 3,1 5,3 7,4 -1,-3 -1,-6 -1,-9l0 1 0 0 -1 0c0,1 -1,2 0,1l-1 0c-1,0 -2,1 -3,2 -1,-5 2,-3 3,-2l1 -1 1 0 -13 -9c1,4 3,7 8,12z"/>
  <path class="fil0" d="M6345 1913c1,-1 1,-1 1,-2 -1,0 -2,0 -1,2z"/>
  <path class="fil0" d="M6345 1905c2,0 5,-1 6,2 0,4 -3,2 -5,4 3,0 9,2 8,-5l-1 0c-2,-7 1,-19 3,-19 -5,6 -8,11 -11,18z"/>
  <path class="fil0" d="M6337 1867l-10 -6 -2 10 3 -4c3,7 6,2 9,0z"/>
  <polygon class="fil0" points="6321,1791 6330,1784 6314,1790 "/>
  <polygon class="fil0" points="6310,1779 6318,1771 6311,1773 "/>
  <path class="fil0" d="M5520 1587l-2 5c1,-1 2,-3 2,-5z"/>
  <path class="fil0" d="M5543 1586l0 -9c-1,5 -1,9 0,9z"/>
  <path class="fil0" d="M6025 1503c4,-17 13,-43 3,-25l-9 17c5,-1 6,3 6,8z"/>
  <path class="fil0" d="M5734 1487l-1 7c4,-7 7,-13 10,-19 -3,4 -6,8 -9,12z"/>
  <path class="fil0" d="M5705 1570l-1 -15c-1,5 0,10 1,15z"/>
  <path class="fil0" d="M5399 1621l1 20c5,-1 1,-10 -1,-20z"/>
  <path class="fil0" d="M6198 1657c1,-8 0,-12 -2,-15 -2,11 -7,25 2,15z"/>
  <path class="fil0" d="M5505 1367c-2,5 -2,9 -2,13 2,-3 3,-8 2,-13z"/>
  <path class="fil0" d="M6187 1632c0,2 -1,3 -1,5 4,0 8,1 10,5 2,-8 1,-15 -9,-10z"/>
  <path class="fil0" d="M4929 1712c-1,-1 -1,-1 -2,-1 0,1 1,1 2,1z"/>
  <path class="fil0" d="M4776 1733l4 -5c-1,1 -2,2 -4,5z"/>
  <path class="fil0" d="M6273 1723c3,2 2,-1 0,0z"/>
  <path class="fil0" d="M6249 1774c-1,1 -3,2 -5,4 2,-2 4,-3 5,-4z"/>
  <path class="fil0" d="M6099 1692l0 0c-2,3 -1,2 0,0z"/>
  <path class="fil0" d="M6273 1732c0,-3 0,-5 0,-7 -1,1 -1,3 0,7z"/>
  <path class="fil0" d="M6276 1726c1,2 1,3 1,4 2,-2 3,-3 -1,-4z"/>
  <path class="fil0" d="M6270 1720c1,1 2,3 3,5 0,-1 0,-2 0,-2 0,-1 -1,-2 -3,-3z"/>
  <path class="fil0" d="M5167 1607c0,0 -1,0 -1,-1 -1,7 0,6 1,1z"/>
  <polygon class="fil0" points="5848,1636 5848,1635 5848,1634 "/>
  <path class="fil0" d="M5831 1644c16,-20 17,-16 17,-10l25 -52 -42 62z"/>
  <path class="fil0" d="M5466 1598l11 17c-5,31 -12,21 -1,45 -10,-62 26,-9 18,-72l7 13c-1,-1 -1,3 -3,3 14,30 1,-47 15,-39 5,5 9,14 7,22l8 -17c3,1 3,12 0,11l14 -6 1 2c1,-10 4,-27 6,-34 4,9 -2,8 0,16l7 -17c5,17 -1,34 -6,32 13,64 5,-18 24,20l-7 8c8,37 12,24 22,47 -2,-12 -20,-58 -13,-75 3,5 6,7 10,-6 2,24 6,18 11,16l1 31c6,-9 5,-24 8,-39 7,3 9,27 11,48 11,4 -8,-39 4,-45 9,12 17,-2 26,-20 4,12 -1,19 0,28l4 -24c1,1 0,9 0,12 4,-9 2,-31 8,-39 7,-33 4,50 18,14 0,9 -5,19 -6,31 15,-23 12,-16 30,-47l3 21c0,-24 15,-48 30,-68 1,-11 2,-21 1,-26l19 -12c0,5 -5,15 -11,26 1,-2 3,-4 4,-6 1,13 -7,29 -15,44 0,-6 1,-13 1,-19 -8,17 -17,36 -22,54 2,-4 4,-6 6,-7 -2,4 -4,9 -5,12 0,3 3,-4 7,-11l-8 34 5 -12 7 25c21,-29 49,-74 73,-79 -15,21 -17,37 -29,64 7,-31 -18,8 -24,-1 3,5 -3,18 -6,22l26 -22c-10,23 -4,19 -5,30 17,-46 24,-25 37,-35 -7,14 -15,29 -21,22 -7,36 34,-47 30,-15 -2,-1 -2,-3 -6,4 10,-11 16,4 7,15l-2 0c10,9 37,18 58,-16 -3,4 -25,41 -29,48 0,0 21,-27 43,-53 22,-27 43,-53 43,-53 -18,29 -50,103 -70,115 1,6 2,12 14,5 0,-5 19,-45 23,-47 -11,37 -5,21 -12,53 1,-8 31,-51 35,-47 -5,6 -26,45 -31,49l38 -38c-8,6 -23,37 -28,51 4,-10 10,6 16,3l1 -13c9,14 50,-53 62,-43 -7,8 -38,52 -35,61 17,-20 80,-95 102,-102l-6 13 18 -7c-26,27 -85,83 -111,105 -1,12 -8,15 0,18 -5,13 -15,15 -17,15l12 16c15,-25 29,-17 41,-38l-35 15c16,-25 57,-63 66,-51 -3,12 -31,41 -36,49 7,-7 22,-9 19,-2l-14 9c1,13 33,-24 25,3 2,3 -13,34 -3,21 14,-29 71,-110 87,-127 0,2 -3,35 -9,50 -10,23 -41,43 -50,62 5,-6 13,-11 15,-13 0,7 -14,18 -6,19 17,-22 11,10 17,-17 10,-2 3,9 11,13 8,-16 42,-44 52,-45 -4,5 -8,13 -10,17 10,11 10,26 21,34 -3,6 -2,16 -11,22 4,-2 11,-8 15,-6 -7,22 -10,-2 -21,21 9,-11 22,-9 32,-12 12,-18 -9,-12 -19,-8 19,-25 48,-43 68,-44 13,3 -9,19 -4,17 13,19 46,-26 46,4 -6,19 -23,27 -30,38 -12,-1 -4,-19 -9,-23l1 12c-7,3 -15,2 -14,-4 -6,17 27,27 30,49 6,-3 14,-3 17,-10l-6 -2c6,-14 20,-7 19,-17 12,-1 27,-6 29,7l-11 15c4,-4 3,-13 -3,-11 9,-2 -5,30 14,16l3 -15c12,-1 30,-7 32,5 9,-16 -2,-1 7,-20 -13,22 -14,-21 -26,6 11,-23 -1,-16 7,-39 -4,5 -6,11 -9,3 -1,1 -3,2 -4,2l0 0 -1 0c0,1 -1,1 0,1 0,3 -1,7 -3,10 -12,7 -20,-2 -29,0 -1,-5 7,-4 9,-11l-11 4c9,-11 7,-27 20,-25l-6 -8c1,-11 -2,-20 -9,-19 -1,-6 -19,4 -9,-2l-17 -4 3 -3c-10,-14 -40,-2 -34,-38 -6,0 -13,0 -17,-10l8 -13c-8,0 -5,-26 -17,-16 19,-38 -19,-30 -23,-44l-13 17c-5,-6 -15,-7 -27,-6l-11 15c-15,7 -10,-24 -22,-31 5,-6 7,-2 6,3 12,-47 -45,6 -39,-30 -7,3 -8,0 -7,-6 0,0 0,0 1,0 0,-1 -1,-1 -1,-1 0,-4 1,-9 1,-12 -1,5 -2,9 -2,11 -3,-1 -8,-2 -14,0l10 -19c0,0 -1,0 -1,0 1,-9 -8,7 -15,22 -4,2 -8,4 -12,8 16,-32 -15,4 1,-31 -12,14 -26,0 -47,32 2,-4 3,-7 5,-6 -2,-6 -4,-13 -13,-5l12 -26 -27 28c3,-18 5,-29 21,-44 -29,21 -17,4 -44,28l9 -16c-4,-2 -22,16 -17,1 8,-37 -43,-27 -54,-70 -18,54 -2,-29 -21,11 4,-13 3,-21 12,-30 -19,7 -14,-28 -36,3 3,-14 9,-18 11,-26 -2,3 -9,9 -7,1 1,-8 5,-9 10,-14 -16,-4 -31,35 -44,71 -1,-20 -6,-18 -18,5 1,-13 0,-27 11,-29 -4,-3 -28,-27 -36,3 1,-8 -6,-4 -8,0 -11,-5 -12,-8 -26,-7l3 6c-10,37 -11,7 -21,11l0 -4c-21,-29 -11,11 -31,-20l1 23c-1,51 -17,-29 -28,-9l4 13c-5,18 -19,-67 -26,-73 -1,-4 2,-7 4,-11 -18,-28 -1,31 -13,39 -3,-17 1,-42 -8,-45 -5,-13 -21,55 -35,25 4,12 7,25 3,35 -8,5 -28,-44 -32,-4 -2,-3 -2,-6 -3,-10 -5,11 -19,20 -20,41 -17,-77 -35,45 -45,-26l-20 8 0 -7c-14,-2 -15,15 -17,33 -3,-4 -3,-11 -3,-15 -21,-10 -23,-6 -30,32l-7 -22c-1,14 -34,-26 -46,4 0,-3 -1,-7 0,-10 -14,29 -63,-41 -50,35l-7 23c18,0 6,32 16,42 -5,6 -22,-17 -16,-23l3 3c-8,-38 -25,-6 -32,-32 -32,14 -69,8 -99,21l13 23 -11 3c-5,-4 -11,-17 -3,-20 -9,-12 -8,18 -6,23 -18,-3 -5,-31 -10,-30l-5 5 2 2c-1,13 3,23 -6,26 -7,-2 -9,-13 -11,-13 -1,-1 -2,-2 -4,1l-13 5 12 15c-2,12 -12,5 2,23 -21,-28 -51,13 -60,6 -3,16 -10,19 -20,23 3,2 12,18 3,20 -12,-36 -21,-7 -38,-26 13,12 -20,17 -2,33 -7,1 -5,-11 -14,-16 -10,21 -37,16 -53,33 1,3 7,6 5,14l-18 -9c-2,4 6,19 -6,14 2,2 6,4 4,7 -22,6 -39,22 -56,37 -17,15 -36,26 -54,38 5,-2 2,1 -1,4 3,-1 1,2 3,3 -1,0 -16,10 -16,10 -1,4 -14,14 -15,16l4 -4c-5,6 10,-4 11,0 6,-7 25,-3 35,-14 4,0 -2,3 1,4 2,-4 5,-6 14,-8l-1 1c21,-9 32,-9 58,-13l-5 -5c6,-1 8,0 11,1 1,-11 -15,4 -15,-7 14,10 36,-14 49,1 8,-2 -6,-8 1,-11l5 5 -1 -7c5,-1 11,4 14,9 -2,-1 -3,2 -4,3 9,4 18,-8 21,-6l-9 -2c19,-12 50,-10 64,-31l-4 -4c11,-15 15,1 30,-9l0 2c1,-7 5,-12 10,-13 -2,9 14,11 12,21 12,-17 4,-12 5,-38l7 9c0,-11 -2,-16 6,-22 -3,12 12,15 9,29 28,19 17,-33 40,1 -4,-34 -23,-13 -21,-21 -8,-8 -2,-26 5,-24 6,-2 26,37 40,33 -1,0 0,3 -2,3 9,7 6,-14 18,-2 -4,-22 9,-1 1,-28l-11 10c5,-9 0,-43 18,-32 1,6 0,14 -1,19 7,7 5,-7 12,0 9,28 -14,11 -15,33 8,10 8,-23 15,7 -8,-39 16,1 16,-30l5 17c1,-3 1,-12 4,-12l3 23c1,-21 21,13 25,1 -16,4 -11,-20 -22,-31 12,-28 27,43 46,30 -2,3 -15,-8 -13,-17 6,2 13,8 19,17 13,-7 -8,-18 -6,-31 12,21 5,-10 9,-19l6 19c20,9 -8,-40 12,-29l1 28 6 -9 5 23c4,-18 8,-15 18,-10 -6,-14 -9,-36 -2,-38 8,10 2,19 12,14 1,13 3,29 -7,12 1,6 2,13 3,19 9,13 14,1 18,0 -2,-1 -4,-2 -6,-4l8 -31c4,7 4,14 4,20 2,-3 2,-12 6,-15 3,17 8,34 3,43l10 -21c3,7 12,19 12,26 10,9 11,-36 25,-24 -1,-4 0,-7 2,-10 10,2 23,23 30,-3l12 31c8,-8 -16,-39 -3,-52 9,-12 9,26 14,35 2,-17 6,-51 20,-26 -2,6 -5,2 -8,5zm110 -24l0 0c-2,5 -5,20 -8,6 1,-26 4,-14 8,-6zm160 -38l0 0c-4,6 -5,2 -5,-7 2,-2 4,0 5,7zm504 168l0 0c0,0 0,0 0,0 0,-8 0,-5 0,0zm4 14l0 0c2,-1 3,-3 4,-5 -3,3 -5,1 -6,-2 -2,4 -3,7 2,7zm-1150 -205l0 0 4 3c-3,6 -3,2 -4,-3z"/>
  <path class="fil0" d="M5708 1560c1,-4 2,-8 3,-12 -2,3 -3,8 -3,12z"/>
  <polygon class="fil0" points="5399,1618 5399,1618 5399,1621 "/>
  <path class="fil0" d="M6018 1729c0,-4 1,-7 2,-11 -3,4 -4,8 -2,11z"/>
  <path class="fil0" d="M6300 1746l-7 -3c3,3 1,6 1,9 2,-3 4,-7 6,-6z"/>
  <path class="fil0" d="M6285 1852c2,0 1,2 3,1l4 -4c-3,-3 -9,-2 -7,3z"/>
  <path class="fil0" d="M6273 1785c-8,9 -2,10 3,12 0,0 -1,0 -1,-1 12,-10 5,-10 -2,-11z"/>
  <path class="fil0" d="M6277 1798c1,0 3,1 3,3 5,-4 0,-3 -3,-3z"/>
  <path class="fil0" d="M6259 1722c0,4 12,-11 10,-6 12,-10 -24,2 -10,6z"/>
  <polygon class="fil0" points="6249,1816 6258,1805 6248,1811 "/>
  <path class="fil0" d="M6228 1781l3 9c2,-2 4,-3 5,-3 -3,-3 -5,-9 -8,-6z"/>
  <path class="fil0" d="M6236 1787c2,2 4,4 7,3 -2,-1 -4,-2 -7,-3z"/>
  <polygon class="fil0" points="6238,1812 6239,1808 6236,1804 "/>
  <path class="fil0" d="M6167 1721l-10 -1c-4,4 -5,9 -1,9 4,-2 8,-2 11,-8z"/>
  <path class="fil0" d="M6156 1775c1,-4 3,-7 6,-13l-14 17 8 -4z"/>
  <path class="fil0" d="M6134 1764c-5,4 -22,6 -12,11 5,-4 15,-3 12,-11z"/>
  <polygon class="fil0" points="6048,1665 6050,1666 6074,1632 "/>
  <path class="fil0" d="M5895 1695c3,14 17,-22 18,-7 7,-8 -1,-13 6,-19 -11,6 -10,0 -24,26z"/>
  <path class="fil0" d="M5919 1669c2,-1 4,-3 6,-5 -3,2 -4,3 -6,5z"/>
  <polygon class="fil0" points="4758,1749 4753,1754 4756,1751 "/>
  <path class="fil0" d="M4749 1759l-1 1 -3 3c1,-1 1,0 4,-4z"/>
  <path class="fil0" d="M5595 1637l1 -8c-2,-8 -3,-8 -6,-10l5 18z"/>
  <polygon class="fil0" points="5516,1617 5518,1618 5512,1590 "/>
  <path class="fil0" d="M5456 1657c3,1 5,-5 8,-4 -5,5 -15,-29 -8,4z"/>
  <path class="fil1" d="M3128 3488c0,240 -73,434 -163,434 -90,0 -163,-194 -163,-434 0,-239 73,-433 163,-433 90,0 163,194 163,433z"/>
  <path class="fil0" d="M3167 3486c0,3 7,2 8,2 -2,-5 -9,-2 -8,-2z"/>
  <polygon class="fil0" points="3151,3437 3154,3438 3146,3431 "/>
  <path class="fil0" d="M3148 3391c-11,5 3,17 -1,25l-2 2 9 3c-2,-10 -8,-23 -6,-30z"/>
  <path class="fil0" d="M3171 3364c-5,2 -5,-5 -1,6 0,0 0,-1 1,-1 0,-1 -1,-2 0,-5z"/>
  <path class="fil0" d="M3171 3369c1,5 3,-4 0,0z"/>
  <path class="fil0" d="M3166 3347l5 6c2,-2 2,-8 4,-6 -3,-7 -6,-5 -9,0z"/>
  <path class="fil0" d="M3156 3341l3 4c1,-1 1,-2 -3,-4z"/>
  <path class="fil0" d="M3163 3351l-4 -6c-2,1 -6,1 1,3 -3,0 0,1 3,3z"/>
  <path class="fil0" d="M3162 3355c-2,4 -3,9 -8,3 3,12 11,10 8,-3z"/>
  <path class="fil0" d="M3136 3390l-3 5 4 4c-2,-2 2,-10 -1,-9z"/>
  <path class="fil0" d="M3166 3305c-3,0 -6,4 -9,4l3 5c2,-3 2,-8 6,-9z"/>
  <path class="fil0" d="M3157 3309l-6 -6c1,7 3,7 6,6z"/>
  <polygon class="fil0" points="3143,3342 3154,3352 3143,3340 "/>
  <polygon class="fil0" points="3161,3278 3167,3281 3158,3275 "/>
  <path class="fil0" d="M3156 3260c6,2 7,-6 11,-3 -2,-5 -7,-9 -12,-12 3,4 4,8 1,15z"/>
  <path class="fil0" d="M3149 3240c1,2 4,4 6,5 -1,-1 -3,-3 -6,-5z"/>
  <path class="fil0" d="M3150 3291c2,-1 5,-3 6,-7l-6 4 0 3z"/>
  <path class="fil0" d="M3150 3288l0 0c-1,-3 -1,-5 -1,-6 0,1 0,3 1,6z"/>
  <path class="fil0" d="M3150 3292l0 -1c0,0 -1,0 0,1z"/>
  <path class="fil0" d="M3147 3323c-4,-4 -10,-12 -14,-3 5,3 8,-3 14,3z"/>
  <path class="fil0" d="M3142 3297l0 7c2,0 4,-2 7,0l-7 -7z"/>
  <polygon class="fil0" points="3140,3293 3142,3297 3142,3294 "/>
  <path class="fil0" d="M3145 3255c-3,-3 -4,-6 -6,-10 0,4 0,9 1,13 3,0 7,1 5,-3z"/>
  <path class="fil0" d="M3147 3271c0,0 0,0 0,-1 -1,1 -1,1 0,1z"/>
  <polygon class="fil0" points="3129,3206 3128,3207 3129,3206 "/>
  <path class="fil0" d="M3139 3259c0,4 2,5 4,7 -1,-3 -2,-5 -3,-8 -1,0 -1,0 -1,1z"/>
  <path class="fil0" d="M3143 3230c-1,2 -2,4 -2,7 2,-3 4,-7 2,-7z"/>
  <path class="fil0" d="M3148 3269l1 0c1,-1 0,-1 -1,0z"/>
  <path class="fil0" d="M3148 3269c-1,-1 -3,-2 -5,-3 1,1 2,3 4,4 0,0 1,-1 1,-1z"/>
  <path class="fil0" d="M3083 3207c6,-1 14,5 10,14 6,5 25,-5 35,-14 -3,0 -5,1 -11,-5 -3,3 -4,18 -11,14 -6,-9 0,-9 2,-14 -6,6 -15,-8 -26,-3l7 7c-2,1 -6,-1 -6,1z"/>
  <path class="fil0" d="M3131 3221l2 3c0,-4 2,-7 5,-13 -4,-5 -7,-5 -9,-5l3 16 -1 -1z"/>
  <path class="fil0" d="M3137 3237c-8,-1 -13,-7 -19,-1 3,9 7,5 12,10 -5,-14 4,3 6,-9 2,3 2,5 3,8 1,-3 1,-6 2,-8l-1 0 0 0 0 0c0,1 -1,1 -1,0l0 0c-1,0 -2,0 -2,0 0,-4 1,-1 2,0l1 0 0 0 -7 -13c0,3 1,7 4,13z"/>
  <path class="fil0" d="M3117 3315c0,0 1,0 1,0 -1,-1 -1,-1 -1,0z"/>
  <path class="fil0" d="M3120 3309c1,1 4,1 4,5 -2,3 -4,0 -6,1 2,1 6,6 9,-1l-1 -1c1,-6 8,-15 9,-14 -6,3 -10,5 -15,10z"/>
  <path class="fil0" d="M3127 3273l-6 -11 -5 8 4 -1c0,7 4,4 7,4z"/>
  <polygon class="fil0" points="3132,3203 3139,3203 3127,3199 "/>
  <polygon class="fil0" points="3126,3188 3132,3186 3127,3184 "/>
  <path class="fil0" d="M2853 3650l2 3c0,-2 -1,-3 -2,-3z"/>
  <path class="fil0" d="M2850 3626l-3 0c2,0 3,1 3,0z"/>
  <path class="fil0" d="M2815 3160c-8,3 -19,6 -12,8l8 1c0,-4 2,-7 4,-9z"/>
  <path class="fil0" d="M2806 3426l2 -1c-2,-1 -4,-2 -6,-4l4 5z"/>
  <path class="fil0" d="M2835 3431l-5 7c2,-2 3,-4 5,-7z"/>
  <path class="fil0" d="M2891 3772l8 1c-2,-5 -5,-1 -8,-1z"/>
  <path class="fil0" d="M3029 3038c-4,-6 -7,-10 -11,-12 5,7 6,15 11,12z"/>
  <path class="fil0" d="M2778 3651c1,2 3,3 4,3 -1,-3 -3,-4 -4,-3z"/>
  <path class="fil0" d="M3000 3018c1,1 2,2 3,3 5,1 10,2 15,5 -4,-6 -10,-10 -18,-8z"/>
  <path class="fil0" d="M3072 3667l1 -1c-1,0 -1,0 -1,1z"/>
  <path class="fil0" d="M3158 3532c0,1 0,3 0,6 1,-1 1,-3 0,-6z"/>
  <path class="fil0" d="M3103 3124c3,3 1,1 0,0z"/>
  <path class="fil0" d="M3085 3152c-1,-1 -2,-1 -3,0 1,-1 3,-1 3,0z"/>
  <path class="fil0" d="M2955 3057l-1 0c1,1 1,1 1,0z"/>
  <path class="fil0" d="M3103 3131c0,-2 0,-4 0,-5 0,1 0,2 0,5z"/>
  <path class="fil0" d="M3106 3129c0,1 0,2 1,3 1,0 1,-1 -1,-3z"/>
  <path class="fil0" d="M3101 3120c1,2 1,4 2,6 0,-1 0,-2 0,-2 0,-1 -1,-2 -2,-4z"/>
  <path class="fil0" d="M2992 3892c0,0 1,0 1,0 0,-4 0,-3 -1,0z"/>
  <polygon class="fil0" points="2860,3263 2860,3263 2859,3263 "/>
  <path class="fil0" d="M2862 3275c-7,-6 -5,-9 -3,-12l-20 -1 23 13z"/>
  <path class="fil0" d="M2866 3705l4 -9c13,7 11,14 18,5 -22,4 -9,-28 -30,-25l3 -6c0,2 2,2 2,3 8,-11 -17,-4 -17,-18 1,-4 4,-8 7,-5l-7 -10c0,-3 4,-2 4,1l-4 -15 1 0c-4,-2 -10,-6 -12,-9 2,-4 2,2 5,1l-6 -8c5,-4 11,2 11,8 21,-10 -6,-6 5,-25l3 8c12,-7 7,-12 14,-22 -4,3 -18,20 -24,11 1,-3 2,-6 -3,-11 8,0 5,-5 5,-11l10 0c-3,-7 -9,-6 -14,-9 1,-8 9,-10 16,-12 1,-12 -13,9 -16,-5 4,-10 -1,-17 -7,-28 3,-7 6,1 9,-2l-8 -6c0,-1 3,-1 4,0 -3,-6 -10,-1 -13,-9 -12,-2 16,-17 3,-27 3,-2 7,2 11,1 -8,-14 -6,-12 -17,-24l7 -9c-8,6 -17,-3 -24,-12 -4,3 -7,5 -9,6l-5 -13c2,-2 5,0 10,2l-3 -2c4,-5 10,-2 16,2l-7 4c6,4 13,7 19,7 -1,-1 -2,-3 -2,-5 1,1 3,2 4,1 1,0 -1,-1 -4,-4l12 -2 -5 -1 9 -16c-11,-12 -27,-24 -30,-44 8,6 14,2 24,4 -11,4 3,15 0,24 1,-5 6,-3 8,-2l-8 -18c8,1 6,-3 10,-7 -17,1 -9,-14 -13,-22 5,0 11,3 8,11 14,-7 -17,-15 -5,-22 -1,2 -2,3 1,4 -4,-6 2,-17 6,-14l0 3c4,-14 7,-42 -5,-47 1,0 15,5 18,7 0,0 -10,-9 -20,-18 -10,-9 -20,-18 -20,-18 11,5 41,4 45,17 2,-3 5,-6 2,-14 -2,2 -18,1 -18,-2 15,-5 9,-4 22,-11 -3,2 -20,-6 -18,-11 2,1 18,4 19,7l-14 -18c2,4 15,5 21,4 -4,0 4,-11 3,-15l-6 4c8,-13 -19,-22 -12,-36 2,3 19,12 24,7 -7,-7 -35,-33 -35,-49l6 0 0 -13c9,14 27,43 34,56 6,-4 6,1 9,-7 6,0 5,7 5,10 0,-1 11,-15 11,-15 -11,-4 -4,-17 -12,-21 -1,0 1,23 1,23 -10,-4 -23,-25 -14,-36 6,0 15,12 19,14 -3,-3 0,-14 3,-14l2 8c7,-4 -6,-18 8,-18 2,-2 15,3 11,-2 -12,-5 -43,-28 -47,-38 1,-1 22,-5 29,-3 10,4 10,23 18,26 -2,-2 -2,-7 -2,-9 4,0 5,8 9,4 -6,-10 10,-6 -4,-9 4,-6 7,-3 12,-5 -5,-5 -4,-26 5,-31 0,3 3,7 4,8 7,-1 13,0 18,3 5,2 9,4 15,7 0,3 4,8 0,12 2,-2 5,-4 9,-2 0,12 -8,-3 -9,9 3,-5 12,-2 19,-2 5,-9 -10,-9 -16,-8 5,-12 23,-20 41,-12 12,7 -2,10 1,10 14,19 32,1 36,24 -3,11 -14,9 -19,14 -7,-6 -4,-15 -8,-21l2 9c-5,0 -10,-4 -10,-8 -2,9 21,31 21,50 4,1 9,4 11,1l-3 -5c4,-7 13,5 13,-3 8,5 19,10 19,21l-8 6c2,-1 3,-9 -1,-10 5,2 -7,20 7,19l4 -9c7,5 21,10 21,20 8,-7 -2,-1 7,-12 -11,11 -9,-23 -19,-9 9,-11 0,-13 7,-27 -3,2 -4,6 -6,-2 -2,0 -3,0 -4,-1l0 0 0 0c-1,0 -1,0 0,1 -1,2 -1,4 -3,5 -8,0 -14,-12 -20,-14 0,-5 5,0 7,-4l-8 -3c6,-4 3,-18 13,-9l-5 -10c-1,-8 -3,-16 -10,-19 -2,-6 -15,-6 -7,-6 0,0 -15,-12 -15,-11l1 -2c-14,-14 -34,-17 -53,-38 -8,-2 -16,-1 -29,-5l-3 -6c-10,0 -34,-4 -36,4 -8,-6 -22,-3 -33,5 -10,8 -20,18 -26,22l5 6c-7,7 -13,16 -17,27l7 4c-2,11 -19,17 -26,30 -2,-2 1,-5 4,-7 -24,8 -7,38 -24,47 1,4 -1,7 -4,8 0,0 0,0 0,-1l0 2c-2,1 -4,2 -6,3 2,-1 4,-1 5,-2 -1,2 -1,7 -1,12l-8 -1c0,0 0,0 0,1 -5,3 2,4 8,4 1,2 1,5 3,7 -13,-1 0,12 -14,12 5,5 -2,22 11,28 -2,0 -3,1 -2,-2 -3,4 -6,8 -3,13l-10 0 10 13c-7,4 -11,6 -17,-2 8,18 1,13 10,28l-6 -2c-1,5 6,13 0,15 -14,7 -10,48 -24,72 19,-3 -10,11 5,14 -5,1 -8,4 -11,0 3,13 -9,19 2,29 -4,1 -6,-3 -9,-2 1,1 4,4 1,6 -3,1 -4,-3 -6,-5 0,14 14,16 27,18 -6,6 -6,10 2,15 -4,2 -9,6 -10,-3 -1,5 -7,29 3,29 -2,2 0,7 1,8 -1,11 -2,11 -1,22l1 -3c13,4 3,8 5,17l-1 -1c-9,19 4,8 -6,27l8 -1c17,1 -9,17 -2,27l4 -4c6,6 -22,18 -24,24 -1,2 -2,-1 -3,-3 -9,16 10,1 13,13 -5,2 -14,-2 -14,6 -4,4 20,21 10,33 4,-3 8,-6 12,-1 3,8 -13,25 1,31 -1,1 -2,1 -3,2 4,5 9,19 17,22 -26,11 20,36 -4,41l6 19 -2 0c1,13 8,15 15,18 -1,3 -4,2 -5,2 0,19 2,21 19,32l-7 4c5,2 -3,30 13,44 0,0 -2,0 -4,-1 17,15 6,58 35,49l15 7c-10,-16 12,-5 11,-14 5,4 4,19 -3,14l1 -2c-15,7 11,20 4,27 14,14 31,27 53,34 23,8 49,3 69,-6l-10 -9c0,1 12,-6 12,-6 4,0 9,5 0,10 9,3 11,-14 10,-16 17,-8 3,15 7,12 0,0 6,-6 6,-6l-2 0c1,-8 -2,-12 6,-19 7,-4 8,2 11,0 0,1 1,0 2,-3l11 -12 -11 0c0,-9 9,-11 -4,-12 21,1 33,-44 40,-47 -3,-11 0,-19 5,-29 -3,2 -13,0 -8,-8 19,10 14,-13 31,-15 -12,3 6,-26 -12,-21 4,-6 8,2 15,-2 -3,-20 15,-38 18,-61 -3,-1 -8,2 -11,-4l16 -9c-1,-4 -16,-7 -5,-13 -2,1 -6,2 -6,-1 21,-42 0,-90 28,-132 -6,5 -6,1 -6,-3 -1,3 -7,-1 -11,0l12 -19c-11,-3 -1,-20 -11,-22l2 6c-12,-8 -28,11 -43,9 14,9 -21,22 -2,36 -3,3 -5,-3 -9,-1 7,4 8,8 5,15l-2 0c0,22 -8,30 -14,54l8 -1c-2,5 -5,6 -7,8 11,8 3,-14 15,-7 -17,5 -5,37 -24,39 -1,7 9,-1 8,7l-5 1 5 3c-2,5 -8,6 -12,6 1,-1 -1,-4 -1,-5 -6,5 -1,19 -3,21l4 -7c0,22 -12,46 -9,69l4 -1c2,18 -7,11 -10,29l-1 -1c3,5 3,10 1,14 -3,-5 -11,5 -13,-2 0,18 2,9 10,26l-7 -1c3,6 6,8 3,16 -1,-8 -10,1 -13,-9 -19,10 -1,30 -22,26 10,16 16,-8 17,-2 7,0 7,12 2,17 -3,5 -23,-5 -30,5 1,-1 0,-2 0,-3 -5,1 -2,11 -10,10 4,10 -6,4 2,14 0,1 6,-10 6,-10 -1,8 2,23 -12,24 0,-3 0,-8 1,-10 -4,-2 -3,5 -8,3 -5,-11 9,-9 8,-21 -5,-2 -3,14 -9,1 6,18 -8,2 -8,17l-2 -8c0,2 -1,5 -3,6l1 -10c-3,8 -7,-6 -8,-3 5,1 0,10 3,15 -13,9 -3,-19 -11,-19 1,-1 3,6 -1,8 -1,-2 -3,-5 -2,-10 -7,-4 -3,7 -8,9 2,-10 -7,1 -13,-1l5 -6c-5,-13 -14,10 -18,-4 0,0 11,-3 11,-3 0,0 -6,-4 -6,-4l8 -4c-10,-2 -10,-5 -12,-12 -4,5 -13,7 -17,1 2,-7 8,-2 2,-9 5,-1 12,-2 8,5 2,-1 5,-1 8,-2 2,-7 -6,-11 -8,-14 1,2 1,3 1,4 -1,1 -17,-7 -17,-7 2,-3 5,-3 8,-2 -2,-3 -6,-3 -9,-6 6,-2 12,-5 17,-1l-12 -9c2,-2 4,-10 7,-9 1,-9 -19,-13 -17,-24 -2,-1 -3,-1 -5,-3 -2,-10 3,-20 -9,-29l10 -10c-5,-8 -12,13 -20,-1 -7,-10 8,-6 10,-11 -7,-4 -20,-10 -13,-22 3,2 1,5 3,8zm-23 -114l0 0c2,2 7,6 3,8 -9,-2 -5,-4 -3,-8zm-21 -181l0 0c2,1 1,4 -2,7 -1,-2 0,-5 2,-7zm256 -318l0 0 0 0c-1,-7 -1,-4 0,0zm4 13l0 0c1,0 2,0 3,-1 -2,0 -4,-2 -5,-5 -1,1 -2,4 2,6zm-29 802l0 0 -3 1c2,-6 3,-3 3,-1z"/>
  <path class="fil0" d="M2831 3431c-1,0 -2,1 -4,1 1,1 3,1 4,-1z"/>
  <polygon class="fil0" points="2890,3772 2890,3773 2891,3772 "/>
  <path class="fil0" d="M2936 3100c-2,0 -3,0 -5,-1 2,1 3,2 5,1z"/>
  <path class="fil0" d="M3122 3157l-5 -6c2,3 1,5 0,7 2,-1 4,-3 5,-1z"/>
  <path class="fil0" d="M3096 3233c1,0 0,2 1,2l4 -1c-2,-4 -5,-6 -5,-1z"/>
  <path class="fil0" d="M3100 3173c-6,3 -2,6 1,11l-1 -1c9,-2 5,-6 0,-10z"/>
  <path class="fil0" d="M3101 3185c1,1 2,3 2,4 3,0 0,-2 -2,-4z"/>
  <path class="fil0" d="M3093 3116c0,3 9,-2 7,0 9,-1 -17,-10 -7,0z"/>
  <polygon class="fil0" points="3081,3184 3088,3180 3081,3180 "/>
  <path class="fil0" d="M3071 3146l2 8c1,0 2,0 3,1 -1,-5 -2,-10 -5,-9z"/>
  <path class="fil0" d="M3076 3155c1,2 2,5 4,5 -1,-1 -2,-3 -4,-5z"/>
  <polygon class="fil0" points="3075,3175 3076,3173 3074,3167 "/>
  <path class="fil0" d="M3024 3074c0,0 -8,-5 -8,-5 -3,2 -2,5 1,6 3,0 6,2 7,-1z"/>
  <path class="fil0" d="M3024 3108c0,-3 2,-4 3,-7l-8 6 5 1z"/>
  <path class="fil0" d="M3008 3092c-3,2 -13,-1 -6,5 2,-2 9,2 6,-5z"/>
  <polygon class="fil0" points="2909,3087 2911,3086 2899,3074 "/>
  <path class="fil0" d="M2891 3198c7,-7 -9,-6 -1,-12 -3,-3 -6,5 -9,2 2,6 -1,8 10,10z"/>
  <path class="fil0" d="M2881 3188c0,-1 0,-3 -1,-4 0,2 1,3 1,4z"/>
  <polygon class="fil0" points="3167,3507 3171,3500 3165,3505 "/>
  <path class="fil0" d="M3155 3494l11 -1 -10 -5c1,2 2,5 -1,6z"/>
  <path class="fil0" d="M2862 3571l-2 0c-3,1 -3,3 -3,6l5 -6z"/>
  <polygon class="fil0" points="2865,3656 2865,3654 2856,3658 "/>
  <path class="fil0" d="M2891 3721c-1,-3 -3,-5 -4,-8 3,5 -7,12 4,8z"/>
  <path class="fil0" d="M1861 2069c0,0 -1,2 -1,2 3,-4 1,-2 1,-2z"/>
  <polygon class="fil0" points="1888,2029 1888,2030 1891,2024 "/>
  <path class="fil0" d="M1917 1995c-9,-1 -9,13 -16,18l-2 0 1 6c6,-8 11,-20 17,-24z"/>
  <path class="fil0" d="M1950 1991c-4,-2 2,-5 -5,2 0,0 1,0 1,0 1,0 2,-1 4,-2z"/>
  <path class="fil0" d="M1946 1993c-3,3 5,0 0,0z"/>
  <path class="fil0" d="M1962 1979l-2 6c3,1 8,-2 7,0 4,-4 1,-5 -5,-6z"/>
  <path class="fil0" d="M1960 1971l-1 3c1,0 2,0 1,-3z"/>
  <path class="fil0" d="M1956 1980l3 -6c-2,-1 -5,-3 -1,2 -3,-2 -1,1 -2,4z"/>
  <path class="fil0" d="M1952 1981c-4,1 -9,3 -7,-3 -8,9 -1,11 7,3z"/>
  <path class="fil0" d="M1912 1989l-5 3 0 4c0,-2 7,-6 5,-7z"/>
  <path class="fil0" d="M1998 1961c-2,-2 -8,-4 -11,-6l-1 5c3,0 8,-1 12,1z"/>
  <path class="fil0" d="M1987 1955l2 -7c-5,4 -4,6 -2,7z"/>
  <polygon class="fil0" points="1951,1963 1950,1975 1953,1961 "/>
  <polygon class="fil0" points="2019,1947 2021,1954 2019,1943 "/>
  <path class="fil0" d="M2033 1937c2,6 11,6 11,10 3,-3 3,-9 2,-14 -1,4 -5,5 -13,4z"/>
  <path class="fil0" d="M2046 1925c0,2 0,5 0,8 1,-2 1,-5 0,-8z"/>
  <path class="fil0" d="M1999 1942c2,1 6,4 11,3l-9 -4 -2 1z"/>
  <path class="fil0" d="M2001 1941l0 0c3,-2 5,-3 5,-3 0,0 -2,1 -5,3z"/>
  <path class="fil0" d="M1999 1943l0 -1c-1,0 -1,0 0,1z"/>
  <path class="fil0" d="M1969 1954c0,-5 3,-13 -8,-12 2,5 8,5 8,12z"/>
  <path class="fil0" d="M1988 1938l-7 3c2,2 5,3 6,5l1 -8z"/>
  <polygon class="fil0" points="1989,1934 1988,1938 1991,1937 "/>
  <path class="fil0" d="M2029 1925c0,-5 2,-7 5,-10 -5,1 -9,3 -13,6 2,2 5,6 8,4z"/>
  <path class="fil0" d="M2015 1932l0 -1c-1,0 -2,0 0,1z"/>
  <polygon class="fil0" points="2064,1894 2063,1893 2064,1894 "/>
  <path class="fil0" d="M2020 1920c-4,0 -4,3 -3,6 1,-2 2,-4 4,-5 0,-2 -1,-2 -1,-1z"/>
  <path class="fil0" d="M2052 1916c-3,-1 -6,-1 -9,-1 4,1 10,3 9,1z"/>
  <path class="fil0" d="M2017 1932l0 1c3,0 2,0 0,-1z"/>
  <path class="fil0" d="M2017 1932c1,-2 0,-4 0,-6 -1,1 -2,3 -2,5 0,0 1,1 2,1z"/>
  <path class="fil0" d="M2022 1835c7,8 8,20 -5,17 1,11 27,31 46,41 -3,-4 -6,-6 -5,-15 -6,-3 -21,0 -23,-10 3,-10 8,-3 15,-2 -12,-6 -4,-21 -19,-34l-2 11c-2,-3 -3,-8 -7,-8z"/>
  <path class="fil0" d="M2051 1900l-1 3c4,-1 8,0 17,3 1,-6 -1,-9 -3,-12l-13 8 0 -2z"/>
  <path class="fil0" d="M2039 1910c-5,-8 -3,-16 -15,-21 -6,6 2,10 1,16 9,-10 1,6 13,4 -1,3 -3,5 -4,6 3,0 6,0 9,0l-1 -1 0 0 0 0c-1,0 -2,-1 -1,-1l0 0c-1,-1 -1,-2 -2,-3 5,-1 2,2 2,3l1 1 0 0 8 -11c-4,0 -6,3 -11,7z"/>
  <path class="fil0" d="M1954 1926c0,0 1,1 1,1 0,-1 0,-2 -1,-1z"/>
  <path class="fil0" d="M1961 1925c0,2 2,4 -1,6 -4,1 -3,-2 -5,-4 1,3 0,9 7,7l0 -2c6,-2 19,0 19,1 -7,-4 -12,-6 -20,-8z"/>
  <path class="fil0" d="M1997 1913l5 -11 -10 -1 3 3c-6,3 0,6 2,9z"/>
  <polygon class="fil0" points="2069,1897 2077,1906 2070,1891 "/>
  <polygon class="fil0" points="2081,1888 2088,1896 2087,1889 "/>
  <path class="fil0" d="M2801 1372l5 -5c-2,2 -3,3 -5,5z"/>
  <path class="fil0" d="M2774 1367l-1 9c2,-5 3,-8 1,-9z"/>
  <path class="fil0" d="M2388 1701c13,12 32,31 21,14l-12 -15c-1,4 -4,3 -9,1z"/>
  <path class="fil0" d="M2558 1488l-3 -6c1,7 2,14 3,21 0,-5 0,-10 0,-15z"/>
  <path class="fil0" d="M2536 1403l12 11c-3,-4 -7,-7 -12,-11z"/>
  <path class="fil0" d="M2951 1383l8 -18c-6,-2 -6,9 -8,18z"/>
  <path class="fil0" d="M2205 1802c7,2 12,3 15,2 -10,-5 -22,-13 -15,-2z"/>
  <path class="fil0" d="M2767 1589c2,-3 3,-7 4,-12 -2,3 -4,7 -4,12z"/>
  <path class="fil0" d="M2230 1798c-1,-1 -2,-1 -4,-2 -1,4 -2,7 -6,8 7,3 14,5 10,-6z"/>
  <path class="fil0" d="M3410 1638c0,1 0,1 0,2 1,-1 0,-1 0,-2z"/>
  <path class="fil0" d="M3509 1759c-2,-1 -3,-1 -5,-2 0,1 2,1 5,2z"/>
  <path class="fil0" d="M2135 1859c-2,3 0,2 0,0z"/>
  <path class="fil0" d="M2087 1829c0,-1 -1,-3 -3,-5 2,2 3,4 3,5z"/>
  <path class="fil0" d="M2193 1698l1 0c-3,-2 -3,-2 -1,0z"/>
  <path class="fil0" d="M2127 1857c2,1 4,1 6,1 -2,0 -4,-1 -6,-1z"/>
  <path class="fil0" d="M2131 1862c-1,0 -2,0 -3,0 1,2 3,3 3,0z"/>
  <path class="fil0" d="M2138 1856c-2,2 -3,2 -5,2 1,0 1,1 2,1 0,0 1,-1 3,-3z"/>
  <path class="fil0" d="M3161 1528c0,0 0,1 0,1 5,-4 4,-4 0,-1z"/>
  <polygon class="fil0" points="2357,1482 2357,1483 2358,1483 "/>
  <path class="fil0" d="M2360 1462c8,25 4,24 -2,21l31 49 -29 -70z"/>
  <path class="fil0" d="M2867 1378l-6 -20c15,-27 22,-15 17,-42 -11,62 -36,-2 -46,61l-4 -14c1,1 2,-3 4,-2 -8,-32 -15,45 -28,34 -4,-6 -7,-16 -3,-23l-13 15c-3,-2 -1,-13 2,-12l-17 3 0 -2c-4,10 -11,25 -14,32 -3,-10 3,-7 3,-15l-11 14c-3,-17 7,-32 13,-29 -3,-66 -9,15 -26,-25l10 -7c-3,-38 -12,-25 -21,-49 2,12 18,60 6,75 -3,-5 -7,-7 -13,6 1,-24 -5,-18 -12,-17l2 -31c-8,8 -8,24 -13,38 -8,-4 -10,-28 -11,-48 -14,-6 8,39 -8,44 -11,-12 -18,-1 -34,19 -10,-10 2,-19 -2,-28l-8 25c-3,0 -2,-8 -2,-12 -7,11 1,32 -9,41 2,35 -31,-48 -37,-6 -5,-8 -2,-19 -6,-31 -12,30 -11,22 -16,59l-16 -17c14,21 11,50 10,74 6,10 11,19 14,23l-7 20c-3,-5 -5,-15 -7,-28 0,2 0,5 0,7 -8,-9 -12,-27 -14,-44 4,5 7,11 11,16 -3,-19 -6,-40 -12,-57 0,4 0,7 -2,10 -1,-6 -1,-10 -3,-13 -1,-3 -1,4 0,12l-14 -32 3 14 -25 -14c-2,39 6,90 -6,110 -5,-25 -15,-38 -27,-66 18,27 10,-18 24,-17 -7,-1 -11,-14 -12,-20l-8 35c-9,-23 -11,-15 -19,-22 22,42 0,35 -1,52 -8,-14 -13,-30 -2,-31 -25,-28 11,57 -11,34 2,-1 4,0 1,-7 1,15 -15,10 -19,-4l2 -1c-17,1 -41,23 -24,59 -3,-5 -21,-44 -24,-51 0,0 10,32 20,65 11,32 21,65 21,65 -14,-31 -62,-97 -60,-120 -6,-3 -13,-5 -13,9 4,3 29,40 28,44 -27,-28 -16,-14 -41,-36 6,4 29,52 24,54 -3,-8 -27,-45 -28,-51l14 52c-1,-9 -21,-37 -32,-48 7,8 -11,6 -11,13l11 7c-18,2 24,69 9,75 -4,-10 -30,-57 -40,-57 11,24 53,112 52,135l-10 -11 1 19c-16,-34 -44,-111 -53,-144 -11,-6 -10,-13 -17,-6 -10,-9 -7,-20 -6,-23l-22 6c17,24 4,35 18,54l2 -39c16,24 35,77 20,81 -10,-7 -27,-44 -32,-52 4,10 -1,24 -6,20l-4 -17c-12,-3 11,39 -12,24 -4,0 -29,-23 -20,-9 23,22 80,102 91,124 -2,-1 -32,-16 -44,-26 -18,-16 -27,-52 -43,-66 4,6 7,15 8,19 -7,-3 -13,-20 -17,-12 15,23 -14,8 11,21 -1,11 -10,0 -16,7 13,12 29,52 28,62 -4,-5 -11,-11 -14,-14 -13,8 -27,4 -38,13 -5,-4 -15,-6 -19,-16 1,5 5,13 2,16 -20,-11 5,-9 -16,-25 9,12 4,23 5,34 15,16 14,-6 13,-17 19,24 31,56 27,75 -4,13 -16,-12 -15,-7 -20,10 18,50 -10,44 -17,-9 -23,-26 -33,-35 3,-12 19,-1 23,-5l-11 -2c-2,-7 0,-14 6,-12 -15,-9 -31,21 -53,22 2,6 2,14 8,17l2 -5c13,7 5,21 15,21 0,12 4,27 -9,28l-14 -12c4,3 13,4 11,-2 2,8 -28,-8 -16,12l14 4c1,12 6,30 -5,31 15,10 0,-3 19,8 -21,-15 20,-11 -6,-26 22,14 16,1 37,12 -4,-4 -10,-7 -2,-9 -1,-1 -2,-3 -2,-5l1 0 -1 0c-1,-1 -1,-1 -1,0 -3,-1 -6,-3 -9,-5 -6,-13 3,-19 2,-27 5,0 3,6 9,10l-2 -12c10,10 25,12 22,24l9 -5c10,4 18,3 18,-5 6,1 -2,-18 3,-7l6 -15 2 3c14,-6 9,-37 41,-22 2,-6 3,-13 12,-13l11 11c2,-7 25,3 17,-11 31,30 32,-7 45,-6l-11 -17c7,-3 9,-11 12,-23l-11 -15c-2,-17 25,1 35,-7 3,7 0,7 -5,4 37,29 10,-42 39,-22 -1,-8 3,-7 7,-4 0,0 0,1 0,1 1,0 1,0 2,0 3,2 6,5 9,7 -3,-4 -7,-6 -9,-7 2,-2 4,-6 5,-12l13 18c0,-1 0,-1 0,-1 8,5 -2,-10 -13,-23 0,-4 0,-9 -2,-14 21,29 3,-15 26,15 -7,-17 10,-21 -8,-55 3,4 5,5 3,7 6,1 12,3 10,-8l16 23 -11 -37c14,13 21,20 27,42 -5,-35 3,-16 -2,-51l8 17c3,-3 -3,-28 7,-15 24,27 44,-15 78,6 -26,-50 20,19 3,-21 7,12 12,18 13,30 6,-16 23,15 17,-22 6,12 5,19 8,26 0,-3 0,-12 3,-5 4,7 3,11 3,17 9,-5 -3,-45 -15,-82 12,15 13,12 10,-13 6,11 13,23 7,29 5,1 27,13 20,-17 3,7 6,0 6,-3 9,-1 10,2 17,-1l-3 -5c-2,-38 5,-9 11,-14l0 3c16,26 5,-14 22,17l-1 -24c2,-50 16,31 26,12l-3 -14c6,-17 13,69 18,75 0,4 -3,7 -4,10 12,30 3,-30 14,-37 1,16 -5,42 2,45 2,13 23,-53 30,-21 -1,-12 -2,-25 4,-34 8,-4 16,49 27,10 0,4 0,7 0,10 7,-10 21,-15 27,-36 -5,77 42,-33 31,38l19 -1 -2 7c10,6 18,-10 25,-26 2,5 -2,11 -3,15 15,16 16,13 38,-18l-3 22c6,-12 16,38 38,16 -1,3 -2,7 -4,9 25,-21 28,65 56,-7l17 -16c-14,-9 11,-30 8,-44 8,-2 10,26 2,28l-1 -4c-13,37 16,18 8,43 32,6 56,33 84,41l6 -27 10 5c0,7 -4,20 -11,17 -1,16 17,-8 19,-13 10,14 -16,27 -12,29l7 -1 -1 -3c9,-9 13,-19 21,-15 4,6 -2,15 -1,17 0,1 0,2 3,1l13 6 2 -20c9,-7 11,5 13,-18 -3,34 44,26 45,37 13,-9 21,-6 30,-1 -1,-4 5,-22 12,-17 -18,34 9,21 5,47 1,-18 25,4 26,-21 6,5 -5,12 -3,21 22,-6 33,19 56,21 2,-3 1,-9 8,-12l3 19c5,-1 12,-16 15,-3 0,-3 0,-8 3,-7 16,14 39,18 60,25 22,6 41,17 60,27 -5,-3 -1,-2 4,-1 -3,-1 1,-2 1,-3 0,0 15,9 16,9 4,-1 19,7 21,7l-6 -3c8,3 -7,-7 -5,-10 -9,-2 -14,-21 -28,-24 -2,-3 3,0 3,-3 -5,0 -9,-1 -14,-8l1 0c-18,-14 -24,-23 -42,-44l-2 7c-4,-4 -3,-7 -5,-10 -10,6 12,10 2,17 1,-18 -32,-22 -27,-42 -7,-6 -2,10 -9,5l1 -7 -6 5c-4,-4 -3,-12 -1,-16 1,1 4,1 6,1 -3,-10 -18,-10 -19,-14l5 9c-22,-9 -41,-35 -67,-33l-1 6c-19,1 -9,-13 -27,-18l1 -1c-6,3 -11,4 -16,1 8,-5 -2,-18 7,-23 -21,3 -12,5 -33,22l2 -12c-8,8 -10,13 -20,11 11,-5 2,-19 15,-27 -8,-33 -36,10 -30,-30 -21,28 8,26 1,30 0,12 -16,20 -20,15 -6,-3 6,-46 -9,-53 2,1 3,-1 4,0 -2,-12 -15,6 -16,-11 -12,19 -8,-6 -19,20l15 0c-10,3 -29,32 -35,11 3,-5 9,-10 13,-13 -1,-10 -9,2 -10,-8 11,-27 19,2 34,-15 0,-13 -22,12 -7,-15 -20,34 -13,-12 -34,12l7 -16c-3,2 -9,8 -11,7l13 -20c-15,15 -10,-24 -22,-17 17,7 -3,22 -1,38 -28,15 4,-51 -22,-53 4,-1 9,16 1,22 -3,-5 -7,-15 -6,-26 -17,-3 -4,20 -14,28 2,-24 -10,6 -19,11l5 -19c-14,-18 -16,38 -28,18l15 -24 -10 3 8 -21c-14,13 -16,8 -23,-2 -1,15 -11,35 -19,33 -2,-13 8,-17 -3,-18 5,-12 12,-27 12,-7 3,-6 6,-11 8,-17 -2,-16 -13,-9 -17,-10 1,1 3,3 3,6l-24 23c-1,-9 3,-14 7,-20 -4,1 -9,10 -14,10 5,-16 9,-33 18,-38l-20 13c0,-8 -4,-23 0,-28 -7,-13 -30,26 -38,9 -2,3 -4,6 -7,8 -10,-8 -16,-32 -34,-11l-1 -34c-12,5 2,43 -17,51 -15,7 0,-29 -3,-38 -9,14 -25,45 -32,16 5,-5 7,0 11,-1zm-134 -5l0 0c3,-5 9,-20 10,-6 -5,27 -6,14 -10,6zm-207 79l0 0c0,-8 4,-6 9,1 -1,3 -4,3 -9,-1zm-370 380l0 0 -1 -1c9,2 6,1 1,1zm-14 0l0 0c1,2 2,4 4,5 -2,-3 0,-4 3,-5 -4,-3 -7,-4 -7,0zm1011 -185l0 0 -1 -4c7,-4 4,0 1,4z"/>
  <path class="fil0" d="M2538 1413c2,4 4,8 5,12 0,-4 -1,-8 -5,-12z"/>
  <polygon class="fil0" points="2949,1386 2950,1387 2951,1383 "/>
  <path class="fil0" d="M2183 1609c4,1 7,3 10,6 -3,-4 -6,-7 -10,-6z"/>
  <path class="fil0" d="M2112 1882l3 -7c-2,3 -5,1 -8,0 2,3 6,5 5,7z"/>
  <path class="fil0" d="M2009 1861c0,2 -2,2 -1,3l4 4c3,-3 2,-9 -3,-7z"/>
  <path class="fil0" d="M2075 1852c-8,-9 -9,-3 -11,2 0,0 0,-1 0,-1 10,12 11,6 11,-1z"/>
  <path class="fil0" d="M2063 1854c-1,2 -2,3 -3,3 3,5 2,0 3,-3z"/>
  <path class="fil0" d="M2136 1846c-4,-1 10,13 5,10 9,13 0,-23 -5,-10z"/>
  <polygon class="fil0" points="2046,1826 2057,1836 2051,1825 "/>
  <path class="fil0" d="M2082 1808l-9 2c2,2 2,4 2,6 4,-3 10,-5 7,-8z"/>
  <path class="fil0" d="M2075 1816c-2,1 -4,3 -3,6 1,-1 3,-4 3,-6z"/>
  <polygon class="fil0" points="2051,1816 2054,1816 2059,1813 "/>
  <path class="fil0" d="M2149 1757l4 -9c-4,-5 -8,-7 -9,-3 1,5 0,8 5,12z"/>
  <path class="fil0" d="M2099 1738c4,1 6,4 11,7l-14 -16 3 9z"/>
  <path class="fil0" d="M2114 1716c-3,-5 -1,-22 -9,-13 3,5 0,15 9,13z"/>
  <polygon class="fil0" points="2235,1658 2233,1659 2258,1693 "/>
  <path class="fil0" d="M2272 1500c-15,-3 13,25 -3,19 4,11 13,5 16,15 -1,-14 5,-10 -13,-34z"/>
  <path class="fil0" d="M2285 1534c0,2 0,4 1,7 0,-3 -1,-6 -1,-7z"/>
  <polygon class="fil0" points="3532,1768 3538,1770 3534,1768 "/>
  <path class="fil0" d="M3545 1771l1 1 4 1c-1,0 -1,0 -5,-2z"/>
  <path class="fil0" d="M2716 1308l-1 8c1,8 3,9 6,10l-5 -18z"/>
  <polygon class="fil0" points="2814,1344 2813,1343 2812,1371 "/>
  <path class="fil0" d="M2901 1326c-3,-2 -8,3 -11,1 8,-3 6,33 11,-1z"/>
  <path class="fil0" d="M2166 4360c-1,-1 -3,-3 -3,-4 6,10 3,4 3,4z"/>
  <polygon class="fil0" points="2234,4450 2232,4449 2244,4461 "/>
  <path class="fil0" d="M2300 4533c-1,-13 -26,-28 -36,-45l0 -3 -9 -4c14,18 35,39 45,52z"/>
  <path class="fil0" d="M2323 4589c1,-5 10,8 -7,-11 0,1 1,2 1,3 1,2 3,4 6,8z"/>
  <path class="fil0" d="M2317 4581c-7,-9 2,8 0,0z"/>
  <path class="fil0" d="M2351 4620l-12 -9c0,4 8,15 4,12 11,11 11,7 8,-3z"/>
  <path class="fil0" d="M2365 4625l-6 -5c1,2 2,4 6,5z"/>
  <path class="fil0" d="M2347 4610l12 10c0,-3 2,-5 -5,-5 3,-1 -1,-1 -7,-5z"/>
  <path class="fil0" d="M2342 4602c-4,-8 -10,-17 2,-8 -19,-21 -21,-13 -2,8z"/>
  <path class="fil0" d="M2310 4531l-6 -9 -9 -5c5,2 13,16 15,14z"/>
  <path class="fil0" d="M2407 4696c2,-2 1,-10 3,-13l-10 -6c3,6 9,15 7,19z"/>
  <path class="fil0" d="M2410 4683l15 8c-10,-11 -14,-11 -15,-8z"/>
  <polygon class="fil0" points="2376,4618 2352,4604 2379,4622 "/>
  <polygon class="fil0" points="2450,4742 2439,4741 2457,4745 "/>
  <path class="fil0" d="M2479 4772c-8,0 0,15 -8,13 9,8 19,11 28,13 -8,-5 -14,-13 -20,-26z"/>
  <path class="fil0" d="M2514 4803c-4,-2 -9,-3 -15,-5 5,3 10,4 15,5z"/>
  <path class="fil0" d="M2443 4712c0,3 -2,8 4,16l1 -11c-2,-1 -3,-3 -5,-5z"/>
  <path class="fil0" d="M2448 4717l0 0c4,5 8,9 9,10 -1,-1 -4,-4 -9,-10z"/>
  <path class="fil0" d="M2442 4711l1 1c0,-1 0,-1 -1,-1z"/>
  <path class="fil0" d="M2400 4655c9,4 27,14 17,-4 -8,-1 -3,10 -17,4z"/>
  <path class="fil0" d="M2443 4698l-11 -14c-1,2 -1,6 -6,5l17 9z"/>
  <polygon class="fil0" points="2451,4702 2443,4698 2447,4703 "/>
  <path class="fil0" d="M2499 4774c8,2 14,8 21,14 -6,-9 -12,-17 -19,-24 -3,2 -10,3 -2,10z"/>
  <path class="fil0" d="M2475 4746l1 0c0,-1 0,-2 -1,0z"/>
  <polygon class="fil0" points="2589,4849 2589,4847 2588,4848 "/>
  <path class="fil0" d="M2501 4762c-4,-7 -9,-8 -14,-9 5,3 9,7 14,11 1,0 2,-1 0,-2z"/>
  <path class="fil0" d="M2536 4817c-1,-4 -4,-9 -6,-13 1,5 4,14 6,13z"/>
  <path class="fil0" d="M2476 4750l-1 0c1,3 1,2 1,0z"/>
  <path class="fil0" d="M2476 4750c4,2 8,2 11,3 -4,-3 -7,-5 -11,-7 0,2 0,3 0,4z"/>
  <path class="fil0" d="M2654 4808c-7,8 -28,4 -35,-15 -18,-4 -29,29 -30,54 3,-4 6,-7 23,-1 -1,-8 -22,-34 -5,-33 21,10 12,15 18,26 0,-16 34,2 42,-17l-20 -6c1,-3 10,-2 7,-8z"/>
  <path class="fil0" d="M2565 4824l-6 -3c5,6 7,13 10,27 12,4 16,2 19,0l-26 -24 3 0z"/>
  <path class="fil0" d="M2535 4800c10,-5 26,3 25,-13 -16,-13 -17,-2 -28,-7 26,20 -11,-2 3,18 -6,-2 -10,-6 -15,-10 3,5 7,10 10,16l0 -1 0 0 0 0c0,-2 0,-3 0,-2l1 1c1,-1 2,-2 4,-2 6,8 -1,3 -4,2l-1 1 0 0 29 18c-5,-6 -12,-12 -24,-21z"/>
  <path class="fil0" d="M2441 4651c1,1 0,1 0,2 2,1 3,1 0,-2z"/>
  <path class="fil0" d="M2448 4663c-2,0 -6,1 -11,-5 -4,-7 2,-3 4,-5 -5,-2 -16,-7 -8,6l3 0c8,11 14,31 11,30 2,-8 3,-14 1,-26z"/>
  <path class="fil0" d="M2495 4728l23 16 -5 -16 -3 4c-10,-12 -12,-5 -15,-4z"/>
  <polygon class="fil0" points="2588,4856 2578,4863 2601,4860 "/>
  <polygon class="fil0" points="2617,4879 2610,4887 2621,4888 "/>
  <path class="fil0" d="M4552 5159l7 -6c-3,2 -6,4 -7,6z"/>
  <path class="fil0" d="M4496 5166l0 10c2,-6 3,-10 0,-10z"/>
  <path class="fil0" d="M3411 5315c7,20 14,48 17,28l2 -19c-9,1 -15,-3 -19,-9z"/>
  <path class="fil0" d="M4034 5297l-3 -6c-4,7 -7,13 -9,19 3,-4 7,-8 12,-13z"/>
  <path class="fil0" d="M4045 5211l15 14c-3,-5 -8,-10 -15,-14z"/>
  <path class="fil0" d="M4848 5081l3 -21c-14,3 -5,11 -3,21z"/>
  <path class="fil0" d="M2927 5094c6,11 12,17 18,22 -6,-15 -9,-32 -18,-22z"/>
  <path class="fil0" d="M4562 5380c5,-5 6,-9 6,-14 -5,5 -7,9 -6,14z"/>
  <path class="fil0" d="M2972 5131c-1,-3 -2,-4 -3,-6 -8,-2 -16,-3 -24,-9 5,11 13,20 27,15z"/>
  <path class="fil0" d="M5851 4615c1,0 1,0 2,-1 0,-1 -1,0 -2,1z"/>
  <path class="fil0" d="M6098 4386c-2,4 -4,8 -6,13 1,-2 3,-6 6,-13z"/>
  <path class="fil0" d="M2730 4976c-7,-4 -2,0 0,0z"/>
  <path class="fil0" d="M2728 4910c2,-1 4,-1 6,-4 -2,2 -4,4 -6,4z"/>
  <path class="fil0" d="M3085 5072l1 1c-1,-4 -1,-4 -1,-1z"/>
  <path class="fil0" d="M2724 4964c1,3 3,6 6,9 -1,-2 -3,-5 -6,-9z"/>
  <path class="fil0" d="M2722 4970c-2,-2 -4,-4 -5,-5 -2,1 -2,3 5,5z"/>
  <path class="fil0" d="M2739 4982c-4,-3 -7,-6 -9,-9 0,2 1,3 0,3 2,1 5,3 9,6z"/>
  <path class="fil0" d="M5360 4966c1,0 1,1 2,1 4,-9 1,-7 -2,-1z"/>
  <path class="fil0" d="M3652 5162c-1,0 -1,0 -1,1l0 1 1 -2z"/>
  <path class="fil0" d="M3680 5151c-15,23 -21,19 -29,13l-2 58 31 -71z"/>
  <path class="fil0" d="M4683 5132l-21 -15c15,-33 33,-26 11,-48 10,63 -67,20 -58,82l-15 -12c4,1 4,-3 7,-3 -28,-27 -9,48 -41,44 -11,-4 -20,-12 -14,-21l-21 20c-7,-1 -7,-12 0,-12l-35 11 0 -2c-3,11 -13,27 -18,35 -10,-9 4,-8 0,-16l-18 18c-10,-16 5,-34 19,-33 -27,-63 -15,18 -59,-16l18 -10c-16,-36 -29,-21 -52,-42 6,11 47,54 28,72 -7,-4 -15,-6 -25,9 -3,-24 -13,-17 -27,-14l-2 -31c-14,10 -12,26 -20,40 -17,-2 -22,-26 -28,-46 -27,-4 22,38 -10,45 -24,-11 -39,3 -66,23 -16,-10 3,-20 -3,-28l-14 25c-3,0 -2,-8 -2,-12 -12,11 0,32 -19,40 -5,35 -39,-50 -63,-11 -5,-9 3,-19 2,-31 -32,25 -28,18 -55,53l-22 -21c16,24 -6,51 -26,72 5,12 10,22 13,27l-31 15c-4,-5 0,-16 6,-29 -2,3 -4,5 -6,8 -11,-13 -4,-30 5,-47 3,6 6,13 10,20 8,-19 16,-39 15,-58 -2,4 -6,7 -10,8 2,-5 3,-9 2,-12 0,-4 -4,3 -9,11l-5 -35 -2 13 -37 -24c-30,33 -59,85 -105,93 14,-24 7,-41 10,-70 9,33 35,-10 57,-3 -11,-4 -7,-18 -4,-23 0,0 -11,7 -21,14 -11,6 -22,12 -22,12 3,-24 -7,-19 -16,-30 3,49 -33,28 -52,41 1,-16 7,-32 27,-26 -18,-38 -36,53 -54,20 5,0 7,3 10,-5 -13,13 -40,-2 -31,-15l5 1c-32,-9 -98,-17 -110,22 0,-5 13,-46 16,-54 0,0 -20,30 -41,61 -21,30 -43,60 -43,60 12,-33 9,-115 40,-129 -7,-6 -15,-13 -34,-5 4,6 3,51 -5,53 -12,-42 -9,-23 -26,-60 6,9 -14,58 -26,54 3,-8 10,-51 16,-55l-43 42c10,-7 12,-42 9,-57 1,10 -26,-7 -35,-4l10 15c-33,-16 -53,62 -87,48 7,-9 28,-58 12,-69 -14,22 -70,106 -107,114l-2 -16 -29 8c28,-30 93,-93 123,-117 -9,-15 2,-18 -18,-22 -2,-14 17,-16 22,-16l-40 -20c-8,28 -43,19 -49,42l57 -15c-7,28 -53,71 -84,56 -4,-13 23,-47 26,-56 -8,9 -36,8 -37,1l19 -10c-14,-16 -41,25 -52,-7 -7,-5 -8,-41 -16,-26 0,33 -33,127 -49,146 -2,-4 -28,-44 -30,-62 -3,-27 40,-47 38,-71 -4,7 -13,13 -17,15 -5,-8 12,-20 -6,-23 -13,25 -32,-14 -17,19 -19,1 -14,-12 -33,-19 -1,19 -41,47 -60,46 4,-6 4,-15 4,-20 -31,-17 -43,-36 -73,-49 0,-7 -11,-21 0,-27 -6,1 -14,7 -23,3 -7,-28 22,7 20,-23 -7,13 -32,6 -49,7 -6,22 28,20 45,18 -15,28 -52,45 -89,39 -28,-8 -1,-23 -7,-22 -43,-30 -64,21 -91,-20 -5,-25 18,-30 21,-44 23,6 24,27 38,35l-12 -17c9,-2 24,1 29,10 -2,-11 -21,-22 -43,-34 -20,-14 -44,-30 -57,-47 -9,1 -22,-1 -21,8l12 5c2,18 -30,3 -20,17 -20,-1 -43,-1 -59,-21l6 -17c-2,4 7,18 16,17 -13,1 -17,-41 -39,-28l7 20c-20,-2 -47,-2 -60,-20 -2,20 5,2 5,28 4,-28 42,36 41,1 -1,29 16,24 21,54 3,-5 1,-14 14,0 2,-1 4,-2 6,-3l1 2 -1 -2c2,0 2,0 0,0 -2,-5 -3,-10 -2,-14 15,-6 38,11 50,10 8,9 -7,4 -6,13l18 -1c-7,13 11,37 -15,29l19 14c6,16 20,30 33,30 8,9 32,0 18,5l35 11 -1 4c29,21 74,15 97,62 12,2 25,3 41,16l-3 16c16,2 35,35 48,24 -2,46 64,44 86,61l9 -19c17,9 36,11 60,12l6 -18c24,-8 42,34 73,42 -4,6 -11,1 -15,-5 22,55 85,-4 108,38 10,-4 15,0 19,7 0,0 -1,0 -2,0 1,1 2,1 3,2 3,4 6,9 9,14 -2,-6 -4,-11 -7,-14 7,2 17,3 28,1l-2 22c1,0 1,0 2,0 8,10 10,-8 10,-25 6,-2 11,-5 16,-9 -2,35 27,-5 28,34 11,-16 52,-1 65,-38 -1,5 2,8 -3,8 9,7 19,14 30,5l-1 29 31 -32c10,19 14,31 -4,49 40,-26 30,-7 65,-34l-5 18c11,1 31,-20 35,-4 17,41 113,23 170,64 -7,-58 25,28 32,-15 2,14 10,22 -1,33 32,-11 45,24 69,-11 3,13 -8,19 -5,27 3,-3 11,-11 13,-3 3,8 -5,11 -10,16 32,0 37,-41 42,-79 14,19 23,17 35,-8 5,13 14,27 -6,31 11,3 67,20 68,-11 4,8 16,2 19,-2 24,2 26,5 50,2l-6 -5c9,-37 20,-8 39,-13l-1 4c46,26 19,-13 64,15l-3 -23c1,-50 40,28 64,7l-10 -13c13,-18 44,67 59,71 3,4 -5,7 -9,11 40,25 3,-31 29,-41 7,16 -2,42 17,43 10,12 48,-59 77,-31 -8,-11 -15,-23 -3,-34 19,-6 59,39 71,-3 3,3 4,6 5,9 13,-12 45,-24 50,-47 28,76 84,-54 97,16l44 -14 0 7c30,-2 36,-21 42,-40 8,3 5,11 5,15 45,2 48,-3 74,-46l9 21c6,-15 70,17 102,-23 0,3 1,7 -1,11 36,-39 126,18 116,-62l23 -29c-39,9 -6,-33 -26,-39 13,-9 46,7 29,17l-4 -2c7,39 51,-5 60,19 71,-33 150,-47 215,-84l-19 -20 23 -11c9,2 17,14 1,22 15,8 21,-26 19,-32 36,-8 2,34 12,29l12 -9 -4 -1c5,-15 1,-25 21,-36 14,-3 13,10 18,8 1,1 3,1 8,-4l29 -16 -21 -10c7,-16 26,-15 2,-27 37,19 108,-56 124,-56 9,-23 26,-33 46,-47 -7,1 -21,-12 -3,-23 16,35 40,-11 69,-1 -22,-4 44,-43 11,-46 15,-9 9,10 24,7 22,-40 74,-57 106,-101 -2,-3 -12,-1 -8,-13l31 -7c5,-10 -8,-21 13,-27 -4,0 -9,0 -5,-6 38,-34 69,-77 97,-121 14,-22 28,-44 43,-66 11,-19 23,-40 39,-67 -8,12 -4,3 1,-6 -4,6 -2,-1 -4,-1 1,1 21,-37 20,-38 1,-8 16,-43 17,-48l-5 13c6,-17 -13,22 -16,18 -3,9 -10,20 -19,32 -10,12 -21,24 -27,39 -5,5 2,-6 -2,-4 -2,9 -7,17 -19,32l0 -3c-30,42 -50,56 -92,96l9 1c-10,8 -13,9 -19,12 -2,17 26,-24 25,-8 -23,2 -62,63 -84,58 -14,12 12,3 -3,15l-8 0 2 8c-11,7 -20,6 -24,3 2,-2 5,-6 8,-9 -18,5 -34,31 -40,33l17 -9c-34,39 -94,67 -124,109l7 2c-25,31 -29,13 -61,40l0 -2c-3,10 -11,19 -20,25 4,-12 -26,-1 -19,-16 -28,33 -12,19 -21,54l-12 -6c-2,14 0,19 -16,32 9,-17 -21,-7 -12,-28 -51,0 -42,55 -81,31 0,39 44,-2 38,10 14,5 -2,30 -16,34 -13,6 -44,-27 -75,-10 4,-2 2,-4 6,-6 -17,-2 -17,24 -39,17 2,23 -20,8 -9,34l27 -20c-14,14 -14,52 -49,51 -1,-7 4,-17 8,-24 -12,-4 -13,13 -25,9 -11,-27 33,-23 40,-50 -14,-7 -24,34 -29,2 5,41 -34,9 -42,47l-6 -17c-3,4 -6,15 -12,18l1 -26c-9,26 -42,-2 -54,14 36,-14 17,17 38,23 -34,41 -46,-33 -91,-6 5,-5 29,0 22,12 -11,1 -26,-1 -36,-8 -31,16 13,16 4,32 -20,-17 -13,15 -25,27l-7 -18c-43,1 5,42 -35,40l4 -31 -15 13 -5 -23c-13,23 -21,21 -42,21 10,12 10,36 -6,42 -16,-8 0,-20 -24,-10 2,-14 2,-30 19,-16 -1,-7 1,-14 0,-21 -17,-8 -33,6 -41,9 3,0 8,0 11,2l-26 38c-8,-6 -6,-13 -3,-20 -7,4 -9,14 -19,19 -2,-17 -8,-34 4,-45l-27 27c-5,-6 -23,-15 -21,-22 -21,-4 -36,44 -64,37 -1,4 -2,7 -7,11 -24,2 -50,-15 -72,16l-23 -28c-20,11 31,35 -3,54 -23,15 -15,-25 -26,-32 -9,18 -25,55 -54,34 7,-8 14,-4 20,-8zm-269 53l0 0c5,-6 14,-22 19,-8 -3,27 -9,14 -19,8zm-420 65l0 0c5,-8 11,-3 18,6 -6,1 -11,0 -18,-6zm-1188 -234l0 0c0,0 0,0 1,0 7,12 5,8 -1,0zm-18 -21l0 0c-3,0 -4,2 -4,4 3,-2 8,1 13,6 1,-4 -1,-9 -9,-10zm2698 34l0 0 -7 -1c8,-11 7,-5 7,1z"/>
  <path class="fil0" d="M4044 5221c1,4 2,8 2,12 2,-3 2,-8 -2,-12z"/>
  <path class="fil0" d="M4847 5085l1 0c0,-1 0,-3 0,-4l-1 4z"/>
  <path class="fil0" d="M3208 5042c4,4 5,8 6,12 2,-4 1,-9 -6,-12z"/>
  <path class="fil0" d="M2661 4932l16 7c-7,-4 -7,-8 -9,-13 -2,3 -2,9 -7,6z"/>
  <path class="fil0" d="M2596 4776c-2,0 -4,-3 -7,-3l-2 4c8,6 16,7 9,-1z"/>
  <path class="fil0" d="M2676 4885c5,-11 -5,-14 -15,-20 0,1 1,1 1,2 -12,10 1,14 14,18z"/>
  <path class="fil0" d="M2658 4864c-3,-2 -6,-4 -8,-7 -5,5 2,4 8,7z"/>
  <path class="fil0" d="M2756 4982c-2,-6 -11,12 -11,6 -14,10 41,5 11,-6z"/>
  <polygon class="fil0" points="2690,4848 2685,4862 2697,4856 "/>
  <path class="fil0" d="M2760 4907l-13 -13c-2,2 -4,2 -7,1 9,7 18,16 20,12z"/>
  <path class="fil0" d="M2740 4895c-5,-3 -10,-6 -14,-6 3,2 9,5 14,6z"/>
  <polygon class="fil0" points="2713,4859 2716,4864 2726,4872 "/>
  <path class="fil0" d="M2927 5014l20 5c5,-4 2,-10 -6,-11 -6,1 -14,-1 -14,6z"/>
  <path class="fil0" d="M2898 4943c3,6 1,9 1,16l11 -19 -12 3z"/>
  <path class="fil0" d="M2951 4966c5,-5 34,-3 11,-13 -4,5 -24,0 -11,13z"/>
  <polygon class="fil0" points="3211,5117 3206,5115 3191,5155 "/>
  <path class="fil0" d="M3491 5096c-19,-15 -13,26 -29,7 -8,9 13,16 5,23 17,-7 22,0 24,-30z"/>
  <path class="fil0" d="M3467 5126c-2,1 -5,3 -8,5 4,-2 7,-3 8,-5z"/>
  <polygon class="fil0" points="6119,4334 6124,4319 6121,4328 "/>
  <path class="fil0" d="M6128 4305l2 -3 2 -9c-1,3 -1,5 -4,12z"/>
  <path class="fil0" d="M4368 5125l0 8c3,8 6,8 13,9l-13 -17z"/>
  <polygon class="fil0" points="4565,5127 4562,5127 4573,5153 "/>
  <path class="fil0" d="M4721 5066c-7,0 -14,7 -20,7 13,-7 29,25 20,-7z"/>
 </g>
</svg>
