<?xml version="1.0" standalone="no"?>
<!DOCTYPE svg PUBLIC "-//W3C//DTD SVG 20010904//EN"
 "http://www.w3.org/TR/2001/REC-SVG-20010904/DTD/svg10.dtd">
<svg version="1.0" xmlns="http://www.w3.org/2000/svg"
 width="1280.000000pt" height="942.000000pt" viewBox="0 0 1280.000000 942.000000"
 preserveAspectRatio="xMidYMid meet">
<metadata>
Created by potrace 1.15, written by Peter Selinger 2001-2017
</metadata>
<g transform="translate(0.000000,942.000000) scale(0.100000,-0.100000)"
fill="#000000" stroke="none">
<path d="M9825 9401 c17 -10 116 -69 220 -131 872 -519 1260 -895 1745 -1693
47 -77 86 -134 88 -128 6 19 -16 233 -33 316 -102 493 -444 972 -925 1296
-208 140 -513 271 -742 319 -109 23 -251 40 -328 40 l-55 0 30 -19z"/>
<path d="M2170 9379 c-506 -109 -1013 -548 -1340 -1162 -83 -156 -200 -476
-200 -548 0 -22 97 77 395 406 120 132 289 315 376 406 388 408 736 674 1107
845 72 33 108 55 100 60 -7 4 -87 9 -178 11 -137 2 -181 -1 -260 -18z"/>
<path d="M8385 7649 c-60 -9 -195 -46 -195 -54 0 -8 212 -72 475 -145 563
-156 729 -215 1016 -361 298 -152 631 -402 862 -648 174 -185 414 -529 557
-800 44 -85 98 -179 119 -210 87 -127 192 -202 331 -237 90 -23 279 -15 370
16 130 44 232 112 310 207 22 26 40 50 40 54 0 3 -87 11 -192 18 -187 11 -355
31 -429 51 -51 14 -68 37 -153 203 -295 583 -850 1143 -1482 1496 -521 291
-1225 468 -1629 410z"/>
<path d="M3555 7544 c-338 -27 -529 -55 -730 -105 -491 -124 -892 -344 -1278
-701 -167 -154 -286 -296 -524 -624 -48 -67 -110 -149 -137 -182 l-48 -60 -74
-7 c-129 -13 -314 14 -622 90 -72 18 -132 29 -132 26 0 -3 22 -33 49 -66 131
-160 371 -315 566 -366 155 -40 325 -25 433 38 138 81 235 200 446 547 152
249 299 423 496 588 436 364 973 561 1745 638 110 11 226 25 258 31 85 15 188
48 182 59 -9 15 -116 51 -210 71 -89 18 -319 31 -420 23z"/>
<path d="M5185 5130 c-188 -20 -336 -64 -510 -150 -163 -81 -287 -172 -431
-315 -315 -313 -565 -759 -771 -1372 -82 -247 -78 -303 40 -518 469 -859 1028
-1535 1609 -1948 224 -160 539 -330 720 -390 157 -53 350 -60 503 -19 110 29
343 125 550 227 425 209 808 473 1140 788 306 289 527 550 760 895 156 233
168 299 96 562 -265 969 -666 1617 -1190 1925 -351 205 -764 263 -1226 169
-66 -13 -136 -28 -155 -34 -59 -17 -93 -12 -206 31 -323 121 -669 177 -929
149z"/>
<path d="M10464 3031 c-226 -61 -407 -217 -520 -446 -95 -196 -134 -407 -134
-737 0 -586 185 -1119 586 -1688 40 -58 84 -117 96 -133 l23 -27 212 45 c942
198 1495 425 1808 740 117 118 179 215 227 355 31 91 32 101 32 245 -1 176
-19 260 -84 392 -74 150 -216 261 -395 309 -133 35 -361 29 -564 -16 -47 -10
-88 -17 -92 -15 -3 3 -9 23 -13 45 -24 149 -136 402 -240 541 -141 187 -342
330 -541 385 -95 26 -312 29 -401 5z"/>
</g>
</svg>
