<?xml version="1.0" standalone="no"?>
<!DOCTYPE svg PUBLIC "-//W3C//DTD SVG 20010904//EN"
 "http://www.w3.org/TR/2001/REC-SVG-20010904/DTD/svg10.dtd">
<svg version="1.0" xmlns="http://www.w3.org/2000/svg"
 width="1280.000000pt" height="768.000000pt" viewBox="0 0 1280.000000 768.000000"
 preserveAspectRatio="xMidYMid meet">
<metadata>
Created by potrace 1.15, written by Peter Selinger 2001-2017
</metadata>
<g transform="translate(0.000000,768.000000) scale(0.100000,-0.100000)"
fill="#000000" stroke="none">
<path d="M5823 7085 c-833 -95 -1566 -469 -2097 -1070 -65 -74 -75 -81 -139
-102 -77 -24 -109 -49 -139 -108 -11 -22 -44 -78 -73 -125 -29 -47 -69 -118
-90 -158 -21 -40 -39 -71 -41 -70 -7 7 50 255 82 356 69 223 251 637 309 704
48 57 51 81 18 147 -53 107 -165 166 -314 166 -78 0 -91 -3 -160 -37 -167 -83
-299 -249 -495 -623 -135 -259 -217 -446 -350 -800 -25 -66 -24 -67 -53 50
-61 247 -74 410 -66 835 7 400 2 475 -41 571 -32 71 -69 107 -164 159 -118 65
-201 85 -355 85 -122 0 -133 -2 -187 -28 -69 -34 -121 -92 -145 -161 -15 -41
-18 -81 -17 -206 1 -181 22 -303 110 -648 30 -119 70 -289 90 -377 19 -88 37
-168 40 -178 3 -10 -14 2 -39 27 -25 24 -60 52 -78 61 -76 40 -211 26 -346
-35 -57 -26 -107 -37 -303 -65 -325 -47 -434 -89 -524 -198 -67 -82 -87 -142
-103 -315 -16 -173 -11 -221 33 -320 17 -40 120 -202 128 -202 0 0 32 -11 69
-24 l68 -24 88 -263 c127 -379 174 -488 268 -611 64 -85 147 -142 248 -174 25
-7 39 -17 37 -25 -24 -93 -28 -213 -10 -273 19 -61 99 -138 173 -166 68 -25
183 -46 296 -55 l76 -6 7 -97 c4 -53 16 -150 27 -216 107 -653 414 -1087 865
-1222 121 -36 334 -45 486 -19 215 36 478 131 825 300 l212 103 85 -68 c782
-622 1838 -848 2826 -605 559 138 1062 416 1472 814 l117 113 223 -12 c278
-16 760 -8 903 14 295 45 549 132 739 254 189 121 391 328 541 555 l38 57 91
-7 c129 -11 291 -8 358 6 76 16 146 64 178 121 23 41 25 56 25 157 0 85 3 113
13 113 31 0 127 42 172 75 107 78 182 206 331 560 l97 229 46 12 c63 16 87 34
139 101 86 112 117 204 117 344 0 112 -13 180 -50 255 -61 125 -164 183 -445
250 -141 34 -200 53 -270 89 -151 77 -239 79 -331 9 -26 -20 -44 -29 -41 -21
3 8 15 48 27 88 12 41 62 196 111 345 125 382 153 498 153 649 1 115 0 122
-29 174 -56 102 -146 137 -329 129 -90 -5 -124 -11 -181 -33 -110 -44 -149
-76 -185 -148 -42 -86 -56 -177 -74 -487 -16 -262 -31 -380 -66 -535 -22 -93
-69 -247 -79 -258 -4 -4 -31 79 -61 185 -88 321 -248 734 -355 918 -61 103
-170 217 -240 249 -144 67 -331 13 -385 -111 -19 -45 -20 -50 -4 -80 9 -18 22
-40 30 -48 18 -21 147 -411 178 -542 67 -273 86 -579 78 -1238 -5 -361 17
-521 91 -669 l32 -66 -34 -100 c-38 -111 -50 -216 -32 -282 6 -23 27 -65 46
-93 l35 -52 -36 -43 c-134 -160 -330 -244 -643 -275 -138 -13 -361 -13 -361 0
0 6 6 23 14 38 33 64 118 308 150 432 174 661 123 1356 -143 1973 -169 390
-229 512 -319 652 -88 137 -234 336 -291 397 -32 35 -66 78 -75 95 -24 48 -67
66 -159 68 -72 2 -83 5 -125 36 -498 360 -968 555 -1540 640 -181 27 -618 35
-799 14z m-2845 -3477 c47 -397 200 -836 415 -1191 l66 -107 -47 -24 c-208
-105 -468 -195 -585 -203 l-78 -6 -48 50 c-113 117 -199 381 -217 665 l-6 103
82 23 c191 52 331 146 386 258 47 96 41 255 -18 429 -12 36 -12 43 7 72 11 18
23 32 26 33 3 0 11 -46 17 -102z"/>
</g>
</svg>
