<?xml version="1.0" encoding="UTF-8"?>
<!DOCTYPE svg PUBLIC "-//W3C//DTD SVG 1.1//EN" "http://www.w3.org/Graphics/SVG/1.1/DTD/svg11.dtd">
<!-- Creator: CorelDRAW X8 -->
<svg xmlns="http://www.w3.org/2000/svg" xml:space="preserve" width="8.09722in" height="7.35267in" version="1.1" style="shape-rendering:geometricPrecision; text-rendering:geometricPrecision; image-rendering:optimizeQuality; fill-rule:evenodd; clip-rule:evenodd"
viewBox="0 0 8097 7353"
 xmlns:xlink="http://www.w3.org/1999/xlink">
 <defs>
  <style type="text/css">
   <![CDATA[
    .fil0 {fill:#46464B;fill-rule:nonzero}
   ]]>
  </style>
 </defs>
 <g id="Layer_x0020_1">
  <metadata id="CorelCorpID_0Corel-Layer"/>
  <path class="fil0" d="M6672 879c-22,-26 -24,-7 -29,-9 40,39 31,6 29,9z"/>
  <polygon class="fil0" points="7056,1287 7046,1283 7107,1341 "/>
  <path class="fil0" d="M7347 1723c-5,-54 -101,-161 -147,-242l-4 -15 -40 -25c69,91 156,211 191,282z"/>
  <path class="fil0" d="M7434 1992c1,-19 34,50 -26,-59 2,6 2,8 3,11 5,10 12,24 23,48z"/>
  <path class="fil0" d="M7411 1944c-24,-48 9,36 0,0z"/>
  <path class="fil0" d="M7523 2170l-36 -63c1,16 26,75 13,55 33,65 32,50 23,8z"/>
  <path class="fil0" d="M7566 2226l-18 -33c1,7 4,16 18,33z"/>
  <path class="fil0" d="M7510 2123l38 70c-1,-11 6,-15 -17,-32 9,3 -3,-9 -21,-38z"/>
  <path class="fil0" d="M7495 2081c-12,-39 -33,-87 7,-26 -65,-122 -70,-97 -7,26z"/>
  <path class="fil0" d="M7381 1735l-21 -51 -31 -37c16,18 48,94 52,88z"/>
  <path class="fil0" d="M7664 2593c7,2 6,-27 10,-34l-22 -49c6,27 18,77 12,83z"/>
  <path class="fil0" d="M7674 2559c0,0 9,18 16,37 7,18 14,37 14,37 -17,-69 -27,-80 -30,-74z"/>
  <path class="fil0" d="M7595 2228l-69 -114c0,0 20,34 40,69 10,17 20,34 27,47 7,13 11,22 11,22l-9 -24z"/>
  <polygon class="fil0" points="7734,2885 7714,2844 7747,2918 "/>
  <path class="fil0" d="M7769 3082c-14,-31 -9,47 -20,13 9,53 20,98 32,139 -9,-44 -11,-91 -12,-152z"/>
  <path class="fil0" d="M7797 3303c-3,-22 -9,-45 -16,-69 5,23 10,46 16,69z"/>
  <path class="fil0" d="M7736 2765c-2,6 -7,20 -1,64l7 -34c-2,-9 -4,-20 -6,-30z"/>
  <path class="fil0" d="M7742 2794l0 1c6,34 11,57 13,67 -2,-9 -6,-29 -13,-68z"/>
  <path class="fil0" d="M7734 2757c1,3 1,5 2,8 0,-4 1,-5 -2,-8z"/>
  <path class="fil0" d="M7656 2429c22,42 60,133 42,39 -19,-29 -9,25 -42,-39z"/>
  <path class="fil0" d="M7741 2715l-18 -83c-4,3 -5,19 -15,-2l33 85z"/>
  <polygon class="fil0" points="7756,2754 7741,2715 7748,2746 "/>
  <path class="fil0" d="M7797 3158c10,36 15,76 20,120 -2,-48 -6,-98 -10,-145 -5,-6 -15,-26 -10,25z"/>
  <path class="fil0" d="M7777 2981c0,2 1,5 2,7 0,-5 0,-9 -2,-7z"/>
  <polygon class="fil0" points="7818,3721 7821,3714 7818,3712 "/>
  <path class="fil0" d="M7808 3125c0,-37 -9,-58 -15,-78 5,27 11,55 14,86 2,3 3,3 1,-8z"/>
  <path class="fil0" d="M7810 3425c2,-19 3,-40 4,-63 -3,19 -8,57 -4,63z"/>
  <path class="fil0" d="M7777 3001c-1,-2 -1,-3 -2,-5 -1,12 0,10 2,5z"/>
  <path class="fil0" d="M7777 3001c5,18 10,32 16,46 -5,-21 -10,-41 -14,-59 -1,5 -1,10 -2,13z"/>
  <path class="fil0" d="M7895 3864c-12,-8 -13,-105 4,-189 -5,-83 -51,-30 -78,39 4,3 12,3 12,87 11,-28 27,-185 36,-113 1,112 -10,91 -23,145 21,-45 9,144 34,123 0,0 1,-25 2,-50 0,-25 1,-50 1,-50 4,-1 6,35 12,8z"/>
  <path class="fil0" d="M7828 3555l-2 -34c-3,39 -5,67 -19,118 3,57 7,69 11,73 0,0 3,-42 6,-84 3,-42 2,-84 2,-84l2 11z"/>
  <path class="fil0" d="M7823 3367c16,26 25,109 38,58 -6,-102 -15,-71 -24,-131 11,163 -10,-46 -12,72 -4,-32 -6,-61 -8,-88 -1,30 -1,58 -3,84 1,-1 1,-2 1,-3l0 -1 0 0c2,-7 3,-9 2,-1 0,0 0,2 0,3 2,1 4,4 6,7 0,47 -3,8 -6,-7 0,-1 -1,-2 -2,-2l0 1c0,0 4,40 8,81 2,40 3,81 3,81 2,-34 4,-78 -3,-154z"/>
  <path class="fil0" d="M7754 2543c0,5 -1,6 -2,6 5,10 8,14 2,-6z"/>
  <path class="fil0" d="M7764 2611c-5,-11 -12,-19 -22,-57 -6,-34 6,-2 10,-5 -10,-21 -35,-76 -18,-3l5 10c14,66 18,153 13,142 7,-22 12,-40 12,-87z"/>
  <path class="fil0" d="M7819 2993c0,0 7,34 14,68 8,33 13,67 13,67 0,0 1,-17 2,-35 0,-18 1,-36 1,-36l-7 5c-9,-78 -16,-60 -23,-69z"/>
  <path class="fil0" d="M7810 3736l-14 -19c0,0 4,20 8,40 5,20 7,39 7,39 0,0 0,-15 0,-30 0,-15 -1,-30 -1,-30z"/>
  <path class="fil0" d="M7795 3911l-12 -8c0,0 1,12 1,23 1,12 1,24 1,24 0,0 3,-10 5,-20 3,-9 5,-19 5,-19z"/>
  <path class="fil0" d="M187 4782l-18 -38c8,18 14,30 18,38z"/>
  <path class="fil0" d="M304 5063l9 4c-10,-11 -15,-15 -9,-4z"/>
  <path class="fil0" d="M5040 6923c-60,2 -127,-1 -117,12l21 9c39,-12 69,-18 96,-21z"/>
  <path class="fil0" d="M2117 6649c4,3 9,7 13,11 15,2 30,4 42,6 -16,-6 -35,-11 -55,-17z"/>
  <path class="fil0" d="M2053 6680l-66 -45c14,11 35,26 66,45z"/>
  <path class="fil0" d="M158 3146l1 -51c-25,73 -6,43 -1,51z"/>
  <path class="fil0" d="M7114 5558c-35,36 -63,66 -85,92 44,-41 85,-72 85,-92z"/>
  <path class="fil0" d="M367 4838c-10,-22 -17,-30 -19,-29 11,23 18,35 19,29z"/>
  <path class="fil0" d="M6935 5760c7,-6 13,-11 20,-17 22,-29 46,-58 74,-93 -32,32 -69,67 -94,110z"/>
  <path class="fil0" d="M4837 112c4,1 9,1 13,2 2,-2 -4,-2 -13,-2z"/>
  <path class="fil0" d="M6425 712c-15,-8 -39,-21 -61,-33 10,7 28,17 61,33z"/>
  <path class="fil0" d="M7626 4596c12,-35 1,-6 0,0z"/>
  <path class="fil0" d="M7736 4439c-1,8 -1,15 2,17 -3,-4 -3,-10 -2,-17z"/>
  <path class="fil0" d="M6734 6090c-1,1 -2,2 -3,3 11,-6 9,-5 3,-3z"/>
  <path class="fil0" d="M7650 4545c-5,13 -12,28 -19,44 4,-7 10,-20 19,-44z"/>
  <path class="fil0" d="M7642 4550c4,-12 8,-22 11,-31 -1,-5 -3,-1 -11,31z"/>
  <path class="fil0" d="M7609 4645c7,-20 14,-39 22,-56 -3,6 -5,9 -5,7 -4,10 -9,25 -17,49z"/>
  <path class="fil0" d="M1862 1039c2,-2 5,-3 8,-4 28,-27 15,-17 -8,4z"/>
  <path class="fil0" d="M4077 7195c1,0 2,-1 4,-1 -2,0 -4,0 -6,0l2 1z"/>
  <path class="fil0" d="M3937 7203c60,-14 93,-12 138,-9l-46 -41c0,0 -22,14 -46,26 -23,12 -46,24 -46,24z"/>
  <path class="fil0" d="M44 4069c0,0 -3,25 -3,50 -1,26 -2,51 -2,51 -17,-60 -22,-112 -25,-137 -4,-26 -6,-24 -14,24 20,6 29,104 39,201 15,96 32,193 57,194l5 67c-4,-19 -7,-21 -10,-40 7,131 51,86 91,244 15,55 24,94 5,59l55 116c14,34 3,29 -11,-6 0,0 21,44 41,88 11,22 21,44 29,61 7,16 14,27 14,27l-2 -1c19,21 58,71 76,96 18,46 -15,-19 -14,-6 0,0 14,22 29,45 17,21 33,42 33,42 14,43 -46,-25 -77,-92 4,55 17,73 41,102 26,27 54,70 107,165 0,0 -16,-20 -32,-40 -16,-20 -30,-41 -30,-41 6,35 24,67 47,103 22,37 47,78 78,128 -13,-25 -102,-211 -27,-121 17,28 39,66 86,108 -11,10 30,56 79,115l-19 9c60,58 64,46 103,76 60,70 64,92 69,118 104,106 -54,-90 73,30 40,46 80,80 123,115 43,34 89,69 151,109 62,58 -20,0 0,24l70 34c14,12 6,12 2,12 55,34 16,-11 100,42 35,-3 146,148 265,193 22,21 -19,2 -16,14 151,79 131,66 260,119 0,0 24,18 49,35 24,17 48,34 48,34 -69,-55 38,-19 130,14 -24,-22 -44,-40 -58,-51 0,0 35,16 70,32 36,14 72,28 72,28 15,11 -2,11 -29,8 11,2 20,5 28,7 46,31 15,30 -26,23 -14,-12 -29,-24 -44,-36 -40,-5 -77,-11 -76,4 10,3 28,10 47,19 -10,-2 -17,-2 -14,2 4,5 20,8 46,14l21 36 12 -4c0,0 44,25 88,51 22,13 45,25 62,33 17,9 28,15 28,15 72,18 139,33 218,47 39,8 80,17 125,29 45,10 95,22 150,37 -59,-1 -20,23 -29,41 -27,-20 -70,-32 -121,-43 -50,-14 -107,-29 -162,-52 57,24 41,28 25,26 0,0 52,14 103,29 52,13 105,24 105,24 -10,14 39,26 90,50 -31,-42 160,23 246,34 3,11 -20,19 -122,-12 107,56 156,-1 262,46 -25,-6 -38,-11 -49,-7 60,6 204,37 168,40l-25 -4c84,19 214,37 326,45 113,6 207,5 220,-10 2,4 -24,33 -35,38 0,0 78,-20 155,-41 77,-23 151,-47 151,-47 -26,24 79,79 -64,94 41,2 92,9 178,-6 -28,-2 -70,-30 -33,-34 106,19 73,12 204,23 -42,-1 1,-43 66,-49 -10,7 10,36 -14,43 0,0 40,-14 80,-27 39,-15 78,-30 78,-30 -39,12 -2,32 36,36 -9,-2 26,-7 69,-13 43,-8 93,-16 114,-22l-70 5c92,-15 135,-36 176,-61 41,-25 82,-45 169,-71 -19,14 -40,61 52,39 36,-30 155,-140 296,-212l33 -1c0,0 28,-13 54,-28 27,-16 54,-31 54,-31 -56,60 -238,190 -346,249 69,-14 22,6 121,-28 39,-3 -49,32 -78,43 0,0 58,-18 117,-36 58,-21 116,-42 116,-42 -18,-14 164,-92 147,-106 0,0 -58,32 -116,63 -60,30 -120,59 -120,59 -17,-17 121,-111 277,-178 43,-11 -13,49 -7,53 18,-14 140,-84 157,-86l-60 43c91,-34 125,-98 237,-135 34,-19 116,-37 115,-52 -69,13 -118,-48 -92,-85 13,-4 184,-90 228,-105 65,-21 -54,93 1,75 -1,-6 25,-31 36,-43 36,-20 -4,26 68,-30 0,-26 149,-108 23,-40 68,-58 77,-54 158,-119 -34,10 39,-98 100,-160 0,8 20,0 29,-5 66,-61 118,-105 166,-153 50,-46 96,-94 151,-157 15,-7 71,-66 57,-33 12,-22 20,-44 52,-84 78,-67 -70,92 -4,46 -3,-6 15,-35 38,-70 22,-36 49,-79 68,-111 -15,3 -41,37 -68,78 -27,41 -58,87 -78,118 -22,-17 39,-133 128,-282 70,-117 47,-39 57,-61 144,-217 77,-211 193,-389 53,-69 33,11 53,0 -44,105 -91,148 -127,215 0,0 14,-19 27,-38 13,-20 26,-40 26,-40 -6,17 -17,43 -30,69 -13,25 -28,50 -41,66 26,-26 82,-122 140,-234 57,-113 115,-243 156,-336 7,-36 23,-95 6,-70l-20 60c-33,50 23,-118 -11,-46 11,-41 19,-85 29,-133 12,-48 25,-99 43,-156l25 -17c-6,1 -30,73 -34,106 4,-49 75,-169 59,-229 0,0 -8,20 -16,39 -7,20 -16,39 -16,39 9,-85 11,-190 32,-292 -27,43 -2,24 -36,93 42,-57 -56,260 -5,166 -46,67 -42,125 -94,213 7,-1 22,-30 -7,52 1,5 0,14 0,20 -1,3 -2,4 -3,6 1,-2 2,-3 3,-4 -1,3 0,4 0,-2 9,-19 18,-34 23,-39 4,46 -46,177 -55,225 -22,47 1,-24 -16,0l-17 70c-16,1 -76,117 -36,1 0,0 -11,26 -22,51 -10,25 -23,50 -23,50 -36,55 -77,133 -99,183 -27,44 -50,122 -37,78 0,0 -20,38 -41,76 -20,38 -41,76 -41,76l-4 -1c-93,142 -181,304 -330,434 -18,22 -35,46 -57,72 -23,25 -50,53 -85,86l-22 5c-49,55 -167,144 -183,173 -79,30 -280,220 -392,286l5 16c-74,50 -145,98 -237,161l14 9c-40,28 -95,56 -157,85 -64,27 -133,57 -203,87 7,-10 43,-23 69,-32 -176,46 -343,170 -509,196 -37,17 -66,23 -95,28 4,-2 7,-3 10,-4 -4,1 -10,3 -17,5 -18,2 -36,5 -56,7 17,0 34,-2 48,-5 -30,9 -76,23 -121,37l-23 -11c-4,1 -7,2 -11,3 -45,5 -34,16 -7,22 -23,8 -43,16 -59,23 -42,-19 -120,33 -175,14 -14,9 -72,20 -130,32 -57,12 -114,23 -125,38 -2,-3 -16,-3 10,-6 -53,3 -106,4 -152,13l-24 -18c0,0 -28,8 -56,16 -29,9 -58,15 -58,15 -70,-11 -98,-18 -30,-34 -166,26 -135,9 -278,28l8 -13c-51,-1 -134,8 -163,-5 -28,-8 -77,-16 -139,-27 -31,-4 -65,-10 -102,-15 -36,-7 -75,-14 -115,-21 -80,-13 -164,-36 -247,-55 -81,-25 -161,-47 -228,-75 42,53 -124,-58 -144,-34 -13,-14 -49,-33 -3,-24 -71,-22 -122,-45 -168,-64 -46,-19 -86,-38 -138,-46 -12,-15 34,0 23,-11 -12,-2 -47,-11 -59,-22 -12,-11 23,2 46,7 -139,-58 -163,-44 -185,-24 -64,-45 -100,-60 -156,-72 -20,-20 -55,-49 29,-7 -23,-13 -94,-54 -159,-91 -64,-39 -125,-73 -133,-65 -12,-13 -63,-40 -76,-46 -99,-67 -108,-73 -205,-139l24 22c-52,-7 -83,-53 -161,-106l3 -1c-81,-73 -99,-87 -119,-100 -18,-13 -40,-23 -113,-103l-1 20c-19,6 -52,-30 -92,-75 -41,-46 -84,-106 -133,-145l25 38c-59,-38 -97,-170 -139,-221 -7,-13 19,14 35,28 -100,-146 -31,-4 -119,-102 -6,-26 42,6 -12,-63 -11,-19 -53,-67 -102,-122 -49,-55 -95,-125 -118,-181 6,27 12,54 -24,4 -23,-41 -47,-100 -70,-158 -20,-59 -44,-114 -72,-148 -2,-12 -1,-17 1,-19 -15,-32 -40,-85 -60,-136 -19,-51 -38,-98 -51,-117 20,-40 -16,-145 -36,-246 -12,-50 -21,-99 -23,-135 -3,-37 -1,-60 12,-61 0,0 -2,-13 -3,-34 -1,-20 -2,-48 -2,-75 -1,-28 -3,-55 -3,-76 1,-20 1,-34 1,-34l5 6c7,-140 5,-190 -3,-241 7,-32 9,-8 11,-5 41,-202 43,-221 64,-395l20 -13c0,-50 112,-276 183,-466 1,3 2,8 -3,24 38,-108 114,-223 179,-321 67,-98 123,-180 124,-231 0,0 19,-33 37,-66 19,-33 40,-65 40,-65 -121,155 -4,-39 -60,20 45,-64 136,-148 81,-71l-12 10c2,24 40,-24 83,-73 42,-49 86,-101 92,-92 252,-293 545,-532 838,-740l-48 5 104 -72c30,-14 46,-10 -27,41 45,-17 117,-95 117,-100 152,-89 -42,61 3,31l60 -41 -15 7c44,-41 43,-53 136,-108 61,-31 37,-5 61,-19 1,2 8,-3 36,-20l139 -75 -64 14c56,-43 132,-69 57,-54 55,-11 188,-76 318,-135 66,-28 130,-55 182,-78 53,-20 93,-34 109,-38 44,-24 89,-43 138,-61 48,-18 100,-36 158,-51 -30,5 -53,-10 48,-38 -25,51 189,-33 278,-20 -39,-2 33,-19 99,-35 66,-18 129,-29 68,-35 86,-11 8,16 74,15 201,-52 451,-50 704,-56 4,-5 -39,-14 16,-23 0,0 33,8 67,15 33,6 66,16 66,16 50,0 48,-31 139,-6 -13,-6 -32,-14 2,-14 248,31 499,68 746,134 247,66 488,162 699,301 -56,-40 -14,-22 32,3 -29,-18 7,-12 5,-22 0,0 44,30 88,61 44,29 85,62 85,62 22,1 71,31 118,60 46,29 88,60 103,58l-57 -36c44,16 26,-13 0,-49 -27,-34 -63,-73 -49,-83 -51,-15 -101,-61 -164,-104 -31,-22 -64,-45 -100,-65 -36,-20 -76,-34 -118,-44 -31,-22 33,5 18,-10 -45,-7 -91,-28 -177,-69l11 1c-249,-98 -354,-150 -647,-229l18 20c-62,-18 -75,-23 -104,-33 -39,4 6,13 51,23 46,10 91,23 55,27 -38,-26 -150,-48 -259,-67 -55,-9 -109,-17 -152,-26 -44,-7 -78,-15 -91,-25 -100,-10 27,21 -72,11l-26 -12 -26 11c-65,-5 -98,-19 -100,-27 16,1 46,0 63,0 -85,-18 -241,-3 -270,-7l97 7c-273,3 -608,21 -863,90l21 4c-97,24 -136,33 -178,38 -43,5 -87,13 -193,43l7 -4c-41,17 -96,38 -154,54 51,-23 -104,14 -37,-15 -203,80 -100,43 -226,116l-35 0c-41,28 -44,33 -144,77 79,-45 -71,10 17,-42 -111,33 -188,72 -249,107 -61,34 -108,61 -164,68 -39,39 7,21 57,-3 50,-24 105,-51 80,-35 49,-11 -68,58 -133,89 -65,32 -131,19 -291,112 16,-9 15,-13 31,-21 -63,28 -110,79 -189,113 -29,43 -94,59 -91,88 0,0 35,-24 69,-49 35,-24 70,-48 70,-48 -77,58 -136,130 -273,210 7,-11 42,-44 66,-65 -42,20 -70,55 -113,77 -4,-29 163,-125 240,-196 -48,17 -152,123 -125,71 -40,72 -152,102 -235,201l-3 -17c-14,13 -42,44 -71,68l40 -58c-69,78 -163,112 -230,185 154,-136 47,-16 120,-64 -176,181 -139,62 -338,265 25,-30 110,-93 72,-47 -42,34 -95,82 -124,100 -129,136 31,-10 -18,54 -58,33 -56,73 -107,137l-12 -10c-145,157 -13,63 -142,205 0,0 8,-20 16,-39 9,-19 17,-38 17,-38 0,0 -15,19 -29,40 -14,21 -28,42 -28,42l-2 -28c-56,95 -79,120 -145,205 25,-13 14,26 -36,106 -42,49 7,-38 -63,76 8,-31 15,-66 59,-107 -1,-8 8,-31 7,-38 -46,53 -98,145 -121,188 10,-16 21,-35 30,-43 0,0 -20,45 -40,90 -10,22 -20,44 -27,61 -8,17 -12,29 -12,29 -19,24 -12,0 -5,-24 -17,36 -23,64 -48,116 -5,-19 -18,-22 15,-98 0,0 -19,43 -37,86 -19,43 -35,87 -35,87 -10,9 -54,81 -48,57 -51,93 -74,245 -125,373 0,8 -1,23 -7,51 -10,31 -20,61 -30,91 -8,30 -17,60 -25,91 -18,62 -27,130 -31,207 0,0 -10,20 -17,42 -8,21 -16,42 -16,42 -7,121 41,-114 29,86 -1,141 -22,51 -31,101 4,36 11,85 18,140 3,28 5,58 6,89 1,30 2,62 0,95 -7,-42 -9,-76 -11,-117zm499 1376l0 0c-19,-21 -61,-62 -65,-84 34,17 41,42 65,84zm1752 1324l0 0c-21,-5 -49,-21 -79,-42 24,10 51,24 79,42zm5183 -1792l0 0c0,1 0,2 -1,3 -32,52 -20,34 1,-3zm61 -111l0 0c3,-13 1,-13 -4,-9 1,10 -11,36 -26,64 7,-6 17,-19 30,-55zm-5277 -3958l0 0 -23 9c45,-33 34,-20 23,-9z"/>
  <path class="fil0" d="M2061 6677c-6,-6 -7,-10 -7,-13 -11,-3 -13,0 7,13z"/>
  <path class="fil0" d="M158 3156l1 -5c0,-2 -1,-4 -1,-5l0 10z"/>
  <path class="fil0" d="M6368 6465c-23,14 -38,19 -48,22 1,4 14,1 48,-22z"/>
  <path class="fil0" d="M7726 4224c0,0 -2,20 -6,40 -5,20 -9,40 -9,40 9,-38 17,-51 23,-70 -4,1 -13,15 -8,-10z"/>
  <path class="fil0" d="M7903 3533c-2,-12 0,-26 -2,-38l-7 3c0,52 6,88 9,35z"/>
  <path class="fil0" d="M7793 4162c14,-4 21,-55 27,-112l-2 10c-16,-20 -17,41 -25,102z"/>
  <path class="fil0" d="M7822 4037c2,-18 4,-36 8,-53 -7,-8 -5,21 -8,53z"/>
  <path class="fil0" d="M7594 4714c12,-24 -10,-22 0,-34 -3,-33 -49,174 0,34z"/>
  <polygon class="fil0" points="7845,4125 7825,4142 7831,4176 "/>
  <path class="fil0" d="M7718 4564l32 -87c-3,0 -1,-11 2,-25 -17,54 -39,112 -34,112z"/>
  <path class="fil0" d="M7752 4452c10,-28 16,-56 18,-73 -4,16 -12,49 -18,73z"/>
  <path class="fil0" d="M7824 4250l-9 26 -18 63c0,0 7,-22 14,-45 8,-22 13,-44 13,-44z"/>
  <path class="fil0" d="M7271 5447c0,0 -12,22 -27,42 -14,21 -28,42 -28,42 -1,12 18,-8 38,-40 12,-21 30,-54 17,-44z"/>
  <path class="fil0" d="M7473 5211c-17,22 -21,22 -34,33l16 13 18 -46z"/>
  <path class="fil0" d="M7318 5466c0,12 -73,130 2,24 1,-12 54,-100 -2,-24z"/>
  <polygon class="fil0" points="6206,6507 6227,6492 6206,6467 "/>
  <path class="fil0" d="M4991 7109c121,-22 24,-26 133,-45 26,-14 -89,16 -63,2 -69,25 -108,29 -70,43z"/>
  <path class="fil0" d="M5061 7066c11,-5 23,-9 35,-14 -19,7 -29,11 -35,14z"/>
  <polygon class="fil0" points="6653,869 6712,918 6678,881 "/>
  <path class="fil0" d="M6787 932l2 27 49 11c-15,-10 -43,-27 -51,-38z"/>
  <path class="fil0" d="M644 5646l7 2c-3,-13 -14,-28 -37,-58l30 56z"/>
  <polygon class="fil0" points="136,4693 141,4711 149,4672 "/>
  <path class="fil0" d="M7 3790c-3,37 0,81 -3,119 0,-82 27,-128 3,-119z"/>
  <path class="fil0" d="M1359 6253c23,26 28,3 35,4 -44,-38 -38,1 -35,-4z"/>
  <polygon class="fil0" points="944,5859 957,5862 888,5808 "/>
  <path class="fil0" d="M639 5420c-3,31 26,71 58,114 33,44 70,90 94,132l3 17 48 19c-73,-90 -168,-208 -203,-282z"/>
  <path class="fil0" d="M571 5136c-5,21 -37,-49 25,60 -2,-6 -2,-8 -2,-12 -5,-10 -12,-24 -23,-48z"/>
  <path class="fil0" d="M594 5184c25,49 -6,-37 0,0z"/>
  <path class="fil0" d="M480 4957l39 62c1,-17 -22,-77 -7,-57 -35,-65 -37,-49 -32,-5z"/>
  <path class="fil0" d="M429 4903l20 33c0,-7 -3,-17 -20,-33z"/>
  <path class="fil0" d="M490 5006l-41 -70c-2,12 -12,18 18,33 -13,-2 3,8 23,37z"/>
  <path class="fil0" d="M503 5049c9,41 30,90 -14,29 67,124 78,95 14,-29z"/>
  <path class="fil0" d="M594 5414c0,0 5,14 10,27 4,14 10,27 10,27l36 35c-19,-17 -49,-97 -56,-89z"/>
  <path class="fil0" d="M351 4527c-8,-2 -13,28 -20,36l23 49c-2,-28 -13,-79 -3,-85z"/>
  <path class="fil0" d="M331 4563c0,0 -9,-18 -16,-37 -8,-19 -15,-38 -15,-38 13,71 25,81 31,75z"/>
  <path class="fil0" d="M388 4906l77 112c0,0 -22,-34 -44,-68 -11,-17 -22,-34 -30,-47 -7,-13 -12,-22 -12,-22l9 25z"/>
  <polygon class="fil0" points="293,4231 317,4272 278,4197 "/>
  <path class="fil0" d="M266 4032c17,32 21,-47 32,-13 -5,-53 -19,-99 -32,-140 8,44 9,91 0,153z"/>
  <path class="fil0" d="M250 3809c3,22 8,45 16,70 -5,-24 -8,-47 -16,-70z"/>
  <path class="fil0" d="M274 4354c3,-7 12,-21 10,-66l-15 35c1,9 3,20 5,31z"/>
  <path class="fil0" d="M268 4324l1 -1c-5,-34 -9,-58 -11,-68 2,9 5,30 10,69z"/>
  <path class="fil0" d="M275 4362c-1,-3 -1,-5 -1,-8 -2,3 -2,5 1,8z"/>
  <path class="fil0" d="M335 4698c-24,-42 -65,-135 -54,-37 23,29 17,-27 54,37z"/>
  <path class="fil0" d="M257 4406l15 84c5,-3 9,-19 20,2l-35 -86z"/>
  <path class="fil0" d="M242 4366c0,0 3,10 7,20 4,10 8,20 8,20l-5 -32 -10 -8z"/>
  <path class="fil0" d="M234 3954c-10,-36 -16,-77 -15,-122 -6,49 -3,99 -1,147 6,7 19,27 16,-25z"/>
  <path class="fil0" d="M243 4134c-1,-2 -2,-5 -2,-8 -1,6 -2,10 2,8z"/>
  <polygon class="fil0" points="251,3385 246,3392 249,3394 "/>
  <path class="fil0" d="M214 3988c-3,37 4,58 13,78 -5,-27 -8,-56 -9,-87 -4,-3 -6,-3 -4,9z"/>
  <path class="fil0" d="M242 3685c-6,18 -9,40 -13,62 7,-18 17,-56 13,-62z"/>
  <path class="fil0" d="M245 4113c1,2 1,4 2,6 3,-13 1,-11 -2,-6z"/>
  <path class="fil0" d="M245 4113c-5,-18 -12,-32 -18,-47 4,22 9,43 14,60 1,-4 2,-9 4,-13z"/>
  <path class="fil0" d="M143 3226c19,11 14,111 -15,194 3,86 74,37 118,-28 -7,-4 -18,-5 -13,-91 -18,27 -52,185 -60,110 5,-115 22,-91 41,-144 -16,21 -18,-16 -21,-57 -3,-41 -3,-84 -23,-76 0,0 -3,25 -6,51 -2,26 -3,51 -3,51 -6,1 -8,-37 -18,-10z"/>
  <path class="fil0" d="M225 3552l0 34c5,-39 16,-66 38,-116 -2,-58 -8,-71 -14,-76 0,0 -6,43 -12,85 -7,42 -10,85 -10,85l-2 -12z"/>
  <path class="fil0" d="M217 3742c-23,-28 -25,-112 -52,-62 -1,104 17,73 25,135 -4,-166 11,47 24,-72 3,33 4,62 5,89 3,-30 6,-58 10,-85 0,2 -1,3 -1,4l0 1 0 0c-3,7 -5,9 -3,1 0,-1 0,-3 0,-3 -3,-2 -6,-5 -8,-8 5,-48 5,-7 8,8 1,0 2,1 3,2l0 -1c0,0 -1,-10 -2,-26 -1,-15 -2,-36 -1,-56 0,-41 0,-83 0,-83 -4,35 -11,78 -8,156z"/>
  <path class="fil0" d="M212 4587c0,-6 2,-6 3,-7 -6,-10 -9,-13 -3,7z"/>
  <path class="fil0" d="M208 4516c5,11 15,19 23,58 4,35 -10,3 -16,6 12,22 38,78 27,2l-6 -10c-9,-69 -3,-159 3,-148 -14,23 -24,43 -31,92z"/>
  <path class="fil0" d="M181 4121c0,0 -7,-34 -13,-69 -6,-34 -9,-69 -9,-69 0,0 -4,18 -8,36 -4,18 -6,36 -6,36l10 -4c5,80 16,61 26,70z"/>
  <path class="fil0" d="M263 3372l20 21c0,0 -6,-21 -10,-41 -4,-21 -8,-42 -8,-42l-2 62z"/>
  <polygon class="fil0" points="293,3196 310,3207 310,3159 "/>
  <path class="fil0" d="M7932 2967l14 41c-5,-20 -10,-32 -14,-41z"/>
  <path class="fil0" d="M7855 2664l-11 -4c9,12 14,17 11,4z"/>
  <path class="fil0" d="M3343 327c62,3 132,19 121,-1l-22 -18c-40,11 -71,17 -99,19z"/>
  <path class="fil0" d="M6296 741c-4,-5 -7,-11 -11,-16 -16,-2 -32,-4 -46,-5 17,6 37,12 57,21z"/>
  <path class="fil0" d="M6381 694l59 59c-12,-15 -31,-34 -59,-59z"/>
  <path class="fil0" d="M7964 4663l11 54c16,-78 -2,-46 -11,-54z"/>
  <path class="fil0" d="M1142 1596c42,-31 73,-58 98,-83 -51,36 -100,59 -98,83z"/>
  <path class="fil0" d="M7686 2902c10,23 16,32 21,30 -10,-24 -17,-37 -21,-30z"/>
  <path class="fil0" d="M1345 1410c-8,5 -15,10 -23,15 -25,28 -50,56 -82,88 37,-27 79,-58 105,-103z"/>
  <path class="fil0" d="M3047 7226c-4,-2 -9,-4 -13,-6 -2,2 4,4 13,6z"/>
  <path class="fil0" d="M1530 6335c15,8 39,23 61,36 -10,-8 -28,-19 -61,-36z"/>
  <path class="fil0" d="M534 2524c-15,35 -1,6 0,0z"/>
  <path class="fil0" d="M382 2660c1,-8 1,-15 -3,-18 3,5 4,11 3,18z"/>
  <path class="fil0" d="M1549 1057c1,0 2,-1 3,-2 -12,4 -10,4 -3,2z"/>
  <path class="fil0" d="M500 2571c9,-11 18,-25 27,-41 -5,7 -13,19 -27,41z"/>
  <path class="fil0" d="M513 2568c-7,12 -11,21 -15,30 1,6 4,2 15,-30z"/>
  <path class="fil0" d="M556 2476c-9,20 -19,37 -29,54 5,-6 7,-8 7,-6 4,-10 11,-24 22,-48z"/>
  <path class="fil0" d="M6229 6832c-3,1 -6,2 -9,2 -31,28 -16,18 9,-2z"/>
  <path class="fil0" d="M4333 9c-1,0 -3,1 -4,1 2,0 4,1 6,1l-2 -2z"/>
  <path class="fil0" d="M4479 0c-63,23 -98,19 -144,11l45 63 99 -74z"/>
  <path class="fil0" d="M8031 3706c0,0 5,-25 7,-51 3,-26 7,-52 7,-52 39,122 26,214 52,116 -32,-7 -39,-106 -47,-206 -11,-99 -25,-198 -58,-201l4 -68c2,19 7,21 9,40 10,-134 -59,-89 -83,-255 -6,-58 -5,-100 10,-62 0,0 -10,-32 -22,-62 -12,-31 -24,-62 -24,-62 -8,-37 6,-31 14,6 0,0 -13,-48 -28,-95 -15,-48 -30,-95 -30,-95l2 1c-18,-25 -52,-81 -69,-108 -8,-51 14,22 18,7l-51 -98c2,-49 47,32 70,105 27,-119 -42,-82 -90,-303l47 95c5,-39 -4,-76 -16,-119 -14,-42 -33,-89 -47,-148 1,32 44,241 -20,138 -10,-33 -26,-75 -65,-128 22,-11 -13,-65 -51,-134l30 -10c-47,-73 -60,-58 -97,-95 -45,-84 -34,-114 -30,-143 -80,-133 25,109 -79,-40 -29,-57 -62,-101 -99,-145 -36,-44 -81,-86 -136,-139 -49,-75 24,0 11,-30 0,0 -18,-12 -35,-23 -18,-11 -36,-21 -36,-21 -13,-15 -3,-15 2,-15 -52,-43 -27,16 -103,-54 -21,1 -50,-44 -88,-99 -38,-54 -87,-117 -149,-144 -18,-27 24,-4 25,-19 -148,-98 -127,-85 -260,-148 0,0 -21,-23 -42,-46 -22,-22 -44,-43 -44,-43 60,71 -51,26 -144,-12 19,27 35,51 47,65 0,0 -34,-19 -69,-38 -34,-19 -70,-36 -70,-36 -13,-14 6,-15 35,-12 -10,-4 -20,-7 -28,-9 -42,-40 -8,-40 36,-33 13,16 26,32 38,47 42,7 85,11 88,-9 -10,-3 -28,-12 -47,-23 11,2 19,2 17,-4 -3,-5 -20,-10 -47,-17l-11 -49 -15 7c0,0 -42,-33 -84,-66 -21,-17 -42,-33 -58,-44 -17,-11 -28,-19 -28,-19 -75,-22 -146,-38 -228,-56 -40,-8 -82,-21 -129,-33 -47,-12 -97,-27 -152,-47 63,-1 27,-34 41,-60 48,54 177,59 285,122 -57,-32 -38,-38 -21,-36 0,0 -53,-18 -106,-36 -54,-15 -107,-30 -107,-30 14,-20 -36,-36 -87,-67 12,30 -30,24 -85,7 -28,-8 -60,-18 -90,-28 -30,-8 -59,-15 -81,-18 -1,-16 26,-29 128,12 -51,-40 -94,-36 -135,-33 -42,3 -82,5 -135,-24 26,6 39,12 51,7 -64,-3 -209,-50 -171,-55l26 6c-43,-14 -98,-25 -156,-36 -30,-5 -60,-11 -90,-16 -30,-3 -60,-7 -89,-10 -116,-13 -215,-6 -229,12 -2,-6 27,-48 39,-55 0,0 -21,7 -52,17 -30,10 -71,25 -111,41 -40,16 -79,31 -109,43 -29,12 -48,21 -48,21 28,-35 -78,-122 70,-139 -42,-8 -96,-12 -185,0 29,5 72,52 33,55 -108,-40 -75,-20 -210,-48 44,6 -1,63 -68,67 9,-10 -11,-55 14,-63l-164 71c41,-14 2,-48 -38,-58 20,9 -146,19 -190,33 0,0 18,0 36,0 19,1 37,1 37,1 -191,24 -173,107 -355,147 19,-16 39,-81 -58,-65 -37,39 -153,181 -298,254l-35 -5 -111 61c56,-67 237,-227 349,-291 -73,8 -25,-14 -128,20 -41,-3 49,-41 80,-49 0,0 -61,14 -122,32 -31,9 -61,18 -84,24 -23,7 -38,12 -38,12 21,27 -171,98 -151,121 0,0 15,-9 38,-21 23,-12 53,-27 84,-43 60,-33 123,-61 123,-61 20,27 -119,136 -282,198 -47,6 8,-67 1,-76 -17,20 -148,85 -165,86 0,0 15,-12 31,-24 15,-11 31,-23 31,-23 -96,30 -129,105 -249,132 -37,17 -129,19 -126,40 78,1 142,99 118,143 -14,3 -200,70 -248,80 -73,11 48,-112 -13,-104 2,9 -23,38 -35,49 -40,17 1,-33 -76,20 4,35 -159,103 -22,47 -70,60 -84,49 -171,111 40,-2 -34,116 -99,178 -1,-10 -23,-6 -34,-4 -73,57 -130,98 -185,142 -55,42 -107,86 -169,146 -18,4 -83,58 -68,22 -13,22 -21,47 -57,86 -93,55 79,-89 -1,-56 5,9 -14,39 -40,74 -25,36 -56,78 -76,111 19,1 49,-31 79,-71 31,-40 65,-87 87,-119 30,29 -32,152 -132,298 -81,116 -59,31 -70,54 -169,205 -79,220 -224,385 -67,60 -47,-25 -73,-18 54,-104 111,-141 156,-204 0,0 -17,18 -34,35 -16,18 -32,37 -32,37 13,-36 53,-103 85,-132 -16,11 -41,40 -71,78 -29,40 -64,90 -100,144 -67,111 -143,237 -197,326 -9,37 -28,98 -5,76l25 -61c44,-44 -27,123 18,54 -26,84 -42,181 -96,290l-36 11c10,0 43,-69 49,-104 -4,26 -30,66 -52,108 -22,43 -44,87 -32,119 0,0 10,-19 23,-37 12,-18 24,-36 24,-36 -8,42 -11,92 -17,143 -7,50 -16,102 -32,153 41,-39 1,-25 55,-88 -30,25 -10,-39 8,-99 17,-60 40,-114 0,-72 64,-59 59,-121 131,-200 -10,-1 -31,25 8,-54 -1,-5 -1,-15 -1,-22 2,-2 2,-3 3,-5 -1,2 -2,3 -3,4 1,-4 0,-4 -1,2 -12,17 -23,31 -31,35 -6,-50 58,-178 70,-226 29,-45 -1,24 23,4l18 -72c23,4 99,-106 51,10 0,0 14,-25 27,-49 15,-24 29,-48 29,-48 23,-25 46,-56 67,-87 23,-30 42,-61 54,-87 32,-42 56,-123 43,-76 0,0 23,-37 47,-75 11,-18 23,-37 32,-51 9,-14 15,-23 15,-23l6 2c107,-134 204,-299 375,-409 38,-45 77,-92 156,-151l26 1c53,-54 185,-129 200,-162 93,-11 301,-202 421,-260l-9 -24c80,-44 152,-94 248,-154l-16 -16c79,-62 234,-96 376,-156 -7,12 -43,25 -71,31 187,-24 353,-173 526,-180 38,-20 69,-25 98,-25 -3,1 -7,2 -9,3 4,-1 10,-2 16,-4 19,0 39,-1 59,-1 -18,-2 -35,-2 -50,-1 32,-7 78,-22 124,-37l25 19c3,-1 6,-1 10,-2 48,0 35,-18 7,-31 23,-8 44,-17 60,-26 44,29 123,-33 180,0 29,-26 237,-41 260,-83 2,5 17,7 -9,9 54,2 107,4 155,-10l24 29 117 -40c71,18 100,31 29,52 85,-16 120,-16 152,-18 31,-3 59,-4 134,-14l-9 18c51,4 137,-13 166,9 55,25 197,47 357,88 162,37 340,101 472,170 -31,-75 116,78 145,42 10,19 44,42 -4,34 142,52 193,116 301,136 8,20 -38,1 -29,16 12,3 48,13 57,28 9,14 -25,-1 -48,-8 67,35 108,50 137,50 29,0 45,-14 60,-27 58,57 91,77 152,89 15,27 44,64 -37,12 21,17 88,66 147,115 60,48 118,89 130,79 9,16 56,51 69,58 91,82 98,90 185,173l-20 -27c59,7 80,62 147,131l-4 0c65,90 82,106 99,123 17,17 35,32 89,128l12 -24c26,-7 49,37 76,94 28,57 54,129 97,176l-13 -45c27,24 37,75 44,127 7,52 11,104 23,136 3,15 -17,-17 -30,-34 56,172 38,6 106,122 -4,29 -50,-11 -16,72 7,44 157,217 165,347 3,-30 6,-60 35,-4 19,45 27,110 37,174 12,63 24,124 53,161 0,13 -2,18 -5,19 14,35 31,92 47,146 17,54 34,104 47,125 -34,40 -6,151 14,255 21,105 36,202 0,203 0,0 1,14 2,35 1,21 2,49 3,77 1,29 2,57 3,78 0,21 0,35 0,35l-8 -6c-7,144 6,196 20,248 -7,33 -12,8 -16,5 -33,210 -35,228 -28,411l-27 13c1,25 -22,98 -53,189 -17,46 -32,96 -49,147 -18,51 -31,103 -42,154 -2,-3 -4,-8 -2,-25 -14,57 -37,116 -64,174 -30,57 -60,114 -91,165 -32,51 -58,99 -77,140 -20,41 -29,77 -21,107 0,0 -14,37 -32,71 -16,35 -33,70 -33,70 117,-162 15,46 73,-15 -20,35 -54,74 -78,93 -24,19 -35,19 -8,-21l12 -10c-14,-54 -162,189 -186,162 -125,150 -268,276 -425,386 -152,114 -313,210 -470,302 0,0 14,3 27,5 14,3 27,5 27,5 0,0 -7,4 -17,10 -11,6 -25,13 -39,21 -28,15 -57,30 -57,30 -33,9 -53,-3 28,-46 -52,5 -126,89 -125,97 -168,64 44,-68 -6,-45 0,0 -16,9 -33,18 -16,8 -32,17 -32,17l16 -4c-47,39 -45,56 -146,101 -67,20 -41,-7 -67,2 -1,-2 -10,0 -39,15 0,0 -37,15 -74,30 -38,12 -76,25 -76,25l70 5c-63,37 -144,49 -63,54 -59,-3 -204,40 -345,76 -140,36 -278,63 -312,62 -47,21 -97,30 -149,40 -52,10 -107,15 -169,18 31,4 53,34 -54,39 34,-66 -197,-16 -283,-64 38,16 -37,18 -107,21 -70,4 -134,3 -75,29 -88,-10 -5,-25 -71,-43 -212,15 -460,-56 -714,-100 -6,8 34,30 -23,30 0,0 -31,-17 -63,-35 -31,-17 -62,-36 -62,-36 -50,-8 -58,37 -141,-15 11,10 27,25 -7,19 -241,-86 -490,-163 -733,-264 -242,-100 -478,-223 -677,-392 50,51 10,28 -36,0 28,22 -12,18 -12,31 0,0 -43,-34 -83,-72 -41,-36 -82,-73 -82,-73 -51,5 -191,-132 -226,-122l58 37c-97,-25 57,141 20,171 108,26 197,208 378,244 28,28 -36,-3 -24,17 49,4 95,28 178,82l-12 -1c246,124 343,194 627,323l-13 -30c61,27 72,38 99,54 84,-5 -174,-68 -95,-79 32,38 142,80 250,118 107,38 213,70 234,104 99,29 -21,-34 77,-5l23 21 30 -12c64,20 93,46 92,58 -15,-5 -46,-8 -63,-11 81,40 243,50 271,62l-95 -30c276,49 617,112 891,90l-20 -12c103,-5 144,-5 188,1 44,5 91,9 204,0l-8 2c45,-11 105,-22 167,-26 -56,18 110,15 36,36 222,-46 110,-30 251,-89l36 12c47,-25 49,-35 159,-60 -88,32 77,14 -21,53 121,-5 206,-36 273,-63 68,-28 120,-48 181,-37 44,-43 -6,-30 -62,-17 -56,15 -116,35 -88,22 -54,-2 76,-60 147,-79 71,-26 145,23 322,-55 -18,7 -18,11 -35,19 35,-8 67,-26 100,-43 32,-19 67,-38 111,-48 31,-49 105,-48 99,-90 0,0 -10,6 -24,14 -14,8 -33,19 -53,29 -38,21 -77,42 -77,42 43,-26 80,-59 126,-92 45,-36 97,-72 174,-101 -7,13 -44,45 -71,66 47,-14 78,-49 125,-66 5,21 -41,50 -98,81 -56,32 -123,70 -166,105 56,-6 167,-120 139,-56 22,-43 64,-64 113,-87 47,-26 102,-54 146,-106l5 25c16,-14 46,-46 77,-68 0,0 -10,16 -20,32 -9,17 -20,32 -20,32 38,-40 81,-66 127,-89 46,-23 93,-44 128,-82 -171,128 -55,6 -138,45 50,-43 83,-68 109,-84 27,-16 48,-22 69,-28 44,-12 94,-21 202,-127 -28,29 -123,90 -82,40 45,-34 108,-76 141,-93 137,-145 -38,5 11,-65 67,-28 61,-76 110,-147l18 15c80,-79 78,-100 76,-117 -2,-17 -6,-31 62,-104l-25 86 57 -88 8 33c26,-52 43,-86 64,-117 21,-31 44,-60 75,-107 -27,14 -29,-34 20,-119 43,-53 2,44 63,-81 -2,34 1,75 -49,117 4,9 -3,35 0,44 54,-54 90,-161 114,-206 -10,17 -22,38 -30,47 0,0 4,-12 10,-31 6,-18 14,-43 20,-68 13,-49 26,-99 26,-99 21,-26 18,0 14,26 15,-39 16,-69 35,-126 12,21 33,25 8,109 0,0 4,-12 9,-29 5,-18 11,-42 17,-66 13,-47 25,-95 25,-95 13,-9 53,-87 52,-61 22,-50 35,-116 44,-187 4,-35 10,-71 17,-107 5,-36 13,-71 24,-106 -2,-8 -2,-23 1,-53 16,-65 30,-127 46,-191 11,-66 19,-135 13,-215l41 -87c1,-125 -51,118 -51,-88 -7,-145 31,-53 42,-104 -7,-37 -20,-87 -30,-144 -8,-57 -11,-121 -3,-189 9,44 8,79 11,120zm-345 -1474l0 0c18,24 53,74 48,99 -38,-21 -34,-50 -48,-99zm-1550 -1648l0 0c22,5 48,26 75,54 -24,-13 -50,-30 -75,-54zm-5420 1566l0 0c1,-1 1,-2 1,-3 41,-47 25,-31 -1,3zm-75 105l0 0c-4,13 -1,14 5,11 -1,-11 14,-36 33,-63 -10,5 -23,17 -38,52zm5143 4616l0 0 26 -4c-50,28 -38,16 -26,4z"/>
  <path class="fil0" d="M6371 699c4,8 3,13 2,17 12,4 15,0 -2,-17z"/>
  <path class="fil0" d="M7962 4653l-1 4c1,3 2,5 3,6l-2 -10z"/>
  <path class="fil0" d="M1934 674c25,-12 41,-16 52,-18 -2,-6 -15,-3 -52,18z"/>
  <path class="fil0" d="M398 2889l22 -79c-13,38 -22,49 -33,67 6,0 19,-12 11,12z"/>
  <path class="fil0" d="M111 3565c2,13 -1,27 1,39l11 -2c3,-53 -3,-91 -12,-37z"/>
  <path class="fil0" d="M301 2938c-20,1 -31,53 -42,110l3 -10c22,24 29,-38 39,-100z"/>
  <path class="fil0" d="M257 3062c-4,18 -7,36 -13,53 10,9 8,-21 13,-53z"/>
  <path class="fil0" d="M574 2405c-18,22 14,27 0,37 7,38 60,-175 0,-37z"/>
  <polygon class="fil0" points="225,2965 254,2952 245,2914 "/>
  <path class="fil0" d="M403 2531l-43 85c4,0 2,12 -2,27 23,-54 52,-111 45,-112z"/>
  <path class="fil0" d="M358 2643c-12,27 -23,54 -25,72 5,-16 18,-49 25,-72z"/>
  <polygon class="fil0" points="256,2839 270,2814 295,2751 "/>
  <path class="fil0" d="M949 1676c0,0 15,-22 31,-42 16,-20 32,-41 32,-41 1,-13 -22,4 -45,36 -13,22 -34,54 -18,47z"/>
  <path class="fil0" d="M704 1884c21,-20 26,-18 42,-26l-22 -20 -20 46z"/>
  <path class="fil0" d="M885 1637c-1,-14 82,-132 -4,-29 -1,13 -62,100 4,29z"/>
  <polygon class="fil0" points="2116,663 2094,676 2122,717 "/>
  <path class="fil0" d="M3382 59c-127,15 -23,36 -138,47 -26,18 94,-10 67,7 71,-30 112,-28 71,-54z"/>
  <path class="fil0" d="M3311 113c-12,5 -24,10 -36,16 20,-8 30,-12 36,-16z"/>
  <path class="fil0" d="M1311 6153c0,0 -14,-13 -29,-27 -14,-13 -27,-27 -27,-27 0,0 7,11 14,22 8,10 16,21 16,21l26 11z"/>
  <path class="fil0" d="M1169 6093l5 -36 -54 -6c15,10 43,28 49,42z"/>
  <path class="fil0" d="M7646 1998l-10 -2c-1,15 7,32 24,67l-14 -65z"/>
  <polygon class="fil0" points="7983,3061 7980,3042 7959,3083 "/>
  <path class="fil0" d="M8092 3993c2,-39 -3,-84 -1,-123 3,84 -35,132 1,123z"/>
  <path class="fil0" d="M1806 1819c0,0 -1,2 -1,2 2,-5 1,-2 1,-2z"/>
  <polygon class="fil0" points="1819,1766 1820,1767 1819,1759 "/>
  <path class="fil0" d="M1836 1720c-9,2 -6,17 -12,24l-1 1 2 5c4,-10 6,-24 11,-30z"/>
  <path class="fil0" d="M1865 1703c-4,0 0,-5 -4,5 1,-1 1,-1 2,-1 0,-1 1,-2 2,-4z"/>
  <path class="fil0" d="M1863 1707c-3,4 4,-2 0,0z"/>
  <path class="fil0" d="M1874 1688l-1 6c3,0 8,-4 8,-2 3,-5 0,-5 -7,-4z"/>
  <path class="fil0" d="M1871 1680l-1 4c2,0 3,-1 1,-4z"/>
  <path class="fil0" d="M1869 1690l1 -6c-2,0 -5,-2 -1,3 -2,-2 0,0 0,3z"/>
  <path class="fil0" d="M1865 1693c-5,2 -8,6 -8,-1 -5,11 2,12 8,1z"/>
  <path class="fil0" d="M1829 1715l-4 5 1 5c0,-3 6,-9 3,-10z"/>
  <path class="fil0" d="M1905 1661c-2,-2 -8,-2 -11,-3l0 5c3,-1 7,-4 11,-2z"/>
  <path class="fil0" d="M1894 1658l0 -8c-4,5 -3,7 0,8z"/>
  <path class="fil0" d="M1861 1674l0 13c0,0 1,-14 1,-15l-1 2z"/>
  <polygon class="fil0" points="1925,1644 1928,1650 1924,1640 "/>
  <path class="fil0" d="M1937 1632c3,5 12,4 13,8 2,-3 1,-9 0,-14 -1,4 -5,6 -13,6z"/>
  <path class="fil0" d="M1948 1617c0,3 1,6 2,9 0,-2 0,-5 -2,-9z"/>
  <path class="fil0" d="M1904 1642c1,0 6,2 11,1l-9 -3 -2 2z"/>
  <path class="fil0" d="M1905 1640l1 0c2,-2 4,-3 4,-4 0,1 -2,2 -5,4z"/>
  <path class="fil0" d="M1903 1642l1 0c-1,0 -2,0 -1,0z"/>
  <path class="fil0" d="M1877 1661c-2,-5 -1,-15 -11,-10 3,5 9,2 11,10z"/>
  <path class="fil0" d="M1892 1639c-1,0 -7,5 -7,5 2,1 6,2 6,5l1 -10z"/>
  <polygon class="fil0" points="1892,1635 1892,1639 1894,1638 "/>
  <path class="fil0" d="M1932 1620c-1,-5 1,-7 3,-10 -4,1 -8,4 -11,7 2,2 5,6 8,3z"/>
  <path class="fil0" d="M1918 1629l0 -1c0,0 -1,0 0,1z"/>
  <polygon class="fil0" points="1966,1586 1964,1585 1965,1586 "/>
  <path class="fil0" d="M1922 1616c-4,1 -3,4 -2,7 1,-2 2,-4 4,-6 -1,-1 -2,-2 -2,-1z"/>
  <path class="fil0" d="M1953 1608c-3,0 -6,0 -9,0 4,1 11,2 9,0z"/>
  <path class="fil0" d="M1921 1629l0 0c3,1 2,0 0,0z"/>
  <path class="fil0" d="M1921 1629c0,-2 -1,-4 -1,-6 -1,2 -1,3 -2,5 1,0 2,1 3,1z"/>
  <path class="fil0" d="M1923 1527c7,8 8,21 -6,19 0,11 28,29 47,39 -3,-3 -6,-6 -5,-15 -6,-3 -22,2 -24,-9 4,-11 9,-3 16,-2 -12,-7 -4,-23 -19,-36l-2 12c-2,-2 -3,-8 -7,-8z"/>
  <path class="fil0" d="M1952 1593l-1 2c4,-1 9,1 18,3 0,-6 -2,-9 -4,-12l-13 8 0 -1z"/>
  <path class="fil0" d="M1940 1604c-6,-8 -4,-16 -16,-20 -7,6 2,9 1,16 9,-12 1,6 14,3 -1,3 -2,5 -4,7 3,-1 6,-2 9,-2l-1 0 0 0 0 -1c-1,0 -2,0 -1,0l0 -1c-1,-1 -2,-2 -2,-2 5,-2 2,1 2,2l1 1 0 1 8 -13c-4,1 -7,4 -11,9z"/>
  <path class="fil0" d="M1855 1636c1,0 2,0 2,0 0,-1 -1,-2 -2,0z"/>
  <path class="fil0" d="M1862 1632c1,2 3,4 1,7 -4,2 -3,-2 -6,-3 1,3 1,10 8,5l0 -1c5,-4 18,-6 18,-4 -7,-3 -13,-4 -21,-4z"/>
  <path class="fil0" d="M1898 1613l4 -12 -10 0 4 2c-6,5 0,7 2,10z"/>
  <polygon class="fil0" points="1971,1589 1978,1598 1972,1583 "/>
  <polygon class="fil0" points="1982,1579 1989,1587 1988,1580 "/>
  <path class="fil0" d="M2851 1170l4 -5c-2,2 -3,3 -4,5z"/>
  <path class="fil0" d="M2821 1167l-1 9c2,-5 3,-8 1,-9z"/>
  <path class="fil0" d="M2334 1441c9,14 22,38 16,19l-7 -18c-3,4 -6,2 -9,-1z"/>
  <path class="fil0" d="M2586 1278l-2 -6c-1,7 -2,14 -3,20 1,-4 3,-9 5,-14z"/>
  <path class="fil0" d="M2585 1191l8 13c-2,-4 -4,-9 -8,-13z"/>
  <path class="fil0" d="M3015 1173l8 -19c-8,-1 -6,9 -8,19z"/>
  <path class="fil0" d="M2118 1502c7,4 11,5 14,5 -9,-7 -19,-17 -14,-5z"/>
  <path class="fil0" d="M2827 1389c3,-4 4,-8 4,-12 -2,3 -4,7 -4,12z"/>
  <path class="fil0" d="M2144 1502c-2,-1 -2,-2 -4,-2 -2,3 -4,6 -8,7 7,4 13,7 12,-5z"/>
  <path class="fil0" d="M3543 1442c0,1 0,1 0,2 1,-1 1,-1 0,-2z"/>
  <path class="fil0" d="M3638 1588c-2,-1 -3,-2 -5,-3 0,0 2,1 5,3z"/>
  <path class="fil0" d="M2038 1552c-3,2 0,1 0,0z"/>
  <path class="fil0" d="M1992 1520c-1,-2 -1,-4 -3,-6 2,2 2,4 3,6z"/>
  <path class="fil0" d="M2130 1396l0 0c-2,-2 -2,-2 0,0z"/>
  <path class="fil0" d="M2030 1550c2,0 4,1 6,1 -2,-1 -3,-1 -6,-1z"/>
  <path class="fil0" d="M2034 1554c-1,0 -2,1 -3,1 1,2 2,3 3,-1z"/>
  <path class="fil0" d="M2041 1549c-2,1 -3,2 -5,2 1,0 1,1 2,1 0,-1 1,-1 3,-3z"/>
  <path class="fil0" d="M3263 1311c0,1 0,1 0,2 6,-5 4,-5 0,-2z"/>
  <polygon class="fil0" points="2374,1219 2374,1220 2375,1221 "/>
  <path class="fil0" d="M2385 1201c-1,26 -5,24 -10,20l16 56 -6 -76z"/>
  <path class="fil0" d="M2922 1173l-8 -20c15,-28 23,-16 16,-43 -8,63 -39,1 -46,64l-5 -14c2,1 2,-3 4,-2 -10,-32 -13,45 -28,35 -5,-6 -8,-15 -4,-23l-13 16c-4,-2 -2,-13 1,-12l-19 4 0 -2c-3,11 -10,26 -13,33 -4,-10 3,-7 2,-15l-11 15c-4,-17 6,-33 13,-30 -8,-66 -10,16 -29,-24l10 -7c-5,-38 -14,-25 -25,-49 3,13 22,60 10,76 -3,-5 -8,-8 -14,5 0,-23 -6,-18 -13,-17l1 -31c-9,8 -8,24 -13,38 -9,-3 -11,-28 -13,-48 -14,-5 10,39 -7,45 -12,-12 -21,1 -34,20 -9,-11 1,-19 -2,-28l-7 25c-2,0 -2,-8 -2,-12 -6,10 0,31 -9,40 -2,34 -21,-50 -32,-10 -3,-9 1,-20 -1,-32 -15,27 -13,20 -25,54l-13 -20c10,23 1,51 -7,74 3,12 6,21 8,26l-13 17c-2,-5 -2,-16 0,-29 -1,3 -1,6 -2,8 -6,-11 -5,-29 -2,-47 2,6 4,13 7,19 2,-19 4,-40 3,-58 -1,3 -3,7 -5,8 1,-5 1,-9 1,-12 -1,-4 -2,3 -4,11l-6 -34 0 14 -22 -20c-13,36 -20,88 -39,105 2,-25 -4,-41 -8,-70 10,30 16,-17 29,-11 -7,-3 -7,-17 -6,-23l-18 32c-2,-24 -6,-17 -13,-27 10,48 -12,34 -18,50 -3,-16 -4,-32 8,-30 -18,-34 -7,58 -23,30 3,-1 4,1 4,-7 -3,15 -19,7 -18,-8l2 -1c-18,-2 -51,10 -45,50 -2,-5 -8,-47 -8,-55 0,0 -1,34 -1,69 0,34 0,68 0,68 -5,-34 -33,-110 -23,-133 -5,-3 -11,-8 -17,6 4,4 18,46 15,50 -19,-34 -12,-18 -31,-46 5,6 13,59 7,59 -1,-8 -13,-50 -12,-56l-3 54c1,-10 -10,-42 -18,-55 5,9 -13,3 -16,9l9 10c-19,-2 2,73 -15,76 -1,-11 -13,-63 -24,-66 3,26 19,123 11,145l-7 -13 -6 19c-6,-37 -11,-119 -8,-154 -10,-8 -7,-15 -17,-10 -7,-12 0,-22 2,-24l-26 1c10,27 -8,35 1,57l15 -38c10,28 11,84 -6,84 -7,-9 -13,-49 -17,-58 1,10 -9,24 -12,18l1 -17c-12,-6 -1,42 -21,21 -4,0 -24,-29 -19,-13 18,27 54,119 59,142 -2,-1 -29,-22 -39,-34 -15,-21 -13,-58 -26,-76 3,7 3,17 3,21 -7,-4 -8,-22 -15,-15 10,26 -17,6 6,23 -5,11 -11,-1 -19,5 9,15 16,58 11,68 -2,-6 -7,-14 -10,-17 -17,5 -30,-1 -44,7 -4,-5 -15,-8 -17,-19 0,5 2,14 -2,17 -19,-14 8,-9 -10,-28 6,14 -2,25 -4,36 13,18 16,-4 18,-16 15,27 20,62 13,80 -8,12 -15,-14 -15,-9 -24,8 10,52 -18,44 -17,-11 -21,-29 -29,-39 5,-11 20,1 25,-3l-12 -3c0,-7 3,-15 9,-12 -14,-10 -36,20 -60,20 0,6 -1,15 6,18l3 -5c12,7 2,21 12,22 0,12 2,28 -12,29l-13 -13c4,4 13,4 12,-2 1,8 -30,-9 -18,12l14 5c0,12 4,30 -7,31 14,10 0,-3 19,8 -21,-15 21,-10 -4,-26 21,15 16,1 37,14 -4,-5 -10,-8 -2,-9 -1,-2 -2,-4 -2,-5l1 0 -1 -1c0,-1 0,-1 0,0 -4,-1 -7,-3 -9,-5 -6,-13 4,-20 4,-28 6,0 2,7 8,11l-1 -12c9,11 25,14 21,25l9 -3c10,4 18,4 19,-3 6,1 1,-19 4,-8l8 -14 2 3c15,-3 16,-35 46,-15 3,-6 5,-13 15,-12l8 13c4,-6 25,8 21,-7 24,36 33,-1 47,3l-7 -19c8,-1 13,-9 20,-19l-8 -18c3,-17 26,6 39,1 1,7 -3,6 -7,3 30,37 24,-39 48,-12 1,-8 5,-6 9,-2 -1,0 -1,0 -1,1 1,0 1,0 2,0 2,3 5,6 8,9 -3,-4 -6,-8 -8,-9 3,-1 6,-5 9,-11l8 21c0,-1 0,-1 1,-1 6,7 0,-11 -6,-26 1,-4 2,-8 2,-14 12,34 8,-13 22,22 -2,-18 17,-18 10,-56 2,5 3,7 1,7 6,4 12,7 13,-5l9 28 2 -40c10,16 15,26 13,48 8,-36 9,-15 16,-50l3 18c4,-1 7,-27 12,-13 17,34 53,-3 83,28 -12,-55 15,23 11,-20 3,13 7,20 5,32 12,-15 21,20 26,-18 3,13 -1,20 1,28 1,-3 3,-12 5,-4 2,8 -1,11 -2,17 12,-3 10,-44 9,-83 8,17 12,15 15,-11 4,13 8,26 0,31 5,2 31,18 30,-13 2,8 7,2 8,-2 12,2 13,5 24,1l-4 -5c4,-37 9,-8 18,-13l0 4c21,26 9,-14 29,17l-1 -24c1,-50 18,29 29,10l-4 -13c7,-18 18,68 23,75 2,4 -2,6 -4,10 16,30 3,-31 15,-38 2,17 -3,42 5,45 3,14 25,-52 35,-21 -2,-13 -4,-25 2,-35 9,-4 21,48 31,9 1,3 1,6 1,10 7,-10 23,-17 28,-38 0,79 45,-34 39,37l21 -2 -2 7c13,5 19,-11 26,-27 2,5 -1,11 -1,14 17,16 19,12 40,-20l-1 23c6,-12 22,37 44,14 0,2 -2,7 -4,9 26,-21 39,63 62,-11l17 -16c-16,-9 10,-31 5,-45 8,-2 14,27 4,28l0 -4c-12,38 19,19 12,44 36,4 65,30 96,39l4 -27 11 5c1,6 -2,20 -10,17 0,16 17,-9 20,-14 12,14 -16,28 -12,29l8 0 -1 -3c9,-9 13,-20 22,-16 5,6 -2,15 0,17 0,1 0,2 4,1l13 6 1 -20c9,-7 13,5 14,-17 -2,35 48,27 51,38 13,-9 21,-5 31,1 -1,-5 6,-22 14,-16 -20,33 9,21 5,47 1,-18 28,5 28,-19 6,5 -5,11 -3,21 23,-4 35,22 59,27 3,-3 2,-10 9,-12l2 20c6,1 15,-14 16,-1 1,-3 1,-7 5,-6 17,16 39,25 62,36 22,11 41,26 58,42 -4,-5 0,-3 5,0 -3,-2 1,-2 2,-3l14 14c5,0 18,12 21,13l-6 -4c7,5 -6,-10 -2,-12 -9,-5 -11,-26 -26,-33 -1,-4 3,1 3,-2 -4,-1 -8,-4 -13,-12l1 0c-18,-18 -22,-31 -41,-55l-2 7c-4,-5 -4,-8 -5,-12 -11,4 12,14 1,18 3,-17 -33,-30 -27,-49 -7,-6 -3,10 -10,4l1 -6 -6 4c-4,-5 -3,-13 -1,-17 1,1 4,1 6,2 -3,-11 -19,-14 -20,-18l5 10c-23,-13 -45,-41 -73,-43l-2 7c-21,-1 -10,-14 -31,-21l2 -1c-7,4 -13,4 -18,0 8,-4 -3,-19 7,-23 -24,1 -13,4 -36,20l2 -12c-8,7 -11,12 -22,11 12,-6 1,-19 15,-27 -11,-35 -40,10 -35,-31 -22,27 11,26 3,30 0,12 -17,20 -22,14 -6,-3 4,-46 -12,-54 1,1 2,-1 4,0 -3,-12 -17,6 -20,-11 -11,19 -9,-6 -20,21l18 -1c-11,4 -30,33 -39,12 3,-5 9,-11 14,-14 -2,-10 -10,2 -12,-8 10,-27 21,2 37,-15 -1,-13 -24,12 -10,-15 -19,35 -15,-12 -36,12l6 -16c-3,2 -9,8 -12,6l13 -19c-15,15 -14,-25 -26,-18 19,7 -2,23 3,39 -30,14 -1,-52 -30,-53 4,-1 11,16 3,22 -4,-5 -9,-15 -10,-25 -19,-3 -2,20 -12,28 -1,-24 -11,7 -21,12l5 -19c-18,-19 -15,38 -30,18l14 -25 -11 4 7 -21c-14,13 -16,8 -25,-2 -1,15 -9,36 -18,34 -4,-13 7,-18 -6,-18 5,-12 12,-27 13,-7 2,-7 6,-12 8,-18 -4,-16 -17,-8 -21,-9 1,1 3,3 4,6l-24 24c-2,-8 2,-14 5,-19 -4,1 -8,10 -14,10 4,-16 7,-34 16,-39l-21 14c0,-8 -6,-23 -3,-28 -8,-13 -30,27 -41,11 -1,3 -3,6 -6,8 -12,-7 -21,-31 -39,-9l-5 -33c-12,5 7,42 -14,51 -14,9 -2,-28 -6,-38 -8,16 -23,47 -34,19 5,-6 8,0 12,-2zm-145 2l0 0c3,-5 9,-19 11,-6 -4,27 -6,14 -11,6zm-215 60l0 0c2,-8 5,-4 9,4 -2,2 -5,2 -9,-4zm-500 291l0 0c0,0 0,0 0,-1 8,3 5,2 0,1zm-14 -1l0 0c0,3 2,4 3,6 -1,-4 1,-5 4,-5 -3,-3 -6,-5 -7,-1zm1215 -94l0 0 -1 -4c6,-3 4,0 1,4z"/>
  <path class="fil0" d="M2585 1201c1,4 1,8 2,13 1,-4 0,-9 -2,-13z"/>
  <polygon class="fil0" points="3013,1176 3014,1177 3015,1173 "/>
  <path class="fil0" d="M2145 1304c4,2 7,4 9,7 -2,-4 -4,-7 -9,-7z"/>
  <path class="fil0" d="M2013 1573l4 -6c-3,2 -6,1 -9,0 3,2 7,5 5,6z"/>
  <path class="fil0" d="M1908 1556c0,2 -2,2 -2,4l5 3c3,-3 2,-9 -3,-7z"/>
  <path class="fil0" d="M1977 1542c-8,-8 -9,-3 -12,2 0,0 0,0 0,0 10,12 11,5 12,-2z"/>
  <path class="fil0" d="M1964 1545c-1,1 -2,3 -3,3 3,5 2,0 3,-3z"/>
  <path class="fil0" d="M2040 1538c-4,-1 9,14 5,11 7,14 2,-23 -5,-11z"/>
  <polygon class="fil0" points="1948,1516 1959,1526 1954,1515 "/>
  <path class="fil0" d="M1989 1497l-10 3c2,1 2,3 2,5 4,-3 11,-4 8,-8z"/>
  <path class="fil0" d="M1981 1505c-3,2 -5,3 -4,6 1,-1 3,-3 4,-6z"/>
  <polygon class="fil0" points="1954,1505 1959,1506 1964,1503 "/>
  <path class="fil0" d="M2068 1450l6 -9c-2,-6 -6,-8 -8,-4 0,5 -2,8 2,13z"/>
  <path class="fil0" d="M2019 1425c4,1 6,4 10,8l-11 -18 1 10z"/>
  <path class="fil0" d="M2040 1404c-2,-6 4,-23 -6,-15 2,6 -4,15 6,15z"/>
  <polygon class="fil0" points="2186,1363 2184,1364 2199,1403 "/>
  <path class="fil0" d="M2278 1215c-15,-6 5,28 -9,19 0,11 11,7 11,17 4,-13 9,-8 -2,-36z"/>
  <path class="fil0" d="M2280 1251c-1,2 -1,5 -2,8 2,-3 2,-6 2,-8z"/>
  <polygon class="fil0" points="3660,1604 3666,1609 3662,1605 "/>
  <path class="fil0" d="M3672 1612l1 1 4 3c-1,-1 -1,-1 -5,-4z"/>
  <path class="fil0" d="M2757 1111l-1 7c1,8 3,9 6,11l-5 -18z"/>
  <polygon class="fil0" points="2863,1141 2861,1140 2862,1168 "/>
  <path class="fil0" d="M2956 1119c-4,-2 -9,4 -13,2 9,-4 10,32 13,-2z"/>
  <path class="fil0" d="M6516 1819c0,0 -1,2 -1,2 1,-5 1,-2 1,-2z"/>
  <polygon class="fil0" points="6519,1764 6520,1764 6518,1756 "/>
  <path class="fil0" d="M6515 1711c-6,7 4,19 3,29l-1 1 5 4c-2,-12 -8,-25 -7,-34z"/>
  <path class="fil0" d="M6530 1676c-3,3 -3,-5 -1,8 1,-1 1,-1 1,-2 0,-1 0,-2 0,-6z"/>
  <path class="fil0" d="M6530 1682c0,6 3,-5 0,0z"/>
  <path class="fil0" d="M6524 1655l5 7c2,-3 1,-10 3,-8 -3,-7 -5,-5 -8,1z"/>
  <path class="fil0" d="M6515 1651l3 4c0,-1 1,-3 -3,-4z"/>
  <path class="fil0" d="M6523 1662l-5 -7c-2,1 -5,3 2,3 -3,0 0,1 3,4z"/>
  <path class="fil0" d="M6522 1667c-1,5 -1,11 -6,5 4,14 10,9 6,-5z"/>
  <path class="fil0" d="M6507 1711l-1 6 3 4c-2,-2 0,-11 -2,-10z"/>
  <path class="fil0" d="M6517 1604c-2,1 -5,6 -8,8l4 5c1,-4 1,-11 4,-13z"/>
  <path class="fil0" d="M6509 1612l-7 -6c2,8 4,8 7,6z"/>
  <polygon class="fil0" points="6504,1655 6515,1665 6503,1653 "/>
  <polygon class="fil0" points="6506,1571 6514,1572 6501,1570 "/>
  <path class="fil0" d="M6495 1551c7,0 7,-11 12,-10 -4,-5 -10,-7 -16,-8 4,3 6,8 4,18z"/>
  <path class="fil0" d="M6481 1530c3,1 6,2 10,3 -3,-2 -6,-3 -10,-3z"/>
  <path class="fil0" d="M6498 1592c1,-2 4,-5 4,-11l-6 8 2 3z"/>
  <path class="fil0" d="M6496 1589l0 0c-1,-4 -2,-6 -3,-7 1,1 2,3 3,7z"/>
  <path class="fil0" d="M6498 1593l0 -1c-1,1 -1,1 0,1z"/>
  <path class="fil0" d="M6502 1632c-5,-3 -13,-11 -15,1 6,1 7,-6 15,-1z"/>
  <path class="fil0" d="M6491 1602l2 9c2,-1 4,-4 6,-3 1,0 -8,-6 -8,-6z"/>
  <polygon class="fil0" points="6487,1599 6491,1602 6490,1599 "/>
  <path class="fil0" d="M6481 1550c-5,-1 -7,-5 -10,-9 1,6 3,12 5,16 3,-1 8,-2 5,-7z"/>
  <path class="fil0" d="M6488 1570l-1 -1c0,1 0,2 1,1z"/>
  <polygon class="fil0" points="6444,1501 6443,1503 6444,1502 "/>
  <path class="fil0" d="M6475 1559c0,5 3,6 7,6 -3,-2 -4,-5 -6,-8 -1,1 -2,1 -1,2z"/>
  <path class="fil0" d="M6471 1521c-1,3 -1,6 -1,9 2,-4 3,-11 1,-9z"/>
  <path class="fil0" d="M6488 1567l1 0c1,-2 0,-2 -1,0z"/>
  <path class="fil0" d="M6488 1567c-1,-2 -4,-2 -6,-2 1,2 3,3 5,4 0,-1 1,-2 1,-2z"/>
  <path class="fil0" d="M6383 1541c8,-7 21,-7 19,6 11,1 32,-25 41,-44 -4,3 -7,5 -16,3 -3,6 2,24 -9,25 -11,-5 -4,-10 -3,-18 -6,13 -23,3 -35,19l11 2c-2,2 -8,3 -8,7z"/>
  <path class="fil0" d="M6452 1518l3 2c-1,-5 0,-10 3,-20 -7,-2 -11,0 -14,2l10 16 -2 0z"/>
  <path class="fil0" d="M6465 1534c-9,4 -18,0 -23,11 7,8 11,0 17,3 -11,-13 7,1 5,-14 4,2 5,5 7,7 -1,-3 -1,-7 -1,-11l0 1 0 0 0 0c-1,1 -1,2 -1,1l0 0c-2,0 -3,1 -4,1 -1,-5 2,-2 4,-1l1 -1 0 0 -15 -11c2,4 5,7 10,14z"/>
  <path class="fil0" d="M6469 1633c1,-1 1,-1 2,-1 -2,-1 -2,-1 -2,1z"/>
  <path class="fil0" d="M6471 1625c1,0 4,0 5,4 -1,4 -3,1 -5,3 2,1 8,5 8,-4l-1 0c0,-8 5,-21 6,-20 -5,5 -9,9 -13,17z"/>
  <path class="fil0" d="M6465 1583l-10 -10 -3 11 3 -3c3,8 7,3 10,2z"/>
  <polygon class="fil0" points="6447,1496 6457,1489 6439,1493 "/>
  <polygon class="fil0" points="6434,1481 6442,1473 6435,1474 "/>
  <path class="fil0" d="M5483 1396l-3 5c1,-1 2,-3 3,-5z"/>
  <path class="fil0" d="M5510 1397l0 -9c-1,5 -2,9 0,9z"/>
  <path class="fil0" d="M6049 1227c-1,-18 -1,-44 -6,-25l-3 19c5,-2 7,1 9,6z"/>
  <path class="fil0" d="M5734 1288l1 7c2,-8 4,-14 5,-20 -2,4 -4,8 -6,13z"/>
  <path class="fil0" d="M5725 1375l-6 -14c1,5 3,10 6,14z"/>
  <path class="fil0" d="M5342 1425l-2 20c7,-1 3,-11 2,-20z"/>
  <path class="fil0" d="M6287 1352c-2,-9 -4,-14 -7,-16 1,11 -1,26 7,16z"/>
  <path class="fil0" d="M5481 1177c-2,3 -3,8 -3,12 3,-3 4,-7 3,-12z"/>
  <path class="fil0" d="M6267 1327c0,2 0,3 1,5 4,0 8,0 12,4 -1,-9 -3,-16 -13,-9z"/>
  <path class="fil0" d="M4828 1521c-1,0 -1,0 -2,0 1,1 1,1 2,0z"/>
  <path class="fil0" d="M4668 1574c2,-1 3,-3 4,-5 0,1 -2,2 -4,5z"/>
  <path class="fil0" d="M6385 1418c4,2 2,-1 0,0z"/>
  <path class="fil0" d="M6367 1472c-2,1 -3,2 -5,4 2,-2 4,-3 5,-4z"/>
  <path class="fil0" d="M6188 1401l0 0c-1,3 -1,2 0,0z"/>
  <path class="fil0" d="M6386 1427c0,-3 0,-5 -1,-7 0,1 0,4 1,7z"/>
  <path class="fil0" d="M6389 1421c1,2 2,3 2,4 2,-1 2,-3 -2,-4z"/>
  <path class="fil0" d="M6381 1414c2,1 3,4 4,6 0,-1 0,-2 0,-2 0,-1 -2,-2 -4,-4z"/>
  <path class="fil0" d="M5087 1402c0,0 -1,-1 -1,-1 -2,7 0,5 1,1z"/>
  <polygon class="fil0" points="5906,1403 5906,1402 5906,1401 "/>
  <path class="fil0" d="M5891 1415c10,-23 12,-20 15,-14l8 -58 -23 72z"/>
  <path class="fil0" d="M5420 1405l11 18c-8,30 -16,20 -6,45 -5,-63 32,-8 28,-71l7 13c-2,-1 -2,3 -4,2 14,31 5,-47 20,-38 6,5 10,14 7,22l10 -16c3,1 3,13 0,11l17 -5 0 2c2,-10 7,-26 9,-33 5,9 -2,7 0,15l8 -16c5,17 -2,34 -9,31 11,65 7,-16 28,22l-9 8c7,37 13,24 23,47 -2,-12 -21,-59 -11,-75 3,5 7,7 12,-6 1,23 6,17 12,16l0 31c7,-9 7,-25 11,-39 8,3 10,27 12,47 13,6 -9,-39 6,-44 11,12 18,0 32,-18 7,11 -2,19 1,28l7 -25c2,1 1,8 1,12 5,-9 1,-31 10,-39 3,-34 17,51 29,12 3,9 -2,19 -1,31 16,-25 14,-18 28,-52l10 20c-7,-23 4,-51 15,-73 -2,-11 -4,-21 -6,-26l16 -16c2,5 -1,16 -4,29 1,-3 2,-5 3,-8 5,12 1,30 -4,47 -1,-6 -2,-13 -4,-19 -5,18 -9,39 -9,57 1,-3 3,-6 5,-8 -1,5 -2,10 -2,13 0,3 2,-4 5,-12l1 35 2 -14 15 23c15,-34 32,-84 55,-95 -8,25 -6,41 -10,71 -2,-32 -17,11 -27,4 5,3 2,18 1,22l21 -26c-3,24 2,18 6,29 2,-48 18,-30 27,-44 -1,16 -6,32 -14,27 4,37 21,-54 27,-22 -2,0 -3,-3 -6,5 8,-13 19,0 14,14l-2 0c14,7 45,7 56,-31 -1,5 -12,46 -14,54 0,0 13,-31 27,-63 14,-31 28,-62 28,-62 -9,33 -18,113 -35,130 3,5 6,11 16,1 -1,-5 5,-49 9,-51 1,38 2,21 6,54 -2,-8 14,-58 20,-55 -3,8 -12,51 -16,55l27 -46c-6,8 -11,42 -12,57 2,-10 12,3 18,-1l-3 -13c14,11 35,-65 51,-57 -5,9 -23,60 -17,68 11,-24 52,-113 74,-125l-2 14 17 -11c-20,32 -64,102 -83,130 3,12 -3,16 6,17 -1,14 -11,19 -14,19l18 13c8,-28 25,-24 32,-47l-32 23c8,-28 39,-76 52,-66 0,12 -19,48 -22,57 5,-9 20,-14 19,-7l-11 13c4,12 26,-31 26,-3 3,3 -3,36 3,21 7,-31 41,-124 53,-145 1,3 8,36 6,52 -4,25 -31,51 -34,72 3,-6 10,-14 12,-16 1,7 -10,21 -1,20 12,-25 14,8 12,-20 11,-4 6,9 15,11 4,-17 32,-51 43,-54 -3,6 -5,15 -6,19 15,9 17,23 31,31 -2,6 2,16 -6,24 4,-3 10,-10 14,-8 -2,23 -11,-2 -17,24 7,-13 20,-12 31,-17 9,-20 -12,-11 -22,-6 14,-27 40,-50 62,-53 16,1 -4,20 0,18 18,18 45,-30 51,1 -3,20 -19,30 -25,41 -13,0 -7,-19 -14,-22l3 12c-6,3 -15,3 -15,-4 -3,18 33,26 40,49 6,-3 15,-4 16,-11l-6 -2c4,-15 21,-7 18,-17 12,-2 29,-7 33,8l-10 15c3,-4 1,-14 -5,-12 9,-2 -2,31 17,17l2 -15c12,-1 33,-7 36,6 8,-16 -3,0 5,-21 -12,23 -19,-23 -29,6 10,-24 -3,-18 3,-43 -4,5 -5,12 -10,3 -1,1 -3,2 -5,3l0 -1 0 1c-1,0 -1,0 0,0 0,4 -1,8 -2,11 -13,8 -23,-3 -31,0 -3,-6 6,-4 8,-12l-13 5c8,-12 3,-29 18,-28l-9 -8c0,-11 -6,-21 -14,-19 -3,-7 -21,5 -10,-2l-20 -4 2 -4c-14,-13 -44,3 -47,-35 -8,0 -15,1 -22,-9l5 -14c-9,1 -14,-26 -24,-13 10,-42 -30,-28 -40,-41l-8 19c-8,-6 -19,-4 -32,-1l-6 18c-15,11 -19,-23 -34,-28 3,-6 6,-3 7,2 -3,-48 -47,17 -53,-20 -6,5 -8,2 -9,-4 0,0 0,0 1,0 0,-1 -1,-1 -2,-1 0,-4 -1,-9 -2,-13 0,6 1,10 1,12 -3,0 -8,0 -14,4l4 -22c-1,1 -1,0 -2,1 -2,-10 -6,8 -8,25 -3,2 -7,6 -10,10 6,-35 -15,8 -10,-30 -8,17 -27,7 -39,44 1,-5 1,-8 3,-7 -4,-6 -8,-12 -15,-2l4 -29 -19 35c-3,-19 -4,-29 7,-49 -23,29 -16,9 -37,39l5 -18c-5,-1 -18,22 -18,6 -5,-37 -54,-16 -80,-53 -1,57 -11,-27 -17,16 0,-13 -4,-21 2,-32 -16,10 -22,-24 -36,11 -1,-13 5,-19 4,-27 -1,3 -6,11 -7,3 -1,-8 3,-11 7,-16 -18,0 -22,41 -26,80 -6,-19 -10,-16 -17,9 -2,-13 -6,-27 4,-31 -5,-2 -32,-20 -34,12 -1,-8 -7,-3 -8,1 -12,-3 -13,-5 -25,-3l3 5c-5,38 -10,8 -19,13l0 -4c-21,-28 -9,13 -30,-19l1 24c-2,50 -18,-31 -31,-12l5 14c-7,17 -19,-68 -26,-74 -2,-4 2,-7 4,-10 -19,-29 -2,30 -15,38 -3,-16 2,-42 -7,-44 -5,-13 -25,54 -38,23 3,13 6,25 0,35 -9,5 -28,-46 -34,-6 -2,-3 -2,-7 -3,-10 -6,11 -22,18 -25,40 -12,-77 -41,43 -47,-28l-22 6 0 -7c-15,-3 -18,15 -21,32 -4,-4 -2,-11 -2,-15 -23,-11 -25,-8 -37,30l-5 -22c-3,13 -35,-28 -51,2 0,-3 -1,-7 0,-11 -17,30 -66,-45 -59,33l-10 22c20,1 4,33 14,43 -6,6 -23,-17 -15,-23l2 3c-5,-39 -26,-7 -32,-33 -37,12 -78,5 -112,19l12 24 -13 3c-5,-5 -10,-18 -1,-21 -9,-12 -11,18 -9,24 -20,-4 -3,-32 -8,-31l-7 5 3 2c-2,13 1,24 -10,26 -8,-2 -8,-13 -11,-13 -1,-2 -2,-2 -4,1l-15 6 12 15c-3,12 -14,5 1,23 -22,-27 -58,14 -68,8 -3,17 -12,21 -23,26 4,1 14,18 4,20 -13,-36 -24,-6 -43,-25 14,12 -23,20 -2,35 -9,2 -6,-12 -16,-15 -11,23 -41,20 -59,40 2,3 8,6 7,14l-20 -7c-3,5 7,20 -7,16 3,1 7,4 5,7 -24,8 -41,30 -58,48 -17,20 -36,36 -54,54 6,-4 3,0 0,4 3,-3 2,2 3,2 0,0 -14,15 -14,15 -1,4 -12,19 -12,22l3 -6c-4,7 10,-8 12,-4 4,-9 25,-11 33,-24 4,-1 -1,3 2,3 1,-4 4,-8 13,-11l0 1c20,-14 31,-17 59,-26l-6 -4c6,-2 9,-1 12,-1 0,-12 -15,7 -16,-5 15,8 36,-21 52,-7 8,-3 -8,-7 0,-10l6 3 -2 -7c6,-1 12,3 15,7 -1,1 -3,3 -4,4 11,3 19,-10 22,-9l-9 0c19,-15 53,-15 67,-38l-4 -5c12,-16 17,1 33,-10l0 1c1,-7 5,-11 10,-13 -1,9 15,11 13,20 13,-18 5,-12 7,-39l7 9c0,-11 -2,-16 7,-22 -4,12 13,14 9,29 30,19 20,-33 43,0 -3,-34 -24,-12 -21,-20 -9,-9 -2,-26 6,-25 6,-2 26,37 42,32 -2,0 -1,3 -3,3 9,7 8,-14 20,-2 -3,-22 10,-1 3,-28l-13 10c6,-9 3,-43 23,-31 0,6 -2,14 -3,19 7,7 6,-7 13,0 8,28 -16,10 -18,33 8,10 10,-23 15,7 -5,-39 18,2 19,-30l5 17c1,-3 2,-12 5,-12l1 23c3,-21 22,14 27,2 -17,4 -10,-21 -21,-32 15,-29 26,44 48,32 -3,3 -16,-9 -13,-18 6,3 14,9 19,18 16,-6 -7,-18 -3,-31 11,22 6,-10 12,-19l4 19c22,10 -4,-41 16,-29l-1 28 7 -8 3 23c6,-18 10,-15 21,-10 -5,-13 -7,-37 2,-38 8,11 0,19 12,15 -1,13 0,29 -9,11 1,7 0,13 1,20 8,13 15,2 20,1 -2,-1 -4,-2 -6,-4l12 -30c4,7 3,13 2,20 3,-3 4,-13 9,-15 1,17 5,34 -1,43l13 -20c2,7 11,19 10,26 11,9 17,-35 31,-23 0,-4 0,-7 3,-10 11,2 24,25 34,0l11 31c10,-7 -14,-40 2,-53 11,-11 7,28 12,36 5,-16 12,-50 26,-24 -3,6 -6,1 -10,4zm129 -18l0 0c-3,4 -7,20 -9,6 2,-27 4,-14 9,-6zm202 -53l0 0c-3,8 -5,4 -8,-5 2,-2 5,-1 8,5zm594 64l0 0c0,0 -1,0 -1,0 -1,-9 -1,-6 1,0zm6 14l0 0c3,-1 4,-3 5,-5 -3,3 -6,1 -8,-2 -1,4 -2,7 3,7zm-1338 -106l0 0 3 3c-3,7 -3,2 -3,-3z"/>
  <path class="fil0" d="M5726 1365c0,-4 0,-8 0,-13 -2,4 -2,9 0,13z"/>
  <polygon class="fil0" points="5342,1421 5342,1421 5342,1425 "/>
  <path class="fil0" d="M6114 1452c-2,-3 -1,-7 -1,-11 -2,5 -2,9 1,11z"/>
  <path class="fil0" d="M6419 1444l-8 -4c3,3 2,7 2,10 2,-3 4,-8 6,-6z"/>
  <path class="fil0" d="M6411 1557c2,0 2,2 4,2l4 -4c-4,-3 -10,-3 -8,2z"/>
  <path class="fil0" d="M6394 1485c-7,9 -1,10 5,12l-1 -1c12,-10 4,-11 -4,-11z"/>
  <path class="fil0" d="M6400 1498c2,1 3,2 4,4 5,-4 -1,-3 -4,-4z"/>
  <path class="fil0" d="M6370 1416c0,5 11,-12 9,-6 12,-12 -27,3 -9,6z"/>
  <polygon class="fil0" points="6372,1516 6380,1504 6370,1511 "/>
  <path class="fil0" d="M6346 1480l4 9c1,-2 3,-3 5,-3 -4,-4 -7,-10 -9,-6z"/>
  <path class="fil0" d="M6355 1486c2,2 4,4 7,3 -1,-1 -4,-3 -7,-3z"/>
  <polygon class="fil0" points="6360,1512 6360,1508 6356,1503 "/>
  <path class="fil0" d="M6268 1421l-11 0c-4,5 -3,9 1,9 4,-3 9,-3 10,-9z"/>
  <path class="fil0" d="M6268 1477c0,-4 2,-8 4,-13l-12 18 8 -5z"/>
  <path class="fil0" d="M6242 1468c-4,5 -21,10 -10,13 4,-5 15,-5 10,-13z"/>
  <polygon class="fil0" points="6126,1383 6129,1384 6144,1345 "/>
  <path class="fil0" d="M5976 1448c7,13 10,-26 16,-11 5,-10 -5,-13 0,-21 -9,9 -11,3 -16,32z"/>
  <path class="fil0" d="M5992 1416c2,-1 4,-3 6,-6 -3,3 -4,4 -6,6z"/>
  <polygon class="fil0" points="4653,1597 4649,1604 4652,1600 "/>
  <path class="fil0" d="M4646 1610l-1 2 -2 4c1,-1 1,-1 3,-6z"/>
  <path class="fil0" d="M5569 1450l0 -8c-1,-8 -2,-9 -6,-10l6 18z"/>
  <polygon class="fil0" points="5476,1426 5478,1427 5473,1399 "/>
  <path class="fil0" d="M5403 1464c3,1 6,-5 9,-4 -6,5 -14,-29 -9,4z"/>
  <path class="fil0" d="M3584 3265c0,0 2,-1 2,-2 -4,3 -2,2 -2,2z"/>
  <polygon class="fil0" points="3549,3293 3549,3292 3545,3297 "/>
  <path class="fil0" d="M3515 3317c8,3 12,-9 19,-12l2 0 -1 -5c-6,6 -13,15 -20,17z"/>
  <path class="fil0" d="M3483 3314c4,2 -2,4 6,-1 -1,0 -1,0 -2,-1 -1,1 -2,1 -4,2z"/>
  <path class="fil0" d="M3487 3312c4,-1 -5,-1 0,0z"/>
  <path class="fil0" d="M3470 3322l3 -5c-3,-1 -8,0 -7,-2 -5,4 -2,5 4,7z"/>
  <path class="fil0" d="M3470 3330l2 -2c-2,-1 -3,-1 -2,2z"/>
  <path class="fil0" d="M3475 3323l-3 5c1,1 4,3 1,-2 2,2 1,-1 2,-3z"/>
  <path class="fil0" d="M3480 3322c4,1 9,0 6,5 8,-6 3,-10 -6,-5z"/>
  <path class="fil0" d="M3519 3324l5 -1 1 -4c-1,2 -8,3 -6,5z"/>
  <path class="fil0" d="M3433 3331c2,2 7,5 9,8l2 -4c-3,-1 -8,-1 -11,-4z"/>
  <path class="fil0" d="M3442 3339l-3 6c6,-2 5,-4 3,-6z"/>
  <polygon class="fil0" points="3477,3340 3481,3329 3475,3341 "/>
  <polygon class="fil0" points="3411,3339 3410,3332 3410,3343 "/>
  <path class="fil0" d="M3397 3345c-1,-6 -10,-8 -9,-12 -4,2 -4,8 -4,13 1,-3 5,-4 13,-1z"/>
  <path class="fil0" d="M3383 3354c0,-2 0,-5 1,-8 -1,2 -2,4 -1,8z"/>
  <path class="fil0" d="M3429 3348c-2,-1 -5,-4 -10,-5l8 6 2 -1z"/>
  <path class="fil0" d="M3427 3349l0 0c-3,1 -5,1 -6,2 1,0 3,-1 6,-2z"/>
  <path class="fil0" d="M3429 3348l0 0c1,1 1,1 0,0z"/>
  <path class="fil0" d="M3459 3344c-1,5 -4,12 6,13 -1,-5 -7,-6 -6,-13z"/>
  <path class="fil0" d="M3438 3355l7 -2c-1,-1 -4,-3 -4,-6l-3 8z"/>
  <polygon class="fil0" points="3437,3358 3438,3355 3436,3355 "/>
  <path class="fil0" d="M3398 3358c0,4 -3,5 -6,7 5,0 9,0 13,-2 -2,-2 -3,-7 -7,-5z"/>
  <path class="fil0" d="M3413 3354l-1 1c1,0 2,0 1,-1z"/>
  <polygon class="fil0" points="3361,3377 3362,3379 3361,3377 "/>
  <path class="fil0" d="M3406 3365c4,0 4,-3 4,-6 -2,2 -3,3 -5,4 0,2 1,2 1,2z"/>
  <path class="fil0" d="M3376 3360c3,2 5,3 8,3 -3,-2 -9,-5 -8,-3z"/>
  <path class="fil0" d="M3410 3353l0 0c-2,-1 -1,-1 0,0z"/>
  <path class="fil0" d="M3410 3353c-1,2 0,4 0,6 1,-1 2,-2 2,-4 0,0 -1,-1 -2,-2z"/>
  <path class="fil0" d="M3389 3444c-5,-9 -4,-21 8,-16 1,-10 -20,-35 -35,-49 2,4 5,7 2,15 5,4 20,5 20,15 -5,9 -8,1 -15,-2 10,10 0,22 12,38l3 -10c2,2 2,8 5,9z"/>
  <path class="fil0" d="M3374 3375l2 -2c-4,0 -8,-3 -16,-8 -1,6 0,9 1,12l13 -3 0 1z"/>
  <path class="fil0" d="M3387 3369c4,9 0,15 10,23 7,-4 0,-9 2,-15 -10,7 0,-6 -11,-7 1,-3 3,-4 4,-5 -2,0 -5,-1 -8,-2l0 1 0 0 0 0c2,1 2,1 1,1l0 0c1,2 1,3 2,4 -5,-1 -2,-2 -2,-4l-1 -1 0 0 -8 9c3,0 6,-1 11,-4z"/>
  <path class="fil0" d="M3469 3374c0,0 -1,-1 -1,-1 0,1 0,2 1,1z"/>
  <path class="fil0" d="M3462 3373c0,-1 -1,-4 2,-5 3,0 2,3 4,5 0,-3 2,-8 -5,-8l-1 2c-6,0 -17,-4 -17,-6 5,5 10,9 17,12z"/>
  <path class="fil0" d="M3426 3376l-6 9 9 4 -3 -4c6,-1 2,-5 0,-9z"/>
  <polygon class="fil0" points="3357,3373 3352,3363 3355,3379 "/>
  <polygon class="fil0" points="3345,3379 3340,3370 3340,3376 "/>
  <path class="fil0" d="M2581 3647l-4 5c2,-1 3,-3 4,-5z"/>
  <path class="fil0" d="M2605 3654l2 -9c-2,5 -3,8 -2,9z"/>
  <path class="fil0" d="M3035 3444c-7,-16 -15,-41 -11,-21l4 19c2,-4 5,-2 7,2z"/>
  <path class="fil0" d="M2813 3568l1 7c2,-7 3,-14 5,-20 -2,4 -4,9 -6,13z"/>
  <path class="fil0" d="M2804 3655l-5 -14c1,5 3,10 5,14z"/>
  <path class="fil0" d="M2447 3634l-8 18c6,2 5,-9 8,-18z"/>
  <path class="fil0" d="M3218 3421c-6,-5 -10,-7 -13,-7 8,8 16,20 13,7z"/>
  <path class="fil0" d="M2629 3433c-2,3 -4,7 -5,12 3,-3 5,-7 5,-12z"/>
  <path class="fil0" d="M3195 3416c1,1 2,2 3,3 2,-3 4,-5 7,-5 -5,-6 -11,-9 -10,2z"/>
  <path class="fil0" d="M2023 3394c0,0 0,0 -1,-1 0,1 0,1 1,1z"/>
  <path class="fil0" d="M1933 3278c2,0 4,1 6,1 -1,0 -3,0 -6,-1z"/>
  <path class="fil0" d="M3291 3390c3,-1 0,-1 0,0z"/>
  <path class="fil0" d="M3328 3432c1,1 1,3 2,6 -1,-3 -1,-5 -2,-6z"/>
  <path class="fil0" d="M3201 3521l0 0c1,3 1,3 0,0z"/>
  <path class="fil0" d="M3298 3394c-2,-1 -3,-2 -5,-2 1,1 3,1 5,2z"/>
  <path class="fil0" d="M3295 3389c1,0 2,0 3,0 -1,-2 -2,-3 -3,0z"/>
  <path class="fil0" d="M3288 3392c2,-1 3,-1 5,0 -1,-1 -1,-1 -2,-2 0,1 -1,1 -3,2z"/>
  <path class="fil0" d="M2256 3495c0,-1 0,-1 0,-2 -5,5 -4,5 0,2z"/>
  <polygon class="fil0" points="2982,3656 2982,3655 2982,3655 "/>
  <path class="fil0" d="M2971 3673c3,-26 6,-23 11,-18l-9 -58 -2 76z"/>
  <path class="fil0" d="M2523 3640l4 20c-15,27 -20,14 -18,42 14,-62 32,1 45,-61l3 14c-1,-1 -2,3 -4,2 5,33 17,-44 28,-32 3,6 5,15 0,22l13 -13c3,2 0,13 -3,11l16 -2 0 2c4,-10 11,-24 15,-31 2,10 -3,7 -3,15l10 -14c1,17 -8,33 -14,29 -3,66 10,-15 21,26l-10 6c0,38 8,26 14,50 -1,-12 -9,-61 2,-75 2,5 5,8 12,-4 -3,23 3,18 9,18l-5 30c8,-7 10,-23 15,-36 7,4 6,28 5,48 11,7 -3,-39 11,-43 9,13 17,2 31,-15 6,12 -3,19 -2,28l9 -24c2,1 0,9 0,12 6,-9 4,-30 13,-38 6,-34 11,51 26,13 1,9 -3,19 -4,31 17,-24 14,-17 29,-51l8 21c-6,-24 6,-51 14,-73 -1,-11 -3,-21 -4,-26l13 -16c1,6 0,16 -3,29 1,-3 2,-5 2,-7 4,12 1,29 -3,46 -1,-6 -2,-13 -4,-19 -4,19 -8,39 -9,57 1,-3 3,-6 5,-8 -1,5 -2,10 -2,13 1,3 2,-3 5,-11l1 35 1 -14 16 23c14,-34 26,-86 44,-100 -5,25 -1,41 -2,71 -5,-31 -15,14 -25,8 5,3 4,17 2,22l19 -29c-1,24 3,18 8,28 -3,-48 13,-32 20,-47 1,16 -1,32 -10,29 11,36 13,-57 22,-26 -2,0 -3,-2 -4,6 5,-15 17,-4 15,10l-2 1c14,5 44,-2 43,-43 0,6 1,49 1,57 0,0 4,-34 8,-69 3,-33 6,-67 6,-67 1,34 16,114 6,134 4,5 9,10 15,-3 -3,-5 -10,-48 -7,-52 12,37 7,20 21,50 -4,-7 -6,-60 0,-59 0,8 6,52 5,58l7 -53c-2,9 5,43 10,57 -3,-10 12,-1 15,-6l-8 -11c17,5 5,-74 20,-73 0,10 5,63 14,68 0,-27 -5,-124 2,-144l5 13 6 -17c3,37 1,118 -4,152 8,10 5,16 13,13 6,12 -1,21 -4,23l23 3c-7,-29 9,-33 4,-56l-16 35c-6,-29 -4,-85 11,-82 6,10 8,51 10,60 0,-10 9,-22 12,-15l-2 16c10,9 4,-41 19,-17 4,0 19,31 15,15 -13,-29 -38,-125 -41,-149 2,2 23,26 31,40 11,22 8,59 17,78 -1,-7 -1,-17 -1,-20 5,5 5,22 12,17 -7,-27 15,-3 -3,-24 4,-10 8,3 16,-1 -7,-16 -10,-58 -6,-68 2,7 6,15 8,18 14,-2 25,6 38,2 3,5 12,9 13,21 0,-5 -1,-14 2,-16 16,17 -7,7 8,28 -5,-13 3,-23 5,-33 -10,-20 -14,1 -17,12 -11,-29 -13,-63 -5,-79 7,-10 12,16 12,11 20,-3 -5,-52 19,-38 13,14 15,32 22,43 -6,10 -17,-5 -23,-2l11 5c0,7 -4,13 -9,10 12,13 33,-11 54,-6 0,-6 1,-14 -4,-18l-3 4c-10,-10 0,-21 -9,-24 2,-11 2,-27 14,-24l10 16c-3,-5 -11,-7 -11,-1 0,-9 25,15 17,-7l-11 -9c1,-10 0,-29 10,-27 -12,-13 -1,3 -16,-13 17,20 -20,5 0,26 -17,-19 -14,-5 -31,-22 3,6 8,10 1,9 0,2 1,4 1,6l-1 -1 1 1c0,1 0,1 0,0 3,2 5,4 8,7 3,14 -7,18 -7,25 -5,-1 -2,-7 -7,-12l0 12c-7,-13 -20,-19 -15,-29l-9 1c-8,-6 -15,-8 -17,-1 -5,-2 -2,18 -4,6l-8 13 -2 -4c-12,1 -16,31 -40,6 -3,5 -5,11 -14,8l-6 -14c-3,6 -20,-11 -17,4 -18,-39 -28,-6 -40,-12l6 20c-7,0 -12,7 -18,16l5 19c-3,16 -20,-10 -31,-8 -1,-7 2,-5 5,-1 -21,-42 -21,34 -39,4 -2,7 -5,5 -7,0 0,0 0,0 0,-1 0,0 -1,0 -1,0 -2,-3 -4,-7 -6,-10 2,5 4,8 5,10 -2,1 -5,4 -8,9l-4 -21c-1,0 -1,0 -1,1 -4,-8 -1,10 3,26 -1,4 -2,8 -3,13 -7,-34 -7,13 -16,-24 0,18 -15,14 -13,53 -1,-5 -2,-7 0,-8 -5,-4 -9,-8 -12,3l-4 -28 -5 38c-7,-16 -10,-27 -7,-49 -9,35 -8,14 -17,48l0 -19c-4,1 -9,27 -12,11 -10,-35 -43,-5 -64,-39 3,56 -10,-26 -12,18 -1,-13 -3,-21 0,-32 -11,13 -15,-22 -24,14 -1,-13 3,-19 3,-27 -1,3 -4,11 -5,3 -1,-8 2,-11 4,-17 -11,1 -14,43 -17,81 -5,-19 -8,-16 -14,9 -1,-13 -4,-27 4,-31 -4,-2 -23,-20 -26,11 -1,-8 -5,-3 -7,1 -9,-3 -9,-6 -18,-4l2 6c-8,37 -9,7 -17,11l1 -4c-13,-28 -9,12 -21,-20l-2 23c-9,50 -11,-32 -23,-14l1 14c-7,16 -5,-70 -9,-76 0,-5 3,-7 5,-10 -9,-31 -6,30 -17,36 0,-17 8,-41 2,-45 -1,-14 -28,50 -32,18 0,13 0,25 -6,34 -9,3 -12,-50 -25,-12 0,-4 0,-7 0,-10 -7,9 -21,14 -28,34 10,-78 -42,31 -28,-39l-17 1 2 -7c-10,-6 -17,9 -25,25 -1,-5 2,-11 3,-15 -13,-16 -15,-13 -36,17l4 -21c-7,11 -15,-38 -36,-16 0,-3 2,-7 4,-9 -24,20 -26,-65 -53,8l-17 15c14,9 -11,31 -8,45 -7,2 -9,-26 -1,-28l0 4c14,-37 -14,-18 -6,-43 -30,-6 -52,-30 -79,-38l-6 26 -8 -4c-1,-6 3,-20 9,-18 2,-15 -15,10 -17,15 -10,-14 15,-28 11,-29l-6 0 0 3c-8,9 -12,20 -20,16 -3,-6 3,-15 1,-16 1,-2 1,-3 -2,-2l-12 -4 -2 19c-8,8 -11,-4 -13,18 4,-34 -40,-24 -41,-35 -13,10 -20,7 -28,3 1,4 -5,22 -12,17 18,-34 -8,-21 -3,-46 -2,17 -24,-3 -25,21 -6,-4 5,-11 3,-20 -21,6 -31,-17 -52,-19 -2,3 -1,9 -8,13l-2 -19c-5,0 -12,16 -14,3 0,3 -1,7 -4,7 -15,-13 -35,-17 -55,-23 -20,-5 -38,-16 -55,-26 4,4 1,3 -3,1 2,2 -2,3 -2,4l-14 -9c-5,1 -18,-7 -20,-7l5 2c-7,-2 7,8 4,10 8,3 12,21 26,24 1,3 -3,0 -3,3 4,0 7,2 12,8l-1 0c17,13 22,23 38,42l2 -7c4,4 4,7 5,10 10,-5 -11,-10 -1,-16 -2,17 29,21 24,41 6,5 3,-10 9,-5l-1 6 5 -5c4,4 3,12 1,16 -1,-1 -4,-1 -5,-2 2,11 16,11 17,14l-5 -8c21,8 39,33 63,30l1 -6c18,-2 8,13 26,17l-1 1c5,-4 11,-5 14,-2 -6,5 2,18 -6,23 20,-3 11,-5 31,-23l-2 12c7,-8 10,-13 19,-12 -10,6 -2,19 -14,27 7,33 34,-11 28,29 19,-28 -8,-25 -1,-30 0,-11 15,-20 19,-15 5,3 -6,46 8,52 -2,-1 -3,1 -4,1 2,11 14,-7 15,10 11,-19 8,5 18,-21l-14 0c9,-3 27,-32 33,-12 -2,5 -8,11 -12,14 0,9 8,-3 9,7 -11,27 -17,-1 -32,16 -1,13 21,-13 7,15 18,-35 12,11 31,-13l-6 16c2,-2 8,-8 10,-7l-12 20c14,-15 9,23 20,16 -16,-6 3,-22 1,-37 26,-16 -4,50 20,51 -4,1 -8,-16 -1,-22 3,6 7,15 6,25 15,3 4,-19 13,-28 -2,24 10,-6 18,-11l-5 19c12,19 15,-38 26,-18l-14 25 9 -4 -8 21c13,-13 15,-8 21,1 2,-14 11,-35 19,-33 1,13 -8,17 3,18 -6,12 -13,26 -12,7 -2,6 -6,11 -8,17 1,16 12,8 16,10 -1,-2 -3,-3 -3,-7l23 -22c0,8 -3,14 -7,19 4,-1 8,-10 13,-10 -5,16 -9,33 -18,39l19 -13c-1,7 3,22 -1,28 6,13 28,-26 35,-10 2,-3 4,-6 7,-8 9,7 13,31 30,11l0 33c11,-4 -1,-42 18,-49 13,-8 -2,28 0,38 9,-15 25,-45 30,-16 -5,5 -6,-1 -10,1zm119 10l0 0c-3,5 -10,19 -9,5 7,-26 7,-13 9,-5zm186 -35l0 0c-2,7 -5,3 -7,-6 2,-2 5,-1 7,6zm439 -206l0 0 0 1c-7,-4 -4,-3 0,-1zm12 4l0 0c0,-2 -1,-4 -2,-6 1,4 -1,5 -4,4 3,4 5,6 6,2zm-1015 -37l0 0 1 5c-6,3 -4,-1 -1,-5z"/>
  <path class="fil0" d="M2806 3645c-1,-4 -1,-8 -1,-13 -1,4 -1,9 1,13z"/>
  <polygon class="fil0" points="2449,3630 2448,3630 2447,3634 "/>
  <path class="fil0" d="M3182 3607c-3,-2 -5,-5 -7,-8 2,5 4,8 7,8z"/>
  <path class="fil0" d="M3316 3376l-4 5c2,-2 5,1 7,2 -2,-3 -5,-6 -3,-7z"/>
  <path class="fil0" d="M3407 3423c0,-2 1,-2 1,-3l-3 -5c-3,3 -3,8 2,8z"/>
  <path class="fil0" d="M3344 3414c6,10 8,5 11,2l-1 0c-7,-14 -9,-8 -10,-2z"/>
  <path class="fil0" d="M3355 3415c1,-1 2,-2 4,-2 -3,-6 -2,0 -4,2z"/>
  <path class="fil0" d="M3287 3402c4,2 -6,-15 -2,-11 -5,-15 -5,22 2,11z"/>
  <polygon class="fil0" points="3366,3446 3357,3434 3361,3446 "/>
  <path class="fil0" d="M3329 3453l8 1c-1,-3 -1,-4 -1,-6 -4,2 -9,1 -7,5z"/>
  <path class="fil0" d="M3336 3448c3,-1 4,-2 4,-5 -1,1 -3,3 -4,5z"/>
  <polygon class="fil0" points="3359,3455 3356,3453 3351,3455 "/>
  <path class="fil0" d="M3256 3481l-5 7c1,6 5,9 7,6 0,-5 2,-8 -2,-13z"/>
  <path class="fil0" d="M3297 3515c-3,-2 -5,-6 -8,-10l8 19 0 -9z"/>
  <path class="fil0" d="M3277 3531c2,5 -4,21 5,15 -1,-6 4,-14 -5,-15z"/>
  <polygon class="fil0" points="3152,3544 3154,3543 3143,3503 "/>
  <path class="fil0" d="M3063 3675c12,8 -2,-29 10,-17 0,-11 -10,-9 -9,-19 -4,12 -8,7 -1,36z"/>
  <path class="fil0" d="M3064 3639c1,-2 2,-5 2,-8 -1,3 -1,6 -2,8z"/>
  <polygon class="fil0" points="1912,3269 1907,3267 1910,3268 "/>
  <path class="fil0" d="M1901 3266l-2 -1 -3 -2c1,1 0,1 5,3z"/>
  <path class="fil0" d="M2650 3716l2 -7c0,-9 -1,-10 -4,-11l2 18z"/>
  <polygon class="fil0" points="2568,3675 2569,3676 2572,3648 "/>
  <path class="fil0" d="M2489 3691c3,2 8,-3 10,-1 -7,3 -3,-32 -10,1z"/>
  <path class="fil0" d="M4735 3265c0,0 -1,-1 -1,-2 2,5 1,2 1,2z"/>
  <polygon class="fil0" points="4758,3305 4757,3305 4763,3309 "/>
  <path class="fil0" d="M4783 3340c3,-8 -10,-11 -13,-19l0 -2 -5 0c5,8 15,15 18,21z"/>
  <path class="fil0" d="M4784 3374c2,-4 5,2 -2,-6 0,0 0,1 0,1 0,1 1,2 2,5z"/>
  <path class="fil0" d="M4782 3369c-3,-4 -1,5 0,0z"/>
  <path class="fil0" d="M4795 3387l-6 -3c0,3 2,8 0,8 5,4 6,1 6,-5z"/>
  <path class="fil0" d="M4804 3385l-3 -1c-1,1 0,2 3,1z"/>
  <path class="fil0" d="M4795 3381l6 3c0,-2 3,-5 -3,-2 3,-2 0,0 -3,-1z"/>
  <path class="fil0" d="M4793 3377c0,-5 -2,-9 4,-7 -8,-9 -11,-2 -4,7z"/>
  <path class="fil0" d="M4790 3336l-1 -5 -5 -1c2,1 5,8 6,6z"/>
  <path class="fil0" d="M4815 3423c2,-1 3,-7 5,-10l-5 -1c0,3 2,8 0,11z"/>
  <path class="fil0" d="M4820 3413l7 1c-4,-5 -6,-4 -7,-1z"/>
  <polygon class="fil0" points="4812,3377 4800,3375 4814,3378 "/>
  <polygon class="fil0" points="4831,3445 4825,3447 4836,3444 "/>
  <path class="fil0" d="M4844 3458c-6,3 -4,12 -8,13 4,3 9,2 15,0 -5,0 -7,-4 -7,-13z"/>
  <path class="fil0" d="M4859 3470c-2,0 -5,1 -8,1 2,1 5,0 8,-1z"/>
  <path class="fil0" d="M4834 3424c-1,2 -3,6 -1,11l3 -9 -2 -2z"/>
  <path class="fil0" d="M4836 3426l0 0c2,3 3,4 4,5 -1,-1 -2,-2 -4,-5z"/>
  <path class="fil0" d="M4834 3424l0 0c1,-1 1,-1 0,0z"/>
  <path class="fil0" d="M4820 3395c5,0 14,2 12,-9 -5,2 -4,8 -12,9z"/>
  <path class="fil0" d="M4838 3413l-4 -7c-1,2 -2,6 -5,6l9 1z"/>
  <polygon class="fil0" points="4842,3413 4838,3413 4839,3415 "/>
  <path class="fil0" d="M4856 3453c4,-1 7,1 10,3 -2,-4 -4,-8 -7,-11 -2,2 -7,5 -3,8z"/>
  <path class="fil0" d="M4847 3439l0 0c1,-1 0,-1 0,0z"/>
  <polygon class="fil0" points="4895,3483 4895,3480 4894,3482 "/>
  <path class="fil0" d="M4859 3443c-1,-4 -3,-3 -6,-2 2,1 4,2 6,4 1,-1 1,-2 0,-2z"/>
  <path class="fil0" d="M4870 3474c0,-3 -1,-6 -1,-9 -1,4 -1,11 1,9z"/>
  <path class="fil0" d="M4847 3442l-1 0c0,2 0,2 1,0z"/>
  <path class="fil0" d="M4847 3442c1,0 4,-1 6,-1 -2,-1 -4,-2 -6,-2 0,1 0,2 0,3z"/>
  <path class="fil0" d="M4941 3427c-6,9 -17,13 -17,0 -9,3 -23,33 -29,53 3,-3 5,-7 14,-7 1,-7 -6,-21 4,-26 10,1 4,8 5,15 3,-13 19,-9 28,-28l-11 2c2,-2 7,-5 6,-9z"/>
  <path class="fil0" d="M4885 3470l-2 -1c1,4 1,9 0,19 6,-1 9,-3 11,-6l-10 -11 1 -1z"/>
  <path class="fil0" d="M4873 3460c7,-7 15,-6 18,-18 -7,-5 -10,3 -16,4 12,7 -6,2 -2,13 -3,0 -5,-2 -7,-3 1,3 2,6 3,9l0 -1 0 0 0 0c0,-1 1,-2 1,-1l0 0c1,-1 2,-2 3,-3 1,5 -1,3 -3,3l-1 1 0 0 14 5c-2,-3 -5,-5 -10,-9z"/>
  <path class="fil0" d="M4848 3378c0,1 -1,1 -1,2 1,0 2,-1 1,-2z"/>
  <path class="fil0" d="M4849 3385c-1,1 -4,3 -6,0 -1,-4 2,-3 4,-5 -3,1 -9,0 -6,7l1 0c2,5 2,18 0,18 3,-7 6,-12 7,-20z"/>
  <path class="fil0" d="M4863 3419l11 4 0 -10 -2 4c-4,-6 -6,0 -9,2z"/>
  <polygon class="fil0" points="4893,3488 4885,3497 4899,3488 "/>
  <polygon class="fil0" points="4905,3497 4899,3506 4906,3503 "/>
  <path class="fil0" d="M5698 3425l2 -6c-1,2 -1,4 -2,6z"/>
  <path class="fil0" d="M5676 3427l1 9c0,-5 0,-9 -1,-9z"/>
  <path class="fil0" d="M5251 3664c2,17 4,44 7,24l1 -19c-4,2 -7,-1 -8,-5z"/>
  <path class="fil0" d="M5506 3559l-2 -7c0,8 -1,14 -2,21 2,-5 3,-9 4,-14z"/>
  <path class="fil0" d="M5504 3471l6 13c-1,-4 -3,-9 -6,-13z"/>
  <path class="fil0" d="M5813 3386l-1 -19c-5,0 0,10 1,19z"/>
  <path class="fil0" d="M5040 3582c2,7 4,12 7,14 -2,-11 -1,-26 -7,-14z"/>
  <path class="fil0" d="M5728 3643c2,-5 2,-9 1,-13 -1,4 -2,8 -1,13z"/>
  <path class="fil0" d="M5058 3602c0,-2 0,-3 -1,-5 -3,1 -7,2 -10,-1 1,8 3,14 11,6z"/>
  <path class="fil0" d="M6254 3311c1,0 1,1 2,1 -1,-1 -1,-1 -2,-1z"/>
  <path class="fil0" d="M6398 3294c-2,1 -3,2 -4,4 0,-1 2,-2 4,-4z"/>
  <path class="fil0" d="M4952 3541c-3,-1 -1,1 0,0z"/>
  <path class="fil0" d="M4963 3486c2,-1 3,-3 4,-5 -1,2 -3,4 -4,5z"/>
  <path class="fil0" d="M5121 3517l0 0c0,-4 0,-3 0,0z"/>
  <path class="fil0" d="M4951 3533c0,2 1,4 1,6 0,-1 0,-3 -1,-6z"/>
  <path class="fil0" d="M4949 3539c-1,-1 -2,-2 -2,-3 -2,2 -2,3 2,3z"/>
  <path class="fil0" d="M4956 3543c-1,0 -3,-2 -4,-4 1,1 0,2 0,2 1,1 2,1 4,2z"/>
  <path class="fil0" d="M6033 3405c0,0 0,0 1,1 1,-7 0,-6 -1,-1z"/>
  <polygon class="fil0" points="5353,3469 5353,3470 5353,3471 "/>
  <path class="fil0" d="M5364 3454c-6,25 -8,22 -11,17l-1 58 12 -75z"/>
  <path class="fil0" d="M5750 3412l-11 -17c3,-31 11,-21 -1,-45 12,62 -26,9 -15,72l-7 -13c1,1 1,-3 2,-3 -15,-29 2,47 -11,40 -5,-4 -10,-13 -9,-21l-6 17c-3,-1 -4,-12 -1,-11l-13 7 -1 -2c0,11 -2,27 -3,34 -5,-9 1,-7 -2,-15l-5 17c-6,-17 -2,-34 4,-32 -18,-63 -4,17 -26,-19l6 -9c-11,-36 -14,-22 -26,-44 4,12 26,56 20,73 -3,-5 -7,-7 -9,7 -4,-23 -8,-17 -13,-15l-4 -31c-5,10 -2,26 -3,40 -8,-2 -12,-26 -17,-46 -11,-3 13,38 1,45 -10,-11 -15,3 -23,23 -8,-10 -2,-19 -5,-28l-3 26c-1,-1 -1,-8 -2,-12 -3,10 4,31 -3,40 2,34 -20,-49 -25,-10 -3,-8 -1,-19 -2,-31 -10,27 -9,20 -16,55l-11 -20c8,23 2,51 -4,75 3,11 6,20 8,25l-12 18c-1,-5 -1,-16 0,-29 0,2 -1,5 -1,7 -5,-11 -4,-29 -2,-46 2,6 4,12 5,18 2,-19 3,-40 2,-58 -1,4 -2,7 -4,9 1,-5 1,-10 1,-13 -1,-3 -2,4 -3,12l-5 -35 0 14 -15 -20c-9,36 -17,87 -35,101 4,-25 0,-41 0,-71 5,31 13,-14 22,-7 -5,-4 -4,-18 -3,-23l-15 29c0,-24 -3,-18 -7,-28 3,48 -12,32 -18,47 0,-16 1,-33 9,-29 -8,-36 -12,56 -20,26 2,-1 3,2 4,-6 -5,14 -16,3 -13,-11l2 0c-12,-5 -37,0 -42,39 1,-5 5,-48 6,-56 0,0 -8,33 -16,66 -8,33 -17,65 -17,65 5,-33 4,-114 16,-133 -3,-5 -6,-11 -13,1 2,5 1,49 -2,52 -5,-38 -4,-21 -10,-53 2,7 -7,60 -11,58 1,-8 5,-52 7,-57l-18 50c4,-9 6,-43 5,-57 0,10 -10,-2 -14,3l4 12c-12,-8 -24,69 -37,64 3,-10 14,-62 8,-69 -7,25 -35,118 -52,134l0 -15 -13 14c15,-36 47,-111 59,-140 -2,-12 2,-17 -5,-17 -1,-13 7,-20 9,-20l-15 -10c-4,29 -18,28 -23,51l25 -28c-4,30 -27,81 -39,73 -1,-11 13,-49 15,-59 -4,10 -16,17 -15,10l8 -14c-4,-11 -19,35 -21,7 -3,-2 0,-36 -4,-20 -4,31 -26,128 -36,150 0,-3 -8,-35 -8,-51 2,-24 23,-54 25,-76 -3,8 -8,16 -9,19 -2,-7 7,-22 0,-20 -9,26 -13,-5 -10,21 -8,7 -5,-6 -13,-7 -3,17 -24,56 -33,60 2,-6 3,-15 4,-19 -13,-7 -16,-21 -28,-25 1,-6 -2,-15 4,-25 -3,4 -8,12 -12,11 0,-22 10,-1 13,-27 -5,14 -17,16 -25,23 -7,21 11,8 19,1 -11,29 -32,56 -50,63 -13,2 3,-20 -1,-17 -17,-14 -36,38 -44,10 2,-20 15,-32 19,-45 11,-2 8,16 14,19l-4 -12c5,-4 13,-6 13,1 2,-18 -30,-18 -38,-37 -5,4 -12,7 -13,14l5 0c-2,15 -16,12 -14,21 -10,5 -23,13 -28,1l7 -17c-2,5 0,13 5,10 -7,4 -1,-30 -16,-11l0 14c-10,4 -27,15 -31,5 -5,17 2,-1 -2,20 7,-25 18,16 23,-13 -6,25 5,16 2,40 3,-6 3,-13 8,-5 1,-2 3,-3 4,-4l0 1 0 -1c1,-1 1,-1 0,0 0,-4 0,-8 1,-11 10,-11 19,-3 26,-8 3,5 -5,5 -6,13l11 -8c-6,14 0,29 -13,30l8 6c1,11 6,19 13,15 3,6 17,-9 9,0l17 -1 -2 4c13,10 38,-11 42,25 6,-2 13,-4 19,4l-3 15c7,-2 13,23 21,9 -6,42 27,21 36,33l6 -20c7,4 16,1 28,-4l3 -18c12,-13 18,20 31,21 -2,7 -5,4 -6,-1 7,47 38,-23 46,12 5,-6 7,-3 9,2 0,0 -1,1 -1,1 0,1 1,1 1,1 1,4 3,8 4,12 -1,-6 -2,-10 -3,-12 3,0 7,-1 12,-5l-1 22c0,-1 0,-1 1,-1 3,9 5,-9 5,-26 2,-3 5,-7 7,-12 -2,36 12,-10 11,28 6,-17 23,-10 29,-49 -1,5 0,8 -2,8 4,5 8,10 13,-1l-1 29 13 -37c5,18 7,28 -1,49 17,-32 13,-11 27,-43l-2 18c4,0 13,-24 14,-8 8,35 47,6 73,40 -6,-56 12,26 12,-18 2,13 5,21 2,32 12,-12 20,22 28,-16 2,14 -2,20 -1,28 1,-3 4,-12 6,-4 1,8 -2,11 -4,17 14,-3 13,-44 12,-83 7,18 10,15 13,-10 3,12 8,25 0,30 5,2 30,17 27,-14 2,7 7,1 8,-2 10,1 11,4 20,0l-3 -5c0,-38 7,-9 15,-14l0 4c21,25 6,-14 27,14l-4 -23c-5,-50 19,27 27,7l-5 -13c3,-18 24,65 31,70 2,5 -1,8 -2,11 19,27 -3,-30 7,-39 5,16 4,42 12,43 6,13 13,-55 28,-27 -4,-11 -9,-23 -5,-34 7,-6 29,43 29,2 1,3 2,7 3,10 4,-12 16,-21 16,-43 20,76 28,-44 42,26l17 -8 1 7c13,1 13,-16 13,-34 4,4 4,11 4,15 20,9 21,5 27,-32l7 22c0,-14 32,27 42,-4 0,3 1,7 0,10 12,-29 59,42 45,-34l7 -22c-17,-1 -7,-32 -17,-42 5,-6 22,17 16,23l-2 -3c8,38 22,7 29,32 29,-14 65,-5 92,-17l-12 -24 10 -3c5,5 11,18 3,20 9,13 8,-17 6,-22 17,3 5,31 9,30l5 -5 -2 -2c1,-13 -3,-23 6,-26 7,3 8,14 10,14 1,1 2,2 4,-1l12 -4 -12 -16c2,-11 12,-4 -1,-22 20,28 47,-11 56,-4 2,-15 9,-19 19,-22 -4,-2 -12,-19 -4,-20 12,36 20,8 37,28 -13,-13 19,-17 1,-33 7,-1 5,11 13,16 10,-21 35,-14 50,-30 -1,-4 -6,-7 -5,-14l17 9c2,-4 -6,-20 6,-14 -3,-2 -6,-5 -4,-7 21,-4 36,-21 51,-35 16,-14 34,-25 50,-37 -5,2 -2,-1 1,-4 -3,2 -2,-2 -3,-3 0,1 15,-9 14,-10 1,-4 13,-14 14,-16l-4 4c5,-5 -10,4 -11,0 -5,8 -23,4 -32,14 -3,0 2,-3 -1,-3 -1,3 -4,6 -12,7l0 -1c-19,9 -29,9 -54,12l5 5c-5,1 -7,-1 -10,-2 -1,12 13,-4 14,8 -13,-10 -33,13 -46,-3 -8,2 6,8 -1,11l-4 -5 1 7c-5,1 -11,-5 -13,-9 1,0 2,-2 3,-3 -9,-4 -16,7 -20,5l9 2c-17,11 -46,8 -59,28l4 5c-11,14 -15,-3 -29,7l0 -2c-1,7 -4,11 -8,12 1,-8 -14,-11 -12,-20 -10,16 -3,11 -4,37l-7 -9c0,10 2,15 -5,21 3,-12 -12,-15 -9,-29 -27,-20 -16,31 -38,-3 5,34 22,14 20,22 8,8 3,25 -4,24 -5,1 -24,-38 -38,-35 1,0 1,-2 2,-3 -8,-7 -6,14 -17,2 4,21 -9,0 0,27l10 -9c-5,8 0,42 -17,30 -1,-5 0,-14 1,-18 -6,-7 -5,7 -11,-1 -9,-27 13,-10 13,-32 -8,-10 -7,23 -14,-7 8,39 -15,-2 -14,29l-5 -17c-1,3 -1,12 -4,12l-2 -23c-2,21 -20,-14 -24,-2 15,-3 10,20 21,31 -11,28 -26,-43 -44,-31 2,-3 14,9 12,18 -5,-3 -12,-9 -18,-18 -12,6 8,18 6,31 -12,-22 -4,10 -8,19l-6 -19c-19,-9 8,40 -11,29l-1 -28 -6 8 -4 -22c-4,18 -8,14 -17,9 6,14 9,36 2,38 -8,-11 -3,-19 -12,-14 -1,-13 -3,-29 7,-12 -1,-6 -2,-13 -3,-19 -9,-13 -14,-1 -17,0 2,0 3,1 5,4l-7 30c-4,-7 -4,-13 -4,-20 -2,3 -1,13 -5,15 -3,-16 -8,-33 -4,-42l-9 21c-3,-8 -12,-19 -12,-26 -9,-8 -10,36 -23,24 0,4 0,7 -1,10 -11,-3 -24,-23 -29,3l-14 -31c-7,9 18,38 6,53 -8,12 -10,-27 -15,-35 -2,17 -4,52 -19,27 2,-7 5,-3 8,-5zm-105 29l0 0c1,-5 3,-20 7,-7 2,27 -2,15 -7,7zm-158 74l0 0c1,-8 4,-4 7,4 -2,2 -4,2 -7,-4zm-499 35l0 0c0,0 0,0 1,-1 1,9 1,6 -1,1zm-7 -12l0 0c-1,1 -2,3 -3,5 3,-3 5,-2 7,1 1,-4 1,-8 -4,-6zm1121 -36l0 0 -3 -4c2,-6 3,-2 3,4z"/>
  <path class="fil0" d="M5504 3481c1,4 1,9 2,13 0,-4 0,-9 -2,-13z"/>
  <polygon class="fil0" points="5814,3390 5814,3390 5813,3386 "/>
  <path class="fil0" d="M5181 3453c1,3 1,7 1,10 1,-4 1,-8 -1,-10z"/>
  <path class="fil0" d="M4922 3526l7 1c-3,-2 -2,-5 -3,-8 -1,3 -2,8 -4,7z"/>
  <path class="fil0" d="M4915 3421c-2,1 -2,-1 -4,0l-2 4c3,2 8,0 6,-4z"/>
  <path class="fil0" d="M4939 3481c5,-10 0,-9 -5,-10l0 1c-9,13 -2,11 5,9z"/>
  <path class="fil0" d="M4933 3471c-2,0 -3,-1 -4,-2 -4,5 1,2 4,2z"/>
  <path class="fil0" d="M4966 3538c-1,-4 -9,14 -8,9 -9,13 23,-9 8,-9z"/>
  <polygon class="fil0" points="4954,3446 4949,3459 4957,3451 "/>
  <path class="fil0" d="M4981 3474l-4 -8c-2,2 -3,3 -5,4 4,2 7,8 9,4z"/>
  <path class="fil0" d="M4972 3470c-2,-2 -4,-3 -6,-1 1,0 4,1 6,1z"/>
  <polygon class="fil0" points="4965,3447 4966,3451 4970,3454 "/>
  <path class="fil0" d="M5051 3512l10 -2c3,-6 2,-10 -1,-9 -4,4 -8,5 -9,11z"/>
  <path class="fil0" d="M5048 3458c0,4 -1,8 -2,13l9 -19 -7 6z"/>
  <path class="fil0" d="M5071 3462c3,-6 17,-14 7,-15 -3,6 -12,8 -7,15z"/>
  <polygon class="fil0" points="5174,3523 5172,3523 5161,3563 "/>
  <path class="fil0" d="M5293 3435c-7,-11 -6,28 -12,14 -4,10 5,11 1,20 7,-10 9,-4 11,-34z"/>
  <path class="fil0" d="M5282 3469c-1,2 -2,4 -4,7 2,-3 3,-5 4,-7z"/>
  <polygon class="fil0" points="6414,3278 6418,3273 6415,3276 "/>
  <path class="fil0" d="M6421 3267l1 -1 2 -3c0,1 0,1 -3,4z"/>
  <path class="fil0" d="M5620 3381l0 7c2,8 4,9 7,10l-7 -17z"/>
  <polygon class="fil0" points="5700,3394 5699,3394 5706,3421 "/>
  <path class="fil0" d="M5757 3352c-2,-1 -4,5 -7,4 5,-5 15,28 7,-4z"/>
  <path class="fil0" d="M4645 4942l1 0c-2,-2 -1,0 -1,0z"/>
  <polygon class="fil0" points="4625,4926 4625,4926 4622,4925 "/>
  <path class="fil0" d="M4606 4911c-1,6 7,5 10,9l0 1 3 -2c-4,-3 -11,-4 -13,-8z"/>
  <path class="fil0" d="M4601 4892c-1,2 -3,-1 2,3 0,-1 0,-1 0,-1 -1,-1 -1,-1 -2,-2z"/>
  <path class="fil0" d="M4603 4894c1,1 -1,-4 0,0z"/>
  <path class="fil0" d="M4593 4886l4 0c0,-2 -2,-4 -1,-5 -3,-1 -3,1 -3,5z"/>
  <path class="fil0" d="M4589 4889l1 0c0,-1 0,-2 -1,0z"/>
  <path class="fil0" d="M4594 4889l-4 0c0,1 -1,3 2,0 -1,2 0,1 2,0z"/>
  <path class="fil0" d="M4595 4892c1,3 3,5 -1,5 6,3 6,-1 1,-5z"/>
  <path class="fil0" d="M4602 4916l2 2 2 0c-1,0 -3,-4 -4,-2z"/>
  <path class="fil0" d="M4578 4867c-1,2 -1,6 -1,8l2 0c0,-2 -2,-5 -1,-8z"/>
  <path class="fil0" d="M4577 4875l-5 1c3,2 4,1 5,-1z"/>
  <polygon class="fil0" points="4585,4896 4592,4894 4584,4895 "/>
  <polygon class="fil0" points="4566,4858 4570,4855 4564,4859 "/>
  <path class="fil0" d="M4558 4853c3,-3 1,-8 3,-10 -2,-1 -6,1 -8,3 2,0 4,2 5,7z"/>
  <path class="fil0" d="M4548 4849c1,-1 3,-2 5,-3 -2,0 -3,1 -5,3z"/>
  <path class="fil0" d="M4567 4871c0,-1 1,-4 0,-7l-1 6 1 1z"/>
  <path class="fil0" d="M4566 4871l0 -1c-1,-1 -2,-1 -3,-2 1,1 1,1 3,3z"/>
  <path class="fil0" d="M4567 4872l0 -1c0,1 0,1 0,1z"/>
  <path class="fil0" d="M4578 4886c-2,1 -7,2 -5,8 2,-2 1,-6 5,-8z"/>
  <path class="fil0" d="M4567 4879l3 3c0,-1 0,-4 2,-4l-5 1z"/>
  <polygon class="fil0" points="4564,4880 4567,4879 4565,4878 "/>
  <path class="fil0" d="M4552 4859c-3,1 -4,0 -6,0 1,2 3,4 5,5 1,-2 3,-4 1,-5z"/>
  <path class="fil0" d="M4559 4865l-1 0c0,1 0,1 1,0z"/>
  <polygon class="fil0" points="4527,4847 4527,4849 4528,4848 "/>
  <path class="fil0" d="M4551 4865c1,3 2,2 4,0 -1,0 -3,0 -4,-1 0,1 -1,1 0,1z"/>
  <path class="fil0" d="M4542 4848c0,2 1,4 1,5 0,-2 0,-6 -1,-5z"/>
  <path class="fil0" d="M4558 4863l0 0c0,-1 0,-1 0,0z"/>
  <path class="fil0" d="M4558 4863c-1,0 -2,2 -3,2 1,1 2,0 3,0 0,0 0,-1 0,-2z"/>
  <path class="fil0" d="M4507 4891c2,-7 8,-11 10,-3 5,-4 9,-25 10,-39 -1,3 -2,5 -7,7 1,5 6,12 1,17 -6,1 -3,-4 -5,-9 0,9 -9,10 -12,23l5 -3c0,2 -3,5 -2,7z"/>
  <path class="fil0" d="M4534 4853l1 0c-1,-2 -1,-5 -2,-11 -3,1 -5,4 -5,6l6 5 0 0z"/>
  <path class="fil0" d="M4542 4857c-4,6 -8,7 -8,15 4,2 4,-4 8,-5 -7,-2 3,-3 -1,-9 2,0 3,0 5,1 -1,-2 -2,-4 -3,-6l0 1 0 0 0 0c0,1 0,2 0,1l0 0 -1 2c-2,-2 0,-2 1,-2l0 -1 0 0 -8 -1c1,2 3,3 7,4z"/>
  <path class="fil0" d="M4565 4902c0,0 0,-1 0,-1 0,1 -1,1 0,1z"/>
  <path class="fil0" d="M4563 4898c1,0 2,-2 4,-1 1,2 -1,2 -2,4 2,-1 5,-2 3,-6l-1 1c-2,-3 -3,-11 -2,-11 -1,5 -2,8 -2,13z"/>
  <path class="fil0" d="M4552 4881l-7 0 1 6 1 -3c3,3 3,-1 5,-3z"/>
  <polygon class="fil0" points="4528,4843 4531,4836 4524,4845 "/>
  <polygon class="fil0" points="4520,4840 4522,4833 4519,4836 "/>
  <path class="fil0" d="M4124 5012l0 3c0,-1 0,-2 0,-3z"/>
  <path class="fil0" d="M4134 5007l-3 -6c1,4 2,6 3,6z"/>
  <path class="fil0" d="M4308 4787c-4,-11 -10,-28 -8,-15l2 13c2,-2 4,-1 6,2z"/>
  <path class="fil0" d="M4187 4895l2 4c-1,-5 -2,-9 -3,-13 0,3 0,6 1,9z"/>
  <path class="fil0" d="M4207 4950l-6 -8c2,3 4,5 6,8z"/>
  <path class="fil0" d="M4078 5058l7 11c3,-1 -3,-6 -7,-11z"/>
  <path class="fil0" d="M4437 4808c-2,-5 -4,-8 -5,-9 2,7 2,17 5,9z"/>
  <path class="fil0" d="M4046 4888c0,3 1,5 3,8 0,-3 -1,-5 -3,-8z"/>
  <path class="fil0" d="M4424 4798c1,1 1,2 1,3 2,-2 4,-3 7,-2 -2,-5 -4,-8 -8,-1z"/>
  <path class="fil0" d="M3864 5194l-1 0c0,0 1,0 1,0z"/>
  <path class="fil0" d="M3785 5222c1,-1 1,-2 1,-3 0,1 0,2 -1,3z"/>
  <path class="fil0" d="M4490 4820c1,1 0,-1 0,0z"/>
  <path class="fil0" d="M4489 4857c-1,1 -1,2 -2,4 1,-2 1,-3 2,-4z"/>
  <path class="fil0" d="M4399 4863l0 0c0,3 0,2 0,0z"/>
  <path class="fil0" d="M4491 4825c0,-1 -1,-2 -1,-3 0,1 0,2 1,3z"/>
  <path class="fil0" d="M4492 4821c0,1 1,1 1,2 1,-2 1,-3 -1,-2z"/>
  <path class="fil0" d="M4487 4820c1,0 2,1 3,2 -1,-1 0,-2 0,-2 -1,0 -2,0 -3,0z"/>
  <path class="fil0" d="M3959 5096c-1,-1 -1,-1 -1,-1 2,4 2,3 1,1z"/>
  <polygon class="fil0" points="4283,4929 4283,4928 4283,4927 "/>
  <path class="fil0" d="M4280 4940c-1,-17 1,-16 3,-13l-9 -37 6 50z"/>
  <path class="fil0" d="M4102 5030l11 8c8,19 1,15 14,26 -25,-34 10,-10 -15,-45l8 6c-1,0 0,2 -1,2 16,14 -15,-27 -6,-26 4,1 9,6 11,11l-2 -12c1,0 5,7 4,7l4 -7 1 1c-3,-6 -7,-16 -8,-20 5,4 2,4 5,8l-2 -11c7,9 10,20 7,20 27,35 -3,-11 18,7l-1 6c16,20 13,11 25,22 -5,-6 -28,-29 -30,-40 3,2 5,2 3,-6 8,13 8,9 10,6l10 18c0,-6 -6,-15 -9,-24 4,0 13,13 20,25 6,0 -16,-21 -12,-28 8,5 7,-3 6,-17 6,5 5,12 9,17l-5 -16c1,0 3,4 4,7 -1,-7 -9,-19 -8,-26 -9,-21 21,27 14,1 4,5 5,12 9,19 -1,-18 0,-13 -5,-37l10 10c-9,-12 -13,-32 -14,-47 -5,-6 -8,-12 -10,-15l2 -12c2,3 4,9 7,18l-1 -5c5,6 8,18 11,29 -2,-4 -5,-7 -7,-11 3,12 7,25 12,37 0,-3 0,-5 0,-6 1,3 2,6 3,8 1,2 0,-3 -1,-8l10 21 -4 -9 13 11c-3,-23 -10,-57 -3,-69 2,16 8,26 14,45 -9,-19 -4,11 -10,8 3,1 6,11 7,14l1 -21c5,15 5,11 9,17 -11,-30 0,-23 0,-34 3,11 6,21 1,20 11,22 -5,-38 5,-20 -1,1 -2,-1 -1,5 0,-10 8,-4 9,5l-1 0c7,3 19,-4 15,-30 0,3 5,31 6,37 0,0 -1,-23 -3,-46 -1,-22 -2,-45 -2,-45 3,23 17,75 14,89 2,3 5,6 6,-3 -1,-3 -8,-31 -7,-34 9,24 5,13 14,33 -3,-5 -7,-40 -4,-39 1,5 6,34 5,38l2 -36c-1,7 3,29 6,38 -1,-6 5,0 7,-3l-4 -8c7,4 2,-48 10,-47 0,7 2,43 6,47 0,-18 1,-83 9,-95l2 9 5 -11c-3,26 -10,79 -13,100 4,7 2,11 6,10 1,9 -2,14 -3,15l9 4c-1,-20 6,-21 5,-37l-9 22c-1,-20 4,-56 11,-53 2,7 -1,34 0,40 0,-6 6,-13 6,-9l-2 11c3,7 6,-26 10,-8 2,1 4,24 4,13 -1,-21 -1,-88 2,-103 0,1 9,21 10,32 2,16 -6,38 -4,52 0,-5 2,-11 3,-13 1,5 -2,16 2,13 2,-18 7,2 3,-15 3,-5 3,4 7,3 0,-12 7,-39 12,-44 -1,5 0,11 0,13 7,3 11,11 18,11 0,4 3,9 0,16 2,-3 3,-8 6,-8 2,15 -6,1 -5,19 2,-10 8,-13 12,-18 1,-14 -7,-4 -11,2 3,-21 12,-41 21,-48 7,-3 0,13 2,11 11,6 16,-30 23,-13 2,12 -4,23 -5,31 -6,4 -6,-9 -10,-9l3 6c-2,4 -6,6 -7,2 1,12 18,7 25,18 2,-4 6,-7 6,-12l-3 1c-1,-9 8,-10 5,-16 6,-5 12,-12 16,-6l-2 12c1,-3 -1,-8 -4,-5 4,-4 4,18 10,4l-1 -9c5,-5 13,-14 17,-8 1,-12 -2,1 -1,-14 -2,17 -12,-7 -12,12 1,-16 -4,-8 -5,-24 -1,4 0,8 -4,5 -1,1 -1,2 -2,3l0 -1 0 1c0,0 0,1 0,0 1,2 1,5 1,7 -5,8 -11,6 -14,10 -2,-3 2,-4 2,-9l-5 6c2,-9 -3,-18 4,-21l-5 -3c-2,-6 -6,-10 -9,-7 -2,-3 -9,8 -5,1l-9 4 0 -3c-8,-4 -19,11 -26,-10 -3,2 -6,5 -11,0l0 -10c-4,3 -10,-12 -12,-2 -2,-28 -19,-10 -25,-16l-1 13c-4,-1 -9,2 -15,7l0 12c-4,9 -12,-9 -20,-9 1,-5 3,-3 4,0 -10,-30 -19,21 -28,-1 -2,5 -3,3 -5,0 0,0 0,0 0,-1 0,0 0,0 -1,0 -1,-2 -2,-5 -3,-7 1,3 2,6 3,7 -2,1 -4,2 -6,6l-3 -15c0,0 0,0 0,1 -3,-6 -1,6 1,17 -1,3 -2,5 -2,9 -5,-23 -5,8 -11,-17 0,12 -11,11 -8,36 -1,-3 -2,-4 0,-5 -3,-2 -6,-5 -7,3l-5 -19 -1 26c-5,-10 -8,-17 -7,-32 -4,24 -6,10 -8,33l-2 -12c-2,1 -3,18 -6,8 -12,-23 -28,2 -48,-14 14,34 -12,-14 -4,14 -3,-9 -7,-13 -7,-21 -4,11 -16,-9 -12,15 -4,-8 -3,-12 -6,-17 0,2 0,8 -2,3 -3,-4 -2,-7 -2,-11 -7,4 2,30 11,54 -8,-10 -9,-8 -5,9 -5,-8 -10,-15 -7,-20 -3,0 -19,-4 -11,15 -3,-5 -4,0 -4,2 -5,2 -7,0 -11,5l3 2c9,24 -2,7 -4,12l-1 -3c-18,-11 0,10 -19,-4l8 14c15,30 -18,-14 -17,1l6 6c4,12 -30,-34 -35,-36 -2,-2 -1,-5 -1,-7 -18,-12 9,18 6,26 -7,-9 -13,-25 -18,-24 -7,-7 8,37 -8,22 5,7 11,13 12,20 -2,5 -28,-19 -17,5 -2,-2 -3,-3 -4,-5 1,7 -3,16 4,29 -33,-41 -2,33 -30,-6l-7 9 -3 -4c-7,2 -2,13 3,23 -3,-2 -5,-6 -6,-8 -14,-1 -13,1 -4,25l-11 -11c4,8 -25,-8 -20,12 -1,-2 -3,-4 -4,-6 3,20 -44,-11 -13,30l4 14c9,-3 14,17 22,21 -1,4 -17,-5 -16,-10l3 1c-17,-20 -14,2 -26,-11 -11,14 -32,17 -43,29l14 12 -4 3c-4,-1 -11,-8 -8,-11 -9,-5 1,12 4,14 -10,2 -13,-16 -14,-15l-1 4 1 1c4,7 9,12 5,16 -4,0 -8,-7 -9,-6 -1,-1 -2,-1 -2,1l-5 5 11 7c2,7 -5,5 8,12 -19,-12 -23,16 -29,13 3,10 0,13 -4,17 3,0 12,8 8,11 -17,-19 -13,-1 -28,-10 11,5 -5,13 9,20 -3,1 -6,-6 -12,-7 1,13 -15,13 -19,25 2,2 6,3 7,8l-12 -3c0,2 9,10 1,9 1,0 4,1 3,3 -10,6 -14,17 -20,28 -5,10 -13,19 -20,27 2,-2 1,0 0,2 1,-1 2,2 2,2l-6 7c0,3 -5,9 -5,11l2 -3c-2,4 5,-3 6,-1 1,-4 13,-4 16,-11 2,0 0,2 1,2 0,-2 2,-4 6,-6l0 1c9,-7 16,-9 29,-14l-4 -2c3,-2 4,-1 6,-1 -2,-7 -7,4 -10,-2 10,4 16,-13 27,-6 4,-2 -5,-3 -2,-6l4 2 -3 -4c3,-1 8,1 10,3 -1,1 -1,2 -1,3 6,1 8,-7 10,-7l-6 1c7,-10 25,-13 26,-27l-3 -2c1,-11 8,-2 14,-10l0 1c-1,-4 -1,-7 1,-9 2,5 11,4 12,10 2,-12 -1,-7 -8,-23l7 4c-4,-6 -6,-8 -4,-13 2,7 11,6 14,15 20,6 -1,-21 21,-6 -13,-19 -16,-4 -17,-9 -7,-3 -10,-14 -6,-14 3,-2 25,17 31,12 0,0 1,1 0,2 7,2 -1,-10 9,-5 -9,-12 4,-2 -9,-16l-2 8c0,-6 -13,-25 -1,-22 3,4 5,9 6,12 5,2 0,-6 6,-3 13,14 -4,9 3,22 7,4 -3,-15 9,1 -16,-21 9,-2 -1,-20l8 9c-1,-2 -3,-7 -2,-8l9 13c-6,-12 15,3 13,-4 -7,5 -12,-10 -21,-14 -3,-18 27,19 33,9 0,2 -10,-2 -12,-8 3,0 9,2 15,6 4,-6 -10,-8 -13,-16 13,10 -1,-7 -2,-13l9 10c13,1 -16,-22 -3,-19l10 15 0 -6 9 12c-4,-11 -1,-10 6,-9 -7,-7 -16,-19 -13,-21 7,4 7,10 10,5 5,8 11,16 1,8l7 11c9,5 7,-2 9,-4 -1,0 -2,0 -4,-1l-6 -19c4,3 6,7 8,11 0,-2 -3,-8 -2,-10 7,9 15,18 16,24l-2 -14c3,3 12,8 14,12 8,3 -6,-23 4,-19 -1,-2 -2,-4 -2,-6 5,-1 18,8 13,-8l16 15c1,-6 -20,-19 -19,-29 1,-9 13,13 19,17 -5,-10 -14,-31 1,-19 1,4 -2,2 -3,4zm43 -37l0 0c1,3 4,12 -1,5 -8,-16 -3,-9 1,-5zm61 -73l0 0c1,5 -1,3 -4,-2 0,-1 1,-1 4,2zm263 -99l0 0 -1 0c-2,-5 -1,-3 1,0zm4 6l0 0c1,-1 2,-2 2,-4 -1,3 -3,2 -4,1 0,3 0,5 2,3zm-581 227l0 0 3 2c1,4 -1,1 -3,-2z"/>
  <path class="fil0" d="M4205 4943c-1,-2 -3,-5 -4,-7 1,2 2,5 4,7z"/>
  <polygon class="fil0" points="4077,5056 4077,5056 4078,5058 "/>
  <path class="fil0" d="M4374 4913c-1,-2 -2,-4 -2,-7 0,4 0,6 2,7z"/>
  <path class="fil0" d="M4508 4824l-4 1c2,0 2,2 3,4 0,-2 0,-5 1,-5z"/>
  <path class="fil0" d="M4522 4890c1,-1 1,0 2,-1l1 -3c-2,-1 -4,2 -3,4z"/>
  <path class="fil0" d="M4503 4855c-2,8 1,6 4,6l-1 0c4,-10 1,-8 -3,-6z"/>
  <path class="fil0" d="M4508 4861c0,0 1,0 2,1 1,-4 -1,-1 -2,-1z"/>
  <path class="fil0" d="M4482 4825c1,2 4,-11 3,-7 4,-10 -11,10 -3,7z"/>
  <polygon class="fil0" points="4498,4881 4500,4871 4496,4878 "/>
  <path class="fil0" d="M4480 4868l4 4c0,-2 1,-2 2,-3 -3,-1 -5,-4 -6,-1z"/>
  <path class="fil0" d="M4486 4869c1,0 2,1 3,-1 -1,0 -2,0 -3,1z"/>
  <polygon class="fil0" points="4492,4882 4491,4879 4489,4878 "/>
  <path class="fil0" d="M4437 4855l-5 3c-1,4 0,6 2,5 2,-2 3,-3 3,-8z"/>
  <path class="fil0" d="M4445 4889c-1,-2 -1,-5 -1,-8l-2 14 3 -6z"/>
  <path class="fil0" d="M4432 4891c-1,4 -8,11 -3,10 1,-4 6,-6 3,-10z"/>
  <polygon class="fil0" points="4369,4867 4370,4866 4371,4839 "/>
  <path class="fil0" d="M4318 4942c5,6 0,-19 4,-11 1,-7 -4,-7 -3,-13 -2,8 -4,4 -1,24z"/>
  <path class="fil0" d="M4319 4918c0,-1 1,-3 1,-5 -1,2 -1,4 -1,5z"/>
  <polygon class="fil0" points="3778,5233 3777,5237 3778,5235 "/>
  <path class="fil0" d="M3776 5240l-1 1 -1 2c1,-1 0,0 2,-3z"/>
  <path class="fil0" d="M4174 5025l-2 -5c-4,-4 -4,-4 -6,-4l8 9z"/>
  <polygon class="fil0" points="4132,5030 4133,5030 4121,5016 "/>
  <path class="fil0" d="M4117 5067c2,0 1,-4 2,-4 0,4 -16,-14 -2,4z"/>
 </g>
</svg>
