<?xml version="1.0" encoding="UTF-8"?>
<!DOCTYPE svg PUBLIC "-//W3C//DTD SVG 1.1//EN" "http://www.w3.org/Graphics/SVG/1.1/DTD/svg11.dtd">
<!-- Creator: CorelDRAW X7 -->
<svg xmlns="http://www.w3.org/2000/svg" xml:space="preserve" width="1.98614in" height="1.82558in" version="1.1" style="shape-rendering:geometricPrecision; text-rendering:geometricPrecision; image-rendering:optimizeQuality; fill-rule:evenodd; clip-rule:evenodd"
viewBox="0 0 1142 1050"
 xmlns:xlink="http://www.w3.org/1999/xlink">
 <defs>
  <style type="text/css">
   <![CDATA[
    .fil1 {fill:blue;fill-rule:nonzero}
    .fil4 {fill:#6A6A6A;fill-rule:nonzero}
    .fil0 {fill:#7C7C7D;fill-rule:nonzero}
    .fil3 {fill:#ACACAC;fill-rule:nonzero}
    .fil2 {fill:#BFADAA;fill-rule:nonzero}
   ]]>
  </style>
 </defs>
 <g id="Vector_x0020_Graphics">
  <metadata id="CorelCorpID_0Corel-Layer"/>
  <path class="fil0" d="M410 934c-3,0 -6,3 -6,6 0,4 3,6 6,6 4,0 7,-2 7,-6 0,-3 -3,-6 -7,-6z"/>
  <path class="fil1" d="M110 101c0,0 -28,293 -6,674 0,0 396,29 925,3l3 -2 0 -3c0,0 27,-333 -1,-666 0,0 -348,-36 -921,-6z"/>
  <path class="fil0" d="M42 942l1 54c0,0 0,1 0,2 0,0 0,1 1,2 1,2 2,4 6,5l0 1 0 -1c0,0 13,2 37,6 24,4 59,8 105,13 90,10 219,19 375,19 147,0 318,-8 502,-34l0 0 0 0c0,0 1,0 2,0 3,1 7,0 10,-1 3,-2 5,-4 5,-8 0,-12 3,-41 3,-48 -23,3 -240,33 -518,33 -165,0 -350,-11 -529,-43z"/>
  <path class="fil0" d="M379 933c-4,0 -6,3 -6,6 0,4 2,6 6,6 3,0 6,-2 6,-6 0,-3 -3,-6 -6,-6z"/>
  <path class="fil0" d="M281 928c-4,0 -8,4 -8,8 0,5 4,8 8,8 5,0 9,-3 9,-8 0,-4 -4,-8 -9,-8z"/>
  <path class="fil0" d="M503 936c-3,0 -6,3 -6,6 0,4 3,6 6,6 4,0 7,-2 7,-6 0,-3 -3,-6 -7,-6z"/>
  <path class="fil0" d="M316 931c-3,0 -6,2 -6,6 0,3 3,6 6,6 4,0 6,-3 6,-6 0,-4 -2,-6 -6,-6z"/>
  <path class="fil0" d="M347 933c-4,0 -7,2 -7,6 0,3 3,6 7,6 3,0 6,-3 6,-6 0,-4 -3,-6 -6,-6z"/>
  <path class="fil0" d="M468 936c-3,0 -6,2 -6,6 0,3 3,6 6,6 4,0 6,-3 6,-6 0,-4 -2,-6 -6,-6z"/>
  <path class="fil0" d="M1119 64c0,0 0,-3 -1,-8 -1,-5 -3,-11 -6,-15 -4,-6 -10,-9 -22,-9l0 0 -1 0c0,0 -8,-2 -27,-4 -18,-2 -47,-6 -87,-9 -81,-6 -208,-13 -393,-13 -143,0 -321,4 -539,15 -1,0 -2,0 -3,1 -2,0 -4,1 -7,3 -5,3 -10,7 -10,14 0,0 -1,15 -3,43 -1,28 -3,68 -5,118 -5,101 -9,243 -9,403 0,96 2,199 6,304 0,0 0,2 0,6 0,3 1,6 3,9 1,1 6,6 12,9 5,3 11,6 13,8 180,32 366,42 531,42 220,0 403,-18 480,-28 25,-3 39,-5 40,-5l0 0c0,0 1,0 4,-1 2,-1 6,-2 9,-5 7,-4 14,-12 15,-27 1,-19 17,-154 17,-393 0,-125 -5,-278 -17,-458zm-870 894l0 0c-106,-12 -214,-32 -214,-32l0 -85c9,3 215,10 215,10l-1 107zm32 -10l0 0c-6,0 -11,-5 -11,-12 0,-6 5,-11 11,-11 7,0 12,5 12,11 0,7 -5,12 -12,12zm-2 -33l0 0 0 -5 8 0 0 5 -8 0zm37 31l0 0c-5,0 -9,-4 -9,-9 0,-5 4,-9 9,-9 5,0 10,4 10,9 0,5 -5,9 -10,9zm-6 -27l0 0 0 -7 42 0 0 7 -42 0zm37 29l0 0c-6,0 -10,-4 -10,-9 0,-5 4,-9 10,-9 5,0 9,4 9,9 0,5 -4,9 -9,9zm32 1l0 0c-5,0 -10,-5 -10,-10 0,-5 5,-9 10,-9 5,0 9,4 9,9 0,5 -4,10 -9,10zm-4 -29l0 0 0 -8 42 0 0 8 -42 0zm35 30l0 0c-5,0 -9,-5 -9,-10 0,-5 4,-9 9,-9 6,0 10,4 10,9 0,5 -4,10 -10,10zm58 1l0 0c-5,0 -9,-4 -9,-9 0,-5 4,-9 9,-9 5,0 10,4 10,9 0,5 -5,9 -10,9zm12 -28l0 0 -26 0 0 -7 26 0 0 7zm23 29l0 0c-5,0 -9,-4 -9,-10 0,-5 4,-9 9,-9 6,0 10,4 10,9 0,6 -4,10 -10,10zm21 -28l0 0 -30 0 0 -7 30 0 0 7zm-428 -141l0 0c-37,-234 -4,-696 -4,-696 -18,113 -17,359 -14,524 2,97 14,165 14,165l-24 15c-18,-251 10,-720 10,-720l14 16c586,-34 956,9 956,9l16 -13c0,0 30,339 2,720l-16 -18c-531,24 -954,-2 -954,-2zm1001 151l0 0c-71,23 -204,27 -204,27l-1 -105c109,0 210,-9 210,-9l-5 87z"/>
  <path class="fil0" d="M1050 785c0,0 5,-36 8,-89 6,-149 13,-448 -10,-600 28,385 2,689 2,689z"/>
  <path class="fil2" d="M1125 64l0 0c0,-2 0,-16 -7,-27 -3,-4 -7,-7 -11,-9 -5,-1 -10,-2 -17,-2 -8,-2 -148,-26 -508,-26 -143,0 -321,4 -540,15l0 0 -1 0c0,0 -5,1 -11,5 -6,3 -13,9 -14,18l0 0 0 0c0,0 -16,243 -16,565 0,96 1,199 5,304 0,0 0,3 1,6 0,4 1,8 3,12 2,2 4,4 6,6 6,4 15,9 20,12l1 54c0,0 0,3 2,6 1,3 5,7 11,8 8,1 212,39 518,39 147,0 318,-9 502,-34 0,0 1,0 2,0 3,0 8,-1 12,-3 5,-2 10,-6 10,-13 0,-7 0,-19 1,-30 1,-7 1,-13 1,-17 3,-1 8,-2 13,-6 7,-5 16,-15 17,-31 1,-19 17,-155 17,-394 0,-125 -4,-278 -17,-458zm-56 945l0 0c-184,26 -355,34 -502,34 -156,0 -285,-9 -375,-19 -46,-5 -81,-9 -105,-13 -24,-4 -37,-6 -37,-6l0 1 0 -1c-4,-1 -5,-3 -6,-5 -1,-1 -1,-2 -1,-2 0,-1 0,-2 0,-2l-1 -54c179,32 364,43 529,43 278,0 495,-30 518,-33 0,7 -3,36 -3,48 0,4 -2,6 -5,8 -3,1 -7,2 -10,1 -1,0 -2,0 -2,0l0 0 0 0zm22 -61l0 0 0 0c-1,0 -15,2 -40,5 -77,10 -260,28 -480,28 -165,0 -351,-10 -531,-42 -2,-2 -8,-5 -13,-8 -6,-3 -11,-8 -12,-9 -2,-3 -3,-6 -3,-9 0,-4 0,-6 0,-6 -4,-105 -6,-208 -6,-304 0,-160 4,-302 9,-403 2,-50 4,-90 5,-118 2,-28 3,-43 3,-43 0,-7 5,-11 10,-14 3,-2 5,-3 7,-3 1,-1 2,-1 3,-1 218,-11 396,-15 539,-15 185,0 312,7 393,13 40,3 69,7 87,9 19,2 27,4 27,4l1 0 0 0c12,0 18,3 22,9 3,4 5,10 6,15 1,5 1,8 1,8 12,180 17,333 17,458 0,239 -16,374 -17,393 -1,15 -8,23 -15,27 -3,3 -7,4 -9,5 -3,1 -4,1 -4,1z"/>
  <path class="fil2" d="M92 87c0,0 -33,462 4,696 0,0 423,26 954,2 0,0 26,-304 -2,-689 0,0 -370,-43 -956,-9zm940 686l0 0 0 3 -3 2c-529,26 -925,-3 -925,-3 -22,-381 6,-674 6,-674 573,-30 921,6 921,6 28,333 1,666 1,666z"/>
  <path class="fil2" d="M281 925c-6,0 -11,5 -11,11 0,7 5,12 11,12 7,0 12,-5 12,-12 0,-6 -5,-11 -12,-11zm0 19l0 0c-4,0 -8,-3 -8,-8 0,-4 4,-8 8,-8 5,0 9,4 9,8 0,5 -4,8 -9,8z"/>
  <path class="fil2" d="M316 928c-5,0 -9,4 -9,9 0,5 4,9 9,9 5,0 10,-4 10,-9 0,-5 -5,-9 -10,-9zm0 15l0 0c-3,0 -6,-3 -6,-6 0,-4 3,-6 6,-6 4,0 6,2 6,6 0,3 -2,6 -6,6z"/>
  <path class="fil2" d="M347 930c-6,0 -10,4 -10,9 0,5 4,9 10,9 5,0 9,-4 9,-9 0,-5 -4,-9 -9,-9zm0 15l0 0c-4,0 -7,-3 -7,-6 0,-4 3,-6 7,-6 3,0 6,2 6,6 0,3 -3,6 -6,6z"/>
  <path class="fil2" d="M379 930c-5,0 -10,4 -10,9 0,5 5,10 10,10 5,0 9,-5 9,-10 0,-5 -4,-9 -9,-9zm0 15l0 0c-4,0 -6,-2 -6,-6 0,-3 2,-6 6,-6 3,0 6,3 6,6 0,4 -3,6 -6,6z"/>
  <path class="fil2" d="M410 931c-5,0 -9,4 -9,9 0,5 4,10 9,10 6,0 10,-5 10,-10 0,-5 -4,-9 -10,-9zm0 15l0 0c-3,0 -6,-2 -6,-6 0,-3 3,-6 6,-6 4,0 7,3 7,6 0,4 -3,6 -7,6z"/>
  <path class="fil2" d="M468 933c-5,0 -9,4 -9,9 0,5 4,9 9,9 5,0 10,-4 10,-9 0,-5 -5,-9 -10,-9zm0 15l0 0c-3,0 -6,-3 -6,-6 0,-4 3,-6 6,-6 4,0 6,2 6,6 0,3 -2,6 -6,6z"/>
  <path class="fil2" d="M503 933c-5,0 -9,4 -9,9 0,6 4,10 9,10 6,0 10,-4 10,-10 0,-5 -4,-9 -10,-9zm0 15l0 0c-3,0 -6,-2 -6,-6 0,-3 3,-6 6,-6 4,0 7,3 7,6 0,4 -3,6 -7,6z"/>
  <path class="fil3" d="M78 71c0,0 -28,469 -10,720l24 -15c0,0 -12,-68 -14,-165 -3,-165 -4,-411 14,-524l-14 -16z"/>
  <path class="fil3" d="M1064 83l-16 13c23,152 16,451 10,600 -3,53 -8,89 -8,89l16 18c28,-381 -2,-720 -2,-720z"/>
  <polygon class="fil3" points="279,915 287,915 287,910 279,910 "/>
  <polygon class="fil3" points="310,919 352,919 352,912 310,912 "/>
  <polygon class="fil3" points="375,920 417,920 417,912 375,912 "/>
  <polygon class="fil3" points="454,923 480,923 480,916 454,916 "/>
  <polygon class="fil3" points="494,924 524,924 524,917 494,917 "/>
  <path class="fil4" d="M893 961c0,0 133,-4 204,-27l5 -87c0,0 -101,9 -210,9l1 105z"/>
  <path class="fil4" d="M35 926c0,0 108,20 214,32l1 -107c0,0 -206,-7 -215,-10l0 85z"/>
 </g>
</svg>
