<?xml version="1.0" encoding="UTF-8"?>
<!DOCTYPE svg PUBLIC "-//W3C//DTD SVG 1.1//EN" "http://www.w3.org/Graphics/SVG/1.1/DTD/svg11.dtd">
<!-- Creator: CorelDRAW X7 -->
<svg xmlns="http://www.w3.org/2000/svg" xml:space="preserve" width="2.4867in" height="2.38048in" version="1.1" style="shape-rendering:geometricPrecision; text-rendering:geometricPrecision; image-rendering:optimizeQuality; fill-rule:evenodd; clip-rule:evenodd"
viewBox="0 0 2335 2235"
 xmlns:xlink="http://www.w3.org/1999/xlink">
 <defs>
  <style type="text/css">
   <![CDATA[
    .fil5 {fill:#ED3437;fill-rule:nonzero}
    .fil4 {fill:#454545;fill-rule:nonzero}
    .fil0 {fill:#7C7C7D;fill-rule:nonzero}
    .fil1 {fill:#ACACAC;fill-rule:nonzero}
    .fil3 {fill:#D7D7D7;fill-rule:nonzero}
    .fil2 {fill:#BFACAA;fill-rule:nonzero}
   ]]>
  </style>
 </defs>
 <g id="Graphics">
  <metadata id="CorelCorpID_0Corel-Layer"/>
  <polygon class="fil0" points="139,2107 55,1880 0,50 80,18 117,43 "/>
  <path class="fil1" d="M196 2094c0,0 -11,108 64,106 75,-2 197,-13 197,-13l0 37 7 11 68 -6 7 -7 0 -40 1250 -81 0 46 13 2 58 -4 0 -9 6 -38 188 -8c0,0 89,0 89,-113 0,-113 -1947,117 -1947,117z"/>
  <path class="fil2" d="M225 2087c0,0 -2,91 42,89l1783 -113c0,0 62,-9 68,-73l-1893 97z"/>
  <path class="fil3" d="M80 18l59 2089 2196 -125 -6 -1982 -2249 18zm419 2033l0 0 25 -17 446 -16 1 12 -7 -250 1330 -77 5 238 -1328 89 -472 21zm-325 -239l0 0 47 -4 10 238 133 -3 20 9 -205 13 -5 -253zm-29 -1741l0 0 2137 -35 12 1638 -2113 118 -36 -1721z"/>
  <path class="fil2" d="M2282 36l-2137 35 36 1721 2113 -118 -12 -1638zm-182 1401l0 0c-11,65 -86,86 -86,86 -707,188 -1549,59 -1549,59 -107,-15 -117,-113 -117,-113 -27,-251 -27,-996 -22,-1119 6,-124 193,-129 193,-129 236,-11 1259,-27 1404,-21 145,5 166,139 166,139 43,300 21,1034 11,1098z"/>
  <path class="fil4" d="M2024 1531c-716,190 -1568,59 -1568,59 -109,-15 -119,-114 -119,-114 -27,-255 -27,-1009 -22,-1133 5,-125 195,-131 195,-131 239,-10 1275,-27 1422,-21 146,5 168,141 168,141 43,304 22,1047 11,1112 -11,65 -87,87 -87,87z"/>
  <polygon class="fil2" points="183,2071 174,1812 221,1808 229,2042 970,2001 964,1780 2294,1703 2299,1941 971,2030 971,2028 971,2028 971,2030 "/>
  <polygon class="fil4" points="2280,1756 2279,1739 988,1813 989,1830 "/>
  <polygon class="fil4" points="2280,1783 2279,1765 988,1839 989,1857 "/>
  <polygon class="fil4" points="2280,1812 2279,1794 988,1868 989,1886 "/>
  <polygon class="fil4" points="2280,1843 2279,1825 988,1899 989,1917 "/>
  <polygon class="fil4" points="2280,1871 2279,1854 988,1927 989,1945 "/>
  <polygon class="fil4" points="2280,1902 2279,1884 988,1958 989,1976 "/>
  <polygon class="fil4" points="2280,1933 2279,1915 988,1989 989,2007 "/>
  <polygon class="fil2" points="914,1790 798,1797 802,1867 918,1859 "/>
  <polygon class="fil2" points="914,1896 798,1903 802,1974 918,1965 "/>
  <polygon class="fil2" points="740,1802 624,1809 628,1878 744,1870 "/>
  <polygon class="fil2" points="740,1908 624,1915 628,1984 744,1977 "/>
  <polygon class="fil2" points="568,1812 453,1817 456,1889 573,1880 "/>
  <polygon class="fil2" points="568,1918 453,1925 456,1995 573,1987 "/>
  <polygon class="fil2" points="390,1822 274,1828 278,1898 394,1890 "/>
  <polygon class="fil2" points="390,1928 274,1935 278,2004 394,1997 "/>
  <polygon class="fil0" points="920,1797 805,1803 808,1874 925,1865 "/>
  <polygon class="fil0" points="920,1903 805,1910 808,1980 925,1972 "/>
  <polygon class="fil0" points="747,1809 631,1815 635,1885 751,1877 "/>
  <polygon class="fil0" points="747,1915 631,1922 635,1991 751,1984 "/>
  <polygon class="fil0" points="575,1818 459,1824 463,1896 580,1887 "/>
  <polygon class="fil0" points="575,1925 459,1932 463,2002 580,1994 "/>
  <polygon class="fil5" points="397,1828 281,1835 285,1905 401,1897 "/>
  <polygon class="fil0" points="397,1935 281,1942 285,2011 401,2004 "/>
 </g>
</svg>
