<?xml version="1.0" encoding="UTF-8"?>
<!DOCTYPE svg PUBLIC "-//W3C//DTD SVG 1.1//EN" "http://www.w3.org/Graphics/SVG/1.1/DTD/svg11.dtd">
<!-- Creator: CorelDRAW X7 -->
<svg xmlns="http://www.w3.org/2000/svg" xml:space="preserve" width="1.84266in" height="1.72606in" version="1.1" style="shape-rendering:geometricPrecision; text-rendering:geometricPrecision; image-rendering:optimizeQuality; fill-rule:evenodd; clip-rule:evenodd"
viewBox="0 0 251 235"
 xmlns:xlink="http://www.w3.org/1999/xlink">
 <defs>
  <style type="text/css">
   <![CDATA[
    .fil0 {fill:#C1B300;fill-rule:nonzero}
    .fil1 {fill:#BFACAA;fill-rule:nonzero}
   ]]>
  </style>
 </defs>
 <g id="__x0023_Layer_x0020_1_x0020_copy">
  <metadata id="CorelCorpID_0Corel-Layer"/>
  <path class="fil0" d="M0 0l0 177 18 0 0 0 0 -1 26 0 -7 38 7 -37 158 0 8 39 9 -1 0 -1 -9 2 -7 -41 29 0 0 0 3 0 13 0 0 -173 1 0 0 174 -14 0 -3 0 0 1 19 0 0 -177 -251 0zm242 168l0 0 -232 0 0 -157 2 0 0 156 230 0 0 1zm-224 -10l0 0 0 -138c0,-1 1,-3 3,-3l168 0c2,0 3,2 3,3l0 139c0,2 -1,3 -3,3l-168 0c-2,0 -3,-2 -3,-4zm214 -5l0 0 -29 0 0 0c0,0 -3,-1 -2,-8l0 0 0 -122c0,-2 0,-5 0,-6 0,-1 1,-3 3,-3l0 0 28 0c2,0 3,2 3,3 0,1 0,4 0,6l0 122 0 0c1,8 -3,8 -3,8zm8 -143l0 0 -3 0 -235 0 0 -6 239 0 3 0 -4 6z"/>
  <path class="fil0" d="M235 23c0,-2 0,-5 0,-6 0,-1 -1,-2 -3,-2l-28 0c-1,0 -3,1 -3,2 0,1 0,4 0,6l0 122 0 0c0,0 0,6 3,6l28 0c3,0 3,-6 3,-6l0 0 0 -122zm-5 123l0 0 -24 0 0 -2 24 0 0 2zm0 -3l0 0 -24 0 0 -1 24 0 0 1zm0 -2l0 0 -24 0 0 -2 24 0 0 2zm0 -3l0 0 -24 0 0 -2 24 0 0 2zm0 -3l0 0 -24 0 0 -1 24 0 0 1zm0 -2l0 0 -24 0 0 -2 24 0 0 2zm0 -3l0 0 -24 0 0 -1 24 0 0 1zm0 -2l0 0 -24 0 0 -2 24 0 0 2zm0 -3l0 0 -24 0 0 -1 24 0 0 1zm0 -2l0 0 -24 0 0 -2 24 0 0 2zm0 -3l0 0 -24 0 0 -1 24 0 0 1zm0 -2l0 0 -24 0 0 -2 24 0 0 2zm0 -3l0 0 -24 0 0 -2 24 0 0 2zm0 -3l0 0 -24 0 0 -1 24 0 0 1zm0 -2l0 0 -24 0 0 -2 24 0 0 2zm0 -3l0 0 -24 0 0 -1 24 0 0 1zm0 -2l0 0 -24 0 0 -2 24 0 0 2zm0 -3l0 0 -24 0 0 -1 24 0 0 1zm0 -2l0 0 -24 0 0 -2 24 0 0 2zm0 -3l0 0 -24 0 0 -1 24 0 0 1zm0 -2l0 0 -24 0 0 -2 24 0 0 2zm0 -3l0 0 -24 0 0 -2 24 0 0 2zm0 -3l0 0 -24 0 0 -1 24 0 0 1zm-12 -49l0 0c4,0 8,4 8,8 0,4 -4,8 -8,8 -4,0 -8,-4 -8,-8 0,-4 4,-8 8,-8zm-1 -12l0 0 0 -1 5 0 0 -1c0,0 0,-1 1,-1 0,0 0,1 0,3 0,1 0,2 0,2 0,0 -2,1 -2,-2l-4 0zm7 0l0 0 0 -1 5 0 0 1 -5 0zm2 43l0 0c0,4 -4,8 -8,8 -4,0 -8,-4 -8,-8 0,-4 4,-8 8,-8 4,0 8,4 8,8zm-15 -43l0 0c0,0 0,0 -1,0 0,0 0,0 0,0 0,0 0,0 0,0 0,0 0,0 0,0 0,0 0,0 0,0 0,0 0,0 0,0 0,0 0,0 0,0 0,0 0,0 0,0 0,0 0,0 0,0 0,1 0,1 0,1 0,0 0,0 0,0 0,0 0,0 0,0 0,0 0,0 0,0 0,0 0,0 0,0 0,0 0,0 0,0 0,0 0,0 0,0 0,0 0,0 0,0 0,0 0,0 0,0 -1,0 -1,0 -2,0 0,0 -1,0 -1,-1 0,-1 0,-1 0,-2 0,0 0,0 0,0 0,0 0,0 0,0 0,0 0,0 0,0 0,0 0,0 0,0 0,0 0,0 0,0 0,0 0,0 0,0 1,0 1,0 1,0 0,0 0,0 0,0 0,0 0,0 0,0 0,0 0,0 0,0 0,0 0,0 0,0 0,0 0,0 0,0 0,0 0,0 0,0 0,0 0,0 0,0 0,0 0,0 0,0 0,0 0,0 0,0 0,0 0,0 0,0 0,0 0,0 0,0 0,-1 1,-1 1,-1 1,0 2,1 2,2 0,0 0,1 0,1zm20 -10l0 0 0 -1 -26 0c0,0 -1,0 -2,4 0,-2 0,-5 2,-5l26 0c2,0 2,3 2,5 0,-3 -1,-3 -2,-3z"/>
  <polygon class="fil0" points="232,181 232,182 216,182 218,188 218,194 227,235 238,232 232,180 "/>
  <path class="fil0" d="M189 161c1,0 2,-2 2,-3l0 -138c0,-1 -1,-2 -2,-2l-168 0c-1,0 -2,1 -2,2l0 138c0,1 1,3 2,3l168 0zm-161 -118l0 0c0,0 0,-10 9,-12 0,0 60,-13 134,0 11,2 11,10 11,10 0,0 6,44 1,88l0 0 0 0c0,1 -1,2 -1,2 0,0 -1,13 -9,15 0,0 -59,12 -133,0 0,0 -10,-1 -12,-14 0,0 -6,-44 0,-89z"/>
  <polygon class="fil0" points="29,216 37,216 37,216 29,216 "/>
  <polygon class="fil0" points="18,181 13,233 23,235 28,212 34,181 "/>
  <path class="fil1" d="M210 48c0,4 4,8 8,8 4,0 8,-4 8,-8 0,-4 -4,-8 -8,-8 -4,0 -8,4 -8,8z"/>
  <path class="fil1" d="M218 63c-4,0 -8,4 -8,8 0,4 4,8 8,8 4,0 8,-4 8,-8 0,-4 -4,-8 -8,-8z"/>
  <polygon class="fil1" points="206,89 230,89 230,88 206,88 "/>
  <polygon class="fil1" points="206,92 230,92 230,90 206,90 "/>
  <polygon class="fil1" points="206,95 230,95 230,93 206,93 "/>
  <polygon class="fil1" points="206,97 230,97 230,96 206,96 "/>
  <polygon class="fil1" points="206,100 230,100 230,98 206,98 "/>
  <polygon class="fil1" points="206,102 230,102 230,101 206,101 "/>
  <polygon class="fil1" points="206,105 230,105 230,103 206,103 "/>
  <polygon class="fil1" points="206,107 230,107 230,106 206,106 "/>
  <polygon class="fil1" points="206,110 230,110 230,108 206,108 "/>
  <polygon class="fil1" points="206,112 230,112 230,111 206,111 "/>
  <polygon class="fil1" points="206,115 230,115 230,113 206,113 "/>
  <polygon class="fil1" points="206,118 230,118 230,116 206,116 "/>
  <polygon class="fil1" points="206,120 230,120 230,119 206,119 "/>
  <polygon class="fil1" points="206,123 230,123 230,121 206,121 "/>
  <polygon class="fil1" points="206,125 230,125 230,124 206,124 "/>
  <polygon class="fil1" points="206,128 230,128 230,126 206,126 "/>
  <polygon class="fil1" points="206,130 230,130 230,129 206,129 "/>
  <polygon class="fil1" points="206,133 230,133 230,131 206,131 "/>
  <polygon class="fil1" points="206,135 230,135 230,134 206,134 "/>
  <polygon class="fil1" points="206,138 230,138 230,136 206,136 "/>
  <polygon class="fil1" points="206,141 230,141 230,139 206,139 "/>
  <polygon class="fil1" points="206,143 230,143 230,142 206,142 "/>
  <polygon class="fil1" points="206,146 230,146 230,144 206,144 "/>
  <path class="fil1" d="M232 153c0,0 4,0 3,-8 0,0 0,6 -3,6l-28 0c-3,0 -3,-6 -3,-6 -1,7 2,8 2,8l0 0 29 0z"/>
  <path class="fil1" d="M205 17l26 0 0 1c1,0 2,0 2,3 0,-2 0,-5 -2,-5l-26 0c-2,0 -2,3 -2,5 1,-4 2,-4 2,-4z"/>
  <polygon class="fil1" points="242,167 12,167 12,11 10,11 10,168 242,168 "/>
  <path class="fil1" d="M201 23c0,-2 0,-5 0,-6 0,-1 2,-2 3,-2l28 0c2,0 3,1 3,2 0,1 0,4 0,6l0 122 0 0 0 0 0 -122c0,-2 0,-5 0,-6 0,-1 -1,-3 -3,-3l-28 0 0 0c-2,0 -3,2 -3,3 0,1 0,4 0,6l0 122 0 0 0 0 0 -122z"/>
  <polygon class="fil1" points="248,2 248,175 235,175 232,175 232,175 203,175 210,216 219,214 219,214 218,194 218,188 216,182 232,182 232,181 232,180 232,177 232,176 235,176 249,176 249,2 "/>
  <polygon class="fil1" points="18,177 18,177 18,181 18,181 34,181 28,212 28,216 29,216 37,216 37,216 37,214 44,176 18,176 "/>
  <polygon class="fil1" points="240,10 244,4 241,4 2,4 2,10 237,10 "/>
  <path class="fil1" d="M189 17l-168 0c-2,0 -3,2 -3,3l0 138c0,2 1,4 3,4l168 0c2,0 3,-1 3,-3l0 -139c0,-1 -1,-3 -3,-3zm2 141l0 0c0,1 -1,3 -2,3l-168 0c-1,0 -2,-2 -2,-3l0 -138c0,-1 1,-2 2,-2l168 0c1,0 2,1 2,2l0 138z"/>
  <polygon class="fil1" points="229,27 224,27 224,28 229,28 "/>
  <path class="fil1" d="M223 30c0,0 0,-1 0,-2 0,-2 0,-3 0,-3 -1,0 -1,1 -1,1l0 1 -5 0 0 1 4 0c0,3 2,2 2,2z"/>
  <path class="fil1" d="M209 25c0,0 -1,0 -1,1 0,0 0,0 0,0 0,0 0,0 0,0 0,0 0,0 0,0 0,0 0,0 0,0 0,0 0,0 0,0 0,0 0,0 0,0 0,0 0,0 0,0 0,0 0,0 0,0 0,0 0,0 0,0 0,0 0,0 0,0 0,0 0,0 0,0 0,0 0,0 -1,0 0,0 0,0 0,0 0,0 0,0 0,0 0,0 0,0 0,0 0,0 0,0 0,0 0,0 0,0 0,0 0,0 0,0 0,0 0,1 0,1 0,2 0,1 1,1 1,1 1,0 1,0 2,0 0,0 0,0 0,0 0,0 0,0 0,0 0,0 0,0 0,0 0,0 0,0 0,0 0,0 0,0 0,0 0,0 0,0 0,0 0,0 0,0 0,0 0,0 0,0 0,0 0,0 0,0 0,-1 0,0 0,0 0,0 0,0 0,0 0,0 0,0 0,0 0,0 0,0 0,0 0,0 0,0 0,0 0,0 0,0 0,0 0,0 0,0 0,0 0,0 0,0 0,0 0,0 1,0 1,0 1,0 0,0 0,-1 0,-1 0,-1 -1,-2 -2,-2z"/>
  <path class="fil1" d="M182 41c0,0 0,-8 -11,-10 -74,-13 -134,0 -134,0 -9,2 -9,12 -9,12 -6,45 0,89 0,89 2,13 12,14 12,14 74,12 133,0 133,0 8,-2 9,-15 9,-15 0,0 1,-1 1,-2l0 0 0 0c5,-44 -1,-88 -1,-88z"/>
 </g>
</svg>
