<?xml version="1.0" encoding="UTF-8"?>
<!DOCTYPE svg PUBLIC "-//W3C//DTD SVG 1.1//EN" "http://www.w3.org/Graphics/SVG/1.1/DTD/svg11.dtd">
<!-- Creator: CorelDRAW X7 -->
<svg xmlns="http://www.w3.org/2000/svg" xml:space="preserve" width="1.48259in" height="1.38878in" version="1.1" style="shape-rendering:geometricPrecision; text-rendering:geometricPrecision; image-rendering:optimizeQuality; fill-rule:evenodd; clip-rule:evenodd"
viewBox="0 0 279 262"
 xmlns:xlink="http://www.w3.org/1999/xlink">
 <defs>
  <style type="text/css">
   <![CDATA[
    .fil0 {fill:#49C4E2;fill-rule:nonzero}
    .fil1 {fill:#BFACAA;fill-rule:nonzero}
   ]]>
  </style>
 </defs>
 <g id="Graphics">
  <metadata id="CorelCorpID_0Corel-Layer"/>
  <path class="fil0" d="M0 0l0 197 20 0 0 0 0 -1 29 0 -7 43 7 -42 176 0 8 43 10 0 0 -1 -9 1 -8 -45 32 0 0 0 4 0 15 0 0 -193 0 0 0 193 -15 0 -4 0 0 2 21 0 0 -197 -279 0zm269 187l0 0 -258 0 0 -174 2 0 0 173 256 0 0 1zm-249 -11l0 0 0 -153c0,-2 1,-4 4,-4l186 0c2,0 4,2 4,4l0 153c0,3 -2,4 -4,4l-186 0c-3,0 -4,-2 -4,-4zm239 -5l0 0 -33 0 0 0c-1,-1 -3,-2 -2,-10l0 0 0 -136c0,-2 0,-5 0,-6 0,-2 1,-3 3,-3l0 0 31 0c2,0 4,1 4,3 0,1 0,4 0,6l0 136 0 0c1,10 -3,10 -3,10zm9 -160l0 0 -4 0 -261 0 -1 -6 266 0 4 0 -4 6z"/>
  <path class="fil0" d="M262 25c0,-2 0,-5 0,-6 0,-2 -2,-3 -4,-3l-31 0c-2,0 -3,1 -3,3 0,1 0,4 0,6l0 136 0 0c0,0 0,7 3,7l32 0c3,0 3,-7 3,-7l0 0 0 -136zm-6 137l0 0 -27 0 0 -2 27 0 0 2zm0 -3l0 0 -27 0 0 -1 27 0 0 1zm0 -3l0 0 -27 0 0 -1 27 0 0 1zm0 -2l0 0 -27 0 0 -2 27 0 0 2zm0 -3l0 0 -27 0 0 -2 27 0 0 2zm0 -3l0 0 -27 0 0 -2 27 0 0 2zm0 -3l0 0 -27 0 0 -2 27 0 0 2zm0 -3l0 0 -27 0 0 -2 27 0 0 2zm0 -3l0 0 -27 0 0 -1 27 0 0 1zm0 -2l0 0 -27 0 0 -2 27 0 0 2zm0 -3l0 0 -27 0 0 -2 27 0 0 2zm0 -3l0 0 -27 0 0 -2 27 0 0 2zm0 -3l0 0 -27 0 0 -2 27 0 0 2zm0 -3l0 0 -27 0 0 -2 27 0 0 2zm0 -3l0 0 -27 0 0 -1 27 0 0 1zm0 -3l0 0 -27 0 0 -1 27 0 0 1zm0 -2l0 0 -27 0 0 -2 27 0 0 2zm0 -3l0 0 -27 0 0 -2 27 0 0 2zm0 -3l0 0 -27 0 0 -2 27 0 0 2zm0 -3l0 0 -27 0 0 -2 27 0 0 2zm0 -3l0 0 -27 0 0 -2 27 0 0 2zm0 -3l0 0 -27 0 0 -1 27 0 0 1zm0 -2l0 0 -27 0 0 -2 27 0 0 2zm-13 -55l0 0c5,0 8,4 8,8 0,5 -3,9 -8,9 -5,0 -9,-4 -9,-9 0,-4 4,-8 9,-8zm-1 -14l0 0 0 -1 5 0 0 -1c0,0 0,-1 1,-1 0,0 1,1 1,3 0,1 -1,3 -1,3 0,0 -2,0 -2,-3l-4 0zm8 0l0 0 0 -1 5 0 0 1 -5 0zm1 48l0 0c0,5 -3,9 -8,9 -5,0 -9,-4 -9,-9 0,-5 4,-9 9,-9 5,0 8,4 8,9zm-17 -48l0 0c0,0 0,0 0,0 0,0 0,0 0,0 0,0 0,0 0,0 0,0 0,0 0,0 0,1 0,1 0,1 0,0 0,0 0,0 0,0 0,0 0,0 0,0 0,0 0,0 0,0 0,0 0,0 0,0 0,0 0,0 0,0 0,0 0,0 0,0 0,0 0,0 0,0 0,0 0,0 0,0 0,0 0,0 0,0 0,0 0,0 0,0 0,0 0,0 0,0 0,0 0,0 0,0 0,0 0,0 -1,1 -1,1 -2,1 -1,0 -2,-1 -2,-2 0,-1 0,-1 1,-2 0,0 0,0 0,0 0,0 0,0 0,0 0,0 0,0 0,0 0,0 0,0 0,0 0,0 0,0 0,0 0,0 0,0 0,0 0,0 0,0 0,0 0,0 0,0 0,0 0,0 0,0 0,0 0,0 0,0 0,0 0,0 0,0 0,0 0,0 0,0 0,0 0,0 0,0 0,0 0,0 0,0 0,0 0,0 0,0 0,0 0,0 0,0 0,0 0,0 0,0 0,0 0,0 1,0 1,-1 0,0 0,0 1,0 1,0 2,1 2,2 0,0 0,1 -1,1zm23 -11l0 0 0 -1 -29 0c0,0 -1,0 -2,4 0,-2 0,-5 2,-5l29 0c2,0 3,3 3,5 -1,-3 -2,-3 -3,-3z"/>
  <polygon class="fil0" points="258,202 258,202 241,203 242,209 243,216 253,261 265,259 258,200 "/>
  <path class="fil0" d="M210 179c2,0 3,-2 3,-3l0 -153c0,-2 -1,-3 -3,-3l-186 0c-2,0 -3,1 -3,3l0 153c0,1 1,3 3,3l186 0zm-179 -132l0 0c0,0 0,-11 11,-13 0,0 66,-14 148,0 13,3 13,12 13,12 0,0 6,48 0,98l0 0 0 0c0,1 0,1 0,2 0,0 -1,14 -10,16 0,0 -66,14 -149,0 0,0 -11,-1 -13,-15 0,0 -7,-49 0,-100z"/>
  <polygon class="fil0" points="33,240 41,240 41,240 33,240 "/>
  <polygon class="fil0" points="21,202 14,259 25,262 31,237 37,202 "/>
  <path class="fil1" d="M234 53c0,5 4,9 9,9 5,0 8,-4 8,-9 0,-4 -3,-8 -8,-8 -5,0 -9,4 -9,8z"/>
  <path class="fil1" d="M243 70c-5,0 -9,4 -9,9 0,5 4,9 9,9 5,0 8,-4 8,-9 0,-5 -3,-9 -8,-9z"/>
  <polygon class="fil1" points="229,100 256,100 256,98 229,98 "/>
  <polygon class="fil1" points="229,102 256,102 256,101 229,101 "/>
  <polygon class="fil1" points="229,105 256,105 256,103 229,103 "/>
  <polygon class="fil1" points="229,108 256,108 256,106 229,106 "/>
  <polygon class="fil1" points="229,111 256,111 256,109 229,109 "/>
  <polygon class="fil1" points="229,114 256,114 256,112 229,112 "/>
  <polygon class="fil1" points="229,117 256,117 256,115 229,115 "/>
  <polygon class="fil1" points="229,119 256,119 256,118 229,118 "/>
  <polygon class="fil1" points="229,122 256,122 256,121 229,121 "/>
  <polygon class="fil1" points="229,125 256,125 256,123 229,123 "/>
  <polygon class="fil1" points="229,128 256,128 256,126 229,126 "/>
  <polygon class="fil1" points="229,131 256,131 256,129 229,129 "/>
  <polygon class="fil1" points="229,134 256,134 256,132 229,132 "/>
  <polygon class="fil1" points="229,137 256,137 256,135 229,135 "/>
  <polygon class="fil1" points="229,139 256,139 256,138 229,138 "/>
  <polygon class="fil1" points="229,142 256,142 256,140 229,140 "/>
  <polygon class="fil1" points="229,145 256,145 256,143 229,143 "/>
  <polygon class="fil1" points="229,148 256,148 256,146 229,146 "/>
  <polygon class="fil1" points="229,151 256,151 256,149 229,149 "/>
  <polygon class="fil1" points="229,154 256,154 256,152 229,152 "/>
  <polygon class="fil1" points="229,156 256,156 256,155 229,155 "/>
  <polygon class="fil1" points="229,159 256,159 256,158 229,158 "/>
  <polygon class="fil1" points="229,162 256,162 256,160 229,160 "/>
  <path class="fil1" d="M259 171c0,0 4,0 3,-10 0,0 0,7 -3,7l-32 0c-3,0 -3,-7 -3,-7 -1,8 1,9 2,10l0 0 33 0z"/>
  <path class="fil1" d="M228 19l29 0 0 1c1,0 2,0 3,3 0,-2 -1,-5 -3,-5l-29 0c-2,0 -2,3 -2,5 1,-4 2,-4 2,-4z"/>
  <polygon class="fil1" points="269,186 13,186 13,13 11,13 11,187 269,187 "/>
  <path class="fil1" d="M224 25c0,-2 0,-5 0,-6 0,-2 1,-3 3,-3l31 0c2,0 4,1 4,3 0,1 0,4 0,6l0 136 0 0 0 0 0 -136c0,-2 0,-5 0,-6 0,-2 -2,-3 -4,-3l-31 0 0 0c-2,0 -3,1 -3,3 0,1 0,4 0,6l0 136 0 0 0 0 0 -136z"/>
  <polygon class="fil1" points="277,2 277,195 262,195 258,195 258,195 226,195 234,240 243,239 244,239 243,216 242,209 241,203 258,202 258,202 258,200 258,197 258,195 262,195 277,195 277,2 "/>
  <polygon class="fil1" points="20,197 20,197 20,202 21,202 37,202 31,237 31,240 33,240 41,240 41,240 42,239 49,196 20,196 "/>
  <polygon class="fil1" points="268,11 272,5 268,5 2,5 3,11 264,11 "/>
  <path class="fil1" d="M210 19l-186 0c-3,0 -4,2 -4,4l0 153c0,2 1,4 4,4l186 0c2,0 4,-1 4,-4l0 -153c0,-2 -2,-4 -4,-4zm3 157l0 0c0,1 -1,3 -3,3l-186 0c-2,0 -3,-2 -3,-3l0 -153c0,-2 1,-3 3,-3l186 0c2,0 3,1 3,3l0 153z"/>
  <polygon class="fil1" points="255,30 250,30 250,31 255,31 "/>
  <path class="fil1" d="M248 34c0,0 1,-2 1,-3 0,-2 -1,-3 -1,-3 -1,0 -1,1 -1,1l0 1 -5 0 0 1 4 0c0,3 2,3 2,3z"/>
  <path class="fil1" d="M233 28c-1,0 -1,0 -1,0 0,1 -1,1 -1,1 0,0 0,0 0,0 0,0 0,0 0,0 0,0 0,0 0,0 0,0 0,0 0,0 0,0 0,0 0,0 0,0 0,0 0,0 0,0 0,0 0,0 0,0 0,0 0,0 0,0 0,0 0,0 0,0 0,0 0,0 0,0 0,0 0,0 0,0 0,0 0,0 0,0 0,0 0,0 0,0 0,0 0,0 0,0 0,0 0,0 0,0 0,0 0,0 0,0 0,0 0,0 -1,1 -1,1 -1,2 0,1 1,2 2,2 1,0 1,0 2,-1 0,0 0,0 0,0 0,0 0,0 0,0 0,0 0,0 0,0 0,0 0,0 0,0 0,0 0,0 0,0 0,0 0,0 0,0 0,0 0,0 0,0 0,0 0,0 0,0 0,0 0,0 0,0 0,0 0,0 0,0 0,0 0,0 0,0 0,0 0,0 0,0 0,0 0,0 0,0 0,0 0,0 0,-1 0,0 0,0 0,0 0,0 0,0 0,0 0,0 0,0 0,0 0,0 0,0 0,0 1,0 1,-1 1,-1 0,-1 -1,-2 -2,-2z"/>
  <path class="fil1" d="M203 46c0,0 0,-9 -13,-12 -82,-14 -148,0 -148,0 -11,2 -11,13 -11,13 -7,51 0,100 0,100 2,14 13,15 13,15 83,14 149,0 149,0 9,-2 10,-16 10,-16 0,-1 0,-1 0,-2l0 0 0 0c6,-50 0,-98 0,-98z"/>
 </g>
</svg>
