<?xml version="1.0" encoding="UTF-8"?>
<!DOCTYPE svg PUBLIC "-//W3C//DTD SVG 1.1//EN" "http://www.w3.org/Graphics/SVG/1.1/DTD/svg11.dtd">
<!-- Creator: CorelDRAW X7 -->
<svg xmlns="http://www.w3.org/2000/svg" xml:space="preserve" width="2.07976in" height="2.36072in" version="1.1" style="shape-rendering:geometricPrecision; text-rendering:geometricPrecision; image-rendering:optimizeQuality; fill-rule:evenodd; clip-rule:evenodd"
viewBox="0 0 316 359"
 xmlns:xlink="http://www.w3.org/1999/xlink">
 <defs>
  <style type="text/css">
   <![CDATA[
    .fil1 {fill:#7C7C7D;fill-rule:nonzero}
    .fil2 {fill:#ACACAC;fill-rule:nonzero}
    .fil0 {fill:#BFACAA;fill-rule:nonzero}
    .fil5 {fill:#BFACAA;fill-rule:nonzero;fill-opacity:0.529412}
    .fil3 {fill:url(#id0);fill-rule:nonzero}
    .fil7 {fill:url(#id1);fill-rule:nonzero}
    .fil6 {fill:url(#id2);fill-rule:nonzero}
    .fil4 {fill:url(#id3);fill-rule:nonzero;fill-opacity:0.529412}
   ]]>
  </style>
  <linearGradient id="id0" gradientUnits="userSpaceOnUse" x1="9.43611" y1="182.239" x2="247.728" y2="303.654">
   <stop offset="0" style="stop-opacity:1; stop-color:#7C7C7D"/>
   <stop offset="0" style="stop-opacity:1; stop-color:#7C7C7D"/>
   <stop offset="0.0705882" style="stop-opacity:1; stop-color:#7C7C7D"/>
   <stop offset="0.321569" style="stop-opacity:1; stop-color:white"/>
   <stop offset="0.658824" style="stop-opacity:1; stop-color:#454545"/>
   <stop offset="1" style="stop-opacity:1; stop-color:#454545"/>
  </linearGradient>
  <linearGradient id="id1" gradientUnits="userSpaceOnUse" xlink:href="#id0" x1="254.159" y1="268.933" x2="302.288" y2="219.095">
  </linearGradient>
  <linearGradient id="id2" gradientUnits="userSpaceOnUse" xlink:href="#id0" x1="254.158" y1="208.837" x2="302.288" y2="158.997">
  </linearGradient>
  <linearGradient id="id3" gradientUnits="userSpaceOnUse" xlink:href="#id0" x1="33.0315" y1="338.497" x2="224.132" y2="147.396">
  </linearGradient>
 </defs>
 <g id="__x0023_Layer_x0020_1_x0020_copy">
  <metadata id="CorelCorpID_0Corel-Layer"/>
  <polygon class="fil0" points="26,347 291,347 291,359 26,359 "/>
  <path class="fil1" d="M303 140l-289 0c-8,0 -14,7 -14,15l0 175c0,8 6,15 14,15l289 0c7,0 13,-7 13,-15l0 -175c0,-8 -6,-15 -13,-15zm9 188l0 0c0,8 -5,14 -13,14l-282 0c-7,0 -13,-6 -13,-14l0 -171c0,-7 6,-13 13,-13l282 0c8,0 13,6 13,13l0 171z"/>
  <path class="fil0" d="M299 144l-282 0c-7,0 -13,6 -13,13l0 171c0,8 6,14 13,14l282 0c8,0 13,-6 13,-14l0 -171c0,-7 -5,-13 -13,-13zm10 181l0 0c0,7 -6,13 -13,13l-276 0c-7,0 -13,-6 -13,-13l0 -165c0,-7 6,-13 13,-13l276 0c7,0 13,6 13,13l0 165z"/>
  <path class="fil1" d="M296 147l-276 0c-7,0 -13,6 -13,13l0 165c0,7 6,13 13,13l276 0c7,0 13,-6 13,-13l0 -165c0,-7 -6,-13 -13,-13zm-49 183l0 0c0,2 -2,4 -5,4l-226 0c-2,0 -4,-2 -4,-4l0 -173c0,-3 2,-5 4,-5l226 0c3,0 5,2 5,5l0 173z"/>
  <path class="fil0" d="M242 152l-226 0c-2,0 -4,2 -4,5l0 173c0,2 2,4 4,4l226 0c3,0 5,-2 5,-4l0 -173c0,-3 -2,-5 -5,-5zm-3 175l0 0c0,0 -76,10 -221,0 0,0 -6,-97 1,-168 0,0 115,-9 220,0 0,0 6,102 0,168z"/>
  <path class="fil2" d="M19 159c-7,71 -1,168 -1,168 145,10 221,0 221,0 6,-66 0,-168 0,-168 -105,-9 -220,0 -220,0zm212 146l0 0c-1,9 -8,15 -16,17 0,0 -84,10 -174,0 -7,-1 -13,-8 -15,-15 0,0 -12,-62 1,-130 1,-6 7,-11 13,-13 0,0 101,-11 177,0 8,1 13,8 14,15 11,62 0,126 0,126z"/>
  <path class="fil3" d="M217 164c-76,-11 -177,0 -177,0 -6,2 -12,7 -13,13 -13,68 -1,130 -1,130 2,7 8,14 15,15 90,10 174,0 174,0 8,-2 15,-8 16,-17 0,0 11,-64 0,-126 -1,-7 -6,-14 -14,-15z"/>
  <path class="fil4" d="M217 164c-76,-11 -177,0 -177,0 -6,2 -12,7 -13,13 -13,68 -1,130 -1,130 2,7 8,14 15,15 90,10 174,0 174,0 8,-2 15,-8 16,-17 0,0 11,-64 0,-126 -1,-7 -6,-14 -14,-15z"/>
  <path class="fil5" d="M217 164c-76,-11 -177,0 -177,0 -6,2 -12,7 -13,13 -13,68 -1,130 -1,130 2,7 8,14 15,15 90,10 174,0 174,0 8,-2 15,-8 16,-17 0,0 11,-64 0,-126 -1,-7 -6,-14 -14,-15z"/>
  <path class="fil0" d="M278 280l0 0c-3,0 -7,0 -9,2l19 0c-3,-2 -6,-2 -10,-2z"/>
  <path class="fil0" d="M263 285l30 0c-1,-1 -2,-1 -3,-2l-24 0c-1,1 -2,1 -3,2z"/>
  <path class="fil0" d="M260 288l37 0c-1,-1 -2,-1 -2,-2l-33 0c-1,1 -2,1 -2,2z"/>
  <path class="fil0" d="M258 291l41 0c-1,0 -1,-1 -1,-2l-39 0c-1,1 -1,2 -1,2z"/>
  <path class="fil0" d="M256 295l45 0c-1,-1 -1,-2 -1,-2l-43 0c0,0 -1,1 -1,2z"/>
  <path class="fil0" d="M255 298l47 0c-1,-1 -1,-1 -1,-2l-46 0c0,1 0,1 0,2z"/>
  <path class="fil0" d="M254 301l48 0c0,0 0,-1 0,-2l-47 0c0,1 -1,2 -1,2z"/>
  <path class="fil0" d="M255 308l47 0c0,-1 0,-1 0,-2l-48 0c0,1 1,1 1,2z"/>
  <path class="fil0" d="M255 311l46 0c0,-1 0,-1 1,-2l-47 0c0,1 0,1 0,2z"/>
  <path class="fil0" d="M257 314l43 0c0,0 0,-1 1,-2l-45 0c0,1 1,2 1,2z"/>
  <path class="fil0" d="M259 318l39 0c0,-1 0,-2 1,-2l-41 0c0,0 0,1 1,2z"/>
  <path class="fil0" d="M262 321l33 0c0,-1 1,-1 2,-2l-37 0c0,1 1,1 2,2z"/>
  <path class="fil0" d="M266 324l24 0c1,0 2,-1 3,-2l-30 0c1,1 2,2 3,2z"/>
  <path class="fil0" d="M278 328c4,0 7,-1 10,-2l-19 0c3,1 6,2 9,2z"/>
  <path class="fil0" d="M254 304c0,0 0,0 0,1l48 0c0,-1 0,-1 0,-1 0,-1 0,-1 0,-1l-48 0c0,0 0,0 0,1z"/>
  <path class="fil6" d="M278 208c14,0 25,-11 25,-24 0,-14 -11,-25 -25,-25 -13,0 -24,11 -24,25 0,13 11,24 24,24zm0 -41l0 0c10,0 17,7 17,16 0,9 -7,17 -17,17 -9,0 -16,-8 -16,-17 0,-9 7,-16 16,-16z"/>
  <path class="fil0" d="M278 200c10,0 17,-8 17,-17 0,-9 -7,-16 -17,-16 -9,0 -16,7 -16,16 0,9 7,17 16,17z"/>
  <path class="fil7" d="M278 220c-13,0 -24,10 -24,24 0,14 11,25 24,25 14,0 25,-11 25,-25 0,-14 -11,-24 -25,-24zm0 40l0 0c-9,0 -16,-8 -16,-17 0,-9 7,-16 16,-16 10,0 17,7 17,16 0,9 -7,17 -17,17z"/>
  <path class="fil0" d="M278 227c-9,0 -16,7 -16,16 0,9 7,17 16,17 10,0 17,-8 17,-17 0,-9 -7,-16 -17,-16z"/>
  <path class="fil2" d="M293 245l-25 -12c0,0 -4,4 -4,8l25 12c0,0 3,-3 4,-8z"/>
  <path class="fil2" d="M285 171l-20 18c0,0 3,5 6,7l20 -19c0,0 -2,-4 -6,-6z"/>
  <path class="fil0" d="M152 119c-16,0 -29,8 -35,19l70 0c-6,-11 -20,-19 -35,-19z"/>
  <polygon class="fil0" points="163,126 216,0 217,0 166,128 "/>
  <polygon class="fil0" points="139,126 85,0 85,0 135,128 "/>
 </g>
</svg>
