<?xml version="1.0" encoding="UTF-8"?>
<!DOCTYPE svg PUBLIC "-//W3C//DTD SVG 1.1//EN" "http://www.w3.org/Graphics/SVG/1.1/DTD/svg11.dtd">
<!-- Creator: CorelDRAW X7 -->
<svg xmlns="http://www.w3.org/2000/svg" xml:space="preserve" width="2.73615in" height="3.33646in" version="1.1" style="shape-rendering:geometricPrecision; text-rendering:geometricPrecision; image-rendering:optimizeQuality; fill-rule:evenodd; clip-rule:evenodd"
viewBox="0 0 557 680"
 xmlns:xlink="http://www.w3.org/1999/xlink">
 <defs>
  <style type="text/css">
   <![CDATA[
    .fil0 {fill:black;fill-rule:nonzero}
   ]]>
  </style>
 </defs>
 <g id="__x0023_Layer_x0020_1_x0020_copy">
  <metadata id="CorelCorpID_0Corel-Layer"/>
  <path class="fil0" d="M405 512c0,-9 0,-16 5,-19 2,-31 -20,-48 -51,-46 -4,1 -13,5 -17,8 -7,4 -10,10 -14,17 -8,55 47,67 77,40zm-55 -44l0 0c8,-13 45,-5 43,17 -4,1 -2,-4 -5,-4 4,-1 0,0 -2,-5 1,0 2,1 3,1 -5,-10 -9,-7 -14,-13 -2,5 -7,-1 -12,-1 1,3 -7,3 -11,5 3,7 9,3 19,4 4,2 7,7 11,9 -1,8 2,12 6,15 3,0 -1,-7 2,-7 4,-1 1,11 -1,12 -8,-6 -6,-6 -12,-13 6,-10 -12,-18 -18,-11 -3,-2 -8,-4 -11,-10 1,0 1,0 2,1zm-4 7l0 0c13,4 10,31 32,22 2,5 5,7 7,11 -24,14 -53,-2 -39,-33z"/>
  <polygon class="fil0" points="515,532 491,532 491,551 506,552 515,552 515,552 "/>
  <path class="fil0" d="M417 581c1,2 4,2 7,2 4,-8 4,-22 -6,-18 11,1 4,14 -1,16z"/>
  <path class="fil0" d="M526 431l-20 -1c-10,-1 -22,-1 -19,-1 1,0 -11,-1 -11,-1l0 3c-1,1 -1,13 -1,15l0 51c-1,0 0,11 0,11 0,0 -1,35 -2,34 1,24 1,75 1,116 11,1 14,0 29,0 8,0 14,-2 24,-1 3,-65 3,-140 4,-208 0,0 0,0 0,0 -1,-6 -1,-11 -1,-17 -1,-1 -3,-1 -4,-1zm-39 29l0 0 31 0 0 0 0 1 1 0 0 26 -29 0 -2 0 0 -1 0 0 -1 0 0 -26zm0 34l0 0 31 0 0 0 0 1 1 0 0 26 -29 0 -2 0 0 0 0 -1 -1 0 0 -26zm32 130l0 0 -7 -1 -22 1 -2 0 0 0 0 -1 -1 0 0 -26 31 0 0 0 0 1 1 0 0 26zm0 -34l0 0 -29 0 -2 0 0 -1 0 0 -1 0 1 -5 -1 -22 31 0 0 1 0 1 1 0 0 0 1 22 -1 4zm0 -34l0 0 -29 0 -2 0 0 -1 0 -1 -1 0 0 -26 31 0 0 1 0 0 1 0 1 3 -1 24z"/>
  <path class="fil0" d="M380 505c-5,0 -3,-4 -4,-5 -12,7 -22,-3 -23,-17 -5,1 -5,-6 -6,-4 -10,20 14,40 33,26z"/>
  <path class="fil0" d="M402 517c-2,4 -7,4 -9,8 -43,17 -71,-14 -68,-52 -26,54 61,77 77,44z"/>
  <polygon class="fil0" points="493,620 515,620 515,619 515,601 491,601 "/>
  <path class="fil0" d="M440 508c-1,-9 4,-32 3,-44 0,-3 -7,-4 -1,-6 -4,0 -4,4 -10,2 -1,12 6,38 -2,52 5,0 9,-1 10,-4z"/>
  <polygon class="fil0" points="491,567 491,586 492,586 515,586 515,580 513,567 "/>
  <path class="fil0" d="M416 414c1,-10 -2,-15 -5,-21 -14,-1 -13,8 -13,15 1,4 -5,7 18,6z"/>
  <path class="fil0" d="M403 389c5,0 11,-1 16,-1 -3,-11 -19,-20 -22,-24 -2,0 -14,-13 -17,-16 0,0 -117,-139 -172,-186 -7,-5 -14,-15 -21,-24 -8,-8 -17,-19 -24,-26 -12,-14 -25,-32 -38,-44l-17 -18c0,0 0,0 0,0 -1,0 -1,0 -1,-1l-27 -26 -2 -3 0 0 0 0 -1 -1 -4 -5 0 -1c0,0 1,-5 1,-8 0,-2 -1,-3 -1,-3 0,-1 0,-1 0,-2 0,0 0,0 0,0l0 0c-1,0 -1,0 -1,0 -1,0 -1,0 -2,0 -1,0 -3,0 -3,0 0,0 0,0 0,0 -1,0 -1,0 -1,0 0,0 -1,0 -2,1 -1,0 -2,0 -3,1 -1,1 -3,2 -3,3l-2 6 0 2 1 1 4 1 5 0 4 4c0,0 3,3 4,4l1 0 6 7c5,9 16,19 24,25 0,0 0,0 0,0l1 1c-1,1 -1,1 -1,2 12,7 24,23 34,36 46,54 97,107 146,159 15,16 31,35 50,55 1,1 37,41 37,41 7,9 23,29 31,40z"/>
  <path class="fil0" d="M418 396c1,1 1,15 2,18 1,0 12,3 16,-1 -3,-6 -5,-15 -6,-18 -2,4 -12,-1 -12,1z"/>
  <path class="fil0" d="M58 415c-1,-22 0,-12 -2,-24 1,-3 -2,-23 0,-33 42,-2 106,-5 155,-4 56,-3 114,-2 156,-3 -4,-4 -8,-11 -9,-11 -59,1 -237,0 -317,9 -3,22 -12,44 -6,64 7,4 15,3 23,2z"/>
  <polygon class="fil0" points="516,483 515,464 491,464 491,483 516,484 "/>
  <path class="fil0" d="M340 598c0,4 0,7 2,8 1,0 3,0 5,0 0,-2 0,-4 1,-5 -4,0 -2,-4 -8,-3z"/>
  <path class="fil0" d="M285 460c-3,-5 -6,-7 -14,-11 -18,-7 -86,-5 -109,-4 -59,4 -71,2 -115,16 -1,0 -3,2 -3,3 -6,32 -6,66 -4,100 1,24 2,49 13,67 80,14 145,11 215,4 7,-2 13,-3 16,-7 6,-9 4,-24 6,-32 0,1 0,-67 0,-101 0,-23 -4,-32 -5,-35z"/>
  <path class="fil0" d="M555 453l0 0c0,-1 -1,-1 -1,-1 -5,0 -8,1 -13,1l1 55c0,1 0,2 0,3 2,2 3,3 6,3 1,1 3,2 5,0 1,0 1,0 1,-1 1,-2 2,-4 2,-7 0,-2 0,-3 0,-4 0,0 0,0 0,0 1,-2 1,-9 1,-14 0,-9 0,-17 -1,-24 -1,-7 -1,-11 -1,-11z"/>
  <path class="fil0" d="M55 3c0,0 0,0 0,0 0,0 0,0 0,0l0 0z"/>
  <path class="fil0" d="M297 442c-26,-15 -71,-10 -118,-9 -33,0 -78,-2 -129,6 -4,0 -16,3 -23,4 -1,62 -1,139 9,198 39,6 89,14 165,11 35,-1 71,-5 95,-9 1,-3 2,-58 3,-88 0,-5 0,-9 1,-13 1,-18 1,-36 1,-53 -1,-19 -3,-33 -4,-47zm-3 127l0 0 0 0c0,0 0,0 0,4 -1,3 -1,19 -2,33 -1,9 -2,22 -2,28 -12,3 -12,3 -25,5 -7,1 -29,3 -46,4 -51,4 -120,1 -168,-8 -11,-8 -15,-60 -15,-79 0,1 -2,-65 0,-80 2,-10 4,-17 10,-21 8,-5 40,-10 55,-11 15,-2 43,-2 58,-3 37,-1 70,-3 98,1 7,1 18,3 23,5 14,8 14,32 14,50 1,22 1,47 0,72z"/>
  <path class="fil0" d="M309 579c-1,-38 -3,-132 -3,-142 0,-6 -1,-11 -1,-15 -19,-1 -36,-1 -52,-1l-103 3c-36,0 -117,9 -132,10 -3,0 -7,1 -10,2 -2,82 4,156 4,228 91,9 202,11 295,5 -1,-39 1,-68 2,-90 0,0 0,0 0,0zm-142 -150l0 0c0,0 0,0 0,0 0,0 0,0 0,0 0,0 0,0 0,0zm138 110l0 0c-1,25 -2,77 -6,112 -5,1 -125,9 -168,6 -14,0 -64,-5 -100,-9 -12,-68 -8,-134 -6,-203 0,-3 4,-5 4,-5 8,-2 26,-4 36,-6 11,-1 16,-1 28,-2 30,-2 63,-2 96,-3 24,-1 51,-1 69,0 17,1 32,4 42,10 0,2 1,3 1,5 1,3 1,7 1,13 0,3 1,16 1,20 1,19 2,62 2,62z"/>
  <path class="fil0" d="M334 592c-3,3 -1,8 2,9 1,-2 0,-5 2,-5 0,1 0,1 1,1 0,-4 -4,-3 -5,-5z"/>
  <path class="fil0" d="M392 352c24,0 71,2 88,3 3,10 0,29 1,33 -2,12 -1,1 -1,23 8,1 16,2 22,-1 3,-9 0,-29 -3,-46 -1,-7 -2,-14 -3,-19 -22,-2 -83,-4 -115,-4 3,4 6,5 11,11z"/>
  <path class="fil0" d="M331 640c4,1 4,-2 4,-5 -2,0 -2,-2 -5,-1 -1,3 2,3 1,6z"/>
  <polygon class="fil0" points="515,517 515,498 514,498 490,497 491,517 "/>
  <path class="fil0" d="M339 562c3,-1 3,1 4,2 1,-5 2,-7 -3,-9 -1,1 -1,3 -1,7z"/>
  <path class="fil0" d="M410 577c0,-9 1,-10 5,-15 -4,0 -3,-5 -8,-4 -9,3 -9,18 3,19z"/>
  <path class="fil0" d="M334 558c0,-5 4,2 4,-2 -5,-2 3,-2 1,-5 -4,1 -3,-4 -7,-3 -3,3 -2,8 2,10z"/>
  <path class="fil0" d="M538 453l0 0 0 0c-1,-9 -2,-28 -5,-35 -1,-2 2,35 1,34 0,0 0,0 0,0 1,16 1,35 1,54 -1,50 -2,107 -4,154 -8,0 -19,0 -28,1 -11,0 -25,1 -33,1 -1,0 2,-77 0,-87 0,-11 1,-21 0,-29l0 -14c0,0 0,0 0,-1 0,0 0,0 0,0l0 -31c1,1 0,-9 0,-7l1 -47c1,-2 0,-21 0,-21 0,0 8,0 14,0 1,0 2,0 3,0l16 1c9,2 18,1 26,2 0,-3 1,-11 -1,-12 -5,-4 -15,-5 -21,-7 0,4 -2,3 -5,5 -1,0 -10,2 -18,1 -4,-1 -8,-2 -11,-5 1,-5 1,0 0,-8 -14,-1 -25,-2 -37,-2 0,0 0,1 1,1 1,0 1,0 2,0l1 6c-1,0 -1,0 -2,-1 -2,8 3,11 -6,12 0,0 -32,-1 -32,-1 -8,-1 -6,-8 -6,-15 0,0 -3,0 -3,0 -30,0 -95,-4 -129,-4 -62,-1 -115,0 -200,7 -1,8 0,3 0,8 -2,3 -6,4 -10,5 -9,1 -18,0 -19,0 -2,-2 -5,-1 -5,-5 -6,2 -16,3 -21,7 -2,1 0,9 -1,12 9,-1 18,0 27,-2l70 -8c68,-5 144,-5 201,-2 0,2 3,2 5,3 -1,17 0,26 0,43 1,7 0,35 1,56 0,12 1,30 0,42 0,2 1,3 1,4l-1 36c-1,13 -2,27 0,38l-1 31c-107,7 -215,1 -302,-4 0,-71 -4,-133 -4,-213 -1,1 1,-35 1,-34 -4,10 -5,40 -5,41 0,9 1,18 1,25 0,71 0,119 3,184 1,0 2,0 4,0 43,3 75,6 119,7 84,1 190,2 257,-4 20,-1 45,-3 67,-4 9,-1 29,-1 36,-2 32,-2 45,-5 45,-5 9,-3 5,-26 7,-39 0,-36 0,-81 0,-116 0,0 0,0 0,0l0 -21c0,-1 0,-3 0,-4l-1 -24 0 -7zm-77 56l0 0c0,17 -2,151 -2,151 0,0 -1,5 -1,5 0,1 -68,4 -78,6 -16,0 -44,2 -65,4 -1,-1 -2,-1 -2,-2 0,-1 0,-3 1,-4 0,-1 1,-31 1,-47 0,0 0,0 0,0 0,-1 0,-2 0,-3 0,-41 0,-90 -1,-108 1,-21 1,-41 0,-59 0,0 0,-1 -1,0 0,1 0,1 0,2 0,-1 0,-2 0,-2 1,-7 -1,-25 5,-27 -2,19 3,39 0,48 10,-11 16,-33 34,-31 -4,2 -8,4 -10,8 0,0 0,1 0,1 0,0 0,0 1,0 0,-1 12,-8 23,-8 13,-1 36,6 43,19 -3,-24 -41,-26 -59,-21 41,-18 77,10 68,60 -3,1 -1,5 -5,4 -2,20 -25,29 -40,33 -8,-1 -9,-2 -17,-1 -12,-8 -29,-12 -34,-27 -4,49 -1,103 -4,144 -1,8 0,9 -1,16 49,-1 138,-8 138,-8 -1,-34 3,-195 1,-232 0,0 0,-1 0,-2 -6,-2 -22,-1 -29,-2 -5,0 -12,0 -38,0 -20,-1 -26,-2 -34,-1 -14,0 -44,4 -40,-5 11,0 20,1 29,0l73 2 27 0c3,0 6,0 9,1l5 1c0,0 0,0 0,0 1,0 2,0 2,1 0,1 0,14 0,16 0,14 1,52 1,68zm-38 -49l0 0c0,-8 9,-7 16,-8 13,8 6,34 6,66l-23 0 -1 -4c0,0 2,-6 4,-6 1,-1 2,-2 5,-2 -5,-15 6,-35 -7,-46zm8 108l0 0c4,17 -17,23 -29,13 -9,-11 -5,-24 5,-27 9,3 22,5 24,14zm-103 62l0 0c17,-4 26,12 15,21 -11,0 -21,-12 -15,-21zm-2 -79l0 0c0,-3 6,-2 6,-5 8,0 11,4 15,8 1,6 -1,10 -4,13 -10,-1 -17,-9 -17,-16zm20 60l0 0c-10,-2 -18,-7 -18,-19 2,-2 4,-2 6,-4 14,-1 25,16 12,23z"/>
 </g>
</svg>
