<?xml version="1.0" encoding="UTF-8"?>
<!DOCTYPE svg PUBLIC "-//W3C//DTD SVG 1.1//EN" "http://www.w3.org/Graphics/SVG/1.1/DTD/svg11.dtd">
<!-- Creator: CorelDRAW X7 -->
<svg xmlns="http://www.w3.org/2000/svg" xml:space="preserve" width="3.09065in" height="2.95863in" version="1.1" style="shape-rendering:geometricPrecision; text-rendering:geometricPrecision; image-rendering:optimizeQuality; fill-rule:evenodd; clip-rule:evenodd"
viewBox="0 0 3270 3130"
 xmlns:xlink="http://www.w3.org/1999/xlink">
 <defs>
  <style type="text/css">
   <![CDATA[
    .fil5 {fill:red;fill-rule:nonzero}
    .fil4 {fill:#454545;fill-rule:nonzero}
    .fil0 {fill:#7C7C7D;fill-rule:nonzero}
    .fil1 {fill:#ACACAC;fill-rule:nonzero}
    .fil3 {fill:#D7D7D7;fill-rule:nonzero}
    .fil2 {fill:#BFACAA;fill-rule:nonzero}
   ]]>
  </style>
 </defs>
 <g id="__x0023_Layer_x0020_1_x0020_copy">
  <metadata id="CorelCorpID_0Corel-Layer"/>
  <polygon class="fil0" points="3075,2950 3193,2633 3270,70 3158,25 3106,61 "/>
  <path class="fil1" d="M2995 2932c0,0 16,152 -90,149 -105,-3 -275,-19 -275,-19l0 53 -9 15 -96 -9 -9 -9 0 -56 -1752 -115 0 65 -18 4 -80 -7 0 -12 -10 -53 -263 -12c0,0 -124,0 -124,-158 0,-158 2726,164 2726,164z"/>
  <path class="fil2" d="M2955 2923c0,0 3,127 -59,124l-2497 -158c0,0 -86,-13 -95,-102l2651 136z"/>
  <path class="fil3" d="M8 0l-8 2776 3075 174 83 -2925 -3150 -25zm1902 2842l0 0 -1860 -124 8 -333 1862 108 -10 349 1 -16 625 23 35 23 -661 -30zm1109 50l0 0 -287 -18 28 -14 186 5 14 -333 66 5 -7 355zm-2 -382l0 0 -2959 -166 17 -2294 2992 50 -50 2410z"/>
  <path class="fil2" d="M58 2344l2959 166 50 -2410 -2992 -50 -17 2294zm287 -1869l0 0c0,0 30,-188 232,-195 203,-8 1636,15 1966,30 0,0 263,7 270,180 8,172 8,1215 -30,1568 0,0 -15,136 -165,157 0,0 -1178,180 -2168,-82 0,0 -105,-30 -120,-120 -15,-90 -45,-1118 15,-1538z"/>
  <path class="fil4" d="M436 2143c1003,266 2195,84 2195,84 152,-22 167,-159 167,-159 38,-358 38,-1414 31,-1588 -8,-175 -274,-183 -274,-183 -334,-15 -1785,-38 -1990,-30 -205,8 -236,198 -236,198 -60,425 -30,1466 -15,1557 15,91 122,121 122,121z"/>
  <polygon class="fil2" points="3014,2900 3026,2537 2960,2532 2949,2859 1911,2801 1920,2493 58,2385 50,2718 1910,2842 1910,2840 1911,2840 1910,2842 "/>
  <polygon class="fil4" points="77,2460 79,2435 1886,2538 1884,2563 "/>
  <polygon class="fil4" points="77,2497 79,2472 1886,2576 1884,2600 "/>
  <polygon class="fil4" points="77,2537 79,2512 1886,2616 1884,2641 "/>
  <polygon class="fil4" points="77,2580 79,2555 1886,2659 1884,2684 "/>
  <polygon class="fil4" points="77,2621 79,2596 1886,2699 1884,2724 "/>
  <polygon class="fil4" points="77,2664 79,2639 1886,2742 1884,2767 "/>
  <polygon class="fil4" points="77,2707 79,2682 1886,2785 1884,2810 "/>
  <polygon class="fil2" points="1990,2507 2153,2516 2147,2614 1984,2603 "/>
  <polygon class="fil2" points="1990,2656 2153,2665 2147,2764 1984,2752 "/>
  <polygon class="fil2" points="2234,2523 2396,2532 2391,2630 2227,2619 "/>
  <polygon class="fil2" points="2234,2672 2396,2682 2391,2779 2227,2768 "/>
  <polygon class="fil2" points="2474,2537 2636,2545 2631,2645 2468,2633 "/>
  <polygon class="fil2" points="2474,2686 2636,2695 2631,2794 2468,2782 "/>
  <polygon class="fil2" points="2724,2551 2886,2560 2881,2658 2718,2647 "/>
  <polygon class="fil2" points="2724,2700 2886,2709 2881,2806 2718,2796 "/>
  <polygon class="fil0" points="1981,2516 2143,2525 2138,2624 1975,2612 "/>
  <polygon class="fil0" points="1981,2665 2143,2675 2138,2773 1975,2761 "/>
  <polygon class="fil0" points="2224,2533 2386,2542 2381,2639 2218,2629 "/>
  <polygon class="fil0" points="2224,2682 2386,2691 2381,2788 2218,2778 "/>
  <polygon class="fil0" points="2464,2546 2626,2554 2621,2654 2458,2642 "/>
  <polygon class="fil0" points="2464,2696 2626,2705 2621,2803 2458,2792 "/>
  <polygon class="fil5" points="2714,2560 2876,2569 2871,2667 2708,2657 "/>
  <polygon class="fil0" points="2714,2710 2876,2719 2871,2816 2708,2806 "/>
 </g>
</svg>
