<?xml version="1.0" encoding="UTF-8"?>
<!DOCTYPE svg PUBLIC "-//W3C//DTD SVG 1.1//EN" "http://www.w3.org/Graphics/SVG/1.1/DTD/svg11.dtd">
<!-- Creator: CorelDRAW X7 -->
<svg xmlns="http://www.w3.org/2000/svg" xml:space="preserve" width="2.50205in" height="1.75519in" version="1.1" style="shape-rendering:geometricPrecision; text-rendering:geometricPrecision; image-rendering:optimizeQuality; fill-rule:evenodd; clip-rule:evenodd"
viewBox="0 0 1204 845"
 xmlns:xlink="http://www.w3.org/1999/xlink">
 <defs>
  <style type="text/css">
   <![CDATA[
    .fil0 {fill:#BFACAA;fill-rule:nonzero}
   ]]>
  </style>
 </defs>
 <g id="__x0023_Layer_x0020_1_x0020_copy">
  <metadata id="CorelCorpID_0Corel-Layer"/>
  <path class="fil0" d="M712 384c-9,3 10,12 0,0z"/>
  <path class="fil0" d="M657 401c1,3 3,4 3,7 2,0 3,0 4,0 -1,-4 -4,-7 -7,-7z"/>
  <path class="fil0" d="M851 107c0,-4 0,-8 0,-8 -13,0 -26,0 -39,0 0,3 0,7 0,10 0,2 -1,3 0,3 1,1 4,1 7,1 8,0 16,0 24,0 3,0 4,0 8,0 0,-2 0,-4 0,-6zm-15 -5l0 0c7,0 7,0 7,7 -8,0 -7,1 -7,-7z"/>
  <path class="fil0" d="M1203 185c-1,-6 -7,-10 -12,-12 -2,-3 -6,-5 -8,-5 -4,-7 -6,-15 -7,-23l0 -48c0,-8 1,-15 1,-23 0,-6 -1,-19 -1,-26 -1,-2 -230,-30 -230,-30l-52 0 0 6 -80 4 -46 -28 -30 0 -395 22 -1 27 -331 16 0 0 -11 0 14 670 1 0c1,1 3,0 6,0 4,0 7,0 10,0 7,0 14,0 21,0 4,0 4,-4 9,-4l0 1c2,0 3,0 4,1 2,3 8,2 11,2 0,-1 0,-1 1,-2l815 103 0 0 6 1 0 5c0,0 39,3 41,3 0,0 1,0 2,0l0 -1 -3 -821 4 0 0 6 2 816 -2 0 0 0 0 0c0,0 0,0 0,0 1,0 2,0 3,0l0 0 1 -1 10 -3 2 -1 10 -3 2 0 8 -3 3 -1 8 -2 7 -2 3 -1 0 0c0,0 1,-1 1,-1 0,0 0,0 0,0l16 -5c1,-1 2,-2 5,-1l10 -4c1,0 1,0 1,0l9 -3c0,0 1,0 1,0l19 -6c1,-1 3,-1 4,-1l70 -22 36 -12 3 -1 6 -1 1 -1 6 -10c10,-7 10,-36 10,-36 0,0 1,-76 3,-171 0,0 0,0 0,0 0,-4 0,-8 0,-12 3,-152 6,-347 3,-356zm-1168 -105l0 0 0 -10 322 -14 22 -1c0,0 0,0 0,0l16 -1c0,0 1,0 1,0l52 -2c0,0 0,0 0,0l12 -1c0,0 0,0 0,0l47 -2c0,0 0,0 0,0l26 -1c2,0 3,0 5,0l34 -2c0,0 0,0 0,0l44 -2c2,0 4,0 6,0l11 -1c0,0 0,0 0,0l59 -3c2,0 4,0 6,0 0,0 0,0 0,0l196 -9 0 13 -851 33 -1 9c0,-1 0,-3 0,-4 0,-6 -4,-4 -7,-2zm846 744l0 0 -17 -2 -13 -2 -19 -2 -5 -1 -18 -2 -10 -1 -25 -3 -2 -1 -53 -6 -2 0 -341 -44 -165 -20 -135 -17 -24 -3 0 -3 0 -9 0 1c0,-16 0,-31 0,-46 0,-2 0,-7 1,-9 1,-1 1,0 1,1 1,2 2,7 2,7 1,4 1,7 2,11 0,1 0,2 0,3l1 1 5 0c14,3 28,5 42,8 3,0 7,1 11,2 2,0 3,0 5,1 60,9 116,17 167,24 1,0 2,0 3,0 4,1 8,1 12,2 3,0 5,0 8,0 15,2 31,4 46,6 145,15 238,17 255,17 2,0 3,0 3,0l0 0c0,-1 0,-3 0,-6 0,-8 0,-16 0,-24 0,-1 0,-22 2,-20 2,1 2,6 2,8 0,7 0,43 -1,43 0,3 1,6 0,8 0,1 0,7 0,7 0,0 -3,0 -9,-1 -3,1 -5,1 -8,0 -8,-1 -19,-2 -32,-3 -4,0 -16,-1 -17,-1 -9,-1 -57,-5 -67,-6 -2,0 -9,-1 -10,-1 -6,-1 -13,-1 -20,-2 -3,0 -29,-3 -37,-4 -5,1 -29,-3 -36,-3 -3,0 -6,0 -8,-1 -111,-11 -235,-26 -313,-41 -7,0 -2,13 -3,17 0,4 2,5 6,6l727 87c1,-1 3,0 4,0l78 9c5,0 10,0 10,1l0 0c2,-38 1,-77 -1,-116l-2 -621 0 -4 -2 0 -7 0 -198 7 -14 1 -8 0 -16 1 -20 0 -7 1 -13 0 -71 3 -10 0 -193 7c-3,0 -6,0 -8,0l-81 3 -10 1 -152 5 -20 1 0 0 -1 3c0,0 -1,0 -1,0 0,1 0,2 0,3l1 -3 -1 7 581 -18 53 -1 24 -1 72 -2 15 -1 0 11 -1 4 0 79c-4,4 -6,9 -6,15 -1,5 1,10 3,14 -1,-3 -2,-6 -2,-9 1,-4 2,-3 2,-3l1 3 1 1 1 0 3 -2 3 -3c0,0 -1,-4 0,-5 0,-1 3,-5 3,-5l6 -1 0 0c0,0 1,2 1,2 0,1 0,5 -1,6 -1,0 -1,0 -1,0 -3,0 -6,6 -6,8 0,0 -3,7 1,8 5,1 5,1 5,1 0,0 -6,5 -12,4 0,-1 -1,-1 -1,-1 0,0 -1,0 -1,-1l0 10 0 27 0 7c-4,4 -6,9 -6,15 -1,5 1,10 3,14 -1,-3 -2,-6 -2,-8 1,-5 2,-4 2,-4l1 4 1 0 1 0 3 -1 3 -3c0,0 -1,-5 0,-6 0,-1 3,-5 3,-5l6 -1 0 0c0,0 1,2 1,2 0,1 0,4 -1,6 -1,0 -1,0 -1,0 -3,0 -6,6 -6,8 0,0 -3,7 1,8 5,1 5,1 5,1 0,0 -6,6 -12,4 0,0 -1,-1 -1,-1 0,0 -1,0 -1,0l0 22 0 44 0 31 0 78 -143 -8 0 -10c0,-1 0,-2 0,-4l0 -44c0,0 0,0 0,0l-1 -19c0,0 0,0 0,0l0 -29c0,0 0,0 0,0l0 -19 -1 -52 1 -53c2,-5 -3,-5 -2,-8 1,-3 10,3 13,1 -3,8 8,16 13,20 6,5 9,9 17,10 5,1 11,0 16,2 2,1 -1,2 -1,2 -4,1 -3,3 -7,4 -2,1 -15,2 -14,-3 -4,0 -6,-2 -6,3 2,0 3,2 4,3 3,1 5,7 8,10 12,10 30,13 45,10 15,-3 27,-13 34,-27 4,-8 7,-12 7,-31 -1,-19 -6,-37 -12,-46 -7,-12 -21,-30 -22,-29 -2,1 9,9 17,31 2,4 3,17 3,21 0,5 0,21 -3,27l-18 -2c0,0 1,-2 1,-4 0,-1 1,-1 1,-1 0,-3 0,-6 0,-9 0,-7 -2,-12 -4,-18 8,0 1,-5 1,-9 -1,-5 -3,-7 -4,-12 -3,2 -6,3 -7,7 -5,-2 -3,-5 0,-8 4,-5 4,-7 1,-13 -3,-5 -8,-10 -13,-13 -7,-3 -12,-3 -20,-2 -6,0 -11,2 -16,5 -6,0 -6,0 -9,4 -2,3 -5,5 -8,6 -1,5 -6,9 -8,14 -2,4 -1,9 -2,14 4,0 9,0 13,0 5,0 10,2 11,-3 0,-6 7,-11 13,-11 1,-5 -5,-2 -6,-5 -1,-2 -4,-5 -3,-7 1,-4 10,4 11,5 3,4 3,4 9,4 3,0 9,-2 10,3 2,2 14,17 7,17 2,5 8,7 14,7 -1,5 -7,1 -7,6 -1,6 -4,1 -4,-2 -5,0 -20,2 -23,-2 -4,-5 -16,0 -22,-2 -2,-1 -3,-2 -3,-3 -2,0 -4,0 -7,0 -3,0 -8,1 -11,-1 -1,0 -2,-1 -2,-3 -2,0 -5,0 -7,0 -2,0 -4,-3 0,-3 0,-4 3,-8 3,-12 0,-2 -2,-4 -3,-5 0,-4 0,-7 0,-11 0,-13 0,-27 0,-41 0,-5 -2,-13 0,-18l-5 0c3,4 2,12 -1,11 -2,-1 -4,-3 -4,-5 -1,-2 -8,-3 -11,-5 -1,3 -4,4 -7,3 0,14 -2,27 -3,40 0,15 0,29 0,44 1,28 2,106 -1,134 -6,12 -28,2 -50,-120 3,24 9,102 9,115 5,55 8,110 6,165 0,34 -9,190 -10,190 -1,4 -15,3 -20,3 -3,0 -6,0 -9,0 0,0 -13,0 -19,-1 -1,0 -2,0 -4,0 -56,0 -106,-2 -150,-6 -4,0 -8,0 -12,-1 -9,0 -17,-1 -25,-2 -3,0 -6,0 -9,0 -6,-1 -12,-2 -18,-2 -5,-1 -11,-1 -16,-2 -18,-2 -34,-4 -49,-7 -8,-1 -15,-2 -22,-3 -6,-1 -13,-2 -19,-3 -1,0 -2,-1 -3,-1 -4,-1 -8,-1 -12,-2 -1,-1 -3,-1 -4,-1 -3,-1 -7,-1 -10,-2 -2,-1 -5,-1 -7,-2 -3,0 -6,-1 -9,-2 -2,0 -4,0 -5,-1 -4,-1 -7,-1 -10,-2 -1,-1 -2,-1 -4,-1 -4,-1 -23,-6 -23,-6 -2,0 -4,0 -6,-2 -1,0 -2,-1 -3,-2 0,-1 -1,-2 -1,-3 -1,0 -1,-2 -1,-2 -1,-22 -12,-320 -4,-415 0,0 0,3 0,9 0,-6 0,-11 1,-16 -1,23 -1,46 -1,69 1,31 1,71 2,114 0,13 1,26 1,40 0,4 0,9 0,14 1,39 3,78 3,117 1,1 1,3 1,4 0,22 1,41 1,57 0,0 0,1 1,2 0,1 1,3 3,5 2,1 16,7 27,8 -12,-41 -16,-84 -19,-126 -2,-51 -4,-206 -4,-231 1,-12 3,-65 8,-67 44,-12 91,-16 137,-18 80,-3 162,1 242,4 22,1 51,8 67,12 0,-2 -1,-8 0,-13 0,-5 -1,-8 -3,-10 -6,-6 -136,-9 -154,-9 -10,0 -20,0 -30,1 37,-32 81,-46 102,-52 9,0 18,0 27,0 7,0 57,1 67,2 8,2 34,12 32,4 -1,-6 -1,-10 3,-20 0,0 0,0 0,0l-4 1 -60 1 -41 2 -64 2 -29 1 -98 3 -19 1 -75 2 -37 1 -77 3 -29 1 -24 0 -1 0c0,0 -4,0 -5,2 -1,3 -1,6 -1,9 0,7 0,9 0,24 0,1 0,107 0,108 -3,-30 -5,-150 -4,-172l6 0 846 -26c0,4 0,8 0,10 0,16 1,33 1,49 0,31 -1,62 -1,93 0,63 0,126 0,189 0,61 0,123 0,184 0,52 -1,105 1,157 0,20 1,79 1,79l-15 -2zm-224 -608l0 0c-4,-3 -8,-4 -10,-9 0,-2 -2,-12 2,-10 3,1 8,1 8,5 1,4 -2,9 0,14zm142 342l0 0c0,-1 3,-5 3,-5l6 -1c0,0 0,1 0,1 1,1 1,1 1,1 0,1 0,3 -1,5 0,1 0,1 -1,1 -3,0 -6,6 -6,8 0,0 -3,7 1,8 5,1 5,2 5,2 0,0 -6,5 -12,3 0,0 -1,-1 -1,-1 -2,-1 -3,-2 -4,-4 -1,-3 -2,-6 -2,-8 1,-5 2,-4 2,-4l1 4 1 0 4 -1 3 -3c0,0 -1,-5 0,-6zm10 -269l0 0c0,0 4,-3 6,-4 2,0 5,2 7,3 2,5 6,8 11,8 8,0 15,-10 15,-23 0,-10 -5,-19 -11,-21 -2,-1 -6,-3 -10,-3 -5,0 -6,7 -6,7l-3 0c0,0 -5,-2 -7,-4 -1,0 -2,-1 -3,-1l0 -11 0 -24 0 -2c0,-1 0,-1 1,-1l0 0c0,0 4,-3 6,-4 2,0 5,2 7,3 2,5 6,7 11,7 8,0 15,-10 15,-22 0,-10 -5,-19 -11,-21 -2,-2 -6,-3 -10,-3 -5,0 -6,7 -6,7l-3 0c0,0 -5,-2 -7,-4 -1,0 -2,-1 -3,-1l-1 -45 1 0 -1 -44 14 0 14 -1 2 0c5,0 21,-2 21,-2l3 0 0 1 0 0 0 8 0 8 0 22 0 23 0 108 0 152 3 383 -55 -5 0 -95 0 -17 0 -16 0 -1c0,0 4,-3 6,-4 2,0 5,2 7,4 2,4 6,7 11,7 8,0 15,-10 15,-22 0,-11 -5,-19 -11,-22 -2,-1 -6,-3 -10,-3 -5,1 -6,7 -6,7l-3 0c0,0 -5,-2 -7,-3 -1,-1 -2,-1 -3,-1l0 -37c0,0 1,0 1,0l0 0c0,0 4,-3 6,-4 2,0 5,2 7,4 2,4 6,7 11,7 8,0 15,-10 15,-23 0,-10 -5,-19 -11,-21 -2,-1 -6,-3 -10,-3 -5,1 -6,7 -6,7l-3 0c0,0 -5,-2 -7,-4 -1,0 -2,0 -3,0l0 -59 0 -67 0 -43 0 -14 0 -27 0 -19 0 -14 0 -10c0,-1 0,-1 1,-1l0 0zm-1 -31l0 0c-4,-2 -7,-3 -7,-3 2,-1 4,-1 7,-1 1,0 3,1 5,3 4,4 1,9 1,9 -2,-4 -4,-6 -6,-8zm18 -7l0 0c1,-3 4,-2 13,2 8,5 4,16 4,16 0,0 -4,9 -2,-2 1,-11 -15,-16 -15,-16zm2 10l0 0c0,0 6,2 6,5 0,3 -5,4 -5,4 0,0 0,-3 -3,-4 -3,-1 0,-6 2,-5zm-20 -79l0 0c-4,-2 -7,-3 -7,-3 2,-1 4,-1 7,-1 1,0 3,1 5,3 4,4 1,9 1,9 -2,-4 -4,-6 -6,-8zm18 -7l0 0c1,-3 4,-2 13,2 8,5 4,16 4,16 0,0 -4,9 -2,-2 1,-11 -15,-16 -15,-16zm2 10l0 0c0,0 6,2 6,5 0,2 -5,4 -5,4 0,0 0,-3 -3,-4 -3,-1 0,-6 2,-5zm-19 439l0 0c-4,-3 -8,-4 -8,-4 2,0 5,-1 7,0 2,0 4,1 5,2 4,5 1,9 1,9 -2,-3 -4,-5 -5,-7zm17 -7l0 0c1,-3 4,-3 13,2 8,4 4,15 4,15 0,0 -4,10 -2,-1 1,-12 -15,-16 -15,-16zm2 10l0 0c0,0 6,2 6,4 0,3 -5,4 -5,4 0,0 0,-3 -3,-3 -3,-1 0,-6 2,-5zm-2 -85l0 0c1,-2 4,-2 13,2 8,5 4,16 4,16 0,0 -4,9 -2,-2 1,-11 -15,-16 -15,-16zm2 10l0 0c0,0 6,2 6,5 0,3 -5,4 -5,4 0,0 0,-3 -3,-4 -3,-1 0,-6 2,-5zm-20 -7l0 0c2,1 4,2 5,3 4,4 1,9 1,9 -2,-3 -4,-5 -6,-7 -3,-3 -7,-4 -7,-4 2,-1 5,-1 7,-1zm-18 94l0 0 1 3 1 1 4 -2 3 -3c0,0 -1,-4 0,-6 0,-1 3,-5 3,-5l6 -1c0,0 0,1 1,2 0,0 0,1 0,1 0,0 0,2 0,4 -1,1 -1,2 -2,2 -3,0 -6,6 -6,7 0,0 -3,7 1,8 5,1 5,2 5,2 0,0 -6,5 -12,3 0,0 -1,0 -1,-1 -2,-1 -3,-2 -4,-4 -1,-2 -2,-6 -2,-8 1,-4 2,-3 2,-3zm-109 -423l0 0c1,-9 13,0 10,7 -4,-2 -5,-6 -10,-7zm21 10l0 0c-12,-9 17,-8 0,0zm34 -38l0 0c8,12 -11,-8 0,0zm-21 -27l0 0c-13,-3 16,-11 4,-4 1,6 -3,7 -4,4zm-10 -7l0 0c0,3 -1,11 -5,6 -2,-3 -2,-7 -2,-10 3,1 4,4 7,4zm-27 21l0 0c-5,11 -9,-14 0,0zm220 29l0 0c0,-1 0,-2 0,-2l0 0 0 2z"/>
  <path class="fil0" d="M740 317c23,23 38,72 24,78 -3,1 -6,-1 -11,0 -5,0 -6,-26 -7,-34 0,-2 -3,-13 -5,-16 -4,-7 -7,-14 -13,-19 -2,-1 -7,-7 -13,-10 -8,-3 -18,-4 -20,-4 -5,0 -17,4 -19,4 -11,8 -12,13 -15,18 -1,2 3,7 2,8 -1,1 -5,-2 -6,-2l0 2c1,4 3,8 4,12 0,7 -1,13 -1,20 4,0 4,8 4,10 0,7 5,11 7,17 3,0 2,-3 0,-3 0,-2 1,-4 4,-4 4,1 8,7 6,11 3,-1 3,-5 5,-7 1,0 4,-2 0,-3 -3,-1 -2,-4 -2,-7 0,0 -5,3 -5,2 -1,-1 2,-5 2,-6 0,-4 0,-9 0,-14 4,4 9,4 14,4 7,1 0,-6 0,-8 -1,-5 7,-9 0,-9 -4,-1 -7,-3 -5,-7 2,-4 4,-7 8,-7 6,0 12,-1 16,3 4,3 6,7 8,11 5,1 3,10 4,13 -5,0 -9,0 -14,0 -2,0 -5,0 -7,0 0,4 -1,7 2,9 6,4 12,7 12,16 -5,0 -3,1 -6,4 -2,2 -6,3 -9,2 -4,-2 -9,-5 -14,-2 -3,0 13,6 15,6 -2,4 -5,7 -10,7 0,2 3,2 5,4 1,0 2,1 2,3 3,0 7,0 10,0 5,0 5,0 9,-4 1,-1 3,0 3,2 2,4 -6,6 -9,7 -6,3 -13,1 -20,1 -4,1 -13,3 -14,-3 -11,0 6,8 8,10 4,4 10,12 20,16 11,4 33,0 40,-4 6,-4 12,-9 17,-14 5,-5 13,-27 9,-49 -4,-24 -13,-48 -35,-64zm-54 8l0 0c1,-1 2,-1 3,-2 0,0 0,0 0,0 -1,1 -5,3 -3,2z"/>
  <polygon class="fil0" points="818,715 817,771 854,774 853,718 "/>
  <polygon class="fil0" points="853,333 818,330 817,386 854,389 "/>
 </g>
</svg>
