<?xml version="1.0" encoding="UTF-8"?>
<!DOCTYPE svg PUBLIC "-//W3C//DTD SVG 1.1//EN" "http://www.w3.org/Graphics/SVG/1.1/DTD/svg11.dtd">
<!-- Creator: CorelDRAW X7 -->
<svg xmlns="http://www.w3.org/2000/svg" xml:space="preserve" width="1.56274in" height="1.46874in" version="1.1" style="shape-rendering:geometricPrecision; text-rendering:geometricPrecision; image-rendering:optimizeQuality; fill-rule:evenodd; clip-rule:evenodd"
viewBox="0 0 2863 2691"
 xmlns:xlink="http://www.w3.org/1999/xlink">
 <defs>
  <style type="text/css">
   <![CDATA[
    .fil0 {fill:#BFADAA;fill-rule:nonzero}
   ]]>
  </style>
 </defs>
 <g id="Vector_x0020_Graphics">
  <metadata id="CorelCorpID_0Corel-Layer"/>
  <path class="fil0" d="M2863 2017l0 -2017 -2863 0 0 2017 206 0 0 41 -2 0 -1 7 -65 599 127 27 56 -231 15 0 -1 3 88 0 0 -1 0 0 3 -17 75 -428 1807 0 84 448 104 -7 -1 -11 2 0 -8 -187 94 426 145 -27 -77 -612 -7 1 0 -31 219 0zm-2838 -1968l0 0 2721 0 42 0 -45 60 -35 0 -2680 0 -3 -60zm2271 1606l0 0 -2 0 0 -1398c0,-19 0,-47 0,-63 0,-17 16,-30 36,-30l0 0 317 0c20,0 36,13 36,30 0,16 0,44 0,63l0 1398 -1 0c11,96 -29,95 -29,95l-332 0 0 -1c-10,-2 -34,-17 -25,-94zm-100 154l0 0c0,22 -18,41 -41,41l-1913 0c-22,0 -40,-25 -40,-47l0 -1569c0,-23 18,-41 40,-41l1913 0c23,0 41,18 41,41l0 1575zm-1942 864l0 0 -100 -21 64 -578 157 4 -61 345 -60 250zm-140 -760l0 0 0 -1783 20 0 0 1772 2622 0 0 11 -2642 0zm2597 734l0 0 -116 21 -100 -452 -3 -71 -14 -58 162 -7 71 567z"/>
  <path class="fil0" d="M2325 1723l328 0c33,1 29,-68 29,-68l-1 0 0 -1398c0,-19 0,-47 0,-63 0,-15 -15,-28 -34,-28l-317 0c-19,0 -34,13 -34,28 0,16 0,44 0,63l0 1398 0 0c0,0 -4,69 29,68zm301 -61l0 0 -275 0 0 -18 275 0 0 18zm0 -29l0 0 -275 0 0 -18 275 0 0 18zm0 -29l0 0 -275 0 0 -19 275 0 0 19zm0 -30l0 0 -275 0 0 -18 275 0 0 18zm0 -29l0 0 -275 0 0 -18 275 0 0 18zm0 -29l0 0 -275 0 0 -18 275 0 0 18zm0 -29l0 0 -275 0 0 -18 275 0 0 18zm0 -29l0 0 -275 0 0 -18 275 0 0 18zm0 -29l0 0 -275 0 0 -18 275 0 0 18zm0 -30l0 0 -275 0 0 -18 275 0 0 18zm0 -29l0 0 -275 0 0 -18 275 0 0 18zm0 -29l0 0 -275 0 0 -18 275 0 0 18zm0 -29l0 0 -275 0 0 -18 275 0 0 18zm0 -29l0 0 -275 0 0 -18 275 0 0 18zm0 -29l0 0 -275 0 0 -18 275 0 0 18zm0 -30l0 0 -275 0 0 -18 275 0 0 18zm0 -29l0 0 -275 0 0 -18 275 0 0 18zm0 -29l0 0 -275 0 0 -18 275 0 0 18zm0 -29l0 0 -275 0 0 -18 275 0 0 18zm0 -29l0 0 -275 0 0 -18 275 0 0 18zm0 -29l0 0 -275 0 0 -18 275 0 0 18zm0 -29l0 0 -275 0 0 -19 275 0 0 19zm0 -30l0 0 -275 0 0 -18 275 0 0 18zm-137 -562l0 0c48,0 88,40 88,88 0,49 -40,88 -88,88 -49,0 -88,-39 -88,-88 0,-48 39,-88 88,-88zm-13 -140l0 0 0 -15 53 0 2 -1c1,-10 4,-17 8,-17 5,0 9,14 9,30 0,16 -4,29 -9,29 0,0 -22,6 -22,-26l-41 0zm83 0l0 0 0 -15 54 0 0 15 -54 0zm18 492l0 0c0,48 -40,88 -88,88 -49,0 -88,-40 -88,-88 0,-49 39,-88 88,-88 48,0 88,39 88,88zm-175 -489l0 0c0,0 0,0 0,0 0,1 -1,1 -1,1 0,0 0,0 0,0 0,1 -1,1 -1,1 0,0 0,0 0,0 0,0 0,1 -1,1 0,0 0,0 0,0 0,0 0,1 -1,1 0,0 0,0 0,0 0,0 0,0 0,1 -1,0 -1,0 -1,0 0,0 0,0 0,1 -1,0 -1,0 -1,0 0,0 0,0 0,1 0,0 -1,0 -1,0 0,0 0,0 0,0 0,1 -1,1 -1,1 0,0 0,0 0,0 -4,4 -9,7 -15,7 -11,0 -20,-10 -20,-21 0,-6 2,-11 6,-15 0,0 0,0 0,0 0,0 1,0 1,-1 0,0 0,0 0,0 0,0 1,0 1,0 0,-1 0,-1 0,-1 0,0 0,0 1,0 0,-1 0,-1 0,-1 0,0 0,0 1,0 0,0 0,-1 0,-1 0,0 0,0 1,0 0,0 0,-1 0,-1 0,0 0,0 0,0 1,0 1,0 1,-1 0,0 0,0 0,0 1,0 1,0 1,-1 0,0 0,0 0,0 0,0 1,0 1,-1 0,0 0,0 0,0 4,-4 9,-6 15,-6 11,0 20,9 20,20 0,6 -2,11 -6,15zm-60 -134l0 0 294 0c20,0 25,29 26,47 -5,-26 -17,-32 -23,-34l0 -1 -297 0c0,0 -20,0 -26,35 1,-18 6,-47 26,-47z"/>
  <path class="fil0" d="M2155 205l-1913 0c-16,0 -29,13 -29,29l0 1569c0,16 13,29 29,29l1913 0c16,0 29,-13 29,-29l0 -1569c0,-16 -13,-29 -29,-29zm-70 1269l0 0 -1 2c-1,6 -2,13 -3,20 0,0 -14,147 -104,168 0,0 -680,141 -1522,0 0,0 -113,-12 -140,-153 0,0 -64,-511 0,-1026 0,0 5,-113 111,-136 0,0 680,-141 1522,0 130,32 133,122 133,122 0,0 63,496 3,1003l1 0z"/>
 </g>
</svg>
