<?xml version="1.0" encoding="UTF-8"?>
<!DOCTYPE svg PUBLIC "-//W3C//DTD SVG 1.1//EN" "http://www.w3.org/Graphics/SVG/1.1/DTD/svg11.dtd">
<!-- Creator: CorelDRAW X7 -->
<svg xmlns="http://www.w3.org/2000/svg" xml:space="preserve" width="2.01314in" height="1.4122in" version="1.1" style="shape-rendering:geometricPrecision; text-rendering:geometricPrecision; image-rendering:optimizeQuality; fill-rule:evenodd; clip-rule:evenodd"
viewBox="0 0 39152 27465"
 xmlns:xlink="http://www.w3.org/1999/xlink">
 <defs>
  <style type="text/css">
   <![CDATA[
    .fil0 {fill:#BFACAA;fill-rule:nonzero}
   ]]>
  </style>
 </defs>
 <g id="Graphics">
  <metadata id="CorelCorpID_0Corel-Layer"/>
  <path class="fil0" d="M23148 12491c-305,98 340,374 0,0z"/>
  <path class="fil0" d="M21360 13050c21,88 112,125 112,223 37,0 74,0 111,0 -29,-124 -118,-223 -223,-223z"/>
  <path class="fil0" d="M27665 3484c-3,-124 7,-268 -8,-268 -423,0 -846,0 -1268,0 0,112 0,223 0,335 0,64 -8,80 11,95 35,27 117,17 212,17 261,0 521,0 782,0 120,4 142,1 271,-4 2,-53 2,-105 0,-175zm-494 -156l0 0c234,0 223,-11 223,223 -234,0 -223,11 -223,-223z"/>
  <path class="fil0" d="M39126 6024c-55,-219 -233,-339 -412,-406 -73,-89 -181,-167 -257,-167 -130,-219 -190,-473 -222,-724l-8 -1577c14,-247 28,-494 34,-739 6,-212 -23,-634 -41,-840 -5,-72 -7478,-976 -7478,-976l-1675 -12 7 210 -2609 119 -1505 -912 -951 0 -12842 701 -47 908 -10774 490 2 29 -348 -6 463 21767 30 -1c35,26 99,1 194,1 111,0 223,0 335,0 224,0 447,0 670,0 138,0 144,-121 295,-107l9 1c46,7 97,25 125,64 59,81 248,42 354,42 4,-16 11,-30 18,-43l26508 3343 1 -3 198 18 -12 179c0,0 1262,82 1335,82 19,0 37,0 56,0l0 -10 -67 -26702 111 -1 16 175 52 26538 -56 0 -11 0c3,0 7,0 11,0 27,0 54,0 81,0l5 -2 31 -9 344 -109 65 -20 304 -97 82 -25 239 -76 93 -29 278 -88 227 -72 81 -25 -1 -4c16,-5 32,-11 49,-14 3,0 7,0 10,-1l496 -156c45,-32 90,-64 174,-56l339 -106c7,-4 15,-6 23,-8l284 -89c14,-7 29,-12 45,-15l601 -189c39,-32 93,-46 152,-49l2278 -719 1152 -364 106 -34 185 -58 33 -11 211 -336c328,-206 302,-1150 302,-1150 0,0 51,-2486 105,-5586 3,-1 5,-1 7,-2 0,-121 0,-243 0,-364 88,-4968 184,-11284 110,-11578zm-37994 -3419l0 0 -2 -318 10463 -476 733 -32c0,-1 1,-1 1,-1l527 -24c3,0 6,1 8,1l1704 -76c1,-1 1,-2 2,-3l374 -17c8,1 17,1 26,2l1501 -66c1,-2 1,-4 3,-5l852 -39c58,-1 115,-1 173,-2l1087 -48c2,-3 3,-6 4,-7l1444 -66c61,0 123,0 184,0l363 -16c0,-3 0,-6 0,-9l1913 -87c70,0 139,0 209,0 0,-3 1,-6 1,-9l6364 -289 0 419 -27667 1082 -43 278c0,-47 1,-93 1,-140 0,-192 -117,-134 -225,-52zm27508 24190l0 0 -563 -71 -420 -53 -621 -78 -163 -21 -586 -74 -306 -39 -820 -103 -66 -8 -1722 -217 -50 -7 -11094 -1399 -5358 -676 -4413 -556 -781 -98 1 -84 3 -279 10 5c-2,-490 -13,-982 6,-1471 4,-80 -14,-247 39,-316 5,-7 15,10 26,38 28,74 64,231 66,244 21,113 39,228 55,342 6,39 12,78 17,118l34 6 140 28c463,83 918,163 1367,239 118,19 235,39 352,59 62,10 124,21 186,31 1947,322 3764,580 5422,785 26,3 52,7 77,10 138,17 274,33 410,49 80,10 161,20 240,29 518,61 1018,118 1501,169 4715,501 7754,554 8299,560 59,0 89,0 89,0l3 13c24,-35 -1,-99 -1,-193 0,-260 0,-521 0,-782 0,-29 -7,-735 70,-672 62,51 54,204 56,272 5,244 24,1395 -14,1406 0,85 12,182 2,266 -4,28 2,223 2,223 0,0 -112,-9 -318,-26 -77,10 -160,7 -234,-19 -266,-22 -621,-52 -1049,-88 -146,4 -519,-28 -552,-48 -287,-25 -1855,-165 -2171,-194 -79,3 -302,-16 -320,-30 -213,-20 -431,-40 -653,-61 -121,4 -942,-91 -1212,-117 -180,13 -936,-93 -1166,-116 -98,8 -190,5 -266,-27 -3617,-370 -7645,-843 -10167,-1327 -237,-19 -65,434 -111,558 0,106 81,162 193,198l23643 2801c42,-2 82,2 118,14l2550 302c161,-19 306,-22 315,38l4 -1c56,-1254 38,-2513 -18,-3768l-78 -20216 2 -133 -55 1 -241 9 -6425 236 -453 17 -264 9 -524 19 -664 25 -235 8 -401 15 -2306 84 -345 13 -6272 230c-88,5 -177,9 -267,9l-2624 96 -334 13 -4924 180 -641 24 -26 0 -18 96c-14,5 -29,10 -45,14 0,30 0,61 0,91l44 -100 -44 232 18890 -580 1723 -53 784 -24 2363 -73 470 -14 0 355 -36 113 5 2591c-118,110 -200,283 -209,482 -8,167 35,321 112,438 -42,-87 -53,-189 -49,-269 7,-146 59,-105 59,-105l20 105 41 22 27 -12 100 -44 105 -97c0,0 -34,-139 -19,-180 15,-41 117,-173 117,-173l172 -21 8 -1c0,0 41,60 37,75 -3,13 2,144 -45,181 -7,6 -16,10 -26,10 -75,0 -172,195 -172,255 0,0 -109,225 30,259 138,33 153,44 153,44 0,0 -191,169 -382,109 -19,-5 -33,-13 -49,-22 -10,-5 -20,-11 -29,-17l1 315 1 867 1 249c-120,111 -204,285 -213,486 -8,167 35,321 112,438 -42,-87 -53,-189 -49,-269 7,-146 59,-105 59,-105l20 105 41 23 31 -14 96 -43 105 -97c0,0 -34,-139 -19,-180 15,-41 117,-172 117,-172l177 -23 3 0c0,0 41,60 37,75 -3,12 1,132 -39,175 -9,10 -19,16 -32,16 -75,0 -172,195 -172,255 0,0 -109,225 30,259 138,33 153,45 153,45 0,0 -191,168 -382,108 -19,-5 -33,-13 -49,-22 -8,-4 -17,-9 -24,-14l1 743 2 1425 1 995 -12 2536 -4639 -257 -3 -322c0,-40 0,-82 0,-123l-15 -1426c-1,-1 -1,-2 -3,-3l-7 -638c1,1 2,1 3,2l-10 -932c-1,-1 -2,-3 -3,-5l-7 -602 -18 -1690 13 -1723c78,-165 -81,-192 -56,-289 23,-87 317,128 439,54 -122,242 252,515 401,645 200,175 291,290 556,326 170,22 370,12 533,70 59,21 -26,47 -46,52 -113,33 -94,103 -207,138 -77,24 -503,60 -455,-113 -149,0 -224,-64 -224,111 64,15 97,72 154,98 78,35 150,242 262,337 390,328 961,395 1447,297 477,-96 892,-409 1110,-874 117,-248 218,-394 218,-1010 -34,-616 -195,-1191 -378,-1496 -226,-379 -684,-964 -718,-935 -58,47 293,289 564,1007 51,133 96,558 96,676 0,185 -24,709 -104,898l-581 -67c0,0 18,-80 26,-148 9,-4 17,-9 28,-12 13,-103 17,-208 10,-312 -14,-200 -73,-389 -122,-582 236,0 29,-142 11,-279 -21,-154 -77,-231 -122,-391 -100,49 -202,104 -224,223 -184,-59 -116,-163 -12,-264 146,-143 132,-226 36,-410 -94,-180 -242,-322 -421,-417 -231,-123 -389,-121 -638,-93 -201,23 -357,69 -530,178 -205,0 -190,-6 -302,145 -66,87 -155,151 -257,191 -38,161 -194,289 -256,444 -55,138 -42,305 -79,450 149,0 298,0 447,0 139,0 321,63 336,-86 23,-213 251,-361 446,-361 37,-170 -178,-53 -212,-160 -19,-60 -113,-164 -99,-230 25,-123 339,127 368,162 102,125 84,116 279,116 117,0 293,-39 335,112 73,56 471,555 223,558 82,167 279,211 448,224 -5,153 -207,36 -226,199 -21,183 -123,15 -110,-88 -160,0 -648,88 -755,-54 -124,-167 -528,6 -729,-71 -46,-16 -73,-49 -80,-98 -75,0 -149,0 -224,0 -105,0 -277,35 -375,-16 -37,-22 -62,-54 -72,-96 -65,-1 -131,0 -197,3 -81,-9 -143,-108 -26,-114 6,-133 99,-252 96,-381 -2,-71 -49,-130 -96,-178 0,-112 0,-223 0,-335 0,-447 0,-894 0,-1341 0,-174 -46,-430 22,-596l-161 8c69,137 59,384 -54,343 -65,-25 -118,-93 -136,-159 -15,-54 -261,-102 -342,-155 -29,104 -128,125 -223,112 0,430 -69,855 -88,1285 -22,480 -15,961 -2,1441 24,916 40,3443 -53,4356 -185,375 -889,58 -1627,-3896 117,770 304,3297 317,3742 157,1782 228,3573 190,5361 -23,1096 -308,6158 -337,6159 -38,152 -494,102 -635,102 -98,0 -195,-1 -292,-2 0,0 -439,-11 -635,-13 -39,0 -77,-1 -116,-1 -1830,-18 -3458,-91 -4895,-195 -135,-10 -268,-21 -399,-31 -275,-22 -543,-45 -803,-69 -98,-9 -195,-18 -291,-27 -193,-19 -382,-38 -567,-58 -182,-19 -360,-39 -534,-59 -577,-68 -1111,-139 -1601,-212 -243,-37 -475,-73 -698,-110 -214,-36 -418,-71 -612,-107 -33,-6 -66,-12 -98,-18 -141,-26 -276,-53 -407,-78 -44,-9 -89,-18 -133,-26 -107,-22 -211,-44 -311,-65 -83,-18 -163,-35 -241,-52 -99,-22 -193,-43 -284,-65 -60,-13 -120,-27 -177,-41 -108,-26 -210,-51 -306,-75 -42,-11 -84,-22 -125,-32 -129,-34 -763,-178 -763,-178 -56,-15 -115,-23 -208,-82 -9,-5 -49,-25 -75,-58 -23,-32 -41,-71 -54,-102 -5,-13 -15,-46 -16,-75 -33,-712 -405,-10392 -147,-13487 0,0 1,101 2,285 11,-167 22,-333 35,-500 -15,744 -20,1488 -18,2232 11,1005 29,2304 58,3710 8,422 18,855 29,1290 4,157 8,314 13,471 37,1262 76,2524 106,3787 0,48 1,97 2,146 21,705 40,1337 54,1846 0,10 3,42 9,61 14,44 45,122 108,161 56,36 513,254 868,264 -380,-1326 -506,-2726 -587,-4098 -97,-1650 -154,-6677 -134,-7502 9,-378 96,-2126 241,-2167 1452,-407 2975,-542 4477,-597 2600,-95 5245,19 7839,131 728,31 1671,248 2190,385 0,-60 -23,-245 -10,-431 20,-146 -24,-236 -98,-303 -170,-192 -4415,-309 -4981,-303 -327,3 -656,10 -985,18 1212,-1021 2625,-1488 3326,-1670 288,-1 577,-1 866,-1 235,0 1845,14 2188,70 264,43 1097,374 1038,107 -38,-173 -38,-308 91,-621 0,0 0,-1 1,-2l-130 4 -1950 63 -1350 43 -2052 66 -964 31 -3183 103 -615 19 -2449 79 -1181 38 -2515 80 -957 31 -751 24 -62 2c0,0 -132,-2 -156,61 -36,94 -27,204 -24,301 9,217 -6,265 8,780 1,24 0,3477 -15,3497 -87,-964 -145,-4881 -135,-5608l206 29 27495 -873c3,135 15,262 15,335 0,532 12,1063 12,1595 0,1006 -12,2014 -12,3020 0,2050 0,4100 0,6150 0,1996 0,3992 0,5988 0,1700 -33,3396 17,5095 20,660 54,2587 54,2587l-502 -74zm-7280 -19780l0 0c-125,-74 -272,-138 -319,-289 -20,-62 -64,-377 73,-320 91,38 240,35 257,151 23,148 -65,315 -11,458zm4607 11131l0 0c15,-41 117,-172 117,-172l180 -22c0,0 8,13 17,28 11,17 22,38 20,47 -2,9 0,87 -19,140 -11,29 -26,51 -52,51 -75,0 -172,195 -172,255 0,0 -109,225 30,258 138,34 153,45 153,45 0,0 -191,169 -382,109 -19,-5 -33,-14 -49,-22 -59,-32 -99,-80 -127,-137 -42,-86 -53,-188 -49,-268 7,-147 59,-105 59,-105l20 105 41 22 127 -56 105 -98c0,0 -34,-138 -19,-180zm349 -8753l0 0c0,0 104,-104 194,-126 51,-13 136,53 199,111 91,142 218,232 361,232 272,0 493,-326 493,-726 0,-337 -155,-619 -366,-702 -55,-35 -170,-99 -294,-88 -171,15 -223,223 -223,223l-97 0c0,0 -147,-60 -229,-119 -21,-15 -55,-22 -94,-23l0 -378 -2 -781 0 -70c10,-6 20,-11 30,-18l28 -9c0,0 104,-104 194,-126 51,-13 136,53 199,111 91,142 218,232 361,232 272,0 493,-326 493,-727 0,-336 -155,-619 -366,-701 -55,-36 -170,-99 -294,-88 -171,14 -223,223 -223,223l-97 0c0,0 -147,-60 -229,-119 -22,-16 -58,-22 -99,-23l-3 -1477 6 7 -9 -1438 436 -13 452 -14 89 -3c156,11 657,-51 657,-51l118 0 0 27 0 1 0 252 0 248 0 735 0 724 0 3531 0 4938 98 12446 -1802 -167 -7 -3085 0 -537 -2 -541 28 -9c0,0 104,-104 194,-126 51,-13 136,53 199,111 91,142 218,232 361,232 272,0 493,-326 493,-727 0,-336 -155,-618 -366,-701 -55,-36 -170,-99 -294,-88 -171,14 -223,223 -223,223l-97 0c0,0 -147,-60 -229,-119 -17,-12 -40,-19 -68,-21l-3 -1187c2,-1 4,-2 5,-3l28 -10c0,0 104,-103 194,-126 51,-12 136,54 199,112 91,142 218,231 361,231 272,0 493,-325 493,-726 0,-336 -155,-619 -366,-701 -55,-36 -170,-99 -294,-89 -171,15 -223,223 -223,223l-97 0c0,0 -147,-59 -229,-119 -18,-12 -43,-19 -74,-21l-3 -1922 -5 -2151 -3 -1409 -1 -452 -2 -893 -1 -620 -1 -439 -1 -340c8,-5 17,-9 25,-14l28 -10zm-55 -999l0 0c-107,-82 -207,-111 -207,-111 54,-14 127,-32 207,-19 56,9 116,33 175,90 142,135 19,285 19,285 -47,-111 -122,-190 -194,-245zm610 -224l0 0c8,-94 116,-86 393,60 278,146 143,506 143,506 0,0 -116,311 -79,-52 37,-364 -457,-514 -457,-514zm64 322l0 0c0,0 179,61 179,150 0,90 -146,124 -146,124 0,0 -19,-86 -116,-116 -97,-30 11,-191 83,-158zm-679 -2576l0 0c-104,-79 -202,-107 -202,-107 53,-14 124,-31 202,-20 58,8 119,33 180,91 142,135 19,285 19,285 -48,-114 -125,-194 -199,-249zm615 -220l0 0c8,-94 116,-86 393,60 278,146 143,506 143,506 0,0 -116,311 -79,-52 37,-364 -457,-514 -457,-514zm64 322l0 0c0,0 179,61 179,150 0,90 -146,124 -146,124 0,0 -19,-86 -116,-116 -97,-30 11,-191 83,-158zm-649 14278l0 0c-115,-97 -232,-131 -232,-131 60,-15 143,-36 232,-14 49,12 99,37 150,85 142,135 19,285 19,285 -42,-98 -105,-171 -169,-225zm585 -244l0 0c8,-94 116,-86 393,60 278,146 143,506 143,506 0,0 -116,311 -79,-53 37,-363 -457,-513 -457,-513zm64 322l0 0c0,0 179,60 179,150 0,90 -146,124 -146,124 0,0 -19,-86 -116,-116 -97,-30 11,-191 83,-158zm-64 -2738l0 0c8,-93 116,-86 393,61 278,146 143,506 143,506 0,0 -116,311 -79,-53 37,-363 -457,-514 -457,-514zm64 323l0 0c0,0 179,60 179,150 0,90 -146,123 -146,123 0,0 -19,-86 -116,-116 -97,-30 11,-191 83,-157zm-654 -225l0 0c50,11 103,37 155,86 142,135 19,285 19,285 -43,-100 -108,-174 -174,-229 -113,-94 -227,-127 -227,-127 59,-14 139,-36 227,-15zm-588 3034l0 0 20 105 41 23 127 -57 105 -97c0,0 -34,-139 -19,-180 15,-41 117,-173 117,-173l180 -22c0,0 12,18 23,37 8,15 16,31 14,38 -2,8 -1,72 -14,124 -10,36 -26,67 -57,67 -75,0 -172,195 -172,255 0,0 -109,225 30,259 138,33 153,44 153,44 0,0 -191,169 -382,109 -19,-5 -33,-14 -49,-22 -59,-31 -99,-80 -127,-137 -42,-86 -53,-188 -49,-268 7,-146 59,-105 59,-105zm-3551 -13753l0 0c46,-278 433,-6 335,224 -146,-40 -176,-197 -335,-224zm671 336l0 0c-385,-289 574,-270 0,0zm1118 -1230l0 0c269,375 -376,-270 0,0zm-671 -893l0 0c-435,-99 511,-355 111,-112 32,199 -105,229 -111,112zm-335 -224l0 0c0,99 -22,376 -173,187 -62,-78 -45,-207 -51,-299 88,21 125,112 224,112zm-895 670l0 0c-163,371 -278,-435 0,0zm7154 944l0 0c0,-19 -1,-39 -1,-59l1 0 0 59z"/>
  <path class="fil0" d="M24051 10322c764,745 1233,2333 798,2510 -95,42 -211,-17 -360,-6 -157,12 -189,-829 -221,-1083 -9,-79 -115,-422 -184,-535 -134,-218 -220,-449 -428,-613 -41,-31 -203,-214 -412,-306 -266,-117 -591,-145 -655,-145 -140,0 -558,141 -605,145 -356,249 -409,414 -478,560 -35,74 74,237 44,267 -26,26 -149,-53 -182,-73l3 87c27,128 99,247 106,392 9,210 -5,423 -5,634 129,3 111,256 111,335 0,218 154,360 224,559 92,-16 88,-113 0,-112 11,-68 53,-126 129,-117 145,18 265,203 206,341 104,-24 84,-161 164,-209 42,-25 119,-82 12,-116 -109,-35 -64,-123 -64,-234 -16,8 -162,106 -190,78 -28,-28 70,-174 78,-190 0,-149 0,-298 0,-447 120,105 296,118 447,112 222,48 12,-200 5,-261 -16,-149 242,-277 10,-304 -126,-14 -237,-73 -174,-212 60,-132 126,-229 271,-229 187,0 369,-26 522,106 109,94 173,228 260,341 165,38 99,331 112,447 -149,0 -298,0 -447,0 -74,0 -149,0 -223,0 0,108 -37,200 58,265 196,133 383,255 388,517 -163,0 -104,33 -195,140 -64,78 -181,114 -275,70 -158,-74 -296,-149 -482,-76 -71,27 427,192 506,202 -54,151 -176,228 -336,223 19,81 113,89 171,127 35,22 53,54 53,96 112,0 223,0 335,0 178,0 174,4 286,-100 46,-43 100,-22 118,34 55,161 -197,208 -297,248 -205,80 -435,19 -649,41 -128,13 -427,77 -464,-111 -368,0 194,260 258,317 143,128 322,414 656,538 362,134 1061,-9 1287,-140 212,-123 406,-280 577,-457 160,-166 394,-869 282,-1594 -121,-788 -428,-1562 -1151,-2062zm-1754 244l0 0c37,-21 74,-43 111,-64 1,-1 2,-1 3,-1 -47,26 -165,95 -114,65z"/>
  <polygon class="fil0" points="26593,23239 26575,25061 27777,25155 27739,23352 "/>
  <polygon class="fil0" points="27739,10836 26593,10724 26575,12545 27777,12639 "/>
 </g>
</svg>
