<?xml version="1.0" encoding="UTF-8"?>
<!DOCTYPE svg PUBLIC "-//W3C//DTD SVG 1.1//EN" "http://www.w3.org/Graphics/SVG/1.1/DTD/svg11.dtd">
<!-- Creator: CorelDRAW X7 -->
<svg xmlns="http://www.w3.org/2000/svg" xml:space="preserve" width="3.02709in" height="2.78237in" version="1.1" style="shape-rendering:geometricPrecision; text-rendering:geometricPrecision; image-rendering:optimizeQuality; fill-rule:evenodd; clip-rule:evenodd"
viewBox="0 0 2661 2446"
 xmlns:xlink="http://www.w3.org/1999/xlink">
 <defs>
  <style type="text/css">
   <![CDATA[
    .fil1 {fill:#317ABE;fill-rule:nonzero}
    .fil4 {fill:#6A6A6A;fill-rule:nonzero}
    .fil0 {fill:#7C7C7D;fill-rule:nonzero}
    .fil3 {fill:#ACACAC;fill-rule:nonzero}
    .fil2 {fill:#BFACAA;fill-rule:nonzero}
    .fil6 {fill:black;fill-rule:nonzero}
    .fil5 {fill:#9700D3;fill-rule:nonzero}
   ]]>
  </style>
 </defs>
 <g id="Graphics">
  <metadata id="CorelCorpID_0Corel-Layer"/>
  <path class="fil0" d="M956 2178c-8,0 -14,6 -14,14 0,8 6,14 14,14 8,0 15,-6 15,-14 0,-8 -7,-14 -15,-14z"/>
  <path class="fil1" d="M257 235c0,0 -67,684 -14,1572 0,0 922,67 2156,7l5 -6 2 -7c0,0 63,-775 -2,-1551 0,0 -812,-84 -2147,-15z"/>
  <path class="fil0" d="M97 2195l2 127c1,0 1,1 1,3 0,2 1,4 2,7 2,4 6,9 14,10l0 4 0 -4c0,0 30,6 86,14 57,9 139,20 245,31 210,23 511,45 874,45 343,0 741,-20 1169,-79l1 0 0 0c0,0 2,0 6,0 5,0 15,-1 22,-4 7,-4 12,-9 13,-19 0,-27 5,-94 7,-112 -54,8 -560,77 -1209,77 -383,0 -815,-24 -1233,-100z"/>
  <path class="fil0" d="M883 2175c-8,1 -14,7 -14,14 0,8 6,14 14,14 8,0 14,-6 14,-14 0,-7 -6,-13 -14,-14z"/>
  <path class="fil0" d="M656 2163c-11,0 -20,9 -20,19 0,11 9,19 20,19 11,0 20,-8 20,-19 0,-10 -9,-19 -20,-19z"/>
  <path class="fil0" d="M1173 2183c-7,0 -14,6 -14,14 0,7 7,13 14,13 8,0 15,-6 15,-13 0,-8 -7,-14 -15,-14z"/>
  <path class="fil0" d="M737 2169c-8,0 -14,7 -14,14 0,8 6,14 14,14 8,0 14,-6 14,-14 0,-7 -6,-14 -14,-14z"/>
  <path class="fil0" d="M808 2174c-8,0 -14,6 -14,14 0,8 6,14 14,14 8,0 14,-6 14,-14 0,-8 -6,-14 -14,-14z"/>
  <path class="fil0" d="M1091 2181c-8,0 -14,6 -14,14 0,8 6,14 14,14 8,0 15,-6 15,-14 0,-8 -7,-14 -15,-14z"/>
  <path class="fil0" d="M2607 150c0,0 0,-8 -2,-20 -2,-11 -5,-25 -12,-36 -10,-13 -24,-19 -53,-19l0 0 -1 0c0,0 -20,-4 -63,-10 -44,-5 -110,-13 -204,-21 -188,-15 -484,-30 -916,-30 -333,0 -748,9 -1256,34 -1,1 -3,1 -7,2 -4,2 -10,4 -15,8 -12,7 -24,17 -25,32 0,1 -2,36 -6,101 -4,64 -8,158 -13,276 -10,235 -19,564 -19,939 0,223 3,462 12,707 0,0 0,6 1,14 1,7 3,16 6,21 3,4 16,14 29,22 12,8 26,15 31,17 419,76 852,100 1236,100 514,0 939,-43 1119,-65 59,-7 91,-12 93,-12l0 0c0,0 4,0 9,-3 6,-2 14,-5 22,-11 16,-11 32,-29 34,-62 3,-46 40,-360 40,-918 0,-290 -10,-647 -40,-1066zm-2027 2083l0 0c-248,-29 -498,-75 -498,-75l0 -199c20,9 501,24 501,24l-3 250zm76 -24l0 0c-15,0 -27,-12 -27,-27 0,-15 12,-26 27,-26 15,0 27,11 27,26 0,15 -12,27 -27,27zm-6 -76l0 0 0 -11 19 0 0 11 -19 0zm87 72l0 0c-12,0 -22,-10 -22,-22 0,-12 10,-21 22,-21 12,0 22,9 22,21 0,12 -10,22 -22,22zm-15 -63l0 0 0 -17 99 0 0 17 -99 0zm86 67l0 0c-12,0 -22,-9 -22,-21 0,-12 10,-21 22,-21 12,0 22,9 22,21 0,12 -10,21 -22,21zm75 2l0 0c-12,0 -22,-10 -22,-22 0,-11 10,-21 22,-21 12,0 22,10 22,21 0,12 -10,22 -22,22zm-9 -66l0 0 0 -19 99 0 0 19 -99 0zm82 68l0 0c-12,0 -22,-9 -22,-21 0,-12 10,-22 22,-22 13,0 23,10 23,22 0,12 -10,21 -23,21zm135 3l0 0c-12,0 -22,-9 -22,-21 0,-12 10,-21 22,-21 12,0 22,9 22,21 0,12 -10,21 -22,21zm28 -64l0 0 -61 0 0 -17 61 0 0 17zm54 66l0 0c-12,0 -22,-10 -22,-21 0,-12 10,-22 22,-22 13,0 23,10 23,22 0,11 -10,21 -23,21zm49 -65l0 0 -71 0 0 -16 71 0 0 16zm-999 -328l0 0c-86,-545 -9,-1622 -9,-1622 -42,263 -39,836 -32,1222 4,226 32,383 32,383l-55 36c-43,-586 22,-1678 22,-1678l33 37c1367,-79 2228,21 2228,21l38 -32c0,0 71,792 5,1679l-38 -42c-1236,58 -2224,-4 -2224,-4zm2335 352l0 0c-167,53 -476,64 -476,64l-4 -246c256,0 491,-22 491,-22l-11 204z"/>
  <path class="fil0" d="M2447 1829c0,0 12,-83 18,-207 16,-346 31,-1044 -23,-1398 65,897 5,1605 5,1605z"/>
  <path class="fil2" d="M2622 149l0 0c-1,-5 -1,-37 -17,-62 -6,-10 -15,-17 -26,-21 -10,-4 -23,-5 -38,-6 -19,-3 -346,-60 -1185,-60 -334,0 -748,9 -1257,34l-1 0 -2 0c0,1 -13,4 -26,12 -14,8 -29,21 -32,43l0 0 0 0c0,1 -38,567 -38,1317 0,223 3,462 12,708 0,0 0,7 1,15 2,8 4,18 9,26 3,6 8,9 14,14 14,10 34,22 46,28l3 126c0,0 0,7 3,14 3,8 12,17 26,19 18,3 494,90 1207,90 343,0 742,-20 1170,-79 1,0 3,0 6,0 6,0 17,-1 28,-5 11,-5 22,-16 21,-32 0,-15 2,-44 4,-69 1,-16 2,-31 3,-39 7,-2 17,-6 28,-14 19,-13 38,-36 41,-74 3,-44 39,-359 39,-918 0,-291 -10,-647 -39,-1067zm-132 2204l0 0c-428,59 -826,79 -1169,79 -363,0 -664,-22 -874,-45 -106,-11 -188,-22 -245,-31 -56,-8 -86,-14 -86,-14l0 4 0 -4c-8,-1 -12,-6 -14,-10 -1,-3 -2,-5 -2,-7 0,-2 0,-3 -1,-3l-2 -127c418,76 850,100 1233,100 649,0 1155,-69 1209,-77 -2,18 -7,85 -7,112 -1,10 -6,15 -13,19 -7,3 -17,4 -22,4 -4,0 -6,0 -6,0l0 0 -1 0zm52 -143l0 0 0 0c-2,0 -34,5 -93,12 -180,22 -605,65 -1119,65 -384,0 -817,-24 -1236,-100 -5,-2 -19,-9 -31,-17 -13,-8 -26,-18 -29,-22 -3,-5 -5,-14 -6,-21 -1,-8 -1,-14 -1,-14 -9,-245 -12,-484 -12,-707 0,-375 9,-704 19,-939 5,-118 9,-212 13,-276 4,-65 6,-100 6,-101 1,-15 13,-25 25,-32 5,-4 11,-6 15,-8 4,-1 6,-1 7,-2 508,-25 923,-34 1256,-34 432,0 728,15 916,30 94,8 160,16 204,21 43,6 63,10 63,10l1 0 0 0c29,0 43,6 53,19 7,11 10,25 12,36 2,12 2,20 2,20 30,419 40,776 40,1066 0,558 -37,872 -40,918 -2,33 -18,51 -34,62 -8,6 -16,9 -22,11 -5,3 -9,3 -9,3z"/>
  <path class="fil2" d="M214 203c0,0 -77,1077 9,1622 0,0 988,62 2224,4 0,0 60,-708 -5,-1605 0,0 -861,-100 -2228,-21zm2192 1598l0 0 -2 7 -5 6c-1234,60 -2156,-7 -2156,-7 -53,-888 14,-1572 14,-1572 1335,-69 2147,15 2147,15 65,776 2,1551 2,1551z"/>
  <path class="fil2" d="M656 2156c-15,0 -27,11 -27,26 0,15 12,27 27,27 15,0 27,-12 27,-27 0,-15 -12,-26 -27,-26zm0 45l0 0c-11,0 -20,-8 -20,-19 0,-10 9,-19 20,-19 11,0 20,9 20,19 0,11 -9,19 -20,19z"/>
  <path class="fil2" d="M737 2162c-12,0 -22,9 -22,21 0,12 10,22 22,22 12,0 22,-10 22,-22 0,-12 -10,-21 -22,-21zm0 35l0 0c-8,0 -14,-6 -14,-14 0,-7 6,-14 14,-14 8,0 14,7 14,14 0,8 -6,14 -14,14z"/>
  <path class="fil2" d="M808 2167c-12,0 -22,9 -22,21 0,12 10,21 22,21 12,0 22,-9 22,-21 0,-12 -10,-21 -22,-21zm0 35l0 0c-8,0 -14,-6 -14,-14 0,-8 6,-14 14,-14 8,0 14,6 14,14 0,8 -6,14 -14,14z"/>
  <path class="fil2" d="M883 2168c-12,0 -22,10 -22,21 0,12 10,22 22,22 12,0 22,-10 22,-22 0,-11 -10,-21 -22,-21zm0 35l0 0c-8,0 -14,-6 -14,-14 0,-7 6,-13 14,-14 8,1 14,7 14,14 0,8 -6,14 -14,14z"/>
  <path class="fil2" d="M956 2170c-12,0 -22,10 -22,22 0,12 10,21 22,21 13,0 23,-9 23,-21 0,-12 -10,-22 -23,-22zm0 36l0 0c-8,0 -14,-6 -14,-14 0,-8 6,-14 14,-14 8,0 15,6 15,14 0,8 -7,14 -15,14z"/>
  <path class="fil2" d="M1091 2174c-12,0 -22,9 -22,21 0,12 10,21 22,21 12,0 22,-9 22,-21 0,-12 -10,-21 -22,-21zm0 35l0 0c-8,0 -14,-6 -14,-14 0,-8 6,-14 14,-14 8,0 15,6 15,14 0,8 -7,14 -15,14z"/>
  <path class="fil2" d="M1173 2175c-12,0 -22,10 -22,22 0,11 10,21 22,21 13,0 23,-10 23,-21 0,-12 -10,-22 -23,-22zm0 35l0 0c-7,0 -14,-6 -14,-13 0,-8 7,-14 14,-14 8,0 15,6 15,14 0,7 -7,13 -15,13z"/>
  <path class="fil3" d="M181 166c0,0 -65,1092 -22,1678l55 -36c0,0 -28,-157 -32,-383 -7,-386 -10,-959 32,-1222l-33 -37z"/>
  <path class="fil3" d="M2480 192l-38 32c54,354 39,1052 23,1398 -6,124 -18,207 -18,207l38 42c66,-887 -5,-1679 -5,-1679z"/>
  <polygon class="fil3" points="650,2133 669,2133 669,2122 650,2122 "/>
  <polygon class="fil3" points="722,2142 821,2142 821,2125 722,2125 "/>
  <polygon class="fil3" points="874,2145 973,2145 973,2126 874,2126 "/>
  <polygon class="fil3" points="1058,2152 1119,2152 1119,2135 1058,2135 "/>
  <polygon class="fil3" points="1151,2153 1222,2153 1222,2137 1151,2137 "/>
  <path class="fil4" d="M2082 2241c0,0 309,-11 476,-64l11 -204c0,0 -235,22 -491,22l4 246z"/>
  <path class="fil4" d="M82 2158c0,0 250,46 498,75l3 -250c0,0 -481,-15 -501,-24l0 199z"/>
  <polygon class="fil5" points="2031,407 2031,382 2084,382 2084,552 2056,552 2056,407 "/>
  <path class="fil5" d="M2254 467c0,25 -6,46 -16,63 -11,17 -26,26 -45,26 -19,0 -33,-9 -44,-26 -11,-18 -16,-39 -16,-63 0,-25 5,-46 16,-63 11,-18 26,-26 44,-26 19,0 34,9 45,26 10,17 16,38 16,63zm-94 0l0 0c0,17 3,32 9,45 6,13 14,20 25,20 10,0 18,-6 23,-19 6,-12 9,-27 9,-46 0,-17 -3,-33 -9,-45 -6,-13 -14,-20 -24,-20 -10,0 -18,7 -24,20 -6,14 -9,29 -9,45z"/>
  <polygon class="fil6" points="389,1176 351,1176 351,966 297,966 297,930 444,930 444,966 389,966 "/>
  <polygon class="fil6" points="527,966 527,1030 610,1030 610,1065 527,1065 527,1141 612,1141 612,1176 485,1176 485,930 612,930 612,966 "/>
  <polygon class="fil6" points="710,1141 784,1141 784,1176 669,1176 669,930 710,930 "/>
  <polygon class="fil6" points="866,966 866,1030 948,1030 948,1065 866,1065 866,1141 951,1141 951,1176 824,1176 824,930 951,930 951,966 "/>
  <polygon class="fil6" points="1096,1114 1157,930 1203,930 1107,1183 1080,1183 986,930 1031,930 "/>
  <polygon class="fil6" points="1285,1176 1243,1176 1243,930 1285,930 "/>
  <path class="fil6" d="M1466 980c-11,-15 -24,-22 -41,-22 -10,0 -18,3 -25,9 -7,6 -11,15 -11,25 0,10 13,23 38,37 26,14 39,22 39,22 18,13 27,29 27,47 0,25 -7,46 -22,61 -14,16 -34,24 -59,24 -32,0 -57,-16 -75,-48l26 -26c4,9 10,18 20,26 9,8 19,12 29,12 12,0 21,-5 28,-13 7,-8 10,-18 10,-29 0,-9 -2,-16 -8,-22 -5,-7 -22,-16 -52,-29 -29,-13 -44,-32 -44,-56 0,-21 7,-39 21,-53 13,-14 30,-21 51,-21 28,0 51,9 67,27l-19 29z"/>
  <polygon class="fil6" points="1587,1176 1545,1176 1545,930 1587,930 "/>
  <path class="fil6" d="M1637 1054c0,-36 12,-67 35,-92 23,-25 52,-38 87,-38 35,0 64,13 87,38 23,25 34,56 34,91 0,36 -11,66 -34,92 -23,25 -52,38 -87,38 -35,0 -65,-13 -87,-38 -23,-25 -35,-56 -35,-91zm43 -3l0 0c0,24 8,45 23,63 15,19 34,28 56,28 24,0 43,-9 57,-26 14,-18 22,-39 22,-65 0,-24 -8,-45 -22,-61 -14,-17 -33,-25 -57,-25 -24,0 -43,8 -57,25 -14,17 -22,37 -22,61z"/>
  <polygon class="fil6" points="1928,924 1960,924 2099,1109 2099,930 2141,930 2141,1181 2110,1181 1970,996 1970,1176 1928,1176 "/>
  <path class="fil6" d="M2319 980c-11,-15 -24,-22 -40,-22 -10,0 -19,3 -26,9 -7,6 -11,15 -11,25 0,10 13,23 39,37 25,14 38,22 38,22 18,13 27,29 27,47 0,25 -7,46 -21,61 -15,16 -34,24 -60,24 -31,0 -57,-16 -75,-48l26 -26c4,9 10,18 20,26 9,8 19,12 29,12 12,0 21,-5 28,-13 7,-8 10,-18 10,-29 0,-9 -2,-16 -7,-22 -5,-7 -23,-16 -52,-29 -30,-13 -45,-32 -45,-56 0,-21 7,-39 21,-53 14,-14 31,-21 51,-21 28,0 51,9 67,27l-19 29z"/>
 </g>
</svg>
