<?xml version="1.0" encoding="UTF-8"?>
<!DOCTYPE svg PUBLIC "-//W3C//DTD SVG 1.1//EN" "http://www.w3.org/Graphics/SVG/1.1/DTD/svg11.dtd">
<!-- Creator: CorelDRAW X7 -->
<svg xmlns="http://www.w3.org/2000/svg" xml:space="preserve" width="2.51751in" height="2.02939in" version="1.1" style="shape-rendering:geometricPrecision; text-rendering:geometricPrecision; image-rendering:optimizeQuality; fill-rule:evenodd; clip-rule:evenodd"
viewBox="0 0 735 593"
 xmlns:xlink="http://www.w3.org/1999/xlink">
 <defs>
  <style type="text/css">
   <![CDATA[
    .fil0 {fill:yellow;fill-rule:nonzero}
    .fil1 {fill:#7C7C7D;fill-rule:nonzero}
    .fil3 {fill:#BFACAA;fill-rule:nonzero}
    .fil2 {fill:#D7D7D7;fill-rule:nonzero;fill-opacity:0.650980}
   ]]>
  </style>
 </defs>
 <g id="__x0023_Layer_x0020_1_x0020_copy">
  <metadata id="CorelCorpID_0Corel-Layer"/>
  <path class="fil0" d="M53 441c0,0 257,95 505,148 0,0 22,6 29,2 6,-3 80,-89 93,-113 0,0 32,-62 35,-67 2,-6 2,-6 2,-6l4 -8c0,0 17,-220 14,-272 0,0 2,-24 -6,-31 -8,-6 -50,-17 -50,-17 0,0 -1,-17 -4,-19 -3,-1 -14,-6 -21,-2l-4 2 -236 -43c0,0 -4,-1 -5,2l-23 -5c0,0 3,-5 0,-5 -3,0 -10,-1 -11,3 -1,4 -2,9 1,10 2,1 6,2 8,-2l21 6c0,0 2,3 5,3 3,1 186,34 186,34l-3 5c0,0 -408,-68 -466,-66 0,0 -7,-1 -12,2 -5,3 -101,64 -101,64 0,0 -14,6 -14,17 0,11 6,219 25,325 0,0 3,18 9,22 6,4 19,11 19,11z"/>
  <path class="fil1" d="M43 427c-6,-2 -8,-11 -9,-17 0,0 -29,-212 -25,-326 0,-6 4,-9 10,-8 173,19 591,107 591,107 6,1 9,10 10,16 6,142 -33,373 -33,373 0,6 -6,9 -12,8 0,0 -249,-55 -532,-153z"/>
  <path class="fil2" d="M447 209c0,0 -2,194 -9,257 0,0 2,16 -20,17 -23,2 -190,-22 -317,-81 0,0 -20,-12 -23,-29 -3,-17 -31,-139 -18,-235 0,0 4,-30 25,-28 20,1 258,41 331,62 0,0 30,5 31,37z"/>
  <polygon class="fil3" points="482,357 578,377 578,381 482,361 "/>
  <polygon class="fil3" points="482,369 577,389 577,393 482,373 "/>
  <polygon class="fil3" points="481,381 577,402 577,405 481,385 "/>
  <polygon class="fil3" points="480,393 576,414 576,417 480,397 "/>
  <polygon class="fil3" points="480,405 575,426 575,429 480,409 "/>
  <polygon class="fil3" points="479,417 575,438 575,441 479,421 "/>
  <polygon class="fil3" points="479,429 574,450 574,453 479,433 "/>
  <polygon class="fil3" points="478,441 573,462 573,465 478,445 "/>
  <polygon class="fil3" points="477,453 573,474 573,478 477,457 "/>
  <polygon class="fil3" points="477,465 572,486 572,490 477,469 "/>
  <polygon class="fil3" points="476,477 572,498 572,502 476,481 "/>
  <polygon class="fil3" points="476,489 571,510 571,514 476,493 "/>
  <polygon class="fil3" points="475,501 570,522 570,526 475,505 "/>
  <polygon class="fil3" points="474,513 570,534 570,538 474,517 "/>
  <path class="fil3" d="M495 320l80 18c0,0 6,0 6,-3 1,-4 12,-109 12,-109 0,0 0,-10 -9,-12 -8,-2 -85,-16 -85,-16 0,0 -7,4 -7,8 0,4 -6,103 -6,103 0,0 3,10 9,11z"/>
 </g>
</svg>
