<?xml version="1.0" encoding="UTF-8"?>
<!DOCTYPE svg PUBLIC "-//W3C//DTD SVG 1.1//EN" "http://www.w3.org/Graphics/SVG/1.1/DTD/svg11.dtd">
<!-- Creator: CorelDRAW X7 -->
<svg xmlns="http://www.w3.org/2000/svg" xml:space="preserve" width="1.72067in" height="1.66433in" version="1.1" style="shape-rendering:geometricPrecision; text-rendering:geometricPrecision; image-rendering:optimizeQuality; fill-rule:evenodd; clip-rule:evenodd"
viewBox="0 0 396 383"
 xmlns:xlink="http://www.w3.org/1999/xlink">
 <defs>
  <style type="text/css">
   <![CDATA[
    .fil0 {fill:black;fill-rule:nonzero}
   ]]>
  </style>
 </defs>
 <g id="__x0023_Layer_x0020_1_x0020_copy">
  <metadata id="CorelCorpID_0Corel-Layer"/>
  <path class="fil0" d="M270 341c-4,0 -7,3 -7,7 0,4 3,7 7,7 4,0 7,-3 7,-7 0,-4 -3,-7 -7,-7z"/>
  <path class="fil0" d="M229 341c-4,0 -7,3 -7,7 0,4 3,7 7,7 4,0 7,-3 7,-7 0,-4 -3,-7 -7,-7z"/>
  <path class="fil0" d="M209 341c-4,0 -7,3 -7,7 0,4 3,7 7,7 4,0 7,-3 7,-7 0,-4 -3,-7 -7,-7z"/>
  <path class="fil0" d="M202 277c43,0 77,-1 102,-2 20,-1 33,-2 36,-2 5,-38 7,-76 7,-109 0,-33 -2,-62 -3,-82 -2,-17 -3,-28 -4,-32 -3,0 -18,-1 -40,-2 -26,-1 -63,-2 -105,-2 -42,0 -90,1 -139,4 0,3 -2,13 -4,28 -2,18 -4,45 -4,78 0,33 2,73 8,117 55,3 104,4 146,4z"/>
  <path class="fil0" d="M326 327c-8,0 -15,7 -15,16 0,8 7,15 15,15 9,0 16,-7 16,-15 0,-9 -7,-16 -16,-16zm0 7l0 0 1 0 0 8 -1 0 0 -8zm0 16l0 0c-4,0 -7,-3 -7,-7 0,-4 2,-6 5,-7l0 1c-2,1 -3,3 -3,6 0,3 2,5 5,5 3,0 6,-2 6,-5 0,-3 -2,-5 -4,-6l0 -1c3,1 5,3 5,7 0,4 -3,7 -7,7z"/>
  <path class="fil0" d="M290 341c-4,0 -7,3 -7,7 0,4 3,7 7,7 4,0 7,-3 7,-7 0,-4 -3,-7 -7,-7z"/>
  <path class="fil0" d="M249 341c-4,0 -7,3 -7,7 0,4 3,7 7,7 4,0 7,-3 7,-7 0,-4 -3,-7 -7,-7z"/>
  <polygon class="fil0" points="27,383 369,383 369,377 27,377 "/>
  <path class="fil0" d="M39 286l319 0 0 -249 -319 0 0 249zm11 -240l0 0 0 -1 1 0c51,-4 100,-5 144,-5 87,0 150,5 150,5l1 0 0 1c0,0 7,50 7,118 0,35 -1,73 -7,113l0 1 -1 0c0,0 -55,5 -142,5 -44,0 -95,-1 -152,-5l-1 0 0 -1c-6,-46 -8,-87 -8,-121 0,-68 8,-110 8,-110z"/>
  <path class="fil0" d="M189 341c-4,0 -7,3 -7,7 0,4 3,7 7,7 4,0 7,-3 7,-7 0,-4 -3,-7 -7,-7z"/>
  <path class="fil0" d="M381 0l-366 0c-8,0 -15,7 -15,15l0 344c0,9 7,15 15,15l9 0 3 0 342 0 3 0 9 0c9,0 15,-6 15,-15l0 -344c0,-8 -6,-15 -15,-15zm-192 356l0 0c-5,0 -8,-4 -8,-8 0,-5 3,-8 8,-8 4,0 8,3 8,8 0,4 -4,8 -8,8zm20 0l0 0c-4,0 -8,-4 -8,-8 0,-5 4,-8 8,-8 4,0 8,3 8,8 0,4 -4,8 -8,8zm20 0l0 0c-4,0 -8,-4 -8,-8 0,-5 4,-8 8,-8 5,0 8,3 8,8 0,4 -3,8 -8,8zm20 0l0 0c-4,0 -8,-4 -8,-8 0,-5 4,-8 8,-8 5,0 8,3 8,8 0,4 -3,8 -8,8zm21 0l0 0c-5,0 -8,-4 -8,-8 0,-5 3,-8 8,-8 4,0 7,3 7,8 0,4 -3,8 -7,8zm20 0l0 0c-5,0 -8,-4 -8,-8 0,-5 3,-8 8,-8 4,0 8,3 8,8 0,4 -4,8 -8,8zm36 4l0 0c-10,0 -18,-8 -18,-17 0,-10 8,-18 18,-18 10,0 18,8 18,18 0,9 -8,17 -18,17zm-290 -71l0 0 0 -255 325 0 0 254 0 1 -325 0z"/>
 </g>
</svg>
