<?xml version="1.0" encoding="UTF-8"?>
<!DOCTYPE svg PUBLIC "-//W3C//DTD SVG 1.1//EN" "http://www.w3.org/Graphics/SVG/1.1/DTD/svg11.dtd">
<!-- Creator: CorelDRAW X7 -->
<svg xmlns="http://www.w3.org/2000/svg" xml:space="preserve" width="1.90277in" height="1.53384in" version="1.1" style="shape-rendering:geometricPrecision; text-rendering:geometricPrecision; image-rendering:optimizeQuality; fill-rule:evenodd; clip-rule:evenodd"
viewBox="0 0 814 656"
 xmlns:xlink="http://www.w3.org/1999/xlink">
 <defs>
  <style type="text/css">
   <![CDATA[
    .fil0 {fill:#FF8200;fill-rule:nonzero}
    .fil1 {fill:#7C7C7D;fill-rule:nonzero}
    .fil3 {fill:#BFACAA;fill-rule:nonzero}
    .fil2 {fill:#D7D7D7;fill-rule:nonzero;fill-opacity:0.650980}
   ]]>
  </style>
 </defs>
 <g id="__x0023_Layer_x0020_1_x0020_copy">
  <metadata id="CorelCorpID_0Corel-Layer"/>
  <path class="fil0" d="M755 488c0,0 -284,105 -559,164 0,0 -24,7 -31,3 -8,-4 -90,-99 -104,-126 0,0 -36,-68 -38,-74 -3,-6 -3,-6 -3,-6l-4 -9c0,0 -19,-244 -16,-301 0,0 -2,-28 7,-34 9,-7 55,-20 55,-20 0,0 1,-19 4,-20 4,-2 16,-8 24,-3l5 2 261 -48c0,0 5,-1 5,3l25 -5c0,0 -2,-6 1,-6 4,0 11,-1 12,3 1,4 2,10 -1,11 -2,1 -7,3 -9,-2l-23 6c0,0 -2,4 -5,4 -4,1 -207,37 -207,37l4 6c0,0 451,-75 515,-73 0,0 8,-1 14,2 5,3 111,71 111,71 0,0 16,7 16,19 0,13 -6,242 -27,359 0,0 -4,21 -11,25 -6,5 -21,12 -21,12z"/>
  <path class="fil1" d="M767 472c6,-2 9,-11 9,-18 0,0 32,-234 29,-361 0,-7 -6,-9 -12,-9 -192,21 -655,118 -655,118 -6,2 -10,12 -10,19 -7,156 36,412 36,412 1,7 6,11 13,9 0,0 276,-60 590,-170z"/>
  <path class="fil2" d="M192 275c0,0 11,159 10,285 0,0 -3,17 22,19 25,1 210,-25 352,-90 0,0 31,-22 34,-41 4,-18 13,-79 11,-252 0,0 -5,-33 -28,-31 -22,1 -286,46 -366,68 0,0 -34,7 -35,42z"/>
  <polygon class="fil3" points="753,296 668,318 668,321 753,299 "/>
  <polygon class="fil3" points="753,307 668,328 667,331 753,310 "/>
  <polygon class="fil3" points="752,317 667,339 667,342 752,320 "/>
  <polygon class="fil3" points="752,328 667,350 667,353 752,331 "/>
  <polygon class="fil3" points="751,338 666,360 666,363 751,341 "/>
  <polygon class="fil3" points="751,349 666,371 666,374 751,352 "/>
  <polygon class="fil3" points="751,359 666,382 665,385 750,362 "/>
  <polygon class="fil3" points="750,370 665,392 665,395 750,373 "/>
  <polygon class="fil3" points="750,380 665,403 664,406 749,383 "/>
  <polygon class="fil3" points="749,391 664,414 664,417 749,394 "/>
  <polygon class="fil3" points="749,401 664,424 663,427 748,404 "/>
  <polygon class="fil3" points="748,412 663,435 663,438 748,415 "/>
  <polygon class="fil3" points="748,422 663,445 663,449 748,425 "/>
  <polygon class="fil3" points="747,433 662,456 662,459 747,436 "/>
  <path class="fil3" d="M752 263l-81 21c0,0 -6,1 -7,-3 0,-4 -3,-110 -3,-110 0,0 1,-9 10,-12 8,-2 86,-16 86,-16 0,0 7,4 6,8 0,4 -1,101 -1,101 0,0 -3,10 -10,11z"/>
 </g>
</svg>
