<?xml version="1.0" encoding="UTF-8"?>
<!DOCTYPE svg PUBLIC "-//W3C//DTD SVG 1.1//EN" "http://www.w3.org/Graphics/SVG/1.1/DTD/svg11.dtd">
<!-- Creator: CorelDRAW X7 -->
<svg xmlns="http://www.w3.org/2000/svg" xml:space="preserve" width="2.66331in" height="2.03318in" version="1.1" style="shape-rendering:geometricPrecision; text-rendering:geometricPrecision; image-rendering:optimizeQuality; fill-rule:evenodd; clip-rule:evenodd"
viewBox="0 0 717 547"
 xmlns:xlink="http://www.w3.org/1999/xlink">
 <defs>
  <style type="text/css">
   <![CDATA[
    .fil1 {fill:#454545;fill-rule:nonzero}
    .fil0 {fill:#ACACAC;fill-rule:nonzero}
   ]]>
  </style>
 </defs>
 <g id="Graphics">
  <metadata id="CorelCorpID_0Corel-Layer"/>
  <path class="fil0" d="M667 195l1 0c0,0 -1,1 -1,1 -1,0 -3,1 -3,1l4 0 1 0 1 -4 -6 0 1 2 2 0z"/>
  <path class="fil0" d="M660 180l1 3c0,0 1,2 1,0 0,-1 0,-4 0,-4l-4 0 1 1 1 0z"/>
  <polygon class="fil0" points="658,223 658,225 660,226 660,227 662,226 662,221 659,223 "/>
  <polygon class="fil0" points="577,200 577,204 578,204 589,204 589,200 577,200 "/>
  <polygon class="fil0" points="632,233 631,236 629,234 629,237 631,237 631,239 635,239 635,237 "/>
  <path class="fil0" d="M617 212c0,0 -2,-2 -1,-12 1,-8 8,-13 12,-16 2,-1 3,-2 3,-2l0 -4 0 -2c-4,1 -24,9 -23,27 0,18 18,23 18,23l0 -7 -9 -7z"/>
  <polygon class="fil0" points="601,191 600,191 600,193 598,193 599,197 602,198 603,193 601,193 "/>
  <polygon class="fil0" points="607,183 607,181 608,181 609,183 610,183 610,178 607,178 607,179 604,179 604,183 606,183 "/>
  <polygon class="fil0" points="601,208 599,207 599,207 599,207 599,208 598,209 597,213 598,213 600,213 602,213 602,210 601,210 "/>
  <polygon class="fil0" points="601,105 601,104 599,103 599,104 598,105 597,109 598,109 598,109 600,109 602,109 602,106 601,106 "/>
  <polygon class="fil0" points="601,89 601,87 600,87 600,89 598,89 598,90 599,93 602,94 603,89 601,89 "/>
  <path class="fil0" d="M645 109c0,0 8,-3 8,-13 0,-10 -3,-11 -3,-11l0 -2 1 1c0,0 6,5 5,13 -2,8 -6,15 -11,16l0 3 0 1 0 0c0,0 -1,3 -3,3 -1,0 -1,1 -1,1l0 1 1 1 2 0c0,0 0,0 0,0 0,0 2,-1 4,-3 5,-3 13,-10 13,-20 0,-1 0,-1 0,-1 0,0 0,0 0,0 -1,-3 -1,-6 -2,-8 -3,-9 -9,-14 -12,-15l-2 33z"/>
  <path class="fil0" d="M639 115l-2 1 -1 1 0 0 -2 2 -1 1 1 2 2 0 2 -2 0 0 1 -1 4 0 0 -2 0 0 3 -41 -1 -1 -3 0 -3 0 0 1c0,0 0,1 1,1 0,0 0,0 1,1 0,0 0,4 0,4 0,1 0,31 0,31 0,0 0,1 -2,2z"/>
  <polygon class="fil0" points="621,70 621,70 622,70 622,69 622,67 621,65 620,65 619,66 620,68 "/>
  <path class="fil0" d="M651 128l-1 -1 0 0 -3 0 -1 0 0 2 0 3 1 1 1 0 3 -1c0,0 0,-1 0,-2 0,-1 0,-2 0,-2 0,-1 0,0 0,0z"/>
  <path class="fil0" d="M669 108l2 -2 -2 -2 -2 -1 -2 0 0 1 1 1 1 0 -1 2 -2 1c0,0 1,0 2,0 1,0 3,0 3,0z"/>
  <path class="fil0" d="M121 541c-1,2 -3,3 -3,3 1,0 3,-1 3,-3z"/>
  <path class="fil0" d="M669 212l2 -2 -1 -1 -1 -1 -4 -1 0 1 2 1 -1 2 0 0 -2 1c0,0 1,0 2,0 1,0 3,0 3,0z"/>
  <path class="fil0" d="M643 222l1 -8 1 -28 1 -6 -1 -1 -3 0 -3 0 0 1c0,0 0,1 1,1 0,0 0,0 1,1 0,0 0,1 0,2 0,1 0,2 0,2 0,1 0,25 0,30 0,0 0,1 0,1 0,0 0,2 -2,2l-5 4 -1 2 1 1 2 0 2 -2 0 0 1 -1 4 0 0 -1z"/>
  <path class="fil0" d="M505 139c0,-12 -1,-25 -1,-33 -1,-4 -1,-8 -2,-8 -1,-4 -2,-7 -3,-9 -6,-5 -15,-7 -25,-8 -1,0 -5,0 -9,-1 -4,0 -7,-1 -9,-1 -1,0 -5,0 -11,0 -3,-1 -7,-1 -11,-1 -3,0 -6,-1 -8,-1 -4,0 -8,0 -12,-1 -5,0 -9,0 -13,-1 -5,0 -8,0 -9,0 -1,0 -10,-1 -21,-1 -6,0 -12,0 -17,-1 -15,0 -27,-1 -27,-1 -32,0 -62,0 -93,0 -13,0 -27,1 -41,1 -1,0 -3,0 -4,0 -7,1 -14,1 -21,2 -3,0 -5,0 -8,0 -4,1 -9,1 -13,1 -4,1 -8,1 -11,1 -3,0 -5,1 -8,1 -4,0 -7,0 -10,1 -3,0 -5,0 -7,0 -10,1 -16,2 -16,2 -12,0 -19,6 -22,17 -1,7 -1,10 -1,13l-1 25 -1 52c0,33 0,66 0,99 0,5 0,10 0,15 0,0 0,1 0,1 0,5 0,9 0,13 0,5 1,9 1,13 0,12 0,21 1,28 0,3 0,5 0,7 1,9 1,13 1,13 2,10 7,17 17,18 1,0 3,1 7,2 20,3 83,7 121,7 7,0 14,0 22,0 27,0 53,0 80,0 11,0 22,0 32,0 19,-1 28,-1 34,-1 0,0 1,0 1,0 2,0 8,-1 17,-1 6,0 14,-1 21,-1 5,0 10,-1 15,-1 3,0 6,0 10,-1 3,0 7,0 10,0 3,-1 6,-1 9,-1 7,-1 13,-2 16,-3 0,0 0,0 0,0 2,0 5,-1 7,-2 3,-1 5,-3 5,-4 0,-2 2,-2 2,-5 0,0 0,0 0,0 0,0 0,0 0,0 0,-1 0,-1 0,-1 0,0 0,0 0,0 1,0 1,0 1,-1 0,0 0,0 0,0 0,0 0,0 0,0 0,0 0,0 0,0 0,-1 0,-1 0,-1 0,0 0,0 0,0 0,0 0,-1 0,-1 0,0 0,0 0,0 0,0 0,-1 0,-1 0,0 0,0 0,0 1,0 1,-1 1,-1 0,0 0,0 0,0 0,0 0,-1 0,-1 0,0 0,0 0,0 0,-1 0,-1 0,-1 0,0 0,0 0,-1 0,0 0,0 0,0 0,0 0,-1 0,-1 0,0 0,0 0,-1 0,0 0,0 0,0 0,0 0,-1 0,-1 0,0 0,0 1,-1 0,0 0,0 0,0 0,-1 0,-1 0,-1 0,0 0,-1 0,-1 0,0 0,-1 0,-1 0,-4 1,-9 1,-13 0,-3 0,-7 0,-10 1,-16 2,-31 2,-31 0,-7 0,-14 0,-21 0,-40 0,-79 0,-119 0,-2 0,-8 0,-17 0,-5 0,-12 0,-18z"/>
  <path class="fil0" d="M618 316c18,0 36,0 55,0 0,-1 0,-1 0,-2 4,0 9,0 13,0 5,0 9,0 14,0 0,-1 0,-2 0,-3 -3,-3 -13,0 -18,-1 0,0 0,1 0,1 -27,0 -53,0 -80,0 -11,0 -22,0 -33,0 -3,0 -3,1 -3,3 14,4 35,1 52,2z"/>
  <path class="fil0" d="M634 331c18,0 36,0 54,0 0,-1 0,-1 0,-2 4,0 8,0 12,0 0,0 0,0 0,0 0,-1 0,-2 0,-3 -2,-3 -11,0 -15,-1 0,0 0,1 0,1 -3,0 -6,0 -9,0 -21,0 -42,0 -63,0 -16,0 -31,0 -47,0 0,1 0,1 0,2 0,0 0,1 0,1 0,0 0,0 0,0 0,1 0,1 0,2 13,1 46,-1 68,0z"/>
  <path class="fil0" d="M580 355c0,0 0,-1 0,-1 12,0 25,0 38,0 4,0 8,0 12,0 8,0 16,0 24,0 15,-1 34,2 46,-2 0,-1 0,-2 0,-3 -4,0 -7,0 -11,0 -15,0 -31,0 -47,0 -9,0 -17,0 -26,0 -16,1 -36,-2 -50,2 0,1 0,2 0,3 1,3 9,0 14,1z"/>
  <path class="fil0" d="M602 369c12,0 24,0 36,0 7,0 15,0 22,0 1,0 2,0 3,0 12,-1 28,2 37,-1 0,-2 0,-3 0,-4 -8,0 -16,0 -24,0 -10,0 -19,0 -28,0 -20,0 -40,0 -61,0 0,1 0,1 0,2 -5,2 -21,-4 -21,3 0,1 0,1 0,2 12,0 24,0 36,0 0,-1 0,-1 0,-2z"/>
  <path class="fil0" d="M715 253c0,-3 0,-7 0,-11 0,-4 0,-8 0,-12 0,-4 0,-9 0,-13 0,-62 3,-121 2,-183 -4,-10 -7,-17 -14,-21 -1,-1 -5,-3 -6,-4 -10,-3 -33,-5 -52,-6 -73,-3 -158,-3 -227,-3 -5,0 -340,3 -345,3 -17,0 -39,2 -39,2 -2,0 -10,1 -11,1 -11,4 -18,13 -21,25 -1,-1 -1,7 -2,9 1,137 -2,286 2,414 2,3 4,6 4,10 2,3 5,5 8,7 8,4 17,7 30,6 1,3 0,6 2,6 0,-1 0,-2 0,-3 0,0 0,-1 0,-1 0,0 0,0 0,0 0,-1 2,-1 8,-1 2,0 3,0 5,0 14,0 36,0 45,1 5,0 20,0 36,0 20,0 40,1 49,1 1,0 1,0 2,0 1,0 3,0 4,0 6,0 25,1 44,1 2,0 5,0 7,0 1,0 2,0 3,0 17,1 34,1 36,1 3,0 6,0 9,0 26,0 51,0 77,0 1,0 6,0 14,0 4,0 9,0 14,0 18,0 40,0 51,0 14,0 49,0 62,0 1,0 2,0 2,0 14,-1 43,-1 60,-2 7,0 12,0 13,0 1,0 2,0 3,0 0,0 1,1 1,1 1,0 2,0 3,0 0,0 0,0 0,0 1,0 2,-1 3,-1 1,0 1,0 2,0 0,0 0,0 0,0 2,0 4,0 6,0 0,0 0,0 0,0 2,0 3,0 5,0l0 0c0,0 0,0 0,0 1,0 2,0 2,0 1,0 2,0 3,0l29 -1c0,0 0,0 0,0 1,0 3,0 4,0 1,0 1,0 2,0l1 0 0 0c6,0 11,0 17,0 0,1 0,3 0,4 0,1 0,4 0,5 -2,0 -2,-3 -2,-5 -4,-2 -216,4 -300,3 -2,0 -16,0 -32,0 -18,0 -39,0 -50,-1 0,0 -1,0 -3,0 -2,0 -6,0 -9,0 -10,0 -23,0 -29,0 -1,0 -6,0 -12,0 -8,0 -20,-1 -30,-1 -1,0 -2,0 -3,0 -14,0 -25,0 -26,0 -1,0 -3,0 -5,0 -1,0 -2,0 -3,0 -2,0 -4,0 -6,0 -19,-1 -35,-2 -57,-2 -1,0 -1,0 -2,0 -17,0 -28,-1 -43,0 -2,0 -4,1 -7,1l0 2 0 14 0 9 0 12c0,0 0,0 0,-1 0,1 0,1 0,1 0,1 -1,3 1,3 1,1 22,1 41,2 0,2 1,7 1,9 1,3 0,12 0,13 6,1 15,-1 21,0 2,0 4,-1 5,-3 -2,1 -2,0 -2,-1 0,-1 0,-6 0,-17 -1,-3 2,-2 4,-2 5,0 8,0 12,0 1,0 3,0 4,0 1,1 1,0 1,1 0,0 0,0 0,0 0,0 0,0 0,0 104,-2 225,2 331,-2 1,0 2,0 3,0 34,0 68,0 102,0 1,0 1,0 1,0 0,0 0,0 0,0 0,0 1,0 2,0 7,0 16,0 22,0 0,1 0,2 0,3 0,1 0,2 0,3 0,5 0,11 0,16 0,0 0,0 0,0 0,1 1,1 1,1 1,0 1,0 1,0 0,0 0,0 0,0 0,0 0,0 1,0 0,0 0,0 0,0 0,0 0,0 0,0 7,1 15,1 23,-1 0,-1 0,-12 0,-17 0,-1 0,-2 0,-3 22,-1 41,-3 41,-4 4,-6 3,-28 5,-38 0,-1 0,-3 0,-4 11,1 19,-3 27,-5 5,-2 8,-5 11,-9 0,0 0,-1 0,-1 0,0 1,0 1,0 9,-16 6,-39 6,-64 0,-47 0,-105 0,-147zm-13 203l0 0c-2,4 -5,7 -8,9 -2,1 -6,2 -8,3 -2,0 -3,0 -4,0 -6,0 -11,0 -17,0 -1,0 -2,0 -3,0 -6,0 -11,0 -17,0 0,0 -22,1 -47,2 -5,0 -10,0 -15,0 -25,1 -48,1 -49,1 -23,0 -45,0 -67,0 0,1 -136,1 -136,0 -25,0 -51,0 -76,0 -5,0 -10,0 -15,0 -8,0 -15,0 -22,0 -3,0 -13,0 -24,0 -15,-1 -32,-1 -40,-1 -2,0 -4,0 -6,0 -4,0 -9,0 -14,0 -6,0 -13,0 -19,0 0,-1 -60,-2 -72,-2 -2,0 -3,0 -5,0 0,0 -4,0 -7,-1 -1,0 -1,0 -1,0 -1,0 -1,0 -1,-1 -2,0 -4,-1 -4,-1 -6,-5 -12,-9 -13,-18 -3,-102 0,-210 -1,-314 0,-25 0,-49 0,-73 0,-8 0,-15 0,-22 0,0 0,-3 1,-6 0,0 1,-1 1,-2 0,-1 1,-2 1,-3 1,-2 3,-4 4,-6 3,-3 9,-5 12,-5 1,-1 2,-1 2,-1 3,0 28,0 43,-1 6,0 11,0 12,0 6,0 11,0 17,0 2,0 4,0 6,0 2,0 10,0 20,-1 21,0 51,-1 55,-1 8,0 26,-1 36,-1 4,0 7,0 8,0 22,0 45,0 67,0 2,0 4,0 6,0 22,0 44,0 66,0 3,0 6,0 9,0 25,0 51,0 76,0 1,0 5,0 12,0 10,0 24,1 41,1 9,1 19,1 29,1 7,0 15,1 22,1 12,0 24,1 35,1 5,0 10,0 15,0 9,1 17,1 24,1 16,1 26,1 26,1 1,0 4,0 8,0 4,0 10,0 15,1 1,0 1,0 1,0 1,0 2,0 2,0 4,1 6,1 8,2 14,3 16,17 15,33 0,16 0,32 0,48 0,4 0,9 0,13 0,2 0,4 0,7 0,3 0,7 0,10 0,3 0,7 0,13 0,10 0,23 0,38 -1,36 -1,81 -1,102 0,15 0,30 0,45 0,13 0,27 0,40 0,7 0,13 0,20 0,2 0,5 0,7 0,2 0,4 0,5 -1,19 2,41 -3,55z"/>
  <path class="fil0" d="M135 528c-2,1 -3,3 -5,5 2,-2 3,-3 5,-5z"/>
  <path class="fil0" d="M46 493c0,-5 0,-8 0,-8 -1,3 0,5 0,8z"/>
  <path class="fil0" d="M649 71l2 -2c0,0 1,-2 0,-3 0,-1 0,-2 -1,-2 -1,0 -2,-1 -2,-1 0,0 0,0 0,1 0,2 1,2 1,2l-3 0 0 1 1 1 2 3z"/>
  <polygon class="fil0" points="577,100 589,100 589,96 577,96 "/>
  <polygon class="fil0" points="631,65 631,67 635,67 636,66 636,63 636,63 635,62 634,63 633,64 633,62 630,61 630,64 631,64 "/>
  <path class="fil0" d="M699 33c0,-1 0,-2 -1,-2 0,-1 -1,-2 -2,-3 0,0 0,0 -1,0 -11,-8 -30,-5 -30,-6 -2,0 -22,0 -23,0 -2,0 -9,0 -17,0 -3,0 -7,0 -10,0 -1,0 -3,0 -4,0 -8,-1 -14,-1 -16,-1 -2,0 -10,-1 -17,-1 -5,0 -9,0 -11,1l0 123 0 122c12,3 30,0 45,1 19,0 38,0 58,0 2,0 5,0 7,0 8,0 15,0 23,0 0,-8 0,-15 0,-23 0,0 0,-1 0,-2 0,-4 0,-9 0,-13 0,-3 0,-6 0,-9 0,-22 1,-60 1,-76 0,-4 0,-7 1,-7 0,-19 0,-37 0,-56 0,-4 0,-8 0,-12 0,-5 0,-9 0,-13 0,-5 0,-9 0,-11 0,-2 0,-5 0,-7 -1,-2 -2,-4 -3,-5zm-23 170l0 0c0,0 0,1 0,1 0,1 -1,2 -1,3 0,0 0,0 0,0 0,2 -1,4 -1,6 0,0 0,1 0,1 -1,1 -1,2 -2,3 0,0 0,0 0,0 0,2 -1,4 -2,5 -1,1 -1,1 -1,1 0,1 -1,1 -1,2 0,0 0,0 -1,0 -1,2 -2,4 -4,5 0,0 0,0 0,0 -1,1 -1,2 -2,3 0,0 0,0 0,0 -2,1 -4,2 -5,4 0,0 0,0 0,0 -2,1 -4,2 -6,3 -1,0 -2,1 -3,1 0,0 0,0 0,0 0,0 -1,0 -1,0 -1,1 -3,1 -5,1 0,0 0,0 0,0 -1,1 -1,1 -2,1 0,0 -1,0 -1,0 -1,0 -1,0 -2,0 0,0 -1,0 -1,0l0 0 0 0 0 0 -2 0c0,0 0,0 -1,0 0,0 0,0 -1,0l-56 0 0 -40 0 -2 0 -43 0 -1 60 0 0 0c23,1 41,20 41,43 0,1 0,2 0,3zm-101 -70l0 0 0 -1 0 -55 0 -4 0 -17 0 -3 60 0 0 0c12,1 23,6 30,14 1,1 2,2 2,3 1,1 1,1 1,1 5,7 8,16 8,25 0,23 -18,42 -41,43l0 0 -2 0c0,0 0,0 -1,0 0,0 0,0 -1,0l-56 0 0 -6z"/>
  <path class="fil0" d="M636 89l0 -10c-5,3 -11,10 -11,18 0,1 0,2 1,3 1,3 2,5 4,7 1,1 1,1 2,2 2,1 3,2 3,2l0 -2 0 -11c-1,0 -3,-2 -3,-6 0,-3 4,-3 4,-3z"/>
  <path class="fil0" d="M660 76l0 0 1 3 0 0c0,0 0,1 1,1 0,0 0,-1 0,-1 0,-1 0,-4 0,-4l0 0 -4 0 1 1 1 0z"/>
  <path class="fil0" d="M567 433c2,0 4,0 6,0 8,0 15,0 22,0 0,0 0,-1 0,-1 6,0 13,0 20,0 5,0 10,0 15,0 11,0 21,0 32,0 0,-1 0,-1 0,-2 8,0 15,0 23,0 1,0 2,0 3,0 4,-1 13,3 12,-3 -12,-4 -30,-1 -44,-2 0,1 0,1 0,2 -1,0 -1,0 -2,0 -10,0 -21,0 -32,0 -6,0 -13,0 -20,0 -9,0 -18,0 -27,0 0,0 0,1 0,1 -3,0 -6,0 -9,0 -3,1 -1,5 -3,5 0,-35 0,-69 0,-104 0,-11 0,-23 0,-35 0,0 1,0 1,0 0,0 0,0 0,-1l-1 0 0 -149 0 -124c-1,-1 -5,1 -6,0 -6,0 -12,0 -19,0 -1,0 -7,0 -16,0 -25,-1 -71,-2 -80,-2 -8,0 -17,0 -26,0 -38,0 -109,0 -149,0 -10,0 -19,0 -29,0 -4,0 -36,1 -73,1 -58,1 -130,1 -130,2 -2,0 -6,1 -8,2 -1,0 -1,0 -1,0 -4,1 -7,8 -7,9 -2,10 -2,22 -2,34 0,6 0,12 0,18 0,6 0,12 0,18 0,24 0,48 0,72 0,11 0,21 0,32 0,46 0,104 0,155 1,30 -2,64 2,92 1,2 2,4 5,6 0,0 1,0 1,0 2,1 13,2 13,3 17,1 124,1 124,2 12,0 29,1 41,1 4,0 76,0 76,0 34,0 67,0 101,0 2,0 5,0 7,0 7,0 13,0 19,0 2,0 4,0 6,0 33,0 67,0 100,0 0,0 46,1 50,-1 0,0 0,0 0,0 0,-9 1,-18 1,-26 0,-1 0,-1 0,-2 2,0 1,-4 4,-3zm-15 -44l0 0c0,23 0,39 0,42 -1,2 -1,3 -3,4l-405 0 -111 0c-2,0 -3,-2 -5,-5 0,0 0,0 0,0 0,-42 0,-84 0,-127 -1,0 -1,-109 0,-109 0,-34 0,-68 0,-102 0,-7 0,-14 0,-20 0,-6 0,-11 0,-17 0,-4 0,-6 0,-9 0,0 0,0 0,0 0,-2 0,-3 1,-4 2,-2 6,-2 10,-2 1,0 1,0 2,0 14,0 27,0 40,0 6,0 11,0 17,0 15,0 29,0 44,0 0,-1 366,-1 366,0 14,0 27,0 41,0 2,0 3,2 3,4 1,0 1,0 2,0 0,89 -1,264 -2,345z"/>
  <polygon class="fil0" points="607,79 607,77 608,77 608,78 609,79 610,79 610,75 610,74 607,74 607,75 604,75 604,79 606,79 "/>
  <polygon class="fil0" points="616,67 616,67 616,70 617,70 617,68 618,65 614,65 614,67 "/>
  <polygon class="fil0" points="604,119 605,119 605,123 606,123 607,120 609,120 609,118 604,117 "/>
  <path class="fil0" d="M626 115l-9 -7c0,0 -2,-2 -1,-12 0,0 0,0 0,0 0,-5 4,-10 8,-13 4,-3 7,-5 7,-5l0 -6c-4,1 -24,9 -23,27 0,1 0,2 0,2 2,16 18,21 18,21l0 -3 0 -4z"/>
  <polygon class="fil0" points="635,133 632,129 631,132 629,130 629,133 631,133 631,135 635,135 "/>
  <path class="fil0" d="M665 91l2 0 1 0c0,0 -1,1 -1,1 -1,0 -3,1 -3,1l4 0 1 0 1 -4 -1 0 -5 0 0 1 1 1z"/>
  <polygon class="fil0" points="661,117 659,119 658,119 658,121 660,122 660,123 660,123 662,122 662,121 662,117 662,117 "/>
  <polygon class="fil0" points="616,171 616,174 617,174 617,169 618,169 615,169 614,169 614,171 "/>
  <polygon class="fil0" points="622,174 622,172 621,169 620,169 619,170 619,170 621,174 "/>
  <path class="fil0" d="M649 175l2 -2c0,0 0,-1 0,-2 0,-1 0,-1 0,-1 0,-1 0,-2 -1,-2 -1,0 -2,-1 -2,-1 0,0 0,0 0,2 0,1 1,1 1,1l-3 0 0 1 0 1 1 0 2 3z"/>
  <path class="fil0" d="M635 215l0 -13c-1,0 -3,-2 -3,-6 0,-3 4,-3 4,-3l0 -9 0 -1c0,1 0,1 0,1 -6,2 -11,9 -11,17 0,0 0,0 0,1 0,0 0,1 0,2 0,0 1,1 1,1 0,1 0,1 1,2 3,5 8,8 8,8z"/>
  <path class="fil0" d="M661 204c0,-1 0,-1 0,-1 -1,-14 -11,-22 -14,-23l-1 7 -1 26c0,0 2,-1 5,-4 1,-1 2,-3 3,-6 0,-1 0,-2 0,-3 0,-2 0,-4 -1,-6 -1,-4 -2,-5 -2,-5l0 -2 1 1c0,0 6,5 5,13 -2,8 -6,15 -11,16l0 3 0 2c0,0 -1,2 -3,2 -1,0 -1,1 -1,1l0 1 1 1 2 0c0,0 12,-6 16,-17 0,-2 1,-4 1,-6z"/>
  <polygon class="fil0" points="604,221 604,223 605,223 605,224 605,227 606,227 607,224 609,224 609,222 607,222 "/>
  <path class="fil0" d="M616 231l1 0 1 1c0,0 0,1 -1,1 -1,1 -1,1 -1,2l4 0 0 -4 0 0 -4 0z"/>
  <path class="fil0" d="M651 232l-1 -1 -3 0 -1 0 0 4 0 1 2 1 3 -1c0,0 0,-1 0,-1 0,-1 0,-3 0,-3 0,-1 0,0 0,0z"/>
  <path class="fil0" d="M566 300c1,0 1,0 1,0 2,1 6,1 14,0 18,0 37,0 55,0 0,0 0,-1 0,-1 21,0 42,0 62,0 1,0 2,0 2,0 0,-2 0,-4 -2,-5 -2,0 -5,0 -7,0 -2,0 -4,0 -6,0 -7,0 -13,0 -20,0 -3,0 -5,0 -8,0 -4,0 -8,0 -12,0 -4,0 -8,0 -12,0 -11,0 -22,0 -34,0 -5,0 -5,0 -12,0 -6,0 -12,0 -18,0 -3,0 -3,2 -3,5 0,0 0,0 0,0 0,0 0,0 0,1z"/>
  <path class="fil0" d="M602 323c26,0 52,0 78,0 0,0 0,-1 0,-1 7,0 13,0 20,0 0,-1 0,-2 0,-3 -2,-4 -11,-1 -15,-2 0,1 0,1 0,2 -30,0 -59,0 -89,0 -10,0 -20,0 -30,0 0,1 0,2 0,3 0,0 0,1 0,1 11,0 22,0 33,0 1,0 2,0 3,0z"/>
  <path class="fil0" d="M569 386c1,0 3,0 4,0 8,0 15,0 22,0 13,0 25,0 38,0 0,-1 0,-1 0,-2 8,0 15,0 23,0 1,0 2,0 3,0 2,3 8,-1 14,0 8,-1 21,2 27,-1 0,-1 0,-2 0,-3 -3,0 -6,0 -9,0 -12,0 -24,0 -35,0 -9,0 -18,0 -28,0 0,0 0,1 0,1 -9,0 -19,0 -29,0 -4,0 -9,0 -13,0 -1,0 -2,0 -3,0 -3,0 -6,0 -10,0 -2,0 -5,0 -7,0 -1,3 0,5 3,5z"/>
  <path class="fil0" d="M700 387c0,0 -1,0 -2,0 -2,0 -5,0 -7,0 -1,0 -2,0 -3,0 -19,0 -39,0 -58,0 0,1 0,1 0,2 -7,0 -14,0 -21,0 -8,0 -15,0 -22,0 -7,0 -14,0 -21,0 0,0 0,1 0,1 -1,3 1,3 3,3 7,0 13,0 20,0 6,0 12,0 18,0 11,0 22,0 34,0 0,0 0,-1 0,-1 1,0 3,0 4,0 9,0 18,0 28,0 3,0 6,0 9,0 6,0 12,0 18,0 0,-2 0,-3 0,-5z"/>
  <path class="fil0" d="M700 403c-3,0 -6,0 -9,0 -2,0 -4,0 -6,0 -1,0 -2,0 -3,0 -13,0 -26,0 -38,0 0,0 0,1 0,1 -2,0 -3,0 -5,0 -1,0 -2,0 -3,0 -9,0 -18,0 -27,0 -7,0 -14,0 -20,0 -8,0 -16,0 -23,0 -1,1 -2,3 -2,5 1,0 1,0 2,0 6,0 12,0 18,0 6,0 11,0 17,0 3,0 7,0 11,0 9,0 19,0 29,0 0,-1 0,-1 0,-2 8,0 17,0 25,0 7,0 14,0 20,0 3,0 6,0 9,0 1,0 1,0 2,0 3,0 4,-1 3,-4z"/>
  <path class="fil0" d="M566 425c3,0 7,0 11,0 0,0 0,-1 0,-1 9,0 18,0 27,0 1,0 3,0 5,0 6,0 12,0 18,0 7,0 14,0 21,0 0,-1 0,-1 0,-2 11,0 22,0 32,0 3,0 5,0 8,0 4,-1 13,3 12,-3 -1,-5 -9,1 -15,-1 -11,0 -22,0 -32,0 0,0 0,1 0,1 -6,0 -11,0 -17,0 -4,0 -8,0 -12,0 -5,0 -9,0 -14,0 -8,0 -15,0 -23,0 -7,0 -14,0 -21,0 -2,3 -2,4 0,6z"/>
  <path class="fil0" d="M616 127l1 0 0 0 1 1c0,0 -2,1 -2,3l4 0 0 -4 -2 0 -2 0z"/>
  <polygon class="fil0" points="631,171 632,171 635,171 636,170 636,167 635,166 634,167 634,167 633,168 633,166 633,166 630,165 630,166 630,168 631,168 "/>
  <path class="fil0" d="M659 291c1,0 2,0 4,0 1,0 4,0 5,0 1,0 2,0 3,-1 1,-1 2,-2 2,-3 2,-2 2,-3 2,-4 0,-1 -1,-3 -1,-4 -1,-1 -1,-2 -1,-3 -1,-1 -2,-2 -3,-2 -3,-1 -6,-2 -11,-1 -5,0 -7,1 -9,3 -2,3 -1,4 -1,6 0,0 0,0 0,0 0,0 0,0 0,0 2,-3 2,-4 4,-5 2,0 3,-1 4,-1 0,2 -1,2 -1,3 -3,7 0,10 3,12z"/>
  <path class="fil0" d="M639 308c0,0 0,-1 0,-1 20,0 41,0 61,0 0,-1 0,-3 0,-4 -5,-3 -16,0 -23,-1 0,0 0,1 0,1 0,0 -1,0 -1,0 -4,0 -9,0 -13,0 -32,0 -65,0 -97,0 0,1 0,3 0,4 21,3 49,0 73,1z"/>
  <path class="fil0" d="M590 361c10,0 21,0 31,0 3,0 6,0 9,0 16,0 31,0 47,0 7,-1 18,2 23,-1 0,-1 0,-2 0,-3 -7,0 -13,0 -20,0 -1,0 -2,0 -3,0 -19,0 -37,0 -56,0 -3,0 -5,0 -8,0 0,0 -1,0 -1,0 -15,1 -34,-2 -46,1 0,1 0,2 0,3 0,1 0,1 0,2 8,0 16,0 24,0 0,-1 0,-1 0,-2z"/>
  <path class="fil0" d="M595 378c7,0 14,0 21,0 0,0 0,-1 0,-1 6,0 11,0 17,0 5,0 10,0 15,0 13,0 27,0 40,0 4,-2 13,3 12,-3 0,-1 0,-1 0,-2 -2,0 -3,0 -5,0 -2,0 -5,0 -7,0 -7,0 -13,0 -20,0 -23,0 -46,0 -69,0 0,1 0,1 0,2 -11,0 -22,0 -33,0 0,1 0,3 0,4 2,0 5,0 7,0 8,0 15,0 22,0z"/>
  <path class="fil0" d="M670 395c-10,0 -19,0 -28,0 0,0 0,1 0,1 -12,0 -24,0 -37,0 -2,0 -4,0 -6,0 -1,0 -3,0 -4,0 -1,0 -1,0 -2,0 -9,0 -18,0 -27,0 0,1 0,1 0,2 0,6 10,2 15,3 2,0 3,0 5,0 7,0 15,0 23,0 10,0 21,0 32,0 0,0 0,-1 0,-1 7,0 14,0 21,0 1,0 2,0 3,0 6,0 11,0 17,0 5,-1 23,2 16,-5 -4,-1 -19,1 -28,0z"/>
  <path class="fil0" d="M581 418c0,-1 0,-1 0,-2 5,0 9,0 14,0 1,0 3,0 4,0 11,0 21,0 31,0 9,0 17,0 26,0 0,0 0,-1 0,-1 7,0 15,0 23,0 6,-2 21,3 21,-3 -3,-6 -16,1 -26,-2 -10,0 -20,0 -30,0 0,1 0,1 0,2 -6,0 -13,0 -19,0 -4,0 -9,0 -13,0 -12,0 -23,0 -34,0 -4,0 -8,0 -12,0 -2,2 -2,4 0,6 5,0 10,0 15,0z"/>
  <path class="fil0" d="M698 433c-2,0 -5,0 -7,0 -5,0 -10,0 -15,0 0,1 0,1 0,2 -5,0 -11,0 -16,0 -6,0 -13,0 -19,0 -2,0 -5,0 -7,0 -5,0 -10,0 -15,0 -12,0 -24,0 -36,0 0,0 0,1 0,1 -6,0 -12,0 -17,0 0,9 -1,17 0,28 0,0 0,0 0,0 3,0 27,0 36,0 0,-1 52,-1 60,-1 13,-1 22,-1 24,-2 2,0 4,0 5,-2 5,-2 9,-7 9,-13 0,-1 0,-2 0,-2 -1,-3 2,-10 -2,-11z"/>
  <path class="fil0" d="M586 339c6,0 12,0 18,0 15,0 29,0 44,0 17,-1 38,2 52,-2 0,-1 0,-2 0,-3 -26,0 -52,0 -78,0 -1,0 -3,0 -4,0 -18,0 -35,0 -52,0 0,0 0,1 0,1 1,7 14,2 20,4z"/>
  <path class="fil0" d="M581 346c6,0 12,0 18,0 5,0 11,0 16,0 15,0 30,0 45,0 11,0 21,0 31,0 0,0 0,-1 0,-1 3,0 6,0 9,0 0,-1 0,-2 0,-3 -5,0 -10,0 -15,0 -5,0 -10,0 -15,0 -35,0 -70,0 -104,0 0,0 0,1 0,1 0,6 10,2 15,3z"/>
  <path class="fil0" d="M618 282c0,-1 -1,-2 -1,-3 0,0 0,-1 -1,-1 0,0 0,0 0,0 -1,-2 -1,-3 -2,-4 -1,0 -1,0 -1,0 -1,-1 -1,-1 -2,-1 0,0 -1,0 -1,0 -1,0 -2,0 -3,0 -1,0 -2,0 -2,0 -1,0 -2,0 -3,0 -3,0 -5,0 -7,1 -1,1 -1,1 -2,2 -2,3 0,4 0,6 0,0 0,0 0,0 1,-3 2,-4 3,-4 0,0 0,-1 0,-1 1,0 1,0 2,0 1,-1 1,-1 3,-1 0,1 -1,1 -1,2 0,0 0,0 -1,1 0,0 0,0 0,0 -2,7 0,10 3,12 1,0 2,0 4,0 0,0 0,0 0,0 2,0 4,0 5,0 1,0 2,-1 2,-1 1,0 1,0 2,0 0,-1 1,-2 1,-2 0,-1 0,-1 0,-1 1,0 2,-2 2,-5z"/>
  <path class="fil1" d="M598 526c0,-1 0,-2 0,-3 -6,0 -15,0 -22,0 -1,0 -2,0 -2,0 0,0 0,0 0,0 -1,0 0,1 1,2 0,0 0,1 1,1 6,6 20,18 22,19 0,0 0,0 0,0 0,-5 0,-11 0,-16 0,-1 0,-2 0,-3z"/>
  <path class="fil1" d="M691 20c-2,-1 -4,-1 -8,-2 0,0 -1,0 -2,0 0,0 0,0 -1,0 -5,-1 -11,-1 -15,-1 -4,0 -7,0 -8,0 0,0 -10,0 -26,-1 -7,0 -15,0 -24,-1 -5,0 -10,0 -15,0 -11,0 -23,-1 -35,-1 -7,0 -15,-1 -22,-1 -10,0 -20,0 -29,-1 -17,0 -31,-1 -41,-1 -7,0 -11,0 -12,0 -25,0 -51,0 -76,0 -3,0 -6,0 -9,0 -22,0 -44,0 -66,0 -2,0 -4,0 -6,0 -22,0 -45,0 -67,0 -1,0 -4,0 -8,0 -10,0 -28,1 -36,1 -4,0 -34,1 -55,1 -10,1 -18,1 -20,1 -2,0 -4,0 -6,0 -6,0 -11,0 -17,0 -1,0 -6,0 -12,0 -15,1 -40,1 -43,1 0,0 -1,0 -2,1 -3,0 -9,2 -12,5 -1,2 -3,4 -4,6 0,1 -1,2 -1,3 0,1 -1,2 -1,2 -1,3 -1,6 -1,6 0,7 0,14 0,22 0,24 0,48 0,73 1,104 -2,212 1,314 1,9 7,13 13,18 0,0 2,1 4,1 0,1 0,1 1,1 0,0 0,0 1,0 3,1 7,1 7,1 2,0 3,0 5,0 12,0 72,1 72,2 6,0 13,0 19,0 5,0 10,0 14,0 2,0 4,0 6,0 8,0 25,0 40,1 11,0 21,0 24,0 7,0 14,0 22,0 5,0 10,0 15,0 25,0 51,0 76,0 0,1 136,1 136,0 22,0 44,0 67,0 1,0 24,0 49,-1 5,0 10,0 15,0 25,-1 47,-2 47,-2 6,0 11,0 17,0 1,0 2,0 3,0 6,0 11,0 17,0 1,0 2,0 4,0 2,-1 6,-2 8,-3 3,-2 6,-5 8,-9 5,-14 2,-36 3,-55 0,-1 0,-3 0,-5 0,-2 0,-5 0,-7 0,-7 0,-13 0,-20 0,-13 0,-27 0,-40 0,-15 0,-30 0,-45 0,-21 0,-66 1,-102 0,-15 0,-28 0,-38 0,-6 0,-10 0,-13 0,-3 0,-7 0,-10 0,-3 0,-5 0,-7 0,-4 0,-9 0,-13 0,-16 0,-32 0,-48 1,-16 -1,-30 -15,-33zm-128 416l0 0c0,1 0,1 0,2 0,8 -1,17 -1,26 0,0 0,0 0,0 -4,2 -50,1 -50,1 -33,0 -67,0 -100,0 -2,0 -4,0 -6,0 -6,0 -12,0 -19,0 -2,0 -5,0 -7,0 -34,0 -67,0 -101,0 0,0 -72,0 -76,0 -12,0 -29,-1 -41,-1 0,-1 -107,-1 -124,-2 0,-1 -11,-2 -13,-3 0,0 -1,0 -1,0 -3,-2 -4,-4 -5,-6 -4,-28 -1,-62 -2,-92 0,-51 0,-109 0,-155 0,-11 0,-21 0,-32 0,-24 0,-48 0,-72 0,-6 0,-12 0,-18 0,-6 0,-12 0,-18 0,-12 0,-24 2,-34 0,-1 3,-8 7,-9 0,0 0,0 1,0 2,-1 6,-2 8,-2 0,-1 72,-1 130,-2 37,0 69,-1 73,-1 10,0 19,0 29,0 40,0 111,0 149,0 9,0 18,0 26,0 9,0 55,1 80,2 9,0 15,0 16,0 7,0 13,0 19,0 1,1 5,-1 6,0l0 124 0 149 1 0c0,1 0,1 0,1 0,0 -1,0 -1,0 0,12 0,24 0,35 0,35 0,69 0,104 2,0 0,-4 3,-5 3,0 6,0 9,0 0,0 0,-1 0,-1 9,0 18,0 27,0 7,0 14,0 20,0 11,0 22,0 32,0 1,0 1,0 2,0 0,-1 0,-1 0,-2 14,1 32,-2 44,2 1,6 -8,2 -12,3 -1,0 -2,0 -3,0 -8,0 -15,0 -23,0 0,1 0,1 0,2 -11,0 -21,0 -32,0 -5,0 -10,0 -15,0 -7,0 -14,0 -20,0 0,0 0,1 0,1 -7,0 -14,0 -22,0 -2,0 -4,0 -6,0 -3,-1 -2,3 -4,3zm53 -148l0 0c0,0 -1,1 -1,2 -1,0 -1,0 -2,0 0,0 -1,1 -2,1 -1,0 -3,0 -5,0 0,0 0,0 0,0 -2,0 -3,0 -4,0 -3,-2 -5,-5 -3,-12 0,0 0,0 0,0 1,-1 1,-1 1,-1 0,-1 1,-1 1,-2 -2,0 -2,0 -3,1 -1,0 -1,0 -2,0 0,0 0,1 0,1 -1,0 -2,1 -3,4 0,0 0,0 0,0 0,-2 -2,-3 0,-6 1,-1 1,-1 2,-2 2,-1 4,-1 7,-1 1,0 2,0 3,0 0,0 1,0 2,0 1,0 2,0 3,0 0,0 1,0 1,0 1,0 1,0 2,1 0,0 0,0 1,0 1,1 1,2 2,4 0,0 0,0 0,0 1,0 1,1 1,1 0,1 1,2 1,3 0,3 -1,5 -2,5 0,0 0,0 0,1zm-17 6l0 0c12,0 23,0 34,0 4,0 8,0 12,0 4,0 8,0 12,0 3,0 5,0 8,0 7,0 13,0 20,0 2,0 4,0 6,0 2,0 5,0 7,0 2,1 2,3 2,5 0,0 -1,0 -2,0 -20,0 -41,0 -62,0 0,0 0,1 0,1 -18,0 -37,0 -55,0 -8,1 -12,1 -14,0 0,0 0,0 -1,0 0,-1 0,-1 0,-1 0,0 0,0 0,0 0,-3 0,-5 3,-5 6,0 12,0 18,0 7,0 7,0 12,0zm54 -17l0 0c-2,1 -2,2 -4,5 0,0 0,0 0,0 0,0 0,0 0,0 0,-2 -1,-3 1,-6 2,-2 4,-3 9,-3 5,-1 8,0 11,1 1,0 2,1 3,2 0,1 0,2 1,3 0,1 1,3 1,4 0,1 0,2 -2,4 0,1 -1,2 -2,3 -1,1 -2,1 -3,1 -1,0 -4,0 -5,0 -2,0 -3,0 -4,0 -3,-2 -6,-5 -3,-12 0,-1 1,-1 1,-3 -1,0 -2,1 -4,1zm33 37l0 0c-4,0 -9,0 -13,0 0,1 0,1 0,2 -19,0 -37,0 -55,0 -17,-1 -38,2 -52,-2 0,-2 0,-3 3,-3 11,0 22,0 33,0 27,0 53,0 80,0 0,0 0,-1 0,-1 5,1 15,-2 18,1 0,1 0,2 0,3 -5,0 -9,0 -14,0zm14 5l0 0c0,1 0,2 0,3 -7,0 -13,0 -20,0 0,0 0,1 0,1 -26,0 -52,0 -78,0 -1,0 -2,0 -3,0 -11,0 -22,0 -33,0 0,0 0,-1 0,-1 0,-1 0,-2 0,-3 10,0 20,0 30,0 30,0 59,0 89,0 0,-1 0,-1 0,-2 4,1 13,-2 15,2zm-61 -12l0 0c0,0 0,1 0,1 -24,-1 -52,2 -73,-1 0,-1 0,-3 0,-4 32,0 65,0 97,0 4,0 9,0 13,0 0,0 1,0 1,0 0,0 0,-1 0,-1 7,1 18,-2 23,1 0,1 0,3 0,4 -20,0 -41,0 -61,0zm-73 112l0 0c7,0 14,0 21,0 8,0 15,0 23,0 5,0 9,0 14,0 4,0 8,0 12,0 6,0 11,0 17,0 0,0 0,-1 0,-1 10,0 21,0 32,0 6,2 14,-4 15,1 1,6 -8,2 -12,3 -3,0 -5,0 -8,0 -10,0 -21,0 -32,0 0,1 0,1 0,2 -7,0 -14,0 -21,0 -6,0 -12,0 -18,0 -2,0 -4,0 -5,0 -9,0 -18,0 -27,0 0,0 0,1 0,1 -4,0 -8,0 -11,0 -2,-2 -2,-3 0,-6zm0 -7l0 0c4,0 8,0 12,0 11,0 22,0 34,0 4,0 9,0 13,0 6,0 13,0 19,0 0,-1 0,-1 0,-2 10,0 20,0 30,0 10,3 23,-4 26,2 0,6 -15,1 -21,3 -8,0 -16,0 -23,0 0,0 0,1 0,1 -9,0 -17,0 -26,0 -10,0 -20,0 -31,0 -1,0 -3,0 -4,0 -5,0 -9,0 -14,0 0,1 0,1 0,2 -5,0 -10,0 -15,0 -2,-2 -2,-4 0,-6zm131 -5l0 0c-1,0 -1,0 -2,0 -3,0 -6,0 -9,0 -6,0 -13,0 -20,0 -8,0 -17,0 -25,0 0,1 0,1 0,2 -10,0 -20,0 -29,0 -4,0 -8,0 -11,0 -6,0 -11,0 -17,0 -6,0 -12,0 -18,0 -1,0 -1,0 -2,0 0,-2 1,-4 2,-5 7,0 15,0 23,0 6,0 13,0 20,0 9,0 18,0 27,0 1,0 2,0 3,0 2,0 3,0 5,0 0,0 0,-1 0,-1 12,0 25,0 38,0 1,0 2,0 3,0 2,0 4,0 6,0 3,0 6,0 9,0 1,3 0,4 -3,4zm-15 -15l0 0c-3,0 -6,0 -9,0 -10,0 -19,0 -28,0 -1,0 -3,0 -4,0 0,0 0,1 0,1 -12,0 -23,0 -34,0 -6,0 -12,0 -18,0 -7,0 -13,0 -20,0 -2,0 -4,0 -3,-3 0,0 0,-1 0,-1 7,0 14,0 21,0 7,0 14,0 22,0 7,0 14,0 21,0 0,-1 0,-1 0,-2 19,0 39,0 58,0 1,0 2,0 3,0 2,0 5,0 7,0 1,0 2,0 2,0 0,2 0,3 0,5 -6,0 -12,0 -18,0zm0 8l0 0c-6,0 -11,0 -17,0 -1,0 -2,0 -3,0 -7,0 -14,0 -21,0 0,0 0,1 0,1 -11,0 -22,0 -32,0 -8,0 -16,0 -23,0 -2,0 -3,0 -5,0 -5,-1 -15,3 -15,-3 0,-1 0,-1 0,-2 9,0 18,0 27,0 1,0 1,0 2,0 1,0 3,0 4,0 2,0 4,0 6,0 13,0 25,0 37,0 0,0 0,-1 0,-1 9,0 18,0 28,0 9,1 24,-1 28,0 7,7 -11,4 -16,5zm-9 -16l0 0c-6,-1 -12,3 -14,0 -1,0 -2,0 -3,0 -8,0 -15,0 -23,0 0,1 0,1 0,2 -13,0 -25,0 -38,0 -7,0 -14,0 -22,0 -1,0 -3,0 -4,0 -3,0 -4,-2 -3,-5 2,0 5,0 7,0 4,0 7,0 10,0 1,0 2,0 3,0 4,0 9,0 13,0 10,0 20,0 29,0 0,0 0,-1 0,-1 10,0 19,0 28,0 11,0 23,0 35,0 3,0 6,0 9,0 0,1 0,2 0,3 -6,3 -19,0 -27,1zm15 -7l0 0c-13,0 -27,0 -40,0 -5,0 -10,0 -15,0 -6,0 -11,0 -17,0 0,0 0,1 0,1 -7,0 -14,0 -21,0 -7,0 -14,0 -22,0 -2,0 -5,0 -7,0 0,-1 0,-3 0,-4 11,0 22,0 33,0 0,-1 0,-1 0,-2 23,0 46,0 69,0 7,0 13,0 20,0 2,0 5,0 7,0 2,0 3,0 5,0 0,1 0,1 0,2 1,6 -8,1 -12,3zm-72 -28l0 0c9,0 17,0 26,0 16,0 32,0 47,0 4,0 7,0 11,0 0,1 0,2 0,3 -12,4 -31,1 -46,2 -8,0 -16,0 -24,0 -4,0 -8,0 -12,0 -13,0 -26,0 -38,0 0,0 0,1 0,1 -5,-1 -13,2 -14,-1 0,-1 0,-2 0,-3 14,-4 34,-1 50,-2zm-50 -6l0 0c0,0 0,-1 0,-1 34,0 69,0 104,0 5,0 10,0 15,0 5,0 10,0 15,0 0,1 0,2 0,3 -3,0 -6,0 -9,0 0,0 0,1 0,1 -10,0 -20,0 -31,0 -15,0 -30,0 -45,0 -5,0 -11,0 -16,0 -6,0 -12,0 -18,0 -5,-1 -15,3 -15,-3zm46 14l0 0c0,0 1,0 1,0 3,0 5,0 8,0 19,0 37,0 56,0 1,0 2,0 3,0 7,0 13,0 20,0 0,1 0,2 0,3 -5,3 -16,0 -23,1 -16,0 -31,0 -47,0 -3,0 -6,0 -9,0 -10,0 -21,0 -31,0 0,1 0,1 0,2 -8,0 -16,0 -24,0 0,-1 0,-1 0,-2 0,-1 0,-2 0,-3 12,-3 31,0 46,-1zm-25 9l0 0c0,-1 0,-1 0,-2 21,0 41,0 61,0 9,0 18,0 28,0 8,0 16,0 24,0 0,1 0,2 0,4 -9,3 -25,0 -37,1 -1,0 -2,0 -3,0 -7,0 -15,0 -22,0 -12,0 -24,0 -36,0 0,1 0,1 0,2 -12,0 -24,0 -36,0 0,-1 0,-1 0,-2 0,-7 16,-1 21,-3zm113 -29l0 0c-14,4 -35,1 -52,2 -15,0 -29,0 -44,0 -6,0 -12,0 -18,0 -6,-2 -19,3 -20,-4 0,0 0,-1 0,-1 17,0 34,0 52,0 1,0 3,0 4,0 26,0 52,0 78,0 0,1 0,2 0,3zm0 107l0 0c0,0 0,1 0,2 0,6 -4,11 -9,13 -1,2 -3,2 -5,2 -2,1 -11,1 -24,2 -8,0 -60,0 -60,1 -9,0 -33,0 -36,0 0,0 0,0 0,0 -1,-11 0,-19 0,-28 5,0 11,0 17,0 0,0 0,-1 0,-1 12,0 24,0 36,0 5,0 10,0 15,0 2,0 5,0 7,0 6,0 13,0 19,0 5,0 11,0 16,0 0,-1 0,-1 0,-2 5,0 10,0 15,0 2,0 5,0 7,0 4,1 1,8 2,11zm0 -115l0 0c-4,0 -8,0 -12,0 0,1 0,1 0,2 -18,0 -36,0 -54,0 -22,-1 -55,1 -68,0 0,-1 0,-1 0,-2 0,0 0,0 0,0 0,0 0,-1 0,-1 0,-1 0,-1 0,-2 16,0 31,0 47,0 21,0 42,0 63,0 3,0 6,0 9,0 0,0 0,-1 0,-1 4,1 13,-2 15,1 0,1 0,2 0,3 0,0 0,0 0,0zm0 -109l0 0c0,3 0,6 0,9 0,4 0,9 0,13 0,1 0,2 0,2 0,8 0,15 0,23 -8,0 -15,0 -23,0 -2,0 -5,0 -7,0 -20,0 -39,0 -58,0 -15,-1 -33,2 -45,-1l0 -122 0 -123c2,-1 6,-1 11,-1 7,0 15,1 17,1 2,0 8,0 16,1 1,0 3,0 4,0 3,0 7,0 10,0 8,0 15,0 17,0 1,0 21,0 23,0 0,1 19,-2 30,6 1,0 1,0 1,0 1,1 2,2 2,3 1,0 1,1 1,2 1,1 2,3 3,5 0,2 0,5 0,7 0,2 0,6 0,11 0,4 0,8 0,13 0,4 0,8 0,12 0,19 0,37 0,56 -1,0 -1,3 -1,7 0,16 -1,54 -1,76z"/>
  <path class="fil1" d="M549 40c-14,0 -27,0 -41,0 0,-1 -366,-1 -366,0 -15,0 -29,0 -44,0 -6,0 -11,0 -17,0 -13,0 -26,0 -40,0 -1,0 -1,0 -2,0 -4,0 -8,0 -10,2 -1,1 -1,2 -1,4 0,0 0,0 0,0 0,3 0,5 0,9 0,6 0,11 0,17 0,6 0,13 0,20 0,34 0,68 0,102 -1,0 -1,109 0,109 0,43 0,85 0,127 0,0 0,0 0,0 2,3 3,5 5,5l111 0 405 0c2,-1 2,-2 3,-4 0,-3 0,-19 0,-42 1,-81 2,-256 2,-345 -1,0 -1,0 -2,0 0,-2 -1,-4 -3,-4zm-44 134l0 0c0,40 0,79 0,119 0,7 0,14 0,21 0,0 -1,15 -2,31 0,3 0,7 0,10 0,4 -1,9 -1,13 0,0 0,1 0,1 0,0 0,1 0,1 0,0 0,0 0,1 0,0 0,0 0,0 -1,1 -1,1 -1,1 0,0 0,1 0,1 0,0 0,0 0,0 0,1 0,1 0,1 0,0 0,1 0,1 0,0 0,0 0,0 0,1 0,1 0,1 0,0 0,0 0,1 0,0 0,0 0,0 0,0 0,1 0,1 0,0 0,0 0,0 0,0 0,1 -1,1 0,0 0,0 0,0 0,0 0,1 0,1 0,0 0,0 0,0 0,0 0,1 0,1 0,0 0,0 0,0 0,0 0,0 0,1 0,0 0,0 0,0 0,0 0,0 0,0 0,0 0,0 0,0 0,1 0,1 -1,1 0,0 0,0 0,0 0,0 0,0 0,1 0,0 0,0 0,0 0,0 0,0 0,0 0,3 -2,3 -2,5 0,1 -2,3 -5,4 -2,1 -5,2 -7,2 0,0 0,0 0,0 -3,1 -9,2 -16,3 -3,0 -6,0 -9,1 -3,0 -7,0 -10,0 -4,1 -7,1 -10,1 -5,0 -10,1 -15,1 -7,0 -15,1 -21,1 -9,0 -15,1 -17,1 0,0 -1,0 -1,0 -6,0 -15,0 -34,1 -10,0 -21,0 -32,0 -27,0 -53,0 -80,0 -8,0 -15,0 -22,0 -38,0 -101,-4 -121,-7 -4,-1 -6,-2 -7,-2 -10,-1 -15,-8 -17,-18 0,0 0,-4 -1,-13 0,-2 0,-4 0,-7 -1,-7 -1,-16 -1,-28 0,-4 -1,-8 -1,-13 0,-4 0,-8 0,-13 0,0 0,-1 0,-1 0,-5 0,-10 0,-15 0,-33 0,-66 0,-99l1 -52 1 -25c0,-3 0,-6 1,-13 3,-11 10,-17 22,-17 0,0 6,-1 16,-2 2,0 4,0 7,0 3,-1 6,-1 10,-1 3,0 5,-1 8,-1 3,0 7,0 11,-1 4,0 9,0 13,-1 3,0 5,0 8,0 7,-1 14,-1 21,-2 1,0 3,0 4,0 14,0 28,-1 41,-1 31,0 61,0 93,0 0,0 12,1 27,1 5,1 11,1 17,1 11,0 20,1 21,1 1,0 4,0 9,0 4,1 8,1 13,1 4,1 8,1 12,1 2,0 5,1 8,1 4,0 8,0 11,1 6,0 10,0 11,0 2,0 5,1 9,1 4,1 8,1 9,1 10,1 19,3 25,8 1,2 2,5 3,9 1,0 1,4 2,8 0,8 1,21 1,33 0,6 0,13 0,18 0,9 0,15 0,17z"/>
  <path class="fil1" d="M136 524c-1,0 -3,0 -4,0 -4,0 -7,0 -12,0 -2,0 -5,-1 -4,2 0,11 0,16 0,17 0,1 0,2 2,1 0,0 2,-1 3,-3 3,-2 6,-5 9,-8 2,-2 3,-4 5,-5 1,-1 1,-2 2,-3 0,0 0,0 0,0 0,-1 0,0 -1,-1z"/>
  <path class="fil1" d="M668 479c-6,0 -11,0 -17,0l0 0 -1 0c-1,0 -1,0 -2,0 -1,0 -3,0 -4,0 0,0 0,0 0,0l-29 1c-1,0 -2,0 -3,0 0,0 -1,0 -2,0 0,0 0,0 0,0l0 0c-2,0 -3,0 -5,0 0,0 0,0 0,0 -2,0 -4,0 -6,0 0,0 0,0 0,0 -1,0 -1,0 -2,0 -1,0 -2,1 -3,1 0,0 0,0 0,0 -1,0 -2,0 -3,0 0,0 -1,-1 -1,-1 -1,0 -2,0 -3,0 -1,0 -6,0 -13,0 -17,1 -46,1 -60,2 0,0 -1,0 -2,0 -13,0 -48,0 -62,0 -11,0 -33,0 -51,0 -5,0 -10,0 -14,0 -8,0 -13,0 -14,0 -26,0 -51,0 -77,0 -3,0 -6,0 -9,0 -2,0 -19,0 -36,-1 -1,0 -2,0 -3,0 -2,0 -5,0 -7,0 -19,0 -38,-1 -44,-1 -1,0 -3,0 -4,0 -1,0 -1,0 -2,0 -9,0 -29,-1 -49,-1 -16,0 -31,0 -36,0 -9,-1 -31,-1 -45,-1 -2,0 -3,0 -5,0 -6,0 -8,0 -8,1 0,0 0,0 0,0 0,0 0,1 0,1 0,1 0,2 0,3 0,1 0,1 0,2 0,0 0,3 0,8 0,6 1,15 1,19 0,5 1,7 2,7 0,1 0,1 0,1l0 -12 0 -9 0 -14 0 -2c3,0 5,-1 7,-1 15,-1 26,0 43,0 1,0 1,0 2,0 22,0 38,1 57,2 2,0 4,0 6,0 1,0 2,0 3,0 2,0 4,0 5,0 1,0 12,0 26,0 1,0 2,0 3,0 10,0 22,1 30,1 6,0 11,0 12,0 6,0 19,0 29,0 3,0 7,0 9,0 2,0 3,0 3,0 11,1 32,1 50,1 16,0 30,0 32,0 84,1 296,-5 300,-3 0,2 0,5 2,5 0,-1 0,-4 0,-5 0,-1 0,-3 0,-4z"/>
  <path class="fil1" d="M635 157l0 0 -60 0 0 1 0 43 0 2 0 40 56 0c1,0 1,0 1,0 1,0 1,0 1,0l2 0 0 0 0 0 0 0c0,0 1,0 1,0 1,0 1,0 2,0 0,0 1,0 1,0 1,0 1,0 2,-1 0,0 0,0 0,0 2,0 4,0 5,-1 0,0 1,0 1,0 0,0 0,0 0,0 1,0 2,-1 3,-1 2,-1 4,-2 6,-3 0,0 0,0 0,0 1,-2 3,-3 5,-4 0,0 0,0 0,0 1,-1 1,-2 2,-3 0,0 0,0 0,0 2,-1 3,-3 4,-5 1,0 1,0 1,0 0,-1 1,-1 1,-2 0,0 0,0 1,-1 1,-1 2,-3 2,-5 0,0 0,0 0,0 1,-1 1,-2 2,-3 0,0 0,-1 0,-1 0,-2 1,-4 1,-6 0,0 0,0 0,0 0,-1 1,-2 1,-3 0,0 0,-1 0,-1 0,-1 0,-2 0,-3 0,-23 -18,-42 -41,-43zm27 22l0 0c0,0 0,3 0,4 0,2 -1,0 -1,0l-1 -3 -1 0 -1 -1 4 0zm-16 -8l0 0 0 -1 3 0c0,0 -1,0 -1,-1 0,-2 0,-2 0,-2 0,0 1,1 2,1 1,0 1,1 1,2 0,0 0,0 0,1 0,1 0,2 0,2l-2 2 -2 -3 -1 0 0 -1zm-16 -5l0 0 0 -1 3 1 0 0 0 2 1 -1 0 0 1 -1 1 1 0 3 -1 1 -3 0 -1 0 0 -3 -1 0 0 -2zm-11 4l0 0 1 -1 1 0 1 3 0 2 -1 0 -2 -4 0 0zm-4 -1l0 0 3 0 -1 0 0 5 -1 0 0 -3 -2 0 0 -2 1 0zm-11 10l0 0 3 0 0 -1 3 0 0 5 -1 0 -1 -2 -1 0 0 2 -1 0 -2 0 0 -4zm-15 25l0 0 -11 0 -1 0 0 -4 0 0 12 0 0 4zm13 9l0 0 -2 0 -2 0 -1 0 1 -4 1 -1 0 -1 0 0 0 0 2 1 0 2 1 0 0 3zm0 -15l0 0 -3 -1 -1 -4 2 0 0 -2 1 0 0 2 2 0 -1 5zm7 26l0 0 -2 0 -1 3 -1 0 0 -3 0 -1 -1 0 0 -2 3 1 2 0 0 2zm11 11l0 0 -4 0c0,-1 0,-1 1,-2 1,0 1,-1 1,-1l-1 -1 -1 0 4 0 0 0 0 4zm-12 -32l0 0c-1,-18 19,-26 23,-27l0 2 0 4c0,0 -1,1 -3,2 -4,3 -11,8 -12,16 -1,10 1,12 1,12l9 7 0 7c0,0 -18,-5 -18,-23zm18 2l0 0c0,0 -1,-1 -1,-1 0,-1 0,-2 0,-2 0,-1 0,-1 0,-1 0,-8 5,-15 11,-17 0,0 0,0 0,-1l0 1 0 9c0,0 -4,0 -4,3 0,4 2,6 3,6l0 13c0,0 -5,-3 -8,-8 -1,-1 -1,-1 -1,-2zm5 34l0 0 0 -2 -2 0 0 -3 2 2 1 -3 3 4 0 2 -4 0zm7 -15l0 0 0 0 -2 2 -2 0 -1 -1 1 -2 5 -4c2,0 2,-2 2,-2 0,0 0,-1 0,-1 0,-5 0,-29 0,-30 0,0 0,-1 0,-2 0,-1 0,-2 0,-2 -1,-1 -1,-1 -1,-1 -1,0 -1,-1 -1,-1l0 -1 3 0 3 0 1 1 -1 6 -1 28 -1 8 0 1 -4 0 -1 1zm13 11l0 0c0,0 0,1 0,1l-3 1 -2 -1 0 -1 0 -4 1 0 3 0 1 1c0,0 0,-1 0,0 0,0 0,2 0,3zm-7 -8l0 0 -2 0 -1 -1 0 -1c0,0 0,-1 1,-1 2,0 3,-2 3,-2l0 -2 0 -3c5,-1 9,-8 11,-16 1,-8 -5,-13 -5,-13l-1 -1 0 2c0,0 1,1 2,5 1,2 1,4 1,6 0,1 0,2 0,3 -1,3 -2,5 -3,6 -3,3 -5,4 -5,4l1 -26 1 -7c3,1 13,9 14,23 0,0 0,0 0,1 0,2 -1,4 -1,6 -4,11 -16,17 -16,17zm18 -1l0 0 -2 1 0 -1 -2 -1 0 -2 1 0 3 -2 0 5zm8 -33l0 0 -1 4 -1 0 -4 0c0,0 2,-1 3,-1 0,0 1,-1 1,-1l-1 0 -2 0 -1 -2 6 0zm-4 18l0 0 0 0 1 -2 -2 -1 0 -1 4 1 1 1 1 1 -2 2c0,0 -2,0 -3,0 -1,0 -2,0 -2,0l2 -1z"/>
  <path class="fil1" d="M667 70c0,-1 -1,-2 -2,-3 -7,-8 -18,-13 -30,-14l0 0 -60 0 0 3 0 17 0 4 0 55 0 1 0 6 56 0c1,0 1,0 1,0 1,0 1,0 1,0l2 0 0 0c23,-1 41,-20 41,-43 0,-9 -3,-18 -8,-25 0,0 0,0 -1,-1zm-5 5l0 0 0 0c0,0 0,3 0,4 0,0 0,1 0,1 -1,0 -1,-1 -1,-1l0 0 -1 -3 0 0 -1 0 -1 -1 4 0zm-16 -9l0 0 3 0c0,0 -1,0 -1,-2 0,-1 0,-1 0,-1 0,0 1,1 2,1 1,0 1,1 1,2 1,1 0,3 0,3l-2 2 -2 -3 -1 -1 0 -1zm-16 -5l0 0 3 1 0 2 1 -1 1 -1 1 1 0 0 0 3 -1 1 -4 0 0 -2 0 -1 -1 0 0 -3zm5 37l0 0 0 11 0 2c0,0 -1,-1 -3,-2 -1,-1 -1,-1 -2,-2 -2,-2 -3,-4 -4,-7 -1,-1 -1,-2 -1,-3 0,-8 6,-15 11,-18l0 10c0,0 -4,0 -4,3 0,4 2,6 3,6zm-15 -33l0 0 1 0 1 2 0 2 0 1 -1 0 0 0 -1 -2 -1 -2 1 -1zm-2 0l0 0 -1 3 0 2 -1 0 0 -3 0 0 -2 0 0 -2 4 0zm-14 10l0 0 3 0 0 -1 3 0 0 1 0 4 -1 0 -1 -1 0 -1 -1 0 0 2 -1 0 -2 0 0 -4zm-15 25l0 0 -12 0 0 -4 12 0 0 4zm13 9l0 0 -2 0 -2 0 0 0 -1 0 1 -4 1 -1 0 -1 2 1 0 1 0 1 1 0 0 3zm0 -15l0 0 -3 -1 -1 -3 0 -1 2 0 0 -2 1 0 0 2 0 0 2 0 -1 5zm7 26l0 0 -2 0 -1 3 -1 0 0 -4 -1 0 0 -2 5 1 0 2zm11 11l0 0 -4 0c0,-2 2,-3 2,-3l-1 -1 0 0 -1 0 2 0 2 0 0 4zm-12 -30l0 0c0,0 0,-1 0,-2 -1,-18 19,-26 23,-27l0 6c0,0 -3,2 -7,5 -4,3 -8,8 -8,13 0,0 0,0 0,0 -1,10 1,12 1,12l9 7 0 4 0 3c0,0 -16,-5 -18,-21zm23 34l0 0 0 -2 -2 0 0 -3 2 2 1 -3 3 4 0 2 -4 0zm7 -15l0 0 0 0 -2 2 -2 0 -1 -2 1 -1 2 -2 0 0 1 -1 2 -1c2,-1 2,-2 2,-2 0,0 0,-30 0,-31 0,0 0,-4 0,-4 -1,-1 -1,-1 -1,-1 -1,0 -1,-1 -1,-1l0 -1 3 0 3 0 1 1 -3 41 0 0 0 2 -4 0 -1 1zm13 10l0 0c0,1 0,2 0,2l-3 1 -1 0 -1 -1 0 -3 0 -2 1 0 3 0 0 0 1 1c0,0 0,-1 0,0 0,0 0,1 0,2zm-3 -10l0 0c-2,2 -4,3 -4,3 0,0 0,0 0,0l-2 0 -1 -1 0 -1c0,0 0,-1 1,-1 2,0 3,-3 3,-3l0 0 0 -1 0 -3c5,-1 9,-8 11,-16 1,-8 -5,-13 -5,-13l-1 -1 0 2c0,0 3,1 3,11 0,10 -8,13 -8,13l2 -33c3,1 9,6 12,15 1,2 1,5 2,8 0,0 0,0 0,0 0,0 0,0 0,1 0,10 -8,17 -13,20zm14 1l0 0 0 1 -2 1 0 0 0 -1 -2 -1 0 -2 1 0 2 -2 1 0 0 0 0 4zm7 -13l0 0c0,0 -2,0 -3,0 -1,0 -2,0 -2,0l2 -1 1 -2 -1 0 -1 -1 0 -1 2 0 2 1 2 2 -2 2zm1 -19l0 0 -1 4 -1 0 -4 0c0,0 2,-1 3,-1 0,0 1,-1 1,-1l-1 0 -2 0 -1 -1 0 -1 5 0 1 0z"/>
 </g>
</svg>
