<?xml version="1.0" encoding="UTF-8"?>
<!DOCTYPE svg PUBLIC "-//W3C//DTD SVG 1.1//EN" "http://www.w3.org/Graphics/SVG/1.1/DTD/svg11.dtd">
<!-- Creator: CorelDRAW X7 -->
<svg xmlns="http://www.w3.org/2000/svg" xml:space="preserve" width="1.48256in" height="1.3934in" version="1.1" style="shape-rendering:geometricPrecision; text-rendering:geometricPrecision; image-rendering:optimizeQuality; fill-rule:evenodd; clip-rule:evenodd"
viewBox="0 0 489 459"
 xmlns:xlink="http://www.w3.org/1999/xlink">
 <defs>
  <style type="text/css">
   <![CDATA[
    .fil0 {fill:#BFACAA;fill-rule:nonzero}
   ]]>
  </style>
 </defs>
 <g id="Graphics">
  <metadata id="CorelCorpID_0Corel-Layer"/>
  <path class="fil0" d="M489 344l0 -344 -489 0 0 344 35 0 0 7 0 0 0 2 -12 102 22 4 10 -39 2 0 0 1 15 0 0 -1 0 0 1 -2 12 -74 309 0 15 77 17 -1 0 -2 0 0 -1 -32 16 73 25 -5 -13 -104 -2 0 0 -6 38 0zm-485 -336l0 0 465 0 7 0 -8 11 -6 0 -457 0 -1 -11zm388 275l0 0 0 0 0 -239c0,-3 0,-8 0,-11 0,-3 2,-5 6,-5l0 0 54 0c3,0 6,2 6,5 0,3 0,8 0,11l0 239 0 0c2,16 -5,16 -5,16l-57 0 0 0c-1,-1 -6,-3 -4,-16zm-17 26l0 0c0,4 -3,7 -7,7l-327 0c-3,0 -7,-4 -7,-8l0 -268c0,-4 4,-7 7,-7l327 0c4,0 7,3 7,7l0 269zm-332 147l0 0 -17 -3 11 -99 27 1 -10 59 -11 42zm-24 -129l0 0 0 -305 4 0 0 303 448 0 0 2 -452 0zm444 125l0 0 -20 4 -17 -78 0 -12 -3 -10 28 -1 12 97z"/>
  <path class="fil0" d="M397 294l56 0c6,0 5,-11 5,-11l0 0 0 -239c0,-3 0,-8 0,-11 0,-2 -3,-5 -6,-5l-54 0c-3,0 -6,3 -6,5 0,3 0,8 0,11l0 239 0 0c0,0 -1,11 5,11zm51 -10l0 0 -47 0 0 -3 47 0 0 3zm0 -5l0 0 -47 0 0 -3 47 0 0 3zm0 -5l0 0 -47 0 0 -3 47 0 0 3zm0 -5l0 0 -47 0 0 -3 47 0 0 3zm0 -5l0 0 -47 0 0 -3 47 0 0 3zm0 -5l0 0 -47 0 0 -3 47 0 0 3zm0 -5l0 0 -47 0 0 -3 47 0 0 3zm0 -5l0 0 -47 0 0 -3 47 0 0 3zm0 -5l0 0 -47 0 0 -3 47 0 0 3zm0 -5l0 0 -47 0 0 -3 47 0 0 3zm0 -5l0 0 -47 0 0 -3 47 0 0 3zm0 -5l0 0 -47 0 0 -3 47 0 0 3zm0 -5l0 0 -47 0 0 -3 47 0 0 3zm0 -5l0 0 -47 0 0 -3 47 0 0 3zm0 -5l0 0 -47 0 0 -3 47 0 0 3zm0 -5l0 0 -47 0 0 -3 47 0 0 3zm0 -5l0 0 -47 0 0 -3 47 0 0 3zm0 -5l0 0 -47 0 0 -3 47 0 0 3zm0 -5l0 0 -47 0 0 -3 47 0 0 3zm0 -5l0 0 -47 0 0 -3 47 0 0 3zm0 -5l0 0 -47 0 0 -3 47 0 0 3zm0 -5l0 0 -47 0 0 -3 47 0 0 3zm0 -5l0 0 -47 0 0 -3 47 0 0 3zm-23 -96l0 0c8,0 15,7 15,15 0,9 -7,15 -15,15 -8,0 -15,-6 -15,-15 0,-8 7,-15 15,-15zm-2 -24l0 0 0 -2 9 0 0 0c0,-2 1,-3 2,-3 0,0 1,2 1,5 0,3 -1,5 -1,5 0,0 -4,1 -4,-5l-7 0zm14 0l0 0 0 -2 9 0 0 2 -9 0zm3 84l0 0c0,9 -7,15 -15,15 -8,0 -15,-6 -15,-15 0,-8 7,-15 15,-15 8,0 15,7 15,15zm-30 -83l0 0c0,0 0,0 0,0 0,0 0,0 0,0 0,0 0,0 0,0 0,0 0,0 0,0 0,0 0,0 0,0 0,0 0,0 0,0 0,0 0,0 0,0 0,0 0,0 0,0 0,0 0,0 -1,1 0,0 0,0 0,0 0,0 0,0 0,0 0,0 0,0 0,0 0,0 0,0 0,0 0,0 0,0 0,0 0,0 0,0 0,0 0,0 0,0 0,0 0,0 0,0 0,0 0,0 0,0 0,0 -1,1 -2,1 -3,1 -2,0 -3,-1 -3,-3 0,-1 0,-2 1,-3 0,0 0,0 0,0 0,0 0,0 0,0 0,0 0,0 0,0 0,0 0,0 0,0 0,0 0,0 0,0 0,0 0,0 0,0 0,0 0,0 0,0 0,0 0,0 0,0 0,0 1,0 1,0 0,0 0,0 0,-1 0,0 0,0 0,0 0,0 0,0 0,0 0,0 0,0 0,0 0,0 0,0 0,0 0,0 0,0 0,0 0,0 0,0 0,0 0,0 0,0 0,0 0,0 0,0 0,0 1,-1 2,-1 3,-1 2,0 3,1 3,3 0,1 0,2 -1,3zm-10 -23l0 0 50 0c4,0 4,5 4,8 0,-4 -2,-6 -3,-6l0 0 -51 0c0,0 -3,0 -5,6 1,-3 1,-8 5,-8z"/>
  <path class="fil0" d="M368 35l-327 0c-2,0 -5,2 -5,5l0 268c0,3 3,5 5,5l327 0c3,0 5,-2 5,-5l0 -268c0,-3 -2,-5 -5,-5zm-12 217l0 0 0 0c0,1 0,2 -1,4 0,0 -2,25 -17,28 0,0 -117,24 -260,0 0,0 -20,-2 -24,-26 0,0 -11,-87 0,-175 0,0 1,-19 19,-23 0,0 116,-24 260,0 22,5 22,20 22,20 0,0 11,85 1,172l0 0z"/>
 </g>
</svg>
