<?xml version="1.0" encoding="UTF-8"?>
<!DOCTYPE svg PUBLIC "-//W3C//DTD SVG 1.1//EN" "http://www.w3.org/Graphics/SVG/1.1/DTD/svg11.dtd">
<!-- Creator: CorelDRAW X7 -->
<svg xmlns="http://www.w3.org/2000/svg" xml:space="preserve" width="1.76309in" height="1.18643in" version="1.1" style="shape-rendering:geometricPrecision; text-rendering:geometricPrecision; image-rendering:optimizeQuality; fill-rule:evenodd; clip-rule:evenodd"
viewBox="0 0 657 442"
 xmlns:xlink="http://www.w3.org/1999/xlink">
 <defs>
  <style type="text/css">
   <![CDATA[
    .fil0 {fill:#BFADAA;fill-rule:nonzero}
   ]]>
  </style>
 </defs>
 <g id="Vector_x0020_Graphics">
  <metadata id="CorelCorpID_0Corel-Layer"/>
  <path class="fil0" d="M388 206c-4,2 6,5 0,0z"/>
  <path class="fil0" d="M360 217c0,1 2,2 2,3 1,0 1,0 2,0 -1,-2 -2,-3 -4,-3z"/>
  <path class="fil0" d="M453 54c0,-2 0,-4 -1,-4 -7,0 -13,1 -20,1 0,2 0,4 0,5 0,1 0,2 0,2 1,0 2,0 4,0 4,0 8,-1 13,-1 1,0 2,0 4,0 0,-1 0,-2 0,-3zm-8 -2l0 0c3,0 3,0 3,3 -3,1 -3,1 -3,-3z"/>
  <path class="fil0" d="M642 83c-1,-3 -4,-5 -7,-6 -1,-1 -3,-2 -4,-2 -2,-4 -4,-8 -4,-12l-2 -25c0,-5 0,-9 0,-13 -1,-3 -2,-10 -2,-13 0,-1 -123,-8 -123,-8l-27 1 0 4 -43 4 -25 -13 -16 1 -208 25 0 15 -175 19 0 0 -6 1 30 354 1 0c0,1 1,0 3,0 2,0 4,0 5,0 4,0 8,-1 11,-1 3,0 3,-2 5,-2l0 0c1,0 2,0 2,1 1,1 4,0 6,0 0,0 0,0 0,0l436 26 0 0 4 0 0 3c0,0 20,0 22,0 0,0 0,0 0,0l0 0 -29 -436 2 0 1 3 28 433 -1 0 0 0 0 0c0,0 0,0 0,0 1,0 1,0 2,0l0 0 0 0 6 -2 1 -1 5 -2 1 0 4 -2 1 0 5 -2 3 -1 2 -1 0 0c0,0 0,0 0,0 0,0 0,0 1,0l7 -3c1,-1 2,-1 3,-1l6 -2c0,0 0,-1 0,-1l5 -1c0,0 0,-1 0,-1l10 -3c0,-1 1,-1 2,-1l37 -14 18 -8 2 0 3 -1 0 -1 3 -5c6,-4 4,-19 4,-19 0,0 -2,-41 -4,-92 0,0 0,0 0,0 0,-2 0,-4 0,-6 -4,-81 -9,-184 -11,-189zm-623 -16l0 0 0 -5 170 -18 12 -2c0,0 0,0 0,0l8 -1c0,0 0,0 0,0l28 -3c0,0 0,0 0,0l6 0c0,0 1,0 1,0l24 -3c0,0 0,0 0,0l14 -2c1,0 2,0 3,0l18 -2c0,0 0,0 0,0l23 -3c1,0 2,0 3,0l6 0c0,0 0,0 0,-1l31 -3c1,0 2,0 4,0 0,0 0,0 0,0l103 -12 0 7 -450 47 0 4c0,0 0,-1 0,-2 -1,-3 -2,-2 -4,-1zm474 366l0 0 -9 0 -7 -1 -10 0 -3 0 -10 -1 -5 0 -13 -1 -1 0 -29 -2 0 0 -183 -11 -88 -6 -73 -4 -12 -1 0 -1 -1 -5 0 0c0,-8 -1,-16 -1,-24 0,-1 0,-4 0,-5 0,0 1,0 1,1 0,1 1,3 1,3 1,2 1,4 1,6 1,1 1,1 1,2l0 0 3 0c7,1 15,2 22,3 2,0 4,0 6,0 1,0 2,1 3,1 32,3 62,5 89,7 1,0 1,0 2,0 2,0 4,0 6,0 2,0 3,0 4,0 9,1 17,1 25,2 77,3 127,1 136,0 1,0 1,0 1,0l0 0c1,0 0,-1 0,-3 0,-4 0,-8 -1,-13 0,0 0,-12 1,-11 1,1 1,4 1,5 0,4 2,22 1,23 0,1 1,3 1,4 0,0 0,4 0,4 0,0 -2,0 -5,0 -2,0 -3,0 -4,-1 -5,0 -10,0 -17,0 -3,0 -9,0 -9,0 -5,0 -31,-1 -36,-1 -1,0 -5,0 -5,0 -4,0 -7,0 -11,0 -2,0 -15,-1 -20,-1 -3,0 -15,-1 -19,-1 -2,0 -3,1 -4,0 -60,-2 -126,-6 -168,-11 -4,0 0,7 -1,9 0,2 2,3 3,3l389 21c1,0 1,0 2,0l42 3c3,-1 5,-1 5,0l0 0c0,-21 -2,-41 -4,-62l-22 -329 -1 -2 0 0 -4 0 -105 11 -7 0 -5 1 -8 1 -11 1 -4 0 -6 1 -38 4 -5 0 -103 10c-1,1 -2,1 -4,1l-43 4 -5 1 -80 8 -11 1 0 0 0 1c0,1 -1,1 -1,1 0,0 0,1 0,1l1 -1 -1 3 308 -29 28 -3 13 -1 38 -3 8 -1 0 6 0 2 3 42c-2,2 -3,5 -3,8 0,3 1,5 2,7 -1,-1 -1,-3 -1,-4 0,-3 1,-2 1,-2l0 2 1 0 0 0 2 -1 1 -2c0,0 0,-2 0,-3 0,0 2,-3 2,-3l2 0 1 0c0,0 0,1 0,1 0,0 0,2 0,3 0,0 -1,0 -1,0 -1,0 -2,3 -2,4 0,0 -2,4 0,5 3,0 3,0 3,0 0,0 -3,3 -6,2 0,0 -1,0 -1,0 0,0 0,0 0,0l0 5 1 14 0 4c-2,2 -3,5 -3,8 0,3 1,5 2,7 0,-1 -1,-3 -1,-4 0,-2 1,-2 1,-2l1 2 0 0 1 0 1 -1 2 -2c0,0 -1,-2 0,-2 0,-1 1,-3 1,-3l3 -1 0 0c0,0 1,1 1,1 0,0 0,2 -1,3 0,0 0,0 0,0 -1,1 -3,4 -3,5 0,0 -1,4 1,4 2,0 3,1 3,1 0,0 -3,2 -6,2 -1,0 -1,0 -1,-1 0,0 -1,0 -1,0l1 12 2 24 1 16 2 41 -76 1 0 -5c0,-1 0,-2 0,-2l-2 -24c0,0 0,0 0,0l-1 -10c0,0 0,0 0,0l-1 -15c0,0 0,0 0,0l-1 -10 -2 -28 -1 -28c1,-3 -2,-3 -2,-4 1,-2 6,1 8,0 -2,4 4,8 7,10 3,3 5,4 9,5 3,0 6,0 9,0 1,1 0,1 -1,1 -2,1 -1,2 -3,3 -1,0 -8,1 -8,-2 -2,0 -3,0 -3,2 1,1 2,1 3,2 1,0 2,4 4,5 7,5 16,5 24,3 8,-2 14,-7 17,-15 2,-4 3,-7 3,-17 -1,-10 -5,-19 -8,-24 -4,-6 -12,-15 -13,-14 -1,1 5,4 11,16 1,2 2,9 2,11 0,3 0,11 -1,14l-9 0c0,0 0,-2 0,-3 0,0 0,0 0,0 0,-2 0,-3 0,-5 0,-3 -1,-6 -2,-9 3,-1 0,-3 -1,-5 0,-2 -1,-4 -2,-6 -2,1 -3,2 -3,4 -3,-1 -2,-3 -1,-5 2,-2 2,-3 0,-6 -1,-3 -4,-5 -7,-7 -4,-1 -6,-1 -11,-1 -3,1 -5,2 -8,4 -3,0 -3,0 -5,3 -1,1 -2,2 -4,3 0,3 -3,5 -3,8 -1,2 -1,5 -1,7 2,0 5,0 7,-1 2,0 5,1 5,-1 1,-4 4,-6 7,-7 1,-2 -3,0 -3,-2 -1,-1 -2,-3 -2,-4 0,-2 5,2 6,3 2,2 1,1 5,1 2,0 4,-1 5,2 1,0 9,8 4,9 2,2 5,3 8,3 0,2 -3,1 -3,3 -1,3 -2,1 -2,-1 -3,0 -11,2 -13,0 -2,-3 -8,0 -12,-1 0,0 -1,0 -1,-1 -1,0 -3,0 -4,0 -1,0 -4,1 -6,0 -1,0 -1,-1 -1,-1 -1,0 -2,0 -3,0 -2,0 -3,-2 -1,-2 0,-2 1,-4 1,-6 0,-1 -1,-2 -2,-3 0,-2 0,-4 0,-5 0,-8 -1,-15 -1,-22 0,-3 -1,-7 -1,-10l-2 0c1,2 1,6 -1,6 -1,0 -2,-1 -2,-3 0,0 -4,-1 -6,-2 0,2 -2,2 -3,2 0,7 -1,14 0,21 0,8 0,16 1,24 1,15 4,56 4,71 -3,6 -15,2 -31,-62 3,13 9,54 9,61 5,29 8,58 9,87 1,18 1,101 1,101 -1,3 -8,2 -10,2 -2,0 -4,1 -5,1 0,0 -7,0 -10,0 -1,0 -2,0 -2,0 -30,2 -57,2 -80,2 -3,0 -5,0 -7,0 -4,0 -9,0 -13,0 -2,0 -3,0 -5,0 -3,-1 -6,-1 -9,-1 -3,0 -6,0 -9,0 -10,-1 -18,-1 -26,-2 -4,0 -8,-1 -12,-1 -3,0 -7,-1 -10,-1 -1,0 -1,0 -2,0 -2,-1 -4,-1 -6,-1 -1,0 -2,0 -2,0 -2,-1 -4,-1 -6,-1 -1,0 -2,-1 -4,-1 -1,0 -3,0 -4,-1 -1,0 -2,0 -3,0 -2,0 -4,-1 -5,-1 -1,0 -2,0 -2,0 -3,-1 -13,-2 -13,-2 -1,-1 -2,-1 -4,-2 0,0 0,0 -1,0 0,-1 -1,-2 -1,-2 0,0 0,-1 0,-1 -1,-12 -18,-169 -17,-220 0,0 0,2 1,5 0,-3 0,-6 0,-9 0,13 1,25 2,37 1,16 3,37 5,60 0,7 1,14 1,21 1,3 1,5 1,8 2,20 4,41 6,62 0,0 0,1 0,2 1,11 2,22 3,30 0,0 0,1 0,1 0,1 1,2 2,3 1,0 9,3 14,3 -7,-21 -11,-44 -13,-66 -4,-27 -10,-109 -11,-123 0,-6 0,-34 2,-35 23,-8 48,-12 73,-15 42,-4 85,-5 128,-6 12,0 27,3 36,4 0,-1 -1,-4 -1,-7 0,-2 -1,-4 -2,-5 -3,-2 -72,0 -81,1 -6,0 -11,1 -16,1 18,-18 41,-27 52,-31 5,0 9,0 14,-1 4,0 30,-1 36,-1 4,1 18,5 17,1 -1,-3 -1,-5 1,-10 0,0 0,0 0,0l-2 0 -32 3 -22 2 -33 3 -16 2 -52 5 -10 1 -40 4 -19 1 -41 4 -16 2 -12 1 -1 0c0,0 -2,0 -2,1 -1,2 0,4 0,5 0,4 0,5 1,13 0,0 3,57 3,57 -2,-16 -7,-79 -8,-91l3 0 448 -43c0,2 1,4 1,5 0,9 1,18 1,26 2,17 2,33 3,50 3,33 5,67 7,100 2,33 4,65 6,98 2,27 3,55 6,83 1,11 3,42 3,42l-8 -1zm-139 -315l0 0c-3,-1 -5,-2 -6,-4 0,-1 -1,-6 1,-5 1,0 4,0 4,2 1,2 0,5 1,7zm86 177l0 0c1,-1 2,-3 2,-3l3 0c0,0 0,0 0,0 1,0 1,1 1,1 0,0 0,1 0,2 -1,0 -1,1 -1,1 -1,0 -3,3 -3,4 0,0 -1,4 1,4 2,1 3,1 3,1 0,0 -3,3 -7,2 0,0 0,0 0,0 -1,-1 -2,-1 -3,-2 0,-2 -1,-3 -1,-5 0,-2 1,-1 1,-1l1 1 0 1 2 -1 2 -2c0,0 -1,-2 -1,-3zm-3 -143l0 0c0,0 2,-2 3,-2 1,-1 2,0 3,1 2,2 4,4 6,4 5,-1 8,-6 8,-13 -1,-5 -3,-10 -7,-11 -1,0 -3,-1 -5,-1 -3,0 -3,4 -3,4l-2 0c0,0 -2,-1 -4,-2 0,0 -1,0 -1,0l-1 -6 0 -13 -1 -1c1,0 1,0 1,0l0 -1c0,0 2,-1 3,-2 1,0 3,1 4,2 1,2 4,3 6,3 4,0 8,-6 7,-12 0,-6 -3,-10 -7,-11 0,-1 -2,-2 -4,-1 -3,0 -4,4 -4,4l-1 0c0,0 -3,-1 -4,-2 -1,0 -1,0 -2,0l-2 -24 1 0 -2 -24 7 0 7 -1 2 0c2,0 11,-2 11,-2l1 0 0 1 0 0 1 4 0 4 1 12 1 11 3 58 5 81 15 203 -30 -1 -3 -51 0 -8 -1 -9 0 0c0,0 2,-2 3,-3 1,0 3,1 4,2 1,2 4,4 6,3 4,0 8,-5 7,-12 0,-5 -3,-10 -7,-11 0,-1 -2,-1 -4,-1 -3,0 -4,4 -4,4l-1 0c0,0 -3,-1 -4,-2 -1,0 -1,0 -1,0l-2 -20c0,0 0,0 0,0l1 0c0,0 1,-2 3,-2 1,0 2,1 3,2 2,2 4,3 6,3 5,0 8,-6 8,-12 -1,-6 -4,-10 -7,-11 -1,-1 -3,-2 -5,-2 -3,1 -3,4 -3,4l-2 0c0,0 -2,0 -4,-1 0,0 -1,-1 -1,-1l-2 -31 -2 -35 -2 -23 0 -7 -1 -15 -1 -10 -1 -7 0 -6c0,0 0,0 0,0l1 0zm-2 -16l0 0c-2,-2 -4,-2 -4,-2 1,0 3,-1 4,-1 1,1 2,1 3,2 2,2 0,4 0,4 0,-1 -2,-3 -3,-3zm10 -5l0 0c0,-1 2,-1 6,1 5,2 3,8 3,8 0,0 -2,5 -1,-1 0,-6 -8,-8 -8,-8zm1 5l0 0c0,0 3,1 3,3 0,1 -2,2 -2,2 0,0 0,-1 -2,-2 -2,0 0,-3 1,-3zm-14 -41l0 0c-1,-1 -3,-1 -3,-1 1,-1 2,-1 3,-1 1,0 2,0 3,1 3,2 1,5 1,5 -1,-2 -2,-3 -4,-4zm10 -4l0 0c0,-2 2,-2 7,0 4,3 2,9 2,9 0,0 -1,5 -1,-1 0,-6 -8,-8 -8,-8zm2 5l0 0c0,0 2,1 3,2 0,2 -3,3 -3,3 0,0 0,-2 -2,-2 -1,-1 0,-3 2,-3zm4 234l0 0c-2,-2 -4,-2 -4,-2 1,0 2,-1 4,-1 1,1 1,1 2,2 3,2 1,4 1,4 -1,-1 -2,-2 -3,-3zm9 -5l0 0c0,-1 2,-1 7,1 4,2 3,8 3,8 0,0 -2,5 -2,-1 0,-6 -8,-8 -8,-8zm2 5l0 0c0,0 3,1 3,3 0,1 -3,2 -3,2 0,0 0,-2 -2,-2 -1,0 0,-3 2,-3zm-4 -44l0 0c0,-2 1,-2 6,0 5,2 3,8 3,8 0,0 -2,6 -1,0 0,-6 -8,-8 -8,-8zm1 5l0 0c0,0 3,1 3,2 0,2 -2,2 -2,2 0,0 -1,-1 -2,-1 -2,-1 0,-4 1,-3zm-11 -3l0 0c1,0 2,0 3,1 2,2 0,5 0,5 0,-2 -2,-3 -3,-4 -2,-1 -4,-2 -4,-2 1,0 3,0 4,0zm-6 50l0 0 0 2 1 0 2 -1 1 -2c0,0 0,-2 0,-3 0,0 2,-3 2,-3l3 0c0,0 0,0 0,1 0,0 0,0 0,0 0,0 0,1 0,2 0,1 0,1 -1,1 -1,0 -2,4 -2,5 0,0 -2,3 1,4 2,0 2,0 2,0 0,0 -3,3 -6,3 0,-1 -1,-1 -1,-1 -1,0 -2,-1 -2,-2 -1,-1 -1,-3 -1,-4 0,-3 1,-2 1,-2zm-73 -221l0 0c1,-4 7,0 6,4 -2,-1 -3,-3 -6,-4zm12 5l0 0c-7,-4 9,-5 0,0zm17 -21l0 0c4,6 -7,-4 0,0zm-12 -14l0 0c-7,-1 8,-6 1,-2 1,3 -1,4 -1,2zm-6 -3l0 0c0,1 0,6 -3,3 -1,-1 -1,-3 -1,-5 2,0 2,2 4,2zm-14 12l0 0c-2,6 -5,-7 0,0zm118 8l0 0c0,-1 0,-1 0,-1l0 0 0 1z"/>
  <path class="fil0" d="M401 169c13,12 23,37 16,40 -2,1 -4,0 -6,1 -3,0 -4,-14 -5,-18 0,-1 -2,-6 -4,-8 -2,-4 -4,-7 -7,-10 -1,0 -4,-3 -7,-4 -5,-2 -10,-2 -11,-2 -2,0 -9,3 -10,3 -5,4 -6,7 -7,10 0,1 1,3 1,4 0,0 -2,-1 -3,-1l0 1c1,2 2,4 2,7 1,3 1,7 1,10 2,0 2,4 2,5 0,4 3,6 4,9 2,0 2,-2 0,-2 0,-1 1,-2 2,-2 2,0 5,3 4,6 1,-1 1,-3 2,-4 1,0 2,-1 0,-2 -2,0 -1,-2 -1,-4 0,1 -3,2 -3,2 0,-1 1,-3 1,-3 0,-3 0,-5 0,-8 2,2 5,2 7,2 4,0 0,-3 0,-4 -1,-3 3,-5 0,-5 -2,-1 -4,-1 -3,-4 0,-2 1,-4 4,-4 3,0 6,-1 8,1 2,2 3,4 5,6 3,0 2,5 2,7 -2,0 -5,0 -7,0 -1,0 -2,1 -4,1 1,1 0,3 2,4 3,2 6,4 7,8 -3,0 -2,1 -4,2 -1,2 -2,2 -4,2 -3,-1 -5,-2 -8,-1 -1,1 7,3 9,3 -1,2 -3,4 -6,4 1,1 2,1 3,2 1,0 1,1 1,1 2,0 4,0 6,0 3,0 3,0 4,-2 1,-1 2,0 2,0 1,3 -3,4 -4,5 -4,1 -7,1 -11,1 -2,0 -7,2 -8,-1 -6,0 4,4 5,5 2,2 6,6 11,8 6,2 17,-1 21,-4 3,-2 6,-5 9,-8 2,-3 5,-15 3,-26 -3,-13 -9,-25 -21,-33zm-28 6l0 0c0,0 1,-1 1,-1 0,0 0,0 0,0 0,0 -2,2 -1,1z"/>
  <polygon class="fil0" points="456,377 458,407 477,407 475,378 "/>
  <polygon class="fil0" points="462,174 443,173 444,203 464,203 "/>
 </g>
</svg>
