<?xml version="1.0" encoding="UTF-8"?>
<!DOCTYPE svg PUBLIC "-//W3C//DTD SVG 1.1//EN" "http://www.w3.org/Graphics/SVG/1.1/DTD/svg11.dtd">
<!-- Creator: CorelDRAW X7 -->
<svg xmlns="http://www.w3.org/2000/svg" xml:space="preserve" width="1.68448in" height="1.35788in" version="1.1" style="shape-rendering:geometricPrecision; text-rendering:geometricPrecision; image-rendering:optimizeQuality; fill-rule:evenodd; clip-rule:evenodd"
viewBox="0 0 758 611"
 xmlns:xlink="http://www.w3.org/1999/xlink">
 <defs>
  <style type="text/css">
   <![CDATA[
    .fil0 {fill:yellow;fill-rule:nonzero}
    .fil1 {fill:#7C7C7D;fill-rule:nonzero}
    .fil3 {fill:#BFADAA;fill-rule:nonzero}
    .fil2 {fill:#D7D7D7;fill-rule:nonzero;fill-opacity:0.650980}
   ]]>
  </style>
 </defs>
 <g id="Vector_x0020_Graphics">
  <metadata id="CorelCorpID_0Corel-Layer"/>
  <path class="fil0" d="M55 455c0,0 265,97 520,153 0,0 23,6 30,2 7,-4 83,-92 96,-117 0,0 34,-64 36,-69 2,-6 2,-6 2,-6l4 -8c0,0 18,-228 15,-281 0,0 2,-25 -6,-32 -9,-6 -52,-17 -52,-17 0,0 0,-18 -4,-20 -3,-1 -14,-7 -22,-2l-4 1 -243 -44c0,0 -5,-1 -5,2l-24 -4c0,0 3,-6 0,-6 -4,0 -11,0 -11,3 -1,4 -2,10 0,11 3,0 7,2 9,-2l22 5c0,0 1,4 4,4 4,1 193,35 193,35l-4 5c0,0 -420,-70 -480,-68 0,0 -7,-1 -12,2 -6,3 -104,66 -104,66 0,0 -15,6 -15,18 0,11 6,225 26,334 0,0 3,19 9,24 6,4 20,11 20,11z"/>
  <path class="fil1" d="M44 440c-6,-2 -8,-11 -9,-17 0,0 -30,-218 -26,-336 0,-7 5,-9 11,-9 178,20 609,110 609,110 7,2 10,11 10,17 7,146 -33,384 -33,384 -1,7 -7,11 -13,9 0,0 -257,-56 -549,-158z"/>
  <path class="fil2" d="M461 215c0,0 -2,201 -9,266 0,0 2,16 -21,17 -23,2 -196,-23 -327,-83 0,0 -20,-13 -24,-31 -3,-17 -31,-143 -18,-242 0,0 4,-30 25,-29 21,1 267,43 342,64 0,0 31,6 32,38z"/>
  <polygon class="fil3" points="497,368 596,389 596,393 497,372 "/>
  <polygon class="fil3" points="497,381 595,402 595,405 497,384 "/>
  <polygon class="fil3" points="496,393 595,414 595,418 496,397 "/>
  <polygon class="fil3" points="495,405 594,427 594,430 495,409 "/>
  <polygon class="fil3" points="495,418 593,439 593,443 495,421 "/>
  <polygon class="fil3" points="494,430 593,451 593,455 494,434 "/>
  <polygon class="fil3" points="494,443 592,464 592,467 494,446 "/>
  <polygon class="fil3" points="493,455 591,476 591,480 493,459 "/>
  <polygon class="fil3" points="492,467 591,489 591,492 492,471 "/>
  <polygon class="fil3" points="492,480 590,501 590,505 492,483 "/>
  <polygon class="fil3" points="491,492 589,514 589,517 491,496 "/>
  <polygon class="fil3" points="490,505 589,526 589,530 490,508 "/>
  <polygon class="fil3" points="490,517 588,539 588,542 490,521 "/>
  <polygon class="fil3" points="489,529 587,551 587,555 489,533 "/>
  <path class="fil3" d="M511 330l81 18c0,0 7,1 7,-3 1,-4 12,-112 12,-112 0,0 0,-10 -8,-12 -9,-2 -88,-17 -88,-17 0,0 -7,4 -7,8 0,4 -7,107 -7,107 0,0 3,10 10,11z"/>
 </g>
</svg>
