<?xml version="1.0" encoding="UTF-8"?>
<!DOCTYPE svg PUBLIC "-//W3C//DTD SVG 1.1//EN" "http://www.w3.org/Graphics/SVG/1.1/DTD/svg11.dtd">
<!-- Creator: CorelDRAW X7 -->
<svg xmlns="http://www.w3.org/2000/svg" xml:space="preserve" width="1.38251in" height="1.33875in" version="1.1" style="shape-rendering:geometricPrecision; text-rendering:geometricPrecision; image-rendering:optimizeQuality; fill-rule:evenodd; clip-rule:evenodd"
viewBox="0 0 610 591"
 xmlns:xlink="http://www.w3.org/1999/xlink">
 <defs>
  <style type="text/css">
   <![CDATA[
    .fil0 {fill:#BFACAA;fill-rule:nonzero}
   ]]>
  </style>
 </defs>
 <g id="Graphics">
  <metadata id="CorelCorpID_0Corel-Layer"/>
  <path class="fil0" d="M498 510l0 2c4,1 6,4 6,8 0,4 -4,8 -9,8 -4,0 -8,-4 -8,-8 0,-4 2,-7 5,-8l0 -2c-4,1 -7,5 -7,10 0,5 5,10 10,10 6,0 11,-5 11,-10 0,-5 -3,-9 -8,-10z"/>
  <path class="fil0" d="M291 516c-7,0 -12,5 -12,11 0,7 5,12 12,12 6,0 12,-5 12,-12 0,-6 -6,-11 -12,-11zm0 22l0 0c-6,0 -11,-5 -11,-11 0,-6 5,-10 11,-10 6,0 10,4 10,10 0,6 -4,11 -10,11z"/>
  <polygon class="fil0" points="496,506 494,506 494,518 496,518 "/>
  <path class="fil0" d="M411 516c-6,0 -12,5 -12,11 0,7 6,12 12,12 7,0 12,-5 12,-12 0,-6 -5,-11 -12,-11zm0 22l0 0c-6,0 -10,-5 -10,-11 0,-6 4,-10 10,-10 6,0 11,4 11,10 0,6 -5,11 -11,11z"/>
  <path class="fil0" d="M441 516c-6,0 -12,5 -12,11 0,7 6,12 12,12 7,0 12,-5 12,-12 0,-6 -5,-11 -12,-11zm0 22l0 0c-6,0 -10,-5 -10,-11 0,-6 4,-10 10,-10 6,0 11,4 11,10 0,6 -5,11 -11,11z"/>
  <path class="fil0" d="M321 516c-7,0 -12,5 -12,11 0,7 5,12 12,12 6,0 12,-5 12,-12 0,-6 -6,-11 -12,-11zm0 22l0 0c-6,0 -11,-5 -11,-11 0,-6 5,-10 11,-10 6,0 10,4 10,10 0,6 -4,11 -10,11z"/>
  <path class="fil0" d="M351 516c-7,0 -12,5 -12,11 0,7 5,12 12,12 6,0 12,-5 12,-12 0,-6 -6,-11 -12,-11zm0 22l0 0c-6,0 -11,-5 -11,-11 0,-6 5,-10 11,-10 6,0 10,4 10,10 0,6 -4,11 -10,11z"/>
  <path class="fil0" d="M381 516c-6,0 -12,5 -12,11 0,7 6,12 12,12 7,0 12,-5 12,-12 0,-6 -5,-11 -12,-11zm0 22l0 0c-6,0 -10,-5 -10,-11 0,-6 4,-10 10,-10 6,0 11,4 11,10 0,6 -5,11 -11,11z"/>
  <path class="fil0" d="M495 493c-14,0 -26,12 -26,26 0,15 12,27 26,27 15,0 27,-12 27,-27 0,-14 -12,-26 -27,-26zm0 49l0 0c-12,0 -23,-10 -23,-23 0,-12 11,-23 23,-23 13,0 23,11 23,23 0,13 -10,23 -23,23z"/>
  <path class="fil0" d="M577 0l-544 0c-18,0 -33,15 -33,33l0 511c0,18 15,33 33,33l7 0 0 14 530 0 0 -14 7 0c18,0 33,-15 33,-33l0 -511c0,-18 -15,-33 -33,-33zm-18 580l0 0 -509 0 0 -10 509 0 0 10zm41 -36l0 0c0,13 -11,23 -23,23l-14 0 -4 0 -509 0 -3 0 -14 0c-12,0 -23,-10 -23,-23l0 -511c0,-12 11,-23 23,-23l544 0c12,0 23,11 23,23l0 511z"/>
  <path class="fil0" d="M546 61l-482 0 0 379 482 0 0 -2 0 -377zm-4 375l0 0 -474 0 0 -371 474 0 0 371z"/>
  <path class="fil0" d="M64 440l0 -379 482 0 0 0 0 0 0 0 0 377 0 2 -482 0zm1 -1l0 0 480 0 0 -1 0 -376 -480 0 0 377zm2 -2l0 0 0 -373 476 0 0 372 0 1 -476 0zm475 -1l0 0 0 0 0 0zm-474 0l0 0 474 0 0 -371 -474 0 0 371z"/>
  <path class="fil0" d="M88 421l2 0c82,5 158,7 221,7 128,0 209,-7 209,-7l2 0 0 -2c8,-57 10,-114 10,-164 0,-100 -10,-173 -10,-173l0 -2 -2 0c0,0 -93,-7 -220,-7 -64,0 -136,2 -210,7l-1 0 -1 1c0,1 -12,61 -12,161 0,50 3,110 12,177l0 2zm-3 -296l0 0c3,-23 6,-37 6,-42 74,-5 146,-7 209,-7 64,0 119,2 158,4 33,1 55,3 61,3 0,5 2,22 4,48 3,31 6,74 6,124 0,49 -3,105 -11,163 -5,0 -24,1 -55,3 -36,2 -88,4 -152,4 -63,0 -138,-2 -220,-7 -9,-67 -12,-126 -12,-176 0,-50 3,-90 6,-117z"/>
 </g>
</svg>
