<?xml version="1.0" encoding="UTF-8"?>
<!DOCTYPE svg PUBLIC "-//W3C//DTD SVG 1.1//EN" "http://www.w3.org/Graphics/SVG/1.1/DTD/svg11.dtd">
<!-- Creator: CorelDRAW X7 -->
<svg xmlns="http://www.w3.org/2000/svg" xml:space="preserve" width="1.71828in" height="1.6639in" version="1.1" style="shape-rendering:geometricPrecision; text-rendering:geometricPrecision; image-rendering:optimizeQuality; fill-rule:evenodd; clip-rule:evenodd"
viewBox="0 0 683 661"
 xmlns:xlink="http://www.w3.org/1999/xlink">
 <defs>
  <style type="text/css">
   <![CDATA[
    .fil0 {fill:#BFACAA;fill-rule:nonzero}
   ]]>
  </style>
 </defs>
 <g id="__x0023_Layer_x0020_1_x0020_copy">
  <metadata id="CorelCorpID_0Corel-Layer"/>
  <path class="fil0" d="M558 570l0 3c3,1 6,5 6,9 0,5 -4,9 -10,9 -5,0 -9,-4 -9,-9 0,-4 2,-8 6,-9l0 -3c-5,2 -8,6 -8,12 0,6 5,11 11,11 7,0 12,-5 12,-11 0,-6 -3,-10 -8,-12z"/>
  <path class="fil0" d="M325 577c-7,0 -13,6 -13,13 0,7 6,13 13,13 8,0 14,-6 14,-13 0,-7 -6,-13 -14,-13zm0 25l0 0c-6,0 -11,-5 -11,-12 0,-6 5,-12 11,-12 7,0 12,6 12,12 0,7 -5,12 -12,12z"/>
  <polygon class="fil0" points="556,566 553,566 553,580 556,580 "/>
  <path class="fil0" d="M460 577c-7,0 -13,6 -13,13 0,7 6,13 13,13 7,0 13,-6 13,-13 0,-7 -6,-13 -13,-13zm0 25l0 0c-6,0 -12,-5 -12,-12 0,-6 6,-12 12,-12 7,0 12,6 12,12 0,7 -5,12 -12,12z"/>
  <path class="fil0" d="M494 577c-7,0 -13,6 -13,13 0,7 6,13 13,13 7,0 13,-6 13,-13 0,-7 -6,-13 -13,-13zm0 25l0 0c-7,0 -12,-5 -12,-12 0,-6 5,-12 12,-12 6,0 12,6 12,12 0,7 -6,12 -12,12z"/>
  <path class="fil0" d="M359 577c-7,0 -13,6 -13,13 0,7 6,13 13,13 7,0 13,-6 13,-13 0,-7 -6,-13 -13,-13zm0 25l0 0c-6,0 -12,-5 -12,-12 0,-6 6,-12 12,-12 7,0 12,6 12,12 0,7 -5,12 -12,12z"/>
  <path class="fil0" d="M393 577c-7,0 -13,6 -13,13 0,7 6,13 13,13 7,0 13,-6 13,-13 0,-7 -6,-13 -13,-13zm0 25l0 0c-7,0 -12,-5 -12,-12 0,-6 5,-12 12,-12 6,0 12,6 12,12 0,7 -6,12 -12,12z"/>
  <path class="fil0" d="M426 577c-7,0 -13,6 -13,13 0,7 6,13 13,13 8,0 14,-6 14,-13 0,-7 -6,-13 -14,-13zm0 25l0 0c-6,0 -11,-5 -11,-12 0,-6 5,-12 11,-12 7,0 12,6 12,12 0,7 -5,12 -12,12z"/>
  <path class="fil0" d="M554 552c-16,0 -29,13 -29,29 0,17 13,30 29,30 17,0 30,-13 30,-30 0,-16 -13,-29 -30,-29zm0 55l0 0c-14,0 -25,-11 -25,-26 0,-14 11,-25 25,-25 15,0 26,11 26,25 0,15 -11,26 -26,26z"/>
  <path class="fil0" d="M646 0l-609 0c-20,0 -37,17 -37,37l0 572c0,21 17,37 37,37l7 0 0 15 594 0 0 -15 8 0c20,0 37,-16 37,-37l0 -572c0,-20 -17,-37 -37,-37zm-20 649l0 0 -570 0 0 -11 570 0 0 11zm45 -40l0 0c0,14 -11,25 -25,25l-16 0 -4 0 -570 0 -4 0 -15 0c-14,0 -25,-11 -25,-25l0 -572c0,-14 11,-25 25,-25l609 0c14,0 25,11 25,25l0 572z"/>
  <path class="fil0" d="M611 68l-539 0 0 424 539 0 0 -2 0 -422zm-4 420l0 0 -531 0 0 -416 531 0 0 416z"/>
  <path class="fil0" d="M71 493l0 -425 540 0 0 0 0 0 1 0 0 422 0 3 -541 0zm1 -1l0 0 538 0 0 -2 0 -421 -538 0 0 423zm3 -3l0 0 0 -417 533 0 0 416 0 1 -533 0zm532 -1l0 0 0 0 0 0zm-531 0l0 0 530 0 0 -415 -530 0 0 415z"/>
  <path class="fil0" d="M99 471l2 0c92,6 176,8 247,8 143,0 234,-8 234,-8l2 0 0 -2c9,-64 12,-128 12,-184 0,-112 -12,-194 -12,-194l0 -1 -2 0c0,0 -104,-8 -246,-8 -72,0 -153,2 -235,8l-2 0 0 1c0,0 -14,68 -14,180 0,56 3,123 14,198l0 2zm-3 -331l0 0c3,-26 5,-42 6,-47 82,-6 163,-8 234,-8 71,0 133,2 176,4 38,2 62,4 68,4 1,6 3,25 6,54 3,34 6,82 6,138 0,55 -3,118 -12,182 -5,1 -27,2 -61,4 -41,2 -99,4 -171,4 -70,0 -154,-2 -246,-8 -10,-74 -13,-140 -13,-196 0,-56 3,-100 7,-131z"/>
 </g>
</svg>
