<?xml version="1.0" encoding="UTF-8"?>
<!DOCTYPE svg PUBLIC "-//W3C//DTD SVG 1.1//EN" "http://www.w3.org/Graphics/SVG/1.1/DTD/svg11.dtd">
<!-- Creator: CorelDRAW X7 -->
<svg xmlns="http://www.w3.org/2000/svg" xml:space="preserve" width="1.71826in" height="1.6639in" version="1.1" style="shape-rendering:geometricPrecision; text-rendering:geometricPrecision; image-rendering:optimizeQuality; fill-rule:evenodd; clip-rule:evenodd"
viewBox="0 0 7530 7292"
 xmlns:xlink="http://www.w3.org/1999/xlink">
 <defs>
  <style type="text/css">
   <![CDATA[
    .fil2 {fill:#454545;fill-rule:nonzero}
    .fil3 {fill:#7C7C7D;fill-rule:nonzero}
    .fil1 {fill:#ACACAC;fill-rule:nonzero}
    .fil0 {fill:#BFACAA;fill-rule:nonzero}
   ]]>
  </style>
 </defs>
 <g id="__x0023_Layer_x0020_1_x0020_copy">
  <metadata id="CorelCorpID_0Corel-Layer"/>
  <path class="fil0" d="M6153 6292l0 26c38,15 66,53 66,97 0,57 -47,104 -104,104 -57,0 -104,-47 -104,-104 0,-44 28,-82 66,-97l0 -26c-53,16 -91,65 -91,123 0,71 58,129 129,129 71,0 129,-58 129,-129 0,-58 -38,-107 -91,-123z"/>
  <path class="fil0" d="M3590 6365c-80,0 -144,64 -144,144 0,80 64,145 144,145 80,0 145,-65 145,-145 0,-80 -65,-144 -145,-144zm0 274l0 0c-71,0 -129,-58 -130,-130 1,-72 59,-130 130,-130 72,0 130,58 130,130 0,72 -58,130 -130,130z"/>
  <polygon class="fil0" points="6128,6248 6103,6248 6103,6397 6128,6397 "/>
  <path class="fil0" d="M5075 6365c-80,0 -144,64 -144,144 0,80 64,145 144,145 80,0 145,-65 145,-145 0,-80 -65,-144 -145,-144zm0 274l0 0c-71,0 -130,-58 -130,-130 0,-72 59,-130 130,-130 72,0 130,58 130,130 0,72 -58,130 -130,130z"/>
  <path class="fil0" d="M5447 6365c-80,0 -145,64 -145,144 0,80 65,145 145,145 79,0 144,-65 144,-145 0,-80 -65,-144 -144,-144zm0 274l0 0c-72,0 -130,-58 -130,-130 0,-72 58,-130 130,-130 71,0 129,58 129,130 0,72 -58,130 -129,130z"/>
  <path class="fil0" d="M3962 6365c-80,0 -145,64 -145,144 0,80 65,145 145,145 79,0 144,-65 144,-145 0,-80 -65,-144 -144,-144zm0 274l0 0c-72,0 -130,-58 -130,-130 0,-72 58,-130 130,-130 71,0 129,58 129,130 0,72 -58,130 -129,130z"/>
  <path class="fil0" d="M4333 6365c-80,0 -145,64 -145,144 0,80 65,145 145,145 80,0 144,-65 144,-145 0,-80 -64,-144 -144,-144zm0 274l0 0c-72,0 -130,-58 -130,-130 0,-72 58,-130 130,-130 71,0 130,58 130,130 0,72 -59,130 -130,130z"/>
  <path class="fil0" d="M4704 6365c-80,0 -145,64 -145,144 0,80 65,145 145,145 80,0 145,-65 145,-145 0,-80 -65,-144 -145,-144zm0 274l0 0c-72,0 -130,-58 -130,-130 0,-72 58,-130 130,-130 72,0 130,58 130,130 0,72 -58,130 -130,130z"/>
  <path class="fil0" d="M6115 6086c-180,0 -327,147 -327,327 0,180 147,327 327,327 180,0 327,-147 327,-327 0,-180 -147,-327 -327,-327zm0 611l0 0c-157,0 -284,-127 -284,-284 0,-157 127,-284 284,-284 157,0 284,127 284,284 0,157 -127,284 -284,284z"/>
  <path class="fil0" d="M7124 0l-6717 0c-225,0 -407,182 -407,406l0 6314c0,224 182,406 407,406l82 0 0 166 6544 0 0 -166 91 0c224,0 406,-182 406,-406l0 -6314c0,-224 -182,-406 -406,-406zm-219 7164l0 0 -6288 0 0 -124 6288 0 0 124zm497 -444l0 0c0,152 -125,277 -278,278l-176 0 -43 0 -6288 0 -42 0 -168 0c-153,-1 -278,-126 -279,-278l0 -6314c1,-152 126,-277 279,-278l6717 0c153,1 278,126 278,278l0 6314z"/>
  <path class="fil0" d="M6739 755l-5947 0 0 4674 5947 1 0 -22 0 -4653zm-43 4632l0 0 -5862 0 0 -4589 5862 0 0 4589z"/>
  <path class="fil1" d="M5075 6379c-71,0 -130,58 -130,130 0,72 59,130 130,130 72,0 130,-58 130,-130 0,-72 -58,-130 -130,-130z"/>
  <path class="fil1" d="M4333 6379c-72,0 -130,58 -130,130 0,72 58,130 130,130 71,0 130,-58 130,-130 0,-72 -59,-130 -130,-130z"/>
  <path class="fil1" d="M3962 6379c-72,0 -130,58 -130,130 0,72 58,130 130,130 71,0 129,-58 129,-130 0,-72 -58,-130 -129,-130z"/>
  <path class="fil1" d="M3843 5242c786,0 1430,-22 1877,-44 380,-19 618,-38 681,-43 94,-706 125,-1399 125,-2011 0,-616 -32,-1149 -64,-1528 -26,-318 -53,-527 -61,-586 -68,-5 -337,-24 -750,-43 -483,-22 -1162,-44 -1948,-44 -781,0 -1669,22 -2575,87 -9,52 -41,227 -73,511 -38,340 -76,835 -76,1451 0,612 38,1343 150,2162 1010,66 1932,88 2714,88z"/>
  <path class="fil1" d="M6115 6129c-157,0 -284,127 -284,284 0,157 127,284 284,284 157,0 284,-127 284,-284 0,-157 -127,-284 -284,-284zm-12 119l0 0 25 0 0 149 -25 0 0 -149zm12 296l0 0c-71,0 -129,-58 -129,-129 0,-58 38,-107 91,-123l0 26c-38,15 -66,53 -66,97 0,57 47,104 104,104 57,0 104,-47 104,-104 0,-44 -28,-82 -66,-97l0 -26c53,16 91,65 91,123 0,71 -58,129 -129,129z"/>
  <path class="fil1" d="M5447 6379c-72,0 -130,58 -130,130 0,72 58,130 130,130 71,0 129,-58 129,-130 0,-72 -58,-130 -129,-130z"/>
  <path class="fil1" d="M4704 6379c-72,0 -130,58 -130,130 0,72 58,130 130,130 72,0 130,-58 130,-130 0,-72 -58,-130 -130,-130z"/>
  <polygon class="fil2" points="617,7164 6905,7164 6905,7040 617,7040 "/>
  <path class="fil2" d="M834 5387l5862 0 0 -4589 -5862 0 0 4589zm256 -4381l0 0 3 -16 16 -1c913,-67 1807,-89 2594,-89 1574,0 2718,89 2718,89l18 1 2 17c0,1 128,902 128,2137 0,618 -32,1319 -128,2033l-2 18 -17 1c-1,0 -1005,89 -2579,89 -787,0 -1716,-22 -2734,-89l-17 -1 -3 -17c-115,-829 -153,-1568 -153,-2186 0,-1236 153,-1985 154,-1986z"/>
  <path class="fil1" d="M3590 6379c-71,0 -129,58 -130,130 1,72 59,130 130,130 72,0 130,-58 130,-130 0,-72 -58,-130 -130,-130z"/>
  <path class="fil3" d="M7124 128l-6717 0c-153,1 -278,126 -279,278l0 6314c1,152 126,277 279,278l168 0 42 0 6288 0 43 0 176 0c153,-1 278,-126 278,-278l0 -6314c0,-152 -125,-277 -278,-278zm-3534 6526l0 0c-80,0 -144,-65 -144,-145 0,-80 64,-144 144,-144 80,0 145,64 145,144 0,80 -65,145 -145,145zm372 0l0 0c-80,0 -145,-65 -145,-145 0,-80 65,-144 145,-144 79,0 144,64 144,144 0,80 -65,145 -144,145zm371 0l0 0c-80,0 -145,-65 -145,-145 0,-80 65,-144 145,-144 80,0 144,64 144,144 0,80 -64,145 -144,145zm371 0l0 0c-80,0 -145,-65 -145,-145 0,-80 65,-144 145,-144 80,0 145,64 145,144 0,80 -65,145 -145,145zm371 0l0 0c-80,0 -144,-65 -144,-145 0,-80 64,-144 144,-144 80,0 145,64 145,144 0,80 -65,145 -145,145zm372 0l0 0c-80,0 -145,-65 -145,-145 0,-80 65,-144 145,-144 79,0 144,64 144,144 0,80 -65,145 -144,145zm668 86l0 0c-180,0 -327,-147 -327,-327 0,-180 147,-327 327,-327 180,0 327,147 327,327 0,180 -147,327 -327,327zm-5323 -1311l0 0 0 -4674 5947 0 0 4653 0 22 -5947 -1z"/>
  <path class="fil3" d="M6473 1003l-3 -18 -3 -25 -43 -3c0,0 0,0 0,0 -5,-1 -1149,-89 -2721,-89 -787,0 -1683,22 -2596,89l-16 1 -25 2 -8 39c-1,4 -154,754 -154,1993 0,619 38,1360 154,2190l2 17 4 26 26 2 17 1c1018,67 1948,89 2736,89 787,0 1433,-23 1881,-45 224,-11 399,-22 518,-30 60,-4 105,-8 136,-10 15,-1 27,-2 35,-3 4,0 7,-1 8,-1l1 0 2 0 18 -2 25 -2 6 -42c96,-716 128,-1419 128,-2038 0,-1237 -128,-2140 -128,-2141zm-754 4163l0 0c-447,22 -1091,44 -1876,44 -774,0 -1687,-22 -2685,-86 -110,-807 -147,-1528 -147,-2132 0,-615 38,-1108 76,-1448 28,-248 56,-413 68,-484 897,-64 1775,-85 2548,-85 786,0 1464,22 1946,44 373,17 627,34 724,41 10,82 34,277 57,559 32,378 64,910 64,1525 0,603 -31,1286 -122,1981 -88,7 -314,24 -653,41z"/>
 </g>
</svg>
