<?xml version="1.0" encoding="UTF-8"?>
<!DOCTYPE svg PUBLIC "-//W3C//DTD SVG 1.1//EN" "http://www.w3.org/Graphics/SVG/1.1/DTD/svg11.dtd">
<!-- Creator: CorelDRAW X7 -->
<svg xmlns="http://www.w3.org/2000/svg" xml:space="preserve" width="1.50273in" height="1.45519in" version="1.1" style="shape-rendering:geometricPrecision; text-rendering:geometricPrecision; image-rendering:optimizeQuality; fill-rule:evenodd; clip-rule:evenodd"
viewBox="0 0 275 266"
 xmlns:xlink="http://www.w3.org/1999/xlink">
 <defs>
  <style type="text/css">
   <![CDATA[
    .fil0 {fill:#BFADAA;fill-rule:nonzero}
   ]]>
  </style>
 </defs>
 <g id="Vector_x0020_Graphics">
  <metadata id="CorelCorpID_0Corel-Layer"/>
  <path class="fil0" d="M225 230l0 1c1,0 2,2 2,3 0,3 -1,4 -4,4 -2,0 -3,-1 -3,-4 0,-1 1,-3 2,-3l0 -1c-2,1 -3,2 -3,4 0,3 2,5 4,5 3,0 5,-2 5,-5 0,-2 -1,-3 -3,-4z"/>
  <path class="fil0" d="M131 233c-3,0 -5,2 -5,5 0,3 2,5 5,5 3,0 5,-2 5,-5 0,-3 -2,-5 -5,-5zm0 10l0 0c-2,0 -5,-3 -5,-5 0,-3 3,-5 5,-5 3,0 5,2 5,5 0,2 -2,5 -5,5z"/>
  <polygon class="fil0" points="224,228 223,228 223,234 224,234 "/>
  <path class="fil0" d="M185 233c-2,0 -5,2 -5,5 0,3 3,5 5,5 3,0 6,-2 6,-5 0,-3 -3,-5 -6,-5zm0 10l0 0c-2,0 -4,-3 -4,-5 0,-3 2,-5 4,-5 3,0 5,2 5,5 0,2 -2,5 -5,5z"/>
  <path class="fil0" d="M199 233c-3,0 -5,2 -5,5 0,3 2,5 5,5 3,0 5,-2 5,-5 0,-3 -2,-5 -5,-5zm0 10l0 0c-3,0 -5,-3 -5,-5 0,-3 2,-5 5,-5 3,0 5,2 5,5 0,2 -2,5 -5,5z"/>
  <path class="fil0" d="M145 233c-3,0 -6,2 -6,5 0,3 3,5 6,5 3,0 5,-2 5,-5 0,-3 -2,-5 -5,-5zm0 10l0 0c-3,0 -5,-3 -5,-5 0,-3 2,-5 5,-5 2,0 5,2 5,5 0,2 -3,5 -5,5z"/>
  <path class="fil0" d="M158 233c-3,0 -5,2 -5,5 0,3 2,5 5,5 3,0 6,-2 6,-5 0,-3 -3,-5 -6,-5zm0 10l0 0c-2,0 -4,-3 -4,-5 0,-3 2,-5 4,-5 3,0 5,2 5,5 0,2 -2,5 -5,5z"/>
  <path class="fil0" d="M172 233c-3,0 -5,2 -5,5 0,3 2,5 5,5 3,0 5,-2 5,-5 0,-3 -2,-5 -5,-5zm0 10l0 0c-3,0 -5,-3 -5,-5 0,-3 2,-5 5,-5 3,0 5,2 5,5 0,2 -2,5 -5,5z"/>
  <path class="fil0" d="M223 222c-6,0 -11,6 -11,12 0,7 5,12 11,12 7,0 12,-5 12,-12 0,-6 -5,-12 -12,-12zm0 23l0 0c-5,0 -10,-5 -10,-11 0,-5 5,-10 10,-10 6,0 11,5 11,10 0,6 -5,11 -11,11z"/>
  <path class="fil0" d="M260 0l-245 0c-8,0 -15,7 -15,15l0 231c0,8 7,14 15,14l3 0 0 6 239 0 0 -6 3 0c9,0 15,-6 15,-14l0 -231c0,-8 -6,-15 -15,-15zm-8 262l0 0 -229 0 0 -5 229 0 0 5zm19 -16l0 0c0,5 -5,10 -11,10l-6 0 -2 0 -229 0 -2 0 -6 0c-6,0 -10,-5 -10,-10l0 -231c0,-6 4,-10 10,-10l245 0c6,0 11,4 11,10l0 231z"/>
  <path class="fil0" d="M246 28l-217 0 0 170 217 0 0 0 0 -170zm-1 169l0 0 -215 0 0 -168 215 0 0 168z"/>
  <path class="fil0" d="M29 199l0 -172 217 0 0 1 0 -1 1 0 0 171 0 1 -218 0zm0 -1l0 0 217 0 0 0 0 -170 -217 0 0 170zm1 -1l0 0 0 -168 215 0 0 168 0 0 -215 0zm215 0l0 0 0 0 0 0zm-214 0l0 0 213 0 0 -168 -213 0 0 168z"/>
  <path class="fil0" d="M40 190l1 0c37,2 71,3 99,3 58,0 95,-3 95,-3l0 0 0 -1c4,-26 5,-52 5,-74 0,-45 -5,-78 -5,-78l0 -1 0 0c0,0 -42,-3 -100,-3 -28,0 -61,1 -94,3l-1 0 0 1c0,0 -6,27 -6,72 0,23 2,50 6,80l0 1zm-1 -134l0 0c1,-10 2,-16 2,-18 33,-3 66,-4 94,-4 29,0 54,1 71,2 16,1 25,1 28,2 0,2 1,9 2,21 1,14 2,33 2,56 0,22 -1,48 -4,73 -2,1 -11,1 -25,2 -16,1 -40,2 -69,2 -28,0 -62,-1 -99,-4 -4,-30 -5,-56 -5,-79 0,-22 1,-40 3,-53z"/>
 </g>
</svg>
