<?xml version="1.0" encoding="UTF-8"?>
<!DOCTYPE svg PUBLIC "-//W3C//DTD SVG 1.1//EN" "http://www.w3.org/Graphics/SVG/1.1/DTD/svg11.dtd">
<!-- Creator: CorelDRAW X7 -->
<svg xmlns="http://www.w3.org/2000/svg" xml:space="preserve" width="2.01774in" height="1.54036in" version="1.1" style="shape-rendering:geometricPrecision; text-rendering:geometricPrecision; image-rendering:optimizeQuality; fill-rule:evenodd; clip-rule:evenodd"
viewBox="0 0 442 337"
 xmlns:xlink="http://www.w3.org/1999/xlink">
 <defs>
  <style type="text/css">
   <![CDATA[
    .fil0 {fill:#D7D7D7;fill-rule:nonzero}
   ]]>
  </style>
 </defs>
 <g id="__x0023_Layer_x0020_1_x0020_copy">
  <metadata id="CorelCorpID_0Corel-Layer"/>
  <path class="fil0" d="M407 111l1 2c0,0 0,1 0,0 0,-1 0,-3 0,-3l-2 0 0 1 1 0z"/>
  <path class="fil0" d="M380 131c0,0 -1,-1 0,-8 0,-4 5,-8 7,-10 1,0 2,-1 2,-1l0 -2 0 -1c-3,0 -15,5 -14,16 0,11 11,14 11,14l0 -4 -6 -4z"/>
  <polygon class="fil0" points="389,105 389,105 392,105 392,105 392,103 391,103 391,103 391,103 391,103 390,103 390,102 389,102 389,103 389,103 389,103 "/>
  <path class="fil0" d="M351 238c1,0 2,0 3,0 4,0 8,0 13,0 8,0 15,0 23,0 0,0 0,-1 0,-1 5,0 10,0 14,0 1,0 2,0 2,0 2,1 5,-1 9,0 5,-1 13,1 17,-1 0,-1 0,-1 0,-2 -2,0 -4,0 -6,0 -7,0 -14,0 -22,0 -5,0 -11,0 -17,0 0,0 0,1 0,1 -6,0 -12,0 -17,0 -3,0 -6,0 -9,0 -1,0 -1,0 -2,0 -2,0 -4,0 -5,0 -2,0 -4,0 -5,0 0,2 0,3 2,3z"/>
  <polygon class="fil0" points="383,107 383,106 383,104 382,104 382,105 382,105 383,107 "/>
  <path class="fil0" d="M311 86c0,-8 0,-15 -1,-20 0,-3 0,-5 -1,-6 0,-2 -1,-4 -1,-5 -4,-3 -9,-5 -16,-5 0,0 -3,0 -5,-1 -3,0 -5,0 -6,0 0,0 -3,0 -6,0 -2,-1 -5,-1 -7,-1 -2,0 -4,0 -6,0 -2,-1 -5,-1 -7,-1 -3,0 -5,0 -8,-1 -3,0 -5,0 -5,0 -1,0 -7,0 -13,0 -4,-1 -7,-1 -11,-1 -9,0 -17,-1 -17,-1 -19,0 -38,0 -57,0 -8,0 -17,1 -25,1 -1,0 -2,0 -2,0 -5,1 -9,1 -14,1 -1,0 -3,0 -4,0 -3,1 -6,1 -8,1 -3,0 -5,0 -7,1 -2,0 -4,0 -5,0 -2,0 -4,0 -6,1 -2,0 -3,0 -5,0 -6,0 -10,1 -10,1 -7,0 -11,4 -13,10 0,4 -1,6 -1,9l0 15 -1 32c0,20 0,40 0,61 0,3 0,6 0,9 0,0 0,1 0,1 0,3 0,5 0,8 0,3 1,5 1,8 0,7 0,13 0,17 0,2 1,3 1,5 0,5 0,7 0,7 1,6 4,11 11,11 0,1 1,1 4,2 12,1 51,4 75,4 4,0 8,0 13,0 16,0 33,0 50,0 6,0 13,0 19,0 12,0 17,-1 21,-1 0,0 1,0 1,0 1,0 5,0 10,0 4,0 9,-1 13,-1 3,0 6,0 9,0 2,-1 4,-1 6,-1 2,0 5,0 7,0 2,0 4,-1 5,-1 5,0 8,-1 10,-1 0,0 0,0 0,0 1,-1 3,-1 4,-2 2,0 3,-1 4,-2 0,-1 1,-2 1,-3 0,0 0,0 0,0 0,0 0,0 0,0 0,-1 0,-1 0,-1 0,0 0,0 0,0 0,0 0,0 0,0 0,0 0,0 0,0 0,0 0,-1 0,-1 0,0 0,0 0,0 0,0 0,0 0,0 0,0 0,0 0,0 0,0 0,-1 0,-1 0,0 0,0 0,0 0,0 0,0 1,0 0,0 0,0 0,0 0,-1 0,-1 0,-1 0,0 0,0 0,0 0,0 0,0 0,-1 0,0 0,0 0,0 0,0 0,0 0,0 0,0 0,0 0,-1 0,0 0,0 0,0 0,0 0,0 0,0 0,-1 0,-1 0,-1 0,0 0,0 0,0 0,0 0,0 0,-1 0,0 0,0 0,0 0,0 0,0 0,0 0,-1 0,-1 0,-1 0,0 0,0 0,0 0,-1 0,-1 0,-1 1,-3 1,-5 1,-8 0,-2 0,-4 0,-6 1,-10 1,-19 1,-19 0,-5 0,-9 0,-13 0,-25 0,-49 0,-74 0,-1 0,-5 0,-10 0,-4 0,-7 0,-11z"/>
  <path class="fil0" d="M431 267c-2,0 -3,0 -5,0 -3,0 -6,0 -9,0 0,0 0,1 0,1 -4,0 -7,0 -10,0 -4,0 -8,0 -12,0 -1,0 -3,0 -4,0 -3,0 -6,0 -9,0 -8,0 -15,0 -23,0 0,0 0,1 0,1 -3,0 -7,0 -10,0 0,5 0,11 0,17 0,0 0,0 0,0 2,0 17,0 22,0 0,-1 32,-1 37,-1 8,0 14,0 15,0 1,-1 2,-1 3,-2 3,-1 5,-5 6,-8 0,-1 0,-1 0,-1 -1,-2 1,-7 -1,-7z"/>
  <path class="fil0" d="M350 267c1,0 2,0 4,0 4,0 8,0 13,0 0,0 0,-1 0,-1 4,0 8,0 12,0 3,0 6,0 9,0 7,0 14,0 20,0 0,0 0,-1 0,-1 5,0 9,0 14,0 1,0 1,0 2,0 2,-1 8,2 8,-2 -8,-2 -19,0 -28,-1 0,1 0,1 0,1 0,0 0,0 -1,0 -6,0 -13,0 -19,0 -4,0 -9,0 -13,0 -5,0 -11,0 -16,0 0,1 0,1 0,1 -2,0 -4,0 -6,0 -2,0 -1,3 -2,3 0,-21 0,-43 0,-64 0,-7 0,-14 0,-22 0,0 1,0 1,0 0,0 0,0 0,0l-1 0 0 -92 0 -77c-1,0 -3,1 -4,0 -4,0 -7,0 -11,0 -1,0 -5,0 -10,0 -16,0 -44,-1 -49,-1 -6,0 -11,0 -16,0 -24,0 -68,0 -92,0 -6,0 -12,0 -18,0 -3,0 -23,1 -45,1 -36,0 -80,1 -80,1 -2,0 -4,0 -6,1 0,0 0,0 0,0 -2,1 -5,5 -5,6 -1,6 -1,13 -1,20 0,4 1,8 1,12 0,4 0,7 -1,11 0,15 0,29 0,44 0,7 0,13 0,20 0,28 1,64 0,96 1,18 -1,39 1,56 1,2 2,3 4,4 0,0 0,0 1,0 1,1 7,2 7,2 11,1 77,1 77,1 8,0 18,0 25,0 3,0 47,0 47,1 21,0 42,0 62,0 2,0 3,0 5,0 4,0 7,0 11,0 1,0 3,0 4,0 21,0 41,0 62,0 0,-1 28,0 31,-1 0,0 0,0 0,0 0,-5 0,-11 0,-16 0,-1 0,-1 0,-1 1,0 1,-3 3,-2zm-9 -27l0 0c-1,14 -1,24 -1,26 0,1 -1,2 -1,2l-250 0 -69 0c-1,0 -2,-1 -3,-3 0,0 0,0 0,0 0,-26 0,-52 0,-78 0,0 0,-68 0,-68 0,-21 0,-42 0,-63 0,-4 0,-8 0,-12 0,-3 0,-7 0,-10 0,-2 0,-4 0,-6 0,0 0,0 0,0 0,-1 1,-1 1,-2 1,-1 3,-1 6,-1 0,0 1,0 2,-1 8,0 16,0 24,0 3,0 7,0 10,0 9,0 18,0 28,0 0,0 225,0 225,0 9,0 17,0 26,0 1,1 1,2 1,3 1,0 1,0 1,0 0,55 0,163 0,213z"/>
  <polygon class="fil0" points="371,118 370,118 370,119 369,119 369,121 371,122 372,119 371,119 "/>
  <path class="fil0" d="M413 243c-6,0 -11,0 -17,0 0,1 0,1 0,1 -8,0 -15,0 -23,0 -1,0 -2,0 -3,0 -1,0 -2,0 -3,0 -1,0 -1,0 -1,0 -6,0 -11,0 -17,0 0,1 0,1 0,1 0,4 6,1 9,2 1,0 2,0 3,0 5,0 9,0 14,0 7,0 13,0 20,0 0,0 0,0 0,-1 4,0 9,0 13,0 1,0 1,0 2,0 3,0 7,0 10,0 4,0 14,2 11,-3 -3,0 -12,1 -18,0z"/>
  <polygon class="fil0" points="380,106 380,107 381,107 381,104 381,104 379,104 378,104 379,106 "/>
  <path class="fil0" d="M380 142l0 1 1 0c0,0 0,0 -1,1 0,0 0,0 0,1l2 0 0 -3 0 0 -2 0z"/>
  <polygon class="fil0" points="372,136 372,137 373,138 373,138 373,140 374,140 374,138 375,138 375,137 375,137 "/>
  <polygon class="fil0" points="371,128 369,128 369,128 369,128 369,128 368,129 368,131 369,131 370,132 371,132 371,129 371,129 "/>
  <polygon class="fil0" points="374,113 374,111 375,112 375,113 376,113 376,110 374,110 374,110 372,111 372,113 373,113 "/>
  <polygon class="fil0" points="356,123 356,126 357,126 363,126 363,123 356,123 "/>
  <path class="fil0" d="M400 108l1 -1c0,0 1,-1 1,-2 0,0 0,0 0,0 -1,-1 0,-1 -1,-1 -1,-1 -2,-1 -2,-1 0,0 0,0 1,1 0,1 0,1 0,1l-2 0 0 0 0 1 1 0 1 2z"/>
  <path class="fil0" d="M361 209c4,0 8,0 11,0 9,0 19,0 28,0 10,-1 23,1 32,-1 0,-1 0,-1 0,-2 -16,0 -32,0 -48,0 -1,0 -2,0 -3,0 -11,0 -21,0 -32,0 0,0 0,1 0,1 1,4 8,1 12,2z"/>
  <path class="fil0" d="M394 190c0,0 0,-1 0,-1 13,0 25,0 38,0 0,-1 0,-1 0,-2 -3,-2 -10,0 -15,-1 0,0 0,1 0,1 0,0 0,0 0,0 -3,0 -5,0 -8,0 -20,0 -40,0 -60,0 0,1 0,1 0,2 13,2 30,0 45,1z"/>
  <path class="fil0" d="M381 195c11,0 22,0 34,0 0,-1 0,-1 0,-1 2,0 5,0 8,0 3,0 6,0 9,0 0,-1 0,-2 0,-2 -2,-2 -8,-1 -12,-1 0,0 0,0 0,1 -16,0 -32,0 -49,0 -6,0 -13,0 -20,0 -2,-1 -2,1 -2,2 9,2 21,0 32,1z"/>
  <path class="fil0" d="M391 204c11,0 22,0 33,0 0,0 0,-1 0,-1 3,0 5,0 8,0 0,0 0,0 0,0 0,-1 0,-1 0,-2 -2,-2 -7,0 -10,-1 0,1 0,1 0,1 -2,0 -4,0 -5,0 -13,0 -26,0 -39,0 -10,0 -19,0 -29,0 0,1 0,1 0,1 0,0 0,1 0,1 0,0 0,0 0,0 0,0 0,1 0,1 8,1 28,0 42,0z"/>
  <path class="fil0" d="M371 199c16,0 32,0 48,0 0,0 0,0 0,-1 4,0 9,0 13,0 0,0 0,-1 0,-2 -2,-2 -7,0 -10,0 0,0 0,0 0,0 -18,0 -36,0 -54,0 -7,0 -13,0 -19,0 0,1 0,2 0,2 0,1 0,1 0,1 7,0 14,0 21,0 0,0 1,0 1,0z"/>
  <path class="fil0" d="M349 185c0,0 0,0 1,0 1,1 3,0 8,0 12,0 23,0 34,0 0,0 0,0 0,-1 13,0 26,0 39,0 0,0 0,0 1,0 -1,-1 0,-2 -1,-3 -2,0 -3,0 -5,0 -1,0 -3,0 -4,0 -4,0 -8,0 -12,0 -2,0 -3,0 -5,0 -2,0 -5,0 -7,0 -3,0 -5,0 -8,0 -7,0 -14,0 -20,0 -4,0 -4,0 -8,0 -4,0 -7,0 -11,0 -2,0 -2,2 -2,3 0,0 0,1 0,1 0,0 0,0 0,0z"/>
  <path class="fil0" d="M406 179c1,0 2,1 2,1 2,0 3,0 4,0 0,0 1,-1 2,-1 0,-1 1,-1 1,-2 1,-1 1,-2 1,-3 0,0 0,-1 -1,-2 0,-1 0,-1 0,-2 -1,0 -1,-1 -2,-1 -2,-1 -4,-1 -7,-1 -2,0 -4,1 -5,2 -2,2 -1,3 -1,4 0,0 0,0 0,0 0,0 0,0 0,0 1,-2 2,-2 3,-3 1,0 1,-1 2,-1 0,1 0,1 -1,2 -1,4 0,6 2,7z"/>
  <path class="fil0" d="M381 174c0,0 0,-1 -1,-2 0,0 0,-1 0,-1 0,0 0,0 0,0 -1,-1 -1,-2 -2,-2 0,0 0,0 0,0 0,0 -1,-1 -1,-1 -1,0 -1,0 -1,0 -1,0 -1,0 -2,0 0,0 -1,0 -1,0 -1,0 -1,0 -2,0 -2,0 -3,0 -4,1 -1,0 -1,1 -1,1 -2,2 -1,3 -1,4 0,0 0,0 0,0 1,-2 2,-2 3,-3 0,0 0,0 0,0 0,0 0,0 1,0 0,-1 1,-1 1,-1 0,1 0,1 0,1 0,0 0,1 0,1 -1,0 -1,0 -1,0 -1,4 0,6 2,7 1,0 2,1 2,1 0,0 1,0 1,0 1,0 2,0 3,0 1,-1 1,-1 1,-1 0,0 1,0 1,-1 0,0 1,0 1,-1 0,0 0,0 0,0 1,0 1,-1 1,-3z"/>
  <path class="fil0" d="M349 262c2,0 4,0 6,0 0,0 0,0 0,-1 6,0 12,0 17,0 1,0 2,0 3,0 4,0 8,0 11,0 5,0 9,0 14,0 0,0 0,0 0,-1 6,0 13,0 19,0 2,0 3,0 5,0 2,0 8,2 8,-1 -1,-4 -6,0 -10,-1 -6,0 -13,0 -20,0 0,0 0,0 0,1 -3,0 -6,0 -10,0 -2,0 -5,0 -7,0 -3,0 -6,0 -9,0 -5,0 -9,0 -14,0 -4,0 -9,0 -13,0 -1,1 -1,2 0,3z"/>
  <path class="fil0" d="M432 239c-1,0 -1,0 -1,0 -2,0 -3,0 -5,0 -1,0 -1,0 -2,0 -12,0 -24,0 -36,0 0,0 0,0 0,1 -4,0 -8,0 -13,0 -4,0 -9,0 -13,0 -4,0 -9,0 -13,0 0,0 0,0 0,1 0,1 1,1 2,2 4,0 8,0 12,0 4,0 7,0 11,0 7,0 14,0 21,0 0,-1 0,-1 0,-1 1,0 2,0 3,0 5,0 11,0 17,0 2,0 3,0 5,0 4,0 8,0 12,0 0,-1 0,-2 0,-3z"/>
  <path class="fil0" d="M367 233c4,0 8,0 13,0 0,0 0,0 0,-1 3,0 7,0 10,0 3,0 6,0 10,0 8,0 16,0 24,0 2,-1 8,2 8,-2 0,0 0,0 0,-1 -1,0 -2,0 -3,0 -2,0 -3,0 -5,0 -4,0 -8,0 -12,0 -14,0 -28,0 -42,0 0,1 0,1 0,1 -7,0 -14,0 -21,0 0,1 0,2 0,3 1,0 3,0 5,0 4,0 8,0 13,0z"/>
  <path class="fil0" d="M358 258c0,-1 0,-1 0,-1 3,0 6,0 9,0 1,0 2,0 3,0 6,0 12,0 18,0 6,0 11,0 16,0 0,-1 0,-1 0,-1 5,0 10,0 14,0 4,-1 13,2 14,-2 -3,-4 -10,0 -16,-1 -7,0 -13,0 -19,0 0,0 0,1 0,1 -4,0 -8,0 -11,0 -3,0 -6,0 -9,0 -7,0 -14,0 -21,0 -2,0 -5,0 -7,0 -1,1 -1,2 0,4 3,0 6,0 9,0z"/>
  <path class="fil0" d="M432 248c-2,0 -4,0 -6,0 -1,0 -3,0 -4,0 0,0 -1,0 -2,0 -8,0 -15,0 -23,0 0,1 0,1 0,1 -1,0 -2,0 -3,0 -1,0 -1,0 -2,0 -6,0 -11,0 -17,0 -4,0 -8,0 -12,0 -5,0 -9,0 -14,0 -1,1 -1,2 -1,3 0,0 1,0 1,0 4,0 7,0 11,0 4,0 7,0 10,0 3,0 5,0 7,0 6,0 12,0 18,0 0,0 0,-1 0,-1 5,0 11,0 16,0 4,0 8,0 12,0 2,0 4,0 6,0 0,0 0,0 1,0 1,0 2,-1 2,-3z"/>
  <path class="fil0" d="M357 219c0,0 0,-1 0,-1 8,0 16,0 24,0 2,0 5,0 7,0 5,0 10,0 15,0 9,-1 21,1 29,-1 0,0 0,-1 0,-2 -3,0 -5,0 -7,0 -10,0 -19,0 -29,0 -5,0 -11,0 -16,0 -10,1 -23,-1 -31,1 0,1 0,1 0,2 1,2 6,0 8,1z"/>
  <path class="fil0" d="M371 228c8,0 15,0 22,0 5,0 9,0 14,0 1,0 1,0 2,0 7,-1 17,1 23,-1 0,-1 0,-2 0,-2 -5,0 -10,0 -15,0 -6,0 -12,0 -17,0 -13,0 -25,0 -38,0 0,0 0,0 0,1 -3,1 -13,-3 -13,2 0,0 0,0 0,0 7,0 15,0 22,0 0,0 0,0 0,0z"/>
  <path class="fil0" d="M358 213c4,0 8,0 12,0 3,0 6,0 9,0 9,0 19,0 28,0 6,0 13,0 19,0 0,0 0,0 0,-1 2,0 4,0 6,0 0,0 0,-1 0,-1 -4,0 -7,0 -10,0 -3,0 -6,0 -9,0 -22,0 -43,0 -64,0 0,0 0,0 0,1 0,3 6,1 9,1z"/>
  <path class="fil0" d="M364 223c6,0 12,0 19,0 2,0 3,0 5,0 10,0 20,0 29,0 5,-1 12,1 15,-1 0,-1 0,-1 0,-2 -4,0 -9,0 -13,0 0,0 -1,0 -2,0 -11,0 -23,0 -34,0 -2,0 -3,0 -5,0 0,0 -1,0 -1,0 -9,1 -21,-1 -28,1 0,1 0,1 0,2 0,0 0,0 0,1 5,0 10,0 15,0 0,-1 0,-1 0,-1z"/>
  <path class="fil0" d="M392 55l0 -6c-3,1 -7,6 -7,11 0,0 0,1 1,2 0,1 1,3 2,4 1,0 1,1 2,1 1,1 1,1 1,1l0 -1 0 -7c0,0 -1,-1 -1,-3 0,-2 2,-2 2,-2z"/>
  <path class="fil0" d="M386 71l-6 -4c0,0 -1,-1 0,-8 0,0 0,0 0,0 0,-3 2,-6 5,-8 2,-2 4,-3 4,-3l0 -4c-3,1 -15,6 -14,17 0,1 0,1 0,1 1,10 11,13 11,13l0 -2 0 -2z"/>
  <polygon class="fil0" points="389,80 389,81 388,80 388,82 389,82 389,83 392,83 391,82 "/>
  <path class="fil0" d="M397 72l0 0 1 -25 0 -1 -2 0 -2 0 0 1c0,0 0,0 0,0 1,1 1,1 1,1 0,0 0,2 0,3 0,0 0,18 0,18 0,0 0,2 -1,2l-1 1 -1 0 0 0 -1 1 -1 1 1 1 1 0 1 -1 1 0 0 -1 2 0 1 -1z"/>
  <path class="fil0" d="M401 79l0 -1 0 0 -2 0 -1 1 0 0 0 2 1 1 1 0 1 -1c0,0 1,0 1,-1 0,0 0,-1 0,-1 0,-1 -1,0 -1,0z"/>
  <polygon class="fil0" points="371,65 371,64 369,64 369,64 368,64 368,67 369,67 369,67 370,67 371,67 371,65 371,65 "/>
  <path class="fil0" d="M407 61c0,0 0,0 0,0 0,-2 0,-4 -1,-5 -1,-6 -5,-9 -7,-9l-1 20c0,0 4,-1 4,-8 0,-6 -1,-7 -1,-7l-1 -1 1 1c0,0 4,3 3,8 -1,5 -3,9 -6,10l0 2 0 0 0 0c0,0 -1,2 -2,2 -1,0 -1,0 -1,0l0 1 1 1 1 0c0,0 0,0 0,0 0,0 1,-1 2,-2 3,-2 8,-6 8,-13 0,0 0,0 0,0z"/>
  <polygon class="fil0" points="372,73 373,73 373,76 374,76 374,74 375,74 375,73 372,72 "/>
  <path class="fil0" d="M380 78l0 1 0 0 1 0c0,0 -1,1 -1,2l2 0 0 -3 -1 0 -1 0z"/>
  <polygon class="fil0" points="371,55 371,54 370,54 370,55 369,55 369,56 369,57 371,58 372,55 371,55 "/>
  <path class="fil0" d="M441 149c0,-2 0,-5 0,-7 0,-3 0,-6 0,-8 0,-39 2,-75 1,-113 -3,-6 -4,-10 -8,-13 -1,0 -4,-2 -4,-2 -6,-3 -21,-4 -32,-4 -45,-2 -98,-2 -140,-2 -3,0 -210,2 -213,2 -11,0 -24,1 -24,1 -1,0 -6,1 -7,1 -7,2 -11,7 -13,15 0,-1 0,4 -1,5 1,85 -1,177 1,256 2,1 2,3 3,6 1,2 3,3 5,4 5,3 10,5 18,4 1,2 0,4 1,4 0,-1 0,-1 0,-2 0,0 0,-1 0,-1 0,0 0,0 0,0 1,0 2,0 5,0 1,0 2,0 3,0 9,-1 22,0 28,0 3,0 13,0 23,0 11,1 24,1 30,1 0,0 0,0 1,0 1,0 2,0 2,0 4,0 16,0 27,1 2,0 3,0 4,0 1,0 2,0 2,0 11,0 21,0 23,0 2,0 4,0 6,0 15,0 31,0 47,0 0,0 4,0 8,0 3,0 6,0 9,0 11,0 25,0 31,0 9,0 31,0 39,0 0,0 1,0 1,0 9,0 27,-1 37,-1 4,0 7,0 8,0 1,0 1,0 2,0 0,0 0,0 0,0 1,0 1,0 2,0 0,0 0,0 0,0 1,0 1,0 2,0 0,0 1,0 1,0 0,0 0,0 1,0 1,0 2,0 3,0 0,0 0,0 0,0 1,0 2,0 3,0 0,0 0,0 0,0 1,0 1,0 1,0 1,0 2,0 2,0l18 -1c0,0 0,0 0,0 1,0 2,0 3,0 0,0 0,0 1,0l1 0 0 0c3,0 6,0 10,0 0,1 0,2 0,3 0,1 0,2 0,3 -1,0 -1,-2 -1,-3 -3,-1 -134,2 -185,2 -1,0 -10,0 -20,0 -11,0 -24,-1 -31,-1 0,0 -1,0 -2,0 -1,0 -3,0 -6,0 -6,0 -14,0 -17,0 -1,0 -4,0 -8,0 -5,0 -12,0 -18,0 -1,0 -1,0 -2,0 -8,-1 -16,-1 -16,-1 -1,0 -2,0 -3,0 -1,0 -1,0 -2,0 -1,0 -3,0 -4,0 -11,0 -21,-1 -35,-1 0,0 0,0 -1,0 -11,0 -17,0 -26,0 -2,0 -3,1 -5,1l0 1 0 9 0 5 0 7c0,0 0,0 0,0 0,0 0,0 0,1 0,0 0,2 1,1 0,1 13,1 25,2 0,1 1,4 1,5 0,2 0,8 0,8 4,1 9,0 13,0 1,0 2,-1 3,-1 -1,0 -1,-1 -1,-1 0,-1 -1,-4 0,-11 -1,-2 1,-1 2,-1 3,0 5,0 8,0 0,0 1,0 2,0 0,0 1,0 1,1 0,0 -1,0 -1,0 1,0 1,0 1,-1 64,0 138,2 204,-1 0,0 1,0 2,0 21,0 42,0 63,0 0,0 0,1 0,1 0,0 0,0 0,0 0,0 1,0 1,0 4,0 10,-1 14,-1 0,1 0,2 0,2 0,1 0,2 0,2 0,3 0,7 0,10 0,0 0,0 0,0 0,0 0,1 1,1 0,0 0,0 0,0 0,0 0,0 0,0 0,0 0,0 0,0 0,0 1,0 1,0 0,0 0,0 0,0 4,0 9,0 14,-1 0,0 0,-7 0,-11 0,0 0,-1 0,-2 13,0 25,-1 25,-1 3,-5 2,-18 3,-24 0,-1 0,-2 0,-3 7,1 12,-1 17,-3 3,-1 5,-3 6,-5 0,-1 0,-1 0,-1 1,0 1,0 1,0 6,-10 4,-24 4,-40 0,-29 0,-64 0,-90 0,-2 0,-4 0,-7zm-6 -116l0 0c0,10 0,19 0,29 0,3 0,6 0,9 0,1 0,2 0,3 0,2 0,5 0,7 0,1 0,4 0,8 0,6 0,14 0,23 0,22 -1,50 -1,63 0,9 0,19 0,28 0,8 0,16 0,25 0,4 0,8 0,12 0,1 0,3 0,4 0,1 0,2 0,3 0,12 2,25 -1,34 -2,3 -3,4 -5,6 -1,0 -4,1 -5,1 -1,1 -2,1 -3,1 -3,0 -7,0 -10,0 -1,0 -1,0 -2,0 -3,0 -7,0 -10,0 0,0 -14,0 -30,1 -3,0 -6,0 -9,0 -15,0 -29,0 -30,0 -14,0 -27,0 -41,0 0,1 -84,1 -84,0 -16,0 -31,0 -47,0 -3,0 -6,0 -9,0 -5,0 -9,0 -13,0 -3,0 -9,0 -15,0 -10,0 -20,0 -25,0 -1,0 -2,0 -4,0 -2,0 -5,0 -8,0 -4,0 -8,0 -12,0 0,-1 -37,-1 -45,-1 0,0 -1,0 -2,0 0,-1 -3,-1 -5,-1 0,0 -1,0 -1,0 0,0 0,0 0,0 -2,-1 -3,-1 -3,-1 -3,-3 -7,-6 -7,-12 -3,-62 -1,-129 -1,-193 0,-15 0,-30 0,-45 0,-5 0,-9 0,-13 0,-1 0,-2 1,-4 0,-1 0,-1 0,-1 0,-1 0,-2 1,-2 0,-1 1,-3 2,-4 2,-2 6,-3 8,-3 0,0 1,-1 1,-1 2,0 17,0 26,0 4,0 7,0 8,0 3,0 7,0 10,0 1,0 3,0 4,0 1,0 6,-1 12,-1 13,0 32,0 34,0 5,0 16,-1 22,-1 3,0 5,0 5,0 14,0 28,0 41,0 2,0 3,0 4,0 14,0 27,0 41,0 2,0 3,0 5,0 16,0 32,0 47,0 1,0 3,0 8,0 6,0 15,0 25,1 6,0 12,0 18,0 4,0 9,0 13,1 8,0 15,0 22,0 3,0 6,0 9,0 6,1 11,1 15,1 10,0 16,0 16,0 1,0 3,0 5,0 3,1 6,1 9,1 1,0 1,0 1,0 1,0 1,0 1,0 2,1 4,1 5,1 8,2 10,11 9,21z"/>
  <path class="fil0" d="M429 17c0,0 0,0 0,0 -7,-5 -19,-3 -19,-3 -1,0 -13,-1 -14,-1 -1,0 -6,0 -11,0 -2,0 -4,0 -6,0 -1,0 -2,0 -2,0 -5,0 -9,0 -10,0 -2,0 -6,0 -11,-1 -2,0 -5,0 -6,1l0 76 0 75c7,2 18,0 27,1 12,0 24,0 36,0 1,0 3,0 4,0 5,0 10,0 15,0 0,-5 0,-10 0,-15 0,0 0,0 0,-1 0,-2 0,-5 0,-8 0,-2 0,-4 0,-6 0,-13 0,-36 0,-46 0,-3 0,-4 1,-4 0,-12 0,-24 0,-35 0,-3 0,-5 0,-7 0,-3 0,-6 0,-8 0,-4 0,-6 0,-7 0,-1 0,-3 0,-4 -1,-2 -1,-3 -2,-4 0,0 0,-1 0,-1 -1,-1 -1,-1 -2,-2zm-12 108l0 0c0,0 0,1 0,1 -1,0 -1,1 -1,1 0,1 0,1 0,1 0,1 0,2 -1,3 0,1 0,1 0,1 0,0 0,1 0,2 0,0 0,0 0,0 -1,1 -2,2 -2,3 0,0 0,0 0,0 -1,1 -1,1 -1,2 0,0 0,0 0,0 -1,1 -2,2 -3,3 0,0 0,0 0,0 -1,1 -1,1 -2,1 0,0 0,0 0,0 -1,1 -2,2 -3,3 0,0 0,0 0,0 -1,1 -2,1 -4,2 0,0 -1,0 -1,1 0,0 0,0 0,0 -1,0 -3,0 -4,0 0,0 0,0 0,0 0,1 -1,1 -1,1 0,0 0,0 0,0 -1,0 -2,0 -2,0 0,0 0,0 0,0l0 0 -1 0 0 0c-1,0 -1,0 -1,0 0,0 -1,0 -1,0l-35 0 0 -25 0 -1 0 -26 0 -1 38 0 0 0c14,1 25,12 25,26 0,1 0,2 0,2zm-25 -39l0 0 0 0 -1 0c-1,0 -1,0 -1,0 0,0 -1,0 -1,0l-35 0 0 -4 0 -1 0 -34 0 -2 0 -10 0 -3 38 0 0 1c7,0 13,3 18,9 0,0 1,1 1,1 1,1 1,1 1,1 3,4 5,10 5,15 0,14 -11,26 -25,27z"/>
  <path class="fil0" d="M28 304c0,-3 0,-5 0,-5 0,2 0,3 0,5z"/>
  <polygon class="fil0" points="408,72 406,74 405,74 406,75 407,75 407,76 407,76 408,75 408,75 408,72 408,72 "/>
  <path class="fil0" d="M411 64l-1 0 0 0 1 1 0 0 0 1 -2 0c0,0 1,1 2,1 0,0 1,0 1,0l1 -2 0 -1 -2 0z"/>
  <path class="fil0" d="M410 55l0 1 1 0 1 0c0,0 -1,1 -1,1 0,0 -1,0 -1,0l2 1 1 -1 0 -2 0 0 -4 0 1 0z"/>
  <polygon class="fil0" points="383,43 383,43 383,43 383,43 383,41 383,40 382,40 382,41 382,42 "/>
  <path class="fil0" d="M407 125c0,0 0,0 0,0 0,-9 -6,-13 -8,-14l0 4 -1 16c0,0 1,0 3,-2 0,-1 1,-2 1,-4 0,0 0,-1 0,-1 0,-2 0,-3 0,-4 0,-3 -1,-4 -1,-4l-1 0 1 0c0,0 4,3 3,8 -1,5 -3,9 -6,10l0 2 0 1c0,0 -1,1 -2,1 -1,0 -1,1 -1,1l0 0 1 1 1 0c0,0 7,-4 10,-11 0,-1 0,-2 0,-4z"/>
  <polygon class="fil0" points="405,138 406,139 407,139 407,140 408,139 408,136 406,138 "/>
  <path class="fil0" d="M410 128l0 0 1 1 0 1 0 0 -2 1c0,0 1,0 2,0 0,0 1,0 1,0l1 -1 0 -1 0 -1 -3 0z"/>
  <path class="fil0" d="M411 120l1 0c0,0 -1,1 -1,1 0,0 -1,0 -1,0l2 1 1 -1 0 -2 -4 0 1 1 1 0z"/>
  <path class="fil0" d="M407 47l0 0 0 2 1 0c0,0 0,0 0,0 0,0 0,0 0,0 0,-1 0,-3 0,-3l0 0 -2 0 0 1 1 0z"/>
  <path class="fil0" d="M401 143l0 -1 -2 0 -1 1 0 2 0 1 2 0 1 -1c0,0 1,0 1,0 0,-1 0,-2 0,-2 0,-1 -1,0 -1,0z"/>
  <polygon class="fil0" points="389,144 389,145 388,145 388,146 389,146 389,147 392,147 391,146 "/>
  <path class="fil0" d="M397 137l0 -5 1 -17 0 -4 0 -1 -2 0 -2 0 0 1c0,0 0,1 0,1 1,0 1,0 1,0 0,0 0,1 0,1 0,1 0,2 0,2 0,0 0,15 0,18 0,0 0,1 0,1 0,0 0,1 -1,1l-3 2 -1 1 1 1 1 0 1 -1 1 0 0 0 2 -1 1 0z"/>
  <path class="fil0" d="M400 44l1 -1c0,0 1,-2 1,-2 -1,-1 0,-1 -1,-2 -1,0 -2,0 -2,0 0,0 0,0 1,1 0,0 0,1 0,1l-2 0 0 1 1 0 1 2z"/>
  <polygon class="fil0" points="380,41 380,41 380,43 381,43 381,42 381,40 378,40 379,41 "/>
  <polygon class="fil0" points="356,62 363,62 363,59 356,59 "/>
  <polygon class="fil0" points="374,49 374,47 375,47 375,48 375,48 376,48 376,46 376,46 374,45 374,46 372,46 372,49 373,49 "/>
  <path class="fil0" d="M391 132l0 -7c0,-1 -1,-2 -1,-4 0,-2 2,-2 2,-2l0 -6 0 0c0,0 0,0 0,0 -3,2 -7,6 -7,11 0,0 0,0 0,0 0,1 0,1 0,2 1,0 1,0 1,1 0,0 0,0 0,1 2,2 5,4 5,4z"/>
  <polygon class="fil0" points="389,40 389,41 392,41 392,40 392,39 392,39 391,38 391,39 391,39 390,38 389,38 389,39 389,39 "/>
  <path class="fil0" d="M75 334c-1,1 -2,1 -2,2 1,-1 1,-1 2,-2z"/>
 </g>
</svg>
