<?xml version="1.0" encoding="UTF-8"?>
<!DOCTYPE svg PUBLIC "-//W3C//DTD SVG 1.1//EN" "http://www.w3.org/Graphics/SVG/1.1/DTD/svg11.dtd">
<!-- Creator: CorelDRAW X7 -->
<svg xmlns="http://www.w3.org/2000/svg" xml:space="preserve" width="8.5in" height="11in" version="1.1" style="shape-rendering:geometricPrecision; text-rendering:geometricPrecision; image-rendering:optimizeQuality; fill-rule:evenodd; clip-rule:evenodd"
viewBox="0 0 8500 11000"
 xmlns:xlink="http://www.w3.org/1999/xlink">
 <defs>
  <style type="text/css">
   <![CDATA[
    .fil0 {fill:black}
   ]]>
  </style>
 </defs>
 <g id="Layer_x0020_1">
  <metadata id="CorelCorpID_0Corel-Layer"/>
  <path class="fil0" d="M4755 7581c124,-11 206,-62 281,-121 119,-24 203,-82 228,-199 218,-154 352,-394 436,-683 352,-2 531,-176 673,-388 78,52 167,92 252,136 -88,36 -151,96 -203,165 -33,42 -73,88 -83,145 33,14 73,-4 112,0 4,20 -38,58 -20,92 54,2 113,-17 150,-15 -11,23 -35,63 -14,88 69,-10 136,-23 194,-44 -6,26 -30,56 -15,87 83,-10 153,-26 218,-58 60,-29 108,-74 165,-111 146,-96 369,-238 271,-490 -57,-146 -215,-263 -339,-344 -47,-31 -100,-56 -136,-96 282,-53 491,-190 650,-369 157,-178 273,-416 310,-712 0,-55 0,-110 0,-165 -25,-226 -95,-409 -209,-547 2,-16 8,-28 5,-48 -21,-6 -16,16 -34,14 -13,-24 -42,-32 -53,-63 -12,-33 5,-78 -24,-102 -22,15 -26,53 -49,54 -5,0 -30,-34 -43,-34 -22,-46 -34,-103 -73,-131 -9,28 -16,58 -34,77 -76,-17 -78,-109 -145,-135 -3,8 6,28 -5,29 -8,-15 -9,-36 -24,-44 -10,23 -21,44 -29,68 -27,-2 -44,-15 -68,-19 -14,-26 -41,-46 -63,-68 -21,-20 -41,-54 -73,-49 5,22 11,63 -5,78 -88,-15 -113,-94 -194,-116 -1,27 9,43 5,72 -106,2 -124,-86 -208,-106 -1,28 8,46 5,77 -93,-2 -125,-65 -194,-92 -6,0 -13,0 -19,0 2,29 17,44 14,78 -102,4 -144,-53 -218,-78 -5,0 -9,0 -14,0 1,29 13,48 19,73 -39,0 -77,0 -116,0 -44,-27 -87,-55 -146,-68 2,30 21,44 20,78 -122,27 -168,-48 -267,-59 3,33 28,44 25,83 -45,-4 -75,15 -112,10 -58,-9 -104,-66 -165,-54 9,27 24,47 30,78 -106,38 -170,-24 -267,-34 4,32 25,46 29,77 -97,38 -161,-24 -257,-29 -2,16 13,29 20,44 4,10 22,31 5,34 -85,38 -144,-25 -233,-24 1,25 45,57 24,72 -72,34 -125,-36 -213,-29 5,29 39,50 29,78 -81,26 -130,-25 -208,-29 -6,27 41,47 14,63 -64,26 -112,-23 -179,-25 -16,15 37,44 10,54 -79,19 -123,-26 -189,-34 -15,14 33,47 10,53 -34,15 -99,-2 -117,29 182,119 444,148 712,160 275,12 567,14 829,44 517,59 963,215 1284,455 -33,15 -54,40 -78,63 -24,23 -45,50 -102,39 -8,-33 1,-85 -9,-117 -42,-1 -78,15 -116,34 -34,17 -67,54 -102,58 -41,6 -83,-16 -136,-19 -13,-35 -1,-96 -19,-126 -67,13 -122,35 -180,68 -18,10 -32,27 -48,29 -24,3 -58,-11 -87,-14 -30,-4 -60,-1 -92,-10 -18,-34 -6,-98 -24,-131 -78,3 -129,43 -185,78 -16,10 -37,25 -53,29 -45,9 -89,-14 -155,-5 -25,-34 -18,-98 -39,-136 -76,11 -129,51 -184,92 -18,14 -34,34 -53,39 -35,9 -77,-4 -126,5 -23,-29 -20,-84 -44,-112 -93,10 -121,108 -198,136 -34,13 -74,7 -121,19 -30,-23 -28,-79 -58,-101 -89,22 -114,118 -185,159 -35,21 -77,25 -125,44 -35,-17 -32,-72 -68,-87 -70,40 -106,114 -150,179 -34,20 -77,31 -107,53 -43,-14 -43,-70 -82,-87 -61,49 -97,123 -136,194 -48,10 -75,56 -131,44 -14,-28 13,-71 0,-97 -87,-12 -141,48 -208,53 -37,3 -69,-18 -116,-15 -17,-26 1,-88 -20,-111 -48,2 -80,20 -111,39 -57,-34 -120,-80 -204,-87 -116,-11 -199,49 -261,106 -109,-50 -188,-188 -325,-165 -115,20 -126,208 -165,315 -57,-16 -120,-36 -174,-19 -102,32 -117,178 -155,271 -38,9 -74,18 -116,29 -34,10 -73,31 -107,34 -85,9 -180,-22 -266,10 -163,-108 -462,-149 -606,5 -55,59 -95,156 -82,271 6,60 29,160 121,150 9,41 25,99 58,97 40,-2 38,-77 53,-121 112,-3 164,66 233,112 15,10 38,10 48,29 16,48 21,108 73,121 33,-24 32,-81 48,-121 139,-32 299,-160 456,-68 -97,184 -261,301 -431,412 -34,-8 -38,-60 -68,-44 -21,10 -19,43 -20,87 -88,44 -208,147 -111,252 161,174 629,169 906,82 156,-48 304,-115 436,-116 -89,27 -140,89 -199,150 -19,20 -46,36 -43,68 42,12 92,14 140,20 3,25 -43,44 -34,92 64,9 142,-2 199,-15 4,20 -38,58 -20,92 82,-1 152,-13 214,-34 -6,24 -28,58 -10,78 87,-9 152,-21 213,-54 33,-17 55,-48 87,-63 45,-19 93,-21 136,-53 155,71 362,129 591,136 227,6 460,-28 644,-78 88,52 237,87 373,58 -26,59 -70,143 -106,209 -156,20 -272,82 -359,179 -26,30 -69,61 -72,107 49,9 101,15 155,19 1,29 -49,49 -39,102 73,9 162,-1 223,-20 -9,32 -42,64 -24,107 82,-3 171,-25 232,-34 -13,6 -8,30 -19,39 -8,16 13,42 -5,38l58 -4z"/>
 </g>
</svg>
