<?xml version="1.0" encoding="UTF-8" standalone="no"?>
<!-- Created with Inkscape (http://www.inkscape.org/) -->

<svg
   xmlns:dc="http://purl.org/dc/elements/1.1/"
   xmlns:cc="http://creativecommons.org/ns#"
   xmlns:rdf="http://www.w3.org/1999/02/22-rdf-syntax-ns#"
   xmlns:svg="http://www.w3.org/2000/svg"
   xmlns="http://www.w3.org/2000/svg"
   version="1.1"
   width="153"
   height="188"
   id="svg5021">
  <defs
     id="defs5023">
    <clipPath
       id="clipPath1214">
      <path
         d="m 67.437,815.58 74.493,0 0,92.079 -74.493,0 0,-92.079 z"
         id="path1216" />
    </clipPath>
  </defs>
  <metadata
     id="metadata5026">
    <rdf:RDF>
      <cc:Work
         rdf:about="">
        <dc:format>image/svg+xml</dc:format>
        <dc:type
           rdf:resource="http://purl.org/dc/dcmitype/StillImage" />
        <dc:title></dc:title>
      </cc:Work>
    </rdf:RDF>
  </metadata>
  <g
     transform="translate(-325.40169,-404.23941)"
     id="layer1">
    <path
       d="m 401.6848,408.11684 c 0,0 72.35762,7.66161 72.35762,65.48477 0,64.6012 -72.36165,114.72039 -72.36165,114.72039 0,0 -72.36166,-50.11919 -72.36166,-114.72039 0,-57.82316 72.35762,-65.48477 72.35762,-65.48477 l 0.008,0 z"
       id="path1220"
       style="fill:#ffffff;fill-opacity:1;fill-rule:nonzero;stroke:none" />
    <path
       d="m 401.6848,408.11684 c 0,0 72.35762,7.66161 72.35762,65.48477 0,64.6012 -72.36165,114.72039 -72.36165,114.72039 0,0 -72.36166,-50.11919 -72.36166,-114.72039 0,-57.82316 72.35762,-65.48477 72.35762,-65.48477 l 0.008,0 z"
       id="path1224"
       style="fill:none;stroke:#0f2b53;stroke-width:3.83483911;stroke-linecap:butt;stroke-linejoin:miter;stroke-miterlimit:4;stroke-opacity:1;stroke-dasharray:none" />
    <path
       d="m 401.55065,526.46731 c -1.71065,0.0282 -3.36885,0.91383 -4.12331,0.72218 -1.59365,-0.41354 -5.62618,-9.51145 -5.92272,-11.28665 -0.29855,-1.7873 -0.64956,-5.35183 2.89883,-6.13251 4.10515,-0.89971 5.18843,0.97838 7.40541,0.97838 2.73139,0 4.45616,-1.72881 7.45585,-0.97838 2.12419,0.53054 3.35674,3.65328 2.71928,6.15672 -1.4948,5.88036 -4.81321,11.15755 -5.94894,11.26244 -0.60115,0.0525 -2.56799,-0.75647 -4.4844,-0.72218"
       id="path1228"
       style="fill:#de900e;fill-opacity:1;fill-rule:nonzero;stroke:none" />
    <path
       d="m 392.86286,534.29857 c -0.65561,1.57953 -0.50432,3.45357 -0.9804,4.06683 -1.01468,1.30114 -10.96388,1.36973 -12.71084,0.93601 -1.75907,-0.43573 -5.16826,-1.53918 -4.47028,-5.10169 0.81296,-4.12331 2.96539,-4.37143 3.84896,-6.40484 1.08932,-2.50344 0.19164,-4.77288 2.07779,-7.22992 1.33342,-1.73485 4.68815,-1.61785 6.72963,-0.0363 4.79708,3.71986 8.31117,8.86391 7.95209,9.94517 -0.18559,0.57089 -1.71468,2.05358 -2.44695,3.82475"
       id="path1232"
       style="fill:#de900e;fill-opacity:1;fill-rule:nonzero;stroke:none" />
    <path
       d="m 410.76254,534.29857 c 0.65763,1.57953 0.5023,3.45357 0.9804,4.06683 1.0167,1.30114 10.9659,1.36973 12.71488,0.93601 1.75503,-0.43573 5.1622,-1.53918 4.46624,-5.10169 -0.81094,-4.12331 -2.96539,-4.37143 -3.84694,-6.40484 -1.09336,-2.50344 -0.19366,-4.77288 -2.07981,-7.22992 -1.33342,-1.73485 -4.68815,-1.61785 -6.72963,-0.0363 -4.79506,3.71986 -8.30915,8.86391 -7.95209,9.94517 0.18559,0.57089 1.71468,2.05358 2.44695,3.82475"
       id="path1236"
       style="fill:#de900e;fill-opacity:1;fill-rule:nonzero;stroke:none" />
    <path
       d="m 407.89196,544.02627 c -1.46252,0.89164 -3.33657,1.02276 -3.87115,1.59163 -1.12766,1.20028 0.32276,11.04256 1.02074,12.70278 0.7,1.6703 2.3118,4.87172 5.72503,3.63513 3.95184,-1.43025 3.86913,-3.5968 5.73713,-4.78296 2.30977,-1.45849 4.69218,-0.91988 6.82645,-3.15704 1.51296,-1.58154 0.88559,-4.87777 -0.98644,-6.65499 -4.40775,-4.17172 -10.03393,-6.85873 -11.04458,-6.34029 -0.53862,0.27233 -1.77117,2.00921 -3.40718,3.00574"
       id="path1240"
       style="fill:#de900e;fill-opacity:1;fill-rule:nonzero;stroke:none" />
    <path
       d="m 396.42113,544.02627 c 1.46252,0.89164 3.33657,1.02276 3.86913,1.59163 1.12968,1.20028 -0.32276,11.04256 -1.01872,12.70278 -0.70201,1.6703 -2.31381,4.87172 -5.72503,3.63513 -3.95184,-1.43025 -3.86711,-3.5968 -5.73914,-4.78296 -2.30776,-1.45849 -4.69218,-0.91988 -6.82848,-3.15704 -1.51094,-1.58154 -0.88155,-4.87777 0.9925,-6.65499 4.40573,-4.17172 10.03191,-6.85873 11.04458,-6.34029 0.53458,0.27233 1.76915,2.00921 3.40516,3.00574"
       id="path1244"
       style="fill:#de900e;fill-opacity:1;fill-rule:nonzero;stroke:none" />
    <path
       d="m 390.45645,520.0316 c -0.70201,0.44985 -2.25128,-0.35101 -3.70372,-1.80344 -1.45243,-1.45042 -0.49826,-2.35215 0.0504,-2.74955 0.55071,-0.40345 1.55128,-0.80086 2.60228,1.04898 1.051,1.85186 1.75099,3.05214 1.051,3.50401"
       id="path1248"
       style="fill:#6bbbea;fill-opacity:1;fill-rule:nonzero;stroke:none" />
    <path
       d="m 413.13586,520.0316 c 0.69999,0.44985 2.25531,-0.35101 3.70573,-1.80344 1.44841,-1.45042 0.50029,-2.35215 -0.0525,-2.74955 -0.55071,-0.40345 -1.54926,-0.80086 -2.60026,1.04898 -1.05302,1.85186 -1.75503,3.05214 -1.05302,3.50401"
       id="path1252"
       style="fill:#6bbbea;fill-opacity:1;fill-rule:nonzero;stroke:none" />
    <path
       d="m 419.8671,542.30675 c -0.0182,0.83313 1.47463,1.73889 3.46971,2.22304 1.9971,0.48011 2.26338,-0.80288 2.31987,-1.48068 0.0565,-0.67982 -0.12306,-1.74091 -2.25128,-1.67232 -2.12823,0.0686 -3.52014,0.0988 -3.5383,0.92996"
       id="path1256"
       style="fill:#6bbbea;fill-opacity:1;fill-rule:nonzero;stroke:none" />
    <path
       d="m 402.08685,557.39011 c -0.82708,0.12104 -1.46858,1.74293 -1.6118,3.79248 -0.14323,2.04551 1.16598,2.102 1.84379,2.03946 0.6778,-0.0565 1.69652,-0.41152 1.2729,-2.4994 -0.42363,-2.08385 -0.68386,-3.45156 -1.50489,-3.33254"
       id="path1260"
       style="fill:#6bbbea;fill-opacity:1;fill-rule:nonzero;stroke:none" />
    <path
       d="m 383.53316,542.30675 c 0.0182,0.83313 -1.47463,1.73889 -3.46971,2.22304 -1.99307,0.48011 -2.26944,-0.80288 -2.32189,-1.48068 -0.0524,-0.67982 0.12709,-1.74091 2.2533,-1.67232 2.13024,0.0686 3.52014,0.0988 3.5383,0.92996"
       id="path1264"
       style="fill:#6bbbea;fill-opacity:1;fill-rule:nonzero;stroke:none" />
    <path
       d="m 403.30003,536.42095 c 0,0.86138 -0.69596,1.56137 -1.56137,1.56137 -0.86339,0 -1.56137,-0.69999 -1.56137,-1.56137 0,-0.86138 0.69798,-1.55935 1.56137,-1.55935 0.86541,0 1.56137,0.69797 1.56137,1.55935"
       id="path1268"
       style="fill:#46180a;fill-opacity:1;fill-rule:nonzero;stroke:none" />
    <path
       d="m 403.30003,542.00799 c 0,0.86339 -0.69596,1.56339 -1.56137,1.56339 -0.86339,0 -1.56137,-0.7 -1.56137,-1.56339 0,-0.86138 0.69798,-1.55734 1.56137,-1.55734 0.86541,0 1.56137,0.69596 1.56137,1.55734"
       id="path1272"
       style="fill:#46180a;fill-opacity:1;fill-rule:nonzero;stroke:none" />
    <path
       d="m 406.93315,532.73236 c 0,0.86138 -0.69999,1.56339 -1.56137,1.56339 -0.86339,0 -1.56137,-0.70201 -1.56137,-1.56339 0,-0.86138 0.69798,-1.56339 1.56137,-1.56339 0.86138,0 1.56137,0.70201 1.56137,1.56339"
       id="path1276"
       style="fill:#46180a;fill-opacity:1;fill-rule:nonzero;stroke:none" />
    <path
       d="m 400.00461,532.73236 c 0,0.86138 -0.69999,1.56339 -1.55935,1.56339 -0.86541,0 -1.56339,-0.70201 -1.56339,-1.56339 0,-0.86138 0.69798,-1.56339 1.56339,-1.56339 0.85936,0 1.55935,0.70201 1.55935,1.56339"
       id="path1280"
       style="fill:#46180a;fill-opacity:1;fill-rule:nonzero;stroke:none" />
    <path
       d="m 398.44062,538.76905 c 0,0.86138 -0.69999,1.56137 -1.56339,1.56137 -0.86137,0 -1.55935,-0.69999 -1.55935,-1.56137 0,-0.86339 0.69798,-1.56137 1.55935,-1.56137 0.8634,0 1.56339,0.69798 1.56339,1.56137"
       id="path1284"
       style="fill:#46180a;fill-opacity:1;fill-rule:nonzero;stroke:none" />
    <path
       d="m 408.16368,538.76905 c 0,0.86138 -0.69999,1.56137 -1.56339,1.56137 -0.86137,0 -1.55935,-0.69999 -1.55935,-1.56137 0,-0.86339 0.69798,-1.56137 1.55935,-1.56137 0.8634,0 1.56339,0.69798 1.56339,1.56137"
       id="path1288"
       style="fill:#46180a;fill-opacity:1;fill-rule:nonzero;stroke:none" />
    <path
       d="m 377.14143,446.9064 c 0,0 11.47022,-5.10976 24.80239,-5.10976 14.08663,0 24.41709,5.10976 24.41709,5.10976 l -3.40314,11.16158 -42.44951,0 -3.36683,-11.16158 z"
       id="path1292"
       style="fill:#46180a;fill-opacity:1;fill-rule:nonzero;stroke:none" />
    <path
       d="m 404.45956,438.63497 c -0.20374,1.03083 -0.47608,3.67951 -0.47608,3.67951 l -4.00832,0 c 0,0 -0.17954,-2.23514 -0.51037,-3.66135 -0.31671,-1.35158 -1.16195,-3.69969 -1.16195,-3.69969 l 7.12905,0 c 0,0 -0.76859,2.6507 -0.97233,3.68153"
       id="path1296"
       style="fill:#de900e;fill-opacity:1;fill-rule:nonzero;stroke:none" />
    <path
       d="m 376.94293,446.92678 3.56654,11.14141 42.44951,0 3.67346,-11.14141 -3.0824,-1.20633 c 0,0 1.26282,2.45502 0.40749,4.77085 0,0 -2.33802,-1.86597 -2.33802,-3.12072 l -2.45099,7.13107 c 0,0 2.17059,-1.61181 3.56251,-1.00461 0,0 -0.0928,2.46713 -3.34263,2.46713 -3.25184,0 -4.01034,-0.68386 -4.01034,-0.68386 0,0 -0.49221,-3.47778 1.67232,-2.44897 0,0 -1.11958,-3.10458 -2.52966,-0.71008 0,0 -0.0666,-3.02591 -0.92391,-2.96741 -0.85734,0.0585 -0.76455,2.96741 -0.76455,2.96741 0,0 -1.57751,-2.23312 -2.69104,0.59712 0,0 1.84782,-1.15792 1.61382,2.31381 0,0 -0.98847,1.08126 -3.61496,1.08126 -2.63052,0 -4.80716,-1.49278 -4.68209,-4.61956 0,0 3.24983,0.234 3.56654,2.00315 l 0,-7.46391 c 0,0 -1.04898,1.14581 -1.74696,1.49076 -0.69798,0.34294 -1.81958,0.62738 -1.81958,0.62738 0,0 0.23602,-1.31325 0.73832,-2.55387 0.30461,-0.74438 1.09135,-1.68241 1.09135,-1.68241 l -6.28381,0 c 0,0 1.66626,2.37635 1.66828,4.23628 0,0 -1.20431,-0.18156 -1.82765,-0.48818 -0.62132,-0.30461 -1.84984,-1.40605 -1.84984,-1.40605 l 0.002,7.08669 c 0,0 0.66973,-1.0389 2.04753,-1.4363 0.97434,-0.28443 1.51699,-0.30259 1.51699,-0.30259 0,0 -0.16743,4.46019 -3.87518,4.46019 -3.70775,0 -4.40977,-1.12765 -4.40977,-1.12765 0,0 -0.54869,-3.21756 1.5997,-2.219 0,0 -1.13371,-3.08442 -2.63456,-0.64352 0,0 -0.0847,-3.14493 -0.81699,-3.14493 -0.73227,0 -0.89366,3.23168 -0.89366,3.23168 0,0 -1.23255,-2.54379 -2.67289,0.44582 0,0 1.75302,-0.9098 1.66224,2.28355 0,0 -1.31728,1.54927 -3.94579,1.26887 -2.62649,-0.28242 -3.72389,-1.39192 -3.61899,-2.54984 0,0 0.90979,-0.16945 1.46051,0.0605 0.54869,0.22997 1.87808,0.94005 1.87808,0.94005 l -2.33802,-7.12905 c 0,0 -0.67781,1.58356 -0.99452,1.96483 -0.32075,0.3853 -1.36368,0.84523 -1.36368,0.84523 0,0 -0.61123,-3.17115 0.27234,-4.45414 l -2.92707,1.08933 z"
       id="path1300"
       style="fill:#de900e;fill-opacity:1;fill-rule:nonzero;stroke:none" />
    <path
       d="m 426.87754,443.33663 c -3.1994,-5.15212 -12.64428,-11.32901 -25.0021,-11.32901 -12.53736,0 -22.98079,6.70945 -25.40152,11.68405 -0.58905,1.11152 0.30864,2.41064 0.30864,2.41064 3.38297,-6.32214 13.3362,-10.90538 25.09288,-10.90538 11.57512,0 21.40732,4.44607 24.93553,10.61893 0,0 1.05503,-0.89163 0.0666,-2.47923"
       id="path1304"
       style="fill:#de900e;fill-opacity:1;fill-rule:nonzero;stroke:none" />
    <path
       d="m 376.69823,439.71845 c 0,0.73631 -0.5951,1.3314 -1.32938,1.3314 -0.73429,0 -1.32737,-0.59509 -1.32737,-1.3314 0,-0.73429 0.59308,-1.3314 1.32737,-1.3314 0.73428,0 1.32938,0.59711 1.32938,1.3314"
       id="path1308"
       style="fill:#de900e;fill-opacity:1;fill-rule:nonzero;stroke:none" />
    <path
       d="m 379.35801,436.89608 c 0,0.73429 -0.59308,1.3314 -1.32938,1.3314 -0.73429,0 -1.33141,-0.59711 -1.33141,-1.3314 0,-0.73429 0.59712,-1.32938 1.33141,-1.32938 0.7363,0 1.32938,0.59509 1.32938,1.32938"
       id="path1312"
       style="fill:#de900e;fill-opacity:1;fill-rule:nonzero;stroke:none" />
    <path
       d="m 382.7434,434.47999 c 0,0.73429 -0.59308,1.32737 -1.3314,1.32737 -0.73227,0 -1.32737,-0.59308 -1.32737,-1.32737 0,-0.73429 0.5951,-1.3314 1.32737,-1.3314 0.73832,0 1.3314,0.59711 1.3314,1.3314"
       id="path1316"
       style="fill:#de900e;fill-opacity:1;fill-rule:nonzero;stroke:none" />
    <path
       d="m 386.20948,432.46433 c 0,0.73429 -0.5951,1.32938 -1.3314,1.32938 -0.73227,0 -1.32737,-0.59509 -1.32737,-1.32938 0,-0.73429 0.5951,-1.32938 1.32737,-1.32938 0.7363,0 1.3314,0.59509 1.3314,1.32938"
       id="path1320"
       style="fill:#de900e;fill-opacity:1;fill-rule:nonzero;stroke:none" />
    <path
       d="m 389.75585,431.01189 c 0,0.73631 -0.5951,1.3314 -1.3314,1.3314 -0.73227,0 -1.32939,-0.59509 -1.32939,-1.3314 0,-0.73227 0.59712,-1.32938 1.32939,-1.32938 0.7363,0 1.3314,0.59711 1.3314,1.32938"
       id="path1324"
       style="fill:#de900e;fill-opacity:1;fill-rule:nonzero;stroke:none" />
    <path
       d="m 393.22153,429.88424 c 0,0.73429 -0.5951,1.32938 -1.3314,1.32938 -0.73227,0 -1.32737,-0.59509 -1.32737,-1.32938 0,-0.73631 0.5951,-1.3314 1.32737,-1.3314 0.7363,0 1.3314,0.59509 1.3314,1.3314"
       id="path1328"
       style="fill:#de900e;fill-opacity:1;fill-rule:nonzero;stroke:none" />
    <path
       d="m 426.92514,439.71845 c 0,0.73631 0.59711,1.3314 1.3314,1.3314 0.73227,0 1.32939,-0.59509 1.32939,-1.3314 0,-0.73429 -0.59712,-1.3314 -1.32939,-1.3314 -0.73429,0 -1.3314,0.59711 -1.3314,1.3314"
       id="path1332"
       style="fill:#de900e;fill-opacity:1;fill-rule:nonzero;stroke:none" />
    <path
       d="m 424.26759,436.89608 c 0,0.73429 0.5951,1.3314 1.32737,1.3314 0.73832,0 1.32938,-0.59711 1.32938,-1.3314 0,-0.73429 -0.59106,-1.32938 -1.32938,-1.32938 -0.73227,0 -1.32737,0.59509 -1.32737,1.32938"
       id="path1336"
       style="fill:#de900e;fill-opacity:1;fill-rule:nonzero;stroke:none" />
    <path
       d="m 420.88421,434.47999 c 0,0.73429 0.59106,1.32737 1.32737,1.32737 0.73428,0 1.32736,-0.59308 1.32736,-1.32737 0,-0.73429 -0.59308,-1.3314 -1.32736,-1.3314 -0.73631,0 -1.32737,0.59711 -1.32737,1.3314"
       id="path1340"
       style="fill:#de900e;fill-opacity:1;fill-rule:nonzero;stroke:none" />
    <path
       d="m 417.41349,432.46433 c 0,0.73429 0.59711,1.32938 1.3314,1.32938 0.73631,0 1.3314,-0.59509 1.3314,-1.32938 0,-0.73429 -0.59509,-1.32938 -1.3314,-1.32938 -0.73429,0 -1.3314,0.59509 -1.3314,1.32938"
       id="path1344"
       style="fill:#de900e;fill-opacity:1;fill-rule:nonzero;stroke:none" />
    <path
       d="m 413.86712,431.01189 c 0,0.73631 0.59711,1.3314 1.33342,1.3314 0.73429,0 1.32737,-0.59509 1.32737,-1.3314 0,-0.73227 -0.59308,-1.32938 -1.32737,-1.32938 -0.73631,0 -1.33342,0.59711 -1.33342,1.32938"
       id="path1348"
       style="fill:#de900e;fill-opacity:1;fill-rule:nonzero;stroke:none" />
    <path
       d="m 410.40165,429.88424 c 0,0.73429 0.59711,1.32938 1.3314,1.32938 0.73832,0 1.3314,-0.59509 1.3314,-1.32938 0,-0.73631 -0.59308,-1.3314 -1.3314,-1.3314 -0.73429,0 -1.3314,0.59509 -1.3314,1.3314"
       id="path1352"
       style="fill:#de900e;fill-opacity:1;fill-rule:nonzero;stroke:none" />
    <path
       d="m 407.20023,422.31361 c 0,0 -1.74293,1.35964 -3.94579,1.78529 0.54467,-1.89624 1.89019,-3.84089 1.89019,-3.84089 l -6.37661,0 c 0,0 1.31325,1.6824 1.76512,3.82878 -2.34408,-0.43774 -3.81669,-1.77318 -3.81669,-1.77318 l 0,6.37661 c 0,0 1.94869,-1.35158 3.84896,-1.89423 -0.41152,2.41468 -1.79739,3.94781 -1.79739,3.94781 l 6.37661,0 c 0,0 -1.41815,-2.04552 -1.93053,-3.98412 1.94465,0.51441 3.98613,1.93054 3.98613,1.93054 l 0,-6.37661 z"
       id="path1356"
       style="fill:#de900e;fill-opacity:1;fill-rule:nonzero;stroke:none" />
    <path
       d="m 390.33178,460.50485 c 0,0.6778 -0.54668,1.22247 -1.22247,1.22247 l -6.4694,0 c -0.67175,0 -1.22247,-0.54467 -1.22247,-1.22247 0,-0.67579 0.55072,-1.22449 1.22247,-1.22449 l 6.4694,0 c 0.67579,0 1.22247,0.5487 1.22247,1.22449"
       id="path1360"
       style="fill:#de900e;fill-opacity:1;fill-rule:nonzero;stroke:none" />
    <path
       d="m 421.73288,463.81883 c 0,0.67377 -0.55072,1.22247 -1.22247,1.22247 l -37.23889,0 c -0.67578,0 -1.22045,-0.5487 -1.22045,-1.22247 0,-0.6778 0.54467,-1.22247 1.22045,-1.22247 l 37.23889,0 c 0.67175,0 1.22247,0.54467 1.22247,1.22247"
       id="path1364"
       style="fill:#de900e;fill-opacity:1;fill-rule:nonzero;stroke:none" />
    <path
       d="m 400.587,460.50485 c 0,0.6778 -0.54466,1.22247 -1.22045,1.22247 l -6.4694,0 c -0.67377,0 -1.22247,-0.54467 -1.22247,-1.22247 0,-0.67579 0.5487,-1.22449 1.22247,-1.22449 l 6.4694,0 c 0.67579,0 1.22045,0.5487 1.22045,1.22449"
       id="path1368"
       style="fill:#de900e;fill-opacity:1;fill-rule:nonzero;stroke:none" />
    <path
       d="m 411.71328,460.50485 c 0,0.6778 -0.55072,1.22247 -1.22449,1.22247 l -6.4694,0 c -0.67377,0 -1.22246,-0.54467 -1.22246,-1.22247 0,-0.67579 0.54869,-1.22449 1.22246,-1.22449 l 6.4694,0 c 0.67377,0 1.22449,0.5487 1.22449,1.22449"
       id="path1372"
       style="fill:#de900e;fill-opacity:1;fill-rule:nonzero;stroke:none" />
    <path
       d="m 422.36267,460.50485 c 0,0.6778 -0.5487,1.22247 -1.22247,1.22247 l -6.47142,0 c -0.67175,0 -1.22246,-0.54467 -1.22246,-1.22247 0,-0.67579 0.55071,-1.22449 1.22246,-1.22449 l 6.47142,0 c 0.67377,0 1.22247,0.5487 1.22247,1.22449"
       id="path1376"
       style="fill:#de900e;fill-opacity:1;fill-rule:nonzero;stroke:none" />
    <path
       d="m 383.6897,483.59478 c -2.65675,0 -4.36942,-1.90431 -4.36942,-5.43454 0,-3.35473 1.73082,-5.73107 4.45616,-5.73107 0.99654,0 1.76512,0.36714 2.219,0.82103 l 0.0888,-0.61124 0.90778,0 0,3.72187 -0.54063,0 c -0.24611,0 -0.45591,-0.0867 -0.50835,-0.41959 l -0.0867,-0.5951 c -0.13919,-0.90777 -0.82103,-1.5533 -1.88615,-1.5533 -1.78327,0 -2.7092,1.78126 -2.7092,4.087 0,3.0945 1.13573,4.33512 2.8141,4.33512 1.01267,0 1.95676,-0.49019 2.65473,-0.99653 l 0.50634,0.96022 c -0.85533,0.8049 -2.18269,1.41613 -3.54637,1.41613"
       id="path1380"
       style="fill:#0f2b53;fill-opacity:1;fill-rule:nonzero;stroke:none" />
    <path
       d="m 392.70087,476.57002 c -1.04898,0.0182 -1.62592,0.47204 -2.02736,0.89164 l 0,4.49045 c 0,0.29654 0.13919,0.43775 0.41959,0.43775 l 0.50634,0 0,1.01267 -3.47577,0 0,-1.01267 0.90778,0 0,-5.95903 -0.96023,0 -0.20979,-1.03083 c 0.92391,0 1.8337,-0.12305 2.39249,-0.12305 0.2804,0 0.41959,0.12305 0.41959,0.40143 l 0,0.5951 c 0.68184,-0.66368 1.13572,-1.10143 2.13226,-1.10143 0.29654,0 0.50633,0.13919 0.50633,0.4902 l 0,0.94206 c -0.22795,-0.0343 -0.41959,-0.0343 -0.61123,-0.0343"
       id="path1384"
       style="fill:#0f2b53;fill-opacity:1;fill-rule:nonzero;stroke:none" />
    <path
       d="m 395.73626,474.10633 c -0.54265,0 -0.97838,-0.43775 -0.97838,-0.97838 0,-0.54265 0.43573,-0.97838 0.97838,-0.97838 0.54265,0 0.99653,0.43573 0.99653,0.97838 0,0.54063 -0.45388,0.97838 -0.99653,0.97838 m -1.69451,9.2956 0,-1.01267 0.90777,0 0,-5.95903 -0.96022,0 -0.2098,-1.03083 c 0.92593,0 1.83371,-0.12305 2.39249,-0.12305 0.2804,0 0.41959,0.12305 0.41959,0.40345 l 0,6.27171 c 0,0.29856 0.1049,0.43775 0.4196,0.43775 l 0.50835,0 0,1.01267 -3.47778,0 z"
       id="path1388"
       style="fill:#0f2b53;fill-opacity:1;fill-rule:nonzero;stroke:none" />
    <path
       d="m 401.43587,483.62988 c -2.51554,0 -3.47778,-1.90431 -3.47778,-4.19391 0,-2.21901 1.15388,-4.26452 3.54838,-4.26452 0.78674,0 1.36166,0.2804 1.67636,0.71613 l 0.0524,-0.48818 0.92593,0 0,3.04003 -0.61124,0 c -0.20979,0 -0.34898,-0.1049 -0.38328,-0.33083 l -0.0525,-0.3853 c -0.1049,-0.78674 -0.61325,-1.31123 -1.45042,-1.31123 -1.31123,0 -1.95877,1.27694 -1.95877,3.00574 0,2.04552 0.92794,2.9896 2.07981,2.9896 0.73429,0 1.38183,-0.33285 1.87001,-0.73429 l 0.52449,0.78674 c -0.66368,0.67982 -1.60776,1.17002 -2.74349,1.17002"
       id="path1392"
       style="fill:#0f2b53;fill-opacity:1;fill-rule:nonzero;stroke:none" />
    <path
       d="m 409.31999,483.40253 0,-1.01267 0.61123,0 -1.64206,-3.25185 -0.78673,0.75244 0,0.36715 0,1.74696 c 0,0.29654 0.10489,0.3853 0.41959,0.3853 l 0.50633,0 0,1.01267 -3.47778,0 0,-1.01267 0.90979,0 0,-9.87456 -0.96224,0 -0.20778,-1.03083 c 0.92593,0 1.83371,-0.12103 2.39249,-0.12103 0.2804,0 0.4196,0.12103 0.4196,0.40143 l 0,6.44721 1.60776,-1.53716 c 0.47205,-0.43775 0.83919,-0.89164 1.06714,-1.27492 l 1.9386,0 0,1.04697 -0.61123,0 c -0.36715,0 -0.50634,0.0524 -0.78674,0.33285 l -1.24062,1.20633 1.97491,3.87922 c 0.19164,0.36714 0.40144,0.52449 0.83919,0.52449 l 0.43573,0 0,1.01267 -3.40718,0 z"
       id="path1396"
       style="fill:#0f2b53;fill-opacity:1;fill-rule:nonzero;stroke:none" />
    <path
       d="m 416.39336,476.41268 c -0.97838,0 -1.60777,0.80288 -1.74696,2.2533 l 3.07433,0 c 0,-0.1049 0.0181,-0.19165 0.0181,-0.29654 0,-1.32737 -0.57694,-1.95676 -1.34552,-1.95676 m 3.04003,3.21554 -4.8233,0 c 0.0363,1.85185 0.94408,2.77778 2.07981,2.77778 0.73429,0 1.38183,-0.33083 1.87001,-0.73429 l 0.52449,0.78674 c -0.66368,0.68184 -1.60776,1.17204 -2.74349,1.17204 -2.51554,0 -3.47778,-1.90633 -3.47778,-4.19392 0,-1.29307 0.36714,-2.48124 1.11959,-3.26798 0.57492,-0.61123 1.39797,-0.99653 2.4288,-0.99653 1.57145,0 3.04003,1.17002 3.04003,3.93166 0,0.15735 0,0.36715 -0.0182,0.5245"
       id="path1400"
       style="fill:#0f2b53;fill-opacity:1;fill-rule:nonzero;stroke:none" />
    <path
       d="m 423.18169,483.61233 c -0.85734,0 -1.58961,-0.26225 -2.00921,-0.92593 -0.31469,-0.50633 -0.38529,-1.13572 -0.38529,-2.0092 l 0,-4.24637 -0.99452,0 0,-1.03082 0.99452,0 0,-1.25878 c 0,-0.3147 0.0888,-0.47205 0.31469,-0.50634 l 1.29307,-0.22795 0,1.99307 1.58962,0 0.20979,1.03082 -1.76511,0 0,4.33311 c 0,1.25878 0.40345,1.62592 1.17203,1.62592 0.3147,0 0.71614,-0.0706 0.99452,-0.1755 l 0,1.08328 c -0.40144,0.1755 -0.90777,0.31469 -1.41411,0.31469"
       id="path1404"
       style="fill:#0f2b53;fill-opacity:1;fill-rule:nonzero;stroke:none" />
    <path
       d="m 352.54964,490.24008 c -0.58904,-0.58904 -1.39192,-0.70605 -2.58816,-0.70605 l -0.15735,0 0,8.11752 c 0,0.49019 0.23602,0.78472 0.78472,0.78472 l 0.4902,0 c 1.58759,0 2.50949,-1.11757 2.50949,-4.47028 0,-1.66627 -0.29453,-2.98154 -1.0389,-3.72591 m 2.78384,8.29302 c -0.9804,0.94206 -2.41064,1.49076 -4.72446,1.49076 l -5.09765,0 -0.0202,0 0,-1.58759 0.0202,0 1.07722,0 0,-8.09734 c 0,-0.55072 -0.1755,-0.8049 -0.82304,-0.8049 l -0.52853,0 0,-1.58759 3.62706,0 c 3.44954,0 4.8233,0.234 6.19505,1.41209 1.25474,1.07723 1.88212,2.74349 1.88212,4.66596 0,1.74494 -0.47003,3.41121 -1.60777,4.50861"
       id="path1408"
       style="fill:#0f2b53;fill-opacity:1;fill-rule:nonzero;stroke:none" />
    <path
       d="m 357.72799,500.02407 0,-1.5876 1.0974,0 0,-8.09935 c 0,-0.5487 -0.17551,-0.80288 -0.82305,-0.80288 l -0.52853,0 0,-1.58759 9.66678,0 0.17551,4.49045 -0.78472,0 c -0.44986,0 -0.6657,-0.19769 -0.74438,-0.58904 l -0.31469,-1.54927 c -0.117,-0.56887 -0.33285,-0.76455 -1.0389,-0.76455 l -2.39249,0 0,3.66539 1.37377,0 0.19567,-0.86138 c 0.0988,-0.45187 0.25418,-0.51037 0.56887,-0.51037 l 0.70605,0 0,4.23628 -0.70605,0 c -0.31469,0 -0.47002,-0.0585 -0.56887,-0.51037 l -0.19567,-0.86339 -1.37377,0 0,2.94118 c 0,0.62737 0.21585,0.80489 0.82305,0.80489 l 2.66684,0 c 0.25619,-0.88356 0.45187,-2.21698 0.45187,-3.15703 l 0.76454,0 c 0.5487,0 0.74438,0.1755 0.74438,0.70605 l 0,4.03858 -9.76361,0 z"
       id="path1412"
       style="fill:#0f2b53;fill-opacity:1;fill-rule:nonzero;stroke:none" />
    <path
       d="m 373.95353,489.53424 -0.82305,0 0,4.11726 0.80288,0 c 1.52909,0 1.90229,-0.82305 1.90229,-2.03947 0,-1.45042 -0.56887,-2.07779 -1.88212,-2.07779 m 2.86251,10.48983 -2.58816,-4.78498 -1.0974,0 0,2.39249 c 0,0.5487 0.1755,0.80489 0.82305,0.80489 l 0.52853,0 0,1.5876 -5.66451,0 0,-1.5876 1.0974,0 0,-8.09935 c 0,-0.5487 -0.17752,-0.80288 -0.82305,-0.80288 l -0.53055,0 0,-1.5876 5.11783,0 c 2.17664,0 3.43138,0.19568 4.49045,1.0974 0.6657,0.56887 1.0389,1.43025 1.0389,2.50949 0,1.35359 -0.5487,2.47116 -2.05964,3.15704 l 1.80345,3.01986 c 0.31469,0.50835 0.70806,0.70604 1.29509,0.70604 l 0.45187,0 0,1.5876 -3.88326,0 z"
       id="path1416"
       style="fill:#0f2b53;fill-opacity:1;fill-rule:nonzero;stroke:none" />
    <path
       d="m 388.42021,494.73013 c -0.3732,-0.31268 -0.88155,-0.4902 -1.80344,-0.4902 l -0.72622,0 0,3.39306 c 0,0.58703 0.19567,0.80287 0.78472,0.80287 l 0.5487,0 c 1.27491,0 1.80344,-0.84322 1.80344,-2.05963 0,-0.72421 -0.1755,-1.2729 -0.6072,-1.6461 m -0.52853,-4.7648 c -0.25619,-0.27435 -0.78472,-0.4317 -1.47059,-0.4317 l -0.53054,0 0,3.23571 0.96022,0 c 0.80489,0 1.39394,-0.47003 1.39394,-1.66627 0,-0.47002 -0.0988,-0.88155 -0.35303,-1.13774 m 3.48989,8.9224 c -0.74639,0.7242 -1.86396,1.13573 -4.47028,1.13573 l -5.33368,0 0,-1.5876 1.0974,0 0,-8.09734 c 0,-0.5487 -0.15735,-0.80489 -0.80287,-0.80489 l -0.55072,0 0,-1.58759 5.41235,0 c 1.82361,0 3.13686,0.19567 3.95991,1.00056 0.51037,0.4902 0.76656,1.2144 0.76656,1.94062 0,1.1559 -0.72622,2.23514 -2.17664,2.48932 2.03947,0.27637 3.03802,1.29509 3.03802,2.99969 0,0.92189 -0.25418,1.82361 -0.94005,2.5115"
       id="path1420"
       style="fill:#0f2b53;fill-opacity:1;fill-rule:nonzero;stroke:none" />
    <path
       d="m 404.04219,489.53424 c -0.72622,0 -1.0389,0.1755 -1.45042,0.9804 l -2.51151,4.8818 0,2.23514 c 0,0.5487 0.17752,0.80489 0.82507,0.80489 l 0.39135,0 0,1.5876 -5.60802,0 0,-1.5876 1.17607,0 0,-2.99968 -2.52765,-5.00083 c -0.35302,-0.68587 -0.62737,-0.90172 -1.37376,-0.90172 l -0.44985,0 0,-1.5876 5.58785,0 0,1.5876 -0.78472,0 1.64609,3.39306 1.78529,-3.39306 -0.76455,0 0,-1.5876 4.54896,0 0,1.5876 -0.4902,0 z"
       id="path1424"
       style="fill:#0f2b53;fill-opacity:1;fill-rule:nonzero;stroke:none" />
    <path
       d="m 409.97762,500.25948 c -1.0974,0 -2.13831,-0.41152 -2.68701,-0.92189 l -0.117,0.68587 -1.6461,0 0,-4.68613 1.01873,0 c 0.49019,0 0.66771,0.0988 0.74437,0.56887 l 0.0787,0.4317 c 0.21585,1.21641 1.00057,1.88212 2.23514,1.88212 0.56888,0 1.02075,-0.19568 1.27492,-0.44986 0.17752,-0.17752 0.2562,-0.43169 0.2562,-0.62737 0,-0.70605 -0.49222,-1.07924 -1.62794,-1.54927 l -1.45244,-0.60921 c -1.88212,-0.78271 -2.78384,-2.01929 -2.78384,-3.54839 0,-2.33197 1.86396,-3.72389 4.11726,-3.72389 1.13774,0 2.03946,0.33285 2.58816,0.84121 l 0.0787,-0.6072 1.64812,0 0,4.60745 -1.0389,0 c -0.3732,0 -0.49222,-0.19567 -0.56887,-0.47002 l -0.15735,-0.6072 c -0.13717,-0.4902 -0.33285,-0.88357 -0.6072,-1.15792 -0.31469,-0.31268 -0.82506,-0.5487 -1.39192,-0.5487 -0.80489,0 -1.45244,0.44985 -1.45244,1.0974 0,0.72622 0.66772,1.13774 1.88212,1.70661 l 1.49077,0.68588 c 0.56887,0.27435 1.21641,0.62737 1.60777,1.00057 0.60719,0.58702 1.00056,1.35359 1.00056,2.33196 0,2.09797 -1.49076,3.66741 -4.49045,3.66741"
       id="path1428"
       style="fill:#0f2b53;fill-opacity:1;fill-rule:nonzero;stroke:none" />
    <path
       d="m 422.05786,500.02407 0,-1.5876 1.0974,0 0,-3.6674 -3.44954,0 0,2.86251 c 0,0.53055 0.15735,0.80489 0.80287,0.80489 l 0.5487,0 0,1.5876 -5.66652,0 0,-1.5876 1.09941,0 0,-8.09935 c 0,-0.52853 -0.15735,-0.80288 -0.80489,-0.80288 l -0.5487,0 0,-1.58759 5.66653,0 0,1.58759 -1.0974,0 0,3.41121 3.44954,0 0,-2.60833 c 0,-0.52853 -0.15735,-0.80288 -0.80288,-0.80288 l -0.55071,0 0,-1.58759 5.66854,0 0,1.58759 -1.09942,0 0,8.09734 c 0,0.53055 0.15735,0.80489 0.8049,0.80489 l 0.54869,0 0,1.5876 -5.66652,0 z"
       id="path1432"
       style="fill:#0f2b53;fill-opacity:1;fill-rule:nonzero;stroke:none" />
    <path
       d="m 428.80726,500.02407 0,-1.5876 1.0974,0 0,-8.09935 c 0,-0.52853 -0.15735,-0.80288 -0.80288,-0.80288 l -0.5487,0 0,-1.58759 5.66653,0 0,1.58759 -1.09942,0 0,8.09734 c 0,0.53055 0.15735,0.80489 0.8049,0.80489 l 0.54869,0 0,1.5876 -5.66652,0 z"
       id="path1436"
       style="fill:#0f2b53;fill-opacity:1;fill-rule:nonzero;stroke:none" />
    <path
       d="m 440.67227,489.53424 -0.82305,0 0,4.11726 0.80288,0 c 1.53111,0 1.90229,-0.82305 1.90229,-2.03947 0,-1.45042 -0.56887,-2.07779 -1.88212,-2.07779 m 2.86251,10.48983 -2.58816,-4.78498 -1.0974,0 0,2.39249 c 0,0.5487 0.1755,0.80489 0.82305,0.80489 l 0.52853,0 0,1.5876 -5.66451,0 0,-1.5876 1.0974,0 0,-8.09935 c 0,-0.5487 -0.17752,-0.80288 -0.82305,-0.80288 l -0.53055,0 0,-1.5876 5.11783,0 c 2.17664,0 3.43138,0.19568 4.49045,1.0974 0.6657,0.56887 1.0389,1.43025 1.0389,2.50949 0,1.35359 -0.5487,2.47116 -2.05964,3.15704 l 1.80345,3.01986 c 0.31469,0.50835 0.70806,0.70604 1.29509,0.70604 l 0.45187,0 0,1.5876 -3.88326,0 z"
       id="path1440"
       style="fill:#0f2b53;fill-opacity:1;fill-rule:nonzero;stroke:none" />
    <path
       d="m 448.29635,500.02407 0,-1.5876 1.0974,0 0,-8.09935 c 0,-0.5487 -0.17551,-0.80288 -0.82305,-0.80288 l -0.53054,0 0,-1.58759 9.66678,0 0.17752,4.49045 -0.78472,0 c -0.44986,0 -0.6657,-0.19769 -0.74438,-0.58904 l -0.31469,-1.54927 c -0.117,-0.56887 -0.33285,-0.76455 -1.0389,-0.76455 l -2.39249,0 0,3.66539 1.37377,0 0.19567,-0.86138 c 0.0968,-0.45187 0.25418,-0.51037 0.56887,-0.51037 l 0.70403,0 0,4.23628 -0.70403,0 c -0.31469,0 -0.47204,-0.0585 -0.56887,-0.51037 l -0.19567,-0.86339 -1.37377,0 0,2.94118 c 0,0.62737 0.21585,0.80489 0.82305,0.80489 l 2.66684,0 c 0.25619,-0.88356 0.45187,-2.21698 0.45187,-3.15703 l 0.76454,0 c 0.5487,0 0.74438,0.1755 0.74438,0.70605 l 0,4.03858 -9.76361,0 z"
       id="path1444"
       style="fill:#0f2b53;fill-opacity:1;fill-rule:nonzero;stroke:none" />
    <path
       d="m 362.17426,458.257 0,-1.10143 1.18817,0 0,-7.65354 -1.53716,0 -0.15735,-1.08328 c 1.01268,-0.1049 2.02737,-0.48818 2.54984,-0.92593 l 0.92795,0 0,9.24315 c 0,0.28041 0.15734,0.4196 0.43573,0.4196 l 0.80489,0 0,1.10143 -4.21207,0 z"
       id="path1448"
       style="fill:#0f2b53;fill-opacity:1;fill-rule:nonzero;stroke:none" />
    <path
       d="m 370.91128,448.5414 c -0.89164,0 -1.41613,0.62939 -1.41613,1.41613 0,0.97837 0.68184,1.43226 1.57348,1.86799 0.82103,-0.43573 1.24062,-1.22247 1.24062,-1.86799 0,-0.89164 -0.57694,-1.41613 -1.39797,-1.41613 m -0.62939,4.70025 c -0.69798,0.45389 -1.13573,1.17002 -1.13573,2.07981 0,1.03083 0.7,1.81756 1.73083,1.81756 1.17002,0 1.69451,-0.87348 1.69451,-1.76511 0,-1.24062 -1.36368,-1.57348 -2.28961,-2.13226 m 0.5951,5.2086 c -2.15042,0 -3.60084,-1.24264 -3.60084,-3.0945 0,-1.18817 0.68184,-2.28759 1.87001,-2.77778 -0.13919,-0.1049 -0.34898,-0.26225 -0.43573,-0.34899 -0.54264,-0.47204 -0.96224,-1.18818 -0.96224,-2.15042 0,-1.9043 1.62593,-2.79594 3.1288,-2.79594 2.06165,0 3.11063,1.18818 3.11063,2.72736 0,1.22246 -0.80489,1.97289 -1.67837,2.42879 0.24409,0.0867 0.57694,0.27839 0.82103,0.43574 0.73429,0.45388 1.34552,1.20633 1.34552,2.2896 0,1.71267 -1.13572,3.28614 -3.59881,3.28614"
       id="path1452"
       style="fill:#0f2b53;fill-opacity:1;fill-rule:nonzero;stroke:none" />
    <path
       d="m 435.03761,452.64777 c -0.69999,1.66022 -1.27492,3.38902 -1.58961,5.61004 l -1.73082,0 c 0.31469,-2.20286 0.87348,-3.98412 1.53716,-5.48699 l 1.74898,-3.93166 -3.44349,0 -0.36715,1.43226 c -0.0524,0.22795 -0.1755,0.33285 -0.43573,0.33285 l -0.7706,0 0.28041,-3.11064 6.50167,0 0,1.03083 -1.73082,4.12331 z"
       id="path1456"
       style="fill:#0f2b53;fill-opacity:1;fill-rule:nonzero;stroke:none" />
    <path
       d="m 441.08016,448.5763 c -1.37982,0 -1.62592,1.24062 -1.62592,4.29881 0,3.05819 0.2461,4.28066 1.62592,4.28066 1.37982,0 1.62592,-1.22247 1.62592,-4.28066 0,-3.05819 -0.2461,-4.29881 -1.62592,-4.29881 m 0,9.87254 c -2.48125,0 -3.54637,-2.02736 -3.54637,-5.57373 0,-3.54838 1.06512,-5.59188 3.54637,-5.59188 2.48125,0 3.54637,2.0435 3.54637,5.59188 0,3.54637 -1.06512,5.57373 -3.54637,5.57373"
       id="path1460"
       style="fill:#0f2b53;fill-opacity:1;fill-rule:nonzero;stroke:none" />
  </g>
</svg>
