<?xml version="1.0" encoding="UTF-8"?>
<!DOCTYPE svg PUBLIC "-//W3C//DTD SVG 1.1//EN" "http://www.w3.org/Graphics/SVG/1.1/DTD/svg11.dtd">
<!-- Creator: CorelDRAW X8 -->
<svg xmlns="http://www.w3.org/2000/svg" xml:space="preserve" width="8.21681in" height="11.3617in" version="1.1" style="shape-rendering:geometricPrecision; text-rendering:geometricPrecision; image-rendering:optimizeQuality; fill-rule:evenodd; clip-rule:evenodd"
viewBox="0 0 8161 11285"
 xmlns:xlink="http://www.w3.org/1999/xlink">
 <defs>
  <style type="text/css">
   <![CDATA[
    .fil0 {fill:#EFB38C;fill-rule:nonzero}
    .fil1 {fill:#574539;fill-rule:nonzero}
   ]]>
  </style>
 </defs>
 <g id="Layer_x0020_1">
  <metadata id="CorelCorpID_0Corel-Layer"/>
  <path class="fil0" d="M7356 5258l-231 0 0 -965c0,-1609 -1470,-2913 -3284,-2913 -1814,0 -3284,1304 -3284,2913l0 965 -234 0c-179,0 -323,129 -323,287l0 728c0,352 141,693 399,961l154 160 4 -42 0 42c0,0 420,2772 2431,3707 473,220 812,269 1493,0 2213,-873 2644,-3707 2644,-3707l155 -160c257,-268 398,-609 398,-961l0 -728c0,-158 -144,-287 -322,-287z"/>
  <path class="fil1" d="M1444 2002c-130,-307 -250,-678 -15,-937 178,-194 494,-246 782,-270 1016,-86 2042,-9 3062,-51 1020,-42 2075,-219 2888,-744 -293,854 -784,1659 -1437,2356 -264,282 -561,551 -926,735 -530,267 -1166,337 -1781,328 -991,-14 -2037,-253 -2692,-885l119 -532z"/>
  <path class="fil1" d="M6447 2468c271,-413 487,-365 868,-168 70,36 143,78 176,143 31,59 24,128 15,192 -114,827 -444,3261 -444,3261 0,0 -434,-162 -585,-720 -54,-198 -309,-2049 -554,-2237l524 -471z"/>
  <path class="fil1" d="M1444 2002c-173,-124 -366,-231 -577,-292 -212,-61 -483,115 -641,254 -194,171 -176,449 -146,690 118,925 320,2505 438,3430 861,552 303,-2765 1131,-3289l-205 -793z"/>
  <path class="fil1" d="M5228 9237c-352,-205 -924,-344 -1348,-438l155 264c245,107 496,193 751,284 -14,355 97,710 -14,1064 -82,245 -317,685 -648,502 -103,-65 -154,-169 -164,-287 12,-109 31,-217 59,-325 -62,6 -146,16 -230,19 -84,-3 -168,-13 -230,-19 24,97 42,195 54,293 -7,125 -58,239 -160,319 -331,183 -565,-257 -648,-502 -111,-354 0,-709 -14,-1064 256,-91 506,-177 751,-284l123 -265c-424,95 -964,234 -1315,439 -74,470 -49,949 -63,1421 209,171 442,322 701,443 281,131 515,201 801,180 286,21 519,-49 800,-180 259,-121 492,-272 701,-443 -13,-472 12,-951 -62,-1421z"/>
  <path class="fil1" d="M1235 5597l964 -459 762 0c55,0 99,48 99,106l0 74c0,58 -44,105 -99,105l-756 0 -970 174z"/>
  <path class="fil1" d="M6342 5597l-964 -459 -761 0c-55,0 -100,48 -100,106l0 74c0,58 45,105 100,105l756 0 969 174z"/>
 </g>
</svg>
