<?xml version="1.0" encoding="UTF-8"?>
<!DOCTYPE svg PUBLIC "-//W3C//DTD SVG 1.1//EN" "http://www.w3.org/Graphics/SVG/1.1/DTD/svg11.dtd">
<!-- Creator: CorelDRAW X8 -->
<svg xmlns="http://www.w3.org/2000/svg" xml:space="preserve" width="3.10929in" height="2.86996in" version="1.1" style="shape-rendering:geometricPrecision; text-rendering:geometricPrecision; image-rendering:optimizeQuality; fill-rule:evenodd; clip-rule:evenodd"
viewBox="0 0 975 900"
 xmlns:xlink="http://www.w3.org/1999/xlink">
 <defs>
  <style type="text/css">
   <![CDATA[
    .fil3 {fill:#22180A;fill-rule:nonzero}
    .fil1 {fill:#9E6300;fill-rule:nonzero}
    .fil4 {fill:#F4A600;fill-rule:nonzero}
    .fil0 {fill:#F8F8F8;fill-rule:nonzero}
    .fil2 {fill:#FCCC00;fill-rule:nonzero}
   ]]>
  </style>
 </defs>
 <g id="Objects">
  <metadata id="CorelCorpID_0Corel-Layer"/>
  <path class="fil0" d="M966 401c-18,-91 -60,-181 -123,-249 -71,-78 -170,-130 -273,-146 -16,-2 -32,-4 -48,-5 -85,-7 -175,16 -249,55 -93,50 -167,133 -214,226 -51,101 -75,218 -48,329 24,97 85,186 174,234 107,57 235,60 353,52 94,-8 188,-26 268,-79 138,-90 192,-258 160,-417z"/>
  <path class="fil0" d="M714 498c0,2 0,3 0,4 -4,11 -7,22 -10,33 -18,25 -54,37 -83,42 -46,9 -92,12 -139,12 -46,0 -93,-4 -138,-12 -20,-4 -50,-5 -65,-20 -14,-12 -18,-33 -21,-51 40,20 85,30 128,36 48,8 97,12 145,6 43,-5 86,-16 127,-29 19,-6 38,-13 56,-21z"/>
  <path class="fil1" d="M695 561c-1,4 -3,8 -4,11 -21,45 -51,86 -95,110 -57,31 -131,34 -191,12 -50,-19 -89,-56 -116,-102 -3,-7 -7,-14 -11,-21 13,8 29,11 44,14 54,11 109,17 164,16 53,0 109,-3 160,-17 18,-4 35,-12 49,-23z"/>
  <path class="fil2" d="M870 346c47,131 29,288 -79,383 -50,45 -114,71 -180,83 -49,10 -99,13 -148,14 -51,1 -103,-5 -152,-18 -88,-22 -159,-75 -199,-158 -40,-83 -40,-180 -12,-267 30,-96 92,-185 175,-242 60,-40 135,-67 210,-69 1,2 2,3 5,3 91,0 181,30 252,87 59,48 102,113 128,184zm-137 142l0 0c2,-6 -5,-9 -10,-7 -55,24 -114,42 -174,52 -83,13 -173,1 -253,-24 -14,-5 -28,-9 -41,-15 -2,-6 -12,-6 -12,2 0,30 14,62 27,88 24,47 61,88 108,112 60,30 135,33 197,10 51,-19 90,-58 116,-106 11,-20 18,-40 25,-61 6,-9 9,-20 10,-33 2,-6 4,-12 7,-18zm-69 -42l0 0c3,-26 3,-54 -3,-79 -6,-24 -46,-20 -44,6 1,25 4,48 4,73 0,0 0,0 0,0 1,25 39,29 43,0zm-305 -73l0 0c2,-25 -38,-30 -44,-6 -7,25 -7,53 -3,79 3,28 42,26 43,0 0,0 0,0 0,0 0,-25 2,-48 4,-73z"/>
  <path class="fil3" d="M485 72c-75,2 -150,29 -210,69 -83,57 -145,146 -175,242 -28,87 -28,184 12,267 40,83 111,136 199,158 49,13 101,19 152,18 49,-1 99,-4 148,-14 66,-12 130,-38 180,-83 108,-95 126,-252 79,-383 -26,-71 -69,-136 -128,-184 -71,-57 -161,-87 -252,-87 -3,0 -4,-1 -5,-3zm-182 39l0 0c63,-34 141,-53 215,-48 13,1 27,2 40,4 89,15 175,59 236,126 54,59 91,137 106,215 28,136 -19,282 -138,359 -69,46 -150,62 -231,68 -102,7 -212,4 -304,-45 -77,-41 -130,-118 -150,-201 -23,-96 -3,-197 41,-283 41,-81 105,-152 185,-195z"/>
  <path class="fil3" d="M723 481c5,-2 12,1 10,7 -3,6 -5,12 -7,18 -1,13 -4,24 -10,33 -7,21 -14,41 -25,61 -26,48 -65,87 -116,106 -62,23 -137,20 -197,-10 -47,-24 -84,-65 -108,-112 -13,-26 -27,-58 -27,-88 0,-8 10,-8 12,-2 13,6 27,10 41,15 80,25 170,37 253,24 60,-10 119,-28 174,-52zm-9 21l0 0c0,-1 0,-2 0,-4 -18,8 -37,15 -56,21 -41,13 -84,24 -127,29 -48,6 -97,2 -145,-6 -43,-6 -88,-16 -128,-36 3,18 7,39 21,51 15,15 45,16 65,20 45,8 92,12 138,12 47,0 93,-3 139,-12 29,-5 65,-17 83,-42 3,-11 6,-22 10,-33zm-23 70l0 0c1,-3 3,-7 4,-11 -14,11 -31,19 -49,23 -51,14 -107,17 -160,17 -55,1 -110,-5 -164,-16 -15,-3 -31,-6 -44,-14 4,7 8,14 11,21 27,46 66,83 116,102 60,22 134,19 191,-12 44,-24 74,-65 95,-110z"/>
  <path class="fil3" d="M661 367c6,25 6,53 3,79 -4,29 -42,25 -43,0 0,0 0,0 0,0 0,-25 -3,-48 -4,-73 -2,-26 38,-30 44,-6z"/>
  <path class="fil3" d="M315 367c6,-24 46,-19 44,6 -2,25 -4,48 -4,73 0,0 0,0 0,0 -1,26 -40,28 -43,0 -4,-26 -4,-54 3,-79z"/>
  <path class="fil4" d="M232 240c66,-49 143,-77 224,-90 14,-2 22,-20 18,-32 -4,-15 -18,-21 -32,-19 -86,14 -165,60 -224,123 -9,9 3,26 14,18z"/>
  <path class="fil4" d="M533 163c6,0 13,-3 17,-8 3,-2 4,-5 5,-8 2,-3 3,-6 3,-9 -1,-7 -3,-14 -8,-18 -5,-5 -11,-7 -17,-7 -7,0 -14,2 -18,7 -3,2 -4,5 -5,8 -2,3 -3,6 -3,10 1,6 3,13 8,17 5,5 11,8 18,8z"/>
  <path class="fil3" d="M343 78c12,-7 25,-10 39,-14 6,-2 3,-12 -3,-10 -15,2 -28,9 -40,17 -5,3 -1,10 4,7z"/>
  <path class="fil3" d="M428 52c10,-2 20,-3 30,-4 7,-2 4,-13 -3,-11 -10,2 -20,5 -30,7 -5,1 -3,9 3,8z"/>
  <path class="fil3" d="M519 52c11,1 22,3 33,5 7,1 10,-9 3,-11 -11,-3 -24,-3 -36,-3 -6,0 -5,8 0,9z"/>
  <path class="fil3" d="M608 68c13,5 26,11 39,15 6,2 10,-7 4,-10 -13,-6 -27,-10 -41,-14 -6,-1 -8,7 -2,9z"/>
  <path class="fil3" d="M708 107c11,7 21,15 31,22 6,5 12,-5 6,-9 -10,-8 -21,-15 -32,-21 -5,-3 -10,4 -5,8z"/>
  <path class="fil3" d="M775 158c7,7 15,15 23,21 6,5 14,-3 8,-8 -8,-7 -17,-14 -26,-20 -4,-3 -8,3 -5,7z"/>
  <path class="fil3" d="M830 210c9,13 19,26 30,37 4,4 12,-2 8,-7 -9,-12 -19,-24 -31,-35 -3,-4 -10,1 -7,5z"/>
  <path class="fil3" d="M874 278c5,7 9,15 14,23 4,6 13,0 10,-6 -5,-8 -11,-16 -17,-23 -3,-3 -10,1 -7,6z"/>
  <path class="fil3" d="M908 350c1,14 4,28 9,40 3,6 12,2 10,-4 -4,-12 -8,-23 -10,-36 -1,-5 -9,-6 -9,0z"/>
  <path class="fil3" d="M925 444c2,11 2,23 0,34 -1,6 11,8 11,1 2,-12 1,-25 -3,-37 -1,-6 -9,-3 -8,2z"/>
  <path class="fil3" d="M921 539c-2,13 -5,25 -8,37 -2,7 8,9 10,3 4,-12 7,-25 8,-38 0,-6 -9,-7 -10,-2z"/>
  <path class="fil3" d="M901 622c-2,14 -7,26 -14,37 -4,6 5,11 9,5 9,-12 13,-26 13,-40 1,-5 -7,-6 -8,-2z"/>
  <path class="fil3" d="M858 711c-4,8 -8,17 -13,24 -4,8 -11,14 -16,22 -4,5 4,10 9,6 13,-11 24,-32 27,-49 1,-4 -5,-7 -7,-3z"/>
  <path class="fil3" d="M800 777c-11,10 -25,18 -38,25 -5,2 -2,11 4,9 16,-7 27,-17 39,-29 4,-3 -2,-9 -5,-5z"/>
  <path class="fil3" d="M723 818c-11,4 -23,6 -35,8 -6,1 -4,11 2,10 12,-1 24,-5 36,-10 4,-2 3,-10 -3,-8z"/>
  <path class="fil3" d="M633 845c-17,8 -34,11 -52,12 -8,0 -8,11 0,11 20,0 39,-6 57,-15 5,-3 0,-10 -5,-8z"/>
  <path class="fil3" d="M521 862c-18,-1 -36,-2 -55,-1 -6,0 -6,10 0,10 19,1 37,0 55,0 6,0 6,-9 0,-9z"/>
  <path class="fil3" d="M402 857c-18,0 -37,0 -55,2 -7,0 -7,11 0,11 19,0 37,-3 55,-5 5,-1 5,-8 0,-8z"/>
  <path class="fil3" d="M300 846c-14,-7 -29,-14 -44,-20 -6,-2 -10,8 -4,11 14,7 30,11 45,17 4,2 8,-6 3,-8z"/>
  <path class="fil3" d="M206 811c-13,-9 -23,-20 -35,-31 -5,-5 -12,2 -8,8 11,13 25,22 39,30 5,3 9,-4 4,-7z"/>
  <path class="fil3" d="M141 751c-12,-7 -21,-18 -31,-28 -4,-4 -12,2 -8,7 9,12 22,20 35,28 4,3 8,-4 4,-7z"/>
  <path class="fil3" d="M80 660c-2,-16 -7,-32 -17,-45 -4,-5 -11,1 -8,6 7,13 13,26 16,40 1,5 10,4 9,-1z"/>
  <path class="fil3" d="M265 113c9,-6 18,-10 27,-14 7,-2 4,-13 -3,-11 -11,4 -21,11 -29,18 -4,3 1,10 5,7z"/>
  <path class="fil3" d="M188 168c13,-10 27,-19 39,-30 5,-4 -2,-13 -7,-9 -13,11 -25,22 -38,33 -4,4 2,9 6,6z"/>
  <path class="fil3" d="M132 228c6,-8 13,-15 20,-23 5,-5 -3,-13 -7,-7 -7,7 -13,15 -20,23 -3,5 3,11 7,7z"/>
  <path class="fil3" d="M92 308c5,-10 12,-19 19,-28 5,-5 -3,-13 -8,-8 -8,9 -14,20 -19,31 -2,5 5,10 8,5z"/>
  <path class="fil3" d="M51 381c-2,14 -5,28 -6,42 -1,6 10,8 11,2 2,-14 3,-29 4,-43 0,-5 -8,-6 -9,-1z"/>
  <path class="fil3" d="M37 504c-1,13 -1,25 4,37 2,6 13,4 11,-3 -3,-11 -6,-22 -6,-34 0,-5 -8,-5 -9,0z"/>
 </g>
</svg>
