<svg id="Layer_1" data-name="Layer 1" xmlns="http://www.w3.org/2000/svg" viewBox="0 0 316.98 304.05"><defs><style>.cls-1{fill:#231f20;}.cls-2{fill:#f2f2f2;}</style></defs><title>18</title><path class="cls-1" d="M1159.1,1000.88c0,16.36-15.9,30-20.7,44.77-5,15.3-.33,35.65-9.61,48.38s-30.22,14.67-43.09,24-20.87,28.58-36.18,33.54c-14.77,4.79-32.62-5.92-49-5.93s-34.23,10.68-49,5.88c-15.3-5-23.41-24.3-36.14-33.58s-33.71-11.2-43.07-24.07-4.6-33.08-9.56-48.39c-4.79-14.77-20.66-28.43-20.65-44.79s15.9-30,20.7-44.77c5-15.3.33-35.65,9.61-48.38s30.22-14.67,43.09-24S936.39,855,951.7,850c14.76-4.79,32.62,5.92,49,5.93s34.23-10.68,49-5.88c15.3,5,23.42,24.3,36.15,33.58s33.71,11.2,43.07,24.07,4.6,33.08,9.56,48.39C1143.23,970.85,1159.11,984.51,1159.1,1000.88Z" transform="translate(-842.12 -848.77)"/><path class="cls-2" d="M1014.84,917a2.43,2.43,0,0,1-2.5-1.63,2,2,0,0,1,1-2.27c1.51-.91,3.11-2,2.93-3.89-.15-1.54-2.07-2-2.6-2.1a6.42,6.42,0,0,1-1.08.1h0c-2.1,0-3.16-1.15-3.28-2.29s.66-2.63,3.21-3.16a7.63,7.63,0,0,1,1.56-.16,8.47,8.47,0,0,1,7.5,4.83c1.46,3.5-.66,8.27-4.44,10A5.55,5.55,0,0,1,1014.84,917Zm-1.21-11.91h.12c.17,0,4.14.52,4.48,3.91s-2.52,5-3.89,5.8c-.05.05.09.19.5.19a3.55,3.55,0,0,0,1.45-.38c2.81-1.29,4.48-4.89,3.42-7.42a6.57,6.57,0,0,0-5.66-3.6,5.63,5.63,0,0,0-1.15.12c-1.2.25-1.66.77-1.63,1s.41.49,1.29.49h0a4.55,4.55,0,0,0,.87-.09Z" transform="translate(-842.12 -848.77)"/><path class="cls-2" d="M1014.84,917.47a2.91,2.91,0,0,1-3-2,2.51,2.51,0,0,1,1.19-2.83c1.38-.83,2.84-1.85,2.69-3.41-.12-1.15-1.59-1.54-2.1-1.64a6.81,6.81,0,0,1-1.08.09c-2.41,0-3.63-1.37-3.77-2.74s.73-3.1,3.61-3.7a8.13,8.13,0,0,1,1.66-.17,9,9,0,0,1,8,5.14c1.56,3.74-.68,8.81-4.69,10.65A6,6,0,0,1,1014.84,917.47Zm-1.19-12.91h.16c1.68.2,4.62,1.34,4.92,4.35a5.68,5.68,0,0,1-2.32,5c2.35-1.29,3.75-4.45,2.85-6.61a6,6,0,0,0-5.2-3.29,5.14,5.14,0,0,0-1,.11,2.85,2.85,0,0,0-1.08.42,3.17,3.17,0,0,0,1.4,0A1.8,1.8,0,0,1,1013.65,904.56Z" transform="translate(-842.12 -848.77)"/><path class="cls-2" d="M1005.59,975.45h0a1,1,0,0,1-.58-.19c-.37-.27-9.15-6.66-10.5-17.19-.9-7,5.75-13.92,10.64-17.95-7.22,3.71-12.45,12.12-12.84,17.76-.46,6.59,1.77,13.66,2.16,14.82a1,1,0,0,1,.13.5,1,1,0,0,1-1,1,1.6,1.6,0,0,1-.26,0c-9.11-2.31-14.61-6.31-16.34-11.88-1.85-6,1.09-12.28,3.53-16.13-6.25,5-5.39,14.65-5.38,14.76a1,1,0,0,1-.91,1.09c-5.08.45-9.35,4.77-9.4,4.81a1,1,0,0,1-1.71-.73c.62-20.08,18.24-30.22,21.46-31.25a9.65,9.65,0,0,0,1.68-.71l-.4,0c-4.72.47-8.77-2.59-8.92-6.54a3.71,3.71,0,0,1,1-2.83,3.34,3.34,0,0,1,2.44-1,3.07,3.07,0,0,1,3,1.91c.1.3,1,.87,2.7.87a7.83,7.83,0,0,0,4.42-1.37,5.17,5.17,0,0,0,2.05-3.64,5.36,5.36,0,0,0-.48-3.35c-.67-.8-3.25-1.21-7.68-1.21-3.65,0-4.12,2.31-4.13,2.33a1,1,0,0,1-1,.81c-3.85-.12-6-5.43-6.07-7,0-.17,0-.37-.07-.58a7.08,7.08,0,0,1,2.36-6.92c2.53-2.28,8.19-2.47,11.58-2.59.89,0,1.66-.06,2-.11.6-.11.87-.43,1.57-1.34a17.4,17.4,0,0,1,1.94-2.23c2-2,6.82-2.34,8.55-2.42,1.55-2.4,5.16-3.62,10.73-3.62a43,43,0,0,1,6.27.47c16.91,3.63,21.43,18.64,20.18,30.4-.54,5-1.6,5.06-2.12,5.06h0c-1.5-.07-1.78-1.68-2.07-3.39a12.85,12.85,0,0,0-1.7-5.17,7,7,0,0,0-3.29-2.41c6.3,7.57,8.3,22.79,4.21,35.75-1,3.27-5.58,14-20.84,14-.56,0-.88,0-.88,0a1,1,0,0,1-.77-1.54c.29-.44,7-10.71,10.81-15.29,3.47-4.19,2.55-12.8,2.15-16.47l0-.18a5.71,5.71,0,0,0-.85-2.55c.25,10.36-.51,14.34-8.7,25.91-7.39,10.45-7.62,15.48-7.6,16.31a1,1,0,0,1,0,.28A1,1,0,0,1,1005.59,975.45Zm5-39.08a1,1,0,0,1,.53,1.85c-.16.1-15.82,10.13-14.61,19.6.92,7.18,5.78,12.4,8.25,14.63.46-2.62,2.12-7.71,7.8-15.73,8.42-11.91,8.65-15.16,8.27-27a1,1,0,0,1,1.38-1,6.54,6.54,0,0,1,3.53,5.53l0,.18c.42,3.93,1.41,13.12-2.6,18-2.86,3.45-7.58,10.44-9.65,13.55,4.38-.2,14.52-1.86,17.88-12.53,4.39-13.92,1.55-30.45-6.18-36.1a1,1,0,0,1,.64-1.81c.23,0,5.63.33,8.18,4a14.64,14.64,0,0,1,2,6v.06a32.11,32.11,0,0,0-1.73-16.39c-2.91-7.17-8.5-11.69-16.61-13.44h0a42.24,42.24,0,0,0-5.9-.44c-5,0-8.28,1.08-9.24,3a1,1,0,0,1-.88.56c-1.64,0-6.24.42-7.78,1.88a15.47,15.47,0,0,0-1.73,2,4.36,4.36,0,0,1-2.81,2.1,20.15,20.15,0,0,1-2.26.14c-2.91.1-8.32.28-10.31,2.07a5.06,5.06,0,0,0-1.72,5.17c0,.26.06.49.08.7.07.94,1.46,4.31,3.46,5,.68-1.36,2.38-3,5.76-3,5.4,0,8.08.56,9.22,1.93a7.76,7.76,0,0,1-2,9.91,9.74,9.74,0,0,1-5.57,1.74c-2.38,0-4.14-.86-4.6-2.24a1.18,1.18,0,0,0-1.12-.54,1.38,1.38,0,0,0-1,.38,1.81,1.81,0,0,0-.39,1.36c.1,2.76,3.22,5,6.72,4.63.39,0,.73-.06,1-.06,1.82,0,2.31.73,2.41,1.35.28,1.79-2.92,3-3.91,3.28-2.43.78-18.08,9.71-19.91,27.05a18.38,18.38,0,0,1,7.82-3.66c-.06-3.36.51-14.44,10.54-18a1,1,0,0,1,1.08,1.6c-.08.1-8.37,9.67-5.81,17.91,1.4,4.52,5.83,7.89,13.17,10.05a43.06,43.06,0,0,1-1.77-14c.53-7.57,8.83-19.95,20.13-21.36Zm-16.33-27c-2.72,0-3.24-1.72-3.33-2.46a3.09,3.09,0,0,1,.67-2.54,4.11,4.11,0,0,1,3.07-1.15H995a7,7,0,0,0,4-1.74,1,1,0,0,1,1.66.5c.53,2.23-.63,5.68-2.85,6.64A10.21,10.21,0,0,1,994.22,909.32Zm.4-4.16a2.17,2.17,0,0,0-1.57.47c-.07.08-.27.31-.19,1,0,.23.09.72,1.35.72a8.2,8.2,0,0,0,2.78-.59,3.83,3.83,0,0,0,1.66-2.63,7.92,7.92,0,0,1-3.69,1.08h-.35Z" transform="translate(-842.12 -848.77)"/><path class="cls-2" d="M1006.23,976.53a1,1,0,0,1-.58-.19l-.95-.67c-.38-.27-9.33-6.79-10.7-17.54-.5-3.94,1.26-7.81,3.77-11.18-3,3.7-4.76,7.91-5,11C992.29,965,995,972.62,995,972.7l.31.88a1,1,0,0,1-1.19,1.3l-.9-.23c-9.29-2.35-14.91-6.46-16.7-12.22-1.3-4.2-.31-8.54,1.23-12.1a21.06,21.06,0,0,0-2.11,10.54l0,.5a1,1,0,0,1-.91,1.09l-.5,0c-4.85.43-9,4.62-9.09,4.67l-.89.91a1,1,0,0,1-1.71-.73l0-1.28c.59-19.18,16.49-29.42,21.09-31.43-4-.48-7.13-3.38-7.26-7a4.19,4.19,0,0,1,1.09-3.19,3.83,3.83,0,0,1,2.8-1.15,3.61,3.61,0,0,1,3.49,2.25,3.54,3.54,0,0,0,2.23.53,7.32,7.32,0,0,0,4.13-1.28,4.68,4.68,0,0,0,1.85-3.3,5.11,5.11,0,0,0-.37-3c-.26-.31-1.49-1-7.3-1-3.11,0-3.59,1.74-3.64,1.94l-.08.41a1,1,0,0,1-1,.8h-.42c-4-.13-6.41-5.31-6.56-7.48,0-.15,0-.32-.06-.51a7.54,7.54,0,0,1,2.52-7.39c2.67-2.4,8.44-2.6,11.9-2.71.82,0,1.63-.06,1.92-.11s.58-.25,1.26-1.15a17.92,17.92,0,0,1,2-2.29c2-1.93,6.37-2.42,8.62-2.54,2.16-3,7.12-3.64,11-3.64a43.81,43.81,0,0,1,6.34.48c17.28,3.71,21.88,19,20.6,31-.41,3.84-1.19,5.48-2.62,5.48a2,2,0,0,1-1.44-.62,48.08,48.08,0,0,1-.93,25.05c-4.18,13.27-17.38,14.3-21.32,14.3-.58,0-.91,0-.91,0l-.85-.06a1,1,0,0,1-.77-1.54l.47-.71c.07-.11,7-10.75,10.84-15.33,3-3.59,2.57-10.7,2.18-14.76-.18,7.92-1.9,12.32-8.81,22.09-7.87,11.13-7.5,16.06-7.5,16.11l.13.93a1,1,0,0,1-.94,1.33Zm6.48-40.93a1,1,0,0,1,.53,1.85l-1.89,1.2c-.15.1-15.55,10-14.38,19.11.82,6.44,5,11.32,7.43,13.7.67-2.9,2.57-7.77,7.71-15,8.35-11.81,8.56-14.75,8.18-26.7l0-.78a1,1,0,0,1,1.38-1l.72.3c.35.15,3.36,1.54,3.83,5.94l0,.17c.43,4,1.43,13.34-2.71,18.34-2.6,3.14-6.8,9.3-9.05,12.67,4.61-.41,13.39-2.48,16.42-12.11,4.33-13.74,1.58-30-6-35.54l-1.36-1a1,1,0,0,1,.64-1.81l1.68.09c.24,0,5.88.34,8.56,4.25a11.16,11.16,0,0,1,1.46,3.16,31.72,31.72,0,0,0-1.37-11.25c-1.78-5.54-6.15-12.62-16.88-14.94a41.71,41.71,0,0,0-5.82-.43c-4.8,0-7.92,1-8.79,2.76l-.13.27a1,1,0,0,1-.88.56h-.31c-2.21,0-6.18.55-7.44,1.75a14.41,14.41,0,0,0-1.59,1.82,6.08,6.08,0,0,1,2.41-.33,6.44,6.44,0,0,0,3.61-1.61l.63-.6a1,1,0,0,1,1.66.49l.2.85c.58,2.46-.66,6.15-3.14,7.21a10.59,10.59,0,0,1-3.77.79c-3.2,0-3.74-2.22-3.83-2.9a4,4,0,0,1,.18-1.9,3.93,3.93,0,0,1-1.15.38,19.46,19.46,0,0,1-2.31.15c-2.67.09-8.16.28-10,1.94a4.58,4.58,0,0,0-1.56,4.73c0,.27.07.52.08.73a7.64,7.64,0,0,0,2.77,4.42c.77-1.24,2.45-2.87,6-2.87,5.57,0,8.35.61,9.6,2.11a7.36,7.36,0,0,1,1,5.27,7.6,7.6,0,0,1-3.09,5.36,10.39,10.39,0,0,1-5.86,1.83c-2.6,0-4.54-1-5.07-2.58a.94.94,0,0,0-.64-.2.87.87,0,0,0-.64.23,1.35,1.35,0,0,0-.26,1c.09,2.49,2.94,4.46,6.17,4.15.41,0,.77-.06,1.08-.06,2.29,0,2.8,1.11,2.91,1.77.34,2.18-3.17,3.48-4.25,3.83-2.71.87-17.13,9.11-19.43,25.49a18.31,18.31,0,0,1,6.69-3c0-3.76.91-14.51,10.87-18l1.8-.63a1,1,0,0,1,1.08,1.6l-1.26,1.43c-.08.09-8.18,9.49-5.71,17.42,1.29,4.17,5.32,7.35,12,9.46a42.5,42.5,0,0,1-1.54-13.31c.54-7.73,9-20.38,20.57-21.82l2.22-.28Zm18.09-15.77a26.48,26.48,0,0,1,2.55,5.05,10.34,10.34,0,0,0-1.43-3.89A5.13,5.13,0,0,0,1030.8,919.83Zm-36.17-14.17a1.88,1.88,0,0,0-1.19.3.86.86,0,0,0-.07.57.58.58,0,0,0,0,.13s.25.16.83.16a7.62,7.62,0,0,0,2.59-.55,2.39,2.39,0,0,0,1-1.2,7.88,7.88,0,0,1-2.83.6h-.36Z" transform="translate(-842.12 -848.77)"/><path class="cls-2" d="M1024.06,1106.26a8.52,8.52,0,0,1-2.8-.51c-2.38-.83-2.91-3-3.34-4.66-.48-1.9-.77-2.81-2.31-2.95a2.52,2.52,0,0,0-2.22.62,3.24,3.24,0,0,0-.63,2.15,1,1,0,0,1,0,.26,1,1,0,0,1-1.49.88c-3.48-1.83-5.08-3.93-4.75-6.22.46-3.19,4.75-5.42,6.3-5.73.09,0,.23,0,.33-.39a4.57,4.57,0,0,0-1.11-3.69,1,1,0,0,0-.66-.18,11.18,11.18,0,0,0-4.4,1.63,1,1,0,0,1-1.51-1c.86-6.47,8-9.16,11.63-9.16a4.8,4.8,0,0,1,2.13.4c1.64.82,1.48,2.91,1.32,4.94-.22,2.88,0,3.64,1,3.74a3.14,3.14,0,0,0,2-1.2c3.28-3.42,6.66-12.19,6.47-16.76-.11-2.66-3.1-4.84-6.25-7.15-3.45-2.52-7.36-5.38-8.64-9.64-1.41-4.71,2-9,5.28-13.19,2.61-3.3,5.3-6.72,5.22-10-.13-5.3-8.95-9.83-16.72-13.83-2.71-1.39-5.27-2.71-7.37-4-4.85-3-11-10.05-16-15.71-2.81-3.21-6-6.84-6.84-7.15-.41,0-.56.15-1.1,1.63a13.41,13.41,0,0,1-1.74,3.48,7.29,7.29,0,0,1-5.84,3h-.29a1,1,0,0,1-.89-1.23,12.7,12.7,0,0,0,.44-4.9c-.58.24-1.63,2.06-2.15,3a24.24,24.24,0,0,1-1.49,2.38c-1.47,2-4.68,2.25-6.47,2.25h-.54a1,1,0,0,1-.75-1.6,11.75,11.75,0,0,0,2-3.75c-1.18.29-3.37,3.47-4.57,5.21a25.32,25.32,0,0,1-2.35,3.12,5.67,5.67,0,0,1-4.15,1.38,12.94,12.94,0,0,1-2.83-.33,1,1,0,0,1-.39-1.74,3,3,0,0,0,1.07-2c0-1.46-2.42-1.62-3.45-1.62-1.68,0-2.78.27-3.26.79a1.76,1.76,0,0,0-.33,1.51c.2,2,2.63,3,2.65,3a1,1,0,0,1,0,1.87c-3.75,1.39-6.61,1-8.39-.93a9,9,0,0,1-1.89-5.61,1.57,1.57,0,0,0-1,.77c-.47,1.12.81,3.31,1.5,4.19a1,1,0,0,1-.71,1.61l-.52,0c-1.66,0-5.65-.63-7-6.43-1.21-5.39,3.21-6.41,5.09-6.85a7.62,7.62,0,0,0,.78-.2s.07,0,.08-.16a2.69,2.69,0,0,0-1.42-2.1c-.83-.48-2.39,1-2.92,1.6a1,1,0,0,1-1.66-.18c-.85-1.64-.63-3.67.62-5.71,1.94-3.18,5.93-5.68,8.54-5.3,2.07.31,2.79,2.25,3.42,4,.95,2.55,1.71,4.05,4.42,3.88,5.65-.35,11.23-5,16.63-9.4l2.18-1.8c5.58-4.61,10.41-8.59,13.81-8.59H974c2.23.09,3.64,1.81,5.27,3.8a23.78,23.78,0,0,0,5,4.89c3.59,2.49,10.92,3.71,14.51,4.18a18.89,18.89,0,0,1-1.27-4.73,1,1,0,0,1,2-.39c.7,2.56,5.68,5,8.93,6.23a36.87,36.87,0,0,1,0-8,1,1,0,0,1,1.08-.89s3.6.31,5.5.33a60.36,60.36,0,0,0,6.11-.77,1,1,0,0,1,1.16.88c0,.11,1.18,10.58,3.54,14.68,1.36,2.36,10,9.22,17,14.73,5.35,4.24,10,7.9,11.34,9.49a20.21,20.21,0,0,1,3.44,6.58,24.35,24.35,0,0,0,2.78,5.81,5,5,0,0,0,3.93,2.24,3.36,3.36,0,0,0,2.47-1c1-1.07,1.55-2.87,1.48-5.18-.24-7.57-10.66-17.29-18.27-24.39l-1.19-1.11c-7.32-6.85-10-15-8.83-26.55.63-6,5-9.9,11.19-9.9a14.64,14.64,0,0,1,7.31,2c4.88,2.87,5.4,12.22,5.75,18.4a23.81,23.81,0,0,0,.43,4.3,1.22,1.22,0,0,0,1.19.73,2.66,2.66,0,0,0,1-.19,1,1,0,0,1,1.4,1.07c-.26,1.67-2.78,4.79-6.65,4.79a9.59,9.59,0,0,1-5.86-2.29c-6.4-5-7.79-16.07-7.79-18.54,0-.51-.14-.51-.19-.51a1.27,1.27,0,0,0-.92.59c-.58.9-.81,7.23-.24,11.51.37,2.76,8.11,9.15,13.76,13.82,1.59,1.32,3.13,2.59,4.5,3.76,8,6.83,12.56,14.9,12.93,22.72.39,8.42-5.14,15.46-12.87,16.37a15.59,15.59,0,0,1-1.81.11,15.23,15.23,0,0,1-9.45-3.44l-.3-.22a15,15,0,0,0-.75,2.52c-.41,1.78-3,3.8-6.88,6.85l-2,1.57c-3.55,2.82-2.8,5.26-1.47,7.48,1,1.73,5.33,5,8.5,4.76s4.33-1.77,4.38-1.83a1,1,0,0,1,1-.38,1,1,0,0,1,.79.66c1.29,3.87-1.87,8.1-4.18,11.19a17.14,17.14,0,0,0-1.87,2.8,2.06,2.06,0,0,0,1.16.25,9.19,9.19,0,0,0,2.54-.46,1,1,0,0,1,1.28,1.25c-.77,2.43-4.2,6.33-6.22,7.95a11.2,11.2,0,0,1-3.31,1.58c-1,.34-2.29.8-2.31,1.23.06.09.51.34,1.72.34a9.68,9.68,0,0,0,1.15-.07,1,1,0,0,1,1,1.51c-2.44,4.07-9.34,5.36-11.94,5.84-2.15.4-4.07,3.88-4.35,6.73-.33,3.34-2.14,6.07-4.2,6.35-1.09.15-1.31,1.47-1.35,2,0,.28.85.88,1.67,1.14a1,1,0,0,1,.47,1.59A5.24,5.24,0,0,1,1024.06,1106.26Zm-8.91-10.15.63,0c3,.27,3.63,2.69,4.07,4.46s.76,2.81,2.06,3.26a5.76,5.76,0,0,0,3.33.24,2.66,2.66,0,0,1-1.31-2.32c.15-2.15,1.33-3.63,3.08-3.87.86-.11,2.22-1.9,2.48-4.56.3-3,2.4-7.83,6-8.5,1.94-.36,6.54-1.22,9.2-3.36a3.45,3.45,0,0,1-2.21-.9,2,2,0,0,1-.54-1.49c.09-1.77,1.9-2.4,3.65-3a9.65,9.65,0,0,0,2.72-1.25,25.44,25.44,0,0,0,4.67-5.24,8.07,8.07,0,0,1-1,.07,3.38,3.38,0,0,1-2.88-1.17c-.9-1.21.25-2.75,2-5.07s3.87-5.17,4.07-7.74a9.33,9.33,0,0,1-4.27,1.29c-4,.28-8.94-3.35-10.36-5.73-.95-1.58-3.47-5.78,1.94-10.08l2-1.57c2.91-2.28,5.91-4.63,6.16-5.73.46-2,1-4.23,2.59-4.23a1.55,1.55,0,0,1,.62.13,5.45,5.45,0,0,1,1,.65,12.81,12.81,0,0,0,9.83,2.95c5.67-.67,11.5-5.9,11.11-14.29-.34-7.26-4.68-14.83-12.23-21.3-1.36-1.17-2.89-2.43-4.47-3.74-8.2-6.77-14-11.81-14.47-15.1s-.6-11.1.55-12.86a3.23,3.23,0,0,1,2.6-1.5,2.23,2.23,0,0,1,2.19,2.51c0,1.89,1.22,12.45,7,17a7.66,7.66,0,0,0,4.63,1.87,5.21,5.21,0,0,0,3.81-1.69,3.2,3.2,0,0,1-2.47-1.77c-.39-.75-.49-2.19-.65-5.12-.3-5.41-.81-14.47-4.76-16.79a12.61,12.61,0,0,0-6.3-1.69c-4,0-8.57,2.13-9.2,8.11-1.14,10.83,1.39,18.5,8.21,24.88l1.19,1.11c8.31,7.75,18.65,17.39,18.91,25.79.11,3.63-1,5.61-2,6.64a5.39,5.39,0,0,1-3.9,1.65,6.9,6.9,0,0,1-5.57-3.1,26,26,0,0,1-3-6.26,18.36,18.36,0,0,0-3.08-6c-1.24-1.45-6-5.23-11.07-9.22-9.32-7.38-16-12.79-17.47-15.3-2.12-3.69-3.3-11.56-3.67-14.41a49.77,49.77,0,0,1-5.38.63c-1.39,0-3.49-.16-4.72-.25-.23,2.78-.29,6.73.43,7.95a1,1,0,0,1-1.16,1.46,34.21,34.21,0,0,1-8.93-4.33,3.92,3.92,0,0,0,.78,1.18,1,1,0,0,1-.77,1.72c-.5,0-12.28-1.11-17.54-4.76a25.79,25.79,0,0,1-5.37-5.27c-1.57-1.93-2.53-3-3.8-3.07h0c-2.78,0-7.78,4.13-12.63,8.13l-2.18,1.8c-5.64,4.65-11.48,9.46-17.78,9.85-4.42.28-5.58-2.9-6.42-5.18-.59-1.58-1-2.56-1.84-2.68-1.88-.28-5,1.9-6.54,4.36a5.39,5.39,0,0,0-.82,2.25,4.65,4.65,0,0,1,2.71-1.1,2.73,2.73,0,0,1,1.37.36,4.64,4.64,0,0,1,2.42,4,2.09,2.09,0,0,1-1.39,1.87,9.59,9.59,0,0,1-1,.27c-2.47.57-4.31,1.27-3.59,4.46.67,3,2.16,4.18,3.49,4.63-.65-1.26-1.2-2.94-.6-4.36.53-1.27,1.8-2,3.76-2.22a1,1,0,0,1,1.1,1.09s-.32,3.56,1.35,5.4c.91,1,2.28,1.32,4.15,1a5.16,5.16,0,0,1-1.86-3.36,3.8,3.8,0,0,1,.84-3.05c.9-1,2.4-1.45,4.74-1.45,5.06,0,5.45,2.77,5.45,3.62a4.11,4.11,0,0,1-.56,2l.71,0a4,4,0,0,0,2.74-.79,25.28,25.28,0,0,0,2.12-2.84c2.57-3.72,4.56-6.32,6.56-6.1a1.75,1.75,0,0,1,1.5,1c.48,1.11-.29,2.86-1.13,4.26,1.44-.16,2.84-.57,3.44-1.37a22.94,22.94,0,0,0,1.36-2.18c1.26-2.18,2.49-4.26,4.31-4a1.71,1.71,0,0,1,1.18.77c.77,1.15.5,3.6.19,5.26a5.26,5.26,0,0,0,3.17-2.09,11.53,11.53,0,0,0,1.48-3c.52-1.42,1.1-3,3.19-2.92,1.26.07,3,2,8.14,7.81,4.87,5.56,10.93,12.48,15.52,15.33,2,1.26,4.56,2.56,7.23,3.93,8.27,4.25,17.65,9.08,17.81,15.56.1,4-2.82,7.71-5.65,11.29-3.11,3.94-6.05,7.66-4.94,11.38s4.55,6.15,7.9,8.6c3.56,2.6,6.92,5.06,7.07,8.68.21,5.08-3.4,14.45-7,18.23-1.26,1.31-2.48,1.93-3.63,1.81-3.17-.32-2.92-3.67-2.75-5.89.08-1,.21-2.78-.22-3a2.85,2.85,0,0,0-1.23-.19c-2.59,0-7.31,1.6-9,5.36a9,9,0,0,1,3.34-.85,2.81,2.81,0,0,1,2.07.76,6.44,6.44,0,0,1,1.61,5.68,2.4,2.4,0,0,1-1.86,1.77c-1,.2-4.41,2-4.71,4.05-.19,1.29,1,2.46,2.35,3.37a4.47,4.47,0,0,1,1-2.06A4.18,4.18,0,0,1,1015.15,1096.12Z" transform="translate(-842.12 -848.77)"/><path class="cls-2" d="M1024.06,1106.76a9,9,0,0,1-3-.54c-2.64-.92-3.23-3.29-3.66-5-.53-2.1-.8-2.48-1.87-2.57a2.12,2.12,0,0,0-1.81.46,2.85,2.85,0,0,0-.49,1.91l.1.93a1,1,0,0,1-1.46,1l-.83-.44c-3.69-1.94-5.38-4.21-5-6.74.53-3.65,5.26-5.82,6.63-6.13l0-.06a4.1,4.1,0,0,0-1-3.19,1.2,1.2,0,0,0-.31,0,10.77,10.77,0,0,0-4.14,1.56l-.89.55a1,1,0,0,1-1.51-1l.14-1c.9-6.78,8.34-9.59,12.12-9.59a5.28,5.28,0,0,1,2.35.46c1.94,1,1.75,3.44,1.6,5.42-.22,2.92,0,3.16.5,3.21.1,0,.61,0,1.58-1.05,3.14-3.28,6.52-12,6.33-16.39-.1-2.42-3-4.53-6-6.76-3.51-2.57-7.5-5.48-8.82-9.9-1.49-5,2-9.38,5.37-13.64,2.55-3.23,5.19-6.57,5.11-9.68-.12-5-9.18-9.66-16.45-13.4-2.72-1.4-5.29-2.72-7.4-4-4.92-3-11.11-10.12-16.09-15.81-2.08-2.38-5.52-6.31-6.51-6.95a5.34,5.34,0,0,0-.59,1.27,14,14,0,0,1-1.8,3.6,7.8,7.8,0,0,1-6.24,3.24h-.34l-.58-.05a1,1,0,0,1-.88-1.23l.14-.57a18.47,18.47,0,0,0,.53-3.7c-.47.64-1,1.62-1.33,2.13a24.53,24.53,0,0,1-1.52,2.43c-1.6,2.13-5,2.44-6.87,2.44h-.57l-.92-.05a1,1,0,0,1-.75-1.59l.55-.74a17,17,0,0,0,1.24-1.93,43.46,43.46,0,0,0-3,4,25.45,25.45,0,0,1-2.41,3.19,6.14,6.14,0,0,1-4.5,1.52,13.34,13.34,0,0,1-3-.34l-1-.24a1,1,0,0,1-.39-1.74l.76-.63a2.55,2.55,0,0,0,.9-1.59c0-1.07-2.46-1.12-3-1.12-2,0-2.67.39-2.89.63-.07.08-.29.32-.21,1.13.17,1.65,2.33,2.57,2.35,2.58l1.2.48a1,1,0,0,1,0,1.87l-1.22.45c-3.82,1.41-6.84,1.09-8.77-.88a1,1,0,0,1-.92.89l-.93.07-.56,0c-1.39,0-6-.49-7.44-6.82-1.32-5.87,3.61-7,5.47-7.45l.46-.11a2.49,2.49,0,0,0-1.14-1.43.23.23,0,0,0-.13,0c-.59,0-1.65.89-2.16,1.51l-.48.59a1,1,0,0,1-1.66-.17l-.35-.68c-.93-1.8-.71-4,.63-6.2,2.06-3.38,6.21-6,9-5.53,2.36.35,3.17,2.53,3.82,4.29.89,2.41,1.52,3.72,3.92,3.56,5.49-.34,11-4.89,16.34-9.29l2.18-1.8c5.89-4.86,10.54-8.7,14.12-8.7H974c2.48.1,4,1.9,5.65,4a23.35,23.35,0,0,0,4.85,4.8c3.24,2.25,9.83,3.46,13.44,4a20.86,20.86,0,0,1-1-4.05,1,1,0,0,1,.8-1.11l1-.2a1,1,0,0,1,1.16.72c.54,2,4.15,4.06,7.83,5.57a40.48,40.48,0,0,1,.16-7.31l.05-.49a1,1,0,0,1,1.08-.89l.49,0c.38,0,3.68.31,5.46.32a60.67,60.67,0,0,0,6-.76l.52-.09a1,1,0,0,1,1.16.88l.06.53c.32,2.9,1.57,11.17,3.48,14.48,1.31,2.28,10.3,9.39,16.86,14.58,5.59,4.43,10,7.92,11.41,9.56a20.3,20.3,0,0,1,3.53,6.74,24,24,0,0,0,2.72,5.7,4.42,4.42,0,0,0,3.52,2,2.84,2.84,0,0,0,2.11-.89c.94-1,1.41-2.64,1.34-4.82-.23-7.36-10.56-17-18.11-24l-1.2-1.12c-7.44-7-10.21-15.28-9-27,.8-7.63,6.56-10.35,11.69-10.35a15.15,15.15,0,0,1,7.56,2c5.11,3,5.64,12.51,6,18.8a28.56,28.56,0,0,0,.38,4.12.72.72,0,0,0,.74.44,2.19,2.19,0,0,0,.76-.16l.83-.37a1,1,0,0,1,1.4,1.07l-.14.91c-.3,1.87-2.94,5.21-7.14,5.21a10.07,10.07,0,0,1-6.17-2.39c-6.44-5-7.93-16-8-18.79a.92.92,0,0,0-.19.21c-.47.86-.74,6.82-.16,11.17.34,2.57,8.31,9.15,13.58,13.5,1.6,1.32,3.14,2.59,4.51,3.77,8.08,6.92,12.73,15.12,13.1,23.08.4,8.69-5.32,15.95-13.31,16.89a16.09,16.09,0,0,1-1.87.11,15.5,15.5,0,0,1-9.52-3.36c-.12.38-.29,1-.49,1.84-.45,2-3.08,4-7.05,7.13l-2,1.57c-3.07,2.44-2.8,4.42-1.35,6.83,1,1.6,5.05,4.71,8,4.52s4-1.58,4-1.63l.57-.76a1,1,0,0,1,1.75.28l.3.9c1.38,4.13-1.88,8.47-4.26,11.65-.39.52-1.16,1.56-1.57,2.22a3.06,3.06,0,0,0,.46,0,8.71,8.71,0,0,0,2.37-.43l.94-.33a1,1,0,0,1,1.28,1.25l-.3,1c-.81,2.56-4.27,6.49-6.39,8.18a11.41,11.41,0,0,1-3.45,1.66c-.42.15-1,.36-1.46.56a6.55,6.55,0,0,0,.7,0,9.27,9.27,0,0,0,1.08-.06l1-.14a1,1,0,0,1,1,1.51l-.54.89c-2.56,4.26-9.62,5.58-12.28,6.07-1.74.33-3.66,3.38-3.94,6.29-.35,3.57-2.34,6.49-4.64,6.79-.68.09-.86,1-.9,1.45a3.53,3.53,0,0,0,1.31.74l.7.22a1,1,0,0,1,.47,1.59l-.46.57A5.71,5.71,0,0,1,1024.06,1106.76Zm-8.91-11.15c.21,0,.44,0,.67,0,3.38.3,4.06,3,4.51,4.83.41,1.61.69,2.54,1.74,2.91a5.77,5.77,0,0,0,2,.37,2.77,2.77,0,0,1-.69-2c.17-2.4,1.52-4.06,3.51-4.33.5-.07,1.79-1.55,2-4.11.31-3.18,2.56-8.23,6.38-8.94,1.63-.3,5.43-1,8.06-2.62a3.17,3.17,0,0,1-1.33-.81,2.49,2.49,0,0,1-.68-1.86c.11-2.11,2.17-2.83,4-3.46a9.36,9.36,0,0,0,2.57-1.17,25.58,25.58,0,0,0,4-4.28h0a3.85,3.85,0,0,1-3.28-1.37c-1.13-1.51.18-3.25,2-5.67,1.41-1.89,3.23-4.32,3.8-6.52a10.33,10.33,0,0,1-3.57.87c-4.44.32-9.56-3.86-10.83-6-.91-1.52-3.7-6.16,2.06-10.72l1.94-1.53c2.63-2.06,5.83-4.57,6-5.49.48-2.06,1.07-4.62,3.08-4.62a2,2,0,0,1,.81.17,5.61,5.61,0,0,1,1.09.71,12.31,12.31,0,0,0,9.48,2.85c5.45-.64,11-5.68,10.66-13.77-.33-7.12-4.61-14.56-12.06-20.94-1.36-1.16-2.89-2.43-4.47-3.73-7.28-6-14.15-11.69-14.65-15.42-.46-3.45-.66-11.23.62-13.2a3.73,3.73,0,0,1,3-1.73,2.73,2.73,0,0,1,2.69,3c0,1.85,1.19,12.18,6.82,16.57a7.19,7.19,0,0,0,4.32,1.76,4.62,4.62,0,0,0,2.79-.95,3.75,3.75,0,0,1-1.89-1.78c-.44-.84-.54-2.24-.71-5.32-.28-5-.8-14.2-4.52-16.39a12.1,12.1,0,0,0-6-1.62c-1.85,0-8,.55-8.71,7.66-1.12,10.66,1.36,18.2,8,24.46l1.19,1.11c8.37,7.81,18.8,17.53,19.07,26.14.12,3.8-1.12,5.91-2.18,7a5.88,5.88,0,0,1-4.26,1.8,7.4,7.4,0,0,1-6-3.31,26.42,26.42,0,0,1-3.07-6.37,18,18,0,0,0-3-5.83c-1.21-1.41-6.18-5.35-11-9.16-7.87-6.23-16-12.66-17.6-15.44-2-3.56-3.22-10.77-3.67-14.09a43.67,43.67,0,0,1-5,.56c-1.24,0-3-.13-4.26-.22-.22,3-.15,6.23.4,7.16l.67,1.13a1,1,0,0,1-1.16,1.46l-1.25-.4a39.71,39.71,0,0,1-6.4-2.72,1,1,0,0,1-1,1.44l-1.44-.13c-1.26-.11-12.51-1.19-17.78-4.85a26.19,26.19,0,0,1-5.47-5.36c-1.48-1.81-2.37-2.84-3.43-2.89h-.09c-2.49,0-7.42,4.08-12.2,8l-2.18,1.8c-5.7,4.7-11.6,9.56-18.06,10-4.79.29-6.07-3.21-6.92-5.5-.53-1.42-.89-2.28-1.45-2.37-1.48-.21-4.52,1.62-6,4.12a6.49,6.49,0,0,0-.46.89,3.77,3.77,0,0,1,3.53-.08,5.09,5.09,0,0,1,2.67,4.48,2.6,2.6,0,0,1-1.72,2.29,9.7,9.7,0,0,1-1.07.29c-2.74.63-3.79,1.31-3.22,3.87a6.22,6.22,0,0,0,2,3.64,4.84,4.84,0,0,1-.05-3.45c.42-1,1.48-2.24,4.17-2.52l.61-.07a1,1,0,0,1,1.1,1.09l-.06.61c-.08.92,0,3.63,1.22,5a3.21,3.21,0,0,0,2.7.94,5.33,5.33,0,0,1-1.28-2.94,4.28,4.28,0,0,1,1-3.44c1-1.1,2.62-1.62,5.11-1.62,5.52,0,6,3.15,6,4.12a4.33,4.33,0,0,1-.29,1.55,3.47,3.47,0,0,0,2.32-.64,25.76,25.76,0,0,0,2-2.75c2.24-3.25,4.59-6.57,7-6.32a2.27,2.27,0,0,1,1.9,1.34c.16.37.6,1.37-.66,3.8a3.62,3.62,0,0,0,2.1-1A22.58,22.58,0,0,0,965,991.5c1.28-2.23,2.66-4.56,4.82-4.22a2.22,2.22,0,0,1,1.52,1c.61.92.75,2.54.4,4.83a4.78,4.78,0,0,0,2.14-1.68,11,11,0,0,0,1.41-2.87c.57-1.55,1.22-3.39,3.69-3.24,1.5.09,3.35,2.12,8.48,8,4.85,5.54,10.88,12.43,15.41,15.23,2,1.25,4.52,2.54,7.18,3.91,8.41,4.32,17.92,9.22,18.09,16,.1,4.19-2.88,8-5.76,11.61-3,3.83-5.89,7.46-4.85,10.92s4.43,5.94,7.72,8.34c3.66,2.68,7.12,5.2,7.28,9.06.22,5.28-3.4,14.66-7.17,18.59-1.36,1.42-2.73,2.08-4,2-3.66-.37-3.37-4.16-3.2-6.42a8.84,8.84,0,0,0,0-2.54,3,3,0,0,0-.87-.1,11,11,0,0,0-8,3.88,7.48,7.48,0,0,1,2.18-.38,3.34,3.34,0,0,1,2.43.91,7,7,0,0,1,1.73,6.18,2.92,2.92,0,0,1-2.24,2.12c-1,.2-4.06,1.9-4.31,3.64-.13.9.63,1.77,1.57,2.49a4.49,4.49,0,0,1,4.56-3.06Zm-83.64-98.11a.52.52,0,0,0-.08.13A3.44,3.44,0,0,0,932,1000,11.16,11.16,0,0,1,931.51,997.51Z" transform="translate(-842.12 -848.77)"/><path class="cls-2" d="M968.33,1074.46a1,1,0,0,1-.6-.2,15.85,15.85,0,0,1-4.44-5.5c-1.44-3.19.76-5.56,1.81-6.7l.31-.34a8.14,8.14,0,0,0-2.28-1.53,1.43,1.43,0,0,0-.69-.15c-1.53,0-3.76,1.42-4.49,2a1,1,0,0,1-1.49-.34,6.29,6.29,0,0,1,.29-5.85c1.32-2.63,3.92-4.93,5.28-5.16a3.54,3.54,0,0,1,2.63.83,3.84,3.84,0,0,0,2.28.87h.18a.7.7,0,0,0,.66-.34c.45-.78.1-2.59-.33-3.45a5.5,5.5,0,0,0-2.77-.42c-.76,0-1.34,0-1.36.05a1,1,0,0,1-1-1.35c.67-1.8,2.66-3.94,8.29-3.94a26.07,26.07,0,0,1,2.77.16c2.2.24,3.68,1.89,4.06,4.53.19,1.33.17,4.43-1.16,5l-.17.07c-.91.36-1.15.58-1.21.68h0a6.63,6.63,0,0,0,2.49,1.54,3.29,3.29,0,0,0,1.35.26c3.66,0,9.57-4.18,13.27-8.11,2.2-2.33,3-3.87,2.93-4.34-.08-1.37-1-2.92-2-4.72a25.18,25.18,0,0,1-3.26-7.51c-1.28-6,11.68-15.65,13.16-16.74a1,1,0,0,1,1-.1c1.9.86,18.57,8.6,19,14.53.4,5.64-2.56,8.23-5.7,11l-.66.58c-3.05,2.7-4,5-4,9.86,0,3.87,1.87,4.1,2,4.11a1,1,0,0,1,.83.6,1,1,0,0,1-.11,1,3.28,3.28,0,0,1-2.71,1.35h0a8,8,0,0,1-1.83-.28,6.38,6.38,0,0,0-1.33-.22,1.07,1.07,0,0,0-.95.46c-.1.13-.1.2-.07.28.26.94,2.81,2.44,5,3.28a1,1,0,0,1,.54,1.38c-.63,1.26-2.48,1.8-6.2,1.8-1.67,0-3.48-.11-5.08-.2-1.39-.08-2.75-.15-3.53-.14a7,7,0,0,0,1.24,1.06,1,1,0,0,1-.23,1.78,16.89,16.89,0,0,1-5.39.95c-2.71,0-4.72-.78-5.52-2.14h0s-.37-.33-2.27-.33a43.45,43.45,0,0,0-4.54.35c-.93.1-1.67.19-2.13.19s-.52,0-1,1.14c-.25.55-.57,1.23-1.06,2.09-1.91,3.35-5.82,2.68-6,2.65a1,1,0,0,1-.69-1.49.85.85,0,0,0,.09-.58c-.07-.15-.35-.31-.74-.4h0c-.49,0-1.28,2.36-1.41,5.26a1,1,0,0,1-1,1ZM962.45,1058a3.4,3.4,0,0,1,1.65.39c1.94,1.06,3.11,1.88,3.33,3a1.76,1.76,0,0,1-.37,1.48c-.12.15-.29.34-.49.55-1.19,1.28-2.28,2.69-1.46,4.52a12.62,12.62,0,0,0,2.4,3.43c.31-2.23,1.12-5.13,3.18-5.13a2.17,2.17,0,0,1,.53.07,2.83,2.83,0,0,1,2.1,1.57,2.34,2.34,0,0,1,.18.89,3.42,3.42,0,0,0,2.8-1.69c.45-.79.74-1.43,1-1.94.59-1.28,1.06-2.3,2.86-2.3.35,0,1.07-.08,1.91-.17a44.83,44.83,0,0,1,4.76-.36c2.23,0,3.46.41,4,1.32.33.56,1.66,1.16,3.8,1.16a13.86,13.86,0,0,0,3-.34,2.5,2.5,0,0,1-.81-2.52c.35-.92,1.57-.92,2.46-.92s2.06.07,3.4.15c1.57.09,3.36.2,5,.2a19.13,19.13,0,0,0,3-.19c-1.68-.84-3.82-2.18-4.25-3.74a2.24,2.24,0,0,1,.42-2,3.06,3.06,0,0,1,2.53-1.23,7.91,7.91,0,0,1,1.78.27,9.57,9.57,0,0,0,1,.2c-.86-.84-1.64-2.35-1.64-5,0-5.48,1.13-8.24,4.66-11.36l.67-.59c3.11-2.72,5.35-4.69,5-9.33-.25-3.48-10.51-9.46-17.29-12.6-5.19,3.89-12.65,10.92-11.92,14.36a23.56,23.56,0,0,0,3,6.92c1.17,2,2.18,3.76,2.29,5.61.1,1.67-1.83,4.1-3.47,5.83-4,4.21-10.27,8.74-14.73,8.74h0a5.27,5.27,0,0,1-2.17-.43c-2.56-1.15-3.69-2.21-3.66-3.46,0-1.42,1.61-2.11,2.38-2.41a6.75,6.75,0,0,0-.24-4.41,2.24,2.24,0,0,0-1.87-1.36,24.14,24.14,0,0,0-2.56-.14c-1.82,0-4,.25-5.34,1.25,2.23.07,3.51.56,4,1.52s1.25,3.67.27,5.36a2.66,2.66,0,0,1-2.29,1.33,5.67,5.67,0,0,1-3.68-1.19c-.5-.33-.84-.57-1.19-.52-.59.12-2.79,1.93-3.88,4.21a5.07,5.07,0,0,0-.58,2.8A9.67,9.67,0,0,1,962.45,1058Z" transform="translate(-842.12 -848.77)"/><path class="cls-2" d="M968.79,1075.43a1,1,0,0,1-.6-.2l-.76-.57a16.37,16.37,0,0,1-4.59-5.69c-1.57-3.47.83-6.09,1.88-7.22a14.48,14.48,0,0,0-1.82-1.12,1,1,0,0,0-.45-.09c-1.38,0-3.54,1.38-4.19,1.87l-.47.36a1,1,0,0,1-1.49-.34l-.27-.53a6.77,6.77,0,0,1,.29-6.3c1.28-2.56,4-5.15,5.65-5.43a4,4,0,0,1,3,.91,3.33,3.33,0,0,0,2,.78h.17c.21,0,.23,0,.26-.09a4.37,4.37,0,0,0-.27-2.83,6.84,6.84,0,0,0-2.39-.29c-.71,0-1.27,0-1.31,0l-.79.07a1,1,0,0,1-1-1.35l.28-.74c.73-1.95,2.84-4.27,8.76-4.27a26.59,26.59,0,0,1,2.83.16c2.44.26,4.08,2.07,4.5,5,.17,1.2.28,4.79-1.47,5.52l-.18.07c-.26.1-.45.19-.59.26a9.73,9.73,0,0,0,1.89,1,2.81,2.81,0,0,0,1.15.21c3.52,0,9.28-4.1,12.91-8,2.23-2.37,2.78-3.71,2.79-4-.07-1.23-.95-2.74-2-4.48a25.59,25.59,0,0,1-3.32-7.66c-.23-1.08-.67-7,13.35-17.25l.24-.17a1,1,0,0,1,1-.1l.27.12c17.92,8.15,19.21,13.88,19.28,14.95.42,5.88-2.63,8.56-5.87,11.39l-.66.58c-3,2.62-3.81,4.75-3.81,9.49,0,3.38,1.44,3.61,1.5,3.61l.91.06a1,1,0,0,1,.73,1.6l-.56.74a3.76,3.76,0,0,1-3.11,1.55,8.57,8.57,0,0,1-1.94-.29,6.1,6.1,0,0,0-1.22-.21.57.57,0,0,0-.5.21c.34.63,2.38,2,4.67,2.85l.52.2a1,1,0,0,1,.54,1.38l-.25.49c-.74,1.48-2.66,2.08-6.64,2.08-1.69,0-3.51-.11-5.11-.2l-2.15-.11.17.12.84.56a1,1,0,0,1-.23,1.78l-1,.33a17.41,17.41,0,0,1-5.56,1c-2.81,0-4.93-.82-5.87-2.26a5.41,5.41,0,0,0-1.92-.22,42.91,42.91,0,0,0-4.48.34c-1,.11-1.7.19-2.19.19H980a9.24,9.24,0,0,0-.42.84c-.26.56-.58,1.25-1.08,2.13a6.52,6.52,0,0,1-6.51,2.89l-.67-.12a1,1,0,0,1-.69-1.49l.36-.62a.63.63,0,0,0,0-.11l-.17-.07a12,12,0,0,0-1,4.74l0,.95a1,1,0,0,1-1,1Zm-6.34-17.89a3.89,3.89,0,0,1,1.89.45c2.07,1.13,3.32,2,3.58,3.29a2.29,2.29,0,0,1-.46,1.89c-.12.16-.3.36-.51.58-1.12,1.21-2.07,2.42-1.37,4a11.26,11.26,0,0,0,1.63,2.53c.59-3,1.78-4.53,3.5-4.53a2.66,2.66,0,0,1,.65.08,3.3,3.3,0,0,1,2.44,1.86,2.74,2.74,0,0,1,.16.52,2.86,2.86,0,0,0,1.92-1.37c.44-.77.73-1.39,1-1.9.59-1.27,1.2-2.59,3.31-2.59.31,0,1.05-.08,1.83-.17a45.49,45.49,0,0,1,4.84-.36c1.63,0,3.61.18,4.43,1.57.22.38,1.41.91,3.37.91a12.85,12.85,0,0,0,2.09-.18,2.53,2.53,0,0,1-.39-2.36c.47-1.25,2-1.25,2.93-1.25s2.13.07,3.41.15c1.58.09,3.36.2,5,.2.49,0,.93,0,1.31,0a6.48,6.48,0,0,1-3.07-3.26,2.76,2.76,0,0,1,.51-2.49,3.54,3.54,0,0,1,2.92-1.43,7.45,7.45,0,0,1,1.65.23,8.6,8.6,0,0,1-1-4.3c0-5.58,1.22-8.54,4.83-11.74l.67-.59c3-2.63,5.17-4.53,4.85-8.92-.2-2.76-8.56-8.23-16.73-12.06-5.3,4-12.12,10.71-11.49,13.67a23.17,23.17,0,0,0,3,6.78c1.21,2.08,2.24,3.87,2.36,5.83.09,1.49-1.13,3.57-3.61,6.2-4,4.28-10.48,8.89-15.09,8.9a5.77,5.77,0,0,1-2.37-.48c-1.86-.84-4-2-4-3.93,0-1.63,1.6-2.41,2.51-2.79a7,7,0,0,0-.2-3.52,1.82,1.82,0,0,0-1.59-1.36,16.16,16.16,0,0,0-6,.29,3.45,3.45,0,0,1,2.6,1.61c.44.88,1.42,3.82.25,5.83a3.19,3.19,0,0,1-2.7,1.58,6,6,0,0,1-4-1.27,2.81,2.81,0,0,0-.82-.46,9.43,9.43,0,0,0-3.48,3.82,5.68,5.68,0,0,0-.59,1.84A9.09,9.09,0,0,1,962.45,1057.54Z" transform="translate(-842.12 -848.77)"/><path class="cls-2" d="M956.77,962.33h0c-7.8,0-9.13-4.46-9.19-4.65a1,1,0,0,1,1-1.27,15.91,15.91,0,0,0,2.91-.24,15.7,15.7,0,0,0-3.18-.65c-4.49-.61-8.27-5-8.19-6.11a1,1,0,0,1,1-.95,1.14,1.14,0,0,1,.81.37s0,0,.14,0h0c.63,0,1.52-.53,1.56-1.07s-.93-.93-6-2.07a12.58,12.58,0,0,1-8.59-7,1,1,0,0,1,1.32-1.3,2.08,2.08,0,0,0,2.48-.82,2.45,2.45,0,0,0-2.17-4c-1,.11-1.17,1.45-1.18,1.5a1,1,0,0,1-.93.86c-2.52.13-3.71-1-4.27-1.95-1.41-2.37-.34-5.89.09-6.69a1,1,0,0,1-1.26-.06,5,5,0,0,1-1.19-5.81C923,917.5,926,915,928.36,915a6.33,6.33,0,0,1,2.68.7,1,1,0,0,1,0-.33c.42-2.23,3.94-3,6.82-3a13.72,13.72,0,0,1,3.74.48c3,.85,4.55,4.54,4.34,6.7a2.21,2.21,0,0,1-1.93,2.23c-1.18.11-1.4.72-1.68,4.71-.21,2.86,11,12.12,15.54,13.51a32.25,32.25,0,0,0,8.86,1.15c.63,0,1,0,1,0a1,1,0,0,1,1,.73,1,1,0,0,1-.48,1.15c-7,3.88-8.25,18.19-8.26,18.33a1,1,0,0,1-.9.92C958.31,962.29,957.52,962.33,956.77,962.33Zm-6.44-4c.91.9,2.77,2,6.44,2h0c.43,0,.88,0,1.34,0,.33-2.9,1.77-12.3,6.76-17.22a31.86,31.86,0,0,1-7.58-1.2c-4.73-1.45-17.27-11.17-17-15.57.26-3.65.45-6.28,3.49-6.56.09-.07.25-.61,0-1.59a4.74,4.74,0,0,0-2.79-3.43,11.87,11.87,0,0,0-3.18-.4,12.2,12.2,0,0,0-2.93.33,1.92,1.92,0,0,1,.86.92c.6,1.39-.21,3.82-.47,4.53a1,1,0,0,1-1.73.26c-.71-.93-3-3.36-5.22-3.39-1.38,0-3.72,1.84-4.59,4.13a3.34,3.34,0,0,0-.06,2.67c.92-1.22,2.36-2.78,3.73-2.78a1.84,1.84,0,0,1,1,.26c1.31.79,2.61,2.91,2.25,4.37a1.69,1.69,0,0,1-1.62,1.32l-.71,0h-1c-.93,0-1.12.12-1.2.26-.29.53-1,3.24-.13,4.72a2.07,2.07,0,0,0,1.73,1,3.31,3.31,0,0,1,2.72-2.34,4.53,4.53,0,0,1,1.33,8.94,10.38,10.38,0,0,0,6.24,4.25c6.15,1.4,7.79,1.77,7.59,4.2a3.34,3.34,0,0,1-2.37,2.7,9.66,9.66,0,0,0,5.3,2.91c3.42.46,4.37.94,4.84,1.61a1.82,1.82,0,0,1,.23,1.51l0,.13C953.52,957.24,953.37,958.11,950.33,958.35ZM927.4,923c-.39,0-1.6,1.28-2.54,2.67a3.58,3.58,0,0,1,2.48-.69h1.4A3.43,3.43,0,0,0,927.4,923Zm5-6.5a13.37,13.37,0,0,1,1.54,1.28,3.07,3.07,0,0,0,.06-1.37,2.27,2.27,0,0,0-.5-.06A4.81,4.81,0,0,0,932.38,916.47Z" transform="translate(-842.12 -848.77)"/><path class="cls-2" d="M956.77,962.83c-8.18,0-9.61-4.81-9.67-5l-.18-.64a1,1,0,0,1,.77-1.25c-4.4-.87-8.2-5.13-8.1-6.55l0-.47a1,1,0,0,1,1-.93h.48a1.59,1.59,0,0,1,1,.36c.46,0,1-.43,1-.61v0a32,32,0,0,0-5.6-1.52,13.13,13.13,0,0,1-8.94-7.3l-.46-1.12a1,1,0,0,1,1.32-1.3l1.11.47a1.62,1.62,0,0,0,1.89-.67,1.95,1.95,0,0,0-1.71-3.24c-.58.06-.75,1.07-.75,1.08l-.06.41a1,1,0,0,1-.93.86l-.41,0a4.77,4.77,0,0,1-4.73-2.19c-1.14-1.93-.81-4.5-.35-6.07a1,1,0,0,1-.28-.18l-.44-.39a5.5,5.5,0,0,1-1.33-6.36c1.19-3.11,4.35-5.74,6.91-5.74a6.51,6.51,0,0,1,2.28.47c.71-2.29,4.15-3.12,7.23-3.12a14.24,14.24,0,0,1,3.88.5c3.25.94,4.93,4.84,4.7,7.23a2.73,2.73,0,0,1-2.39,2.68c-.71.06-.94.27-1.23,4.25-.16,2.22,10.05,11.43,15.19,13a31.75,31.75,0,0,0,8.72,1.13c.59,0,.95,0,1,0l2.16-.1a1,1,0,0,1,.53,1.87l-1.88,1c-6.78,3.74-8,17.79-8,17.93l0,.42a1,1,0,0,1-.9.92l-.42,0C958.34,962.79,957.53,962.83,956.77,962.83Zm-5.17-4.13a10.94,10.94,0,0,0,6.06,1.11c.39-3.1,1.81-11.35,6.11-16.31a30.66,30.66,0,0,1-6.63-1.15c-4.4-1.34-17.66-11.13-17.3-16.08.26-3.62.47-6.51,3.62-7v0c.12-1.25-1-3.61-2.54-4.06a13.14,13.14,0,0,0-4.89-.25,2.4,2.4,0,0,1,.24.42c.68,1.56-.18,4.15-.46,4.9l-.31.85a1,1,0,0,1-1.73.26l-.55-.72c-.68-.88-2.87-3.16-4.83-3.19-1.19,0-3.34,1.76-4.12,3.81a3.65,3.65,0,0,0-.27,1.37c1.73-2,3.41-2.59,4.69-1.82,1.52.91,2.9,3.2,2.48,4.91a2.2,2.2,0,0,1-2.08,1.7l-.74,0h-1a3.17,3.17,0,0,0-.78.06c-.28.62-.8,3-.11,4.17a1.38,1.38,0,0,0,1,.66,3.66,3.66,0,0,1,3-2.29,5,5,0,0,1,4.4,8.08,5.13,5.13,0,0,1-2.17,1.63,9.81,9.81,0,0,0,5.5,3.49c6.14,1.4,8.21,1.87,8,4.73a3.62,3.62,0,0,1-2,2.8,8.86,8.86,0,0,0,4.49,2.27c3.22.43,4.53.89,5.18,1.81a2.29,2.29,0,0,1,.31,1.9l0,.14C953.93,957.84,953.16,958.41,951.61,958.7Zm-24.26-35.15a6.27,6.27,0,0,0-1,.94,7.72,7.72,0,0,1,1,0H928A3.28,3.28,0,0,0,927.35,923.55Z" transform="translate(-842.12 -848.77)"/></svg>