<?xml version="1.0" encoding="utf-8"?>
<!-- Generator: Adobe Illustrator 24.0.1, SVG Export Plug-In . SVG Version: 6.00 Build 0)  -->
<svg version="1.1" id="Layer_1" xmlns="http://www.w3.org/2000/svg" xmlns:xlink="http://www.w3.org/1999/xlink" x="0px" y="0px"
	 viewBox="0 0 208 195.43" style="enable-background:new 0 0 208 195.43;" xml:space="preserve">
<style type="text/css">
	.st0{fill:#EA0029;}
	.st1{fill:#FFFFFF;}
	.st2{fill:#E4032C;}
	.st3{fill:none;stroke:#EA0029;stroke-width:5;stroke-miterlimit:10;}
	.st4{fill:none;stroke:#EA0029;stroke-width:4;stroke-miterlimit:10;}
	.st5{fill:none;stroke:#EA0029;stroke-width:3;stroke-miterlimit:10;}
	.st6{fill:#020203;}
	.st7{fill:none;}
	.st8{fill:#B50E0B;}
	.st9{fill:#8E1913;}
</style>
<g>
	<g>
		<path d="M79.78,28.28h3.93v10.88c0,1.23,0.39,1.84,1.18,1.84c0.79,0,1.18-0.61,1.18-1.84V28.28h3.93v9.89
			c0,2.03-0.44,3.47-1.31,4.33c-0.8,0.77-2.07,1.16-3.8,1.16c-1.73,0-2.99-0.39-3.78-1.16c-0.89-0.86-1.33-2.3-1.33-4.33V28.28z"/>
		<path d="M91.55,43.37V28.28h5.9c1.44,0,2.54,0.44,3.3,1.33c0.7,0.82,1.06,1.92,1.06,3.32c0,3.13-1.65,4.69-4.94,4.69h-1.37v5.75
			H91.55z M95.48,31.12v3.68h0.74c1.01,0,1.52-0.61,1.52-1.84c0-1.23-0.51-1.84-1.52-1.84H95.48z"/>
		<path d="M109.75,43.37V31.62h-2.96v-3.34h9.85v3.34h-2.96v11.75H109.75z"/>
		<path d="M117.08,35.83c0-2.85,0.4-4.86,1.2-6.05c0.8-1.19,2.2-1.79,4.18-1.79s3.38,0.6,4.18,1.79c0.8,1.19,1.2,3.21,1.2,6.05
			c0,2.85-0.4,4.86-1.2,6.05c-0.8,1.19-2.2,1.79-4.18,1.79s-3.38-0.59-4.18-1.79C117.48,40.69,117.08,38.67,117.08,35.83z
			 M121.13,35.83c0,2.13,0.07,3.5,0.21,4.12c0.17,0.7,0.54,1.06,1.12,1.06c0.58,0,0.95-0.35,1.12-1.06
			c0.14-0.62,0.21-1.99,0.21-4.12c0-2.13-0.07-3.5-0.21-4.12c-0.17-0.7-0.54-1.06-1.12-1.06c-0.58,0-0.95,0.35-1.12,1.06
			C121.2,32.33,121.13,33.7,121.13,35.83z"/>
	</g>
	<g>
		<g>
			<path d="M59.18,68.2H45.95c0.1-6.18,1.22-10.59,3.35-13.23c2.69-3.35,7.45-5.02,14.3-5.02c6.54,0,11.2,1.44,13.99,4.33
				c2.23,2.33,3.35,5.78,3.35,10.34c0,6.29-2.23,11.61-6.69,15.97l-8.36,8.14c-0.96,0.96-1.62,1.65-1.98,2.05
				c-0.76,0.86-1.27,1.65-1.52,2.36h18.55v10.65H45.49c0-8.26,2.69-15.13,8.06-20.61l9.43-9.58c2.53-2.59,3.8-5.52,3.8-8.82
				c0-4-1.22-6.01-3.65-6.01c-2.64,0-3.95,2.38-3.95,7.15V68.2z"/>
			<path d="M85.48,80.9l1.22-29.88h31.25v10.65H97.5l-0.61,9.05c2.79-2.64,6.11-3.95,9.96-3.95c8.97,0,13.46,5.7,13.46,17.11
				c0,7.25-1.27,12.5-3.8,15.74c-2.74,3.5-7.35,5.25-13.84,5.25c-11.76,0-17.64-5.14-17.64-15.44v-1.75h13.23v1.82
				c0,4.36,1.29,6.54,3.88,6.54c1.52,0,2.53-0.63,3.04-1.9c0.66-1.57,0.99-4.79,0.99-9.66c0-5.42-1.34-8.14-4.03-8.14
				c-2.59,0-3.88,1.52-3.88,4.56H85.48z"/>
			<path d="M123.93,77.03c0-3.63,0.6-6.2,1.79-7.7c1.19-1.5,3.31-2.26,6.35-2.26c3.04,0,5.16,0.75,6.35,2.26
				c1.19,1.5,1.79,4.07,1.79,7.7s-0.6,6.2-1.79,7.7c-1.19,1.5-3.31,2.26-6.35,2.26c-3.04,0-5.16-0.75-6.35-2.26
				C124.53,83.22,123.93,80.66,123.93,77.03z M130.26,77.03c0,1.97,0.02,3.13,0.05,3.47c0.21,1.56,0.79,2.33,1.76,2.33
				c0.97,0,1.56-0.78,1.76-2.33c0.03-0.35,0.05-1.5,0.05-3.47c0-1.97-0.02-3.13-0.05-3.47c-0.21-1.56-0.8-2.33-1.76-2.33
				c-0.97,0-1.56,0.78-1.76,2.33C130.27,73.9,130.26,75.06,130.26,77.03z M132.12,104.51l16.44-37.44h5.7l-16.44,37.44H132.12z
				 M146.23,94.56c0-3.63,0.6-6.2,1.79-7.7c1.19-1.5,3.31-2.26,6.35-2.26c3.04,0,5.16,0.75,6.35,2.26c1.19,1.5,1.79,4.07,1.79,7.7
				c0,3.63-0.6,6.2-1.79,7.7c-1.19,1.5-3.31,2.26-6.35,2.26c-3.04,0-5.16-0.75-6.35-2.26C146.82,100.75,146.23,98.19,146.23,94.56z
				 M152.55,94.56c0,1.97,0.02,3.13,0.05,3.47c0.21,1.56,0.79,2.33,1.76,2.33c0.97,0,1.56-0.78,1.76-2.33
				c0.03-0.35,0.05-1.5,0.05-3.47c0-1.97-0.02-3.13-0.05-3.47c-0.21-1.56-0.8-2.33-1.76-2.33c-0.97,0-1.56,0.78-1.76,2.33
				C152.57,91.43,152.55,92.58,152.55,94.56z"/>
		</g>
		<g>
			<path d="M46.02,138.61c0-11.02,1.54-18.69,4.63-23c2.82-3.89,7.69-5.83,14.62-5.83c6.92,0,11.79,1.94,14.62,5.83
				c3.09,4.31,4.63,11.98,4.63,23c0,11.02-1.54,18.69-4.63,23c-2.82,3.89-7.69,5.83-14.62,5.83c-6.92,0-11.79-1.94-14.62-5.83
				C47.56,157.29,46.02,149.63,46.02,138.61z M60.87,129.26v18.69c0,3.94,0.33,6.63,1,8.07c0.67,1.44,1.8,2.16,3.39,2.16
				c1.6,0,2.73-0.72,3.39-2.16c0.67-1.44,1-4.13,1-8.07v-18.69c0-3.94-0.33-6.63-1-8.07c-0.67-1.44-1.8-2.16-3.39-2.16
				c-1.6,0-2.73,0.72-3.39,2.16C61.21,122.63,60.87,125.32,60.87,129.26z"/>
			<path d="M89.54,166.32V109.3h33.78v12.14H104.4v9.74h17.73v11.66H104.4v23.48H89.54z"/>
			<path d="M127.96,166.32V109.3h33.78v12.14h-18.93v9.74h17.73v11.66h-17.73v23.48H127.96z"/>
		</g>
	</g>
</g>
</svg>
