<?xml version="1.0" encoding="utf-8"?>
<!-- Generator: Adobe Illustrator 24.0.1, SVG Export Plug-In . SVG Version: 6.00 Build 0)  -->
<svg version="1.1" id="Layer_1" xmlns="http://www.w3.org/2000/svg" xmlns:xlink="http://www.w3.org/1999/xlink" x="0px" y="0px"
	 viewBox="0 0 232 157.33" style="enable-background:new 0 0 232 157.33;" xml:space="preserve">
<style type="text/css">
	.st0{fill:#EA0029;}
	.st1{fill:#FFFFFF;}
	.st2{fill:#E4032C;}
	.st3{fill:none;stroke:#EA0029;stroke-width:5;stroke-miterlimit:10;}
	.st4{fill:none;stroke:#EA0029;stroke-width:4;stroke-miterlimit:10;}
	.st5{fill:none;stroke:#EA0029;stroke-width:3;stroke-miterlimit:10;}
	.st6{fill:#020203;}
	.st7{fill:none;}
	.st8{fill:#B50E0B;}
	.st9{fill:#8E1913;}
</style>
<rect x="11.76" y="39" class="st0" width="197.83" height="54.66"/>
<g>
	<path class="st1" d="M27.53,66.38v-0.05c0-5.29,4.04-9.43,9.53-9.43c3.71,0,6.09,1.55,7.7,3.76l-3.78,2.93
		c-1.04-1.27-2.23-2.13-3.96-2.13c-2.54,0-4.33,2.18-4.33,4.82v0.05c0,2.72,1.79,4.84,4.33,4.84c1.89,0,3.01-0.88,4.09-2.2l3.78,2.7
		c-1.71,2.36-4.02,4.09-8.01,4.09C31.7,75.76,27.53,71.8,27.53,66.38z"/>
	<path class="st1" d="M47.06,57.26h5.03v13.73h8.78v4.4H47.06V57.26z"/>
	<path class="st1" d="M63.05,57.26h14.59v4.25h-9.61v2.77h8.71v3.96h-8.71v2.88h9.74v4.28H63.05V57.26z"/>
	<path class="st1" d="M86.62,57.13h4.85l7.72,18.27H93.8l-1.3-3.26h-7.02l-1.3,3.26h-5.26L86.62,57.13z M91.03,68.22l-2.02-5.13
		l-2.05,5.13H91.03z"/>
	<path class="st1" d="M100.95,57.26h8.58c2.77,0,4.69,0.73,5.91,1.94c1.06,1.06,1.61,2.44,1.61,4.22v0.05c0,2.8-1.48,4.64-3.73,5.6
		l4.33,6.32h-5.78l-3.65-5.49h-2.23v5.49h-5.03V57.26z M109.32,65.97c1.68,0,2.69-0.83,2.69-2.15v-0.05c0-1.45-1.06-2.18-2.72-2.18
		h-3.32v4.38H109.32z"/>
	<path class="st1" d="M125.51,57.13h4.85l7.72,18.27h-5.39l-1.3-3.26h-7.02l-1.3,3.26h-5.26L125.51,57.13z M129.91,68.22l-2.02-5.13
		l-2.05,5.13H129.91z"/>
	<path class="st1" d="M139.84,57.26h4.69l7.46,9.59v-9.59h4.97V75.4h-4.38l-7.77-9.95v9.95h-4.97V57.26z"/>
	<path class="st1" d="M159.58,66.38v-0.05c0-5.29,4.04-9.43,9.53-9.43c3.71,0,6.09,1.55,7.7,3.76l-3.78,2.93
		c-1.04-1.27-2.23-2.13-3.96-2.13c-2.54,0-4.33,2.18-4.33,4.82v0.05c0,2.72,1.79,4.84,4.33,4.84c1.89,0,3.01-0.88,4.09-2.2l3.78,2.7
		c-1.71,2.36-4.02,4.09-8.01,4.09C163.75,75.76,159.58,71.8,159.58,66.38z"/>
	<path class="st1" d="M179.11,57.26h14.59v4.25h-9.61v2.77h8.71v3.96h-8.71v2.88h9.74v4.28h-14.72V57.26z"/>
</g>
</svg>
