<?xml version="1.0" encoding="utf-8"?>
<!-- Generator: Adobe Illustrator 24.0.1, SVG Export Plug-In . SVG Version: 6.00 Build 0)  -->
<svg version="1.1" id="Layer_1" xmlns="http://www.w3.org/2000/svg" xmlns:xlink="http://www.w3.org/1999/xlink" x="0px" y="0px"
	 viewBox="0 0 208 195.43" style="enable-background:new 0 0 208 195.43;" xml:space="preserve">
<style type="text/css">
	.st0{fill:#EA0029;}
	.st1{fill:#FFFFFF;}
	.st2{fill:#E4032C;}
	.st3{fill:none;stroke:#EA0029;stroke-width:5;stroke-miterlimit:10;}
	.st4{fill:none;stroke:#EA0029;stroke-width:4;stroke-miterlimit:10;}
	.st5{fill:none;stroke:#EA0029;stroke-width:3;stroke-miterlimit:10;}
	.st6{fill:#020203;}
	.st7{fill:none;}
	.st8{fill:#B50E0B;}
	.st9{fill:#8E1913;}
</style>
<g>
	<polygon class="st0" points="29.89,175.26 99.97,160.26 82.94,154.37 	"/>
	<path class="st8" d="M17.35,131.99h0.98l64.6,22.38l17.03,5.9c0,0,8.61-9.34,7.87-9.1c-0.56,0.19-28.71-15.53-42.37-23.2
		l-43.17,3.04L17.35,131.99z"/>
	<polygon class="st0" points="20.05,115.51 18.83,131.25 22.29,131.01 65.46,127.97 144.71,122.4 144.66,121.29 83.55,104.93 	"/>
	<polygon class="st8" points="83.55,104.93 144.66,121.29 144.84,121.34 147.98,82.2 19.74,87.84 	"/>
	<path class="st0" d="M177.66,20.16L19.05,34.52l0.68,53.32l128.24-5.64l42.67-1.88L177.66,20.16z M127.88,40.4
		c0.18-0.18,0.39-0.28,0.63-0.3l8.33-0.69c0.24-0.02,0.45,0.03,0.63,0.16c0.19,0.12,0.29,0.3,0.32,0.53l0.3,2.7
		c0.02,0.2-0.02,0.39-0.14,0.55c-0.11,0.16-0.28,0.25-0.49,0.27l-3.47,0.29c-0.32,0.03-0.57,0.15-0.76,0.37
		c-0.19,0.22-0.27,0.49-0.23,0.79l0.4,3.77c0.03,0.31,0.15,0.56,0.34,0.75c0.19,0.19,0.46,0.27,0.81,0.25l3.02-0.25
		c0.21-0.02,0.4,0.03,0.58,0.15c0.17,0.12,0.27,0.28,0.3,0.48l0.31,2.8c0.03,0.23-0.04,0.43-0.2,0.59
		c-0.16,0.16-0.36,0.25-0.59,0.27l-3.2,0.27c-0.27,0.02-0.45,0.16-0.56,0.4c-0.11,0.25-0.15,0.47-0.13,0.68l1.04,9.76
		c0.02,0.21-0.03,0.39-0.15,0.54c-0.12,0.15-0.29,0.23-0.5,0.25l-3.48,0.3c-0.22,0.02-0.41-0.05-0.59-0.19
		c-0.18-0.15-0.28-0.33-0.3-0.54l-2.46-24.33C127.62,40.79,127.7,40.59,127.88,40.4z M115.44,41.43c0.18-0.18,0.39-0.28,0.63-0.3
		l8.35-0.69c0.24-0.02,0.45,0.03,0.63,0.16c0.18,0.12,0.29,0.3,0.31,0.53l0.27,2.7c0.02,0.21-0.03,0.39-0.15,0.55
		c-0.12,0.16-0.28,0.25-0.49,0.27l-3.48,0.29c-0.32,0.03-0.57,0.15-0.76,0.37c-0.19,0.22-0.27,0.49-0.25,0.79l0.35,3.78
		c0.03,0.31,0.14,0.56,0.33,0.75c0.19,0.19,0.46,0.27,0.8,0.25l3.03-0.25c0.21-0.02,0.4,0.03,0.58,0.15
		c0.17,0.12,0.27,0.28,0.29,0.49l0.27,2.81c0.02,0.23-0.04,0.43-0.2,0.59c-0.16,0.16-0.36,0.25-0.6,0.27l-3.2,0.27
		c-0.27,0.02-0.46,0.16-0.57,0.4c-0.11,0.25-0.16,0.48-0.14,0.68l0.9,9.79c0.02,0.21-0.03,0.39-0.15,0.54
		c-0.12,0.15-0.29,0.23-0.51,0.25l-3.49,0.3c-0.22,0.02-0.41-0.05-0.59-0.19c-0.18-0.15-0.27-0.33-0.29-0.54l-2.1-24.38
		C115.17,41.82,115.25,41.62,115.44,41.43z M101.06,43.83c1.13-1.24,2.7-1.95,4.7-2.11c0.97-0.08,1.88-0.01,2.74,0.21
		c0.85,0.22,1.59,0.59,2.21,1.1c0.63,0.51,1.13,1.14,1.53,1.89c0.39,0.75,0.63,1.62,0.71,2.59l1.14,13.74
		c0.08,1.01-0.01,1.94-0.28,2.78c-0.27,0.85-0.69,1.58-1.25,2.21c-0.56,0.63-1.25,1.13-2.07,1.51c-0.82,0.38-1.73,0.62-2.73,0.7
		c-1.03,0.09-2.05,0-3.05-0.27c-1-0.27-1.84-0.8-2.53-1.61c-1.04-1.21-1.6-2.59-1.71-4.17l-0.93-13.78
		C99.42,46.68,99.92,45.08,101.06,43.83z M78.5,44.47c0.19-0.17,0.43-0.27,0.72-0.29l9.51-0.79c0.29-0.02,0.52,0.03,0.7,0.15
		c0.18,0.13,0.28,0.33,0.29,0.61l0.15,2.61c0.01,0.26-0.05,0.46-0.19,0.6c-0.14,0.14-0.31,0.24-0.5,0.29
		c-0.2,0.06-0.41,0.09-0.63,0.09c-0.23,0.01-0.43,0.02-0.62,0.03c-0.29,0.02-0.57,0.09-0.85,0.19c-0.27,0.1-0.4,0.33-0.38,0.69
		l1.06,20.28c0.02,0.3-0.09,0.52-0.31,0.66c-0.23,0.14-0.46,0.22-0.71,0.24l-3.02,0.26c-0.27,0.02-0.52-0.04-0.75-0.2
		c-0.23-0.16-0.34-0.38-0.36-0.68l-0.93-20.14c-0.02-0.36-0.2-0.57-0.55-0.61c-0.35-0.05-0.72-0.07-1.12-0.06
		c-0.4,0.01-0.77-0.02-1.12-0.08c-0.35-0.06-0.53-0.28-0.55-0.67l-0.1-2.46C78.22,44.88,78.31,44.64,78.5,44.47z M63.9,49.29
		c0.23-0.78,0.58-1.5,1.04-2.15c0.46-0.65,1.03-1.19,1.71-1.62c0.68-0.43,1.45-0.68,2.33-0.75l2.06-0.17
		c0.79-0.07,1.52,0.02,2.18,0.26c0.66,0.24,1.22,0.59,1.67,1.05c0.46,0.46,0.82,1.01,1.08,1.65c0.26,0.64,0.41,1.33,0.44,2.08
		l0.06,1.63c0.01,0.29-0.07,0.53-0.23,0.74c-0.17,0.21-0.4,0.33-0.69,0.35l-2.88,0.24c-0.48,0.04-0.78-0.15-0.88-0.57
		c-0.11-0.42-0.19-0.89-0.25-1.4c-0.06-0.51-0.17-0.98-0.35-1.39c-0.17-0.41-0.58-0.59-1.22-0.54c-0.48,0.04-0.87,0.23-1.18,0.56
		c-0.31,0.34-0.46,0.74-0.44,1.2c0.02,0.54,0.23,1.14,0.64,1.8c0.41,0.66,0.89,1.31,1.45,1.95c0.56,0.65,1.14,1.26,1.73,1.82
		c0.6,0.57,1.09,1.05,1.48,1.44c0.56,0.56,1.05,1.09,1.47,1.58c0.42,0.5,0.79,1.01,1.09,1.56c0.31,0.55,0.55,1.14,0.72,1.79
		c0.17,0.65,0.28,1.41,0.31,2.26c0.04,1.04-0.09,1.98-0.4,2.8c-0.31,0.82-0.75,1.53-1.33,2.12c-0.58,0.59-1.29,1.06-2.12,1.4
		c-0.84,0.34-1.76,0.56-2.77,0.64c-0.88,0.07-1.72,0.02-2.55-0.17c-0.83-0.19-1.55-0.51-2.18-0.96c-0.63-0.45-1.13-1.01-1.52-1.7
		c-0.38-0.68-0.59-1.49-0.61-2.43l-0.05-1.85c0-0.19,0.07-0.4,0.23-0.64c0.16-0.24,0.34-0.37,0.56-0.39l3.33-0.28
		c0.43-0.04,0.68,0.17,0.75,0.62c0.07,0.45,0.12,0.95,0.17,1.51c0.04,0.56,0.17,1.06,0.39,1.5c0.22,0.44,0.69,0.63,1.43,0.57
		c0.43-0.04,0.82-0.23,1.17-0.58c0.34-0.35,0.51-0.74,0.49-1.17c-0.02-0.64-0.24-1.31-0.66-2.01c-0.42-0.7-0.91-1.38-1.49-2.03
		c-0.58-0.66-1.16-1.28-1.76-1.88c-0.6-0.6-1.11-1.13-1.53-1.6c-0.47-0.52-0.9-1.01-1.27-1.47c-0.38-0.47-0.71-0.95-1.01-1.45
		c-0.29-0.5-0.52-1.04-0.69-1.61c-0.16-0.57-0.25-1.22-0.27-1.95C63.56,50.85,63.67,50.07,63.9,49.29z M50.87,46.82
		c0.17-0.21,0.4-0.32,0.69-0.35l8.84-0.73c0.24-0.02,0.45,0.03,0.62,0.16c0.18,0.13,0.27,0.3,0.27,0.54l0.06,2.73
		c0,0.21-0.06,0.39-0.19,0.56c-0.13,0.17-0.3,0.26-0.51,0.27l-3.92,0.33c-0.29,0.02-0.55,0.16-0.77,0.39
		c-0.22,0.24-0.33,0.5-0.33,0.79l0.06,3.83c0.01,0.73,0.39,1.07,1.14,1l3.38-0.28c0.54-0.05,0.81,0.22,0.82,0.8l0.06,2.53
		c0.01,0.29-0.06,0.53-0.21,0.71c-0.14,0.18-0.37,0.29-0.66,0.31l-3.64,0.31c-0.27,0.02-0.47,0.17-0.6,0.45
		c-0.13,0.28-0.19,0.52-0.19,0.73l0.08,5.05c0.01,0.75,0.37,1.1,1.08,1.04l4.24-0.36c0.25-0.02,0.44,0.06,0.6,0.23
		c0.15,0.18,0.23,0.37,0.24,0.59l0.06,2.68c0,0.22-0.06,0.41-0.19,0.59c-0.13,0.17-0.31,0.27-0.53,0.29l-9.68,0.82
		c-0.25,0.02-0.45-0.09-0.6-0.32c-0.15-0.23-0.23-0.46-0.23-0.67l-0.24-24.28C50.62,47.27,50.7,47.02,50.87,46.82z M35.49,48.65
		c0-0.18,0.1-0.37,0.3-0.58c0.2-0.21,0.39-0.32,0.58-0.34l5.03-0.42c1.12-0.09,2.09,0.01,2.91,0.3c0.82,0.29,1.52,0.73,2.08,1.33
		c0.56,0.6,0.98,1.33,1.25,2.18c0.27,0.86,0.41,1.81,0.42,2.85c0.01,1.02-0.17,1.96-0.54,2.83c-0.37,0.87-1.01,1.65-1.93,2.33
		c0.43,0.25,0.83,0.57,1.18,0.95c0.35,0.38,0.66,0.81,0.92,1.27c0.26,0.47,0.47,0.96,0.62,1.48c0.15,0.52,0.23,1.03,0.24,1.54
		l0.02,2.53c0.01,0.8-0.1,1.59-0.31,2.35c-0.21,0.76-0.53,1.45-0.95,2.05c-0.42,0.61-0.96,1.11-1.61,1.5
		c-0.66,0.4-1.44,0.63-2.34,0.71l-7.32,0.62c-0.19,0.02-0.36-0.06-0.51-0.24c-0.15-0.18-0.22-0.35-0.22-0.51L35.49,48.65z
		 M153.81,63.9c-0.11,0.17-0.28,0.27-0.49,0.28l-9.53,0.81c-0.24,0.02-0.45-0.08-0.63-0.31c-0.18-0.23-0.28-0.45-0.3-0.66
		l-2.76-23.88c-0.03-0.28,0.03-0.52,0.17-0.72c0.15-0.2,0.37-0.32,0.65-0.34l8.7-0.72c0.24-0.02,0.45,0.03,0.63,0.16
		c0.19,0.12,0.3,0.3,0.32,0.53l0.35,2.69c0.03,0.2-0.02,0.39-0.13,0.55c-0.11,0.16-0.27,0.25-0.48,0.27l-3.86,0.32
		c-0.29,0.02-0.53,0.15-0.73,0.39c-0.2,0.23-0.28,0.49-0.24,0.77l0.46,3.76c0.09,0.72,0.5,1.05,1.24,0.99l3.33-0.28
		c0.53-0.04,0.83,0.22,0.9,0.79l0.32,2.48c0.04,0.29-0.01,0.52-0.13,0.7c-0.12,0.18-0.33,0.28-0.63,0.31l-3.59,0.3
		c-0.27,0.02-0.45,0.17-0.55,0.44c-0.1,0.27-0.14,0.51-0.11,0.72l0.6,4.96c0.09,0.74,0.48,1.08,1.18,1.02l4.18-0.35
		c0.24-0.02,0.45,0.06,0.62,0.23c0.17,0.17,0.27,0.36,0.3,0.58l0.34,2.63C153.97,63.53,153.93,63.73,153.81,63.9z M169.12,62.68
		c-0.13,0.12-0.29,0.19-0.48,0.2l-4.03,0.34c-0.13-0.15-0.25-0.38-0.36-0.7c-0.11-0.31-0.21-0.64-0.3-0.98
		c-0.09-0.34-0.17-0.68-0.24-1.01c-0.07-0.33-0.12-0.59-0.15-0.77l-0.75-5.36c-0.07-0.47-0.29-0.93-0.68-1.37
		c-0.38-0.44-0.84-0.64-1.37-0.6c-0.29,0.02-0.55,0.13-0.78,0.32c-0.23,0.19-0.32,0.43-0.29,0.72l1.26,9.25
		c0.04,0.29-0.03,0.51-0.2,0.64c-0.17,0.14-0.39,0.22-0.66,0.24l-3.06,0.26c-0.65,0.06-1.01-0.24-1.09-0.88l-3.14-23.98
		c-0.04-0.28,0.03-0.51,0.21-0.69c0.17-0.18,0.4-0.28,0.69-0.3l4.7-0.39c2.45-0.2,4.3,0.27,5.55,1.41c1.25,1.15,2.04,2.88,2.38,5.19
		c0.16,1.1,0.1,2.14-0.18,3.13c-0.28,0.99-0.85,1.85-1.71,2.57c1.13,0.59,1.95,1.31,2.46,2.17c0.51,0.87,0.86,1.88,1.03,3.06
		l0.59,4.02c0.05,0.34,0.11,0.67,0.19,0.99c0.07,0.31,0.16,0.63,0.26,0.94c0.05,0.18,0.11,0.36,0.18,0.53
		c0.07,0.17,0.11,0.35,0.14,0.53C169.3,62.39,169.25,62.56,169.12,62.68z"/>
	<path class="st0" d="M106.15,63.62c0.26,0.38,0.69,0.55,1.28,0.5c0.59-0.05,0.99-0.28,1.19-0.68c0.2-0.41,0.28-0.87,0.24-1.41
		l-1.11-14.38c-0.04-0.51-0.18-0.95-0.42-1.3c-0.24-0.35-0.66-0.5-1.27-0.45c-0.61,0.05-1,0.27-1.19,0.66
		c-0.18,0.39-0.26,0.84-0.22,1.35l1.05,14.39C105.75,62.79,105.89,63.24,106.15,63.62z"/>
	<path class="st0" d="M41.05,69.57c0.49-0.04,0.89-0.22,1.21-0.53c0.31-0.31,0.56-0.69,0.73-1.13c0.18-0.44,0.29-0.9,0.35-1.38
		c0.05-0.47,0.08-0.9,0.08-1.27c0-0.29-0.02-0.66-0.04-1.1c-0.03-0.44-0.1-0.85-0.23-1.24c-0.12-0.39-0.31-0.71-0.57-0.97
		c-0.26-0.26-0.6-0.37-1.03-0.33c-0.22,0.02-0.45,0.11-0.69,0.28c-0.24,0.17-0.37,0.37-0.37,0.61l-0.01,6.3
		c0,0.11,0.06,0.27,0.18,0.47C40.79,69.48,40.92,69.58,41.05,69.57z"/>
	<path class="st0" d="M161.36,43.57c-0.11-0.39-0.26-0.73-0.46-1.04c-0.2-0.3-0.46-0.55-0.76-0.74c-0.31-0.19-0.68-0.27-1.12-0.23
		c-0.21,0.02-0.39,0.13-0.55,0.35c-0.16,0.22-0.22,0.43-0.19,0.63l0.69,5.03c0.04,0.28,0.17,0.5,0.41,0.65
		c0.23,0.15,0.48,0.21,0.75,0.19c0.42-0.03,0.75-0.2,0.97-0.49c0.23-0.29,0.38-0.63,0.46-1.01c0.08-0.38,0.12-0.78,0.11-1.19
		c0-0.41-0.03-0.77-0.07-1.07C161.55,44.32,161.47,43.96,161.36,43.57z"/>
	<path class="st0" d="M40.87,57.28c0.24,0.17,0.47,0.24,0.69,0.22c0.67-0.06,1.12-0.32,1.35-0.78c0.23-0.47,0.34-0.99,0.34-1.56
		l0-1.64c0-0.57-0.14-1.09-0.42-1.56c-0.28-0.47-0.75-0.68-1.42-0.62c-0.16,0.01-0.35,0.11-0.56,0.3c-0.21,0.19-0.32,0.37-0.32,0.55
		l-0.01,4.54C40.5,56.93,40.63,57.12,40.87,57.28z"/>
	<path class="st1" d="M36.03,74.15l7.32-0.62c0.9-0.08,1.69-0.31,2.34-0.71c0.66-0.4,1.19-0.9,1.61-1.5
		c0.42-0.6,0.74-1.29,0.95-2.05c0.21-0.76,0.32-1.54,0.31-2.35l-0.02-2.53c0-0.51-0.08-1.02-0.24-1.54
		c-0.15-0.52-0.36-1.01-0.62-1.48c-0.26-0.47-0.57-0.89-0.92-1.27c-0.35-0.38-0.75-0.7-1.18-0.95c0.91-0.68,1.56-1.46,1.93-2.33
		c0.37-0.87,0.55-1.82,0.54-2.83c-0.01-1.04-0.15-1.99-0.42-2.85c-0.27-0.86-0.69-1.58-1.25-2.18c-0.56-0.6-1.26-1.04-2.08-1.33
		c-0.83-0.29-1.8-0.39-2.91-0.3l-5.03,0.42c-0.19,0.01-0.38,0.13-0.58,0.34c-0.2,0.21-0.3,0.4-0.3,0.58l-0.19,24.74
		c0,0.16,0.07,0.34,0.22,0.51C35.67,74.08,35.84,74.16,36.03,74.15z M40.51,52.18c0-0.18,0.11-0.37,0.32-0.55
		c0.21-0.18,0.4-0.29,0.56-0.3c0.67-0.06,1.14,0.15,1.42,0.62c0.28,0.47,0.42,0.99,0.42,1.56l0,1.64c0,0.58-0.11,1.1-0.34,1.56
		c-0.23,0.47-0.68,0.73-1.35,0.78c-0.22,0.02-0.44-0.05-0.69-0.22c-0.24-0.16-0.36-0.35-0.36-0.56L40.51,52.18z M40.49,62.5
		c0-0.24,0.12-0.44,0.37-0.61c0.24-0.16,0.47-0.26,0.69-0.28c0.43-0.04,0.78,0.07,1.03,0.33c0.26,0.26,0.45,0.58,0.57,0.97
		c0.12,0.39,0.2,0.8,0.23,1.24c0.03,0.44,0.04,0.8,0.04,1.1c0,0.38-0.03,0.8-0.08,1.27C43.29,67,43.17,67.46,43,67.91
		c-0.18,0.45-0.42,0.82-0.73,1.13c-0.31,0.31-0.72,0.49-1.21,0.53c-0.14,0.01-0.27-0.09-0.39-0.29c-0.12-0.21-0.18-0.36-0.18-0.47
		L40.49,62.5z"/>
	<path class="st1" d="M51.1,72.5c0.15,0.23,0.35,0.34,0.6,0.32l9.68-0.82c0.22-0.02,0.39-0.12,0.53-0.29
		c0.13-0.17,0.2-0.37,0.19-0.59l-0.06-2.68c-0.01-0.22-0.08-0.41-0.24-0.59c-0.15-0.17-0.35-0.25-0.6-0.23l-4.24,0.36
		c-0.71,0.06-1.07-0.29-1.08-1.04L55.8,61.9c0-0.21,0.06-0.46,0.19-0.73c0.13-0.28,0.33-0.43,0.6-0.45l3.64-0.31
		c0.3-0.03,0.52-0.13,0.66-0.31c0.14-0.18,0.21-0.42,0.21-0.71l-0.06-2.53c-0.01-0.58-0.29-0.84-0.82-0.8l-3.38,0.28
		c-0.75,0.06-1.13-0.27-1.14-1l-0.06-3.83c0-0.29,0.1-0.55,0.33-0.79c0.22-0.24,0.48-0.37,0.77-0.39L60.66,50
		c0.21-0.02,0.38-0.11,0.51-0.27c0.13-0.17,0.19-0.35,0.19-0.56l-0.06-2.73c0-0.23-0.1-0.41-0.27-0.54
		c-0.18-0.13-0.38-0.18-0.62-0.16l-8.84,0.73c-0.29,0.02-0.52,0.14-0.69,0.35c-0.17,0.21-0.25,0.45-0.25,0.73l0.24,24.28
		C50.86,72.04,50.94,72.27,51.1,72.5z"/>
	<path class="st1" d="M64.53,55.19c0.29,0.5,0.63,0.98,1.01,1.45c0.38,0.47,0.8,0.96,1.27,1.47c0.42,0.47,0.93,1,1.53,1.6
		c0.6,0.6,1.19,1.23,1.76,1.88c0.58,0.66,1.07,1.34,1.49,2.03c0.42,0.7,0.64,1.37,0.66,2.01c0.02,0.43-0.15,0.82-0.49,1.17
		c-0.34,0.35-0.73,0.55-1.17,0.58c-0.73,0.06-1.21-0.13-1.43-0.57c-0.22-0.44-0.35-0.94-0.39-1.5c-0.04-0.56-0.1-1.06-0.17-1.51
		c-0.07-0.45-0.32-0.66-0.75-0.62l-3.33,0.28c-0.22,0.02-0.4,0.15-0.56,0.39c-0.16,0.24-0.23,0.46-0.23,0.64l0.05,1.85
		c0.02,0.94,0.23,1.75,0.61,2.43c0.39,0.69,0.89,1.25,1.52,1.7c0.63,0.45,1.35,0.77,2.18,0.96c0.83,0.19,1.68,0.25,2.55,0.17
		c1.01-0.09,1.93-0.3,2.77-0.64c0.83-0.34,1.54-0.81,2.12-1.4c0.58-0.59,1.02-1.3,1.33-2.12c0.31-0.82,0.44-1.75,0.4-2.8
		c-0.03-0.85-0.14-1.61-0.31-2.26c-0.17-0.65-0.42-1.25-0.72-1.79c-0.31-0.55-0.67-1.06-1.09-1.56c-0.42-0.49-0.92-1.02-1.47-1.58
		c-0.39-0.39-0.89-0.87-1.48-1.44c-0.6-0.56-1.18-1.17-1.73-1.82c-0.56-0.64-1.04-1.3-1.45-1.95c-0.41-0.66-0.62-1.26-0.64-1.8
		c-0.01-0.47,0.13-0.87,0.44-1.2c0.31-0.34,0.7-0.52,1.18-0.56c0.64-0.05,1.04,0.13,1.22,0.54c0.17,0.41,0.29,0.88,0.35,1.39
		c0.06,0.51,0.14,0.98,0.25,1.4c0.11,0.42,0.4,0.61,0.88,0.57l2.88-0.24c0.29-0.02,0.52-0.14,0.69-0.35
		c0.17-0.21,0.24-0.46,0.23-0.74l-0.06-1.63c-0.03-0.75-0.18-1.44-0.44-2.08c-0.26-0.63-0.63-1.18-1.08-1.65
		c-0.46-0.46-1.01-0.81-1.67-1.05c-0.66-0.24-1.39-0.33-2.18-0.26l-2.06,0.17c-0.87,0.07-1.65,0.32-2.33,0.75
		c-0.68,0.43-1.25,0.97-1.71,1.62c-0.46,0.66-0.81,1.37-1.04,2.15c-0.23,0.78-0.34,1.56-0.32,2.34c0.02,0.73,0.11,1.38,0.27,1.95
		C64.01,54.15,64.24,54.69,64.53,55.19z"/>
	<path class="st1" d="M78.89,48.31c0.35,0.06,0.72,0.09,1.12,0.08c0.4-0.01,0.77,0.01,1.12,0.06c0.35,0.05,0.53,0.25,0.55,0.61
		l0.93,20.14c0.01,0.3,0.13,0.52,0.36,0.68c0.23,0.16,0.48,0.22,0.75,0.2l3.02-0.26c0.25-0.02,0.48-0.1,0.71-0.24
		c0.22-0.14,0.33-0.36,0.31-0.66L86.7,48.65c-0.02-0.36,0.11-0.59,0.38-0.69c0.27-0.1,0.56-0.16,0.85-0.19
		c0.19-0.02,0.39-0.03,0.62-0.03c0.23,0,0.44-0.04,0.63-0.09c0.2-0.06,0.36-0.15,0.5-0.29c0.14-0.14,0.2-0.34,0.19-0.6l-0.15-2.61
		c-0.02-0.28-0.11-0.48-0.29-0.61c-0.18-0.13-0.41-0.18-0.7-0.15l-9.51,0.79c-0.29,0.02-0.53,0.12-0.72,0.29
		c-0.19,0.17-0.28,0.41-0.27,0.71l0.1,2.46C78.36,48.03,78.54,48.25,78.89,48.31z"/>
	<path class="st1" d="M100.47,62.41c0.11,1.57,0.67,2.96,1.71,4.17c0.68,0.81,1.52,1.35,2.53,1.61c1,0.27,2.02,0.36,3.05,0.27
		c1-0.09,1.91-0.32,2.73-0.7c0.81-0.38,1.5-0.88,2.07-1.51c0.56-0.63,0.98-1.36,1.25-2.21c0.27-0.84,0.36-1.77,0.28-2.78
		l-1.14-13.74c-0.08-0.98-0.32-1.84-0.71-2.59c-0.39-0.75-0.9-1.38-1.53-1.89c-0.63-0.51-1.36-0.88-2.21-1.1
		c-0.85-0.22-1.76-0.29-2.74-0.21c-2,0.17-3.57,0.87-4.7,2.11c-1.14,1.25-1.64,2.85-1.51,4.8L100.47,62.41z M104.88,46.54
		c0.18-0.39,0.58-0.61,1.19-0.66c0.61-0.05,1.03,0.1,1.27,0.45c0.24,0.35,0.38,0.79,0.42,1.3l1.11,14.38c0.04,0.53-0.04,1-0.24,1.41
		c-0.2,0.41-0.6,0.63-1.19,0.68c-0.59,0.05-1.02-0.12-1.28-0.5c-0.26-0.38-0.41-0.82-0.44-1.33l-1.05-14.39
		C104.62,47.38,104.69,46.93,104.88,46.54z"/>
	<path class="st1" d="M117.58,66.97c0.18,0.15,0.37,0.21,0.59,0.19l3.49-0.3c0.22-0.02,0.39-0.1,0.51-0.25
		c0.12-0.14,0.17-0.33,0.15-0.54l-0.9-9.79c-0.02-0.21,0.03-0.44,0.14-0.68c0.11-0.25,0.3-0.38,0.57-0.4l3.2-0.27
		c0.24-0.02,0.44-0.11,0.6-0.27c0.16-0.16,0.23-0.35,0.2-0.59l-0.27-2.81c-0.02-0.21-0.12-0.37-0.29-0.49
		c-0.17-0.12-0.36-0.17-0.58-0.15l-3.03,0.25c-0.35,0.03-0.61-0.05-0.8-0.25c-0.19-0.19-0.3-0.44-0.33-0.75l-0.35-3.78
		c-0.03-0.31,0.05-0.57,0.25-0.79c0.19-0.22,0.45-0.35,0.76-0.37l3.48-0.29c0.21-0.02,0.38-0.11,0.49-0.27
		c0.12-0.16,0.16-0.35,0.15-0.55l-0.27-2.7c-0.02-0.23-0.13-0.4-0.31-0.53c-0.18-0.13-0.39-0.18-0.63-0.16l-8.35,0.69
		c-0.24,0.02-0.45,0.12-0.63,0.3c-0.18,0.18-0.26,0.39-0.24,0.61l2.1,24.38C117.31,66.65,117.41,66.83,117.58,66.97z"/>
	<path class="st1" d="M130.4,65.89c0.18,0.15,0.38,0.21,0.59,0.19l3.48-0.3c0.22-0.02,0.38-0.1,0.5-0.25
		c0.12-0.14,0.17-0.32,0.15-0.54l-1.04-9.76c-0.02-0.21,0.02-0.44,0.13-0.68c0.11-0.25,0.29-0.38,0.56-0.4l3.2-0.27
		c0.24-0.02,0.44-0.11,0.59-0.27c0.16-0.16,0.22-0.35,0.2-0.59l-0.31-2.8c-0.02-0.21-0.12-0.37-0.3-0.48
		c-0.17-0.11-0.37-0.16-0.58-0.15l-3.02,0.25c-0.34,0.03-0.61-0.05-0.81-0.25c-0.2-0.19-0.31-0.44-0.34-0.75l-0.4-3.77
		c-0.03-0.31,0.04-0.57,0.23-0.79c0.19-0.22,0.44-0.35,0.76-0.37l3.47-0.29c0.21-0.02,0.37-0.11,0.49-0.27
		c0.11-0.16,0.16-0.35,0.14-0.55l-0.3-2.7c-0.03-0.23-0.13-0.4-0.32-0.53c-0.19-0.13-0.4-0.18-0.63-0.16l-8.33,0.69
		c-0.24,0.02-0.44,0.12-0.63,0.3c-0.18,0.18-0.26,0.38-0.24,0.61l2.46,24.33C130.12,65.56,130.22,65.74,130.4,65.89z"/>
	<path class="st1" d="M153.31,60.11c-0.17-0.17-0.38-0.25-0.62-0.23l-4.18,0.35c-0.7,0.06-1.09-0.28-1.18-1.02l-0.6-4.96
		c-0.03-0.21,0.01-0.45,0.11-0.72c0.1-0.27,0.28-0.42,0.55-0.44l3.59-0.3c0.29-0.02,0.5-0.13,0.63-0.31
		c0.12-0.18,0.17-0.41,0.13-0.7l-0.32-2.48c-0.07-0.57-0.37-0.83-0.9-0.79l-3.33,0.28c-0.74,0.06-1.16-0.27-1.24-0.99l-0.46-3.76
		c-0.03-0.28,0.05-0.54,0.24-0.77c0.2-0.23,0.44-0.36,0.73-0.39l3.86-0.32c0.21-0.02,0.37-0.11,0.48-0.27
		c0.11-0.16,0.15-0.35,0.13-0.55l-0.35-2.69c-0.03-0.23-0.14-0.4-0.32-0.53c-0.19-0.12-0.4-0.18-0.63-0.16l-8.7,0.72
		c-0.29,0.02-0.51,0.14-0.65,0.34c-0.15,0.21-0.21,0.44-0.17,0.72l2.76,23.88c0.02,0.21,0.13,0.44,0.3,0.66
		c0.18,0.23,0.39,0.33,0.63,0.31l9.53-0.81c0.21-0.02,0.38-0.11,0.49-0.28c0.11-0.17,0.16-0.36,0.13-0.58l-0.34-2.63
		C153.58,60.48,153.48,60.28,153.31,60.11z"/>
	<path class="st1" d="M168.95,61.12c-0.1-0.31-0.19-0.63-0.26-0.94c-0.07-0.31-0.14-0.64-0.19-0.99l-0.59-4.02
		c-0.17-1.18-0.52-2.2-1.03-3.06c-0.51-0.86-1.34-1.59-2.46-2.17c0.86-0.72,1.43-1.58,1.71-2.57c0.28-0.99,0.34-2.03,0.18-3.13
		c-0.34-2.32-1.13-4.04-2.38-5.19c-1.25-1.15-3.1-1.61-5.55-1.41l-4.7,0.39c-0.29,0.02-0.52,0.13-0.69,0.3
		c-0.17,0.18-0.24,0.41-0.21,0.69l3.14,23.98c0.08,0.64,0.45,0.93,1.09,0.88l3.06-0.26c0.27-0.02,0.49-0.1,0.66-0.24
		c0.17-0.14,0.24-0.35,0.2-0.64l-1.26-9.25c-0.04-0.29,0.06-0.53,0.29-0.72c0.23-0.19,0.49-0.3,0.78-0.32
		c0.53-0.04,0.99,0.15,1.37,0.6c0.38,0.44,0.61,0.9,0.68,1.37l0.75,5.36c0.03,0.18,0.07,0.44,0.15,0.77
		c0.07,0.33,0.15,0.67,0.24,1.01c0.09,0.34,0.19,0.67,0.3,0.98c0.11,0.31,0.23,0.55,0.36,0.7l4.03-0.34
		c0.19-0.02,0.35-0.08,0.48-0.2c0.13-0.12,0.18-0.28,0.15-0.5c-0.03-0.19-0.07-0.36-0.14-0.53C169.06,61.48,169,61.3,168.95,61.12z
		 M161.55,46.91c-0.08,0.38-0.23,0.72-0.46,1.01c-0.23,0.29-0.55,0.45-0.97,0.49c-0.27,0.02-0.51-0.04-0.75-0.19
		c-0.23-0.15-0.37-0.36-0.41-0.65l-0.69-5.03c-0.03-0.2,0.04-0.41,0.19-0.63c0.16-0.22,0.34-0.33,0.55-0.35
		c0.44-0.04,0.82,0.04,1.12,0.23c0.31,0.19,0.56,0.44,0.76,0.74c0.2,0.3,0.36,0.65,0.46,1.04c0.11,0.39,0.19,0.75,0.23,1.08
		c0.04,0.31,0.07,0.66,0.07,1.07C161.67,46.13,161.63,46.53,161.55,46.91z"/>
</g>
</svg>
