<?xml version="1.0" encoding="utf-8"?>
<!-- Generator: Adobe Illustrator 24.0.1, SVG Export Plug-In . SVG Version: 6.00 Build 0)  -->
<svg version="1.1" id="Layer_1" xmlns="http://www.w3.org/2000/svg" xmlns:xlink="http://www.w3.org/1999/xlink" x="0px" y="0px"
	 viewBox="0 0 208 195.43" style="enable-background:new 0 0 208 195.43;" xml:space="preserve">
<style type="text/css">
	.st0{fill:#EA0029;}
	.st1{fill:#FFFFFF;}
	.st2{fill:#E4032C;}
	.st3{fill:none;stroke:#EA0029;stroke-width:5;stroke-miterlimit:10;}
	.st4{fill:none;stroke:#EA0029;stroke-width:4;stroke-miterlimit:10;}
	.st5{fill:none;stroke:#EA0029;stroke-width:3;stroke-miterlimit:10;}
	.st6{fill:#020203;}
	.st7{fill:none;}
	.st8{fill:#B50E0B;}
	.st9{fill:#8E1913;}
</style>
<g>
	<g>
		<path d="M79.78,28.28h3.93v10.88c0,1.23,0.39,1.84,1.18,1.84c0.79,0,1.18-0.61,1.18-1.84V28.28h3.93v9.89
			c0,2.03-0.44,3.47-1.31,4.33c-0.8,0.77-2.07,1.16-3.8,1.16c-1.73,0-2.99-0.39-3.78-1.16c-0.89-0.86-1.33-2.3-1.33-4.33V28.28z"/>
		<path d="M91.55,43.37V28.28h5.9c1.44,0,2.54,0.44,3.3,1.33c0.7,0.82,1.06,1.92,1.06,3.32c0,3.13-1.65,4.69-4.94,4.69h-1.37v5.75
			H91.55z M95.48,31.12v3.68h0.74c1.01,0,1.52-0.61,1.52-1.84c0-1.23-0.51-1.84-1.52-1.84H95.48z"/>
		<path d="M109.75,43.37V31.62h-2.96v-3.34h9.85v3.34h-2.96v11.75H109.75z"/>
		<path d="M117.08,35.83c0-2.85,0.4-4.86,1.2-6.05c0.8-1.19,2.2-1.79,4.18-1.79s3.38,0.6,4.18,1.79c0.8,1.19,1.2,3.21,1.2,6.05
			c0,2.85-0.4,4.86-1.2,6.05c-0.8,1.19-2.2,1.79-4.18,1.79s-3.38-0.59-4.18-1.79C117.48,40.69,117.08,38.67,117.08,35.83z
			 M121.13,35.83c0,2.13,0.07,3.5,0.21,4.12c0.17,0.7,0.54,1.06,1.12,1.06c0.58,0,0.95-0.35,1.12-1.06
			c0.14-0.62,0.21-1.99,0.21-4.12c0-2.13-0.07-3.5-0.21-4.12c-0.17-0.7-0.54-1.06-1.12-1.06c-0.58,0-0.95,0.35-1.12,1.06
			C121.2,32.33,121.13,33.7,121.13,35.83z"/>
	</g>
	<g>
		<g>
			<path d="M58.72,66.22H45.95c0.31-10.85,5.96-16.27,16.96-16.27c6.36,0,10.87,1.29,13.52,3.88c2.34,2.33,3.51,6.01,3.51,11.03
				c0,2.54-0.56,4.71-1.67,6.54c-1.32,2.18-3.27,3.57-5.85,4.18v0.15c5.68,1.01,8.52,4.94,8.52,11.79
				c0,11.56-5.85,17.34-17.56,17.34c-6.29,0-10.8-1.24-13.53-3.73c-2.89-2.64-4.33-7.12-4.33-13.46h13.23
				c0,2.79,0.32,4.88,0.95,6.27c0.63,1.39,1.71,2.09,3.23,2.09c1.93,0,3.14-0.99,3.65-2.97c0.15-0.76,0.23-2.56,0.23-5.4
				c0-2.59-0.39-4.35-1.18-5.28c-0.79-0.94-2.12-1.41-3.99-1.41h-3.57v-8.82h2.05c2.23,0,3.81-0.52,4.75-1.56
				c0.94-1.04,1.41-3.05,1.41-6.05c0-3.85-1.22-5.78-3.65-5.78c-1.4,0-2.39,0.55-2.99,1.63C59.02,61.5,58.72,63.44,58.72,66.22z"/>
			<path d="M84.95,77.4c0-10.49,1.47-17.79,4.41-21.9c2.69-3.7,7.32-5.55,13.92-5.55c6.59,0,11.23,1.85,13.92,5.55
				c2.94,4.11,4.41,11.41,4.41,21.9c0,10.49-1.47,17.79-4.41,21.9c-2.69,3.7-7.33,5.55-13.92,5.55c-6.59,0-11.23-1.85-13.92-5.55
				C86.42,95.19,84.95,87.89,84.95,77.4z M99.1,68.5V86.3c0,3.75,0.32,6.31,0.95,7.68c0.63,1.37,1.71,2.05,3.23,2.05
				c1.52,0,2.6-0.68,3.23-2.05c0.63-1.37,0.95-3.93,0.95-7.68V68.5c0-3.75-0.32-6.31-0.95-7.68c-0.63-1.37-1.71-2.05-3.23-2.05
				c-1.52,0-2.6,0.68-3.23,2.05C99.41,62.19,99.1,64.75,99.1,68.5z"/>
			<path d="M123.93,77.03c0-3.63,0.6-6.2,1.79-7.7c1.19-1.5,3.31-2.26,6.35-2.26c3.04,0,5.16,0.75,6.35,2.26
				c1.19,1.5,1.79,4.07,1.79,7.7s-0.6,6.2-1.79,7.7c-1.19,1.5-3.31,2.26-6.35,2.26c-3.04,0-5.16-0.75-6.35-2.26
				C124.53,83.22,123.93,80.66,123.93,77.03z M130.26,77.03c0,1.97,0.02,3.13,0.05,3.47c0.21,1.56,0.79,2.33,1.76,2.33
				c0.97,0,1.56-0.78,1.76-2.33c0.03-0.35,0.05-1.5,0.05-3.47c0-1.97-0.02-3.13-0.05-3.47c-0.21-1.56-0.8-2.33-1.76-2.33
				c-0.97,0-1.56,0.78-1.76,2.33C130.27,73.9,130.26,75.06,130.26,77.03z M132.12,104.51l16.44-37.44h5.7l-16.44,37.44H132.12z
				 M146.23,94.56c0-3.63,0.6-6.2,1.79-7.7c1.19-1.5,3.31-2.26,6.35-2.26c3.04,0,5.16,0.75,6.35,2.26c1.19,1.5,1.79,4.07,1.79,7.7
				c0,3.63-0.6,6.2-1.79,7.7c-1.19,1.5-3.31,2.26-6.35,2.26c-3.04,0-5.16-0.75-6.35-2.26C146.82,100.75,146.23,98.19,146.23,94.56z
				 M152.55,94.56c0,1.97,0.02,3.13,0.05,3.47c0.21,1.56,0.79,2.33,1.76,2.33c0.97,0,1.56-0.78,1.76-2.33
				c0.03-0.35,0.05-1.5,0.05-3.47c0-1.97-0.02-3.13-0.05-3.47c-0.21-1.56-0.8-2.33-1.76-2.33c-0.97,0-1.56,0.78-1.76,2.33
				C152.57,91.43,152.55,92.58,152.55,94.56z"/>
		</g>
		<g>
			<path d="M46.02,138.61c0-11.02,1.54-18.69,4.63-23c2.82-3.89,7.69-5.83,14.62-5.83c6.92,0,11.79,1.94,14.62,5.83
				c3.09,4.31,4.63,11.98,4.63,23c0,11.02-1.54,18.69-4.63,23c-2.82,3.89-7.69,5.83-14.62,5.83c-6.92,0-11.79-1.94-14.62-5.83
				C47.56,157.29,46.02,149.63,46.02,138.61z M60.87,129.26v18.69c0,3.94,0.33,6.63,1,8.07c0.67,1.44,1.8,2.16,3.39,2.16
				c1.6,0,2.73-0.72,3.39-2.16c0.67-1.44,1-4.13,1-8.07v-18.69c0-3.94-0.33-6.63-1-8.07c-0.67-1.44-1.8-2.16-3.39-2.16
				c-1.6,0-2.73,0.72-3.39,2.16C61.21,122.63,60.87,125.32,60.87,129.26z"/>
			<path d="M89.54,166.32V109.3h33.78v12.14H104.4v9.74h17.73v11.66H104.4v23.48H89.54z"/>
			<path d="M127.96,166.32V109.3h33.78v12.14h-18.93v9.74h17.73v11.66h-17.73v23.48H127.96z"/>
		</g>
	</g>
</g>
</svg>
