<?xml version="1.0" encoding="utf-8"?>
<!-- Generator: Adobe Illustrator 24.0.1, SVG Export Plug-In . SVG Version: 6.00 Build 0)  -->
<svg version="1.1" id="Layer_1" xmlns="http://www.w3.org/2000/svg" xmlns:xlink="http://www.w3.org/1999/xlink" x="0px" y="0px"
	 viewBox="0 0 5811.023 4251.968" enable-background="new 0 0 5811.023 4251.968" xml:space="preserve">
<g>
	<path fill="#FF0014" d="M1199.333,3832.635c0-1137.778,0-2275.556,0-3413.333c1137.778,0,2275.556,0,3413.333,0
		c0,1137.778,0,2275.556,0,3413.333C3474.889,3832.635,2337.111,3832.635,1199.333,3832.635z M2952.389,1773.258
		c91.405,0,179.47,0.415,267.523-0.481c12.159-0.124,26.956-3.461,35.951-10.871c76.077-62.673,151.124-126.599,226.321-190.335
		c3.599-3.05,5.708-7.857,10.571-14.777c-166.117,0-328.127-0.196-490.133,0.514c-9.202,0.04-19.912,5.657-27.319,11.81
		c-75.834,62.979-151.26,126.452-226.345,190.322c-6.543,5.566-13.924,14.889-14.024,22.557
		c-1.028,78.533-0.63,157.084-0.63,240.053c69.63,0,136.828,0,210.864,0c-50.436,42.47-94.543,79.672-138.718,116.794
		c-77.551,65.167-77.58,65.148-65.614,166.269c0.667,5.638,1.794,11.22,2.667,16.834c11.304,72.727,35.991,140.77,73.866,204.439
		c-147.684,34.996-274.002-31.115-312.946-157.169c-17.629-57.062-27.22-118.669-28.243-178.423
		c-3.424-199.992-1.316-400.079-1.416-600.13c-0.005-9.569-0.861-19.137-1.556-33.588
		c-68.773,57.802-133.129,110.75-195.758,165.667c-10.292,9.025-18.257,26.657-18.389,40.397
		c-1.327,138.411-1.606,276.847-0.339,415.259c0.433,47.251,2.448,95.038,9.958,141.576
		c28.64,177.473,118.07,310.762,286.292,385.783c29.508,13.159,50.601,11.984,75.462-11.127
		c46.458-43.187,96.597-82.416,145.213-123.281c14.979-12.591,29.986-25.146,45.932-38.516
		c59,84.884,133.467,145.353,228.281,180.186c16.159,5.937,27.502,4.717,40.871-6.771
		c62.545-53.743,126.019-106.406,189.023-159.618c4.449-3.758,7.787-8.832,14.552-16.663c-10.511,1.495-16.046,2.305-21.589,3.067
		c-157.24,21.608-271.376-54.817-307.442-206.312c-4.373-18.37-5.448-37.536-9.987-55.853c-4.226-17.049,0.98-27.569,14.415-38.683
		c75.224-62.228,149.592-125.49,224.231-188.424c7.454-6.285,14.77-12.733,22.15-19.105c-0.905-2.18-1.81-4.359-2.715-6.539
		c-86.49,0-172.981,0-260.98,0C2952.389,1935.486,2952.389,1856.328,2952.389,1773.258z M3514.07,1770.942
		c-69.881,58.878-132.364,112.436-196.049,164.523c-15.544,12.713-21.291,25.729-21.205,45.607
		c0.753,173.422,0.431,346.849,0.543,520.274c0.005,7.964,1.113,15.927,1.986,27.607c8.232-6.327,13.408-10.012,18.263-14.081
		c58.817-49.292,117.23-99.076,176.622-147.665c14.636-11.974,20.297-24.527,20.222-43.459
		c-0.68-172.475-0.389-344.954-0.383-517.431C3514.07,1797.24,3514.07,1788.162,3514.07,1770.942z M3225.143,3081.448
		c9.532,37.438,22.113,71.628,26.244,106.81c5.554,47.303,33.922,70.295,76.565,86.546c8.884-21.208,17.724-42.313,27.931-66.68
		c-13.542,1.657-22.498,2.753-33.231,4.067c-11.823-46.767-22.838-92.686-35.448-138.162c-2.414-8.707-9.477-18.896-17.222-22.819
		c-20.863-10.568-43.253-18.12-66.025-27.267c-13.21,20.23-25.419,38.929-37.611,57.6c-26.63-10.241-50.978-19.604-75.648-29.091
		c-12.996,20.382-24.5,38.424-36.269,56.882c-19.988-11.737-37.705-22.14-58.057-34.09c-9.665,23.174-18.479,44.307-28.939,69.388
		c13.599-2.144,22.48-3.544,33.37-5.261c13.822,56.725,27.983,112.573,40.751,168.738c3.491,15.355,9.815,21.103,25.232,17.516
		c13.45-3.129,27.158-5.149,42.983-8.071c-16.303-65.667-31.959-128.724-48.135-193.878c17.509-4.767,33.49-9.119,51.194-13.939
		c17.266,67.359,33.824,131.962,50.848,198.377c21.236-5.452,39.191-10.063,59.759-15.344
		c-16.792-66.977-32.823-130.922-49.406-197.068C3190.135,3091.21,3205.371,3086.961,3225.143,3081.448z M2171.617,1488.262
		c-48.532-65.163-97.596-131.041-148.484-199.368c-14.957,16.873-27.709,31.258-40.633,45.837
		c27.753,37.379,53.745,72.387,83.345,112.254c-21.376-5.021-36.347-7.494-50.604-12.153c-17.256-5.64-28.817-3.552-41.158,12.453
		c-12.834,16.643-9.149,28.092,0.863,42.505c8.763,12.615,15.932,26.338,26.765,44.546c-48.245-16.882-89.893-31.456-132.898-46.504
		c-10.264,17.176-19.76,33.068-30.805,51.55c12.672,4.989,22.038,8.987,31.613,12.396c57.947,20.633,116.449,39.836,173.685,62.274
		c24.945,9.779,39.328,7.138,51.708-17.769c6.383-12.842,8.052-21.084-0.76-32.658c-12.083-15.868-22.444-33.047-35.917-53.219
		C2101.437,1514.565,2146.21,1557.019,2171.617,1488.262z M3512.187,3068.134c3.248-9.482,6.551-16.405,7.958-23.694
		c6.587-34.121-1.378-64.097-27.756-87.675c-23.299-20.826-51.776-27.419-79.309-14.474
		c-34.621,16.278-66.661,38.049-101.413,58.385c44.47,71.731,86.625,139.726,129.374,208.678
		c19.251-10.718,35.426-19.722,52.903-29.452c-14.324-24.051-27.11-45.52-39.896-66.99c1.368-1.911,2.736-3.822,4.104-5.733
		c16.283,8.277,32.603,16.484,48.843,24.845c40.509,20.854,59.295,16.185,89.405-23.817
		C3568.94,3095.14,3541.844,3082.246,3512.187,3068.134z M3663.662,1318.854c37.157-1.86,65.142-18.44,62.295-38.656
		c-3.519-24.988-6.301-55.773-21.98-71.56c-12.6-12.686-43.929-6.771-67.198-9.134c-2.553-20.249-5.112-40.544-7.988-63.351
		c-24.89,6.228-46.645,11.671-70.776,17.709c9.562,11.074,15.421,17.86,21.591,25.006c-44.076,52.664-86.982,103.93-131.588,157.228
		c18.228,13.551,34.291,25.493,51.115,37.999c25.681-30.876,48.921-58.816,73.213-88.021c15.851,14.262,28.783,25.899,44.64,40.167
		c-44.438,33.304-58.216,73.286-37.83,124.464c22.26-5.522,43.63-10.823,64.999-16.125c0.921-2.207,1.843-4.414,2.764-6.621
		c-8.207-4.477-16.414-8.954-20.947-11.427C3635.398,1378.323,3691.211,1366.959,3663.662,1318.854z M2231.888,2892.41
		c16.553,15.52,30.131,28.25,44.919,42.115c-30.225,32.71-56.728,65.128-87.157,93.305c-32.568,30.158-21.83,63.612-18.102,99.655
		c26.178-5.072,48.686-9.433,74.377-14.411c-9.312-11.315-15.553-18.9-21.838-26.536c22.586-24.411,41.43-50.37,65.6-69.653
		c41.069-32.765,47.138-70.818,28.146-116.501c-0.363-0.872-0.306-2.137-0.921-2.654c-7.549-6.342-14.399-16.214-22.968-18.071
		c-16.988-3.679-34.938-2.92-51.927-3.96c-2.046-24.096-3.776-44.477-5.709-67.25c-26.347,5.488-49.356,10.281-72.365,15.074
		c-1.376,3.112-2.752,6.223-4.128,9.335c8.775,4.061,17.55,8.122,27.258,12.614c-47.542,51.43-90.445,97.842-135.271,146.334
		c16.516,15.339,31.373,29.136,47.457,44.073C2144.234,2987.228,2187.205,2940.745,2231.888,2892.41z M2942.953,1163.53
		c-2.978-78.095-5.419-153.646-9.505-229.107c-0.357-6.597-10.757-16.716-17.812-18.01c-13.297-2.439-27.554,0.363-43.707,1.09
		c1.413,31.827,2.695,60.708,4.083,91.955c-20.526,0-38.902,0-59.304,0c-2.391-29.455-4.79-59.004-7.372-90.809
		c-20.731,2.014-38.258,3.717-58.852,5.718c3.389,83.083,6.687,163.941,10.117,248.023c21.553-2.029,39.917-3.758,60.009-5.649
		c0-32.398,0-62.054,0-92.426c19.747,0,37.309,0,56.578,0c2.285,30.318,4.456,59.125,6.723,89.216
		C2903.53,1163.53,2921.07,1163.53,2942.953,1163.53z M3625.393,1492.575c33.195,45.012,63.858,86.59,95.412,129.377
		c16.325-11.859,31.282-22.724,47.663-34.624c-19.652-27.761-37.55-53.045-56.808-80.248c9.918-7.434,18.487-13.857,28.405-21.291
		c16.282,21.796,30.716,41.118,46.012,61.594c16.633-12.177,30.8-22.548,46.126-33.768c-15.405-22.156-29.172-41.955-43.785-62.971
		c11.126-7.533,20.075-13.592,29.424-19.923c20.235,27.546,38.598,52.544,58.404,79.507c15.99-11.945,29.89-22.33,45.65-34.103
		c-32.798-44.129-63.556-85.513-95.002-127.823C3757.428,1398.039,3692.122,1444.797,3625.393,1492.575z M3658.645,2865.632
		c-19.521,17.896-37.392,34.28-56.383,51.69c-8.848-9.641-16.266-17.723-23.86-25.997c23.928-23.952,46.357-46.403,69.992-70.062
		c-14.036-14.701-26.798-28.068-39.321-41.185c-40.261,36.827-78.434,71.746-118.117,108.045
		c56.255,59.832,111.882,118.996,170.157,180.978c39.979-36.92,78.439-72.438,117.96-108.935
		c-14.738-15.775-26.132-27.97-38.865-41.6c-25.504,23.889-48.725,45.639-72.776,68.166c-8.89-9.904-15.691-17.481-23.674-26.375
		c18.544-17.979,35.947-34.85,54.731-53.06C3684.583,2892.756,3672.405,2880.021,3658.645,2865.632z M1867.167,2758.99
		c4.425,8.036,6.733,13.1,9.803,17.649c12.039,17.832,19.196,44.201,50.802,28.188c2.864-1.451,11.262,4.883,15.185,9.296
		c8.785,9.881,15.693,21.448,24.61,31.189c11.378,12.431,16.371,23.567,4.647,39.455c-3.682,4.99-1.973,17.733,2.012,23.823
		c8.513,13.009,20.127,23.99,32.976,38.663c44.231-74.172,86.826-144.326,127.333-215.667c3.703-6.522-3.702-22.412-10.158-30.654
		c-4.973-6.348-17.891-12.254-25-10.256C2022.988,2712.141,1947.054,2735.216,1867.167,2758.99z M2702.324,3126.708
		c-16.081-50.871-63.344-84.723-116.811-85.481c-55.963-0.793-104.376,34.042-122.51,88.153
		c-17.671,52.729-0.092,108.329,44.714,141.424c42.438,31.346,96.793,34.796,135.787,7.548
		c-8.346-15.369-16.783-30.906-24.886-45.827c-55.591,7.619-85.848-4.049-97.773-36.678c-10.678-29.216,2.537-68.459,28.779-85.458
		c32.412-20.997,59.219-12.195,103.753,34.76C2669.413,3139.107,2685.938,3132.881,2702.324,3126.708z M3830.548,2444.456
		c-20.992,15.076-36.898,25.044-50.834,37.259c-5.214,4.57-8.484,14.524-8.081,21.769c1.471,26.425,5.739,52.694,7.229,79.118
		c0.975,17.298,8.031,26.823,24.303,33.453c36.756,14.976,73.331,30.721,108.67,48.723c20.023,10.2,32.302,4.281,50.577-6.101
		c52.819-30.007,68.933-69.067,42.743-124.515c-4.655-9.855-6.288-24.714-13.923-28.943c-27.683-15.332-57.326-27.122-94.823-44.152
		c-9.209,43.55-17.241,81.537-25.406,120.147c-22.83-10.23-51.647-23.143-83.105-37.239c18.482-13.563,41.063-22.102,48.227-37.715
		C3842.91,2491.473,3833.526,2469.267,3830.548,2444.456z M2198.613,1126.486c-31.585,26.289-72.217,40.604-59.762,89.952
		c-23.682,0-43.162,0-65.266,0c1.342,25.546,2.592,49.359,4.072,77.529c13.011-8.8,21.143-14.3,29.817-20.167
		c31.197,36.946,61.614,71.973,90.764,108.025c10.345,12.794,19.971,16.789,36.26,11.574c22.449-7.187,46.063-10.66,68.875-16.844
		c6.323-1.714,15.72-6.615,16.621-11.391c4.947-26.215,7.692-52.846,12.219-87.095c-29.952,24.866-53.634,44.526-79.028,65.607
		c-13.208-15.348-25.146-29.22-38.889-45.189c35.088-24.127,65.831-47.928,42.104-99.688
		c-23.623,25.136-44.764,47.631-66.497,70.757c-9.133-10.981-20.431-24.565-31.541-37.923
		C2205.078,1184.306,2205.078,1184.306,2198.613,1126.486z M2625.848,952.49c-16.375-2.849-37.771-13.245-46.012-6.806
		c-29.569,23.105-60.417,48.524-79,80.019c-8.868,15.03,2.718,50.163,15.988,68.082c14.86,20.066,42.113,30.956,62.365,44.744
		c23.508-23.212,17.748-60.215,52.521-72.712c9.39,32.641,17.804,61.892,26.649,92.639c-21.825-2.137-42.452-10.337-55.96-3.808
		c-14.632,7.073-22.626,27.878-35.944,46c39.017,5.473,69.802,20.019,100.678-17.667c51.525-62.887,54.905-61.11,22.373-140.927
		c-2.777-6.813-9.929-13.616-16.737-16.73c-49.836-22.792-49.976-22.496-72.884,27.76c-1.564,3.432-2.127,7.939-4.698,10.16
		c-4.637,4.007-10.193,8.209-15.88,9.122c-2.281,0.366-7.22-7.328-8.721-12.06c-6.475-20.415-12.124-41.091-18.435-62.925
		C2598.097,1004.846,2598.884,1004.365,2625.848,952.49z M3152.59,1198.072c9.676-29.59,18.393-56.245,27.549-84.244
		c23.272,6.479,44.601,12.418,68.101,18.96c5.893-19.592,10.925-36.321,16.345-54.341c-23.955-7.991-45.171-15.068-67.566-22.539
		c4.999-14.608,9.086-26.549,13.24-38.69c32.025,9.64,60.765,18.291,91.764,27.622c5.619-18.923,10.552-35.54,16.437-55.358
		c-51.665-15.24-100.08-29.523-150.39-44.363c-25.294,82.066-49.143,159.441-73.58,238.725
		C3114.947,1188.854,3132.132,1193.062,3152.59,1198.072z M2950.957,3092.334c-46.116-11.096-78.941-6.466-97.788,35.588
		c-6.792,15.156-17.799,28.424-28.271,44.714c-25.911-47.248-31.152-114.756-112.294-94.229c3.93,8.95,7.192,17.501,11.33,25.605
		c17.206,33.696,36.212,66.582,51.399,101.152c7.553,17.195,10.054,37.241,11.638,56.264c1.92,23.056,0.456,46.394,0.456,70.935
		c18.745,0.924,36.291,1.789,59.299,2.923c-12.268-75.368,20.07-132.387,64.824-184.643c3.064-3.578,5.492-7.71,8.133-11.64
		C2929.429,3124.5,2939.14,3109.975,2950.957,3092.334z M3847.104,2881.393c28.147-40.195,53.865-76.922,80.542-115.016
		c-16.653-11.33-29.663-20.18-43.585-29.652c-9.208,11.399-16.757,20.746-24.826,30.734
		c-37.008-25.623-73.318-50.764-110.206-76.303c7.188-11.941,13.358-22.192,20.406-33.901
		c-16.068-11.074-30.666-21.136-45.784-31.556c-27.264,38.462-53.338,75.247-80.844,114.051
		c15.792,10.975,30.893,21.47,47.045,32.696c9.088-11.289,16.596-20.614,24.896-30.923c37.147,25.822,73.166,50.86,110.088,76.526
		c-7.736,12.324-13.646,21.74-20.784,33.113C3817.769,2860.794,3830.568,2869.781,3847.104,2881.393z M3375.872,1069.728
		c11.609,7.886,21.489,14.597,33.144,22.515c-21.683,39.913-42.643,78.495-63.877,117.582
		c-12.985-6.658-22.903-11.744-35.112-18.005c-9.251,17.191-17.97,33.391-27.208,50.557c42.254,22.239,82.083,43.201,123.716,65.114
		c8.818-16.22,17.213-31.661,26.039-47.896c-12.04-8.094-21.922-14.737-32.957-22.156c21.895-40.32,42.914-79.029,63.866-117.612
		c13.099,6.607,23.022,11.612,35.326,17.818c8.525-16.063,16.241-30.6,25.687-48.399c-42.186-22.269-81.815-43.188-123.445-65.163
		C3391.968,1040.551,3384.77,1053.599,3375.872,1069.728z M1815.915,2670.014c57.914-27.817,113.621-54.575,170.072-81.69
		c10.348,20.113,19.337,37.587,29.394,57.135c18.737-9.504,35.765-18.141,51.774-26.261
		c-27.412-58.409-53.375-113.732-80.395-171.307c-18.16,9.094-36.089,18.073-54.535,27.311c9.501,20.622,17.635,38.276,26.66,57.863
		c-57.42,28.103-112.281,54.955-169.081,82.755C1798.883,2634.664,1806.89,2651.283,1815.915,2670.014z M2415.764,1225.821
		c-28.703-57.455-56.311-112.716-84.674-169.492c-19.532,11.662-35.369,21.119-51.999,31.048
		c37.327,75.43,73.251,148.026,109.045,220.357c49.345-25.347,95.941-49.281,144.069-74.003
		c-9.266-17.684-17.804-33.977-26.969-51.469C2474.77,1197.095,2446.866,1210.68,2415.764,1225.821z M2104.157,2638.266
		c29.162,37.844,56.078,72.773,84.081,109.113C2210.023,2672.104,2195.62,2639.185,2104.157,2638.266z"/>
	<path fill="#FFFFFF" d="M2952.389,1773.258c0,83.069,0,162.228,0,244.865c87.999,0,174.49,0,260.98,0
		c0.905,2.18,1.81,4.359,2.715,6.539c-7.38,6.372-14.696,12.82-22.15,19.105c-74.639,62.934-149.007,126.197-224.231,188.424
		c-13.435,11.114-18.641,21.633-14.415,38.683c4.54,18.317,5.614,37.483,9.987,55.853
		c36.065,151.495,150.201,227.92,307.442,206.312c5.543-0.761,11.078-1.572,21.589-3.067c-6.765,7.831-10.103,12.905-14.552,16.663
		c-63.004,53.212-126.478,105.874-189.023,159.618c-13.369,11.488-24.712,12.708-40.871,6.771
		c-94.814-34.834-169.281-95.303-228.281-180.186c-15.946,13.37-30.954,25.925-45.932,38.516
		c-48.616,40.865-98.755,80.094-145.213,123.281c-24.861,23.111-45.954,24.286-75.462,11.127
		c-168.223-75.021-257.652-208.31-286.292-385.783c-7.51-46.539-9.525-94.325-9.958-141.576
		c-1.267-138.412-0.988-276.848,0.339-415.259c0.132-13.74,8.096-31.372,18.389-40.397
		c62.629-54.918,126.985-107.866,195.758-165.667c0.695,14.451,1.551,24.019,1.556,33.588c0.1,200.051-2.008,400.137,1.416,600.13
		c1.023,59.754,10.614,121.361,28.243,178.423c38.944,126.054,165.262,192.165,312.946,157.169
		c-37.875-63.67-62.562-131.712-73.866-204.439c-0.873-5.614-2-11.197-2.667-16.834c-11.966-101.121-11.937-101.102,65.614-166.269
		c44.175-37.122,88.282-74.324,138.718-116.794c-74.036,0-141.234,0-210.864,0c0-82.968-0.398-161.52,0.63-240.053
		c0.1-7.668,7.481-16.991,14.024-22.557c75.084-63.871,150.511-127.344,226.345-190.322c7.408-6.152,18.117-11.769,27.319-11.81
		c162.006-0.71,324.016-0.514,490.133-0.514c-4.863,6.92-6.972,11.727-10.571,14.777
		c-75.197,63.736-150.243,127.662-226.321,190.335c-8.995,7.41-23.792,10.747-35.951,10.871
		C3131.859,1773.674,3043.794,1773.258,2952.389,1773.258z"/>
	<path fill="#FFFFFF" d="M3514.07,1770.942c0,17.22,0,26.298,0,35.376c-0.007,172.478-0.298,344.956,0.383,517.431
		c0.075,18.932-5.586,31.485-20.222,43.459c-59.392,48.588-117.805,98.373-176.622,147.665c-4.855,4.069-10.031,7.754-18.263,14.081
		c-0.872-11.681-1.98-19.644-1.986-27.607c-0.113-173.425,0.21-346.852-0.543-520.274c-0.086-19.878,5.66-32.894,21.205-45.607
		C3381.706,1883.378,3444.188,1829.82,3514.07,1770.942z"/>
	<path fill="#FFFFFF" d="M3225.143,3081.448c-19.773,5.514-35.008,9.762-51.112,14.253c16.583,66.146,32.615,130.091,49.406,197.068
		c-20.568,5.281-38.523,9.891-59.759,15.344c-17.024-66.415-33.583-131.018-50.848-198.377
		c-17.705,4.821-33.685,9.172-51.194,13.939c16.176,65.155,31.832,128.211,48.135,193.878c-15.825,2.922-29.533,4.941-42.983,8.071
		c-15.417,3.587-21.741-2.161-25.232-17.516c-12.768-56.165-26.93-112.013-40.751-168.738c-10.891,1.717-19.771,3.117-33.37,5.261
		c10.46-25.081,19.275-46.215,28.939-69.388c20.352,11.95,38.069,22.354,58.057,34.09c11.769-18.458,23.273-36.5,36.269-56.882
		c24.669,9.487,49.018,18.85,75.648,29.091c12.191-18.671,24.401-37.369,37.611-57.6c22.772,9.147,45.163,16.699,66.025,27.267
		c7.745,3.923,14.808,14.112,17.222,22.819c12.61,45.476,23.625,91.395,35.448,138.162c10.733-1.313,19.689-2.41,33.231-4.067
		c-10.207,24.367-19.047,45.472-27.931,66.68c-42.643-16.251-71.01-39.242-76.565-86.546
		C3247.256,3153.076,3234.675,3118.885,3225.143,3081.448z"/>
	<path fill="#FFFFFF" d="M2171.617,1488.262c-25.406,68.758-70.18,26.303-113.281,22.142c13.473,20.172,23.834,37.351,35.917,53.219
		c8.813,11.573,7.143,19.816,0.76,32.658c-12.379,24.906-26.762,27.548-51.708,17.769c-57.236-22.438-115.738-41.641-173.685-62.274
		c-9.575-3.409-18.941-7.407-31.613-12.396c11.045-18.483,20.541-34.375,30.805-51.55c43.005,15.048,84.654,29.622,132.898,46.504
		c-10.833-18.208-18.002-31.93-26.765-44.546c-10.012-14.413-13.697-25.861-0.863-42.505c12.341-16.005,23.902-18.093,41.158-12.453
		c14.257,4.66,29.228,7.133,50.604,12.153c-29.599-39.866-55.592-74.875-83.345-112.254c12.924-14.579,25.676-28.965,40.633-45.837
		C2074.021,1357.221,2123.085,1423.099,2171.617,1488.262z"/>
	<path fill="#FFFFFF" d="M3512.187,3068.134c29.657,14.112,56.753,27.006,84.213,40.073c-30.11,40.002-48.896,44.671-89.405,23.817
		c-16.24-8.361-32.56-16.568-48.843-24.845c-1.368,1.911-2.736,3.822-4.104,5.733c12.786,21.47,25.573,42.939,39.896,66.99
		c-17.477,9.73-33.652,18.735-52.903,29.452c-42.748-68.953-84.903-136.948-129.374-208.678
		c34.753-20.336,66.792-42.107,101.413-58.385c27.532-12.945,56.01-6.352,79.309,14.474c26.378,23.578,34.343,53.554,27.756,87.675
		C3518.738,3051.729,3515.435,3058.652,3512.187,3068.134z M3424.914,3066.338c14.326-15.978,27.299-28.28,36.831-42.835
		c2.001-3.056-9.374-21.177-13.351-20.753c-17.316,1.844-34.177,7.971-54.575,13.449
		C3405.335,3034.766,3413.093,3047.276,3424.914,3066.338z"/>
	<path fill="#FFFFFF" d="M3663.662,1318.854c27.549,48.105-28.264,59.469-37.693,97.676c4.533,2.473,12.74,6.95,20.947,11.427
		c-0.921,2.207-1.842,4.414-2.764,6.621c-21.369,5.301-42.739,10.602-64.999,16.125c-20.386-51.177-6.607-91.16,37.83-124.464
		c-15.856-14.268-28.789-25.905-44.64-40.167c-24.292,29.206-47.532,57.146-73.213,88.021
		c-16.823-12.507-32.887-24.448-51.115-37.999c44.606-53.297,87.512-104.563,131.588-157.228
		c-6.17-7.146-12.029-13.932-21.591-25.006c24.131-6.038,45.886-11.481,70.776-17.709c2.876,22.807,5.435,43.102,7.988,63.351
		c23.269,2.364,54.598-3.552,67.198,9.134c15.679,15.787,18.461,46.571,21.98,71.56
		C3728.804,1300.413,3700.819,1316.993,3663.662,1318.854z M3583.977,1271.055c57.095,18.108,67.796,15.63,86.837-19.533
		c-13.404-11.085-26.902-22.248-41.611-34.413C3613.181,1236.22,3598.86,1253.302,3583.977,1271.055z"/>
	<path fill="#FFFFFF" d="M2231.888,2892.41c-44.683,48.335-87.654,94.818-132.63,143.47c-16.084-14.937-30.94-28.735-47.457-44.073
		c44.826-48.492,87.729-94.904,135.271-146.334c-9.707-4.492-18.482-8.553-27.258-12.614c1.376-3.112,2.752-6.223,4.128-9.335
		c23.009-4.793,46.018-9.586,72.365-15.074c1.933,22.773,3.664,43.153,5.709,67.25c16.99,1.041,34.939,0.281,51.927,3.96
		c8.569,1.856,15.419,11.729,22.968,18.071c0.615,0.516,0.558,1.781,0.921,2.654c18.992,45.683,12.923,83.737-28.146,116.501
		c-24.17,19.283-43.014,45.241-65.6,69.653c6.284,7.636,12.526,15.221,21.838,26.536c-25.691,4.978-48.2,9.339-74.377,14.411
		c-3.728-36.043-14.466-69.497,18.102-99.655c30.429-28.177,56.931-60.595,87.157-93.305
		C2262.019,2920.661,2248.44,2907.93,2231.888,2892.41z"/>
	<path fill="#FFFFFF" d="M2942.953,1163.53c-21.883,0-39.422,0-59.042,0c-2.268-30.091-4.438-58.898-6.723-89.216
		c-19.269,0-36.831,0-56.578,0c0,30.371,0,60.027,0,92.426c-20.093,1.892-38.457,3.62-60.009,5.649
		c-3.43-84.082-6.728-164.939-10.117-248.023c20.594-2.001,38.121-3.704,58.852-5.718c2.582,31.805,4.981,61.355,7.372,90.809
		c20.403,0,38.778,0,59.304,0c-1.387-31.247-2.669-60.128-4.083-91.955c16.153-0.727,30.411-3.529,43.707-1.09
		c7.054,1.294,17.454,11.413,17.812,18.01C2937.533,1009.884,2939.975,1085.435,2942.953,1163.53z"/>
	<path fill="#FFFFFF" d="M3625.393,1492.575c66.729-47.778,132.035-94.536,201.502-144.274
		c31.447,42.311,62.205,83.695,95.002,127.823c-15.76,11.773-29.66,22.158-45.65,34.103c-19.806-26.963-38.17-51.961-58.404-79.507
		c-9.349,6.33-18.298,12.389-29.424,19.923c14.613,21.016,28.379,40.815,43.785,62.971c-15.326,11.22-29.493,21.591-46.126,33.768
		c-15.296-20.476-29.73-39.797-46.012-61.594c-9.917,7.434-18.487,13.857-28.405,21.291c19.257,27.203,37.156,52.487,56.808,80.248
		c-16.381,11.9-31.339,22.765-47.663,34.624C3689.251,1579.165,3658.588,1537.587,3625.393,1492.575z"/>
	<path fill="#FFFFFF" d="M3658.645,2865.632c13.76,14.389,25.938,27.124,39.845,41.666c-18.784,18.21-36.187,35.082-54.731,53.06
		c7.983,8.894,14.784,16.471,23.674,26.375c24.05-22.527,47.272-44.278,72.776-68.166c12.733,13.629,24.127,25.825,38.865,41.6
		c-39.52,36.497-77.981,72.015-117.96,108.935c-58.276-61.982-113.903-121.146-170.157-180.978
		c39.683-36.299,77.856-71.218,118.117-108.045c12.523,13.117,25.286,26.484,39.321,41.185
		c-23.635,23.658-46.063,46.109-69.992,70.062c7.594,8.274,15.012,16.356,23.86,25.997
		C3621.253,2899.912,3639.124,2883.528,3658.645,2865.632z"/>
	<path fill="#FFFFFF" d="M1867.167,2758.99c79.887-23.774,155.821-46.849,232.208-68.314c7.109-1.998,20.027,3.908,25,10.256
		c6.457,8.242,13.862,24.131,10.158,30.654c-40.507,71.34-83.102,141.494-127.333,215.667
		c-12.849-14.673-24.462-25.654-32.976-38.663c-3.985-6.09-5.694-18.833-2.012-23.823c11.724-15.888,6.731-27.024-4.647-39.455
		c-8.916-9.741-15.825-21.308-24.61-31.189c-3.923-4.413-12.321-10.747-15.185-9.296c-31.606,16.014-38.763-10.355-50.802-28.188
		C1873.9,2772.09,1871.592,2767.026,1867.167,2758.99z M1989.392,2785.537c10.045,12.056,16.965,20.362,25.014,30.022
		c10.51-15.86,19.476-29.391,32.671-49.302C2024.435,2773.825,2009.044,2778.969,1989.392,2785.537z"/>
	<path fill="#FFFFFF" d="M2702.324,3126.708c-16.386,6.173-32.911,12.398-48.948,18.44c-44.534-46.954-71.341-55.756-103.753-34.76
		c-26.241,16.999-39.457,56.242-28.779,85.458c11.926,32.629,42.183,44.297,97.773,36.678c8.103,14.921,16.54,30.458,24.886,45.827
		c-38.994,27.249-93.349,23.799-135.787-7.548c-44.806-33.095-62.385-88.696-44.714-141.424
		c18.134-54.111,66.547-88.946,122.51-88.153C2638.98,3041.985,2686.243,3075.837,2702.324,3126.708z"/>
	<path fill="#FFFFFF" d="M3830.548,2444.456c2.977,24.811,12.362,47.017,5.577,61.805c-7.163,15.613-29.745,24.152-48.227,37.715
		c31.458,14.096,60.275,27.009,83.105,37.239c8.164-38.609,16.197-76.597,25.406-120.147c37.497,17.03,67.141,28.82,94.823,44.152
		c7.636,4.229,9.269,19.087,13.923,28.943c26.19,55.448,10.076,94.509-42.743,124.515c-18.275,10.382-30.553,16.3-50.577,6.101
		c-35.34-18.001-71.914-33.747-108.67-48.723c-16.272-6.63-23.328-16.155-24.303-33.453c-1.49-26.425-5.758-52.693-7.229-79.118
		c-0.403-7.245,2.867-17.198,8.081-21.769C3793.65,2469.5,3809.556,2459.532,3830.548,2444.456z M3916.603,2534.682
		c-8.336,19.631-15.992,37.661-24.06,56.662c22.762,9.737,41.448,17.73,61.824,26.446c8.512-20.041,15.719-37.008,23.507-55.345
		C3956.534,2552.776,3937.852,2544.311,3916.603,2534.682z"/>
	<path fill="#FFFFFF" d="M2198.613,1126.486c6.465,57.82,6.465,57.82-40.251,105.146c11.111,13.359,22.408,26.942,31.541,37.923
		c21.733-23.125,42.874-45.62,66.497-70.757c23.727,51.76-7.016,75.561-42.104,99.688c13.743,15.97,25.681,29.842,38.889,45.189
		c25.394-21.082,49.075-40.741,79.028-65.607c-4.527,34.249-7.272,60.88-12.219,87.095c-0.901,4.776-10.298,9.677-16.621,11.391
		c-22.812,6.184-46.426,9.656-68.875,16.844c-16.289,5.215-25.915,1.221-36.26-11.574c-29.15-36.052-59.567-71.079-90.764-108.025
		c-8.675,5.867-16.806,11.367-29.817,20.167c-1.479-28.17-2.73-51.983-4.072-77.529c22.104,0,41.584,0,65.266,0
		C2126.396,1167.089,2167.028,1152.775,2198.613,1126.486z"/>
	<path fill="#FFFFFF" d="M2625.848,952.49c-26.964,51.875-27.751,52.356-73.696,44.892c6.311,21.834,11.96,42.51,18.435,62.925
		c1.501,4.732,6.439,12.427,8.721,12.06c5.687-0.913,11.243-5.115,15.88-9.122c2.571-2.222,3.134-6.728,4.698-10.16
		c22.907-50.256,23.048-50.552,72.884-27.76c6.809,3.114,13.96,9.917,16.737,16.73c32.532,79.818,29.152,78.041-22.373,140.927
		c-30.876,37.685-61.661,23.14-100.678,17.667c13.318-18.122,21.313-38.927,35.944-46c13.508-6.529,34.135,1.671,55.96,3.808
		c-8.845-30.748-17.26-59.998-26.649-92.639c-34.773,12.497-29.014,49.5-52.521,72.712c-20.253-13.788-47.505-24.678-62.365-44.744
		c-13.27-17.919-24.856-53.052-15.988-68.082c18.583-31.495,49.43-56.914,79-80.019
		C2588.078,939.245,2609.473,949.641,2625.848,952.49z"/>
	<path fill="#FFFFFF" d="M3152.59,1198.072c-20.458-5.01-37.644-9.218-58.1-14.228c24.437-79.285,48.286-156.659,73.58-238.725
		c50.31,14.841,98.726,29.123,150.39,44.363c-5.885,19.818-10.818,36.435-16.437,55.358c-30.999-9.331-59.739-17.982-91.764-27.622
		c-4.155,12.141-8.241,24.082-13.24,38.69c22.395,7.471,43.612,14.548,67.566,22.539c-5.42,18.02-10.452,34.749-16.345,54.341
		c-23.499-6.543-44.829-12.481-68.101-18.96C3170.983,1141.827,3162.267,1168.482,3152.59,1198.072z"/>
	<path fill="#FFFFFF" d="M2950.957,3092.334c-11.817,17.641-21.528,32.166-31.273,46.668c-2.641,3.93-5.068,8.062-8.133,11.64
		c-44.755,52.256-77.093,109.275-64.824,184.643c-23.008-1.134-40.553-1.999-59.299-2.923c0-24.541,1.464-47.879-0.456-70.935
		c-1.584-19.023-4.085-39.069-11.638-56.264c-15.187-34.571-34.193-67.457-51.399-101.152c-4.138-8.104-7.4-16.655-11.33-25.605
		c81.141-20.527,86.382,46.98,112.294,94.229c10.472-16.29,21.479-29.558,28.271-44.714
		C2872.016,3085.868,2904.841,3081.238,2950.957,3092.334z"/>
	<path fill="#FFFFFF" d="M3847.104,2881.393c-16.536-11.612-29.334-20.599-43.051-30.231c7.138-11.372,13.049-20.788,20.784-33.113
		c-36.922-25.666-72.941-50.704-110.088-76.526c-8.3,10.309-15.808,19.634-24.896,30.923c-16.153-11.226-31.253-21.72-47.045-32.696
		c27.506-38.804,53.581-75.589,80.844-114.051c15.118,10.42,29.716,20.481,45.784,31.556c-7.048,11.709-13.218,21.96-20.406,33.901
		c36.887,25.54,73.198,50.68,110.206,76.303c8.068-9.989,15.618-19.335,24.826-30.734c13.922,9.472,26.932,18.323,43.585,29.652
		C3900.969,2804.471,3875.251,2841.198,3847.104,2881.393z"/>
	<path fill="#FFFFFF" d="M3375.872,1069.728c8.897-16.129,16.095-29.178,25.179-45.645c41.629,21.975,81.258,42.894,123.445,65.163
		c-9.446,17.799-17.162,32.336-25.687,48.399c-12.304-6.206-22.227-11.211-35.326-17.818
		c-20.951,38.584-41.971,77.292-63.866,117.612c11.035,7.419,20.917,14.062,32.957,22.156
		c-8.826,16.235-17.221,31.676-26.039,47.896c-41.633-21.912-81.462-42.875-123.716-65.114
		c9.238-17.166,17.956-33.366,27.208-50.557c12.209,6.261,22.127,11.346,35.112,18.005c21.234-39.087,42.194-77.669,63.877-117.582
		C3397.361,1084.326,3387.481,1077.615,3375.872,1069.728z"/>
	<path fill="#FFFFFF" d="M1815.915,2670.014c-9.025-18.731-17.032-35.35-26.111-54.194c56.799-27.8,111.661-54.652,169.081-82.755
		c-9.025-19.588-17.158-37.241-26.66-57.863c18.446-9.238,36.375-18.217,54.535-27.311c27.02,57.575,52.984,112.898,80.395,171.307
		c-16.009,8.12-33.037,16.757-51.774,26.261c-10.057-19.548-19.047-37.022-29.394-57.135
		C1929.536,2615.438,1873.829,2642.197,1815.915,2670.014z"/>
	<path fill="#FFFFFF" d="M2415.764,1225.821c31.102-15.141,59.005-28.726,89.472-43.559c9.166,17.492,17.703,33.785,26.969,51.469
		c-48.128,24.721-94.724,48.656-144.069,74.003c-35.794-72.332-71.718-144.927-109.045-220.357
		c16.629-9.929,32.467-19.386,51.999-31.048C2359.454,1113.105,2387.061,1168.366,2415.764,1225.821z"/>
	<path fill="#FFFFFF" d="M2104.157,2638.266c91.463,0.918,105.865,33.838,84.081,109.113
		C2160.235,2711.039,2133.32,2676.111,2104.157,2638.266z"/>
	<path fill="#FF0014" d="M3424.914,3066.338c-11.821-19.062-19.579-31.571-31.095-50.14c20.398-5.477,37.259-11.605,54.575-13.449
		c3.976-0.423,15.352,17.697,13.351,20.753C3452.213,3038.058,3439.24,3050.36,3424.914,3066.338z"/>
	<path fill="#FF0014" d="M3583.977,1271.055c14.883-17.753,29.204-34.835,45.225-53.946c14.709,12.165,28.207,23.328,41.611,34.413
		C3651.773,1286.685,3641.072,1289.162,3583.977,1271.055z"/>
	<path fill="#FF0014" d="M1989.392,2785.537c19.652-6.568,35.043-11.713,57.685-19.28c-13.195,19.912-22.161,33.443-32.671,49.302
		C2006.357,2805.899,1999.437,2797.594,1989.392,2785.537z"/>
	<path fill="#FF0014" d="M3916.603,2534.682c21.249,9.628,39.931,18.094,61.271,27.763c-7.788,18.337-14.995,35.304-23.507,55.345
		c-20.376-8.716-39.062-16.709-61.824-26.446C3900.611,2572.343,3908.267,2554.313,3916.603,2534.682z"/>
</g>
</svg>
