<?xml version="1.0" encoding="utf-8"?>
<!-- Generator: Adobe Illustrator 20.1.0, SVG Export Plug-In . SVG Version: 6.00 Build 0)  -->
<svg version="1.1" id="Layer_1" xmlns="http://www.w3.org/2000/svg" xmlns:xlink="http://www.w3.org/1999/xlink" x="0px" y="0px"
	 viewBox="0 0 283.5 283.5" width="316.227766017" height="316.227766017" style="enable-background:new 0 0 283.5 283.5;" xml:space="preserve">
<style type="text/css">
	.st0{fill-rule:evenodd;clip-rule:evenodd;fill:#FFDB07;}
	.st1{fill-rule:evenodd;clip-rule:evenodd;fill:#022D59;}
	.st2{fill-rule:evenodd;clip-rule:evenodd;fill:#F8E821;}
	.st3{fill-rule:evenodd;clip-rule:evenodd;fill:#E4B93B;}
	.st4{fill-rule:evenodd;clip-rule:evenodd;fill:#DB271E;}
	.st5{fill-rule:evenodd;clip-rule:evenodd;fill:#193344;}
</style>
<g>
	<path class="st0" d="M141.8,66.5C84.8,66.5,38.5,112.9,38.5,170c0,57.1,46.3,103.5,103.3,103.5c57.1,0,103.3-46.3,103.3-103.5
		C245.2,112.9,198.9,66.5,141.8,66.5L141.8,66.5z M50.6,150.6c7.5-36.1,35.9-64.5,71.9-72.1c6.2-1.3,12.7-2,19.3-2
		c6.6,0,13.1,0.7,19.3,2c36.1,7.6,64.4,36,71.9,72.1c1.3,6.2,2,12.5,2,19.1c0,6.6-0.7,13.1-2,19.4c-7.6,36-35.9,64.3-71.9,71.8
		c-6.2,1.3-12.7,2-19.2,2c-6.6,0-13-0.7-19.2-2c-36-7.6-64.3-35.9-72-71.8c-1.3-6.3-2-12.7-2-19.4C48.6,163.2,49.3,156.8,50.6,150.6
		L50.6,150.6z M50.6,150.6c7.5-36.1,35.9-64.5,71.9-72.1c6.2-1.3,12.7-2,19.3-2c6.6,0,13.1,0.7,19.3,2c36.1,7.6,64.4,36,71.9,72.1
		c1.3,6.2,2,12.5,2,19.1c0,6.6-0.7,13.1-2,19.4c-7.6,36-35.9,64.3-71.9,71.8c-6.2,1.3-12.7,2-19.2,2c-6.6,0-13-0.7-19.2-2
		c-36-7.6-64.3-35.9-72-71.8c-1.3-6.3-2-12.7-2-19.4C48.6,163.2,49.3,156.8,50.6,150.6L50.6,150.6z M50.6,150.6"/>
	<path class="st1" d="M153.3,79.9l0,4.3c0,0.1-0.2,0.3-0.3,0.3l-9.6,0c-2.2,0-3.3,2.1-3.3,3.7c0,0.2,0.2,0.3,0.3,0.3l12.6,0
		c0.2,0,0.3,0.2,0.3,0.3l0,4.1c0,0.1-0.1,0.3-0.3,0.3l-12.3,0c-0.3,0-0.7,0.3-0.7,0.5l0,8.1c0,0.2-0.3,0.5-0.6,0.5l-4.1,0
		c-0.2,0-0.4-0.3-0.4-0.5l0-8.2c0-0.2-0.3-0.4-0.5-0.4h-3.5c-0.2,0-0.5-0.2-0.5-0.4l0-3.7c0-0.3,0.4-0.6,0.7-0.6h3.2
		c0.3,0,0.6-0.3,0.6-0.6c0-5.9,4.8-8.3,8.3-8.3l9.7,0C153.1,79.6,153.3,79.7,153.3,79.9L153.3,79.9z M153.3,79.9"/>
	<path class="st2" d="M142.4,108.4l12.2,31.3l30.7-13l-14.5,32l32.2,12l-31.8,10.9l14,31.5l-30.1-18l-13.9,36l-13.1-36.5l-29.2,18.7
		l11.7-31.4l-30.2-12.5l31.1-9.9l-12.8-32.9L130,140L142.4,108.4z M142.4,108.4"/>
	<path class="st3" d="M153.7,79.9l0,4.3c0,0.2-0.1,0.4-0.2,0.5c-0.1,0.1-0.3,0.2-0.5,0.2v0h-9.6v0c-0.9,0-1.6,0.4-2,0.9
		c-0.6,0.6-0.9,1.5-0.9,2.3l12.4,0c0.2,0,0.4,0.1,0.5,0.2c0.1,0.1,0.2,0.3,0.2,0.5l0,0l0,4.1c0,0.1-0.1,0.4-0.2,0.5
		c-0.1,0.1-0.3,0.2-0.5,0.2v0l-12.3,0h0c0,0-0.1,0-0.2,0.1c0,0-0.1,0-0.1,0h0h0l0,8.1h0v0c0,0.3-0.1,0.5-0.3,0.6
		c-0.2,0.1-0.4,0.2-0.6,0.2v0h0v0l-4.1,0v0c-0.3,0-0.5-0.1-0.6-0.3c-0.1-0.2-0.2-0.4-0.2-0.6h0v0h0l0-8.2h0c0,0,0,0,0,0c0,0,0,0,0,0
		v0h-3.5v0c-0.2,0-0.4-0.1-0.6-0.2c-0.2-0.1-0.3-0.3-0.3-0.6l0-3.7h0c0-0.3,0.2-0.5,0.4-0.7c0.2-0.2,0.5-0.3,0.7-0.3v0h0v0h3.2v0v0
		c0,0,0.1,0,0.1-0.1c0,0,0.1-0.1,0.1-0.1v0h0c0-3.1,1.3-5.3,3-6.7c1.7-1.4,3.9-2,5.7-2v0h0v0l9.7,0v0v0c0.2,0,0.4,0.1,0.5,0.2
		C153.6,79.5,153.7,79.7,153.7,79.9L153.7,79.9z M152.9,84.1l0-4.1l-9.7,0v0h0v0c-1.7,0-3.7,0.6-5.2,1.9c-1.6,1.3-2.7,3.3-2.7,6v0
		c0,0.3-0.1,0.5-0.3,0.7c-0.2,0.2-0.4,0.3-0.7,0.3l-3.2,0v0h0v0c0,0-0.1,0-0.2,0.1c0,0-0.1,0.1-0.1,0.1h0l0,3.7l0,0c0,0,0,0,0,0v0
		c0,0,0,0,0,0v0l3.5,0c0.2,0,0.4,0.1,0.6,0.2c0.2,0.2,0.3,0.4,0.3,0.6h0l0,8.2h0h0c0,0,0,0.1,0.1,0.1c0,0,0,0,0,0l0,0h0v0l4.1,0
		c0,0,0.1,0,0.1-0.1c0,0,0,0,0,0v0l0-8.1h0h0c0-0.3,0.2-0.5,0.4-0.7c0.2-0.1,0.5-0.2,0.7-0.2v0h0v0l12.2,0l0-4l-12.5,0v0v0
		c-0.2,0-0.3-0.1-0.5-0.2c-0.1-0.1-0.2-0.3-0.2-0.5c0-1,0.4-2.1,1.1-2.9c0.6-0.7,1.5-1.2,2.6-1.2H152.9z M152.9,79.9L152.9,79.9
		L152.9,79.9z M152.8,92.9L152.8,92.9L152.8,92.9C152.8,92.9,152.8,92.9,152.8,92.9L152.8,92.9z M152.8,92.8L152.8,92.8L152.8,92.8
		L152.8,92.8z M135.2,101.9C135.2,101.9,135.2,101.9,135.2,101.9L135.2,101.9z M130.8,92.7L130.8,92.7L130.8,92.7L130.8,92.7
		L130.8,92.7z M130.8,92.7L130.8,92.7L130.8,92.7C130.8,92.8,130.8,92.8,130.8,92.7L130.8,92.7z M130.8,92.7"/>
	<path class="st1" d="M76.1,158.5c0.3,0,0.6,0.2,0.6,0.5l0,4.1c0,0.2-0.2,0.4-0.4,0.4l-12.6,0c-1.1,0-2.2,0.9-2.2,2.1
		c0,0.9,1.1,2,2.1,2l8.5,0c4.5,0,6.2,4.3,6.2,7.2c-0.1,2.8-2.4,6.6-5.6,6.6l-16.1,0c-0.4,0-0.8-0.4-0.8-0.8v-3.3
		c0-0.5,0.6-0.8,1.1-0.8l11.2,0c1.9,0,3.1-0.8,3.1-1.9c0-1.3-0.9-2.5-3.1-2.5l-7.3,0c-3.9,0-6.5-3.3-6.5-6.5c0.1-4.2,3.6-7.1,7-7.1
		H76.1z M76.1,158.5"/>
	<path class="st3" d="M76.1,158.1c0.2,0,0.5,0.1,0.7,0.3c0.2,0.2,0.3,0.4,0.3,0.6l0,4l0,0v0h0c0,0.2-0.1,0.4-0.3,0.6
		c-0.2,0.1-0.4,0.2-0.6,0.2h0l-12.6,0c-0.5,0-0.9,0.2-1.2,0.5c-0.3,0.3-0.5,0.7-0.5,1.2h0v0h0c0,0.3,0.2,0.7,0.6,1.1
		c0.3,0.3,0.7,0.5,1.1,0.5h0l8.5,0c0.1,0,0.1,0,0.2,0c2.3,0.1,3.9,1.2,4.9,2.6c1,1.5,1.5,3.3,1.5,4.8h0l0,0.2c0,1.6-0.8,3.5-2,4.9
		c-1,1.2-2.4,2.1-4.1,2.1l-16.1,0c-0.3,0-0.6-0.2-0.8-0.4c-0.2-0.2-0.4-0.5-0.4-0.8v-3.3c0-0.4,0.2-0.7,0.5-0.9
		c0.3-0.2,0.6-0.3,1-0.3v0l11.2,0c0.9,0,1.5-0.2,2-0.5h0c0.4-0.3,0.7-0.6,0.7-1v-0.1c0-0.5-0.2-1-0.6-1.4c-0.4-0.4-1.1-0.6-2-0.6
		c0,0-0.1,0-0.1,0l-7.3,0h0l-0.1,0h0c-2,0-3.7-0.9-4.9-2.2c-1.2-1.3-1.9-3-1.9-4.6v-0.1c0-2.1,0.9-3.9,2.2-5.2
		c1.4-1.4,3.3-2.3,5.2-2.3H76.1z M76.3,159c-0.1,0-0.1-0.1-0.2-0.1H61.2c-1.7,0-3.4,0.8-4.6,2c-1.2,1.2-1.9,2.8-2,4.7l0,0.1
		c0,1.5,0.6,3,1.7,4.1c1.1,1.1,2.5,1.9,4.3,1.9h0.1l7.3,0c0.1,0,0.1,0,0.1,0c1.1,0,2,0.3,2.5,0.8c0.6,0.5,0.8,1.2,0.8,1.9v0.1
		c0,0.7-0.4,1.3-1.1,1.7c-0.6,0.4-1.4,0.6-2.4,0.6l-11.2,0h0c-0.2,0-0.3,0.1-0.5,0.2c-0.1,0.1-0.2,0.2-0.2,0.3h0v3.3h0
		c0,0.1,0.1,0.2,0.1,0.3c0.1,0.1,0.2,0.1,0.3,0.1v0l16.1,0c1.4,0,2.6-0.7,3.5-1.8c1.1-1.3,1.7-3,1.8-4.4l0-0.2c0-1.4-0.4-3-1.3-4.3
		c-0.9-1.3-2.3-2.3-4.3-2.3c-0.1,0-0.1,0-0.2,0l-8.4,0v0h0l0,0c-0.6,0-1.2-0.3-1.6-0.8c-0.5-0.5-0.8-1.1-0.8-1.6h0v0l0,0
		c0-0.7,0.3-1.3,0.8-1.8c0.5-0.5,1.1-0.8,1.8-0.8l12.6,0v0h0v0c0,0,0,0,0,0c0,0,0,0,0,0h0v0l0,0l0,0L76.3,159
		C76.3,159,76.3,159,76.3,159L76.3,159z M76.3,163.1C76.3,163.1,76.3,163.1,76.3,163.1L76.3,163.1z M76.3,163.1"/>
	<path class="st1" d="M214.6,173.2c0-0.3,0.3-0.6,0.6-0.6h5.4c1.1,0,2.7,0.8,2.6,2.2c0,1.3-1.4,1.9-2.5,1.9l-5.5,0
		c-0.3,0-0.6-0.2-0.6-0.5V173.2z M209.5,158.5c-0.3,0-0.7,0.3-0.7,0.6v3.5c0,0.4,0.5,0.9,0.9,0.9l10.7,0c1.3,0,2.6,1.2,2.6,2.4
		c0,1.3-1.3,2.3-2.5,2.3l-5.1,0c-0.3,0-0.6-0.4-0.6-0.7v-1.3c0-0.4-0.5-0.8-1-0.8l-4.1,0c-0.4,0-0.9,0.4-0.9,0.8l0,14.7
		c0,0.5,0.5,0.7,1,0.7l12.7,0c5.2,0,7-3.2,7.2-5.8c0.1-1.9-0.6-4.4-3.2-5.5c2-1.4,2.9-2.5,3.1-5.1c0.1-2.4-1.5-6.4-6.3-6.5
		L209.5,158.5z M209.5,158.5"/>
	<path class="st3" d="M214.2,173.2c0-0.3,0.1-0.5,0.3-0.7c0.2-0.2,0.4-0.3,0.7-0.3v0h5.4v0l0.1,0h0c0.6,0,1.3,0.2,1.9,0.6
		c0.6,0.4,1,1,1,1.8l0,0.1c0,0.7-0.4,1.2-0.9,1.6c-0.6,0.4-1.3,0.6-2,0.6l-5.5,0v0h0c-0.3,0-0.5-0.1-0.7-0.2v0
		c-0.2-0.2-0.3-0.4-0.3-0.7v0L214.2,173.2z M215.1,173.1c0,0,0,0.1,0,0.1v2.9h0c0,0,0,0.1,0,0.1h0c0,0,0.1,0,0.1,0h0v0l5.5,0
		c0.5,0,1.1-0.2,1.5-0.5c0.3-0.2,0.5-0.6,0.6-1c0,0,0,0,0-0.1c0-0.5-0.3-0.9-0.7-1.2c-0.4-0.3-1-0.5-1.5-0.5h-0.1v0h-5.4v0
		C215.2,173,215.1,173,215.1,173.1L215.1,173.1z M209.5,158.9L209.5,158.9c-0.1,0-0.2,0-0.2,0.1c-0.1,0-0.1,0.1-0.1,0.1h0v3.5h0
		c0,0.1,0.1,0.2,0.2,0.3c0.1,0.1,0.2,0.2,0.4,0.2v0h0v0l10.7,0c0.8,0,1.5,0.3,2.1,0.9c0.5,0.5,0.9,1.2,0.9,2l0,0v0l0,0
		c0,0.7-0.4,1.4-0.9,1.9c-0.5,0.5-1.2,0.8-1.9,0.8l0,0h0l0,0l-5.1,0c-0.3,0-0.5-0.1-0.7-0.3c-0.2-0.2-0.3-0.5-0.3-0.7v-1.3h0
		c0-0.1-0.1-0.2-0.2-0.3c-0.1-0.1-0.3-0.2-0.4-0.2h0v0l-4.1,0c-0.1,0-0.3,0.1-0.4,0.2c-0.1,0.1-0.1,0.1-0.1,0.2h0l0,14.7
		c0,0.1,0.1,0.2,0.1,0.2h0c0.1,0.1,0.3,0.1,0.4,0.1h0v0l12.7,0c2.2,0,3.7-0.6,4.7-1.4c1.3-1.1,1.9-2.6,2-4c0.1-1-0.1-2.1-0.7-3.2
		c-0.5-0.8-1.2-1.5-2.3-2l-0.7-0.3l0.6-0.4c0.9-0.7,1.6-1.3,2.1-2c0.5-0.7,0.7-1.6,0.8-2.8c0-0.1,0-0.1,0-0.2c0-1.1-0.4-2.5-1.2-3.7
		c-0.9-1.2-2.3-2.1-4.3-2.2c-0.1,0-0.2,0-0.3,0L209.5,158.9L209.5,158.9z M209.5,158.1L209.5,158.1L209.5,158.1l13.6,0.1
		c0.1,0,0.2,0,0.4,0c2.3,0.1,3.9,1.2,4.9,2.5c1,1.3,1.4,2.9,1.4,4.2c0,0.1,0,0.2,0,0.2c-0.1,1.4-0.4,2.4-0.9,3.2
		c-0.4,0.7-1,1.2-1.8,1.8c0.9,0.5,1.6,1.2,2,2c0.7,1.2,0.9,2.5,0.8,3.6c-0.1,1.5-0.8,3.3-2.3,4.6c-1.2,1-2.9,1.6-5.2,1.6l-12.7,0v0
		h0c-0.3,0-0.6-0.1-0.9-0.3l0,0c-0.3-0.2-0.5-0.5-0.5-0.9h0h0l0-14.7c0-0.3,0.2-0.6,0.4-0.8c0.2-0.2,0.6-0.3,0.9-0.3l4.1,0l0,0h0
		c0.3,0,0.6,0.1,0.9,0.4c0.3,0.2,0.5,0.5,0.5,0.9l0,0v1.3c0,0.1,0,0.1,0.1,0.2c0.1,0.1,0.1,0.1,0.1,0.1l5.1,0v0h0v0
		c0.5,0,1-0.2,1.4-0.6c0.4-0.3,0.6-0.8,0.6-1.3v0c0-0.5-0.3-1-0.7-1.4c-0.4-0.4-1-0.6-1.5-0.6l-10.7,0v0h0v0c-0.3,0-0.7-0.2-0.9-0.4
		c-0.3-0.2-0.4-0.6-0.4-0.9v-3.5c0-0.3,0.2-0.6,0.4-0.7C209,158.2,209.3,158.1,209.5,158.1L209.5,158.1z M209.5,158.1"/>
	<path class="st1" d="M151,236.9c0.3,0,0.7,0.4,0.7,0.7l0,3.6c0,0.3-0.3,0.7-0.6,0.7l-9.7,0c-2.4,0.6-3.1,3.9-3.1,6.9
		c0,1.7,0.9,6.2,3,6.7l9.8,0c0.4,0,0.7,0.3,0.7,0.7v3.9c0,0.4-0.2,0.5-0.6,0.5l-11.4,0c-0.9,0-1.8-0.4-2.5-0.8
		c-2.6-1.6-5.1-5.2-5.1-10.5c0-6.6,2.4-10,6.7-11.9c0.7-0.3,1.9-0.4,2.3-0.4H151z M151,236.9"/>
	<path class="st3" d="M151,236.5c0.3,0,0.5,0.1,0.8,0.4c0.2,0.2,0.4,0.5,0.4,0.7l0,3.6l0,0v0h0c0,0.3-0.1,0.5-0.3,0.7
		c-0.2,0.2-0.4,0.3-0.7,0.3l0,0h0v0l-9.7,0c-0.9,0.2-1.5,1-2,1.9c-0.6,1.3-0.8,2.9-0.8,4.6c0,1,0.3,2.9,1,4.4c0.4,0.9,1,1.7,1.7,1.9
		l9.7,0c0.3,0,0.6,0.1,0.8,0.3h0c0.2,0.2,0.3,0.5,0.3,0.8h0v3.9h0v0h0c0,0.3-0.1,0.5-0.3,0.7c-0.2,0.1-0.4,0.2-0.7,0.2h0v0l-11.4,0
		c-0.5,0-1-0.1-1.5-0.3c-0.5-0.2-0.9-0.4-1.3-0.6c-1.5-0.9-2.9-2.4-3.9-4.5c-0.8-1.7-1.4-3.9-1.4-6.3c0-3.4,0.6-5.9,1.8-7.9
		c1.2-2,2.9-3.4,5.2-4.3c0.3-0.1,0.7-0.2,1.1-0.3c0.5-0.1,1-0.2,1.3-0.2v0L151,236.5L151,236.5z M151.2,237.4
		c-0.1-0.1-0.1-0.1-0.2-0.1v0h-9.9v0c-0.2,0-0.7,0-1.2,0.1c-0.3,0.1-0.7,0.2-1,0.3c-2.1,0.9-3.7,2.2-4.8,4c-1.1,1.9-1.7,4.3-1.7,7.5
		c0,2.3,0.5,4.3,1.3,6c0.9,1.9,2.3,3.3,3.6,4.2c0.3,0.2,0.7,0.4,1.1,0.6c0.4,0.1,0.8,0.2,1.2,0.2l11.4,0v0h0c0.1,0,0.2,0,0.2,0
		c0,0,0,0,0-0.1h0v0h0v-3.9h0c0-0.1,0-0.1-0.1-0.2l0,0c0,0-0.1-0.1-0.2-0.1l-9.8,0h-0.1l0,0c-1-0.3-1.7-1.2-2.3-2.4
		c-0.7-1.6-1.1-3.7-1.1-4.7c0-1.7,0.2-3.5,0.9-4.9c0.5-1.2,1.4-2.1,2.6-2.4l0,0h0.1l9.7,0v0h0v0c0.1,0,0.1,0,0.1-0.1
		c0,0,0.1-0.1,0.1-0.2v0l0-3.6C151.3,237.6,151.3,237.5,151.2,237.4L151.2,237.4z M151.2,237.4"/>
	<path class="st1" d="M98.7,213.3l9-24.1l-57.1,0c7.6,36,36,64.3,72,71.8l0-63L98.7,213.3z M98.7,213.3"/>
	<path class="st1" d="M161.1,198.8l0,62.2c36-7.6,64.3-35.9,71.9-71.8l-58.6,0l10.6,23.9L161.1,198.8z M161.1,198.8"/>
	<path class="st1" d="M174.3,150.7l58.7,0c-7.5-36.1-35.9-64.5-71.9-72.1l0,58.4l24.1-10.3L174.3,150.7z M174.3,150.7"/>
	<path class="st1" d="M122.5,136.8l0-58.2c-36,7.6-64.4,36-71.9,72.1l57.3,0l-9.3-24L122.5,136.8z M122.5,136.8"/>
	<path class="st4" d="M107.9,150.7l-57.3,0c-1.3,6.2-2,12.6-2,19.2c0,6.6,0.7,13.1,2,19.4l57.1,0l2.7-7.3l-30.2-12.5l31.1-9.9
		L107.9,150.7z M77.1,159l0,4l0,0v0h0c0,0.2-0.1,0.4-0.3,0.6c-0.2,0.1-0.4,0.2-0.6,0.2h0l-12.6,0c-0.5,0-0.9,0.2-1.2,0.5
		c-0.3,0.3-0.5,0.7-0.5,1.2h0v0h0c0,0.3,0.2,0.7,0.6,1.1c0.3,0.3,0.7,0.5,1.1,0.5h0l8.5,0c0.1,0,0.1,0,0.2,0
		c2.3,0.1,3.9,1.2,4.9,2.6c1,1.5,1.5,3.3,1.5,4.8h0l0,0.2c0,1.6-0.8,3.5-2,4.9c-1,1.2-2.4,2.1-4.1,2.1l-16.1,0
		c-0.3,0-0.6-0.2-0.8-0.4c-0.2-0.2-0.4-0.5-0.4-0.8v-3.3c0-0.4,0.2-0.7,0.5-0.9c0.3-0.2,0.6-0.3,1-0.3v0l11.2,0c0.9,0,1.5-0.2,2-0.5
		h0c0.4-0.3,0.7-0.6,0.7-1v-0.1c0-0.5-0.2-1-0.6-1.4c-0.4-0.4-1.1-0.6-2-0.6H68l-7.3,0h0l-0.1,0h0c-2,0-3.7-0.9-4.9-2.2
		c-1.2-1.3-1.9-3-1.9-4.6v-0.1c0-2.1,0.9-3.9,2.2-5.2c1.4-1.4,3.3-2.3,5.2-2.3h14.8c0.2,0,0.5,0.1,0.7,0.3
		C77,158.6,77.1,158.8,77.1,159L77.1,159z M77.1,159"/>
	<path class="st4" d="M122.5,78.6l0,58.2l7.5,3.2l12.4-31.6l12.2,31.3l6.5-2.8l0-58.4c-6.2-1.3-12.7-2-19.3-2
		C135.2,76.6,128.7,77.3,122.5,78.6L122.5,78.6z M153.4,93.4c-0.1,0.1-0.3,0.2-0.5,0.2v0l-12.3,0c-0.1,0-0.1,0-0.2,0.1
		c0,0-0.1,0-0.1,0l0,8.1l0,0c0,0.3-0.1,0.5-0.3,0.6c-0.2,0.1-0.4,0.2-0.6,0.2l-4.1,0v0c-0.3,0-0.5-0.1-0.6-0.3
		c-0.1-0.2-0.2-0.4-0.2-0.6l0-8.2h0c0,0,0,0,0,0c0,0,0,0,0,0v0h-3.5v0c-0.2,0-0.4-0.1-0.6-0.2c-0.2-0.1-0.3-0.3-0.3-0.6l0-3.7h0
		c0-0.3,0.2-0.5,0.4-0.7c0.2-0.2,0.5-0.3,0.7-0.3h3.2c0,0,0.1,0,0.1-0.1c0,0,0.1-0.1,0.1-0.1v0h0c0-3.1,1.3-5.3,3-6.7
		c1.7-1.4,3.9-2,5.7-2v0h0v0l9.7,0c0.2,0,0.4,0.1,0.5,0.2c0.1,0.1,0.2,0.3,0.2,0.5l0,4.3c0,0.2-0.1,0.4-0.2,0.5
		c-0.1,0.1-0.3,0.2-0.5,0.2v0h-9.6v0c-0.9,0-1.6,0.4-2,0.9c-0.6,0.6-0.9,1.5-0.9,2.3l12.4,0c0.2,0,0.4,0.1,0.5,0.2
		c0.1,0.1,0.2,0.3,0.2,0.5l0,0l0,4.1C153.6,93,153.5,93.2,153.4,93.4L153.4,93.4z M153.4,93.4"/>
	<path class="st4" d="M233,150.7l-58.7,0l-3.6,8l32.2,12l-31.8,10.9l3.4,7.6l58.6,0c1.3-6.2,2-12.7,2-19.4
		C235,163.3,234.3,156.9,233,150.7L233,150.7z M208.3,180.8l0-14.7h0c0-0.3,0.2-0.6,0.4-0.8c0.2-0.2,0.6-0.3,0.9-0.3l4.1,0l0,0h0
		c0.3,0,0.6,0.1,0.9,0.4c0.3,0.2,0.5,0.5,0.5,0.9l0,0v1.3c0,0.1,0,0.1,0.1,0.2c0.1,0.1,0.1,0.1,0.1,0.1l5.1,0v0h0v0
		c0.5,0,1-0.2,1.4-0.6c0.4-0.3,0.6-0.8,0.6-1.3h0v0h0c0-0.5-0.3-1-0.7-1.4c-0.4-0.4-1-0.6-1.5-0.6l-10.7,0c-0.3,0-0.7-0.2-0.9-0.4
		c-0.3-0.2-0.4-0.6-0.4-0.9l0,0v-3.5l0,0c0-0.3,0.2-0.6,0.4-0.7c0.2-0.2,0.5-0.3,0.7-0.3h0l0,0l13.6,0.1l0.4,0
		c2.3,0.1,3.9,1.2,4.9,2.5c1,1.3,1.4,2.9,1.4,4.2l0,0.2c-0.1,1.4-0.4,2.4-0.9,3.2c-0.4,0.7-1,1.2-1.8,1.8c0.9,0.5,1.6,1.2,2,2
		c0.7,1.2,0.9,2.5,0.8,3.6c-0.1,1.5-0.8,3.3-2.3,4.6c-1.2,1-2.9,1.6-5.2,1.6l-12.7,0v0h0c-0.3,0-0.6-0.1-0.9-0.3
		C208.5,181.4,208.3,181.2,208.3,180.8L208.3,180.8z M208.3,180.8"/>
	<path class="st4" d="M141,231.2l-13.1-36.5l-5.4,3.4l0,63c6.2,1.3,12.6,2,19.2,2c6.6,0,13-0.7,19.2-2l0-62.2l-6.2-3.7L141,231.2z
		 M141.1,236.5h9.9v0c0.3,0,0.5,0.1,0.8,0.4c0.2,0.2,0.4,0.5,0.4,0.7l0,3.6l0,0v0h0c0,0.3-0.1,0.5-0.3,0.7c-0.2,0.2-0.4,0.3-0.7,0.3
		l0,0h0v0l-9.7,0c-0.9,0.2-1.5,1-2,1.9c-0.6,1.3-0.8,2.9-0.8,4.6c0,1,0.3,2.9,1,4.4c0.4,0.9,1,1.7,1.7,1.9l9.7,0
		c0.3,0,0.6,0.1,0.8,0.3h0c0.2,0.2,0.3,0.5,0.3,0.8h0v3.9h0v0h0c0,0.3-0.1,0.5-0.3,0.7c-0.2,0.1-0.4,0.2-0.7,0.2h0v0l-11.4,0
		c-0.5,0-1-0.1-1.5-0.3c-0.5-0.2-0.9-0.4-1.3-0.6c-1.5-0.9-2.9-2.4-3.9-4.5c-0.8-1.7-1.4-3.9-1.4-6.3c0-3.4,0.6-5.9,1.8-7.9
		c1.2-2,2.9-3.4,5.2-4.3c0.3-0.1,0.7-0.2,1.1-0.3C140.3,236.5,140.9,236.5,141.1,236.5L141.1,236.5z M141.1,236.5"/>
	<path class="st1" d="M141.8,63.6C83.2,63.6,35.6,111.3,35.6,170s47.6,106.4,106.2,106.4c56.3,0,102.3-43.8,106-99.3v-14.2
		C244.2,107.5,198.1,63.6,141.8,63.6L141.8,63.6z M38.5,170c0-57.1,46.3-103.5,103.3-103.5c57.1,0,103.3,46.3,103.3,103.5
		c0,57.1-46.3,103.5-103.3,103.5C84.8,273.5,38.5,227.1,38.5,170L38.5,170z M38.5,170"/>
	<path class="st4" d="M215,173.2v2.9h0c0,0,0,0.1,0,0.1h0c0,0,0.1,0,0.1,0h0v0l5.5,0c0.5,0,1.1-0.2,1.5-0.5c0.3-0.2,0.5-0.6,0.6-1
		c0,0,0,0,0-0.1c0-0.5-0.3-0.9-0.7-1.2c-0.4-0.3-1-0.5-1.5-0.5h-0.1v0h-5.4v0c-0.1,0-0.1,0-0.1,0.1C215,173.1,215,173.1,215,173.2
		L215,173.2z M215,173.2"/>
	<path class="st2" d="M171.5,21.1L167.7,11l-4,10l-10.2-4l4.1,10.3l-10.5,3.3l10.2,4.3l-4.1,10.2l9.9-6.4l4.1,11.9l4.6-11.4l9.9,5.9
		l-4.5-10.4l10.1-3.6L177,27l4.6-10.2L171.5,21.1z M171.5,21.1"/>
	<path class="st5" d="M157.6,27.3L153.5,17l10.2,4l4-10l3.8,10.1l10.1-4.3L177,27l10.3,4.2l-10.1,3.6l4.5,10.4l-9.9-5.9l-4.6,11.4
		l-4.1-11.9l-9.9,6.4l4.1-10.2l-10.2-4.3L157.6,27.3z M150.8,14.4l4.9,12l-12.7,4l12.4,5.4l-5.3,13.1l12.2-7.9l4.7,13.8l5.5-13.4
		l12.2,7.3l-5.6-13.1l12.4-4.3l-12.6-5l5.5-12.2l-12.2,5l-4.6-12l-4.7,12.1L150.8,14.4z M150.8,14.4"/>
	<path class="st2" d="M116.8,21.1L113,11l-4,10l-10.2-4l4.1,10.3l-10.5,3.3l10.2,4.3l-4.1,10.2l9.9-6.4l4.1,11.9l4.6-11.4l9.9,5.9
		l-4.5-10.4l10.1-3.6L122.3,27l4.6-10.2L116.8,21.1z M116.8,21.1"/>
	<path class="st5" d="M102.9,27.3L98.8,17l10.2,4l4-10l3.8,10.1l10.1-4.3L122.3,27l10.3,4.2l-10.1,3.6l4.5,10.4l-9.9-5.9l-4.6,11.4
		l-4.1-11.9l-9.9,6.4l4.1-10.2l-10.2-4.3L102.9,27.3z M96.1,14.4l4.9,12l-12.7,4l12.4,5.4l-5.3,13.1l12.2-7.9l4.7,13.8l5.5-13.4
		l12.2,7.3l-5.6-13.1l12.4-4.3l-12.6-5l5.5-12.2l-12.2,5l-4.6-12l-4.7,12.1L96.1,14.4z M96.1,14.4"/>
</g>
</svg>
