<?xml version="1.0" encoding="UTF-8" standalone="no"?>
<!DOCTYPE svg PUBLIC "-//W3C//DTD SVG 1.1//EN" "http://www.w3.org/Graphics/SVG/1.1/DTD/svg11.dtd">
<svg xmlns="http://www.w3.org/2000/svg" xmlns:xlink="http://www.w3.org/1999/xlink" version="1.1" width="793" height="1974" viewBox="0 0 793 1974" xml:space="preserve">
<desc>Created with Fabric.js 3.6.2</desc>
<defs>
	<style type="text/css"><![CDATA[
		@font-face {
			font-family: 'ABeeZee Regular';
			src: url('ABeeZee Regular.ttf');
		}
]]></style>
</defs>
<g id="id_1584089924521" clip-path="url(#CLIPPATH_1)">
<g transform="matrix(3.649720186821352 0 0 3.649213920465046 406.0267404333794 1287.5621739393969)">
<clipPath id="CLIPPATH_1">
	<rect transform="matrix(1 0 0 1 393.5267404333795 994.8111111111112)" x="-385.7146150299678" y="-979.688888888889" rx="0" ry="0" width="771.4292300599355" height="1959.377777777778"/>
</clipPath>
<g style="">
		<g transform="matrix(1 0 0 1 -44.74511523579576 -118.63996927387963)" id="background">
<path style="stroke: none; stroke-width: 1; stroke-dasharray: none; stroke-linecap: butt; stroke-dashoffset: 0; stroke-linejoin: miter; stroke-miterlimit: 4; fill: rgb(40,61,79); fill-rule: nonzero; opacity: 1;" transform=" translate(-139.36354596395012, -98.64030214508458)" d="M 123.11 108.076 c 0.77 0.693 1.434 1.419 2.076 2.121 c 1.013 1.108 1.888 2.065 2.864 2.556 c 0.841 0.422 1.948 0.589 3.35 0.71 c 5.748 0.492 11.501 0.036 17.1 -1.359 c 1.861 -0.463 3.933 -1.105 5.194 -2.348 c 0.516 -0.509 1 -1.217 1.511 -1.967 c 0.359 -0.526 0.73 -1.07 1.159 -1.619 c 0.864 -1.108 1.866 -2.095 2.971 -2.949 c -0.783 -2.574 -1.566 -5.149 -2.349 -7.723 c -0.327 -1.073 -0.66 -2.162 -1.265 -3.107 c -0.675 -1.054 -1.652 -1.873 -2.614 -2.674 c -1.947 -1.62 -3.921 -3.249 -6.188 -4.378 c -4.284 -2.133 -9.507 -2.283 -13.907 -0.4 c -4.946 2.117 -10.638 4.475 -12.316 9.586 c -1.195 3.639 -1.391 7.487 -1.275 11.339 C 120.777 106.351 122.053 107.125 123.11 108.076 z" stroke-linecap="round"/>
</g>
		<g transform="matrix(1 0 0 1 -42.897661199745905 -85.7137714189642)" id="background">
<path style="stroke: none; stroke-width: 1; stroke-dasharray: none; stroke-linecap: butt; stroke-dashoffset: 0; stroke-linejoin: miter; stroke-miterlimit: 4; fill: rgb(40,61,79); fill-rule: nonzero; opacity: 1;" transform=" translate(-141.21099999999998, -131.5665)" d="M 150.041 118.289 c -4.649 1.158 -9.394 1.74 -14.16 1.74 c -1.674 0 -3.35 -0.072 -5.026 -0.216 c -1.848 -0.158 -3.814 -0.434 -5.667 -1.364 c -2.026 -1.018 -3.451 -2.576 -4.708 -3.951 c -0.183 -0.2 -0.362 -0.394 -0.539 -0.585 c 0.755 7.86 2.574 16.016 8.825 20.528 c 1.849 1.335 3.975 2.244 5.848 3.546 c 4.78 3.322 7.579 9.286 7.113 15.084 c 1.173 -1.451 2.393 -2.865 3.602 -4.267 c 1.358 -1.574 2.64 -3.06 3.855 -4.591 c 6.987 -8.803 11.584 -19.326 13.297 -30.433 c -0.32 -1.248 -0.691 -2.484 -1.066 -3.718 c -0.008 0.01 -0.017 0.019 -0.025 0.029 c -0.304 0.389 -0.603 0.827 -0.919 1.291 c -0.63 0.923 -1.344 1.97 -2.303 2.914 C 155.813 116.618 152.738 117.618 150.041 118.289 z" stroke-linecap="round"/>
</g>
		<g transform="matrix(1 0 0 1 13.292767685444119 90.7255798048877)" id="background">
<path style="stroke: none; stroke-width: 1; stroke-dasharray: none; stroke-linecap: butt; stroke-dashoffset: 0; stroke-linejoin: miter; stroke-miterlimit: 4; fill: rgb(40,61,79); fill-rule: nonzero; opacity: 1;" transform=" translate(-197.40142888519, -308.0058512238519)" d="M 218.445 224.615 c -1.436 1.006 -2.881 2.112 -4.278 3.18 c -2.444 1.87 -4.972 3.804 -7.741 5.449 c -4.617 2.744 -9.087 4.127 -13.323 4.127 c -0.872 0 -1.733 -0.059 -2.584 -0.176 c -3.698 -0.509 -6.884 -2.075 -9.92 -3.755 c -1.566 -0.022 -3.12 0.12 -4.536 0.753 c -2.096 0.936 -3.737 3.321 -3.031 5.505 c 0.75 2.318 3.829 3.931 3.235 6.294 c -0.475 1.891 -1.343 3.791 -2.139 5.571 c -6.107 13.661 -11.833 27.492 -17.177 41.468 c -3.522 -3.427 -11.057 -5.8 -15.172 -2.518 c -4.229 3.374 -7.588 10.378 -7.489 15.616 c 0.05 2.636 0.836 5.022 1.596 7.33 c 0.297 0.902 0.577 1.753 0.815 2.615 c 0.316 1.146 0.331 2.513 0.349 3.959 c 0.025 2.147 0.051 4.366 1.046 6.378 c 0.363 0.734 0.908 1.259 1.305 1.642 l 10.815 10.419 c 1.724 1.661 3.507 3.379 4.914 5.274 c 1.055 1.422 1.929 2.969 2.854 4.607 l 4.861 8.604 c 1.088 1.927 2.214 3.919 2.917 5.97 c 1.164 3.396 1.266 7.175 1.365 10.83 c 0.001 0.047 0.001 0.091 0.002 0.137 c -3.22 0.853 -6.435 1.714 -9.739 2.405 c -3.749 0.784 -8.239 2.285 -8.937 6.051 c -0.14 0.756 -0.089 1.575 0.302 2.237 c 0.391 0.661 1.067 1.093 1.73 1.481 c 8.811 5.157 19.644 6.747 29.565 4.34 c 0.88 -0.214 1.753 -0.457 2.627 -0.701 l 13.696 1.055 c 0.28 0.022 0.569 0.043 0.86 0.062 c 6.803 5.408 11.467 12.374 20.194 11.686 c 4.098 -0.323 8.876 -2.697 8.888 -6.807 c 0.006 -2.167 -1.372 -4.101 -1.714 -6.241 c -0.196 -1.226 -0.047 -2.42 0.269 -3.6 c 1.677 -1.04 3.067 -2.504 3.979 -4.02 c 1.956 -3.251 2.467 -6.966 2.856 -10.804 c 2.501 -24.663 1.967 -49.307 -1.568 -73.628 c 5.034 -3.133 8.475 -8.498 9.929 -14.422 c 0.68 -2.771 0.843 -5.691 1.962 -8.316 c 1.392 -3.266 4.11 -5.739 6.476 -8.387 c 12.555 -14.053 15.638 -35.81 7.489 -52.8 C 242.713 213.066 229.364 216.966 218.445 224.615 z M 189.119 312.819 c -0.011 0.16 -0.022 0.32 -0.033 0.481 c -0.193 2.771 -0.393 5.636 0.509 8.74 c 0.399 1.372 0.751 2.767 1.071 4.178 c -2.016 -3.675 -4.5 -7.088 -7.433 -10.098 C 185.612 316.357 187.797 314.869 189.119 312.819 z M 166.093 355.122 l -4.861 -8.604 c -0.941 -1.665 -1.913 -3.387 -3.107 -4.995 c -1.591 -2.143 -3.487 -3.97 -5.321 -5.737 l -10.815 -10.419 c -0.212 -0.204 -0.475 -0.457 -0.55 -0.609 c -0.618 -1.251 -0.638 -2.959 -0.66 -4.768 c -0.019 -1.619 -0.039 -3.294 -0.482 -4.905 c -0.262 -0.951 -0.57 -1.887 -0.868 -2.792 c -0.704 -2.14 -1.37 -4.161 -1.409 -6.235 c -0.077 -4.079 2.766 -9.981 6.085 -12.629 c 2.308 -1.841 7.871 -0.192 10.323 2.348 c 3.77 11.29 8.272 22.478 17.77 29.22 c 2.742 1.947 5.838 3.456 8.178 5.871 c 7.75 7.997 4.714 22.745 10.604 31.394 c -0.074 0.424 -0.141 0.846 -0.221 1.272 l -0.181 0.962 c -0.813 4.306 -1.655 8.759 -0.248 13.132 c 0.966 3.004 3.342 5.645 6.202 6.891 c 0.414 0.18 0.831 0.328 1.25 0.442 c -0.552 0.68 -1.103 1.36 -1.655 2.04 l -11.651 -0.897 c -3.927 -4.522 -8.525 -8.461 -13.609 -11.626 c 0 -0.316 -0.007 -0.596 -0.013 -0.823 c -0.101 -3.752 -0.216 -8.004 -1.565 -11.939 C 168.477 359.342 167.265 357.197 166.093 355.122 z M 227.995 370.662 c -0.345 3.401 -0.783 6.668 -2.342 9.258 c -1.188 1.974 -3.459 3.724 -5.778 3.697 c -0.555 -0.286 -1.085 -0.619 -1.581 -0.998 c -2.638 -2.01 -4.246 -5.128 -6.833 -7.204 c -2.587 -2.076 -7.125 -2.54 -8.7 0.379 c -0.261 0.484 -0.408 1.011 -0.526 1.549 c -0.617 0.513 -1.143 1.142 -1.521 1.853 c -0.408 0.766 -0.612 1.561 -0.613 2.337 c -0.794 0.024 -1.525 -0.193 -2.077 -0.434 c -1.878 -0.818 -3.503 -2.629 -4.141 -4.614 c -1.077 -3.347 -0.416 -7.168 0.285 -10.887 c 0.051 0.038 0.1 0.077 0.151 0.114 c 2.473 -7.16 3.084 -14.88 2.022 -22.372 c -0.078 -7.876 -1.132 -15.345 -3.165 -22.343 c -0.717 -2.466 -0.548 -4.882 -0.369 -7.439 c 0.192 -2.753 0.391 -5.6 -0.49 -8.686 c -0.996 -3.488 -2.296 -7.121 -3.553 -10.635 c -0.063 -0.177 -0.127 -0.354 -0.19 -0.531 c -0.76 -4.249 -1.521 -8.498 -2.281 -12.748 c -1.43 -7.992 -2.368 -17.539 3.671 -22.965 c 4.974 -4.469 13.054 -3.923 18.638 -0.247 c 5.585 3.676 9.088 9.781 11.648 15.958 c 1.433 3.459 2.694 6.97 3.871 10.506 C 229.629 312.662 230.938 341.65 227.995 370.662 z" stroke-linecap="round"/>
</g>
		<g transform="matrix(1 0 0 1 -18.62700000000001 -85.78158044708286)" id="background">
<path style="stroke: none; stroke-width: 1; stroke-dasharray: none; stroke-linecap: butt; stroke-dashoffset: 0; stroke-linejoin: miter; stroke-miterlimit: 4; fill: rgb(40,61,79); fill-rule: nonzero; opacity: 1;" transform=" translate(-165.48166119974587, -131.49869097188133)" d="M 146.607 209.458 c 0.089 -0.228 0.177 -0.46 0.203 -0.703 c 0.088 -0.805 -0.336 -1.669 -0.368 -2.485 c -0.034 -0.852 0.019 -1.846 0.226 -2.674 l 0.118 -0.599 l 0.061 -0.3 l 0.079 -0.289 c 0.109 -0.384 0.213 -0.773 0.334 -1.152 l 0.411 -1.103 c 0.142 -0.365 0.309 -0.706 0.464 -1.06 c 0.659 -1.381 1.421 -2.661 2.248 -3.845 c 0.824 -1.182 1.712 -2.273 2.604 -3.322 c 0.901 -1.038 1.825 -2.024 2.726 -2.967 c 0.9 -0.928 1.789 -1.865 2.697 -2.784 c 0.909 -0.919 1.806 -1.849 2.724 -2.759 l 1.373 -1.369 c 0.46 -0.456 0.9 -0.906 1.413 -1.396 c 0.51 -0.487 1.062 -1 1.7 -1.508 c 0.632 -0.506 1.354 -1.008 2.172 -1.436 c 0.412 -0.21 0.851 -0.403 1.294 -0.563 c 0.44 -0.155 0.876 -0.281 1.301 -0.379 c 0.848 -0.193 1.645 -0.287 2.38 -0.344 c 0.734 -0.06 1.414 -0.067 2.035 -0.084 c 0.603 -0.015 1.187 -0.045 1.782 -0.076 c 0.592 -0.034 1.184 -0.08 1.772 -0.149 c 0.591 -0.056 1.179 -0.129 1.762 -0.222 c 2.338 -0.358 4.639 -0.927 6.786 -1.913 c 1.072 -0.496 2.102 -1.1 3.072 -1.853 c 0.477 -0.383 0.941 -0.798 1.387 -1.254 c 0.211 -0.235 0.439 -0.468 0.645 -0.72 c 0.219 -0.246 0.403 -0.515 0.617 -0.779 c -0.034 0.332 -0.07 0.672 -0.143 1.003 c -0.056 0.339 -0.151 0.667 -0.246 1.001 c -0.209 0.657 -0.482 1.306 -0.816 1.93 c -0.336 0.622 -0.738 1.212 -1.173 1.783 c -0.449 0.555 -0.93 1.093 -1.454 1.586 c -2.099 1.981 -4.669 3.37 -7.316 4.341 c -0.665 0.24 -1.336 0.458 -2.014 0.652 c -0.679 0.189 -1.362 0.351 -2.049 0.499 c -0.684 0.156 -1.386 0.256 -2.07 0.361 c -0.666 0.096 -1.276 0.186 -1.825 0.277 c -0.548 0.094 -1.03 0.208 -1.431 0.345 c -0.2 0.069 -0.378 0.145 -0.541 0.223 c -0.157 0.08 -0.302 0.166 -0.456 0.267 c -0.619 0.397 -1.321 1.072 -2.105 1.951 l -2.559 2.85 c -0.861 0.964 -1.743 1.909 -2.614 2.864 c -0.871 0.955 -1.761 1.891 -2.641 2.838 c -0.791 0.843 -1.558 1.654 -2.288 2.473 c 3.734 4.409 6.658 9.542 10.888 13.508 c 2.741 2.57 5.501 5.162 7.692 8.215 c 1.821 2.536 3.216 5.373 4.137 8.356 c 0.183 0.103 0.366 0.206 0.548 0.309 c 3.137 1.773 6.099 3.447 9.239 3.879 c 4.387 0.606 8.828 -1.361 11.781 -3.116 c 2.448 -1.455 4.719 -3.193 7.124 -5.032 c 1.45 -1.109 2.948 -2.256 4.494 -3.338 c 10.902 -7.638 23.999 -11.885 37.251 -12.281 c -5.695 -7.514 -14.064 -13.981 -20.518 -20.311 c -9.375 -9.194 -19.565 -17.665 -27.588 -28.06 c -5.711 -7.4 -10.255 -15.693 -16.458 -22.685 c -5.445 -6.138 -12.613 -11.341 -20.605 -12.59 c -2.564 8.96 -6.872 17.378 -12.691 24.71 c -1.296 1.633 -2.682 3.239 -4.022 4.792 c -2.166 2.511 -4.37 5.011 -6.208 7.779 c -0.931 1.403 -1.77 2.873 -2.435 4.423 c -0.952 2.218 -1.414 3.114 -0.902 5.591 c 1.635 7.909 0.681 17.144 -4.368 23.69 c -0.784 1.017 -1.739 2.01 -2.986 2.315 c -2.13 0.52 -4.211 -1.175 -5.273 -3.093 c -1.929 -3.484 -1.755 -7.691 -2.297 -11.637 c -0.286 -2.084 -0.782 -4.223 -0.257 -6.259 c 0.542 -2.104 2.872 -4.278 5.132 -3.162 c 2.093 1.034 2.9 -2.083 3.128 -3.455 c 0.056 -0.338 0.113 -0.675 0.176 -1.008 c 0.823 -4.335 2.767 -8.082 5.176 -11.536 c -0.149 0.012 -0.295 -0.003 -0.437 -0.052 c -1.282 -0.444 -2.196 -1.575 -2.916 -2.725 c -0.529 -0.846 -1.013 -1.755 -1.794 -2.376 c -1.308 -1.04 -3.211 -1.041 -4.767 -0.433 c -1.556 0.608 -2.846 1.732 -4.102 2.835 c -1.791 -1.798 -4.268 -2.895 -6.802 -3.012 c -0.205 -0.568 -0.411 -1.136 -0.616 -1.704 c -10.825 -29.929 -15.57 -61.937 -22.058 -93.046 c -1.036 -4.969 -2.1 -10.014 -4.48 -14.497 c -2.381 -4.483 -6.3 -8.408 -11.236 -9.589 c -2.691 -0.644 1.402 17.53 1.916 19.103 c 8.729 26.702 12.736 54.419 20.487 81.323 c 1.84 6.386 3.204 12.82 4.501 19.328 c 0.332 1.666 -0.698 1.042 -2.136 1.188 c -1.486 0.151 -2.49 0.803 -3.129 2.19 c -1.008 2.189 -0.593 4.733 -0.25 7.119 c 0.807 5.613 1.1 11.3 0.874 16.967 c 0.784 0.217 1.567 0.434 2.351 0.651 c 0.002 6.682 0.005 13.363 0.008 20.045 c 0 0.63 0.008 1.291 0.317 1.84 c 0.341 0.605 0.984 0.964 1.596 1.292 c 1.61 0.864 3.219 1.728 4.829 2.592 c 0.831 0.446 1.692 0.901 2.632 0.983 c 3.011 0.262 6.226 -3.232 8.585 -1.342 c 3.322 2.661 5.544 4.902 9.076 7.278 c 1.696 1.141 3.422 2.297 5.371 2.913 C 141.828 217.052 144.948 213.736 146.607 209.458 z" stroke-linecap="round"/>
</g>
		<g transform="matrix(1 0 0 1 96.8583388002541 63.978728581035824)" id="background">
<path style="stroke: none; stroke-width: 1; stroke-dasharray: none; stroke-linecap: butt; stroke-dashoffset: 0; stroke-linejoin: miter; stroke-miterlimit: 4; fill: rgb(40,61,79); fill-rule: nonzero; opacity: 1;" transform=" translate(-280.967, -281.259)" d="M 280.967 272.934 c -4.598 0 -8.325 3.727 -8.325 8.325 s 3.727 8.325 8.325 8.325 c 4.598 0 8.325 -3.727 8.325 -8.325 S 285.565 272.934 280.967 272.934 z" stroke-linecap="round"/>
</g>
</g>
</g>
</g>
<g style="" id="id_1584089938577" clip-path="url(#CLIPPATH_2)">
<g transform="matrix(4.387275242047027 0 0 4.386666666666667 385.78372752941056 261.28242222222224)">
<clipPath id="CLIPPATH_2">
	<rect transform="matrix(1 0 0 1 393.5267404333795 994.8111111111112)" x="-385.7146150299678" y="-979.688888888889" rx="0" ry="0" width="771.4292300599355" height="1959.377777777778"/>
</clipPath>
		<text xml:space="preserve" font-family="ABeeZee Regular" font-size="39" font-style="normal" font-weight="normal" style="stroke: none; stroke-width: 0; stroke-dasharray: none; stroke-linecap: butt; stroke-dashoffset: 0; stroke-linejoin: miter; stroke-miterlimit: 4; fill: rgb(254,80,0); fill-rule: nonzero; opacity: 1; white-space: pre;"><tspan x="-73.72949821472167" y="12.251459999999994">CRICKET</tspan></text>
</g>
</g>
</svg>
