<?xml version="1.0" encoding="UTF-8"?>
<!DOCTYPE svg PUBLIC "-//W3C//DTD SVG 1.1//EN" "http://www.w3.org/Graphics/SVG/1.1/DTD/svg11.dtd">
<!-- Creator: CorelDRAW X7 -->
<svg xmlns="http://www.w3.org/2000/svg" xml:space="preserve" width="0.421933in" height="0.556685in" version="1.1" style="shape-rendering:geometricPrecision; text-rendering:geometricPrecision; image-rendering:optimizeQuality; fill-rule:evenodd; clip-rule:evenodd"
viewBox="0 0 75 100"
 xmlns:xlink="http://www.w3.org/1999/xlink">
 <defs>
  <style type="text/css">
   <![CDATA[
    .fil0 {fill:black;fill-rule:nonzero}
    .fil2 {fill:#EE622E;fill-rule:nonzero}
    .fil1 {fill:#F8600F;fill-rule:nonzero}
   ]]>
  </style>
 </defs>
 <g id="__x0023_Layer_x0020_1">
  <metadata id="CorelCorpID_0Corel-Layer"/>
  <g id="_145637317904">
   <path class="fil0" d="M53 99c1,0 2,0 3,0l1 1 0 -1c10,-7 17,-17 18,-30 1,-15 -7,-35 -23,-41 -2,0 -4,-1 -6,-1l0 0c-2,-8 -9,-9 -15,-8 -1,1 -2,1 -3,1 -7,2 -12,3 -17,0 -4,-2 -6,-5 -6,-7 0,-3 1,-6 3,-7 1,-1 3,-1 4,-1 1,1 2,2 2,3 0,1 0,1 0,2 0,0 0,0 -1,0 1,-1 0,-2 0,-3 -1,-1 -3,-1 -5,0 -1,1 -1,2 -1,3 0,2 1,3 2,4 2,2 6,2 8,0 1,-1 2,-2 2,-3 2,-3 1,-6 -1,-9 -3,-2 -7,-3 -11,-1 -1,1 -2,1 -3,2 -2,2 -4,5 -4,8 0,4 1,8 5,12 3,3 8,7 19,4 1,-1 1,-1 2,-1 6,-2 12,-3 15,2 -2,0 -4,1 -5,2 -1,1 -3,3 -4,5l0 0c-1,2 1,5 1,6 3,5 9,10 14,6 1,-2 2,-4 3,-6 7,5 11,17 11,25 0,6 -1,16 -8,22 -2,1 -4,1 -5,2l-1 0 0 1c0,1 0,5 0,5l1 1 5 2zm-11 -58l0 0c0,0 -1,1 -2,1 0,-2 2,-4 3,-4 0,0 0,0 0,0 1,1 0,2 -1,3z"/>
   <g>
    <path class="fil1" d="M51 29c-5,-2 -13,-2 -18,6 0,1 0,2 0,3 1,-2 3,-4 4,-5 -1,2 -3,4 -3,6 0,1 0,1 1,2 0,-2 2,-4 3,-6 -1,2 -2,4 -3,7 1,0 1,1 1,1 0,-2 2,-5 3,-7 -1,2 -2,5 -2,8 0,0 1,1 1,1 0,-4 2,-7 5,-8 7,-4 15,4 18,9 4,6 5,14 5,22 -1,9 -5,22 -17,28 1,0 2,1 3,1 11,-5 15,-19 17,-24 -3,13 -9,21 -16,24 1,0 2,1 3,1 12,-7 17,-19 18,-29 1,-15 -7,-34 -23,-40z"/>
    <path class="fil2" d="M65 68c1,-14 -5,-27 -16,-31 0,1 1,2 1,2 8,6 13,18 13,27 0,7 -2,20 -14,26 0,1 0,2 0,3 12,-6 15,-17 16,-27z"/>
    <path class="fil2" d="M5 22c4,3 9,6 19,3 5,-1 14,-5 18,2 1,0 2,0 3,0 -3,-8 -10,-7 -14,-6 -7,1 -15,5 -22,0 -8,-5 -6,-13 -2,-16 4,-3 8,-1 9,3 0,3 -4,4 -5,3 3,-2 0,-5 -2,-3 -1,1 -1,4 1,5 2,2 6,2 8,-2 2,-5 -3,-12 -10,-9 -8,3 -9,13 -3,20z"/>
    <path class="fil2" d="M39 43c0,1 0,2 0,3 4,3 11,-1 9,-9 -1,0 -2,0 -4,0 1,4 -2,6 -5,6z"/>
   </g>
  </g>
 </g>
</svg>
