<?xml version="1.0" encoding="UTF-8"?>
<!DOCTYPE svg PUBLIC "-//W3C//DTD SVG 1.1//EN" "http://www.w3.org/Graphics/SVG/1.1/DTD/svg11.dtd">
<!-- Creator: CorelDRAW X7 -->
<svg xmlns="http://www.w3.org/2000/svg" xml:space="preserve" width="0.335626in" height="0.255657in" version="1.1" style="shape-rendering:geometricPrecision; text-rendering:geometricPrecision; image-rendering:optimizeQuality; fill-rule:evenodd; clip-rule:evenodd"
viewBox="0 0 177 135"
 xmlns:xlink="http://www.w3.org/1999/xlink">
 <defs>
  <style type="text/css">
   <![CDATA[
    .fil0 {fill:black;fill-rule:nonzero}
    .fil2 {fill:#B8782A;fill-rule:nonzero}
    .fil1 {fill:#F8600F;fill-rule:nonzero}
   ]]>
  </style>
 </defs>
 <g id="__x0023_Layer_x0020_1">
  <metadata id="CorelCorpID_0Corel-Layer"/>
  <g id="_145635440448">
   <path class="fil0" d="M41 83c1,1 4,2 5,3 2,3 4,7 4,10 0,3 -1,6 -2,8 -1,3 -2,6 -4,9 3,-1 5,-2 7,-3 3,-1 7,-2 10,-2 -3,3 -5,6 -9,8 1,-1 6,7 7,8 1,3 3,8 3,11 3,-4 6,-5 10,-7 2,-1 3,-1 5,-2 3,0 5,1 7,2 2,1 5,2 7,3 -1,-4 1,-7 3,-10 2,-1 3,-3 5,-4 1,0 3,-1 4,-1 2,-1 3,-1 5,-1 0,0 4,0 4,0 -2,-1 -4,-12 -3,-15 0,-2 3,-5 5,-6 7,-1 12,6 11,12 0,2 0,3 0,4 2,-2 5,-3 8,-4 3,-1 6,-1 9,0 3,0 6,2 9,3 0,-2 0,-3 0,-5 0,-3 2,-5 4,-7 2,-2 5,-4 8,-4 -2,-3 -3,-5 -4,-8 -1,-3 -3,-8 -1,-11 1,-2 2,-3 3,-4 3,-3 6,-4 9,-6 2,0 3,0 4,0 1,0 3,0 3,0 -2,-2 -4,-3 -6,-5 -3,-2 -5,-5 -6,-9 -1,-2 -1,-4 0,-6 0,0 1,-6 1,-6 -4,0 -11,1 -14,-3 -4,-4 0,-9 2,-13 -5,0 -9,0 -12,-4 -2,-2 -3,-4 -4,-6 0,0 -3,-5 -3,-6 -3,3 -8,2 -11,0 -1,-1 -3,-3 -4,-4 -1,2 -2,6 -5,7 -4,1 -7,-1 -10,-3 -1,6 -1,11 -2,16 -8,-3 -14,-10 -18,-14 -1,1 -5,1 -6,1 -2,-1 -4,-1 -7,-2 -3,-1 -7,-3 -9,-7 -2,3 -3,6 -7,7 -4,2 -8,1 -12,0 -1,-1 -2,-1 -3,-2 -1,0 -3,-1 -4,-2 0,2 1,6 0,8 -1,3 -3,4 -5,5 -1,0 -7,1 -7,1 1,2 2,8 0,10 -1,1 -3,2 -4,2 -1,1 -6,2 -6,2 1,7 8,14 13,19 6,6 13,9 21,11 -11,4 -21,10 -30,16 -8,6 -14,13 -19,20 3,1 6,2 9,3 1,1 2,0 3,-2 2,-2 5,-5 8,-8 8,-7 33,-22 36,-22 0,0 -4,7 -15,15z"/>
   <g>
    <path class="fil1" d="M162 41c0,1 0,2 0,3 -6,1 -15,4 -23,7 -6,-1 -11,-2 -17,-2 4,-2 6,-4 8,-6 8,-4 14,-4 20,-5 3,2 7,3 12,3z"/>
    <path class="fil1" d="M161 45c-1,8 4,14 11,17 -5,1 -10,3 -13,6 -10,-4 -10,-9 -17,-15 2,0 5,0 8,0 4,4 10,7 11,8 -2,-2 -6,-5 -9,-8 2,1 5,1 7,1 -5,-1 -9,-2 -14,-3 5,-2 11,-4 16,-6z"/>
    <path class="fil1" d="M158 69c-5,5 -4,12 -1,18 -8,-3 -18,-7 -27,-12 -6,-8 -13,-16 -21,-20 5,-1 11,-1 16,-2 6,6 9,17 19,19 -9,-5 -12,-11 -14,-19 2,0 5,0 7,0 8,4 7,11 21,16z"/>
    <path class="fil1" d="M159 91c-5,2 -9,6 -10,10 -4,-5 -8,-12 -14,-19 12,2 18,7 24,9z"/>
    <path class="fil1" d="M148 102c0,1 0,2 0,2 -5,-1 -13,-3 -20,1 2,-5 5,-11 8,-20 4,7 8,13 12,17z"/>
    <path class="fil1" d="M147 25c1,0 2,0 2,0 -2,4 -2,9 1,12 -4,0 -9,1 -16,2 5,-6 8,-12 13,-14z"/>
    <path class="fil1" d="M135 12c1,5 5,10 10,12 -7,4 -10,11 -16,17 5,-8 5,-22 6,-29z"/>
    <path class="fil1" d="M133 81c0,8 -3,16 -5,23 0,-9 -6,-12 -10,-13 0,-6 3,-11 4,-22 4,4 8,8 11,12z"/>
    <path class="fil1" d="M134 11c-2,8 -3,23 -8,33 -3,2 -6,3 -10,5 -6,0 -12,0 -18,1 3,-2 5,-5 8,-8 8,-6 16,-10 21,-12 -4,1 -10,2 -17,6 2,-3 4,-5 5,-8 4,-3 10,-6 13,-7 -3,0 -8,2 -11,3 3,-5 4,-9 5,-11 -4,7 -10,17 -19,28 0,-4 -1,-9 -3,-12 0,3 0,10 0,15 -3,3 -5,5 -8,7l-1 0c-2,-3 -4,-6 -5,-10 0,-11 4,-17 6,-20 -2,2 -7,9 -9,12 -2,-9 -1,-17 -4,-19 1,4 1,9 2,14 -3,-3 -9,-9 -11,-10 1,2 8,10 11,16 0,6 2,13 6,18 -1,0 -2,0 -3,1 -6,-3 -13,-8 -20,-15 -3,-14 2,-19 0,-33 6,5 13,6 20,5 6,8 16,14 21,17 1,-5 2,-11 2,-16 5,2 11,2 14,-4 2,4 8,5 13,4z"/>
    <path class="fil1" d="M119 66c1,8 -3,18 -2,25 -3,0 -6,1 -8,3 -11,0 -21,-1 -26,-8 3,-7 6,-14 8,-26 1,4 3,7 6,10 0,5 -1,12 -1,20 1,-3 3,-10 4,-15 5,5 9,10 11,15 -1,-8 -13,-18 -18,-33 3,0 7,-1 10,-2 2,1 4,2 6,3 0,4 -1,10 -1,14 2,-3 3,-8 3,-12 3,2 6,4 8,6z"/>
    <path class="fil2" d="M5 96c29,-41 106,-47 119,-45 -52,5 -87,14 -115,46l-4 -1z"/>
    <path class="fil1" d="M108 95c-3,3 -3,9 -1,15 -9,-5 -16,-10 -21,-18 8,5 17,3 22,3z"/>
    <path class="fil1" d="M94 104c5,4 10,7 13,9 -6,0 -16,4 -18,12 -5,-10 -6,-26 -7,-35 2,5 6,9 9,12 1,5 2,10 3,13 -1,-4 -1,-7 0,-11z"/>
    <path class="fil1" d="M86 58c1,4 1,8 0,12 -3,3 -7,6 -11,8 -4,-2 -10,-7 -16,-6 2,1 7,2 11,7 -7,2 -17,3 -24,4 4,-3 13,-10 14,-18 8,-2 16,-4 26,-7z"/>
    <path class="fil1" d="M81 95c0,9 2,23 7,32 -9,-6 -16,-4 -23,3 2,-8 6,-20 12,-31 1,-1 3,-2 4,-4z"/>
    <path class="fil1" d="M84 76c-3,9 -6,18 -8,21 -8,8 -18,6 -27,12 2,-4 4,-9 4,-13 6,-2 14,-11 17,-15 6,-1 11,-3 14,-5z"/>
    <path class="fil1" d="M68 46c4,3 7,5 10,7 -8,2 -16,4 -24,7 -5,-1 -9,-3 -13,-5 3,-3 10,-9 15,-11 5,1 10,1 12,2z"/>
    <path class="fil1" d="M74 101c-5,11 -8,21 -10,28 -1,-5 -4,-9 -7,-13 4,-3 7,-8 9,-11 3,-1 6,-2 8,-4z"/>
    <path class="fil1" d="M63 5c1,5 0,10 -1,15 -2,-1 -6,-3 -9,-4 2,2 6,6 8,9 0,4 -1,7 0,10 -9,-8 -17,-18 -20,-28 7,5 18,6 22,-2z"/>
    <path class="fil1" d="M66 82c-2,4 -7,9 -13,12 0,-3 -2,-7 -7,-10 6,0 14,-1 20,-2z"/>
    <path class="fil1" d="M64 42c-5,-1 -11,-1 -19,-2 -4,-4 -4,-12 -16,-21 4,0 10,-2 11,-8 3,5 12,19 24,31z"/>
    <path class="fil1" d="M52 43c-2,2 -8,8 -13,11 -9,-4 -15,-11 -19,-19 8,4 21,7 32,8z"/>
    <path class="fil1" d="M29 21c8,7 12,16 12,19 -6,-2 -13,-3 -21,-7 5,-2 11,-4 9,-12z"/>
   </g>
  </g>
 </g>
</svg>
