<?xml version="1.0" encoding="UTF-8" standalone="no"?>
<!DOCTYPE svg PUBLIC "-//W3C//DTD SVG 1.1//EN" "http://www.w3.org/Graphics/SVG/1.1/DTD/svg11.dtd">
<svg xmlns="http://www.w3.org/2000/svg" xmlns:xlink="http://www.w3.org/1999/xlink" version="1.1" width="2480" height="3508" viewBox="0 0 2480 3508" xml:space="preserve">
<desc>Created with Fabric.js 3.2.0</desc>
<defs>
</defs>
<g id="id_1581066418631" clip-path="url(#CLIPPATH_1)">
<g transform="matrix(17.92849112310506 0 0 8.220912005538525 1341.0547680592183 1827.2381451703511)">
<clipPath id="CLIPPATH_1">
	<rect transform="matrix(1 0 0 1 1240.1458154812908 1851.9444444444446)" x="-1239.6458154812908" y="-1656.5555555555557" rx="0" ry="0" width="2479.2916309625816" height="3313.1111111111113"/>
</clipPath>
<g style="">
		<g transform="matrix(1.3333333559212015 0 0 -1.3333333559212015 -3.6927376073938163 0)" id="path3380">
<path style="stroke: none; stroke-width: 1; stroke-dasharray: none; stroke-linecap: butt; stroke-dashoffset: 0; stroke-linejoin: miter; stroke-miterlimit: 4; fill: rgb(255,255,255); fill-rule: nonzero; opacity: 1;" transform=" translate(-14.830446841373352, 42.96700000000001)" d="m 0 0 c 4.41 -11.722 7.41 -24.102 8.73 -36.097 c 0.49 -4.469 0.73 -9.39 0.73 -15.046 c 0 -14.605 -2.57 -29.928 -7.45 -44.471 c 1.49 0.158 3.1 0.287 4.81 0.389 c 2.08 16.06 3.2 37.297 3.25 61.54 c 0 0.177 -0.1 6.594 -0.22 10.713 c 0 0 -0.34 12.116 -0.34 18.397 l 0 1.048 C 9.15 -3.469 8.8 -3.407 8.47 -3.345 C 5.56 -2.853 5.18 -2.661 4.95 -2.546 C 4.61 -2.376 4.29 -2.113 4.01 -1.782 C 2.62 -1.304 1.28 -0.71 0 0 Z m 15.67 -133.091 c -10.83 0 -36.02 0.844 -36.02 8.673 c 0 0.534 0.12 1.081 0.35 1.577 c 9.86 23.001 9.86 23.018 9.87 23.034 c 0.48 1.068 1.46 1.71 2.33 2.12 c 5.89 15.652 8.74 30.882 8.74 46.544 c 0 26.01 -7.32 50.878 -21.19 71.95 l -0.44 0.153 l -0.76 0.765 l -0.57 1.412 l 0 0.29 c 0 0.936 0.47 1.789 1.3 2.339 l 3.94 2.377 l 1.56 0.07 c 1.14 0 2.1 -0.59 2.58 -1.54 l 0.05 -0.107 l 0.07 -0.226 c 2.03 11.81 12.23 20.817 24.48 20.817 c 9.43 0 18.1 -5.486 22.27 -14.03 l 2.52 -1.041 l 0.23 -0.189 l 0.97 1.305 l 2.18 -1.814 c 0.27 -0.169 2.33 -1.337 2.33 -1.337 l 0.52 -0.323 l 0.18 -0.26 c 0.76 -1.112 1.21 -1.774 1.48 -2.199 l 0.98 -0.449 l 0.36 -1.091 c 0.1 -0.278 0.14 -0.565 0.14 -0.853 c 0 -0.196 0 -0.523 -0.55 -2.044 L 45.22 21.9 L 44.19 21.848 L 43.83 21.212 C 41.79 17.616 38.37 11.625 33.67 -1.084 C 28.54 -14.953 26.5 -31.91 26.32 -42.218 c 0.32 -28.461 10.7 -50.56 13.32 -55.701 c 0.93 -0.518 1.55 -1.147 1.89 -1.913 c 1.62 -3.796 9.7 -22.653 9.9 -23.229 c 0.28 -0.79 0.27 -1.316 0.23 -1.564 c 0.02 -7.622 -25.17 -8.466 -35.99 -8.466" stroke-linecap="round"/>
</g>
		<g transform="matrix(1.3333333559212015 0 0 -1.3333333559212015 -3.691156525116604 -0.00133333335595864)" id="path3384">
<path style="stroke: none; stroke-width: 1; stroke-dasharray: none; stroke-linecap: butt; stroke-dashoffset: 0; stroke-linejoin: miter; stroke-miterlimit: 4; fill: rgb(88,89,91); fill-rule: nonzero; opacity: 1;" transform=" translate(-6.681632653061225, -53.69000000000002)" d="m 0 0 c -3.08 -0.158 -5.92 -0.407 -8.34 -0.737 c 5.32 15.023 8.15 30.961 8.15 46.25 c 0 5.593 -0.23 10.461 -0.72 14.882 c -1.5 13.661 -5.12 27.459 -10.48 40.376 c 2.35 -2.053 5.12 -3.643 8.19 -4.624 c 0.18 -0.317 0.44 -0.575 0.68 -0.695 C -2.08 95.228 0.5 94.806 0.61 94.785 C 1.29 94.652 2.09 94.53 2.87 94.429 C 2.87 93.646 2.86 92.864 2.86 92.081 C 2.86 85.646 3.04 79.355 3.2 73.726 C 3.32 69.557 3.42 63.039 3.42 62.966 C 3.37 38.019 2.19 16.29 0 0 Z m 41.87 -26.909 c -0.2 0.558 -9.86 23.12 -9.86 23.12 c -0.25 0.563 -0.79 1.014 -1.63 1.412 C 27.77 2.628 17 25.062 16.67 54.465 c 0.18 10.399 2.24 27.569 7.44 41.628 c 4.74 12.797 8.19 18.876 10.26 22.504 c 0 0 0.44 0.795 0.76 1.366 l 0.88 0.042 c 0 0 0.46 1.27 0.46 1.527 c 0 0.129 -0.02 0.257 -0.06 0.381 l -0.16 0.47 c 0 0 -0.65 0.298 -0.81 0.373 l -1.67 2.519 l -0.21 0.128 c 0 0 -2.4 1.365 -2.53 1.484 l -0.97 0.799 l -0.99 -1.337 c -0.5 0.474 -1.25 1.091 -1.25 1.091 l -2.85 1.176 c -3.82 8.345 -12.03 13.696 -21.16 13.696 c -12.88 0 -23.35 -10.606 -23.35 -23.638 c 0 -0.485 0.03 -0.957 0.06 -1.437 c -0.82 1.443 -1.67 2.869 -2.54 4.274 c 0.04 0.131 0.08 0.269 0.08 0.418 c 0 0.104 -0.2 0.73 -0.2 0.73 c -0.22 0.438 -0.66 0.712 -1.16 0.712 l -1.18 -0.057 l -3.56 -2.147 c -0.53 -0.347 -0.63 -0.782 -0.63 -1.084 l 0.34 -0.851 l 0.3 -0.304 c 0.02 -0.008 0.39 -0.136 0.61 -0.217 c 14.2 -21.401 21.72 -46.698 21.72 -73.198 c 0 -16.047 -2.97 -31.649 -9.07 -47.671 c -1.16 -0.455 -1.85 -0.961 -2.14 -1.61 l -9.88 -23.042 c -0.13 -0.294 -0.21 -0.626 -0.21 -0.952 c 0 -7.092 33.11 -7.17 34.52 -7.17 c 1.41 0 34.51 0.078 34.51 7.17 c 0 0 0.04 0.29 -0.16 0.853" stroke-linecap="round"/>
</g>
		<g transform="matrix(1.3333333559212015 0 0 -1.3333333559212015 -2.5733333769279696 94.68400160403228)" id="path3388">
<path style="stroke: none; stroke-width: 1; stroke-dasharray: none; stroke-linecap: butt; stroke-dashoffset: 0; stroke-linejoin: miter; stroke-miterlimit: 4; fill: rgb(206,138,20); fill-rule: nonzero; opacity: 1;" transform=" translate(33.280000000000015, -9.974000000000002)" d="m 0 0 l 0.01 0 l -0.03 0.053 l -0.01 0.029 l -9.82 23.047 l -0.01 0 c -0.07 0.157 -0.23 0.314 -0.44 0.462 c 0.07 -0.131 0.09 -0.255 0.09 -0.363 c 0 -0.149 -0.04 -0.261 -0.08 -0.335 c -0.1 -0.178 -0.28 -0.265 -0.5 -0.307 c -0.02 -0.302 -0.19 -0.576 -0.49 -0.748 c -0.24 -0.137 -1.22 -0.555 -2.92 -1.255 l -0.07 -0.021 c -0.28 -0.108 -0.71 -0.079 -1.94 0.058 l -0.59 0.053 l -0.1 -0.198 c -0.22 -0.34 -0.59 -0.368 -0.71 -0.377 l -2.21 -0.236 c -3.89 -0.422 -5.9 -0.555 -6.12 -0.555 c 0 0 -0.17 0.009 -0.33 0.088 c -0.27 0.074 -0.55 0.201 -0.79 0.285 c -0.34 0.117 -0.8 0.344 -0.97 0.385 c -0.32 0.078 -0.77 0.377 -0.84 0.919 c -0.01 0.074 -0.23 2.145 -0.57 5.365 c -0.15 0.004 -0.3 0.009 -0.45 0.012 c 0.32 -3.924 0.55 -6.425 0.55 -6.433 c 0 -0.203 -0.07 -0.389 -0.21 -0.533 c -0.3 -0.307 -0.76 -0.278 -0.91 -0.269 c -0.64 0.041 -9.08 0.148 -9.91 0.148 c -0.17 -0.008 -0.58 -0.008 -0.77 0.244 c -0.2 0.248 -0.18 0.589 -0.18 0.589 c 0.34 1.979 0.64 4.036 0.93 6.127 c -3.77 -0.183 -7.12 -0.502 -9.8 -0.92 c -0.14 -0.396 -0.28 -0.795 -0.43 -1.192 c 2.11 -0.22 5.72 -0.757 5.72 -1.532 c 0 -0.425 -4.68 -0.667 -6.56 -0.728 l -0.02 0 l -0.01 -0.017 l -3.68 -0.07 c -0.49 0 -0.78 0.352 -0.8 0.691 l 0.04 0.265 c 0.17 0.431 0.33 0.86 0.49 1.291 c -0.64 -0.285 -1.07 -0.583 -1.21 -0.893 l -0.01 0 l -9.87 -23.026 c -0.07 -0.166 -0.11 -0.327 -0.11 -0.497 c 0 -3.324 14.93 -6.019 33.36 -6.019 c 18.42 0 33.36 2.695 33.36 6.019 C 0.08 -0.261 0.05 -0.129 0 0" stroke-linecap="round"/>
</g>
		<g transform="matrix(1.3333333559212015 0 0 -1.3333333559212015 -31.840000539398222 -6.567333444589863)" id="path3392">
<path style="stroke: none; stroke-width: 1; stroke-dasharray: none; stroke-linecap: butt; stroke-dashoffset: 0; stroke-linejoin: miter; stroke-miterlimit: 4; fill: rgb(128,130,133); fill-rule: nonzero; opacity: 1;" transform=" translate(12.369999999999997, 1.6524999999999892)" d="m 0 0 c -1.15 10.499 -3.5 20.699 -6.72 30.283 c -1.52 4.533 -3.25 8.921 -5.13 13.146 c -2.29 2.776 -3.94 6.096 -4.77 9.737 c -1.52 2.821 -3.09 5.549 -4.74 8.151 l -0.04 -0.002 c 0.13 0.12 0.29 0.256 0.32 0.269 l 0.04 0.118 l -0.07 0.18 l -0.13 0.07 l -0.83 -0.039 c 0 0 -3.18 -1.911 -3.27 -1.969 c -0.09 -0.057 -0.12 -0.099 -0.12 -0.128 l 0.15 -0.21 l 0.04 -0.034 l 0.11 -0.046 c 0.04 0 0.29 -0.001 0.48 -0.001 l 0 -0.002 c 13.86 -20.712 22.19 -46.39 22.19 -74.277 c 0 -18.125 -3.82 -34.792 -10.03 -50.369 c 0 0 0.02 -0.134 0.21 -0.134 l 0.13 0.005 c 0.62 0.008 3.13 0.058 3.13 0.058 c 5.86 14.862 9.77 32.315 9.77 50.44 c 0 4.131 -0.13 8.25 -0.48 12.321 C 0.17 -1.619 0.09 -0.808 0 0" stroke-linecap="round"/>
</g>
		<g transform="matrix(1.3333333559212015 0 0 -1.3333333559212015 -22.9866670560815 34.57701152700456)" id="path3396">
<path style="stroke: none; stroke-width: 1; stroke-dasharray: none; stroke-linecap: butt; stroke-dashoffset: 0; stroke-linejoin: miter; stroke-miterlimit: 4; fill: rgb(167,169,172); fill-rule: nonzero; opacity: 1;" transform=" translate(3.0900000000000016, 32.147758205929144)" d="m 0 0 c 0.3 -1.706 1.24 -12.904 1.07 -17.612 c 0.59 -1.449 0.25 -3.192 -0.26 -4.161 c 0 -1.532 -0.55 -5.692 -0.76 -8.872 c 0.59 -0.041 0.63 -0.636 0.38 -2.972 c -0.46 -4.226 -2.16 -8.615 -3.35 -9.89 c -0.6 -4.115 -2.8 -10.399 -3.4 -12.138 c -0.59 -1.739 -2.08 -6.876 -2.33 -7.554 c -0.21 -0.564 -0.54 -1.276 -0.89 -1.69 c 0.62 0.008 3.13 0.058 3.13 0.058 c 5.86 14.862 9.77 32.315 9.77 50.44 c 0 4.131 -0.13 8.25 -0.48 12.321 C 1.53 1.156 0.27 0.905 0 0" stroke-linecap="round"/>
</g>
		<g transform="matrix(1.3333333559212015 0 0 -1.3333333559212015 -36.053333944109326 -67.78864602912137)" id="path3400">
<path style="stroke: none; stroke-width: 1; stroke-dasharray: none; stroke-linecap: butt; stroke-dashoffset: 0; stroke-linejoin: miter; stroke-miterlimit: 4; fill: rgb(255,255,255); fill-rule: nonzero; opacity: 1;" transform=" translate(-0.33000000000000007, 6.302516339459494)" d="M 0 0 C -2.64 5.032 -4.99 8.962 -6.07 10.72 L -8.4 9.225 c 0.75 -1.49 2.14 -3.531 4.1 -6.358 c 2.15 -3.099 7.4 -13.287 11.12 -24.645 c 1.38 -2.746 1.99 -1.407 2.24 0.695 C 7.4 -15.738 5.07 -10.293 2.72 -5.409 C 1.59 -3.751 0.68 -1.931 0 0" stroke-linecap="round"/>
</g>
		<g transform="matrix(1.3333333559212015 0 0 -1.3333333559212015 -46.96666746232436 -89.76066818729329)" id="path3404">
<path style="stroke: none; stroke-width: 1; stroke-dasharray: none; stroke-linecap: butt; stroke-dashoffset: 0; stroke-linejoin: miter; stroke-miterlimit: 4; fill: rgb(255,235,168); fill-rule: nonzero; opacity: 1;" transform=" translate(1.6450000000000002, 1.1704999999999999)" d="m 0 0 c 0 0 -3.18 -1.911 -3.27 -1.969 c -0.09 -0.057 -0.12 -0.099 -0.12 -0.128 l 0.15 -0.21 l 0.04 -0.034 c 0.81 0.486 3.21 1.905 3.3 1.938 C 0.06 -0.263 0.06 -0.107 0 0" stroke-linecap="round"/>
</g>
		<g transform="matrix(1.3333333559212015 0 0 -1.3333333559212015 -3.573969177937389 -0.08816880272642891)" id="path3408">
<path style="stroke: none; stroke-width: 1; stroke-dasharray: none; stroke-linecap: butt; stroke-dashoffset: 0; stroke-linejoin: miter; stroke-miterlimit: 4; fill: rgb(167,169,172); fill-rule: nonzero; opacity: 1;" transform=" translate(-3.239523161956669, 57.32487339907547)" d="m 0 0 c 0.39 -6.691 0.54 -10.549 0.5 -16.365 c -0.11 -12.339 0.56 -24.847 0.54 -31.749 c -0.05 -24.329 -1.17 -50.668 -4.51 -70.328 c -0.02 -0.165 0.28 -0.128 0.39 -0.128 c 0.73 0 9.24 -0.107 9.91 -0.149 c 0.3 -0.02 0.5 0.038 0.49 0.224 c -1.59 18.364 -3.62 46.552 -2.6 70.381 c 1.01 23.825 1.79 34.837 5.23 52.187 C 5.97 4.073 2.52 1.959 0 0" stroke-linecap="round"/>
</g>
		<g transform="matrix(1.3333333559212015 0 0 -1.3333333559212015 -5.327302540973735 49.774609032683955)" id="path3412">
<path style="stroke: none; stroke-width: 1; stroke-dasharray: none; stroke-linecap: butt; stroke-dashoffset: 0; stroke-linejoin: miter; stroke-miterlimit: 4; fill: rgb(255,255,255); fill-rule: nonzero; opacity: 1;" transform=" translate(0.43547683804333204, -8.998043857907073)" d="m 0 0 c 0.4 3.812 -0.07 32.998 -0.79 32.998 c -0.4 0 -0.69 -0.724 -0.97 -2.015 c -0.6 -16.489 -1.84 -32.585 -4.07 -45.705 c -0.02 -0.165 0.28 -0.128 0.39 -0.128 c 0.73 0 9.24 -0.107 9.91 -0.149 c 0.14 -0.008 0.26 0 0.34 0.03 l 0.15 0.194 C 4.01 -4.785 -0.41 -3.817 0 0" stroke-linecap="round"/>
</g>
		<g transform="matrix(1.3333333559212015 0 0 -1.3333333559212015 -1.4343675219910361 -81.39666804559957)" id="path3416">
<path style="stroke: none; stroke-width: 1; stroke-dasharray: none; stroke-linecap: butt; stroke-dashoffset: 0; stroke-linejoin: miter; stroke-miterlimit: 4; fill: rgb(255,207,0); fill-rule: nonzero; opacity: 1;" transform=" translate(5.405775623268698, 3.7235)" d="m 0 0 c -3.52 0 -5.72 -1.312 -7.23 -2.123 c -1.44 -0.766 -2.37 -1.219 -3.48 -2.304 c 0 -0.159 -0.18 -1.397 -0.16 -2.577 c 0 0 0.27 -0.315 0.36 -0.36 c 0.06 -0.029 0.16 -0.067 0.26 -0.083 l 0 0.067 c 2.52 1.959 5.97 4.073 9.95 4.073 L -0.31 -3.328 C 0 -3.126 0.06 -2.786 0.06 -2.786 L 0 0" stroke-linecap="round"/>
</g>
		<g transform="matrix(1.3333333559212015 0 0 -1.3333333559212015 -7.614367626685863 -79.54000134747929)" id="path3420">
<path style="stroke: none; stroke-width: 1; stroke-dasharray: none; stroke-linecap: butt; stroke-dashoffset: 0; stroke-linejoin: miter; stroke-miterlimit: 4; fill: rgb(128,130,133); fill-rule: nonzero; opacity: 1;" transform=" translate(-0.669224376731302, 0.6890000000000001)" d="M 0 0 C 0 -0.159 -0.18 -1.397 -0.16 -2.577 C 0.11 -1.261 0.63 -0.023 1.5 1.199 C 1 0.875 0.51 0.503 0 0" stroke-linecap="round"/>
</g>
		<g transform="matrix(1.3333333559212015 0 0 -1.3333333559212015 -1.4333333576153295 -81.58133471539463)" id="path3424">
<path style="stroke: none; stroke-width: 1; stroke-dasharray: none; stroke-linecap: butt; stroke-dashoffset: 0; stroke-linejoin: miter; stroke-miterlimit: 4; fill: rgb(255,235,168); fill-rule: nonzero; opacity: 1;" transform=" translate(5.005000000000001, 3.5770000000000004)" d="m 0 0 c -0.17 -0.498 -1.11 -0.7 -1.63 -0.914 c -0.16 0.066 -0.27 0.533 -0.31 0.716 c -0.13 -0.025 -0.25 -0.05 -0.37 -0.075 c -0.3 -0.124 -0.67 -0.29 -0.76 -0.377 c -0.17 -0.14 0.12 -1.206 0.12 -1.45 c 0 -0.247 0.14 -0.882 -0.68 -1.183 c -2.96 -1.093 -4.95 -2.185 -6.84 -3.63 l 0 -0.083 l 0.15 -0.166 c 4.38 3.299 8.09 4.165 10.78 4.384 L 0.4 0.008 C 0.26 0.008 0.13 0.004 0 0" stroke-linecap="round"/>
</g>
		<g transform="matrix(1.3333333559212015 0 0 -1.3333333559212015 5.87333343283284 -1.4004653081637883)" id="path3428">
<path style="stroke: none; stroke-width: 1; stroke-dasharray: none; stroke-linecap: butt; stroke-dashoffset: 0; stroke-linejoin: miter; stroke-miterlimit: 4; fill: rgb(128,130,133); fill-rule: nonzero; opacity: 1;" transform=" translate(0.6449999999999996, -61.947348963329055)" d="m 0 0 c -3.3 21.593 -3.97 45.241 -4.01 57.581 c -0.04 10.279 1.07 32.142 3.75 45.728 c 0.66 3.349 1.66 8.408 4.88 20.211 c 0 0 -0.39 0.292 -0.89 0.667 l 0 -0.003 C 3.02 122.286 1.66 117.91 0.36 113.456 C -2.57 102.887 -2.99 96.27 -3.77 89.288 C -4.09 86.856 -4.23 82.465 -3.89 75.915 C -4.15 75.711 -4.86 74.977 -5.47 74.022 C -5.53 72.765 -5.58 71.482 -5.64 70.147 C -5.71 68.299 -5.77 66.39 -5.82 64.44 C -5.83 64 -5.84 63.563 -5.85 63.115 C -5.89 60.95 -5.91 58.732 -5.91 56.443 c 0 -5.9 0.29 -15.239 0.73 -24.687 c 0.28 -3.385 0.61 -6.983 0.94 -10.494 l -0.01 0.037 l 0.01 -0.116 l 0.01 -0.078 c 0.23 -2.252 2.45 -19.138 2.57 -20 c 0.1 -0.649 0.21 -0.72 1.06 -1.121 L -0.61 -0.029 C -0.21 -0.173 0.16 -0.307 0.24 -0.291 C 0.08 -0.245 0.02 -0.145 0 0" stroke-linecap="round"/>
</g>
		<g transform="matrix(1.3333333559212015 0 0 -1.3333333559212015 17.260000292399916 -87.29588189699277)" id="path3432">
<path style="stroke: none; stroke-width: 1; stroke-dasharray: none; stroke-linecap: butt; stroke-dashoffset: 0; stroke-linejoin: miter; stroke-miterlimit: 4; fill: rgb(255,255,255); fill-rule: nonzero; opacity: 1;" transform=" translate(5.965, 1.2410896864085954)" d="M 0 0 C -0.12 0.092 -0.27 0.194 -0.43 0.277 C -0.84 0.496 -2.13 1.416 -2.48 1.606 C -2.89 1.615 -3.29 1.59 -3.7 1.545 C -6.3 1.254 -9.2 -0.05 -12.26 -1.78 c 0.14 -0.162 3.02 -2.31 3.02 -2.31 c 2.95 1.656 6.88 3.039 8.71 3.171 c 0.34 0.033 0.48 0.116 0.64 0.116 c 0.14 0.274 0.22 0.543 0.22 0.543 c 0 0 -0.13 0.119 -0.33 0.26" stroke-linecap="round"/>
</g>
		<g transform="matrix(1.3333333559212015 0 0 -1.3333333559212015 22.746667052015678 -90.02254860985161)" id="path3436">
<path style="stroke: none; stroke-width: 1; stroke-dasharray: none; stroke-linecap: butt; stroke-dashoffset: 0; stroke-linejoin: miter; stroke-miterlimit: 4; fill: rgb(255,207,0); fill-rule: nonzero; opacity: 1;" transform=" translate(1.42, -0.5269103135914045)" d="M 0 0 C -0.41 0.219 -1.7 1.139 -2.05 1.329 C -2.46 1.338 -2.86 1.313 -3.27 1.268 C -1.98 0.88 -0.22 -0.174 0.43 -0.277 C 0.31 -0.185 0.16 -0.083 0 0" stroke-linecap="round"/>
</g>
		<g transform="matrix(1.3333333559212015 0 0 -1.3333333559212015 19.27333365984093 -86.05066812444247)" id="path3440">
<path style="stroke: none; stroke-width: 1; stroke-dasharray: none; stroke-linecap: butt; stroke-dashoffset: 0; stroke-linejoin: miter; stroke-miterlimit: 4; fill: rgb(206,138,20); fill-rule: nonzero; opacity: 1;" transform=" translate(-4.785, -1.915)" d="M 0 0 C 2.95 1.656 6.88 3.039 8.71 3.171 C 9.05 3.204 9.19 3.287 9.35 3.287 C 9.49 3.561 9.57 3.83 9.57 3.83 C 6.94 3.419 1.37 1.501 0 0" stroke-linecap="round"/>
</g>
		<g transform="matrix(1.3333333559212015 0 0 -1.3333333559212015 12.94597269967358 -3.052000051703544)" id="path3444">
<path style="stroke: none; stroke-width: 1; stroke-dasharray: none; stroke-linecap: butt; stroke-dashoffset: 0; stroke-linejoin: miter; stroke-miterlimit: 4; fill: rgb(167,169,172); fill-rule: nonzero; opacity: 1;" transform=" translate(-4.659479360267895, -63.186)" d="m 0 0 c 0.03 -0.195 0.12 -0.319 0.47 -0.319 c 0.35 0 7.95 0.849 8.17 0.861 C 8.91 0.563 9 0.646 8.86 1.031 C 6.47 8.404 2.83 21.353 0.54 35.234 c -0.99 5.945 -1.79 17.081 -1.71 22.119 c 0.25 17.234 1.12 33.106 5.26 45.601 c 4.14 12.487 5.34 15.945 9.24 23.737 C 11.5 126.559 7.57 125.176 4.62 123.52 C 1.4 111.717 0.4 106.658 -0.26 103.309 C -2.94 89.723 -4.05 67.86 -4.01 57.581 C -3.97 45.241 -3.3 21.593 0 0" stroke-linecap="round"/>
</g>
		<g transform="matrix(1.3333333559212015 0 0 -1.3333333559212015 10.009571021183527 -1.3740000232767926)" id="path3448">
<path style="stroke: none; stroke-width: 1; stroke-dasharray: none; stroke-linecap: butt; stroke-dashoffset: 0; stroke-linejoin: miter; stroke-miterlimit: 4; fill: rgb(255,255,255); fill-rule: nonzero; opacity: 1;" transform=" translate(-1.9171781387092954, -26.693499999999993)" d="m 0 0 c -0.99 5.945 -1.79 17.081 -1.71 22.119 c 0.15 9.983 0.51 19.505 1.58 28.182 l 0 -0.01 c -0.55 0.873 -1.21 0.898 -1.73 -0.05 c 0.23 8.423 4.99 28.886 7.04 37.754 c 0.08 0.357 0.13 0.667 0.15 0.945 C 4.9 88.727 4.48 88.509 4.08 88.286 C 0.86 76.483 -0.14 71.424 -0.8 68.075 C -3.48 54.489 -4.59 32.626 -4.55 22.347 c 0.04 -12.34 0.71 -35.988 4.01 -57.581 c 0.03 -0.195 0.12 -0.319 0.47 -0.319 c 0.35 0 7.95 0.849 8.17 0.861 c 0.27 0.021 0.36 0.104 0.22 0.489 C 5.93 -26.83 2.29 -13.881 0 0" stroke-linecap="round"/>
</g>
		<g transform="matrix(1.3333333559212015 0 0 -1.3333333559212015 3.3600000569214385 -45.23066743291494)" id="path3452">
<path style="stroke: none; stroke-width: 1; stroke-dasharray: none; stroke-linecap: butt; stroke-dashoffset: 0; stroke-linejoin: miter; stroke-miterlimit: 4; fill: rgb(167,169,172); fill-rule: nonzero; opacity: 1;" transform=" translate(2.8899999999999992, 18.636000000000003)" d="m 0 0 c -0.35 -0.392 -1.2 -2.726 -2.17 -5.307 c -0.19 -0.989 -0.39 -2.024 -0.6 -3.13 c -1.28 -6.901 -2.37 -15.214 -3.01 -28.835 c 0.44 3.44 1.24 9.957 1.65 13.104 c 0.78 6.982 1.2 13.599 4.13 24.168" stroke-linecap="round"/>
</g>
		<g transform="matrix(1.3333333559212015 0 0 -1.3333333559212015 29.386667164503265 -90.59245410106125)" id="path3456">
<path style="stroke: none; stroke-width: 1; stroke-dasharray: none; stroke-linecap: butt; stroke-dashoffset: 0; stroke-linejoin: miter; stroke-miterlimit: 4; fill: rgb(255,235,168); fill-rule: nonzero; opacity: 1;" transform=" translate(3.83, -0.08433942475755596)" d="M 0 0 C -0.76 0.376 -3.09 1.379 -3.44 1.539 C -4.49 1.808 -6.42 1.076 -7.34 0.728 C -7.47 0.703 -7.66 0.57 -7.66 0.57 l 0.02 -0.409 l 0.72 -0.358 c 0.61 -0.205 2.1 -0.952 2.68 -1.231 c 0.01 -0.009 0.17 0.111 0.4 0.198 c 0.6 0.228 1.78 0.615 2.96 0.758 c 0.5 0.01 0.74 0.037 0.74 0.037 L 0 0" stroke-linecap="round"/>
</g>
		<g transform="matrix(1.3333333559212015 0 0 -1.3333333559212015 29.386667164503265 -89.9076828275442)" id="path3460">
<path style="stroke: none; stroke-width: 1; stroke-dasharray: none; stroke-linecap: butt; stroke-dashoffset: 0; stroke-linejoin: miter; stroke-miterlimit: 4; fill: rgb(206,138,20); fill-rule: nonzero; opacity: 1;" transform=" translate(-3.09, 0.2322390216797099)" d="m 0 0 c 0.61 -0.205 2.1 -0.952 2.68 -1.231 c 0.01 -0.009 0.17 0.111 0.4 0.198 c 0.6 0.228 1.78 0.615 2.96 0.758 c 0.5 0.01 0.74 0.037 0.74 0.037 L 6.92 0.197 C 5.43 0.445 3.07 -0.7 2.94 -0.815 C 2.8 -0.931 2.69 -0.95 2.61 -0.836 C 2.53 -0.72 -0.05 0.495 -0.74 0.767 L -0.72 0.358 L 0 0" stroke-linecap="round"/>
</g>
		<g transform="matrix(1.3333333559212015 0 0 -1.3333333559212015 17.400000294771655 -4.755622739515815)" id="path3464">
<path style="stroke: none; stroke-width: 1; stroke-dasharray: none; stroke-linecap: butt; stroke-dashoffset: 0; stroke-linejoin: miter; stroke-miterlimit: 4; fill: rgb(167,169,172); fill-rule: nonzero; opacity: 1;" transform=" translate(3.58, -63.234716994213386)" d="M 0 0 C -8.46 21.37 -11.3 41.705 -11.51 57.727 C -11.92 90.109 4.98 126.093 5 126.1 c -0.3 0.145 -0.84 0.414 -1.38 0.667 c 0.35 -0.373 0.82 -0.907 0.82 -0.907 c 0 0 -0.46 -0.994 -0.69 -1.46 c -0.23 -0.453 -11.4 -22.711 -14.52 -41.81 c -0.88 -7.861 -1.24 -16.636 -1.38 -26.475 c 0 -0.206 -0.01 -0.429 -0.01 -0.662 c 0 -5.129 0.75 -15.544 1.71 -21.352 C -7.88 18.56 -3.79 5.059 -2.16 0.017 l 0.03 -0.112 C -1.18 -0.189 0.09 -0.372 0.26 -0.265 C 0.14 -0.252 0.03 -0.119 0 0" stroke-linecap="round"/>
</g>
		<g transform="matrix(1.3333333559212015 0 0 -1.3333333559212015 26.806667120795826 -90.23040203199177)" id="path3468">
<path style="stroke: none; stroke-width: 1; stroke-dasharray: none; stroke-linecap: butt; stroke-dashoffset: 0; stroke-linejoin: miter; stroke-miterlimit: 4; fill: rgb(255,255,255); fill-rule: nonzero; opacity: 1;" transform=" translate(1.7850000000000001, -0.8248003775555938)" d="M 0 0 L 0.11 0.064 C -0.65 0.495 -2.36 1.326 -3.34 1.747 L -3.36 1.74 C -3.49 1.715 -3.68 1.582 -3.68 1.582 C -2.99 1.31 -0.41 0.095 -0.33 -0.021 C -0.25 -0.135 -0.14 -0.116 0 0" stroke-linecap="round"/>
</g>
		<g transform="matrix(1.3333333559212015 0 0 -1.3333333559212015 20.01545550205723 -4.972666750908118)" id="path3472">
<path style="stroke: none; stroke-width: 1; stroke-dasharray: none; stroke-linecap: butt; stroke-dashoffset: 0; stroke-linejoin: miter; stroke-miterlimit: 4; fill: rgb(128,130,133); fill-rule: nonzero; opacity: 1;" transform=" translate(-0.9815913722330762, -48.1335)" d="m 0 0 c -4.01 10.66 -7.71 24.524 -7.97 42.443 c -0.15 10.46 1.81 29.319 7.52 44.767 c 5.72 15.449 9.62 21.229 11.41 24.582 C 9.78 111.649 8.6 111.262 8 111.034 C 7.77 110.947 7.61 110.827 7.6 110.836 C 7.58 110.827 -9.32 74.844 -8.91 42.463 C -8.86 38.699 -8.66 34.688 -8.28 30.49 l 0 0.004 c -0.31 1.135 -0.55 1.73 -0.64 1.367 c -0.17 -0.618 -0.03 -2.907 0.15 -5.481 c 0.26 -2.8 0.58 -5.465 0.92 -7.543 c 0.87 -5.267 1.92 -10.285 2.98 -14.834 c -0.15 1.901 -0.48 5.337 -0.71 8.16 l 0 0.016 c 1.8 -8.759 4.44 -18 8.18 -27.443 c 0.03 -0.115 0.13 -0.244 0.25 -0.261 l 0.05 0.013 c 0.45 0.186 2.52 1.039 2.84 1.218 c 0.2 0.12 0.25 0.277 0.18 0.43 C 4.17 -9.931 2.03 -5.407 0 0" stroke-linecap="round"/>
</g>
		<g transform="matrix(1.3333333559212015 0 0 -1.3333333559212015 17.73193755577919 38.111333978973654)" id="path3476">
<path style="stroke: none; stroke-width: 1; stroke-dasharray: none; stroke-linecap: butt; stroke-dashoffset: 0; stroke-linejoin: miter; stroke-miterlimit: 4; fill: rgb(167,169,172); fill-rule: nonzero; opacity: 1;" transform=" translate(-7.228952941538156, 29.3495)" d="m 0 0 c -0.02 -0.957 -0.02 -1.875 -0.01 -2.727 c 0.26 -17.919 3.96 -31.783 7.97 -42.443 c 1.98 -5.257 4.05 -9.679 5.77 -13.529 c 0.22 0.004 0.49 0.029 0.57 0.029 c 0.1 0 0.25 0 0.13 0.195 C 14.32 -58.297 0.38 -33.691 0 0" stroke-linecap="round"/>
</g>
		<g transform="matrix(1.3333333559212015 0 0 -1.3333333559212015 30.26666717941122 -94.25466826342566)" id="path3480">
<path style="stroke: none; stroke-width: 1; stroke-dasharray: none; stroke-linecap: butt; stroke-dashoffset: 0; stroke-linejoin: miter; stroke-miterlimit: 4; fill: rgb(255,207,0); fill-rule: nonzero; opacity: 1;" transform=" translate(-0.13000000000000012, -0.7070000000000001)" d="m 0 0 l 0.06 -0.017 l 0.78 -0.34 c 0.4 -0.175 0.89 -0.393 1.36 -0.6 L 2.18 -0.94 c -0.34 0.211 -1.22 0.828 -2.3 1.366 c -0.36 0.226 -1.46 1.116 -1.55 1.219 c -0.09 0.105 -0.19 0.472 -0.1 0.726 c 0 0 -0.12 -0.148 -0.17 -0.239 C -1.88 1.438 -1.28 0.769 -0.6 0.07 C -0.39 0.066 -0.18 0.047 0 0" stroke-linecap="round"/>
</g>
		<g transform="matrix(1.3333333559212015 0 0 -1.3333333559212015 27.700000469262854 -94.1686682619687)" id="path3484">
<path style="stroke: none; stroke-width: 1; stroke-dasharray: none; stroke-linecap: butt; stroke-dashoffset: 0; stroke-linejoin: miter; stroke-miterlimit: 4; fill: rgb(167,169,172); fill-rule: nonzero; opacity: 1;" transform=" translate(1.195, -0.5725)" d="M 0 0 C -0.53 0.543 -1.01 1.068 -1.22 1.598 L -1.26 1.549 C -1.39 1.366 -1.88 0.488 -2.39 -0.453 C -1.53 -0.172 -0.7 0.016 0 0" stroke-linecap="round"/>
</g>
		<g transform="matrix(1.3333333559212015 0 0 -1.3333333559212015 30.39333384822374 -93.25933491323046)" id="path3488">
<path style="stroke: none; stroke-width: 1; stroke-dasharray: none; stroke-linecap: butt; stroke-dashoffset: 0; stroke-linejoin: miter; stroke-miterlimit: 4; fill: rgb(206,138,20); fill-rule: evenodd; opacity: 1;" transform=" translate(-0.22499999999999998, 0.03949999999999998)" d="M 0 0 L 0.06 -0.017 L 0.82 -0.352 C 0.36 -0.054 -0.07 0.206 -0.19 0.273 C -0.23 0.244 -0.3 0.157 -0.37 0.059 C -0.24 0.047 -0.11 0.031 0 0" stroke-linecap="round"/>
</g>
		<g transform="matrix(1.3333333559212015 0 0 -1.3333333559212015 28.013333807904413 -94.34800159834015)" id="path3492">
<path style="stroke: none; stroke-width: 1; stroke-dasharray: none; stroke-linecap: butt; stroke-dashoffset: 0; stroke-linejoin: miter; stroke-miterlimit: 4; fill: rgb(128,130,133); fill-rule: nonzero; opacity: 1;" transform=" translate(-0.49, -0.891)" d="M 0 0 C 0.52 0.126 1.01 0.196 1.45 0.184 C 0.92 0.727 0.44 1.252 0.23 1.782 L 0.19 1.733 C 0.09 1.608 -0.16 1.156 -0.47 0.586 C -0.25 0.449 -0.02 0.271 0.05 0.203 L 0 0" stroke-linecap="round"/>
</g>
		<g transform="matrix(1.3333333559212015 0 0 -1.3333333559212015 24.80000042013434 -89.84200152200445)" id="path3496">
<path style="stroke: none; stroke-width: 1; stroke-dasharray: none; stroke-linecap: butt; stroke-dashoffset: 0; stroke-linejoin: miter; stroke-miterlimit: 4; fill: rgb(167,169,172); fill-rule: nonzero; opacity: 1;" transform=" translate(-0.35, -0.25650000000000006)" d="M 0 0 L 0.23 -0.135 L 0.29 -0.168 C 0.46 0.13 0.61 0.375 0.7 0.538 C 0.7 0.538 0.54 0.604 0.37 0.681 C 0.2 0.367 0.07 0.126 0 0" stroke-linecap="round"/>
</g>
		<g transform="matrix(1.3333333559212015 0 0 -1.3333333559212015 30.416463650198196 -94.20200159586678)" id="path3500">
<path style="stroke: none; stroke-width: 1; stroke-dasharray: none; stroke-linecap: butt; stroke-dashoffset: 0; stroke-linejoin: miter; stroke-miterlimit: 4; fill: rgb(167,169,172); fill-rule: nonzero; opacity: 1;" transform=" translate(-1.9123473511869913, 0.9775)" d="m 0 0 c 0.09 -0.103 1.19 -0.993 1.55 -1.219 c 1.08 -0.538 1.96 -1.155 2.3 -1.366 L 3.96 -2.681 C 3.34 -1.911 2.62 -0.902 2.62 -0.902 C 1.19 -0.043 0.29 0.36 -0.1 0.726 C -0.19 0.472 -0.09 0.105 0 0" stroke-linecap="round"/>
</g>
		<g transform="matrix(1.3333333559212015 0 0 -1.3333333559212015 22.500000381170338 -95.42800161663632)" id="path3504">
<path style="stroke: none; stroke-width: 1; stroke-dasharray: none; stroke-linecap: butt; stroke-dashoffset: 0; stroke-linejoin: miter; stroke-miterlimit: 4; fill: rgb(255,255,255); fill-rule: nonzero; opacity: 1;" transform=" translate(-0.08499999999999996, -1.153)" d="M 0 0 C 0.29 0.625 0.57 1.196 0.84 1.652 L 0.69 1.768 C 0.64 1.813 -0.02 2.061 -0.67 2.306 C -0.41 1.553 -0.19 0.787 0 0" stroke-linecap="round"/>
</g>
		<g transform="matrix(1.3333333559212015 0 0 -1.3333333559212015 21.895240603462263 -96.23400163029066)" id="path3508">
<path style="stroke: none; stroke-width: 1; stroke-dasharray: none; stroke-linecap: butt; stroke-dashoffset: 0; stroke-linejoin: miter; stroke-miterlimit: 4; fill: rgb(128,130,133); fill-rule: nonzero; opacity: 1;" transform=" translate(-0.01143017440288593, -0.2565)" d="M 0 0 C 0.09 0 0.15 0.043 0.19 0.106 C 0.24 0.18 0.21 0.325 0.08 0.4 C 0.04 0.425 -0.06 0.466 -0.19 0.513 C -0.13 0.341 -0.06 0.176 0 0" stroke-linecap="round"/>
</g>
		<g transform="matrix(1.3333333559212015 0 0 -1.3333333559212015 23.44000039709473 -93.70066825404037)" id="path3512">
<path style="stroke: none; stroke-width: 1; stroke-dasharray: none; stroke-linecap: butt; stroke-dashoffset: 0; stroke-linejoin: miter; stroke-miterlimit: 4; fill: rgb(167,169,172); fill-rule: nonzero; opacity: 1;" transform=" translate(-0.42000000000000004, -1.7945)" d="M 0 0 C 0.56 1.254 1.17 2.765 1.21 2.936 L 1.14 3.026 C 1 3.148 0.78 3.341 0.47 3.589 C 0.21 3.133 -0.08 2.562 -0.37 1.937 C -0.22 1.3 -0.1 0.656 0 0" stroke-linecap="round"/>
</g>
		<g transform="matrix(1.3333333559212015 0 0 -1.3333333559212015 24.26220426777289 -96.05255842895743)" id="path3516">
<path style="stroke: none; stroke-width: 1; stroke-dasharray: none; stroke-linecap: butt; stroke-dashoffset: 0; stroke-linejoin: miter; stroke-miterlimit: 4; fill: rgb(206,138,20); fill-rule: nonzero; opacity: 1;" transform=" translate(0.2833471074380165, -0.6894176013054215)" d="M 0 0 C 0.06 -0.04 0.31 -0.058 0.41 -0.021 C 0.5 0.016 0.58 0.173 0.58 0.253 C 0.08 0.759 -0.71 1.399 -0.71 1.399 L -0.75 1.42 C -0.95 1.276 -1.19 1.055 -1.14 0.906 L -1 0.836 C -0.35 0.327 0 0 0 0" stroke-linecap="round"/>
</g>
		<g transform="matrix(1.3333333559212015 0 0 -1.3333333559212015 22.360000378798585 -97.21666831360461)" id="path3520">
<path style="stroke: none; stroke-width: 1; stroke-dasharray: none; stroke-linecap: butt; stroke-dashoffset: 0; stroke-linejoin: miter; stroke-miterlimit: 4; fill: rgb(255,235,168); fill-rule: nonzero; opacity: 1;" transform=" translate(-0.96, 0.6565)" d="m 0 0 c 0.11 -0.278 0.21 -0.559 0.31 -0.845 c 0.48 -0.182 0.98 -0.367 1.22 -0.468 c -0.05 0.149 0.19 0.37 0.39 0.514 C 1.15 -0.502 0.49 -0.211 0 0" stroke-linecap="round"/>
</g>
		<g transform="matrix(1.3333333559212015 0 0 -1.3333333559212015 -7.766666798241051 -87.19533481050088)" id="path3524">
<path style="stroke: none; stroke-width: 1; stroke-dasharray: none; stroke-linecap: butt; stroke-dashoffset: 0; stroke-linejoin: miter; stroke-miterlimit: 4; fill: rgb(255,207,0); fill-rule: nonzero; opacity: 1;" transform=" translate(20.555000000000003, 8.3915)" d="m 0 0 c -0.81 1.314 -2.11 3.035 -2.61 3.188 c -0.44 0.134 -1.09 0.07 -1.6 -0.021 c -0.05 0.182 -0.13 0.356 -0.22 0.517 c 0.79 0.17 2 0.261 2.32 -0.474 c 0.24 -0.068 0.8 -0.753 1.35 -1.579 c -1.09 2.105 -2.5 4.003 -4.16 5.651 c -0.19 0.149 -0.36 0.257 -0.43 0.291 c -0.09 0.048 -0.19 -0.013 -0.27 -0.1 l -0.01 0.156 c -0.01 0.113 0.06 0.162 0.16 0.177 c -3.93 3.645 -9.15 5.876 -14.9 5.876 c -12.26 0 -22.19 -10.064 -22.19 -22.485 c 0 -1.429 0.14 -2.82 0.39 -4.171 c 0.23 -0.284 0.59 -0.439 1.45 -0.308 c 0 2.647 0.22 4.604 0.5 5.562 c 0.14 -0.125 0.29 -0.208 0.47 -0.245 c -0.52 -1.149 -0.75 -2.744 -0.75 -5.212 c 0.19 -0.305 0.39 -0.768 0.59 -1.379 c 0.25 -0.757 2.54 -5.055 3.92 -6.118 c 0.26 -0.356 0.74 -0.037 1.07 -0.427 c -0.26 0.015 -0.59 0.032 -0.71 0.032 c -0.2 0 -0.4 -0.255 -0.35 -0.508 c 0.05 -0.254 0.4 -1.809 0.6 -2.678 c 0.12 -0.468 0.32 -1.021 0.58 -1.594 c 2.45 -2.12 5.34 -3.726 8.54 -4.616 c 0.53 0.058 1.64 0.029 2.58 0.009 c 2.72 0.467 2 0.852 1.89 1.069 c -0.67 1.253 -0.9 3.157 -0.94 3.654 c -0.04 0.495 -0.14 0.547 -0.31 0.635 c -2.72 1.344 -5.5 3.555 -5.84 3.836 c -0.34 0.284 -0.74 0.69 -1.03 0.815 c -0.15 0 -0.37 -0.25 -0.46 -0.5 l -0.08 -0.134 c -0.09 -0.618 -0.46 -1.737 -2.21 -1.638 c 0.26 0.02 0.56 0.089 0.91 0.226 c 1.17 0.448 1.14 1.79 1.1 2.005 c -0.04 0.219 -0.22 0.728 0 0.946 c 0.22 0.222 0.29 0.843 -0.04 1.749 c -0.13 0.369 -0.07 0.729 0.29 1.021 c 0.37 0.294 1.21 0.837 1.17 1.494 c -0.04 0.656 -0.22 2.039 -0.51 2.587 c -0.29 0.545 -0.59 0.909 -0.29 1.273 c 0.29 0.365 0.87 0.948 0.87 1.607 c 0 0.182 0.08 0.467 0.29 0.577 c 0.22 0.11 2.15 1.752 2.66 3.573 c 0.15 0.526 0.31 0.673 0.27 0.772 c 0.04 -0.096 0.09 -0.248 -0.05 -0.52 c -0.14 -0.275 -0.1 -0.618 -0.3 -0.94 c -0.21 -0.32 -0.26 -1.427 -2.47 -3.086 c -0.1 -0.079 -0.15 -0.249 -0.18 -0.405 c 0.33 -0.72 1.02 -1.437 1.26 -1.764 c 0.34 -0.459 0.46 -0.36 0.72 -0.36 c 0.24 0 5.37 -0.101 6.6 -0.085 c 0.65 0.466 1.31 0.834 2.11 1.26 l 0.2 0.104 c 0.77 1.302 1.82 3.3 2.48 4.597 c -0.52 0.528 -0.82 1.633 -0.87 1.853 c -0.08 0.35 -0.32 0.94 -0.57 1.236 c -0.24 0.296 -0.51 1.127 -0.56 1.241 c -0.06 0.106 -0.49 0.106 -0.7 0.264 c -0.21 0.163 -0.21 0.484 -0.35 0.859 c -0.13 0.374 -0.86 0.829 -1.31 0.886 c -0.46 0.054 -1.11 -0.296 -1.59 -0.268 c -0.48 0.025 -1.1 0.832 -1.32 0.887 c -0.21 0.053 -1.13 -0.245 -1.29 -0.245 c -0.16 0 -1.1 1.13 -1.31 1.292 c -0.2 0.147 -0.26 -0.218 -0.25 -0.484 c -0.08 0.105 -0.15 0.185 -0.19 0.211 c -0.13 0.066 -0.34 0.629 0.01 0.815 c 0.34 0.186 0.41 -0.066 0.57 -0.341 c 0.16 -0.278 0.44 -0.4 0.61 -0.53 c 0.17 -0.13 0.28 -0.528 0.58 -0.54 c 0.3 -0.011 0.5 0.223 0.95 0.223 c 0.82 0 1.16 -0.933 1.66 -0.933 c 0.52 0 0.49 0.244 1.2 0.244 c 0.7 0 1.48 -0.33 1.81 -0.785 c 0.31 -0.447 0.18 -0.766 0.54 -0.934 c 0.35 -0.163 0.56 -0.185 0.68 -0.535 c 0.12 -0.36 0.15 -0.687 0.31 -0.92 c 0.15 -0.233 0.51 -0.575 0.67 -0.96 c 0.21 -0.521 0.08 -0.768 0.36 -1.192 c 0.32 -0.518 0.65 -1.308 0.89 -1.308 c 0.26 0 0.66 0.494 0.88 0.638 c 0.1 -0.187 0.13 -0.384 0.12 -0.676 c -0.01 -0.294 -0.11 -0.966 0.11 -1.008 c 0.12 -0.023 0.37 -0.08 0.59 0.015 c -0.28 -0.534 -0.7 -0.389 -0.93 0 c -0.15 0.269 -0.16 0.683 -0.11 0.998 c -0.28 -0.253 -0.54 -0.31 -0.77 -0.253 c -0.52 -1.043 -1.4 -2.672 -2.16 -3.95 c 1.5 0.804 3.69 1.876 6.92 1.876 l 0.59 0 l 0.07 -3.432 l -0.01 -0.054 c -0.01 -0.053 -0.09 -0.426 -0.4 -0.745 c -0.52 -2.658 -0.98 -5.169 -1.39 -7.605 c 0.17 0.017 0.32 0.041 0.39 0.095 c 0.25 0.182 1.17 4.231 1.47 4.641 l 0.02 0.02 c 0.62 2.385 1.17 4.2 1.68 5.78 c -0.45 0.248 -0.66 0.368 -0.7 0.424 l -0.33 0.603 l 0.58 0.326 c -0.28 0.779 -0.34 1.665 -0.35 1.872 c -0.01 0.336 -0.19 0.687 -0.26 0.968 c -0.07 0.282 0.16 0.423 0.29 0.487 c -0.15 -0.064 0.09 -0.455 0.1 -0.627 c 0.02 -0.17 0.19 -0.373 0.19 -0.75 c 0 -0.695 0.12 -1.291 0.3 -1.8 c 0.34 0.19 0.67 0.368 1 0.542 l -0.08 0.253 c -0.27 1.166 0.07 1.542 0.32 1.676 l -0.14 -0.174 c -0.19 -0.186 -0.02 -1.314 0.01 -1.532 l 0.03 -0.149 c 0.62 0.329 1.2 0.605 1.77 0.874 c -0.55 1.101 -1.2 1.987 -1.85 2.12 c -0.79 0.165 -1.46 -0.141 -1.66 0.372 c -1.16 0.063 -4.38 0.124 -5.38 -0.066 c 0 0.149 -0.01 0.292 -0.01 0.431 c 1.57 0.05 5.36 0.031 5.59 0.031 c 0.04 0.312 -0.17 1.024 -0.34 1.322 c 0.08 0.15 0.14 0.324 0.23 0.338 c 0.19 0.035 0.37 -0.627 0.37 -0.921 c -0.02 -0.293 0.15 -1.056 0.5 -1.067 c 0.34 -0.01 0.46 0.335 0.7 0.335 c 0.37 0 1.23 -1.489 1.47 -1.605 c 0.07 -0.035 0.15 0.01 0.26 0.122 c 0.2 -0.415 0.4 -0.833 0.57 -1.201 c 1.98 0.888 3.69 1.404 5.2 1.573 c 0.37 0.042 0.71 0.05 1.04 0.05 C 1.16 -3.18 0.66 -1.55 0 0" stroke-linecap="round"/>
</g>
		<g transform="matrix(1.3333333559212015 0 0 -1.3333333559212015 -19.16484888767519 -77.89233970461386)" id="path3528">
<path style="stroke: none; stroke-width: 1; stroke-dasharray: none; stroke-linecap: butt; stroke-dashoffset: 0; stroke-linejoin: miter; stroke-miterlimit: 4; fill: rgb(206,138,20); fill-rule: nonzero; opacity: 1;" transform=" translate(0.07363642225399447, 4.89874621121443)" d="m 0 0 c -0.06 -0.181 -0.17 -0.391 -0.37 -0.565 c -0.37 -0.318 -0.59 -0.594 -0.46 -0.961 c 0.14 -0.365 1.03 -2.373 0.78 -3.427 c -0.25 -1.052 -1.48 -1.6 -1.48 -1.944 c 0 -0.343 0.36 -1.117 0.31 -1.481 c -0.04 -0.37 -0.38 -0.851 -0.36 -1.054 c 0.01 -0.094 0.06 -0.213 0.1 -0.342 c 0.27 0.068 0.34 -0.041 0.54 -0.021 c 0 0.191 0.66 2.781 1.06 4.058 c 0.4 1.283 1.16 3.274 1.22 3.465 C 1.4 -2.086 1.5 -1.9 1.37 -1.714 C 1.27 -1.564 0.48 -0.588 0 0" stroke-linecap="round"/>
</g>
		<g transform="matrix(1.3333333559212015 0 0 -1.3333333559212015 1.7517293207717322 -91.4482816867234)" id="path3532">
<path style="stroke: none; stroke-width: 1; stroke-dasharray: none; stroke-linecap: butt; stroke-dashoffset: 0; stroke-linejoin: miter; stroke-miterlimit: 4; fill: rgb(206,138,20); fill-rule: nonzero; opacity: 1;" transform=" translate(0.28620303167806604, 0.6227898968696504)" d="m 0 0 c -0.28 0.033 -0.69 -0.054 -0.99 -0.067 c 0.01 -0.134 0.01 -0.263 0.01 -0.392 c 0.19 0.277 0.79 -0.099 1.02 -0.794 C 0.42 -0.629 0.67 -0.079 0 0" stroke-linecap="round"/>
</g>
		<g transform="matrix(1.3333333559212015 0 0 -1.3333333559212015 -10.033333503307137 -87.4881892328793)" id="path3536">
<path style="stroke: none; stroke-width: 1; stroke-dasharray: none; stroke-linecap: butt; stroke-dashoffset: 0; stroke-linejoin: miter; stroke-miterlimit: 4; fill: rgb(206,138,20); fill-rule: nonzero; opacity: 1;" transform=" translate(5.825, 3.8788591869371265)" d="m 0 0 c -0.84 -0.94 -2.1 -2.935 -2.45 -3.277 c -0.45 -0.455 -1 1.354 -1.4 1.354 c -0.4 0 -1.26 -1.809 -2.22 -2.366 c -0.74 -0.428 -3.47 -0.033 -4.85 0.426 c -0.33 -0.378 -0.78 -0.802 -1.41 -1.279 c -0.1 -0.079 -0.15 -0.249 -0.18 -0.405 c 0.33 -0.72 1.02 -1.437 1.26 -1.764 c 0.34 -0.459 0.46 -0.36 0.72 -0.36 c 0.24 0 5.37 -0.101 6.6 -0.085 c 0.65 0.466 1.31 0.834 2.11 1.26 l 0.2 0.104 c 0.77 1.302 1.82 3.3 2.48 4.597 C 0.37 -1.3 0.08 -0.304 0 0" stroke-linecap="round"/>
</g>
		<g transform="matrix(1.3333333559212015 0 0 -1.3333333559212015 -9.193333489076704 -62.478908185828274)" id="path3540">
<path style="stroke: none; stroke-width: 1; stroke-dasharray: none; stroke-linecap: butt; stroke-dashoffset: 0; stroke-linejoin: miter; stroke-miterlimit: 4; fill: rgb(206,138,20); fill-rule: nonzero; opacity: 1;" transform=" translate(-0.875, 1.70281965446553)" d="m 0 0 c 0.06 -0.209 0.38 -1.865 0.52 -2.465 c 0.13 -0.6 0.6 -1.712 0.79 -1.877 c 0.04 -0.04 0.23 -0.042 0.44 -0.023 C 1.74 -2.512 1.71 -0.793 1.65 0.971 C 1.2 0.756 0.18 0.173 0 0" stroke-linecap="round"/>
</g>
		<g transform="matrix(1.3333333559212015 0 0 -1.3333333559212015 -14.01759246928471 -73.53956608428115)" id="path3544">
<path style="stroke: none; stroke-width: 1; stroke-dasharray: none; stroke-linecap: butt; stroke-dashoffset: 0; stroke-linejoin: miter; stroke-miterlimit: 4; fill: rgb(206,138,20); fill-rule: nonzero; opacity: 1;" transform=" translate(3.543194173860572, 5.199326371159025)" d="M 0 0 L 0.02 0.266 L 0.18 0.419 C 0.38 0.613 0.57 0.771 0.76 0.934 C -0.78 1.12 -4.75 1.106 -5.14 1.091 C -5.63 1.073 -5.67 0.867 -5.71 0.737 C -5.74 0.606 -6.66 -2.37 -6.89 -3.026 c -0.23 -0.659 -0.94 -3.481 -0.99 -3.651 c -0.06 -0.17 -0.06 -0.319 0.11 -0.356 c 0.09 -0.021 1.56 -1.28 3.12 -2.351 c 1.51 -1.035 3.09 -1.893 3.27 -1.994 c 0.36 -0.207 0.45 -0.095 0.54 -0.036 c 0.1 0.055 1.39 0.713 1.67 0.924 c -0.08 2.14 -0.19 4.369 -0.34 7.03 c -0.09 0.049 -0.22 0.153 -0.51 0.484 l -0.14 0.163 l 0 0.437 c 0 0.845 0.08 1.664 0.13 2.122 L 0 0" stroke-linecap="round"/>
</g>
		<g transform="matrix(1.3333333559212015 0 0 -1.3333333559212015 -23.148318430731788 -77.24266797522706)" id="path3548">
<path style="stroke: none; stroke-width: 1; stroke-dasharray: none; stroke-linecap: butt; stroke-dashoffset: 0; stroke-linejoin: miter; stroke-miterlimit: 4; fill: rgb(206,138,20); fill-rule: nonzero; opacity: 1;" transform=" translate(10.301238528933803, -13.531)" d="m 0 0 c -0.67 1.253 -0.9 3.157 -0.94 3.654 c -0.04 0.495 -0.14 0.547 -0.31 0.635 c -2.72 1.344 -5.5 3.555 -5.84 3.836 c -0.34 0.284 -0.74 0.69 -1.03 0.815 c -0.15 0 -0.37 -0.25 -0.46 -0.5 L -8.66 8.306 c -0.09 -0.618 -0.46 -1.737 -2.21 -1.638 c 0.26 0.02 0.56 0.089 0.91 0.226 c 1.17 0.448 1.14 1.79 1.1 2.005 c -0.04 0.219 -0.22 0.728 0 0.946 c 0.22 0.222 0.29 0.843 -0.04 1.749 c -0.13 0.369 -0.07 0.729 0.29 1.021 c 0.37 0.294 1.21 0.837 1.17 1.494 c -0.04 0.656 -0.22 2.039 -0.51 2.587 c -0.29 0.545 -0.59 0.909 -0.29 1.273 c 0.29 0.365 0.87 0.948 0.87 1.607 c 0 0.182 0.08 0.467 0.29 0.577 c 0.11 0.056 0.67 0.507 1.25 1.175 c -0.25 0.098 -0.43 0.197 -0.51 0.288 l -13.15 6.517 c -0.83 -2.362 -1.28 -4.897 -1.28 -7.549 c 0 -1.429 0.14 -2.821 0.39 -4.174 c 0.23 -0.281 0.59 -0.436 1.45 -0.305 c 0 2.647 0.22 4.604 0.5 5.562 c 0.14 -0.125 0.29 -0.208 0.47 -0.245 c -0.52 -1.149 -0.75 -2.744 -0.75 -5.212 c 0.19 -0.305 0.39 -0.768 0.59 -1.379 c 0.25 -0.757 2.54 -5.055 3.92 -6.118 c 0.26 -0.356 0.74 -0.037 1.07 -0.427 c -0.26 0.015 -0.59 0.032 -0.71 0.032 c -0.2 0 -0.4 -0.255 -0.35 -0.508 c 0.05 -0.254 0.4 -1.809 0.6 -2.678 c 0.11 -0.459 0.31 -1.006 0.57 -1.571 c 2.46 -2.135 5.38 -3.745 8.59 -4.632 c 0.56 0.046 1.63 0.022 2.54 0.002 c 2.72 0.467 2 0.852 1.89 1.069" stroke-linecap="round"/>
</g>
		<g transform="matrix(1.3333333559212015 0 0 -1.3333333559212015 -31.88518333026971 -72.46000122753773)" id="path3552">
<path style="stroke: none; stroke-width: 1; stroke-dasharray: none; stroke-linecap: butt; stroke-dashoffset: 0; stroke-linejoin: miter; stroke-miterlimit: 4; fill: rgb(206,138,20); fill-rule: nonzero; opacity: 1;" transform=" translate(2.3338870925794706, -1.306)" d="M 0 0 C -1.7 1.84 -3.99 5.481 -4.1 7.063 L -4.17 7.129 L -4.23 7.125 C -4.57 7.1 -5.32 7.1 -5.46 7.1 C -5.53 7.1 -5.56 6.709 -5.48 6.065 C -4.37 1.946 -2.15 -1.701 0.86 -4.517 C 0.24 -2.834 -0.24 -0.89 -0.17 -0.629 C -0.1 -0.35 0.2 -0.207 0 0" stroke-linecap="round"/>
</g>
		<g transform="matrix(1.3333333559212015 0 0 -1.3333333559212015 -0.6066666769440827 -87.75600148666575)" id="path3556">
<path style="stroke: none; stroke-width: 1; stroke-dasharray: none; stroke-linecap: butt; stroke-dashoffset: 0; stroke-linejoin: miter; stroke-miterlimit: 4; fill: rgb(206,138,20); fill-rule: nonzero; opacity: 1;" transform=" translate(0.915, 0.8879999999999999)" d="M 0 0 C -0.15 0.269 -0.16 0.683 -0.11 0.998 C -0.24 0.877 -0.37 0.803 -0.5 0.762 c 0.05 -0.427 -0.84 -2.085 -1.69 -3.536 c 0.61 0.296 1.3 0.596 2.11 0.847 c 0.13 0.596 0.3 1.19 0.44 1.616 C 0.22 -0.264 0.09 -0.162 0 0" stroke-linecap="round"/>
</g>
		<g transform="matrix(1.3333333559212015 0 0 -1.3333333559212015 15.117565044797647 -103.44460755451385)" id="path3560">
<path style="stroke: none; stroke-width: 1; stroke-dasharray: none; stroke-linecap: butt; stroke-dashoffset: 0; stroke-linejoin: miter; stroke-miterlimit: 4; fill: rgb(206,138,20); fill-rule: nonzero; opacity: 1;" transform=" translate(1.2818264084805842, -0.5854543515517412)" d="M 0 0 C 0.25 -0.07 0.86 -0.821 1.43 -1.703 C 0.67 -0.2 -0.27 1.195 -1.34 2.482 C -1.32 2.39 -1.31 2.302 -1.28 2.251 C -1.36 2.109 -1.39 2.023 -1.34 1.855 C -1.28 1.688 -1.31 1.316 -1.48 1.205 C -1.65 1.09 -1.99 1.627 -2.1 1.882 C -2.12 1.714 -2.24 1.625 -2.28 1.551 C -2.33 1.477 -2.73 1.971 -3.13 2.395 C -3.51 2.809 -3.92 2.978 -3.99 2.809 C -4.04 2.647 -3.56 2.317 -3.57 2.107 C -3.59 1.896 -3.31 1.414 -2.93 1.066 C -2.67 0.935 -2.48 0.719 -2.33 0.469 l 0.01 0.005 C -1.53 0.644 -0.32 0.735 0 0" stroke-linecap="round"/>
</g>
		<g transform="matrix(1.3333333559212015 0 0 -1.3333333559212015 17.820000301886953 -96.88717161554862)" id="path3564">
<path style="stroke: none; stroke-width: 1; stroke-dasharray: none; stroke-linecap: butt; stroke-dashoffset: 0; stroke-linejoin: miter; stroke-miterlimit: 4; fill: rgb(206,138,20); fill-rule: nonzero; opacity: 1;" transform=" translate(1.4249999999999994, 1.031622519355511)" d="m 0 0 c -0.81 1.327 -2.16 3.121 -2.67 3.279 c -0.44 0.134 -1.09 0.07 -1.6 -0.021 c 0.03 -0.132 0.06 -0.269 0.07 -0.401 c 0.17 -0.283 0.25 -0.634 0.29 -0.957 c 0.99 -1.356 1.48 -4.901 1.65 -7.319 c 0.94 0.29 1.8 0.484 2.61 0.575 c 0.38 0.042 0.73 0.05 1.07 0.052 C 1.13 -3.119 0.63 -1.521 0 0" stroke-linecap="round"/>
</g>
		<g transform="matrix(1.3333333559212015 0 0 -1.3333333559212015 3.7533333969180953 -65.0066677679382)" id="path3568">
<path style="stroke: none; stroke-width: 1; stroke-dasharray: none; stroke-linecap: butt; stroke-dashoffset: 0; stroke-linejoin: miter; stroke-miterlimit: 4; fill: rgb(206,138,20); fill-rule: nonzero; opacity: 1;" transform=" translate(0.3350000000000001, 4.454)" d="m 0 0 c -0.5 -3.043 -0.94 -5.982 -1.3 -8.908 l 0.21 0.003 c 0.63 3.353 1.19 6.148 1.72 8.522 C 0.62 -0.118 0.35 -0.033 0 0" stroke-linecap="round"/>
</g>
		<g transform="matrix(1.3333333559212015 0 0 -1.3333333559212015 5.880000099612557 -75.86066795181469)" id="path3572">
<path style="stroke: none; stroke-width: 1; stroke-dasharray: none; stroke-linecap: butt; stroke-dashoffset: 0; stroke-linejoin: miter; stroke-miterlimit: 4; fill: rgb(206,138,20); fill-rule: nonzero; opacity: 1;" transform=" translate(-1.2, -3.3535)" d="m 0 0 c 0.16 0.015 0.31 0.044 0.38 0.093 c 0.25 0.182 1.17 4.231 1.47 4.641 l 0.02 0.02 C 2.05 5.454 2.23 6.097 2.4 6.707 C 1.91 6.343 1.43 5.955 1 5.611 C 0.63 3.674 0.3 1.824 0 0" stroke-linecap="round"/>
</g>
		<g transform="matrix(1.3333333559212015 0 0 -1.3333333559212015 -10.960000185672296 -92.25894832478829)" id="path3576">
<path style="stroke: none; stroke-width: 1; stroke-dasharray: none; stroke-linecap: butt; stroke-dashoffset: 0; stroke-linejoin: miter; stroke-miterlimit: 4; fill: rgb(167,169,172); fill-rule: nonzero; opacity: 1;" transform=" translate(19.560000000000002, 10.054789928621066)" d="m 0 0 c -0.03 0.064 -0.06 0.165 -0.07 0.287 c -0.41 0.486 -0.84 0.946 -1.29 1.396 l 0 -0.003 c -0.28 0.257 -0.51 0.387 -0.6 0.432 c -0.09 0.048 -0.19 -0.013 -0.27 -0.1 l -0.01 0.156 c -0.01 0.116 0.07 0.169 0.17 0.179 c -3.36 3.096 -7.63 5.182 -12.39 5.729 c -0.53 -0.124 -0.98 -0.261 -1.09 -0.355 c -0.83 0.036 -2.44 0.226 -2.82 -0.377 c -1.09 -0.112 -3.32 -0.941 -3.43 -0.828 c -0.1 0.103 0.43 0.811 0.35 1.241 c -9.67 -2.003 -17.05 -10.374 -17.67 -20.608 c 0.25 -0.353 0.42 -0.728 0.74 -0.691 c 0.32 0.037 0.76 0.414 1.1 0.996 c 0.29 -0.58 0.62 -0.909 1.17 -0.909 c -0.08 -0.658 -0.05 -1.959 0.07 -2.368 c 0.22 -0.729 1.06 -1.784 1.24 -2.517 c 0.18 -0.724 0 -2.401 0.14 -3.022 c 0.15 -0.615 1.61 -3.163 2.05 -3.821 c 0.43 -0.657 1.31 -1.639 1.82 -2.227 c 0.51 -0.58 1.02 -1.087 2.43 -0.544 c 1.17 0.448 1.14 1.79 1.1 2.005 c -0.04 0.219 -0.22 0.728 0 0.946 c 0.22 0.222 0.29 0.843 -0.04 1.749 c -0.13 0.369 -0.07 0.729 0.29 1.021 c 0.37 0.294 1.21 0.837 1.17 1.494 c -0.04 0.656 -0.22 2.039 -0.51 2.587 c -0.29 0.545 -0.59 0.909 -0.29 1.273 c 0.29 0.365 0.87 0.948 0.87 1.607 c 0 0.182 0.08 0.467 0.29 0.577 c 0.22 0.11 2.15 1.752 2.66 3.573 c 0.15 0.526 0.31 0.673 0.27 0.772 c -0.03 0.099 -0.22 0.422 -0.97 0.422 c -0.75 0 -1.35 -0.662 -1.73 -0.662 c -0.15 0 -0.3 0.24 -0.33 0.405 c -0.04 0.166 -0.31 1.215 -1.18 1.779 c -0.21 0.859 -0.73 2.665 -0.87 3.02 c -0.14 0.354 -0.18 0.823 -0.03 1.183 c 0.15 0.386 0.32 0.667 0.56 -0.055 c 0.15 -0.466 0.45 -1.406 0.73 -1.613 c 0.06 -0.605 0.18 -1.088 0.64 -1.339 c 0.03 -0.565 0.2 -0.886 0.53 -1.066 c 0.01 -0.406 0.15 -1.167 0.42 -1.399 c 0.28 -0.232 2.34 0.141 3.73 1.399 c 0.34 0.058 0.52 0.089 1.1 0.596 c 0.59 0.514 1.33 1.116 1.47 1.238 c 0.14 0.12 0.22 0.625 -0.08 0.658 c -0.29 0.033 -0.86 -0.033 -1.01 0.441 c -0.1 0.296 -0.15 0.598 -0.45 0.608 c -0.4 0.015 -0.6 -0.622 -1.26 -0.542 c -0.27 0.031 -0.41 0.509 -0.61 0.706 c -0.2 0.199 -0.47 0.687 -0.6 0.754 c -0.13 0.066 -0.34 0.629 0.01 0.815 c 0.34 0.186 0.41 -0.066 0.57 -0.341 c 0.16 -0.278 0.44 -0.4 0.61 -0.53 c 0.17 -0.13 0.28 -0.528 0.58 -0.54 c 0.3 -0.011 0.5 0.223 0.95 0.223 c 0.82 0 1.16 -0.933 1.66 -0.933 c 0.52 0 0.49 0.244 1.2 0.244 c 0.7 0 1.48 -0.33 1.81 -0.785 c 0.31 -0.447 0.18 -0.766 0.54 -0.934 c 0.35 -0.163 0.56 -0.185 0.68 -0.535 c 0.12 -0.36 0.15 -0.687 0.31 -0.92 c 0.15 -0.233 0.51 -0.575 0.67 -0.96 c 0.21 -0.521 0.08 -0.768 0.36 -1.192 c 0.32 -0.518 0.65 -1.308 0.89 -1.308 c 0.26 0 0.66 0.494 0.88 0.638 c 0.1 -0.187 0.13 -0.384 0.12 -0.676 c -0.01 -0.294 -0.11 -0.966 0.11 -1.008 c 0.22 -0.041 0.95 -0.217 0.93 0.777 c -0.02 0.993 -0.88 1.622 -1.11 1.283 c -0.01 0.817 -0.05 1.823 -0.06 1.978 c 0.58 0.638 1.21 1.243 1.64 1.729 c 0.43 0.483 0.96 1.074 1.3 1.252 c 0.38 -0.062 1.65 -1.097 1.68 -1.554 c 0.03 -0.466 0.16 -0.984 0.26 -1.05 c 0.37 -0.244 0.44 0.481 0.63 0.512 c 0.19 0.035 0.37 -0.627 0.37 -0.921 c -0.02 -0.293 0.15 -1.056 0.5 -1.067 c 0.34 -0.01 0.46 0.335 0.7 0.335 c 0.37 0 1.23 -1.489 1.47 -1.605 c 0.23 -0.119 0.6 0.569 1.09 1.711 c 0.23 0.53 -0.06 1.025 -0.23 1.193 c -0.17 0.166 -1.42 1.081 -1.39 1.444 c 0.03 0.367 0.32 0.715 0.62 0.715 c 0.3 0 0.77 0.006 0.88 0.085 c 0.25 0.178 0.1 0.672 0.31 0.79 c 0.2 0.108 0.37 0.245 0.46 0.452 c 0.09 0.211 0.1 1.187 -0.26 1.805 c -0.04 0.588 -0.36 1.225 -0.9 1.51 c -0.38 0.348 -0.66 0.83 -0.64 1.041 c 0.01 0.21 -0.47 0.54 -0.42 0.702 c 0.07 0.169 0.48 0 0.86 -0.414 c 0.4 -0.424 0.8 -0.918 0.85 -0.844 c 0.04 0.074 0.16 0.163 0.18 0.331 c 0.11 -0.255 0.45 -0.792 0.62 -0.677 c 0.17 0.111 0.2 0.483 0.14 0.65 C -0.11 -0.228 -0.08 -0.142 0 0" stroke-linecap="round"/>
</g>
		<g transform="matrix(1.3333333559212015 0 0 -1.3333333559212015 -9.993333502629405 -98.59052116163342)" id="path3580">
<path style="stroke: none; stroke-width: 1; stroke-dasharray: none; stroke-linecap: butt; stroke-dashoffset: 0; stroke-linejoin: miter; stroke-miterlimit: 4; fill: rgb(255,255,255); fill-rule: nonzero; opacity: 1;" transform=" translate(13.825000000000003, 7.690110381434149)" d="M 0 0 C -4.22 4.095 -9.4 4.603 -13.34 4.566 C -17.29 4.527 -19.59 2.3 -19.9 1.949 c -0.31 -0.349 -0.74 -1.17 -1.24 -2.338 c -0.15 -0.34 0.03 -0.195 -0.32 -0.783 c -0.35 -0.587 -0.9 -0.819 -1.34 -0.984 c -0.32 -0.121 -0.57 -0.655 -0.88 -1.085 c -0.31 -0.431 -0.94 -0.855 -0.94 -0.855 c 0 0 -2.22 1.595 -3.24 -0.506 c -3.08 -3.437 -4.29 -7.689 -4.29 -8.819 c 0 -1.133 0.63 -1.834 1.05 -2.418 c -0.08 -0.658 -0.05 -1.959 0.07 -2.368 c 0.15 -0.497 0.58 -1.145 0.9 -1.741 l 0 0.002 c -0.2 1.064 -0.47 2.621 -0.29 3.134 c 0.22 0.681 0.59 0.137 0.81 -0.457 c 0.23 -0.586 3.64 -2.774 5.19 -2.23 c 1.55 0.549 3.69 3.049 2.67 8.709 c -0.21 0.859 -0.73 2.665 -0.87 3.02 c -0.14 0.354 -0.18 0.823 -0.03 1.183 c 0.15 0.386 0.32 0.667 0.56 -0.055 c 0.15 -0.466 0.45 -1.406 0.73 -1.613 c 0.06 -0.605 0.18 -1.088 0.64 -1.339 l 0.02 -0.123 c 0.71 0.872 1.55 1.955 2.11 2.094 c 0.18 0.045 0.49 -0.363 0.41 -0.773 c -0.09 -0.405 -0.23 -0.952 -0.05 -0.952 c 0.18 0 1.46 0.364 1.96 0.228 c 0.43 -0.116 1.28 -0.493 2.4 -0.042 c 0.19 0.158 0.35 0.288 0.4 0.336 l 0.1 0.203 c -0.43 -0.17 -0.78 -0.271 -1.08 -0.271 c -0.37 0 -1.91 0.409 -2.05 0.589 c -0.13 0.182 -0.14 0.775 -0.41 1.003 c -0.26 0.214 -1.17 1.461 -0.72 1.738 l 0.01 -0.002 l 0.15 0.18 c 0.34 0.186 0.41 -0.066 0.57 -0.341 c 0.16 -0.278 0.44 -0.4 0.61 -0.53 c 0.17 -0.13 0.28 -0.528 0.58 -0.54 c 0.3 -0.011 0.5 0.223 0.95 0.223 c 0.82 0 1.16 -0.933 1.66 -0.933 c 0.52 0 0.49 0.244 1.2 0.244 c 0.7 0 1.48 -0.33 1.81 -0.785 c 0.09 -0.133 0.14 -0.248 0.18 -0.357 l 0 0.001 c 0.54 -0.464 1.29 -0.985 1.56 -1.06 c 0.32 -0.091 0.81 -0.286 1.59 -0.297 c 0.57 -0.011 1.52 -0.124 3.33 1.339 c 0.22 0.223 0.43 0.411 0.6 0.498 c 1.12 -0.244 1.93 0.273 2.25 0.273 c 0.32 0 0.7 -0.736 0.91 -0.91 c 0.22 -0.178 1.31 -0.071 1.77 0.244 c -0.02 -0.234 0.06 -0.368 0.17 -0.457 l 0.01 -0.011 c 0.09 0.307 0.33 0.574 0.59 0.574 c 0.3 0 0.77 0.006 0.88 0.085 c 0.25 0.178 0.1 0.672 0.31 0.79 c 0.19 0.101 0.34 0.234 0.44 0.427 C 4.07 -5.4 2.96 -2.886 0 0" stroke-linecap="round"/>
</g>
		<g transform="matrix(1.3333333559212015 0 0 -1.3333333559212015 -15.513855685223401 -75.21678104480714)" id="path3584">
<path style="stroke: none; stroke-width: 1; stroke-dasharray: none; stroke-linecap: butt; stroke-dashoffset: 0; stroke-linejoin: miter; stroke-miterlimit: 4; fill: rgb(167,169,172); fill-rule: nonzero; opacity: 1;" transform=" translate(-1.0346084331965093, -2.2475848279252952)" d="M 0 0 C -0.25 0.068 -0.91 1.35 -0.23 1.685 C -0.14 1.954 -0.35 3.113 -0.11 3.188 C 0.13 3.259 0.58 3.713 0.7 3.885 C 0.83 4.057 1.33 4.2 1.73 4.08 C 2 4.488 2.31 4.683 2.53 4.367 C 2.74 4.057 2.4 3.494 2.34 3.259 C 2.24 2.896 1.66 1.979 1.52 1.589 C 1.38 1.209 1.04 0.22 0.92 0.123 C 0.66 0 0.27 -0.072 0 0" stroke-linecap="round"/>
</g>
		<g transform="matrix(1.3333333559212015 0 0 -1.3333333559212015 -13.154747868872983 -106.79457215725478)" id="path3588">
<path style="stroke: none; stroke-width: 1; stroke-dasharray: none; stroke-linecap: butt; stroke-dashoffset: 0; stroke-linejoin: miter; stroke-miterlimit: 4; fill: rgb(255,207,0); fill-rule: nonzero; opacity: 1;" transform=" translate(0.9260607345147517, 1.3300722389561166)" d="m 0 0 c -0.08 0.244 -0.55 0.401 -0.77 0.277 c -0.22 -0.124 -0.4 -0.523 -0.65 -0.645 c -0.25 -0.124 -0.46 -0.222 -0.43 -0.468 c 0.03 -0.244 0.65 -0.712 0.68 -1.08 c 0.03 -0.371 -0.5 -0.527 -0.44 -0.709 c 0.07 -0.19 0.9 -0.465 1.18 -0.31 c 0.28 0.151 0.24 1.269 0.28 1.418 c 0.09 0.374 -0.65 0.59 -0.68 0.836 C -0.86 -0.431 0.03 -0.095 0 0" stroke-linecap="round"/>
</g>
		<g transform="matrix(1.3333333559212015 0 0 -1.3333333559212015 -24.8312437615363 -104.73600177432225)" id="path3592">
<path style="stroke: none; stroke-width: 1; stroke-dasharray: none; stroke-linecap: butt; stroke-dashoffset: 0; stroke-linejoin: miter; stroke-miterlimit: 4; fill: rgb(255,207,0); fill-rule: nonzero; opacity: 1;" transform=" translate(-3.41656749434552, -0.2719999999999998)" d="m 0 0 c 0.35 0.115 0.81 0.178 0.9 -0.009 c 0.09 -0.186 -0.56 -1.167 -0.43 -1.324 c 0.12 -0.154 0.43 -0.215 0.55 -0.28 c 0.12 -0.062 0.34 -0.249 0.53 -0.249 c 0.18 0 0.83 0.622 1.29 0.591 c 0.47 -0.031 0.72 -0.342 0.99 -0.373 c 0.28 -0.031 1.8 -0.079 2.14 -0.358 c 0.19 0.205 0.93 0.925 1.07 1.078 c 0.14 0.152 0.22 0.555 0.05 0.524 C 6.92 -0.435 6.66 -0.772 6.46 -0.534 C 6.25 -0.298 5.89 -0.021 5.71 -0.037 C 5.52 -0.053 5.18 -0.004 5.16 0.149 C 5.14 0.302 5.48 1.022 5.57 1.197 C 5.19 1.23 4.83 1.246 4.78 1.058 C 4.73 0.869 4.22 -0.124 4.04 -0.141 C 3.88 -0.157 3.82 0.323 3.9 0.567 C 3.98 0.809 3.88 1.194 3.88 1.354 C 3.88 1.515 3.94 1.999 4 2.181 C 4.06 2.363 3.84 2.244 3.74 2.262 C 3.64 2.283 3.46 2.041 3.46 1.919 C 3.46 1.796 3.36 1.395 3.46 1.374 C 3.56 1.354 3.58 1.01 3.5 0.931 C 3.42 0.848 3.32 0.341 3.09 0.18 C 2.87 0.021 2.31 -0.141 2.17 0 C 2.02 0.14 1.94 0.24 1.98 0.362 C 2.02 0.487 2.59 0.827 2.69 0.931 C 2.79 1.031 2.75 1.473 2.67 1.594 C 2.59 1.714 2.59 2.424 2.59 2.546 C 1.78 2.202 0.36 1.372 -0.3 0.323 C -0.44 0.102 -0.29 -0.096 0 0" stroke-linecap="round"/>
</g>
		<g transform="matrix(1.3333333559212015 0 0 -1.3333333559212015 -19.020043653913735 -107.43433541146705)" id="path3596">
<path style="stroke: none; stroke-width: 1; stroke-dasharray: none; stroke-linecap: butt; stroke-dashoffset: 0; stroke-linejoin: miter; stroke-miterlimit: 4; fill: rgb(255,207,0); fill-rule: nonzero; opacity: 1;" transform=" translate(-1.754967501227203, -0.8277501935744609)" d="M 0 0 C 0.16 0.115 0.45 0.416 0.56 0.564 C 0.67 0.715 1.15 1.605 1.32 1.62 C 1.54 1.637 1.77 1.281 2.07 1.281 c 0.3 0 0.91 0.687 1.1 0.662 C 3.51 1.907 2.78 1.392 2.93 1.016 C 3.07 0.672 3.61 0.527 3.57 0.223 C 3.55 0.02 2.51 0.101 1.69 0.074 C 1.2 0.056 0.81 -0.106 0.67 -0.202 C 0.36 -0.415 -0.26 -0.189 0 0" stroke-linecap="round"/>
</g>
		<g transform="matrix(1.3333333559212015 0 0 -1.3333333559212015 -12.600000213455424 -81.33833288399339)" id="path3600">
<path style="stroke: none; stroke-width: 1; stroke-dasharray: none; stroke-linecap: butt; stroke-dashoffset: 0; stroke-linejoin: miter; stroke-miterlimit: 4; fill: rgb(255,207,0); fill-rule: nonzero; opacity: 1;" transform=" translate(2.5, -0.4387486295365431)" d="M 0 0 L 0 0.055 L 0.16 0.208 C 0.36 0.402 0.55 0.56 0.74 0.723 C -0.8 0.909 -4.77 0.895 -5.16 0.88 C -5.65 0.862 -5.69 0.656 -5.73 0.526 L -5.74 0.468 C -5.6 0.332 -5.3 0.241 -5.02 0.19 C -4.67 0.124 -2.87 0.032 -2.08 -0.002 C -1.65 -0.018 -0.78 -0.008 0 0" stroke-linecap="round"/>
</g>
		<g transform="matrix(1.3333333559212015 0 0 -1.3333333559212015 -18.24566260061011 -83.05700065060194)" id="path3604">
<path style="stroke: none; stroke-width: 1; stroke-dasharray: none; stroke-linecap: butt; stroke-dashoffset: 0; stroke-linejoin: miter; stroke-miterlimit: 4; fill: rgb(255,207,0); fill-rule: nonzero; opacity: 1;" transform=" translate(-0.6157532813659341, 1.0252505673438879)" d="m 0 0 c -0.04 -0.115 -0.11 -0.244 -0.2 -0.368 c 0.49 -0.75 1.29 -1.726 1.57 -1.681 L 1.42 -2.02 C 1.44 -1.917 1.44 -1.813 1.37 -1.714 C 1.27 -1.564 0.48 -0.588 0 0" stroke-linecap="round"/>
</g>
		<g transform="matrix(1.3333333559212015 0 0 -1.3333333559212015 4.953333417247208 -92.47907793608087)" id="path3608">
<path style="stroke: none; stroke-width: 1; stroke-dasharray: none; stroke-linecap: butt; stroke-dashoffset: 0; stroke-linejoin: miter; stroke-miterlimit: 4; fill: rgb(255,235,168); fill-rule: nonzero; opacity: 1;" transform=" translate(2.265, 0.20169272294851753)" d="m 0 0 c -0.96 0.052 -3.32 0.099 -4.67 0.008 l 0.05 -0.136 c 0.07 -0.083 1.68 -0.278 2.27 -0.278 c 0.59 0 2.02 -0.128 2.3 0 c 0.09 0.046 0.17 0.131 0.19 0.219 L 0 0" stroke-linecap="round"/>
</g>
		<g transform="matrix(1.3333333559212015 0 0 -1.3333333559212015 -16.76918127057809 -89.33866818014418)" id="path3612">
<path style="stroke: none; stroke-width: 1; stroke-dasharray: none; stroke-linecap: butt; stroke-dashoffset: 0; stroke-linejoin: miter; stroke-miterlimit: 4; fill: rgb(255,255,255); fill-rule: nonzero; opacity: 1;" transform=" translate(0.39688573986976294, 2.317)" d="m 0 0 c -0.44 0 -0.82 -0.227 -1.15 -0.416 c 0.26 -0.475 0.53 -1.379 0.47 -1.927 c -0.09 -0.832 -0.7 -1.729 -1.09 -2.291 c 0.54 0.435 2.04 1.869 2.47 3.44 c 0.15 0.526 0.31 0.673 0.27 0.772 C 0.94 -0.323 0.75 0 0 0" stroke-linecap="round"/>
</g>
		<g transform="matrix(1.3333333559212015 0 0 -1.3333333559212015 -21.997595883361285 -76.62763658745014)" id="path3616">
<path style="stroke: none; stroke-width: 1; stroke-dasharray: none; stroke-linecap: butt; stroke-dashoffset: 0; stroke-linejoin: miter; stroke-miterlimit: 4; fill: rgb(255,255,255); fill-rule: nonzero; opacity: 1;" transform=" translate(1.998196633026612, 1.094273533018296)" d="m 0 0 c -0.02 0.231 -0.05 0.533 -0.09 0.854 c -0.58 -0.153 -1.28 -0.613 -1.64 -1.019 c -0.5 -0.567 -2.39 -2.664 -2.26 -2.86 c 0.14 -0.195 1.63 1.296 1.8 1.465 c 0.16 0.166 0.99 1.027 1.32 0.994 C -0.72 -0.579 -0.33 -0.31 0 0" stroke-linecap="round"/>
</g>
		<g transform="matrix(1.3333333559212015 0 0 -1.3333333559212015 4.373333407421563 -96.00800162646203)" id="path3620">
<path style="stroke: none; stroke-width: 1; stroke-dasharray: none; stroke-linecap: butt; stroke-dashoffset: 0; stroke-linejoin: miter; stroke-miterlimit: 4; fill: rgb(88,89,91); fill-rule: nonzero; opacity: 1;" transform=" translate(2.16, -0.901)" d="M 0 0 C -0.1 0.066 -0.23 0.584 -0.26 1.05 C -0.29 1.507 -1.56 2.542 -1.94 2.604 C -2.28 2.426 -2.81 1.835 -3.24 1.352 C -3.67 0.866 -4.3 0.261 -4.88 -0.377 c 0 -0.053 0.01 -0.21 0.02 -0.425 c 0.72 0.744 2.41 2.665 2.57 2.827 c 0.18 0.172 0.33 0.273 0.58 0.07 c 0.25 -0.199 1.05 -0.973 1.08 -1.279 c 0.02 -0.3 0.12 -0.925 0.32 -1.027 c 0.18 -0.086 0.63 0.042 0.87 0.679 C 0.42 0.309 0.32 -0.213 0 0" stroke-linecap="round"/>
</g>
		<g transform="matrix(1.3333333559212015 0 0 -1.3333333559212015 12.505787766491917 -97.12866831211385)" id="path3624">
<path style="stroke: none; stroke-width: 1; stroke-dasharray: none; stroke-linecap: butt; stroke-dashoffset: 0; stroke-linejoin: miter; stroke-miterlimit: 4; fill: rgb(88,89,91); fill-rule: nonzero; opacity: 1;" transform=" translate(-0.17934066597449616, 0.5754999999999999)" d="m 0 0 c -0.3 0 -0.59 -0.348 -0.62 -0.715 c -0.02 -0.153 0.19 -0.396 0.46 -0.641 c -0.09 0.408 -0.07 0.849 0.17 0.96 c 0.05 0.025 0.85 0.28 0.97 0.601 L 0.88 0.085 C 0.77 0.006 0.3 0 0 0" stroke-linecap="round"/>
</g>
		<g transform="matrix(1.3333333559212015 0 0 -1.3333333559212015 13.05507769339297 -107.00258611247921)" id="path3628">
<path style="stroke: none; stroke-width: 1; stroke-dasharray: none; stroke-linecap: butt; stroke-dashoffset: 0; stroke-linejoin: miter; stroke-miterlimit: 4; fill: rgb(206,138,20); fill-rule: nonzero; opacity: 1;" transform=" translate(0.47869189582879124, 0.3900617751807409)" d="M 0 0 C -0.09 0.101 -0.2 0.192 -0.3 0.292 C -0.57 0.544 -0.8 0.674 -0.89 0.719 C -0.98 0.765 -1.08 0.708 -1.15 0.62 C -1.11 0.287 -0.97 -0.259 -0.75 -0.542 C -0.5 -0.868 0.01 -1.551 0.14 -1.514 C 0.25 -1.48 0.18 -0.623 0 0" stroke-linecap="round"/>
</g>
		<g transform="matrix(1.3333333559212015 0 0 -1.3333333559212015 -13.154609064175677 -108.13027205403723)" id="path3632">
<path style="stroke: none; stroke-width: 1; stroke-dasharray: none; stroke-linecap: butt; stroke-dashoffset: 0; stroke-linejoin: miter; stroke-miterlimit: 4; fill: rgb(88,89,91); fill-rule: nonzero; opacity: 1;" transform=" translate(0.1559566309935949, 0.6052973333402525)" d="M 0 0 C -0.22 -0.124 -0.4 -0.523 -0.65 -0.645 C -0.9 -0.769 -1.11 -0.867 -1.08 -1.113 l 0.06 -0.141 c 0.27 0.07 0.53 0.288 0.75 0.544 c 0.29 0.244 0.46 0.458 0.88 0.3 c 0.1 0.059 0.17 0.106 0.16 0.133 C 0.69 -0.033 0.22 0.124 0 0" stroke-linecap="round"/>
</g>
		<g transform="matrix(1.3333333559212015 0 0 -1.3333333559212015 -19.22519124059936 -107.54880339244262)" id="path3636">
<path style="stroke: none; stroke-width: 1; stroke-dasharray: none; stroke-linecap: butt; stroke-dashoffset: 0; stroke-linejoin: miter; stroke-miterlimit: 4; fill: rgb(88,89,91); fill-rule: nonzero; opacity: 1;" transform=" translate(1.5688931861804556, 1.0293988221482593)" d="m 0 0 c -0.19 0.025 -0.8 -0.662 -1.1 -0.662 c -0.3 0 -0.53 0.356 -0.75 0.339 c -0.17 -0.015 -0.65 -0.905 -0.76 -1.056 c -0.11 -0.148 -0.4 -0.449 -0.56 -0.564 l -0.06 -0.114 c 0.21 -0.035 0.48 0.314 0.67 0.343 c 0.26 0.037 0.46 0.247 0.55 0.594 c 0.08 0.349 0.39 0.524 0.59 0.379 c 0.19 -0.137 0.42 -0.389 1.2 0.099 C -0.1 -0.331 0.26 -0.025 0 0" stroke-linecap="round"/>
</g>
		<g transform="matrix(1.3333333559212015 0 0 -1.3333333559212015 -15.057928279470632 -74.97179216559343)" id="path3640">
<path style="stroke: none; stroke-width: 1; stroke-dasharray: none; stroke-linecap: butt; stroke-dashoffset: 0; stroke-linejoin: miter; stroke-miterlimit: 4; fill: rgb(88,89,91); fill-rule: nonzero; opacity: 1;" transform=" translate(1.3234460182818446, 2.130156828372191)" d="m 0 0 l -0.15 0.135 c 0.16 -0.319 -0.15 -0.845 -0.21 -1.07 c -0.1 -0.363 -0.68 -1.28 -0.82 -1.67 c -0.14 -0.38 -0.48 -1.369 -0.6 -1.466 c -0.26 -0.123 -0.65 -0.195 -0.92 -0.123 l -0.02 0.012 c 0.08 -0.101 0.15 -0.169 0.2 -0.185 c 0.27 -0.071 0.65 0 0.91 0.119 c 0.12 0.096 0.46 1.09 0.6 1.47 c 0.15 0.39 0.73 1.304 0.82 1.671 C -0.12 -0.874 0.22 -0.314 0 0" stroke-linecap="round"/>
</g>
		<g transform="matrix(1.3333333559212015 0 0 -1.3333333559212015 -21.490503748425816 -99.6842924302358)" id="path3644">
<path style="stroke: none; stroke-width: 1; stroke-dasharray: none; stroke-linecap: butt; stroke-dashoffset: 0; stroke-linejoin: miter; stroke-miterlimit: 4; fill: rgb(88,89,91); fill-rule: nonzero; opacity: 1;" transform=" translate(-0.2021224617320373, 0.28278194387942435)" d="M 0 0 C -0.12 -0.287 -0.12 -0.641 -0.04 -0.956 C 0.11 -0.349 0.32 -0.053 0.5 0.092 C 0.29 0.621 0.14 0.355 0 0" stroke-linecap="round"/>
</g>
		<g transform="matrix(1.3333333559212015 0 0 -1.3333333559212015 -35.306667264793404 -88.19393529222651)" id="path3648">
<path style="stroke: none; stroke-width: 1; stroke-dasharray: none; stroke-linecap: butt; stroke-dashoffset: 0; stroke-linejoin: miter; stroke-miterlimit: 4; fill: rgb(88,89,91); fill-rule: nonzero; opacity: 1;" transform=" translate(-0.56, -0.43845034860635734)" d="m 0 0 l -0.21 0.041 c 0.2 -0.19 0.59 -0.243 0.9 0.02 c 0.2 0.163 0.44 0.403 0.64 0.556 C 1.25 0.729 1.17 0.855 1.1 0.996 C 0.76 0.414 0.32 0.037 0 0" stroke-linecap="round"/>
</g>
		<g transform="matrix(1.3333333559212015 0 0 -1.3333333559212015 -12.568526969084749 -107.04133514671003)" id="path3652">
<path style="stroke: none; stroke-width: 1; stroke-dasharray: none; stroke-linecap: butt; stroke-dashoffset: 0; stroke-linejoin: miter; stroke-miterlimit: 4; fill: rgb(88,89,91); fill-rule: nonzero; opacity: 1;" transform=" translate(-0.3436049328780514, 0.464)" d="m 0 0 c -0.01 -0.401 0.18 -0.538 0.54 -0.783 l 0.12 -0.145 l 0.02 0.092 C 0.77 -0.462 0.03 -0.246 0 0" stroke-linecap="round"/>
</g>
		<g transform="matrix(1.3333333559212015 0 0 -1.3333333559212015 -13.750393671762874 -105.5046684540108)" id="path3656">
<path style="stroke: none; stroke-width: 1; stroke-dasharray: none; stroke-linecap: butt; stroke-dashoffset: 0; stroke-linejoin: miter; stroke-miterlimit: 4; fill: rgb(88,89,91); fill-rule: nonzero; opacity: 1;" transform=" translate(0.18279507911407622, 0.4745)" d="m 0 0 l 0.02 -0.093 c 0.03 -0.371 -0.5 -0.527 -0.44 -0.709 c 0.02 -0.046 0.08 -0.097 0.17 -0.147 l 0.08 0.143 C 0.15 -0.501 0.06 -0.168 0 0" stroke-linecap="round"/>
</g>
		<g transform="matrix(1.3333333559212015 0 0 -1.3333333559212015 -23.006667056420298 -105.0542701205836)" id="path3660">
<path style="stroke: none; stroke-width: 1; stroke-dasharray: none; stroke-linecap: butt; stroke-dashoffset: 0; stroke-linejoin: miter; stroke-miterlimit: 4; fill: rgb(88,89,91); fill-rule: nonzero; opacity: 1;" transform=" translate(-0.30500000000000005, -0.6067012556522206)" d="m 0 0 c 0.12 0.178 0.4 0.843 0.5 0.986 c 0.05 0.091 0.29 0.12 0.51 0.145 L 1.09 1.293 C 0.71 1.326 0.35 1.342 0.3 1.154 C 0.25 0.965 -0.26 -0.028 -0.44 -0.045 l -0.04 0.01 l 0 -0.006 C -0.45 -0.074 -0.13 -0.175 0 0" stroke-linecap="round"/>
</g>
		<g transform="matrix(1.3333333559212015 0 0 -1.3333333559212015 -21.156657879103037 -103.91643797818041)" id="path3664">
<path style="stroke: none; stroke-width: 1; stroke-dasharray: none; stroke-linecap: butt; stroke-dashoffset: 0; stroke-linejoin: miter; stroke-miterlimit: 4; fill: rgb(88,89,91); fill-rule: nonzero; opacity: 1;" transform=" translate(0.9174931405176134, -0.05732716330671794)" d="M 0 0 C -0.17 -0.035 -0.43 -0.372 -0.63 -0.134 C -0.84 0.102 -1.2 0.379 -1.38 0.363 C -1.57 0.347 -1.91 0.396 -1.93 0.549 C -1.94 0.11 -1.52 0.048 -1.27 0.048 c 0.25 0 0.58 -0.126 0.65 -0.203 c 0.09 -0.098 0.3 -0.418 0.66 -0.211 C 0.11 -0.192 0.13 0.023 0 0" stroke-linecap="round"/>
</g>
		<g transform="matrix(1.3333333559212015 0 0 -1.3333333559212015 -25.266532500344592 -105.7980063979073)" id="path3668">
<path style="stroke: none; stroke-width: 1; stroke-dasharray: none; stroke-linecap: butt; stroke-dashoffset: 0; stroke-linejoin: miter; stroke-miterlimit: 4; fill: rgb(88,89,91); fill-rule: nonzero; opacity: 1;" transform=" translate(0.00989905423010373, -1.1555034541952962)" d="M 0 0 C 0.29 0.138 0.68 0.902 0.68 1.105 C 0.68 1.252 0.62 1.457 0.51 1.602 C 0.45 1.854 0.52 2.055 0.56 2.13 C 0.62 2.235 0.69 2.204 0.88 2.207 L 0.9 2.268 C 0.96 2.45 0.74 2.331 0.64 2.349 C 0.54 2.37 0.36 2.128 0.36 2.006 C 0.36 1.883 0.26 1.482 0.36 1.461 C 0.46 1.441 0.48 1.097 0.4 1.018 C 0.32 0.935 0.22 0.428 -0.01 0.267 C -0.23 0.108 -0.79 -0.054 -0.93 0.087 C -0.76 -0.064 -0.22 -0.108 0 0" stroke-linecap="round"/>
</g>
		<g transform="matrix(1.3333333559212015 0 0 -1.3333333559212015 -27.875350939735537 -106.0541037278622)" id="path3672">
<path style="stroke: none; stroke-width: 1; stroke-dasharray: none; stroke-linecap: butt; stroke-dashoffset: 0; stroke-linejoin: miter; stroke-miterlimit: 4; fill: rgb(88,89,91); fill-rule: nonzero; opacity: 1;" transform=" translate(1.1665128506264695, 0.2974235515923953)" d="M 0 0 C 0.12 0.036 0.23 0.114 0.32 0.209 C 0.29 0.466 0.29 0.894 0.29 0.988 C -0.52 0.644 -1.94 -0.186 -2.6 -1.235 c -0.14 -0.221 0.01 -0.419 0.3 -0.323 c 0.13 0.046 0.28 0.078 0.42 0.097 C -1.25 -0.815 -0.35 -0.11 0 0" stroke-linecap="round"/>
</g>
		<g transform="matrix(1.3333333559212015 0 0 -1.3333333559212015 -28.37850296323699 -103.36800175114712)" id="path3676">
<path style="stroke: none; stroke-width: 1; stroke-dasharray: none; stroke-linecap: butt; stroke-dashoffset: 0; stroke-linejoin: miter; stroke-miterlimit: 4; fill: rgb(88,89,91); fill-rule: nonzero; opacity: 1;" transform=" translate(0.22387686185969513, -0.02500000000000002)" d="M 0 0 C 0.16 0.386 0.05 0.666 -0.08 0.77 C 0.01 0.584 -0.64 -0.397 -0.51 -0.554 C -0.46 -0.629 -0.36 -0.678 -0.26 -0.72 C -0.27 -0.492 -0.1 -0.267 0 0" stroke-linecap="round"/>
</g>
		<g transform="matrix(1.3333333559212015 0 0 -1.3333333559212015 12.646666880912681 -105.5437205424029)" id="path3680">
<path style="stroke: none; stroke-width: 1; stroke-dasharray: none; stroke-linecap: butt; stroke-dashoffset: 0; stroke-linejoin: miter; stroke-miterlimit: 4; fill: rgb(88,89,91); fill-rule: nonzero; opacity: 1;" transform=" translate(0.005, 0.23521093420210648)" d="M 0 0 C -0.38 0.414 -0.79 0.583 -0.86 0.414 C -0.63 0.373 -0.55 0.203 -0.42 0.046 C 0 -0.347 0.42 -0.79 0.51 -0.902 C 0.63 -1.039 0.85 -0.834 0.85 -0.844 C 0.8 -0.918 0.4 -0.424 0 0" stroke-linecap="round"/>
</g>
		<g transform="matrix(1.3333333559212015 0 0 -1.3333333559212015 -13.412391854896793 -95.17313645459618)" id="path3684">
<path style="stroke: none; stroke-width: 1; stroke-dasharray: none; stroke-linecap: butt; stroke-dashoffset: 0; stroke-linejoin: miter; stroke-miterlimit: 4; fill: rgb(88,89,91); fill-rule: nonzero; opacity: 1;" transform=" translate(2.949293720759152, 2.044148868291907)" d="m 0 0 c 0.17 -0.129 0.1 -0.514 -0.03 -0.617 c -0.14 -0.122 -0.88 -0.724 -1.47 -1.238 c -0.58 -0.507 -0.76 -0.538 -1.1 -0.596 c -1.22 -1.103 -2.97 -1.528 -3.55 -1.457 c 0.1 -0.071 0.33 -0.199 0.56 -0.178 c 0.5 0.043 1.41 0.368 1.8 0.547 c 0.48 0.213 1.21 0.781 1.43 0.847 l 0.31 0.088 c 0.27 0.176 0.62 0.517 0.85 0.69 c 0.2 0.154 0.89 0.69 1.23 0.96 c 0.19 0.151 0.23 0.287 0.22 0.462 C 0.24 -0.348 0.07 -0.041 0 0" stroke-linecap="round"/>
</g>
		<g transform="matrix(1.3333333559212015 0 0 -1.3333333559212015 -19.970210211813324 -95.9086682914459)" id="path3688">
<path style="stroke: none; stroke-width: 1; stroke-dasharray: none; stroke-linecap: butt; stroke-dashoffset: 0; stroke-linejoin: miter; stroke-miterlimit: 4; fill: rgb(88,89,91); fill-rule: nonzero; opacity: 1;" transform=" translate(0.7876574051249727, -2.2995)" d="m 0 0 c -0.03 0.306 -0.75 1.167 -1.01 1.279 c -0.16 0.252 -0.32 0.823 -0.39 1.263 c -0.06 0.432 -0.35 1.45 -0.49 1.747 c -0.14 0.296 -0.19 0.72 -0.1 1.039 L -2.06 5.572 L -2.13 5.414 c -0.15 -0.36 -0.11 -0.829 0.03 -1.183 c 0.14 -0.355 0.66 -2.161 0.87 -3.02 c 0.87 -0.564 1.14 -1.613 1.18 -1.779 c 0.03 -0.165 0.18 -0.405 0.33 -0.405 c 0.1 0 0.23 0.053 0.37 0.126 C 0.1 -0.72 0.03 -0.261 0 0" stroke-linecap="round"/>
</g>
		<g transform="matrix(1.3333333559212015 0 0 -1.3333333559212015 14.473333578524636 -104.61756628414108)" id="path3692">
<path style="stroke: none; stroke-width: 1; stroke-dasharray: none; stroke-linecap: butt; stroke-dashoffset: 0; stroke-linejoin: miter; stroke-miterlimit: 4; fill: rgb(88,89,91); fill-rule: nonzero; opacity: 1;" transform=" translate(0.2850000000000001, -0.26017338386890326)" d="M 0 0 C -0.17 -0.115 -0.51 0.422 -0.62 0.677 L -0.68 0.522 c 0.19 -0.399 0.46 -0.726 0.58 -0.673 c 0.15 0.066 0.18 0.166 0.21 0.265 l 0 0.019 L 0 0" stroke-linecap="round"/>
</g>
		<g transform="matrix(1.3333333559212015 0 0 -1.3333333559212015 10.727573664229428 -89.59993195452046)" id="path3696">
<path style="stroke: none; stroke-width: 1; stroke-dasharray: none; stroke-linecap: butt; stroke-dashoffset: 0; stroke-linejoin: miter; stroke-miterlimit: 4; fill: rgb(167,169,172); fill-rule: nonzero; opacity: 1;" transform=" translate(0.4443198881290298, -0.3499478274626763)" d="m 0 0 c -0.06 1.432 -0.39 1.349 -0.51 1.349 c -0.12 0 -0.12 -0.136 -0.3 -0.323 C -1 0.84 -0.83 -0.288 -0.8 -0.506 l 0.03 -0.144 c 0.27 0.142 0.52 0.269 0.78 0.4 L 0 0" stroke-linecap="round"/>
</g>
		<g transform="matrix(1.3333333559212015 0 0 -1.3333333559212015 9.013876321578309 -89.58177304536206)" id="path3700">
<path style="stroke: none; stroke-width: 1; stroke-dasharray: none; stroke-linecap: butt; stroke-dashoffset: 0; stroke-linejoin: miter; stroke-miterlimit: 4; fill: rgb(167,169,172); fill-rule: nonzero; opacity: 1;" transform=" translate(0.07959287334368181, 1.132671354175422)" d="m 0 0 c -0.22 0.54 -0.7 0.505 -0.85 0.437 c -0.15 -0.064 0.09 -0.455 0.1 -0.627 c 0.02 -0.17 0.19 -0.373 0.19 -0.75 c 0 -0.695 0.12 -1.291 0.3 -1.8 c 0.34 0.19 0.67 0.372 1 0.546 c -0.16 0.513 -0.4 0.84 -0.57 1.068 C 0.17 -0.989 0.22 -0.547 0 0" stroke-linecap="round"/>
</g>
		<g transform="matrix(1.3333333559212015 0 0 -1.3333333559212015 26.853358227948647 97.43533498397578)" id="path3704">
<path style="stroke: none; stroke-width: 1; stroke-dasharray: none; stroke-linecap: butt; stroke-dashoffset: 0; stroke-linejoin: miter; stroke-miterlimit: 4; fill: rgb(255,207,0); fill-rule: nonzero; opacity: 1;" transform=" translate(-1.8700183297714297, 12.7545)" d="m 0 0 c -1.23 -0.356 -2.77 -0.687 -4.59 -0.973 l 6.86 -24.536 c 2.35 0.39 4.4 0.837 6.06 1.329 l 0 0.004 C 8.35 -24.084 0.18 -0.496 0 0" stroke-linecap="round"/>
</g>
		<g transform="matrix(1.3333333559212015 0 0 -1.3333333559212015 -6.767714970953882 96.43066830028911)" id="path3708">
<path style="stroke: none; stroke-width: 1; stroke-dasharray: none; stroke-linecap: butt; stroke-dashoffset: 0; stroke-linejoin: miter; stroke-miterlimit: 4; fill: rgb(255,235,168); fill-rule: nonzero; opacity: 1;" transform=" translate(25.605786142227, 13.206999999999999)" d="M 0 0 C -0.48 -0.237 -1.12 -0.464 -1.9 -0.676 C -2.32 -0.85 -2.79 -1.049 -3.38 -1.292 l -0.07 -0.022 c -0.23 -0.087 -0.58 -0.082 -1.43 0.005 c -0.42 -0.07 -0.85 -0.141 -1.31 -0.208 c -0.21 -0.219 -0.5 -0.252 -0.6 -0.256 L -9 -2.009 c -3.89 -0.422 -5.9 -0.559 -6.12 -0.559 c 0 0 -0.17 0.009 -0.33 0.087 c -0.12 0.033 -0.23 0.079 -0.35 0.124 c -0.95 -0.041 -1.92 -0.078 -2.92 -0.103 l -0.01 -0.016 c -0.3 -0.307 -0.76 -0.282 -0.91 -0.269 c -0.64 0.041 -9.08 0.148 -9.91 0.148 c -0.17 -0.008 -0.58 -0.008 -0.77 0.244 l -0.03 0.059 c -6.95 0.373 -12.37 1.225 -14.52 2.294 c -0.59 0.305 -0.96 0.624 -1.02 0.943 c -0.01 -0.037 -0.04 -0.36 0.09 -0.558 c 0.29 -0.44 1.07 -0.875 2.24 -1.289 c -0.07 -0.083 -0.14 -0.181 -0.21 -0.331 c -0.13 -0.318 -8.28 -23.03 -8.4 -23.274 c -0.06 -0.128 -0.09 -0.298 -0.06 -0.476 c 2.73 -0.977 6.88 -1.796 11.96 -2.372 l 4.47 24.719 c 0 0 5.26 -0.426 7.27 -0.451 c 1.92 -0.091 3.95 -0.145 6.1 -0.145 c 12.95 0 22.16 1.826 23.36 3.619 c 0.13 0.198 0.1 0.521 0.09 0.558 C 0.96 0.624 0.59 0.305 0 0" stroke-linecap="round"/>
</g>
		<g transform="matrix(1.3333333559212015 0 0 -1.3333333559212015 -6.6800001131652795 97.14000164563906)" id="path3712">
<path style="stroke: none; stroke-width: 1; stroke-dasharray: none; stroke-linecap: butt; stroke-dashoffset: 0; stroke-linejoin: miter; stroke-miterlimit: 4; fill: rgb(88,89,91); fill-rule: nonzero; opacity: 1;" transform=" translate(-1.92, -4.63)" d="M 0 0 L 1.01 9.384 L 3.36 9.815 L 3.84 9.298 L 3.43 -0.555 L 0.48 -0.518 L 0 0" stroke-linecap="round"/>
</g>
		<g transform="matrix(1.3333333559212015 0 0 -1.3333333559212015 2.373333373539751 97.09600164489373)" id="path3716">
<path style="stroke: none; stroke-width: 1; stroke-dasharray: none; stroke-linecap: butt; stroke-dashoffset: 0; stroke-linejoin: miter; stroke-miterlimit: 4; fill: rgb(88,89,91); fill-rule: nonzero; opacity: 1;" transform=" translate(-3.5, -4.638)" d="M 0 0 L 0.31 9.211 L 6.87 9.856 L 7 9.215 L 6.36 7.323 l -3.24 0 l 0 -2.203 l 2.5 0.646 L 5.9 5.12 L 5.21 3.204 L 3.12 3.204 L 3.1 -0.58 L 0.29 -0.58 L 0 0" stroke-linecap="round"/>
</g>
		<g transform="matrix(1.3333333559212015 0 0 -1.3333333559212015 -15.00666692089312 96.77800163950658)" id="path3720">
<path style="stroke: none; stroke-width: 1; stroke-dasharray: none; stroke-linecap: butt; stroke-dashoffset: 0; stroke-linejoin: miter; stroke-miterlimit: 4; fill: rgb(88,89,91); fill-rule: nonzero; opacity: 1;" transform=" translate(-4.065, -4.3635)" d="M 0 0 L 1.59 9.223 L 7.62 9.439 L 8.13 8.871 L 7.27 6.93 L 4.06 7.104 L 3.82 4.918 L 5.96 5.341 L 6.47 4.773 L 5.6 2.856 L 3.6 2.964 L 3.18 -0.712 L 0.5 -0.568 L 0 0" stroke-linecap="round"/>
</g>
		<g transform="matrix(1.3333333559212015 0 0 -1.3333333559212015 11.866666867698672 96.93666830886113)" id="path3724">
<path style="stroke: none; stroke-width: 1; stroke-dasharray: none; stroke-linecap: butt; stroke-dashoffset: 0; stroke-linejoin: miter; stroke-miterlimit: 4; fill: rgb(88,89,91); fill-rule: nonzero; opacity: 1;" transform=" translate(-1.6900000000000004, -1.8765)" d="M 0 0 L 0.97 4.161 L 2.45 0.223 L 0 0 Z M 6.58 -2.078 L 1.97 6.491 L -0.27 7.016 L -1 6.334 l -2.2 -9.597 l 3.08 0.174 l 0.25 0.535 l -0.44 0.679 l 3.41 0.182 l 0.51 -1.081 l 2.56 0.174 l 0.41 0.522" stroke-linecap="round"/>
</g>
		<g transform="matrix(1.3333333559212015 0 0 -1.3333333559212015 -7.000000118586225 96.73600163879495)" id="path3728">
<path style="stroke: none; stroke-width: 1; stroke-dasharray: none; stroke-linecap: butt; stroke-dashoffset: 0; stroke-linejoin: miter; stroke-miterlimit: 4; fill: rgb(255,255,255); fill-rule: nonzero; opacity: 1;" transform=" translate(-1.16, 4.97)" d="M 0 0 L 2.84 -0.088 L 2.42 -9.94 L -0.52 -9.903 L 0 0" stroke-linecap="round"/>
</g>
		<g transform="matrix(1.3333333559212015 0 0 -1.3333333559212015 2.286666705404766 96.70933497167658)" id="path3732">
<path style="stroke: none; stroke-width: 1; stroke-dasharray: none; stroke-linecap: butt; stroke-dashoffset: 0; stroke-linejoin: miter; stroke-miterlimit: 4; fill: rgb(255,255,255); fill-rule: nonzero; opacity: 1;" transform=" translate(-3.4149999999999996, 4.928)" d="m 0 0 l 6.85 0 l -0.67 -1.942 l -3.37 0 l 0 -2.148 l 2.79 0 l -0.69 -1.916 l -2.1 0 l -0.02 -3.85 l -2.81 0 L 0 0" stroke-linecap="round"/>
</g>
		<g transform="matrix(1.3333333559212015 0 0 -1.3333333559212015 -15.34666692665306 96.16266829574884)" id="path3736">
<path style="stroke: none; stroke-width: 1; stroke-dasharray: none; stroke-linecap: butt; stroke-dashoffset: 0; stroke-linejoin: miter; stroke-miterlimit: 4; fill: rgb(255,255,255); fill-rule: nonzero; opacity: 1;" transform=" translate(-2.7199999999999998, 4.97)" d="M 0 0 L 6.53 -0.356 L 5.68 -2.298 L 2.46 -2.124 L 2.22 -4.31 L 4.87 -4.454 L 4 -6.368 L 2 -6.264 L 1.59 -9.94 L -1.09 -9.795 L 0 0" stroke-linecap="round"/>
</g>
		<g transform="matrix(1.3333333559212015 0 0 -1.3333333559212015 12.320000208711896 96.47266830100061)" id="path3740">
<path style="stroke: none; stroke-width: 1; stroke-dasharray: none; stroke-linecap: butt; stroke-dashoffset: 0; stroke-linejoin: miter; stroke-miterlimit: 4; fill: rgb(255,255,255); fill-rule: nonzero; opacity: 1;" transform=" translate(-1.3099999999999996, -1.5455)" d="M 0 0 L 0.75 4.06 L 2.23 0.128 L 0 0 Z M 1.97 6.491 L -0.99 6.337 L -3.24 -3.4 l 2.65 0.167 l 0.29 1.267 l 3.16 0.203 l 0.5 -1.156 l 2.5 0.162 l -3.89 9.248" stroke-linecap="round"/>
</g>
		<g transform="matrix(1.3333333559212015 0 0 -1.3333333559212015 16.878712468503704 91.18125948371848)" id="path3744">
<path style="stroke: none; stroke-width: 1; stroke-dasharray: none; stroke-linecap: butt; stroke-dashoffset: 0; stroke-linejoin: miter; stroke-miterlimit: 4; fill: rgb(88,89,91); fill-rule: nonzero; opacity: 1;" transform=" translate(-0.13903413692232902, 1.1219434542694149)" d="M 0 0 C 0.62 0.075 1.18 -0.369 1.26 -0.985 C 1.33 -1.601 0.9 -2.17 0.28 -2.244 C -0.34 -2.318 -0.91 -1.88 -0.98 -1.262 C -1.06 -0.642 -0.62 -0.079 0 0" stroke-linecap="round"/>
</g>
		<g transform="matrix(1.3333333559212015 0 0 -1.3333333559212015 17.16795645211221 90.99670939293777)" id="path3748">
<path style="stroke: none; stroke-width: 1; stroke-dasharray: none; stroke-linecap: butt; stroke-dashoffset: 0; stroke-linejoin: miter; stroke-miterlimit: 4; fill: rgb(255,255,255); fill-rule: nonzero; opacity: 1;" transform=" translate(0.0240328790462947, 0.11353088852864901)" d="M 0 0 C 0.12 0.017 0.2 0.05 0.19 0.187 C 0.17 0.311 0.03 0.311 -0.07 0.299 L -0.25 0.278 L -0.22 -0.024 L 0 0 Z m -0.54 0.447 l 0.46 0.054 C 0.23 0.538 0.42 0.473 0.45 0.195 C 0.48 -0.024 0.36 -0.128 0.17 -0.17 l 0.39 -0.484 l -0.27 -0.036 l -0.35 0.484 l -0.13 -0.021 l 0.06 -0.509 l -0.26 -0.033 l -0.15 1.216 z m 0.62 -1.415 c 0.44 0.053 0.74 0.443 0.68 0.952 C 0.69 0.485 0.31 0.791 -0.13 0.737 C -0.57 0.684 -0.86 0.294 -0.8 -0.211 c 0.06 -0.505 0.44 -0.811 0.88 -0.757 z m -0.24 1.95 C 0.45 1.056 1 0.621 1.07 0.022 C 1.15 -0.583 0.71 -1.138 0.11 -1.209 c -0.6 -0.074 -1.16 0.357 -1.23 0.961 c -0.07 0.605 0.36 1.155 0.96 1.23" stroke-linecap="round"/>
</g>
		<g transform="matrix(1.3333333559212015 0 0 -1.3333333559212015 -19.161794756261184 106.90625156948755)" id="path3752">
<path style="stroke: none; stroke-width: 1; stroke-dasharray: none; stroke-linecap: butt; stroke-dashoffset: 0; stroke-linejoin: miter; stroke-miterlimit: 4; fill: rgb(88,89,91); fill-rule: nonzero; opacity: 1;" transform=" translate(0.7513458237322828, -1.2673126812004847)" d="m 0 0 c -0.19 -0.025 -0.38 -0.034 -0.57 -0.013 c -0.78 0.091 -1.28 0.56 -1.18 1.396 c 0.1 0.843 0.66 1.258 1.48 1.163 C -0.12 2.525 0.09 2.467 0.26 2.377 L 0.18 1.963 C 0.01 2.091 -0.16 2.135 -0.33 2.157 C -0.83 2.215 -1.18 1.863 -1.24 1.353 C -1.3 0.852 -1.04 0.439 -0.52 0.377 C -0.33 0.352 -0.1 0.369 0.02 0.418 L 0 0" stroke-linecap="round"/>
</g>
		<g transform="matrix(1.3333333559212015 0 0 -1.3333333559212015 -16.693333616133447 107.08600181413338)" id="path3756">
<path style="stroke: none; stroke-width: 1; stroke-dasharray: none; stroke-linecap: butt; stroke-dashoffset: 0; stroke-linejoin: miter; stroke-miterlimit: 4; fill: rgb(88,89,91); fill-rule: nonzero; opacity: 1;" transform=" translate(-0.5, 1.3105)" d="M 0 0 L 0.48 -0.05 L 0.29 -2.137 L 1.23 -2.228 L 1.19 -2.621 L -0.23 -2.48 L 0 0" stroke-linecap="round"/>
</g>
		<g transform="matrix(1.3333333559212015 0 0 -1.3333333559212015 -13.903223144262565 107.31627527018307)" id="path3760">
<path style="stroke: none; stroke-width: 1; stroke-dasharray: none; stroke-linecap: butt; stroke-dashoffset: 0; stroke-linejoin: miter; stroke-miterlimit: 4; fill: rgb(88,89,91); fill-rule: nonzero; opacity: 1;" transform=" translate(-0.9325828184529055, 1.3082050891115724)" d="M 0 0 L 0.49 -0.042 L 0.38 -1.473 C 0.34 -1.899 0.45 -2.185 0.83 -2.215 C 1.2 -2.248 1.35 -1.978 1.39 -1.556 L 1.5 -0.124 L 1.99 -0.165 L 1.86 -1.751 C 1.81 -2.413 1.42 -2.657 0.8 -2.611 C 0.17 -2.558 -0.17 -2.252 -0.12 -1.586 L 0 0" stroke-linecap="round"/>
</g>
		<g transform="matrix(1.3333333559212015 0 0 -1.3333333559212015 -10.899160473437336 107.52164085429034)" id="path3764">
<path style="stroke: none; stroke-width: 1; stroke-dasharray: none; stroke-linecap: butt; stroke-dashoffset: 0; stroke-linejoin: miter; stroke-miterlimit: 4; fill: rgb(88,89,91); fill-rule: nonzero; opacity: 1;" transform=" translate(-0.30562978340322067, 0.23322927458263765)" d="M 0 0 L 0.2 -0.008 C 0.4 -0.021 0.66 0.011 0.67 0.269 C 0.69 0.554 0.44 0.592 0.22 0.604 L 0.03 0.616 L 0 0 Z m -0.06 -1.088 l 0.23 -0.014 c 0.23 -0.012 0.51 0.033 0.52 0.32 c 0.02 0.327 -0.24 0.389 -0.48 0.401 l -0.23 0.013 l -0.04 -0.72 z M -0.43 1.035 L 0.41 0.986 C 0.73 0.969 1.2 0.852 1.17 0.306 C 1.15 0.009 0.94 -0.187 0.65 -0.223 l 0 -0.009 C 0.98 -0.278 1.2 -0.522 1.18 -0.824 C 1.15 -1.453 0.59 -1.52 0.29 -1.498 l -0.86 0.045 l 0.14 2.488" stroke-linecap="round"/>
</g>
		<g transform="matrix(1.3333333559212015 0 0 -1.3333333559212015 -5.926666767069756 107.7080018246705)" id="path3768">
<path style="stroke: none; stroke-width: 1; stroke-dasharray: none; stroke-linecap: butt; stroke-dashoffset: 0; stroke-linejoin: miter; stroke-miterlimit: 4; fill: rgb(88,89,91); fill-rule: nonzero; opacity: 1;" transform=" translate(-1.705, 1.267)" d="m 0 0 l 0.51 -0.008 l 0.42 -2 l 0.01 0 l 0.44 1.988 l 0.67 -0.013 l 0.4 -1.995 l 0.49 1.982 L 3.41 -0.053 L 2.74 -2.534 L 2.11 -2.521 L 1.7 -0.526 L 1.24 -2.508 L 0.61 -2.501 L 0 0" stroke-linecap="round"/>
</g>
		<g transform="matrix(1.3333333559212015 0 0 -1.3333333559212015 -1.8334524683120512 107.71603838431943)" id="path3772">
<path style="stroke: none; stroke-width: 1; stroke-dasharray: none; stroke-linecap: butt; stroke-dashoffset: 0; stroke-linejoin: miter; stroke-miterlimit: 4; fill: rgb(88,89,91); fill-rule: nonzero; opacity: 1;" transform=" translate(0.00508932793875361, -0.9009725803654451)" d="M 0 0 C 0.5 0.005 0.68 0.46 0.68 0.912 C 0.67 1.354 0.47 1.797 -0.02 1.793 C -0.5 1.789 -0.7 1.338 -0.7 0.904 C -0.69 0.453 -0.5 -0.003 0 0 Z M -0.02 2.19 C 0.74 2.195 1.18 1.669 1.19 0.92 C 1.19 0.166 0.77 -0.38 0 -0.388 C -0.78 -0.396 -1.19 0.129 -1.2 0.89 c -0.01 0.767 0.4 1.288 1.18 1.3" stroke-linecap="round"/>
</g>
		<g transform="matrix(1.3333333559212015 0 0 -1.3333333559212015 1.4800000250724754 107.68415135935844)" id="path3776">
<path style="stroke: none; stroke-width: 1; stroke-dasharray: none; stroke-linecap: butt; stroke-dashoffset: 0; stroke-linejoin: miter; stroke-miterlimit: 4; fill: rgb(88,89,91); fill-rule: nonzero; opacity: 1;" transform=" translate(-0.43000000000000005, 0.18511215131892622)" d="M 0 0 L 0.16 0.005 C 0.4 0.009 0.68 0.05 0.67 0.36 C 0.67 0.662 0.39 0.679 0.15 0.676 L -0.01 0.671 L 0 0 Z M -0.5 1.056 L 0.02 1.064 C 0.54 1.072 1.17 1.105 1.18 0.414 C 1.18 0.116 1 -0.129 0.69 -0.174 l 0 -0.008 C 0.82 -0.19 0.9 -0.327 0.95 -0.435 L 1.36 -1.399 L 0.82 -1.412 L 0.51 -0.638 C 0.43 -0.455 0.37 -0.385 0.17 -0.389 L 0.01 -0.393 L 0.03 -1.424 L -0.46 -1.437 L -0.5 1.056" stroke-linecap="round"/>
</g>
		<g transform="matrix(1.3333333559212015 0 0 -1.3333333559212015 4.0933334026780495 107.62266848989155)" id="path3780">
<path style="stroke: none; stroke-width: 1; stroke-dasharray: none; stroke-linecap: butt; stroke-dashoffset: 0; stroke-linejoin: miter; stroke-miterlimit: 4; fill: rgb(88,89,91); fill-rule: nonzero; opacity: 1;" transform=" translate(-0.75, 1.236)" d="M 0 0 L 0.49 0.016 L 0.55 -2.082 L 1.49 -2.053 L 1.5 -2.447 L 0.07 -2.488 L 0 0" stroke-linecap="round"/>
</g>
		<g transform="matrix(1.3333333559212015 0 0 -1.3333333559212015 6.781804482385239 107.53985494098745)" id="path3784">
<path style="stroke: none; stroke-width: 1; stroke-dasharray: none; stroke-linecap: butt; stroke-dashoffset: 0; stroke-linejoin: miter; stroke-miterlimit: 4; fill: rgb(88,89,91); fill-rule: nonzero; opacity: 1;" transform=" translate(-0.48635327562156205, -0.8501101606259148)" d="M 0 0 L 0.27 0.017 C 0.68 0.028 1.06 0.356 1.04 0.899 C 1.02 1.441 0.61 1.734 0.2 1.718 L -0.07 1.705 L 0 0 Z m -0.57 2.078 l 0.67 0.03 c 0.74 0.028 1.41 -0.2 1.44 -1.189 c 0.05 -0.985 -0.6 -1.27 -1.35 -1.304 l -0.66 -0.025 l -0.1 2.488" stroke-linecap="round"/>
</g>
		<g transform="matrix(1.3333333559212015 0 0 -1.3333333559212015 11.20991645787154 107.22403403582068)" id="path3788">
<path style="stroke: none; stroke-width: 1; stroke-dasharray: none; stroke-linecap: butt; stroke-dashoffset: 0; stroke-linejoin: miter; stroke-miterlimit: 4; fill: rgb(88,89,91); fill-rule: nonzero; opacity: 1;" transform=" translate(0.982562799025941, -1.1699758354883263)" d="m 0 0 c -0.18 -0.054 -0.36 -0.103 -0.55 -0.111 c -0.78 -0.059 -1.36 0.302 -1.41 1.142 c -0.06 0.853 0.41 1.367 1.24 1.424 c 0.16 0.008 0.37 -0.005 0.55 -0.062 l 0 -0.422 C -0.36 2.062 -0.53 2.074 -0.71 2.066 C -1.21 2.028 -1.5 1.614 -1.46 1.101 c 0.03 -0.5 0.36 -0.861 0.88 -0.827 c 0.2 0.016 0.42 0.074 0.53 0.144 L 0 0" stroke-linecap="round"/>
</g>
		<g transform="matrix(1.3333333559212015 0 0 -1.3333333559212015 14.197867906550146 106.9686312715493)" id="path3792">
<path style="stroke: none; stroke-width: 1; stroke-dasharray: none; stroke-linecap: butt; stroke-dashoffset: 0; stroke-linejoin: miter; stroke-miterlimit: 4; fill: rgb(88,89,91); fill-rule: nonzero; opacity: 1;" transform=" translate(-1.0684007495190937, 1.1154720945532555)" d="m 0 0 l 0.48 0.048 l 0.14 -1.427 c 0.04 -0.423 0.2 -0.693 0.57 -0.655 c 0.37 0.041 0.48 0.331 0.44 0.753 L 1.49 0.152 L 1.98 0.198 L 2.13 -1.384 C 2.19 -2.05 1.85 -2.361 1.23 -2.418 C 0.61 -2.485 0.21 -2.249 0.15 -1.582 L 0 0" stroke-linecap="round"/>
</g>
		<g transform="matrix(1.3333333559212015 0 0 -1.3333333559212015 17.11221277019725 106.71799638547922)" id="path3796">
<path style="stroke: none; stroke-width: 1; stroke-dasharray: none; stroke-linecap: butt; stroke-dashoffset: 0; stroke-linejoin: miter; stroke-miterlimit: 4; fill: rgb(88,89,91); fill-rule: nonzero; opacity: 1;" transform=" translate(-0.2341593602257751, 0.10249593318519779)" d="M 0 0 L 0.17 0.029 C 0.42 0.058 0.62 0.174 0.58 0.459 C 0.55 0.746 0.32 0.811 0.07 0.778 L -0.09 0.753 L 0 0 Z m -0.63 1.076 l 0.61 0.088 C 0.5 1.238 1.01 1.147 1.09 0.555 C 1.16 -0.016 0.78 -0.286 0.26 -0.36 L 0.06 -0.389 L 0.18 -1.325 L -0.3 -1.391 L -0.63 1.076" stroke-linecap="round"/>
</g>
		<g transform="matrix(1.3333333559212015 0 0 -1.3333333559212015 -19.553506822168163 106.43710677302339)" id="path3800">
<path style="stroke: none; stroke-width: 1; stroke-dasharray: none; stroke-linecap: butt; stroke-dashoffset: 0; stroke-linejoin: miter; stroke-miterlimit: 4; fill: rgb(255,255,255); fill-rule: nonzero; opacity: 1;" transform=" translate(0.7651298681855403, -1.2671712725878281)" d="m 0 0 c -0.19 -0.025 -0.38 -0.033 -0.57 -0.013 c -0.8 0.091 -1.31 0.559 -1.22 1.395 c 0.11 0.845 0.68 1.259 1.52 1.163 C -0.11 2.525 0.1 2.467 0.27 2.376 L 0.19 1.962 C 0.01 2.091 -0.15 2.136 -0.33 2.156 C -0.84 2.215 -1.2 1.863 -1.26 1.353 C -1.32 0.853 -1.05 0.439 -0.53 0.376 C -0.33 0.352 -0.1 0.368 0.03 0.414 L 0 0" stroke-linecap="round"/>
</g>
		<g transform="matrix(1.3333333559212015 0 0 -1.3333333559212015 -17.026666955113754 106.61666847284901)" id="path3804">
<path style="stroke: none; stroke-width: 1; stroke-dasharray: none; stroke-linecap: butt; stroke-dashoffset: 0; stroke-linejoin: miter; stroke-miterlimit: 4; fill: rgb(255,255,255); fill-rule: nonzero; opacity: 1;" transform=" translate(-0.51, 1.3105)" d="M 0 0 L 0.5 -0.05 L 0.3 -2.137 L 1.26 -2.228 L 1.22 -2.621 L -0.24 -2.481 L 0 0" stroke-linecap="round"/>
</g>
		<g transform="matrix(1.3333333559212015 0 0 -1.3333333559212015 -14.170989779759076 106.84750949287076)" id="path3808">
<path style="stroke: none; stroke-width: 1; stroke-dasharray: none; stroke-linecap: butt; stroke-dashoffset: 0; stroke-linejoin: miter; stroke-miterlimit: 4; fill: rgb(255,255,255); fill-rule: nonzero; opacity: 1;" transform=" translate(-0.9517578452327569, 1.3086307620832887)" d="M 0 0 L 0.5 -0.041 L 0.39 -1.474 c -0.04 -0.422 0.07 -0.712 0.45 -0.741 c 0.38 -0.033 0.54 0.232 0.58 0.659 L 1.53 -0.124 L 2.03 -0.165 L 1.9 -1.751 C 1.85 -2.417 1.45 -2.657 0.81 -2.612 C 0.18 -2.559 -0.18 -2.251 -0.12 -1.585 L 0 0" stroke-linecap="round"/>
</g>
		<g transform="matrix(1.3333333559212015 0 0 -1.3333333559212015 -11.092494308526504 107.05207764095891)" id="path3812">
<path style="stroke: none; stroke-width: 1; stroke-dasharray: none; stroke-linecap: butt; stroke-dashoffset: 0; stroke-linejoin: miter; stroke-miterlimit: 4; fill: rgb(255,255,255); fill-rule: nonzero; opacity: 1;" transform=" translate(-0.32062940954275587, 0.23205687055019397)" d="M 0 0 L 0.21 -0.007 C 0.42 -0.019 0.68 0.014 0.7 0.27 C 0.71 0.559 0.46 0.592 0.23 0.605 L 0.04 0.618 L 0 0 Z M -0.05 -1.088 L 0.18 -1.1 c 0.23 -0.013 0.52 0.029 0.53 0.318 c 0.02 0.327 -0.24 0.39 -0.49 0.401 l -0.23 0.013 l -0.04 -0.72 z M -0.44 1.036 L 0.43 0.987 C 0.75 0.97 1.23 0.853 1.2 0.308 C 1.18 0.009 0.97 -0.185 0.67 -0.222 l 0 -0.009 C 1.01 -0.277 1.23 -0.521 1.21 -0.827 C 1.18 -1.453 0.61 -1.514 0.29 -1.498 l -0.86 0.045 l 0.13 2.489" stroke-linecap="round"/>
</g>
		<g transform="matrix(1.3333333559212015 0 0 -1.3333333559212015 -6.013333435204582 107.23866848338625)" id="path3816">
<path style="stroke: none; stroke-width: 1; stroke-dasharray: none; stroke-linecap: butt; stroke-dashoffset: 0; stroke-linejoin: miter; stroke-miterlimit: 4; fill: rgb(255,255,255); fill-rule: nonzero; opacity: 1;" transform=" translate(-1.75, 1.267)" d="m 0 0 l 0.53 -0.009 l 0.43 -1.999 l 0.01 0 l 0.45 1.987 l 0.68 -0.007 l 0.41 -2 l 0.01 0 l 0.49 1.983 l 0.49 -0.009 l -0.69 -2.48 l -0.64 0.013 l -0.42 1.995 l -0.01 0 L 1.27 -2.509 L 0.63 -2.501 L 0 0" stroke-linecap="round"/>
</g>
		<g transform="matrix(1.3333333559212015 0 0 -1.3333333559212015 -1.826783039648022 107.24933514775194)" id="path3820">
<path style="stroke: none; stroke-width: 1; stroke-dasharray: none; stroke-linecap: butt; stroke-dashoffset: 0; stroke-linejoin: miter; stroke-miterlimit: 4; fill: rgb(255,255,255); fill-rule: nonzero; opacity: 1;" transform=" translate(0.0000872565254717, -0.8990000018613081)" d="M 0 0 C 0.52 0.009 0.7 0.46 0.7 0.911 C 0.69 1.355 0.48 1.797 -0.01 1.793 C -0.51 1.789 -0.71 1.338 -0.7 0.898 C -0.7 0.452 -0.51 -0.004 0 0 Z M -0.02 2.187 C 0.76 2.194 1.21 1.669 1.22 0.92 c 0 -0.754 -0.42 -1.3 -1.21 -1.309 c -0.8 -0.007 -1.23 0.518 -1.23 1.28 c -0.01 0.765 0.41 1.287 1.2 1.296" stroke-linecap="round"/>
</g>
		<g transform="matrix(1.3333333559212015 0 0 -1.3333333559212015 1.5666666932073803 107.21495153758858)" id="path3824">
<path style="stroke: none; stroke-width: 1; stroke-dasharray: none; stroke-linecap: butt; stroke-dashoffset: 0; stroke-linejoin: miter; stroke-miterlimit: 4; fill: rgb(255,255,255); fill-rule: nonzero; opacity: 1;" transform=" translate(-0.44499999999999995, 0.18421229095304748)" d="M 0 0 L 0.17 0.005 C 0.41 0.009 0.7 0.047 0.69 0.361 C 0.69 0.663 0.41 0.68 0.16 0.676 L -0.01 0.671 L 0 0 Z m -0.51 1.053 l 0.53 0.012 c 0.54 0.008 1.18 0.037 1.19 -0.65 c 0 -0.294 -0.19 -0.542 -0.5 -0.587 l 0 -0.009 C 0.84 -0.189 0.92 -0.326 0.98 -0.433 L 1.4 -1.398 L 0.84 -1.407 L 0.53 -0.636 c -0.08 0.182 -0.15 0.252 -0.36 0.249 l -0.16 -0.005 l 0.02 -1.031 l -0.5 -0.013 l -0.04 2.489" stroke-linecap="round"/>
</g>
		<g transform="matrix(1.3333333559212015 0 0 -1.3333333559212015 4.240000071829419 107.1520018152515)" id="path3828">
<path style="stroke: none; stroke-width: 1; stroke-dasharray: none; stroke-linecap: butt; stroke-dashoffset: 0; stroke-linejoin: miter; stroke-miterlimit: 4; fill: rgb(255,255,255); fill-rule: nonzero; opacity: 1;" transform=" translate(-0.77, 1.239)" d="m 0 0 l 0.5 0.014 l 0.06 -2.1 l 0.97 0.028 L 1.54 -2.45 L 0.07 -2.492 L 0 0" stroke-linecap="round"/>
</g>
		<g transform="matrix(1.3333333559212015 0 0 -1.3333333559212015 6.9817542247879985 107.07384931225258)" id="path3832">
<path style="stroke: none; stroke-width: 1; stroke-dasharray: none; stroke-linecap: butt; stroke-dashoffset: 0; stroke-linejoin: miter; stroke-miterlimit: 4; fill: rgb(255,255,255); fill-rule: nonzero; opacity: 1;" transform=" translate(-0.4963155798830796, -0.8476143762561471)" d="M 0 0 L 0.28 0.016 C 0.69 0.028 1.08 0.355 1.06 0.898 C 1.04 1.44 0.62 1.734 0.21 1.717 L -0.07 1.705 L 0 0 Z M -0.59 2.078 L 0.1 2.107 C 0.86 2.135 1.54 1.908 1.58 0.923 C 1.63 -0.066 0.96 -0.352 0.2 -0.385 l -0.68 -0.029 l -0.11 2.492" stroke-linecap="round"/>
</g>
		<g transform="matrix(1.3333333559212015 0 0 -1.3333333559212015 11.510038834763089 106.75432250174019)" id="path3836">
<path style="stroke: none; stroke-width: 1; stroke-dasharray: none; stroke-linecap: butt; stroke-dashoffset: 0; stroke-linejoin: miter; stroke-miterlimit: 4; fill: rgb(255,255,255); fill-rule: nonzero; opacity: 1;" transform=" translate(1.0074710201705468, -1.1692594800806388)" d="m 0 0 c -0.18 -0.055 -0.37 -0.105 -0.56 -0.113 c -0.8 -0.057 -1.39 0.302 -1.45 1.143 c -0.06 0.852 0.43 1.361 1.27 1.424 c 0.17 0.012 0.39 -0.008 0.57 -0.063 l 0 -0.422 C -0.37 2.061 -0.54 2.073 -0.72 2.064 C -1.23 2.028 -1.53 1.613 -1.49 1.1 c 0.03 -0.501 0.37 -0.861 0.9 -0.828 c 0.2 0.017 0.43 0.074 0.54 0.141 L 0 0" stroke-linecap="round"/>
</g>
		<g transform="matrix(1.3333333559212015 0 0 -1.3333333559212015 14.565756789935344 106.50283992171364)" id="path3840">
<path style="stroke: none; stroke-width: 1; stroke-dasharray: none; stroke-linecap: butt; stroke-dashoffset: 0; stroke-linejoin: miter; stroke-miterlimit: 4; fill: rgb(255,255,255); fill-rule: nonzero; opacity: 1;" transform=" translate(-1.0943174073837083, 1.1171285880947506)" d="M 0 0 L 0.5 0.05 L 0.64 -1.379 C 0.68 -1.805 0.85 -2.07 1.22 -2.033 C 1.6 -1.992 1.71 -1.702 1.67 -1.28 L 1.53 0.149 L 2.03 0.198 L 2.18 -1.384 C 2.25 -2.05 1.89 -2.36 1.26 -2.423 C 0.63 -2.484 0.22 -2.248 0.16 -1.582 L 0 0" stroke-linecap="round"/>
</g>
		<g transform="matrix(1.3333333559212015 0 0 -1.3333333559212015 17.55347521801404 106.24932526525446)" id="path3844">
<path style="stroke: none; stroke-width: 1; stroke-dasharray: none; stroke-linecap: butt; stroke-dashoffset: 0; stroke-linejoin: miter; stroke-miterlimit: 4; fill: rgb(255,255,255); fill-rule: nonzero; opacity: 1;" transform=" translate(-0.2351061904817905, 0.10299259897139623)" d="M 0 0 L 0.17 0.028 C 0.42 0.058 0.63 0.174 0.59 0.459 C 0.56 0.74 0.33 0.815 0.07 0.778 L -0.1 0.753 L 0 0 Z m -0.65 1.076 l 0.62 0.087 C 0.51 1.237 1.02 1.146 1.11 0.555 C 1.19 -0.017 0.79 -0.286 0.26 -0.36 L 0.05 -0.39 L 0.18 -1.324 L -0.31 -1.391 L -0.65 1.076" stroke-linecap="round"/>
</g>
		<g transform="matrix(1.3333333559212015 0 0 -1.3333333559212015 49.96666751314695 112.64200190825694)" id="path3848">
<path style="stroke: none; stroke-width: 1; stroke-dasharray: none; stroke-linecap: butt; stroke-dashoffset: 0; stroke-linejoin: miter; stroke-miterlimit: 4; fill: rgb(35,31,32); fill-rule: nonzero; opacity: 1;" transform=" translate(-1.375, -0.26150000000000007)" d="m 0 0 l 0 -1.142 l -0.46 0 l 0 2.807 l 0.46 0 l 0 -1.143 l 3.21 0 L 3.21 0 L 0 0" stroke-linecap="round"/>
</g>
		<g transform="matrix(1.3333333559212015 0 0 -1.3333333559212015 49.966667513147065 107.38133515246984)" id="path3852">
<path style="stroke: none; stroke-width: 1; stroke-dasharray: none; stroke-linecap: butt; stroke-dashoffset: 0; stroke-linejoin: miter; stroke-miterlimit: 4; fill: rgb(35,31,32); fill-rule: nonzero; opacity: 1;" transform=" translate(-1.835, -2.008)" d="M 0 0 L 0 0.869 L 3.05 2.021 L 0 3.147 l 0 0.869 l 3.67 0 l 0 -0.526 l -3.18 0 l 0 -0.005 l 3.18 -1.216 l 0 -0.518 l -3.18 -1.213 l 0 -0.013 l 3.18 0 L 3.67 0 L 0 0" stroke-linecap="round"/>
</g>
		<g transform="matrix(1.3333333559212015 0 0 -1.3333333559212015 49.96666751314702 100.44333503493384)" id="path3856">
<path style="stroke: none; stroke-width: 1; stroke-dasharray: none; stroke-linecap: butt; stroke-dashoffset: 0; stroke-linejoin: miter; stroke-miterlimit: 4; fill: rgb(35,31,32); fill-rule: nonzero; opacity: 1;" transform=" translate(0.375, 1.0804999999999998)" d="m 0 0 c 0.59 -0.092 0.93 -0.522 0.93 -1.026 c 0 -0.742 -0.56 -1.222 -1.3 -1.222 c -0.75 0 -1.3 0.447 -1.3 1.205 c 0 0.521 0.31 0.968 0.89 1.043 l 0 -0.431 c -0.29 -0.062 -0.48 -0.298 -0.48 -0.608 c 0 -0.497 0.38 -0.754 0.87 -0.754 c 0.52 0 0.91 0.281 0.91 0.767 c 0 0.318 -0.19 0.554 -0.52 0.595 L 0 0 Z m 1.35 -1.081 c 0 0.898 -0.72 1.623 -1.72 1.623 c -1.01 0 -1.73 -0.725 -1.73 -1.623 c 0 -0.898 0.72 -1.627 1.73 -1.627 c 1 0 1.72 0.729 1.72 1.627 z m -3.87 0 c 0 1.185 0.96 2.149 2.15 2.149 c 1.18 0 2.14 -0.964 2.14 -2.149 c 0 -1.184 -0.96 -2.148 -2.14 -2.148 c -1.19 0 -2.15 0.964 -2.15 2.148" stroke-linecap="round"/>
</g>
</g>
</g>
</g>
</svg>
