<?xml version="1.0" encoding="UTF-8"?>
<!DOCTYPE svg PUBLIC "-//W3C//DTD SVG 1.1//EN" "http://www.w3.org/Graphics/SVG/1.1/DTD/svg11.dtd">
<!-- Creator: CorelDRAW X8 -->
<svg xmlns="http://www.w3.org/2000/svg" xml:space="preserve" width="0.447803in" height="0.609787in" version="1.1" style="shape-rendering:geometricPrecision; text-rendering:geometricPrecision; image-rendering:optimizeQuality; fill-rule:evenodd; clip-rule:evenodd"
viewBox="0 0 55 75"
 xmlns:xlink="http://www.w3.org/1999/xlink">
 <defs>
  <style type="text/css">
   <![CDATA[
    .fil1 {fill:#74CBF2}
    .fil0 {fill:#777876}
   ]]>
  </style>
 </defs>
 <g id="Layer_x0020_1">
  <metadata id="CorelCorpID_0Corel-Layer"/>
  <path class="fil0" d="M28 67l11 -19 0 0 -4 -5 -2 -2c-7,-7 -15,-8 -20,-8l0 0 -11 20c-1,2 -2,5 -2,8 0,5 3,10 8,12 7,4 16,2 20,-6l0 0z"/>
  <path class="fil0" d="M14 28l4 1c7,1 16,4 21,12l3 4 11 -22c2,-2 2,-5 2,-8 0,-5 -3,-10 -8,-13 -8,-4 -17,-1 -21,6l-12 20z"/>
  <path class="fil1" d="M45 6c3,2 5,5 5,9 0,2 0,4 -1,6l-8 15c-6,-7 -13,-10 -19,-11l8 -15c3,-5 9,-7 15,-4l0 0z"/>
 </g>
</svg>
