<?xml version="1.0" encoding="UTF-8" standalone="no"?>
<!DOCTYPE svg PUBLIC "-//W3C//DTD SVG 1.1//EN" "http://www.w3.org/Graphics/SVG/1.1/DTD/svg11.dtd">
<svg xmlns="http://www.w3.org/2000/svg" xmlns:xlink="http://www.w3.org/1999/xlink" version="1.1" width="389" height="1200" viewBox="0 0 389 1200" xml:space="preserve">
<desc>Created with Fabric.js 3.2.0</desc>
<defs>
	<style type="text/css"><![CDATA[
		@font-face {
			font-family: 'ABeeZee Regular';
			src: url('ABeeZee Regular.ttf');
		}
]]></style>
</defs>
<g style="" id="id_1579842640834" clip-path="url(#CLIPPATH_5)">
<g transform="matrix(2.2222222222222223 0 0 2.2222222222222223 202.49528047773575 707.3000000000001)">
<clipPath id="CLIPPATH_5">
	<rect transform="matrix(1 0 0 1 182.72222222222223 701.6111111111111)" x="-160" y="-327.77777777777777" rx="0" ry="0" width="320" height="655.5555555555555"/>
</clipPath>
		<text xml:space="preserve" font-family="ABeeZee Regular" font-size="39" font-style="normal" font-weight="normal" style="stroke: none; stroke-width: 0; stroke-dasharray: none; stroke-linecap: butt; stroke-dashoffset: 0; stroke-linejoin: miter; stroke-miterlimit: 4; fill: rgb(17,255,0); fill-rule: nonzero; opacity: 1; white-space: pre;"><tspan x="-62.222876214981085" y="12.251459999999994">Side 2</tspan></text>
</g>
</g>
<g id="id_1579787707937" clip-path="url(#CLIPPATH_6)">
<g transform="matrix(0.376130217840006 0 0 0.376130217840006 190.48504863732416 524.6631175953148)">
<clipPath id="CLIPPATH_6">
	<rect transform="matrix(1 0 0 1 182.72222222222223 701.6111111111111)" x="-160" y="-327.77777777777777" rx="0" ry="0" width="320" height="655.5555555555555"/>
</clipPath>
<g style="">
		<g transform="matrix(0.096 0 0 0.096 0 2.842e-14)" id="Layer_x0020_1">
<path style="stroke: none; stroke-width: 1; stroke-dasharray: none; stroke-linecap: butt; stroke-dashoffset: 0; stroke-linejoin: miter; stroke-miterlimit: 4; fill: rgb(0,0,0); fill-rule: evenodd; opacity: 1;" transform=" translate(-4250.2666588908305, -5499.706360220581)" d="M 4755 7581 c 124 -11 206 -62 281 -121 c 119 -24 203 -82 228 -199 c 218 -154 352 -394 436 -683 c 352 -2 531 -176 673 -388 c 78 52 167 92 252 136 c -88 36 -151 96 -203 165 c -33 42 -73 88 -83 145 c 33 14 73 -4 112 0 c 4 20 -38 58 -20 92 c 54 2 113 -17 150 -15 c -11 23 -35 63 -14 88 c 69 -10 136 -23 194 -44 c -6 26 -30 56 -15 87 c 83 -10 153 -26 218 -58 c 60 -29 108 -74 165 -111 c 146 -96 369 -238 271 -490 c -57 -146 -215 -263 -339 -344 c -47 -31 -100 -56 -136 -96 c 282 -53 491 -190 650 -369 c 157 -178 273 -416 310 -712 c 0 -55 0 -110 0 -165 c -25 -226 -95 -409 -209 -547 c 2 -16 8 -28 5 -48 c -21 -6 -16 16 -34 14 c -13 -24 -42 -32 -53 -63 c -12 -33 5 -78 -24 -102 c -22 15 -26 53 -49 54 c -5 0 -30 -34 -43 -34 c -22 -46 -34 -103 -73 -131 c -9 28 -16 58 -34 77 c -76 -17 -78 -109 -145 -135 c -3 8 6 28 -5 29 c -8 -15 -9 -36 -24 -44 c -10 23 -21 44 -29 68 c -27 -2 -44 -15 -68 -19 c -14 -26 -41 -46 -63 -68 c -21 -20 -41 -54 -73 -49 c 5 22 11 63 -5 78 c -88 -15 -113 -94 -194 -116 c -1 27 9 43 5 72 c -106 2 -124 -86 -208 -106 c -1 28 8 46 5 77 c -93 -2 -125 -65 -194 -92 c -6 0 -13 0 -19 0 c 2 29 17 44 14 78 c -102 4 -144 -53 -218 -78 c -5 0 -9 0 -14 0 c 1 29 13 48 19 73 c -39 0 -77 0 -116 0 c -44 -27 -87 -55 -146 -68 c 2 30 21 44 20 78 c -122 27 -168 -48 -267 -59 c 3 33 28 44 25 83 c -45 -4 -75 15 -112 10 c -58 -9 -104 -66 -165 -54 c 9 27 24 47 30 78 c -106 38 -170 -24 -267 -34 c 4 32 25 46 29 77 c -97 38 -161 -24 -257 -29 c -2 16 13 29 20 44 c 4 10 22 31 5 34 c -85 38 -144 -25 -233 -24 c 1 25 45 57 24 72 c -72 34 -125 -36 -213 -29 c 5 29 39 50 29 78 c -81 26 -130 -25 -208 -29 c -6 27 41 47 14 63 c -64 26 -112 -23 -179 -25 c -16 15 37 44 10 54 c -79 19 -123 -26 -189 -34 c -15 14 33 47 10 53 c -34 15 -99 -2 -117 29 c 182 119 444 148 712 160 c 275 12 567 14 829 44 c 517 59 963 215 1284 455 c -33 15 -54 40 -78 63 c -24 23 -45 50 -102 39 c -8 -33 1 -85 -9 -117 c -42 -1 -78 15 -116 34 c -34 17 -67 54 -102 58 c -41 6 -83 -16 -136 -19 c -13 -35 -1 -96 -19 -126 c -67 13 -122 35 -180 68 c -18 10 -32 27 -48 29 c -24 3 -58 -11 -87 -14 c -30 -4 -60 -1 -92 -10 c -18 -34 -6 -98 -24 -131 c -78 3 -129 43 -185 78 c -16 10 -37 25 -53 29 c -45 9 -89 -14 -155 -5 c -25 -34 -18 -98 -39 -136 c -76 11 -129 51 -184 92 c -18 14 -34 34 -53 39 c -35 9 -77 -4 -126 5 c -23 -29 -20 -84 -44 -112 c -93 10 -121 108 -198 136 c -34 13 -74 7 -121 19 c -30 -23 -28 -79 -58 -101 c -89 22 -114 118 -185 159 c -35 21 -77 25 -125 44 c -35 -17 -32 -72 -68 -87 c -70 40 -106 114 -150 179 c -34 20 -77 31 -107 53 c -43 -14 -43 -70 -82 -87 c -61 49 -97 123 -136 194 c -48 10 -75 56 -131 44 c -14 -28 13 -71 0 -97 c -87 -12 -141 48 -208 53 c -37 3 -69 -18 -116 -15 c -17 -26 1 -88 -20 -111 c -48 2 -80 20 -111 39 c -57 -34 -120 -80 -204 -87 c -116 -11 -199 49 -261 106 c -109 -50 -188 -188 -325 -165 c -115 20 -126 208 -165 315 c -57 -16 -120 -36 -174 -19 c -102 32 -117 178 -155 271 c -38 9 -74 18 -116 29 c -34 10 -73 31 -107 34 c -85 9 -180 -22 -266 10 c -163 -108 -462 -149 -606 5 c -55 59 -95 156 -82 271 c 6 60 29 160 121 150 c 9 41 25 99 58 97 c 40 -2 38 -77 53 -121 c 112 -3 164 66 233 112 c 15 10 38 10 48 29 c 16 48 21 108 73 121 c 33 -24 32 -81 48 -121 c 139 -32 299 -160 456 -68 c -97 184 -261 301 -431 412 c -34 -8 -38 -60 -68 -44 c -21 10 -19 43 -20 87 c -88 44 -208 147 -111 252 c 161 174 629 169 906 82 c 156 -48 304 -115 436 -116 c -89 27 -140 89 -199 150 c -19 20 -46 36 -43 68 c 42 12 92 14 140 20 c 3 25 -43 44 -34 92 c 64 9 142 -2 199 -15 c 4 20 -38 58 -20 92 c 82 -1 152 -13 214 -34 c -6 24 -28 58 -10 78 c 87 -9 152 -21 213 -54 c 33 -17 55 -48 87 -63 c 45 -19 93 -21 136 -53 c 155 71 362 129 591 136 c 227 6 460 -28 644 -78 c 88 52 237 87 373 58 c -26 59 -70 143 -106 209 c -156 20 -272 82 -359 179 c -26 30 -69 61 -72 107 c 49 9 101 15 155 19 c 1 29 -49 49 -39 102 c 73 9 162 -1 223 -20 c -9 32 -42 64 -24 107 c 82 -3 171 -25 232 -34 c -13 6 -8 30 -19 39 c -8 16 13 42 -5 38 l 58 -4 z" stroke-linecap="round"/>
</g>
</g>
</g>
</g>
</svg>
