<?xml version="1.0" encoding="utf-8"?>
<!-- Generator: Adobe Illustrator 24.0.2, SVG Export Plug-In . SVG Version: 6.00 Build 0)  -->
<svg version="1.1" id="Layer_1" xmlns="http://www.w3.org/2000/svg" xmlns:xlink="http://www.w3.org/1999/xlink" x="0px" y="0px"
	 viewBox="0 0 534.579 568.413" enable-background="new 0 0 534.579 568.413" xml:space="preserve">
<g>
	
		<rect x="46.29" y="63.206" fill="#107E35" stroke="#FFFFFF" stroke-width="19.777" stroke-miterlimit="10" width="442" height="442"/>
	<g>
		<rect x="236.542" y="115.945" fill="#FFFFFF" width="61.495" height="196.783"/>
		<g>
			
				<rect x="236.542" y="115.945" transform="matrix(-1.836970e-16 1 -1 -1.836970e-16 481.6261 -52.9531)" fill="#FFFFFF" width="61.495" height="196.783"/>
		</g>
	</g>
	<g>
		<path fill="#FFFFFF" d="M168.369,388.883v-35.655h24.443v6.031h-17.244v8.44h14.885v6.031h-14.885v15.153H168.369z"/>
		<path fill="#FFFFFF" d="M198.697,359.551v-6.324h6.834v6.324H198.697z M198.697,388.883v-25.828h6.834v25.828H198.697z"/>
		<path fill="#FFFFFF" d="M219.078,388.883h-6.834v-25.828h6.349v3.672c1.084-1.735,2.061-2.878,2.93-3.43
			c0.866-0.552,1.851-0.828,2.955-0.828c1.556,0,3.057,0.43,4.5,1.288l-2.116,5.96c-1.153-0.745-2.221-1.12-3.212-1.12
			c-0.957,0-1.766,0.265-2.431,0.792c-0.665,0.527-1.189,1.479-1.57,2.858c-0.381,1.377-0.571,4.263-0.571,8.658V388.883z"/>
		<path fill="#FFFFFF" d="M229.513,381.513l6.859-1.046c0.292,1.33,0.883,2.34,1.774,3.027c0.894,0.69,2.141,1.035,3.747,1.035
			c1.766,0,3.096-0.323,3.99-0.971c0.599-0.455,0.899-1.062,0.899-1.827c0-0.519-0.163-0.946-0.488-1.288
			c-0.339-0.323-1.101-0.624-2.285-0.899c-5.513-1.217-9.008-2.326-10.482-3.333c-2.044-1.393-3.065-3.33-3.065-5.811
			c0-2.238,0.883-4.119,2.651-5.642c1.766-1.526,4.506-2.287,8.219-2.287c3.534,0,6.161,0.577,7.88,1.727
			c1.719,1.151,2.903,2.853,3.551,5.107l-6.445,1.192c-0.276-1.004-0.797-1.777-1.567-2.312c-0.773-0.533-1.871-0.8-3.297-0.8
			c-1.799,0-3.087,0.251-3.865,0.753c-0.519,0.356-0.778,0.819-0.778,1.385c0,0.488,0.226,0.899,0.679,1.242
			c0.618,0.452,2.745,1.095,6.384,1.92c3.642,0.828,6.183,1.84,7.626,3.04c1.426,1.217,2.141,2.911,2.141,5.082
			c0,2.37-0.991,4.403-2.969,6.106c-1.978,1.702-4.906,2.555-8.779,2.555c-3.518,0-6.304-0.715-8.354-2.141
			C231.488,385.9,230.145,383.961,229.513,381.513z"/>
		<path fill="#FFFFFF" d="M271.467,363.055v5.446h-4.671v10.41c0,2.108,0.044,3.336,0.135,3.683c0.088,0.35,0.29,0.637,0.607,0.864
			c0.317,0.229,0.701,0.342,1.156,0.342c0.632,0,1.548-0.221,2.748-0.657l0.582,5.3c-1.589,0.681-3.388,1.024-5.397,1.024
			c-1.233,0-2.345-0.207-3.333-0.621c-0.991-0.414-1.716-0.949-2.177-1.606c-0.464-0.657-0.784-1.545-0.96-2.663
			c-0.146-0.795-0.221-2.4-0.221-4.817v-11.26H256.8v-5.446h3.137v-5.132l6.859-3.99v9.121H271.467z"/>
		<path fill="#FFFFFF" d="M320.399,388.883h-7.833l-3.112-8.098h-14.251l-2.944,8.098h-7.637l13.886-35.655h7.612L320.399,388.883z
			 M307.145,374.776l-4.914-13.23l-4.815,13.23H307.145z"/>
		<path fill="#FFFFFF" d="M324.171,359.551v-6.324h6.834v6.324H324.171z M324.171,388.883v-25.828h6.834v25.828H324.171z"/>
		<path fill="#FFFFFF" d="M361.697,388.883h-6.349v-3.794c-1.054,1.476-2.298,2.574-3.733,3.294
			c-1.435,0.723-2.883,1.084-4.343,1.084c-2.966,0-5.507-1.197-7.623-3.59c-2.116-2.389-3.176-5.728-3.176-10.007
			c0-4.379,1.032-7.706,3.09-9.985c2.058-2.276,4.66-3.416,7.808-3.416c2.883,0,5.383,1.2,7.491,3.601v-12.843h6.834V388.883z
			 M343.454,375.41c0,2.756,0.381,4.748,1.145,5.982c1.101,1.785,2.64,2.676,4.619,2.676c1.573,0,2.911-0.67,4.014-2.009
			c1.104-1.335,1.653-3.336,1.653-5.993c0-2.969-0.535-5.104-1.603-6.409c-1.07-1.305-2.442-1.959-4.111-1.959
			c-1.622,0-2.98,0.646-4.075,1.934C344.003,370.921,343.454,372.847,343.454,375.41z"/>
		<path fill="#FFFFFF" d="M206.149,448.655V413h11.555c4.376,0,7.229,0.179,8.559,0.535c2.044,0.535,3.755,1.7,5.132,3.49
			c1.38,1.793,2.069,4.108,2.069,6.945c0,2.188-0.397,4.028-1.192,5.521c-0.795,1.493-1.804,2.663-3.029,3.515
			c-1.225,0.85-2.469,1.413-3.733,1.689c-1.719,0.342-4.208,0.51-7.466,0.51h-4.693v13.45H206.149z M213.35,419.031v10.118h3.94
			c2.836,0,4.735-0.185,5.689-0.557c0.957-0.372,1.708-0.957,2.251-1.752s0.814-1.719,0.814-2.773c0-1.297-0.381-2.367-1.142-3.209
			c-0.764-0.844-1.727-1.371-2.894-1.581c-0.861-0.163-2.588-0.246-5.182-0.246H213.35z"/>
		<path fill="#FFFFFF" d="M237.743,435.376c0-2.271,0.56-4.467,1.678-6.591c1.12-2.124,2.704-3.744,4.754-4.864
			c2.053-1.117,4.343-1.677,6.873-1.677c3.907,0,7.107,1.269,9.607,3.807c2.494,2.536,3.744,5.742,3.744,9.618
			c0,3.907-1.261,7.146-3.783,9.715c-2.522,2.571-5.695,3.857-9.522,3.857c-2.367,0-4.624-0.535-6.774-1.606
			c-2.147-1.07-3.78-2.64-4.9-4.707C238.303,440.861,237.743,438.342,237.743,435.376z M244.748,435.74
			c0,2.563,0.607,4.525,1.824,5.885c1.214,1.363,2.715,2.044,4.497,2.044c1.785,0,3.281-0.681,4.489-2.044
			c1.206-1.36,1.81-3.338,1.81-5.932c0-2.53-0.604-4.475-1.81-5.838c-1.208-1.363-2.704-2.042-4.489-2.042
			c-1.782,0-3.283,0.679-4.497,2.042C245.355,431.218,244.748,433.18,244.748,435.74z"/>
		<path fill="#FFFFFF" d="M269.751,419.323V413h6.834v6.324H269.751z M269.751,448.655v-25.828h6.834v25.828H269.751z"/>
		<path fill="#FFFFFF" d="M307.081,448.655h-6.834v-13.183c0-2.787-0.146-4.591-0.439-5.411c-0.29-0.819-0.764-1.454-1.421-1.909
			c-0.657-0.452-1.449-0.681-2.373-0.681c-1.184,0-2.246,0.326-3.187,0.974c-0.938,0.648-1.584,1.506-1.931,2.577
			c-0.35,1.071-0.524,3.049-0.524,5.935v11.698h-6.834v-25.828h6.349v3.794c2.254-2.919,5.09-4.379,8.512-4.379
			c1.509,0,2.886,0.27,4.136,0.814c1.247,0.544,2.191,1.236,2.834,2.08c0.64,0.844,1.084,1.799,1.335,2.869s0.378,2.602,0.378,4.597
			V448.655z"/>
		<path fill="#FFFFFF" d="M325.859,422.827v5.446h-4.671v10.41c0,2.108,0.044,3.336,0.135,3.683c0.088,0.35,0.29,0.637,0.607,0.864
			c0.317,0.229,0.701,0.342,1.156,0.342c0.632,0,1.548-0.221,2.748-0.657l0.582,5.3c-1.589,0.681-3.388,1.024-5.397,1.024
			c-1.233,0-2.345-0.207-3.333-0.621c-0.991-0.414-1.716-0.949-2.177-1.606c-0.464-0.657-0.784-1.545-0.96-2.662
			c-0.146-0.795-0.221-2.4-0.221-4.817v-11.26h-3.137v-5.446h3.137v-5.132l6.859-3.99v9.121H325.859z"/>
	</g>
</g>
</svg>
