<?xml version="1.0" encoding="utf-8"?>
<!-- Generator: Adobe Illustrator 24.0.2, SVG Export Plug-In . SVG Version: 6.00 Build 0)  -->
<svg version="1.1" id="Layer_1" xmlns="http://www.w3.org/2000/svg" xmlns:xlink="http://www.w3.org/1999/xlink" x="0px" y="0px"
	 viewBox="0 0 534.579 568.413" enable-background="new 0 0 534.579 568.413" xml:space="preserve">
<g>
	<rect x="37.956" y="54.873" fill="#325AA6" width="458.667" height="458.667"/>
	<g>
		<path fill="#FFFFFF" d="M126.462,100.206h119.241c64.761,0,84.805,2.055,104.335,11.307
			c23.643,11.307,58.079,39.576,58.079,101.766c0,64.759-37.005,92.513-60.135,103.307c-26.212,12.335-65.788,12.849-98.682,12.849
			h-48.826v138.771h-74.012V100.206z M200.474,162.397v104.849h41.118c38.034,0,89.944,0,89.944-52.938
			c0-13.364-4.113-27.241-16.961-37.52c-16.448-14.39-33.923-14.39-78.123-14.39H200.474z"/>
	</g>
</g>
</svg>
