<?xml version="1.0" encoding="utf-8"?>
<!-- Generator: Adobe Illustrator 24.0.2, SVG Export Plug-In . SVG Version: 6.00 Build 0)  -->
<svg version="1.1" id="Layer_1" xmlns="http://www.w3.org/2000/svg" xmlns:xlink="http://www.w3.org/1999/xlink" x="0px" y="0px"
	 viewBox="0 0 534.579 568.413" enable-background="new 0 0 534.579 568.413" xml:space="preserve">
<g>
	<path d="M36.932,195.63h34.216c7.452,0,13.033,1.772,16.745,5.316c3.71,3.544,5.566,8.588,5.566,15.132
		c0,6.725-2.022,11.981-6.066,15.768c-4.044,3.787-10.217,5.68-18.517,5.68h-11.27v24.719H36.932V195.63z M57.606,224.03h5.044
		c3.968,0,6.755-0.689,8.36-2.068c1.605-1.378,2.409-3.143,2.409-5.293c0-2.09-0.697-3.863-2.091-5.317
		c-1.394-1.454-4.014-2.181-7.861-2.181h-5.861V224.03z"/>
	<path d="M137.275,251.249h-23.37l-3.247,10.997H89.642l25.037-66.615h22.453l25.031,66.615h-21.556L137.275,251.249z
		 M133.005,236.844l-7.353-23.947l-7.276,23.947H133.005z"/>
	<path d="M168.98,262.245V195.63h34.307c6.362,0,11.224,0.545,14.587,1.636c3.362,1.091,6.073,3.113,8.134,6.066
		c2.06,2.954,3.09,6.551,3.09,10.792c0,3.696-0.788,6.884-2.364,9.565c-1.576,2.681-3.744,4.855-6.502,6.521
		c-1.758,1.061-4.168,1.939-7.229,2.635c2.452,0.819,4.238,1.638,5.358,2.456c0.757,0.546,1.854,1.713,3.293,3.502
		c1.438,1.789,2.398,3.169,2.883,4.139l9.969,19.303h-23.259l-11.003-20.357c-1.394-2.636-2.636-4.347-3.727-5.135
		c-1.484-1.03-3.166-1.545-5.044-1.545h-1.817v27.037H168.98z M189.655,222.622h8.68c0.938,0,2.756-0.303,5.452-0.909
		c1.363-0.272,2.477-0.969,3.34-2.09c0.863-1.121,1.295-2.409,1.295-3.863c0-2.15-0.682-3.801-2.045-4.953
		c-1.362-1.151-3.923-1.727-7.679-1.727h-9.043V222.622z"/>
	<path d="M241.185,195.63h20.584v25.174l21.563-25.174h27.376l-24.309,25.144l25.399,41.471h-25.349l-14.046-27.396l-10.635,11.14
		v16.255h-20.584V195.63z"/>
	<path d="M319.432,195.63h20.63v66.615h-20.63V195.63z"/>
	<path d="M354.966,195.63h19.222l25.083,36.855V195.63h19.402v66.615h-19.402l-24.947-36.576v36.576h-19.357V195.63z"/>
	<path d="M465.84,238.117v-13.859h31.808v28.4c-6.089,4.151-11.474,6.975-16.154,8.475c-4.68,1.5-10.231,2.25-16.653,2.25
		c-7.906,0-14.352-1.348-19.335-4.044c-4.983-2.696-8.846-6.709-11.587-12.042c-2.742-5.332-4.112-11.451-4.112-18.358
		c0-7.271,1.499-13.594,4.498-18.971c2.999-5.377,7.392-9.458,13.178-12.246c4.514-2.15,10.588-3.226,18.222-3.226
		c7.361,0,12.866,0.667,16.518,1.999c3.65,1.333,6.68,3.401,9.088,6.203c2.408,2.803,4.218,6.354,5.43,10.656l-19.856,3.544
		c-0.818-2.514-2.204-4.438-4.158-5.771c-1.954-1.333-4.446-2-7.475-2c-4.515,0-8.111,1.568-10.792,4.703
		c-2.682,3.136-4.021,8.096-4.021,14.882c0,7.21,1.355,12.359,4.066,15.45c2.711,3.09,6.49,4.635,11.338,4.635
		c2.302,0,4.498-0.333,6.589-1c2.09-0.666,4.482-1.802,7.179-3.408v-6.271H465.84z"/>
	<path d="M131.379,307.303h20.584v23.311h22.493v-23.311h20.675v66.615h-20.675v-26.946h-22.493v26.946h-20.584V307.303z"/>
	<path d="M208.763,307.303h55.164v14.223h-34.534v10.588h32.035V345.7h-32.035v13.133h35.534v15.086h-56.164V307.303z"/>
	<path d="M276.287,373.919v-66.615h34.307c6.362,0,11.224,0.546,14.587,1.636c3.362,1.091,6.073,3.113,8.134,6.066
		c2.06,2.954,3.09,6.551,3.09,10.792c0,3.696-0.788,6.884-2.364,9.565c-1.576,2.681-3.744,4.854-6.502,6.521
		c-1.758,1.061-4.168,1.938-7.229,2.636c2.452,0.819,4.238,1.638,5.358,2.456c0.757,0.546,1.854,1.713,3.293,3.502
		c1.438,1.789,2.398,3.169,2.883,4.139l9.969,19.303h-23.259l-11.003-20.357c-1.394-2.635-2.636-4.347-3.727-5.135
		c-1.484-1.029-3.166-1.545-5.044-1.545h-1.817v27.037H276.287z M296.962,334.295h8.68c0.938,0,2.756-0.302,5.452-0.908
		c1.363-0.272,2.477-0.97,3.34-2.091c0.863-1.12,1.295-2.408,1.295-3.862c0-2.15-0.682-3.801-2.045-4.953
		c-1.362-1.15-3.923-1.727-7.679-1.727h-9.043V334.295z"/>
	<path d="M348.355,307.303h55.164v14.223h-34.534v10.588h32.035V345.7h-32.035v13.133h35.534v15.086h-56.164V307.303z"/>
</g>
</svg>
