<?xml version="1.0" encoding="utf-8"?>
<!-- Generator: Adobe Illustrator 24.0.1, SVG Export Plug-In . SVG Version: 6.00 Build 0)  -->
<svg version="1.1" xmlns="http://www.w3.org/2000/svg" xmlns:xlink="http://www.w3.org/1999/xlink" x="0px" y="0px"
	 viewBox="0 0 384 416" enable-background="new 0 0 384 416" xml:space="preserve">
<g id="background">
	<g>
		<g>
			<path fill="#283D4F" d="M253.019,205.59c-2.05,0.247-4.169,0.503-6.197,0.512c-0.037,0-0.075,0-0.112,0
				c-7.354,0-14.589-3.324-19.375-8.908c-0.312-0.363-0.625-0.741-0.942-1.123c-1.969-2.372-4.301-5.182-7.503-6.309
				c-0.512-0.18-1.047-0.318-1.606-0.403c0.49-0.139,0.975-0.281,1.456-0.428c1.435-0.438,2.835-0.9,4.201-1.357
				c1.063-0.355,2.111-0.707,3.148-1.043c1.033-0.334,2.059-0.645,3.075-0.937c1.014-0.278,2.031-0.538,3.018-0.746
				c0.996-0.2,1.994-0.385,2.998-0.543c1.002-0.144,2.01-0.274,3.027-0.363c1.013-0.076,2.039-0.132,3.083-0.127
				c1.04,0.013,2.101,0.068,3.199,0.203c1.093,0.146,2.211,0.373,3.429,0.659c-0.583-1.097-1.404-2.065-2.351-2.917l-0.742-0.599
				c-0.124-0.104-0.255-0.196-0.387-0.282l-0.398-0.266l-0.404-0.266c-0.136-0.086-0.277-0.158-0.416-0.238
				c-0.28-0.155-0.563-0.311-0.851-0.454c-1.156-0.56-2.376-0.981-3.619-1.297c-1.244-0.304-2.508-0.483-3.775-0.574
				c-1.265-0.077-2.529-0.055-3.783,0.047c-1.259,0.123-2.472,0.291-3.673,0.507c-1.195,0.217-2.368,0.477-3.521,0.752
				c-1.147,0.283-2.274,0.581-3.382,0.89l-3.258,0.926c-1.102,0.314-2.189,0.612-3.259,0.904c-0.001,0-0.001-0.001-0.001-0.001
				l-5.373-11.955c-0.845-1.879-1.718-3.823-1.977-5.686c-0.089-0.64-0.118-1.346-0.149-2.093c-0.013-0.319-0.028-0.649-0.047-0.985
				c0.516,0.311,1.059,0.557,1.654,0.598c0.899,0.062,1.76-0.355,2.519-0.841c1.872-1.197,3.411-2.894,4.461-4.852
				c1.699-0.009,3.377-0.377,4.903-1.134c0.794-0.394,1.487-0.858,2.099-1.268c0.494-0.331,0.96-0.644,1.388-0.857
				c0.924-0.461,2.135-0.694,3.416-0.941c1.992-0.384,4.251-0.819,6.276-2.252c0.868-0.615,1.551-1.317,2.154-1.937
				c0.309-0.317,0.604-0.621,0.886-0.872c4.659,0.398,9.422-1.277,12.799-4.52c3.454-3.317,5.329-8.15,5.016-12.928
				c-0.043-0.656-0.158-1.52-0.67-2.378c-1.041-1.746-2.876-2.148-3.659-2.319c-0.516-0.113-1.04-0.211-1.546-0.305
				c-0.426-0.08-0.857-0.16-1.272-0.248c0.847-5.135-0.45-11.29-1.849-15.924c-0.217-0.717-0.458-1.419-0.717-2.109
				c0.116,0.08,0.232,0.161,0.348,0.241c6.621,4.591,8.827,8.376,10.894,15.858c2.156,7.801,7.278,14.459,9.018,22.41
				c1.842,8.416,1.09,16.517,3.723,24.704c2.554,7.942-0.892,16.347,1.566,24.273c0.556,1.792,1.425,3.453,2.327,5.103
				c-2.42,2.143-5.25,3.832-8.271,4.883C260.559,204.68,256.726,205.143,253.019,205.59z"/>
			<path fill="#283D4F" d="M233.108,140.509L233.108,140.509c-0.22-0.023-0.335-0.046-0.446-0.067
				c-0.285-0.056-0.558-0.084-0.821-0.084c-0.912,0-1.695,0.34-2.42,1.041c-0.08,0.077-0.162,0.157-0.333,0.294
				c-0.645,0.518-1.189,1.077-1.669,1.571c-0.456,0.469-0.886,0.911-1.287,1.195c-0.926,0.656-2.283,0.917-3.855,1.22
				c-1.561,0.301-3.331,0.641-5.019,1.483c-0.784,0.391-1.47,0.851-2.076,1.257c-0.498,0.333-0.968,0.648-1.397,0.862
				c-2.047,1.015-5.007,0.367-6.883-1.507c-0.072-0.072-0.141-0.15-0.211-0.225c-0.65-1.569-0.839-3.314-0.387-4.964
				c-0.703,0.061-1.384-0.089-2.001-0.389c-0.121-0.816-0.166-1.663-0.125-2.524l0.219-4.583l-3.961,1.358
				c-3.183-0.529-6.411-1.317-8.712-3.519c-0.656-0.628-1.177-1.412-1.542-2.266l6.604-7.811c1.007-1.191,2.26-2.674,2.916-4.623
				c0.394-1.17,0.501-2.291,0.596-3.279c0.03-0.312,0.058-0.607,0.094-0.884c0.665-5.189,4.983-10.156,11.002-12.655
				c5.727-2.378,11.004-2.853,17.041-2.74c3.229,2.568,5.766,6.523,7.191,11.244c1.966,6.512,2.394,11.955,1.173,14.934
				l-1.036,2.529l2.373,1.356c1.723,0.984,3.694,1.352,5.434,1.676c0.282,0.053,0.554,0.103,0.816,0.155
				c-0.07,2.651-1.227,5.33-3.131,7.158C239.142,139.751,236.02,140.82,233.108,140.509z"/>
			<path fill="#283D4F" d="M203.638,101.618c-1.73-2.218-3.46-4.436-5.19-6.655c-3.58,1.792-7.16,3.583-10.74,5.375
				c-3.845,1.924-7.83,3.866-11.9,5.447c0.001-0.645-0.017-1.266-0.034-1.848l-0.292-9.834c-0.064-2.144-0.136-4.573-0.831-6.966
				c-0.191-0.657-0.427-1.284-0.698-1.878c3.839-3.077,8.341-5.006,13.225-8.063c2.7-1.69,5.692-3.349,8.865-3.069
				c2.675,0.236,5.016,1.817,7.223,3.347c7.289,5.054,14.577,10.108,21.866,15.162c-3.985,0.346-8.176,1.188-12.589,3.02
				C209.063,97.101,206.039,99.157,203.638,101.618z"/>
			<path fill="#283D4F" d="M33.269,172.535c3.354-5.389,11.198-8.463,16.385-11.671c7.176-4.438,14.352-8.875,21.528-13.313
				c14.026-8.673,28.051-17.347,42.077-26.02c-1.404-10.17,4.717-19.915,14.458-23.157c2.953-0.983,6.113-1.346,8.94-2.648
				c3.868-1.781,6.738-5.132,10.027-7.837c1.382-1.136,2.953-2.205,4.738-2.324c2.229-0.148,4.271,1.211,5.925,2.712
				c1.829,1.66,3.496,3.611,5.875,4.421c1.983,0.675,4.571-0.297,5.74-2.035c0.019-0.028,0.037-0.055,0.056-0.083
				c0.16,1.169,0.2,2.413,0.238,3.707l0.292,9.834c0.038,1.285,0.076,2.6-0.105,3.768c-5.218,1.389-10.526,1.891-15.816,0.735
				c-1.296-0.283-2.629-0.666-3.927-0.393c-1.459,0.308-2.613,1.39-3.685,2.427c-2.14,2.07-4.281,4.141-6.421,6.211
				c3.101,1.392,5.426,3.911,7.499,6.665c0.269,0.357,0.534,0.719,0.796,1.082c-0.179,0.268-0.416,0.59-0.729,0.977
				c-2.687,3.316-5.686,6.41-8.915,9.198c-2.462-2.455-5.679-4.135-9.079-3.822c-3.449,0.317-7.636,2.362-9.868-0.286
				c-9.698,6.487-15.246,15.637-24.214,23.1c-10.184,8.476-22.009,14.95-34.594,19.079c-6.446,2.115-13.095,3.616-19.827,4.456
				C35.52,177.959,29.108,179.221,33.269,172.535z"/>
			<path fill="#283D4F" d="M151.663,129.921c5.413,7.356,11.535,14.191,18.258,20.372c1.796,1.652,3.703,3.296,6.018,4.068
				c2.998,0.999,6.255,0.407,9.412,0.26c4.257-0.199,8.547,0.462,12.561,1.892c0.969,0.789,1.713,1.646,2.061,2.631
				c0.306,0.867,0.353,1.994,0.402,3.187c0.035,0.863,0.072,1.755,0.203,2.694c0.382,2.746,1.489,5.209,2.465,7.382l3.795,8.444
				c-0.234-0.065-0.477-0.134-0.731-0.207c-4.902-1.419-9.994-2.496-15.045-3.211c-3.92-0.555-7.883-0.826-11.766-1.596
				c-14.332-2.844-27.05-12.869-33.162-26.14c-1.491-3.236-2.622-6.663-4.268-9.806c0.133-0.111,0.265-0.223,0.395-0.335
				C145.656,136.628,148.815,133.387,151.663,129.921z"/>
			<path fill="#283D4F" d="M163.413,258.984c0.502,1.843,1.371,3.487,2.21,5.077c0.46,0.872,0.895,1.695,1.27,2.543
				c1.211,2.739,1.474,5.612,1.753,8.653c0.295,3.216,0.6,6.54,2.08,9.819c1.08,2.394,2.433,4.638,3.741,6.81
				c1.606,2.665,3.123,5.183,4.186,7.96c2.999,7.83,1.684,16.512-0.058,25.461c-0.935,4.805-1.666,9.755-0.313,14.017
				c-2.18,1.171-4.361,2.342-6.541,3.512c-2.218,1.191-4.671,2.662-4.732,5.438c-0.021,0.97,0.287,1.921,0.815,2.735
				c1.306,2.015,3.531,2.986,5.767,3.542c3.139,0.78,6.456,0.832,9.618,0.152c1.987-0.428,3.902-1.137,5.873-1.633
				c5.877-1.479,12.075-1.017,18.048,0.008c1.351,0.232,2.744,0.491,4.078,0.18c1.335-0.311,2.605-1.366,2.689-2.734
				c0.05-0.809-0.309-1.579-0.585-2.341c-1.067-2.949-1.002-6.291-1.1-9.517c0.443-1.75,0.594-3.545,0.529-5.169
				c-0.101-2.52-0.596-4.976-1.075-7.351c-0.377-1.87-0.733-3.635-0.915-5.438c-0.282-2.791-0.143-5.755-0.009-8.621
				c0.024-0.513,0.047-1.028,0.069-1.544c1.257-13.285-0.317-26.843-4.712-39.446c-0.672-1.926-1.412-4.019-0.757-5.95
				c0.647-1.905,2.477-3.117,4.211-4.136c7.979-4.69,14.627-7.536,23.485-10.218c0.792,6.704,2.797,13.196,4.793,19.645
				c1.599,5.168,2.582,10.677,6.495,13.91c-3.64,1.799-6.784,5.935-5.66,10.37c0.846,3.34,3.701,5.41,6.552,7.244
				c6.117,3.935,12.443,8.003,19.081,11.52c1.398,0.741,2.827,1.465,4.209,2.167c3.343,1.696,6.799,3.449,9.958,5.503
				c3.04,1.977,5.938,4.32,8.741,6.585c4.544,3.673,9.243,7.47,13.454,11.614c1.163,1.145,2.332,2.355,3.461,3.526
				c4.319,4.476,8.786,9.105,14.576,11.836c1.298,0.613,3.022,1.307,4.938,1.307c0.067,0,0.134-0.001,0.202-0.003
				c2.687-0.069,4.986-1.51,6.833-2.667c0.452-0.283,0.967-0.766,1.575-1.443c0.486,0.384,0.942,0.805,1.347,1.28
				c0.823,0.968,1.435,2.139,2.45,2.903c1.61,1.213,3.861,1.12,5.804,0.583c5.93-1.641,10.566-7.189,11.128-13.316
				c0.263-2.872-0.267-5.908,1.202-8.485c0.228-0.4,0.387-0.841,0.453-1.297c0.283-1.959-1.277-2.825-3.147-3.038
				c0.213-0.374,0.39-0.783,0.526-1.223c0.666-2.149,0.244-4.677-1.076-6.441c-2.078-2.777-5.381-3.879-8.585-4.77
				c-2.023-0.562-4.092-1.106-6.093-1.631c-9.111-2.393-18.531-4.867-26.451-9.89c-3.731-2.366-7.205-5.354-10.565-8.243
				c-4.832-4.155-9.829-8.452-15.814-11.15c-2.462-1.109-5.006-1.913-7.6-2.506c-1.684-3.796-2.127-8.256-2.614-12.367
				c-1.098-9.252-2.196-18.606-1.12-27.861c1.566-13.47,7.602-27.543,3.014-40.072c-2.7,2.141-5.756,3.834-9.045,4.979
				c-4.092,1.423-8.264,1.927-12.298,2.413c-2.225,0.269-4.526,0.546-6.914,0.557c-0.047,0-0.093,0-0.14,0
				c-9.149,0-18.151-4.137-24.107-11.084c-0.332-0.388-0.667-0.79-1.005-1.198c-1.355-1.631-2.743-3.298-4.137-4.089
				c-1.185,1.335-2.16,2.9-3.126,4.412c-2.702,4.233-5.614,8.328-8.524,12.421c-3.08,4.331-6.163,8.666-9.599,12.724
				c-1.312,1.549-2.509,3.192-3.537,4.943c-0.969,1.649-2.257,3.685-3.132,5.701c-1.468-0.852-3.13-1.594-5.01-2.237
				c-4.473-1.531-8.128-1.462-10.865,0.205C166.572,238.454,161.3,251.229,163.413,258.984z M245.982,287.01
				c3.036-1.348,6.673-1.213,10.189-1.083l1.102,0.04c8.486,0.309,17.26,0.628,24.877,4.061c5.575,2.513,10.184,6.476,15.063,10.672
				c3.444,2.962,7.006,6.024,10.928,8.512c8.328,5.282,17.987,7.819,27.327,10.272c1.99,0.523,4.048,1.063,6.05,1.62
				c2.687,0.747,5.435,1.643,6.926,3.635c0.719,0.961,0.964,2.463,0.595,3.652c-0.168,0.541-0.532,1.242-1.316,1.508
				c-1.275,0.432-2.319,1.852-3.007,3.15c-6.156,3.877-11.352,9.288-14.865,15.662c-0.235,0.427-0.469,0.864-0.72,1.289
				c0.147,0.074,0.292,0.15,0.438,0.226c-0.221,0.228-0.41,0.399-0.547,0.486c-1.605,1.006-3.424,2.146-5.259,2.193
				c-1.047,0.027-2.198-0.284-3.732-1.007c-5.274-2.488-9.539-6.908-13.663-11.182c-1.144-1.185-2.326-2.411-3.518-3.583
				c-4.319-4.25-9.079-8.097-13.681-11.816c-2.864-2.315-5.826-4.709-9.001-6.774c-3.298-2.145-6.831-3.937-10.246-5.67
				c-1.37-0.695-2.787-1.414-4.16-2.141c-6.522-3.455-12.791-7.488-18.854-11.387c-2.425-1.56-4.649-3.146-5.218-5.39
				C240.979,291.157,243.365,288.172,245.982,287.01z M175.29,236.791c1.91-1.163,4.681-1.136,8.237,0.082
				c3.347,1.146,5.877,2.608,7.736,4.472c0.067,0.067,0.131,0.137,0.196,0.206c3.63,9.343,5.532,19.283,7.406,29.145
				c2.874,15.115,5.747,30.229,8.62,45.344c-0.028,1.662,0.003,3.331,0.169,4.983c0.198,1.955,0.585,3.879,0.96,5.74
				c0.475,2.359,0.925,4.588,1.016,6.861c0.006,0.144,0.006,0.292,0.008,0.439c-0.062,0.358-0.133,0.714-0.223,1.068
				c-0.956,3.748-4.095,7.237-7.963,7.269c-4.852,0.041-8.525-5.056-13.373-5.257c-2.317-0.096-4.601,0.955-6.879,1.027
				c-1.051-3.582-0.382-7.977,0.452-12.266c1.759-9.037,3.2-18.578-0.091-27.17c-1.163-3.035-2.822-5.79-4.427-8.454
				c-1.319-2.19-2.565-4.258-3.57-6.484c-1.265-2.802-1.533-5.726-1.817-8.822c-0.289-3.157-0.589-6.422-2.006-9.628
				c-0.419-0.947-0.9-1.858-1.365-2.738c-0.796-1.507-1.548-2.93-1.959-4.441C164.674,251.765,169.4,240.378,175.29,236.791z"/>
		</g>
		<circle fill="#283D4F" cx="39.266" cy="106.005" r="7.335"/>
	</g>
</g>
<g id="vexels">
</g>
</svg>
