<?xml version="1.0" encoding="utf-8"?>
<!-- Generator: Adobe Illustrator 24.0.1, SVG Export Plug-In . SVG Version: 6.00 Build 0)  -->
<svg version="1.1" xmlns="http://www.w3.org/2000/svg" xmlns:xlink="http://www.w3.org/1999/xlink" x="0px" y="0px"
	 viewBox="0 0 384 416" enable-background="new 0 0 384 416" xml:space="preserve">
<g id="background">
	<g>
		<path fill="#283D4F" d="M303.495,270.913c-0.889-2.456-0.642-5.261-1.817-7.593c-0.623-1.237-1.607-2.254-2.326-3.438
			c-3.67-6.049,0.505-13.965-1.01-20.876c-0.583-2.657-2-5.084-2.493-7.759c-0.063-0.341-0.107-0.681-0.14-1.02
			c-2.96,4.127-5.22,8.764-6.594,13.629c-0.463,1.639-0.844,3.361-1.212,5.026c-0.519,2.347-1.056,4.774-1.85,7.14
			c-2.15,6.402-6.23,12.187-11.495,16.448c0.136,0.088,0.272,0.177,0.407,0.265c10.913,7.156,21.827,14.312,32.74,21.468
			c3,1.967,6.013,3.945,8.665,6.36c5.521,5.029,9.217,11.706,13.936,17.494c4.719,5.788,11.177,10.977,18.644,11.062
			c2.711,0.031,5.573-0.595,8.035,0.54c0.359,0.165,0.693,0.365,1.003,0.592c-2.939-4.104-6.481-7.815-9.986-11.473
			c-13.452-14.038-26.904-28.076-40.356-42.113C305.999,274.943,304.306,273.154,303.495,270.913z"/>
		<path fill="#283D4F" d="M230.926,185.5c1.458,0.921,3.096,1.754,3.946,3.255c0.953,1.683,0.901,4.135,2.622,5.018
			c0.156,0.08,0.319,0.14,0.486,0.187c2.668-1.507,5.53-2.727,8.636-3.349c2.989-0.598,5.994-0.59,8.9-0.583
			c1.788,0.004,3.477,0.008,5.166-0.117c4.022-0.299,8.071-1.364,11.986-2.394c8.277-2.177,16.835-4.428,24.59-8.193
			c4.346-2.11,8.171-4.606,11.386-7.407c0.375-11.159-8.426-18.858-16.178-27.331c-8.983-9.819-16.778-20.724-23.161-32.402
			c-4.096-7.495-7.656-15.372-13.003-22.032c-4.926-6.134-11.49-11.182-19.104-13.16c-4.815-1.251-10.06-1.135-14.747,0.446
			c-0.863,1.586-2.304,2.619-3.583,3.535c-0.892,0.638-1.734,1.241-2.225,1.91c-0.235,0.32-0.473,0.683-0.725,1.067
			c-0.59,0.9-1.26,1.92-2.138,2.736c-2.557,2.375-4.605,4.976-6.774,7.73c-2.167,2.753-4.408,5.599-7.193,8.184
			c-0.675,0.627-1.599,1.485-2.878,1.861c-0.511,0.15-1.016,0.206-1.498,0.206c-0.795,0-1.526-0.151-2.121-0.273l-7.438-1.531
			c-0.194,0.42-0.455,0.817-0.713,1.203c-1.134,1.701-2.267,3.402-3.401,5.103c0.565-0.124,1.136-0.218,1.709-0.285
			c0.136-0.016,0.273-0.03,0.41-0.043c3.453-0.317,6.984,0.405,10.037,2.132c0.416,0.235,0.818,0.484,1.206,0.725
			c1.134,0.703,2.204,1.367,3.21,1.415c0.596,0.028,1.299-0.153,2.042-0.345l20.539-5.319c1.462-0.379,2.974-0.77,4.082-1.561
			c1.6-1.143,3.839-3.078,3.773-5.451c-0.059-2.098,1.238-6.755-0.289-9.228c1.927,3.12,2.902,6.02,2.982,8.868
			c0.103,3.68-1.488,7.148-4.152,9.05c-1.708,1.22-3.668,1.728-5.398,2.176l-20.539,5.319c-0.866,0.224-1.836,0.476-2.91,0.476
			c-0.105,0-0.212-0.002-0.319-0.008c-2.037-0.097-3.674-1.112-5.119-2.008c-0.371-0.23-0.722-0.448-1.069-0.644
			c-3.423-1.936-7.81-2.214-11.45-0.725c-0.228,0.093-0.458,0.193-0.69,0.293c-0.472,0.204-0.977,0.421-1.507,0.61
			c-0.078,0.028-0.156,0.055-0.234,0.081c-1.329,0.446-2.808,0.682-4.341,0.077c-1.541-0.609-2.492-1.868-3.186-2.786l-1.11-1.47
			c-1.122,0.082-2.256,0.227-3.329-0.065c-1.114-0.303-2.047-1.045-3.067-1.586c-3.04-1.612-7.006-1.285-9.741,0.804
			c-0.671,2.218-0.383,4.708,0.777,6.714c-2.761-1.12-5.125-1.602-7.44-3.478c0.117-1.031,0.234-2.063,0.352-3.094
			C117.125,97.061,86.876,85.206,56.3,74.266c-1.813-0.649-3.736-1.304-5.626-0.936c-1.634,0.318-3.027,1.365-4.249,2.494
			c-4.762,4.397-7.862,10.552-8.562,16.996c30.061,8.525,61.708,20.643,90.228,33.408c1.646,0.737,3.352,1.494,5.155,1.49
			c5.598-0.013,11.247-7.051,15.574-3.499c2.703,2.219,1.564,6.297,1.819,9.915c4.268,4.646,8.913,8.925,14.467,9.019
			c1.563,0.025,3.185-0.288,4.901-0.622c2.693-0.523,5.477-1.064,8.371-0.333c1.276,0.322,2.47,0.861,3.625,1.382
			c2.26,1.02,3.723,1.601,4.975,1.064c0.951-0.408,1.72-1.527,2.534-2.711c1.181-1.719,2.52-3.667,4.973-4.296
			c0.548-0.141,1.105-0.204,1.597-0.259c0.317-0.036,0.806-0.091,1.082-0.166c-0.012-0.138-0.037-0.318-0.056-0.453
			c-0.06-0.423-0.134-0.949-0.089-1.527c0.226-2.849,2.927-4.699,7.226-4.947l24.706-1.427c5.017-0.29,10.704-0.618,15.073-3.375
			c5.985-3.777,12.354-10.131,14.633-18.084c-1.114,3.889-2.361,8.002-4.252,11.782c-2.194,4.385-4.894,7.547-8.256,9.668
			c-5.238,3.305-11.742,3.681-16.968,3.983l-24.706,1.427c-1.907,0.11-3.439,0.675-3.487,1.287c-0.011,0.14,0.026,0.401,0.062,0.654
			c0.102,0.721,0.242,1.708-0.228,2.748c-0.904,2.002-2.944,2.233-4.293,2.385c-0.398,0.045-0.775,0.088-1.055,0.159
			c-1.008,0.259-1.784,1.388-2.682,2.695c-1.048,1.525-2.236,3.254-4.246,4.116c-0.88,0.377-1.745,0.531-2.59,0.531
			c-1.99,0-3.871-0.849-5.591-1.625c-1.043-0.471-2.028-0.915-2.963-1.151c-2.033-0.514-4.269-0.079-6.637,0.381
			c-1.841,0.358-3.748,0.728-5.728,0.694c-0.484-0.008-0.96-0.04-1.43-0.094c2.015,2.452,3.655,5.297,5.441,7.942
			c2.889,4.279,6.883,8.494,12.032,8.872c8.44,0.62,15.401-9.283,23.688-7.568c5.168,6.263,10.56,12.732,15.728,18.995
			C223.608,179.052,226.793,182.888,230.926,185.5z"/>
		<path fill="#283D4F" d="M190.713,76.157c-3.555,0.81-7.146,0.705-10.619,0.603c-1.56-0.046-3.172-0.093-4.722-0.051
			c-0.698,0.019-1.396,0.058-2.093,0.114c0.134,0.247,0.267,0.495,0.401,0.741c3.815,7.026,7.63,14.053,11.445,21.079l8.992,1.851
			c0.605,0.125,1.291,0.266,1.693,0.147c0.38-0.112,0.864-0.562,1.292-0.959c2.557-2.375,4.606-4.976,6.774-7.73
			c2.167-2.752,4.408-5.598,7.193-8.184c0.524-0.487,1.029-1.257,1.518-2.002c0.269-0.411,0.548-0.835,0.846-1.241
			c0.746-1.015,1.734-1.79,2.668-2.467c0.793-2.742,1.58-5.616,2.131-8.496c-6.788,0.522-13.103,1.456-19.119,3.654
			c-0.771,0.282-1.561,0.594-2.325,0.896C194.852,74.878,192.849,75.67,190.713,76.157z"/>
		<path fill="#283D4F" d="M370.411,337.123c-3,0.006-5.76-0.832-8.76-0.826c-0.316-0.643-0.65-1.274-1-1.895
			c0.401,1.556,0.406,3.253,0.012,4.798c-0.915,3.586-3.438,6.513-5.949,9.232c-3.378,3.657-7.279,7.41-12.22,8.011
			c-1.857,0.226-3.735-0.019-5.589-0.28l-0.549-1.606c-2.267,0.773-4.961-2.415-7.3-5.637c-2.008-2.765-4.27-5.312-6.458-7.776
			l-13.113-14.766c-4.501-5.068-9.155-10.308-14.359-14.945c-3.204-2.855-6.626-5.488-9.936-8.035
			c-3.325-2.558-6.764-5.204-9.899-8.021c-5.007-4.498-9.455-9.606-13.223-15.184c-0.821-1.215-1.638-2.505-1.836-3.751
			c-0.115-0.726,1.098-3.302,4.425-5.967c0.59-0.473,1.152-0.868,1.68-1.202c1.51-0.016,3.011,0.413,4.462,1.069
			c5.291-3.852,9.402-9.395,11.482-15.588c0.727-2.165,1.218-4.384,1.737-6.732c0.38-1.72,0.774-3.498,1.268-5.248
			c2.217-7.847,6.541-15.147,12.33-20.911c1.466-2.79,3.586-5.37,5.787-7.606c4.525-4.598,9.82-8.944,11.801-15.084
			c2.518-7.804-1.018-15.968-5.106-23.276c-3.225,2.635-6.948,4.993-11.1,7.008c-8.105,3.935-16.854,6.236-25.316,8.462
			c-4.089,1.076-8.317,2.188-12.704,2.514c-1.842,0.137-3.687,0.133-5.471,0.128c-2.689-0.007-5.237-0.012-7.71,0.431
			c-0.144,1.821-2.591,3.632-3.878,5.43c-2.55,3.562-0.304,8.395,1.191,12.513c2.988,8.233,2.591,17.181,1.663,25.963
			c-2.836-0.043-5.673-0.087-8.509-0.128c-1.568-0.023-3.518-0.051-5.405,0.655c-5.251,1.966-6.885,8.087-6.689,12.731
			c0.062,1.458,0.241,2.888,0.415,4.271c0.318,2.538,0.619,4.936,0.155,7.137c-0.391,1.852-1.343,3.646-2.352,5.545
			c-0.989,1.863-2.012,3.789-2.624,5.978c-0.779,2.785-0.869,5.946-0.277,9.664c0.844,5.298,2.826,10.483,5.73,14.995
			c8.953,13.907,4.595,33.908,0.749,51.555c-0.497,2.28-0.966,4.434-1.417,6.617c-0.262,1.266-0.587,2.841-0.17,4.516
			c0.046,0.184,0.106,0.355,0.165,0.528c-1.695,0.207-3.365,0.5-4.945,1.1c-2.009,0.763-6.425,4.016-6.684,6.335
			c-0.529,4.741,4.86,3.935,8.663,4.073c13.099,0.475,26.135,3.753,39.381,4.691c1.76,0.125,3.73,0.16,5.041-1.02
			c0.938-0.844,1.318-2.128,1.657-3.343c1.665-5.968,3.303-12.486,0.9-18.197c-1.421-3.377-4.124-7.392-1.766-10.196
			c1.421,0.103,2.841,0.206,4.262,0.309c0.907-1.86,1.835-3.802,1.842-5.871c0.007-2.07-1.199-4.3-3.218-4.759
			c-0.394-0.09-0.822-0.117-1.152-0.35c-0.708-0.501-0.558-1.575-0.33-2.413c1.582-5.82,3.165-11.64,4.747-17.461
			c2.193,0.122,4.387,0.245,6.58,0.367c-0.161-2.226,0.015-4.476,0.517-6.65c-0.665-1.012-1.345-2.014-2.034-3.008
			c0.665,0.515,1.33,1.028,1.988,1.535c3.236,2.49,6.582,5.065,9.646,7.794c4.975,4.433,9.526,9.557,13.927,14.512l13.113,14.766
			c2.104,2.369,4.279,4.819,6.135,7.375c1.543,2.125,4.218,5.807,7.725,7.29c-0.515,2.341-1.734,4.437-3.757,5.755
			c-2.14,1.394-4.811,1.729-7.044,2.967c-2.233,1.238-4.003,4.163-2.6,6.297c1.19,1.811,3.786,1.851,5.945,1.666
			c6.346-0.545,12.673-1.318,18.964-2.316c1.064-0.169,2.156-0.355,3.08-0.908c1.299-0.777,2.087-2.163,2.818-3.489
			c1.966-3.566,3.933-7.132,5.899-10.698c2.29-1.031,3.459-1.456,5.748-2.487c1.642-0.739,3.308-1.493,4.677-2.663
			C370.689,349.634,370.729,342.933,370.411,337.123z M264.313,361.056c-1.202,4.869-5.236,10.05-10.147,9.031
			c-3.966-0.823-6.089-5.211-9.638-7.165c-2.759-1.519-6.176-1.463-9.309-1.957c-0.93,0.335-1.892,0.563-2.871,0.738
			c-0.452-0.321-0.783-0.683-0.885-1.09c-0.129-0.516,0.047-1.366,0.224-2.223c0.438-2.12,0.904-4.26,1.398-6.526
			c4.063-18.642,8.667-39.772-1.463-55.507c-2.515-3.906-4.23-8.396-4.961-12.982c-0.471-2.956-0.423-5.385,0.148-7.427
			c0.459-1.643,1.308-3.24,2.206-4.931c1.134-2.136,2.308-4.345,2.851-6.921c0.646-3.062,0.275-6.015-0.083-8.871
			c-0.168-1.336-0.326-2.598-0.378-3.84c-0.132-3.121,0.835-6.682,3.29-7.601c0.962-0.36,2.247-0.341,3.49-0.323
			c3.205,0.047,6.409,0.096,9.614,0.145c2.198,1.311,4.214,2.956,5.947,4.824c4.38,4.723,7.154,10.716,9.112,16.861
			c-0.59,0.403-1.095,0.786-1.48,1.094c-3.453,2.766-6.929,7.077-6.325,10.88c0.366,2.306,1.57,4.235,2.669,5.863
			c1.989,2.945,4.158,5.766,6.488,8.446c-3.1,4.296-3.041,10.797-2.567,16.393c1.025,12.094,2.05,24.188,3.076,36.282
			C265.196,349.859,265.663,355.589,264.313,361.056z"/>
		<path fill="#283D4F" d="M170.116,72.803c0.396,0.364,1.014,0.257,1.542,0.156c2.512-0.481,5.071-0.308,7.635-0.136
			c1.901,0.127,3.805,0.253,5.696,0.111c4.444-0.333,8.796-2.242,12.996-3.621c6.784-2.228,13.807-3.066,20.89-3.645
			c0.171-1.704,0.171-3.469,0.033-5.178c-0.157-1.949-0.569-3.883-1.329-5.689c-3.409-8.098-10.771-14.812-19.593-16.36
			c-3.806-0.668-7.748-0.385-11.502,0.521c-10.301,2.486-19.774,11.009-19.884,21.374c-0.045,4.247,1.491,8.077,3.165,11.894
			C169.855,72.437,169.95,72.65,170.116,72.803z"/>
	</g>
</g>
<g id="vexels">
</g>
</svg>
