<?xml version="1.0" encoding="utf-8"?>
<!-- Generator: Adobe Illustrator 24.0.1, SVG Export Plug-In . SVG Version: 6.00 Build 0)  -->
<svg version="1.1" xmlns="http://www.w3.org/2000/svg" xmlns:xlink="http://www.w3.org/1999/xlink" x="0px" y="0px"
	 viewBox="0 0 384 416" enable-background="new 0 0 384 416" xml:space="preserve">
<g id="background">
	<g>
		
			<ellipse transform="matrix(0.9871 -0.1602 0.1602 0.9871 -35.0832 13.7046)" fill="#283D4F" cx="67.462" cy="224.459" rx="10.556" ry="10.556"/>
		<path fill="#283D4F" d="M355.838,94.746c-2.061-2.463-4.191-4.984-7.007-6.528c-2.817-1.544-6.705-2.677-9.221-0.68
			c-17.878,14.191-35.755,28.383-53.633,42.575c-4.697,3.729-9.402,7.464-13.74,11.606c-6.578,6.282-13.427,10.355-21.128,16.789
			c-3.493-5.412-0.964-12.545-1.576-18.957c-0.75-7.864-6.359-14.926-5.829-22.808c0.195-2.902,0.896-5.814,0.862-8.639
			c-0.948,0.174-1.906,0.371-2.89,0.573c-2.485,0.512-5.054,1.041-7.701,1.216c-0.648,0.043-1.296,0.064-1.942,0.064
			c-4.817,0-9.564-1.179-13.838-3.451c-3.714-1.975-6.162-4.455-7.275-7.373c-1.079-2.828-0.804-5.81-0.563-8.442
			c0.031-0.339,0.062-0.677,0.09-1.013c0.088-1.054,0.143-2.107,0.168-3.16c-1.961-4.695-7.288-7.647-12.467-7.788
			c-5.676-0.155-11.094,2.425-15.76,5.661c-5.33,3.697-9.971,8.285-14.582,12.848c-5.303,5.248-10.607,10.496-15.91,15.745
			c-8.483,8.395-17.09,16.952-22.791,27.438c-2.749,5.057-5.354,11.038-10.801,12.901c-1.476,0.505-3.068,0.655-4.494,1.288
			c-0.05,0.022-0.099,0.047-0.148,0.071c-0.635,3.894-1.012,10.865,3.486,14.234c1.325,0.992,3.003,1.599,4.78,2.241
			c0.267,0.097,0.533,0.193,0.799,0.29c6.32,2.324,12.278,5.545,18.041,8.66c3.359,1.816,6.833,3.694,10.307,5.352
			c5.916,2.823,11.342,4.669,16.357,5.557c-0.006-1.526,1.29-2.525,5.099-3.17c5.797-0.982,11.157-2.765,15.962-6.26
			c1.78-1.295,4.607-3.419,5.494-5.576c0.286-0.695,0.372-1.394,0.155-2.07c-0.077-0.033-0.145-0.046-0.208-0.043l-0.059-2.365
			c-0.868-2.627-2.112-5.074-3.747-7.258c-1.637-2.205-3.68-4.227-5.794-6.318c-1.057-1.045-2.136-2.115-3.191-3.245
			c-1.051-1.138-2.081-2.316-3.027-3.548c-1.913-2.454-3.598-5.08-5.052-7.824c-0.72-1.376-1.393-2.776-1.999-4.205
			c-0.153-0.356-0.294-0.718-0.441-1.077c-0.072-0.18-0.147-0.359-0.216-0.54l-0.203-0.545c-0.132-0.365-0.278-0.725-0.399-1.093
			l-0.188-0.551l-0.094-0.275l-0.047-0.138l-0.023-0.069l-0.012-0.034l-0.006-0.017c0.041-0.02-0.099,0.02,0.089-0.048
			c-0.223-0.494-0.365-1.016-0.487-1.542c-0.103-0.532-0.204-1.062-0.298-1.593c-0.083-0.534-0.176-1.064-0.248-1.598
			c-0.066-0.535-0.148-1.065-0.201-1.6c-0.234-2.135-0.349-4.273-0.323-6.4c0.028-2.127,0.184-4.242,0.468-6.327
			c0.293-2.085,0.707-4.141,1.265-6.146c-0.126,2.077-0.134,4.147-0.009,6.197c0.116,2.05,0.358,4.081,0.719,6.079
			c0.358,1.998,0.822,3.965,1.403,5.888c0.138,0.482,0.305,0.957,0.455,1.433c0.156,0.476,0.332,0.945,0.495,1.416l0.534,1.397
			c0.183,0.463,0.345,0.93,0.434,1.423c0.192-0.057,0.056-0.007,0.101-0.015l0.005,0.016l0.011,0.032l0.021,0.063l0.043,0.126
			l0.086,0.253l0.171,0.505c0.109,0.339,0.243,0.668,0.363,1.003l0.185,0.5c0.063,0.166,0.132,0.33,0.197,0.495
			c0.134,0.329,0.261,0.662,0.401,0.988c0.551,1.311,1.165,2.595,1.82,3.856c1.324,2.515,2.857,4.919,4.595,7.162
			c0.861,1.13,1.79,2.196,2.753,3.245c0.972,1.047,2.002,2.076,3.057,3.124c2.103,2.096,4.312,4.27,6.222,6.851
			c0.958,1.288,1.815,2.673,2.546,4.105c0.734,1.433,1.341,2.922,1.839,4.434c0.997,3.028,1.554,6.142,1.839,9.23
			c0.056,0.605,0.098,1.208,0.134,1.811c0.558,0.1,1.123,0.173,1.674,0.305c3.868,0.923,6.493,4.591,7.832,8.336
			c0.436,1.219,0.785,2.731,0.251,3.991c-0.442,1.041-1.167,0.454-1.783,0.953c-0.588,0.476-0.916,1.523-1.115,2.233
			c-0.455,1.624-0.48,3.669,0.28,5.194c0.15,0.3,0.338,0.598,0.626,0.771c0.504,0.302,1.148,0.142,1.704-0.046
			c2.728-0.92,5.861-3.609,8.827-3.421c3.131,0.199,5.334,3.203,8.692,3.274c3.94,0.084,9.039-2.522,12.315-4.485
			c1.272-0.762,2.536-1.655,3.263-2.947c0.131-0.233,0.259-0.5,0.376-0.787c-0.305-0.828-0.608-1.647-0.919-2.447
			c-0.964-2.491-2.043-4.814-3.43-6.917c-0.345-0.526-0.708-1.041-1.088-1.542l-1.253-1.645c-0.84-1.11-1.655-2.208-2.478-3.262
			c-1.645-2.107-3.321-4.058-5.227-5.521c-0.949-0.737-1.956-1.34-3.017-1.815c-0.532-0.234-1.08-0.43-1.638-0.601l-0.422-0.12
			c-0.145-0.039-0.288-0.075-0.444-0.112l-0.981-0.225c-0.693-0.159-1.465-0.338-2.297-0.642c-0.826-0.301-1.734-0.75-2.535-1.425
			c-0.805-0.669-1.392-1.463-1.842-2.22c-0.45-0.762-0.769-1.497-1.049-2.182l-3.03-7.725l-0.755-1.943
			c-0.256-0.652-0.49-1.313-0.736-1.968c-0.473-1.319-0.942-2.639-1.377-3.972c-0.881-2.661-1.68-5.355-2.366-8.083
			c-0.692-2.727-1.263-5.493-1.702-8.291l-0.15-1.053l-0.074-0.527l-0.063-0.481c-0.088-0.642-0.198-1.288-0.323-1.938
			c-0.236-1.304-0.537-2.623-0.818-3.973l-0.216-1.016l-0.201-1.028c-0.132-0.689-0.26-1.385-0.36-2.091
			c-0.104-0.706-0.195-1.419-0.246-2.142c-0.058-0.722-0.084-1.452-0.063-2.185c0.032-1.464,0.256-2.95,0.749-4.333
			c0.49-1.382,1.25-2.644,2.222-3.658c-0.516,1.307-0.837,2.628-0.933,3.941c-0.101,1.313,0.01,2.61,0.234,3.894
			c0.459,2.57,1.358,5.091,2.194,7.724c0.426,1.315,0.826,2.663,1.178,4.053c0.169,0.697,0.324,1.404,0.457,2.123l0.356,2.024
			c0.501,2.635,1.13,5.257,1.879,7.853c0.75,2.595,1.576,5.175,2.499,7.724c0.454,1.277,0.941,2.543,1.433,3.807
			c0.254,0.629,0.5,1.261,0.76,1.888l0.781,1.897l3.161,7.615c0.252,0.585,0.497,1.113,0.757,1.534
			c0.26,0.422,0.523,0.739,0.787,0.946c0.259,0.21,0.601,0.391,1.07,0.555c0.466,0.164,1.04,0.298,1.693,0.436l1.037,0.223
			c0.18,0.04,0.372,0.085,0.561,0.133l0.575,0.155c0.763,0.22,1.517,0.487,2.25,0.802c1.463,0.637,2.84,1.456,4.076,2.4
			c1.245,0.939,2.351,1.991,3.37,3.072c1.014,1.084,1.937,2.205,2.813,3.321c0.877,1.116,1.709,2.23,2.536,3.316l1.258,1.641
			c0.457,0.594,0.887,1.209,1.294,1.838c0.82,1.254,1.54,2.565,2.18,3.89c0.639,1.326,1.196,2.667,1.706,3.994
			c0.65,1.695,1.235,3.361,1.828,4.987c1.438,1.023,2.956,1.702,4.712,1.469c2.654-0.353,7.822-5.406,9.356-7.6
			c3.006-4.299,4.043-5.373,7.049-9.672c0.433-0.619-0.483-1.823-0.351-2.567c0.406-2.292-3.37-4.247-5.508-5.166
			c24.482-21.935,50.582-42.064,78.019-60.169c5.594-3.691,11.894-7.068,15.035-12.988
			C357.699,97.288,356.743,95.828,355.838,94.746z"/>
		<path fill="#283D4F" d="M222.568,75.614c2.982,3.345,8.045,3.492,13.405,3.647c2.094,0.061,4.259,0.124,6.336,0.387
			c3.261,0.414,6.428,1.385,9.492,2.323c3.389,1.039,6.649,2.037,9.835,2.247c7.391-10.38,1.408-24.349-8.627-31.914
			c-2.338-1.762-5.035-3.203-7.952-3.441c-2.556-0.208-5.105,0.52-7.458,1.541c-3.703,1.607-7.08,3.961-9.869,6.879
			c-3.605,3.772-6.158,8.379-8.511,13.058c0.495,0.739,0.925,1.492,1.343,2.228C221.204,73.698,221.809,74.763,222.568,75.614z"/>
		<path fill="#283D4F" d="M220.274,102.598c4.06,2.159,8.823,3.181,13.411,2.879c2.343-0.154,4.653-0.63,7.098-1.134
			c1.253-0.258,2.532-0.52,3.831-0.74c2.957-1.945,5.913-4.055,7.683-7.098c1.198-2.059,1.806-4.478,3.363-6.281
			c0.664-0.769,1.473-1.392,2.255-2.042c-2.512-0.479-4.98-1.233-7.41-1.978c-3.018-0.925-5.868-1.798-8.752-2.164
			c-1.864-0.237-3.828-0.294-5.907-0.354c-6.062-0.176-12.33-0.358-16.581-5.126c-0.979-1.098-1.691-2.297-2.362-3.472
			c-0.723,1.552-1.42,3.124-2.112,4.701c0.33,3.401,0.356,6.83,0.069,10.258c-0.029,0.348-0.061,0.698-0.093,1.049
			c-0.217,2.361-0.422,4.592,0.29,6.459C215.777,99.443,217.532,101.14,220.274,102.598z"/>
		<path fill="#283D4F" d="M167.425,241.964c-0.036,0-0.071,0-0.108,0c-1.27,0-2.596,0.188-3.948,0.52
			c-0.294-8.841-0.692-17.633,2.571-25.804c1.072-2.684,4.626-3.521,6.11-6c1.205-2.013,0.753-4.564,0.264-6.859
			c-0.378-1.773-0.763-3.565-1.539-5.204c-0.49-1.036-0.99-1.983-1.45-2.848c-6.166-0.729-12.839-2.824-20.153-6.314
			c-3.574-1.706-7.098-3.61-10.505-5.453c-5.625-3.041-11.442-6.185-17.463-8.4c-0.257-0.095-0.516-0.188-0.775-0.282
			c-2.004-0.724-4.076-1.473-5.93-2.861c-2.811-2.105-4.608-5.335-5.31-9.354c-2.463,2.249-4.925,4.498-7.388,6.747
			c-1.719,1.57-3.462,3.169-4.661,5.164c-1.723,2.868-2.18,6.32-2.228,9.665c-0.11,7.739,1.757,15.354,3.611,22.869
			c3.232,13.095,6.464,26.19,9.695,39.285c1.237,5.012,3.051,10.719,7.84,12.646c1.489,0.599,3.186,0.778,4.451,1.766
			c2.277,1.778,2.094,5.41,0.644,7.909c-0.409,0.704-0.891,1.353-1.414,1.972c-9.446,1.306-19.004,2.994-28.119,6.457
			c-5.355,2.035-10.463,4.656-15.403,7.191l-20.067,10.298c-1.842,0.945-3.842,1.983-5.663,3.39
			c-4.35,1.753-7.698,6.533-6.304,10.978c-1.53,5.191-2.836,10.988-1.792,16.299c0.379,1.928,1.093,3.786,1.34,5.735
			c0.408,3.212-0.472,6.433-0.715,9.662c-0.587,7.804,2.819,15.804,8.851,20.789c1.986,1.642,5.127,2.894,6.936,1.059
			c1.006-1.021,1.123-2.597,1.168-4.03c0.149-4.782,0.186-9.713,1.654-14.217c1.001-0.422,2.109-0.792,3.327-1.109
			c1.47-0.382,2.964-0.672,4.545-0.98c2.435-0.474,4.953-0.965,7.432-1.819c3.521-1.213,6.671-3.058,9.717-4.841
			c1.062-0.622,2.16-1.265,3.236-1.857c6.032-3.318,12.648-5.741,19.217-7.957c-3.23,7.588-6.232,15.453-7.66,21.937
			c-0.449,0.613-1.007,1.099-1.742,1.267c-2.281,4.11-4.486,9.497-1.527,13.149c1.432,1.766,3.717,2.554,5.878,3.259
			c4.33,1.412,8.661,2.825,12.991,4.237c10.334,3.371,22.864,7.795,33.059,4.025c-0.268,0.485,0.573,0.808,1.114,0.687
			c2.63-0.588,4.773-2.929,5.127-5.601c0.554-4.188-9.672-5.706-16.624-9.545c2.234-0.505,4.381-1.554,5.988-3.815
			c2.326-3.273,3.118-7.194,3.817-10.654l0.158-0.777c0.215-1.051,0.431-2.121,0.651-3.206c2.399-11.864,5.119-25.311,10.532-35.332
			c3.115-5.766,6.046-10.059,9.222-13.51c0.473-0.514,0.964-1.028,1.458-1.546c3.32-3.481,7.083-7.427,7.318-12.894
			c0.081-1.905-0.312-3.698-0.659-5.28c-0.302-1.377-0.587-2.678-0.525-3.84c0.101-1.888,1.126-3.859,2.211-5.947
			c1.504-2.892,3.208-6.169,2.729-10.002C181.738,245.757,174.309,242.021,167.425,241.964z M111.477,319.24
			c-8.165,2.703-16.609,5.499-24.401,9.786c-1.144,0.63-2.277,1.292-3.371,1.933c-2.93,1.715-5.697,3.335-8.672,4.36
			c-2.094,0.722-4.306,1.153-6.648,1.609c-1.598,0.311-3.251,0.633-4.894,1.059c-1.739,0.451-3.327,1.006-4.763,1.661
			c-1.404-0.245-2.759-0.705-4.005-1.427c-3.786-2.193-6.042-7.251-4.143-11.192c1.898-3.939,6.697-5.268,10.667-7.099
			c4.344-2.003,8.194-5.067,11.122-8.85c-1.887,2.439-18.92-1.119-20.102-3.746c-0.266-0.591-0.423-1.183-0.506-1.771
			c0.189-0.336,0.405-0.654,0.639-0.936c1.563-1.884,4.028-3.148,6.411-4.371l20.067-10.297c4.798-2.462,9.76-5.008,14.813-6.929
			c8.907-3.385,18.495-5.002,27.981-6.287c1.857,1.582,3.203,3.666,4.159,5.992c-2.141,8.133-4.693,16.153-8.011,23.837
			c-0.812,1.88-1.838,4.146-3.028,6.77c-0.968,2.136-1.995,4.403-3.036,6.743L111.477,319.24z M174.72,260.1
			c-1.262,2.427-2.693,5.178-2.861,8.324c-0.104,1.949,0.298,3.782,0.652,5.398c0.297,1.355,0.578,2.635,0.529,3.782
			c-0.141,3.279-2.848,6.117-5.713,9.122c-0.518,0.543-1.031,1.082-1.528,1.621c-3.513,3.817-6.711,8.484-10.062,14.687
			c-5.826,10.784-8.637,24.684-11.117,36.947c-0.219,1.08-0.434,2.146-0.649,3.193l-0.16,0.791
			c-0.641,3.172-1.246,6.167-2.855,8.432c-1.789,2.519-4.845,1.339-7.328,1.8c-0.673,0.125-1.289,0.451-1.889,0.781
			c-2.891,1.588-5.7,3.343-8.345,5.317c-2.971,2.217-6.59,4.84-10.022,3.439c-3.763-1.536-4.21-6.615-3.923-10.669
			c0.409-5.78,1.091-11.539,2.023-17.258c2.699-6.976,5.993-14.247,8.628-20.061c1.201-2.65,2.238-4.938,3.071-6.866
			c4.773-11.054,7.993-22.644,10.646-34.253c0.354-1.551,3.459-3.876,4.588-4.977c4.627-4.51,9.598-8.646,14.61-12.716
			c4.04-3.281,8.797-9.144,14.296-9.144c0.022,0,0.044,0,0.066,0c4.302,0.035,9.017,2.185,9.46,5.719
			C177.091,255.541,175.992,257.654,174.72,260.1z"/>
	</g>
</g>
<g id="vexels">
</g>
</svg>
