<?xml version="1.0" encoding="utf-8"?>
<!-- Generator: Adobe Illustrator 24.0.1, SVG Export Plug-In . SVG Version: 6.00 Build 0)  -->
<svg version="1.1" xmlns="http://www.w3.org/2000/svg" xmlns:xlink="http://www.w3.org/1999/xlink" x="0px" y="0px"
	 viewBox="0 0 384 416" enable-background="new 0 0 384 416" xml:space="preserve">
<g id="background">
	<g>
		<g>
			<g>
				<path fill="#283D4F" d="M96.941,371.336c-2.067-1.99-3.451-4.641-5.668-6.465c-4.743-3.902-11.723-2.945-17.659-1.368
					c-0.941,0.25-1.89,0.511-2.847,0.703c0.116,0.158,0.244,0.311,0.391,0.458c1.53,1.537,2.013,2.181,1.411,4.444
					c-0.661,2.484-1.201,5.025-1.181,7.595c0.014,1.822,0.213,4.115,1.279,5.668c0.682,0.994,1.741,1.427,2.689,2.111
					c3.084,2.223,5.182,5.047,8.852,6.519c4.742,1.903,11.474,1.275,13.278-3.506c0.9-2.386,0.253-5.035-0.152-7.553
					C96.877,377.1,96.745,374.207,96.941,371.336z"/>
			</g>
			<g>
				<path fill="#283D4F" d="M192.367,230.258c0.478-0.097,0.958-0.195,1.441-0.275c-1.643-1.86-1.815-4.889-2.385-7.454
					c-0.717-3.228-2.357-6.161-3.862-9.105c-4.309-8.429-6.65-17.223-9.936-26.011c-1.079-2.886-2.784-5.27-4.145-8.009
					c-0.271-0.544-1.831-5.856-2.311-8.534c-0.269,0.096-0.534,0.202-0.793,0.322c-1.635,0.751-3.061,1.97-4.572,3.261
					c-0.461,0.394-0.937,0.801-1.421,1.195c-6.725,5.475-15.204,8.562-23.875,8.692c-2.112,0.033-4.221-0.111-6.26-0.25
					c-1.375-0.093-2.797-0.19-4.181-0.228c-2.477-0.069-5.024,0.042-7.486,0.15c-6.273,0.274-12.759,0.557-18.814,2.293
					c-3.25,0.932-6.18,2.268-8.672,3.929c-0.733,7.632,1.592,15.327,2.87,22.957c0.761,4.54,1.151,9.133,1.541,13.72
					c0.397,4.673,0.794,9.346,1.191,14.02c0.631,7.426,1.048,14.915,0.11,22.269c1.129-0.725,2.362-1.255,3.686-1.254
					c3.627,0.003,5.91,3.707,8.446,6.301c5.062,5.176,13.608,6.527,20.019,3.164c1.894-0.993,3.623-2.354,5.675-2.957
					c0.284-0.083,0.579-0.146,0.878-0.189c0.321-2.399,1.759-5.303,2.381-7.422c0.438-1.493,0.879-2.994,1.078-4.537
					c0.222-1.72,0.141-3.462,0.145-5.196c0.007-3.411,0.422-6.623,1.082-9.97c6.707,5.885,13.98,14.621,17.272,22.998
					c0.308-3.012-2.069-6.949-1.312-9.844c2.159-8.249,7.194-16.168,14.939-19.733c3.025-1.392,6.322-2.069,9.585-2.734
					C187.242,231.303,189.804,230.781,192.367,230.258z"/>
			</g>
			<g>
				<path fill="#283D4F" d="M84.04,77.216c0.519,5.923-2.611,11.639-3.686,17.553c-0.733,4.031-0.501,8.171-0.143,12.253
					c1.441,16.42,4.897,32.662,10.266,48.246c3.401,9.873,6.411,20.273,5.229,30.575c2.168-1.165,4.552-2.13,7.106-2.863
					c6.449-1.849,13.143-2.141,19.616-2.424c2.523-0.11,5.131-0.224,7.733-0.152c1.452,0.041,2.91,0.139,4.319,0.235
					c2.059,0.14,4.003,0.271,5.974,0.242c7.897-0.119,15.619-2.93,21.743-7.916c0.452-0.368,0.913-0.762,1.358-1.142
					c1.624-1.388,3.303-2.824,5.376-3.775c0.24-0.11,0.482-0.212,0.725-0.306c-0.328-0.891-0.413-1.991-0.488-2.944
					c-0.358-4.53-2.827-8.85-6.549-11.458c-1.845-1.293-3.978-2.188-5.633-3.717c-1.538-1.421-2.594-3.677-1.944-5.616
					c-1.095-2.063-1.779-4.259-1.748-6.625c0.018-1.374,0.279-2.668,0.532-3.918l0.079-0.394c0.973-4.872,1.512-9.856,1.606-14.824
					l0.144-0.389c0,0,0,0-0.298-0.797c-0.167-0.049-0.335-0.099-0.501-0.146c-1.395-0.393-2.781-0.73-4.156-0.941
					c-1.374-0.212-2.736-0.298-4.055-0.192c-0.66,0.058-1.303,0.145-1.943,0.302c-0.644,0.151-1.302,0.358-1.975,0.59
					c-0.674,0.233-1.365,0.493-2.081,0.753c-0.36,0.13-0.724,0.259-1.098,0.384l-1.13,0.342c-0.751,0.244-1.517,0.41-2.279,0.596
					c-0.38,0.1-0.765,0.162-1.149,0.237l-1.151,0.215c-1.538,0.231-3.08,0.422-4.615,0.513c-0.384,0.024-0.768,0.055-1.151,0.072
					l-1.148,0.042l-0.574,0.023l-0.571,0.011l-1.143,0.02l-2.276,0.017c-0.754-0.006-1.513,0.002-2.263-0.009
					c-0.752-0.008-1.504-0.013-2.25-0.029c-0.749-0.022-1.493-0.032-2.236-0.063c-0.745-0.028-1.481-0.056-2.221-0.098
					c-0.737-0.034-1.473-0.077-2.208-0.12c-0.366-0.016-0.733-0.04-1.1-0.062l-0.548-0.033c-0.176-0.011-0.352-0.022-0.528-0.029
					c-0.702-0.028-1.403-0.049-2.097-0.031c-1.388,0.03-2.76,0.15-4.065,0.522c-0.328,0.092-0.646,0.207-0.961,0.339
					c-0.313,0.135-0.625,0.285-0.919,0.471c-0.077,0.043-0.149,0.092-0.222,0.142c-0.073,0.049-0.148,0.098-0.217,0.153
					c-0.071,0.053-0.145,0.105-0.215,0.162l-0.208,0.175c-0.273,0.241-0.534,0.511-0.785,0.809c0.057-0.383,0.161-0.766,0.312-1.139
					c0.153-0.372,0.356-0.728,0.593-1.066c0.238-0.338,0.514-0.653,0.817-0.938c0.301-0.29,0.629-0.552,0.972-0.787
					c0.687-0.475,1.435-0.844,2.198-1.143c0.383-0.145,0.77-0.277,1.16-0.391c0.39-0.112,0.783-0.209,1.176-0.294
					c0.788-0.165,1.579-0.283,2.368-0.353c0.197-0.019,0.395-0.035,0.592-0.05l0.571-0.031c0.38-0.019,0.759-0.041,1.139-0.055
					c0.758-0.028,1.514-0.038,2.269-0.041c0.376,0.003,0.753,0.003,1.129,0.011c0.377,0.005,0.752,0.013,1.126,0.027
					c0.749,0.021,1.497,0.062,2.24,0.093l2.226,0.117c0.742,0.041,1.476,0.067,2.214,0.098c0.369,0.015,0.734,0.019,1.102,0.03
					c0.367,0.007,0.735,0.023,1.1,0.019l1.096-0.006l0.548-0.003l0.545-0.018l1.09-0.038c0.363-0.015,0.722-0.045,1.083-0.066
					c1.446-0.082,2.869-0.259,4.284-0.468l1.05-0.195c0.349-0.068,0.702-0.122,1.044-0.213c0.688-0.169,1.383-0.315,2.053-0.534
					l1.014-0.304c0.334-0.111,0.673-0.231,1.016-0.354c0.687-0.248,1.393-0.513,2.131-0.767c0.738-0.253,1.506-0.496,2.315-0.685
					c0.2-0.05,0.408-0.09,0.612-0.133l0.621-0.105c0.207-0.039,0.414-0.057,0.622-0.083c0.207-0.024,0.415-0.051,0.622-0.061
					c1.66-0.13,3.296-0.016,4.87,0.23c1.577,0.245,3.096,0.621,4.573,1.039c1.476,0.422,2.91,0.874,4.35,1.354
					c1.282,0.428,2.556,0.879,3.823,1.35c0.899-0.078,1.638-0.135,2.098-0.161c2.736-0.152,5.403-0.87,8.097-1.373
					c4.392-0.819,8.89-1.063,13.346-0.732c0.431-3.654,0.836-7.407,0.76-11.079c-0.067-3.246,0.336-8.074,1.494-12.203
					c-0.079-0.04-0.16-0.077-0.245-0.109c-0.784-0.297-1.658-0.163-2.485-0.026c-7.553,1.252-15.234,2.476-22.833,1.542
					c-2.832-0.348-5.618-0.993-8.423-1.516c-8.48-1.582-15.314-1.959-23.87-0.863c-1.881,0.241-3.491-0.781-4.839-2.205
					c-4.381-0.652-8.638-1.536-12.676-2.431C104.243,82.832,94.049,80.19,84.04,77.216z"/>
			</g>
			<g>
				<path fill="#283D4F" d="M125.279,83.726c0.743-0.824,2.304-1.186,2.875-2.247c0.261-0.485,0.277-1.059,0.288-1.609
					c0.054-2.788,0.108-5.577,0.162-8.365c0.038-1.97-0.013-4.176-1.409-5.567c0.926-0.761,2.142-1.161,3.339-1.099
					c-0.745-2.529-1.379-4.672-2.773-6.59c-1.416,0.044-2.826,0.08-4.227,0.117c-4.161,0.108-8.464,0.219-12.661,0.516
					c-8.89,0.629-16.192,2.118-22.277,4.581c0.518,3.866,0.737,7.771,0.655,11.671c8.566,2.452,17.245,4.655,25.904,6.574
					C118.406,82.428,121.799,83.141,125.279,83.726z"/>
			</g>
			<g>
				<path fill="#283D4F" d="M207.29,371.891c-3.033-2.005-5.747-4.928-9.07-3.969c-1.736,0.5-2.992,1.993-4.596,2.824
					c-4.182,2.166-8.947,3.817-11.06-0.392c-0.346-0.688-1.359,1.706-1.597,0.983c-0.992,1.93-1.991-4.175-3.372-2.748
					c-0.613,0.633-1.287,1.224-1.749,1.975c-1.776,2.884,0.237,6.608,2.561,9.071c7.677,8.134,19.58,12.042,30.584,10.04
					c0.572-0.104,1.17-0.236,1.607-0.62c0.951-0.833,0.701-2.347,0.371-3.567C209.743,380.957,208.517,376.424,207.29,371.891z"/>
			</g>
			<g>
				<path fill="#283D4F" d="M204.049,109.516c3.228-2.918,1.761-8.108,0.965-12.386c-0.171-0.918-0.265-1.97,0.334-2.686
					c0.073-0.087,0.154-0.165,0.24-0.235c-1.114,0.057-2.227,0.157-3.328,0.26c-3.526,0.328-6.374-0.117-9.831,0.132
					c-0.519,2.895-0.732,5.942-0.684,8.225c0.068,3.289-0.22,6.564-0.578,9.771C195.05,110.359,199.636,107.231,204.049,109.516z"/>
			</g>
			<g>
				<path fill="#283D4F" d="M167.415,121.083l-0.083,0.199c-0.234-0.097-0.469-0.193-0.704-0.288
					c-0.509-0.052-1.02-0.093-1.533-0.118c-0.87-0.043-3.519-0.78-6.15-1.57c-0.147,4.843-0.7,9.694-1.648,14.442l-0.081,0.402
					c-0.232,1.145-0.45,2.227-0.464,3.278c-0.032,2.416,1.007,4.692,2.449,6.797c4.787,0.745,9.597,1.342,14.421,1.788
					c2.151,0.198,4.707,0.195,5.982-1.549c0.504-0.689,0.71-1.549,0.858-2.39c0.263-1.503,1.252-2.808,1.661-4.218
					c-2.661-2.699-5.482-4.752-5.673-9.331c-0.074-1.775,0.237-3.754,0.9-5.594C174.028,122.375,170.748,121.502,167.415,121.083z"
					/>
			</g>
			<g>
				<path fill="#283D4F" d="M326.191,76.789c-14.578-1.272-29.273,1.818-42.98,6.942c-13.642,5.099-26.226,12.805-38.964,19.869
					c0.73,1.651,1.383,3.332,1.992,4.969c0.624,1.678,1.248,3.356,1.872,5.033c0.025-0.011,0.05-0.022,0.075-0.032
					c17.801-7.607,36.593-12.6,55.389-17.231c9.276-2.286,18.793-4.585,26.728-9.905c1.562-1.048,3.181-2.431,3.337-4.306
					C333.923,78.73,329.587,77.085,326.191,76.789z"/>
			</g>
			<g>
				<path fill="#283D4F" d="M93.01,58.317c5.133-1.466,10.896-2.409,17.62-2.885c4.274-0.302,8.616-0.415,12.815-0.524
					c2.171-0.056,4.364-0.113,6.565-0.197c2.439-1.22,4.878-2.441,7.317-3.661c0.868-0.434,1.774-0.901,2.322-1.702
					c0.548-0.801,0.581-2.043-0.191-2.631c-2.401,1.015-5.252,0.106-7.293-1.516c-2.041-1.622-3.477-3.861-5.036-5.951
					c-3.043-4.076-6.745-7.755-11.239-10.137c-4.494-2.382-9.844-3.381-14.762-2.08c-5.857,1.549-10.544,6.207-13.269,11.618
					s-3.703,11.533-4.119,17.577c-0.124,1.812-0.177,3.728,0.634,5.343C87.038,60.287,89.922,59.199,93.01,58.317z"/>
			</g>
			<g>
				<path fill="#283D4F" d="M204.213,118.539c-3.658,1.222-7.28,2.553-10.858,3.991c-2.169,0.871-5.441,1.541-6.225,4.032
					c-0.661,2.099,0.839,6.247,3.033,6.931c1.078,0.336,2.235-0.026,3.305-0.385c1.875-0.63,3.75-1.26,5.626-1.89
					c0.881-0.296,1.817-0.63,2.374-1.374c0.543-0.725,0.612-1.684,0.838-2.561c0.946-3.657,4.69-5.872,8.322-6.91
					c1.263-0.361,2.608-0.658,3.593-1.527c0.985-0.869,1.405-2.549,0.482-3.484C214.009,114.661,205.373,118.152,204.213,118.539z"
					/>
			</g>
		</g>
		<g>
			<path fill="#283D4F" d="M209.186,374.684c-2.538,0-4.618-1.424-6.487-2.702c-1.19-0.814-2.313-1.583-3.408-1.904
				c-2.22-0.651-4.605,0.413-7.364,1.646c-2.267,1.013-4.61,2.06-7.222,2.289c-5.494,0.482-10.974-3.294-12.482-8.595
				c-1.259-4.423,0.146-8.646,1.505-12.73c1.178-3.541,2.291-6.886,1.493-9.941l-0.049-0.24l-0.949-6.377
				c-1.295-9.84-2.679-19.493-5.357-29.389c-2.494-9.215-5.191-18.07-10.747-25.119l-0.181-0.229
				c-1.518-1.921-3.598-4.552-3.025-7.757c0.296-1.662,1.207-2.893,2.011-3.98c0.192-0.26,0.385-0.519,0.564-0.783
				c2.01-2.963,1.857-5.916,1.68-9.335c-0.094-1.825-0.192-3.712,0.019-5.742c0.592-5.684,4.814-10.859,8.253-14.199
				c7.667-7.45,18.582-11.132,29.194-9.847c1.217,0.147,2.502,0.391,3.658,1.177c1.44,0.979,2.174,2.429,2.753,3.851
				c1.567,3.848,2.512,7.9,2.808,12.043c0.058,0.808,0.09,1.616,0.122,2.396c0.072,1.793,0.14,3.487,0.494,5.089
				c0.347,1.575,0.984,3.123,1.657,4.761c0.902,2.192,1.833,4.459,2.143,6.995c0.334,2.741-0.11,5.359-0.539,7.89
				c-0.145,0.853-0.282,1.658-0.389,2.467c-0.607,4.549-0.27,9.321,0.027,13.53c1.673,23.718,4.051,47.705,7.067,71.293
				c0.281,2.194,0.599,4.681-0.022,7.172c-0.788,3.159-3.079,5.565-5.837,6.128C210.099,374.64,209.636,374.684,209.186,374.684z
				 M197.892,365.328c0.876,0,1.77,0.114,2.681,0.381c1.788,0.524,3.334,1.582,4.698,2.515c1.929,1.32,3.189,2.102,4.396,1.856
				c1.018-0.208,1.976-1.346,2.33-2.768c0.414-1.66,0.165-3.608-0.076-5.492c-3.028-23.674-5.414-47.746-7.093-71.55
				c-0.313-4.426-0.667-9.443,0.002-14.453c0.119-0.889,0.269-1.773,0.414-2.627c0.392-2.311,0.762-4.494,0.509-6.576
				c-0.235-1.925-1.012-3.815-1.835-5.815c-0.718-1.746-1.46-3.552-1.892-5.512c-0.44-1.996-0.52-3.974-0.597-5.887
				c-0.032-0.78-0.061-1.517-0.114-2.255c-0.262-3.664-1.098-7.248-2.483-10.65c-0.295-0.724-0.656-1.504-1.096-1.804
				c-0.351-0.239-0.997-0.344-1.644-0.422c-9.125-1.103-18.884,2.189-25.475,8.593c-4.096,3.979-6.545,8.029-6.896,11.405
				c-0.175,1.677-0.091,3.308-0.001,5.035c0.201,3.883,0.409,7.899-2.46,12.127c-0.214,0.315-0.442,0.624-0.671,0.934
				c-0.555,0.751-1.08,1.46-1.189,2.071c-0.213,1.189,0.971,2.686,2.115,4.134l0.185,0.234c6.087,7.724,8.944,17.06,11.566,26.748
				c2.749,10.162,4.158,19.973,5.474,29.965l0.923,6.205c1.081,4.317-0.287,8.428-1.61,12.405c-1.193,3.586-2.32,6.974-1.446,10.046
				c0.916,3.218,4.378,5.601,7.704,5.305c1.85-0.162,3.75-1.011,5.762-1.911C192.455,366.502,195.081,365.328,197.892,365.328z"/>
		</g>
		<g>
			<path fill="#283D4F" d="M100.109,374.08c-2.619,0-5.629-1.389-7.714-3.572c-0.755-0.791-1.439-1.634-2.101-2.449
				c-1.458-1.797-2.834-3.494-4.605-4.149c-1.233-0.456-2.739-0.407-3.913-0.314c-2.967,0.236-5.868,0.927-8.623,2.052l-0.057,0.023
				c-1.792,0.733-4.501,1.839-6.958,0.397c-1.741-1.021-3.519-3.366-2.104-8.737c5.492-20.851,11.171-42.411,19.938-62.628
				c0.338-0.78,0.683-1.56,1.028-2.342c1.933-4.378,3.931-8.905,4.822-13.537l0.204-1.07c0.885-4.669,1.584-8.356,4.773-12.807
				c3.373-4.707,7.802-6.993,11.845-6.115c3.038,0.66,5.069,2.834,6.861,4.753c1.014,1.086,1.972,2.112,3.026,2.81
				c2.635,1.746,5.953,1.454,7.697,1.125c2.819-0.533,5.491-1.765,8.319-3.071l0.257-0.118c1.06-0.489,2.511-1.158,4.156-1.183
				c0.061-0.001,0.122-0.001,0.182-0.001c3.573,0,5.367,1.643,6.245,3.035c3.332,5.281-1.069,15.537-4.669,22.792l-0.12,0.243
				c-3.509,7.088-8,13.651-12.344,19.997c-2.058,3.007-4.185,6.115-6.163,9.217c-8.659,13.579-12.739,28.083-13.23,47.029
				c-0.046,1.775-0.115,4.456-1.889,6.487c-1.182,1.352-2.807,2.089-4.7,2.132C100.218,374.079,100.163,374.08,100.109,374.08z
				 M83.168,358.98c1.284,0,2.711,0.145,4.102,0.659c2.94,1.088,4.864,3.459,6.561,5.551c0.632,0.779,1.229,1.515,1.856,2.172
				c1.246,1.304,3.076,2.198,4.483,2.163c0.795-0.018,1.164-0.337,1.372-0.575c0.641-0.733,0.728-2.125,0.766-3.608v0
				c0.513-19.82,4.814-35.043,13.942-49.36c2.018-3.165,4.167-6.305,6.245-9.341c4.254-6.216,8.654-12.644,12.021-19.446
				l0.122-0.246c6.543-13.186,5.604-17.217,4.897-18.339c-0.162-0.257-0.598-0.941-2.506-0.91c-0.682,0.01-1.552,0.411-2.319,0.765
				l-0.256,0.118c-2.955,1.363-6.01,2.773-9.382,3.41c-4.183,0.79-8.11,0.15-11.057-1.803c-1.501-0.994-2.689-2.267-3.839-3.498
				c-1.53-1.638-2.851-3.053-4.499-3.41c-2.606-0.568-5.417,1.859-7.178,4.317c-2.603,3.634-3.159,6.565-4.001,11.003l-0.206,1.082
				c-0.989,5.138-3.093,9.906-5.129,14.516c-0.341,0.773-0.682,1.544-1.016,2.315c-8.629,19.9-14.263,41.29-19.712,61.976
				c-0.572,2.17-0.398,3.413,0.005,3.65c0.517,0.303,1.97-0.291,2.932-0.685l0.058-0.023c3.189-1.303,6.548-2.102,9.983-2.375
				C81.951,359.015,82.543,358.98,83.168,358.98z"/>
		</g>
	</g>
</g>
<g id="vexels">
</g>
</svg>
