<?xml version="1.0" encoding="UTF-8"?>
<!DOCTYPE svg PUBLIC "-//W3C//DTD SVG 1.1//EN" "http://www.w3.org/Graphics/SVG/1.1/DTD/svg11.dtd">
<!-- Creator: CorelDRAW X7 -->
<svg xmlns="http://www.w3.org/2000/svg" xml:space="preserve" width="1.39726in" height="1.48615in" version="1.1" style="shape-rendering:geometricPrecision; text-rendering:geometricPrecision; image-rendering:optimizeQuality; fill-rule:evenodd; clip-rule:evenodd"
viewBox="0 0 237 252"
 xmlns:xlink="http://www.w3.org/1999/xlink">
 <defs>
  <style type="text/css">
   <![CDATA[
    .fil4 {fill:#3B210F;fill-rule:nonzero}
    .fil2 {fill:url(#id6);fill-rule:nonzero}
    .fil3 {fill:url(#id7);fill-rule:nonzero}
    .fil1 {fill:url(#id8);fill-rule:nonzero}
    .fil0 {fill:url(#id9);fill-rule:nonzero}
   ]]>
  </style>
   <mask id="id0">
     <pattern id="id1" patternUnits="userSpaceOnUse" x="199" y="243" width="6.18217" height="9.88947" viewBox="199 243 6 10">
      <path id="1" class="fil0" d="M203 243l0 0 2 0 0 0 0 0c0,3 0,6 -1,9l0 0 -5 0 3 0 -3 0c1,-3 1,-6 1,-9l3 0 0 0z"/>
     </pattern>
    <rect style="fill:url(#id1)" x="199" y="242" width="6.69172" height="10.399"/>
   </mask>
   <mask id="id2">
     <pattern id="id3" patternUnits="userSpaceOnUse" x="201" y="224" width="5.60642" height="9.97105" viewBox="201 224 6 10">
      <path id="1" class="fil0" d="M204 224l3 0c0,4 -1,7 -1,10l-2 0 0 0 2 0 -2 0 -3 0 0 -1 0 0c0,-3 1,-6 1,-9l0 0 2 0 0 0z"/>
     </pattern>
    <rect style="fill:url(#id3)" x="201" y="224" width="6.11597" height="10.4806"/>
   </mask>
   <mask id="id4">
     <pattern id="id5" patternUnits="userSpaceOnUse" x="202" y="210" width="5.14702" height="5.50343" viewBox="202 210 5 6">
      <path id="1" class="fil0" d="M204 215l1 0 2 0 -2 0 2 0 -2 0 2 0 -2 0 0 0 2 0 -2 0 -3 0 0 0 0 0 0 0 0 0c0,-2 0,-3 0,-5l5 0c0,2 0,3 0,5l-3 0z"/>
     </pattern>
    <rect style="fill:url(#id5)" x="202" y="210" width="5.65657" height="6.01299"/>
   </mask>
  <linearGradient id="id6" gradientUnits="userSpaceOnUse" x1="204.031" y1="233.948" x2="204.031" y2="223.977">
   <stop offset="0" style="stop-opacity:1; stop-color:#F9F9F9"/>
   <stop offset="0.490196" style="stop-opacity:1; stop-color:#F9F9F9"/>
   <stop offset="1" style="stop-opacity:1; stop-color:#3B210F"/>
  </linearGradient>
  <linearGradient id="id7" gradientUnits="userSpaceOnUse" xlink:href="#id6" x1="204.758" y1="215.464" x2="204.758" y2="209.96">
  </linearGradient>
  <linearGradient id="id8" gradientUnits="userSpaceOnUse" xlink:href="#id6" x1="202.313" y1="252.423" x2="202.313" y2="242.534">
  </linearGradient>
  <linearGradient id="id9" gradientUnits="objectBoundingBox" x1="50%" y1="100%" x2="50%" y2="0%">
   <stop offset="0" style="stop-opacity:1; stop-color:black"/>
   <stop offset="0.490196" style="stop-opacity:1; stop-color:black"/>
   <stop offset="1" style="stop-opacity:1; stop-color:white"/>
  </linearGradient>
 </defs>
 <g id="_1">
  <metadata id="CorelCorpID_0Corel-Layer"/>
  <path id="1" class="fil1" style="mask:url(#id0)" d="M203 243l0 0 2 0 0 0 0 0c0,3 0,6 -1,9l0 0 -5 0 3 0 -3 0c1,-3 1,-6 1,-9l3 0 0 0z"/>
  <path id="1" class="fil2" style="mask:url(#id2)" d="M204 224l3 0c0,4 -1,7 -1,10l-2 0 0 0 2 0 -2 0 -3 0 0 -1 0 0c0,-3 1,-6 1,-9l0 0 2 0 0 0z"/>
  <path id="1" class="fil3" style="mask:url(#id4)" d="M204 215l1 0 2 0 -2 0 2 0 -2 0 2 0 -2 0 0 0 2 0 -2 0 -3 0 0 0 0 0 0 0 0 0c0,-2 0,-3 0,-5l5 0c0,2 0,3 0,5l-3 0z"/>
 </g>
 <g id="_2">
  <metadata id="CorelCorpID_1Corel-Layer"/>
  <path class="fil4" d="M204 90c0,0 0,0 0,0 5,-1 10,-2 16,-5 14,-6 19,-23 17,-36 -2,-12 -10,-19 -21,-21 -3,0 -5,2 -6,6 0,3 2,5 5,6 8,1 10,7 11,11 1,9 -3,20 -11,24 -4,2 -7,3 -11,3 0,0 -1,0 -1,0 -21,0 -53,-3 -86,-9 -17,-4 -32,-3 -43,-26 -4,-9 -9,-13 -11,-21 -4,-9 -5,-21 -7,-21 -4,0 -9,13 -9,13 0,0 -3,-14 -7,-14 -4,0 -5,21 -5,21 -3,0 -12,1 -13,7 -1,6 -8,10 -8,10 -5,0 -12,0 -13,2 -2,1 -1,12 -1,12 0,15 25,14 30,13 4,-1 34,-2 29,37 -2,20 -5,27 2,38 7,12 9,29 8,44 0,15 -16,13 -16,20 0,6 5,7 13,3 8,-3 8,-17 12,-14 4,2 1,10 1,10 -9,0 -9,6 -9,6 0,6 9,5 18,3 10,-2 -4,-66 0,-69 17,3 45,-3 56,-15 3,28 10,36 15,44 8,24 -22,26 -16,37 7,13 20,-7 27,-14 6,-7 6,-20 4,-29 -3,-9 4,-19 9,-27 2,-2 3,-5 5,-7 2,2 3,4 4,6l5 -2 0 0 0 0c-2,-3 -3,-6 -5,-8 6,-5 14,-9 20,0 5,8 -3,14 -11,19 0,-1 -1,-1 -1,-2l0 0 0 0 -2 1 -3 1c1,1 1,1 1,2 -5,3 -9,5 -9,7 0,6 14,4 14,4 20,0 27,-23 30,-43 2,-20 -26,-22 -27,-27z"/>
  <path class="fil4" d="M203 173l0 0 2 0 0 0 0 0c0,-3 0,-6 -1,-9l0 0 -5 0 3 0 -3 0c1,3 1,6 1,9l3 0 0 0z"/>
  <path class="fil4" d="M204 192l3 0c0,-4 -1,-7 -1,-10l-2 0 0 0 2 0 -2 0 -3 0 0 1 0 0c0,3 1,6 1,9l0 0 2 0 0 0z"/>
  <path class="fil4" d="M204 201l1 0 2 0 -2 0 2 0 -2 0 2 0 -2 0 0 0 2 0 -2 0 -3 0 0 0 0 0 0 0 0 0c0,2 0,3 0,5l5 0c0,-2 0,-3 0,-5l-3 0z"/>
 </g>
</svg>
