<?xml version="1.0" encoding="UTF-8" standalone="no"?>
<svg xmlns:rdf="http://www.w3.org/1999/02/22-rdf-syntax-ns#" xmlns="http://www.w3.org/2000/svg" xml:space="preserve" height="174" viewBox="0 0 381.43023 173.59506" width="381" version="1.1" xmlns:cc="http://creativecommons.org/ns#" xmlns:dc="http://purl.org/dc/elements/1.1/"><g transform="matrix(1.25 0 0 -1.25 -191 581)"><g style="" transform="matrix(.5 0 0 .5 153 198)"><g fill="#ff3c00"><g clip-path="url(#b)" fill="#ff3c00"><path d="m186 441h-29.4v24.1h26v23.6h-26v21.4h29v23.6h-55.7v-116h56v23.6"/><path d="m324 441h-29.4v24.1h26v23.6h-26v21.4h29v23.6h-55.7v-116h56v23.6"/><path d="m246 418 15.9 116h-23.9l-11.3-89-11.3 89h-24l15.9-116h38.8"/><path d="m17.7 418h29.7c8.91 0 17.7 8.08 17.7 17.8v23.1h-25.4v-18h-14.3v70.6h14.3v-17.9h25.4v23.1c0 9.31-8.81 17.8-17.7 17.8h-29.6c-8.69-1-17.8-9-17.8-19v-80.9c0-9.69 9.06-17.7 17.7-17.8"/><path d="m570 512h14.3v-72.7h-14.3v72.7zm40.7-77v80.9c0 9.34-9.12 17.8-17.8 17.8h-49.3v-116h49.3c8.63 0 17.8 8.05 17.8 17.8"/><path d="m425 517 6.26-53.8h-12.6l6.3 53.8zm-8.37-75.6h16.8l2.53-23.6h25.6l-16.7 116h-39.6l-16.7-116h25.6l2.52 23.6"/><path d="m123 441h-24.1v92.8h-26.7v-116h50.8v23.6"/><path d="m383 441h-24.1v92.8h-26.7v-116h50.8v23.6"/></g></g><g style=""><g clip-path="url(#a)" fill="#ff3c00"><path d="m490 474 21.6-56.1h22.8v116h-23.6v-54.8l-21.8 54.8h-22.6v-116h23.6v56.1"/><path d="m382 310-14.7 95.5h-31.5l-13-95.5-8.98 95.5h-31.5l16.5-150h39.8l12.7 90.6 12.9-90.6h39.8l16.5 150h-31.4l-7.22-95.5"/><path d="m34 380h18.4v-33.8h-18.4v33.8zm0-60.5h18.4v-35.5h-18.4v35.5zm29.5 87h-63.5v-151h63.5c11.1 0 22.8 10.4 22.8 22.8v39.9l-9.96 13.6 9.96 13.6v36.9c0 12-11.7 22.9-22.8 22.9"/><path d="m225 376h18.4v-90.7h-18.4v90.7zm29.4 29.6h-40.4c-11 0-22.7-10.9-22.7-22.9v-104c0-12.5 11.7-22.8 22.7-22.8h40.4c11.5 0 22.7 10.4 22.7 22.8v104c0 12-11.3 22.9-22.7 22.9"/><path d="m610 360v23.4c-0.0673 11.9-11.3 22.8-22.6 22.8h-40.2c-11 0-22.6-10.9-22.6-22.9v-51.1l16.7-16.1h35.3v-30.1h-18.4v16.6h-33.7v-23.3c0-12 11.7-22.8 22.6-22.8h40.3c11.4 0 22.6 10.5 22.6 22.7v51.9l-15.8 16h-36v29.6h18.4v-16.7h33.4"/><path d="m485 336-28 70.4h-29.1v-150h30.4v72.1l27.8-72.1h29.3v150h-30.4v-70.4"/><path d="m128 380h18.4v-39.1h-18.4v39.1zm54-46.2v49.4c0 12-11.9 22.9-22.9 22.9h-65.5v-150h34.3v58.6h9.92l15.4-58.6h34.7l-17.4 62.5 11.3 15"/></g></g></g></g></svg>
