<?xml version="1.0" encoding="utf-8"?>
<!-- Generator: Adobe Illustrator 24.0.2, SVG Export Plug-In . SVG Version: 6.00 Build 0)  -->
<svg version="1.1"
	 id="svg2" inkscape:version="0.92.3 (2405546, 2018-03-11)" sodipodi:docname="England_national_football_team_crest.svg" xmlns:cc="http://creativecommons.org/ns#" xmlns:dc="http://purl.org/dc/elements/1.1/" xmlns:inkscape="http://www.inkscape.org/namespaces/inkscape" xmlns:rdf="http://www.w3.org/1999/02/22-rdf-syntax-ns#" xmlns:sodipodi="http://sodipodi.sourceforge.net/DTD/sodipodi-0.dtd" xmlns:svg="http://www.w3.org/2000/svg"
	 xmlns="http://www.w3.org/2000/svg" xmlns:xlink="http://www.w3.org/1999/xlink" x="0px" y="0px" viewBox="0 0 220 271.608"
	 enable-background="new 0 0 220 271.608" xml:space="preserve">
<sodipodi:namedview  bordercolor="#666666" borderopacity="1" fit-margin-bottom="0" fit-margin-left="0" fit-margin-right="0" fit-margin-top="0" gridtolerance="10" guidetolerance="10" id="namedview332" inkscape:current-layer="svg2" inkscape:cx="71.430446" inkscape:cy="172.3322" inkscape:lockguides="false" inkscape:pageopacity="0" inkscape:pageshadow="2" inkscape:window-height="1017" inkscape:window-maximized="1" inkscape:window-width="1920" inkscape:window-x="-8" inkscape:window-y="-8" inkscape:zoom="1.5405185" objecttolerance="10" pagecolor="#ffffff" showgrid="false">
	</sodipodi:namedview>
<g id="layer1" transform="translate(4.1393895,-452.17316)">
	<g id="g3009" transform="matrix(7.0924191,0,0,-7.0924191,-335.83045,988.60926)">
		<g>
			<defs>
				<rect id="SVGID_1_" x="-231.657" y="-117.483" width="645.29" height="360.451"/>
			</defs>
			<clipPath id="SVGID_2_">
				<use xlink:href="#SVGID_1_"  overflow="visible"/>
			</clipPath>
			<g id="g3011" clip-path="url(#SVGID_2_)">
				<g id="g3017" transform="translate(62.278,27.187897)">
					<path id="path3019" inkscape:connector-curvature="0" fill="#FFFFFF" d="M0,10.152c-4.979,1.342-9.098,3.572-11.727,6.565
						c-2.51,2.846-3.789,6.401-3.784,10.414v19.896h31.019V27.131c0.006-4.013-1.272-7.568-3.783-10.414
						C9.096,13.724,4.982,11.494,0,10.152"/>
				</g>
				<g id="g3021" transform="translate(76.432999,44.166397)">
					<path id="path3023" inkscape:connector-curvature="0" fill="#FFFFFF" d="M0,10.152C0,2.511-4.938-2.889-14.187-5.451
						c-9.253,2.562-14.155,7.962-14.155,15.603v18.377H0V10.152z"/>
				</g>
				<g id="g3025" transform="translate(76.175003,44.168793)">
					<path id="path3027" inkscape:connector-curvature="0" fill="#2B57AC" d="M0,10.152C0,2.666-4.835-2.623-13.897-5.133
						c-9.065,2.51-13.866,7.799-13.866,15.285v18.004H0V10.152z M-28.533,28.906V10.15c0-3.832,1.202-7.146,3.567-9.837
						c2.479-2.824,6.201-4.919,11.066-6.23c4.868,1.311,8.592,3.406,11.072,6.23c2.365,2.691,3.564,6.005,3.564,9.837v18.756
						H-28.533z"/>
				</g>
				<g id="g3029" transform="translate(61.847,39.451096)">
					<path id="path3031" inkscape:connector-curvature="0" fill="#1C5329" d="M0,10.152l-0.008,0.135H-0.09
						c-0.06-0.033-0.13-0.123-0.179-0.253l-0.023-0.062C-0.349,9.795-0.347,9.66-0.347,9.66s0.133,0.135,0.213,0.243L-0.1,9.954
						L0,10.152"/>
				</g>
				<g id="g3033" transform="translate(61.111999,40.317306)">
					<path id="path3035" inkscape:connector-curvature="0" fill="#EA1F29" d="M0,10.152c-0.097-0.068-0.34-0.287-0.196-0.628
						c0.168-0.399,0.543-0.42,0.639-0.417l0.022,0.061c0.05,0.13,0.12,0.219,0.18,0.253C0.626,9.539,0.599,9.69,0.563,9.787
						c-0.048,0.12-0.156,0.276-0.219,0.359C0.285,10.113,0.177,10.101,0,10.152"/>
				</g>
				<g id="g3037" transform="translate(62.251999,40.860504)">
					<path id="path3039" inkscape:connector-curvature="0" fill="#EA1F29" d="M0,10.152c-0.04,0.056-0.068,0.182-0.082,0.368v0.037
						c-0.104,0.084-0.468,0.334-0.815,0.05c-0.359-0.29-0.227-0.663-0.166-0.792l0.294-0.094c0.081,0.064,0.217,0.168,0.345,0.248
						C-0.292,10.052-0.116,10.118,0,10.152"/>
				</g>
				<g id="g3041" transform="translate(61.1577,40.528198)">
					<path id="path3043" inkscape:connector-curvature="0" fill="#1C5329" d="M0,10.152c-0.231,0.035-0.388-0.023-0.388-0.023
						s0.053-0.107,0.335-0.187l0.007-0.001C0.132,9.89,0.24,9.903,0.299,9.935l0.055,0.077l-0.028,0.041l-0.295,0.095L0,10.152"/>
				</g>
				<g id="g3045" transform="translate(62.862198,39.675797)">
					<path id="path3047" inkscape:connector-curvature="0" fill="#EA1F29" d="M0,10.152c-0.133,0.003-0.335,0-0.494-0.033
						c-0.184-0.042-0.412-0.14-0.521-0.192l-0.1-0.197l-0.034-0.052c0.06-0.074,0.311-0.348,0.732-0.292
						c0.482,0.06,0.602,0.392,0.623,0.473L0.174,9.897L0,10.152"/>
				</g>
				<g id="g3049" transform="translate(63.4272,40.580505)">
					<path id="path3051" inkscape:connector-curvature="0" fill="#EA1F29" d="M0,10.152l-0.125-0.062
						C-0.251,10.043-0.36,10-0.43,9.996c-0.025-0.076-0.054-0.18-0.062-0.3C-0.5,9.578-0.48,9.446-0.464,9.358
						c0.059-0.044,0.13-0.118,0.21-0.221l0.022-0.03l0.047-0.077c0.143-0.006,0.459,0.034,0.526,0.484
						C0.419,10.017,0.07,10.134,0,10.152"/>
				</g>
				<g id="g3053" transform="translate(63.371902,40.700806)">
					<path id="path3055" inkscape:connector-curvature="0" fill="#EA1F29" d="M0,10.152c0.013,0.059,0.106,0.548-0.33,0.773
						c-0.307,0.157-0.564-0.007-0.69-0.119l0.013-0.083c0.019-0.154,0.014-0.296-0.011-0.377c0.034-0.027,0.168-0.127,0.315-0.197
						c0.13-0.06,0.292-0.108,0.335-0.118l0.235,0.087L0,10.152"/>
				</g>
				<g id="g3057" transform="translate(62.365402,41.271805)">
					<path id="path3059" inkscape:connector-curvature="0" fill="#1C5329" d="M0,10.152l-0.014,0.083
						c-0.035,0.165-0.113,0.188-0.113,0.188s-0.077-0.046-0.068-0.278v-0.037c0.013-0.185,0.041-0.311,0.081-0.368l0.054-0.027
						l0.046,0.06l0.002,0.003C0.013,9.857,0.018,9.998,0,10.152"/>
				</g>
				<g id="g3061" transform="translate(63.4272,40.580505)">
					<path id="path3063" inkscape:connector-curvature="0" fill="#1C5329" d="M0,10.152c0.11,0.059,0.232,0.133,0.226,0.144
						c-0.005,0.008-0.139,0.003-0.281-0.023l-0.134-0.035l-0.234-0.087l-0.086-0.114l0.079-0.041C-0.36,10-0.251,10.043-0.125,10.09
						L0,10.152"/>
				</g>
				<g id="g3065" transform="translate(63.173294,39.565002)">
					<path id="path3067" inkscape:connector-curvature="0" fill="#1C5329" d="M0,10.152c-0.08,0.104-0.151,0.177-0.21,0.222
						l-0.061,0.038l-0.061-0.006l-0.007-0.077l0.028-0.066l0.173-0.255l0.032-0.038l0.026-0.024
						c0.113-0.105,0.215-0.109,0.215-0.109s0.002,0.084-0.066,0.209l-0.048,0.076L0,10.152"/>
				</g>
				<g id="g3069" transform="translate(62.583801,40.315201)">
					<path id="path3071" inkscape:connector-curvature="0" fill="#F2BB0E" d="M0,10.152C0.04,10-0.085,9.837-0.277,9.788
						C-0.469,9.74-0.658,9.821-0.696,9.972c-0.04,0.15,0.086,0.312,0.277,0.361C-0.227,10.384-0.04,10.303,0,10.152"/>
				</g>
				<g id="g3073" transform="translate(72.141907,39.451096)">
					<path id="path3075" inkscape:connector-curvature="0" fill="#1C5329" d="M0,10.152l-0.008,0.135h-0.083
						c-0.058-0.033-0.13-0.123-0.178-0.253l-0.02-0.062C-0.347,9.795-0.347,9.66-0.347,9.66s0.135,0.135,0.216,0.243l0.032,0.051
						L0,10.152"/>
				</g>
				<g id="g3077" transform="translate(71.405106,40.317306)">
					<path id="path3079" inkscape:connector-curvature="0" fill="#EA1F29" d="M0,10.152c-0.094-0.068-0.337-0.287-0.193-0.628
						c0.166-0.399,0.543-0.42,0.641-0.417l0.02,0.061c0.047,0.13,0.12,0.219,0.178,0.253C0.629,9.539,0.602,9.69,0.566,9.787
						c-0.05,0.12-0.158,0.276-0.219,0.359C0.289,10.113,0.18,10.101,0,10.152"/>
				</g>
				<g id="g3081" transform="translate(72.547806,40.860504)">
					<path id="path3083" inkscape:connector-curvature="0" fill="#EA1F29" d="M0,10.152c-0.039,0.056-0.067,0.182-0.082,0.368
						l-0.003,0.037c-0.099,0.084-0.465,0.334-0.812,0.05c-0.358-0.29-0.227-0.663-0.169-0.792l0.296-0.094
						c0.081,0.064,0.218,0.168,0.345,0.248C-0.291,10.052-0.114,10.118,0,10.152"/>
				</g>
				<g id="g3085" transform="translate(71.450806,40.528198)">
					<path id="path3087" inkscape:connector-curvature="0" fill="#1C5329" d="M0,10.152c-0.231,0.035-0.383-0.023-0.383-0.023
						s0.05-0.107,0.332-0.187l0.005-0.001c0.18-0.051,0.289-0.038,0.348-0.006l0.055,0.077l-0.03,0.041l-0.296,0.095L0,10.152"/>
				</g>
				<g id="g3089" transform="translate(73.156494,39.675797)">
					<path id="path3091" inkscape:connector-curvature="0" fill="#EA1F29" d="M0,10.152c-0.132,0.003-0.332,0-0.491-0.033
						c-0.186-0.042-0.412-0.14-0.524-0.192L-1.113,9.73l-0.033-0.052c0.058-0.074,0.308-0.348,0.729-0.292
						c0.482,0.06,0.602,0.392,0.624,0.473L0.175,9.897L0,10.152"/>
				</g>
				<g id="g3093" transform="translate(73.724792,40.580505)">
					<path id="path3095" inkscape:connector-curvature="0" fill="#EA1F29" d="M0,10.152l-0.127-0.062
						C-0.255,10.043-0.361,10-0.43,9.996c-0.029-0.076-0.058-0.18-0.065-0.3c-0.008-0.118,0.013-0.25,0.03-0.338
						c0.058-0.044,0.128-0.118,0.208-0.221l0.021-0.03l0.049-0.077c0.145-0.006,0.459,0.034,0.527,0.484
						C0.418,10.017,0.069,10.134,0,10.152"/>
				</g>
				<g id="g3097" transform="translate(73.668396,40.700806)">
					<path id="path3099" inkscape:connector-curvature="0" fill="#EA1F29" d="M0,10.152c0.015,0.059,0.106,0.548-0.329,0.773
						c-0.31,0.157-0.564-0.007-0.691-0.119l0.013-0.083c0.019-0.154,0.014-0.296-0.013-0.377c0.038-0.027,0.17-0.127,0.315-0.197
						c0.13-0.06,0.293-0.108,0.336-0.118l0.235,0.087L0,10.152"/>
				</g>
				<g id="g3101" transform="translate(72.661896,41.271805)">
					<path id="path3103" inkscape:connector-curvature="0" fill="#1C5329" d="M0,10.152l-0.013,0.083
						c-0.037,0.165-0.114,0.188-0.114,0.188s-0.078-0.046-0.071-0.278l0.003-0.037C-0.18,9.923-0.153,9.797-0.114,9.74l0.055-0.027
						l0.045,0.06l0.001,0.003C0.014,9.857,0.019,9.998,0,10.152"/>
				</g>
				<g id="g3105" transform="translate(73.724792,40.580505)">
					<path id="path3107" inkscape:connector-curvature="0" fill="#1C5329" d="M0,10.152c0.109,0.059,0.231,0.133,0.224,0.144
						c-0.004,0.008-0.139,0.003-0.28-0.023l-0.135-0.035l-0.235-0.087l-0.087-0.114l0.083-0.041C-0.361,10-0.255,10.043-0.127,10.09
						L0,10.152"/>
				</g>
				<g id="g3109" transform="translate(73.468201,39.565002)">
					<path id="path3111" inkscape:connector-curvature="0" fill="#1C5329" d="M0,10.152c-0.081,0.104-0.15,0.177-0.208,0.222
						l-0.063,0.038l-0.061-0.006l-0.006-0.077l0.026-0.066l0.175-0.255l0.032-0.038l0.024-0.024
						c0.115-0.105,0.218-0.109,0.218-0.109s0,0.084-0.068,0.209l-0.048,0.076L0,10.152"/>
				</g>
				<g id="g3113" transform="translate(72.879593,40.315201)">
					<path id="path3115" inkscape:connector-curvature="0" fill="#F2BB0E" d="M0,10.152C0.04,10-0.085,9.837-0.277,9.788
						C-0.47,9.74-0.658,9.821-0.697,9.972c-0.039,0.15,0.085,0.312,0.278,0.361C-0.226,10.384-0.039,10.303,0,10.152"/>
				</g>
				<g id="g3117" transform="translate(51.472,39.451096)">
					<path id="path3119" inkscape:connector-curvature="0" fill="#1C5329" d="M0,10.152l-0.007,0.135h-0.081
						c-0.06-0.033-0.13-0.123-0.179-0.253l-0.02-0.062C-0.346,9.795-0.345,9.66-0.345,9.66s0.134,0.135,0.215,0.243l0.033,0.051
						L0,10.152"/>
				</g>
				<g id="g3121" transform="translate(50.736404,40.317306)">
					<path id="path3123" inkscape:connector-curvature="0" fill="#EA1F29" d="M0,10.152c-0.093-0.068-0.335-0.287-0.194-0.628
						c0.167-0.399,0.543-0.42,0.643-0.417l0.02,0.061c0.049,0.13,0.119,0.219,0.178,0.253C0.63,9.539,0.603,9.69,0.567,9.787
						c-0.049,0.12-0.158,0.276-0.218,0.359C0.289,10.113,0.181,10.101,0,10.152"/>
				</g>
				<g id="g3125" transform="translate(51.876694,40.860504)">
					<path id="path3127" inkscape:connector-curvature="0" fill="#EA1F29" d="M0,10.152c-0.037,0.056-0.067,0.182-0.079,0.368
						l-0.002,0.037c-0.102,0.084-0.465,0.334-0.814,0.05c-0.358-0.29-0.228-0.663-0.164-0.792l0.293-0.094
						c0.081,0.064,0.217,0.168,0.345,0.248C-0.288,10.052-0.112,10.118,0,10.152"/>
				</g>
				<g id="g3129" transform="translate(50.7827,40.528198)">
					<path id="path3131" inkscape:connector-curvature="0" fill="#1C5329" d="M0,10.152c-0.23,0.035-0.385-0.023-0.385-0.023
						s0.051-0.107,0.334-0.187l0.005-0.001C0.135,9.89,0.243,9.903,0.302,9.935l0.054,0.077l-0.029,0.041l-0.293,0.095L0,10.152"/>
				</g>
				<g id="g3133" transform="translate(52.488296,39.675797)">
					<path id="path3135" inkscape:connector-curvature="0" fill="#EA1F29" d="M0,10.152c-0.132,0.003-0.333,0-0.493-0.033
						c-0.185-0.042-0.41-0.14-0.523-0.192L-1.113,9.73l-0.033-0.052c0.058-0.074,0.309-0.348,0.731-0.292
						c0.481,0.06,0.599,0.392,0.622,0.473L0.174,9.897L0,10.152"/>
				</g>
				<g id="g3137" transform="translate(53.055496,40.580505)">
					<path id="path3139" inkscape:connector-curvature="0" fill="#EA1F29" d="M0,10.152l-0.125-0.062
						C-0.253,10.043-0.361,10-0.43,9.996c-0.028-0.076-0.056-0.18-0.066-0.3c-0.005-0.118,0.014-0.25,0.034-0.338
						c0.056-0.044,0.126-0.118,0.207-0.221l0.02-0.03l0.048-0.077c0.144-0.006,0.461,0.034,0.528,0.484
						C0.418,10.017,0.07,10.134,0,10.152"/>
				</g>
				<g id="g3141" transform="translate(53,40.700806)">
					<path id="path3143" inkscape:connector-curvature="0" fill="#EA1F29" d="M0,10.152c0.013,0.059,0.105,0.548-0.331,0.773
						c-0.308,0.157-0.563-0.007-0.691-0.119l0.015-0.083c0.019-0.154,0.012-0.296-0.015-0.377c0.039-0.027,0.171-0.127,0.316-0.197
						c0.132-0.06,0.294-0.108,0.337-0.118l0.236,0.087L0,10.152"/>
				</g>
				<g id="g3145" transform="translate(51.992905,41.271805)">
					<path id="path3147" inkscape:connector-curvature="0" fill="#1C5329" d="M0,10.152l-0.015,0.083
						c-0.035,0.165-0.112,0.188-0.112,0.188s-0.079-0.046-0.07-0.278l0.001-0.037c0.014-0.185,0.042-0.311,0.08-0.368l0.055-0.027
						l0.046,0.06v0.003C0.013,9.857,0.019,9.998,0,10.152"/>
				</g>
				<g id="g3149" transform="translate(53.055496,40.580505)">
					<path id="path3151" inkscape:connector-curvature="0" fill="#1C5329" d="M0,10.152c0.109,0.059,0.232,0.133,0.224,0.144
						c-0.003,0.008-0.14,0.003-0.28-0.023l-0.133-0.035l-0.235-0.087l-0.087-0.114l0.081-0.041C-0.361,10-0.253,10.043-0.125,10.09
						L0,10.152"/>
				</g>
				<g id="g3153" transform="translate(52.8004,39.565002)">
					<path id="path3155" inkscape:connector-curvature="0" fill="#1C5329" d="M0,10.152c-0.081,0.104-0.151,0.177-0.207,0.222
						l-0.064,0.038l-0.062-0.006l-0.003-0.077l0.024-0.066l0.174-0.255l0.033-0.038l0.024-0.024
						c0.115-0.105,0.218-0.109,0.218-0.109s0,0.084-0.068,0.209L0.02,10.122L0,10.152"/>
				</g>
				<g id="g3157" transform="translate(52.210007,40.315201)">
					<path id="path3159" inkscape:connector-curvature="0" fill="#F2BB0E" d="M0,10.152C0.039,10-0.084,9.837-0.277,9.788
						c-0.192-0.048-0.38,0.033-0.418,0.184c-0.039,0.15,0.085,0.312,0.277,0.361C-0.227,10.384-0.037,10.303,0,10.152"/>
				</g>
				<g id="g3161" transform="translate(61.847,49.046707)">
					<path id="path3163" inkscape:connector-curvature="0" fill="#1C5329" d="M0,10.152l-0.008,0.135l-0.082,0.002
						c-0.06-0.037-0.13-0.127-0.179-0.256l-0.023-0.059C-0.349,9.797-0.347,9.66-0.347,9.66s0.133,0.135,0.213,0.242L-0.1,9.951
						L0,10.152"/>
				</g>
				<g id="g3165" transform="translate(61.111999,49.912796)">
					<path id="path3167" inkscape:connector-curvature="0" fill="#EA1F29" d="M0,10.152c-0.097-0.068-0.34-0.285-0.196-0.63
						c0.168-0.396,0.543-0.417,0.639-0.415l0.022,0.061c0.05,0.128,0.12,0.218,0.18,0.254C0.626,9.539,0.599,9.693,0.563,9.786
						c-0.048,0.121-0.156,0.277-0.219,0.36C0.285,10.115,0.177,10.101,0,10.152"/>
				</g>
				<g id="g3169" transform="translate(62.251999,50.458404)">
					<path id="path3171" inkscape:connector-curvature="0" fill="#EA1F29" d="M0,10.152c-0.04,0.053-0.068,0.18-0.082,0.367v0.036
						c-0.104,0.083-0.468,0.334-0.815,0.049c-0.359-0.29-0.227-0.664-0.166-0.793l0.294-0.093c0.081,0.066,0.217,0.17,0.345,0.25
						C-0.292,10.05-0.116,10.115,0,10.152"/>
				</g>
				<g id="g3173" transform="translate(61.1577,50.123901)">
					<path id="path3175" inkscape:connector-curvature="0" fill="#1C5329" d="M0,10.152c-0.231,0.034-0.388-0.024-0.388-0.024
						s0.053-0.106,0.335-0.186l0.007-0.001C0.132,9.889,0.24,9.904,0.299,9.935l0.055,0.077l-0.028,0.04l-0.295,0.094L0,10.152"/>
				</g>
				<g id="g3177" transform="translate(62.862198,49.270401)">
					<path id="path3179" inkscape:connector-curvature="0" fill="#EA1F29" d="M0,10.152c-0.133,0.004-0.335,0-0.494-0.033
						c-0.184-0.041-0.412-0.138-0.521-0.191l-0.1-0.2l-0.034-0.049c0.06-0.073,0.311-0.345,0.732-0.292
						C0.065,9.449,0.185,9.779,0.206,9.86L0.174,9.899L0,10.152"/>
				</g>
				<g id="g3181" transform="translate(63.4272,50.176193)">
					<path id="path3183" inkscape:connector-curvature="0" fill="#EA1F29" d="M0,10.152l-0.125-0.061
						C-0.251,10.043-0.36,10-0.43,9.996c-0.025-0.073-0.054-0.181-0.062-0.302C-0.5,9.578-0.48,9.445-0.464,9.357
						c0.059-0.042,0.13-0.118,0.21-0.222l0.022-0.03l0.047-0.075c0.143-0.007,0.459,0.033,0.526,0.482
						C0.419,10.016,0.07,10.133,0,10.152"/>
				</g>
				<g id="g3185" transform="translate(63.371902,50.296204)">
					<path id="path3187" inkscape:connector-curvature="0" fill="#EA1F29" d="M0,10.152c0.013,0.06,0.106,0.548-0.33,0.772
						c-0.307,0.158-0.564-0.005-0.69-0.118l0.013-0.084c0.019-0.153,0.014-0.295-0.011-0.375c0.034-0.027,0.168-0.128,0.315-0.197
						c0.13-0.061,0.292-0.108,0.335-0.12l0.235,0.089L0,10.152"/>
				</g>
				<g id="g3189" transform="translate(62.365402,50.867294)">
					<path id="path3191" inkscape:connector-curvature="0" fill="#1C5329" d="M0,10.152l-0.014,0.084
						c-0.035,0.163-0.113,0.187-0.113,0.187s-0.077-0.048-0.068-0.277V10.11c0.013-0.187,0.041-0.313,0.081-0.367l0.054-0.031
						l0.046,0.06l0.002,0.004C0.013,9.856,0.018,9.999,0,10.152"/>
				</g>
				<g id="g3193" transform="translate(63.4272,50.176193)">
					<path id="path3195" inkscape:connector-curvature="0" fill="#1C5329" d="M0,10.152c0.11,0.058,0.232,0.133,0.226,0.143
						c-0.005,0.007-0.139,0.004-0.281-0.023l-0.134-0.033l-0.234-0.089l-0.086-0.115l0.079-0.039
						c0.07,0.004,0.179,0.047,0.305,0.095L0,10.152"/>
				</g>
				<g id="g3197" transform="translate(63.173294,49.159607)">
					<path id="path3199" inkscape:connector-curvature="0" fill="#1C5329" d="M0,10.152c-0.08,0.104-0.151,0.18-0.21,0.222
						l-0.061,0.04l-0.061-0.007l-0.007-0.075l0.028-0.069l0.173-0.253l0.032-0.038l0.026-0.025c0.113-0.105,0.215-0.108,0.215-0.108
						s0.002,0.083-0.066,0.207l-0.048,0.076L0,10.152"/>
				</g>
				<g id="g3201" transform="translate(62.583801,49.910995)">
					<path id="path3203" inkscape:connector-curvature="0" fill="#F2BB0E" d="M0,10.152C0.04,10-0.085,9.838-0.277,9.788
						S-0.658,9.82-0.696,9.969c-0.04,0.152,0.086,0.315,0.277,0.365C-0.227,10.384-0.04,10.303,0,10.152"/>
				</g>
				<g id="g3205" transform="translate(51.342697,49.046707)">
					<path id="path3207" inkscape:connector-curvature="0" fill="#1C5329" d="M0,10.152l-0.006,0.135l-0.085,0.002
						c-0.056-0.037-0.129-0.127-0.177-0.256l-0.023-0.059C-0.347,9.797-0.347,9.66-0.347,9.66s0.135,0.135,0.218,0.242l0.032,0.049
						L0,10.152"/>
				</g>
				<g id="g3209" transform="translate(50.607101,49.912796)">
					<path id="path3211" inkscape:connector-curvature="0" fill="#EA1F29" d="M0,10.152c-0.095-0.068-0.338-0.285-0.195-0.63
						c0.166-0.396,0.545-0.417,0.64-0.415l0.023,0.061c0.047,0.128,0.121,0.218,0.176,0.254C0.63,9.539,0.602,9.693,0.566,9.786
						c-0.051,0.121-0.157,0.277-0.219,0.36C0.288,10.115,0.18,10.101,0,10.152"/>
				</g>
				<g id="g3213" transform="translate(51.748306,50.458404)">
					<path id="path3215" inkscape:connector-curvature="0" fill="#EA1F29" d="M0,10.152c-0.04,0.053-0.066,0.18-0.082,0.367v0.036
						c-0.104,0.083-0.468,0.334-0.816,0.049c-0.356-0.29-0.226-0.664-0.166-0.793l0.297-0.093c0.079,0.066,0.215,0.17,0.344,0.25
						C-0.29,10.05-0.113,10.115,0,10.152"/>
				</g>
				<g id="g3217" transform="translate(50.652801,50.123901)">
					<path id="path3219" inkscape:connector-curvature="0" fill="#1C5329" d="M0,10.152c-0.23,0.034-0.386-0.024-0.386-0.024
						s0.054-0.106,0.334-0.186l0.006-0.001c0.18-0.052,0.288-0.037,0.348-0.006l0.054,0.077l-0.027,0.04l-0.298,0.094L0,10.152"/>
				</g>
				<g id="g3221" transform="translate(52.3573,49.270401)">
					<path id="path3223" inkscape:connector-curvature="0" fill="#EA1F29" d="M0,10.152c-0.131,0.004-0.333,0-0.491-0.033
						c-0.184-0.041-0.413-0.138-0.524-0.191l-0.097-0.2l-0.032-0.049c0.057-0.073,0.306-0.345,0.727-0.292
						C0.065,9.449,0.186,9.779,0.207,9.86L0.175,9.899L0,10.152"/>
				</g>
				<g id="g3225" transform="translate(52.925003,50.176193)">
					<path id="path3227" inkscape:connector-curvature="0" fill="#EA1F29" d="M0,10.152l-0.127-0.061
						C-0.253,10.043-0.36,10-0.429,9.996c-0.028-0.073-0.057-0.181-0.066-0.302C-0.5,9.578-0.48,9.445-0.463,9.357
						c0.057-0.042,0.126-0.118,0.208-0.222l0.021-0.03l0.048-0.075c0.142-0.007,0.459,0.033,0.528,0.482
						C0.418,10.016,0.07,10.133,0,10.152"/>
				</g>
				<g id="g3229" transform="translate(52.869095,50.296204)">
					<path id="path3231" inkscape:connector-curvature="0" fill="#EA1F29" d="M0,10.152c0.012,0.06,0.105,0.548-0.33,0.772
						c-0.309,0.158-0.564-0.005-0.69-0.118l0.013-0.084c0.018-0.153,0.014-0.295-0.013-0.375c0.037-0.027,0.17-0.128,0.314-0.197
						c0.132-0.061,0.295-0.108,0.338-0.12l0.235,0.089L0,10.152"/>
				</g>
				<g id="g3233" transform="translate(51.862396,50.867294)">
					<path id="path3235" inkscape:connector-curvature="0" fill="#1C5329" d="M0,10.152l-0.014,0.084
						c-0.035,0.163-0.113,0.187-0.113,0.187s-0.077-0.048-0.069-0.277V10.11c0.016-0.187,0.042-0.313,0.082-0.367l0.054-0.031
						l0.046,0.06l0.001,0.004C0.015,9.856,0.017,9.999,0,10.152"/>
				</g>
				<g id="g3237" transform="translate(52.925003,50.176193)">
					<path id="path3239" inkscape:connector-curvature="0" fill="#1C5329" d="M0,10.152c0.11,0.058,0.232,0.133,0.224,0.143
						c-0.004,0.007-0.138,0.004-0.28-0.023l-0.133-0.033l-0.235-0.089l-0.088-0.115l0.083-0.039C-0.36,10-0.253,10.043-0.127,10.091
						L0,10.152"/>
				</g>
				<g id="g3241" transform="translate(52.670197,49.159607)">
					<path id="path3243" inkscape:connector-curvature="0" fill="#1C5329" d="M0,10.152c-0.081,0.104-0.151,0.18-0.208,0.222
						l-0.064,0.04l-0.061-0.007l-0.007-0.075l0.027-0.069l0.175-0.253l0.032-0.038l0.025-0.025c0.114-0.105,0.217-0.108,0.217-0.108
						s0.002,0.083-0.068,0.207l-0.047,0.076L0,10.152"/>
				</g>
				<g id="g3245" transform="translate(52.080399,49.910995)">
					<path id="path3247" inkscape:connector-curvature="0" fill="#F2BB0E" d="M0,10.152C0.039,10-0.085,9.838-0.277,9.788
						s-0.38,0.032-0.418,0.181c-0.039,0.152,0.083,0.315,0.277,0.365C-0.227,10.384-0.038,10.303,0,10.152"/>
				</g>
				<g id="g3249" transform="translate(72.373703,49.046707)">
					<path id="path3251" inkscape:connector-curvature="0" fill="#1C5329" d="M0,10.152l-0.006,0.135l-0.083,0.002
						c-0.058-0.037-0.13-0.127-0.178-0.256l-0.021-0.059C-0.346,9.797-0.345,9.66-0.345,9.66S-0.21,9.795-0.13,9.902l0.034,0.049
						L0,10.152"/>
				</g>
				<g id="g3253" transform="translate(71.638397,49.912796)">
					<path id="path3255" inkscape:connector-curvature="0" fill="#EA1F29" d="M0,10.152c-0.094-0.068-0.335-0.285-0.194-0.63
						c0.167-0.396,0.544-0.417,0.641-0.415l0.022,0.061c0.047,0.128,0.119,0.218,0.177,0.254c-0.017,0.117-0.044,0.271-0.08,0.364
						c-0.049,0.121-0.157,0.277-0.219,0.36C0.29,10.115,0.181,10.101,0,10.152"/>
				</g>
				<g id="g3257" transform="translate(72.779907,50.458404)">
					<path id="path3259" inkscape:connector-curvature="0" fill="#EA1F29" d="M0,10.152c-0.039,0.053-0.065,0.18-0.08,0.367
						l-0.002,0.036c-0.101,0.083-0.466,0.334-0.815,0.049c-0.358-0.29-0.228-0.664-0.165-0.793l0.296-0.093
						c0.079,0.066,0.216,0.17,0.344,0.25C-0.289,10.05-0.113,10.115,0,10.152"/>
				</g>
				<g id="g3261" transform="translate(71.684402,50.123901)">
					<path id="path3263" inkscape:connector-curvature="0" fill="#1C5329" d="M0,10.152c-0.229,0.034-0.385-0.024-0.385-0.024
						s0.051-0.106,0.334-0.186l0.005-0.001c0.181-0.052,0.29-0.037,0.348-0.006l0.055,0.077l-0.027,0.04l-0.296,0.094L0,10.152"/>
				</g>
				<g id="g3265" transform="translate(73.391205,49.270401)">
					<path id="path3267" inkscape:connector-curvature="0" fill="#EA1F29" d="M0,10.152c-0.132,0.004-0.336,0-0.492-0.033
						c-0.185-0.041-0.413-0.138-0.525-0.191l-0.098-0.2l-0.033-0.049c0.06-0.073,0.311-0.345,0.731-0.292
						c0.481,0.062,0.6,0.392,0.622,0.473L0.173,9.899L0,10.152"/>
				</g>
				<g id="g3269" transform="translate(73.957794,50.176193)">
					<path id="path3271" inkscape:connector-curvature="0" fill="#EA1F29" d="M0,10.152l-0.126-0.061
						C-0.252,10.043-0.362,10-0.431,9.996c-0.027-0.073-0.057-0.181-0.064-0.302c-0.006-0.116,0.013-0.249,0.031-0.337
						c0.058-0.042,0.126-0.118,0.209-0.222l0.022-0.03l0.047-0.075c0.142-0.007,0.459,0.033,0.528,0.482
						C0.417,10.016,0.069,10.133,0,10.152"/>
				</g>
				<g id="g3273" transform="translate(73.901901,50.296204)">
					<path id="path3275" inkscape:connector-curvature="0" fill="#EA1F29" d="M0,10.152c0.013,0.06,0.103,0.548-0.332,0.772
						c-0.306,0.158-0.562-0.005-0.689-0.118l0.015-0.084c0.019-0.153,0.014-0.295-0.012-0.375c0.035-0.027,0.166-0.128,0.312-0.197
						c0.133-0.061,0.293-0.108,0.337-0.12l0.236,0.089L0,10.152"/>
				</g>
				<g id="g3277" transform="translate(72.895706,50.867294)">
					<path id="path3279" inkscape:connector-curvature="0" fill="#1C5329" d="M0,10.152l-0.015,0.084
						c-0.034,0.163-0.112,0.187-0.112,0.187s-0.08-0.048-0.07-0.277l0.001-0.036c0.014-0.187,0.041-0.313,0.08-0.367l0.056-0.031
						l0.045,0.06l0.003,0.004C0.014,9.856,0.019,9.999,0,10.152"/>
				</g>
				<g id="g3281" transform="translate(73.957794,50.176193)">
					<path id="path3283" inkscape:connector-curvature="0" fill="#1C5329" d="M0,10.152c0.109,0.058,0.231,0.133,0.226,0.143
						c-0.005,0.007-0.142,0.004-0.282-0.023l-0.133-0.033l-0.236-0.089l-0.086-0.115l0.08-0.039
						c0.069,0.004,0.179,0.047,0.305,0.095L0,10.152"/>
				</g>
				<g id="g3285" transform="translate(73.703003,49.159607)">
					<path id="path3287" inkscape:connector-curvature="0" fill="#1C5329" d="M0,10.152c-0.082,0.104-0.152,0.18-0.208,0.222
						l-0.063,0.04l-0.062-0.007l-0.005-0.075l0.026-0.069l0.173-0.253l0.033-0.038l0.024-0.025c0.115-0.105,0.218-0.108,0.218-0.108
						s0,0.083-0.067,0.207l-0.048,0.076L0,10.152"/>
				</g>
				<g id="g3289" transform="translate(73.111694,49.910995)">
					<path id="path3291" inkscape:connector-curvature="0" fill="#F2BB0E" d="M0,10.152C0.04,10-0.084,9.838-0.276,9.788
						c-0.193-0.05-0.379,0.032-0.419,0.181c-0.039,0.152,0.086,0.315,0.278,0.365C-0.224,10.384-0.039,10.303,0,10.152"/>
				</g>
				<g id="g3293" transform="translate(61.847,58.641006)">
					<path id="path3295" inkscape:connector-curvature="0" fill="#1C5329" d="M0,10.152l-0.008,0.135l-0.082,0.001
						c-0.06-0.034-0.13-0.124-0.179-0.254l-0.023-0.06c-0.057-0.177-0.055-0.312-0.055-0.312s0.133,0.132,0.213,0.241L-0.1,9.952
						L0,10.152"/>
				</g>
				<g id="g3297" transform="translate(61.111999,59.5074)">
					<path id="path3299" inkscape:connector-curvature="0" fill="#EA1F29" d="M0,10.152c-0.097-0.068-0.34-0.286-0.196-0.63
						c0.168-0.396,0.543-0.417,0.639-0.415l0.022,0.061c0.05,0.129,0.12,0.22,0.18,0.253c-0.019,0.118-0.046,0.27-0.082,0.365
						c-0.048,0.121-0.156,0.277-0.219,0.36C0.285,10.115,0.177,10.101,0,10.152"/>
				</g>
				<g id="g3301" transform="translate(62.251999,60.051498)">
					<path id="path3303" inkscape:connector-curvature="0" fill="#EA1F29" d="M0,10.152c-0.04,0.055-0.068,0.182-0.082,0.368v0.037
						c-0.104,0.082-0.468,0.334-0.815,0.05c-0.359-0.291-0.227-0.664-0.166-0.793l0.294-0.093c0.081,0.064,0.217,0.168,0.345,0.247
						C-0.292,10.051-0.116,10.115,0,10.152"/>
				</g>
				<g id="g3305" transform="translate(61.1577,59.717895)">
					<path id="path3307" inkscape:connector-curvature="0" fill="#1C5329" d="M0,10.152c-0.231,0.034-0.388-0.022-0.388-0.022
						s0.053-0.107,0.335-0.187l0.007-0.002C0.132,9.89,0.24,9.904,0.299,9.935l0.055,0.079l-0.028,0.04l-0.295,0.093L0,10.152"/>
				</g>
				<g id="g3309" transform="translate(62.862198,58.864395)">
					<path id="path3311" inkscape:connector-curvature="0" fill="#EA1F29" d="M0,10.152c-0.133,0.003-0.335,0.001-0.494-0.034
						c-0.184-0.04-0.412-0.138-0.521-0.189l-0.1-0.2l-0.034-0.05c0.06-0.073,0.311-0.345,0.732-0.29
						c0.482,0.06,0.602,0.391,0.623,0.472L0.174,9.898L0,10.152"/>
				</g>
				<g id="g3313" transform="translate(63.4272,59.769897)">
					<path id="path3315" inkscape:connector-curvature="0" fill="#EA1F29" d="M0,10.152l-0.125-0.06
						c-0.126-0.048-0.235-0.089-0.305-0.095c-0.025-0.074-0.054-0.181-0.062-0.301C-0.5,9.578-0.48,9.446-0.464,9.359
						c0.059-0.044,0.13-0.118,0.21-0.222l0.022-0.03l0.047-0.078c0.143-0.006,0.459,0.036,0.526,0.484
						C0.419,10.017,0.07,10.134,0,10.152"/>
				</g>
				<g id="g3317" transform="translate(63.371902,59.891098)">
					<path id="path3319" inkscape:connector-curvature="0" fill="#EA1F29" d="M0,10.152c0.013,0.059,0.106,0.548-0.33,0.772
						c-0.307,0.156-0.564-0.005-0.69-0.118l0.013-0.084c0.019-0.152,0.014-0.295-0.011-0.375c0.034-0.027,0.168-0.129,0.315-0.197
						c0.13-0.061,0.292-0.109,0.335-0.12l0.235,0.089L0,10.152"/>
				</g>
				<g id="g3321" transform="translate(62.365402,60.462204)">
					<path id="path3323" inkscape:connector-curvature="0" fill="#1C5329" d="M0,10.152l-0.014,0.083
						c-0.035,0.164-0.113,0.188-0.113,0.188s-0.077-0.047-0.068-0.277V10.11c0.013-0.187,0.041-0.314,0.081-0.369l0.054-0.028
						l0.046,0.059l0.002,0.004C0.013,9.855,0.018,9.999,0,10.152"/>
				</g>
				<g id="g3325" transform="translate(63.4272,59.769897)">
					<path id="path3327" inkscape:connector-curvature="0" fill="#1C5329" d="M0,10.152c0.11,0.059,0.232,0.133,0.226,0.144
						c-0.005,0.008-0.139,0.004-0.281-0.023l-0.134-0.033l-0.234-0.089l-0.086-0.114l0.079-0.04c0.07,0.006,0.179,0.047,0.305,0.095
						L0,10.152"/>
				</g>
				<g id="g3329" transform="translate(63.173294,58.755096)">
					<path id="path3331" inkscape:connector-curvature="0" fill="#1C5329" d="M0,10.152c-0.08,0.103-0.151,0.178-0.21,0.221
						l-0.061,0.039l-0.061-0.006l-0.007-0.076l0.028-0.068l0.173-0.254l0.032-0.037l0.026-0.025c0.113-0.105,0.215-0.11,0.215-0.11
						s0.002,0.085-0.066,0.208l-0.048,0.078L0,10.152"/>
				</g>
				<g id="g3333" transform="translate(62.583801,59.504394)">
					<path id="path3335" inkscape:connector-curvature="0" fill="#F2BB0E" d="M0,10.152c0.04-0.151-0.085-0.313-0.277-0.363
						c-0.192-0.05-0.381,0.031-0.419,0.183c-0.04,0.15,0.086,0.313,0.277,0.363C-0.227,10.385-0.04,10.302,0,10.152"/>
				</g>
				<g id="g3337" transform="translate(51.342697,58.641006)">
					<path id="path3339" inkscape:connector-curvature="0" fill="#1C5329" d="M0,10.152l-0.006,0.135l-0.085,0.001
						c-0.056-0.034-0.129-0.124-0.177-0.254l-0.023-0.06c-0.056-0.177-0.056-0.312-0.056-0.312s0.135,0.132,0.218,0.241l0.032,0.049
						L0,10.152"/>
				</g>
				<g id="g3341" transform="translate(50.607101,59.5074)">
					<path id="path3343" inkscape:connector-curvature="0" fill="#EA1F29" d="M0,10.152c-0.095-0.068-0.338-0.286-0.195-0.63
						c0.166-0.396,0.545-0.417,0.64-0.415l0.023,0.061c0.047,0.129,0.121,0.22,0.176,0.253C0.63,9.539,0.602,9.691,0.566,9.786
						c-0.051,0.121-0.157,0.277-0.219,0.36C0.288,10.115,0.18,10.101,0,10.152"/>
				</g>
				<g id="g3345" transform="translate(51.748306,60.051498)">
					<path id="path3347" inkscape:connector-curvature="0" fill="#EA1F29" d="M0,10.152c-0.04,0.055-0.066,0.182-0.082,0.368v0.037
						c-0.104,0.082-0.468,0.334-0.816,0.05c-0.356-0.291-0.226-0.664-0.166-0.793l0.297-0.093c0.079,0.064,0.215,0.168,0.344,0.247
						C-0.29,10.051-0.113,10.115,0,10.152"/>
				</g>
				<g id="g3349" transform="translate(50.652801,59.717895)">
					<path id="path3351" inkscape:connector-curvature="0" fill="#1C5329" d="M0,10.152c-0.23,0.034-0.386-0.022-0.386-0.022
						s0.054-0.107,0.334-0.187l0.006-0.002c0.18-0.051,0.288-0.037,0.348-0.006l0.054,0.079l-0.027,0.04l-0.298,0.093L0,10.152"/>
				</g>
				<g id="g3353" transform="translate(52.3573,58.864395)">
					<path id="path3355" inkscape:connector-curvature="0" fill="#EA1F29" d="M0,10.152c-0.131,0.003-0.333,0.001-0.491-0.034
						c-0.184-0.04-0.413-0.138-0.524-0.189l-0.097-0.2l-0.032-0.05c0.057-0.073,0.306-0.345,0.727-0.29
						c0.482,0.06,0.603,0.391,0.624,0.472L0.175,9.898L0,10.152"/>
				</g>
				<g id="g3357" transform="translate(52.925003,59.769897)">
					<path id="path3359" inkscape:connector-curvature="0" fill="#EA1F29" d="M0,10.152l-0.127-0.06
						c-0.126-0.048-0.233-0.089-0.302-0.095c-0.028-0.074-0.057-0.181-0.066-0.301C-0.5,9.578-0.48,9.446-0.463,9.359
						c0.057-0.044,0.126-0.118,0.208-0.222l0.021-0.03l0.048-0.078c0.142-0.006,0.459,0.036,0.528,0.484
						C0.418,10.017,0.07,10.134,0,10.152"/>
				</g>
				<g id="g3361" transform="translate(52.869095,59.891098)">
					<path id="path3363" inkscape:connector-curvature="0" fill="#EA1F29" d="M0,10.152c0.012,0.059,0.105,0.548-0.33,0.772
						c-0.309,0.156-0.564-0.005-0.69-0.118l0.013-0.084c0.018-0.152,0.014-0.295-0.013-0.375c0.037-0.027,0.17-0.129,0.314-0.197
						c0.132-0.061,0.295-0.109,0.338-0.12l0.235,0.089L0,10.152"/>
				</g>
				<g id="g3365" transform="translate(51.862396,60.462204)">
					<path id="path3367" inkscape:connector-curvature="0" fill="#1C5329" d="M0,10.152l-0.014,0.083
						c-0.035,0.164-0.113,0.188-0.113,0.188s-0.077-0.047-0.069-0.277V10.11c0.016-0.187,0.042-0.314,0.082-0.369l0.054-0.028
						l0.046,0.059l0.001,0.004C0.015,9.855,0.017,9.999,0,10.152"/>
				</g>
				<g id="g3369" transform="translate(52.925003,59.769897)">
					<path id="path3371" inkscape:connector-curvature="0" fill="#1C5329" d="M0,10.152c0.11,0.059,0.232,0.133,0.224,0.144
						c-0.004,0.008-0.138,0.004-0.28-0.023l-0.133-0.033l-0.235-0.089l-0.088-0.114l0.083-0.04c0.069,0.006,0.176,0.047,0.302,0.095
						L0,10.152"/>
				</g>
				<g id="g3373" transform="translate(52.670197,58.755096)">
					<path id="path3375" inkscape:connector-curvature="0" fill="#1C5329" d="M0,10.152c-0.081,0.103-0.151,0.178-0.208,0.221
						l-0.064,0.039l-0.061-0.006L-0.34,10.33l0.027-0.068l0.175-0.254l0.032-0.037l0.025-0.025c0.114-0.105,0.217-0.11,0.217-0.11
						s0.002,0.085-0.068,0.208l-0.047,0.078L0,10.152"/>
				</g>
				<g id="g3377" transform="translate(52.080399,59.504394)">
					<path id="path3379" inkscape:connector-curvature="0" fill="#F2BB0E" d="M0,10.152c0.039-0.151-0.085-0.313-0.277-0.363
						c-0.192-0.05-0.38,0.031-0.418,0.183c-0.039,0.15,0.083,0.313,0.277,0.363C-0.227,10.385-0.038,10.302,0,10.152"/>
				</g>
				<g id="g3381" transform="translate(72.373703,58.641006)">
					<path id="path3383" inkscape:connector-curvature="0" fill="#1C5329" d="M0,10.152l-0.006,0.135l-0.083,0.001
						c-0.058-0.034-0.13-0.124-0.178-0.254l-0.021-0.06c-0.058-0.177-0.057-0.312-0.057-0.312S-0.21,9.794-0.13,9.903l0.034,0.049
						L0,10.152"/>
				</g>
				<g id="g3385" transform="translate(71.638397,59.5074)">
					<path id="path3387" inkscape:connector-curvature="0" fill="#EA1F29" d="M0,10.152c-0.094-0.068-0.335-0.286-0.194-0.63
						c0.167-0.396,0.544-0.417,0.641-0.415l0.022,0.061c0.047,0.129,0.119,0.22,0.177,0.253c-0.017,0.118-0.044,0.27-0.08,0.365
						c-0.049,0.121-0.157,0.277-0.219,0.36C0.29,10.115,0.181,10.101,0,10.152"/>
				</g>
				<g id="g3389" transform="translate(72.779907,60.051498)">
					<path id="path3391" inkscape:connector-curvature="0" fill="#EA1F29" d="M0,10.152c-0.039,0.055-0.065,0.182-0.08,0.368
						l-0.002,0.037c-0.101,0.082-0.466,0.334-0.815,0.05c-0.358-0.291-0.228-0.664-0.165-0.793l0.296-0.093
						c0.079,0.064,0.216,0.168,0.344,0.247C-0.289,10.051-0.113,10.115,0,10.152"/>
				</g>
				<g id="g3393" transform="translate(71.684402,59.717895)">
					<path id="path3395" inkscape:connector-curvature="0" fill="#1C5329" d="M0,10.152c-0.229,0.034-0.385-0.022-0.385-0.022
						s0.051-0.107,0.334-0.187l0.005-0.002c0.181-0.051,0.29-0.037,0.348-0.006l0.055,0.079l-0.027,0.04l-0.296,0.093L0,10.152"/>
				</g>
				<g id="g3397" transform="translate(73.391205,58.864395)">
					<path id="path3399" inkscape:connector-curvature="0" fill="#EA1F29" d="M0,10.152c-0.132,0.003-0.336,0.001-0.492-0.034
						c-0.185-0.04-0.413-0.138-0.525-0.189l-0.098-0.2l-0.033-0.05c0.06-0.073,0.311-0.345,0.731-0.29
						c0.481,0.06,0.6,0.391,0.622,0.472L0.173,9.898L0,10.152"/>
				</g>
				<g id="g3401" transform="translate(73.957794,59.769897)">
					<path id="path3403" inkscape:connector-curvature="0" fill="#EA1F29" d="M0,10.152l-0.126-0.06
						c-0.126-0.048-0.236-0.089-0.305-0.095c-0.027-0.074-0.057-0.181-0.064-0.301c-0.006-0.118,0.013-0.25,0.031-0.337
						c0.058-0.044,0.126-0.118,0.209-0.222l0.022-0.03l0.047-0.078c0.142-0.006,0.459,0.036,0.528,0.484
						C0.417,10.017,0.069,10.134,0,10.152"/>
				</g>
				<g id="g3405" transform="translate(73.901901,59.891098)">
					<path id="path3407" inkscape:connector-curvature="0" fill="#EA1F29" d="M0,10.152c0.013,0.059,0.103,0.548-0.332,0.772
						c-0.306,0.156-0.562-0.005-0.689-0.118l0.015-0.084c0.019-0.152,0.014-0.295-0.012-0.375c0.035-0.027,0.166-0.129,0.312-0.197
						c0.133-0.061,0.293-0.109,0.337-0.12l0.236,0.089L0,10.152"/>
				</g>
				<g id="g3409" transform="translate(72.895706,60.462204)">
					<path id="path3411" inkscape:connector-curvature="0" fill="#1C5329" d="M0,10.152l-0.015,0.083
						c-0.034,0.164-0.112,0.188-0.112,0.188s-0.08-0.047-0.07-0.277l0.001-0.036c0.014-0.187,0.041-0.314,0.08-0.369l0.056-0.028
						l0.045,0.059l0.003,0.004C0.014,9.855,0.019,9.999,0,10.152"/>
				</g>
				<g id="g3413" transform="translate(73.957794,59.769897)">
					<path id="path3415" inkscape:connector-curvature="0" fill="#1C5329" d="M0,10.152c0.109,0.059,0.231,0.133,0.226,0.144
						c-0.005,0.008-0.142,0.004-0.282-0.023l-0.133-0.033l-0.236-0.089l-0.086-0.114l0.08-0.04c0.069,0.006,0.179,0.047,0.305,0.095
						L0,10.152"/>
				</g>
				<g id="g3417" transform="translate(73.703003,58.755096)">
					<path id="path3419" inkscape:connector-curvature="0" fill="#1C5329" d="M0,10.152c-0.082,0.103-0.152,0.178-0.208,0.221
						l-0.063,0.039l-0.062-0.006l-0.005-0.076l0.026-0.068l0.173-0.254l0.033-0.037l0.024-0.025c0.115-0.105,0.218-0.11,0.218-0.11
						s0,0.085-0.067,0.208l-0.048,0.078L0,10.152"/>
				</g>
				<g id="g3421" transform="translate(73.111694,59.504394)">
					<path id="path3423" inkscape:connector-curvature="0" fill="#F2BB0E" d="M0,10.152c0.04-0.151-0.084-0.313-0.276-0.363
						c-0.193-0.05-0.379,0.031-0.419,0.183c-0.039,0.15,0.086,0.313,0.278,0.363C-0.224,10.385-0.039,10.302,0,10.152"/>
				</g>
				<g id="g3425" transform="translate(61.847,31.281204)">
					<path id="path3427" inkscape:connector-curvature="0" fill="#1C5329" d="M0,10.152l-0.008,0.135H-0.09
						c-0.06-0.035-0.13-0.123-0.179-0.255l-0.023-0.06c-0.057-0.176-0.055-0.311-0.055-0.311s0.133,0.132,0.213,0.242l0.034,0.05
						L0,10.152"/>
				</g>
				<g id="g3429" transform="translate(61.111999,32.1465)">
					<path id="path3431" inkscape:connector-curvature="0" fill="#EA1F29" d="M0,10.152c-0.097-0.068-0.34-0.284-0.196-0.629
						c0.168-0.397,0.543-0.417,0.639-0.416l0.022,0.06c0.05,0.132,0.12,0.22,0.18,0.254C0.626,9.538,0.599,9.692,0.563,9.785
						c-0.048,0.122-0.156,0.277-0.219,0.362C0.285,10.115,0.177,10.102,0,10.152"/>
				</g>
				<g id="g3433" transform="translate(62.251999,32.690598)">
					<path id="path3435" inkscape:connector-curvature="0" fill="#EA1F29" d="M0,10.152c-0.04,0.056-0.068,0.182-0.082,0.369v0.035
						c-0.104,0.084-0.468,0.334-0.815,0.051c-0.359-0.292-0.227-0.662-0.166-0.793l0.294-0.093c0.081,0.066,0.217,0.169,0.345,0.248
						C-0.292,10.05-0.116,10.116,0,10.152"/>
				</g>
				<g id="g3437" transform="translate(61.1577,32.3582)">
					<path id="path3439" inkscape:connector-curvature="0" fill="#1C5329" d="M0,10.152c-0.231,0.034-0.388-0.022-0.388-0.022
						s0.053-0.107,0.335-0.189l0.007-0.001C0.132,9.89,0.24,9.904,0.299,9.935l0.055,0.077l-0.028,0.042l-0.295,0.093L0,10.152"/>
				</g>
				<g id="g3441" transform="translate(62.862198,31.504303)">
					<path id="path3443" inkscape:connector-curvature="0" fill="#EA1F29" d="M0,10.152c-0.133,0.004-0.335,0-0.494-0.034
						C-0.678,10.08-0.906,9.98-1.015,9.929l-0.1-0.2L-1.149,9.68c0.06-0.074,0.311-0.346,0.732-0.293
						C0.065,9.449,0.185,9.78,0.206,9.86L0.174,9.899L0,10.152"/>
				</g>
				<g id="g3445" transform="translate(63.4272,32.409195)">
					<path id="path3447" inkscape:connector-curvature="0" fill="#EA1F29" d="M0,10.152l-0.125-0.058
						c-0.126-0.05-0.235-0.092-0.305-0.097c-0.025-0.075-0.054-0.18-0.062-0.301C-0.5,9.578-0.48,9.447-0.464,9.359
						c0.059-0.043,0.13-0.118,0.21-0.221l0.022-0.031l0.047-0.077c0.143-0.005,0.459,0.035,0.526,0.484
						C0.419,10.017,0.07,10.134,0,10.152"/>
				</g>
				<g id="g3449" transform="translate(63.371902,32.530396)">
					<path id="path3451" inkscape:connector-curvature="0" fill="#EA1F29" d="M0,10.152c0.013,0.059,0.106,0.549-0.33,0.774
						c-0.307,0.155-0.564-0.007-0.69-0.121l0.013-0.083c0.019-0.153,0.014-0.295-0.011-0.375c0.034-0.029,0.168-0.129,0.315-0.196
						c0.13-0.063,0.292-0.11,0.335-0.121l0.235,0.089L0,10.152"/>
				</g>
				<g id="g3453" transform="translate(62.365402,33.100998)">
					<path id="path3455" inkscape:connector-curvature="0" fill="#1C5329" d="M0,10.152l-0.014,0.082
						c-0.035,0.165-0.113,0.188-0.113,0.188s-0.077-0.046-0.068-0.276v-0.035c0.013-0.187,0.041-0.314,0.081-0.369l0.054-0.029
						l0.046,0.061l0.002,0.002C0.013,9.857,0.018,9.998,0,10.152"/>
				</g>
				<g id="g3457" transform="translate(63.4272,32.409195)">
					<path id="path3459" inkscape:connector-curvature="0" fill="#1C5329" d="M0,10.152c0.11,0.06,0.232,0.135,0.226,0.145
						c-0.005,0.008-0.139,0.003-0.281-0.024l-0.134-0.033l-0.234-0.089l-0.086-0.114l0.079-0.04c0.07,0.005,0.179,0.047,0.305,0.097
						L0,10.152"/>
				</g>
				<g id="g3461" transform="translate(63.173294,31.395203)">
					<path id="path3463" inkscape:connector-curvature="0" fill="#1C5329" d="M0,10.152c-0.08,0.103-0.151,0.178-0.21,0.221
						l-0.061,0.038l-0.061-0.005l-0.007-0.076l0.028-0.069l0.173-0.253l0.032-0.039l0.026-0.023
						c0.113-0.104,0.215-0.109,0.215-0.109s0.002,0.084-0.066,0.207l-0.048,0.077L0,10.152"/>
				</g>
				<g id="g3465" transform="translate(62.583801,32.143997)">
					<path id="path3467" inkscape:connector-curvature="0" fill="#F2BB0E" d="M0,10.152c0.04-0.15-0.085-0.313-0.277-0.365
						C-0.469,9.74-0.658,9.82-0.696,9.971c-0.04,0.151,0.086,0.314,0.277,0.363C-0.227,10.384-0.04,10.303,0,10.152"/>
				</g>
				<g id="g3469" transform="translate(71.182999,38.212402)">
					<path id="path3471" inkscape:connector-curvature="0" fill="#2B57AC" d="M0,10.152c0,0,0.41,0.577-1.026,1.156
						c-1.063,0.428-2.527,0.338-3.459,0.467c-0.78,0.109-0.867,0.285-0.823,0.48c0.093,0.431,0.822,0.147,1.277-0.097
						c0.493-0.265,1.371-0.352,2.011,0.241c0.228,0.214,0.549,0.289,0.549,0.289s-0.379,0.24-0.689,0.026
						c-0.128-0.087-0.23-0.177-0.49-0.198c-0.457-0.034-0.542,0.112-0.542,0.112s0.233-0.157,0.806,0.136
						c0.744,0.38,0.297,1.213,0.297,1.213s0.049-0.298-0.265-0.503c-0.438-0.289-0.806-0.025-0.806-0.025s0.17-0.085,0.43,0.013
						c0.326,0.126,0.433,0.295,0.323,0.516c-0.048,0.094-0.201,0.207-0.201,0.207s0.358-0.472-1.055-0.373
						c-0.714,0.05-0.962-0.67-0.962-0.67s-0.327,0.082-0.557,0.005c0.015,0.11-0.001,0.298-0.058,0.411
						c-0.075-0.373-0.36-0.611-0.49-0.77c-0.131-0.159-0.414-0.574-0.058-1.062c0.352-0.411,0.993-0.471,1.398-0.503
						c0.602-0.045,1.598-0.099,2.477-0.22c1.189-0.164,0.983-0.734,0.837-0.91c-0.15-0.183-0.434-0.192-1.261,0.096
						c-0.825,0.29-1.688,0.805-3.414,0.737c-2.38-0.092-4.073-1.833-4.944-1.739c0,0,0.046-0.209,0.027-0.351
						c-0.077-0.603-0.626-0.929-0.626-0.929l-0.077,0.118c-0.056-0.008-0.004-0.132-0.199-0.277
						c-0.187-0.14-0.283-0.295-0.351-0.575c0,0-0.097,0.193-0.155,0.021c-0.076-0.223-0.193-0.231-0.254-0.257l-0.054,0.111
						c-0.077-0.004-0.106-0.483-0.938-0.404l-0.062-0.015c-0.61-0.105-0.716,0.495-0.933,0.704c-0.141,0.136-0.313-0.11-0.313-0.11
						s-0.117,0.126-0.102,0.359c0.016,0.245,0.061,0.327-0.037,0.496c-0.075,0.127-0.393,0.397-0.274,0.856
						c-0.145,0.003-0.435,0.109-0.553,0.962l0.102-0.012c-0.021,0.13-0.135,0.178-0.158,0.328c-0.032,0.22-0.06,0.646,0.06,0.796
						c0.184,0.23,0.692,0.308,0.45,0.757l-0.079-0.125l-0.119-0.051l-0.152,0.164l0.084,0.146l0.007,0.01
						c-0.091,0.008-0.17-0.024-0.217-0.045c0.011,0.098,0.175,0.614-0.262,0.731l-0.03-0.205l-0.096-0.088l-0.199,0.1l0.032,0.168
						l0.018,0.066c-0.422-0.052-0.336-0.601-0.33-0.686c-0.011,0.124-0.267,0.472-0.514,0.315l-0.025-0.02l0.081-0.084l0.024-0.127
						l-0.188-0.118l-0.128,0.111l-0.011,0.014c-0.088-0.115-0.075-0.321,0.162-0.501c0.351-0.265,0.47-1.343,0.416-1.484
						c-0.074-0.192-0.262,0.081-0.262,0.081s-0.032-0.248,0.145-0.5c0.313-0.448,0.407-0.645,0.173-0.57l-0.146,0.093
						c0,0,0.014-0.223,0.299-0.456c0.113-0.092,0.097-0.144,0.015-0.135c-0.094,0.013-0.165,0.072-0.165,0.072
						s0.078-0.204,0.222-0.398c0.242-0.324,0.461-0.459,0.461-0.459s-0.272,0.025-0.665,0.251c-0.586,0.341-0.339,0.58-0.515,0.985
						c-0.166,0.387-0.275,0.45-0.449,0.473h-0.016l0.023-0.085l-0.034-0.126l-0.221-0.022l-0.063,0.158
						c-0.165-0.084-0.16-0.26-0.145-0.342c-0.113,0.124-0.327,0.296-0.475,0.321c-0.09,0.017-0.198-0.008-0.298-0.059l-0.015-0.004
						l0.031-0.022l0.061-0.114l-0.148-0.167l-0.154,0.071l-0.021,0.015c-0.103-0.185-0.071-0.534,0.534-0.731
						c0,0-0.292-0.044-0.384-0.257l0.202-0.032l0.087-0.098l-0.104-0.196l-0.167,0.03l-0.027,0.011
						c0.069-0.305,0.316-0.349,0.524-0.349c0.903,0.012,1.605-0.423,1.605-0.423s-0.197-0.011-0.305-0.151
						c-0.112-0.146-0.086-0.23-0.086-0.23s0.079,0.074,0.306,0.113c0.239,0.041,0.286-0.045,0.286-0.045s-0.348-0.128-0.213-0.491
						c0,0,0.14,0.154,0.357,0.231c0.18,0.06,0.388,0.048,0.471-0.069c0.113-0.164-0.37-0.324-0.37-0.324
						c0.337-0.201,1.073-0.104,1.073-0.104s-0.515-0.092-0.511-0.428c0,0,0.32,0.245,0.948,0c0.951-0.368,2.116-0.545,3.64,0.073
						c1.92,0.78,1.972,2.438,4.643,3.321c0.087-0.129,0.688-0.692,1.441-0.97c0.605-0.227,1.459-0.378,1.72-0.439
						c0.376-0.092,1.042-0.234,0.643-0.96c-0.19-0.338-0.364-0.44-0.526-0.563C-3.274,6.042-3.472,6.098-3.757,6.2
						c-0.167,0.062-0.289,0.025-0.342-0.09l0.127-0.022l0.081-0.085l-0.086-0.182l-0.149,0.024l-0.012,0.003
						c0.02-0.204,0.191-0.226,0.191-0.226s-0.197-0.074-0.195-0.259l0.103,0.027l0.112-0.034l0.009-0.201l-0.145-0.05l0.017-0.012
						c0.117-0.147,0.457-0.037,0.457-0.037S-3.668,4.88-3.561,4.755l0.072,0.135l0.107,0.048l0.143-0.14L-3.31,4.662L-3.328,4.64
						l0.059-0.006c0.165,0.024,0.4,0.175,0.51,0.532c0.135,0.409,0.268,0.498,0.268,0.498s0.346,0.326,0.214-0.255
						c0.342,0.09,0.3,0.465,0.3,0.465l0.358-0.06c0.115,0.091,0.003,0.362,0.135,0.553c0.147,0.211,0.231-0.034,0.177-0.205
						c0,0,0.21,0.065,0.22,0.337c0.011,0.175-0.06,0.38,0.106,0.531c0.124,0.105,0.155-0.047,0.119-0.19
						c0,0,0.163-0.007,0.191,0.278c0.016,0.172-0.025,0.225,0.026,0.248l0.106-0.14c0,0,0.145,0.326-0.154,0.522
						c-0.502,0.327-1.778,0.103-2.54,1.304C-3.51,9.493-3.305,9.695-3.305,9.695s1.358-0.64,2.089-0.535
						c0.886,0.127,0.89,0.602,0.89,0.602s0.145-0.027,0.019-0.315c0,0,0.161,0.035,0.228,0.257c0.127,0.426-0.141,0.69-0.141,0.69
						C-0.005,10.409,0,10.152,0,10.152"/>
				</g>
				<g id="g3473" transform="translate(52.488296,35.863098)">
					<path id="path3475" inkscape:connector-curvature="0" fill="#EA1F29" d="M0,10.152l0.104,0.196l-0.088,0.098l-0.202,0.032
						l-0.025-0.001c-0.274-0.036-0.35-0.238-0.392-0.346c0,0,0.17,0.143,0.408,0.062l0.027-0.011L0,10.152"/>
				</g>
				<g id="g3477" transform="translate(52.328003,37.091003)">
					<path id="path3479" inkscape:connector-curvature="0" fill="#EA1F29" d="M0,10.152l0.149,0.168l-0.063,0.113l-0.03,0.022
						l-0.183,0.062c-0.274,0.033-0.395-0.145-0.462-0.238c0,0,0.2,0.098,0.414-0.041l0.02-0.015L0,10.152"/>
				</g>
				<g id="g3481" transform="translate(53.380096,37.320908)">
					<path id="path3483" inkscape:connector-curvature="0" fill="#EA1F29" d="M0,10.152l0.221,0.022L0.255,10.3l-0.023,0.084
						l-0.076,0.122c-0.177,0.212-0.386,0.165-0.502,0.139c0,0,0.232-0.067,0.283-0.336L0,10.152"/>
				</g>
				<g id="g3485" transform="translate(55.690506,39.812897)">
					<path id="path3487" inkscape:connector-curvature="0" fill="#EA1F29" d="M0,10.152l0.152-0.163l0.12,0.05l0.079,0.125
						l0.025,0.081c0.058,0.269-0.107,0.407-0.198,0.481c0,0,0.086-0.215-0.087-0.418l-0.006-0.009L0,10.152"/>
				</g>
				<g id="g3489" transform="translate(54.977905,40.462494)">
					<path id="path3491" inkscape:connector-curvature="0" fill="#EA1F29" d="M0,10.152l0.199-0.1l0.096,0.088l0.031,0.205
						l-0.003,0.02c-0.035,0.274-0.238,0.35-0.345,0.389c0,0,0.128-0.15,0.073-0.368L0.032,10.32L0,10.152"/>
				</g>
				<g id="g3493" transform="translate(54.076004,39.975601)">
					<path id="path3495" inkscape:connector-curvature="0" fill="#EA1F29" d="M0,10.152l0.189,0.119l-0.026,0.126l-0.08,0.085
						l-0.101,0.059c-0.253,0.107-0.42-0.029-0.512-0.1c0,0,0.227,0.041,0.391-0.163l0.011-0.014L0,10.152"/>
				</g>
				<g id="g3497" transform="translate(67.204895,33.881805)">
					<path id="path3499" inkscape:connector-curvature="0" fill="#EA1F29" d="M0,10.152l0.087,0.182l-0.081,0.084l-0.126,0.023
						l-0.08-0.005c-0.244-0.039-0.306-0.222-0.339-0.321c0,0,0.154,0.139,0.379,0.063l0.012-0.003L0,10.152"/>
				</g>
				<g id="g3501" transform="translate(67.2556,33.415695)">
					<path id="path3503" inkscape:connector-curvature="0" fill="#EA1F29" d="M0,10.152l-0.112,0.035l-0.102-0.028l-0.087-0.051
						c-0.197-0.15-0.166-0.339-0.147-0.444c0,0,0.07,0.205,0.312,0.237h0.001l0.144,0.051L0,10.152"/>
				</g>
				<g id="g3505" transform="translate(67.943497,32.857803)">
					<path id="path3507" inkscape:connector-curvature="0" fill="#EA1F29" d="M0,10.152l-0.142,0.14l-0.107-0.047l-0.072-0.136
						l-0.014-0.053C-0.377,9.814-0.224,9.694-0.14,9.629c0,0-0.079,0.183,0.051,0.366l0.019,0.022L0,10.152"/>
				</g>
				<g id="g3509" transform="translate(67.287293,35.475906)">
					<path id="path3511" inkscape:connector-curvature="0" fill="#2B57AC" d="M0,10.152c-1.548,0.295-1.869,0.49-2.498,1.096
						c-0.064-0.031-0.309-0.468,0.35-1.096c0.258-0.247,0.511-0.321,0.511-0.321s-0.454,0.08-1.038,0.024
						c-0.273,0.076-0.472,0.424-0.837,0.565c-0.12,0.046-0.222,0.046-0.302,0.006l0.107-0.069l0.044-0.11l-0.145-0.134l-0.132,0.075
						l-0.033,0.029c-0.021-0.099,0.01-0.217,0.131-0.34c-0.166,0.006-0.329-0.082-0.37-0.274l0.156,0.032l0.104-0.051l-0.018-0.2
						l-0.148-0.028l-0.078-0.009l0.01-0.021c0.115-0.343,0.639-0.09,0.639-0.09s-0.267-0.195-0.121-0.43l0.06,0.094l0.106,0.049
						l0.143-0.141l-0.072-0.134l-0.033-0.048c0.366-0.141,0.661,0.414,0.661,0.431c-0.013-0.402,0.304-0.494,0.304-0.494
						s-0.044,0.174,0.12,0.286c0.186,0.125,0.465,0.092,0.489,0.094C-1.941,8.74-1.865,8.647-1.753,8.612
						c0.028,0.428,0.827,0.442,0.827,0.442c0.046-0.166,0.227-0.223,0.227-0.223s-0.008,0.232,0.161,0.36
						c0.173,0.134,0.46,0.14,0.763,0.309C0.583,9.698,0.509,10.083,0,10.152"/>
				</g>
				<g id="g3513" transform="translate(63.928299,34.132401)">
					<path id="path3515" inkscape:connector-curvature="0" fill="#EA1F29" d="M0,10.152l-0.144,0.141l-0.105-0.05l-0.06-0.093
						l-0.026-0.094c-0.043-0.244,0.11-0.363,0.192-0.427c0,0-0.071,0.166,0.038,0.341l0.033,0.047L0,10.152"/>
				</g>
				<g id="g3517" transform="translate(63.317306,34.708603)">
					<path id="path3519" inkscape:connector-curvature="0" fill="#EA1F29" d="M0,10.152l0.018,0.2l-0.104,0.051l-0.156-0.032
						l-0.044-0.022c-0.215-0.122-0.211-0.315-0.209-0.419c0,0,0.08,0.151,0.269,0.184l0.078,0.009L0,10.152"/>
				</g>
				<g id="g3521" transform="translate(63.478897,35.436401)">
					<path id="path3523" inkscape:connector-curvature="0" fill="#EA1F29" d="M0,10.152l0.146,0.135l-0.044,0.109l-0.107,0.069
						l-0.076,0.025c-0.242,0.052-0.367-0.096-0.436-0.175c0,0,0.178,0.069,0.353-0.059l0.033-0.029L0,10.152"/>
				</g>
				<g id="g3525" transform="translate(59.588593,38.476898)">
					<path id="path3527" inkscape:connector-curvature="0" fill="#2B57AC" d="M0,10.152l-0.009-0.021
						c-0.013-0.035-0.138-0.311-0.416-0.34l-0.017-0.003c-0.178-0.015-0.35,0.106-0.35,0.106s-0.028,0.01-0.052-0.201
						c-0.017-0.171-0.122-0.175-0.122-0.175s-0.026,0.251,0.033,0.433c0.076,0.23,0.289,0.223,0.289,0.223h0.004l-0.031-0.111
						c0.009-0.097,0.096-0.17,0.195-0.165c0.1,0.009,0.174,0.096,0.165,0.196l-0.026,0.077h0.323l0.022,0.003L0,10.152z
						 M-0.989,8.477C-1.206,8.292-1.168,8.01-1.214,7.815c-0.059-0.235-0.272-0.35-0.508-0.301c-0.204,0.033-0.397,0.155-0.413,0.37
						c-0.018,0.247,0.389,0.57,0.129,0.877c-0.212,0.254-0.199,0.372-0.199,0.372s0.055-0.08,0.194-0.152
						c0.05-0.024,0.465-0.218,0.547,0.101l-0.093,0.165l-0.097,0.07l-0.012,0.16c0,0,0.114-0.15,0.316-0.184
						c0.207-0.033,0.384,0.059,0.384,0.059s0.046-0.144-0.12-0.166c-0.089-0.012-0.221-0.018-0.238-0.13
						C-1.376,8.685-0.84,8.766-0.679,8.79c0.129,0.023,0.191,0.04,0.191,0.04C-0.597,8.674-0.792,8.646-0.989,8.477 M-2.258,10.565
						v0.024v0.022l0.019-0.012l0.297-0.123l-0.055-0.061c-0.044-0.09-0.01-0.198,0.08-0.244l0.242,0.078l0.014,0.113h0.002
						c0,0,0.202-0.076,0.183-0.318c-0.015-0.19-0.135-0.412-0.135-0.412S-1.709,9.676-1.658,9.84
						c0.06,0.205,0.029,0.206,0.029,0.206S-1.833,10-1.991,10.082l-0.016,0.01c-0.235,0.156-0.244,0.457-0.242,0.494 M1.029,10.179
						c0.067,0.558-0.32,0.518-0.32,0.518s0.152,0.11,0.206,0.309c0.09,0.344-0.112,0.797-0.112,0.797s-0.212-0.375-0.462-0.11
						c0,0,0.141,0.15,0.116,0.485c-0.027-0.095-0.805-0.685-1.026,0.371c-0.44-0.097-0.401-0.526-0.673-0.492
						c-0.145,0.016-0.29,0.132-0.18,0.408c0,0-0.398-0.02-0.456-0.434c-0.073-0.512-0.323,0.172-0.662,0.147
						c-0.004,0-0.252-0.27-0.237-0.842c-0.307-0.012-0.445-0.253-0.475-0.636C-3.336,9.61-3.624,9.97-3.62,9.949
						c0.095-0.67,0.471-0.316,0.471-0.316c-0.065-0.466-0.486-0.211-0.486-0.211c0.123-0.714,0.422-0.479,0.422-0.479
						c-0.136-0.596,0.09-0.75,0.172-0.866c0.103-0.145,0.151-0.204,0.113-0.46c-0.035-0.23-0.02-0.312-0.02-0.312
						s0.179,0.182,0.309,0.046c0.2-0.21,0.319-0.844,0.774-0.764c0,0-0.055,0.277,0.044,0.277l0.125-0.243
						c0.123-0.015,0.469-0.066,0.659,0.178c0.114,0.147,0.143,0.354,0.262,0.345c0.09-0.008,0.1-0.179,0.1-0.179
						c0.081,0.049,0.097,0.094,0.134,0.293c0.045,0.246,0.169-0.015,0.169-0.015c0.032,0.176,0.125,0.341,0.296,0.452
						c0.215,0.136,0.153,0.511,0.279,0.602c0.138,0.101,0.171-0.299,0.171-0.299s0.467,0.36,0.304,0.981
						C0.605,9.257,0.526,9.492,0.615,9.516C0.7,9.536,0.683,9.268,0.868,9.16c0.129-0.077,0.33,0.033,0.33,0.033
						C0.96,9.456,0.997,9.906,1.029,10.179"/>
				</g>
				<g id="g3529" transform="translate(57.820206,35.971497)">
					<path id="path3531" inkscape:connector-curvature="0" fill="#EA1F29" d="M0,10.152c0.46-0.119,0.467,0.359,0.473,0.45
						c0.031,0.487,0.366,0.527,0.423,0.58c-0.156-0.03-0.472-0.02-0.573,0.164c-0.108-0.06-0.29-0.091-0.5,0.001l0.118-0.199
						c0.043-0.12,0.005-0.263-0.043-0.376C-0.147,10.663-0.419,10.26,0,10.152"/>
				</g>
				<g id="g3533" transform="translate(69.979095,44.108704)">
					<path id="path3535" inkscape:connector-curvature="0" fill="#2B57AC" d="M0,10.152c-3.714,0.124-4.652,1.181-4.652,1.181
						s-0.425-0.705,1.279-1.45c0,0-0.577,0.095-0.897,0.108c-0.38,0.02-0.783-0.054-0.783-0.054s-0.429,0.391-0.73,0.501
						c-0.098,0.034-0.258,0.08-0.399-0.005l0.117-0.07l0.054-0.116l-0.156-0.155l-0.147,0.079l-0.049,0.037
						c-0.076-0.205,0.059-0.344,0.15-0.4c-0.431-0.093-0.558-0.202-0.562-0.422l0.138,0.035l0.121-0.045l-0.002-0.22l-0.16-0.046
						l-0.035-0.006c0.09-0.155,0.284-0.235,0.556-0.143C-6.032,9.003-6,9.024-6,9.024S-6.236,8.756-6.136,8.5l0.083,0.09
						l0.123,0.031l0.126-0.182L-5.909,8.31l-0.034-0.031l0.111-0.038c0.238-0.068,0.436,0.133,0.598,0.331
						c0.326,0.395,0.647,0.275,0.647,0.275C-4.806,8.63-4.603,8.368-4.603,8.368s0.179,0.42,0.473,0.302
						c-0.058-0.256,0.197-0.4,0.197-0.4s0.153,0.411,0.351,0.411c0.262,0,0.129-0.396,0.129-0.396s0.142,0.017,0.367,0.242
						c0.148,0.147,0.274,0.309,0.578,0.286c-0.009-0.047,0.039-0.333,0.304-0.46c-0.006,0.982,1.38,1.114,1.609,1.159
						C0.069,9.642,0,10.152,0,10.152"/>
				</g>
				<g id="g3537" transform="translate(63.812103,44.048996)">
					<path id="path3539" inkscape:connector-curvature="0" fill="#EA1F29" d="M0,10.152l0.155,0.155l-0.052,0.116l-0.118,0.07
						l-0.087,0.027c-0.267,0.048-0.399-0.12-0.472-0.211c0,0,0.188,0.079,0.378-0.041l0.049-0.037L0,10.152"/>
				</g>
				<g id="g3541" transform="translate(63.461502,43.113098)">
					<path id="path3543" inkscape:connector-curvature="0" fill="#EA1F29" d="M0,10.152l0.001,0.22l-0.12,0.045l-0.138-0.035
						l-0.073-0.041c-0.225-0.153-0.202-0.363-0.189-0.478c0,0,0.082,0.199,0.323,0.236l0.037,0.006L0,10.152"/>
				</g>
				<g id="g3545" transform="translate(64.175003,42.395401)">
					<path id="path3547" inkscape:connector-curvature="0" fill="#EA1F29" d="M0,10.152l-0.125,0.183l-0.125-0.033l-0.082-0.089
						l-0.049-0.093C-0.476,9.866-0.335,9.704-0.26,9.621c0,0-0.046,0.205,0.12,0.372l0.035,0.03L0,10.152"/>
				</g>
				<g id="g3549" transform="translate(57.059006,45.380402)">
					<path id="path3551" inkscape:connector-curvature="0" fill="#EA1F29" d="M0,10.152c0.512-0.178,0.565,0.365,0.581,0.468
						c0.078,0.551,0.464,0.565,0.534,0.621c-0.181-0.021-0.541,0.02-0.639,0.239c-0.127-0.057-0.335-0.078-0.568,0.044l0.117-0.234
						c0.039-0.142-0.019-0.3-0.082-0.426C-0.12,10.748-0.465,10.314,0,10.152"/>
				</g>
				<g id="g3553" transform="translate(59.2995,48.066193)">
					<path id="path3555" inkscape:connector-curvature="0" fill="#2B57AC" d="M0,10.152l-0.012-0.021
						c-0.018-0.038-0.184-0.34-0.503-0.35L-0.536,9.78c-0.202,0-0.389,0.151-0.389,0.151s-0.03,0.015-0.076-0.223
						C-1.036,9.515-1.157,9.52-1.157,9.52s-0.007,0.287,0.077,0.49c0.107,0.255,0.352,0.227,0.352,0.227h0.004l-0.046-0.122
						c0-0.114,0.094-0.205,0.205-0.205c0.116,0,0.208,0.091,0.208,0.205l-0.025,0.09l0.369-0.027h0.026L0,10.152z M-1.278,8.339
						c-0.264-0.193-0.246-0.515-0.317-0.732C-1.683,7.345-1.934,7.235-2.198,7.31c-0.23,0.056-0.438,0.213-0.437,0.459
						C-2.633,8.05-2.14,8.383-2.407,8.756c-0.22,0.306-0.195,0.44-0.195,0.44s0.058-0.095,0.21-0.191
						c0.054-0.031,0.508-0.292,0.628,0.064c0.032,0.091-0.032,0.149-0.091,0.198l-0.101,0.088l0.001,0.182
						c0,0,0.117-0.18,0.341-0.236c0.234-0.058,0.443,0.03,0.443,0.03s0.041-0.168-0.15-0.178c-0.105-0.004-0.256,0-0.285-0.123
						c-0.092-0.42,0.524-0.375,0.71-0.362c0.15,0.012,0.22,0.027,0.22,0.027C-0.815,8.526-1.04,8.512-1.278,8.339 M-2.531,10.829
						l0.001,0.026l0.004,0.027l0.021-0.013l0.328-0.169l-0.068-0.066c-0.06-0.096-0.03-0.224,0.068-0.285
						c0.095-0.058,0.222-0.029,0.282,0.067l0.026,0.129l0.003-0.001c0,0,0.223-0.107,0.176-0.38
						C-1.722,9.95-1.881,9.708-1.881,9.708s-0.104,0.059-0.032,0.24c0.086,0.226,0.051,0.232,0.051,0.232s-0.235-0.031-0.408,0.076
						l-0.018,0.012C-2.553,10.443-2.535,10.788-2.531,10.829 M1.217,10.821c0.156,0.379-0.034,1.07-0.034,1.07
						S0.873,11.4,0.61,11.664c-0.242,0.243,0.016,0.632,0.016,0.632c-0.299,0.097-0.549-0.312-0.92-0.109
						c-0.259,0.141,0.045,0.609,0.045,0.609s-0.337,0.011-0.605-0.12c-0.261-0.127-0.378-0.232-0.559-0.227
						c-0.248,0.009-0.16,0.417-0.16,0.417s-0.295,0.008-0.47-0.296c-0.174-0.3-0.366-0.379-0.366-0.379
						c-0.08,0.13-0.256,0.131-0.391,0.169c-0.149,0.043-0.252,0.113-0.252,0.113s-0.274-0.529-0.149-0.967
						c-0.207-0.056-0.264-0.287-0.297-0.402c-0.24-0.873-0.6-0.483-0.597-0.511c0.069-0.77,0.514-0.746,0.475-0.925
						c-0.054-0.242-0.466,0.089-0.466,0.089c0.01-0.542,0.253-0.577,0.353-0.9c0.085-0.28-0.091-0.468,0.052-0.898
						c0.146-0.445,0.039-0.608,0.039-0.608c0.303-0.007,0.498,0.212,0.498,0.212c-0.059-0.57,0.208-0.84,0.208-0.84
						s0.169,0.348,0.239,0.116c0.191-0.619,0.502-0.84,0.502-0.84s0.28,0.01,0.777,0.533c0.346,0.365,0.191-0.106,0.191-0.106
						s0.242-0.022,0.744,0.899c0.162,0.299,0.432,0.471,0.528-0.012C0.62,7.933,0.42,8.602,0.42,8.837
						c0,0.209,0.102,0.233,0.111,0.138C0.59,8.404,1.189,8.598,1.189,8.598S0.945,8.846,1.196,9.719
						c0.124,0.436-0.118,0.858-0.118,0.858L1.217,10.821"/>
				</g>
				<g id="g3557" transform="translate(74.374695,44.516098)">
					<path id="path3559" inkscape:connector-curvature="0" fill="#2B57AC" d="M0,10.152c0,0,0.034,0.529-0.351,0.667
						c-0.502,0.183-1.152-0.054-2.442,0.066c-3.135,0.294-2.749,1.425-2.749,1.425s1.971-0.874,2.805-0.466
						c0.46,0.226,0.429,0.624,0.429,0.624c0.129-0.151-0.011-0.451-0.011-0.451s0.809,0.594-0.152,1.521
						c-0.349,0.334-0.987,0.582-1.465,0.644c-1.379,0.179-1.906,0.105-2.878,0.239c-0.813,0.114-0.997,0.401-0.955,0.629
						c0.124,0.673,1.641-0.284,2.473,0.086c0.222,0.101,0.406,0.253,0.599,0.302c0.202,0.046,0.404-0.017,0.404-0.017
						s-0.196,0.354-0.839,0.218c-0.529-0.112-0.569,0.066-0.569,0.066s0.248-0.021,0.569,0.167c0.206,0.119,0.263,0.382,0.488,0.48
						c0.277,0.119,0.556,0.007,0.556,0.007s-0.361,0.615-1.057,0.255c-0.474-0.308-0.645-0.081-0.645-0.081l0.569,0.403
						c0.175,0.352,0.4,0.407,0.4,0.407s-0.356,0.17-0.657-0.125c-0.195-0.19-0.479-0.246-0.966-0.238
						c-0.617,0.008-0.865-0.726-0.865-0.726s-0.245-0.015-0.456-0.123c-0.186-0.093-0.399-0.301-0.399-0.301l0.079,0.238
						c0,0-0.459-0.227-0.471-0.931c-0.022-1.186,1.266-1.283,1.688-1.316c0.627-0.049,1.822-0.08,2.738-0.206
						c1.24-0.171,1.274-0.742,1.11-1.008c-0.18-0.297-0.692-0.145-1.552,0.157c-0.861,0.301-1.589,0.802-3.332,0.746
						c-2.75-0.088-5.66-2.048-6.502-1.547c0.042-0.319-0.033-0.976-0.756-1.561c-0.027,0.49-0.177,0.425-0.343,0.13
						c-0.46-0.829-0.94-0.912-0.94-0.912s0.088,0.282-0.221,0.011c-0.313-0.277-0.672-0.321-0.672-0.321s-0.439,0.315-0.542,0.808
						l-0.089-0.155c-0.367,0.177-0.452,0.76-0.452,0.76s-0.176-0.114-0.578-0.048c0,0,0.226,0.247-0.029,0.894
						c-0.504,0-2.498,0.347-2.748,1.377c-0.092,0.384-0.207,0.568-0.449,0.584l0.051-0.073l0.009-0.138l-0.215-0.098l-0.118,0.136
						l-0.038,0.056c-0.196-0.154-0.135-0.474-0.135-0.474c-0.224,0.187-0.685,0.501-0.956,0.308l0.13-0.079l0.062-0.136
						c0-0.099-0.081-0.178-0.181-0.176l-0.168,0.09L-23.862,13c-0.238-0.387,0.536-0.806,0.536-0.806
						c-0.293,0.017-0.712-0.215-0.703-0.48l0.133,0.043l0.129-0.04l0.016-0.234l-0.166-0.066l-0.031-0.004
						c0.076-0.161,0.212-0.265,0.592-0.161c0.915,0.26,1.539,0.093,1.539,0.093s-0.028-0.305-0.444-0.224
						c-0.02,0.003,0.162-0.238,0.535-0.238c0.491,0,0.751,0.196,0.761,0.2c0,0,0.024-0.115-0.116-0.185
						c-0.296-0.151-0.104-0.475-0.104-0.475c0.161,0.361,0.456,0.221,0.456,0.221c-0.052-0.072-0.121-0.283,0.054-0.443
						c0,0,0.019,0.208,0.346,0.291c0.225,0.057,0.419-0.024,0.419-0.024s-0.19-0.267,0.038-0.57c0,0,0.096,0.436,0.398,0.307
						c0.126-0.053,0.11-0.192,0.074-0.249l-0.195-0.111c0.471-0.225,0.59,0.146,0.954-0.191c-0.467-0.212-1.051-0.256-1.59-0.227
						c-1.133,0.098-1.369,0.32-1.635,0.564c-0.363,0.348-0.651,0.384-0.824,0.331l0.059-0.042l0.061-0.135
						c0-0.1-0.079-0.178-0.177-0.178l-0.171,0.092l-0.041,0.029c-0.1-0.173,0.085-0.327,0.14-0.403l-0.21,0.041
						c-0.24,0.052-0.442-0.035-0.501-0.215l0.191-0.013l0.113-0.095l-0.085-0.237l-0.191,0.01l-0.067,0.011
						c0.071-0.307,0.426-0.345,0.696-0.356c-0.13-0.079-0.267-0.195-0.238-0.378l0.13,0.079l0.129-0.009l0.064-0.215l-0.144-0.092
						l-0.045-0.021c0.219-0.235,0.757,0.072,0.906,0.158c0.429,0.242,0.799,0.201,1.011,0.095c0.401-0.198-0.14-0.363-0.14-0.363
						c0.133-0.107,0.346-0.057,0.477,0c0.121,0.054,0.236,0.145,0.294,0.063c0.032-0.051,0.015-0.142-0.076-0.223l-0.172-0.081
						c0.5-0.192,0.964,0.268,0.964,0.268s0.038-0.063-0.007-0.182c-0.075-0.195-0.261-0.265-0.261-0.265
						c0.542-0.164,0.819,0.481,0.819,0.481s0.258-0.198-0.061-0.481c0.445-0.013,0.502,0.351,0.722,0.211
						c0.128-0.083,0.06-0.265-0.126-0.302c0.514-0.175,0.47,0.283,1.067,0.183c0.871-0.151,1.874-0.279,3.406,0.314
						c2.353,0.902,2.594,2.976,5.171,3.264c0,0,0.217-0.452,1.982-0.928c1.869-0.503,4.743-0.116,4.614-1.005
						C-2.453,8.949-3.732,9.6-3.894,9.149L-3.9,9.125l0.144,0.003l0.106-0.071l-0.052-0.215l-0.167-0.009l-0.02,0.003
						c0.052-0.098,0.154-0.151,0.262-0.171C-3.782,8.584-3.872,8.523-3.883,8.32l0.001-0.058l0.092,0.051l0.128-0.008l0.066-0.209
						l-0.139-0.094l-0.019-0.008c0.096-0.091,0.23-0.132,0.354-0.091c0.138,0.046,0.2,0.094,0.227,0.123
						C-3.216,7.954-3.301,7.785-3.258,7.65l0.071-0.12l0.055,0.143l0.11,0.069l0.175-0.133l-0.058-0.156l-0.013-0.022
						c0.329-0.012,0.62,0.426,0.677,0.807c0.073,0.486,0.225,0.413,0.225,0.413l0.091-0.186l0.195-0.093
						c-0.014,0.33,0.231,0.432,0.337,0.34C-1.289,8.62-1.375,8.42-1.375,8.42s0.167-0.058,0.365,0.278
						c0.111,0.178,0.102,0.408,0.233,0.422C-0.599,9.126-0.67,8.904-0.67,8.904c0.413,0.222,0.155,0.881,0.316,0.956
						c0.127,0.033,0.077-0.207,0.077-0.207s0.26,0.14,0.185,0.424C-0.205,10.496,0,10.152,0,10.152"/>
				</g>
				<g id="g3561" transform="translate(50.623795,45.847198)">
					<path id="path3563" inkscape:connector-curvature="0" fill="#EA1F29" d="M0,10.152l-0.016,0.233l-0.13,0.041l-0.132-0.043
						l-0.091-0.055c-0.226-0.181-0.184-0.404-0.162-0.525c0,0,0.073,0.222,0.333,0.278l0.032,0.006L0,10.152"/>
				</g>
				<g id="g3565" transform="translate(50.759399,47.220093)">
					<path id="path3567" inkscape:connector-curvature="0" fill="#EA1F29" d="M0,10.152c0.1-0.001,0.18,0.077,0.18,0.176
						l-0.061,0.136l-0.13,0.079l-0.105,0.031c-0.308,0.056-0.459-0.135-0.541-0.239c0,0,0.198,0.084,0.411-0.039l0.077-0.054
						L0,10.152"/>
				</g>
				<g id="g3569" transform="translate(51.994705,47.585602)">
					<path id="path3571" inkscape:connector-curvature="0" fill="#EA1F29" d="M0,10.152l0.215,0.098l-0.009,0.137l-0.051,0.074
						l-0.119,0.1c-0.252,0.15-0.446,0.031-0.552-0.032c0,0,0.215,0.008,0.36-0.186l0.038-0.055L0,10.152"/>
				</g>
				<g id="g3573" transform="translate(51.5867,42.671905)">
					<path id="path3575" inkscape:connector-curvature="0" fill="#EA1F29" d="M0,10.152l-0.065,0.215l-0.128,0.009l-0.13-0.079
						l-0.053-0.056c-0.176-0.216-0.091-0.413-0.045-0.519c0,0,0.021,0.207,0.232,0.317l0.045,0.021L0,10.152"/>
				</g>
				<g id="g3577" transform="translate(51.627304,44.330597)">
					<path id="path3579" inkscape:connector-curvature="0" fill="#EA1F29" d="M0,10.152c0.098,0,0.177,0.078,0.177,0.179
						l-0.06,0.134l-0.06,0.043l-0.176,0.067c-0.307,0.056-0.459-0.136-0.54-0.239c0,0,0.224,0.093,0.447-0.062l0.041-0.03L0,10.152"
						/>
				</g>
				<g id="g3581" transform="translate(51.063507,43.529999)">
					<path id="path3583" inkscape:connector-curvature="0" fill="#EA1F29" d="M0,10.152c0.089,0.043,0.128,0.148,0.085,0.238
						l-0.113,0.095l-0.191,0.012l-0.069-0.012c-0.302-0.082-0.356-0.319-0.384-0.45c0,0,0.154,0.174,0.414,0.139l0.066-0.012
						L0,10.152"/>
				</g>
				<g id="g3585" transform="translate(70.673096,43.206802)">
					<path id="path3587" inkscape:connector-curvature="0" fill="#EA1F29" d="M0,10.152l0.051,0.213l-0.106,0.072l-0.143-0.003
						l-0.082-0.021c-0.254-0.1-0.278-0.311-0.29-0.425c0,0,0.13,0.183,0.382,0.157l0.02-0.002L0,10.152"/>
				</g>
				<g id="g3589" transform="translate(70.778198,42.459595)">
					<path id="path3591" inkscape:connector-curvature="0" fill="#EA1F29" d="M0,10.152l-0.065,0.21l-0.128,0.008l-0.093-0.051
						l-0.088-0.086c-0.169-0.215-0.081-0.409-0.034-0.513c0,0,0.019,0.226,0.251,0.33l0.018,0.009L0,10.152"/>
				</g>
				<g id="g3593" transform="translate(71.527603,41.973694)">
					<path id="path3595" inkscape:connector-curvature="0" fill="#EA1F29" d="M0,10.152l-0.175,0.133l-0.109-0.069l-0.056-0.143
						L-0.349,10c-0.013-0.271,0.171-0.379,0.268-0.436c0,0-0.113,0.189,0.011,0.409l0.012,0.023L0,10.152"/>
				</g>
				<g id="g3597" transform="translate(50.654007,56.766602)">
					<path id="path3599" inkscape:connector-curvature="0" fill="#EA1F29" d="M0,10.152c0.095-0.023,0.193,0.037,0.217,0.131
						l-0.028,0.145l-0.04,0.05l-0.165,0.112c-0.285,0.128-0.478-0.024-0.581-0.105c0,0,0.269,0.044,0.454-0.205l0.006-0.009
						L0,10.152"/>
				</g>
				<g id="g3601" transform="translate(69.760193,53.281296)">
					<path id="path3603" inkscape:connector-curvature="0" fill="#2B57AC" d="M0,10.152c-3.237,0.096-4.307,1.27-4.307,1.27
						s-0.546-0.831,0.797-1.375c0,0-0.25,0.07-0.569,0.096c-0.378,0.032-0.543,0.035-0.543,0.035s-0.285,0.433-0.787,0.518
						c-0.137,0.023-0.273,0.03-0.391,0.013l0.023-0.021l0.044-0.119l-0.169-0.142l-0.139,0.089l-0.062,0.051L-6.12,10.55
						c-0.081-0.096-0.117-0.232-0.046-0.392c-0.461-0.062-0.612-0.207-0.649-0.395l0.226,0.016l0.103-0.075L-6.547,9.49h-0.167
						l-0.101,0.008c0.045-0.244,0.337-0.419,0.801-0.225C-5.9,9.32-6.299,9.133-6.142,8.725l0.035,0.078l0.105,0.074l0.182-0.128
						l-0.053-0.156l-0.045-0.116l0.001-0.001C-5.523,8.304-5.109,8.778-5.058,9c0,0,0.039-0.285,0.211-0.406
						c0.003-0.001,0.025,0.121,0.118,0.22C-4.558,9-4.576,8.778-4.576,8.778c-0.001-0.34,0.215-0.396,0.215-0.396
						s-0.033,0.391,0.27,0.454c0.123-0.42,0.585,0.222,0.538,0.029C-3.658,8.44-3.47,8.311-3.47,8.311s0.039,0.51,1.06,0.568
						c-0.011-0.049,0.026-0.335,0.287-0.47c0.072,0.983,1.466,0.992,1.696,1.03C0.24,9.546,0,10.152,0,10.152"/>
				</g>
				<g id="g3605" transform="translate(63.858093,53.555496)">
					<path id="path3607" inkscape:connector-curvature="0" fill="#EA1F29" d="M0,10.152l0.169,0.143l-0.044,0.12l-0.023,0.02
						l-0.174,0.092c-0.263,0.07-0.408-0.086-0.485-0.171c0,0,0.18,0.06,0.356-0.064l0.062-0.05L0,10.152"/>
				</g>
				<g id="g3609" transform="translate(63.046707,52.619507)">
					<path id="path3611" inkscape:connector-curvature="0" fill="#EA1F29" d="M0,10.152h0.166l0.061,0.214l-0.102,0.075
						l-0.227-0.016c-0.257-0.087-0.291-0.296-0.308-0.41c0,0,0.107,0.14,0.308,0.145L0,10.152"/>
				</g>
				<g id="g3613" transform="translate(63.940308,51.878799)">
					<path id="path3615" inkscape:connector-curvature="0" fill="#EA1F29" d="M0,10.152l-0.182,0.127l-0.105-0.074l-0.034-0.077
						l-0.025-0.142c0-0.271,0.188-0.372,0.289-0.424c0,0-0.089,0.137-0.042,0.318l0.045,0.116L0,10.152"/>
				</g>
				<g id="g3617" transform="translate(59.151398,57.290497)">
					<path id="path3619" inkscape:connector-curvature="0" fill="#2B57AC" d="M0,10.152l-0.012-0.023
						c-0.018-0.038-0.181-0.342-0.497-0.357l-0.022-0.003c-0.202-0.003-0.392,0.146-0.392,0.146S-0.952,9.93-0.995,9.689
						c-0.03-0.191-0.152-0.188-0.152-0.188S-1.16,9.789-1.077,9.99c0.101,0.258,0.346,0.233,0.346,0.233h0.002l-0.041-0.122
						c0.001-0.114,0.097-0.205,0.209-0.203c0.115,0.002,0.204,0.097,0.202,0.21l-0.023,0.09l0.369-0.022h0.024L0,10.152z
						 M-1.248,8.318c-0.263-0.197-0.238-0.52-0.306-0.736c-0.083-0.265-0.335-0.382-0.6-0.309c-0.23,0.054-0.438,0.207-0.443,0.451
						C-2.6,8.005-2.112,8.346-2.386,8.716C-2.597,9.04-2.575,9.175-2.575,9.175s0.058-0.094,0.211-0.186
						c0.058-0.033,0.515-0.284,0.63,0.073c0.03,0.09-0.035,0.149-0.092,0.196l-0.105,0.087l-0.003,0.182
						c0,0,0.121-0.179,0.345-0.231c0.235-0.053,0.441,0.039,0.441,0.039s0.044-0.169-0.147-0.183
						c-0.103-0.005-0.254-0.003-0.282-0.128c-0.085-0.42,0.532-0.366,0.718-0.348c0.147,0.014,0.216,0.03,0.216,0.03
						C-0.777,8.535-1,8.517-1.236,8.341 M-2.531,10.808l0.001,0.028l0.002,0.026l0.022-0.014l0.331-0.163l-0.068-0.067
						c-0.057-0.097-0.025-0.223,0.072-0.282c0.097-0.058,0.224-0.025,0.282,0.072l0.026,0.127h0.002c0,0,0.224-0.103,0.184-0.377
						c-0.031-0.215-0.184-0.46-0.184-0.46s-0.108,0.058-0.037,0.241c0.082,0.228,0.048,0.231,0.048,0.231s-0.237-0.034-0.411,0.07
						l-0.016,0.012C-2.547,10.424-2.536,10.769-2.531,10.808 M1.125,10.204c0.113,0.529-0.303,0.54-0.303,0.54
						S1,10.863,1.069,11.087c0.118,0.394-0.097,0.919-0.097,0.919s-0.141-0.39-0.574-0.202c0,0,0.214,0.253,0.045,0.72
						c-0.033-0.111-0.122-0.219-0.249-0.293c-0.221-0.129-0.475-0.101-0.57,0.06c-0.082,0.142-0.014,0.338,0.151,0.472
						c-0.062,0.017-0.335,0.085-0.585,0.013c-0.266-0.078-0.67-0.346-0.67-0.346s-0.275,0.215-0.138,0.528
						c0,0-0.415,0.043-0.555-0.437c-0.061-0.209-0.237-0.229-0.237-0.229s-0.032,0.334-0.333,0.427
						c-0.005,0.003-0.559-0.393-0.555-1.14c-0.203-0.062-0.286-0.298-0.306-0.418c-0.255-1.524-0.649-0.801-0.644-0.827
						C-4.163,9.566-3.64,9.676-3.64,9.676c-0.092-0.534-0.646-0.25-0.646-0.25c0.203-0.778,0.671-0.453,0.671-0.453
						c-0.332-0.571-0.081-1.01,0.097-1.449c0.187-0.406,0.181-0.749,0.181-0.749s0.223,0.118,0.344,0.117
						c0.169-0.003,0.115-0.185,0.119-0.416c0.008-0.325,0.139-0.421,0.139-0.421l0.074,0.144c0.086,0.133,0.134,0.116,0.134,0.116
						s-0.045-0.408,0.222-0.61c0,0,0.375,0.545,0.582,0.506c0.137-0.025,0.221-0.357,0.221-0.357
						c1.082,0.685,1.228,2.182,1.431,1.65c0.055-0.13,0.061-0.256,0.061-0.256s0.66,0.393,0.59,1.85c0,0,0.118-0.118,0.323-0.174
						c0.203-0.057,0.319,0.007,0.319,0.007S0.932,9.322,1.125,10.204"/>
				</g>
				<g id="g3621" transform="translate(56.953903,54.567306)">
					<path id="path3623" inkscape:connector-curvature="0" fill="#EA1F29" d="M0,10.152c0.516-0.169,0.56,0.375,0.572,0.476
						c0.07,0.553,0.456,0.574,0.525,0.631c-0.181-0.024-0.54,0.01-0.643,0.228c-0.122-0.06-0.333-0.084-0.57,0.036l0.123-0.232
						c0.041-0.143-0.014-0.302-0.077-0.428C-0.13,10.745-0.468,10.307,0,10.152"/>
				</g>
				<g id="g3625" transform="translate(50.603897,55.364197)">
					<path id="path3627" inkscape:connector-curvature="0" fill="#EA1F29" d="M0,10.152l-0.013,0.236l-0.131,0.04l-0.19-0.075
						l-0.034-0.022c-0.226-0.18-0.184-0.405-0.163-0.524c0,0,0.066,0.197,0.293,0.266l0.072,0.018L0,10.152"/>
				</g>
				<g id="g3629" transform="translate(51.966904,57.182999)">
					<path id="path3631" inkscape:connector-curvature="0" fill="#EA1F29" d="M0,10.152l0.23,0.06l0.012,0.138l-0.015,0.04
						l-0.121,0.16c-0.225,0.188-0.435,0.105-0.551,0.061c0,0,0.232-0.031,0.337-0.275l0.014-0.031L0,10.152"/>
				</g>
				<g id="g3633" transform="translate(51.588501,53.925797)">
					<path id="path3635" inkscape:connector-curvature="0" fill="#EA1F29" d="M0,10.152l0.227,0.061l0.015,0.137l-0.059,0.113
						l-0.079,0.085c-0.224,0.192-0.434,0.107-0.55,0.062c0,0,0.252-0.03,0.352-0.305l0.01-0.03L0,10.152"/>
				</g>
				<g id="g3637" transform="translate(50.868698,53.061203)">
					<path id="path3639" inkscape:connector-curvature="0" fill="#EA1F29" d="M0,10.152c0.093,0.034,0.141,0.136,0.107,0.229
						l-0.104,0.105l-0.22,0.028l-0.038-0.005c-0.307-0.052-0.386-0.284-0.426-0.409c0,0,0.16,0.147,0.4,0.103l0.091-0.023L0,10.152"
						/>
				</g>
				<g id="g3641" transform="translate(51.583694,52.2957)">
					<path id="path3643" inkscape:connector-curvature="0" fill="#EA1F29" d="M0,10.152l-0.145,0.034l-0.174-0.076l-0.056-0.045
						c-0.231-0.211-0.17-0.448-0.137-0.575c0,0,0.067,0.263,0.37,0.333l0.007,0.001l0.168,0.077L0,10.152"/>
				</g>
				<g id="g3645" transform="translate(73.861298,54.399796)">
					<path id="path3647" inkscape:connector-curvature="0" fill="#2B57AC" d="M0,10.152c-0.225,0.108-0.587,0.062-1.02,0.016
						c-0.34-0.035-0.725-0.072-1.114-0.032c-2.617,0.262-2.828,1.224-2.723,1.159c0,0,0.563-0.286,1.419-0.453
						c2.332-0.454,2.351,0.824,2.351,0.824s0.078-0.057,0.101-0.198c0.024-0.164-0.087-0.387-0.087-0.387s0.292,0.217,0.292,0.541
						c0,0.485-0.317,0.655-0.317,0.655s0.065,0.007,0.181-0.094c0.117-0.1,0.184-0.347,0.184-0.347s0.123,0.404-0.326,0.779
						c-1.252,1.047-3.959,0.841-5.001,0.99c-0.914,0.131-1.153,0.507-1.086,0.895c0.111,0.637,0.965,0.653,0.965,0.653
						c-0.046-0.694,0.817-1.149,1.637-0.967c0.458,0.102,0.735,0.258,1.06,0.52c0.245,0.196,0.439,0.287,0.439,0.287
						c-0.422,0.081-0.691-0.086-0.86-0.157c-0.182-0.076-0.37-0.133-0.567-0.149c-0.51-0.043-0.559,0.297-0.559,0.297
						s0.379-0.181,0.872-0.066c1.42,0.331,0.957,1.657,0.957,1.657s-0.125-0.501-0.57-0.688c-0.42-0.174-0.768,0.101-0.768,0.101
						s0.687-0.07,0.834,0.468c0.083,0.305-0.207,0.464-0.207,0.464s0.063-0.684-1.578-0.583c-0.717,0.045-0.715-0.568-0.715-0.568
						s-0.116-0.002-0.408-0.088c-0.266-0.077-0.449-0.205-0.449-0.205c0.073,0.198,0.362,0.293,0.362,0.293
						c-0.38,0-0.696-0.293-0.696-0.293l0.055,0.18c-0.012-0.022-0.423-0.363-0.515-1.091c-0.048-0.365,0.062-0.741,0.301-1.021
						c0.394-0.463,1.147-0.522,1.603-0.558c0.676-0.052,1.79-0.112,2.774-0.247c1.333-0.183,1.413-0.628,1.237-0.912
						c-0.194-0.319-0.788-0.326-1.711,0c-0.926,0.324-2.782,0.995-4.117,0.99c-3.526-0.015-5.107-1.51-6.16-1.232
						c0.03-1.35-0.937-1.889-0.937-1.889c-0.146,0.744-0.044-0.61-1.478-1.314c0,0-0.011,0.336-0.159,0.365
						c-0.193,0.04-0.471-0.486-0.471-0.486c-0.307,0.203-0.403,0.52-0.403,0.52l-0.074-0.151c0,0-0.239,0.15-0.291,0.405
						c-0.052,0.26,0.026,0.455-0.089,0.46c-0.132,0.006-0.413-0.185-0.413-0.185s0.049,0.446-0.156,0.909
						c-0.113,0.297-0.278,0.568-0.304,0.89c-1.136,0.213-2.52,0.668-2.55,1.105c-0.03,0.41,0.043,0.827-0.412,0.96l0.014-0.041
						l-0.011-0.138l-0.23-0.06l-0.094,0.153l-0.014,0.032c-0.262-0.154-0.155-0.625-0.155-0.625c-0.206,0.21-0.639,0.595-0.901,0.35
						l0.04-0.05l0.028-0.145c-0.024-0.094-0.122-0.155-0.218-0.131l-0.136,0.119c-0.278-0.391,0.294-0.857,0.294-0.857
						c-0.085-0.043-0.54-0.134-0.542-0.463l0.19,0.074l0.131-0.039l0.013-0.237l-0.165-0.062l-0.072-0.016
						c0.161-0.228,0.41-0.226,0.566-0.159c0.729,0.31,0.914,0.135,1.232,0.065c0.226-0.048,0.429,0.006,0.433-0.127
						c0.002-0.109-0.104-0.19-0.443-0.148c0,0,0.082-0.215,0.452-0.256c0.558-0.061,0.733,0.076,0.807-0.021
						c0.135-0.178-0.402-0.246-0.402-0.246c0.438-0.334,1.017-0.077,1.017-0.077c0.03-0.195-0.385-0.236-0.385-0.236
						s0.165-0.184,0.492-0.103c0.123,0.031,0.231,0.089,0.231,0.089s-0.098-0.323,0.188-0.488c0,0,0.163,0.551,0.391,0.409
						c0.113-0.068,0.128-0.184,0.077-0.25c-0.072-0.094-0.179-0.079-0.179-0.079c0.066-0.168,0.36-0.168,0.36-0.168
						s-0.356-0.22-1.348-0.205c-1.316,0.108-1.24,0.255-1.56,0.643c-0.257,0.339-0.406,0.359-0.523,0.308l0.057-0.113l-0.013-0.137
						l-0.228-0.061l-0.083,0.123c-0.162-0.161-0.132-0.306-0.057-0.44c-0.065,0.011-0.686,0.1-0.796-0.186l0.22-0.027l0.104-0.106
						c0.033-0.093-0.014-0.195-0.108-0.228l-0.19,0.027l-0.091,0.024l-0.004-0.03c-0.007-0.425,0.613-0.436,0.919-0.449
						c-0.13-0.078-0.27-0.194-0.237-0.38l0.173,0.076l0.145-0.033l0.034-0.252l-0.169-0.077c0.406-0.268,0.709,0.104,0.856,0.188
						c0.428,0.244,1.085,0.216,1.252,0.036c0.124-0.134-0.15-0.288-0.15-0.288c0.303-0.039,0.525,0.147,0.525,0.147
						s-0.059-0.067-0.082-0.208c-0.035-0.203,0.102-0.311,0.102-0.311c0.251,0.483,0.443,0.451,0.539,0.36
						c0.116-0.109-0.118-0.274-0.118-0.274c0.291-0.147,0.667,0.152,0.667,0.152s-0.027-0.248,0.114-0.383
						c0.191,0.348,0.61,0.316,0.887,0.282c0,0-0.397-0.271-0.243-0.611c0.249,0.241,0.56,0.329,0.982,0.277
						c0.877-0.106,2.537-0.604,5.386,2.04c1.926,1.786,3.212,1.557,3.212,1.557c1.711-1.389,4.998-1.414,5.84-1.477
						c0.406-0.029,0.412-0.282,0.234-0.499C-2.522,8.575-2.669,8.542-2.678,8.54c0,0-0.809,0.335-1.108-0.115l0.157-0.002
						l0.101-0.074l-0.059-0.206L-3.75,8.141l-0.069,0.008C-3.783,8-3.667,7.955-3.587,7.935l0.024-0.025
						c-0.172-0.164-0.169-0.334-0.162-0.39l0.121,0.058l0.121-0.02l0.042-0.21l-0.142-0.077l-0.044-0.014
						c0.086-0.135,0.239-0.217,0.474-0.126c0.181,0.067,0.23,0.106,0.242,0.124c-0.019-0.037-0.08-0.17-0.015-0.275l0.028-0.037
						l0.097,0.177l0.115,0.046l0.145-0.157L-2.625,6.87l-0.037-0.048h0.206c0.252,0.05,0.448,0.265,0.504,0.798
						c0.021,0.18,0.06,0.279,0.105,0.329c0.084,0.096,0.276,0.166,0.276,0.166s0.08-0.211-0.058-0.367
						C-1.131,7.667-1.064,8.45-1.064,8.45S-1.012,8.299-0.9,8.197c0.11-0.102,0.266-0.124,0.266-0.124
						c-0.091,0.558,0.13,0.749,0.235,0.775c0.21,0.052,0.203-0.202,0.203-0.202s0.183,0.122,0.144,0.371
						c-0.021,0.142-0.096,0.278-0.096,0.278s0.176,0.087,0.27-0.15c0,0,0.188,0.303,0.016,0.471l0.093,0.01l0.084-0.07
						C0.315,9.556,0.401,9.958,0,10.152"/>
				</g>
				<g id="g3649" transform="translate(70.2742,52.391006)">
					<path id="path3651" inkscape:connector-curvature="0" fill="#EA1F29" d="M0,10.152l0.059,0.205l-0.101,0.075l-0.157,0.001
						l-0.062-0.018c-0.25-0.086-0.283-0.289-0.301-0.4c0,0,0.117,0.15,0.33,0.143l0.069-0.007L0,10.152"/>
				</g>
				<g id="g3653" transform="translate(70.420502,51.595993)">
					<path id="path3655" inkscape:connector-curvature="0" fill="#EA1F29" d="M0,10.152l-0.042,0.211l-0.122,0.018l-0.12-0.057
						l-0.068-0.057c-0.184-0.191-0.12-0.385-0.084-0.493c0,0,0.037,0.201,0.25,0.286l0.044,0.015L0,10.152"/>
				</g>
				<g id="g3657" transform="translate(71.320404,51.256393)">
					<path id="path3659" inkscape:connector-curvature="0" fill="#EA1F29" d="M0,10.152l-0.146,0.157l-0.114-0.046l-0.097-0.177
						l-0.004-0.018c-0.06-0.259,0.098-0.392,0.183-0.464c0,0-0.069,0.181,0.057,0.361l0.037,0.049L0,10.152"/>
				</g>
			</g>
		</g>
	</g>
</g>
</svg>
