<?xml version="1.0" encoding="UTF-8" standalone="no"?>
<svg id="svg2" xmlns:rdf="http://www.w3.org/1999/02/22-rdf-syntax-ns#" xmlns="http://www.w3.org/2000/svg" xml:space="preserve" height="45" width="65" version="1.1" xmlns:cc="http://creativecommons.org/ns#" viewBox="0 0 65 44.999998" xmlns:dc="http://purl.org/dc/elements/1.1/"><metadata id="metadata8"><rdf:RDF><cc:Work rdf:about=""><dc:format>image/svg+xml</dc:format><dc:type rdf:resource="http://purl.org/dc/dcmitype/StillImage"/><dc:title/></cc:Work></rdf:RDF></metadata><g id="g10" transform="matrix(1.25 0 0 -1.25 -128.13 968.57)"><path id="background" d="m102.5 774.85v-36h52v36z" fill="#4a4a4a"/><path id="fox" d="m148.66 763.62c-0.77675-0.30253-4.4166 0.68272-6.8371 1.5525-2.5169 0.90484-5.7415 0.13388-5.7415 0.13388s-1.4694 0.82615-4.3876 0.83706c-1.577 0.006-3.8626-0.8081-7.1437-0.78629-3.1884 0.0215-4.2612 1.2343-4.2612 1.2343s-0.21565-0.17715-0.38463-0.27663c-0.41836-0.24563-0.88918-0.25142-0.88918-0.25142s0.87725 0.40779 1.4292 1.0946c0.55224 0.68716 0.64627 1.1604 0.64627 1.1604s-1.067 0.0378-1.8039-0.37781c-0.73655-0.41563-1.2537-0.8868-1.2537-0.8868s-0.33319 0.0184-1.1484-0.21871c-0.81559-0.23712-1.0425-0.31138-1.1375-0.41495-0.0954-0.10323-0.18431-0.4899-0.34477-0.56792-0.16046-0.078-1.6087-0.47559-1.6336-0.51783-0.0249-0.0419 0.20611-0.39519 0.22042-0.42585 0.0143-0.03-0.002-0.079 0.016-0.10936 0.0181-0.0307 0.18602-0.24972 0.29708-0.25585 0.11072-0.006 2.071-0.007 3.4484-0.45379 0.79174-0.25687 1.4837-0.57268 1.9323-0.82002 0.1608-0.0862 0.14921-0.20406 0.12298-0.25585-0.0446-0.0879-0.42653-0.0794-1.3886-0.064-0.96208 0.015-1.5433-0.004-2.1793-0.0586-0.63639-0.0545-1.2517-0.44016-2.1977-0.60641-0.94607-0.16591-1.3109-0.20952-1.3508-0.43914-0.0395-0.22996 0.57847-0.26437 1.174-0.23303 0.59517 0.031 1.2902 0.58598 2.073 0.67115 0.78323 0.0852 3.5278-0.16558 3.5278-0.16558s-0.0184-0.1642-0.56247-0.37781c-0.37338-0.0596-0.6943-0.1223-1.0288-0.19691-0.62242-0.13934-1.3198-0.62549-2.2335-0.91677-0.91371-0.29129-1.269-0.38327-1.2758-0.6163-0.007-0.23268 0.62379-0.23984 1.1951-0.0736 0.59312 0.17272 1.4901 0.86192 2.2437 0.96991 0.31104 0.0446 2.7857 0.26505 2.9936 0.27902 1.6291 0.0422 2.8464-0.39382 3.0327-0.37611 0.22996 0.0211 0.67965 0.66058 0.67965 0.66058 0.63299-0.0433 2.7708-0.57405 4.1325 0.30661 1.5794 1.021 1.965 0.97639 1.965 0.97639l-0.53113-0.42176s0.24189-0.46332 1.4741-0.62685c1.0101-0.13423 2.0632-0.0651 2.0632-0.0651s-0.53078 0.30389-0.8132 0.5812c-0.4279 0.42006-0.51716 0.88781-0.52329 0.89463 0 0 0.9798-1.3045 2.8808-1.7327 0.85442-0.19249 1.9947 0.28787 2.319 0.19248 0.32399-0.0954 0.33659-0.34068 1.253-1.1392 0.91677-0.79821 1.547-1.0782 1.764-0.74268 0.21736 0.33557-0.96617 0.85272-1.393 1.2244-0.42721 0.37168-0.79549 0.84284-0.79549 0.84284s0.42347 0.0279 0.95732-0.092c0.53384-0.11992 0.99751-0.31343 1.7201-0.81764 0.72258-0.50386 1.114-1.0411 1.4891-1.3968 0.37474-0.35601 0.74745-0.54986 0.86362-0.57677 0.40746-0.094 0.48104 0.20305 0.33762 0.36794-0.10357 0.11821-0.95323 0.89564-1.8703 1.6502-0.80537 0.66297-1.6353 1.5981-1.8053 1.6206-0.17034 0.0225-0.83432-0.0562-1.5096-0.10868-0.67591-0.0525-1.1965 0.53044-1.5389 1.0006-0.3417 0.4698-0.95458 0.93892-0.95458 0.93892s2.628 0.19964 4.2132-0.43914c1.6135-0.65036 3.5846-1.8496 4.8578-1.9865 2.6382-0.28447 3.7495 1.7586 3.5962 1.699" fill="#ed1c24"/><path id="tail" d="m116.67 766.15c0.16932 0.017 0.55565 0.003 0.55565 0.003s-0.21156-0.22655-0.49296-0.25994c-0.2286-0.0273-0.42279 0.22076-0.0627 0.25687m4.1798-2.7667c-0.0886-0.19589-0.93415 0.47899-2.241 0.87452-1.686 0.51068-3.7028 0.46742-3.862 0.47628-0.15944 0.009-0.12299 0.0899-0.0266 0.0951 0 0 0.77436 0.12332 2.8876-0.005 2.0921-0.12707 3.4617-0.95322 3.2419-1.4404m24.71-1.0575c-0.14649 0-0.29775 0.008-0.4497 0.0245-0.12196 0.0133-0.26028 0.045-0.40507 0.0842 0.33149 0.35363 0.55361 0.79651 0.66637 1.2707 0.95357-0.24154 1.8554-0.42653 2.5108-0.48036-0.42687-0.41052-1.1917-0.89974-2.3224-0.89905" fill="#fff"/><path id="leicestershire" d="m151.2 754.56c-0.0416-0.2671-0.16012-0.80708-0.20782-0.98525h-3.0269v0.20781c0.50454 0.0416 0.56382 0.077 0.56382 0.58155v2.2792c0 0.51647-0.0593 0.54611-0.4807 0.58188v0.20747h2.7956c0.006-0.10663 0.0354-0.52226 0.0593-0.89019l-0.21973-0.0296c-0.0535 0.20781-0.13048 0.4037-0.23746 0.51034-0.10084 0.10697-0.26096 0.14853-0.59346 0.14853h-0.28481c-0.21974 0-0.24325-0.0119-0.24325-0.20781v-1.2585h0.39758c0.49875 0 0.58154 0.03 0.65887 0.44527h0.21361v-1.1931h-0.21361c-0.0773 0.42755-0.15433 0.45106-0.65887 0.45106h-0.39758v-1.0326c0-0.28481 0.0235-0.42721 0.14241-0.48683 0.10663-0.0474 0.30865-0.0593 0.53418-0.0593 0.30866 0 0.51647 0.0416 0.65275 0.1901 0.11889 0.13048 0.22553 0.32024 0.3325 0.58154l0.21361-0.0416zm-3.4188-1.0386c-0.0354 0-0.10084 0.006-0.17818 0.006-0.74779 0.0358-0.97332 0.20202-1.2166 0.57575-0.15432 0.24324-0.31478 0.56382-0.48683 0.87861-0.0947 0.17784-0.20168 0.25517-0.39178 0.25517h-0.11277v-0.86669c0-0.49263 0.0535-0.54611 0.50455-0.58767v-0.20748h-1.7923v0.20748c0.44493 0.0416 0.51034 0.095 0.51034 0.58767v2.2792c0 0.47491-0.0535 0.53419-0.48683 0.57575v0.20782h1.668c0.52226 0 0.819-0.0593 1.0626-0.21974 0.23712-0.16012 0.39758-0.42142 0.39758-0.78936 0-0.52226-0.34443-0.80707-0.74201-0.96719 0.0893-0.17818 0.30866-0.56996 0.48684-0.84284 0.20781-0.33251 0.33829-0.52227 0.45106-0.6473 0.13048-0.13627 0.23132-0.20747 0.3618-0.25517l-0.0354-0.18976zm-2.2318 1.9528c0.24938 0 0.45106 0.0416 0.58188 0.15433 0.20169 0.16626 0.28481 0.40371 0.28481 0.70623 0 0.63503-0.36793 0.86056-0.70044 0.86056-0.14819 0-0.23132-0.0238-0.26709-0.0593-0.0416-0.0358-0.0535-0.0951-0.0535-0.21973v-1.4421h0.15433zm-3.4958-1.8994v0.20781c0.44493 0.0416 0.49842 0.0831 0.49842 0.58155v2.2734c0 0.51034-0.0535 0.54611-0.49842 0.58767v0.20747h1.7865v-0.20747c-0.44527-0.0416-0.49262-0.0773-0.49262-0.58767v-2.2734c0-0.49842 0.0473-0.53998 0.49262-0.58155v-0.20781h-1.7865zm-0.43937 3.6502c-0.46299-0.0416-0.49842-0.0773-0.49842-0.58154v-2.2853c0-0.49841 0.0474-0.53418 0.49842-0.57575v-0.20781h-1.8104v0.20781c0.46912 0.0416 0.51647 0.0773 0.51647 0.58189v1.1038h-1.6203v-1.1038c0-0.50455 0.0473-0.54032 0.48649-0.58189v-0.20781h-1.7685v0.20781c0.43334 0.0416 0.48649 0.0773 0.48649 0.58189v2.2792c0 0.50421-0.0531 0.53998-0.51034 0.58154v0.20782h1.7807v-0.20782c-0.42756-0.0416-0.47491-0.0773-0.47491-0.58154v-0.87248h1.6203v0.87248c0 0.50421-0.0473 0.53998-0.49262 0.58154v0.20782h1.7865v-0.20782zm-4.5762-0.75972c-0.1189 0.37407-0.34443 0.81321-0.82513 0.81321-0.33216 0-0.57575-0.24359-0.57575-0.58768 0-0.32637 0.21395-0.51034 0.73621-0.77743 0.62311-0.30286 1.0503-0.63503 1.0503-1.2227 0-0.67659-0.57541-1.205-1.4421-1.205-0.21361 0-0.42142 0.0296-0.5996 0.0831-0.16625 0.0473-0.27901 0.0951-0.35601 0.13048-0.0593 0.14853-0.13661 0.64695-0.17817 1.0033l0.20781 0.0712c0.11856-0.37986 0.46878-1.0507 1.0387-1.0507 0.36214 0 0.59346 0.24938 0.59346 0.62924 0 0.35022-0.2613 0.56962-0.70623 0.80707-0.60539 0.30866-1.0329 0.62924-1.0329 1.1989 0 0.65308 0.51647 1.1634 1.3593 1.1634 0.37986 0 0.71816-0.11855 0.82513-0.15433 0.0235-0.21973 0.0651-0.48649 0.11277-0.85476l-0.20782-0.0474zm-2.2674-2.9439c-0.0354 0-0.10084 0.006-0.17817 0.006-0.7478 0.0358-0.97333 0.20202-1.2166 0.57575-0.15433 0.24324-0.31479 0.56382-0.48684 0.87861-0.0947 0.17784-0.20168 0.25517-0.39178 0.25517h-0.11276v-0.86669c0-0.49263 0.0535-0.54611 0.50454-0.58767v-0.20748h-1.7923v0.20748c0.44493 0.0416 0.51034 0.095 0.51034 0.58767v2.2792c0 0.47491-0.0535 0.53419-0.48683 0.57575v0.20782h1.668c0.52227 0 0.819-0.0593 1.0626-0.21974 0.23712-0.16012 0.39758-0.42142 0.39758-0.78936 0-0.52226-0.34443-0.80707-0.742-0.96719 0.0893-0.17818 0.30865-0.56996 0.48683-0.84284 0.20747-0.33251 0.3383-0.52227 0.45106-0.6473 0.13048-0.13627 0.23132-0.20747 0.3618-0.25517l-0.0354-0.18976zm-2.2318 1.9528c0.24938 0 0.45107 0.0416 0.58189 0.15433 0.20168 0.16626 0.28481 0.40371 0.28481 0.70623 0 0.63503-0.36794 0.86056-0.70044 0.86056-0.1482 0-0.23133-0.0238-0.2671-0.0593-0.0416-0.0358-0.0535-0.0951-0.0535-0.21973v-1.4421h0.15432zm-1.5313-0.91414c-0.0416-0.2671-0.16012-0.80708-0.20782-0.98525h-3.0269v0.20781c0.50455 0.0416 0.56382 0.077 0.56382 0.58155v2.2792c0 0.51647-0.0593 0.54611-0.4807 0.58188v0.20747h2.7956c0.006-0.10663 0.0354-0.52226 0.0593-0.89019l-0.21974-0.0296c-0.0535 0.20781-0.13048 0.4037-0.23746 0.51034-0.10084 0.10697-0.26096 0.14853-0.59346 0.14853h-0.28481c-0.21974 0-0.24325-0.0119-0.24325-0.20781v-1.2585h0.39758c0.49875 0 0.58154 0.03 0.65887 0.44527h0.21361v-1.1931h-0.21361c-0.0773 0.42755-0.15433 0.45106-0.65887 0.45106h-0.39758v-1.0326c0-0.28481 0.0235-0.42721 0.14241-0.48683 0.10663-0.0474 0.30865-0.0593 0.53418-0.0593 0.30866 0 0.51648 0.0416 0.65275 0.1901 0.1189 0.13048 0.22553 0.32024 0.3325 0.58154l0.21361-0.0416zm-3.6325 1.8578c-0.0712 0.30865-0.15433 0.51034-0.26131 0.61731-0.10663 0.10663-0.25517 0.13661-0.60538 0.13661h-0.2671v-2.8076c0-0.50454 0.0596-0.54032 0.58188-0.58154v-0.20781h-1.9351v0.20781c0.49876 0.0412 0.55803 0.077 0.55803 0.58154v2.8076h-0.20202c-0.49262 0-0.59926-0.0596-0.68238-0.16046-0.10084-0.10084-0.17205-0.30252-0.24938-0.59926h-0.2194c0.0235 0.43301 0.0593 0.86635 0.0712 1.1692h0.1482c0.0893-0.13082 0.16625-0.14854 0.33829-0.14854h2.3861c0.15433 0 0.23746 0.0358 0.3383 0.14854h0.14853c0.006-0.24938 0.0354-0.77164 0.0651-1.1515l-0.2136-0.0119zm-3.7868 0.0474c-0.11856 0.37407-0.34409 0.81321-0.82513 0.81321-0.33216 0-0.57575-0.24359-0.57575-0.58768 0-0.32637 0.21395-0.51034 0.73621-0.77743 0.62311-0.30286 1.0503-0.63503 1.0503-1.2227 0-0.67659-0.57575-1.205-1.4421-1.205-0.21361 0-0.42142 0.0296-0.5996 0.0831-0.16625 0.0473-0.27902 0.0951-0.35601 0.13048-0.0593 0.14853-0.13661 0.64695-0.17818 1.0033l0.20782 0.0712c0.1189-0.37986 0.46878-1.0507 1.0387-1.0507 0.36214 0 0.59346 0.24938 0.59346 0.62924 0 0.35022-0.26096 0.56962-0.70623 0.80707-0.60539 0.30866-1.0329 0.62924-1.0329 1.1989 0 0.65308 0.51647 1.1634 1.3593 1.1634 0.37986 0 0.71816-0.11855 0.82513-0.15433 0.0235-0.21973 0.0651-0.48649 0.11277-0.85476l-0.20782-0.0474zm-2.4751-1.9052c-0.0416-0.2671-0.16012-0.80708-0.20782-0.98525h-3.0269v0.20781c0.50454 0.0416 0.56382 0.077 0.56382 0.58155v2.2792c0 0.51647-0.0593 0.54611-0.4807 0.58188v0.20747h2.7956c0.006-0.10663 0.0354-0.52226 0.0593-0.89019l-0.21974-0.0296c-0.0535 0.20781-0.13048 0.4037-0.23746 0.51034-0.10084 0.10697-0.26096 0.14853-0.59346 0.14853h-0.28481c-0.21974 0-0.24325-0.0119-0.24325-0.20781v-1.2585h0.39758c0.49841 0 0.58154 0.03 0.65887 0.44527h0.21361v-1.1931h-0.21361c-0.0773 0.42755-0.15433 0.45106-0.65887 0.45106h-0.39758v-1.0326c0-0.28481 0.0235-0.42721 0.14241-0.48683 0.10663-0.0474 0.30865-0.0593 0.53418-0.0593 0.30866 0 0.51647 0.0416 0.65275 0.1901 0.11889 0.13048 0.22553 0.32024 0.3325 0.58154l0.21361-0.0416zm-3.306 0.0297c-0.0773-0.29094-0.23133-0.742-0.33251-0.94981-0.15433-0.0354-0.7001-0.15433-1.1038-0.15433-1.5791 0-2.2318 1.0272-2.2318 1.9708 0 1.2227 0.93176 2.0655 2.3504 2.0655 0.4807 0 0.92018-0.12469 1.0803-0.16046 0.0535-0.32637 0.095-0.5996 0.13661-0.96753l-0.21973-0.0416c-0.1959 0.70043-0.65275 0.90825-1.1099 0.90825-0.86056 0-1.3355-0.80741-1.3355-1.6857 0-1.0922 0.58767-1.8104 1.3951-1.8104 0.49262 0 0.86056 0.31478 1.1631 0.91404l0.20782-0.0889zm-5.4665-1.015v0.20781c0.44527 0.0416 0.49842 0.0831 0.49842 0.58155v2.2734c0 0.51034-0.0531 0.54611-0.49842 0.58767v0.20747h1.7865v-0.20747c-0.44527-0.0416-0.49263-0.0773-0.49263-0.58767v-2.2734c0-0.49842 0.0474-0.53998 0.49263-0.58155v-0.20781h-1.7865zm-0.10091 0.98525c-0.0416-0.2671-0.16012-0.80708-0.20782-0.98525h-3.0269v0.20781c0.50455 0.0416 0.56382 0.077 0.56382 0.58155v2.2792c0 0.51647-0.0593 0.54611-0.4807 0.58188v0.20747h2.7956c0.006-0.10663 0.0354-0.52226 0.0593-0.89019l-0.21974-0.0296c-0.0535 0.20781-0.13048 0.4037-0.23746 0.51034-0.10084 0.10697-0.26096 0.14853-0.59346 0.14853h-0.28481c-0.21974 0-0.24325-0.0119-0.24325-0.20781v-1.2585h0.39758c0.49841 0 0.58154 0.03 0.65887 0.44527h0.21361v-1.1931h-0.21361c-0.0773 0.42755-0.15432 0.45106-0.65887 0.45106h-0.39758v-1.0326c0-0.28481 0.0235-0.42721 0.14241-0.48683 0.10663-0.0474 0.30865-0.0593 0.53419-0.0593 0.30865 0 0.51613 0.0416 0.65274 0.1901 0.1189 0.13048 0.22553 0.32024 0.3325 0.58154l0.21361-0.0416zm-3.318 0.0178c-0.0473-0.25517-0.17204-0.84284-0.21973-1.003h-2.8903v0.20781c0.51647 0.0412 0.57575 0.077 0.57575 0.58154v2.2734c0 0.51034-0.0593 0.54577-0.51068 0.58734v0.20781h1.8104v-0.20781c-0.45106-0.0416-0.50455-0.077-0.50455-0.58734v-2.3207c0-0.27902 0.0238-0.37986 0.1424-0.43335 0.10698-0.0416 0.26131-0.0535 0.44527-0.0535 0.25517 0 0.46878 0.0416 0.61153 0.20168 0.10663 0.1189 0.21939 0.30866 0.32637 0.61152l0.2136-0.0654z" fill="#fff"/><path id="county_cricket_club" d="m150.31 751.21c0.46298-0.0559 0.76653-0.24359 0.76653-0.62277 0-0.26743-0.14786-0.47491-0.37134-0.59857-0.20373-0.11584-0.51102-0.17171-0.84217-0.17171h-1.0139v0.13968c0.30729 0.0279 0.34306 0.0559 0.34306 0.39519v1.5249c0 0.34306-0.0358 0.36725-0.31921 0.39519v0.13968h1.1655c0.3073 0 0.50694-0.0399 0.65888-0.13594 0.14752-0.0957 0.23541-0.25925 0.23541-0.4548 0-0.38327-0.33557-0.53896-0.62276-0.59483v-0.016zm-0.4991 0.0559c0.38327 0 0.55497 0.1516 0.55497 0.48308 0 0.36317-0.21565 0.49876-0.4313 0.49876-0.0917 0-0.15535-0.0279-0.17954-0.0518-0.0279-0.0279-0.0358-0.0879-0.0358-0.17171v-0.75835h0.0916zm-0.0916-0.90621c0-0.29537 0.0797-0.37918 0.29128-0.37509 0.22349 0.004 0.47491 0.16761 0.47491 0.55871 0 0.37543-0.23541 0.56281-0.68647 0.56281h-0.0797v-0.74643zm-1.0335 1.9122c-0.21565-0.0119-0.31547-0.0957-0.33523-0.23575-0.0201-0.12367-0.0361-0.27118-0.0361-0.55463v-0.43505c0-0.42312-0.0637-0.75835-0.28719-0.99785-0.18363-0.19181-0.45515-0.29162-0.7386-0.29162-0.26334 0-0.51476 0.0559-0.70657 0.20372-0.22348 0.17954-0.33114 0.47491-0.33114 0.94198v0.94199c0 0.37543-0.0399 0.39927-0.33523 0.42721v0.13968h1.2012v-0.13968c-0.29128-0.0279-0.33114-0.0518-0.33114-0.42721v-0.8701c0-0.59892 0.21531-0.94607 0.64661-0.94607 0.47491 0 0.68238 0.35942 0.68238 1.0258v0.42721c0 0.28345-0.0198 0.43505-0.0399 0.55463-0.0238 0.14002-0.11549 0.21974-0.38701 0.23575v0.13968h0.99785v-0.13968zm-2.6783-1.7803c-0.032-0.1717-0.11583-0.56689-0.14786-0.67455h-1.9439v0.13968c0.3475 0.0279 0.38736 0.0518 0.38736 0.3911v1.529c0 0.34306-0.0399 0.36725-0.34341 0.39519v0.13968h1.2176v-0.13968c-0.30354-0.0279-0.33932-0.0521-0.33932-0.39519v-1.561c0-0.18737 0.016-0.25551 0.0957-0.29128 0.0719-0.0279 0.17579-0.0358 0.29945-0.0358 0.17171 0 0.31513 0.0279 0.4112 0.13559 0.0719 0.0797 0.14752 0.20747 0.2194 0.4112l0.14377-0.0439zm-2.251 0.008c-0.0518-0.19555-0.15569-0.49909-0.22348-0.63877-0.10391-0.0238-0.47117-0.10357-0.74269-0.10357-1.0616 0-1.5007 0.69056-1.5007 1.3252 0 0.82206 0.62652 1.389 1.5808 1.389 0.32331 0 0.61868-0.0838 0.72633-0.10765 0.0361-0.21974 0.0641-0.40337 0.092-0.6507l-0.14786-0.0279c-0.13184 0.47082-0.43914 0.61084-0.74643 0.61084-0.57882 0-0.89803-0.54304-0.89803-1.1338 0-0.73451 0.39519-1.2176 0.93789-1.2176 0.33148 0 0.57882 0.21157 0.78254 0.61493l0.13968-0.06zm-3.7438 1.2294c-0.048 0.20748-0.1039 0.34341-0.17545 0.41529-0.0722 0.0715-0.1717 0.0916-0.40745 0.0916h-0.17954v-1.888c0-0.33932 0.0399-0.36316 0.3911-0.3911v-0.13968h-1.3011v0.13968c0.33523 0.0279 0.37509 0.0518 0.37509 0.3911v1.888h-0.13559c-0.33148 0-0.40336-0.0399-0.45923-0.10765-0.0678-0.0678-0.1155-0.20373-0.16762-0.40337h-0.14751c0.016 0.29163 0.0399 0.58291 0.0477 0.78629h0.0998c0.06-0.0875 0.11174-0.0995 0.22757-0.0995h1.6046c0.10391 0 0.15978 0.0238 0.22757 0.0995h0.0998c0.004-0.16761 0.0239-0.51885 0.0439-0.77436l-0.14377-0.008zm-2.335-1.2494c-0.0279-0.17954-0.10765-0.54305-0.13967-0.66262h-2.0359v0.13967c0.33932 0.0279 0.37918 0.0518 0.37918 0.39111v1.5331c0 0.34715-0.0399 0.36725-0.32331 0.3911v0.13968h1.8802c0.004-0.0719 0.0238-0.35124 0.0399-0.59892l-0.14752-0.0198c-0.0361 0.13968-0.0879 0.27118-0.15978 0.34307-0.0678 0.0719-0.17579 0.0998-0.39928 0.0998h-0.19146c-0.14785 0-0.16387-0.008-0.16387-0.13968v-0.84625h0.26744c0.33557 0 0.39144 0.0201 0.44322 0.29946h0.14377v-0.80231h-0.14377c-0.0518 0.28754-0.1039 0.30355-0.44322 0.30355h-0.26744v-0.69465c0-0.1918 0.016-0.28753 0.0961-0.32739 0.0719-0.032 0.20747-0.0399 0.35907-0.0399 0.20748 0 0.3475 0.0279 0.43914 0.12775 0.0797 0.0876 0.1516 0.21565 0.22349 0.3911l0.14376-0.0279zm-3.0972-0.66262c-0.1717 0.23541-0.50285 0.70248-0.78629 1.1178-0.0838 0.11958-0.13593 0.14377-0.19555 0.13559v-0.7185c0-0.3434 0.0358-0.36725 0.34306-0.39519v-0.13967h-1.1934v0.13967c0.28753 0.0279 0.32739 0.0518 0.32739 0.39519v1.5249c0 0.34341-0.0361 0.36725-0.33557 0.39519v0.13968h1.1736v-0.13968c-0.28345-0.0279-0.31513-0.0518-0.31513-0.39519v-0.67864c0.0838 0.0239 0.18362 0.0879 0.3032 0.21157 0.26744 0.27152 0.42722 0.46707 0.55906 0.64661 0.0957 0.12367 0.0876 0.18363-0.0998 0.20747l-0.0719 0.008v0.13968h1.0377v-0.13968c-0.24733-0.0239-0.4112-0.0719-0.6306-0.27936-0.23541-0.21565-0.40336-0.40711-0.5829-0.59074 0.25551-0.38326 0.55088-0.78663 0.83841-1.1498 0.16353-0.20747 0.27118-0.27152 0.43096-0.29537v-0.13967h-0.8023zm-2.0514 0.68258c-0.0518-0.19555-0.15569-0.49909-0.22348-0.63877-0.10391-0.0238-0.47117-0.10357-0.74269-0.10357-1.0616 0-1.5007 0.69056-1.5007 1.3252 0 0.82206 0.62652 1.389 1.5808 1.389 0.32331 0 0.61868-0.0838 0.72633-0.10765 0.0361-0.21974 0.0641-0.40337 0.092-0.6507l-0.14786-0.0279c-0.13184 0.47082-0.43914 0.61084-0.74643 0.61084-0.57882 0-0.89803-0.54304-0.89803-1.1338 0-0.73451 0.39519-1.2176 0.93789-1.2176 0.33148 0 0.57882 0.21157 0.78254 0.61493l0.13968-0.06zm-3.8359-0.68258v0.13967c0.29946 0.0279 0.33523 0.0559 0.33523 0.39111v1.529c0 0.34341-0.0358 0.36725-0.33523 0.39519v0.13968h1.2016v-0.13968c-0.29945-0.0279-0.33148-0.0518-0.33148-0.39519v-1.529c0-0.33523 0.032-0.36317 0.33148-0.39111v-0.13967h-1.2016zm-0.16737-0.0359c-0.0239 0-0.0678 0.004-0.11992 0.004-0.50285 0.0238-0.65445 0.13559-0.81798 0.38701-0.1039 0.16387-0.21156 0.37918-0.32739 0.59074-0.064 0.11992-0.13593 0.1717-0.26369 0.1717h-0.0756v-0.5829c0-0.33114 0.0358-0.36726 0.33932-0.39519v-0.13968h-1.2057v0.13968c0.29946 0.0279 0.34341 0.0641 0.34341 0.39519v1.5331c0 0.31922-0.0361 0.35908-0.3274 0.38701v0.13968h1.1219c0.35125 0 0.55088-0.0399 0.71441-0.14751 0.15978-0.108 0.26743-0.28345 0.26743-0.53078 0-0.35159-0.23166-0.54305-0.49909-0.6507 0.06-0.11992 0.20781-0.38327 0.32739-0.5669 0.13968-0.22348 0.22758-0.35124 0.30355-0.43504 0.0875-0.092 0.15569-0.13968 0.24324-0.17171l-0.0238-0.12775zm-1.501 1.3133c0.16795 0 0.30354 0.0279 0.39144 0.10357 0.13559 0.11174 0.19146 0.27152 0.19146 0.47525 0 0.42721-0.24733 0.57881-0.47082 0.57881-0.0998 0-0.15569-0.016-0.17988-0.0399-0.0279-0.0242-0.0358-0.064-0.0358-0.14785v-0.96992h0.10357zm-1.1731-0.59483c-0.0518-0.19555-0.15569-0.49909-0.22349-0.63877-0.10391-0.0238-0.47116-0.10357-0.74234-0.10357-1.0619 0-1.501 0.69056-1.501 1.3252 0 0.82206 0.62685 1.389 1.5808 1.389 0.3233 0 0.61867-0.0838 0.72633-0.10765 0.0361-0.21974 0.0641-0.40337 0.092-0.6507l-0.14785-0.0279c-0.1315 0.47082-0.43914 0.61084-0.74643 0.61084-0.57882 0-0.89804-0.54304-0.89804-1.1338 0-0.73451 0.39519-1.2176 0.9379-1.2176 0.33148 0 0.57881 0.21157 0.78254 0.61493l0.13968-0.06zm-3.5363 1.7724c-0.25142-0.0279-0.33114-0.0998-0.47899-0.33523-0.14786-0.23575-0.25551-0.40745-0.44698-0.78254-0.06-0.10766-0.0719-0.15161-0.0719-0.27527v-0.51102c0-0.36317 0.0279-0.38736 0.38701-0.41529v-0.13559h-1.2973v0.13559c0.33932 0.0279 0.37543 0.0521 0.37543 0.41529v0.44288c0 0.0998-0.016 0.14002-0.0521 0.21974-0.10766 0.21565-0.25517 0.48308-0.49467 0.90621-0.14785 0.26335-0.21565 0.30321-0.43539 0.33523v0.13968h1.1379v-0.13968c-0.25959-0.0361-0.25551-0.0838-0.18771-0.22758 0.13968-0.27935 0.30355-0.57472 0.4589-0.87009 0.11583 0.22757 0.31955 0.60266 0.41529 0.84625 0.0637 0.15944 0.0599 0.21531-0.23542 0.25142v0.13968h0.92597v-0.13968zm-2.8976-0.54291c-0.048 0.20748-0.10391 0.34341-0.17579 0.41529-0.0715 0.0715-0.17136 0.0916-0.40711 0.0916h-0.17954v-1.888c0-0.33932 0.0399-0.36316 0.3911-0.3911v-0.13968h-1.3011v0.13968c0.33523 0.0279 0.37509 0.0518 0.37509 0.3911v1.888h-0.13559c-0.33148 0-0.40337-0.0399-0.45924-0.10765-0.0678-0.0678-0.11583-0.20373-0.16761-0.40337h-0.14786c0.016 0.29163 0.0402 0.58291 0.048 0.78629h0.0998c0.06-0.0875 0.11174-0.0995 0.22757-0.0995h1.6046c0.1039 0 0.15977 0.0238 0.22757 0.0995h0.0998c0.004-0.16761 0.0239-0.51885 0.0439-0.77436l-0.14377-0.008zm-2.3787 0.54686c-0.21565-0.0119-0.29946-0.0678-0.31922-0.24767-0.0123-0.12367-0.0361-0.31105-0.0361-0.66637v-1.5848h-0.19147l-1.6605 1.9879h-0.0123v-0.89395c0-0.35124 0.0201-0.53112 0.032-0.6507 0.0201-0.17579 0.0879-0.25142 0.38326-0.26368v-0.13968h-0.97809v0.13968c0.22348 0.016 0.31547 0.0801 0.33148 0.25176 0.016 0.1315 0.0399 0.31138 0.0399 0.66262v0.83024c0 0.26335-0.004 0.33523-0.0797 0.43096-0.076 0.0957-0.16387 0.12776-0.33523 0.14377v0.13559h0.73826l1.529-1.7521h0.0119v0.70249c0 0.35532-0.0201 0.5427-0.032 0.65853-0.0198 0.1717-0.0998 0.2395-0.39519 0.25551v0.13559h0.97401v-0.13559zm-2.9136-0.004c-0.21565-0.0119-0.31547-0.0957-0.33523-0.23575-0.0201-0.12367-0.0361-0.27118-0.0361-0.55463v-0.43505c0-0.42312-0.0637-0.75835-0.2872-0.99785-0.18362-0.19181-0.45515-0.29162-0.73859-0.29162-0.26335 0-0.51477 0.0559-0.70657 0.20372-0.22349 0.17954-0.33115 0.47491-0.33115 0.94198v0.94199c0 0.37543-0.0399 0.39927-0.33523 0.42721v0.13968h1.2012v-0.13968c-0.29128-0.0279-0.33114-0.0518-0.33114-0.42721v-0.8701c0-0.59892 0.21531-0.94607 0.64661-0.94607 0.47491 0 0.68273 0.35942 0.68273 1.0258v0.42721c0 0.28345-0.0201 0.43505-0.0402 0.55463-0.0238 0.14002-0.11549 0.21974-0.38702 0.23575v0.13968h0.99786v-0.13968zm-2.8099-1.1297c0-0.86226-0.61868-1.3852-1.3733-1.3852-0.79822 0-1.3532 0.58699-1.3532 1.3494 0 0.68647 0.49126 1.361 1.4053 1.361 0.72633 0 1.3212-0.53896 1.3212-1.3252m-2.1115 0.044c0-0.68647 0.29946-1.2615 0.81014-1.2615 0.37918 0 0.68681 0.37134 0.68681 1.1058 0 0.79447-0.31956 1.2694-0.78663 1.2694-0.39894 0-0.71032-0.42312-0.71032-1.1137m-0.88986-0.68661c-0.0518-0.19555-0.15569-0.49909-0.22348-0.63877-0.10391-0.0238-0.47116-0.10357-0.74235-0.10357-1.0619 0-1.501 0.69056-1.501 1.3252 0 0.82206 0.62685 1.389 1.5808 1.389 0.32331 0 0.61868-0.0838 0.72633-0.10765 0.0361-0.21974 0.064-0.40337 0.092-0.6507l-0.14786-0.0279c-0.1315 0.47082-0.43913 0.61084-0.74643 0.61084-0.57881 0-0.89803-0.54304-0.89803-1.1338 0-0.73451 0.39519-1.2176 0.93789-1.2176 0.33148 0 0.57882 0.21157 0.78254 0.61493l0.13968-0.06z" fill="#fff"/><path id="line" d="m150.97 748.17h-45.157v0.36453h45.157v-0.36453z" fill="#fff"/><path id="established" d="m139.84 747.06c0.35226 0 0.53998-0.29844 0.53998-0.64798 0-0.46809-0.26982-0.79753-0.62481-0.94164-0.11583-0.046-0.31377-0.0794-0.41154-0.0821l-0.0129 0.0876c0.37543 0.064 0.64559 0.33421 0.71747 0.67387l-0.14138-0.0773c-0.0617-0.031-0.10527-0.0436-0.1516-0.0436-0.29571 0-0.48377 0.21088-0.48377 0.4807 0 0.23404 0.19555 0.55054 0.56587 0.55054h0.003zm-0.0487-0.0978c-0.15944 0-0.22144-0.19555-0.22144-0.35499 0-0.2211 0.12094-0.41154 0.31888-0.41154 0.0722 0 0.13116 0.0232 0.17238 0.0463 0.0102 0.0671 0.013 0.12878 0.013 0.18261 0 0.24427-0.0644 0.53759-0.28038 0.53759h-0.002zm-0.74241 0.0361c-0.24427-0.51954-0.49637-1.0469-0.73553-1.574l-0.23677-0.0283-0.0181 0.0334c0.29094 0.44493 0.55838 0.92597 0.77437 1.3552h-0.55054c-0.17239 0-0.19283-0.0204-0.2596-0.17988h-0.0848c0.0307 0.17988 0.046 0.31377 0.0617 0.42449h1.0261l0.0232-0.031zm-1.9296 0.0617c0.26505 0 0.45004-0.16966 0.45004-0.3911 0-0.0719-0.0256-0.14139-0.0797-0.19521-0.0334-0.0334-0.0875-0.0824-0.19282-0.15195 0.17749-0.0978 0.33931-0.2211 0.33931-0.44731 0-0.31377-0.31104-0.47832-0.5502-0.47832-0.31649 0-0.53759 0.16694-0.53759 0.43437 0 0.12094 0.0617 0.18533 0.11072 0.23166 0.046 0.0412 0.15433 0.11311 0.23643 0.15944-0.15432 0.0876-0.28038 0.21361-0.28038 0.40132 0 0.23405 0.20339 0.4371 0.50149 0.4371h0.003zm-0.008-1.5688c0.14921 0 0.25482 0.11311 0.2521 0.29299-0.002 0.18805-0.14922 0.27016-0.38054 0.3911-0.0927-0.0644-0.16216-0.18261-0.16216-0.31888 0-0.24427 0.15194-0.36521 0.28821-0.36521h0.002zm-0.0283 1.4738c-0.13355 0-0.20816-0.12367-0.20816-0.23916 0-0.18261 0.13866-0.26778 0.33183-0.35772 0.0589 0.0491 0.11821 0.13628 0.11821 0.28822 0 0.21872-0.13388 0.30866-0.23916 0.30866h-0.003zm-1.641-1.5381v0.0797c0.2136 0.0153 0.23404 0.0463 0.23404 0.23132v0.95425c0 0.13389-0.0102 0.14922-0.11821 0.15705l-0.12878 0.008v0.0695c0.16727 0.0283 0.34477 0.0746 0.54032 0.13388v-1.3222c0-0.17988 0.0177-0.21599 0.23132-0.23132v-0.0797h-0.75869zm-2.2148 1.6718c0.32399 0 0.57098-0.0644 0.73553-0.2211 0.12605-0.12094 0.22383-0.30627 0.22383-0.54782 0-0.31138-0.12367-0.53759-0.3216-0.68953-0.19044-0.1465-0.45515-0.21327-0.77403-0.21327h-0.6432v0.0821c0.21088 0.0157 0.23404 0.0337 0.23404 0.25211v1.0033c0 0.21838-0.0232 0.23371-0.21088 0.25176v0.0824h0.75631zm-0.24427-1.3195c0-0.18771 0.0566-0.24699 0.23644-0.24699 0.39621 0 0.62753 0.30866 0.62753 0.7512 0 0.2521-0.0821 0.46026-0.23405 0.57609-0.10799 0.0951-0.24937 0.14138-0.42414 0.14138-0.1005 0-0.15706-0.0181-0.1775-0.0334-0.0208-0.0232-0.0283-0.0593-0.0283-0.14411v-1.0442zm-0.80666 0.0669c-0.0153-0.10561-0.0668-0.34204-0.0899-0.41904h-1.2861v0.0821c0.22383 0.0181 0.247 0.0361 0.247 0.24937v1.0033c0 0.22621-0.0232 0.23916-0.21361 0.25449v0.0824h1.1883c0.003-0.0514 0.0153-0.22894 0.0256-0.38088l-0.0872-0.0126c-0.0232 0.0974-0.0542 0.17204-0.0951 0.2211-0.0412 0.0514-0.11072 0.0695-0.27016 0.0695h-0.15194c-0.0899 0-0.0978-0.005-0.0978-0.0876v-0.56314h0.19828c0.22621 0 0.2521 0.0153 0.28549 0.19521h0.0848v-0.50898h-0.0848c-0.0334 0.1826-0.0617 0.19521-0.28311 0.19521h-0.20066v-0.45753c0-0.12367 0.013-0.18533 0.062-0.21089 0.0487-0.0259 0.13865-0.0286 0.24665-0.0286 0.15705 0 0.2395 0.0181 0.29843 0.0852 0.0491 0.0538 0.0951 0.13865 0.139 0.24665l0.0848-0.0153zm-1.7019 1.1702c-0.20304-0.0181-0.2211-0.0334-0.2211-0.24938v-1.0084c0-0.21837 0.0204-0.23132 0.2211-0.24937v-0.0824h-0.75086v0.0824c0.21088 0.0181 0.23133 0.0334 0.23133 0.24937v0.49127h-0.76654v-0.49127c0-0.21599 0.0208-0.23132 0.21872-0.24937v-0.0824h-0.73314v0.0824c0.19316 0.0181 0.21633 0.031 0.21633 0.24937v1.0084c0 0.21838-0.0232 0.23132-0.22655 0.24938v0.0824h0.73553v-0.0824c-0.1901-0.0181-0.21089-0.0334-0.21089-0.24938v-0.39349h0.76654v0.39349c0 0.21599-0.0205 0.23132-0.216 0.24938v0.0824h0.73553v-0.0824zm-2.2504-0.32406c-0.0487 0.16217-0.13627 0.34716-0.34987 0.34716-0.16455 0-0.26471-0.11822-0.26471-0.26505 0-0.15944 0.10527-0.24155 0.32398-0.35227 0.24427-0.12094 0.45004-0.25721 0.45004-0.52465 0-0.28549-0.24188-0.50931-0.60709-0.50931-0.0974 0-0.18499 0.0157-0.25449 0.0388-0.0695 0.0204-0.11583 0.0385-0.14649 0.0538-0.0232 0.0617-0.0566 0.28038-0.0746 0.42449l0.0872 0.0232c0.0463-0.15944 0.18533-0.43982 0.43744-0.43982 0.17238 0 0.27765 0.1131 0.27765 0.28549 0 0.16455-0.12332 0.2596-0.31615 0.36248-0.22894 0.11583-0.43982 0.25211-0.43982 0.51443 0 0.27016 0.21327 0.48615 0.56826 0.48615 0.14649 0 0.28038-0.0436 0.34477-0.0644 0.0102-0.0923 0.0255-0.20304 0.0487-0.36248l-0.0848-0.0181zm-1.9721-1.2654v0.0824c0.19794 0.0153 0.2211 0.0334 0.2211 0.25176v1.0033c0 0.21838-0.0232 0.23644-0.2211 0.25211v0.0821h0.73826v-0.0821c-0.19828-0.0157-0.21872-0.0337-0.21872-0.25211v-1.0033c0-0.21838 0.0204-0.23643 0.21872-0.25176v-0.0824h-0.73826zm-0.26621 0.42435c-0.0204-0.0978-0.0719-0.35226-0.095-0.42448h-1.2193v0.0824c0.22144 0.0153 0.24427 0.0334 0.24427 0.2521v1.003c0 0.2211-0.0205 0.23677-0.22349 0.2521v0.0824h0.74302v-0.0824c-0.19793-0.0153-0.2211-0.031-0.2211-0.2521v-1.0081c0-0.12877 0.0102-0.17749 0.0617-0.20066 0.0463-0.0208 0.12095-0.0259 0.21089-0.0259 0.12366 0 0.2136 0.0157 0.27288 0.0852 0.0487 0.0514 0.0951 0.13355 0.13866 0.2596l0.0875-0.0232zm-2.0688 0.47328c0.28277-0.0361 0.48104-0.15433 0.48104-0.40371 0-0.17238-0.0954-0.30627-0.24188-0.38599-0.13116-0.0746-0.31888-0.108-0.52976-0.108h-0.62242v0.0848c0.20577 0.0157 0.22621 0.0337 0.22621 0.24972v1.003c0 0.21871-0.0181 0.23404-0.20816 0.2521v0.0821h0.71748c0.19555 0 0.31887-0.0283 0.41154-0.0872 0.0927-0.062 0.14922-0.17 0.14922-0.29333 0-0.24426-0.21088-0.34715-0.38327-0.38326v-0.0102zm-0.31104 0.0361c0.26232 0 0.37543 0.10288 0.37543 0.31615 0 0.21361-0.12367 0.32399-0.30355 0.32399-0.0593 0-0.10561-0.0126-0.12332-0.0283-0.0208-0.0177-0.0283-0.0538-0.0283-0.11821v-0.49365h0.0797zm-0.0797-0.59415c0-0.18771 0.0487-0.24188 0.19794-0.23916 0.16727 0.002 0.33931 0.108 0.33931 0.3676 0 0.24938-0.16182 0.36793-0.46298 0.36793h-0.0743v-0.49637zm-1.5305-0.33959v0.0824c0.15433 0.0228 0.17238 0.0487 0.13389 0.15944-0.0283 0.0848-0.0722 0.20577-0.11856 0.32909h-0.5117c-0.0334-0.0927-0.0695-0.19282-0.10016-0.29571-0.0439-0.139-0.031-0.17238 0.15671-0.19282v-0.0824h-0.56825v0.0824c0.16693 0.0204 0.20066 0.0463 0.28787 0.26743l0.52976 1.3297 0.11345 0.0307c0.16182-0.44732 0.32398-0.9103 0.49092-1.3528 0.0852-0.22622 0.11855-0.25722 0.2831-0.27493v-0.0824h-0.69703zm-0.23132 1.2885h-0.005c-0.077-0.19794-0.1465-0.3986-0.21838-0.59143h0.4296l-0.20577 0.59143zm-0.98416-0.0411c-0.031 0.13116-0.0617 0.20816-0.10289 0.25449-0.0436 0.0514-0.10016 0.0671-0.26743 0.0671h-0.139v-1.2374c0-0.21327 0.0232-0.23405 0.25722-0.24938v-0.0821h-0.80231v0.0821c0.22383 0.0153 0.247 0.0361 0.247 0.24938v1.2374h-0.11345c-0.21327 0-0.26232-0.0259-0.29809-0.0746-0.0388-0.0436-0.0671-0.12605-0.0978-0.24699h-0.0876c0.0102 0.17477 0.0256 0.35499 0.031 0.48854h0.0589c0.0388-0.0589 0.0722-0.0641 0.14411-0.0641h1.0289c0.0668 0 0.0978 0.0153 0.14138 0.0641h0.0593c0-0.11038 0.0126-0.32399 0.0255-0.4807l-0.0848-0.008zm-1.8453 0.018c-0.049 0.16217-0.13627 0.34716-0.34988 0.34716-0.16454 0-0.2647-0.11822-0.2647-0.26505 0-0.15944 0.10527-0.24155 0.32398-0.35227 0.24427-0.12094 0.45004-0.25721 0.45004-0.52465 0-0.28549-0.24188-0.50931-0.60709-0.50931-0.0974 0-0.18499 0.0157-0.25449 0.0388-0.0695 0.0204-0.11583 0.0385-0.14649 0.0538-0.0232 0.0617-0.0565 0.28038-0.0746 0.42449l0.0872 0.0232c0.0463-0.15944 0.18533-0.43982 0.43744-0.43982 0.17238 0 0.27765 0.1131 0.27765 0.28549 0 0.16455-0.12332 0.2596-0.31615 0.36248-0.22894 0.11583-0.43982 0.25211-0.43982 0.51443 0 0.27016 0.21327 0.48615 0.56826 0.48615 0.14649 0 0.28038-0.0436 0.34477-0.0644 0.0102-0.0923 0.0255-0.20304 0.0487-0.36248l-0.0848-0.0181zm-1.2317-0.84618c-0.0153-0.10561-0.0668-0.34204-0.0899-0.41904h-1.2861v0.0821c0.22383 0.0181 0.247 0.0361 0.247 0.24937v1.0033c0 0.22621-0.0232 0.23916-0.21361 0.25449v0.0824h1.1883c0.003-0.0514 0.0153-0.22894 0.0259-0.38088l-0.0876-0.0126c-0.0232 0.0974-0.0542 0.17204-0.095 0.2211-0.0412 0.0514-0.11072 0.0695-0.27016 0.0695h-0.15194c-0.0899 0-0.0974-0.005-0.0974-0.0876v-0.56314h0.19794c0.22621 0 0.2521 0.0153 0.28549 0.19521h0.0848v-0.50898h-0.0848c-0.0334 0.1826-0.0617 0.19521-0.28311 0.19521h-0.20032v-0.45753c0-0.12367 0.0126-0.18533 0.0617-0.21089 0.0487-0.0259 0.13865-0.0286 0.24665-0.0286 0.15705 0 0.2395 0.0181 0.29844 0.0852 0.049 0.0538 0.0954 0.13865 0.13899 0.24665l0.0848-0.0153z" fill="#fff"/></g></svg>
