<?xml version="1.0" encoding="utf-8"?>
<!-- Generator: Adobe Illustrator 24.0.1, SVG Export Plug-In . SVG Version: 6.00 Build 0)  -->
<svg version="1.1"
	 id="svg2" xmlns:cc="http://creativecommons.org/ns#" xmlns:dc="http://purl.org/dc/elements/1.1/" xmlns:rdf="http://www.w3.org/1999/02/22-rdf-syntax-ns#"
	 xmlns="http://www.w3.org/2000/svg" xmlns:xlink="http://www.w3.org/1999/xlink" x="0px" y="0px" viewBox="0 0 65 45"
	 enable-background="new 0 0 65 45" xml:space="preserve">
<g id="g10" transform="matrix(1.25 0 0 -1.25 -128.13 968.57)">
	<path id="fox" fill="#ED1C24" d="M148.66,763.62c-0.777-0.303-4.417,0.683-6.837,1.552c-2.517,0.905-5.742,0.134-5.742,0.134
		s-1.469,0.826-4.388,0.837c-1.577,0.006-3.863-0.808-7.144-0.786c-3.188,0.021-4.261,1.234-4.261,1.234s-0.216-0.177-0.385-0.277
		c-0.418-0.246-0.889-0.251-0.889-0.251s0.877,0.408,1.429,1.095c0.552,0.687,0.646,1.16,0.646,1.16s-1.067,0.038-1.804-0.378
		c-0.737-0.416-1.254-0.887-1.254-0.887s-0.333,0.018-1.148-0.219c-0.816-0.237-1.043-0.311-1.137-0.415
		c-0.095-0.103-0.184-0.49-0.345-0.568s-1.609-0.476-1.634-0.518c-0.025-0.042,0.206-0.395,0.22-0.426
		c0.014-0.03-0.002-0.079,0.016-0.109c0.018-0.031,0.186-0.25,0.297-0.256c0.111-0.006,2.071-0.007,3.448-0.454
		c0.792-0.257,1.484-0.573,1.932-0.82c0.161-0.086,0.149-0.204,0.123-0.256c-0.045-0.088-0.427-0.079-1.389-0.064
		c-0.962,0.015-1.543-0.004-2.179-0.059c-0.636-0.055-1.252-0.44-2.198-0.606c-0.946-0.166-1.311-0.21-1.351-0.439
		c-0.039-0.23,0.578-0.264,1.174-0.233c0.595,0.031,1.29,0.586,2.073,0.671c0.783,0.085,3.528-0.166,3.528-0.166
		s-0.018-0.164-0.562-0.378c-0.373-0.06-0.694-0.122-1.029-0.197c-0.622-0.139-1.32-0.625-2.233-0.917
		c-0.914-0.291-1.269-0.383-1.276-0.616c-0.007-0.233,0.624-0.24,1.195-0.074c0.593,0.173,1.49,0.862,2.244,0.97
		c0.311,0.045,2.786,0.265,2.994,0.279c1.629,0.042,2.846-0.394,3.033-0.376c0.23,0.021,0.68,0.661,0.68,0.661
		c0.633-0.043,2.771-0.574,4.132,0.307c1.579,1.021,1.965,0.976,1.965,0.976l-0.531-0.422c0,0,0.242-0.463,1.474-0.627
		c1.01-0.134,2.063-0.065,2.063-0.065s-0.531,0.304-0.813,0.581c-0.428,0.42-0.517,0.888-0.523,0.895c0,0,0.98-1.305,2.881-1.733
		c0.854-0.193,1.995,0.288,2.319,0.193c0.324-0.095,0.337-0.341,1.253-1.139c0.917-0.798,1.547-1.078,1.764-0.743
		c0.217,0.336-0.966,0.853-1.393,1.224c-0.427,0.372-0.795,0.843-0.795,0.843s0.423,0.028,0.957-0.092
		c0.534-0.12,0.998-0.313,1.72-0.818c0.723-0.504,1.114-1.041,1.489-1.397c0.375-0.356,0.747-0.55,0.864-0.577
		c0.407-0.094,0.481,0.203,0.338,0.368c-0.104,0.118-0.953,0.896-1.87,1.65c-0.805,0.663-1.635,1.598-1.805,1.621
		c-0.17,0.023-0.834-0.056-1.51-0.109c-0.676-0.052-1.197,0.53-1.539,1.001c-0.342,0.47-0.955,0.939-0.955,0.939
		s2.628,0.2,4.213-0.439c1.613-0.65,3.585-1.85,4.858-1.987C147.702,761.636,148.814,763.679,148.66,763.62"/>
	<path id="tail" fill="#FFFFFF" d="M116.67,766.15c0.169,0.017,0.556,0.003,0.556,0.003s-0.212-0.227-0.493-0.26
		C116.504,765.866,116.31,766.114,116.67,766.15 M120.85,763.383c-0.089-0.196-0.934,0.479-2.241,0.875
		c-1.686,0.511-3.703,0.467-3.862,0.476c-0.159,0.009-0.123,0.09-0.027,0.095c0,0,0.774,0.123,2.888-0.005
		C119.7,764.697,121.069,763.871,120.85,763.383 M145.56,762.326c-0.146,0-0.298,0.008-0.45,0.024
		c-0.122,0.013-0.26,0.045-0.405,0.084c0.331,0.354,0.554,0.797,0.666,1.271c0.954-0.242,1.855-0.427,2.511-0.48
		C147.455,762.815,146.69,762.325,145.56,762.326"/>
	<path id="leicestershire" fill="#1D1D1B" d="M151.2,754.56c-0.042-0.267-0.16-0.807-0.208-0.985h-3.027v0.208
		c0.505,0.042,0.564,0.077,0.564,0.582v2.279c0,0.516-0.059,0.546-0.481,0.582v0.207h2.796c0.006-0.107,0.035-0.522,0.059-0.89
		l-0.22-0.03c-0.053,0.208-0.13,0.404-0.237,0.51c-0.101,0.107-0.261,0.149-0.593,0.149h-0.285c-0.22,0-0.243-0.012-0.243-0.208
		v-1.258h0.398c0.499,0,0.582,0.03,0.659,0.445h0.214v-1.193h-0.214c-0.077,0.428-0.154,0.451-0.659,0.451h-0.398v-1.033
		c0-0.285,0.023-0.427,0.142-0.487c0.107-0.047,0.309-0.059,0.534-0.059c0.309,0,0.516,0.042,0.653,0.19
		c0.119,0.13,0.226,0.32,0.333,0.582L151.2,754.56L151.2,754.56z M147.781,753.521c-0.035,0-0.101,0.006-0.178,0.006
		c-0.748,0.036-0.973,0.202-1.217,0.576c-0.154,0.243-0.315,0.564-0.487,0.879c-0.095,0.178-0.202,0.255-0.392,0.255h-0.113v-0.867
		c0-0.493,0.053-0.546,0.505-0.588v-0.207h-1.792v0.207c0.445,0.042,0.51,0.095,0.51,0.588v2.279c0,0.475-0.053,0.534-0.487,0.576
		v0.208h1.668c0.522,0,0.819-0.059,1.063-0.22c0.237-0.16,0.398-0.421,0.398-0.789c0-0.522-0.344-0.807-0.742-0.967
		c0.089-0.178,0.309-0.57,0.487-0.843c0.208-0.333,0.338-0.522,0.451-0.647c0.13-0.136,0.231-0.207,0.362-0.255L147.781,753.521
		L147.781,753.521z M145.549,755.474c0.249,0,0.451,0.042,0.582,0.154c0.202,0.166,0.285,0.404,0.285,0.706
		c0,0.635-0.368,0.861-0.7,0.861c-0.148,0-0.231-0.024-0.267-0.059c-0.042-0.036-0.053-0.095-0.053-0.22v-1.442H145.549
		L145.549,755.474z M142.054,753.575v0.208c0.445,0.042,0.498,0.083,0.498,0.582v2.273c0,0.51-0.053,0.546-0.498,0.588v0.207h1.786
		v-0.207c-0.445-0.042-0.493-0.077-0.493-0.588v-2.273c0-0.498,0.047-0.54,0.493-0.582v-0.208H142.054z M141.614,757.225
		c-0.463-0.042-0.498-0.077-0.498-0.582v-2.285c0-0.498,0.047-0.534,0.498-0.576v-0.208h-1.81v0.208
		c0.469,0.042,0.516,0.077,0.516,0.582v1.104h-1.62v-1.104c0-0.505,0.047-0.54,0.486-0.582v-0.208h-1.768v0.208
		c0.433,0.042,0.486,0.077,0.486,0.582v2.279c0,0.504-0.053,0.54-0.51,0.582v0.208h1.781v-0.208
		c-0.428-0.042-0.475-0.077-0.475-0.582v-0.872h1.62v0.872c0,0.504-0.047,0.54-0.493,0.582v0.208h1.786L141.614,757.225
		L141.614,757.225z M137.038,756.465c-0.119,0.374-0.344,0.813-0.825,0.813c-0.332,0-0.576-0.244-0.576-0.588
		c0-0.326,0.214-0.51,0.736-0.777c0.623-0.303,1.05-0.635,1.05-1.223c0-0.677-0.575-1.205-1.442-1.205
		c-0.214,0-0.421,0.03-0.6,0.083c-0.166,0.047-0.279,0.095-0.356,0.13c-0.059,0.149-0.137,0.647-0.178,1.003l0.208,0.071
		c0.119-0.38,0.469-1.051,1.039-1.051c0.362,0,0.593,0.249,0.593,0.629c0,0.35-0.261,0.57-0.706,0.807
		c-0.605,0.309-1.033,0.629-1.033,1.199c0,0.653,0.516,1.163,1.359,1.163c0.38,0,0.718-0.119,0.825-0.154
		c0.023-0.22,0.065-0.487,0.113-0.855L137.038,756.465L137.038,756.465z M134.771,753.521c-0.035,0-0.101,0.006-0.178,0.006
		c-0.748,0.036-0.973,0.202-1.217,0.576c-0.154,0.243-0.315,0.564-0.487,0.879c-0.095,0.178-0.202,0.255-0.392,0.255h-0.113v-0.867
		c0-0.493,0.053-0.546,0.505-0.588v-0.207h-1.792v0.207c0.445,0.042,0.51,0.095,0.51,0.588v2.279c0,0.475-0.053,0.534-0.487,0.576
		v0.208h1.668c0.522,0,0.819-0.059,1.063-0.22c0.237-0.16,0.398-0.421,0.398-0.789c0-0.522-0.344-0.807-0.742-0.967
		c0.089-0.178,0.309-0.57,0.487-0.843c0.207-0.333,0.338-0.522,0.451-0.647c0.13-0.136,0.231-0.207,0.362-0.255L134.771,753.521
		L134.771,753.521z M132.539,755.474c0.249,0,0.451,0.042,0.582,0.154c0.202,0.166,0.285,0.404,0.285,0.706
		c0,0.635-0.368,0.861-0.7,0.861c-0.148,0-0.231-0.024-0.267-0.059c-0.042-0.036-0.053-0.095-0.053-0.22v-1.442H132.539
		L132.539,755.474z M131.008,754.56c-0.042-0.267-0.16-0.807-0.208-0.985h-3.027v0.208c0.505,0.042,0.564,0.077,0.564,0.582v2.279
		c0,0.516-0.059,0.546-0.481,0.582v0.207h2.796c0.006-0.107,0.035-0.522,0.059-0.89l-0.22-0.03c-0.053,0.208-0.13,0.404-0.237,0.51
		c-0.101,0.107-0.261,0.149-0.593,0.149h-0.285c-0.22,0-0.243-0.012-0.243-0.208v-1.258h0.398c0.499,0,0.582,0.03,0.659,0.445h0.214
		v-1.193h-0.214c-0.077,0.428-0.154,0.451-0.659,0.451h-0.398v-1.033c0-0.285,0.023-0.427,0.142-0.487
		c0.107-0.047,0.309-0.059,0.534-0.059c0.309,0,0.516,0.042,0.653,0.19c0.119,0.13,0.226,0.32,0.333,0.582L131.008,754.56
		L131.008,754.56z M127.375,756.418c-0.071,0.309-0.154,0.51-0.261,0.617c-0.107,0.107-0.255,0.137-0.605,0.137h-0.267v-2.808
		c0-0.505,0.06-0.54,0.582-0.582v-0.208h-1.935v0.208c0.499,0.041,0.558,0.077,0.558,0.582v2.808h-0.202
		c-0.493,0-0.599-0.06-0.682-0.16c-0.101-0.101-0.172-0.302-0.249-0.599h-0.219c0.023,0.433,0.059,0.866,0.071,1.169h0.148
		c0.089-0.131,0.166-0.149,0.338-0.149h2.386c0.154,0,0.237,0.036,0.338,0.149h0.149c0.006-0.249,0.035-0.772,0.065-1.151
		L127.375,756.418L127.375,756.418z M123.588,756.465c-0.119,0.374-0.344,0.813-0.825,0.813c-0.332,0-0.576-0.244-0.576-0.588
		c0-0.326,0.214-0.51,0.736-0.777c0.623-0.303,1.05-0.635,1.05-1.223c0-0.677-0.576-1.205-1.442-1.205
		c-0.214,0-0.421,0.03-0.6,0.083c-0.166,0.047-0.279,0.095-0.356,0.13c-0.059,0.149-0.137,0.647-0.178,1.003l0.208,0.071
		c0.119-0.38,0.469-1.051,1.039-1.051c0.362,0,0.593,0.249,0.593,0.629c0,0.35-0.261,0.57-0.706,0.807
		c-0.605,0.309-1.033,0.629-1.033,1.199c0,0.653,0.516,1.163,1.359,1.163c0.38,0,0.718-0.119,0.825-0.154
		c0.023-0.22,0.065-0.487,0.113-0.855L123.588,756.465L123.588,756.465z M121.113,754.56c-0.042-0.267-0.16-0.807-0.208-0.985
		h-3.027v0.208c0.505,0.042,0.564,0.077,0.564,0.582v2.279c0,0.516-0.059,0.546-0.481,0.582v0.207h2.796
		c0.006-0.107,0.035-0.522,0.059-0.89l-0.22-0.03c-0.053,0.208-0.13,0.404-0.237,0.51c-0.101,0.107-0.261,0.149-0.593,0.149h-0.285
		c-0.22,0-0.243-0.012-0.243-0.208v-1.258h0.398c0.498,0,0.582,0.03,0.659,0.445h0.214v-1.193h-0.214
		c-0.077,0.428-0.154,0.451-0.659,0.451h-0.398v-1.033c0-0.285,0.023-0.427,0.142-0.487c0.107-0.047,0.309-0.059,0.534-0.059
		c0.309,0,0.516,0.042,0.653,0.19c0.119,0.13,0.226,0.32,0.332,0.582L121.113,754.56L121.113,754.56z M117.807,754.59
		c-0.077-0.291-0.231-0.742-0.333-0.95c-0.154-0.035-0.7-0.154-1.104-0.154c-1.579,0-2.232,1.027-2.232,1.971
		c0,1.223,0.932,2.065,2.35,2.065c0.481,0,0.92-0.125,1.08-0.16c0.053-0.326,0.095-0.6,0.137-0.968l-0.22-0.042
		c-0.196,0.7-0.653,0.908-1.11,0.908c-0.861,0-1.336-0.807-1.336-1.686c0-1.092,0.588-1.81,1.395-1.81
		c0.493,0,0.861,0.315,1.163,0.914L117.807,754.59L117.807,754.59z M112.341,753.575v0.208c0.445,0.042,0.498,0.083,0.498,0.582
		v2.273c0,0.51-0.053,0.546-0.498,0.588v0.207h1.786v-0.207c-0.445-0.042-0.493-0.077-0.493-0.588v-2.273
		c0-0.498,0.047-0.54,0.493-0.582v-0.208H112.341z M112.24,754.56c-0.042-0.267-0.16-0.807-0.208-0.985h-3.027v0.208
		c0.505,0.042,0.564,0.077,0.564,0.582v2.279c0,0.516-0.059,0.546-0.481,0.582v0.207h2.796c0.006-0.107,0.035-0.522,0.059-0.89
		l-0.22-0.03c-0.053,0.208-0.13,0.404-0.237,0.51c-0.101,0.107-0.261,0.149-0.593,0.149h-0.285c-0.22,0-0.243-0.012-0.243-0.208
		v-1.258h0.398c0.498,0,0.582,0.03,0.659,0.445h0.214v-1.193h-0.214c-0.077,0.428-0.154,0.451-0.659,0.451h-0.398v-1.033
		c0-0.285,0.023-0.427,0.142-0.487c0.107-0.047,0.309-0.059,0.534-0.059c0.309,0,0.516,0.042,0.653,0.19
		c0.119,0.13,0.226,0.32,0.332,0.582L112.24,754.56L112.24,754.56z M108.922,754.578c-0.047-0.255-0.172-0.843-0.22-1.003h-2.89
		v0.208c0.516,0.041,0.576,0.077,0.576,0.582v2.273c0,0.51-0.059,0.546-0.511,0.587v0.208h1.81v-0.208
		c-0.451-0.042-0.505-0.077-0.505-0.587v-2.321c0-0.279,0.024-0.38,0.142-0.433c0.107-0.042,0.261-0.054,0.445-0.054
		c0.255,0,0.469,0.042,0.612,0.202c0.107,0.119,0.219,0.309,0.326,0.612L108.922,754.578L108.922,754.578z"/>
	<path id="county_cricket_club" fill="#1D1D1B" d="M150.31,751.21c0.463-0.056,0.767-0.244,0.767-0.623
		c0-0.267-0.148-0.475-0.371-0.599c-0.204-0.116-0.511-0.172-0.842-0.172h-1.014v0.14c0.307,0.028,0.343,0.056,0.343,0.395v1.525
		c0,0.343-0.036,0.367-0.319,0.395v0.14h1.165c0.307,0,0.507-0.04,0.659-0.136c0.148-0.096,0.235-0.259,0.235-0.455
		c0-0.383-0.336-0.539-0.623-0.595V751.21L150.31,751.21z M149.811,751.266c0.383,0,0.555,0.152,0.555,0.483
		c0,0.363-0.216,0.499-0.431,0.499c-0.092,0-0.155-0.028-0.18-0.052c-0.028-0.028-0.036-0.088-0.036-0.172v-0.758H149.811
		L149.811,751.266z M149.719,750.36c0-0.295,0.08-0.379,0.291-0.375c0.223,0.004,0.475,0.168,0.475,0.559
		c0,0.375-0.235,0.563-0.686,0.563h-0.08L149.719,750.36L149.719,750.36z M148.686,752.272c-0.216-0.012-0.315-0.096-0.335-0.236
		c-0.02-0.124-0.036-0.271-0.036-0.555v-0.435c0-0.423-0.064-0.758-0.287-0.998c-0.184-0.192-0.455-0.292-0.739-0.292
		c-0.263,0-0.515,0.056-0.707,0.204c-0.223,0.18-0.331,0.475-0.331,0.942v0.942c0,0.375-0.04,0.399-0.335,0.427v0.14h1.201v-0.14
		c-0.291-0.028-0.331-0.052-0.331-0.427v-0.87c0-0.599,0.215-0.946,0.647-0.946c0.475,0,0.682,0.359,0.682,1.026v0.427
		c0,0.283-0.02,0.435-0.04,0.555c-0.024,0.14-0.115,0.22-0.387,0.236v0.14h0.998L148.686,752.272L148.686,752.272z M146.008,750.491
		c-0.032-0.172-0.116-0.567-0.148-0.675h-1.944v0.14c0.348,0.028,0.387,0.052,0.387,0.391v1.529c0,0.343-0.04,0.367-0.343,0.395
		v0.14h1.218v-0.14c-0.304-0.028-0.339-0.052-0.339-0.395v-1.561c0-0.187,0.016-0.255,0.096-0.291
		c0.072-0.028,0.176-0.036,0.299-0.036c0.172,0,0.315,0.028,0.411,0.136c0.072,0.08,0.148,0.207,0.219,0.411L146.008,750.491
		L146.008,750.491z M143.757,750.499c-0.052-0.196-0.156-0.499-0.223-0.639c-0.104-0.024-0.471-0.104-0.743-0.104
		c-1.062,0-1.501,0.691-1.501,1.325c0,0.822,0.627,1.389,1.581,1.389c0.323,0,0.619-0.084,0.726-0.108
		c0.036-0.22,0.064-0.403,0.092-0.651l-0.148-0.028c-0.132,0.471-0.439,0.611-0.746,0.611c-0.579,0-0.898-0.543-0.898-1.134
		c0-0.734,0.395-1.218,0.938-1.218c0.331,0,0.579,0.212,0.783,0.615L143.757,750.499L143.757,750.499z M140.013,751.729
		c-0.048,0.207-0.104,0.343-0.175,0.415c-0.072,0.071-0.172,0.092-0.407,0.092h-0.18v-1.888c0-0.339,0.04-0.363,0.391-0.391v-0.14
		h-1.301v0.14c0.335,0.028,0.375,0.052,0.375,0.391v1.888h-0.136c-0.331,0-0.403-0.04-0.459-0.108
		c-0.068-0.068-0.115-0.204-0.168-0.403h-0.148c0.016,0.292,0.04,0.583,0.048,0.786h0.1c0.06-0.088,0.112-0.099,0.228-0.099h1.605
		c0.104,0,0.16,0.024,0.228,0.099h0.1c0.004-0.168,0.024-0.519,0.044-0.774L140.013,751.729L140.013,751.729z M137.678,750.479
		c-0.028-0.18-0.108-0.543-0.14-0.663h-2.036v0.14c0.339,0.028,0.379,0.052,0.379,0.391v1.533c0,0.347-0.04,0.367-0.323,0.391v0.14
		h1.88c0.004-0.072,0.024-0.351,0.04-0.599l-0.148-0.02c-0.036,0.14-0.088,0.271-0.16,0.343c-0.068,0.072-0.176,0.1-0.399,0.1
		h-0.191c-0.148,0-0.164-0.008-0.164-0.14v-0.846h0.267c0.336,0,0.391,0.02,0.443,0.299h0.144v-0.802h-0.144
		c-0.052,0.288-0.104,0.304-0.443,0.304h-0.267v-0.695c0-0.192,0.016-0.288,0.096-0.327c0.072-0.032,0.207-0.04,0.359-0.04
		c0.207,0,0.348,0.028,0.439,0.128c0.08,0.088,0.152,0.216,0.223,0.391L137.678,750.479L137.678,750.479z M134.58,749.817
		c-0.172,0.235-0.503,0.702-0.786,1.118c-0.084,0.12-0.136,0.144-0.196,0.136v-0.719c0-0.343,0.036-0.367,0.343-0.395v-0.14h-1.193
		v0.14c0.288,0.028,0.327,0.052,0.327,0.395v1.525c0,0.343-0.036,0.367-0.336,0.395v0.14h1.174v-0.14
		c-0.283-0.028-0.315-0.052-0.315-0.395v-0.679c0.084,0.024,0.184,0.088,0.303,0.212c0.267,0.272,0.427,0.467,0.559,0.647
		c0.096,0.124,0.088,0.184-0.1,0.207l-0.072,0.008v0.14h1.038v-0.14c-0.247-0.024-0.411-0.072-0.631-0.279
		c-0.235-0.216-0.403-0.407-0.583-0.591c0.256-0.383,0.551-0.787,0.838-1.15c0.164-0.207,0.271-0.272,0.431-0.295v-0.14
		L134.58,749.817L134.58,749.817z M132.529,750.499c-0.052-0.196-0.156-0.499-0.223-0.639c-0.104-0.024-0.471-0.104-0.743-0.104
		c-1.062,0-1.501,0.691-1.501,1.325c0,0.822,0.627,1.389,1.581,1.389c0.323,0,0.619-0.084,0.726-0.108
		c0.036-0.22,0.064-0.403,0.092-0.651l-0.148-0.028c-0.132,0.471-0.439,0.611-0.746,0.611c-0.579,0-0.898-0.543-0.898-1.134
		c0-0.734,0.395-1.218,0.938-1.218c0.331,0,0.579,0.212,0.783,0.615L132.529,750.499L132.529,750.499z M128.693,749.817v0.14
		c0.299,0.028,0.335,0.056,0.335,0.391v1.529c0,0.343-0.036,0.367-0.335,0.395v0.14h1.202v-0.14
		c-0.299-0.028-0.331-0.052-0.331-0.395v-1.529c0-0.335,0.032-0.363,0.331-0.391v-0.14H128.693z M128.526,749.781
		c-0.024,0-0.068,0.004-0.12,0.004c-0.503,0.024-0.654,0.136-0.818,0.387c-0.104,0.164-0.212,0.379-0.327,0.591
		c-0.064,0.12-0.136,0.172-0.264,0.172h-0.076v-0.583c0-0.331,0.036-0.367,0.339-0.395v-0.14h-1.206v0.14
		c0.299,0.028,0.343,0.064,0.343,0.395v1.533c0,0.319-0.036,0.359-0.327,0.387v0.14h1.122c0.351,0,0.551-0.04,0.714-0.148
		c0.16-0.108,0.267-0.283,0.267-0.531c0-0.352-0.232-0.543-0.499-0.651c0.06-0.12,0.208-0.383,0.327-0.567
		c0.14-0.223,0.228-0.351,0.304-0.435c0.087-0.092,0.156-0.14,0.243-0.172L128.526,749.781L128.526,749.781z M127.025,751.094
		c0.168,0,0.304,0.028,0.391,0.104c0.136,0.112,0.191,0.272,0.191,0.475c0,0.427-0.247,0.579-0.471,0.579
		c-0.1,0-0.156-0.016-0.18-0.04c-0.028-0.024-0.036-0.064-0.036-0.148v-0.97L127.025,751.094L127.025,751.094z M125.852,750.499
		c-0.052-0.196-0.156-0.499-0.223-0.639c-0.104-0.024-0.471-0.104-0.742-0.104c-1.062,0-1.501,0.691-1.501,1.325
		c0,0.822,0.627,1.389,1.581,1.389c0.323,0,0.619-0.084,0.726-0.108c0.036-0.22,0.064-0.403,0.092-0.651l-0.148-0.028
		c-0.132,0.471-0.439,0.611-0.746,0.611c-0.579,0-0.898-0.543-0.898-1.134c0-0.734,0.395-1.218,0.938-1.218
		c0.331,0,0.579,0.212,0.783,0.615L125.852,750.499L125.852,750.499z M122.315,752.272c-0.251-0.028-0.331-0.1-0.479-0.335
		c-0.148-0.236-0.256-0.407-0.447-0.783c-0.06-0.108-0.072-0.152-0.072-0.275v-0.511c0-0.363,0.028-0.387,0.387-0.415v-0.136h-1.297
		v0.136c0.339,0.028,0.375,0.052,0.375,0.415v0.443c0,0.1-0.016,0.14-0.052,0.22c-0.108,0.216-0.255,0.483-0.495,0.906
		c-0.148,0.263-0.216,0.303-0.435,0.335v0.14h1.138v-0.14c-0.26-0.036-0.256-0.084-0.188-0.228c0.14-0.279,0.304-0.575,0.459-0.87
		c0.116,0.228,0.32,0.603,0.415,0.846c0.064,0.159,0.06,0.215-0.235,0.251v0.14h0.926L122.315,752.272L122.315,752.272z
		 M119.418,751.729c-0.048,0.207-0.104,0.343-0.176,0.415c-0.072,0.071-0.171,0.092-0.407,0.092h-0.18v-1.888
		c0-0.339,0.04-0.363,0.391-0.391v-0.14h-1.301v0.14c0.335,0.028,0.375,0.052,0.375,0.391v1.888h-0.136
		c-0.331,0-0.403-0.04-0.459-0.108c-0.068-0.068-0.116-0.204-0.168-0.403h-0.148c0.016,0.292,0.04,0.583,0.048,0.786h0.1
		c0.06-0.088,0.112-0.099,0.228-0.099h1.605c0.104,0,0.16,0.024,0.228,0.099h0.1c0.004-0.168,0.024-0.519,0.044-0.774
		L119.418,751.729L119.418,751.729z M117.039,752.276c-0.216-0.012-0.299-0.068-0.319-0.248c-0.012-0.124-0.036-0.311-0.036-0.666
		v-1.585h-0.191l-1.66,1.988h-0.012v-0.894c0-0.351,0.02-0.531,0.032-0.651c0.02-0.176,0.088-0.251,0.383-0.264v-0.14h-0.978v0.14
		c0.223,0.016,0.315,0.08,0.331,0.252c0.016,0.131,0.04,0.311,0.04,0.663v0.83c0,0.263-0.004,0.335-0.08,0.431
		c-0.076,0.096-0.164,0.128-0.335,0.144v0.136h0.738l1.529-1.752h0.012v0.703c0,0.355-0.02,0.543-0.032,0.659
		c-0.02,0.172-0.1,0.24-0.395,0.255v0.136h0.974L117.039,752.276L117.039,752.276z M114.126,752.272
		c-0.216-0.012-0.315-0.096-0.335-0.236c-0.02-0.124-0.036-0.271-0.036-0.555v-0.435c0-0.423-0.064-0.758-0.287-0.998
		c-0.184-0.192-0.455-0.292-0.739-0.292c-0.263,0-0.515,0.056-0.707,0.204c-0.223,0.18-0.331,0.475-0.331,0.942v0.942
		c0,0.375-0.04,0.399-0.335,0.427v0.14h1.201v-0.14c-0.291-0.028-0.331-0.052-0.331-0.427v-0.87c0-0.599,0.215-0.946,0.647-0.946
		c0.475,0,0.683,0.359,0.683,1.026v0.427c0,0.283-0.02,0.435-0.04,0.555c-0.024,0.14-0.115,0.22-0.387,0.236v0.14h0.998
		L114.126,752.272L114.126,752.272z M111.316,751.142c0-0.862-0.619-1.385-1.373-1.385c-0.798,0-1.353,0.587-1.353,1.349
		c0,0.686,0.491,1.361,1.405,1.361C110.721,752.467,111.316,751.928,111.316,751.142 M109.204,751.186
		c0-0.686,0.299-1.261,0.81-1.261c0.379,0,0.687,0.371,0.687,1.106c0,0.794-0.32,1.269-0.787,1.269
		C109.515,752.3,109.204,751.877,109.204,751.186 M108.314,750.5c-0.052-0.196-0.156-0.499-0.223-0.639
		c-0.104-0.024-0.471-0.104-0.742-0.104c-1.062,0-1.501,0.691-1.501,1.325c0,0.822,0.627,1.389,1.581,1.389
		c0.323,0,0.619-0.084,0.726-0.108c0.036-0.22,0.064-0.403,0.092-0.651l-0.148-0.028c-0.132,0.471-0.439,0.611-0.746,0.611
		c-0.579,0-0.898-0.543-0.898-1.134c0-0.734,0.395-1.218,0.938-1.218c0.331,0,0.579,0.212,0.783,0.615L108.314,750.5L108.314,750.5z
		"/>
	<path id="line" fill="#1D1D1B" d="M150.97,748.17h-45.157v0.365h45.157V748.17z"/>
	<path id="established" fill="#1D1D1B" d="M139.84,747.06c0.352,0,0.54-0.298,0.54-0.648c0-0.468-0.27-0.798-0.625-0.942
		c-0.116-0.046-0.314-0.079-0.412-0.082l-0.013,0.088c0.375,0.064,0.646,0.334,0.717,0.674l-0.141-0.077
		c-0.062-0.031-0.105-0.044-0.152-0.044c-0.296,0-0.484,0.211-0.484,0.481c0,0.234,0.196,0.551,0.566,0.551L139.84,747.06
		L139.84,747.06z M139.791,746.962c-0.159,0-0.221-0.196-0.221-0.355c0-0.221,0.121-0.412,0.319-0.412
		c0.072,0,0.131,0.023,0.172,0.046c0.01,0.067,0.013,0.129,0.013,0.183c0,0.244-0.064,0.538-0.28,0.538H139.791L139.791,746.962z
		 M139.049,746.998c-0.244-0.52-0.496-1.047-0.736-1.574l-0.237-0.028l-0.018,0.033c0.291,0.445,0.558,0.926,0.774,1.355h-0.551
		c-0.172,0-0.193-0.02-0.26-0.18h-0.085c0.031,0.18,0.046,0.314,0.062,0.424h1.026L139.049,746.998L139.049,746.998z
		 M137.119,747.06c0.265,0,0.45-0.17,0.45-0.391c0-0.072-0.026-0.141-0.08-0.195c-0.033-0.033-0.087-0.082-0.193-0.152
		c0.177-0.098,0.339-0.221,0.339-0.447c0-0.314-0.311-0.478-0.55-0.478c-0.316,0-0.538,0.167-0.538,0.434
		c0,0.121,0.062,0.185,0.111,0.232c0.046,0.041,0.154,0.113,0.236,0.159c-0.154,0.088-0.28,0.214-0.28,0.401
		c0,0.234,0.203,0.437,0.501,0.437L137.119,747.06L137.119,747.06z M137.111,745.491c0.149,0,0.255,0.113,0.252,0.293
		c-0.002,0.188-0.149,0.27-0.381,0.391c-0.093-0.064-0.162-0.183-0.162-0.319c0-0.244,0.152-0.365,0.288-0.365L137.111,745.491
		L137.111,745.491z M137.083,746.965c-0.134,0-0.208-0.124-0.208-0.239c0-0.183,0.139-0.268,0.332-0.358
		c0.059,0.049,0.118,0.136,0.118,0.288c0,0.219-0.134,0.309-0.239,0.309H137.083L137.083,746.965z M135.442,745.427v0.08
		c0.214,0.015,0.234,0.046,0.234,0.231v0.954c0,0.134-0.01,0.149-0.118,0.157l-0.129,0.008v0.07c0.167,0.028,0.345,0.075,0.54,0.134
		v-1.322c0-0.18,0.018-0.216,0.231-0.231v-0.08L135.442,745.427L135.442,745.427z M133.227,747.099c0.324,0,0.571-0.064,0.736-0.221
		c0.126-0.121,0.224-0.306,0.224-0.548c0-0.311-0.124-0.538-0.322-0.69c-0.19-0.146-0.455-0.213-0.774-0.213h-0.643v0.082
		c0.211,0.016,0.234,0.034,0.234,0.252v1.003c0,0.218-0.023,0.234-0.211,0.252v0.082H133.227L133.227,747.099z M132.983,745.779
		c0-0.188,0.057-0.247,0.236-0.247c0.396,0,0.628,0.309,0.628,0.751c0,0.252-0.082,0.46-0.234,0.576
		c-0.108,0.095-0.249,0.141-0.424,0.141c-0.1,0-0.157-0.018-0.178-0.033c-0.021-0.023-0.028-0.059-0.028-0.144L132.983,745.779
		L132.983,745.779z M132.176,745.846c-0.015-0.106-0.067-0.342-0.09-0.419H130.8v0.082c0.224,0.018,0.247,0.036,0.247,0.249v1.003
		c0,0.226-0.023,0.239-0.214,0.255v0.082h1.188c0.003-0.051,0.015-0.229,0.026-0.381l-0.087-0.013
		c-0.023,0.097-0.054,0.172-0.095,0.221c-0.041,0.051-0.111,0.07-0.27,0.07h-0.152c-0.09,0-0.098-0.005-0.098-0.088v-0.563h0.198
		c0.226,0,0.252,0.015,0.285,0.195h0.085v-0.509h-0.085c-0.033,0.183-0.062,0.195-0.283,0.195h-0.201v-0.458
		c0-0.124,0.013-0.185,0.062-0.211c0.049-0.026,0.139-0.029,0.247-0.029c0.157,0,0.24,0.018,0.298,0.085
		c0.049,0.054,0.095,0.139,0.139,0.247L132.176,745.846L132.176,745.846z M130.474,747.016c-0.203-0.018-0.221-0.033-0.221-0.249
		v-1.008c0-0.218,0.02-0.231,0.221-0.249v-0.082h-0.751v0.082c0.211,0.018,0.231,0.033,0.231,0.249v0.491h-0.767v-0.491
		c0-0.216,0.021-0.231,0.219-0.249v-0.082h-0.733v0.082c0.193,0.018,0.216,0.031,0.216,0.249v1.008c0,0.218-0.023,0.231-0.227,0.249
		v0.082h0.736v-0.082c-0.19-0.018-0.211-0.033-0.211-0.249v-0.393h0.767v0.393c0,0.216-0.02,0.231-0.216,0.249v0.082h0.736V747.016z
		 M128.224,746.692c-0.049,0.162-0.136,0.347-0.35,0.347c-0.165,0-0.265-0.118-0.265-0.265c0-0.159,0.105-0.242,0.324-0.352
		c0.244-0.121,0.45-0.257,0.45-0.525c0-0.285-0.242-0.509-0.607-0.509c-0.097,0-0.185,0.016-0.254,0.039
		c-0.07,0.02-0.116,0.039-0.146,0.054c-0.023,0.062-0.057,0.28-0.075,0.424l0.087,0.023c0.046-0.159,0.185-0.44,0.437-0.44
		c0.172,0,0.278,0.113,0.278,0.285c0,0.165-0.123,0.26-0.316,0.362c-0.229,0.116-0.44,0.252-0.44,0.514
		c0,0.27,0.213,0.486,0.568,0.486c0.146,0,0.28-0.044,0.345-0.064c0.01-0.092,0.025-0.203,0.049-0.362L128.224,746.692
		L128.224,746.692z M126.252,745.427v0.082c0.198,0.015,0.221,0.033,0.221,0.252v1.003c0,0.218-0.023,0.236-0.221,0.252v0.082h0.738
		v-0.082c-0.198-0.016-0.219-0.034-0.219-0.252v-1.003c0-0.218,0.02-0.236,0.219-0.252v-0.082H126.252z M125.986,745.851
		c-0.02-0.098-0.072-0.352-0.095-0.424h-1.219v0.082c0.221,0.015,0.244,0.033,0.244,0.252v1.003c0,0.221-0.021,0.237-0.223,0.252
		v0.082h0.743v-0.082c-0.198-0.015-0.221-0.031-0.221-0.252v-1.008c0-0.129,0.01-0.177,0.062-0.201
		c0.046-0.021,0.121-0.026,0.211-0.026c0.124,0,0.214,0.016,0.273,0.085c0.049,0.051,0.095,0.134,0.139,0.26L125.986,745.851
		L125.986,745.851z M123.917,746.324c0.283-0.036,0.481-0.154,0.481-0.404c0-0.172-0.095-0.306-0.242-0.386
		c-0.131-0.075-0.319-0.108-0.53-0.108h-0.622v0.085c0.206,0.016,0.226,0.034,0.226,0.25v1.003c0,0.219-0.018,0.234-0.208,0.252
		v0.082h0.717c0.196,0,0.319-0.028,0.412-0.087c0.093-0.062,0.149-0.17,0.149-0.293c0-0.244-0.211-0.347-0.383-0.383V746.324z
		 M123.606,746.36c0.262,0,0.375,0.103,0.375,0.316c0,0.214-0.124,0.324-0.304,0.324c-0.059,0-0.106-0.013-0.123-0.028
		c-0.021-0.018-0.028-0.054-0.028-0.118v-0.494L123.606,746.36L123.606,746.36z M123.526,745.766c0-0.188,0.049-0.242,0.198-0.239
		c0.167,0.002,0.339,0.108,0.339,0.368c0,0.249-0.162,0.368-0.463,0.368h-0.074L123.526,745.766L123.526,745.766z M121.996,745.427
		v0.082c0.154,0.023,0.172,0.049,0.134,0.159c-0.028,0.085-0.072,0.206-0.119,0.329h-0.512c-0.033-0.093-0.07-0.193-0.1-0.296
		c-0.044-0.139-0.031-0.172,0.157-0.193v-0.082h-0.568v0.082c0.167,0.02,0.201,0.046,0.288,0.267l0.53,1.33l0.113,0.031
		c0.162-0.447,0.324-0.91,0.491-1.353c0.085-0.226,0.119-0.257,0.283-0.275v-0.082L121.996,745.427L121.996,745.427z
		 M121.764,746.715h-0.005c-0.077-0.198-0.146-0.399-0.218-0.591h0.43L121.764,746.715L121.764,746.715z M120.78,746.674
		c-0.031,0.131-0.062,0.208-0.103,0.255c-0.044,0.051-0.1,0.067-0.267,0.067h-0.139v-1.237c0-0.213,0.023-0.234,0.257-0.249v-0.082
		h-0.802v0.082c0.224,0.015,0.247,0.036,0.247,0.249v1.237h-0.113c-0.213,0-0.262-0.026-0.298-0.075
		c-0.039-0.044-0.067-0.126-0.098-0.247h-0.088c0.01,0.175,0.026,0.355,0.031,0.489h0.059c0.039-0.059,0.072-0.064,0.144-0.064
		h1.029c0.067,0,0.098,0.015,0.141,0.064h0.059c0-0.11,0.013-0.324,0.025-0.481L120.78,746.674L120.78,746.674z M118.935,746.692
		c-0.049,0.162-0.136,0.347-0.35,0.347c-0.165,0-0.265-0.118-0.265-0.265c0-0.159,0.105-0.242,0.324-0.352
		c0.244-0.121,0.45-0.257,0.45-0.525c0-0.285-0.242-0.509-0.607-0.509c-0.097,0-0.185,0.016-0.254,0.039
		c-0.07,0.02-0.116,0.039-0.146,0.054c-0.023,0.062-0.057,0.28-0.075,0.424l0.087,0.023c0.046-0.159,0.185-0.44,0.437-0.44
		c0.172,0,0.278,0.113,0.278,0.285c0,0.165-0.123,0.26-0.316,0.362c-0.229,0.116-0.44,0.252-0.44,0.514
		c0,0.27,0.213,0.486,0.568,0.486c0.146,0,0.28-0.044,0.345-0.064c0.01-0.092,0.025-0.203,0.049-0.362L118.935,746.692
		L118.935,746.692z M117.703,745.846c-0.015-0.106-0.067-0.342-0.09-0.419h-1.286v0.082c0.224,0.018,0.247,0.036,0.247,0.249v1.003
		c0,0.226-0.023,0.239-0.214,0.255v0.082h1.188c0.003-0.051,0.015-0.229,0.026-0.381l-0.088-0.013
		c-0.023,0.097-0.054,0.172-0.095,0.221c-0.041,0.051-0.111,0.07-0.27,0.07h-0.152c-0.09,0-0.097-0.005-0.097-0.088v-0.563h0.198
		c0.226,0,0.252,0.015,0.285,0.195h0.085v-0.509h-0.085c-0.033,0.183-0.062,0.195-0.283,0.195h-0.2v-0.458
		c0-0.124,0.013-0.185,0.062-0.211c0.049-0.026,0.139-0.029,0.247-0.029c0.157,0,0.24,0.018,0.298,0.085
		c0.049,0.054,0.095,0.139,0.139,0.247L117.703,745.846L117.703,745.846z"/>
</g>
</svg>
