<?xml version="1.0" encoding="UTF-8" standalone="no"?>
<!DOCTYPE svg PUBLIC "-//W3C//DTD SVG 1.1//EN" "http://www.w3.org/Graphics/SVG/1.1/DTD/svg11.dtd">
<svg xmlns="http://www.w3.org/2000/svg" xmlns:xlink="http://www.w3.org/1999/xlink" version="1.1" width="499" height="1200" viewBox="0 0 499 1200" xml:space="preserve">
<desc>Created with Fabric.js 3.2.0</desc>
<defs>
	<style type="text/css"><![CDATA[
		@font-face {
			font-family: 'AguafinaScript Regular';
			src: url('AguafinaScript Regular.ttf');
		}
]]></style>
</defs>
<g id="id_1579788317124" clip-path="url(#CLIPPATH_1)">
<g transform="matrix(0.3413362011466225 0 0 0.3413362011466225 227.92851668400698 250.77520510418742)">
<clipPath id="CLIPPATH_1">
	<rect transform="matrix(1 0 0 1 224.9444444444444 316.0555555555555)" x="-115.55555555555554" y="-195.55555555555551" rx="0" ry="0" width="231.1111111111111" height="391.11111111111103"/>
</clipPath>
<g style="">
		<g transform="matrix(0.096 0 0 0.096 -75.9482530908673 -59.009704346941476)" id="_393610274208">
<path style="stroke: none; stroke-width: 1; stroke-dasharray: none; stroke-linecap: butt; stroke-dashoffset: 0; stroke-linejoin: miter; stroke-miterlimit: 4; fill: rgb(114,166,55); fill-rule: nonzero; opacity: 1;" transform=" translate(-3458.971856429309, -4885.530154033698)" d="M 4007 5008 c 0 0 -592 -299 -610 -351 c -18 -53 79 -240 7 -268 c -45 -18 -184 -3 -206 145 c -208 -206 -351 62 -269 183 c 47 69 129 148 238 170 c 0 0 375 428 496 490 c 121 63 391 -153 344 -369 z" stroke-linecap="round"/>
</g>
		<g transform="matrix(0.096 0 0 0.096 -75.92653115215579 -59.03039537388106)" id="_393610274208">
<path style="stroke: none; stroke-width: 1; stroke-dasharray: none; stroke-linecap: butt; stroke-dashoffset: 0; stroke-linejoin: miter; stroke-miterlimit: 4; fill: rgb(0,0,0); fill-rule: nonzero; opacity: 1;" transform=" translate(-3459.1981266242205, -4885.314622503077)" d="M 3712 5416 c -23 0 -44 -5 -62 -14 c -117 -60 -447 -432 -498 -490 c -132 -30 -215 -135 -246 -180 c -51 -75 -29 -202 46 -265 c 85 -70 177 -24 230 16 c 19 -54 55 -85 84 -102 c 53 -30 114 -32 148 -18 c 67 27 43 121 24 196 c -8 31 -18 73 -15 87 c 29 37 324 200 596 337 c 8 3 13 10 15 19 c 31 144 -63 277 -153 346 c -58 44 -118 68 -169 68 z m -661 -930 l 0 0 c -23 0 -44 8 -63 24 c -54 44 -71 139 -36 191 c 27 40 103 136 220 159 c 6 1 12 4 16 9 c 103 118 392 435 488 484 c 38 19 107 0 171 -49 c 75 -57 153 -163 135 -278 c -39 -20 -163 -83 -287 -150 c -310 -167 -319 -194 -324 -210 c -10 -29 0 -69 13 -120 c 11 -43 31 -123 9 -132 c -17 -7 -61 -7 -99 15 c -38 22 -61 59 -69 109 c -1 10 -9 19 -19 22 c -9 4 -20 1 -28 -6 c -45 -45 -89 -68 -127 -68 z" stroke-linecap="round"/>
</g>
		<g transform="matrix(0.096 0 0 0.096 -115.04133239075526 -100.60310210807287)" id="_393610274208">
<path style="stroke: none; stroke-width: 1; stroke-dasharray: none; stroke-linecap: butt; stroke-dashoffset: 0; stroke-linejoin: miter; stroke-miterlimit: 4; fill: rgb(255,210,78); fill-rule: nonzero; opacity: 1;" transform=" translate(-3051.7522803888096, -4452.265594021912)" d="M 3021 4322 c 0 0 -115 -84 -115 -10 c 0 95 167 313 222 311 c 55 -2 166 -103 -107 -301 z" stroke-linecap="round"/>
</g>
		<g transform="matrix(0.096 0 0 0.096 -115.03772486973016 -100.57268886707773)" id="_393610274208">
<path style="stroke: none; stroke-width: 1; stroke-dasharray: none; stroke-linecap: butt; stroke-dashoffset: 0; stroke-linejoin: miter; stroke-miterlimit: 4; fill: rgb(0,0,0); fill-rule: nonzero; opacity: 1;" transform=" translate(-3051.789858732821, -4452.582398615612)" d="M 3127 4651 c -15 0 -39 -6 -82 -47 c -70 -68 -167 -211 -167 -292 c 0 -33 17 -47 28 -52 c 40 -21 105 20 131 39 c 182 132 200 224 184 278 c -14 47 -57 73 -92 74 c -1 0 -1 0 -2 0 z m -193 -342 l 0 0 c 0 1 0 2 0 3 c 0 83 152 278 194 283 c 11 0 33 -11 40 -34 c 22 -75 -119 -185 -164 -217 l 0 0 c -25 -18 -57 -34 -70 -35 z" stroke-linecap="round"/>
</g>
		<g transform="matrix(0.096 0 0 0.096 -127.8093323907552 -88.50710210807293)" id="_393610274208">
<path style="stroke: none; stroke-width: 1; stroke-dasharray: none; stroke-linecap: butt; stroke-dashoffset: 0; stroke-linejoin: miter; stroke-miterlimit: 4; fill: rgb(255,210,78); fill-rule: nonzero; opacity: 1;" transform=" translate(-2918.7522803888096, -4578.265594021912)" d="M 2888 4448 c 0 0 -115 -84 -115 -10 c 0 95 167 313 222 311 c 55 -2 166 -103 -107 -301 z" stroke-linecap="round"/>
</g>
		<g transform="matrix(0.096 0 0 0.096 -127.80572486973017 -88.47668886707785)" id="_393610274208">
<path style="stroke: none; stroke-width: 1; stroke-dasharray: none; stroke-linecap: butt; stroke-dashoffset: 0; stroke-linejoin: miter; stroke-miterlimit: 4; fill: rgb(0,0,0); fill-rule: nonzero; opacity: 1;" transform=" translate(-2918.789858732821, -4578.58239861561)" d="M 2994 4777 c -15 0 -39 -6 -82 -47 c -70 -68 -167 -211 -167 -292 c 0 -33 17 -47 28 -52 c 41 -21 105 20 131 39 c 182 132 200 224 184 278 c -14 47 -57 73 -92 74 c -1 0 -1 0 -2 0 z m -193 -342 l 0 0 c 0 1 0 2 0 3 c 0 83 152 278 194 283 c 11 0 33 -11 40 -34 c 22 -75 -119 -185 -164 -217 l 0 0 c -25 -18 -57 -34 -70 -35 z" stroke-linecap="round"/>
</g>
		<g transform="matrix(0.096 0 0 0.096 -18.68155130808094 248.71540086582357)" id="_393610274208">
<path style="stroke: none; stroke-width: 1; stroke-dasharray: none; stroke-linecap: butt; stroke-dashoffset: 0; stroke-linejoin: miter; stroke-miterlimit: 4; fill: rgb(167,169,172); fill-rule: nonzero; opacity: 1;" transform=" translate(-4055.5, -8091)" d="M 2320 8091 c 0 166 777 301 1736 301 c 958 0 1735 -135 1735 -301 c 0 -167 -777 -301 -1735 -301 c -959 0 -1736 134 -1736 301 z" stroke-linecap="round"/>
</g>
		<g transform="matrix(0.096 0 0 0.096 -232.433595612206 -148.59404668648097)" id="_393610274208">
<path style="stroke: none; stroke-width: 1; stroke-dasharray: none; stroke-linecap: butt; stroke-dashoffset: 0; stroke-linejoin: miter; stroke-miterlimit: 4; fill: rgb(255,255,255); fill-rule: nonzero; opacity: 1;" transform=" translate(-1828.916205165364, -3952.3599213301613)" d="M 1716 3791 c 0 0 -31 266 46 334 c 0 0 138 -91 186 -225 c 0 0 -93 -164 -232 -109 z" stroke-linecap="round"/>
</g>
		<g transform="matrix(0.096 0 0 0.096 -232.2918811686347 -148.23601463410867)" id="_393610274208">
<path style="stroke: none; stroke-width: 1; stroke-dasharray: none; stroke-linecap: butt; stroke-dashoffset: 0; stroke-linejoin: miter; stroke-miterlimit: 4; fill: rgb(0,0,0); fill-rule: nonzero; opacity: 1;" transform=" translate(-1830.3923972858988, -3956.0894218757057)" d="M 1759 4160 l -16 -14 c -85 -76 -58 -330 -54 -359 l 2 -16 l 15 -6 c 128 -50 230 58 266 122 l 7 11 l -5 12 c -50 140 -191 234 -197 238 l -18 12 z m -17 -349 l 0 0 c -8 89 -7 220 25 276 c 37 -29 114 -96 150 -184 c -20 -31 -86 -115 -175 -92 z" stroke-linecap="round"/>
</g>
		<g transform="matrix(0.096 0 0 0.096 -244.36708149043812 -209.97302795854495)" id="_393610274208">
<path style="stroke: none; stroke-width: 1; stroke-dasharray: none; stroke-linecap: butt; stroke-dashoffset: 0; stroke-linejoin: miter; stroke-miterlimit: 4; fill: rgb(37,70,21); fill-rule: nonzero; opacity: 1;" transform=" translate(-1704.6090606004464, -3312.9955330794946)" d="M 1821 3371 c -47 93 -137 142 -201 110 c -64 -33 -78 -134 -31 -227 c 47 -92 136 -141 200 -109 c 64 33 78 134 32 226 z" stroke-linecap="round"/>
</g>
		<g transform="matrix(0.096 0 0 0.096 -244.3407541794581 -209.98740795293392)" id="_393610274208">
<path style="stroke: none; stroke-width: 1; stroke-dasharray: none; stroke-linecap: butt; stroke-dashoffset: 0; stroke-linejoin: miter; stroke-miterlimit: 4; fill: rgb(0,0,0); fill-rule: nonzero; opacity: 1;" transform=" translate(-1704.8833034231554, -3312.8457414712757)" d="M 1663 3518 c -19 0 -38 -4 -55 -13 c -79 -39 -98 -155 -44 -263 c 55 -108 159 -161 238 -121 c 79 39 98 155 43 263 c -25 50 -62 90 -105 113 c -26 14 -52 21 -77 21 z m 83 -355 l 0 0 c -46 0 -101 41 -132 104 c -39 77 -31 164 19 189 c 22 11 51 9 80 -8 c 33 -18 63 -49 83 -89 c 39 -77 30 -164 -19 -189 c -10 -5 -20 -7 -31 -7 z" stroke-linecap="round"/>
</g>
		<g transform="matrix(0.096 0 0 0.096 156.20513765185146 44.7620101990411)" id="_393610274208">
<path style="stroke: none; stroke-width: 1; stroke-dasharray: none; stroke-linecap: butt; stroke-dashoffset: 0; stroke-linejoin: miter; stroke-miterlimit: 4; fill: rgb(114,166,55); fill-rule: nonzero; opacity: 1;" transform=" translate(-5877.23634333263, -5966.485513887683)" d="M 4947 6875 c 0 0 824 384 1089 -539 c 284 -987 123 -1287 903 -1223 c 0 0 -900 -478 -1161 370 c -262 848 -425 804 -672 602 c -246 -202 -424 705 -159 790 z" stroke-linecap="round"/>
</g>
		<g transform="matrix(0.096 0 0 0.096 156.21784251353256 44.770089746219796)" id="_393610274208">
<path style="stroke: none; stroke-width: 1; stroke-dasharray: none; stroke-linecap: butt; stroke-dashoffset: 0; stroke-linejoin: miter; stroke-miterlimit: 4; fill: rgb(0,0,0); fill-rule: nonzero; opacity: 1;" transform=" translate(-5877.368685641808, -5966.569675837461)" d="M 5326 6982 c -203 0 -369 -72 -389 -81 c -82 -27 -133 -121 -146 -265 c -20 -218 58 -525 187 -593 c 33 -18 86 -29 146 21 c 104 84 183 133 256 111 c 117 -36 235 -258 371 -700 c 74 -239 204 -398 388 -474 c 150 -62 338 -66 545 -13 c 154 41 264 98 268 101 c 12 6 17 19 14 32 c -4 13 -16 21 -29 20 c -582 -48 -615 97 -735 640 c -33 152 -75 342 -139 562 c -83 289 -229 483 -434 576 c -102 47 -207 63 -303 63 z m -291 -898 l 0 0 c -13 0 -23 4 -31 8 c -97 51 -177 324 -158 539 c 6 70 29 191 110 217 c 1 1 2 1 3 2 c 3 1 345 157 648 19 c 189 -86 324 -268 403 -541 c 63 -219 104 -408 138 -559 c 61 -275 101 -456 207 -566 c 87 -91 213 -129 428 -126 c -34 -12 -73 -24 -115 -35 c -135 -35 -333 -62 -508 11 c -168 69 -287 216 -356 438 c -146 474 -268 695 -408 737 c -107 32 -211 -42 -307 -121 c -22 -18 -39 -23 -54 -23 z" stroke-linecap="round"/>
</g>
		<g transform="matrix(0.096 0 0 0.096 89.9424349511752 23.451173878260867)" id="_393610274208">
<path style="stroke: none; stroke-width: 1; stroke-dasharray: none; stroke-linecap: butt; stroke-dashoffset: 0; stroke-linejoin: miter; stroke-miterlimit: 4; fill: rgb(37,70,21); fill-rule: nonzero; opacity: 1;" transform=" translate(-5186.999856867252, -5744.497635546222)" d="M 5446 5738 c -1 73 -122 201 -265 199 c -143 -3 -254 -135 -253 -208 c 1 -73 117 -179 260 -177 c 143 3 259 113 258 186 z" stroke-linecap="round"/>
</g>
		<g transform="matrix(0.096 0 0 0.096 89.94216269204551 23.450144430298323)" id="_393610274208">
<path style="stroke: none; stroke-width: 1; stroke-dasharray: none; stroke-linecap: butt; stroke-dashoffset: 0; stroke-linejoin: miter; stroke-miterlimit: 4; fill: rgb(0,0,0); fill-rule: nonzero; opacity: 1;" transform=" translate(-5186.997020834651, -5744.486912129945)" d="M 5185 5965 c -2 0 -3 0 -5 0 c -156 -3 -281 -145 -280 -236 c 2 -94 135 -207 289 -205 c 71 2 142 27 199 73 c 54 42 86 95 86 141 c -1 46 -35 103 -90 149 c -34 29 -106 78 -199 78 z m -1 -385 l 0 0 c -131 0 -227 98 -228 150 c -1 59 100 177 225 179 c 1 0 3 0 4 0 c 76 0 135 -40 163 -65 c 48 -40 70 -83 70 -107 c 1 -52 -96 -155 -230 -157 c -2 0 -3 0 -4 0 z" stroke-linecap="round"/>
</g>
		<g transform="matrix(0.096 0 0 0.096 89.79839465875452 -30.26110271112959)" id="_393610274208">
<path style="stroke: none; stroke-width: 1; stroke-dasharray: none; stroke-linecap: butt; stroke-dashoffset: 0; stroke-linejoin: miter; stroke-miterlimit: 4; fill: rgb(37,70,21); fill-rule: nonzero; opacity: 1;" transform=" translate(-5185.499437154536, -5184.994754406738)" d="M 5444 5178 c -1 74 -122 202 -265 199 c -143 -2 -254 -134 -252 -207 c 1 -74 117 -180 260 -177 c 143 2 259 112 257 185 z" stroke-linecap="round"/>
</g>
		<g transform="matrix(0.096 0 0 0.096 89.79840535024286 -30.260599134176466)" id="_393610274208">
<path style="stroke: none; stroke-width: 1; stroke-dasharray: none; stroke-linecap: butt; stroke-dashoffset: 0; stroke-linejoin: miter; stroke-miterlimit: 4; fill: rgb(0,0,0); fill-rule: nonzero; opacity: 1;" transform=" translate(-5185.499548524207, -5185)" d="M 5183 5405 c -1 0 -3 0 -4 0 c -157 -3 -282 -145 -280 -236 c 1 -93 132 -204 283 -204 c 2 0 4 0 5 0 c 72 1 143 27 200 72 c 54 43 86 96 85 142 c -1 88 -134 226 -289 226 z m -1 -385 l 0 0 c -130 0 -227 98 -228 150 c -1 59 101 177 226 180 c 128 2 236 -113 237 -172 c 0 -53 -96 -155 -231 -157 c -1 -1 -2 -1 -4 -1 z" stroke-linecap="round"/>
</g>
		<g transform="matrix(0.096 0 0 0.096 92.63043495117515 -84.16482612173911)" id="_393610274208">
<path style="stroke: none; stroke-width: 1; stroke-dasharray: none; stroke-linecap: butt; stroke-dashoffset: 0; stroke-linejoin: miter; stroke-miterlimit: 4; fill: rgb(37,70,21); fill-rule: nonzero; opacity: 1;" transform=" translate(-5214.999856867251, -4623.497635546222)" d="M 5474 4617 c -2 73 -122 201 -265 199 c -143 -3 -254 -135 -253 -208 c 1 -73 117 -179 260 -177 c 143 2 259 112 258 186 z" stroke-linecap="round"/>
</g>
		<g transform="matrix(0.096 0 0 0.096 92.58241423757069 -84.21410043880958)" id="_393610274208">
<path style="stroke: none; stroke-width: 1; stroke-dasharray: none; stroke-linecap: butt; stroke-dashoffset: 0; stroke-linejoin: miter; stroke-miterlimit: 4; fill: rgb(0,0,0); fill-rule: nonzero; opacity: 1;" transform=" translate(-5214.499641100538, -4622.984361410072)" d="M 5212 4843 c -1 0 -2 0 -4 0 c -71 -1 -142 -31 -199 -84 c -51 -48 -82 -106 -81 -152 c 1 -45 34 -97 88 -138 c 58 -44 129 -67 201 -66 c 71 1 142 27 199 72 c 54 43 86 96 85 142 c -1 88 -133 226 -289 226 z m -1 -384 l 0 0 c -77 0 -134 34 -161 54 c -45 34 -66 72 -66 95 c -1 24 19 69 63 110 c 27 25 85 68 162 70 c 1 0 2 0 4 0 c 126 0 232 -113 233 -172 c 0 -23 -19 -62 -64 -97 c -47 -37 -108 -59 -166 -60 c -2 0 -3 0 -5 0 z" stroke-linecap="round"/>
</g>
		<g transform="matrix(0.096 0 0 0.096 103.9584349511751 -176.85310271112957)" id="_393610274208">
<path style="stroke: none; stroke-width: 1; stroke-dasharray: none; stroke-linecap: butt; stroke-dashoffset: 0; stroke-linejoin: miter; stroke-miterlimit: 4; fill: rgb(37,70,21); fill-rule: nonzero; opacity: 1;" transform=" translate(-5332.999856867251, -3657.994754406738)" d="M 5592 3651 c -1 74 -122 202 -265 199 c -143 -2 -254 -134 -253 -207 c 1 -74 117 -180 260 -177 c 143 2 259 112 258 185 z" stroke-linecap="round"/>
</g>
		<g transform="matrix(0.096 0 0 0.096 103.95816040866913 -176.85410043880955)" id="_393610274208">
<path style="stroke: none; stroke-width: 1; stroke-dasharray: none; stroke-linecap: butt; stroke-dashoffset: 0; stroke-linejoin: miter; stroke-miterlimit: 4; fill: rgb(0,0,0); fill-rule: nonzero; opacity: 1;" transform=" translate(-5332.99699704948, -3657.984361410072)" d="M 5331 3878 c -2 0 -3 0 -5 0 c -157 -3 -281 -145 -280 -236 c 1 -46 34 -98 88 -138 c 58 -44 129 -67 201 -66 c 71 1 142 27 199 72 c 54 43 86 96 86 142 c -2 88 -134 226 -289 226 z m -2 -385 l 0 0 c -77 0 -134 34 -161 55 c -45 34 -66 72 -66 95 c -1 59 100 177 225 179 c 1 0 2 0 4 0 c 126 0 232 -112 233 -171 c 0 -23 -19 -62 -64 -97 c -47 -38 -108 -60 -166 -61 c -2 0 -3 0 -5 0 z" stroke-linecap="round"/>
</g>
		<g transform="matrix(0.096 0 0 0.096 96.69615715051174 66.76371851140595)" id="_393610274208">
<path style="stroke: none; stroke-width: 1; stroke-dasharray: none; stroke-linecap: butt; stroke-dashoffset: 0; stroke-linejoin: miter; stroke-miterlimit: 4; fill: rgb(37,70,21); fill-rule: nonzero; opacity: 1;" transform=" translate(-5257.351129777007, -6195.669975474816)" d="M 5211 5935 c 90 -20 190 89 223 242 c 34 153 -37 203 -119 246 c -181 93 -202 -8 -235 -161 c -33 -153 41 -308 131 -327 z" stroke-linecap="round"/>
</g>
		<g transform="matrix(0.096 0 0 0.096 96.70869062516414 66.79005471609773)" id="_393610274208">
<path style="stroke: none; stroke-width: 1; stroke-dasharray: none; stroke-linecap: butt; stroke-dashoffset: 0; stroke-linejoin: miter; stroke-miterlimit: 4; fill: rgb(0,0,0); fill-rule: nonzero; opacity: 1;" transform=" translate(-5257.481686804636, -6195.944310940356)" d="M 5201 6487 c -18 0 -34 -4 -48 -11 c -62 -29 -79 -107 -100 -207 c -17 -78 -9 -162 21 -232 c 30 -70 78 -118 131 -129 c 54 -12 111 11 160 64 c 45 49 80 120 97 199 c 37 172 -50 233 -135 277 c -50 26 -91 39 -126 39 z m 32 -527 l 0 0 c -6 0 -11 1 -16 2 l 0 0 c -35 8 -70 44 -92 97 c -26 60 -32 131 -18 197 c 18 82 33 153 69 170 c 25 12 68 3 126 -28 c 77 -40 134 -81 105 -216 c -15 -69 -44 -130 -83 -172 c -30 -32 -62 -50 -91 -50 z" stroke-linecap="round"/>
</g>
		<g transform="matrix(0.096 0 0 0.096 132.60508188340808 32.26581562717615)" id="_393610274208">
<path style="stroke: none; stroke-width: 1; stroke-dasharray: none; stroke-linecap: butt; stroke-dashoffset: 0; stroke-linejoin: miter; stroke-miterlimit: 4; fill: rgb(37,70,21); fill-rule: nonzero; opacity: 1;" transform=" translate(-5631.402429078011, -5836.316820430756)" d="M 5511 5603 c 39 -30 206 2 273 128 c 36 69 -16 246 -89 320 c -55 55 -111 36 -178 -91 c -66 -127 -65 -313 -6 -357 z" stroke-linecap="round"/>
</g>
		<g transform="matrix(0.096 0 0 0.096 132.58040798074123 32.27140086582355)" id="_393610274208">
<path style="stroke: none; stroke-width: 1; stroke-dasharray: none; stroke-linecap: butt; stroke-dashoffset: 0; stroke-linejoin: miter; stroke-miterlimit: 4; fill: rgb(0,0,0); fill-rule: nonzero; opacity: 1;" transform=" translate(-5631.1454092585645, -5836.375)" d="M 5638 6108 c -5 0 -9 0 -13 -1 c -46 -7 -88 -49 -132 -134 c -72 -136 -71 -338 1 -392 c 33 -25 91 -15 114 -10 c 87 20 162 75 200 147 c 44 84 -17 275 -93 352 c -25 25 -51 38 -77 38 z m -83 -488 l 0 0 c -15 0 -25 3 -28 5 c -41 31 -50 199 15 322 c 45 86 77 103 91 105 c 5 1 19 3 42 -21 c 71 -72 111 -235 84 -287 c -45 -86 -136 -113 -163 -119 c -16 -3 -30 -5 -41 -5 z" stroke-linecap="round"/>
</g>
		<g transform="matrix(0.096 0 0 0.096 155.80057181140373 -14.588409204583737)" id="_393610274208">
<path style="stroke: none; stroke-width: 1; stroke-dasharray: none; stroke-linecap: butt; stroke-dashoffset: 0; stroke-linejoin: miter; stroke-miterlimit: 4; fill: rgb(37,70,21); fill-rule: nonzero; opacity: 1;" transform=" translate(-5873.0221158279655, -5348.251978433257)" d="M 5784 5131 c 52 -41 188 18 232 136 c 23 63 -69 214 -129 280 c -43 48 -96 52 -139 -66 c -44 -118 -15 -311 36 -350 z" stroke-linecap="round"/>
</g>
		<g transform="matrix(0.096 0 0 0.096 155.82609366249213 -14.600599134176463)" id="_393610274208">
<path style="stroke: none; stroke-width: 1; stroke-dasharray: none; stroke-linecap: butt; stroke-dashoffset: 0; stroke-linejoin: miter; stroke-miterlimit: 4; fill: rgb(0,0,0); fill-rule: nonzero; opacity: 1;" transform=" translate(-5873.287968443469, -5348.125)" d="M 5832 5606 c -5 0 -10 0 -14 -1 c -39 -7 -71 -45 -96 -115 c -45 -121 -20 -331 45 -381 c 25 -20 63 -24 105 -12 c 57 16 136 68 170 160 c 32 86 -87 257 -134 309 c -29 32 -56 40 -76 40 z m -31 -453 l 0 0 c -36 27 -70 203 -27 318 c 25 69 48 78 55 80 c 13 2 29 -13 37 -22 c 68 -75 140 -209 124 -253 c -25 -67 -85 -112 -133 -126 c -24 -7 -45 -6 -56 3 z" stroke-linecap="round"/>
</g>
		<g transform="matrix(0.096 0 0 0.096 190.5548818787077 -52.36248031038204)" id="_393610274208">
<path style="stroke: none; stroke-width: 1; stroke-dasharray: none; stroke-linecap: butt; stroke-dashoffset: 0; stroke-linejoin: miter; stroke-miterlimit: 4; fill: rgb(37,70,21); fill-rule: nonzero; opacity: 1;" transform=" translate(-6235.046179029048, -4954.772071081192)" d="M 6195 4752 c 64 -10 221 226 202 270 c -15 37 -116 93 -183 118 c -61 23 -119 45 -139 -79 c -21 -124 57 -299 120 -309 z" stroke-linecap="round"/>
</g>
		<g transform="matrix(0.096 0 0 0.096 190.55697396914388 -52.364269694246694)" id="_393610274208">
<path style="stroke: none; stroke-width: 1; stroke-dasharray: none; stroke-linecap: butt; stroke-dashoffset: 0; stroke-linejoin: miter; stroke-miterlimit: 4; fill: rgb(0,0,0); fill-rule: nonzero; opacity: 1;" transform=" translate(-6235.067971637759, -4954.753431665935)" d="M 6145 5186 c -14 0 -28 -3 -41 -11 c -30 -17 -48 -51 -57 -109 c -10 -62 2 -141 31 -212 c 14 -36 54 -120 113 -130 c 36 -5 83 28 139 100 c 5 6 118 151 93 209 c -23 52 -144 112 -200 133 c -24 10 -51 20 -78 20 z m 54 -407 l 0 0 c -13 3 -43 30 -70 96 c -25 62 -35 130 -27 182 c 6 38 17 63 30 70 c 15 9 44 -2 72 -13 c 78 -29 155 -80 167 -102 c 1 -22 -49 -119 -114 -188 c -34 -37 -53 -45 -58 -45 l 0 0 z" stroke-linecap="round"/>
</g>
		<g transform="matrix(0.096 0 0 0.096 -30.65648090146857 -19.708304368146628)" id="_393610274208">
<path style="stroke: none; stroke-width: 1; stroke-dasharray: none; stroke-linecap: butt; stroke-dashoffset: 0; stroke-linejoin: miter; stroke-miterlimit: 4; fill: rgb(114,166,55); fill-rule: nonzero; opacity: 1;" transform=" translate(-3930.761150068879, -5294.919737146144)" d="M 1780 3195 c 321 -266 899 205 899 205 c 266 -166 430 84 430 84 c 180 -162 430 84 430 84 c 256 -116 292 60 356 90 c -236 -457 51 -680 282 -680 c 171 0 374 109 387 256 c 208 -378 763 -243 740 175 c -4 87 -8 200 -65 305 c 351 -27 535 636 -118 586 c 0 0 19 271 29 715 c 171 -91 381 -207 392 -239 c 18 -52 -79 -239 -7 -268 c 45 -18 184 -3 206 146 c 208 -206 350 62 268 183 c -47 69 -128 148 -237 170 c 0 0 -463 483 -584 545 c -10 6 -21 8 -32 9 c 0 181 -2 376 -6 583 c -3 135 -28 251 -69 348 c 18 7 37 15 56 25 c 121 58 292 292 465 438 c 0 0 173 -530 648 -230 c -5 312 -175 652 -666 864 c -139 60 -359 11 -336 -258 c 16 -188 -195 -407 -431 -520 c -96 64 -192 94 -266 107 c -415 72 -927 -58 -1098 -291 c -302 -413 1260 -1567 653 -2526 c -605 -2 -1791 -154 -2080 -185 c -322 -34 -410 -217 -414 -311 c -8 -178 86 -342 168 -410 z" stroke-linecap="round"/>
</g>
		<g transform="matrix(0.096 0 0 0.096 -30.70489831589572 -19.700599134176457)" id="_393610274208">
<path style="stroke: none; stroke-width: 1; stroke-dasharray: none; stroke-linecap: butt; stroke-dashoffset: 0; stroke-linejoin: miter; stroke-miterlimit: 4; fill: rgb(0,0,0); fill-rule: nonzero; opacity: 1;" transform=" translate(-3930.25680200193, -5295)" d="M 5473 7640 c -57 0 -111 -16 -154 -47 c -52 -38 -111 -114 -99 -264 c 16 -179 -193 -382 -401 -486 c -100 64 -198 91 -263 102 c -435 76 -950 -62 -1125 -302 c -134 -182 50 -471 282 -836 c 319 -502 715 -1126 378 -1679 c -506 -3 -1378 -104 -1849 -159 c -95 -11 -170 -20 -219 -25 c -337 -36 -434 -229 -439 -337 c -8 -181 84 -355 179 -433 l 17 21 l -17 -21 c 308 -256 821 117 918 192 c 224 -128 381 18 432 79 c 148 -105 337 4 432 90 c 138 -57 218 -31 270 8 c -67 -194 -30 -326 20 -407 c 68 -113 202 -186 341 -186 c 0 0 1 0 1 0 c 159 1 340 87 397 216 c 125 -171 321 -208 471 -165 c 185 53 298 213 287 409 l 0 12 c -4 77 -9 171 -49 264 c 99 8 190 66 248 161 c 66 108 72 234 14 329 c -66 108 -205 162 -394 154 c 4 80 17 309 26 639 c 286 -153 332 -194 339 -203 c 3 -15 -8 -56 -15 -87 c -19 -75 -43 -170 24 -196 c 33 -14 95 -12 148 18 c 29 17 64 47 84 102 c 81 -63 165 -70 230 -16 c 75 63 97 189 45 265 c -30 45 -114 150 -246 180 c -57 60 -468 484 -585 545 c -5 3 -11 5 -17 7 c 0 187 -2 376 -7 561 c -2 122 -23 234 -60 332 c 11 5 21 10 32 15 c 75 35 159 126 258 230 c 59 64 121 130 183 186 c 32 -73 115 -227 270 -283 c 120 -43 256 -17 404 77 c 9 5 13 14 13 23 c -6 521 -430 781 -682 889 c -40 17 -81 26 -122 26 z m -656 -857 l 0 0 c 4 0 8 1 12 3 c 311 149 460 388 447 547 c -9 99 17 173 75 215 c 67 48 159 42 222 15 c 237 -102 634 -344 648 -823 c -127 -77 -242 -98 -342 -62 c -176 63 -250 283 -251 285 c -3 9 -10 16 -19 18 c -9 3 -18 1 -25 -5 c -75 -63 -148 -141 -218 -216 c -90 -96 -176 -187 -241 -218 c -18 -9 -36 -17 -54 -24 c -7 -2 -13 -8 -16 -15 c -3 -7 -3 -14 0 -21 c 42 -98 64 -212 67 -339 c 4 -192 7 -388 6 -582 c 0 -15 12 -27 26 -28 c 8 0 15 -2 22 -5 c 92 -48 417 -374 576 -540 c 4 -4 9 -7 14 -8 c 118 -24 193 -119 220 -159 c 36 -52 18 -147 -35 -191 c -51 -43 -119 -27 -190 44 c -8 7 -19 9 -29 6 c -10 -3 -17 -12 -18 -22 c -8 -50 -31 -87 -69 -109 c -39 -22 -82 -22 -100 -15 c -21 9 -1 89 10 132 c 13 51 23 91 13 119 c -6 17 -16 48 -405 254 c -9 5 -19 4 -27 0 c -8 -5 -14 -14 -14 -24 c -10 -437 -29 -710 -29 -713 c 0 -8 3 -16 8 -21 c 6 -6 14 -9 22 -8 c 184 13 317 -31 374 -126 c 47 -75 41 -182 -13 -271 c -56 -91 -147 -142 -243 -134 c -10 1 -20 -4 -26 -13 c -5 -8 -6 -19 -1 -28 c 52 -95 58 -199 62 -282 l 1 -12 c 9 -169 -88 -307 -247 -353 c -144 -41 -337 3 -442 194 c -6 10 -18 16 -30 13 c -12 -2 -21 -12 -22 -24 c -12 -132 -199 -231 -359 -231 c 0 0 -1 0 -1 0 c -120 0 -235 62 -294 159 c -52 85 -88 238 38 480 c 5 11 3 24 -5 32 c -8 9 -21 11 -31 6 c -22 -10 -38 -29 -56 -49 c -49 -56 -104 -119 -278 -41 c -10 5 -23 3 -31 -5 c 0 -1 -61 -60 -141 -98 c -101 -49 -185 -44 -251 15 c -6 5 -14 8 -22 7 c -8 -2 -15 -6 -19 -13 c -7 -9 -153 -225 -392 -75 c -10 6 -23 5 -33 -2 c -1 -2 -144 -117 -324 -199 c -233 -107 -415 -109 -539 -7 c -82 68 -165 227 -159 388 c 4 85 90 253 390 285 c 49 5 124 14 220 25 c 440 51 1357 158 1857 159 c 10 0 19 5 24 13 c 370 585 -40 1232 -371 1751 c -211 333 -394 621 -283 773 c 161 221 661 352 1070 281 c 63 -11 159 -38 256 -103 c 4 -3 10 -5 15 -5 z" stroke-linecap="round"/>
</g>
		<g transform="matrix(0.096 0 0 0.096 -109.48676927953198 98.50016439079376)" id="_393610274208">
<path style="stroke: none; stroke-width: 1; stroke-dasharray: none; stroke-linecap: butt; stroke-dashoffset: 0; stroke-linejoin: miter; stroke-miterlimit: 4; fill: rgb(114,166,55); fill-rule: nonzero; opacity: 1;" transform=" translate(-3109.612312797385, -6526.257953385106)" d="M 2560 6026 c -132 225 -158 541 101 906 c 73 102 252 163 352 -39 c 92 -186 490 -240 726 -138 c 0 0 126 -353 -294 -396 c -111 -11 -335 83 -522 112 c 0 0 106 -454 -363 -445 z" stroke-linecap="round"/>
</g>
		<g transform="matrix(0.096 0 0 0.096 -109.482593493762 98.47205202861412)" id="_393610274208">
<path style="stroke: none; stroke-width: 1; stroke-dasharray: none; stroke-linecap: butt; stroke-dashoffset: 0; stroke-linejoin: miter; stroke-miterlimit: 4; fill: rgb(0,0,0); fill-rule: nonzero; opacity: 1;" transform=" translate(-3109.6558105658223, -6525.965116279069)" d="M 2834 7054 c -73 0 -149 -40 -195 -106 c -134 -188 -325 -559 -103 -936 c 5 -9 14 -14 24 -14 c 148 -2 257 39 325 123 c 85 105 81 247 72 316 c 67 -13 137 -33 205 -52 c 116 -32 216 -60 286 -53 c 141 14 240 64 293 148 c 80 126 27 278 25 284 c -3 8 -8 14 -15 17 c -7 3 -15 3 -22 0 c -263 -113 -618 -24 -691 124 c -57 115 -134 144 -189 149 c -5 0 -10 0 -15 0 z m -258 -1001 l 0 0 c -193 346 -16 688 108 862 c 32 46 94 88 161 83 c 57 -4 107 -45 143 -117 c 97 -196 483 -253 733 -163 c 9 -45 20 -134 -27 -208 c -44 -69 -128 -110 -252 -123 c -59 -6 -159 22 -265 52 c -83 23 -168 47 -249 59 c -9 2 -19 -1 -25 -8 c -6 -7 -9 -16 -7 -25 c 1 -2 43 -190 -54 -309 c -55 -68 -144 -102 -266 -103 z" stroke-linecap="round"/>
</g>
		<g transform="matrix(0.096 0 0 0.096 -153.33867535094518 56.95237328379382)" id="_393610274208">
<path style="stroke: none; stroke-width: 1; stroke-dasharray: none; stroke-linecap: butt; stroke-dashoffset: 0; stroke-linejoin: miter; stroke-miterlimit: 4; fill: rgb(255,210,78); fill-rule: nonzero; opacity: 1;" transform=" translate(-2652.8216245534977, -6093.4684626871895)" d="M 2527 5907 c 0 0 -64 95 -88 209 c -16 73 113 119 315 180 c 0 0 139 -71 110 -180 c -30 -109 -143 -278 -337 -209 z" stroke-linecap="round"/>
</g>
		<g transform="matrix(0.096 0 0 0.096 -153.40166603998514 57.06071986601556)" id="_393610274208">
<path style="stroke: none; stroke-width: 1; stroke-dasharray: none; stroke-linecap: butt; stroke-dashoffset: 0; stroke-linejoin: miter; stroke-miterlimit: 4; fill: rgb(0,0,0); fill-rule: nonzero; opacity: 1;" transform=" translate(-2652.165471542665, -6094.5970729186665)" d="M 2757 6326 l -11 -3 c -215 -65 -355 -115 -335 -213 c 25 -117 91 -214 93 -218 l 6 -8 l 8 -3 c 75 -27 145 -23 209 10 c 90 48 145 147 163 218 c 35 129 -117 209 -123 212 l -10 5 z m -212 -396 l 0 0 c -15 25 -60 103 -79 192 c -12 53 162 107 285 144 c 27 -17 105 -71 86 -143 c -16 -60 -61 -144 -136 -183 c -47 -24 -99 -28 -156 -10 z" stroke-linecap="round"/>
</g>
		<g transform="matrix(0.096 0 0 0.096 -157.4279017518132 78.97508537356441)" id="_393610274208">
<path style="stroke: none; stroke-width: 1; stroke-dasharray: none; stroke-linecap: butt; stroke-dashoffset: 0; stroke-linejoin: miter; stroke-miterlimit: 4; fill: rgb(255,210,78); fill-rule: nonzero; opacity: 1;" transform=" translate(-2610.2255162111223, -6322.8717136223)" d="M 2449 6078 c 0 0 -68 168 35 504 c 0 0 271 -53 308 -264 c 19 -111 -149 -309 -343 -240 z" stroke-linecap="round"/>
</g>
		<g transform="matrix(0.096 0 0 0.096 -157.4676657428282 79.20180490469703)" id="_393610274208">
<path style="stroke: none; stroke-width: 1; stroke-dasharray: none; stroke-linecap: butt; stroke-dashoffset: 0; stroke-linejoin: miter; stroke-miterlimit: 4; fill: rgb(0,0,0); fill-rule: nonzero; opacity: 1;" transform=" translate(-2609.811307971383, -6325.233375404932)" d="M 2465 6614 l -8 -23 c -105 -342 -37 -516 -34 -523 l 5 -12 l 12 -4 c 94 -33 194 -13 276 56 c 73 62 115 148 103 215 c -16 95 -79 175 -181 231 c -76 41 -146 55 -149 56 l -24 4 z m 6 -514 l 0 0 c -12 42 -42 192 32 449 c 64 -19 235 -82 261 -235 c 8 -47 -27 -116 -84 -164 c -62 -52 -138 -70 -209 -50 z" stroke-linecap="round"/>
</g>
		<g transform="matrix(0.096 0 0 0.096 61.57264607005548 -196.00648235086197)" id="_393610274208">
<path style="stroke: none; stroke-width: 1; stroke-dasharray: none; stroke-linecap: butt; stroke-dashoffset: 0; stroke-linejoin: miter; stroke-miterlimit: 4; fill: rgb(255,255,255); fill-rule: nonzero; opacity: 1;" transform=" translate(-4891.481222688922, -3458.4803831595254)" d="M 5226 3523 c -36 185 -215 306 -400 270 c -185 -36 -305 -215 -269 -400 c 36 -185 215 -305 400 -269 c 184 36 305 215 269 399 z" stroke-linecap="round"/>
</g>
		<g transform="matrix(0.096 0 0 0.096 61.56828280202964 -196.0002963285583)" id="_393610274208">
<path style="stroke: none; stroke-width: 1; stroke-dasharray: none; stroke-linecap: butt; stroke-dashoffset: 0; stroke-linejoin: miter; stroke-miterlimit: 4; fill: rgb(0,0,0); fill-rule: nonzero; opacity: 1;" transform=" translate(-4891.435771980318, -3458.5448208918556)" d="M 4891 3827 c -23 0 -46 -3 -70 -7 c -97 -19 -180 -74 -235 -156 c -55 -82 -75 -180 -56 -276 c 39 -200 233 -330 432 -291 c 199 38 330 232 291 432 c -34 175 -189 298 -362 298 z m 0 -682 l 0 0 c -146 0 -278 104 -307 253 c -16 82 1 166 48 235 c 47 69 117 116 199 132 c 170 33 334 -78 367 -247 c 34 -169 -77 -334 -247 -367 c -20 -4 -40 -6 -60 -6 z" stroke-linecap="round"/>
</g>
		<g transform="matrix(0.096 0 0 0.096 61.54164742286757 -196.03740040322785)" id="_393610274208">
<path style="stroke: none; stroke-width: 1; stroke-dasharray: none; stroke-linecap: butt; stroke-dashoffset: 0; stroke-linejoin: miter; stroke-miterlimit: 4; fill: rgb(255,252,73); fill-rule: nonzero; opacity: 1;" transform=" translate(-4891.1583201140475, -3458.1583201140475)" d="M 5119 3503 c -24 126 -146 208 -272 183 c -126 -24 -208 -146 -184 -272 c 25 -126 147 -208 273 -184 c 126 25 208 147 183 273 z" stroke-linecap="round"/>
</g>
		<g transform="matrix(0.096 0 0 0.096 61.56123006892638 -196.05251557964115)" id="_393610274208">
<path style="stroke: none; stroke-width: 1; stroke-dasharray: none; stroke-linecap: butt; stroke-dashoffset: 0; stroke-linejoin: miter; stroke-miterlimit: 4; fill: rgb(0,0,0); fill-rule: nonzero; opacity: 1;" transform=" translate(-4891.362306010493, -3458.000870359743)" d="M 5038 3487 c -16 80 -94 133 -175 117 c -81 -15 -134 -94 -118 -174 c 16 -81 94 -134 175 -118 c 81 16 133 94 118 175 z" stroke-linecap="round"/>
</g>
		<g transform="matrix(0.096 0 0 0.096 72.08644869191902 -205.46059913417642)" id="_393610274208">
<path style="stroke: none; stroke-width: 1; stroke-dasharray: none; stroke-linecap: butt; stroke-dashoffset: 0; stroke-linejoin: miter; stroke-miterlimit: 4; fill: rgb(255,255,255); fill-rule: nonzero; opacity: 1;" transform=" translate(-5001, -3360.0000000000005)" d="M 5123 3384 c -13 67 -79 111 -146 98 c -67 -13 -111 -78 -98 -146 c 13 -67 78 -111 146 -98 c 67 13 111 78 98 146 z" stroke-linecap="round"/>
</g>
		<g transform="matrix(0.096 0 0 0.096 -3.849551308080965 -200.0845991341765)" id="_393610274208">
<path style="stroke: none; stroke-width: 1; stroke-dasharray: none; stroke-linecap: butt; stroke-dashoffset: 0; stroke-linejoin: miter; stroke-miterlimit: 4; fill: rgb(255,255,255); fill-rule: nonzero; opacity: 1;" transform=" translate(-4210, -3416)" d="M 4519 3476 c -34 171 -199 282 -369 249 c -171 -34 -282 -199 -249 -369 c 33 -171 199 -282 369 -249 c 171 33 282 199 249 369 z" stroke-linecap="round"/>
</g>
		<g transform="matrix(0.096 0 0 0.096 -3.869689982128442 -200.1008663888834)" id="_393610274208">
<path style="stroke: none; stroke-width: 1; stroke-dasharray: none; stroke-linecap: butt; stroke-dashoffset: 0; stroke-linejoin: miter; stroke-miterlimit: 4; fill: rgb(0,0,0); fill-rule: nonzero; opacity: 1;" transform=" translate(-4209.790222145339, -3415.8305494301358)" d="M 4210 3758 c -22 0 -44 -2 -66 -6 c -89 -18 -167 -69 -218 -145 c -51 -76 -70 -167 -52 -257 c 36 -185 216 -306 401 -270 c 90 17 168 69 219 145 c 51 75 69 167 52 256 c -32 164 -176 277 -336 277 z m 0 -629 l 0 0 c -135 0 -255 95 -282 232 c -14 75 1 152 44 215 c 43 64 108 107 183 121 c 155 31 306 -71 336 -226 c 15 -75 0 -152 -43 -215 c -43 -64 -108 -107 -183 -122 c -19 -3 -37 -5 -55 -5 z" stroke-linecap="round"/>
</g>
		<g transform="matrix(0.096 0 0 0.096 -3.8841783718230083 -200.08459913417644)" id="_393610274208">
<path style="stroke: none; stroke-width: 1; stroke-dasharray: none; stroke-linecap: butt; stroke-dashoffset: 0; stroke-linejoin: miter; stroke-miterlimit: 4; fill: rgb(255,252,73); fill-rule: nonzero; opacity: 1;" transform=" translate(-4209.639301419354, -3416)" d="M 4420 3457 c -22 116 -135 192 -251 170 c -117 -23 -192 -136 -170 -252 c 23 -116 136 -192 252 -170 c 116 23 192 136 169 252 z" stroke-linecap="round"/>
</g>
		<g transform="matrix(0.096 0 0 0.096 -3.8628661750752364 -200.09791400117064)" id="_393610274208">
<path style="stroke: none; stroke-width: 1; stroke-dasharray: none; stroke-linecap: butt; stroke-dashoffset: 0; stroke-linejoin: miter; stroke-miterlimit: 4; fill: rgb(0,0,0); fill-rule: nonzero; opacity: 1;" transform=" translate(-4209.86130346881, -3415.8613034688105)" d="M 4345 3442 c -15 75 -87 123 -161 109 c -75 -15 -124 -87 -109 -161 c 14 -75 87 -124 161 -109 c 75 14 123 87 109 161 z" stroke-linecap="round"/>
</g>
		<g transform="matrix(0.096 0 0 0.096 5.84644869191902 -208.7744593883345)" id="_393610274208">
<path style="stroke: none; stroke-width: 1; stroke-dasharray: none; stroke-linecap: butt; stroke-dashoffset: 0; stroke-linejoin: miter; stroke-miterlimit: 4; fill: rgb(255,255,255); fill-rule: nonzero; opacity: 1;" transform=" translate(-4311, -3325.48062235252)" d="M 4424 3347 c -13 62 -73 103 -135 91 c -62 -12 -103 -73 -91 -135 c 12 -62 73 -102 135 -90 c 62 12 103 72 91 134 z" stroke-linecap="round"/>
</g>
		<g transform="matrix(0.096 0 0 0.096 74.40620442545112 -253.8093739699978)" id="_393610274208">
<path style="stroke: none; stroke-width: 1; stroke-dasharray: none; stroke-linecap: butt; stroke-dashoffset: 0; stroke-linejoin: miter; stroke-miterlimit: 4; fill: rgb(0,0,0); fill-rule: nonzero; opacity: 1;" transform=" translate(-5025.164122224292, -2856.3669287935277)" d="M 4738 2977 c 47 -200 466 -408 551 98 c 149 -426 -461 -678 -551 -98 z" stroke-linecap="round"/>
</g>
		<g transform="matrix(0.096 0 0 0.096 1.2542044254511282 -256.60799999999995)" id="_393610274208">
<path style="stroke: none; stroke-width: 1; stroke-dasharray: none; stroke-linecap: butt; stroke-dashoffset: 0; stroke-linejoin: miter; stroke-miterlimit: 4; fill: rgb(0,0,0); fill-rule: nonzero; opacity: 1;" transform=" translate(-4263.164122224292, -2827.2145743143383)" d="M 3976 2948 c 47 -200 466 -408 551 98 c 149 -427 -461 -678 -551 -98 z" stroke-linecap="round"/>
</g>
		<g transform="matrix(0.096 0 0 0.096 -185.88955130600195 -187.98859913417647)" id="_393610274208">
<path style="stroke: none; stroke-width: 1; stroke-dasharray: none; stroke-linecap: butt; stroke-dashoffset: 0; stroke-linejoin: miter; stroke-miterlimit: 4; fill: rgb(37,70,21); fill-rule: nonzero; opacity: 1;" transform=" translate(-2313.7500000216564, -3542)" d="M 2416 3609 c -56 87 -148 127 -205 90 c -57 -37 -56 -137 0 -224 c 57 -87 149 -127 206 -90 c 56 37 56 137 -1 224 z" stroke-linecap="round"/>
</g>
		<g transform="matrix(0.096 0 0 0.096 -185.86555130808097 -187.96827715764064)" id="_393610274208">
<path style="stroke: none; stroke-width: 1; stroke-dasharray: none; stroke-linecap: butt; stroke-dashoffset: 0; stroke-linejoin: miter; stroke-miterlimit: 4; fill: rgb(0,0,0); fill-rule: nonzero; opacity: 1;" transform=" translate(-2314, -3542.2116872555816)" d="M 2259 3741 c -23 0 -44 -6 -63 -19 c -36 -23 -55 -64 -55 -116 c 0 -48 17 -100 47 -146 c 30 -47 71 -83 115 -102 c 47 -21 93 -19 129 4 c 35 23 55 64 55 117 c 0 47 -17 99 -47 145 c -31 47 -72 83 -115 102 c -23 10 -45 15 -66 15 z m 109 -342 l 0 0 c -16 0 -32 6 -43 10 c -34 15 -66 44 -90 81 c -25 38 -39 79 -39 116 c 0 19 4 53 30 70 c 26 17 59 7 77 -1 c 33 -15 66 -43 90 -81 c 25 -37 38 -79 38 -116 c 0 -18 -4 -53 -30 -70 c -10 -7 -22 -9 -33 -9 z" stroke-linecap="round"/>
</g>
		<g transform="matrix(0.096 0 0 0.096 -37.37188449179975 -4.41152475654647)" id="_393610274208">
<path style="stroke: none; stroke-width: 1; stroke-dasharray: none; stroke-linecap: butt; stroke-dashoffset: 0; stroke-linejoin: miter; stroke-miterlimit: 4; fill: rgb(255,210,78); fill-rule: nonzero; opacity: 1;" transform=" translate(-3860.809029336263, -5454.261191433646)" d="M 2822 4478 c -87 3 -135 288 148 290 c 283 3 815 -25 1017 -86 c -186 561 -972 1288 -690 1759 c 333 557 1289 528 1333 13 c 44 -516 201 -2118 337 -2395 c 0 0 -420 52 -1037 42 c -423 66 -325 351 -1108 377 z" stroke-linecap="round"/>
</g>
		<g transform="matrix(0.096 0 0 0.096 -37.38321081409548 -4.395847868921351)" id="_393610274208">
<path style="stroke: none; stroke-width: 1; stroke-dasharray: none; stroke-linecap: butt; stroke-dashoffset: 0; stroke-linejoin: miter; stroke-miterlimit: 4; fill: rgb(0,0,0); fill-rule: nonzero; opacity: 1;" transform=" translate(-3860.6910468123488, -5454.4244923464075)" d="M 4067 6877 c -289 0 -620 -131 -794 -422 c -191 -320 80 -742 343 -1151 c 126 -197 256 -400 327 -582 c -230 52 -697 76 -974 74 c -177 -2 -241 -109 -242 -201 c -1 -80 40 -143 94 -145 l 0 0 c 462 -15 606 -118 746 -218 c 94 -67 183 -131 359 -158 c 2 -1 3 -1 5 -1 c 607 10 1028 -41 1032 -41 c 10 -1 20 3 26 11 c 6 9 7 20 3 29 c -130 265 -286 1811 -334 2384 c -17 200 -162 346 -399 400 c -60 14 -125 21 -192 21 z m -80 -2223 l 0 0 c 7 0 14 3 20 8 c 7 8 9 18 6 28 c -67 202 -211 427 -351 644 c -253 395 -514 802 -341 1093 c 201 336 627 444 926 375 c 211 -49 341 -177 355 -351 c 2 -20 165 -1921 321 -2359 c -126 13 -497 45 -991 37 c -161 25 -241 82 -333 148 c -140 100 -298 213 -776 229 c 0 0 0 0 0 0 c -17 0 -41 36 -41 88 c 1 34 15 145 188 146 c 289 3 814 -26 1009 -85 c 2 -1 5 -1 8 -1 z" stroke-linecap="round"/>
</g>
		<g transform="matrix(0.096 0 0 0.096 -155.86555130808097 -127.98859913417645)" id="_393610274208">
<path style="stroke: none; stroke-width: 1; stroke-dasharray: none; stroke-linecap: butt; stroke-dashoffset: 0; stroke-linejoin: miter; stroke-miterlimit: 4; fill: rgb(255,255,255); fill-rule: nonzero; opacity: 1;" transform=" translate(-2626.5, -4167)" d="M 2480 3984 c 0 0 23 311 109 366 c 0 0 157 -188 184 -328 c 0 0 -172 -37 -293 -38 z" stroke-linecap="round"/>
</g>
		<g transform="matrix(0.096 0 0 0.096 -155.76955130808096 -127.55659913417644)" id="_393610274208">
<path style="stroke: none; stroke-width: 1; stroke-dasharray: none; stroke-linecap: butt; stroke-dashoffset: 0; stroke-linejoin: miter; stroke-miterlimit: 4; fill: rgb(0,0,0); fill-rule: nonzero; opacity: 1;" transform=" translate(-2627.5, -4171.5)" d="M 2595 4387 l -21 -13 c -95 -61 -119 -355 -122 -388 l -2 -30 l 30 0 c 123 1 292 38 299 39 l 26 6 l -5 27 c -28 144 -183 332 -189 340 l -16 19 z m -85 -374 l 0 0 c 11 101 37 241 76 296 c 38 -49 124 -167 153 -265 c -47 -10 -145 -27 -229 -31 z" stroke-linecap="round"/>
</g>
		<g transform="matrix(0.096 0 0 0.096 -72.057551308081 -149.73259913417644)" id="_393610274208">
<path style="stroke: none; stroke-width: 1; stroke-dasharray: none; stroke-linecap: butt; stroke-dashoffset: 0; stroke-linejoin: miter; stroke-miterlimit: 4; fill: rgb(255,255,255); fill-rule: nonzero; opacity: 1;" transform=" translate(-3499.5, -3940.5)" d="M 3615 4064 c 0 0 -45 -212 -118 -247 c 0 0 -82 118 -113 239 c 0 0 119 3 231 8 z" stroke-linecap="round"/>
</g>
		<g transform="matrix(0.096 0 0 0.096 -72.05755130808096 -149.97259913417645)" id="_393610274208">
<path style="stroke: none; stroke-width: 1; stroke-dasharray: none; stroke-linecap: butt; stroke-dashoffset: 0; stroke-linejoin: miter; stroke-miterlimit: 4; fill: rgb(0,0,0); fill-rule: nonzero; opacity: 1;" transform=" translate(-3499.5, -3938)" d="M 3650 4094 l -36 -2 c -111 -5 -229 -8 -231 -8 l -34 -1 l 8 -34 c 32 -124 114 -243 117 -248 l 14 -19 l 21 10 c 14 7 87 51 133 267 l 8 35 z m -229 -65 l 0 0 c 37 1 97 3 158 6 c -17 -66 -45 -143 -75 -177 c -21 34 -60 101 -83 171 z" stroke-linecap="round"/>
</g>
		<g transform="matrix(0.096 0 0 0.096 11.61635872331776 -61.921991472333985)" id="_393610274208">
<path style="stroke: none; stroke-width: 1; stroke-dasharray: none; stroke-linecap: butt; stroke-dashoffset: 0; stroke-linejoin: miter; stroke-miterlimit: 4; fill: rgb(0,0,0); fill-rule: nonzero; opacity: 1;" transform=" translate(-4371.103229493737, -4855.193829810859)" d="M 4374 4970 c -335 0 -436 -179 -441 -189 c -8 -13 -3 -30 11 -37 c 13 -8 30 -2 37 11 c 2 3 167 285 796 89 c 15 -4 30 4 35 19 c 4 14 -4 30 -19 35 c -169 52 -307 72 -419 72 z" stroke-linecap="round"/>
</g>
		<g transform="matrix(0.096 0 0 0.096 4.14450617390154 -31.86419768557763)" id="_393610274208">
<path style="stroke: none; stroke-width: 1; stroke-dasharray: none; stroke-linecap: butt; stroke-dashoffset: 0; stroke-linejoin: miter; stroke-miterlimit: 4; fill: rgb(0,0,0); fill-rule: nonzero; opacity: 1;" transform=" translate(-4293.271432103985, -5168.295848422905)" d="M 4361 5314 c -402 0 -551 -237 -559 -249 c -8 -14 -3 -31 10 -39 c 13 -7 30 -3 38 10 c 9 15 232 364 902 156 c 15 -4 30 4 35 19 c 5 14 -4 30 -18 34 c -159 50 -294 69 -408 69 z" stroke-linecap="round"/>
</g>
		<g transform="matrix(0.096 0 0 0.096 -9.884263221879436 8.51770339369127)" id="_393610274208">
<path style="stroke: none; stroke-width: 1; stroke-dasharray: none; stroke-linecap: butt; stroke-dashoffset: 0; stroke-linejoin: miter; stroke-miterlimit: 4; fill: rgb(0,0,0); fill-rule: nonzero; opacity: 1;" transform=" translate(-4147.138417564599, -5588.940651331955)" d="M 4229 5756 c -137 0 -276 -23 -405 -84 c -179 -85 -251 -203 -254 -208 c -8 -13 -4 -30 9 -38 c 13 -8 30 -4 38 9 c 2 2 70 111 234 188 c 277 130 610 72 841 0 c 15 -4 30 4 35 18 c 5 15 -4 31 -18 35 c -136 42 -305 80 -480 80 z" stroke-linecap="round"/>
</g>
		<g transform="matrix(0.096 0 0 0.096 -26.593362900617947 57.957703393691304)" id="_393610274208">
<path style="stroke: none; stroke-width: 1; stroke-dasharray: none; stroke-linecap: butt; stroke-dashoffset: 0; stroke-linejoin: miter; stroke-miterlimit: 4; fill: rgb(0,0,0); fill-rule: nonzero; opacity: 1;" transform=" translate(-3973.085295911073, -6103.940651331955)" d="M 4101 6308 c -169 0 -345 -30 -509 -109 c -218 -106 -311 -250 -315 -256 c -9 -13 -5 -30 8 -39 c 13 -8 30 -4 39 9 c 0 1 90 138 296 237 c 190 92 521 168 1018 14 c 14 -5 30 3 35 18 c 4 15 -4 30 -19 35 c -155 48 -350 91 -553 91 z" stroke-linecap="round"/>
</g>
		<g transform="matrix(0.096 0 0 0.096 157.1481079040097 -89.08310210807284)" id="_393610274208">
<path style="stroke: none; stroke-width: 1; stroke-dasharray: none; stroke-linecap: butt; stroke-dashoffset: 0; stroke-linejoin: miter; stroke-miterlimit: 4; fill: rgb(255,210,78); fill-rule: nonzero; opacity: 1;" transform=" translate(-5887.058950125944, -4572.265594021912)" d="M 5918 4442 c 0 0 115 -84 115 -10 c 0 95 -167 313 -222 311 c -55 -2 -167 -103 107 -301 z" stroke-linecap="round"/>
</g>
		<g transform="matrix(0.096 0 0 0.096 157.1453187403107 -89.05268886707782)" id="_393610274208">
<path style="stroke: none; stroke-width: 1; stroke-dasharray: none; stroke-linecap: butt; stroke-dashoffset: 0; stroke-linejoin: miter; stroke-miterlimit: 4; fill: rgb(0,0,0); fill-rule: nonzero; opacity: 1;" transform=" translate(-5887.029896337413, -4572.582398615611)" d="M 5812 4771 c -1 0 -2 0 -2 0 c -35 -1 -78 -27 -92 -74 c -17 -54 2 -146 184 -278 c 26 -19 90 -60 131 -39 c 10 5 28 19 28 52 c 0 81 -98 224 -168 292 c -43 41 -67 47 -81 47 z m 193 -342 l 0 0 c -13 1 -45 17 -71 35 l 0 0 c -44 32 -186 142 -163 217 c 7 23 28 34 41 34 c 41 -5 193 -200 193 -283 c 0 -1 0 -2 0 -3 z" stroke-linecap="round"/>
</g>
		<g transform="matrix(0.096 0 0 0.096 169.91610790400952 -76.98710210807289)" id="_393610274208">
<path style="stroke: none; stroke-width: 1; stroke-dasharray: none; stroke-linecap: butt; stroke-dashoffset: 0; stroke-linejoin: miter; stroke-miterlimit: 4; fill: rgb(255,210,78); fill-rule: nonzero; opacity: 1;" transform=" translate(-6020.058950125943, -4698.265594021912)" d="M 6051 4568 c 0 0 115 -84 115 -10 c 0 95 -167 313 -222 311 c -55 -2 -167 -103 107 -301 z" stroke-linecap="round"/>
</g>
		<g transform="matrix(0.096 0 0 0.096 169.91331874031076 -76.95668886707782)" id="_393610274208">
<path style="stroke: none; stroke-width: 1; stroke-dasharray: none; stroke-linecap: butt; stroke-dashoffset: 0; stroke-linejoin: miter; stroke-miterlimit: 4; fill: rgb(0,0,0); fill-rule: nonzero; opacity: 1;" transform=" translate(-6020.029896337413, -4698.582398615611)" d="M 5945 4897 c -1 0 -2 0 -2 0 c -35 -1 -78 -27 -92 -74 c -17 -54 2 -146 184 -278 c 26 -19 90 -60 131 -39 c 10 5 28 19 28 52 c 0 81 -98 224 -168 292 c -43 41 -67 47 -81 47 z m 193 -342 l 0 0 c -13 1 -45 17 -71 35 l 0 0 c -44 32 -186 142 -163 217 c 7 23 28 34 41 34 c 41 -5 193 -200 193 -283 c 0 -1 0 -2 0 -3 z" stroke-linecap="round"/>
</g>
		<g transform="matrix(0.096 0 0 0.096 177.45940869191878 118.03331919355838)" id="_393610274208">
<path style="stroke: none; stroke-width: 1; stroke-dasharray: none; stroke-linecap: butt; stroke-dashoffset: 0; stroke-linejoin: miter; stroke-miterlimit: 4; fill: rgb(255,210,78); fill-rule: nonzero; opacity: 1;" transform=" translate(-6098.634999999998, -6729.728315913903)" d="M 6357 6624 c 0 0 7 138 -39 269 c -30 84 -191 51 -435 -12 c 0 0 -97 -158 0 -252 c 98 -94 319 -196 474 -5 z" stroke-linecap="round"/>
</g>
		<g transform="matrix(0.096 0 0 0.096 177.46321838346685 118.03513480205288)" id="_393610274208">
<path style="stroke: none; stroke-width: 1; stroke-dasharray: none; stroke-linecap: butt; stroke-dashoffset: 0; stroke-linejoin: miter; stroke-miterlimit: 4; fill: rgb(0,0,0); fill-rule: nonzero; opacity: 1;" transform=" translate(-6098.674684286956, -6729.747228502389)" d="M 6212 6971 c -81 0 -196 -27 -336 -63 l -10 -3 l -6 -9 c -5 -8 -108 -179 4 -287 c 62 -60 178 -127 298 -120 c 84 5 157 45 216 118 l 6 7 l 1 9 c 0 5 7 144 -41 279 c -17 50 -63 69 -132 69 z m -310 -114 l 0 0 c 194 50 368 88 390 27 c 37 -106 38 -218 37 -249 c -48 -56 -105 -86 -170 -90 c -103 -7 -202 52 -257 104 c -68 65 -17 176 0 208 z" stroke-linecap="round"/>
</g>
		<g transform="matrix(0.096 0 0 0.096 174.75181607736943 147.95409332493028)" id="_393610274208">
<path style="stroke: none; stroke-width: 1; stroke-dasharray: none; stroke-linecap: butt; stroke-dashoffset: 0; stroke-linejoin: miter; stroke-miterlimit: 4; fill: rgb(255,210,78); fill-rule: nonzero; opacity: 1;" transform=" translate(-6070.430910265108, -7041.403046449028)" d="M 6331 6848 c 0 0 -35 214 -349 494 c 0 0 -244 -223 -151 -461 c 49 -126 345 -224 500 -33 z" stroke-linecap="round"/>
</g>
		<g transform="matrix(0.096 0 0 0.096 174.81015778282827 148.39695595190227)" id="_393610274208">
<path style="stroke: none; stroke-width: 1; stroke-dasharray: none; stroke-linecap: butt; stroke-dashoffset: 0; stroke-linejoin: miter; stroke-miterlimit: 4; fill: rgb(0,0,0); fill-rule: nonzero; opacity: 1;" transform=" translate(-6071.038636363637, -7046.01619881332)" d="M 5982 7379 l -19 -17 c -3 -2 -65 -59 -116 -148 c -69 -119 -83 -238 -42 -344 c 29 -73 125 -135 235 -152 c 125 -20 238 21 312 112 l 8 10 l -2 12 c -1 9 -40 227 -358 510 l -18 17 z m 117 -611 l 0 0 c -16 0 -33 2 -50 4 c -90 14 -171 64 -192 119 c -71 180 74 357 126 412 c 244 -223 305 -401 318 -448 c -51 -56 -122 -87 -202 -87 z" stroke-linecap="round"/>
</g>
		<g transform="matrix(0.096 0 0 0.096 13.08588354690248 -90.06538177087617)" id="_393610274208">
<path style="stroke: none; stroke-width: 1; stroke-dasharray: none; stroke-linecap: butt; stroke-dashoffset: 0; stroke-linejoin: miter; stroke-miterlimit: 4; fill: rgb(0,0,0); fill-rule: nonzero; opacity: 1;" transform=" translate(-4386.410779739411, -4562.033514201044)" d="M 4172 4721 c -94 0 -160 -10 -164 -10 c -15 -2 -26 -17 -23 -32 c 2 -15 16 -25 31 -23 c 6 1 571 78 719 -237 c 7 -14 23 -20 37 -13 c 14 6 20 23 14 37 c -69 147 -227 240 -456 268 c -57 7 -111 10 -158 10 z" stroke-linecap="round"/>
</g>
		<g transform="matrix(0.096 0 0 0.096 -47.33755130808093 -111.71993843576429)" id="_393610274208">
<path style="stroke: none; stroke-width: 1; stroke-dasharray: none; stroke-linecap: butt; stroke-dashoffset: 0; stroke-linejoin: miter; stroke-miterlimit: 4; fill: rgb(37,70,21); fill-rule: nonzero; opacity: 1;" transform=" translate(-3757, -4336.46521560846)" d="M 4595 4085 c 0 0 -128 608 -1676 487 c 0 0 922 -141 1093 -471 c 0 0 442 -16 583 -16 z" stroke-linecap="round"/>
</g>
		<g transform="matrix(0.096 0 0 0.096 -47.351795786436426 -111.66859913417642)" id="_393610274208">
<path style="stroke: none; stroke-width: 1; stroke-dasharray: none; stroke-linecap: butt; stroke-dashoffset: 0; stroke-linejoin: miter; stroke-miterlimit: 4; fill: rgb(0,0,0); fill-rule: nonzero; opacity: 1;" transform=" translate(-3756.8516200171307, -4337)" d="M 3308 4616 c -123 0 -253 -5 -391 -16 c -14 -1 -25 -12 -26 -27 c -1 -14 10 -26 24 -28 c 9 -1 910 -143 1072 -457 c 5 -9 14 -14 24 -15 c 5 0 444 -15 584 -15 c 8 0 16 3 22 10 c 5 6 7 15 5 23 c -1 7 -37 165 -270 307 c -240 145 -590 218 -1044 218 z m -167 -59 l 0 0 c 399 14 868 -19 1176 -203 c 153 -91 215 -190 238 -241 c -148 2 -454 13 -526 15 c -81 138 -289 259 -620 359 c -96 29 -189 52 -268 70 z" stroke-linecap="round"/>
</g>
		<g transform="matrix(0.096 0 0 0.096 -14.209078848268483 -111.54338261961048)" id="_393610274208">
<path style="stroke: none; stroke-width: 1; stroke-dasharray: none; stroke-linecap: butt; stroke-dashoffset: 0; stroke-linejoin: miter; stroke-miterlimit: 4; fill: rgb(255,0,0); fill-rule: nonzero; opacity: 1;" transform=" translate(-4102.088254789714, -4338.304338693395)" d="M 4421 4317 c 0 0 -184 156 -315 135 c -130 -20 -306 69 -335 -21 c -30 -91 17 -267 202 -218 c 186 49 560 -56 448 104 z" stroke-linecap="round"/>
</g>
		<g transform="matrix(0.096 0 0 0.096 -14.247681458434649 -111.53364907261884)" id="_393610274208">
<path style="stroke: none; stroke-width: 1; stroke-dasharray: none; stroke-linecap: butt; stroke-dashoffset: 0; stroke-linejoin: miter; stroke-miterlimit: 4; fill: rgb(0,0,0); fill-rule: nonzero; opacity: 1;" transform=" translate(-4101.686144267149, -4338.4057298078915)" d="M 3847 4500 c -48 0 -88 -13 -103 -61 c -20 -60 -10 -153 45 -211 c 32 -34 91 -68 191 -42 c 65 18 160 14 244 12 c 122 -4 211 -7 238 42 c 20 37 -9 79 -19 93 l -2 2 l -2 3 c -8 6 -196 164 -337 142 c -47 -8 -103 1 -156 9 c -34 5 -68 11 -99 11 z m 66 -267 l 0 0 c -35 0 -63 11 -84 33 c -38 41 -46 112 -32 156 c 10 30 60 25 141 12 c 55 -8 117 -18 173 -9 c 94 15 238 -85 289 -127 c 15 -23 13 -31 13 -31 c -10 -20 -126 -16 -188 -14 c -87 3 -186 6 -259 -13 c -19 -5 -37 -7 -53 -7 z" stroke-linecap="round"/>
</g>
		<g transform="matrix(0.096 0 0 0.096 -18.873551308080945 -117.52459913417646)" id="_393610274208">
<path style="stroke: none; stroke-width: 1; stroke-dasharray: none; stroke-linecap: butt; stroke-dashoffset: 0; stroke-linejoin: miter; stroke-miterlimit: 4; fill: rgb(255,0,0); fill-rule: nonzero; opacity: 1;" transform=" translate(-4053.5, -4276)" d="M 4177 4235 c 0 0 -201 8 -247 82 l 247 -82 z" stroke-linecap="round"/>
</g>
		<g transform="matrix(0.096 0 0 0.096 -18.83124878021324 -117.57539344825973)" id="_393610274208">
<path style="stroke: none; stroke-width: 1; stroke-dasharray: none; stroke-linecap: butt; stroke-dashoffset: 0; stroke-linejoin: miter; stroke-miterlimit: 4; fill: rgb(0,0,0); fill-rule: nonzero; opacity: 1;" transform=" translate(-4053.9406513319555, -4275.470892561632)" d="M 3930 4344 c -5 0 -10 -1 -14 -4 c -13 -8 -17 -25 -9 -38 c 52 -84 247 -94 269 -95 c 15 -1 28 11 29 27 c 0 15 -12 28 -27 28 c -72 3 -196 25 -224 69 c -5 9 -14 13 -24 13 z" stroke-linecap="round"/>
</g>
		<g transform="matrix(0.096 0 0 0.096 -89.33755130808096 -99.35121137907444)" id="_393610274208">
<path style="stroke: none; stroke-width: 1; stroke-dasharray: none; stroke-linecap: butt; stroke-dashoffset: 0; stroke-linejoin: miter; stroke-miterlimit: 4; fill: rgb(255,255,255); fill-rule: nonzero; opacity: 1;" transform=" translate(-3319.5, -4465.306122448979)" d="M 3417 4576 c 0 0 -46 -200 -108 -228 c 0 0 -83 139 -87 232 c 0 0 116 8 195 -4 z" stroke-linecap="round"/>
</g>
		<g transform="matrix(0.096 0 0 0.096 -89.09755130808095 -99.66859913417639)" id="_393610274208">
<path style="stroke: none; stroke-width: 1; stroke-dasharray: none; stroke-linecap: butt; stroke-dashoffset: 0; stroke-linejoin: miter; stroke-miterlimit: 4; fill: rgb(0,0,0); fill-rule: nonzero; opacity: 1;" transform=" translate(-3322, -4462)" d="M 3305 4611 c -46 0 -82 -3 -85 -3 l -27 -2 l 1 -27 c 4 -99 88 -239 91 -245 l 13 -21 l 22 10 c 72 32 116 212 124 247 l 7 30 l -30 4 c -36 5 -79 7 -116 7 z m -52 -57 l 0 0 c 32 1 83 2 129 -2 c -17 -63 -42 -129 -65 -160 c -20 37 -53 105 -64 162 z" stroke-linecap="round"/>
</g>
		<g transform="matrix(0.096 0 0 0.096 -118.47355130808099 -100.59921137907443)" id="_393610274208">
<path style="stroke: none; stroke-width: 1; stroke-dasharray: none; stroke-linecap: butt; stroke-dashoffset: 0; stroke-linejoin: miter; stroke-miterlimit: 4; fill: rgb(255,255,255); fill-rule: nonzero; opacity: 1;" transform=" translate(-3016, -4452.306122448979)" d="M 3113 4563 c 0 0 -45 -200 -107 -228 c 0 0 -84 139 -87 232 c 0 0 115 8 194 -4 z" stroke-linecap="round"/>
</g>
		<g transform="matrix(0.096 0 0 0.096 -118.23355130808098 -100.96459913417644)" id="_393610274208">
<path style="stroke: none; stroke-width: 1; stroke-dasharray: none; stroke-linecap: butt; stroke-dashoffset: 0; stroke-linejoin: miter; stroke-miterlimit: 4; fill: rgb(0,0,0); fill-rule: nonzero; opacity: 1;" transform=" translate(-3018.5, -4448.5)" d="M 3002 4597 c -46 0 -82 -2 -85 -2 l -27 -2 l 1 -27 c 4 -99 87 -239 91 -245 l 13 -21 l 22 10 c 71 31 115 211 123 247 l 7 29 l -30 5 c -36 5 -78 6 -115 6 z m -52 -56 l 0 0 c 31 1 83 2 129 -2 c -17 -64 -42 -129 -66 -161 c -20 38 -53 106 -63 163 z" stroke-linecap="round"/>
</g>
</g>
</g>
</g>
<g style="" id="id_1579788328202" clip-path="url(#CLIPPATH_2)">
<g transform="matrix(2.222222222222222 0 0 2.222222222222222 231.10888921949592 386.96666666666664)">
<clipPath id="CLIPPATH_2">
	<rect transform="matrix(1 0 0 1 224.9444444444444 316.0555555555555)" x="-115.55555555555554" y="-195.55555555555551" rx="0" ry="0" width="231.1111111111111" height="391.11111111111103"/>
</clipPath>
		<text xml:space="preserve" font-family="AguafinaScript Regular" font-size="39" font-style="normal" font-weight="normal" style="stroke: none; stroke-width: 0; stroke-dasharray: none; stroke-linecap: butt; stroke-dashoffset: 0; stroke-linejoin: miter; stroke-miterlimit: 4; fill: cmyk(93,0,100,0); fill-rule: nonzero; opacity: 1; white-space: pre;" x="-40.599000148773186" y="12.251459999999994">Testing</text>
</g>
</g>
</svg>
