<?xml version="1.0" encoding="UTF-8" standalone="no"?>
<!-- Created with Inkscape (http://www.inkscape.org/) -->

<svg
   xmlns:dc="http://purl.org/dc/elements/1.1/"
   xmlns:cc="http://creativecommons.org/ns#"
   xmlns:rdf="http://www.w3.org/1999/02/22-rdf-syntax-ns#"
   xmlns:svg="http://www.w3.org/2000/svg"
   xmlns="http://www.w3.org/2000/svg"
   xmlns:sodipodi="http://sodipodi.sourceforge.net/DTD/sodipodi-0.dtd"
   xmlns:inkscape="http://www.inkscape.org/namespaces/inkscape"
   width="264.58334mm"
   height="23.981831mm"
   viewBox="0 0 264.58334 23.981831"
   version="1.1"
   id="svg3470"
   inkscape:version="0.92.3 (2405546, 2018-03-11)"
   sodipodi:docname="FIFA World Cup wordmark.svg">
  <defs
     id="defs3464" />
  <sodipodi:namedview
     id="base"
     pagecolor="#ffffff"
     bordercolor="#666666"
     borderopacity="1.0"
     inkscape:pageopacity="0.0"
     inkscape:pageshadow="2"
     inkscape:zoom="1"
     inkscape:cx="-49.592241"
     inkscape:cy="-87.229216"
     inkscape:document-units="mm"
     inkscape:current-layer="layer1"
     showgrid="false"
     fit-margin-top="0"
     fit-margin-left="0"
     fit-margin-right="0"
     fit-margin-bottom="0"
     inkscape:window-width="1280"
     inkscape:window-height="738"
     inkscape:window-x="-8"
     inkscape:window-y="-8"
     inkscape:window-maximized="1" />
  <metadata
     id="metadata3467">
    <rdf:RDF>
      <cc:Work
         rdf:about="">
        <dc:format>image/svg+xml</dc:format>
        <dc:type
           rdf:resource="http://purl.org/dc/dcmitype/StillImage" />
        <dc:title></dc:title>
      </cc:Work>
    </rdf:RDF>
  </metadata>
  <g
     inkscape:label="Layer 1"
     inkscape:groupmode="layer"
     id="layer1"
     transform="translate(-225.08618,8.5969417)">
    <path
       inkscape:connector-curvature="0"
       style="fill:#1d1d1b;stroke-width:1.69927251"
       d="m 279.32015,-8.1602281 -8.3213,23.1304971 h 6.97208 l 0.92271,-3.114765 h 8.13442 l 0.93459,3.114765 h 7.19982 l -8.33833,-23.1304971 h -7.50399 m 0.83775,15.5925214 2.79531,-9.6280777 2.88027,9.6280777 z m 51.66641,-15.6418009 -5.18106,23.2035656 h -7.94071 l -3.27115,-17.8100774 h -0.0662 l -3.06036,17.8100774 h -8.01373 l -5.15222,-23.2035656 h 6.34506 l 2.97038,17.816872 h 0.0784 l 3.10962,-17.816872 h 7.83879 l 3.2592,17.816872 h 0.0662 l 3.02466,-17.816872 z m -86.72745,0 h 7.20656 V 14.939685 h -7.21851 z m -20.01068,0 h 17.76931 l -1.87433,5.0366441 h -8.56767 v 4.6814956 h 7.03836 l -1.98814,5.0740292 h -5.04855 v 8.3570237 h -7.32725 V -8.2095076 Z m 46.57026,9.7198416 -1.98306,5.0740228 h -5.07399 v 8.3570242 h -7.30855 V -8.2078121 h 17.77438 l -1.8794,5.0366441 h -8.58643 v 4.681502 z m 191.44347,-9.7198416 h 6.20575 V 6.1969226 c 0,6.3382884 -4.12751,9.1879664 -10.18202,9.1879664 -6.04943,0 -10.14637,-2.849678 -10.14637,-9.1879664 V -8.2095076 h 6.17512 V 5.1484709 c 0,3.0552933 0.831,5.6568791 3.97125,5.6568791 3.15722,0 3.97627,-2.6032814 3.97627,-5.6568791 z m -57.22979,0 H 397.423 V 14.994058 h 8.44712 c 7.91689,0 13.72503,-3.031498 13.72503,-11.6943915 0.002,-8.9653645 -5.65009,-11.5091741 -13.72503,-11.5091741 z m 0.12717,18.6189266 H 403.6353 V -3.618074 h 2.36199 c 4.53707,0 7.22364,2.4095675 7.22364,7.0010011 0,4.6339181 -2.59139,7.0264919 -7.22364,7.0264919 z m 40.85055,-0.8020546 0.28387,4.8446256 c -1.7469,0.440131 -3.71801,0.932899 -6.86341,0.932899 -6.18193,0 -13.31039,-3.12156 -13.31039,-11.8881111 0,-8.0800366 5.63306,-12.0937196 13.27301,-12.0937196 2.36879,0 4.65088,0.5369808 6.88711,1.1996875 l -0.52535,5.0009546 c -1.983,-1.0841349 -3.90999,-1.6262023 -6.0188,-1.6262023 -4.39257,0 -7.26096,3.18783971 -7.26096,7.5192798 0,4.5557505 3.23544,7.3085721 7.7368,7.3085721 2.03232,0.0017 4.08673,-0.528503 5.79793,-1.1979856 z m 32.42379,-17.816872 h -7.36975 V 14.994058 h 6.17518 V 6.8783315 h 2.40443 c 5.76563,0 9.18802,-2.7902067 9.18802,-7.45980796 0.002,-5.24225234 -3.31359,-7.62803114 -10.39788,-7.62803114 z m 0.39755,10.6952188 h -1.59052 v -6.2958035 h 1.59052 c 2.13258,0 3.82675,0.7408807 3.82675,3.12156648 -0.002,2.40956752 -1.69417,3.17423702 -3.82675,3.17423702 z m -94.50163,7.9237078 h 9.56181 v 4.584639 H 378.98563 V -8.2095076 h 6.18192 z M 370.99559,3.5579517 v -0.061013 c 2.98907,-0.7051976 4.42834,-2.76641154 4.42834,-5.8454936 0,-3.9881923 -3.34417,-5.8624938 -7.45299,-5.8624938 H 356.93242 V 14.992555 h 6.19387 V 5.8164825 h 1.29483 c 2.28896,0 3.06042,0.9889735 4.33143,4.9890605 l 1.33734,4.187012 h 6.43517 L 374.265,8.6542667 c -1.1606,-2.8003991 -1.27441,-4.5659493 -3.26941,-5.0961223 z m -6.24307,-2.1206923 h -1.62623 v -5.2473517 h 1.62623 c 2.35517,0 4.50136,0.3789244 4.50136,2.5540084 0,2.6270765 -2.53025,2.6933433 -4.50136,2.6933433 z M 343.272,-8.5952462 c -7.63488,0 -11.61622,4.5489555 -11.61622,11.9781733 0,7.3748459 4.04255,12.0019619 11.61622,12.0019619 7.59743,0 11.64171,-4.627116 11.64171,-12.0019619 0,-7.4292178 -3.98313,-11.9781733 -11.64171,-11.9781733 z m 0,19.4022982 c -3.74178,0 -5.22357,-3.5854664 -5.22357,-7.4224229 0,-4.00008673 1.48179,-7.4054291 5.22357,-7.4054291 3.75366,0 5.27283,3.40364042 5.27283,7.4054291 0,3.8369565 -1.51743,7.4224229 -5.27283,7.4224229 z"
       id="path9" />
  </g>
</svg>
